<svg xmlns="http://www.w3.org/2000/svg" viewBox="0 0 100 100"><title>Untitled-1</title><path d="M0,0V100H100V0H0ZM54.65,65.59c-4.21-.33-6-2.4-9.26-4.41-1.82,9.5-4,18.61-10.58,23.36-2-14.35,3-25.14,5.28-36.58-3.95-6.66.48-20.06,8.82-16.75C59.17,35.27,40,56,52.87,58.53c13.42,2.7,18.91-23.28,10.58-31.73-12-12.19-35-.27-32.17,17.19C32,48.27,36.38,49.56,33,55.45c-7.7-1.71-10-7.77-9.69-15.86,0.48-13.24,11.89-22.51,23.36-23.8,14.49-1.62,28.08,5.32,30,19C78.8,50.12,70.14,66.79,54.65,65.59Z" fill="#cd2127"/></svg>