<svg xmlns="http://www.w3.org/2000/svg" viewBox="0 0 24 24"><defs><style>.a{fill:#ff3b30;}.b{fill:#fff;fill-rule:evenodd;}</style></defs><title>Mobile</title><rect class="a" width="24" height="24"/><path class="b" d="M16.76,4a3.24,3.24,0,1,1-3.24,3.24A3.27,3.27,0,0,1,16.76,4Z"/><path class="b" d="M12.22,7H7A2.14,2.14,0,0,0,4.86,9.19V17A2.14,2.14,0,0,0,7,19.14h7.78A2.14,2.14,0,0,0,17,17V11.78a2.79,2.79,0,0,0,.86-0.13V17a3,3,0,0,1-3,3H7a3,3,0,0,1-3-3V9.19a3,3,0,0,1,3-3h5.32C12.3,6.42,12.26,6.72,12.22,7Z"/></svg>