<svg version="1.1" id="Layer_1" xmlns="http://www.w3.org/2000/svg" x="0" y="0" viewBox="0 0 48 40" xml:space="preserve"><path d="M48 4.7c-1.8.8-3.7 1.3-5.7 1.6 2-1.2 3.6-3.2 4.3-5.6-1.9 1.2-4 2-6.3 2.4-1.8-2-4.4-3.2-7.2-3.2-5.4 0-9.8 4.5-9.8 10.1 0 .8.1 1.6.3 2.3C15.5 12 8.2 8 3.3 1.8 2.5 3.3 2 5.1 2 6.9c0 3.5 1.7 6.6 4.4 8.4-1.6-.1-3.1-.5-4.5-1.3v.1c0 4.9 3.4 9 7.9 9.9-.8.2-1.7.4-2.6.4-.6 0-1.3-.1-1.9-.2 1.3 4 4.9 6.9 9.2 7C11.2 34 7 35.6 2.4 35.6c-.8 0-1.6 0-2.3-.1 4.3 2.8 9.4 4.5 15 4.5 18.1 0 28-15.4 28-28.7V10C45 8.5 46.7 6.8 48 4.7"/></svg>