<svg id="Layer_1" data-name="Layer 1" xmlns="http://www.w3.org/2000/svg" viewBox="0 0 14.13 20.96"><defs><style>.cls-1{fill:none;stroke:#010101;stroke-miterlimit:10;stroke-width:0.56px;}</style></defs><title>location_blk</title><path class="cls-1" d="M307.3,390a3.4,3.4,0,1,0,3.36,3.4A3.43,3.43,0,0,0,307.3,390Zm6.78,3.54a10.9,10.9,0,0,1-1.6,5.36c-1.56,2.64-3.24,5.2-4.87,7.8-0.16.25-.35,0.45-0.59,0.08-2-3.13-4.3-6.09-5.72-9.57a8.4,8.4,0,0,1-.32-6.27,6.74,6.74,0,0,1,13,1.31C314,392.67,314,393.11,314.08,393.54Z" transform="translate(-300.22 -386.3)"/></svg>