<svg id="Layer_1" data-name="Layer 1" xmlns="http://www.w3.org/2000/svg" viewBox="0 0 111.54 111.53"><title>business_growth</title><path d="M58,113.73A55.77,55.77,0,1,1,113.74,58,55.83,55.83,0,0,1,58,113.73ZM58,7.95a50,50,0,1,0,50,50A50.08,50.08,0,0,0,58,7.95Z" transform="translate(-2.2 -2.2)"/><path id="Business_Growth" data-name="Business Growth" d="M29.42,69.64l-4-3.4L48.66,38.64,62.79,50.81l14-18.36L72,27.7H85.13V40.81l-4.6-4.6L63.6,58.47,49.25,46.12ZM28.79,86.23h9V72.7h-9V86.23Zm15.79,0h9V56.05h-9V86.23Zm15.8,0h9V64.8h-9V86.23ZM76.17,45.06V86.23h9V45.06h-9Z" transform="translate(-2.2 -2.2)"/></svg>