<svg id="Layer_1" data-name="Layer 1" xmlns="http://www.w3.org/2000/svg" viewBox="0 0 23 23"><defs><style>.cls-1{fill:#f67e5e;}</style></defs><title>info_icon_orange</title><path class="cls-1" d="M11.5,23A11.5,11.5,0,1,1,23,11.5,11.51,11.51,0,0,1,11.5,23Zm0-22A10.52,10.52,0,1,0,22,11.5,10.53,10.53,0,0,0,11.5,1Z"/><path class="cls-1" d="M10.37,7a1,1,0,0,1,.3-0.75A1.14,1.14,0,0,1,11.5,6a1.35,1.35,0,0,1,.47.08,1,1,0,0,1,.36.22,1,1,0,0,1,.23.33,1.07,1.07,0,0,1,.08.42,1.09,1.09,0,0,1-.08.42,1,1,0,0,1-.23.33A1,1,0,0,1,12,8,1.47,1.47,0,0,1,11,8a1,1,0,0,1-.36-0.22,1,1,0,0,1-.23-0.33A1.09,1.09,0,0,1,10.37,7Zm2.15,10h-2V9.46h2V17Z"/></svg>