<svg id="computer_access" data-name="computer access" xmlns="http://www.w3.org/2000/svg" viewBox="0 0 60 60"><defs><style>.cls-1{fill:#3797d1;}</style></defs><title>expand-reach-g2w</title><path class="cls-1" d="M46.21,36.48A9.57,9.57,0,0,0,38,41.15L21.84,33.08a9.53,9.53,0,0,0,0-7.24L38,17.78a10.17,10.17,0,1,0-.66-1.35L21.14,24.52a9.63,9.63,0,1,0,0,9.9L37.31,42.5a9.6,9.6,0,0,0,8.9,13.23A9.63,9.63,0,0,0,46.21,36.48Zm0-31.78a8.13,8.13,0,1,1-7.26,11.75h0A8.11,8.11,0,0,1,46.21,4.7ZM12.92,37.59a8.13,8.13,0,1,1,7.26-11.75h0a8,8,0,0,1,0,7.26h0A8.08,8.08,0,0,1,12.92,37.59ZM46.21,54.23a8.13,8.13,0,1,1,8.13-8.13A8.07,8.07,0,0,1,46.21,54.23Z"/></svg>