<svg id="Layer_1" data-name="Layer 1" xmlns="http://www.w3.org/2000/svg" viewBox="0 0 134.26 108.33"><defs><style>.cls-1{fill:#dde1e5;}</style></defs><title>quote-lightblue</title><path class="cls-1" d="M158.24,45.54c-42.44,23.45-57.33,55.84-57.33,76.68s12.66,31.64,27.17,31.64c13.4,0,24.94-11.17,24.94-24.2,0-11.91-8.93-21.59-20.47-24.2C133.3,95,143,75.69,166.81,57.45l-8.56-11.91" transform="translate(-32.54 -45.54)"/><path class="cls-1" d="M89.5,45.54c-42.44,23.45-57,55.84-57,76.68s12.28,31.64,26.8,31.64c13.77,0,24.94-11.17,24.94-24.2,0-11.91-8.56-21.59-20.1-24.2,0.37-10.42,10.05-29.78,34.25-48L89.5,45.54" transform="translate(-32.54 -45.54)"/></svg>