<?xml version="1.0" encoding="utf-8"?>
<!-- Generator: Adobe Illustrator 20.0.0, SVG Export Plug-In . SVG Version: 6.00 Build 0)  -->
<svg version="1.1" id="Layer_1" xmlns="http://www.w3.org/2000/svg" xmlns:xlink="http://www.w3.org/1999/xlink" x="0px" y="0px"
	 viewBox="0 0 23 23" style="enable-background:new 0 0 23 23;" xml:space="preserve">
<style type="text/css">
	.st0{fill:#DC0237;}
</style>
<path class="st0" d="M18.8,5c-1.1-3.1-4.1-4.9-7.4-5c-3.2,0-6,2-7.3,4.9c-1,2.5-0.6,5,0.6,7.3c2,3.5,4.1,7,6.1,10.5
	c0.2,0.4,0.9,0.4,1.1,0c2-3.5,4-7,6-10.4C19.4,9.9,19.8,7.5,18.8,5z M11.5,3.8c2-0.1,3.4,1.7,3.5,3.5c0.1,2-1.7,3.4-3.5,3.5
	C6.9,10.7,6.9,4,11.5,3.8z"/>
</svg>
