<?xml version="1.0" encoding="utf-8"?>
<svg version="1.1" id="Layer_1" xmlns="http://www.w3.org/2000/svg" xmlns:xlink="http://www.w3.org/1999/xlink" x="0px" y="0px" viewBox="0 0 22 20" style="enable-background:new 0 0 22 20;" xml:space="preserve">
<style type="text/css">
	.st0{fill-rule:evenodd;clip-rule:evenodd;fill:#E25594;}
</style>
<g>
	<path class="st0" d="M20.6,0.2H1.4c-0.7,0-1.2,0.5-1.2,1.2v11.9c0,0.7,0.5,1.2,1.2,1.2h1.3l2.2,4.1l2.2-4.1h13.5
		c0.7,0,1.2-0.5,1.2-1.2V1.4C21.9,0.7,21.3,0.2,20.6,0.2L20.6,0.2z M21,12.5c0,0.7-0.5,1.2-1.2,1.2H6.5l-1.6,2.8l-1.6-2.8H2.2
		c-0.7,0-1.2-0.5-1.2-1.2V2.2C1,1.6,1.6,1,2.2,1h17.6C20.5,1,21,1.6,21,2.2V12.5z M21,12.5"/>
</g>
</svg>
