<?xml version="1.0" encoding="utf-8"?>
<!-- Generator: Adobe Illustrator 19.2.0, SVG Export Plug-In . SVG Version: 6.00 Build 0)  -->
<svg version="1.1" id="Layer_1" xmlns="http://www.w3.org/2000/svg" xmlns:xlink="http://www.w3.org/1999/xlink" x="0px" y="0px"
	 viewBox="0 0 44.7 44" style="enable-background:new 0 0 44.7 44;" xml:space="preserve">
<style type="text/css">
	.st0{fill:#46CCCC;}
</style>
<path class="st0" d="M41.2,18.5H26.7l2.9-14.3c0.4-1.9-0.8-3.7-2.7-4.1c-1.9-0.4-3.7,0.8-4.1,2.7l-3.2,15.7h-16
	C1.6,18.5,0,20.1,0,22s1.6,3.5,3.5,3.5h14.6l-2.9,14.3c-0.4,1.9,0.8,3.7,2.7,4.1c0.2,0,0.5,0.1,0.7,0.1c1.6,0,3.1-1.1,3.4-2.8
	l3.2-15.7h16c1.9,0,3.5-1.6,3.5-3.5S43.2,18.5,41.2,18.5z"/>
</svg>
