<!-- Generator: Adobe Illustrator 19.1.0, SVG Export Plug-In  -->
<svg version="1.1"
	 xmlns="http://www.w3.org/2000/svg" xmlns:xlink="http://www.w3.org/1999/xlink" xmlns:a="http://ns.adobe.com/AdobeSVGViewerExtensions/3.0/"
	 viewBox="0 0 25.2 24.5" enable-background="new 0 0 25.2 24.5"
	 xml:space="preserve">
<defs>
</defs>
<rect fill="#275431" width="25.2" height="24.5"/>
<path fill="#FFFFFF" d="M9.2,17.8H6.9v-7.5h2.3V17.8z M8,9.3L8,9.3C7.1,9.3,6.6,8.7,6.6,8c0-0.7,0.6-1.3,1.4-1.3
	c0.9,0,1.4,0.6,1.4,1.3C9.4,8.7,8.9,9.3,8,9.3z M18.6,17.8H16v-3.9c0-1-0.4-1.7-1.3-1.7c-0.7,0-1.1,0.5-1.3,0.9
	c-0.1,0.2-0.1,0.4-0.1,0.6v4.1h-2.6c0,0,0-6.9,0-7.5h2.6v1.2c0.2-0.5,1-1.3,2.3-1.3c1.7,0,3,1.1,3,3.4V17.8z"/>
</svg>
