<?xml version="1.0" encoding="utf-8"?>
<!-- Generator: Adobe Illustrator 19.1.0, SVG Export Plug-In . SVG Version: 6.00 Build 0)  -->
<svg version="1.1" id="Layer_1" xmlns="http://www.w3.org/2000/svg" xmlns:xlink="http://www.w3.org/1999/xlink" x="0px" y="0px"
	 viewBox="0 0 12.3 12.2" style="enable-background:new 0 0 12.3 12.2;" xml:space="preserve">
<style type="text/css">
	.st0{fill-rule:evenodd;clip-rule:evenodd;fill:#D3AA61;}
</style>
<path id="XMLID_3724_" class="st0" d="M8.1,1.1C7.5,0.9,6.8,0.8,6.2,0.8c-2.9,0-5.3,2.4-5.3,5.3c0,2.9,2.4,5.3,5.3,5.3
	c2.9,0,5.3-2.4,5.3-5.3c0-2-1.2-3.8-2.8-4.7V9C8,9.6,7.1,9.9,6.2,9.9C4,9.9,2.3,8.2,2.3,6.1S4,2.2,6.2,2.2c0.3,0,0.7,0,1,0.1v3
	l0.9,0.7V1.1"/>
</svg>
