<?xml version="1.0" encoding="utf-8"?>
<!-- Generator: Adobe Illustrator 19.1.0, SVG Export Plug-In . SVG Version: 6.00 Build 0)  -->
<svg version="1.1" id="Layer_1" xmlns="http://www.w3.org/2000/svg" xmlns:xlink="http://www.w3.org/1999/xlink" x="0px" y="0px"
	 width="500px" height="500px" viewBox="-47 170.9 500 500" style="enable-background:new -47 170.9 500 500;" xml:space="preserve"
	>
<style type="text/css">
	.st0{fill:#4D4D4D;}
</style>
<path class="st0" d="M328.4,466.7c47.3-47.3,47.3-123.9,0-171.2s-123.9-47.3-171.2,0c-41.2,41.2-46.5,104.8-15.8,151.7l-92,92.1
	c-9.7,9.7-9.7,25.6,0,35.3s25.6,9.7,35.3,0l92.1-92.1C223.6,513.2,287.2,507.9,328.4,466.7z M183.3,440.6
	c-32.9-32.9-32.9-86.2,0-119.1s86.2-32.9,119.1,0s32.9,86.2,0,119.1S216.2,473.5,183.3,440.6z"/>
</svg>
