<?xml version="1.0" encoding="utf-8"?>
<!-- Generator: Adobe Illustrator 19.2.1, SVG Export Plug-In . SVG Version: 6.00 Build 0)  -->
<svg version="1.1" id="Layer_1" xmlns="http://www.w3.org/2000/svg" xmlns:xlink="http://www.w3.org/1999/xlink" x="0px" y="0px"
	 viewBox="0 0 60.8 56.5" enable-background="new 0 0 60.8 56.5" xml:space="preserve">
<g id="Cog-small">
</g>
<g id="Arrow-bottom-fill-large-acute-small">
</g>
<g id="Arrow-bottom-fill-large-acute-small_1_">
</g>
<path d="M15.3,55.1H4.1V19.3h11.1V55.1z M9.7,14.4c-3.6,0-6.5-2.9-6.5-6.5c0-3.6,2.9-6.5,6.5-6.5c3.6,0,6.5,2.9,6.5,6.5
	C16.2,11.5,13.3,14.4,9.7,14.4z M57,55.1H45.9V37.7c0-4.2-0.1-9.5-5.8-9.5c-5.8,0-6.7,4.5-6.7,9.2v17.7H22.3V19.3h10.7v4.9h0.2
	c1.5-2.8,5.1-5.8,10.5-5.8c11.3,0,13.4,7.4,13.4,17.1V55.1z"/>
</svg>
