<?xml version="1.0" encoding="UTF-8" standalone="no"?><svg width="400" height="400" viewBox="0 0 400 400" xmlns="http://www.w3.org/2000/svg" xmlns:xlink="http://www.w3.org/1999/xlink"><defs><path id="a" d="M0 0h400v400H0z"/></defs><g fill="none" fill-rule="evenodd"><mask id="b" fill="#fff"><use xlink:href="#a"/></mask><use fill-opacity=".15" fill="#F3C766" xlink:href="#a"/><path d="M272.8 285.6c0 56.4-39.6 100.8-94.8 100.8-50.4 0-74.4-22.8-74.4-60 0-60 49.2-75.6 110.4-75.6 26.4 0 39.6 2.4 58.8 6v28.8zm204-183.6c0-170.4-93.6-241.2-265.2-241.2-100.8 0-199.2 34.8-277.2 91.2L-2 73.2C59.2 40.8 112 18 182.8 18c58.8 0 90 28.8 90 87.6v34.8c-26.4-3.6-49.2-4.8-82.8-4.8-205.2 0-286.8 91.2-286.8 200.4 0 128.4 84 189.6 200.4 189.6 85.2 0 151.2-33.6 193.2-90l18 74.4h162V102z" fill="#F3C766" mask="url(#b)"/></g></svg>