<?xml version="1.0" encoding="utf-8"?>
<!-- Generator: Adobe Illustrator 18.1.1, SVG Export Plug-In . SVG Version: 6.00 Build 0)  -->
<svg version="1.1" id="Layer_1" xmlns="http://www.w3.org/2000/svg" xmlns:xlink="http://www.w3.org/1999/xlink" x="0px" y="0px"
	 viewBox="0 0 35 35" enable-background="new 0 0 35 35" xml:space="preserve">
<g>
	<circle fill="#5A5C5C" cx="18.5" cy="18.5" r="16.4"/>
	<circle fill="#18A0DB" cx="16.6" cy="16.6" r="16.4"/>
	<g>
		<path fill="#FFFFFF" d="M23.6,22.8h-2c-0.2,0-0.4-0.1-0.5-0.2c-0.1-0.1-0.2-0.2-0.3-0.4l-1-2.8H14l-1,2.8
			c-0.1,0.1-0.1,0.3-0.3,0.4c-0.1,0.1-0.3,0.2-0.5,0.2h-2l5.4-13.7h2.6L23.6,22.8z M14.7,17.6h4.4l-1.7-4.6
			c-0.1-0.2-0.2-0.4-0.3-0.7c-0.1-0.3-0.2-0.6-0.3-0.9c-0.1,0.3-0.2,0.6-0.3,0.9c-0.1,0.3-0.2,0.5-0.3,0.7L14.7,17.6z"/>
	</g>
</g>
</svg>
