<?xml version="1.0" encoding="utf-8"?>
<svg version="1.1" id="Layer_1" xmlns="http://www.w3.org/2000/svg" xmlns:xlink="http://www.w3.org/1999/xlink" x="0px" y="0px"
	 viewBox="0 0 800 800" style="enable-background:new 0 0 800 800;" xml:space="preserve" fill="#f5f5f5">
<path d="M402.4,773c-175,0-316.7-164.8-316.7-372.5c0-21.7,1.6-43.1,4.5-63.8c73.1-4.1,187.4-9.8,281.1-11.1
	c2.6,169.5-16.5,400.3-16.5,400.3h95c0,0-19.1-230.9-16.5-400.4c151.1,1.7,360.3,15.7,360.3,15.7C765.3,150.6,600.9,1,402.4,1
	C183.8,1,6.6,181.9,6.6,400.5C6.6,619.1,183.8,800,402.4,800c198.5,0,362.8-149.6,391.4-340.1h-78.6
	C691.2,639.3,560.3,773,402.4,773 M402.4,28c130.5,0,242.5,90.2,291,224c-73.3,3.9-174.2,8.7-257.8,9.7
	c4.5-86.8,14.3-186.6,14.3-186.6h-95c0,0,9.8,99.7,14.3,186.5c-84.6-1.2-185.6-6-257.8-9.9C160,118,272,28,402.4,28"/>
</svg>
