<?xml version="1.0" encoding="utf-8"?>
<!-- Generator: Adobe Illustrator 19.1.0, SVG Export Plug-In . SVG Version: 6.00 Build 0)  -->
<svg version="1.1" id="Layer_1" xmlns="http://www.w3.org/2000/svg" xmlns:xlink="http://www.w3.org/1999/xlink" x="0px" y="0px"
	 viewBox="0 0 60 60" style="enable-background:new 0 0 60 60;" xml:space="preserve">
<style type="text/css">
	.st0{fill:#C10000;}
	.st1{fill:#FFFFFF;}
</style>
<rect class="st0" width="60" height="60"/>
<path class="st1" d="M56.1,17.8L56,9.1l-26.3,3.7l0,0l-1.8,0.3l0,0l0,0l-10.9,1.5C7.7,15.9,3.3,22.2,4,33.5C4,34.8,4.1,36,4.3,37.1
	c0.6,4.1,1.8,7.1,3.8,9.1c2.3,2.3,5.7,3.1,10.1,2.5L31,46.8l-0.3-8.9l-11.5,1.6c-2,0.3-3.3-1.3-3.8-4.8c-0.1-0.8-0.2-1.7-0.2-2.8
	c-0.2-5.6,1-8.5,3.5-8.9l9.4-1.3l0,0l9.3-1.3l0.5,30.4l9-1.3l-0.6-30.4L56.1,17.8z"/>
</svg>
