<?xml version="1.0" encoding="utf-8"?>
<!-- Generator: Adobe Illustrator 19.1.0, SVG Export Plug-In . SVG Version: 6.00 Build 0)  -->
<svg version="1.1" id="Layer_1" xmlns="http://www.w3.org/2000/svg" xmlns:xlink="http://www.w3.org/1999/xlink" x="0px" y="0px"
	 viewBox="0 0 66.9 67" style="enable-background:new 0 0 66.9 67;" xml:space="preserve">
<path d="M33.5,66.3c-18.1,0-32.8-14.7-32.8-32.8S15.3,0.7,33.5,0.7s32.8,14.7,32.8,32.8S51.6,66.3,33.5,66.3z M33.5,4.1
	C17.2,4.1,4,17.3,4,33.5c0,16.2,13.2,29.4,29.4,29.4s29.4-13.2,29.4-29.4C62.9,17.3,49.7,4.1,33.5,4.1z"/>
<g>
	<polygon points="33.4,26.6 31.7,38.2 35.2,38.2 33.5,26.6 	"/>
	<path d="M33.5,7.7C19.2,7.7,7.7,19.3,7.7,33.5s11.5,25.8,25.8,25.8s25.8-11.5,25.8-25.8S47.7,7.7,33.5,7.7z M36.2,45.1l-0.6-4.2
		h-4.3l-0.6,4.2h-3.6l4.3-23.4h4.1l4.3,23.4H36.2z"/>
</g>
</svg>
