<?xml version="1.0" encoding="utf-8"?>
<!-- Generator: Adobe Illustrator 19.0.1, SVG Export Plug-In . SVG Version: 6.00 Build 0)  -->
<svg version="1.1" id="Layer_1" xmlns="http://www.w3.org/2000/svg" xmlns:xlink="http://www.w3.org/1999/xlink" x="0px" y="0px"
	 viewBox="199.7 0 1600 1600" style="enable-background:new 199.7 0 1600 1600;" xml:space="preserve">
<style type="text/css">
	.st0{fill:#FFFFFF;}
	.st1{fill:#002E56;}
</style>
<circle class="st0" cx="999.7" cy="800" r="800"/>
<path class="st1" d="M983,287.8c56.1,0,103.6,46,103.6,103.6S1039.2,494.9,983,494.9c-56.1,0-103.5-46-103.5-103.6
	S927,287.8,983,287.8z"/>
<path class="st1" d="M1214.6,1258.6H793.2v-94.9h66.1c40.3,0,57.6-15.8,57.6-57.5V738c0-41.7-17.3-57.5-57.6-57.5h-66.1v-94.9h293.4
	v520.6c0,41.7,17.3,57.5,57.5,57.5h70.5L1214.6,1258.6L1214.6,1258.6z"/>
</svg>
