<?xml version="1.0" encoding="utf-8"?>
<!-- Generator: Adobe Illustrator 19.1.0, SVG Export Plug-In . SVG Version: 6.00 Build 0)  -->
<svg version="1.1" id="Layer_1" xmlns="http://www.w3.org/2000/svg" xmlns:xlink="http://www.w3.org/1999/xlink" x="0px" y="0px"
	 viewBox="0 0 72 72" style="enable-background:new 0 0 72 72;" xml:space="preserve">
<style type="text/css">
	.st0{fill:#B5B5B6;}
</style>
<g>
	<g>
		<path class="st0" d="M36,3c18.2,0,33,14.8,33,33S54.2,69,36,69S3,54.2,3,36S17.8,3,36,3 M36,0C16.1,0,0,16.1,0,36s16.1,36,36,36
			s36-16.1,36-36S55.9,0,36,0L36,0z"/>
	</g>
	<path class="st0" d="M49.7,20.6H22.3c-0.9,0-1.7,0.8-1.7,1.7v27.4c0,0.9,0.8,1.7,1.7,1.7H37V39.5h-4v-4.6h4v-3.4c0-4,2.4-6.1,6-6.1
		c1.7,0,3.2,0.1,3.6,0.2v4.2l-2.5,0c-1.9,0-2.3,0.9-2.3,2.3v3h4.6l-0.6,4.6h-4v11.9h7.8c0.9,0,1.7-0.8,1.7-1.7V22.3
		C51.4,21.4,50.6,20.6,49.7,20.6z"/>
</g>
</svg>
