<?xml version="1.0" encoding="utf-8"?>
<!-- Generator: Adobe Illustrator 19.1.0, SVG Export Plug-In . SVG Version: 6.00 Build 0)  -->
<svg version="1.1" id="Layer_1" xmlns="http://www.w3.org/2000/svg" xmlns:xlink="http://www.w3.org/1999/xlink" x="0px" y="0px"
	 viewBox="-26 -4 120 60" style="enable-background:new -26 -4 120 60;" xml:space="preserve">
<style type="text/css">
	.st0{fill:#1D294C;}
	.st1{fill:#FFFFFF;}
</style>
<polygon class="st0" points="-26,-4 34,-4 94,-4 34,56 "/>
<g>
	<path class="st1" d="M32.7,28L21.5,16.7c-0.7-0.7-0.7-1.9,0-2.6c0.7-0.7,1.9-0.7,2.6,0l9.9,10l9.9-10c0.7-0.7,1.9-0.7,2.6,0
		s0.7,1.9,0,2.6L35.3,28c-0.4,0.4-0.8,0.5-1.3,0.5S33.1,28.3,32.7,28L32.7,28z"/>
	<path class="st1" d="M32.7,38L21.5,26.7c-0.7-0.7-0.7-1.9,0-2.6c0.7-0.7,1.9-0.7,2.6,0l9.9,10l9.9-10c0.7-0.7,1.9-0.7,2.6,0
		s0.7,1.9,0,2.6L35.3,38c-0.4,0.4-0.8,0.5-1.3,0.5S33.1,38.3,32.7,38L32.7,38z"/>
</g>
</svg>
