<?xml version="1.0" encoding="utf-8"?>
<!-- Generator: Adobe Illustrator 19.1.0, SVG Export Plug-In . SVG Version: 6.00 Build 0)  -->
<svg version="1.1" id="Layer_1" xmlns="http://www.w3.org/2000/svg" xmlns:xlink="http://www.w3.org/1999/xlink" x="0px" y="0px"
	 viewBox="0 0 60 60" style="enable-background:new 0 0 60 60;" xml:space="preserve">
<style type="text/css">
	.st0{fill:#C10000;}
	.st1{fill:#FFFFFF;}
</style>
<rect class="st0" width="60" height="60"/>
<g>
	<polygon class="st1" points="23.7,10.3 22.1,25.1 18.9,25.1 20.5,10.3 12.1,10.3 7.8,49.7 16.3,49.7 18,33.8 21.1,33.8 19.4,49.7 
		27.9,49.7 32.2,10.3 	"/>
	<path class="st1" d="M51.6,23.8c0.2-1.8,0.3-3.4,0.3-4.8c0-5.5-1.8-8.7-8.6-8.7h-9.6l-4.3,39.5h8.3l1.3-12h0.5l1.2,12H49l-1.6-14.7
		C50.3,32.4,51.1,28.2,51.6,23.8z M43.1,24c-0.5,5-0.7,6.1-2.2,6.1h-1l1.3-12h1c0.9,0,1.3,0.4,1.3,1.9C43.4,20.9,43.2,22.7,43.1,24z
		"/>
</g>
</svg>
