<?xml version="1.0" encoding="utf-8"?>
<!-- Generator: Adobe Illustrator 18.0.0, SVG Export Plug-In . SVG Version: 6.00 Build 0)  -->
<!DOCTYPE svg PUBLIC "-//W3C//DTD SVG 1.1//EN" "http://www.w3.org/Graphics/SVG/1.1/DTD/svg11.dtd">
<svg version="1.1" id="Layer_1" xmlns="http://www.w3.org/2000/svg" xmlns:xlink="http://www.w3.org/1999/xlink" x="0px" y="0px"
	 viewBox="0 0 30 30" enable-background="new 0 0 30 30" xml:space="preserve">
<path fill="#414141" d="M24.2,0H5.8C2.6,0,0,2.6,0,5.8v6.1v12.3C0,27.4,2.6,30,5.8,30h18.4c3.2,0,5.8-2.6,5.8-5.8V11.9V5.8
	C30,2.6,27.4,0,24.2,0z M25.9,3.5l0.7,0v0.7v4.4l-5.1,0l0-5.1L25.9,3.5z M10.7,11.9c1-1.3,2.5-2.2,4.3-2.2s3.3,0.9,4.3,2.2
	c0.6,0.9,1,1.9,1,3.1c0,2.9-2.4,5.3-5.3,5.3c-2.9,0-5.3-2.4-5.3-5.3C9.7,13.9,10.1,12.8,10.7,11.9z M27.1,24.2
	c0,1.6-1.3,2.9-2.9,2.9H5.8c-1.6,0-2.9-1.3-2.9-2.9V11.9h4.5c-0.4,1-0.6,2-0.6,3.1c0,4.5,3.7,8.2,8.2,8.2c4.5,0,8.2-3.7,8.2-8.2
	c0-1.1-0.2-2.1-0.6-3.1h4.5V24.2z"/>
</svg>
