<?xml version="1.0" encoding="utf-8"?>
<!-- Generator: Adobe Illustrator 19.1.0, SVG Export Plug-In . SVG Version: 6.00 Build 0)  -->
<svg version="1.1" id="Layer_1" xmlns="http://www.w3.org/2000/svg" xmlns:xlink="http://www.w3.org/1999/xlink" x="0px" y="0px"
	 viewBox="-556 339 90 90" style="enable-background:new -556 339 90 90;" xml:space="preserve">
<g>
	<path d="M-470.4,357.2c0.6-2.2-0.1-4.5-1.9-5.9c-1-0.8-2.2-1.2-3.5-1.2c-1,0-1.9,0.3-2.8,0.8c-1.7,1-3.5,1.8-5.4,2.4
		c-3.6-2.8-8.1-4.3-12.7-4.3c-10.6,0-19.3,7.9-20.7,18.1c-8.4-1.8-16.1-6.5-21.7-13.2c-1.1-1.3-2.6-2-4.3-2c-0.1,0-0.3,0-0.4,0
		c-1.7,0.1-3.3,1-4.2,2.5c-1.9,3.2-3,7-3,10.8c0,2.5,0.4,4.9,1.3,7.2c-0.9,1-1.4,2.3-1.4,3.7c0,4.8,6.9,19.7,10.5,25
		c0.5,0.8,0,1.8-0.9,1.9c-2.4,0.2-5.7,0.3-6.5,0.2c-0.2,0-0.4,0-0.6,0c-2.3,0-4.4,1.4-5.2,3.7c-0.9,2.4,0.1,5.1,2.2,6.5
		c8,5.1,17.1,7.8,26.6,7.8c30.6,0,49-24.6,49.3-48.6c2.5-2.1,4.7-4.6,6.5-7.3c0.7-0.9,1.1-2.1,1.1-3.3
		C-468.1,359.8-469,358.2-470.4,357.2z"/>
</g>
</svg>
