<?xml version="1.0" encoding="utf-8"?>
<!-- Generator: Adobe Illustrator 19.2.0, SVG Export Plug-In . SVG Version: 6.00 Build 0)  -->
<svg version="1.1" xmlns="http://www.w3.org/2000/svg" xmlns:xlink="http://www.w3.org/1999/xlink" x="0px" y="0px"
	 viewBox="0 0 55.6 42" style="enable-background:new 0 0 55.6 42;" xml:space="preserve">
<style type="text/css">
	.st0{display:none;}
	.st1{display:inline;fill:#00987B;}
	.st2{display:inline;fill:none;stroke:#FFFFFF;stroke-width:1.8959;stroke-miterlimit:10;}
	.st3{fill:#00947B;}
</style>
<g id="Layer_1" class="st0">
	<circle class="st1" cx="18.8" cy="22" r="21"/>
	<polyline class="st2" points="12.2,21.3 17.1,26.2 25.4,17.9 	"/>
</g>
<g id="Layer_2">
	<g>
		<path class="st3" d="M20.1,17.9c3.8,2.5,5.6,6.4,5.6,10.7c0,7.7-5.4,13.3-13,13.3C6.1,42,0,37,0,28.6c0-4.2,1.5-7.5,3.8-10.8
			L15.7,0H28L20.1,17.9z"/>
		<path class="st3" d="M47.7,17.9c3.8,2.5,5.6,6.4,5.6,10.7c0,7.7-5.4,13.3-13,13.3c-6.7,0-12.8-5.1-12.8-13.4
			c0-4.2,1.5-7.5,3.8-10.8L43.3,0h12.3L47.7,17.9z"/>
	</g>
</g>
</svg>
