<?xml version="1.0" encoding="utf-8"?>
<!-- Generator: Adobe Illustrator 19.2.1, SVG Export Plug-In . SVG Version: 6.00 Build 0)  -->
<svg version="1.1" id="Layer_1" xmlns="http://www.w3.org/2000/svg" xmlns:xlink="http://www.w3.org/1999/xlink" x="0px" y="0px"
	 viewBox="0 0 100 100" style="enable-background:new 0 0 100 100;" xml:space="preserve">
<style type="text/css">
	.st0{fill:#80D2BD;stroke:#5DB2A6;stroke-width:3;stroke-linejoin:round;stroke-miterlimit:10;}
	.st1{fill:#80D2BD;stroke:#5DB2A6;stroke-width:3;stroke-linecap:round;stroke-miterlimit:10;}
</style>
<g>
	<g>
		<path class="st0" d="M49.9,24.1c17.3,0,31.3,10.5,31.3,23.5c0,7.2-4.3,13.7-11.1,18l3.8,10.2l-16-5.5c-2.6,0.5-5.2,0.8-8,0.8
			c-17.3,0-31.3-10.5-31.3-23.5C18.5,34.6,32.6,24.1,49.9,24.1z"/>
	</g>
	<path class="st1" d="M34.7,58.5c0.8-10.2,7.1-21.8,14-21.8s8.3,16.8,8.4,23"/>
	<path class="st1" d="M34.1,48.2c3.8,0,26.4,1.7,26.4,1.7"/>
	<path class="st1" d="M65.5,37.1c-0.1,1.3-0.7,4.5-0.7,4.5"/>
	<line class="st1" x1="62.6" y1="38.8" x2="67.2" y2="39.6"/>
</g>
</svg>
