<?xml version="1.0" encoding="utf-8"?>
<!-- Generator: Adobe Illustrator 18.1.0, SVG Export Plug-In . SVG Version: 6.00 Build 0)  -->
<svg version="1.1" id="Layer_1" xmlns="http://www.w3.org/2000/svg" xmlns:xlink="http://www.w3.org/1999/xlink" x="0px" y="0px"
	 viewBox="0 0 65 65" enable-background="new 0 0 65 65" xml:space="preserve">
<circle fill="#CB2027" cx="32.3" cy="32.7" r="32.5"/>
<path fill="#FFFFFF" d="M32.3,18.1c-8.1,0-14.6,6.5-14.6,14.6c0,6.2,3.9,11.5,9.3,13.6c-0.1-1.2-0.2-2.9,0.1-4.2
	c0.3-1.1,1.7-7.3,1.7-7.3s-0.4-0.9-0.4-2.2c0-2,1.2-3.6,2.6-3.6c1.2,0,1.8,0.9,1.8,2.1c0,1.3-0.8,3.1-1.2,4.9
	c-0.3,1.5,0.7,2.6,2.2,2.6c2.6,0,4.6-2.7,4.6-6.7c0-3.5-2.5-5.9-6.1-5.9c-4.2,0-6.6,3.1-6.6,6.3c0,1.3,0.5,2.6,1.1,3.3
	c0.1,0.1,0.1,0.3,0.1,0.4c-0.1,0.5-0.4,1.5-0.4,1.7c-0.1,0.3-0.2,0.3-0.5,0.2c-1.8-0.9-3-3.5-3-5.7c0-4.6,3.4-8.8,9.7-8.8
	c5.1,0,9,3.6,9,8.4c0,5-3.2,9.1-7.6,9.1c-1.5,0-2.9-0.8-3.4-1.7c0,0-0.7,2.8-0.9,3.5c-0.3,1.3-1.2,2.9-1.8,3.8
	c1.4,0.4,2.8,0.7,4.3,0.7c8.1,0,14.6-6.5,14.6-14.6C46.9,24.6,40.4,18.1,32.3,18.1z"/>
</svg>
