<?xml version="1.0" encoding="utf-8"?>
<!-- Generator: Adobe Illustrator 19.0.1, SVG Export Plug-In . SVG Version: 6.00 Build 0)  -->
<svg version="1.1" id="Layer_1" xmlns="http://www.w3.org/2000/svg" xmlns:xlink="http://www.w3.org/1999/xlink" x="0px" y="0px"
	 viewBox="565.3 262.3 912 901.1" style="enable-background:new 565.3 262.3 912 901.1;" xml:space="preserve">
<style type="text/css">
	.st0{fill:#FFFFFF;}
</style>
<path class="st0" d="M1435.3,937.9c0-26.4-7.4-51.3-20.4-73.7c-34.7-60.2-110.3-102-198.3-102c-120.8,0-218.7,78.7-218.7,175.8
	c0,30.1,9.4,58.3,26,83.1c36.9,55.2,109.3,92.7,192.7,92.7c19.6,0,38.5-2.1,56.6-6c83.9,80.6,157,50.1,157,50.1
	c-34.4-34.4-48.8-70.4-54.3-99.6C1412.8,1026.8,1435.3,984.5,1435.3,937.9z"/>
<path class="st0" d="M1197.3,705.3c94.9,0,177.3,42.2,220.3,104.4c37.8-53.4,59.7-115,59.7-180.9c0-202.4-204.1-366.5-456-366.5
	s-456,164.1-456,366.5c0,97.1,47,185.3,123.7,250.9c-11.3,60.9-41.4,135.9-113.2,207.7c0,0,152.5,63.4,327.4-104.5
	c21,4.5,42.7,7.7,64.8,9.7c-14.7-25.7-23-54.4-23-84.6C945.1,796.1,1058,705.3,1197.3,705.3z"/>
</svg>
