<?xml version="1.0" encoding="utf-8"?>
<!-- Generator: Adobe Illustrator 18.0.0, SVG Export Plug-In . SVG Version: 6.00 Build 0)  -->
<!DOCTYPE svg PUBLIC "-//W3C//DTD SVG 1.1 Tiny//EN" "http://www.w3.org/Graphics/SVG/1.1/DTD/svg11-tiny.dtd">
<svg version="1.1" baseProfile="tiny" id="Layer_1" xmlns="http://www.w3.org/2000/svg" xmlns:xlink="http://www.w3.org/1999/xlink"
	 x="0px" y="0px" viewBox="46.5 3 204.6 204.6" xml:space="preserve">
<g>
	<path fill="#75B443" stroke="#75B443" stroke-width="5" stroke-miterlimit="10" d="M190.8,102.3L190.8,102.3
		c-0.3-0.6-0.6-0.9-0.9-0.9L156,66.9c-1.8-1.8-4.8-1.8-6.5,0s-1.8,4.8,0,6.5l26.5,26.5h-74.1c-2.4,0-4.5,2.1-4.5,4.5
		s2.1,4.5,4.5,4.5h73.8l-26.8,26.8c-1.8,1.8-1.8,4.8,0,6.5c0.9,0.9,2.1,1.2,3.3,1.2c1.2,0,2.4-0.3,3.3-1.2l34.8-34.8
		c0.3-0.3,0.3-0.6,0.6-0.9c0.3,0,0.3-0.3,0.3-0.3c0.3-0.3,0.3-0.3,0.3-0.6c0-0.3,0-0.3,0-0.6c0-0.6,0-1.2,0-1.8c0-0.3,0-0.3,0-0.6
		c-0.3-0.3-0.3-0.3-0.3-0.6C191.1,102.3,190.8,102.3,190.8,102.3z"/>
</g>
<circle fill="none" stroke="#75B443" stroke-width="7" stroke-miterlimit="10" cx="148.8" cy="105.3" r="98.8"/>
</svg>
