<?xml version="1.0" encoding="utf-8"?>
<!-- Generator: Adobe Illustrator 18.1.1, SVG Export Plug-In . SVG Version: 6.00 Build 0)  -->
<svg version="1.0" id="Layer_1" xmlns="http://www.w3.org/2000/svg" xmlns:xlink="http://www.w3.org/1999/xlink" x="0px" y="0px"
	 viewBox="0 0 100 100" enable-background="new 0 0 100 100" xml:space="preserve">
<g>
	<circle fill="#F5F5F5" cx="50" cy="50" r="49.8"/>
	<g>
		<path fill="#CCE2F0" d="M33,65.5H22.1V44.8c0-1,0.8-1.9,1.9-1.9h7.1c1,0,1.9,0.8,1.9,1.9V65.5z"/>
		<path fill="#ACCFE6" d="M47.3,65.5H36.4V39.1c0-1,0.8-1.9,1.9-1.9h7.1c1,0,1.9,0.8,1.9,1.9V65.5z"/>
		<path fill="#99C6E3" d="M61.7,65.5H50.8V33.3c0-1,0.8-1.9,1.9-1.9h7.1c1,0,1.9,0.8,1.9,1.9V65.5z"/>
		<path fill="#7BB4DB" d="M76.1,65.5H65.2v-38c0-1,0.8-1.9,1.9-1.9h7.1c1,0,1.9,0.8,1.9,1.9V65.5z"/>
		<rect x="22.1" y="68.9" fill="#57A0D3" width="54" height="3.6"/>
		<path fill="#034E80" d="M73,38.4l-17.1,3.9c-0.7,0.2-0.8,1-0.3,1.4l4.1,2.9C54.3,56,46,57.3,41.9,57.3c-0.7,0-0.9,0.9-0.3,1.2
			c9.6,4.6,20-2.7,23.5-5.5l1.7,3.4c0.3,0.6,1.2,0.6,1.5-0.1l5.6-16.9C74.1,38.8,73.6,38.3,73,38.4z"/>
	</g>
</g>
</svg>
