<?xml version="1.0" encoding="utf-8"?>
<!DOCTYPE svg PUBLIC "-//W3C//DTD SVG 1.1//EN" "http://www.w3.org/Graphics/SVG/1.1/DTD/svg11.dtd">
<svg version="1.1" id="Layer_1" xmlns="http://www.w3.org/2000/svg" xmlns:xlink="http://www.w3.org/1999/xlink" x="0px" y="0px"
   viewBox="0 0 245.8 224.5" enable-background="new 0 0 245.8 224.5" xml:space="preserve">
<g>
  <polygon fill="#9C90C5" points="245.8,29.6 245.8,27.2 29.7,224.5 32.4,224.5   "/>
  <polygon fill="#9C90C5" points="0,224.5 2.7,224.5 245.8,2.5 245.8,0   "/>
  <polygon fill="#9C90C5" points="245.8,56.8 245.8,54.3 59.5,224.5 62.2,224.5   "/>
  <polygon fill="#9C90C5" points="245.8,83.9 245.8,81.5 89.2,224.5 91.9,224.5   "/>
  <polygon fill="#9C90C5" points="245.8,192.5 245.8,190.1 208.1,224.5 210.8,224.5   "/>
  <polygon fill="#9C90C5" points="245.8,219.7 245.8,217.2 237.9,224.5 240.6,224.5   "/>
  <polygon fill="#9C90C5" points="245.8,165.4 245.8,162.9 178.4,224.5 181.1,224.5   "/>
  <polygon fill="#9C90C5" points="245.8,138.2 245.8,135.8 148.7,224.5 151.4,224.5   "/>
  <polygon fill="#9C90C5" points="245.8,111.1 245.8,108.6 118.9,224.5 121.6,224.5   "/>
</g>
</svg>
