<?xml version="1.0" encoding="utf-8"?>
<!-- Generator: Adobe Illustrator 18.1.1, SVG Export Plug-In . SVG Version: 6.00 Build 0)  -->
<svg version="1.1" id="Layer_1" xmlns="http://www.w3.org/2000/svg" xmlns:xlink="http://www.w3.org/1999/xlink" x="0px" y="0px"
	 viewBox="600 236 100 100" enable-background="new 600 236 100 100" xml:space="preserve">
<g>
	<path d="M627.5,257.8v-11.3c0-3.1,2.5-5.6,5.6-5.6c3.1,0,5.6,2.5,5.6,5.6v11.3c0,3.1-2.5,5.6-5.6,5.6
		C630,263.5,627.5,261,627.5,257.8z"/>
	<path d="M678.2,252.2v5.8c0,6.2-5,11.3-11.3,11.3c-6.2,0-11.3-5-11.3-11.3v-5.8h-11.3v5.8c0,6.2-5,11.3-11.3,11.3
		c-6.2,0-11.3-5-11.3-11.3v-5.8H605V331H695v-78.8H678.2z"/>
	<path d="M661.3,257.8v-11.3c0-3.1,2.5-5.6,5.6-5.6c3.1,0,5.6,2.5,5.6,5.6v11.3c0,3.1-2.5,5.6-5.6,5.6
		C663.8,263.5,661.3,261,661.3,257.8z"/>
</g>
<g>
	<circle fill="#FFE900" cx="628.4" cy="290" r="6.7"/>
	<circle fill="#FFE900" cx="650" cy="290" r="6.7"/>
	<circle fill="#FFE900" cx="671.6" cy="290" r="6.7"/>
	<circle fill="#FFE900" cx="628.4" cy="311.6" r="6.7"/>
	<circle fill="#FFE900" cx="650" cy="311.6" r="6.7"/>
	<circle fill="#FFE900" cx="671.6" cy="311.6" r="6.7"/>
</g>
</svg>
