<?xml version="1.0" encoding="utf-8"?>
<!-- Generator: Adobe Illustrator 17.1.0, SVG Export Plug-In . SVG Version: 6.00 Build 0)  -->
<!DOCTYPE svg PUBLIC "-//W3C//DTD SVG 1.1//EN" "http://www.w3.org/Graphics/SVG/1.1/DTD/svg11.dtd">
<svg version="1.1" id="Layer_1" xmlns="http://www.w3.org/2000/svg" xmlns:xlink="http://www.w3.org/1999/xlink" x="0px" y="0px"
	 viewBox="0 0 380 380" enable-background="new 0 0 380 380" xml:space="preserve">
<circle fill="#073F61" cx="224.3" cy="189.5" r="152.3"/>
<circle opacity="0.7" fill="#EB8723" cx="81.3" cy="228.4" r="79.3"/>
<path fill="#009CD7" d="M341,100.8c0,3.9-3.2,7-7,7H115.4c-3.9,0-7-3.2-7-7V61.5c0-3.9,3.2-7,7-7H334c3.9,0,7,3.2,7,7V100.8z"/>
<path fill="#009CD7" d="M341,174.7c0,3.9-3.2,7-7,7H115.4c-3.9,0-7-3.2-7-7v-39.3c0-3.9,3.2-7,7-7H334c3.9,0,7,3.2,7,7V174.7z"/>
<path fill="#009CD7" d="M341,318.6c0,3.9-3.2,7-7,7H115.4c-3.9,0-7-3.2-7-7v-39.3c0-3.9,3.2-7,7-7H334c3.9,0,7,3.2,7,7V318.6z"/>
<polygon fill="#EB8723" points="259.1,284.6 316.5,227.2 259.1,169.8 "/>
<path fill="#EB8723" d="M269,246.5c0,4.1-1.7,7.4-3.7,7.4H57.1c-2.1,0-3.7-3.3-3.7-7.4v-38.6c0-4.1,1.7-7.4,3.7-7.4h208.2
	c2.1,0,3.7,3.3,3.7,7.4V246.5z"/>
</svg>
