<svg xmlns="http://www.w3.org/2000/svg" viewBox="0 0 181.84 181.84"><defs><style>.cls-1{fill:#44ace1;}.cls-2{fill:#067db3;}.cls-3{fill:none;stroke:#fff;stroke-miterlimit:10;stroke-width:3.54px;}</style></defs><title>icon_report_bug</title><g id="Layer_2" data-name="Layer 2"><g id="Layer_1-2" data-name="Layer 1"><path class="cls-1" d="M90.92,181.84A90.92,90.92,0,1,1,90.92,0"/><path class="cls-2" d="M90.92,0a90.92,90.92,0,0,1,0,181.84"/><line class="cls-3" x1="56.23" y1="71.63" x2="30.31" y2="80.16"/><line class="cls-3" x1="154.52" y1="103.07" x2="128.53" y2="94.77"/><line class="cls-3" x1="53.24" y1="96.49" x2="27.32" y2="105.02"/><line class="cls-3" x1="152.17" y1="80.16" x2="126.25" y2="71.63"/><line class="cls-3" x1="59.4" y1="120.57" x2="33.48" y2="129.1"/><line class="cls-3" x1="150.23" y1="129.1" x2="124.31" y2="120.57"/><ellipse class="cls-3" cx="91.44" cy="89.72" rx="37.24" ry="56.34"/><path class="cls-3" d="M59.79,60c8.37-3.51,19.14-5.67,30.9-5.77,12.43-.11,23.8,2.1,32.42,5.81"/><line class="cls-3" x1="107.8" y1="39.11" x2="114.7" y2="32.21"/><line class="cls-3" x1="78.43" y1="35.66" x2="72.84" y2="30.06"/><line class="cls-3" x1="90.92" y1="81.47" x2="90.92" y2="146.06"/></g></g></svg>