<?xml version="1.0" encoding="utf-8"?>
<!-- Generator: Adobe Illustrator 21.0.0, SVG Export Plug-In . SVG Version: 6.00 Build 0)  -->
<svg version="1.1" id="Layer_1" xmlns="http://www.w3.org/2000/svg" xmlns:xlink="http://www.w3.org/1999/xlink" x="0px" y="0px"
	 viewBox="0 0 258 258" style="enable-background:new 0 0 258 258;" xml:space="preserve">
<style type="text/css">
	.st0{fill:#ED1C24;}
	.st1{fill:#2D2927;}
</style>
<g>
	<circle class="st0" cx="129" cy="129" r="129"/>
	<g>
		<path class="st1" d="M180,98l12-5.1l-2.7-6.4l-42.5,18.1l2.7,6.4l10.7-4.6c-1.4,3.4-2.1,7.4-2.1,11.7c0,12.6,6.7,22.8,15,22.8
			c8.3,0,15-10.2,15-22.8C188,109.4,184.8,101.8,180,98z"/>
		<path class="st1" d="M64.7,92.9L78,98.5c-4.4,4-7.4,11.3-7.4,19.6c0,12.6,6.7,22.8,15,22.8c8.3,0,15-10.2,15-22.8
			c0-3.9-0.6-7.5-1.8-10.7l8.3,3.5l2.7-6.4L67.5,86.4L64.7,92.9z"/>
	</g>
	<path class="st1" d="M184.6,159.8c-14.1-12.9-36.2-2.7-52.3,8.2c-9.8,5.6-14.8,9.4-17.8,11.6c-2.4,1.8-3.1,2.3-3.9,2.5l-22.3-0.1
		c-1.5,0-3,0-4.7,0c-2.8,0-5,2.2-5,5s2.2,5,5,5l4.6,0c5.5,0,9.6,0.1,12.8,0.2c4.9,0.1,7.9,0.2,10.3-0.1l24.5,0.1
		c2.6,0.7,13,3.3,23.8,5.2c8.1,1.4,14.4,2.1,19.2,2.1c7.3,0,11.3-1.6,13.2-5C195.2,188.7,195.6,169.8,184.6,159.8z"/>
</g>
</svg>
