<?xml version="1.0" encoding="utf-8"?>
<!-- Generator: Adobe Illustrator 18.1.1, SVG Export Plug-In . SVG Version: 6.00 Build 0)  -->
<!DOCTYPE svg PUBLIC "-//W3C//DTD SVG 1.1//EN" "http://www.w3.org/Graphics/SVG/1.1/DTD/svg11.dtd">
<svg version="1.1" id="Layer_1" xmlns="http://www.w3.org/2000/svg" xmlns:xlink="http://www.w3.org/1999/xlink" x="0px" y="0px"
	 viewBox="161 0 479 480" width="479" height="480" enable-background="new 161 0 479 480" xml:space="preserve">
<g id="White" display="none">
	<g display="inline">
		<path fill="#FFFFFF" d="M609.2,0H192.8c-15.3,0-27.4,12.2-27.4,27.4V447c0,15.3,12.2,27.4,27.4,27.4h224.9V291.8H357v-72.9h60.8
			v-54.7c0-60.8,36.6-94.2,91.2-94.2c27.4,0,48.6,3,54.7,3v63.8h-36.6c-30.4,0-36.6,15.3-36.6,33.4v45.7h69.9l-9.1,69.9h-60.8v182.4
			h118.6c15.3,0,27.4-12.2,27.4-27.4V27.4C636.6,12.2,624.4,0,609.2,0z"/>
	</g>
</g>
<g id="Blue">
	<g>
		<path fill="#3A589A" d="M609.2,0H192.8c-15.3,0-27.4,12.2-27.4,27.4V447c0,15.3,12.2,27.4,27.4,27.4h224.9V291.8H357v-72.9h60.8
			v-54.7c0-60.8,36.6-94.2,91.2-94.2c27.4,0,48.6,3,54.7,3v63.8h-36.6c-30.4,0-36.6,15.3-36.6,33.4v45.7h69.9l-9.1,69.9h-60.8v182.4
			h118.6c15.3,0,27.4-12.2,27.4-27.4V27.4C636.6,12.2,624.4,0,609.2,0z"/>
	</g>
</g>
</svg>
