<?xml version="1.0" encoding="utf-8"?>
<!-- Generator: Adobe Illustrator 19.2.1, SVG Export Plug-In . SVG Version: 6.00 Build 0)  -->
<svg version="1.1" id="Layer_1" xmlns="http://www.w3.org/2000/svg" xmlns:xlink="http://www.w3.org/1999/xlink" x="0px" y="0px"
	 viewBox="0 0 147.7 28.3" style="enable-background:new 0 0 147.7 28.3;" xml:space="preserve">
<style type="text/css">
	.st0{fill:#02ABC6;}
</style>
<polygon class="st0" points="24.9,10.8 17.4,9.7 13.8,3 13.8,2.8 13.8,2.9 13.7,2.8 13.7,3 10.2,9.7 2.7,10.8 8,16.7 6.9,24.7 
	13.8,20.9 20.6,24.7 19.6,16.7 "/>
<polygon class="st0" points="55.1,10.8 47.6,9.7 44,3 44,2.8 44,2.9 43.9,2.8 43.9,3 40.3,9.7 32.8,10.8 38.2,16.7 37.1,24.7 
	44,20.9 50.8,24.7 49.7,16.7 "/>
<polygon class="st0" points="85.2,10.8 77.7,9.7 74.2,3 74.2,2.8 74.1,2.9 74.1,2.8 74.1,3 70.5,9.7 63,10.8 68.3,16.7 67.3,24.7 
	74.2,20.9 81,24.7 79.9,16.7 "/>
<polygon class="st0" points="115.4,10.8 107.9,9.7 104.3,3 104.3,2.8 104.3,2.9 104.2,2.8 104.2,3 100.7,9.7 93.2,10.8 98.5,16.7 
	97.4,24.7 104.3,20.9 111.1,24.7 110.1,16.7 "/>
<polygon class="st0" points="145.6,10.8 138.1,9.7 134.5,3 134.5,2.8 134.5,2.9 134.4,2.8 134.4,3 130.8,9.7 123.3,10.8 128.7,16.7 
	127.6,24.7 134.5,20.9 141.3,24.7 140.2,16.7 "/>
</svg>
