<?xml version="1.0" encoding="utf-8"?>
<!-- Generator: Adobe Illustrator 17.1.0, SVG Export Plug-In . SVG Version: 6.00 Build 0)  -->
<!DOCTYPE svg PUBLIC "-//W3C//DTD SVG 1.1//EN" "http://www.w3.org/Graphics/SVG/1.1/DTD/svg11.dtd">
<svg version="1.1" id="Layer_1" xmlns="http://www.w3.org/2000/svg" xmlns:xlink="http://www.w3.org/1999/xlink" x="0px" y="0px"
	 viewBox="690 0 507.5 500" enable-background="new 690 0 507.5 500" xml:space="preserve">
<polygon fill="#F1BE00" points="966.6,163.2 952,177.8 1013.2,239.6 852.6,239.6 852.6,260.4 1013.2,260.4 952,322.2 966.6,336.8 
	1053.3,250 "/>
<g>
	<g>
		<path fill="#F1BE00" d="M950.1,21.6c30.8,0,60.6,6,88.7,17.9c27.1,11.4,51.5,27.9,72.4,48.8c20.9,20.9,37.3,45.3,48.8,72.4
			c11.9,28,17.9,57.9,17.9,88.7s-6,60.6-17.9,88.7c-11.4,27.1-27.9,51.5-48.8,72.4c-20.9,20.9-45.3,37.3-72.4,48.8
			c-28,11.9-57.9,17.9-88.7,17.9s-60.6-6-88.7-17.9c-27.1-11.4-51.5-27.9-72.4-48.8c-20.9-20.9-37.3-45.3-48.8-72.4
			c-11.9-28-17.9-57.9-17.9-88.7s6-60.6,17.9-88.7c11.4-27.1,27.9-51.5,48.8-72.4C810,67.4,834.3,51,861.5,39.5
			C889.6,27.6,919.4,21.6,950.1,21.6 M950.1,2C813.4,2,702.7,112.8,702.7,249.4s110.8,247.4,247.4,247.4s247.4-110.8,247.4-247.4
			S1086.8,2,950.1,2L950.1,2z"/>
	</g>
</g>
</svg>
