<?xml version="1.0" encoding="utf-8"?>
<!-- Generator: Adobe Illustrator 17.1.0, SVG Export Plug-In . SVG Version: 6.00 Build 0)  -->
<!DOCTYPE svg PUBLIC "-//W3C//DTD SVG 1.1//EN" "http://www.w3.org/Graphics/SVG/1.1/DTD/svg11.dtd">
<svg version="1.1" id="Layer_1" xmlns="http://www.w3.org/2000/svg" xmlns:xlink="http://www.w3.org/1999/xlink" x="0px" y="0px"
	 viewBox="0 0 50 50" enable-background="new 0 0 50 50" xml:space="preserve">
<g>
	<rect x="1" y="25.8" fill="#56544D" width="41.3" height="16.3"/>
	<rect x="1.5" y="8.8" fill="#56544D" width="14.4" height="14.1"/>
	<g enable-background="new    ">
		<path fill="#56544D" d="M6.1,6.2V1.9L5.3,2.8L4.9,2.4l1.3-1.3h0.6v5.1H6.1z"/>
	</g>
	<g enable-background="new    ">
		<path fill="#56544D" d="M20.2,15.9v-4.3l-0.8,0.9L19,12.1l1.3-1.3h0.6v5.1H20.2z"/>
	</g>
	<g enable-background="new    ">
		<path fill="#56544D" d="M45,33.9v-0.5c1.8-1.4,2.8-2.3,2.8-3.2c0-0.7-0.5-0.9-1.1-0.9s-1.1,0.3-1.4,0.6l-0.4-0.4
			c0.4-0.5,1.1-0.8,1.8-0.8c0.9,0,1.7,0.5,1.7,1.5s-1.1,2-2.5,3.1h2.5v0.6L45,33.9L45,33.9z"/>
	</g>
	<g enable-background="new    ">
		<path fill="#56544D" d="M23,48.9v-1.3h-2.4v-0.5l2.2-3.3h0.9v3.3h0.7v0.6h-0.7V49L23,48.9L23,48.9z M23,44.2L21.2,47H23V44.2z"/>
	</g>
</g>
</svg>
