<svg id="computer_access" data-name="computer access" xmlns="http://www.w3.org/2000/svg" viewBox="0 0 60 60"><defs><style>.cls-1{fill:#3797d1;}</style></defs><title>analytics-g2w</title><path class="cls-1" d="M50.61,26.21a3.81,3.81,0,0,0-3.8,3.8A3.75,3.75,0,0,0,47,31.24l-7.57,4.41a3.79,3.79,0,0,0-6.64,2.5c0,0.07,0,.14,0,0.22H24.91a3.79,3.79,0,0,0-7.38,1.25,3.76,3.76,0,0,0,.24,1.28L7.4,47.73V30.82L20.14,23.1A3.77,3.77,0,0,0,26.68,21l8.2,2.65c0,0.09,0,.18,0,0.27a3.8,3.8,0,1,0,7.6,0,3.77,3.77,0,0,0-.94-2.47l7.19-9.13a3.76,3.76,0,0,0,1.9.53A3.8,3.8,0,1,0,46.81,9a3.77,3.77,0,0,0,.78,2.28l-7.25,9.21a3.74,3.74,0,0,0-5.05,1.67l-8.76-2.83a3.79,3.79,0,1,0-7.17,2.45l-12,7.26v-21a0.75,0.75,0,0,0-1.5,0V53.87a0.75,0.75,0,0,0,.75.75H52.43a0.75,0.75,0,0,0,0-1.5H7.4V49.45l0,0.05,11.12-7.32a3.78,3.78,0,0,0,6.57-2.32h8.14a3.79,3.79,0,0,0,7.18-1.72,3.75,3.75,0,0,0-.21-1.2l7.57-4.42A3.8,3.8,0,1,0,50.61,26.21Zm0-19.48A2.3,2.3,0,1,1,48.31,9,2.31,2.31,0,0,1,50.61,6.73Zm-12,14.88a2.3,2.3,0,1,1-2.3,2.3A2.31,2.31,0,0,1,38.66,21.61ZM22.93,18.23a2.3,2.3,0,1,1-2.3,2.3A2.3,2.3,0,0,1,22.93,18.23Zm-1.59,23.7a2.3,2.3,0,1,1,2.3-2.3A2.3,2.3,0,0,1,21.34,41.92Zm15.29-1.47a2.3,2.3,0,1,1,2.3-2.3A2.31,2.31,0,0,1,36.62,40.46Zm14-8.14a2.3,2.3,0,1,1,2.3-2.3A2.3,2.3,0,0,1,50.61,32.32Z"/></svg>