<?xml version="1.0" encoding="utf-8"?>
<!-- Generator: Adobe Illustrator 19.1.0, SVG Export Plug-In . SVG Version: 6.00 Build 0)  -->
<svg version="1.1" id="Layer_1" xmlns="http://www.w3.org/2000/svg" xmlns:xlink="http://www.w3.org/1999/xlink" x="0px" y="0px"
	 viewBox="0 0 22 22" enable-background="new 0 0 22 22" xml:space="preserve">
<g id="red_x">
	<g>
		<g>
			<path fill="#FFFFFF" d="M14.8,15.2c-0.2,0-0.4-0.1-0.6-0.2L5.9,6.6c-0.3-0.3-0.3-0.9,0-1.2c0.3-0.3,0.9-0.3,1.2,0l8.3,8.3
				c0.3,0.3,0.3,0.9,0,1.2C15.2,15.1,15,15.2,14.8,15.2z"/>
		</g>
	</g>
	<g>
		<g>
			<path fill="#FFFFFF" d="M6.5,15.2c-0.2,0-0.4-0.1-0.6-0.2c-0.3-0.3-0.3-0.9,0-1.2l8.3-8.3c0.3-0.3,0.9-0.3,1.2,0
				c0.3,0.3,0.3,0.9,0,1.2l-8.3,8.3C6.9,15.1,6.7,15.2,6.5,15.2z"/>
		</g>
	</g>
	<g id="green_check">
		<circle fill="#45B19D" cx="11" cy="11" r="11"/>
		<g>
			<g>
				<path fill="#FFFFFF" d="M9.4,15.6c-0.2,0-0.4-0.1-0.6-0.2l-3.7-3.7c-0.3-0.3-0.3-0.8,0-1.1c0.3-0.3,0.8-0.3,1.1,0l3.7,3.7
					c0.3,0.3,0.3,0.8,0,1.1C9.8,15.6,9.6,15.6,9.4,15.6z"/>
			</g>
			<g>
				<path fill="#FFFFFF" d="M9.4,15.6c-0.2,0-0.4-0.1-0.6-0.2c-0.3-0.3-0.3-0.8,0-1.1l8-8c0.3-0.3,0.8-0.3,1.1,0s0.3,0.8,0,1.1l-8,8
					C9.8,15.6,9.6,15.6,9.4,15.6z"/>
			</g>
		</g>
	</g>
</g>
</svg>
