<?xml version="1.0" encoding="utf-8"?>
<!-- Generator: Adobe Illustrator 19.1.0, SVG Export Plug-In . SVG Version: 6.00 Build 0)  -->
<svg version="1.1" id="Layer_1" xmlns="http://www.w3.org/2000/svg" xmlns:xlink="http://www.w3.org/1999/xlink" x="0px" y="0px"
	 viewBox="0 0 72 72" style="enable-background:new 0 0 72 72;" xml:space="preserve">
<style type="text/css">
	.st0{fill:#B5B5B6;}
	.st1{fill-rule:evenodd;clip-rule:evenodd;fill:#B5B5B6;}
	.st2{fill-rule:evenodd;clip-rule:evenodd;}
</style>
<g>
	<g>
		<path class="st0" d="M36,3c18.2,0,33,14.8,33,33S54.2,69,36,69S3,54.2,3,36S17.8,3,36,3 M36,0C16.1,0,0,16.1,0,36s16.1,36,36,36
			s36-16.1,36-36S55.9,0,36,0L36,0z"/>
	</g>
	<g>
		<path class="st1" d="M49.1,20.5H22.9c-1.3,0-2.3,1-2.3,2.2v26.5c0,1.2,1,2.2,2.3,2.2h26.2c1.3,0,2.3-1,2.3-2.2V22.7
			C51.4,21.5,50.4,20.5,49.1,20.5z M29.9,46.4h-4.6v-14h4.6V46.4z M27.6,30.5L27.6,30.5c-1.6,0-2.6-1.1-2.6-2.4c0-1.4,1-2.4,2.6-2.4
			c1.6,0,2.6,1,2.6,2.4C30.2,29.5,29.2,30.5,27.6,30.5z M46.7,46.4h-4.6V39c0-1.9-0.7-3.2-2.4-3.2c-1.3,0-2,0.9-2.4,1.7
			c-0.1,0.3-0.2,0.7-0.2,1.1v7.8h-4.6c0,0,0.1-12.7,0-14h4.6v2c0.6-1,1.7-2.3,4.2-2.3c3.1,0,5.3,2,5.3,6.3V46.4z"/>
		<path class="st2" d="M37.2,34.5L37.2,34.5C37.2,34.5,37.1,34.5,37.2,34.5L37.2,34.5z"/>
	</g>
</g>
</svg>
