<svg id="Layer_1" xmlns="http://www.w3.org/2000/svg" viewBox="231 133 180 180"><style>.st0{fill:#0072c6}</style><path class="st0" d="M390.5 239.5h-.4c-3.6 9.6-10.2 17.8-18.7 23.3v.9c0 9.9-8.1 18-18 18-3.6 0-7-1.1-9.8-2.9V248.6c2.8-1.8 6.2-2.9 9.8-2.9 6.8 0 12.7 3.8 15.8 9.4 6.1-4.3 10.9-10.2 13.7-17.2-6.2-2.9-10.5-9.1-10.5-16.3 0-6.8 3.8-12.7 9.3-15.8-3.2-6.4-8.1-11.9-14.1-15.7-2.9 6.1-9.1 10.4-16.3 10.4-2.8 0-5.4-.6-7.7-1.8v-32.6c2.3-1.1 5-1.8 7.7-1.8 9.8 0 17.8 7.9 18 17.7 8.6 4.9 15.4 12.5 19.5 21.5.5 0 1.1-.1 1.6-.1 9.9 0 18 8.1 18 18s-8 18.1-17.9 18.1zm-157-86.5v140l104 18.5 1-177.1-105 18.6zm65.9 94.1c-4 3.9-9.4 5.9-16.3 5.9-4 0-7.4-.5-10.4-1.4-3-.9-5.7-2.1-8.3-3.6v-15.4h1.4c2.6 2.7 5.4 4.8 8.6 6.3 3.2 1.5 6.2 2.2 9.1 2.2.8 0 1.7-.1 3-.3 1.2-.2 2.2-.5 3-.9.9-.5 1.7-1.2 2.3-1.9.6-.8.9-1.9.9-3.4 0-1.4-.4-2.6-1.3-3.6s-2.2-1.8-3.9-2.3c-1.8-.6-3.7-1.1-5.7-1.6s-3.9-1.1-5.6-1.9c-4-1.8-6.9-4.1-8.7-7.1-1.8-3-2.7-6.7-2.7-11.2 0-6 2-10.8 6-14.6 4-3.8 9.1-5.7 15.4-5.7 3.2 0 6.3.4 9.3 1.2 3.1.8 5.7 1.8 8 3.1v14.8h-1.3c-1.9-2.1-4.3-3.8-7.1-5.2-2.8-1.4-5.7-2.1-8.6-2.1-1 0-2.1.1-3.1.3-1 .2-2 .5-2.9 1.1-.8.4-1.6 1.1-2.2 2-.6.9-.9 1.9-.9 3 0 1.7.5 3 1.4 3.9 1 .9 2.8 1.7 5.5 2.5 1.8.5 3.4 1 5.1 1.4 1.6.5 3.4 1.1 5.2 1.9 3.7 1.6 6.4 3.8 8.1 6.6 1.7 2.8 2.6 6.4 2.6 10.8.1 6.1-1.9 11.2-5.9 15.2z"/></svg>