<?xml version="1.0" encoding="UTF-8"?>
<!DOCTYPE svg PUBLIC "-//W3C//DTD SVG 1.1//EN" "http://www.w3.org/Graphics/SVG/1.1/DTD/svg11.dtd">
<!-- Creator: CorelDRAW X8 -->
<svg xmlns="http://www.w3.org/2000/svg" xml:space="preserve" width="7825px" height="7812px" version="1.1" style="shape-rendering:geometricPrecision; text-rendering:geometricPrecision; image-rendering:optimizeQuality; fill-rule:evenodd; clip-rule:evenodd"
viewBox="0 0 7825 7812"
 xmlns:xlink="http://www.w3.org/1999/xlink">
 <defs>
  <style type="text/css">
   <![CDATA[
    .fil0 {fill:#5271FF;fill-rule:nonzero}
    .fil1 {fill:white;fill-rule:nonzero}
   ]]>
  </style>
 </defs>
 <g id="Capa_x0020_1">
  <metadata id="CorelCorpID_0Corel-Layer"/>
  <path class="fil0" d="M7825 3900c0,1081 -381,2003 -1147,2766 -762,765 -1684,1146 -2765,1146 -1082,0 -2004,-381 -2766,-1146 -766,-763 -1147,-1685 -1147,-2766 0,-1081 381,-2003 1147,-2766 681,-684 1490,-1062 2425,-1134l681 0c935,72 1744,450 2425,1134 766,763 1147,1685 1147,2766l0 0z"/>
  <path class="fil1" d="M1594 3356l0 1347c0,425 347,809 772,809l3084 0c425,0 772,-384 772,-809l0 -1347 -4628 0zm619 616l768 0 0 153 -768 0 0 -153zm1540 616l-1541 0 0 -307 1541 0 0 307z"/>
  <path class="fil1" d="M5450 2275l-3084 0c-425,0 -772,309 -772,772l4628 0c0,-463 -347,-772 -772,-772z"/>
 </g>
</svg>
