<?xml version="1.0" encoding="utf-8"?>
<!-- Generator: Adobe Illustrator 19.2.1, SVG Export Plug-In . SVG Version: 6.00 Build 0)  -->
<svg version="1.1" id="Layer_1" xmlns="http://www.w3.org/2000/svg" xmlns:xlink="http://www.w3.org/1999/xlink" x="0px" y="0px"
	 viewBox="0 0 150.6 125.8" style="enable-background:new 0 0 150.6 125.8;" xml:space="preserve">
<style type="text/css">
	.st0{fill:#80D2BD;stroke:#5DB2A6;stroke-width:3;stroke-miterlimit:10;}
	.st1{fill:none;stroke:#5DB2A6;stroke-width:3;stroke-linecap:round;stroke-miterlimit:10;}
</style>
<g>
	<g>
		<path class="st0" d="M75.3,1.5C34.5,1.5,1.5,26.3,1.5,56.9c0,17,10.2,32.2,26.2,42.3l-8.9,24.1l37.6-12.9c6,1.2,12.3,1.9,18.8,1.9
			c40.8,0,73.8-24.8,73.8-55.4C149.1,26.3,116,1.5,75.3,1.5z"/>
	</g>
	<path class="st1" d="M49,81.9c4.7-18.6,23.5-29.8,42-25.2"/>
	<path class="st1" d="M30.2,75C37.1,47.7,64.8,31.1,92.1,38"/>
	<path class="st1" d="M39.7,78.3c5.7-22.8,28.8-36.6,51.6-30.9"/>
	<path class="st0" d="M85.4,28.5c0.5-2.2,2.5-3,4.3-1.7l5.9,4c1.9,1.3,5.2,2.2,7.5,2l7.1-0.6c2.2-0.2,3.6,1.4,2.9,3.6l-2,6.9
		c-0.6,2.2-0.4,5.6,0.4,7.7l2.8,6.6c0.9,2.1-0.3,3.8-2.5,3.9l-7.1,0.2c-2.3,0.1-5.5,1.3-7.2,2.8l-5.4,4.7c-1.7,1.5-3.7,0.9-4.5-1.2
		l-2.4-6.7c-0.8-2.1-3-4.8-4.9-6L74.2,51c-1.9-1.2-2-3.2-0.3-4.6l5.7-4.4c1.8-1.4,3.7-4.3,4.2-6.5L85.4,28.5z"/>
</g>
</svg>
