<svg width="512" xmlns="http://www.w3.org/2000/svg" height="512" viewBox="0 0 512 512" xmlns:xlink="http://www.w3.org/1999/xlink" enable-background="new 0 0 512 512">
<path fill="#fff" d="m416.786,420.884-238.18-238.076 0,144.8 93.277,93.276z"/>
<g fill="#0075ff">
<path d="m199.453,348.458 10.36,10.358 144.876,0-10.365-10.358z"/>
<path d="m178.736,327.737 10.356,10.356 144.866,0-10.36-10.356z"/>
<path d="m220.171,369.172 10.363,10.363 144.881,0-10.365-10.363z"/>
<path d="m240.893,389.893 10.357,10.356 144.891,0-10.361-10.356z"/>
<path d="m178.606,307.018 0,10.353 134.621,0-10.36-10.353z"/>
<path d="m271.883,420.884 144.903,0-10.28-10.272-144.895,0z"/>
<path d="m178.606,203.419 0,10.358 30.982,0-10.36-10.358z"/>
<path d="m178.606,224.141 0,10.355 51.71,0-10.358-10.355z"/>
<path d="m178.606,286.294 0,10.361 113.896,0-10.361-10.361z"/>
<path d="m178.606,193.059 10.256,0-10.256-10.251z"/>
<path d="m178.606,265.58 0,10.356 93.167,0-10.358-10.356z"/>
<path d="m178.606,255.215 72.438,0-10.36-10.353-62.078,0z"/>
</g>
<path fill="#fff" d="m248.305,493.527-154.113,0 77.056-77.054z"/>
<path fill="#231f20" d="m485.29,493.433-122.159,0 61.076-61.075z"/>
<path fill="#ff96ff" d="m62.348,493.501 109.804-109.806 109.805,109.806 35.692,0-145.497-145.495-145.493,145.495z"/>
<path fill="none" d="m0,0h512v512h-512z"/>
</svg>
