<?xml version="1.0" encoding="utf-8"?>
<!-- Generator: Adobe Illustrator 19.0.0, SVG Export Plug-In . SVG Version: 6.00 Build 0)  -->
<svg version="1.1" id="Layer_1" xmlns="http://www.w3.org/2000/svg" xmlns:xlink="http://www.w3.org/1999/xlink" x="0px" y="0px"
	 viewBox="0 0 50 50" style="enable-background:new 0 0 50 50;" xml:space="preserve">
<style type="text/css">
	.st0{fill:none;stroke:#808285;stroke-width:1.5;stroke-miterlimit:10;}
	.st1{fill:none;stroke:#808285;stroke-width:1.5;stroke-linecap:round;stroke-linejoin:round;stroke-miterlimit:10;}
</style>
<g id="XMLID_2_">
	<circle id="XMLID_8_" class="st0" cx="10.8" cy="14.2" r="6.9"/>
	<path id="XMLID_7_" class="st0" d="M16.5,25.1c-1.5,0-10,0-11.3,0c-1.7,0-3.3,1.7-3.3,3.4c0,1.1,0,14.7,0,14.7h17.7
		c0,0,0-8.5,0-9.1c0-1,0.6-1.2,1-0.7c0.3,0.3,3.5,3.6,4.3,4.4c0.6,0.5,0.9,0.4,1.3,0c0.3-0.3,4.3-4.3,6.1-6c0.5-0.5,0.3-1.3,0-1.7
		c-0.2-0.2-0.7-0.7-1-1c-0.4-0.4-1.2-0.5-1.8,0c-1.1,1.1-2.9,2.9-3.2,3.2c-0.5,0.5-0.8,0.5-1.4-0.1c-0.8-0.9-2.1-2.2-3.7-4
		C19.3,26.5,18.8,25.1,16.5,25.1z"/>
	<rect id="XMLID_6_" x="25.1" y="9.2" class="st1" width="23.1" height="16"/>
	<path id="XMLID_5_" class="st0" d="M33.9,33.8"/>
	<path id="XMLID_4_" class="st0" d="M28.9,29"/>
	<line id="XMLID_3_" class="st1" x1="31.8" y1="29.4" x2="43.6" y2="18.1"/>
</g>
</svg>
