<svg xmlns="http://www.w3.org/2000/svg" width="6698.67" height="3456.125" viewBox="0 0 6698.67 3456.125"><path fill="#4999C3" stroke="#000" stroke-width=".25" d="M5657.16 496.378c15.274-61.096 155.66-79.176 87.89-61.434l506.26-132.627c48.764-10.38 75.426-34.086 82.832-81.91V82.033c0-45.237-37.09-81.91-82.832-81.91H4814.292l-1.197 1944.26c-7.258 44.65 23.643 86.833 69.02 94.21l713.833 116.1c45.37 7.378 88.05-22.845 95.305-67.493l60.03-369.04c3.68-44.112-1.503-56.697-45.204-71.522h-.74c-42.286-16.093-215.56-85.183-206.673-288.14l158.492-862.12z"/><path d="M3277.31.125h1440v1368h-1440zM3299.255 1620.125h1440v1836h-1440zM1690.613 1673.418h1440v198h-1440zM1690.613 2202.05h1440v450h-1440zM1690.613 2718.125h1440v738h-1440z"/><path d="M1690.613 1932.533h1440v279h-1440zM0 1464.533h1440v279H0zM5258.67 2718.125h1440v738h-1440z"/><path fill="#4999C3" stroke="#000" stroke-width=".25" d="M1690.613.125v1638h1440V.125h-1440zm1260 1403.963h-1080v-810h1080v810zM5820.29 2155.55c-15.274 61.096-155.66 79.176-87.89 61.434l-506.26 132.627c-48.764 10.382-75.426 34.087-82.832 81.912v138.372c0 45.237 37.09 81.91 82.832 81.91h1437.018l1.197-1944.26c7.258-44.65-23.643-86.833-69.02-94.21l-713.833-116.1c-45.37-7.378-88.05 22.845-95.305 67.493l-60.03 369.042c-3.68 44.11 1.503 56.695 45.204 71.52h.74c42.286 16.093 215.56 85.183 206.673 288.14l-158.492 862.12z"/></svg>