<?xml version="1.0" encoding="utf-8"?>
<!-- Generator: Adobe Illustrator 18.1.1, SVG Export Plug-In . SVG Version: 6.00 Build 0)  -->
<svg version="1.1" id="Layer_1" xmlns="http://www.w3.org/2000/svg" xmlns:xlink="http://www.w3.org/1999/xlink" x="0px" y="0px"
	 width="572.1px" height="460.5px" viewBox="86 170.5 572.1 460.5" enable-background="new 86 170.5 572.1 460.5"
	 xml:space="preserve">
<g>
	<g id="_x23_019c9eff">
		<path fill="#50B1E0" d="M570.3,580.3c-16.8,10.8-36.6,16.6-56.5,17.5c-20,0.6-40.3-4.1-57.8-13.9c-24.3-13.2-43.3-35.7-52.1-61.8
			c-9-27.3-10.4-56.7-5.8-85c6.9-41.2,25.9-79.4,49.4-113.5C478.4,279,517,240.2,559,206c1.2-0.9,2.6-1.6,4-2.3
			c-2.4,4.2-5.8,7.7-8.6,11.7c-23.4,32.9-38.6,71.1-46.6,110.5c-3,15.6-5.6,31.4-6.1,47.3c24.4-1.5,49.4,4.6,69.8,18.2
			c24,15.4,41.5,40.4,47.8,68.1c4.4,18.6,4,38.2-1.2,56.6C610.7,542.4,593.5,565.9,570.3,580.3z"/>
	</g>
	<g id="_x23_019c9eff_1_">
		<path fill="#50B1E0" d="M310.3,580.3c-16.8,10.8-36.6,16.6-56.5,17.5c-20,0.6-40.3-4.1-57.8-13.9c-24.3-13.2-43.3-35.7-52.1-61.8
			c-9-27.3-10.4-56.7-5.8-85c6.9-41.2,25.9-79.4,49.4-113.5C218.4,279,257,240.2,299,206c1.2-0.9,2.6-1.6,4-2.3
			c-2.4,4.2-5.9,7.7-8.6,11.7c-23.4,32.9-38.6,71.1-46.6,110.5c-3,15.6-5.6,31.4-6.1,47.3c24.4-1.5,49.4,4.6,69.8,18.2
			c23.9,15.4,41.5,40.4,47.8,68.1c4.4,18.6,4,38.2-1.2,56.6C350.7,542.4,333.5,565.9,310.3,580.3z"/>
	</g>
</g>
</svg>
