<svg id="Layer_1" data-name="Layer 1" xmlns="http://www.w3.org/2000/svg" viewBox="0 0 113.57 36"><defs><style>.cls-1{fill:#b0b0b0;}.cls-2{fill:#fff;}</style></defs><title>Da-Lite_gray</title><path class="cls-1" d="M339.14,324.3l56.79-4.89,56.79,4.89v-36s-49.87,4.89-56.79,4.89-56.79-4.89-56.79-4.89v36Z" transform="translate(-339.14 -288.3)"/><path class="cls-2" d="M353.32,301h-8v11h8c3.74,0,5.48-.88,6.34-1.74a5.67,5.67,0,0,0,0-7.48C358.79,301.91,357.06,301,353.32,301Zm4.46,7.9c-0.61.61-1.94,1.08-4.51,1.08h-5.54v-7h5.54c2.57,0,3.9.47,4.51,1.08A3.91,3.91,0,0,1,357.77,308.93Z" transform="translate(-339.14 -288.3)"/><path class="cls-2" d="M369.09,301l-7.62,11h2.68l1.75-2.58h9.56l1.75,2.58H380l-7.62-11h-3.29Zm-1.88,6.5,3.46-5.12,3.47,5.12h-6.93Z" transform="translate(-339.14 -288.3)"/><polygon class="cls-2" points="41.97 19.18 49.1 19.18 49.1 17.13 40.44 17.13 41.97 19.18"/><polygon class="cls-2" points="54.98 12.73 52.55 12.73 52.55 23.68 65.99 23.68 65.99 21.68 54.98 21.68 54.98 12.73"/><rect class="cls-2" x="69.07" y="12.73" width="2.42" height="10.95"/><polygon class="cls-2" points="74.55 14.7 81.54 14.7 81.54 23.68 83.97 23.68 83.97 14.7 90.96 14.7 90.96 12.73 74.55 12.73 74.55 14.7"/><polygon class="cls-2" points="108.11 14.7 108.11 12.73 93.89 12.73 93.89 23.68 108.11 23.68 108.11 21.71 96.3 21.71 96.3 19.11 107.89 19.11 107.89 17.17 96.3 17.17 96.3 14.7 108.11 14.7"/></svg>