<?xml version="1.0" encoding="utf-8"?>
<!-- Generator: Adobe Illustrator 16.0.0, SVG Export Plug-In . SVG Version: 6.00 Build 0)  -->
<!DOCTYPE svg PUBLIC "-//W3C//DTD SVG 1.1//EN" "http://www.w3.org/Graphics/SVG/1.1/DTD/svg11.dtd">
<svg version="1.1" id="Layer_1" xmlns="http://www.w3.org/2000/svg" xmlns:xlink="http://www.w3.org/1999/xlink" x="0px" y="0px"
	 width="512px" height="512px" viewBox="0 0 512 512" style="enable-background:new 0 0 512 512;" xml:space="preserve">
<style type="text/css">
<![CDATA[
	.st0{fill:#E77C6F;}
	.st1{fill:none;}
]]>
</style>
<path class="st0" d="M332.384,408.253h84.601L276.664,83.48h-0.71h-3.592h-2.275l-32.636,75.412l-0.022-0.055l-53.695,123.863
	h106.778l-42.22-98.514l25.014-57.897l113.159,261.902H335.96l-28.337-65.821H166.69l-28.334,65.821H89.715l-1.301-1.3
	L219.388,83.48h-21.734l-0.01,0.02l-0.019-0.02l-67.54,67.18l-13.047,29.835l-0.226,0.195l-4.515,10.643l-4.576,10.463l0.239-0.239
	L0,456.081h19.868h9.464l47.153-47.828h75.075l28.335-65.821H236.5l40.579,100.987c0.017-0.008,0.034-0.015,0.052-0.023L283.149,458
	L332.384,408.253z M260.092,262.644h-45.696l22.938-53.093L260.092,262.644z M142.969,170.723c1.028-2.42,2.053-4.838,3.082-7.256
	l30.009-30.009L64.564,391.515L34.64,421.441l108.337-250.719H142.969z M294.42,342.432l22.654,52.624l-26.962,26.959
	l-31.888-79.583H294.42z"/>
<rect class="st1" width="512" height="512"/>
</svg>
