<?xml version="1.0" encoding="utf-8"?>
<!-- Generator: Adobe Illustrator 16.0.4, SVG Export Plug-In . SVG Version: 6.00 Build 0)  -->
<!DOCTYPE svg PUBLIC "-//W3C//DTD SVG 1.1//EN" "http://www.w3.org/Graphics/SVG/1.1/DTD/svg11.dtd">
<svg version="1.1" id="Layer_1" xmlns="http://www.w3.org/2000/svg" xmlns:xlink="http://www.w3.org/1999/xlink" x="0px" y="0px"
	 width="261.577px" height="350px" viewBox="0 0 261.577 350" enable-background="new 0 0 261.577 350" xml:space="preserve">
<g>
	<path d="M257.113,6.127h-1.485c-18.33,0-27.243,21.301-41.613,54.493c-10.405,23.781-36.66,86.205-49.539,118.402
		c-1.982,4.954-1.982,7.434-1.982,13.376v132.274c0,16.348,0.991,19.325,5.451,19.325h13.87c3.468,0,3.962,1.485,3.962,2.971
		s-0.494,2.972-3.962,2.972H69.357c-3.468,0-3.965-1.486-3.965-2.972s0.497-2.971,3.965-2.971h13.871
		c4.459,0,5.451-2.978,5.451-19.325v-128.31c0-3.965-0.497-7.925-2.477-11.89L25.761,27.428C18.33,9.098,14.861,6.127,9.413,6.127
		H4.457C0.494,6.127,0,4.642,0,3.156C0,1.67,0.991,0.185,4.457,0.185h118.898c3.468,0,4.459,1.486,4.459,2.971
		c0,1.486-0.497,2.971-4.459,2.971h-13.376c-5.945,0-8.422,3.468-1.485,21.301l52.513,140.2
		c14.861-36.163,39.631-97.592,48.053-123.355c7.434-22.787,3.469-38.146-15.356-38.146h-8.919c-3.962,0-4.457-1.485-4.457-2.971
		c0-1.485,0.991-2.971,4.457-2.971h72.328c3.469,0,4.464,1.486,4.464,2.971C261.577,4.642,261.08,6.127,257.113,6.127z"/>
</g>
</svg>
