<?xml version="1.0" encoding="utf-8"?>
<!-- Generator: Adobe Illustrator 20.0.0, SVG Export Plug-In . SVG Version: 6.00 Build 0)  -->
<!DOCTYPE svg PUBLIC "-//W3C//DTD SVG 1.1//EN" "http://www.w3.org/Graphics/SVG/1.1/DTD/svg11.dtd">
<svg version="1.1" id="Layer_1" xmlns="http://www.w3.org/2000/svg" xmlns:xlink="http://www.w3.org/1999/xlink" x="0px" y="0px"
	 viewBox="0 0 512 512" style="enable-background:new 0 0 512 512;" xml:space="preserve">
<style type="text/css">
	.st0{fill:#FFFFFF;}
	.st1{fill:#FFFFFF;stroke:#B4C5CE;stroke-miterlimit:10;}
	.st2{fill:#B4C5CE;}
</style>
<rect class="st0" width="512" height="512"/>
<polygon class="st1" points="256,136.5 359.5,196.2 359.5,315.8 256,375.5 152.5,315.8 152.5,196.2 "/>
<path class="st2" d="M208.4,230.3c4.6-2.3,9.3-4.6,13.9-6.9c2.5-1.2,4.9-2.5,7.7-3.9c0,4.5,0,8.8,0,13.1c0.1,0.1,0.3,0.1,0.4,0.2
	c0.5-0.6,1-1.2,1.5-1.8c3.7-4.7,7.8-8.9,13.9-10.3c9.9-2.2,17.8,0.5,21.6,10.3c0.1,0.3,0.3,0.5,0.6,1.1c0.4-0.6,0.8-1.1,1.1-1.6
	c5.7-8.6,15-12.2,24.9-9.5c4.9,1.3,8.9,6.2,9.3,11.3c0.2,2.1,0.3,4.3,0.3,6.4c0.1,17,0.1,34,0.1,51c0,0.7,0,1.5,0,2.4
	c-7.6,0-15,0-22.7,0c0-0.7,0-1.5,0-2.2c0-14.4,0-28.7,0-43.1c0-4.6-2.8-7.8-6.9-7.7c-4.3,0-7.4,3.3-7.4,7.9
	c0,14.2,0.1,28.5,0.1,42.7c0,0.8,0,1.6,0,2.5c-7.6,0-14.9,0-22.6,0c0-1,0-2,0-2.9c0-14.2,0-28.5,0-42.7c0-4.3-3-7.5-7-7.5
	c-4,0-7,3.2-7,7.5c0,14.4,0,28.8,0,43.3c0,0.7,0,1.4,0,2.4c-7.3,0-14.4,0-21.6,0C208.4,271.7,208.4,251,208.4,230.3z"/>
</svg>
