<?xml version="1.0" encoding="utf-8"?>
<!-- Generator: Adobe Illustrator 19.1.0, SVG Export Plug-In . SVG Version: 6.00 Build 0)  -->
<svg version="1.1" id="Layer_1" xmlns="http://www.w3.org/2000/svg" xmlns:xlink="http://www.w3.org/1999/xlink" x="0px" y="0px"
	 viewBox="0 0 60 60" style="enable-background:new 0 0 60 60;" xml:space="preserve">
<style type="text/css">
	.st0{fill:#58575A;}
	.st1{fill:#D4451D;}
</style>
<path class="st0" d="M3.2,30c0,14.9,12.1,27,27,27c14.9,0,27-12.1,27-27c0-14.9-12.1-27-27-27C15.2,3,3.2,15.1,3.2,30 M0.9,30
	C0.9,13.8,14,0.8,30.2,0.8c16.2,0,29.2,13.1,29.2,29.3c0,16.2-13.1,29.2-29.2,29.2C14,59.2,0.9,46.2,0.9,30"/>
<path class="st1" d="M44.5,35.2c-2.8,0-4-0.9-4-2.9c0-2,1.3-3,3.9-3h4.8v1.8c0,1.4-0.3,2.4-0.8,2.9C47.2,35.1,45.8,35.2,44.5,35.2
	 M44.8,20.1c-2.9,0-4.6,0.7-5.9,2.6l-0.1,0.2l1.6,1.4l0.2-0.2c1-1.4,2.1-2,4.3-2c3,0,4.3,1.2,4.3,3.7v1.6h-5c-3.7,0-5.9,1.8-5.9,4.9
	c0,1.3,0.5,2.5,1.3,3.3c1.1,1.1,2.4,1.6,5,1.6c2.1,0,3.6-0.6,4.7-1.5V37h2.2V25.6C51.4,21.9,49.2,20.1,44.8,20.1"/>
<path class="st0" d="M32.5,29.6v-3.2c0-2-0.6-3.6-1.8-4.7c-1.1-1.1-2.7-1.6-4.5-1.6c-2.6,0-4.3,0.8-5.5,2.7
	c-1.1-1.8-2.9-2.7-5.2-2.7c-3.1,0-6.8,1.2-6.8,6.8V37h2.2V26.7c0-3,1.5-4.6,4.3-4.6c2.8,0,4.2,1.6,4.2,4.6V37h2.3V26.4
	c0-2.7,1.6-4.3,4.3-4.3c2.8,0,4.2,1.6,4.2,4.6v2.2l2.8,2.8h4.4v-2.1H32.5z"/>
<polygon class="st1" points="29.7,29.6 25.2,29.6 25.2,31.7 30.3,31.7 30.3,37 32.5,37 32.5,32.4 "/>
</svg>
