<?xml version="1.0" encoding="utf-8"?>
<!-- Generator: Adobe Illustrator 17.0.0, SVG Export Plug-In . SVG Version: 6.00 Build 0)  -->
<!DOCTYPE svg PUBLIC "-//W3C//DTD SVG 1.1//EN" "http://www.w3.org/Graphics/SVG/1.1/DTD/svg11.dtd">
<svg version="1.1" id="Calque_1" xmlns="http://www.w3.org/2000/svg" xmlns:xlink="http://www.w3.org/1999/xlink" x="0px" y="0px"
	 width="5669.29px" height="5669.291px" viewBox="0 0 5669.29 5669.291" enable-background="new 0 0 5669.29 5669.291"
	 xml:space="preserve">
<g>
	<path fill="#2B323F" d="M3895.141,3745.973H2108.182l-140.598-467.149h2263.178l548.789-1827.779h-3365.29L1210.166,779.8H697.662
		v176.882h385.512l843.591,2802.897c-190.488,49.89-335.622,226.771-335.622,435.401c0,249.449,199.559,449.008,449.008,449.008
		s449.008-199.559,449.008-449.008c0-104.315-36.283-199.559-90.709-272.126h1138.393c-58.961,77.103-90.709,172.347-90.709,272.126
		c0,249.449,199.559,449.008,449.008,449.008s449.008-199.559,449.008-449.008S4140.055,3745.973,3895.141,3745.973z
		 M1913.158,3101.941l-444.473-1474.016h3075.022l-444.473,1474.016H1913.158z M2040.15,4467.106
		c-149.67,0-272.126-122.456-272.126-272.126s122.456-272.126,272.126-272.126c149.669,0,272.126,122.456,272.126,272.126
		C2316.812,4344.65,2189.82,4467.106,2040.15,4467.106z M3895.141,4467.106c-149.67,0-272.127-122.456-272.127-272.126
		s122.457-272.126,272.127-272.126s272.125,122.456,272.125,272.126S4044.811,4467.106,3895.141,4467.106z"/>
</g>
</svg>
