<svg version="1" xmlns="http://www.w3.org/2000/svg" viewBox="0 0 50 50"><path fill="#71BAC0" d="M44.998 31.318v-19.23c0-2.5-2.027-4.527-4.526-4.527H9.528a4.526 4.526 0 0 0-4.526 4.527v31.14c0 .882.263 1.698.7 2.394L44.997 31.32z"/><path fill="#7ED0D6" d="M44.986 11.963a4.52 4.52 0 0 0-4.514-4.402H9.528a4.526 4.526 0 0 0-4.526 4.527v14.43l39.984-14.554z"/><path fill="#444" d="M40.472 25.675h-7.65a.905.905 0 1 1 0-1.81h7.65a3.624 3.624 0 0 0 3.62-3.62v-8.158a.906.906 0 0 1 1.811 0v8.157a5.436 5.436 0 0 1-5.43 5.43z"/><path fill="#444" d="M40.472 6.43h-8.897v-.662a4.659 4.659 0 0 0-4.654-4.654H23.08a4.659 4.659 0 0 0-4.654 4.654v.66H9.528a5.666 5.666 0 0 0-5.658 5.66v31.14a5.664 5.664 0 0 0 5.658 5.658h24.424V34.883h4.563l.997-7.72h-5.56V24.81c0-1.153.122-1.525 1.573-1.525h4.02V16.28l-.98-.132c-.436-.058-2.174-.225-4.36-.225-4.818 0-7.968 3.105-8.136 7.94H9.53a3.612 3.612 0 0 1-3.396-2.406v-9.372A3.399 3.399 0 0 1 9.529 8.69h30.943a3.399 3.399 0 0 1 3.395 3.395V31.31a1.132 1.132 0 0 0 2.264 0V12.087a5.667 5.667 0 0 0-5.66-5.658zM28.316 29.424v-5.157c0-3.865 2.146-6.082 5.888-6.082 1.19 0 2.3.056 3.08.113v2.72h-1.76c-3.835 0-3.835 2.85-3.835 3.788v4.616h5.248l-.412 3.194H31.69V46.62h-3.374v-14h-4.712v-3.195h4.712zM9.53 25.675h16.523v1.487H21.34v7.72h4.713v11.74H9.528a3.399 3.399 0 0 1-3.395-3.395v-18.75a5.405 5.405 0 0 0 3.397 1.198zM20.688 6.43v-.662a2.393 2.393 0 0 1 2.39-2.39h3.843c1.32 0 2.39 1.072 2.39 2.39v.66H20.69z"/></svg>