<?xml version="1.0" encoding="utf-8"?>
<!-- Generator: Adobe Illustrator 19.1.0, SVG Export Plug-In . SVG Version: 6.00 Build 0)  -->
<svg version="1.1" id="Layer_1" xmlns="http://www.w3.org/2000/svg" xmlns:xlink="http://www.w3.org/1999/xlink" x="0px" y="0px"
	 viewBox="0 0 60 60" style="enable-background:new 0 0 60 60;" xml:space="preserve">
<style type="text/css">
	.st0{fill:#C10000;}
	.st1{fill:#FFFFFF;}
</style>
<rect class="st0" width="60" height="60"/>
<g>
	<path class="st1" d="M20.6,24.2c0.2-1.4,0.4-3.3-1.6-3.3c-1.3,0-2.2,0.9-2.3,2.1c-0.1,0.6-0.1,1.2,0.4,1.8c0.5,0.6,1.9,1,2.8,1.3
		c2.4,0.6,5.7,1.5,7.6,2.8c1.1,0.8,1.9,1.7,2.2,3c0.4,1.4,0.4,2.9,0.2,4.3l0,0.1c-0.9,6-4.4,10.5-14.3,10.5c-4.3,0-8.7-0.8-11.7-3.3
		l1.2-8.4L15,35c-0.3,1.9-0.5,3.3-0.2,3.9c0.3,0.6,0.9,1,1.7,1c1.4,0,2.2-1.3,2.4-2.4c0.5-3.2-1.7-3.5-4.5-4.1
		c-6.1-1.5-9.5-2.9-8.5-9.7L6,23c0.6-3.4,1.5-5,4.5-7c2.5-1.6,5.8-1.9,8.9-1.9c4.5,0,8.5,0.9,11.9,3.3l-1.1,7.4l-9.7,0L20.6,24.2z"
		/>
	<path class="st1" d="M40.7,37.6c-0.2,1.2-0.4,2.4,0.6,3.1l-0.7,5.6l-11.6,0l0.7-5.6c1.2-0.7,1.3-1.9,1.4-3.1L33,23.3
		c0.2-1.2,0.4-2.4-0.6-3.1l0.7-5.6l13.3,0c2.4,0,5.3,0,7.2,1.3c2.3,1.5,2.8,4.2,2.4,7.1c-0.4,3.5-1.8,6.5-5.5,7.5l0,0.1
		c2.9,0.7,3.7,2.1,3.3,5.3l-0.2,1.8c-0.1,1.1-0.3,2.6,0.8,3.1l-0.7,5.6l-10.3,0c-0.2-1.7-0.2-3.2,0.6-8.5c0.3-2.5,0.2-3.8-2.4-3.9
		l-0.4,0L40.7,37.6z M42,27.7l1,0c2.1,0,2.9-1.1,3.1-3.3c0.3-2-0.2-3.2-2.3-3.2l-1,0L42,27.7z"/>
</g>
</svg>
