<?xml version="1.0" encoding="utf-8"?>
<!-- Generator: Adobe Illustrator 16.0.0, SVG Export Plug-In . SVG Version: 6.00 Build 0)  -->
<!DOCTYPE svg PUBLIC "-//W3C//DTD SVG 1.1//EN" "http://www.w3.org/Graphics/SVG/1.1/DTD/svg11.dtd">
<svg xmlns="http://www.w3.org/2000/svg" width="573.88" height="494.12" viewBox="0 0 573.88 494.12">
  <path d="M294.05,361c-99.53,0-180.5-81-180.5-180.5S194.52,0,294.05,0s180.5,81,180.5,180.5S393.58,361,294.05,
		361Zm0-326c-80.23,0-145.5,65.27-145.5,145.5S213.82,326,294.05,326s145.5-65.27,145.5-145.5S374.28,35,294.05,35Z"
		transform="translate(-7.11)" style="fill: #1f2222"/>
  <path d="M294,239.44q9,0,14.55,5.32a19.44,19.44,0,0,1,0,27.12Q303,277.21,294,277.21t-14.43-5.32a18,18,0,0,
		1-5.51-13.5,18.17,18.17,0,0,1,5.51-13.56Q285.07,239.44,294,239.44Zm14.86-19.57H279.13l-4.21-125h38.14Z"
		transform="translate(-7.11)" style="fill: #1f2222"/>
  <g>

	<g>
    <line x1="19" y1="378.04" x2="286.94" y2="475.12" style="fill: none"/>
    <path d="M294,494.12a19,19,0,0,1-6.47-1.14L19.65,395.9a19,19,0,1,1,12.94-35.73l267.93,97.08A19,19,
			0,0,1,294,494.12Z" transform="translate(-7.11)" style="fill: #da2c35"/>
  </g>

	<g>
    <line x1="554.87" y1="378.04" x2="286.94" y2="475.12" style="fill: none"/>
    <path d="M294.05,494.12a19,19,0,0,1-6.47-36.87l267.93-97.08a19,19,0,0,1,12.95,35.73L300.52,493A19,19,
			0,0,1,294.05,494.12Z" transform="translate(-7.11)" style="fill: #da2c35"/>
  </g>

	</g>
</svg>
