<svg viewBox="0 0 58 48" xmlns="http://www.w3.org/2000/svg"><g fill="none" fill-rule="evenodd" transform="translate(1 1)"><g><g><path d="m20.306 45.548l9.786-7.639c9.786-.411 18.02-8.214 18.39-18.15.367-10.802-8.196-19.591-18.798-19.591h-10.887c-10.357 0-18.716 8.461-18.716 18.852 0 10.432 8.4 18.852 18.716 18.852v6.982c0 .698.856 1.109 1.509.698" fill="#fff"/><path d="m37.555.082h-7.87c10.602 0 19.16 8.83 18.798 19.591-.367 9.939-8.604 17.743-18.39 18.15h7.01c10.153 0 18.838-7.968 19.21-18.19.408-10.72-8.196-19.55-18.757-19.55" fill="#ccf0f9"/></g><g stroke-width=".993" stroke="#59595c"><path d="m37.555.082h-7.87-10.887"/><path d="m37.555.082c10.602 0 19.16 8.83 18.798 19.591-.367 10.227-9.05 18.19-19.21 18.19h-7.05l-9.786 7.639c-.612.452-1.468 0-1.468-.739v-6.982c-10.357 0-18.716-8.461-18.716-18.852 0-10.432 8.4-18.852 18.716-18.852"/></g></g><g transform="translate(22.02 8.214)" stroke="#59595c" stroke-width=".993" fill="#00b5e2"><path d="m6.198 18.441c-.775 0-1.386-.616-1.386-1.396 0-2.793.571-4.23 1.468-5.627.408-.616.938-1.191 1.549-1.684 1.59-1.314 1.672-3.286 1.672-3.368 0-1.848-1.509-3.327-3.303-3.327-1.835 0-3.303 1.52-3.303 3.327 0 .78-.612 1.396-1.386 1.396-.775 0-1.386-.616-1.386-1.396 0-3.368 2.732-6.12 6.076-6.12 3.344 0 6.076 2.752 6.076 6.12 0 .123-.041 3.327-2.691 5.504-.408.329-.734.698-.979 1.068-.571.863-1.019 1.766-1.019 4.107 0 .78-.612 1.396-1.386 1.396"/><ellipse cx="6.198" cy="22.302" rx="1.794" ry="1.807"/></g></g></svg>