<?xml version="1.0" encoding="utf-8"?>
<!-- Generator: Adobe Illustrator 20.1.0, SVG Export Plug-In . SVG Version: 6.00 Build 0)  -->
<svg version="1.1" id="zoom" xmlns="http://www.w3.org/2000/svg" xmlns:xlink="http://www.w3.org/1999/xlink" x="0px" y="0px"
	 viewBox="0 0 50 50" style="enable-background:new 0 0 50 50;" xml:space="preserve">
<style type="text/css">
	.st0{fill-rule:evenodd;clip-rule:evenodd;fill:#4D4D4D;}
	.st1{fill-rule:evenodd;clip-rule:evenodd;fill:#7F7F7F;}
	.st2{fill:none;stroke:#FFFFFF;stroke-miterlimit:10;}
</style>
<g>
	<path class="st0" d="M36.7,92.3c0,5.5-4.5,10-10,10h-1.8c-5.5,0-10-4.5-10-10V78.8c0-5.5,4.5-10,10-10h1.8c5.5,0,10,4.5,10,10V92.3
		z"/>
</g>
<path class="st1" d="M22.5,17.5V15c0-1.4-1.1-2.5-2.5-2.5c-1.4,0-2.5,1.1-2.5,2.5v2.5H15c-1.4,0-2.5,1.1-2.5,2.5s1.1,2.5,2.5,2.5
	h2.5V25c0,1.4,1.1,2.5,2.5,2.5c1.4,0,2.5-1.1,2.5-2.5v-2.5H25c1.4,0,2.5-1.1,2.5-2.5s-1.1-2.5-2.5-2.5H22.5z M34.9,29.2
	c1.7-2.7,2.6-5.9,2.6-9.2c0-9.7-7.8-17.5-17.5-17.5C10.3,2.5,2.5,10.3,2.5,20S10.3,37.5,20,37.5c3.4,0,6.6-1,9.2-2.6l11.5,11.5
	c1.5,1.6,4.1,1.6,5.6,0c1.6-1.5,1.6-4.1,0-5.6L34.9,29.2z M20,32.5c-6.9,0-12.5-5.6-12.5-12.5S13.1,7.5,20,7.5
	c6.9,0,12.5,5.6,12.5,12.5S26.9,32.5,20,32.5z"/>
<line class="st2" x1="25.8" y1="66.5" x2="25.8" y2="84"/>
<line class="st2" x1="40.5" y1="84.3" x2="11" y2="84.3"/>
<g>
	<path class="st0" d="M27.8,79c0,1.1-0.9,2-2,2s-2-0.9-2-2v-3.9c0-1.1,0.9-2,2-2s2,0.9,2,2V79z"/>
	<path class="st2" d="M27.8,79c0,1.1-0.9,2-2,2s-2-0.9-2-2v-3.9c0-1.1,0.9-2,2-2s2,0.9,2,2V79z"/>
</g>
</svg>
