<?xml version="1.0" encoding="utf-8"?>
<!-- Generator: Adobe Illustrator 18.1.1, SVG Export Plug-In . SVG Version: 6.00 Build 0)  -->
<svg version="1.1" id="Layer_1" xmlns="http://www.w3.org/2000/svg" xmlns:xlink="http://www.w3.org/1999/xlink" x="0px" y="0px"
	 viewBox="0 0 37 30" enable-background="new 0 0 37 30" xml:space="preserve">
<g>
	<defs>
		<rect id="SVGID_1_" x="0" y="0.2" width="37" height="29.4"/>
	</defs>
	<clipPath id="SVGID_2_">
		<use xlink:href="#SVGID_1_"  overflow="visible"/>
	</clipPath>
	<path clip-path="url(#SVGID_2_)" fill="#231F20" d="M32.8,28.9c1-0.5,1.7-1.2,2.4-1.9c0.6-0.8,1.1-1.6,1.4-2.4
		c0.3-0.9,0.5-1.6,0.5-2.3c0-0.7-0.1-1.5-0.4-2.4c-0.3-0.9-0.7-1.7-1.3-2.5c-0.6-0.8-1.5-1.4-2.6-2c-1.1-0.5-2.4-0.8-4-0.8h-3.9
		c0.1-1.3,0.6-2.6,1.4-4c0.8-1.4,1.8-2.7,3-3.9c1.2-1.2,2.5-2.3,3.8-3.3c1.4-1,2.7-1.7,4-2.2l-0.5-1.1c-1.8,0.7-3.8,1.5-5.7,2.6
		c-2,1.1-3.8,2.3-5.4,3.8c-1.6,1.5-3,3.2-4,5c-1.1,1.9-1.6,4-1.6,6.3c0,1.5,0.2,2.9,0.5,4.3c0.3,1.4,0.8,2.7,1.6,3.8
		c0.7,1.1,1.7,2,2.9,2.7c1.2,0.7,2.8,1,4.7,1C30.7,29.7,31.8,29.4,32.8,28.9 M13,28.9c1-0.5,1.8-1.2,2.4-1.9
		c0.6-0.8,1.1-1.6,1.4-2.4c0.3-0.9,0.5-1.6,0.5-2.3c0-0.7-0.1-1.5-0.4-2.4s-0.7-1.7-1.4-2.5c-0.7-0.8-1.5-1.4-2.6-2
		c-1.1-0.5-2.4-0.8-4-0.8H5c0.1-1.3,0.6-2.6,1.4-4c0.8-1.4,1.8-2.7,3-3.9c1.2-1.2,2.5-2.3,3.8-3.3c1.4-1,2.7-1.7,4-2.2l-0.5-1.1
		C14.9,0.9,13,1.8,11,2.8c-2,1.1-3.8,2.3-5.4,3.8c-1.6,1.5-3,3.2-4,5c-1.1,1.9-1.6,4-1.6,6.3c0,1.5,0.2,2.9,0.5,4.3
		C0.8,23.7,1.3,24.9,2,26c0.7,1.1,1.7,2,2.9,2.7c1.2,0.7,2.8,1,4.7,1C10.9,29.7,12.1,29.4,13,28.9"/>
</g>
</svg>
