<?xml version="1.0" encoding="utf-8"?>
<!-- Generator: Adobe Illustrator 20.0.0, SVG Export Plug-In . SVG Version: 6.00 Build 0)  -->
<svg version="1.1" id="Layer_1" xmlns="http://www.w3.org/2000/svg" xmlns:xlink="http://www.w3.org/1999/xlink" x="0px" y="0px"
	 viewBox="0 0 19.9 26.5" style="enable-background:new 0 0 19.9 26.5;" xml:space="preserve">
<style type="text/css">
	.st0{clip-path:url(#SVGID_2_);fill:#FFFFFF;}
	.st1{clip-path:url(#SVGID_4_);}
	.st2{clip-path:url(#SVGID_6_);fill:#A6D7DC;}
</style>
<g>
	<defs>
		<rect id="SVGID_1_" y="0" width="19.9" height="26.5"/>
	</defs>
	<clipPath id="SVGID_2_">
		<use xlink:href="#SVGID_1_"  style="overflow:visible;"/>
	</clipPath>
	<polygon class="st0" points="15.6,6.6 5.3,26.5 19.9,26.5 19.9,6.6 	"/>
</g>
<g>
	<defs>
		<rect id="SVGID_3_" width="19.9" height="26.5"/>
	</defs>
	<clipPath id="SVGID_4_">
		<use xlink:href="#SVGID_3_"  style="overflow:visible;"/>
	</clipPath>
	<g class="st1">
		<defs>
			<rect id="SVGID_5_" y="0" width="19.9" height="26.5"/>
		</defs>
		<clipPath id="SVGID_6_">
			<use xlink:href="#SVGID_5_"  style="overflow:visible;"/>
		</clipPath>
		<path class="st2" d="M10.6,5.6c0,0,3.4,0.3,5.2-0.7c1.8-1,1.9-3,0.7-4.1c-0.9-0.9-2.8-1.4-4.1,0.2C10.8,3.2,10.6,5.6,10.6,5.6"/>
		<path class="st2" d="M9.6,5.6c0,0-3.4,0.3-5.1-0.7c-1.8-1-1.9-3-0.7-4.1C4.6,0,6.5-0.6,7.8,1.1C9.3,3.2,9.6,5.6,9.6,5.6"/>
		<polygon class="st2" points="0,26.5 4.4,26.5 9.3,16.9 0,16.9 		"/>
		<polygon class="st2" points="14.6,6.6 10.5,6.6 10.5,14.6 		"/>
		<rect y="6.6" class="st2" width="9.7" height="9.5"/>
	</g>
</g>
</svg>
