<?xml version="1.0" encoding="utf-8"?>
<!-- Generator: Adobe Illustrator 19.1.0, SVG Export Plug-In . SVG Version: 6.00 Build 0)  -->
<!DOCTYPE svg PUBLIC "-//W3C//DTD SVG 1.1//EN" "http://www.w3.org/Graphics/SVG/1.1/DTD/svg11.dtd">
<svg version="1.1" id="Layer_1" xmlns="http://www.w3.org/2000/svg" xmlns:xlink="http://www.w3.org/1999/xlink" x="0px" y="0px"
	 viewBox="-180 272 605.1 250" style="enable-background:new -180 272 605.1 250;" xml:space="preserve">
<style type="text/css">
	.st0{fill:#A6A6A6;}
</style>
<g id="Layer_1_1_">
	<g>
		<rect x="-151.6" y="317.8" class="st0" width="193.3" height="34.3"/>
		<rect x="-151.6" y="379.8" class="st0" width="193.3" height="34.3"/>
		<rect x="-151.6" y="441.8" class="st0" width="193.3" height="34.3"/>
	</g>
</g>
<g>
	<path class="st0" d="M133.1,441.6l-21.8-62.8h-0.4c0.6,9.3,0.9,18.1,0.9,26.2v36.5h-11.2v-75.1H118l20.9,59.8h0.3l21.5-59.8H178
		v75.1h-11.8v-37.2c0-3.7,0.1-8.6,0.3-14.6c0.2-6,0.4-9.6,0.5-10.9h-0.4L144,441.6H133.1z"/>
	<path class="st0" d="M240.3,441.6h-42.5v-75.1h42.5v10.4h-30.2v20.5h28.3v10.3h-28.3v23.6h30.2V441.6z"/>
	<path class="st0" d="M319.1,441.6h-15.1l-37-59.9h-0.4l0.3,3.3c0.5,6.4,0.7,12.2,0.7,17.5v39.1h-11.2v-75.1h14.9l36.8,59.6h0.3
		c-0.1-0.8-0.2-3.7-0.4-8.6c-0.2-5-0.3-8.8-0.3-11.6v-39.4h11.3V441.6z"/>
	<path class="st0" d="M397.8,366.5v48.6c0,5.6-1.2,10.4-3.6,14.6c-2.4,4.2-5.8,7.4-10.3,9.6c-4.5,2.2-9.9,3.4-16.2,3.4
		c-9.3,0-16.6-2.5-21.7-7.4c-5.2-4.9-7.8-11.7-7.8-20.4v-48.4h12.3V414c0,6.2,1.4,10.8,4.3,13.7c2.9,2.9,7.3,4.4,13.3,4.4
		c11.6,0,17.4-6.1,17.4-18.2v-47.4H397.8z"/>
</g>
</svg>
