<?xml version="1.0" encoding="utf-8"?>
<!-- Generator: Adobe Illustrator 18.0.0, SVG Export Plug-In . SVG Version: 6.00 Build 0)  -->
<!DOCTYPE svg PUBLIC "-//W3C//DTD SVG 1.1//EN" "http://www.w3.org/Graphics/SVG/1.1/DTD/svg11.dtd">
<svg version="1.1" id="Layer_1" xmlns="http://www.w3.org/2000/svg" xmlns:xlink="http://www.w3.org/1999/xlink" x="0px" y="0px"
	 viewBox="0 0 52 52" enable-background="new 0 0 52 52" xml:space="preserve">
<polygon fill="#A11915" points="0,52 52,0 0,0 "/>
<g>
	<path fill="#FFFFFF" d="M5.3,9.4h2.1v1.4H5.3v2.9h2.7V15H3.7V5.2h4.2v1.4H5.3V9.4z"/>
	<path fill="#FFFFFF" d="M8.9,5.2h1.5v8.4h2.5V15H8.9V5.2z"/>
	<path fill="#FFFFFF" d="M13.6,5.2h1.5V15h-1.5V5.2z"/>
	<path fill="#FFFFFF" d="M15.8,5.2h4.8v1.4H19V15h-1.5V6.6h-1.6V5.2z"/>
	<path fill="#FFFFFF" d="M22.8,9.4h2.1v1.4h-2.1v2.9h2.7V15h-4.2V5.2h4.2v1.4h-2.7V9.4z"/>
	<path fill="#FFFFFF" d="M3.6,18.6c0-1.6,0.8-2.5,2.3-2.5s2.3,0.9,2.3,2.5v5.1c0,1.6-0.8,2.5-2.3,2.5s-2.3-0.9-2.3-2.5V18.6z
		 M5.1,23.8c0,0.7,0.3,1,0.8,1s0.8-0.3,0.8-1v-5.3c0-0.7-0.3-1-0.8-1s-0.8,0.3-0.8,1V23.8z"/>
	<path fill="#FFFFFF" d="M13.8,18.6v1.3c0,1.6-0.8,2.4-2.3,2.4h-0.7V26H9.3v-9.8h2.3C13.1,16.2,13.8,17.1,13.8,18.6z M10.8,17.6v3.3
		h0.7c0.5,0,0.8-0.2,0.8-0.9v-1.5c0-0.7-0.3-0.9-0.8-0.9H10.8z"/>
	<path fill="#FFFFFF" d="M16.6,16.1c1.5,0,2.3,0.9,2.3,2.5v0.3h-1.5v-0.4c0-0.7-0.3-1-0.8-1s-0.8,0.3-0.8,1c0,0.7,0.3,1.2,1.3,2.1
		c1.3,1.1,1.7,1.9,1.7,3.1c0,1.6-0.8,2.5-2.3,2.5c-1.5,0-2.3-0.9-2.3-2.5v-0.6h1.5v0.7c0,0.7,0.3,1,0.8,1c0.5,0,0.8-0.3,0.8-1
		c0-0.7-0.3-1.2-1.3-2.1c-1.3-1.1-1.7-1.9-1.7-3.1C14.3,17,15.1,16.1,16.6,16.1z"/>
</g>
</svg>
