<?xml version="1.0" encoding="utf-8"?>
<!-- Generator: Adobe Illustrator 19.1.0, SVG Export Plug-In . SVG Version: 6.00 Build 0)  -->
<!DOCTYPE svg PUBLIC "-//W3C//DTD SVG 1.1//EN" "http://www.w3.org/Graphics/SVG/1.1/DTD/svg11.dtd">
<svg version="1.1" id="Layer_1" xmlns="http://www.w3.org/2000/svg" xmlns:xlink="http://www.w3.org/1999/xlink" x="0px" y="0px"
	 viewBox="0 0 277.4 277.4" style="enable-background:new 0 0 277.4 277.4;" xml:space="preserve">
<circle style="fill:#F1585E;" cx="138.7" cy="138.7" r="138.7"/>
<g>
	<defs>
		<circle id="SVGID_11_" cx="138.7" cy="138.7" r="138.7"/>
	</defs>
	<clipPath id="SVGID_2_">
		<use xlink:href="#SVGID_11_"  style="overflow:visible;"/>
	</clipPath>
</g>
<g>
	<defs>
		<circle id="SVGID_13_" cx="138.7" cy="138.7" r="138.7"/>
	</defs>
	<clipPath id="SVGID_4_">
		<use xlink:href="#SVGID_13_"  style="overflow:visible;"/>
	</clipPath>
	<polygon style="clip-path:url(#SVGID_4_);fill:#E14F5A;" points="202.5,71.2 289.6,158.3 277.4,232.1 233.6,277.4 168.7,299.9 
		76.2,207.4 	"/>
</g>
<path style="fill:#FFFFFF;" d="M153.3,210.8h-74c-3,0-5.5-2.5-5.5-5.5v-59.6c0-3,2.5-5.5,5.5-5.5h74c3,0,5.5,2.5,5.5,5.5v59.6
	C158.8,208.4,156.3,210.8,153.3,210.8z"/>
<polygon style="fill:#FFFFFF;" points="102.2,150.6 135,174.3 109,188.5 98.1,179.6 98.1,150.6 "/>
<path style="fill:#FBB732;" d="M156,66.8l-52.8,75.7L99.8,192l45.3-20.2l52.8-75.7L156,66.8z M118.4,177.3l-11.2-7.9l1.6-23.1
	l30.7,21.5L118.4,177.3z"/>
<path style="fill:#FFFFFF;" d="M191.6,60.6C203.2,68.7,209.2,80,205,86l-7.5,10.8l-41.8-29.3c0,0,3.4-4.8,7.5-10.8
	C167.4,50.8,180.1,52.5,191.6,60.6z"/>
</svg>
