<?xml version="1.0" encoding="utf-8"?>
<!-- Generator: Adobe Illustrator 18.0.0, SVG Export Plug-In . SVG Version: 6.00 Build 0)  -->
<!DOCTYPE svg PUBLIC "-//W3C//DTD SVG 1.1//EN" "http://www.w3.org/Graphics/SVG/1.1/DTD/svg11.dtd">
<svg version="1.1" id="Layer_1" xmlns="http://www.w3.org/2000/svg" xmlns:xlink="http://www.w3.org/1999/xlink" x="0px" y="0px"
	 viewBox="0 0 100 100" enable-background="new 0 0 100 100" xml:space="preserve">
<g>
	<path fill="#8C8C8C" d="M94.3,65.6L75.8,52.4c-0.4-0.3-0.9-0.3-1.3-0.1c-0.4,0.2-0.7,0.7-0.7,1.2l0,6.2H57.2
		c-0.7,0-1.4,0.5-1.4,1.2v11.4c0,0.7,0.7,1.2,1.4,1.2H74v6.3c0,0.5,0.2,0.9,0.6,1.1s0.9,0.2,1.2-0.1l18.4-13.2
		c0.3-0.2,0.5-0.6,0.5-1c0,0,0,0,0,0C94.8,66.2,94.6,65.8,94.3,65.6z"/>
	<path fill="#8C8C8C" d="M64.1,78.6h-6.5l0,0c-1,0-1.7,0.8-1.7,1.7h0v3H15.2V36.2h17.7c1,0,1.7-0.8,1.7-1.7V16.7h21.2v36.4h0
		c0,0.9,0.8,1.7,1.7,1.7h6.5c0.9,0,1.7-0.8,1.7-1.7h0v0v0c0,0,0,0,0,0V12.5h0v-4c0-1-0.8-1.7-1.7-1.7h-2.5l0,0H32.9l0,0h-1.7
		l-25.9,26v2.4v1v52.9v2.4c0,1,0.8,1.7,1.7,1.7h1.6h53.9h1.6c1,0,1.7-0.8,1.7-1.7v-2.4h0v-8.8v0C65.8,79.3,65,78.6,64.1,78.6z"/>
	<path fill="#8C8C8C" d="M21.5,61.9v9.2h2.8v-2.9h2.1c2.2,0,3.3-1.4,3.3-3.2c0-1.7-1.2-3.2-3.3-3.2C26.5,61.9,21.5,61.9,21.5,61.9z
		 M26.9,65c0,0.5-0.4,0.7-0.8,0.7h-1.8v-1.5h1.8C26.6,64.3,26.9,64.5,26.9,65z"/>
	<path fill="#8C8C8C" d="M31.2,61.9v9.2h4.1c2.9,0,5.1-1.7,5.1-4.6s-2.2-4.6-5.1-4.6H31.2z M37.6,66.5c0,1.2-0.8,2.2-2.2,2.2H34
		v-4.4h1.3C36.9,64.3,37.6,65.2,37.6,66.5z"/>
	<polygon fill="#8C8C8C" points="49.1,64.3 49.1,61.9 42.1,61.9 42.1,71.1 44.9,71.1 44.9,67.6 49,67.6 49,65.2 44.9,65.2 
		44.9,64.3 	"/>
</g>
</svg>
