<?xml version="1.0" encoding="utf-8"?>
<!-- Generator: Adobe Illustrator 19.1.0, SVG Export Plug-In . SVG Version: 6.00 Build 0)  -->
<svg version="1.1" id="Layer_1" xmlns="http://www.w3.org/2000/svg" xmlns:xlink="http://www.w3.org/1999/xlink" x="0px" y="0px"
	 viewBox="241.6 241.5 93.3 93.3" style="enable-background:new 241.6 241.5 93.3 93.3;" xml:space="preserve">
<path d="M241.6,241.5v93.3h93.3v-93.3L241.6,241.5L241.6,241.5z M279.2,284.4h-6.3c-1.6,0-2.9-1.3-2.9-2.9s1.3-2.9,2.9-2.9h6.3
	c1.5,0,2.9,1.3,2.9,2.9C282.1,283.2,280.8,284.4,279.2,284.4z M291.1,281.4l-3.2,22.6c-0.2,1.5-1.8,2.6-3.4,2.4
	c-1.5-0.2-2.6-1.8-2.4-3.3l3.2-22.6c0.3-1.6,1.8-2.7,3.3-2.5C290.2,278.3,291.3,279.8,291.1,281.4z M292.7,271.7
	c-0.3,1.8-2,2.9-3.7,2.6s-2.9-1.9-2.6-3.6c0.3-1.8,2-3,3.6-2.7C291.7,268.3,292.9,270,292.7,271.7z M292.4,255.9
	c-1.8,2.2-3.6,0.8-3.6,0.8c0-0.1-2-1.6-2.6-2c-1-0.5-2.2-0.8-3.4-0.9c-2.6-0.2-5.4,0.5-7.7,1.9c-2.3,1.4-3.9,3.6-4.2,6l-11.4,64.2
	c-0.3,1.5-1.8,2.6-3.3,2.3c-1.6-0.3-2.7-1.8-2.4-3.4l7.2-40.4c-1.6,0-3-1.3-3-2.9s1.4-2.9,3-2.9h1l3.2-17.9c0.7-4.1,3.2-7.8,7-10.1
	c4.5-2.6,11.2-3.7,16.1-1.4c1.4,0.6,2.9,1.6,4,2.7C292.2,251.9,294.2,253.7,292.4,255.9z M304.9,304.1c-0.2,1.5-1.8,2.6-3.4,2.4
	c-1.5-0.2-2.6-1.8-2.4-3.3l2.8-19.4h-1.3c-1.6,0-2.9-1.3-2.9-2.9s1.3-2.9,2.9-2.9h2.1l1-7.1c0.3-1.6,1.8-2.7,3.3-2.5
	c1.6,0.3,2.7,1.8,2.5,3.4l-0.9,6.2h4.3c1.5,0,2.9,1.3,2.9,2.9s-1.4,2.9-2.9,2.9h-5.2L304.9,304.1z M321.1,303.8
	c-0.3,1.8-2,2.9-3.7,2.6s-2.9-1.9-2.6-3.6c0.3-1.8,2-3,3.6-2.7C320.2,300.3,321.4,302,321.1,303.8z M322.8,291.6
	c-0.3,1.8-2,2.9-3.7,2.6s-2.9-1.9-2.6-3.6c0.3-1.8,2-3,3.6-2.7C321.9,288.2,323.1,289.9,322.8,291.6z"/>
</svg>
