<?xml version="1.0" encoding="utf-8"?>
<!-- Generator: Adobe Illustrator 19.2.0, SVG Export Plug-In . SVG Version: 6.00 Build 0)  -->
<svg version="1.1" id="Layer_1" xmlns="http://www.w3.org/2000/svg" xmlns:xlink="http://www.w3.org/1999/xlink" x="0px" y="0px"
	 viewBox="0 0 100 100" enable-background="new 0 0 100 100" xml:space="preserve">
<g>
	<path fill="#3CC0D6" d="M82.4,40.3c-0.9-10.5-7.2-20.3-15.9-26.1c-4.8-3.2-10.3-5.2-16-5.9c-15.7-2-32.2,4.9-38.2,20.3
		c-5.1,13.3-0.1,26.4,9,36.5c3.3,3.6,3.7,10.4,3.7,15v9.3c0,1.4,1.2,2.6,2.6,2.6h33.7c1.4,0,2.5-1.1,2.6-2.4
		c0.1-1.8,0.3-3.4,0.3-3.4c0.7-3,3.3-5.4,8.8-4.6c5.7,0.9,9.4-0.8,9.7-4.6c0.1-1.3,0.2-12,0.2-12c0.3-0.2,2.1-0.5,4.7-1.1
		c2-0.5,2.8-3,1.3-4.5c-6-5.9-6.8-8.7-6.9-9.2C81.2,47.2,82.7,43.4,82.4,40.3z M71.3,36.8c-0.8,1.1-1.8,1.3-2.3,1.3
		c-0.2,0-0.3,0.2-0.2,0.3c0.3,0.9,0.5,3.4-3.9,4.4c-4.2,0.9-6.7,4.2-8.4,5.8c-1.3,1.3-3,1.9-4.7,2.2c-1.7,0.4-3.5,0.7-4.9,2
		c-1.5,1.3-3.5,8.5-3.8,9.8c0,0.1-0.1,0.2-0.2,0.2h-2.1c-0.1,0-0.2-0.1-0.2-0.2l-1-4.9c0-0.2-10.1,0.6-10.9-3.9
		c0-0.2-0.2-0.3-0.3-0.2c-1,0.3-4.1,1.2-5.8-1.4c-1.2-1.8-0.9-3.6-0.7-4.2c0-0.1,0-0.3-0.1-0.3c-0.9-0.4-3.9-2.1-3.5-7.8
		c0.3-4.6,3.4-6.6,3-7.3c-1.3-2-0.2-5.4,2.4-6.2c0.1,0,0.2-0.1,0.2-0.2l0.1-1.2c0.4-4.2,5.9-6.9,9.7-5.1c0.1,0.1,0.3,0,0.4-0.2
		c0.5-1.5,1.4-1.9,1.7-2.1c1.2-0.7,2.7-0.6,3.9-0.1c0.1,0,0.2,0,0.3-0.1c0.3-0.4,1.8-1.5,4.1-1.5c2.4,0,3.6,1.2,4,1.5
		c0.1,0.1,0.2,0.1,0.3,0c0.5-0.3,2.5-1.2,4.5-0.5c1.5,0.5,2.3,1.9,2.6,2.4c0.1,0.1,0.2,0.2,0.3,0.1c0.7-0.2,3.1-0.6,5.2,0.3
		c2.2,1,2.8,2.4,3,2.9c0,0.1,0.1,0.2,0.2,0.2c0.5,0,1.8,0.1,2.6,0.8c1.4,1.2,1.3,2.1,1.1,2.5c0,0.1,0,0.3,0.1,0.3
		c0.6,0.3,2.5,1.4,3.6,3.6C72.8,33.1,72.2,35.7,71.3,36.8z"/>
</g>
</svg>
