<svg version="1" xmlns="http://www.w3.org/2000/svg" viewBox="0 0 50 50"><path fill="#7ED0D6" d="M46.974 20.894l.123-.326V6.18c0-1.348-.707-2.454-1.57-2.454l-9.41-.057-.778-1.472S32.096 1.15 25 1.15 14.47 2.17 14.47 2.17l-.694 1.5-9.303.056c-.862 0-1.57 1.106-1.57 2.454v30.753l44.07-16.04z"/><path fill="#A5DEE2" d="M39.993 3.693l-3.875-.023-.778-1.47S32.098 1.15 25 1.15 14.47 2.17 14.47 2.17l-.693 1.5-9.304.056c-.862 0-1.57 1.106-1.57 2.454v11.012l37.09-13.5z"/><path fill="#444" d="M48.25 6.18c0-2.023-1.196-3.608-2.716-3.608l-8.72-.053-.675-1.275-.446-.144C35.554 1.057 32.196 0 25 0c-7.182 0-10.713 1.022-10.86 1.066l-.5.147-.604 1.31-8.563.053c-1.527 0-2.723 1.585-2.723 3.608v40.215c0 2.023 1.196 3.608 2.723 3.608h31.953a1.153 1.153 0 1 0-.001-2.306l-31.91.007c-.13-.058-.46-.532-.46-1.31v-4.27h9.385a3.333 3.333 0 0 0 3.33-3.33V23.947a3.333 3.333 0 0 0-3.33-3.33H4.057V6.18c0-.777.33-1.25.424-1.3l8.48-.053C13.366 7.75 15.353 15.224 25 15.224c3.634 0 6.542-1.07 8.646-3.18 2.41-2.417 3.106-5.55 3.31-7.218l8.528.046c.13.057.46.53.46 1.308v14.387c0 .018.008.032.01.05h-8.217a4.384 4.384 0 0 0-4.38 4.38v12.746a4.386 4.386 0 0 0 4.38 4.38h1.16c.286 0 .532-.14.7-.344.2-.123.338-.33.338-.58V22.462h7.16c.51 0 .923-.413.923-.923 0-.086-.027-.164-.05-.243.168-.2.28-.448.28-.73V6.18zM14.926 23.947v14.846c0 .82-.666 1.485-1.485 1.485h-2.084V22.463h2.085c.82 0 1.486.666 1.486 1.484zm-4.954-1.484v17.815H4.056V22.463h5.916zM32.34 10.74c-1.746 1.75-4.215 2.638-7.34 2.638-8.64 0-10.033-6.848-10.257-9.052l.54-1.172c1.16-.26 4.387-.85 9.718-.85 5.37 0 8.48.616 9.556.877l.6 1.134C35.03 5.6 34.513 8.56 32.34 10.74zm6.213 29.538h-.815a2.537 2.537 0 0 1-2.534-2.534V24.997a2.537 2.537 0 0 1 2.534-2.534h.815v17.815z"/></svg>