<?xml version="1.0" encoding="utf-8"?>
<!-- Generator: Adobe Illustrator 19.1.0, SVG Export Plug-In . SVG Version: 6.00 Build 0)  -->
<svg version="1.1" id="Layer_1" xmlns="http://www.w3.org/2000/svg" xmlns:xlink="http://www.w3.org/1999/xlink" x="0px" y="0px"
	 viewBox="-194 351 221.5 91" style="enable-background:new -194 351 221.5 91;" xml:space="preserve">
<style type="text/css">
	.st0{fill:url(#SVGID_1_);}
	.st1{fill:url(#SVGID_2_);}
</style>
<g>
	
		<linearGradient id="SVGID_1_" gradientUnits="userSpaceOnUse" x1="-387.6308" y1="792.2483" x2="-387.5265" y2="792.144" gradientTransform="matrix(721.094 0 0 -482.937 279397.375 382973.0625)">
		<stop  offset="0" style="stop-color:#CBCED0"/>
		<stop  offset="1" style="stop-color:#84838B"/>
	</linearGradient>
	<path class="st0" d="M-83.2,417.4c-20.8,0-37.6-11.3-37.6-25.2c0-13.9,16.8-25.2,37.6-25.2c20.8,0,37.6,11.3,37.6,25.2
		C-45.6,406.1-62.5,417.4-83.2,417.4z M-77.5,376.9c-15.8,0-28.6,7.7-28.6,17.2s12.8,17.2,28.6,17.2c15.8,0,27.4-5.3,27.4-17.2
		C-50.1,382.2-61.7,376.9-77.5,376.9z"/>
	
		<linearGradient id="SVGID_2_" gradientUnits="userSpaceOnUse" x1="-388.0062" y1="792.4302" x2="-387.9019" y2="792.3259" gradientTransform="matrix(398 0 0 -406.124 154334 322210.2812)">
		<stop  offset="0" style="stop-color:#276DC3"/>
		<stop  offset="1" style="stop-color:#165CAA"/>
	</linearGradient>
	<path class="st1" d="M-63.6,406c0,0,2.3,0.7,3.6,1.4c0.5,0.2,1.3,0.7,1.8,1.3c0.6,0.6,0.8,1.2,0.8,1.2l9,15.1l-14.5,0l-6.8-12.7
		c0,0-1.4-2.4-2.2-3.1c-0.7-0.6-1-0.8-1.7-0.8c-0.5,0-3.4,0-3.4,0l0,16.6l-12.8,0v-42.3h25.8c0,0,11.7,0.2,11.7,11.4
		S-63.6,406-63.6,406z M-69.2,391.9l-7.8,0l0,7.2l7.8,0c0,0,3.6,0,3.6-3.7C-65.6,391.7-69.2,391.9-69.2,391.9z"/>
</g>
</svg>
