<?xml version="1.0" encoding="UTF-8"?>
<!DOCTYPE svg PUBLIC "-//W3C//DTD SVG 1.1//EN" "http://www.w3.org/Graphics/SVG/1.1/DTD/svg11.dtd">
<!-- Creator: CorelDRAW X7 -->
<svg xmlns="http://www.w3.org/2000/svg" xml:space="preserve" width="4315px" height="5515px" version="1.1" style="shape-rendering:geometricPrecision; text-rendering:geometricPrecision; image-rendering:optimizeQuality; fill-rule:evenodd; clip-rule:evenodd"
viewBox="0 0 431500 551500"
 xmlns:xlink="http://www.w3.org/1999/xlink">
 <defs>
  <style type="text/css">
   <![CDATA[
    .fil4 {fill:#215771}
    .fil3 {fill:#5C4E8C}
    .fil5 {fill:#F2C242}
    .fil6 {fill:#F9DF7E}
    .fil0 {fill:#5BAFB6;fill-opacity:0.639216}
    .fil1 {fill:#035A78;fill-opacity:0.678431}
    .fil2 {fill:#025776;fill-opacity:0.858824}
   ]]>
  </style>
 </defs>
 <g id="Слой_x0020_1">
  <metadata id="CorelCorpID_0Corel-Layer"/>
  <path class="fil0" d="M189785 224515c-11646,141919 39971,233745 154853,275480 -159680,89384 -323650,12796 -330454,-203862 60751,-71721 119285,-95593 175601,-71618z"/>
  <path class="fil1" d="M46184 167758c-14798,168224 61499,267814 228890,298771 -112553,-112381 -117509,-232028 -14868,-358941 -70282,-22138 -141623,-2081 -214022,60170z"/>
  <path class="fil2" d="M226744 15463c-132450,104763 -152453,228615 -60008,371555 4403,-158990 87976,-244755 250717,-257293 -32170,-66293 -95740,-104380 -190709,-114262z"/>
  <circle class="fil3" transform="matrix(0 5.95759 -5.95759 0 392548 469806)" r="4531"/>
  <circle class="fil4" transform="matrix(0 5.44245 -5.44245 0 315476 445277)" r="4531"/>
  <circle class="fil5" transform="matrix(0 3.90046 -3.90046 0 248086 387325)" r="4531"/>
  <circle class="fil6" transform="matrix(0 2.94801 -2.94801 0 221164 339031)" r="4531"/>
 </g>
</svg>
