<?xml version="1.0" encoding="utf-8"?>
<!-- Generator: Adobe Illustrator 18.1.0, SVG Export Plug-In . SVG Version: 6.00 Build 0)  -->
<svg version="1.1" id="Layer_1" xmlns="http://www.w3.org/2000/svg" xmlns:xlink="http://www.w3.org/1999/xlink" x="0px" y="0px"
	 viewBox="0 0 332.48 332.48" enable-background="new 0 0 332.48 332.48" xml:space="preserve">
<g>
	<path fill="#010101" d="M166.24,0C74.43,0,0,74.431,0,166.24c0,91.82,74.43,166.24,166.24,166.24
		c91.81,0,166.239-74.42,166.239-166.24C332.48,74.431,258.05,0,166.24,0z M278.84,278.841c-30.07,30.08-70.061,46.64-112.6,46.64
		c-42.53,0-82.52-16.56-112.601-46.64C23.56,248.771,7,208.78,7,166.24c0-42.529,16.56-82.52,46.64-112.6
		C83.72,23.561,123.71,7,166.24,7c42.539,0,82.529,16.561,112.6,46.641c30.08,30.08,46.64,70.07,46.64,112.6
		C325.48,208.78,308.92,248.771,278.84,278.841z"/>
	<path fill="#010101" d="M274.899,237.24c0,1.94-1.56,3.5-3.5,3.5H97.08v29c0,1.94-1.57,3.5-3.5,3.5c-1.931,0-3.5-1.56-3.5-3.5v-29
		h-29c-1.931,0-3.5-1.56-3.5-3.5c0-1.93,1.569-3.5,3.5-3.5h29V72.311c0-1.93,1.569-3.5,3.5-3.5c1.93,0,3.5,1.57,3.5,3.5v83.06
		l53.13,35.311c1.35-1.181,3.12-1.891,5.05-1.891c1.62,0,3.12,0.5,4.36,1.351l12.939-10.61c0.33-3.96,3.66-7.08,7.7-7.08
		c4.25,0,7.71,3.45,7.73,7.69l21.55,19.97c1.309-1.01,2.939-1.61,4.72-1.61c0.32,0,0.63,0.021,0.94,0.061l39.8-88.92
		c-0.92-1.28-1.471-2.84-1.471-4.54c0-4.26,3.471-7.73,7.73-7.73c4.26,0,7.73,3.471,7.73,7.73c0,4.27-3.471,7.74-7.73,7.74
		c-0.01,0-0.01,0-0.02,0l-40.171,89.739c0.591,1.091,0.921,2.33,0.921,3.65c0,4.26-3.471,7.73-7.73,7.73c-4.04,0-7.37-3.12-7.7-7.08
		l-21.939-20.32c-1.24,0.85-2.74,1.35-4.36,1.35c-1.82,0-3.5-0.64-4.82-1.689l-12.449,10.21v0.09c0,4.26-3.471,7.729-7.73,7.729
		c-3.981,0-7.28-3.029-7.69-6.909L97.08,163.78v69.96h174.319C273.34,233.74,274.899,235.311,274.899,237.24z"/>
</g>
</svg>
