<?xml version="1.0" encoding="utf-8"?>
<!-- Generator: Adobe Illustrator 18.0.0, SVG Export Plug-In . SVG Version: 6.00 Build 0)  -->
<!DOCTYPE svg PUBLIC "-//W3C//DTD SVG 1.1//EN" "http://www.w3.org/Graphics/SVG/1.1/DTD/svg11.dtd">
<svg version="1.1" id="Layer_1" xmlns="http://www.w3.org/2000/svg" xmlns:xlink="http://www.w3.org/1999/xlink" x="0px" y="0px"
	 viewBox="874.9 -16 80 80" enable-background="new 874.9 -16 80 80" xml:space="preserve">
<g>
	<path fill="#303030" d="M914.9-14c-21,0-38,17.1-38,38c0,21,17.1,38,38,38c21,0,38-17.1,38-38C952.9,3,935.8-14,914.9-14z
		 M914.9,60.5c-20.1,0-36.5-16.4-36.5-36.5c0-20.1,16.4-36.5,36.5-36.5S951.4,3.9,951.4,24C951.4,44.1,935,60.5,914.9,60.5z"/>
	<path fill="#303030" d="M906.3,13.3c0.5,0,0.8-0.4,0.8-0.8V7.6c0-0.5-0.4-0.8-0.8-0.8s-0.8,0.4-0.8,0.8v4.9
		C905.5,13,905.9,13.3,906.3,13.3z"/>
	<path fill="#303030" d="M923.4,13.3c0.5,0,0.8-0.4,0.8-0.8V7.6c0-0.5-0.4-0.8-0.8-0.8s-0.8,0.4-0.8,0.8v4.9
		C922.5,13,922.9,13.3,923.4,13.3z"/>
	<path fill="#303030" d="M931.6,9.4h-6.1V11h6.1c0.9,0,1.7,0.8,1.7,1.8v3.2h-36.9v-3.2c0-1,0.8-1.8,1.7-1.8h6.1V9.4h-6.1
		c-1.8,0-3.4,1.6-3.4,3.5v24.9c0,1.9,1.5,3.5,3.4,3.5h33.5c1.8,0,3.4-1.6,3.4-3.5V12.9C935,10.9,933.5,9.4,931.6,9.4z M931.6,39.5
		h-33.5c-0.9,0-1.7-0.8-1.7-1.8v-20h36.9v20C933.3,38.7,932.6,39.5,931.6,39.5z"/>
	<rect x="908.5" y="9.4" fill="#303030" width="12.7" height="1.7"/>
	<path fill="#303030" d="M925.8,21.9h-21.9c-0.5,0-0.8,0.4-0.8,0.8c0,0.5,0.4,0.8,0.8,0.8h21.9c0.5,0,0.8-0.4,0.8-0.8
		C926.7,22.3,926.3,21.9,925.8,21.9z"/>
	<path fill="#303030" d="M925.8,27.8h-21.9c-0.5,0-0.8,0.4-0.8,0.8s0.4,0.8,0.8,0.8h21.9c0.5,0,0.8-0.4,0.8-0.8
		S926.3,27.8,925.8,27.8z"/>
	<path fill="#303030" d="M925.8,33.7h-21.9c-0.5,0-0.8,0.4-0.8,0.8c0,0.5,0.4,0.8,0.8,0.8h21.9c0.5,0,0.8-0.4,0.8-0.8
		C926.7,34,926.3,33.7,925.8,33.7z"/>
</g>
</svg>
