<?xml version="1.0" encoding="UTF-8"?>
<!DOCTYPE svg PUBLIC "-//W3C//DTD SVG 1.1//EN" "http://www.w3.org/Graphics/SVG/1.1/DTD/svg11.dtd">
<!-- Creator: CorelDRAW X7 -->
<svg xmlns="http://www.w3.org/2000/svg" xml:space="preserve" width="51.317in" height="77.8659in" version="1.1" style="shape-rendering:geometricPrecision; text-rendering:geometricPrecision; image-rendering:optimizeQuality; fill-rule:evenodd; clip-rule:evenodd"
viewBox="0 0 32563 49410"
 xmlns:xlink="http://www.w3.org/1999/xlink">
 <defs>
  <style type="text/css">
   <![CDATA[
    .fil0 {fill:#CCCCCC}
    .fil1 {fill:orange}
   ]]>
  </style>
 </defs>
 <g id="Layer_x0020_1">
  <metadata id="CorelCorpID_0Corel-Layer"/>
  <g id="_665672370928">
   <path class="fil0" d="M27586 30655c-1529,787 -3811,1733 -6267,2773 -1517,-1030 -3168,-1894 -4754,-2706 2550,-1304 4923,-2480 6293,-4004 2931,-3259 -1144,-7702 -6271,-11048 1706,-1069 3501,-2009 5174,-2742 648,-283 1247,-545 1803,-789 8024,6497 13427,14097 4022,18516zm-11628 5140c-4552,2157 -8247,4486 -7197,6553 704,1384 3503,2265 6846,2870 -3054,483 -6398,769 -8956,1014 -611,-841 -935,-1880 -877,-3158 198,-4397 2562,-7201 5529,-9311 1525,645 3123,1328 4655,2032zm10056 10661c2306,223 3905,417 3946,704 63,435 -4573,1683 -9802,2105 2542,-407 4694,-1263 5856,-2809zm-17058 -34726c-5392,-2362 -6664,-2982 -8035,-4756 -881,-1139 -2727,-9136 3914,-6411 1988,815 6389,3104 11111,6131 -2153,1401 -4353,2947 -6407,4570 -196,154 -390,310 -583,466z"/>
   <path class="fil1" d="M4977 30655c5517,2840 20832,7745 18825,11693 -2007,3948 -21056,3810 -21200,4812 -144,1002 24658,6325 24187,-4086 -470,-10410 -13076,-11898 -17084,-16356 -4008,-4457 5085,-11128 12056,-14181 6971,-3052 8365,-3602 9881,-5563 881,-1139 2727,-9136 -3915,-6411 -2974,1220 -11349,5738 -18123,11091 -8351,6601 -14267,14472 -4627,19001z"/>
  </g>
 </g>
</svg>
