<svg version="1" xmlns="http://www.w3.org/2000/svg" viewBox="0 0 50 50"><path fill="#00DFFC" d="M9.177 18.84v18.883l31.647-11.52V18.84c0-.96-.777-1.737-1.736-1.737h-6.354l7.523-7.57a.264.264 0 0 0 .03-.336l-5.324-7.692a.264.264 0 0 0-.217-.114h-19.49a.264.264 0 0 0-.217.115L9.713 9.197a.262.262 0 0 0 .03.335l7.524 7.57h-6.355a1.733 1.733 0 0 0-1.736 1.737z"/><path fill="#4DE9FD" d="M13.873 14.182l23.462-8.54-2.864-4.137a.264.264 0 0 0-.216-.114h-19.49a.264.264 0 0 0-.217.115L9.223 9.197a.262.262 0 0 0 .03.335l4.62 4.65z"/><g fill="#444"><path d="M39.087 15.927H35.56l5.53-5.565a1.44 1.44 0 0 0 .162-1.835L35.93.837a1.442 1.442 0 0 0-1.185-.622H25.09L25 .073l-.09.142h-9.655c-.47 0-.913.23-1.184.62l-5.32 7.69c-.4.57-.33 1.344.16 1.836l5.53 5.567h-3.527A2.917 2.917 0 0 0 8 18.84v28.175a2.916 2.916 0 0 0 2.912 2.912h24.913a1.177 1.177 0 0 0 0-2.354H10.912a.56.56 0 0 1-.56-.56V18.84c0-.313.247-.56.56-.56h5.866l4.746 4.777v4.083a6.753 6.753 0 0 0-3.353 5.865c0 3.77 3.062 6.837 6.824 6.837s6.823-3.067 6.823-6.837c0-2.44-1.273-4.628-3.343-5.863v-4.084l4.747-4.777h5.866c.32 0 .56.24.56.56v14.247a1.177 1.177 0 0 0 2.354 0V18.84a2.917 2.917 0 0 0-2.913-2.913zm-7.188.347l-3.482 3.504 3.738-7.28 4.903-1.417-5.158 5.19-.003.004zm-13.8-.003l-5.16-5.19 4.905 1.418 3.74 7.28-3.485-3.505v-.002zm13.88-5.19L26.58 2.567h7.685l4.528 6.54-6.816 1.97zM25 23.215l-.13-.132-5.392-10.498 11.034.022-5.38 10.476-.132.132zM11.206 9.11l4.527-6.542h7.685l-5.397 8.51-6.814-1.97zM25 2.71l5.383 8.49H19.618L25 2.71zm4.936 30.294c0 2.732-2.216 4.954-4.94 4.954s-4.942-2.223-4.942-4.954a4.9 4.9 0 0 1 1.47-3.516v1.903c0 1.917 1.56 3.476 3.475 3.476s3.474-1.56 3.474-3.475V29.5a4.913 4.913 0 0 1 1.462 3.504zm-3.343-1.613c0 .88-.715 1.594-1.593 1.594s-1.593-.714-1.593-1.593v-6.44l.68.685c.242.245.565.38.91.38l.57-.03 1.025-1.033v6.44z"/><circle cx="35.824" cy="41.572" r="2.671"/></g></svg>