<?xml version="1.0" encoding="utf-8"?>
<!-- Generator: Adobe Illustrator 18.0.0, SVG Export Plug-In . SVG Version: 6.00 Build 0)  -->
<!DOCTYPE svg PUBLIC "-//W3C//DTD SVG 1.1//EN" "http://www.w3.org/Graphics/SVG/1.1/DTD/svg11.dtd">
<svg version="1.1" xmlns="http://www.w3.org/2000/svg" xmlns:xlink="http://www.w3.org/1999/xlink" x="0px" y="0px"
	 viewBox="0 0 16 16" enable-background="new 0 0 16 16" xml:space="preserve">
<g id="Layer_1" display="none">
	<circle display="inline" fill="#EF1446" cx="0.968" cy="10.662" r="0.63"/>
	<circle display="inline" fill="#EF1446" cx="1.496" cy="8.025" r="0.63"/>
	<circle display="inline" fill="#EF1446" cx="3.004" cy="5.788" r="0.63"/>
	<circle display="inline" fill="#EF1446" cx="5.251" cy="4.322" r="0.63"/>
	<circle display="inline" fill="#EF1446" cx="7.878" cy="3.794" r="0.63"/>
	<circle display="inline" fill="#EF1446" cx="10.526" cy="4.322" r="0.63"/>
	<circle display="inline" fill="#EF1446" cx="12.773" cy="5.788" r="0.63"/>
	<circle display="inline" fill="#EF1446" cx="14.271" cy="8.025" r="0.63"/>
	<circle display="inline" fill="#EF1446" cx="14.809" cy="10.669" r="0.63"/>
</g>
<g id="Layer_2">
	<g id="Layer_19_1_">
		<g id="Layer_2_3_">
			<g>
				<path fill="#424242" d="M11.501,15.989l-1.997-3.545c-0.849-1.348-1.348-2.197-1.847-3.196l0,0
					c-0.499,0.849-0.849,1.847-1.698,3.196l-1.847,3.545H1.765L6.658,7.9L1.914,0.011h2.347l1.997,3.695
					c0.649,0.999,0.999,1.847,1.498,2.696l0,0c0.499-0.999,0.849-1.698,1.498-2.696l2.197-3.695h2.347L8.905,7.75l5.033,8.239
					h-2.357H11.501z"/>
			</g>
			<g>
				<g>
					<g>
						<defs>
							<rect id="SVGID_1_" x="-245.2" y="-198.053" width="499.688" height="408.125"/>
						</defs>
						<clipPath id="SVGID_2_">
							<use xlink:href="#SVGID_1_"  overflow="visible"/>
						</clipPath>
					</g>
				</g>
			</g>
		</g>
	</g>
</g>
</svg>
