<?xml version="1.0" encoding="utf-8"?>
<!-- Generator: Adobe Illustrator 20.0.0, SVG Export Plug-In . SVG Version: 6.00 Build 0)  -->
<svg version="1.1" id="Layer_1" xmlns="http://www.w3.org/2000/svg" xmlns:xlink="http://www.w3.org/1999/xlink" x="0px" y="0px"
	 viewBox="0 0 407 516" style="enable-background:new 0 0 407 516;" xml:space="preserve">
<style type="text/css">
	.st0{fill:#EA1C2D;}
	.st1{fill:#D19E2A;}
	.st2{fill:#2C9947;}
	.st3{fill:#C22033;}
	.st4{fill:#EE402A;}
	.st5{fill:#F26E24;}
	.st6{fill:#D0D2D3;}
	.st7{fill:#00ACD7;}
	.st8{fill:#FCB614;}
	.st9{fill:#8E1837;}
	.st10{fill:#DF1A82;}
	.st11{fill:#F89C25;}
	.st12{fill:#CC8B2A;}
	.st13{fill:#48773C;}
	.st14{fill:#007DBA;}
	.st15{fill:#3EAD49;}
	.st16{fill:#005589;}
	.st17{fill:#1B3668;}
</style>
<rect x="5" y="6" class="st0" width="72" height="72"/>
<rect x="113" y="6" class="st1" width="72" height="72"/>
<rect x="221" y="6" class="st2" width="72" height="72"/>
<rect x="329" y="6" class="st3" width="72" height="72"/>
<rect x="5" y="114" class="st4" width="72" height="72"/>
<rect x="5" y="222" class="st5" width="72" height="72"/>
<rect x="3" y="330" class="st6" width="72" height="72"/>
<rect x="3" y="438" class="st6" width="72" height="72"/>
<rect x="111" y="438" class="st6" width="72" height="72"/>
<rect x="113" y="114" class="st7" width="72" height="72"/>
<rect x="221" y="114" class="st8" width="72" height="72"/>
<rect x="329" y="114" class="st9" width="72" height="72"/>
<rect x="113" y="222" class="st10" width="72" height="72"/>
<rect x="221" y="222" class="st11" width="72" height="72"/>
<rect x="329" y="222" class="st12" width="72" height="72"/>
<rect x="113" y="330" class="st13" width="72" height="72"/>
<rect x="221" y="330" class="st14" width="72" height="72"/>
<rect x="329" y="330" class="st15" width="72" height="72"/>
<rect x="221" y="438" class="st16" width="72" height="72"/>
<rect x="329" y="438" class="st17" width="72" height="72"/>
</svg>
