<?xml version="1.0"?><svg width="5000" height="5000" xmlns="http://www.w3.org/2000/svg">
 <title>super hero</title>
 <metadata id="metadata7">image/svg+xml</metadata>
 <g>
  <title>Layer 1</title>
  <g id="layer1">
   <g id="g3182">
    <path fill="#ff0000" fill-rule="evenodd" stroke="#ffffff" stroke-width="10" marker-start="none" marker-mid="none" marker-end="none" stroke-miterlimit="4" stroke-dashoffset="0" d="m3323.55249,1080.074463c-678.206543,-354.410767 -1533.139526,-171.34436 -2192.757568,278.294922c-355.262756,242.170776 -800.080811,408.824463 -1051.755005,756.28125c-292.696594,404.091309 334.579834,396.549072 613.304688,286.987061c495.299683,-194.693848 268.24231,656.6521 679.803955,634.704102c472.230835,-25.182617 710.967651,17.260498 1042.630737,-384.008545c280.136719,-338.928711 853.545654,-183.178223 1059.054932,-651.991943c73.181885,-177.775146 143.292969,-364.680786 266.671631,-513.886108" id="path2405"/>
    <path fill="#0000ff" fill-rule="evenodd" stroke="#ffffff" stroke-width="10" marker-start="none" marker-mid="none" marker-end="none" stroke-miterlimit="4" stroke-dashoffset="0" d="m2558.80957,908.714783c-437.700195,54.868896 -1627.04187,536.772156 -1199.964844,892.840393c427.07666,356.067871 1479.812744,-690.923828 1224.899414,-239.141968c-274.628174,486.723267 -1747.326477,849.688843 -1020.577026,1502.403198c355.101563,318.926758 1234.215454,-1387.196533 1112.514282,-211.598145c-90.961426,878.665039 933.239746,313.213623 762.585205,-382.993164c-188.916748,-770.712402 895.78418,-1100.86438 1381.396484,-1598.506165c538.722656,-552.068542 -308.571777,-898.473789 -593.427734,-275.83374c-146.13623,319.424377 -635.535156,219.703186 -962.13208,268.748657" id="path2398"/>
    <path fill="#969696" stroke="#ffffff" stroke-width="10" stroke-miterlimit="4" stroke-dashoffset="0" id="path2396" d="m3704.911621,622.189026a661.212769,617.131958 0 1 1-1322.425537,0a661.212769,617.131958 0 1 11322.425537,0z"/>
   </g>
  </g>
 </g>
</svg>