<?xml version="1.0" encoding="utf-8"?>
<!-- Generator: Adobe Illustrator 18.0.0, SVG Export Plug-In . SVG Version: 6.00 Build 0)  -->
<!DOCTYPE svg PUBLIC "-//W3C//DTD SVG 1.1//EN" "http://www.w3.org/Graphics/SVG/1.1/DTD/svg11.dtd">
<svg version="1.1" id="Layer_1" xmlns="http://www.w3.org/2000/svg" xmlns:xlink="http://www.w3.org/1999/xlink" x="0px" y="0px"
	 viewBox="288.7 538.6 612.3 242.9" enable-background="new 288.7 538.6 612.3 242.9" xml:space="preserve">
<g>
	<polygon fill="#A51C30" points="288.7,538.6 288.7,781.4 901,781.4 901,538.6 	"/>
	<path fill="#FFFFFF" d="M437.9,717V599H413l0.6,70.5L375.5,599h-24.9v118h24.9l-0.6-70.5L413,717H437.9L437.9,717z M447.9,615.6
		c0,8.6,6.6,14.9,14.9,14.9c8.3,0,14.9-6.6,14.9-14.9c0-8.3-6.6-14.9-14.9-14.9C454.5,600.4,447.9,607,447.9,615.6L447.9,615.6z
		 M475.4,717v-78.5h-24.9V717H475.4L475.4,717z M556.2,685.8c2-24.6-0.3-49.8-34.1-49.8c-24.3,0-36.7,13.2-36.7,41.5
		c0,28.4,12.6,41.5,38.4,41.5c9.5,0,20.3-1.7,29.5-5.4v-19.8c-5.7,2.9-14.3,5.2-26.3,5.2c-12.3,0-17.5-2.9-16.9-13.2H556.2
		L556.2,685.8z M522.7,654.8c9.5,0,11.5,6.9,10,15.5h-22.3C510.4,660.6,514.1,654.8,522.7,654.8L522.7,654.8z M679,717v-54.4
		c0-14-5.7-26.3-26.3-26.3c-9.5,0-19.8,2.3-25.5,6.3c-2.6-3.7-7.7-6.3-18.3-6.3c-8.3,0-18.9,2.9-24.6,7.7l-3.2-5.7h-15.2v78.5h25.2
		v-56.1c1.7-1.4,6.3-4,11.7-4c4.9,0,7.2,2.3,7.2,6.3V717h25.2v-56.1c1.7-1.4,6.3-4,11.7-4c4.9,0,7.2,2.3,7.2,6.3v54.1L679,717
		L679,717z M730.9,666.9l-14.3,1.4c-14,1.4-29.8,4.6-29.8,25.8c0,11.7,6.9,24.9,26.6,24.9c9.5,0,17.5-3.2,23.2-8.3l3.4,6h15.2v-51
		c0-17.5-5.4-29.8-33.5-29.8c-11.2,0-22.9,2.9-28.4,5.2v21.2c6.9-2.9,18.3-6,28.4-6c6.9,0,9.2,2,9.2,5.4V666.9L730.9,666.9z
		 M730.9,680.6v17.5c-2.6,2.6-6.9,3.7-11.5,3.7c-5.4,0-9.2-3.4-9.2-9.2c0-6,2.9-9.7,10-10.6L730.9,680.6L730.9,680.6z M766.7,638.2
		v78.5h25.2v-56.1c2.3-1.4,7.7-4,14-4c6.9,0,8.9,4,8.9,9.7V717H840v-54.4c0-15.2-6-26.3-27.5-26.3c-8.6,0-18.6,2.6-27.5,7.7
		l-3.2-5.7H766.7L766.7,638.2z"/>
</g>
</svg>
