<?xml version="1.0" encoding="utf-8"?>
<!-- Generator: Adobe Illustrator 19.2.1, SVG Export Plug-In . SVG Version: 6.00 Build 0)  -->
<svg version="1.1" id="Layer_1" xmlns="http://www.w3.org/2000/svg" xmlns:xlink="http://www.w3.org/1999/xlink" x="0px" y="0px"
	 viewBox="0 0 122 35" style="enable-background:new 0 0 122 35;" xml:space="preserve">
<style type="text/css">
	.st0{fill:#FFFFFF;}
	.st1{fill:#4D6172;}
</style>
<g>
	<g id="XMLID_5_">
		<path id="XMLID_6_" class="st0" d="M12,15.9c-0.9-1.1-2.8-1.6-4.2-1.6c-1.1,0-1.9,0.4-1.9,1.2c0,2.6,9,0.5,9,6.2
			c0,4-3.6,5.5-6.9,5.5s-5.2-0.9-7.5-3l2.8-2.4C4.7,23.1,6.1,24,8.1,24c0.7,0,2.4-0.2,2.4-1.6c0-2.4-9-0.5-9-5.9
			c0-4,3.4-5.5,6.5-5.5c2.4,0,4.7,0.8,6.7,2.2L12,15.9z"/>
		<path id="XMLID_8_" class="st0" d="M24.7,14.5H22V22c0,1.2,0.6,1.5,1.4,1.5c0.5,0,1.1-0.1,1.3-0.1v3.5c-0.6,0.1-1.9,0.2-2.9,0.2
			c-3.8,0-4.4-2.4-4.4-4.6v-8h-2.2v-2.8h2.2V7.3H22v4.4h2.7V14.5z"/>
		<path id="XMLID_10_" class="st0" d="M39.9,26.7h-4.5v-1.3c-1.1,1.3-3,1.8-4.4,1.8c-3.6,0-4.6-2.1-4.6-4.4V11.4h4.5v10
			c0,1.3,0.5,2.1,2.2,2.1c1.3,0,2.4-0.7,2.4-2.4v-9.7H40v15.3H39.9z"/>
		<path id="XMLID_12_" class="st0" d="M56,26.7h-4.3v-1.5h-0.1c-0.7,0.9-2.1,1.9-4.1,1.9c-3.7,0-6.6-2.4-6.7-7.9
			c-0.1-6.1,3.4-8.2,6.5-8.2c1.2,0,2.9,0.2,4.2,1.6V6.2H56V26.7z M48.4,14.3c-2.1,0-3.1,1.8-3.1,4.8c0,2.5,0.6,4.8,3.1,4.8
			c2.3,0,3.1-2.2,3.1-5.1C51.5,16,50.7,14.3,48.4,14.3z"/>
		<path id="XMLID_15_" class="st0" d="M58,9.7V6.2h4.5v3.4L58,9.7L58,9.7z M62.5,11.4v15.3H58V11.4H62.5z"/>
		<path id="XMLID_18_" class="st0" d="M80.8,19c0,5.1-3.4,8-8.1,8c-4.8,0-8.1-2.9-8.1-8s3.4-8,8.1-8S80.8,13.9,80.8,19z M69,19
			c0,2.6,1.1,4.6,3.6,4.6c2.6,0,3.6-2,3.6-4.8c0-2.4-1.1-4.4-3.6-4.4C70.1,14.5,69,16.4,69,19z"/>
	</g>
	<rect x="87.1" y="0.3" class="st0" width="34.4" height="34.4"/>
	<g id="XMLID_1_">
		<path id="XMLID_2_" class="st1" d="M101.9,6.2h4.5l6.8,20.4h-4l-1.2-4h-7.8l-1.2,4h-4L101.9,6.2z M104.2,10L104.2,10l-2.9,9.4h5.7
			L104.2,10z"/>
	</g>
</g>
</svg>
