<svg id="Icones" xmlns="http://www.w3.org/2000/svg" viewBox="0 0 85 85"><style>.st0{fill:#D64B57;} .st1{fill:#FFFFFF;} .st2{fill:#412545;} .st3{fill:#97C241;} .st4{fill:#2B3E4F;} .st5{fill-rule:evenodd;clip-rule:evenodd;fill:#2B3E4F;} .st6{fill:#3B92D0;} .st7{fill-rule:evenodd;clip-rule:evenodd;fill:#3993D0;} .st8{fill:#EE8040;} .st9{fill-rule:evenodd;clip-rule:evenodd;fill:#ED803F;} .st10{fill:#1C817D;} .st11{fill-rule:evenodd;clip-rule:evenodd;fill:#1F807C;} .st12{fill:#607087;} .st13{fill-rule:evenodd;clip-rule:evenodd;fill:#5F6F85;} .st14{fill:#8B172D;} .st15{fill-rule:evenodd;clip-rule:evenodd;fill:#8B172D;} .st16{fill:#F2A304;} .st17{fill-rule:evenodd;clip-rule:evenodd;fill:#F2A100;} .st18{fill:#584F1B;} .st19{fill-rule:evenodd;clip-rule:evenodd;fill:#584F1B;} .st20{fill:#7A4D4F;}</style><path class="st2" d="M42.5 85C19.1 85 0 65.9 0 42.5S19.1 0 42.5 0 85 19.1 85 42.5 65.9 85 42.5 85zm0-80.2C21.7 4.8 4.8 21.7 4.8 42.5s16.9 37.7 37.7 37.7 37.7-16.9 37.7-37.7S63.3 4.8 42.5 4.8z"/><path class="st2" d="M64.1 47.3c-1.8-.8-3.9 0-4.6 1.3-1.5-2.3-1.7-4.7-4.2-5.9-1.9-.9-4.2-1-5.5.3-1.6 1.6-1.8 3.8-2.3 5.9-.3-.7-1.2-1.5-.9-2.2.4-1.1.8-2.2 1.3-3.3.4-1.1 1-2.2 1.8-3 .7-.7 1.4-.4 2.4-.4 1.9 0 4.7-.8 3.8-3.3-.9-2.3-3.4-2.3-4.9-3.8-.3-.3-.3-.9.2-.9.9 0 1.9.5 2.8.9 1.8.9 4.6 1.6 6.4.1 1.7-1.5 1-3.7-.7-4.9-1.8-1.3-6.2-1.7-5.9-4 .1-.9 2.2-.8 3-.8 1.3 0 2.4.1 3.7.1 1.8.1 3.6-.5 3.3-1.6-.2-.5-1.3-.8-1.8-.9-.6-.1-7.7-1.8-10.5 1.2-3.7 3.9 4.5 7 6.6 8.8-3 .5-5.6-3.3-8.8-1.3-1.4.9-1.9 3-1.3 4.5.7 1.6 2.3 2.2 3.7 2.9-2.8-.1-4.4 1.3-5.7 3.7-.6 1.2-1.1 2.5-1.6 3.7-.2.7-.2 1.3-.9 1.1-.3-.1-.6-.2-.8-.2.6-.9 2.5-7.7-.4-7.3-1.7.2-1.3 3-2.9 3.3-1 .2-2.2-2.4-2.7-3.1 2.5.6 3.9 0 5.3-2.1 2-2.9 2.6-6.9 1.4-10.2-2-5.7-10.1-8.8-15.6-6.5-3.5 1.5-6.2 5.1-7.2 8.7-.7 2.7 0 5.2 1.4 7.6.8 1.4 1.3 2.2 1.3 3.8 0 2.1-.6 2.8-.4 4.9.3 4 1.5 7.4 3.2 11.1 2.1 4.7 6.8 9 11.7 10.3 4.5 1.1 10.4 1.8 14.1-1.6 1.5-1.4 3.1-3.6 3.4-5.7.3-1.7.2-3.5 0-5.3 2.4 1.1 6 2.6 7.6-.5.3-1.4 3.5-4.4 1.2-5.4z"/></svg>