<svg id="Layer_1" data-name="Layer 1" xmlns="http://www.w3.org/2000/svg" viewBox="0 0 349.32 349.32"><defs><style>.cls-1{fill:#0080c9;}.cls-2{fill:#fff;}.cls-3{fill:#00538c;}</style></defs><title>scicasts-insights</title><g id="Insights"><g id="Insights_BG" data-name="Insights BG"><rect class="cls-1" width="349.32" height="349.32"/></g><g id="Insights_Icon" data-name="Insights Icon"><path class="cls-2" d="M46.58,17A28.91,28.91,0,0,0,17.71,45.84C17.71,58.53,36,86.69,43.49,97.6a3.74,3.74,0,0,0,6.17,0c7.45-10.91,25.79-39.07,25.79-51.76A28.87,28.87,0,0,0,46.58,17ZM24.77,45.84A21.82,21.82,0,1,1,46.58,67.66,21.84,21.84,0,0,1,24.77,45.84Z" transform="translate(0 0)"/><circle class="cls-2" cx="46.58" cy="45.84" r="12.9"/></g><g id="SciProfile"><polygon class="cls-3" points="349.32 349.32 0 349.32 0 174.79 174.79 0 349.32 0 349.32 349.32"/><path class="cls-2" d="M191.79,230.41s-10.38,16.91-10.38,37,13,38,13,38q-0.84.8-1.73,1.58-18.65,16.52-45.5,16.51-20.85,0-44.9-11.34V270.46q21.53,18.17,40.67,18.18a25.51,25.51,0,0,0,16.72-5.7q7-5.7,7-13.82a16.21,16.21,0,0,0-5-11.63q-5.11-5.09-19-11.38-19.65-8.71-29.93-19.5T102.28,199.2q0-21.09,16.29-35.59t43.14-14.49q18.42,0,38.32,9v40.37q-17.62-15.38-33.78-15.39a22.64,22.64,0,0,0-13.89,4.37q-5.87,4.37-5.87,10.54a13.57,13.57,0,0,0,4.83,10.43q4.68,4.36,17.31,9.59c9.16,3.83,23.17,12.41,23.17,12.41h0Zm0,0" transform="translate(0 0)"/><path class="cls-2" d="M296.53,166.67a20.37,20.37,0,0,1,13.76,5.42,17.85,17.85,0,0,1,6.18,14.08A18.45,18.45,0,0,1,310.58,200a19.58,19.58,0,0,1-14.06,5.66,19.16,19.16,0,0,1-14.18-5.83,18.9,18.9,0,0,1-5.77-13.79,18.24,18.24,0,0,1,6-13.73A19.66,19.66,0,0,1,296.53,166.67ZM277.2,213.81h38.86V317.57H277.2V213.81Z" transform="translate(0 0)"/><path class="cls-2" d="M267.36,313.7Q254.76,320,242.65,320a47.22,47.22,0,0,1-35.91-15.65q-14.62-15.65-14.62-38.55t15-38.65q15-15.87,37.49-15.87,9.9,0,22.76,4.37v31.38q-8-5.15-14.27-5.16A19.88,19.88,0,0,0,238,248.51q-6.15,6.59-6.15,16.69a24.33,24.33,0,0,0,6.21,17q6.21,6.87,14.58,6.87,7.25,0,14.76-5.82V313.7Z" transform="translate(0 0)"/></g></g></svg>