<?xml version="1.0" encoding="utf-8"?>
<!-- Generator: Adobe Illustrator 19.2.0, SVG Export Plug-In . SVG Version: 6.00 Build 0)  -->
<svg version="1.1" xmlns="http://www.w3.org/2000/svg" xmlns:xlink="http://www.w3.org/1999/xlink" x="0px" y="0px"
	 viewBox="0 0 32.4 32.4" style="enable-background:new 0 0 32.4 32.4;" xml:space="preserve">
<style type="text/css">
	.st0{fill:none;stroke:#787878;stroke-width:2;stroke-linecap:round;stroke-linejoin:round;stroke-miterlimit:10;}
	.st1{fill:#787878;}
	.st2{fill:#787878;stroke:#787878;stroke-width:2;stroke-linecap:round;stroke-linejoin:round;stroke-miterlimit:10;}
	.st3{fill:none;stroke:#FFFFFF;stroke-width:2;stroke-linecap:round;stroke-linejoin:round;stroke-miterlimit:10;}
</style>
<g id="Layer_1">
</g>
<g id="Layer_3">
	<g>
		<path class="st1" d="M25.7,32.4c-0.5,0-0.9-0.4-0.9-0.9V0.9c0-0.5,0.4-0.9,0.9-0.9c0.5,0,0.9,0.4,0.9,0.9v30.7
			C26.6,32,26.2,32.4,25.7,32.4z"/>
	</g>
	<g>
		<path class="st1" d="M7.9,32.4c-0.2,0-0.3,0-0.5-0.1c-0.4-0.3-0.5-0.8-0.3-1.2L24.9,2.8c0.3-0.4,0.8-0.5,1.2-0.3
			c0.4,0.3,0.5,0.8,0.3,1.2L8.7,32C8.5,32.3,8.2,32.4,7.9,32.4z"/>
	</g>
	<g>
		<path class="st1" d="M25.7,14.4c-0.2,0-0.4-0.1-0.5-0.2l-4.1-3.3c-0.4-0.3-0.4-0.8-0.1-1.2c0.3-0.4,0.9-0.4,1.2-0.1l4.1,3.3
			c0.4,0.3,0.4,0.8,0.1,1.2C26.2,14.3,25.9,14.4,25.7,14.4z"/>
	</g>
	<g>
		<path class="st1" d="M25.3,25.3c-0.2,0-0.4-0.1-0.5-0.2l-8.5-6.9c-0.4-0.3-0.4-0.8-0.1-1.2c0.3-0.4,0.9-0.4,1.2-0.1l8.5,6.9
			c0.4,0.3,0.4,0.8,0.1,1.2C25.8,25.2,25.5,25.3,25.3,25.3z"/>
	</g>
	<g>
		<path class="st1" d="M25.7,16.6h-7.5c-0.5,0-0.9-0.4-0.9-0.9s0.4-0.9,0.9-0.9h7.5c0.5,0,0.9,0.4,0.9,0.9S26.2,16.6,25.7,16.6z"/>
	</g>
	<g>
		<path class="st1" d="M25.7,27.7H11.2c-0.5,0-0.9-0.4-0.9-0.9c0-0.5,0.4-0.9,0.9-0.9h14.5c0.5,0,0.9,0.4,0.9,0.9
			C26.6,27.4,26.2,27.7,25.7,27.7z"/>
	</g>
	<g>
		<path class="st1" d="M27.5,6.5h-8.3c-0.6,0-1.1-0.5-1.1-1.1V4.1c0-0.6,0.5-1.1,1.1-1.1h8.3c0.6,0,1.1,0.5,1.1,1.1v1.4
			C28.6,6.1,28.1,6.5,27.5,6.5z"/>
	</g>
</g>
<g id="Layer_6">
</g>
<g id="Layer_2">
</g>
<g id="Layer_4">
</g>
<g id="Layer_5">
</g>
</svg>
