<?xml version="1.0" encoding="utf-8"?>
<!-- Generator: Adobe Illustrator 17.1.0, SVG Export Plug-In . SVG Version: 6.00 Build 0)  -->
<!DOCTYPE svg PUBLIC "-//W3C//DTD SVG 1.1//EN" "http://www.w3.org/Graphics/SVG/1.1/DTD/svg11.dtd">
<svg version="1.1" id="Layer_1" xmlns="http://www.w3.org/2000/svg" xmlns:xlink="http://www.w3.org/1999/xlink" x="0px" y="0px"
	 viewBox="0 0 431.523 503" enable-background="new 0 0 431.523 503" xml:space="preserve">
<g>
	<path fill="none" d="M382.883,28.736H48.64v335.565h334.244V28.736z M349.634,350.093H79.862v-18.266
		c0-27.311,18.869-52.445,44.237-58.299c8.222-1.896,32.563-8.826,32.563-8.826c12.783-2.442,22.119-8.973,22.119-22.629v-1.043
		c0-3.743-0.022-7.371-0.198-10.889c-6.899-9.973-11.833-22.928-17.009-36.79c-12.042-7.588-19.462-17.717-19.462-28.891
		c0-5.56,1.86-10.862,5.192-15.736v-22.857c0-37.572,30.193-68.028,67.443-68.028c37.25,0,67.443,30.456,67.443,68.028v22.863
		c3.326,4.877,5.187,10.17,5.187,15.73c0,11.175-7.41,21.304-19.446,28.891c-5.176,13.864-10.115,26.823-17.015,36.795
		c-0.181,3.516-0.203,7.143-0.203,10.884v1.043c0,13.655,9.331,20.187,22.124,22.629c0,0,24.342,6.93,32.558,8.826
		c25.374,5.856,44.238,30.988,44.238,58.299V350.093z"/>
	<path fill="#D1D1D1" d="M19.904,0v372.357v20.679v63.562h391.716v-63.562v-20.679V0H19.904z M48.64,28.736h334.244v335.565H48.64
		V28.736z"/>
	<path fill="#E51F32" d="M305.397,273.528c-8.216-1.896-32.558-8.826-32.558-8.826c-12.793-2.442-22.124-8.973-22.124-22.629v-1.043
		c0-3.74,0.022-7.368,0.203-10.884c6.899-9.973,11.839-22.931,17.015-36.795c12.036-7.588,19.446-17.717,19.446-28.891
		c0-5.56-1.861-10.853-5.187-15.73v-22.863c0-37.572-30.193-68.028-67.443-68.028c-37.25,0-67.443,30.456-67.443,68.028v22.857
		c-3.332,4.874-5.192,10.175-5.192,15.736c0,11.175,7.42,21.304,19.462,28.891c5.176,13.861,10.11,26.817,17.009,36.79
		c0.176,3.518,0.198,7.146,0.198,10.889v1.043c0,13.655-9.336,20.187-22.119,22.629c0,0-24.341,6.93-32.563,8.826
		c-25.368,5.854-44.237,30.988-44.237,58.299v18.266h269.772v-18.266C349.634,304.516,330.771,279.384,305.397,273.528z"/>
</g>
</svg>
