<?xml version="1.0" encoding="utf-8"?>
<!-- Generator: Adobe Illustrator 18.0.0, SVG Export Plug-In . SVG Version: 6.00 Build 0)  -->
<!DOCTYPE svg PUBLIC "-//W3C//DTD SVG 1.1//EN" "http://www.w3.org/Graphics/SVG/1.1/DTD/svg11.dtd">
<svg version="1.1" id="Layer_1" xmlns="http://www.w3.org/2000/svg" xmlns:xlink="http://www.w3.org/1999/xlink" x="0px" y="0px"
	 viewBox="0 0 56.7 56.7" enable-background="new 0 0 56.7 56.7" xml:space="preserve">
<g>
	<path fill="#FDDE50" d="M29,16c-2.9,0.1-4.6,2.3-5.6,4.2c-0.4,0.9-0.8,1.8-1.1,2.9H29V16z"/>
	<path fill="#FDDE50" d="M14.4,30.1H21c0-0.1,0-0.2,0-0.3c0-2.2,0.2-4.3,0.7-6.2H16C15,25.6,14.4,27.8,14.4,30.1z"/>
	<path fill="#FDDE50" d="M21.5,29.9c0,0.1,0,0.2,0,0.3H29v-6.5h-6.8C21.7,25.5,21.5,27.6,21.5,29.9z"/>
	<path fill="#FDDE50" d="M29.5,16v7.2h6.6c-0.3-1.1-0.7-2-1.1-2.9C34.1,18.3,32.3,16.1,29.5,16z"/>
	<path fill="#FDDE50" d="M21,30.6h-6.6c0,2,0.5,4,1.3,5.7v-0.2h5.9C21.2,34.5,21,32.7,21,30.6z"/>
	<path fill="#FDDE50" d="M29,44.8v-8.1h-6.7C23.4,41.1,25.7,44.6,29,44.8z"/>
	<path fill="#FDDE50" d="M37.4,29.9c0,0.1,0,0.2,0,0.3h6.3c0-2.3-0.6-4.5-1.6-6.5h-5.3C37.2,25.5,37.4,27.6,37.4,29.9z"/>
	<path fill="#FDDE50" d="M29.5,23.6v6.5h7.5c0-0.1,0-0.2,0-0.3c0-2.2-0.3-4.4-0.7-6.2H29.5z"/>
	<path fill="#FDDE50" d="M29,36.1v-5.5h-7.5c0,1.9,0.3,3.7,0.7,5.5H29z"/>
	<path fill="#FDDE50" d="M35.5,20c0.5,0.9,0.8,2,1.2,3.1h5.2c-2.1-3.7-5.8-6.4-10.2-7.2C33.1,16.6,34.4,18,35.5,20z"/>
	<path fill="#FDDE50" d="M21.8,23.1c0.3-1.1,0.7-2.2,1.2-3.1c1.1-2.1,2.5-3.5,4.1-4.1c-4.6,0.6-8.6,3.4-10.8,7.3H21.8z"/>
	<path fill="#FDDE50" d="M36.1,36.6h-6.7v8.2C32.7,44.6,35,41.1,36.1,36.6z"/>
	<path fill="#FDDE50" d="M36.7,36.6c-1.1,4.5-3.2,7.2-5.5,8.2c4.9-0.7,9-3.9,11.1-8.2H36.7z"/>
	<path fill="#FDDE50" d="M21.7,36.6h-5.9c2.1,4.5,6.5,7.8,11.7,8.3C25,44.1,22.8,41.3,21.7,36.6z"/>
	<path fill="#FDDE50" d="M36.9,30.6h-7.5v5.5h6.8C36.6,34.4,36.9,32.5,36.9,30.6z"/>
	<polygon fill="#FDDE50" points="43.7,30.4 43.7,30.4 43.7,30.4 	"/>
	<path fill="#FDDE50" d="M42.4,36.4c0.8-1.8,1.2-3.7,1.3-5.7h-6.3c0,2-0.3,3.9-0.6,5.5h5.6V36.4z"/>
</g>
</svg>
