<svg xmlns="http://www.w3.org/2000/svg" viewBox="0 0 58.1 19.2"><polygon fill="#39B54A" points="11.2,9.1 5.2,5.7 4.2,7.5 11.2,11.4 11.2,11.4 11.2,11.4 11.2,11.4 11.3,11.4 18.2,7.5 17.2,5.7 "/><path fill="#39B54A" d="M41.3,11.1c-0.2,0.1-0.3,0.1-0.4,0.2c-0.1,0.1-0.2,0.2-0.2,0.4c0,0.2,0.1,0.4,0.2,0.5s0.3,0.2,0.5,0.2c0.3,0,0.6-0.1,0.7-0.2c0.2-0.1,0.3-0.3,0.4-0.5V11c-0.2,0-0.5,0-0.7,0C41.6,11,41.4,11.1,41.3,11.1z"/><path fill="#39B54A" d="M55.1,0H3C1.3,0,0,1.3,0,3v13.2c0,1.6,1.3,3,3,3h52.1c1.7,0,3-1.4,3-3V3C58.1,1.3,56.7,0,55.1,0z M19.5,13.9c0,0.6-0.5,1-1,1H4c-0.5,0-1-0.4-1-1V5.3c0-0.5,0.5-1,1-1h14.5c0.5,0,1,0.5,1,1V13.9z M28.6,13.6h-5V5.2h5v1.5h-3.3v2h3v1.5h-3v2.1h3.4V13.6z M38.2,13.6h-1.6v-3.4c0-0.5-0.1-0.8-0.2-1.1c-0.1-0.2-0.3-0.4-0.7-0.4c-0.3,0-0.5,0.1-0.7,0.2c-0.2,0.2-0.3,0.4-0.4,0.6v3.9h-1.6v-3.3c0-0.6-0.1-0.9-0.2-1.2C33,9,32.8,8.9,32.4,8.9c-0.3,0-0.5,0.1-0.7,0.2s-0.3,0.3-0.4,0.6v4h-1.6v-6H31l0.2,0.8h0C31.5,8.2,31.7,8,32,7.8c0.3-0.2,0.7-0.3,1.1-0.3c0.4,0,0.7,0.1,0.9,0.2c0.2,0.2,0.4,0.4,0.6,0.8c0.2-0.3,0.4-0.6,0.7-0.7c0.3-0.2,0.6-0.3,1-0.3c0.3,0,0.6,0,0.9,0.1s0.4,0.2,0.6,0.4c0.1,0.2,0.3,0.5,0.3,0.8c0.1,0.3,0.1,0.7,0.1,1.2V13.6z M43,13.7l-0.3-0.8h-0.1c-0.2,0.2-0.4,0.5-0.7,0.6c-0.3,0.2-0.6,0.3-1.1,0.3c-0.3,0-0.5,0-0.8-0.1c-0.2-0.1-0.4-0.2-0.6-0.4c-0.2-0.2-0.3-0.3-0.4-0.6s-0.1-0.5-0.1-0.7c0-0.4,0.1-0.7,0.2-0.9s0.4-0.5,0.7-0.6c0.3-0.2,0.7-0.3,1.1-0.3c0.4-0.1,0.9-0.1,1.4-0.1c0.1-0.4,0-0.8-0.1-1c-0.1-0.2-0.4-0.3-0.8-0.3c-0.3,0-0.6,0-1,0.1C40.3,9,40,9.1,39.8,9.2L39.5,8c0.3-0.1,0.7-0.3,1.1-0.3s0.9-0.1,1.4-0.1c0.4,0,0.8,0.1,1,0.1c0.3,0.1,0.5,0.2,0.7,0.4S44,8.5,44,8.8c0.1,0.3,0.1,0.5,0.1,0.9c0,0.4,0,0.7,0,1.1c0,0.4,0,0.7,0,1s0,0.7,0,1c0,0.3,0.1,0.6,0.2,0.9H43z M47.1,13.6h-1.6v-6h1.6V13.6z M47.1,6.5c-0.2,0.2-0.4,0.2-0.7,0.2c-0.3,0-0.5-0.1-0.7-0.2c-0.2-0.2-0.3-0.4-0.3-0.6s0.1-0.4,0.3-0.6c0.2-0.2,0.4-0.2,0.7-0.2c0.3,0,0.5,0.1,0.7,0.2c0.2,0.2,0.3,0.4,0.3,0.6S47.2,6.4,47.1,6.5z M50.9,13.7c-0.3,0.1-0.5,0.1-0.8,0.1c-0.5,0-0.8-0.1-1-0.3s-0.4-0.6-0.4-1V5.2h1.6v6.4c0,0.3,0,0.5,0.1,0.6s0.2,0.2,0.3,0.2c0.1,0,0.2,0,0.3,0c0.1,0,0.2-0.1,0.3-0.1l0.2,1.2C51.4,13.6,51.2,13.7,50.9,13.7z"/></svg>