<?xml version="1.0" encoding="utf-8"?>
<!-- Generator: Adobe Illustrator 19.2.0, SVG Export Plug-In . SVG Version: 6.00 Build 0)  -->
<svg version="1.1" id="Layer_1" xmlns="http://www.w3.org/2000/svg" xmlns:xlink="http://www.w3.org/1999/xlink" x="0px" y="0px"
	 viewBox="0 0 42.5 30.5" style="enable-background:new 0 0 42.5 30.5;" xml:space="preserve">
<style type="text/css">
	.st0{fill:url(#SVGID_1_);stroke:#7F6D00;stroke-width:0.2323;}
	.st1{fill:url(#SVGID_2_);stroke:#7F6D00;stroke-width:0.2461;}
	.st2{fill:url(#SVGID_3_);stroke:#7F6D00;stroke-width:0.2835;}
	.st3{fill:url(#SVGID_4_);stroke:#0002BF;stroke-width:0.2461;}
	.st4{fill:#000066;}
	.st5{font-family:'Helvetica';}
	.st6{font-size:12.3637px;}
</style>
<linearGradient id="SVGID_1_" gradientUnits="userSpaceOnUse" x1="11.9546" y1="29.0833" x2="11.9546" y2="11.2651">
	<stop  offset="0" style="stop-color:#DF4000"/>
	<stop  offset="1" style="stop-color:#FFA45F"/>
</linearGradient>
<path class="st0" d="M22.9,26.9c0,1.2-0.9,2.2-2,2.2H3.1c-1.1,0-2-1-2-2.2V13.4c0-1.2,0.9-2.2,2-2.2h17.8c1.1,0,2,1,2,2.2V26.9z"/>
<linearGradient id="SVGID_2_" gradientUnits="userSpaceOnUse" x1="12.2577" y1="21.205" x2="12.2577" y2="11.2651">
	<stop  offset="0" style="stop-color:#5F72FF"/>
	<stop  offset="1" style="stop-color:#FFFFFF"/>
</linearGradient>
<polygon class="st1" points="11.8,21.2 5,11.3 19.5,11.3 "/>
<linearGradient id="SVGID_3_" gradientUnits="userSpaceOnUse" x1="12.3181" y1="13.9319" x2="12.3181" y2="1.0833">
	<stop  offset="0" style="stop-color:#DFCF66"/>
	<stop  offset="1" style="stop-color:#FFEDBF"/>
</linearGradient>
<circle class="st2" cx="12.3" cy="7.5" r="6.4"/>
<linearGradient id="SVGID_4_" gradientUnits="userSpaceOnUse" x1="31.1062" y1="23.265" x2="31.1062" y2="3.7498">
	<stop  offset="0" style="stop-color:#5F72FF"/>
	<stop  offset="1" style="stop-color:#FFFFFF"/>
</linearGradient>
<path class="st3" d="M41.3,17.1c0,1.2-1,2.2-2.2,2.2h-2.5l0.5,4l-6.1-4h-8c-1.2,0-2.2-1-2.2-2.2V5.9c0-1.2,1-2.2,2.2-2.2h16
	c1.2,0,2.2,1,2.2,2.2V17.1z"/>
<text transform="matrix(1.47 0 0 1 26.0156 15.5073)" class="st4 st5 st6">?</text>
</svg>
