<?xml version="1.0"?><svg width="8267.725" height="8267.725" xmlns="http://www.w3.org/2000/svg">
 <title>the blue tick</title>

 <g>
  <title>Layer 1</title>
  <g id="Symbol-Rahmen">
   <path d="m641.815002,4027.825684c731.304993,344.666992 827.705017,392.89209 1567.785095,742.04248c40.47998,19.749512 72.399902,34.937988 101.48999,50.687012c50.76001,30.289551 77.339844,58.754395 127.280029,-16.793457c16.879883,-18.804199 46.269775,-36.11377 65.599854,-71.930664c1771.250244,-1804.121582 3104.170166,-3215.856934 4875.429932,-5019.993622c311.450195,-345.137848 957.140137,-90.466522 668.75,288.412586c-1819.040039,2324.521221 -3013.899902,3909.364727 -3898.310059,5195.260723c-378.149902,548.272461 -701.189941,1042.362793 -991.489746,1515.197754c-190.680176,304.76123 -364.940186,600.707031 -526.530029,896.65332c-46.830078,89.570801 -85.949951,152.578125 -146.800049,203.177734c-95.27002,74.568848 -199.810059,82.646973 -302.620117,20.299316c-38.549805,-27.794434 -76.039795,-62.678223 -113.859863,-114.035645c-22.689941,-30.805664 -45.51001,-70.700684 -68.73999,-109.737793l-553.400024,-1001.742676l-623.116028,-1207.084961c-170.562988,-330.412109 -307.26001,-604.740723 -571.626007,-1107.414063c-28.92099,-47.334961 -111.645996,-170.503418 -87.534988,-262.360352c20.748001,-104.91333 124.861984,-162.029541 234.972,-112.881348c98.806976,45.807861 197.582977,93.395508 242.720001,112.243652l0,0z" id="svg_1" class="fil0"/>
  </g>
  <g id="Symbol">
   <path d="m356.483887,4023.100586c694.726074,327.307617 1260.065918,589.765625 1963.126465,921.344727c48.5,23.032715 97.639648,29.301758 146.549805,-17.113281c1682.650391,-1713.296143 3327.349609,-3393.48938 5010.009766,-5106.786057c220.550781,-216.528976 645.360352,-83.725113 509.089844,116.957321c-2981.109375,3741.557739 -4547.939453,5930.754517 -5497.55957,7659.482056c-86.320313,157.919922 -250.19043,148.976074 -339.060547,-2.478516c-209.349609,-361.939453 -525.429688,-929.678223 -534.05957,-943.908691c-673.510254,-1279.582031 -694.991211,-1332.822754 -1337.913086,-2554.915527c-30.347168,-59.914063 35.429199,-103.729492 79.818848,-72.582031l-0.001953,0z" fill="#0000ff" id="svg_2" class="fil1"/>
  </g>
 </g>
</svg>