<svg id="Icones" xmlns="http://www.w3.org/2000/svg" viewBox="0 0 85 85"><style>.st0{fill:#D64B57;} .st1{fill:#FFFFFF;} .st2{fill:#412545;} .st3{fill:#97C241;} .st4{fill:#2B3E4F;} .st5{fill-rule:evenodd;clip-rule:evenodd;fill:#2B3E4F;} .st6{fill:#3B92D0;} .st7{fill-rule:evenodd;clip-rule:evenodd;fill:#3993D0;} .st8{fill:#EE8040;} .st9{fill-rule:evenodd;clip-rule:evenodd;fill:#ED803F;} .st10{fill:#1C817D;} .st11{fill-rule:evenodd;clip-rule:evenodd;fill:#1F807C;} .st12{fill:#607087;} .st13{fill-rule:evenodd;clip-rule:evenodd;fill:#5F6F85;} .st14{fill:#8B172D;} .st15{fill-rule:evenodd;clip-rule:evenodd;fill:#8B172D;} .st16{fill:#F2A304;} .st17{fill-rule:evenodd;clip-rule:evenodd;fill:#F2A100;} .st18{fill:#584F1B;} .st19{fill-rule:evenodd;clip-rule:evenodd;fill:#584F1B;} .st20{fill:#7A4D4F;}</style><path class="st4" d="M42.5 85C19.1 85 0 65.9 0 42.5S19.1 0 42.5 0 85 19.1 85 42.5 65.9 85 42.5 85zm0-80.2C21.7 4.8 4.8 21.7 4.8 42.5c0 20.8 16.9 37.7 37.7 37.7s37.7-16.9 37.7-37.7c0-20.8-16.9-37.7-37.7-37.7z"/><path class="st5" d="M46.6 22.6l20.5 5.8L60 53.5l-9.1-2.6v-3.7l8.8 2.5 5.7-20-17.9-5.1-4.1 14.3h-.1l-.6-2.7 3.9-13.6zM20.2 41c-1.3 0-2.3 1-2.3 2.3v14.8c0 1.3 1 2.3 2.3 2.3h5.9c-2.3-2.1-3.8-5.1-3.8-8.5 0-5.1 3.4-9.5 8-10.9h.1c.1 0 .1 0 .2-.1h.1c.1 0 .1 0 .2-.1h.1c.1 0 .1 0 .2-.1h.1c.1 0 .2 0 .2-.1H36.2c.1 0 .1 0 .2.1h.1c.1 0 .1 0 .2.1h.1c.1 0 .1 0 .2.1h.1c4.6 1.5 8 5.8 8 10.9 0 3.4-1.4 6.4-3.8 8.5h4.9c1.3 0 2.3-1 2.3-2.3V43.3c0-1.3-1-2.3-2.3-2.3h-4.9l-.7-3.6h-14l-.7 3.6h-5.7zm13.7 4.5c2.8 0 5.3 1.8 6.2 4.3-1.3-.9-2.9-1.4-4.6-1.4-4.1 0-7.5 3-7.5 6.6v.2c-.5-.9-.8-2-.8-3.1.1-3.6 3.1-6.6 6.7-6.6zm-.1-4c-5.8 0-10.4 4.7-10.4 10.4s4.7 10.4 10.4 10.4 10.4-4.7 10.4-10.4-4.6-10.4-10.4-10.4zm0 2.2c4.5 0 8.2 3.7 8.2 8.2 0 4.5-3.7 8.2-8.2 8.2s-8.2-3.7-8.2-8.2c0-4.5 3.7-8.2 8.2-8.2zm21.1 1.2c-.2-.1-.4-.3-.4-.5 0-.5-.2-1.8-.5-3-.2-1.1-.8-1.4-1.1-1.5-.3-.1-1-.1-1.7.7-.5.5-1.3 1.6-1.3 1.6s-.2-1.7-1.9-2.1c0 0 .1-.5.1-.7.2-1.3.3-3.1.2-3.8-.1-.4.1-1.8.5-3.3.4-1.5 1-2.7 1.2-2.8.3-.3.9-.6 1.2-.8.2-.1.9-.1 1.8.2.8.2 1.7.6 1.9.7.2.1.5.2.8.3.3.1.6.1.8.1.3 0 1.2.2 2 .4s1.5.6 1.6.8c.2.3.5.9.7 1.3.1.3 0 1.5-.4 3.1-.4 1.5-1 2.8-1.3 3.1-.5.5-1.3 2.1-1.8 3.3-.6 1.4-1.3 2.5-1.5 2.7-.1.1-.6.2-.9.2z"/></svg>