<!-- Generator: Adobe Illustrator 19.1.0, SVG Export Plug-In  -->
<svg version="1.1"
	 xmlns="http://www.w3.org/2000/svg" xmlns:xlink="http://www.w3.org/1999/xlink" xmlns:a="http://ns.adobe.com/AdobeSVGViewerExtensions/3.0/"
	 x="0px" y="0px" width="6112.5px" height="3617.784px" viewBox="0 0 6112.5 3617.784"
	 style="enable-background:new 0 0 6112.5 3617.784;" xml:space="preserve">
<style type="text/css">
	.st0{opacity:0.1;fill:#1D1D1B;}
	.st1{fill:#FFFFFF;}
	.st2{fill:#9D9D9C;}
	.st3{fill:#878787;}
	.st4{fill:#DADADA;}
	.st5{fill:#BE1622;}
	.st6{fill:#890B1A;}
</style>
<defs>
</defs>
<polygon class="st0" points="4070.731,3616.863 6112.5,499.668 3644,0 3733,3617.784 "/>
<g>
	<g>
		<path class="st1" d="M3230.647,2735.352"/>
		<polygon class="st2" points="4157.74,500.128 4229.748,623.141 4229.748,2651.344 4157.74,2489.327 		"/>
		<polygon class="st3" points="0,3495.508 4004.725,3495.508 4073.732,3617.323 0,3617.323 		"/>
		<polygon class="st4" points="3647,0.461 0,0.461 0,3495.507 3647,3495.507 4004.725,3495.507 4004.725,2651.344 4157.74,2489.327 
			4157.74,497.128 		"/>
		<rect x="116" y="158.835" class="st3" width="3620" height="3192"/>
		<polygon class="st2" points="4004.725,2651.344 4004.725,3495.508 4073.732,3617.323 4073.732,2578.277 		"/>
		<polygon class="st3" points="4229.748,2651.344 4072.812,2802.279 4004.725,2651.344 4157.74,2489.327 		"/>
		<polygon class="st2" points="4310.755,1223.201 4406.765,1418.22 4406.765,1550.835 4310.755,1364.215 		"/>
		<polygon class="st2" points="4310.755,2067.201 4406.765,2262.22 4406.765,2394.835 4310.755,2208.215 		"/>
		<polygon class="st3" points="4406.765,2394.835 4229.748,2394.835 4157.74,2207.299 4310.755,2207.299 		"/>
		<polygon class="st3" points="4406.765,1550.835 4157.74,1550.835 4157.74,1363.299 4310.755,1363.299 		"/>
		<rect x="4104" y="1223.201" class="st4" width="206.755" height="984.098"/>
		<polygon class="st5" points="4310.755,1223.201 4363.404,1330.143 4363.404,2308.835 4310.755,2207.299 		"/>
		<polygon class="st6" points="4363.404,2308.835 4193.744,2308.835 4157.74,2207.299 4310.755,2207.299 		"/>
	</g>
	<polygon class="st3" points="4157.74,1127.191 4229.748,1223.201 4157.74,1223.201 	"/>
</g>
</svg>