<svg width="512" xmlns="http://www.w3.org/2000/svg" height="512" viewBox="0 0 512 512" xmlns:xlink="http://www.w3.org/1999/xlink" enable-background="new 0 0 512 512">
<path d="m263.807,485.911h106.576l-72.689-322.536h-166.45l-71.244,322.536h103.494l7.916-38.111h82.994l9.403,38.111zm-19.545-116.627h-59.645l20.287-124.914h20.141l19.217,124.914z"/>
<path fill="#6c299b" d="m146.75,372.457-25.231-23.516 0,50.324 31.176,0z"/>
<path fill="#470c7a" d="m305.977,348.941-25.211,23.882-5.965,26.442 31.176,0z"/>
<path fill="#ffc23f" d="m146.75,372.823c0-37.011 30-67.009 67.009-67.009 37.006,0 67.007,29.998 67.007,67.009 0,37.01-30,67.006-67.007,67.006-37.009,0-67.009-29.996-67.009-67.006z"/>
<path fill="#6c299b" d="m306.054,400.891c0,15.487-12.561,28.049-28.055,28.049h-128.485c-15.493,0-28.057-12.562-28.057-28.049 0-15.505 12.564-28.068 28.057-28.068h128.485c15.494-0 28.055,12.563 28.055,28.068z"/>
<path fill="#470c7a" d="m305.977,400.891c0-15.505-12.552-28.068-28.051-28.068h-64.166v56.117h64.166c15.499-.002 28.051-12.562 28.051-28.049z"/>
<path d="m286.975,400.891c0,5.439-4.416,9.859-9.867,9.859h-126.55c-5.453,0-9.869-4.42-9.869-9.859 0-5.461 4.416-9.873 9.869-9.873h126.549c5.45-0 9.868,4.412 9.868,9.873z"/>
<path fill="#d33caf" d="m195.17,391.018h18.59v19.732h-18.59z"/>
<path fill="#f469cd" d="m213.756,391.018h19.278v19.732h-19.278z"/>
<path fill="#d33caf" d="m174.811,391.018h11.052v19.732h-11.052z"/>
<path fill="#f469cd" d="m243.686,391.018h11.052v19.732h-11.052z"/>
<path fill="#d33caf" d="m157.103,391.018h6.619v19.732h-6.619z"/>
<path fill="#f469cd" d="m265.389,391.018h6.621v19.732h-6.621z"/>
<path fill="#c6870a" d="m213.986,305.814v67.009h67.009c0-37.011-30.002-67.009-67.009-67.009z"/>
<path fill="#ffc23f" d="m315.42,456.965c0,16.255-13.171,29.426-29.422,29.426h-145.526c-16.249,0-29.42-13.171-29.42-29.426 0-16.251 13.171-29.421 29.42-29.421h145.526c16.251-.002 29.422,13.17 29.422,29.421z"/>
<path fill="#c6870a" d="m286.539,427.542h-72.763v58.849h72.763c16.248,0 29.422-13.171 29.422-29.426 0-16.251-13.174-29.423-29.422-29.423z"/>
<path fill="#6c299b" d="m174.27,427.331 20.357,59.268 19.129,0 0-59.268z"/>
<path fill="#470c7a" d="m253.245,427.331-20.36,59.268-19.129,0 0-59.268z"/>
<path fill="none" d="m0,0h512v512h-512z"/>
</svg>
