<?xml version="1.0"?><svg width="5000" height="5000" xmlns="http://www.w3.org/2000/svg">
 <title>HAMMER</title>
 <metadata id="metadata7">image/svg+xml</metadata>
 <g>
  <title>Layer 1</title>
  <g id="layer2">
   <path fill="#8e9e82" fill-rule="evenodd" stroke="#000000" stroke-width="0.90407461px" id="path2478" d="m1162.703369,186.183594l185.435303,16.91748l-111.261597,163.535736l234.88501,-152.257278l185.43457,45.112869l-18.543579,62.030914l-222.522095,203.009949l-197.796875,191.73114c0,0 -154.529663,174.813538 -185.435059,242.483704c-30.906067,67.669983 -86.537048,152.257996 -98.899109,219.928284c-12.362305,67.670044 -24.724365,157.896973 -6.181519,180.453247c18.543579,22.556641 191.616394,73.30896 191.616394,73.30896l135.98584,-5.639038l61.812012,28.195435l1539.111572,-22.556396l37.085938,-67.669556l723.19751,-78.948608l797.370361,5.639038l241.065918,-16.917603l30.90625,-11.27771l117.441406,5.639038c0,0 142.16748,73.309082 160.711426,129.700439c18.543457,56.391357 18.543457,157.896729 6.180664,214.288086c-12.361816,56.391846 -55.630371,152.257446 -98.898926,186.092285c-43.268066,33.835083 -148.347656,50.752686 -148.347656,50.752686l-92.718262,-39.473999l-377.05127,-5.638916l-673.747314,39.473755l-679.928467,-33.834839l-61.812012,-39.473755l-1502.023438,33.834839l-30.906006,33.834351l-105.079956,5.639404l-265.790466,129.700684c0,0 -111.26123,95.865112 -142.166931,157.895142c-30.90564,62.029541 -92.717651,180.452393 -92.717651,259.400391c0,78.94873 43.268372,197.371094 43.268372,197.371094l6.180969,107.144043l-43.268005,236.844971c0,0 -37.08728,56.39209 -98.898621,78.948486c-61.811707,22.555908 -352.326859,11.277588 -395.595184,-11.278564c-43.268021,-22.556641 -160.710327,-90.227051 -185.434994,-129.700928c-24.724373,-39.473633 55.630642,-332.710449 55.630642,-332.710449l117.442307,-124.061523c0,0 37.08699,-107.144287 37.08699,-163.536133c0,-56.391846 -92.717636,-208.647095 -92.717636,-208.647095l-55.630051,-95.865112l24.724373,-225.56665c0,0 86.536324,-360.90625 105.079674,-422.936768c18.54364,-62.031006 142.166962,-304.516052 185.435577,-383.464294c43.2677,-78.948486 253.427643,-315.792847 296.695587,-349.627747c43.268372,-33.834778 469.769043,-372.184464 463.588013,-377.823486z"/>
  </g>
  <g id="layer1"/>
 </g>
</svg>