<svg id="Layer_1" data-name="Layer 1" xmlns="http://www.w3.org/2000/svg" xmlns:xlink="http://www.w3.org/1999/xlink" viewBox="0 0 325.072 72.434"><defs><style>.cls-1{fill:url(#linear-gradient);}.cls-2{fill:#fff;}</style><linearGradient id="linear-gradient" x1="162.536" x2="162.536" y2="72.434" gradientUnits="userSpaceOnUse"><stop offset="0" stop-color="#005ca8"/><stop offset="1" stop-color="#003b76"/></linearGradient></defs><title>find-a-degree-button</title><rect class="cls-1" width="325.072" height="72.434" rx="7.922" ry="7.922"/><path class="cls-2" d="M132.513,12.02H141.6v2.793h-6.168v3.3h5.422V20.9h-5.422v5.815h-2.923Z"/><path class="cls-2" d="M143.783,12.02h2.923v14.7h-2.923Z"/><path class="cls-2" d="M149.63,12.02h2.681l5.4,8.566V12.02h2.862v14.7h-2.5l-5.583-8.881v8.881H149.63Z"/><path class="cls-2" d="M163.4,12.02h4.556c4.092,0,6.732,2.939,6.732,7.244v.188c0,4.3-2.641,7.265-6.732,7.265H163.4Zm2.923,2.751v9.2h1.612c2.217,0,3.729-1.617,3.729-4.535v-.105c0-2.918-1.512-4.556-3.729-4.556Z"/><path class="cls-2" d="M185.61,11.624h2.841l5.166,15.093H190.53l-1.07-3.259H184.5l-1.05,3.259h-3.006Zm2.943,9.09-1.564-4.888L185.4,20.714Z"/><path class="cls-2" d="M102.775,34.215H110.5c7.56,0,11.86,4.76,11.86,11.971v.42c0,7.211-4.334,12.111-11.962,12.111h-7.627Zm6.048,5.635V53.081h1.747c3.36,0,5.611-2.064,5.611-6.44v-.314c0-4.411-2.251-6.477-5.611-6.477Z"/><path class="cls-2" d="M125.187,34.215h16.2v5.53H131.168v4.025h9.207v5.216h-9.207v4.2h10.35v5.53h-16.33Z"/><path class="cls-2" d="M143.433,46.746v-.49c0-7.351,4.838-12.461,11.323-12.461a11.791,11.791,0,0,1,8.1,2.975l-3.36,4.8a6.412,6.412,0,0,0-4.6-2.03c-2.991,0-5.275,2.73-5.275,6.791v.35c0,4.48,2.318,6.966,5.342,6.966a4.7,4.7,0,0,0,2.722-.735V49.266H153.95V44.4h9.408V56.092a13.884,13.884,0,0,1-8.636,3.045C148.305,59.137,143.433,54.411,143.433,46.746Z"/><path class="cls-2" d="M166.416,34.215h9.24c3.158,0,5.544.875,7.056,2.485a7.947,7.947,0,0,1,2.05,5.74v.175a7.569,7.569,0,0,1-4.2,7.211l4.839,8.891h-6.821l-4-7.6h-2.15v7.6h-6.015Zm9,11.9a2.973,2.973,0,0,0,3.259-3.186v-.07c0-2.1-1.276-3.15-3.292-3.15H172.43v6.406Z"/><path class="cls-2" d="M187.484,34.215h16.2v5.53H193.464v4.025h9.207v5.216h-9.207v4.2h10.35v5.53h-16.33Z"/><path class="cls-2" d="M206.637,34.215h16.2v5.53H212.618v4.025h9.207v5.216h-9.207v4.2h10.35v5.53h-16.33Z"/></svg>