<?xml version="1.0" encoding="iso-8859-1"?>
<!-- Generator: Adobe Illustrator 18.0.0, SVG Export Plug-In . SVG Version: 6.00 Build 0)  -->
<!DOCTYPE svg PUBLIC "-//W3C//DTD SVG 1.1//EN" "http://www.w3.org/Graphics/SVG/1.1/DTD/svg11.dtd">
<svg version="1.1" xmlns="http://www.w3.org/2000/svg" xmlns:xlink="http://www.w3.org/1999/xlink" x="0px" y="0px"
	 viewBox="0 0 42.183 42.183" style="enable-background:new 0 0 42.183 42.183;" xml:space="preserve">
<g id="ruler">
	<path style="fill:none;stroke:#000000;stroke-width:2;stroke-miterlimit:10;" d="M11.192,40.89l-9.899-9.899
		c-0.391-0.391-0.391-1.024,0-1.414L29.577,1.293c0.391-0.391,1.024-0.391,1.414,0l9.899,9.899c0.391,0.391,0.391,1.024,0,1.414
		L12.606,40.89C12.216,41.281,11.583,41.281,11.192,40.89z"/>
	
		<line style="fill:none;stroke:#000000;stroke-width:2;stroke-linecap:round;stroke-miterlimit:10;" x1="27.451" y1="4.824" x2="30.28" y2="7.652"/>
	
		<line style="fill:none;stroke:#000000;stroke-width:2;stroke-linecap:round;stroke-miterlimit:10;" x1="24.623" y1="7.653" x2="26.037" y2="9.067"/>
	
		<line style="fill:none;stroke:#000000;stroke-width:2;stroke-linecap:round;stroke-miterlimit:10;" x1="21.794" y1="10.481" x2="24.622" y2="13.31"/>
	
		<line style="fill:none;stroke:#000000;stroke-width:2;stroke-linecap:round;stroke-miterlimit:10;" x1="18.965" y1="13.31" x2="20.379" y2="14.724"/>
	
		<line style="fill:none;stroke:#000000;stroke-width:2;stroke-linecap:round;stroke-miterlimit:10;" x1="16.137" y1="16.139" x2="18.965" y2="18.967"/>
	
		<line style="fill:none;stroke:#000000;stroke-width:2;stroke-linecap:round;stroke-miterlimit:10;" x1="13.308" y1="18.968" x2="14.722" y2="20.381"/>
	
		<line style="fill:none;stroke:#000000;stroke-width:2;stroke-linecap:round;stroke-miterlimit:10;" x1="10.479" y1="21.796" x2="13.307" y2="24.625"/>
	
		<line style="fill:none;stroke:#000000;stroke-width:2;stroke-linecap:round;stroke-miterlimit:10;" x1="7.65" y1="24.625" x2="9.064" y2="26.039"/>
	
		<line style="fill:none;stroke:#000000;stroke-width:2;stroke-linecap:round;stroke-miterlimit:10;" x1="4.822" y1="27.454" x2="7.65" y2="30.282"/>
	
		<rect x="21.628" y="3.628" transform="matrix(0.7071 0.7071 -0.7071 0.7071 24.6277 -10.201)" style="opacity:0.2;" width="6" height="42"/>
</g>
<g id="Layer_1">
</g>
</svg>
