<svg xmlns="http://www.w3.org/2000/svg" viewBox="0 0 43.46 58.705"><path fill-rule="evenodd" clip-rule="evenodd" fill="#F1EDE7" d="M21.73 5.605c-.33 0-.61.08-.73.15l-15.43 9.68c-.41.25-.89 1.12-.89 1.6l.01 37h34.08v-37c0-.48-.48-1.35-.89-1.6l-15.42-9.68c-.11-.07-.39-.15-.73-.15zm17.05 48.43v2.33-2.33zm0 4.67H4.69c-2.58 0-4.69-2.1-4.69-4.67v-37c0-2.09 1.29-4.43 3.07-5.54l15.43-9.68c1.79-1.12 4.67-1.12 6.46 0l15.42 9.68c1.78 1.11 3.07 3.45 3.07 5.54l.01 37c0 2.57-2.1 4.67-4.68 4.67z"/><path fill="#F1EDE7" d="M21.73 10.835c-1.78 0-3.22 1.44-3.21 3.21-.01 1.77 1.43 3.19 3.21 3.2 1.78 0 3.21-1.44 3.21-3.2 0-1.77-1.44-3.2-3.21-3.21z"/><path fill="#F1EDE7" d="M24.05 15.265c-1.77 0-3.17-.52-3.84-1.74-.31-.56-.11-1.27.46-1.58.57-.31 1.28-.11 1.59.46.49.89 4.53.94 10.2-2.15 2.49-1.36 4.63-2.99 6.01-4.58 1.2-1.39 1.52-2.43 1.31-2.82-.22-.38-1.26-.68-3.09-.42-2.1.3-4.62 1.22-7.12 2.58-.55.31-1.27.1-1.58-.47-.31-.56-.11-1.27.46-1.58 2.73-1.49 5.54-2.5 7.9-2.84 3.52-.5 4.92.6 5.48 1.61.55 1.01.73 2.78-1.59 5.46-1.56 1.8-3.92 3.61-6.65 5.1-3.24 1.77-6.83 2.97-9.54 2.97z"/><path fill-rule="evenodd" clip-rule="evenodd" fill="#F1EDE7" d="M20.62 34.785h2.16c.79 0 1.4.08 1.84.24s.65.53.65 1.12c0 .41-.15.73-.43.98-.3.25-.67.37-1.14.37h-2.56v.25c0 .98-.22 1.87-.66 2.68-.44.81-1.2 1.83-2.29 3.04l.94-.21c.31-.07.67-.12 1.06-.18.39-.05.82-.08 1.28-.08.65 0 1.55.08 2.71.22 1.16.15 1.93.23 2.3.23.56 0 1.14-.1 1.78-.29.63-.2 1.04-.3 1.2-.3.43 0 .82.17 1.15.51.34.35.51.76.51 1.24 0 .79-.45 1.41-1.36 1.83-.9.43-1.86.65-2.88.65-.64 0-2.41-.34-5.35-1.01-.08-.02-.21-.06-.39-.12s-.41-.1-.68-.15c-.27-.03-.6-.05-.97-.05-.41 0-.76.05-1.07.17-.32.12-.85.33-1.6.64-.77.31-1.28.46-1.55.46-.37 0-.73-.17-1.08-.5-.35-.33-.52-.77-.52-1.31 0-.2.06-.41.18-.63.12-.22.32-.47.6-.76.27-.28.67-.65 1.21-1.12.5-.41.91-.99 1.24-1.74.34-.74.5-1.47.5-2.19 0-.26-.05-.68-.14-1.28h-1.22c-.72 0-1.25-.08-1.61-.25-.36-.17-.56-.52-.56-1.04 0-.95.62-1.42 1.86-1.42h.85c-.47-1.49-.71-2.68-.71-3.54 0-1.19.28-2.24.84-3.16.56-.93 1.36-1.65 2.4-2.18 1.04-.52 2.24-.78 3.58-.78 1.19 0 2.21.14 3.06.44.84.29 1.6.77 2.26 1.45 1.12 1.16 1.68 2.41 1.68 3.72 0 .47-.18.89-.56 1.26-.36.36-.81.54-1.34.54-.93 0-1.56-.52-1.87-1.56-.28-.99-.66-1.73-1.15-2.21-.49-.47-1.14-.71-1.96-.71-.9 0-1.61.29-2.16.85-.54.58-.82 1.32-.82 2.22 0 .55.06 1.06.19 1.53.1.48.31 1.2.6 2.13z"/></svg>