<?xml version="1.0" encoding="utf-8"?>
<!-- Generator: Adobe Illustrator 19.2.1, SVG Export Plug-In . SVG Version: 6.00 Build 0)  -->
<!DOCTYPE svg PUBLIC "-//W3C//DTD SVG 1.1//EN" "http://www.w3.org/Graphics/SVG/1.1/DTD/svg11.dtd">
<svg version="1.1" id="Layer_1" xmlns="http://www.w3.org/2000/svg" xmlns:xlink="http://www.w3.org/1999/xlink" x="0px" y="0px"
	 viewBox="0 0 125 125" style="enable-background:new 0 0 125 125;" xml:space="preserve">
<style type="text/css">
	.st0{fill:#FFFFFF;}
</style>
<g>
	<g>
		<g>
			<path d="M86.5,89.9H70.7V74.7h14.6V55.9H39.7v18.7h14.6v15.2H38.5V47.7h48V89.9z M71.9,88.7h13.5V75.8H71.9V88.7z M39.7,88.7
				h13.5V75.8H39.7V88.7z M39.7,54.7h45.7v-5.9H39.7V54.7z"/>
		</g>
		<g>
			<path d="M39.7,75.8H27.4V62.9h12.3V75.8z M28.5,74.7h10V64.1h-10V74.7z"/>
		</g>
		<g>
			<path d="M97.6,75.8H85.3V62.9h12.3V75.8z M86.5,74.7h10V64.1h-10V74.7z"/>
		</g>
		<g>
			<rect x="53.5" y="88.7" width="17.8" height="1.2"/>
		</g>
		<g>
			<path d="M74.3,64.8v1.8h-1.8v-1.8H74.3 M75.5,63.7h-4.1v4.1h4.1V63.7L75.5,63.7z"/>
		</g>
		<g>
			<path d="M52.5,64.8v1.8h-1.8v-1.8H52.5 M53.7,63.7h-4.1v4.1h4.1V63.7L53.7,63.7z"/>
		</g>
	</g>
	<g>
		<rect x="39.1" y="51.3" class="st0" width="46.9" height="9.2"/>
		<path d="M87,61.6H38V50.2h49V61.6z M40.1,59.4h44.7v-7.1H40.1V59.4z"/>
	</g>
	<g>
		<g>
			<polygon points="63.3,54.1 61.7,54.1 59.7,57.7 61.3,57.7 			"/>
		</g>
		<g>
			<polygon points="61.7,54.1 63.3,54.1 65.3,57.7 63.7,57.7 			"/>
		</g>
	</g>
	<g>
		<g>
			<path d="M32.9,125H19.2v-14.9h13.7V125z M20.4,123.8h11.4v-12.6H20.4V123.8z"/>
		</g>
		<g>
			<path d="M105.8,125H92.1v-14.9h13.7V125z M93.2,123.8h11.4v-12.6H93.2V123.8z"/>
		</g>
		<g>
			<path d="M82.6,125H42.4v-12.4h40.1V125z M43.6,123.8h37.8v-10.1H43.6V123.8z"/>
		</g>
		<g>
			<path d="M93.2,125H81.4v-11.2H43.6V125H31.8v-23.7h61.4V125z M82.6,123.8h9.5v-21.4H32.9v21.4h9.5v-11.2h40.1V123.8z"/>
		</g>
		<g>
			<path d="M71.9,102.4H53.1V88.7h18.8V102.4z M54.3,101.3h16.4V89.9H54.3V101.3z"/>
		</g>
	</g>
	<g>
		<path class="st0" d="M87.1,124.4v-22.6H76.8v5.8c0,7.1-6.4,12.8-14.3,12.8s-14.3-5.7-14.3-12.8v-5.8H37.9v22.6"/>
		<path d="M88.2,124.4H86v-21.5h-8.1v4.7c0,7.6-6.9,13.9-15.4,13.9c-8.5,0-15.4-6.2-15.4-13.9v-4.7H39v21.5h-2.2v-23.6h12.4v6.9
			c0,6.5,5.9,11.7,13.3,11.7c7.3,0,13.3-5.3,13.3-11.7v-6.9h12.4V124.4z"/>
	</g>
</g>
</svg>
