<?xml version="1.0" encoding="utf-8"?>
<!-- Generator: Adobe Illustrator 18.1.0, SVG Export Plug-In . SVG Version: 6.00 Build 0)  -->
<svg version="1.1" id="Layer_1" xmlns="http://www.w3.org/2000/svg" xmlns:xlink="http://www.w3.org/1999/xlink" x="0px" y="0px"
	 viewBox="0 0 332.484 332.484" enable-background="new 0 0 332.484 332.484" xml:space="preserve">
<path d="M166.24,0.001C74.43,0.001,0,74.431,0,166.241s74.43,166.24,166.24,166.24s166.24-74.43,166.24-166.24
	S258.05,0.001,166.24,0.001z M278.84,278.841c-30.07,30.08-70.06,46.64-112.6,46.64c-42.53,0-82.52-16.56-112.6-46.64
	C23.56,248.761,7,208.781,7,166.241c0-42.53,16.56-82.52,46.64-112.6c30.08-30.08,70.07-46.64,112.6-46.64
	c42.54,0,82.53,16.56,112.6,46.64c30.08,30.08,46.64,70.07,46.64,112.6C325.48,208.781,308.92,248.761,278.84,278.841z"/>
<g>
	<g>
		<g>
			<path d="M241.61,55.691H90.88c-7.9,0-14.54,6.53-14.54,14.43v192.24c0,7.91,6.64,14.33,14.54,14.33h150.73
				c7.9,0,14.73-6.42,14.73-14.33V70.121C256.34,62.221,249.51,55.691,241.61,55.691z M248.34,262.361c0,4.05-3.28,7.33-7.33,7.33
				H90.67c-4.05,0-7.33-3.28-7.33-7.33V70.021c0-4.05,3.28-7.33,7.33-7.33h150.34c4.05,0,7.33,3.28,7.33,7.33V262.361z"/>
		</g>
		<g>
			<path d="M238.9,70.691H93.59c-1.94,0-3.25,1.1-3.25,3.04v174.19c0,1.93,1.31,3.77,3.25,3.77H238.9c1.93,0,3.44-1.84,3.44-3.77
				V73.731C242.34,71.791,240.83,70.691,238.9,70.691z M235.34,244.691h-138v-167h138V244.691z"/>
		</g>
		<g>
			<path d="M173.56,260.181c0,4.03-3.28,7.31-7.32,7.31c-4.03,0-7.32-3.28-7.32-7.31c0-4.04,3.29-7.32,7.32-7.32
				C170.28,252.861,173.56,256.141,173.56,260.181z"/>
		</g>
	</g>
	<g>
		<g>
			<path d="M219.22,91.691H112.38c-1.93,0-3.04,1.21-3.04,3.14v54.91c0,1.94,1.11,3.95,3.04,3.95h106.84c1.93,0,3.12-2.01,3.12-3.95
				v-54.91C222.34,92.901,221.15,91.691,219.22,91.691z M215.34,146.691h-99v-48h99V146.691z"/>
		</g>
		<path d="M219.365,178.704H112.527c-1.933,0-3.5-1.567-3.5-3.5s1.567-3.5,3.5-3.5h106.838c1.933,0,3.5,1.567,3.5,3.5
			S221.298,178.704,219.365,178.704z"/>
		<path d="M219.512,202.209H112.676c-1.933,0-3.5-1.567-3.5-3.5s1.567-3.5,3.5-3.5h106.836c1.933,0,3.5,1.567,3.5,3.5
			S221.444,202.209,219.512,202.209z"/>
		<path d="M219.068,225.712H112.234c-1.933,0-3.5-1.567-3.5-3.5s1.567-3.5,3.5-3.5h106.834c1.933,0,3.5,1.567,3.5,3.5
			S221.001,225.712,219.068,225.712z"/>
	</g>
</g>
</svg>
