<?xml version="1.0" encoding="utf-8"?>
<!DOCTYPE svg PUBLIC "-//W3C//DTD SVG 1.0//EN" "http://www.w3.org/TR/2001/REC-SVG-20010904/DTD/svg10.dtd">
<svg version="1.0" id="Layer_1" xmlns="http://www.w3.org/2000/svg" xmlns:xlink="http://www.w3.org/1999/xlink" x="0px" y="0px"
	 viewBox="0 0 370 85" enable-background="new 0 0 370 85" xml:space="preserve">
<g id="Combo-original-2" transform="translate(0.550041, 11.299923)">
	<path id="UCOZ-3" fill="#020202" d="M36.3,73.5c-5.1,0-9.8-0.7-14-2.2s-7.8-3.9-10.8-6.9c-2.9-2.9-5.4-6.9-7.1-11.3S2,43.6,2,37.8
		V-10h9.3v47.3c0,8.8,2.2,15.7,6.6,20.6S28.4,65,36.5,65c7.6,0,13.7-2.2,18.1-6.9s6.6-11.3,6.6-20.3V-10h9.6v47
		c0,6.1-0.7,11.3-2.4,15.9s-3.9,8.3-7.1,11.5c-2.9,2.9-6.6,5.4-10.8,6.9C46.3,72.8,41.7,73.5,36.3,73.5z M121,70.3
		c-5.1-2.2-9.3-5.1-13-9.1c-3.7-3.9-6.6-8.3-8.6-13.5c-2.2-5.1-3.2-10.8-3.2-16.7c0-6.1,1-11.5,3.2-16.7c2.2-5.1,4.9-9.8,8.6-13.5
		c3.7-3.9,8.1-6.9,13.2-9.1c5.1-2.2,10.8-3.4,16.7-3.4c3.7,0,7.1,0.2,10.3,1c2.9,0.7,5.9,1.5,8.3,2.7c2.7,1.2,4.9,2.4,7.1,4.2
		s4.4,3.4,6.4,5.4l-6.4,6.9c-3.4-3.2-7.3-5.9-11.3-8.1c-4.2-2.2-8.8-3.2-14.5-3.2c-4.7,0-8.8,1-12.7,2.7c-3.9,1.7-7.3,4.2-10,7.1
		s-5.1,6.6-6.6,10.8c-1.5,4.2-2.4,8.6-2.4,13.2c0,4.9,0.7,9.6,2.4,13.5s3.9,7.6,6.6,10.8c2.7,3.2,6.4,5.4,10,7.3
		c3.9,1.7,8.1,2.7,12.7,2.7c5.6,0,10.5-1,14.7-3.2c4.2-2,8.1-4.9,12-8.8l6.1,5.9c-2.2,2.2-4.4,4.2-6.6,5.9c-2.2,1.7-4.9,3.2-7.6,4.4
		s-5.6,2.2-8.6,2.9c-3.2,0.7-6.4,1-10.3,1C131.6,73.5,125.9,72.6,121,70.3z M236.4,73.5c-6.4,0-12-1.2-17.1-3.4
		c-5.1-2.2-9.6-5.4-13.2-9.3c-3.7-3.9-6.6-8.3-8.6-13.5c-2-5.1-2.9-10.5-2.9-16.2v-0.2c0-5.6,1-11,3.2-16.2c2-5.1,4.9-9.8,8.6-13.5
		c3.7-3.9,8.1-6.9,13.2-9.3c5.1-2.2,11-3.4,17.1-3.4s12,1.2,17.1,3.4s9.6,5.4,13.2,9.3s6.6,8.3,8.6,13.5s2.9,10.5,2.9,16.2v0.2
		c0,5.6-1,11-3.2,16.2c-2,5.1-4.9,9.8-8.6,13.5c-3.7,3.9-8.1,6.9-13.2,9.3C248.4,72.6,242.8,73.5,236.4,73.5z M236.2,65
		c4.7,0,9.1-1,13-2.7c3.9-1.7,7.3-4.2,10.3-7.3c2.9-2.9,5.1-6.6,6.6-10.8c1.7-4.2,2.4-8.6,2.4-13.2v-0.2c0-4.7-0.7-9.1-2.4-13.2
		c-1.7-4.2-3.9-7.6-6.9-10.8c-2.9-2.9-6.4-5.4-10.3-7.3c-3.9-1.7-8.3-2.7-13-2.7c-4.7,0-9.1,1-13,2.7s-7.3,4.2-10.3,7.3
		c-2.9,2.9-5.1,6.6-6.6,10.8c-1.7,4.2-2.4,8.6-2.4,13.2v0.2c0,4.7,0.7,9.1,2.4,13.2c1.7,4.2,3.9,7.6,6.9,10.8
		c2.9,3.2,6.4,5.4,10.3,7.3C227.1,64.2,231.3,65,236.2,65z M301.6,65.9l53.9-67.6h-51.7V-10h64.4v6.1l-53.6,67.6h53.6v8.3H302
		L301.6,65.9z"/>
</g>
</svg>
