<?xml version="1.0"?><svg width="5000" height="5000" xmlns="http://www.w3.org/2000/svg">
 <title>Noga</title>
 <g>
  <title>Layer 1</title>
  <g id="svg_1">
   <path d="m1928.356567,2620.948242c-717.744263,-75.549561 -597.189453,-1188.884399 -18.885132,-1492.161865c383.133789,-200.927734 900.385254,-192.15155 1246.618896,-56.664551c656.737061,256.984985 831.072998,585.530151 925.51709,1227.733643c94.443848,642.203613 -221.997803,2340.959961 -982.181641,2531.007813c-679.973877,169.993652 -942.389404,-159.630371 -868.852539,-472.200684c75.549805,-321.102051 447.948486,-737.046875 472.201172,-1019.961182c56.664551,-661.088623 -774.417847,-717.753174 -774.417847,-717.753174l0,0z" id="svg_2" fill="#007f3f"/>
   <path d="m649.452637,1053.472534c192.269348,279.242554 557.088867,361.737061 814.844482,184.263916c257.764526,-177.473389 310.856689,-547.714539 118.58728,-826.957184c-192.269409,-279.242599 -557.079834,-361.727932 -814.844482,-184.254776c-257.746216,177.473251 -310.847565,547.714462 -118.58728,826.948044z" id="svg_3" fill="#007f3f"/>
   <path d="m2131.623535,877.595032c164.544678,28.014893 319.932373,-78.469116 347.076904,-237.864014c27.153564,-159.394958 -77.888916,-398.972412 -242.424316,-426.987305c-164.535889,-28.033081 -319.932495,78.468994 -347.076904,237.863953c-27.144775,159.394897 77.897583,398.963379 242.424316,426.987366z" id="svg_4" fill="#007f3f"/>
   <path d="m2665.22168,762.498047c93.165527,132.150574 229.686035,157.581665 366.098145,61.415222c136.411621,-96.166382 168.497314,-370.43158 75.331787,-502.591339c-93.165527,-132.141602 -229.676758,-157.572632 -366.097656,-61.406189c-136.412109,96.166473 -168.497803,370.43161 -75.332275,502.582306z" id="svg_5" fill="#007f3f"/>
   <path d="m3235.021729,861.774231c28.622314,137.889648 171.87915,224.754089 319.986572,194.010193c148.107422,-30.743896 268.508057,-239.849487 239.885498,-377.739136c-28.62207,-137.889648 -171.878906,-224.754028 -319.977539,-194.010132c-148.098145,30.743896 -268.516846,239.849426 -239.894531,377.739075z" id="svg_6" fill="#007f3f"/>
   <path d="m3836.680664,1059.220581c-84.235107,125.63208 -68.224121,283.993408 35.748779,353.704224c103.972412,69.701904 256.540283,24.370361 340.775146,-101.270752c84.226563,-125.63208 68.215332,-283.993408 -35.757324,-353.69519c-103.972412,-69.701904 -256.540527,-24.3703 -340.766602,101.261719z" id="svg_7" fill="#007f3f"/>
  </g>
 </g>
</svg>