<?xml version="1.0" standalone="no"?>
<!DOCTYPE svg PUBLIC "-//W3C//DTD SVG 20010904//EN"
 "http://www.w3.org/TR/2001/REC-SVG-20010904/DTD/svg10.dtd">
<svg version="1.0" xmlns="http://www.w3.org/2000/svg"
 width="4096.000000pt" height="4096.000000pt" viewBox="0 0 4096.000000 4096.000000"
 preserveAspectRatio="xMidYMid meet">
<metadata>
Created by potrace 1.13, written by Peter Selinger 2001-2015
</metadata>
<g transform="translate(0.000000,4096.000000) scale(0.100000,-0.100000)"
fill="#000000" stroke="none">
<path d="M10425 33273 c-887 -71 -1669 -509 -2186 -1223 -287 -396 -457 -823
-536 -1345 -17 -115 -18 -519 -18 -10230 l0 -10110 23 -145 c153 -965 689
-1730 1537 -2194 277 -152 603 -260 955 -319 l135 -22 10070 -3 c7380 -2
10103 0 10194 8 996 90 1880 686 2352 1585 174 331 285 710 319 1086 8 91 10
2815 8 10194 l-3 10070 -23 139 c-74 450 -226 839 -472 1206 -499 746 -1310
1223 -2210 1300 -104 9 -20036 12 -20145 3z m19190 -2986 c347 -109 587 -357
684 -707 l26 -95 3 -1560 c2 -1120 0 -1587 -8 -1655 -53 -446 -406 -802 -851
-860 -59 -8 -560 -10 -1659 -8 l-1575 3 -77 22 c-387 110 -653 388 -736 768
-16 74 -17 198 -17 1670 0 1276 3 1602 13 1650 78 357 297 618 626 746 157 61
58 58 1846 56 l1635 -2 90 -28z m-8800 -4897 c912 -67 1736 -356 2482 -873
405 -281 806 -665 1106 -1060 89 -116 278 -404 358 -542 88 -155 237 -465 302
-630 175 -443 279 -893 323 -1393 20 -225 14 -747 -10 -952 -101 -838 -361
-1542 -821 -2225 -179 -265 -348 -469 -595 -715 -389 -389 -796 -684 -1280
-925 -536 -268 -1048 -418 -1675 -492 -190 -22 -814 -25 -1000 -5 -884 97
-1631 373 -2342 865 -860 596 -1517 1476 -1857 2489 -240 713 -307 1560 -185
2321 115 719 353 1331 756 1942 190 287 346 480 596 734 266 269 494 457 792
654 746 491 1514 747 2435 810 113 8 489 6 615 -3z m-7960 -2967 c-4 -16 -29
-125 -56 -243 -214 -945 -251 -1864 -113 -2835 109 -768 344 -1540 692 -2275
203 -430 545 -986 842 -1371 620 -803 1352 -1458 2210 -1976 1491 -900 3279
-1279 5020 -1062 1741 216 3346 999 4590 2239 1108 1104 1856 2494 2164 4022
106 528 150 979 150 1548 1 529 -35 912 -130 1420 -31 162 -103 489 -119 541
-6 18 27 19 1109 19 l1116 0 0 -5442 c0 -3572 -4 -5467 -10 -5513 -24 -163
-73 -294 -162 -426 -74 -111 -156 -193 -264 -265 -144 -96 -287 -147 -464
-164 -73 -8 -2797 -10 -9025 -8 -8281 3 -8925 5 -8985 20 -309 79 -534 251
-669 508 -27 52 -62 136 -78 185 l-28 90 -5 5503 c-3 3027 -3 5506 -1 5508 2
2 504 4 1114 4 l1109 0 -7 -27z"/>
</g>
</svg>
