<?xml version="1.0" encoding="utf-8"?>
<!-- Generator: Adobe Illustrator 18.1.1, SVG Export Plug-In . SVG Version: 6.00 Build 0)  -->
<svg version="1.1" id="Layer_1" xmlns="http://www.w3.org/2000/svg" xmlns:xlink="http://www.w3.org/1999/xlink" x="0px" y="0px"
	 viewBox="0 303.9 612 184.3" enable-background="new 0 303.9 612 184.3" xml:space="preserve">
<path fill="#37424A" d="M601.2,367.5c-4.5,0-8.1-3.6-8.1-8.1c0-4.5,3.6-8.1,8.1-8.1s8.1,3.6,8.1,8.1
	C609.3,363.9,605.7,367.5,601.2,367.5 M601.2,349c-5.9,0-10.8,5-10.8,10.8c0,5.9,5,10.8,10.8,10.8c5.9,0,10.8-5,10.8-10.8
	C612,353.5,607,349,601.2,349 M601.2,358.5c0.5,0,0.9,0,1.4-0.5c0.5,0,0.5-0.5,0.5-1.4c0-0.5,0-0.5,0-0.9l-0.5-0.5c0,0-0.5,0-0.9,0
	s-0.5,0-0.9,0h-1.8v2.7h2.3V358.5z M601.2,354c1.4,0,2.3,0.5,3.2,0.9c0.9,0.5,0.9,1.4,0.9,2.3c0,0.5,0,0.9,0,1.4s-0.5,0.5-0.5,0.9
	c-0.5,0-0.5,0.5-0.9,0.5c-0.5,0-0.9,0-0.9,0.5l2.7,4.5h-2.3l-2.7-4.5h-1.4v4.5h-2.3V354H601.2z M591.2,436.2
	c-1.4,13.5-11.7,51.9-60.5,51.9c-49.7,0-61.4-37.9-61.4-65.9c0-42.9,18.5-73.6,63.7-73.6c20.8,0,55.1,9.5,58.7,50.6h-35.2
	c-1.4-8.6-6.3-21.2-21.2-21.2H533c-22.1,0-27.6,22.1-27.6,38.4c0,14.5,0.5,42.9,27.1,42.9c17.6,0,23.5-17.2,23.5-23
	C556,436.2,591.2,436.2,591.2,436.2z M456.6,484.5h-34.8V351.7h34.8V484.5z M456.6,336.4h-34.8v-32.5h34.8V336.4z M384.8,351.7h21.7
	v24.8h-21.7v71.8c0,7.7,0.5,10.8,14.5,10.8c2.3,0,4.5-0.5,7.2-0.5V485c-5.4,0.5-10.8,0.5-16.3,0.5h-4.5c-30.3,0-35.7-11.3-35.7-28.5
	V377H332v-24.8H350v-36.1h34.8L384.8,351.7L384.8,351.7z M330.6,436.2c-1.4,13.5-11.7,51.9-60.5,51.9c-49.7,0-61.4-37.9-61.4-65.9
	c0-42.9,18.5-73.6,63.7-73.6c20.8,0,55.1,9.5,58.7,50.6h-35.2c-1.4-8.6-6.3-21.2-21.2-21.2h-1.8c-22.1,0-27.6,22.1-27.6,38.4
	c0,14.5,0.5,42.9,27.1,42.9c17.6,0,23.5-17.2,23.5-23C295.8,436.2,330.6,436.2,330.6,436.2z M163,419.9c-3.6,2.7-9,5-23.5,7.2
	c-13.1,2.3-23.5,5.4-23.5,19.9c0,12.2,9.5,15.8,16.3,15.8c15.4,0,31.2-9.9,31.2-26.2v-16.7H163z M197.4,458.3
	c0,15.8,3.6,19,7.7,20.8v5.4h-37.9c-1.8-6.3-2.7-8.1-3.2-15.8c-8.1,8.1-19,19-42.9,19c-19.9,0-40.2-11.3-40.2-38.4
	c0-25.7,16.3-39.3,38.4-42.5l31.2-4.5c5.4-0.9,12.2-3.2,12.2-10.4c0-14.9-14-15.4-23-15.4c-17.6,0-20.3,10.8-21.2,18.5H84.9
	c4.1-40.6,32.1-46.5,59.2-46.5c18.5,0,52.8,5.9,52.8,38.4v71.4H197.4z M52.8,351.7h21.7v24.8H52.8v71.8c0,7.7,0.5,10.8,14.5,10.8
	c2.3,0,4.5-0.5,7.2-0.5V485c-5.4,0.5-10.8,0.5-16.3,0.5h-4.5c-30.3,0.5-35.7-10.8-35.7-28V377H0v-24.8h18.1v-36.1h34.8V351.7z"/>
</svg>
