<svg width="543" height="149" viewBox="0 0 543 149" xmlns="http://www.w3.org/2000/svg" xmlns:sketch="http://www.bohemiancoding.com/sketch/ns"><title>mead</title><g sketch:type="MSLayerGroup" fill="#6E6E6E"><path d="M228.915 32.105c-13.63 0-26.162 4.759-36.018 12.685l-1.561 1.535c-2.898-25.792-25.161-45.856-52.18-45.856-17.188 0-32.452 8.116-42.021 20.667l-.33-.104c-9.578-12.535-24.836-20.662-42.032-20.662-27.019 0-51.162 21.772-54.057 47.561 0 0-.404 4.394-.404 4.996v94.533h21.745v-93.93c0-17.474 14.167-31.645 31.652-31.645s32.76 13.969 32.76 31.443v94.132h21.649v-93.728c0-17.474 14.164-31.636 31.647-31.636 17.477 0 31.658 14.16 31.658 31.636v35.853c0 31.748 25.747 57.469 57.501 57.469 24.165 0 44.594-14.695 53.094-35.815h-23.518c-6.674 9.085-17.439 14.989-29.576 14.989-16.77 0-30.7-11.272-35.063-26.648h92.075c4.21-12.815-4.055-32.444-4.055-32.444-8.756-20.585-29.18-35.032-52.966-35.032zm-35.352 48.488c4.008-15.892 18.407-27.665 35.554-27.665 17.13 0 31.521 11.746 35.546 27.622l-71.1.044zM346.741 33.914c-31.652 0-57.312 25.653-57.312 57.273 0 31.631 25.66 57.267 57.312 57.267 9.296 0 17.963-2.247 25.671-6.172v-26.885c-.881.979-1.774 1.909-2.674 2.733l-.068.109c-6.197 5.225-14.192 8.397-22.926 8.397-19.704 0-35.669-15.968-35.669-35.64 0-19.696 15.968-35.651 35.669-35.651 19.698 0 35.663 15.955 35.663 35.651v.723l-.085.545v43.036l.085-.038v12.202h21.638v-56.277c-.003-31.623-25.663-57.273-57.304-57.273zM499.231 1.912v45.417l-.06-.044v39.897c.147 1.315.235 2.648.235 4.004 0 19.909-16.143 36.055-36.059 36.055-19.933 0-36.064-16.145-36.064-36.055 0-19.915 16.132-36.044 36.064-36.044 10.227 0 19.439 4.274 26.001 11.108v-25.268c-7.758-3.957-16.516-6.229-25.816-6.229-31.423 0-56.892 25.462-56.892 56.872 0 31.415 25.469 56.877 56.892 56.877 31.429 0 56.906-25.465 56.906-56.877l.207-89.714h-21.414z" id="Shape" sketch:type="MSShapeGroup"/><g sketch:type="MSShapeGroup"><path d="M529.38 120.993c-7.365 0-13.58 5.64-13.58 13.315 0 7.737 6.213 13.405 13.58 13.405 7.28 0 13.504-5.667 13.504-13.405 0-7.672-6.224-13.315-13.504-13.315zm0 24.483c-6.123 0-10.898-4.735-10.898-11.168 0-6.314 4.775-11.103 10.898-11.103 6.044 0 10.814 4.789 10.814 11.103-.003 6.434-4.772 11.168-10.814 11.168zM535.528 131.029c0-3.035-1.806-4.394-5.452-4.394h-5.867v15.409h2.338v-6.668h2.685l4.06 6.668h2.622l-4.39-6.783c2.268-.275 4.003-1.478 4.003-4.233zm-8.98 2.375v-4.784h3.182c1.621 0 3.354.349 3.354 2.275 0 2.343-1.765 2.509-3.757 2.509h-2.778z"/></g></g></svg>