<?xml version="1.0" encoding="utf-8"?>
<!-- Generator: Adobe Illustrator 20.1.0, SVG Export Plug-In . SVG Version: 6.00 Build 0)  -->
<svg version="1.1" baseProfile="tiny" id="Layer_1" xmlns="http://www.w3.org/2000/svg" xmlns:xlink="http://www.w3.org/1999/xlink"
	 x="0px" y="0px" viewBox="0 0 77 77" xml:space="preserve">
<g>
	<g>
		<path fill="#D0D0D0" d="M38.501,77c-21.229,0-38.5-17.271-38.5-38.5S17.272,0,38.501,0c21.228,0,38.499,17.271,38.499,38.5
			S59.728,77,38.501,77z M38.501,2.024C18.388,2.024,2.024,18.387,2.024,38.5s16.363,36.476,36.476,36.476
			S74.976,58.613,74.976,38.5S58.614,2.024,38.501,2.024z"/>
		<g>
			<g>
				<path fill="#4D5152" d="M43.428,39.262c-0.564,0-1.022-0.457-1.022-1.022V22.669c0-0.491-0.191-0.953-0.539-1.3
					c-0.347-0.347-0.809-0.539-1.3-0.539H40.15c-0.564,0-1.022-0.457-1.022-1.022c0-0.564,0.457-1.022,1.022-1.022h0.418
					c1.037,0,2.012,0.404,2.745,1.137c0.733,0.733,1.137,1.708,1.137,2.745V38.24C44.45,38.804,43.993,39.262,43.428,39.262z"/>
				<path fill="#4D5152" d="M18.853,39.262c-0.564,0-1.022-0.457-1.022-1.022V22.669c0-1.037,0.404-2.012,1.136-2.745
					c0.733-0.733,1.708-1.137,2.745-1.137h0.417c0.564,0,1.022,0.457,1.022,1.022c0,0.564-0.457,1.022-1.022,1.022h-0.417
					c-0.491,0-0.953,0.191-1.3,0.539c-0.348,0.347-0.539,0.809-0.539,1.3V38.24C19.875,38.804,19.418,39.262,18.853,39.262z"/>
				<path fill="#4D5152" d="M58.357,56.924c-3.205,0-5.812-2.608-5.812-5.813c0-3.206,2.607-5.814,5.812-5.814
					c3.206,0,5.814,2.608,5.814,5.814C64.172,54.316,61.563,56.924,58.357,56.924z M58.357,47.34c-2.079,0-3.769,1.692-3.769,3.771
					c0,2.079,1.691,3.77,3.769,3.77c2.079,0,3.771-1.691,3.771-3.77C62.129,49.032,60.437,47.34,58.357,47.34z"/>
				<path fill="#4D5152" d="M40.01,66.324c-5.454,0-9.891-4.437-9.891-9.891v-1.204h2.043v1.204c0,4.327,3.521,7.848,7.848,7.848
					c4.327,0,7.848-3.521,7.848-7.848v-21.08c0-3.177,2.585-5.761,5.761-5.761c3.176,0,5.76,2.585,5.76,5.761v10.966h-2.043V35.352
					c0-2.05-1.667-3.718-3.717-3.718c-2.05,0-3.718,1.668-3.718,3.718v21.08C49.901,61.887,45.464,66.324,40.01,66.324z"/>
			</g>
			<g>
				<path fill="#8ABFB8" d="M31.141,52.163c-7.676,0-13.922-6.246-13.922-13.923h3.269c0,5.875,4.779,10.654,10.653,10.654
					c5.874,0,10.653-4.779,10.653-10.654h3.269C45.063,45.917,38.817,52.163,31.141,52.163z"/>
				<rect x="29.506" y="50.529" fill="#8ABFB8" width="3.269" height="4.701"/>
			</g>
			<circle fill="#D36F62" cx="58.358" cy="51.111" r="2.248"/>
		</g>
	</g>
</g>
</svg>
