<?xml version="1.0" encoding="utf-8"?>
<!-- Generator: Adobe Illustrator 18.1.1, SVG Export Plug-In . SVG Version: 6.00 Build 0)  -->
<!DOCTYPE svg PUBLIC "-//W3C//DTD SVG 1.1//EN" "http://www.w3.org/Graphics/SVG/1.1/DTD/svg11.dtd">
<svg version="1.1" id="Layer_1" xmlns="http://www.w3.org/2000/svg" xmlns:xlink="http://www.w3.org/1999/xlink" x="0px" y="0px"
	 viewBox="0 0 600 383.8" enable-background="new 0 0 600 383.8" xml:space="preserve">
<g>
	<g>
		
			<rect x="91.5" y="31.8" fill="#FFFFFF" stroke="#2BB673" stroke-width="2" stroke-linejoin="round" stroke-miterlimit="10" width="207.7" height="320.1"/>
		<rect x="91.5" y="31.8" fill="#2BB673" width="207.7" height="61.9"/>
		<g>
			<rect x="103.2" y="108.4" fill="#2BB673" width="85.8" height="69.8"/>
			<rect x="199.6" y="108.4" fill="#2BB673" width="85.8" height="69.8"/>
		</g>
		<g>
			<rect x="103.2" y="188.4" fill="#2BB673" width="85.8" height="69.8"/>
			<rect x="199.6" y="188.4" fill="#2BB673" width="85.8" height="69.8"/>
		</g>
		<g>
			<rect x="103.2" y="268.4" fill="#2BB673" width="85.8" height="69.8"/>
			<rect x="199.6" y="268.4" fill="#2BB673" width="85.8" height="69.8"/>
		</g>
	</g>
	<g>
		<g>
			<path fill="none" stroke="#1D1945" stroke-width="2" stroke-linecap="round" stroke-miterlimit="10" d="M310.5,191.9
				c17.1,0,33.8,0,52.7,0"/>
			<g>
				<polygon fill="#1D1945" points="357.3,195.1 356.9,194.1 363.1,191.9 356.9,189.7 357.3,188.7 366,191.9 				"/>
			</g>
		</g>
	</g>
	<path fill="#F1F2F2" d="M508.5,326.7c0,3.9-3.2,7.1-7.1,7.1H386.5c-3.9,0-7.1-3.2-7.1-7.1V87.8c0-3.9,3.2-7.1,7.1-7.1h114.9
		c3.9,0,7.1,3.2,7.1,7.1V326.7z"/>
	
		<rect x="390.4" y="111.9" fill="#FFFFFF" stroke="#2BB673" stroke-width="2" stroke-linejoin="round" stroke-miterlimit="10" width="107.2" height="189.1"/>
	<rect x="390.4" y="111.9" fill="#2BB673" width="107.2" height="32"/>
	<rect x="410.6" y="154" fill="#2BB673" width="66.7" height="49.7"/>
	<rect x="410.6" y="213.5" fill="#2BB673" width="66.7" height="49.7"/>
	<rect x="410.6" y="273" fill="#2BB673" width="66.7" height="28.1"/>
	<path fill="#E6E7E8" d="M456.4,95.7c0,1.6-1.3,3-3,3h-18.9c-1.6,0-3-1.3-3-3l0,0c0-1.6,1.3-3,3-3h18.9
		C455.1,92.7,456.4,94.1,456.4,95.7L456.4,95.7z"/>
	<circle fill="#E6E7E8" cx="444" cy="318.3" r="9.5"/>
	
		<line fill="none" stroke="#1D1945" stroke-width="2" stroke-linecap="round" stroke-miterlimit="10" stroke-dasharray="5,8" x1="444" y1="352" x2="444" y2="50"/>
</g>
</svg>
