<?xml version="1.0" encoding="utf-8"?>
<!-- Generator: Adobe Illustrator 19.1.0, SVG Export Plug-In . SVG Version: 6.00 Build 0)  -->
<svg version="1.1" xmlns="http://www.w3.org/2000/svg" xmlns:xlink="http://www.w3.org/1999/xlink" x="0px" y="0px"
	 viewBox="0 0 88 88" style="enable-background:new 0 0 88 88;" xml:space="preserve">
<style type="text/css">
	.st0{display:none;}
	.st1{display:inline;opacity:0.35;}
	.st2{fill:#00AEEF;}
	.st3{display:inline;fill:none;stroke:#808080;stroke-width:0.1;stroke-miterlimit:10;}
	.st4{display:inline;}
	.st5{fill:#808080;}
	.st6{display:inline;fill:none;stroke:#00AEEF;stroke-width:0.1;stroke-miterlimit:10;}
	.st7{fill:#252F65;}
	.st8{fill:#4287FF;}
	.st9{fill:none;stroke:#252F65;stroke-width:5;stroke-miterlimit:10;}
	.st10{fill:#BBBDBF;}
</style>
<g id="Grid" class="st0">
	<g class="st1">
		<rect x="4" y="4" class="st2" width="80" height="80"/>
	</g>
	<line class="st3" x1="4" y1="84" x2="84" y2="4"/>
	<line class="st3" x1="84" y1="84" x2="4" y2="4"/>
	<g class="st4">
		<path class="st5" d="M88,0v88H0V0H88 M88.1-0.1L88.1-0.1H0h-0.1V0v88v0.1H0h88h0.1V88V0V-0.1L88.1-0.1z"/>
	</g>
	<circle class="st3" cx="44" cy="44" r="40"/>
	<path class="st3" d="M83,68.1H5c-0.5,0-1-0.5-1-1V20.9c0-0.5,0.5-1,1-1h78c0.6,0,1,0.5,1,1v46.3C84,67.7,83.5,68.1,83,68.1z"/>
	<path class="st3" d="M19.9,83V5c0-0.6,0.5-1,1-1h46.3c0.6,0,1,0.4,1,1v78c0,0.6-0.4,1-1,1H20.9C20.3,84,19.9,83.6,19.9,83z"/>
	<path class="st3" d="M11.4,75.6V12.2c0-0.6,0.4-1,1-1h63.2c0.6,0,1,0.4,1,1v63.4c0,0.6-0.4,1-1,1H12.4
		C11.9,76.6,11.4,76.2,11.4,75.6z"/>
	<circle class="st3" cx="44" cy="43.9" r="15"/>
</g>
<g id="Icons">
	<g>
		<path class="st7" d="M65.8,47.2c-10,0-18.2,8.2-18.2,18.2h5c0-7.3,5.9-13.2,13.2-13.2S79,58.1,79,65.4h5
			C84,55.4,75.8,47.2,65.8,47.2z"/>
		<path class="st7" d="M65.8,45.9c5.4,0,9.8-4.4,9.8-9.8c0-5.4-4.4-9.8-9.8-9.8S56,30.7,56,36.1C56,41.5,60.4,45.9,65.8,45.9z
			 M65.8,31.3c2.6,0,4.8,2.1,4.8,4.8s-2.1,4.8-4.8,4.8c-2.6,0-4.8-2.1-4.8-4.8S63.1,31.3,65.8,31.3z"/>
		<path class="st7" d="M22.3,47.2c-10,0-18.2,8.2-18.2,18.2h5c0-7.3,5.9-13.2,13.2-13.2s13.2,5.9,13.2,13.2h5
			C40.4,55.4,32.3,47.2,22.3,47.2z"/>
		<path class="st7" d="M12.5,36.1c0,5.4,4.4,9.8,9.8,9.8s9.8-4.4,9.8-9.8c0-4.2-2.7-7.8-6.5-9.2h9.3v-5H9.7v5H19
			C15.2,28.3,12.5,31.9,12.5,36.1z M27,36.1c0,2.6-2.1,4.8-4.8,4.8s-4.8-2.1-4.8-4.8s2.1-4.8,4.8-4.8S27,33.5,27,36.1z"/>
	</g>
	<circle class="st8" cx="44" cy="44" r="3"/>
</g>
<g id="Labels">
</g>
</svg>
