<svg id="Layer_1" xmlns="http://www.w3.org/2000/svg" viewBox="0 0 2048 2048"><style>.st0{fill:#754B3C;} .st1{fill:#7F5A4B;} .st2{fill:#CB987C;} .st3{fill:#FFC952;} .st4{fill:#DBA58A;} .st5{fill:#DDAF9B;} .st6{fill:#FFFFFF;} .st7{fill:#B6856D;} .st8{fill:none;} .st9{fill:#4C290F;}</style><g id="XMLID_26_"><path id="XMLID_24_" class="st0" d="M1025.2 919.4l-246-246-246-123h-.1l-123-369 123.1 246 368.9 123.1z"/><path id="XMLID_23_" class="st1" d="M1640.3 181.4l-123 369-246.1 123-246 246 123.1-368.9 368.9-123.1z"/><path id="XMLID_22_" class="st2" d="M1517.2 427.4l-368.9 123.1-123.1 368.9-123.1-368.9-368.9-123.1 368.9-122.9h246z"/><path id="XMLID_21_" class="st3" d="M1148.3 1165.5l-123.1 245.9-123.1-246 123.1-123 123 123z"/><path id="XMLID_20_" class="st4" d="M1025.2 1411.4v246l-248.1-248.1h4.1l120.9-243.9z"/><path id="XMLID_19_" class="st5" d="M1273.4 1409.3l-248.2 248.1v-246l123.1-245.9 120.9 243.8z"/><path id="XMLID_18_" class="st6" d="M777.1 1409.3l-13.7-13.7"/><path id="XMLID_17_" class="st6" d="M1290.1 1392.6l-16.7 16.7"/><path id="XMLID_47_" class="st2" d="M1361.1 1244.4l-152.7-264.6 152.7-264.5h296.2l107.8-164.9h-247.8l-246.1 123-246 246v123l123 123 .1.1 120.9 243.8h495.9l-98.5-164.9h-305.5z"/><path id="XMLID_15_" class="st4" d="M2013 979.8l-247.9 429.5-98.5-164.9 152.7-264.6z"/><path id="XMLID_14_" class="st5" d="M2013 979.8h-193.7l-152.7-264.5h-9.3l107.8-164.9z"/><path id="XMLID_43_" class="st7" d="M779.2 673.4l-246-123H285.3l95.1 164.9h305.5l152.7 264.5-152.7 264.6H380.4l-95.1 164.9h495.9l120.9-243.9 123-123v-123l-245.9-246z"/><path id="XMLID_12_" class="st0" d="M380.4 1244.4l-95.1 164.9L37.4 979.8h190.2z"/><path id="XMLID_11_" class="st1" d="M380.4 715.3L227.6 979.8H37.4l247.9-429.4z"/><path id="XMLID_10_" class="st8" d="M1517.3 550.4h-.1"/><path id="XMLID_36_" class="st3" d="M685.9 715.3H380.4L227.6 979.8l152.8 264.6h305.5l152.7-264.6-152.7-264.5zm-46.9 448H427.2L321.3 979.8l105.9-183.4H639l105.9 183.4L639 1163.3z"/><path id="XMLID_7_" class="st9" d="M744.9 979.8L639 1163.3H427.2L321.3 979.8l105.9-183.4H639z"/><path id="XMLID_31_" class="st3" d="M1666.6 715.3h-305.5l-152.7 264.5 152.7 264.6h305.5l152.7-264.6-152.7-264.5zm-43.5 448h-211.8l-105.9-183.5 105.9-183.4h211.8L1729 979.8l-105.9 183.5z"/><path id="XMLID_4_" class="st9" d="M1729 979.8l-105.9 183.5h-211.8l-105.9-183.5 105.9-183.4h211.8z"/><path id="XMLID_3_" class="st6" d="M1025.2 1075.8v-33.4"/><path id="XMLID_2_" class="st8" d="M1025.2 919.4v-27.3"/><path id="XMLID_1_" class="st8" d="M1657.3 715.3l-17.6 26.9"/></g></svg>