<svg version="1.1" id="Layer_1" xmlns="http://www.w3.org/2000/svg" xmlns:xlink="http://www.w3.org/1999/xlink" x="0px" y="0px"
	 viewBox="0 0 200 300" enable-background="new 0 0 200 300" xml:space="preserve">
<path fill="#f04237" d="M165.8,29.5c-33.9-25.3-65-28.8-82.4-22.9s-13.2,23-13.2,23s-8.7-0.1-18.7,1.6c-10,1.6-28.1,5.8-35.2,20.5
	C9.1,66.3,19,79.1,19,79.1s-4.4,3.7-5.4,11.7s4.2,17.1,4.2,17.1s-4.7,3.6-5.1,12.7c-0.4,9,4.2,17.1,4.2,17.1s-4.9,4.5-3.8,14.7
	c1,9,6.6,20.4,24.9,29.6c12,6,25.6,8.5,33.6,9.6l0,0c-16.7,4.6-28.5,14.8-28.5,26.8c0,1.5,0.2,2.9,0.5,4.4l5.5,43.5
	c-0.1,11.1,11.2,20.5,27.1,24.3c0.4,4.8,6.8,8.6,14.7,8.7s14.3-3.7,14.8-8.5c15.9-3.6,27.3-12.9,27.4-24l6-43.4
	c0.3-1.4,0.6-2.9,0.6-4.3c0-4.2-1.4-8.2-4-11.9c15.3-4.2,28.4-14.7,37.3-29.7c10.8-18,3.9-29.4,3.9-29.4s3.4-7.7,4.4-16
	c1.1-8.3-1.2-15.1-1.2-15.1s4.1-8.7,4.4-14.3c0.4-5.7-2.3-14.1-2.3-14.1S199.7,54.8,165.8,29.5z M175.4,84.9l-0.5,1
	c-4.3,6.8-20.1,29.7-58.3,37c-38.4,7.3-63,1-69-1.6s-6.7,0.4-1.4,2.8c5.3,2.3,30.3,12.4,71.5,5.1c35.9-6.4,54.5-27.2,58.6-32.4
	c0.4,2,0.6,4,0.5,5.4c-0.2,2.9-2.3,8.4-3.7,11.5c-4.3,8.5-20.2,27.7-52.8,38.1c-29.7,9.5-62.8,3.3-70.8,1.2
	c-6.4-1.7-6.7,1.2-0.7,3.2c8.3,2.9,36.6,12.9,73.6,2.1c30.8-9,46.6-26.5,51.5-32.8c0.1,1.7,0.1,3.6-0.1,5.6
	c-0.9,7-3.8,13.7-3.8,13.8c-2.8,6.2-16.3,23.2-36.1,30.4s-33.2,9-33.2,10.1s12.9,2.4,34.3-4.2c18.9-5.8,31.6-20.1,36.3-26.1
	c0.6,3.5,0.4,9.7-4.7,18.3c-9.8,16.2-20.9,24.3-39.1,28.3c-18.1,4-29.5,2.8-29.5,2.8l0,0c-1.4-0.2-3.1-0.4-4.2-0.6
	c-2-0.5-4.2-0.7-4.5,0c-0.3,0.6,2.5,3.7,8.7,5v7.2c0,1.4-5.4,2.1-7.3,2.1c-0.9,0-6.4-0.4-6.4-1.9l0.2-23.8v-7.6l-5.3-0.4
	c-0.2,0-20.7-1.2-37.3-9.5c-12.5-6.2-19.6-14.3-20.5-23.3c-0.6-5.7,1.4-8.2,1.5-8.2l-0.3,0.3l4.5-4.5l-3-5.3c0-0.1-3.5-6.3-3.2-12.8
	c0.2-4.9,2.2-6.9,2.3-7l-0.3,0.2l5.3-4.5l-3.3-5.8c-1-1.8-3.8-7.8-3.2-12.1c0.6-4.6,2.7-6.7,2.8-6.8l-0.2,0.2l0.7-0.6
	c6.5,5.5,20.4,15.2,40.1,16.8c19,1.5,45.8,0.9,60.6-13.7s6.4-34.1,2.8-37.6c-3.5-3.6-4.1-2.9-2.6,0.1s9.1,18.3-2.7,32.2
	S88.6,97.9,66.7,96S32,81.5,27.3,77l0,0l-1.8-2.4c-0.3-0.4-6.8-9.3-2-19.1c4-8.2,13.9-13.7,29.3-16.1c9.2-1.5,17.4-1.5,17.4-1.5h2.9
	c1.8,3.9,4.7,8.8,9.1,12.8c1.7,1.6,4,3.2,6.4,4.9c-2.8-0.3-7.2-0.6-13.1-0.3c-11.2,0.5-22.8,2.1-23.7,7.9c-1,5.8,8.2,10.1,26.4,10.6
	s27.3-1.4,26.8-7.9s-5.3-7.4-14.4-15.8c-9-8.3-12.3-19-12.3-19.2c-0.3-1.2-0.6-2.4-0.7-3.3c-0.5-3.5-1-9.9,8.5-13.1
	c14.6-4.9,43-2.2,75.1,21.8C189,56.7,175.9,83.7,175.4,84.9z M95,60.5c1.3,1.4,2.3,2.8,2.5,4.1c0.6,4.1-10.4,3.6-18.9,3.6
	c-7.9-0.1-20-1.7-20.1-5.1s15.3-3.6,22.5-3.3C86.7,60.1,92.6,60.4,95,60.5z"/>
</svg>
