<?xml version="1.0" encoding="utf-8"?>
<!-- Generator: Adobe Illustrator 19.1.0, SVG Export Plug-In . SVG Version: 6.00 Build 0)  -->
<svg version="1.1" id="Layer_1" xmlns="http://www.w3.org/2000/svg" xmlns:xlink="http://www.w3.org/1999/xlink" x="0px" y="0px"
	 viewBox="0 0 135 55" enable-background="new 0 0 135 55" xml:space="preserve">
<g>
	<path fill="#3F4446" d="M29.5,36.7v-18h-2.7v18.1c0,4.3,2.7,6.6,6.6,6.1v-2.6C31.3,40.4,29.5,39.7,29.5,36.7"/>
	<path fill="#3F4446" d="M41.5,40.7c-3.1,0-5.6-2.7-5.6-6.1c0-3.5,2.5-6.2,5.6-6.2c3.1,0,5.6,2.8,5.6,6.2
		C47.2,38,44.7,40.7,41.5,40.7 M41.5,25.7c-4.7,0-8.4,4-8.4,8.9c0,4.8,3.7,8.8,8.4,8.8s8.4-3.9,8.4-8.8C50,29.7,46.3,25.7,41.5,25.7
		"/>
	<polygon fill="#3F4446" points="83.3,26.2 79.2,26.2 71.6,33.7 71.6,18.7 68.8,18.7 68.8,42.9 71.6,42.9 71.6,37.6 74.8,34.4 
		80.5,42.9 83.8,42.9 76.8,32.5 	"/>
	<path fill="#3F4446" d="M84.9,32.8c0.7-2.9,3.2-4.6,5.4-4.6c2.5,0,4.7,1.8,5.4,4.6H84.9z M90.3,25.7c-4.6,0-8.4,4-8.4,8.8
		c0,4.9,3.7,8.8,8.5,8.8c3.9,0,6.7-2,7.9-5.6h-2.9c-0.9,1.9-2.6,3.1-5,3.1c-2.7,0-5.4-2-5.8-5.6h14C98.8,29.3,94.6,25.7,90.3,25.7"
		/>
	<path fill="#3F4446" d="M102.8,28.1v-1.9h-2.6V43h2.7v-9.8c0-3.3,2.5-4.9,5.3-4.7v-2.7C106.4,25.6,104.1,26.3,102.8,28.1"/>
	<path fill="#662B80" d="M59.1,25.7c-1.2,0-2.4,0.3-3.5,0.8l1.8,2.2c0.5-0.2,1.1-0.3,1.7-0.3c3.1,0,5.7,2.8,5.7,6.2
		c0,3.3-2.5,6.1-5.7,6.1c-3.1,0-5.6-2.7-5.6-6.1c0-2,0.9-3.9,2.3-5l-1.7-2.1c-2,1.6-3.4,4.2-3.4,7.1c0,4.8,3.7,8.8,8.4,8.8
		s8.4-3.9,8.4-8.8C67.5,29.7,63.9,25.7,59.1,25.7"/>
	<path fill="#662B80" d="M54.5,22.6c0,0.7-0.3,1.3-0.8,1.8l1.2,1.5c0.9-0.8,1.5-1.9,1.5-3.2c0-0.9-0.3-1.8-0.8-2.5l-1.4,1.2
		C54.3,21.8,54.5,22.2,54.5,22.6"/>
	<path fill="#662B80" d="M52.1,25.1c-1.3,0-2.4-1.1-2.4-2.4c0-1.3,1.1-2.4,2.4-2.4c0.5,0,0.9,0.1,1.3,0.4l1.5-1.3
		c-0.8-0.6-1.7-1-2.7-1c-2.4,0-4.3,1.9-4.3,4.3s1.9,4.3,4.3,4.3c0.6,0,1.2-0.1,1.7-0.4L52.5,25C52.4,25.1,52.2,25.1,52.1,25.1"/>
	<path fill="#662B80" d="M59.6,14.7c1,0,1.8,0.8,1.8,1.8s-0.8,1.8-1.8,1.8c-0.5,0-1-0.2-1.3-0.6l-1.1,0.9c0.6,0.6,1.5,1.1,2.4,1.1
		c1.8,0,3.2-1.5,3.2-3.3c0-1.8-1.5-3.3-3.2-3.3c-1.1,0-2,0.5-2.6,1.3l1.4,0.6C58.8,14.9,59.1,14.7,59.6,14.7"/>
	<path fill="#662B80" d="M57.8,16.5c0-0.4,0.1-0.6,0.2-0.9l-1.3-0.5c-0.2,0.4-0.4,0.9-0.4,1.4c0,0.6,0.1,1.1,0.4,1.5l1.1-1
		C57.9,16.9,57.8,16.7,57.8,16.5"/>
	<path fill="#662B80" d="M52.8,16c0.9,0,1.7-0.6,2-1.4l-0.9-0.4c-0.2,0.5-0.6,0.8-1.2,0.8c-0.6,0-1.2-0.5-1.2-1.2
		c0-0.6,0.5-1.2,1.2-1.2c0.6,0,1.2,0.5,1.2,1.2l0.9,0.4c0-0.1,0.1-0.2,0.1-0.4c0-1.2-1-2.2-2.2-2.2s-2.2,1-2.2,2.2
		C50.7,15,51.7,16,52.8,16"/>
</g>
</svg>
