<?xml version="1.0" encoding="utf-8"?>
<!-- Generator: Adobe Illustrator 19.0.0, SVG Export Plug-In . SVG Version: 6.00 Build 0)  -->
<svg version="1.1" id="Layer_1" xmlns="http://www.w3.org/2000/svg" xmlns:xlink="http://www.w3.org/1999/xlink" x="0px" y="0px"
	 viewBox="238 204 171 213" style="enable-background:new 238 204 171 213;" xml:space="preserve">
<style type="text/css">
	.st0{fill:#D7A433;}
	.st1{fill:none;stroke:#D7A433;stroke-width:6.4;stroke-miterlimit:10;}
	.st2{fill:none;stroke:#D7A433;stroke-width:6.3474;stroke-miterlimit:10;}
</style>
<g>
	<g>
		<g>
			<g>
				<path class="st0" d="M245,387.7h6.4v8.7h7.2v-8.7h6.3v23h-6.3v-9h-7.2v9H245V387.7z"/>
				<path class="st0" d="M285.8,387.3c7.4,0,12.2,5.4,12.2,11.9c0,6.6-4.7,11.9-12.2,11.9c-7.4,0-12.2-5.4-12.2-11.9
					C273.6,392.7,278.4,387.3,285.8,387.3z M285.8,405.9c3.7,0,5.8-2.9,5.8-6.7c0-3.8-2.1-6.6-5.8-6.6c-3.7,0-5.7,2.9-5.7,6.6
					C280.1,403,282.2,405.9,285.8,405.9z"/>
				<path class="st0" d="M318,387.3c7.4,0,12.2,5.4,12.2,11.9c0,6.6-4.7,11.9-12.2,11.9c-7.4,0-12.2-5.4-12.2-11.9
					C305.8,392.7,310.6,387.3,318,387.3z M318,405.9c3.7,0,5.8-2.9,5.8-6.7c0-3.8-2.1-6.6-5.8-6.6c-3.7,0-5.7,2.9-5.7,6.6
					C312.3,403,314.4,405.9,318,405.9z"/>
				<path class="st0" d="M338.9,387.7h8.2c8.4,0,12.9,4.2,12.9,11.4c0,7.4-4.1,11.7-12.9,11.7h-8.2V387.7z M347.6,405.7
					c3.9,0,5.9-2.5,5.9-6.6c0-3.9-2.1-6.4-5.9-6.4h-2.4v13H347.6z"/>
				<path class="st0" d="M368.5,387.7h6.4v23h-6.4V387.7z"/>
				<path class="st0" d="M384.3,387.7h17.4v5.5h-11v3.5h9.7v4.7h-9.7v3.9h11.1v5.5h-17.5V387.7z"/>
			</g>
		</g>
	</g>
	<g>
		<g>
			<g>
				<path class="st0" d="M255,358l-12.7-20.7H253l6.7,11.2h0.1l6.7-11.2h10.8L264.6,358v13.7H255V358z"/>
				<path class="st0" d="M288.8,337.3h25.9v8.2h-16.5v5.3h14.5v7.1h-14.5v5.7h16.6v8.2h-26.1v-34.5H288.8z"/>
				<path class="st0" d="M338.1,337.3h10.6l12,34.4h-10.2l-1.6-5.1h-11.1l-1.5,5.1H326L338.1,337.3z M339.9,359.6h6.9l-3.4-11.3
					h-0.1L339.9,359.6z"/>
				<path class="st0" d="M372.4,337.3h15.5c10.6,0,14.1,5.5,14.1,11.3c0,3.9-1.8,7.4-5.8,9.3l6.1,13.8h-10.1l-4.5-12.2h-5.8v12.2
					h-9.5L372.4,337.3L372.4,337.3z M387.8,352.8c2.9,0,4.7-1.4,4.7-4.1c0-2.8-1.9-4.1-4.7-4.1H382v8.2H387.8z"/>
			</g>
		</g>
	</g>
	<g>
		<path class="st1" d="M267.5,314.7v-68.3l-13.8,5.6l-8.3-22.9l31-14.9h19.4v100.6h-28.3V314.7z"/>
		<path class="st2" d="M358.6,212.6c24,0,43.3,19.6,43.3,52c0,32.8-19.3,52.4-43.3,52.4s-43.4-19.6-43.4-52.4
			C315.2,232.2,334.7,212.6,358.6,212.6z M358.6,290.5c9.9,0,15.5-10.4,15.5-25.8c0-15.3-5.6-25.3-15.5-25.3s-15.5,10.1-15.5,25.3
			C343.1,280,348.8,290.5,358.6,290.5z"/>
	</g>
</g>
</svg>
