<?xml version="1.0" encoding="utf-8"?>
<!-- Generator: Adobe Illustrator 17.1.0, SVG Export Plug-In . SVG Version: 6.00 Build 0)  -->
<!DOCTYPE svg PUBLIC "-//W3C//DTD SVG 1.1//EN" "http://www.w3.org/Graphics/SVG/1.1/DTD/svg11.dtd">
<svg version="1.1" id="Layer_1" xmlns="http://www.w3.org/2000/svg" xmlns:xlink="http://www.w3.org/1999/xlink" x="0px" y="0px"
	 viewBox="0 0 1099.102 540.101" enable-background="new 0 0 1099.102 540.101" xml:space="preserve">
<g>
	<path fill="#EE3440" d="M504.46,214.877h33.228v14.241h0.562c6.426-10.048,19.823-18.425,35.742-18.425s30.714,8.377,37.694,19.541
		h0.562c7.261-10.891,21.502-19.541,38.537-19.541c36.015,0,57.516,20.939,57.516,50.818v98.925h-33.228v-91.383
		c0-13.405-6.98-24.851-25.686-24.851c-17.036,0-25.413,10.048-25.413,22.891v93.343h-33.228v-91.383
		c0-13.405-8.377-24.851-25.694-24.851c-17.309,0-25.405,10.048-25.405,22.891v93.343H504.46V214.877z"/>
	<g>
		<path fill="#EE3440" d="M791.035,210.692c-35.461,0-58.129,18.759-60.455,48.726h34.769c0.806-19.608,25.848-18.012,26.248-18.012
			c17.59,0,25.132,7.261,25.132,15.638c0,8.377-3.076,9.007-38.256,17.666c-35.461,8.658-50.264,19.55-50.264,46.071
			c0,22.345,15.076,43.838,53.332,43.838c29.879,0,40.216-18.425,40.216-18.425h0.554v14.524h30.441v-94.104
			C852.753,224.165,824.263,210.692,791.035,210.692z M817.846,311.569c0,10.891-9.212,21.783-32.955,21.783
			c-12.843,0-21.774-3.912-21.774-15.084c0-6.136,1.952-13.397,22.618-18.425c28.763-7.261,30.441-10.891,32.112-13.959l0,0V311.569
			z"/>
	</g>
	<path fill="#EE3440" d="M953.833,248.282v-32.614h-29.954v-37.084h-35.188v37.084h-21.297v32.614h21.297v61.866
		c0,35.188,10.053,52.777,46.765,52.777h18.377v-35.26h-9.569c-16.755,0-19.831-6.417-19.831-21.22v-58.164H953.833z"/>
	<path fill="#EE3440" d="M217.395,178.736h19.987v-34.385h-22.655c-13.706,0-25.09,3.804-34.151,11.409
		c-9.289,8.191-13.39,20.947-13.39,38.262v21.492h-21.292v32.668h20.914v112.254h35.461V248.181h35.114v-32.668h-35.316v-21.609
		C201.93,183.769,206.705,178.385,217.395,178.736z"/>
	<path fill="#EE3440" d="M245.094,286.95c0-49.756,32.393-76.975,69.252-76.975s69.251,27.219,69.251,76.975
		c0,49.764-30.441,76.975-69.251,76.975C275.527,363.925,245.094,336.714,245.094,286.95z M347.855,286.95
		c0-29.14-13.687-44.814-33.509-44.814s-33.509,15.12-33.509,44.814c0,29.694,13.124,44.814,33.509,44.814
		S347.855,316.09,347.855,286.95z"/>
	<path fill="#EE3440" d="M484.662,249.511l0.019-34.178c-4.495-1.967-12.815-2.81-17.311-2.81c-13.205,0-25.006,7.587-30.626,18.547
		h-0.562v-15.737H401.62v145.102h36.528V282.49c0-12.202,2.68-21.142,7.26-26.669C453.049,246.598,469.367,243.504,484.662,249.511z
		"/>
</g>
</svg>
