<?xml version="1.0" encoding="utf-8"?>
<!-- Generator: Adobe Illustrator 19.1.0, SVG Export Plug-In . SVG Version: 6.00 Build 0)  -->
<!DOCTYPE svg PUBLIC "-//W3C//DTD SVG 1.1//EN" "http://www.w3.org/Graphics/SVG/1.1/DTD/svg11.dtd">
<svg version="1.1" id="Layer_1" xmlns="http://www.w3.org/2000/svg" xmlns:xlink="http://www.w3.org/1999/xlink" x="0px" y="0px"
	 viewBox="0 0 281.2 256" style="enable-background:new 0 0 281.2 256;" xml:space="preserve">
<style type="text/css">
	.st0{fill:#097FED;}
	.st1{fill:#FF642F;}
	.st2{fill:#FFFFFF;}
	.st3{fill:#08191E;}
	.st4{opacity:0.3;clip-path:url(#SVGID_2_);}
	.st5{fill:#3B4250;}
	.st6{fill:#27BEC4;}
	.st7{opacity:0.4;}
</style>
<g>
	<g>
		<circle class="st0" cx="128" cy="128" r="128"/>
	</g>
	<g>
		<g>
			<polygon class="st1" points="249.2,112 240,128 272,128 281.2,112 			"/>
		</g>
		<g>
			<polygon class="st1" points="240,128 272,128 281.2,144 249.2,144 			"/>
		</g>
		<g>
			<g>
				<circle class="st1" cx="128" cy="128" r="96"/>
			</g>
			<g>
				<path class="st2" d="M128,48c44.1,0,80,35.9,80,80c0,44.1-35.9,80-80,80c-44.1,0-80-35.9-80-80C48,83.9,83.9,48,128,48L128,48z
					 M128,32c-53,0-96,43-96,96c0,53,43,96,96,96c53,0,96-43,96-96C224,75,181,32,128,32L128,32z"/>
			</g>
			<g>
				<path class="st2" d="M128,80c26.5,0,48,21.5,48,48c0,26.5-21.5,48-48,48c-26.5,0-48-21.5-48-48C80,101.5,101.5,80,128,80L128,80
					z M128,64c-35.3,0-64,28.7-64,64s28.7,64,64,64c35.3,0,64-28.7,64-64S163.3,64,128,64L128,64z"/>
			</g>
			<g>
				<path class="st2" d="M128,112c8.8,0,16,7.2,16,16c0,8.8-7.2,16-16,16c-8.8,0-16-7.2-16-16C112,119.2,119.2,112,128,112L128,112z
					 M128,96c-17.7,0-32,14.3-32,32c0,17.7,14.3,32,32,32c17.7,0,32-14.3,32-32C160,110.3,145.7,96,128,96L128,96z"/>
			</g>
		</g>
		<g>
			<path class="st3" d="M278,130H128c-1.1,0-2-0.9-2-2c0-1.1,0.9-2,2-2h150c1.1,0,2,0.9,2,2C280,129.1,279.1,130,278,130z"/>
		</g>
		<g>
			<defs>
				<circle id="SVGID_1_" cx="128" cy="128" r="96"/>
			</defs>
			<clipPath id="SVGID_2_">
				<use xlink:href="#SVGID_1_"  style="overflow:visible;"/>
			</clipPath>
			<g class="st4">
				<path class="st5" d="M224,226c-0.5,0-1-0.2-1.4-0.6l-96-96c-0.8-0.8-0.8-2,0-2.8c0.8-0.8,2-0.8,2.8,0l96,96c0.8,0.8,0.8,2,0,2.8
					C225,225.8,224.5,226,224,226z"/>
			</g>
		</g>
	</g>
</g>
<g>
	<g>
		<path class="st2" d="M9.6,112.4c0,0,26.2,28.5,67.7,16.5S125.9,79,125.9,79S99.7,50.5,58.2,62.4S9.6,112.4,9.6,112.4z"/>
	</g>
	<g>
		<circle class="st6" cx="67.7" cy="95.7" r="25.9"/>
	</g>
	<g>
		<circle class="st3" cx="67.7" cy="95.7" r="17.3"/>
	</g>
	<g class="st7">
		<circle class="st2" cx="60.8" cy="91.8" r="5.6"/>
	</g>
</g>
</svg>
