<?xml version="1.0" encoding="utf-8"?>
<!-- Generator: Adobe Illustrator 19.1.0, SVG Export Plug-In . SVG Version: 6.00 Build 0)  -->
<svg version="1.1" xmlns="http://www.w3.org/2000/svg" xmlns:xlink="http://www.w3.org/1999/xlink" x="0px" y="0px"
	 viewBox="0 0 88 88" style="enable-background:new 0 0 88 88;" xml:space="preserve">
<style type="text/css">
	.st0{display:none;}
	.st1{display:inline;opacity:0.35;}
	.st2{fill:#00AEEF;}
	.st3{display:inline;fill:none;stroke:#808080;stroke-width:0.1;stroke-miterlimit:10;}
	.st4{display:inline;}
	.st5{fill:#808080;}
	.st6{display:inline;fill:none;stroke:#00AEEF;stroke-width:0.1;stroke-miterlimit:10;}
	.st7{fill:#252F65;}
	.st8{fill:#4287FF;}
	.st9{fill:none;stroke:#252F65;stroke-width:5;stroke-miterlimit:10;}
	.st10{fill:#BBBDBF;}
</style>
<g id="Grid" class="st0">
	<g class="st1">
		<rect x="4" y="4" class="st2" width="80" height="80"/>
	</g>
	<line class="st3" x1="4" y1="84" x2="84" y2="4"/>
	<line class="st3" x1="84" y1="84" x2="4" y2="4"/>
	<g class="st4">
		<path class="st5" d="M88,0v88H0V0H88 M88.1-0.1L88.1-0.1H0h-0.1V0v88v0.1H0h88h0.1V88V0V-0.1L88.1-0.1z"/>
	</g>
	<circle class="st3" cx="44" cy="44" r="40"/>
	<path class="st3" d="M83,68.1H5c-0.5,0-1-0.5-1-1V20.9c0-0.5,0.5-1,1-1h78c0.6,0,1,0.5,1,1v46.3C84,67.7,83.5,68.1,83,68.1z"/>
	<path class="st3" d="M19.9,83V5c0-0.6,0.5-1,1-1h46.3c0.6,0,1,0.4,1,1v78c0,0.6-0.4,1-1,1H20.9C20.3,84,19.9,83.6,19.9,83z"/>
	<path class="st3" d="M11.4,75.6V12.2c0-0.6,0.4-1,1-1h63.2c0.6,0,1,0.4,1,1v63.4c0,0.6-0.4,1-1,1H12.4
		C11.9,76.6,11.4,76.2,11.4,75.6z"/>
	<circle class="st3" cx="44" cy="43.9" r="15"/>
</g>
<g id="Icons">
	<g>
		<rect x="41.4" y="3.9" class="st7" width="5" height="11"/>
		<rect x="59.3" y="9.1" transform="matrix(0.858 0.5136 -0.5136 0.858 16.2893 -29.6789)" class="st7" width="5" height="11"/>
		<rect x="20.7" y="12.1" transform="matrix(0.5136 0.858 -0.858 0.5136 25.3021 -15.3816)" class="st7" width="11" height="5"/>
		<path class="st7" d="M71.7,31.8H16.2C9.4,31.8,4,37.3,4,44s5.5,12.2,12.2,12.2h19v20.6l10.1-7.5l10.8,7.6V56.3H60v0h11.7H76v-5
			h-4.3c-4,0-7.2-3.2-7.2-7.2s3.2-7.2,7.2-7.2s7.2,3.2,7.2,7.2v11.8h5V44C83.9,37.3,78.4,31.8,71.7,31.8z M26.5,51.2H16.2
			C12.2,51.2,9,48,9,44s3.2-7.2,7.2-7.2h10.3c-1.5,2-2.4,4.5-2.4,7.2C24.1,46.7,25,49.2,26.5,51.2z M29.1,44c0-4,3.2-7.2,7.2-7.2v0
			h9.6c-1.5,2-2.4,4.5-2.4,7.2c0,2.7,0.9,5.2,2.4,7.2h-9.6C32.3,51.2,29.1,48,29.1,44z M51.1,67.2l-5.9-4.1l-5.1,3.8V56.3h0.5v0
			h10.5V67.2z M61.9,51.2h-6.2c-4,0-7.2-3.3-7.2-7.2c0-4,3.2-7.2,7.2-7.2v0h6.2c-1.5,2-2.4,4.5-2.4,7.2S60.4,49.2,61.9,51.2z"/>
		<circle class="st8" cx="36.8" cy="44" r="3"/>
	</g>
</g>
<g id="Labels">
</g>
</svg>
