<svg xmlns:sketch="http://www.bohemiancoding.com/sketch/ns" xmlns:rdf="http://www.w3.org/1999/02/22-rdf-syntax-ns#" xmlns="http://www.w3.org/2000/svg" version="1.1" xmlns:cc="http://creativecommons.org/ns#" viewBox="0 0 60 60" xmlns:dc="http://purl.org/dc/elements/1.1/">
	<title>32 - Launch (Outline)</title>
	<desc>Created with Sketch.</desc>
	<g fill-rule="evenodd" sketch:type="MSPage" stroke="#0093d5" fill="none">
		<g stroke-linejoin="round" transform="translate(-1080 -477)" sketch:type="MSArtboardGroup" stroke="#0093d5" stroke-linecap="round" stroke-width="2">
			<g transform="translate(1081 478)" stroke="#0093d5" sketch:type="MSLayerGroup">
				<path sketch:type="MSShapeGroup" d="m0 58h58-58z"/>
				<path sketch:type="MSShapeGroup" d="m25 43c-1.84 1.069-3.217 0.928-3.75 3.046-0.246-0.028-0.496-0.046-0.75-0.046-2.713 0-5.036 1.664-6.01 4.026-4.179 0.264-7.49 3.728-7.49 7.974h44c0-4.246-3.311-7.71-7.49-7.974-0.974-2.362-3.297-4.026-6.01-4.026-0.254 0-0.504 0.018-0.75 0.046-0.533-2.118-1.91-1.977-3.75-3.046h-8z"/>
				<path sketch:type="MSShapeGroup" d="m26 46v5-5z"/>
				<path sketch:type="MSShapeGroup" d="m29 50v4-4z"/>
				<path sketch:type="MSShapeGroup" d="m32 46v3-3z"/>
				<path sketch:type="MSShapeGroup" d="m29 43v3-3z"/>
				<path sketch:type="MSShapeGroup" d="m34 39h-10l2-6h6l2 6z"/>
				<path sketch:type="MSShapeGroup" d="m33 22v-9c0-2.007-0.683-3.954-1.937-5.521l-0.741-0.926c-0.678-0.847-1.966-0.847-2.644 0l-0.741 0.926c-1.254 1.567-1.937 3.514-1.937 5.521v9l-16 9v3h13l2-5h10l2 5h12v-3l-15-9z"/>
				<path sketch:type="MSShapeGroup" d="m25 22v-9c0-2.007 0.683-3.954 1.937-5.521l0.741-0.926c0.678-0.847 1.966-0.847 2.644 0l0.741 0.926c1.254 1.567 1.937 3.514 1.937 5.521v9l3 1.8v-16.899c0-3.867-3.134-6.901-7-6.901s-7 3.034-7 6.901v16.787l3-1.688z"/>
				<path sketch:type="MSShapeGroup" d="m44 28.6v-19.933c0-0.5-0.148-0.989-0.425-1.404l-2.568-3.851c-0.479-0.719-1.535-0.719-2.014 0l-2.568 3.851c-0.277 0.415-0.425 0.904-0.425 1.404v15.133l8 4.8z"/>
				<path sketch:type="MSShapeGroup" d="m36 37h8v-3h-8v3z"/>
				<path sketch:type="MSShapeGroup" d="m22 23.688v-15.021c0-0.5-0.148-0.989-0.425-1.404l-2.568-3.851c-0.479-0.719-1.535-0.719-2.014 0l-2.568 3.851c-0.277 0.415-0.425 0.904-0.425 1.404v19.521l8-4.5z"/>
				<path sketch:type="MSShapeGroup" d="m14 37h8v-3h-8v3z"/>
				<path sketch:type="MSShapeGroup" d="m15 40v2-2z"/>
				<path sketch:type="MSShapeGroup" d="m18 41v2-2z"/>
				<path sketch:type="MSShapeGroup" d="m21 40v2-2z"/>
				<path sketch:type="MSShapeGroup" d="m37 40v2-2z"/>
				<path sketch:type="MSShapeGroup" d="m40 41v2-2z"/>
				<path sketch:type="MSShapeGroup" d="m43 40v2-2z"/>
				<path sketch:type="MSShapeGroup" d="m28 12h2-2z"/>
			</g>
		</g>
	</g>
</svg>
