<svg xmlns="http://www.w3.org/2000/svg" viewBox="125.1 326.1 364.5 139.5"><path fill="#0099D6" d="M309.2 380.3c-6.7 0-11.3 5.2-12 11.6h24.1c-.8-6.5-4.9-11.6-12.1-11.6zm59.1 1.4c-8.1 0-11.9 7.5-11.9 14.9 0 7.3 3.6 15.7 11.9 15.7 7.9 0 11.8-8.2 11.8-15.2-.2-7.1-4-15.4-11.8-15.4zm-118.1-1.4c-6.7 0-11.3 5.2-12 11.6h24.1c-.9-6.5-5-11.6-12.1-11.6zM464.8 359c-7.6 0-13.7 4.3-16.5 11.5l-1.9 5-1.8-5c-2.6-7.1-8.9-11.6-16.5-11.6-1 0-1.9.1-2.9.3v-6.8c0-10.3-7.4-17.9-17.2-17.9s-17.2 7.7-17.2 17.9v13.2c-5.7-4.8-12.7-7.3-20.3-7.3-1.7 0-3.4.1-5 .4v-6.2c0-10.3-7.3-17.9-16.9-17.9-9.6 0-16.9 7.7-16.9 17.9V367c-6.5-5.6-14.5-8.6-23.2-8.6-10.3 0-19.8 4.3-26.6 12.1-1.1 1.2-2.1 2.5-3 4-.9-1.3-1.9-2.6-3-3.9-7-7.9-16.6-12.2-26.8-12.2-7.7 0-14.9 2.4-20.9 6.9-3-4.3-8-6.9-14.1-6.9-7.8 0-14.4 5.3-16.5 13.1-3.7-11.8-12.9-13.1-16.8-13.1-3.9 0-13.1 1.3-16.8 13.1-2-7.8-8.5-13.1-16.5-13.1-9.6 0-17.3 6.9-17.3 15.7 0 3.9.9 7 2.1 10.4l13.1 37.1c4.4 12.3 13.3 14.1 18.3 14.1 7.7 0 13.8-4 17-11 3.1 7.1 9.2 11.1 17 11.1 5 0 13.9-1.8 18.3-14.2l1.5-4.3c6.4 11.4 18.3 18.5 32.8 18.5 10.5 0 24.4-4.5 30.8-12.7 6.8 7.9 17 12.7 28.8 12.7 8 0 18.1-2.6 25.2-7.6 3 4.3 7.9 6.9 13.6 6.9 3.4 0 6.4-.8 8.9-2.3 3.8 1.9 8 2.9 12.4 2.9 8.6 0 16.6-3.2 22.7-9.3 2.8 5.7 8.4 9.3 15.2 9.3 7.3 0 13.3-4.4 15.8-10.8 0 0-2.5 13.9-2.5 16.5 0 9.1 7.5 16 17.4 16 7 0 13-4.5 15.9-12l25.3-62.9c1-2.3 1.5-4.8 1.5-7.6.2-9.4-8.5-15.9-16.5-15.9zm-244.5 22.2l-13.2 37.2c-1.6 4.5-4.3 7.8-9.3 7.8-4.7 0-7.5-2.6-8.9-7.1l-7.9-24.8h-.1l-7.9 24.8c-1.4 4.5-4.2 7.1-8.9 7.1-5.1 0-7.7-3.4-9.3-7.8l-13.1-37c-1.1-3.1-1.6-5.1-1.6-7.3 0-3.5 3.2-6.2 7.7-6.2 3.8 0 6.4 2.4 7.3 6.1l8.9 29.5h.2l9-28.8c1.2-4.2 3.4-6.8 7.8-6.8s6.6 2.5 7.8 6.8l9 28.8h.2l8.9-29.5c.8-3.7 3.6-6.1 7.3-6.1 4.5 0 7.7 2.7 7.7 7.5-.1 1.7-.9 3.4-1.6 5.8zm31.5 32c7.8 0 13.1-6.2 17.2-6.2 3.2 0 6.2 3.2 6.2 6.5 0 6.5-13.4 12.8-24.7 12.8-17.1 0-28.3-12.4-28.3-29 0-15.3 11.2-29.2 27.1-29.2 16.4 0 27.2 14.9 27.2 27.6 0 4.5-2 6.8-6.6 6.8h-32.3c1 7.2 7.2 10.7 14.2 10.7zm77.6-10.9h-32.3c1 7.4 7.2 10.8 14.3 10.8 7.8 0 13.1-6.2 17.2-6.2 3.2 0 6.2 3.2 6.2 6.5 0 6.5-13.4 12.8-24.7 12.8-17.1 0-28.3-12.4-28.3-29 0-15.3 11.2-29.2 27.1-29.2 16.4 0 27.2 14.9 27.2 27.6-.1 4.5-2.2 6.7-6.7 6.7zm40.8 24c-5.2 0-11-2.3-13.8-6.9-.9 4-3.4 6.3-7.5 6.3-4.4 0-7.5-3.4-7.5-8.4v-64.7c0-5.1 2.9-8.4 7.4-8.4 4.4 0 7.4 3.4 7.4 8.4v20.6c4.3-3.5 9.2-5.3 14.5-5.3 16.2 0 24.5 15.2 24.5 30-.1 14.1-9.8 28.4-25 28.4zm45.6-8.5c0 5.1-3.2 8.4-7.6 8.4s-7.6-3.4-7.6-8.4v-65.4c0-5.1 3.2-8.4 7.6-8.4s7.6 3.4 7.6 8.4v65.4zm55.5-38.9L446.1 442c-1.2 3.1-3.6 6-7.1 6-5.2 0-7.9-3.2-7.9-6.5 0-1.4.4-3 .9-4.4l6.6-16.4-16.7-41.7c-.4-1.1-.7-2.3-.7-3.9 0-3.8 4-6.5 7.1-6.5 3.7 0 6.3 2 7.5 5.4l10.4 28.4 11.2-28.4c1.2-3.4 3.9-5.4 7.5-5.4 3.1 0 7.1 2.7 7.1 6.5.1 1.5-.2 2.6-.7 3.8z"/></svg>