<?xml version="1.0" encoding="utf-8"?>
<!-- Generator: Adobe Illustrator 19.1.0, SVG Export Plug-In . SVG Version: 6.00 Build 0)  -->
<svg version="1.1" id="Layer_1" xmlns="http://www.w3.org/2000/svg" xmlns:xlink="http://www.w3.org/1999/xlink" x="0px" y="0px"
	 viewBox="0 0 168 72" style="enable-background:new 0 0 168 72;" xml:space="preserve">
<style type="text/css">
	.st0{fill:none;stroke:#000000;stroke-linecap:round;stroke-linejoin:round;stroke-miterlimit:10;}
	.st1{fill:none;stroke:#000000;stroke-width:2;stroke-linecap:round;stroke-linejoin:round;stroke-miterlimit:10;}
	.st2{fill:none;stroke:#000000;stroke-width:2;stroke-miterlimit:10;}
	.st3{fill:none;stroke:#000000;stroke-linecap:round;stroke-miterlimit:10;}
	.st4{fill:none;stroke:#000000;stroke-width:1.5;stroke-miterlimit:10;}
	.st5{fill:none;stroke:#000000;stroke-width:2;stroke-linecap:round;stroke-miterlimit:10;}
	.st6{fill:none;}
	.st7{stroke:#000000;stroke-linecap:round;stroke-linejoin:round;stroke-miterlimit:10;}
	.st8{fill:none;stroke:#000000;stroke-miterlimit:10;}
	.st9{fill:#FFFFFF;stroke:#000000;stroke-miterlimit:10;}
	.st10{fill:none;stroke:#000000;stroke-linejoin:round;stroke-miterlimit:10;}
	.st11{fill:none;stroke:#000000;stroke-linejoin:round;}
	.st12{fill:none;stroke:#11ACCD;stroke-width:3;stroke-linecap:round;stroke-miterlimit:10;}
	.st13{fill:#11ACCD;}
	.st14{font-family:'KaTeX_Main-Italic';}
	.st15{font-size:18px;}
	.st16{fill:#E07D10;}
	.st17{fill:#FF9C39;}
	.st18{fill:none;stroke:#E07D10;stroke-width:2;stroke-linecap:round;stroke-miterlimit:10;}
	.st19{font-family:'KaTeX_Main-Regular';}
	.st20{font-size:21px;}
</style>
<g>
	<rect x="48" y="36" class="st6" width="84" height="24"/>
	<line class="st0" x1="132" y1="48" x2="48" y2="48"/>
	<polyline class="st0" points="98.4,39 98.4,48 98.4,57 	"/>
	<polygon class="st7" points="85.8,39 98.4,48 85.8,57 	"/>
</g>
<g>
	<g>
		<line class="st12" x1="12" y1="48" x2="26.9" y2="48"/>
		<g>
			<path class="st13" d="M36,48c-4.3,1.6-9.5,4.3-12.8,7.1l2.6-7.1l-2.6-7.1C26.5,43.7,31.7,46.4,36,48z"/>
		</g>
	</g>
</g>
<text transform="matrix(1 0 0 1 12.0004 65.9999)" class="st13 st14 st15">i</text>
<text transform="matrix(1 0 0 1 90.0004 17.9999)" class="st16 st14 st15">v</text>
<g>
	<g>
		<path class="st18" d="M126,36.2c-6.4-3.7-18.8-6.2-33-6.2c-10.2,0-19.5,1.3-26.3,3.4"/>
		<g>
			<path class="st16" d="M60,36.2c2.7-2.4,5.8-6,7.4-9.1l0.2,6.1l4,4.5C68.4,36.5,63.6,36.1,60,36.2z"/>
		</g>
	</g>
</g>
<text transform="matrix(-1 0 0 1 134.2095 24)" class="st16 st19 st20">−      </text>
<text transform="matrix(-0.583 0 0 0.583 86.3716 30.9931)" class="st16 st19 st20">    </text>
<text transform="matrix(-1 0 0 1 74.1284 24)" class="st16 st19 st20">+</text>
</svg>
