<?xml version="1.0" encoding="utf-8"?>
<!-- Generator: Adobe Illustrator 18.1.1, SVG Export Plug-In . SVG Version: 6.00 Build 0)  -->
<svg version="1.1" xmlns="http://www.w3.org/2000/svg" xmlns:xlink="http://www.w3.org/1999/xlink" x="0px" y="0px"
	 viewBox="0 0 12 10" enable-background="new 0 0 12 10" xml:space="preserve">
<g id="Layer_1_copy" display="none">
	<path display="inline" fill="none" stroke="#000000" stroke-miterlimit="10" d="M-21.9,6v2.2c0,0.5-0.4,1-1,1h-6.4
		c-0.5,0-1-0.4-1-1V1.8c0-0.5,0.4-1,1-1h2.2"/>
	<path display="inline" fill="none" stroke="#000000" stroke-miterlimit="10" d="M-26.1,0.9h3.2c0.5,0,1,0.4,1,1v3.2"/>
	<line display="inline" fill="none" stroke="#000000" stroke-miterlimit="10" x1="-22" y1="1" x2="-26" y2="5"/>
</g>
<g id="Original" display="none">
	<g display="inline">
		<path fill="none" stroke="#000000" stroke-miterlimit="10" d="M-24.5,6.9v1.5c0,0.3-0.3,0.6-0.6,0.6h-4.2C-29.7,9-30,8.7-30,8.4
			V4.1c0-0.3,0.3-0.6,0.6-0.6h1.5"/>
		<g>
			<path fill="none" stroke="#000000" stroke-miterlimit="10" d="M-26.9,1h3.5c0.7,0,1.3,0.6,1.3,1.3v3.5"/>
			<line fill="none" stroke="#000000" stroke-miterlimit="10" x1="-22" y1="1.3" x2="-27.7" y2="7"/>
		</g>
	</g>
</g>
<g id="Sidebar_links_1" display="none">
	<g display="inline">
		<path fill="none" stroke="#B4B9BC" stroke-miterlimit="10" d="M-24.5,6.9v1.5c0,0.3-0.3,0.6-0.6,0.6h-4.2C-29.7,9-30,8.7-30,8.4
			V4.1c0-0.3,0.3-0.6,0.6-0.6h1.5"/>
		<g>
			<path fill="none" stroke="#B4B9BC" stroke-miterlimit="10" d="M-26.9,1h3.5c0.7,0,1.3,0.6,1.3,1.3v3.5"/>
			<line fill="none" stroke="#B4B9BC" stroke-miterlimit="10" x1="-22" y1="1.3" x2="-27.7" y2="7"/>
		</g>
	</g>
</g>
<g id="Sidebar_links_copy" display="none">
	<g id="rectangle_2_" display="inline">
		<path fill="#B4B9BC" d="M6.9,9.5H2.7C2.1,9.5,1.5,9,1.5,8.4V4.1C1.5,3.5,2.1,3,2.7,3h1.5v1H2.7C2.6,4,2.5,4.1,2.5,4.1v4.2
			c0,0.1,0.1,0.1,0.1,0.1h4.2C7,8.5,7,8.4,7,8.4V6.9h1v1.5C8,9,7.5,9.5,6.9,9.5z"/>
		<g>
			<path fill="#B4B9BC" d="M10.5,5.8h-1V2.3c0-0.5-0.4-0.8-0.8-0.8H5.1v-1h3.5c1,0,1.8,0.8,1.8,1.8V5.8z"/>
			<rect x="6.5" y="0.1" transform="matrix(0.7071 0.7071 -0.7071 0.7071 4.9494 -3.7489)" fill="#B4B9BC" width="1" height="8"/>
		</g>
	</g>
</g>
<g id="In_page_links_copy">
	<g id="rectangle_1_">
		<path fill="#0EA1EF" d="M6.9,9.5H2.7C2.1,9.5,1.5,9,1.5,8.4V4.1C1.5,3.5,2.1,3,2.7,3h1.5v1H2.7C2.6,4,2.5,4.1,2.5,4.1v4.2
			c0,0.1,0.1,0.1,0.1,0.1h4.2C7,8.5,7,8.4,7,8.4V6.9h1v1.5C8,9,7.5,9.5,6.9,9.5z"/>
		<g>
			<path fill="#0EA1EF" d="M10.5,5.8h-1V2.3c0-0.5-0.4-0.8-0.8-0.8H5.1v-1h3.5c1,0,1.8,0.8,1.8,1.8V5.8z"/>
			<rect x="6.5" y="0.1" transform="matrix(0.7071 0.7071 -0.7071 0.7071 4.9494 -3.7489)" fill="#0EA1EF" width="1" height="8"/>
		</g>
	</g>
</g>
</svg>
