<svg xmlns="http://www.w3.org/2000/svg" viewBox="0 0 22 19"><style>.st0{fill:none}.st1{fill:#fff}.st2{fill:#4c4c4c}</style><g id="Layer_1"><path class="st0" d="M3.4 7.9c-.3-.2-.6-.3-.9-.3-.4 0-.9.2-1.2.5-.6.7-.6 1.8.1 2.4.4-1 1.1-1.9 2-2.6zM18.5 3.4c.3 0 .6-.1.8-.4.2-.2.4-.6.4-.9 0-.3-.1-.6-.4-.9-.2-.2-.5-.4-.8-.4-.3 0-.6.1-.9.4-.2.2-.4.5-.4.9 0 .3.1.6.4.9.2.2.5.4.9.4zM19.5 7.6c-.3 0-.7.1-1 .3.9.7 1.6 1.7 2 2.7l.1-.1c.7-.7.7-1.8.1-2.5-.3-.2-.8-.4-1.2-.4z"/><path class="st1" d="M17.3 8c-.9-.6-1.9-1.1-3-1.4-2.2-.6-4.6-.6-6.8 0-1 .3-2.1.8-3 1.4-.9.4-1.7 1.2-2.1 2.1-1.1 2.3-.2 5 2.1 6.1.9.6 1.9 1.1 3 1.3 2.2.6 4.6.6 6.8 0 1.1-.3 2.1-.6 3-1.2.9-.4 1.7-1.3 2.1-2.2 1.2-2.3.2-5-2.1-6.1zM6.6 9.9c.3-.3.7-.5 1.1-.5.4 0 .8.2 1.1.5.2.3.4.7.4 1.1 0 .4-.2.8-.4 1.1-.3.3-.7.5-1.1.5-.4 0-.8-.2-1.1-.5-.6-.6-.6-1.6 0-2.2zm7.9 5.6c-.4.4-.9.8-1.5.9-.7.2-1.3.3-2 .3-1.7 0-2.9-.4-3.6-1.1-.1-.1-.1-.2-.1-.3 0-.1 0-.2.1-.3.1-.1.2-.1.3-.1.1 0 .2 0 .3.1.4.3.8.6 1.3.7.5.1 1.1.2 1.6.2.6 0 1.1-.1 1.7-.2.5-.1.9-.4 1.3-.7.1-.1.2-.1.3-.1.1 0 .2 0 .3.1.1.1.1.2.1.3.1 0 0 .1-.1.2zm.9-3.4c-.3.3-.7.5-1.1.5-.4 0-.8-.2-1.1-.5-.6-.6-.6-1.6 0-2.2.3-.3.7-.5 1.1-.5.4 0 .8.2 1.1.5.3.3.4.7.4 1.1 0 .4-.1.8-.4 1.1z"/><path class="st2" d="M21.3 7.5c-.9-1-2.5-1-3.4-.1-1.9-1.2-4-1.9-6.2-1.9L13 1.3l3.5.8c0 .6.2 1.1.6 1.5.8.8 2 .8 2.9.1l.1-.1c.4-.4.6-.9.6-1.5S20.5 1 20.1.6C19.5.2 19 0 18.5 0c-.4 0-.8.1-1.1.4-.3.2-.6.6-.8.9-2.5-.6-3.8-1-3.9-1-.2 0-.4.1-.4.3l-1.5 4.8c-2.3 0-4.6.6-6.6 1.9-1-.9-2.5-.8-3.4.1-.5.5-.8 1.2-.8 1.9 0 .4.1.9.3 1.3.2.4.5.7.9.9 0 .2-.1.5-.1.8 0 1 .3 1.9.8 2.7.6.8 1.3 1.6 2.2 2.1 1 .7 2.1 1.2 3.2 1.4 2.4.6 4.9.6 7.3 0 1.2-.3 2.2-.8 3.2-1.4.8-.6 1.6-1.3 2.1-2.1s.8-1.7.8-2.7c0-.2 0-.5-.1-.7.4-.2.7-.6.9-1 .2-.4.3-.8.3-1.3.2-.7-.1-1.4-.5-1.8zm-3.7-6.3c.2-.2.5-.4.9-.4.3 0 .6.1.8.4.2.2.4.5.4.9 0 .3-.1.6-.4.9-.2.2-.5.4-.8.4-.3 0-.6-.1-.9-.4-.2-.2-.4-.6-.4-.9 0-.3.2-.6.4-.9zm1.9 12.9c-.4.9-1.2 1.8-2.1 2.2-.9.6-1.9 1-3 1.2-2.2.6-4.6.6-6.8 0-1.1-.3-2.1-.7-3-1.3-2.3-1.1-3.2-3.8-2.1-6.1.4-.9 1.1-1.6 2-2.1.9-.6 1.9-1.1 3-1.4 2.2-.6 4.6-.6 6.8 0 1.1.3 2.1.7 3 1.4 2.3 1.1 3.3 3.8 2.2 6.1zM1.4 10.6c-.7-.7-.7-1.8-.1-2.5.3-.3.7-.5 1.2-.5.3 0 .6.1.9.3-.9.7-1.6 1.6-2 2.7zm19.2-.1c0 .1-.1.1 0 0-.5-1-1.2-1.9-2.1-2.6.3-.2.6-.3 1-.3s.9.2 1.2.5c.6.7.6 1.8-.1 2.4z"/><path class="st2" d="M14.3 9.4c-.4 0-.8.2-1.1.5-.6.6-.6 1.6 0 2.2.3.3.7.5 1.1.5.4 0 .8-.2 1.1-.5.3-.3.4-.7.4-1.1 0-.4-.2-.8-.4-1.1-.3-.3-.7-.5-1.1-.5zM8.8 12.1c.2-.3.4-.7.4-1.1 0-.4-.2-.8-.4-1.1-.3-.3-.7-.5-1.1-.5-.4 0-.8.2-1.1.5-.6.6-.6 1.6 0 2.2.3.3.7.5 1.1.5.4 0 .8-.2 1.1-.5zM14.2 14.7c-.1 0-.2 0-.3.1-.4.3-.8.6-1.3.7-.5.1-1.1.2-1.7.2-.6 0-1.1-.1-1.6-.2s-.9-.4-1.3-.7c-.1-.1-.2-.1-.3-.1-.1 0-.2 0-.3.1-.1.1-.1.2-.1.3 0 .1 0 .2.1.3.7.8 1.8 1.1 3.6 1.1.7 0 1.4-.1 2-.3.6-.1 1.1-.4 1.5-.9.1-.1.1-.2.1-.3 0-.1 0-.2-.1-.3h-.3z"/></g></svg>