<?xml version="1.0" encoding="UTF-8"?>
<!DOCTYPE svg PUBLIC "-//W3C//DTD SVG 1.1//EN" "http://www.w3.org/Graphics/SVG/1.1/DTD/svg11.dtd">
<!-- Creator: CorelDRAW X5 -->
<svg xmlns="http://www.w3.org/2000/svg" xml:space="preserve" width="3736px" height="5280px" style="shape-rendering:geometricPrecision; text-rendering:geometricPrecision; image-rendering:optimizeQuality; fill-rule:evenodd; clip-rule:evenodd"
viewBox="0 0 3431 4850"
 xmlns:xlink="http://www.w3.org/1999/xlink">
 <defs>
  <style type="text/css">

    .LLWfpGOXac {fill:#1C1B17;fill-rule:nonzero}

  </style>
 </defs>
 <g id="Layer_x0020_1">
  <metadata id="CorelCorpID_0Corel-Layer"/>
  <path class="LLWfpGOXac" d="M1714 42c0,0 -185,91 -153,330 0,0 32,70 32,96 0,26 24,291 187,388 0,0 -158,217 -158,347 0,130 97,768 109,826 12,58 129,231 143,246 0,0 -41,103 0,144 41,41 -17,94 17,149 0,0 -27,101 -51,101 -24,0 -32,96 -58,123 -27,26 -68,152 -90,173 -22,22 -73,142 -63,200 10,58 -30,150 -49,169 -18,18 -32,67 -32,96 0,29 -100,157 -100,157l-622 780c0,0 -146,258 -430,224 -284,-34 -350,-91 -384,-17 -34,75 10,171 56,190 46,19 168,17 177,17 10,0 -2,34 10,46 12,12 46,39 148,12 0,0 27,-24 15,-63 0,0 95,-19 141,-36 46,-17 75,-19 165,-135 90,-116 771,-958 771,-958 0,0 -73,253 -36,289 36,36 61,55 36,79 -24,24 -201,105 -221,125 -21,20 -131,84 -95,168 0,0 21,32 2,51 -18,18 -60,52 -32,79 28,28 421,-53 491,-84 71,-31 139,-51 105,-91 -34,-41 -5,-36 17,-58 22,-22 75,-185 49,-238 -27,-53 63,-58 46,-135 -17,-77 61,-51 61,-195 0,-144 83,-113 83,-311 0,-197 0,-12 0,-12 0,0 10,-41 27,-41 17,0 41,-41 51,-82 10,-41 117,-246 153,-282 37,-36 97,-48 97,-96 0,0 56,-2 56,-36 0,-34 63,-10 63,-63 0,-53 11,-64 11,-64 0,0 162,-317 191,-225 29,92 32,231 46,277 15,46 -63,106 -10,207 54,101 7,185 39,217 32,31 -2,48 32,82 34,34 28,54 51,77 23,23 185,380 204,443 19,63 -11,153 19,183 30,30 27,111 10,128 -17,17 27,51 15,96 -12,46 -69,158 -49,178 21,20 0,65 49,65 49,0 66,-14 66,-14 0,0 -34,79 15,106 49,26 148,26 211,0 63,-27 105,-70 73,-120 -32,-51 -66,-77 -41,-101 24,-24 19,-39 2,-91 -17,-53 -45,-167 -73,-195 -28,-28 -54,-58 -28,-84 26,-26 69,-75 45,-149 -24,-75 -78,-510 -129,-592 -51,-82 -67,-66 -41,-91 26,-25 23,-59 5,-77 -18,-18 18,-36 0,-72 -18,-36 12,-72 -24,-108 -36,-36 -32,-29 -19,-101 12,-72 15,-193 15,-255 0,-63 68,-137 41,-197 -27,-60 2,-132 -27,-190 -29,-58 -52,-35 -4,-83 49,-48 28,-64 4,-114 -24,-51 0,-77 0,-147 0,-70 85,-157 85,-222 0,-65 -24,-94 36,-128 61,-34 148,-246 105,-373 -44,-128 -350,-246 -462,-311 -112,-65 -384,-135 -569,-94 -185,41 -131,14 -131,14 0,0 -19,-214 -19,-265 0,-51 -58,-248 -216,-299 -158,-51 -199,-5 -260,19zm1531 4297c26,0 80,27 80,44 0,17 -68,15 -94,15 -26,0 -7,-11 -7,-28 0,-17 -5,-31 21,-31zm-1633 -55c-35,35 -111,39 -112,39l-24 2 11 -21c15,-30 61,-50 91,-55l0 0c9,-2 17,-2 23,-1 11,2 18,7 20,17 1,7 -2,14 -9,21z"/>
 </g>
</svg>
