<?xml version="1.0" encoding="utf-8"?>
<!-- Generator: Adobe Illustrator 18.1.1, SVG Export Plug-In . SVG Version: 6.00 Build 0)  -->
<!DOCTYPE svg PUBLIC "-//W3C//DTD SVG 1.1//EN" "http://www.w3.org/Graphics/SVG/1.1/DTD/svg11.dtd">
<svg version="1.1" id="Layer_1" xmlns="http://www.w3.org/2000/svg" xmlns:xlink="http://www.w3.org/1999/xlink" x="0px" y="0px"
	 viewBox="0 0 600 384.7" enable-background="new 0 0 600 384.7" xml:space="preserve">
<g>
	<g>
		<g>
			<path fill="none" stroke="#1D1945" stroke-width="1.6711" stroke-linecap="round" stroke-miterlimit="10" d="M243.2,88.7
				c14.3,0,2.1,0,15,0"/>
			<g>
				<polygon fill="#1D1945" points="253.2,91.4 252.9,90.6 258.1,88.7 252.9,86.9 253.2,86.1 260.5,88.7 				"/>
			</g>
		</g>
	</g>
	<g>
		<g>
			<path fill="none" stroke="#1D1945" stroke-width="1.6711" stroke-linecap="round" stroke-miterlimit="10" d="M434.2,88.7
				c14.3,0,2.1,0,15,0"/>
			<g>
				<polygon fill="#1D1945" points="444.3,91.4 444,90.6 449.2,88.7 444,86.9 444.3,86.1 451.6,88.7 				"/>
			</g>
		</g>
	</g>
	
		<rect x="40.2" y="27.4" fill="#FFFFFF" stroke="#2BB673" stroke-width="1.6711" stroke-linejoin="round" stroke-miterlimit="10" width="197.9" height="120.3"/>
	<g>
		<rect x="51.9" y="40.1" fill="#2BB673" width="52" height="43.3"/>
		<rect x="113.2" y="40.1" fill="#2BB673" width="52" height="43.3"/>
		<rect x="174.4" y="40.1" fill="#2BB673" width="52" height="43.3"/>
		<rect x="51.9" y="91.9" fill="#2BB673" width="52" height="43.3"/>
		<rect x="113.2" y="91.9" fill="#2BB673" width="52" height="43.3"/>
		<rect x="174.4" y="91.9" fill="#2BB673" width="52" height="43.3"/>
	</g>
	
		<rect x="265.8" y="27.4" fill="#FFFFFF" stroke="#2BB673" stroke-width="1.6711" stroke-linejoin="round" stroke-miterlimit="10" width="163.1" height="173.1"/>
	<g>
		<rect x="290.7" y="40.1" fill="#2BB673" width="52" height="43.3"/>
		<rect x="352" y="40.1" fill="#2BB673" width="52" height="43.3"/>
		<g>
			<rect x="290.7" y="91.9" fill="#2BB673" width="52" height="43.3"/>
			<rect x="352" y="91.9" fill="#2BB673" width="52" height="43.3"/>
		</g>
		<g>
			<rect x="290.7" y="143.9" fill="#2BB673" width="52" height="43.3"/>
			<rect x="352" y="143.9" fill="#2BB673" width="52" height="43.3"/>
		</g>
	</g>
	
		<rect x="459" y="27.4" fill="#FFFFFF" stroke="#2BB673" stroke-width="1.6711" stroke-linejoin="round" stroke-miterlimit="10" width="101.3" height="330.1"/>
	<rect x="483.7" y="40.1" fill="#2BB673" width="52" height="43.3"/>
	<rect x="483.7" y="196.3" fill="#2BB673" width="52" height="43.3"/>
	<rect x="483.7" y="92.1" fill="#2BB673" width="52" height="43.3"/>
	<rect x="483.7" y="248.4" fill="#2BB673" width="52" height="43.3"/>
	<rect x="483.7" y="144.2" fill="#2BB673" width="52" height="43.3"/>
	<rect x="483.7" y="300.5" fill="#2BB673" width="52" height="43.3"/>
</g>
</svg>
