<?xml version="1.0" encoding="UTF-8" standalone="no"?>
<svg xmlns:svg="http://www.w3.org/2000/svg" xmlns="http://www.w3.org/2000/svg" version="1.0" width="981" height="613" viewBox="0 0 981 613" xml:space="preserve">
<g transform="translate(50,50)">
<polygon points="8,434 0,439 0,290 8,295 8,434" />
<rect width="8" height="114" x="25.5" y="307.5" />
<polygon points="128.5,504 128.5,513 0,439 8,434 128.5,504" />
<polygon points="249,434 253,436.5 253,441 128.5,513 128.5,504 249,434" />
<rect width="8.1" height="114.2" x="174" y="392.9" transform="matrix(-0.4959,-0.8684,0.8684,-0.4959,-124.4847,827.74)" />
<polygon points="249,295 253,292.5 257,295 257,434 253,436.5 249,434 249,295" />
<polygon points="128.5,225 128.5,216 253,288 253,292.5 249,295 128.5,225" />
<rect width="8.1" height="114.2" x="174" y="221.9" transform="matrix(-0.4962,0.8682,-0.8682,-0.4962,508.5521,262.9042)" />
<polygon points="8,295 0,290 128.5,216 128.5,225 8,295" />
<polygon points="378,504 378,513 253,441 253,436.5 257,434 378,504" />
<polygon points="498.5,434 502.5,436.5 502.5,441 378,513 378,504 498.5,434" />
<polygon points="474.5,418 478.5,425 380,482 376,475 474.5,418" />
<polygon points="498.5,295 502.5,292.5 506.5,295 506.5,434 502.5,436.5 498.5,434 498.5,295" />
<polygon points="378,225 378,220.5 382,218 502.5,288 502.5,292.5 498.5,295 378,225" />
<polygon points="376,254 380,247 478.5,304 474.5,311 376,254" />
<polygon points="257,295 253,292.5 253,288 374,218 378,220.5 378,225 257,295" />
<polygon points="627.5,504 627.5,513 502.5,441 502.5,436.5 506.5,434 627.5,504" />
<polygon points="748,434 756,439 627.5,513 627.5,504 748,434" />
<rect width="8.1" height="113.8" x="672.7" y="393.10001" transform="matrix(-0.4964,-0.8681,0.8681,-0.4964,622.0433,1260.8608)" />
<polygon points="748,295 752,292.5 756,295 756,439 748,434 748,295" />
<polygon points="627.5,225 627.5,220.5 631.5,218 752,288 752,292.5 748,295 627.5,225" />
<rect width="8.1" height="113.8" x="672.7" y="222.1" transform="matrix(-0.4967,0.8679,-0.8679,-0.4967,1255.02,-169.8094)" />
<polygon points="506.5,295 502.5,292.5 502.5,288 623.5,218 627.5,220.5 627.5,225 506.5,295" />
<polygon points="623.5,79 627.5,76.5 631.5,79 631.5,218 627.5,220.5 623.5,218 623.5,79" />
<polygon points="502.5,9 502.5,0 627.5,72 627.5,76.5 623.5,79 502.5,9" />
<polygon points="382,79 374,74 502.5,0 502.5,9 382,79" />
<rect width="8.1" height="113.8" x="449.2" y="6.1" transform="matrix(0.4962,0.8682,-0.8682,0.4962,283.0414,-361.7724)" />
<polygon points="382,218 378,220.5 374,218 374,74 382,79 382,218" />
<polygon points="873,218 881,223 756,295 752,292.5 752,288 873,218" />
<polygon points="873,79 881,74 881,223 873,218 873,79" />
<rect width="8" height="114" x="847" y="91.5" />
<polygon points="752,9 752,0 881,74 873,79 752,9" />
<polygon points="631.5,79 627.5,76.5 627.5,72 752,0 752,9 631.5,79" />
<polygon points="655.5,95 651.5,88 750,31 754,38 655.5,95" />
</g>
</svg>

