<?xml version="1.0" encoding="UTF-8" standalone="no"?>
<svg width="6827px" height="3374px" viewBox="0 0 6827 3374" version="1.1" xmlns="http://www.w3.org/2000/svg" xmlns:xlink="http://www.w3.org/1999/xlink">
    <!-- Generator: Sketch 3.7.2 (28276) - http://www.bohemiancoding.com/sketch -->
    <title>Layer_x0020_1</title>
    <desc>Created with Sketch.</desc>
    <defs></defs>
    <g id="Page-1" stroke="none" stroke-width="1" fill="none" fill-rule="evenodd">
        <g id="Layer_x0020_1">
            <path d="M5561,2620 L5561,1121 L5758,1121 L5758,1353 C5819,1257 5894,1185 5983,1137 C6071,1089 6172,1065 6287,1065 C6457,1065 6590,1113 6685,1207 C6779,1302 6827,1434 6827,1602 L6827,2620 L6615,2620 L6615,1696 C6615,1546 6584,1434 6521,1362 C6459,1289 6362,1253 6232,1253 C6073,1253 5956,1300 5881,1394 C5806,1488 5769,1636 5769,1838 L5769,2620 L5561,2620 L5561,2620 Z" id="Shape" fill="#FFFFFF"></path>
            <path d="M4069,2352 L4267,2239 C4300,2323 4347,2386 4409,2428 C4471,2470 4547,2491 4637,2491 C4725,2491 4795,2469 4847,2424 C4899,2380 4925,2320 4925,2246 C4925,2131 4823,2034 4619,1954 C4597,1946 4580,1939 4568,1933 C4410,1872 4300,1808 4237,1742 C4174,1676 4142,1594 4142,1498 C4142,1370 4187,1266 4277,1184 C4367,1103 4484,1062 4627,1062 C4749,1062 4853,1088 4939,1141 C5024,1194 5087,1270 5126,1368 L4935,1474 C4911,1403 4872,1349 4816,1312 C4761,1275 4694,1256 4614,1256 C4542,1256 4482,1278 4436,1320 C4389,1362 4365,1414 4365,1478 C4365,1539 4388,1591 4434,1631 C4481,1672 4576,1717 4722,1764 C4887,1822 4997,1884 5054,1952 C5111,2020 5139,2113 5139,2233 C5139,2370 5090,2480 4992,2562 C4894,2645 4763,2686 4596,2686 C4470,2686 4360,2657 4268,2599 C4176,2540 4110,2458 4069,2352 L4069,2352 Z" id="Shape" fill="#FFFFFF"></path>
            <path d="M2575,2620 L2367,2620 L2367,0 L2575,0 L2575,1395 C2625,1287 2696,1205 2789,1149 C2880,1093 2990,1065 3117,1065 C3322,1065 3490,1141 3619,1293 C3749,1444 3814,1640 3814,1880 C3814,2122 3748,2316 3617,2464 C3485,2612 3312,2686 3097,2686 C2976,2686 2872,2657 2782,2600 C2693,2542 2624,2457 2575,2346 L2575,2620 L2575,2620 Z M3582,1886 C3582,1691 3537,1537 3446,1424 C3354,1312 3230,1256 3074,1256 C2917,1256 2794,1309 2705,1414 C2616,1519 2571,1664 2571,1847 C2571,2048 2617,2206 2707,2320 C2798,2434 2922,2491 3080,2491 C3241,2491 3365,2439 3452,2335 C3539,2231 3582,2081 3582,1886 L3582,1886 Z" id="Shape" fill="#FFFFFF"></path>
            <polygon id="Shape" fill="#FFFFFF" points="782 2620 782 0 989 0 989 1785 1736 1121 2024 1121 1221 1793 2083 2620 1796 2620 989 1844 989 2620"></polygon>
            <polygon id="Shape" fill="#FFFFFF" points="0 3374 0 1121 214 1121 214 3374"></polygon>
            <path d="M722,3205 C722,3249 738,3286 770,3317 C801,3348 839,3363 883,3363 C927,3363 965,3348 997,3317 C1029,3286 1045,3249 1045,3205 C1045,3159 1030,3122 999,3091 C968,3061 930,3046 883,3046 C838,3046 800,3061 769,3091 C738,3122 722,3159 722,3205 L722,3205 Z" id="Shape" fill="#6BC72B"></path>
        </g>
    </g>
</svg>