<?xml version="1.0"?><svg width="8660.19431" height="6920.802810000001" xmlns="http://www.w3.org/2000/svg">
 <title>cloud6</title>

 <metadata id="metadata3228">image/svg+xml</metadata>
 <g>
  <title>Layer 1</title>
  <g id="layer1">
   <g id="g6444">
    <path id="path5530" d="m4607.989258,1334.394897c-877.085693,0 -1617.968018,630.41687 -1848.484131,1491.320435c-95.962646,-61.158691 -206.362061,-96.347168 -324.397949,-96.347168c-365.030518,0 -661.216553,333.827637 -661.216553,745.248535c0,4.190918 -0.061523,8.178711 0,12.352051c-109.346558,-25.249268 -223.994141,-39.526855 -342.663818,-39.526855c-723.542908,0 -1310.743042,501.15332 -1310.743164,1118.284668c0,617.131836 587.200317,1118.284668 1310.743164,1118.284668c286.575928,0 551.368042,-79.209961 767.157471,-212.45752c128.876709,434.589844 492.562012,748.54248 921.31958,748.54248c290.535156,0 551.052734,-144.176758 729.165039,-372.212402c172.79248,101.873535 375.990967,160.578125 593.268311,160.578125c295.62793,0 565.416016,-108.385742 767.888672,-286.570313c272.834473,319.149902 674.019043,521.262207 1121.510254,521.262207c548.977051,0 1028.771973,-304.444824 1286.633301,-755.954102c38.819336,6.411621 78.645508,9.881836 119.091797,9.881836c436.73291,0 790.538574,-387.11084 790.538574,-864.65332c0,-477.541504 -353.805664,-865.476563 -790.538574,-865.476563c-78.148926,0 -153.712891,13.118896 -225.032715,36.233154c-235.333496,-312.658691 -587.186523,-529.419434 -989.26709,-582.199463c-82.248047,-1056.211426 -908.292969,-1886.590698 -1914.972168,-1886.590454z" stroke-dashoffset="0" stroke-miterlimit="4" stroke-width="99" stroke="#ff7f00" fill-rule="nonzero" fill="#ffffff"/>
    <path id="path6438" d="m4566.161621,1287.452637c-801.692871,2.702637 -1585.489258,606.280151 -1834.602539,1468.263184c-362.601318,-207.247559 -849.660767,32.501465 -967.348755,468.55957c-19.280029,66.123535 -31.93689,135.447021 -35.070068,205.046143c-568.898193,-112.921143 -1241.720215,96.915771 -1546.735596,681.840576c-204.009079,381.621582 -104.856216,899.266113 185.57901,1187.457031c470.992096,504.860352 1242.154999,558.189941 1806.838348,258.572266c183.203857,551.447754 777.601563,863.42334 1272.020508,660.430176c157.462402,-57.418457 300.925537,-171.179199 414.995605,-298.099609c424.048096,230.549316 960.883057,189.583496 1343.621338,-122.698242c613.919922,694.91748 1733.711426,666.633789 2310.970703,-69.995605c68.941895,-53.064941 88.631836,-208.274902 189.23291,-172.930664c466.306641,36.469238 905.393555,-433.974121 867.984375,-965.117188c-15.25293,-547.058838 -516.986328,-966.197754 -987.807129,-853.947998c-97.105957,45.350098 -134.304199,-116.460205 -214.07373,-157.284424c-225.774902,-223.560791 -525.463867,-345.375732 -806.61084,-406.798584c-85.687012,-953.937744 -817.773438,-1734.364624 -1650.242188,-1858.260498c-115.046387,-19.637207 -232.097656,-28.073364 -348.751953,-25.036133z" stroke-dashoffset="0" stroke-miterlimit="4" stroke-width="99" stroke="#ff7f00" fill-rule="nonzero" fill="#ffffff"/>
   </g>
  </g>
 </g>
</svg>