<?xml version="1.0" encoding="utf-8"?>
<!-- Generator: Adobe Illustrator 18.1.0, SVG Export Plug-In . SVG Version: 6.00 Build 0)  -->
<svg version="1.1" id="Layer_1" xmlns="http://www.w3.org/2000/svg" xmlns:xlink="http://www.w3.org/1999/xlink" x="0px" y="0px"
	 viewBox="0 180 612 612" enable-background="new 0 180 612 612" xml:space="preserve">
<path fill="none" stroke="#000000" stroke-width="2" stroke-linecap="round" stroke-linejoin="round" stroke-miterlimit="10" d="
	M299.7,359.3c6,8.9-11.4,16.5-16.7,22.9c-7.2,8.6-12.6,18.7-17.4,28.8c-4.6,9.7-9.7,20.8-8.7,31.9c0.9,9.8,7.2,17.9,11.8,26.3
	c2.5,4.5,3.8,9.8,3.5,15c-0.2,2.8,15.6,12.3,18.2,14.3c5.5,4.2,10.6,9.2,13,15.7c11.2,1.3,22.4,2.8,33.6,3.9
	c47,4.7,94.1,8.1,141.1,11.9c11.3,0.9,22.5,2.2,33.8,3.3c5.5-12.6,7.4-25.9,5.2-41.7c-4.5-32.5-16.6-58.7-34-86.2
	c-2.3-3.6-4.6-7.2-7.7-10.1c-5-4.7-11.8-7-16.9-11.7c-8.9-8.1-10.8-21.3-10.2-33.4c0.3-6.6,1.1-13.2-0.3-19.6
	c-1.3-5.9-4.4-11.2-7.7-16.2c-5.1-7.7-10.8-15-17.1-21.8c-10.8-11.7-23.6-22.1-38.7-27.3c-31.6-10.9-82.3,3.3-91.3,39.1
	c0,0-7.4,18.9-7.2,28.9C286.2,338.8,294.2,351,299.7,359.3z"/>
<path fill="#FFE200" stroke="#000000" stroke-width="2" stroke-linecap="round" stroke-linejoin="round" stroke-miterlimit="10" d="
	M293.4,303.7c-4.4,17.4-18.2,22.1-29.3,34.3c-1,1.1-1.9,2.2-2.3,3.6c-0.4,1.4-0.2,3,0.9,3.9c0.7,0.5,1.5,0.7,2.4,0.9
	c5.8,1,11.8,0.1,17.7,1.1c6.8,1.2,13.5,5.6,17,11.8C280.8,329.1,293.4,303.7,293.4,303.7"/>
<path fill="#FFFFFF" stroke="#000000" stroke-width="2" stroke-linecap="round" stroke-linejoin="round" stroke-miterlimit="10" d="
	M237.9,455.1c3.2,2.2,6.1,4.1,9,6.2c3.4,2.5,7.1,2.8,10.5,0.4c3.7-2.7,7.1-5.6,10.4-8.8c5.5-5.3,10.9-10.8,16.3-16.2
	c1.9-2,3.6-2,5.8-0.2c8.1,6.6,16.3,13.1,25.2,20.2c1.7,1.4,4.2,1,5.5-0.8c6.1-8.9,12.3-17.8,18.6-26.9c1.4-2,4.2-2.2,5.9-0.5
	c6,6,10,13.2,14.3,20.1c5.4,8.7,10.9,17.4,17,25.6c1.6,2.2,4.1,3.7,6.4,5.1c1.5,0.9,3.5,0.7,4.7-0.6c13.4-14,26.2-27.5,39-40.9
	c1.5-1.6,4-1.5,5.5,0c4,4.3,7.9,8.6,12,12.7c2.7,2.8,5.8,5.2,8.8,7.7c6.2,5.1,12.6,6.6,20.7,4.1c15.9-4.7,32.1-8.4,48.9-12.7
	c1.8-0.4,3.6,0.4,4.4,2.1c2.5,5.3,5.3,10.4,6.6,15.9c11.8,47.3,12.3,94.5-5.1,140.7c-17.8,47.1-52.3,76.2-101,88.2
	c-24.6,6.1-49.7,8.2-75,4.7c-46.3-6.3-77.6-32.4-96.8-74c-15-32.5-21-67.1-24.3-102.4c-2.1-22.5,0.6-44.7,5.6-66.6
	C237,457.3,237.4,456.4,237.9,455.1z"/>
<path fill="#FFFFFF" stroke="#000000" stroke-width="2" stroke-linecap="round" stroke-linejoin="round" stroke-miterlimit="10" d="
	M64.3,519.6c17.7-0.1,34.9,0.1,51.9,3.8c3.4,0.7,5.6,2.2,7.3,5.6c6.9,13,14.4,25.8,21.8,39c18.3-9.3,36.3-18.5,55.1-28
	c6.2,4.4,8.2,12.2,10.1,20c3,12.5,5.4,25.2,8.3,37.7c0.5,2.2,1.8,4.2,3.1,7c11.1-7.9,21.8-15.5,32.6-23.2
	c5.2,8.7,9.9,16.7,14.7,24.5c5.5,9.1,5.6,9.2,15.6,5.4c7.5-2.9,14.7-6.3,22.2-9.2c8.6-3.4,16.2,0.5,18.4,9.4c0.3,1.3-1,3.2-1.9,4.5
	c-17.4,24.5-39.1,44.7-63.7,61.7c-18.1,12.5-37.2,23-58,30.2c-11.9,4.2-24.1,7.2-36.9,7.3c-12.7,0.1-23.6-4.8-33.5-12.3
	c-14.5-10.9-25.1-25.1-33.7-40.8c-24-43.6-34.7-90.5-33.4-140.2C64.1,521.4,64.2,520.8,64.3,519.6"/>
</svg>
