<svg id="Layer_1" xmlns="http://www.w3.org/2000/svg" viewBox="0 0 1161.5 480.5"><path fill="#CED7DC" d="M7,226l1145.6,97l-4.1,71.3l-902.3,8.8c0,0-221.4-27.6-230.3-50.3C7.1,330.2,7,226,7,226"/><path fill="none" stroke="#CED7DC" stroke-width="16" stroke-miterlimit="10" d="M8.8 204.6L1156 302"/><path fill="none" stroke="#4D6469" stroke-width="15" stroke-miterlimit="10" d="M7.9,327.8V78c0,0-3.9-29.4,40-29.4h329.8V35.9 h474.4v12.7h28.1h67.5h110.1c63.2,0,81.3,40.1,84.2,56.8c2.8,16.7,12.5,263.8,12.5,263.8s-3.6,30-26.5,30H255.6 c0,0-198.6-30-213.6-31.5C27.1,366.2,7.9,349.5,7.9,327.8z"/><path fill="#4D6469" d="M814,214.9H652.6c-3.3,0-6-2.7-6-6V120c0-3.3,2.7-6,6-6H814c3.3,0,6,2.7,6,6v88.9 C820,212.2,817.3,214.9,814,214.9"/><path fill="#FFF" d="M1070.4,361.2h-86.4c-3.3,0-6-2.7-6-6V127c0-3.3,2.7-6,6-6h86.4c3.3,0,6,2.7,6,6v228.2 C1076.4,358.5,1073.7,361.2,1070.4,361.2"/><path fill="none" stroke="#4D6469" stroke-width="15" stroke-miterlimit="10" d="M1070.4,361.2h-86.4c-3.3,0-6-2.7-6-6V127 c0-3.3,2.7-6,6-6h86.4c3.3,0,6,2.7,6,6v228.2C1076.4,358.5,1073.7,361.2,1070.4,361.2z"/><path fill="#4D6469" d="M84,206.5h89c3.3,0,6-2.7,6-6v-52.5c0-3.3-2.7-6-6-6H84c-3.3,0-6,2.7-6,6v52.5 C78,203.8,80.7,206.5,84,206.5"/><path fill="#4D6469" d="M937.6,263.4h-53.9c-3.3,0-6-2.7-6-6V120c0-3.3,2.7-6,6-6h53.9c3.3,0,6,2.7,6,6v137.4 C943.6,260.8,940.9,263.4,937.6,263.4"/><path fill="#4D6469" d="M424.3,214.9h169.7c3.3,0,6-2.7,6-6V120c0-3.3-2.7-6-6-6H424.3c-3.3,0-6,2.7-6,6v88.9 C418.3,212.2,421,214.9,424.3,214.9"/><path fill="#4D6469" d="M876.6,333.4c-40.6,0-73.5,32.9-73.5,73.5c0,40.6,32.9,73.5,73.5,73.5c40.6,0,73.5-32.9,73.5-73.5 C950.2,366.3,917.2,333.4,876.6,333.4"/><path fill="#4D6469" d="M323.2,333.4c-40.6,0-73.5,32.9-73.5,73.5c0,40.6,32.9,73.5,73.5,73.5c40.6,0,73.5-32.9,73.5-73.5 C396.8,366.3,363.9,333.4,323.2,333.4"/><path fill="#FFF" d="M876.9,453.3c-25.6,0-46.4-20.8-46.4-46.4c0-25.6,20.8-46.4,46.4-46.4c25.6,0,46.4,20.8,46.4,46.4 C923.2,432.5,902.4,453.3,876.9,453.3"/><path fill="#4D6469" d="M876.9,373.6c18.4,0,33.4,14.9,33.4,33.4c0,18.4-14.9,33.4-33.4,33.4c-18.4,0-33.4-14.9-33.4-33.4 C843.5,388.5,858.4,373.6,876.9,373.6 M876.9,347.6c-32.7,0-59.4,26.6-59.4,59.4c0,32.7,26.6,59.4,59.4,59.4 c32.7,0,59.4-26.6,59.4-59.4C936.2,374.2,909.6,347.6,876.9,347.6"/><path fill="#FFF" d="M323.2,453.6c-25.7,0-46.7-20.9-46.7-46.7c0-25.7,20.9-46.7,46.7-46.7c25.7,0,46.7,20.9,46.7,46.7 C369.9,432.7,349,453.6,323.2,453.6"/><path fill="#4D6469" d="M323.2,372.8c18.9,0,34.2,15.3,34.2,34.2s-15.3,34.2-34.2,34.2c-18.9,0-34.2-15.3-34.2-34.2 S304.4,372.8,323.2,372.8 M323.2,347.8c-32.6,0-59.2,26.5-59.2,59.2s26.5,59.2,59.2,59.2c32.6,0,59.2-26.5,59.2-59.2 S355.9,347.8,323.2,347.8"/><path fill="#4D6469" d="M315.2,160.2h-72.8c-3.3,0-6-2.7-6-6v-50.9c0-3.3,2.7-6,6-6h72.8c3.3,0,6,2.7,6,6v50.9 C321.2,157.5,318.5,160.2,315.2,160.2"/><path fill="#4D6469" d="M315.2,270.4h-72.8c-3.3,0-6-2.7-6-6v-50.9c0-3.3,2.7-6,6-6h72.8c3.3,0,6,2.7,6,6v50.9 C321.2,267.8,318.5,270.4,315.2,270.4"/><path fill="#CED7DC" d="M1048.6,341.1h-43.5c-3.3,0-6-2.7-6-6V148.1c0-3.3,2.7-6,6-6h43.5c3.3,0,6,2.7,6,6v187.1 C1054.6,338.4,1051.9,341.1,1048.6,341.1"/></svg>