<?xml version="1.0" encoding="utf-8"?>
<!-- Generator: Adobe Illustrator 19.2.1, SVG Export Plug-In . SVG Version: 6.00 Build 0)  -->
<svg version="1.1" id="Layer_3" xmlns="http://www.w3.org/2000/svg" xmlns:xlink="http://www.w3.org/1999/xlink" x="0px" y="0px"
	 viewBox="0 0 300 200" style="enable-background:new 0 0 300 200;" xml:space="preserve">
<style type="text/css">
	.st0{fill:#CECCCB;}
	.st1{fill:#E5E5E5;}
	.st2{fill:#989897;}
	.st3{fill:#676868;}
	.st4{fill:#76A546;}
	.st5{fill:#9BCC64;}
	.st6{fill:#BABABA;}
	.st7{fill:#4DA0D8;}
</style>
<g>
	<g id="Bottom_10_">
		<g>
			<path class="st0" d="M74.1,103.1V151c0,5.3,4.3,9.6,9.6,9.6h134.2c5.3,0,9.6-4.3,9.6-9.6v-47.9H74.1z"/>
		</g>
	</g>
	<g id="Bottom_12_">
		<g>
			<path class="st0" d="M74.1,103.1V151c0,5.3,4.3,9.6,9.6,9.6h134.2c5.3,0,9.6-4.3,9.6-9.6v-47.9H74.1z"/>
		</g>
	</g>
	<g id="Top_2_">
		<g>
			<path class="st1" d="M217.8,7.3H83.7c-5.3,0-9.6,4.3-9.6,9.6v86.2h153.3V16.8C227.4,11.5,223.1,7.3,217.8,7.3z"/>
		</g>
	</g>
	<g id="Slot_10_">
		<g>
			<path class="st2" d="M203.5,112.7H98c-2.6,0-4.8,2.1-4.8,4.8v19.2c0,2.6,2.1,4.8,4.8,4.8h105.4c2.6,0,4.8-2.1,4.8-4.8v-19.2
				C208.3,114.8,206.1,112.7,203.5,112.7z"/>
		</g>
	</g>
	<g id="Slot_8_">
		<g>
			<path class="st3" d="M193.9,122.2h-86.2c-2.6,0-4.8,2.1-4.8,4.8c0,2.6,2.1,4.8,4.8,4.8h86.2c2.6,0,4.8-2.1,4.8-4.8
				C198.7,124.4,196.5,122.2,193.9,122.2z"/>
		</g>
	</g>
	<g>
		<g id="Base_5_">
			<g>
				<path class="st4" d="M118.5,186.4c0,3.2,3.7,5.8,8.2,5.8h48.9c4.5,0,8.2-2.6,8.2-5.8v-64h-65.2v64H118.5z"/>
			</g>
		</g>
		<g id="Graphics_2_">
			<g>
				<path class="st5" d="M175.6,134v-11.7h-48.9v11.8c6-3.6,14.8-5.9,24.5-5.9C160.9,128.2,169.6,130.4,175.6,134z M126.7,157.2
					v23.3c4.5,0,8.1,2.6,8.1,5.9h32.7l0,0c0-3.2,3.6-5.8,8.1-5.8l0,0v-23.3c-6,3.6-14.7,5.9-24.5,5.9
					C141.4,163.1,132.7,160.8,126.7,157.2z M159.3,174.7c0,3.2-3.6,5.8-8.1,5.8s-8.1-2.6-8.1-5.9c0-3.2,3.6-5.8,8.1-5.8
					C155.6,168.9,159.3,171.5,159.3,174.7z M151.2,151.4c-2.3,0-4.3-0.7-5.8-1.8c-3.6,1.6-8.1,3.3-11.6,4.1
					c4.4,2.1,10.6,3.5,17.4,3.5c13.5,0,24.5-5.2,24.5-11.6c0-6.4-11-11.6-24.5-11.6c-6.9,0-13.1,1.3-17.5,3.5
					c3.6,0.8,8.1,2.5,11.7,4.1c1.5-1.1,3.5-1.8,5.8-1.8c4.5,0,8.1,2.6,8.1,5.8C159.3,148.8,155.6,151.4,151.2,151.4z"/>
			</g>
		</g>
	</g>
	<path class="st6" d="M133.5,103.1h94V16.8c0-2.4-0.9-4.7-2.4-6.3L133.5,103.1z"/>
	<g id="Display_4_">
		<g>
			<path class="st7" d="M174.7,26.4H98c-2.6,0-4.8,2.1-4.8,4.8v57.5c0,2.6,2.1,4.8,4.8,4.8h76.7c2.6,0,4.8-2.1,4.8-4.8V31.2
				C179.5,28.6,177.4,26.4,174.7,26.4z"/>
		</g>
	</g>
	<g id="Buttons_2_">
		<g>
			<path class="st2" d="M193.9,36h9.6c2.6,0,4.8-2.1,4.8-4.8c0-2.6-2.1-4.8-4.8-4.8h-9.6c-2.6,0-4.8,2.1-4.8,4.8
				C189.1,33.9,191.2,36,193.9,36z M203.5,45.6h-9.6c-2.6,0-4.8,2.1-4.8,4.8c0,2.6,2.1,4.8,4.8,4.8h9.6c2.6,0,4.8-2.1,4.8-4.8
				C208.3,47.7,206.1,45.6,203.5,45.6z M203.5,64.8h-9.6c-2.6,0-4.8,2.1-4.8,4.8c0,2.6,2.1,4.8,4.8,4.8h9.6c2.6,0,4.8-2.1,4.8-4.8
				S206.1,64.8,203.5,64.8z M203.5,83.9h-9.6c-2.6,0-4.8,2.1-4.8,4.8c0,2.6,2.1,4.8,4.8,4.8h9.6c2.6,0,4.8-2.1,4.8-4.8
				C208.3,86.1,206.1,83.9,203.5,83.9z"/>
		</g>
	</g>
</g>
</svg>
