<svg version="1" xmlns="http://www.w3.org/2000/svg" viewBox="0 0 50 50"><path fill="#AFE55D" d="M13.112 36.884c0 .033.005.063.005.096l35.606-12.96c-.5-6.105-5.6-10.904-11.835-10.904 0-6.566-5.326-11.884-11.892-11.884-6.56 0-11.884 5.318-11.884 11.884-6.566 0-11.884 5.318-11.884 11.884s5.318 11.884 11.884 11.884z"/><path fill="#C3FF68" d="M37.08 13.125c-.065 0-.127-.01-.192-.01 0-6.566-5.326-11.884-11.892-11.884-6.56 0-11.884 5.32-11.884 11.885-6.566 0-11.884 5.32-11.884 11.885 0 .39.022.774.058 1.153L37.08 13.125z"/><g fill="#444"><path d="M25.05 7.928a2.642 2.642 0 0 0-2.638-2.64 2.642 2.642 0 0 0-2.64 2.64 2.642 2.642 0 0 0 2.64 2.64 2.64 2.64 0 0 0 2.638-2.64zm-2.638 1.165a1.167 1.167 0 0 1-1.166-1.166c0-.642.523-1.165 1.166-1.165.642 0 1.165.523 1.165 1.165 0 .643-.523 1.166-1.165 1.166z"/><path d="M50 25c0-6.835-5.26-12.46-11.944-13.053C37.462 5.263 31.836.003 24.996.003c-6.833 0-12.463 5.255-13.06 11.937C5.256 12.537 0 18.166 0 25c0 6.835 5.26 12.46 11.943 13.053.594 6.684 6.22 11.943 13.06 11.943a1.228 1.228 0 0 0 0-2.456c-5.88 0-10.664-4.78-10.664-10.656s4.783-10.656 10.663-10.656c.44 0 .875-.024 1.304-.066.105-.01.206-.032.31-.044.323-.04.645-.084.96-.147.13-.025.255-.062.383-.09a13.1 13.1 0 0 0 .846-.22c.136-.04.268-.09.402-.137.262-.09.523-.18.777-.285.137-.056.27-.12.403-.18.244-.11.485-.224.72-.35.135-.07.265-.147.396-.223.226-.13.45-.262.666-.405.13-.085.256-.175.383-.265a12.94 12.94 0 0 0 .977-.762 13.876 13.876 0 0 0 .898-.846 14.48 14.48 0 0 0 .815-.925c.152-.19.297-.386.44-.585.096-.136.193-.272.285-.412.133-.203.257-.412.38-.623.084-.145.17-.29.25-.44.113-.216.215-.437.318-.66.07-.154.145-.306.21-.463.095-.23.175-.465.257-.7.055-.16.116-.316.165-.477.075-.248.134-.503.195-.757.037-.156.082-.31.114-.467.06-.293.098-.593.137-.893.016-.125.042-.246.054-.372 0-.007.003-.014.003-.02 5.332.58 9.493 5.11 9.493 10.592 0 5.876-4.78 10.656-10.657 10.656-.04 0-.075.02-.114.023H27.26a.98.98 0 0 0 0 1.965h8.36c-.033.47-.085.935-.18 1.388a1.23 1.23 0 0 0 2.406.495c.1-.483.164-.977.208-1.474C44.74 37.46 50 31.834 50 25zM2.456 25c0-5.864 4.76-10.634 10.62-10.654.013 0 .023.007.036.007h9.627a.982.982 0 0 0 0-1.964h-8.363c.377-5.538 4.99-9.93 10.62-9.93 5.88 0 10.663 4.78 10.663 10.656s-4.784 10.656-10.664 10.656c-.44 0-.875.024-1.304.066-.105.01-.206.032-.31.044-.323.04-.645.084-.96.147-.13.025-.255.062-.383.09a13.1 13.1 0 0 0-.847.22c-.136.04-.268.09-.402.137-.26.09-.522.18-.776.285-.137.057-.27.12-.404.182-.243.11-.484.222-.72.347-.134.072-.264.15-.397.226-.225.13-.447.262-.664.404-.132.086-.258.176-.386.266-.207.147-.41.298-.61.456a13.43 13.43 0 0 0-.92.808 12.204 12.204 0 0 0-.84.89 12.512 12.512 0 0 0-.756.964c-.097.137-.194.272-.287.412a13.08 13.08 0 0 0-.378.623c-.085.145-.17.29-.25.44-.115.215-.217.437-.32.66-.07.154-.144.306-.21.464-.093.23-.174.465-.256.7-.055.16-.116.315-.165.477-.074.25-.133.503-.194.757-.037.157-.083.31-.114.468-.06.293-.098.592-.136.89-.016.126-.042.248-.055.374l-.002.02c-5.33-.578-9.492-5.107-9.492-10.59z"/><path d="M27.588 39.433a2.642 2.642 0 0 0-2.64 2.64 2.642 2.642 0 0 0 2.64 2.638 2.642 2.642 0 0 0 2.638-2.638 2.642 2.642 0 0 0-2.638-2.64zm0 3.805a1.167 1.167 0 0 1 0-2.332 1.167 1.167 0 0 1 0 2.332z"/></g></svg>