<?xml version="1.0" encoding="UTF-8" standalone="no"?>
<svg
   xmlns:dc="http://purl.org/dc/elements/1.1/"
   xmlns:cc="http://web.resource.org/cc/"
   xmlns:rdf="http://www.w3.org/1999/02/22-rdf-syntax-ns#"
   xmlns:svg="http://www.w3.org/2000/svg"
   xmlns="http://www.w3.org/2000/svg"
   xmlns:sodipodi="http://inkscape.sourceforge.net/DTD/sodipodi-0.dtd"
   xmlns:inkscape="http://www.inkscape.org/namespaces/inkscape"
   version="1.0"
   width="6000"
   height="6000"
   viewBox="0 0 30240 15120"
   id="Flag of Australia"
   sodipodi:version="0.32"
   inkscape:version="0.43"
   sodipodi:docname="Chakana black.svg"
   sodipodi:docbase="C:\Documents and Settings\empresa\Escritorio">
  <metadata
     id="metadata30">
    <rdf:RDF>
      <cc:Work
         rdf:about="">
        <dc:format>image/svg+xml</dc:format>
        <dc:type
           rdf:resource="http://purl.org/dc/dcmitype/StillImage" />
      </cc:Work>
    </rdf:RDF>
  </metadata>
  <sodipodi:namedview
     inkscape:window-height="934"
     inkscape:window-width="1280"
     inkscape:pageshadow="2"
     inkscape:pageopacity="0.0"
     borderopacity="1.0"
     bordercolor="#666666"
     pagecolor="#ffffff"
     id="base"
     inkscape:zoom="0.067603396"
     inkscape:cx="1611.4922"
     inkscape:cy="3673.5425"
     inkscape:window-x="-4"
     inkscape:window-y="-4"
     inkscape:current-layer="Flag of Australia" />
  <defs
     id="defs17">
<!-- 7star and 5star have radius 9, centered at the origin -->    <polygon
       id="7star"
       points="0,-9 1.735535,-3.6038755 7.0364833,-5.6114082 3.8997116,-0.89008374 8.7743512,2.0026884 3.1273259,2.4939592 3.9049537,8.1087198 0,4 -3.9049537,8.1087198 -3.1273259,2.4939592 -8.7743512,2.0026884 -3.8997116,-0.89008374 -7.0364833,-5.6114082 -1.735535,-3.6038755 0,-9 " />
    <polygon
       id="5star"
       points="0,-9 2.351141,-3.236068 8.5595086,-2.7811529 3.8042261,1.236068 5.2900673,7.2811529 0,4 -5.2900673,7.2811529 -3.8042261,1.236068 -8.5595086,-2.7811529 -2.351141,-3.236068 0,-9 " />
    <polygon
       points="0,-9 2.351141,-3.236068 8.5595086,-2.7811529 3.8042261,1.236068 5.2900673,7.2811529 0,4 -5.2900673,7.2811529 -3.8042261,1.236068 -8.5595086,-2.7811529 -2.351141,-3.236068 0,-9 "
       id="polygon4016" />
    <polygon
       points="0,-9 1.735535,-3.6038755 7.0364833,-5.6114082 3.8997116,-0.89008374 8.7743512,2.0026884 3.1273259,2.4939592 3.9049537,8.1087198 0,4 -3.9049537,8.1087198 -3.1273259,2.4939592 -8.7743512,2.0026884 -3.8997116,-0.89008374 -7.0364833,-5.6114082 -1.735535,-3.6038755 0,-9 "
       id="polygon4014" />
  </defs>
  <path
     style="opacity:1;fill:#000000;fill-opacity:1;fill-rule:evenodd;stroke:none;stroke-opacity:1"
     d="M 1998 355 L 1998 1000 L 1000 1000 L 1000 2000 L 355 2000 L 355 4000 L 1000 4000 L 1000 5000 L 1998 5000 L 1998 5645 L 3998 5645 L 3998 5000 L 5000 5000 L 5000 4000 L 5645 4000 L 5645 2000 L 5000 2000 L 5000 1000 L 3998 1000 L 3998 355 L 1998 355 z M 3000 2000 C 3551.9998 2000 4000 2448.0001 4000 3000 C 4000 3551.9999 3551.9999 4000 3000 4000 C 2448 4000.0001 2000 3551.9999 2000 3000 C 2000 2448.0001 2448.0001 2000 3000 2000 z "
     transform="matrix(5.04,0,0,5.04,0,-7560)"
     id="rect1326" />
</svg>
