<?xml version="1.0" encoding="utf-8"?>
<!-- Generator: Adobe Illustrator 15.1.0, SVG Export Plug-In . SVG Version: 6.00 Build 0)  -->
<!DOCTYPE svg PUBLIC "-//W3C//DTD SVG 1.1//EN" "http://www.w3.org/Graphics/SVG/1.1/DTD/svg11.dtd">
<svg version="1.1" id="Layer_1" xmlns="http://www.w3.org/2000/svg" xmlns:xlink="http://www.w3.org/1999/xlink" x="0px" y="0px"
	 width="394.312px" height="81.776px" viewBox="0 0 394.312 81.776" enable-background="new 0 0 394.312 81.776"
	 xml:space="preserve">
<g>
	<polygon fill="#EC008C" points="93.445,59.91 98.758,39.907 128.449,39.907 123.761,59.91 93.445,59.91 	"/>
	<path fill="#EC008C" d="M214.084,3.653c-4.525-1.479-7.17-2.105-11.879-2.811c-8.566-1.285-14.157-0.971-22.208,0.079
		c-10.24,1.333-21.604,4.434-31.546,13.357c-12.424,11.153-17.428,26.551-17.501,39.067c-0.046,7.819,3.303,14.544,9.982,20.319
		c5.042,4.36,9.126,5.5,15.649,6.872c8.75,1.842,16.495,1.451,26.875,0c3.315-0.464,5.18-0.805,8.439-1.563
		c2.707-0.63,6.875-1.875,6.875-1.875l9.063-37.191h-24.689l-4.689,21.252c-2.204,0.796-3.594,1.016-5.937,0.939
		c-3.895-0.127-6.473-0.778-9.377-3.44c-3.75-3.438-3.357-13.542-0.313-21.252c2.271-5.751,4.694-8.958,9.774-12.485
		c6.535-4.535,11.965-4.576,19.918-4.392c6.622,0.153,10.522,1.037,16.565,3.75L214.084,3.653L214.084,3.653z"/>
	<path fill="#EC008C" d="M247.424,43.477h15.638l-1.252-25.024L247.424,43.477L247.424,43.477z M200.814,79.762l45.67-78.826h37.849
		l6.255,78.826h-30.03V62.871h-23.145l-8.131,16.891H200.814L200.814,79.762z"/>
	<path fill="#EC008C" d="M372.539,3.339c0,0-3.227-0.833-5.313-1.25c-3.38-0.675-5.321-0.915-8.75-1.25
		c-7.849-0.769-12.382-0.78-20.22,0.082c-6.622,0.727-17.297,2.437-24.785,9.607c-7.17,6.865-10.627,14.377-10.627,23.127
		c0,7.37,5.641,11.752,10.003,12.814c2.396,0.584,10.388,3.026,16.794,4.877c4.421,1.277,5.399,2.223,5.394,5.124
		c-0.005,3.119-3.52,4.331-6.67,5.179c-2.99,0.805-8.743,0.781-14.269,0.135c-6.787-0.794-10.655-1.868-16.877-4.688l-5.002,20.002
		c5.358,1.784,8.487,2.551,14.065,3.438c10.711,1.705,18.082,2.083,27.816,0c8.522-1.825,13.452-4.044,20.206-9.552
		c4.605-3.758,9.717-10.299,10.421-18.577c0.475-5.573,0.541-9.584-2.811-14.063c-3.892-5.203-9.188-5.059-15.315-6.563
		c-4.196-1.029-6.694-0.894-10.964-2.374c-1.798-0.625-2.786-1.818-2.789-4.501c0-3.061,2.99-4.268,6.184-4.832
		c4.124-0.728,6.725-0.468,11.007-0.168c4.555,0.32,7.182,0.587,11.562,1.875c2.368,0.696,3.686,1.181,5.94,2.188L372.539,3.339
		L372.539,3.339z"/>
	<path fill="#EC008C" d="M46.607,43.477h15.639l-1.251-25.024L46.607,43.477L46.607,43.477z M0,79.762L45.668,0.936h37.849
		l6.256,78.826H59.744V62.871H36.597l-8.132,16.891H0L0,79.762z"/>
	<path fill="#EC008C" d="M383.707,10.821h1.521l2.542,4.208h1.831l-2.756-4.327c1.472-0.166,2.566-0.902,2.566-2.685
		c0-1.997-1.211-2.83-3.591-2.83h-3.731v9.842h1.619V10.821L383.707,10.821z M383.707,9.442V6.565h1.947
		c0.975,0,2.14,0.143,2.14,1.333c0,1.426-1.07,1.544-2.281,1.544H383.707L383.707,9.442z M394.166,9.941
		c0-5.349-4.041-8.891-8.702-8.891c-4.707,0-8.748,3.542-8.748,8.891c0,5.064,3.636,8.892,8.748,8.892
		C390.125,18.833,394.166,15.29,394.166,9.941L394.166,9.941z M392.265,9.941c0,4.351-2.996,7.346-6.801,7.346
		c-4.231,0-6.847-3.305-6.847-7.346c0-4.327,2.996-7.346,6.847-7.346C389.269,2.595,392.265,5.614,392.265,9.941L392.265,9.941z"/>
</g>
</svg>
