<?xml version="1.0" encoding="utf-8"?>
<!-- Generator: Adobe Illustrator 19.2.1, SVG Export Plug-In . SVG Version: 6.00 Build 0)  -->
<svg version="1.1" id="Layer_1" xmlns="http://www.w3.org/2000/svg" xmlns:xlink="http://www.w3.org/1999/xlink" x="0px" y="0px"
	 viewBox="0 30 200 110" style="enable-background:new 0 0 200 110;" xml:space="preserve">
<style type="text/css">
	.st0{fill:#006FB1;}
	.st1{fill:#676767;}
</style>
<g>
	<g>
		<path class="st0" d="M10.7,136l3.1-11.5h2.3L13,136H10.7z"/>
		<path class="st0" d="M28.7,128.6l-2,7.4h-2.3l3.1-11.5h2.2l2.9,7.4h0l2-7.4H37L33.9,136h-2.2L28.7,128.6L28.7,128.6z"/>
		<path class="st0" d="M54.5,134.9l-2.2,1.1h-7l3.1-11.5h7l1.6,1.1L54.5,134.9z M50.2,126.5l-2,7.6h4.4l2-7.6H50.2z"/>
		<path class="st0" d="M74.8,124.6h2.3L74.3,135l-2.2,1.1H67l-1.6-1.1l2.8-10.5h2.3l-2.6,9.4h4.4L74.8,124.6z"/>
		<path class="st0" d="M86.9,130.2l1.3-4.6l2.2-1.1h4.2l1.6,1.1l-0.6,2.2h-2.3l0.4-1.3h-3.4l-0.7,2.7h3.8l1.6,1.1l-1.3,4.7l-2.2,1.1
			h-4.3l-1.6-1.1l0.6-2.2h2.3l-0.4,1.3h3.5l0.8-2.8h-3.8L86.9,130.2z"/>
		<path class="st0" d="M109.9,126.5l-2.6,9.5H105l2.6-9.5h-3.1l0.5-2h8.5l-0.5,2H109.9z"/>
		<path class="st0" d="M130.5,136H128l-1.3-4.3h-1.4l-1.2,4.3h-2.3l3.1-11.5h6.2l1.6,1.1l-1.3,5l-2.2,1.1L130.5,136z M126.7,126.5
			l-0.9,3.2h3.5l0.9-3.2H126.7z"/>
		<path class="st0" d="M141.1,136l3.1-11.5h2.3l-3.1,11.5H141.1z"/>
		<path class="st0" d="M164.4,124.6l1,11.5h-2.3l-0.2-2.5h-4.3L157,136h-2.3l7.2-11.5H164.4z M162.4,127.4l-2.6,4.2h2.9L162.4,127.4
			L162.4,127.4z"/>
		<path class="st0" d="M173.7,136l3.1-11.5h2.3l-2.6,9.5h3.9l-0.5,2H173.7z"/>
	</g>
	<path class="st0" d="M109.8,59.6l-2.3,8.8l4.8,2.4l-1,3.6H83.9L73.3,85.2h37.5c5.9,0,12-4.8,13.6-10.7l4-14.9H109.8L109.8,59.6z"/>
	<path class="st1" d="M102.1,68.4l2.3-8.8l-4.8-2.4l1-3.6H129l10.5-10.8H101c-5.9,0-12,4.8-13.6,10.7l-4,14.9H102.1L102.1,68.4z"/>
	<path class="st1" d="M38.8,104.2H22.1l1.4-5.2h18.2l1.1-3.9l0.3-1.1h0l0,0H22c-0.8,0-1.6,0.3-2.3,0.9c-0.7,0.6-1.2,1.3-1.4,2.1
		l-2.5,9.2c-0.2,0.8-0.1,1.6,0.3,2.1c0.4,0.6,1,0.9,1.8,0.9h16.7l-1.4,5.3H13.5l-1.4,5h22.5c0.8,0,1.6-0.3,2.3-0.9
		c0.7-0.6,1.2-1.3,1.4-2.1l2.5-9.2c0.2-0.8,0.1-1.5-0.3-2.2C40.2,104.5,39.6,104.2,38.8,104.2z"/>
	<path class="st1" d="M159.9,94.8c-0.4-0.6-1-0.9-1.8-0.9h-22.5l-6.9,25.6h22.5c0.8,0,1.6-0.3,2.3-0.9c0.7-0.6,1.2-1.3,1.5-2.1
		l5.3-19.5C160.4,96.1,160.3,95.4,159.9,94.8z M149.7,114.5h-13.8l4.2-15.5h13.8L149.7,114.5z"/>
	<path class="st1" d="M189.8,93.9h-1.9h-0.8c-0.1,0-0.1,0-0.2,0h-19.6c-0.8,0-1.6,0.3-2.3,0.9c-0.7,0.6-1.2,1.3-1.4,2.1l-6.1,22.6
		h5.8l2.1-7.8h13.8l-2.1,7.8h5.8l4.2-15.7l0,0l0.1-0.4l1.8-6.5c0-0.1,0-0.2,0-0.2l0.4-1.7L189.8,93.9z M180.6,106.7h-13.8l2.1-7.8
		h13.8L180.6,106.7z"/>
	<polygon class="st1" points="131.2,95 131.5,93.9 131.5,93.9 131.5,93.9 125.8,93.9 121.8,108.6 106.5,92.6 99.2,119.5 105,119.5 
		108.9,104.8 124.3,120.8 128.9,103.7 	"/>
	<path class="st1" d="M99.3,103.9l2.4-8.9l0.3-1.1h-1.9h-0.8c-0.1,0-0.1,0-0.2,0H79.5c-0.8,0-1.6,0.3-2.3,0.9
		c-0.7,0.6-1.2,1.3-1.4,2.1l-6.1,22.6h5.8l2.1-7.8h13.8l-2.1,7.8h5.8L99.3,103.9L99.3,103.9z M92.8,106.7H79l2.1-7.8h13.8
		L92.8,106.7z"/>
	<path class="st1" d="M69.8,103.9l2.4-8.9l0.3-1.1h-1.9h-0.9c-0.1,0-0.1,0-0.2,0H47.1l-6.9,25.6H46l2.1-7.8h16.7
		c0.8,0,1.6-0.3,2.3-0.9c0.7-0.6,1.2-1.3,1.5-2.2L69.8,103.9L69.8,103.9z M63.3,106.7H49.4l2.1-7.8h13.8L63.3,106.7z"/>
</g>
</svg>
