<?xml version="1.0" encoding="utf-8"?>
<!-- Generator: Adobe Illustrator 15.0.0, SVG Export Plug-In . SVG Version: 6.00 Build 0)  -->
<!DOCTYPE svg PUBLIC "-//W3C//DTD SVG 1.1//EN" "http://www.w3.org/Graphics/SVG/1.1/DTD/svg11.dtd">
<svg version="1.1" id="Ebene_1" xmlns="http://www.w3.org/2000/svg" xmlns:xlink="http://www.w3.org/1999/xlink" x="0px" y="0px"
	 width="879.395px" height="207.639px" viewBox="41.803 0 879.395 207.639" enable-background="new 41.803 0 879.395 207.639"
	 xml:space="preserve">
<g>
	<g>
		<path fill="#FFFFFF" d="M195.851,200.954L195.851,200.954L195.851,200.954l-6.827-184.475
			c-0.321-8.994-7.705-16.118-16.705-16.118H65.336c-9,0-16.383,7.124-16.705,16.118l-6.828,184.475l0,0l0,0v0.002l0,0
			c0,3.692,2.995,6.686,6.688,6.686c0.005,0,0.007-0.003,0.012-0.003h20.036c0.005,0,0.007,0.003,0.011,0.003
			c3.695,0,6.688-2.993,6.688-6.686h0.02l2.98-80.239h81.182l2.979,80.239h0.019c0,3.692,2.996,6.686,6.688,6.686
			c0.005,0,0.008-0.003,0.012-0.003h20.037c0.004,0,0.006,0.003,0.011,0.003c3.695,0,6.688-2.993,6.688-6.686l0,0V200.954z
			 M79.479,87.285l1.987-53.492h74.724l1.986,53.492H79.479z"/>
		<path fill="#FFFFFF" d="M921.197,174.209h-30.744l0.67,17.355c0.346,8.977,7.721,16.074,16.701,16.074h13.373V174.209z"/>
	</g>
	<path fill="#FFFFFF" d="M867.703,33.795v-0.002c3.697,0,6.688-2.992,6.688-6.688c0-0.005-0.002-0.008-0.002-0.013V7.058
		c0-0.005,0.002-0.007,0.002-0.012c0-3.693-2.99-6.687-6.688-6.687c-0.01,0-0.021,0.002-0.033,0.002H760.725
		c-9.234,0-16.715,7.484-16.715,16.717v157.129H639.518l-0.002-21.651l85.281-73.622c3.707-3.175,5.838-7.812,5.838-12.691
		l0.002-49.164c0-4.435-1.762-8.687-4.895-11.82c-3.137-3.134-7.389-4.896-11.822-4.896H613.656c-0.014,0-0.023-0.002-0.037-0.002
		c-3.691,0-6.686,2.993-6.686,6.687c0,0.005,0,0.007,0,0.012v20.035c0,0.005,0,0.008,0,0.013c0,3.695,2.994,6.688,6.686,6.688h0.004
		v0.002h83.582v22.397l-87.773,75.233c-3.707,3.177-5.84,7.813-5.838,12.694v30.087h-14.006l-6.066-157.771
		c-0.346-8.977-7.723-16.074-16.705-16.074H459.835c-8.981,0-16.358,7.098-16.704,16.074l-6.068,157.771h-14.634l-6.067-157.771
		c-0.346-8.976-7.721-16.074-16.704-16.074h-46.806c-8.908,0-16.25,6.984-16.695,15.88l-5.893,117.85h-15.002l-5.892-117.85
		c-0.444-8.896-7.787-15.88-16.695-15.88h-46.806c-9,0-16.384,7.124-16.705,16.118l-6.827,184.475v0.002
		c0,3.692,2.994,6.686,6.687,6.686c0.005,0,0.008-0.003,0.012-0.003h20.037c0.004,0,0.006,0.003,0.011,0.003
		c3.695,0,6.687-2.993,6.687-6.686h0.021l6.208-167.163h14.775l5.892,117.847c0.444,8.898,7.787,15.88,16.694,15.88h46.807
		c8.908,0,16.25-6.981,16.695-15.88l5.892-117.847h14.818l6.068,157.771c0.345,8.977,7.722,16.074,16.704,16.074h46.804
		c8.982,0,16.359-7.098,16.704-16.074l2.726-70.848h81.497l2.727,70.848c0.346,8.977,7.721,16.074,16.705,16.074h15.076
		c8.373-0.025,15.34-6.221,16.496-14.344c1.152,8.133,8.131,14.332,16.518,14.344h15.432l0,0H744.01l0,0h33.428h90.266l0,0
		c3.697,0,6.686-2.992,6.686-6.685c0-0.005,0-0.01,0-0.015v-20.033c0-0.005,0-0.01,0-0.012c0-3.694-2.992-6.689-6.686-6.689
		c-0.008,0-0.016,0.004-0.021,0.004l-90.244-0.002v-55.85h76.883c0.004,0,0.01,0,0.012,0c3.691,0,6.688-2.992,6.688-6.685
		c0-0.004,0-0.009,0-0.014V91.625c0-0.005,0-0.01,0-0.012c0-3.694-2.996-6.688-6.688-6.688c-0.002,0-0.008,0.002-0.012,0.002
		l-76.883-0.002V33.793L867.703,33.795z M473.862,87.285l2.059-53.492h74.812l2.055,53.492H473.862z"/>
</g>
</svg>
