<?xml version="1.0" encoding="iso-8859-1"?>
<!-- Generator: Adobe Illustrator 19.2.0, SVG Export Plug-In . SVG Version: 6.00 Build 0)  -->
<svg version="1.1" id="Layer_1" xmlns="http://www.w3.org/2000/svg" xmlns:xlink="http://www.w3.org/1999/xlink" x="0px" y="0px"
	 viewBox="0 0 111.441 55.109" style="enable-background:new 0 0 111.441 55.109;" xml:space="preserve">
<g>
	<path style="fill:#231F20;" d="M106.228,45.084c1.312,0,2.117,0.595,2.117,1.749v0.036c0,1.032-0.753,1.732-2.065,1.732h-2.729
		v-3.517H106.228z M106.455,42.653h-5.598v12.246h2.694V50.98h2.082h0.035l2.624,3.919h3.149l-2.991-4.374
		c1.557-0.578,2.624-1.82,2.624-3.797v-0.034c0-1.154-0.367-2.117-1.05-2.799C109.219,43.09,108.012,42.653,106.455,42.653
		 M95.713,42.653h-9.236v12.246H95.8v-2.397h-6.647v-2.571h5.773v-2.397h-5.773v-2.484h6.559V42.653z M56.227,48.74
		c0-2.099,1.504-3.813,3.674-3.813s3.71,1.749,3.71,3.849v0.034c0,2.099-1.506,3.814-3.674,3.814c-2.17,0-3.71-1.749-3.71-3.849
		V48.74z M53.411,48.776v0.034c0,3.482,2.712,6.298,6.49,6.298s6.526-2.852,6.526-6.332V48.74c0-3.482-2.712-6.298-6.49-6.298
		C56.157,42.442,53.411,45.294,53.411,48.776 M25.631,51.207l-1.592,1.907c1.469,1.312,3.341,1.96,5.195,1.96
		c2.641,0,4.496-1.365,4.496-3.797v-0.034c0-2.135-1.4-3.027-3.883-3.674c-2.117-0.542-2.641-0.804-2.641-1.61v-0.034
		c0-0.595,0.542-1.067,1.574-1.067c1.031,0,2.099,0.455,3.183,1.207l1.4-2.03c-1.242-0.997-2.763-1.556-4.549-1.556
		c-2.502,0-4.286,1.469-4.286,3.691v0.034c0,2.432,1.592,3.114,4.059,3.744c2.046,0.525,2.466,0.875,2.466,1.557v0.034
		c0,0.717-0.665,1.154-1.768,1.154C27.886,52.694,26.732,52.117,25.631,51.207 M19.158,42.653h-2.694v12.246h2.694V42.653z
		 M2.696,45.084h2.081c2.205,0,3.692,1.523,3.692,3.692v0.034c0,2.17-1.487,3.657-3.692,3.657H2.696V45.084z M4.776,42.653H0.001
		v12.246h4.775c3.849,0,6.509-2.677,6.509-6.123V48.74C11.285,45.294,8.625,42.653,4.776,42.653 M8.821,17.297
		c0-4.908,3.7-8.928,9.002-8.928c3.256,0,5.204,1.085,6.808,2.664l-2.417,2.787c-1.332-1.209-2.688-1.948-4.415-1.948
		c-2.91,0-5.007,2.417-5.007,5.376v0.049c0,2.959,2.048,5.426,5.007,5.426c1.974,0,3.182-0.788,4.539-2.022l2.417,2.442
		c-1.775,1.899-3.749,3.082-7.079,3.082c-5.081,0-8.854-3.921-8.854-8.879V17.297z M0,34.595h34.595V0H0V34.595z M38.191,48.776
		v0.034c0,3.516,2.677,6.298,6.281,6.298c2.362,0,3.761-0.84,5.022-2.187l-1.715-1.732c-0.962,0.875-1.82,1.435-3.219,1.435
		c-2.099,0-3.551-1.749-3.551-3.849V48.74c0-2.099,1.487-3.813,3.551-3.813c1.225,0,2.187,0.525,3.132,1.381l1.715-1.976
		c-1.138-1.12-2.519-1.89-4.829-1.89C40.815,42.442,38.191,45.294,38.191,48.776 M47.087,17.297c0-4.908,3.7-8.928,9.002-8.928
		c3.256,0,5.204,1.085,6.808,2.664l-2.417,2.787c-1.332-1.209-2.688-1.948-4.415-1.948c-2.91,0-5.007,2.417-5.007,5.376v0.049
		c0,2.959,2.048,5.426,5.007,5.426c1.974,0,3.182-0.788,4.539-2.022l2.417,2.442c-1.775,1.899-3.749,3.082-7.079,3.082
		c-5.081,0-8.854-3.921-8.854-8.879V17.297z M38.266,34.595h34.595V0H38.266V34.595z M79.024,42.653l-3.202,8.624l-3.202-8.624
		h-2.974l4.951,12.334h2.379l4.951-12.334H79.024z M85.353,17.297c0-4.908,3.7-8.928,9.002-8.928c3.256,0,5.205,1.085,6.808,2.664
		l-2.417,2.787c-1.332-1.209-2.688-1.948-4.415-1.948c-2.91,0-5.007,2.417-5.007,5.376v0.049c0,2.959,2.048,5.426,5.007,5.426
		c1.974,0,3.182-0.788,4.539-2.022l2.417,2.442c-1.777,1.899-3.749,3.082-7.079,3.082c-5.081,0-8.854-3.921-8.854-8.879V17.297z
		 M76.532,34.595h34.595V0H76.532V34.595z"/>
</g>
</svg>
