<svg xmlns="http://www.w3.org/2000/svg" version="1.1" width="479.99999999999994" height="412.5" viewBox="0 0 479.99999999999994 412.5"><defs/><path fill="none" stroke="#000000" d="M 75,337.5 L 455,337.5" style="stroke-width: 1px;opacity: 0.3" stroke-width="1" opacity="0.3"/><path fill="none" stroke="#000000" d="M 75,307.5 L 455,307.5" style="stroke-width: 1px;opacity: 0.3" stroke-width="1" opacity="0.3"/><path fill="none" stroke="#000000" d="M 75,277.5 L 455,277.5" style="stroke-width: 1px;opacity: 0.3" stroke-width="1" opacity="0.3"/><path fill="none" stroke="#000000" d="M 75,247.5 L 455,247.5" style="stroke-width: 1px;opacity: 0.3" stroke-width="1" opacity="0.3"/><path fill="none" stroke="#000000" d="M 75,217.5 L 455,217.5" style="stroke-width: 1px;opacity: 0.3" stroke-width="1" opacity="0.3"/><path fill="none" stroke="#000000" d="M 75,187.5 L 455,187.5" style="stroke-width: 1px;opacity: 0.3" stroke-width="1" opacity="0.3"/><path fill="none" stroke="#000000" d="M 75,157.5 L 455,157.5" style="stroke-width: 1px;opacity: 0.3" stroke-width="1" opacity="0.3"/><path fill="none" stroke="#000000" d="M 75,127.5 L 455,127.5" style="stroke-width: 1px;opacity: 0.3" stroke-width="1" opacity="0.3"/><path fill="none" stroke="#000000" d="M 75,97.5 L 455,97.5" style="stroke-width: 1px;opacity: 0.3" stroke-width="1" opacity="0.3"/><path fill="none" stroke="#000000" d="M 75,67.5 L 455,67.5" style="stroke-width: 1px;opacity: 0.3" stroke-width="1" opacity="0.3"/><path fill="none" stroke="#000000" d="M 75,37.5 L 455,37.5" style="stroke-width: 1px;opacity: 0.3" stroke-width="1" opacity="0.3"/><path fill="none" stroke="#000000" d="M 121.604,343.5 L 121.604,337.5" style="stroke-width: 2px;opacity: 1" stroke-width="2" opacity="1"/><path fill="#9ab8ed" stroke="none" d="M 96.5094,337.5 L 96.5094,337.5 L 146.698,337.5 L 146.698,337.5" style="stroke-width: 2px;opacity: 1" stroke-width="2" opacity="1"/><path fill="#9ab8ed" stroke="#000000" d="M 193.302,343.5 L 193.302,337.5" style="stroke-width: 2px;opacity: 1" stroke-width="2" opacity="1"/><path fill="#9ab8ed" stroke="none" d="M 168.208,337.5 L 168.208,157.5 L 218.396,157.5 L 218.396,337.5" style="stroke-width: 2px;opacity: 1" stroke-width="2" opacity="1"/><path fill="#9ab8ed" stroke="#000000" d="M 265,343.5 L 265,337.5" style="stroke-width: 2px;opacity: 1" stroke-width="2" opacity="1"/><path fill="#9ab8ed" stroke="none" d="M 239.906,337.5 L 239.906,187.5 L 290.094,187.5 L 290.094,337.5" style="stroke-width: 2px;opacity: 1" stroke-width="2" opacity="1"/><path fill="#9ab8ed" stroke="#000000" d="M 336.698,343.5 L 336.698,337.5" style="stroke-width: 2px;opacity: 1" stroke-width="2" opacity="1"/><path fill="#9ab8ed" stroke="none" d="M 311.604,337.5 L 311.604,157.5 L 361.792,157.5 L 361.792,337.5" style="stroke-width: 2px;opacity: 1" stroke-width="2" opacity="1"/><path fill="#9ab8ed" stroke="#000000" d="M 408.396,343.5 L 408.396,337.5" style="stroke-width: 2px;opacity: 1" stroke-width="2" opacity="1"/><path fill="#9ab8ed" stroke="none" d="M 383.302,337.5 L 383.302,97.5 L 433.491,97.5 L 433.491,337.5" style="stroke-width: 2px;opacity: 1" stroke-width="2" opacity="1"/><path fill="#9ab8ed" stroke="#000000" d="M 75,337.5 L 455,337.5" style="stroke-width: 2px;opacity: 1" stroke-width="2" opacity="1"/><path fill="#9ab8ed" stroke="#000000" d="M 75,337.5 L 75,37.5" style="stroke-width: 2px;opacity: 1" stroke-width="2" opacity="1"/></svg>