<?xml version="1.0" encoding="utf-8"?>
<!-- Generator: Adobe Illustrator 19.1.0, SVG Export Plug-In . SVG Version: 6.00 Build 0)  -->
<svg version="1.1" id="Layer_2" xmlns="http://www.w3.org/2000/svg" xmlns:xlink="http://www.w3.org/1999/xlink" x="0px" y="0px"
	 viewBox="0 0 160.6 138.7" style="enable-background:new 0 0 160.6 138.7;" xml:space="preserve">
<style type="text/css">
	.st0{fill:#FFFFFF;stroke:#FFFFFF;stroke-width:4;stroke-miterlimit:10;}
	.st1{fill:#AC4FC6;}
	.st2{fill:#DA291C;}
	.st3{fill:#C4D600;}
	.st4{fill:#64A70B;}
	.st5{fill:#0092BC;}
	.st6{fill:#004F71;}
	.st7{fill:#F2A900;}
</style>
<g>
	<path class="st0" d="M47.6,59.3c3.7,0,7.1,2,9,5.2l9.7,16.2h26.1l9.7-16.2c1.9-3.2,5.4-5.2,9-5.2c3.7,0,7.1,2,9.1,5.2l0.6,0.9
		c-0.3-0.7-0.7-1.4-1.2-2L88.4,11.5c-1.9-3.2-5.3-5.2-9-5.2c-3.7,0-7.1,1.9-9.1,5.2l-31.8,53v0v0C40.5,61.3,43.9,59.3,47.6,59.3"/>
	<path class="st0" d="M96.7,82.5l-6,0c-32.9-16.6-39.6-15.6-52.3-7.3c-3.2,2.1-1.8-7.4,0.2-10.7l-31.8,53c-2,3.3-2,7.4-0.2,10.8
		c1.9,3.3,5.4,5.4,9.2,5.4h6L96.7,82.5z"/>
	<path class="st0" d="M98.1,112.3l13-21.7l-6-10H92.4l-13,21.7l8.4,14c1.4,1.8,2.3,4.1,2.3,6.6c0,5.9-4.7,10.7-10.6,10.7h57.5
		l-12.8-21.3H98.1z"/>
	<path class="st0" d="M66.4,93.9c-12.3,12.3,1.9,31,3.8,34.3c1.8,3.3,5.4,5.4,9.2,5.4h0.1c5.9,0,10.6-4.8,10.6-10.7l61.3-6.6
		l-30.6-51c0.7,1.4,1,2.9,1,4.6c0,5.9-4.7,10.7-10.6,10.7h-0.1h-6l31.8,53h6h0.1c5.8,0,10.6-4.8,10.6-10.7c0-2.5-0.8-4.8-2.3-6.6
		l-40.2-57.1c-3.7,0-7.1,2-9,5.2l-9.7,16.2h18.7h0.1c5.9,0,10.6-4.8,10.6-10.7c0-1.6-0.4-3.2-1-4.6l-0.6-0.9
		c-1.9-3.2-5.4-5.2-9.1-5.2"/>
	<path class="st0" d="M79.4,102.4l-9.1,15.1c-2,3.3-2,7.4-28.4-16.9l19.9-5.2c34.7,25.7,26.2-25.8,2.7-27.5l13.2,26.4"/>
	<path class="st0" d="M70.2,128.2c1.8,3.3,5.4,5.4,9.2,5.4H21.8l12.8-21.3h26.1l-13-21.7l6-10"/>
	<path class="st0" d="M38.4,75.2"/>
	<path class="st0" d="M35.2,75.4c-1.9-3.3,1.4-7.6,3.4-10.8v0c1.9-3.2,5.3-5.2,9.1-5.2c3.7,0,7.1,2,9,5.2l9.7,16.2"/>
</g>
<g>
	<path class="st1" d="M111.1,59.3c-3.7,0-7.1,2-9,5.2l-9.7,16.2h18.7h0.1c5.9,0,10.6-4.8,10.6-10.7c0-1.6-0.4-3.2-1-4.6l-0.6-0.9
		C118.3,61.3,114.9,59.3,111.1,59.3"/>
	<g>
		<path class="st2" d="M47.6,59.3c3.7,0,7.1,2,9,5.2l9.7,16.2h26.1l9.7-16.2c1.9-3.2,5.4-5.2,9-5.2c3.7,0,7.1,2,9.1,5.2l0.6,0.9
			c-0.3-0.7-0.7-1.4-1.2-2L88.4,11.5c-1.9-3.2-5.3-5.2-9-5.2c-3.7,0-7.1,1.9-9.1,5.2l-31.8,53v0v0C40.5,61.3,43.9,59.3,47.6,59.3
			 M79.4,37.6l13,21.7H66.3L79.4,37.6z"/>
		<path class="st3" d="M70.2,128.2c-1.9-3.4-1.8-7.5,0.1-10.8l9.1-15.1l-13-21.7H53.6l-6,10l13,21.7H34.6l-12.8,21.3h57.6
			C75.6,133.7,72,131.6,70.2,128.2"/>
		<path class="st4" d="M53.6,80.7h-6c-3.8,0-7.3-2.1-9.2-5.4c-1.9-3.3-1.8-7.4,0.2-10.7l-31.8,53c-2,3.3-2,7.4-0.2,10.8
			c1.9,3.3,5.4,5.4,9.2,5.4h6L53.6,80.7z"/>
		<path class="st5" d="M98.1,112.3l13-21.7l-6-10H92.4l-13,21.7l8.4,14c1.4,1.8,2.3,4.1,2.3,6.6c0,5.9-4.7,10.7-10.6,10.7h57.5
			l-12.8-21.3H98.1z"/>
		<path class="st6" d="M151.3,116.4l-30.6-51c0.7,1.4,1,2.9,1,4.6c0,5.9-4.7,10.7-10.6,10.7h-0.1h-6l31.8,53h6h0.1
			c5.8,0,10.6-4.8,10.6-10.7C153.6,120.5,152.7,118.2,151.3,116.4"/>
		<path class="st7" d="M38.4,75.2c1.9,3.3,5.4,5.4,9.2,5.4h18.7l-9.7-16.2c-1.9-3.2-5.3-5.2-9-5.2c-3.7,0-7.2,2-9.1,5.2v0
			C36.6,67.8,36.5,71.9,38.4,75.2"/>
	</g>
	<path class="st4" d="M90,123c0-2.5-0.8-4.8-2.3-6.6l-8.4-14l-9.1,15.1c-2,3.3-2,7.4-0.1,10.8c1.8,3.3,5.4,5.4,9.2,5.4h0.1
		C85.3,133.7,90,128.9,90,123"/>
</g>
</svg>
