<?xml version="1.0" encoding="UTF-8"?>
<!DOCTYPE svg PUBLIC "-//W3C//DTD SVG 1.1//EN" "http://www.w3.org/Graphics/SVG/1.1/DTD/svg11.dtd">
<!-- Creator: CorelDRAW X6 -->
<svg xmlns="http://www.w3.org/2000/svg" xml:space="preserve" width="4657px" height="4657px" version="1.1" style="shape-rendering:geometricPrecision; text-rendering:geometricPrecision; image-rendering:optimizeQuality; fill-rule:evenodd; clip-rule:evenodd"
viewBox="0 0 4522 4522"
 xmlns:xlink="http://www.w3.org/1999/xlink">
 <defs>
  <style type="text/css">
   <![CDATA[
    .fil0 {fill:none}
    .fil3 {fill:#FEFEFE}
    .fil1 {fill:#07B1BA}
    .fil2 {fill:#FEFEFE;fill-rule:nonzero}
   ]]>
  </style>
 </defs>
 <g id="Layer_x0020_1">
  <metadata id="CorelCorpID_0Corel-Layer"/>
  <rect class="fil0" width="4522" height="4522"/>
  <path class="fil1" d="M2131 537c118,0 213,99 213,220 0,121 -95,220 -213,220 -117,0 -212,-99 -212,-220 0,-121 95,-220 212,-220zm-520 1416c64,-202 327,-235 445,-114 94,98 45,246 -46,276 -31,9 -140,27 -146,-85 -61,-7 -78,151 37,212 187,100 371,-25 409,-146 123,-388 -248,-555 -598,-424l133 -696c87,161 196,210 316,205 134,-5 238,-83 277,-205l218 818c127,477 -199,778 -471,800 -401,33 -693,-271 -574,-641z"/>
  <path class="fil2" d="M519 3653l0 -797c25,2 59,5 102,9 11,-1 22,-2 34,-3 12,-1 25,-2 37,-3 12,-1 24,-2 34,-3l0 783c0,70 -7,126 -20,168 -12,42 -37,82 -74,118 -52,49 -124,80 -214,91l-21 -65c37,-10 64,-28 82,-55 17,-28 28,-60 33,-97 4,-37 7,-85 7,-146z"/>
  <path id="1" class="fil2" d="M796 3803l394 -959c8,1 16,2 25,2 9,1 17,1 26,2 31,-2 49,-3 54,-4l385 959c-16,-1 -37,-1 -64,-2 -26,-1 -47,-2 -62,-3 -12,1 -30,2 -55,3 -25,1 -44,2 -57,2 -28,-94 -60,-190 -96,-285l-323 0c-5,14 -16,45 -34,94 -17,47 -31,85 -40,112 -9,26 -17,53 -24,79 -8,-1 -19,-1 -34,-2 -15,-1 -27,-2 -35,-3 -6,1 -15,2 -29,3 -13,1 -24,2 -31,2zm518 -372l-124 -321 -130 321 254 0z"/>
  <path id="2" class="fil2" d="M1718 3798l0 -942 469 0c73,0 142,17 206,49 64,33 116,82 155,149 39,66 58,146 58,240 0,96 -20,183 -59,259 -39,76 -97,136 -175,180 -78,43 -173,65 -285,65l-369 0zm204 -82l127 0c218,0 327,-138 328,-413 0,-133 -29,-228 -87,-283 -59,-55 -134,-82 -227,-82l-141 0 0 778z"/>
  <path id="3" class="fil2" d="M2679 3798l0 -942 529 0c-4,14 -8,35 -12,63 3,13 6,32 9,56 -95,-12 -185,-18 -272,-18l-46 0 0 296 179 0c55,0 99,-5 133,-13 -1,14 -3,26 -5,37 -1,11 -2,21 -3,28 3,18 6,37 8,57 -43,-10 -99,-14 -167,-14l-145 0 0 350c109,0 216,-6 321,-19 -6,26 -9,47 -12,65 4,15 6,33 9,54l-526 0z"/>
  <path id="4" class="fil2" d="M3346 2856l723 0 0 25c-51,79 -98,154 -142,226 -45,71 -86,139 -123,203 -38,65 -68,116 -90,154 -21,38 -63,112 -125,221l0 13c36,0 76,-1 123,-1 46,-1 96,-2 149,-3 52,-2 121,-5 205,-9 -1,11 -3,29 -8,53 3,17 7,37 11,60l-780 0 0 -25c57,-88 113,-176 168,-264 55,-88 110,-176 164,-265 53,-89 107,-178 160,-269l0 -18c-121,0 -266,5 -435,15 4,-37 6,-56 6,-56 0,-5 -2,-25 -6,-60z"/>
  <path class="fil3" d="M282 2899l0 -60 -21 0 0 -12 57 0 0 12 -21 0 0 60 -15 0zm49 0l0 -72 22 0 13 49 12 -49 22 0 0 72 -13 0 0 -56 -15 56 -13 0 -15 -56 0 56 -13 0zm0 -148c30,0 57,12 77,32l0 0c19,20 32,47 32,76 0,30 -13,57 -32,77 -20,20 -47,32 -77,32 -30,0 -57,-12 -76,-32l0 0c-20,-20 -32,-47 -32,-77 0,-29 12,-56 32,-76l0 0 0 0c19,-20 46,-32 76,-32zm62 46c-15,-16 -37,-25 -62,-25 -24,0 -46,9 -62,25l0 0c-16,16 -25,38 -25,62 0,25 9,47 25,63l0 0c16,15 38,25 62,25 25,0 47,-10 62,-25 16,-16 26,-38 26,-63 0,-24 -10,-46 -26,-62l0 0z"/>
 </g>
</svg>
