<?xml version="1.0" encoding="UTF-8"?>
<!DOCTYPE svg PUBLIC "-//W3C//DTD SVG 1.1//EN" "http://www.w3.org/Graphics/SVG/1.1/DTD/svg11.dtd">
<!-- Creator: CorelDRAW X7 -->
<svg xmlns="http://www.w3.org/2000/svg" xml:space="preserve" width="4134px" height="5315px" version="1.1" style="shape-rendering:geometricPrecision; text-rendering:geometricPrecision; image-rendering:optimizeQuality; fill-rule:evenodd; clip-rule:evenodd"
viewBox="0 0 4134 5315"
 xmlns:xlink="http://www.w3.org/1999/xlink">
 <defs>
  <style type="text/css">

    .uGnaLvoScK {fill:#2A2A2A}

  </style>
 </defs>
 <g id="Layer_x0020_1">
  <metadata id="CorelCorpID_0Corel-Layer"/>
  <path class="uGnaLvoScK" d="M1971 1133c-27,-25 -125,-82 -157,-101 -30,-17 -59,-30 -83,-44l-82 -44c-35,56 -37,109 -68,164 -24,44 -22,151 -12,207 95,51 104,20 210,17 8,-29 1,-44 30,-53 17,-5 72,-3 91,-1 37,4 46,25 109,-13 1,-1 5,-1 5,-3 1,-3 4,-3 6,-4 -57,-28 -123,-69 -49,-125zm112 -160c1,25 16,37 31,54 19,21 15,20 46,15 2,37 -5,39 17,65 3,4 15,17 18,20 2,3 10,10 13,12l9 7c26,-33 24,-36 26,-87 -25,-15 -65,-29 -89,-40 -58,-27 -39,-35 -71,-46zm0 0l6 -26c36,2 47,17 76,28l86 11c5,-8 21,-35 31,-42 29,-23 21,-1 56,-23l65 -53c3,-2 8,-6 13,-10l58 -43c108,-82 78,-33 172,-7 50,14 79,15 128,34 30,12 84,36 92,69 12,44 -9,102 -12,136 -3,49 58,29 7,108l-9 -34c-28,6 -34,9 -20,39 17,38 15,22 48,46 60,45 113,117 -10,113 -32,-1 -53,0 -84,1 7,34 18,31 48,46l111 54c2,1 12,7 14,9 62,40 67,25 113,82 27,33 140,92 97,165 -10,17 -27,29 -19,61 4,15 22,44 25,62 5,24 7,153 2,175 -13,58 -69,148 -127,190 -59,42 -15,47 -35,99 -11,28 -20,15 -23,53 -7,69 -41,70 -19,131 77,214 77,208 49,416 -11,80 20,70 30,135 7,43 31,80 52,120 41,83 8,70 15,135 5,42 23,78 27,135 4,45 26,87 41,128 19,53 2,120 13,153l32 43c1,1 2,3 3,4 12,22 10,51 10,77 0,114 -32,109 48,195 47,51 52,112 111,154 104,74 29,57 43,99 42,48 81,86 83,150 2,141 77,133 128,238 12,26 22,72 36,90l66 64c25,25 8,16 18,44 7,20 16,19 27,39l-10 6c-38,19 -91,16 -128,36 11,14 8,14 18,32l70 111c35,60 42,137 -57,142 -63,3 -204,18 -232,-24 -28,-42 -49,-125 -52,-180 -28,2 -47,2 -62,-15l-234 -313c-141,-166 -148,-181 -249,-370 -63,-118 -204,-270 -312,-460 -39,-70 -65,-141 -101,-213l-38 -73c0,-1 -9,-15 -9,-15 -7,-11 -4,-8 -11,-15 -5,41 -58,131 -78,167 -44,81 -1,123 14,197 21,104 60,218 45,326 -6,52 -24,53 -41,89 -30,59 75,421 99,511 13,48 2,122 16,167 14,44 1,26 -5,47 -14,45 15,53 8,102 -103,61 -151,34 -268,34 -6,74 -250,81 -314,81 -90,0 -147,-7 -116,-106 11,-35 29,-38 53,-48 27,-10 56,-16 78,-27 20,-9 48,-25 68,-33l-27 -117c-9,-40 -3,-103 -8,-146 -6,-51 -38,-208 -63,-243 -66,-92 -85,-56 -117,-193 -20,-82 40,-58 25,-124 -7,-31 -11,-13 -14,-58 -6,-64 -27,-118 -56,-176 -9,-20 -19,-35 -22,-52 -6,-25 -1,-52 -3,-77 -3,-26 -14,-29 -23,-53 -16,-44 9,-30 3,-66 -2,-17 -18,-25 -24,-47 -9,-33 -4,-36 -20,-63 -28,-46 -40,-69 -10,-114 30,-44 50,-189 57,-247 7,-48 -12,-99 17,-135 -28,-18 -100,-30 -141,-42 -85,-26 -63,-32 -77,-107 -18,-12 -47,-26 -63,-42 1,-30 30,-68 45,-96 18,-36 31,-72 45,-104 30,-71 51,-139 88,-208 32,-58 99,-429 76,-478 -102,-218 -59,-152 -297,-308 -170,-113 -233,-189 -181,-373 25,-90 16,-123 74,-214l88 -139c11,-31 29,-90 14,-114 -12,-20 0,7 -10,-15 -8,-19 -2,-14 -6,-31 -11,-48 -70,-34 -43,-97 6,-14 33,-16 2,-50 -20,-23 -120,-68 -151,-84 -248,-128 -467,-257 -715,-382 -34,-17 -70,-35 -91,-63l19 -31c16,-26 4,-59 54,-54 31,4 130,67 188,96l1282 680c35,19 81,44 109,57 31,15 55,20 75,42 14,15 7,15 27,19z"/>
 </g>
</svg>
