<?xml version="1.0"?><svg width="5000" height="5000" xmlns="http://www.w3.org/2000/svg">
 <title>Texas-Star</title>
 <g>
  <title>Layer 1</title>
  <g externalResourcesRequired="false" id="svg_1">
   <g id="svg_2">
    <path id="path2355" fill="#ffffff" fill-rule="nonzero" marker-end="none" marker-mid="none" marker-start="none" stroke="#000000" stroke-dashoffset="0" stroke-linejoin="round" stroke-miterlimit="4" d="m2510.207275,2548.093506c0,8.29541 -374.555176,-477.646484 -498.059326,-635.936035c0,0 123.50415,158.289551 -1.978638,-2.499512c122.549438,-469.631836 496.219849,-1871.074951 496.219849,-1871.074951c0,0 2.862305,1884.353882 3.818115,2509.510498z"/>
    <path id="path4704" fill="#000000" fill-rule="nonzero" marker-end="none" marker-mid="none" marker-start="none" stroke="#000000" stroke-dashoffset="0" stroke-linejoin="round" stroke-miterlimit="4" d="m2510.207275,38.724243l0,2500.414429l493.547119,-633.212769l-0.399902,0c-0.414307,0 -371.882324,-1405.344147 -493.147217,-1867.20166z"/>
    <path id="path2339" fill="#ffffff" fill-rule="nonzero" marker-end="none" marker-mid="none" marker-start="none" stroke="#000000" stroke-dashoffset="0" stroke-linejoin="round" stroke-miterlimit="4" d="m3004.91748,1905.925903l1956.359375,-109.165894l-2451.06958,752.199463l494.710205,-643.033569z"/>
    <path id="path2341" fill="#000000" fill-rule="nonzero" marker-end="none" marker-mid="none" marker-start="none" stroke="#000000" stroke-dashoffset="0" stroke-linejoin="round" stroke-miterlimit="4" d="m2506.215088,2545.367432l2449.229248,-745.86499l-1650.022949,1045.380371l-799.206299,-299.515381z"/>
    <path id="path2343" fill="#ffffff" fill-rule="nonzero" marker-end="none" marker-mid="none" marker-start="none" stroke="#000000" stroke-dashoffset="0" stroke-linejoin="round" stroke-miterlimit="4" d="m4012.24707,4641.983887l-709.188965,-1800.500488l-797.313965,-293.164063l1506.50293,2093.664551z"/>
    <path id="path2345" fill="#000000" fill-rule="nonzero" marker-end="none" marker-mid="none" marker-start="none" stroke="#000000" stroke-dashoffset="0" stroke-linejoin="round" stroke-miterlimit="4" d="m4020.269531,4643.095215l-1508.809814,-2095.693848l-5.522461,863.795898l1514.332275,1231.897949z"/>
    <path id="path2347" fill="#ffffff" fill-rule="nonzero" marker-end="none" marker-mid="none" marker-start="none" stroke="#000000" stroke-dashoffset="0" stroke-linejoin="round" stroke-miterlimit="4" d="m980.366821,4639.95459l1528.83313,-2090.938477l1.007324,870.0625l-1529.840454,1220.875977z"/>
    <path id="path2349" fill="#000000" fill-rule="nonzero" marker-end="none" marker-mid="none" marker-start="none" stroke="#000000" stroke-dashoffset="0" stroke-linejoin="round" stroke-miterlimit="4" d="m2506.215088,2545.367432l-1526.32843,2097.727783l717.71283,-1809.667236l808.615601,-288.060547z"/>
    <path id="path2351" fill="#ffffff" fill-rule="nonzero" marker-end="none" marker-mid="none" marker-start="none" stroke="#000000" stroke-dashoffset="0" stroke-linejoin="round" stroke-miterlimit="4" d="m2508.192383,2542.260254l-810.766235,292.886475l-1652.370148,-1046.649292l2463.136383,753.762817"/>
    <path id="path2353" fill="#000000" fill-rule="nonzero" marker-end="none" marker-mid="none" marker-start="none" stroke="#000000" stroke-dashoffset="0" stroke-linejoin="round" stroke-miterlimit="4" d="m2510.207275,2549.915283l-2464.567513,-762.233765l1960.588997,118.869263l503.978516,643.364502l0,0z"/>
   </g>
  </g>
 </g>
</svg>