<?xml version="1.0" encoding="utf-8"?>
<!-- Generator: Adobe Illustrator 18.1.1, SVG Export Plug-In . SVG Version: 6.00 Build 0)  -->
<svg version="1.1" id="Layer_1" xmlns="http://www.w3.org/2000/svg" xmlns:xlink="http://www.w3.org/1999/xlink" x="0px" y="0px"
	 viewBox="0 0 65 66" enable-background="new 0 0 65 66" xml:space="preserve">
<g>
	<g>
		<path fill="#FFFFFF" d="M32.5,63.7c-17.1,0-31-13.9-31-31s13.9-31,31-31s31,13.9,31,31S49.5,63.7,32.5,63.7z"/>
		<path fill="#205281" d="M32.5,2.3c16.8,0,30.5,13.7,30.5,30.5S49.3,63.2,32.5,63.2S2,49.6,2,32.8S15.7,2.3,32.5,2.3 M32.5,1.3
			C15.1,1.3,1,15.4,1,32.8s14.1,31.5,31.5,31.5s31.5-14.1,31.5-31.5S49.8,1.3,32.5,1.3L32.5,1.3z"/>
	</g>
	<g>
		<path fill="#CCCBCB" stroke="#205281" stroke-linejoin="round" stroke-miterlimit="10" d="M48.3,18.7H13c-1.3,0-2.3,1-2.3,2.3v3.5
			v23.6c0,1.3,1,2.3,2.3,2.3h35.3c1.3,0,2.3-1,2.3-2.3V24.5V21C50.7,19.7,49.6,18.7,48.3,18.7z"/>
		<g>
			<path fill="#E8E8E8" stroke="#205281" stroke-linejoin="round" stroke-miterlimit="10" d="M54.3,17.4c0-1.3-1-2.3-2.3-2.3H16.6
				c-1.3,0-2.3,1-2.3,2.3V21h40V17.4z"/>
			<path fill="#F4F5F5" stroke="#205281" stroke-linejoin="round" stroke-miterlimit="10" d="M14.3,21v23.6c0,1.3,1,2.3,2.3,2.3
				h35.3c1.3,0,2.3-1,2.3-2.3V21H14.3z"/>
			<g>
				
					<rect x="30.7" y="33.8" transform="matrix(0.7071 0.7071 -0.7071 0.7071 35.6926 -12.9313)" fill="#5AACDE" stroke="#205281" stroke-linejoin="round" stroke-miterlimit="10" width="5.6" height="5.6"/>
				
					<rect x="21.4" y="27.9" transform="matrix(0.7071 0.7071 -0.7071 0.7071 27.27 -7.4963)" fill="#68AA45" stroke="#205281" stroke-linejoin="round" stroke-miterlimit="10" width="2.5" height="2.5"/>
				
					<rect x="28.7" y="25" fill="#5AACDE" stroke="#205281" stroke-linejoin="round" stroke-miterlimit="10" width="9.4" height="3.5"/>
				
					<rect x="20.2" y="34.4" fill="#5AACDE" stroke="#205281" stroke-linejoin="round" stroke-miterlimit="10" width="5" height="5"/>
				<line fill="none" stroke="#205281" stroke-linejoin="round" stroke-miterlimit="10" x1="29.5" y1="36.6" x2="25.2" y2="36.6"/>
				<line fill="none" stroke="#205281" stroke-linejoin="round" stroke-miterlimit="10" x1="33.5" y1="32.9" x2="33.5" y2="28.7"/>
				<g>
					
						<line fill="none" stroke="#205281" stroke-linejoin="round" stroke-dasharray="3.3978" x1="22.7" y1="31" x2="22.7" y2="34.4"/>
				</g>
				<polyline fill="none" stroke="#205281" stroke-linejoin="round" stroke-miterlimit="10" points="37.4,36.6 40,36.6 40,40.6 
					46.1,40.6 				"/>
				<polyline fill="none" stroke="#205281" stroke-linejoin="round" stroke-miterlimit="10" stroke-dasharray="4,1" points="
					38.2,26.8 46.1,26.8 46.1,40.6 				"/>
				<circle fill="#68AA45" stroke="#205281" stroke-linejoin="round" stroke-miterlimit="10" cx="46.1" cy="40.6" r="2.3"/>
			</g>
			<g>
				<g>
					<circle fill="#CF4536" cx="17.3" cy="18" r="0.2"/>
					<path fill="#205281" d="M17.3,17.4c-0.4,0-0.7,0.3-0.7,0.7s0.3,0.7,0.7,0.7S18,18.4,18,18S17.7,17.4,17.3,17.4L17.3,17.4z"/>
				</g>
				<g>
					<circle fill="#F5C13F" cx="19.7" cy="18" r="0.2"/>
					<path fill="#205281" d="M19.7,17.4c-0.4,0-0.7,0.3-0.7,0.7s0.3,0.7,0.7,0.7s0.7-0.3,0.7-0.7S20,17.4,19.7,17.4L19.7,17.4z"/>
				</g>
				<g>
					<circle fill="#68AA45" cx="22" cy="18" r="0.2"/>
					<path fill="#205281" d="M22,17.4c-0.4,0-0.7,0.3-0.7,0.7s0.3,0.7,0.7,0.7s0.7-0.3,0.7-0.7S22.4,17.4,22,17.4L22,17.4z"/>
				</g>
			</g>
		</g>
	</g>
</g>
</svg>
