<svg xmlns:svg="http://www.w3.org/2000/svg" xmlns="http://www.w3.org/2000/svg" version="1.1" viewBox="0 0 200 66"><style>.gray{fill:#707173;}.green{fill:#57ab26;}</style><path d="m 128.442 42.368 c 0 -15.927 -21.45 -13.071 -21.45 -19.733 0 -1.206 0.571 -4.124 6.6 -4.124 3.935 0 6.283 1.459 7.456 1.966 0 0 1.175 0.508 1.647 -0.795 l 0.472 -1.304 0.987 -2.727 c 0 0 0.987 -2.725 -0.694 -3.297 -1.682 -0.571 -7.013 -1.268 -9.805 -1.268 -7.552 0 -16.437 3.235 -16.437 11.548 0 14.657 21.45 11.928 21.45 19.86 0 3.808 -3.173 4.378 -8.44 4.378 -2.547 0 -6.027 -1.014 -8.525 -1.934 -0.224 -0.082 -1.523 -0.71 -2.084 0.861 -0.84 2.352 -0.84 2.352 -1.621 4.41 0 0 -0.781 2.057 0.964 2.533 1.746 0.478 7.647 1.554 11.202 1.554 9.531 0.001 18.281 -1.649 18.281 -11.927" class="gray"/><path d="m 151.379 18.621 c -6.474 0 -10.217 3.426 -10.217 14.149 0 11.484 3.68 14.213 10.217 14.213 6.854 0 10.028 -4.124 10.028 -14.213 0.011 -10.913 -3.733 -14.149 -10.014 -14.149 m 0 35.784 c -15.358 0 -20.182 -9.263 -20.182 -21.636 0 -11.992 5.269 -21.572 20.245 -21.572 14.596 0 19.927 8.818 19.927 21.572 -0.011 12.184 -5.084 21.636 -19.994 21.636" class="gray"/><path d="m 175.612 53.137 c -0.825 0 -1.499 -0.674 -1.499 -1.498 v -38.054 c 0 -0.826 0.674 -1.5 1.499 -1.5 h 6.647 c 0.825 0 1.5 0.674 1.5 1.5 V 44.022 c 0 0.827 0.673 1.5 1.498 1.5 h 13.248 c 0.825 0 1.499 0.674 1.499 1.498 v 4.617 c 0 0.824 -0.674 1.498 -1.499 1.498 h -22.898 z" class="gray"/><path d="M 94.383 51.735 79.955 13.488 c -0.291 -0.772 -1.203 -1.403 -2.027 -1.403 h -6.141 c -0.825 0 -1.753 0.625 -2.064 1.39 l -9.226 22.687 5.926 9.481 0.473 -1.427 c 0.259 -0.782 1.146 -1.422 1.97 -1.422 h 10.583 c 0.825 0 1.704 0.642 1.954 1.427 l 2.388 7.488 c 0.251 0.785 1.131 1.427 1.956 1.427 h 7.663 c 0.823 0 1.263 -0.631 0.977 -1.402 z M 76.973 35.498 h -5.442 c -0.825 0 -1.284 -0.639 -1.021 -1.42 l 3.422 -10.166 c 0.262 -0.782 0.679 -0.777 0.925 0.01 l 3.169 10.147 c 0.246 0.787 -0.228 1.43 -1.053 1.43 z" class="gray"/><path d="M 24.267 45.712 H 11.145 c -0.823 0 -1.499 -0.673 -1.499 -1.497 v -7.09 c 0 -0.824 0.675 -1.498 1.499 -1.498 h 11.218 c 0.823 0 1.499 -0.674 1.499 -1.5 v -4.426 c 0 -0.824 -0.675 -1.497 -1.499 -1.497 H 11.145 c -0.823 0 -1.499 -0.674 -1.499 -1.498 v -5.695 c 0 -0.826 0.675 -1.498 1.499 -1.498 h 12.551 c 0.825 0 1.499 -0.674 1.499 -1.498 V 17.111 L 22.155 12.086 H 1.499 C 0.674 12.086 0 12.76 0 13.586 v 38.054 c 0 0.824 0.674 1.498 1.499 1.498 H 20.434 l 4.632 -7.188 c -0.232 -0.149 -0.505 -0.238 -0.799 -0.238 z" class="gray"/><path d="m 56.533 63.901 c 0.567 1.108 2.335 2.144 3.575 2.099 h 13.397 c 0.777 -0.014 1.138 -0.279 1.315 -0.593 0.085 -0.153 0.123 -0.304 0.125 -0.492 0 -0.252 -0.085 -0.582 -0.317 -0.955 L 55.631 33.563 c -0.406 -0.665 -0.515 -1.348 -0.524 -2.022 0.009 -0.69 0.124 -1.381 0.537 -2.052 L 73.086 2.039 C 73.329 1.653 73.412 1.318 73.412 1.069 73.41 0.884 73.374 0.739 73.297 0.596 73.116 0.279 72.76 0.017 71.981 0.001 H 60.21 C 58.977 -0.044 57.157 0.971 56.536 2.053 L 46.36 18.26 37.05 2.087 C 36.468 0.989 34.685 -0.044 33.449 0.001 H 20.458 c -0.771 0.013 -1.14 0.279 -1.33 0.607 -0.083 0.149 -0.125 0.306 -0.127 0.507 0 0.251 0.079 0.577 0.303 0.946 L 36.128 29.872 c 0.381 0.652 0.486 1.316 0.496 1.979 -0.011 0.707 -0.126 1.414 -0.554 2.102 L 16.716 63.98 c -0.243 0.375 -0.328 0.707 -0.326 0.959 0 0.181 0.038 0.324 0.113 0.468 0.179 0.314 0.53 0.576 1.313 0.593 h 11.768 c 1.233 0.045 3.063 -0.965 3.688 -2.04 L 45.659 44.466 56.533 63.901 z" class="green"/></svg>