<?xml version="1.0" standalone="no"?>
<!DOCTYPE svg PUBLIC "-//W3C//DTD SVG 20010904//EN"
 "http://www.w3.org/TR/2001/REC-SVG-20010904/DTD/svg10.dtd">
<svg version="1.0" xmlns="http://www.w3.org/2000/svg"
 width="4096.000000pt" height="4096.000000pt" viewBox="0 0 4096.000000 4096.000000"
 preserveAspectRatio="xMidYMid meet">
<metadata>
Created by potrace 1.13, written by Peter Selinger 2001-2015
</metadata>
<g transform="translate(0.000000,4096.000000) scale(0.100000,-0.100000)"
fill="#000000" stroke="none">
<path d="M20055 37423 c-1917 -49 -3760 -407 -5550 -1076 -839 -314 -1724
-734 -2545 -1209 -1935 -1120 -3672 -2659 -5032 -4458 -2593 -3430 -3774
-7646 -3348 -11950 270 -2716 1213 -5356 2735 -7650 2557 -3854 6567 -6507
11085 -7334 716 -131 1370 -208 2200 -258 334 -20 1480 -17 1830 5 1484 94
2751 323 4100 742 3207 997 6083 2964 8206 5615 1621 2023 2763 4406 3318
6921 195 884 306 1682 373 2684 22 332 26 1582 5 1900 -33 516 -69 905 -117
1275 -427 3290 -1789 6342 -3959 8874 -379 443 -1065 1148 -1476 1517 -1736
1562 -3642 2698 -5800 3457 -1909 671 -3993 998 -6025 945z m1090 -1513 c1274
-61 2417 -246 3600 -585 2991 -856 5675 -2620 7676 -5045 1007 -1220 1840
-2624 2424 -4085 570 -1425 919 -2899 1050 -4425 64 -750 71 -1629 20 -2380
-164 -2375 -859 -4648 -2047 -6695 -1351 -2325 -3296 -4273 -5618 -5627 -1860
-1085 -3931 -1769 -6065 -2002 -349 -39 -931 -84 -941 -73 -6 6 100 636 152
900 189 965 406 1663 586 1881 31 37 285 218 433 309 112 68 274 149 373 188
474 182 1114 201 2302 69 400 -44 569 -53 895 -47 411 8 757 45 1145 123 883
178 1739 545 2136 918 111 103 159 172 248 357 175 363 238 610 239 934 0 207
-14 323 -93 755 -142 778 -152 1015 -49 1229 32 68 55 100 117 160 91 90 163
132 419 248 233 106 311 152 389 230 101 100 174 280 174 432 0 187 -94 390
-269 584 -39 43 -71 81 -70 85 0 4 33 33 74 64 166 128 287 333 331 562 15 77
16 100 5 173 -28 197 -114 369 -412 819 -109 166 -231 355 -270 420 -133 223
-219 431 -222 538 -2 46 0 50 48 93 69 63 243 145 530 248 548 199 742 299
921 479 100 100 159 190 201 306 23 66 27 91 27 200 1 146 -14 202 -96 360
-130 252 -387 545 -968 1102 -456 438 -1037 1020 -1186 1188 -516 584 -786
1030 -865 1430 -30 152 -45 470 -31 641 20 241 44 330 172 659 137 351 197
552 259 857 57 286 104 681 131 1105 30 485 35 1294 9 1668 -91 1332 -626
2684 -1572 3975 -647 882 -1513 1750 -2455 2458 -790 594 -1406 940 -2222
1247 -1121 422 -2545 716 -4052 837 -140 11 -210 20 -192 24 117 29 815 88
1339 112 165 8 1087 6 1270 -3z m-3015 -1580 c292 -13 504 -27 765 -51 2391
-215 4359 -992 5875 -2319 834 -730 1482 -1524 1949 -2387 605 -1118 883
-2454 775 -3733 -102 -1215 -584 -2378 -1418 -3425 -780 -978 -1998 -2153
-3776 -3640 -590 -494 -853 -728 -1219 -1090 -656 -647 -1018 -1134 -1190
-1598 -132 -357 -228 -853 -276 -1432 -32 -399 -37 -543 -42 -1322 l-5 -803
-2258 0 -2258 0 -7 978 c-8 972 -4 1332 15 1637 74 1158 289 2102 661 2909
194 421 466 845 838 1311 251 314 478 563 871 956 513 513 907 865 1640 1464
1126 920 1904 1598 2386 2079 265 265 346 356 466 526 368 520 578 1062 654
1690 23 182 26 645 6 825 -72 650 -283 1215 -644 1731 -410 583 -1004 1091
-1643 1404 -684 335 -1417 504 -2351 542 -773 31 -1519 -64 -2184 -277 -470
-151 -974 -403 -1373 -687 -1107 -787 -1854 -1997 -2273 -3681 l-37 -149 -31
6 c-17 2 -1059 132 -2316 287 -1257 155 -2287 283 -2288 285 -7 5 28 317 59
529 209 1460 806 2802 1767 3968 363 441 864 940 1307 1302 1473 1206 3279
1906 5455 2114 191 18 617 48 790 54 202 8 1121 6 1310 -3z m1440 -25900 l0
-2530 -2187 0 -2188 0 -67 22 -68 22 0 2508 0 2508 2255 0 2255 0 0 -2530z"/>
</g>
</svg>
