<?xml version="1.0" encoding="utf-8"?>
<!-- Generator: Adobe Illustrator 19.0.1, SVG Export Plug-In . SVG Version: 6.00 Build 0)  -->
<svg version="1.1" id="Layer_1" xmlns="http://www.w3.org/2000/svg" xmlns:xlink="http://www.w3.org/1999/xlink" x="0px" y="0px"
	 viewBox="0 0 506 180" style="enable-background:new 0 0 506 180;" xml:space="preserve">
<style type="text/css">
	.st0{fill:#545555;}
</style>
<g>
	<path class="st0" d="M393.4,108.7c-0.6-1.4-2.5-3.6-3.5-5.4c-4.2-7.4,0.5-12.6,2-14.7c1-1.4-0.4-3.6-1.7-3.7
		c-1.3-0.1-2.2-0.2-2.9-0.5c-0.7-0.2-1.7-0.9-3.4-1.8c-1.7-0.9-3.5,0.2-4.2,1.5c-0.7,1.4-2,4.4-2.9,5.8
		c-4.1,6.2-10.3,14.4-17.6,18.1c-7.3,3.7-11.4,3.9-14.3,3.6c-2.9-0.3-5.4-1.7-4.5-4.1c0.6-1.5,1.8-2.9,3-4.3
		c3.1,1.7,7.7,1.9,9.4,1.4c12.6-3.1,10.6-12.9,6.7-15.1c-3.3-1.8-9.2-2.1-15.4,0.5c-12.9,5.3-14.3,18.1-11.6,20.7
		c-4.6,3.7-6.4,0.2-6.3-3.2c0-1.2,0.8-4.6,1-6.8c0.3-2.2-1-3.3-1.5-3.5c-0.5-0.1-1.3-0.2-2.8-0.1c-1.5,0-5.6,0.3-6.7,1.3
		c-1.1,1-1.5,2.1-2.8,3.7c-2.8,3.7-3.4,2.3-3.1,0.3c0.3-2.1,0.9-3.8,1.5-6.2c0.6-2.3,0.1-2.6-1.8-2.6c-1.9,0-3.5-0.1-5.3-0.1
		s-2.3,0.3-3.5,2.1c-1.2,1.8-1.9,3.1-5.4,7.6c-6,7.8-7.5,0.7-7.5,0.7c-0.1-1.5,2-4.9,2-4.9c-0.6-1.6-1.4-2.6-4.9-4.8
		c-2.6-1.6-4.6-2.3-4.6-2.3c-4.4,0.1-15.7-0.2-22.5,6.1c-6.7,6.3-4.5,12.5-1.2,15.4c-4.8,3.1-7.6-0.7-9.8-4.8
		c-0.7-1.8-1.3-3.6-1.7-5.3c8.2-6.5,14.7-15.2,15.9-24c1.1-8.1-2.3-14.2-5.2-16.5c-4.7-3.8-14.2-4.2-16.5-2.8
		c-2.3,1.4-10.7,21.9-7.9,39.5c0.3,1.9,0.7,3.7,1.3,5.3c-10.7,6.1-21.6,5.7-23.6,5.3c-2.5-0.4-4.6-1.8-2.5-5.9
		c6.6,2,10.5,0.3,13.1-0.2c7.3-1.6,10.5-7.6,5-10.7c-2.7-1.5-8.9-3.4-17-1.3c-8.5,2.2-13.2,11.1-13.7,15.5
		c-20.5,9.7-59.6,14.5-91.1,10.2c-32.5-4.4-33.6-25.9-7.7-40.1c25.9-14.2,69.2-12.8,75.1-12.3c5.9,0.6,5.1,3.2,2.2,4.4
		c-10.4,3.4-25.9,11.8-29.5,15c2.3,3.8,4.3,8.9,8.3,8.9c7.6,0,9.9,0.2,20.7-1.6c11.5-1.9,19.3-6.7,21.4-8.3c7.9-5.9,7.1-8.7,5-13.6
		c-2.4-5.7-5.7-9-7.9-10.8c-2.8-2.3-5.9-3.5-16.7-4.7C163.6,53.4,90.8,50.3,66,81.3c-22.3,27.8,15.5,40,23,41.5
		c10.6,2.1,58.7,10.5,108.6-11.5c1.7,1.5,9.3,7.1,20.9,4.4c6.5-1.5,12.4-4,16.7-6.1c3.6,6.6,9,10.3,13.9,10.9
		c6.9,0.8,9.7-2,12.5-5.6c7.7,1.3,15.2-2.1,18.7-4c0.5,4.4,1,4.7,2.4,5.9c2.4,1,3.5,0.6,6.3-0.1c2.8-0.7,9.1-6.5,12.5-9.4l1-0.1
		c-0.8,7.4,3,8.9,6.9,9c4,0.1,7.9-4.8,9.5-7c0.1,1.9,3.5,6.7,7.6,7.9c4.1,1.2,7.3-1.8,9-3.4c11.4,6.8,24.3,1,30.8-2.7
		c3,3.9,11.9,4.2,14.4,4.5c2.5,0.3,10.4,0,11.5-0.4c1.1-0.3,1.6-0.5,1.8-2.1C394.3,111.5,394,110.1,393.4,108.7z M353.5,94.5
		c3.6-0.2,3.8,2.2,2.2,3.7c-1.8,1.8-3.8,4.1-10.3,1.9C346.8,98.4,349.9,94.7,353.5,94.5z M219.9,95.3c1.9,0.4,3.3,2.5,0.8,4.1
		c-4.1,2.6-11.2,2.1-11.4,2c-0.6-0.1-1.1-0.3-1.1-0.3C210.3,99,216,94.4,219.9,95.3z M247.9,74.9c4.5-9.1,5.7-0.6,5.4,2
		c-1.1,9.3-2.5,12.2-9,18.6C243.1,82.9,247.9,74.9,247.9,74.9z M260.5,107.8c1.4-9.2,14.9-11.8,21.8-9.4
		C282.3,106.7,266.5,111.9,260.5,107.8z M370.9,107.3c4-3.3,4-3.3,5.6-4.9c1,2.4,2.6,4.5,4,6.2C377.5,109.3,377,109.7,370.9,107.3z"
		/>
	<path class="st0" d="M415,90.7c5.1,0,12.2,1.9,7.4,8.2c-4.8,6.3-14.6,7.4-17.3,6.8c-1.7,4,5.1,6.7,16.8,4c15-3.4,15.3-6.9,18.4-6.1
		c3.1,0.8,3.1,1.9,4.4,3.4s-2.1,2.2-4.6,2.9c-2.5,0.7-15.2,7.4-28,6.6c-12.8-0.7-17.3-6.2-18.2-11.3C392.8,98.2,403.6,90.7,415,90.7
		z M415.7,99.4c2.6-1.9,0.7-3.5-1.5-3.2c-2.1,0.3-6.1,2.7-7.6,4.4C408.3,101.3,412.2,101.9,415.7,99.4z"/>
	<polygon class="st0" points="429.8,82.6 429,85.3 426.6,84.5 426,85.7 428.5,86.7 426.2,88.6 426.7,89.2 429.1,88.4 429.8,90.7 
		430.8,90.7 431.3,88.5 433.8,88.8 434.2,88.1 432,86.8 434.6,85.4 433.9,84.9 431.2,85.3 430.7,82.6 	"/>
</g>
</svg>
