<?xml version="1.0" encoding="utf-8"?>
<!-- Generator: Adobe Illustrator 18.0.0, SVG Export Plug-In . SVG Version: 6.00 Build 0)  -->
<!DOCTYPE svg PUBLIC "-//W3C//DTD SVG 1.1//EN" "http://www.w3.org/Graphics/SVG/1.1/DTD/svg11.dtd">
<svg version="1.1" id="Слой_1" xmlns="http://www.w3.org/2000/svg" xmlns:xlink="http://www.w3.org/1999/xlink" x="0px" y="0px"
	 viewBox="123.7 0 602.6 1024" enable-background="new 123.7 0 602.6 1024" xml:space="preserve">
<path fill="#00BFFF"      d="
	M437.6,239c0,0,14.2,5.7,21.4,2.4l8.5,2.4c0,0,14.7,10.4,22.8-12.3l29-3.8c0,0,11.9-1.4,19-15.7c0,0,44.8-71.9,53.2-88.7
	c0,0,8.9-14.3,14.7-21c0,0,3.7-7.9,10.2-9.3c0,0,25.4-2.7,37.3-14l13.3-7.4c0,0,3.7-6.6,5-12.1l53.3-7.4c2.4-2.8,0-7.4,0-7.4
	L671.6,50c-0.8-2.3-2.5-3.4-6.3,0.9h0c0,0-0.6-2.5-5.5-8.6c0,0-7.5,0.7-3.7,9.1l-0.2-0.1c-1.7-2.2-7.1-8.8-9.5-2.7
	c0,0-8-1.1-6.5,4.2l-14.6,1.4v-3.2H619v3.9l-3.2,0.3v-9.5h-5.3v10l-38.2,3.7V48.8H567v11l-3.2,0.3v-4.9h-5.3v5.4l-73.1,7v-0.8h-4.2
	v-3.2h-6.4v3.2h-10.6v2.8l-20,2.5h-18.1v-8.5h-6.4v8.5h-9.5v19.1h6.4l0.2,7.5c0,0-9.2-5-19.3-0.1l-20.6,5.8c0,0,2.8-5.9,0-15.7
	c0,0-6.6,9.2-7.1,9.8c0,0,2.8-17.5-1.9-23.6c0,0,6.6-7,0-17.5c0,0,10-11.4,0-20.5c0,0-1.4-23.3-23.3-21.8c0,0-14.7-20.4-48.4-11.9
	c0,0-28.5,2.4-37,11.9c0,0-25.2,11-23.3,33.3c0,0-19.5,18.8-15.7,32.9c0,0-17.1,14.6-9.5,25.5c0,0-9,22.3,5.7,31.3
	c0,0-4.3,12.3,9,23.3l-5.7,2.8c0,0,11.4,11.4,10,19.9c0,0-27.1,6.2-19,38c0,0,6.2,44.6,21.4,53.6l22.3,36.5c0,0,6.6,29.4,11.4,32.3
	c0,0,3.8,18.5,7.1,17.1c0,0,3.8,21.4,10.9,18c7.1-3.3,4.3,3.8,4.3,3.8s-0.9,9,2.8,9c0,0,0.5,4.7-7.1,19.5c0,0-12.8,23.7-6.6,30.4
	c0,0-8.1,14.7-7.1,19.5c0.9,4.7-4.7,10.4-3.3,14.2c1.4,3.8-11.4,27.1-6.6,45.1c0,0-8.5,20.9-5.2,29c0,0-6.2,12.3,2.8,14.7
	c0,0-6.1,96.7-22.8,136.1c0,0-41.3,52.8-51.3,73.7c0,0-9,18-12.3,36.5c0,0-13.8,3.3-10.4,19l-2.8,22.8c0,0-8.5,7.6-2.4,17.1
	l-10.4,41.3l-12.3,35.6c0,0-9.5,22.8-8.1,35.1c0,0-8.1,31.8,19,36.5c0,0,35.6,5.2,47.5-3.3c0,0,13.3-19.5-4.7-40.8
	c0,0,1.9-20.4,0.5-25.6l4.3-24.2l9.5-35.1c0,0,6.6-6.2,6.2-17.1l5.7-14.7c0,0,7.1-5.7,8.1-13.8c0,0,30.9-63.6,47.5-80.7
	c0,0,27.5-28,36.1-47c0,0,51.7-84.5,60.8-143.4l16.6-11.4c0,0,5.8,9,9.1,6.2c0,0,44.6,30.9,101.1,40.3c0,0,49.4,11.4,53.2,26.1
	c0,0-19.5,29-12.3,90.2l0.9,5.2c0,0-5.7,2.4-2.8,11.9l-1.9,15.2c0,0-3.3,12.8,4.7,15.2l-5.7,50.3c0,0-11.9,39.9-4.3,50.3l0.5,21.8
	c0,0,26.1,4.7,49.8-4.3l0.5-3.8l29.9-1.4c0,0,64.1-14.7,77.4-41.8c0,0-9-16.1-25.2-4.7c0,0-25.2,11.4-47-2.4
	c0,0-20.4-15.2-24.7-20.4l0.9-42.2c0,0,4.3-2.4,2.8-18l1.4-12.3c0,0,4.7-10.9,1.4-15.7l18-88.3c0,0,11.9-35.1,4.7-44.6
	c0,0-85.4-93.5-143.4-112c0,0,0.5-2.8-8.1-4.7c0,0-4.7-6.2-9-6.2c0,0-12.8-10-17.6-23.7c0,0-11.4-49.4-20.4-57.9l-3.3-4.3
	c0,0-4.7-17.6-7.1-17.6c0,0,15.2-19,14.7-39.9c0,0,6.6-31.8,3.8-71.7l-0.5-10C423.4,246.1,433.3,244.7,437.6,239z M443.3,125.6
	c0,0-0.7,8.9,4.3,10.9l2.6-5.2c0,0,7-3.3,2.6-11.9l-5-3.4c4.4,0,10,0.1,15.3,0.2v19.4c-6.4,2.2-12,3.4-17.2,3.4
	c-4.3,0-6.7-0.8-8.1-1.3l-0.9-14.2L443.3,125.6z M423.4,166.9c0,0-6.2,2.4-9.5-3.3c0,0-9-6.2-13.8-4.3c0,0-5.9,0-10.3-2.6
	c-0.6-0.3-1.1-0.7-1.6-1.2c-4.3-3.8-8.1-3.9-11.4-3.4c0,0,2.4-7.6,9-9.9c0,0,6.9,5.8,12.1,8.6l4.5,1.9c0,0,7.7,5.3,14.2-2.6
	c0,0,6.7-4.9,6.7-12c0,0,6.1,0.3,7.2-11.4l1.2-1.5l1.1,14.4c0.1,0.8,0.5,1.5,1.1,2c0.4,0.3,4.2,2.8,12.4,2.8
	c6.3,0,12.9-1.4,20.8-4.3c1-0.4,1.2-1.4,1.2-2.5v-21.2c17,0.3,32.7,0.8,32.7,0.8l35.4-26.6c12.3-12.3,29.6-13.3,29.6-13.3
	c8.8,1.5,20,0.1,30.4-2.2c-1.9,2.8-3.9,6.6-3.7,9.1c0,0-85.4,90.8-89.7,96.1h-2.9c0,0-5.8-13.5-18.5-8.8l-23.3-2.5
	c0,0-11.3-0.5-13.2,2.8C443.3,175,436.3,161.6,423.4,166.9z"/>
</svg>
