<?xml version="1.0" encoding="utf-8"?>
<!-- Generator: Adobe Illustrator 18.1.0, SVG Export Plug-In . SVG Version: 6.00 Build 0)  -->
<svg version="1.1" id="Layer_1" xmlns="http://www.w3.org/2000/svg" xmlns:xlink="http://www.w3.org/1999/xlink" x="0px" y="0px"
	 width="6400px" height="6400px" viewBox="2688 -2810 6400 1" enable-background="new 2688 -2810 6400 6400"
	 xml:space="preserve">
<path opacity="0.8" fill="#78423F" enable-background="new    " d="M6002.6-167.9l-443.2-640H3144.6c-175.8,0-319-143.3-319-319
	v-1276.2c0-175.8,143.3-319,319-319h5532.7c175.8,0,319,143.3,319,319v1274.3c0,175.8-143.3,319-319,319H6445.9L6002.6-167.9z
	 M3144.6-2649.5c-137.6,0-248.4,110.8-248.4,248.4v1274.3c0,137.6,110.8,248.4,248.4,248.4h2451.1L6002.6-292l406.9-586.5h2269.6
	c137.6,0,248.4-110.8,248.4-248.4v-1276.2c0-137.6-110.8-248.4-248.4-248.4H3144.6V-2649.5z"/>
<path opacity="0.8" fill="#A75E5A" enable-background="new    " d="M8677.3-2685.8H3144.6c-156.7,0-282.7,128-282.7,282.7v1274.3
	c0,156.7,128,282.7,282.7,282.7h2432l426,613.3l426-613.3h2250.5c156.7,0,282.7-128,282.7-282.7v-1274.3
	C8961.9-2557.8,8833.9-2685.8,8677.3-2685.8z"/>
<g>
	<path fill="#FFFFFF" d="M3341.3-2191.1h207.6l195,490.8l195-490.8h206.6v718.8h-155.2v-480.2l-193,480.2H3677l-192.1-477.2v477.2
		h-143.6V-2191.1z"/>
	<path fill="#FFFFFF" d="M4283.2-2210.5h153.3v138.7h-153.3V-2210.5z M4284.2-2021.3h151.3v549h-151.3V-2021.3z"/>
	<path fill="#FFFFFF" d="M4512.1-1532.4l77.6-111.6c57.2,36.9,131.9,57.2,194,57.2c76.6,0,98.9-7.8,98.9-45.6
		c0-32-22.3-38.8-97-48.5c-135.8-18.4-239.6-37.8-239.6-181.4c0-111.6,66-171.7,239.6-171.7c88.3,0,173.6,17.5,231.8,50.4
		l-72.8,118.3c-38.8-20.4-98.9-35.9-154.2-35.9c-77.6,0-93.1,13.6-93.1,39.8c0,31,19.4,37.8,90.2,47.5
		c139.7,19.4,243.5,35.9,243.5,172.7c0,126.1-67.9,177.5-257,177.5C4679.9-1463.6,4585.8-1483,4512.1-1532.4z"/>
	<path fill="#FFFFFF" d="M5067.9-1532.4l77.6-111.6c57.2,36.9,131.9,57.2,194,57.2c76.6,0,98.9-7.8,98.9-45.6
		c0-32-22.3-38.8-97-48.5c-135.8-18.4-239.6-37.8-239.6-181.4c0-111.6,66-171.7,239.6-171.7c88.3,0,173.6,17.5,231.8,50.4
		l-72.8,118.3c-38.8-20.4-98.9-35.9-154.2-35.9c-77.6,0-93.1,13.6-93.1,39.8c0,31,19.4,37.8,90.2,47.5
		c139.7,19.4,243.5,35.9,243.5,172.7c0,126.1-67.9,177.5-257.1,177.5C5235.7-1463.6,5141.7-1483,5067.9-1532.4z"/>
	<path fill="#FFFFFF" d="M5679-2210.5h153.3v138.7H5679V-2210.5z M5680-2021.3h151.3v549H5680V-2021.3z"/>
	<path fill="#FFFFFF" d="M5932.2-1747.8c0-184.3,80.5-286.2,287.1-286.2s286.2,101.9,286.2,286.2s-79.5,286.2-286.2,286.2
		S5932.2-1563.5,5932.2-1747.8z M6353.2-1743.9c0-93.1-29.1-151.3-133.9-151.3c-105.7,0-133.9,58.2-133.9,151.3
		s28.1,152.3,133.9,152.3C6324.1-1591.6,6353.2-1650.8,6353.2-1743.9z"/>
	<path fill="#FFFFFF" d="M6599.6-2012.6l118.3-8.7l12.6,47.5c29.1-32,82.5-60.1,198.9-60.1c165.9,0,196.9,92.2,196.9,228.9v332.7
		H6975v-302.6c0-66.9-7.8-115.4-99.9-115.4c-105.7,0-123.2,49.5-123.2,122.2v295.9h-152.3V-2012.6z"/>
	<path fill="#FFFFFF" d="M7413.4-1555.7l79.5-114.5c76.6,51.4,165.9,76.6,258,76.6c140.7,0,166.8-27.2,166.8-87.3
		c0-59.2-60.1-70.8-170.7-86.3c-192.1-27.2-292-62.1-292-218.3c0-160,97-217.3,299.7-217.3c146.5,0,235.7,34,291,70.8l-85.4,123.2
		c-45.6-30.1-130-55.3-207.6-55.3c-112.5,0-139.7,22.3-139.7,74.7c0,58.2,59.2,68.9,173.6,85.4c172.7,25.2,288.1,53.4,288.1,215.3
		c0,145.5-79.5,227-319.1,227C7613.2-1461.6,7494.9-1495.6,7413.4-1555.7z"/>
	<path fill="#FFFFFF" d="M8135.1-2021.3h97l26.2-133.9l118.3-24.2v158.1h130v130h-130v226c0,42.7,5.8,66,70.8,66h59.2v127.1
		c-22.3,1.9-63.1,1.9-90.2,1.9c-148.4,0-191.1-50.4-191.1-172.7v-248.3h-90.2V-2021.3z"/>
</g>
</svg>
