<svg id="Layer_1" data-name="Layer 1" xmlns="http://www.w3.org/2000/svg" viewBox="0 0 451.46 471.71"><defs><style>.cls-1,.cls-5,.cls-7{fill:none;}.cls-1{stroke:#79fdc3;}.cls-1,.cls-4,.cls-5,.cls-7{stroke-miterlimit:10;stroke-width:4px;}.cls-2{fill:#79fdc3;}.cls-3,.cls-4{fill:#fff;}.cls-4,.cls-7{stroke:#f0f0f0;}.cls-5{stroke:#fff;}.cls-6{fill:#f0f0f0;}</style></defs><title>refer-a-friend-bonus</title><path class="cls-1" d="M423.58,1202.37a173.19,173.19,0,0,1-173.19,173.19v-90.23" transform="translate(-23.11 -947.83)"/><path class="cls-2" d="M396.56,1398.67a20.38,20.38,0,0,0-20.87,20.87,20.38,20.38,0,0,0-20.87-20.87,20.38,20.38,0,0,0,20.87-20.87A20.38,20.38,0,0,0,396.56,1398.67Z" transform="translate(-23.11 -947.83)"/><circle class="cls-2" cx="227.28" cy="255.6" r="133.51"/><path class="cls-3" d="M250.39,1164.4a39,39,0,1,1-39,39,39.07,39.07,0,0,1,39-39m0-4a43,43,0,1,0,43,43,43,43,0,0,0-43-43h0Z" transform="translate(-23.11 -947.83)"/><line class="cls-4" x1="227.28" y1="84.82" x2="227.28"/><line class="cls-4" x1="186.88" y1="89.85" x2="167.36" y2="42.73"/><line class="cls-4" x1="267.18" y1="89.85" x2="286.7" y2="42.73"/><line class="cls-4" x1="152.42" y1="107.68" x2="104.03" y2="59.29"/><line class="cls-4" x1="302.14" y1="107.68" x2="350.53" y2="59.29"/><path class="cls-5" d="M153.33,1202.17a99,99,0,0,1,99-99" transform="translate(-23.11 -947.83)"/><path class="cls-3" d="M423.58,1208.78c-13.12,0-23.8-13.33-23.8-29.71s10.67-29.71,23.8-29.71,23.8,13.33,23.8,29.71S436.7,1208.78,423.58,1208.78Z" transform="translate(-23.11 -947.83)"/><path class="cls-6" d="M423.58,1151.35c12,0,21.8,12.43,21.8,27.71s-9.78,27.71-21.8,27.71-21.8-12.43-21.8-27.71,9.78-27.71,21.8-27.71m0-4c-14.25,0-25.8,14.2-25.8,31.71s11.55,31.71,25.8,31.71,25.8-14.2,25.8-31.71-11.55-31.71-25.8-31.71h0Z" transform="translate(-23.11 -947.83)"/><rect class="cls-3" x="167.02" y="401.66" width="120.52" height="52.14" rx="6.91" ry="6.91"/><path class="cls-6" d="M303.73,1351.49a4.91,4.91,0,0,1,4.91,4.91v38.32a4.91,4.91,0,0,1-4.91,4.91H197a4.91,4.91,0,0,1-4.91-4.91V1356.4a4.91,4.91,0,0,1,4.91-4.91h106.7m0-4H197a8.91,8.91,0,0,0-8.91,8.91v38.32a8.91,8.91,0,0,0,8.91,8.91h106.7a8.91,8.91,0,0,0,8.91-8.91V1356.4a8.91,8.91,0,0,0-8.91-8.91h0Z" transform="translate(-23.11 -947.83)"/><line class="cls-1" x1="435.67" y1="103.38" x2="435.67" y2="116.35"/><line class="cls-1" x1="435.67" y1="121.99" x2="435.67" y2="134.96"/><line class="cls-1" x1="419.88" y1="119.17" x2="432.85" y2="119.17"/><line class="cls-1" x1="438.49" y1="119.17" x2="451.46" y2="119.17"/><line class="cls-1" x1="72.24" y1="158.47" x2="72.24" y2="190.4"/><line class="cls-1" x1="56.27" y1="174.43" x2="88.21" y2="174.43"/><line class="cls-1" x1="60.95" y1="163.14" x2="83.53" y2="185.72"/><line class="cls-1" x1="60.95" y1="185.72" x2="83.53" y2="163.14"/><path class="cls-6" d="M36.71,1080a9.6,9.6,0,1,1-9.6,9.6,9.6,9.6,0,0,1,9.6-9.6m0-4a13.6,13.6,0,1,0,13.6,13.6,13.62,13.62,0,0,0-13.6-13.6h0Z" transform="translate(-23.11 -947.83)"/><path class="cls-6" d="M449.37,1335.83a9.6,9.6,0,1,1-9.6,9.6,9.6,9.6,0,0,1,9.6-9.6m0-4a13.6,13.6,0,1,0,13.6,13.6,13.62,13.62,0,0,0-13.6-13.6h0Z" transform="translate(-23.11 -947.83)"/><line class="cls-7" x1="39.18" y1="356.44" x2="39.18" y2="388.37"/><line class="cls-7" x1="23.21" y1="372.4" x2="55.14" y2="372.4"/><line class="cls-7" x1="27.89" y1="361.11" x2="50.47" y2="383.69"/><line class="cls-7" x1="27.89" y1="383.69" x2="50.47" y2="361.11"/><circle class="cls-5" cx="227.91" cy="255.6" r="16.67"/><path class="cls-6" d="M132.68,1346.64c3.22,0,3.22-5,0-5s-3.22,5,0,5h0Z" transform="translate(-23.11 -947.83)"/></svg>