<?xml version="1.0" encoding="utf-8"?>
<!-- Generator: Adobe Illustrator 17.1.0, SVG Export Plug-In . SVG Version: 6.00 Build 0)  -->
<!DOCTYPE svg PUBLIC "-//W3C//DTD SVG 1.1//EN" "http://www.w3.org/Graphics/SVG/1.1/DTD/svg11.dtd">
<svg version="1.1" id="Layer_1" xmlns="http://www.w3.org/2000/svg" xmlns:xlink="http://www.w3.org/1999/xlink" x="0px" y="0px"
	 viewBox="0 0 28 25" enable-background="new 0 0 28 25" xml:space="preserve">
<g>
	<path fill="#C29D52" d="M15.429,23.984c-4.765,0-9.108-2.992-10.808-7.445c-1.102-2.886-1.013-6.029,0.249-8.849
		s3.547-4.98,6.433-6.082c1.327-0.507,2.714-0.764,4.123-0.764c4.765,0,9.108,2.992,10.808,7.445
		c1.102,2.886,1.013,6.029-0.249,8.849c-1.261,2.82-3.546,4.98-6.433,6.082C18.225,23.727,16.838,23.984,15.429,23.984z
		 M15.425,2.167c-1.246,0-2.475,0.228-3.651,0.677C9.217,3.82,7.193,5.733,6.075,8.23c-1.117,2.498-1.195,5.281-0.219,7.838
		c1.505,3.944,5.353,6.594,9.573,6.594c1.247,0,2.476-0.228,3.652-0.677c2.557-0.976,4.58-2.889,5.698-5.386
		c1.118-2.498,1.195-5.281,0.219-7.838C23.493,4.817,19.646,2.167,15.425,2.167z"/>
	<circle fill="#C29D52" cx="15.427" cy="12.414" r="1.322"/>
	<path fill="#C29D52" d="M16.201,6.103c-0.437-1.144-1.554-1.914-2.779-1.914c-0.362,0-0.719,0.066-1.06,0.197
		c-0.743,0.283-1.33,0.838-1.655,1.563c-0.324,0.726-0.347,1.534-0.063,2.276c0.437,1.145,1.554,1.914,2.779,1.914
		c0.363,0,0.719-0.066,1.061-0.196C16.016,9.358,16.787,7.636,16.201,6.103z M11.311,6.22c0.252-0.563,0.709-0.996,1.287-1.216
		c0.265-0.101,0.543-0.153,0.824-0.153c0.879,0,1.681,0.513,2.068,1.291c-0.765-0.008-1.544,0.119-2.302,0.408
		c-0.757,0.289-1.421,0.712-1.985,1.226C11.06,7.259,11.09,6.715,11.311,6.22z"/>
	<path fill="#C29D52" d="M20.21,16.603c-0.437-1.145-1.554-1.914-2.779-1.914c-0.362,0-0.719,0.066-1.061,0.196
		c-1.532,0.585-2.302,2.308-1.717,3.839c0.436,1.145,1.554,1.914,2.779,1.914c0.362,0,0.718-0.066,1.06-0.196
		C20.025,19.858,20.795,18.136,20.21,16.603z M17.432,19.978c-0.879,0-1.681-0.513-2.068-1.291c0.765,0.008,1.544-0.119,2.302-0.408
		c0.757-0.289,1.421-0.712,1.985-1.226c0.143,0.517,0.114,1.061-0.108,1.557c-0.252,0.564-0.709,0.996-1.286,1.217
		C17.991,19.927,17.714,19.978,17.432,19.978z"/>
	<path fill="#C29D52" d="M12.956,13.358c-0.437-1.145-1.554-1.914-2.779-1.914c-0.363,0-0.72,0.066-1.061,0.197
		c-1.532,0.585-2.302,2.307-1.718,3.839c0.437,1.145,1.554,1.914,2.779,1.914c0.363,0,0.72-0.066,1.061-0.197
		C12.77,16.612,13.541,14.89,12.956,13.358z M10.177,16.733c-0.953,0-1.822-0.599-2.162-1.489c-0.428-1.121,0.085-2.364,1.139-2.887
		c-0.007,0.763,0.12,1.54,0.408,2.296c0.289,0.757,0.713,1.422,1.228,1.986C10.59,16.695,10.386,16.733,10.177,16.733z"/>
	<path fill="#C29D52" d="M23.455,9.35c-0.436-1.146-1.553-1.915-2.779-1.915c-0.362,0-0.719,0.066-1.061,0.197
		c-0.742,0.283-1.33,0.838-1.654,1.564c-0.325,0.725-0.347,1.533-0.064,2.275c0.437,1.145,1.554,1.914,2.779,1.914
		c0.363,0,0.72-0.066,1.061-0.197c0.742-0.283,1.33-0.838,1.654-1.563C23.716,10.9,23.739,10.092,23.455,9.35z M21.7,12.473
		c0.007-0.764-0.12-1.541-0.408-2.297c-0.289-0.757-0.713-1.422-1.228-1.987c0.2-0.056,0.404-0.093,0.612-0.093
		c0.953,0,1.822,0.599,2.162,1.49c0.22,0.577,0.203,1.206-0.05,1.77C22.567,11.851,22.181,12.235,21.7,12.473z"/>
	<path fill="#C29D52" d="M4.151,24.155c-1.09,0-2.137-0.434-2.958-1.261c-0.258-0.259-0.256-0.678,0.003-0.935
		c0.259-0.258,0.677-0.256,0.935,0.003c0.825,0.829,1.925,1.083,3.02,0.695c1.133-0.401,1.938-1.373,2.049-2.476
		c0.037-0.362,0.354-0.62,0.725-0.591c0.363,0.037,0.627,0.361,0.591,0.725c-0.164,1.609-1.311,3.017-2.923,3.588
		C5.112,24.072,4.628,24.155,4.151,24.155z"/>
</g>
</svg>
