<svg xmlns="http://www.w3.org/2000/svg" xmlns:xlink="http://www.w3.org/1999/xlink" version="1.1" x="0px" y="0px" width="471.823px" height="239.447px" viewBox="0 0 471.823 239.447" enable-background="new 0 0 471.823 239.447" xml:space="preserve" class="lp-logo"><path d="M0.524 0.5h19.526v101.022H0.524V0.5z" class="style0"/><path d="M63.953 23.826c23.515 0 38.7 16 38.7 40.4 c0 24.258-15.148 40.232-38.663 40.232c-23.371 0-38.519-15.975-38.519-40.232C25.435 39.8 40.6 23.8 64 23.826z M64.278 87.682c13.647 0 17.727-11.794 17.727-23.446c0-11.794-4.08-23.588-17.727-23.588c-13.506 0-17.586 11.794-17.586 23.6 C46.692 75.9 50.8 87.7 64.3 87.682z" class="style0"/><path d="M174.857 101.522h-18.803V91.083h-0.418 c-5.014 8.41-11.918 12.469-22.006 12.469c-12.912 0-26.324-6.696-26.324-26.53V26.562h19.778v42.337 c0 12.3 3.5 18.4 12.7 18.414c10.724 0 15.321-6.234 15.321-21.458V26.562h19.777V101.522z" class="style0"/><path d="M181.318 26.562h20.021v74.959h-20.021V26.562z M201.51 17.213h-20.588 V0.25h20.588V17.213z" class="style0"/><path d="M225.12 77.164c1.265 9.2 7.1 11.4 14.7 11.4 c5.855 0 13.282-1.129 13.282-8.378c0-6.234-8.028-6.371-22.598-9.558c-14.304-3.129-22.855-8.856-22.855-22.05 c0-18.246 16.718-25.089 31.171-25.089c16.139 0 31 6.5 32.6 25.738H252.12c-1.235-7.728-6.57-10.66-13.854-10.66 c-4.57 0-11.056 2.935-11.056 6.846c0 7.1 11.2 7.4 22.8 10.143c11.854 2.8 23.4 8 23.4 21.9 c0 20.902-16.853 26.098-33.705 26.098c-17.139 0-33.849-6.524-34.706-26.388H225.12z" class="style0"/><path d="M0.25 134.975h18.616v9.57h0.276 c4.688-7.975 12.75-11.657 21.576-11.657c23.008 0 32.1 18.6 32.1 40.364c0 20.009-10.48 39.562-31.302 39.6 c-8.55 0-16.685-3.348-21.374-10.742h-0.275v37.125H0.25V134.975z M52.521 173.223c0-11.194-3.87-22.799-16.418-22.799 c-12.824 0-16.961 11.331-16.961 22.799c0 11.5 4.9 22.3 17.1 22.332C48.218 195.6 52.5 184.7 52.5 173.223z" class="style0"/><path d="M114.813 132.501c23.515 0 38.7 16.1 38.7 40.6 c0 24.38-15.148 40.435-38.663 40.435c-23.371 0-38.519-16.055-38.519-40.435C76.295 148.6 91.4 132.5 114.8 132.501z M114.93 196.791c13.785 0 17.906-11.796 17.906-23.448c0-11.795-4.121-23.59-17.906-23.59c-13.642 0-17.763 11.795-17.763 23.6 C97.167 185 101.3 196.8 114.9 196.791z" class="style0"/><path d="M225.252 210.048h-18.803v-10.156h-0.418 c-5.687 10.422-13.65 12.3-22.007 12.3c-20.806 0-26.325-13.17-26.325-28.336v-48.881h19.778v43.881 c0 10.7 4.4 17.3 13.2 17.267c8.832 0 14.754-5.934 14.754-19.601v-41.547h19.778V210.048z" class="style0"/><path d="M232.11 109.225h19.625v100.709H232.11V109.225z" class="style0"/><path d="M275.733 185.746c0 8.1 6.6 11.9 15.2 11.9 c5.668 0 13.003-1.667 13.003-8.305c0-6.234-8.52-6.24-23.229-9.779c-13.855-3.333-22.326-8.47-22.326-22.395 c0-18.075 17.193-24.719 32.193-24.719c16.384 0 30 7.4 31.6 25.767h-19.516c-0.581-7.975-6.273-10.54-13.668-10.54 c-4.639 0-11.066 2.523-11.066 7.19c0 6.1 11.2 7 23 9.791c12.034 2.8 23.4 8.3 23.4 22.2 c0 19.858-16.058 25.814-33.764 25.814c-18.46 0-34.949-7.123-34.949-26.898H275.733z" class="style0"/><path d="M347.503 178.478c0.555 13 8.8 18.1 16.8 18.1 c7.9 0 11.215-3.75 12.913-8.58h20.103c-3.676 15.58-16.133 24.888-32.348 24.888c-26.828 0-37.947-15.933-37.947-40.344 c0-23.214 13.619-39.923 36.586-39.923c26.533 0 36.5 20.5 34.8 45.873H347.503z M377.809 165.1 c0-8.895-5.966-15.892-14.341-15.892c-10.377 0-15.749 9.122-15.749 15.892H377.809z" class="style0"/><path d="M403.338 134.919h18.993v10.495h0.422 c4.299-9.226 13.788-12.865 22.229-12.865c21.243 0 26.6 12.7 26.6 31.279v46.105h-19.977v-42.336 c0-12.324-2.877-18.414-12.803-18.414c-9.574 0-15.477 6.235-15.477 21.458v39.292h-19.978V134.919z" class="style0"/></svg>
