<svg id="Layer_1" data-name="Layer 1" xmlns="http://www.w3.org/2000/svg" xmlns:xlink="http://www.w3.org/1999/xlink" viewBox="0 0 100 100"><defs><style>.cls-1,.cls-2{fill:none;}.cls-2,.cls-4{stroke:#c7c6c3;stroke-miterlimit:10;}.cls-2{stroke-width:3px;}.cls-3{fill:#f0c105;}.cls-4,.cls-8{fill:#fff;}.cls-4{stroke-width:2.7px;}.cls-5{clip-path:url(#clip-path);}.cls-6{fill:#c7c6c3;}.cls-7{clip-path:url(#clip-path-2);}.cls-9{clip-path:url(#clip-path-3);}.cls-10{clip-path:url(#clip-path-4);}</style><clipPath id="clip-path"><circle class="cls-1" cx="50" cy="11.28" r="9.69"/></clipPath><clipPath id="clip-path-2"><circle class="cls-1" cx="50" cy="88.72" r="9.69"/></clipPath><clipPath id="clip-path-3"><circle class="cls-1" cx="88.72" cy="50" r="9.69"/></clipPath><clipPath id="clip-path-4"><circle class="cls-1" cx="11.28" cy="50" r="9.69"/></clipPath></defs><title>rmp-icons v2 -RGB</title><circle class="cls-2" cx="50" cy="50" r="38.72"/><circle class="cls-3" cx="50" cy="50" r="18.03"/><circle class="cls-4" cx="50" cy="11.28" r="9.69"/><g class="cls-5"><path class="cls-6" d="M52.88,30V14h0.45v6.42a1,1,0,1,0,2,0v-7a3,3,0,0,0-2.91-3l-4.78,0a2.92,2.92,0,0,0-2.88,3v7a1,1,0,1,0,2,0V14h0.47V30.28l2.63,0.26V21.41h0.45v9.13Z"/><path class="cls-6" d="M50,9.81a2.27,2.27,0,1,0-2.27-2.27A2.27,2.27,0,0,0,50,9.81Z"/></g><circle class="cls-4" cx="50" cy="88.72" r="9.69" transform="translate(-51.83 88.2) rotate(-60.31)"/><g class="cls-7"><path class="cls-6" d="M52.88,107.44v-16h0.45v6.42a1,1,0,1,0,2,0v-7a3,3,0,0,0-2.91-3l-4.78,0a2.92,2.92,0,0,0-2.88,3v7a1,1,0,1,0,2,0V91.46h0.47v16.25L49.78,108V98.85h0.45V108Z"/><path class="cls-6" d="M50,87.24A2.27,2.27,0,1,0,47.73,85,2.27,2.27,0,0,0,50,87.24Z"/></g><path class="cls-8" d="M50,43.85a5.61,5.61,0,0,0-5.6,5.6c0,2.65,2.59,5.37,2.66,5.52a0.46,0.46,0,0,0,.42.26h5.43A0.46,0.46,0,0,0,53.34,55c0.06-.15,2.28-3.18,2.28-5.5A5.61,5.61,0,0,0,50,43.85Z"/><path class="cls-8" d="M52.68,56h-5a0.46,0.46,0,1,0,0,.92h5A0.46,0.46,0,1,0,52.68,56Z"/><path class="cls-8" d="M52.22,57.74H48.11a0.46,0.46,0,0,0,0,.92h4.11A0.46,0.46,0,0,0,52.22,57.74Z"/><path class="cls-8" d="M51.16,59.59H49.05a0.46,0.46,0,0,0-.46.46,1.52,1.52,0,0,0,3,0A0.46,0.46,0,0,0,51.16,59.59Z"/><path class="cls-8" d="M42.05,49.09H39.37a0.46,0.46,0,0,0,0,.92h2.68A0.46,0.46,0,0,0,42.05,49.09Z"/><path class="cls-8" d="M44.68,43.6l-1.89-1.9a0.46,0.46,0,0,0-.65.65L44,44.25A0.46,0.46,0,0,0,44.68,43.6Z"/><path class="cls-8" d="M50,42a0.46,0.46,0,0,0,.46-0.46V38.89a0.46,0.46,0,0,0-.92,0v2.68A0.46,0.46,0,0,0,50,42Z"/><path class="cls-8" d="M57.82,41.65a0.46,0.46,0,0,0-.65,0l-1.89,1.9a0.46,0.46,0,0,0,.65.65l1.89-1.89A0.46,0.46,0,0,0,57.82,41.65Z"/><path class="cls-8" d="M60.63,49H57.95a0.46,0.46,0,0,0,0,.92h2.68A0.46,0.46,0,0,0,60.63,49Z"/><circle class="cls-4" cx="11.28" cy="50" r="9.69" transform="translate(-23.69 12.53) rotate(-30.31)"/><circle class="cls-4" cx="88.72" cy="50" r="9.69" transform="translate(-13.11 51.61) rotate(-30.31)"/><g class="cls-9"><path class="cls-6" d="M90.58,48.95a2.57,2.57,0,0,1,2.41,2l1.9,6.25a0.93,0.93,0,1,1-1.74.59L91.44,52h-0.5l3,10.2H91.18v8a1,1,0,0,1-2,0v-8H88.3v8a1,1,0,1,1-2,0V62.23H83.51L86.46,52H86l-1.71,5.76a0.92,0.92,0,1,1-1.74-.61l1.9-6.26a2.49,2.49,0,0,1,2.39-2h3.74Zm0.36-2.68a2.22,2.22,0,1,0-2.22,2.22,2.22,2.22,0,0,0,2.22-2.22"/></g><g class="cls-10"><path class="cls-6" d="M13.14,48.95a2.57,2.57,0,0,1,2.41,2l1.9,6.25a0.93,0.93,0,1,1-1.74.59L14,52h-0.5l3,10.2H13.74v8a1,1,0,0,1-2,0v-8H10.87v8a1,1,0,1,1-2,0V62.23H6.08L9,52H8.56L6.85,57.78a0.92,0.92,0,1,1-1.74-.61L7,50.92a2.49,2.49,0,0,1,2.39-2h3.74Zm0.36-2.68a2.22,2.22,0,1,0-2.22,2.22,2.22,2.22,0,0,0,2.22-2.22"/></g></svg>