<?xml version="1.0" encoding="utf-8"?>
<!-- Generator: Adobe Illustrator 15.0.0, SVG Export Plug-In  -->
<!DOCTYPE svg PUBLIC "-//W3C//DTD SVG 1.1//EN" "http://www.w3.org/Graphics/SVG/1.1/DTD/svg11.dtd" [
	<!ENTITY ns_flows "http://ns.adobe.com/Flows/1.0/">
]>
<svg version="1.1"
	 xmlns="http://www.w3.org/2000/svg" xmlns:xlink="http://www.w3.org/1999/xlink" xmlns:a="http://ns.adobe.com/AdobeSVGViewerExtensions/3.0/"
	 x="0px" y="0px" width="250px" height="250px" viewBox="0 0 250 250" enable-background="new 0 0 250 250" xml:space="preserve">
<defs>
</defs>
<rect fill="#65C6BB" width="250" height="250"/>
<rect x="51.949" y="181.674" transform="matrix(-0.7082 -0.706 0.706 -0.7082 16.1316 406.8541)" fill="#C8D2D6" width="80.397" height="36.838"/>
<path fill="#E7ECED" d="M88.639,222.598l-37.961-37.845l26.006-26.085l22.356,22.287c8.619,8.594,8.654,22.528,0.063,31.147
	L88.639,222.598z M88.639,222.598"/>
<path fill="#F7B563" d="M181.297,91.243c4.2,1.626,9.16,0.753,12.546-2.643c4.573-4.588,4.562-12.015-0.024-16.588
	c-3.395-3.384-8.36-4.242-12.557-2.607L181.297,91.243z M181.297,91.243"/>
<path fill="#F7B563" d="M181.332,114.933c4.201,1.625,9.16,0.751,12.545-2.645c4.575-4.589,4.564-12.014-0.023-16.587
	c-3.395-3.384-8.36-4.241-12.555-2.605L181.332,114.933z M181.332,114.933"/>
<path fill="#F7B563" d="M181.369,138.62c4.199,1.627,9.159,0.753,12.545-2.643c4.575-4.589,4.563-12.015-0.024-16.589
	c-3.394-3.383-8.36-4.24-12.556-2.604L181.369,138.62z M181.369,138.62"/>
<path fill="#F7B563" d="M181.405,162.31c4.2,1.626,9.159,0.753,12.546-2.643c4.573-4.589,4.563-12.016-0.025-16.589
	c-3.395-3.383-8.36-4.241-12.555-2.604L181.405,162.31z M181.405,162.31"/>
<path fill="#F7B563" d="M115.741,131.354l-23.725-23.652c-4.564-4.551-4.59-12.009-0.04-16.574
	c4.562-4.576,12.024-4.576,16.589-0.025l23.724,23.652c4.564,4.549,4.585,12.012,0.023,16.587
	C127.762,135.906,120.304,135.904,115.741,131.354L115.741,131.354z M115.741,131.354"/>
<path fill="#F7B563" d="M168.091,176.754l-52.677,0.083c-4.254,0.004-7.696-3.428-7.705-7.681l-0.056-45.864l-15.637-15.59
	c-2.036-0.691-3.369-6.841-3.169-4.171l0.183,51.116c0.001,0.343,0.086,0.68,0.109,1.026l-7.706,7.729l47.45,47.306L139.557,200
	c7.542,1.053,15.485-1.306,21.285-7.122C165.31,188.394,167.714,182.621,168.091,176.754L168.091,176.754z M168.091,176.754"/>
<path fill="#424A60" d="M181.24,54.229l-73.706,0.112l0.058,35.975c0.323,0.249,0.67,0.483,0.973,0.786l23.724,23.652
	c4.564,4.549,4.585,12.012,0.023,16.587c-4.551,4.564-12.008,4.563-16.571,0.012l-8.1-8.074l0.045,30.121l73.704-0.11L181.24,54.229
	z M181.24,54.229"/>
<path d="M181.24,54.229l-0.019-10.503c-0.001-4.255-3.444-7.687-7.7-7.677L115.2,36.137c-4.257,0.004-7.689,3.447-7.679,7.703
	l0.013,10.502L181.24,54.229z M181.24,54.229"/>
<path d="M181.415,169.042l-0.024-15.752l-73.704,0.11l0.022,15.756c0.008,4.253,3.45,7.685,7.705,7.681l58.322-0.092
	C177.991,176.739,181.42,173.299,181.415,169.042L181.415,169.042z M181.415,169.042"/>
<rect x="52.534" y="24.878" transform="matrix(-0.766 -0.6428 0.6428 -0.766 141.1908 301.1458)" fill="none" width="145.73" height="200"/>
<path fill="#424A60" d="M150.135,168.027c-2.611,2.618-6.841,2.622-9.472,0.001c-2.617-2.609-2.626-6.841-0.017-9.459
	c2.614-2.621,6.859-2.64,9.478-0.029C152.753,161.161,152.747,165.406,150.135,168.027L150.135,168.027z M150.135,168.027"/>
<path fill="#424A60" d="M138.113,49.603c-0.615-0.613-0.988-1.448-0.988-2.374c-0.002-1.847,1.499-3.353,3.347-3.356l9.475-0.003
	c1.854-0.005,3.348,1.485,3.35,3.338c0.004,1.849-1.487,3.344-3.338,3.348l-9.473,0.023
	C139.559,50.581,138.717,50.202,138.113,49.603L138.113,49.603z M138.113,49.603"/>
</svg>
