<?xml version="1.0" encoding="UTF-8"?>
<!DOCTYPE svg PUBLIC "-//W3C//DTD SVG 1.1//EN" "http://www.w3.org/Graphics/SVG/1.1/DTD/svg11.dtd">
<!-- Creator: CorelDRAW X7 -->
<svg xmlns="http://www.w3.org/2000/svg" xml:space="preserve" width="4134px" height="5315px" version="1.1" style="shape-rendering:geometricPrecision; text-rendering:geometricPrecision; image-rendering:optimizeQuality; fill-rule:evenodd; clip-rule:evenodd"
viewBox="0 0 4134 5315"
 xmlns:xlink="http://www.w3.org/1999/xlink">
 <defs>
  <style type="text/css">

    .RmQxcCeDxK {fill:#2D2D2D}

  </style>
 </defs>
 <g id="Layer_x0020_1">
  <metadata id="CorelCorpID_0Corel-Layer"/>
  <path class="RmQxcCeDxK" d="M2730 4141c-7,-40 1,-103 1,-145 -1,-45 -7,-274 8,-299 84,-141 173,-387 226,-548 21,252 -240,960 -235,992zm105 -2275l-16 30c-9,13 -26,42 -32,56 47,-20 114,-114 142,-165 34,-65 88,-221 103,-298 4,-24 8,-71 16,-90 12,13 26,90 30,110 15,84 54,308 43,378 11,14 9,53 8,73 -1,14 -2,23 -1,38 0,7 1,13 1,19 -1,21 3,-11 -1,9 -2,12 -1,7 -4,12l2 2 -1 110c-11,331 -86,681 -206,980 -19,48 -38,88 -61,135 -17,35 -50,100 -74,127 -16,-72 3,-69 -40,-195 -20,-60 -44,-112 -70,-164 -105,-216 -217,-388 -321,-618 -32,-70 -114,-290 -100,-368 16,30 43,116 85,196 35,67 64,119 105,183 56,86 184,251 274,294 -5,-14 -36,-48 -49,-65 -211,-270 -356,-556 -361,-916 -2,-160 19,-291 -8,-445l-19 -65c-7,-7 -27,-49 -26,-63 91,-8 152,21 218,60 -10,-47 -80,-75 -135,-83 -69,-10 -145,1 -208,14 -62,13 -113,37 -168,57 -52,18 -141,33 -165,-26 1,0 3,-2 4,-1l77 -24c26,-11 54,-23 72,-44 -60,20 -141,61 -215,28 -33,-16 -50,-32 -69,-61 -22,-33 -57,-22 -61,-70 -3,-31 33,-62 49,-82 158,-194 53,-284 166,-352 95,-58 342,-140 362,-155 48,-35 7,-271 52,-335 23,-3 23,0 36,12 121,103 202,265 190,433 -1,17 -1,27 -6,44 -1,3 -5,17 -5,17 -2,14 1,15 3,18 9,-20 24,-41 32,-63 25,-66 16,-87 44,-71 68,39 187,163 234,227 71,96 125,204 157,331 56,216 48,531 -48,738l-35 88zm-1396 3030c-6,4 6,2 -15,7 -4,1 -8,1 -12,1 -8,1 -17,2 -25,3 -112,5 -246,32 -341,-74 -79,-90 -37,-221 47,-293l6 -5c0,60 3,111 46,143 92,69 344,-19 456,-45 229,-51 427,-74 666,-42 180,25 381,136 441,296 38,101 -2,214 -71,270 -51,41 -209,110 -271,32 0,-40 56,-81 75,-123 26,-57 -2,-106 -36,-139 -66,-65 -181,-95 -282,-106 -288,-29 -622,87 -684,75zm719 -4493l-42 22c-41,19 -104,58 -141,55 -4,-5 -8,-11 -13,-17l-69 -132c-18,-35 -61,-124 -64,-165 42,-13 149,78 177,100 25,19 139,110 152,137zm104 3597c3,-56 -54,-190 -78,-233 -47,-87 -219,-326 -323,-296 -46,13 -123,124 -140,169 60,-35 111,-55 193,-29 128,40 243,197 307,312 12,22 30,59 41,77zm-825 -877c24,-75 61,-167 94,-232l110 -211c86,-162 280,-432 396,-581l130 -172c9,-11 2,-4 12,-11 -2,104 -20,136 1,264 13,80 31,150 58,220 136,364 361,610 456,929 16,53 28,183 4,238 -14,-3 -4,5 -12,-19 -31,-98 -63,-176 -121,-263l-24 -30c0,-2 -2,-2 -3,-3 18,58 37,105 51,168 34,144 43,210 67,353 28,163 70,605 75,769 2,63 2,142 7,203 53,3 101,-44 134,17 18,33 18,111 -1,143 -22,-8 -4,-35 -46,-57 4,39 17,106 -41,91 -16,-54 -19,-89 -45,-135 -73,-127 -110,-94 -121,-148 -32,-157 -90,-339 -132,-496 -24,-89 -57,-187 -83,-276 -108,-376 -220,-751 -260,-1173 -27,29 -34,130 -40,166 -32,-79 -47,-205 -47,-304 0,-61 2,-111 8,-168 5,-41 22,-118 21,-157 -9,10 -10,18 -15,33 -66,213 -115,361 -50,597 54,197 121,383 187,568 57,156 127,414 175,582l161 596c-46,-24 -84,-55 -145,-79 -183,-72 -392,-73 -584,-34 -124,26 -237,53 -359,83 -51,12 -136,31 -194,24 -61,-8 -66,-38 -81,-138 -44,-296 -15,-512 119,-729 56,-91 127,-169 204,-236 39,-34 205,-161 259,-178 -69,-6 -213,85 -257,123 -94,82 -117,108 -172,208 -12,-51 23,-236 33,-290 16,-92 43,-172 71,-255zm1435 -1205c-34,205 46,-275 0,0zm-932 -1081c106,-20 41,-109 41,-110 -1,-2 -2,-2 -3,-3 -2,24 0,47 -9,66 -17,39 -22,24 -29,47z"/>
 </g>
</svg>
