<svg id="Layer_1" data-name="Layer 1" xmlns="http://www.w3.org/2000/svg" width="8.19in" height="3.5in" viewBox="0 0 589.41 251.74">
  <title>DN-internal-logo</title>
  <g>
    <rect y="121.55" width="587.48" height="8.52" fill="#ac162c"/>
    <g>
      <path d="M90.13,59.57H55.73v98.92h34.4c30.45,0,52.56-20.8,52.56-49.46v-.28C142.69,80.25,120.58,59.57,90.13,59.57ZM130.75,109v.28c0,22.67-16.7,38.51-40.62,38.51H67.24V70.24H90.13C114,70.24,130.75,86.19,130.75,109Z" transform="translate(-55.54 -57.88)" fill="#004987"/>
      <rect x="102.99" y="1.69" width="11.51" height="98.92" fill="#004987"/>
      <polygon points="206.84 90.08 146.03 90.08 146.03 55.99 199.8 55.99 199.8 45.47 146.03 45.47 146.03 12.22 206.14 12.22 206.14 1.69 134.52 1.69 134.52 100.61 206.84 100.61 206.84 90.08" fill="#004987"/>
      <path d="M356.66,131.41v-.28c0-11.69-6.79-19.48-20.75-23.83,7.08-3.21,15.26-9.74,15.26-22.77v-.28a22.18,22.18,0,0,0-6.41-15.92c-5.8-5.65-15-8.76-25.88-8.76H276.74v98.92h44C342.89,158.49,356.66,148.11,356.66,131.41Zm-11.65-.7c0,10.73-9.2,17.4-24,17.4H288.12V113.73H319c16.76,0,26,5.93,26,16.69Zm-5.49-44.62c0,10.73-8.61,17.4-22.47,17.4H288.12V70H317.9c13.54,0,21.62,5.93,21.62,15.85Z" transform="translate(-55.54 -57.88)" fill="#004987"/>
      <path d="M415,160.18c28.37,0,50.59-22.47,50.59-51.15v-.28c0-29-21.63-50.87-50.3-50.87-28.37,0-50.59,22.47-50.59,51.15v.28C364.74,138.31,386.37,160.18,415,160.18ZM376.67,109v-.28c0-22.92,16.5-40.2,38.37-40.2,21.67,0,38.65,17.78,38.65,40.48v.28c0,22.92-16.49,40.2-38.37,40.2C393.65,149.51,376.67,131.73,376.67,109Z" transform="translate(-55.54 -57.88)" fill="#004987"/>
      <polygon points="489.36 89.94 434.45 89.94 434.45 1.69 422.93 1.69 422.93 100.61 489.36 100.61 489.36 89.94" fill="#004987"/>
      <path d="M592.4,59.57H558v98.92h34.4c30.46,0,52.56-20.8,52.56-49.46v-.28C645,80.25,622.85,59.57,592.4,59.57ZM633,109v.28c0,22.67-16.7,38.51-40.62,38.51H569.51V70.24H592.4C616.31,70.24,633,86.19,633,109Z" transform="translate(-55.54 -57.88)" fill="#004987"/>
      <polygon points="72.67 229.72 10.89 151.13 0.19 151.13 0.19 250.05 11.42 250.05 11.42 169.63 74.44 249.67 74.75 250.05 83.91 250.05 83.91 151.13 72.67 151.13 72.67 229.72" fill="#004987"/>
      <rect x="103.08" y="151.13" width="11.51" height="98.92" fill="#004987"/>
      <polygon points="213.86 151.13 200.42 151.13 170.53 191.26 140.37 151.13 126.79 151.13 163.39 199.61 125.38 250.05 138.69 250.05 170.12 207.82 201.55 250.05 215.27 250.05 177.26 199.47 213.86 151.13" fill="#004987"/>
      <path d="M313.11,209h-34.4v98.92h34.4c30.45,0,52.56-20.8,52.56-49.46v-.28C365.67,229.69,343.56,209,313.11,209Zm40.62,49.46v.28c0,22.67-16.7,38.51-40.62,38.51H290.22V219.68h22.89C337,219.68,353.73,235.63,353.73,258.47Z" transform="translate(-55.54 -57.88)" fill="#004987"/>
      <path d="M423.75,207.32c-28.37,0-50.59,22.47-50.59,51.15v.28c0,29,21.63,50.87,50.3,50.87,28.37,0,50.59-22.47,50.59-51.15v-.28C474.06,229.19,452.43,207.32,423.75,207.32Zm38.37,51.15v.28c0,22.92-16.49,40.2-38.37,40.2-21.68,0-38.65-17.78-38.65-40.48v-.28c0-22.92,16.5-40.2,38.37-40.2C445.14,218,462.12,235.77,462.12,258.47Z" transform="translate(-55.54 -57.88)" fill="#004987"/>
      <path d="M561,238.77v-.28a27.32,27.32,0,0,0-7.66-19.56C547,212.53,537,209,525.24,209H482.67v98.92h11.51V269.65H522l28.57,38.28h14.15l-30.31-40.32C551.36,264.43,561,253.93,561,238.77Zm-11.66.14v.28c0,12.19-9.87,20.07-25.14,20.07H494.19V219.68h30.2C540,219.68,549.39,226.87,549.39,238.91Z" transform="translate(-55.54 -57.88)" fill="#004987"/>
      <polygon points="516.24 250.05 527.75 250.05 527.75 207.13 581.1 207.13 581.1 196.59 527.75 196.59 527.75 161.8 587.43 161.8 587.43 151.13 516.24 151.13 516.24 250.05" fill="#004987"/>
    </g>
  </g>
</svg>
