<svg id="Layer_1" data-name="Layer 1" xmlns="http://www.w3.org/2000/svg" viewBox="0 0 405.909 56.796"><defs><style>.cls-1,.cls-2{fill:#231f20;}.cls-2{fill-rule:evenodd;}</style></defs><title>gofg-logo</title><path class="cls-1" d="M32.7,23.394v1.33c0,9.17-6.469,16.215-15.817,16.215S0,32.874,0,23.615A17.392,17.392,0,0,1,30.926,12.582L28,15.374a13.353,13.353,0,0,0-10.5-5.45A13.371,13.371,0,0,0,4.165,23.482c0,7,5.76,13.646,12.982,13.646,5.183,0,10.765-4.475,10.944-9.926H19.45V23.394H32.7Z"/><path class="cls-1" d="M49.277,6.821V26.539c0,5.451,1.641,10.5,8.065,10.5s8.063-5.05,8.063-10.5V6.821h4.166V27.957c0,7.355-4.565,12.982-12.229,12.982s-12.23-5.627-12.23-12.982V6.821h4.165Z"/><polygon class="cls-1" points="84.199 6.821 102.143 6.821 102.143 10.632 88.364 10.632 88.364 19.982 101.744 19.982 101.744 23.792 88.364 23.792 88.364 36.419 102.143 36.419 102.143 40.231 84.199 40.231 84.199 6.821"/><path class="cls-1" d="M130.993,13.157a5.73,5.73,0,0,0-5.363-3.146c-2.657,0-5.583,1.817-5.583,4.743,0,2.613,2.57,3.987,4.652,4.785l2.394,0.93c4.74,1.861,8.286,4.474,8.286,10.057A10.3,10.3,0,0,1,124.7,40.939a10.409,10.409,0,0,1-10.322-9.349l4.209-.886a6.316,6.316,0,1,0,12.628-.178c0-3.588-2.881-5.137-5.76-6.334l-2.3-.975c-3.811-1.64-7.266-3.811-7.266-8.463,0-5.406,4.783-8.641,9.836-8.641a9.532,9.532,0,0,1,8.595,5.051Z"/><polygon class="cls-1" points="157.804 40.23 153.639 40.23 153.639 10.631 145.708 10.631 145.708 6.821 165.735 6.821 165.735 10.631 157.804 10.631 157.804 40.23"/><path class="cls-1" d="M272.873,23.394v1.33c0,9.17-6.469,16.215-15.817,16.215s-16.882-8.065-16.882-17.324A17.392,17.392,0,0,1,271.1,12.582l-2.924,2.792a13.171,13.171,0,0,0-23.837,8.109c0,7,5.76,13.646,12.981,13.646,5.185,0,10.766-4.475,10.945-9.926h-8.642V23.394h13.249Z"/><path class="cls-1" d="M289.451,6.821V26.539c0,5.451,1.641,10.5,8.065,10.5s8.063-5.05,8.063-10.5V6.821h4.167V27.957c0,7.355-4.566,12.982-12.23,12.982s-12.23-5.627-12.23-12.982V6.821h4.165Z"/><polygon class="cls-1" points="324.372 6.821 342.316 6.821 342.316 10.632 328.537 10.632 328.537 19.982 341.918 19.982 341.918 23.792 328.537 23.792 328.537 36.419 342.316 36.419 342.316 40.231 324.372 40.231 324.372 6.821"/><path class="cls-1" d="M371.167,13.157a5.73,5.73,0,0,0-5.363-3.146c-2.657,0-5.583,1.817-5.583,4.743,0,2.613,2.57,3.987,4.652,4.785l2.394,0.93c4.74,1.861,8.286,4.474,8.286,10.057a10.3,10.3,0,0,1-10.679,10.413,10.409,10.409,0,0,1-10.322-9.349l4.209-.886a6.316,6.316,0,1,0,12.628-.178c0-3.588-2.881-5.137-5.76-6.334l-2.3-.975c-3.812-1.64-7.266-3.811-7.266-8.463,0-5.406,4.783-8.641,9.836-8.641a9.532,9.532,0,0,1,8.595,5.051Z"/><polygon class="cls-1" points="397.978 40.23 393.813 40.23 393.813 10.631 385.882 10.631 385.882 6.821 405.909 6.821 405.909 10.631 397.978 10.631 397.978 40.23"/><path class="cls-2" d="M202.551,8.79c-0.7-2.949-1.41-5.155-2.164-5.31-2.476-.512-2.557,12.419-2.557,12.419s7.313-4.094,7.547-2.689c0.225,1.35-7.547,5.511-7.547,5.511s-0.444,17.974-1.553,37.849c-1.726.688-2.238-.347-3.425-1.029,2.59-11.4,2.1-34.363,2.1-34.363s-7.749,5.375-10.842,6.62c1.549-.623,6.608,11.99-0.168,13.7-7.009,1.77-6.609-9.981-4.453-14.043,5.611-2.722,15.416-9.59,15.416-9.59s0.16-3.494.153-4.193a28.332,28.332,0,0,1,.67-6.449c0.58-2.506,1.9-9.18,5.914-6.666,0.99,0.62,1.627,1.838,2.719,5.562,0.438,1.5.79,2.128-.995,2.587m-19.9,30.55c2.893-1.575,1.684-10.3-2.126-9.269-1.174.317-1.237,9.642,2.126,9.269"/><path class="cls-2" d="M220.649,30.361c3,2.443,8-3.019,9.932-1.342s-6.8,5.113-11.307,3.527c-0.282-.1-0.317,2.326-2.913,4.073-2.238,1.506-4.094-1.154-4.672-2.993a14.814,14.814,0,0,1-.027-7.811c0.671-2.446,1.342-5.915,3.082-6.457,4.621-1.442,6.52,6.855,5.905,11m-4.831-8.589c-1.2-.116-2.045,5.45-2.146,6.078-0.186,1.16-.823,7.091,1.591,5.925,1.387-.671,1.914-8.63,1.791-8.63l1.178-.152c-0.486-1.715-.732-3.025-2.414-3.221"/></svg>