<?xml version="1.0" encoding="utf-8"?>
<!-- Generator: Adobe Illustrator 18.1.1, SVG Export Plug-In . SVG Version: 6.00 Build 0)  -->
<svg version="1.1" id="Layer_1" xmlns="http://www.w3.org/2000/svg" xmlns:xlink="http://www.w3.org/1999/xlink" x="0px" y="0px"
	 viewBox="-335.6 219.7 116.1 116.1" enable-background="new -335.6 219.7 116.1 116.1" xml:space="preserve">
<g id="Layer_4">
	<g>
		<g>
			<path fill="#FFFFFF" d="M-277.4,334.8c31.3,0,57-25.6,57-57c0-31.4-25.6-57-57-57c-31.4,0-57,25.6-57,57
				C-334.5,309.2-308.9,334.8-277.4,334.8"/>
			<path fill="none" stroke="#000000" stroke-width="2.1383" stroke-miterlimit="10" d="M-277.4,334.8c31.3,0,57-25.6,57-57
				c0-31.4-25.6-57-57-57c-31.4,0-57,25.6-57,57C-334.5,309.2-308.9,334.8-277.4,334.8"/>
			<path d="M-277.4,328.6c27.9,0,50.7-22.8,50.7-50.8c0-27.9-22.8-50.8-50.7-50.8c-28,0-50.8,22.8-50.8,50.8
				C-328.2,305.7-305.4,328.6-277.4,328.6"/>
			<path fill="#FFFFFF" d="M-264,265.8c2.2-2.1,5.4-4.8,6.5-7.3c1.7-3.6-0.7-6.4-0.7-6.4s-2.1-3.1-7.7-8.6
				c-2.6-2.6-11.6-10.6-11.6-10.6s-0.4,2.3-0.8,3.2c-1.2,2.2-2.2,2.9-2.2,2.9s-7.5,6.1-11.2,9.8c-5,5-8.9,10.2-8.9,10.2
				s-1.9,2.3-1.9,6c0,3.7,2.4,6.4,2.4,6.4s4.6,5.7,8,9c2.7,2.7,11.8,10.8,11.8,10.8s1.3,1.3,2,2.4c0.7,1.2,1.3,3.1,1.3,3.1
				s4.5-3.9,8.5-7.9c2.4-2.4,4.5-4.8,5.6-6.1c1-1.3,1.3-3.5,0-5.5c-1.1-1.7-3.1-2.6-4.1-4.4C-268.6,269.7-266.6,268.2-264,265.8
				 M-274.2,260.2c-0.1,0.7-1.1,1.7-1.6,2.1c-0.7,0.7-2.3,2-3,2.8c-0.2,0.2-0.5,0.7-0.6,1.1c-0.1,0.4-0.2,1.8-0.2,1.8
				s-1.6-1.4-3-2.8c-0.9-1-1.3-1.2-1.6-1.8c-0.1-0.2-0.3-0.4-0.3-1c0-0.7,0.1-0.9,0.3-1.2c0.4-0.8,1.2-1.4,2.4-2.6
				c0.8-0.8,2.7-2.5,2.7-2.5s0.3-0.3,0.4-0.7c0.2-0.4,0.2-0.9,0.2-0.9l0.5,0.6l0.7,0.6c0,0,0.7,0.6,1.3,1.2c0.9,0.9,1.5,1.7,1.5,1.7
				S-274,259.3-274.2,260.2"/>
			<rect x="-300.9" y="296.7" fill="#FFFFFF" width="45.7" height="1.9"/>
			<path fill="#FFFFFF" d="M-276.1,306.6c0-1.1-0.6-1.8-2.1-1.8c-1.2,0-2.1,0.3-2.1,0.3v8.3c0,0-2,0.2-2-0.5v-9.2
				c0.3,0,1-0.1,1.7-0.2c1-0.2,1.6-0.3,2.7-0.3c1.9,0,3.9,0.6,3.9,3.1v7.2c0,0-2,0.3-2-0.5V306.6L-276.1,306.6z"/>
			<path fill="#FFFFFF" d="M-298.8,316.9v1.3c-0.1,0-2,0.2-2-0.6l0-13.7c0.6-0.1,1.7-0.3,2.1-0.4c0.9-0.1,0.9-0.2,1.9-0.2
				c2.7,0,4.2,1.2,4.2,3.2v3.9c0,2-1.7,3.2-3.6,3.2c-1.5,0-2.3-0.5-2.6-0.7c0,0,0,0,0,0c0,0.1,0,0.7,0,1.1c0,0.1,0,0.1,0,0.2
				L-298.8,316.9L-298.8,316.9z M-298.8,310.3c0,1,1.2,1.8,2.3,1.8c1.1,0,1.9-0.6,1.9-1.9v-3.3c0-1.3-0.5-2-2.3-2
				c-1.2,0-1.9,0.3-1.9,0.3V310.3z"/>
			<path fill="#FFFFFF" d="M-254.8,310.3c0,2-1.4,3.3-4.4,3.3c-3,0-4.4-1.2-4.4-3.3v-3.8c0-2,1.4-3.3,4.4-3.3c3,0,4.4,1.2,4.4,3.3
				V310.3z M-256.8,306.8c0-1.3-0.4-2-2.4-2c-2,0-2.4,0.7-2.4,2v3.2c0,1.3,0.4,2,2.4,2c2,0,2.4-0.7,2.4-2V306.8z"/>
			<path fill="#FFFFFF" d="M-283.5,310.5c0-0.1-0.1,0-0.1,0c0,0-0.1,0.1-0.3,0.3c-0.2,0.1-0.2,0.2-0.5,0.4c0,0-0.2,0.1-0.2,0.2
				c0,0,0,0,0,0c-0.6,0.4-1.4,0.6-2.3,0.6c-1.6,0-2.3-0.6-2.3-1.9v-1.1c0.5,0.3,1.3,0.4,2,0.4c3,0,4-1.4,4-3c0-1.8-1.3-3.1-4-3.1
				c-2.6,0-4,1.2-4,3.3v3.8c0,2,1.6,3.3,4.3,3.3c0.8,0,1.6-0.1,2.2-0.4c0.1-0.1,0.3-0.1,0.4-0.2l0,0c0,0,0.6-0.3,0.9-0.6
				L-283.5,310.5L-283.5,310.5L-283.5,310.5z M-289.4,306.9c0-1.3,0.4-2,2-2c1.4,0,1.9,0.6,1.9,1.5c0,0.9-0.6,1.4-2.2,1.4
				c-0.7,0-1.6-0.2-1.7-0.3L-289.4,306.9L-289.4,306.9z"/>
			<path fill="#FFFFFF" d="M-271,306.4c0-1,0.6-1.4,2.1-1.4c0.7,0,1.3,0.1,1.8,0.3c0.2,0.1,0.6,0.3,0.6,0.3c0.4,0.2,0.4,0.3,0.6,0.4
				c0.1,0.1,0.4,0.3,0.5,0.4c0,0,0,0,0-0.1v-1.8c0-0.1-0.6-0.5-0.9-0.6c0,0-0.1-0.1-0.1-0.1c-0.6-0.3-1.5-0.4-2.5-0.4
				c-2.7,0-4.1,1.1-4.1,3.1c0,4.2,6.2,1.6,6.2,4.1c0,1-0.9,1.5-2.2,1.5c-0.9,0-1.7-0.1-2.4-0.6c0,0-0.1-0.1-0.1-0.1
				c-0.4-0.2-0.5-0.3-0.7-0.5c-0.2-0.2-0.5-0.4-0.5-0.4c-0.1-0.1-0.2-0.1-0.2,0v2c0.3,0.4,1.1,0.7,1.2,0.8c0.7,0.3,1.7,0.5,2.8,0.5
				c2.9,0,4.2-1.2,4.2-3C-264.7,306-271,308.4-271,306.4"/>
		</g>
	</g>
</g>
</svg>
