<?xml version="1.0" encoding="UTF-8" standalone="no"?>
<!-- Created with Inkscape (http://www.inkscape.org/) -->
<svg
   xmlns:dc="http://purl.org/dc/elements/1.1/"
   xmlns:cc="http://web.resource.org/cc/"
   xmlns:rdf="http://www.w3.org/1999/02/22-rdf-syntax-ns#"
   xmlns:svg="http://www.w3.org/2000/svg"
   xmlns="http://www.w3.org/2000/svg"
   xmlns:sodipodi="http://sodipodi.sourceforge.net/DTD/sodipodi-0.dtd"
   xmlns:inkscape="http://www.inkscape.org/namespaces/inkscape"
   version="1.0"
   width="561"
   height="680"
   viewBox=""
   id="svg2248"
   xml:space="preserve"
   sodipodi:version="0.32"
   inkscape:version="0.44.1"
   sodipodi:docname="CommunesBelgique-Pont-a-Celles.svg"
   sodipodi:docbase="C:\Documents and Settings\David\My Documents\Data\web\andre\cleanup\arms belgium"><metadata
   id="metadata12"><rdf:RDF><cc:Work
       rdf:about=""><dc:format>image/svg+xml</dc:format><dc:type
         rdf:resource="http://purl.org/dc/dcmitype/StillImage" /></cc:Work></rdf:RDF></metadata><sodipodi:namedview
   inkscape:window-height="938"
   inkscape:window-width="1280"
   inkscape:pageshadow="2"
   inkscape:pageopacity="0.0"
   guidetolerance="10.0"
   gridtolerance="10.0"
   objecttolerance="10.0"
   borderopacity="1.0"
   bordercolor="#666666"
   pagecolor="#ffffff"
   id="base"
   inkscape:zoom="0.377"
   inkscape:cx="500"
   inkscape:cy="500"
   inkscape:window-x="-4"
   inkscape:window-y="-4"
   inkscape:current-layer="svg2248" /><defs
   id="defs2296">	</defs>

<path
   d="M 11.8,628.4 L 11.9,628.501 C 11.9,628.501 12,628.601 12.2,628.801 L 12.4,629.001 C 12.5,629.101 12.5,629.101 12.5,629.101 C 12.6,629.202 12.6,629.202 12.6,629.202 C 12.8,629.401 13,629.502 13.1,629.702 C 13.2,629.702 13.2,629.702 13.2,629.802 L 16,632.202 C 16,632.202 16.1,632.202 16.1,632.302 C 16.2,632.302 16.3,632.402 16.3,632.402 C 23,637.602 30.7,640.302 39.4,640.503 L 241.5,640.503 C 244.2,640.503 246.8,640.803 249.3,641.402 C 253.3,642.203 257,643.703 260.5,645.703 C 263.4,647.503 266.2,649.602 268.8,652.203 C 276.3,659.703 280.2,668.803 280.5,679.503 C 280.7,668.803 284.6,659.703 292.2,652.203 C 294.801,649.602 297.5,647.402 300.5,645.703 C 303.9,643.703 307.5,642.303 311.5,641.402 C 314,640.902 316.7,640.503 319.5,640.503 L 521.5,640.503 C 531.7,640.203 540.5,636.603 547.801,629.703 C 548,629.503 548.2,629.303 548.301,629.203 C 548.401,629.102 548.5,629.003 548.5,629.003 L 548.801,628.803 C 548.901,628.603 549,628.503 549.101,628.403 L 549.101,628.403 C 549.301,628.303 549.401,628.103 549.5,628.004 C 549.7,627.804 549.801,627.704 549.9,627.604 L 549.9,627.604 L 549.8,627.504 L 550.499,626.903 C 556.899,619.803 560.199,611.303 560.499,601.504 L 560.499,0.504 L 0.499,0.504 L 0.499,602.004 C 0.799,611.604 4.099,619.903 10.499,627.004 L 11.199,627.504 L 11.099,627.604 C 11.3,627.9 11.6,628.2 11.8,628.4 z "
   style="fill:#900"
   id="path2282" /><path
   d="M 560.5,121.2 L 560.5,0.5 L 453.8,0.5 L 280.5,198.9 L 107.2,0.5 L 0.5,0.5 L 0.5,121.2 L 174.5,320.4 L 0.5,519.6 L 0.5,602 C 0.8,612.3 4.7,621.3 12.2,628.8 C 19.7,636.3 28.8,640.2 39.3,640.5 L 107,640.5 L 280.5,441.8 L 454,640.5 L 521.6,640.5 C 532.2,640.2 541.3,636.3 548.8,628.8 C 556.3,621.3 560.199,612.3 560.499,602 L 560.499,519.6 L 386.499,320.4 L 560.5,121.2 z "
   style="fill:#fc0"
   id="path2286" /><path
   d="M 12.2,628.8 C 19.7,636.3 28.8,640.2 39.4,640.5 L 241.5,640.5 C 248.5,640.6 254.8,642.399 260.5,645.7 C 263.4,647.5 266.2,649.599 268.8,652.2 C 276.3,659.7 280.2,668.8 280.5,679.5 C 280.7,668.8 284.6,659.7 292.2,652.2 C 294.801,649.599 297.5,647.399 300.5,645.7 C 306.101,642.399 312.5,640.599 319.5,640.5 L 521.5,640.5 C 532.101,640.2 541.2,636.3 548.801,628.8 C 556.301,621.2 560.2,612.1 560.5,601.5 L 560.5,0.5 L 0.5,0.5 L 0.5,602 C 0.8,612.4 4.7,621.3 12.2,628.8"
   style="fill:none;stroke:black;stroke-linecap:round;stroke-linejoin:round"
   id="path2292" />
</svg>