<?xml version="1.0" encoding="UTF-8" standalone="no"?>
<!-- Atheist A - an atheist symbol first seen on www.outcampaign.org - now one of the most popular symbols representing atheism - public domain image -->
<svg
   xmlns:svg="http://www.w3.org/2000/svg"
   xmlns="http://www.w3.org/2000/svg"
   version="1.0"
   width="2094"
   height="2066"
   id="svg2442">
  <defs
     id="defs2445" />
  <g
     id="g2471">
    <path
       d="M 69.639957,2015.75 C 67.222057,2013.5489 66.93695,2011.5673 56.510794,1924.5 C 44.831829,1826.9707 45.120523,1831.7549 49.562285,1809.3502 C 56.623742,1773.7315 72.213594,1744.4976 102.01058,1711 C 142.11715,1665.9124 183.95871,1624.5389 277,1537.9682 C 859.86531,995.63867 1275.9447,621.21536 1620,329.42363 C 1732.0422,234.40115 1838.6404,148.99653 1864.0215,133.91791 C 1880.9067,123.88663 1906.0983,114.49253 1941.8674,104.88871 C 1987.5049,92.635303 2006.1309,84.49403 2023.2192,69.330462 C 2039.1602,55.184878 2044.8054,52.89669 2047.551,59.467881 C 2049.2461,63.524698 2049.4202,71.511234 2047.9793,79.109177 C 2046.7174,85.763196 2043.1441,93.143401 2033.9911,108 C 2025.1931,122.28058 2011.0295,150.1715 2003.5772,167.89105 C 1988.1112,204.66534 1967.8743,274.72888 1959.4983,320.5 C 1958.0893,328.2 1954.7304,344.85 1952.0343,357.5 C 1934.8119,438.30578 1901.1122,616.15922 1873.5782,771.55958 C 1857.8686,860.22364 1806.9691,1154.082 1800.4935,1193.5 C 1786.4925,1278.7254 1774.8976,1363.3492 1764.5263,1456 C 1760.7244,1489.9641 1760.4339,1497.63 1762.0569,1521.1704 C 1764.4776,1556.2827 1769.8166,1578.69 1781.4475,1602.5518 C 1792.7388,1625.7169 1809.4749,1642.6444 1828.8843,1650.5311 C 1837.8976,1654.1936 1855.4299,1657 1869.2966,1657 C 1887.7694,1657 1902.6866,1654.332 1958.9851,1640.9586 C 1973.3087,1637.5561 1977.8034,1636.8725 1983.8436,1637.1775 C 1990.112,1637.494 1991.5005,1637.8999 1993.1085,1639.8857 C 1995.7106,1643.0992 1995.4777,1646.2788 1992.3697,1649.9724 C 1988.3391,1654.7626 1981.7922,1657.5217 1961.3075,1663.0633 C 1936.9669,1669.6479 1895.1213,1681.6053 1852.8799,1694.0465 C 1754.2848,1723.0852 1660.9734,1747.0418 1646.6924,1746.9826 C 1628.5552,1746.9075 1609.3202,1736.1804 1597.5391,1719.5704 C 1587.7933,1705.8299 1578.4,1681.6621 1579.2647,1672.5523 C 1579.7896,1667.0224 1588.2142,1612.7771 1611.033,1468 C 1648.1491,1232.5109 1650.9254,1212.6801 1649.6731,1192 C 1647.5794,1157.4286 1621.1892,1117.5937 1583.0778,1091.4774 C 1556.2551,1073.0969 1516.6466,1058.4212 1479.5,1053.0999 C 1431.9033,1046.2816 1374.0678,1044.3268 1180.5,1042.9939 C 996.28447,1041.7255 949.7369,1040.3136 896.15121,1034.3692 L 881.80242,1032.7775 L 877.65121,1036.7101 C 875.36804,1038.873 862.7,1050.4966 849.5,1062.5402 C 688.3426,1209.5801 538.69665,1358.5223 421.52749,1488.5 C 310.48727,1611.6788 223.23506,1717.8547 163.40104,1802.6103 C 139.25854,1836.8084 120.82603,1871.4521 109.72171,1903.5 C 102.42995,1924.5446 96.111608,1953.2487 91.454937,1986.4856 C 88.65572,2006.4649 86.505229,2013.1319 81.795923,2016.4304 C 78.464737,2018.7636 72.589116,2018.4348 69.639957,2015.75 z M 1675.3151,1032.2043 C 1677.9367,1029.3075 1682.7829,1017.7942 1684.9407,1009.3366 C 1690.5114,987.50205 1704.0273,912.99965 1761.922,585 C 1809.9021,313.17104 1818.0096,268.17956 1822.1095,251 C 1824.8012,239.72089 1825.6249,229.03609 1824.032,226.05979 C 1820.4735,219.41066 1802.413,229.5247 1765.5,258.83822 C 1694.9404,314.87131 1405.1963,558.16366 1295,653.90762 C 1148.5253,781.17202 1040.0604,883.51729 979.61056,951.50245 C 967.04837,965.63056 967.35394,965.03397 969.94179,970.37976 C 980.87605,992.96692 1032.0049,1005.992 1133.5,1012.0461 C 1142.85,1012.6039 1222.05,1013.4545 1309.5,1013.9364 C 1573.4669,1015.3911 1598.4703,1016.4467 1642,1027.9737 C 1664.8642,1034.0283 1663.5622,1033.7443 1669.095,1033.884 C 1672.3543,1033.9663 1674.1624,1033.478 1675.3151,1032.2043 z"
       id="path2475"
       style="fill:#fa0000" />
  </g>
</svg>
