<?xml version="1.0" encoding="utf-8"?>
<!-- Generator: Adobe Illustrator 18.1.0, SVG Export Plug-In . SVG Version: 6.00 Build 0)  -->
<svg version="1.1" id="Layer_1" xmlns="http://www.w3.org/2000/svg" xmlns:xlink="http://www.w3.org/1999/xlink" x="0px" y="0px"
	 width="6400px" height="6400px" viewBox="2688 -2810 6400 1" enable-background="new 2688 -2810 6400 6400"
	 xml:space="preserve">
<path opacity="0.8" fill="#78423F" enable-background="new    " d="M6002.6-167.9l-443.2-640H3076.6c-175.8,0-319-143.3-319-319
	v-1316.2c0-175.8,143.3-319,319-319h5640.7c175.8,0,319,143.3,319,319v1314.3c0,175.8-143.3,319-319,319H6445.9L6002.6-167.9z
	 M3076.6-2689.5c-137.6,0-248.4,110.8-248.4,248.4v1314.3c0,137.6,110.8,248.4,248.4,248.4h2519.1L6002.6-292l406.9-586.5h2309.6
	c137.6,0,248.4-110.8,248.4-248.4v-1316.2c0-137.6-110.8-248.4-248.4-248.4H3076.6V-2689.5z"/>
<path opacity="0.8" fill="#A75E5A" enable-background="new    " d="M8717.3-2725.8H3076.6c-156.7,0-282.7,128-282.7,282.7v1314.3
	c0,156.7,128,282.7,282.7,282.7h2500l426,613.3l426-613.3h2290.5c156.7,0,282.7-128,282.7-282.7v-1314.3
	C9001.9-2597.8,8873.9-2725.8,8717.3-2725.8z"/>
<g>
	<path fill="#FFFFFF" d="M3137.7-1578l77.9-112.1c75,50.3,162.4,75,252.7,75c137.7,0,163.4-26.6,163.4-85.5
		c0-57.9-58.9-69.3-167.2-84.5c-188.1-26.6-285.9-60.8-285.9-213.7c0-156.7,95-212.8,293.5-212.8c143.4,0,230.8,33.2,285,69.3
		l-83.6,120.6c-44.6-29.5-127.3-54.1-203.3-54.1c-110.2,0-136.8,21.8-136.8,73.1c0,57,58,67.5,170,83.6
		c169.1,24.7,282.1,52.2,282.1,210.9c0,142.5-77.9,222.3-312.5,222.3C3333.4-1485.8,3217.5-1519.1,3137.7-1578z"/>
	<path fill="#FFFFFF" d="M3851.1-2233.5h148.2v235.6c21.9-23.7,73.1-48.4,174.8-48.4c162.4,0,192.8,90.2,192.8,224.2v325.8h-148.2
		v-296.4c0-65.5-7.6-113-97.9-113c-103.5,0-120.6,48.4-120.6,119.7v289.7h-149.1V-2233.5z"/>
	<path fill="#FFFFFF" d="M4427.8-1766.1c0-180.5,78.8-280.2,281.2-280.2c202.3,0,280.2,99.8,280.2,280.2
		c0,180.5-77.9,280.2-280.2,280.2C4506.6-1485.8,4427.8-1585.6,4427.8-1766.1z M4840.1-1762.3c0-91.2-28.5-148.2-131.1-148.2
		c-103.5,0-131.1,57-131.1,148.2s27.5,149.1,131.1,149.1C4811.6-1613.1,4840.1-1671.1,4840.1-1762.3z"/>
	<path fill="#FFFFFF" d="M5017.7-2034h95l25.6-131.1l115.9-23.8v154.8h127.3v127.3h-127.3v221.3c0,41.8,5.7,64.6,69.3,64.6h57.9
		v124.4c-21.8,1.9-61.7,1.9-88.3,1.9c-145.3,0-187.1-49.4-187.1-169.1v-243.2h-88.3V-2034z"/>
	<path fill="#FFFFFF" d="M5423.4-2034h156.7l98.8,327.7l102.6-327.7h147.2l102.6,326.8l98.8-326.8h150.1l-174.8,543.4H5963
		l-111.1-345.8l-111.1,345.8h-141.5L5423.4-2034z"/>
	<path fill="#FFFFFF" d="M6274.6-1766.1c0-150.1,49.4-280.2,279.3-280.2c236.5,0,244.1,157.7,239.4,337.2H6419
		c8.5,64.6,39.9,102.6,135.8,102.6c82.6,0,129.2-19.9,169.1-49.4l75,96.9c-69.3,52.2-137.8,73.1-244.1,73.1
		C6322.1-1485.8,6274.6-1613.1,6274.6-1766.1z M6419-1815.5h238.4c-3.8-61.7-16.1-106.4-108.3-106.4
		C6457-1921.9,6426.6-1881,6419-1815.5z"/>
	<path fill="#FFFFFF" d="M6865.5-1658.7v-574.7h148.2v556.7c0,43.7,8.6,56,53.2,56c2.9,0,13.3,0,18,0v122.5
		c-12.3,1.9-41.8,3.8-72.2,3.8C6915.8-1494.4,6865.5-1531.4,6865.5-1658.7z"/>
	<path fill="#FFFFFF" d="M7160.9-1658.7v-574.7h148.2v556.7c0,43.7,8.5,56,53.2,56c2.8,0,13.3,0,18,0v122.5
		c-12.3,1.9-41.8,3.8-72.2,3.8C7211.2-1494.4,7160.9-1531.4,7160.9-1658.7z"/>
	<path fill="#FFFFFF" d="M7626.4-1578l77.9-112.1c75,50.3,162.4,75,252.7,75c137.7,0,163.4-26.6,163.4-85.5
		c0-57.9-58.9-69.3-167.2-84.5c-188.1-26.6-285.9-60.8-285.9-213.7c0-156.7,95-212.8,293.5-212.8c143.4,0,230.8,33.2,285,69.3
		l-83.6,120.6c-44.6-29.5-127.3-54.1-203.3-54.1c-110.2,0-136.8,21.8-136.8,73.1c0,57,57.9,67.5,170,83.6
		c169.1,24.7,282.1,52.2,282.1,210.9c0,142.5-77.9,222.3-312.5,222.3C7822.1-1485.8,7706.2-1519.1,7626.4-1578z"/>
	<path fill="#FFFFFF" d="M8304.7-2034h95l25.6-131.1l115.9-23.8v154.8h127.3v127.3h-127.3v221.3c0,41.8,5.7,64.6,69.3,64.6h58v124.4
		c-21.8,1.9-61.8,1.9-88.3,1.9c-145.3,0-187.1-49.4-187.1-169.1v-243.2h-88.3V-2034z"/>
</g>
</svg>
