<?xml version="1.0" encoding="utf-8"?>
<!-- Generator: Adobe Illustrator 19.1.0, SVG Export Plug-In . SVG Version: 6.00 Build 0)  -->
<svg version="1.1" id="Layer_1" xmlns="http://www.w3.org/2000/svg" xmlns:xlink="http://www.w3.org/1999/xlink" x="0px" y="0px"
	 viewBox="0 0 233.1 272.1" style="enable-background:new 0 0 233.1 272.1;" xml:space="preserve">
<style type="text/css">
	.st0{fill:#E6E7E8;}
	.st1{fill:#FFFFFF;}
</style>
<path class="st0" d="M205.6,22.2C180.1,4.6,147.6,0,116.6,0S53,4.6,27.5,22.2C3.8,38.6-2.5,64.3,0.8,88.8
	c6.9,51.9,67.8,183.3,115.8,183.3S225.4,140.7,232.3,88.8C235.6,64.3,229.3,38.6,205.6,22.2z"/>
<g>
	<path class="st1" d="M116.6,270.6c-20.3,0-46.5-26-72-71.4c-21-37.3-38.7-83.8-42.3-110.6C0.1,72.5,0.7,42.5,28.3,23.4
		C49.7,8.7,78.6,1.5,116.6,1.5c38,0,66.8,7.2,88.2,21.9c27.7,19.1,28.2,49.1,26.1,65.2c-3.5,26.7-21.3,73.2-42.3,110.6
		C163,244.6,136.8,270.6,116.6,270.6z"/>
	<path d="M116.6,3c37.7,0,66.2,7.1,87.4,21.7c27,18.6,27.5,48,25.4,63.8c-3.5,26.6-21.2,72.8-42.1,110c-25.2,44.9-51,70.7-70.7,70.7
		s-45.5-25.8-70.7-70.7C25,161.3,7.3,115,3.8,88.4C1.7,72.6,2.2,43.3,29.2,24.7C50.3,10.1,78.9,3,116.6,3 M116.6,0
		C85.5,0,53,4.6,27.5,22.2C3.8,38.6-2.5,64.3,0.8,88.8c6.9,51.9,67.8,183.3,115.8,183.3S225.4,140.7,232.3,88.8
		c3.3-24.5-3-50.3-26.7-66.6C180.1,4.6,147.6,0,116.6,0L116.6,0z"/>
</g>
<path d="M185.3,178.3c0.3-0.1,0-0.8,0-0.8s-10.2-16.8-10.5-17.4c-0.2-0.5-1.3-0.1-1.9,0.2c-0.8-3.2-1.6-6.2-1.7-6.4
	c-0.1-0.4-0.9-5.3,0.6-6.9c0.2-0.2,0.4-0.4,0.6-0.6c0.6-0.4,1.4-0.9,1.4-0.9s-0.1,0.5-0.5,1.1c-0.4,0.5-1.6,0.9-1.6,0.9
	s0.5,0.6,1.6,0.3c1.1-0.3,2.2-2,2.2-2s-0.1,0.3-0.5,1.4s-1.2,1.7-1.2,1.7s0.8-0.5,1.9-1.7c1.1-1.2,2.9-4.7,4.4-8.7
	c1.2-3.2,2.1-8.5,2.4-10.4c0-0.2,0.1-0.5,0.1-0.7c0-0.1,0-0.1,0-0.1l0,0c0-0.2,0-0.4,0-0.6c0.1-1.9,0.1-7.6,0-14.2
	c0.5,1.5,1,2.6,1,2.6c-0.8-3-1.1-7.6-1.1-7.6l0,0c-0.2-10.4-0.5-21.6-1-24.7c-0.9-5.8-0.8-22.7-9.5-33.8
	c-8.6-11.1-17.4-18.4-39.7-22.3c-0.3,0-0.5-0.1-0.8-0.1c0.2,0,0.3,0,0.5-0.1c0.8-0.1,1.4-0.4,1.8-0.7c0.2-0.1,0.3-0.3,0.4-0.4
	c0.1-0.1,0.1-0.2,0.1-0.2s-0.1,0.2-0.5,0.4c-0.4,0.2-1,0.4-1.8,0.4c-0.6,0.1-1.3,0-2,0c-0.4-0.1-0.8-0.2-1.4-0.2
	c-0.4-0.1-0.8-0.1-1.3-0.2c-4.4-1-8.8-2.2-12.7-3c-0.6-0.2-1.2-0.4-1.8-0.5c-0.2-0.1-0.4-0.1-0.7-0.2c-0.2,0-0.4-0.1-0.7-0.1
	c-0.4-0.1-0.9-0.1-1.3-0.2c-0.9-0.1-1.8-0.2-2.8-0.2c-1.9,0-3.8,0.4-5.6,1c-0.5,0.1-0.9,0.3-1.4,0.5L99.8,23l-0.3,0.1
	c-0.1,0-0.2,0.1-0.3,0.1c-0.3,0.1-0.5,0.2-0.8,0.2c-1.6,0.2-3,0.2-4.4,0.1c0,0,0,0,0,0c-0.9-0.1-1.8-0.2-2.7-0.3
	c-1.8-0.1-3.5-0.1-5.1,0c-1.6,0.2-3.2,0.6-4.5,1.1c-1.3,0.5-2.5,1.1-3.5,1.7c-1,0.6-1.8,1.2-2.5,1.7c-0.4,0.3-0.8,0.6-1.1,0.9
	c-0.8,0.6-1.6,1.2-2.5,1.9c-3.7,2.8-6.5,6.4-8.1,9.8c-0.1,0.1-0.1,0.2-0.2,0.3c-0.5,0.8-1.1,1.6-1.4,2.6c-0.2,0.5-0.3,1-0.4,1.5
	c0,0.3-0.1,0.5-0.1,0.8c0,0.3,0,0.5-0.1,0.8c0,1,0.1,2,0.2,3c0.2,1,0.5,1.9,0.8,2.8c0.3,0.9,0.7,1.7,1.2,2.4c0.4,0.7,0.8,1.4,1.3,2
	c0.8,1.2,1.6,2.2,2.2,2.8c0.1,0.1,0.2,0.2,0.3,0.3c0.4,1,0.4,0.9,0.1,2c0,0-4.4,16.1-5.4,19.6c-1,3.5-2.4,6.7-2.3,8s0.8,2.3,1.7,4.2
	c0.9,1.9,1.4,6.2,0.4,9.3c-1,3.1-6.2,11.6-7.1,13.1c-0.9,1.5-2.1,3.7-1.2,5.4c0.8,1.8,3,3.1,5.3,3.9s3.3,0.9,3.4,1.6
	s-0.1,3.2-0.7,5.1c-0.6,1.9-1.3,2.7-1.2,3.4c0.1,0.6,0.2,1.5,1.3,2.7c1.1,1.3,2,1.8,2,1.8s-1.8,3.1-1.7,4.9s1.2,2.7,1.8,3.1
	c0.6,0.4,1.6,1.7,1.1,2.9c-0.5,1.3-2.8,4.4-3.3,6.6c-0.5,2.2-0.1,6.9,1.1,8.9c1.2,2,3.8,4.5,16.8,7.5c13,3,19.4,2.5,19.9,2.8
	c0.5,0.3,1,0.5,1.3,2.5c0.3,2,0.8,3.9,0.8,6.4c0,2.5,0,3.8,0.4,4.6c0.4,0.8,2.1,2.7,2.3,3.9c0.2,1.1,0.8,3.4,1,4.2
	c-0.5,0.3-0.8,0.4-0.8,0.5c-0.8,0.4,0,1.6-0.1,2.1c-0.1,0.5-0.7,0.5-2.3,2.4s0.4,8.8,0.5,9.4s-0.4,1.5-2.9,5.4
	c-2.5,4-9.9,15.8-10.5,18.6c-0.6,2.8-4.4,9.4-8.5,15.2c-0.1,0.2-0.3,0.4-0.4,0.6c12.1,12.2,24.3,19.7,35.8,19.7
	c26.9,0,58-41.5,81.2-87.1C191,179.8,185,178.3,185.3,178.3z M65.8,56.3c-0.4-0.6-0.8-1.3-1.1-2c-0.4-0.7-0.7-1.5-1-2.4
	c-0.1-0.2-0.1-0.3-0.2-0.5c0.4,0.7,0.7,1.2,1,1.6c0.4,1.1,0.9,2.1,1.4,3c0.4,0.7,0.7,1.3,1,1.8c0.1,0.2,0.1,0.3,0.2,0.5
	C66.7,57.7,66.3,57,65.8,56.3z"/>
</svg>
