<svg version="1.1" id="Layer_1" xmlns="http://www.w3.org/2000/svg" xmlns:xlink="http://www.w3.org/1999/xlink" x="0px" y="0px"
	 viewBox="0 0 200 300" enable-background="new 0 0 200 300" xml:space="preserve">
<path fill="#f04237" d="M194.9,102c0.3-1.6,0.6-3.3,0.7-5v-0.7c-0.3-7.2-1.4-14.2-3.2-20.8C181.3,34.6,144,5.7,101.5,5.3
	C59,4.9,21.1,33,9.2,73.7c-2,6.7-3.2,13.7-3.6,20.8v0.7c0.1,1.7,0.3,3.4,0.6,5c0.1,0.4,0.1,0.8,0.3,1.2c0.3,1.7,0.8,3.5,1.4,5.2
	c-1.3,3.7-2.2,7.4-2.5,11.3v0.7c0.3,7.2,1.4,14.2,3.2,20.9c0.8,2.8,1.7,5.5,2.7,8.2c6.3,18.1,14.9,33.7,22.6,47.5
	c3,5.5,5.8,10.6,8.3,15.4c2.1,5.7,6.4,10.8,12.2,15c-0.5,3.7-0.1,7.8,0.8,11.9c2.6,12.5,6.2,30.2,6.2,30.2
	c-0.1,9.9,10.1,18.4,24.2,21.8c0.4,4.3,6,7.7,13.2,7.8c7,0.1,12.8-3.2,13.3-7.5c14.2-3.2,24.5-11.5,24.6-21.4c0,0,4-17.7,6.8-30.1
	c0.9-4,1.4-8.1,1-11.7c6-4.2,10.4-9.3,12.5-15c2.6-4.8,5.5-9.9,8.6-15.3c7.5-12.8,15.9-27.4,22.3-44.1c0.3-0.7,0.4-1.2,0.4-1.2
	c0.3-0.6,0.5-1.2,0.6-1.5c1.1-2.6,2-5.4,2.9-8.3c2-6.7,3.2-13.7,3.6-20.8v-0.7c-0.3-3.9-1-7.7-2.3-11.3c0.6-1.6,1.1-3.4,1.5-5.1
	C194.7,102.8,194.8,102.4,194.9,102z M180.2,146.3c-0.1,0.4-0.3,0.7-0.4,1.1l-0.5,1.3c-6.2,16.2-14.5,30.5-21.8,43.1
	c-3.2,5.5-6.2,10.7-9,16.1c-1.4,3.7-4,7.1-7.7,10c-9.1,7.3-24.5,12-41.5,11.8C82.4,229.5,67,224.5,58,217c-3.3-2.7-5.8-5.8-7.1-9.1
	l-0.8-1.8c-2.5-4.8-5.3-10-8.3-15.4c-7.5-13.5-16-28.7-22-46.1c-0.9-2.5-1.7-5-2.4-7.5c-1.5-5.5-2.5-11.2-2.8-16.7
	c3.7,5.5,8.6,10.6,14.3,15.2c0,0.2,0.1,0.6,0.1,0.9c0.1,0.9,0.3,2.3,0.6,3.9c0.2,1.7,0.6,3.3,1.1,4.9c1.8,6.9,5.5,15.4,9.6,23.4
	c4.1,8.1,8.7,15.8,11.9,21.7c3.3,5.8,4.7,9.8,4.7,9.8v0.1c0.2,0.6,0.8,0.9,1.4,0.7c0.6-0.2,1-0.8,0.9-1.5c0,0-1.2-4.5-3.9-10.7
	c-2.6-6.2-6.4-14.3-9.6-22.6c-0.4-1-0.8-2-1.2-3.1c-0.6-1.4-1.1-2.8-1.6-4.2c-2-5.7-3.5-11.1-4.2-15.4c-0.1-0.4-0.2-0.9-0.2-1.3
	c5.4,3.2,11.1,6,17.4,8.4c0.2,1.7,0.5,3.9,0.9,5.9c1.1,6.6,3.3,15,6,23.1c2.7,8.2,5.6,16.2,7.6,22.2c2.1,6,3,10.1,3,10.1
	c0.2,0.6,0.7,1,1.3,0.9c0.6-0.1,1.1-0.7,1-1.3c0,0-0.5-4.4-2-10.6c-1.5-6.3-3.6-14.5-5.4-22.8s-3.2-16.6-3.6-22.7
	c-0.1-0.7-0.1-1.5-0.2-2.1c5.7,1.6,11.7,2.9,17.9,3.8c0.1,1.4,0.2,3,0.4,4.8c0.5,6.3,1.5,14.6,2.6,22.9c1.1,8.2,2.4,16.4,3.2,22.6
	c0.3,2.3,0.6,4.3,0.8,5.9c0.3,2.7,0.5,4.4,0.5,4.4c0.1,0.6,0.5,1,1.2,1.1c0.7,0,1.2-0.5,1.2-1.2c0,0,0-1.6,0-4.3
	c0-1.7-0.1-3.7-0.2-6.1c-0.2-6.2-0.6-14.5-0.9-22.8s-0.4-16.5-0.3-22.7c0-1.3,0.1-2.6,0.1-3.7c2.9,0.2,5.9,0.4,9,0.4
	s6.1-0.1,9.1-0.2c0,0.7,0,1.4,0,2.1c0.1,5.2-0.1,12.2-0.3,19.2c-0.6,14.1-1.3,28.1-1.3,28.1c0,0.6,0.4,1.1,1,1.2
	c0.7,0.1,1.3-0.4,1.4-1c0,0,2.4-13.9,4.7-27.9c1.1-7,2.1-14.1,2.6-19.4c0.1-1.2,0.3-2.3,0.3-3.2c6.3-0.8,12.3-2,18.1-3.5
	c-0.2,4.8-1.1,11.2-2.3,17.6c-1.3,6.5-2.8,13-4,17.8c-1.2,4.9-2,8.1-2,8.1c-0.1,0.5,0.2,1.2,0.7,1.4c0.6,0.3,1.3,0,1.5-0.7
	c0,0,1.2-3.1,3-7.8c1.8-4.6,4.1-10.9,6.3-17.3c2.1-6.5,3.9-13,4.8-18.2c0.2-1.2,0.4-2.4,0.6-3.5v-0.1c6.4-2.3,12.4-5,17.9-8.2
	c-0.5,3.9-1.6,8.6-3.1,13.3c-1.8,5.6-4,11-5.6,15.1c-1.8,4.1-2.9,6.8-2.9,6.8c-0.2,0.5-0.1,1.2,0.5,1.5c0.5,0.3,1.3,0.1,1.6-0.4
	c0,0,1.6-2.6,3.9-6.4c2.2-3.8,5.2-9,7.9-14.5c2.6-5.4,4.9-11.2,6-15.9c0.2-1.2,0.5-2.2,0.6-3.3c0.1-0.9,0.3-1.8,0.4-2.4
	c5.7-4.4,10.6-9.3,14.5-14.7c-0.4,5.6-1.5,11.2-3.1,16.5C182.1,141.3,181.3,143.7,180.2,146.3z M18,76.3
	c10.7-36.8,45-62.1,83.3-61.8c38.4,0.4,72.2,26.4,82.1,63.4c1.5,5.5,2.5,11.2,2.8,16.7c0.1,0.6,0.1,1.1,0.2,1.7
	c-0.1,1-0.2,2.1-0.4,3.2c-0.3,0.3-0.7,0.7-1.2,1.3c-0.9,0.8-2,1.9-3.3,3.2c-11.1,10.1-39.3,30.9-81.3,30.5
	c-41.7-0.4-69.6-21.7-80.6-32c-1.3-1.2-2.4-2.3-3.3-3.2c-0.5-0.6-1-1-1.3-1.3v-0.1c-0.1-0.9-0.2-1.8-0.3-2.7
	c0.1-0.7,0.1-1.5,0.2-2.3C15.4,87.2,16.4,81.6,18,76.3z M166.2,129.7L166.2,129.7c-1,0.8-2,1.5-3,2.2c-5.9,4.1-12.7,7.6-20.2,10.4
	c-2.3,0.8-4.7,1.6-7.2,2.3c-6,1.8-12.3,3.1-19,3.9c-2.4,0.3-4.8,0.6-7.3,0.7c-3.1,0.2-6.3,0.2-9.5,0.2s-6.3-0.2-9.4-0.4
	c-2.4-0.2-4.9-0.5-7.3-0.9c-6.7-0.9-13-2.3-18.9-4.2c-2.4-0.8-4.8-1.6-7-2.5c-7.4-2.8-14.2-6.4-20-10.6c-1-0.7-2-1.5-2.9-2.2
	c-4.1-3.2-7.6-6.7-10.4-10.5c15.3,11.4,41,25.1,76.1,25.4c34.9,0.3,60.7-12.8,76.3-23.8C173.6,123.3,170.1,126.6,166.2,129.7z"/>
</svg>
