<svg id="Layer_1" data-name="Layer 1" xmlns="http://www.w3.org/2000/svg" viewBox="0 0 325.7 497.95"><defs><style>.cls-1{fill:#ff0b14;}.cls-2{fill:#fff;}</style></defs><title>pto--vertical</title><rect class="cls-1" width="325.7" height="497.95"/><path class="cls-2" d="M154,254.93a1.43,1.43,0,0,0,1.42,1.67c1.93,0,7-3.35,13-10.43a3,3,0,0,1,2.19-1,1.25,1.25,0,0,1,1.42,1.29c0,0.9-.51,2.06-1.8,3.61-7.08,8.37-14.17,12.62-18.68,12.62-4.76,0-7-2.83-7-7.08a17.46,17.46,0,0,1,.77-4.89c2.7-9.79,7.08-15.46,7.08-17.39a0.61,0.61,0,0,0-.64-0.64c-3.09,0-15.46,11.08-17.52,18.68L133,256.09c-1,4-5.15,6.57-7.73,6.57a2.14,2.14,0,0,1-2.45-2.32,8.85,8.85,0,0,1,.26-1.67l0.9-3.48c-4.51,5.28-8.37,7.47-11.46,7.47-5.92,0-9.14-7.73-9.14-16.23,0-11.08,2.58-22.67,6.31-33.23h-8.37c-1.42,0-2.06-.52-2.06-1.29,0-1.67,2.7-4.12,5.54-4.12h7c6.7-16.62,15.84-29.11,20.48-29.11,1.67,0,2.83,1.93,2.83,6.18,0,6.05-1.8,14.3-4.51,22.93h7.6c6.7-16.62,16-29.11,20.61-29.11,1.8,0,3,1.93,3,6.18,0,17.52-12,38.25-24.09,52.42l-0.51,1.93c6.31-8.5,17.26-15.2,22.93-15.2,2.19,0,3.74,1.16,3.74,3.48a16.94,16.94,0,0,1-1.8,5.93c-2.32,5.15-5.67,12.36-7.47,19.06A10.49,10.49,0,0,0,154,254.93ZM136.1,213.2h-7.34c-4.38,12.36-10.56,24.73-16.36,32.46,0.39,7.47,1.93,10.18,4,10.18,3.35,0,6.31-5,10.56-11.08l6.7-23.83C134.42,218.35,135.19,215.77,136.1,213.2Zm-23.7,25.5c4.38-7.73,7.6-17.26,9.79-25.5h-5.54C114.46,221.31,112.65,229.55,112.4,238.7Zm12.62-46c-1.42,0-4.25,6.44-6.83,15.07h5.28a93.52,93.52,0,0,0,2.32-12.11C125.79,193.62,125.54,192.72,125,192.72Zm14.81,34.39c7.34-10.82,12.49-22.93,12.49-31.43,0-2.32-.39-3.35-0.9-3.35-2.06-.13-6.57,12.24-10.17,28.46Z"/><path class="cls-2" d="M176,252.48a11.41,11.41,0,0,0-.51,2.58c0,1,.39,1.67,1.29,1.67,1.93,0,7-3.35,13.14-10.56a2.66,2.66,0,0,1,2.19-1,1.3,1.3,0,0,1,1.54,1.29c0,0.77-.51,2.06-1.93,3.61-7.08,8.37-14.17,12.62-18.68,12.62-4.76,0-7-2.83-7-7.21a16.62,16.62,0,0,1,.77-4.77,100.36,100.36,0,0,1,6.57-15.84,6.08,6.08,0,0,0,.64-1.8,0.52,0.52,0,0,0-.64-0.52c-0.39,0-.77.13-1.16,0.13-0.9,0-1.8-.39-1.8-1.29,0-2.58,6.83-7.34,13.39-7.34,1.8,0,2.58.77,2.58,1.93,0,1.67-1.42,4.38-2.83,7.47A143.16,143.16,0,0,0,176,252.48Zm15.33-43.15c0,3.48-3.6,7.34-7.86,7.34-3,0-5.28-2.06-5.28-4.77,0-3.74,4-7.34,8-7.34C189,204.57,191.35,206.24,191.35,209.33Z"/><path class="cls-2" d="M198.18,235.87a13.31,13.31,0,0,1-2.58-7.34c0-7.6,8.63-14.17,14.17-14.17,2.32,0,4,1.16,4,4,0,4-4.25,9.66-7.21,13.39,3.74,4.64,8.63,10,8.63,16.1a15.48,15.48,0,0,1-.39,3.22c3.35-.13,5.41-1.16,8.63-4.89a3,3,0,0,1,2.19-1,1.25,1.25,0,0,1,1.42,1.29c0,0.9-.51,2.06-1.8,3.61-4.77,5.67-8.5,7.08-12.11,7.08A10,10,0,0,1,212,257c-3.48,4.12-8.76,5.67-13.91,5.67-4.64,0-8.89-2.58-8.89-5.8,0-3.48,4.77-6.7,13.52-6.7,1.42,0,3.22.13,4.51,0.26-0.26-4-3.48-7.47-6.57-11.21L191.74,250a2.69,2.69,0,0,1-2.06,1,1.33,1.33,0,0,1-1.55-1.42c0-.77.52-1.93,1.8-3.48C192.25,243.46,195.47,239.34,198.18,235.87Zm7.47,19.58a24.83,24.83,0,0,0-6.05-1c-2.32,0-3.22,1-3.22,1.93,0,1.16,1.16,2.32,3.22,2.32S204,257.25,205.65,255.44Zm-1.8-27.31c1.8-2.58,3.22-5.15,3.35-7,0-.9-0.26-1.42-0.9-1.42-1.29,0-3.61,2.19-3.61,4.51A7,7,0,0,0,203.84,228.14Z"/><path class="cls-2" d="M36.51,35H76.76c16.75,0,24.87,7.6,24.87,24.18V87.85c0,16.58-7.94,24-24.87,24H61.56v52.85h-25V35ZM67.08,87.33c7.08,0,9.5-3.63,9.5-13.82,0-10-2.76-14-9.5-14H61.56V87.33h5.53Z"/><path class="cls-2" d="M169.51,129.65V35h25.22v97.93c0,27.12-14.68,33.51-32.64,33.51-16.23,0-32.64-6.39-32.64-33.51V35h25.22v94.65c0,8.12,2.07,11.57,7.43,11.57S169.51,137.77,169.51,129.65Z"/><path class="cls-2" d="M242.91,164.71V59.35H220.46V35h70.47V59.35H268.47V164.71H242.91Z"/><path class="cls-2" d="M88.67,289.2C114,289.2,131,302.33,131,333.71v82.58C131,445,116,460.81,88.67,460.81S46.38,445,46.38,416.29V333.71C46.38,304.78,61.29,289.2,88.67,289.2Zm0,32.28c-6.45,0-9.13,4-9.13,13.58V415c0,9.57,2.67,13.58,9.13,13.58s9.13-4,9.13-13.58V335C97.8,325.48,95.13,321.47,88.67,321.47Z"/><path class="cls-2" d="M200.85,458.58H169.69V291.42h30l40.07,96.82V291.42h30.94V458.58h-29.6L200.85,360.2v98.38Z"/><circle class="cls-2" cx="67.72" cy="221.38" r="9.36"/><circle class="cls-2" cx="254.85" cy="221.38" r="9.36"/></svg>