<svg xmlns="http://www.w3.org/2000/svg" width="456.03" height="326.67" viewBox="0 0 456.03 326.67"><path fill="#e3e5e6" d="M48.36 73.73h139.82a15.09 15.09 0 0 1 15.09 15.09v11.91h-170V88.81a15.09 15.09 0 0 1 15.09-15.08z"/><circle cx="48.96" cy="87.29" r="3.06" fill="#f6584b"/><circle cx="58.75" cy="87.29" r="3.06" fill="#ffcd00"/><circle cx="68.54" cy="87.29" r="3.06" fill="#55bc65"/><path fill="#fbfbfb" d="M84.65 82.29h106v10h-106z"/><path fill="#a4dae2" d="M33.27 100.73v134.83a15.17 15.17 0 0 0 15.17 15.17H188.1a15.17 15.17 0 0 0 15.17-15.17V100.73z"/><circle cx="118.27" cy="175.73" r="41.26" fill="#e9ebec"/><circle cx="118.27" cy="175.73" r="33.01" fill="#21abc7"/><path fill="#f79d2a" d="M124.11 181.56l14.58-26.26-26.25 14.59 11.67 11.67"/><path fill="#f45950" d="M124.11 181.56l14.58-26.26-20.42 20.43 5.84 5.83"/><path fill="#b0bec2" d="M124.11 181.56l-26.26 14.59 14.59-26.26 11.67 11.67"/><path fill="#e9ebec" d="M118.27 175.73l-20.42 20.42 14.59-26.26 5.83 5.84"/><circle cx="118.27" cy="175.73" r="8.25" fill="#ffcd00"/><circle cx="118.27" cy="175.73" r="2.06" fill="#f79d2a"/><path fill="#e3e5e6" d="M184.65 23.83h139.83a15.09 15.09 0 0 1 15.09 15.09v11.91h-170V38.92a15.09 15.09 0 0 1 15.08-15.09z"/><circle cx="185.25" cy="37.4" r="3.06" fill="#f6584b"/><circle cx="195.04" cy="37.4" r="3.06" fill="#ffcd00"/><circle cx="204.83" cy="37.4" r="3.06" fill="#55bc65"/><path fill="#fbfbfb" d="M220.94 32.4h106v10h-106z"/><path fill="#606bb3" d="M169.56 50.83v134.83a15.17 15.17 0 0 0 15.17 15.17h139.66a15.17 15.17 0 0 0 15.17-15.17V50.83z"/><path fill="#55bc65" d="M254.67 125.83l.24-41.26h-.11a41.27 41.27 0 0 0-36 61.81l.25-.14z"/><path fill="#f6584b" d="M254.91 84.57l-.24 41.26L290 146.9l.43-.74a41.26 41.26 0 0 0-35.56-61.59z"/><path fill="#ffcd00" d="M219 146.24l-.25.14a41.76 41.76 0 0 0 35.55 20.71A41.23 41.23 0 0 0 290 146.9l-35.37-21.07z"/><circle cx="254.56" cy="125.83" r="12.12" fill="#e9ebec"/><circle cx="254.56" cy="125.83" r="9.88" fill="#21abc7"/><path fill="#e3e5e6" d="M267.84 125.83h139.83a15.09 15.09 0 0 1 15.09 15.09v11.91h-170v-11.91a15.09 15.09 0 0 1 15.08-15.09z"/><circle cx="268.44" cy="139.4" r="3.06" fill="#f6584b"/><circle cx="278.23" cy="139.4" r="3.06" fill="#ffcd00"/><circle cx="288.02" cy="139.4" r="3.06" fill="#55bc65"/><path fill="#fbfbfb" d="M304.13 134.4h106v10h-106z"/><path fill="#21abc7" d="M252.76 152.83v134.83a15.17 15.17 0 0 0 15.17 15.17h139.66a15.17 15.17 0 0 0 15.17-15.17V152.83z"/><circle cx="337.76" cy="227.83" r="41.26" fill="#606bb3"/><path fill="#f6584b" d="M318.26 229.87c-2.18-4.16-12.67-24.77-7-25.34 4.81-.48 13.21 6 17 9.61zM347.17 214.15c3.82-3.56 12.22-10.09 17-9.61 5.73.57-4.83 21.28-7 25.37z"/><path fill="#f79d2a" d="M317.73 242.61a5 5 0 0 0-2.46 4.46 11 11 0 0 1 6.65-1.39l.08.08 10.45 11.38a6.79 6.79 0 0 0 4.84 2h.95a6.79 6.79 0 0 0 4.84-2l10.45-11.37.08-.09a11 11 0 0 1 6.65 1.39 5 5 0 0 0-2.46-4.46l-1.76.23a9 9 0 0 1 6.81 1.61 12.15 12.15 0 0 0-2.67-7.88c-1.19-1.61-2.53-3.36-2.91-5.29v-.08a19.48 19.48 0 1 0-39 0v.16c-.4 1.9-1.72 3.63-2.9 5.21a12.15 12.15 0 0 0-2.67 7.88 8.88 8.88 0 0 1 6.81-1.61l-1.76-.23"/><path fill="#ffcd00" d="M360.25 247.07a10.69 10.69 0 0 0-7.57-2.73s-8.83 9.58-14.92 9.33v5.5a6.93 6.93 0 0 0 5.31-2c2.12-2.32 10.45-11.37 10.45-11.37a10.17 10.17 0 0 1 6.73 1.27zM315.27 247.07a10.69 10.69 0 0 1 7.57-2.73s8.83 9.58 14.92 9.33v5.5a6.93 6.93 0 0 1-5.31-2C330.33 254.85 322 245.8 322 245.8a10.17 10.17 0 0 0-6.73 1.27z"/><ellipse cx="337.76" cy="252.88" fill="#393d40" rx="3.16" ry="2.15"/><path fill="#f36e51" d="M344 238.82c.31 4.52 2.71 13 1.15 16l3.77-4.09c.12-2.44-4.87-11.38-4.87-11.38l.61 4.19c7.65-4 6.3-9.67 6.3-9.67"/><path fill="#393d40" d="M344.08 239.35c6.26-.82 6.91-5.48 6.91-5.48s-7-.11-7 4.11v1z"/><path fill="#f79d2a" d="M364.82 204.71s-12.48 6.25-13 13l-4.63-3.56s12.02-11.36 17.63-9.44zM310.69 204.71s12.48 6.25 13 13l4.63-3.56s-12.02-11.36-17.63-9.44z"/><path fill="#f36e51" d="M331.47 238.82c-.31 4.52-2.71 13-1.15 16l-3.77-4.09c-.12-2.44 4.87-11.38 4.87-11.38l-.61 4.19c-7.65-4-6.3-9.67-6.3-9.67"/><path fill="#393d40" d="M331.43 239.35c-6.26-.82-6.91-5.48-6.91-5.48s7-.11 7 4.11v1z"/></svg>