<?xml version="1.0" encoding="utf-8"?>
<!-- Generator: Adobe Illustrator 18.0.0, SVG Export Plug-In . SVG Version: 6.00 Build 0)  -->
<!DOCTYPE svg PUBLIC "-//W3C//DTD SVG 1.1//EN" "http://www.w3.org/Graphics/SVG/1.1/DTD/svg11.dtd">
<svg version="1.1" id="Слой_1" xmlns="http://www.w3.org/2000/svg" xmlns:xlink="http://www.w3.org/1999/xlink" x="0px" y="0px"
	 viewBox="176 27 777 850" enable-background="new 176 27 777 850" xml:space="preserve">
<path fill="none" stroke="#000000" stroke-width="2" stroke-linecap="round" stroke-linejoin="round" stroke-miterlimit="10" d="
	M251.7,647.9c0,0,0.6-0.4,1.6-1C252.7,647.4,252.2,647.8,251.7,647.9z M945.1,827c0,0,1.5,23.2-61.2,12.3c0,0-50.3,27-105.3,13.9
	c0,0-66.7,20.4-95.8-4.4c0,0-96.1,15.9-96.1-9.5c0,0-14.1,5.2-32.6,7.2c-0.8,3.5-3.6,5.2-3.6,5.2c0.2-1.8-0.2-3.4-0.8-4.8
	c-3.7,0.3-7.6,0.5-11.6,0.4c2.5,10.7-5.7,12.4-5.7,12.4c1.9-4.1-0.1-8.6-2.2-11.7c-3.1,2.3-6.7-1.8-6.7-1.8c-9.4,6.3-30.8,2-30.8,2
	s0,0-11.4-0.9c-11.4-0.9-6.4-26.5-19-23.2c-12.6,3.3-5.4-23.3-5.4-23.3c-12.6-17.9-21-91-21-91c-3.8,0.2-7.1,6.2-7.1,6.2
	c-2.8-8,2.7-15.6,2.7-15.6c-3.2-3.1-7.9,6.2-7.9,6.2c-0.7-21.1,12.2-20.3,12.2-20.3c13.1,4,15.5-6.3,15.5-6.3
	c3.2-18.1-14-47.3-14.1-47.4l-2.3,14.5c-34.8,69.7-114.7,82-114.7,82c-23,16.4-6.3,72.9-6.3,72.9c6.3,23.6,14.2,15.4,14.2,15.4
	c15.2-5.5,32.2,9.8,32.2,9.8c3.9,1.9,6.1,4.7,7.4,7.4c21.9,17.4,6.3,24.3,6.3,24.3c0.8-4.6-2.5-8.4-6-11.1c-1.7,4.5-3,6.6-4,7.5
	c6.2,14.1-6.4,16.2-6.4,16.2c1.7-3.3,0.8-6.8-1-9.8c-5.2,3.5-10.4-0.7-13.6-4.3c2.1,17.1-11.9,15.3-11.9,15.3c4-3.6,3.1-8.9,1.6-13
	c-4.9,1.2-8-4.5-8-4.5c-14.5,2.9-40.9,0.5-40.9,0.5s0,0-14.4-5.4c-14.4-5.4,1.8-29.9-15.8-31.5c-17.6-1.6,1.8-26.2,1.8-26.2
	c-9.5-23.5,12.6-103,12.6-103c-5-1.2-11.6,3.6-11.6,3.6c-0.6-9.4,9.4-15.2,9.4-15.2c-3-4.4-12.5,3.4-12.5,3.4
	c7.1-22.2,23.5-16.3,23.5-16.3c15.5,9.3,27.5,1,27.5,1c25.4-18.5,13.3-65.9,9.5-78.6c-9.1,31.6-41.5,54.7-49,59.7
	c7.5-6.3,21.5-35,21.5-35l-32.7,31.2c-14.9,16.4-70.8,16.2-70.8,16.2c29.7-0.6,36.2-79.9,36.2-79.9c17.3-54.2,48.1-60.6,48.1-60.6
	c-3.1-5.6-10.2-1.9-10.2-1.9c10-16.3,29-27.6,50.3-35.3c10.7-13.1,22.8-30.1,25.6-42.7l-6,1.6c-110.5-12.8-80.1-103.8-80.1-103.8
	c-3.2-36.9,4-61.8,13.2-84.1l-10.2-1c16.7-10.4,13.6-20.6,13.6-20.6c-8.9,10.4-14.5,5.7-14.5,5.7c14.5-5.7,10-19.9,10-19.9
	c0-43.4,69.9-43.4,69.9-43.4c-6.7-0.9,0-13.2,0-13.2c8.9-33.1,51.3-52.9,51.3-52.9c-10-4.7-20.1,4.7-20.1,4.7
	c1.1-13.2,14.5-15.1,14.5-15.1c27.9-12.3,44.5-39.7,44.5-39.7C461.1,17.7,509,45.1,509,45.1s19.7-6.2,32,16c2.8,1.1,5.1,3,6.2,6
	c0,0,14.5,10.4,24.5-13.2c0,0,9.7,24.3-24.2,25.6c0.2,0.8,0.3,1.6,0.5,2.4c0,0-3.3,16.1,5.6,16.1c0,0,2.2,22.7-13.4,22.7
	c0,0,3.3,17-1.1,23.1l-12.3,7.1c0,0,2.4,5.6,3.3,13c1.9-1.7,4-3.8,5.7-6.4c0,0,4.1,7-5.5,15c-0.4,4-1.4,8.2-3.7,11.9
	c18.6,16.8,36.9,41.8,36.9,41.8l4.5,55.9c18.9,14.2,25.6,54.8,25.6,54.8c21.6,0,33.7,16.2,39.6,27.6c1.4-9.2,3.1-18.2,4.6-25.6
	c-8.6-2.9-14.2-9.1-8.3-22.1c-1.1-8.9,11.9-13.5,11.9-13.5c-2.4-25.8,15-28.6,15-28.6c5.1-5.1,32.8-16.8,32.8-16.8
	c5.1-5.9,1.7-24.4,1.7-24.4c-11.8-8.4-15.2-31.2-15.2-31.2c-6.7-3.4-3.4-13.5-3.4-13.5c-13.5-14.3,15.2-32,15.2-32
	c16-16.8,36.2-5.1,36.2-5.1s26.9,0.8,28.6,22.7c0,0,13.5,23.6-5.1,48c0,0,7.5,9.3-2.6,16c0,0,4.3,8.4,12.2,21c0,0,18.4,19.4,20,35
	c4.6,4.1,8.4,9.2,8.4,15.5l-3.6,6.5c0,0,6.8,0.2,8.4,11.2c0,0,6.7,13.4-4.2,19.7c7.4,13.9,11.4,45.9,9.7,51.7c0,0-2.8,23.4-8.2,29.6
	c23.4,20.1,55.7,49.9,61.3,90.8c0,0,37.6,50.5,61.1,154.4C910,674.1,950.9,744,945.1,827z M652.4,437.4c3.9-3,14.7-11.4,19.1-14.3
	c-4,0-7.8-0.5-11.2-1.5L652.4,437.4z M669.9,340.2L669.9,340.2c-1.2,12.3-3,21.6-4.9,28.6c11.8,6.4,5.3,6.8,4.4,11.1
	c14-1.8,17.6-1.4,17.6-1.4C689.9,376.4,687.1,356.5,669.9,340.2z M647.6,441.6l-13.2-16.8c-55.7,20.2-84.3-8.8-109-29.3
	c-10,11.6-21.2,26.3-25.3,38.8l9.8,36.4l-1.9,4.7c26.2,31.2,40.6,114.6,40.6,114.6c17.4,79.4-66.3,140.5-66.3,140.5
	c-11.8,20.3,18.9,67.5,18.9,67.5c0.6,1.1,1.2,2.1,1.8,3.1c3.9-30.4,12.9-77.4,49.3-135c0,0,1.5-69.2,52.5-130.4
	C604.8,535.7,599.3,486.6,647.6,441.6z M741.9,272.5c0,0-8.6-16.7-7.1-39.3l-3.8,30.2C731,263.4,733.6,270.3,741.9,272.5z
	 M774.4,384.1l-10.2-22.2c-11.3,4.6-14.6,35.7-6.4,43.1c0,0,4,3.2,6.9,5.3C768,405.6,772.1,385.5,774.4,384.1z"/>
</svg>
