<?xml version="1.0" encoding="utf-8"?>
<!-- Generator: Adobe Illustrator 15.0.0, SVG Export Plug-In . SVG Version: 6.00 Build 0)  -->
<!DOCTYPE svg PUBLIC "-//W3C//DTD SVG 1.1//EN" "http://www.w3.org/Graphics/SVG/1.1/DTD/svg11.dtd">
<svg version="1.1" id="Layer_1" xmlns="http://www.w3.org/2000/svg" xmlns:xlink="http://www.w3.org/1999/xlink" x="0px" y="0px"
	 width="7609.497px" height="5072.995px" viewBox="0 -3209.163 7609.497 5072.995"
	 enable-background="new 0 -3209.163 7609.497 5072.995" xml:space="preserve">
<rect y="-3209.163" fill="#00539F" width="7609.497" height="5072.995"/>
<g>
	<path fill-rule="evenodd" clip-rule="evenodd" fill="#FFFFFF" d="M2501.315,647.079l-228.925-209.765
		c0,0,84.613-47.345,37.924-157.067L2242.7,115.731c-7.652-17.92-19.156-38.977-37.794-54.797
		c-17.784-13.731-42.108-23.215-58.918-23.215h-152.746l57.938,141.306h59.436l39.3,94.944
		c16.607,38.977-35.766,44.272-35.766,44.272l-305.502-280.32l-210.943,0.063l203.755,187.465c0,0-68.792,61.14-24.392,165.499
		l69.44,168.704c26.874,63.298,88.867,87.561,126.598,87.561h146.008l-57.737-140.258h-37.924c-14.646,1.042-40.935,0-54.472-31.652
		l-34.326-85.333c-12.161-28.51,19.815-49.562,19.815-49.562l334.983,306.735L2501.315,647.079z M2947.53,645.448l-191.98-466.423
		C2706.9,60.934,2632.813,37.719,2584.164,37.719H2276.77l58.133,141.306l263.449,0.394l190.678,466.03H2947.53z M3676.355,457.387
		L3562.25,179.024c-19.878-47.472-43.022-79.119-68.197-101.223c-36.03-31.583-75.33-40.083-103.12-40.083h-124.302l57.932,141.306
		l81.412,0.394l104.949,256.913c0,0,34.852,70.624-24.588,70.624l-74.219-0.069L3220.005,37.921h-156.671l192.181,468.964
		l-70.229,0.069c-62.383,0-86.378-70.624-86.378-70.624l-106.26-256.913l80.296-0.394l-57.932-141.306h-126.004
		c-29.752,0-59.898,8.5-70.099,41.13c-5.622,22.167-2.286,53.814,17.201,100.175l114.102,278.363
		c23.341,55.909,47.08,107.761,84.087,141.045c26.875,24.263,56.17,48.78,169.689,48.78h383.57
		c33.805,0,80.426-18.962,99.979-62.251C3700.551,554.421,3699.307,512.249,3676.355,457.387z M3937.455,323.142l-65.193-157.716
		c-46.1-112.402-101.155-127.707-168.704-127.707h-149.153l57.935,141.306h97.495c7.912,0,14.124,5.231,19.095,16.873
		l53.292,127.313L3937.455,323.142z M5002.967,647.93l-192.308-468.906c-48.392-118.09-121.429-141.306-170.076-141.306
		l-444.646-0.324l185.313,451.576c3.923,9.548,1.44,17.984-7.522,17.984h-75.195l57.473,140.258h136.861
		c48.652,0,103.577-23.215,55.647-140.258l-134.899-327.93h242.135l191.462,468.906H5002.967z M5555.701,506.954h-53.357
		L5379.283,206.62c-47.148-114.885-149.088-168.901-256.26-168.901h-277.576l57.934,141.306h242.98
		c33.746,0,74.68,29.557,89.782,66.439l107.235,261.491h-305.561l57.477,140.258h517.75L5555.701,506.954z M6045.924,464.777
		l-112.535-268.614c-35.898-87.561-129.142-158.444-225.399-158.444h-274.371l57.935,141.306h218.988
		c38.648,0,75.525,39.036,87.162,67.481l81.739,199.304c13.864,33.746-11.638,61.145-45.384,61.145h-208.063l57.54,140.258h244.623
		C6018.457,647.213,6085.221,560.768,6045.924,464.777z M6573.546,645.448l-190.804-466.423
		c-48.646-118.09-122.736-141.306-171.318-141.306H5905.73l58.848,141.306h260.379l190.873,466.423H6573.546z M1676.434,279.199
		l-61.269-149.737c-21.97-51.661-74.282-91.744-121.819-91.744h-264.042l-31.647-77.742l-161.706,0.127l78.464,191.526
		c5.821,13.667,21.581,27.394,34.461,27.394h334.006l37.533,90.766l-79.708,159.024c-4.841,9.548-10.658,42.895-4.841,56.557
		l49.302,120.647c11.249,26.416,35.118,41.194,62.907,41.194H1725.8l-59.043-140.258h-54.143c-16.807,0-20.924-19.032-20.924-19.032
		l75.654-150.002C1672.771,327.458,1686.369,302.415,1676.434,279.199z"/>
	<path fill-rule="evenodd" clip-rule="evenodd" fill="#FFFFFF" d="M3561.729-297.595
		c-121.299-249.652-293.333-384.817-658.012-384.817h-532.982l-192.377-400.568h725.359c607.533,0,941.02,291.111,1142.476,785.385
		H3561.729z M5083.196-682.412H3968.121c-123.845-177.723-278.948-313.471-474.463-400.568h1397.166L5083.196-682.412z
		 M3436.705-1993.262c121.23,249.656,293.27,384.816,657.943,384.816h532.99l192.371,400.635h-725.361
		c-607.465,0-940.946-291.175-1142.412-785.451H3436.705z M1915.17-1608.447h1115.076
		c123.848,177.723,279.018,313.473,474.466,400.635H2107.609L1915.17-1608.447z"/>
</g>
</svg>
