<?xml version="1.0" encoding="UTF-8"?>
<!DOCTYPE svg PUBLIC "-//W3C//DTD SVG 1.1//EN" "http://www.w3.org/Graphics/SVG/1.1/DTD/svg11.dtd">
<!-- Creator: CorelDRAW X7 -->
<svg xmlns="http://www.w3.org/2000/svg" xml:space="preserve" width="5976px" height="3614px" version="1.1" style="shape-rendering:geometricPrecision; text-rendering:geometricPrecision; image-rendering:optimizeQuality; fill-rule:evenodd; clip-rule:evenodd"
viewBox="0 0 5976 3614"
 xmlns:xlink="http://www.w3.org/1999/xlink">
 <defs>
  <style type="text/css">
   <![CDATA[
    .str0 {stroke:#9FD5DD;stroke-width:11.8103}
    .fil3 {fill:none;fill-rule:nonzero}
    .fil0 {fill:#9FD5DD}
    .fil1 {fill:whitesmoke}
    .fil2 {fill:whitesmoke;fill-rule:nonzero}
   ]]>
  </style>
 </defs>
 <g id="Слой_x0020_1">
  <metadata id="CorelCorpID_0Corel-Layer"/>
  <circle class="fil0 str0" cx="1804" cy="1802" r="1790"/>
  <polygon class="fil1 str0" points="948,3025 948,561 2955,561 2955,1053 1462,1053 1462,1546 2194,1546 2198,2050 1469,2050 1469,3025 "/>
  <path class="fil2" d="M2395 1681c37,-101 136,-152 296,-152 186,0 279,61 279,183l0 219c0,54 4,108 11,163l-151 0c-5,-20 -9,-45 -12,-72 -52,57 -127,85 -226,85 -71,0 -127,-17 -167,-50 -36,-29 -54,-67 -54,-114 0,-98 78,-159 234,-182 58,-9 127,-14 205,-16l0 -31c0,-37 -11,-63 -34,-78 -19,-13 -49,-19 -90,-19 -38,0 -69,9 -93,27 -23,17 -38,40 -44,69l-154 -32zm415 142c-55,1 -110,7 -165,17 -78,14 -117,45 -117,93 0,56 38,84 115,84 70,0 126,-30 167,-91l0 -103z"/>
  <path id="1" class="fil2" d="M3340 1542l0 552 -165 0 0 -552 165 0zm7 -228l0 129 -178 0 0 -129 178 0z"/>
  <path id="2" class="fil2" d="M3928 1530l-11 119c-92,0 -160,46 -204,140l0 305 -162 0 0 -552 154 0 0 136c47,-99 121,-148 223,-148z"/>
  <path id="3" class="fil2" d="M4260 1362l0 180 161 0 0 92 -161 0 0 303c0,53 29,80 88,80 32,0 60,-2 84,-6l-6 90c-37,4 -79,6 -129,6 -72,0 -125,-13 -157,-40 -28,-24 -42,-60 -42,-107l0 -326 -108 0 0 -92 108 0 0 -151 162 -29z"/>
  <path id="4" class="fil2" d="M4842 1530c105,0 187,29 246,87 53,51 79,118 79,201 0,95 -34,169 -101,222 -58,45 -133,68 -225,68 -105,0 -187,-29 -246,-87 -52,-51 -78,-118 -78,-200 0,-95 34,-169 101,-223 59,-45 133,-68 224,-68zm0 91c-104,0 -156,66 -156,198 0,132 51,198 155,198 105,0 157,-66 157,-198 0,-132 -52,-198 -156,-198z"/>
  <path id="5" class="fil2" d="M5494 1542l0 82c50,-63 117,-94 201,-94 87,0 156,27 205,81 45,50 68,118 68,204 0,97 -31,173 -93,227 -51,43 -113,65 -188,65 -82,0 -145,-30 -188,-90l0 271 -164 0 0 -746 159 0zm5 180l0 195c35,62 83,92 145,92 49,0 88,-17 116,-52 26,-33 40,-80 40,-139 0,-68 -16,-118 -48,-151 -25,-25 -58,-38 -99,-38 -67,0 -119,31 -154,93z"/>
  <path id="6" class="fil3 str0" d="M2395 1681c37,-101 136,-152 296,-152 186,0 279,61 279,183l0 219c0,54 4,108 11,163l-151 0c-5,-20 -9,-45 -12,-72 -52,57 -127,85 -226,85 -71,0 -127,-17 -167,-50 -36,-29 -54,-67 -54,-114 0,-98 78,-159 234,-182 58,-9 127,-14 205,-16l0 -31c0,-37 -11,-63 -34,-78 -19,-13 -49,-19 -90,-19 -38,0 -69,9 -93,27 -23,17 -38,40 -44,69l-154 -32zm415 142c-55,1 -110,7 -165,17 -78,14 -117,45 -117,93 0,56 38,84 115,84 70,0 126,-30 167,-91l0 -103z"/>
  <path id="7" class="fil3 str0" d="M3340 1542l0 552 -165 0 0 -552 165 0zm7 -228l0 129 -178 0 0 -129 178 0z"/>
  <path id="8" class="fil3 str0" d="M3928 1530l-11 119c-92,0 -160,46 -204,140l0 305 -162 0 0 -552 154 0 0 136c47,-99 121,-148 223,-148z"/>
  <path id="9" class="fil3 str0" d="M4260 1362l0 180 161 0 0 92 -161 0 0 303c0,53 29,80 88,80 32,0 60,-2 84,-6l-6 90c-37,4 -79,6 -129,6 -72,0 -125,-13 -157,-40 -28,-24 -42,-60 -42,-107l0 -326 -108 0 0 -92 108 0 0 -151 162 -29z"/>
  <path id="10" class="fil3 str0" d="M4842 1530c105,0 187,29 246,87 53,51 79,118 79,201 0,95 -34,169 -101,222 -58,45 -133,68 -225,68 -105,0 -187,-29 -246,-87 -52,-51 -78,-118 -78,-200 0,-95 34,-169 101,-223 59,-45 133,-68 224,-68zm0 91c-104,0 -156,66 -156,198 0,132 51,198 155,198 105,0 157,-66 157,-198 0,-132 -52,-198 -156,-198z"/>
  <path id="11" class="fil3 str0" d="M5494 1542l0 82c50,-63 117,-94 201,-94 87,0 156,27 205,81 45,50 68,118 68,204 0,97 -31,173 -93,227 -51,43 -113,65 -188,65 -82,0 -145,-30 -188,-90l0 271 -164 0 0 -746 159 0zm5 180l0 195c35,62 83,92 145,92 49,0 88,-17 116,-52 26,-33 40,-80 40,-139 0,-68 -16,-118 -48,-151 -25,-25 -58,-38 -99,-38 -67,0 -119,31 -154,93z"/>
 </g>
</svg>
