<?xml version="1.0" encoding="utf-8"?>
<!-- Generator: Adobe Illustrator 18.0.0, SVG Export Plug-In . SVG Version: 6.00 Build 0)  -->
<!DOCTYPE svg PUBLIC "-//W3C//DTD SVG 1.1//EN" "http://www.w3.org/Graphics/SVG/1.1/DTD/svg11.dtd">
<svg version="1.1" id="Layer_1" xmlns="http://www.w3.org/2000/svg" xmlns:xlink="http://www.w3.org/1999/xlink" x="0px" y="0px"
	 viewBox="0 0 111.6 104.4" enable-background="new 0 0 111.6 104.4" xml:space="preserve">
<path fill="#F95870" d="M2.8,57.5L2.8,57.5c0.7-1.1,1.5-2.2,2.5-3c0.3-0.9-0.3-1.3-0.9-1.6c-0.8-0.4-1.7-0.6-2.3-1.4
	c-0.5-0.7-0.6-1.3,0.5-1.3c2.2,0,4.4-0.8,6.5,0.3c0,0,0.1-0.1,0.1-0.1c0.4-0.2,0.8,0,1.2,0.1c0.9,0.3,1.8,0.2,2.7,0.2
	c0.5,0,0.9-0.1,1.4-0.1c0.5,0,1,0.1,1.4,0.1H16c0.3,0,0.5-0.1,0.8-0.2c0.1,0,0.6-0.4,0.7-0.5c1-0.6,2-2,3-2.3
	c2.5-0.8,3.3-2.4,3.9-4.9c0.1-0.1,0.1-0.3,0.2-0.4c0-0.6,0-1.3,0.2-1.9c-0.1-0.2-0.1-0.4-0.2-0.6c-0.7-1.3-0.7-2.8-1.4-4.1
	c-0.3-0.5-0.5-1.1-0.6-1.7c0,0.2,0-0.8,0-0.7c0-0.3,0.1-0.6,0.2-0.8c0.2-0.5,0.1-1,0.1-1.5c0-2.1-1.4-3.7-1.8-5.7
	c0-0.1,0.1-0.2,0.2-0.3h0c-0.1,0.1-0.1,0.1-0.2,0.2c-0.9,0-0.4-0.8-0.8-1.5c-0.3-0.4-1.4-0.5-0.5-1.1c0.1,0-0.6-0.6-0.5-0.7
	c0-0.1,0-0.2,0.1-0.3c-0.5-0.7-1.2-1.3-1.4-2c-0.7-2.4-2.5-3.8-4-5.5c-1.2-1.3-2.9-2.1-3.9-3.6c-0.7-0.6-1.3-1.2-2-1.8
	C7.5,8.3,8,7.5,8,6.7C6,5.3,6.2,4.3,7.5,4c1.3-0.4,2.6-0.9,3.9-1.2c3.8-0.9,7.7,0,11.5-0.2c1-0.1,2.3,0.2,3.4,0.2
	c2.1,0,4.3,0.1,6.2,1.1c1,0.5,1.7,1.6,3,1.3c1.6-1.6,2.9-3.7,5.4-4.2c-0.4,0,0.9-0.9,2.5-1L45,0.4c3.2,2.3,3.5,4.2,1.4,7.6
	c0,0.4-0.4,1.1,0.7,0.7C48,8.3,48.9,8,49.6,7.3c0.5-0.6,1.1-0.9,1.9-0.8c0.7-1.7,2.5-2.7,4.1-2.9c1.3-0.2,3.4-0.4,4.8,0.7
	c0.9,0.7,1.8,2.2,2.1,3.3c0.4,1.3,0.5,5.5-0.3,6.8c-2.1,3.7-2.5,4.8-8.3,7.8c-0.6,0.3-1.1,0.5-1.7,0.8c-0.2,0.1-0.4,0.3-0.5,0.3
	c-1.3,0.4-1.9,1-0.5,2.1c0.8,0.6,1.2,1.5,1,2.5c0.5,1.7,1.8,3,3.1,4c1.9,1.5,4.1,4.9,4.4,5.7c0,0.1,0,0.2,0,0.2
	c-0.5,0.1-0.3,0.5-0.4,0.8c0,0.5,0.1,0.9,0.4,1.2c0.9,1.1,1.3,2.5,1.8,3.7c0.6,1.6,0.7,3.7,2.7,4.6c1.3,0.6,2.6,1.2,4,1.8
	c1.4,0.6,2.6,1.2,2.4,3c0.3,0.3,0.5,0.7,0.8,1c1.3,1.2,2.6,2.5,3.8,3.7c0.3,0.3,0.8,0.8,0,0.9c-1.4,0.2-0.4,0.9-0.5,1.4
	c0.2-0.3,0.1,0,0.3-0.3c0.2,0.5,0.4,0.5-0.1,0.7c0.2,0.9,1.2,1.2,1.3,2.1c-1.2,0-1.3,0.3-0.8,1.2c0.3,0.5,0.4,0.9,0.4,1.3
	c0,0.9,2.2,0.6,0.4,1.7c-0.3,0.2-0.5,0.2-0.3,0.3c1,0.6,0.6,1.9,0.3,2.2c-0.3,0.4-0.2,0.5-0.8-0.2c-0.3,0.7,0.6,0.6,0.5,1.1
	c1.1,0.6,1.2,1.7,1.4,2.8c-1.1-0.5-1.1-0.7-1,1c0.1,1.9,0.7,3.7,0.3,5.6c-0.2,0.9-0.5,2.4-0.9,2.2c-1.3-0.4-1.1,0.5-1.3,1.1
	c-0.6,2-1.2,3.9-2.5,5.6c0,0,0.2,0.5,0.6,0.6c3.9-0.1,7.6,0.7,11.2,2.1c0.6-0.1,1.1,0.2,1.7,0.2c3,0.3,6,0.9,9,0
	c0.9-0.3,1.6-0.8,1.8-1.6c0.2-0.8-0.3-1.4-1-1.9c-2.1-1.4-4.2-2.9-6.4-4.2c-1.4-0.9-2.4-1.8-2.3-3.6c-0.1,0,0.6-4.1,8.6-3.8
	c1.3,0,2.6,0.1,3.8,0.4c3.2,0.6,6.2,0.7,9.5,1.4l3.2,0.7C111,79,108,79,107,78.8c-0.4-0.1-1.3-0.3-1.9-0.2
	c-3.9,0.1-7.7-0.9-11.6-0.8c-1.5,0-2.7,0.4-3.9,1c-1.4,0.7-1.5,1.8-0.3,2.7c1.5,1.2,3,2.4,4.8,3.2c2.3,1,3.3,1.9,4.6,3.2
	c1.5,1.5,1.2,3.3-0.3,4.8c-1.4,1.4-3,2.1-4.9,2.1c0,0.1-3.4,0.7-5.1,0.3c-0.7-0.1-1.4-0.3-2.1-0.5c-2.5-0.6-5.1-0.5-7.6-1.3
	c-0.3,0.1-0.7,0.1-1.2,0.2c-2,0-3.9,0-5.9,0c-2.9,0-5,2.3-7.9,2.4c-0.5,0.2-1.2,0.3-1.4,1.1c-0.4,1.2-0.7,2.4-2,3
	c-0.1,0-0.1,0-0.1,0c-0.7,1.9-2.6,3.3-3.6,4c-1,0.7-3.2,0.1-3.8-0.7c-1.4-2.2-0.6-4.4,0.2-6.4c0.7-1.8,1.2-1.9-0.8-2.5
	c-0.2-0.1-0.7-0.1-0.9-0.1c0.2,0-0.4,0.1-0.3,0.1c-1.7,0-4.3-0.2-4.3-0.3c-0.1,0-0.2,0-0.4-0.1c-0.6-0.2-1.2-0.1-1.8-0.3
	c-4.2-1.5-8.4-2.3-12.7,0c-0.2,0.1-1.9,0.4-2.6,0.6c-0.4,0.1-0.8,0.3-1.2,0.4c-0.8-0.1-1.6,0.3-2.4-0.3c-0.1,0-0.2,0-0.3,0
	c-1.2,0.4-2.5,0.7-3.8,0.6c-0.5,0-1.2-0.1-1.3-0.9c-0.1-0.6,0.3-0.9,0.8-1.1c0.7-0.5,1.3-1.1,1.9-1.6c1.8-1.1,3.3-2.7,5.6-2.8
	c0.7-0.3,1.5-0.2,2.2-0.3c1.2-0.5,2.4-0.7,3.7-0.7c1.1,0,1.4-0.7,0.9-1.8c-0.5-1.1-1.8-1.6-1.9-2.9c-0.2,0.3-0.4,0-0.6,0.3
	c-0.2-0.6,0.1-0.5,0.3-1c-0.2-0.7-1-0.8-1.4-1.3c-0.9-0.2-0.4-1.5-1.4-1.7c-0.1-1,0.1-3.1-0.7-3c-0.4,0-0.3-0.8-0.2-1.1
	c0.3-1.6,0.1-1.5,0-3.2c-0.1-0.8-0.2-1.6-0.4-2.5c-0.5-0.5-0.5-1.2-0.2-1.7c0.3-0.5,0.2-0.7-0.1-1.1c-0.7-0.8,0.1-1.9-0.7-2.7
	l-0.3-0.1c-0.8-1.4-1.2-2.8-1.4-4.3c0-0.3,0.1-0.7-0.2-0.9c-1.5-0.9-3-1.3-4.9-1.4c-1.4-0.1-3.1-0.4-4.7-0.8c-0.2,0-0.3-0.3-0.3-0.5
	c0-0.9-0.3-0.3-0.7-0.2c-0.3,0.1-0.8,0.7-1,0.4c-0.5-1.1-1.1-0.3-1.6-0.1c-1.4,0.4-2.3,1.4-3.5,2.2c-1.4,1-2.3,3-4.4,2.8
	c-1.8-0.2-3.5,0.1-5.2,0l0-0.3C0.5,59.2,1.6,58.3,2.8,57.5"/>
</svg>
