<?xml version="1.0"?>
<svg xmlns="http://www.w3.org/2000/svg" xmlns:xlink="http://www.w3.org/1999/xlink" version="1.1" x="0px" y="0px" viewBox="0 0 141.73 141.73" enable-background="new 0 0 141.73 141.73" xml:space="preserve" width="4512" height="4512"><g><path fill="#4d4d4d" d="M399.127,229.173c0.738-3.242,0.14-6.416-1.689-8.819c-1.818-2.391-4.696-3.762-7.894-3.762   c-1.508,0-3.049,0.309-4.515,0.897c-1.658-1.521-3.827-2.374-6.104-2.374c-4.793,0-8.728,3.744-9.031,8.461   c-4.287,0.709-7.567,4.442-7.567,8.928c0,4.447,3.257,8.205,7.563,8.92c1.578,2.879,4.602,4.695,7.933,4.695   c2.345,0,4.576-0.906,6.254-2.514c0.428,0.075,0.86,0.113,1.295,0.113c2.455,0,4.715-1.206,6.09-3.167   c0.694,0.22,1.42,0.333,2.149,0.333c3.947,0,7.159-3.211,7.159-7.158C400.77,232.064,400.18,230.449,399.127,229.173z    M393.611,237.885c-0.715,0-1.424-0.188-2.051-0.545l-1.452-0.824l-0.665,1.531c-0.705,1.623-2.303,2.672-4.071,2.672   c-0.452,0-0.902-0.069-1.338-0.206l-0.951-0.299l-0.644,0.76c-1.155,1.363-2.838,2.146-4.616,2.146   c-2.428,0-4.611-1.443-5.564-3.679l-0.362-0.848l-0.92-0.061c-3.168-0.207-5.649-2.855-5.649-6.028   c0-3.335,2.714-6.049,5.967-6.052l1.798,0.005l-0.182-1.662c-0.022-0.207-0.034-0.417-0.034-0.631c0-3.335,2.714-6.049,6.05-6.049   c1.779,0,3.46,0.781,4.612,2.145l0.765,0.904l1.058-0.534c1.343-0.679,2.789-1.038,4.184-1.038c2.253,0,4.26,0.94,5.506,2.578   c1.401,1.842,1.758,4.39,0.979,6.992l-0.267,0.892l0.681,0.635c0.855,0.799,1.327,1.877,1.327,3.038   C397.77,236.019,395.904,237.885,393.611,237.885z"/><path fill="#4d4d4d" d="M381.962,222.769c-0.68,0-1.807,0.551-1.807,1.229l0.578,8.65c0,0.678,0.549,1.229,1.229,1.229   c0.678,0,1.229-0.551,1.229-1.229l0.578-8.65C383.768,223.32,382.639,222.769,381.962,222.769z"/><circle fill="#4d4d4d" cx="381.962" cy="236.766" r="1.378"/></g><g><path fill="#4d4d4d" d="M121.711,68.543c2.031-8.919,0.385-17.652-4.646-24.269c-5.005-6.573-12.922-10.342-21.72-10.342   c-4.145,0-8.384,0.846-12.416,2.466c-4.563-4.183-10.527-6.53-16.787-6.53c-13.185,0-24.01,10.302-24.843,23.28   c-11.793,1.95-20.816,12.22-20.816,24.558c0,12.231,8.956,22.565,20.806,24.532c4.338,7.922,12.658,12.921,21.821,12.921   c6.45,0,12.591-2.493,17.206-6.917c1.171,0.204,2.361,0.309,3.559,0.309c6.754,0,12.97-3.317,16.753-8.712   c1.909,0.604,3.905,0.916,5.912,0.916c10.858,0,19.693-8.833,19.693-19.69C126.232,76.495,124.61,72.052,121.711,68.543z    M106.539,92.503c-1.967,0-3.917-0.519-5.642-1.499l-3.994-2.268l-1.829,4.212c-1.939,4.465-6.335,7.351-11.2,7.351   c-1.254,0-2.495-0.188-3.68-0.562l-2.616-0.822l-1.771,2.09c-3.178,3.75-7.807,5.901-12.698,5.901   c-6.679,0-12.685-3.973-15.307-10.121l-0.994-2.335l-2.533-0.167c-8.715-0.569-15.541-7.852-15.541-16.577   c0-9.173,7.465-16.639,16.414-16.647l4.945,0.014l-0.5-4.572c-0.062-0.57-0.094-1.15-0.094-1.741   c0-9.174,7.465-16.639,16.642-16.639c4.889,0,9.515,2.152,12.69,5.899l2.104,2.488l2.906-1.469   c3.691-1.867,7.67-2.853,11.503-2.853c6.2,0,11.724,2.584,15.151,7.089c3.854,5.066,4.838,12.078,2.694,19.239l-0.733,2.453   l1.872,1.747c2.354,2.197,3.651,5.163,3.651,8.352C117.98,87.372,112.846,92.503,106.539,92.503z"/><path fill="#4d4d4d" d="M75.054,81.827c-1.305,0-2.52,0.247-3.637,0.736c-1.12,0.488-2.106,1.145-2.96,1.972l6.597,6.71l6.596-6.71   c-0.871-0.827-1.864-1.483-2.982-1.972C77.548,82.074,76.344,81.827,75.054,81.827z"/><path fill="#4d4d4d" d="M86.896,62.878c-1.818-0.763-3.723-1.349-5.711-1.762c-1.99-0.409-4.032-0.618-6.131-0.618   c-2.098,0-4.139,0.209-6.119,0.618c-1.982,0.414-3.882,0.999-5.7,1.762c-1.818,0.763-3.543,1.687-5.177,2.772   c-1.63,1.091-3.146,2.316-4.545,3.686l3.707,3.776c1.149-1.122,2.401-2.133,3.753-3.03c1.351-0.903,2.777-1.671,4.279-2.299   c1.499-0.629,3.073-1.112,4.72-1.456s3.342-0.516,5.082-0.516c1.726,0,3.409,0.172,5.059,0.516c1.646,0.344,3.224,0.827,4.73,1.456   c1.508,0.628,2.939,1.396,4.291,2.31c1.351,0.908,2.603,1.929,3.752,3.062l3.707-3.776c-1.383-1.365-2.89-2.601-4.523-3.708   C90.439,64.57,88.715,63.64,86.896,62.878z"/><path fill="#4d4d4d" d="M75.054,71.173c-2.767,0-5.348,0.516-7.739,1.542c-2.394,1.026-4.5,2.434-6.318,4.218l3.683,3.756   c1.351-1.306,2.909-2.343,4.674-3.101c1.762-0.763,3.665-1.145,5.7-1.145c2.034,0,3.936,0.387,5.698,1.155   c1.765,0.769,3.323,1.816,4.674,3.133l3.708-3.771c-1.835-1.806-3.949-3.219-6.34-4.245C80.401,71.689,77.819,71.173,75.054,71.173   z"/></g></svg>
