<svg xmlns="http://www.w3.org/2000/svg" xmlns:xlink="http://www.w3.org/1999/xlink" preserveAspectRatio="xMidYMid" width="340" height="443" viewBox="0 0 340 443">
  <defs>
    <style>

      .cls-3 {
        stroke: #cccccc;
        stroke-width: 3px;
        fill: none;
        opacity: 0.2;
      }

      .cls-4 {
        fill: #6e7d8d;
        opacity: 0.15;
      }

      .cls-5 {
        fill: #ffffff;
        opacity: 0.1;
      }
    </style>
  </defs>
  <g id="group-1svg">
    <path d="M96.500,118.500 C96.500,118.500 246.500,118.500 246.500,118.500 C263.069,118.500 276.500,131.931 276.500,148.500 C276.500,148.500 276.500,298.500 276.500,298.500 C276.500,315.069 263.069,328.500 246.500,328.500 C246.500,328.500 96.500,328.500 96.500,328.500 C79.931,328.500 66.500,315.069 66.500,298.500 C66.500,298.500 66.500,148.500 66.500,148.500 C66.500,131.931 79.931,118.500 96.500,118.500 Z" id="path-1" class="cls-3" fill-rule="evenodd"/>
    <path d="M193.508,188.590 C193.508,188.590 193.508,197.679 193.508,197.679 C193.508,209.984 182.627,217.776 175.670,221.500 C182.627,225.224 193.508,233.016 193.508,245.321 C193.508,245.321 193.508,254.410 193.508,254.410 C195.614,255.643 197.000,257.743 197.000,260.126 C197.000,263.922 193.483,267.000 189.144,267.000 C189.144,267.000 150.856,267.000 150.856,267.000 C146.517,267.000 142.999,263.922 142.999,260.126 C142.999,257.743 144.386,255.643 146.491,254.410 C146.491,254.410 146.491,245.321 146.491,245.321 C146.491,233.016 157.373,225.224 164.329,221.500 C157.373,217.776 146.491,209.984 146.491,197.679 C146.491,197.679 146.491,188.590 146.491,188.590 C144.386,187.357 142.999,185.257 142.999,182.874 C142.999,179.078 146.517,176.000 150.856,176.000 C150.856,176.000 189.144,176.000 189.144,176.000 C193.482,176.000 197.000,179.078 197.000,182.874 C197.000,185.257 195.614,187.357 193.508,188.590 ZM155.254,245.321 C155.254,245.321 155.254,252.651 155.254,252.651 C155.254,253.857 156.235,254.834 157.445,254.834 C157.445,254.834 182.554,254.834 182.554,254.834 C183.764,254.834 184.745,253.857 184.745,252.651 C184.745,252.651 184.745,252.651 184.745,252.651 C184.745,252.651 184.745,245.321 184.745,245.321 C184.745,237.151 175.497,231.318 171.522,229.189 C171.522,229.189 171.037,228.930 171.037,228.930 C170.389,228.583 169.610,228.583 168.962,228.930 C168.962,228.930 168.478,229.189 168.478,229.189 C164.502,231.318 155.254,237.151 155.254,245.321 ZM184.745,190.349 C184.745,189.143 183.764,188.166 182.554,188.166 C182.554,188.166 157.445,188.166 157.445,188.166 C156.235,188.166 155.254,189.143 155.254,190.349 C155.254,190.349 155.254,197.679 155.254,197.679 C155.254,205.849 164.502,211.682 168.477,213.810 C168.477,213.810 168.963,214.070 168.963,214.070 C169.286,214.243 169.643,214.330 170.000,214.330 C170.356,214.330 170.713,214.243 171.037,214.070 C171.037,214.070 171.522,213.810 171.522,213.810 C175.498,211.682 184.745,205.849 184.745,197.679 C184.745,197.679 184.745,190.349 184.745,190.349 ZM170.000,210.899 C165.582,208.153 162.922,205.116 162.922,202.711 C162.922,202.711 162.922,200.836 162.922,200.836 C162.922,200.836 177.078,200.836 177.078,200.836 C177.078,200.836 177.078,202.711 177.078,202.711 C177.078,205.116 174.418,208.153 170.000,210.899 ZM180.145,247.792 C180.145,247.792 180.145,250.479 180.145,250.479 C180.145,250.479 159.855,250.479 159.855,250.479 C159.855,250.479 159.855,247.792 159.855,247.792 C159.855,244.344 163.667,239.991 170.000,236.055 C176.332,239.991 180.145,244.344 180.145,247.792 Z" id="path-2" class="cls-4" fill-rule="evenodd"/>
    <path d="M339.000,443.000 C339.000,443.000 1.000,443.000 1.000,443.000 C1.000,443.000 -0.000,443.000 -0.000,443.000 C-0.000,443.000 -0.000,442.000 -0.000,442.000 C-0.000,442.000 -0.000,1.000 -0.000,1.000 C-0.000,1.000 -0.000,-0.000 -0.000,-0.000 C-0.000,-0.000 1.000,-0.000 1.000,-0.000 C1.000,-0.000 339.000,-0.000 339.000,-0.000 C339.000,-0.000 340.000,-0.000 340.000,-0.000 C340.000,-0.000 340.000,1.000 340.000,1.000 C340.000,1.000 340.000,442.000 340.000,442.000 C340.000,442.000 340.000,443.000 340.000,443.000 C340.000,443.000 339.000,443.000 339.000,443.000 ZM339.000,1.000 C339.000,1.000 1.000,1.000 1.000,1.000 C1.000,1.000 1.000,442.000 1.000,442.000 C1.000,442.000 339.000,442.000 339.000,442.000 C339.000,442.000 339.000,1.000 339.000,1.000 Z" id="path-3" class="cls-5" fill-rule="evenodd"/>
  </g>
</svg>
