<?xml version="1.0" encoding="utf-8"?>
<!-- Generator: Adobe Illustrator 19.0.0, SVG Export Plug-In . SVG Version: 6.00 Build 0)  -->
<svg version="1.1" id="Layer_1" xmlns="http://www.w3.org/2000/svg" xmlns:xlink="http://www.w3.org/1999/xlink" x="0px" y="0px"
	 viewBox="0 0 300 300" style="enable-background:new 0 0 300 300;" xml:space="preserve">
<style type="text/css">
	.st0{fill:#FFFFFF;}
	.st1{fill:#FFAB00;}
	.st2{fill:#78909C;}
	.st3{fill:#43525B;}
</style>
<circle id="XMLID_21_" class="st0" cx="150" cy="150" r="145"/>
<g id="atom-atom">
	<g id="atom-fill">
		<path class="st1" d="M158.3,149c0,7.5-6.1,13.5-13.5,13.5c-7.5,0-13.5-6.1-13.5-13.5c0-7.5,6-13.5,13.5-13.5
			C152.2,135.5,158.3,141.5,158.3,149z"/>
		<path class="st2" d="M80.6,128.7c0,5.6-4.5,10.1-10.1,10.1c-5.6,0-10.1-4.5-10.1-10.1c0-5.6,4.5-10.1,10.1-10.1
			C76,118.6,80.6,123.1,80.6,128.7z"/>
		<path class="st2" d="M175.1,223.3c0,5.6-4.5,10.1-10.1,10.1c-5.6,0-10.1-4.5-10.1-10.1c0-5.6,4.5-10.1,10.1-10.1
			C170.6,213.2,175.1,217.7,175.1,223.3z"/>
		<path class="st2" d="M208.9,95c0,5.6-4.5,10.1-10.1,10.1c-5.6,0-10.1-4.5-10.1-10.1c0-5.6,4.5-10.1,10.1-10.1
			C204.4,84.8,208.9,89.4,208.9,95z"/>
	</g>
	<path class="st3" d="M204.1,149c22.1-18.9,35.9-38.5,28.7-50.9c-3.3-5.8-10.5-8.6-21.2-8.5c-2.1-5-7.1-8.6-12.9-8.6
		c-7.4,0-13.4,5.8-13.8,13.2c-3.4,1-6.9,2.1-10.5,3.4C169.1,69,159,47.3,144.8,47.3c-14.3,0-24.3,21.7-29.7,50.3
		c-27.5-9.7-51.3-11.8-58.4,0.5c-3.3,5.7-2.3,13.1,2.9,22c-1.9,2.4-3,5.3-3,8.6c0,7.7,6.2,13.9,13.9,13.9c2.3,0,4.4-0.6,6.3-1.6
		c2.7,2.6,5.6,5.3,8.6,7.9c-5.2,4.5-10,9-14.1,13.4c-14.6,15.8-19.6,28.7-14.6,37.4c3.3,5.7,10.2,8.5,20.5,8.5
		c5.5,0,11.9-0.8,19.2-2.5c5.9-1.3,12.2-3.2,18.7-5.5c5.4,28.6,15.4,50.3,29.7,50.3c4.7,0,11.3-2.5,17.8-13.8
		c0.8,0.1,1.6,0.3,2.5,0.3c7.7,0,13.9-6.2,13.9-13.9c0-5.1-2.8-9.5-6.9-11.9c0.9-3.5,1.7-7.2,2.4-11c14.2,5,27.5,8,37.9,8
		c9.7,0,17.1-2.6,20.5-8.6C240,187.5,226.2,167.9,204.1,149z M198.8,88.6c3.5,0,6.4,2.9,6.4,6.4s-2.9,6.4-6.4,6.4
		c-3.5,0-6.4-2.8-6.4-6.4S195.3,88.6,198.8,88.6z M186.6,101.6c2.4,4.3,6.9,7.3,12.2,7.3c6.9,0,12.6-5.1,13.7-11.7
		c7.2,0,12.1,1.7,13.8,4.7c4.2,7.3-6.3,23.8-28.1,42.2c-6.2-5-12.9-9.9-19.9-14.5c-0.5-8.4-1.4-16.6-2.6-24.5
		C179.5,103.8,183.1,102.6,186.6,101.6z M158.1,172c-4.4,2.6-8.9,5-13.3,7.2c-4.4-2.2-8.8-4.6-13.3-7.2c-4.4-2.6-8.7-5.2-12.9-7.9
		c-0.2-4.9-0.4-9.9-0.4-15.1c0-5.2,0.1-10.2,0.4-15.1c4.2-2.7,8.5-5.4,12.9-7.9c4.4-2.6,8.9-5,13.3-7.2c4.4,2.2,8.8,4.6,13.3,7.2
		c4.5,2.6,8.8,5.3,13,7.9c0.2,4.9,0.4,9.9,0.4,15.1c0,5.1-0.1,10.2-0.4,15.1C166.8,166.8,162.6,169.4,158.1,172z M170.4,173.5
		c-0.5,5.7-1.1,11.3-1.9,16.7c-4.9-2-10.1-4.2-15.4-6.7c2.9-1.6,5.8-3.2,8.7-4.8C164.7,176.9,167.6,175.2,170.4,173.5z M136.4,183.4
		c-5.2,2.5-10.4,4.7-15.4,6.7c-0.8-5.3-1.4-10.8-1.9-16.7c2.8,1.7,5.7,3.5,8.6,5.1C130.5,180.3,133.4,181.9,136.4,183.4z M110.7,159
		c-4.7-3.3-9.3-6.6-13.5-10c4.2-3.4,8.8-6.7,13.5-10c-0.1,3.3-0.2,6.6-0.2,9.9C110.6,152.3,110.6,155.6,110.7,159z M119.1,124.5
		c0.5-5.9,1.1-11.4,1.9-16.7c4.9,2,10.1,4.2,15.4,6.8c-2.9,1.6-5.8,3.2-8.7,4.8C124.8,121.1,121.9,122.8,119.1,124.5z M153.1,114.6
		c5.2-2.5,10.4-4.7,15.4-6.7c0.8,5.3,1.4,10.8,1.9,16.7c-2.8-1.8-5.7-3.5-8.6-5.1C159,117.7,156.1,116.1,153.1,114.6z M178.8,139
		c4.8,3.3,9.4,6.7,13.5,10c-4.2,3.3-8.7,6.6-13.5,10c0.1-3.3,0.2-6.6,0.2-10C178.9,145.7,178.9,142.4,178.8,139z M144.8,54.8
		c8.4,0,17.5,17.3,22.6,45.4c-7.3,2.9-14.9,6.2-22.6,10c-7.5-3.7-15.1-7.1-22.6-10C127.3,72.2,136.3,54.8,144.8,54.8z M64.1,128.7
		c0-3.5,2.9-6.4,6.4-6.4c3.5,0,6.4,2.9,6.4,6.4c0,3.5-2.9,6.4-6.4,6.4C66.9,135.1,64.1,132.2,64.1,128.7z M82.3,136
		c1.3-2.1,2.1-4.6,2.1-7.2c0-7.7-6.2-13.9-13.9-13.9c-1.7,0-3.3,0.3-4.7,0.9c-3.3-6-4.2-10.8-2.5-13.8c4.2-7.3,23.8-6.4,50.6,3.2
		c-1.2,7.9-2.1,16.1-2.6,24.5c-7.1,4.7-13.8,9.6-19.9,14.5C88,141.4,85.1,138.7,82.3,136z M94.7,198.6c-16.6,3.8-28.4,2.8-31.5-2.5
		c-3.1-5.3,2-16,13.6-28.5c4.2-4.5,9.1-9.1,14.5-13.7c6.1,4.9,12.8,9.8,19.9,14.5c0.5,8.4,1.4,16.6,2.6,24.5
		C107.1,195.2,100.7,197.2,94.7,198.6z M165,229.7c-3.5,0-6.4-2.9-6.4-6.4c0-3.5,2.9-6.4,6.4-6.4c3.5,0,6.3,2.9,6.3,6.4
		C171.4,226.8,168.5,229.7,165,229.7z M164.8,209.4c-7.5,0.1-13.6,6.3-13.6,13.9c0,4.1,1.8,7.7,4.6,10.3c-3.6,6.2-7.4,9.6-11,9.6
		c-8.4,0-17.5-17.3-22.6-45.4c7.3-2.9,14.9-6.2,22.6-10c7.5,3.7,15.1,7.1,22.5,10C166.5,201.8,165.7,205.7,164.8,209.4z
		 M226.3,196.1c-4.2,7.3-23.8,6.4-50.6-3.2c1.2-7.8,2.1-16,2.6-24.5c7-4.7,13.7-9.5,19.9-14.5C220,172.3,230.5,188.8,226.3,196.1z"
		/>
</g>
</svg>
