<?xml version="1.0" encoding="utf-8"?>
<!-- Generator: Adobe Illustrator 19.2.1, SVG Export Plug-In . SVG Version: 6.00 Build 0)  -->
<svg version="1.1" id="Layer_1" xmlns="http://www.w3.org/2000/svg" xmlns:xlink="http://www.w3.org/1999/xlink" x="0px" y="0px"
	 viewBox="0 0 170 85" style="enable-background:new 0 0 170 85;" xml:space="preserve">
<style type="text/css">
	.st0{fill:#FFFFFF;}
	.st1{fill:#1AB107;}
	.st2{fill:#0054A4;}
	.st3{clip-path:url(#SVGID_2_);}
	.st4{clip-path:url(#SVGID_4_);}
	.st5{fill:#EF4135;}
</style>
<polygon class="st0" points="37.2,62.3 37.2,62.3 37.1,62.3 "/>
<path class="st1" d="M17,65.2h-6.3v1.1h5v1c0,1.4-0.8,1.8-2.1,1.8H8.4c-1.3,0-2.3-0.4-2.3-2.1v-3.6c0-1.7,1-2.1,2.3-2.1h3.4
	c3.3,0,3.8,0.1,3.8,1.9h1.2v-0.3c0-2.2-1.9-2.7-3.6-2.7h-5c-2.7,0-3.5,1.2-3.5,3.6v2.7c0,2.4,0.9,3.6,3.5,3.6h5.4
	c2.4,0,3.3-1,3.3-3.6V65.2L17,65.2L17,65.2z M20.3,70h1.3v-3.9h6.4c1.2,0,1.9,0.2,1.9,1.7V70h1.2v-2.5c0-0.9-0.3-1.6-1.7-1.8l0,0
	c1-0.1,1.8-0.5,1.8-1.8v-0.8c0-1.8-0.4-2.8-3.3-2.8h-7.8L20.3,70L20.3,70L20.3,70z M21.6,65.1v-3.7h6c1.9,0,2.4,0.3,2.4,1.4v0.9
	c0,1-0.6,1.4-2.1,1.4C27.9,65.1,21.6,65.1,21.6,65.1z M34.8,70h9.6v-1.1H36v-3.4H44v-1.1H36v-3.1h8.3v-1.1h-9.6V70
	C34.8,70,34.8,70,34.8,70z M47.5,70h9.6v-1.1h-8.3v-3.4h7.9v-1.1h-7.9v-3.1H57v-1.1h-9.6L47.5,70L47.5,70L47.5,70z M60.1,70h1.3
	v-8.6l8.9,8.6h2v-9.8h-1.3v8.6L62,60.3h-2L60.1,70L60.1,70L60.1,70z M83.5,70h9.6v-1.1h-8.3v-3.4h7.9v-1.1h-7.9v-3.1H93v-1.1h-9.6
	L83.5,70L83.5,70L83.5,70z M96.1,70h1.3v-8.6l8.9,8.6h2v-9.8H107v8.6l-8.9-8.6h-2L96.1,70L96.1,70L96.1,70z M111.9,70h9.6v-1.1h-8.3
	v-3.4h7.9v-1.1h-7.9v-3.1h8.3v-1.1h-9.6L111.9,70L111.9,70L111.9,70z M124.5,70h1.3v-3.9h6.4c1.2,0,1.9,0.2,1.9,1.7V70h1.2v-2.5
	c0-0.9-0.3-1.6-1.7-1.8l0,0c1-0.1,1.8-0.5,1.8-1.8v-0.8c0-1.8-0.4-2.8-3.3-2.8h-7.8L124.5,70L124.5,70L124.5,70z M125.8,65.1v-3.7h6
	c1.9,0,2.4,0.3,2.4,1.4v0.9c0,1-0.6,1.4-2.1,1.4H125.8L125.8,65.1z M150.9,65.2h-6.3v1.1h5v1c0,1.4-0.8,1.8-2.1,1.8h-5.1
	c-1.3,0-2.3-0.4-2.3-2.1v-3.6c0-1.7,1-2.1,2.3-2.1h3.4c3.3,0,3.8,0.1,3.8,1.9h1.2v-0.3c0-2.2-1.9-2.7-3.6-2.7h-5
	c-2.7,0-3.5,1.2-3.5,3.6v2.7c0,2.4,0.9,3.6,3.5,3.6h5.4c2.4,0,3.3-1,3.3-3.6L150.9,65.2L150.9,65.2L150.9,65.2z M158.8,70h1.3v-4.2
	l5.6-5.6H164l-4.5,4.5l-4.5-4.5h-1.8l5.6,5.6V70L158.8,70L158.8,70z"/>
<path class="st2" d="M4.9,36.8h8.8c1.6,0,2.3,0.5,2.3,1.7v2.1c0,1.2-0.7,1.7-2.3,1.7h-1.3l4.7,3.4h-3.4l-4.1-3.4H7.3v3.4H4.9V36.8
	L4.9,36.8z M7.2,38.4v2.5h5.4c0.7,0,1.1-0.1,1.1-0.7v-1.1c0-0.6-0.4-0.7-1.1-0.7H7.2z"/>
<polygon class="st2" points="19.9,36.8 30.4,36.8 30.4,38.4 22.3,38.4 22.3,40.4 27,40.4 27,41.9 22.3,41.9 22.3,44.1 30.5,44.1 
	30.5,45.8 19.9,45.8 "/>
<polygon class="st2" points="34,36.8 35.6,36.8 43.9,42.8 43.9,36.8 46,36.8 46,45.8 44.4,45.8 36.1,39.8 36.1,45.8 34,45.8 "/>
<polygon class="st2" points="56.2,45.8 53.8,45.8 53.8,38.4 49.1,38.4 49.1,36.8 61,36.8 61,38.4 56.2,38.4 "/>
<path class="st2" d="M109,36.8h8.8c1.6,0,2.3,0.5,2.3,1.7v2c0,1.3-0.7,1.7-2.3,1.7h-6.5v3.5H109V36.8L109,36.8z M111.4,38.4v2.4h5.4
	c0.7,0,1.1-0.1,1.1-0.7v-1c0-0.6-0.4-0.7-1.1-0.7H111.4z"/>
<path class="st2" d="M125.9,36.8h7.6c1.9,0,2.6,0.4,2.6,2.1v4.8c0,1.7-0.6,2.1-2.6,2.1h-7.6c-1.9,0-2.6-0.4-2.6-2.1v-4.8
	C123.3,37.2,123.9,36.8,125.9,36.8L125.9,36.8z M133.6,44.1v-5.6h-7.9v5.6H133.6L133.6,44.1z"/>
<path class="st2" d="M140.1,36.8h8.8c1.6,0,2.3,0.5,2.3,1.7v2.1c0,1.2-0.7,1.7-2.3,1.7h-1.3l4.7,3.4h-3.4l-4.1-3.4h-2.2v3.4h-2.3
	L140.1,36.8L140.1,36.8L140.1,36.8z M142.4,38.4v2.5h5.4c0.7,0,1.1-0.1,1.1-0.7v-1.1c0-0.6-0.4-0.7-1.1-0.7H142.4z"/>
<g>
	<defs>
		<rect id="SVGID_1_" x="-4.9" y="10.1" width="179.6" height="65.8"/>
	</defs>
	<clipPath id="SVGID_2_">
		<use xlink:href="#SVGID_1_"  style="overflow:visible;"/>
	</clipPath>
	<g class="st3">
		<polygon class="st2" points="160.1,45.8 157.7,45.8 157.7,38.4 153,38.4 153,36.8 164.8,36.8 164.8,38.4 160.1,38.4 		"/>
	</g>
</g>
<g>
	<defs>
		<rect id="SVGID_3_" x="-4.9" y="10.1" width="179.6" height="65.8"/>
	</defs>
	<clipPath id="SVGID_4_">
		<use xlink:href="#SVGID_3_"  style="overflow:visible;"/>
	</clipPath>
	<g class="st4">
		<path class="st5" d="M103.3,22.9C85.9-0.8,52.7,33.5,80.5,50.5h0c0,0,0,0,0,0c0,0,0,0,0,0c-9.9-10.2-4.1-36.8,22.7-27.5l0,0V22.9
			L103.3,22.9z"/>
	</g>
</g>
<path class="st5" d="M85.3,54.4c-20.7-4.8-25.2-28.9-7.4-41.3h-0.1C67,16.7,60.6,29.6,64.9,40.8c3.7,9.6,13,14,20.4,13.7h0.1
	L85.3,54.4L85.3,54.4L85.3,54.4z"/>
<path class="st5" d="M91.4,41.1l-1.3,4.8h-4.4l5.6-18.5h5.5l5.8,18.5h-4.5l-1.4-4.8H91.4z M96.1,38L94.9,34
	c-0.3-1.1-0.6-2.5-0.9-3.6h-0.1c-0.2,1.1-0.5,2.5-0.8,3.6L92,38H96.1z"/>
</svg>
