<?xml version="1.0" encoding="UTF-8" standalone="no"?>
<svg width="602px" height="580px" viewBox="0 0 602 580" version="1.1" xmlns="http://www.w3.org/2000/svg" xmlns:xlink="http://www.w3.org/1999/xlink" xmlns:sketch="http://www.bohemiancoding.com/sketch/ns">
    <!-- Generator: Sketch Beta 3.3 (11970) - http://www.bohemiancoding.com/sketch -->
    <title>Logo</title>
    <desc>Created with Sketch Beta.</desc>
    <defs></defs>
    <g id="Logo" stroke="none" stroke-width="1" fill="none" fill-rule="evenodd" sketch:type="MSPage">
        <g id="V4a-Copy-9" sketch:type="MSArtboardGroup" transform="translate(-642.000000, -500.000000)">
            <g id="Logo" sketch:type="MSLayerGroup" transform="translate(642.000000, 500.000000)">
                <g id="Venn-Diagram-Export" sketch:type="MSShapeGroup">
                    <g id="Circles">
                        <ellipse id="Red" fill="#F06C60" cx="301.501323" cy="214.355675" rx="214.064815" ry="214.126712"></ellipse>
                        <ellipse id="Green" fill="#7BDC8B" cx="387.728836" cy="365.798924" rx="214.064815" ry="214.126712"></ellipse>
                        <ellipse id="Blue" fill="#59AEE6" cx="214.271164" cy="365.798924" rx="214.064815" ry="214.126712"></ellipse>
                    </g>
                    <g id="Intersections" transform="translate(87.000000, 151.000000)">
                        <path d="M87.6003182,235.881727 C153.994036,284.641857 245.604374,292.579077 321.53373,248.741243 C396.673844,205.359078 435.581086,123.325481 427.62984,42.2728718 C361.236123,-6.48725844 269.625785,-14.4244782 193.696429,29.413356 C118.556315,72.7955208 79.6490729,154.829118 87.6003182,235.881727 Z" id="Red-+-Green" fill="#F8EBB7"></path>
                        <path d="M1.49224166,41.562079 C-2.98344279,84.8360198 5.64929063,129.866769 29.0621502,170.419031 C88.1745166,272.804653 219.118503,307.870702 321.53373,248.741243 C328.058059,244.97442 334.309219,240.916195 340.280254,236.592511 C344.755929,193.318577 336.123196,148.287829 312.710337,107.735568 C253.59797,5.34994565 122.653984,-29.7161029 20.2387566,29.413356 C13.7144313,33.180177 7.46327433,37.2384003 1.49224138,41.5620817 Z" id="Blue-+-Red" fill="#F6D1F0"></path>
                        <path d="M214.045489,19.0500784 C207.159911,22.1097775 200.367645,25.5617273 193.696429,29.413356 C91.2812016,88.5428149 56.1772971,219.476658 115.289663,321.86228 C138.870667,362.705777 173.882653,392.836319 213.954526,410.547765 C220.840096,407.488066 227.632359,404.036118 234.303571,400.184491 C336.718798,341.055032 371.822703,210.121189 312.710337,107.735568 C289.129333,66.8920718 254.117348,36.7615296 214.045477,19.0500837 Z" id="Blue-+-Green" fill="#ABF4F4"></path>
                    </g>
                </g>
                <path d="M421.905995,383.769397 C416.165434,387.918715 410.155562,391.813281 403.883065,395.428195 C330.884485,437.49814 242.81019,429.881012 178.979185,383.087277 L178.979185,383.087277 C171.334848,305.303352 208.74032,226.577999 280.980121,184.945347 C287.393836,181.249047 293.923929,177.936308 300.543731,175 C339.06887,191.997184 372.729436,220.912624 395.400243,260.108986 C417.909395,299.025859 426.208916,342.240611 421.905988,383.769402 L421.905995,383.769397 Z" id="Logo-Type-Background" fill="#0C0C0C" sketch:type="MSShapeGroup"></path>
                <path d="M292.619608,359.740238 L243.043854,359.740238 L243.043854,259.84787 L235.298418,259.84787 L235.298418,366.284391 L291.684694,366.284391 L295.808074,366.284391 C296.509929,366.284391 297.11151,366.083806 297.612836,365.68263 C298.114161,365.281454 298.465083,364.805064 298.665613,364.253447 L311.14855,333.337963 L337.28,267.99672 L363.411447,333.337963 L375.894383,364.253447 C376.145046,364.855211 376.495968,365.344137 376.947161,365.72024 C377.398354,366.096343 377.974869,366.284391 378.676724,366.284391 L384.617399,366.284391 L341.077518,259.84787 L333.482478,259.84787 L292.619608,359.740238 Z M427.280253,387.592512 C421.309218,391.916195 415.058058,395.97442 408.53373,399.741243 C332.604374,443.579077 240.994036,435.641857 174.600318,386.881727 L174.600318,386.881727 C166.649073,305.829118 205.556315,223.795521 280.696429,180.413356 C287.367644,176.561728 294.15991,173.109778 301.045487,170.050079 C341.117348,187.76153 376.129333,217.892072 399.710337,258.735568 C423.123196,299.287829 431.755929,344.318577 427.280245,387.592517 L427.280253,387.592512 Z" id="Icon" fill="#FFFFFF" sketch:type="MSShapeGroup"></path>
            </g>
        </g>
    </g>
</svg>