<?xml version="1.0" encoding="utf-8"?>
<!-- Generator: Adobe Illustrator 18.1.0, SVG Export Plug-In . SVG Version: 6.00 Build 0)  -->
<svg version="1.1" id="Layer_1" xmlns="http://www.w3.org/2000/svg" xmlns:xlink="http://www.w3.org/1999/xlink" x="0px" y="0px"
	 viewBox="0 0 232.8 110.8" enable-background="new 0 0 232.8 110.8" xml:space="preserve">
<g>
	<g>
		<path fill="#19191A" d="M191.7,48.1l0,4.3c0,7.8,6.1,14.1,13.7,14.1l0,1.1l-28.8,0l0-1.1c7.6,0,13.7-6.3,13.7-14.1l0-4.3
			c-1.7,4.8-6.3,8.2-11.6,8.2c-6.8,0-12.4-5.5-12.4-12.4c0-2.4,0.7-4.6,1.9-6.5l0,0l22.8-36.6l22.9,36.6h0c1.2,1.9,1.9,4.1,1.9,6.5
			c0,6.8-5.5,12.4-12.4,12.4C198,56.3,193.4,52.9,191.7,48.1z M200.6,20.2l-19.4,0c-0.9,3.2-2.3,9-2.2,14c0,1.7,0.2,3.2,0.6,4.5
			c0.8,2.4,2.3,4.1,3.9,5.6c2,1.5,4.6,2.4,7.3,2.4c3.1,0,5.9-1.1,8-3c1.4-1.3,2.6-2.9,3.3-5c0.4-1.3,0.6-2.8,0.6-4.5
			C202.9,29.2,201.5,23.4,200.6,20.2z"/>
		<path fill="#19191A" d="M229.4,13.7c1.9,0,3.5-1.6,3.5-3.5c0-1.9-1.6-3.5-3.5-3.5c-0.5,0-1.1,0.1-1.5,0.4v0
			c-0.4,0.2-1.1,0.5-1.1,0.5c0.5-0.3,1.3-0.9,1.3-0.9h0c1-0.7,1.6-1.8,1.6-3c0-2-1.6-3.7-3.7-3.7c-2,0-3.7,1.7-3.7,3.7
			c0,1.3,0.6,2.4,1.6,3l0,0c0,0,0.8,0.6,1.3,0.9c0,0-0.8-0.4-1.1-0.5l0,0c-0.5-0.2-1-0.3-1.5-0.3c-1.9,0-3.5,1.6-3.5,3.5
			c0,1.9,1.6,3.5,3.5,3.5c1.5,0,2.8-1,3.3-2.3v1.2c0,2.2-1.7,3.9-3.8,3.9l0,0.3l8,0v-0.3c-2.1,0-3.8-1.7-3.8-3.9v-1.2
			C226.6,12.7,227.9,13.7,229.4,13.7z"/>
		<path fill="#19191A" d="M36.6,81.9C36.5,82.5,36,83,35.4,83h-8.2c-0.6,0-1-0.5-0.9-1.1l11.1-60.3c0.1-0.6,0.7-1.1,1.3-1.1h11.1
			c0.6,0,1.2,0.5,1.3,1.1l11.1,60.3c0.1,0.6-0.3,1.1-0.9,1.1h-8.2c-0.6,0-1.2-0.5-1.2-1.1l-1.6-11.7c-0.1-0.6-0.7-1.1-1.3-1.1h-9.6
			c-0.6,0-1.2,0.5-1.2,1.1L36.6,81.9z M40.1,58.7c-0.1,0.6,0.3,1.1,0.9,1.1h6.5c0.6,0,1-0.5,0.9-1.1L44.5,34
			c-0.1-0.6-0.2-1.1-0.3-1.1c0,0-0.2,0.5-0.2,1.1L40.1,58.7z"/>
		<path fill="#19191A" d="M114.8,83c-0.6,0-1.1-0.5-1.1-1.1V21.6c0-0.6,0.5-1.1,1.1-1.1h8.5c0.6,0,1.1,0.5,1.1,1.1v20.9
			c0,0.6,0,1.1,0.1,1.1s0.3-0.5,0.6-1l10.3-21.1c0.3-0.5,1-1,1.6-1h8.6c0.6,0,0.9,0.4,0.6,1l-10.6,21.3c-0.2,0.5-0.3,1.4-0.1,2
			l12.4,37.1c0.2,0.6-0.1,1-0.7,1h-8.7c-0.6,0-1.2-0.5-1.4-1l-8.1-27c-0.2-0.6-0.3-1.1-0.4-1.1c0,0-0.3,0.4-0.6,1l-2.8,5
			c-0.3,0.5-0.5,1.5-0.5,2v20c0,0.6-0.5,1.1-1.1,1.1H114.8z"/>
		<path fill="#19191A" d="M17.5,20.5H9c-0.6,0-1.1,0.5-1.1,1.1v47.7c0,3.5-1.5,5.2-5.6,5.2H1.1C0.5,74.5,0,75,0,75.6v7.2
			c0,0.6,0.5,1.1,1.1,1.1h2.5c11.9,0,15-5.4,15-13.3V21.6C18.6,21,18.1,20.5,17.5,20.5"/>
		<path fill="#19191A" d="M105.2,86.4v-7c0-0.7-0.7-1.1-1.2-1.3c-0.1,0-0.3-0.1-0.4-0.1h0c-0.9-0.3-2-0.9-3.4-2.1
			c1.2-2.3,1.8-5.1,1.8-8V35.6c0-8.8-5.2-16-16.4-16c-11.2,0-16.4,7.2-16.4,16v32.2c0,8.8,5.2,16,16.4,16c3.5,0,6.4-0.7,8.7-2
			c3.3,4.4,6.1,5.5,9.4,5.7C103.9,87.6,105.2,87.6,105.2,86.4 M91.3,64.5c-1.2-1.3-2.3-2.2-3.2-2.8c-0.4-0.3-0.9-0.5-1.2-0.7
			c0,0-0.5-0.2-0.5,0.4v7.7c0,0.6,0.3,1.3,0.6,1.5l0.4,0.4c0.5,0.5,1.2,1.3,1.9,2.6c-0.8,0.6-2,1-3.6,1c-4.3,0-5.7-2.2-5.7-6.9V35.9
			c0-4.7,1.4-6.9,5.7-6.9c4.3,0,5.7,2.3,5.7,6.9V64.5z"/>
	</g>
	<g>
		<path fill="#7EA8AD" d="M200.4,5.8L200.4,5.8l6.8,10.8l6.8-10.8l0,0c0.3-0.6,0.5-1.2,0.5-1.9c0-2-1.6-3.7-3.7-3.7
			c-2,0-3.7,1.6-3.7,3.7l0,0l0,0c0-2-1.6-3.7-3.7-3.7c-2,0-3.7,1.6-3.6,3.7C199.8,4.6,200,5.3,200.4,5.8z"/>
		<polygon fill="#7EA8AD" points="215.7,12.7 210.2,21.6 215.7,30.4 221.2,21.6 		"/>
		<g>
			<g>
				<path fill="#7EA8AD" d="M27.1,106.4c-0.2,1.3-1.1,4.3-6.4,4.3c-3.6,0-6.4-2-6.4-6.2c0-3.3,2.1-5.8,6.6-5.8c5.1,0,5.8,3.3,6,3.9
					h-2.2c-0.1-0.4-1-2-3.7-2c-3.2,0-4.5,1.8-4.5,4.1c0,2.6,1.9,4,4.3,4c2.6,0,3.7-1.6,4-2.4H27.1z"/>
				<path fill="#7EA8AD" d="M33.1,99.1h10.2v1.9h-8v2.6h6.9v1.9h-6.9v3h8.2v1.9H33.1V99.1z"/>
				<path fill="#7EA8AD" d="M49.5,99.1h2.2v9.4h8.3v2H49.5V99.1z"/>
				<path fill="#7EA8AD" d="M65.6,99.1h2.2v9.4h8.2v2H65.6V99.1z"/>
				<path fill="#7EA8AD" d="M86.7,99.1h2.5l5.5,11.4h-2.3l-1.2-2.6h-6.6l-1.2,2.6h-2.4L86.7,99.1z M90.3,106l-2.4-5.1l-2.4,5.1H90.3
					z"/>
				<path fill="#7EA8AD" d="M100.2,99.1h6.8c2.7,0,4.6,0.6,4.6,3.4c0,2.1-1.5,3.2-3.2,3.3l3.5,4.6h-2.7L106,106h-3.5v4.5h-2.2V99.1z
					 M106.8,104.2c1.8,0,2.7-0.3,2.7-1.6c0-1.3-0.9-1.6-2.7-1.6h-4.3v3.2H106.8z"/>
				<path fill="#7EA8AD" d="M126.9,102.6c-0.4-1-1.3-1.9-4-1.9c-1.5,0-3,0.4-3,1.4c0,0.5,0.3,1,2.6,1.3l2.7,0.4
					c2.6,0.4,4.1,1.4,4.1,3.3c0,2.7-2.6,3.7-5.6,3.7c-4.9,0-6.1-2.4-6.3-3.3l2.1-0.7c0.4,0.8,1.3,2,4.3,2c1.8,0,3.3-0.6,3.3-1.6
					c0-0.7-0.8-1.2-2.5-1.4l-2.7-0.4c-2.6-0.4-4.1-1.5-4.1-3.2c0-3.4,4.4-3.4,5.3-3.4c4.9,0,5.7,2.3,6,3.1L126.9,102.6z"/>
			</g>
		</g>
	</g>
</g>
</svg>
