<?xml version="1.0" encoding="utf-8"?>
<!-- Generator: Adobe Illustrator 20.0.0, SVG Export Plug-In . SVG Version: 6.00 Build 0)  -->
<svg version="1.1" id="Layer_1" xmlns="http://www.w3.org/2000/svg" xmlns:xlink="http://www.w3.org/1999/xlink" x="0px" y="0px"
	 viewBox="0 0 217 125" style="enable-background:new 0 0 217 125;" xml:space="preserve">
<style type="text/css">
	.st0{fill:#0C2359;}
	.st1{fill:#10265B;}
	.st2{fill:#EF7622;}
</style>
<g id="Layer_3_1_">
	<g>
		<path class="st0" d="M78.9,99.5l2.4,12.1l0,0l2.5-12.1h5.1v17.1h-3.2v-13.7l0,0l-3,13.7H80l-3-13.7l0,0v13.7h-3.2V99.5H78.9z"/>
		<path class="st0" d="M91.6,99.5h3.5v17.1h-3.5V99.5z"/>
		<path class="st0" d="M105.8,111.2L105.8,111.2V99.5h3.2v17.1h-3.9l-4.2-12l0,0v12h-3.2V99.5h4L105.8,111.2z"/>
		<path class="st0" d="M111.2,104.5c0.1-1.1,0.4-2,0.8-2.8s1-1.4,1.8-1.8s1.8-0.7,3.1-0.7s2.3,0.2,3.1,0.7c0.8,0.4,1.4,1.1,1.8,1.8
			s0.7,1.7,0.8,2.8c0.1,1.1,0.2,2.3,0.2,3.6c0,1.3-0.1,2.5-0.2,3.6s-0.4,2-0.8,2.8s-1,1.4-1.8,1.8s-1.8,0.6-3.1,0.6
			s-2.3-0.2-3.1-0.6c-0.8-0.4-1.4-1-1.8-1.8s-0.7-1.7-0.8-2.8s-0.2-2.3-0.2-3.6C111,106.7,111.1,105.6,111.2,104.5z M114.6,111
			c0.1,0.8,0.2,1.5,0.3,2c0.2,0.5,0.4,0.9,0.7,1.1c0.3,0.2,0.7,0.3,1.2,0.3s0.9-0.1,1.2-0.3c0.3-0.2,0.6-0.6,0.7-1.1
			c0.2-0.5,0.3-1.2,0.3-2c0.1-0.8,0.1-1.8,0.1-2.9c0-1.2,0-2.1-0.1-2.9s-0.2-1.5-0.3-2c-0.2-0.5-0.4-0.9-0.7-1.1
			c-0.3-0.2-0.7-0.3-1.2-0.3s-0.9,0.1-1.2,0.3c-0.3,0.2-0.6,0.6-0.7,1.1c-0.2,0.5-0.3,1.2-0.3,2c-0.1,0.8-0.1,1.8-0.1,2.9
			S114.5,110.2,114.6,111z"/>
		<path class="st0" d="M131.1,99.5c1.4,0,2.6,0.4,3.4,1.1c0.8,0.7,1.2,1.8,1.2,3.3c0,1.2-0.2,2.1-0.7,2.8c-0.5,0.7-1.2,1.2-2.2,1.4
			l0,0c0.9,0.1,1.5,0.4,1.9,0.8s0.6,1.1,0.7,2.1c0,0.3,0.1,0.7,0.1,1c0,0.4,0,0.8,0,1.3c0,0.9,0.1,1.6,0.1,2.1
			c0.1,0.5,0.3,0.8,0.6,1v0.1h-3.7c-0.2-0.2-0.3-0.5-0.3-0.8s-0.1-0.6-0.1-1l-0.1-3.3c0-0.7-0.2-1.2-0.5-1.6s-0.8-0.6-1.5-0.6h-1.8
			v7.2h-3.5V99.3h6.4V99.5z M129.6,107c0.8,0,1.5-0.2,1.9-0.6s0.7-1.1,0.7-2c0-1.6-0.8-2.4-2.4-2.4h-1.6v4.9L129.6,107L129.6,107z"
			/>
		<path class="st0" d="M140.9,111.8c0,0.4,0,0.8,0.1,1.1c0.1,0.3,0.2,0.6,0.4,0.8c0.2,0.2,0.4,0.4,0.7,0.5s0.7,0.2,1.1,0.2
			c0.5,0,1-0.2,1.4-0.5s0.6-0.9,0.6-1.6c0-0.4-0.1-0.7-0.2-1c-0.1-0.3-0.3-0.5-0.5-0.8c-0.2-0.2-0.6-0.4-0.9-0.6
			c-0.4-0.2-0.9-0.4-1.5-0.6c-0.8-0.3-1.4-0.5-2-0.8s-1-0.7-1.4-1.1s-0.7-0.9-0.8-1.4c-0.2-0.5-0.3-1.2-0.3-1.9c0-1.7,0.5-3,1.4-3.8
			s2.2-1.2,3.9-1.2c0.8,0,1.5,0.1,2.1,0.3c0.6,0.2,1.2,0.4,1.7,0.8s0.8,0.9,1.1,1.4c0.3,0.6,0.4,1.3,0.4,2.1v0.5h-3.3
			c0-0.8-0.1-1.4-0.4-1.9s-0.8-0.7-1.4-0.7c-0.4,0-0.7,0.1-1,0.2s-0.5,0.3-0.6,0.4c-0.2,0.2-0.3,0.4-0.3,0.6
			c-0.1,0.2-0.1,0.5-0.1,0.7c0,0.5,0.1,1,0.3,1.3c0.2,0.4,0.7,0.7,1.4,1l2.7,1.2c0.7,0.3,1.2,0.6,1.6,0.9c0.4,0.3,0.7,0.6,1,1
			s0.4,0.8,0.5,1.2c0.1,0.4,0.1,0.9,0.1,1.4c0,1.8-0.5,3.1-1.6,3.9c-1,0.8-2.5,1.2-4.4,1.2c-2,0-3.3-0.4-4.2-1.3
			c-0.8-0.8-1.3-2.1-1.3-3.6V111h3.5v0.8H140.9z"/>
	</g>
</g>
<g>
	<g id="Layer_4">
		<path class="st1" d="M160.9,4.3c1.8,1.7,2.9,3,3.8,4.5c-8.6,8.5-17.1,17.2-25,25c-1.1,1.1-2.4,2-3,3.3
			c-5.4,12.1-10.7,24.2-16.1,36.6c1.9,1.8,3.7,3.5,5.8,5.4c12.1-5.3,24.2-10.5,36.2-16c0,0,3.7-3.3,5.5-5
			c6.6-6.6,13.2-13.2,19.8-19.8c2.4-2.4,5.2-4.2,6.9,1c0.2,0.6-3.5,4-4,4.6c-7.3,7.2-23.5,22.1-26.6,24.3c0,0-27.3,13.4-41.5,19.2
			c-5.6,2.3-11.2,4.8-17.7,7.7c0.6-2,0.9-3.1,1.4-4.2c8-18.2,16-36.4,24-54.5c0.4-0.9,0.6-2,1.2-2.7
			C141.1,24.2,150.6,14.7,160.9,4.3z M145.9,46.2L171.2,20c1.2-1.2,1.1-3.1-0.1-4.2c-1.2-1.2-3.1-1.1-4.2,0.1l-25.3,26.2
			c-1.2,1.2-1.1,3.1,0.1,4.2c0.6,0.6,1.3,0.8,2.1,0.8C144.5,47.1,145.3,46.8,145.9,46.2z M152.2,52.9l25.3-26.2
			c1.2-1.2,1.1-3.1-0.1-4.2c-1.2-1.2-3.1-1.1-4.2,0.1l-25.3,26.1c-1.2,1.2-1.1,3.1,0.1,4.2c0.6,0.6,1.3,0.8,2.1,0.8
			C150.8,53.8,151.6,53.5,152.2,52.9z M158.5,58.8l25.3-26.2c1.2-1.2,1.1-3.1-0.1-4.2c-1.2-1.2-3.1-1.1-4.2,0.1l-25.3,26.2
			c-1.2,1.2-1.1,3.1,0.1,4.2c0.6,0.6,1.3,0.8,2.1,0.8C157.1,59.7,157.9,59.4,158.5,58.8z"/>
	</g>
	<path class="st2" d="M95.1,88.2l16.6-70.4V8H75.3v11.7h21.5L80.2,88.2H95.1z M59.3,87.7c2.8-1.2,5-2.9,6.7-5.1
		c1.7-2.2,2.9-4.8,3.7-7.7c0.8-2.9,1.2-6.3,1.2-10.1c0-10.2-3.4-16.5-10.3-19c3-0.8,5.5-2.8,7.4-5.9c1.9-3.1,2.9-6.9,2.9-11.5
		c0-7-1.9-12.3-5.6-16c-3.8-3.7-9.1-5.6-16-5.6c-6.8,0-12,1.9-15.8,5.8c-3.8,3.9-5.7,9.3-5.7,16.3v4.4h15.3v-3.5
		c0-3.4,0.5-6.1,1.3-7.9c0.9-1.8,2.5-2.7,4.9-2.7c2.4,0,4.1,0.8,5,2.5c1,1.6,1.4,4.2,1.4,7.5c0,4.1-0.7,7-2,8.8
		c-1.3,1.8-3.7,2.7-7.1,2.8h-2.3v11.6h2.6c3.4,0.1,5.7,1.2,6.9,3.3c1.3,2.1,1.9,5.2,1.9,9.5c0,2-0.1,3.6-0.2,4.9
		c-0.1,1.3-0.4,2.5-0.8,3.5c-0.4,1.1-1,1.9-1.9,2.4c-0.8,0.5-1.9,0.7-3.2,0.7c-2.5,0-4.2-0.9-5.1-2.7c-0.9-1.8-1.4-4.8-1.4-8.9v-2.5
		H27.7v2.9c0,16,7.2,24,21.7,24C53.2,89.5,56.5,88.9,59.3,87.7"/>
</g>
</svg>
