<?xml version="1.0" encoding="UTF-8" standalone="no"?>
<!-- Created with Inkscape (http://www.inkscape.org/) -->

<svg
   xmlns:dc="http://purl.org/dc/elements/1.1/"
   xmlns:cc="http://creativecommons.org/ns#"
   xmlns:rdf="http://www.w3.org/1999/02/22-rdf-syntax-ns#"
   xmlns:svg="http://www.w3.org/2000/svg"
   xmlns="http://www.w3.org/2000/svg"
   xmlns:sodipodi="http://sodipodi.sourceforge.net/DTD/sodipodi-0.dtd"
   xmlns:inkscape="http://www.inkscape.org/namespaces/inkscape"
   id="svg2"
   version="1.1"
   inkscape:version="0.47 r22583"
   width="300"
   height="300"
   sodipodi:docname="Football 7-a-side pictogram (Paralympics).png">
  <metadata
     id="metadata8">
    <rdf:RDF>
      <cc:Work
         rdf:about="">
        <dc:format>image/svg+xml</dc:format>
        <dc:type
           rdf:resource="http://purl.org/dc/dcmitype/StillImage" />
        <dc:title></dc:title>
      </cc:Work>
    </rdf:RDF>
  </metadata>
  <defs
     id="defs6">
    <inkscape:perspective
       sodipodi:type="inkscape:persp3d"
       inkscape:vp_x="0 : 0.5 : 1"
       inkscape:vp_y="0 : 1000 : 0"
       inkscape:vp_z="1 : 0.5 : 1"
       inkscape:persp3d-origin="0.5 : 0.33333333 : 1"
       id="perspective10" />
  </defs>
  <sodipodi:namedview
     pagecolor="#ffffff"
     bordercolor="#666666"
     borderopacity="1"
     objecttolerance="10"
     gridtolerance="10"
     guidetolerance="10"
     inkscape:pageopacity="0"
     inkscape:pageshadow="2"
     inkscape:window-width="640"
     inkscape:window-height="502"
     id="namedview4"
     showgrid="false"
     inkscape:zoom="0.78666667"
     inkscape:cx="150"
     inkscape:cy="150"
     inkscape:window-x="0"
     inkscape:window-y="0"
     inkscape:window-maximized="0"
     inkscape:current-layer="svg2" />
  <path
     style="fill:#000000"
     d="m 87,274.37173 c 0,-3.40131 53.399,-87.09294 68.18894,-106.87173 12.6374,-16.90017 21.38529,-23.25895 30.57307,-22.22336 12.94202,1.45876 11.50816,15.09715 -3.75576,35.72336 -7.25317,9.80125 -44.20826,47.49985 -64.00625,65.29403 -7.425,6.67349 -17.17225,15.8624 -21.660552,20.4198 C 88.652462,274.51914 87,275.87408 87,274.37173 z m 151,-2.14274 c 0,-0.47894 3.6,-8.85131 8,-18.60527 4.4,-9.75395 8,-17.93454 8,-18.17909 C 254,235.20008 249.05,235 243,235 l -11,0 0,-4.5 0,-4.5 17.5,0 17.5,0 0,3.33562 c 0,2.05066 -3.4511,11.00708 -8.95871,23.25 l -8.9587,19.91438 -5.5413,0.2999 C 240.49358,272.96485 238,272.70794 238,272.22899 z M 44.5,269.96963 c -8.512438,-4.15127 -14.258116,-14.69656 -12.91186,-23.6977 1.375786,-9.19859 10.485202,-18.308 19.683785,-19.68379 5.509782,-0.82407 13.158125,1.46938 17.854157,5.3538 8.44507,6.9855 10.330112,19.93337 4.317824,29.65802 -5.758329,9.31387 -19.09792,13.17126 -28.943906,8.36967 z m 16.900297,-5.36352 c 7.229529,-3.02069 11.310429,-12.89253 8.655334,-20.93755 -1.454969,-4.40859 -6.780706,-9.22253 -11.70826,-10.58309 -10.893143,-3.00774 -22.871138,8.22448 -20.409556,19.13881 2.499151,11.08091 13.138351,16.69552 23.462482,12.38183 z m 51.932773,-79.18213 c -2.1892,-2.1892 -2.4932,-3.19347 -2.02449,-6.68796 0.77328,-5.76523 5.08654,-13.5951 13.90182,-25.23602 9.41727,-12.43586 20.17527,-22.89837 26.35665,-25.63269 5.17524,-2.28925 9.92912,-2.08268 14.03872,0.61004 4.81341,3.15386 2.54193,11.92333 -6.325,24.41891 -5.99847,8.45324 -25.43933,28.52982 -31.22655,32.24766 -5.84303,3.7537 -11.14661,3.8546 -14.72115,0.28006 z M 204,150.03518 c 0,-1.33911 2.61818,-2.61802 14.48375,-7.07493 9.78494,-3.67539 21.66987,-10.16266 27.8685,-15.21175 2.77723,-2.26219 2.81361,-2.41437 1.38313,-5.7859 -0.80802,-1.90443 -4.44549,-7.89577 -8.08327,-13.3141 -9.50922,-14.16358 -10.93084,-20.553291 -5.57538,-25.059606 5.1767,-4.355914 11.25962,-3.117622 17.56547,3.575787 3.92293,4.164026 6.26686,8.846842 10.23802,20.454009 4.99739,14.60667 4.06879,23.86138 -2.99425,29.84155 -7.78824,6.59419 -21.4197,10.72403 -41.38597,12.53846 -13.48515,1.22547 -13.5,1.22551 -13.5,0.0365 z M 145,82.328322 C 143.075,82.13494 129.8,80.827791 115.5,79.423548 92.393307,77.154496 79.390482,75.75175 59.642837,73.397669 c -3.296284,-0.392944 -5.263782,-1.009128 -4.5,-1.409318 1.592634,-0.834472 16.149996,-2.708267 26.857163,-3.457 17.653061,-1.234447 35.75148,-2.781808 53.72718,-4.593513 32.12146,-3.237406 42.07152,-2.346418 46.64032,4.176454 3.98423,5.688284 -0.38898,12.252591 -9.25399,13.890496 -5.0564,0.934225 -20.28942,1.109529 -28.11351,0.323534 z M 213.88507,70.62038 C 207.97485,68.5083 204.32777,65.298743 201.58605,59.796833 194.17404,44.922867 204.56667,29 221.6867,29 c 6.25457,0 14.25709,4.604277 17.64008,10.149275 5.36222,8.789117 4.48828,17.841435 -2.44908,25.367582 -6.15289,6.675096 -14.8975,8.996404 -22.99263,6.103523 z"
     id="path2818" />
</svg>
