<svg version="1.1" id="Ebene_1" xmlns="http://www.w3.org/2000/svg" x="0" y="0" viewBox="268.9 219.5 102.2 41.1" xml:space="preserve"><path d="M283.3 221.3v17.5c4.8-.9 9.3-1.7 13.7-2.4v-2.3l6.7-8.9 6.7 8.9v.3c1.3-.2 2.6-.3 3.9-.5l6.5-8.7 5.6 7.5c2.1-.2 4.1-.3 6.2-.4l5.3-7.1 5.1 6.8c3.8 0 7.8.1 11.9.2v-11h-71.6z" fill="#547ba9"/><path fill="none" d="M268.9 219.5h102.2v41.1H268.9z"/><path d="M283.3 241.9H297v-5.5c-4.3.7-8.9 1.5-13.7 2.4v3.1zm27 0h3.8v-7.8l.2-.2c-1.3.2-2.6.3-3.9.5v7.5zm32.6-9.8l1.5 2.1v7.8h10.3v-9.6c-3.9-.2-7.9-.3-11.8-.3m-15.5 2.1v7.8h3.8v-7.8l1.3-1.8c-2.1.1-4.1.2-6.2.4l1.1 1.4z" fill="#65ae46"/><path d="M281.5 256.4c-.4.9-.9 1.9-1.4 2.3-.5.5-.7.7-2.1.7-1.3 0-2.6-.1-3.1-.2-.3-.1-.6-.4-.6-.9v-5c0-.1.1-.2.2-.2.7 0 3 0 3.5.1.6.1.8.4.9.8.1.3.1.3.2 1 .1.1.6.1.7 0 0-.7-.1-1.6-.1-2.3 0-.9.1-1.8.2-2.3-.1-.1-.6-.1-.7 0-.1.3-.1.6-.2.9-.2.6-.4.9-1 .9-.8.1-2.8.1-3.5 0-.1 0-.1-.1-.1-.2v-5.3c0-.1.1-.4.2-.4.4-.1 3 0 3.6 0 .5.1.9.2 1.1.7.2.4.3.9.4 1.8.1.1.6.1.7-.1.1-1.2.2-2.9.4-3.6l-.1-.1c-.7.1-2.1.1-3 .1H273c-1.3 0-2.7-.1-3.5-.1-.1.1-.1.5 0 .6.5.1.9.1 1.3.2.6.2.7.4.7 1.1.1.7.1 2.9.1 4.9 0 2.7 0 5.1-.1 6.2-.1.9-.2 1.2-.8 1.3-.4.1-1 .2-1.8.2-.1.1-.1.5 0 .6 1.3 0 2.7-.1 4.1-.1 2.6 0 4.6.1 6.7.1 1.1 0 1.3-.1 1.4-.4.4-.7 1-3 1-3.5 0 .4-.4.2-.6.2m8.8-4.6c-.9-.6-1.6-.9-2.5-1.5-.9-.6-1.4-1.3-1.4-2.3 0-1.1.8-2.1 2.1-2.1.7 0 1.2.1 1.7.5.6.4.8 1 1 2.4.1.1.5.1.6 0 .1-1.3.2-2.3.4-3.1-1-.1-1.9-.3-3.4-.3-2.5 0-4.5 1.4-4.5 3.9 0 2.1 1.3 3.1 3.4 4.4 1.9 1.2 2.6 1.9 2.6 3.2 0 1.3-.9 2-2.1 2-.7 0-1.5-.2-2.1-.6-.8-.6-1.3-1.4-1.8-2.9-.1-.1-.5.1-.6.2.1.7.4 3 .6 3.4.5.3 1.8.7 3.2.7 3.2 0 5.1-1.8 5.1-4.2-.1-1.8-.9-2.8-2.3-3.7m15.7-2.7c.1-1.3.3-2.9.5-3.6 0-.1-.1-.1-.1-.1-.6.2-1.2.3-2.3.3h-8c-.6 0-1.3-.1-1.9-.3-.1 0-.2.1-.2.1-.1.9-.2 2.7-.4 3.6.1.1.5.2.6.2.2-.7.6-1.4.9-1.9.3-.5.6-.7 1-.7h2.5c.1 0 .1.1.1.2 0 3.5 0 8.3-.1 10.2-.1 1-.2 1.4-.8 1.5-.3.1-.9.2-1.4.2-.1.1-.1.5 0 .6.7 0 1.7-.1 3.6-.1 1.3 0 2.5.1 3.2.1.1-.1.1-.5.1-.6-.7-.1-.9-.1-1.3-.2-.5-.2-.6-.5-.7-1.1-.1-1.4-.1-7.4-.1-10.5 0-.1.1-.2.1-.2h2.7c.5.1.7.2.9.7.2.5.3 1.2.4 1.9.1-.2.6-.2.7-.3m11.4 7.3c-.7-1.9-2.8-7.9-3.4-9.7-.1-.4-.2-.9-.3-1.1h-1.8c-.1.3-.2.9-.3 1.3-.5 1.5-2.6 7.1-3.7 9.9-.6 1.4-.9 1.6-2.4 1.8-.1.1-.1.5 0 .6.6 0 1.4-.1 2.3-.1 1.1 0 2.1.1 2.7.1.1-.1.1-.5.1-.6-.4-.1-.7-.1-1-.2-.6-.2-.6-.5-.6-.8 0-.5.7-2.2 1.1-3.4 0-.1.1-.2.2-.2h3.5c.1 0 .2.1.2.2.3.9 1 2.7 1.2 3.6.1.1.1.4-.2.5-.2.1-.6.2-1.1.2-.1.1-.1.5 0 .6.7 0 1.5-.1 3.1-.1 1.3 0 2.4.1 2.9.1.1-.1.1-.5.1-.6-1.8-.2-1.9-.4-2.6-2.1m-4.1-3.5h-2.9c-.1 0-.1-.1-.1-.1.3-1 1.1-3.2 1.5-4.4h.1c.4 1.1 1.1 3.4 1.5 4.5h-.1m18.4-7.6c-.6.2-1.2.3-2.3.3h-8c-.6 0-1.3-.1-1.9-.3-.1 0-.2.1-.2.1-.1.9-.2 2.7-.4 3.6.1.1.5.2.6.2.2-.7.6-1.4.9-1.9.3-.5.6-.7 1-.7h2.5c.1 0 .1.1.1.2 0 3.5 0 8.3-.1 10.2-.1 1-.2 1.4-.8 1.5-.3.1-.9.2-1.4.2-.1.1-.1.5 0 .6.7 0 1.7-.1 3.6-.1 1.3 0 2.5.1 3.2.1.1-.1.1-.5.1-.6-.7-.1-.9-.1-1.3-.2-.5-.2-.6-.5-.7-1.1-.1-1.4-.1-7.4-.1-10.5 0-.1.1-.2.1-.2h2.7c.5.1.7.2.9.7.2.5.3 1.2.4 1.9.1.1.6.1.6 0 .1-1.3.3-2.9.5-3.6.1-.4 0-.4 0-.4m12.2 10.1c-.3.8-.8 1.7-1.2 2.1s-.7.6-1.8.6-2.3-.1-2.7-.1c-.3-.1-.5-.3-.5-.7v-4.4c0-.1.1-.2.1-.2.7 0 2.6 0 3.1.1s.7.4.8.7c.1.3.1.3.2.9.1.1.6.1.6 0 0-.6-.1-1.4-.1-2.1 0-.7.1-1.6.1-2.1-.1-.1-.5-.1-.6 0-.1.3-.1.5-.2.7-.2.5-.3.8-.9.8-.7.1-2.5.1-3.1 0-.1 0-.1-.1-.1-.2v-4.7c0-.1.1-.3.2-.4.3-.1 2.7 0 3.2 0 .5.1.7.2 1 .7.2.3.3.8.4 1.6.1.1.5.1.6-.1.1-1.1.2-2.5.4-3.2l-.1-.1c-.6.1-1.8.1-2.6.1h-4.3c-1.1 0-2.4-.1-3.1-.1-.1.1-.1.5 0 .6.4.1.8.1 1.1.2.5.1.6.3.6 1 .1.6.1 2.5.1 4.3 0 2.5 0 4.6-.1 5.5-.1.8-.2 1-.7 1.2-.3.1-.9.2-1.5.2-.1.1-.1.5 0 .6 1.1 0 2.4-.1 3.6-.1 2.3 0 4.1.1 5.9.1 1 0 1.1-.1 1.3-.3.3-.7.9-2.6.9-3.1-.1 0-.5-.1-.6-.1m12.4-.5c-.4.9-1.1 2.1-1.5 2.6-.5.5-.8.7-1.3.7-1 0-2.6 0-3.1-.1-.2-.1-.4-.3-.4-.7-.1-.7-.1-3.4-.1-5.6 0-2.1 0-4 .1-4.4.1-.6.1-.8.6-1 .2-.1.5-.1 1-.2.1-.1.1-.5 0-.6-.6 0-1.5.1-3 .1-1.7 0-2.3-.1-3-.1-.1.1-.1.5-.1.6.4.1.8.1 1.1.2.6.1.6.5.7 1.1.1.7.1 2 .1 4.4 0 3.1-.1 5.1-.1 5.6-.1.6-.2.8-.6 1-.3.1-.6.1-1.3.2-.1.1-.1.5 0 .6.8 0 1.9-.1 3.2-.1 1.5 0 4.2.1 5.8.1.9 0 1.1-.1 1.3-.3.5-.7 1.1-3.1 1.2-3.8-.1-.3-.5-.4-.6-.3m14.7-9.7c-.7 0-1.5.1-2.6.1-1 0-2.2-.1-2.7-.1-.1.1-.1.5-.1.6.6.1.9.1 1.2.2.6.2.7.4.5 1-.4 1.1-2 4-2.8 5.5h-.1c-.4-.7-2.4-4.5-3-5.7-.2-.4-.2-.6.2-.7.2-.1.6-.2.8-.2.1-.1.1-.6 0-.6-.4 0-1.9.1-3.3.1-1.3 0-2.5-.1-3.3-.1-.1.1-.1.5 0 .6.4 0 .6.1 1 .2.7.2 1 .3 2 2 .9 1.6 2.3 4.3 2.9 5.5.2.4.2.9.2 1.3v3.5c0 .7-.1 1.3-.8 1.4-.3.1-.8.2-1.5.2-.1.1-.1.6 0 .6.9 0 1.7-.1 3.6-.1 1.4 0 3 .1 3.8.1.1-.1.1-.6.1-.6-.6-.1-1-.1-1.4-.2-.7-.2-.8-.7-.9-1.5l-.1-3.8c0-.4.1-.7.2-1 .6-1.1 2.2-4 3.1-5.6.6-1 1-1.4 1.8-1.7.3-.1.7-.1 1-.2.3-.3.3-.8.2-.8" fill="#476d92"/><path fill="none" d="M268.9 219.5h102.2v41.1H268.9z"/><g><path fill="#9a9999" d="M356.1 241.9V220H282v21.9h-.5v-22.4h75.1v22.4z"/><path fill="none" d="M268.9 219.5h102.2v41.1H268.9z"/></g></svg>