<?xml version="1.0" encoding="iso-8859-1"?>
<!DOCTYPE svg PUBLIC "-//W3C//DTD SVG 1.0//EN" "http://www.w3.org/TR/2001/REC-SVG-20010904/DTD/svg10.dtd">
<!-- Creator: CorelDRAW -->
<svg xmlns="http://www.w3.org/2000/svg" xmlns:odm="http://product.corel.com/CGS/11/cddns/" xml:space="preserve" width="6732px" height="5669px" style="shape-rendering:geometricPrecision; text-rendering:geometricPrecision; image-rendering:optimizeQuality; fill-rule:evenodd"
     viewBox="0 0 6732 5670">
 <defs>
  <style type="text/css">
   <![CDATA[
    .str2 {stroke:#009544;stroke-width:25}
    .str1 {stroke:#009544;stroke-width:53}
    .str0 {stroke:#009544;stroke-width:209}
    .fil0 {fill:none}
    .fil2 {fill:#202326}
    .fil1 {fill:#B2D473}
   ]]>
  </style>
 </defs>
 <g id="Ebene 1">
  <path class="fil0 str0" d="M2528 2910c884,615 819,1459 790,2775"/>
  <g>
   <path class="fil1 str1" d="M2571 2908c-774,-848 -2257,-1388 -2464,-285 -164,1191 1441,953 2464,285z"/>
   <path class="fil0 str2" d="M107 2623l2464 285"/>
  </g>
  <g>
   <path class="fil1 str1" d="M2555 2901c864,-758 1433,-2229 334,-2455 -1187,-191 -983,1419 -334,2455z"/>
   <path class="fil0 str2" d="M2889 446l-334 2455"/>
  </g>
  <g>
   <path class="fil1 str1" d="M2528 2910c709,904 2147,1554 2436,471 254,-1175 -1364,-1058 -2436,-471z"/>
   <path class="fil0 str2" d="M4964 3381l-2436 -471"/>
  </g>
  <g>
   <path class="fil1 str1" d="M2555 2930c-1028,516 -1947,1799 -940,2295 1101,479 1306,-1128 940,-2295z"/>
   <path class="fil0 str2" d="M1615 5225l940 -2295"/>
  </g>
  <g>
   <path class="fil2" d="M4358 178c62,146 98,296 85,455 -9,61 -16,128 -63,171 -11,9 -47,31 -36,22 5,-2 18,0 20,0 247,-43 471,-296 498,-540 0,-52 -2,-112 -36,-153l56 -36c36,47 34,108 34,162 -36,289 -327,554 -608,607 -4,0 -33,3 -29,-11 11,-31 137,-92 108,-195 15,-152 -18,-312 -88,-439l59 -43 0 0z"/>
   <path class="fil2" d="M5069 505c-77,122 -272,267 -225,429 18,27 7,18 34,31l-54 36c-29,-18 -18,-7 -36,-36 -49,-164 144,-303 216,-430l65 -30 0 0z"/>
   <path class="fil2" d="M5143 252c-2,11 -5,20 -5,31 3,14 3,32 11,43 3,2 16,-7 12,-4 -72,38 -65,42 -45,20l65 -29c-70,94 -110,51 -103,-27l65 -34 0 0z"/>
   <path class="fil2" d="M5230 732c128,67 209,20 274,-34 161,-119 -63,-168 -171,-148 -87,11 -136,110 -139,233 0,54 9,113 27,169 54,125 191,206 321,143l-52 41c-132,58 -269,-30 -323,-155 -65,-209 -20,-415 218,-469 114,-20 348,38 177,164 -123,99 -217,181 -368,105l3 -31 33 -18 0 0z"/>
   <path class="fil2" d="M6051 227c-116,234 -255,462 -334,713 -40,119 -52,330 128,236 -79,47 -43,20 -27,0l65 -27c-25,34 -45,45 -92,70 -204,91 -164,-128 -128,-254 83,-247 222,-469 323,-709l65 -29 0 0z"/>
   <path class="fil2" d="M5127 1360c-117,112 -213,244 -310,374 -105,135 -210,296 -125,467 92,112 202,-18 258,-103l60 -27c-67,98 -273,300 -374,161 -83,-177 13,-334 125,-473 95,-128 189,-258 299,-370l67 -29 0 0z"/>
   <path class="fil2" d="M5273 1909c-90,97 -200,193 -207,334 39,144 207,-22 245,-65 43,-49 58,-114 132,-121 16,0 -13,27 -20,41 -24,49 -51,98 -76,150 -23,49 -40,107 -23,161l-60 32c-16,-56 0,-115 25,-166 18,-43 76,-126 112,-150 -25,20 -18,6 -32,29 -58,67 -329,291 -361,121 9,-142 110,-238 200,-337l65 -29 0 0z"/>
   <path class="fil2" d="M5502 1685c-5,16 -9,34 -14,49l-63 29c5,-15 7,-31 12,-47l65 -31z"/>
   <path class="fil2" d="M5630 1701c-12,22 -23,42 -32,62l-63 30c9,-21 21,-41 30,-61l65 -31 0 0z"/>
   <path class="fil2" d="M5807 2185c-29,-43 -83,-67 -137,-60 -58,26 -58,6 -121,80 -43,79 -47,166 11,236 31,36 72,63 119,69l-56 41c-50,-12 -90,-39 -124,-74 -56,-74 -51,-169 -11,-249 43,-86 148,-128 236,-153 56,-2 112,34 146,74l-63 36 0 0z"/>
   <path class="fil2" d="M6314 1600c-81,157 -144,325 -209,489 -58,139 -119,275 -170,415 -14,35 -41,60 -59,89 -11,38 -18,34 -42,90 -7,0 22,-49 63,-119 62,-110 145,-204 244,-287 126,-119 298,-161 274,72 -54,157 -247,130 -352,45 -5,-18 -9,0 -12,0 21,-12 27,24 47,18 5,6 34,26 34,29 16,96 27,199 56,293 29,104 103,171 207,191l-52 36c-103,-25 -182,-90 -209,-197 -33,-110 -33,-234 -71,-341 -3,-9 -21,-20 -14,-27 18,-18 40,-29 61,-45 2,2 9,4 9,9 98,90 213,114 235,18 9,-52 -4,-108 -40,-148 -32,-36 -70,-7 -65,-11 11,-9 38,-25 -52,33 -67,56 -132,117 -184,189 -60,83 -81,202 -179,242 -14,4 29,-45 15,-40 63,-178 126,-357 202,-530 65,-161 126,-325 200,-480l63 -33 0 0z"/>
   <path class="fil2" d="M4714 1539c20,-161 -65,-278 -195,-363 -150,-117 -341,-96 -433,-25 -146,137 -184,352 -164,543 18,114 68,238 153,316 90,67 220,29 305,-25 85,-53 92,-17 162,-121 -110,-11 -225,-51 -328,-101 -121,-51 -9,-130 11,-98 38,38 92,49 144,51l-54 41c-47,-16 -16,-5 -67,-34 2,2 -52,-49 22,2 105,56 227,88 337,108 -39,108 -180,159 -270,206 -96,36 -231,81 -320,7 -83,-83 -140,-206 -151,-323 -13,-193 14,-408 162,-549 177,-139 359,-166 543,-32 132,88 213,202 208,366l-65 31 0 0z"/>
  </g>
 </g>
</svg>
