<svg xmlns="http://www.w3.org/2000/svg" viewBox="0 0 127.1 85.2" enable-background="new 0 0 127.1 85.2"><style type="text/css">.st0{fill:#FAC52A;}</style><path id="XMLID_6_" class="st0" d="M57.4 6.4c1.1 1.5 1.5 3.7 3.2 4.4.4-.4 1-1 1.1-1.4l1-1.7c0-1.5 1.3-1.4.8-2.6-1-1.4-1.6-1.7-2-3-.5-.2-.6-1.3-1.2-1.4-1.2.3-1.5 2.1-2.2 2.8 0 .2-.5.8-.6.9-.2.8-1.6.8-.1 2z"/><path id="XMLID_19_" class="st0" d="M82.4 46.8c-.2-.1-.3-.3-.3-.6-1.7-1.3-1.9-3.1-3.4-4.7-.3-.9-1.1-1.7-1.3-2.8-.5-.7-.9-1.3-1.4-1.9-.2-.9-1.2-1.3-1.5-2.2l-1.2-2.4c-.6-1.1-1.4-2.2-2-3.2-.7-.1-1.3-2.2-1.6-2.6-.5-.4-.7-1.2-1-1.8-.5-.8-1.9-2.7-2.1-3-.7-.8-1.2-2.1-1.7-3-.7-.5-.7-1.5-1.2-2-.3-.8-1.1-1.1-1.4-1.8-.5-1.3-1.1-1.6-1.8-1.5-1 .1-1.2 1-1.7 1.7-.4 1.2-1.4 2.3-1.7 3.4 0 .6-.9.4-.7 1.1-.9 1.6-1.7 2.9-2.6 4.6-.3 1.1-.9 1.7-1.6 2.6-.5 1.5-1.7 2.6-2.4 4.1-.5.4-.6 1.1-1 1.5.1.6-.9 1.6-.9 1.8-.4 1-1.5 2-1.7 3.2-.8.3-.4 1.4-1.3 1.7-1.3 2.9-3.8 5.2-5.4 7.8.1.2.1.4.1.6v.5s0 .1.1.1l.2.1h.1c.3.1.6.3.8.6h19.2c.3 0 .6 0 .8-.1 1.4.2 2.5-.3 3.8-.1.6-.4 1 .1 1.7-.2l2.4.1c1.8-.5 2.8.3 4.9-.1.8.4 1.6.2 2.2.1 1.5.2 3 0 4.5.1h.8c.2-.1.4-.2.5-.2 0 0 .2-.1.3-.1.1-.5.2-1 .5-1.4zm-17.6-8.1c.2-.3.9-.6 1.3-.6.9-.8 1.6-.7 2.2-1.4.4-.3.7 0 .4.3-.6 1.4-.9 2.7-1.9 3.7-.9.4-1.5-.4-2-.8-1.3-.7-.3-.9 0-1.2zm-7.5-1.5c.2-.8-.2-1.4.5-2.2v-1.2c.3-.2.1-1.1.4-1.4.3-.6 0-1.2.4-1.6.2-1.2.6-1.6.6-2.9.2-.3.5-1.2.3-1.6.2-.5.3-1.2.6-1.8.1-.3.3-.2.3 0 .1.9.5 1.7.4 2.5 0 .7.3 1.8.1 2.4.3 1.4.3 2.9.7 4.2.4 1.2.3 4.2.5 4.7-.6.2-1.2-.1-1.8-.3-.6.3-1.3.2-1.9.1-.4.2-.9.1-1.3.2-.2-.3.1-.9.2-1.1zm-7.9 8.5c-.6-.6-1.6-1.9-1.7-2.9 1 .1 2.4.2 3 1.2-.3.6-.5 2.2-1.3 1.7zm2.5-3.6c-.3-1.9-.6-3.7-.3-5.5 1.2 1 2.2 2 3.1 3.1-.5.5-1.3.9-1.6 1.5-.5.3-.4.9-1.2.9zm1 4.7c.3-.9.7-1.7 1.3-2.5.9-1.6 2.2-2.4 3.6-3.2 1.4-.6 3.5-.4 4.8.3 1.4.8 2.9 2 3.9 3.3.4.7 1.2 1.1 1.2 2.1h-14.8zm18.8-2.9c-.9 1-1.4.9-2.3 1.8-.5-1.5-1.1-2.1-1.6-3.1.3-.1 1.3 0 1.6 0 .8-.2 1.4.1 2 .1.7-.1 1.2.2.3 1.2z"/><path id="XMLID_8_" class="st0" d="M88.1 47.7c.3.4 1.4.4 1.8.4.6 0 1.4-.1 1.3-.9v-.1c-.9-1-1.7-2-2.1-2.4-.1-.3-.3-.7 0-.9-.3-1.3.7-1.9.4-3.1 0-.3 0-.7-.1-1.1-.1-1-1-1.5-1.8-.9-.2.4-.8.2-1.2.5-.7-.2-1.1-1-1-1.6-.2-.7 0-1.1-.1-2.2-.2-.4-.2-.8-.2-1.1-.1-2.2-1-2.4-1.4-2.1-.6-.2-1 .4-1.6.3-.6.5-1.1 0-.9-.6-1.1-1.1-1.1-3.3-1.1-3.5-.1-2-.8-2.7-1.5-2.6-.9-.3-1.5 1.1-2.2.3-.4-1.3-.4-2-.5-3.3-.3-.6-.2-1.4-.6-2 .2-.4-.3-.8-.4-1.1-1-.9-1.9.2-3 .2-.4-.4-.2-.9-.3-1.5-.3-.4.3-.8-.2-1.4-.7-1.1 1-2.7-.4-3.7-.9-.7-1.5 1-2.3.7-.2.1-.5-.5-.4-.8.2-1.1.2-1.8-.1-3.3.1-1.3-1.2-1.3-1.6-.9-.7.5-1.5.9-2 1.7-.3.5-.5.9-.9 1.3.3.9 1 1.5 1.6 2.2.1.6.6.9.8 1.6.7.8 1.7 1.8 2.1 2.8l3.8 5.1 1.6 2.5c1.2 1.5 2.1 3.2 3.1 4.7.1.5.8.6.8 1.1 1.6 1.3 1.9 3.3 3.2 4.7 1 1.2 1.7 2.5 2.6 3.7.1.3.3.8.6 1 0 1.2.8 1.6 1.3 2.6.6.4.4 1.1 1 1.6.4.4.8 1.3 1.2 1.8.4 0 .6.1.7.3z"/><path id="XMLID_11_" class="st0" d="M56.1 12.3c-1.7-.3-1.7-2.1-3-2.6-.5-.4-2.2.3-1.6 1.9-.5.6.2 1.8-.4 2.5.1.8-.1 1.5-.3 2.2-.4.5-.6-.3-.9-.4-.3 0-1-1-1.2-1.2-1.6-.9-2.2 1.4-2 2.8-.5 1.1 0 2.1-.3 3.3-.1.5.3 1.3-.4 1.4-.7-.8-1.3-1.6-2.4-1.4-1.1.7-1 2.1-.9 3-.7 1-.1 2.1-.7 3.5 0 .8.1 1.4-.3 2.1-.8-.8-1.8-1.6-3-1.3-.5-.1-.9.3-.9 1 .1.9.3 3 .4 3.5l-.5 2.4c-.5 0-.7-.5-1-.8-.8-.8-1.3-.4-1.7.2-.2 1.9 0 3.5 0 5.5-.6-.1-1-.4-1.5-.6-.8-.5-1.8.1-1.1 1.7 0 1.2.1 2.5.3 3.7.5.3.1 1.2.4 1.6-.1.1-.3.5-.6.9l-.1.2c-.1.3-.3.9.7.9h1.1c.2-.3.4-.6.6-1.1 2.2-2.8 4.1-5.7 6-8.7.7-2 2.3-3.6 3-5.5 1.2-1.6 2.3-3 3.3-4.8 0-.4.7-.5.4-1 .8-.3.5-1.4 1.2-1.8 1-1.2 1.4-2.8 2.2-4.2l1.1-1.6c.5-.9 1.3-1.5 1.5-2.4.7-.1.5-1 1.1-1.3.4-.5 2.4-3 1.5-3.6z"/><path class="st0" d="M.7 70.2s2.2-.2 3.7-.2c2.4 0 5.6.1 5.6 3.2 0 2.2-2.5 3.3-2.5 3.3s3.5.5 3.5 3.6c0 3.5-3.5 4.4-6.7 4.4-1.5 0-3.5-.1-3.5-.1v-14.2zm3.6 6c2.2 0 3.2-1 3.2-2.8 0-1.8-1.7-2.3-3.2-2.3-.7 0-1.4.1-1.4.1v4.8c0 .1.7.2 1.4.2zm.5 7.1c2.2 0 3.6-1 3.6-2.9s-1.5-3-3.7-3c-.8 0-1.1 0-1.7.1v5.5c-.1 0 .6.3 1.8.3zM17.1 70.1h2.4l5.4 14.2h-2.3l-1.7-4.6h-5.5l-1.6 4.6h-1.9l5.2-14.2zm3.2 8.3l-2.3-6.2-2.2 6.2h4.5zM32.4 69.8c2.8 0 5 .7 5 .7l-.2 2.1c-.5-.3-2.5-1.5-4.9-1.5-3.2 0-4.1 2.7-4.1 5.4 0 4.2 2.2 6.6 5.4 6.6 2.1 0 3.8-.8 3.8-.8v1.2s-1.6 1.2-4.7 1.2c-4 0-6.9-2.4-6.9-7.8s3.6-7.1 6.6-7.1zM39.8 70.1h2.2v14.2h-2.2v-14.2zm6.6 2.4c1.5-1.6 1.7-2.4 1.7-2.4h2.8l-6 6.4 5.9 7.8h-3l-5.3-7.7 3.9-4.1zM60.9 71.5h-4.8v-1.4h11.9v1.4h-4.8v12.8h-2.2v-12.8zM75.4 69.8c3.6 0 6.5 2.5 6.5 7.4 0 5.4-3.7 7.4-7.1 7.4-3.6 0-6.5-2.5-6.5-7.4 0-5.3 3.7-7.4 7.1-7.4zm4 8.1c0-4.1-2-6.7-4.7-6.7-2.4 0-3.9 2-3.9 5.3 0 4.1 2 6.7 4.7 6.7 2.4 0 3.9-2 3.9-5.3zM93 71.5h-4.8v-1.4h11.8v1.4h-4.8v12.8h-2.2v-12.8zM107.4 69.8c3.6 0 6.5 2.5 6.5 7.4 0 5.4-3.7 7.4-7.1 7.4-3.6 0-6.5-2.5-6.5-7.4 0-5.3 3.7-7.4 7.1-7.4zm4.1 8.1c0-4.1-2-6.7-4.7-6.7-2.4 0-3.9 2-3.9 5.3 0 4.1 2 6.7 4.7 6.7 2.4 0 3.9-2 3.9-5.3zM116.7 70.2s2.2-.2 3.7-.2c3 0 6.3.3 6.3 4 0 3.1-2.3 4.3-4.3 4.7-.6.1-1.4.2-2 .2h-1.4v5.5h-2.2v-14.2zm4 7.4c2.2 0 3.7-.9 3.7-3.3 0-2.7-1.9-3.1-4-3.1-.8 0-1.4.1-1.4.1v6c-.1.1.5.3 1.7.3z"/></svg>