<?xml version="1.0" encoding="utf-8"?>
<!-- Generator: Adobe Illustrator 18.1.1, SVG Export Plug-In . SVG Version: 6.00 Build 0)  -->
<svg version="1.1" id="Layer_1" xmlns="http://www.w3.org/2000/svg" xmlns:xlink="http://www.w3.org/1999/xlink" x="0px" y="0px"
	 viewBox="0 0 216 136.8" enable-background="new 0 0 216 136.8" xml:space="preserve">
<g>
	<g>
		<path fill="#81459A" d="M124.3,65h-10.6V39.8c-0.2-5.3-4.7-9.6-10.2-9.6c-5.3,0-9.8,4.3-10,9.6V65H82.8V39.8
			c0.2-11.2,9.5-20.3,20.7-20.3c11.4,0,20.5,9.1,20.8,20.3V65z M103.5,0.2c-23,0-42,18.9-42,42.1c0,23.1,18.9,42.1,42,42.1
			c23.2,0,42.1-18.9,42.1-42.1C145.6,19.1,126.7,0.2,103.5,0.2"/>
		<path fill="#520A76" d="M118.8,26.2L118.8,26.2c3.2,3.6,5.3,8.3,5.5,13.6V65h-10.6V39.8c-0.2-5.3-4.7-9.6-10.2-9.6
			c-5.3,0-9.8,4.3-10,9.6V65H82.8l16.7,19.2c1.3,0.1,2.7,0.2,3.9,0.2c18.9,0,35-12.6,40.3-29.8L118.8,26.2z"/>
	</g>
	<g>
		<path fill="#7A9B49" d="M136.1,120.5c-1.4,1.4-3,2.1-4.8,2.1h-0.1c-0.5,0-0.9-0.1-1.3-0.1c-3.2-0.7-5.6-3.5-5.6-6.9
			c0-1.6,0.4-3,1.2-4.1c0.2-0.3,0.5-0.5,0.8-0.8c1.4-1.4,3-2,4.9-2s3.5,0.7,4.9,2.1c1.4,1.4,2.1,3.1,2.1,5.1
			C138.1,117.5,137.5,119.1,136.1,120.5 M131.2,102.9L131.2,102.9c-6.8,0-12.4,5.6-12.4,12.4c0,0.3,0,0.7,0.1,1
			c0.1,1.4,0.3,2.7,1,4.1c0.6,1.5,1.6,2.8,2.7,3.9c1.1,1,2.3,1.7,3.7,2.3c1.4,0.6,2.8,0.8,4.4,0.8h0.5c1.4-0.1,2.6-0.3,3.8-0.8
			c0.8-0.3,1.4-0.8,2.1-1.2c0.5-0.3,1-0.7,1.4-1.1v0.1c0,2.3-0.7,4.2-2.1,5.6c-1.3,1.4-3.1,2.1-5.2,2.1h-0.1
			c-1.2-0.1-2.3-0.3-3.4-0.9c-1-0.6-1.8-1.4-2.4-2.5h-5.2c0.8,2.6,2.3,4.5,4.1,5.8c1.9,1.3,4.1,1.9,6.8,2h0.2c3.8,0,6.7-1.2,8.9-3.4
			c2.1-2.3,3.2-5.4,3.2-9.5v-7.7v-0.6v-0.8C143,108,137.7,102.9,131.2,102.9"/>
		<path fill="#7A9B49" d="M196.7,103.6c-3.2,0-6.1,1.4-8.1,3.6c-2-2.3-4.9-3.6-8.1-3.6c-6,0-10.8,4.7-10.9,10.7v13.2h5.6v-13.2
			c0.1-2.9,2.5-5.1,5.4-5.1c2.8,0,5.2,2.2,5.3,5.1v13.2h0.1h5.5v-13.2h0.1c0.1-2.9,2.5-5.1,5.3-5.1c2.9,0,5.2,2.2,5.4,5.1v13.2h5.6
			v-13.2C207.4,108.3,202.6,103.6,196.7,103.6"/>
		<polygon fill="#7A9B49" points="156.5,120.4 150.9,104.2 145.1,104.2 153.5,126.7 150.3,134.9 155.9,134.9 168.4,104.2 
			162.7,104.2 		"/>
		<path fill="#81459A" d="M10.9,103.6c-5.9,0-10.8,4.7-10.9,10.7v13.2h5.6v-13.2c0.1-2.9,2.5-5.1,5.4-5.1c2.8,0,5.2,2.2,5.3,5.1
			v13.2h5.6v-13.2C21.6,108.3,16.8,103.6,10.9,103.6"/>
		<path fill="#81459A" d="M37.3,113.3h-6.3c0.4-1.4,1.2-2.6,2.3-3.4c1.2-0.9,2.5-1.3,3.9-1.3h0.1c1.6,0,2.9,0.4,3.9,1.2
			c1.1,0.8,1.9,2,2.3,3.6H37.3z M47.1,108.7c-1.2-1.6-2.7-3-4.5-3.8c-1.7-0.9-3.5-1.3-5.4-1.4h-0.1c-1.6,0-3.2,0.3-4.7,1
			c-1.4,0.7-2.8,1.6-4,2.9c-1.1,1.2-1.9,2.4-2.5,3.8c-0.5,1.4-0.8,3-0.8,4.5c0,1.6,0.3,3.2,0.9,4.7c0.6,1.4,1.4,2.8,2.5,3.9
			c1.2,1.2,2.5,2.1,3.9,2.7c1.4,0.6,3,0.9,4.7,0.9h0.1c2.5,0,4.8-0.7,6.8-2.1c1.9-1.4,3.4-3.4,4.4-5.8h-5.8
			c-0.5,0.9-1.3,1.6-2.3,2.1c-1,0.5-2,0.7-3.2,0.8h-0.1c-1.9,0-3.3-0.5-4.5-1.4c-1.2-1-1.8-2.3-2-4h6.5h12.1V117v-0.6
			c0-1.6-0.1-3-0.5-4.3C48.5,110.8,47.9,109.7,47.1,108.7"/>
		<path fill="#81459A" d="M78.1,114.2v13.2h5.6v-13.2c0.1-2.9,2.5-5.1,5.4-5.1h0.1v-5.6H89C83.1,103.6,78.2,108.3,78.1,114.2"/>
		<path fill="#81459A" d="M108.4,120.7c-1.2,1.3-2.7,1.9-4.7,1.9c-2.1,0-3.6-0.6-4.8-1.9c-1.2-1.2-1.8-3-1.8-5.1
			c0-2,0.6-3.6,1.9-4.9c1.2-1.2,2.7-1.9,4.7-1.9c1.8,0,3.4,0.6,4.6,1.9c1.2,1.2,1.9,2.9,1.9,4.8
			C110.2,117.7,109.6,119.4,108.4,120.7 M114.8,110.9c-0.6-1.6-1.6-2.9-2.7-4.1c-1.2-1.1-2.5-2-3.9-2.5c-1.4-0.5-2.9-0.8-4.4-0.8
			h-0.1c-1.6,0-3.1,0.3-4.6,1c-1.4,0.6-2.7,1.5-3.9,2.7c-1.2,1.2-2,2.5-2.6,3.9c-0.6,1.4-0.9,3-0.9,4.7c0,1.6,0.3,3.1,0.9,4.6
			c0.5,1.4,1.4,2.7,2.5,4c1.2,1.2,2.5,2.1,3.9,2.7c1.4,0.6,3,1,4.7,1h0.1c1.6,0,3.2-0.3,4.7-0.9c1.5-0.6,2.8-1.6,4-2.7
			c1.1-1.2,2-2.5,2.5-4c0.6-1.4,0.9-3,0.9-4.8C115.8,113.9,115.5,112.4,114.8,110.9"/>
		<path fill="#81459A" d="M68.8,116.8c-0.1,2.8-2.5,5.1-5.3,5.1c-2.9,0-5.2-2.3-5.4-5.1v-13.2h-5.6v13.2c0.1,5.9,5,10.7,10.9,10.7
			c5.9,0,10.7-4.7,10.9-10.7v-13.2h-5.6V116.8z"/>
		<path fill="#7A9B49" d="M213.5,123.8c-0.1-0.1-0.4-0.1-0.7-0.1h-0.5v1.2h0.5c0.2,0,0.4,0,0.6-0.1c0.2-0.1,0.3-0.3,0.3-0.5
			C213.7,124.1,213.7,123.9,213.5,123.8 M212.9,123.3c0.4,0,0.7,0,0.9,0.1c0.3,0.1,0.5,0.4,0.5,0.8c0,0.3-0.1,0.5-0.3,0.7
			c-0.1,0.1-0.3,0.1-0.5,0.2c0.3,0,0.5,0.2,0.6,0.3c0.1,0.2,0.2,0.3,0.2,0.5v0.2c0,0.1,0,0.2,0,0.2c0,0.1,0,0.1,0,0.2l0,0h-0.6
			c0,0,0,0,0,0c0,0,0,0,0,0l0-0.1v-0.3c0-0.4-0.1-0.6-0.3-0.8c-0.1-0.1-0.3-0.1-0.7-0.1h-0.5v1.3h-0.6v-3.4H212.9z M211.1,123.1
			c-0.5,0.5-0.8,1.1-0.8,1.9c0,0.7,0.3,1.4,0.8,1.9c0.5,0.5,1.1,0.8,1.9,0.8c0.7,0,1.3-0.3,1.9-0.8c0.5-0.5,0.8-1.1,0.8-1.9
			c0-0.7-0.3-1.3-0.8-1.9c-0.5-0.5-1.1-0.8-1.9-0.8C212.2,122.3,211.6,122.6,211.1,123.1 M215.1,127.1c-0.6,0.6-1.3,0.9-2.2,0.9
			c-0.8,0-1.6-0.3-2.2-0.9c-0.6-0.6-0.9-1.3-0.9-2.2c0-0.8,0.3-1.6,0.9-2.2c0.6-0.6,1.3-0.9,2.1-0.9c0.8,0,1.6,0.3,2.2,0.9
			c0.6,0.6,0.9,1.3,0.9,2.2C216,125.8,215.7,126.5,215.1,127.1"/>
	</g>
</g>
</svg>
