<?xml version="1.0" encoding="UTF-8" standalone="no"?>
<!-- Generator: Adobe Illustrator 13.0.2, SVG Export Plug-In . SVG Version: 6.00 Build 14948)  -->
<svg
   xmlns:dc="http://purl.org/dc/elements/1.1/"
   xmlns:cc="http://creativecommons.org/ns#"
   xmlns:rdf="http://www.w3.org/1999/02/22-rdf-syntax-ns#"
   xmlns:svg="http://www.w3.org/2000/svg"
   xmlns="http://www.w3.org/2000/svg"
   xmlns:sodipodi="http://sodipodi.sourceforge.net/DTD/sodipodi-0.dtd"
   xmlns:inkscape="http://www.inkscape.org/namespaces/inkscape"
   version="1.0"
   id="svg2"
   inkscape:output_extension="org.inkscape.output.svg.inkscape"
   sodipodi:version="0.32"
   sodipodi:docbase="C:\Documents and Settings\Flanker\Desktop"
   sodipodi:docname="Heta_uc_lc.svg"
   inkscape:version="0.46"
   x="0px"
   y="0px"
   width="3000px"
   height="2000px"
   viewBox="0 -410 3000 2000"
   enable-background="new 0 -410 3000 2000"
   xml:space="preserve"><metadata
   id="metadata2445"><rdf:RDF><cc:Work
       rdf:about=""><dc:format>image/svg+xml</dc:format><dc:type
         rdf:resource="http://purl.org/dc/dcmitype/StillImage" /></cc:Work></rdf:RDF></metadata>
<defs
   id="defs2438">
	
	
		<inkscape:perspective
   id="perspective12"
   inkscape:persp3d-origin="300 : 400 : 1"
   inkscape:vp_z="700 : 600 : 1"
   inkscape:vp_y="0 : 1000 : 0"
   inkscape:vp_x="-50 : 600 : 1"
   sodipodi:type="inkscape:persp3d">
		</inkscape:perspective>
	
		<inkscape:perspective
   id="perspective2341"
   inkscape:persp3d-origin="300 : 400 : 1"
   inkscape:vp_z="700 : 600 : 1"
   inkscape:vp_y="0 : 1000 : 0"
   inkscape:vp_x="-50 : 600 : 1"
   sodipodi:type="inkscape:persp3d">
		</inkscape:perspective>
</defs>
<sodipodi:namedview
   width="3000px"
   height="2000px"
   id="base"
   showgrid="false"
   inkscape:showpageshadow="false"
   inkscape:current-layer="svg2"
   inkscape:window-y="25"
   inkscape:window-x="0"
   inkscape:cy="984.31738"
   inkscape:cx="1288.6594"
   inkscape:zoom="0.125"
   pagecolor="#ffffff"
   bordercolor="#666666"
   borderopacity="1.0"
   objecttolerance="10.0"
   gridtolerance="10.0"
   guidetolerance="10.0"
   inkscape:pageopacity="0.0"
   inkscape:pageshadow="2"
   inkscape:window-width="1023"
   inkscape:window-height="695">
	</sodipodi:namedview>


<g
   id="g2454"
   transform="translate(-107.38198,0)"><path
     id="path2452"
     d="M 644.01486,-258.68558 L 644.01486,-294.75804 L 1154.8762,-294.75804 L 1154.8762,-258.68558 C 1130.8274,-258.68408 1109.0541,-257.05931 1089.5561,-253.81076 C 1070.0571,-251.20963 1053.1584,-245.36044 1038.86,-236.26221 C 1025.2105,-227.16149 1014.4863,-214.1628 1006.6874,-197.26516 C 998.88752,-180.36553 994.98781,-158.26712 994.98831,-130.97043 L 994.98831,297.99712 L 1538.0222,297.99712 L 1538.0222,369.16717 L 994.98831,369.16717 L 994.98831,863.4546 C 994.98781,890.75278 998.88752,912.85069 1006.6874,929.74933 C 1014.4863,946.64847 1025.2105,959.64715 1038.86,968.74638 C 1053.1584,977.84611 1070.0571,984.02025 1089.5561,987.27029 C 1109.0541,989.86993 1130.8274,991.16975 1154.8762,991.16975 L 1154.8762,1027.2422 L 644.01486,1027.2422 L 644.01486,991.16975 C 668.71286,991.16975 691.13613,989.86993 711.28476,987.27029 C 731.43305,984.02025 748.65674,977.84611 762.95584,968.74638 C 777.25454,959.64715 788.3037,946.64847 796.10336,929.74933 C 803.90247,912.85069 807.80217,890.75278 807.80247,863.4546 L 807.80247,-130.97043 C 807.80217,-158.26712 803.90247,-180.36553 796.10336,-197.26516 C 788.3037,-214.1628 777.25454,-227.16149 762.95584,-236.26221 C 748.65674,-245.36044 731.43305,-251.20963 711.28476,-253.81076 C 691.13613,-257.05931 668.71286,-258.68408 644.01486,-258.68558"
     style="font-size:40px;font-style:normal;font-variant:normal;font-weight:normal;font-stretch:normal;text-align:start;line-height:100%;writing-mode:lr-tb;text-anchor:start;fill:#000000;fill-opacity:1;stroke:none;stroke-width:1px;stroke-linecap:butt;stroke-linejoin:miter;stroke-opacity:1;font-family:IFAO-Grec Unicode;-inkscape-font-specification:IFAO-Grec Unicode" /><path
     id="text2383"
     d="M 1954.3157,107.88669 L 1997.2125,107.88669 L 1997.2125,508.58119 L 2355.9852,508.58119 L 2355.9852,588.52552 L 1997.2125,588.52552 L 1998.1874,1027.2422 L 1835.3747,1027.2422 L 1835.3747,481.28351 C 1835.3745,377.29204 1831.4748,310.67185 1823.6756,281.42344 C 1815.876,252.17652 1796.3775,237.55257 1765.18,237.55207 C 1746.9813,237.55257 1724.883,242.42739 1698.885,252.17602 L 1685.2361,217.07843 L 1954.3157,107.88669"
     style="font-size:40px;font-style:normal;font-variant:normal;font-weight:normal;font-stretch:normal;text-align:start;line-height:100%;writing-mode:lr-tb;text-anchor:start;fill:#000000;fill-opacity:1;stroke:none;stroke-width:1px;stroke-linecap:butt;stroke-linejoin:miter;stroke-opacity:1;font-family:IFAO-Grec Unicode;-inkscape-font-specification:IFAO-Grec Unicode"
     transform="translate(214.7639,-2e-4)" /></g></svg>