<?xml version="1.0" encoding="utf-8"?>
<!-- Generator: Adobe Illustrator 18.0.0, SVG Export Plug-In . SVG Version: 6.00 Build 0)  -->
<!DOCTYPE svg PUBLIC "-//W3C//DTD SVG 1.1//EN" "http://www.w3.org/Graphics/SVG/1.1/DTD/svg11.dtd">
<svg version="1.1" id="Layer_1" xmlns="http://www.w3.org/2000/svg" xmlns:xlink="http://www.w3.org/1999/xlink" x="0px" y="0px"
	 viewBox="0 0 506.3 165" enable-background="new 0 0 506.3 165" xml:space="preserve">
<g>
	<g>
		<g>
			<path fill="#66BC6B" d="M484.2,83.5l-1.9,0l0.4,1.8c2.9,14.5,0.2,36.2-10.7,49.5c-6.4,7.8-14.7,11.8-24.6,11.8
				c-16,0-21.8-19-22.6-40.5c26.2-6.2,43.5-22.6,43.5-41.6c0-13.6-4.1-36.4-31.2-36.4c-25.6,0-38.6,38.3-41.2,64.9
				c-13.2-0.2-22.7-6.5-28.5-12c2.3-9.2,3.5-17.9,3.5-25.7c0-10.7-7.5-15.6-14.4-15.6c-10.1,0-20.3,9.7-20.3,28.3
				c0,11.2,4.3,20.3,12.7,27.1c-7.5,17.5-20,32.3-24.3,37.1c-3.3-7.2-14.2-32.8-17.5-60.7c4.1-11.3,6.4-20.4,6.4-24.8
				c0-7.1-4.3-11-12.1-11c-10.1,0-25.9,6.4-26.5,6.6l-0.9,0.4l0.1,1c0,0.2,4.8,22.7,9.6,47.2c-9.2,15.3-25.5,40.3-33.8,40.3
				c-14.9,0,9.7-76.3-1.1-78.6c-0.3-0.1-0.7,0-0.9,0.2c-5.2,3.2-63.4,35.6-141,35.6c0,0,0.1,1.5,0.7,2.9c0.5,1.1,1.6,2.1,1.6,2.1
				c22,2.7,53.2-0.3,76.9-3.6c-13.6,29.3-37.9,48.8-60.3,48.8c-41.8,0-74.2-50.8-74.2-50.8C64.7,76.4,86.2,39,117,39
				S161.4,56,161.4,56l3.5-5.5c0,0-14.4-50.5-55.3-50.5S25.4,66.9,0,82.3c0,0,34.9,82.7,111.1,82.7c64,0,80.1-61.2,83.1-76.3
				c15.6-2.3,26.4-4.5,26.4-4.5s-3.9,31.3-3.9,44.3c0,12.9,14.3,26.9,26.3,26.9c10.2,0,30.4-20.8,45.3-46.1l0.7,3
				c7.8,28.8,17.5,43.3,29,43.3c11.6,0,30.6-24,42.7-53.7c12.4,5.4,26.7,6.7,35.1,6.9c3.3,51.5,46.5,53,51.5,53c32,0,59-23,59-50.2
				C506.3,84,484.4,83.5,484.2,83.5z M445.2,61.9c0,0.2-0.3,17.1-19.9,25.8c1.8-22.6,7.4-43,11.3-43
				C440.7,44.7,445.2,51.3,445.2,61.9z"/>
			<path fill="#66BC6B" d="M222.4,41.5c-0.1,0.6,0.4,1.2,1,1.3c15.2,2.1,25.1-2.5,25.1-27.3c0-23.1-23.8-4.9-28.2-1.4
				c-0.4,0.3-0.5,0.9-0.3,1.4C224.4,24.6,223,37.6,222.4,41.5z"/>
		</g>
		<linearGradient id="SVGID_1_" gradientUnits="userSpaceOnUse" x1="263.8265" y1="118.3092" x2="288.7285" y2="110.0085">
			<stop  offset="0" style="stop-color:#66BC6B"/>
			<stop  offset="1" style="stop-color:#368F43"/>
		</linearGradient>
		<path fill="url(#SVGID_1_)" d="M284,90.9c-5.9,9.9-14.8,23.7-22.6,32.4c1.7,4.4,4.1,9.9,6.2,14.5c7-7.8,14.3-17.7,20.6-28.4
			L284,90.9z"/>
		<linearGradient id="SVGID_2_" gradientUnits="userSpaceOnUse" x1="340.2369" y1="124.6618" x2="354.6801" y2="99.2617">
			<stop  offset="0" style="stop-color:#66BC6B"/>
			<stop  offset="1" style="stop-color:#368F43"/>
		</linearGradient>
		<path fill="url(#SVGID_2_)" d="M354.5,98.7c-2.8-1.7-5.4-3.7-5.4-3.7c-5,11.7-12.3,22.2-17.8,29.3c2.6,3.7,7.1,8.6,10.4,12.1
			c6.8-9.3,13.6-21.4,19-34.6C360.6,101.9,357.4,100.5,354.5,98.7z"/>
		<linearGradient id="SVGID_3_" gradientUnits="userSpaceOnUse" x1="416.0119" y1="136.3176" x2="413.0236" y2="109.7554">
			<stop  offset="0" style="stop-color:#66BC6B"/>
			<stop  offset="1" style="stop-color:#368F43"/>
		</linearGradient>
		<path fill="url(#SVGID_3_)" d="M424.9,106.1c0,0-7.4,1.7-14.7,2.3c-7.3,0.7-14.5,0.4-14.5,0.4c1,14.8,5.2,25.4,10.9,33.1l27.1-2.2
			C427.9,132.3,425.4,119.7,424.9,106.1z"/>
		<linearGradient id="SVGID_4_" gradientUnits="userSpaceOnUse" x1="411.9198" y1="79.8569" x2="411.9198" y2="106.6265">
			<stop  offset="0" style="stop-color:#66BC6B"/>
			<stop  offset="1" style="stop-color:#368F43"/>
		</linearGradient>
		<path fill="url(#SVGID_4_)" d="M403.4,60.8L403.4,60.8c-0.9,2.4-1.7,4.8-2.4,7.3c-0.2,0.6-0.3,1.1-0.5,1.7
			c-1.4,4.9-2.5,9.8-3.3,14.6c-0.1,0.6-0.2,1.2-0.3,1.7c-0.4,2.3-0.7,4.6-0.9,6.8c17.3,0,29.3-5.1,29.3-5.1c0.1-1.7,0.3-3.4,0.5-5
			c0-0.4,0.1-0.9,0.1-1.3c0.1-1.3,0.3-2.6,0.5-3.9c0-0.3,0.1-0.7,0.1-1c0.5-3.4,1-6.6,1.6-9.6L403.4,60.8z M395.7,92.9
			C395.7,92.9,395.7,92.9,395.7,92.9L395.7,92.9C395.7,92.9,395.7,92.9,395.7,92.9z"/>
		<linearGradient id="SVGID_5_" gradientUnits="userSpaceOnUse" x1="176.7234" y1="123.7333" x2="176.7234" y2="90.5307">
			<stop  offset="0" style="stop-color:#66BC6B"/>
			<stop  offset="1" style="stop-color:#368F43"/>
		</linearGradient>
		<path fill="url(#SVGID_5_)" d="M159.3,125.3l16.4,6.9c7.9-11,12.6-22.7,15.4-31.7l3-11.8l-7.8,1.1
			C179.5,104.5,169.9,116.8,159.3,125.3z"/>
		<linearGradient id="SVGID_6_" gradientUnits="userSpaceOnUse" x1="308.6378" y1="55.2191" x2="304.4674" y2="61.8608">
			<stop  offset="0" style="stop-color:#66BC6B"/>
			<stop  offset="1" style="stop-color:#368F43"/>
		</linearGradient>
		<path fill="url(#SVGID_6_)" d="M307.3,71.4c4.1-11.3,6.4-20.4,6.4-24.8c0-0.4-0.1-0.8-0.1-1.2l-9.6,3
			C304.1,48.4,304.4,55,307.3,71.4z"/>
		<linearGradient id="SVGID_7_" gradientUnits="userSpaceOnUse" x1="364.2634" y1="69.1035" x2="361.9091" y2="78.0496">
			<stop  offset="0" style="stop-color:#66BC6B"/>
			<stop  offset="1" style="stop-color:#368F43"/>
		</linearGradient>
		<path fill="url(#SVGID_7_)" d="M359.4,63.4c0,0-2.6,7.6,8.2,17.5c2-8,3.1-15.5,3.4-22.4L359.4,63.4z"/>
	</g>
</g>
</svg>
