<?xml version="1.0" encoding="utf-8"?>
<!-- Generator: Adobe Illustrator 18.1.1, SVG Export Plug-In . SVG Version: 6.00 Build 0)  -->
<svg version="1.1" xmlns="http://www.w3.org/2000/svg" xmlns:xlink="http://www.w3.org/1999/xlink" x="0px" y="0px"
	 viewBox="0 0 249.6 216" enable-background="new 0 0 249.6 216" xml:space="preserve">
<g id="Layer_3">
	<rect fill="none" width="249.6" height="216"/>
</g>
<g id="Layer_4">
	<g>
		<path fill="none" d="M17.5,189.6H11H6.4c-0.4,0-0.7,0.5-0.7,1v3.7c0,0.6,0.3,1,0.7,1h3.9h7.2c0.4,0,0.7-0.5,0.7-1v-3.7
			C18.2,190.1,17.9,189.6,17.5,189.6z"/>
		<path fill="none" d="M17.5,189.6H11H6.4c-0.4,0-0.7,0.5-0.7,1v3.7c0,0.6,0.3,1,0.7,1h3.9h7.2c0.4,0,0.7-0.5,0.7-1v-3.7
			C18.2,190.1,17.9,189.6,17.5,189.6z"/>
		<path fill="#004069" d="M35,199.3h-7.4h-0.1c-0.4,0-0.7,0.4-0.7,0.9v3.2c0,0.5,0.3,0.8,0.7,0.9c0,0,0,0,0,0H35
			c0.4,0,0.7-0.4,0.7-0.9v-3.2C35.8,199.7,35.4,199.3,35,199.3z"/>
		<path fill="#004069" d="M13.8,215.4h10.1c1.3,0,2.4-2.8,3.1-7H10.7C11.3,212.6,12.5,215.4,13.8,215.4z"/>
		<path fill="#004069" d="M78.3,181.5h-6.8c-0.3,0-0.8,0-1.3,1.1c-0.8,1.6-1.6,5.8-1.6,16.4c0,1.8,0,5,0.2,8.2v1.1h-4.3
			c0.3,4.2,0.7,7,1.2,7h10.2h2.3c0.5,0,1-3.3,1.2-8.1H81c0.1-2.2,0.2-4.9,0.2-8.2C81.3,194.7,81.3,181.5,78.3,181.5z M78.5,207.2
			c-0.2,2.7-0.5,4.4-0.9,4.4c-0.3,0-0.6-1.7-0.9-4.4c-0.2-2.2-0.3-5.1-0.3-8.2c0-7,0.5-12.7,1.1-12.7c0.6,0,1.1,5.7,1.1,12.7
			C78.8,202.1,78.7,205,78.5,207.2z"/>
		<path fill="#004069" d="M121.3,186.1h-6c-0.5,0-0.9,0.6-1.3,1.7c-0.4-1.1-0.8-1.7-1.3-1.7h-6c-1.5,0-2.8,6.6-2.8,14.6
			c0,8.1,1.2,14.6,2.8,14.6h6c0.5,0,0.9-0.6,1.3-1.7c0.4,1.1,0.8,1.7,1.3,1.7h6c1.5,0,2.8-6.6,2.8-14.6
			C124.1,192.6,122.9,186.1,121.3,186.1z M121.6,210.8c-1.1,0-1.9-4.5-1.9-10.1c0-5.6,0.9-10.1,1.9-10.1c1.1,0,1.9,4.5,1.9,10.1
			C123.6,206.3,122.7,210.8,121.6,210.8z"/>
		<polygon fill="none" points="112.2,163.9 246.6,181.2 246.6,178.8 112.2,160 		"/>
		<path fill="#004069" d="M112.2,94.2h-71V98v15.7h3.3V98h63.8v77.8H90.9v3.4h21.3l136.7,11.6v-50.3L112.2,94.2z M246.6,181.2
			l-134.4-17.2v-4l134.4,18.8V181.2z"/>
		<path fill="#004069" d="M35.8,203.4c0,0.5-0.3,0.9-0.7,0.9h-7.5c0,0,0,0,0,0c-0.4,0-0.7-0.4-0.7-0.9v-3.2c0-0.5,0.3-0.9,0.7-0.9
			h0.1H35c0.4,0,0.7,0.4,0.7,0.9V203.4z"/>
		<path fill="none" d="M60.4,137.6H41.2H12.1c-2.1,0-3.2,1.7-3.4,2.9l-4.3,23.9l36.8,0l19,0l3.4-22.8
			C64,138.9,62.7,137.7,60.4,137.6z"/>
		<path fill="none" d="M66.3,143.4l-3,20.7l8.4-4.6c0,0,2.2-1.1,2.2-4.2V139l-3.7-0.5C67.9,138.2,66.9,139.2,66.3,143.4z"/>
		<path fill="#004069" d="M101.6,200.7c0-1.3,0-3.6,0.2-6.1l-15.8-1v-14.4v-53.5c0-4-1.6-6.6-5.9-6.6H41.2h-9.3
			c-11.2,0-24,12.1-25.7,19.9l-4.9,26V190c0,0-0.3,7.9,0.9,12c1.5,5.1,2.2,5.2,2.2,5.2h2.3h3.9h16.7h37.3h3.3
			c-0.1-2.3-0.2-5-0.2-8.2c0-9.5,0.6-14.1,1.5-16.4c0.7-1.8,1.6-2.1,2.5-2.1h6.8c2.9,0,4,5.2,4,18.5c0,3.3-0.1,6-0.2,8.2h4h15.8
			C101.7,204.6,101.6,202.1,101.6,200.7z M18.2,194.4c0,0.6-0.3,1-0.7,1h-7.2H6.4c-0.4,0-0.7-0.5-0.7-1v-3.7c0-0.6,0.3-1,0.7-1H11
			h6.4c0.4,0,0.7,0.5,0.7,1V194.4z M59.2,194.4c0,0.6-0.3,1-0.7,1H45.7c-0.4,0-0.7-0.5-0.7-1v-3.7c0-0.6,0.3-1,0.7-1h12.8
			c0.4,0,0.7,0.5,0.7,1V194.4z M59.2,179.2v3.9c0,0.6-0.5,1.2-1.2,1.2H6.8c-0.6,0-1.2-0.5-1.2-1.2v-7.9c0-0.6,0.5-1.2,1.2-1.2h34.4
			H58c0.6,0,1.2,0.5,1.2,1.2V179.2z M41.2,164.4l-36.8,0l4.3-23.9c0.2-1.2,1.3-2.8,3.4-2.9h29.2h19.2c2.3,0,3.6,1.2,3.2,4l-3.4,22.8
			L41.2,164.4z M73.9,155.4c0,3.1-2.2,4.2-2.2,4.2l-8.4,4.6l3-20.7c0.6-4.2,1.6-5.2,3.9-4.9l3.7,0.5V155.4z"/>
		<path fill="none" d="M60.4,137.6H41.2H12.1c-2.1,0-3.2,1.7-3.4,2.9l-4.3,23.9l36.8,0l19,0l3.4-22.8
			C64,138.9,62.7,137.7,60.4,137.6z"/>
		<path fill="#004069" d="M125.2,200.7c0,1.4,0,3.9-0.3,6.5h3.8V196l-3.7-0.2C125.1,197.8,125.2,199.6,125.2,200.7z"/>
		<path fill="#004069" d="M246.9,201.6l-6.7-0.2c-0.8-2.6-2.3-4.3-3.9-4.3h-10c-0.8,0-1.5,0.4-2.1,1c-0.8-1.1-1.7-1.7-2.8-1.7h-10.4
			c-1,0-1.9,0.6-2.7,1.6c-0.9-1.7-2.1-2.8-3.5-2.8h-11c-1.8,0-3.4,1.8-4.3,4.6l-17.1-0.5c-0.9-2.5-2.4-4.1-4.1-4.1h-11
			c-2.8,0-5.1,4.5-5.1,10c0,5.5,2.3,10,5.1,10h11c2.7,0,4.8-4,5.1-9.1h15.3c0.2,5.1,2.4,9.1,5.1,9.1h11c1.2,0,2.3-0.8,3.1-2.2
			c0.8,1.4,1.9,2.2,3.1,2.2h1h9.4h0.6c0.8,0,1.5-0.4,2.2-1.1c0.6,0.7,1.4,1.1,2.2,1.1h10c2.6,0,4.6-4.1,4.6-9.1c0,0,0,0,0,0h6V201.6
			z M208.8,206.2c-0.1,1.6-0.4,3.1-0.9,4.3c-0.2,0.5-0.4,0.9-0.7,1.2c-0.7,1-1.5,1.6-2.4,1.6c-2.1,0-3.8-3.1-4-7.1
			c0-0.3,0-0.6,0-0.9c0-1.9,0.3-3.7,0.9-5.1c0.7-1.8,1.9-2.9,3.1-2.9c1,0,2,0.8,2.7,2.1c0.2,0.3,0.3,0.7,0.5,1.1
			c0.1,0.2,0.1,0.3,0.2,0.5c0.4,1.3,0.7,2.7,0.7,4.4C208.8,205.6,208.8,205.9,208.8,206.2z M225.2,206.2c-0.1,2.9-0.9,5.3-2.2,6.5
			c-0.5,0.5-1,0.7-1.6,0.7c-2,0-3.7-3.2-3.8-7.2c0-0.1,0-0.2,0-0.3c0-2,0.4-3.8,1-5.1c0.7-1.5,1.7-2.4,2.8-2.4c0.7,0,1.3,0.4,1.9,1
			c0.4,0.4,0.7,1,1,1.6c0.6,1.3,0.9,3,0.9,4.9C225.2,206,225.2,206.1,225.2,206.2z M236.3,213.5c-2,0-3.7-3.3-3.7-7.3c0,0,0,0,0,0
			c0-1.9,0.4-3.7,1-5c0.7-1.4,1.6-2.3,2.7-2.3c1.1,0,2.1,0.9,2.7,2.4c0.6,1.3,0.9,3,0.9,4.8c0,0,0,0,0,0
			C239.9,210.3,238.3,213.5,236.3,213.5z"/>
	</g>
</g>
</svg>
