<?xml version="1.0" encoding="utf-8"?>
<!-- Generator: Adobe Illustrator 19.1.0, SVG Export Plug-In . SVG Version: 6.00 Build 0)  -->
<svg version="1.1" id="Layer_1" xmlns="http://www.w3.org/2000/svg" xmlns:xlink="http://www.w3.org/1999/xlink" x="0px" y="0px"
	 viewBox="0 0 631.8 493.6" style="enable-background:new 0 0 631.8 493.6;" xml:space="preserve">
<style type="text/css">
	.st0{opacity:0.65;}
	.st1{fill:#24AD90;}
</style>
<g class="st0">
	<path class="st1" d="M4.5,476.3c0.8-3.7,1.8-7.2,2.2-10.8c0.1-1-1.2-2.6-2.3-3.3c-5.2-3.2-5.7-5.9-1.9-10.8
		c4.6-6,8.7-12.4,13.6-18.1c6-6.9,10.8-15,19.1-19.7c1.9-1.1,3.2-3.3,4.8-5c3.2-3.5,6.2-7.2,9.6-10.5c11.2-10.8,22.4-21.5,33.9-32
		c4-3.7,8.9-6.5,13.2-10c3.6-2.9,7.2-6,10.4-9.3c4.8-4.8,9.3-9.9,13.9-14.9c3.9-4.2,7.9-8.3,11.7-12.5c3.3-3.5,6.5-7.1,9.7-10.7
		c2.5-2.8,4.9-5.7,7.3-8.7c5-6.2,10.2-12.4,15-18.8c7-9.3,13.8-18.8,20.7-28.1c3.1-4.2,6.5-8.2,9.6-12.4c1.9-2.5,3.3-5.4,5.3-7.9
		c6-7.5,12.3-14.9,18.3-22.4c8.2-10.2,16.4-20.4,24.6-30.6c5.1-6.4,9.9-13.1,15.3-19.3c7.5-8.6,15.5-16.7,23.1-25.1
		c3.4-3.7,6.4-7.8,9.8-11.5c3.6-3.9,7.2-7.8,11.1-11.4c4.5-4.2,9.3-7.9,13.9-12c1.6-1.5,2.6-3.7,4.3-5c5.3-4.3,10.8-8.5,16.3-12.6
		c5.7-4.3,11.6-8.4,17.2-12.8c5.2-4.1,10.5-8,14.9-12.8c5.9-6.4,11.7-13,15.5-21c2.2-4.6,5.2-9,6.8-13.8c1.4-4.2,4.8-6.4,7.1-9.6
		c2.6-3.5,6.1-5.8,9.3-8.1c2.7-2,5.9-4.6,10-4.1c2,0.2,4-0.4,6-0.6c3.7-0.3,5.8,1.1,7.5,4.5c0.3,0.6,1,1.3,1.6,1.3
		c3.2,0.3,2.7,1.5,1.3,3.6c-2,2.9-2.2,10.2,0.4,11.8c4,2.4,3.9,6,3.3,9.1c-0.9,4.7-2.5,9.5-4.8,13.7c-4.1,7.6-8.9,14.8-13.5,22.1
		c-2.3,3.7-5.1,7.2-7.1,11c-4.7,9-13.1,14.1-20.5,20.3c-4.1,3.4-8,6.9-11.8,10.7c-4.5,4.4-8.7,9.1-13,13.7c-0.9,1-1.3,2.3-2.2,3.3
		c-7.6,8.2-16.2,15.2-24.5,22.7c-7.8,7-14.5,15.1-21.7,22.8c-1.9,2-3.5,4.3-5.2,6.4c2.4,3.2,4.7,6.1,6.8,9.1c2.7,3.9,5.4,7.8,7.6,12
		c6.2,12,12.4,24,18.2,36.1c3.1,6.4,5.5,13.2,8.5,19.7c1.8,3.9,4.3,7.4,6.1,11.2c2.1,4.6,3.7,9.4,5.7,14
		c4.7,10.9,9.5,21.9,14.5,32.8c3.1,6.8,6.4,13.7,10.1,20.2c4.1,7.2,6,15.1,8.8,22.7c3.4,9.1,7.2,18,10.8,27c0.7,1.7,1.4,3.4,1.8,5.2
		c1.2,5.1,3.1,6.8,8.2,6.5c9-0.7,18-1.8,27-2.3c10.3-0.6,20.6-0.8,30.9-1.3c9.8-0.5,19.7-0.9,29.5-1.7c21.2-1.6,42.3-3.3,63.5-4.9
		c10.4-0.8,20.8-1.6,31.2-2.1c4.5-0.2,9,0.1,13.4,0.4c1.1,0.1,2.6,1,3.1,1.9c0.3,0.6-0.5,2.2-1.2,3c-2,2.2-0.4,4.1,0.6,5.8
		c0.4,0.8,2.1,1,3.2,1.4c0.8,0.3,2,0.5,2.3,1.1c0.4,0.9,0.5,2.4,0.1,3.2c-2.1,3.7-2.2,3.6,1.6,5.3c0.6,0.3,1.1,1,1.6,1.6
		c1.3,1.6,2.5,3.2,4,5c-2.3,1.1-2.5,5.4-6.1,6.4c-1.1,0.3-2.2,0.7-3.3,1.1c-3.3,1.1-3.5,1.7-1.6,4.7c0.1,0.2,0.2,0.5,0.5,1.1
		c-1.5,0.6-3.1,1.1-4.5,1.9c-0.9,0.5-1.6,1.5-2.4,2.3c0.7,0.7,1.5,1.4,2.2,2.1c0.3,0.3,0.8,0.4,1.2,1c-5.8,1.7-10.9,5.6-17.6,3.8
		c-2.2-0.6-4.8,0.2-7.1,0.5c-3.9,0.6-7.8,1.4-11.7,1.9c-3.1,0.4-6.3,0.7-9.4,0.8c-6,0.1-12-0.4-18,0c-2.8,0.2-6.1-1.4-8.7,1.6
		c-0.7,0.8-2.7,0.9-4.1,0.8c-6-0.5-11.8,0.1-17.7,1.4c-5.5,1.2-11.2,1.5-16.8,2.1c-3.3,0.4-6.5,0.8-9.8,1c-2.3,0.1-4.6-0.1-7-0.2
		c-1.1,0-2.2-0.3-3.2-0.1c-6.2,1-12.3,1.7-18.6,1.1c-6.4-0.6-12.9-0.2-19.3,0c-2.5,0.1-4.9,0.9-7.3,1.4c-0.4,0.1-0.7,0.3-1.1,0.3
		c-4.7,0.1-9.4,0.1-14.1,0.3c-2,0.1-4.1,0-6,0.5c-4.7,1.4-9.3,1.3-14.1,0.7c-3.1-0.4-6.4,0.9-9.5,0.6c-3.5-0.3-6.7,0.1-10.1,0.6
		c-2.1,0.3-4.4-0.2-6.5-0.1c-6.1,0.3-12.2,0.7-18.2,0.9c-2.6,0.1-5.1-0.6-7.7-0.6c-3.4,0.1-6.9,0.8-10.3,1c-3,0.2-6.1-0.1-9.1,0
		c-1.2,0-2.3,0.7-3.5,0.9c-1.4,0.3-3.2,0.9-4.2,0.4c-3.5-2-6.6,0.3-9.8,0.6c-7.4,0.7-14.7,2.4-22.1,3.2c-10,1.1-20.1,1.9-30.2,2.7
		c-9,0.7-18,1-27,1.8c-5,0.4-9.9,1.5-14.8,2.3c-0.4,0.1-0.8,0.4-1.1,0.3c-8.3-2.2-15.4,2.3-23,3.9c-5.4,1.1-10.9,2-16.2,3.4
		c-3.3,0.9-6.4,2.7-9.7,3.8c-3,1-6.2,1.9-9.3,2.2c-3.2,0.3-5.9,1.4-8.8,2.6c-1.9,0.8-4,1.3-6.1,1.6c-6.7,1.1-13.3,2.2-20,3.1
		c-7.6,1-15.2,1.6-22.7,2.6c-2,0.2-4,1-6,1.3c-11.5,1.6-23,2.8-34.4,4.7c-8.1,1.4-15.8-1-23.7-1.3c-1.5-0.1-3.3,0.5-4.4,1.4
		c-1.6,1.4-3,1.7-5,1c-3.5-1.3-7.2-2.3-10.7-3.5c-0.4-0.1-1-0.3-1.4-0.1c-3,1.4-5.1-0.3-7.3-2c-1.4-1.2-3.3-1.9-5.1-2.4
		c-2.2-0.6-3.2-1.3-2.3-3.8C6.5,479.2,6.7,476.8,4.5,476.3z M351.1,394.6c-2-5.4-3.5-10.2-5.6-14.7c-4.3-9.3-8.9-18.5-13.4-27.8
		c-2.8-5.8-5.9-11.4-8.5-17.3c-3.4-7.9-6.3-16-9.7-23.9c-3.6-8.2-7.7-16.3-11.5-24.4c-2-4.2-3.8-8.5-5.9-12.6
		c-3.6-7-7.5-13.9-11.1-20.9c-2.8-5.3-5.2-10.8-8.1-16.2c-1.1-2-2.7-3.8-4.3-5.5c-0.5-0.5-2-0.5-2.6-0.1c-1.1,0.8-2,2.1-2.9,3.2
		c-4,5-7.9,10-11.8,15c-3,3.8-6,7.5-9,11.3c-3.1,4-6.3,8-9.3,12.1c-2.3,3.1-4.4,6.4-6.6,9.6c-1.6,2.3-3,4.6-4.7,6.8
		c-0.8,1.2-2,2.1-2.8,3.3c-3.6,4.9-6.9,10-10.6,14.8c-3.4,4.5-7.2,8.6-10.6,13c-2.6,3.4-4.9,7-7.5,10.4c-3.2,4.2-6.7,8.3-10,12.4
		c-3.4,4.3-6.5,8.8-10,12.9c-4.4,5.1-9.3,9.9-13.8,14.9c-5.3,5.8-10.3,12-15.6,17.7c-2.5,2.7-5.6,4.7-8.3,7.2
		c-0.9,0.8-1.5,2.1-2.3,3.1c-1,1.3-2.1,3.6-3.1,3.6c-3.2-0.2-3.4,2.6-5,4.1c-0.8,0.8-1.7,1.5-2.6,2.2c-2,1.5-4.2,2.8-6.1,4.4
		c-4,3.2-7.9,6.5-11.7,10c-3.5,3.3-6.6,6.9-10.3,10.8c4.8-0.5,8.8-0.9,12.9-1.5c21.1-2.8,41.6-8.2,62.1-13.6c10.3-2.7,20.4-6,30.8-8
		c14.3-2.7,28.8-4.6,43.2-6.4c13.6-1.7,27.3-2.8,41-4.1c7.9-0.8,15.9-1.4,23.8-2.2c6.6-0.6,13.2-1.3,19.8-1.9
		C336.3,395.8,343.2,395.3,351.1,394.6z"/>
</g>
</svg>
