<?xml version="1.0" encoding="UTF-8" standalone="no"?>
<!DOCTYPE svg PUBLIC "-//W3C//DTD SVG 1.1//EN" "http://www.w3.org/Graphics/SVG/1.1/DTD/svg11.dtd">
<svg viewBox="-322 -302 644 604" version="1.1" xmlns="http://www.w3.org/2000/svg" xmlns:xlink="http://www.w3.org/1999/xlink" xml:space="preserve" style="fill-rule:evenodd;clip-rule:evenodd;stroke-linejoin:round;stroke-miterlimit:1.41421;">
	<g id="RedScareMandala">
		<title>The Red Scare, a Mandala by Adam Stanislav</title>

		<g>
			<title>Red Earth</title>

			<ellipse rx="319" ry="299" fill="#F00"/>
		</g>

		<g id="Clouds">
			<title>Dark Red Clouds</title>

			<path id="Cloud" fill="#AA1C1C" d="M-203.56-187.731c-1.662-1.661 0.535-6.557 4.904-10.925c4.368-4.368 9.263-6.565 10.925-4.903c0.745-3.624 5.095-8.962 9.709-11.914c4.614-2.952 7.755-2.407 7.01 1.216c2.952-4.614 8.29-8.964 11.914-9.709c3.623-0.745 4.168 2.396 1.216 7.01c4.368-4.368 9.263-6.565 10.925-4.904c1.662 1.662-0.535 6.558-4.903 10.926c4.613-2.952 7.754-2.407 7.009 1.216c-0.744 3.623-5.095 8.961-9.709 11.913c3.623-0.745 4.168 2.396 1.216 7.01c-2.952 4.614-8.29 8.965-11.913 9.709c1.662 1.662-0.536 6.558-4.904 10.926c-4.368 4.368-9.263 6.565-10.925 4.903c-0.745 3.624-5.096 8.962-9.709 11.914c-4.614 2.952-7.755 2.407-7.01-1.216c-2.952 4.613-8.29 8.964-11.914 9.709c-3.623 0.745-4.168-2.396-1.216-7.01c-4.368 4.368-9.263 6.565-10.925 4.904c-1.662-1.662 0.535-6.558 4.903-10.926c-4.613 2.952-7.754 2.407-7.01-1.216c0.745-3.623 5.096-8.961 9.71-11.913c-3.623 0.745-4.168-2.396-1.216-7.01c2.952-4.614 8.29-8.965 11.913-9.71z"/>
			<use xlink:href="#Cloud" transform="rotate(90)"/>
			<use xlink:href="#Cloud" transform="rotate(-90)"/>
			<use xlink:href="#Cloud" transform="rotate(180)"/>
		</g>

		<g id="Blades">
			<title>Blades of Control</title>

			<g id="LargeBlades">
				<path id="LargeBlade" d="M6.131-51.193c-0.807-2.713-3.301-4.572-6.131-4.572c-2.83 0-5.324 1.859-6.131 4.572c-5.302 18.946-11.604 12.264-15.324-9.551c-5.364-31.447-5.364-94.342 0-157.237c1.745-21.932 4.767-43.864 8.309-64.216c1.11-6.393 6.658-11.06 13.146-11.06c6.488 0 12.036 4.667 13.146 11.06c3.542 20.352 6.564 42.284 8.309 64.216c5.364 62.895 5.364 125.79 0 157.237c-3.72 21.815-10.022 28.497-15.324 9.551zm-6.131-186.848c-3.693 0-6.691-2.999-6.691-6.691c0-3.693 2.998-6.691 6.691-6.691c3.693 0 6.691 2.998 6.691 6.691c0 3.692-2.998 6.691-6.691 6.691zm0 25.086c-3.693 0-6.691-2.998-6.691-6.691c0-3.692 2.998-6.691 6.691-6.691c3.693 0 6.691 2.999 6.691 6.691c0 3.693-2.998 6.691-6.691 6.691zm0 25.087c-3.693 0-6.691-2.998-6.691-6.691c0-3.693 2.998-6.691 6.691-6.691c3.693 0 6.691 2.998 6.691 6.691c0 3.693-2.998 6.691-6.691 6.691zm0 25.087c-3.693 0-6.691-2.998-6.691-6.691c0-3.693 2.998-6.691 6.691-6.691c3.693 0 6.691 2.998 6.691 6.691c0 3.693-2.998 6.691-6.691 6.691zm0 25.087c-3.693 0-6.691-2.998-6.691-6.691c0-3.693 2.998-6.691 6.691-6.691c3.693 0 6.691 2.998 6.691 6.691c0 3.693-2.998 6.691-6.691 6.691zm0 25.087c-3.693 0-6.691-2.999-6.691-6.691c0-3.693 2.998-6.691 6.691-6.691c3.693 0 6.691 2.998 6.691 6.691c0 3.692-2.998 6.691-6.691 6.691zm0 25.086c-3.693 0-6.691-2.998-6.691-6.691c0-3.692 2.998-6.691 6.691-6.691c3.693 0 6.691 2.999 6.691 6.691c0 3.693-2.998 6.691-6.691 6.691z"/>
				<use xlink:href="#LargeBlade" transform="rotate(90)"/>
				<use xlink:href="#LargeBlade" transform="rotate(-90)"/>
				<use xlink:href="#LargeBlade" transform="rotate(180)"/>
			</g>

			<g id="SmallBlades">
				<path id="SmallBlade" d="M30.858-24c1.065-1.969 0.711-4.403-0.872-5.986c-1.583-1.582-4.017-1.937-5.985-0.871c-13.56 7.63-13.347 0.369-3.229-13.911c14.586-20.585 49.758-55.757 87.93-87.93c13.241-11.288 27.195-21.864 40.557-31.264c4.196-2.954 9.908-2.461 13.537 1.167c3.628 3.628 4.12 9.34 1.167 13.536c-9.401 13.362-19.976 27.317-31.265 40.558c-32.172 38.171-67.344 73.343-87.93 87.93c-14.279 10.118-21.54 10.331-13.91-3.229zm101.06-107.918c-2.065-2.065-2.065-5.418 0-7.483c2.065-2.065 5.418-2.065 7.484 0c2.065 2.065 2.065 5.418 0 7.483c-2.066 2.065-5.419 2.065-7.484 0zm-14.029 14.029c-2.065-2.065-2.065-5.418 0-7.483c2.065-2.065 5.418-2.065 7.484 0c2.065 2.065 2.065 5.418 0 7.483c-2.066 2.065-5.419 2.065-7.484 0zm-14.029 14.029c-2.065-2.065-2.065-5.418 0-7.483c2.065-2.065 5.418-2.065 7.484 0c2.065 2.065 2.065 5.418 0 7.483c-2.066 2.065-5.419 2.065-7.484 0zm-14.029 14.029c-2.065-2.065-2.065-5.418 0-7.483c2.065-2.065 5.418-2.065 7.484 0c2.065 2.065 2.065 5.418 0 7.483c-2.066 2.065-5.419 2.065-7.484 0zm-14.029 14.029c-2.065-2.065-2.065-5.418 0-7.483c2.065-2.065 5.418-2.065 7.484 0c2.065 2.065 2.065 5.418 0 7.483c-2.066 2.065-5.419 2.065-7.484 0zm-14.029 14.029c-2.065-2.065-2.065-5.418 0-7.483c2.065-2.065 5.418-2.065 7.484 0c2.065 2.065 2.065 5.418 0 7.483c-2.066 2.065-5.419 2.065-7.484 0zm-14.029 14.029c-2.065-2.065-2.065-5.418 0-7.483c2.065-2.065 5.418-2.065 7.484 0c2.065 2.065 2.065 5.418 0 7.483c-2.066 2.065-5.419 2.065-7.484 0z"/>
				<use xlink:href="#SmallBlade" transform="rotate(90)"/>
				<use xlink:href="#SmallBlade" transform="rotate(-90)"/>
				<use xlink:href="#SmallBlade" transform="rotate(180)"/>
			</g>
		</g>
	</g>
</svg>
