<?xml version="1.0" encoding="utf-8"?>
<!-- Generator: Adobe Illustrator 19.1.0, SVG Export Plug-In . SVG Version: 6.00 Build 0)  -->
<svg version="1.1" id="Layer_1" xmlns="http://www.w3.org/2000/svg" xmlns:xlink="http://www.w3.org/1999/xlink" x="0px" y="0px"
	 viewBox="0 0 93 127" enable-background="new 0 0 93 127" xml:space="preserve">
<rect x="5.7" y="5.5" fill="#508741" width="87.3" height="121.5"/>
<rect fill="#6FBF4A" width="87.3" height="121.5"/>
<g>
	<circle fill="#FFFFFF" cx="66.7" cy="63" r="1"/>
	<circle fill="#FFFFFF" cx="69.7" cy="60" r="1"/>
	<circle fill="#FFFFFF" cx="69.7" cy="66" r="1"/>
	<circle fill="#FFFFFF" cx="66.7" cy="69" r="1"/>
	<circle fill="#FFFFFF" cx="60.7" cy="69" r="1"/>
	<circle fill="#FFFFFF" cx="54.7" cy="69" r="1"/>
	<circle fill="#FFFFFF" cx="57.7" cy="66" r="1"/>
	<circle fill="#FFFFFF" cx="39.7" cy="78" r="1"/>
	<circle fill="#FFFFFF" cx="66.7" cy="75" r="1"/>
	<circle fill="#FFFFFF" cx="69.7" cy="72" r="1"/>
	<circle fill="#FFFFFF" cx="69.7" cy="78" r="1"/>
	<circle fill="#FFFFFF" cx="60.7" cy="75" r="1"/>
	<circle fill="#FFFFFF" cx="63.7" cy="72" r="1"/>
	<circle fill="#FFFFFF" cx="63.7" cy="78" r="1"/>
	<circle fill="#FFFFFF" cx="45.7" cy="78" r="1"/>
	<circle fill="#FFFFFF" cx="48.7" cy="75" r="1"/>
	<circle fill="#FFFFFF" cx="54.7" cy="75" r="1"/>
	<circle fill="#FFFFFF" cx="36.7" cy="81" r="1"/>
	<circle fill="#FFFFFF" cx="42.7" cy="81" r="1"/>
	<circle fill="#FFFFFF" cx="24.7" cy="81" r="1"/>
	<circle fill="#FFFFFF" cx="66.7" cy="81" r="1"/>
	<circle fill="#FFFFFF" cx="60.7" cy="81" r="1"/>
	<circle fill="#FFFFFF" cx="48.7" cy="81" r="1"/>
	<circle fill="#FFFFFF" cx="54.7" cy="81" r="1"/>
	<circle fill="#FFFFFF" cx="51.7" cy="72" r="1"/>
	<circle fill="#FFFFFF" cx="57.7" cy="72" r="1"/>
	<circle fill="#FFFFFF" cx="51.7" cy="78" r="1"/>
	<circle fill="#FFFFFF" cx="57.7" cy="78" r="1"/>
	<circle fill="#FFFFFF" cx="36.7" cy="87" r="1"/>
	<circle fill="#FFFFFF" cx="39.7" cy="84" r="1"/>
	<circle fill="#FFFFFF" cx="39.7" cy="90" r="1"/>
	<circle fill="#FFFFFF" cx="42.7" cy="87" r="1"/>
	<circle fill="#FFFFFF" cx="30.7" cy="87" r="1"/>
	<circle fill="#FFFFFF" cx="33.7" cy="84" r="1"/>
	<circle fill="#FFFFFF" cx="33.7" cy="90" r="1"/>
	<circle fill="#FFFFFF" cx="18.7" cy="87" r="1"/>
	<circle fill="#FFFFFF" cx="24.7" cy="87" r="1"/>
	<circle fill="#FFFFFF" cx="21.7" cy="84" r="1"/>
	<circle fill="#FFFFFF" cx="27.7" cy="84" r="1"/>
	<circle fill="#FFFFFF" cx="21.7" cy="90" r="1"/>
	<circle fill="#FFFFFF" cx="27.7" cy="90" r="1"/>
	<circle fill="#FFFFFF" cx="66.7" cy="87" r="1"/>
	<circle fill="#FFFFFF" cx="69.7" cy="84" r="1"/>
	<circle fill="#FFFFFF" cx="69.7" cy="90" r="1"/>
	<circle fill="#FFFFFF" cx="60.7" cy="87" r="1"/>
	<circle fill="#FFFFFF" cx="63.7" cy="84" r="1"/>
	<circle fill="#FFFFFF" cx="63.7" cy="90" r="1"/>
	<circle fill="#FFFFFF" cx="45.7" cy="84" r="1"/>
	<circle fill="#FFFFFF" cx="45.7" cy="90" r="1"/>
	<circle fill="#FFFFFF" cx="48.7" cy="87" r="1"/>
	<circle fill="#FFFFFF" cx="54.7" cy="87" r="1"/>
	<circle fill="#FFFFFF" cx="36.7" cy="93" r="1"/>
	<circle fill="#FFFFFF" cx="42.7" cy="93" r="1"/>
	<circle fill="#FFFFFF" cx="30.7" cy="93" r="1"/>
	<circle fill="#FFFFFF" cx="18.7" cy="93" r="1"/>
	<circle fill="#FFFFFF" cx="24.7" cy="93" r="1"/>
	<circle fill="#FFFFFF" cx="66.7" cy="93" r="1"/>
	<circle fill="#FFFFFF" cx="60.7" cy="93" r="1"/>
	<circle fill="#FFFFFF" cx="48.7" cy="93" r="1"/>
	<circle fill="#FFFFFF" cx="54.7" cy="93" r="1"/>
	<circle fill="#FFFFFF" cx="51.7" cy="84" r="1"/>
	<circle fill="#FFFFFF" cx="57.7" cy="84" r="1"/>
	<circle fill="#FFFFFF" cx="51.7" cy="90" r="1"/>
	<circle fill="#FFFFFF" cx="57.7" cy="90" r="1"/>
	
		<line fill="none" stroke="#FFFFFF" stroke-width="2.1758" stroke-linecap="round" stroke-miterlimit="10" x1="16.7" y1="38" x2="16.7" y2="96"/>
	
		<line fill="none" stroke="#FFFFFF" stroke-width="2.1758" stroke-linecap="round" stroke-miterlimit="10" x1="72.7" y1="94" x2="14.7" y2="94"/>
	
		<line fill="none" stroke="#FFFFFF" stroke-width="2.1758" stroke-linecap="round" stroke-miterlimit="10" x1="20.7" y1="65" x2="22.7" y2="65"/>
	
		<line fill="none" stroke="#FFFFFF" stroke-width="2.1758" stroke-linecap="round" stroke-miterlimit="10" x1="20.7" y1="61" x2="22.7" y2="61"/>
	
		<line fill="none" stroke="#FFFFFF" stroke-width="2.1758" stroke-linecap="round" stroke-miterlimit="10" x1="20.7" y1="57" x2="22.7" y2="57"/>
	
		<line fill="none" stroke="#FFFFFF" stroke-width="2.1758" stroke-linecap="round" stroke-miterlimit="10" x1="20.7" y1="53" x2="22.7" y2="53"/>
	
		<line fill="none" stroke="#FFFFFF" stroke-width="2.1758" stroke-linecap="round" stroke-miterlimit="10" x1="20.7" y1="49" x2="22.7" y2="49"/>
	
		<line fill="none" stroke="#FFFFFF" stroke-width="2.1758" stroke-linecap="round" stroke-miterlimit="10" x1="20.7" y1="45" x2="22.7" y2="45"/>
	
		<line fill="none" stroke="#FFFFFF" stroke-width="2.1758" stroke-linecap="round" stroke-miterlimit="10" x1="20.7" y1="41" x2="22.7" y2="41"/>
	<polygon fill="none" stroke="#FFFFFF" stroke-width="2.1758" stroke-linecap="round" stroke-miterlimit="10" points="16.7,85 
		25.7,76 31.7,84 38.7,69 44.7,77 55.7,60 61.7,68 72.7,51 72.7,94 16.7,94 	"/>
</g>
</svg>
