<?xml version="1.0" encoding="utf-8"?>
<!-- Generator: Adobe Illustrator 15.0.0, SVG Export Plug-In . SVG Version: 6.00 Build 0)  -->
<!DOCTYPE svg PUBLIC "-//W3C//DTD SVG 1.0//EN" "http://www.w3.org/TR/2001/REC-SVG-20010904/DTD/svg10.dtd">
<svg version="1.0" id="Layer_1" xmlns="http://www.w3.org/2000/svg" xmlns:xlink="http://www.w3.org/1999/xlink" x="0px" y="0px" viewBox="0 0 144 60" enable-background="new 0 0 144 60" xml:space="preserve">
<g>
	<path fill="none" d="M54.188,31.663c-0.95-0.281-1.923-0.318-2.92-0.117c-0.108,0.885-0.07,4.717,0.049,5.112
		c0.631,0,1.276,0.064,1.902-0.014c1.315-0.168,2.268-1.001,2.478-2.163C55.952,33.083,55.552,32.064,54.188,31.663z"/>
	<path fill="none" d="M133.039,34.863c-0.569,1.479-1.141,2.956-1.711,4.44c0.534,0.146,3.104,0.143,3.589-0.002
		c-0.579-1.482-1.155-2.965-1.73-4.443C133.136,34.86,133.087,34.862,133.039,34.863z"/>
	<path fill="#333764" d="M57.633,39.321c0.464-0.354,0.967-0.674,1.375-1.087c1.384-1.406,1.902-3.123,1.745-5.077
		c-0.202-2.503-1.401-4.278-3.746-5.243c-1.097-0.452-2.251-0.662-3.426-0.738c-2.252-0.142-4.476,0.088-6.677,0.575
		c-0.529,0.115-0.53,0.119-0.53,0.651c-0.001,6.639-0.001,13.279,0,19.918c0,0.172,0.018,0.345,0.029,0.55h4.806v-8.074
		c0.351,0,0.616,0.02,0.876-0.006c0.247-0.022,0.409,0.08,0.537,0.27c0.207,0.31,0.424,0.615,0.619,0.933
		c1.323,2.175,2.646,4.347,3.958,6.527c0.163,0.272,0.34,0.399,0.673,0.396c1.602-0.018,3.204-0.006,4.807-0.01
		c0.131,0,0.264-0.029,0.474-0.057c-1.994-3.135-3.947-6.203-5.911-9.291C57.361,39.485,57.507,39.417,57.633,39.321z
		 M55.697,34.481c-0.21,1.162-1.163,1.995-2.478,2.163c-0.626,0.078-1.271,0.014-1.902,0.014c-0.119-0.396-0.157-4.228-0.049-5.112
		c0.998-0.201,1.971-0.164,2.92,0.117C55.552,32.064,55.952,33.083,55.697,34.481z"/>
	<path fill="#333764" d="M135.497,27.496h-4.327c-2.943,7.119-5.886,14.232-8.837,21.369h5.179c0.087-0.205,0.161-0.366,0.224-0.53
		c0.542-1.375,1.079-2.749,1.621-4.122c0.192-0.493,0.194-0.495,0.732-0.495c1.995-0.002,3.99-0.002,5.983,0
		c0.533,0,0.535,0.002,0.729,0.497c0.56,1.426,1.112,2.853,1.672,4.276c0.161,0.413,0.165,0.415,0.619,0.415
		c1.479,0.002,2.956,0.002,4.435,0c0.123,0,0.245-0.012,0.474-0.025C141.147,41.706,138.324,34.604,135.497,27.496z M131.328,39.304
		c0.57-1.484,1.142-2.961,1.711-4.44c0.048-0.001,0.097-0.003,0.147-0.005c0.575,1.479,1.151,2.961,1.73,4.443
		C134.432,39.446,131.862,39.45,131.328,39.304z"/>
	<path fill="#333764" d="M69.515,39.859h2.301c0.73,0,1.459,0.002,2.189,0c0.74-0.004,1.481,0.012,2.208-0.012
		c0.108-0.881,0.071-3.776-0.061-4.206h-2.218c-0.73,0-1.459,0.002-2.189,0c-0.738-0.004-1.479,0.011-2.223-0.012v-3.843h0.723
		c2.225,0,4.45,0,6.675-0.004c0.222,0,0.442-0.035,0.656-0.053v-4.204c-0.084-0.021-0.134-0.047-0.183-0.047
		c-4.131-0.004-8.263-0.006-12.392-0.008c-0.087,0-0.175,0.018-0.263,0.031c-0.016,0-0.03,0.016-0.043,0.027
		s-0.024,0.025-0.027,0.031v21.306H77.83V44.57h-8.315V39.859z"/>
	<path fill="#333764" d="M93.188,32.185c-0.583,1.566-1.157,3.137-1.742,4.703c-0.581,1.549-1.126,3.109-1.738,4.647
		c-0.034-0.006-0.071-0.012-0.106-0.016c-1.887-4.681-3.771-9.36-5.643-14.008h-5.371c0.087,0.232,0.151,0.413,0.224,0.592
		c2.424,5.925,4.85,11.85,7.273,17.774c0.847,2.07,2.402,3.154,4.621,3.298c0.908,0.059,0.717,0.063,0.995-0.631
		c2.733-6.835,5.46-13.676,8.186-20.513c0.063-0.16,0.116-0.326,0.188-0.532H94.93C94.35,29.058,93.769,30.623,93.188,32.185z"/>
	<path fill="#333764" d="M127.318,27.5h-5.144c-0.431,1.159-0.863,2.323-1.296,3.488c-0.44,1.182-0.878,2.366-1.316,3.549
		c-0.433,1.167-0.859,2.338-1.298,3.501c-0.438,1.165-0.83,2.348-1.368,3.606c-1.937-4.807-3.82-9.486-5.7-14.152h-5.385
		c0.251,0.62,0.469,1.162,0.689,1.701c2.283,5.578,4.566,11.158,6.848,16.737c0.252,0.616,0.575,1.181,1.043,1.662
		c1.021,1.049,2.264,1.566,3.721,1.594c0.563,0.012,0.567,0.025,0.773-0.495c2.749-6.885,5.498-13.774,8.246-20.661
		C127.195,27.87,127.248,27.704,127.318,27.5z"/>
	<path fill="#333764" d="M100.58,27.568c0,7.089,0,14.181,0,21.306h4.74c0.119-0.684,0.088-20.997-0.023-21.367
		C104.375,27.408,100.95,27.451,100.58,27.568z"/>
	<path fill="#548623" d="M35.736,8.371c-2.615-3.34-5.259-5.094-6.734-5.872c-1.475-0.779-3.895-1.698-6.539-2.032
		c-2.644-0.333-6.123,0.278-7.541,0.668c-1.419,0.39-4.676,1.67-7.347,3.868C4.903,7.202,2.232,10.847,0.98,15.021
		c-1.253,4.174-1.03,7.735-0.808,10.074c0.223,2.336,1.475,5.619,3.145,8.792c1.67,3.172,5.899,8.433,7.987,10.852
		c2.086,2.422,3.395,4.119,4.841,6.095c1.448,1.976,1.614,2.365,2.672,4.313c1.057,1.948,1.112,4.481,1.112,4.481l6.623-8.127
		c0,0-1.725-0.779-3.228-1.976c-1.502-1.196-2.755-3.507-3.367-5.12c-0.613-1.615-0.752-3.979-0.752-5.036s0.835-3.702,2.115-6.289
		c1.281-2.589,4.842-7.263,5.872-8.599c1.03-1.336,3.673-4.369,3.673-4.369l0.333,1.142c0.334,1.14,1.086,3.478,1.753,4.675
		c0.668,1.196,2.477,3.366,3.312,4.313c0.834,0.947,1.947,2.365,1.947,2.365s0.557-0.891,1.559-4.313
		c1.002-3.422,0.752-5.51,0.752-5.51C40.524,17.387,38.353,11.709,35.736,8.371z"/>
	<path fill="#333764" d="M32.37,29.353c-1.029-1.475-1.892-2.755-2.115-3.256c-0.222-0.501-0.39-1.001-0.39-1.001
		s-3.644,4.702-4.618,6.178c-0.974,1.473-3.618,6.064-3.618,8.375c0,2.31,0.696,4.842,1.865,6.371
		c1.169,1.531,3.339,3.618,6.177,3.618c2.839,0,5.372-1.085,7.375-4.313c2.005-3.229,1.804-6.661,0.557-9.071
		C36.349,33.831,33.4,30.827,32.37,29.353z"/>
</g>
</svg>
