<?xml version="1.0" encoding="utf-8"?>
<!-- Generator: Adobe Illustrator 19.2.0, SVG Export Plug-In . SVG Version: 6.00 Build 0)  -->
<svg version="1.1" id="Layer_1" xmlns="http://www.w3.org/2000/svg" xmlns:xlink="http://www.w3.org/1999/xlink" x="0px" y="0px"
	 viewBox="0 0 600 330" style="enable-background:new 0 0 600 330;" xml:space="preserve">
<style type="text/css">
	.st0{fill:#959595;}
	.st1{fill:#D7D7D7;}
	.st2{fill:#D4D4D4;}
</style>
<g>
	<path class="st0" d="M39.3,133.8c-2.9,0-5.7,0.4-8.3,1.7c-2.4,1.2-4,3-4.2,5.9c-0.1,2.9,1.4,4.8,3.9,6.1c5.1,2.6,10.4,5,15.6,7.4
		c5.9,2.7,11.8,5.5,17.1,9.5c7.4,5.7,10,13.4,8.9,22.3c-1.4,11.6-8.8,18.2-19.2,22.1c-3.7,1.4-7.6,2.2-11.6,2.7
		c-0.5,0.1-1.1,0-1.5,0.4c-5.1,0-10.2,0-15.3,0c-3.7-0.4-7.5-0.4-11.2-0.7c-2.5-0.2-5-0.7-7.5-1.3c-1.4-0.3-2.1-1.1-2.1-2.6
		c0-5-0.1-10.1,0-15.1c0-2.1,0.7-2.5,2.7-1.9c5.5,1.6,11.1,3,16.8,3.8c5.6,0.7,11.1,1,16.6-0.3c1.1-0.3,2.2-0.6,3.2-1.1
		c4.4-2.2,4.9-7.7,1-10.7c-3.1-2.3-6.6-3.7-10.1-5.2c-7.4-3.1-14.8-6.1-21.5-10.7c-3.3-2.3-5.9-5.1-7.9-8.6
		c-1.2-2.1-1.3-4.5-1.6-6.8c0-0.4,0.1-0.8-0.2-1.2c0-2.7,0-5.5,0-8.2c0.3-1,0.3-2.1,0.3-3.1c0.3-3.9,2.2-7,4.7-9.8
		c4.1-4.5,9.2-7.3,15-9c2.9-0.9,6-0.8,9-1.1c0.4,0,0.8,0.1,1.2-0.2c3.9,0,7.8,0,11.8,0c3.9,0.6,7.8,1.1,11.7,1.7
		c2.9,0.4,5.7,1,8.6,1.5c0.4,1.6,0.2,3.3,0.2,4.9c0,4.1,0.2,8.1-0.2,12.2c-2.7-0.8-5.4-1.7-8.1-2.5c-4.1-1.2-8.3-2-12.6-2.2
		C42.8,133.5,41,133.5,39.3,133.8z"/>
	<path class="st0" d="M548.3,211.9c-3.1-1-6.3-0.7-9.5-1.4c-2.6-0.6-5.2-1-7.9-1.5c-1.1-0.2-1.6-0.8-1.6-1.9c0-4.9,0-9.7,0-14.6
		c0-1.4,0.5-1.6,1.7-1.2c6.5,2,13.2,3.5,20,4.1c4.6,0.4,9.1,0.4,13.6-0.6c1.2-0.3,2.4-0.7,3.5-1.2c5.4-2.7,5.8-9.3,0.8-12.7
		c-3.4-2.3-7.1-3.7-10.9-5.3c-7-2.9-13.9-5.9-20.3-10c-13.2-8.4-12.6-26.9-5.6-35.4c4.7-5.7,11-8.8,18-10.4c2.8-0.7,5.7-1,8.6-1.5
		c3.9,0,7.8,0,11.8,0c3.8,0.5,7.6,0.4,11.3,0.9c2.2,0.3,4.4,0.8,6.7,1.2c1.4,0.3,2.1,1.1,2.1,2.6c0,4.6,0.1,9.3,0,13.9
		c0,2.3-0.8,2.8-3.1,2c-5.1-1.8-10.2-3.4-15.5-3.8c-4.3-0.4-8.5-0.5-12.8,0.3c-1,0.2-2,0.5-2.9,0.9c-2.4,1-3.9,2.7-4.1,5.4
		c-0.2,2.4,1.2,4,3.2,5.1c4.5,2.6,9.3,4.5,14,6.7c6.5,3.1,13.1,6,18.8,10.4c2.1,1.6,3.9,3.4,5.5,5.5c2,2.8,2.9,6,2.9,9.5
		c0,0.4-0.1,0.8,0.2,1.2c0,2.5,0,5,0,7.5c-0.4,0.7-0.2,1.4-0.2,2.1c-0.4,6.4-3.9,11-8.7,14.7c-5.9,4.6-12.5,7.2-20.1,7.5
		c-1.4,0.1-2.8-0.1-4.2,0.3C558.7,211.9,553.5,211.9,548.3,211.9z"/>
	<path class="st0" d="M235.3,147.1c0,0.9,0,1.7,0,2.4c0,19.3,0,38.6,0,57.9c0,2.7,0,2.7-2.6,2.7c-4.4,0-8.8-0.1-13.2,0
		c-1.6,0-2-0.5-2-2.1c0-28.8,0-57.6,0-86.4c0-1.6,0.5-2.1,2.1-2.1c9.7,0.1,19.4,0,29.1,0c1.3,0,2,0.5,2.5,1.7
		c6.9,17.7,13.9,35.4,20.9,53.1c0.3,0.8,0.5,1.6,1.3,2.4c0.9-2.2,1.8-4.2,2.6-6.3c6.5-16,12.9-32,19.3-47.9c1.4-3.6,0.9-3,4.5-3
		c8.6,0,17.1,0,25.7,0c1.8,0,2.3,0.5,2.3,2.3c0,28.6,0,57.3,0,85.9c0,1.8-0.5,2.4-2.3,2.3c-6.4-0.1-12.7,0-19.1,0
		c-2.6,0-2.6,0-2.6-2.6c0-19.4,0-38.7,0-58.1c0-0.7,0-1.4,0-2.3c-0.8,0.3-0.8,1-1,1.5c-8.1,19.8-16.2,39.6-24.3,59.4
		c-1.3,3.1-0.6,2.9-4.3,2.9c-3.5,0-7-0.1-10.5,0c-1.6,0-2.4-0.5-3-2c-6.5-16.5-13.1-32.9-19.7-49.3c-1.5-3.6-2.9-7.3-4.4-10.9
		C236.1,148.2,236.1,147.6,235.3,147.1z"/>
	<path class="st0" d="M451.5,149.6c-0.6,1.1-0.4,1.9-0.4,2.6c0,18.2,0,36.5,0,54.7c0,3.2,0,3.2-3.2,3.2c-4,0-8,0-11.9,0
		c-2.7,0-2.7,0-2.7-2.6c0-26.1,0-52.1,0-78.2c0-2.6,0.1-5.1,0-7.7c0-1.4,0.4-2,1.9-2c8.6,0.1,17.2,0,25.8,0c1.2,0,1.9,0.5,2.5,1.6
		c7.2,14,14.4,28,21.5,42c2.4,4.7,4.8,9.4,7.2,14.1c0.3,0.6,0.7,1.2,1.1,1.9c0.6-0.8,0.4-1.6,0.4-2.2c0-18.2,0-36.5,0-54.7
		c0-2.6,0-2.6,2.6-2.6c4.5,0,8.9,0,13.4,0c1.5,0,1.9,0.5,1.9,2c0,28.9,0,57.7,0,86.6c0,1.5-0.5,2-1.9,2c-8.3-0.1-16.6-0.1-24.9,0
		c-1.3,0-2-0.5-2.6-1.7c-8.6-16.6-17.2-33.2-25.8-49.8C454.7,155.7,453.1,152.8,451.5,149.6z"/>
	<path class="st0" d="M135.1,164.8c0-14.2,0-28.4,0-42.6c0-2.6,0-2.6,2.5-2.6c20,0,39.9,0,59.9,0c2.5,0,2.5,0,2.5,2.4
		c0,3.9-0.1,7.8,0,11.8c0,1.7-0.5,2.3-2.2,2.2c-11.8-0.1-23.6,0-35.5,0c-2.9,0-2.9,0-2.9,2.8c0,5.1,0,10.2,0,15.3
		c0,1.6,0.5,2.2,2.1,2.2c10.2-0.1,20.4,0,30.6,0c2.5,0,2.5,0,2.5,2.5c0,3.4-0.1,6.9,0,10.3c0,1.7-0.6,2.3-2.3,2.2
		c-10.1-0.1-20.2,0-30.3,0c-2.7,0-2.7,0-2.7,2.8c0,5.3,0,10.6,0,15.9c0,2.7,0,2.7,2.6,2.7c12.2,0,24.3,0,36.5,0c2.5,0,2.5,0,2.5,2.5
		c0,4.2-0.1,8.4,0,12.6c0,1.8-0.5,2.4-2.3,2.4c-20.5-0.1-41-0.1-61.5,0c-1.7,0-2.2-0.5-2.2-2.2C135.2,193.5,135.1,179.1,135.1,164.8
		z"/>
	<path class="st0" d="M350.8,164.7c0-14.2,0-28.4,0-42.6c0-2.5,0-2.5,2.6-2.6c20,0,39.9,0,59.9,0c2.4,0,2.4,0,2.4,2.5
		c0,3.7,0,7.5,0,11.2c0,2.7,0,2.7-2.6,2.7c-11.7,0-23.4,0-35.1,0c-2.9,0-2.9,0-2.9,2.9c0,5.1,0.1,10.2,0,15.3c0,1.7,0.6,2.1,2.2,2.1
		c10.2-0.1,20.4,0,30.6,0c2.5,0,2.5,0,2.5,2.5c0,3.4-0.1,6.9,0,10.3c0.1,1.7-0.6,2.2-2.3,2.2c-10.1-0.1-20.2,0-30.3,0
		c-2.7,0-2.7,0-2.7,2.8c0,5.3,0,10.6,0,15.9c0,2.7,0,2.7,2.6,2.7c12.2,0,24.4,0,36.5,0c2.5,0,2.5,0,2.5,2.5c0,4.3,0,8.7,0,13
		c0,1.5-0.5,2-2,2c-20.7,0-41.3,0-62,0c-1.8,0-2-0.8-2-2.3C350.8,193.5,350.8,179.1,350.8,164.7z"/>
	<path class="st0" d="M112,164.8c0,14.3,0,28.5,0,42.8c0,2.5,0,2.5-2.4,2.5c-6.9,0-13.9,0-20.8,0c-1.5,0-2.1-0.4-2.1-2
		c0-28.8,0-57.6,0-86.4c0-1.7,0.6-2.1,2.2-2.1c6.9,0.1,13.8,0,20.7,0c2.5,0,2.5,0,2.5,2.5C112,136.3,112,150.5,112,164.8z"/>
	<path class="st1" d="M65.3,138.4c0-5.7,0-11.4,0-17.1c0.1,0.2,0.2,0.3,0.2,0.5c0.2,5.4,0.2,10.8,0,16.2
		C65.5,138.1,65.4,138.3,65.3,138.4z"/>
	<path class="st2" d="M39.3,133.8c1.8-0.5,3.5-0.5,5.3,0C42.8,133.8,41,133.8,39.3,133.8z"/>
</g>
</svg>
