<?xml version="1.0" encoding="utf-8"?>
<!-- Generator: Adobe Illustrator 15.1.0, SVG Export Plug-In . SVG Version: 6.00 Build 0)  -->
<!DOCTYPE svg PUBLIC "-//W3C//DTD SVG 1.1//EN" "http://www.w3.org/Graphics/SVG/1.1/DTD/svg11.dtd">
<svg version="1.1" id="Layer_1" xmlns="http://www.w3.org/2000/svg" xmlns:xlink="http://www.w3.org/1999/xlink" x="0px" y="0px"
	 width="8362.211px" height="5314.96px" viewBox="0 0 8362.211 5314.96" enable-background="new 0 0 8362.211 5314.96"
	 xml:space="preserve">
<g>
	<g>
		<g>
			<path fill="#FFFFFF" d="M2130.416,3711.613c0-217.027-159.448-323.326-354.33-323.326h-473.918v1023.131h203.74v-367.619h208.17
				l181.594,367.619h234.744l-194.882-398.623C2063.979,3964.074,2130.416,3866.634,2130.416,3711.613z M1771.656,3848.917h-265.748
				v-261.32h265.748c88.583,0,146.162,39.863,146.162,128.445C1917.818,3809.054,1869.098,3848.917,1771.656,3848.917z"/>
			<path fill="#FFFFFF" d="M2520.18,3627.46c-124.016,0-199.311,26.574-287.894,75.295l79.725,141.732
				c70.866-39.863,119.587-53.15,212.599-53.15c75.295,0,110.729,44.291,110.729,97.441v39.861
				c-31.004-17.715-79.725-31.004-146.162-31.004c-172.736,0-310.039,84.154-310.039,252.461
				c0,186.023,141.732,274.607,287.894,274.607c70.866,0,137.304-31.004,172.736-66.438v53.148h203.74v-513.779
				C2834.648,3724.902,2706.203,3627.46,2520.18,3627.46z M2630.908,4185.531c-22.146,35.434-75.295,70.865-141.732,70.865
				c-84.153,0-115.157-48.719-115.157-101.869c0-62.008,39.862-97.441,115.157-97.441c70.866,0,106.299,8.859,141.732,31.004
				V4185.531z"/>
			<path fill="#FFFFFF" d="M3299.707,3627.46c-75.295,0-124.016,31.004-163.877,66.438v-48.721h-203.74V4694.88l203.74-101.869
				v-225.887c35.433,35.434,93.012,62.008,163.877,62.008c190.453,0,296.752-159.447,296.752-389.764
				C3596.459,3751.476,3463.586,3627.46,3299.707,3627.46z M3273.133,4238.681c-57.579,0-106.299-22.146-137.303-66.438v-287.895
				c31.004-39.861,62.008-66.436,124.016-66.436c79.725,0,132.873,66.436,132.873,221.455
				C3392.719,4172.244,3348.428,4238.681,3273.133,4238.681z"/>
			<rect x="3689.471" y="3645.177" fill="#FFFFFF" width="203.74" height="766.24"/>
			<path fill="#FFFFFF" d="M3791.341,3352.853c-62.008,0-115.157,53.15-115.157,115.158s53.149,115.158,115.157,115.158
				c62.009,0,115.157-53.15,115.157-115.158C3906.499,3401.574,3853.35,3352.853,3791.341,3352.853z"/>
			<path fill="#FFFFFF" d="M4451.283,3445.867v239.172c-35.434-35.434-93.014-62.008-163.879-62.008
				c-190.453,0-296.751,159.449-296.751,389.764c0,287.895,132.874,407.48,296.751,407.48c70.865,0,124.016-31.004,163.879-66.438
				v48.721h203.74V3348.425L4451.283,3445.867z M4451.283,4172.244c-31.004,39.861-62.01,66.438-124.018,66.438
				c-79.725,0-132.873-66.438-132.873-225.887c0-128.445,44.291-194.881,119.586-194.881c57.58,0,106.299,22.145,137.303,66.436
				v287.895H4451.283z"/>
		</g>
		<g>
			<path fill="#FFFFFF" d="M5195.376,3786.91c-163.877-39.863-208.17-57.58-208.17-124.018c0-44.291,35.434-93.012,146.162-93.012
				c93.012,0,168.307,39.863,230.314,106.301l146.162-141.732C5412.404,3432.578,5297.248,3375,5137.798,3375
				c-203.74,0-367.619,115.158-367.619,301.182c0,203.74,132.875,261.318,318.898,305.609
				c194.881,44.291,225.885,75.295,225.885,137.303c0,79.725-57.578,110.729-177.164,110.729
				c-97.441,0-190.453-35.432-261.32-115.156l-146.16,132.873c75.295,115.158,225.885,186.023,398.621,186.023
				c279.035,0,403.051-132.873,403.051-327.756C5536.419,3879.921,5359.253,3826.771,5195.376,3786.91z"/>
			<path fill="#FFFFFF" d="M6036.912,3786.91c-163.879-39.863-208.17-57.58-208.17-124.018c0-44.291,35.434-93.012,146.162-93.012
				c93.012,0,168.307,39.863,230.314,106.301l146.162-141.732c-97.441-101.871-212.6-159.449-372.047-159.449
				c-203.74,0-367.619,115.158-367.619,301.182c0,203.74,132.875,261.318,318.898,305.609
				c194.881,44.291,225.887,75.295,225.887,137.303c0,79.725-57.58,110.729-177.166,110.729
				c-97.441,0-190.453-35.432-261.318-115.156l-146.162,132.873c75.295,115.158,225.885,186.023,398.621,186.023
				c279.035,0,403.051-132.873,403.051-327.756C6377.955,3879.921,6200.791,3826.771,6036.912,3786.91z"/>
			<polygon fill="#FFFFFF" points="6953.742,4212.105 6718.998,4212.105 6718.998,3388.287 6515.257,3388.287 6515.257,4411.417 
				7077.757,4411.417 			"/>
		</g>
	</g>
</g>
<g>
	<path fill="#FFFFFF" d="M3383.861,2006.397h1576.771c88.582,0,163.877-70.866,163.877-163.878
		c0-88.583-70.865-163.878-163.877-163.878h-57.578v-168.308c0-389.764-318.898-708.661-708.662-708.661
		c-389.763,0-708.662,318.897-708.662,708.661v172.736h-101.869c-88.583,0-163.879,70.866-163.879,163.878
		C3224.412,1935.531,3295.278,2006.397,3383.861,2006.397z M3795.771,1514.764c0-221.457,177.165-398.622,398.622-398.622
		c221.457,0,398.623,177.165,398.623,398.622v168.307h-797.245V1514.764z"/>
	<path fill="#FFFFFF" d="M4960.632,2103.838H3383.861c-88.583,0-163.879,70.866-163.879,163.878
		c0,88.583,70.867,163.878,163.879,163.878h1576.771c88.582,0,163.877-70.865,163.877-163.878
		C5124.511,2179.134,5049.214,2103.838,4960.632,2103.838z"/>
	<path fill="#FFFFFF" d="M4960.632,2529.035H3383.861c-88.583,0-163.879,70.866-163.879,163.878
		c0,88.582,70.867,163.877,163.879,163.877h1576.771c88.582,0,163.877-70.865,163.877-163.877
		C5124.511,2604.33,5049.214,2529.035,4960.632,2529.035z"/>
</g>
</svg>
