<?xml version="1.0" encoding="iso-8859-1"?>
<!-- Generator: Adobe Illustrator 19.0.0, SVG Export Plug-In . SVG Version: 6.00 Build 0)  -->
<svg version="1.1" id="Layer_1" xmlns="http://www.w3.org/2000/svg" xmlns:xlink="http://www.w3.org/1999/xlink" x="0px" y="0px"
	 viewBox="0 0 24 24" style="enable-background:new 0 0 24 24;" xml:space="preserve">
<g style="display:none;opacity:0.08;">
	<path style="display:inline;" d="M22.555,23.997c-7.046,0-14.092,0-21.138,0c-0.018-0.014-0.034-0.034-0.054-0.04
		c-0.8-0.243-1.158-0.719-1.158-1.542c0-3.022-0.001-6.045,0-9.067c0-1.168,0.766-1.937,1.937-1.937c2.413,0,4.826,0.007,7.24,0.011
		c1.195,0.002,2.39,0.004,3.585,0.003c0.304,0,0.408-0.081,0.444-0.336c0.052-0.371,0.103-0.742,0.145-1.114
		c0.062-0.536,0.3-0.751,0.846-0.751c0.883-0.001,1.765-0.001,2.648-0.001c0.703,0,1.406-0.004,2.109,0.004
		c0.429,0.005,0.669,0.222,0.73,0.636c0.058,0.394,0.108,0.788,0.165,1.182c0.045,0.309,0.126,0.38,0.447,0.379
		c0.492-0.001,0.984-0.019,1.476-0.011c1.029,0.017,1.831,0.777,1.834,1.774c0.01,3.116,0.01,6.232-0.001,9.348
		c-0.002,0.573-0.289,1.013-0.8,1.286C22.868,23.897,22.707,23.939,22.555,23.997z M11.989,22.843v-0.002c3.413,0,6.826,0,10.239,0
		c0.344,0,0.447-0.093,0.448-0.443c0.004-1.843,0.004-3.686,0.002-5.53c0-0.309-0.157-0.493-0.462-0.555
		c-0.114-0.023-0.233-0.028-0.349-0.028c-0.773-0.003-1.546-0.003-2.32-0.003c-2.827-0.002-5.655-0.003-8.482-0.005
		c-0.33,0-0.41-0.074-0.452-0.401c-0.044-0.34-0.091-0.68-0.137-1.021c-0.077-0.57-0.306-0.774-0.878-0.775
		c-1.531-0.001-3.062-0.001-4.592,0c-0.086,0-0.172,0.003-0.257,0.014c-0.349,0.046-0.568,0.25-0.624,0.596
		c-0.062,0.385-0.107,0.773-0.165,1.158c-0.06,0.393-0.101,0.426-0.492,0.429c-0.515,0.005-1.032-0.009-1.546,0.019
		C1.49,16.321,1.33,16.52,1.33,16.947c-0.001,1.789-0.001,3.577-0.002,5.366c0,0.482,0.048,0.53,0.539,0.53
		C5.241,22.844,8.615,22.843,11.989,22.843z"/>
	<path style="display:inline;" d="M19.321,0c0.423,0.134,0.586,0.44,0.61,0.867c0.017,0.31,0.089,0.617,0.126,0.927
		c0.027,0.23,0.149,0.323,0.375,0.322c0.711-0.004,1.421-0.005,2.132,0.001c0.707,0.006,1.249,0.542,1.25,1.249
		c0.004,2.608,0.002,5.217,0.001,7.825c0,0.037-0.004,0.075-0.004,0.087c-0.355-0.181-0.713-0.356-1.062-0.55
		c-0.049-0.027-0.065-0.147-0.066-0.224c-0.004-0.898-0.003-1.796-0.003-2.694c0-0.552-0.277-0.83-0.835-0.83
		c-3.327-0.001-6.654,0-9.981,0c-0.281,0-0.562,0.001-0.843-0.001c-0.271-0.002-0.361-0.08-0.402-0.35
		c-0.051-0.339-0.099-0.679-0.147-1.019c-0.072-0.506-0.331-0.734-0.85-0.734c-1.359-0.002-2.718,0-4.077,0
		c-0.226,0-0.453-0.006-0.679,0.001C4.444,4.89,4.184,5.115,4.114,5.533C4.052,5.902,4.004,6.274,3.949,6.644
		C3.911,6.902,3.828,6.976,3.563,6.978c-0.476,0.003-0.953,0-1.429,0.001C1.616,6.981,1.343,7.256,1.343,7.774
		c0,0.906-0.005,1.812,0.001,2.718c0.001,0.165-0.052,0.233-0.208,0.302c-0.316,0.14-0.612,0.326-0.932,0.501
		c0-0.06,0-0.134,0-0.208c0-2.538,0-5.076,0-7.615c0-0.844,0.51-1.361,1.352-1.361C5.352,2.11,9.148,2.113,12.943,2.114
		c0.37,0,0.434-0.06,0.478-0.418c0.045-0.364,0.103-0.726,0.148-1.09C13.611,0.272,13.854,0.128,14.119,0
		C15.853,0,17.587,0,19.321,0z"/>
	<path style="display:inline;" d="M7.1,16.596c0.468,0.002,0.587,0.083,0.743,0.516c0.447,1.239,0.893,2.477,1.339,3.716
		c0.026,0.073,0.048,0.148,0.069,0.223c0.093,0.331-0.026,0.594-0.308,0.683c-0.326,0.102-0.59-0.028-0.71-0.349
		c-0.003-0.007-0.005-0.015-0.008-0.022C8.131,21.12,8.1,20.786,7.922,20.656c-0.171-0.124-0.495-0.036-0.753-0.038
		c-0.289-0.002-0.578,0.008-0.866-0.004c-0.144-0.006-0.208,0.049-0.249,0.18c-0.07,0.223-0.149,0.443-0.235,0.661
		c-0.109,0.274-0.393,0.382-0.704,0.277c-0.236-0.08-0.373-0.322-0.297-0.586c0.075-0.261,0.176-0.516,0.279-0.768
		c0.453-1.12,0.91-2.238,1.366-3.356C6.631,16.608,6.651,16.595,7.1,16.596z M7.086,17.87c-0.018-0.002-0.037-0.004-0.055-0.007
		c-0.217,0.648-0.434,1.296-0.655,1.956c0.466,0,0.89,0,1.337,0C7.499,19.155,7.293,18.513,7.086,17.87z"/>
</g>
<path style="fill:#92CC23;" d="M22,2h-2V0.5C20,0.224,19.776,0,19.5,0h-6C13.224,0,13,0.224,13,0.5V2H2C0.895,2,0,2.895,0,4v3v4
	c0.552,0,1-0.448,1-1V7.5C1,7.224,1.224,7,1.5,7h2C3.776,7,4,6.776,4,6.5v-1C4,5.224,4.224,5,4.5,5h6C10.776,5,11,5.224,11,5.5v1
	C11,6.776,11.224,7,11.5,7h11C22.776,7,23,7.224,23,7.5V10c0,0.552,0.448,1,1,1V7V4C24,2.895,23.105,2,22,2z"/>
<path style="fill:#92CC23;" d="M21.998,12h-2v-1.5c0-0.276-0.224-0.5-0.5-0.5h-6c-0.276,0-0.5,0.224-0.5,0.5V12h-11
	c-1.105,0-2,0.895-2,2v3v4c0.552,0,1-0.448,1-1v-2.5c0-0.276,0.224-0.5,0.5-0.5h2c0.276,0,0.5-0.224,0.5-0.5v-1
	c0-0.276,0.224-0.5,0.5-0.5h6c0.276,0,0.5,0.224,0.5,0.5v1c0,0.276,0.224,0.5,0.5,0.5h11c0.276,0,0.5,0.224,0.5,0.5V20
	c0,0.552,0.448,1,1,1v-4v-3C23.998,12.895,23.103,12,21.998,12z"/>
<g>
	<path style="fill:#92CC23;" d="M5.349,20.307l1.553-3.859c0.108-0.266,0.306-0.427,0.573-0.427h0.057
		c0.267,0,0.458,0.161,0.566,0.427l1.553,3.859c0.032,0.077,0.051,0.147,0.051,0.217c0,0.287-0.204,0.519-0.465,0.519
		c-0.229,0-0.381-0.147-0.471-0.371L8.467,19.9h-1.96l-0.312,0.806c-0.083,0.21-0.249,0.336-0.452,0.336
		c-0.254,0-0.452-0.224-0.452-0.504C5.292,20.461,5.317,20.384,5.349,20.307z M8.104,18.948L7.487,17.33L6.87,18.948H8.104z"/>
</g>
<rect y="23" style="fill:#92CC23;" width="24" height="1"/>
<rect x="23" y="19" style="fill:#92CC23;" width="1" height="4"/>
<rect y="20" style="fill:#92CC23;" width="1" height="4"/>
</svg>
