<?xml version="1.0" encoding="utf-8"?>
<!-- Generator: Adobe Illustrator 18.1.0, SVG Export Plug-In . SVG Version: 6.00 Build 0)  -->
<!DOCTYPE svg PUBLIC "-//W3C//DTD SVG 1.1//EN" "http://www.w3.org/Graphics/SVG/1.1/DTD/svg11.dtd">
<svg version="1.1" id="Layer_1" xmlns="http://www.w3.org/2000/svg" xmlns:xlink="http://www.w3.org/1999/xlink" x="0px" y="0px"
	 viewBox="-118 285 374 224" enable-background="new -118 285 374 224" xml:space="preserve">
<rect x="301.6" y="290.4" fill="#001DF2" width="157.1" height="132.4"/>
<path fill="none" d="M209.4,409c5.7,0,10.3-4.6,10.3-10.3v-7.9c0-5.7-4.6-10.3-10.3-10.3c0,0-0.1,0-0.1,0L209.4,409
	C209.3,408.9,209.4,409,209.4,409z"/>
<path fill="none" d="M49.1,462.3c0-0.8,0-1.5,0.1-2.2c-6.1-5.1-6-11.6-4.7-16.2l-38.9,0c1.6,4.4,2.9,11.9-3.6,17.6
	c1.1,4.9,2.4,20.1-23.3,26c0,0-21.5,4.6-39.7,21.4h174.6c-18.3-16.8-39.7-21.4-39.7-21.4C49.5,481.5,48.3,468.1,49.1,462.3z"/>
<path fill="#C65C32" d="M55.6,445.9c0-0.5-0.2-1.2-0.4-2l-10.8,0c-1.2,4.6-1.4,11.1,4.7,16.2C49.8,451.3,55.6,445.9,55.6,445.9z"/>
<path fill="#C65C32" d="M-4.7,448.5c0,0,4.7,4.4,6.1,11.6c0.1,0.2,0.2,0.7,0.4,1.5c6.5-5.8,5.2-13.2,3.6-17.6l-8.9,0
	C-4.1,445.8-4.6,447.4-4.7,448.5z"/>
<path fill="#FFFFFF" d="M46.1,423.3c-0.6-1.1-1-2.2-1.3-3.2l-37.8,0c-0.3,1.7-1,3.6-2.1,5.8c0,0-5.7,10.9-8.3,18l8.9,0l38.9,0
	l10.8,0C53.4,437.4,46.1,423.3,46.1,423.3z M24.6,437.1c-3.2,0-5.8-2.6-5.8-5.8c0-3.2,2.6-5.8,5.8-5.8c3.2,0,5.8,2.6,5.8,5.8
	C30.4,434.5,27.8,437,24.6,437.1z"/>
<polygon fill="#95D6E0" points="72.2,323.5 72.2,316.7 -23.1,396.8 -23.1,402.3 "/>
<path fill="#95D6E0" d="M-13.3,415.9l-5.1,4.3l3.6,0c0,0,0,0,0,0C-14.8,420.1-14.3,418.2-13.3,415.9z"/>
<path fill="#95D6E0" d="M0.4,408c0,0,8.4,2.5,6.5,12.1l37.8,0c-4.1-11.8,5.8-14.7,5.8-14.7c11.1-4.2,15.2,12.1,15.2,12.1
	c0.2,0.9,0.4,1.8,0.6,2.6l1.2,0c2.6,0,4.7-2.1,4.7-4.7l0-70.8L-3,407.3C-1.9,407.3-0.8,407.5,0.4,408z"/>
<path fill="#95D6E0" d="M-18.4,302.1c-2.6,0-4.6,2.1-4.6,4.7l0,59.1l70.3-63.8L-18.4,302.1z"/>
<path fill="#FFFFFF" d="M80.9,392.8l0-89.7c0-6.2-5-11.2-11.2-11.2l-90.3,0c-6.2,0-11.2,5-11.2,11.2l0,94l0,35.7
	c0,3.5,1.6,6.7,4.2,8.7c2.7,0.5,8.2-1.4,12.7-21.3l-3.6,0l5.1-4.3c1.7-3.8,5-8.7,10.3-8.6l75.2-62.6l0,70.8c0,2.6-2.1,4.7-4.7,4.7
	l-1.2,0c4.8,19.4,10.6,19.4,12.9,18.5c1.1-1.7,1.7-3.7,1.7-5.9L80.9,392.8z M-23.1,306.7c0-2.6,2.1-4.7,4.6-4.7l65.7,0l-70.3,63.8
	L-23.1,306.7z M-23.1,402.3l0-5.5l95.2-80.1l0,6.8L-23.1,402.3z"/>
<path fill="#95D6E0" d="M24.6,425.5c-3.2,0-5.8,2.6-5.8,5.8c0,3.2,2.6,5.8,5.8,5.8c3.2,0,5.8-2.6,5.8-5.8
	C30.4,428.1,27.8,425.5,24.6,425.5z"/>
<path fill="#E38053" d="M0.4,408c-1.2-0.5-2.3-0.7-3.4-0.7c-5.3-0.1-8.6,4.8-10.3,8.6c-1.1,2.3-1.5,4.2-1.5,4.2c0,0,0,0,0,0
	c-4.5,20-10,21.9-12.7,21.3c-2.6-2-4.2-5.2-4.2-8.7l0-35.7c-9.6,9.3-32.5,35.1-19.8,57.2c-2.3-4,4.3,8.2,9.6,17.4
	c-30.9,7.1-52.4,22.1-66.9,37.3h47.7c18.3-16.8,39.7-21.4,39.7-21.4c25.7-5.9,24.5-21.1,23.3-26c-0.2-0.8-0.4-1.3-0.4-1.5
	c-1.5-7.2-6.1-11.6-6.1-11.6c0.1-1.1,0.5-2.7,1.2-4.6c2.6-7.1,8.3-18,8.3-18c1.1-2.2,1.7-4.1,2.1-5.8C8.8,410.5,0.4,408,0.4,408z"/>
<path fill="#E38053" d="M91.7,471.2c0.6-1,1.2-1.9,1.7-2.9c1.4-2.4,2.8-4.9,4.1-7.3c0.1-0.1,0.1-0.2,0.1-0.2l0,0.1
	c3.7-6.6,6.5-11.9,4.9-9.1c13.5-23.7-13.6-51.4-21.6-58.9l0,39.9c0,2.2-0.6,4.2-1.7,5.9c-2.3,0.9-8,0.9-12.9-18.5
	c-0.2-0.8-0.4-1.7-0.6-2.6c0,0-4.1-16.4-15.2-12.1c0,0-9.9,2.9-5.8,14.7c0.3,1,0.8,2.1,1.3,3.2c0,0,7.4,14.1,9.2,20.6
	c0.2,0.8,0.4,1.5,0.4,2c0,0-5.8,5.4-6.5,14.2c-0.1,0.7-0.1,1.5-0.1,2.2c-0.7,5.8,0.4,19.2,24.5,25.3c0,0,21.5,4.6,39.7,21.4h47.7
	C146.1,493.4,123.9,478,91.7,471.2z"/>
<polygon fill="#006284" points="242.5,441.4 150.1,443.2 133.5,408.8 132.6,414 148.2,448.1 243.3,445.7 243.3,441.4 242.1,441 "/>
<polygon fill="#006284" points="133.6,408.1 133.6,408.2 133.9,408.2 "/>
<path fill="#E38053" d="M242.5,441.4l-0.4-0.4l-27.7-26.4c-1.6,0.5-3.3,0.8-5,0.8c0,0-0.1,0-0.1,0v5.4h-0.2
	c-1.5,6.8-18.1,8.6-28.2,8.6c-10,0-26.6-1.9-28.2-8.6h-0.2v-12.9l-18.7,0.3l-0.3,0l-0.4,0l0.3,0.6l16.6,34.4L242.5,441.4z"/>
<path fill="#FFFFFF" d="M209.3,419.8c0,0.4-0.1,0.7-0.1,1h0.2v-5.4c-1,0-1.9-0.1-2.9-0.3C208.2,416.4,209.3,417.9,209.3,419.8z"/>
<path fill="#FFFFFF" d="M180.5,366.7L180.5,366.7c1.1,0,2.1,0,3.1,0.1C182.6,366.7,181.6,366.7,180.5,366.7z"/>
<path fill="#B9E6EE" d="M156.8,366.2c0.1,1.3,1.4,2.5,3.7,3.5c4.2-1.8,11.4-3,19.7-3c0.1,0,0.2,0,0.3,0h0l0,0c1.1,0,2.1,0,3.1,0.1
	c6.8,0.2,12.8,1.3,16.5,2.8c0.1,0.1,0.3,0.1,0.4,0.2c2.3-1,3.7-2.2,3.7-3.5c0-3.6-10.6-6.5-23.7-6.5
	C157.5,359.8,156.8,365.6,156.8,366.2z"/>
<path fill="#1478A2" d="M180.5,366.7L180.5,366.7c-0.1,0-0.2,0-0.3,0c-8.3,0-15.6,1.2-19.7,3c4.2,1.8,11.6,3,20,3
	c8.4,0,15.8-1.2,20-3c-0.1-0.1-0.3-0.1-0.4-0.2c-3.7-1.5-9.6-2.5-16.5-2.8C182.6,366.7,181.6,366.7,180.5,366.7z"/>
<path fill="#FFFFFF" d="M209.4,374C209.4,374,209.3,374,209.4,374l-0.1-8.2h-0.1c-0.8-7.2-18-9.2-28.3-9.2
	c-10.3,0-27.5,1.9-28.3,9.2h-0.1v42.2v12.9h0.2c1.5,6.8,18.1,8.6,28.2,8.6c10,0,26.6-1.9,28.2-8.6c0.1-0.3,0.1-0.7,0.1-1
	c0-1.9-1.1-3.4-2.8-4.6c0.9,0.2,1.9,0.3,2.9,0.3c0,0,0.1,0,0.1,0c1.7,0,3.4-0.3,5-0.8c6.8-2.1,11.8-8.5,11.8-16v-7.9
	C226.2,381.5,218.7,374,209.4,374z M180.5,372.7c-8.4,0-15.8-1.2-20-3c4.2-1.8,11.4-3,19.7-3c-8.3,0-15.6,1.2-19.7,3
	c-2.4-1-3.7-2.2-3.7-3.5c0-0.7,0.7-6.5,23.7-6.5c13.1,0,23.7,2.9,23.7,6.5c0,1.3-1.4,2.5-3.7,3.5c-0.1-0.1-0.3-0.1-0.4-0.2
	c0.1,0.1,0.3,0.1,0.4,0.2C196.3,371.5,188.9,372.7,180.5,372.7z M219.7,398.6c0,5.7-4.6,10.3-10.3,10.3c0,0-0.1,0-0.1,0v-28.5
	c0,0,0.1,0,0.1,0c5.7,0,10.3,4.6,10.3,10.3V398.6z"/>
</svg>
