<?xml version="1.0" encoding="utf-8"?>
<!-- Generator: Adobe Illustrator 15.0.0, SVG Export Plug-In . SVG Version: 6.00 Build 0)  -->
<!DOCTYPE svg PUBLIC "-//W3C//DTD SVG 1.1//EN" "http://www.w3.org/Graphics/SVG/1.1/DTD/svg11.dtd">
<svg version="1.1" id="Layer_1" xmlns="http://www.w3.org/2000/svg" xmlns:xlink="http://www.w3.org/1999/xlink" x="0px" y="0px"
	 width="617.2px" height="265.8px" viewBox="0 0 617.2 265.8" style="enable-background:new 0 0 617.2 265.8;" xml:space="preserve"
	>
<style type="text/css">
<![CDATA[
	.st0{clip-path:url(#SVGID_2_);fill-rule:evenodd;clip-rule:evenodd;fill:#48979E;}
	.st1{clip-path:url(#SVGID_2_);fill:#808184;}
	.st2{clip-path:url(#SVGID_2_);fill-rule:evenodd;clip-rule:evenodd;fill:#BED630;}
	.st3{clip-path:url(#SVGID_2_);fill:#BED630;}
	.st4{clip-path:url(#SVGID_2_);fill-rule:evenodd;clip-rule:evenodd;fill:#62C7CF;}
	.st5{clip-path:url(#SVGID_2_);fill:#62C7CF;}
]]>
</style>
<g>
	<defs>
		<polyline id="SVGID_1_" points="0,324.8 0,0 617.2,0 617.2,324.8 		"/>
	</defs>
	<clipPath id="SVGID_2_">
		<use xlink:href="#SVGID_1_"  style="overflow:visible;"/>
	</clipPath>
	<path class="st0" d="M388.9,176.9c0,0-14.4,2.7-26.8-3l24.9-20l17.5,1.9l1.4,7.8L388.9,176.9z"/>
	<path class="st2" d="M371.6,121.7l-67.1,48.3l63.7-0.3l26.4-21.9c0,0,0.6-32.7-1-32.5C391.9,115.5,371.6,121.7,371.6,121.7"/>
	<path class="st4" d="M384,95.5l-63.2,105.3l84.3-40.8l23.3-45.2c0,0-16.8-42.8-18.8-41.5C407.7,74.6,384,95.5,384,95.5"/>
	<path class="st0" d="M374.6,111l-4.7,7.9c0,0,23.9,17.4,22.1,47.4l25.2-18.2l2.2-35l-23.5-11.5L374.6,111z"/>
	<polygon class="st3" points="473.5,55.3 497.2,81 454.7,89.3 	"/>
	<path class="st5" d="M439,136.4c0,0,36.5-82.4,34.8-81.1c-1.7,1.3-59,14.8-59,14.8L439,136.4z"/>
	<path class="st2" d="M445.4,100.3c-3.4-43.9-34.3-53.8-43.4-84c-16.4,19.9,4.4,39.6,10.1,48.3c2.6,3.9,0.2,5.7-3.2,3
		c-31.1-25.5-59.3-50-69.7-66.2c-3.6-5.5-9.4,6.4-1.8,17.3C348.1,33.9,363.3,47,377.3,59c2.1,1.8,4.1,3.6,6,5.2
		c0.7,0.6,0.8,1.8,0.2,2.6c-0.6,0.8-1.7,1-2.4,0.3c-2.1-1.8-4-3.5-6-5.2c-16-13.8-29.2-25.3-41-42c-4.7-6-4.6,9.1-1.4,14.4
		c11.6,16.1,24.9,27.1,40.5,40.6c2.1,1.8,4.1,3.6,6,5.2c0.7,0.6,0.8,1.8,0.2,2.6c-0.6,0.8-1.7,1-2.4,0.3c-2.1-1.8-4-3.5-6-5.2
		c-14.4-13-26-22.4-37.2-36.7c-4-5.1-5.3,8.2-1.9,12.8c10.6,14.6,24.4,25.6,37.3,36.8c2.1,1.8,4.1,3.6,6,5.2
		c0.7,0.6,0.8,1.8,0.2,2.6c-0.6,0.8-1.7,1-2.4,0.3c-2.1-1.8-4-3.5-6-5.2c-11.3-9.7-22.8-20.2-33.2-31.6c-2.4-2.6-3.3,3.1,3.4,13.3
		c5.7,8.6,19.1,24.1,33.4,35.6c32.2,25.9,31.7,40.1,18.3,66.1C423.4,165.8,448.8,145.1,445.4,100.3"/>
	<path class="st5" d="M6.5,195.4h41.9v13.1h-29l-0.8,11.8c2.7-0.7,5.2-1.2,9-1.2c13.4,0,23.9,6.4,23.9,21.9
		c0,14.5-10.2,23.7-25.9,23.7c-10.9,0-18.9-3.9-25.5-10.2l9.1-10.8c5.2,4.7,10.2,7.4,16.3,7.4c7,0,11.4-3.4,11.4-9.5
		c0-5.9-4.8-9.3-12.1-9.3c-4.3,0-8.2,1.2-11.4,2.5L4.6,229L6.5,195.4z"/>
	<path class="st5" d="M84.8,264.7c-18.2,0-30.2-15.3-30.2-35.1c0-19.9,12.2-35.3,30.4-35.3c18.2,0,30.2,15.3,30.2,35.2
		C115.2,249.2,103,264.7,84.8,264.7 M84.8,207.7c-9.1,0-14.8,9.1-14.8,21.6s5.9,21.8,15,21.8c9.1,0,14.8-9.2,14.8-21.6
		C99.8,217.1,93.9,207.7,84.8,207.7"/>
	<path class="st1" d="M142.7,196.5c-6.8,0-10,4.1-10,12.6v4.8H150v4.4h-17.3v45.3h-4.8v-45.3h-7.2v-4.4h7.2V209
		c0-10.7,5.5-16.8,14.8-16.8c3,0,5.2,0.4,7.4,1.2v4.5C147.3,196.9,145.2,196.5,142.7,196.5"/>
	<path class="st1" d="M173.5,264.7c-14.7,0-25.4-11.9-25.4-25.8v-0.2c0-13.9,10.8-26,25.6-26c14.7,0,25.4,11.9,25.4,25.8v0.2
		C199.1,252.6,188.3,264.7,173.5,264.7 M193.9,238.7c0-12-9-21.5-20.4-21.5c-11.8,0-20.3,9.6-20.3,21.3v0.2c0,12,9,21.5,20.4,21.5
		c11.8,0,20.3-9.6,20.3-21.3V238.7z"/>
	<path class="st1" d="M230.3,218.3c-11.5,0-21.5,8.7-21.5,24.8v20.4H204v-49.7h4.8V228c3.9-8.9,12.2-15.3,22-14.9v5.3H230.3z"/>
	<path class="st5" d="M263.1,204.2c-3.4,0-5.4,1.8-5.4,5.6v2h12V224h-11.8v39.5h-14.8V224H237v-12.2h6.1v-3.3
		c0-11.5,5.7-16.7,16.2-16.7c4.7,0,7.8,0.6,10.5,1.5v12.3C267.6,204.7,265.6,204.2,263.1,204.2"/>
	<path class="st5" d="M304.5,225.9c-9.8,0-15.9,5.9-15.9,18.4v19.3h-14.8v-52.2h14.8v10.5c3-7.2,7.9-11.9,16.7-11.5v15.5H304.5z"/>
	<path class="st5" d="M357.7,242.6h-36.3c1.5,6.7,6.1,10.2,12.8,10.2c5,0,8.6-1.6,12.7-5.4l8.5,7.5c-4.9,6-11.9,9.7-21.3,9.7
		c-15.7,0-27.3-11-27.3-27v-0.2c0-14.9,10.6-27.2,25.8-27.2c17.4,0,25.4,13.5,25.4,28.3v0.2C357.9,240.4,357.8,241.2,357.7,242.6
		 M332.5,222.2c-6.1,0-10.1,4.4-11.3,11.1h22.3C342.6,226.7,338.7,222.2,332.5,222.2"/>
	<path class="st5" d="M413.5,242.6h-36.3c1.5,6.7,6.1,10.2,12.8,10.2c5,0,8.6-1.6,12.7-5.4l8.5,7.5c-4.9,6-11.9,9.7-21.3,9.7
		c-15.7,0-27.3-11-27.3-27v-0.2c0-14.9,10.6-27.2,25.8-27.2c17.4,0,25.4,13.5,25.4,28.3v0.2C413.7,240.4,413.6,241.2,413.5,242.6
		 M388.3,222.2c-6.1,0-10.1,4.4-11.3,11.1h22.3C398.4,226.7,394.5,222.2,388.3,222.2"/>
	<path class="st5" d="M456.5,263.5V256c-3.6,4.9-8.6,8.5-16.3,8.5c-12.2,0-23.8-9.5-23.8-27v-0.2c0-17.4,11.4-27,23.8-27
		c7.9,0,12.8,3.6,16.3,7.8v-25.7h14.8v71.1H456.5z M456.7,237.3c0-8.7-5.7-14.4-12.7-14.4s-12.8,5.6-12.8,14.4v0.2
		c0,8.7,5.8,14.4,12.8,14.4s12.7-5.7,12.7-14.4V237.3z"/>
	<path class="st5" d="M504.4,264.7c-16.2,0-28.1-12-28.1-27v-0.2c0-15,12.1-27.2,28.3-27.2c16.2,0,28.1,12,28.1,27v0.2
		C532.7,252.5,520.6,264.7,504.4,264.7 M518.1,237.5c0-7.7-5.6-14.4-13.7-14.4c-8.5,0-13.5,6.5-13.5,14.2v0.2
		c0,7.7,5.6,14.4,13.7,14.4c8.5,0,13.5-6.5,13.5-14.2V237.5z"/>
	<path class="st5" d="M602.4,263.5v-29.1c0-7-3.1-10.6-8.7-10.6c-5.5,0-9,3.6-9,10.6v29.1H570v-29.1c0-7-3.1-10.6-8.7-10.6
		c-5.6,0-9,3.6-9,10.6v29.1h-14.8v-52.2h14.8v7.4c3.4-4.4,7.9-8.4,15.4-8.4c6.8,0,12,3,14.7,8.3c4.6-5.4,10-8.3,17.1-8.3
		c11,0,17.6,6.6,17.6,19.2v34H602.4z"/>
</g>
</svg>
