<?xml version="1.0" encoding="UTF-8" standalone="no"?>
<!-- Created with Inkscape (http://www.inkscape.org/) -->
<svg xmlns:rdf="http://www.w3.org/1999/02/22-rdf-syntax-ns#" xmlns="http://www.w3.org/2000/svg" xmlns:cc="http://web.resource.org/cc/" xmlns:dc="http://purl.org/dc/elements/1.1/" xmlns:svg="http://www.w3.org/2000/svg" xmlns:inkscape="http://www.inkscape.org/namespaces/inkscape" xmlns:sodipodi="http://sodipodi.sourceforge.net/DTD/sodipodi-0.dtd" xmlns:ns1="http://sozi.baierouge.fr" xmlns:xlink="http://www.w3.org/1999/xlink" id="svg10680" viewBox="0 0 72.78 133.11" version="1.0" inkscape:version="0.91 r13725">
  <g id="layer1" transform="translate(-338.61 -465.81)">
    <g id="g7185" style="stroke:#666666;fill:#cccccc" transform="matrix(.37217 0 0 .37217 439.1 228.84)">
      <path id="path7171" style="stroke-linejoin:round;fill-rule:evenodd;stroke:#666666;stroke-linecap:square;stroke-width:7.0866;fill:#cccccc" d="m-234.5 867.38a8.1947 31.518 0 1 1 -16.38 0 8.1947 31.518 0 1 1 16.38 0z" transform="matrix(.88757 0 0 2.0025 -6.8881 -810.39)"/>
      <path id="path7167" style="stroke-linejoin:round;fill-rule:evenodd;stroke:#666666;stroke-linecap:square;stroke-width:7.0866;fill:#cccccc" d="m-229.45 819.47a8.8251 50.429 0 1 1 -17.65 0 8.8251 50.429 0 1 1 17.65 0z" transform="matrix(1.4691 0 0 1.1778 127.09 -124.47)"/>
      <path id="path7173" style="stroke-linejoin:round;fill-rule:evenodd;stroke:#666666;stroke-linecap:square;stroke-width:7.0866;fill:#cccccc" d="m-234.5 867.38a8.1947 31.518 0 1 1 -16.38 0 8.1947 31.518 0 1 1 16.38 0z" transform="matrix(.88992 0 0 1.9793 27.205 -791.04)"/>
      <path id="path7169" style="stroke-linejoin:round;fill-rule:evenodd;stroke:#666666;stroke-linecap:square;stroke-width:7.0866;fill:#cccccc" d="m-229.45 819.47a8.8251 50.429 0 1 1 -17.65 0 8.8251 50.429 0 1 1 17.65 0z" transform="matrix(1.4691 0 0 1.1778 162.49 -124.47)"/>
      <path id="path7177" style="stroke-linejoin:round;fill-rule:evenodd;stroke:#666666;stroke-linecap:square;stroke-width:7.0866;fill:#cccccc" d="m-158.85 697.18a8.1947 36.561 0 1 1 -16.39 0 8.1947 36.561 0 1 1 16.39 0z" transform="matrix(.87464 -.48478 .48478 .87464 -353.91 50.375)"/>
      <path id="path7165" style="stroke-linejoin:round;fill-rule:evenodd;stroke:#666666;stroke-linecap:square;stroke-width:7.0866;fill:#cccccc" d="m-223.15 779.13a25.845 51.69 0 1 1 -51.69 0 25.845 51.69 0 1 1 51.69 0z" transform="matrix(1.2168 0 0 1.2168 96.894 -194.97)"/>
      <path id="path7163" style="stroke-linejoin:round;fill-rule:evenodd;stroke:#666666;stroke-linecap:square;stroke-width:7.0866;fill:#cccccc" d="m-200.46 637.3a27.106 27.106 0 1 1 -54.21 0 27.106 27.106 0 1 1 54.21 0z" transform="translate(20.14 30.086)"/>
      <path id="path7179" style="stroke-linejoin:round;fill-rule:evenodd;stroke:#666666;stroke-linecap:square;stroke-width:7.0866;fill:#cccccc" d="m-161.37 767.15a6.3036 35.931 0 1 1 -12.61 0 6.3036 35.931 0 1 1 12.61 0z" transform="matrix(-.15467 -.98797 .98797 -.15467 -897.35 719.97)"/>
      <path id="path7181" style="stroke-linejoin:round;fill-rule:evenodd;stroke:#666666;stroke-linecap:square;stroke-width:7.0866;fill:#cccccc" d="m-158.85 697.18a8.1947 36.561 0 1 1 -16.39 0 8.1947 36.561 0 1 1 16.39 0z" transform="matrix(.88893 .45804 -.45804 .88893 220.07 196.64)"/>
      <path id="path7183" style="stroke-linejoin:round;fill-rule:evenodd;stroke:#666666;stroke-linecap:square;stroke-width:7.0866;fill:#cccccc" d="m-161.37 767.15a6.3036 35.931 0 1 1 -12.61 0 6.3036 35.931 0 1 1 12.61 0z" transform="matrix(.93211 -.36218 .36218 .93211 -373.73 18.919)"/>
    </g>
  </g>
  <metadata>
    <rdf:RDF>
      <cc:Work>
        <dc:format>image/svg+xml</dc:format>
        <dc:type rdf:resource="http://purl.org/dc/dcmitype/StillImage"/>
        <cc:license rdf:resource="http://creativecommons.org/licenses/publicdomain/"/>
        <dc:publisher>
          <cc:Agent rdf:about="http://openclipart.org/">
            <dc:title>Openclipart</dc:title>
          </cc:Agent>
        </dc:publisher>
        <dc:title>people near a blackboard</dc:title>
        <dc:date>2008-04-17T12:19:05</dc:date>
        <dc:description>Two people talking near a green blackboard. E=mc² formula written on a blackboard. One person is standing and listening. The other person is pointing to the blackboard.&#13;\n&#13;\nSilhouttes of the people are also available separately.</dc:description>
        <dc:source>https://openclipart.org/detail/16412/people-near-a-blackboard-by-jetxee-16412</dc:source>
        <dc:creator>
          <cc:Agent>
            <dc:title>jetxee</dc:title>
          </cc:Agent>
        </dc:creator>
        <dc:subject>
          <rdf:Bag>
            <rdf:li>blackboard</rdf:li>
            <rdf:li>cartoon</rdf:li>
            <rdf:li>colour</rdf:li>
            <rdf:li>discussion</rdf:li>
            <rdf:li>education</rdf:li>
            <rdf:li>formula</rdf:li>
            <rdf:li>inkscape</rdf:li>
            <rdf:li>people</rdf:li>
            <rdf:li>school</rdf:li>
            <rdf:li>science</rdf:li>
            <rdf:li>students</rdf:li>
            <rdf:li>talk</rdf:li>
            <rdf:li>two</rdf:li>
          </rdf:Bag>
        </dc:subject>
      </cc:Work>
      <cc:License rdf:about="http://creativecommons.org/licenses/publicdomain/">
        <cc:permits rdf:resource="http://creativecommons.org/ns#Reproduction"/>
        <cc:permits rdf:resource="http://creativecommons.org/ns#Distribution"/>
        <cc:permits rdf:resource="http://creativecommons.org/ns#DerivativeWorks"/>
      </cc:License>
    </rdf:RDF>
  </metadata>
</svg>
