<?xml version="1.0" encoding="UTF-8" standalone="no"?>
<!-- Created with Inkscape (http://www.inkscape.org/) -->
<svg xmlns:rdf="http://www.w3.org/1999/02/22-rdf-syntax-ns#" xmlns="http://www.w3.org/2000/svg" xmlns:cc="http://web.resource.org/cc/" xmlns:dc="http://purl.org/dc/elements/1.1/" xmlns:svg="http://www.w3.org/2000/svg" xmlns:inkscape="http://www.inkscape.org/namespaces/inkscape" xmlns:sodipodi="http://sodipodi.sourceforge.net/DTD/sodipodi-0.dtd" xmlns:ns1="http://sozi.baierouge.fr" xmlns:xlink="http://www.w3.org/1999/xlink" id="svg10699" viewBox="0 0 69.761 135.05" version="1.0" inkscape:version="0.91 r13725">
  <g id="layer1" transform="translate(-599.41 -441.98)">
    <g id="g8286" style="stroke:#666666;fill:#cccccc" transform="matrix(.37217 0 0 .37217 733.04 212.58)">
      <path id="path7199" style="stroke-linejoin:round;fill-rule:evenodd;stroke:#666666;stroke-linecap:square;stroke-width:7.0866;fill:#cccccc" d="m-234.5 867.38a8.1947 31.518 0 1 1 -16.38 0 8.1947 31.518 0 1 1 16.38 0z" transform="matrix(-.88757 0 0 2.0025 -451.02 -825.52)"/>
      <path id="path7201" style="stroke-linejoin:round;fill-rule:evenodd;stroke:#666666;stroke-linecap:square;stroke-width:7.0866;fill:#cccccc" d="m-229.45 819.47a8.8251 50.429 0 1 1 -17.65 0 8.8251 50.429 0 1 1 17.65 0z" transform="matrix(-1.4691 0 0 1.1778 -585 -139.6)"/>
      <path id="path7203" style="stroke-linejoin:round;fill-rule:evenodd;stroke:#666666;stroke-linecap:square;stroke-width:7.0866;fill:#cccccc" d="m-234.5 867.38a8.1947 31.518 0 1 1 -16.38 0 8.1947 31.518 0 1 1 16.38 0z" transform="matrix(-.88992 0 0 1.9793 -485.11 -806.17)"/>
      <path id="path7205" style="stroke-linejoin:round;fill-rule:evenodd;stroke:#666666;stroke-linecap:square;stroke-width:7.0866;fill:#cccccc" d="m-229.45 819.47a8.8251 50.429 0 1 1 -17.65 0 8.8251 50.429 0 1 1 17.65 0z" transform="matrix(-1.4691 0 0 1.1778 -620.39 -139.6)"/>
      <path id="path7207" style="stroke-linejoin:round;fill-rule:evenodd;stroke:#666666;stroke-linecap:square;stroke-width:7.0866;fill:#cccccc" d="m-158.85 697.18a8.1947 36.561 0 1 1 -16.39 0 8.1947 36.561 0 1 1 16.39 0z" transform="matrix(.20229 -.97933 -.97933 -.20229 416.06 670.62)"/>
      <path id="path7209" style="stroke-linejoin:round;fill-rule:evenodd;stroke:#666666;stroke-linecap:square;stroke-width:7.0866;fill:#cccccc" d="m-223.15 779.13a25.845 51.69 0 1 1 -51.69 0 25.845 51.69 0 1 1 51.69 0z" transform="matrix(-1.2168 0 0 1.2168 -554.8 -210.09)"/>
      <path id="path7211" style="stroke-linejoin:round;fill-rule:evenodd;stroke:#666666;stroke-linecap:square;stroke-width:7.0866;fill:#cccccc" d="m-200.46 637.3a27.106 27.106 0 1 1 -54.21 0 27.106 27.106 0 1 1 54.21 0z" transform="matrix(-1 0 0 1 -478.05 14.957)"/>
      <path id="path7213" style="stroke-linejoin:round;fill-rule:evenodd;stroke:#666666;stroke-linecap:square;stroke-width:7.0866;fill:#cccccc" d="m-161.37 767.15a6.3036 35.931 0 1 1 -12.61 0 6.3036 35.931 0 1 1 12.61 0z" transform="matrix(.95689 -.29046 -.29046 -.95689 39.812 1339.7)"/>
      <path id="path7215" style="stroke-linejoin:round;fill-rule:evenodd;stroke:#666666;stroke-linecap:square;stroke-width:7.0866;fill:#cccccc" d="m-158.85 697.18a8.1947 36.561 0 1 1 -16.39 0 8.1947 36.561 0 1 1 16.39 0z" transform="matrix(-.67821 .73487 .73487 .67821 -831.01 370.94)"/>
      <path id="path7217" style="stroke-linejoin:round;fill-rule:evenodd;stroke:#666666;stroke-linecap:square;stroke-width:7.0866;fill:#cccccc" d="m-161.37 767.15a6.3036 35.931 0 1 1 -12.61 0 6.3036 35.931 0 1 1 12.61 0z" transform="matrix(-.38449 -.92313 -.92313 .38449 435.29 307.35)"/>
    </g>
  </g>
  <metadata>
    <rdf:RDF>
      <cc:Work>
        <dc:format>image/svg+xml</dc:format>
        <dc:type rdf:resource="http://purl.org/dc/dcmitype/StillImage"/>
        <cc:license rdf:resource="http://creativecommons.org/licenses/publicdomain/"/>
        <dc:publisher>
          <cc:Agent rdf:about="http://openclipart.org/">
            <dc:title>Openclipart</dc:title>
          </cc:Agent>
        </dc:publisher>
        <dc:title>people near a blackboard</dc:title>
        <dc:date>2008-04-17T12:19:05</dc:date>
        <dc:description>Two people talking near a green blackboard. E=mc² formula written on a blackboard. One person is standing and listening. The other person is pointing to the blackboard.&#13;\n&#13;\nSilhouttes of the people are also available separately.</dc:description>
        <dc:source>https://openclipart.org/detail/16413/people-near-a-blackboard-by-jetxee-16413</dc:source>
        <dc:creator>
          <cc:Agent>
            <dc:title>jetxee</dc:title>
          </cc:Agent>
        </dc:creator>
        <dc:subject>
          <rdf:Bag>
            <rdf:li>blackboard</rdf:li>
            <rdf:li>cartoon</rdf:li>
            <rdf:li>colour</rdf:li>
            <rdf:li>discussion</rdf:li>
            <rdf:li>education</rdf:li>
            <rdf:li>formula</rdf:li>
            <rdf:li>inkscape</rdf:li>
            <rdf:li>people</rdf:li>
            <rdf:li>school</rdf:li>
            <rdf:li>science</rdf:li>
            <rdf:li>students</rdf:li>
            <rdf:li>talk</rdf:li>
            <rdf:li>two</rdf:li>
          </rdf:Bag>
        </dc:subject>
      </cc:Work>
      <cc:License rdf:about="http://creativecommons.org/licenses/publicdomain/">
        <cc:permits rdf:resource="http://creativecommons.org/ns#Reproduction"/>
        <cc:permits rdf:resource="http://creativecommons.org/ns#Distribution"/>
        <cc:permits rdf:resource="http://creativecommons.org/ns#DerivativeWorks"/>
      </cc:License>
    </rdf:RDF>
  </metadata>
</svg>
