<?xml version="1.0" encoding="utf-8"?>
<!-- Generator: Adobe Illustrator 16.0.4, SVG Export Plug-In . SVG Version: 6.00 Build 0)  -->
<!DOCTYPE svg PUBLIC "-//W3C//DTD SVG 1.1//EN" "http://www.w3.org/Graphics/SVG/1.1/DTD/svg11.dtd">
<svg version="1.1" id="Layer_1" xmlns="http://www.w3.org/2000/svg" xmlns:xlink="http://www.w3.org/1999/xlink" x="0px" y="0px"
	 width="1026px" height="770px" viewBox="0 0 1026 770" enable-background="new 0 0 1026 770" xml:space="preserve">
<g>
	<rect x="2" y="2" fill="#FFFFFF" width="1022" height="766"/>
	<path fill="#D7D5C9" d="M1022,4v762H4V4H1022 M1026,0H0v770h1026V0L1026,0z"/>
</g>
<g>
	<g>
		<g>
			<g>
				<g>
					<path fill="#F7A11A" d="M482.658,414.535c-8.205-10.648-20.639-17.982-35.043-19.318
						c-25.377-2.311-48.122,14.834-53.412,39.137c8.138,4.715,17.414,7.797,27.403,8.711
						C446.454,445.336,469.376,433.682,482.658,414.535z"/>
					<path fill="#00B0CA" d="M566.899,252.07c0.318,0.027,0.652,0.064,0.976,0.078c-13.01-24.041-37.684-41.133-66.989-43.184
						c-45.557-3.18-85.068,31.162-88.252,76.717c-0.526,7.506-0.025,14.848,1.379,21.887c5.932-1.246,12.139-1.707,18.487-1.25
						c18.107,1.271,34.021,9.602,45.253,22.131C481.572,283.053,521.302,248.893,566.899,252.07z"/>
					<path fill="#BED600" d="M566.457,268.363c-37.287-2.146-69.369,26.424-71.534,63.73c-0.881,15.264,3.446,30.27,12.072,42.637
						c38.548-5.078,69.313-36.941,71.635-77.213c0.57-9.729-0.585-19.17-3.185-28.025
						C572.498,268.92,569.488,268.531,566.457,268.363z"/>
					<path fill="#A68462" d="M563.319,435.85c-0.58,0-14.376,0.061-28.305,5.648c-4.786,1.916-9.101,4.299-12.851,7.078v-34.797
						c0-4.879-3.975-8.855-8.859-8.855c-4.882,0-8.852,3.977-8.852,8.855v46.266c-3.747-2.783-8.063-5.168-12.85-7.082
						c-13.919-5.59-27.722-5.656-28.3-5.656c-4.882,0-8.854,3.977-8.854,8.855c0,4.889,3.973,8.865,8.854,8.865
						c0.105,0,10.986,0.07,21.708,4.369c13.082,5.25,19.442,14.049,19.442,26.898v56.768c0,4.875,3.97,8.846,8.852,8.846
						c4.885,0,8.859-3.971,8.859-8.846v-68.23c0-12.729,6.251-21.484,19.106-26.76c10.755-4.416,21.951-4.51,22.064-4.52
						c4.868-0.01,8.829-3.98,8.829-8.855C572.164,439.818,568.199,435.85,563.319,435.85z"/>
					<path fill="#69BE28" d="M441.179,380.008c-18.638-15.955-31.067-40.441-32.634-68.213c-28.5,7.77-49.581,33.676-49.889,64.656
						c-0.198,20.111,8.402,38.248,22.206,50.785C388.949,401.463,412.621,382.318,441.179,380.008z"/>
					<path fill="#00B0CA" d="M537.69,410.389c9.05,2.445,18.763,3.781,28.87,3.781c29.049,0,54.812-10.971,70.846-27.879
						c9.43,12.697,14.207,28.367,13.282,44.35c-2.147,37.287-34.247,65.875-71.524,63.732c-11.648-0.682-22.947-4.35-32.695-10.615
						c-3.678-2.367-8.598-1.305-10.971,2.389c-2.363,3.688-1.305,8.598,2.383,10.959c12.039,7.756,25.998,12.275,40.359,13.104
						c46.039,2.676,85.638-32.625,88.298-78.648c1.274-22.07-6.266-43.688-20.796-60.176c7.154-16.492,8.788-34.787,4.525-52.607
						c-1.15-4.812-2.784-9.873-4.726-14.348l-0.03-0.125c-9.789-21.869-28.521-38.504-51.412-45.656
						c-4.181-1.32-8.639,1.02-9.948,5.205s1.026,8.631,5.213,9.938c18.541,5.805,34.072,19.713,41.89,37.482l0.062,0.211
						c1.505,3.52,2.619,7.225,3.513,10.996c3.246,13.545,2.275,27.438-2.66,40.152c-8.002-2.967-16.718-4.631-25.855-4.625
						c-33.943,0-62.238,22.488-68.688,52.352L537.69,410.389z"/>
					<path fill="#00B0CA" d="M383.843,473.445c0.134,0.564,0.332,1.119,0.581,1.664c4.866,9.932,12.321,18.576,21.394,24.965
						c0.359,0.35,0.732,0.658,1.158,0.93c11.577,7.75,25.649,11.664,39.635,11.037c14.466-0.662,27.991-5.906,39.137-15.213
						c3.367-2.789,3.834-7.801,1.027-11.176c-2.809-3.363-7.822-3.816-11.181-1.016c-6.774,5.648-14.787,9.238-23.127,10.738
						c-0.159,0.016-0.313,0.025-0.485,0.047c-14.034,2.393-28.148-1.459-38.98-9.82c-4.466-3.697-8.374-7.971-11.646-12.717
						c-0.95-1.531-1.854-2.918-2.658-4.57l-2.263-4.674l-1.934-5.408c-0.678-2.121-1.232-4.494-1.682-6.713
						c-0.793-4.037-4.846-6.646-9.006-5.84c-4.173,0.775-6.918,4.689-6.12,8.715l1.9,8.695c1.939,8.207,9.692,21.977,17.56,29.795"
						/>
				</g>
			</g>
		</g>
	</g>
</g>
<path fill="#00B0CA" d="M546.428,518.322c1.844,0,3.646,0.469,5.402,1.414c1.756,0.943,3.112,2.305,4.099,4.062
	c0.981,1.762,1.469,3.6,1.469,5.506c0,1.895-0.478,3.713-1.438,5.453c-0.965,1.752-2.32,3.104-4.067,4.068
	c-1.746,0.971-3.56,1.449-5.464,1.449c-1.9,0-3.725-0.479-5.465-1.449c-1.747-0.965-3.103-2.316-4.068-4.068
	c-0.971-1.74-1.459-3.559-1.459-5.453c0-1.906,0.498-3.744,1.484-5.506c0.992-1.758,2.348-3.119,4.109-4.062
	C542.785,518.791,544.583,518.322,546.428,518.322z M546.428,520.141c-1.531,0-3.041,0.391-4.5,1.191
	c-1.459,0.787-2.609,1.922-3.426,3.385c-0.826,1.469-1.242,3-1.242,4.588c0,1.586,0.405,3.096,1.217,4.555
	c0.812,1.443,1.941,2.568,3.395,3.391c1.464,0.807,2.979,1.207,4.557,1.207c1.581,0,3.102-0.4,4.55-1.207
	c1.464-0.822,2.589-1.947,3.39-3.391c0.807-1.459,1.217-2.969,1.217-4.555c0-1.588-0.41-3.119-1.237-4.588
	c-0.812-1.463-1.962-2.598-3.421-3.385C549.457,520.531,547.957,520.141,546.428,520.141z M541.609,535.375v-11.818h4.068
	c1.376,0,2.383,0.113,3.004,0.324c0.632,0.225,1.115,0.605,1.484,1.145c0.359,0.545,0.555,1.125,0.555,1.73
	c0,0.869-0.313,1.623-0.924,2.26c-0.617,0.643-1.434,0.998-2.445,1.068c0.41,0.18,0.74,0.396,0.996,0.633
	c0.473,0.473,1.059,1.248,1.746,2.342l1.449,2.316h-2.332l-1.048-1.865c-0.821-1.457-1.495-2.377-1.993-2.748
	c-0.354-0.277-0.862-0.416-1.541-0.416h-1.113v5.029H541.609z M543.516,528.729h2.32c1.104,0,1.859-0.17,2.256-0.492
	c0.41-0.34,0.605-0.771,0.605-1.316c0-0.348-0.088-0.662-0.287-0.943c-0.195-0.273-0.479-0.479-0.812-0.617
	c-0.338-0.133-0.986-0.195-1.91-0.195h-2.172V528.729z"/>
</svg>
