<?xml version="1.0" encoding="utf-8"?>
<!-- Generator: Adobe Illustrator 16.0.0, SVG Export Plug-In . SVG Version: 6.00 Build 0)  -->
<!DOCTYPE svg PUBLIC "-//W3C//DTD SVG 1.1//EN" "http://www.w3.org/Graphics/SVG/1.1/DTD/svg11.dtd">
<svg version="1.1" id="Layer_1" xmlns="http://www.w3.org/2000/svg" xmlns:xlink="http://www.w3.org/1999/xlink" x="0px" y="0px"
	 width="500px" height="400px" viewBox="0 0 500 400" enable-background="new 0 0 500 400" xml:space="preserve">
<g enable-background="new    ">
	<path fill="#EE145B" d="M115,135.992c0,9-6.75,18-17.25,18s-17.25-6-17.25-16c0-6.25,4.5-14.5,12.5-18c-3.25-3.75-7.5-6-14-6
		c-21,0-39.25,37.75-39.25,68c0,23,9,34.75,29.25,34.75c13,0,25.75-8.5,35.25-23.25l3.5,2.25c-11.75,21-29.75,33-53.25,33
		c-28.75,0-48-19.25-48-47.25c0-38.75,29.5-72.25,69.5-72.25C100.5,109.242,115,119.992,115,135.992z"/>
</g>
<g enable-background="new    ">
	<path fill="#EE145B" d="M234.249,158.492c0,32-24.75,70.25-69.75,70.25c-30.25,0-49-19.5-49-49.25c0-32,24.75-70.25,69.75-70.25
		C215.499,109.242,234.249,128.742,234.249,158.492z M203.749,137.992c0-15-4.75-24-16.75-24c-25.75,0-41,57.5-41,86
		c0,15,4.75,24,16.75,24C188.499,223.992,203.749,166.492,203.749,137.992z"/>
	<path fill="#EE145B" d="M226.498,205.992c0-9.25,6.75-17,16.75-17c8.75,0,15,6,15,14c0,5.25-2.25,10-7,13.25
		c4.5,4.5,13.25,7.75,21.5,7.75c15.5,0,25.5-8.25,25.5-20.75c0-11.75-12-16.25-24.75-21.5c-18.25-7-30.5-15-30.5-32.75
		c0-22.25,18.5-39.75,50-39.75c24.75,0,39,10.25,39,22.75c0,8.75-5,16.75-16.25,16.75c-8.5,0-15-6.75-15-13.25
		c0-4.5,2.25-10.25,7.75-14c-3-4.5-10.25-7.5-18.5-7.5c-16,0-24.25,9.25-24.25,20.5c0,10.75,12,15.75,25.25,21.5
		c19.25,8.25,30.75,16.5,30.75,32.5c0,21.25-14.25,40.25-53.25,40.25C245.998,228.742,226.498,220.992,226.498,205.992z"/>
	<path fill="#EE145B" d="M387.997,118.492l-20,71.25c-1.5,5.5-2.25,10.25-2.25,13.75c0,8.5,4.75,12,14.25,12
		c6.25,0,15.25-1.5,22.5-3.75v2.75c-9.75,6-25,14.25-43.25,14.25c-18.5,0-27.25-7.75-27.25-22.25c0-4.5,1-10,2.75-16l21-72h-23.25
		l2.25-6.25h23l10.75-38l34.5-4.5l-13.25,42.5h31.75l-2,6.25H387.997z"/>
</g>
<g enable-background="new    ">
	<path fill="#EE145B" d="M111.479,103.49c16.52-0.28,18.34-1.399,18.34-9.24V8.011h-15.68c-9.8,0-12.18,2.94-21.42,26.18l-0.7-0.14
		l0.84-27.439h84.42l0.84,27.439l-0.7,0.14c-9.24-23.239-11.62-26.18-21.42-26.18h-15.68V94.25c0,7.841,1.82,8.96,18.34,9.24v0.7
		h-47.18V103.49z"/>
	<path fill="#EE145B" d="M179.799,103.49c7.84-0.28,10.78-0.84,10.78-5.6v-86.38c0-4.34-1.12-5.6-11.34-6.439v-0.7l20.86-0.561
		v52.64c5.6-9.239,14.14-17.22,23.94-17.22c11.2,0,16.94,7.28,16.94,19.46v39.2c0,4.62,2.94,5.319,10.5,5.6v0.7h-29.96v-0.7
		c7.42-0.28,9.94-0.979,9.94-5.6v-36.96c0-9.94-3.36-16.38-12.32-16.38c-7.28,0-14.7,6.3-19.04,14.56v38.78
		c0,4.62,2.52,5.319,9.94,5.6v0.7h-30.24V103.49z"/>
	<path fill="#EE145B" d="M253.438,73.671c0-18.061,13.16-34.44,29.961-34.44c16.939,0,26.459,13.3,25.619,28.561h-45.359
		c-0.141,1.68-0.141,3.22-0.141,4.899v0.141c0,18.479,8.82,29.68,21.98,29.68c9.8,0,16.939-6.3,22.68-14.28l0.98,0.7
		c-5.881,9.1-14.42,16.8-26.18,16.8C266.318,105.73,253.438,93.131,253.438,73.671z M263.798,66.251h35.42
		c0.56-14.84-3.78-25.761-16.101-25.761C272.197,40.49,265.197,50.011,263.798,66.251z"/>
</g>
<g enable-background="new    ">
	<path fill="#EE145B" d="M438.679,162.91c0,19.181-14.42,40.32-36.12,40.32c-12.879,0-23.1-10.78-23.1-26.18
		c0-19.18,14.42-40.32,36.12-40.32C428.459,136.73,438.679,147.511,438.679,162.91z M429.02,157.73c0-13.58-5.041-19.88-13.58-19.88
		c-17.08,0-26.32,28-26.32,44.52c0,13.44,5.04,19.74,13.58,19.74C419.779,202.11,429.02,174.11,429.02,157.73z"/>
	<path fill="#EE145B" d="M464.157,139.811l-11.761,55.3c-6.859,32.06-18.199,34.58-26.319,34.58c-6.3,0-13.021-2.521-13.021-8.54
		c0-3.36,2.66-6.16,6.16-6.16c3.641,0,5.881,2.8,5.881,6.16c0,2.38-1.541,4.62-3.36,5.88c0.84,0.7,1.96,1.4,4.2,1.4
		c5.74,0,10.359-5.04,14.699-25.34l13.721-63.28h-15.12l0.56-1.54h14.98l1.539-6.439c5.461-22.96,15.541-31.36,26.881-31.36
		c7,0,13.859,3.5,13.859,9.24c0,3.22-2.24,6.58-6.16,6.58c-3.64,0-6.16-2.66-6.16-6.021c0-2.52,1.541-5.18,3.781-6.58
		c-1.541-1.54-3.92-1.96-5.181-1.96c-7,0-12.04,6.301-15.68,22.12l-3.36,14.42h16.52l-0.56,1.54H464.157z"/>
</g>
<g enable-background="new    ">
	<path fill="#EE145B" d="M12.738,386.934c24.852-0.654,26.814-2.616,26.814-14.389V251.554c0-11.771-1.962-13.733-26.814-14.388
		v-1.09h70.851v1.09c-24.852,0.436-27.686,2.18-27.686,14.388v134.29h42.51c16.35,0,20.056-6.759,33.572-42.947l1.09,0.219
		l-2.398,44.908H12.738V386.934z"/>
	<path fill="#EE145B" d="M138.305,386.934c24.852-0.437,27.686-2.181,27.686-14.389V251.554c0-12.208-2.834-13.952-27.686-14.388
		v-1.09h71.723v1.09c-24.852,0.436-27.686,2.18-27.686,14.388v120.991c0,12.208,2.834,13.952,27.686,14.389v1.09h-71.723V386.934z"
		/>
	<path fill="#EE145B" d="M212.642,386.934c24.852-0.654,26.814-2.616,26.814-14.389V251.554c0-11.771-1.962-13.733-26.814-14.388
		v-1.09h117.939l1.962,43.382l-1.09,0.219c-13.516-34.009-17.44-41.421-34.008-41.421h-41.639v71.723h25.07
		c13.298,0,15.696-5.886,21.146-29.866h1.09v61.913h-1.09c-5.45-23.98-7.849-29.867-21.146-29.867h-25.07v60.387
		c0,12.208,2.834,13.952,27.687,14.389v1.09h-70.851V386.934z"/>
	<path fill="#EE145B" d="M338.645,386.934c24.853-0.654,26.814-2.616,26.814-14.389V251.554c0-11.771-1.962-13.733-26.814-14.388
		v-1.09h121.21l0.653,42.292l-1.09,0.218c-12.426-34.008-16.132-40.33-32.7-40.33H381.81v69.761h27.687
		c13.298,0,15.695-5.886,21.146-29.866h1.091v61.912h-1.091c-5.45-23.979-7.848-29.866-21.146-29.866H381.81v75.647h52.103
		c16.35,0,19.838-6.759,32.265-42.947l1.09,0.219l-1.09,44.908H338.645V386.934z"/>
</g>
</svg>
