<?xml version="1.0" encoding="UTF-8" standalone="no"?>
<svg
   xmlns:dc="http://purl.org/dc/elements/1.1/"
   xmlns:cc="http://web.resource.org/cc/"
   xmlns:rdf="http://www.w3.org/1999/02/22-rdf-syntax-ns#"
   xmlns:svg="http://www.w3.org/2000/svg"
   xmlns="http://www.w3.org/2000/svg"
   xmlns:sodipodi="http://sodipodi.sourceforge.net/DTD/sodipodi-0.dtd"
   xmlns:inkscape="http://www.inkscape.org/namespaces/inkscape"
   version="1.0"
   width="6000"
   height="6000"
   viewBox="0 0 30240 15120"
   id="Flag of Australia"
   sodipodi:version="0.32"
   inkscape:version="0.44"
   sodipodi:docname="Tawa_chakana_qillqana.svg"
   sodipodi:docbase="C:\Documents and Settings\Fam. Ventocilla\Mis documentos\{70443084}">
  <metadata
     id="metadata30">
    <rdf:RDF>
      <cc:Work
         rdf:about="">
        <dc:format>image/svg+xml</dc:format>
        <dc:type
           rdf:resource="http://purl.org/dc/dcmitype/StillImage" />
      </cc:Work>
    </rdf:RDF>
  </metadata>
  <sodipodi:namedview
     inkscape:window-height="746"
     inkscape:window-width="1028"
     inkscape:pageshadow="2"
     inkscape:pageopacity="0.0"
     borderopacity="1.0"
     bordercolor="#666666"
     pagecolor="#ffffff"
     id="base"
     inkscape:zoom="0.056568542"
     inkscape:cx="4769.8441"
     inkscape:cy="5740.8559"
     inkscape:window-x="-4"
     inkscape:window-y="-4"
     inkscape:current-layer="Flag of Australia" />
  <defs
     id="defs17">
<!-- 7star and 5star have radius 9, centered at the origin -->    <polygon
       id="7star"
       points="0,-9 1.735535,-3.6038755 7.0364833,-5.6114082 3.8997116,-0.89008374 8.7743512,2.0026884 3.1273259,2.4939592 3.9049537,8.1087198 0,4 -3.9049537,8.1087198 -3.1273259,2.4939592 -8.7743512,2.0026884 -3.8997116,-0.89008374 -7.0364833,-5.6114082 -1.735535,-3.6038755 0,-9 " />
    <polygon
       id="5star"
       points="0,-9 2.351141,-3.236068 8.5595086,-2.7811529 3.8042261,1.236068 5.2900673,7.2811529 0,4 -5.2900673,7.2811529 -3.8042261,1.236068 -8.5595086,-2.7811529 -2.351141,-3.236068 0,-9 " />
    <polygon
       points="0,-9 2.351141,-3.236068 8.5595086,-2.7811529 3.8042261,1.236068 5.2900673,7.2811529 0,4 -5.2900673,7.2811529 -3.8042261,1.236068 -8.5595086,-2.7811529 -2.351141,-3.236068 0,-9 "
       id="polygon4016" />
    <polygon
       points="0,-9 1.735535,-3.6038755 7.0364833,-5.6114082 3.8997116,-0.89008374 8.7743512,2.0026884 3.1273259,2.4939592 3.9049537,8.1087198 0,4 -3.9049537,8.1087198 -3.1273259,2.4939592 -8.7743512,2.0026884 -3.8997116,-0.89008374 -7.0364833,-5.6114082 -1.735535,-3.6038755 0,-9 "
       id="polygon4014" />
  </defs>
  <g
     id="g1882">
    <rect
       y="-2520.01"
       x="5039.9775"
       height="20160"
       width="20160"
       id="rect1326"
       style="opacity:1;fill:#eea400;fill-opacity:0.25098039;fill-rule:evenodd;stroke:none;stroke-opacity:1" />
    <rect
       transform="matrix(0,1,-1,0,0,0)"
       style="opacity:1;fill:#eea400;fill-opacity:0.25098039;fill-rule:evenodd;stroke:none;stroke-opacity:1"
       id="rect1323"
       width="10080"
       height="26661.6"
       x="2519.9744"
       y="-28450.756" />
    <rect
       y="-5770.7998"
       x="10069.92"
       height="26661.6"
       width="10080"
       id="rect1328"
       style="opacity:1;fill:#eea400;fill-opacity:0.25098039;fill-rule:evenodd;stroke:none;stroke-opacity:1" />
    <path
       transform="matrix(1.351449,0,0,1.351449,29363.46,6245.209)"
       d="M -6810.0803 972.86865 A 3729.3298 3729.3298 0 1 1  -14268.74,972.86865 A 3729.3298 3729.3298 0 1 1  -6810.0803 972.86865 z"
       sodipodi:ry="3729.3298"
       sodipodi:rx="3729.3298"
       sodipodi:cy="972.86865"
       sodipodi:cx="-10539.41"
       id="path1330"
       style="opacity:1;fill:#ffffff;fill-opacity:1;fill-rule:evenodd;stroke:none;stroke-opacity:1"
       sodipodi:type="arc" />
    <path
       id="path1324"
       d="M 22522.852,22612.409 L 7554.2508,-7492.2633"
       style="fill:none;fill-opacity:0.75;fill-rule:evenodd;stroke:#ff0000;stroke-width:135.18190002;stroke-linecap:butt;stroke-linejoin:miter;stroke-miterlimit:4;stroke-dasharray:none;stroke-opacity:1" />
    <g
       id="g6608">
      <g
         transform="matrix(0.306667,0,0,0.306667,-19293.14,14857.92)"
         id="g4826"
         style="fill:none;stroke:#0000ff;stroke-width:164.34764099;stroke-miterlimit:4;stroke-dasharray:none;stroke-opacity:1">
        <path
           transform="matrix(12.46271,0,0,12.46271,243566.3,-35922.15)"
           d="M -6810.0803 972.86865 A 3729.3298 3729.3298 0 1 1  -14268.74,972.86865 A 3729.3298 3729.3298 0 1 1  -6810.0803 972.86865 z"
           sodipodi:ry="3729.3298"
           sodipodi:rx="3729.3298"
           sodipodi:cy="972.86865"
           sodipodi:cx="-10539.41"
           id="path1321"
           style="opacity:1;fill:none;fill-opacity:0.0627451;fill-rule:evenodd;stroke:#0000ff;stroke-width:13.18715191;stroke-linejoin:round;stroke-miterlimit:4;stroke-dasharray:none;stroke-opacity:1"
           sodipodi:type="arc" />
        <rect
           style="opacity:1;fill:none;fill-opacity:0.0627451;fill-rule:evenodd;stroke:#0000ff;stroke-width:164.34759521;stroke-linejoin:round;stroke-miterlimit:4;stroke-dasharray:none;stroke-opacity:1"
           id="rect1319"
           width="46484.641"
           height="46484.641"
           x="72934.32"
           y="39279.465"
           transform="matrix(0.707107,-0.707107,0.707107,0.707107,0,0)" />
      </g>
      <rect
         y="-2520.01"
         x="5039.9775"
         height="20160"
         width="20160"
         id="rect5723"
         style="fill:none;fill-opacity:0.25098039;fill-rule:evenodd;stroke:#0000fe;stroke-width:50.40000153;stroke-miterlimit:4;stroke-dasharray:none;stroke-opacity:1" />
    </g>
  </g>
</svg>
