<svg xmlns="http://www.w3.org/2000/svg" width="7.3in" height="8.21in" viewBox="0 0 525.42 591"><title>10-Things</title><rect width="525.42" height="561.68" fill="#fff"/><path d="M113.77,153,56.32,166.39l-1.49-62.9L189.54,74.27V319.43H113.77Z" fill="#e47700"/><path d="M341.1,326.86c-76.27,0-124.31-49.53-124.31-125.3,0-76.27,49.53-126.3,125.3-126.3,76.27,0,124.81,49,124.81,124.81C466.9,276.34,417.37,326.86,341.1,326.86Zm.49-194.15c-30.71,0-51,25.75-51,68.34,0,43.58,20.8,68.35,51.51,68.35,30.21,0,51-25.26,51-68.35S372.3,132.72,341.59,132.72Z" fill="#e47700"/><rect y="392.79" width="525.42" height="198.21" fill="#e47700"/><path d="M91.58,464.51l-.69-5.22c-.56-4.47-2.33-5.1-7.86-5.16h-.38l-4.21,31.76c-.12.75.31,1.32,1.26,1.51l3.77.69.19,2.52H64.41l.19-2.52,3.9-.69c1.13-.19,1.57-.75,1.64-1.51l4.21-31.76H74.1c-5.47,0-7.23.57-9.18,5l-2.2,5.41H58.19L61,451.31H97.36l-1.7,13.2Z" fill="#fff"/><path d="M118.69,491.61c-1.57,0-5.6-1.45-5.6-2.64,0-1.38,1.7-6.41,3.52-11.88.94-3,2.07-6.41,2.07-7.92,0-1.26-1.45-2.2-2.89-2.2-2.07,0-4.72,4.53-9.37,14.27l-2.07,9.49-7.61.07,2.33-9.44,5.41-25.78c.25-1.07-.06-1.83-.75-2.14l-3.58-1.7.38-1.76,12.83-3.21-3.59,14.46-3.9,16.35h.69c2.89-6.35,5.41-11.51,7.61-13.71a8.69,8.69,0,0,1,6-2.77c3.21,0,5.54,2.14,5.54,5s-1.45,7.42-2.89,11.88c-.5,1.83-2.45,7.55-2.83,8.62l1.7.57,4.65-3.21,1.07,1.32C125.54,488.47,122,491.61,118.69,491.61Z" fill="#fff"/><path d="M137.06,491.61c-1.57,0-5.85-1.76-5.6-2.64l6-22.76-1.88-.38-4.09,4.53L130.27,469c1.57-3.46,4.9-7.86,8.17-7.86,1.57,0,6.54,1.64,6.23,2.64l-6.29,22.89,1.7.57,4.65-3.21,1.07,1.32C143.91,488.47,140.33,491.61,137.06,491.61ZM143.91,457a4,4,0,0,1-4.15-4.21c0-3.08,2.07-5.53,4.28-5.53a4.06,4.06,0,0,1,4.15,4.27C148.18,454.58,146.11,457,143.91,457Z" fill="#fff"/><path d="M171.45,491.61c-1.57,0-5.6-1.45-5.6-2.64,0-1.38,1.7-6.41,3.52-11.88.94-3,2.07-6.41,2.07-7.92,0-1.26-1.45-2.2-2.89-2.2-2.07,0-4.72,4.53-9.37,14.27l-2.07,9.49-7.61.07,2.32-9.44,3.08-15-1.76-.44-4.15,4.4L147.75,469c1.64-3.46,4.91-7.86,8.18-7.86,1.57,0,6.16,1.07,6.16,2.26,0,2.07-2.77,11.82-3.46,14.21h.69c2.89-6.35,5.41-11.51,7.61-13.71a8.69,8.69,0,0,1,6-2.77c3.21,0,5.54,2.14,5.54,5s-1.45,7.42-2.89,11.88l-2.83,8.62,1.7.57,4.65-3.21,1.07,1.32C178.31,488.47,174.72,491.61,171.45,491.61Z" fill="#fff"/><path d="M204.22,466.09l-.06.63a7.59,7.59,0,0,1,3.21,6.22c0,6-5.85,9.94-11.89,9.94a17.73,17.73,0,0,1-4.4-.63,3,3,0,0,0-2.2,2.58c0,1.57,2.14,2.33,5.15,3.33l2.89.82c5.85,1.76,9.75,3.9,9.75,8.62s-5.85,9.49-16.92,9.49c-7.42,0-12.51-2.7-12.51-7.42,0-3.83,4.46-6.29,8.68-7.42v-.5a4.84,4.84,0,0,1-2.7-4.15c0-2.83,2.26-4.91,5.72-6v-.5a9.3,9.3,0,0,1-4.46-7.86c0-7.1,6.1-12.14,13.33-12.14a29,29,0,0,1,7.49,1.26l7.92-.13-1.57,5.66Zm-10.06,29.05a64.46,64.46,0,0,1-6.35-2.26c-2.77,1.32-4.59,3.27-4.59,5.59,0,3.15,3.83,5.54,9.81,5.54,4.59,0,8-1.76,8-4C201,498,198.88,496.71,194.16,495.14Zm2.39-30.56a2.73,2.73,0,0,0-2,.69c-2.14,2.14-3.46,7.11-3.4,10.31a6.69,6.69,0,0,0,1.38,4,2.92,2.92,0,0,0,1.95.82,4.65,4.65,0,0,0,3.46-1.64c2.39-2.33,3.27-7.42,3.27-10.57C201.2,466.4,198.69,464.57,196.55,464.57Z" fill="#fff"/><path d="M231.07,470.42a3.25,3.25,0,0,1-3.33-3.4,3.38,3.38,0,0,1,.38-1.51,13.84,13.84,0,0,0-5.15-1.57,6.71,6.71,0,0,0-2.58,3.59c-.12,1.95,3,4.4,5,6.41,3.27,3.15,6.35,5.79,6.16,9.12-.19,5.15-6,8.49-11.63,8.49-4.47,0-9.31-1.32-9.31-5.54a3.61,3.61,0,0,1,3.84-3.9,3.19,3.19,0,0,1,3.2,3.4,3.53,3.53,0,0,1-.38,1.51,17.79,17.79,0,0,0,6,1.64,6.63,6.63,0,0,0,2.45-3.9c.12-1.83-2.58-4-5-6.16-3.4-3.08-6.29-5.78-6.16-9.12.25-5.6,6-8.36,11.19-8.36,4.59,0,9.05,1.2,9.05,5.35C234.78,468.91,233.34,470.42,231.07,470.42Z" fill="#fff"/><path d="M259.06,453.38h6.79L264,462.44h7.92l.19,3.59h-8.74l-4.65,20.62,1.76.57L265,484l1.13,1.32c-1.88,3.15-5.53,6.29-8.8,6.29-1.57,0-5.85-1.57-5.6-2.45l4.84-22.64-5.16-.5.19-2.14,5.85-2.33Z" fill="#fff"/><path d="M283.21,491.55c-7.17,0-11.13-5.28-11.13-12.76,0-8.87,6.6-17.67,15.22-17.67,7.17,0,11.07,5.28,11.07,12.83C298.37,482.75,291.89,491.55,283.21,491.55Zm4.09-27.42c-3.71,0-6.54,6.41-7.54,11a29.69,29.69,0,0,0-.82,6.35c0,3.71,1.45,7.1,4.21,7.1,3.9,0,6.6-6.67,7.61-11.32a33.29,33.29,0,0,0,.76-6.35C291.51,467.15,290.13,464.14,287.3,464.14Z" fill="#fff"/><path d="M338.49,490.61l.19-2.52,1.64-.56c.94-.25.94-1.07.38-2.2l-6.6-13.27-4.34,3.65-1.32,10.19c-.12.82.19,1.26,1.26,1.51l2.89.69.13,2.52H315.1l.25-2.52,3.08-.69c1.2-.25,1.51-.69,1.64-1.51L324.16,456c.13-.75-.06-1.26-1.26-1.51l-2.89-.69-.13-2.51h17.61l-.25,2.51-3.14.69a2,2,0,0,0-1.64,1.51l-2,15.53,11-10.38c2.89-2.83,4.4-4.4,4.4-5.41-.06-.75-.44-1.19-1.51-1.57l-1.64-.44-.12-2.45H359l-.25,2.39-1.64.44c-2.26.57-4.78,2.14-8.43,5.16L340,466.84l9.62,17.67c1.38,2.64,2,2.83,3.65,3.33l1.13.25.13,2.52Z" fill="#fff"/><path d="M381.39,491.61c-1.57,0-5.6-1.45-5.6-2.64,0-1.38,1.7-6.41,3.52-11.88.94-3,2.07-6.41,2.07-7.92,0-1.26-1.45-2.2-2.89-2.2-2.07,0-4.72,4.53-9.37,14.27L367,490.73l-7.61.07,2.32-9.44,3.08-15-1.76-.44-4.15,4.4L357.68,469c1.64-3.46,4.91-7.86,8.18-7.86,1.57,0,6.16,1.07,6.16,2.26,0,2.07-2.77,11.82-3.46,14.21h.69c2.89-6.35,5.41-11.51,7.61-13.71a8.69,8.69,0,0,1,6-2.77c3.21,0,5.54,2.14,5.54,5S387,473.57,385.53,478l-2.83,8.62,1.7.57,4.65-3.21,1.07,1.32C388.24,488.47,384.66,491.61,381.39,491.61Z" fill="#fff"/><path d="M404.6,491.55c-7.17,0-11.13-5.28-11.13-12.76,0-8.87,6.6-17.67,15.22-17.67,7.17,0,11.07,5.28,11.07,12.83C419.75,482.75,413.27,491.55,404.6,491.55Zm4.09-27.42c-3.71,0-6.54,6.41-7.54,11a29.69,29.69,0,0,0-.82,6.35c0,3.71,1.45,7.1,4.21,7.1,3.9,0,6.6-6.67,7.61-11.32a33.29,33.29,0,0,0,.76-6.35C412.9,467.15,411.51,464.14,408.68,464.14Z" fill="#fff"/><path d="M446.29,472.31l-8.24,18-8,1.2-.63-25.34-1.83-.38-4,4.53L422.27,469c1.57-3.46,4.9-7.86,8.17-7.86,1.57,0,6.1,1.45,6.1,2.58l.19,23.39h.56l8.87-20-.31-6,3.46.63,3.4.63,1,24.71h.63l6-11.76c1.2-2.32,2.14-4.09,2.14-5.72,0-1.82-1.7-3.58-4.27-4.09a5.55,5.55,0,0,1,5.28-4.46,4.85,4.85,0,0,1,5,5.22c0,3.71-2.39,7.11-6.29,12.83l-7.42,11.25-7.54,1.2-.38-19.24Z" fill="#fff"/></svg>