<?xml version="1.0"?><svg width="5000" height="6000" xmlns="http://www.w3.org/2000/svg" xmlns:xlink="http://www.w3.org/1999/xlink">
 <title>Matraz</title>
 <defs>
  <linearGradient id="linearGradient3161">
   <stop stop-color="#ffffff" id="stop3163" offset="0"/>
   <stop stop-color="#ffffff" stop-opacity="0" id="stop3165" offset="1"/>
  </linearGradient>
  <linearGradient id="linearGradient4486">
   <stop stop-color="#00c0c0" stop-opacity="0.752941" id="stop4488" offset="0"/>
   <stop stop-color="#80f5f5" stop-opacity="0.301961" id="stop4490" offset="1"/>
  </linearGradient>
  <linearGradient y2="0.11656" x2="0.870244" y1="0.11656" x1="0.214406" id="linearGradient4492" xlink:href="#linearGradient4486"/>
  <linearGradient y2="0.542171" x2="0.714286" y1="0.542171" x1="-0.285714" id="linearGradient3167" xlink:href="#linearGradient3161"/>
  <linearGradient gradientTransform="matrix(-0.9922955,-0.1238937,0.1238937,-0.9922955,115.69183,170.08514)" y2="0.446371" x2="-0.959203" y1="0.446371" x1="-2.045314" id="linearGradient3171" xlink:href="#linearGradient3161"/>
 </defs>
 <metadata id="metadata3298">image/svg+xml</metadata>
 <g>
  <title>Layer 1</title>
  <g id="layer2"/>
  <g id="layer1">
   <path fill="#00c0ff" fill-rule="nonzero" stroke-width="99" stroke-linecap="round" stroke-linejoin="round" marker-start="none" marker-mid="none" marker-end="none" stroke-miterlimit="4" stroke-dashoffset="0" id="path3152" d="m2608.782715,2167.216064c-161.779541,0 -295.00415,116.093018 -318.010498,266.119141c-268.731445,-0.509277 -574.154541,0 -995.332031,0c-217.086548,253.671631 -338.660889,547.572266 -338.660889,895.036865c0,559.581543 336.58313,1048.733398 834.261597,1305.677246l1606.57312,0c497.678955,-256.943848 834.260986,-746.095703 834.260986,-1305.677246c0,-327.906494 -115.87793,-630.829346 -311.81543,-877.09668c-402.753418,-7.811279 -688.968262,-11.404297 -992.234375,-13.953613c-21.232422,-151.955811 -155.841064,-270.105713 -319.04248,-270.105713zm-19.618408,61.79541c127.439697,0 231.280029,100.23999 231.280029,223.260742c0,123.020996 -103.840332,223.260742 -231.280029,223.260742c-127.438477,0 -230.24707,-100.239746 -230.24707,-223.260742c0,-123.020752 102.808594,-223.260742 230.24707,-223.260742zm434.68457,570.112549c118.430908,0 214.76001,92.989502 214.76001,207.313721c0,114.324707 -96.329102,207.313721 -214.76001,207.313721c-118.432129,0 -214.76123,-92.989014 -214.76123,-207.313721c0,-114.324219 96.329102,-207.313721 214.76123,-207.313721zm-219.92334,613.967285c92.444092,0 167.265381,72.227051 167.265381,161.46582c0,89.238281 -74.821289,161.465576 -167.265381,161.465576c-92.444336,0 -167.265381,-72.227295 -167.265381,-161.465576c0,-89.23877 74.821045,-161.46582 167.265381,-161.46582zm219.92334,575.096436c70.787109,0 128.029297,56.253174 128.029297,124.587646c0,68.333496 -57.240967,123.59082 -128.029297,123.59082c-70.789551,0 -128.031006,-55.257324 -128.031006,-123.59082c0,-68.334473 57.241455,-124.587646 128.031006,-124.587646z"/>
   <path fill="none" fill-rule="nonzero" stroke="#000000" stroke-width="99" stroke-linecap="round" stroke-linejoin="round" marker-start="none" marker-mid="none" marker-end="none" stroke-miterlimit="4" stroke-dashoffset="0" opacity="0.276018" id="rect3162" d="m1832.896118,966.542236c181.908813,176.142212 180.99707,316.536011 180.99707,527.792236l0,439.155151c-635.67688,205.678589 -1090.142822,758.635376 -1090.142822,1410.131714c0,559.581299 336.571655,1048.434814 834.250488,1305.378662l1606.088989,0c497.678955,-256.943848 834.250488,-745.797363 834.250488,-1305.378662c0,-651.496338 -456.545898,-1204.453125 -1092.223145,-1410.131714l0,-439.155151c0,-211.256226 -0.912109,-351.650024 180.997559,-527.792236l-1454.218628,0z"/>
   <path fill="none" fill-rule="nonzero" stroke="#000000" stroke-width="99" stroke-linecap="round" stroke-linejoin="round" marker-start="none" marker-mid="none" marker-end="none" stroke-miterlimit="4" stroke-dashoffset="0" opacity="0.5" d="m1832.896118,966.542236c181.908813,176.142212 180.99707,316.536011 180.99707,527.792236l0,439.155151c-635.67688,205.678589 -1090.142822,758.635376 -1090.142822,1410.131714c0,559.581299 336.571655,1048.434814 834.250488,1305.378662l1606.088989,0c497.678955,-256.943848 834.250488,-745.797363 834.250488,-1305.378662c0,-651.496338 -456.545898,-1204.453125 -1092.223145,-1410.131714l0,-439.155151c0,-211.256226 -0.912109,-351.650024 180.997559,-527.792236l-1454.218628,0z" id="path3864"/>
   <path opacity="0.5" fill="url(#linearGradient4492)" fill-rule="nonzero" stroke-width="99" stroke-linecap="round" stroke-linejoin="round" marker-start="none" marker-mid="none" marker-end="none" stroke-miterlimit="4" stroke-dashoffset="0" id="path3866" d="m1832.896118,966.542236c181.908813,176.142212 180.99707,316.536011 180.99707,527.792236l0,439.155151c-635.67688,205.678589 -1090.142822,758.635376 -1090.142822,1410.131714c0,559.581299 336.571655,1048.434814 834.250488,1305.378662l1606.088989,0c497.678955,-256.943848 834.250488,-745.797363 834.250488,-1305.378662c0,-651.496338 -456.545898,-1204.453125 -1092.223145,-1410.131714l0,-439.155151c0,-211.256226 -0.912109,-351.650024 180.997559,-527.792236l-1454.218628,0z"/>
   <path fill="url(#linearGradient3167)" fill-rule="evenodd" stroke-width="99" stroke-linejoin="round" id="path2389" d="m1791.040894,4361.949707c-428.747192,-262.978516 -674.27063,-575.407715 -660.800903,-1116.304199c9.76001,-391.922119 313.001709,-973.627197 660.800903,-637.888184c330.400757,318.944824 -826.001404,637.888184 0,1754.192383z"/>
   <path fill="url(#linearGradient3171)" fill-rule="evenodd" stroke-width="99" stroke-linejoin="round" d="m3443.043701,2448.285889c391.692383,312.230469 595.224609,651.615723 512.438232,1186.733887c-59.985352,387.73584 -435.54834,928.692627 -737.578857,553.943604c-286.919678,-356.002686 901.506592,-534.186279 225.140625,-1740.67749z" id="path3169"/>
  </g>
 </g>
</svg>