<?xml version="1.0" encoding="utf-8"?>
<!-- Generator: Adobe Illustrator 18.1.1, SVG Export Plug-In . SVG Version: 6.00 Build 0)  -->
<svg version="1.1" id="Layer_1" xmlns="http://www.w3.org/2000/svg" xmlns:xlink="http://www.w3.org/1999/xlink" x="0px" y="0px"
	 viewBox="0 0 200 50" enable-background="new 0 0 200 50" xml:space="preserve">
<g>
	<path fill="#00B2E5" d="M24.2,35.6h-4.5v-2.1h-0.1c-0.2,0.3-0.5,0.6-0.8,0.9c-0.3,0.3-0.7,0.6-1.1,0.8c-0.4,0.2-0.9,0.4-1.4,0.6
		c-0.5,0.2-1,0.2-1.6,0.2c-1.2,0-2.2-0.2-3.2-0.6c-1-0.4-1.8-1-2.5-1.7c-0.7-0.7-1.2-1.6-1.6-2.6C7.2,30.1,7,29,7,27.8
		c0-1.1,0.2-2.2,0.5-3.2s0.8-1.9,1.4-2.7c0.6-0.8,1.4-1.4,2.3-1.9c0.9-0.5,1.9-0.7,3-0.7c1,0,2,0.2,2.9,0.5c0.9,0.3,1.6,0.9,2.2,1.6
		h0.1v-8h4.9V35.6z M19.8,27.7c0-1.2-0.3-2.2-1-2.9c-0.7-0.7-1.6-1.1-2.9-1.1S13.6,24,13,24.8c-0.7,0.7-1,1.7-1,2.9
		c0,1.2,0.3,2.2,1,2.9c0.7,0.7,1.6,1.1,2.9,1.1s2.2-0.4,2.9-1.1C19.4,29.8,19.8,28.8,19.8,27.7z"/>
	<path fill="#00B2E5" d="M26.6,27.7c0-1.3,0.2-2.4,0.7-3.4s1.1-1.9,1.9-2.6c0.8-0.7,1.7-1.3,2.8-1.7c1.1-0.4,2.2-0.6,3.4-0.6
		c1.2,0,2.4,0.2,3.4,0.6c1.1,0.4,2,0.9,2.8,1.7c0.8,0.7,1.4,1.6,1.9,2.6c0.5,1,0.7,2.2,0.7,3.4s-0.2,2.4-0.7,3.4
		c-0.5,1-1.1,1.9-1.9,2.6c-0.8,0.7-1.7,1.3-2.8,1.7c-1.1,0.4-2.2,0.6-3.4,0.6c-1.2,0-2.4-0.2-3.4-0.6c-1.1-0.4-2-0.9-2.8-1.7
		c-0.8-0.7-1.4-1.6-1.9-2.6C26.9,30.1,26.6,28.9,26.6,27.7z M31.5,27.7c0,1.2,0.3,2.2,1,2.9c0.7,0.7,1.6,1.1,2.9,1.1
		s2.2-0.4,2.9-1.1c0.7-0.7,1-1.7,1-2.9c0-1.2-0.3-2.2-1-2.9c-0.7-0.7-1.6-1.1-2.9-1.1s-2.2,0.4-2.9,1.1
		C31.9,25.5,31.5,26.5,31.5,27.7z"/>
	<path fill="#00B2E5" d="M47,19.7h4.7v2.2h0.1c0.2-0.3,0.4-0.6,0.7-0.9c0.3-0.3,0.6-0.6,1-0.8c0.4-0.2,0.8-0.4,1.3-0.6
		c0.5-0.2,1-0.2,1.6-0.2c1.2,0,2.2,0.2,3,0.6c0.8,0.4,1.4,0.9,1.8,1.6c0.4,0.7,0.7,1.5,0.9,2.4c0.2,0.9,0.2,1.9,0.2,3v8.7h-4.9v-7.8
		c0-0.5,0-0.9,0-1.4c0-0.5-0.1-0.9-0.3-1.4c-0.2-0.4-0.4-0.8-0.8-1s-0.8-0.4-1.4-0.4c-0.6,0-1.1,0.1-1.5,0.3
		c-0.4,0.2-0.7,0.5-0.9,0.9c-0.2,0.4-0.3,0.8-0.4,1.3c-0.1,0.5-0.1,1-0.1,1.5v7.9H47V19.7z"/>
	<path fill="#00B2E5" d="M75.8,33.6L75.8,33.6c-0.6,0.8-1.3,1.5-2.2,1.8c-0.9,0.4-1.9,0.6-2.9,0.6c-0.7,0-1.4-0.1-2.1-0.3
		c-0.7-0.2-1.3-0.5-1.8-0.9c-0.5-0.4-0.9-0.9-1.2-1.5c-0.3-0.6-0.5-1.3-0.5-2.1c0-0.9,0.2-1.7,0.5-2.3c0.3-0.6,0.8-1.2,1.4-1.6
		c0.6-0.4,1.2-0.7,2-1c0.7-0.2,1.5-0.4,2.3-0.5c0.8-0.1,1.6-0.2,2.4-0.2c0.8,0,1.5,0,2.2,0c0-0.9-0.3-1.6-0.9-2.1
		c-0.6-0.5-1.4-0.8-2.2-0.8c-0.8,0-1.5,0.2-2.2,0.5c-0.7,0.3-1.3,0.8-1.8,1.4l-2.6-2.7c0.9-0.8,2-1.5,3.2-1.9
		c1.2-0.4,2.5-0.6,3.8-0.6c1.4,0,2.6,0.2,3.5,0.5c0.9,0.4,1.7,0.9,2.2,1.6c0.6,0.7,0.9,1.5,1.2,2.6c0.2,1,0.3,2.2,0.3,3.5v8h-4.5
		V33.6z M74.6,28.6c-0.4,0-0.8,0-1.4,0c-0.6,0-1.1,0.1-1.6,0.3c-0.5,0.2-0.9,0.4-1.3,0.7c-0.4,0.3-0.5,0.7-0.5,1.3
		c0,0.6,0.2,1,0.7,1.3c0.5,0.3,1,0.4,1.6,0.4c0.5,0,0.9-0.1,1.4-0.2c0.4-0.1,0.8-0.3,1.2-0.6c0.3-0.2,0.6-0.5,0.8-0.9
		c0.2-0.4,0.3-0.8,0.3-1.3v-1H74.6z"/>
	<path fill="#00B2E5" d="M94.4,23.6h-4.3v5.3c0,0.4,0,0.8,0.1,1.2c0,0.4,0.1,0.7,0.3,0.9c0.2,0.3,0.4,0.5,0.7,0.6
		c0.3,0.1,0.7,0.2,1.3,0.2c0.3,0,0.6,0,1-0.1c0.4-0.1,0.7-0.2,1-0.4v4.1c-0.5,0.2-1.1,0.3-1.7,0.4c-0.6,0.1-1.2,0.1-1.7,0.1
		c-0.8,0-1.6-0.1-2.3-0.3c-0.7-0.2-1.3-0.5-1.8-0.8c-0.5-0.4-0.9-0.9-1.2-1.5c-0.3-0.6-0.4-1.3-0.4-2.2v-7.5H82v-3.9h3.1v-6.3h4.9
		v6.3h4.3V23.6z"/>
	<path fill="#00B2E5" d="M111.5,32.8c-0.8,1-1.8,1.8-3,2.3c-1.2,0.5-2.4,0.8-3.7,0.8c-1.2,0-2.4-0.2-3.4-0.6c-1.1-0.4-2-0.9-2.8-1.7
		c-0.8-0.7-1.4-1.6-1.9-2.6c-0.5-1-0.7-2.2-0.7-3.4s0.2-2.4,0.7-3.4c0.5-1,1.1-1.9,1.9-2.6c0.8-0.7,1.7-1.3,2.8-1.7
		c1.1-0.4,2.2-0.6,3.4-0.6c1.1,0,2.2,0.2,3.1,0.6c0.9,0.4,1.7,0.9,2.3,1.7c0.6,0.7,1.1,1.6,1.5,2.6c0.3,1,0.5,2.2,0.5,3.4v1.5h-11.3
		c0.2,0.9,0.6,1.7,1.3,2.2c0.7,0.6,1.5,0.8,2.4,0.8c0.8,0,1.5-0.2,2-0.5c0.6-0.4,1-0.8,1.5-1.4L111.5,32.8z M107.3,25.9
		c0-0.8-0.2-1.5-0.8-2.1c-0.6-0.6-1.3-0.9-2.2-0.9c-0.5,0-1,0.1-1.4,0.3c-0.4,0.2-0.8,0.4-1.1,0.7c-0.3,0.3-0.5,0.6-0.7,0.9
		c-0.2,0.4-0.3,0.7-0.3,1.1H107.3z"/>
</g>
<g>
	<path fill="#00B2E5" d="M160.1,24.9c-0.2-0.3-0.6-0.6-1-0.9c-0.4-0.2-0.9-0.3-1.4-0.3c-1.2,0-2.2,0.4-2.9,1.1c-0.7,0.7-1,1.7-1,2.9
		c0,1.2,0.3,2.2,1,2.9c0.7,0.7,1.6,1.1,2.9,1.1c0.5,0,1-0.1,1.4-0.4c0.4-0.2,0.7-0.5,1-0.8l3.2,3.4c-0.8,0.8-1.7,1.3-2.7,1.6
		c-1,0.3-2,0.5-3,0.5c-1.2,0-2.4-0.2-3.4-0.6c-1.1-0.4-2-0.9-2.8-1.7c-0.8-0.7-1.4-1.6-1.9-2.6c-0.5-1-0.7-2.2-0.7-3.4
		s0.2-2.4,0.7-3.4s1.1-1.9,1.9-2.6c0.8-0.7,1.7-1.3,2.8-1.7c1.1-0.4,2.2-0.6,3.4-0.6c0.9,0,1.9,0.2,3,0.5c1,0.3,1.9,0.9,2.7,1.6
		L160.1,24.9z"/>
	<path fill="#00B2E5" d="M175.4,33.6L175.4,33.6c-0.6,0.8-1.3,1.5-2.2,1.8c-0.9,0.4-1.9,0.6-2.9,0.6c-0.7,0-1.4-0.1-2.1-0.3
		c-0.7-0.2-1.3-0.5-1.8-0.9c-0.5-0.4-0.9-0.9-1.2-1.5c-0.3-0.6-0.5-1.3-0.5-2.1c0-0.9,0.2-1.7,0.5-2.3c0.3-0.6,0.8-1.2,1.4-1.6
		s1.2-0.7,2-1c0.7-0.2,1.5-0.4,2.3-0.5c0.8-0.1,1.6-0.2,2.4-0.2c0.8,0,1.5,0,2.2,0c0-0.9-0.3-1.6-0.9-2.1c-0.6-0.5-1.4-0.8-2.2-0.8
		c-0.8,0-1.5,0.2-2.2,0.5c-0.7,0.3-1.3,0.8-1.8,1.4l-2.6-2.7c0.9-0.8,2-1.5,3.2-1.9c1.2-0.4,2.5-0.6,3.8-0.6c1.4,0,2.6,0.2,3.5,0.5
		c0.9,0.4,1.7,0.9,2.2,1.6c0.6,0.7,0.9,1.5,1.2,2.6s0.3,2.2,0.3,3.5v8h-4.5V33.6z M174.2,28.6c-0.4,0-0.8,0-1.4,0
		c-0.6,0-1.1,0.1-1.6,0.3c-0.5,0.2-0.9,0.4-1.3,0.7c-0.4,0.3-0.5,0.7-0.5,1.3c0,0.6,0.2,1,0.7,1.3c0.5,0.3,1,0.4,1.6,0.4
		c0.5,0,0.9-0.1,1.4-0.2c0.4-0.1,0.8-0.3,1.2-0.6c0.3-0.2,0.6-0.5,0.8-0.9c0.2-0.4,0.3-0.8,0.3-1.3v-1H174.2z"/>
	<path fill="#00B2E5" d="M182.8,19.7h4.9v2.5h0.1c0.5-1,1.1-1.7,1.9-2.2s1.6-0.7,2.7-0.7c0.3,0,0.6,0,0.8,0c0.3,0,0.5,0.1,0.8,0.1
		V24c-0.3-0.1-0.7-0.2-1-0.2c-0.3-0.1-0.7-0.1-1.1-0.1c-0.9,0-1.7,0.1-2.2,0.4c-0.5,0.3-1,0.6-1.3,1.1s-0.5,1-0.6,1.7
		c-0.1,0.6-0.1,1.4-0.1,2.2v6.6h-4.9V19.7z"/>
</g>
<path fill="#F58020" d="M143.9,26.2h-3.2c-0.1-1.8-0.4-4-1.5-5.8c-2.1-3.6-5.9-4.3-8.6-4.3c-5,0-7.5,2.4-8.6,4.4
	c-1.1,1.9-1.4,4-1.5,5.8h-3.2v4.9h2.7c-0.3,0.5-0.4,1.1-0.4,1.7c0,2,1.6,3.6,3.6,3.6s3.6-1.6,3.6-3.6c0-0.6-0.2-1.2-0.4-1.7h8.7
	c-0.3,0.5-0.4,1.1-0.4,1.7c0,2,1.6,3.6,3.6,3.6c2,0,3.6-1.6,3.6-3.6c0-0.6-0.2-1.2-0.4-1.7h2.6V26.2z M130.6,21.4
	c3.3,0,4.6,1.3,4.8,4.9h-9.7C126,22.7,127.4,21.4,130.6,21.4z"/>
</svg>
