<svg id="Layer_1" data-name="Layer 1" xmlns="http://www.w3.org/2000/svg" viewBox="0 0 192.66 162.71"><defs><style>.cls-1{fill:#5f8475;}</style></defs><title>logo</title><path class="cls-1" d="M469.87,167.65s3.71,8.5-10.2,8.89A19.34,19.34,0,0,0,445.4,183q1.25-2.89,2.42-6c0.61-1.61,1.14-3.19,1.61-4.75,0,0.12,0,.18,0,0.18,16.38-1.83,10-6.78,19.94-13.83s2.17-11.61,2.17-11.61,5.16,7.22-7.71,10.14a18.24,18.24,0,0,0-13.48,11.84,61.21,61.21,0,0,0,1.84-13c13.69-4.56,7.21-8,14.9-16.22,7.86-8.38-.31-11.19-0.31-11.19s6.26,5.77-5.14,10.84A16.66,16.66,0,0,0,452,150.24a55,55,0,0,0-1.61-9.69c12-6.8,5.19-8.81,10.72-17.87,5.63-9.23-2.54-10.35-2.54-10.35s7,4.22-2.61,11a15.55,15.55,0,0,0-6.8,13.08,60.12,60.12,0,0,0-4.28-9.63c10.21-8.75,3.32-9.3,6.68-18.83s-4.44-9.16-4.44-9.16,7.35,2.64-.22,10.73a14.77,14.77,0,0,0-3.25,15.13,70.3,70.3,0,0,0-6-8.39c7.75-10,1.23-9.26,2.44-18.75s-6-7.71-6-7.71,7.37,1.11,2,10a13.91,13.91,0,0,0-.11,14.46,79.33,79.33,0,0,0-6.66-6.68c6.58-10,.47-8.83.93-17.89s-6.22-6.9-6.22-6.9,7.06,0.56,2.58,9.36a13.35,13.35,0,0,0,1.29,14.2c-1.64-1.39-3.09-2.51-4.22-3.33-3.62-11.4-6.71-6.17-13.62-12.42s-10.9-4-10.9-4,6.42-.78,10.46,8.19c3.74,8.31,12.65,8.42,14,8.39,1.42,1.2,3.37,3,5.58,5.22-2.19-1-8.82-3.28-15,1.52-7.56,5.86-9.62-.26-9.62-0.26s-0.73,6.39,8,4,8.89,3.3,17.16-4.7a83.23,83.23,0,0,1,7.36,8.84,14.85,14.85,0,0,0-13.84-.27c-9.09,4.51-9.86-2.22-9.86-2.22s-2.17,6.44,7.38,5.76c9.24-.66,8.47,4.92,18-0.89a71,71,0,0,1,5.64,10.17,15.59,15.59,0,0,0-14.69-3.51c-10.37,2.81-9.66-4.3-9.66-4.3s-3.67,6.21,6.32,7.45c9.75,1.21,7.6,6.89,19,2.62A59.54,59.54,0,0,1,449,145.49a16.32,16.32,0,0,0-15.13-7.7c-11.31.79-9-6.39-9-6.39s-5.16,5.66,4.86,9,6.22,8.78,19.47,6.48a56.21,56.21,0,0,1,.18,13.8,16.74,16.74,0,0,0-13.79-10.78c-11.83-1.48-7.85-8.42-7.85-8.42s-6.58,4.79,3,10.23c9.42,5.35,4.5,10.27,18.42,10.63a62.71,62.71,0,0,1-3.08,12.44,17,17,0,0,0-11.41-12.08c-11.86-3.93-6.22-10.28-6.22-10.28s-7.84,3.6.83,11.17c8.3,7.24,2.65,11.3,15.57,14.46q-2.33,5.92-5,11.27a17.3,17.3,0,0,0-9-13.6c-11.34-6.46-4.12-11.87-4.12-11.87s-8.88,2.12-1.63,11.69c6.9,9.09.3,12.15,12.55,18a106.86,106.86,0,0,1-7.53,11.92,18,18,0,0,0-6.07-17c-10.25-9-1.61-13.08-1.61-13.08s-9.62.39-4.28,11.73c5.17,11-2.66,12.66,9.55,21.52a84.62,84.62,0,0,1-11.83,12.17c1.89-3.82,4.7-12.26-1.65-20.66-8.57-11.33,1.25-13.82,1.25-13.82s-10-1.56-7,11.23c2.94,12.57-5.83,12.52,5.6,24.72a79.09,79.09,0,0,1-15.36,9.48c2.94-3.73,8-12.31,3.06-22.79-6.64-14.14,4.59-14.74,4.59-14.74s-10.49-3.83-10.24,10.69c0.25,14.24-9.2,12.36.21,27.91a92.13,92.13,0,0,1-18.31,5.66,92.15,92.15,0,0,1-18.31-5.66c9.42-15.56,0-13.68.21-27.91,0.25-14.52-10.24-10.69-10.24-10.69s11.23,0.6,4.59,14.74c-4.93,10.48.12,19.06,3.06,22.79A79.09,79.09,0,0,1,342,222.15c11.43-12.2,2.66-12.15,5.6-24.72,3-12.78-7-11.23-7-11.23s9.82,2.49,1.25,13.82c-6.35,8.39-3.53,16.84-1.65,20.66a84.57,84.57,0,0,1-11.83-12.17c12.21-8.86,4.38-10.55,9.55-21.52,5.35-11.34-4.28-11.73-4.28-11.73s8.64,4.11-1.61,13.08a18,18,0,0,0-6.07,17,106.85,106.85,0,0,1-7.53-11.92c12.25-5.8,5.66-8.86,12.55-18,7.25-9.57-1.63-11.69-1.63-11.69s7.22,5.41-4.12,11.87a17.29,17.29,0,0,0-9,13.6q-2.66-5.36-5-11.27c12.92-3.16,7.27-7.22,15.57-14.46,8.67-7.57.83-11.17,0.83-11.17s5.64,6.35-6.22,10.28a17,17,0,0,0-11.41,12.08A62.71,62.71,0,0,1,307,162.3c13.92-.36,9-5.28,18.42-10.63,9.59-5.45,3-10.23,3-10.23s4,6.94-7.85,8.42a16.74,16.74,0,0,0-13.79,10.78,56.21,56.21,0,0,1,.18-13.8c13.26,2.3,9.58-3.21,19.47-6.48s4.86-9,4.86-9,2.3,7.18-9,6.39a16.32,16.32,0,0,0-15.13,7.7,59.54,59.54,0,0,1,3.61-12.79c11.4,4.27,9.26-1.41,19-2.62,10-1.24,6.33-7.45,6.33-7.45s0.7,7.1-9.66,4.3a15.59,15.59,0,0,0-14.69,3.51,70.94,70.94,0,0,1,5.64-10.17c9.5,5.81,8.73.23,18,.89,9.55,0.68,7.38-5.76,7.38-5.76s-0.77,6.73-9.86,2.22a14.85,14.85,0,0,0-13.84.27,83.34,83.34,0,0,1,7.36-8.84c8.27,8,8.47,2.34,17.16,4.7s8-4,8-4-2.07,6.12-9.62.26c-6.19-4.8-12.82-2.51-15-1.52,2.2-2.26,4.15-4,5.58-5.22,1.3,0,10.21-.09,14-8.39,4-9,10.46-8.19,10.46-8.19s-4-2.33-10.9,4-10,1-13.62,12.42c-1.13.82-2.58,1.94-4.22,3.33a13.35,13.35,0,0,0,1.29-14.2c-4.48-8.8,2.58-9.36,2.58-9.36s-6.69-2.24-6.22,6.9-5.65,7.92.93,17.89a79.18,79.18,0,0,0-6.66,6.68A13.91,13.91,0,0,0,320,99.85c-5.42-8.91,2-10,2-10s-7.2-1.86-6,7.71-5.31,8.73,2.44,18.75a70.29,70.29,0,0,0-6,8.39,14.77,14.77,0,0,0-3.25-15.13c-7.56-8.09-.22-10.73-0.22-10.73s-7.83-.46-4.44,9.16-3.53,10.08,6.68,18.83a60.13,60.13,0,0,0-4.28,9.63,15.54,15.54,0,0,0-6.81-13.08c-9.59-6.81-2.61-11-2.61-11s-8.17,1.12-2.54,10.35c5.53,9.07-1.26,11.08,10.72,17.87a55.07,55.07,0,0,0-1.61,9.69,16.66,16.66,0,0,0-9.58-10.78c-11.4-5.07-5.14-10.84-5.14-10.84s-8.17,2.81-.31,11.19c7.69,8.2,1.21,11.66,14.9,16.22a61.16,61.16,0,0,0,1.84,13,18.24,18.24,0,0,0-13.48-11.84c-12.87-2.92-7.71-10.14-7.71-10.14s-7.79,4.56,2.17,11.61,3.56,12,19.94,13.83c0,0,0-.07,0-0.18,0.47,1.56,1,3.14,1.61,4.75q1.16,3.07,2.42,6a19.34,19.34,0,0,0-14.27-6.5c-13.91-.4-10.2-8.89-10.2-8.89s-7,6.29,4.82,11.54c11.6,5.15,6.54,11.4,22.66,10.28a115.51,115.51,0,0,0,6.47,11.28,21,21,0,0,0-18.4-5.7c-14.42,2.41-12.48-7.1-12.48-7.1s-5.83,7.91,7.53,10.92,9.21,10.57,26.09,5.88A102,102,0,0,0,332.34,216,22.48,22.48,0,0,0,311,213.15c-14.32,5.42-14.44-4.79-14.44-4.79s-4.25,9.34,10.18,9.74,11.82,9.09,28.36.69a96.54,96.54,0,0,0,12.52,10.16c-4.79-2.09-13.55-4.33-22.62,1.37-13.55,8.5-15.95-2-15.95-2s-2.3,10.5,12.66,8,14.2,7,29.39-5.07a97.59,97.59,0,0,0,17.74,8.63,141.81,141.81,0,0,1-21,.81s7.89,4.14,14.09,4.66a75.31,75.31,0,0,0,16.15-2.58,75.32,75.32,0,0,0,16.15,2.58c6.19-.52,14.09-4.66,14.09-4.66a141.81,141.81,0,0,1-21-.81,97.62,97.62,0,0,0,17.74-8.63c15.19,12.05,14.53,2.56,29.39,5.07s12.66-8,12.66-8-2.39,10.51-15.95,2c-9.08-5.69-17.83-3.46-22.62-1.37a96.54,96.54,0,0,0,12.52-10.16c16.54,8.4,14-.3,28.36-0.69s10.18-9.74,10.18-9.74-0.12,10.21-14.44,4.79A22.48,22.48,0,0,0,423.83,216a102.07,102.07,0,0,0,9.36-11.27c16.89,4.69,12.87-2.9,26.09-5.88s7.53-10.92,7.53-10.92,1.94,9.52-12.48,7.1a21,21,0,0,0-18.4,5.7,115.32,115.32,0,0,0,6.47-11.28c16.11,1.12,11.05-5.14,22.66-10.28C476.88,173.94,469.87,167.65,469.87,167.65Z" transform="translate(-281.75 -82.59)"/></svg>