<?xml version="1.0"?><svg width="5000" height="5000" xmlns="http://www.w3.org/2000/svg" xmlns:xlink="http://www.w3.org/1999/xlink">
 <title>Large Red Star Price Tag</title>
 <defs>
  <linearGradient xlink:href="#linearGradient6394" y2="1.46566" x2="0.508149" y1="-0.585439" x1="0.508149" id="linearGradient7317"/>
  <linearGradient id="linearGradient7281">
   <stop offset="0" stop-color="#ff0000" id="stop7283"/>
   <stop offset="0.858974" stop-color="#6d1313" id="stop7289"/>
   <stop offset="1" stop-color="#cb0c0c" id="stop7285"/>
  </linearGradient>
  <linearGradient xlink:href="#linearGradient7281" y2="1" x2="0.500001" y1="0" x1="0.500001" id="linearGradient7315"/>
  <linearGradient id="linearGradient6394">
   <stop offset="0" stop-color="#ffffff" id="stop6396"/>
   <stop offset="1" stop-opacity="0" stop-color="#ffffff" id="stop6398"/>
  </linearGradient>
 </defs>
 <metadata id="metadata7346">image/svg+xml</metadata>
 <g>
  <title>Layer 1</title>
  <g id="layer1">
   <g id="g7311">
    <path d="m4496.643555,3802.164307l-544.990723,-82.30249l144.237549,531.982422l-507.412109,-215.27124l7.440674,551.14624l-437.957275,-334.697266l-129.864258,535.67627l-340.93335,-433.085449l-259.016602,486.535645l-222.530273,-504.280762l-371.869019,406.855957l-90.130981,-543.786133l-461.363525,301.588867l47.931152,-549.085938l-521.868164,177.345215l182.979309,-519.911621l-549.583679,42.021484l306.532471,-458.111328l-542.76651,-95.979004l410.82547,-367.458496l-501.84404,-227.931641l489.301987,-253.767578l-429.389496,-345.585205l537.033417,-124.099121l-329.954803,-441.516724l551.026093,13.358276l-209.787048,-509.700867l530.390259,149.972839l-76.438599,-545.860474l476.431763,277.160522l61.709595,-547.720688l392.536987,386.940231l195.987061,-515.165394l283.969971,472.400013l317.942139,-450.239555l157.592773,528.184929l419.917236,-357.027542l21.278564,550.774307l495.502197,-241.378052l-116.375,538.762512l539.984863,-110.563904l-246.692871,492.895081l550.503418,27.198486l-361.515137,416.057739l526.469238,163.251465l-453.64209,313.076172l469.298828,289.054688l-517.234863,190.407471l382.687988,396.684814l-548.36377,55.80542l272.013184,479.389404z" marker-start="none" marker-mid="none" marker-end="none" fill-rule="nonzero" fill="url(#linearGradient7315)" id="path7271"/>
    <path d="m2335.979004,380.361206c-49.643555,3.452545 -92.74707,35.452454 -110.405762,81.968109l-48.511719,127.134186c-8.842285,23.113831 -29.34375,39.702454 -54.372803,45.166077c-25.030029,5.462463 -49.077881,-1.745667 -66.912842,-19.239868l-97.023682,-95.350647c-34.814453,-34.489075 -86.307251,-45.987457 -132.492065,-29.585022c-46.185059,16.403656 -78.886719,57.811646 -84.144165,106.534607l-15.055298,134.66449c-2.892944,25.49469 -16.778564,46.423767 -39.305054,57.718384c-22.526367,11.282166 -49.756836,9.923706 -71.101074,-2.515442c-0.276611,0 -0.553223,0 -0.829956,0l-118.770264,-68.585571c-42.184937,-24.190491 -94.444824,-22.298767 -134.768677,4.880066c-40.323608,27.180237 -61.692993,74.912048 -55.089844,123.096863l19.231079,135.498169c3.421265,24.652161 -5.785767,49.304199 -25.092041,66.07019c-19.294189,16.765747 -44.424194,21.960449 -68.585693,15.055176c-0.276733,0 -0.553467,0 -0.8302,0l-130.479736,-36.80188c-46.977295,-13.093323 -97.300171,1.723022 -129.662354,38.185425c-32.374634,36.462402 -41.128662,88.194092 -22.564148,133.284668l51.857422,125.461426c9.634277,23.331299 6.527771,50.649902 -7.533875,71.088379c-14.062012,20.451172 -37.104065,32.437744 -62.724426,31.783691l-136.341187,-3.345825c-48.612183,-1.03125 -93.577087,25.658447 -115.952637,68.824585c-22.37561,43.153809 -18.287781,95.287842 10.565125,134.429199l81.968079,109.563354c15.055481,20.199585 18.740662,45.69458 10.036926,69.428345c-8.703674,23.721191 -28.299561,41.191528 -52.687439,46.838745l-55.203064,12.539795c-57.718384,13.332397 -98.671143,64.636353 -98.872253,123.876709c-0.201355,59.240356 40.399048,110.808594 98.029541,124.543213c1335.210876,317.382568 2574.844543,290.692871 3634.204163,112.078857c55.454102,-9.659424 98.01709,-54.523682 104.758789,-110.406006c6.741211,-55.88208 -23.922363,-109.588379 -75.478516,-132.15271c-22.400879,-9.659424 -37.494141,-28.500854 -42.663086,-51.027222c-5.169434,-22.526245 0.352539,-47.241333 15.898438,-65.239868l89.476563,-102.871948c31.871582,-36.927856 39.90918,-88.785156 20.689941,-133.611694c-19.218262,-44.826416 -62.309082,-74.773804 -111.022461,-77.163574l-136.31543,-6.691284c-25.394531,-1.220093 -47.694824,-15.344604 -60.221191,-36.80188c-12.552734,-21.482666 -13.949219,-48.36084 -2.516113,-71.101074l61.051758,-122.115723c21.520508,-43.631714 16.375977,-95.702759 -13.307129,-134.265747c-29.683105,-38.550415 -78.685059,-56.875854 -126.379883,-47.228882l-132.969727,27.595215c-24.250244,4.955811 -50.020996,-2.96814 -67.768066,-20.903809c-17.74707,-17.94812 -24.627197,-42.751221 -19.218018,-67.755493l28.425049,-132.152649c10.199951,-47.719299 -7.710449,-97.086365 -46.147461,-127.159302c-38.424072,-30.072937 -90.645996,-35.58197 -134.516846,-14.187439l-122.103271,59.378662c-22.47583,11.005371 -49.216309,9.772827 -71.11377,-3.345703c-21.897217,-13.118347 -35.065918,-35.003296 -35.946777,-60.221375c0,-0.276733 0,-0.56604 0,-0.830078l-5.030518,-135.503418c-2.03833,-48.686523 -31.633301,-91.959656 -76.258301,-111.520325c-44.637695,-19.559387 -96.508057,-11.985168 -133.687256,19.511597l-103.714355,87.825439c-18.841553,15.997498 -45.154053,21.429749 -69.403809,14.220276c-24.274414,-7.213257 -42.072021,-25.770203 -49.354004,-50.188293l-39.317383,-131.313751c-13.998779,-46.857819 -53.530762,-81.597107 -101.790039,-89.432953c-48.285645,-7.839539 -96.784912,12.605316 -124.883301,52.63089l-78.610107,112.078888c-14.526855,20.61969 -37.393066,32.725586 -62.736328,31.783508c-25.344482,-0.942078 -48.172363,-14.424011 -61.052246,-35.966858l-69.428467,-116.259613c-24.563721,-41.143799 -70.119873,-65.049957 -117.926758,-61.894257l0,0l0,0z" marker-start="none" marker-mid="none" marker-end="none" fill-rule="nonzero" fill="url(#linearGradient7317)" id="path7273"/>
   </g>
  </g>
 </g>
</svg>