<?xml version="1.0" encoding="utf-8"?>
<!-- Generator: Adobe Illustrator 18.1.1, SVG Export Plug-In . SVG Version: 6.00 Build 0)  -->
<svg version="1.1" id="Layer_1" xmlns="http://www.w3.org/2000/svg" xmlns:xlink="http://www.w3.org/1999/xlink" x="0px" y="0px"
	 viewBox="0 0 124 102" enable-background="new 0 0 124 102" xml:space="preserve">
<g id="Layer_2">
	<g>
		<path fill="#FFFFFF" d="M27.5,43.8c-0.9,0.2-1.1,0.4-1.3,1.3c-0.2-0.9-0.4-1.1-1.3-1.3c0.9-0.2,1.1-0.4,1.3-1.3
			C26.5,43.4,26.7,43.6,27.5,43.8z"/>
	</g>
	<g>
		<path fill="#FFFFFF" d="M105.1,77.3c-1.2,0.3-1.4,0.6-1.8,1.8c-0.3-1.2-0.6-1.4-1.8-1.8c1.2-0.3,1.4-0.6,1.8-1.8
			C103.7,76.7,103.9,77,105.1,77.3z"/>
	</g>
	<g>
		<path fill="#FFFFFF" d="M92,15.9c-1.9,0.5-2.3,1-2.9,2.9c-0.5-1.9-1-2.3-2.9-2.9c1.9-0.5,2.3-1,2.9-2.9
			C89.7,14.9,90.1,15.4,92,15.9z"/>
	</g>
	<g>
		<path fill="#FFFFFF" d="M22.7,34.1c-1.9,0.5-2.3,0.9-2.8,2.8c-0.5-1.9-0.9-2.3-2.8-2.8c1.9-0.5,2.3-0.9,2.8-2.8
			C20.4,33.1,20.8,33.6,22.7,34.1z"/>
	</g>
	<g>
		<path fill="#FFFFFF" d="M37.7,75.2c-1.9,0.5-2.3,0.9-2.8,2.8c-0.5-1.9-0.9-2.3-2.8-2.8c1.9-0.5,2.3-0.9,2.8-2.8
			C35.4,74.3,35.9,74.7,37.7,75.2z"/>
	</g>
	<g>
		<path fill="#FFFFFF" d="M95.3,79.4c-0.9,0.3-1.1,0.5-1.4,1.4c-0.3-0.9-0.5-1.1-1.4-1.4c0.9-0.3,1.1-0.5,1.4-1.4
			C94.1,78.9,94.3,79.1,95.3,79.4z"/>
	</g>
	<g>
		<path fill="#FFFFFF" d="M12.5,76.1c-0.9,0.3-1.1,0.5-1.4,1.4c-0.3-0.9-0.5-1.1-1.4-1.4c0.9-0.3,1.1-0.5,1.4-1.4
			C11.4,75.7,11.6,75.9,12.5,76.1z"/>
	</g>
	<g>
		<path fill="#FFFFFF" d="M103.7,33.1c-1.2,0.3-1.5,0.6-1.8,1.8c-0.3-1.2-0.6-1.5-1.8-1.8c1.2-0.3,1.5-0.6,1.8-1.8
			C102.2,32.5,102.5,32.8,103.7,33.1z"/>
	</g>
	<g>
		<path fill="#FFFFFF" d="M28.2,68.9c-0.7,0.2-0.9,0.4-1.1,1.1c-0.2-0.7-0.4-0.9-1.1-1.1c0.7-0.2,0.9-0.4,1.1-1.1
			C27.3,68.5,27.5,68.7,28.2,68.9z"/>
	</g>
	<g>
		<path fill="#FFFFFF" d="M99.1,40.2c-0.7,0.2-0.9,0.4-1.1,1.1c-0.2-0.7-0.4-0.9-1.1-1.1c0.7-0.2,0.9-0.4,1.1-1.1
			C98.2,39.9,98.4,40,99.1,40.2z"/>
	</g>
</g>
<g id="white_mona_head_2_">
	<g>
		<defs>
			<path id="SVGID_1_" d="M69.1,86.8c0.5-4-1.2-8.4-3.2-10.5c3.9-0.2,7.8-1.1,11.4-2.6c6.3-2.7,13.4-7.4,15.2-12.6l0,0
				c0.4-1,0.5-2.3,0.2-3.8l0-0.1c0.2-0.1,0.5-0.2,0.7-0.4c-0.4-1.5-1-2.4-1.7-3c0.4-0.5,0.2-1.5-0.5-2c-0.7-0.4-1.5-0.3-1.9,0.2
				c-0.3-0.3-0.6-0.6-0.9-1.1c-1.1-1.9-3.3-9.7-3.1-18.3c-0.7-3.8-3.8-6.9-8.3-9.3c-6.7-3.5-14.7-4.4-22.1-2c0,0-0.9-1.6-2-2.7
				c-0.4-0.4-1-0.5-1.5-0.2c-3.9,1.8-6.6,5.5-7,9c-10,8.9-12.6,24-5.5,35.9c4.8,8.1,13.6,12.4,22.9,13.1c-3.4,2-7.1,5-9.6,9.7
				c-0.2,0.4,0,0.9,0.4,1c4.5,1.6,10.2,2.1,16,0.5C68.9,87.3,69.1,87,69.1,86.8z"/>
		</defs>
		<use xlink:href="#SVGID_1_"  overflow="visible" fill="#F7F8F9"/>
		<clipPath id="SVGID_2_">
			<use xlink:href="#SVGID_1_"  overflow="visible"/>
		</clipPath>
	</g>
</g>
<g id="constellation_2_">
	<circle fill="#1E2B30" cx="76.3" cy="36.5" r="1.4"/>
	<circle fill="#1E2B30" cx="82.4" cy="64.6" r="1.4"/>
	<circle fill="#1E2B30" cx="81.2" cy="48" r="2.4"/>
	<circle fill="#1E2B30" cx="51.4" cy="24.9" r="1.3"/>
	<circle fill="#1E2B30" cx="41.3" cy="52.3" r="1.7"/>
	<circle fill="#1E2B30" cx="64.1" cy="71.5" r="1.2"/>
	<circle fill="#1E2B30" cx="71.5" cy="54.3" r="1.5"/>
	<circle fill="#1E2B30" cx="64.3" cy="81.8" r="2.7"/>
	<g>
		<g>
			
				<line fill="none" stroke="#1E2B30" stroke-width="0.6053" stroke-linecap="round" stroke-linejoin="round" x1="81.2" y1="48" x2="81.2" y2="48"/>
			
				<line fill="none" stroke="#1E2B30" stroke-width="0.6053" stroke-linecap="round" stroke-linejoin="round" stroke-dasharray="0,2.0815" x1="80.4" y1="46.1" x2="76.7" y2="37.4"/>
			
				<line fill="none" stroke="#1E2B30" stroke-width="0.6053" stroke-linecap="round" stroke-linejoin="round" x1="76.3" y1="36.5" x2="76.3" y2="36.5"/>
			
				<line fill="none" stroke="#1E2B30" stroke-width="0.6053" stroke-linecap="round" stroke-linejoin="round" stroke-dasharray="0,2.0474" x1="75.7" y1="38.5" x2="71.8" y2="53.3"/>
			
				<line fill="none" stroke="#1E2B30" stroke-width="0.6053" stroke-linecap="round" stroke-linejoin="round" x1="71.5" y1="54.3" x2="71.5" y2="54.3"/>
			
				<line fill="none" stroke="#1E2B30" stroke-width="0.6053" stroke-linecap="round" stroke-linejoin="round" stroke-dasharray="0,2.138" x1="73.1" y1="55.8" x2="81.6" y2="63.9"/>
			
				<line fill="none" stroke="#1E2B30" stroke-width="0.6053" stroke-linecap="round" stroke-linejoin="round" x1="82.4" y1="64.6" x2="82.4" y2="64.6"/>
			
				<line fill="none" stroke="#1E2B30" stroke-width="0.6053" stroke-linecap="round" stroke-linejoin="round" stroke-dasharray="0,1.9542" x1="80.5" y1="65.3" x2="65" y2="71.2"/>
			
				<line fill="none" stroke="#1E2B30" stroke-width="0.6053" stroke-linecap="round" stroke-linejoin="round" x1="64.1" y1="71.6" x2="64.1" y2="71.6"/>
			
				<line fill="none" stroke="#1E2B30" stroke-width="0.6053" stroke-linecap="round" stroke-linejoin="round" stroke-dasharray="0,1.9944" x1="62.6" y1="70.3" x2="42.1" y2="52.9"/>
			
				<line fill="none" stroke="#1E2B30" stroke-width="0.6053" stroke-linecap="round" stroke-linejoin="round" x1="41.3" y1="52.3" x2="41.3" y2="52.3"/>
			
				<line fill="none" stroke="#1E2B30" stroke-width="0.6053" stroke-linecap="round" stroke-linejoin="round" stroke-dasharray="0,2.0983" x1="42.8" y1="50.8" x2="54.2" y2="39.9"/>
			
				<line fill="none" stroke="#1E2B30" stroke-width="0.6053" stroke-linecap="round" stroke-linejoin="round" x1="55" y1="39.2" x2="55" y2="39.2"/>
			
				<line fill="none" stroke="#1E2B30" stroke-width="0.6053" stroke-linecap="round" stroke-linejoin="round" stroke-dasharray="0,2.103" x1="54.5" y1="37.2" x2="51.7" y2="25.9"/>
			
				<line fill="none" stroke="#1E2B30" stroke-width="0.6053" stroke-linecap="round" stroke-linejoin="round" x1="51.4" y1="24.9" x2="51.4" y2="24.9"/>
		</g>
	</g>
	<circle fill="#1E2B30" cx="55" cy="39.2" r="3.7"/>
	
		<line fill="none" stroke="#1E2B30" stroke-width="0.5663" stroke-linecap="round" stroke-linejoin="round" stroke-miterlimit="10" stroke-dasharray="0,1.6989" x1="64.1" y1="71.6" x2="64.3" y2="81.8"/>
</g>
</svg>
