<?xml version="1.0" encoding="utf-8"?>
<!-- Generator: Adobe Illustrator 16.2.1, SVG Export Plug-In . SVG Version: 6.00 Build 0)  -->
<!DOCTYPE svg PUBLIC "-//W3C//DTD SVG 1.1//EN" "http://www.w3.org/Graphics/SVG/1.1/DTD/svg11.dtd">
<svg version="1.1" id="Layer_1" xmlns="http://www.w3.org/2000/svg" xmlns:xlink="http://www.w3.org/1999/xlink" x="0px" y="0px"
	 width="440px" height="162.335px" viewBox="144 0 440 162.335" enable-background="new 144 0 440 162.335" xml:space="preserve">
<g>
	<g>
		<defs>
			<rect id="SVGID_1_" x="267.456" width="193.087" height="162.335"/>
		</defs>
		<clipPath id="SVGID_2_">
			<use xlink:href="#SVGID_1_"  overflow="visible"/>
		</clipPath>
		<path clip-path="url(#SVGID_2_)" d="M455.21,157.378l4.801-0.633l0.366-1.33c-2.267-0.543-2.542-0.847-2.209-2.113l2.147-8.034
			c0.721-2.688-0.275-4.685-2.844-4.685c-2.291,0-3.591,1.662-6.038,5.015l-0.182-0.091l0.695-2.871v-1.629h-6.408l-0.481,1.748
			l1.813,0.334l0.604,1.267l-3.385,12.661h4.353l2.023-7.646c0.358-1.387,0.876-2.295,2.233-3.652
			c1.119-1.118,1.543-1.452,2.209-1.452c0.724,0,1.238,0.452,0.904,1.634l-2.146,7.918c-0.148,0.604-0.214,1.027-0.214,1.538
			C453.454,156.351,454.186,156.987,455.21,157.378 M429.132,157.378l4.687-0.633l0.36-1.332c-2.267-0.541-2.541-0.845-2.208-2.111
			l2.961-10.729v-1.566h-6.732l-0.481,1.748l1.808,0.334l0.606,1.267l-2.537,9.247c-0.151,0.514-0.243,1.146-0.243,1.662
			C427.351,156.264,428.104,156.987,429.132,157.378 M433.426,138.951c1.658,0,2.99-1.543,2.99-2.93c0-1.391-0.97-2.324-2.389-2.324
			c-1.658,0-2.991,1.538-2.991,2.93C431.036,138.013,432.007,138.951,433.426,138.951 M412.456,157.378l4.801-0.633l0.362-1.332
			c-2.268-0.541-2.538-0.845-2.201-2.111l2.14-8.037c0.729-2.689-0.242-4.682-2.712-4.682c-2.209,0-3.66,1.781-5.777,4.832
			l-0.182-0.094c0.848-2.929-0.238-4.738-2.625-4.738c-2.205,0-3.501,1.662-6.014,5.015l-0.178-0.095l0.69-2.867v-1.629h-6.403
			l-0.481,1.748l1.812,0.334l0.606,1.267l-3.389,12.661h4.354l2.024-7.646c0.357-1.387,0.876-2.295,2.237-3.652
			c1.144-1.147,1.629-1.452,2.2-1.452c0.818,0,1.028,0.575,0.753,1.634l-2.985,11.118h4.348l2.027-7.581
			c0.388-1.514,0.873-2.361,2.233-3.719c1.147-1.147,1.634-1.452,2.204-1.452c0.818,0,1.059,0.575,0.757,1.634l-2.146,7.914
			c-0.148,0.604-0.21,1.031-0.21,1.542C410.704,156.351,411.428,156.987,412.456,157.378 M372.812,153.91
			c-0.817,0-1.237-0.818-1.237-2.146c0-4.322,2.476-8.312,4.778-8.312c0.904,0,1.597,0.424,2.41,1.268l-1.114,4.476
			c-0.301,1.181-0.848,2.118-2.177,3.267C374.231,153.516,373.507,153.91,372.812,153.91 M378.312,157.378l4.472-0.633l0.36-1.332
			c-2.267-0.541-2.537-0.845-2.204-2.111l4.378-17.375v-1.567h-6.765l-0.452,1.749l1.813,0.333l0.63,1.271l-0.781,3.023
			l-0.334,1.991l-0.15,0.028c-1.024-1.145-2.021-1.987-4.2-1.987c-3.836,0-8.155,5.159-8.155,11.267
			c0,3.379,1.298,5.373,3.715,5.373c2.112,0,3.808-1.81,6.077-4.558l0.239,0.118c-0.239,0.877-0.393,1.875-0.393,2.387
			C376.562,156.351,377.287,156.987,378.312,157.378 M347.011,153.755c-0.819,0-1.271-0.482-1.271-1.758
			c0-4.166,2.781-8.848,5.713-8.848c0.662,0,1.267,0.329,1.6,0.781l-0.966,4.113c-0.301,1.268-1.087,2.715-2.267,3.865
			C348.549,153.149,347.704,153.755,347.011,153.755 M352.391,157.378l4.285-0.633l0.363-1.332
			c-2.265-0.541-2.539-0.873-2.206-2.111l3.355-12.477l-1.149-0.242l-1.573,1.086c-0.966-0.662-1.899-1.115-3.62-1.115
			c-4.623,0-10.756,5.402-10.756,12.296c0,3.081,1.51,4.833,3.923,4.558c2.087-0.238,3.812-2.172,6.046-5.191l0.242,0.115
			l-0.359,1.271c-0.152,0.543-0.305,1.146-0.305,1.752C350.637,156.351,351.362,156.987,352.391,157.378 M324.893,157.501
			c3.867,0,6.344-2.021,6.344-5.076c0-2.143-1.358-3.442-3.895-5.047c-2.148-1.356-2.876-1.994-2.876-2.989
			c0-0.88,0.757-1.905,2.516-1.905c0.48,0,1.447,0.12,2.083,0.572l-0.394,1.785c0.511,0.88,1.296,1.391,2.325,1.391
			c0.997,0,1.812-0.786,1.812-1.967c0-2.023-3.021-3.743-6.103-3.743c-3.867,0-6.102,2.054-6.102,4.981
			c0,1.908,1.148,3.299,3.862,4.957c2.122,1.303,2.907,2.088,2.907,2.965c0,1.242-1.149,2.113-2.632,2.113
			c-0.969,0-2.055-0.271-2.84-0.785l0.545-1.813c-0.517-0.966-1.327-1.479-2.236-1.479c-1.057,0-1.812,0.848-1.812,1.965
			C318.398,155.905,321.993,157.501,324.893,157.501 M294.166,162.335c2.869,0.029,6.617-2.264,10.454-6.768
			c3.11-3.624,5.524-8.096,5.558-11.238c0.031-2.236-1.061-3.713-2.78-3.746c-1.567-0.029-2.505,1.299-2.505,2.66
			c-0.031,0.664,0.181,1.297,0.514,1.812l1.779,0.634c-0.45,2.689-2.083,6.014-4.289,8.703h-0.665l0.152-3.838l-1.479-9.547h-5.865
			l-0.481,1.748l2.176,0.604l2.417,14.655c-1.026,0.908-1.993,1.419-3.294,1.872l-0.693-1.777c-2.024-0.757-3.867,0.238-3.897,1.871
			C291.266,161.369,292.323,162.306,294.166,162.335 M276.214,157.35c4.898,0,8.157-3.287,8.097-7.067
			c-0.06-3.236-2.384-4.685-4.525-5.923c-1.789-1.028-3.449-1.907-3.481-3.509c-0.031-1.9,1.482-3.053,3.662-3.053
			c1.057,0,1.931,0.338,2.713,0.938l0.364,3.534h2.657l1.726-6.854h-1.209l-1.814,1.267c-1.359-0.757-2.81-1.267-4.893-1.267
			c-4.687,0-7.885,3.108-7.822,6.767c0.06,3.171,2.324,4.591,4.437,5.8c1.814,1.028,3.538,1.908,3.566,3.628
			c0.031,2.356-1.875,3.353-3.899,3.353c-1.51,0-2.625-0.448-3.622-1.086l-0.364-3.871h-2.598l-1.75,7.011h1.175l1.877-1.296
			C272.11,156.625,274.042,157.35,276.214,157.35"/>
	</g>
	<g>
		<defs>
			<rect id="SVGID_3_" x="267.456" width="193.087" height="162.335"/>
		</defs>
		<clipPath id="SVGID_4_">
			<use xlink:href="#SVGID_3_"  overflow="visible"/>
		</clipPath>
		<path clip-path="url(#SVGID_4_)" fill="#EC1B2F" d="M362.38,19.753v-7.346c0.7-0.402,1.77-0.735,2.84-0.735
			c1.636,0,2.235,0.836,2.235,2.205v5.876c0,1.434-0.732,2.132-2.136,2.132h-0.805C363.114,21.886,362.38,21.187,362.38,19.753
			 M369.387,13.508c0-2.136-1.229-3.7-3.767-3.7c-1.37,0.033-2.339,0.402-3.24,0.866V4c0-1.437,0.734-2.136,2.136-2.136h0.738
			c1.434,0,2.135,0.699,2.135,2.136v2.368c0,0.605,0.335,0.938,0.935,0.938h0.066c0.599,0,0.932-0.333,0.932-0.938V4
			c0-2.705-1.265-4-4.001-4h-0.805c-2.734,0-4.101,1.397-4.101,4.066v15.586c0,2.701,1.365,4.099,4.101,4.099h0.771
			c2.734,0,4.1-1.398,4.1-4.099V13.508z"/>
	</g>
</g>
<line fill="none" stroke="#231F20" stroke-width="0.5" x1="348.169" y1="81.942" x2="381.537" y2="81.942"/>
</svg>
