<?xml version="1.0" encoding="utf-8"?>
<!-- Generator: Adobe Illustrator 20.0.0, SVG Export Plug-In . SVG Version: 6.00 Build 0)  -->
<svg version="1.1" xmlns="http://www.w3.org/2000/svg" xmlns:xlink="http://www.w3.org/1999/xlink" x="0px" y="0px"
	 viewBox="0 0 77.7 77.7" style="enable-background:new 0 0 77.7 77.7;" xml:space="preserve">
<style type="text/css">
	.st0{display:none;}
	.st1{display:inline;fill:#FFFFFF;stroke:#FFFFFF;stroke-miterlimit:10;}
	.st2{fill:#FFFFFF;}
	.st3{fill:none;stroke:#CCCCCC;stroke-miterlimit:10;}
	.st4{fill:#999999;stroke:#FFFFFF;stroke-miterlimit:10;}
	.st5{fill:#EEEEEE;stroke:#FFFFFF;stroke-miterlimit:10;}
	.st6{display:inline;fill:#FF3300;}
	.st7{font-family:'AvenirNext-DemiBold';}
	.st8{font-size:18px;}
	.st9{fill:#FF3300;}
</style>
<g id="Слой_1">
</g>
<g id="Layer_4" class="st0">
	<circle class="st1" cx="40.7" cy="39.5" r="35.1"/>
</g>
<g id="Layer_7">
	<circle class="st2" cx="38.9" cy="38.9" r="23"/>
</g>
<g id="Layer_8">
	<circle class="st3" cx="38.9" cy="38.9" r="38.4"/>
</g>
<g id="_x32_0">
	<g>
		<polygon class="st4" points="38.9,38.9 38.9,38.9 38.9,38.9 		"/>
		<rect x="38.9" y="38.9" class="st4" width="0" height="0"/>
		<circle class="st4" cx="38.9" cy="38.9" r="0"/>
		<polygon class="st4" points="38.9,38.9 38.9,38.9 38.9,38.9 		"/>
		<polygon class="st4" points="38.9,38.9 38.9,38.9 38.9,38.9 		"/>
		<polygon class="st4" points="38.9,38.9 38.9,38.9 38.9,38.9 		"/>
		<polygon class="st4" points="38.9,38.9 38.9,38.9 38.9,38.9 		"/>
		<polygon class="st4" points="38.9,38.9 38.9,38.9 38.9,38.9 		"/>
		<polygon class="st4" points="38.9,38.9 38.9,38.9 38.9,38.9 		"/>
		<path class="st4" d="M24.9,58.1l-6.7,9.2c2.9,2.1,6.2,3.8,9.8,5l3.5-10.8C29.1,60.7,26.9,59.6,24.9,58.1z"/>
		<path class="st4" d="M15.1,38.9H3.8c0,0,0,0,0,0c0,3.8,0.6,7.4,1.7,10.9l10.8-3.5C15.5,43.9,15.1,41.4,15.1,38.9z"/>
		<path class="st4" d="M16.2,46.2L5.5,49.7c1.2,3.5,2.9,6.8,5,9.8l9.2-6.6C18.2,50.9,17,48.6,16.2,46.2z"/>
		<path class="st4" d="M19.6,52.9l-9.2,6.6c2.2,3,4.8,5.6,7.8,7.8l6.7-9.2C22.9,56.6,21.1,54.9,19.6,52.9z"/>
		<path class="st4" d="M31.5,61.5L28,72.3c3.4,1.1,7.1,1.7,10.9,1.7h0V62.7C36.3,62.7,33.8,62.3,31.5,61.5z"/>
		<path class="st4" d="M61.5,46.2c-0.8,2.4-1.9,4.6-3.4,6.6l9.2,6.6c2.1-2.9,3.8-6.2,5-9.8L61.5,46.2z"/>
		<path class="st4" d="M52.9,58.1l6.6,9.2c3-2.2,5.6-4.8,7.8-7.8l-9.2-6.6C56.6,54.9,54.9,56.6,52.9,58.1z"/>
		<path class="st4" d="M46.2,61.5l3.5,10.8c3.5-1.2,6.8-2.9,9.8-5l-6.6-9.2C50.9,59.6,48.6,60.7,46.2,61.5z"/>
		<path class="st4" d="M38.9,62.7V74c3.8,0,7.4-0.6,10.9-1.7l-3.5-10.8C43.9,62.3,41.4,62.7,38.9,62.7z"/>
		<path class="st4" d="M58.1,24.9l9.2-6.6c-2.2-3-4.8-5.6-7.8-7.8l-6.6,9.2C54.9,21.1,56.6,22.9,58.1,24.9z"/>
		<path class="st4" d="M61.5,31.5L72.3,28c-1.2-3.5-2.9-6.8-5-9.8l-9.2,6.6C59.6,26.9,60.7,29.1,61.5,31.5z"/>
		<path class="st4" d="M52.9,19.6l6.6-9.2c-2.9-2.1-6.2-3.8-9.8-5l-3.5,10.8C48.6,17,50.9,18.2,52.9,19.6z"/>
		<path class="st4" d="M46.2,16.2l3.5-10.8c-3.4-1.1-7.1-1.7-10.9-1.7v11.3C41.4,15.1,43.9,15.5,46.2,16.2z"/>
		<path class="st4" d="M61.5,46.2l10.8,3.5c1.1-3.4,1.7-7.1,1.7-10.8c0,0,0,0,0,0H62.7C62.7,41.4,62.3,43.9,61.5,46.2z"/>
		<path class="st4" d="M62.7,38.9H74c0-3.8-0.6-7.4-1.7-10.9l-10.8,3.5C62.3,33.8,62.7,36.3,62.7,38.9z"/>
		<path class="st5" d="M31.5,16.2L28,5.5c-3.5,1.2-6.8,2.9-9.8,5l6.7,9.2C26.9,18.2,29.1,17,31.5,16.2z"/>
		<path class="st4" d="M19.6,24.9l-9.2-6.6c-2.1,2.9-3.8,6.2-5,9.8l10.8,3.5C17,29.1,18.2,26.9,19.6,24.9z"/>
		<path class="st4" d="M24.9,19.6l-6.7-9.2c-3,2.2-5.6,4.8-7.8,7.8l9.2,6.6C21.1,22.9,22.9,21.1,24.9,19.6z"/>
		<path class="st4" d="M16.2,31.5L5.5,28c-1.1,3.4-1.7,7.1-1.7,10.9h11.3C15.1,36.3,15.5,33.8,16.2,31.5z"/>
		<path class="st5" d="M38.9,15.1V3.8h0c-3.8,0-7.4,0.6-10.9,1.7l3.5,10.8C33.8,15.5,36.3,15.1,38.9,15.1z"/>
	</g>
</g>
<g id="_x32_0_1_" class="st0">
	<text transform="matrix(1 0 0 1 28.612 44.4355)" class="st6 st7 st8">20</text>
</g>
<g id="_x31_9" class="st0">
	<text transform="matrix(1 0 0 1 21.5022 44.4355)" class="st6 st7 st8">19.5</text>
</g>
<g id="_x31_9_copy" class="st0">
	<text transform="matrix(1 0 0 1 28.612 44.4355)" class="st6 st7 st8">19</text>
</g>
<g id="_x31_8.5" class="st0">
	<text transform="matrix(1 0 0 1 21.5022 44.4355)" class="st6 st7 st8">18.5</text>
</g>
<g id="_x31_8">
	<g>
		<path class="st9" d="M25.4,45.4V32.9l-2.6,2l-1.2-2l4-3H28v15.6H25.4z"/>
		<path class="st9" d="M40.7,41.1c0,0.7-0.1,1.3-0.3,1.9c-0.2,0.6-0.5,1.1-0.9,1.5c-0.4,0.4-0.9,0.7-1.5,1c-0.6,0.2-1.2,0.3-1.9,0.3
			c-0.7,0-1.4-0.1-1.9-0.3c-0.6-0.2-1.1-0.5-1.5-1c-0.4-0.4-0.7-0.9-0.9-1.5c-0.2-0.6-0.3-1.2-0.3-1.9c0-1.1,0.2-1.9,0.7-2.6
			c0.5-0.7,1.1-1.1,1.8-1.3v0c-0.7-0.3-1.2-0.7-1.6-1.3s-0.5-1.3-0.5-2.2c0-0.5,0.1-1.1,0.3-1.6c0.2-0.5,0.4-0.9,0.8-1.3
			s0.8-0.7,1.3-0.9c0.5-0.2,1.2-0.3,1.9-0.3c0.7,0,1.3,0.1,1.9,0.3c0.5,0.2,1,0.5,1.4,0.9s0.6,0.8,0.8,1.3c0.2,0.5,0.3,1,0.3,1.6
			c0,0.8-0.2,1.6-0.5,2.2s-0.9,1-1.6,1.3v0c0.7,0.2,1.3,0.7,1.7,1.3S40.7,40.1,40.7,41.1z M38,41c0-0.8-0.2-1.5-0.5-2
			c-0.4-0.5-0.9-0.8-1.5-0.8c-0.6,0-1.1,0.3-1.4,0.8S34,40.2,34,41c0,0.8,0.2,1.4,0.5,1.9c0.3,0.5,0.8,0.8,1.5,0.8
			c0.6,0,1.1-0.3,1.5-0.8C37.8,42.4,38,41.8,38,41z M37.8,33.9c0-0.7-0.2-1.3-0.5-1.7c-0.3-0.4-0.8-0.7-1.3-0.7
			c-0.6,0-1,0.2-1.3,0.7c-0.3,0.4-0.5,1-0.5,1.7c0,0.3,0,0.6,0.1,0.9s0.2,0.5,0.4,0.8c0.2,0.2,0.3,0.4,0.6,0.5
			c0.2,0.1,0.5,0.2,0.7,0.2c0.3,0,0.5-0.1,0.8-0.2c0.2-0.1,0.4-0.3,0.6-0.5c0.2-0.2,0.3-0.5,0.4-0.8C37.7,34.5,37.8,34.2,37.8,33.9z
			"/>
		<path class="st9" d="M44.8,44c0,0.5-0.1,0.8-0.4,1.1c-0.3,0.3-0.6,0.5-1.1,0.5c-0.4,0-0.8-0.2-1.1-0.5c-0.3-0.3-0.4-0.7-0.4-1.1
			c0-0.4,0.1-0.8,0.4-1.1c0.3-0.3,0.6-0.5,1.1-0.5c0.4,0,0.8,0.2,1.1,0.5C44.7,43.2,44.8,43.6,44.8,44z"/>
		<path class="st9" d="M54.9,40.4c0,0.9-0.1,1.7-0.4,2.3s-0.6,1.2-1,1.7c-0.4,0.5-0.9,0.8-1.4,1c-0.6,0.2-1.2,0.3-1.8,0.3
			c-1.1,0-2-0.3-2.8-0.9c-0.8-0.6-1.3-1.4-1.6-2.6l2.3-0.7c0.2,0.6,0.4,1,0.8,1.4c0.3,0.3,0.8,0.5,1.3,0.5c0.6,0,1.1-0.3,1.5-0.8
			c0.4-0.5,0.5-1.2,0.5-2.1c0-1-0.2-1.7-0.7-2.2c-0.5-0.5-1.1-0.8-1.8-0.8c-0.4,0-0.9,0.1-1.5,0.2c-0.5,0.1-1,0.3-1.4,0.5l0.3-8.4
			h7.1v2.3h-4.9l-0.2,3.6c0.2-0.1,0.4-0.2,0.7-0.2c0.3-0.1,0.5-0.1,0.7-0.1c0.7,0,1.3,0.1,1.8,0.4c0.5,0.2,1,0.6,1.3,1
			c0.4,0.4,0.6,0.9,0.8,1.6C54.8,39,54.9,39.7,54.9,40.4z"/>
	</g>
</g>
</svg>
