<svg xmlns="http://www.w3.org/2000/svg" xmlns:xlink="http://www.w3.org/1999/xlink" viewBox="0 0 1000 351.1"><style>.st0{fill:none;stroke:#939598;stroke-width:3}.st1{fill:#7c7d7d}.st2{font-family:&apos;OpenSans&apos;}.st3{font-size:16px}.st4{fill:#939598}.st5,.st6{fill:#fff;stroke:url(#SVGID_1_);stroke-width:3;stroke-miterlimit:10}.st6{stroke:url(#SVGID_2_)}.st7{fill:#58595b}.st8{fill:#fff}.st9{font-family:&apos;OpenSans-Light&apos;}.st10{font-size:14.572px}.st11{fill:none;stroke:#fff;stroke-width:.4857}.st12{fill:#327cbe}.st13{clip-path:url(#SVGID_5_);fill:none;stroke:#fff;stroke-width:.6172;stroke-miterlimit:10}.st14,.st15,.st16,.st17,.st18{stroke-width:3;stroke-miterlimit:10}.st14{stroke-dasharray:6,6;fill:none;stroke:#939598}.st15,.st16,.st17,.st18{fill:url(#SVGID_6_);stroke:url(#SVGID_7_)}.st16,.st17,.st18{fill:none;stroke:url(#SVGID_8_)}.st17,.st18{fill:url(#SVGID_9_);stroke:url(#SVGID_10_)}.st18{fill:none;stroke:url(#SVGID_11_)}</style><path class="st0" d="M318.8 250.5V155"/><text transform="translate(371.827 115.965)" class="st1 st2 st3">Hashed</text><text transform="translate(371.827 135.965)" class="st1 st2 st3">KSK</text><text transform="translate(371.829 261.981)" class="st1 st2 st3">Public</text><text transform="translate(371.829 281.981)" class="st1 st2 st3">KSK</text><path class="st4" d="M318.8 160.3h-8.5l4.2-7.4 4.2-7.4 4.4 7.3 4.3 7.4z"/><linearGradient id="SVGID_1_" gradientUnits="userSpaceOnUse" x1="21.603" y1="33.083" x2="138.197" y2="130.917" gradientTransform="matrix(1 0 0 -1 0 354)"><stop offset="0" stop-color="#8077B7"/><stop offset="1" stop-color="#77C5E3"/></linearGradient><circle class="st5" cx="79.9" cy="272" r="74.6"/><text transform="translate(42.914 311.019)" class="st1 st2 st3">Child Zone</text><linearGradient id="SVGID_2_" gradientUnits="userSpaceOnUse" x1="21.603" y1="225.983" x2="138.197" y2="323.817" gradientTransform="matrix(1 0 0 -1 0 354)"><stop offset="0" stop-color="#8077B7"/><stop offset="1" stop-color="#77C5E3"/></linearGradient><circle class="st6" cx="79.9" cy="79.1" r="74.6"/><text transform="translate(36.515 116.203)" class="st1 st2 st3">Parent Zone</text><path class="st7" d="M350.8 140.7h-63.6c-1.3 0-2.3-1-2.3-2.3V65c0-1.3 1-2.3 2.3-2.3h63.6c1.3 0 2.3 1 2.3 2.3v73.4c-.1 1.3-1.1 2.3-2.3 2.3z"/><text transform="translate(292.702 107.345)" class="st8 st9 st10">DNSKEY</text><path class="st11" d="M294.1 86.3h49.8m-49.8 31h49.8"/><circle class="st8" cx="346.7" cy="137.7" r="16.6"/><circle class="st12" cx="346.7" cy="137.7" r="14.7"/><path class="st8" d="M350.4 136.3l-.6 3.1h2.9v1.8h-3.3l-.9 4.5h-1.9l.9-4.5h-2.7l-.9 4.5H342l.8-4.5h-2.7v-1.8h3.1l.6-3.1H341v-1.8h3.2l.9-4.6h2l-.9 4.6h2.7l.9-4.6h1.9l-.9 4.6h2.7v1.8h-3.1zm-5.2 3.1h2.7l.6-3.1h-2.7l-.6 3.1z"/><path class="st7" d="M350.8 293h-63.6c-1.3 0-2.3-1-2.3-2.3v-73.4c0-1.3 1-2.3 2.3-2.3h63.6c1.3 0 2.3 1 2.3 2.3v73.4c-.1 1.2-1.1 2.3-2.3 2.3z"/><text transform="translate(292.702 259.603)" class="st8 st9 st10">DNSKEY</text><path class="st11" d="M294.1 238.6h49.8m-49.8 31h49.8"/><path class="st7" d="M342 285.4h21.6l4 3.7v1.5l-3.4 3.4H363l-1.4-1.2h-1.7l-.9 1.4h-1.1l-1.1-.9h-1.4l-1.1 1.1h-.8l-1.2-1h-2l-1.9 2.2h-1l-.8-.7h-4.9c.2-.1.4-9.4.3-9.5z"/><path id="SVGID_3_" class="st12" d="M342 285.4h21.6l4 3.7v1.5l-3.4 3.4H363l-1.4-1.2h-1.7l-.9 1.4h-1.1l-1.1-.9h-1.4l-1.1 1.1h-.8l-1.2-1h-2l-1.9 2.2h-1l-.8-.7h-4.9c.2-.1.4-9.4.3-9.5z"/><defs><path id="SVGID_4_" d="M342 285.4h21.6l4 3.7v1.5l-3.4 3.4H363l-1.4-1.2h-1.7l-.9 1.4h-1.1l-1.1-.9h-1.4l-1.1 1.1h-.8l-1.2-1h-2l-1.9 2.2h-1l-.8-.7h-4.9c.2-.1.4-9.4.3-9.5z"/></defs><clipPath id="SVGID_5_"><use xlink:href="#SVGID_4_" overflow="visible"/></clipPath><path class="st13" d="M343.8 287.8h23.3"/><circle class="st12" cx="333.7" cy="290" r="9.6"/><circle class="st8" cx="329.2" cy="290" r="2.4"/><path class="st14" d="M168.3 81c8.7 29.4 47.2 51.5 93.4 51.5m-93.4 140.6c8.7-29.4 47.2-51.5 93.4-51.5"/><path class="st4" d="M252.7 132.3l-.1-8.6 7.5 4.3 7.4 4.2-7.3 4.3-7.4 4.3zm0 89.4l-.1-8.6 7.5 4.2 7.4 4.2-7.3 4.4-7.4 4.3z"/><linearGradient id="SVGID_6_" gradientUnits="userSpaceOnUse" x1="45.522" y1="66.053" x2="168.129" y2="168.933" gradientTransform="matrix(1 0 0 -1 0 354)"><stop offset="0" stop-color="#8077B7"/><stop offset=".488" stop-color="#77C5E3"/></linearGradient><linearGradient id="SVGID_7_" gradientUnits="userSpaceOnUse" x1="42.875" y1="63.832" x2="116.925" y2="125.968" gradientTransform="matrix(1 0 0 -1 0 354)"><stop offset="0" stop-color="#8077B7"/><stop offset=".864" stop-color="#77C5E3"/></linearGradient><path class="st15" d="M126.1 276.1H33.7c-.8 0-1.4-.6-1.4-1.4v-31.2c0-.8.6-1.4 1.4-1.4h92.4c.8 0 1.4.6 1.4 1.4v31.2c0 .8-.6 1.4-1.4 1.4z"/><circle class="st8" cx="100.8" cy="259.5" r="3.1"/><circle class="st8" cx="110.6" cy="259.5" r="3.1"/><circle class="st8" cx="81.1" cy="259.5" r="3.1"/><circle class="st8" cx="90.9" cy="259.5" r="3.1"/><linearGradient id="SVGID_8_" gradientUnits="userSpaceOnUse" x1="59.658" y1="53.157" x2="100.042" y2="87.043" gradientTransform="matrix(1 0 0 -1 0 354)"><stop offset="0" stop-color="#8077B7"/><stop offset="1" stop-color="#77C5E3"/></linearGradient><path class="st16" d="M46.7 283.9H113"/><linearGradient id="SVGID_9_" gradientUnits="userSpaceOnUse" x1="45.522" y1="259.553" x2="168.129" y2="362.433" gradientTransform="matrix(1 0 0 -1 0 354)"><stop offset="0" stop-color="#8077B7"/><stop offset=".488" stop-color="#77C5E3"/></linearGradient><linearGradient id="SVGID_10_" gradientUnits="userSpaceOnUse" x1="42.875" y1="257.332" x2="116.925" y2="319.468" gradientTransform="matrix(1 0 0 -1 0 354)"><stop offset="0" stop-color="#8077B7"/><stop offset=".864" stop-color="#77C5E3"/></linearGradient><path class="st17" d="M126.1 82.6H33.7c-.8 0-1.4-.6-1.4-1.4V50c0-.8.6-1.4 1.4-1.4h92.4c.8 0 1.4.6 1.4 1.4v31.2c0 .8-.6 1.4-1.4 1.4z"/><circle class="st8" cx="100.8" cy="66" r="3.1"/><circle class="st8" cx="110.6" cy="66" r="3.1"/><circle class="st8" cx="81.1" cy="66" r="3.1"/><circle class="st8" cx="90.9" cy="66" r="3.1"/><linearGradient id="SVGID_11_" gradientUnits="userSpaceOnUse" x1="59.658" y1="246.657" x2="100.042" y2="280.543" gradientTransform="matrix(1 0 0 -1 0 354)"><stop offset="0" stop-color="#8077B7"/><stop offset="1" stop-color="#77C5E3"/></linearGradient><path class="st18" d="M46.7 90.4H113"/></svg>