<?xml version="1.0" encoding="utf-8"?>
<!-- Generator: Adobe Illustrator 20.0.0, SVG Export Plug-In . SVG Version: 6.00 Build 0)  -->
<svg version="1.1" id="Layer_1" xmlns="http://www.w3.org/2000/svg" xmlns:xlink="http://www.w3.org/1999/xlink" x="0px" y="0px"
	 viewBox="0 0 217 125" style="enable-background:new 0 0 217 125;" xml:space="preserve">
<style type="text/css">
	.st0{fill:#0C2359;}
	.st1{fill:#10265B;}
	.st2{fill:#EF7622;}
</style>
<g>
	<g id="Layer_3">
		<g>
			<path class="st0" d="M72.1,104.1l2.4,12.1l0,0l2.5-12.1h5.1v17.1h-3.2v-13.7l0,0l-3,13.7h-2.7l-3-13.7l0,0v13.7H67v-17.1H72.1z"
				/>
			<path class="st0" d="M92.3,104.1l4.5,17.1h-3.6l-0.8-3.6h-4.5l-0.8,3.6h-3.6l4.5-17.1H92.3z M91.8,114.8l-1.7-7.7l0,0l-1.7,7.7
				H91.8z"/>
			<path class="st0" d="M106.9,116.4c0,1.8-0.4,3.1-1.3,3.9c-0.8,0.8-2.1,1.2-3.9,1.2c-0.9,0-1.7-0.1-2.2-0.4
				c-0.6-0.2-1-0.6-1.4-1.1s-0.6-1-0.7-1.6s-0.2-1.2-0.2-1.9v-0.7h3.2v0.5c0,0.9,0.1,1.6,0.3,2c0.2,0.4,0.6,0.7,1.2,0.7
				s1-0.2,1.2-0.7c0.2-0.4,0.3-1.1,0.3-2v-12.2h3.5V116.4z"/>
			<path class="st0" d="M109,109.1c0.1-1.1,0.4-2,0.8-2.8s1-1.4,1.8-1.8s1.8-0.7,3.1-0.7s2.3,0.2,3.1,0.7c0.8,0.4,1.4,1.1,1.8,1.8
				s0.7,1.7,0.8,2.8c0.1,1.1,0.2,2.3,0.2,3.6c0,1.3-0.1,2.5-0.2,3.6s-0.4,2-0.8,2.8s-1,1.4-1.8,1.8s-1.8,0.6-3.1,0.6
				s-2.3-0.2-3.1-0.6c-0.8-0.4-1.4-1-1.8-1.8s-0.7-1.7-0.8-2.8c-0.1-1.1-0.2-2.3-0.2-3.6C108.8,111.3,108.8,110.2,109,109.1z
				 M112.3,115.6c0.1,0.8,0.2,1.5,0.3,2c0.2,0.5,0.4,0.9,0.7,1.1c0.3,0.2,0.7,0.3,1.2,0.3s0.9-0.1,1.2-0.3c0.3-0.2,0.6-0.6,0.7-1.1
				c0.2-0.5,0.3-1.2,0.3-2c0.1-0.8,0.1-1.8,0.1-2.9c0-1.2,0-2.1-0.1-2.9s-0.2-1.5-0.3-2c-0.2-0.5-0.4-0.9-0.7-1.1
				c-0.3-0.2-0.7-0.3-1.2-0.3s-0.9,0.1-1.2,0.3c-0.3,0.2-0.6,0.6-0.7,1.1c-0.2,0.5-0.3,1.2-0.3,2c-0.1,0.8-0.1,1.8-0.1,2.9
				S112.3,114.8,112.3,115.6z"/>
			<path class="st0" d="M128.9,104.1c1.4,0,2.6,0.4,3.4,1.1c0.8,0.7,1.2,1.8,1.2,3.3c0,1.2-0.2,2.1-0.7,2.8
				c-0.5,0.7-1.2,1.2-2.2,1.4l0,0c0.9,0.1,1.5,0.4,1.9,0.8s0.6,1.1,0.7,2.1c0,0.3,0.1,0.7,0.1,1c0,0.4,0,0.8,0,1.3
				c0,0.9,0.1,1.6,0.1,2.1c0.1,0.5,0.3,0.8,0.6,1v0.1h-3.7c-0.2-0.2-0.3-0.5-0.3-0.8s-0.1-0.6-0.1-1l-0.1-3.3c0-0.7-0.2-1.2-0.5-1.6
				s-0.8-0.6-1.5-0.6h-1.9v7.2h-3.5v-17.1h6.5V104.1z M127.4,111.6c0.8,0,1.5-0.2,1.9-0.6s0.7-1.1,0.7-2c0-1.6-0.8-2.4-2.4-2.4h-1.7
				v4.9L127.4,111.6L127.4,111.6z"/>
			<path class="st0" d="M138.6,116.4c0,0.4,0,0.8,0.1,1.1c0.1,0.3,0.2,0.6,0.4,0.8c0.2,0.2,0.4,0.4,0.7,0.5s0.7,0.2,1.1,0.2
				c0.5,0,1-0.2,1.4-0.5s0.6-0.9,0.6-1.6c0-0.4-0.1-0.7-0.2-1c-0.1-0.3-0.3-0.5-0.5-0.8c-0.2-0.2-0.6-0.4-0.9-0.6
				c-0.4-0.2-0.9-0.4-1.5-0.6c-0.8-0.3-1.4-0.5-2-0.8s-1-0.7-1.4-1.1s-0.7-0.9-0.8-1.4c-0.2-0.5-0.3-1.2-0.3-1.9
				c0-1.7,0.5-3,1.4-3.8s2.2-1.2,3.9-1.2c0.8,0,1.5,0.1,2.1,0.3c0.6,0.2,1.2,0.4,1.7,0.8s0.8,0.9,1.1,1.4c0.3,0.6,0.4,1.3,0.4,2.1
				v0.5h-3.3c0-0.8-0.1-1.4-0.4-1.9s-0.8-0.7-1.4-0.7c-0.4,0-0.7,0.1-1,0.2s-0.5,0.3-0.6,0.4c-0.2,0.2-0.3,0.4-0.3,0.6
				c-0.1,0.2-0.1,0.5-0.1,0.7c0,0.5,0.1,1,0.3,1.3c0.2,0.4,0.7,0.7,1.4,1l2.7,1.2c0.7,0.3,1.2,0.6,1.6,0.9c0.4,0.3,0.7,0.6,1,1
				s0.4,0.8,0.5,1.2c0.1,0.4,0.1,0.9,0.1,1.4c0,1.8-0.5,3.1-1.6,3.9c-1,0.8-2.5,1.2-4.4,1.2c-2,0-3.3-0.4-4.2-1.3
				c-0.8-0.8-1.3-2.1-1.3-3.6v-0.7h3.5v0.8H138.6z"/>
		</g>
	</g>
	<g id="Layer_2">
		<g>
			<g>
				<path class="st1" d="M157,91.4c-8.5,0-15.2-18-15.2-41s6.7-41,15.2-41s15.2,18,15.2,41S165.5,91.4,157,91.4z M157,14.4
					c-5.1,0-11.1,15.7-11.1,36s6,36,11.1,36s11.1-15.7,11.1-36C168.1,30.2,162.1,14.4,157,14.4z"/>
				<path class="st1" d="M157,9.9c-8.1,0-14.7,18.1-14.7,40.5s6.6,40.5,14.7,40.5c8.1,0,14.7-18.1,14.7-40.5S165.1,9.9,157,9.9z
					 M157,86.9c-5.5,0-11.6-15.6-11.6-36.5s6.1-36.5,11.6-36.5s11.6,15.6,11.6,36.5C168.6,71.3,162.4,86.9,157,86.9z"/>
				<path class="st1" d="M182.8,74.8c-8.7,0-21.2-4.2-33.4-11.3c-19.9-11.5-32.2-26.3-27.9-33.7c1.5-2.6,4.8-3.9,9.7-3.9
					c8.7,0,21.2,4.2,33.4,11.3c9.4,5.4,17.5,11.9,22.8,18.2c5.4,6.4,7.2,11.9,5.1,15.5C191,73.5,187.6,74.8,182.8,74.8L182.8,74.8z
					 M131.9,30.4c-3.2,0-5.4,0.7-6.1,2.1c-1.2,2.1,0.6,6.4,5,11.4c4.9,5.6,12.2,11.3,20.6,16.2c13.3,7.7,24.5,10.4,30.6,10.4
					c3.2,0,5.4-0.7,6.1-2.1c0.4-0.8,0.5-1.8,0.1-3.1c-1.5-5.7-10.8-15.9-25.7-24.5C149.2,33.1,138,30.4,131.9,30.4z"/>
				<path class="st1" d="M121.9,30.1c-4.1,7,8.4,21.8,27.7,33C169,74.3,188,77.7,192,70.6c4.1-7-8.4-21.8-27.7-33
					C144.9,26.5,125.9,23.1,121.9,30.1z M188.5,68.6c-2.7,4.7-19.3,2.3-37.4-8.2C133,50,122.6,36.9,125.3,32.1
					c2.7-4.7,19.3-2.3,37.4,8.2C180.8,50.8,191.3,63.9,188.5,68.6z"/>
				<path class="st1" d="M131.1,74.8c-4.9,0-8.2-1.4-9.7-3.9c-2.1-3.6-0.3-9.1,5.1-15.5c5.3-6.3,13.4-12.7,22.8-18.2
					c12.2-7.1,24.7-11.3,33.4-11.3c4.9,0,8.2,1.4,9.7,3.9c2.1,3.6,0.3,9.1-5.1,15.5c-5.3,6.3-13.4,12.7-22.8,18.2
					C152.3,70.6,139.9,74.8,131.1,74.8L131.1,74.8z M182,30.4c-6.1,0-17.3,2.7-30.6,10.4c-8.4,4.8-15.7,10.6-20.6,16.2
					c-4.4,5-6.3,9.3-5,11.4c0.8,1.3,2.9,2.1,6.1,2.1c6.1,0,17.3-2.7,30.6-10.4c8.4-4.8,15.7-10.6,20.6-16.2c4.4-5,6.3-9.3,5-11.4
					C187.3,31.1,185.2,30.4,182,30.4z"/>
				<path class="st1" d="M164.3,63.1c19.4-11.2,31.8-26,27.7-33s-23.1-3.7-42.4,7.5c-19.4,11.2-31.8,26-27.7,33
					C125.9,77.7,144.9,74.3,164.3,63.1z M162.8,60.4c-18.1,10.4-34.6,12.9-37.4,8.2c-2.7-4.7,7.7-17.8,25.8-28.3s34.6-12.9,37.4-8.2
					C191.3,36.9,180.8,50,162.8,60.4z"/>
			</g>
		</g>
	</g>
	<g>
		<path class="st2" d="M102.4,91.2c2.3-0.7,4.3-1.7,5.8-3c1.6-1.3,2.9-2.8,3.9-4.5c1.1-1.7,1.9-3.7,2.4-6c0.6-2.3,1-4.7,1.2-7.1
			s0.3-5.1,0.3-8.1c0-8.3-1.6-14.7-4.7-19.2c-2.9-4-6.9-6-12.2-6c-0.5,0-1.1,0-1.7,0c-2.2,0.2-4.3,0.6-6.1,1.3
			c-1.8,0.7-3.2,1.6-4.1,2.6l0.9-17.6h24.5V10.3H75.5l-1,45.6h13.3c1-4.8,3.3-7.1,6.9-7.1c1,0,1.9,0.2,2.6,0.5
			c0.7,0.3,1.4,0.8,1.8,1.5c0.5,0.6,0.9,1.4,1.2,2.2c0.3,0.8,0.6,1.8,0.7,3c0.1,1.2,0.3,2.3,0.3,3.5c0.1,1.1,0.1,2.5,0.1,4
			c0,1.6,0,2.8,0,3.7c0,0.9,0,2-0.1,3.3c0,1.3-0.1,2.3-0.2,3s-0.3,1.5-0.4,2.4c-0.2,0.9-0.4,1.6-0.7,2.1c-0.3,0.5-0.7,1-1.1,1.5
			c-0.4,0.5-0.9,0.8-1.5,1c-0.6,0.2-1.3,0.3-2,0.3H95c-1.3,0-2.4-0.3-3.3-0.8c-0.9-0.6-1.6-1.4-2-2.7c-0.5-1.2-0.8-2.6-0.9-4.1
			c-0.2-1.5-0.2-3.4-0.2-5.7h-15c0,3.2,0.2,6,0.5,8.4c0.4,2.4,1,4.7,1.9,6.8c0.9,2.1,2.2,3.9,3.7,5.3c1.5,1.4,3.5,2.5,6,3.2
			c2.5,0.8,5.4,1.2,8.7,1.2C97.4,92.2,100,91.9,102.4,91.2 M61.8,90.9V71.9h8V60.1h-8V10.3H44.3L23.6,59.3v12.6h24.2v19.1H61.8z
			 M47.8,26.2v33.9H35.9L47.8,26.2z"/>
	</g>
</g>
</svg>
