<svg version="1" xmlns="http://www.w3.org/2000/svg" viewBox="0 0 50 50"><path fill="#FC9D9A" d="M36.957 26.413l-.062-.078.073-.037c.084-.64.115-1.287.115-1.957 0-2.134-.366-4.175-1.057-6.07v-.01a16.416 16.416 0 0 0-1.36-2.92s0-.01-.01-.01a16.423 16.423 0 0 0-1.623-2.345 6.207 6.207 0 0 0-.597-.7c-.2-.242-.42-.46-.638-.67a16.47 16.47 0 0 0-2.093-1.812 16.136 16.136 0 0 0-2.365-1.465 11.968 11.968 0 0 0-.837-.408 9.338 9.338 0 0 0-.743-.314 6.09 6.09 0 0 0-.69-.262 5.828 5.828 0 0 0-.692-.23c-.094-.03-.188-.063-.293-.084a9.752 9.752 0 0 0-.9-.24 13.85 13.85 0 0 0-.9-.19 15.895 15.895 0 0 0-1.246-.177 1.186 1.186 0 0 0-.21-.105l-.01-.01.02.038.022.066a6.487 6.487 0 0 0-.795-.073 14.863 14.863 0 0 0-2.105.009 7.91 7.91 0 0 0-.89.083l.022-.126s-.094.053-.272.147h-.02c-5.716.712-10.583 4.114-13.335 8.865-.01 0-.01.01-.01.01a17.853 17.853 0 0 0-2.407 9c0 .2.01.408.02.607-.01.125 0 .262.01.387.01.23.022.47.053.712.02.24.042.48.084.722 0 .074.01.147.03.22.022.19.053.366.085.544.042.24.094.48.146.722.052.25.115.492.178.733.178.69.408 1.37.68 2.03.23.576.492 1.15.785 1.706.294.555.62 1.1.964 1.612A17.862 17.862 0 0 0 7.16 37.84l3.978-1.443 7.923-2.89.42-.145 2.292-.838 7.526-2.732 1.455-.534 2.774-1.005 4.197-1.528c-.264-.102-.515-.207-.767-.312z"/><ellipse transform="rotate(-45 44.154 10.138)" fill="#FC9D9A" cx="44.155" cy="10.137" rx="2.561" ry="2.561"/><path fill="#E28D8A" d="M46.457 9.035a2.54 2.54 0 0 0-.49-.71c-1-1-2.622-1-3.622 0a2.55 2.55 0 0 0-.66 2.448l4.772-1.738zm-12.859 4.681c-2.906-3.988-7.41-6.73-12.56-7.282-.144-.08-.225-.113-.225-.113l.048.098a16.28 16.28 0 0 0-1.796-.097c-.68 0-1.336.045-1.99.12l.017-.12-.272.146h-.016c-5.713.706-10.59 4.108-13.35 8.874a17.842 17.842 0 0 0-2.408 9.002c0 .405.03.803.056 1.202L33.6 13.718z"/><path fill="#444" d="M49.946 37.245a1.243 1.243 0 0 0-.862-.836L46.04 35.4l-4.772-8.654a1.396 1.396 0 0 0-.945-.695 38.183 38.183 0 0 1-2.23-.533 18.78 18.78 0 0 0-.876-6.964l5.28-5.282c.055-.054.083-.12.122-.183.48.25 1.005.39 1.535.39.857 0 1.714-.325 2.366-.977.633-.632.98-1.472.98-2.366s-.347-1.734-.98-2.366c-1.263-1.263-3.467-1.263-4.73 0-1.057 1.057-1.243 2.643-.59 3.903-.062.04-.13.067-.183.12l-4.614 4.615a16.93 16.93 0 0 0-.694-1.358l-.46-.77a17.12 17.12 0 0 0-1.376-1.92 6.387 6.387 0 0 0-.63-.745 8.39 8.39 0 0 0-.695-.732 17.25 17.25 0 0 0-2.22-1.92 17.248 17.248 0 0 0-2.495-1.55 13.155 13.155 0 0 0-.883-.43 8.88 8.88 0 0 0-.76-.323 6 6 0 0 0-.73-.278 6.78 6.78 0 0 0-.76-.257 3.7 3.7 0 0 0-.353-.102 9.467 9.467 0 0 0-.92-.244 14.13 14.13 0 0 0-.962-.203c-.435-.078-.88-.145-1.253-.18a1.808 1.808 0 0 0-.27-.024 7.494 7.494 0 0 0-.813-.072 15.17 15.17 0 0 0-2.208.01 8.8 8.8 0 0 0-.94.085 2.57 2.57 0 0 0-.225.02l-.09.007c-5.66.708-10.774 4.005-13.8 8.866l-.462.774a18.975 18.975 0 0 0-2.37 10.354c.012.248.025.507.054.722.02.245.043.49.083.736.007.102.02.204.045.306.023.184.053.36.083.53.042.242.094.483.153.76.054.254.117.498.19.78.188.726.432 1.455.714 2.136a13.8 13.8 0 0 0 .833 1.814c.307.602.655 1.186 1.024 1.716a18.962 18.962 0 0 0 13.46 8.34l.08.01c.788.097 1.544.145 2.31.145.476 0 .93-.02 1.385-.054.2-.015.74-.232.844-.28.503-.233 4.993-2.473 7.675-9.408 0 0 0-.003.002-.004a22.8 22.8 0 0 0 1.007-3.356c.233.75.646 2.093 1.384 4.516.19.622.61 1.14 1.18 1.453l8.14 4.49 1 3.045a1.245 1.245 0 0 0 1.194.92c.31 0 .608-.12.83-.342l5.96-5.96c.305-.31.414-.763.284-1.185zM42.9 8.88c.335-.335.78-.52 1.255-.52.475 0 .92.185 1.256.52.337.337.52.782.52 1.257 0 .474-.183.92-.52 1.256A1.777 1.777 0 0 1 42.9 8.88zm-6.98 15.986h.1v.033c-.034-.01-.067-.022-.1-.033zm.092-1.046h-2.7c-.31-.15-.604-.31-.886-.476l3.1-3.1c.29 1.158.45 2.354.486 3.575zm-8.326 8.755h-4.49l5.42-5.42c.084.14.164.3.245.453-.004.02-.017.037-.02.058a22.438 22.438 0 0 1-1.155 4.91zm-10.5 6.305c0 .475-.184.92-.52 1.256-.67.67-1.84.67-2.51 0a1.764 1.764 0 0 1-.52-1.252v-.007a1.775 1.775 0 0 1 1.776-1.772 1.77 1.77 0 0 1 1.775 1.775zm1.087 1.713v.688c-.163-.007-.33-.024-.494-.037a3.39 3.39 0 0 0 .495-.65zm-1.205-4.85c-.054.054-.08.12-.12.182-1.262-.653-2.848-.467-3.904.588-.193.193-.35.41-.487.637a18.56 18.56 0 0 1-1.704-3.005h7.418v.392l-1.204 1.206zm1.205-19.626v7.44h-9.39c.063-2.713.492-5.21 1.283-7.44h8.107zm9.46 0c.705 1.985 1.12 4.19 1.25 6.614l-.826.826h-8.315v-7.44h7.89zm-9.46 9.01v7.448h-8.047c-.8-2.235-1.243-4.718-1.332-7.448h9.38zm1.57 7.448v-7.448h7.464c.016.1.038.2.082.293l-7.155 7.155h-.392zm10.85-10.458a1.267 1.267 0 0 0-.166-.06 24.82 24.82 0 0 0-1.144-5.94H33.9l.146.26h.004c.276.51.523 1.06.752 1.633l-4.107 4.107zm-4.62-13.232c.26.115.518.24.79.386.777.394 1.52.855 2.22 1.377.737.54 1.378 1.094 1.99 1.724.19.182.382.372.62.654a5.3 5.3 0 0 1 .53.63c.24.288.462.59.68.894H28.83c-1.127-2.76-2.615-4.767-3.99-6.165.164.054.332.116.55.213.224.083.446.175.686.29zm-5.38-1.43l.238.02c.14.013.276.04.415.058 1.32.862 3.974 2.983 5.782 7.014h-7.286V7.39c.06.002.12 0 .18.005.23.008.45.025.67.06zm-2.646-.053c.075-.006.15-.005.224-.01v7.155h-7.497c1.777-3.947 4.336-6.062 5.724-6.98.125-.018.247-.042.372-.058l.086-.01c.038-.004.076-.01.112-.01l.148-.012c.257-.036.513-.064.83-.076zm-5.084 1.106c-1.346 1.395-2.792 3.366-3.89 6.04H5.217a17.122 17.122 0 0 1 7.748-6.04zm-8.79 7.68l.04-.07H8.52c-.73 2.24-1.136 4.715-1.2 7.44h-5.2a16.853 16.853 0 0 1 2.056-7.37zM2.49 27.99c-.046-.21-.092-.422-.13-.64a6.776 6.776 0 0 1-.074-.477l-.04-.284c-.037-.212-.054-.424-.077-.678-.027-.2-.035-.4-.047-.642-.003-.048-.002-.095-.004-.143h5.203c.08 2.67.5 5.164 1.254 7.448H4.232c-.065-.118-.133-.23-.195-.354a12.066 12.066 0 0 1-.735-1.602 14.66 14.66 0 0 1-.646-1.933c-.055-.21-.11-.422-.167-.694zm2.754 6.155h3.902c.772 1.848 1.756 3.516 2.942 4.962.017.26.065.51.14.752a16.906 16.906 0 0 1-6.984-5.715zm15.728 7.33c-.403 0-.98-.008-1.128 0v-5.547l1.783-1.783h5.438c-2.127 4.774-5.057 6.75-6.093 7.33zm12.576-7.032a.386.386 0 0 1-.188-.23c-1.62-5.317-1.695-5.506-1.727-5.587a19.435 19.435 0 0 0-.997-2.154l4.51 4.51a2.37 2.37 0 0 0-.243 1.034c0 .64.248 1.238.7 1.69a2.38 2.38 0 0 0 1.688.697c.612 0 1.223-.233 1.69-.698a2.39 2.39 0 0 0 0-3.376 2.385 2.385 0 0 0-2.72-.454l-4.51-4.51c2.714 1.478 6.263 2.343 7.84 2.676l4.185 7.59-2.87 2.87-7.357-4.06zm3.743-3.245a.818.818 0 0 1 .58 1.396.837.837 0 0 1-1.157 0 .815.815 0 0 1 0-1.157c.16-.16.368-.24.578-.24zm5.957 10.685l-.41-1.247 3.073-3.073 1.245.412-3.908 3.908z"/></svg>