<?xml version="1.0" encoding="utf-8"?>
<!-- Generator: Adobe Illustrator 18.1.1, SVG Export Plug-In . SVG Version: 6.00 Build 0)  -->
<svg version="1.1" id="Layer_1" xmlns="http://www.w3.org/2000/svg" xmlns:xlink="http://www.w3.org/1999/xlink" x="0px" y="0px"
	 viewBox="0 0 193.4 41.8" enable-background="new 0 0 193.4 41.8" xml:space="preserve">
<g>
	<path d="M4.2,28.5c-0.9,0.3-2-0.3-2.4-1.2c-0.1-0.4,0-1.4,0-1.5c0.4-1.3,0.5-1.4,1.4-2.4c0.6-0.7,1.6-1.3,2.4-1.8
		c1.4-0.8,2.8-1.3,4.3-1.8c1.6-0.5,5.5-0.7,6.5-0.5c1.2,0.3,2.4,0.4,3.6,0.7c1.5,0.3,3,0.8,4.5,1.2c1.7,0.6,3.4,1,5.1,1.5
		c0.4,0.1,4.3,1.2,6,1.3c1.1,0.1,2.5,0.2,3.5,0.1c0.6-0.1,1.5-0.3,2.1-0.7c1.2-0.6,1.3-1.6,1.4-2.1c0-0.3,0-1.1-0.3-1.2
		c-0.2-0.1-0.3-0.2-0.5-0.2c-0.8-0.2-1.5,0.3-1.5,1c0,0.1,0,0.4-0.3,0.3c-0.2,0-0.3-0.1-0.3-0.4c0-0.5,0.4-1.2,0.9-1.4
		c0.2-0.1,0.3-0.1,0.5-0.2c1-0.3,1.8,0,2.4,0.9c0.3,0.4,0.2,1.2,0.1,1.7c-0.1,0.7-0.4,1.6-0.9,2.1c-0.6,0.6-1.8,1.5-2.7,2
		c-1.4,0.7-2.9,0.8-4.3,0.7c-0.6,0-1.1,0-1.7-0.1c-1.4-0.2-4.3-0.9-4.4-0.9c-1.8-0.3-3.4-1-5.1-1.5c-1.5-0.4-2.9-1-4.4-1.4
		c-1.3-0.4-2.7-0.7-4.1-1c-0.4-0.1-4-0.2-5.3,0c-0.9,0.2-3.5,1-3.9,1.2c-0.9,0.4-1.8,0.8-2.6,1.3c-0.8,0.5-1.4,1.2-1.5,2.2
		c-0.1,0.7,0.5,1.5,1.2,1.5c0.3,0,0.5-0.1,0.6-0.3c0.2-0.3,0.3-0.9,0.6-0.9c0.2,0,0.4,0.4,0.3,0.7C5.2,28,4.8,28.3,4.2,28.5z"/>
	<path d="M93.5,5.7c-0.3,2.5-1.8,6.6-3,9c-0.9,1.6-1.3,3.1-1.9,4.7c-0.2,0.6-0.8,1.2-1.2,1.6c-0.8,1.1-1.2,2.3-1.8,3.3
		c-0.5,0.8-1.2,1.8-1.8,2.4c-0.2,1.2-0.7,2.3-1.2,3.4c-1,2.2-2.3,4.8-3.5,6.8c-0.2,0.4-1,0.6-1.5,0.6c-1.8,0-2.1-1.6-2.4-2.7
		c-1-2.8-1.8-5.5-3-8.3c-0.2-0.6-0.2-4-0.9-4c-0.3,0-0.6,0.3-0.8,0.5c-0.9,1.2-1.6,3.2-2.6,4.6c-1,1.5-1.4,3-2.3,4.6
		c-0.5,0.9-1.2,1.8-2.1,2.6c-1,1-1.8,3.3-3.6,3.3c-2.5,0-2.4-2.9-2.6-4.4c-0.1-2-0.8-4.7-0.5-6.7c0.1-0.4,0.4-0.9,0.5-1.4
		c-0.1-1-0.2-1.8-0.1-2.7c0.2-1.6-0.6-3.5-0.7-5.2c-0.3-2.3-1-4.6-1-6.8c0-1,0.1-2,0.5-2.9c-0.2-1.4-0.2-3.1,0.3-3.9
		c0.4-0.4,1.1-0.4,1.5-0.5c1.2,0,2.8,0.6,2.4,1.9c-0.4,0.9-0.7,1.7-0.9,2.6l-0.3,2.8c0,0.1,0.5,1.4,0.5,1.6c0.1,1.1,0.2,2.1,0.5,3
		c0.4,1.6,0.7,8.6,0.4,10.1c-0.1,0.3-0.2,2.3-0.6,3.5c0.5,1,0.6,2.4,1.4,2.4c1.4,0,2.2-2.8,2.6-3.5c1.3-2,2.1-4,3-6.1
		c1-2.3,2.7-5.7,3.7-6.8c0.4-1.2,0.4-2.1,0.9-3c0.9-2.1,1.6-4.2,2.3-6.3c0.2-0.7,1.1-2.4,1.7-3c0.3-0.2,1-0.4,1.5-0.4
		c1.8,0,2.1,1.1,1.9,2.4c-0.2,1-1.5,2.7-2.1,3.7c-0.4,1.2-0.7,2.2-1.1,3.2c-0.6,1.4-1,2.8-1.2,4.2c-0.2,1.8,0.8,2.9,1,4.4
		c0.2,0.5,0,1.3-0.3,1.9c0.4,1.2,0.4,2.7,0.5,3.9c0.1,0.6,1.7,3.9,2.3,3.9c0.5,0,1.1-0.7,1.2-1c1.2-2.7,2.4-5.2,4.3-7.6
		c0.6-0.7,1-1.8,1.8-2.4c0.3-1.5,0.9-3,1.4-4.3c0.5-1.3,1.5-2.6,1.9-3.9c0.4-1,0.5-2.2,1-3c0.1-1,0.2-1.8,0.2-2.7
		C90,4.8,90.2,4.4,90.4,4c0.1-0.5-0.1-1.2-0.1-1.8c0.1-0.7,1.5-0.8,2.3-0.8c1.3,0,1.8,0.7,1.8,1.9C94.3,4.2,93.5,5.1,93.5,5.7z"/>
	<path d="M114.4,27.5c-2.4,2.3-5.2,7.2-6.6,7.9c-1.1,1.7-2.6,2.7-4.2,3.3c-0.7,0.2-1.2,0.7-1.8,0.9c-0.7,0.2-2.4,0.5-3.1,0.5
		c-2.4,0.1-3.2-2.3-3.4-4c-0.1-0.5-0.5-1.3-0.5-1.8c0-0.5,0.1-0.9,0.2-1.3c-0.1-1.1-0.2-2.2-0.1-3.2c0.2-1.7,0.5-3.8,1.2-5.3
		c0-1.2,1.6-5.5,3-8.1c0.2-0.5,0.9-1,1.3-1.5c0.7-0.9,2.2-2,3.5-2c2.6,0,3.9,2.9,3.5,5.4c-0.5,2.9-1.8,4.6-2.9,6.6
		c-0.1,0.3-0.9,1-1.3,1.2c-0.6,1-1.6,1.7-3.3,2.4c-0.2,0.1-0.5,0.3-0.7,0.5c-0.3,0.3-0.7,1.6-0.8,2c-0.1,0.9,0.5,6,2.1,6
		c1.1,0,3.2-0.9,4-1.7c1.3-1.3,2.8-3.5,4.5-4.7c0.9-1.8,3-4.1,3.3-4.5c0.4-0.5,0.3-1.2,0.7-1.6c0.5-0.7,1.4-1.3,2.3-1.3
		c0.7,0,1.3,0.5,1.3,1.2C116.5,25.3,115.6,26.2,114.4,27.5z M102.4,17c-0.3,0-0.7,0.2-0.9,0.5c-0.9,1.6-2.1,6.1-2.6,7.8
		c-0.1,0.4,0.1,1,0.6,1c0.9,0,2.9-3,3.3-3.6c0.2-1.1,0.7-2.7,1-4.1C104,17.8,103.8,17,102.4,17z"/>
	<path d="M151.5,24.9c-0.3,0.4-0.3,0.8-0.5,1.2c-0.6,1-6.8,8.2-8,8.5c-0.4,1.2-3.7,3.3-4.6,3.4c-0.2,0.1-1.2,0.3-1.3,0.4
		c-1.3-0.1-2-2.3-2.3-3.3c-0.1-0.4-0.3-1.6-0.2-2.4c0.1-0.4,0.1-1.3,0.5-2.1c-0.4-1-0.5-1.8-0.4-2.8l0.2-1.8c0.2-1.8-0.1-4-0.3-5.7
		c-0.1-0.3-0.5-0.4-0.8-0.4c-0.5,0-1.1,0.5-1.5,0.9c-3,2.3-3.8,4.6-5,6c0.1,1.2-0.4,2.2-1,3.5c-1.2,2.6-2.1,5.2-3,7.8
		c-0.2,0.6-1.1,1.2-1.8,1.2c-1,0-1.5-0.6-1.4-1.5c0-0.2,0.2-0.6,0.3-0.9c0.3-1.9,0.5-4.8,1.2-5.9c-0.5-1-0.3-1.9-0.2-2.8l0.3-1.9
		c0.2-1,0.2-3.2,0.2-4.4c-0.1-0.6-0.5-1.6-1.4-1.6c-1.5,0-3.6,5.3-4.7,5.3c-0.7,0-1.6-0.7-1.6-1.3c0.2-0.9,1.9-4.6,3.3-5.4
		c0.2-1,1.8-2.4,2.9-2.4c0.4,0,1.1,0.2,1.4,0.3c3.2,1.3,2.2,4.4,3.6,6c0,0.1,0.2,0.2,0.4,0.2c0.9,0,4.2-5.4,8.6-5.5
		c0.2,0,0.4,0.1,0.6,0.1c3.3,0.7,2.7,1.1,3.5,3.3c0.2,0.5,0.5,1,0.4,1.6c-0.1,1.2-0.5,2.4-0.7,3.7c-0.1,0.5,0.2,7.2,0.4,7.8
		c0,0.2,0.2,0.4,0.5,0.4c1.3,0,5.5-5,6.5-5.4c0.3-1.3,3.2-5,3.3-5.4c0.4-0.8,0.6-1.5,1.4-1.8c0.4-0.2,0.9-0.2,1.3-0.3
		c0.8,0,1.5,0.4,1.5,1.2C152.6,23.2,151.7,24.4,151.5,24.9z"/>
	<path d="M174.4,26.7c-0.8,1-5.1,6.9-6.1,7.9c-0.2,0.9-1,1.6-1.4,2.3c-0.4,0.8-0.4,1.6-1.2,2.3c-0.8,0.5-3.2,1-4.1,1
		c-2.6,0-2.9-2.6-2.8-4.3c0-0.5,0.2-1.6,0.4-2.1c-0.4-1-0.3-4.1-1.3-4.1c-0.4,0-0.7,0.3-0.9,0.5c-1.8,2.3-3,4.8-5.2,6.9
		c-0.5,0.4-1.6,0.7-2.2,0.7c-2.3,0-3.5-2.8-3.5-4.6c0-1.5,1-4.4,1.9-5.7c0.1-0.9,0.2-1.6,0.5-2.3c0.5-0.7,0.9-1.6,1.5-2.3
		c0.2-0.9,0.7-1.6,1-2.4c1.2-1.9,4.2-5.4,6.9-5.5c0.2-0.1,0.7,0,1,0c2.1,0,2.4-2.3,3-3.6c0.4-1,1.2-1.9,1.8-2.7
		c0.2-1.8,2.4-6.9,5.2-6.9c0.7,0,1.3,0.4,1.2,1c-0.1,0.7-1.8,4.3-2.3,5.2c-0.2,0.6-0.1,1.3-0.4,1.8c-0.6,1.4-4.1,7.9-4.3,8.6
		l-0.7,5.4c0.1,0.5-0.3,1.2-0.2,1.5c-0.2,1.3,0.2,2.6,0.2,3.9c0.1,1.5,0,3,0.1,4.5c0,0.6-0.1,1.3-0.1,1.9c0.1,0.2,0.4,0.7,0.7,0.7
		c0.9,0,1.8-1.3,2.2-1.7c0.4-0.4,2.4-3,2.7-3.3c1.2-1.9,3.8-5.8,5.7-7.9c0.5-0.4,1.6-0.7,2.2-0.7c0.7,0,1,0.3,1,0.9
		C176.5,24.5,175.2,25.6,174.4,26.7z M157.5,18c-0.9,0-1.5,1-1.9,1.5c-3.5,3.7-5.1,7.5-5.7,12.1c0,0.3-0.1,1.5,0.7,1.5
		c0.8,0,3.8-4.9,4.3-5.6c0.6-0.9,1.4-1.8,1.9-2.6c0.5-1.9,1.3-3.5,1.6-5.3C158.5,19.1,158.4,18,157.5,18z"/>
	<path d="M191.8,23.8c-0.9,1.9-2.7,4.6-4.1,5.7c-0.1,1.3-6.1,7.6-7.7,8.3c-0.8,0.3-2.2,1-3.1,1c-1.1,0-2.5-0.5-2.7-1.3
		c-0.7-1.5-0.8-4.1-0.4-5.8c-0.4-2.4-0.6-4.2-0.6-6.6c0-1.4,0.1-3.1,0.2-4.6c0.2-1.4,0.8-2.9,1.6-4.4c0.5-1,2-2.1,3.5-2.1
		c0.8,0,1.5,0.4,1.3,1.2c-0.1,0.8-1,1.3-1.2,2.1c-0.6,1.3-0.9,4.2-1.3,5.2c0.1,0.8,0.2,1.6,0.1,2.3c-0.1,0.4-0.3,1-0.4,1.5
		c-0.1,0.8,0.5,1.7,0.4,2.5l-0.3,1.9c-0.1,0.5,0.2,3.2,0.4,3.7c0.1,0.2,0.5,0.9,0.9,0.9c1.1,0,3.1-2.1,4.6-3.3
		c0.7-1.4,4.1-5.8,5-7.5c1.3-2.4,2.1-2.9,3.6-2.9c0.6,0,0.9,0.2,0.9,0.7C192.4,22.7,192.1,23.3,191.8,23.8z M182.2,8.5
		c-1.2,0-2.4-1-2.3-2c0.1-0.9,1.5-1.7,2.5-1.7c1,0,2.1,0.8,1.8,1.6C184.1,7.4,183.5,8.5,182.2,8.5z"/>
</g>
</svg>
