<?xml version="1.0" encoding="utf-8"?>
<!-- Generator: Adobe Illustrator 19.2.0, SVG Export Plug-In . SVG Version: 6.00 Build 0)  -->
<svg version="1.1" id="Layer_1" xmlns="http://www.w3.org/2000/svg" xmlns:xlink="http://www.w3.org/1999/xlink" x="0px" y="0px"
	 viewBox="0 0 297 224" style="enable-background:new 0 0 297 224;" xml:space="preserve">
<style type="text/css">
	.st0{fill:#F27070;}
	.st1{fill:#8E887D;stroke:#7A7A7A;stroke-miterlimit:10;}
	.st2{fill:#6AC6C4;}
	.st3{opacity:0.32;fill:url(#XMLID_2_);enable-background:new    ;}
	.st4{fill:#EAEAE5;}
	.st5{fill:#F5B65A;}
	.st6{fill:#ADADAD;stroke:#ADADAD;stroke-miterlimit:10;}
</style>
<g id="XMLID_84_">
	<g id="XMLID_109_">
		<path id="XMLID_122_" class="st0" d="M41.1,206.3c0,6.9-4.7,10.3-14.3,10.3H9.5v-36h19.4c2.8,0,5.2,0.8,7.2,2.3
			c2.1,1.7,3.2,3.9,3.3,6.7c0.1,1.8-0.5,3.4-1.6,4.9c-1.1,1.4-2.4,2.4-4.1,3.1C38.7,198.9,41.1,201.8,41.1,206.3z M26.9,191.5
			c0-0.7-0.3-1.3-0.8-1.7c-0.5-0.5-1.1-0.7-1.9-0.7h-2.3v4.9h2.5c0.7,0,1.3-0.2,1.8-0.7C26.6,192.8,26.9,192.2,26.9,191.5z
			 M28.3,205.1c-0.1-1.8-1.2-2.7-3.4-2.7h-3v5.7h3.2c0.9,0,1.6-0.3,2.2-0.9C28,206.6,28.3,205.9,28.3,205.1z"/>
		<path id="XMLID_120_" class="st0" d="M59.7,216.6h-13v-36h13V216.6z"/>
		<path id="XMLID_117_" class="st0" d="M99.1,216.6H84.7l-6.5-12.1v12.1H65.7v-36h18.6c3.8,0,6.9,0.8,9.2,2.3
			c2.8,1.8,4.2,4.7,4.3,8.7c0.1,2.6-0.6,4.8-1.9,6.6c-0.9,1.2-2.2,2.2-3.8,2.9c-1.3,0.6-1.9,0.8-2,0.7L99.1,216.6z M84.5,193.2
			c-0.1-1.9-1.3-2.9-3.5-2.9h-2.8v6.2h3c1,0,1.8-0.3,2.4-0.9C84.2,195,84.5,194.2,84.5,193.2z"/>
		<path id="XMLID_114_" class="st0" d="M139,197.1c0.1,5.7-1.5,10.3-4.7,14s-7.4,5.5-12.4,5.5h-17.2v-36H122c5.2,0,9.3,1.5,12.4,4.6
			C137.3,188.2,138.9,192.2,139,197.1z M125.8,198c0-2.1-0.7-3.8-2.1-5c-1.2-1.1-2.8-1.6-4.7-1.6c-0.5,0-1,0-1.5,0.1v14
			c0.5,0.1,1,0.1,1.5,0.1c2,0,3.6-0.6,4.8-1.8C125.2,202.5,125.8,200.6,125.8,198z"/>
		<path id="XMLID_112_" class="st0" d="M157.4,216.6h-13v-36h13V216.6z"/>
		<path id="XMLID_110_" class="st0" d="M188.9,216.6h-24.5v-36h24.2v9.3h-11.2v3.9h10v9.4h-10v4H189v9.4L188.9,216.6L188.9,216.6z"
			/>
	</g>
	<g id="XMLID_94_">
		<path id="XMLID_107_" class="st1" d="M15.2,129.3v42.2H9.5v-42.2H15.2z"/>
		<path id="XMLID_104_" class="st1" d="M26.6,137.1c0-1,0.4-1.8,1.1-2.5s1.6-1.1,2.6-1.1s1.9,0.4,2.6,1.1c0.7,0.7,1.1,1.6,1.1,2.6
			s-0.4,1.9-1.1,2.6c-0.7,0.7-1.6,1.1-2.6,1.1s-1.9-0.4-2.6-1.1C26.9,139,26.6,138.1,26.6,137.1z M33,147.2v24.3h-5.6v-24.3H33z"/>
		<path id="XMLID_102_" class="st1" d="M51.1,152.4v19.1h-5.6v-19.1h-2.4v-5.2h2.4v-8.9h5.6v8.9h4.4v5.2H51.1z"/>
		<path id="XMLID_100_" class="st1" d="M70.2,152.4v19.1h-5.6v-19.1h-2.4v-5.2h2.4v-8.9h5.6v8.9h4.4v5.2H70.2z"/>
		<path id="XMLID_98_" class="st1" d="M89.1,129.3v42.2h-5.6v-42.2H89.1z"/>
		<path id="XMLID_95_" class="st1" d="M121.5,160.7h-17.4c0.1,2,0.8,3.6,1.9,4.8s2.6,1.7,4.4,1.7c1.4,0,2.6-0.3,3.5-1
			s1.9-1.9,3.1-3.7l4.7,2.6c-0.7,1.2-1.5,2.3-2.3,3.2s-1.7,1.6-2.6,2.2s-1.9,1-3,1.3s-2.3,0.4-3.5,0.4c-3.6,0-6.5-1.2-8.7-3.5
			s-3.3-5.5-3.3-9.3s1.1-7,3.2-9.3s5-3.5,8.5-3.5c3.6,0,6.4,1.1,8.5,3.4c2.1,2.3,3.1,5.4,3.1,9.4L121.5,160.7z M115.8,156.1
			c-0.8-3-2.7-4.5-5.7-4.5c-0.7,0-1.3,0.1-1.9,0.3s-1.1,0.5-1.6,0.9s-0.9,0.9-1.3,1.4c-0.3,0.5-0.6,1.2-0.8,1.9L115.8,156.1
			L115.8,156.1z"/>
	</g>
	<g>
		<g id="XMLID_89_">
			<g id="XMLID_91_">
				<path id="XMLID_93_" class="st2" d="M146.9,168.8l9.3-49.7c0.2-0.9,1.3-1.3,2-0.7l38.4,32.9c0.7,0.6,0.5,1.7-0.4,2l-47.7,16.8
					C147.6,170.4,146.7,169.7,146.9,168.8z"/>
				
					<ellipse id="XMLID_92_" transform="matrix(0.286 -0.9582 0.9582 0.286 68.1062 262.3116)" class="st2" cx="210.1" cy="85.5" rx="80.3" ry="80.3"/>
			</g>
			
				<linearGradient id="XMLID_2_" gradientUnits="userSpaceOnUse" x1="-2903.4565" y1="3277.7256" x2="-2750.1565" y2="3277.7256" gradientTransform="matrix(-1 0 0 1 -2613.2566 -3199.2756)">
				<stop  offset="0" style="stop-color:#FFFFFF"/>
				<stop  offset="1" style="stop-color:#FFFFFF;stop-opacity:0"/>
			</linearGradient>
			<path id="XMLID_90_" class="st3" d="M183.2,42.9c43.8,0,79.2,35.5,79.2,79.2c0,9.9-1.8,19.4-5.2,28.1c20-14.4,33-37.8,33-64.3
				c0-43.8-35.5-79.2-79.2-79.2c-33.8,0-62.7,21.2-74.1,51.1C149.9,48.4,165.9,42.9,183.2,42.9z"/>
		</g>
		<g>
			<g id="XMLID_87_">
				<path id="XMLID_88_" class="st4" d="M234.7,45.7c0,0-2.4,13.8-19.4,40.7s-46,54.6-46,54.6c18.8,22.4,52.1,27.6,77.6,11.7
					c27.9-17.4,36.5-54.2,19.1-82.1C258.5,58.4,247.3,49.9,234.7,45.7z"/>
			</g>
			<g id="XMLID_85_">
				<path id="XMLID_86_" class="st5" d="M260.6,67c0,0,20.4,0.2,20.4,0.3l-8.1,18.5c-0.9,1.8-3.3,1.9-4.4,0.2l-9.9-15
					C257.5,69.3,258.6,67.2,260.6,67z"/>
			</g>
		</g>
	</g>
</g>
<path id="XMLID_83_" class="st0" d="M243.7,87.6c-21.4-16.1-42.3,17.8-56.8,27.9c-5,3.5-9.6,6.3-12.7,7.5c-3.1,1.2-0.8,2.8,9.2,8.5
	c16.2,9.3,38.8,10.3,55.1-2C251.5,119.8,257.4,97.9,243.7,87.6z"/>
<g>
	<path class="st6" d="M9.4,118.2c1,0.7,2.8,1.4,4.5,1.4c2.5,0,3.7-1.2,3.7-2.8c0-1.6-1-2.5-3.5-3.5c-3.4-1.2-5-3.1-5-5.3
		c0-3,2.5-5.5,6.5-5.5c1.9,0,3.6,0.5,4.6,1.2l-0.9,2.5c-0.7-0.5-2.1-1.1-3.9-1.1c-2,0-3.2,1.2-3.2,2.6c0,1.6,1.1,2.3,3.6,3.2
		c3.3,1.2,5,2.9,5,5.7c0,3.3-2.6,5.7-7.1,5.7c-2.1,0-4-0.5-5.3-1.3L9.4,118.2z"/>
	<path class="st6" d="M28.8,112.9c0.1,4.6,3,6.6,6.5,6.6c2.5,0,3.9-0.4,5.2-1l0.6,2.5c-1.2,0.5-3.3,1.2-6.3,1.2
		c-5.8,0-9.3-3.9-9.3-9.6s3.4-10.2,8.9-10.2c6.2,0,7.8,5.4,7.8,8.9c0,0.7-0.1,1.2-0.1,1.6H28.8z M38.9,110.4c0-2.2-0.9-5.6-4.8-5.6
		c-3.5,0-5,3.2-5.3,5.6H38.9z"/>
	<path class="st6" d="M48.1,107.9c0-2,0-3.5-0.2-5.1h3l0.2,3.1h0.1c0.9-1.8,3.1-3.5,6.2-3.5c2.6,0,6.7,1.6,6.7,8v11.3h-3.4v-10.9
		c0-3-1.1-5.6-4.4-5.6c-2.3,0-4,1.6-4.6,3.5c-0.2,0.4-0.2,1-0.2,1.6v11.3h-3.4C48.1,121.6,48.1,107.9,48.1,107.9z"/>
	<path class="st6" d="M87.7,94v22.8c0,1.7,0,3.6,0.2,4.9h-3.1l-0.2-3.3h-0.1c-1.1,2.1-3.4,3.7-6.4,3.7c-4.6,0-8.1-3.9-8.1-9.6
		c0-6.3,3.9-10.1,8.5-10.1c2.9,0,4.8,1.4,5.7,2.9h0.1V94H87.7z M84.3,110.5c0-0.4,0-1-0.2-1.4c-0.5-2.2-2.4-4-5-4
		c-3.5,0-5.7,3.1-5.7,7.3c0,3.8,1.9,7,5.6,7c2.3,0,4.4-1.5,5-4.1c0.1-0.5,0.2-0.9,0.2-1.5L84.3,110.5L84.3,110.5z"/>
	<path class="st6" d="M118.2,117.2c0,1.6,0.1,3.2,0.3,4.5h-3.1l-0.3-2.4H115c-1.1,1.5-3.1,2.8-5.8,2.8c-3.8,0-5.8-2.7-5.8-5.4
		c0-4.6,4.1-7.1,11.3-7v-0.4c0-1.6-0.4-4.4-4.3-4.4c-1.8,0-3.6,0.5-4.9,1.4l-0.8-2.3c1.6-1,3.8-1.7,6.2-1.7c5.8,0,7.2,3.9,7.2,7.7
		v7.2C118.1,117.2,118.2,117.2,118.2,117.2z M114.9,112.1c-3.7-0.1-8,0.6-8,4.3c0,2.2,1.5,3.3,3.2,3.3c2.5,0,4-1.6,4.6-3.2
		c0.1-0.4,0.2-0.7,0.2-1.1C114.9,115.4,114.9,112.1,114.9,112.1z"/>
</g>
</svg>
