<?xml version="1.0" encoding="UTF-8"?>
<!DOCTYPE svg PUBLIC "-//W3C//DTD SVG 1.1//EN" "http://www.w3.org/Graphics/SVG/1.1/DTD/svg11.dtd">
<!-- Creator: CorelDRAW X5 -->
<svg xmlns="http://www.w3.org/2000/svg" xml:space="preserve" width="66.1458mm" height="66.1458mm" style="shape-rendering:geometricPrecision; text-rendering:geometricPrecision; image-rendering:optimizeQuality; fill-rule:evenodd; clip-rule:evenodd"
viewBox="0 0 6615 6615"
 xmlns:xlink="http://www.w3.org/1999/xlink">
 <defs>
  <style type="text/css">
   <![CDATA[
    .str1 {stroke:black;stroke-width:52.92}
    .str3 {stroke:black;stroke-width:52.92;stroke-linecap:round}
    .str0 {stroke:black;stroke-width:79.37}
    .str2 {stroke:black;stroke-width:79.37;stroke-linecap:round}
    .fil3 {fill:none;fill-rule:nonzero}
    .fil2 {fill:#9D9E9E;fill-rule:nonzero}
    .fil0 {fill:url(#id0)}
    .fil1 {fill:url(#id1);fill-rule:nonzero}
   ]]>
  </style>
  <linearGradient id="id0" gradientUnits="userSpaceOnUse" x1="2983.53" y1="3388.02" x2="3630.66" y2="3388.02">
   <stop offset="0" style="stop-color:#6B9E31"/>
   <stop offset="1" style="stop-color:#009846"/>
  </linearGradient>
  <linearGradient id="id1" gradientUnits="userSpaceOnUse" xlink:href="#id0" x1="2987.78" y1="3204.63" x2="3631.05" y2="3204.63">
  </linearGradient>
 </defs>
<symbol id="LED-COB" viewBox="2984 3068 648 478">
 <path class="fil0" d="M2984 3388c0,-13 11,-24 24,-24 13,0 24,11 24,24 0,13 -11,24 -24,24 -13,0 -24,-11 -24,-24zm600 0c0,-13 11,-24 24,-24 13,0 24,11 24,24 0,13 -11,24 -24,24 -13,0 -24,-11 -24,-24zm-75 0c0,-13 11,-24 24,-24 13,0 24,11 24,24 0,13 -11,24 -24,24 -13,0 -24,-11 -24,-24zm-75 0c0,-13 11,-24 24,-24 13,0 24,11 24,24 0,13 -11,24 -24,24 -13,0 -24,-11 -24,-24zm-75 0c0,-13 11,-24 24,-24 13,0 24,11 24,24 0,13 -11,24 -24,24 -13,0 -24,-11 -24,-24zm-75 0c0,-13 11,-24 24,-24 13,0 24,11 24,24 0,13 -11,24 -24,24 -13,0 -24,-11 -24,-24zm-75 0c0,-13 11,-24 24,-24 13,0 24,11 24,24 0,13 -11,24 -24,24 -13,0 -24,-11 -24,-24zm-75 0c0,-13 11,-24 24,-24 13,0 24,11 24,24 0,13 -11,24 -24,24 -13,0 -24,-11 -24,-24zm-75 0c0,-13 11,-24 24,-24 13,0 24,11 24,24 0,13 -11,24 -24,24 -13,0 -24,-11 -24,-24z"/>
 <path class="fil1" d="M2988 3341l0 -272 66 0 0 216 109 0 0 57 -175 0zm203 0l0 -272 159 0 0 54 -93 0 0 54 76 0 0 55 -76 0 0 55 105 0 0 54 -171 0zm441 -136c0,21 -4,40 -12,57 -8,17 -18,31 -32,43 -13,12 -29,21 -47,27 -18,6 -36,9 -56,9l-92 0 0 -272 92 0c20,0 38,3 56,9 18,6 33,15 47,27 13,12 24,26 32,43 8,17 12,36 12,57zm-66 0c0,-13 -2,-25 -7,-35 -5,-10 -11,-18 -19,-25 -8,-7 -17,-12 -28,-15 -11,-3 -22,-5 -34,-5l-20 0 0 159 20 0c12,0 23,-2 34,-5 11,-3 20,-8 28,-15 8,-7 14,-15 19,-25 5,-10 7,-21 7,-35z"/>
 <path class="fil2" d="M3179 3530c0,1 0,2 0,2 0,1 0,1 -1,2 0,1 -1,1 -1,1 -1,0 -1,1 -3,1 -1,1 -4,1 -8,3 -4,1 -9,2 -15,3 -6,1 -13,2 -20,3 -8,1 -16,1 -25,1 -16,0 -30,-1 -42,-3 -13,-2 -23,-6 -32,-10 -9,-5 -16,-10 -20,-17 -5,-7 -7,-14 -7,-23 0,-9 3,-17 8,-24 5,-7 12,-13 22,-18 9,-5 20,-8 33,-11 13,-3 27,-4 43,-4 7,0 14,0 20,1 7,1 13,1 18,2 6,1 10,2 15,3 4,1 7,2 9,3 2,1 3,1 3,2 1,0 1,1 1,1 0,1 1,1 1,2 0,1 0,2 0,3 0,1 0,2 0,3 0,1 -1,1 -1,2 0,1 -1,1 -2,1 -1,0 -2,0 -2,0 -2,0 -4,-1 -7,-2 -3,-1 -7,-2 -12,-4 -5,-1 -11,-2 -18,-4 -7,-1 -15,-2 -25,-2 -11,0 -20,1 -29,3 -9,2 -16,5 -22,8 -6,4 -11,8 -14,13 -3,5 -5,11 -5,18 0,7 2,13 5,18 3,5 8,10 14,13 6,3 14,6 23,8 9,2 19,3 30,3 9,0 18,-1 25,-2 7,-1 13,-2 18,-4 5,-1 9,-2 12,-3 3,-1 6,-2 8,-2 1,0 2,0 2,0 1,0 1,0 2,1 0,0 1,1 1,2 0,1 0,2 0,3z"/>
 <path id="1" class="fil2" d="M3419 3490c0,9 -2,16 -7,23 -5,7 -11,13 -20,18 -9,5 -20,9 -34,11 -14,3 -30,4 -48,4 -18,0 -34,-1 -47,-4 -13,-2 -24,-6 -33,-10 -9,-5 -15,-10 -19,-17 -4,-7 -6,-15 -6,-23 0,-8 2,-16 7,-23 5,-7 11,-13 21,-17 9,-5 21,-9 34,-11 14,-3 30,-4 48,-4 18,0 33,1 46,4 13,2 24,6 33,10 9,5 15,10 19,17 4,7 6,14 6,23zm-34 1c0,-6 -1,-12 -4,-17 -2,-5 -6,-10 -12,-14 -6,-4 -13,-7 -22,-9 -9,-2 -21,-3 -35,-3 -14,0 -25,1 -35,3 -9,2 -17,5 -23,9 -6,4 -10,8 -13,13 -3,5 -4,11 -4,16 0,6 1,12 4,17 2,5 6,10 12,14 6,4 13,7 22,9 9,2 21,3 35,3 14,0 26,-1 35,-3 10,-2 17,-5 23,-9 6,-4 10,-8 12,-14 2,-5 4,-11 4,-16z"/>
 <path id="12" class="fil2" d="M3627 3514c0,3 -1,6 -3,9 -2,3 -5,5 -8,8 -3,2 -8,4 -13,6 -5,2 -10,3 -16,4 -6,1 -13,2 -20,3 -7,1 -15,1 -24,1l-63 0c-3,0 -6,0 -8,-1 -3,-1 -4,-2 -4,-4l0 -95c0,-2 1,-4 4,-4 3,-1 5,-1 8,-1l55 0c14,0 26,1 35,2 9,1 17,3 23,5 6,2 11,5 14,8 3,3 5,7 5,11 0,3 -1,5 -2,7 -1,2 -3,4 -6,6 -3,2 -6,4 -10,5 -4,2 -9,3 -14,4 7,1 13,2 18,3 6,1 11,3 15,6 4,2 8,5 10,8 2,3 4,6 4,10zm-48 -48c0,-3 -1,-5 -2,-7 -2,-2 -4,-4 -8,-5 -3,-1 -8,-3 -14,-3 -6,-1 -13,-1 -22,-1l-33 0 0 34 36 0c8,0 15,0 20,-1 5,-1 9,-2 13,-4 3,-2 6,-4 7,-6 2,-2 2,-4 2,-7zm14 48c0,-3 -1,-6 -3,-8 -2,-2 -6,-4 -10,-6 -4,-2 -10,-3 -16,-4 -7,-1 -15,-1 -25,-1l-38 0 0 37 46 0c7,0 14,0 19,-1 5,-1 10,-2 14,-3 4,-1 7,-3 10,-6 2,-2 4,-5 4,-8z"/>
</symbol>
 <g id="Livello_x0020_1">
  <metadata id="CorelCorpID_0Corel-Layer"/>
  <g id="_670505528">
   <g>
    <polyline class="fil3 str0" points="2730,3901 1658,3901 1461,3690 1278,3617 1278,3307 "/>
    <polyline class="fil3 str0" points="2730,2713 1658,2713 1461,2924 1278,2997 1278,3307 "/>
    <path class="fil3 str1" d="M2416 2716l235 1185m-1190 -977l0 766m197 -977l0 1188m83 -1185l235 1185m103 -1185l235 1185"/>
   </g>
   <g>
    <polyline class="fil3 str2" points="3712,2534 2730,2582 2730,4039 3712,4080 "/>
    <line class="fil3 str2" x1="5286" y1="1455" x2="5286" y2= "5159" />
    <line class="fil3 str2" x1="5286" y1="1628" x2="5286" y2= "4988" />
    <line class="fil3 str2" x1="5336" y1="1455" x2="5336" y2= "5159" />
    <line class="fil3 str2" x1="5286" y1="1455" x2="5336" y2= "1455" />
    <line class="fil3 str2" x1="5286" y1="5159" x2="5336" y2= "5159" />
    <path class="fil3 str2" d="M3712 2534c365,-454 948,-852 1574,-910"/>
    <path class="fil3 str2" d="M5286 4991c-633,-62 -1201,-453 -1574,-911"/>
    <path class="fil3 str3" d="M5286 4660c-536,-43 -1054,-246 -1465,-562"/>
    <path class="fil3 str3" d="M5286 4133c-495,-28 -1026,-124 -1465,-344"/>
    <path class="fil3 str3" d="M5286 3605c-484,-14 -989,-35 -1465,-124"/>
    <path class="fil3 str3" d="M3821 2826c431,-218 977,-319 1465,-344"/>
    <path class="fil3 str3" d="M3821 2517c404,-316 937,-520 1465,-564"/>
    <line class="fil3 str3" x1="3821" y1="2409" x2="3821" y2= "4206" />
    <line class="fil3 str3" x1="3712" y1="4080" x2="3712" y2= "2534" />
    <path class="fil3 str3" d="M3821 3135c470,-89 985,-113 1465,-124"/>
   </g>
  </g>
 </g>
</svg>
