<?xml version="1.0" encoding="utf-8"?>
<!-- Generator: Adobe Illustrator 20.1.0, SVG Export Plug-In . SVG Version: 6.00 Build 0)  -->
<svg version="1.1" id="Layer_1" xmlns="http://www.w3.org/2000/svg" xmlns:xlink="http://www.w3.org/1999/xlink" x="0px" y="0px"
	 viewBox="0 0 330.076 125.202" enable-background="new 0 0 330.076 125.202" xml:space="preserve">
<g>
	<path fill="#838086" d="M134.105,3.151h1.207v1.458c0.63-1.062,1.944-1.639,3.169-1.639c2.395,0,4.303,1.765,4.303,4.43
		s-1.908,4.339-4.303,4.339c-1.225,0-2.539-0.485-3.169-1.548v5.438h-1.207V3.151z M138.481,4.178c-1.711,0-3.169,1.152-3.169,3.223
		s1.656,3.133,3.169,3.133c1.746,0,3.097-1.206,3.097-3.133C141.578,5.527,140.228,4.178,138.481,4.178z"/>
	<path fill="#838086" d="M150.685,4.466c-0.396-0.198-0.918-0.288-1.224-0.288c-1.711,0-2.413,2.017-2.413,4.249v3.133h-1.206V3.151
		h1.206V5.06c0.414-1.44,1.188-2.089,2.413-2.089c0.576,0,1.206,0.181,1.368,0.324L150.685,4.466z"/>
	<path fill="#838086" d="M152.52,7.328c0-2.665,1.854-4.357,4.249-4.357s4.123,1.692,4.123,4.357c0,0.181,0,0.396-0.018,0.559
		h-7.131c0.217,1.639,1.459,2.664,3.025,2.664c1.135,0,2.106-0.54,2.629-1.458c0.36,0.09,0.828,0.18,1.206,0.271
		c-0.684,1.494-2.143,2.376-3.835,2.376C154.374,11.739,152.52,9.993,152.52,7.328z M159.667,6.771
		c-0.233-1.603-1.35-2.611-2.898-2.611c-1.566,0-2.791,1.009-3.025,2.611H159.667z"/>
	<path fill="#838086" d="M164.237,9.146c0.162,0.631,0.559,1.459,1.98,1.459c1.081,0,1.783-0.54,1.783-1.333
		c0-0.558-0.324-1.08-1.207-1.296l-1.17-0.271c-1.044-0.252-2.341-0.773-2.125-2.736c0.181-1.206,1.369-1.999,2.737-1.999
		c1.296,0,2.431,0.631,2.646,2.179h-1.17c-0.145-0.647-0.757-1.026-1.477-1.026c-0.811,0-1.477,0.433-1.566,1.026
		c-0.181,0.973,0.648,1.261,1.242,1.404l1.152,0.271c1.585,0.378,2.125,1.296,2.125,2.448c0,1.459-1.333,2.467-3.079,2.467
		c-1.423,0-2.863-0.954-2.935-2.593H164.237z"/>
	<path fill="#838086" d="M171.617,7.328c0-2.665,1.854-4.357,4.249-4.357c2.396,0,4.124,1.692,4.124,4.357
		c0,0.181,0,0.396-0.019,0.559h-7.13c0.216,1.639,1.458,2.664,3.024,2.664c1.135,0,2.107-0.54,2.629-1.458
		c0.36,0.09,0.828,0.18,1.207,0.271c-0.685,1.494-2.143,2.376-3.836,2.376C173.472,11.739,171.617,9.993,171.617,7.328z
		 M178.766,6.771c-0.234-1.603-1.351-2.611-2.899-2.611c-1.566,0-2.79,1.009-3.024,2.611H178.766z"/>
	<path fill="#838086" d="M184.146,11.56h-1.206V3.151h1.206v1.386c0.522-1.098,1.818-1.566,2.791-1.566
		c2.053,0,3.259,1.404,3.241,3.691v4.897h-1.207V6.662c0-1.549-0.738-2.503-2.034-2.503c-1.333,0-2.791,0.757-2.791,2.809V11.56z"/>
	<path fill="#838086" d="M194.243,11.56V4.231h-1.512v-1.08h1.512V0h1.207v3.151h1.782v1.08h-1.782v7.328H194.243z"/>
</g>
<g>
	<path fill="#3D3C3E" d="M80.074,46.745v8.674h5.86c2.947,0,4.016-2.112,4.016-4.289c0-2.209-1.069-4.385-3.853-4.385H80.074z
		 M80.074,56.783v7.635h-1.391V45.38h7.414c3.788,0,5.244,2.859,5.244,5.75c0,2.892-1.456,5.653-5.342,5.653H80.074z"/>
</g>
<path fill="#3D3C3E" d="M106.949,58.017l-4.079-10.72l-4.079,10.72H106.949z M107.435,59.285h-9.13l-1.976,5.133h-1.456
	l7.285-19.038h1.456l7.253,19.038h-1.49L107.435,59.285z"/>
<g>
	<path fill="#3D3C3E" d="M118.864,46.777v8.674h5.473c2.945,0,3.982-2.112,3.982-4.289c0-2.208-1.037-4.385-3.852-4.385H118.864z
		 M124.24,56.848l5.309,7.57h-1.684l-5.341-7.635h-3.66v7.635h-1.391V45.38h6.994c3.819,0,5.244,2.859,5.244,5.782
		c0,2.892-1.392,5.686-5.374,5.686H124.24z"/>
</g>
<polygon fill="#3D3C3E" points="137.227,64.418 137.227,45.38 147.813,45.38 147.813,46.744 138.618,46.744 138.618,54.411 
	146.68,54.411 146.68,55.776 138.618,55.776 138.618,63.053 148.105,63.053 148.105,64.418 "/>
<g>
	<path fill="#3D3C3E" d="M168.051,46.777V63.02h5.698c4.532,0,6.96-3.476,6.96-8.089s-2.428-8.154-6.96-8.154H168.051z
		 M166.691,64.418V45.38h7.058c5.341,0,8.353,4.158,8.353,9.551s-3.012,9.487-8.353,9.487H166.691z"/>
	<path fill="#3D3C3E" d="M197.839,63.312c4.63,0,8.191-3.735,8.191-8.349c0-4.645-3.561-8.381-8.191-8.381
		c-4.597,0-8.127,3.736-8.127,8.381C189.712,59.577,193.242,63.312,197.839,63.312 M197.839,45.217c5.374,0,9.551,4.354,9.551,9.746
		c0,5.393-4.177,9.779-9.551,9.779c-5.342,0-9.518-4.386-9.518-9.779C188.321,49.571,192.497,45.217,197.839,45.217"/>
</g>
<polygon fill="#3D3C3E" points="228.891,62.338 234.524,45.38 236.014,45.38 229.57,64.418 228.147,64.418 224.164,50.676 
	220.15,64.418 218.757,64.418 212.315,45.38 213.771,45.38 219.405,62.306 223.517,48.174 224.812,48.174 "/>
<polygon fill="#3D3C3E" points="254.506,45.38 255.866,45.38 255.866,64.418 254.376,64.418 244.048,47.686 244.048,64.418 
	242.657,64.418 242.657,45.38 244.178,45.38 254.506,62.111 "/>
<path fill="#3D3C3E" d="M25.396,82.172v12.064h8.16c3.803,0,5.458-3.078,5.458-6.032c0-2.894-1.594-6.032-5.214-6.032H25.396z
	 M33.862,76.878c7.729,0,10.981,5.663,10.981,11.326c0,5.847-3.252,11.388-10.981,11.388h-8.466v12.926h-5.888v-35.64H33.862z"/>
<path fill="#3D3C3E" d="M72.33,107.471c6.87,0,12.269-5.663,12.269-12.619c0-7.017-5.399-12.62-12.269-12.62
	c-6.809,0-12.146,5.603-12.146,12.62C60.184,101.808,65.521,107.471,72.33,107.471 M72.33,76.569
	c10.184,0,18.097,8.126,18.097,18.283c0,10.095-7.913,18.282-18.097,18.282c-10.122,0-17.913-8.187-17.913-18.282
	C54.417,84.695,62.208,76.569,72.33,76.569"/>
<polygon fill="#3D3C3E" points="143.802,76.878 131.718,112.518 126.933,112.518 121.166,91.896 115.461,112.518 110.615,112.518 
	98.592,76.878 104.788,76.878 113.008,102.731 118.958,81.679 123.436,81.679 129.326,102.731 137.546,76.878 "/>
<polygon fill="#3D3C3E" points="176.503,76.878 176.503,82.172 160.739,82.172 160.739,92.267 174.541,92.267 174.541,97.621 
	160.739,97.621 160.739,107.162 176.932,107.162 176.932,112.518 154.911,112.518 154.911,76.878 "/>
<path fill="#3D3C3E" d="M196.015,82.172v12.065h7.608c3.864,0,5.398-3.078,5.398-6.033c0-2.894-1.472-6.032-5.154-6.032H196.015z
	 M215.339,112.518h-7.055l-8.772-12.926h-3.497v12.926h-5.888v-35.64h13.925c7.667,0,10.981,5.663,10.981,11.326
	c0,5.232-2.638,10.279-8.957,11.079L215.339,112.518z"/>
<path fill="#3D3C3E" d="M268.837,100.207V76.94h5.767v23.267c0,7.879-6.073,12.928-13.251,12.928
	c-7.053,0-13.249-5.049-13.249-12.928V76.94h5.888v23.267c0,4.432,3.435,7.326,7.361,7.326
	C265.34,107.533,268.837,104.639,268.837,100.207"/>
<path fill="#3D3C3E" d="M295.281,82.172v12.064h8.16c3.803,0,5.459-3.078,5.459-6.032c0-2.894-1.595-6.032-5.214-6.032H295.281z
	 M303.747,76.878c7.729,0,10.981,5.663,10.981,11.326c0,5.847-3.252,11.388-10.981,11.388h-8.466v12.926h-5.888v-35.64H303.747z"/>
<line fill="none" stroke="#000000" stroke-width="0.825" x1="0" y1="125.202" x2="0" y2="86.347"/>
<line fill="none" stroke="#000000" stroke-width="0.825" x1="330.076" y1="105.251" x2="330.076" y2="66.396"/>
</svg>
