<?xml version="1.0" encoding="utf-8"?>
<!-- Generator: Adobe Illustrator 20.0.0, SVG Export Plug-In . SVG Version: 6.00 Build 0)  -->
<svg version="1.1" xmlns="http://www.w3.org/2000/svg" xmlns:xlink="http://www.w3.org/1999/xlink" x="0px" y="0px"
	 viewBox="0 0 660 500" style="enable-background:new 0 0 660 500;" xml:space="preserve">
<style type="text/css">
	.st0{opacity:0.35;}
	.st1{fill:#FFFFFF;stroke:#000000;stroke-width:2.5;stroke-miterlimit:10;}
</style>
<g id="type">
</g>
<g id="points_2">
	<g class="st0">
		<path d="M326.1,384.8h-0.1c0,0-1.5-0.6-3-0.6c-1.7,0-2.6,0.8-2.6,1.9c0,3.1,6.4,2.3,6.4,6.9c0,2.7-2.2,3.9-4.9,3.9
			c-2,0-3.4-0.6-3.4-0.6v-1.6h0.1c0,0,1.7,0.8,3.4,0.8c1.8,0,2.8-0.9,2.8-2.2c0-3.3-6.4-2.5-6.4-6.8c0-2.2,1.7-3.6,4.5-3.6
			c1.7,0,3.2,0.5,3.2,0.5V384.8z"/>
		<path d="M331.4,382.9l3.6,6.6l3.6-6.6h1.8l-4.7,8.3v5.5h-1.9v-5.4l-4.7-8.3H331.4z"/>
		<path d="M345.8,390.9v5.7h-1.9v-13.8h4.3c1,0,2.3,0,3.4,0.7c1,0.7,1.5,1.8,1.5,3.2c0,2.2-1.2,3.4-2.8,3.9l3.6,6h-2.2l-3.3-5.7
			H345.8z M345.8,389.5h2.3c0.4,0,1.4,0,2-0.4c0.6-0.4,0.9-1.2,0.9-2.1c0-0.9-0.3-1.7-0.9-2.1c-0.7-0.4-1.6-0.4-2-0.4h-2.3V389.5z"
			/>
		<path d="M359.4,382.9v13.8h-1.9v-13.8H359.4z"/>
		<path d="M372.6,396.7l-1.3-3.8h-5.5l-1.3,3.8h-1.8l5-13.8h2l4.9,13.8H372.6z M366.3,391.4h4.5l-2.2-6.5L366.3,391.4z"/>
	</g>
	<g class="st0">
		<path d="M250.6,200.7v1.5h-4v12.3h-1.9v-12.3h-4v-1.5H250.6z"/>
		<path d="M256,200.7v8.7c0,2.3,0.7,3.8,3.4,3.8c2.7,0,3.4-1.6,3.4-3.8v-8.7h1.7v8.4c0,1.1,0,2.8-1.1,4.1c-1,1.1-2.5,1.5-4.1,1.5
			c-1.7,0-3.1-0.5-4-1.5c-1.1-1.3-1.1-2.9-1.1-4.1v-8.4H256z"/>
		<path d="M271.3,208.8v5.7h-1.9v-13.8h4.3c1,0,2.3,0,3.4,0.7c1,0.7,1.5,1.8,1.5,3.2c0,2.2-1.2,3.4-2.8,3.9l3.6,6h-2.2l-3.3-5.7
			H271.3z M271.3,207.3h2.3c0.4,0,1.4,0,2-0.4c0.6-0.4,0.9-1.2,0.9-2.1c0-0.9-0.3-1.7-0.9-2.1c-0.7-0.4-1.6-0.4-2-0.4h-2.3V207.3z"
			/>
		<path d="M284.9,200.7v6.5l5.9-6.5h2.1l-5.3,5.8l5.5,8h-2.3l-4.5-6.7l-1.4,1.4v5.2H283v-13.8H284.9z"/>
		<path d="M304.6,200.7v1.5h-6v4.4h5.1v1.5h-5.1v5h6.2v1.5h-8.1v-13.8H304.6z"/>
		<path d="M309.6,200.7l3.6,6.6l3.6-6.6h1.8l-4.7,8.3v5.5H312v-5.4l-4.7-8.3H309.6z"/>
	</g>
	<g>
		<g>
			<path d="M325.9,342l-1.5-4.5h-6.9L316,342h-2.9l6.5-18h3.4l6.4,18H325.9z M318.4,335.1h5.3l-2.6-7.8L318.4,335.1z"/>
			<path d="M334.7,323.3V342h-3.1v-18.7H334.7z"/>
			<path d="M348.9,341.6c0,0-1.8,0.6-4.2,0.6c-2.5,0-4-0.7-5-1.6c-1.2-1.2-1.8-2.9-1.8-5.1c0-4.3,2.2-7,6.1-7c2.2,0,3.8,0.8,4.7,2.3
				c0.9,1.5,0.9,3.5,0.9,5.5h-8.5c0,2.3,1.3,3.6,3.8,3.6c1.8,0,3.7-0.7,3.7-0.7h0.2V341.6z M346.4,334.1c0-2.2-0.7-3.5-2.5-3.5
				c-1.8,0-2.6,1.3-2.8,3.5H346.4z"/>
			<path d="M352.9,346.7v-17.9h2.4l0.6,2.2c0.4-1.5,1.8-2.5,4-2.5c3.7,0,5.6,2.8,5.6,6.8c0,4.1-2,7-5.8,7c-1.9,0-3.2-0.7-3.7-2.3
				v6.7H352.9z M362.2,335.4c0-2.6-0.9-4.5-3.1-4.5s-3.1,1.9-3.1,4.5s0.9,4.5,3.1,4.5S362.2,338,362.2,335.4z"/>
			<path d="M368.7,346.7v-17.9h2.4l0.6,2.2c0.4-1.5,1.8-2.5,4-2.5c3.7,0,5.6,2.8,5.6,6.8c0,4.1-2,7-5.8,7c-1.9,0-3.2-0.7-3.7-2.3
				v6.7H368.7z M378,335.4c0-2.6-0.9-4.5-3.1-4.5s-3.1,1.9-3.1,4.5s0.9,4.5,3.1,4.5S378,338,378,335.4z"/>
			<path d="M390.2,342.3c-4.1,0-6.4-2.4-6.4-6.9c0-4.5,2.3-7,6.5-7c4.1,0,6.4,2.4,6.4,6.9C396.6,339.9,394.3,342.3,390.2,342.3z
				 M393.3,335.4c0-3-1-4.7-3.1-4.7c-2.2,0-3.1,1.8-3.1,4.7c0,3,1,4.7,3.1,4.7C392.4,340.1,393.3,338.2,393.3,335.4z"/>
		</g>
	</g>
	<g>
		<g>
			<path d="M176.9,149l-1.5-4.5h-6.9L167,149h-2.9l6.5-18h3.4l6.4,18H176.9z M169.4,142.1h5.3l-2.6-7.8L169.4,142.1z"/>
			<path d="M185,135.8l0.6,2.3c0.4-1.5,1.6-2.5,3.9-2.5c2,0,3.2,0.8,3.8,1.7c0.8,1.1,0.8,2.4,0.8,4v7.8H191v-7.8
				c0-0.8,0-1.5-0.4-2.2c-0.4-0.6-1.1-1-2.1-1c-2.4,0-2.7,1.8-2.7,2.9v8.1h-3.2v-13.2H185z"/>
			<path d="M201,130.3v11l4.9-5.5h3.5l-4.9,5.4l5.1,7.8H206l-3.6-5.8l-1.3,1.3v4.4h-3.1v-18.7H201z"/>
			<path d="M212.3,136.1c0,0,1.9-0.5,4.2-0.5s4,0.5,4.9,1.8c0.8,1.1,0.8,2.6,0.8,4v7.6h-2.4l-0.6-2.2c-0.2,1.2-1.3,2.4-3.7,2.4
				c-2.5,0-4.4-1.4-4.4-4c0-1.3,0.5-2.5,1.7-3.3c1.6-1,3.9-1,6.2-1c0-0.8,0-1.6-0.4-2.2c-0.4-0.6-1.2-0.9-2.5-0.9
				c-1.9,0-3.7,0.7-3.7,0.7h-0.2V136.1z M216.3,146.9c1.1,0,2-0.4,2.4-1.2c0.4-0.7,0.4-1.7,0.4-2.3V143c-1.7,0-2.9,0-3.7,0.5
				c-0.7,0.4-1,1-1,1.7C214.4,146.2,215,146.9,216.3,146.9z"/>
			<path d="M233.4,138.6c0,0-0.6-0.1-1.4-0.1c-2.8,0-2.8,2.1-2.8,3.1v7.4H226v-13.2h2.4l0.6,2.6c0.5-2.2,2.1-2.7,4-2.7h0.3V138.6z"
				/>
			<path d="M235.9,136.1c0,0,1.9-0.5,4.2-0.5c2.4,0,4,0.5,4.9,1.8c0.8,1.1,0.8,2.6,0.8,4v7.6h-2.4l-0.6-2.2
				c-0.2,1.2-1.3,2.4-3.7,2.4c-2.5,0-4.4-1.4-4.4-4c0-1.3,0.5-2.5,1.7-3.3c1.6-1,3.9-1,6.2-1c0-0.8,0-1.6-0.4-2.2
				c-0.4-0.6-1.2-0.9-2.5-0.9c-1.9,0-3.7,0.7-3.7,0.7h-0.2V136.1z M239.9,146.9c1.1,0,2-0.4,2.4-1.2c0.4-0.7,0.4-1.7,0.4-2.3V143
				c-1.7,0-2.9,0-3.7,0.5c-0.7,0.4-1,1-1,1.7C237.9,146.2,238.6,146.9,239.9,146.9z"/>
		</g>
	</g>
	<g>
		<path d="M169.3,333.5l-1.5-4.5h-6.9l-1.5,4.5h-2.9l6.5-18h3.4l6.4,18H169.3z M161.7,326.6h5.3l-2.6-7.8L161.7,326.6z"/>
		<path d="M177.4,320.3l0.6,2.3c0.4-1.5,1.6-2.5,3.9-2.5c2,0,3.2,0.8,3.8,1.7c0.8,1.1,0.8,2.4,0.8,4v7.8h-3.2v-7.8
			c0-0.8,0-1.5-0.4-2.2c-0.4-0.6-1.1-1-2.1-1c-2.4,0-2.7,1.8-2.7,2.9v8.1h-3.2v-13.2H177.4z"/>
		<path d="M198,333.4c0,0-1,0.3-2.4,0.3c-1.8,0-3.1-0.5-3.8-1.5c-0.6-0.9-0.6-2-0.6-3.4v-6h-2.4v-2.3h2.4v-3.4l3.1-0.9v4.3h3.6v2.3
			h-3.6v6c0,0.9,0,1.5,0.3,2c0.3,0.5,0.8,0.6,1.4,0.6c0.9,0,1.8-0.3,1.8-0.3h0.2V333.4z"/>
		<path d="M201.5,320.6c0,0,1.9-0.5,4.2-0.5s4,0.5,4.9,1.8c0.8,1.1,0.8,2.6,0.8,4v7.6H209l-0.6-2.2c-0.2,1.2-1.3,2.4-3.7,2.4
			c-2.5,0-4.4-1.4-4.4-4c0-1.3,0.5-2.5,1.7-3.3c1.6-1,3.9-1,6.2-1c0-0.8,0-1.6-0.4-2.2c-0.4-0.6-1.2-0.9-2.5-0.9
			c-1.9,0-3.7,0.7-3.7,0.7h-0.2V320.6z M205.4,331.4c1.1,0,2-0.4,2.4-1.2c0.4-0.7,0.4-1.7,0.4-2.3v-0.3c-1.7,0-2.9,0-3.7,0.5
			c-0.7,0.4-1,1-1,1.7C203.5,330.7,204.1,331.4,205.4,331.4z"/>
		<path d="M218.3,314.8v11l4.9-5.5h3.5l-4.9,5.4l5.1,7.8h-3.6l-3.6-5.8l-1.3,1.3v4.4h-3.1v-18.7H218.3z"/>
		<path d="M234.1,338.2H231l2.2-4.9l-5.1-13h3.6l3.3,9.4l3.4-9.4h2.9L234.1,338.2z"/>
		<path d="M243.7,320.6c0,0,1.9-0.5,4.2-0.5c2.4,0,4,0.5,4.9,1.8c0.8,1.1,0.8,2.6,0.8,4v7.6h-2.4l-0.6-2.2c-0.2,1.2-1.3,2.4-3.7,2.4
			c-2.5,0-4.4-1.4-4.4-4c0-1.3,0.5-2.5,1.7-3.3c1.6-1,3.9-1,6.2-1c0-0.8,0-1.6-0.4-2.2c-0.4-0.6-1.2-0.9-2.5-0.9
			c-1.9,0-3.7,0.7-3.7,0.7h-0.2V320.6z M247.7,331.4c1.1,0,2-0.4,2.4-1.2c0.4-0.7,0.4-1.7,0.4-2.3v-0.3c-1.7,0-2.9,0-3.7,0.5
			c-0.7,0.4-1,1-1,1.7C245.8,330.7,246.4,331.4,247.7,331.4z"/>
	</g>
	<circle class="st1" cx="268.1" cy="324" r="8"/>
	<circle class="st1" cx="302.7" cy="324" r="8"/>
	<circle class="st1" cx="150.3" cy="155.1" r="8"/>
	<g>
	</g>
	<g>
	</g>
	<g>
	</g>
	<g>
	</g>
	<g>
	</g>
	<g>
	</g>
	<g>
	</g>
	<g>
	</g>
	<g>
	</g>
	<g>
	</g>
	<g>
	</g>
	<g>
	</g>
	<g>
	</g>
	<g>
	</g>
	<g>
	</g>
</g>
</svg>
