<?xml version="1.0" encoding="utf-8"?>
<!-- Generator: Adobe Illustrator 19.1.0, SVG Export Plug-In . SVG Version: 6.00 Build 0)  -->
<svg version="1.1" id="Layer_1" xmlns="http://www.w3.org/2000/svg" xmlns:xlink="http://www.w3.org/1999/xlink" x="0px" y="0px"
	 viewBox="0 0 183.2 64.2" style="enable-background:new 0 0 183.2 64.2;" xml:space="preserve">
<style type="text/css">
	.st0{fill:#8B2332;}
	.st1{fill-rule:evenodd;clip-rule:evenodd;fill:#8B2332;}
</style>
<g>
	<path class="st0" d="M139,49.2v11.5h7.8V49.2H139z M145,50.7l-2.1,3.3l-2.1-3.3H145z M140.4,52l1.9,2.9l-1.9,2.9V52z M140.8,59.2
		l2.1-3.3l2.1,3.3H140.8z M145.3,57.9l-1.9-2.9l1.9-2.9V57.9z"/>
	<polygon class="st1" points="141.5,39.9 124.8,52.7 0.4,52.7 0.4,63.8 121.8,63.8 123.6,63.8 126.7,53.5 142.8,40.9 	"/>
	<g>
		<path class="st0" d="M6.1,8.6v11.5h6v3.5h-6V38H2.3V5.2h11v3.5H6.1z"/>
		<path class="st0" d="M26.7,38l-2.1-11.3h-5.2L17.3,38h-3.8L20,5.2h4L30.5,38H26.7z M22,11l0-1.1L22,11l-2.1,12.2H24L22,11z"/>
		<path class="st0" d="M44.1,38l-2-10.6c-0.5-2.7-0.8-3.9-3.7-3.9H38V38h-3.8V5.2h5.6c6.4,0,7.2,2.7,7.2,8.5c0,3.2,0.3,8-3.3,9.4
			c0.8,0.5,1.2,1.3,1.4,2.2L47.9,38H44.1z M43.2,12.5c0-1.5,0-3.8-2.1-3.8H38l0,11.3h3.2c2,0,2.1-2.2,2.1-3.7V12.5z"/>
		<path class="st0" d="M68.4,38V12.4L63,36.6h-2.4l-5.6-23.5V38h-3.6V5.2H53h1.7h0.9l5.9,22.7l0.2,2.3h0.1l0.2-2.3l5.5-22.7h1.1h1.6
			h1.8V38H68.4z"/>
		<path class="st0" d="M76.7,38V5.2h11v3.5h-7.1v10.8h6v3.5h-6v11.5h7.1V38H76.7z"/>
		<path class="st0" d="M101.9,38l-2-10.6c-0.5-2.7-0.8-3.9-3.7-3.9h-0.5V38H92V5.2h5.6c6.4,0,7.2,2.7,7.2,8.5c0,3.2,0.3,8-3.3,9.4
			c0.8,0.5,1.2,1.3,1.4,2.2l2.8,12.8H101.9z M101,12.5c0-1.5,0-3.8-2.1-3.8h-3.2l0,11.3h3.2c2,0,2.1-2.2,2.1-3.7V12.5z"/>
		<path class="st0" d="M121.6,31.1c0,0.4-0.2,1.8-0.4,2.5c-0.9,3-3.1,4.5-6,4.5h-0.4c-2.9,0-5-1.6-5.9-4.8c-0.3-1.2-0.3-3-0.3-4.9
			h3.7v3.1c0,2.1,0.8,3.1,2.4,3.1h0.6c1.6,0,2.7-1.5,2.7-3.5c0.1-4.6-0.5-4.6-1.6-6.2c-0.1-0.2-1-0.9-1.1-1.1
			c-0.8-0.7-1.7-1.5-2.6-2.2c-1.1-0.9-2.2-2-2.9-3c-1-1.5-1.4-3-1.4-5.1c0-1.1,0-0.5,0-0.5c0-1.1,0.1-2.2,0.3-3
			c0.9-3.8,3.3-5.2,6.3-5.2c2.9,0,5.4,1.3,6.3,5.2c0.2,1.1,0.3,2.7,0.3,4.3h-3.8v-2.5c0-2.4-1.3-3.6-2.9-3.6c-1.6,0-2.5,1.2-2.5,3.6
			V14c0,2.5,1.9,3.7,2.2,3.9l3,2.4c1.1,0.9,2.3,2,3,3.3c0.7,1.3,1.3,3.3,1.3,5.5C121.7,30.3,121.7,30.3,121.6,31.1z"/>
	</g>
	<g>
		<path class="st0" d="M1.8,41.2h3.5c1,0,1.7,0.3,2.2,0.8c0.4,0.4,0.6,1,0.6,1.7v0c0,1.3-0.8,2-1.8,2.3l2.1,2.9H6.8l-1.9-2.7H3.2
			v2.7H1.8V41.2z M5.2,45c1,0,1.6-0.5,1.6-1.3v0c0-0.8-0.6-1.3-1.6-1.3h-2V45H5.2z"/>
		<path class="st0" d="M9.8,41.2h5.7v1.2h-4.4v2h3.9v1.2h-3.9v2.1h4.4v1.2H9.8V41.2z"/>
		<path class="st0" d="M16.7,47.8l0.8-1c0.7,0.6,1.5,1,2.4,1c0.8,0,1.4-0.4,1.4-1v0c0-0.6-0.3-0.9-1.7-1.2c-1.6-0.4-2.6-0.9-2.6-2.3
			v0c0-1.3,1.1-2.2,2.6-2.2c1.1,0,2,0.3,2.8,1l-0.7,1c-0.7-0.5-1.4-0.8-2.1-0.8c-0.8,0-1.3,0.4-1.3,0.9v0c0,0.6,0.4,0.9,1.8,1.2
			c1.6,0.4,2.5,1,2.5,2.3v0c0,1.5-1.1,2.3-2.8,2.3C18.8,49,17.6,48.6,16.7,47.8z"/>
		<path class="st0" d="M26.1,42.4h-2.5v-1.3h6.3v1.3h-2.5v6.5h-1.4V42.4z"/>
		<path class="st0" d="M33.1,41.1h1.3l3.4,7.8h-1.4L35.5,47h-3.7l-0.8,1.9h-1.4L33.1,41.1z M35,45.8l-1.3-3.1l-1.3,3.1H35z"/>
		<path class="st0" d="M38.7,45.6v-4.5H40v4.4c0,1.4,0.7,2.2,2,2.2c1.2,0,1.9-0.7,1.9-2.1v-4.5h1.4v4.4c0,2.3-1.3,3.5-3.3,3.5
			C40,49,38.7,47.9,38.7,45.6z"/>
		<path class="st0" d="M47.2,41.2h3.5c1,0,1.7,0.3,2.2,0.8c0.4,0.4,0.6,1,0.6,1.7v0c0,1.3-0.8,2-1.8,2.3l2.1,2.9h-1.6l-1.9-2.7h-1.7
			v2.7h-1.4V41.2z M50.5,45c1,0,1.6-0.5,1.6-1.3v0c0-0.8-0.6-1.3-1.6-1.3h-2V45H50.5z"/>
		<path class="st0" d="M57.9,41.1h1.3l3.4,7.8h-1.4L60.4,47h-3.7l-0.8,1.9h-1.4L57.9,41.1z M59.9,45.8l-1.3-3.1l-1.3,3.1H59.9z"/>
		<path class="st0" d="M63.9,41.2h1.3l4.2,5.4v-5.4h1.3v7.8h-1.1l-4.3-5.5v5.5h-1.3V41.2z"/>
		<path class="st0" d="M74.6,42.4h-2.5v-1.3h6.3v1.3H76v6.5h-1.4V42.4z"/>
		<path class="st0" d="M82.8,45.1L82.8,45.1c0-2.2,1.7-4,4-4c1.4,0,2.2,0.4,3,1.1l-0.9,1c-0.6-0.5-1.2-0.8-2.2-0.8
			c-1.4,0-2.5,1.3-2.5,2.7v0c0,1.6,1.1,2.8,2.6,2.8c0.7,0,1.4-0.2,1.9-0.6v-1.5h-2v-1.2h3.3v3.3c-0.8,0.7-1.9,1.2-3.2,1.2
			C84.4,49,82.8,47.3,82.8,45.1z"/>
		<path class="st0" d="M91.9,41.2h3.5c1,0,1.7,0.3,2.2,0.8c0.4,0.4,0.6,1,0.6,1.7v0c0,1.3-0.8,2-1.8,2.3l2.1,2.9h-1.6l-1.9-2.7h-1.7
			v2.7h-1.4V41.2z M95.2,45c1,0,1.6-0.5,1.6-1.3v0c0-0.8-0.6-1.3-1.6-1.3h-2V45H95.2z"/>
		<path class="st0" d="M99.5,45.1L99.5,45.1c0-2.2,1.7-4,4.1-4c2.4,0,4,1.8,4,4v0c0,2.2-1.7,4-4.1,4C101.2,49,99.5,47.2,99.5,45.1z
			 M106.2,45.1L106.2,45.1c0-1.5-1.1-2.8-2.6-2.8c-1.5,0-2.6,1.2-2.6,2.7v0c0,1.5,1.1,2.7,2.6,2.7C105.1,47.8,106.2,46.6,106.2,45.1
			z"/>
		<path class="st0" d="M109.2,45.6v-4.5h1.4v4.4c0,1.4,0.7,2.2,2,2.2c1.2,0,1.9-0.7,1.9-2.1v-4.5h1.4v4.4c0,2.3-1.3,3.5-3.3,3.5
			C110.4,49,109.2,47.9,109.2,45.6z"/>
		<path class="st0" d="M117.7,41.2h3.1c1.8,0,2.9,1,2.9,2.6v0c0,1.7-1.4,2.6-3.1,2.6H119v2.5h-1.4V41.2z M120.6,45.2
			c1,0,1.7-0.6,1.7-1.4v0c0-0.9-0.7-1.4-1.7-1.4H119v2.8H120.6z"/>
	</g>
	<g>
		<path class="st1" d="M142.3,32.7c0,0.5,0.3,1,0.8,1.1v0.2c-0.1,0.1-0.2,0.2-0.2,0.4c0,0.2,0.1,0.3,0.2,0.4v2.8l0.9,0.1l-0.1-2.9
			c0.1-0.1,0.2-0.2,0.2-0.4c0-0.2-0.1-0.3-0.2-0.4v-0.2c0.5-0.2,0.8-0.6,0.8-1.1c0-0.4-0.2-0.7-0.4-0.9c1.5,0,2.1,0,2.2,0
			c0.1,0,0.2,0,0.2,0c0.4,0,1.2,1.5,2.4,1.7c1.2,0.1,7.3-0.9,7.6-0.9c0.3,0,0.3-0.2,0.3-0.2c0-0.1-0.1,0-0.1,0s-6,0.2-6.1,0.2
			c-0.2,0-0.3,0-0.4-0.2c0-0.2,0.2-0.2,0.2-0.2s5.7-0.3,6.1-0.4c0.4,0,0.1-0.2,0.1-0.2l-6.1,0c0,0-0.4,0.1-0.4-0.3
			c0-0.3,0.4-0.2,0.4-0.2l6.1,0c0,0,0.3-0.2-0.1-0.2c-0.4,0-6.1-0.4-6.1-0.4s-0.3,0-0.2-0.2c0-0.2,0.2-0.2,0.4-0.2
			c0.2,0,6.1,0.2,6.1,0.2s0.1,0,0.1,0c0-0.1,0-0.2-0.3-0.2c-0.3,0-6.5-1.1-7.6-0.9c-1.2,0.1-2,1.7-2.4,1.7c0,0-0.1,0-0.2,0
			c-0.2,0-1,0.1-2.2,0c0.2-0.2,0.2-0.5,0.2-0.7c0-0.5-0.3-1-0.8-1.1v-0.2c0.1-0.1,0.2-0.2,0.2-0.4c0-0.2-0.1-0.3-0.2-0.4v-0.8
			c1.1-3.8,3.4-5.1,4.1-9.3c2.1,0.6,6.9-5.5,5.4-11.3c-0.8-3-4.2-5.8-7.5-4.8c-3.6,1-4.2,4.2-2.6,8.7c1,2.9-0.1,4.8-2.2,4.5
			c-0.9-0.1-1.3-1.2-1.3-1.9c0-1,0.3-2,0.5-2.9c0.3-1.5,0.6-3.7-0.9-4.7c0.1-0.2,0.4-0.3,0.5-0.4c0.7-0.6,2.3-2,1.7-3
			c-0.2-0.3-0.6-0.5-0.9-0.5c-0.7,0-1.3,0.9-1.5,1.2c0.1-0.3,0.3-0.8,0.1-1c-1-0.8-1.9,1.7-1.9,2.2c0-0.3-0.3-0.6-0.6-0.5
			c-0.9,0.3-0.5,1.8-0.2,2.4c-0.3,0.2-1.5,0.9-1.7,1l1.5,0.3c0,0,0.1,0.6-1.6,2.3c-1.1,1.1-0.1,1.9-0.1,1.9s-3.8,3.5,0.3,8.6
			c2.7,2.6,6.7,3.2,8.1,6.6v1.5c-0.1,0.1-0.2,0.2-0.2,0.4c0,0.2,0.1,0.3,0.2,0.4v0.2c-0.5,0.2-0.8,0.6-0.8,1.1
			c0,0.2,0.1,0.4,0.2,0.6c-2.8-0.2-8.2-0.7-9.4-0.7c-1.4,0-2.8-0.2-2.7,1.4c0.1,1.5,2.5,1.2,2.5,1.2s6.7-0.4,9.9-0.5
			C142.4,32.1,142.3,32.4,142.3,32.7z"/>
		<polygon class="st1" points="174.4,45.5 141.5,37.8 159.4,51.7 163,63.7 182.7,63.5 		"/>
	</g>
</g>
</svg>
