<?xml version="1.0" encoding="UTF-8"?>
<svg xmlns="http://www.w3.org/2000/svg" height="90in" width="90in">
   <title>Streets by Hand</title>

   <desc>The City Blocks With A Few Streets Marked</desc>

   <rect stroke="black" fill="none" height="20" width="30" ry="2"
   rx="2" y="168" x="306" />

<!-- STREET NAME -->
   <text x="300" y ="200" style="font-family:Arial; font-size:8pt">8<tspan style="font-size:7pt; fill:#333333">th</tspan></text>

   <rect stroke="black" fill="none" height="20" width="30" ry="2"
   rx="2" y="168" x="272" />

<!-- STREET NAME -->
   <text x="266" y ="200" style="font-family:Arial; font-size:8pt">7<tspan style="font-size:7pt; fill:#333333">th</tspan></text>

   <rect stroke="black" fill="none" height="20" width="30" ry="2"
   rx="2" y="168" x="238" />

   <rect stroke="black" fill="none" height="20" width="30" ry="2"
   rx="2" y="168" x="204" />

   <rect stroke="black" fill="none" height="20" width="30" ry="2"
   rx="2" y="168" x="170" />

   <rect stroke="black" fill="none" height="20" width="30" ry="2"
   rx="2" y="168" x="136" />

   <rect stroke="black" fill="none" height="20" width="30" ry="2"
   rx="2" y="168" x="102" />

   <rect stroke="black" fill="none" height="20" width="30" ry="2"
   rx="2" y="168" x="68" />

   <rect stroke="black" fill="none" height="20" width="30" ry="2"
   rx="2" y="168" x="34" />

   <rect stroke="black" fill="none" height="20" width="30" ry="2"
   rx="2" y="144" x="306" />

   <rect stroke="black" fill="none" height="20" width="30" ry="2"
   rx="2" y="144" x="272" />

   <rect stroke="black" fill="none" height="20" width="30" ry="2"
   rx="2" y="144" x="238" />

   <rect stroke="black" fill="none" height="20" width="30" ry="2"
   rx="2" y="144" x="204" />

   <rect stroke="black" fill="none" height="20" width="30" ry="2"
   rx="2" y="144" x="170" />

   <rect stroke="black" fill="none" height="20" width="30" ry="2"
   rx="2" y="144" x="136" />

   <rect stroke="black" fill="none" height="20" width="30" ry="2"
   rx="2" y="144" x="102" />

   <rect stroke="black" fill="none" height="20" width="30" ry="2"
   rx="2" y="144" x="68" />

   <rect stroke="black" fill="none" height="20" width="30" ry="2"
   rx="2" y="144" x="34" />

   <rect stroke="black" fill="none" height="20" width="30" ry="2"
   rx="2" y="120" x="306" />

   <rect stroke="black" fill="none" height="20" width="30" ry="2"
   rx="2" y="120" x="272" />

   <rect stroke="black" fill="none" height="20" width="30" ry="2"
   rx="2" y="120" x="238" />

   <rect stroke="black" fill="none" height="20" width="30" ry="2"
   rx="2" y="120" x="204" />

   <rect stroke="black" fill="none" height="20" width="30" ry="2"
   rx="2" y="120" x="170" />

   <rect stroke="black" fill="none" height="20" width="30" ry="2"
   rx="2" y="120" x="136" />

   <rect stroke="black" fill="none" height="20" width="30" ry="2"
   rx="2" y="120" x="102" />

   <rect stroke="black" fill="none" height="20" width="30" ry="2"
   rx="2" y="120" x="68" />

   <rect stroke="black" fill="none" height="20" width="30" ry="2"
   rx="2" y="120" x="34" />

   <rect stroke="black" fill="none" height="20" width="30" ry="2"
   rx="2" y="96" x="306" />

   <rect stroke="black" fill="none" height="20" width="30" ry="2"
   rx="2" y="96" x="272" />

   <rect stroke="black" fill="none" height="20" width="30" ry="2"
   rx="2" y="96" x="238" />

   <rect stroke="black" fill="none" height="20" width="30" ry="2"
   rx="2" y="96" x="204" />

   <rect stroke="black" fill="none" height="20" width="30" ry="2"
   rx="2" y="96" x="170" />

   <rect stroke="black" fill="none" height="20" width="30" ry="2"
   rx="2" y="96" x="136" />

   <rect stroke="black" fill="none" height="20" width="30" ry="2"
   rx="2" y="96" x="102" />

   <rect stroke="black" fill="none" height="20" width="30" ry="2"
   rx="2" y="96" x="68" />

   <rect stroke="black" fill="none" height="20" width="30" ry="2"
   rx="2" y="96" x="34" />

   <rect stroke="black" fill="none" height="20" width="30" ry="2"
   rx="2" y="72" x="306" />

   <rect stroke="black" fill="none" height="20" width="30" ry="2"
   rx="2" y="72" x="272" />

   <rect stroke="black" fill="none" height="20" width="30" ry="2"
   rx="2" y="72" x="238" />

   <rect stroke="black" fill="none" height="20" width="30" ry="2"
   rx="2" y="72" x="204" />

   <rect stroke="black" fill="none" height="20" width="30" ry="2"
   rx="2" y="72" x="170" />

   <rect stroke="black" fill="none" height="20" width="30" ry="2"
   rx="2" y="72" x="136" />

   <rect stroke="black" fill="none" height="20" width="30" ry="2"
   rx="2" y="72" x="102" />

   <rect stroke="black" fill="none" height="20" width="30" ry="2"
   rx="2" y="72" x="68" />

   <rect stroke="black" fill="none" height="20" width="30" ry="2"
   rx="2" y="72" x="34" />

   <rect stroke="black" fill="none" height="20" width="30" ry="2"
   rx="2" y="48" x="306" />

   <rect stroke="black" fill="none" height="20" width="30" ry="2"
   rx="2" y="48" x="272" />

   <rect stroke="black" fill="none" height="20" width="30" ry="2"
   rx="2" y="48" x="238" />

   <rect stroke="black" fill="none" height="20" width="30" ry="2"
   rx="2" y="48" x="204" />

   <rect stroke="black" fill="none" height="20" width="30" ry="2"
   rx="2" y="48" x="170" />

   <rect stroke="black" fill="none" height="20" width="30" ry="2"
   rx="2" y="48" x="136" />

   <rect stroke="black" fill="none" height="20" width="30" ry="2"
   rx="2" y="48" x="102" />

   <rect stroke="black" fill="none" height="20" width="30" ry="2"
   rx="2" y="48" x="68" />

   <rect stroke="black" fill="none" height="20" width="30" ry="2"
   rx="2" y="48" x="34" />

   <rect stroke="black" fill="none" height="20" width="30" ry="2"
   rx="2" y="24" x="306" />

   <rect stroke="black" fill="none" height="20" width="30" ry="2"
   rx="2" y="24" x="272" />

   <rect stroke="black" fill="none" height="20" width="30" ry="2"
   rx="2" y="24" x="238" />

   <rect stroke="black" fill="none" height="20" width="30" ry="2"
   rx="2" y="24" x="204" />

   <rect stroke="black" fill="none" height="20" width="30" ry="2"
   rx="2" y="24" x="170" />

   <rect stroke="black" fill="none" height="20" width="30" ry="2"
   rx="2" y="24" x="136" />

   <rect stroke="black" fill="none" height="20" width="30" ry="2"
   rx="2" y="24" x="102" />

   <rect stroke="black" fill="none" height="20" width="30" ry="2"
   rx="2" y="24" x="68" />

   <rect stroke="black" fill="none" height="20" width="30" ry="2"
   rx="2" y="24" x="34" />
</svg>

