<?xml version="1.0" encoding="utf-8"?>
<!-- Generator: Adobe Illustrator 18.1.1, SVG Export Plug-In . SVG Version: 6.00 Build 0)  -->
<!DOCTYPE svg PUBLIC "-//W3C//DTD SVG 1.1//EN" "http://www.w3.org/Graphics/SVG/1.1/DTD/svg11.dtd">
<svg version="1.1" xmlns="http://www.w3.org/2000/svg" xmlns:xlink="http://www.w3.org/1999/xlink" x="0px" y="0px"
	 viewBox="0 0 50.6 47.2" enable-background="new 0 0 50.6 47.2" xml:space="preserve">
<g id="v1" display="none">
</g>
<g id="v2">
	<g>
		<path fill="#ECE9FF" d="M25.6,30.4L25.6,30.4c0,1.3,1.4,2.2,2.6,1.5l16.5-10.5l0.4-2.5L25.6,30.4z"/>
		<g>
			<g>
				<path fill="#FFFFFF" d="M41,41.8c0-1.6-1.3-2.8-2.9-2.7c-1.4,0.1-2.5,1.4-2.5,2.8v3.7c0,0.5,0.4,0.9,0.9,0.9h3.6
					c0.5,0,0.9-0.4,0.9-0.9V41.8z"/>
			</g>
			<g>
				<g>
					<g>
						<g>
							<path fill="#A191FF" d="M44.7,19.7c-0.3,0.3-0.4,1.1-0.5,2.1c-0.1,0.4-0.1,1-0.1,1.2c-0.1,1,0,1.8-0.1,2.7
								c-0.1,0.5-0.1,1-0.1,1.4c0,0.2,0,0.2-0.1,0.3c0,0-0.1,0.1-0.1,0.1c0,0-0.1,0.1-0.2,0.1c-0.4,0.3-0.9,0.7-1.2,1
								c-0.2,0.2-0.7,0.6-1,0.8c-0.4,0.3-0.7,0.5-0.9,0.7c-1.2,0.8-1,2,0.7,0.8c0.2-0.1,0.4-0.3,0.8-0.6c0.4-0.3,1.3-0.8,1.4-0.9
								c0.2-0.1,0.5-0.3,0.7-0.4c0.2-0.2,0.4-0.2,0.7-0.5c0.3-0.3,0.5-0.6,0.5-1c0.1-0.4,0.1-0.6,0.1-0.9c0.2-1.1,0-2.3,0.1-3.4
								c0,0,0-0.8-0.1-1.4C45.1,20.4,44.9,19.4,44.7,19.7z"/>
						</g>
					</g>
					<g>
						<g>
							<path fill="#A191FF" d="M36.8,32.7c-0.4-0.1-1.2,0.2-2,0.7c-1.6,0.9-3.4,2-4.2,2.5c-1.7,1-3.2,1.9-4.7,2.9
								c-0.2,0.1-0.2,0.1-0.4,0.2c-0.1,0-0.2,0-0.4-0.1c-0.4-0.2-0.7-0.5-1.1-0.7c-0.8-0.5-1.5-1-2.4-1.5c-3.2-2.1-6.6-4.3-9.9-6.3
								c-0.8-0.5-1.7-1-2.7-1.6c-0.5-0.3-0.9-0.6-1.4-0.8c-0.2-0.1-0.4-0.2-0.6-0.4c-0.1-0.1-0.2-0.2-0.2-0.3c0-0.1,0-0.1,0-0.2
								c0-0.2,0-0.4,0-0.6c0-0.4,0-0.9,0-1.4c0-1,0-2.2-0.1-3.1c0-0.5,0-0.9,0-1.2c0-1.4-1.1-2-1.1,0.2c0,0.2,0,0.5,0,1
								c0,1,0,2.6,0,3.9c0,0.3,0,0.7,0,1c0,0.1,0,0.3,0,0.6c0,0.2,0.1,0.4,0.2,0.5c0.2,0.3,0.5,0.5,0.6,0.6c0.1,0.1,0.2,0.2,0.3,0.2
								c3.9,2.5,7.1,4.2,10.9,6.8c1.9,1.3,3.9,2.5,5.9,3.8l0.7,0.5c0.4,0.2,0.9,0.3,1.3,0.3c0.2,0,0.5-0.1,0.7-0.2l0.4-0.2l0.7-0.5
								c1-0.6,2-1.2,3-1.8c0.2-0.1,2.8-1.8,4.8-3.2C36.4,33.5,37.2,32.8,36.8,32.7z"/>
						</g>
					</g>
					<g>
						<path fill="#FFFFFF" d="M36.8,24.2L26,30.6c-0.4,0.2-0.8,0.2-1.2,0L1.3,16.7c-0.8-0.5-0.8-1.6,0-2.1L24.8,0.8
							c0.4-0.2,0.8-0.2,1.2,0l23.5,13.9c0.8,0.5,0.8,1.6,0,2.1l-9.8,5.8"/>
						<g>
							<path fill="#A191FF" d="M39.8,22.4c0.4,0.1,1.2-0.2,2-0.6c2.2-1.2,4.6-2.6,6.7-3.9c0.3-0.2,0.5-0.3,0.8-0.5
								c0.3-0.2,0.5-0.2,0.8-0.5c0.6-0.5,0.7-1.4,0.4-2c-0.1-0.3-0.4-0.6-0.7-0.7c-0.2-0.1-0.4-0.2-0.5-0.3
								c-0.3-0.2-0.6-0.4-0.9-0.5c-4.6-2.8-8.9-5.3-13.1-7.8C33,4.3,30.9,3,28.8,1.7c-0.5-0.3-1.1-0.6-1.6-1l-0.8-0.5
								c-0.4-0.2-0.9-0.3-1.4-0.1c-0.1,0-0.2,0.1-0.3,0.1l-0.2,0.1l-0.4,0.2l-0.9,0.5c-0.6,0.3-1.1,0.7-1.7,1
								c-4.6,2.7-9.3,5.4-14,8.2c-1.2,0.7-2.3,1.4-3.5,2.1l-1.7,1l-0.9,0.5L1,14c-0.1,0.1-0.2,0.1-0.3,0.2c-0.2,0.2-0.4,0.4-0.5,0.7
								c-0.2,0.5-0.2,1.1,0,1.6c0.1,0.3,0.3,0.5,0.5,0.7c0.1,0.1,0.2,0.2,0.3,0.2l0.2,0.1l1.7,1c1.1,0.7,2.3,1.3,3.4,2
								c4.4,2.6,10.5,6.1,15,8.7c0.7,0.4,1.9,1.1,3.3,1.9c0.5,0.3,1.3,0.2,1.8-0.1c0.4-0.2,0.8-0.5,1.2-0.7c0.8-0.5,1.6-1,2.4-1.5
								c2.3-1.4,4.7-2.8,6-3.6c1.2-0.7,1.1-1.9-0.7-0.8c-1.5,0.9-4.9,2.9-8.1,4.8c-0.5,0.3-1,0.6-1.5,0.9c-0.3,0.1-0.5,0-1.1-0.3
								c-1-0.6-1.8-1.1-2.6-1.6c-1.6-0.9-2.7-1.6-3.1-1.8c-5.5-3.3-10.5-6.2-15.4-9.1l-1.8-1.1c-0.4-0.2-0.5-0.7-0.3-1
								c0.1-0.1,0.1-0.1,0.3-0.2l0.5-0.3l0.9-0.6c0.6-0.4,1.2-0.7,1.9-1.1c2.5-1.5,5.2-3,7.9-4.6c2.8-1.6,5.5-3.2,8.3-4.8
								c1.3-0.8,2.7-1.6,4-2.4c0.1,0,0.1,0,0.2,0c0,0,0.1,0,0.1,0l0.1,0l0.1,0.1l1,0.6l2.1,1.2c5.6,3.3,11.1,6.5,16.6,9.8
								c0.1,0.1,0.7,0.4,1.5,0.9c0.4,0.3,0.9,0.5,1.5,0.9c0.1,0.1,0.3,0.2,0.4,0.3c0.1,0,0.2,0.1,0.2,0.1c0,0,0.1,0,0.1,0.1
								c0.1,0.1,0.2,0.2,0.1,0.4c0,0.1,0,0.2-0.1,0.2c0,0,0,0.1-0.1,0.1c0,0-0.1,0-0.2,0.1c-0.3,0.2-0.7,0.4-1.1,0.6
								c-0.7,0.4-1.5,0.9-2.2,1.3c-1.5,0.9-3,1.9-4.5,2.7C40.2,21.6,39.4,22.3,39.8,22.4z"/>
						</g>
					</g>
					<g>
						<g>
							<g>
								<path fill="#D9D3FF" d="M38.3,39.1c0.5-0.7,0.4-4.2,0.5-5.2c0.1-2.6,0-4.8,0.1-7.4c0-0.7,0-1.3,0.1-2c0-0.8-0.4-1.7-1-2.2
									c-0.2-0.1-0.3-0.2-0.5-0.3L37,21.8l-0.8-0.5c-0.6-0.3-1.1-0.7-1.7-1c-1.1-0.6-2.6-1.5-3.7-2.1c-0.7-0.4-3.2-1.8-4.1-2.3
									c-1.1-0.7-2-0.2-0.3,0.8c0.9,0.5,4.3,2.6,4.7,2.8c1.3,0.8,2.5,1.5,3.7,2.2c0.6,0.4,1.2,0.7,1.8,1.1l0.5,0.3
									c0.1,0.1,0.2,0.2,0.3,0.3c0.2,0.2,0.3,0.5,0.4,0.8c0,0.1,0,0.3,0,0.4l0,0.6l0,1.2l0,2.4c0,1.6,0,3.1,0,4.7
									C37.7,33.6,37.8,39.8,38.3,39.1z"/>
							</g>
						</g>
					</g>
					<g>
						<ellipse fill="#FFFFFF" cx="25.9" cy="15.6" rx="2.4" ry="1.3"/>
						<g>
							<path fill="#A191FF" d="M28.6,15.2c-0.1-0.2-0.2-0.4-0.3-0.4c-0.3-0.4-0.8-0.6-0.9-0.7c-0.4-0.2-0.7-0.3-1.1-0.3
								c-0.4,0-0.8,0-1.1,0c-0.4,0.1-0.7,0.3-1.1,0.4c-0.3,0.1-0.7,0.2-1,0.5c-0.1,0.2-0.2,0.5-0.2,0.7c0,0.3,0.1,0.5,0.2,0.7
								c0.2,0.4,0.5,0.7,0.8,0.8c0.3,0.2,0.5,0.4,0.9,0.4c0.3,0.1,0.7,0.1,1,0.1c0.3,0,0.7,0,1-0.1c0.2,0,0.6-0.1,1.1-0.3
								c0.2-0.1,0.4-0.3,0.6-0.5c0.3-0.3,0.5-0.7,0.4-1h-0.8c0,0.1,0,0.1-0.2,0.3c-0.1,0.1-0.3,0.2-0.5,0.3c-0.4,0.2-0.9,0.2-1,0.2
								c-0.3,0-0.5,0-0.8,0c-0.3,0-0.5-0.1-0.7-0.2c-0.2-0.1-0.5-0.2-0.6-0.3c-0.1-0.2,0-0.3,0-0.3c0,0,0.2-0.2,0.4-0.3
								c0.2-0.1,0.5-0.1,0.7-0.2c0.3-0.1,0.5-0.2,0.8-0.2c0.3,0,0.5,0.2,0.8,0.3c0.1,0,0.3,0,0.6,0.1c0.1,0,0.2,0.1,0.3,0.1
								c0.1,0.1,0.2,0.1,0.2,0.2h0.8C28.7,15.5,28.7,15.3,28.6,15.2z"/>
						</g>
					</g>
				</g>
			</g>
			<path fill="#ECE9FF" d="M38.2,39.1c0,0,2,0.7,0.9,7.2l1.8-0.2C40.8,46,42.3,38.7,38.2,39.1z"/>
			<g>
				<g>
					<path fill="#A191FF" d="M40.7,42.1c0,0.1,0,0.3,0,0.4c-0.1,0.8-0.1,1.6-0.1,1.9c0,0.4,0,0.7-0.1,1c0,0.2,0,0.2-0.1,0.3
						c0,0-0.1,0.1-0.1,0.1c0,0-0.1,0-0.2,0.1l-0.5,0c-0.3,0-0.7,0-1,0c-0.7,0-1.3,0.1-2,0.1c-0.2,0-0.2,0-0.2-0.1
						c0,0-0.1-0.1-0.1-0.1c0,0,0-0.1,0-0.1c0-0.1,0,0,0-0.1c0-0.5-0.1-1.1-0.1-1.6c0-0.5,0-1.1,0-1.6c0-0.6,0.1-0.9,0.2-1.3
						c0.1-0.4,0.4-0.8,0.8-1.1c0.4-0.3,0.9-0.3,1.3-0.3c0.3,0,0.9,0.2,1.4,0.7c0.2,0.2,0.5,0.6,0.6,0.8c0.1,0.3,0.1,0.5,0.2,0.7h0.8
						c0-0.2,0-0.4-0.1-0.9c-0.1-0.4-0.5-1.1-1-1.5c-0.5-0.4-1-0.6-1.5-0.7c-0.5-0.1-0.8,0-0.9,0c-0.7,0.1-1.4,0.5-1.8,0.9
						c-0.5,0.5-0.8,1.1-0.9,1.8c0,0.4,0,0.7,0,0.9c0,0.3,0,0.6,0,0.9c0,0.6-0.1,1.1-0.1,1.8c0,0.2,0,0.3,0,0.5c0,0.2,0,0.5,0.2,0.7
						c0.2,0.5,0.8,0.8,1.3,0.9c0.7,0,1.3,0.1,2,0.1c0.3,0,0.6,0,1-0.1l1.1-0.1c0.5-0.1,1-0.4,1.2-1c0.1-0.1,0.1-0.3,0.1-0.4l0-0.3
						c0-0.2,0-0.3,0-0.5c0-0.3-0.1-0.8-0.1-1.6c0-0.3-0.1-0.5-0.1-0.8c0-0.2-0.1-0.5-0.1-0.7h-0.8C40.7,41.9,40.7,42,40.7,42.1z"/>
				</g>
			</g>
		</g>
	</g>
</g>
</svg>
