<?xml version="1.0" encoding="UTF-8" standalone="no"?>
<!-- Created with Inkscape (http://www.inkscape.org/) -->
<svg
   xmlns:dc="http://purl.org/dc/elements/1.1/"
   xmlns:cc="http://creativecommons.org/ns#"
   xmlns:rdf="http://www.w3.org/1999/02/22-rdf-syntax-ns#"
   xmlns:svg="http://www.w3.org/2000/svg"
   xmlns="http://www.w3.org/2000/svg"
   xmlns:sodipodi="http://sodipodi.sourceforge.net/DTD/sodipodi-0.dtd"
   xmlns:inkscape="http://www.inkscape.org/namespaces/inkscape"
   id="svg2"
   sodipodi:version="0.32"
   inkscape:version="0.46"
   width="600"
   height="619"
   version="1.0"
   sodipodi:docname="A-symbolWR.svg"
   inkscape:output_extension="org.inkscape.output.svg.inkscape">
  <metadata
     id="metadata7">
    <rdf:RDF>
      <cc:Work
         rdf:about="">
        <dc:format>image/svg+xml</dc:format>
        <dc:type
           rdf:resource="http://purl.org/dc/dcmitype/StillImage" />
      </cc:Work>
    </rdf:RDF>
  </metadata>
  <defs
     id="defs5">
    <inkscape:perspective
       sodipodi:type="inkscape:persp3d"
       inkscape:vp_x="0 : 526.18109 : 1"
       inkscape:vp_y="0 : 1000 : 0"
       inkscape:vp_z="744.09448 : 526.18109 : 1"
       inkscape:persp3d-origin="372.04724 : 350.78739 : 1"
       id="perspective9" />
  </defs>
  <sodipodi:namedview
     inkscape:window-height="712"
     inkscape:window-width="1024"
     inkscape:pageshadow="2"
     inkscape:pageopacity="0.0"
     guidetolerance="10.0"
     gridtolerance="10.0"
     objecttolerance="10.0"
     borderopacity="1.0"
     bordercolor="#666666"
     pagecolor="#ffffff"
     id="base"
     showgrid="false"
     inkscape:zoom="1.638126"
     inkscape:cx="251.14327"
     inkscape:cy="68.708893"
     inkscape:window-x="0"
     inkscape:window-y="22"
     inkscape:current-layer="svg2" />
  <rect
     style="opacity:1;fill:#ffffff;fill-opacity:1;fill-rule:nonzero;stroke:none;stroke-width:0.5;stroke-miterlimit:4;stroke-dasharray:none;stroke-opacity:1"
     id="rect2380"
     width="610.45367"
     height="627.54633"
     x="-2.441819"
     y="-7.3254437" />
  <path
     id="path2428"
     d="M 0,309.5 L 0,0 L 279.5,1.0638205 C 221.09837,5.1502376 163.64988,27.265172 116,64.003538 C 103.76361,73.437875 74.437875,102.76361 65.003538,115 C 37.916005,150.13269 18.56756,190.87055 8.9594377,233 C -9.3371871,313.22658 5.9280184,396.29547 51.49657,464.47493 C 62.902003,481.53969 70.901504,491.58582 84.051928,505.3594 C 125.5525,548.82656 180.63188,579.40114 239,591.37114 C 260.80147,595.84213 275.61659,597.27633 300,597.27633 C 348.74091,597.27633 388.82853,587.97115 432.5,566.5203 C 461.89516,552.08178 487.68153,533.57067 511.07662,510.11296 C 596.19789,424.76383 621.53897,300.3673 576.79679,187.5 C 567.62856,164.37209 551.51614,136.42613 534.99646,115 C 525.56212,102.76361 496.23639,73.437875 484,64.003538 C 436.35012,27.265172 378.90163,5.1502376 320.5,1.0638205 L 600,0 L 600,309.5 L 600,619 L 300,619 L 0,619 L 0,309.5 z M 273.5,542.9473 C 231.01139,538.60298 187.65124,521.50501 153.0797,495.46263 C 138.66859,484.60689 131.75128,477.82498 132.64511,475.42802 L 197.87026,336 L 402.12974,336 L 467.14622,474.92384 C 467.97814,477.07708 467.45192,477.94415 462.43271,482.69052 C 448.90754,495.48046 423.58551,512.20531 403.77129,521.43556 C 383.61328,530.82596 359.8345,538.0746 338,541.48504 C 325.51943,543.43445 286.84051,544.31132 273.5,542.9473 z M 92.72199,430.31539 C 74.811586,401.67123 63.706503,372.72938 58.018417,339.87162 C 53.546524,314.03931 54.391997,276.29603 60.054688,248.96912 C 79.99805,152.72681 156.34604,77.38334 253.03165,58.531171 C 268.39557,55.535449 273,55.315812 273,57.578654 L 96.193194,433.76894 C 95.596145,433.96795 94.034103,432.41386 92.72199,430.31539 z M 327,57.485909 C 327,55.327015 331.8329,55.579997 346.96835,58.531171 C 444.78422,77.603722 521.61368,154.36243 540.39044,251.77512 C 552.21038,313.09628 541.25934,374.911 509.36005,426.93054 C 507.19123,430.46734 504.86657,433.54448 504.19414,433.76862 L 327,57.485909 z M 224.05498,285.05514 L 300.20505,122.23502 L 375.92401,285.06813 L 224.05498,285.05514 z"
     style="fill:#ff0000"
     sodipodi:nodetypes="cccssssssssssssccccccccsccccsssccsssccccssscccccc" />
  <path
     id="path2426"
     d="M 0.13751936,475.75 C 0.21607386,393.92201 0.62382187,336.57336 1.0884798,342 C 6.235697,402.11322 26.397305,454.48844 62.872251,502.5 C 71.830766,514.29199 100.89601,543.82233 113,553.42988 C 134.6167,570.58815 164.96803,588.04467 191.04394,598.31673 C 218.87611,609.28064 251.89445,616.43066 283.5,618.33779 C 286.25,618.50373 223.5875,618.72062 144.25,618.81975 L 0,619 L 0.13751936,475.75 z M 316.5,618.33779 C 387.04726,614.08084 453.14594,586.0326 503.3093,539.06734 C 559.9292,486.05718 592.28795,419.35525 598.91152,342 C 599.37618,336.57336 599.78393,393.92201 599.86248,475.75 L 600,619 L 455.75,618.81975 C 376.4125,618.72062 313.75,618.50373 316.5,618.33779 z M 271.5,543.45637 C 234.6625,539.40092 196.26275,525.29361 164.42681,504.11978 C 150.85616,495.09405 138.97309,485.54293 139.0563,483.72801 L 197.59719,356.5 L 402.36932,356.5 L 460.94764,483.72801 C 461.07959,486.82255 434.55973,505.82555 415.41067,516.35785 C 397.36261,526.28458 371.43742,535.74113 350.5,540.03484 C 327.12556,544.82833 296.14875,546.16995 271.5,543.45637 z M 94.284378,430.75 C 89.516724,424.54542 77.389466,400.79195 72.38294,387.85199 C 58.845351,352.86251 52.685596,307.92763 57.446407,278.89128 C 65.95816,226.9778 91.265607,178.92691 129.40782,142.25917 C 163.26868,109.70727 203.94281,88.053631 249.16076,78.506428 C 262.91181,75.603067 263,75.595166 263,77.266572 L 95.987362,432 C 95.579002,432 94.812659,431.4375 94.284378,430.75 z M 337,77.260572 C 337,75.595631 337.04536,75.599751 351.23408,78.553268 C 448.80102,98.862759 527.88204,181.67525 542.47222,278.81505 C 547.03931,309.2222 541.44141,351.72862 528.35646,386 C 522.36225,401.69972 506.40868,432 504.13674,432 L 337,77.260572 z M 0.13910989,154.75 L 0,0 L 143.25,0.13926311 C 267.29304,0.25985382 284.28768,0.4474529 270,1.5384211 C 210.16113,6.1075538 147.92235,33.277145 100.78143,75.408755 C 55.341626,116.02002 24.094032,167.86263 9.1100169,227.5 C 4.516246,245.78351 2.8051071,258.56019 1.5431564,284 C 0.40941655,306.85519 0.26379158,293.44963 0.13910989,154.75 z M 598.55828,286.75 C 597.79536,262.98745 595.5135,245.79831 590.48062,225.90145 C 571.61164,151.30534 525.24904,87.325358 460.09696,45.973177 C 420.23975,20.675711 374.05907,4.9026515 330,1.5384211 C 315.71232,0.4474529 332.70696,0.25985382 456.75,0.13926311 L 600,0 L 600,154.5 C 600,239.475 599.83634,309 599.63631,309 C 599.43629,309 598.95117,298.9875 598.55828,286.75 z M 232.59453,286.15295 L 299.9605,141.5 L 367.42278,286.12495 L 232.59453,286.15295 z"
     style="fill:#000000;fill-opacity:1"
     sodipodi:nodetypes="csssssccccsscccccsccccssccssssccccssscccccssssccssscccsccccc" />
</svg>
