<?xml version="1.0" encoding="utf-8"?>
<!-- Generator: Adobe Illustrator 16.0.4, SVG Export Plug-In . SVG Version: 6.00 Build 0)  -->
<!DOCTYPE svg PUBLIC "-//W3C//DTD SVG 1.1//EN" "http://www.w3.org/Graphics/SVG/1.1/DTD/svg11.dtd">
<svg version="1.1" id="Layer_1" xmlns="http://www.w3.org/2000/svg" xmlns:xlink="http://www.w3.org/1999/xlink" x="0px" y="0px"
	 width="655px" height="247.172px" viewBox="0 0 655 247.172" enable-background="new 0 0 655 247.172" xml:space="preserve">
<g>
	<g>
		<path fill="#A0A1A1" d="M21.921,56.274h26.555l5.281,17.254h16.64L44.59,0.744H25.708L0,73.529h16.641L21.921,56.274z
			 M35.224,11.999c0.265,1.19,0.705,2.81,1.32,4.859c0.614,2.05,3.363,10.892,8.245,26.526H25.808
			C30.989,26.691,34.128,16.23,35.224,11.999z M113.352,1.041H97.908v72.488h44.989V60.836h-29.544V1.041z M193.42,60.836h-26.505
			V42.144h24.662V29.55h-24.662V13.635h26.505V1.041h-41.95v72.488h41.95V60.836z M235.174,74.52c4.317,0,8.544-0.306,12.68-0.917
			s8.544-1.677,13.228-3.198V32.822h-28.896v12.792h13.8v15.123c-3.321,0.662-6.593,0.992-9.814,0.992
			c-6.178,0-10.886-2.074-14.125-6.223c-3.239-4.148-4.858-10.156-4.858-18.023c0-7.536,2.009-13.536,6.029-17.998
			c4.018-4.462,9.366-6.694,16.042-6.694c5.746,0,11.276,1.323,16.59,3.967l5.132-12.296C254.04,1.487,246.833,0,239.359,0
			c-11.925,0-21.249,3.272-27.975,9.817c-6.726,6.544-10.089,15.667-10.089,27.369c0,12.032,2.897,21.263,8.694,27.691
			C215.785,71.306,224.18,74.52,235.174,74.52z M309.761,0.744h-18.882l-25.708,72.785h16.641l5.281-17.254h26.555l5.281,17.254
			h16.641L309.761,0.744z M290.979,43.383c5.182-16.692,8.32-27.153,9.417-31.385c0.265,1.19,0.705,2.81,1.32,4.859
			c0.614,2.05,3.363,10.892,8.246,26.526H290.979z M370.149,74.52c7.373,0,14.05-1.239,20.028-3.718V57.911
			c-7.274,2.545-13.47,3.818-18.584,3.818c-12.189,0-18.284-8.082-18.284-24.246c0-7.767,1.594-13.824,4.782-18.171
			c3.189-4.346,7.689-6.52,13.502-6.52c2.657,0,5.363,0.479,8.121,1.438c2.757,0.959,5.497,2.083,8.221,3.372l4.982-12.495
			C385.776,1.703,378.669,0,371.594,0c-6.942,0-12.995,1.512-18.16,4.536c-5.165,3.025-9.126,7.372-11.882,13.04
			c-2.758,5.669-4.136,12.271-4.136,19.808c0,11.966,2.807,21.146,8.42,27.542S359.554,74.52,370.149,74.52z M416.587,73.529h15.345
			V45.317l24.164-44.276h-16.641L424.26,30.889L409.163,1.041h-16.739l24.163,44.771V73.529z M40.704,84.519
			c-11.193,0-19.788,3.182-25.783,9.544c-5.996,6.364-8.993,15.577-8.993,27.642c0,12.065,2.989,21.32,8.968,27.765
			c5.979,6.446,14.548,9.669,25.708,9.669c11.16,0,19.729-3.223,25.708-9.669c5.979-6.445,8.968-15.667,8.968-27.666
			c0-12.031-2.964-21.253-8.894-27.666C60.458,87.725,51.897,84.519,40.704,84.519z M40.604,146.247
			c-6.145,0-10.761-2.049-13.85-6.147s-4.634-10.197-4.634-18.296c0-8.098,1.561-14.205,4.684-18.32
			c3.122-4.115,7.755-6.173,13.9-6.173c12.256,0,18.384,8.165,18.384,24.493C59.088,138.1,52.927,146.247,40.604,146.247z
			 M86.295,158.146h15.195v-28.657h24.711v-12.544h-24.711V98.253h26.555V85.659h-41.75V158.146z M199.199,141.091H198.9
			l-17.238-55.432h-21.024v72.487h13.8v-33.715c0-3.867-0.316-11.585-0.946-23.154h0.448l17.537,56.869h14.149l18.783-56.77h0.449
			c-0.399,9.123-0.623,14.743-0.673,16.857c-0.05,2.116-0.075,3.983-0.075,5.603v34.31h14.398V85.659h-21.025L199.199,141.091z
			 M269.302,85.362l-25.708,72.785h16.64l5.281-17.254h26.555l5.281,17.254h16.641l-25.808-72.785H269.302z M269.402,128.002
			c5.181-16.692,8.32-27.154,9.416-31.385c0.266,1.19,0.706,2.81,1.32,4.859c0.614,2.05,3.363,10.892,8.246,26.526H269.402z
			 M377.469,85.659H360.33l-19.729,24.642l-6.078,8.528v-33.17h-15.444v72.487h15.444v-25.881l6.527-4.661l19.081,30.542h17.537
			l-25.608-40.408L377.469,85.659z M382.754,158.146h15.445V85.659h-15.445V158.146z M463.17,119.969
			c0,3.901,0.249,10.561,0.748,19.981h-0.35l-31.637-54.291h-19.479v72.487h13.8v-34.111c0-4.132-0.315-11.04-0.946-20.725h0.448
			l31.687,54.836h19.63V85.659h-13.9V119.969z M518.975,117.44v12.792h13.801v15.122c-3.322,0.662-6.594,0.992-9.815,0.992
			c-6.178,0-10.886-2.074-14.124-6.223c-3.238-4.147-4.857-10.155-4.857-18.023c0-7.536,2.009-13.536,6.028-17.998
			c4.019-4.462,9.366-6.694,16.042-6.694c5.746,0,11.276,1.323,16.591,3.967l5.132-12.296c-6.942-2.975-14.149-4.462-21.623-4.462
			c-11.924,0-21.248,3.272-27.975,9.817c-6.726,6.545-10.089,15.667-10.089,27.369c0,12.032,2.897,21.263,8.694,27.691
			c5.795,6.429,14.19,9.644,25.185,9.644c4.317,0,8.544-0.307,12.68-0.918c4.135-0.61,8.544-1.677,13.228-3.197V117.44H518.975z"/>
	</g>
</g>
<g>
	<g>
		<path fill="#1A3967" d="M25.708,172.958L0,245.744h16.641l5.281-17.254h26.555l5.281,17.254h16.64L44.59,172.958H25.708z
			 M25.808,215.599c5.182-16.692,8.32-27.154,9.417-31.386c0.265,1.19,0.705,2.811,1.32,4.859c0.614,2.05,3.363,10.892,8.245,26.526
			H25.808z M120.776,173.256H97.908v72.487h20.626c12.887,0,22.744-3.173,29.569-9.52c6.825-6.346,10.238-15.485,10.238-27.418
			c0-11.205-3.288-19.932-9.865-26.179S132.666,173.256,120.776,173.256z M119.979,233.051h-6.626V185.85h8.221
			c13.817,0,20.726,7.784,20.726,23.353C142.299,225.102,134.858,233.051,119.979,233.051z M169.356,245.744H184.8v-72.487h-15.444
			V245.744z M199.054,245.744h15.195v-28.657h24.712v-12.544h-24.712V185.85h26.555v-12.594h-41.75V245.744z M250.972,245.744
			h15.196v-28.657h24.711v-12.544h-24.711V185.85h26.555v-12.594h-41.75V245.744z M302.89,245.744h41.95v-12.692h-26.505v-18.692
			h24.662v-12.594h-24.662V185.85h26.505v-12.594h-41.95V245.744z M402.736,206.352c2.358-3.322,3.537-7.115,3.537-11.379
			c0-7.305-2.375-12.75-7.124-16.337c-4.75-3.587-12.074-5.38-21.972-5.38h-21.224v72.487h15.444v-27.814h8.221l17.388,27.814
			h17.139c-3.321-4.76-10.463-15.287-21.423-31.583C397.04,212.277,400.378,209.673,402.736,206.352z M387.192,203.005
			c-2.325,1.619-5.929,2.43-10.812,2.43h-4.982V185.85h4.684c4.982,0,8.66,0.728,11.035,2.182c2.375,1.455,3.562,3.9,3.562,7.338
			C390.68,198.84,389.517,201.386,387.192,203.005z M419.231,245.744h41.95v-12.692h-26.506v-18.692h24.662v-12.594h-24.662V185.85
			h26.506v-12.594h-41.95V245.744z M523.014,207.567c0,3.9,0.25,10.561,0.748,19.98h-0.35l-31.637-54.291h-19.479v72.487h13.8
			v-34.111c0-4.132-0.315-11.04-0.946-20.725h0.448l31.687,54.836h19.63v-72.487h-13.9V207.567z M582.106,185.007
			c2.657,0,5.363,0.479,8.121,1.438c2.757,0.959,5.496,2.083,8.221,3.372l4.981-12.495c-7.142-3.403-14.248-5.106-21.323-5.106
			c-6.942,0-12.996,1.512-18.16,4.536c-5.165,3.024-9.126,7.372-11.882,13.04c-2.758,5.67-4.136,12.271-4.136,19.808
			c0,11.967,2.807,21.146,8.42,27.543c5.612,6.396,13.718,9.594,24.312,9.594c7.374,0,14.05-1.24,20.029-3.719v-12.892
			c-7.274,2.546-13.47,3.818-18.584,3.818c-12.19,0-18.284-8.082-18.284-24.245c0-7.768,1.594-13.825,4.782-18.172
			C571.793,187.181,576.294,185.007,582.106,185.007z M654.053,185.85v-12.594h-41.949v72.487h41.949v-12.692h-26.505v-18.692
			h24.662v-12.594h-24.662V185.85H654.053z"/>
	</g>
</g>
</svg>
