<?xml version="1.0" encoding="utf-8"?>
<!-- Generator: Adobe Illustrator 16.0.3, SVG Export Plug-In . SVG Version: 6.00 Build 0)  -->
<!DOCTYPE svg PUBLIC "-//W3C//DTD SVG 1.1//EN" "http://www.w3.org/Graphics/SVG/1.1/DTD/svg11.dtd">
<svg version="1.1" id="Layer_3" xmlns="http://www.w3.org/2000/svg" xmlns:xlink="http://www.w3.org/1999/xlink" x="0px" y="0px"
	 width="8503.94px" height="2834.65px" viewBox="0 0 8503.94 2834.65" enable-background="new 0 0 8503.94 2834.65"
	 xml:space="preserve">
<g>
	<path fill="#9B9B9B" d="M1907.617,1342.643v234.683h-79.051v-599.47h221.096c65.599,0,116.994,16.746,154.19,50.23
		c37.19,33.491,55.789,77.816,55.789,132.987c0,58.194-18.187,103.001-54.553,134.428c-36.373,31.433-88.456,47.142-156.249,47.142
		H1907.617z M1907.617,1278.002h142.044c42.266,0,74.657-9.965,97.167-29.901c22.503-19.93,33.761-48.738,33.761-86.41
		c0-35.743-11.258-64.338-33.761-85.787c-22.51-21.448-53.389-32.584-92.638-33.408h-146.574V1278.002z"/>
	<path fill="#9B9B9B" d="M3120.966,1300.235h-259.797v212.449h301.793v64.641h-380.845v-599.47h376.728v64.641h-297.676v193.099
		h259.797V1300.235z"/>
	<path fill="#9B9B9B" d="M3902.829,1334.82h-140.81v242.505h-79.463v-599.47h198.451c67.523,0,119.464,15.375,155.837,46.113
		c36.367,30.744,54.554,75.487,54.554,134.222c0,37.332-10.087,69.858-30.262,97.579c-20.174,27.727-48.243,48.448-84.198,62.17
		l140.81,254.445v4.941h-84.815L3902.829,1334.82z M3762.02,1270.179h121.458c39.249,0,70.469-10.171,93.667-30.519
		c23.191-20.348,34.791-47.573,34.791-81.675c0-37.12-11.052-65.574-33.144-85.375c-22.098-19.801-54.007-29.837-95.726-30.114
		H3762.02V1270.179z"/>
	<path fill="#9B9B9B" d="M4843.617,1334.82h-140.81v242.505h-79.462v-599.47h198.45c67.522,0,119.465,15.375,155.838,46.113
		c36.366,30.744,54.553,75.487,54.553,134.222c0,37.332-10.087,69.858-30.262,97.579c-20.174,27.727-48.242,48.448-84.197,62.17
		l140.81,254.445v4.941h-84.815L4843.617,1334.82z M4702.808,1270.179h121.459c39.249,0,70.469-10.171,93.667-30.519
		c23.191-20.348,34.791-47.573,34.791-81.675c0-37.12-11.053-65.574-33.145-85.375c-22.098-19.801-54.006-29.837-95.726-30.114
		h-121.047V1270.179z"/>
	<path fill="#9B9B9B" d="M5649.361,1577.325h-79.051v-599.47h79.051V1577.325z"/>
	<path fill="#9B9B9B" d="M6676.199,1577.325h-79.463l-301.793-461.954v461.954h-79.463v-599.47h79.463l302.617,464.013V977.855
		h78.639V1577.325z"/>
</g>
<g>
	<path fill="#9B9B9B" d="M2813.16,1940.689c0-8.645-3.038-15.488-9.11-20.525c-6.074-5.038-17.186-9.824-33.334-14.362
		c-16.149-4.537-27.939-9.486-35.37-14.845c-10.576-7.573-15.863-17.506-15.863-29.797c0-11.933,4.912-21.632,14.738-29.1
		c9.824-7.466,22.383-11.201,37.675-11.201c10.36,0,19.631,2.001,27.814,6.002c8.181,4.002,14.523,9.576,19.025,16.72
		c4.501,7.146,6.752,15.113,6.752,23.902h-13.291c0-10.678-3.644-19.261-10.933-25.747c-7.288-6.486-17.079-9.73-29.368-9.73
		c-11.934,0-21.437,2.667-28.511,7.999c-7.074,5.333-10.611,12.291-10.611,20.879c0,7.945,3.178,14.423,9.539,19.432
		c6.359,5.011,16.542,9.43,30.547,13.259c14.004,3.828,24.615,7.797,31.833,11.905c7.216,4.11,12.647,9.022,16.292,14.738
		c3.645,5.717,5.466,12.47,5.466,20.257c0,12.291-4.914,22.152-14.737,29.583c-9.826,7.433-22.776,11.147-38.854,11.147
		c-11.004,0-21.098-1.966-30.279-5.895c-9.183-3.929-16.149-9.432-20.901-16.506c-4.753-7.074-7.127-15.183-7.127-24.331h13.184
		c0,11.004,4.108,19.687,12.326,26.045c8.216,6.36,19.149,9.539,32.798,9.539c12.147,0,21.9-2.68,29.261-8.039
		C2809.479,1956.659,2813.16,1949.55,2813.16,1940.689z"/>
	<path fill="#9B9B9B" d="M3092.457,1834.149h-53.484v144.911h-13.184v-144.911h-53.376v-11.147h120.044V1834.149z"/>
	<path fill="#9B9B9B" d="M3265.428,1979.061h-13.183v-156.058h13.183V1979.061z"/>
	<path fill="#9B9B9B" d="M3452.762,1967.914h77.064v11.147h-90.355v-156.058h13.291V1967.914z"/>
	<path fill="#9B9B9B" d="M3773.002,1904.247h-72.991v63.667h83.924v11.147h-97.107v-156.058h96.571v11.147h-83.388v58.951h72.991
		V1904.247z"/>
	<path fill="#9B9B9B" d="M4128.483,1979.061v-156.058h43.623c12.79,0,24.259,2.913,34.406,8.736
		c10.146,5.824,18.061,14.167,23.741,25.027c5.681,10.862,8.521,23.224,8.521,37.085v14.362c0,13.934-2.824,26.296-8.468,37.085
		c-5.646,10.791-13.595,19.116-23.848,24.974c-10.254,5.86-22.026,8.789-35.316,8.789H4128.483z M4141.667,1834.149v133.764h29.582
		c16.434,0,29.618-5.453,39.551-16.359c9.931-10.906,14.898-25.655,14.898-44.248v-13.731c0-17.948-4.895-32.322-14.684-43.121
		c-9.791-10.798-22.688-16.233-38.693-16.305H4141.667z"/>
	<path fill="#9B9B9B" d="M4419.999,1979.061h-13.184v-156.058h13.184V1979.061z"/>
	<path fill="#9B9B9B" d="M4891.452,1823.002v102.789c0,17.079-5.342,30.583-16.023,40.515
		c-10.684,9.933-25.278,14.898-43.784,14.898c-18.221,0-32.69-4.823-43.409-14.47c-10.718-9.646-16.185-22.9-16.398-39.765v-103.967
		h32.154v103.003c0,10.219,2.447,17.668,7.342,22.347c4.894,4.681,11.665,7.021,20.312,7.021c18.077,0,27.26-9.502,27.546-28.51
		v-103.86H4891.452z"/>
	<path fill="#9B9B9B" d="M5177.716,1904.569c0,15.364-2.716,28.832-8.146,40.408c-5.432,11.576-13.202,20.509-23.313,26.795
		c-10.112,6.289-21.704,9.432-34.78,9.432c-12.935,0-24.475-3.108-34.62-9.325c-10.147-6.217-18.007-15.094-23.58-26.635
		c-5.574-11.539-8.397-24.813-8.468-39.818v-7.717c0-15.362,2.769-28.886,8.307-40.569c5.536-11.683,13.361-20.649,23.473-26.903
		c10.11-6.251,21.668-9.378,34.674-9.378c13.004,0,24.562,3.127,34.674,9.378c10.11,6.253,17.935,15.22,23.473,26.903
		c5.537,11.683,8.307,25.171,8.307,40.461V1904.569z M5145.133,1897.495c0-16.362-2.932-28.795-8.789-37.3
		c-5.86-8.502-14.221-12.754-25.081-12.754c-10.79,0-19.115,4.198-24.974,12.594c-5.859,8.397-8.826,20.705-8.896,36.924v7.61
		c0,15.935,2.93,28.296,8.789,37.085c5.858,8.789,14.291,13.184,25.296,13.184c10.788,0,19.078-4.234,24.866-12.701
		c5.787-8.467,8.717-20.81,8.789-37.032V1897.495z"/>
	<path fill="#9B9B9B" d="M5374.804,1823.002l40.086,113.185l39.872-113.185h42.23v156.058h-32.262v-42.659l3.215-73.634
		l-42.123,116.293h-22.079l-42.016-116.186l3.216,73.527v42.659h-32.155v-156.058H5374.804z"/>
	<path fill="#9B9B9B" d="M5784.97,1904.569c0,15.364-2.716,28.832-8.146,40.408c-5.432,11.576-13.202,20.509-23.313,26.795
		c-10.112,6.289-21.704,9.432-34.78,9.432c-12.935,0-24.475-3.108-34.62-9.325c-10.147-6.217-18.007-15.094-23.58-26.635
		c-5.574-11.539-8.397-24.813-8.468-39.818v-7.717c0-15.362,2.769-28.886,8.307-40.569c5.536-11.683,13.361-20.649,23.473-26.903
		c10.11-6.251,21.668-9.378,34.674-9.378c13.004,0,24.562,3.127,34.674,9.378c10.11,6.253,17.935,15.22,23.473,26.903
		c5.537,11.683,8.307,25.171,8.307,40.461V1904.569z M5752.387,1897.495c0-16.362-2.932-28.795-8.789-37.3
		c-5.86-8.502-14.221-12.754-25.081-12.754c-10.79,0-19.115,4.198-24.974,12.594c-5.859,8.397-8.826,20.705-8.896,36.924v7.61
		c0,15.935,2.93,28.296,8.789,37.085c5.858,8.789,14.291,13.184,25.296,13.184c10.788,0,19.078-4.234,24.866-12.701
		c5.787-8.467,8.717-20.81,8.789-37.032V1897.495z"/>
</g>
</svg>
