<?xml version="1.0" encoding="iso-8859-1"?>
<!-- Generator: Adobe Illustrator 18.1.1, SVG Export Plug-In . SVG Version: 6.00 Build 0)  -->
<svg version="1.1" id="Layer_1" xmlns="http://www.w3.org/2000/svg" xmlns:xlink="http://www.w3.org/1999/xlink" x="0px" y="0px"
	 viewBox="0 0 283.46 283.46" style="enable-background:new 0 0 283.46 283.46;" xml:space="preserve">
<g>
	<path style="fill:#3D1D08;" d="M80.701,156.128l-20.843,7.462c0,0,31.65,37.311,59.698,2.831l-13.123-21.872l-22.129,0.257
		L80.701,156.128z"/>
	<path style="fill:#F9CEB7;" d="M200.732,268.577c-69.476-21.1-24.188-93.664-24.188-93.664l-32.165,7.148l-32.165-7.148
		c0,0,45.288,72.564-24.188,93.664l-2.059,14.883h58.154h0.515h58.154L200.732,268.577z"/>
	<path style="fill:#F9CEB7;" d="M200.732,268.577c-69.476-21.1-24.188-93.664-24.188-93.664l-32.165,7.148l-32.165-7.148
		c0,0,45.288,72.564-24.188,93.664l-2.059,14.883h58.154h0.515h58.154L200.732,268.577z"/>
	<path style="fill:#E8B8A3;" d="M162.518,229.426c-2.234-16.561,3.882-33.84,8.735-44.393c-0.396-2.976-0.966-5.842-1.692-8.569
		l-25.182,5.596l-25.182-5.596c-0.726,2.727-1.296,5.593-1.692,8.569c4.853,10.552,10.968,27.832,8.735,44.393
		c4.845,7.067,11.189,11.36,18.139,11.36C151.329,240.786,157.673,236.493,162.518,229.426z"/>
	<path style="fill:#F9CEB7;" d="M144.379,14.86c-53.391,8.717-62.868,49.403-62.868,49.403s0.801,70.845,15.217,106.72
		c14.416,35.875,38.709,41.575,47.652,41.575c8.943,0,33.236-5.7,47.652-41.575c14.416-35.875,15.217-106.72,15.217-106.72
		S197.77,23.577,144.379,14.86z"/>
	<g>
		<g>
			<path style="fill:#115E89;" d="M100.787,111.62c0,0,4.619-6.566,19.262-7.728l5.607,7.67L100.787,111.62z"/>
			<circle style="fill:#115E89;" cx="112.641" cy="111.462" r="5.81"/>
		</g>
		<g>
			<path style="fill:#115E89;" d="M187.971,111.62c0,0-4.619-6.566-19.262-7.728l-5.607,7.67L187.971,111.62z"/>
			<circle style="fill:#115E89;" cx="176.118" cy="111.462" r="5.81"/>
		</g>
	</g>
	<g>
		<path style="fill:#773A08;" d="M160.32,102.529l14.037-0.257c5.948-4.117,14.989-7.462,19.509-1.801l-2.379-4.889l-28.55,1.801
			L160.32,102.529z"/>
		<path style="fill:#773A08;" d="M128.439,102.529l-14.037-0.257c-5.948-4.117-14.989-7.462-19.509-1.801l2.379-4.889l28.55,1.801
			L128.439,102.529z"/>
	</g>
	<g>
		<path style="fill:#115E89;" d="M99.638,105.436l5.661,4.155C105.299,109.591,98.866,111.669,99.638,105.436z"/>
		<path style="fill:#115E89;" d="M189.121,105.436l-5.661,4.155C183.46,109.591,189.893,111.669,189.121,105.436z"/>
	</g>
	<g>
		<path style="opacity:0.44;fill:#D89D88;" d="M103.208,118.302h19.042C122.25,118.302,109.641,127.308,103.208,118.302z"/>
		<path style="opacity:0.44;fill:#D89D88;" d="M185.55,118.302h-19.042C166.509,118.302,179.117,127.308,185.55,118.302z"/>
	</g>
	<path style="fill:#D89D88;" d="M170.754,167.707c-4.229,9.734-20.142-2.36-26.375,6.784c-6.232-9.144-22.146,2.95-26.375-6.784
		c0,0-0.445,6.489,13.132,6.784l13.242,5.31l13.243-5.31C171.199,174.197,170.754,167.707,170.754,167.707z"/>
	<g>
		<path style="opacity:0.38;fill:#D89D88;" d="M163.292,151.496h33.966C197.258,151.496,180.563,178.257,163.292,151.496z"/>
		<path style="opacity:0.38;fill:#D89D88;" d="M125.466,151.496H91.5C91.5,151.496,108.195,178.257,125.466,151.496z"/>
	</g>
	<path style="opacity:0.38;fill:#D89D88;" d="M129.455,183.743c1.496,4.32,7.608,7.557,14.925,7.557
		c7.317,0,13.429-3.236,14.925-7.557H129.455z"/>
	<g>
		<linearGradient id="SVGID_1_" gradientUnits="userSpaceOnUse" x1="144.3791" y1="162.4178" x2="144.3791" y2="105.0646">
			<stop  offset="0" style="stop-color:#D89D88"/>
			<stop  offset="1" style="stop-color:#F9CEB7"/>
		</linearGradient>
		<path style="fill:url(#SVGID_1_);" d="M156.948,150.947l-3.139-18.812l-0.349-27.071h-7.696h-2.768h-7.696l-0.349,27.071
			l-3.139,18.812c-7.674,0-4.186,6.882,5.93,6.882l3.482,4.588h1.772h2.768h1.772l3.482-4.588
			C161.134,157.83,164.622,150.947,156.948,150.947z"/>
		<path style="opacity:0.44;fill:#D89D88;" d="M128.672,155.051c1.517,1.473,4.664,2.778,9.068,2.778l3.482,4.588h1.772h2.768h1.772
			l3.482-4.588c4.404,0,7.551-1.305,9.068-2.778H128.672z"/>
		<ellipse style="opacity:0.2;fill:#FFFFFF;" cx="144.379" cy="143.344" rx="6.446" ry="14.864"/>
		<g>
			
				<ellipse transform="matrix(0.9592 -0.2826 0.2826 0.9592 -38.1455 49.8827)" style="fill:#42210B;" cx="153.842" cy="157.17" rx="3.307" ry="0.647"/>
			
				<ellipse transform="matrix(-0.9592 -0.2826 0.2826 -0.9592 219.9168 346.0602)" style="fill:#42210B;" cx="134.916" cy="157.17" rx="3.307" ry="0.647"/>
		</g>
	</g>
	<g>
		<circle style="opacity:0.44;fill:#D89D88;" cx="146.695" cy="118.216" r="1.115"/>
		<circle style="fill:#D89D88;" cx="156.216" cy="121.561" r="1.029"/>
		<circle style="fill:#D89D88;" cx="159.389" cy="116.844" r="0.944"/>
		<circle style="fill:#D89D88;" cx="137.346" cy="122.762" r="0.515"/>
		<circle style="fill:#D89D88;" cx="130.655" cy="121.904" r="0.858"/>
		<circle style="fill:#D89D88;" cx="136.145" cy="115.557" r="1.029"/>
		<circle style="fill:#D89D88;" cx="123.45" cy="126.193" r="0.686"/>
		<circle style="fill:#D89D88;" cx="165.222" cy="126.279" r="0.772"/>
	</g>
	<linearGradient id="SVGID_2_" gradientUnits="userSpaceOnUse" x1="198.8103" y1="176.6415" x2="198.8103" y2="14.0876">
		<stop  offset="0" style="stop-color:#562D0F"/>
		<stop  offset="1" style="stop-color:#3D1D08"/>
	</linearGradient>
	<path style="fill:url(#SVGID_2_);" d="M213.992,153.04c25.909-25.533,11.957-51.747,2.518-64.059
		c7.829-28.165,8.395-66.487-41.888-74.894l-5.918,24.445c33.529,8.823,26.308,70.987,34.713,81.007
		c-2.242,18.289-5.785,37.503-11.386,51.442c-0.73,1.818-1.492,3.538-2.27,5.204c22.881,3.732,39.156-16.713,39.156-16.713
		L213.992,153.04z"/>
	<path style="fill:#562D0F;" d="M172.821,38.79l-56.868,13.123c-2.316,37.054-19.042,38.855-19.042,38.855
		c7.462,21.358-13.638,15.954-4.374,45.288s-16.983,41.686-29.849,30.364l10.293-4.889c-60.47-22.644-15.439-58.154-15.439-58.154
		c-21.872-7.462,14.519-24.068,5.404-35.51c-12.094-15.182,8.749-24.96,8.749-24.96c3.345-31.136,60.47-54.552,104.729-28.305
		L172.821,38.79z"/>
	<linearGradient id="SVGID_3_" gradientUnits="userSpaceOnUse" x1="41.4259" y1="94.0959" x2="174.0046" y2="94.0959">
		<stop  offset="0" style="stop-color:#562D0F"/>
		<stop  offset="1" style="stop-color:#3D1D08"/>
	</linearGradient>
	<path style="fill:url(#SVGID_3_);" d="M115.953,51.914l56.868-13.123l1.184-7.947c-46.009-33.312-89.836,2.603-86.614,38.053
		c-17.22,0,10.938,81.121-45.902,60.609c-0.805,10.533,5.876,22.433,31.492,32.026l-10.293,4.889
		c12.866,11.322,39.113-1.029,29.849-30.364s11.837-23.931,4.374-45.288C96.912,90.769,113.638,88.968,115.953,51.914z"/>
	<path style="fill:#998675;" d="M187.806,263.43h-0.725c-11.092,8.707-26.129,14.067-42.702,14.067s-31.609-5.36-42.702-14.067
		h-0.725c-3.79,1.936-8.068,3.671-12.926,5.146l-2.059,14.883h58.154h0.515h58.154l-2.059-14.883
		C195.874,267.101,191.596,265.366,187.806,263.43z"/>
</g>
</svg>
