<?xml version="1.0" encoding="utf-8"?>
<!-- Generator: Adobe Illustrator 18.1.0, SVG Export Plug-In . SVG Version: 6.00 Build 0)  -->
<!DOCTYPE svg PUBLIC "-//W3C//DTD SVG 1.1//EN" "http://www.w3.org/Graphics/SVG/1.1/DTD/svg11.dtd">
<svg version="1.1" id="Layer_1" xmlns="http://www.w3.org/2000/svg" xmlns:xlink="http://www.w3.org/1999/xlink" x="0px" y="0px"
	 viewBox="0 0 366.5 78.2" enable-background="new 0 0 366.5 78.2" xml:space="preserve">
<path fill="#FFFFFF" d="M7.3,71.6h3.1l3.5-14h0l3.5,14h3l4.9-16h-2.4L19,69.3h0l-3.5-13.7h-3.3L8.8,69.3h0L4.9,55.6H2.4L7.3,71.6z"
	/>
<path fill="#FFFFFF" d="M27.5,62.6c0.9-0.7,2.2-1.2,3.4-1.2c2.2,0,2.9,1,2.9,3.1c-0.9,0-1.4,0-2.3,0c-2.2,0-5.4,0.9-5.4,3.9
	c0,2.6,1.8,3.7,4.3,3.7c2,0,3.1-1.1,3.6-1.8h0v1.5h2c0-0.3-0.1-1-0.1-2.3v-4.9c0-3.2-1.4-4.9-4.7-4.9c-1.5,0-2.8,0.5-3.9,1.1
	L27.5,62.6z M33.8,67.1c0,1.7-1.1,3.1-3.3,3.1c-1,0-2.2-0.7-2.2-1.9c0-2.1,2.9-2.3,4.1-2.3c0.5,0,0.9,0,1.4,0V67.1z"/>
<path fill="#FFFFFF" d="M38.6,76.6c0.4,0.1,0.8,0.2,1.5,0.2c2.9,0,3.7-2.6,4.5-4.9l4.3-12h-2.2l-3.2,9.7h0l-3.2-9.7h-2.4l4,10.9
	c0.1,0.4,0.4,1,0.4,1.2c0,0.2-0.6,2.9-2.6,2.9c-0.4,0-0.7-0.1-1-0.2L38.6,76.6z"/>
<path fill="#FFFFFF" d="M51.1,71.6h2.2v-5.4c0-2.9,1.1-4.8,3.6-4.8c1.9,0.1,2.5,1.4,2.5,4.2v6.1h2.2v-7c0-3.2-1.4-5-4.4-5
	c-1.6,0-3.2,0.8-3.8,2.1h0v-1.9h-2.1V71.6z"/>
<path fill="#FFFFFF" d="M74.1,69c-0.5,0.4-2.2,1.2-3.6,1.2c-2,0-3.9-1.6-3.9-3.9H75c0-3.8-1.3-6.6-5.2-6.6c-3.3,0-5.5,2.5-5.5,5.9
	c0,3.8,1.9,6.3,6.1,6.3c1.9,0,2.9-0.5,3.7-0.8V69z M66.6,64.7c0.2-1.5,1-3.3,3.2-3.3c1.9,0,2.9,1.5,2.9,3.3H66.6z"/>
<path fill="#FFFFFF" d="M86.7,57.6h2c1.4,0,3.5,0.7,3.5,2.8c0,2.1-1.8,2.8-3.2,2.8h-2.3V57.6z M84.4,71.6h2.3v-6.4h2.3
	c2.9,0,5.7-1.3,5.7-4.8c0-3.7-2.7-4.8-6-4.8h-4.2V71.6z"/>
<path fill="#FFFFFF" d="M97.8,62.6c0.9-0.7,2.2-1.2,3.4-1.2c2.2,0,2.9,1,2.9,3.1c-0.9,0-1.4,0-2.3,0c-2.2,0-5.4,0.9-5.4,3.9
	c0,2.6,1.8,3.7,4.3,3.7c2,0,3.1-1.1,3.6-1.8h0v1.5h2c0-0.3-0.1-1-0.1-2.3v-4.9c0-3.2-1.4-4.9-4.7-4.9c-1.5,0-2.8,0.5-3.9,1.1
	L97.8,62.6z M104.1,67.1c0,1.7-1.1,3.1-3.3,3.1c-1,0-2.2-0.7-2.2-1.9c0-2.1,2.9-2.3,4.1-2.3c0.5,0,0.9,0,1.4,0V67.1z"/>
<path fill="#FFFFFF" d="M117.5,60.1c-0.6-0.3-1.7-0.5-2.6-0.5c-3.6,0-6,2.6-6,6.1c0,3.4,2.4,6.1,6,6.1c0.8,0,1.8-0.1,2.7-0.5
	l-0.2-1.9c-0.7,0.4-1.6,0.7-2.3,0.7c-2.8,0-3.9-2.3-3.9-4.4c0-2.2,1.4-4.4,3.8-4.4c0.7,0,1.5,0.2,2.3,0.5L117.5,60.1z"/>
<path fill="#FFFFFF" d="M129.1,69c-0.5,0.4-2.2,1.2-3.6,1.2c-2,0-3.9-1.6-3.9-3.9h8.4c0-3.8-1.3-6.6-5.2-6.6c-3.3,0-5.5,2.5-5.5,5.9
	c0,3.8,1.9,6.3,6.1,6.3c1.9,0,2.9-0.5,3.7-0.8V69z M121.6,64.7c0.2-1.5,1-3.3,3.2-3.3c1.9,0,2.9,1.5,2.9,3.3H121.6z"/>
<path fill="#FFFFFF" d="M133.2,71.6h2.2V54.4h-2.2V71.6z"/>
<path fill="#FFFFFF" d="M139.6,71.6h2.2V54.4h-2.2V71.6z"/>
<path fill="#FFFFFF" d="M154.7,69c-0.5,0.4-2.2,1.2-3.6,1.2c-2,0-3.9-1.6-3.9-3.9h8.4c0-3.8-1.3-6.6-5.2-6.6c-3.3,0-5.5,2.5-5.5,5.9
	c0,3.8,1.9,6.3,6.1,6.3c1.9,0,2.9-0.5,3.7-0.8V69z M147.2,64.7c0.2-1.5,1-3.3,3.2-3.3c1.9,0,2.9,1.5,2.9,3.3H147.2z"/>
<path fill="#FFFFFF" d="M157.8,61.2h2l2-5.6h-2.6L157.8,61.2z"/>
<path fill="#FFFFFF" d="M162.6,71.3c1,0.5,2.1,0.6,3.2,0.6c2.1,0,4.1-1.1,4.1-3.7c0-3.7-5.1-3.1-5.1-5.4c0-1,1-1.4,2.1-1.4
	c0.5,0,1.8,0.3,2.3,0.6l0.2-1.9c-0.9-0.3-1.7-0.5-2.7-0.5c-2.3,0-4.1,1.2-4.1,3.6c0,3.3,5.1,3.1,5.1,5.2c0,1.3-1.2,1.7-2.2,1.7
	c-0.6,0-1.8-0.3-2.7-0.8L162.6,71.3z"/>
<path fill="#FFFFFF" d="M179,71.6h4.3c3.3,0,6.1-0.8,6.1-4.3c0-2.3-1.5-3.7-3.7-3.9v0c2-0.5,3.3-1.6,3.3-3.8c0-3-2.3-4-5.6-4H179
	V71.6z M181.3,64.3h1.5c2,0,4.2,0.3,4.2,2.8c0,2.2-1.9,2.6-3.9,2.6h-1.7V64.3z M181.3,57.5h2.4c1.3,0,3,0.5,3,2.4
	c0,2.4-1.9,2.6-4.1,2.6h-1.3V57.5z"/>
<path fill="#FFFFFF" d="M193.3,71.6h2.2V54.4h-2.2V71.6z"/>
<path fill="#FFFFFF" d="M198.6,65.8c0,3.4,2.4,6.1,6,6.1c3.5,0,6-2.8,6-6.1c0-3.6-2.4-6.1-6-6.1C201,59.6,198.6,62.2,198.6,65.8z
	 M200.9,65.8c0-2.2,1.4-4.4,3.7-4.4c2.3,0,3.7,2.2,3.7,4.4c0,2.1-1.1,4.4-3.7,4.4C202,70.2,200.9,67.9,200.9,65.8z"/>
<path fill="#FFFFFF" d="M223.8,59.9h-2v1.7h0c-0.6-1.3-1.8-2-3.9-2c-3.5,0-5.2,3.2-5.2,6.2c0,3,1.7,5.8,5,5.8c1.5,0,3-0.6,3.9-1.8h0
	V71c0,2.5-1.4,4-3.6,4c-1.6,0-2.6-0.3-4.2-1.1l-0.2,2c1.9,0.6,3,0.8,4.2,0.8c4.2,0,6-2,6-5.6V59.9z M218.2,69.9
	c-2,0-3.3-1.9-3.3-4.1c0-2,1.1-4.4,3.3-4.4c2.3,0,3.4,2.1,3.4,4.5C221.6,68.1,220.2,69.9,218.2,69.9z"/>
<path fill="#FFFFFF" d="M23.3,22.5h-9.2l4.5-13h0.1L23.3,22.5z M3.1,34.6h6.5l2.7-7.2h12.7l2.7,7.2h7L22.4,3.2h-7.1L3.1,34.6z"/>
<path fill="#FFFFFF" d="M49.5,34.6h6.3V20.9h12.6v13.8h6.3V3.2h-6.3v12.7H55.8V3.2h-6.3V34.6z"/>
<path fill="#FFFFFF" d="M101.9,11.5h-6v11.3c0,3-0.9,7.7-5.3,7.7c-3.9,0-3.9-3.8-3.9-6.7V11.5h-6v14.6c0,5.2,2.4,9.1,7.9,9.1
	c3.1,0,5.8-1.4,7.6-3.7h0.1v3.1h5.7V11.5z"/>
<path fill="#FFFFFF" d="M107.1,34.6h6V23.4c0-3,0.5-7.8,4.5-7.8c3.5,0,3.5,3.1,3.5,5.2v13.8h6V23.4c0-3,0.5-7.8,4.5-7.8
	c3.5,0,3.5,3.1,3.5,5.2v13.8h6V20c0-5.2-1.6-9.1-7.3-9.1c-2.8,0-5.8,1.3-7.2,4.1c-1.3-2.9-3.6-4.1-6.8-4.1c-2.2,0-5,0.9-6.9,3.8
	h-0.1v-3.2h-5.6V34.6z"/>
<path fill="#FFFFFF" d="M147.5,17.9c2-1.5,4.6-2.5,7.2-2.5c3.6,0,5.2,1.3,5.2,5h-3.3c-2.5,0-5.5,0.2-7.8,1.3c-2.3,1.1-4,3.1-4,6.6
	c0,4.4,4,6.9,8.1,6.9c2.7,0,5.8-1.4,7.2-4h0.1c0,0.7,0,2.2,0.3,3.5h5.3c-0.1-1.8-0.2-3.4-0.3-5.2c0-1.7-0.1-3.5-0.1-5.8v-3
	c0-6.8-2.9-9.8-10-9.8c-2.6,0-5.7,0.7-8.1,1.8L147.5,17.9z M150.6,27.9c0-3.6,4-4,6.7-4h2.6c0,1.8-0.3,3.5-1.3,4.8
	c-0.9,1.3-2.4,2.1-4.2,2.1C152.2,30.8,150.6,29.9,150.6,27.9z"/>
<path fill="#FFFFFF" d="M170.4,34.6h6V23.3c0-3,0.9-7.7,5.3-7.7c3.9,0,3.9,3.8,3.9,6.7v12.4h6V20c0-5.2-2.4-9.1-7.9-9.1
	c-3.1,0-5.7,1-7.6,3.7h-0.1v-3.1h-5.7V34.6z"/>
<path fill="#AAC4DF" d="M201.3,20.8c0.3-3.1,2-5.4,5.4-5.4s4.7,2.5,4.9,5.4H201.3z M215.6,28.4c-2.2,1.3-4.8,2.3-7.7,2.3
	c-3.7,0-6.3-2.1-6.6-5.8h16c0-8.1-2.4-14-11-14c-7.2,0-10.8,5.5-10.8,12.2c0,7.6,4.5,12,12.1,12c3.2,0,5.8-0.6,8-1.8V28.4z"/>
<path fill="#FFFFFF" d="M233,34.6h6V11.1h0.1l12,23.5h7.7V3.2h-6v23.5h-0.1l-12-23.5H233V34.6z"/>
<path fill="#FFFFFF" d="M265.5,17.9c2-1.5,4.6-2.5,7.2-2.5c3.6,0,5.2,1.3,5.2,5h-3.3c-2.5,0-5.5,0.2-7.8,1.3c-2.3,1.1-4,3.1-4,6.6
	c0,4.4,4,6.9,8.1,6.9c2.7,0,5.8-1.4,7.2-4h0.1c0,0.7,0,2.2,0.3,3.5h5.3c-0.1-1.8-0.2-3.4-0.3-5.2c0-1.7-0.1-3.5-0.1-5.8v-3
	c0-6.8-2.9-9.8-10-9.8c-2.6,0-5.7,0.7-8.1,1.8L265.5,17.9z M268.6,27.9c0-3.6,4-4,6.7-4h2.6c0,1.8-0.3,3.5-1.3,4.8
	c-0.9,1.3-2.4,2.1-4.2,2.1C270.3,30.8,268.6,29.9,268.6,27.9z"/>
<path fill="#FFFFFF" d="M290.4,27.7c0,4.6,2.6,7.5,7.3,7.5c1.8,0,3.2-0.2,4.5-0.5l-0.2-4.8c-0.6,0.4-1.7,0.6-2.7,0.6
	c-2.3,0-2.8-1.8-2.8-3.8V15.9h5.4v-4.4h-5.4V4.9l-6,1.9v4.6H286v4.4h4.5V27.7z"/>
<path fill="#FFFFFF" d="M305.2,34.6h6V11.5h-6V34.6z M305.2,7.2h6V1.5h-6V7.2z"/>
<path fill="#FFFFFF" d="M315.2,23.2c0,6.7,4.5,12,12.1,12c7.7,0,12.1-5.3,12.1-12c0-7.6-5.3-12.3-12.1-12.3
	C320.4,10.9,315.2,15.6,315.2,23.2z M321.5,22.5c0-3.5,1.9-6.9,5.8-6.9c4,0,5.8,3.3,5.8,6.9c0,3.9-1.2,8-5.8,8
	C322.7,30.5,321.5,26.3,321.5,22.5z"/>
<path fill="#FFFFFF" d="M343.3,34.6h6V23.3c0-3,0.9-7.7,5.3-7.7c3.9,0,3.9,3.8,3.9,6.7v12.4h6V20c0-5.2-2.4-9.1-7.9-9.1
	c-3.1,0-5.7,1-7.6,3.7H349v-3.1h-5.7V34.6z"/>
</svg>
