<?xml version="1.0" encoding="utf-8"?>
<!-- Generator: Adobe Illustrator 16.0.0, SVG Export Plug-In . SVG Version: 6.00 Build 0)  -->
<!DOCTYPE svg PUBLIC "-//W3C//DTD SVG 1.1//EN" "http://www.w3.org/Graphics/SVG/1.1/DTD/svg11.dtd">
<svg version="1.1" id="Layer_1" xmlns="http://www.w3.org/2000/svg" xmlns:xlink="http://www.w3.org/1999/xlink" x="0px" y="0px"
	 width="314.167px" height="207.821px" viewBox="0 0 314.167 207.821" enable-background="new 0 0 314.167 207.821"
	 xml:space="preserve">
<path fill="#1E3364" d="M100.658,14.856c-3.155-3.942-2.518-9.695,1.424-12.851c1.461-1.169,3.171-1.814,4.905-1.967
	c-2.428,0.193-4.775,1.34-6.417,3.392c-9.366,11.7-25.122,18.686-42.145,18.686c-17.024,0-32.779-6.986-42.145-18.686
	C13.125-0.512,7.372-1.149,3.429,2.005c-3.941,3.156-4.579,8.909-1.424,12.851C14.809,30.851,35.9,40.4,58.425,40.4
	c18.757,0,36.515-6.626,49.326-18.078C105.178,20.022,102.8,17.531,100.658,14.856"/>
<path fill="#FFFEFD" d="M108.315,0.026c0.067,0.004,0.133,0.007,0.2,0.013C108.449,0.033,108.383,0.03,108.315,0.026"/>
<path fill="#FFFEFD" d="M107.188,0.026c0.188-0.012,0.376-0.018,0.564-0.019C107.563,0.007,107.375,0.015,107.188,0.026"/>
<path fill="#FFFEFD" d="M205.828,0.026c0.194-0.013,0.389-0.018,0.581-0.019C206.216,0.006,206.022,0.015,205.828,0.026"/>
<path fill="#FFFEFD" d="M206.991,0.026c0.056,0.003,0.112,0.006,0.168,0.011C207.104,0.032,207.047,0.03,206.991,0.026"/>
<path fill="#1E3364" d="M199.322,14.856c-3.156-3.942-2.518-9.695,1.424-12.85c1.464-1.172,3.178-1.818,4.914-1.969
	c-2.435,0.187-4.791,1.335-6.438,3.393c-9.367,11.7-25.122,18.686-42.146,18.686S124.298,15.13,114.933,3.43
	c-1.642-2.052-3.989-3.199-6.417-3.392c-0.067-0.005-0.133-0.008-0.2-0.012c-0.188-0.011-0.376-0.02-0.564-0.019
	s-0.376,0.007-0.564,0.019c-0.067,0.004-0.133,0.007-0.2,0.012c-1.734,0.153-3.444,0.798-4.905,1.967
	c-3.942,3.156-4.58,8.909-1.424,12.851c2.141,2.675,4.519,5.166,7.093,7.466C120.562,33.774,138.32,40.4,157.077,40.4
	c18.761,0,36.521-6.628,49.332-18.083C203.839,20.018,201.463,17.529,199.322,14.856"/>
<path fill="#1E3364" d="M213.597,3.429c-1.647-2.057-4.002-3.205-6.438-3.393c-0.056-0.004-0.112-0.007-0.168-0.01
	c-0.194-0.012-0.387-0.02-0.581-0.02c-0.194,0.001-0.388,0.006-0.582,0.02c-0.056,0.003-0.112,0.005-0.168,0.01
	c-1.737,0.151-3.451,0.797-4.914,1.969c-3.941,3.155-4.58,8.908-1.424,12.85c2.14,2.674,4.516,5.163,7.087,7.461
	C219.222,33.771,236.981,40.4,255.741,40.4c22.524,0,43.616-9.55,56.419-25.545c3.156-3.942,2.52-9.695-1.423-12.85
	c-3.94-3.155-9.695-2.518-12.85,1.424c-9.367,11.701-25.122,18.686-42.146,18.686C238.719,22.115,222.963,15.13,213.597,3.429"/>
<path fill="#1E3364" d="M100.658,98.566c-3.155-3.942-2.518-9.696,1.424-12.851c1.457-1.167,3.162-1.811,4.892-1.966
	c-2.423,0.196-4.765,1.343-6.405,3.391c-9.365,11.701-25.12,18.686-42.144,18.686c-17.025,0-32.779-6.984-42.145-18.686
	c-3.155-3.942-8.91-4.581-12.85-1.425c-3.942,3.155-4.58,8.909-1.425,12.851c12.803,15.995,33.894,25.544,56.42,25.544
	c18.757,0,36.516-6.626,49.326-18.078C105.178,103.732,102.799,101.241,100.658,98.566"/>
<path fill="#FFFEFD" d="M107.214,83.734c0.175-0.011,0.351-0.016,0.526-0.017C107.564,83.716,107.39,83.724,107.214,83.734"/>
<path fill="#FFFEFD" d="M108.337,83.736c0.056,0.003,0.113,0.006,0.17,0.011C108.45,83.743,108.394,83.741,108.337,83.736"/>
<path fill="#1E3364" d="M199.322,98.566c-3.155-3.942-2.518-9.695,1.424-12.851c1.463-1.171,3.175-1.817,4.911-1.968
	c-2.435,0.188-4.788,1.336-6.436,3.393c-9.365,11.7-25.12,18.686-42.144,18.686c-17.025,0-32.779-6.984-42.146-18.686
	c-1.644-2.055-3.995-3.202-6.426-3.393c-0.057-0.004-0.114-0.007-0.17-0.011c-0.199-0.011-0.397-0.02-0.597-0.019
	c-0.175,0.001-0.351,0.006-0.526,0.017c-0.08,0.005-0.16,0.008-0.24,0.015c-1.729,0.155-3.434,0.799-4.891,1.966
	c-3.942,3.155-4.58,8.909-1.425,12.851c2.142,2.675,4.52,5.166,7.093,7.466c12.811,11.452,30.569,18.078,49.327,18.078
	c18.76,0,36.52-6.628,49.332-18.083C203.838,103.728,201.462,101.24,199.322,98.566"/>
<path fill="#FFFEFD" d="M205.835,83.736c0.19-0.013,0.382-0.018,0.571-0.019C206.216,83.716,206.025,83.725,205.835,83.736"/>
<path fill="#FFFEFD" d="M206.998,83.736c0.053,0.003,0.104,0.006,0.157,0.01C207.103,83.741,207.051,83.74,206.998,83.736"/>
<path fill="#1E3364" d="M310.737,85.715c-3.942-3.155-9.694-2.518-12.852,1.424c-9.364,11.701-25.12,18.688-42.145,18.688
	c-17.023,0-32.779-6.986-42.145-18.688c-1.647-2.058-4.005-3.206-6.44-3.393c-0.053-0.004-0.106-0.007-0.158-0.01
	c-0.197-0.012-0.394-0.02-0.592-0.019c-0.19,0.001-0.38,0.006-0.571,0.018c-0.059,0.004-0.118,0.006-0.178,0.012
	c-1.736,0.151-3.448,0.797-4.911,1.968c-3.941,3.156-4.579,8.909-1.424,12.851c2.14,2.673,4.516,5.162,7.088,7.46
	c12.811,11.455,30.572,18.083,49.331,18.083c22.524,0,43.617-9.549,56.42-25.543C315.316,94.625,314.679,88.871,310.737,85.715"/>
<path fill="#1E3364" d="M100.658,182.277c-3.155-3.941-2.518-9.694,1.424-12.851c1.461-1.169,3.172-1.815,4.906-1.967
	c-2.428,0.191-4.776,1.339-6.418,3.392c-9.366,11.7-25.121,18.685-42.145,18.685c-17.024,0-32.779-6.984-42.145-18.685
	c-3.156-3.943-8.909-4.579-12.851-1.425c-3.941,3.156-4.579,8.909-1.424,12.851c12.803,15.995,33.895,25.544,56.42,25.544
	c18.757,0,36.515-6.627,49.326-18.078C105.178,187.443,102.8,184.953,100.658,182.277"/>
<path fill="#FFFEFD" d="M107.184,167.447c0.189-0.012,0.379-0.019,0.569-0.02C107.563,167.426,107.373,167.436,107.184,167.447"/>
<path fill="#FFFEFD" d="M108.312,167.447c0.068,0.004,0.136,0.008,0.204,0.013C108.449,167.454,108.38,167.452,108.312,167.447"/>
<path fill="#FFFEFD" d="M207.001,167.448c0.052,0.003,0.103,0.006,0.153,0.01C207.104,167.453,207.053,167.451,207.001,167.448"/>
<path fill="#FFFEFD" d="M205.838,167.447c0.189-0.013,0.378-0.018,0.567-0.019C206.216,167.427,206.027,167.436,205.838,167.447"/>
<path fill="#1E3364" d="M199.322,182.277c-3.156-3.94-2.518-9.694,1.424-12.85c1.462-1.171,3.175-1.817,4.91-1.969
	c-2.434,0.188-4.788,1.336-6.434,3.393c-9.366,11.7-25.121,18.685-42.146,18.685c-17.023,0-32.779-6.984-42.145-18.685
	c-1.642-2.052-3.988-3.199-6.416-3.392c-0.068-0.006-0.136-0.01-0.204-0.014c-0.187-0.01-0.373-0.019-0.56-0.018
	c-0.19,0.001-0.379,0.006-0.568,0.018c-0.066,0.005-0.131,0.007-0.196,0.014c-1.735,0.151-3.445,0.798-4.906,1.967
	c-3.942,3.156-4.58,8.909-1.424,12.851c2.141,2.676,4.519,5.166,7.093,7.466c12.811,11.451,30.569,18.078,49.326,18.078
	c18.761,0,36.521-6.629,49.332-18.083C203.839,187.439,201.463,184.95,199.322,182.277"/>
<path fill="#1E3364" d="M310.737,169.427c-3.94-3.155-9.694-2.519-12.851,1.424c-9.365,11.7-25.121,18.685-42.146,18.685
	c-17.023,0-32.779-6.984-42.146-18.685c-1.646-2.06-4.004-3.207-6.44-3.394c-0.051-0.004-0.103-0.007-0.154-0.01
	c-0.198-0.012-0.396-0.021-0.596-0.02c-0.189,0.001-0.378,0.006-0.567,0.019c-0.06,0.004-0.121,0.006-0.182,0.011
	c-1.735,0.152-3.447,0.799-4.91,1.97c-3.942,3.154-4.579,8.908-1.424,12.85c2.14,2.673,4.517,5.162,7.088,7.461
	c12.811,11.455,30.572,18.083,49.331,18.083c22.524,0,43.616-9.549,56.42-25.544C315.316,178.335,314.679,172.582,310.737,169.427"
	/>
</svg>
