<?xml version="1.0" encoding="UTF-8" standalone="no"?>
<svg width="710px" height="1163px" viewBox="0 0 710 1163" version="1.1" xmlns="http://www.w3.org/2000/svg" xmlns:xlink="http://www.w3.org/1999/xlink" xmlns:sketch="http://www.bohemiancoding.com/sketch/ns">
    <!-- Generator: Sketch 3.2.2 (9983) - http://www.bohemiancoding.com/sketch -->
    <title>FAI_RENT_A_JET2</title>
    <desc>Created with Sketch.</desc>
    <defs></defs>
    <g id="Page-1" stroke="none" stroke-width="1" fill="none" fill-rule="evenodd" sketch:type="MSPage">
        <g id="FAI_RENT_A_JET2" sketch:type="MSLayerGroup">
            <path d="M51.981,1099.114 L73.12,1099.114 L74.759,1093.79 C78.532,1081.525 80.97,1069.291 65.057,1069.291 C56.57,1069.291 49.641,1072.137 44.027,1079.634 L43.089,1079.634 L46.37,1070.032 L24.824,1070.174 L0.46,1139.185 L23.448,1139.185 L37.958,1096.641 C39.854,1091.083 43.26,1085.837 50.264,1085.837 C56.595,1085.837 54.609,1091.083 53.045,1095.862 L51.981,1099.114" id="Fill-1" fill="#636462" sketch:type="MSShapeGroup"></path>
            <path d="M109.203,1094.954 C111.912,1086.091 114.957,1084.311 123.162,1084.311 C130.964,1084.311 134.704,1084.946 132.163,1094.954 L109.203,1094.954 L109.203,1094.954 Z M127.453,1115.143 C125.566,1122.586 120.617,1123.405 113.225,1123.405 C103.324,1123.405 102.383,1119.733 105.777,1107.401 L152.642,1107.401 L153.531,1103.57 C159.902,1076.122 153.663,1069.291 127.539,1069.291 C99.558,1069.291 90.983,1077.624 83.276,1103.57 C75.428,1129.995 79.525,1140.028 108.829,1140.028 C119.588,1140.028 128.855,1139.185 136.065,1135.686 C143.261,1132.07 148.356,1125.866 150.845,1115.143 L127.453,1115.143 L127.453,1115.143 Z" id="Fill-2" fill="#636462" sketch:type="MSShapeGroup"></path>
            <path d="M176.062,1070.032 L160.983,1139.185 L185.314,1139.185 L192.999,1100.029 C194.629,1091.726 197.536,1085.837 207.908,1085.837 C215.452,1085.837 216.776,1089.029 215.755,1095.602 L208.088,1139.185 L232.419,1139.185 L239.933,1090.44 C242.139,1076.122 236.164,1069.291 220.781,1069.291 C210.039,1069.291 202.777,1071.889 197.422,1082.283 L196.482,1082.283 L198.887,1070.032 L176.062,1070.032" id="Fill-3" fill="#636462" sketch:type="MSShapeGroup"></path>
            <path d="M313.287,1070.032 L286.879,1070.032 L288.4,1056.493 L265.87,1056.493 L264.054,1070.032 L255.56,1070.032 L253.312,1085.837 L261.933,1085.837 L257.369,1119.868 C254.927,1138.063 267.546,1140.028 283.118,1140.028 C302.937,1140.028 310.817,1135.546 312.469,1115.95 L312.999,1109.658 L294.132,1109.658 L293.614,1113.397 C292.843,1118.243 292.679,1122.586 286.408,1122.586 C281.948,1122.586 281.311,1120.818 281.643,1116.623 L285.103,1085.837 L311.909,1085.837 L313.287,1070.032" id="Fill-4" fill="#636462" sketch:type="MSShapeGroup"></path>
            <path d="M335.675,1091.083 L334.286,1112.594 L371.847,1112.594 L372.495,1091.083 L335.675,1091.083" id="Fill-5" fill="#636462" sketch:type="MSShapeGroup"></path>
            <path d="M420.266,1109.526 C427.977,1109.526 433.224,1110.058 433.379,1115.95 C433.573,1123.405 430.534,1124.635 420.482,1124.635 C416.852,1124.635 410.01,1124.635 409.973,1116.893 C409.943,1110.457 414.483,1109.526 420.266,1109.526 L420.266,1109.526 Z M433.987,1139.185 L458.317,1139.185 L456.196,1094.954 C455.096,1072.012 445.153,1069.291 421.814,1069.291 C405.502,1069.291 389.723,1069.168 389.43,1089.67 L412.682,1089.67 C412.638,1083.677 416.254,1082.41 422.027,1082.41 C432.098,1082.41 432.604,1086.346 432.768,1092.628 L433.051,1103.439 L431.955,1103.439 C429.175,1095.602 418.981,1095.732 412.319,1095.732 C395.461,1095.732 386.401,1100.814 386.117,1117.567 C385.805,1135.964 395.645,1140.028 412.633,1140.028 C421.126,1140.028 432.127,1138.344 433.702,1128.34 L434.543,1128.34 L433.987,1139.185 L433.987,1139.185 Z" id="Fill-6" fill="#636462" sketch:type="MSShapeGroup"></path>
            <path d="M471.979,1091.083 L473.332,1112.594 L510.892,1112.594 L508.8,1091.083 L471.979,1091.083" id="Fill-7" fill="#636462" sketch:type="MSShapeGroup"></path>
            <path d="M545.895,1070.032 L523.069,1070.032 L530.699,1137.643 C531.111,1141.295 530.641,1144.688 524.528,1144.688 L526.34,1161.672 C528.872,1162.403 531.344,1162.549 533.798,1162.549 C550.118,1162.549 557.584,1156.871 555.336,1140.169 L545.895,1070.032 L545.895,1070.032 Z M543.06,1049.343 L520.824,1049.343 L522.598,1065.06 L545.176,1065.06 L543.06,1049.343 L543.06,1049.343 Z" id="Fill-8" fill="#636462" sketch:type="MSShapeGroup"></path>
            <path d="M585.249,1094.954 C584.029,1086.091 586.284,1084.311 594.489,1084.311 C602.291,1084.311 606.313,1084.946 608.209,1094.954 L585.249,1094.954 L585.249,1094.954 Z M612.451,1115.143 C613.865,1122.586 609.278,1123.405 601.887,1123.405 C591.985,1123.405 589.415,1119.733 587.342,1107.401 L634.207,1107.401 L633.398,1103.57 C627.598,1076.122 618.331,1069.291 592.206,1069.291 C564.225,1069.291 559.345,1077.624 563.143,1103.57 C567.01,1129.995 575.557,1140.028 604.86,1140.028 C615.62,1140.028 624.514,1139.185 630.172,1135.686 C635.765,1132.07 638.109,1125.866 635.843,1115.143 L612.451,1115.143 L612.451,1115.143 Z" id="Fill-9" fill="#636462" sketch:type="MSShapeGroup"></path>
            <path d="M690.542,1070.032 L666.67,1070.032 L663.288,1056.493 L640.758,1056.493 L643.845,1070.032 L635.352,1070.032 L638.827,1085.837 L647.448,1085.837 L655.208,1119.868 C659.356,1138.063 672.687,1140.028 688.258,1140.028 C708.077,1140.028 713.433,1135.215 706.614,1115.95 L704.411,1109.658 L687.64,1109.658 L688.475,1113.397 C689.459,1118.243 691.502,1122.586 685.231,1122.586 C680.772,1122.586 679.494,1120.818 678.307,1116.623 L670.617,1085.837 L696.143,1085.837 L690.542,1070.032" id="Fill-10" fill="#636462" sketch:type="MSShapeGroup"></path>
            <path d="M34.311,1034.506 L132.286,754.373 L317.554,754.373 L286.807,835.596 L200.296,835.596 L163.555,939.468 L271.059,939.468 L336.316,754.373 L445.497,754.373 L542.951,1034.506 L458.786,1034.506 L438.461,977.736 L353.514,977.736 L332.407,1034.506 L237.558,1034.506 L258.209,975.914 L149.484,975.914 L129.941,1034.506 L34.311,1034.506 L34.311,1034.506 Z M397.29,843.927 L363.676,940.249 L433.249,940.249 L397.29,843.927 L397.29,843.927 Z M675.579,1034.506 L578.129,754.373 L479.892,754.373 L578.385,1034.506 L675.579,1034.506 L675.579,1034.506 Z" id="Fill-11" fill="#636462" sketch:type="MSShapeGroup"></path>
            <path d="M354.945,24.25 C172.299,24.25 24.254,172.304 24.254,354.926 C24.254,537.549 172.299,685.603 354.945,685.603 C537.59,685.603 685.635,537.549 685.635,354.926 C685.635,172.304 537.59,24.25 354.945,24.25 L354.945,24.25 Z M354.945,0.301 C550.795,0.301 709.57,159.062 709.57,354.926 C709.57,550.79 550.795,709.552 354.945,709.552 C159.096,709.552 0.319,550.79 0.319,354.926 C0.319,159.062 159.096,0.301 354.945,0.301 L354.945,0.301 Z" id="Fill-12" fill="#636462" sketch:type="MSShapeGroup"></path>
            <path d="M22.826,352.531 L569.877,99.358 C569.877,99.358 420.148,188.303 421.822,366.193 C423.495,532.93 576.289,608.491 576.289,608.491 L22.826,352.531" id="Fill-13" fill="#D8117D" sketch:type="MSShapeGroup"></path>
        </g>
    </g>
</svg>