<svg xmlns="http://www.w3.org/2000/svg" viewBox="0 0 208.9 81.4"><defs><style>.scent-a-way-cls-1{fill:#0055a5;}</style></defs><title>logo-about</title><path class="scent-a-way-cls-1" d="M25.2 30.1c-.2-.1-.3-.2-.5-.2s-.3-.1-.5-.1h-8.7a.9.9 0 0 0-.5.1.76.76 0 0 0-.5.2l-2.5 2.5a.6.6 0 0 0-.1.4l-.1.5v15a.52.52 0 0 0 .2.4.6.6 0 0 0 .4.1h3.8a.4.4 0 0 0 .5-.5v-4.9a.52.52 0 0 1 .2-.4.6.6 0 0 1 .4-.1h5.4a.6.6 0 0 1 .4.1.52.52 0 0 1 .2.4v4.9a.4.4 0 0 0 .5.5h3.8a.6.6 0 0 0 .4-.1.52.52 0 0 0 .2-.4v-14.9a.9.9 0 0 0-.1-.5.76.76 0 0 0-.2-.5l-2.7-2.5zm-2 8.9h-6.4v-4.8h6.4zm22.4-8.9c-.2-.1-.3-.2-.5-.2s-.3-.1-.5-.1h-11.8a.71.71 0 0 0-.6.6v18.1a.46.46 0 0 0 .4.5h11.9a.9.9 0 0 0 .5-.1.76.76 0 0 0 .5-.2l2.5-2.5c.1-.2.2-.3.2-.5l.1-.5v-3.3a.9.9 0 0 0-.1-.5.76.76 0 0 1-.2-.4l-1.1-1.2a.76.76 0 0 1-.2-.4.6.6 0 0 1 .1-.4l1.2-1.5a.52.52 0 0 0 .2-.4.9.9 0 0 0 .1-.5v-3.1a.9.9 0 0 0-.1-.5.76.76 0 0 0-.2-.5l-2.4-2.4zm-9 3.9h7.3v3.4h-7.3zm0 7.1h7.3v3.7h-7.3zm29.3-11c-.2-.1-.3-.2-.5-.2s-.3-.1-.5-.1h-8.7a.9.9 0 0 0-.5.1.76.76 0 0 0-.5.2l-2.5 2.5c-.1.2-.2.3-.2.5l-.1.5v11.8a.9.9 0 0 0 .1.5.76.76 0 0 0 .2.5l2.5 2.5c.2.1.3.2.5.2l.5.1h8.7a.9.9 0 0 0 .5-.1.76.76 0 0 0 .5-.2l2.5-2.5c.1-.2.2-.3.2-.5l.1-.5v-11.7a.9.9 0 0 0-.1-.5.76.76 0 0 0-.2-.5zm-2.1 14.3h-6.4v-9.9h6.4zm24.6-14.5h-3.8a.71.71 0 0 0-.6.6v13.4a.6.6 0 0 1-.1.4.52.52 0 0 1-.4.2h-5.4a.71.71 0 0 1-.6-.6v-13.5a.71.71 0 0 0-.6-.6h-3.5a.71.71 0 0 0-.6.6v14.9a.9.9 0 0 0 .1.5.76.76 0 0 0 .2.5l2.5 2.5c.2.1.3.2.5.2l.5.1h8.6a.9.9 0 0 0 .5-.1.76.76 0 0 0 .5-.2l2.5-2.5a.6.6 0 0 0 .1-.4l.1-.5v-15.1a.52.52 0 0 0-.2-.4zm18.4.5a.71.71 0 0 0-.6-.6h-13.5a.46.46 0 0 0-.5.4v3.7a.71.71 0 0 0 .6.6h3.9a.4.4 0 0 1 .5.5v13.5a.71.71 0 0 0 .6.6h3.6a.52.52 0 0 0 .4-.2.6.6 0 0 0 .1-.4v-13.5a.52.52 0 0 1 .2-.4.6.6 0 0 1 .4-.1h3.9a.71.71 0 0 0 .6-.6v-3.5zm-100.8 30.7h105.7v2.1h-105.7zm0-44.1h105.7v2.1h-105.7zM147.8 19.5v6.2c-1.8-.1-3.7-.3-5.5-.5v-3.3c-1.2-.1-2.4-.3-3.6-.5v4.4l5.4.5v4.5l-5.4-.3v2.8l1.9.1v4.9c-4 0-7.9-.1-11.8-.1v-5.4l1.6.1v-12.4l-1.6-.3v-5.4c5.8 1.3 11.7 2.3 17.6 3.1a10.7 10.7 0 0 0 1.4 1.6zM159 23.6v10.5h1.7v4.4c-3.9 0-7.8 0-11.7-.1v-4.6h1.7v-10.8l-1.7-.1v-4.6q5.85.6 11.7.9v4.4a9.65 9.65 0 0 1-1.7 0z" transform="translate(-6)"/><path class="scent-a-way-cls-1" d="M177.1 35.9c-.9.9-1.9 1.8-2.8 2.6h-10.3l-1.1-1-1.1 1h-5.3v-5.1h6.4v1.2h5.9l.3-.3v-1.9l-.3-.3h-9.1l-2.8-2.6v-7.7l2.8-2.5c3.2.1 6.3.1 9.5 0l1.1 1 1.1-1.1 5.3-.3v5c-2.1.1-4.3.2-6.4.2v-1c-1.7 0-3.4.1-5 .1l-.3.3v1.7l.3.3c3 0 6.1-.1 9.1-.2l2.8 2.5c-.1 2.8-.1 5.4-.1 8.1z"/><path class="scent-a-way-cls-1" d="M207.6 21v12.2l1.6-.1v5.2c-3.7 0-7.5.1-11.3.1v-4.8a6.6 6.6 0 0 0 1.4-.1v-3.7l-4.4.3v3.6a6.6 6.6 0 0 0 1.4-.1v4.8l-11.4.1v-4.5h1.7v-10.6l-1.7.1v-4.5q5.7-.45 11.4-1.2v4.8l-1.4.1v2.8c1.5-.1 3-.3 4.4-.4v-2.9l-1.4.2v-4.8c3.8-.6 7.5-1.2 11.3-2v5.2a10 10 0 0 0-1.6.2z" transform="translate(-6)"/><path class="scent-a-way-cls-1" d="M136.9 58.1v3.6c-2.7.4-5.4.8-8 1.3v-3.9c.3-.1.6-.1 1-.2l-.4-3-3.2.4c-.1 1.1-.3 2.2-.4 3.2l.9-.2v3.9c-2.4.5-4.8 1-7.1 1.6v-4.2l.8-.2c.8-5.2 1.7-10.3 2.5-15.2l2.3-2.6 5.9-.2c.8.8 1.5 1.5 2.3 2.2.9 4.5 1.7 8.9 2.6 13.2.2.4.5.3.8.3zm-7.9-5l-.9-6.1h-.6c-.3 2.1-.6 4.2-.9 6.4zM173.5 45.7h-.9c-.6 4-1.2 8.1-1.9 12.1l-2.4 2c-1.6 0-3.3-.1-4.9 0-.8-.7-1.6-1.3-2.3-2l-1-7.8-1.5 7.8c-.8.7-1.6 1.4-2.3 2.1l-4.9.3c-.8-.6-1.6-1.3-2.3-1.9-.6-4.1-1.2-8.2-1.8-12.4h-.9v-3.5c2.7 0 5.4-.1 8-.1v3.4h-1.1c.4 3.5.7 6.9 1.1 10.3h.3l2-10.4h-1.1v-3.3h9.8v3.3h-1.1l1.8 10.2h.3l1.3-10.2h-.9v-3.3h6.8c-.1 1.2-.1 2.3-.1 3.4z"/><path class="scent-a-way-cls-1" d="M196.4 57.9v3.6q-4-.6-8.1-.9v-3.5l1 .1-.4-2.8-3.2-.2-.4 2.7a3.75 3.75 0 0 1 1 .1v3.4c-2.4-.2-4.8-.4-7.2-.5v-3.3h.8l2.6-12.1c.8-.7 1.6-1.4 2.3-2.1 2 0 4 0 6 .1.8.7 1.6 1.5 2.3 2.2.9 4.3 1.7 8.7 2.6 13.2zm-7.9-6.2l-.9-5.6h-.6c-.3 1.8-.6 3.6-.9 5.5l2.4.1zM206.8 56.8v2.5l1.9.3v4c-3.3-.7-6.7-1.3-10.1-1.8v-3.7a12.25 12.25 0 0 0 1.9.2v-2.6c-1.4-3.3-2.7-6.5-4.1-9.6h-1v-3.6c2.7 0 5.4.1 8.1.2v3.8h-.8c.4 1.7.9 3.5 1.3 5.3h.2c.4-1.7.9-3.4 1.3-5.2h-.8v-3.8c2.4.1 4.8.1 7.1.2v4.1a4.1 4.1 0 0 1-1.1-.1 95.22 95.22 0 0 1-3.9 9.8zM150.7 49.8l-7.2.4c.1 1.1.2 2.2.3 3.2 2.4-.2 4.8-.4 7.2-.5a15.53 15.53 0 0 0-.3-3.1z" transform="translate(-6)"/><path class="scent-a-way-cls-1" d="M208.9 28.6l-6.1.6v-3.6c2-.2 4-.5 6.1-.8z"/><path class="scent-a-way-cls-1" d="M153.2 13.3v-4.9a2 2 0 0 1 1.6-2.1c1-.2 2-.4 2.9-.6 1.1-.2 1.6.2 1.6 1.4v4.9a1.71 1.71 0 0 1-1.6 1.9c-1 .2-2 .4-2.9.6-1.1.3-1.6-.1-1.6-1.2zm1.9-.4a20.48 20.48 0 0 1 2.4-.5c.2 0 .2-.1.2-.3v-4.6c0-.2-.1-.2-.2-.2l-2.4.5c-.2 0-.2.1-.2.3v4.6c-.1.2 0 .2.2.2zM160.4 12l1-.1v-5.4l-1 .1v-1.4a51.08 51.08 0 0 1 5.5-.5 1.42 1.42 0 0 1 1.7 1.6v4.9c0 1.1-.5 1.6-1.7 1.7-1.9.1-3.7.3-5.5.5zm5.3-.6c.2 0 .2-.1.2-.2v-4.6c0-.2-.1-.2-.2-.2a21.05 21.05 0 0 0-2.5.2v5.1a10.68 10.68 0 0 1 2.5-.3zM169.2 11.2v-4.9c0-1.1.5-1.6 1.7-1.6 1 0 2 .1 3 .2a1.58 1.58 0 0 1 1.6 1.8v4.9c0 1.1-.5 1.6-1.6 1.5s-2-.1-3-.2-1.7-.6-1.7-1.7zm2 .1a19.42 19.42 0 0 1 2.4.2c.2 0 .2 0 .2-.2v-4.6c0-.2-.1-.2-.2-.3l-2.4-.2c-.2 0-.2 0-.2.2v4.6c-.1.3 0 .3.2.3zM184.3 13.5v1.4a14.19 14.19 0 0 0-2.2-.5l-1.5-3.5a5.85 5.85 0 0 0-1.3-.2v1.8l1.2.2v1.4c-1.3-.3-2.6-.5-3.9-.7v-1.4l1 .1v-5.4a3.4 3.4 0 0 0-1-.1v-1.4a43.45 43.45 0 0 1 5.2 1 1.86 1.86 0 0 1 1.6 2v1.7c0 .9-.4 1.4-1.1 1.3l.9 2.1 1.1.2zm-2.7-3.9c.2 0 .2 0 .2-.2v-1.6c0-.2-.1-.2-.2-.3-.7-.2-1.5-.3-2.3-.5v2.1l2.3.5zM145.2 69v-4.6c0-1 .4-1.3 1.4-.8a18.89 18.89 0 0 0 2.5 1.1 2.13 2.13 0 0 1 1.5 2.1v1.2l-1.5-.6v-1.1c0-.2-.1-.2-.2-.3l-2-.9c-.2-.1-.2 0-.2.1v4.3c0 .2.1.2.2.3l2 .9c.2.1.2 0 .2-.1v-1.1l1.5.6v1.2q0 1.5-1.5.9c-.8-.3-1.6-.7-2.5-1.1a2 2 0 0 1-1.4-2.1zM151.8 71.8v-4.5c0-1 .5-1.3 1.5-1a27.59 27.59 0 0 0 2.7.8 1.83 1.83 0 0 1 1.5 1.9v4.5c0 1-.5 1.4-1.5 1.1a27.58 27.58 0 0 1-2.7-.8 1.87 1.87 0 0 1-1.5-2zm1.8.7c.7.2 1.4.4 2.2.6.2 0 .2 0 .2-.2v-4.3c0-.2-.1-.2-.2-.3l-2.2-.6c-.2-.1-.2 0-.2.1v4.3c-.1.3 0 .3.2.4zM166.3 70.1a2.77 2.77 0 0 1-.9-.1v6.2a8.75 8.75 0 0 1-1.6-.2c-1-1.8-1.9-3.7-2.9-5.6v3.9l1 .2v1.3l-3.5-.6v-1.3l.9.2v-5l-.9-.2v-1.3a25.58 25.58 0 0 0 2.7.5c.9 1.8 1.8 3.6 2.8 5.4v-3.7l-1-.1v-1.3c1.2.2 2.3.3 3.5.4a5.28 5.28 0 0 0-.1 1.3zM172.3 71.5v-1.3h-1.2v4.9h1.2v1.3a25.39 25.39 0 0 1-3.9 0v-1.3h1.2v-4.9h-1.2v1.3a6.6 6.6 0 0 1-1.4-.1v-2.6c2.2.1 4.5.1 6.7 0v2.6a6.6 6.6 0 0 1-1.4.1zM181.6 73.9v1.2l-2 .4-1.4-2.6-1.2.2v1.6a4.25 4.25 0 0 0 1.1-.2v1.2c-1.2.2-2.4.3-3.6.4v-1.3c.3 0 .6-.1 1-.1v-4.9c-.3 0-.6.1-1 .1v-1.3a41 41 0 0 0 4.9-.6q1.5-.3 1.5 1.2v1.5a1.63 1.63 0 0 1-1.1 1.7 8 8 0 0 1 .8 1.6c.4 0 .7-.1 1-.1zm-2.5-2.5c.2 0 .2-.1.2-.2v-1.4c0-.2-.1-.2-.2-.2l-2.1.3v1.9a15.52 15.52 0 0 1 2.1-.4zM182.4 73.4v-4.4a1.67 1.67 0 0 1 1.5-1.8 27.58 27.58 0 0 0 2.7-.8c1-.3 1.5 0 1.5 1v4.4a2 2 0 0 1-1.5 2 27.59 27.59 0 0 1-2.7.8q-1.5.3-1.5-1.2zm1.7-.3l2.2-.6c.2-.1.2-.1.2-.3v-4.2c0-.2-.1-.2-.2-.1-.7.2-1.4.4-2.2.6-.2 0-.2.1-.2.3v4.2c0 .1.1.1.2.1zM194.7 70.4a47 47 0 0 1-5.7 2.5v-1.2a3.55 3.55 0 0 0 .9-.4v-4.9l-.9.3v-1.2a34.54 34.54 0 0 0 3.4-1.4v1.2l-1 .5v4.8l2-.9v-1.6l1.3-.6z" transform="translate(-6)"/><path class="scent-a-way-cls-1" d="M163.6 79.4c-12.7 0-23.2-4-30.9-10.3h-4.3c7.7 7.5 20.2 12.3 34.3 12.3s26.5-4.9 34.3-12.3h-1.5c-7.8 6.3-19.2 10.3-31.9 10.3zM161.6 2c12.7 0 23.2 4 30.9 10.4h4.3c-7.6-7.5-20.1-12.4-34.2-12.4s-26.5 4.8-34.3 12.3h1.5c7.8-6.3 19.1-10.3 31.8-10.3z"/></svg>