<?xml version="1.0" encoding="utf-8"?>
<!-- Generator: Adobe Illustrator 18.1.1, SVG Export Plug-In . SVG Version: 6.00 Build 0)  -->
<!DOCTYPE svg PUBLIC "-//W3C//DTD SVG 1.1//EN" "http://www.w3.org/Graphics/SVG/1.1/DTD/svg11.dtd">
<svg version="1.1" xmlns="http://www.w3.org/2000/svg" xmlns:xlink="http://www.w3.org/1999/xlink" x="0px" y="0px"
	 viewBox="0 0 34.7 57.1" enable-background="new 0 0 34.7 57.1" xml:space="preserve">
<g id="v1" display="none">
</g>
<g id="v2">
	<g>
		<path fill="#FDEBE6" d="M20.3,1.1c-0.7-0.3,7.3,19.2-6.5,19.2c0,0,2.6,2.3,5.6,1.2c3-1.1,5.8-4.5,5.7-7.8
			C25,10.5,22.7,2.3,20.3,1.1z"/>
		<polygon fill="#FDEBE6" points="3.6,43.5 31.1,45.3 31.4,41.7 3.3,42 		"/>
		<g>
			<g>
				<g>
					<path fill="#F79C82" d="M4.9,56C5,56.2,5,56.3,5.2,56.5c0.2,0.2,0.6,0.3,0.9,0.3l0.7,0c0.9,0,1.8,0,2.6,0c1.6,0,3,0.1,3.8,0.1
						c2.8,0,5.5,0.1,8.1,0.1c1.4,0,2.7,0,4.1,0l2,0l1,0l0.3,0l0.1,0c0.1,0,0.1,0,0.2,0c0.3,0,0.6-0.2,0.8-0.4
						c0.2-0.2,0.4-0.4,0.4-0.7c0.1-0.3,0-0.4,0.1-0.6l0.1-1c0.1-0.7,0.1-1.3,0.2-2c0.1-1.3,0.3-2.7,0.5-4.1c0.3-2.1,0.7-4.2,1-6.4
						l0.2-1.6c0-0.6-0.2-1-0.6-1.3c-0.2-0.1-0.4-0.3-0.7-0.3c-0.1,0-0.2,0-0.4,0l-0.2,0c-1.1,0-2.2,0.1-3.2,0.1c-2.2,0-4.3,0-6.4,0
						c-2.2,0-4.2,0-6.3-0.1c-2.1,0-4.6,0.1-7,0.1c-0.6,0-1.2,0-1.8,0c-0.3,0-0.6,0-0.9,0l-0.4,0c-0.2,0-0.2,0-0.5,0
						c-0.5,0.1-0.9,0.4-1.1,0.8c-0.1,0.2-0.2,0.4-0.1,0.7l0.1,0.4c0.1,0.5,0.1,1.1,0.2,1.6c0.2,1.4,0.6,4.5,1,7.7
						c0.2,1.6,0.5,3.4,0.7,4.8c0.1,0.3,0.1,0.6,0.2,0.8l0.8-0.1c0-0.2,0-0.4-0.1-0.8c-0.2-1.4-0.5-4-0.8-6.4
						c-0.3-2.1-0.5-4.1-0.7-5.7c-0.1-0.8-0.2-1.5-0.3-2c0-0.1,0-0.2,0-0.4c0,0,0-0.1,0-0.1c0-0.1,0.1-0.1,0.1-0.2
						c0.1,0,0.1-0.1,0.2-0.1c0,0,0.1,0,0.1,0l0.2,0c0.3,0,0.6,0,0.9,0c0.6,0,1.2,0,1.8,0c1.2,0,2.3,0,3.5,0c2.4,0,4.8,0,7.1,0
						c2.3,0,4.7,0,7.1,0c1.1,0,2.3,0,3.5,0.1c0.6,0,1.2,0,1.8,0c0.3,0,0.6,0,0.8,0c0.1,0,0.2,0.1,0.2,0.2c-0.3,2.4-0.6,4.9-0.9,7.3
						c-0.4,2.5-0.7,5.1-1.1,7.6c0,0.2,0,0.3-0.1,0.5c0,0,0,0.1,0,0.1c0,0-0.1,0.1-0.1,0.1c-0.1,0,0,0-0.2,0l-1.9,0
						c-1.3,0-2.6,0.1-3.8,0.1c-2.6,0-5.1-0.2-7.7-0.2c-1.2,0-3.1,0.1-6.6,0.1c-0.5,0-1.1,0-1.6,0l-0.8,0c-0.2,0-0.2,0-0.2,0
						c0,0-0.1,0-0.1-0.1c-0.1,0-0.2-0.1-0.2-0.2H4.8C4.8,55.7,4.8,55.9,4.9,56z"/>
				</g>
			</g>
			<g>
				<g>
					<g>
						<path fill="#FCD7CD" d="M25.3,26.3c0,0.4,0.5,1.1,1.3,1.7c0.6,0.4,1.3,0.7,2,0.8c0.7,0.1,1.3,0,1.6-0.1
							c1.5-0.3,2.7-1.3,3.5-2.4c0.4-0.6,0.7-1.2,0.8-2c0-0.4,0-0.9-0.3-1.4c-0.1-0.1-0.2-0.2-0.3-0.3c-0.1-0.1-0.3-0.2-0.4-0.2
							c-0.3-0.1-0.4-0.1-0.7-0.1c-1.6-0.1-3,0.2-4.4,0.6c-1.4,0.4-2.8,1-4,1.7c-0.6,0.3-1.3,0.8-2,1.3c-0.7,0.5-1.3,1.1-1.7,1.7
							c-0.2,0.3-0.7,0.8-1.1,1.5c-0.4,0.7-0.8,1.4-1.1,2c-0.2,0.5-0.3,0.8-0.4,1.1c-0.3,0.7-0.1,1.3,0.1,1.4
							c0.3,0.1,0.6-0.2,0.9-1.2c0.1-0.2,0.2-0.4,0.4-0.9c0.3-0.6,0.8-1.6,1.4-2.3c0.6-0.7,1.1-1.3,1.3-1.4c1.2-1.1,2.4-1.8,3.7-2.5
							c1.3-0.6,2.7-1.1,4.3-1.4c0.8-0.1,1.6-0.2,2.3-0.2c0.2,0,0.3,0,0.5,0c0.1,0,0.1,0,0.1,0c0,0,0,0.1,0,0.2c0,0.1,0,0.3,0,0.4
							c-0.3,1.3-1.4,2.6-2.8,3c-0.1,0-0.5,0.2-1.2,0.3c-0.7,0.1-1.5-0.1-2.2-0.5C26,26.6,25.3,25.9,25.3,26.3z"/>
					</g>
				</g>
				<g>
					<g>
						<path fill="#FCD7CD" d="M9.7,26.5c-0.4,0.1-1.1,0.5-1.9,0.9c-0.6,0.3-1.2,0.5-1.8,0.5c-0.6,0.1-1,0-1.3-0.1
							c-1.1-0.3-2.1-1-2.7-1.9c-0.3-0.4-0.6-0.9-0.7-1.4c0-0.2-0.1-0.5,0-0.7c0.1-0.2,0-0.1,0.2-0.2c0.1,0,0.2,0,0.3,0
							c1.2,0,2.6,0.4,3.9,0.8c1.3,0.4,2.6,1,3.7,1.6c0.6,0.3,1.2,0.7,1.8,1.1c0.6,0.4,1.2,0.9,1.6,1.4c0.2,0.2,0.7,0.7,1.1,1.3
							c0.4,0.6,0.8,1.3,1.1,1.8c0.2,0.5,0.3,0.8,0.4,1c0.2,0.6,0.6,1,0.9,1c0.3,0,0.5-0.5,0.1-1.5c-0.1-0.2-0.2-0.5-0.4-1
							c-0.3-0.7-0.9-1.7-1.5-2.5c-0.6-0.8-1.3-1.4-1.4-1.6c-1.3-1.3-2.6-2-4-2.7c-1.4-0.6-2.8-1.2-4.5-1.7c-0.5-0.2-1.1-0.3-1.6-0.4
							c-0.6-0.1-1.1-0.2-1.9,0c-0.2,0-0.5,0.2-0.7,0.3c-0.2,0.2-0.4,0.4-0.4,0.7C0,23.7,0,24.1,0,24.5c0.1,0.7,0.4,1.3,0.8,1.9
							c0.7,1.1,1.8,1.9,3,2.4c0.1,0,0.7,0.3,1.7,0.3c0.9,0,2.1-0.3,2.9-0.9C9.5,27.4,10.1,26.4,9.7,26.5z"/>
					</g>
				</g>
			</g>
			<g>
				<g>
					<path fill="#FCD7CD" d="M17.5,21.3c-0.3,0.3-0.4,1.1-0.5,2.1c-0.1,0.4-0.1,0.8-0.1,1c-0.1,0.8,0,1.5-0.1,2.3
						c-0.1,0.8-0.1,1.6-0.1,2.4c0,0.4,0.1,0.9,0.1,1.3c0,0.2,0.1,0.8,0.1,1.1c0,0.5,0,0.9,0,1.2c0,1.4,1.1,2,1.1-0.2
						c0-0.2,0-0.5,0-1c0-0.4,0-1.3,0-1.4c0.1-1-0.1-1.7,0.1-2.6c0.2-0.9,0-1.9,0.1-2.9c0,0,0-0.7-0.1-1.2
						C17.9,22.1,17.8,21,17.5,21.3z"/>
				</g>
			</g>
			<g>
				<g>
					<path fill="#F79C82" d="M19.5,0.7c-0.1,0.1-0.9,0.9-1.5,1.4c-0.1,0.1-0.3,0.3-0.4,0.4c-0.1,0-0.1,0.1-0.2,0.1
						c-0.1,0-0.1,0-0.2-0.1c0-0.1,0,0-0.1-0.2c-0.8-0.8-1.1-1.1-1.3-1.4l-0.6-0.6C15,0.1,14.6-0.1,14.2,0c-0.2,0.1-0.3,0.2-0.5,0.3
						c-0.1,0.1-0.3,0.4-0.3,0.4C13.3,1,13.1,1.2,13,1.4c-0.5,0.8-1,1.7-1.3,2.6c-0.8,1.8-1.4,3.6-1.8,5.5c-0.2,0.9-0.4,1.9-0.5,2.8
						c-0.1,1-0.1,2,0,3.1c0.2,1.6,0.9,3.2,2,4.4c1.1,1.2,2.7,1.9,4.3,2.3c1.6,0.3,3.3,0.2,4.8-0.4c1.5-0.6,2.8-1.6,3.7-2.9
						c0.9-1.3,1.5-3.3,1.3-5.1c-0.1-1.8-0.5-3.5-0.9-4.9c-0.3-1-0.8-3.1-1.9-5.3c-0.6-1.1-1.2-2.1-1.8-3c-0.4-0.5-1.1-0.3-1.3-0.1
						L20.3,1c0,0,0,0,0,0c0.5,0.8,1.5,2.4,2.1,3.9c1.1,2.7,1.7,5.5,1.8,5.9c0.3,1.7,0.6,3.3,0.2,4.8c-0.3,1.6-1.3,2.9-2.4,3.9
						c-1.2,1-2.7,1.6-4.3,1.7c-1.5,0-3-0.5-4.3-1.5c-1.3-1-2.3-2.4-2.7-4.1c-0.4-1.6,0-3.4,0.3-5.1c0.4-1.7,0.7-3.5,1.4-5.1
						c0.3-0.8,0.7-1.6,1.2-2.4c0.2-0.4,0.5-0.7,0.7-1.1l0.4-0.5c0,0,0,0,0,0l0,0c0,0,0,0,0,0c0.1,0.1,0.2,0.2,0.3,0.3
						c0.4,0.4,0.9,0.8,1.5,1.5c0,0,0,0,0.1,0.1c0.1,0.1,0.2,0.2,0.4,0.3c0.3,0.2,1,0.2,1.4-0.3l0.4-0.5l0.4-0.4l0.8-0.9
						C20,1.4,20.2,1.2,20.3,1l-0.6-0.6C19.7,0.5,19.6,0.6,19.5,0.7z"/>
				</g>
			</g>
			<g>
				<path fill="#FFFFFF" d="M1.4,40.8v-6.1c0-0.5,0.4-1,1-1h30.1c0.5,0,1,0.4,1,1v6.1c0,0.5-0.4,1-1,1H2.3
					C1.8,41.8,1.4,41.4,1.4,40.8z"/>
				<g>
					<path fill="#F79C82" d="M1.1,41.2c0.1,0.2,0.1,0.3,0.3,0.5c0.2,0.2,0.4,0.4,0.7,0.4c0.3,0.1,0.5,0,0.7,0c0.8,0,1.6,0,2.4,0
						c1.5,0,2.8,0.1,3.5,0.1c2.6,0,5,0.1,7.4,0.1c2.5,0,4.9,0,7.4,0c2.4,0,4.9-0.1,7.4-0.1l1.5,0c0.1,0,0.3,0,0.5,0
						c0.2,0,0.4-0.1,0.5-0.2c0.3-0.2,0.6-0.6,0.7-1c0-0.1,0-0.2,0-0.3l0-0.2l0-0.4l0-0.7l0-1.5c0-1,0-2-0.1-3l0-0.4
						c0-0.2,0-0.4-0.1-0.6c-0.2-0.4-0.5-0.7-0.8-0.9c-0.2-0.1-0.4-0.1-0.6-0.2c-0.2,0-0.3,0-0.4,0l-0.7,0c-2,0-3.9,0-5.9,0
						c-2,0-3.8,0-5.8-0.1c-1.9,0-4.2,0.1-6.4,0.1c-2.2,0-4.4,0-6.3,0c-0.6,0-1.7,0-2.9,0c-0.3,0-0.6,0-1,0c-0.2,0-0.3,0-0.5,0
						l-0.3,0c-0.1,0-0.3,0-0.4,0c-0.5,0.1-1,0.6-1.1,1.1c0,0.1,0,0.3,0,0.4l0,0.3l0,0.6c0,1.5,0.1,3.2,0.1,4.4c0,0.3,0,0.6,0.1,0.8
						h0.8c0-0.2,0-0.4,0-0.8c0-0.6,0-1.5,0-2.6c0-0.5,0-1.1,0-1.6l0-0.8l0-0.2c0-0.1,0-0.1,0-0.1c0-0.1,0-0.1,0.1-0.2
						c0.2-0.2,0.4-0.2,0.9-0.2c0.5,0,0.9,0,1.4,0c0.9,0,1.7,0,2.5,0c1.5,0,2.6,0,2.9,0c2.3,0,4.4,0,6.5,0c2.2,0,4.4,0,6.5,0
						c2.1,0,4.3,0,6.5,0c1,0,2.1,0,3.2,0.1c0.3,0,0.4,0,0.5,0.1c0.1,0.1,0.2,0.2,0.2,0.3c0,0.5,0,1,0,1.6c0,1.2,0,2.3,0,3.5l0,0.9
						c0,0.2,0,0.2,0,0.3c0,0.1,0,0.1-0.1,0.1c-0.1,0.1-0.1,0.1-0.3,0.1l-0.9,0c-2.3,0-4.7,0-7-0.1c-2.3,0-4.7,0.1-7,0.1
						c-2.4,0-4.7-0.2-7-0.2c-1.1,0-2.9,0.1-6,0.1c-0.5,0-1,0-1.5,0l-0.7,0c-0.1,0-0.2,0-0.3-0.1c-0.1-0.1-0.2-0.2-0.2-0.3H1
						C1,41,1,41.1,1.1,41.2z"/>
				</g>
			</g>
		</g>
	</g>
</g>
</svg>
