<?xml version="1.0"?><svg width="5000" height="5000" xmlns="http://www.w3.org/2000/svg">
 <title>tele</title>
 <metadata id="metadata4">image/svg+xml</metadata>
 <g>
  <path fill="#000000" fill-rule="nonzero" stroke-width="3" marker-start="none" marker-mid="none" marker-end="none" stroke-miterlimit="4" stroke-dashoffset="0" d="m3935.219482,4460.401855c78.312988,93.975586 179.959717,91.430176 148.794922,305.421387c-331.390625,130.007813 -1018.070557,-39.156738 -1018.070557,-39.156738l7.831299,-78.312988l861.444336,-187.95166z" id="path9087"/>
  <path fill="#000000" fill-rule="nonzero" stroke-width="3" marker-start="none" marker-mid="none" marker-end="none" stroke-miterlimit="4" stroke-dashoffset="0" id="path9085" d="m902.437988,4295.944336c-78.313049,93.976074 -179.959839,91.429688 -148.794983,305.420898c331.390198,130.008789 1018.070618,-39.15625 1018.070618,-39.15625l-7.831299,-78.312988l-861.444336,-187.95166z"/>
  <path fill="#c9c90a" fill-rule="nonzero" stroke-width="3" marker-start="none" marker-mid="none" marker-end="none" stroke-miterlimit="4" stroke-dashoffset="0" d="m3267.493896,1711.611572c0,268.15686 -357.632324,485.54126 -798.793945,485.54126c-441.161499,0 -798.793457,-217.384399 -798.793457,-485.54126c0,-268.15686 357.631958,-485.54126 798.793457,-485.54126c441.161621,0 798.793945,217.384399 798.793945,485.54126z" id="path9062"/>
  <path fill="#c9c90a" fill-rule="nonzero" stroke-width="3" marker-start="none" marker-mid="none" marker-end="none" stroke-miterlimit="4" stroke-dashoffset="0" id="path9046" d="m848.737488,1921.938599c469.878601,-279.689819 3009.460754,-950.945129 3456.964661,234.939331c469.878418,1420.823486 -39.762695,2042.149414 -179.001465,2215.142578c-402.753174,436.31543 -2394.143677,402.752441 -3468.152344,-111.875977c-492.253601,-883.819824 -61.41803,-2188.440186 190.189148,-2338.205933z"/>
  <path fill="#2e3436" fill-rule="nonzero" stroke-width="3" marker-start="none" marker-mid="none" marker-end="none" stroke-miterlimit="4" stroke-dashoffset="0" id="path9057" d="m4111.063477,3418.974121c-18.76001,203.060791 -298.002441,167.422119 -326.703125,-24.877197c0,-85.771729 64.366455,-156.512451 143.657227,-155.384521c143.564453,2.073486 183.045898,94.489014 183.045898,180.261719z"/>
  <path fill="#2e3436" fill-rule="nonzero" stroke-width="3" marker-start="none" marker-mid="none" marker-end="none" stroke-miterlimit="4" stroke-dashoffset="0" d="m4095.400635,2776.806641c-18.759766,203.060547 -298.001953,167.422119 -326.702637,-24.877441c0,-85.77124 64.366455,-156.512207 143.656738,-155.384033c143.564453,2.073486 183.045898,94.489014 183.045898,180.261475z" id="path9060"/>
  <path fill="#c9c90a" fill-rule="nonzero" stroke-width="3" marker-start="none" marker-mid="none" marker-end="none" stroke-miterlimit="4" stroke-dashoffset="0" id="path9064" d="m2625.326416,1288.720825l939.757324,-971.082642l46.987793,156.626221l-901.228027,845.074707l-85.51709,-30.618286z"/>
  <path fill="#000000" fill-rule="nonzero" stroke-width="3" marker-start="none" marker-mid="none" marker-end="none" stroke-miterlimit="4" stroke-dashoffset="0" d="m3831.348389,380.288879c0,95.152527 -94.667236,172.288879 -211.445313,172.288879c-116.778076,0 -211.445313,-77.136353 -211.445313,-172.288879c0,-95.152557 94.667236,-172.288864 211.445313,-172.288864c116.778076,0 211.445313,77.136307 211.445313,172.288864z" id="path9066"/>
  <path fill="#c9c90a" fill-rule="nonzero" stroke-width="3" marker-start="none" marker-mid="none" marker-end="none" stroke-miterlimit="4" stroke-dashoffset="0" d="m2406.050049,1445.347046l-861.444458,-830.119019l-31.325317,109.638367l734.153076,650.591614l158.616699,69.889038z" id="path9068"/>
  <path fill="#000000" fill-rule="nonzero" stroke-width="3" marker-start="none" marker-mid="none" marker-end="none" stroke-miterlimit="4" stroke-dashoffset="0" id="path9070" d="m1395.810181,692.381287c0,82.817993 82.395996,149.955139 184.035767,149.955139c101.640625,0 184.035889,-67.137146 184.035889,-149.955139c0,-82.817932 -82.395264,-149.955139 -184.035889,-149.955139c-101.639771,0 -184.035767,67.137207 -184.035767,149.955139z"/>
  <path fill="#ff007f" fill-rule="nonzero" stroke-width="3" marker-start="none" marker-mid="none" marker-end="none" stroke-miterlimit="4" stroke-dashoffset="0" id="path9082" d="m4014.894775,4196.785156c-50.433105,3.367188 -190.517334,48.058594 -624.057617,216.82959c-58.411621,22.73877 -136.977783,30.875 -239.833984,35.240723c-102.856445,4.366211 -228.317139,2.693359 -368.071533,-2.936523c-279.508789,-11.259277 -617.156494,-38.824707 -943.672852,-70.971191c-535.765259,-52.746582 -958.46228,-106.845215 -1122.814392,-128.237793c522.338074,236.737793 1255.539246,366.848145 1910.350281,384.223633c337.892334,8.966309 654.666016,-11.629395 908.921631,-60.692383c252.777344,-48.777344 442.353516,-128.865723 527.145264,-219.276855c108.001221,-108.898438 97.775635,-148.399902 -47.966797,-154.179199z"/>
  <path fill="#ffffff" fill-rule="nonzero" stroke-width="3" marker-start="none" marker-mid="none" marker-end="none" stroke-miterlimit="4" stroke-dashoffset="0" d="m3983.006348,2751.151855c-15.713379,68.595215 -50.223877,119.232666 -77.063477,113.077637c-26.840088,-6.155273 -35.837402,-66.770508 -20.090576,-135.35791c15.713379,-68.595215 50.223877,-119.232666 77.063965,-113.077637c26.840088,6.155273 35.83667,66.770264 20.090088,135.35791z" id="path9074"/>
  <path fill="#ffffff" fill-rule="nonzero" stroke-width="3" marker-start="none" marker-mid="none" marker-end="none" stroke-miterlimit="4" stroke-dashoffset="0" id="path9076" d="m4010.69458,3399.048096c-15.714111,68.594727 -50.223877,119.232666 -77.063965,113.077637c-26.839844,-6.155273 -35.836914,-66.770508 -20.090332,-135.35791c15.713135,-68.595459 50.223877,-119.23291 77.063721,-113.077881c26.840088,6.155273 35.83667,66.770508 20.090576,135.358154z"/>
  <title>Layer 1</title>
  <path fill="#888a85" fill-rule="nonzero" stroke-width="3" marker-start="none" marker-mid="none" marker-end="none" stroke-miterlimit="4" stroke-dashoffset="0" id="path9055" d="m2418.355713,1937.032837c-279.671387,1.779175 -583.323975,54.683472 -836.481689,122.364136c-253.157715,67.68042 -465.763184,158.249023 -524.697876,196.271973c18.674927,-12.04834 -10.976929,11.312744 -36.21991,57.755859c-25.242859,46.443848 -54.342224,114.318604 -80.760254,195.782715c-41.570557,128.189941 -76.407593,290.113281 -93.486267,462.536865c23.032349,-0.392822 46.783875,-1.092773 80.270874,-5.873535c173.123047,-24.713623 492.58313,-125.894531 1007.79187,-447.853027c550.119385,-343.773193 1041.80957,-222.711426 1346.496094,-5.384033c25.553955,18.227539 48.511963,37.612549 71.950195,56.776855c-16.670166,-70.820068 -36.493652,-144.505371 -60.203125,-222.213379c-54.864746,-157.587891 -152.890869,-245.60791 -303.952881,-313.251953c-151.061768,-67.644531 -353.170654,-98.296631 -570.707031,-96.912476z"/>
  <path fill="#555753" fill-rule="nonzero" stroke-width="3" marker-start="none" marker-mid="none" marker-end="none" stroke-miterlimit="4" stroke-dashoffset="0" d="m978.155701,2182.145752c337.919006,-218.015869 2164.290588,-741.254028 2486.118469,183.132813c337.918945,1107.520508 -28.596436,1591.839355 -128.731445,1726.685547c-289.644775,340.104736 -1721.777344,313.942627 -2494.164063,-87.206299c-354.010162,-688.929932 -44.169556,-1705.870361 136.777039,-1822.612061z" id="path9048"/>
 </g>
</svg>