<?xml version="1.0" encoding="utf-8"?>
<!-- Generator: Adobe Illustrator 16.0.4, SVG Export Plug-In . SVG Version: 6.00 Build 0)  -->
<!DOCTYPE svg PUBLIC "-//W3C//DTD SVG 1.1//EN" "http://www.w3.org/Graphics/SVG/1.1/DTD/svg11.dtd">
<svg version="1.1" id="Layer_1" xmlns="http://www.w3.org/2000/svg" xmlns:xlink="http://www.w3.org/1999/xlink" x="0px" y="0px"
	 width="600px" height="300px" viewBox="0 0 600 300" enable-background="new 0 0 600 300" xml:space="preserve">
<rect fill="#FFA518" width="600" height="300"/>
<circle fill="#D96E16" cx="127.979" cy="113.77" r="3.718"/>
<circle fill="#D96E16" cx="110.076" cy="18.733" r="3.718"/>
<circle fill="#D96E16" cx="250.942" cy="246.988" r="3.718"/>
<circle fill="#D96E16" cx="425.132" cy="246.988" r="3.718"/>
<circle fill="#D96E16" cx="250.943" cy="55.619" r="3.718"/>
<circle fill="#D96E16" cx="501.181" cy="116.409" r="3.718"/>
<circle fill="#D96E16" cx="482.759" cy="21.688" r="3.718"/>
<circle fill="#D96E16" cx="46.188" cy="194.383" r="3.718"/>
<polygon points="335.09,99.333 370.177,110.541 370.177,195.321 335.09,184.113 "/>
<polygon points="264.912,99.333 300.001,110.541 300.001,195.321 264.912,184.113 "/>
<polygon fill="#FFFFFF" points="335.09,99.333 300.001,110.541 300.001,195.321 335.09,184.113 "/>
<polygon fill="#FFFFFF" points="264.912,99.333 229.825,110.541 229.825,195.321 264.912,184.113 "/>
<polyline fill="none" stroke="#D96E16" stroke-miterlimit="10" points="51.104,84.793 217.244,145.333 265.294,129.604 
	300.001,141.619 334.708,128.039 370.417,140.296 "/>
<polyline fill="none" stroke="#D96E16" stroke-miterlimit="10" points="215.018,300 250.943,249.552 250.943,56.203 286.967,21.688 
	"/>
<polyline fill="none" stroke="#D96E16" stroke-miterlimit="10" points="449.833,205.82 332.706,169.118 300.001,180.128 "/>
<circle fill="none" stroke="#D96E16" stroke-miterlimit="10" cx="463.424" cy="211.218" r="6.987"/>
<circle fill="none" stroke="#D96E16" stroke-miterlimit="10" cx="463.425" cy="211.218" r="14.256"/>
<path fill="none" stroke="#D96E16" stroke-miterlimit="10" d="M559.753,61.722c0,6.223-5.044,11.267-11.265,11.267
	c-6.224,0-11.268-5.044-11.268-11.267c0-6.219,5.044-11.265,11.268-11.265C554.709,50.457,559.753,55.503,559.753,61.722z"/>
<path fill="none" stroke="#D96E16" stroke-miterlimit="10" d="M571.472,61.72c0,12.695-10.292,22.988-22.985,22.988
	c-12.693,0-22.985-10.293-22.985-22.988c0-12.69,10.292-22.982,22.985-22.982C561.18,38.737,571.472,49.029,571.472,61.72z"/>
<circle fill="none" stroke="#D96E16" stroke-miterlimit="10" cx="34.331" cy="111.589" r="8.394"/>
<path fill="none" stroke="#D96E16" stroke-miterlimit="10" d="M51.457,111.589c0,9.459-7.669,17.127-17.126,17.127
	c-9.457,0-17.125-7.668-17.125-17.127c0-9.455,7.669-17.125,17.125-17.125C43.788,94.464,51.457,102.134,51.457,111.589z"/>
<line fill="none" stroke="#D96E16" stroke-miterlimit="10" x1="356.999" y1="135.918" x2="356.999" y2="191.633"/>
<polyline fill="none" stroke="#D96E16" stroke-miterlimit="10" points="110.075,106.193 110.075,44.104 91.979,36.903 91.979,0 "/>
<path fill="none" stroke="#D96E16" stroke-miterlimit="10" d="M346.097,173.229c0-5.821,4.718-10.539,10.539-10.539l44.206,12.699"
	/>
<path fill="none" stroke="#D96E16" stroke-miterlimit="10" d="M265.294,140.528"/>
<path fill="none" stroke="#D96E16" stroke-miterlimit="10" d="M300.001,152.642"/>
<path fill="none" stroke="#D96E16" stroke-miterlimit="10" d="M277.159,188.025"/>
<path fill="none" stroke="#D96E16" stroke-miterlimit="10" d="M277.159,102.997"/>
<line fill="none" stroke="#D96E16" stroke-miterlimit="10" x1="286.967" y1="0" x2="286.967" y2="191.384"/>
<path fill="none" stroke="#D96E16" stroke-miterlimit="10" d="M83.188,96.966c3.083-12.504,14.397-20.817,26.753-20.59"/>
<line fill="none" stroke="#D96E16" stroke-miterlimit="10" x1="110.076" y1="53.879" x2="110.076" y2="20.204"/>
<line fill="none" stroke="#D96E16" stroke-miterlimit="10" x1="425.131" y1="198.079" x2="425.131" y2="300"/>
<line fill="none" stroke="#D96E16" stroke-miterlimit="10" x1="227.922" y1="281.878" x2="227.922" y2="298.999"/>
<line fill="none" stroke="#D96E16" stroke-miterlimit="10" x1="127.896" y1="113.61" x2="0" y2="239.1"/>
<path fill="none" stroke="#D96E16" stroke-miterlimit="10" d="M464.065,178.538"/>
<path fill="none" stroke="#D96E16" stroke-miterlimit="10" d="M335.09,138.859"/>
<path fill="none" stroke="#D96E16" stroke-miterlimit="10" d="M314.22,175.342"/>
<path fill="none" stroke="#D96E16" stroke-miterlimit="10" d="M229.585,147.782"/>
<path fill="none" stroke="#D96E16" stroke-miterlimit="10" d="M250.942,140.777"/>
<path fill="none" stroke="#D96E16" stroke-miterlimit="10" d="M229.585,122.807"/>
<path fill="none" stroke="#D96E16" stroke-miterlimit="10" d="M265.294,111.589"/>
<line fill="none" stroke="#D96E16" stroke-miterlimit="10" x1="250.943" y1="180.712" x2="46.188" y2="250.659"/>
<path fill="none" stroke="#D96E16" stroke-miterlimit="10" d="M229.585,154.32"/>
<path fill="none" stroke="#D96E16" stroke-miterlimit="10" d="M250.942,147.314"/>
<polyline fill="none" stroke="#D96E16" stroke-miterlimit="10" points="229.585,160.857 250.942,153.852 265.294,175.342 
	300.001,186.523 "/>
<line fill="none" stroke="#D96E16" stroke-miterlimit="10" x1="323.5" y1="298.999" x2="323.5" y2="102.997"/>
<line fill="none" stroke="#D96E16" stroke-miterlimit="10" x1="46.188" y1="194.383" x2="46.188" y2="300"/>
<path fill="none" stroke="#D96E16" stroke-miterlimit="10" d="M309.254,193.455"/>
<path fill="none" stroke="#D96E16" stroke-miterlimit="10" d="M309.109,138.116"/>
<line fill="none" stroke="#D96E16" stroke-miterlimit="10" x1="425.132" y1="246.988" x2="598.721" y2="296.459"/>
<line fill="none" stroke="#D96E16" stroke-miterlimit="10" x1="51.457" y1="111.237" x2="51.457" y2="0"/>
<line fill="none" stroke="#D96E16" stroke-miterlimit="10" x1="34.331" y1="128.716" x2="1.001" y2="128.716"/>
<path fill="none" stroke="#D96E16" stroke-miterlimit="10" d="M245.262,155.591"/>
<path fill="none" stroke="#D96E16" stroke-miterlimit="10" d="M217.244,145.333"/>
<line fill="none" stroke="#D96E16" stroke-miterlimit="10" x1="384.513" y1="185.435" x2="598.723" y2="58.442"/>
<line fill="none" stroke="#D96E16" stroke-miterlimit="10" x1="500.09" y1="117.066" x2="600" y2="149.516"/>
<polyline fill="none" stroke="#D96E16" stroke-miterlimit="10" points="356.999,136.919 379.333,76.404 482.759,21.852 "/>
<line fill="none" stroke="#D96E16" stroke-miterlimit="10" x1="482.759" y1="127.34" x2="482.759" y2="0"/>
<path fill="none" stroke="#D96E16" stroke-miterlimit="10" d="M600,296.459"/>
<line fill="none" stroke="#D96E16" stroke-miterlimit="10" x1="584.479" y1="144.332" x2="584.479" y2="300"/>
<line fill="none" stroke="#D96E16" stroke-miterlimit="10" x1="571.472" y1="61.72" x2="571.472" y2="0"/>
<line fill="none" stroke="#D96E16" stroke-miterlimit="10" x1="264.912" y1="99.333" x2="264.912" y2="184.113"/>
<line fill="none" stroke="#D96E16" stroke-miterlimit="10" x1="335.09" y1="99.333" x2="335.09" y2="184.113"/>
<line fill="none" stroke="#D96E16" stroke-miterlimit="10" x1="300.001" y1="110.251" x2="300.001" y2="195.031"/>
<line fill="none" stroke="#D96E16" stroke-miterlimit="10" x1="584.479" y1="170.188" x2="600" y2="175.342"/>
<polyline fill="none" stroke="#D96E16" stroke-miterlimit="10" points="46.188,290.438 70.217,290.438 70.217,300 70.217,242.271 
	"/>
<line fill="none" stroke="#D96E16" stroke-miterlimit="10" x1="463.424" y1="225.474" x2="463.424" y2="257.772"/>
</svg>
