<?xml version="1.0" encoding="utf-8"?>
<!-- Generator: Adobe Illustrator 18.1.1, SVG Export Plug-In . SVG Version: 6.00 Build 0)  -->
<svg version="1.1" id="Layer_1" xmlns="http://www.w3.org/2000/svg" xmlns:xlink="http://www.w3.org/1999/xlink" x="0px" y="0px"
	 viewBox="0 0 1415.5 956" enable-background="new 0 0 1415.5 956" xml:space="preserve">
<g>
	<path fill-rule="evenodd" clip-rule="evenodd" fill="#DB2927" d="M316.3,105.9c-39.1-8-83.6-12.9-123.8-12.9
		C107.2,93,0,111.2,0,214.1c0,145.3,196.7,99.7,196.7,150.1c0,18.8-30.6,25.7-64.3,25.7c-42.9,0-90.1-8.6-128.6-24.7v97
		c53.6,12.3,99.2,17.7,154.4,17.7c83.1,0,182.3-25.2,182.3-125.4c0-144.2-196.7-98.1-196.7-146.9c0-24.1,39.1-24.7,61.6-24.7
		c40.7,0,78.8,7.5,111,18.8V105.9z"/>
	<path fill-rule="evenodd" clip-rule="evenodd" fill="#DB2927" d="M384.7,282.2c26.8-13.4,61.1-23.6,93.3-23.6
		c33.8,0,70.8,4.3,71.3,40.2c-12.3-1.1-33.8-3.8-52.5-3.8c-67,0-144.2,17.2-144.2,102.9c0,58.4,50.4,82,102.4,82
		c38.1,0,72.4-15,91.1-46.6h1.1v40.2h125.4V303.7c0-101.8-93.8-115.8-171-115.8c-52.5,0-76.7,4.8-116.9,16.1V282.2z M549.3,359.4
		c0,24.1-13.9,49.9-41.8,49.9c-20.9,0-31.6-7.5-31.6-26.8c0-28.9,32.2-31.6,60-31.6h13.4V359.4z"/>
	<polygon fill-rule="evenodd" clip-rule="evenodd" fill="#DB2927" points="876.1,194.3 841.3,377.6 840.2,377.6 805.4,194.3 
		667.1,194.3 750.1,474.1 923.3,474.1 1008,194.3 	"/>
	<path fill-rule="evenodd" clip-rule="evenodd" fill="#DB2927" d="M1130,307.4c-1.6-22,5.4-55.2,36.5-55.2
		c30.6,0,33.8,33.8,33.8,55.2H1130z M1317.1,366.4v-16.6c0-94.3-38.1-161.9-146.3-161.9c-113.1,0-173.1,47.2-173.1,141
		c0,96.5,60,151.2,173.1,151.2c47.2,0,90.1-4.8,126-16.1v-72.4c-21.4,11.3-54.7,17.7-91.7,17.7c-39.7,0-72.4-8-74.5-42.9H1317.1z"/>
	<path fill-rule="evenodd" clip-rule="evenodd" fill="#005499" d="M1070.4,633.8c1.4-1.8,3.1-5.1-0.1-9.6c-2-2.7-4.9-4.2-7.9-4.1
		c-9.9,0.3-49.1,40.7-81.4,41.8l-7.5-0.5c-1.8,0.1-18.9-5.2-19.3-15.1c-1.7-49.9,35.9-134.8,42.2-159.2c0,0,9.2-25.6,10.8-37
		c1.8-12.4-12.1-30.4-32.6-29.7c-25,0.9-24.6,39.6-25.9,49.6c0.4,1.5-1,9.2-1,11.4c-0.3,30.6-31.6,164.1-32,166.3
		c-4.6,29.4,17.1,57.5,50.5,56.3C999.6,702.8,1047.9,662.9,1070.4,633.8z"/>
	<path fill-rule="evenodd" clip-rule="evenodd" fill="#005499" d="M1383.6,353.3c-3,3-4.4,6.5-4.4,10.7c0,4.2,1.5,7.8,4.4,10.8
		c2.9,3,6.5,4.5,10.7,4.5c4.2,0,7.8-1.5,10.7-4.5c2.9-3,4.4-6.6,4.4-10.8c0-4.2-1.5-7.8-4.4-10.7c-3-3-6.5-4.5-10.7-4.5
		C1390.1,348.8,1386.6,350.3,1383.6,353.3z M1406.8,376.5c-3.4,3.5-7.6,5.2-12.5,5.2c-4.9,0-9-1.7-12.5-5.2
		c-3.4-3.4-5.1-7.6-5.1-12.5c0-4.9,1.7-9,5.2-12.4c3.4-3.4,7.6-5.1,12.4-5.1c4.9,0,9,1.7,12.5,5.1c3.4,3.4,5.2,7.6,5.2,12.4
		C1412,368.9,1410.3,373.1,1406.8,376.5z M1397.6,357.3c-0.8-0.5-2.2-0.7-4.1-0.7h-2.9v7h3.1c1.4,0,2.5-0.1,3.2-0.4
		c1.3-0.5,2-1.5,2-3C1398.9,358.7,1398.5,357.8,1397.6,357.3z M1394,354.3c2.4,0,4.2,0.2,5.3,0.7c2,0.8,3,2.5,3,4.9
		c0,1.7-0.6,3-1.9,3.8c-0.7,0.4-1.6,0.7-2.8,0.9c1.5,0.2,2.6,0.9,3.3,1.9c0.7,1,1,2,1.1,3v1.4c0,0.5,0,0.9,0.1,1.4
		c0,0.5,0.1,0.8,0.2,1l0.1,0.2h-3.2c0-0.1,0-0.1-0.1-0.2c0-0.1,0-0.1,0-0.2l-0.1-0.6v-1.5c0-2.2-0.6-3.7-1.8-4.4
		c-0.7-0.4-2-0.6-3.8-0.6h-2.7v7.6h-3.4v-19.4H1394z"/>
	<path fill="#005499" d="M713.9,538c-20.7,24.2-20.6,42.9-8,51.8c12.7,8.9,37.7-5.1,56-31.2c18.3-26.1,33.6-59.5,19-64.5
		C767.3,489.4,735.1,513.2,713.9,538z M815.4,494.4c0,13.2-1.7,29.1-6.2,44.4c0.7,20.9,10.9,38.6,34.4,37.8
		c19.8-0.7,29-11.7,38.4-16.8c1.8-1.2,3.6-1.6,5.1-1.6c7.7-0.3,11.1,11.4,11.2,15c0.7,18.7-36.7,43.8-64.7,43.3
		c-21-0.6-41.5-12.1-46.6-20.7c-1.8-3.1-3.5-5.9-4.9-8.4c-1,1.4-2.7,3.7-5.2,6.7c-8.9,11.2-10.7,11.6-18.2,17.7
		c-12.9,10.6-30.3,17.6-45.7,18.1c-19.1,0.7-49.2-14.4-54.2-38.2c-4.4-20.8-1.5-37.5,20.3-71.7c25.9-35.4,56.2-64.4,98.8-64.1
		C797.5,456.1,815.4,475.6,815.4,494.4z"/>
	<path fill-rule="evenodd" clip-rule="evenodd" fill="#005499" d="M1415.5,414.5c-0.3-7.3-6.8-16.3-18.6-15.9
		c-5.1,0.2-30.2,9.4-42.6,10.6c-1.6,0.2-7.4,1.7-10.3,1.8c-3.3,0.1-6.9,0.3-8.4-0.2c-1.7-0.6-2.5-3.7-0.6-6.4
		c1-2.2,27.9-44.6,30.9-52.5c5.5-14.4-5.8-30.3-24.9-28.2c-6.6,0.2-16.3,4.9-25.2,24.8c-11,22.5-16.5,42.1-27.7,68.6
		c-25.3,0.9-39.4,6.9-38.7,27.8c0.6,18,26.4,5.3,35.1,12c-4.4,10.1-31.3,97-30.5,121.6c0.9,25,11.6,71.4,55.4,70.5
		c32.3-0.7,59.6-21.2,82.8-42.2c14.2-12.8,20.9-16.4,19.1-31.7c-1-8.6-12.9-14-22.3-4.2c-4.9,7.2-47.1,39.9-66.7,40.8
		c-5.6,0.8-11.4,0.4-11.4,0.4c-10.4-1.1-14.8-17.8-15.3-32.5c-0.3-9.2,0.5-18.4,1.1-22.1c2-17,17.7-93.9,23.4-99.3
		c8.2-5.8,52.3-18.4,60.7-18.7c3.7-0.1,11.8,0.7,14.7,0.6C1408.3,439.7,1415.8,422.9,1415.5,414.5z"/>
	<path fill-rule="evenodd" clip-rule="evenodd" fill="#005499" d="M1233,506c2.4,20.9-4.6,59.8-36.1,99.6c-8.1,8-15,15.3-22.5,21.4
		c-8.6,6.9-27.3,18.6-50.3,17.7c-19.1-0.8-47.5-13.1-53.1-36.8c-4.7-19.7-1.2-38.1,22.5-74.7c34.9-42.5,57.8-66.9,100.9-65.9
		C1216.5,467.8,1230.9,488.4,1233,506z M1151.3,530.8c-1.3,1.1-2.6,2.3-4,3.5c-6.2,5.6-12.1,11.7-17.4,17.9
		c-20.7,24.2-20.6,42.9-8,51.8c12.7,8.9,37.7-5.1,56-31.2c18.3-26.1,33.6-59.5,19-64.5C1187.5,505,1168.9,515.6,1151.3,530.8z"/>
</g>
<g>
	<path fill="#005499" d="M189,766.6h-19.8V747H189v-14.4c0-20.6,11.6-35,32.8-35c6.8,0,14.4,1,19.6,2.2l-2.2,22.2
		c-2.4-1.4-5.8-3.6-11.6-3.6c-9,0-11.8,7.8-11.8,15.8V747h23.4v19.6h-23.4v83.3H189V766.6z"/>
	<path fill="#005499" d="M306.6,744.6c30.6,0,53.9,20.6,53.9,54.5c0,29.6-19.8,53.1-53.9,53.1c-34,0-53.7-23.6-53.7-53.1
		C252.9,765.2,276.3,744.6,306.6,744.6z M306.6,831.5c20.6,0,26-18.4,26-35.6c0-15.8-8.4-30.6-26-30.6c-17.4,0-25.8,15.2-25.8,30.6
		C280.9,813,286.3,831.5,306.6,831.5z"/>
	<path fill="#005499" d="M431.3,744.6c30.6,0,53.9,20.6,53.9,54.5c0,29.6-19.8,53.1-53.9,53.1c-34,0-53.8-23.6-53.8-53.1
		C377.6,765.2,401,744.6,431.3,744.6z M431.3,831.5c20.6,0,26-18.4,26-35.6c0-15.8-8.4-30.6-26-30.6c-17.4,0-25.8,15.2-25.8,30.6
		C405.5,813,410.9,831.5,431.3,831.5z"/>
	<path fill="#005499" d="M577.4,838.3H577c-8,10-19,14-31.6,14c-31.6,0-43.2-26-43.2-54.1c0-28.4,11.6-53.5,43.2-53.5
		c13.4,0,22.8,4.6,30.8,14.4h0.4v-58.9h26.8v149.9h-26V838.3z M552.8,831.5c17.8,0,23.6-18.8,23.6-33.4c0-14.4-6.8-32.8-24-32.8
		c-17.4,0-22.2,19-22.2,32.8C530.2,812.4,535.2,831.5,552.8,831.5z"/>
	<path fill="#005499" d="M752.8,768.6c-8.2-2.8-14.2-4.4-24-4.4c-7.2,0-15.8,2.6-15.8,11.4c0,16.4,46.6,6,46.6,43.2
		c0,24-21.4,33.6-43.2,33.6c-10.2,0-20.6-1.8-30.4-4.4l1.6-22c8.4,4.2,17.2,6.8,26.4,6.8c6.8,0,17.6-2.6,17.6-12.6
		c0-20.2-46.6-6.4-46.6-43.6c0-22.2,19.4-32,40.4-32c12.6,0,20.8,2,29.2,3.8L752.8,768.6z"/>
	<path fill="#005499" d="M791.8,766.6H772V747h19.8v-20.6l26.8-8.6V747h23.8v19.6h-23.8v48c0,8.8,2.4,17,12.6,17
		c4.8,0,9.4-1,12.2-2.8l0.8,21.2c-5.6,1.6-11.8,2.4-19.8,2.4c-21,0-32.6-13-32.6-33.4V766.6z"/>
	<path fill="#005499" d="M910.4,744.6c30.6,0,53.9,20.6,53.9,54.5c0,29.6-19.8,53.1-53.9,53.1c-34,0-53.8-23.6-53.8-53.1
		C856.7,765.2,880.1,744.6,910.4,744.6z M910.4,831.5c20.6,0,26-18.4,26-35.6c0-15.8-8.4-30.6-26-30.6c-17.4,0-25.8,15.2-25.8,30.6
		C884.7,813,890.1,831.5,910.4,831.5z"/>
	<path fill="#005499" d="M988.6,747h23.8v23.4h0.4c1.2-9.6,12.2-25.8,28.2-25.8c2.6,0,5.4,0,8.2,0.8v27c-2.4-1.4-7.2-2.2-12-2.2
		c-21.8,0-21.8,27.2-21.8,42v37.8h-26.8V747z"/>
	<path fill="#005499" d="M1147.2,844.1c-9.8,5.4-21,8.2-35.4,8.2c-34,0-53.7-19.6-53.7-53.3c0-29.8,15.8-54.3,47.8-54.3
		c38.2,0,49,26.2,49,62.1h-71.1c1.2,16.6,12.8,26,29.4,26c13,0,24.2-4.8,34.2-10.4V844.1z M1129.3,788.4c-0.8-13-6.8-24.2-21.8-24.2
		c-15,0-22.6,10.4-23.8,24.2H1129.3z"/>
	<path fill="#005499" d="M1239.6,768.6c-8.2-2.8-14.2-4.4-24-4.4c-7.2,0-15.8,2.6-15.8,11.4c0,16.4,46.6,6,46.6,43.2
		c0,24-21.4,33.6-43.2,33.6c-10.2,0-20.6-1.8-30.4-4.4l1.6-22c8.4,4.2,17.2,6.8,26.4,6.8c6.8,0,17.6-2.6,17.6-12.6
		c0-20.2-46.6-6.4-46.6-43.6c0-22.2,19.4-32,40.4-32c12.6,0,20.8,2,29.2,3.8L1239.6,768.6z"/>
</g>
</svg>
