<svg id="Layer_1" data-name="Layer 1" xmlns="http://www.w3.org/2000/svg" viewBox="0 0 184 85"><defs><style>.cls-1,.cls-3{fill:none;stroke-miterlimit:10;}.cls-1,.cls-2,.cls-3{stroke:#288cf4;fill-rule:evenodd;}.cls-1,.cls-2{stroke-width:1.2px;}.cls-1{stroke-dasharray:5;}.cls-2{fill:#fff;stroke-linecap:round;stroke-linejoin:round;stroke-dasharray:4;}.cls-4{fill:#288cf4;}</style></defs><title>Artboard 2</title><path class="cls-1" d="M90.12133,44.0116C82.34323,3.8964,27.32763-12.7061,3.468,25.2859"/><path class="cls-2" d="M3.95493,16.7212,1.00653,28.1311l10.8359-4.5229Z"/><path class="cls-3" d="M69.99937,81.04377c26.1601-9.8695,81.8013-13.728,113-9.1694"/><path class="cls-4" d="M76.01367,60.11983a2.80184,2.80184,0,0,1-1.09375,2.35156,4.74318,4.74318,0,0,1-2.96875.84375,7.43163,7.43163,0,0,1-3.125-.52344V61.51046a8.175,8.175,0,0,0,1.53125.46875,8.04016,8.04016,0,0,0,1.64063.17188,3.31132,3.31132,0,0,0,2-.50391,1.65385,1.65385,0,0,0,.67188-1.40234,1.80306,1.80306,0,0,0-.23828-.97266,2.22377,2.22377,0,0,0-.79687-.69922,11.196,11.196,0,0,0-1.69922-.72656,5.41786,5.41786,0,0,1-2.27734-1.35156,2.98123,2.98123,0,0,1-.68359-2.03906,2.53613,2.53613,0,0,1,.99219-2.10156,4.12391,4.12391,0,0,1,2.625-.78125,7.73937,7.73937,0,0,1,3.13281.625l-.41406,1.15625a7.08642,7.08642,0,0,0-2.75-.59375,2.66283,2.66283,0,0,0-1.64844.45313,1.49341,1.49341,0,0,0-.59375,1.25781,1.9252,1.9252,0,0,0,.21875.97266,2.0514,2.0514,0,0,0,.73828.69531,9.1308,9.1308,0,0,0,1.58984.69922,6.30278,6.30278,0,0,1,2.47266,1.375A2.70611,2.70611,0,0,1,76.01367,60.11983Z"/><path class="cls-4" d="M80.91992,62.24483a4.61433,4.61433,0,0,0,1.17188-.15625v.99219a2.37074,2.37074,0,0,1-.62109.168,4.703,4.703,0,0,1-.73828.06641q-2.48437,0-2.48437-2.61719V55.60421H77.02148v-.625l1.22656-.53906.54688-1.82812h.75V54.5964H82.0293v1.00781H79.54492v5.03906a1.7316,1.7316,0,0,0,.36719,1.1875A1.27627,1.27627,0,0,0,80.91992,62.24483Z"/><path class="cls-4" d="M89.06836,63.1589l-.25781-1.21875H88.748A3.60244,3.60244,0,0,1,87.4707,63.03a3.89773,3.89773,0,0,1-1.58984.28516,2.859,2.859,0,0,1-1.99609-.65625,2.39256,2.39256,0,0,1-.72266-1.86719q0-2.59351,4.14844-2.71875l1.45313-.04687v-.53125a2.17084,2.17084,0,0,0-.43359-1.48828,1.78352,1.78352,0,0,0-1.38672-.48047,5.64853,5.64853,0,0,0-2.42187.65625l-.39844-.99219a6.1033,6.1033,0,0,1,1.38672-.53906,6.019,6.019,0,0,1,1.51172-.19531,3.26217,3.26217,0,0,1,2.26953.67969,2.83707,2.83707,0,0,1,.73828,2.17969V63.1589Zm-2.92969-.91406a2.63186,2.63186,0,0,0,1.90234-.66406,2.45613,2.45613,0,0,0,.69141-1.85937V58.948l-1.29687.05469a4.72064,4.72064,0,0,0-2.23047.48047,1.44882,1.44882,0,0,0-.68359,1.32422,1.33483,1.33483,0,0,0,.42578,1.07031A1.76481,1.76481,0,0,0,86.13867,62.24483Z"/><path class="cls-4" d="M96.60742,54.44015a5.078,5.078,0,0,1,1.02344.09375L97.45117,55.737a4.4226,4.4226,0,0,0-.9375-.11719,2.28182,2.28182,0,0,0-1.77734.84375,3.07688,3.07688,0,0,0-.73828,2.10156V63.1589H92.70117V54.5964h1.07031l.14844,1.58594h.0625a3.76034,3.76034,0,0,1,1.14844-1.28906A2.587,2.587,0,0,1,96.60742,54.44015Z"/><path class="cls-4" d="M101.998,62.24483a4.61433,4.61433,0,0,0,1.17188-.15625v.99219a2.37074,2.37074,0,0,1-.62109.168,4.703,4.703,0,0,1-.73828.06641q-2.48437,0-2.48438-2.61719V55.60421H98.09961v-.625l1.22656-.53906L99.873,52.612h.75V54.5964h2.48438v1.00781H100.623v5.03906a1.7316,1.7316,0,0,0,.36719,1.1875A1.27627,1.27627,0,0,0,101.998,62.24483Z"/><path class="cls-4" d="M114.30273,63.1589l-.25781-1.21875h-.0625A3.60244,3.60244,0,0,1,112.70508,63.03a3.89773,3.89773,0,0,1-1.58984.28516,2.859,2.859,0,0,1-1.99609-.65625,2.39256,2.39256,0,0,1-.72266-1.86719q0-2.59351,4.14844-2.71875l1.45313-.04687v-.53125a2.17084,2.17084,0,0,0-.43359-1.48828,1.78352,1.78352,0,0,0-1.38672-.48047,5.64853,5.64853,0,0,0-2.42187.65625l-.39844-.99219a6.1033,6.1033,0,0,1,1.38672-.53906,6.019,6.019,0,0,1,1.51172-.19531,3.26217,3.26217,0,0,1,2.26953.67969,2.83707,2.83707,0,0,1,.73828,2.17969V63.1589Zm-2.92969-.91406a2.63186,2.63186,0,0,0,1.90234-.66406,2.45613,2.45613,0,0,0,.69141-1.85937V58.948l-1.29687.05469a4.72064,4.72064,0,0,0-2.23047.48047,1.44882,1.44882,0,0,0-.68359,1.32422,1.33483,1.33483,0,0,0,.42578,1.07031A1.76481,1.76481,0,0,0,111.373,62.24483Z"/><path class="cls-4" d="M125.95117,55.60421h-2.17969V63.1589h-1.29687V55.60421h-1.53125v-.58594l1.53125-.46875V54.073q0-3.156,2.75781-3.15625a5.6809,5.6809,0,0,1,1.59375.27344l-.33594,1.03906A4.30148,4.30148,0,0,0,125.209,51.987a1.24869,1.24869,0,0,0-1.08594.48828,2.7254,2.7254,0,0,0-.35156,1.56641v.55469h2.17969Z"/><path class="cls-4" d="M131.41992,54.44015a5.078,5.078,0,0,1,1.02344.09375l-.17969,1.20313a4.4226,4.4226,0,0,0-.9375-.11719,2.28182,2.28182,0,0,0-1.77734.84375,3.07688,3.07688,0,0,0-.73828,2.10156V63.1589h-1.29687V54.5964H128.584l.14844,1.58594h.0625a3.76034,3.76034,0,0,1,1.14844-1.28906A2.587,2.587,0,0,1,131.41992,54.44015Z"/><path class="cls-4" d="M137.66211,63.31515A3.93291,3.93291,0,0,1,134.666,62.1589a4.47438,4.47438,0,0,1-1.09766-3.21094,4.96481,4.96481,0,0,1,1.01953-3.28906,3.38639,3.38639,0,0,1,2.73828-1.21875,3.22985,3.22985,0,0,1,2.54688,1.05859,4.05781,4.05781,0,0,1,.9375,2.793V59.112h-5.89844a3.39157,3.39157,0,0,0,.76172,2.28906,2.63345,2.63345,0,0,0,2.03516.78125,6.89216,6.89216,0,0,0,2.73438-.57812v1.15625a6.84729,6.84729,0,0,1-1.30078.42578A7.31231,7.31231,0,0,1,137.66211,63.31515Zm-.35156-7.78906a2.11815,2.11815,0,0,0-1.64453.67188,3.09527,3.09527,0,0,0-.72266,1.85938h4.47656a2.85407,2.85407,0,0,0-.54687-1.87891A1.92649,1.92649,0,0,0,137.31055,55.52608Z"/><path class="cls-4" d="M146.63867,63.31515a3.93291,3.93291,0,0,1-2.99609-1.15625,4.47438,4.47438,0,0,1-1.09766-3.21094,4.96481,4.96481,0,0,1,1.01953-3.28906,3.38639,3.38639,0,0,1,2.73828-1.21875,3.22985,3.22985,0,0,1,2.54688,1.05859,4.05781,4.05781,0,0,1,.9375,2.793V59.112h-5.89844a3.39157,3.39157,0,0,0,.76172,2.28906,2.63345,2.63345,0,0,0,2.03516.78125,6.89216,6.89216,0,0,0,2.73438-.57812v1.15625a6.84729,6.84729,0,0,1-1.30078.42578A7.31231,7.31231,0,0,1,146.63867,63.31515Zm-.35156-7.78906a2.11815,2.11815,0,0,0-1.64453.67188,3.09527,3.09527,0,0,0-.72266,1.85938h4.47656a2.85407,2.85407,0,0,0-.54687-1.87891A1.92649,1.92649,0,0,0,146.28711,55.52608Z"/><path class="cls-4" d="M158.91992,62.24483a4.61433,4.61433,0,0,0,1.17188-.15625v.99219a2.37074,2.37074,0,0,1-.62109.168,4.703,4.703,0,0,1-.73828.06641q-2.48437,0-2.48437-2.61719V55.60421h-1.22656v-.625l1.22656-.53906.54688-1.82812h.75V54.5964h2.48438v1.00781h-2.48437v5.03906a1.7316,1.7316,0,0,0,.36719,1.1875A1.27627,1.27627,0,0,0,158.91992,62.24483Z"/><path class="cls-4" d="M165.709,54.44015a5.078,5.078,0,0,1,1.02344.09375l-.17969,1.20313a4.4226,4.4226,0,0,0-.9375-.11719,2.28182,2.28182,0,0,0-1.77734.84375,3.07688,3.07688,0,0,0-.73828,2.10156V63.1589h-1.29687V54.5964H162.873l.14844,1.58594h.0625a3.76034,3.76034,0,0,1,1.14844-1.28906A2.587,2.587,0,0,1,165.709,54.44015Z"/><path class="cls-4" d="M168.22461,52.27608a.861.861,0,0,1,.21875-.65234.8098.8098,0,0,1,1.08594.00391.84662.84662,0,0,1,.22656.64844.859.859,0,0,1-.22656.65234.75629.75629,0,0,1-.53906.21484.74727.74727,0,0,1-.54687-.21484A.87593.87593,0,0,1,168.22461,52.27608Zm1.40625,10.88281H168.334V54.5964h1.29688Z"/><path class="cls-4" d="M177.64648,63.1589l-.25781-1.21875h-.0625A3.60244,3.60244,0,0,1,176.04883,63.03a3.89773,3.89773,0,0,1-1.58984.28516,2.859,2.859,0,0,1-1.99609-.65625,2.39256,2.39256,0,0,1-.72266-1.86719q0-2.59351,4.14844-2.71875l1.45313-.04687v-.53125a2.17084,2.17084,0,0,0-.43359-1.48828,1.78352,1.78352,0,0,0-1.38672-.48047,5.64853,5.64853,0,0,0-2.42187.65625l-.39844-.99219a6.1033,6.1033,0,0,1,1.38672-.53906,6.019,6.019,0,0,1,1.51172-.19531,3.26217,3.26217,0,0,1,2.26953.67969,2.83707,2.83707,0,0,1,.73828,2.17969V63.1589Zm-2.92969-.91406a2.63186,2.63186,0,0,0,1.90234-.66406,2.45613,2.45613,0,0,0,.69141-1.85937V58.948l-1.29687.05469a4.72064,4.72064,0,0,0-2.23047.48047,1.44882,1.44882,0,0,0-.68359,1.32422,1.33483,1.33483,0,0,0,.42578,1.07031A1.76481,1.76481,0,0,0,174.7168,62.24483Z"/><path class="cls-4" d="M182.57617,63.1589H181.2793V51.00265h1.29688Z"/></svg>