<?xml version="1.0" encoding="UTF-8" standalone="no"?>
<svg width="260px" height="260px" viewBox="0 0 260 260" version="1.1" xmlns="http://www.w3.org/2000/svg" xmlns:xlink="http://www.w3.org/1999/xlink">
    <!-- Generator: Sketch 3.6 (26304) - http://www.bohemiancoding.com/sketch -->
    <title>QAdefaultImage</title>
    <desc>Created with Sketch.</desc>
    <defs></defs>
    <g id="Introduction" stroke="none" stroke-width="1" fill="none" fill-rule="evenodd">
        <g id="QAdefaultImage">
            <g id="Group-11" transform="translate(4.000000, 28.000000)">
                <g id="Group-4-Copy">
                    <g id="Group-2">
                        <path d="M41.1971423,156.599481 C15.5445201,140.186422 0,116.330305 0,90.0085148 C0,41.1289238 53.6045414,0 126,0 C198.395459,0 252,41.1289238 252,90.0085148 C252,138.888106 198.395459,179.264936 126,179.264936 C99.0831758,179.264936 74.7639558,173.683356 54.8316546,164.158425 C48.2965056,166.7392 40.1155935,169.202865 29.9270521,171.168376 C32.4500874,167.972619 37.2288531,164.018294 41.1971423,156.599481 Z" id="Oval-433" fill="#D2E0E5"></path>
                        <g id="Group-20" transform="translate(118.717012, 49.856557)"></g>
                        <g id="Group-17" transform="translate(21.962521, 31.590282)"></g>
                    </g>
                </g>
            </g>
            <ellipse id="Oval-434-Copy" fill="#00ACED" cx="177.575102" cy="127.843551" rx="54.8580904" ry="49.9869938"></ellipse>
            <path d="M148.914902,149.391945 L153.317624,148.752824 L172.071525,94.8110603 L184.72935,94.8110603 L203.356249,148.752824 L207.758971,149.391945 L207.758971,156.84835 L186.761375,156.84835 L186.761375,149.391945 L191.037095,148.625 L188.327728,140.103394 L168.346145,140.103394 L165.636778,148.625 L169.912498,149.391945 L169.912498,156.84835 L148.914902,156.84835 L148.914902,149.391945 Z M171.267182,130.942668 L185.406692,130.942668 L178.463938,109.08475 L178.209935,109.08475 L171.267182,130.942668 Z" id="A" fill="#FFFFFF"></path>
            <ellipse id="Oval-434" fill="#1A829A" cx="80.449773" cy="109.577276" rx="54.4872522" ry="49.9869938"></ellipse>
            <path d="M105.146283,105.995732 C105.146283,111.316438 104.193342,116.175011 102.28743,120.571595 C100.381519,124.968178 97.7174562,128.552601 94.2951625,131.324969 L107.233038,139.432005 L98.6356109,146.110859 L84.0700677,136.239597 C82.9849502,136.463627 81.8928931,136.645648 80.7938638,136.785667 C79.6948346,136.925686 78.6027775,136.995694 77.51766,136.995694 C69.3097198,136.995694 62.680864,134.069349 57.630894,128.216572 C52.580924,122.363794 50.0559769,114.956922 50.0559769,105.995732 L50.0559769,105.071613 C50.0559769,96.1664307 52.5739682,88.7735597 57.6100265,82.8927787 C62.6460847,77.0119976 69.2679847,74.0716512 77.4759249,74.0716512 C85.7116887,74.0716512 92.3822791,77.0119976 97.4878962,82.8927787 C102.593513,88.7735597 105.146283,96.1664307 105.146283,105.071613 L105.146283,105.995732 Z M93.001375,104.987603 C93.001375,98.6587621 91.6936889,93.5201567 89.0782774,89.5716323 C86.4628659,85.6231079 82.5954538,83.6488753 77.4759249,83.6488753 C72.3563961,83.6488753 68.5376744,85.6091063 66.0196453,89.529627 C63.5016161,93.4501477 62.2426204,98.6027547 62.2426204,104.987603 L62.2426204,105.995732 C62.2426204,112.436587 63.5155277,117.624198 66.0613803,121.558721 C68.607233,125.493243 72.4259547,127.460475 77.51766,127.460475 C82.6650124,127.460475 86.5324245,125.493243 89.1200125,121.558721 C91.7076004,117.624198 93.001375,112.436587 93.001375,105.995732 L93.001375,104.987603 Z" id="Q" fill="#FFFFFF"></path>
            <path d="M119.17172,123.351949 C119.079172,123.14589 118.998195,122.934111 118.928784,122.716604 C118.859374,122.499098 118.805389,122.279687 118.766827,122.058364 C118.365789,122.516273 117.877995,122.88641 117.303431,123.168787 C116.728866,123.451163 116.071405,123.59235 115.331027,123.59235 C114.104775,123.59235 113.131115,123.262279 112.410018,122.602128 C111.68892,121.941976 111.328377,121.043345 111.328377,119.906205 C111.328377,118.746171 111.798818,117.849447 112.739716,117.216007 C113.680613,116.582567 115.061089,116.265852 116.881186,116.265852 L118.60487,116.265852 L118.60487,115.052401 C118.60487,114.45712 118.431347,113.995402 118.084295,113.667235 C117.737242,113.339067 117.224384,113.174986 116.545704,113.174986 C116.16009,113.174986 115.816899,113.218868 115.51612,113.306634 C115.215342,113.394399 114.972409,113.499335 114.787314,113.621444 L114.567515,114.949372 L112.022478,114.949372 L112.034046,112.201935 C112.651028,111.789818 113.358619,111.442576 114.156839,111.160199 C114.955059,110.877822 115.824605,110.736636 116.765502,110.736636 C118.315669,110.736636 119.574679,111.112496 120.542569,111.864229 C121.51046,112.615962 121.994398,113.686307 121.994398,115.075296 L121.994398,120.192397 C121.994398,120.383192 121.996326,120.562537 122.000182,120.730436 C122.004038,120.898336 122.017534,121.058602 122.040671,121.211238 L123.070254,121.34861 L123.070254,123.351949 L119.17172,123.351949 Z M116.244927,121.119657 C116.753937,121.119657 117.216666,121.010905 117.633129,120.793399 C118.049592,120.575892 118.373502,120.303059 118.60487,119.974891 L118.60487,118.086029 L116.881186,118.086029 C116.163944,118.086029 115.620237,118.252018 115.250048,118.584002 C114.879859,118.915985 114.694767,119.314741 114.694767,119.780281 C114.694767,120.200031 114.831658,120.528193 115.105444,120.764779 C115.37923,121.001365 115.759053,121.119657 116.244927,121.119657 L116.244927,121.119657 Z M124.030428,121.34861 L125.649997,121.00518 L125.649997,113.323805 L123.856902,112.980376 L123.856902,110.965589 L128.796589,110.965589 L128.946977,112.739975 C129.36344,112.106535 129.876299,111.614291 130.485568,111.263228 C131.094838,110.912164 131.777364,110.736636 132.533167,110.736636 C133.79798,110.736636 134.785136,111.129668 135.494665,111.915744 C136.204194,112.70182 136.558953,113.934338 136.558953,115.613336 L136.558953,121.00518 L138.178523,121.34861 L138.178523,123.351949 L131.723382,123.351949 L131.723382,121.34861 L133.169426,121.00518 L133.169426,115.624783 C133.169426,114.792916 132.999759,114.203368 132.660419,113.856121 C132.321079,113.508874 131.80822,113.335253 131.121828,113.335253 C130.674516,113.335253 130.273484,113.424925 129.918719,113.604273 C129.563955,113.78362 129.267036,114.037374 129.027956,114.365541 L129.027956,121.00518 L130.393022,121.34861 L130.393022,123.351949 L124.030428,123.351949 L124.030428,121.34861 Z M147.282816,121.840859 C146.88949,122.413244 146.424833,122.848251 145.88883,123.145891 C145.352827,123.443532 144.741638,123.59235 144.055246,123.59235 C142.512791,123.59235 141.315479,123.035236 140.463272,121.920992 C139.611066,120.806749 139.184969,119.333832 139.184969,117.502198 L139.184969,117.261798 C139.184969,115.308055 139.612994,113.732111 140.469057,112.533917 C141.325119,111.335723 142.528215,110.736636 144.078382,110.736636 C144.703077,110.736636 145.266064,110.872098 145.767362,111.143027 C146.26866,111.413956 146.708253,111.797449 147.086154,112.293516 L147.086154,107.851827 L145.281491,107.508397 L145.281491,105.493611 L147.086154,105.493611 L150.464113,105.493611 L150.464113,121.00518 L152.083682,121.34861 L152.083682,123.351949 L147.53732,123.351949 L147.282816,121.840859 Z M142.562928,117.502198 C142.562928,118.585915 142.746092,119.438757 143.112425,120.060749 C143.478758,120.682741 144.078378,120.993732 144.911304,120.993732 C145.404889,120.993732 145.832914,120.89452 146.195391,120.696094 C146.557868,120.497667 146.854786,120.211478 147.086154,119.83752 L147.086154,114.583047 C146.854786,114.186193 146.559796,113.879017 146.201175,113.661511 C145.842554,113.444004 145.420314,113.335253 144.934441,113.335253 C144.109227,113.335253 143.507679,113.697758 143.129778,114.42278 C142.751876,115.147801 142.562928,116.094131 142.562928,117.261798 L142.562928,117.502198 Z" id="and" fill="#FFFFFF"></path>
        </g>
    </g>
</svg>