<?xml version="1.0" encoding="iso-8859-1"?>
<!-- Generator: Adobe Illustrator 18.1.1, SVG Export Plug-In . SVG Version: 6.00 Build 0)  -->
<svg version="1.1" id="Layer_1" xmlns="http://www.w3.org/2000/svg" xmlns:xlink="http://www.w3.org/1999/xlink" x="0px" y="0px"
	 viewBox="0 0 283.46 283.46" style="enable-background:new 0 0 283.46 283.46;" xml:space="preserve">
<path d="M217.731,116.333c26.756-59.787-43.234-139-76.234-107c-38.333-18-102.12,47.213-75.364,107c27,60.333-34,72.333,17.667,122
	H62.133c0,0,1.935,42.361,79.799,40.169c77.864,2.192,79.799-40.169,79.799-40.169h-21.667
	C251.731,188.667,190.731,176.667,217.731,116.333z"/>
<linearGradient id="SVGID_1_" gradientUnits="userSpaceOnUse" x1="141.73" y1="194.2219" x2="141.73" y2="283.46">
	<stop  offset="0" style="stop-color:#754C24"/>
	<stop  offset="0.4507" style="stop-color:#8D633A"/>
	<stop  offset="1" style="stop-color:#A67C52"/>
</linearGradient>
<path style="fill:url(#SVGID_1_);" d="M183.382,259.318c-13.566-0.492-41.694-7.995-23.081-65.096l-18.571,10.104l-18.571-10.104
	c18.613,57.101-9.515,64.605-23.081,65.096c-3.992,0.145-7.39,2.934-8.299,6.824L87.73,283.46h52h4h52l-4.048-17.318
	C190.772,262.252,187.374,259.463,183.382,259.318z"/>
<path style="fill:#A67C52;" d="M191.991,77.884c0,0,3.324-48.217-49.911-48.217c-0.119,0-0.232,0.005-0.35,0.005
	c-0.118,0-0.231-0.005-0.35-0.005c-53.235,0-49.911,48.217-49.911,48.217s-0.228,9.206-0.034,22.216
	c-0.265,16.906,0.018,40.242,2.725,58.182c1.418,9.399,4.118,16.976,6.519,22.051c2.498,5.281,13.832,33.017,41.051,33.017
	s38.553-27.736,41.051-33.017c2.401-5.075,5.101-12.652,6.519-22.051c2.706-17.94,2.99-41.275,2.725-58.182
	C192.219,87.09,191.991,77.884,191.991,77.884z"/>
<polygon style="fill:#FFFFFF;" points="152.987,174.302 152.987,186.684 142.374,186.684 130.876,171.648 "/>
<g>
	<path style="fill:#8E4129;" d="M141.932,171.677l-26.491-3.094c8.233,20.802,18.913,23.04,26.491,23.04
		c7.579,0,18.259-2.238,26.491-23.04L141.932,171.677z"/>
	<path style="fill:#FFFFFF;" d="M141.932,172.332l-23.35-2.232l9.094,9.474c2.323,2.42,5.576,3.794,8.983,3.794h4.13h2.286h4.13
		c3.406,0,6.66-1.374,8.983-3.794l9.094-9.474L141.932,172.332z"/>
	<path style="fill:#722E16;" d="M141.932,169.851c-9.677-6.709-27.535,2.564-33.033-5.404c1.54,8.596,30.394,5.032,33.033,10.483
		c2.639-5.451,31.494-1.887,33.033-10.483C169.466,172.415,151.609,163.142,141.932,169.851z"/>
</g>
<g>
	<path style="opacity:0.63;fill:#8C6239;" d="M159.021,121.973h20.38C179.401,121.973,170.061,135.56,159.021,121.973z"/>
	<path style="opacity:0.63;fill:#8C6239;" d="M124.842,121.973h-20.38C104.462,121.973,113.803,135.56,124.842,121.973z"/>
</g>
<g>
	<path d="M156.636,100.727l22.046-4.955l10.678,7.185c0,0-4.728-6.689-9.191-12.388c0,0-8.659-0.495-22.542,4.955L156.636,100.727z"
		/>
	<path d="M127.228,100.727l-24.047-4.955l-8.677,7.185c0,0,2.727-6.689,7.189-12.388c0,0,10.66-0.495,24.543,4.955L127.228,100.727z
		"/>
</g>
<g>
	<g>
		<g>
			<g>
				<path d="M156.099,118.003l22.783-2.465C178.883,115.539,171.096,100.478,156.099,118.003z"/>
				<ellipse cx="168.356" cy="115.881" rx="5.624" ry="5.34"/>
			</g>
			<path d="M159.272,112.253c0,0,11.824-8.489,20.188,1.917C179.46,114.169,170.808,107.05,159.272,112.253z"/>
			<path d="M172.538,115.539l9.517-3.491C182.055,112.047,181.478,119.851,172.538,115.539z"/>
		</g>
		<path d="M179.892,109.583l-5.84,3.902C174.052,113.485,181.623,114.922,179.892,109.583z"/>
	</g>
	<g>
		<g>
			<g>
				<path d="M127.764,118.003l-22.783-2.465C104.981,115.539,112.768,100.478,127.764,118.003z"/>
				<ellipse cx="115.507" cy="115.881" rx="5.624" ry="5.34"/>
			</g>
			<path d="M124.592,112.253c0,0-11.824-8.489-20.188,1.917C104.404,114.169,113.056,107.05,124.592,112.253z"/>
			<path d="M111.326,115.539l-9.517-3.491C101.809,112.047,102.385,119.851,111.326,115.539z"/>
		</g>
		<path d="M103.971,109.583l5.84,3.902C109.812,113.485,102.241,114.922,103.971,109.583z"/>
	</g>
</g>
<g>
	<linearGradient id="SVGID_2_" gradientUnits="userSpaceOnUse" x1="141.9318" y1="157.0323" x2="141.9318" y2="109.4532">
		<stop  offset="0" style="stop-color:#754C24"/>
		<stop  offset="0.4507" style="stop-color:#8D633A"/>
		<stop  offset="1" style="stop-color:#A67C52"/>
	</linearGradient>
	<path style="fill:url(#SVGID_2_);" d="M152.665,145.579l-5.814-9.538v-26.588l-4.919,0.206l-4.919-0.206v26.588l-5.814,9.538
		c-4.815-7.057-6.071,7.583-6.071,7.583l12.142,3.87h4.139h1.047h4.139l12.142-3.87C158.736,153.162,157.48,138.522,152.665,145.579
		z"/>
	<ellipse style="opacity:0.09;fill:#FFFFFF;" cx="141.932" cy="147.442" rx="8.107" ry="6.155"/>
	<path style="opacity:0.17;fill:#8C6239;" d="M125.128,153.162l12.142,3.87h4.139h1.047h4.139l12.142-3.87
		c0,0-0.025-0.288-0.08-0.754h-33.448C125.153,152.874,125.128,153.162,125.128,153.162z"/>
	<g>
		<path d="M136.215,156.099c0.097-0.357-2.018-1.201-4.723-1.884s-4.976-0.947-5.073-0.59c-0.097,0.357,2.018,1.201,4.723,1.884
			S136.118,156.457,136.215,156.099z"/>
		<path d="M147.649,156.099c-0.097-0.357,2.018-1.201,4.723-1.884s4.976-0.947,5.073-0.59c0.097,0.357-2.018,1.201-4.723,1.884
			S147.745,156.457,147.649,156.099z"/>
	</g>
</g>
<path d="M168.087,32.125c-81.873,2.863-25.769,76.984-94.268,91.935l15.331-84.3l32.945-18.451l41.426-1.591L168.087,32.125z"/>
<g>
	<path style="fill:#8C6239;" d="M191.666,138.682l11.131-8.348C202.797,130.333,195.995,159.707,191.666,138.682z"/>
	<path style="fill:#8C6239;" d="M91.794,138.682l-11.131-8.348C80.663,130.333,87.465,159.707,91.794,138.682z"/>
</g>
<path style="opacity:0.63;fill:#8C6239;" d="M141.932,194.635c5.421,0,10.427-1.183,14.472-3.181H127.46
	C131.505,193.451,136.511,194.635,141.932,194.635z"/>
<path style="fill:#79D3C4;" d="M167.903,255.179c-5.768,7.957-15.246,13.155-25.971,13.155c-10.725,0-20.203-5.198-25.971-13.155
	c-6.011,3.449-12.719,4.163-17.196,4.166v24.115h41.167h4h41.167v-24.115C180.621,259.341,173.914,258.628,167.903,255.179z"/>
<g style="opacity:0.44;">
	<linearGradient id="SVGID_3_" gradientUnits="userSpaceOnUse" x1="176.8112" y1="142.717" x2="176.8112" y2="206.8789">
		<stop  offset="0" style="stop-color:#754C24"/>
		<stop  offset="0.4507" style="stop-color:#8D633A"/>
		<stop  offset="1" style="stop-color:#A67C52"/>
	</linearGradient>
	<path style="fill:url(#SVGID_3_);" d="M189.889,153.948c0.129-1.036,0.254-2.078,0.369-3.14c0.008-0.076,0.016-0.154,0.024-0.231
		c0.009-0.08,0.016-0.161,0.025-0.241c0.125-1.171,0.243-2.351,0.352-3.546c0.001-0.008,0.001-0.016,0.002-0.024
		c0.003-0.038,0.007-0.076,0.01-0.114c0.118-1.3,0.228-2.613,0.329-3.935l-28.378,64.162c8.299-5.672,13.704-13.909,16.905-19.875
		c1.226-2.411,2.33-4.716,3.254-6.67c2.401-5.075,5.101-12.652,6.519-22.051c0.179-1.186,0.346-2.398,0.504-3.629
		C189.834,154.421,189.86,154.181,189.889,153.948z"/>
	<linearGradient id="SVGID_4_" gradientUnits="userSpaceOnUse" x1="106.892" y1="141.6196" x2="106.892" y2="207.2504">
		<stop  offset="0" style="stop-color:#754C24"/>
		<stop  offset="0.4507" style="stop-color:#8D633A"/>
		<stop  offset="1" style="stop-color:#A67C52"/>
	</linearGradient>
	<path style="fill:url(#SVGID_4_);" d="M121.406,207.25L92.378,141.62c0.1,1.375,0.21,2.739,0.328,4.093
		c0.013,0.149,0.026,0.299,0.039,0.448c0.105,1.178,0.218,2.343,0.338,3.498c0.008,0.078,0.016,0.156,0.024,0.234
		c0.019,0.191,0.039,0.382,0.059,0.572c0.112,1.05,0.234,2.084,0.36,3.11c0.038,0.307,0.072,0.62,0.111,0.925
		c0.164,1.283,0.336,2.548,0.523,3.783c1.418,9.399,4.118,16.976,6.519,22.051c0.924,1.954,2.028,4.26,3.255,6.671
		C107.207,193.104,112.789,201.572,121.406,207.25z"/>
</g>
<g style="opacity:0.29;">
	<path style="opacity:0.63;fill:#8C6239;" d="M91.46,147.295l33.923-1.026C125.383,146.269,102.661,180.628,91.46,147.295z"/>
	<path style="opacity:0.63;fill:#8C6239;" d="M192.403,147.295l-33.923-1.026C158.48,146.269,181.202,180.628,192.403,147.295z"/>
</g>
<g>
	<circle style="fill:#FFFFFF;" cx="195.897" cy="152.333" r="4.667"/>
	<circle style="fill:#FFFFFF;" cx="87.563" cy="152.333" r="4.667"/>
</g>
</svg>
