<svg id="Layer_2" data-name="Layer 2" xmlns="http://www.w3.org/2000/svg" viewBox="0 0 390 340"><defs><style>.cls-1{fill:#14bcc4;}.cls-2{fill:#fddcbe;}.cls-3{fill:#f1f2f2;}.cls-4{fill:#fbb040;}.cls-5{fill:#333;}.cls-6{fill:#fddfb3;}.cls-7{fill:none;stroke:#d1d3d4;stroke-linecap:round;stroke-miterlimit:10;stroke-width:1.7px;}</style></defs><title>Not-So-Hard-Riddles</title><rect class="cls-1" x="-14.17" y="-5.5" width="410" height="355.67"/><path class="cls-2" d="M239.29,271.33s3.06-107.15-61.8-63.31c0,0-21.35,16.81-24,63.31L165,291.5l72,7Z"/><path class="cls-3" d="M306.67,96.34a30.3,30.3,0,0,0-15.42-26.4,30.32,30.32,0,0,0-46.31-32.3,30.3,30.3,0,0,0-44.75-2.69,30.35,30.35,0,0,0-22.85,1.85,30.32,30.32,0,0,0-51.16,10.07,30.26,30.26,0,0,0-34,26.24,30.31,30.31,0,0,0,18.59,54.26c0.43,0,.86,0,1.28,0a30.33,30.33,0,0,0,46,16,30.3,30.3,0,0,0,39.14-4.23A30.32,30.32,0,0,0,229,142.33a30.31,30.31,0,0,0,47.63-15.68A30.32,30.32,0,0,0,306.67,96.34Z"/><circle class="cls-3" cx="143.42" cy="183.47" r="4.24"/><circle class="cls-3" cx="131.26" cy="164.74" r="8.99"/><path class="cls-4" d="M124.76,107c-2-12.24-18.31-17.59-10.63-34.61,5.18-11.47,28.49-16.26,34.7,3.08,4.78,14.88-6.92,17.6-8,31Z"/><path class="cls-5" d="M141.15,113.86s2.41-2.36-.1-3.07c0,0,2.67-2.83-.2-4.32l-3.77.14c0.23-4.32.67-8.63,0.89-12.94,0.14-2.67.22-5.34,0.33-8a48.59,48.59,0,0,0,.12-8c-0.17-1.38-.28-3.21-1.63-4-0.92-.51-1.67.56-2,1.25a12.28,12.28,0,0,0-1,3.08c-0.46-1.63-1.21-2.82-2.44-2.47-1.51.43-2,3.63-2.28,4.83,0,0.1,0,.21-0.07.31a18.17,18.17,0,0,0-.58-1.87c-0.52-1.38-1-3.26-2.54-3.79-2.35-.8-2.78,4.78-2.81,5.92-0.15,5.35,1.19,10.88,2.46,16,0.64,2.6,1.25,5.21,1.88,7.81,0.13,0.54.23,1.32,0.4,2.09l-3.08.11s-2.93,1.72,0,4.37c0,0-2.65,1.68,0,3.22,0,0-2.64,1.8.29,3.21h3.34l2.62,2.8h4.18l2.52-2.92,2.79-.27S144.28,115.93,141.15,113.86Zm-12-7c-0.23-.77-0.35-1.62-0.53-2.37-0.45-1.9-1-3.78-1.44-5.69a111.61,111.61,0,0,1-2.47-12.77c-0.32-3-.69-6,0.31-8.9,0.54-1.57,1.51.4,1.77,1a22.65,22.65,0,0,1,1,2.92c0.32,1.16.51,2.36,0.72,3.55a5.71,5.71,0,0,0,.37,1.87v0h0L129,86.68c0.3,0.67,1.3.19,1.15-.48s-0.3-1.42-.44-2.13a16.67,16.67,0,0,1,1.47-6.3c0.84-1.88,1.58,2.17,1.68,2.72s0.15,0.93.21,1.4a5.64,5.64,0,0,0,.26,2.84,0.63,0.63,0,0,0,1.17-.31c0-.38,0-1.06-0.05-1.87a2.86,2.86,0,0,0,.06-0.5,15.42,15.42,0,0,1,.4-3.14,27.14,27.14,0,0,1,.71-2.73c0.41-1.25,1.1-.84,1.3.33a22.08,22.08,0,0,1,.38,3.18c0,2-.16,4-0.26,6-0.22,4.1-.39,8.2-0.53,12.31-0.09,2.9-.43,5.79-0.65,8.69Z"/><path class="cls-6" d="M119.3,90.21c-0.43-1.37-1.19-2.6-1.71-3.94a15.63,15.63,0,0,1-.78-3.08c-0.19-1.13-.42-2.31-0.54-3.44a0.4,0.4,0,0,0-.74-0.21,4.7,4.7,0,0,0-.66,3.57,16.84,16.84,0,0,0,.76,3.21,13.88,13.88,0,0,0,2.59,4.5,0.64,0.64,0,0,0,1.08-.6h0Z"/><path class="cls-6" d="M116.33,75.35h0l0.22,0a1,1,0,0,0-1,.22l0.39-.22h0a0.86,0.86,0,0,0-.6.59,0.84,0.84,0,0,0,.21.82l0,0-0.22-.4a0.93,0.93,0,0,0,.7.68,1,1,0,0,0,1-.27,0.86,0.86,0,0,0-.59-1.48h0Z"/><path class="cls-6" d="M146.52,87.06c0.73,0,1-.9,1.08-1.45,0.19-.84.29-1.71,0.42-2.57a9,9,0,0,0,.17-2.27c-0.06-.54-0.42-1.51-1.1-1.49s-0.7.91-.75,1.32c-0.11.82-.11,1.65-0.23,2.47s-0.2,1.58-.25,2.37c0,0.56-.13,1.56.67,1.61h0Z"/><path class="cls-4" d="M188.56,103.57c-1-12.37-16.77-19.06-7.69-35.38,6.13-11,29.75-13.82,34.32,6,3.52,15.22-8.38,17-10.55,30.18Z"/><path class="cls-5" d="M204.32,111.73s2.6-2.15.16-3.06c0,0,2.9-2.6.17-4.32l-3.77-.18c0.59-4.28,1.39-8.54,2-12.82,0.36-2.65.67-5.31,1-8a48.59,48.59,0,0,0,.79-7.93c-0.05-1.39,0-3.23-1.29-4.09-0.87-.58-1.71.42-2.11,1.07a12.29,12.29,0,0,0-1.21,3c-0.32-1.66-1-2.91-2.23-2.67-1.54.3-2.33,3.45-2.68,4.63l-0.09.31a18.16,18.16,0,0,0-.42-1.91c-0.4-1.42-.74-3.34-2.22-4-2.27-1-3.17,4.53-3.3,5.67-0.6,5.32.28,10.95,1.1,16.18,0.42,2.64.81,5.3,1.22,7.94,0.08,0.55.12,1.33,0.22,2.11l-3.08-.15s-3.06,1.46-.38,4.36c0,0-2.79,1.45-.28,3.21,0,0-2.78,1.58,0,3.22l3.33,0.29,2.38,3,4.17,0.36,2.75-2.7,2.8,0S207.27,114.06,204.32,111.73ZM193,103.78c-0.17-.79-0.22-1.65-0.33-2.4-0.29-1.93-.69-3.85-1-5.79a111.61,111.61,0,0,1-1.4-12.93c-0.06-3-.19-6,1.06-8.84,0.67-1.52,1.47.53,1.68,1.14a22.65,22.65,0,0,1,.79,3c0.22,1.19.32,2.39,0.42,3.6a5.7,5.7,0,0,0,.21,1.9v0h0l0,0.16c0.24,0.7,1.28.29,1.18-.38s-0.18-1.44-.26-2.16a16.67,16.67,0,0,1,2-6.15c1-1.8,1.39,2.29,1.44,2.85s0.08,0.94.1,1.42a5.64,5.64,0,0,0,0,2.86,0.63,0.63,0,0,0,1.19-.21c0-.38.08-1.05,0.11-1.87a2.86,2.86,0,0,0,.1-0.49,15.42,15.42,0,0,1,.67-3.09,27.14,27.14,0,0,1,.93-2.66c0.52-1.21,1.17-.74,1.26.43a22.08,22.08,0,0,1,.12,3.2c-0.12,2-.49,4-0.76,5.91q-0.85,6.1-1.56,12.22c-0.34,2.88-.91,5.73-1.37,8.6Z"/><path class="cls-6" d="M181.22,77.17c0.63-1.29.91-2.71,1.46-4a15.63,15.63,0,0,1,1.54-2.78c0.64-1,1.28-2,2-2.88a0.4,0.4,0,0,0-.4-0.66A4.7,4.7,0,0,0,182.87,69a16.83,16.83,0,0,0-1.65,2.86A13.88,13.88,0,0,0,180,76.87a0.64,0.64,0,0,0,1.2.3h0Z"/><path class="cls-6" d="M189.24,64.31l0,0,0.14,0.18a1,1,0,0,0-.9-0.54L188.89,64h0a0.86,0.86,0,0,0-.84,0,0.84,0.84,0,0,0-.41.74s0,0,0,0l0.11-.44a0.93,0.93,0,0,0,0,1,1,1,0,0,0,.89.46,0.86,0.86,0,0,0,.58-1.48h0Z"/><path class="cls-6" d="M209.24,90.54c0.66,0.31,1.23-.48,1.55-0.93,0.49-.71.91-1.48,1.35-2.22a9,9,0,0,0,1-2c0.15-.52.18-1.56-0.46-1.79s-1,.58-1.19.94c-0.41.72-.72,1.48-1.14,2.2s-0.78,1.39-1.13,2.1c-0.25.5-.7,1.4,0,1.74h0Z"/><path class="cls-4" d="M246.74,151.83c7.48-9.9.12-25.39,17.75-31.55,11.89-4.15,31.42,9.43,21.69,27.27-7.48,13.72-17.53,7.11-27.93,15.56Z"/><path class="cls-5" d="M253.1,168.4s3.37,0.12,2.16-2.18c0,0,3.89,0,3-3.12l-2.7-2.64c3.29-2.81,6.72-5.46,10-8.27,2-1.74,4-3.52,6-5.28a48.59,48.59,0,0,0,5.85-5.4c0.89-1.07,2.14-2.42,1.75-3.91-0.27-1-1.56-.82-2.29-0.6a12.28,12.28,0,0,0-2.89,1.43c0.87-1.46,1.21-2.82.11-3.47-1.35-.8-4,1-5.08,1.68l-0.27.17a18.16,18.16,0,0,0,1-1.71c0.64-1.33,1.67-3,1-4.45-1-2.26-5.37,1.28-6.23,2-4,3.58-7.06,8.36-9.92,12.83-1.44,2.25-2.91,4.5-4.36,6.74-0.3.47-.79,1.08-1.24,1.73l-2.2-2.15s-3.26-.94-3.18,3c0,0-3-.76-2.34,2.21,0,0-3.13-.67-2.13,2.42l2.3,2.43-0.22,3.83,2.87,3,3.85-.19L250,170.4S253.76,172.1,253.1,168.4Zm-3.2-13.48c0.4-.7.93-1.37,1.35-2,1.07-1.64,2-3.33,3.13-5a111.62,111.62,0,0,1,7.55-10.59c2-2.3,3.86-4.63,6.67-5.91,1.51-.69.75,1.37,0.5,2a22.65,22.65,0,0,1-1.4,2.77c-0.62,1-1.35,2-2.07,3a5.7,5.7,0,0,0-1.1,1.56h0l-0.07.15c-0.28.68,0.76,1.07,1.14,0.5s0.82-1.2,1.24-1.79a16.67,16.67,0,0,1,5.57-3.28c1.94-.68-0.49,2.64-0.82,3.09s-0.57.75-.87,1.12a5.64,5.64,0,0,0-1.88,2.15,0.63,0.63,0,0,0,1,.63c0.28-.26.76-0.73,1.32-1.33a2.86,2.86,0,0,0,.4-0.3,15.43,15.43,0,0,1,2.55-1.87,27.14,27.14,0,0,1,2.47-1.37c1.19-.57,1.37.22,0.66,1.17a22.08,22.08,0,0,1-2,2.47c-1.39,1.39-3,2.64-4.49,3.92q-4.68,4-9.28,8.1c-2.17,1.93-4.49,3.68-6.74,5.52Z"/><path class="cls-6" d="M255.18,136.27c0.7-1.26,1.06-2.66,1.68-4a15.63,15.63,0,0,1,1.7-2.69c0.69-.92,1.39-1.89,2.12-2.76a0.4,0.4,0,0,0-.36-0.68,4.7,4.7,0,0,0-3,2,16.83,16.83,0,0,0-1.8,2.77,13.88,13.88,0,0,0-1.47,5,0.64,0.64,0,0,0,1.18.36h0Z"/><path class="cls-6" d="M263.9,123.88l0,0L264,124a1,1,0,0,0-.87-0.59l0.43,0.13h0a0.86,0.86,0,0,0-.84,0,0.84,0.84,0,0,0-.45.72s0,0,0,0l0.13-.43a0.93,0.93,0,0,0,0,1,1,1,0,0,0,.86.51,0.86,0.86,0,0,0,.66-1.45h0Z"/><path class="cls-6" d="M274.51,154.4c0.44,0.58,1.31.15,1.8-.12,0.76-.4,1.49-0.89,2.22-1.35a9,9,0,0,0,1.83-1.35c0.37-.39.88-1.3,0.42-1.81s-1.15.06-1.49,0.28c-0.69.45-1.33,1-2,1.43s-1.33.87-2,1.35c-0.45.33-1.27,0.92-.79,1.56h0Z"/><path class="cls-5" d="M225.58,271.33c3.66-12.48,1.86-25.67,1.86-25.67s-6.92,5.64-9.14-.83c-2.88-8.39,7.32-7.62,7.32-7.62-0.76-11.67-9.51-22-9.51-22,26.23-26.16,2.13-47.42,2.13-47.42-6.43,17.92-37.66-1.94-58.31,19-13.26,13.43-4.21,28.27-3.81,28.85-25.06,1.48-6.23,48.33-3.1,55.72l12,20.17,50.5,3.5Z"/><path class="cls-2" d="M265.45,271.33L263,298l12.5,1.5,4.78-28.17c8.34-69.17-6.52-114.59-6.52-114.59-1.09-2.78-2.39-3.85-4.42-2.86-1,.48-1.09,1.55-0.94,2.59a2.45,2.45,0,0,0-2.82-.74,2.1,2.1,0,0,0-1,2.29,2.32,2.32,0,0,0-2.6-.54c-1,.48-1.09,1.55-0.93,2.59a2.45,2.45,0,0,0-2.82-.74c-2.17,1.07.24,4.37,0.53,6.43C258.79,165.77,271.78,212,265.45,271.33Z"/><path class="cls-7" d="M246.67,93.32s7.27,7.86,11.38,24.2"/><path class="cls-7" d="M257.93,94.41s4.73,6,8.84,22.39"/><path class="cls-7" d="M242.55,104.51s6.23,6.68,9.7,20.43"/></svg>