<svg width="1068" height="152" viewBox="0 0 1068 152" xmlns="http://www.w3.org/2000/svg" xmlns:sketch="http://www.bohemiancoding.com/sketch/ns"><title>day-timer</title><g sketch:type="MSShapeGroup" fill="#6E6E6E"><g id="Shape"><path d="M195.198 37.89c-8.721 0-13.169.471-17.971 1.421-.356 11.26-.712 25.366-.712 49.249 0 27.677.356 40.359.712 51.56 4.803 1.184 8.778 1.363 14.71 1.363 31.554 0 48.459-18.908 48.459-54.466-.001-30.934-16.431-49.127-45.198-49.127zm-51.486-7.764l.536-.536c7.947.357 15.717.892 23.426.892 8.364 0 16.43-.892 26.039-.892 41.163 0 65.601 15.47 65.601 55.71 0 28.802-18.625 64.417-64.294 64.417-12.399 0-21.058-.888-30.369-.888-3.915 0-8.185.179-13.821.888l-.475-.531v-3.32l.595-.77c5.337-2.608 6.406-3.495 6.763-4.506.532-1.54 1.127-3.435 1.127-59.617 0-39.827-.476-41.37-2.253-43.085-1.426-1.363-6.231-2.193-12.338-2.193l-.536-.536v-5.034zM310.801 55.251l-17.973 45.872h36.002l-18.029-45.872zm19.453 88.186l.475-.533c11.803 0 12.101-1.069 12.101-2.784 0-2.549-1.663-6.699-10.797-30.7h-42.408c-9.848 23.824-10.142 26.433-10.142 28.626 0 4.147 4.152 4.327 12.99 4.859l.475.533v4.979l-.475.534c-5.813-.414-12.219-.949-18.506-.949-6.227 0-12.691.535-18.446.949l-.475-.534v-4.979l.475-.533c9.786-.356 10.261-1.184 14.77-11.556 14.292-32.595 30.841-73.31 42.11-102.528h6.763c35.411 89.31 40.216 101.698 44.545 109.58 1.778 3.319 3.262 4.327 10.499 4.503l.471.533v4.979l-.471.534c-6.943-.414-14.357-.949-21.71-.949-7.414 0-14.829.535-21.768.949l-.475-.534v-4.98h-.001zM387.671 143.437l.472-.533c6.169 0 10.916-.83 12.397-2.252 1.778-1.719 2.254-3.262 2.254-43.085-31.021-57.013-36.538-59.62-44.367-59.62l-1.839.176-.413-.533v-5.215l.413-.474c3.38 0 17.261-2.43 20.463-3.081 8.718 1.423 20.581 24.18 37.842 57.19 8.778-14.459 27.462-48.062 30.546-57.19 2.728.179 5.28.533 8.008.533 2.786 0 5.337-.352 7.591-.533l.475.533v1.543c-8.897 9.245-41.994 60.214-41.994 68.567 0 37.929.475 39.471 2.255 41.19 1.422 1.421 6.284 2.252 12.396 2.252l.475.533v4.979l-.475.534c-8.008-.414-15.779-.949-23.013-.949-7.237 0-14.946.535-23.016.949l-.472-.534v-4.979zM535.954 143.437l.472-.533c6.111 0 10.915-.83 12.338-2.252 1.84-1.719 2.315-3.262 2.315-43.085 0-12.385-.652-31.293-.95-58.969-6.583-.177-11.447-.177-16.606-.177-8.365 0-11.449.356-12.576 1.895-1.127 1.363-1.245 2.726-2.372 15.823l-.712.712h-4.924l-.472-.533c0-12.503 0-20.623-1.011-26.967l.475-.533c15.185.533 33.63.83 47.986.83 14.293 0 32.738-.299 47.864-.83l.533.533c-.946 6.344-.946 14.463-.946 26.967l-.535.533h-4.982l-.594-.712c-1.127-13.098-1.364-14.46-2.492-15.823-1.068-1.54-4.153-1.895-12.514-1.895-5.103 0-9.965 0-16.549.177-.299 27.676-.95 46.584-.95 58.969 0 39.823.475 41.366 2.254 43.085 1.424 1.421 6.228 2.252 12.338 2.252l.474.533v4.979l-.474.534c-8.009-.414-15.718-.949-23.428-.949-7.77 0-15.484.535-23.49.949l-.472-.534v-4.979h-.002zM622.492 29.057l.475-.474c8.066.357 15.776.83 23.488.83 7.71 0 15.48-.474 23.488-.83l.475.474v4.978l-.475.535c-6.111 0-10.974.888-12.457 2.191-1.658 1.719-2.195 3.262-2.195 43.147v17.364c0 39.885.535 41.367 2.195 43.083 1.483 1.423 6.346 2.253 12.457 2.253l.475.474v4.977l-.475.531c-8.008-.294-15.778-.829-23.488-.829-7.712 0-15.422.535-23.488.829l-.475-.531v-4.977l.475-.474c6.109 0 10.913-.83 12.396-2.253 1.777-1.716 2.253-3.198 2.253-43.083v-17.364c0-39.885-.476-41.428-2.253-43.147-1.483-1.302-6.288-2.191-12.396-2.191l-.475-.535v-4.978zM683.109 29.59l.535-.471c8.009.294 11.863.828 18.86.828 5.043 0 10.679-.533 13.583-.828 14.889 35.023 35.469 77.99 42.293 92.392 14.591-30.758 28.765-61.34 42.765-92.392 4.389.294 10.142.828 14.829.828 4.625 0 11.208-.533 15.718-.828l.475.471v4.98l-.475.533c-6.111 0-10.913.888-12.338 2.251-1.839 1.72-2.314 3.262-2.314 43.086v17.365c0 39.824.475 41.366 2.314 43.143 1.424 1.305 6.227 2.193 12.338 2.193l.475.533v4.98l-.475.533c-8.066-.414-15.718-.888-23.488-.888-7.712 0-15.422.474-23.488.888l-.417-.533v-4.98l.417-.533c6.169 0 10.974-.888 12.395-2.193 1.778-1.777 2.315-3.319 2.315-43.143v-42.255h-.356c-15.422 31.823-40.688 84.153-44.247 95.83h-3.383c-4.33-13.751-36.121-78.349-44.247-95.83h-.237v42.255c0 39.824.417 41.366 2.195 43.143 1.426 1.305 6.288 2.193 11.924 2.193l.475.533v4.98l-.475.533c-5.992-.414-12.101-.888-18.092-.888-6.346 0-12.929.474-19.336.888l-.535-.533v-4.98l.535-.533c6.05 0 10.856-.888 12.338-2.193 1.721-1.777 2.254-3.319 2.254-43.143v-17.365c0-39.824-.533-41.366-2.254-43.086-1.481-1.363-6.287-2.251-12.338-2.251l-.535-.533v-4.98h-.001zM842.783 29.533l.472-.533c8.069.352 15.779.888 23.49.888 29.776 0 50.179-.535 60.617-.888l1.008.888c-.829 8.948-1.483 18.016-1.959 26.433l-.471.533h-4.686l-.475-.533c0-3.438 0-14.284-1.424-15.647-1.601-1.54-15.124-2.726-27.401-2.726-6.525 0-12.338.533-15.541.651-.831 15.113-.831 29.93-.831 44.685 6.111.119 12.694.298 18.802.298 8.897 0 14.294-.473 15.303-2.312 1.483-2.787 2.134-9.127 2.134-11.914l.418-.533h4.21l.475.533c0 6.7-.298 13.514-.298 20.448 0 4.622.298 11.497.298 17.542l-.475.474h-4.21l-.418-.474c0-2.549-1.185-9.303-2.311-12.385-.831-2.252-6.049-3.083-19.751-3.083-5.457 0-9.668.177-14.177.357 0 15.941 0 32.059.356 47.944 8.483 0 41.577 0 45.136-2.252 1.959-1.244 4.212-15.172 4.212-17.721l.535-.533h5.1l.475.533c-.654 7.231-1.483 18.552-1.781 27.974l-1.245.949c-21.412-.713-45.669-.949-64.651-.949-3.915 0-8.244.237-13.82.949l-.476-.593v-3.262l.654-.828c5.276-2.61 6.346-3.437 6.702-4.444.475-1.601 1.127-3.438 1.127-59.621 0-39.827-.475-41.366-2.253-43.145-1.426-1.302-6.231-2.191-12.399-2.191l-.472-.535v-4.979h.001zM983.948 84.471c1.72.177 3.203.356 4.743.356 17.084 0 25.982-12.033 25.982-25.78 0-14.579-10.323-21.81-25.564-21.81-4.686 0-10.142.888-13.821 2.135-.177 6.459-.652 17.126-.652 58.315 0 39.885.475 41.424 2.253 43.144 1.422 1.363 6.227 2.253 11.743 2.253l.476.472v4.98l-.476.593c-7.475-.416-15.185-.949-22.836-.949-7.71 0-15.48.533-23.546.949l-.417-.593v-4.98l.417-.472c6.109 0 10.971-.892 12.396-2.253 1.777-1.72 2.253-3.259 2.253-43.144v-17.305c0-39.827-.476-41.366-2.253-43.145-1.426-1.302-6.288-2.191-12.396-2.191l-.417-.535v-4.978l.417-.533c8.066.352 15.836.888 23.546.888 9.549 0 19.276-.888 28.292-.888 23.132 0 38.91 4.858 38.91 25.778 0 20.091-14.353 30.226-27.697 33.663l31.258 47.767c3.796 5.865 5.693 6.876 10.555 6.876l.475.472v4.98l-.475.593c-3.679-.416-8.066-.949-12.218-.949-4.33 0-8.541.533-12.871.949-12.514-20.508-26.985-44.153-39.679-61.577l1.601-3.081zM459.855 106.813c1.898-4.681 3.381-9.483 4.449-14.46 7.947.533 16.311.888 23.665.888 6.938 0 14.119-.593 20.463-.888l1.068 1.719c-1.899 4.622-3.383 9.422-4.448 14.4-7.95-.533-16.311-.77-23.667-.77-6.939 0-14.177.414-20.463.77l-1.067-1.658zM1051.208 44.585v-4.8h3.203c1.662 0 3.383.413 3.383 2.251 0 2.431-1.781 2.549-3.739 2.549h-2.847zm0 2.014h2.729l4.034 6.638h2.671l-4.391-6.758c2.254-.294 4.035-1.48 4.035-4.326 0-3.021-1.839-4.265-5.456-4.265h-5.93v15.349h2.31v-6.638h-.001zm-8.066-1.124c0-6.341 4.745-11.084 10.913-11.084 6.111 0 10.854 4.743 10.854 11.084 0 6.52-4.743 11.259-10.854 11.259-6.168 0-10.913-4.741-10.913-11.259zm10.913 13.51c7.296 0 13.644-5.747 13.644-13.51 0-7.585-6.349-13.335-13.644-13.335-7.353 0-13.642 5.75-13.642 13.335 0 7.764 6.289 13.51 13.642 13.51z"/></g><g><path d="M115.481 126.43c0 8.89-7.177 16-16.016 16h-75.445c-8.897 0-16.016-7.11-16.016-16v-75.385c0-8.89 7.119-16 16.016-16h75.445c8.839 0 16.016 7.109 16.016 16v75.385zm-54.033-119.301c4.743 0 8.541 3.736 8.541 8.537 0 4.621-3.854 8.415-8.541 8.415-4.686 0-8.483-3.794-8.483-8.415 0-4.802 3.796-8.537 8.483-8.537zm39.381 20.566h-30.545c3.736-2.726 6.169-7.113 6.169-12.029 0-8.358-6.702-15.053-15.005-15.053-8.245 0-15.008 6.695-15.008 15.053 0 4.916 2.49 9.303 6.23 12.029h-30.013c-12.161 0-22.004 9.838-22.004 21.986v78.112c0 12.091 9.844 21.987 22.004 21.987h78.173c12.101 0 21.947-9.897 21.947-21.987v-78.112c0-12.148-9.847-21.986-21.947-21.986zM61.267 95.906l-26.63-19.674 2.786-3.021 22.599 10.015 31.909-20.743 3.146 3.083-33.809 30.341zm.476-54.995c-26.097 0-47.214 21.098-47.214 47.235 0 26.016 21.116 47.113 47.214 47.113 26.097 0 47.212-21.097 47.212-47.113 0-26.137-21.115-47.235-47.212-47.235z"/></g></g></svg>