<?xml version="1.0" encoding="utf-8"?>
<!-- Generator: Adobe Illustrator 19.2.1, SVG Export Plug-In . SVG Version: 6.00 Build 0)  -->
<svg version="1.1" id="Layer_1" xmlns="http://www.w3.org/2000/svg" xmlns:xlink="http://www.w3.org/1999/xlink" x="0px" y="0px"
	 viewBox="0 0 140 140" style="enable-background:new 0 0 140 140;" xml:space="preserve">
<style type="text/css">
	.st0{fill:#424143;}
	.st1{fill:#282828;}
</style>
<g>
	<path class="st0" d="M139.8,113.8c0-0.1,0-0.3-0.1-0.4l-16.9-22.2c-0.1-0.1-0.2-0.2-0.3-0.2c0,0-2.7-0.3-7.9-1.1l8-15.6
		c0.1-0.1,0.1-0.2,0-0.3l-2-8.2l9.3-22.6c0.1-0.2,0-0.5-0.2-0.6l-12.9-6.3c-0.2-0.1-0.5,0-0.7,0.2l-12.4,21.2L95.9,62
		c-0.1,0.1-0.2,0.1-0.2,0.2l-3,6.5V32.3c0-0.1,0-0.2-0.1-0.3L81,19.2c-0.1-0.1-0.2-0.2-0.4-0.2H60.7c-0.1,0-0.3,0.1-0.4,0.2L49,32.1
		c-0.1,0.1-0.1,0.2-0.1,0.3v27.4l-5.4-4L36,32.6c-0.1-0.3-0.3-0.4-0.6-0.3l-13.9,3.5c-0.3,0.1-0.4,0.3-0.4,0.6l4.2,24.2L22,68.8
		c0,0.1,0,0.2,0,0.3l5.5,20.7c-5.9,0.9-10,1.2-10,1.2c-0.1,0-0.3,0.1-0.4,0.2L0.3,113.4c-0.1,0.2-0.1,0.4,0,0.6c0,0,0,0,0,0v4.6
		c0,0.2,0.1,0.4,0.2,0.5c0.1,0.1,0.3,0.2,0.5,0.2c0.2,0,17.1-1.6,33.6-5.4c19-4.4,31,2.5,34.7,6.9c0.1,0.2,0.3,0.2,0.5,0.2
		c0.1,0,0.1,0,0.2,0c0.1,0,0.1,0,0.2,0c0.2,0,0.4-0.1,0.5-0.2c3.7-4.3,15.7-11.3,34.7-6.9c16.5,3.9,33.5,5.4,33.7,5.4
		c0.2,0,0.4,0,0.5-0.2c0.1-0.1,0.2-0.3,0.2-0.5V114C139.8,113.9,139.8,113.9,139.8,113.8z M1.6,114.2c3.7-0.4,18.6-2,32.9-5.3
		c20-4.7,31.5,1.5,34.9,5.4c0,0,0,0,0,0v1.8c-4.4-4.3-16.3-10.2-35.1-5.8c-14.3,3.3-29.1,4.9-32.7,5.3V114.2z M70.5,114.3
		C70.5,114.3,70.5,114.2,70.5,114.3c3.4-4,15-10.1,34.9-5.4c14.5,3.4,29.5,5,33,5.3v1.4c-3.7-0.4-18.5-2-32.8-5.3
		c-18.8-4.4-30.8,1.5-35.2,5.9V114.3z M17.8,92c0.9-0.1,4.7-0.5,10-1.2l3,11.3c0.1,0.2,0.3,0.4,0.5,0.4c0,0,0.1,0,0.1,0
		c0.3-0.1,0.4-0.3,0.4-0.6L23,69l3.2-8.2c0-0.1,0-0.2,0-0.3l-4.1-23.9l13-3.2l7.3,22.9c0,0.1,0.1,0.2,0.2,0.3l6.8,5l9.3,40.5
		c0.1,0.3,0.3,0.4,0.6,0.4c0.3-0.1,0.4-0.3,0.4-0.6l-9.4-40.7c0-0.1-0.1-0.2-0.2-0.3l-0.4-0.3v-28L60.9,20h19.4l11.3,12.5v38.4
		l-14.4,30.8c-0.1,0.3,0,0.6,0.2,0.7c0.3,0.1,0.6,0,0.7-0.2l14.4-30.8c0,0,0.1-0.1,0.1-0.2l3.9-8.4l7.8-4.2c0.1,0,0.1-0.1,0.2-0.2
		l12.2-21l12,5.9l-9.1,22.3c0,0.1,0,0.2,0,0.3l2,8.2l-14.2,27.7c-0.1,0.2,0,0.6,0.2,0.7c0.1,0,0.2,0.1,0.2,0.1
		c0.2,0,0.4-0.1,0.5-0.3l5.8-11.4c4.6,0.7,7.3,1,8.1,1.1l16,21.1c-4.1-0.4-18.6-2-32.6-5.3c-20.1-4.7-32,1.4-35.7,5.5
		c-3.7-4.1-15.6-10.2-35.7-5.5c-14,3.3-28.4,4.9-32.6,5.3L17.8,92z M34.3,112.6c-14.5,3.4-29.3,5-32.7,5.3v-1.4
		c3.5-0.3,18.4-1.9,32.9-5.3c19.5-4.5,31.3,2.1,34.9,6.3c0,0,0,0,0,0v1.5C66.5,116.2,55.4,107.7,34.3,112.6z M105.7,112.6
		c-21.1-4.9-32.2,3.6-35.2,6.4v-1.5c0,0,0,0,0.1-0.1c3.5-4.2,15.4-10.8,34.9-6.3c14.5,3.4,29.5,5,33,5.3v1.4
		C135,117.6,120.2,116,105.7,112.6z"/>
	<path class="st0" d="M35,98.3c0,0,0.1,0,0.1,0c0.3-0.1,0.4-0.4,0.4-0.6c-2.2-8.2-6.5-24.6-6.6-24.8c0,0-0.7-2.2,0-4.8
		c0.2-0.9,0.6-1.5,0.9-2.1c0.7-1.3,1.4-2.5,0.7-5.7c-1-4.3-3.1-16.5-3.3-18.4c-0.1-1.2-0.8-1.5-1.1-1.5c0,0-0.2-0.1-0.3-0.6
		c-0.1-0.5,0.1-1,0.7-1.1l2.3-0.6c0,0,0.1,0,0.1,0l3.5-0.8c0.2-0.1,0.5,0,0.7,0.1c0.2,0.1,0.4,0.3,0.4,0.6c0.1,0.4,0,0.6,0.1,0.6
		c-0.3,0.2-0.7,0.8-0.3,1.9c0.7,1.8,4.4,13.5,5.5,17.9c0.8,3.1,2,3.9,3.2,4.7c0.6,0.4,1.2,0.8,1.8,1.4c1.9,2,2.3,4.3,2.3,4.4
		c0.1,0.2,5.2,23,6.3,28.4c0.1,0.3,0.3,0.5,0.6,0.4c0.3-0.1,0.5-0.3,0.4-0.6c-1.1-5.4-6.2-28.2-6.3-28.4c0-0.1-0.5-2.6-2.6-4.8
		c-0.7-0.7-1.4-1.2-1.9-1.6c-1.2-0.8-2.1-1.4-2.8-4.1c-1.1-4.4-4.9-16.2-5.6-18c-0.2-0.6,0-0.7,0-0.8c0.1-0.1,0.6-0.6,0.3-1.6
		c-0.1-0.5-0.4-1-0.9-1.2c-0.4-0.3-0.9-0.3-1.4-0.2l-3.5,0.9c0,0-0.1,0-0.1,0l-2.2,0.5c-1.1,0.3-1.7,1.3-1.4,2.3
		c0.3,1.1,0.9,1.3,1,1.3c0,0,0.2,0.1,0.3,0.7c0.2,2,2.3,14.1,3.4,18.5c0.6,2.7,0.1,3.7-0.6,4.9c-0.3,0.6-0.7,1.3-1,2.3
		c-0.8,2.9,0,5.3,0,5.3c0,0.2,4.3,16.6,6.5,24.8C34.6,98.2,34.8,98.3,35,98.3z"/>
	<path class="st0" d="M30.3,73.7c0,0.3,0.2,0.5,0.5,0.5c0,0,0,0,0,0c0.3,0,8.6-0.3,13.7-3.3c0.2-0.1,0.3-0.4,0.2-0.7
		c-0.1-0.2-0.4-0.3-0.7-0.2c-5,2.8-13.2,3.2-13.3,3.2C30.5,73.2,30.3,73.4,30.3,73.7z"/>
	<path class="st0" d="M48.9,90.6c-5,2.8-12.2,3.1-12.2,3.1c-0.3,0-0.5,0.2-0.5,0.5c0,0.3,0.2,0.5,0.5,0.5c0,0,0,0,0,0
		c0.3,0,7.5-0.3,12.7-3.3c0.2-0.1,0.3-0.4,0.2-0.7C49.5,90.6,49.1,90.5,48.9,90.6z"/>
	<path class="st0" d="M45,94.4c-3.2,1.2-6.1,1.2-6.5,1.2c-0.1,0,0,0-0.1,0c-0.3,0-0.5,0.2-0.5,0.5c0,0.3,0.2,0.5,0.5,0.5
		c0,0,0,0,0.1,0c0.6,0,3.5-0.1,6.8-1.3c0.3-0.1,0.4-0.4,0.3-0.7S45.3,94.3,45,94.4z"/>
	<path class="st0" d="M35.2,71.6c0.1,0,2.9-0.1,5.2-1.3c0.2-0.1,0.3-0.4,0.2-0.7c-0.1-0.2-0.4-0.4-0.7-0.2c-2.1,1.1-4.7,1.2-4.8,1.2
		c-0.3,0-0.5,0.2-0.5,0.5C34.7,71.4,34.9,71.6,35.2,71.6C35.2,71.6,35.2,71.6,35.2,71.6z"/>
	<path class="st0" d="M32.6,40.1c0.1-0.2,0-0.4-0.2-0.6c-0.2-0.1-0.4,0-0.6,0.2l-0.3,0.6l-0.6-0.4c-0.2-0.1-0.4-0.1-0.6,0.1L30,40.6
		l-0.6-0.4c-0.2-0.1-0.4-0.1-0.6,0.1l-0.3,0.5l-0.5-0.3c-0.2-0.1-0.4-0.1-0.6,0.1c-0.1,0.2-0.1,0.4,0.1,0.6l0.8,0.5
		c0.1,0,0.1,0.1,0.2,0.1c0,0,0.1,0,0.1,0c0.1,0,0.2-0.1,0.3-0.2l0.3-0.5l0.6,0.4c0.2,0.1,0.4,0.1,0.6-0.1l0.3-0.6l0.7,0.4
		c0.1,0.1,0.2,0.1,0.3,0c0.1,0,0.2-0.1,0.2-0.2L32.6,40.1z"/>
	<path class="st0" d="M70.7,28.8c6.4,0,11.6,5.2,11.6,11.6S77,51.9,70.7,51.9h-2.4c-0.3,0-0.5,0.2-0.5,0.5v36.1
		c0,0.1,0.1,0.3,0.1,0.4c0.1,0.1,0.2,0.1,0.4,0.1h0l3.9,0c0.3,0,0.5-0.2,0.5-0.5V56.4c8.1-1,14.2-7.8,14.2-16
		c0-8.9-7.2-16.1-16.1-16.1s-16.1,7.2-16.1,16.1c0,0.3,0.2,0.5,0.5,0.5h3.6c0.3,0,0.5-0.2,0.5-0.5C59.1,34,64.3,28.8,70.7,28.8z
		 M58.1,39.9h-2.5c0.3-8.1,6.9-14.6,15.1-14.6c8.3,0,15.1,6.8,15.1,15.1c0,7.9-5.9,14.3-13.7,15c-0.3,0-0.5,0.2-0.5,0.5V88l-2.8,0
		V52.9h1.9c6.9,0,12.6-5.6,12.6-12.6s-5.6-12.6-12.6-12.6C63.9,27.8,58.4,33.2,58.1,39.9z"/>
	<path class="st0" d="M70.2,92.8c-2,0-3.6,1.6-3.6,3.6s1.6,3.6,3.6,3.6s3.6-1.6,3.6-3.6S72.2,92.8,70.2,92.8z M70.2,98.9
		c-1.4,0-2.6-1.1-2.6-2.6s1.1-2.6,2.6-2.6s2.6,1.1,2.6,2.6S71.6,98.9,70.2,98.9z"/>
	<path class="st0" d="M84.8,98.5c0.3,0.1,0.5-0.1,0.6-0.4c0.1-0.4,0.2-0.8,0.4-1.2c0.8-2.1,12.7-27.1,12.9-27.4c0,0,0.8-2.1,3.1-3.6
		c0.7-0.5,1.4-0.7,2-1c1.4-0.5,2.7-1,4.2-3.9c2-3.9,8.3-14.6,9.3-16.2c0.6-1,0.4-1.7,0.2-1.9c0,0-0.1-0.2,0.1-0.7
		c0.1-0.2,0.3-0.4,0.5-0.5c0.2-0.1,0.5,0,0.7,0.1l2.1,1c0,0,0,0,0.1,0l3.2,1.6c0.5,0.2,0.7,0.7,0.4,1.2c-0.2,0.4-0.4,0.5-0.3,0.5
		c-0.4,0-1.1,0.2-1.5,1.3c-0.6,1.8-5.4,13.2-7.3,17.2c-1.4,2.9-1,4.2-0.5,5.7c0.2,0.7,0.4,1.3,0.4,2.2c0.1,2.7-1,4.8-1,4.8
		c-0.1,0.1-7.3,14.1-11.3,21.8c-0.1,0.2,0,0.6,0.2,0.7c0.1,0,0.2,0.1,0.2,0.1c0.2,0,0.4-0.1,0.4-0.3c4-7.7,11.3-21.6,11.3-21.8
		c0.1-0.1,1.3-2.3,1.2-5.4c-0.1-1-0.3-1.8-0.5-2.4c-0.4-1.3-0.7-2.4,0.5-5c1.9-4.1,6.7-15.5,7.3-17.3c0.2-0.6,0.4-0.6,0.5-0.6
		c0.1,0,0.8-0.1,1.3-1.1c0.5-1,0.1-2.1-0.9-2.6l-3.3-1.6c0,0,0,0-0.1,0l-2-1c-0.5-0.2-1-0.3-1.4-0.1c-0.5,0.2-0.9,0.5-1.1,1
		c-0.5,1-0.1,1.6-0.1,1.7c0,0,0.1,0.2-0.2,0.7c-1.1,1.7-7.3,12.3-9.4,16.3c-1.3,2.5-2.3,2.9-3.6,3.4c-0.7,0.2-1.4,0.5-2.2,1.1
		c-2.5,1.7-3.4,4-3.4,4.1c-0.5,1-12,25.3-12.9,27.4c-0.2,0.5-0.3,1-0.4,1.5C84.3,98.2,84.5,98.5,84.8,98.5z"/>
	<path class="st0" d="M99.1,71c-0.2,0.2-0.1,0.5,0.1,0.7c0.3,0.2,6.8,5.2,12.6,6.3c0,0,0.1,0,0.1,0c0.2,0,0.5-0.2,0.5-0.4
		c0.1-0.3-0.1-0.5-0.4-0.6c-5.6-1-12.1-6.1-12.2-6.1C99.6,70.8,99.3,70.8,99.1,71z"/>
	<path class="st0" d="M102.4,95.9c-5.6-1-11.3-5.4-11.4-5.5c-0.2-0.2-0.5-0.1-0.7,0.1c-0.2,0.2-0.1,0.5,0.1,0.7
		c0.2,0.2,5.9,4.6,11.8,5.7c0,0,0.1,0,0.1,0c0.2,0,0.5-0.2,0.5-0.4C102.9,96.3,102.7,96,102.4,95.9z"/>
	<path class="st0" d="M97,96.3c-3.4-1.2-5.8-3.3-5.8-3.3c-0.2-0.2-0.5-0.2-0.7,0.1c-0.2,0.2-0.2,0.5,0,0.7c0.1,0.1,2.5,2.2,6.1,3.5
		c0.1,0,0.1,0,0.2,0c0.2,0,0.4-0.1,0.5-0.3C97.4,96.7,97.3,96.4,97,96.3z"/>
	<path class="st0" d="M109.1,75c0.2,0,0.4-0.2,0.5-0.4c0.1-0.3-0.1-0.5-0.4-0.6c-2.3-0.5-4.4-2.1-4.4-2.2c-0.2-0.2-0.5-0.1-0.7,0.1
		c-0.2,0.2-0.1,0.5,0.1,0.7c0.1,0.1,2.3,1.8,4.8,2.4C109,75,109.1,75,109.1,75z"/>
	<path class="st0" d="M118.7,45.7l0.6-0.2l0.2,0.7c0.1,0.2,0.3,0.3,0.5,0.3l0.6-0.2l0.3,0.7c0,0.1,0.1,0.2,0.2,0.2
		c0.1,0,0.1,0,0.2,0c0,0,0.1,0,0.1,0l1-0.4c0.2-0.1,0.3-0.3,0.2-0.5c-0.1-0.2-0.3-0.3-0.5-0.2l-0.6,0.2l-0.2-0.7
		c-0.1-0.2-0.3-0.3-0.5-0.2l-0.6,0.2l-0.2-0.7c-0.1-0.2-0.3-0.3-0.5-0.3l-0.6,0.2l-0.2-0.5c-0.1-0.2-0.3-0.3-0.5-0.3
		c-0.2,0.1-0.3,0.3-0.3,0.5l0.3,0.9c0,0.1,0.1,0.2,0.2,0.2C118.5,45.7,118.6,45.7,118.7,45.7z"/>
</g>
</svg>
