<?xml version="1.0" encoding="utf-8"?>
<!-- Generator: Adobe Illustrator 20.0.0, SVG Export Plug-In . SVG Version: 6.00 Build 0)  -->
<svg version="1.1" xmlns="http://www.w3.org/2000/svg" xmlns:xlink="http://www.w3.org/1999/xlink" x="0px" y="0px"
	 viewBox="0 0 660 500" style="enable-background:new 0 0 660 500;" xml:space="preserve">
<style type="text/css">
	.st0{opacity:0.45;}
	.st1{fill:#FFFFFF;stroke:#000000;stroke-width:1.5;stroke-miterlimit:10;}
</style>
<g id="type">
	<g class="st0">
		<path d="M43.2,135.9v1.4h-5.2v4.5h4.6v1.4h-4.6v5.1h-1.7v-12.4H43.2z"/>
		<path d="M48.4,143.2v5.1h-1.7v-12.4h3.8c0.9,0,2.1,0,3.1,0.7c0.9,0.6,1.4,1.6,1.4,2.9c0,2-1.1,3.1-2.5,3.5l3.2,5.4h-2l-3-5.1H48.4
			z M48.4,141.9h2.1c0.4,0,1.2,0,1.8-0.4c0.5-0.4,0.8-1,0.8-1.9c0-0.8-0.3-1.5-0.8-1.9c-0.6-0.4-1.4-0.4-1.8-0.4h-2.1V141.9z"/>
		<path d="M66.4,148.3l-1.2-3.4h-4.9l-1.2,3.4h-1.6l4.5-12.4h1.8l4.4,12.4H66.4z M60.8,143.6h4l-2-5.8L60.8,143.6z"/>
		<path d="M73,135.9l6.4,9.6v-9.6H81v12.4h-1.6l-6.6-9.7v9.7h-1.5v-12.4H73z"/>
		<path d="M93.3,148c0,0-1.1,0.4-2.7,0.4c-4.2,0-5.9-2.9-5.9-6.3s1.7-6.3,5.9-6.3c1.6,0,2.7,0.4,2.7,0.4v1.4h-0.1
			c0,0-1.1-0.5-2.5-0.5c-2.9,0-4.1,2.2-4.1,5c0,2.8,1.3,5.1,4.2,5.1c1.4,0,2.5-0.5,2.5-0.5h0.1V148z"/>
		<path d="M104.1,135.9v1.3h-5.4v3.9h4.6v1.3h-4.6v4.5h5.6v1.3h-7.3v-12.4H104.1z"/>
	</g>
	<g class="st0">
		<path d="M151.7,38.5v6c0,0-1.5,0.6-3.7,0.6c-3.7,0-6.3-2-6.3-6.2c0-4.4,2.7-6.4,6.5-6.4c1.7,0,3.1,0.4,3.1,0.4v1.4h-0.1
			c0,0-1.2-0.6-2.9-0.6c-2.8,0-4.7,1.5-4.7,5s1.9,5.1,4.4,5.1c1.1,0,2-0.3,2-0.3v-3.7h-2.4v-1.3H151.7z"/>
		<path d="M162.9,32.6v1.3h-5.4v3.9h4.6v1.3h-4.6v4.5h5.6V45h-7.3V32.6H162.9z"/>
		<path d="M168.5,39.9V45h-1.7V32.6h3.8c0.9,0,2.1,0,3.1,0.7c0.9,0.6,1.4,1.6,1.4,2.9c0,2-1.1,3.1-2.5,3.5l3.2,5.4h-2l-3-5.1H168.5z
			 M168.5,38.5h2.1c0.4,0,1.2,0,1.8-0.4c0.5-0.4,0.8-1,0.8-1.9c0-0.8-0.3-1.5-0.8-1.9c-0.6-0.4-1.4-0.4-1.8-0.4h-2.1V38.5z"/>
		<path d="M181.3,32.6l4.3,10l4.2-10h2.2V45h-1.7V34.7l-4.1,9.7h-1.5l-4.1-9.7V45h-1.5V32.6H181.3z"/>
		<path d="M203.9,45l-1.2-3.4h-4.9l-1.2,3.4H195l4.5-12.4h1.8l4.4,12.4H203.9z M198.3,40.3h4l-2-5.8L198.3,40.3z"/>
		<path d="M210.5,32.6l6.4,9.6v-9.6h1.5V45h-1.6l-6.6-9.7V45h-1.5V32.6H210.5z"/>
		<path d="M223.5,32.6l3.3,5.9l3.3-5.9h1.6l-4.2,7.5V45h-1.7v-4.9l-4.2-7.5H223.5z"/>
	</g>
	<g class="st0">
		<path d="M529.8,315.1v1.4h-3.6v11h-1.7v-11h-3.6v-1.4H529.8z"/>
		<path d="M534.7,315.1v7.8c0,2,0.6,3.5,3,3.5c2.4,0,3-1.4,3-3.5v-7.8h1.5v7.5c0,1,0,2.6-1,3.7c-0.9,1-2.3,1.4-3.7,1.4
			c-1.5,0-2.8-0.4-3.6-1.4c-1-1.2-1-2.6-1-3.7v-7.5H534.7z"/>
		<path d="M548.4,322.4v5.1h-1.7v-12.4h3.8c0.9,0,2.1,0,3.1,0.7c0.9,0.6,1.4,1.6,1.4,2.9c0,2-1.1,3.1-2.5,3.5l3.2,5.4h-2l-3-5.1
			H548.4z M548.4,321h2.1c0.4,0,1.2,0,1.8-0.4c0.5-0.4,0.8-1,0.8-1.9c0-0.8-0.3-1.5-0.8-1.9c-0.6-0.4-1.4-0.4-1.8-0.4h-2.1V321z"/>
		<path d="M560.7,315.1v5.8l5.3-5.8h1.9l-4.8,5.2l4.9,7.2H566l-4.1-6l-1.3,1.3v4.7H559v-12.4H560.7z"/>
		<path d="M578.4,315.1v1.3H573v3.9h4.6v1.3H573v4.5h5.6v1.3h-7.3v-12.4H578.4z"/>
		<path d="M582.9,315.1l3.3,5.9l3.3-5.9h1.6l-4.2,7.5v4.9h-1.7v-4.9l-4.2-7.5H582.9z"/>
	</g>
	<g>
		<g>
			<path d="M195.9,90.7h-0.2c0,0-1.8-0.7-3.4-0.7c-1.7,0-2.5,0.7-2.5,1.8c0,3,6.8,2.3,6.8,7.3c0,3-2.4,4.4-5.7,4.4
				c-2.3,0-3.9-0.7-3.9-0.7v-2.1h0.2c0,0,2,0.9,3.8,0.9c1.7,0,2.8-0.8,2.8-2.1c0-3.3-6.8-2.5-6.8-7.2c0-2.6,2-4.1,5.2-4.1
				c2,0,3.6,0.6,3.6,0.6V90.7z"/>
			<path d="M205.5,103.3c0,0-0.8,0.2-2,0.2c-1.5,0-2.6-0.4-3.2-1.2c-0.5-0.7-0.5-1.7-0.5-2.8v-5h-2v-1.9h2v-2.8l2.6-0.8v3.6h3v1.9
				h-3v5c0,0.7,0,1.2,0.2,1.6c0.2,0.4,0.7,0.5,1.2,0.5c0.8,0,1.5-0.3,1.5-0.3h0.2V103.3z"/>
			<path d="M215.6,103.3l-0.5-1.9c-0.3,1.2-1.4,2.1-3.2,2.1c-1.6,0-2.5-0.6-3-1.4c-0.6-0.9-0.6-2.1-0.6-3.4v-6.5h2.6v6.5
				c0,0.6,0,1.3,0.4,1.8c0.4,0.5,1,0.8,1.8,0.8c1.8,0,2-1.6,2-2.4v-6.7h2.6v11H215.6z"/>
			<path d="M227.4,103.3c0,0-0.8,0.2-2,0.2c-1.5,0-2.6-0.4-3.2-1.2c-0.5-0.7-0.5-1.7-0.5-2.8v-5h-2v-1.9h2v-2.8l2.6-0.8v3.6h3v1.9
				h-3v5c0,0.7,0,1.2,0.2,1.6c0.2,0.4,0.7,0.5,1.2,0.5c0.8,0,1.5-0.3,1.5-0.3h0.2V103.3z"/>
			<path d="M236.5,103.3c0,0-0.8,0.2-2,0.2c-1.5,0-2.6-0.4-3.2-1.2c-0.5-0.7-0.5-1.7-0.5-2.8v-5h-2v-1.9h2v-2.8l2.6-0.8v3.6h3v1.9
				h-3v5c0,0.7,0,1.2,0.2,1.6c0.2,0.4,0.7,0.5,1.2,0.5c0.8,0,1.5-0.3,1.5-0.3h0.2V103.3z"/>
			<path d="M248.8,101.7c0,1.2,0,2.6-0.8,3.7c-0.9,1.3-2.7,2-5.1,2c-2.3,0-3.9-0.6-3.9-0.6v-2.2h0.2c0,0,1.9,0.9,3.8,0.9
				c1.3,0,2.3-0.4,2.8-1.2c0.4-0.6,0.4-1.5,0.4-2.4v-0.8c-0.4,1.2-1.6,2-3.3,2c-2.9,0-4.7-2-4.7-5.4c0-3.4,1.8-5.6,5-5.6
				c1.6,0,2.7,0.6,3.3,1.8l0.7-1.6h1.6V101.7z M246.2,97.6c0-2-0.6-3.6-2.6-3.6s-2.6,1.6-2.6,3.6s0.6,3.6,2.6,3.6
				S246.2,99.6,246.2,97.6z"/>
			<path d="M252.3,92.6c0,0,1.6-0.4,3.5-0.4s3.3,0.4,4.1,1.5c0.6,0.9,0.6,2.2,0.6,3.4v6.3h-2l-0.5-1.8c-0.2,1-1.1,2-3.1,2
				c-2.1,0-3.7-1.2-3.7-3.3c0-1.1,0.4-2.1,1.4-2.7c1.3-0.8,3.3-0.8,5.2-0.8c0-0.7,0-1.4-0.3-1.8c-0.3-0.5-1-0.8-2.1-0.8
				c-1.6,0-3.1,0.6-3.1,0.6h-0.2V92.6z M255.6,101.6c0.9,0,1.6-0.4,2-1c0.3-0.6,0.3-1.4,0.3-1.9v-0.2c-1.4,0-2.4,0-3.1,0.4
				c-0.6,0.3-0.8,0.8-0.8,1.4C254,101,254.5,101.6,255.6,101.6z"/>
			<path d="M269.8,94.7c0,0-0.5-0.1-1.2-0.1c-2.4,0-2.4,1.7-2.4,2.6v6.2h-2.6v-11h2l0.5,2.2c0.4-1.8,1.8-2.3,3.4-2.3h0.3V94.7z"/>
			<path d="M278.5,103.3c0,0-0.8,0.2-2,0.2c-1.5,0-2.6-0.4-3.2-1.2c-0.5-0.7-0.5-1.7-0.5-2.8v-5h-2v-1.9h2v-2.8l2.6-0.8v3.6h3v1.9
				h-3v5c0,0.7,0,1.2,0.2,1.6c0.2,0.4,0.7,0.5,1.2,0.5c0.8,0,1.5-0.3,1.5-0.3h0.2V103.3z"/>
		</g>
	</g>
	<g>
		<path d="M81.6,88c1.2,0,3,0,4.4,0.8c1.3,0.8,2,2.2,2,4c0,2-0.9,3.5-2.2,4.3c-1.3,0.8-2.8,0.8-4.2,0.8h-1.4v5.1h-2.7V88H81.6z
			 M80.2,95.9h1.6c0.7,0,1.7,0,2.4-0.5s1-1.4,1-2.4c0-1.1-0.4-2-1-2.4C83.4,90,82.5,90,81.7,90h-1.6V95.9z"/>
		<path d="M90.2,92.3c0,0,1.6-0.4,3.5-0.4c2,0,3.3,0.4,4.1,1.5c0.6,0.9,0.6,2.2,0.6,3.4v6.3h-2l-0.5-1.8c-0.2,1-1.1,2-3.1,2
			c-2.1,0-3.7-1.2-3.7-3.3c0-1.1,0.4-2.1,1.4-2.7c1.3-0.8,3.3-0.8,5.2-0.8c0-0.7,0-1.4-0.3-1.8c-0.3-0.5-1-0.8-2.1-0.8
			c-1.6,0-3.1,0.6-3.1,0.6h-0.2V92.3z M93.5,101.2c0.9,0,1.6-0.4,2-1c0.3-0.6,0.3-1.4,0.3-1.9V98c-1.4,0-2.4,0-3.1,0.4
			c-0.6,0.3-0.8,0.8-0.8,1.4C91.9,100.7,92.5,101.2,93.5,101.2z"/>
		<path d="M107.8,94.4c0,0-0.5-0.1-1.2-0.1c-2.4,0-2.4,1.7-2.4,2.6v6.2h-2.6V92h2l0.5,2.2c0.4-1.8,1.8-2.3,3.4-2.3h0.3V94.4z"/>
		<path d="M112.5,88v2.4h-2.7V88H112.5z M112.4,92v11h-2.6V92H112.4z"/>
		<path d="M122.3,94.4h-0.2c0,0-1.4-0.6-2.6-0.6c-1.1,0-1.6,0.4-1.6,1c0,1.7,5,1.2,5,5c0,2.3-1.9,3.4-4.5,3.4
			c-1.9,0-3.1-0.5-3.1-0.5v-2.1h0.2c0,0,1.7,0.7,3.1,0.7c1.2,0,1.7-0.5,1.7-1.1c0-2-5-1.4-5-5c0-2,1.6-3.3,4.3-3.3
			c1.6,0,2.7,0.4,2.7,0.4V94.4z"/>
	</g>
	<g>
		<path d="M578.1,298.2l-1.3-3.8h-5.7l-1.3,3.8h-2.4l5.4-15h2.8l5.4,15H578.1z M571.8,292.4h4.4l-2.2-6.5L571.8,292.4z"/>
		<path d="M584.8,287.2l0.5,1.9c0.4-1.3,1.4-2.1,3.3-2.1c1.7,0,2.7,0.7,3.2,1.4c0.6,0.9,0.6,2,0.6,3.3v6.5h-2.6v-6.5
			c0-0.6,0-1.3-0.4-1.8c-0.4-0.5-0.9-0.8-1.7-0.8c-2,0-2.2,1.5-2.2,2.4v6.7h-2.6v-11H584.8z"/>
		<path d="M598.2,282.6v9.2l4.1-4.6h2.9l-4.1,4.5l4.3,6.5h-3l-3-4.8l-1.1,1.1v3.7h-2.6v-15.6H598.2z"/>
		<path d="M607.6,287.4c0,0,1.6-0.4,3.5-0.4s3.3,0.4,4.1,1.5c0.6,0.9,0.6,2.2,0.6,3.4v6.3h-2l-0.5-1.8c-0.2,1-1.1,2-3.1,2
			c-2.1,0-3.7-1.2-3.7-3.3c0-1.1,0.4-2.1,1.4-2.7c1.3-0.8,3.3-0.8,5.2-0.8c0-0.7,0-1.4-0.3-1.8s-1-0.8-2.1-0.8
			c-1.6,0-3.1,0.6-3.1,0.6h-0.2V287.4z M610.9,296.4c0.9,0,1.6-0.4,2-1c0.3-0.6,0.3-1.4,0.3-1.9v-0.2c-1.4,0-2.4,0-3.1,0.4
			c-0.6,0.3-0.8,0.8-0.8,1.4C609.3,295.8,609.8,296.4,610.9,296.4z"/>
		<path d="M625.1,289.5c0,0-0.5-0.1-1.2-0.1c-2.4,0-2.4,1.7-2.4,2.6v6.2H619v-11h2l0.5,2.2c0.4-1.8,1.8-2.3,3.4-2.3h0.3V289.5z"/>
		<path d="M627.2,287.4c0,0,1.6-0.4,3.5-0.4c2,0,3.3,0.4,4.1,1.5c0.6,0.9,0.6,2.2,0.6,3.4v6.3h-2l-0.5-1.8c-0.2,1-1.1,2-3.1,2
			c-2.1,0-3.7-1.2-3.7-3.3c0-1.1,0.4-2.1,1.4-2.7c1.3-0.8,3.3-0.8,5.2-0.8c0-0.7,0-1.4-0.3-1.8c-0.3-0.5-1-0.8-2.1-0.8
			c-1.6,0-3.1,0.6-3.1,0.6h-0.2V287.4z M630.5,296.4c0.9,0,1.6-0.4,2-1c0.3-0.6,0.3-1.4,0.3-1.9v-0.2c-1.4,0-2.4,0-3.1,0.4
			c-0.6,0.3-0.8,0.8-0.8,1.4C628.9,295.8,629.4,296.4,630.5,296.4z"/>
	</g>
	<circle class="st1" cx="66.5" cy="88.7" r="5"/>
	<circle class="st1" cx="176.6" cy="90.7" r="5"/>
	<circle class="st1" cx="558" cy="290.3" r="5"/>
</g>
<g id="points">
	<g>
	</g>
	<g>
	</g>
	<g>
	</g>
	<g>
	</g>
	<g>
	</g>
	<g>
	</g>
	<g>
	</g>
	<g>
	</g>
	<g>
	</g>
	<g>
	</g>
	<g>
	</g>
	<g>
	</g>
	<g>
	</g>
	<g>
	</g>
	<g>
	</g>
</g>
</svg>
