<?xml version="1.0" encoding="UTF-8" standalone="no"?>
<svg width="347px" height="297px" viewBox="0 0 347 297" version="1.1" xmlns="http://www.w3.org/2000/svg" xmlns:xlink="http://www.w3.org/1999/xlink" xmlns:sketch="http://www.bohemiancoding.com/sketch/ns">
    <!-- Generator: Sketch 3.3.2 (12043) - http://www.bohemiancoding.com/sketch -->
    <title>Artboard 1</title>
    <desc>Created with Sketch.</desc>
    <defs>
        <linearGradient x1="-2.48949813e-15%" y1="50%" x2="100%" y2="50%" id="linearGradient-1">
            <stop stop-color="#8D8D8D" offset="0%"></stop>
            <stop stop-color="#1A1A1A" offset="100%"></stop>
        </linearGradient>
        <linearGradient x1="100%" y1="50%" x2="0%" y2="50%" id="linearGradient-2">
            <stop stop-color="#8D8D8D" offset="0%"></stop>
            <stop stop-color="#1A1A1A" offset="100%"></stop>
        </linearGradient>
    </defs>
    <g id="Page-1" stroke="none" stroke-width="1" fill="none" fill-rule="evenodd" sketch:type="MSPage">
        <g id="Artboard-1" sketch:type="MSArtboardGroup">
            <g id="Rectangle-4-+-SCOPE-/-QUALITY" sketch:type="MSLayerGroup" transform="translate(27.000000, 216.573592)">
                <path d="M0,0 L231.954239,0 L267.195421,61.0359482 L35.1848004,61.0359497 L0,0 Z" id="Rectangle-4" fill="url(#linearGradient-1)" sketch:type="MSShapeGroup"></path>
                <path d="M76.044,28.796 C76.044,28.232 76.548,27.788 77.412,27.788 C78.18,27.788 78.936,28.088 79.692,28.652 L80.484,27.536 C79.632,26.852 78.66,26.48 77.436,26.48 C75.768,26.48 74.568,27.464 74.568,28.928 C74.568,30.488 75.576,31.016 77.364,31.448 C78.924,31.808 79.26,32.132 79.26,32.744 C79.26,33.392 78.684,33.812 77.772,33.812 C76.728,33.812 75.924,33.416 75.12,32.72 L74.232,33.776 C75.24,34.676 76.452,35.12 77.736,35.12 C79.5,35.12 80.736,34.184 80.736,32.6 C80.736,31.196 79.812,30.56 78.036,30.128 C76.428,29.744 76.044,29.456 76.044,28.796 L76.044,28.796 Z M90.284,33.656 L89.336,32.696 C88.616,33.368 87.956,33.788 86.924,33.788 C85.316,33.788 84.152,32.444 84.152,30.788 C84.152,29.132 85.316,27.812 86.924,27.812 C87.884,27.812 88.604,28.232 89.276,28.856 L90.224,27.764 C89.42,26.996 88.484,26.456 86.936,26.456 C84.392,26.456 82.604,28.412 82.604,30.812 C82.604,33.236 84.428,35.144 86.876,35.144 C88.448,35.144 89.408,34.568 90.284,33.656 L90.284,33.656 Z M100.504,30.788 C100.504,28.412 98.704,26.456 96.124,26.456 C93.544,26.456 91.72,28.436 91.72,30.812 C91.72,33.188 93.52,35.144 96.1,35.144 C98.68,35.144 100.504,33.164 100.504,30.788 L100.504,30.788 Z M98.956,30.812 C98.956,32.456 97.792,33.788 96.124,33.788 C94.456,33.788 93.268,32.432 93.268,30.788 C93.268,29.144 94.432,27.812 96.1,27.812 C97.768,27.812 98.956,29.168 98.956,30.812 L98.956,30.812 Z M109.296,29.42 C109.296,27.704 108.06,26.6 106.104,26.6 L102.792,26.6 L102.792,35 L104.268,35 L104.268,32.3 L105.936,32.3 C107.784,32.3 109.296,31.316 109.296,29.42 L109.296,29.42 Z M107.796,29.456 C107.796,30.356 107.1,30.968 105.984,30.968 L104.268,30.968 L104.268,27.944 L105.984,27.944 C107.088,27.944 107.796,28.46 107.796,29.456 L107.796,29.456 Z M117.536,26.6 L111.308,26.6 L111.308,35 L117.596,35 L117.596,33.68 L112.784,33.68 L112.784,31.424 L116.996,31.424 L116.996,30.104 L112.784,30.104 L112.784,27.92 L117.536,27.92 L117.536,26.6 Z M127.992,25.424 L122.568,36.536 L123.828,36.536 L129.252,25.424 L127.992,25.424 Z M142.36,33.38 C142.9,32.648 143.212,31.748 143.212,30.788 C143.212,28.412 141.412,26.456 138.832,26.456 C136.252,26.456 134.428,28.436 134.428,30.812 C134.428,33.188 136.228,35.144 138.808,35.144 C139.792,35.144 140.656,34.844 141.364,34.352 L142.372,35.252 L143.32,34.196 L142.36,33.38 Z M140.272,33.38 C139.876,33.632 139.384,33.788 138.832,33.788 C137.164,33.788 135.976,32.432 135.976,30.788 C135.976,29.144 137.14,27.812 138.808,27.812 C140.476,27.812 141.664,29.168 141.664,30.812 C141.664,31.4 141.52,31.952 141.232,32.396 L139.78,31.076 L138.832,32.156 L140.272,33.38 Z M152.556,26.6 L151.08,26.6 L151.08,31.436 C151.08,32.984 150.276,33.776 148.968,33.776 C147.648,33.776 146.844,32.936 146.844,31.376 L146.844,26.6 L145.368,26.6 L145.368,31.436 C145.368,33.872 146.76,35.132 148.944,35.132 C151.14,35.132 152.556,33.872 152.556,31.364 L152.556,26.6 Z M159.128,26.54 L157.76,26.54 L154.064,35 L155.576,35 L156.44,32.972 L160.412,32.972 L161.264,35 L162.824,35 L159.128,26.54 Z M159.872,31.664 L156.98,31.664 L158.42,28.304 L159.872,31.664 Z M164.764,35 L170.656,35 L170.656,33.656 L166.24,33.656 L166.24,26.6 L164.764,26.6 L164.764,35 Z M172.776,26.6 L172.776,35 L174.252,35 L174.252,26.6 L172.776,26.6 Z M180.548,27.968 L183.212,27.968 L183.212,26.6 L176.396,26.6 L176.396,27.968 L179.06,27.968 L179.06,35 L180.548,35 L180.548,27.968 Z M189.232,31.652 L192.568,26.6 L190.876,26.6 L188.5,30.32 L186.148,26.6 L184.408,26.6 L187.744,31.688 L187.744,35 L189.232,35 L189.232,31.652 Z" id="SCOPE-/-QUALITY" fill="#FFFFFF" sketch:type="MSShapeGroup"></path>
            </g>
            <g id="Rectangle-4-+-SCOPE-/-QUALITY-Copy" sketch:type="MSLayerGroup" transform="translate(122.000000, 117.000000) rotate(-60.000000) translate(-122.000000, -117.000000) translate(-12.000000, 86.000000)">
                <path d="M0,0 L231.954239,0 L267.195421,61.0359482 L35.1848004,61.0359497 L0,0 Z" id="Rectangle-4" fill="url(#linearGradient-2)" sketch:type="MSShapeGroup"></path>
                <path d="M122.114,27.968 L124.778,27.968 L124.778,26.6 L117.962,26.6 L117.962,27.968 L120.626,27.968 L120.626,35 L122.114,35 L122.114,27.968 Z M126.922,26.6 L126.922,35 L128.398,35 L128.398,26.6 L126.922,26.6 Z M137.922,28.976 L137.922,35 L139.398,35 L139.398,26.6 L137.826,26.6 L135.27,30.572 L132.714,26.6 L131.142,26.6 L131.142,35 L132.594,35 L132.594,29 L135.222,32.936 L135.27,32.936 L137.922,28.976 Z M148.286,26.6 L142.058,26.6 L142.058,35 L148.346,35 L148.346,33.68 L143.534,33.68 L143.534,31.424 L147.746,31.424 L147.746,30.104 L143.534,30.104 L143.534,27.92 L148.286,27.92 L148.286,26.6 Z" id="TIME" fill="#FFFFFF" sketch:type="MSShapeGroup"></path>
            </g>
            <g id="Rectangle-4-+-SCOPE-/-QUALITY-Copy-2" sketch:type="MSLayerGroup" transform="translate(253.750000, 147.566987) rotate(-300.000000) translate(-253.750000, -147.566987) translate(119.250000, 116.566987)">
                <path d="M1,1.98951966e-13 L232.954239,1.98951966e-13 L268.195421,61.0359482 L36.1848004,61.0359497 L1,1.98951966e-13 Z" id="Rectangle-4" fill="url(#linearGradient-2)" sketch:type="MSShapeGroup"></path>
                <path d="M124.872,33.656 L123.924,32.696 C123.204,33.368 122.544,33.788 121.512,33.788 C119.904,33.788 118.74,32.444 118.74,30.788 C118.74,29.132 119.904,27.812 121.512,27.812 C122.472,27.812 123.192,28.232 123.864,28.856 L124.812,27.764 C124.008,26.996 123.072,26.456 121.524,26.456 C118.98,26.456 117.192,28.412 117.192,30.812 C117.192,33.236 119.016,35.144 121.464,35.144 C123.036,35.144 123.996,34.568 124.872,33.656 L124.872,33.656 Z M135.092,30.788 C135.092,28.412 133.292,26.456 130.712,26.456 C128.132,26.456 126.308,28.436 126.308,30.812 C126.308,33.188 128.108,35.144 130.688,35.144 C133.268,35.144 135.092,33.164 135.092,30.788 L135.092,30.788 Z M133.544,30.812 C133.544,32.456 132.38,33.788 130.712,33.788 C129.044,33.788 127.856,32.432 127.856,30.788 C127.856,29.144 129.02,27.812 130.688,27.812 C132.356,27.812 133.544,29.168 133.544,30.812 L133.544,30.812 Z M138.568,28.796 C138.568,28.232 139.072,27.788 139.936,27.788 C140.704,27.788 141.46,28.088 142.216,28.652 L143.008,27.536 C142.156,26.852 141.184,26.48 139.96,26.48 C138.292,26.48 137.092,27.464 137.092,28.928 C137.092,30.488 138.1,31.016 139.888,31.448 C141.448,31.808 141.784,32.132 141.784,32.744 C141.784,33.392 141.208,33.812 140.296,33.812 C139.252,33.812 138.448,33.416 137.644,32.72 L136.756,33.776 C137.764,34.676 138.976,35.12 140.26,35.12 C142.024,35.12 143.26,34.184 143.26,32.6 C143.26,31.196 142.336,30.56 140.56,30.128 C138.952,29.744 138.568,29.456 138.568,28.796 L138.568,28.796 Z M148.872,27.968 L151.536,27.968 L151.536,26.6 L144.72,26.6 L144.72,27.968 L147.384,27.968 L147.384,35 L148.872,35 L148.872,27.968 Z" id="COST" fill="#FFFFFF" sketch:type="MSShapeGroup"></path>
            </g>
        </g>
    </g>
</svg>