<?xml version="1.0" encoding="UTF-8" standalone="no"?>
<!-- Created with Inkscape (http://www.inkscape.org/) -->

<svg
   xmlns:dc="http://purl.org/dc/elements/1.1/"
   xmlns:cc="http://creativecommons.org/ns#"
   xmlns:rdf="http://www.w3.org/1999/02/22-rdf-syntax-ns#"
   xmlns:svg="http://www.w3.org/2000/svg"
   xmlns="http://www.w3.org/2000/svg"
   xmlns:sodipodi="http://sodipodi.sourceforge.net/DTD/sodipodi-0.dtd"
   xmlns:inkscape="http://www.inkscape.org/namespaces/inkscape"
   width="4320"
   height="8640"
   id="svg3045"
   version="1.1"
   inkscape:version="0.48.4 r9939"
   sodipodi:docname="drawing1.svg">
  <defs
     id="defs3047" />
  <sodipodi:namedview
     id="base"
     pagecolor="#ffffff"
     bordercolor="#666666"
     borderopacity="1.0"
     inkscape:pageopacity="0.0"
     inkscape:pageshadow="2"
     inkscape:zoom="0.067003601"
     inkscape:cx="2027.7657"
     inkscape:cy="5163.0922"
     inkscape:document-units="px"
     inkscape:current-layer="layer1"
     showgrid="false"
     units="ft"
     inkscape:window-width="1366"
     inkscape:window-height="706"
     inkscape:window-x="-8"
     inkscape:window-y="-8"
     inkscape:window-maximized="1"
     inkscape:snap-global="false" />
  <metadata
     id="metadata3050">
    <rdf:RDF>
      <cc:Work
         rdf:about="">
        <dc:format>image/svg+xml</dc:format>
        <dc:type
           rdf:resource="http://purl.org/dc/dcmitype/StillImage" />
        <dc:title></dc:title>
      </cc:Work>
    </rdf:RDF>
  </metadata>
  <g
     inkscape:label="Layer 1"
     inkscape:groupmode="layer"
     id="layer1"
     transform="translate(0,7587.64)">
    <path
       style="fill:#0000f8;fill-opacity:1;stroke:#ff0000;stroke-opacity:1"
       d="M 1165.0938 1044.5 L 1165.0938 1045.7812 L 1162.75 1045.7812 L 1162.75 1270.7812 L 3001.4375 1270.7812 L 3001.4375 3517.1875 L 1164.7812 3517.1875 L 1164.7812 3742.1875 L 1165.2188 3742.1875 L 1165.2188 3743.875 L 3781.1875 3743.875 L 3781.1875 3742.1875 L 3802.6562 3742.1875 L 3802.6562 3741.0938 L 3801.5312 3741.0938 L 3801.5312 3651.0938 L 3865.2188 3651.0938 L 3865.2188 3518.875 L 3864.7812 3518.875 L 3864.7812 3517.1875 L 3362.125 3517.1875 L 3362.125 3358.1562 L 3361.4375 3358.1562 L 3361.4375 2426.5 L 3275.9062 2426.5 L 3275.9062 2423.4062 L 3180.5625 2423.4062 L 3180.5625 2358.7188 L 3360.5625 2358.7188 L 3360.5625 2361.7812 L 3361.4375 2361.7812 L 3361.4375 1270.7812 L 3862.75 1270.7812 L 3862.75 1269.5 L 3865.0938 1269.5 L 3865.0938 1132.75 L 3861.7812 1132.75 L 3861.7812 1133.1562 L 3797.0625 1133.1562 L 3797.0625 1045.7812 L 3781.0625 1045.7812 L 3781.0625 1044.5 L 1165.0938 1044.5 z "
       transform="translate(0,-7587.64)"
       id="rect3055" />
    <path
       style="fill:#0000f8;fill-opacity:1;stroke:#ff0000;stroke-opacity:1"
       d="M 254.1875 762.28125 L 254.1875 848.28125 L 190.3125 848.28125 L 190.3125 987.28125 L 191.21875 987.28125 L 191.21875 988.8125 L 191.65625 988.8125 L 191.65625 990.5 L 694.3125 990.5 L 694.3125 1149.5312 L 695 1149.5312 L 695 2081.1875 L 695.15625 2081.1875 L 695.15625 2145.9062 L 695 2145.9062 L 695 3236.9062 L 193.6875 3236.9062 L 193.6875 3238.1875 L 191.34375 3238.1875 L 191.34375 3379.8125 L 192.78125 3379.8125 L 192.78125 3376.9375 L 257.46875 3376.9375 L 257.46875 3461.9062 L 275.375 3461.9062 L 275.375 3463.1875 L 2891.3438 3463.1875 L 2891.3438 3461.9062 L 2893.6875 3461.9062 L 2893.6875 3236.9062 L 1055 3236.9062 L 1055 2148.625 L 875.875 2148.625 L 875.875 2148.9688 L 875.15625 2148.9688 L 875.15625 2084.2812 L 875.34375 2084.2812 L 875.34375 2083.9375 L 1055 2083.9375 L 1055 990.5 L 2891.6562 990.5 L 2891.6562 765.5 L 2891.2188 765.5 L 2891.2188 763.8125 L 2890.3125 763.8125 L 2890.3125 762.28125 L 254.1875 762.28125 z "
       transform="translate(0,-7587.64)"
       id="rect3055-8" />
    <path
       style="fill:#0000f8;fill-opacity:1;stroke:#ff0000;stroke-opacity:1"
       d="M 774 52.21875 L 774 412.21875 L 1134 412.21875 L 1134 52.21875 L 1018.7188 52.21875 L 1018.7188 232.21875 L 1017.875 232.21875 L 1017.875 321.375 L 888.4375 321.375 L 888.4375 52.21875 L 774 52.21875 z "
       transform="translate(0,-7587.64)"
       id="rect3196-4" />
    <path
       style="fill:#0000f8;fill-opacity:1;stroke:#ff0000;stroke-opacity:1"
       d="m 1192.9698,-7181.1712 0,-270.9063 147.6563,0 0,180 64.6875,0 0,-180 147.6562,0 0,270.9063 -360,0 z"
       id="rect3153-9-2-2"
       inkscape:connector-curvature="0" />
    <rect
       style="fill:#0000f8;fill-opacity:1;stroke:#ff0000;stroke-opacity:1"
       id="rect3103"
       width="2700"
       height="2700"
       x="832.20056"
       y="-3386.0432" />
    <path
       style="fill:#0000f8;fill-opacity:1;stroke:#ff0000;stroke-opacity:1"
       d="m 1648.3195,-7184.6291 0,-270.9063 147.6563,0 0,180 64.6875,0 0,-180 147.6562,0 0,270.9063 -360,0 z"
       id="rect3153-9-2-2-4"
       inkscape:connector-curvature="0" />
    <path
       inkscape:connector-curvature="0"
       style="fill:#0000f8;fill-opacity:1;stroke:#ff0000;stroke-opacity:1"
       d="m 1270.0465,-6264.3905 0,360 360,0 0,-360 -115.2812,0 0,180 -0.8438,0 0,89.1563 -129.4375,0 0,-269.1563 -114.4375,0 z"
       id="rect3196-4-8" />
    <path
       inkscape:connector-curvature="0"
       style="fill:#0000f8;fill-opacity:1;stroke:#ff0000;stroke-opacity:1"
       d="m 1761.8014,-6251.7814 0,360 360,0 0,-360 -115.2812,0 0,180 -0.8438,0 0,89.1563 -129.4375,0 0,-269.1563 -114.4375,0 z"
       id="rect3196-4-82" />
    <path
       inkscape:connector-curvature="0"
       style="fill:#0000f8;fill-opacity:1;stroke:#ff0000;stroke-opacity:1"
       d="m 2291.3836,-6276.9996 0,360 360,0 0,-360 -115.2812,0 0,180 -0.8438,0 0,89.1563 -129.4375,0 0,-269.1563 -114.4375,0 z"
       id="rect3196-4-4" />
    <path
       inkscape:connector-curvature="0"
       style="fill:#0000f8;fill-opacity:1;stroke:#ff0000;stroke-opacity:1"
       d="m 1270.0465,-5823.072 0,360 360,0 0,-360 -115.2812,0 0,180 -0.8438,0 0,89.1563 -129.4375,0 0,-269.1563 -114.4375,0 z"
       id="rect3196-4-5" />
    <path
       inkscape:connector-curvature="0"
       style="fill:#0000f8;fill-opacity:1;stroke:#ff0000;stroke-opacity:1"
       d="m 1774.4105,-5835.6811 0,360 360,0 0,-360 -115.2812,0 0,180 -0.8438,0 0,89.1563 -129.4375,0 0,-269.1563 -114.4375,0 z"
       id="rect3196-4-51" />
    <path
       inkscape:connector-curvature="0"
       style="fill:#0000f8;fill-opacity:1;stroke:#ff0000;stroke-opacity:1"
       d="m 2278.7745,-5835.6811 0,360 360,0 0,-360 -115.2812,0 0,180 -0.8438,0 0,89.1563 -129.4375,0 0,-269.1563 -114.4375,0 z"
       id="rect3196-4-7" />
    <path
       inkscape:connector-curvature="0"
       style="fill:#0000f8;fill-opacity:1;stroke:#ff0000;stroke-opacity:1"
       d="m 1307.8738,-5331.3171 0,360 360,0 0,-360 -115.2812,0 0,180 -0.8438,0 0,89.1563 -129.4375,0 0,-269.1563 -114.4375,0 z"
       id="rect3196-4-1" />
    <path
       inkscape:connector-curvature="0"
       style="fill:#0000f8;fill-opacity:1;stroke:#ff0000;stroke-opacity:1"
       d="m 1812.2378,-5356.5353 0,360 360,0 0,-360 -115.2812,0 0,180 -0.8438,0 0,89.1563 -129.4375,0 0,-269.1563 -114.4375,0 z"
       id="rect3196-4-15" />
    <path
       style="fill:#0000f8;fill-opacity:1;stroke:#ff0000;stroke-opacity:1"
       d="m 2291.3836,-5003.2549 0,-270.9063 147.6563,0 0,180 64.6875,0 0,-180 147.6562,0 0,270.9063 -360,0 z"
       id="rect3153-9-2-2-2"
       inkscape:connector-curvature="0" />
    <path
       style="fill:#0000f8;fill-opacity:1;stroke:#ff0000;stroke-opacity:1"
       d="m 1310.6463,-4637.591 0,-270.9063 147.6563,0 0,180 64.6875,0 0,-180 147.6562,0 0,270.9063 -360,0 z"
       id="rect3153-9-2-2-7"
       inkscape:connector-curvature="0" />
    <path
       style="fill:#0000f8;fill-opacity:1;stroke:#ff0000;stroke-opacity:1"
       d="m 1824.8469,-4624.9819 0,-270.9063 147.6563,0 0,180 64.6875,0 0,-180 147.6562,0 0,270.9063 -360,0 z"
       id="rect3153-9-2-2-6"
       inkscape:connector-curvature="0" />
    <path
       style="fill:#0000f8;fill-opacity:1;stroke:#ff0000;stroke-opacity:1"
       d="m 2278.7745,-4612.3728 0,-270.9063 147.6563,0 0,180 64.6875,0 0,-180 147.6562,0 0,270.9063 -360,0 z"
       id="rect3153-9-2-2-1"
       inkscape:connector-curvature="0" />
  </g>
</svg>
