<svg xmlns="http://www.w3.org/2000/svg" width="200" height="200" viewBox="0 0 200 200"><path d="M84.373,129.531L93.319,126.685L95.493,125.707L100.862,122.861L103.688,121.795L106.402,120.641L110.446,119.084L114.827,116.897L116.654,116.623L116.678,117.593L112.736,118.695L103.798,123.063L93.283,127.71L84.644,130.904L84.453,130.978L76.282,133.37L71.974,133.557L71.331,132.77L75.477,132.729L81.999,130.295ZM56.105,131.151L54.653,131.431L49.966,132.111L44.468,134.752L43.13,135.805L42.336,136.199L41.372,135.941L42.055,135.371L42.104,134.381L41.054,133.504L38.723,134.014L37.495,135.258L37.532,136.919L46.216,136.966L48.8,137.051L48.286,138.01L37.787,138.279L34.02,137.981L33.855,137.929L32.726,137.545L28.991,138.215L21.96,141.435L18.414,142.838L18.384,141.353L25.831,138.543L30.88,136.387L32.029,135.251L32.629,134.364L32.407,133.853L30.176,132.237L28.746,131.412L27.839,131.133L27.564,131.063L24.274,132.027L23.589,132.47L22.412,133.851L22.277,134.876L23.077,136.394L23.549,138.408L22.368,138.977L21.899,138.288L19.48,138.239L19.014,138.894L18.217,139.249L14.34,139.835L13.02,139.693L12.361,138.721L13.158,138.35L13.488,137.59L12.938,136.759L10.85,135.839L10,134.284L10.413,132.111L11.347,131.051L12.253,129.338L12.089,128.226L12.089,128.155L12.089,128.102L12.062,127.979L12.062,127.873L12.254,127.643L12.775,127.025L12.829,126.972L12.857,126.919L13.186,126.513L13.213,126.478L13.542,125.895L14.967,124.959L15.898,124.5L16.309,123.635L16.719,122.752L16.936,120.722L19.149,117.421L20.023,116.59L20.923,115.725L22.703,116.673L24.124,116.405L24.919,117.056L28.001,114.771L31.721,115.303L33.509,117.605L34.1,115.38L32.915,113.34L33.613,110.833L34.923,110.651L35.803,111.774L36.439,113.181L37.044,113.883L37.997,113.296L38.508,112.005L38.2,110.72L35.491,109.625L35.621,108.444L36.542,107.152L37.769,107.092L40.341,108.169L41.118,110.173L42.112,111.753L42.708,110.991L42.079,106.941L43.772,103.459L49.346,101.776L53.049,101.39L53.716,102.758L53.503,103.271L52.421,104.232L51.409,103.854L50.705,104.336L51.89,105.682L53.855,105.804L54.137,104.004L55.311,104.186L55.377,105.313L56.446,105.778L57.067,105.208L56.812,104.312L57.409,103.971L57.318,103.144L55.218,100.348L55.906,98.298L57.876,99.281L60.413,99.588L59.646,101.657L60.363,102.406L61.38,103.187L62.63,102.785L63.99,102.557L65.469,103.173L66.505,103.125L66.785,101.624L66.28,100.433L64.755,100.523L63.065,100.42L62.175,98.863L62.329,98.051L62.809,97.254L63.381,97.264L64.67,98.041L65.148,99.232L67.089,99.789L69.134,99.938L71.7,100.361L74.251,101.522L75.017,101.722L75.81,101.886L76.549,102.121L77.585,102.106L81.353,100.883L82.913,99.625L83.837,97.919L83.398,96.078L84.829,95.402L86.669,94.824L87.874,95.225L87.452,97.504L88.514,97.538L89.27,97.154L89.528,96.41L89.044,95.222L89.719,94.928L92.049,95.852L95.306,95.349L104.292,95.585L110.099,94.803L114.136,95.165L121.136,93.229L126.73,92.816L128.532,92.062L133.779,88.2L139.43,84.514L140.833,82.448L141.499,81.179L144.142,80.657L146.542,78.506L148.468,76.018L149.679,74.924L154.069,72.528L155.2,72.331L156.506,72.497L157.553,73.005L158.047,73.972L157.657,75.216L156.613,76.395L155.317,77.318L154.247,77.759L152.932,75.765L149.775,77.821L144.283,83.396L144.075,84.546L145.361,84.84L146.606,85.556L146.217,86.994L144.416,86.752L142.854,87.206L142.355,87.749L142.279,88.807L142.558,89.907L142.791,91.291L142.468,92.286L141.71,91.518L140.989,90.185L140.037,90.196L139.566,91.689L137.72,91.815L136.459,92.398L135.615,92.388L133.798,94.466L133.857,95.573L130.856,98.248L129.256,98.539L127.904,98.894L127.256,101.096L129.052,100.976L129.877,101.235L130.629,101.813L132.309,100.461L133.923,100.662L135.607,101.388L137.505,101.948L139.193,101.845L141.113,100.43L141.68,99.355L142.157,98.037L142.336,96.798L143.302,96.328L145.031,95.886L146.78,93.506L148.276,90.958L150.295,90.328L151.601,90.338L152.039,89.602L151.025,86.908L151.875,86.334L153.125,86.31L153.615,87.965L153.885,89.522L156.235,89.829L156.756,88.386L157.97,88.115L158.443,86.849L158.572,85.876L159.09,85.172L160.763,85.588L163.108,88.848L163.502,84.698L164.549,83.604L165.505,83.745L168.344,87.758L168.767,88.904L169.55,89.473L171.274,89.021L174.371,87.511L177.414,84.699L178.955,83.829L180.365,84.441L181.763,84.068L181.714,81.501L182.754,81.054L183.768,81.945L184.99,82.598L184.962,81.913L183.896,80.427L186.174,79.699L188.518,80.568L190,80.945L189.421,82.025L187.844,83.922L184.216,84.9L177.809,88.503L171.444,91.356L165.552,94.675L160.686,97.246L152.766,101.589L148.316,103.974L145.475,105.581L142.608,106.446L141.007,106.76L141.991,105.02L142.035,103.82L141.033,103.163L138.9,102.999L137.93,103.398L137.629,104.288L137.854,105.41L138.458,106.449L138.543,107.452L137.614,108.344L134.398,110.484L129.187,112.73L121.035,115.701L119.411,116.378L118.729,116.448L118.253,116.036L118.762,115.6L119.28,115.516L123.152,114.023L125.456,113.256L124.354,112.932L123.041,112.932L121.297,113.136L119.061,112.294L115.959,115.07L112.899,115.197L110.721,114.472L111.918,115.344L111.624,116.797L110.415,117.779L108.773,118.946L106.566,119.402L105.696,117.233L103.936,118.083L102.627,118.305L100.965,119.946L95.502,119.21L94.631,119.439L93.762,121.238L93.38,121.299L92.506,121.439L89.642,122.057L88.336,122.557L87.007,121.734L85.799,121.525L84.875,121.965L84.504,124.284L83.473,124.901L81.655,124.384L78.969,124.321L77.173,123.378L76.035,124.225L74.821,125.496L73.739,126.466L70.208,126.886L65.687,129.276L63.197,129.819L56.242,131.132L56.132,131.151ZM174.307,62.148L174.42,60.897L175.257,60.197L175.538,59.098L176.431,59.133L177.118,60.124L177.546,59.334L177.831,58.34L181.104,57.805L182.238,57.162L183.805,57.185L183.255,58.244L181.742,58.885L179.841,59.295L177.589,61.773L175.585,61.659ZM167.274,76.522L169.116,77.93L170.6,78.42L171.664,78.59L171.659,79.153L171.157,79.524L171.191,80.419L171.525,81.339L171.173,82.091L170.011,83.666L169.956,82.208L169.763,80.702L169.265,79.719L168.09,79.499L166.952,79.559L166.475,79.137L167.535,77.726ZM153.054,80.982L155.107,81.51L154.954,82.588L155.346,83.736L155.06,84.889L155.662,85.819L155.69,86.627L154.785,86.394L153.808,85.636L152.153,84.899L150.255,84.998L148.772,85.328L147.708,84.36L147.579,82.886L148.406,81.611L150.022,80.38L150.083,78.953L151.108,78.779L151.552,79.907ZM56.393,135.195L59.76,134.116L63.343,132.891L65.258,132.32L66.924,131.681L68.455,131.184L70.181,130.949L74.265,130.591L76.023,130.742L75.406,131.705L70.033,132.223L64.294,134.293L56.354,136.75L48.927,139.047L49.572,137.363Z" fill="#fff" stroke="none"></path><path class="highlight" d="M54.291,117.831L54.807,117.601L54.977,119.15L56.206,119.333L56.284,119.403L56.728,119.369L56.758,119.232L57.074,119.133L57.284,118.987L57.399,118.673L57.824,117.944L58.385,117.043L58.467,116.657L58.85,116.469L59.541,116.245L59.952,119.009L60.043,119.565L60.292,120.991L60.64,123.22L60.341,122.964L60.109,123.154L59.865,122.836L59.191,123.332L59.274,123.513L59.134,124.063L59.186,124.224L59.033,124.923L59.145,125.096L59.08,125.574L58.944,125.941L58.878,126.289L58.333,127.261L58.196,127.7L56.505,127.866L56.542,127.305L56.525,126.525L56.486,126.197L55.553,126.27L55.112,126.039L54.777,125.934L54.281,125.977L53.472,126.131L52.815,126.175L52.506,125.435L52.322,124.579L51.316,124.644L51.062,124.893L50.555,125.235L50.143,125.402L49.98,125.404L49.415,125.574L48.664,125.917L48.757,126.319L48.3,126.329L47.916,126.281L47.61,126.35L47.121,126.77L46.572,126.856L46.18,127.052L45.789,127.015L45.716,126.764L45.459,126.718L44.682,126.639L43.944,126.382L43.896,126.65L43.626,127.404L43.405,127.813L43.29,128.14L43.048,128.491L42.868,128.496L42.522,128.371L42.268,128.679L42.135,129.161L41.795,129.495L41.649,129.106L41.512,128.504L41.339,128.006L41.329,127.578L41.065,127.752L41.11,127.444L41.355,127.498L41.395,127.286L41.948,127.162L42.268,127.194L42.348,126.871L43.268,124.983L43.543,124.814L43.007,123.982L42.6,124.02L42.313,124.14L41.864,124.743L41.55,124.671L40.734,124.606L40.049,124.522L39.917,124.421L39.97,123.893L39.746,123.843L39.761,123.005L39.804,122.546L40.022,122.34L39.984,121.971L40.394,121.834L40.354,121.71L41.242,121.489L42.379,121.314L45.195,120.617L45.548,120.571L47.234,120.137L47.526,120.126L48.127,119.927L49.152,119.66L50.003,119.29L50.801,119.069L50.895,119.687L50.972,120.503L53.625,120.544L53.136,119.033L52.939,118.36L53.27,118.228L53.542,118.499L53.725,118.363L53.504,118.141Z" stroke="none" fill="#333"></path></svg>
