<?xml version="1.0" encoding="utf-8"?>
<!-- Generator: Adobe Illustrator 18.1.1, SVG Export Plug-In . SVG Version: 6.00 Build 0)  -->
<svg version="1.1" id="Layer_1" xmlns="http://www.w3.org/2000/svg" xmlns:xlink="http://www.w3.org/1999/xlink" x="0px" y="0px"
	 viewBox="0 0 504 504" style="enable-background:new 0 0 504 504;" xml:space="preserve">
<g>
	<polygon style="fill:#1D1D1B;" points="175.205,401.653 89.61,450.208 89.61,504 260.33,504 	"/>
	<polygon style="fill:#1D1D1B;" points="316.767,401.653 402.363,450.208 402.363,504 231.643,504 	"/>
</g>
<linearGradient id="SVGID_1_" gradientUnits="userSpaceOnUse" x1="245.9868" y1="464.373" x2="245.9868" y2="340.5391">
	<stop  offset="0" style="stop-color:#EEBDAE"/>
	<stop  offset="0.2736" style="stop-color:#E1AFA1"/>
	<stop  offset="0.6325" style="stop-color:#D6A397"/>
	<stop  offset="1" style="stop-color:#D29F93"/>
</linearGradient>
<polygon style="fill:url(#SVGID_1_);" points="309.847,464.373 182.126,464.373 166.8,340.539 325.174,340.539 "/>
<path style="fill:#EEBDAE;" d="M262.546,70.638v-3.36c-5.781,0-11.293,0.274-16.56,0.787c-5.266-0.514-10.777-0.787-16.557-0.787
	v3.36c-104.158,22.714-92.675,152.98-92.675,152.98l34.466,150.801l40.491,34.643h17.718h33.117h17.718l40.488-34.643
	l34.468-150.801C355.22,223.618,366.703,93.352,262.546,70.638z"/>
<path style="fill:#EEBDAE;" d="M262.954,72.221l0.009-3.499c-5.928,0-11.578,0.285-16.977,0.82
	c-5.398-0.535-11.048-0.82-16.975-0.82l0.008,3.499c-106.354,23.573-92.69,156.018-92.69,156.018l36.075,147.707l40.001,33.115
	h17.359h32.445h17.358l39.999-33.115l36.078-147.707C355.645,228.24,369.309,95.794,262.954,72.221z"/>
<path style="fill:#EEBDAE;" d="M146.448,314.842c-10.717,2.647-25.111-18.152-32.516-47.731c-7.786-31.1-4.977-60.072,6.698-63.248
	c11.734-3.19,27.069,21.103,33.871,52.752C160.967,286.703,157.215,312.188,146.448,314.842z M345.524,314.842
	c10.717,2.647,25.113-18.152,32.517-47.731c7.786-31.1,4.978-60.072-6.697-63.248c-11.735-3.19-27.07,21.103-33.871,52.752
	C331.006,286.703,334.758,312.188,345.524,314.842z"/>
<path style="opacity:0.44;fill:#634E42;" d="M337.123,216.014l-18.377-28.724l-54.486,12.946l-1.237,4.741l-2.722-9.217
	c0,0-6.434,26.115,18.832,17.404c25.266-8.71,24.51-22.591,40.366-11.994C335.357,211.769,337.123,216.014,337.123,216.014z"/>
<path style="opacity:0.44;fill:#634E42;" d="M154.85,216.014l18.379-28.723l54.486,12.946l1.236,4.741l2.722-9.217
	c0,0,6.434,26.115-18.832,17.404c-25.266-8.71-24.51-22.591-40.367-11.994C156.616,211.769,154.85,216.014,154.85,216.014z"/>
<g>
	<path style="opacity:0.69;fill:#DA9E94;" d="M215.83,217.321c0,0-21.539,67.148-47.386,18.313
		C168.444,235.634,190.844,272.26,215.83,217.321z"/>
	<path style="opacity:0.69;fill:#DA9E94;" d="M276.143,217.321c0,0,21.539,67.148,47.387,18.313
		C323.529,235.634,301.128,272.26,276.143,217.321z"/>
</g>
<path style="fill:#E4ADA2;" d="M245.986,362.23c11.998,0,22.461,7.073,28.029,17.568c-3.657-14.302-14.821-24.711-28.029-24.711
	s-24.371,10.409-28.028,24.71C223.525,369.304,233.988,362.23,245.986,362.23z"/>
<g>
	<path style="fill:#E4ADA2;" d="M213.975,263.014l-21.971,44.111C192.003,307.125,219.348,294.288,213.975,263.014z"/>
	<path style="fill:#E4ADA2;" d="M278,263.014l21.97,44.111C299.97,307.125,272.626,294.288,278,263.014z"/>
</g>
<path style="fill:#E4ADA2;" d="M225.654,335.692c2.887,11.299,10.895,19.428,20.331,19.428c9.437,0,17.445-8.129,20.333-19.428
	H225.654z"/>
<ellipse style="fill:#E4ADA2;" cx="245.987" cy="391.119" rx="4.831" ry="11.336"/>
<path style="fill:#425560;" d="M201.946,226.755c-2.556,3.456-13.885,12.554-22.329,4.23l-13.683,3.041
	c0,0,21.308-15.061,55.833-12.415L201.946,226.755z M290.026,226.018c2.556,3.455,13.887,12.554,22.33,4.229l13.683,3.043
	c0,0-21.308-15.061-55.833-12.416L290.026,226.018z"/>
<g style="opacity:0.29;">
	<linearGradient id="SVGID_2_" gradientUnits="userSpaceOnUse" x1="324.1548" y1="239.5591" x2="324.1548" y2="383.041">
		<stop  offset="0" style="stop-color:#D29F93"/>
		<stop  offset="1" style="stop-color:#EEBDAE"/>
	</linearGradient>
	<path style="fill:url(#SVGID_2_);" d="M349.435,239.559c-22.332,12.052-72.202,50.543-40.071,143.482l9.873-8.622L349.435,239.559z
		"/>
	<linearGradient id="SVGID_3_" gradientUnits="userSpaceOnUse" x1="167.8179" y1="239.5591" x2="167.8179" y2="383.041">
		<stop  offset="0" style="stop-color:#D29F93"/>
		<stop  offset="1" style="stop-color:#EEBDAE"/>
	</linearGradient>
	<path style="fill:url(#SVGID_3_);" d="M142.538,239.559l30.198,134.86l9.874,8.622
		C214.738,290.103,164.869,251.612,142.538,239.559z"/>
</g>
<path style="fill:#7C5442;" d="M337.026,116.149c1.293-9.029,2.477-31.141-13.562-44.82l15.029,11.882
	c-6.492-50.248-149.518-70.75-153.473-8.506l-0.289-36.366c0,0-17.316,15.098-12.339,30.035l-14.166-21.447
	c0,0-14.702,26.713,15.401,36.284l-30.104-9.571c0,0-1.447,23.354,24.901,18.059c0,0-19.18,10.212-13.51,24.504
	c-26.551,45.456-18.838,112.036-18.838,112.036l14.816,76.428l20.539-0.869l-1.216-3.027
	c-32.853-42.12-41.521-115.777-11.785-125.905l6.116-59.176c32.739-14.709,94.321-20.22,163.279,1.253l5.74,57.93
	c29.709,10.155,21.038,83.786-11.807,125.898l-1.214,3.027l20.536,0.869l14.816-76.427
	C355.896,228.24,363.617,161.606,337.026,116.149z"/>
<g>
	<polygon style="fill:#FFFFFF;" points="245.986,447.799 173.882,401.754 173.882,405.838 173.882,504 318.092,504 318.092,401.754 
			"/>
	<polygon style="fill:#1D1D1B;" points="263.116,461.916 245.987,449.291 228.856,461.916 238.933,477.347 232.887,504 245.987,504 
		259.087,504 253.04,477.347 	"/>
</g>
<g>
	<linearGradient id="SVGID_4_" gradientUnits="userSpaceOnUse" x1="245.9863" y1="297.7744" x2="245.9863" y2="189.6216">
		<stop  offset="0" style="stop-color:#D29F93"/>
		<stop  offset="1" style="stop-color:#EEBDAE"/>
	</linearGradient>
	<path style="fill:url(#SVGID_4_);" d="M277.705,275.425c-1.113-2.447-15.254-28.085-23.252,0.27l1.978-86.073h-10.444h-10.444
		l1.977,86.073c-7.998-28.354-22.138-2.72-23.253-0.27l25.451,22.35h1.294h9.948h1.294L277.705,275.425z"/>
	<path style="fill:#634E42;" d="M234.779,289.841c-0.883,0.96-4.8-0.879-8.751-4.108c-3.95-3.229-6.436-6.624-5.552-7.585
		c0.882-0.96,4.799,0.88,8.749,4.108C233.175,285.487,235.661,288.88,234.779,289.841z M257.193,289.841
		c0.883,0.96,4.801-0.879,8.751-4.108c3.949-3.229,6.436-6.624,5.553-7.585c-0.883-0.96-4.8,0.88-8.75,4.108
		C258.798,285.487,256.311,288.88,257.193,289.841z"/>
	<polygon style="opacity:0.36;fill:#D29F93;" points="226.059,285.779 239.719,297.774 241.013,297.774 250.961,297.774 
		252.255,297.774 265.914,285.779 	"/>
	<ellipse style="opacity:0.2;fill:#FFFFFF;" cx="245.987" cy="281.149" rx="6.031" ry="8.722"/>
</g>
<g>
	<path style="opacity:0.69;fill:#DA9E94;" d="M239.02,179.207v31.394C239.02,210.601,229.386,195.793,239.02,179.207z"/>
	<path style="opacity:0.69;fill:#DA9E94;" d="M252.953,179.207v31.394C252.953,210.601,262.588,195.793,252.953,179.207z"/>
</g>
<path style="fill:#BC796C;" d="M216.358,317.449l2.891,3.44c0,0,15.578-8.17,25.925,4.3c0,0,10.347-7.74,27.19-7.31l-1.083-3.44
	c0,0,4.336,2.149,4.336,4.729l-31.854,8.601l-9.338-4.729l-16.982-0.431L216.358,317.449z"/>
<g>
	
		<radialGradient id="SVGID_5_" cx="180.9909" cy="268.2651" r="38.5583" gradientTransform="matrix(0.988 0 0 1 3.2066 0)" gradientUnits="userSpaceOnUse">
		<stop  offset="0" style="stop-color:#E5332A"/>
		<stop  offset="0.1574" style="stop-color:#E84D46"/>
		<stop  offset="0.4974" style="stop-color:#F1918D"/>
		<stop  offset="0.9912" style="stop-color:#FFFDFD; stop-opacity:0.01"/>
		<stop  offset="1" style="stop-color:#FFFFFF; stop-opacity:0.0"/>
	</radialGradient>
	<ellipse style="opacity:0.17;fill:url(#SVGID_5_);" cx="182.026" cy="268.265" rx="38.095" ry="38.558"/>
	
		<radialGradient id="SVGID_6_" cx="310.4662" cy="268.2651" r="38.5582" gradientTransform="matrix(0.988 0 0 1 3.2066 0)" gradientUnits="userSpaceOnUse">
		<stop  offset="0" style="stop-color:#E5332A"/>
		<stop  offset="0.1574" style="stop-color:#E84D46"/>
		<stop  offset="0.4974" style="stop-color:#F1918D"/>
		<stop  offset="0.9912" style="stop-color:#FFFDFD; stop-opacity:0.01"/>
		<stop  offset="1" style="stop-color:#FFFFFF; stop-opacity:0.0"/>
	</radialGradient>
	<ellipse style="opacity:0.17;fill:url(#SVGID_6_);" cx="309.947" cy="268.265" rx="38.095" ry="38.558"/>
</g>
</svg>
