<?xml version="1.0" encoding="UTF-8" standalone="no"?>
<!-- Created with Inkscape (http://www.inkscape.org/) -->

<svg
   xmlns:dc="http://purl.org/dc/elements/1.1/"
   xmlns:cc="http://creativecommons.org/ns#"
   xmlns:rdf="http://www.w3.org/1999/02/22-rdf-syntax-ns#"
   xmlns:svg="http://www.w3.org/2000/svg"
   xmlns="http://www.w3.org/2000/svg"
   xmlns:xlink="http://www.w3.org/1999/xlink"
   xmlns:inkscape="http://www.inkscape.org/namespaces/inkscape"
   version="1.1"
   width="660"
   height="400"
   id="svg2"
   style="display:inline">
  <defs
     id="defs4">
    <linearGradient
       id="linearGradient3627">
      <stop
         id="stop3629"
         style="stop-color:#83a0ff;stop-opacity:1"
         offset="0" />
      <stop
         id="stop3631"
         style="stop-color:#cdd6f3;stop-opacity:1"
         offset="1" />
    </linearGradient>
    <linearGradient
       x1="289.28571"
       y1="705.2193"
       x2="290.71426"
       y2="560.93359"
       id="linearGradient5587"
       xlink:href="#linearGradient3627"
       gradientUnits="userSpaceOnUse"
       gradientTransform="matrix(1,0,0,1.0237318,4,-29.44827)" />
  </defs>
  <metadata
     id="metadata7">
    <rdf:RDF>
      <cc:Work
         rdf:about="">
        <dc:format>image/svg+xml</dc:format>
        <dc:type
           rdf:resource="http://purl.org/dc/dcmitype/StillImage" />
        <dc:title />
      </cc:Work>
    </rdf:RDF>
  </metadata>
  <g
     transform="translate(-30.142857,-312.529)"
     id="layer2"
     style="display:inline">
    <path
       d="m 615.25,546.84478 -579.107143,0.29249 0,121.97033 c 0,12.23715 13.403669,25.95892 25.357143,25.95892 l 525.35714,0 c 13.38453,0 28.39286,-15.3645 28.39286,-29.06667 l 0,-119.15507 z"
       inkscape:connector-curvature="0"
       id="path2831-1"
       style="opacity:0.62999998;fill:url(#linearGradient5587);fill-opacity:1;stroke:none" />
    <path
       d="m 111.85714,631.21933 298.57143,-82.14286 5,17.14285 -300,80.00001 -3.57143,-15 z"
       inkscape:connector-curvature="0"
       id="path3637"
       style="fill:#ffd769;fill-opacity:1;stroke:#000000;stroke-width:1px;stroke-linecap:butt;stroke-linejoin:miter;stroke-opacity:1" />
    <path
       d="m 657.57143,429.79075 -472.14286,265 -7.85714,-15.71428 472.14286,-264.28572 7.85714,15 z"
       inkscape:connector-curvature="0"
       id="path3635"
       style="fill:#e0ac00;fill-opacity:1;stroke:#000000;stroke-width:1px;stroke-linecap:butt;stroke-linejoin:miter;stroke-opacity:1" />
    <path
       d="M 179,679.79075 262.15301,548.06632 378.58158,488.72983"
       inkscape:connector-curvature="0"
       id="path3639"
       style="fill:none;stroke:#ff0101;stroke-width:4;stroke-linecap:butt;stroke-linejoin:miter;stroke-miterlimit:4;stroke-opacity:1;stroke-dasharray:none;marker-mid:none;marker-end:none" />
    <path
       d="M 179,679.79075 236.50001,549.07647 369.71429,464.07646"
       inkscape:connector-curvature="0"
       id="path3639-7"
       style="fill:none;stroke:#ff0101;stroke-width:4;stroke-linecap:butt;stroke-linejoin:miter;stroke-miterlimit:4;stroke-opacity:1;stroke-dasharray:none;marker-mid:none;marker-end:none" />
    <g
       transform="matrix(0.99092297,-0.1344309,0.1344309,0.99092297,-3.1898914,53.098721)"
       id="g3703">
      <g
         id="g3699">
        <path
           d="m 470.14286,466.6479 c -1.42857,-17.14286 -3.57143,-60 82.14285,-95.71429 -86.42857,35.71429 -118.57142,-26.42857 -118.57142,-26.42857"
           inkscape:connector-curvature="0"
           id="path3667"
           style="fill:none;stroke:#000000;stroke-width:2;stroke-linecap:butt;stroke-linejoin:miter;stroke-miterlimit:4;stroke-opacity:1;stroke-dasharray:none" />
        <path
           d="m 458.71429,372.36218 c -12.67857,20.71429 -5.24771,50.95457 13.72678,67.20368"
           inkscape:connector-curvature="0"
           id="path3669"
           style="fill:none;stroke:#000000;stroke-width:2;stroke-linecap:butt;stroke-linejoin:miter;stroke-miterlimit:4;stroke-opacity:1;stroke-dasharray:none" />
      </g>
      <g
         transform="matrix(0.96953922,-0.22318028,0.24406675,0.91496959,-57.169087,130.91365)"
         id="g3695"
         style="stroke:none">
        <path
           d="m 442.67856,406.46933 a 8.3928576,25.892857 0 1 1 -16.78571,0 8.3928576,25.892857 0 1 1 16.78571,0 z"
           transform="matrix(0.81914894,0,0,0.90344827,77.023171,41.745316)"
           id="path3671"
           style="fill:#7f9eff;fill-opacity:1;fill-rule:evenodd;stroke:none" />
        <path
           d="m 442.67856,406.46933 a 8.3928576,25.892857 0 1 1 -16.78571,0 8.3928576,25.892857 0 1 1 16.78571,0 z"
           transform="matrix(0.45137232,0,0,0.51724136,236.74331,198.72658)"
           id="path3671-4"
           style="fill:#000000;fill-opacity:1;fill-rule:evenodd;stroke:none" />
      </g>
    </g>
    <path
       d="m 361.73945,455.28709 12.55961,19.75186 12.30655,-21.21618 -24.86616,1.46432 z"
       inkscape:connector-curvature="0"
       id="path5459-0"
       style="fill:#ff0101;fill-opacity:1;stroke:none" />
    <path
       d="m 371.19315,478.40826 11.12637,20.59329 13.78102,-20.28943 -24.90739,-0.30386 z"
       inkscape:connector-curvature="0"
       id="path5459-0-9"
       style="fill:#ff0101;fill-opacity:1;stroke:none" />
    <path
       d="m 239.78261,560.36887 20.81346,10.70887 -0.0883,-24.52692 -20.72515,13.81805 z"
       inkscape:connector-curvature="0"
       id="path5459-0-9-4"
       style="fill:#ff0101;fill-opacity:1;stroke:none" />
    <path
       d="m 218.23586,563.28617 21.60503,9.00573 -2.05442,-24.44089 -19.5506,15.43516 z"
       inkscape:connector-curvature="0"
       id="path5459-0-9-4-8"
       style="fill:#ff0101;fill-opacity:1;stroke:none" />
    <path
       d="m 151.14286,676.93361 12.5,-15.71429 -6.25,7.85714 6.07142,7.76787 -12.14285,-15.62501"
       inkscape:connector-curvature="0"
       id="path5551"
       style="fill:none;stroke:#000000;stroke-width:3;stroke-linecap:round;stroke-linejoin:round;stroke-miterlimit:4;stroke-opacity:1;stroke-dasharray:none" />
    <path
       d="m 101.23214,596.13004 -6.249997,7.85714 -9e-6,7.76787 0.07265,-7.69565 -6.144073,-7.92936"
       inkscape:connector-curvature="0"
       id="path5551-8"
       style="fill:none;stroke:#000000;stroke-width:3;stroke-linecap:round;stroke-linejoin:round;stroke-miterlimit:4;stroke-opacity:1;stroke-dasharray:none" />
    <path
       d="m 36.142857,454.41642 0,216.15366 c 0,12.23715 13.403669,25.95893 25.357143,25.95893 l 525.35714,0 c 13.38453,0 28.39286,-15.36451 28.39286,-29.06668 l 0,-213.3384"
       inkscape:connector-curvature="0"
       id="path2831"
       style="fill:none;stroke:#000000;stroke-width:4;stroke-linecap:round;stroke-linejoin:round;stroke-miterlimit:4;stroke-opacity:1;stroke-dasharray:none" />
    <path
       d="m 36.324881,548.40587 578.817409,-1e-5"
       inkscape:connector-curvature="0"
       id="path5575"
       style="fill:none;stroke:#000000;stroke-width:2;stroke-linecap:butt;stroke-linejoin:miter;stroke-miterlimit:4;stroke-opacity:1;stroke-dasharray:1.99999997, 1.99999997;stroke-dashoffset:0" />
    <path
       d="M 260.42857,549.79075 111.14286,631.21933"
       inkscape:connector-curvature="0"
       id="path3665"
       style="fill:none;stroke:#000000;stroke-width:3;stroke-linecap:butt;stroke-linejoin:miter;stroke-miterlimit:4;stroke-opacity:1;stroke-dasharray:9, 9;stroke-dashoffset:0" />
    <path
       d="M 111.14286,630.50504 235.42857,549.79075"
       inkscape:connector-curvature="0"
       id="path3663"
       style="fill:none;stroke:#000000;stroke-width:3;stroke-linecap:butt;stroke-linejoin:miter;stroke-miterlimit:4;stroke-opacity:1;stroke-dasharray:9, 9;stroke-dashoffset:0" />
    <path
       d="m 649.35714,414.79075 8.57143,15.35715 22.14286,-19.28572 -2.14286,-3.92857 -28.57143,7.85714 z"
       inkscape:connector-curvature="0"
       id="path5589"
       style="fill:#d2c495;fill-opacity:1;stroke:#000000;stroke-width:1px;stroke-linecap:butt;stroke-linejoin:miter;stroke-opacity:1" />
    <path
       d="m 677.92857,406.93361 c 0.44643,0 7.76786,-1.875 7.76786,-1.875 l -5.625,5.53571 -2.14286,-3.66071 z"
       inkscape:connector-curvature="0"
       id="path5591"
       style="fill:#000000;fill-opacity:1;stroke:#000000;stroke-width:1px;stroke-linecap:round;stroke-linejoin:round;stroke-opacity:1" />
  </g>
</svg>
