<?xml version="1.0" encoding="utf-8"?>
<!-- Generator: Adobe Illustrator 16.0.0, SVG Export Plug-In . SVG Version: 6.00 Build 0)  -->
<!DOCTYPE svg PUBLIC "-//W3C//DTD SVG 1.1//EN" "http://www.w3.org/Graphics/SVG/1.1/DTD/svg11.dtd">
<svg version="1.1"
	 id="svg2" xmlns:rdf="http://www.w3.org/1999/02/22-rdf-syntax-ns#" xmlns:dc="http://purl.org/dc/elements/1.1/" xmlns:svg="http://www.w3.org/2000/svg" xmlns:cc="http://creativecommons.org/ns#"
	 xmlns="http://www.w3.org/2000/svg" xmlns:xlink="http://www.w3.org/1999/xlink" x="0px" y="0px" width="4747.7px"
	 height="4747.7px" viewBox="0 -1462.5 4747.7 4747.7" enable-background="new 0 -1462.5 4747.7 4747.7" xml:space="preserve">
<path fill="#0D0D0D" d="M1876.5,1c-304.8,0-552,247.1-552,552c0,304.8,247.1,552,552,552s552-247.1,552-552
	C2428.4,248.1,2181.3,1,1876.5,1z M1876.5,1085.9c-294.4,0-533-238.6-533-533s238.6-533,533-533s533,238.6,533,533
	S2170.8,1085.9,1876.5,1085.9z"/>
<path fill="#0D0D0D" d="M3772.9,1397h-262.2l-2.5,2.5c-2.9,3-3.1,5.5-0.5,8.7l2.9,3.4h123.7v301.7l3.4,2.9c1.3,1.1,3.2,1.9,4.1,1.9
	c1,0,2.8-0.9,4.1-1.9l3.4-2.9v-301.7H3773l2.9-3.4c2.6-3.2,2.4-5.7-0.5-8.7L3772.9,1397z"/>
<path fill="#0D0D0D" d="M549.8,1404.5c-0.5,2.3-0.9,62.4-0.9,144.2c0,77.1-0.4,140.3-0.8,140.3c-0.8,0-13.2-15.5-147.7-184.5
	c-43.3-54.4-79.9-100-81.2-101.3c-3.1-2.8-7-2.9-10-0.1l-2.3,2.2v310.7l2.5,2.5c3,3,6.8,3.2,9.5,0.5c2-2,2-3.3,2-143.8
	c0-128.1,0.3-146.5,2.3-144.2c0.2,0.3,50.9,63.9,112.7,141.5c61.7,77.6,113.5,142.3,115.1,143.9c3.6,3.7,8.4,4,11.1,0.6
	c1.8-2.2,1.8-8.2,1.8-158.2v-155.9l-2.5-2.5C556.8,1395.9,551.3,1397.8,549.8,1404.5z"/>
<path fill="#0D0D0D" d="M970.4,1565.5c-12.6-8.9-23.9-13.5-63.1-25.6c-40.8-12.6-56-19.7-68.5-32c-4.8-4.7-7.8-8.8-10.6-14.4
	c-3.6-7.3-3.9-8.6-4.3-18.1c-0.5-13,1.5-22.5,7.1-33.6c10.6-21.2,31.8-33.3,62.3-35.6c32.5-2.4,59.3,5.5,79.6,23.5
	c2.9,2.5,5.9,4.4,7.3,4.4c3.8,0,6.9-3.2,6.9-7c0-2.9-1-4.3-7-9.9c-8.9-8.3-19.6-14.4-33.7-19.2c-35.8-12.1-78.8-8-105,10
	c-20.7,14.3-34.1,42.8-32.3,69.1c1.1,16.7,6.7,28.2,20.1,41.5c14.9,14.8,29.2,21.5,77.3,36.4c29,9,34.8,11.2,47.8,17.9
	c20.1,10.4,29.4,25.8,29.7,49.2c0.1,11.9-2.4,21.7-9.1,35.5c-7.5,15.4-14.4,21.8-36,33.3c-12.7,6.7-19.5,8.6-36.5,10.1
	c-35,3-70-8.6-91.4-30.3c-5.4-5.4-7-6.6-9.8-6.6c-3.9,0-7.3,3-7.3,6.4c0,3.4,5.4,10,13.9,17.2c16.7,14,40.5,24,64.6,27.3h0
	c10.9,1.5,37.4,0.4,48.9-1.9c15-3,36.8-14.4,49.7-25.9c12.5-11.1,21.9-29,26.9-51c1.5-6.7,0.7-26.3-1.5-34.1
	C992.5,1587.8,983,1574.5,970.4,1565.5z"/>
<path fill="#0D0D0D" d="M4745,1086l-3-3h-333.5c-279.3,0-333.6-0.2-334.6-1.4c-0.8-1-1.1-70-0.9-261.3l0.3-259.9l564.7-1l2.5-2.9
	c2.1-2.4,2.4-3.6,2-6.9c-0.3-2.2-1.5-4.9-2.6-6.1l-2.1-2.1l-564.4-1l-0.3-249.9c-0.2-183.9,0-250.3,0.9-251.3
	c0.9-1.1,54.9-1.4,332.1-1.4h331l2.9-2.9c4-4,4-9.1,0-13.2L4737,19l-339,0.3l-339,0.3l-2.3,2.3l-2.3,2.3l-0.2,535.2
	c-0.2,428,0,535.7,1,537.7c0.7,1.4,2.4,3,3.7,3.7h0c2,1,71.2,1.2,343.2,1l340.7-0.2l2.1-2.1c1.2-1.2,2.4-3.9,2.7-6.2
	C4748,1089.6,4747.7,1088.7,4745,1086z"/>
<path fill="#0D0D0D" d="M27.8,1398c-1.2,0-3.2,1.1-4.5,2.5l-2.5,2.5v309.2l2.5,2.5c3.2,3.2,6.9,3.2,9.5-0.2l2.1-2.6v-308.8l-2.5-2.5
	C31,1399.1,29,1398,27.8,1398z"/>
<path fill="#0D0D0D" d="M2922.6,1105.7c3.6,0.5,4.5,0.2,7-2.4l2.9-2.9l1.6-52.5c0,0-0.1-141.3,0.3-250s0.9-202.2,1.3-208l0.6-10.5
	l210.5,2.1c0.8,0.7,6.1,3.4,11.8,5.9c22,9.8,39.2,21.2,52.6,34.9c21.9,22.5,176,191.8,383.9,421.8c30.7,33.9,56.3,61.9,57,62.2
	c9.4,3.7,13.7-2.2,13.7-8.7c0-2.5-1-4.7-3.6-7.8c-9.4-11.3-302.6-334.7-382.4-421.9c-60.3-65.9-65.3-70.8-83.3-82.3
	c-4.3-2.7-7.8-5.3-7.8-5.8c0-0.5,1.7-0.9,3.8-0.9c2.1,0,11.2-0.5,20.3-1c115.9-7,211.4-44.6,275.5-108.5
	c39.9-39.7,64.5-86.5,73.5-139.6c2-11.5,2.3-17.2,2.3-39.4c0.1-27.7-1-41.4-5-63c-22.2-120.7-113.7-189.3-273.5-205
	c-32.3-3.2-52.4-3.5-205.7-3.5l-155.2,0l-2.8,2.4l-2.8,2.4l-0.6,24.3c-0.3,13.4-0.7,57.4-0.8,97.8s-0.6,157-1.1,259
	c-1.5,304.9-2.5,550.1-2.5,625.2c0,70.5,0,70.7,2.1,72.8C2917.6,1104.2,2920.4,1105.4,2922.6,1105.7z M2938.3,39
	c0.7-1.1,307.1-0.2,324.5,1c100.3,6.9,172.2,32.4,218.8,77.4c17.2,16.6,28.2,31.7,39.2,53.8c14,28.3,21.4,58.6,24.1,99.4
	c4.1,61.2-12.3,115.2-49.3,162.1c-8.5,10.8-28.4,30.9-40.3,40.7c-62.7,51.7-147.8,80.5-252.5,85.5c-11.3,0.5-75.8,1-143.3,1
	c-113.2,0-123.4-1.6-123.4-1.6S2937.6,40.2,2938.3,39z"/>
<path fill="#0D0D0D" d="M1948,4.6l12.7,1.8C1956.5,5.7,1952.2,5.1,1948,4.6z"/>
<path fill="#0D0D0D" d="M954.8,963.6c0-5-4.4-9.6-9.2-9.6c-3.8,0-5.9,1.4-17.9,11.6c-19,16.1-48.5,36.4-72.4,50
	c-66.4,37.6-145.4,63.5-225.5,73.9c-40.8,5.3-94.8,6.6-132.5,3.2c-73.5-6.6-137.6-23.7-197-52.5c-23.3-11.3-35.8-18.5-58.5-33.6
	C115.1,922.1,38.8,781,22.4,601c-3.9-42.9-3.9-68.1,0-106.5c11.1-108.8,47.4-201.8,109.2-279.2c22.6-28.3,58.6-62.7,88.9-85.1
	C297.4,73.6,392,38.3,495.8,27.6c149.2-15.5,306.7,25.4,424.1,110c11.2,8.1,13.8,9.1,17.9,7.4c4-1.6,5.9-4.6,5.9-8.9
	c0-4.7-1.7-6.6-14-15.2C839.7,57.2,732.4,18.3,617.3,7.5c-36.9-3.5-90-3-127.4,1.1c-149,16.2-278.4,82-366.5,186.4
	C47.3,285.2,4.9,402.2,0.2,535c-0.7,19.1,0.4,44,3.2,72C14.7,721.7,49.5,821.2,106,900.7c28.7,40.4,64.7,77.5,103.3,106.5
	c82.9,62.2,184.6,98.3,298,105.7h0c17.8,1.2,58.7,1.2,77.5,0.1c134-8.1,257.9-53.7,351.5-129.4C952.4,970.6,954.8,968,954.8,963.6z"
	/>
<path fill="#0D0D0D" d="M4106.6,1703c-51.3,0-95.5-0.8-95.5-0.8l0.3-141.2l156.6,0l2.5-2.5c3-3,3.1-5.5,0.5-8.7l-1.9-2.4h-157.7
	l-0.3-135.7c0,0,43.9,0.2,94.9,0.2c91.5,0,92.6,0,94.4-2c2.6-2.9,2.4-7.9-0.5-10.1c-2.2-1.8-6.5-1.8-100.7-1.8h-98.4l-4.9,4.9v309.2
	l4.9,4.9h198.2l2.5-2.5c3-3,3.2-6.8,0.5-9.5C4199.8,1703,4198.5,1703,4106.6,1703z"/>
<path fill="#0D0D0D" d="M1347.3,1396.1c-5.4-0.7-28.5-1.1-57.7-1.1h-48.7l-0.5,2.3c-0.3,1.2-0.8,72.1-1.1,157.5l-0.6,155.2l2.5,2.5
	v0c2.8,2.8,6.2,3.2,9.1,1c3-2.3,3.4-9.7,3.5-71.3c0.1-31,0.3-56.8,0.6-57.3c0.3-0.5,13.7-0.9,29.7-0.9c34.7,0,54-1.1,66.2-3.8
	c41.5-9.1,71.9-34.9,81.2-69.2c2.7-9.8,2.4-33.5-0.5-45.3C1420.9,1425,1392.8,1401.7,1347.3,1396.1z M1398.3,1539.6
	c-13.1,13.2-29.6,21.6-52,26.7l0,0c-8,1.8-13.5,2.1-50,2.5c-22.5,0.2-41.3,0.1-41.8-0.3c-0.9-0.9-1-38.7-0.1-106.7l0.7-51.8h43.6
	c34.3,0,45.6,0.3,53,1.5c41,6.7,63.5,30.6,66.9,71.6C1420.6,1505.8,1414.2,1523.6,1398.3,1539.6z"/>
<path fill="#0D0D0D" d="M2934.9,1397h-262.2l-2.5,2.5c-2.9,3-3.1,5.5-0.5,8.7l2.9,3.4h123.7v301.7l3.4,2.9c1.3,1.1,3.2,1.9,4.1,1.9
	c1,0,2.8-0.9,4.1-1.9l3.4-2.9v-301.7H2935l2.9-3.4c2.6-3.2,2.4-5.7-0.5-8.7L2934.9,1397z"/>
<path fill="#0D0D0D" d="M3225.8,1394c-1.5,0-3.6,1-4.7,2.3c-1.1,1.2-20.6,43.2-43.3,93.3s-54.2,119.7-70.1,154.7
	c-15.9,35.1-28.9,64.7-28.9,65.8c0,1.1,1.1,3.2,2.5,4.5c2.7,2.7,6.1,3.1,8.9,1c1-0.8,12.7-25.4,26-54.7l24.2-53.3h170.9l9.1,20
	c5,11,15.8,34.8,24,53c8.2,18.1,15.7,33.8,16.7,34.8c1,1,2.9,1.8,4.3,1.8c3,0,7.5-4.1,7.5-6.9c0-2.9-139.7-311.1-142.3-313.8
	C3229.4,1395,3227.3,1394,3225.8,1394z M3303.3,1592.1L3303.3,1592.1l-154.9,0c0,0,76-170.5,77.5-170.5
	C3227.3,1421.5,3304.1,1590.7,3303.3,1592.1z"/>
<path fill="#0D0D0D" d="M2436.8,1398c-1.9,0-3.6,0.9-4.9,2.6l-2.1,2.6v308.8l2.5,2.5c1.3,1.3,3.4,2.5,4.5,2.5c1.1,0,3.2-1.1,4.5-2.5
	l2.5-2.5v-308.8l-2.1-2.6C2440.4,1398.9,2438.7,1398,2436.8,1398z"/>
<path fill="#0D0D0D" d="M1684.8,1398c-1.2,0-3.2,1.1-4.5,2.5l-2.5,2.5v309.2l2.5,2.5c1.3,1.3,3.4,2.5,4.5,2.5c1.1,0,3.2-1.1,4.5-2.5
	l2.5-2.5v-309.2l-2.5-2.5C1688,1399.1,1686,1398,1684.8,1398z"/>
<path fill="#0D0D0D" d="M4680.3,1441.4c-20.2-20.5-44.5-33.5-75.7-40.6c-8.9-2-12.1-2.1-85-2.5l-75.7-0.4l-5,5v309.2l5,5l72.7-0.3
	c71.1-0.3,73-0.4,83.5-2.6c78.4-16.5,121.7-73.7,121.7-160.8c0-30.2-5.2-54.8-16.5-77.5C4698.6,1462.2,4692.2,1453.3,4680.3,1441.4z
	 M4705.8,1579.5c-8.4,67.8-46.8,108.9-113.5,121.2c-9.6,2.8-139.8,1.8-139.8,1.8l1-290c0,0,132.9-1.5,143.8,1.8
	c60.8,12,99.2,51.3,108,110.4C4707.2,1537.4,4707.5,1566.1,4705.8,1579.5z"/>
<path fill="#0D0D0D" d="M2015.3,1564.2c24.3,0.3,27,0.4,29.2,2.5c3.1,1.9,12.7,9.1,15.1,11c4.9,4,28.2,29.5,82.9,90.5
	c20.8,23.3,39.1,43.5,40.7,45c3.5,3.4,7,3.5,10.2,0.3c3.4-3.4,3.1-6.8-0.9-11.3c-43.1-48.7-111.1-123.8-119-131.5
	c-3.3-3.2-5.5-6.1-5-6.6c0.5-0.4,4.7-1.4,9.3-2c26-3.8,49.1-14.8,65.1-31.1c12.1-12.2,18.3-23.6,21.7-39.3c2-9.4,1.3-28.2-1.5-38.8
	c-6.8-26-25.8-44-54.7-51.9c-18-4.9-20.9-5.1-79.7-5.6l-55.7-0.5l-1.5,2.3l-0.1,157.5l-0.6,155.2l2.5,2.5c2.9,2.9,6.2,3.2,9.1,1
	c3-2.3,3.3-10.5,3.4-83.7l0.1-65.7 M1986.1,1410h45.6c47,0,55.8,0.6,70.8,4.5c14.1,3.7,23.5,8.7,31.8,17c12,11.9,16.5,24,16.7,44.5
	c0.1,10.3-0.2,12.4-2.9,20c-9.2,26.7-34.6,45-71.7,51.6h0c-7.1,1.3-18.1,1.7-49.2,2.1c-22,0.2-40.8-0.3-40.8-0.3"/>
</svg>
