<?xml version="1.0" encoding="UTF-8" standalone="no"?>
<!-- Created with Inkscape (http://www.inkscape.org/) -->
<svg
   xmlns:svg="http://www.w3.org/2000/svg"
   xmlns="http://www.w3.org/2000/svg"
   version="1.0"
   width="1086"
   height="458"
   id="svg3296">
  <defs
     id="defs3299" />
  <path
     d="M 0,229 L 0,0 L 543,0 L 1086,0 L 1086,229 L 1086,458 L 543,458 L 0,458 L 0,229 z M 1003.5,445.18214 C 1013.8419,442.18575 1028.53,435.22452 1036.4793,429.552 C 1053.5707,417.35582 1066.9303,395.93809 1071.4521,373.48429 C 1072.8918,366.33513 1073.0307,350.90869 1072.78,226 L 1072.5,86.5 L 1069.7433,77.71168 C 1063.0825,56.4775 1050.8219,39.13056 1034.6782,28.0998 C 1027.3052,23.06195 1012.0819,16.19037 1002.8201,13.71957 L 994.5,11.5 L 542.5,11.5 L 90.5,11.5 L 81.646782,14.27553 C 48.733756,24.59395 28.335041,44.49947 17.368203,77 L 14.5,85.5 L 14.190118,224.5 C 13.96537,325.31203 14.194638,365.51196 15.024625,370.82331 C 16.974547,383.30147 22.907005,398.09883 30.330172,409 C 42.561436,426.96202 64.389827,440.98343 88,446.04405 C 96.158896,447.79284 114.53839,447.85861 546,447.68298 L 995.5,447.5 L 1003.5,445.18214 z M 101.5,426.97885 C 64.917855,422.99776 39.514362,398.53036 35.057282,362.98446 C 33.615988,351.48991 33.601069,107.62907 35.040958,96.14573 C 37.189504,79.01074 43.122491,66.10956 54.303322,54.26005 C 63.920745,44.06744 75.283637,37.68272 90.903174,33.69487 L 99.5,31.5 L 543.5,31.5 L 987.5,31.5 L 996.09683,33.69487 C 1007.072,36.49695 1014.6683,39.87345 1022.3707,45.37333 C 1039.8134,57.82832 1049.6284,75.13786 1052.051,97.71721 C 1052.7473,104.20638 1052.9841,150.931 1052.7544,236.5 C 1052.4378,354.45225 1052.2616,366.0423 1050.6965,371.83223 C 1043.1917,399.59584 1024.9678,417.57578 996.5,425.30309 L 988.5,427.47461 L 548.5,427.60762 C 306.5,427.68077 105.35,427.39783 101.5,426.97885 z M 682.09456,356.9987 C 717.75126,352.91263 744.3654,336.17673 760.19289,307.88775 C 779.73258,272.96383 776.05957,232.54852 750.46724,200.87339 C 736.16165,183.16764 714.10123,171.41934 687.5,167.3401 C 675.27814,165.46591 644.52793,166.08881 633.06798,168.44273 C 628.98037,169.28234 625.54378,169.8637 625.43111,169.73465 C 625.31843,169.60559 626.13182,164.05891 627.23862,157.40869 L 629.251,145.31737 L 659.8755,144.66044 C 676.71897,144.29913 703.8875,144.00272 720.25,144.00176 L 750,144 L 750,113.99468 L 750,83.98937 L 659.78193,84.24468 L 569.56385,84.5 L 564.39463,144.5 C 561.55155,177.5 559.06117,206.6095 558.86044,209.18777 L 558.49549,213.87553 L 586.97656,225.03008 L 615.45762,236.18463 L 627.26216,232.50018 C 644.41029,227.14788 654.23782,225.65799 668,226.32414 C 693.34779,227.5511 706.43927,234.75888 711.08191,250.04377 C 716.41954,267.61674 709.68606,284.79448 694.68098,291.88412 C 685.4988,296.22255 678.29873,297.43407 662,297.38323 C 636.97988,297.30517 617.27949,292.82658 594.29273,281.991 L 584.08545,277.17946 L 569.19795,301.33973 C 561.00982,314.62788 554.01453,326.02124 553.65286,326.65832 C 552.41199,328.84413 577.31578,341.0412 594.9602,346.88933 C 609.93582,351.8529 629.81607,355.95449 645.5,357.31644 C 654.44655,358.09334 674.0258,357.92334 682.09456,356.9987 z M 199.21148,344.75 C 201.08782,340.2125 206.64532,326.48898 211.5615,314.2533 L 220.5,292.00659 L 269.41767,292.2533 L 318.33533,292.5 L 330.49154,322.5 L 342.64775,352.5 L 374.20307,352.76388 L 405.75839,353.02777 L 375.60983,276.76388 C 359.02812,234.81875 335.11998,174.29047 322.48063,142.2566 L 299.5,84.0132 L 269.33754,84.0066 L 239.17507,84 L 236.1892,91.75 C 234.54697,96.0125 211.0619,155.525 184.00015,224 C 156.9384,292.475 134.40379,349.5125 133.92324,350.75 L 133.0495,353 L 164.42474,353 L 195.79997,353 L 199.21148,344.75 z M 244,230.14002 C 244,229.40593 269.84309,167.92982 270.43231,167.26226 C 270.68391,166.97721 295,229.42102 295,230.35217 C 295,230.70848 283.525,231 269.5,231 C 255.475,231 244,230.61301 244,230.14002 z M 917,218.5 L 917,84 L 888.75,84.02393 L 860.5,84.04787 L 855.58076,93.05257 C 850.05657,103.16465 845.35658,108.01933 836.23732,113.03266 L 830,116.46165 L 830,146.23082 L 830,176 L 842.5,176 L 855,176 L 855,264.5 L 855,353 L 886,353 L 917,353 L 917,218.5 z M 522,255.5 L 522,225 L 472.5,225 L 423,225 L 423,255.5 L 423,286 L 472.5,286 L 522,286 L 522,255.5 z"
     id="path3307"
     style="fill:#003399;fill-opacity:1" />
  <path
     d="M 135.6,350.54664 C 135.6,349.74724 159.14126,289.44724 187.91392,216.5466 L 240.2278,84 L 269.41396,84.0138 L 298.6,84.02758 L 350.02272,214.5138 C 378.30526,286.2812 402.03576,346.599 402.7572,348.55336 C 403.98318,351.87458 402.07566,352.07056 373.55948,351.55336 L 343.05008,351 L 331.05032,321.46618 L 319.05068,291.9325 L 269.1758,292.46618 L 219.30104,293 L 207.19974,322.5 L 195.0983,352 L 165.34914,352 C 148.98712,352 135.6,351.34598 135.6,350.5466 L 135.6,350.54664 z M 295.5851,230.5 C 295.56906,228.8795 271.67846,167.4118 270.67448,166.4078 C 269.93134,165.66462 243.6,227.7253 243.6,230.21998 C 243.6,231.199 255.3,232 269.6,232 C 283.9,232 295.5933,231.325 295.58514,230.5 L 295.5851,230.5 z"
     id="path3818"
     style="opacity:1;fill:#ffffff;fill-opacity:1" />
  <path
     d="M 423.6,256 L 423.6,226 L 472.6,226 L 521.6,226 L 521.6,256 L 521.6,286 L 472.6,286 L 423.6,286 L 423.6,256 z"
     id="path3820"
     style="opacity:1;fill:#ffffff;fill-opacity:1" />
  <path
     d="M 628.06972,353.80512 C 601.0268,348.90304 555.6,332.04722 555.6,326.91488 C 555.6,325.9783 562.05658,314.73308 569.94796,301.92554 C 580.98766,284.00846 585.0227,278.95694 587.44796,280.01754 C 607.49886,288.78622 627.64346,294.94144 642.21758,296.75248 C 660.89962,299.07396 682.91054,297.71254 692.6,293.63616 C 711.52908,285.67264 718.87006,263.9627 709.1,244.83966 C 703.71992,234.30916 695.40606,229.52688 677.33734,226.56918 C 662.79396,224.18858 650.99442,225.2745 629.6,230.96258 L 614.6,234.95064 L 588.6,224.748 C 574.3,219.13652 561.90958,213.8672 561.06572,213.0384 C 560.2219,212.20958 561.9752,183.01688 564.96202,148.16572 L 570.3926,84.8 L 659.99624,84.8 L 749.6,84.8 L 749.6,113.49494 L 749.6,142.1899 L 689.45168,143.30988 C 656.3702,143.92586 628.9223,144.81102 628.4564,145.27692 C 627.99048,145.74282 627.01318,151.82768 626.28454,158.79882 C 625.05836,170.53004 625.23194,171.3692 628.61554,170.07078 C 630.62626,169.29924 641.80476,168.12246 653.45676,167.4558 C 678.2444,166.03758 701.19284,169.81812 719.01348,178.2558 C 733.9774,185.34086 751.55636,202.01136 759.21418,216.3789 C 780.04842,255.46788 773.94132,296.47932 742.61822,327.82806 C 722.3182,348.1447 697.75786,356.86218 661.6,356.58478 C 651.15,356.50458 636.06136,355.25374 628.0697,353.8051 L 628.06972,353.80512 z"
     id="path3822"
     style="opacity:1;fill:#ffffff;fill-opacity:1" />
  <path
     d="M 855.6,263.8 L 855.6,174.8 L 843.6,174.8 L 831.6,174.8 L 831.6,146.29634 L 831.6,117.79256 L 841.1,110.78938 C 846.6442,106.70236 852.682,99.83568 855.6,94.2989 L 860.6,84.8116 L 888.1,84.80574 L 915.6,84.8 L 915.6,218.8 L 915.6,352.8 L 885.6,352.8 L 855.6,352.8 L 855.6,263.8 z"
     id="path3824"
     style="opacity:1;fill:#ffffff;fill-opacity:1" />
  <path
     d="M 89.03006,444.72054 C 66.03684,440.85476 37.82682,421.12824 27.1918,401.47872 C 15.24402,379.40372 15.47232,383.03262 16.06128,224.54954 L 16.6,79.58906 L 24.22292,64.16682 C 34.11778,44.14826 47.19372,31.10444 67.13868,21.35656 L 82.6,13.8 L 540.02042,13.28718 L 997.4408,12.77436 L 1010.2672,17.60224 C 1036.2512,27.38262 1051.5712,41.03324 1063.2372,64.8 L 1070.6,79.8 L 1070.6,228.8 L 1070.6,377.8 L 1063.2596,393.17158 C 1051.1234,418.58598 1034.3556,433.25068 1006.4582,442.8488 C 995.1464,446.7406 988.2372,446.79646 546.7869,446.56476 C 300.28412,446.43536 94.29354,445.60548 89.03008,444.72056 L 89.03006,444.72054 z M 1000.6254,424.79122 C 1024.3084,416.64314 1036.8,405.51284 1047.224,383.27092 L 1052.6,371.8 L 1052.6,230.8 C 1052.6,90.76026 1052.5702,89.72142 1048.238,78.26212 C 1042.648,63.47548 1034.233,52.93664 1021.0068,44.15756 C 999.1712,29.66402 1038.5476,30.71662 539.54318,31.28692 L 90.6,31.8 L 79.19668,36.40754 C 63.16074,42.88688 49.06036,56.24044 41.12402,72.46374 L 34.6,85.8 L 34.03408,223.49396 C 33.4025,377.1544 33.35522,376.51586 46.82402,396.19128 C 57.81176,412.24236 74.088,422.73438 94.1394,426.69188 C 98.79272,427.61034 302.0341,428.46034 545.7869,428.58086 C 984.3796,428.7977 989.0946,428.75844 1000.6254,424.79124 L 1000.6254,424.79122 z"
     id="path3826"
     style="opacity:1;fill:#ffffff;fill-opacity:1" />
</svg>
