<?xml version="1.0" encoding="iso-8859-1"?>
<!-- Generator: Adobe Illustrator 18.1.1, SVG Export Plug-In . SVG Version: 6.00 Build 0)  -->
<svg version="1.1" id="Layer_1" xmlns="http://www.w3.org/2000/svg" xmlns:xlink="http://www.w3.org/1999/xlink" x="0px" y="0px"
	 viewBox="0 0 283.46 283.46" style="enable-background:new 0 0 283.46 283.46;" xml:space="preserve">
<g>
	
		<linearGradient id="SVGID_1_" gradientUnits="userSpaceOnUse" x1="117.379" y1="219.52" x2="194.2635" y2="219.52" gradientTransform="matrix(4.489700e-11 1 -1 4.489700e-11 361.25 74.5)">
		<stop  offset="0" style="stop-color:#B27D56"/>
		<stop  offset="0.4793" style="stop-color:#CA986F"/>
		<stop  offset="1" style="stop-color:#E0B186"/>
	</linearGradient>
	<rect x="114.04" y="191.879" style="fill:url(#SVGID_1_);" width="55.379" height="76.884"/>
	<path style="opacity:0.2;fill:#BF8C62;" d="M114.04,220.338c7.104,6.07,16.887,9.822,27.69,9.822s20.585-3.752,27.69-9.821v-28.459
		H114.04V220.338z"/>
	<g>
		
			<ellipse transform="matrix(0.9988 -0.0488 0.0488 0.9988 -6.5421 3.8442)" style="fill:#CE996E;" cx="75.402" cy="135.808" rx="9.224" ry="24.891"/>
		
			<ellipse transform="matrix(-0.9988 -0.0488 0.0488 -0.9988 409.235 281.6141)" style="fill:#CE996E;" cx="208.058" cy="135.808" rx="9.224" ry="24.891"/>
	</g>
	<path style="fill:#E0B186;" d="M204.562,83.076c-1.464-56.225-64.112-54.468-64.112-54.468s-60.087-1.757-61.551,54.468
		c-0.949,36.452,0.932,68.719,2.373,86.906c0.774,9.77,5.928,18.659,14.019,24.189l19.849,13.566
		c5.387,3.682,11.76,5.652,18.286,5.652h4.661h7.285h4.661c6.525,0,12.898-1.97,18.286-5.652l19.849-13.566
		c8.091-5.53,13.245-14.419,14.019-24.189C203.629,151.795,205.511,119.528,204.562,83.076z"/>
	<g>
		<path style="fill:#CE9B72;" d="M122.965,139.029l-14.056,24.013C108.909,163.042,101.881,145.472,122.965,139.029z"/>
		<path style="fill:#CE9B72;" d="M160.495,139.029l14.056,24.013C174.551,163.042,181.579,145.472,160.495,139.029z"/>
	</g>
	<ellipse style="fill:#CE9B72;" cx="141.73" cy="160.699" rx="5.417" ry="5.857"/>
	<g>
		<path style="opacity:0.48;fill:#302017;" d="M88.873,103.889c0,0,14.642-14.349,38.069-4.978v-7.907l-24.891-2.05
			c0,0-12.006,4.1-15.813,15.228L88.873,103.889z"/>
		<path style="opacity:0.48;fill:#302017;" d="M194.587,103.889c0,0-14.642-14.349-38.069-4.978v-7.907l24.891-2.05
			c0,0,12.006,4.1,15.813,15.228L194.587,103.889z"/>
	</g>
	<g>
		<linearGradient id="SVGID_2_" gradientUnits="userSpaceOnUse" x1="141.73" y1="156.998" x2="141.73" y2="118.1329">
			<stop  offset="0" style="stop-color:#B27D56"/>
			<stop  offset="0.4793" style="stop-color:#CA986F"/>
			<stop  offset="1" style="stop-color:#E0B186"/>
		</linearGradient>
		<path style="fill:url(#SVGID_2_);" d="M153.91,137.565c-1.43,0-2.776,0.35-3.969,0.958v-12.179c0-4.516-3.695-8.211-8.211-8.211h0
			c-4.516,0-8.211,3.695-8.211,8.211v12.179c-1.192-0.608-2.538-0.958-3.969-0.958c-4.837,0-8.758,3.921-8.758,8.758
			c0,4.837,3.921,8.758,8.758,8.758c2.002,0,3.842-0.679,5.317-1.81c1.471,2.238,4,3.726,6.863,3.726h0
			c2.863,0,5.392-1.488,6.863-3.726c1.475,1.13,3.315,1.81,5.317,1.81c4.837,0,8.758-3.921,8.758-8.758
			C162.668,141.487,158.747,137.565,153.91,137.565z"/>
		<path style="opacity:0.2;fill:#BF8C62;" d="M121.544,149.865c1.361,3.072,4.431,5.217,8.007,5.217c2.002,0,3.842-0.679,5.317-1.81
			c1.471,2.238,4,3.726,6.863,3.726h0c2.863,0,5.392-1.488,6.863-3.726c1.475,1.13,3.315,1.81,5.317,1.81
			c3.576,0,6.646-2.146,8.007-5.217H121.544z"/>
		<g>
			
				<ellipse transform="matrix(0.9956 -0.0939 0.0939 0.9956 -13.8033 13.0477)" style="fill:#42210B;" cx="131.776" cy="153.232" rx="4.212" ry="1.571"/>
			
				<ellipse transform="matrix(-0.9956 -0.0939 0.0939 -0.9956 289.7786 320.0963)" style="fill:#42210B;" cx="152.419" cy="153.232" rx="4.212" ry="1.571"/>
		</g>
		<circle style="opacity:0.11;fill:#FFFFFF;" cx="141.437" cy="144.74" r="7.76"/>
	</g>
	<g>
		<g>
			<g>
				<g>
					<path d="M159.217,115.823l18.224-0.899C177.441,114.923,171.193,105.254,159.217,115.823z"/>
				</g>
				<g>
					<ellipse cx="169.11" cy="115.373" rx="4.686" ry="4.047"/>
				</g>
				<g>
					<path d="M160.039,114.739l-0.641-0.386c0.221-0.273,5.499-6.684,11.264-6.348c2.865,0.168,5.33,1.961,7.327,5.329l-0.696,0.308
						c-1.863-3.143-4.112-4.813-6.684-4.964C165.221,108.359,160.09,114.675,160.039,114.739z"/>
				</g>
			</g>
			<path style="fill:#CE9B72;" d="M160.911,120.432h16.106C177.017,120.432,169.11,130.043,160.911,120.432z"/>
		</g>
		<g>
			<g>
				<g>
					<path d="M124.243,115.823l-18.224-0.899C106.019,114.923,112.267,105.254,124.243,115.823z"/>
				</g>
				<g>
					<ellipse cx="114.35" cy="115.373" rx="4.686" ry="4.047"/>
				</g>
				<g>
					<path d="M123.421,114.739l0.641-0.386c-0.221-0.273-5.499-6.684-11.264-6.348c-2.865,0.168-5.33,1.961-7.327,5.329l0.696,0.308
						c1.863-3.143,4.112-4.813,6.684-4.964C118.239,108.359,123.37,114.675,123.421,114.739z"/>
				</g>
			</g>
			<path style="fill:#CE9B72;" d="M122.549,120.432h-16.106C106.443,120.432,114.35,130.043,122.549,120.432z"/>
		</g>
	</g>
	<g>
		<g>
			<path style="fill:#FFFFFF;" d="M89.185,103.53v33.091C78.565,129.299,77.841,102.066,89.185,103.53z"/>
			<path style="fill:#FFFFFF;" d="M195.153,103.53v33.091C204.641,129.299,205.288,102.066,195.153,103.53z"/>
		</g>
		<path style="fill:#302017;" d="M131.085,102.13c-31.402-8.908-57.304,3.321-57.304,3.321l0.886,8.453c0,0,5.002-1.337,6.122,8.786
			c1.068,9.663,6.951,19.631,29.439,19.429c22.511-0.201,24.59-16.848,25.511-23.902c0.953-7.293,5.99-7.062,5.99-7.062
			s5.037-0.232,5.99,7.062c0.922,7.054,3,23.7,25.511,23.902c22.489,0.201,28.371-9.767,29.439-19.429
			c1.119-10.123,6.122-8.786,6.122-8.786l0.886-8.453c0,0-25.903-12.229-57.304-3.321
			C145.418,104.104,138.042,104.104,131.085,102.13z M110.014,140.501c-27.732,0-26.251-17.355-28.031-27.752
			c-1.745-10.19,32.423-14.514,48.361-5.719c1.94,1.07,3.133,3.044,3.211,5.231C133.85,120.562,132.46,140.501,110.014,140.501z
			 M201.477,112.749c-1.781,10.397-0.299,27.752-28.031,27.752c-22.445,0-23.835-19.939-23.541-28.24
			c0.078-2.187,1.271-4.16,3.211-5.231C169.054,98.235,203.222,102.559,201.477,112.749z"/>
	</g>
	<path style="fill:#BC8158;" d="M141.73,168.335c-5.774-4.648-21.035,9.295-21.035,9.295l5.774-0.258c0,0,6.805-4.648,15.261-1.807
		c8.455-2.84,15.261,1.807,15.261,1.807l5.774,0.258C162.765,177.63,147.504,163.687,141.73,168.335z"/>
	<ellipse style="fill:#CE9B72;" cx="141.73" cy="189.385" rx="15.054" ry="5.362"/>
	<g>
		<path style="opacity:0.07;fill:#302017;" d="M134.896,155.358c0,0-19.756,5.35-19.25,17.476s22.627-9.808,22.627-13.375
			L134.896,155.358z"/>
		<path style="opacity:0.07;fill:#302017;" d="M148.564,155.358c0,0,19.756,5.35,19.25,17.476
			c-0.507,12.127-22.627-9.808-22.627-13.375L148.564,155.358z"/>
	</g>
	<path style="opacity:0.07;fill:#302017;" d="M141.73,194.404c-11.674,0-21.138,6.094-21.138,13.611
		c0,1.001,0.173,1.975,0.491,2.915c3.897,1.606,8.085,2.459,12.343,2.459h4.661h7.285h4.661c4.258,0,8.446-0.853,12.343-2.459
		c0.318-0.939,0.491-1.914,0.491-2.915C162.868,200.497,153.404,194.404,141.73,194.404z"/>
	<path d="M204.8,82.384l6.599,0.193c0-14.312-8.455-33.652-8.455-33.652l-6.805-0.193l4.949-3.481l-7.012,0.967l5.156-8.703
		l-8.868,5.609l4.331-17.542l-8.868,12.707l2.268-15.666l-6.393,14.118l3.712-14.505C169.949,8.311,147.982,7.044,147.982,7.044
		l-1.13,10.55L144.028,6.22l-0.879,7.827l-3.514-12.359l-0.965,18.613L136.196,6.57l0.412,11.024l-2.683-12.61l-1.38,13.092
		l-2.372-12.275l-1.404,13.534l-2.669-12.397l1.41,14.914l-3.929-14.098l0.572,12.42l-5.155-10.712c0,0-1.064,0.437-1.606,0.67
		c-0.558,0.24-1.122,0.489-1.693,0.75c-5.724,2.612-12.019,6.279-17.656,11.355l3.712,14.505l-6.393-14.118l2.268,15.666
		l-8.868-12.707l4.331,17.542l-8.868-5.609l5.156,8.703l-7.012-0.967l4.949,3.481l-6.805,0.193c0,0-8.455,19.34-8.455,33.652
		l6.599-0.193l-6.599,2.321l7.012,0.387l-6.599,1.741c0,0,0.825,11.604,1.856,20.888l8.455-4.061c0,0-2.921-62.663,58.946-62.663
		s58.946,62.663,58.946,62.663l8.455,4.061c1.031-9.283,1.856-20.888,1.856-20.888l-6.599-1.741l7.012-0.387L204.8,82.384z"/>
	<path style="fill:#999999;" d="M211.784,283.457l-4.849-25.735l-36.239-20.416v-15.568l-28.966,22.106l-28.966-22.106v15.568
		l-36.239,20.416l-4.849,25.735c0,0,66.868,0.344,70.054,0.027C144.917,283.8,211.784,283.457,211.784,283.457z"/>
	<circle style="fill:#CCCCCC;" cx="141.73" cy="252.229" r="4.37"/>
	<circle style="fill:#CCCCCC;" cx="141.73" cy="275.5" r="4.37"/>
</g>
</svg>
