<?xml version="1.0" encoding="UTF-8" standalone="no"?>
<!-- Generator: Adobe Illustrator 19.2.1, SVG Export Plug-In . SVG Version: 6.00 Build 0)  -->

<svg
   xmlns:dc="http://purl.org/dc/elements/1.1/"
   xmlns:cc="http://creativecommons.org/ns#"
   xmlns:rdf="http://www.w3.org/1999/02/22-rdf-syntax-ns#"
   xmlns:svg="http://www.w3.org/2000/svg"
   xmlns="http://www.w3.org/2000/svg"
   xmlns:sodipodi="http://sodipodi.sourceforge.net/DTD/sodipodi-0.dtd"
   xmlns:inkscape="http://www.inkscape.org/namespaces/inkscape"
   version="1.1"
   id="Layer_1"
   x="0px"
   y="0px"
   viewBox="0 0 6915.252 2868.4593"
   xml:space="preserve"
   inkscape:version="0.91 r13725"
   sodipodi:docname="Sonde_Logo_H_BLKbig.svg"
   width="6915.252"
   height="2868.4592"><metadata
     id="metadata3409"><rdf:RDF><cc:Work
         rdf:about=""><dc:format>image/svg+xml</dc:format><dc:type
           rdf:resource="http://purl.org/dc/dcmitype/StillImage" /><dc:title></dc:title></cc:Work></rdf:RDF></metadata><defs
     id="defs3407" /><sodipodi:namedview
     pagecolor="#ffffff"
     bordercolor="#666666"
     borderopacity="1"
     objecttolerance="10"
     gridtolerance="10"
     guidetolerance="10"
     inkscape:pageopacity="0"
     inkscape:pageshadow="2"
     inkscape:window-width="1347"
     inkscape:window-height="852"
     id="namedview3405"
     showgrid="false"
     inkscape:zoom="0.023691904"
     inkscape:cx="1374.5494"
     inkscape:cy="452.45939"
     inkscape:window-x="171"
     inkscape:window-y="1199"
     inkscape:window-maximized="0"
     inkscape:current-layer="Layer_1"
     fit-margin-top="0"
     fit-margin-left="0"
     fit-margin-right="0"
     fit-margin-bottom="0" /><g
     id="g3337"
     transform="matrix(33.679541,0,0,33.679541,-6883.2562,-11899.744)"><g
       id="g3339"><path
         d="m 251.9,371.3 c -0.7,0.7 -1.8,0.7 -2.5,0 l -7.5,-7.6 c -0.7,-0.7 -0.7,-1.8 0,-2.5 0.7,-0.7 1.8,-0.7 2.5,0 l 7.5,7.6 c 0.7,0.7 0.7,1.8 0,2.5 z"
         id="path3341"
         inkscape:connector-curvature="0" /><path
         d="m 224.4,403.1 c -0.7,0.7 -1.8,0.7 -2.5,0 l -7.5,-7.6 c -0.7,-0.7 -0.7,-1.8 0,-2.5 0.7,-0.7 1.8,-0.7 2.5,0 l 7.5,7.6 c 0.7,0.7 0.7,1.8 0,2.5 z"
         id="path3343"
         inkscape:connector-curvature="0" /><g
         id="g3345"><path
           d="m 212.8,368.2 c 1.3,-1.2 3.3,-1.2 4.5,0 L 231,382 c 1.2,1.3 1.2,3.3 0,4.5 -1.3,1.2 -3.3,1.2 -4.5,0 l -13.7,-13.8 c -1.3,-1.2 -1.3,-3.2 0,-4.5 z"
           id="path3347"
           inkscape:connector-curvature="0" /><circle
           transform="matrix(0.7094,-0.7048,0.7048,0.7094,-196.3557,253.7644)"
           cx="209.60001"
           cy="365"
           id="ellipse3349"
           r="2.4000001" /></g><circle
         transform="matrix(0.7094,-0.7048,0.7048,0.7094,-213.6878,262.9084)"
         cx="212"
         cy="390.60001"
         id="ellipse3351"
         r="1.8" /><circle
         transform="matrix(0.7094,-0.7048,0.7048,0.7094,-183.3447,273.1475)"
         cx="239.60001"
         cy="358.89999"
         id="ellipse3353"
         r="1.8" /><g
         id="g3355"><path
           d="m 247.7,377.8 c -1.3,1.2 -3.3,1.2 -4.5,0 l -14.5,-14.5 c -1.2,-1.3 -1.2,-3.3 0,-4.5 1.3,-1.2 3.3,-1.2 4.5,0 l 14.5,14.5 c 1.3,1.3 1.3,3.3 0,4.5 z"
           id="path3357"
           inkscape:connector-curvature="0" /><circle
           transform="matrix(0.7094,-0.7048,0.7048,0.7094,-185.1203,262.4624)"
           cx="225.7"
           cy="355.70001"
           id="ellipse3359"
           r="2.4000001" /></g><path
         d="m 210.8,378.4 c 1.3,-1.2 3.3,-1.2 4.5,0 l 30.3,30.5 c 1.2,1.3 1.2,3.3 0,4.5 -1.3,1.2 -3.3,1.2 -4.5,0 l -30.3,-30.5 c -1.3,-1.2 -1.3,-3.3 0,-4.5 z"
         id="path3361"
         inkscape:connector-curvature="0" /><circle
         transform="matrix(0.7094,-0.7048,0.7048,0.7094,-204.2069,255.5613)"
         cx="207.8"
         cy="375.39999"
         id="ellipse3363"
         r="2.4000001" /><path
         d="m 209,414 c 1.3,-1.2 3.3,-1.2 4.5,0 l 14.5,14.5 c 1.2,1.3 1.2,3.3 0,4.5 -1.3,1.2 -3.3,1.2 -4.5,0 L 209,418.6 c -1.2,-1.3 -1.2,-3.3 0,-4.6 z"
         id="path3365"
         inkscape:connector-curvature="0" /><path
         d="m 204.9,420.6 c 0.7,-0.7 1.8,-0.7 2.5,0 l 7.5,7.6 c 0.7,0.7 0.7,1.8 0,2.5 -0.7,0.7 -1.8,0.7 -2.5,0 l -7.5,-7.6 c -0.7,-0.7 -0.7,-1.8 0,-2.5 z"
         id="path3367"
         inkscape:connector-curvature="0" /><path
         d="m 232.3,388.8 c 0.7,-0.7 1.8,-0.7 2.5,0 l 7.5,7.6 c 0.7,0.7 0.7,1.8 0,2.5 -0.7,0.7 -1.8,0.7 -2.5,0 l -7.5,-7.6 c -0.7,-0.8 -0.7,-1.9 0,-2.5 z"
         id="path3369"
         inkscape:connector-curvature="0" /><path
         d="m 243.9,423.6 c -1.3,1.2 -3.3,1.2 -4.5,0 l -13.7,-13.8 c -1.2,-1.3 -1.2,-3.3 0,-4.5 1.3,-1.2 3.3,-1.2 4.5,0 l 13.7,13.8 c 1.3,1.3 1.3,3.3 0,4.5 z"
         id="path3371"
         inkscape:connector-curvature="0" /><circle
         transform="matrix(0.7094,-0.7048,0.7048,0.7094,-229.0303,298.2293)"
         cx="247.2"
         cy="426.89999"
         id="ellipse3373"
         r="2.4000001" /><circle
         transform="matrix(0.7094,-0.7048,0.7048,0.7094,-211.6983,289.0853)"
         cx="244.7"
         cy="401.29999"
         id="ellipse3375"
         r="1.8" /><circle
         transform="matrix(0.7094,-0.7048,0.7048,0.7094,-242.0414,278.8462)"
         cx="217.10001"
         cy="433"
         id="ellipse3377"
         r="1.8" /><circle
         transform="matrix(0.7094,-0.7048,0.7048,0.7094,-240.2657,289.5313)"
         cx="231"
         cy="436.10001"
         id="ellipse3379"
         r="2.4000001" /><circle
         transform="matrix(0.7094,-0.7048,0.7048,0.7094,-221.0039,296.5053)"
         cx="249.10001"
         cy="416.29999"
         id="ellipse3381"
         r="2.4000001" /><circle
         transform="matrix(0.7094,-0.7048,0.7048,0.7094,-235.8119,296.25)"
         cx="241.39999"
         cy="434.10001"
         id="ellipse3383"
         r="3" /><g
         id="g3385"><circle
           transform="matrix(0.7094,-0.7048,0.7048,0.7094,-189.6024,255.7428)"
           cx="215.3"
           cy="357.79999"
           id="ellipse3387"
           r="3" /><path
           d="m 218.6,361 c 1.2,-1.2 3.3,-1.2 4.5,0 l 20.2,20.3 c 1.2,1.2 1.2,3.3 0,4.5 -1.2,1.2 -3.3,1.2 -4.5,0 l -20.2,-20.3 c -1.3,-1.2 -1.3,-3.3 0,-4.5 z"
           id="path3389"
           inkscape:connector-curvature="0" /></g><path
         d="m 213.4,405.8 c 1.2,-1.2 3.3,-1.2 4.5,0 l 20.2,20.3 c 1.2,1.2 1.2,3.3 0,4.5 -1.2,1.2 -3.3,1.2 -4.5,0 l -20.2,-20.3 c -1.3,-1.2 -1.3,-3.3 0,-4.5 z"
         id="path3391"
         inkscape:connector-curvature="0" /></g><g
       id="g3393"><path
         d="m 263.3,408.2 1,-1.4 c 0.7,-1 1.4,-1 2.5,-0.4 1,0.7 3.2,2.3 6.3,2.3 2.9,0 4.6,-1.4 4.6,-3.5 0,-5.9 -14.5,-4.7 -14.5,-14.4 0,-5.5 4.6,-9 10.5,-9 3.7,0 6.7,1.4 8,2.4 1,0.7 1.1,1.5 0.6,2.5 l -0.8,1.4 c -0.7,1.3 -1.6,1.1 -2.5,0.6 -1.3,-0.7 -3,-1.7 -5.4,-1.7 -2.9,0 -4.7,1.4 -4.7,3.5 0,5.8 14.5,4.3 14.5,14.2 0,5 -3.8,9.2 -10.3,9.2 -4.4,0 -8,-2 -9.5,-3.1 -0.8,-0.7 -1.2,-1.5 -0.3,-2.6 z"
         id="path3395"
         inkscape:connector-curvature="0" /><path
         d="m 304,381.7 c 9.4,0 16.1,7 16.1,15.8 0,9.1 -6.6,16.3 -16.1,16.3 -9.4,0 -16.1,-7.1 -16.1,-16.3 0,-8.8 6.7,-15.8 16.1,-15.8 z m 0,27 c 6,0 10.2,-4.8 10.2,-11.1 0,-6 -4.3,-10.7 -10.2,-10.7 -5.9,0 -10.2,4.6 -10.2,10.7 0,6.3 4.2,11.1 10.2,11.1 z"
         id="path3397"
         inkscape:connector-curvature="0" /><path
         d="m 325.6,384.1 c 0,-1.2 0.6,-1.8 1.8,-1.8 l 2.4,0 c 1.1,0 1.7,0.3 2.2,1.2 l 11,16.7 c 1.2,1.8 2.6,4.8 2.6,4.8 l 0.1,0 c 0,0 -0.3,-3 -0.3,-4.8 l 0,-16.1 c 0,-1.2 0.7,-1.8 1.8,-1.8 l 2,0 c 1.2,0 1.8,0.7 1.8,1.8 l 0,27.4 c 0,1.2 -0.7,1.8 -1.8,1.8 l -2.4,0 c -1,0 -1.7,-0.4 -2.1,-1.2 l -11.1,-16.7 c -1.1,-1.8 -2.6,-4.8 -2.6,-4.8 l -0.1,0 c 0,0 0.3,3 0.3,4.8 l 0,16.1 c 0,1.2 -0.6,1.8 -1.8,1.8 l -2,0 c -1.2,0 -1.8,-0.6 -1.8,-1.8 l 0,-27.4 z"
         id="path3399"
         inkscape:connector-curvature="0" /><path
         d="m 358.5,384.1 c 0,-1.2 0.6,-1.8 1.8,-1.8 l 8.8,0 c 9.6,0 15.8,5.7 15.8,15.5 0,9.8 -6.3,15.6 -15.8,15.6 l -8.8,0 c -1.2,0 -1.8,-0.6 -1.8,-1.8 l 0,-27.5 z m 10.3,24.4 c 6.3,0 10.3,-3.7 10.3,-10.7 0,-6.9 -4.1,-10.6 -10.3,-10.6 l -4.7,0 0,21.4 4.7,0 z"
         id="path3401"
         inkscape:connector-curvature="0" /><path
         d="m 390.4,384.1 c 0,-1.2 0.6,-1.8 1.8,-1.8 l 15,0 c 1.2,0 1.8,0.7 1.8,1.8 l 0,1.2 c 0,1.2 -0.7,1.8 -1.8,1.8 l -11.2,0 0,8.1 8.7,0 c 1.2,0 1.8,0.6 1.8,1.8 l 0,1.2 c 0,1.2 -0.7,1.8 -1.8,1.8 l -8.7,0 0,8.4 11.9,0 c 1.2,0 1.8,0.6 1.8,1.8 l 0,1.2 c 0,1.2 -0.7,1.8 -1.8,1.8 l -15.7,0 c -1.2,0 -1.8,-0.6 -1.8,-1.8 l 0,-27.3 z"
         id="path3403"
         inkscape:connector-curvature="0" /></g></g></svg>