<?xml version="1.0" encoding="utf-8"?>
<!-- Generator: Adobe Illustrator 19.2.1, SVG Export Plug-In . SVG Version: 6.00 Build 0)  -->
<!DOCTYPE svg PUBLIC "-//W3C//DTD SVG 1.1//EN" "http://www.w3.org/Graphics/SVG/1.1/DTD/svg11.dtd">
<svg version="1.1" id="Layer_1" xmlns="http://www.w3.org/2000/svg" xmlns:xlink="http://www.w3.org/1999/xlink" x="0px" y="0px"
	 viewBox="0 0 188 106.1" style="enable-background:new 0 0 188 106.1;" xml:space="preserve">
<style type="text/css">
	.st0{fill:#9E882E;}
	.st1{fill:#8F202B;}
</style>
<path class="st0" d="M89.2,24.8c0,0-9.3-10.1-24.4-9.3c-5,0.3-9.1,2.4-14.7-9.3c0,0,0.3,5.2-2.8,7.3c0,0,4.6,9.6,19.2,7.3
	C71.3,20.1,79.1,19.6,89.2,24.8z"/>
<path class="st0" d="M103.3,24.6c6-3.6,9.6-5.5,20.2-12.2c5.2-2.4,13-4.4,20.3-0.3c0,0-1.1,5,1.8,7.8c0,0-10.6-7.8-22-2
	C119.3,20.1,110.3,25.3,103.3,24.6z"/>
<path class="st0" d="M105.4,2.3c-7.8,1.3-8.2,14.5-8.2,23.2c5.5-7.8,11.1-6.7,15.9-11.9C117.5,9.3,113.3,0.8,105.4,2.3z M106.5,13.1
	c-2.6,1.8-5,3.1-7,6.4c0.6-8.3,3.2-17.7,9.4-13.3C111.8,7.9,109.2,11.1,106.5,13.1z"/>
<path class="st0" d="M86.2,2.3c-7.8-1.3-12,7-7.8,11.5c4.9,5.2,10.4,3.9,15.9,11.9C94.5,16.7,94,3.6,86.2,2.3z M84.9,13.1
	c-2.8-2-5.2-5.2-2.4-7.1c6.2-4.2,8.8,5,9.4,13.3C90,16.3,87.7,15,84.9,13.1z"/>
<g>
	<polygon class="st1" points="97.3,75.1 128.5,67.3 128.5,39.3 97.3,41.7 	"/>
	<polygon class="st1" points="97.3,39 128.4,36.5 136.2,24.5 102,27.4 	"/>
</g>
<g>
	<polygon class="st1" points="94.5,75.1 63.1,67.3 63.1,39.3 94.5,41.7 	"/>
	<polygon class="st1" points="94.5,39 63.1,36.5 55.3,24.5 89.3,27.4 	"/>
</g>
<g>
	<path class="st0" d="M29.8,101c-0.2,0-0.6-0.1-1-0.1c-0.4-0.1-0.7-0.2-0.8-0.4c-0.4-0.2-0.6-0.5-0.8-0.7s-0.4-0.5-0.5-1l-7.7-19
		v-0.1h-1.6v0.1c-1.1,2.7-2.3,5.8-3.7,9.2c-1.4,3.5-2.7,6.5-3.9,9.3c-0.2,0.5-0.5,1-0.7,1.2c-0.2,0.2-0.5,0.6-1,0.8
		c-0.2,0.1-0.6,0.2-1,0.4c-0.4,0.1-0.7,0.1-1,0.1H5.9v1.6h9.2v-1.6h-0.2c-0.8,0-1.6-0.1-2.3-0.4c-0.6-0.2-0.8-0.5-0.8-0.7
		c0-0.1,0-0.4,0.1-0.6c0-0.2,0.1-0.6,0.2-1.1c0.1-0.5,0.4-1,0.5-1.4c0.1-0.5,0.4-1.1,0.7-1.7H21l1.8,4.8c0,0.1,0.1,0.2,0.1,0.4
		c0,0.1,0,0.2,0,0.4c0,0-0.1,0.2-0.6,0.4c-0.5,0.1-1.2,0.2-2.1,0.2H20v1.6h10v-1.6L29.8,101z M20.1,93.2h-6.3l3.1-7.6L20.1,93.2z"/>
	<path class="st0" d="M47.3,92v1.6h0.2c0.4,0,0.8,0.1,1.4,0.1c0.6,0.1,1.1,0.2,1.3,0.4c0.4,0.1,0.5,0.4,0.6,0.6
		C51,95,51,95.3,51,95.7v1.2c0,0.4,0,0.8,0,1.4c0,0.5,0,1.1-0.1,1.6c-0.2,0.2-0.8,0.6-1.4,0.8c-0.7,0.2-1.6,0.4-2.4,0.4
		c-1.2,0-2.3-0.2-3.3-0.7c-1-0.5-1.8-1.2-2.4-2.2c-0.6-0.8-1.1-1.9-1.4-3.3c-0.4-1.2-0.5-2.5-0.5-4c0-1.6,0.1-3,0.5-4.3
		c0.4-1.3,0.8-2.4,1.4-3.3c0.6-0.8,1.3-1.6,2.3-1.9c0.8-0.5,1.8-0.7,2.9-0.7c1,0,1.8,0.2,2.5,0.6c0.7,0.4,1.3,0.8,1.8,1.6
		c0.5,0.6,1,1.3,1.2,2.2c0.4,0.8,0.6,1.7,0.8,2.5v0.1h1.7l-0.1-8.3H53l-0.6,1c-0.7-0.4-1.4-0.7-2.3-1c-1-0.4-2.1-0.5-3.4-0.5
		c-1.6,0-3.1,0.4-4.6,0.8c-1.4,0.6-2.7,1.4-3.6,2.5c-1.1,1.1-1.9,2.4-2.4,3.9c-0.6,1.4-0.8,3.1-0.8,4.8c0,1.8,0.4,3.5,1,5
		s1.4,2.8,2.4,3.7c1,1,2.2,1.8,3.6,2.4c1.3,0.6,2.8,0.8,4.2,0.8c1.3,0,2.8-0.1,4.2-0.5c1.4-0.4,2.9-0.8,4.2-1.4l0.1-0.1v-0.1
		c0-0.2,0-0.6,0-1.1c0-0.5,0-1.3,0-2.5v-1.7c0-0.4,0-0.7,0.1-1c0.1-0.2,0.2-0.5,0.6-0.6c0.2-0.1,0.6-0.2,1-0.2
		c0.5-0.1,0.7-0.1,1-0.1h0.2V92H47.3z"/>
	<path class="st0" d="M78.8,78.2c-0.5-0.4-1.3-0.6-2.3-0.6c-1.9,0-3.5,0.7-4.8,2.3c-1.2,1.6-1.9,3.5-1.9,5.9v0.7h-3.1v1.9h3.1v11.2
		c0,0.4-0.1,0.6-0.2,0.8c-0.1,0.2-0.2,0.4-0.5,0.4c-0.1,0-0.4,0.1-0.6,0.1l-1,0.1v1.4h8.7v-1.4h-0.2c-0.4,0-0.6-0.1-1.1-0.1
		c-0.4,0-0.7-0.1-1-0.2s-0.5-0.2-0.6-0.5c-0.1-0.2-0.1-0.5-0.1-0.7v-11h4v-1.9h-4v-1.3c0-2.1,0.2-3.6,0.6-4.5
		c0.4-0.8,0.7-1.2,1.3-1.3c0.1,0.1,0.2,0.4,0.4,0.6c0.2,0.4,0.4,0.6,0.6,0.8c0.2,0.2,0.5,0.5,0.7,0.6c0.2,0.1,0.6,0.2,1,0.2
		c0.6,0,1.1-0.2,1.3-0.6c0.2-0.4,0.5-0.8,0.5-1.3C79.5,79,79.3,78.5,78.8,78.2z"/>
	<path class="st0" d="M89.2,100.3c-0.1,0-0.5,0.1-1.1,0.1c-0.5,0-0.8,0.1-1.1,0.1c-0.5,0-1-0.1-1.3-0.2c-0.2-0.1-0.5-0.4-0.6-0.6
		s-0.2-0.6-0.4-1.1c0-0.5-0.1-1-0.1-1.6v-8.6h4.5v-1.9h-4.5v-4.8h-3.4v4.8h-2.9v1.9h2.8v10.4c0,1.2,0.2,2.3,0.8,2.9
		c0.6,0.7,1.6,1.1,2.9,1.1c1,0,1.7-0.1,2.3-0.4c0.6-0.2,1.3-0.5,1.9-0.7h0.1V100V100.3z"/>
	<path class="st0" d="M105,82c0.1-0.2,0.4-0.4,0.7-0.5s0.7-0.2,1.2-0.2c0.5-0.1,0.8-0.1,1.2-0.1h0.2v-1.6H97.8v1.6H98
		c0.2,0,0.7,0.1,1.2,0.2c0.5,0.1,0.8,0.2,1.2,0.4c0.4,0.1,0.6,0.4,0.7,0.5c0.1,0.2,0.1,0.5,0.1,0.8v16.3c0,0.4-0.1,0.7-0.2,0.8
		c-0.1,0.2-0.4,0.4-0.6,0.5s-0.6,0.1-1.1,0.1s-1,0.1-1.2,0.1h-0.2v1.6h10.6V101h-0.2c-0.4,0-0.7-0.1-1.2-0.1
		c-0.5-0.1-0.8-0.2-1.1-0.2c-0.4-0.1-0.6-0.4-0.7-0.6c-0.1-0.2-0.2-0.5-0.2-0.8V82.9C104.9,82.5,104.9,82.3,105,82z"/>
	<path class="st0" d="M127.4,101.1c-0.4,0-0.6,0-0.7-0.1c-0.1,0-0.4-0.1-0.6-0.2c-0.2-0.1-0.5-0.2-0.5-0.5c-0.1-0.2-0.1-0.5-0.1-0.8
		v-8.2c0-1.6-0.4-2.9-1.1-3.9c-0.7-1-1.9-1.4-3.5-1.4c-0.7,0-1.3,0.1-1.9,0.2c-0.6,0.1-1.1,0.4-1.4,0.6s-0.7,0.5-1.1,0.8
		c-0.2,0.2-0.5,0.5-0.6,0.6v-1.8l-0.4-0.4l-5.6,0.4v1.4h0.2c0.4,0,0.6,0,0.8,0.1c0.2,0,0.5,0.1,0.6,0.2c0.2,0.1,0.5,0.4,0.6,0.6
		s0.2,0.6,0.2,0.8v9.7c0,0.4-0.1,0.6-0.1,0.8c-0.1,0.2-0.2,0.4-0.5,0.4c-0.1,0-0.4,0.1-0.6,0.1l-1,0.1v1.4h8.1v-1.4h-0.2
		c-0.2,0-0.5,0-0.7-0.1c-0.2,0-0.5-0.1-0.7-0.2c-0.2-0.1-0.5-0.2-0.6-0.5c-0.1-0.2-0.2-0.5-0.2-0.7v-8.9c0.1-0.1,0.2-0.4,0.4-0.6
		c0.2-0.2,0.5-0.5,0.7-0.7c0.4-0.2,0.7-0.5,1.2-0.6c0.5-0.1,1-0.2,1.4-0.2c0.7,0,1.2,0.2,1.7,0.8c0.5,0.6,0.7,1.3,0.7,2.4v8.1
		c0,0.4-0.1,0.6-0.2,0.8s-0.2,0.4-0.5,0.4c-0.1,0-0.4,0.1-0.7,0.1c-0.2,0-0.6,0-0.8,0.1h-0.2v1.4h8.1v-1.4L127.4,101.1z"/>
	<path class="st0" d="M140.5,95.9c-0.2-0.5-0.6-1-1.1-1.4c-0.4-0.4-1-0.7-1.6-1c-0.6-0.2-1.3-0.6-2.1-0.8s-1.3-0.5-1.8-0.6
		s-0.8-0.4-1.2-0.6c-0.2-0.2-0.5-0.5-0.6-0.7c-0.1-0.2-0.2-0.6-0.2-1.1c0-0.6,0.2-1,0.7-1.4c0.5-0.4,1.1-0.6,1.9-0.6
		c1,0,1.8,0.4,2.5,1c0.7,0.7,1.2,1.6,1.3,2.7v0.2h1.6l-0.2-5.6h-1.6l-0.4,0.7c-0.4-0.2-0.8-0.4-1.4-0.5s-1.3-0.2-1.9-0.2
		c-1.7,0-3,0.5-4,1.4c-1,1-1.4,2.1-1.4,3.4c0,0.7,0.1,1.4,0.5,2.1c0.4,0.6,0.7,1.1,1.2,1.4c0.5,0.4,1,0.7,1.6,1
		c0.6,0.2,1.2,0.5,1.7,0.6c0.6,0.2,1.2,0.4,1.7,0.6c0.5,0.2,1,0.4,1.2,0.6c0.4,0.2,0.6,0.5,0.7,0.7c0.1,0.2,0.2,0.6,0.2,1.1
		c0,0.8-0.2,1.4-0.7,1.8c-0.5,0.5-1.2,0.6-2.2,0.6c-0.7,0-1.3-0.1-1.8-0.5c-0.6-0.4-1.1-0.7-1.4-1.1c-0.4-0.5-0.7-1-1-1.4
		c-0.2-0.5-0.5-1-0.5-1.4v-0.2h-1.6l0.1,5.9h1.6l0.2-0.8c0.4,0.2,0.8,0.5,1.4,0.7c0.8,0.4,1.7,0.5,2.7,0.5c1.8,0,3.3-0.5,4.3-1.4
		c1.1-1,1.7-2.2,1.7-3.7C140.9,97,140.8,96.4,140.5,95.9z"/>
	<path class="st0" d="M167.4,100.8c-0.4,0-0.6,0-1.1-0.1c-0.4,0-0.6-0.1-0.7-0.2c-0.2-0.1-0.5-0.4-0.6-0.6s-0.2-0.5-0.2-0.8V77.7
		l-0.4-0.4l-6.8,0.4v1.4h0.2c0.6,0,1.1,0.1,1.6,0.2c0.5,0.1,0.8,0.2,1.1,0.4c0.2,0.1,0.4,0.4,0.5,0.7c0.1,0.4,0.2,0.7,0.2,1.1v5.1
		c-0.5-0.2-1-0.4-1.6-0.6c-1.7-0.5-3.5-0.4-5.2,0.4c-1,0.5-1.8,1-2.4,1.8c-0.7,0.7-1.2,1.7-1.7,2.8c-0.4,1.1-0.6,2.2-0.6,3.3
		c0,1.2,0.2,2.4,0.6,3.5s0.8,1.9,1.6,2.7c0.6,0.7,1.3,1.3,2.3,1.7c0.8,0.4,1.8,0.6,2.7,0.6c0.8,0,1.8-0.2,2.7-0.6
		c0.7-0.4,1.3-0.7,1.8-1.3v1.2l0.4,0.4l5.8-0.4v-1.4L167.4,100.8z M161.4,90.1v9.1c-0.4,0.4-0.8,0.7-1.3,1.1
		c-0.5,0.4-1.2,0.5-1.9,0.5c-0.7,0-1.4-0.1-1.9-0.5c-0.6-0.4-1-0.8-1.3-1.3c-0.4-0.6-0.6-1.2-0.8-1.9c-0.1-0.7-0.2-1.4-0.2-2.4
		c0-1.1,0.1-2.1,0.4-3c0.2-0.8,0.5-1.6,0.8-2.2c0.4-0.6,0.8-1.1,1.3-1.3c0.5-0.4,1.1-0.5,1.7-0.5c0.5,0,1,0.1,1.3,0.2
		c0.4,0.1,0.7,0.4,1,0.6c0.2,0.2,0.5,0.5,0.7,0.8C161.3,89.7,161.4,89.9,161.4,90.1z"/>
	<path class="st0" d="M180.1,97.6l-0.1,0.2c-0.6,1.1-1.2,1.9-1.9,2.3c-0.6,0.4-1.4,0.6-2.3,0.6c-0.8,0-1.7-0.1-2.3-0.5
		c-0.6-0.4-1.2-0.8-1.6-1.3c-0.4-0.6-0.7-1.3-0.8-2.2c-0.1-0.7-0.2-1.6-0.2-2.5h10.4v-1.3c0-1-0.1-1.8-0.4-2.7
		c-0.2-0.8-0.6-1.6-1.1-2.2c-0.5-0.6-1.2-1.2-2.1-1.6c-0.8-0.4-1.8-0.6-3-0.6c-1.1,0-2.2,0.2-3.1,0.7c-1,0.5-1.7,1.1-2.3,1.9
		c-0.6,0.8-1.1,1.7-1.4,2.8c-0.4,1-0.5,2.1-0.5,3c0,1.2,0.1,2.3,0.5,3.3c0.4,1.1,0.7,1.9,1.4,2.8c0.6,0.8,1.4,1.4,2.4,1.9
		c1,0.5,2.2,0.7,3.4,0.7c1.4,0,2.8-0.4,4-1.2c1.1-0.7,2.1-1.8,2.7-3l0.1-0.2L180.1,97.6z M177.5,92.4h-6.8c0.1-1.4,0.5-2.7,1.1-3.5
		c0.7-0.8,1.6-1.3,2.5-1.3c0.6,0,1.1,0.1,1.4,0.4c0.4,0.2,0.7,0.6,1,1.1c0.2,0.5,0.4,1,0.5,1.6C177.5,91.3,177.5,92,177.5,92.4z"/>
	<g>
		<path class="st0" d="M66.1,101.1c-0.2,0-0.5,0-0.7-0.1c-0.2,0-0.5-0.1-0.6-0.2c-0.2-0.1-0.5-0.2-0.6-0.5c-0.1-0.2-0.2-0.5-0.2-0.8
			V86.5l-0.4-0.4l-5.8,0.4V88H58c0.2,0,0.6,0.1,1,0.1c0.4,0.1,0.6,0.2,0.8,0.2c0.2,0.1,0.5,0.4,0.6,0.6c0.1,0.2,0.2,0.5,0.2,0.8v9.7
			c0,0.4-0.1,0.6-0.1,0.8c-0.1,0.2-0.2,0.4-0.5,0.4c-0.1,0-0.4,0.1-0.6,0.1l-1,0.1v1.4h8v-1.4L66.1,101.1z"/>
		<circle class="st0" cx="61.9" cy="82.3" r="2.7"/>
	</g>
	<g>
		<path class="st0" d="M149.7,101.1c-0.2,0-0.5,0-0.7-0.1c-0.2,0-0.5-0.1-0.6-0.2c-0.2-0.1-0.5-0.2-0.6-0.5
			c-0.1-0.2-0.2-0.5-0.2-0.8V86.5l-0.4-0.4l-5.8,0.4V88h0.2c0.4,0,0.6,0.1,1,0.1c0.4,0.1,0.6,0.2,0.8,0.2c0.2,0.1,0.5,0.4,0.6,0.6
			c0.1,0.2,0.2,0.5,0.2,0.8v9.7c0,0.4-0.1,0.6-0.2,0.8c-0.1,0.2-0.2,0.4-0.5,0.4c-0.1,0-0.4,0.1-0.6,0.1l-1,0.1v1.4h8v-1.4
			L149.7,101.1z"/>
		<circle class="st0" cx="145.5" cy="82.3" r="2.7"/>
	</g>
</g>
</svg>
