<?xml version="1.0" encoding="utf-8"?>
<!-- Generator: Adobe Illustrator 20.1.0, SVG Export Plug-In . SVG Version: 6.00 Build 0)  -->
<svg version="1.1" id="Logo" xmlns="http://www.w3.org/2000/svg" xmlns:xlink="http://www.w3.org/1999/xlink" x="0px" y="0px"
	 viewBox="0 0 364.5 300.1" style="enable-background:new 0 0 364.5 300.1;" xml:space="preserve">
<style type="text/css">
	.st0{fill:#FACB0D;}
</style>
<g>
	<path class="st0" d="M252.1,177.9l-0.3,9.3c39.4,13.6,80.3-16,80.3-16l-16.3-7.4l6.1-19.9c-10.3,4.3-31.4,10.6-31.4,10.6l0.6-15.8
		c-21.5-2-56.7,1-90.6,7.5l56.1-65.2c6.3,3.5,11.7,4,13.4,0.7c2.3-4.5-3.1-14.4-12.1-22c-9-7.6-18.2-10.2-20.5-5.7
		c-1.5,2.9,0.1,7.8,3.8,13.1l-54.1,66.2L158.9,101l0,0.1l-0.2-0.2c3.3-3,6.4-5.8,9.5-8.5c5.1-4.4,10.4-8.6,15.5-13
		c0.4-0.4,0.4-0.4,0.6-1.7c0.3-1.6-1-3.3-1.6-4.9c-2.4-6.8-6.7-12.4-11.9-17.4c-1.4-1.3-2.6-3-4.2-3.8c-3.8-1.8-7.8-3.2-11.6-4.8
		c-2.4-1-4.4-0.4-6,0.9c-4,3.4-8,6.9-11.9,10.4c-3.5,3.2-6.9,6.5-10.4,9.8c-0.8,0.7-1.5,0.9-2.6,0.2c-1.7-1.1-3.1-0.8-4.3,0.5
		l-7.7,7.4c-0.9,0.8-1.7,1.7-2.6,2.5c-1.2,1.1-1.7,2.5-1.4,4.4c0.1,0.7,0,1.7-0.5,2.2c-1.9,2-4,3.8-6,5.6
		c-4.4,3.9-8.8,7.9-13.4,11.7c-1.7,1.4-5.6,5-6.6,6.6l0,0c0,0-4.1,5.1,10.1,21.3l0.1,0.1l0,0c0,0,1,1.2,2.6,2.9
		c4.7,4.7,14.6,13,21.5,6.5c2.4-2.3,4.9-4.6,7.3-6.9c4.5-4.3,9.1-8.7,13.6-13.1l1.4-1.2c4.4,4.5,28.6,29.5,32.6,34.2l72.4-83.1
		c0.7,0.8,3,3.2,3,3.2l-63.5,77c-2.4,0.5-9.6,2.3-11.9,2.9c-38.8,9.6-64.2,7.9-64.2,7.9l0.5-13c-46.9-11.4-80.1,15.7-80.1,15.7
		c8.4,3.1,15.3,6.8,15.3,6.8l-7.2,21.8c12.2-5.4,33-10.6,33-10.6l-0.5,14.3c7.5,4.8,36.3,6.2,65.7,3.3L109,228.6
		c0,0-11.2,16.5-8.5,23.4c6.1,2,21.4-14.8,21.4-14.8l36-41.8c4.1-0.8,8.1-1.6,12-2.6c9.9-2.5,20.2-4.7,30.2-6.6l46.6,51.1h0
		l13.6,14.9c15-7.8,15-18.6,15-18.6l-46.1-52.5C242.8,179,252.1,177.9,252.1,177.9z M129.5,122.5c-2.4,2.2-4.6,4.7-7.1,6.9
		c-2.6,2.3-5.4,4.5-8.1,6.7c-1.3-3.1-1.9-2.6-1.3-3.1c6.6-5.3,16.5-14.8,19.8-17.7c5.4-4.8,3.7-3.4,9-8.3c3.4-3.2,7.7-6.6,8.7-8.7
		c0.1-0.1,0-1.1,0-1.1c-14.4,9.1-26.5,23.4-38.1,35.2c-0.8-1-1.6-2-2.4-2.9c-0.5-0.8-1-1.5-1.6-2.3c2.5-2.3,5-4.5,7.4-6.8
		c5.6-5.3,11.2-10.6,16.8-16c0.9-0.8,1.6-1.8,2.3-2.8c-3.2,2-6.5,3.8-9.5,6.1c-3.3,2.6-6.3,5.7-9.3,8.5c-3,2.8-6.5,5.9-9.5,8.7
		c-1-1.3-2.1-2.6-3.3-3.9c-3.7-4.1-7.6-7.4-11-9.7c-0.2-0.2-0.4-0.5-0.7-0.7c8.1-6.6,16.9-14.7,23.6-23.4c-2.1,1.4-4.4,2.5-6.2,4.2
		c-5.4,4.9-10.6,10-15.8,15c-0.8,0.7-1.7,1.9-2.6,3c-0.8-0.4-2.6-1.4-4.2-2.3c1.8-1.9,4.3-3.8,6.2-5.4c3.8-3.4,7.7-6.7,11.6-10.1
		c1.7-1.5,3.2-3.1,5-4.5c0.5-0.4,1.5-0.3,2.3-0.5c0.8-0.1,1.9,0.1,2.4-0.3c1.3-1.1,2.6-2.1,3.8-3.2l0,0l0,0c1.9-1.6,3.7-3.3,5.5-5
		c1.6-1.5,3.2-3.3,4-5.3c2.1-5.3,7-7.9,10.5-11.7c3.7-3.9,7.9-7.3,12-10.9c1.1-1,2.4-1.6,4.2-0.8c1.7,0.7,3.5,1.2,4.9,1.6
		c-7.7,6.6-15.5,13.3-23.2,20c-0.3,0.2-0.1,0.9-0.2,1.7c3.8-1.6,6.2-4.5,9.1-6.8c3-2.4,6.1-4.5,9.1-6.9c2.8-2.3,4.9-5.5,8.6-6.6
		c0.2,0.2,0.3,0.4,0.5,0.6c-2.1,2.1-4.2,4.4-6.4,6.4c-9.6,8.8-19.3,17.5-28.9,26.3c-1.7,1.6-3.3,3.3-4.9,5c-1.5,1.5-3.3,2.7-3.1,5.7
		c3.3-3.1,6.5-6.1,9.8-9.2c6.6-6,13.2-12.1,19.8-18c5.2-4.7,10.5-9.2,15.7-13.9c0.9-0.8,1.7-0.8,2.8,0.2c4.4,4,8.5,8.4,11.2,13.8
		c0.7,1.4,1.1,2.9,1.6,4.3c1.1,1.4,1.1,2.7-0.1,3.8c-3.9,3.6-7.7,7.2-11.6,10.7c-4.7,4.4-9.5,8.7-14.2,13c-2.9,2.6-6,5.1-9,7.6
		C139.8,113.3,134.6,117.9,129.5,122.5z M174.4,148.7l-27.6-31.8c0,0,3.9-4,3.7-4.6c0,0,14.4,15.8,27.8,31.6L174.4,148.7z
		 M181,140.7c-14.7-18-25.1-32.2-25.2-32.4c1.1,0.7,3.9,3.4,7.4,6.8l16.3,17.1c1.5,1.7,2.8,3.2,3.6,4.3c0.2,0.3,0.4,0.5,0.6,0.8
		L181,140.7z M244.9,63.4c-1.1-1.2-2.3-2.2-3.3-3.5c-0.7-1-1.2-2.4-1.8-3.6c0.2-0.2,0.3-0.4,0.5-0.5c2.2,2.5,4.4,5.1,6.7,7.6
		c2.3,2.5,4.7,5,7.1,7.4c0.1-0.2,0.2-0.4,0.3-0.6c-3.1-3.9-8.5-9.5-11.9-13.8c5.8,4.5,11.4,7.9,24.6,23.9c-1.5-0.2-2.8,0.1-3.8-0.7
		C256.8,75,250.6,69.7,244.9,63.4z M290.2,176.8l0.7-20.1c9.4-1.2,27.1-8.6,27.1-8.6l-5.7,17.5l14.2,5.8
		c-34.3,21.7-71.2,15.1-71.2,15.1s3.9-3,19.2-4.3C289.7,180.8,290.2,176.8,290.2,176.8z M68.7,159L68,177.9l-27.6,8.6l6.5-17.1
		l-15.6-6c37.5-22.9,71.7-14,71.7-14c-9.8,4-14.8,3.2-24.5,3.7S68.7,159,68.7,159z M115.5,233.6c0,0-9.2,10.6-9.8,7.6
		c-0.6-3,9.8-16.4,9.8-16.4l21.6-26.2c2.4-0.3,4.9-0.6,7.3-0.9L115.5,233.6z M176.1,188.3c-53.2,12.9-81.7,9.8-105.2,5.5l1.2-33.2
		c10.9,1.3,45.6,11,104.6-5.1c58.9-16.1,111.7-13.9,111.7-13.9l-1.2,33C232.4,172,176.1,188.3,176.1,188.3z M260.1,241.4l-52.8-56.5
		c2.4-0.4,4.7-0.8,7-1.2c22.2,24.1,50.4,54.1,50.4,54.1C264.7,237.7,266.4,244.6,260.1,241.4z M266.4,231c-0.2,0.2,4.3,6-4.6-2.3
		c-0.6-0.7-21.7-23.2-42.5-45.9c1.4-0.2,2.8-0.5,4.2-0.7C242.6,203.9,264,228.4,266.4,231z"/>
	<path class="st0" d="M172.6,65.4c-3.8-0.4-31.5,27.3-33.5,31.1C142.5,94.7,171.9,67.4,172.6,65.4z"/>
	<polygon class="st0" points="223.4,178.2 223.4,178.2 223.4,178.2 	"/>
	<path class="st0" d="M168.1,162.1C168.1,162.1,168.1,162.2,168.1,162.1c-1.7,3.9-3.3,7.7-5,11.5c-1.6-3.2-3.3-6.4-4.9-9.6
		c-1.2,0.2-2.4,0.4-3.6,0.6c-0.1,7.2-0.1,14.4-0.2,21.6c1.2-0.2,2.4-0.4,3.6-0.6c0-4.7,0.1-9.4,0.1-14.1c1.2,2.4,2.4,4.8,3.7,7.2
		c0.8-0.1,1.7-0.3,2.5-0.4c1.2-2.8,2.5-5.6,3.7-8.5c0,4.7,0,9.4-0.1,14c1.2-0.2,2.4-0.4,3.6-0.7c0-7.2,0-14.5,0.1-21.7
		C170.5,161.7,169.3,161.9,168.1,162.1C168.1,162.1,168.1,162.1,168.1,162.1z"/>
	<path class="st0" d="M171.6,161.5C171.7,161.5,171.7,161.4,171.6,161.5C171.7,161.4,171.7,161.4,171.6,161.5
		C171.6,161.5,171.6,161.5,171.6,161.5z"/>
	<path class="st0" d="M237.8,149.2C237.8,149.2,237.8,149.2,237.8,149.2c-1.2,0.2-2.4,0.3-3.5,0.5c0,0,0,0,0,0c0,0,0,0.1,0,0.1
		c-1.6,3.8-3.1,7.6-4.7,11.4c-1.7-3.3-3.4-6.7-5.1-10c-1.2,0.2-2.4,0.4-3.5,0.6c0.1,7.4,0.2,14.7,0.3,22.1c1.2-0.2,2.4-0.4,3.6-0.6
		c-0.1-4.8-0.2-9.6-0.2-14.4c1.3,2.5,2.6,5,3.8,7.4c0.8-0.1,1.7-0.3,2.5-0.4c1.2-2.8,2.3-5.7,3.5-8.5c0.1,4.8,0.2,9.6,0.3,14.4
		c1.2-0.2,2.4-0.3,3.6-0.5C238.1,164,237.9,156.6,237.8,149.2C237.8,149.2,237.8,149.2,237.8,149.2z"/>
	<path class="st0" d="M243.4,148.5c-1.2,7.6-2.3,15.2-3.5,22.7c1.2-0.1,2.4-0.3,3.6-0.4c0.3-2.2,0.7-4.4,1-6.5
		c1-0.1,1.9-0.2,2.9-0.3c0.4,2.1,0.9,4.2,1.3,6.3c1.2-0.1,2.4-0.2,3.6-0.3c-1.5-7.3-3.1-14.6-4.6-21.9
		C246.3,148.1,244.8,148.3,243.4,148.5z M245,160.8c0.2-1.6,0.5-3.2,0.7-4.7c0.3,1.5,0.6,3,1,4.5C246.1,160.7,245.6,160.7,245,160.8
		z"/>
	<path class="st0" d="M205.1,173.5c0-2,0-4-0.1-6c2.4-0.5,4.8-0.9,7.2-1.3c0-1.1,0-2.2,0-3.3c-2.4,0.4-4.8,0.9-7.2,1.4
		c0-2,0-4-0.1-6.1c2.9-0.6,5.7-1.1,8.5-1.6c0-1.1,0-2.2,0-3.3c-4,0.7-8,1.5-12.1,2.3c0.1,7.3,0.1,14.6,0.2,21.9
		c4.1-0.8,8.1-1.5,12.2-2.2c0-1.1,0-2.2,0-3.3C210.8,172.4,208,172.9,205.1,173.5z"/>
	<path class="st0" d="M106.6,190.9c4.1-0.1,8.2-0.3,12.3-0.6c0-1.1,0-2.1,0.1-3.2c-2.9,0.2-5.8,0.4-8.7,0.5c0-1.9,0.1-3.8,0.1-5.8
		c2.4-0.1,4.9-0.2,7.3-0.4c0-1.1,0-2.1,0.1-3.2c-2.4,0.2-4.9,0.3-7.3,0.4c0-2,0.1-3.9,0.1-5.9c2.9-0.1,5.8-0.3,8.6-0.5
		c0-1.1,0-2.1,0.1-3.2c-4.1,0.3-8.1,0.5-12.2,0.7C107,176.8,106.8,183.9,106.6,190.9z"/>
	<path class="st0" d="M177.3,160.3c-1.4,7.5-2.7,15-4.1,22.5c1.2-0.2,2.4-0.4,3.6-0.7c0.4-2.2,0.8-4.3,1.2-6.5c1-0.2,2-0.4,2.9-0.6
		c0.4,2,0.8,4,1.2,6.1c1.2-0.2,2.4-0.5,3.6-0.7c-1.4-7-2.7-14-4.1-21C180.2,159.8,178.8,160,177.3,160.3z M178.6,172.3
		c0.3-1.6,0.6-3.1,0.8-4.7c0.3,1.5,0.6,2.9,0.8,4.4C179.7,172,179.2,172.2,178.6,172.3z"/>
	<path class="st0" d="M198.1,156.2c-3.6,0.7-7.1,1.4-10.7,2.1c0,7.3,0,14.5,0.1,21.8c3.6-0.7,7.2-1.4,10.8-2.1
		c0.5-0.6,1-1.2,1.5-1.9c0-6.2-0.1-12.4-0.1-18.6C199.1,157.1,198.6,156.6,198.1,156.2z M195.7,175.3c-1.5,0.3-3,0.6-4.5,0.9
		c0-5.1,0-10.2-0.1-15.3c1.5-0.3,3-0.6,4.5-0.9c0.1,0.1,0.2,0.2,0.3,0.3c0,4.9,0.1,9.8,0.1,14.7C195.9,175,195.8,175.2,195.7,175.3z
		"/>
	<path class="st0" d="M124.7,168.6c-1.2,0.1-2.4,0.2-3.6,0.3c-0.1,7.1-0.3,14.2-0.4,21.3c4.1-0.3,8.2-0.7,12.3-1.2
		c0-1.1,0-2.1,0.1-3.2c-2.9,0.3-5.8,0.6-8.7,0.9C124.5,180.7,124.6,174.6,124.7,168.6z"/>
	<path class="st0" d="M261.7,146.8c0.1,4.4,0.3,8.8,0.4,13.2c-1.8-4.3-3.6-8.6-5.4-12.8c-1.2,0.1-2.4,0.2-3.5,0.3
		c0.2,7.4,0.4,14.9,0.6,22.3c1.2-0.1,2.4-0.2,3.6-0.3c-0.1-4.4-0.2-8.8-0.4-13.1c1.8,4.3,3.6,8.5,5.4,12.9c1.2-0.1,2.4-0.1,3.6-0.1
		c-0.2-7.5-0.5-14.9-0.7-22.4C264.1,146.7,262.9,146.8,261.7,146.8z"/>
	<path class="st0" d="M135,188.8c1.2-0.1,2.4-0.3,3.6-0.4c0-3,0.1-6,0.1-9c2.4-0.3,4.8-0.7,7.3-1c0-1.1,0-2.2,0-3.2
		c-2.4,0.4-4.8,0.7-7.3,1c0-2,0.1-4,0.1-5.9c2.9-0.4,5.7-0.8,8.6-1.2c0-1.1,0-2.2,0-3.2c-4.1,0.6-8.1,1.2-12.2,1.7
		C135.3,174.6,135.2,181.7,135,188.8z"/>
	<path class="st0" d="M94.6,169.8c-0.5,0.5-1,1.1-1.6,1.6c-0.1,3.1-0.2,6.2-0.3,9.3c0.4,0.4,0.7,0.8,1.1,1.2
		c2.4,0.1,4.8,0.1,7.2,0.1c0.1,0.1,0.2,0.2,0.3,0.3c0,1.8-0.1,3.5-0.1,5.3c-0.1,0.1-0.2,0.2-0.3,0.3c-1.4,0-2.8,0-4.2,0
		c-0.1-0.1-0.2-0.2-0.3-0.3c0-0.9,0.1-1.9,0.1-2.8c-1.3,0-2.5-0.1-3.8-0.1c0,1.6-0.1,3.2-0.1,4.8c0.5,0.5,1,1,1.5,1.6
		c3.1,0.1,6.2,0.1,9.3,0.1c0.5-0.5,1-1,1.6-1.5c0.1-3.1,0.2-6.2,0.3-9.3c-0.5-0.4-0.9-0.8-1.4-1.3c-2.2,0-4.5,0-6.7,0
		c-0.1-0.1-0.2-0.2-0.3-0.3c0.1-1.8,0.1-3.5,0.2-5.3c0.1-0.1,0.2-0.2,0.3-0.3c1.4,0,2.8,0,4.2,0c0.1,0.1,0.2,0.2,0.3,0.3
		c0,0.9-0.1,1.9-0.1,2.8c1.2,0,2.4,0,3.7,0c0-1.6,0.1-3.1,0.1-4.7c-0.5-0.5-1-1.1-1.5-1.6C100.7,169.8,97.6,169.8,94.6,169.8z"/>
</g>
</svg>
