<svg xmlns="http://www.w3.org/2000/svg" viewBox="0 0 432 415.3"><style>.st0{display:none;} .st1{display:inline;fill:#FFFFFF;} .st2{display:inline;} .st3{fill:#808285;} .st4{fill:#00BFD6;} .st5{fill:#646569;} .st6{fill:#999999;} .st7{display:inline;fill:none;stroke:#BCBEC0;stroke-width:0.5709;stroke-miterlimit:10;} .st8{fill:#FFFFFF;} .st9{fill:#799900;} .st10{fill:#DCAA00;} .st11{opacity:0.9;fill:#FFFFFF;} .st12{fill:#FF4338;} .st13{fill:#FF7F3F;} .st14{display:inline;fill:none;stroke:#646569;stroke-width:0.5164;stroke-miterlimit:10;} .st15{display:inline;opacity:0.5;} .st16{fill:#77777A;} .st17{display:inline;fill:#00BFD6;} .st18{display:inline;fill:none;stroke:#BCBEC0;stroke-width:0.5;stroke-miterlimit:10;} .st19{fill:#5A621C;} .st20{fill:#D0202E;} .st21{fill:#AC8A00;} .st22{fill:#008FBE;} .st23{display:inline;fill:#646569;} .st24{fill:#FBFBFB;} .st25{fill:#A17CB7;} .st26{fill:#65666A;} .st27{fill:#78787A;} .st28{fill:#799A3D;} .st29{fill:#DBAB27;} .st30{fill:#18BFD5;} .st31{fill:#F47E42;} .st32{fill:#D6D6D6;} .st33{fill:#09BBD2;} .st34{fill:#EF483D;} .st35{fill:#A17BB7;} .st36{fill:#A27BB7;} .st37{fill:#F04A3E;} .st38{fill:#799A3E;} .st39{fill:#989898;} .st40{fill:#FFFFFF;stroke:#EFEFEF;stroke-miterlimit:10;} .st41{fill:#AB8B30;} .st42{fill:#FFFFFF;stroke:#EFEDED;stroke-miterlimit:10;} .st43{fill:none;stroke:#BCBEC0;stroke-width:2;stroke-linecap:round;stroke-linejoin:round;stroke-miterlimit:10;stroke-dasharray:0,10;} .st44{fill:#FFFFFF;stroke:#F2F2F2;stroke-miterlimit:10;} .st45{fill:#018FBE;} .st46{fill:none;stroke:#E3E3E3;stroke-miterlimit:10;} .st47{fill:#F2F2F2;} .st48{fill:none;stroke:#CF2030;stroke-miterlimit:10;} .st49{clip-path:url(#XMLID_147_);} .st50{fill:#231F20;} .st51{fill:#D2C8A0;} .st52{fill:#DBD3AD;} .st53{fill:#3B2314;} .st54{fill:#CF2030;} .st55{fill:#4C4842;} .st56{fill:none;} .st57{fill:none;stroke:#F2F2F2;stroke-miterlimit:10;} .st58{fill:#F0483E;} .st59{fill:#55565A;} .st60{fill:#231F20;stroke:#F2F2F2;stroke-miterlimit:10;} .st61{fill:#D9AC28;} .st62{fill:#5B632B;} .st63{fill:#6B478E;} .st64{opacity:0.2;fill:none;stroke:#989898;stroke-miterlimit:10;} .st65{fill:#834D9E;} .st66{fill:#0091BA;} .st67{fill:#D02030;} .st68{fill:#E75300;} .st69{fill:#5B632C;} .st70{fill:#735090;} .st71{opacity:0.2;fill:none;stroke:#BCBEC0;stroke-miterlimit:10;} .st72{clip-path:url(#XMLID_148_);} .st73{fill:#939598;} .st74{display:inline;fill:#DCAA00;} .st75{opacity:0.3;fill:#939598;} .st76{display:inline;fill:#799900;} .st77{display:inline;fill:#FF7F3F;} .st78{fill:#78787B;}</style><g id="BODY"><circle class="st47" cx="222.5" cy="237.3" r="166.4"/><path class="st34" d="M135.7 244c0-8.3-4.1-15.5-10.4-19.9 1.5-3.2 2.4-6.7 2.4-10.4 0-13.4-10.9-24.3-24.3-24.3-2.4-10.9-12.1-19.1-23.8-19.1-11.7 0-21.4 8.2-23.8 19.1h-.6c-13.4 0-24.3 10.9-24.3 24.3 0 3 .6 5.9 1.6 8.6-8 4-13.6 12.2-13.6 21.8 0 10.8 7.1 20 16.9 23.2.6 13 11.2 23.3 24.3 23.3 5.9 0 11.3-2.1 15.5-5.6v56.8h6.7v-57.9c4.1 3.1 9.2 5 14.7 5 12.8 0 23.3-10 24.3-22.6 8.4-3.8 14.4-12.3 14.4-22.3zm142.2 10.7c0-5.8.4-9.6.4-9.6.7-11.9 3.3-29.3 11-52.3.5-1.8 1.1-3.6 1.7-5.5 3.4-11 7.5-21.9 12.3-29.8 9.7-17.9 18.3-17 24.3-12.2 0 0 13 5.4 28 65 3.8 14.5 5.3 26.2 5.8 34.8 0 0 .4 3.8.4 9.6v3.3c-.2 6.3-1 14.2-3.3 22-2.8 10.3-8.1 20.7-18.3 26.7-.1 0-.1.1-.1.1-3.6 2.1-7.7 3.6-12.6 4.4-1.3.3-2.7.5-4.1.7V342h-8.3v-30.2c-1-.1-2-.3-3-.5-4.8-.8-9-2.3-12.6-4.4-.1 0-.1-.1-.1-.1-10.2-6-15.5-16.4-18.3-26.7-2.3-7.8-3.1-15.7-3.3-22V255c.1-.2.1-.2.1-.3z"/><path class="st54" d="M352.6 277.9c0-4.2.3-7 .3-7 .5-8.7 2.4-21.5 8.1-38.4.4-1.3.8-2.7 1.2-4 2.5-8.1 5.5-16.1 9-21.9 7.1-13.1 13.5-12.5 17.9-8.9 0 0 9.5 4 20.5 47.7 2.8 10.7 3.9 19.2 4.3 25.5 0 0 .3 2.8.3 7v2.5c-.1 4.6-.7 10.4-2.4 16.1-2 7.5-6 15.2-13.4 19.6l-.1.1c-2.6 1.5-5.7 2.6-9.2 3.2-1 .2-2 .4-3 .5V342H380v-22.2c-.7-.1-1.5-.2-2.2-.4-3.5-.6-6.6-1.7-9.2-3.2l-.1-.1c-7.5-4.4-11.4-12-13.4-19.6-1.7-5.7-2.2-11.5-2.4-16.1v-2.3c-.1-.1-.1-.1-.1-.2z"/><path class="st34" d="M245 49.1s-.4-14-12.1-24.2l-.2-.2c-.9-.8-1.8-1.6-2.8-2.3-.3-.2-.7-.4-1-.7-.7-.5-1.4-.9-2.2-1.4-.4-.2-.8-.4-1.2-.7-.7-.4-1.5-.7-2.2-1-.4-.2-.8-.3-1.2-.5-1-.4-2-.7-3.1-.9-.1 0-.3-.1-.4-.1h-.2l-1.8-.3-1.5-.3c-.8-.1-1.6-.1-2.4-.1-.3 0-.7-.1-1-.1-.3 0-.7 0-1 .1-.8 0-1.6 0-2.4.1l-1.5.3-1.8.3h-.2c-.1 0-.3.1-.4.1-1 .3-2.1.6-3.1.9-.4.1-.8.3-1.2.5-.8.3-1.5.7-2.2 1-.4.2-.8.4-1.2.7-.7.4-1.5.9-2.2 1.4-.3.2-.7.4-1 .7-1 .7-1.9 1.5-2.8 2.3l-.2.2c-11.8 10.2-12.1 24.2-12.1 24.2-.1 1.7-.1 4.5.5 8.5l.1.1c1.8 10.9 8.5 30.9 29.8 63.6l2.9 4.7 3.7-5.9c3.2-4.9 6.1-9.5 8.6-13.9l.3-.5c13.8-23.6 18.7-38.9 20.2-48l.1-.1c.5-4 .5-6.7.4-8.5z"/><ellipse class="st54" cx="211.7" cy="50.1" rx="18.7" ry="18.9"/><ellipse class="st8" cx="211.7" cy="50.1" rx="13.6" ry="13.7"/><path class="st8" d="M211.7 142.3c.9 0 1.8.3 2.6.9l56.7 48.3 14.8 12.6c1-3.6 2.2-7.4 3.5-11.4.5-1.8 1.1-3.6 1.7-5.5 3.4-11 7.5-21.9 12.3-29.8 6.2-11.4 11.9-15.2 16.8-15.2 2.8 0 5.3 1.2 7.5 3 0 0 13 5.4 28 65 2.4 9.2 3.9 17.3 4.8 24.1.2-.6.4-1.3.6-1.9.4-1.3.8-2.7 1.2-4 2.5-8.1 5.5-16.1 9-21.9 4.5-8.4 8.8-11.1 12.3-11.1 2.1 0 3.9.9 5.5 2.2 0 0 9.5 4 20.5 47.7 2.8 10.7 3.9 19.2 4.3 25.5 0 0 .3 2.8.3 7v2.5c-.1 4.6-.7 10.4-2.4 16.1-2 7.5-6 15.2-13.4 19.6l-.1.1c-2.6 1.5-5.7 2.6-9.2 3.2-1 .2-2 .4-3 .5v22.1h-6v-22.2c-.7-.1-1.5-.2-2.2-.4-3.5-.6-6.6-1.7-9.2-3.2l-.1-.1c-7.5-4.4-11.4-12-13.4-19.6-.4-1.5-.8-3.1-1.1-4.6-3.1 5.9-7.5 11.2-13.7 14.8-.1 0-.1.1-.2.1-3.6 2.1-7.7 3.6-12.6 4.4-1.3.3-2.7.5-4.1.7v30.1h-8.3v-30.2c-1-.1-2-.3-3-.5-4.8-.8-9-2.3-12.6-4.4-.1 0-.1-.1-.2-.1-1.1-.6-2.1-1.3-3.1-2.1v37.3H127v-79.2c-1.7 1.5-3.7 2.7-5.8 3.6-.9 12.6-11.4 22.6-24.3 22.6-5.5 0-10.6-1.9-14.7-5v57.9h-6.7V285c-4.2 3.5-9.6 5.6-15.5 5.6-13.1 0-23.7-10.3-24.3-23.3-9.8-3.2-16.9-12.3-16.9-23.2 0-9.6 5.5-17.8 13.6-21.8-1-2.7-1.6-5.5-1.6-8.6 0-13.4 10.9-24.3 24.3-24.3h.6c2.4-10.9 12.1-19.1 23.8-19.1 11.6 0 21.4 8.2 23.8 19.1 11.5 0 21.1 8 23.6 18.8V167c0-1.1.9-2 2-2h22.5c1.1 0 2 .9 2 2v23.7l55.7-47.4c.8-.7 1.7-1 2.6-1M135.6 242h143-143m76.1-104.7c-2.1 0-4.2.8-5.8 2.1l-47.4 40.4V167c0-3.9-3.1-7-7-7H129c-3.9 0-7 3.1-7 7v24c-4.2-3.4-9.2-5.7-14.8-6.4-4.1-11.4-15.2-19.4-27.6-19.4-12.4 0-23.4 7.9-27.6 19.3-14.7 1.6-26.1 14.1-26.1 29.2 0 2.1.2 4.2.7 6.2-7.9 5.4-12.7 14.3-12.7 24.1 0 11.6 6.8 22 17.2 26.7 2.2 14.1 14.3 24.7 29 24.7 3.6 0 7.2-.7 10.5-2v48.2c0 2.8 2.2 5 5 5h6.7c2.8 0 5-2.2 5-5v-49.5c3.1 1.1 6.3 1.6 9.7 1.6 10.5 0 19.8-5.6 25-14.1v62.1c0 2.8 2.2 5 5 5h169.4c2.8 0 5-2.2 5-5V313c2.7 1.2 5.7 2 8.8 2.6v26c0 2.8 2.2 5 5 5h8.3c2.8 0 5-2.2 5-5v-25.8c5-.8 9.7-2.4 13.7-4.7l.6-.3c.1 0 .1-.1.2-.1 3.4-2 6.4-4.5 9.1-7.5 3 7.6 7.6 13.3 13.7 16.9l.1.1c.2.1.3.2.5.3 2.6 1.4 5.4 2.5 8.5 3.2v18c0 2.8 2.2 5 5 5h6.1c2.8 0 5-2.2 5-5V324c3.4-.7 6.6-1.8 9.4-3.4.2-.1.3-.2.5-.3l.1-.1c7.5-4.5 12.7-12 15.5-22.4 1.5-5.2 2.4-11.1 2.6-17.3v-2.8c0-4-.3-6.8-.3-7.4-.5-8-2-16.8-4.4-26.1v-.1c-4.7-18.6-9.7-32.6-14.9-41.5-3.4-5.8-6-8.1-7.7-9.1-2.6-2-5.4-3-8.3-3-6.1 0-11.8 4.6-16.7 13.7-1.7 2.9-3.4 6.4-5.1 10.4-.4-1.8-.9-3.6-1.3-5.4v-.2c-6.3-25.2-13.1-44-20.1-56.1-4.6-7.9-8.1-10.8-9.9-11.9-3.3-2.5-6.7-3.8-10.3-3.8-7.8 0-14.7 5.8-21.2 17.8-4.4 7.4-8.7 17.7-12.7 30.7-.6 1.9-1.1 3.7-1.6 5.2v.1c-.5 1.4-.9 2.8-1.4 4.2l-9-7.7-56.7-48.3c-1.6-1.2-3.7-1.9-5.8-1.9zm0-120.9c.3 0 .7 0 1 .1.8 0 1.6 0 2.4.1l1.5.3 1.8.3h.2c.1 0 .3.1.4.1 1 .3 2.1.6 3.1.9.4.1.8.3 1.2.5.8.3 1.5.7 2.2 1 .4.2.8.4 1.2.7.7.4 1.5.9 2.2 1.4.3.2.7.4 1 .7 1 .7 1.9 1.5 2.8 2.3l.2.2C244.6 35.1 245 49.1 245 49.1c.1 1.7.1 4.5-.5 8.5l-.1.1c-1.5 9.1-6.4 24.4-20.2 48l-.3.5c-2.6 4.4-5.4 9-8.6 13.9l-3.7 5.9-2.9-4.7c-21.4-32.6-28-52.6-29.8-63.6l-.1-.1c-.6-4-.7-6.8-.5-8.5 0 0 .4-14 12.1-24.2l.2-.2c.9-.8 1.8-1.6 2.8-2.3.3-.2.7-.4 1-.7.7-.5 1.4-.9 2.2-1.4.4-.2.8-.4 1.2-.7.7-.4 1.5-.7 2.2-1 .4-.2.8-.3 1.2-.5 1-.4 2-.7 3.1-.9.1 0 .3-.1.4-.1h.2l1.8-.3 1.5-.3c.8-.1 1.6-.1 2.4-.1h1.1m0-5h-1.4c-.8 0-1.6.1-2.5.2-.5.1-1 .1-1.4.2-.1 0-.3.1-.4.1-.2 0-.3 0-.5.1-.4.1-.8.1-1.3.2-.2 0-.5.1-.7.2h-.1c-.1 0-.2.1-.3.1-1.2.3-2.3.7-3.4 1.1-.4.1-.8.3-1.1.5l-.2.1c-.9.4-1.8.8-2.6 1.2-.4.2-.9.5-1.4.8-.8.4-1.6 1-2.5 1.6-.1.1-.2.1-.3.2l-.9.6c-1.1.8-2.1 1.6-3.1 2.5-.1.1-.2.1-.2.2-12.7 11-13.8 26-13.8 27.7-.2 2.6 0 5.6.5 9 0 .4.1.8.2 1.2 2 11.5 8.9 32 30.3 64.7 0 .1.1.2.1.2l2.9 4.7c.9 1.5 2.5 2.4 4.3 2.4 1.7 0 3.3-.9 4.3-2.4l3.6-5.9c3.1-4.8 6-9.5 8.7-14l.3-.4c.1-.1.2-.3.2-.4 14.1-24.1 18.9-39.8 20.5-48.9.1-.4.2-.9.2-1.3.5-3.4.7-6.4.5-8.9-.1-1.7-1.1-16.6-13.8-27.7l-.2-.2c-1-.9-2-1.7-3.1-2.5l-.9-.6c-.1-.1-.2-.1-.3-.2-.9-.6-1.7-1.1-2.5-1.6-.5-.3-1-.5-1.4-.8-.8-.4-1.7-.8-2.6-1.2l-.3-.1c-.4-.2-.8-.3-1.2-.5-1.1-.4-2.3-.8-3.4-1.1-.1 0-.2-.1-.3-.1h-.1c-.2-.1-.5-.1-.7-.2-.5-.1-.9-.2-1.3-.2-.2 0-.3 0-.5-.1-.1 0-.3-.1-.4-.1-.4-.1-.8-.2-1.4-.2-.9-.1-1.8-.1-2.5-.2h-1.6z"/><path class="st54" d="M322.1 235L271 191.5l-56.7-48.3c-1.5-1.3-3.7-1.3-5.1 0l-55.7 47.4V167c0-1.1-.9-2-2-2H129c-1.1 0-2 .9-2 2v46.2L101.3 235c-2.8 2.4-1.1 7 2.6 7H127v99.9h169.4V242h23.1c3.7 0 5.4-4.6 2.6-7z"/><path class="st34" d="M269.9 277.5h-35.2c-.6 0-1 .4-1 1v63.4h37.2v-63.4c0-.6-.4-1-1-1z"/><circle class="st47" cx="243.2" cy="309.7" r="3.8"/><path class="st34" d="M148.7 263.4H188v39.3h-39.3z"/><path class="st54" d="M188.9 282h-18.6v-18.6h-4V282h-18.6v3.9h18.6v18.6h4v-18.6h18.6z"/></g></svg>