<svg xmlns="http://www.w3.org/2000/svg" viewBox="120 6.7 547.6 596.6" enable-background="new 120 6.7 547.6 596.6"><path d="M188.8 561.5h1.5l19.2 40.2h-9l-4-8.8h-14.8l-4.2 8.8h-8l19.3-40.2zm5.6 25.5l-5-11.7h-.2L184 587h10.4zm64.2 15.7c-2.9 0-5.7-.4-8.2-1.3s-4.8-2.3-6.7-4-3.3-3.8-4.4-6.3c-1.1-2.5-1.5-5.4-1.5-8.4 0-3.4.6-6.5 1.7-9.2 1.1-2.7 2.7-5 4.6-6.7 1.9-1.9 4.4-3.3 7.1-4.2 2.7-1 5.6-1.3 8.6-1.3 2.9 0 5.4.4 7.7 1.1 2.3.8 4.2 1.7 5.9 3.1l-3.1 6.7h-.2c-1.5-1.7-3.1-2.9-4.8-3.6s-3.6-1.1-5.6-1.1c-1.9 0-3.6.4-5.2 1-1.5.6-3.1 1.5-4.2 2.7-1.1 1.1-2.1 2.7-2.9 4.4-.8 1.7-1 3.6-1 5.9 0 2.5.4 4.6 1 6.5.8 1.9 1.5 3.4 2.9 4.8s2.7 2.3 4.2 2.9c1.5.6 3.4 1 5.2 1 1.1 0 2.3-.2 3.3-.4s1.9-.6 2.9-1 1.7-1 2.7-1.5 1.5-1.1 2.3-1.7h.4l2.9 5.6c-1.9 1.7-4.2 3.1-6.7 4-2.8.4-5.7 1-8.9 1zm62.9-41.2h1.5l19.2 40.2h-9l-4-8.8h-14.8l-4.2 8.8h-8l19.3-40.2zM327 587l-5-11.7h-.2l-5.2 11.7H327zm47.9-25.1H391c3.1 0 5.9.4 8.4 1.1s4.6 1.9 6.3 3.4c1.7 1.5 3.1 3.4 4 5.7 1 2.3 1.3 4.8 1.3 7.7 0 3.4-.6 6.5-1.5 9.2-1.1 2.7-2.5 5-4.4 6.9-1.9 1.9-4.2 3.3-6.9 4.2-2.7 1-5.6 1.5-8.8 1.5H375v-39.9h-.1zm15.2 33.9c1.7 0 3.4-.2 5-.8s2.9-1.3 4-2.7c1.1-1.1 2.1-2.7 2.7-4.6s1-4 1-6.5c0-1.9-.2-3.8-.8-5.4-.6-1.7-1.3-3.1-2.3-4.2-1-1.1-2.3-2.1-3.8-2.9-1.5-.6-3.3-1-5.2-1H383v28l7.1.1zm55.9-33.9h22.4l-.6 6.3h-14.2v9.8h13.6l-.8 6.5h-13v10.7h15.9l-.8 6.7H446v-40zm61.6-.6h1.3l16.7 23.8h.2l16.3-23.8h1.3l5.4 40.6h-7.9l-2.7-23.2h-.4l-11.9 18h-.8l-11.9-17.8h-.2l-3.1 23H502l5.6-40.6zm86.6 25.5l-16.3-24.7v-.2h9l11.3 17.4h.4l11.3-17.4h8.2v.2l-16.5 24.7v15.1H594v-15.1h.2z" fill="#fff"/><path fill="#650A34" d="M560 267.7c0 91.8-74.4 166.4-166.2 166.4s-166.2-74.4-166.2-166.4c0-91.8 74.4-166.2 166.2-166.2 91.8 0 166.2 74.4 166.2 166.2z"/><path fill="#fff" d="M331.9 462.4c-8.2-11.5-27.4-21.3-27.2-21.7.2 0-8.2 17.4-1 30.9 7.5 13.4 19.9 18.2 28 14.9 8.1-3.2 8.4-12.2.2-24.1zM209.6 197.3c0 .2-18.2-6.9-30.7 1.7-12.5 8.8-15.7 21.5-11.7 28.9 4.2 7.9 13 7.5 24-1.5 10.6-8.8 18-29.1 18.4-29.1zm-5.5-11.8c12.5-6.7 25.3-25.3 25.7-25.3 0 .2-16.3-10.5-30.9-4.6-14.6 6.1-20.9 18-18.8 26.3 2.1 8.7 11.1 10.3 24 3.6zm-38.8 90c5.6 6.7 14.4 4.6 22.8-6.5 8.2-10.9 10.9-32.2 11.1-32.2 0 .2-19.2-2.9-29.3 8-9.7 11.2-10.1 24.2-4.6 30.7zm6.6 15.7c-7.5 12.8-5.2 25.7 1.5 31 6.9 5.4 14.8 1.5 20.9-11.1 5.7-12.5 3.8-33.7 4.2-33.9 0 .2-19.2 1.2-26.6 14zm208.9 202.1c7.7-5.2 5.9-14-5.2-23.4-11.3-9-32.6-14.2-32.6-14.4.2 0-4.4 19 5.9 30.3 10.6 11.1 24.4 12.6 31.9 7.5zM122.2 281.1c-.4 0 3.8 30.9 16.7 42.4 12.3 11.7 21.3 9.6 24.1 1.5 2.9-8.2-.6-19.5-11.3-31.4-10.7-12.1-29.5-12.7-29.5-12.5zm10.4 55.8c-.4 0 10 29.5 24.7 38.3 14.2 8.8 22.6 5 23.8-3.6 1.3-8.8-4.4-19.2-17.2-28.7s-31.3-6.2-31.3-6zm94.8-189.6c14.2-4 32.8-20.3 33.2-20.1 0 .2-13.2-14-29.9-10.9-16.5 3.3-26.1 13.8-26.3 22.6 0 9 8.5 12.4 23 8.4zm65.4 298c-5.4-13.2-21.7-26.8-21.7-27 .2 0-11.7 15.3-7.5 29.9 4.4 14.8 15.1 22 23.6 20.7 8.5-1.3 10.8-10.1 5.6-23.6zM150 242.8c-7.9-14-26.3-18.4-26.4-18.4-.4-.2-2.7 30.9 7.5 45 9.8 13.8 19.2 13.8 23.6 6.5 4.5-7.5 3.4-19.2-4.7-33.1zm174.4 287.4c-.4.4 31.4 6.1 47.3-3.1 15.5-8.6 16.3-18.2 8.8-23.2-7.7-5.2-20.3-5-35.1 1.5-15.2 6.6-21.2 24.7-21 24.8zm-100.6-51.9c-.4.2 24.5 19 41.4 17.4 16.5-1.1 20.9-9.4 17.1-17.2-4-8-14.6-13.4-30.3-13.6-15.5-.4-28.2 13.4-28.2 13.4zm47 31.6c-.4.4 28.2 13 44.8 7.9 16.3-4.8 19-14 13.2-20.5-5.9-6.9-17.6-9.6-33-6.5-15.5 2.8-25 18.9-25 19.1zm-13.7-409.5c13.4-10.7 18.6-31.6 18.6-31.6s-22.4-1.3-36.8 9.4c-18.2 13.4-17.8 23.6-12.8 28.4 5.4 5.1 15.3 6.2 31-6.2zm1.4 319.6c-2.5-14-15.7-30.7-15.7-31 .2 0-14.6 12.5-13.4 27.6 1.3 15.1 10.3 24.7 18.6 25.1 8.8.8 12.8-7.5 10.5-21.7zm-74.2 17.5c-.4.2 20.3 23.6 37 25.7 16.3 2.5 22.2-4.6 20.1-13-2.3-8.6-11.5-16.1-26.6-19.7-15.1-3.8-30.5 7-30.5 7zm-30.6-47.7c-.4 0 15.3 27 31.4 32.8 15.5 5.7 22.8.2 22.4-8.4-.6-9-8-18.2-22.2-24.7-14.4-7.2-31.6.1-31.6.3zm36.8-23c7.7 4 14.8-1.7 18-15.3 3.1-13.6-2.9-34.1-2.7-34.3.2 0-18.4 5.2-23 19.4-4.6 14.3 0 26.5 7.7 30.2zm39.6 21.4c.4-14.2-9.4-33.2-9.4-33.3.2 0-16.9 9-18.6 24-1.7 15.1 5.2 26.3 13.4 28.4 8.5 2.2 14.1-4.7 14.6-19.1zm-14-285.9c4.2-16.5-6.7-31.4-7.1-31.4-.6-.4-26.3 24.3-27.8 42.2-1.9 17.4 5.7 23 14.2 19.7 9-3.5 16.5-14 20.7-30.5zm-56.5 90.4c-4.6-15.3-21.7-23.8-21.7-23.8-.4-.2-10 29.9-2.9 45.8 6.7 15.7 15.7 17.4 21.7 11.3 6.2-6.1 7.7-17.9 2.9-33.3zm21.7-47.3c-.6-16.3-15.1-28.2-15.3-28.2-.4-.4-17.8 27.8-14.6 44.8 2.7 16.9 11.3 20.5 18.6 15.7 7.6-4.7 12-16.2 11.3-32.3zm274.8 341.3c8 3.3 20.5-1.5 28-14.9 7.3-13.4-1.1-30.9-1-30.9 0 .4-19 10-27.4 21.7-8.2 11.7-7.9 20.7.4 24.1zm140.3-260c10.7 9 19.7 9.4 24 1.5 4-7.7.8-20.3-11.7-28.9-12.5-8.6-30.7-1.7-30.7-1.7.4-.3 8 20 18.4 29.1zm11.1-44.7c2.1-8.4-4.2-20.3-18.8-26.3-14.6-5.9-30.9 4.6-30.9 4.6.4 0 13.2 18.6 25.7 25.3 12.9 6.6 21.9 5 24-3.6zm10 62.9c-10.2-10.9-29.3-8-29.3-8 .4 0 3.1 21.3 11.1 32.2 8.4 10.9 17.2 13.2 22.8 6.5 5.7-6.6 5.3-19.6-4.6-30.7zm-28.4 32.4c.2.2-1.5 21.5 4.2 33.9 6.1 12.6 14 16.7 20.9 11.1 6.7-5.4 9-18.2 1.7-31-7.4-12.9-26.8-13.9-26.8-14zM438.6 485.6c10.5-11.3 5.9-30.3 5.9-30.3 0 .4-21.5 5.4-32.6 14.4-11.1 9.4-13 18.2-5.2 23.4 7.6 5.3 21.4 3.8 31.9-7.5zm197.3-192.2c-10.7 11.9-14.4 23.2-11.3 31.4 2.9 8 11.9 10.2 24.1-1.5 12.8-11.7 17.1-42.5 16.7-42.4 0 0-18.8.6-29.5 12.5zM624 342.8c-12.8 9.6-18.4 19.9-17.2 28.7 1.1 8.6 9.6 12.5 23.8 3.6 14.8-8.8 25.1-38.3 24.5-38.3-.1-.1-18.5-3.6-31.1 6zm-40.8-203.9c0-8.8-9.8-19.4-26.3-22.6-16.5-3.1-29.9 10.9-29.9 10.9.4 0 19 16.1 33.2 20.1 14.7 4 23 .6 23-8.4zm-82.6 330c8.4 1.3 19.2-5.9 23.6-20.7 4.2-14.8-7.5-29.9-7.5-29.9 0 .2-16.3 14-21.7 27-5.4 13.5-3.1 22.3 5.6 23.6zm132.4-193c4.4 7.3 13.8 7.3 23.6-6.5 10.3-14 8-45 7.5-45-.2-.2-18.6 4.4-26.4 18.4-8.2 13.9-9.3 25.6-4.7 33.1zM442.5 505.5c-14.9-6.7-27.6-6.7-35.3-1.5-7.5 5-6.9 14.4 8.8 23.2 15.9 9.2 47.5 3.4 47.1 3.1.3-.2-5.7-18.3-20.6-24.8zm93.1-40.6c-15.5.4-26.1 5.7-30.3 13.6-4 7.9.4 16.1 17.1 17.2 16.9 1.5 41.8-17.2 41.4-17.4 0 0-12.6-13.8-28.2-13.4zm-43.9 25.7c-15.5-3.1-27.2-.4-33 6.5-5.7 6.7-3.1 15.7 13.2 20.5 16.7 5.4 45.2-7.5 44.8-7.9.1 0-9.4-16.1-25-19.1zm69.8-383.9c5-5 5.4-14.9-12.8-28.4-14.4-10.7-36.8-9.4-36.8-9.4s5.2 20.7 18.6 31.6c15.7 12.3 25.6 11.2 31 6.2zm-22 335.2c8.4-.4 17.4-10 18.6-25.1 1.1-15.1-13.4-27.6-13.4-27.6.2.2-13.2 17.1-15.7 31-2.2 14 1.8 22.3 10.5 21.7zm33.3-11.5c-15.1 3.6-24.3 11.1-26.6 19.7-2.3 8.4 3.8 15.5 20.1 13 16.7-2.1 37.4-25.7 37-25.7 0 .1-15.3-10.7-30.5-7zm29.7-41.2c-14.2 6.7-21.8 15.9-22.2 24.7-.6 8.8 6.9 14.4 22.4 8.4 15.9-5.7 31.8-32.8 31.4-32.8-.2.1-17.4-7.2-31.6-.3zm2.3-52.7c-4.8-14.2-23.2-19.4-23-19.4.2.2-5.9 20.7-2.7 34.3 3.4 13.8 10.3 19.4 18 15.3 7.7-3.6 12.3-15.8 7.7-30.2zM572 407.4c8-2.1 15.1-13.4 13.4-28.4-1.7-14.9-18.8-24-18.6-24 .2.2-9.8 19.4-9.4 33.3.7 14.3 6.2 21.2 14.6 19.1zm20-274.8c8.6 3.3 16.3-2.3 14.4-19.7-1.4-17.9-27.3-42.6-27.8-42.3-.2 0-11.3 14.9-7.1 31.4 4.2 16.8 11.7 27.3 20.5 30.6zm38.9 93.7c5.9 6.1 15.1 4.4 21.7-11.3 7.1-15.9-2.5-46-2.9-45.8-.2 0-17.1 8.2-21.7 23.8-4.8 15.1-3.3 26.9 2.9 33.3zm-13.4-48.5c7.3 4.8 15.9 1.1 18.8-15.7 3.3-17.1-14.2-45.2-14.6-44.8-.2 0-14.8 11.9-15.3 28.2-.8 16 3.6 27.5 11.1 32.3z"/><path fill="#fff" stroke="#fff" stroke-width="6" stroke-miterlimit="10" d="M393.8 421.4c-84.7 0-153.7-69-153.7-153.7S309.1 114 393.8 114s153.7 69 153.7 153.7-69 153.7-153.7 153.7zm0-302.5c-82 0-148.9 66.7-148.9 148.9 0 82 66.7 148.9 148.9 148.9S542.7 350 542.7 267.8s-66.9-148.9-148.9-148.9z"/><path fill="#fff" d="M396.5 185.1c30.9 1 48.5 20.1 56.2 30.7l26.1-23.8c-4.2-5.6-30.1-35.8-81.6-37.2-53.7-1.5-82.8 31.4-83.8 64.8-.4 15.5 6.1 30.3 17.8 40.8 12.6 10.9 28.9 15.3 45 19.5l30.5 7.1c14.6 3.3 38.9 9 38.3 30.7-.4 16.1-16.5 32-51.2 31-38.7-1.1-53.9-22-60.8-33.9-6.3 6.1-19.7 18.8-28.4 27 8.2 10.3 23.2 24.9 48.7 33 10.5 3.3 22.6 5.6 37 5.9 47 1.3 92.4-17.1 93-68.6.2-16.1-4.8-29.7-15.5-40.4-5-4.8-10.5-8.4-16.5-11.3-1.5-.8-3.1-1.3-4.6-2.1-5.7-2.3-11.7-4-17.4-5.6-3.1-.8-6.1-1.5-9.2-2.1-.2 0-29.5-6.5-30.3-6.7-15.7-3.8-39.5-9.4-38.9-29.9.4-12.5 14.7-29.7 45.6-28.9zM309 65.5c-1.7.8-3.4 1.1-5 1.5s-3.1.4-4.2.4c-1.3 0-2.5 0-3.6-.4-1.1-.2-2.1-.6-3.3-.8l1.5-6.7.4-.2c.8.2 1.5.6 2.3.8 1 .2 1.9.4 2.9.4s2.1 0 3.3-.2c1.1-.2 2.3-.4 3.4-1 .8-.4 1.5-.8 2.1-1.1.6-.4 1.1-1 1.5-1.5.4-.6.6-1.1.8-1.9 0-.8 0-1.3-.4-2.3-.2-.6-.6-1.1-1.1-1.5s-1.1-.8-1.9-1.1c-.8-.4-1.9-.6-3.1-.8-1.3-.2-2.9-.4-4.6-.4-2.3-.2-4.4-.4-6.1-.8-1.7-.4-3.1-1-4.4-1.7-1.3-.8-2.1-1.5-2.9-2.5s-1.3-2.1-1.9-3.3c-.6-1.3-.8-2.7-.6-4.2.2-1.5.6-2.9 1.1-4.2.6-1.3 1.5-2.5 2.7-3.6 1.1-1.1 2.7-1.9 4.2-2.7 1.5-.6 2.9-1 4.2-1.3 1.3-.4 2.5-.6 3.6-.6 1.1-.2 2.1-.2 3.1 0 1 0 1.9.2 2.7.4l-.2 6.9h-.2c-1.5-.4-3.3-.8-5.2-.8-1.9 0-3.6.4-5.6 1.1-.6.2-1 .6-1.5.8-.6.2-1 .8-1.1 1.1-.2.4-.6 1-.6 1.5-.2.6 0 1.1.2 1.7.2.6.6 1 1 1.3.4.4 1 .8 1.7 1 .8.2 1.7.6 3.1.8s2.9.4 5 .6c2.3.2 4.2.6 5.9 1 1.7.4 3.1.8 4.4 1.5 1.1.6 2.3 1.5 3.1 2.5.8 1 1.5 2.3 2.1 3.8.6 1.3.8 2.9.8 4.4-.2 1.5-.6 3.1-1.3 4.4-.8 1.5-1.7 2.9-3.1 4-1.3 1.2-3.3 2.9-5.2 3.7zm20.3-50.4l7.9-1.7 6.9 33.7L359 44l.6 6.9-22 4.6-8.3-40.4zm61.6-7.9h1.5l20.5 41.4-9.4.2-4.4-9.2-15.1.2-4 9.2-8.4.2 19.3-42zm6.1 26.1l-5.4-11.9h-.2l-5.2 12.1 10.8-.2zm40.2-15.9l-13-2.3.6-6.5 35.3 6.1-1.7 6.3-13.2-2.3-6 34.3-8-1.3 6-34.3zm44.7 3.8l21.7 8-2.9 5.9-13.6-5.1-3.6 9.6 13.2 5-3.1 6.1-12.6-4.8-3.8 10.3 15.3 5.7-3.1 6.1-22-8.2 14.5-38.6z"/></svg>