<?xml version="1.0" encoding="utf-8"?>
<!-- Generator: Adobe Illustrator 16.0.0, SVG Export Plug-In . SVG Version: 6.00 Build 0)  -->
<!DOCTYPE svg PUBLIC "-//W3C//DTD SVG 1.1//EN" "http://www.w3.org/Graphics/SVG/1.1/DTD/svg11.dtd" [
	<!ENTITY ns_flows "http://ns.adobe.com/Flows/1.0/">
	<!ENTITY ns_extend "http://ns.adobe.com/Extensibility/1.0/">
	<!ENTITY ns_ai "http://ns.adobe.com/AdobeIllustrator/10.0/">
	<!ENTITY ns_graphs "http://ns.adobe.com/Graphs/1.0/">
]>
<svg version="1.1" id="Layer_1" xmlns:x="&ns_extend;" xmlns:i="&ns_ai;" xmlns:graph="&ns_graphs;"
	 xmlns="http://www.w3.org/2000/svg" xmlns:xlink="http://www.w3.org/1999/xlink" xmlns:a="http://ns.adobe.com/AdobeSVGViewerExtensions/3.0/"
	 x="0px" y="0px" width="425.784px" height="274.027px" viewBox="0 0 425.784 274.027" enable-background="new 0 0 425.784 274.027"
	 xml:space="preserve">
<g>
	<g>
		<g>
			<g>
				<path fill="#F9CC1E" d="M26.682,202.775c1.481-17.97,4.538-34.603,9.172-49.89c4.63-15.286,10.006-29.044,16.12-41.273
					c6.115-12.229,12.599-22.834,19.456-31.823c6.853-8.985,13.341-16.26,19.455-21.818H13.341V11h128.406v50.028
					c-1.854,1.298-4.447,4.03-7.782,8.199c-3.335,4.169-7.087,9.545-11.256,16.12c-4.169,6.579-8.478,14.223-12.925,22.93
					c-4.446,8.711-8.572,18.3-12.368,28.766c-3.8,10.47-6.996,21.727-9.588,33.769c-2.598,12.047-4.17,24.554-4.726,37.521
					L26.682,202.775z"/>
				<path fill="#F9CC1E" d="M297.938,165.254h30.017V78.816l-25.57,10.562l-14.175-30.573L344.63,11h40.023v154.254h27.516v39.467
					H297.938V165.254z"/>
			</g>
		</g>
		<g>
			<path fill="#FFFFFF" d="M21.908,257.671c-1.833,0-3.477-0.259-4.93-0.776c-1.455-0.518-2.689-1.354-3.705-2.51
				c-1.016-1.155-1.803-2.649-2.36-4.481c-0.558-1.832-0.836-4.063-0.836-6.693v-27.847h8.963v28.922c0,0.956,0.06,1.792,0.179,2.51
				c0.12,0.717,0.338,1.314,0.658,1.792c0.318,0.478,0.786,0.837,1.404,1.076c0.617,0.239,1.404,0.359,2.36,0.359
				c1.314,0,2.45-0.189,3.406-0.568c0.957-0.378,1.733-0.827,2.331-1.345v-32.747h8.964v41.531h-6.394l-1.135-2.869
				c-0.957,1.037-2.132,1.903-3.526,2.6C25.891,257.322,24.099,257.671,21.908,257.671z"/>
			<path fill="#FFFFFF" d="M46.886,215.363h11.892l4.542,17.808c0.478,1.673,0.816,3.327,1.016,4.959
				c0.199,1.634,0.358,3.148,0.478,4.542h0.06c0.12-1.394,0.278-2.907,0.478-4.542c0.199-1.633,0.518-3.287,0.956-4.959
				l4.124-17.808h12.549v41.531h-8.605v-18.106c0-3.426,0.069-6.514,0.209-9.263c0.139-2.749,0.269-4.879,0.389-6.394h-0.12
				c-0.12,0.837-0.269,1.813-0.448,2.928c-0.179,1.116-0.398,2.311-0.657,3.585c-0.26,1.275-0.538,2.58-0.836,3.914
				c-0.299,1.335-0.608,2.62-0.926,3.854l-3.526,12.609h-8.127l-3.406-12.011c-0.319-1.195-0.627-2.489-0.926-3.884
				c-0.298-1.394-0.567-2.769-0.807-4.124c-0.239-1.354-0.458-2.639-0.657-3.854c-0.2-1.215-0.358-2.221-0.478-3.018h-0.06
				c0.039,0.797,0.099,1.793,0.179,2.988c0.079,1.195,0.159,2.501,0.239,3.915c0.08,1.415,0.139,2.889,0.179,4.422
				c0.04,1.534,0.06,3.038,0.06,4.512v17.927h-7.769V215.363z"/>
			<path fill="#FFFFFF" d="M113.514,215.363h9.262l11.234,41.531h-9.501l-1.912-8.426h-9.74l-2.032,8.426h-9.143L113.514,215.363z
				 M114.529,241.716h6.514l-1.613-6.991c-0.439-1.872-0.768-3.526-0.986-4.96c-0.219-1.434-0.388-2.668-0.508-3.705h-0.06
				c-0.16,1.037-0.349,2.271-0.568,3.705c-0.219,1.434-0.567,3.088-1.046,4.96L114.529,241.716z"/>
			<path fill="#FFFFFF" d="M139.209,215.363h8.485l8.605,18.405c0.717,1.514,1.383,3.147,2.001,4.9
				c0.617,1.753,1.145,3.327,1.583,4.721h0.06c-0.081-0.637-0.17-1.394-0.269-2.271c-0.1-0.875-0.189-1.812-0.269-2.809
				c-0.08-0.995-0.149-2.001-0.209-3.018c-0.06-1.016-0.089-2.002-0.089-2.958v-16.971h8.067v41.531h-8.963l-8.007-17.868
				c-0.877-1.912-1.624-3.695-2.241-5.348c-0.618-1.653-1.146-3.177-1.583-4.571c0,0.04-0.021,0.04-0.06,0
				c0.119,1.036,0.318,2.669,0.597,4.9c0.278,2.231,0.418,4.642,0.418,7.23v15.657h-8.127V215.363z"/>
			<path fill="#FFFFFF" d="M190.839,257.671c-2.749,0-5.149-0.409-7.201-1.225c-2.052-0.816-3.765-2.092-5.139-3.825
				s-2.411-3.953-3.107-6.663c-0.697-2.709-1.046-5.956-1.046-9.741c0-7.568,1.384-13.066,4.153-16.493
				c2.769-3.426,6.881-5.139,12.34-5.139c5.417,0,9.501,1.703,12.25,5.109c2.749,3.406,4.124,8.874,4.124,16.403
				c0,7.61-1.355,13.107-4.063,16.493C200.439,255.979,196.336,257.671,190.839,257.671z M190.779,250.44
				c1.274,0,2.35-0.239,3.227-0.717c0.876-0.479,1.573-1.275,2.092-2.391c0.517-1.115,0.886-2.599,1.105-4.452
				c0.218-1.853,0.329-4.133,0.329-6.842c0-2.668-0.11-4.909-0.329-6.723c-0.22-1.812-0.588-3.276-1.105-4.392
				c-0.519-1.115-1.216-1.902-2.092-2.36c-0.876-0.458-1.952-0.688-3.227-0.688c-1.276,0-2.351,0.23-3.227,0.688
				c-0.877,0.458-1.574,1.246-2.091,2.36c-0.519,1.116-0.887,2.58-1.106,4.392c-0.219,1.813-0.329,4.054-0.329,6.723
				c0,2.709,0.109,4.99,0.329,6.842c0.219,1.853,0.587,3.337,1.106,4.452c0.517,1.116,1.214,1.912,2.091,2.391
				C188.428,250.202,189.503,250.44,190.779,250.44z"/>
			<path fill="#FFFFFF" d="M227.649,215.363h13.386c2.629,0,4.949,0.349,6.961,1.045c2.011,0.698,3.695,1.843,5.05,3.436
				c1.354,1.594,2.38,3.686,3.077,6.274c0.697,2.59,1.046,5.777,1.046,9.562c0,3.427-0.269,6.454-0.807,9.083
				c-0.538,2.629-1.425,4.84-2.659,6.633c-1.235,1.793-2.859,3.158-4.87,4.094c-2.012,0.937-4.492,1.404-7.44,1.404h-13.744V215.363
				z M240.855,249.245c1.195,0,2.22-0.179,3.077-0.538c0.856-0.358,1.543-1.036,2.062-2.032c0.518-0.995,0.896-2.399,1.136-4.213
				c0.239-1.812,0.358-4.173,0.358-7.081c0-2.589-0.13-4.691-0.388-6.305c-0.26-1.613-0.658-2.877-1.195-3.794
				c-0.538-0.916-1.235-1.543-2.092-1.882c-0.857-0.338-1.903-0.508-3.137-0.508h-4.063v26.353H240.855z"/>
			<path fill="#FFFFFF" d="M264.279,215.363h22.229v7.649h-13.266v8.605h10.577v7.35h-10.577v10.278h14.282v7.649h-23.246V215.363z"
				/>
			<path fill="#FFFFFF" d="M293.858,215.363h12.19c2.43,0,4.591,0.209,6.484,0.627c1.892,0.418,3.475,1.126,4.75,2.121
				c1.274,0.997,2.241,2.311,2.898,3.944c0.657,1.634,0.986,3.666,0.986,6.096c0,2.072-0.209,3.935-0.627,5.587
				c-0.418,1.654-1.166,3.068-2.241,4.243c-1.076,1.175-2.55,2.082-4.422,2.719c-1.873,0.638-4.243,0.956-7.111,0.956h-3.944v15.238
				h-8.964V215.363z M306.646,234.426c0.876,0,1.653-0.09,2.331-0.269c0.677-0.179,1.234-0.478,1.673-0.896
				c0.438-0.418,0.767-0.986,0.986-1.703c0.218-0.717,0.329-1.633,0.329-2.749c0-2.391-0.418-3.974-1.255-4.751
				s-2.072-1.165-3.705-1.165h-4.183v11.533H306.646z"/>
			<path fill="#FFFFFF" d="M342.56,257.671c-2.749,0-5.149-0.409-7.201-1.225c-2.052-0.816-3.765-2.092-5.139-3.825
				s-2.411-3.953-3.107-6.663c-0.697-2.709-1.046-5.956-1.046-9.741c0-7.568,1.384-13.066,4.153-16.493
				c2.769-3.426,6.881-5.139,12.34-5.139c5.417,0,9.501,1.703,12.25,5.109c2.749,3.406,4.124,8.874,4.124,16.403
				c0,7.61-1.355,13.107-4.063,16.493C352.16,255.979,348.058,257.671,342.56,257.671z M342.5,250.44
				c1.274,0,2.35-0.239,3.227-0.717c0.876-0.479,1.573-1.275,2.092-2.391c0.517-1.115,0.886-2.599,1.105-4.452
				c0.218-1.853,0.329-4.133,0.329-6.842c0-2.668-0.11-4.909-0.329-6.723c-0.22-1.812-0.588-3.276-1.105-4.392
				c-0.519-1.115-1.216-1.902-2.092-2.36c-0.876-0.458-1.952-0.688-3.227-0.688c-1.276,0-2.351,0.23-3.227,0.688
				c-0.877,0.458-1.574,1.246-2.091,2.36c-0.519,1.116-0.887,2.58-1.106,4.392c-0.219,1.813-0.329,4.054-0.329,6.723
				c0,2.709,0.109,4.99,0.329,6.842c0.219,1.853,0.587,3.337,1.106,4.452c0.517,1.116,1.214,1.912,2.091,2.391
				C340.149,250.202,341.225,250.44,342.5,250.44z"/>
			<path fill="#FFFFFF" d="M364.073,251.994l4.004-0.896v-29.878l-4.004-0.896v-4.959h17.091v4.959l-4.004,0.896v29.878l4.004,0.896
				v4.9h-17.091V251.994z"/>
			<path fill="#FFFFFF" d="M399.389,257.671c-2.749,0-5.309-0.382-7.679-1.144c-2.371-0.763-4.253-1.667-5.647-2.71l2.988-6.962
				c1.434,1.037,2.948,1.823,4.542,2.36c1.593,0.538,3.247,0.807,4.96,0.807c2.111,0,3.635-0.437,4.571-1.312
				c0.936-0.875,1.404-2.068,1.404-3.58c0-0.834-0.11-1.521-0.329-2.058c-0.22-0.537-0.559-1.005-1.016-1.402
				c-0.458-0.398-1.036-0.736-1.733-1.014c-0.697-0.278-1.524-0.576-2.48-0.895c-1.713-0.517-3.267-1.104-4.661-1.76
				c-1.395-0.657-2.58-1.472-3.555-2.446c-0.977-0.974-1.724-2.167-2.241-3.579c-0.518-1.412-0.777-3.152-0.777-5.22
				c0-2.107,0.318-3.927,0.956-5.458c0.637-1.531,1.533-2.794,2.689-3.788c1.155-0.995,2.54-1.73,4.153-2.208
				c1.614-0.477,3.396-0.716,5.348-0.716c2.51,0,4.621,0.249,6.334,0.747c1.712,0.499,3.346,1.206,4.9,2.122l-3.167,6.693
				c-1.275-0.756-2.45-1.285-3.525-1.583c-1.076-0.299-2.351-0.448-3.825-0.448c-3.188,0-4.781,1.314-4.781,3.944
				c0,1.395,0.319,2.431,0.957,3.107c0.637,0.678,1.892,1.314,3.765,1.912c1.673,0.519,3.257,1.076,4.75,1.673
				c1.494,0.598,2.809,1.385,3.944,2.36c1.136,0.977,2.032,2.211,2.689,3.705c0.657,1.494,0.986,3.376,0.986,5.647
				c0,1.993-0.25,3.794-0.747,5.408c-0.499,1.613-1.314,2.998-2.45,4.153c-1.135,1.156-2.629,2.052-4.481,2.689
				S402.098,257.671,399.389,257.671z"/>
		</g>
		<g>
			<path fill="#FFFFFF" d="M206.667,111.873l-17.373-34.021h17.993l8.479,20.165l8.376-20.165h17.166l-17.476,33.194l19.751,38.675
				H225.59l-10.961-24.714l-10.651,24.714h-17.166L206.667,111.873z"/>
		</g>
	</g>
</g>
</svg>
