<svg xmlns="http://www.w3.org/2000/svg" width="1908" height="543" viewBox="0 0 1908 543"><style>.style0{fill:#d21318}.style1{fill:#4c4d4e}</style><path d="M1607.38 11.04c8.16-2.17 16.62-.6 24.5 1.84 81.03 21.5 162.1 43.1 243.1 64.6 5.96 1.4 11.9 3.4 16.8 7.21 11.24 8.2 17.2 22.9 14.7 36.64-1.16 5.42-2.84 10.72-4.2 16.1l-61.5 227.79c-1.95 6.54-3 13.48-6.57 19.41-8.61 15.33-28.47 22.57-45.03 16.8-82.98-22.07-165.96-44.13-248.94-66.18-6.57-1.54-12.79-4.66-17.7-9.31-9.55-8.8-14.05-22.77-11.07-35.45 21.85-81.29 43.86-162.54 65.79-243.81 1.69-5.83 2.72-11.96 5.79-17.28 5-9.2 14.15-15.9 24.35-18.36zm.06 17.02c-7.11 1.46-10.43 11.09-5.51 16.52 4.67 6.2 15.6 4.3 17.85-3.17 2.95-7.41-4.78-15.61-12.38-13.35zm-66.68 255.11c22.19 5.9 44.4 11.8 66.6 17.71 10.46-13.81 20.75-27.76 31.14-41.63 34.92 9.3 69.9 18.5 104.8 27.9 1.88 17.1 3.9 34.2 5.9 51.35 22.2 5.9 44.4 11.8 66.6 17.73-13.04-84.2-26.11-168.39-39.13-252.6-24.87-6.63-49.76-13.23-74.63-19.85-53.81 66.52-107.54 132.92-161.24 199.39z" class="style0"/><path d="M1666.1 222.56c20.03-26.73 40.03-53.49 60.05-80.23 3.82 33.1 7.7 66.2 11.5 99.3-23.83-6.43-47.65-12.73-71.55-19.07z" class="style0"/><g><path d="M0 104.77c1.59-14.75 15.07-27.04 29.99-26.78 506.2 0 1012.4-.03 1518.6 0-19.74 73.04-39.45 146.09-59.21 219.13-1.41 4.97-2.13 10.17-1.66 15.33 1.18 18.3 15.6 34.3 33.5 37.9 35.9 9.5 71.8 19.1 107.7 28.61-533 .1-1065.99.02-1598.99.04-15 .2-28.53-12.3-29.93-27.17V104.77zm583.58 24.54c-13.15.87-26.34 2.33-39.09 5.8-7.03 1.98-14.05 4.59-19.93 9.01-5.69 4.26-9.25 10.67-11.83 17.2-4.21 10.89-6.1 22.51-7.42 34.06-2.14 21.66-2.56 43.53-.81 65.24 1.51 15 3.9 30.5 11.8 43.5 4.96 8.3 13.7 13.4 22.7 16.49 19.92 6.7 41.2 7.5 62 7.92 22.79-.03 45.85-.57 68.11-5.89 11.38-2.9 23.76-7.45 29.97-18.16 8.39-14.36 10.45-31.32 12.08-47.59 1.73-23.93 1.95-48.12-1.52-71.91-2.26-13.25-5.42-27.28-14.6-37.6-9.24-9.46-22.68-12.86-35.24-15.34-25.11-4.34-50.8-4.04-76.2-2.73zm567.97 4.66c-11.17 2.64-22.97 6.3-30.88 15.11-9.13 10.23-12.7 24.05-14.45 37.32-2.01 16.3-1.16 32.77-.73 49.1.85 18.4 2.1 36.9 6.7 54.72 2.38 8.5 5.5 17.6 12.9 23.19 8.13 6.1 18.2 8.9 28 10.9 15.43 3 31.2 3.9 46.9 4.13 19.43.1 38.97-.24 58.21-3.26 8.59-1.48 17.31-3.33 25.01-7.58 7.56-4.2 12.39-11.95 15.11-19.95 4.48-13.16 4.78-27.26 4.62-41.02h-44.55c.46 9.1 1 18.72-3.08 27.1-2.12 4.53-6.37 7.74-11.14 9.05-10.72 3.16-22.02 3.38-33.11 3.7-13.62.05-27.45.02-40.74-3.29-5.59-1.53-12.02-3.94-14.27-9.8-2.9-7.28-3.64-15.17-4.45-22.89-1.37-15.66-1.56-31.4-1.43-47.1.25-11.58.63-23.28 3.45-34.56 1.3-4.89 3.38-10.32 8.33-12.55 9.02-4.26 19.21-4.81 29.01-5.57 14.69-.63 29.5-.89 44.1 1.14 6.06 1.1 13.2 2.3 16.8 7.9 4.81 7.6 4.5 17 4.5 25.67h44.5c-.21-11.44-.45-23.08-3.86-34.1-2.46-8.15-6.85-16.09-13.97-21.01-6.82-4.63-14.9-6.9-22.88-8.55-14.83-2.88-30.01-3.44-45.08-3.41-21.27.34-42.67 1.04-63.57 5.61zM73.2 130.21c.01 65.54-.01 131.1 0 196.6 14.8-.03 29.59-.03 44.4 0 .07-21.19 0-42.38.03-63.58h52.4c18.71-.18 37.7 0 55.95-4.71 8.09-2.19 16.38-5.54 21.87-12.14 6.47-7.81 9.16-17.96 10.66-27.8 1.77-13.1 1.81-26.45.26-39.58-1.47-10.95-4.32-22.29-11.53-30.96-6.08-7.32-15.25-11.08-24.23-13.43-15.65-3.97-31.92-4.49-47.99-4.41-33.96 0-67.92 0-101.82.01zm214.95.01v196.59c14.79 0 29.59-.02 44.4 0 .05-22.09-.01-44.18.02-66.28 21.49 0 42.98-.01 64.5.02 9.16.1 19 1.5 26.3 7.6 6.22 5.2 8.8 13.5 8.9 21.32.11 12.4 0 24.9.1 37.34 14.78-.03 29.56-.03 44.34-.01.04-14.75.01-29.5.01-44.25-.01-9.67-2.65-19.97-9.86-26.83-7.64-7.37-18.55-9.8-28.82-10.43-.14-.28-.41-.85-.55-1.14 10.46-2.13 21.52-4.44 29.98-11.4 6.12-5.02 8.57-12.97 9.99-20.46 1.81-10.14 2.1-20.51 1.68-30.79-.67-11.51-3.01-23.56-10.2-32.89-5.43-7.21-13.92-11.24-22.39-13.68-13.13-3.7-26.86-4.57-40.43-4.73-39.4 0-78.72 0-118.02.02zm550.2 124.31c-.01 9.2.2 18.52-1.9 27.5-.96 3.79-2.44 7.86-5.88 10.09-4.9 3.13-10.86 3.82-16.52 4.26-8.1.43-16.35.27-24.26-1.65-5.23-1.34-10.62-3.76-13.63-8.44-3.02-4.68-2.38-10.5-2.78-15.79.02-6.89-.53-13.75-1.03-20.61-14.16-.28-28.32-.05-42.47-.12-.69 16.7-1.09 33.8 3.8 49.98 2.47 8.1 7.1 16.1 15 20 11.49 5.7 24.5 7.1 37.2 8.13 19.69 1.1 39.6 1.3 59.11-2.39 10.63-2.18 22.25-5.94 28.39-15.61 7.6-11.91 8.88-26.53 9.32-40.32.12-46.42-.03-92.85.06-139.28-14.79-.13-29.59 0-44.38-.07-.07 41.39.02 82.89.02 124.32zm81 72.29c53.74-.02 107.47-.01 161.2 0 0-10.45-.01-20.9 0-31.35-38.94-.08-77.87-.01-116.81-.04V239.8h109.8c-.07-9.06.09-18.12-.07-27.17-.62-.09-1.86-.26-2.48-.35-35.76.05-71.52.01-107.28.02.04-16.92 0-33.84.02-50.76 38.6-.03 77.2 0 115.8-.03-.03-10.43.03-20.87-.04-31.3-53.37.01-106.75.02-160.12-.01-.06 65.5.03 131.1.03 196.62zm392.86-196.6c-.01 11.12-.01 22.2 0 33.36 22.54 0 45.09-.01 67.7 0 0 54.41-.02 108.81-.03 163.21 14.82 0 29.64-.01 44.5.02-.05-54.41-.04-108.82-.04-163.23 23.33-.01 46.6 0 69.98-.01.01-11.12.01-22.24 0-33.36-60.77-.01-121.42-.01-182.12.01z" class="style1"/><path d="M584.55 161.28c11.48-.99 23.03-1.01 34.54-.75 9.08.3 18.2.9 27.1 2.8 4 .9 8.1 2.1 11.5 4.45 3.44 2.5 4.7 6.8 5.8 10.63 2.11 8.5 2.8 17.4 3.3 26.1.69 14.3.7 28.7.1 43-.48 9.74-1.14 19.54-3.41 29.06-1.23 4.6-2.73 9.73-6.91 12.53-4.89 3.26-10.78 4.5-16.47 5.5-12.91 2.05-26.04 2.11-39.08 1.9-11.26-.35-22.67-.81-33.62-3.67-5.12-1.36-10.65-3.75-12.85-8.96-4.31-9.5-4.87-20.16-5.61-30.42-.76-18.26-.46-36.57.81-54.81.84-8.68 1.45-17.61 4.7-25.8 1.68-4.51 6.32-6.77 10.63-8.14 6.3-2 12.92-2.8 19.42-3.42zM117.61 161.54c17.45 0 34.9 0 52.37-.01 10.03.1 20.2.1 30 2.42 4.16 1 8.6 2.9 10.5 7 3.68 7.6 3.9 16.2 4.2 24.51.01 8.9 0 18.39-4.39 26.4-2.29 4.3-7.03 6.34-11.55 7.41-9.09 2.16-18.48 2.46-27.78 2.6-17.8.04-35.6.01-53.41.02.05-23.49.05-46.89.05-70.35zM332.56 161.54c22.82 0 45.64-.03 68.5.02 7.78.2 15.9.5 23.1 3.7 3.93 1.7 6.4 5.5 7.6 9.47 2.37 7.7 2.5 15.8 2.3 23.74-.32 6.97-1.04 14.28-4.62 20.43-2.22 3.89-6.28 6.27-10.45 7.6-7.76 2.42-15.98 2.66-24.04 2.69-20.8-.03-41.61.06-62.41-.04.05-22.55-.04-45.05.06-67.61zM1842.16 436.01c12.52-1.71 25.3-1.72 37.85-.16 6.4 1 13.6 2.5 17.8 7.9 4.86 6.5 4.9 15.1 4.8 22.91-6.63-.06-13.24-.02-19.85-.03-.66-4.91-.34-11.92-5.77-14.18-7.46-2.1-15.38-1.55-23.03-1.13-4.73.47-10.97 1.01-12.89 6.19-1.79 5.28-1.62 11.3.2 16.6 1.07 3.1 4.7 3.5 7.5 4.06 14.8 2.4 30.3.8 44.6 5.89 4.44 1.4 8 5 9.5 9.4 2.95 8.7 2.5 18.1 1.5 27-.98 6.48-3.08 13.89-9.29 17.22-9.25 4.8-19.99 3.8-29.93 5.83h-8.52c-10.11-2.19-21.68-.88-30.33-7.52-7.6-6.99-7.4-18.3-7.52-27.82 6.57-.02 13.2 0 19.74-.02.28 4.98-.24 10.6 2.8 14.86 2.97 2.9 7.6 2.7 11.4 3.2 8.56.3 17.4 1.1 25.75-1.2 5.78-1.54 6.31-8.56 6.49-13.5-.09-4.19.05-9.73-4.08-12.12-5.32-2.49-11.38-2.09-17.08-2.62-11.66-.87-23.77-1-34.72-5.54-6.92-2.94-8.95-11.07-9.64-17.84-.69-9.22-.87-19.19 3.73-27.52 3.93-6.67 11.93-8.77 19.03-9.86zM2.03 435.68c7.06.2 14.32-.46 21.2.32 9.73 29.5 20.4 58.8 28.5 88.9 1.92-4.26 2.63-8.94 4.07-13.36 7.52-25.48 16.41-50.53 24.53-75.83 7.19-.01 14.38-.06 21.6 0-11.55 35.35-22.96 70.75-34.54 106.09-10.39-.06-20.78.03-31.18-.05C24.86 506.4 13.4 471.1 2 435.68zM269.36 435.66c24.4 0 48.8 0 73.2.02-.04 5.7.1 11.38-.09 17.1-17.6-.09-35.2-.02-52.8-.03-.01 9.1-.01 18.19-.01 27.29 16.71-.01 33.4 0 50.14-.01 0 5 0 9.95-.01 14.9-16.72-.01-33.44-.05-50.16.02.04 10 0 19.9 0 29.88h53.3c0 5.7 0 11.32-.01 17-24.53-.01-49.06-.02-73.59 0 .03-35.43-.03-70.83.07-106.17zM518.86 435.68c11.52.1 23.05-.16 34.6.11 10.15 20.2 20.8 40.1 30.9 60.3 4.79 9.5 9 19.2 13.8 28.66.34-5.76-.32-11.5-.29-17.25-.25-23.94-.08-47.87-.12-71.81 6.79-.01 13.57-.01 20.4 0-.01 35.37-.01 70.74-.01 106.11-11.47.01-22.94-.01-34.41.01-9.52-18.11-19.01-36.24-28.53-54.35-5.02-9.3-9.06-19.08-13.46-28.67-.99-1.86-1.31-4.29-3.13-5.54 1.12 29.5.5 59 .6 88.54-6.78.02-13.56.02-20.33 0-.03-35.39-.08-70.69.02-106.11zM789.08 435.69c27.72-.03 55.44-.01 83.16-.01.03 6 0 12.1 0 18.1-10.65.01-21.29 0-31.94.01-.01 29.32-.01 58.65-.02 87.97-6.78.02-13.56.02-20.33 0-.02-29.32 0-58.65-.01-87.97-10.29-.01-20.58.01-30.87-.01.01-5.98.03-12.08.03-18.09zM1043.29 435.68c6.79-.01 13.58-.01 20.4 0 0 22.6 0 45.25-.02 67.87.04 5.42-.31 11.2 2.1 16.2 1.29 2.8 4.4 4 7.2 4.55 8.26 1.6 16.8 1.3 25.1.72 3.89-.57 8.65-.8 11.18-4.27 2.9-4.85 2.61-10.78 2.68-16.23-.02-22.94-.02-45.88 0-68.82 6.78-.01 13.56-.01 20.3 0-.03 24.9.1 49.88-.08 74.8-.54 8.88-1.57 19.21-8.84 25.34-8.96 6.54-20.63 5.54-30.98 7.67h-7.75c-10.17-1.99-21.14-1.14-30.52-6.16-6.53-3.53-8.97-11.24-10.01-18.1-1.43-10.84-.59-21.8-.82-32.69.07-16.96.07-33.96.07-50.88zM1311.75 435.68c17.09-.01 34.2 0 51.27-.01 9.01.1 18.7.3 26.6 5.2 7.03 4.7 8.8 13.7 9.3 21.59.18 8.4.4 17.13-2.8 25.02-2.91 6.33-10.22 8.27-16.38 9.9 3.64 1.1 7.7 1.2 10.8 3.56 5.39 3.6 7.2 10.4 7.3 16.51.06 8.11-.01 16.2 0 24.3-6.78.01-13.55-.01-20.31.01-.04-6.78.03-13.56-.03-20.33-.05-4.77-1.62-10.03-5.8-12.76-4.28-2.92-9.7-2.67-14.63-2.62-8.33.01-16.65-.01-24.96.01-.01 11.9 0 23.79-.01 35.69h-20.33c-.02-35.35-.07-70.65.03-106.07zm20.36 17.02c-.01 12.14-.01 24.27-.01 36.4h23c5.86-.13 12.1.6 17.58-2 4.62-2.28 5.21-8.11 5.6-12.66.08-5.94.58-12.41-2.35-17.8-3.28-4.06-9.18-3.76-13.91-3.94h-29.92zM1573.75 435.68c24.41 0 48.81-.02 73.2.01.01 5.7 0 11.3 0 17.01-17.63.01-35.24 0-52.86 0-.01 9.1-.02 18.2 0 27.3 16.7 0 33.39-.02 50.1.01-.01 4.96-.01 9.9 0 14.88-16.71.02-33.41 0-50.1 0 0 9.97-.01 19.9 0 29.91 17.73-.04 35.5.1 53.19-.08.21 5.7.1 11.4.1 17.06h-73.61c-.02-35.38-.07-70.68.03-106.1z" class="style1"/></g></svg>