<?xml version="1.0" encoding="iso-8859-1"?>
<!-- Generator: Adobe Illustrator 18.1.1, SVG Export Plug-In . SVG Version: 6.00 Build 0)  -->
<svg version="1.1" id="Layer_1" xmlns="http://www.w3.org/2000/svg" xmlns:xlink="http://www.w3.org/1999/xlink" x="0px" y="0px"
	 viewBox="0 0 504 504" style="enable-background:new 0 0 504 504;" xml:space="preserve">
<path style="fill:#4F433A;" d="M359.443,133.878c0-70.853-53.315-128.286-119.09-128.286l0,0
	c-65.77,0-119.081,57.433-119.081,128.286v38.276c0,70.849,53.312,128.278,119.081,128.278v58.506
	c65.774,0,119.09-115.935,119.09-186.784V133.878z"/>
<linearGradient id="SVGID_1_" gradientUnits="userSpaceOnUse" x1="241.6064" y1="512.5606" x2="241.6064" y2="313.8239" gradientTransform="matrix(1.0042 -1.000000e-04 0.0806 0.9958 -24.1754 0.895)">
	<stop  offset="0" style="stop-color:#EFBEAF"/>
	<stop  offset="1" style="stop-color:#D3A094"/>
</linearGradient>
<polygon style="fill:url(#SVGID_1_);" points="331.708,511.272 189.477,511.283 171.79,313.384 314.021,313.376 "/>
<g>
	
		<linearGradient id="SVGID_2_" gradientUnits="userSpaceOnUse" x1="288.6856" y1="512.5611" x2="288.6856" y2="325.1632" gradientTransform="matrix(1.0042 -1.000000e-04 0.0806 0.9958 -24.1754 0.895)">
		<stop  offset="0.3497" style="stop-color:#EFBEAF"/>
		<stop  offset="0.6054" style="stop-color:#ECBBAC"/>
		<stop  offset="0.8121" style="stop-color:#E3B1A3"/>
		<stop  offset="1" style="stop-color:#D3A094"/>
	</linearGradient>
	<polygon style="fill:url(#SVGID_2_);" points="335.26,511.272 317.93,324.661 278.81,511.277 	"/>
	
		<linearGradient id="SVGID_3_" gradientUnits="userSpaceOnUse" x1="196.5908" y1="512.5616" x2="196.5908" y2="325.1573" gradientTransform="matrix(1.0042 -1.000000e-04 0.0806 0.9958 -24.1754 0.895)">
		<stop  offset="0.3497" style="stop-color:#EFBEAF"/>
		<stop  offset="0.6054" style="stop-color:#ECBBAC"/>
		<stop  offset="0.8121" style="stop-color:#E3B1A3"/>
		<stop  offset="1" style="stop-color:#D3A094"/>
	</linearGradient>
	<polygon style="fill:url(#SVGID_3_);" points="170.111,324.67 187.444,511.283 243.892,511.281 	"/>
</g>
<path style="opacity:0.44;fill:#DB9F95;" d="M236.822,475.194c3.733,13.46,10.131,22.699,16.777,22.699
	c6.653,0,11.761-9.242,13.62-22.703L236.822,475.194z"/>
<path style="opacity:0.19;fill:#7B6A58;" d="M317.93,299.07l-2.033,15.364l-1.875-33.25l-142.231,0.014l1.794,31.807l-3.473-13.919
	l4.778,81.512c19.272,49.701,47.048,80.897,77.929,80.897c27.284,0,52.146-24.353,70.861-64.309L317.93,299.07z"/>
<path style="fill:#EFBEAF;" d="M144.866,295.843c-11.786,1.735-24.391-23.234-28.155-55.773
	c-3.765-32.539,2.738-60.327,14.523-62.063c11.786-1.737,24.392,23.235,28.155,55.773
	C163.155,266.32,156.651,294.105,144.866,295.843z M335.85,295.843c11.786,1.735,24.391-23.234,28.154-55.773
	c3.764-32.539-2.739-60.327-14.522-62.063c-11.787-1.737-24.391,23.235-28.155,55.773C317.56,266.32,324.063,294.105,335.85,295.843
	z"/>
<g>
	<path style="fill:#4F433A;" d="M152.167,188.746v76.531C152.167,265.276,118.429,245.67,152.167,188.746z"/>
	<path style="fill:#4F433A;" d="M328.548,188.746v76.531C328.548,265.276,362.286,245.67,328.548,188.746z"/>
</g>
<path style="fill:#EFBEAF;" d="M328.62,133.403c0-0.84-0.032-1.674-0.059-2.507c0.02-0.841,0.057-1.679,0.057-2.527
	c0-56.61-39.518-102.5-88.26-102.5c-48.747,0-88.263,45.891-88.263,102.5c0,0.854,0.038,1.696,0.056,2.546
	c-0.026,0.826-0.057,1.653-0.057,2.487v97.313c0,0.785,0.031,1.561,0.054,2.341c-0.031,1.84-0.054,86.681-0.054,86.681
	s42.605,105.73,57.787,105.73h60.96c15.181,0,57.778-105.73,57.778-105.73s-0.022-84.841-0.056-86.681
	c0.026-0.78,0.056-1.556,0.056-2.341V133.403z"/>
<g>
	<path style="fill:#FFFFFF;" d="M240.357,311.088c-5.026-10.016-42.867-0.416-44.72-10.393c2.92,28.128,35.871,32.801,44.72,32.801
		c8.848,0,41.798-4.673,44.721-32.801C283.224,310.672,245.38,301.072,240.357,311.088z"/>
</g>
<path style="fill:#E5AEA3;" d="M238.428,386.562c11.473,0,21.244,8.204,24.942,19.696c-2.143-13.953-12.49-24.532-24.942-24.532
	c-12.451,0-22.8,10.579-24.943,24.532C217.184,394.767,226.955,386.562,238.428,386.562z"/>
<g style="opacity:0.69;">
	<path style="fill:#7B6A58;" d="M215.826,198.829c0-20.231-13.01-20.594-32.294-20.594l-3.252-7.225h-17.192
		c0,0-7.898,11.562-7.898,32.154c1.626-24.929,12.079-12.283,12.079-12.283S214.432,184.739,215.826,198.829z"/>
	<path style="fill:#7B6A58;" d="M264.888,198.829c0-20.231,13.01-20.594,32.296-20.594l3.252-7.225h17.192
		c0,0,7.898,11.562,7.898,32.154c-1.625-24.929-12.081-12.283-12.081-12.283S266.282,184.739,264.888,198.829z"/>
</g>
<g>
	<path style="opacity:0.69;fill:#DB9F95;" d="M214.426,209.006c0,0-24.475,60.033-39.967,0
		C174.46,209.006,193.77,239.632,214.426,209.006z"/>
	<path style="opacity:0.69;fill:#DB9F95;" d="M266.286,209.006c0,0,24.478,60.033,39.97,0
		C306.256,209.006,286.943,239.632,266.286,209.006z"/>
</g>
<g>
	<path style="fill:#DB9F95;" d="M328.62,212.485l-26.227-3.613l26.18,26.455c0-0.091,0-0.184,0-0.27l-15.017-18.105l15.064,6.558
		v-0.324l-13.422-9.089l13.422-1.297V212.485z"/>
	<path style="fill:#DB9F95;" d="M178.322,208.872l-26.227,3.613v0.314l13.424,1.297l-13.424,9.089v0.324l15.065-6.558
		l-15.019,18.104c0,0.086,0,0.179,0,0.27L178.322,208.872z"/>
</g>
<ellipse style="opacity:0.11;fill:#7B6A58;" cx="240.357" cy="356.246" rx="28.403" ry="11.126"/>
<g>
	<path style="fill:#E2ADA6;" d="M210.195,267.369c0,0-61.391,42.952,2.193,98.711C212.388,366.08,165.613,320.117,210.195,267.369z"
		/>
	<path style="fill:#E2ADA6;" d="M270.52,267.369c0,0,61.39,42.952-2.192,98.711C268.327,366.08,315.101,320.117,270.52,267.369z"/>
</g>
<g>
	<g>
		<path style="fill:#634E42;" d="M175.003,208.971h38.553c-3.207-4.824-10.631-8.204-19.278-8.204
			C185.631,200.767,178.209,204.146,175.003,208.971z"/>
	</g>
	<g>
		<path style="fill:#634E42;" d="M267.157,208.971h38.554c-3.21-4.824-10.632-8.204-19.279-8.204
			C277.785,200.767,270.358,204.146,267.157,208.971z"/>
	</g>
	<path style="fill:#DB9F95;" d="M170.789,209.02c0,0,26.884-38.771,46.013-0.378C216.801,208.643,200.777,178.231,170.789,209.02z"
		/>
	<path style="fill:#DB9F95;" d="M309.926,209.02c0,0-26.889-38.771-46.013-0.378C263.913,208.643,279.938,178.231,309.926,209.02z"
		/>
</g>
<path style="fill:#D3A094;" d="M205.526,285.306l32.059,2.63l33.968-2.63c-2.359-23.508-16.237-38.925-33.014-38.925
	C221.764,246.38,207.883,261.798,205.526,285.306z"/>
<linearGradient id="SVGID_4_" gradientUnits="userSpaceOnUse" x1="237.8043" y1="185.8887" x2="237.8043" y2="302.1357">
	<stop  offset="0.1963" style="stop-color:#EFBEAF"/>
	<stop  offset="1" style="stop-color:#D3A094"/>
</linearGradient>
<path style="fill:url(#SVGID_4_);" d="M256.189,222.183c0-18.41-3.863-36.294-3.863-36.294h-21.862
	c0,29.457-2.896,36.239-2.896,45.987c0,20.793-17.373,41.324-1.384,70.26h15.435C241.62,302.136,256.189,291.616,256.189,222.183z"
	/>
<path style="fill:#D3A094;" d="M205.526,285.306l32.059,2.63l33.968-2.63c-2.359-23.508-16.237-38.925-33.014-38.925
	C221.764,246.38,207.883,261.798,205.526,285.306z"/>
<linearGradient id="SVGID_5_" gradientUnits="userSpaceOnUse" x1="237.8043" y1="185.8887" x2="237.8043" y2="302.1357">
	<stop  offset="0.1963" style="stop-color:#EFBEAF"/>
	<stop  offset="1" style="stop-color:#D3A094"/>
</linearGradient>
<path style="fill:url(#SVGID_5_);" d="M256.189,222.183c0-18.41-3.863-36.294-3.863-36.294h-21.862
	c0,29.457-2.896,36.239-2.896,45.987c0,20.793-17.373,41.324-1.384,70.26h15.435C241.62,302.136,256.189,291.616,256.189,222.183z"
	/>
<path style="fill:#634E42;" d="M215.335,283.43c-3.599-1.36-6.767-1.749-7.077-0.874c-0.311,0.881,2.355,2.7,5.952,4.059
	c3.6,1.364,6.766,1.755,7.079,0.875C221.599,286.61,218.932,284.794,215.335,283.43z"/>
<path style="fill:#634E42;" d="M254.963,283.432c4.921-1.08,9.351-1.241,9.895-0.367c0.543,0.88-3.008,2.47-7.93,3.548
	c-4.923,1.082-9.349,1.246-9.893,0.368C246.492,286.103,250.042,284.514,254.963,283.432z"/>
<path style="fill:#4F433A;" d="M148.643,177.451v65.669c0,0-27.461-22.984-27.461-65.013L148.643,177.451z"/>
<path style="fill:#4F433A;" d="M331.323,177.451v65.669c0,0,27.462-22.984,27.462-65.013L331.323,177.451z"/>
<path style="opacity:0.11;fill:#7B6A58;" d="M205.526,285.306l14.819,1.216c0.979,4.942,2.807,10.126,5.839,15.614h15.435
	c0,0,3.89-2.81,7.649-15.105l22.283-1.725c-0.002-0.016-0.004-0.031-0.006-0.047h-66.016
	C205.53,285.274,205.527,285.29,205.526,285.306z"/>
<ellipse transform="matrix(0.9963 0.086 -0.086 0.9963 23.2956 -19.1736)" style="opacity:0.15;fill:#FFFFFF;" cx="234.132" cy="260.728" rx="7.998" ry="32.957"/>
<path style="fill:#E2ADA6;" d="M200.458,252.861c0,0-24.708,76.056-48.88-1.691C151.578,251.17,169.84,308.636,200.458,252.861z"/>
<path style="fill:#E2ADA6;" d="M277.638,252.861c0,0,24.708,76.056,48.881-1.691C326.519,251.17,308.255,308.636,277.638,252.861z"
	/>
<rect x="237.139" y="134.694" style="opacity:0.56;fill:#D3A094;" width="7.2" height="56.171"/>
<path style="fill:#4F433A;" d="M295.486,32.42l-1.538-2.157c-15.078-12.085-33.245-19.141-52.796-19.141
	c-52.23,0-94.571,50.336-94.571,112.429c0,0.937,0.039,1.861,0.059,2.793c-0.029,0.908-0.06,1.813-0.06,2.728v86.395
	C146.581,134.614,295.486,133.969,295.486,32.42z"/>
<polygon style="opacity:0.56;fill:#D3A094;" points="231.183,214.081 253.186,214.081 257.474,189.748 223.71,189.748 "/>
<path style="fill:#4F433A;" d="M290.13,40.143c0,0,5.373,98.503-93.727,121.189c0,0,85.966-7.165,111.041-112.235L290.13,40.143z"/>
</svg>
