<?xml version="1.0" encoding="UTF-8" standalone="no"?>
<!-- Created with Inkscape (http://www.inkscape.org/) -->

<svg
   xmlns:dc="http://purl.org/dc/elements/1.1/"
   xmlns:cc="http://creativecommons.org/ns#"
   xmlns:rdf="http://www.w3.org/1999/02/22-rdf-syntax-ns#"
   xmlns:svg="http://www.w3.org/2000/svg"
   xmlns="http://www.w3.org/2000/svg"
   xmlns:sodipodi="http://sodipodi.sourceforge.net/DTD/sodipodi-0.dtd"
   xmlns:inkscape="http://www.inkscape.org/namespaces/inkscape"
   version="1.1"
   width="5000"
   height="5000"
   id="svg2908"
   inkscape:version="0.47 r22583"
   sodipodi:docname="kanku_big_no_border.svg">
  <title
     id="title2820">Kanku (no borders)</title>
  <metadata
     id="metadata12">
    <rdf:RDF>
      <cc:Work
         rdf:about="">
        <dc:format>image/svg+xml</dc:format>
        <dc:type
           rdf:resource="http://purl.org/dc/dcmitype/StillImage" />
        <dc:title>Kanku (no borders)</dc:title>
        <dc:date>20.11.2011</dc:date>
        <dc:creator>
          <cc:Agent>
            <dc:title>Woler</dc:title>
          </cc:Agent>
        </dc:creator>
        <dc:coverage>Sport, Karate, Kyokushin</dc:coverage>
        <cc:license
           rdf:resource="http://creativecommons.org/licenses/by-sa/3.0/" />
      </cc:Work>
      <cc:License
         rdf:about="http://creativecommons.org/licenses/by-sa/3.0/">
        <cc:permits
           rdf:resource="http://creativecommons.org/ns#Reproduction" />
        <cc:permits
           rdf:resource="http://creativecommons.org/ns#Distribution" />
        <cc:requires
           rdf:resource="http://creativecommons.org/ns#Notice" />
        <cc:requires
           rdf:resource="http://creativecommons.org/ns#Attribution" />
        <cc:permits
           rdf:resource="http://creativecommons.org/ns#DerivativeWorks" />
        <cc:requires
           rdf:resource="http://creativecommons.org/ns#ShareAlike" />
      </cc:License>
    </rdf:RDF>
  </metadata>
  <sodipodi:namedview
     pagecolor="#ffffff"
     bordercolor="#666666"
     borderopacity="1"
     objecttolerance="10"
     gridtolerance="10"
     guidetolerance="10"
     inkscape:pageopacity="0"
     inkscape:pageshadow="2"
     inkscape:window-width="1440"
     inkscape:window-height="825"
     id="namedview10"
     showgrid="false"
     inkscape:zoom="0.05803345"
     inkscape:cx="1636.4161"
     inkscape:cy="1340.8914"
     inkscape:window-x="0"
     inkscape:window-y="25"
     inkscape:window-maximized="1"
     inkscape:current-layer="g5728"
     inkscape:snap-bbox="true"
     inkscape:snap-bbox-midpoints="true" />
  <defs
     id="defs2912">
    <inkscape:perspective
       sodipodi:type="inkscape:persp3d"
       inkscape:vp_x="0 : 2500 : 1"
       inkscape:vp_y="0 : 1000 : 0"
       inkscape:vp_z="5000 : 2500 : 1"
       inkscape:persp3d-origin="2500 : 1666.6667 : 1"
       id="perspective14" />
  </defs>
  <g
     id="g5788">
    <g
       id="g5728"
       style="stroke:#000000;stroke-opacity:1">
      <g
         id="g5783"
         style="stroke:none;stroke-opacity:1;fill:#fe0000;fill-opacity:1">
        <path
           d="m 1037.592,4309.9303 c -166.84854,0.952 -407.10647,-143.4852 -471.06569,-365.3018 l -0.0263,-0.026"
           id="path5269-0"
           style="fill:#fe0000;fill-opacity:1;stroke:none;stroke-width:1px;stroke-linecap:butt;stroke-linejoin:miter;stroke-opacity:1" />
        <path
           d="m 566.56808,3944.5 c 207.87584,18.5808 379.8055,110.0255 470.81802,365.4913"
           id="path5350-1"
           style="fill:#fe0000;fill-opacity:1;stroke:none;stroke-width:1px;stroke-linecap:butt;stroke-linejoin:miter;stroke-opacity:1" />
        <path
           d="M 2249.1615,4986.2726 C 1608.3369,4920.3722 1004.2822,4601.5508 595.41358,4113.4214 443.3963,3931.935 363.13449,3808.5408 258.74792,3595.8333 137.89344,3349.5691 68.029521,3126.7755 26.317154,2854.6196 2.4974753,2699.2061 -2.6375763,2355.8714 16.723687,2213.191 96.216197,1627.3812 335.84412,1134.1921 734.79724,735.29133 1123.833,346.30649 1611.0087,104.57254 2172.0861,22.116411 2341.1205,-2.7249461 2683.0959,-0.38395237 2856.697,26.802915 3408.607,113.23502 3869,343.71948 4253.9112,726.28398 c 150.5926,149.67442 223.2881,237.37664 330.6662,398.92632 227.7338,342.6239 363.4785,728.0255 403.9622,1146.913 13.3431,138.0661 5.4306,456.6032 -14.5265,584.7897 -67.6309,434.3985 -219.6187,796.2589 -483.6272,1151.4463 -101.8499,137.0249 -344.3266,379.5512 -482.7312,482.8299 -382.4945,285.4204 -803.5846,449.055 -1276.5992,496.083 -109.785,10.9151 -371.3104,10.373 -481.894,-0.9996 z m 235.76,-242.6487 c 0,-22.5974 -70.4285,-207.7867 -112.6153,-296.1184 -187.5776,-392.7536 -480.7,-720.2717 -877.8906,-980.9044 -307.9493,-202.0734 -655.48481,-337.8756 -954.51463,-372.984 -108.60333,-12.7509 -204.02315,-18.2566 -204.02315,-11.7722 0,12.6601 78.72932,205.7926 122.67051,300.9255 129.05792,279.4108 278.42865,499.9481 474.98273,701.2845 357.25214,365.9445 824.92354,577.9156 1442.57814,653.8457 52.3659,6.4373 98.2711,12.2013 102.0116,12.8083 3.7404,0.6074 6.8007,-2.5812 6.8007,-7.085 z m 204.0232,-14.9353 c 809.0956,-104.5704 1388.3835,-486.0642 1761.5124,-1160.0549 86.0687,-155.4682 229.2785,-483.3335 212.2942,-486.0288 -22.4321,-3.56 -153.58,3.1377 -210.14,10.7318 -417.4838,56.0538 -893.1575,286.7959 -1251.3419,607.0073 -254.3593,227.3933 -447.5072,480.8349 -576.0485,755.8696 -39.3699,84.2385 -104.0286,259.7053 -104.0286,282.3067 0,8.4786 8.9097,10.9551 29.47,8.1921 16.2085,-2.1783 78.4356,-10.2887 138.2824,-18.0238 l 0,0 z m -45.4549,-1477.5164 c 154.3553,-32.6914 271.2645,-92.3306 377.5929,-192.6223 105.9275,-99.9134 168.7136,-193.1871 212.5105,-337.6345 21.9599,-72.4264 34.489,-181.136 32.3547,-216.8347 -3.8524,-64.4359 -8.9916,-148.7056 -31.6918,-222.8909 -80.5625,-263.281 -290.1019,-460.7537 -558.913,-526.7268 -96.7606,-23.7476 -269.0241,-21.7629 -367.2416,4.2311 -266.622,70.5635 -479.5046,283.45 -549.6851,549.6953 -27.0193,102.5037 -26.928,278.9385 0.1967,380.7932 79.0645,296.8866 317.4106,516.0728 615.962,566.4468 70.6561,11.9215 201.8475,9.7471 268.9143,-4.4572 l 4e-4,0 z M 589.77329,1899.3756 c 175.52011,-26.777 360.06865,-84.5859 566.73091,-177.5253 531.4409,-238.9977 1015.0343,-710.5104 1232.5476,-1201.75694 30.9724,-69.95014 95.8697,-247.51047 95.8697,-262.30137 0,-7.01842 -63.4045,-1.7294 -188.225,15.7012 -740.8634,103.45816 -1280.5836,430.08849 -1649.3137,998.13931 -82.84912,127.634 -199.53667,356.9609 -260.83861,512.6281 -27.8665,70.7628 -50.66637,131.248 -50.66637,134.4116 0,7.9627 149.88438,-3.4289 253.89547,-19.2966 l 0,0 z m 4073.30271,18.7575 c 2.7117,-2.7113 -16.7807,-59.786 -43.3169,-126.8326 C 4414.3869,1272.4041 4117.7542,889.29528 3718.4361,627.21876 3529.8002,503.41507 3259.4259,390.86204 3001.7802,328.88499 c -190.2153,-45.75655 -480.5879,-86.26522 -480.5879,-67.04481 0,5.14663 12.5829,47.49306 27.9619,94.10318 41.2743,125.09235 151.7695,343.76302 240.1492,475.25674 343.0765,510.4386 916.9447,910.2186 1500.0894,1045.0236 120.4204,27.8375 360.7952,54.796 373.6832,41.9094 z"
           id="path5524"
           style="fill:#fe0000;fill-opacity:1;stroke:none;stroke-width:9.71993256000000017;stroke-miterlimit:4;stroke-opacity:1;stroke-dasharray:none"
           sodipodi:nodetypes="cscsscssccccccccccscscccscccscccssccccssccsscccccsssscsscccccsssscc" />
      </g>
      <path
         style="fill:#000000;fill-opacity:0;stroke:none"
         d="m 2028.6413,3923.8402 c -63.7479,-74.7105 -186.7428,-193.609 -284.6562,-275.1755 C 1389.3954,3353.2745 942.37844,3144.8198 555.2378,3094.3234 l -40.36106,-5.2645 0,-588.7348 0,-588.7348 8.37682,-1.6929 c 4.60726,-0.9311 20.7136,-3.1928 35.79188,-5.0259 162.90722,-19.8053 360.53083,-78.1317 561.93376,-165.8485 310.8104,-135.367 591.6176,-333.9201 841.1081,-594.7304 l 56.0483,-58.5914 482.8611,-0.046 482.861,-0.046 46.9663,49.4994 c 282.5811,297.8222 619.6991,523.3376 987.0876,660.3132 101.7275,37.9277 234.7628,76.1051 322.8885,92.66 116.609,21.9056 306.9877,41.2902 319.7067,32.5529 6.0572,-4.1611 1.5036,-21.3071 -22.7557,-85.6807 -85.2724,-226.2744 -194.5683,-439.034 -315.3868,-613.9428 -29.8199,-43.1705 -72.1174,-100.6976 -88.9176,-120.933 l -12.0124,-14.469 167.1776,0 167.1779,0 30.7302,46.4533 c 213.867,323.2928 348.5833,693.126 393.6257,1080.6101 10.2605,88.2672 12.4991,133.3041 12.4912,251.3047 0,193.455 -8.3857,325.7392 -27.6658,437.1178 -57.0026,329.295 -163.1793,616.1327 -328.6837,887.9432 -21.1108,34.6709 -97.5156,150.5697 -108.9571,165.278 l -5.3518,6.8799 -167.9921,-0.7877 -167.9919,-0.7877 21.2601,-25.892 c 90.2964,-109.9697 188.452,-258.4925 260.3797,-393.9906 83.6829,-157.6422 206.3339,-441.7077 197.1395,-456.5843 -2.6288,-4.2535 -114.1057,-1.0246 -174.714,5.0604 -350.4238,35.1826 -775.9691,214.6103 -1119.4481,472.0061 -143.1062,107.2407 -282.3683,236.3207 -400.5644,371.2773 l -25.892,29.5635 -441.8428,0.041 -441.8428,0.041 -31.8284,-37.302 z m 556.0721,-663.4981 c 107.0351,-9.301 236.4338,-54.8495 329.5716,-116.0097 115.6312,-75.9307 210.7024,-180.6652 270.1804,-297.6424 53.8499,-105.9082 78.6587,-201.5468 83.0782,-320.269 12.7591,-342.743 -207.0165,-651.9018 -538.8365,-757.9827 -78.9494,-25.2396 -141.8186,-32.6982 -253.2194,-30.0409 -111.2387,2.6533 -169.3484,13.8104 -258.7024,49.671 -66.0562,26.5104 -138.5922,69.103 -197.1266,115.7512 -34.2368,27.2846 -100.2922,93.714 -125.3742,126.0842 -146.9869,189.6974 -197.3619,427.6245 -139.3457,658.1453 48.1124,191.1693 177.7958,364.7345 350.8071,469.5117 84.0677,50.9122 201.8023,92.12 293.7327,102.808 31.03,3.6077 143.598,3.5914 185.2348,-0.027 l 0,7e-4 z"
         id="path3594" />
    </g>
  </g>
</svg>
