<svg id="Layer_1" data-name="Layer 1" xmlns="http://www.w3.org/2000/svg" viewBox="0 0 62.77 79.79"><defs><style>.cls-1{fill:#4fb751;}.cls-2{fill:#fff;}</style></defs><title>present</title><path class="cls-1" d="M29.85,25.45C13.74,21,6.09,22.05,5.63,17,4.94,9.53,10.83,4.4,15.13,6.17c6.38,2.63,13,12.76,14.78,19.2l-0.61-.11C25.18,18.92,13.45,8.64,11.2,11c-2,2-2,5.15,1.06,6.18,1.75,0.59,15.56,7.61,17,8.22Z"/><path class="cls-1" d="M29.9,25.08C33.34,18.39,42.7,8.72,45.18,10.8c2.16,1.81,0,2.76-1.11,4.07S29.65,21.89,30,25.15l0.27,0.34c12-5.22,20.85-5.39,21.94-11C52.89,11,49.28-.2,41.2,4.64S30.57,19,29.49,25.48Z"/><path class="cls-1" d="M59.07,75.64c-5.18,4.38-44.58,6.27-50.25.75C0.93,68.7,2.39,29.53,6.66,27.14s48.41-3.87,53.07,1C63.5,32.09,64.28,71.23,59.07,75.64Z"/><path d="M28.78,21.73c-5.71-.37-11.63-0.58-17.22-1.91-2.67-.64-5.66-1.51-6.5-4.43A10.2,10.2,0,0,1,7.68,6c3.44-3.18,7.24-1.14,10.24,1.49A36.39,36.39,0,0,1,28.05,22.68c0.31,0.91,1.76.52,1.45-.4C27.12,15.38,22.2,7.82,15.76,4.07,10.51,1,5.37,4.29,3.81,9.88c-3.9,14,16.57,12.8,25,13.35,1,0.06,1-1.44,0-1.5h0Z"/><path d="M30.46,23.21C35.29,22,40.22,21.1,45,19.63c2.46-.76,5.38-1.68,7.12-3.71C55,12.49,53.19,7.08,50.95,3.74c-3.27-4.87-8-4.67-12.36-1.19C32.57,7.37,30,15,28.76,22.28c-0.16.94,1.28,1.35,1.45,0.4,0.89-5.1,2.28-10.24,5.25-14.56,3.93-5.71,11.1-10,15.09-2.07,2.47,4.88,2,9-3.44,11.27s-11.43,3-17,4.43a0.75,0.75,0,0,0,.4,1.45h0Z"/><path d="M28.55,22.26c-2.11-3-19.71-22-20.77-10.39-0.4,4.41,4.69,5,7.87,6.23q6.25,2.33,12.49,4.71c0.45,0.17.65-.55,0.2-0.72-5.63-2.14-11.59-3.88-17.05-6.39-1.7-.78-2.78-1.29-2.79-3.44,0-1.75.76-3.7,2.66-3.54s3.92,1.85,5.35,2.86A48.6,48.6,0,0,1,27.9,22.64C28.18,23,28.83,22.65,28.55,22.26Z"/><path d="M30.15,22.42A41.74,41.74,0,0,1,39,11.14c1.15-1,3.48-3.41,5.27-3.25,2.58,0.24,3,4,1.61,5.48a6.8,6.8,0,0,1-1.35.86c-4.76,2.89-9.88,5.26-14.9,7.67-0.43.21-.05,0.86,0.38,0.65q5.08-2.45,10.09-5c2.33-1.21,7.45-2.8,7.45-6.09,0-4.64-3.89-4.73-6.72-2.76A38.68,38.68,0,0,0,29.5,22,0.38,0.38,0,0,0,30.15,22.42Z"/><path class="cls-1" d="M12.26,63c0,0.88-.71,2.59-1.59,2.59a1.59,1.59,0,0,1,0-3.19C11.54,62.39,12.26,62.1,12.26,63Z"/><path d="M11.88,63c0,1-1,3.12-2.14,1.8a1.23,1.23,0,0,1,.51-2,3.4,3.4,0,0,1,.91-0.09c0.28,0,.69-0.14.72,0.24s0.78,0.48.75,0c-0.07-1.22-1.32-1.08-2.24-.95a2,2,0,0,0-1.6,2.55,1.84,1.84,0,0,0,2.5,1.17A3.57,3.57,0,0,0,12.63,63,0.38,0.38,0,0,0,11.88,63Z"/><path class="cls-1" d="M18.26,57c0,0.88-.71,2.59-1.59,2.59a1.59,1.59,0,0,1,0-3.19C17.54,56.39,18.26,56.1,18.26,57Z"/><path d="M17.88,57c0,1-1,3.12-2.14,1.8a1.23,1.23,0,0,1,.51-2,3.4,3.4,0,0,1,.91-0.09c0.28,0,.69-0.14.72,0.24s0.78,0.48.75,0c-0.07-1.22-1.32-1.08-2.24-.95a2,2,0,0,0-1.6,2.55,1.84,1.84,0,0,0,2.5,1.17A3.57,3.57,0,0,0,18.63,57,0.38,0.38,0,0,0,17.88,57Z"/><path class="cls-1" d="M24.26,64c0,0.88-.71,2.59-1.59,2.59a1.59,1.59,0,0,1,0-3.19C23.54,63.39,24.26,63.1,24.26,64Z"/><path d="M23.88,64c0,1-1,3.12-2.14,1.8a1.23,1.23,0,0,1,.51-2,3.4,3.4,0,0,1,.91-0.09c0.28,0,.69-0.14.72,0.24s0.78,0.48.75,0c-0.07-1.22-1.32-1.08-2.24-.95a2,2,0,0,0-1.6,2.55,1.84,1.84,0,0,0,2.5,1.17A3.57,3.57,0,0,0,24.63,64,0.38,0.38,0,0,0,23.88,64Z"/><path class="cls-1" d="M18.26,73c0,0.88-.71,2.59-1.59,2.59a1.59,1.59,0,1,1,0-3.19C17.54,72.39,18.26,72.1,18.26,73Z"/><path d="M17.88,73c0,1-1,3.12-2.14,1.8a1.23,1.23,0,0,1,.51-2,3.4,3.4,0,0,1,.91-0.09c0.28,0,.69-0.14.72,0.24s0.78,0.48.75,0c-0.07-1.22-1.32-1.08-2.24-.95a2,2,0,0,0-1.6,2.55,1.84,1.84,0,0,0,2.5,1.17A3.57,3.57,0,0,0,18.63,73,0.38,0.38,0,0,0,17.88,73Z"/><path class="cls-1" d="M48.26,72c0,0.88-.71,2.59-1.59,2.59a1.59,1.59,0,1,1,0-3.19C47.54,71.39,48.26,71.1,48.26,72Z"/><path d="M47.88,72c0,1-1,3.12-2.14,1.8a1.23,1.23,0,0,1,.51-2,3.4,3.4,0,0,1,.91-0.09c0.28,0,.69-0.14.72,0.24s0.78,0.48.75,0c-0.07-1.22-1.32-1.08-2.24-.95a2,2,0,0,0-1.6,2.55,1.84,1.84,0,0,0,2.5,1.17A3.57,3.57,0,0,0,48.63,72,0.38,0.38,0,0,0,47.88,72Z"/><path class="cls-1" d="M51.26,60c0,0.88-.71,2.59-1.59,2.59a1.59,1.59,0,0,1,0-3.19C50.54,59.39,51.26,59.1,51.26,60Z"/><path d="M50.88,60c0,1-1,3.12-2.14,1.8a1.23,1.23,0,0,1,.51-2,3.4,3.4,0,0,1,.91-0.09c0.28,0,.69-0.14.72,0.24s0.78,0.48.75,0c-0.07-1.22-1.32-1.08-2.24-.95a2,2,0,0,0-1.6,2.55,1.84,1.84,0,0,0,2.5,1.17A3.57,3.57,0,0,0,51.63,60,0.38,0.38,0,0,0,50.88,60Z"/><path class="cls-1" d="M6.26,52c0,0.88-.71,2.59-1.59,2.59a1.59,1.59,0,0,1,0-3.19C5.54,51.39,6.26,51.1,6.26,52Z"/><path d="M5.88,52c0,1-1,3.12-2.14,1.8a1.23,1.23,0,0,1,.51-2,3.4,3.4,0,0,1,.91-0.09c0.28,0,.69-0.14.72,0.24s0.78,0.48.75,0C6.56,50.76,5.32,50.9,4.39,51a2,2,0,0,0-1.6,2.55,1.84,1.84,0,0,0,2.5,1.17A3.57,3.57,0,0,0,6.63,52,0.38,0.38,0,0,0,5.88,52Z"/><path class="cls-1" d="M18.26,36c0,0.88-.71,2.59-1.59,2.59a1.59,1.59,0,0,1,0-3.19C17.54,35.39,18.26,35.1,18.26,36Z"/><path d="M17.88,36c0,1-1,3.12-2.14,1.8a1.23,1.23,0,0,1,.51-2,3.4,3.4,0,0,1,.91-0.09c0.28,0,.69-0.14.72,0.24s0.78,0.48.75,0c-0.07-1.22-1.32-1.08-2.24-.95a2,2,0,0,0-1.6,2.55,1.84,1.84,0,0,0,2.5,1.17A3.57,3.57,0,0,0,18.63,36,0.38,0.38,0,0,0,17.88,36Z"/><path class="cls-1" d="M8.26,29c0,0.88-.71,2.59-1.59,2.59a1.59,1.59,0,0,1,0-3.19C7.54,28.39,8.26,28.1,8.26,29Z"/><path d="M7.88,29c0,1-1,3.12-2.14,1.8a1.23,1.23,0,0,1,.51-2,3.4,3.4,0,0,1,.91-0.09c0.28,0,.69-0.14.72,0.24s0.78,0.48.75,0C8.56,27.76,7.32,27.9,6.39,28a2,2,0,0,0-1.6,2.55,1.84,1.84,0,0,0,2.5,1.17A3.57,3.57,0,0,0,8.63,29,0.38,0.38,0,0,0,7.88,29Z"/><path class="cls-1" d="M43.26,53c0,0.88-.71,2.59-1.59,2.59a1.59,1.59,0,0,1,0-3.19C42.54,52.39,43.26,52.1,43.26,53Z"/><path d="M42.88,53c0,1-1,3.12-2.14,1.8a1.23,1.23,0,0,1,.51-2,3.4,3.4,0,0,1,.91-0.09c0.28,0,.69-0.14.72,0.24s0.78,0.48.75,0c-0.07-1.22-1.32-1.08-2.24-.95a2,2,0,0,0-1.6,2.55,1.84,1.84,0,0,0,2.5,1.17A3.57,3.57,0,0,0,43.63,53,0.38,0.38,0,0,0,42.88,53Z"/><path class="cls-1" d="M42.26,24c0,0.88-.71,2.59-1.59,2.59a1.59,1.59,0,0,1,0-3.19C41.54,23.39,42.26,23.1,42.26,24Z"/><path d="M41.88,24c0,1-1,3.12-2.14,1.8a1.23,1.23,0,0,1,.51-2,3.4,3.4,0,0,1,.91-0.09c0.28,0,.69-0.14.72,0.24s0.78,0.48.75,0c-0.07-1.22-1.32-1.08-2.24-.95a2,2,0,0,0-1.6,2.55,1.84,1.84,0,0,0,2.5,1.17A3.57,3.57,0,0,0,42.63,24,0.38,0.38,0,0,0,41.88,24Z"/><path class="cls-1" d="M58.26,33c0,0.88-.71,2.59-1.59,2.59a1.59,1.59,0,0,1,0-3.19C57.54,32.39,58.26,32.1,58.26,33Z"/><path d="M57.88,33c0,1-1,3.12-2.14,1.8a1.23,1.23,0,0,1,.51-2,3.4,3.4,0,0,1,.91-0.09c0.28,0,.69-0.14.72,0.24s0.78,0.48.75,0c-0.07-1.22-1.32-1.08-2.24-.95a2,2,0,0,0-1.6,2.55,1.84,1.84,0,0,0,2.5,1.17A3.57,3.57,0,0,0,58.63,33,0.38,0.38,0,0,0,57.88,33Z"/><path class="cls-1" d="M58.26,53c0,0.88-.71,2.59-1.59,2.59a1.59,1.59,0,0,1,0-3.19C57.54,52.39,58.26,52.1,58.26,53Z"/><path d="M57.88,53c0,1-1,3.12-2.14,1.8a1.23,1.23,0,0,1,.51-2,3.4,3.4,0,0,1,.91-0.09c0.28,0,.69-0.14.72,0.24s0.78,0.48.75,0c-0.07-1.22-1.32-1.08-2.24-.95a2,2,0,0,0-1.6,2.55,1.84,1.84,0,0,0,2.5,1.17A3.57,3.57,0,0,0,58.63,53,0.38,0.38,0,0,0,57.88,53Z"/><path class="cls-1" d="M41.26,39c0,0.88-.71,2.59-1.59,2.59a1.59,1.59,0,0,1,0-3.19C40.54,38.39,41.26,38.1,41.26,39Z"/><path d="M40.88,39c0,1-1,3.12-2.14,1.8a1.23,1.23,0,0,1,.51-2,3.4,3.4,0,0,1,.91-0.09c0.28,0,.69-0.14.72,0.24s0.78,0.48.75,0c-0.07-1.22-1.32-1.08-2.24-.95a2,2,0,0,0-1.6,2.55,1.84,1.84,0,0,0,2.5,1.17A3.57,3.57,0,0,0,41.63,39,0.38,0.38,0,0,0,40.88,39Z"/><path class="cls-1" d="M47.26,31c0,0.88-.71,2.59-1.59,2.59a1.59,1.59,0,0,1,0-3.19C46.54,30.39,47.26,30.1,47.26,31Z"/><path d="M46.88,31c0,1-1,3.12-2.14,1.8a1.23,1.23,0,0,1,.51-2,3.4,3.4,0,0,1,.91-0.09c0.28,0,.69-0.14.72,0.24s0.78,0.48.75,0c-0.07-1.22-1.32-1.08-2.24-.95a2,2,0,0,0-1.6,2.55,1.84,1.84,0,0,0,2.5,1.17A3.57,3.57,0,0,0,47.63,31,0.38,0.38,0,0,0,46.88,31Z"/><path class="cls-1" d="M21.26,27c0,0.88-.71,2.59-1.59,2.59a1.59,1.59,0,0,1,0-3.19C20.54,26.39,21.26,26.1,21.26,27Z"/><path d="M20.88,27c0,1-1,3.12-2.14,1.8a1.23,1.23,0,0,1,.51-2,3.4,3.4,0,0,1,.91-0.09c0.28,0,.69-0.14.72,0.24s0.78,0.48.75,0c-0.07-1.22-1.32-1.08-2.24-.95a2,2,0,0,0-1.6,2.55,1.84,1.84,0,0,0,2.5,1.17A3.57,3.57,0,0,0,21.63,27,0.38,0.38,0,0,0,20.88,27Z"/><path class="cls-2" d="M35.6,75.85C35.1,63.9,36,35.38,36.29,22.49H23C23.37,44,24.62,70.68,25.45,76.35Z"/><path d="M22.53,22.87c0.3,17.75.49,36,2.93,53.59,0.07,0.48.79,0.27,0.72-.2-2.43-17.54-2.6-35.71-2.9-53.39a0.38,0.38,0,0,0-.75,0h0Z"/><path d="M34.28,22.49c-0.33,17.71-.7,35.5,0,53.2a0.38,0.38,0,0,0,.75,0c-0.7-17.7-.33-35.49,0-53.2a0.38,0.38,0,0,0-.75,0h0Z"/><path class="cls-2" d="M59.42,40.34C47,42.91,21.35,41.89,1.31,40.16L0.9,49.61c32.64,1.77,46.91,2.63,58.43.57Z"/><path d="M0.81,50c19.13,1,39.56,3.85,58.62.56,0.47-.08.27-0.8-0.2-0.72-19,3.28-39.37.45-58.42-.58-0.48,0-.48.72,0,0.75h0Z"/><path d="M1.22,40.54c18.92,1.09,39.15,3.4,58,.27,0.48-.08.27-0.8-0.2-0.72-18.74,3.11-38.94.79-57.77-.29-0.48,0-.48.72,0,0.75h0Z"/><path d="M54.69,72.11c-5.55,2.47-12.75,2.53-18.69,3-7.57.58-15.43,1-23-.09C10.6,74.67,7.72,74.3,6,72.44c-2.14-2.27-2.81-6-3.35-9C1.15,55.58,1.29,47.25,2,39.31c0.35-3.7.38-12,4.29-13.85,2-1,5.13-.9,7.28-1.12,3.44-.36,6.9-0.59,10.36-0.77a193.48,193.48,0,0,1,21.87-.08c4.33,0.27,10-.21,11.13,4.72,1.72,7.36,1.69,15.44,1.59,23a94.85,94.85,0,0,1-.85,12.71c-0.35,2.32-.73,6.88-3,8.24a0.75,0.75,0,0,0,.76,1.3c4.23-2.52,4.08-11.27,4.36-15.45a133.44,133.44,0,0,0-.72-26.16c-0.57-4.33-.74-7.7-5.33-8.85-7.3-1.82-15.5-1.33-22.95-1.15s-15.25.42-22.69,1.74c-4.86.87-5.59,3.51-6.53,8.26A94.48,94.48,0,0,0,.37,57.64c0.44,5.27.93,13.89,6,17.05,2.71,1.69,6.58,1.89,9.67,2.14a116.82,116.82,0,0,0,15.5,0c7.5-.39,16.9-0.36,23.91-3.48C56.33,73,55.57,71.72,54.69,72.11Z"/><path class="cls-1" d="M37.76,63c0,0.88-.71,2.59-1.59,2.59a1.59,1.59,0,1,1,0-3.19C37,62.39,37.76,62.1,37.76,63Z"/><path d="M37.38,63c0,1-1,3.12-2.14,1.8a1.23,1.23,0,0,1,.51-2,3.4,3.4,0,0,1,.91-0.09c0.28,0,.69-0.14.72,0.24s0.78,0.48.75,0c-0.07-1.22-1.32-1.08-2.24-.95a2,2,0,0,0-1.6,2.55,1.84,1.84,0,0,0,2.5,1.17A3.57,3.57,0,0,0,38.13,63,0.38,0.38,0,0,0,37.38,63Z"/></svg>