<?xml version="1.0" encoding="utf-8"?>
<!-- Generator: Adobe Illustrator 18.1.1, SVG Export Plug-In . SVG Version: 6.00 Build 0)  -->
<svg version="1.1" xmlns="http://www.w3.org/2000/svg" xmlns:xlink="http://www.w3.org/1999/xlink" x="0px" y="0px"
	 viewBox="0 0 276 137" enable-background="new 0 0 276 137" xml:space="preserve">
<g id="Layer_2">
</g>
<g id="Layer_1">
	<polygon fill="#FFFFFF" stroke="#0C1F2E" stroke-width="3" stroke-linecap="round" stroke-miterlimit="10" points="193,105.3 
		169.5,112.4 141,105.3 115.2,113.2 89.2,105.3 89.2,27.2 115.2,35.1 141.1,27.2 169.5,34.3 193,27.2 	"/>
	
		<line fill="none" stroke="#0C1F2E" stroke-width="3" stroke-linecap="round" stroke-miterlimit="10" x1="115" y1="35.1" x2="115" y2="102.3"/>
	
		<line fill="none" stroke="#0C1F2E" stroke-width="3" stroke-linecap="round" stroke-miterlimit="10" x1="115" y1="97" x2="115" y2="113.5"/>
	
		<line fill="none" stroke="#0C1F2E" stroke-width="3" stroke-linecap="round" stroke-miterlimit="10" x1="169" y1="92.7" x2="169" y2="111.8"/>
	
		<line fill="none" stroke="#0C1F2E" stroke-width="3" stroke-linecap="round" stroke-miterlimit="10" x1="169" y1="34.3" x2="169" y2="90.8"/>
	
		<line fill="none" stroke="#0C1F2E" stroke-width="3" stroke-linecap="round" stroke-miterlimit="10" x1="141.7" y1="90.7" x2="141.7" y2="105.5"/>
	
		<line fill="none" stroke="#0C1F2E" stroke-width="3" stroke-linecap="round" stroke-miterlimit="10" x1="141.7" y1="28.2" x2="141.7" y2="42.9"/>
	<g>
		<defs>
			<path id="SVGID_1657_" d="M70.9-268.6h-1.5v1.5v35v1.5h1.5h139h1.5v-1.5v-23v-0.6l-0.4-0.4l-11.4-12l-0.4-0.5h-0.6H70.9z
				 M70.9-265.6h127.6l-1.1-0.5l11.4,12l-0.4-1v23l1.5-1.5h-139l1.5,1.5v-35L70.9-265.6z M49.4-288.6h182v78h-182V-288.6z"/>
		</defs>
		<clipPath id="SVGID_2_">
			<use xlink:href="#SVGID_1657_"  overflow="visible"/>
		</clipPath>
		<g clip-path="url(#SVGID_2_)">
			<defs>
				<polygon id="SVGID_1659_" points="70.9,-267.1 198.5,-267.1 209.9,-255.1 209.9,-232.1 70.9,-232.1 				"/>
			</defs>
			<clipPath id="SVGID_4_">
				<use xlink:href="#SVGID_1659_"  overflow="visible"/>
			</clipPath>
			<g clip-path="url(#SVGID_4_)">
				<defs>
					<rect id="SVGID_1661_" x="-301.1" y="-802.1" width="1121" height="1030"/>
				</defs>
				<clipPath id="SVGID_6_">
					<use xlink:href="#SVGID_1661_"  overflow="visible"/>
				</clipPath>
			</g>
		</g>
	</g>
	<g>
		<defs>
			<polygon id="SVGID_1663_" points="70.9,-267.1 198.5,-267.1 209.9,-255.1 209.9,-232.1 70.9,-232.1 			"/>
		</defs>
		<clipPath id="SVGID_8_">
			<use xlink:href="#SVGID_1663_"  overflow="visible"/>
		</clipPath>
		<g clip-path="url(#SVGID_8_)">
			<defs>
				<rect id="SVGID_1665_" x="-301.1" y="-802.1" width="1121" height="1030"/>
			</defs>
			<clipPath id="SVGID_10_">
				<use xlink:href="#SVGID_1665_"  overflow="visible"/>
			</clipPath>
		</g>
	</g>
	<g>
		<defs>
			<path id="SVGID_1667_" d="M103.9-217.2c-8,0-14.5-6.5-14.5-14.5c0-8,6.5-14.5,14.5-14.5s14.5,6.5,14.5,14.5
				C118.4-223.7,111.9-217.2,103.9-217.2z M103.9-214.2c9.7,0,17.5-7.8,17.5-17.5c0-9.7-7.8-17.5-17.5-17.5s-17.5,7.8-17.5,17.5
				C86.4-222,94.3-214.2,103.9-214.2z M66.4-269.2h75v75h-75V-269.2z"/>
		</defs>
		<clipPath id="SVGID_12_">
			<use xlink:href="#SVGID_1667_"  overflow="visible"/>
		</clipPath>
		<g clip-path="url(#SVGID_12_)">
			<defs>
				<circle id="SVGID_1669_" cx="103.9" cy="-231.7" r="16"/>
			</defs>
			<clipPath id="SVGID_14_">
				<use xlink:href="#SVGID_1669_"  overflow="visible"/>
			</clipPath>
			<g clip-path="url(#SVGID_14_)">
				<defs>
					<rect id="SVGID_1671_" x="-301.1" y="-802.1" width="1121" height="1030"/>
				</defs>
				<clipPath id="SVGID_16_">
					<use xlink:href="#SVGID_1671_"  overflow="visible"/>
				</clipPath>
			</g>
		</g>
	</g>
	<g>
		<defs>
			<circle id="SVGID_1673_" cx="103.9" cy="-231.7" r="16"/>
		</defs>
		<clipPath id="SVGID_18_">
			<use xlink:href="#SVGID_1673_"  overflow="visible"/>
		</clipPath>
		<g clip-path="url(#SVGID_18_)">
			<defs>
				<rect id="SVGID_1675_" x="-301.1" y="-802.1" width="1121" height="1030"/>
			</defs>
			<clipPath id="SVGID_20_">
				<use xlink:href="#SVGID_1675_"  overflow="visible"/>
			</clipPath>
		</g>
	</g>
	<g>
		<defs>
			<path id="SVGID_1677_" d="M103.9-224.2c-4.1,0-7.5-3.4-7.5-7.5c0-4.1,3.4-7.5,7.5-7.5s7.5,3.4,7.5,7.5
				C111.4-227.5,108.1-224.2,103.9-224.2z M103.9-221.2c5.8,0,10.5-4.7,10.5-10.5c0-5.8-4.7-10.5-10.5-10.5s-10.5,4.7-10.5,10.5
				C93.4-225.9,98.1-221.2,103.9-221.2z M73.4-262.2h61v61h-61V-262.2z"/>
		</defs>
		<clipPath id="SVGID_22_">
			<use xlink:href="#SVGID_1677_"  overflow="visible"/>
		</clipPath>
		<g clip-path="url(#SVGID_22_)">
			<defs>
				<circle id="SVGID_1679_" cx="103.9" cy="-231.7" r="9"/>
			</defs>
			<clipPath id="SVGID_24_">
				<use xlink:href="#SVGID_1679_"  overflow="visible"/>
			</clipPath>
			<g clip-path="url(#SVGID_24_)">
				<defs>
					<rect id="SVGID_1681_" x="-301.1" y="-802.1" width="1121" height="1030"/>
				</defs>
				<clipPath id="SVGID_26_">
					<use xlink:href="#SVGID_1681_"  overflow="visible"/>
				</clipPath>
			</g>
		</g>
	</g>
	<g>
		<defs>
			<circle id="SVGID_1683_" cx="103.9" cy="-231.7" r="9"/>
		</defs>
		<clipPath id="SVGID_28_">
			<use xlink:href="#SVGID_1683_"  overflow="visible"/>
		</clipPath>
		<g clip-path="url(#SVGID_28_)">
			<defs>
				<rect id="SVGID_1685_" x="-301.1" y="-802.1" width="1121" height="1030"/>
			</defs>
			<clipPath id="SVGID_30_">
				<use xlink:href="#SVGID_1685_"  overflow="visible"/>
			</clipPath>
		</g>
	</g>
	<g>
		<defs>
			<path id="SVGID_1687_" d="M170.2-217.2c-8,0-14.5-6.5-14.5-14.5c0-8,6.5-14.5,14.5-14.5c8,0,14.5,6.5,14.5,14.5
				C184.7-223.7,178.2-217.2,170.2-217.2z M170.2-214.2c9.7,0,17.5-7.8,17.5-17.5c0-9.7-7.8-17.5-17.5-17.5s-17.5,7.8-17.5,17.5
				C152.7-222,160.5-214.2,170.2-214.2z M132.7-269.2h75v75h-75V-269.2z"/>
		</defs>
		<clipPath id="SVGID_32_">
			<use xlink:href="#SVGID_1687_"  overflow="visible"/>
		</clipPath>
		<g clip-path="url(#SVGID_32_)">
			<defs>
				<circle id="SVGID_1689_" cx="170.2" cy="-231.7" r="16"/>
			</defs>
			<clipPath id="SVGID_34_">
				<use xlink:href="#SVGID_1689_"  overflow="visible"/>
			</clipPath>
			<g clip-path="url(#SVGID_34_)">
				<defs>
					<rect id="SVGID_1691_" x="-301.1" y="-802.1" width="1121" height="1030"/>
				</defs>
				<clipPath id="SVGID_36_">
					<use xlink:href="#SVGID_1691_"  overflow="visible"/>
				</clipPath>
			</g>
		</g>
	</g>
	<g>
		<defs>
			<circle id="SVGID_1693_" cx="170.2" cy="-231.7" r="16"/>
		</defs>
		<clipPath id="SVGID_38_">
			<use xlink:href="#SVGID_1693_"  overflow="visible"/>
		</clipPath>
		<g clip-path="url(#SVGID_38_)">
			<defs>
				<rect id="SVGID_1695_" x="-301.1" y="-802.1" width="1121" height="1030"/>
			</defs>
			<clipPath id="SVGID_40_">
				<use xlink:href="#SVGID_1695_"  overflow="visible"/>
			</clipPath>
		</g>
	</g>
	<g>
		<defs>
			<path id="SVGID_1697_" d="M170.4-272l-7.7-15.6h-27.2v15.6H170.4z M95.2-272l7.4-15.6h27.2v15.6H95.2z M84.9-266.7l14.1-26.9
				h66.8l15.3,27.9L84.9-266.7z"/>
		</defs>
		<clipPath id="SVGID_42_">
			<use xlink:href="#SVGID_1697_"  overflow="visible"/>
		</clipPath>
		<g clip-path="url(#SVGID_42_)">
			<defs>
				<rect id="SVGID_1699_" x="-301.1" y="-802.1" width="1121" height="1030"/>
			</defs>
			<clipPath id="SVGID_44_">
				<use xlink:href="#SVGID_1699_"  overflow="visible"/>
			</clipPath>
		</g>
	</g>
	<g>
		<defs>
			<path id="SVGID_1701_" d="M170.2-224.2c-4.1,0-7.5-3.4-7.5-7.5c0-4.1,3.4-7.5,7.5-7.5c4.1,0,7.5,3.4,7.5,7.5
				C177.7-227.5,174.3-224.2,170.2-224.2z M170.2-221.2c5.8,0,10.5-4.7,10.5-10.5c0-5.8-4.7-10.5-10.5-10.5
				c-5.8,0-10.5,4.7-10.5,10.5C159.7-225.9,164.4-221.2,170.2-221.2z M139.7-262.2h61v61h-61V-262.2z"/>
		</defs>
		<clipPath id="SVGID_46_">
			<use xlink:href="#SVGID_1701_"  overflow="visible"/>
		</clipPath>
		<g clip-path="url(#SVGID_46_)">
			<defs>
				<circle id="SVGID_1703_" cx="170.2" cy="-231.7" r="9"/>
			</defs>
			<clipPath id="SVGID_48_">
				<use xlink:href="#SVGID_1703_"  overflow="visible"/>
			</clipPath>
			<g clip-path="url(#SVGID_48_)">
				<defs>
					<rect id="SVGID_1705_" x="-301.1" y="-802.1" width="1121" height="1030"/>
				</defs>
				<clipPath id="SVGID_50_">
					<use xlink:href="#SVGID_1705_"  overflow="visible"/>
				</clipPath>
			</g>
		</g>
	</g>
	<g>
		<defs>
			<circle id="SVGID_1707_" cx="170.2" cy="-231.7" r="9"/>
		</defs>
		<clipPath id="SVGID_52_">
			<use xlink:href="#SVGID_1707_"  overflow="visible"/>
		</clipPath>
		<g clip-path="url(#SVGID_52_)">
			<defs>
				<rect id="SVGID_1709_" x="-301.1" y="-802.1" width="1121" height="1030"/>
			</defs>
			<clipPath id="SVGID_54_">
				<use xlink:href="#SVGID_1709_"  overflow="visible"/>
			</clipPath>
		</g>
	</g>
	<g>
		<circle fill-rule="evenodd" clip-rule="evenodd" fill="#FFFFFF" cx="142" cy="66.7" r="17.7"/>
		<path fill="#0C1F2E" d="M142,85.9c-10.6,0-19.2-8.6-19.2-19.2s8.6-19.2,19.2-19.2s19.2,8.6,19.2,19.2S152.6,85.9,142,85.9z
			 M142,50.5c-9,0-16.2,7.3-16.2,16.2S133,82.9,142,82.9s16.2-7.3,16.2-16.2S150.9,50.5,142,50.5z"/>
	</g>
	<g>
		<g>
			<path fill="#FFFFFF" d="M148.4,63.3c0,3.6-6.5,12.2-6.5,12.2s-6.5-8.7-6.5-12.2s2.9-6.5,6.5-6.5
				C145.6,56.8,148.4,59.7,148.4,63.3z"/>
			<path fill="#0F1F2D" d="M142,78l-1.2-1.6c-1.1-1.5-6.8-9.3-6.8-13.1c0-4.4,3.6-8,8-8s8,3.6,8,8c0,3.9-5.6,11.6-6.8,13.1L142,78z
				 M142,58.3c-2.7,0-5,2.2-5,5c0,1.8,2.6,6.3,5,9.7c2.3-3.3,5-7.8,5-9.7C146.9,60.6,144.7,58.3,142,58.3z"/>
		</g>
		<g>
			<circle fill="#0F1F2D" cx="142" cy="62.7" r="2.1"/>
		</g>
	</g>
</g>
</svg>
