<?xml version="1.0" encoding="iso-8859-1"?>
<!-- Generator: Adobe Illustrator 18.1.1, SVG Export Plug-In . SVG Version: 6.00 Build 0)  -->
<svg version="1.1" id="Layer_1" xmlns="http://www.w3.org/2000/svg" xmlns:xlink="http://www.w3.org/1999/xlink" x="0px" y="0px"
	 viewBox="0 0 504 504" style="enable-background:new 0 0 504 504;" xml:space="preserve">
<g>
	<path style="fill:#361F17;" d="M167.001,64c-113,152,36,408-134,440h227.001l48-315.991L167.001,64z"/>
	<path style="fill:#361F17;" d="M358.003,88c22,64,63,160,6,223s93,202-50,202c-79.607,0-79.145-229.452-79.145-229.452L358.003,88z
		"/>
	<path style="fill:#F4D5C6;" d="M202.997,509h98.006c-25.704-18.413-18.55-57.345-18.55-147.95l-30.454,4.161l-30.453-4.161
		C221.546,451.655,228.701,490.587,202.997,509z"/>
	<path style="opacity:0.35;fill:#D29F93;" d="M281.738,419.647c0.272-16.648,0.715-36.011,0.715-58.597l-30.454,4.161l-30.453-4.161
		c0,22.586,0.444,41.949,0.715,58.597C231.06,441.517,241.201,454,252,454C262.799,454,272.939,441.517,281.738,419.647z"/>
	
		<ellipse transform="matrix(-0.9977 0.068 -0.068 -0.9977 312.7891 444.3553)" style="fill:#E2BCAF;" cx="148.833" cy="227.5" rx="14.5" ry="48.5"/>
	
		<ellipse transform="matrix(0.9977 0.068 -0.068 0.9977 16.2867 -23.5744)" style="fill:#E2BCAF;" cx="354.503" cy="227.5" rx="14.5" ry="48.5"/>
	<path style="fill:#F4D5C6;" d="M348.586,214.393c0-36.694,0-62.077,0-100.39c0-37.348-23.547-68.022-93.567-69.548l0.001-0.065
		c-0.932,0-1.849,0.009-2.765,0.019c-0.916-0.01-1.833-0.019-2.764-0.019l0.001,0.065c-70.021,1.526-93.567,32.201-93.567,69.548
		c0,38.313,0,63.695,0,100.39c0,36.695-2.635,77.69,8.96,98.196C176.481,333.095,212.594,396,252.254,396
		c39.662,0,75.775-62.905,87.371-83.411C351.223,292.083,348.586,251.088,348.586,214.393z"/>
	<path style="fill:#A3897B;" d="M190.473,187.316c-7.601-8.346-20.468-3.544-26.613,7.936c-1.449-0.897-2.907-1.788-4.374-2.671
		c3.88-18.894,21.351-23.741,26.252-20.744c4.97,2.4,41.95,0.987,43.174,19.531C222.157,184.293,197.902,195.39,190.473,187.316z
		 M314.037,187.316c7.601-8.346,20.467-3.544,26.612,7.936c1.449-0.897,2.908-1.788,4.375-2.671
		c-3.882-18.894-21.352-23.741-26.254-20.744c-4.97,2.4-41.949,0.987-43.172,19.531C282.352,184.293,306.607,195.39,314.037,187.316
		z"/>
	<g>
		<g>
			<path style="fill:#0E354F;" d="M171.037,208.188c0,0,35.583-29.011,54.435,6.605l-18.28-15.599l12.045,14.471
				C201.875,206.91,187.659,214.895,171.037,208.188z"/>
			<g>
				<path style="fill:#0E354F;" d="M173.306,199.404c0,0-4.245,6.016,4.033,7.613l1.292-2.084
					C178.63,204.934,170.675,204.819,173.306,199.404z"/>
				<path style="fill:#0E354F;" d="M176.41,197.862c0,0-4.245,6.016,4.034,7.613l1.292-2.083
					C181.735,203.391,173.78,203.277,176.41,197.862z"/>
				<path style="fill:#0E354F;" d="M179.515,196.318c0,0-4.245,6.017,4.034,7.614l1.292-2.083
					C184.84,201.849,176.885,201.734,179.515,196.318z"/>
			</g>
		</g>
		<g>
			<path style="fill:#0E354F;" d="M333.473,208.188c0,0-35.583-29.011-54.434,6.605l18.279-15.599l-12.045,14.471
				C302.635,206.91,316.852,214.895,333.473,208.188z"/>
			<g>
				<path style="fill:#0E354F;" d="M331.205,199.404c0,0,4.244,6.016-4.033,7.613l-1.292-2.084
					C325.88,204.934,333.836,204.819,331.205,199.404z"/>
				<path style="fill:#0E354F;" d="M328.101,197.862c0,0,4.245,6.016-4.034,7.613l-1.291-2.083
					C322.775,203.391,330.73,203.277,328.101,197.862z"/>
				<path style="fill:#0E354F;" d="M324.996,196.318c0,0,4.244,6.017-4.034,7.614l-1.292-2.083
					C319.67,201.849,327.625,201.734,324.996,196.318z"/>
			</g>
		</g>
	</g>
	<g>
		<g>
			<g>
				<linearGradient id="SVGID_1_" gradientUnits="userSpaceOnUse" x1="234.8036" y1="291.4023" x2="234.8036" y2="258.4206">
					<stop  offset="0" style="stop-color:#DDACA2"/>
					<stop  offset="0.311" style="stop-color:#E1B4A9"/>
					<stop  offset="0.788" style="stop-color:#EDC9BC"/>
					<stop  offset="1" style="stop-color:#F4D5C6"/>
				</linearGradient>
				<path style="fill:url(#SVGID_1_);" d="M245.192,291.402c-37.282-11.349-14.674-29.244-6.346-32.736
					c8.329-3.491,5.949,31.427,5.949,31.427"/>
				
					<linearGradient id="SVGID_2_" gradientUnits="userSpaceOnUse" x1="180.303" y1="291.4023" x2="180.303" y2="258.4206" gradientTransform="matrix(-1 0 0 1 450.0098 0)">
					<stop  offset="0" style="stop-color:#DDACA2"/>
					<stop  offset="0.311" style="stop-color:#E1B4A9"/>
					<stop  offset="0.788" style="stop-color:#EDC9BC"/>
					<stop  offset="1" style="stop-color:#F4D5C6"/>
				</linearGradient>
				<path style="fill:url(#SVGID_2_);" d="M259.318,291.402c37.282-11.349,14.674-29.244,6.347-32.736
					c-8.327-3.491-5.949,31.427-5.949,31.427"/>
			</g>
			<linearGradient id="SVGID_3_" gradientUnits="userSpaceOnUse" x1="252.2558" y1="298.0928" x2="252.2558" y2="186.7607">
				<stop  offset="0" style="stop-color:#DDACA2"/>
				<stop  offset="0.6951" style="stop-color:#ECC7BA"/>
				<stop  offset="1" style="stop-color:#F4D5C6"/>
			</linearGradient>
			<path style="fill:url(#SVGID_3_);" d="M259.359,253.038l7.056-66.277h-12.453h0.012h-1.718h-1.72h0.012h-12.452l7.056,66.277
				c-10.29,5.049-27.592,23.692,7.103,45.055C286.951,276.73,269.65,258.087,259.359,253.038z"/>
		</g>
		<path style="opacity:0.35;fill:#D1B886;" d="M227.617,282.324c2.622,2.749,7.041,5.437,13.912,7.871
			c2.834,2.578,6.369,5.214,10.726,7.897c4.358-2.684,7.892-5.321,10.727-7.897c6.872-2.436,11.289-5.122,13.911-7.871H227.617z"/>
		<path style="fill:#634E42;" d="M237.665,287.78c-0.649,0.632-2.929-0.239-5.094-1.944c-2.165-1.706-3.394-3.6-2.745-4.233
			c0.648-0.631,2.929,0.239,5.093,1.945C237.086,285.254,238.314,287.148,237.665,287.78z M266.845,287.78
			c0.649,0.632,2.93-0.239,5.096-1.944c2.162-1.706,3.393-3.6,2.745-4.233c-0.648-0.631-2.931,0.239-5.094,1.945
			C267.426,285.254,266.195,287.148,266.845,287.78z"/>
	</g>
	<path style="opacity:0.19;fill:#FFFFFF;" d="M257.886,257.654c-1.884-0.478-3.966,0.815-5.631,3.185
		c-1.665-2.37-3.747-3.663-5.63-3.185c-3.123,0.797-4.515,6.145-3.107,11.947c1.406,5.803,5.08,9.861,8.203,9.066
		c0.185-0.048,0.361-0.113,0.534-0.19c0.172,0.077,0.349,0.143,0.534,0.19c3.125,0.795,6.798-3.264,8.206-9.066
		C262.401,263.799,261.009,258.451,257.886,257.654z"/>
	<g>
		<path style="opacity:0.35;fill:#D29F93;" d="M225.095,213.827c0,0-34.374,27.203-55.169-4.353
			C169.926,209.474,188.599,227.246,225.095,213.827z"/>
		<path style="opacity:0.35;fill:#D29F93;" d="M279.416,213.827c0,0,34.375,27.203,55.169-4.353
			C334.585,209.474,315.913,227.246,279.416,213.827z"/>
	</g>
	<linearGradient id="SVGID_4_" gradientUnits="userSpaceOnUse" x1="252.2553" y1="365.8922" x2="252.2553" y2="351.2061">
		<stop  offset="0" style="stop-color:#DDACA2"/>
		<stop  offset="0.6951" style="stop-color:#ECC7BA"/>
		<stop  offset="1" style="stop-color:#F4D5C6"/>
	</linearGradient>
	<path style="opacity:0.51;fill:url(#SVGID_4_);" d="M252.254,354.098l-45.809-2.892c24.432,16.605,45.809,14.611,45.809,14.611
		s21.379,1.994,45.811-14.611L252.254,354.098z"/>
	<g>
		<path style="opacity:0.35;fill:#D29F93;" d="M224.873,260.123c1.542,40.559-32.395,25.025-35.481,36.243
			c-3.085,11.219,12.341,27.614,12.341,27.614c-37.023-24.162-19.283-35.379-6.171-36.242
			C208.675,286.875,225.645,276.52,224.873,260.123z"/>
		<path style="opacity:0.35;fill:#D29F93;" d="M279.637,260.123c-1.544,40.559,32.396,25.025,35.482,36.243
			c3.084,11.219-12.343,27.614-12.343,27.614c37.023-24.162,19.283-35.379,6.172-36.242
			C295.834,286.875,278.867,276.52,279.637,260.123z"/>
	</g>
	<g>
		<path style="fill:#D29F93;" d="M251.862,316.774l-47.103-8.594c25.121,49.342,47.103,43.421,47.103,43.421
			s21.982,5.921,47.105-43.421L251.862,316.774z"/>
		<path style="fill:#FFFFFF;" d="M251.862,314.288l-47.103-6.107c25.121,35.069,47.103,30.859,47.103,30.859
			s21.982,4.21,47.105-30.859L251.862,314.288z"/>
		<path style="fill:#D29F93;" d="M252.254,312.087c-13.988-10.801-39.109,1.764-59.091-8.816
			c16.557,14.988,47.673,6.173,59.091,15.431c11.42-9.258,42.537-0.442,59.094-15.431
			C291.363,313.851,266.244,301.286,252.254,312.087z"/>
	</g>
	<g>
		<radialGradient id="SVGID_5_" cx="188.3972" cy="259.6919" r="37.5375" gradientUnits="userSpaceOnUse">
			<stop  offset="0" style="stop-color:#E20613"/>
			<stop  offset="0.4879" style="stop-color:#F1868D"/>
			<stop  offset="0.8408" style="stop-color:#FBDDDF; stop-opacity: 0.2"/>
			<stop  offset="1" style="stop-color:#FFFFFF; stop-opacity: 0.0"/>
		</radialGradient>
		<circle style="opacity:0.17;fill:url(#SVGID_5_);" cx="188.397" cy="259.692" r="37.537"/>
		<radialGradient id="SVGID_6_" cx="316.1133" cy="259.6919" r="37.5378" gradientUnits="userSpaceOnUse">
			<stop  offset="0" style="stop-color:#E20613"/>
			<stop  offset="0.4879" style="stop-color:#F1868D"/>
			<stop  offset="0.8408" style="stop-color:#FBDDDF; stop-opacity: 0.2"/>
			<stop  offset="1" style="stop-color:#FFFFFF; stop-opacity: 0.0"/>
		</radialGradient>
		<circle style="opacity:0.17;fill:url(#SVGID_6_);" cx="316.113" cy="259.692" r="37.538"/>
	</g>
	<g>
		<path style="opacity:0.24;fill:#D29F93;" d="M163.895,275.816c0,0,7.771,46.535,37.791,87.284
			C201.686,363.101,163.373,334.54,163.895,275.816z"/>
		<path style="opacity:0.24;fill:#D29F93;" d="M340.615,275.816c0,0-7.771,46.535-37.79,87.284
			C302.825,363.101,341.138,334.54,340.615,275.816z"/>
	</g>
	<path style="fill:#361F17;" d="M267.003,10c-130.001,8-168.6,145.445-156.001,285c-4.093-97.55,11.369-184.384,56.525-232.592
		C152.391,87.614,144.247,122.45,149.001,170c44-29,57-104,134.001-111c66,12,36,107,65,123
		c12.568-22.852,17.476-52.749,12.299-81.35c19.803,36.96,46.541,102.143,27.129,158.371C415.003,204,373.003,14,267.003,10z"/>
	<path style="fill:#361F17;" d="M348.003,182v59c0,0,45-57,7-90S348.003,182,348.003,182z"/>
	<path style="fill:#361F17;" d="M155.333,182v59c0,0-45-57-7-90S155.333,182,155.333,182z"/>
</g>
</svg>
