<?xml version="1.0" encoding="UTF-8" standalone="no"?>
<!DOCTYPE svg PUBLIC "-//W3C//DTD SVG 1.1//EN"
 "http://www.w3.org/Graphics/SVG/1.1/DTD/svg11.dtd">
<!-- Generated by graphviz version 2.38.0 (20140413.2041)
 -->
<!-- Title: g Pages: 1 -->
<svg width="284pt" height="337pt"
 viewBox="0.00 0.00 283.50 337.00" xmlns="http://www.w3.org/2000/svg" xmlns:xlink="http://www.w3.org/1999/xlink">
<g id="graph0" class="graph" transform="scale(1 1) rotate(0) translate(4 333)">
<title>g</title>
<polygon fill="white" stroke="none" points="-4,4 -4,-333 279.5,-333 279.5,4 -4,4"/>
<!-- N157 -->
<g id="node1" class="node"><title>N157</title>
<path fill="#ffffff" stroke="#2e3436" stroke-width="1.5" d="M108,-292.5C108,-292.5 147,-292.5 147,-292.5 153,-292.5 159,-298.5 159,-304.5 159,-304.5 159,-316.5 159,-316.5 159,-322.5 153,-328.5 147,-328.5 147,-328.5 108,-328.5 108,-328.5 102,-328.5 96,-322.5 96,-316.5 96,-316.5 96,-304.5 96,-304.5 96,-298.5 102,-292.5 108,-292.5"/>
<text text-anchor="middle" x="127.5" y="-317.6" font-family="sans-serif" font-size="8.00" fill="#1c2021">Node[157]</text>
<polyline fill="none" stroke="#2e3436" stroke-width="1.5" points="96,-310.5 159,-310.5 "/>
<text text-anchor="start" x="104" y="-299.6" font-family="sans-serif" font-size="8.00" fill="#1c2021">name = &#39;a&#39;</text>
</g>
<!-- N162 -->
<g id="node2" class="node"><title>N162</title>
<path fill="#ffffff" stroke="#2e3436" stroke-width="1.5" d="M12,-146.5C12,-146.5 49,-146.5 49,-146.5 55,-146.5 61,-152.5 61,-158.5 61,-158.5 61,-170.5 61,-170.5 61,-176.5 55,-182.5 49,-182.5 49,-182.5 12,-182.5 12,-182.5 6,-182.5 0,-176.5 0,-170.5 0,-170.5 0,-158.5 0,-158.5 0,-152.5 6,-146.5 12,-146.5"/>
<text text-anchor="middle" x="30.5" y="-171.6" font-family="sans-serif" font-size="8.00" fill="#1c2021">Node[162]</text>
<polyline fill="none" stroke="#2e3436" stroke-width="1.5" points="0,-164.5 61,-164.5 "/>
<text text-anchor="start" x="8" y="-153.6" font-family="sans-serif" font-size="8.00" fill="#1c2021">name = &#39;f&#39;</text>
</g>
<!-- N157&#45;&gt;N162 -->
<g id="edge1" class="edge"><title>N157&#45;&gt;N162</title>
<path fill="none" stroke="#2e3436" stroke-width="2" d="M96.1936,-292.421C88.7001,-287.247 81.2222,-281.041 75.5,-274 55.1622,-248.977 42.7802,-213.471 36.2851,-189.979"/>
<polygon fill="#2e3436" stroke="#2e3436" stroke-width="2" points="34.3051,-182.505 39.4883,-188.891 35.7488,-186.002 36.7092,-189.627 36.2259,-189.755 35.7426,-189.883 34.7822,-186.258 32.9634,-190.619 34.3051,-182.505 34.3051,-182.505"/>
<text text-anchor="middle" x="98" y="-267.6" font-family="sans-serif" font-size="8.00" fill="#2e3436">to</text>
<text text-anchor="start" x="75.5" y="-258.6" font-family="sans-serif" font-size="8.00" fill="#2e3436">cost = 0.5</text>
</g>
<!-- N158 -->
<g id="node3" class="node"><title>N158</title>
<path fill="#ffffff" stroke="#2e3436" stroke-width="1.5" d="M108,-146.5C108,-146.5 147,-146.5 147,-146.5 153,-146.5 159,-152.5 159,-158.5 159,-158.5 159,-170.5 159,-170.5 159,-176.5 153,-182.5 147,-182.5 147,-182.5 108,-182.5 108,-182.5 102,-182.5 96,-176.5 96,-170.5 96,-170.5 96,-158.5 96,-158.5 96,-152.5 102,-146.5 108,-146.5"/>
<text text-anchor="middle" x="127.5" y="-171.6" font-family="sans-serif" font-size="8.00" fill="#1c2021">Node[158]</text>
<polyline fill="none" stroke="#2e3436" stroke-width="1.5" points="96,-164.5 159,-164.5 "/>
<text text-anchor="start" x="104" y="-153.6" font-family="sans-serif" font-size="8.00" fill="#1c2021">name = &#39;b&#39;</text>
</g>
<!-- N157&#45;&gt;N158 -->
<g id="edge2" class="edge"><title>N157&#45;&gt;N158</title>
<path fill="none" stroke="#2e3436" stroke-width="2" d="M127.5,-292.416C127.5,-267.083 127.5,-219.421 127.5,-190.262"/>
<polygon fill="#2e3436" stroke="#2e3436" stroke-width="2" points="127.5,-182.562 130.875,-190.062 128,-186.312 128,-190.062 127.5,-190.062 127,-190.062 127,-186.312 124.125,-190.062 127.5,-182.562 127.5,-182.562"/>
<text text-anchor="middle" x="150" y="-267.6" font-family="sans-serif" font-size="8.00" fill="#2e3436">to</text>
<text text-anchor="start" x="127.5" y="-258.6" font-family="sans-serif" font-size="8.00" fill="#2e3436">cost = 1.5</text>
</g>
<!-- N159 -->
<g id="node4" class="node"><title>N159</title>
<path fill="#ffffff" stroke="#2e3436" stroke-width="1.5" d="M207.5,-201.5C207.5,-201.5 245.5,-201.5 245.5,-201.5 251.5,-201.5 257.5,-207.5 257.5,-213.5 257.5,-213.5 257.5,-225.5 257.5,-225.5 257.5,-231.5 251.5,-237.5 245.5,-237.5 245.5,-237.5 207.5,-237.5 207.5,-237.5 201.5,-237.5 195.5,-231.5 195.5,-225.5 195.5,-225.5 195.5,-213.5 195.5,-213.5 195.5,-207.5 201.5,-201.5 207.5,-201.5"/>
<text text-anchor="middle" x="226.5" y="-226.6" font-family="sans-serif" font-size="8.00" fill="#1c2021">Node[159]</text>
<polyline fill="none" stroke="#2e3436" stroke-width="1.5" points="195.5,-219.5 257.5,-219.5 "/>
<text text-anchor="start" x="203.5" y="-208.6" font-family="sans-serif" font-size="8.00" fill="#1c2021">name = &#39;c&#39;</text>
</g>
<!-- N157&#45;&gt;N159 -->
<g id="edge3" class="edge"><title>N157&#45;&gt;N159</title>
<path fill="none" stroke="#2e3436" stroke-width="2" d="M155.176,-292.484C163.327,-286.984 172.051,-280.593 179.5,-274 189.774,-264.907 199.972,-253.645 208.229,-243.802"/>
<polygon fill="#2e3436" stroke="#2e3436" stroke-width="2" points="213.104,-237.89 210.937,-245.824 211.104,-241.101 208.719,-243.995 208.333,-243.677 207.947,-243.359 210.332,-240.465 205.729,-241.53 213.104,-237.89 213.104,-237.89"/>
<text text-anchor="middle" x="221" y="-267.6" font-family="sans-serif" font-size="8.00" fill="#2e3436">to</text>
<text text-anchor="start" x="198.5" y="-258.6" font-family="sans-serif" font-size="8.00" fill="#2e3436">cost = 0.5</text>
</g>
<!-- N161 -->
<g id="node5" class="node"><title>N161</title>
<path fill="#ffffff" stroke="#2e3436" stroke-width="1.5" d="M108,-0.5C108,-0.5 147,-0.5 147,-0.5 153,-0.5 159,-6.5 159,-12.5 159,-12.5 159,-24.5 159,-24.5 159,-30.5 153,-36.5 147,-36.5 147,-36.5 108,-36.5 108,-36.5 102,-36.5 96,-30.5 96,-24.5 96,-24.5 96,-12.5 96,-12.5 96,-6.5 102,-0.5 108,-0.5"/>
<text text-anchor="middle" x="127.5" y="-25.6" font-family="sans-serif" font-size="8.00" fill="#1c2021">Node[161]</text>
<polyline fill="none" stroke="#2e3436" stroke-width="1.5" points="96,-18.5 159,-18.5 "/>
<text text-anchor="start" x="104" y="-7.6" font-family="sans-serif" font-size="8.00" fill="#1c2021">name = &#39;e&#39;</text>
</g>
<!-- N162&#45;&gt;N161 -->
<g id="edge7" class="edge"><title>N162&#45;&gt;N161</title>
<path fill="none" stroke="#2e3436" stroke-width="2" d="M40.6996,-146.283C49.6019,-131.45 63.0146,-109.561 75.5,-91 86.5693,-74.5441 99.7117,-56.485 110.015,-42.6332"/>
<polygon fill="#2e3436" stroke="#2e3436" stroke-width="2" points="114.531,-36.5858 112.747,-44.6145 112.688,-39.8896 110.444,-42.8942 110.043,-42.595 109.642,-42.2958 111.886,-39.2912 107.339,-40.5755 114.531,-36.5858 114.531,-36.5858"/>
<text text-anchor="middle" x="98" y="-112.1" font-family="sans-serif" font-size="8.00" fill="#2e3436">to</text>
<text text-anchor="start" x="75.5" y="-103.1" font-family="sans-serif" font-size="8.00" fill="#2e3436">cost = 1.0</text>
</g>
<!-- N158&#45;&gt;N161 -->
<g id="edge4" class="edge"><title>N158&#45;&gt;N161</title>
<path fill="none" stroke="#2e3436" stroke-width="2" d="M127.5,-146.416C127.5,-121.083 127.5,-73.4212 127.5,-44.2618"/>
<polygon fill="#2e3436" stroke="#2e3436" stroke-width="2" points="127.5,-36.5619 130.875,-44.0619 128,-40.3119 128,-44.0619 127.5,-44.0619 127,-44.0619 127,-40.3119 124.125,-44.062 127.5,-36.5619 127.5,-36.5619"/>
<text text-anchor="middle" x="150" y="-112.1" font-family="sans-serif" font-size="8.00" fill="#2e3436">to</text>
<text text-anchor="start" x="127.5" y="-103.1" font-family="sans-serif" font-size="8.00" fill="#2e3436">cost = 0.5</text>
</g>
<!-- N160 -->
<g id="node6" class="node"><title>N160</title>
<path fill="#ffffff" stroke="#2e3436" stroke-width="1.5" d="M214,-91.5C214,-91.5 253,-91.5 253,-91.5 259,-91.5 265,-97.5 265,-103.5 265,-103.5 265,-115.5 265,-115.5 265,-121.5 259,-127.5 253,-127.5 253,-127.5 214,-127.5 214,-127.5 208,-127.5 202,-121.5 202,-115.5 202,-115.5 202,-103.5 202,-103.5 202,-97.5 208,-91.5 214,-91.5"/>
<text text-anchor="middle" x="233.5" y="-116.6" font-family="sans-serif" font-size="8.00" fill="#1c2021">Node[160]</text>
<polyline fill="none" stroke="#2e3436" stroke-width="1.5" points="202,-109.5 265,-109.5 "/>
<text text-anchor="start" x="210" y="-98.6" font-family="sans-serif" font-size="8.00" fill="#1c2021">name = &#39;d&#39;</text>
</g>
<!-- N159&#45;&gt;N160 -->
<g id="edge5" class="edge"><title>N159&#45;&gt;N160</title>
<path fill="none" stroke="#2e3436" stroke-width="2" d="M227.625,-201.148C228.778,-183.356 230.582,-155.513 231.888,-135.378"/>
<polygon fill="#2e3436" stroke="#2e3436" stroke-width="2" points="232.378,-127.809 235.261,-135.512 232.634,-131.584 232.392,-135.326 231.893,-135.293 231.394,-135.261 231.637,-131.519 228.525,-135.075 232.378,-127.809 232.378,-127.809"/>
<text text-anchor="middle" x="253" y="-167.1" font-family="sans-serif" font-size="8.00" fill="#2e3436">to</text>
<text text-anchor="start" x="230.5" y="-158.1" font-family="sans-serif" font-size="8.00" fill="#2e3436">cost = 0.5</text>
</g>
<!-- N160&#45;&gt;N161 -->
<g id="edge6" class="edge"><title>N160&#45;&gt;N161</title>
<path fill="none" stroke="#2e3436" stroke-width="2" d="M213.062,-91.3399C196.198,-77.1806 172.153,-56.992 153.845,-41.6202"/>
<polygon fill="#2e3436" stroke="#2e3436" stroke-width="2" points="147.875,-36.6074 155.789,-38.8454 151.069,-38.6358 153.941,-41.0472 153.619,-41.4301 153.297,-41.813 150.426,-39.4017 151.449,-44.0149 147.875,-36.6074 147.875,-36.6074"/>
<text text-anchor="middle" x="213" y="-66.6" font-family="sans-serif" font-size="8.00" fill="#2e3436">to</text>
<text text-anchor="start" x="190.5" y="-57.6" font-family="sans-serif" font-size="8.00" fill="#2e3436">cost = 0.5</text>
</g>
</g>
</svg>
