<?xml version="1.0" encoding="UTF-8" standalone="no"?>
<!DOCTYPE svg PUBLIC "-//W3C//DTD SVG 1.1//EN"
 "http://www.w3.org/Graphics/SVG/1.1/DTD/svg11.dtd">
<!-- Generated by graphviz version 2.38.0 (20140413.2041)
 -->
<!-- Title: g Pages: 1 -->
<svg width="264pt" height="337pt"
 viewBox="0.00 0.00 263.50 337.00" xmlns="http://www.w3.org/2000/svg" xmlns:xlink="http://www.w3.org/1999/xlink">
<g id="graph0" class="graph" transform="scale(1 1) rotate(0) translate(4 333)">
<title>g</title>
<polygon fill="white" stroke="none" points="-4,4 -4,-333 259.5,-333 259.5,4 -4,4"/>
<!-- N177 -->
<g id="node1" class="node"><title>N177</title>
<path fill="#ffffff" stroke="#2e3436" stroke-width="1.5" d="M111,-292.5C111,-292.5 150,-292.5 150,-292.5 156,-292.5 162,-298.5 162,-304.5 162,-304.5 162,-316.5 162,-316.5 162,-322.5 156,-328.5 150,-328.5 150,-328.5 111,-328.5 111,-328.5 105,-328.5 99,-322.5 99,-316.5 99,-316.5 99,-304.5 99,-304.5 99,-298.5 105,-292.5 111,-292.5"/>
<text text-anchor="middle" x="130.5" y="-317.6" font-family="sans-serif" font-size="8.00" fill="#1c2021">Node[177]</text>
<polyline fill="none" stroke="#2e3436" stroke-width="1.5" points="99,-310.5 162,-310.5 "/>
<text text-anchor="start" x="107" y="-299.6" font-family="sans-serif" font-size="8.00" fill="#1c2021">name = &#39;a&#39;</text>
</g>
<!-- N178 -->
<g id="node2" class="node"><title>N178</title>
<path fill="#ffffff" stroke="#2e3436" stroke-width="1.5" d="M12,-146.5C12,-146.5 51,-146.5 51,-146.5 57,-146.5 63,-152.5 63,-158.5 63,-158.5 63,-170.5 63,-170.5 63,-176.5 57,-182.5 51,-182.5 51,-182.5 12,-182.5 12,-182.5 6,-182.5 0,-176.5 0,-170.5 0,-170.5 0,-158.5 0,-158.5 0,-152.5 6,-146.5 12,-146.5"/>
<text text-anchor="middle" x="31.5" y="-171.6" font-family="sans-serif" font-size="8.00" fill="#1c2021">Node[178]</text>
<polyline fill="none" stroke="#2e3436" stroke-width="1.5" points="0,-164.5 63,-164.5 "/>
<text text-anchor="start" x="8" y="-153.6" font-family="sans-serif" font-size="8.00" fill="#1c2021">name = &#39;b&#39;</text>
</g>
<!-- N177&#45;&gt;N178 -->
<g id="edge1" class="edge"><title>N177&#45;&gt;N178</title>
<path fill="none" stroke="#2e3436" stroke-width="2" d="M99.2687,-292.36C91.7742,-287.187 84.2771,-280.996 78.5,-274 57.8309,-248.971 44.7638,-213.466 37.7933,-189.976"/>
<polygon fill="#2e3436" stroke="#2e3436" stroke-width="2" points="35.6609,-182.503 40.9644,-188.789 37.1707,-185.972 38.1997,-189.578 37.7189,-189.715 37.2381,-189.853 36.2091,-186.246 34.4734,-190.641 35.6609,-182.503 35.6609,-182.503"/>
<text text-anchor="middle" x="101" y="-267.6" font-family="sans-serif" font-size="8.00" fill="#2e3436">to</text>
<text text-anchor="start" x="78.5" y="-258.6" font-family="sans-serif" font-size="8.00" fill="#2e3436">cost = 1.5</text>
</g>
<!-- N179 -->
<g id="node3" class="node"><title>N179</title>
<path fill="#ffffff" stroke="#2e3436" stroke-width="1.5" d="M111.5,-201.5C111.5,-201.5 149.5,-201.5 149.5,-201.5 155.5,-201.5 161.5,-207.5 161.5,-213.5 161.5,-213.5 161.5,-225.5 161.5,-225.5 161.5,-231.5 155.5,-237.5 149.5,-237.5 149.5,-237.5 111.5,-237.5 111.5,-237.5 105.5,-237.5 99.5,-231.5 99.5,-225.5 99.5,-225.5 99.5,-213.5 99.5,-213.5 99.5,-207.5 105.5,-201.5 111.5,-201.5"/>
<text text-anchor="middle" x="130.5" y="-226.6" font-family="sans-serif" font-size="8.00" fill="#1c2021">Node[179]</text>
<polyline fill="none" stroke="#2e3436" stroke-width="1.5" points="99.5,-219.5 161.5,-219.5 "/>
<text text-anchor="start" x="107.5" y="-208.6" font-family="sans-serif" font-size="8.00" fill="#1c2021">name = &#39;c&#39;</text>
</g>
<!-- N177&#45;&gt;N179 -->
<g id="edge2" class="edge"><title>N177&#45;&gt;N179</title>
<path fill="none" stroke="#2e3436" stroke-width="2" d="M130.5,-292.34C130.5,-279.043 130.5,-260.427 130.5,-245.478"/>
<polygon fill="#2e3436" stroke="#2e3436" stroke-width="2" points="130.5,-237.607 133.875,-245.107 131,-241.357 131,-245.107 130.5,-245.107 130,-245.107 130,-241.357 127.125,-245.107 130.5,-237.607 130.5,-237.607"/>
<text text-anchor="middle" x="153" y="-267.6" font-family="sans-serif" font-size="8.00" fill="#2e3436">to</text>
<text text-anchor="start" x="130.5" y="-258.6" font-family="sans-serif" font-size="8.00" fill="#2e3436">cost = 0.5</text>
</g>
<!-- N182 -->
<g id="node4" class="node"><title>N182</title>
<path fill="#ffffff" stroke="#2e3436" stroke-width="1.5" d="M197,-146.5C197,-146.5 234,-146.5 234,-146.5 240,-146.5 246,-152.5 246,-158.5 246,-158.5 246,-170.5 246,-170.5 246,-176.5 240,-182.5 234,-182.5 234,-182.5 197,-182.5 197,-182.5 191,-182.5 185,-176.5 185,-170.5 185,-170.5 185,-158.5 185,-158.5 185,-152.5 191,-146.5 197,-146.5"/>
<text text-anchor="middle" x="215.5" y="-171.6" font-family="sans-serif" font-size="8.00" fill="#1c2021">Node[182]</text>
<polyline fill="none" stroke="#2e3436" stroke-width="1.5" points="185,-164.5 246,-164.5 "/>
<text text-anchor="start" x="193" y="-153.6" font-family="sans-serif" font-size="8.00" fill="#1c2021">name = &#39;f&#39;</text>
</g>
<!-- N177&#45;&gt;N182 -->
<g id="edge3" class="edge"><title>N177&#45;&gt;N182</title>
<path fill="none" stroke="#2e3436" stroke-width="2" d="M160.33,-292.413C167.387,-287.239 174.348,-281.034 179.5,-274 197.937,-248.825 207.306,-213.647 211.792,-190.249"/>
<polygon fill="#2e3436" stroke="#2e3436" stroke-width="2" points="213.132,-182.797 215.126,-190.776 212.96,-186.576 212.296,-190.267 211.804,-190.179 211.312,-190.09 211.976,-186.399 208.482,-189.581 213.132,-182.797 213.132,-182.797"/>
<text text-anchor="middle" x="213" y="-267.6" font-family="sans-serif" font-size="8.00" fill="#2e3436">to</text>
<text text-anchor="start" x="190.5" y="-258.6" font-family="sans-serif" font-size="8.00" fill="#2e3436">cost = 0.5</text>
</g>
<!-- N181 -->
<g id="node5" class="node"><title>N181</title>
<path fill="#ffffff" stroke="#2e3436" stroke-width="1.5" d="M111,-0.5C111,-0.5 150,-0.5 150,-0.5 156,-0.5 162,-6.5 162,-12.5 162,-12.5 162,-24.5 162,-24.5 162,-30.5 156,-36.5 150,-36.5 150,-36.5 111,-36.5 111,-36.5 105,-36.5 99,-30.5 99,-24.5 99,-24.5 99,-12.5 99,-12.5 99,-6.5 105,-0.5 111,-0.5"/>
<text text-anchor="middle" x="130.5" y="-25.6" font-family="sans-serif" font-size="8.00" fill="#1c2021">Node[181]</text>
<polyline fill="none" stroke="#2e3436" stroke-width="1.5" points="99,-18.5 162,-18.5 "/>
<text text-anchor="start" x="107" y="-7.6" font-family="sans-serif" font-size="8.00" fill="#1c2021">name = &#39;e&#39;</text>
</g>
<!-- N178&#45;&gt;N181 -->
<g id="edge4" class="edge"><title>N178&#45;&gt;N181</title>
<path fill="none" stroke="#2e3436" stroke-width="2" d="M29.7854,-146.261C29.0544,-130.819 30.0248,-108.045 39.5,-91 51.6035,-69.2273 73.3282,-51.7732 92.5157,-39.5616"/>
<polygon fill="#2e3436" stroke="#2e3436" stroke-width="2" points="98.9079,-35.6226 94.2935,-42.4305 95.9777,-38.0155 92.7852,-39.9829 92.5229,-39.5572 92.2606,-39.1315 95.4531,-37.1642 90.7523,-36.6839 98.9079,-35.6226 98.9079,-35.6226"/>
<text text-anchor="middle" x="62" y="-112.1" font-family="sans-serif" font-size="8.00" fill="#2e3436">to</text>
<text text-anchor="start" x="39.5" y="-103.1" font-family="sans-serif" font-size="8.00" fill="#2e3436">cost = 0.5</text>
</g>
<!-- N180 -->
<g id="node6" class="node"><title>N180</title>
<path fill="#ffffff" stroke="#2e3436" stroke-width="1.5" d="M111,-91.5C111,-91.5 150,-91.5 150,-91.5 156,-91.5 162,-97.5 162,-103.5 162,-103.5 162,-115.5 162,-115.5 162,-121.5 156,-127.5 150,-127.5 150,-127.5 111,-127.5 111,-127.5 105,-127.5 99,-121.5 99,-115.5 99,-115.5 99,-103.5 99,-103.5 99,-97.5 105,-91.5 111,-91.5"/>
<text text-anchor="middle" x="130.5" y="-116.6" font-family="sans-serif" font-size="8.00" fill="#1c2021">Node[180]</text>
<polyline fill="none" stroke="#2e3436" stroke-width="1.5" points="99,-109.5 162,-109.5 "/>
<text text-anchor="start" x="107" y="-98.6" font-family="sans-serif" font-size="8.00" fill="#1c2021">name = &#39;d&#39;</text>
</g>
<!-- N179&#45;&gt;N180 -->
<g id="edge5" class="edge"><title>N179&#45;&gt;N180</title>
<path fill="none" stroke="#2e3436" stroke-width="2" d="M127.572,-201.217C126.725,-195.443 125.918,-188.96 125.5,-183 124.35,-166.596 124.35,-162.404 125.5,-146 125.741,-142.554 126.113,-138.934 126.547,-135.377"/>
<polygon fill="#2e3436" stroke="#2e3436" stroke-width="2" points="127.572,-127.783 129.914,-135.666 127.566,-131.566 127.065,-135.282 126.569,-135.215 126.074,-135.149 126.575,-131.432 123.224,-134.764 127.572,-127.783 127.572,-127.783"/>
<text text-anchor="middle" x="148" y="-167.1" font-family="sans-serif" font-size="8.00" fill="#2e3436">to</text>
<text text-anchor="start" x="125.5" y="-158.1" font-family="sans-serif" font-size="8.00" fill="#2e3436">cost = 0.5</text>
</g>
<!-- N182&#45;&gt;N181 -->
<g id="edge7" class="edge"><title>N182&#45;&gt;N181</title>
<path fill="none" stroke="#2e3436" stroke-width="2" d="M213.805,-146.127C210.828,-123.275 202.897,-82.7693 182.5,-55 178.593,-49.6811 173.637,-44.8965 168.343,-40.69"/>
<polygon fill="#2e3436" stroke="#2e3436" stroke-width="2" points="162.017,-36.0201 170.056,-37.759 165.331,-37.8449 168.348,-40.0721 168.051,-40.4743 167.754,-40.8766 164.737,-38.6495 166.047,-43.1897 162.017,-36.0201 162.017,-36.0201"/>
<text text-anchor="middle" x="233" y="-112.1" font-family="sans-serif" font-size="8.00" fill="#2e3436">to</text>
<text text-anchor="start" x="210.5" y="-103.1" font-family="sans-serif" font-size="8.00" fill="#2e3436">cost = 1.2</text>
</g>
<!-- N180&#45;&gt;N181 -->
<g id="edge6" class="edge"><title>N180&#45;&gt;N181</title>
<path fill="none" stroke="#2e3436" stroke-width="2" d="M130.5,-91.3399C130.5,-78.0425 130.5,-59.4274 130.5,-44.4783"/>
<polygon fill="#2e3436" stroke="#2e3436" stroke-width="2" points="130.5,-36.6074 133.875,-44.1074 131,-40.3574 131,-44.1074 130.5,-44.1074 130,-44.1074 130,-40.3574 127.125,-44.1075 130.5,-36.6074 130.5,-36.6074"/>
<text text-anchor="middle" x="153" y="-66.6" font-family="sans-serif" font-size="8.00" fill="#2e3436">to</text>
<text text-anchor="start" x="130.5" y="-57.6" font-family="sans-serif" font-size="8.00" fill="#2e3436">cost = 0.5</text>
</g>
</g>
</svg>
