<?xml version="1.0" encoding="UTF-8" standalone="no"?>
<!-- Created with Inkscape (http://www.inkscape.org/) -->

<svg
   xmlns:dc="http://purl.org/dc/elements/1.1/"
   xmlns:cc="http://creativecommons.org/ns#"
   xmlns:rdf="http://www.w3.org/1999/02/22-rdf-syntax-ns#"
   xmlns:svg="http://www.w3.org/2000/svg"
   xmlns="http://www.w3.org/2000/svg"
   xmlns:sodipodi="http://sodipodi.sourceforge.net/DTD/sodipodi-0.dtd"
   xmlns:inkscape="http://www.inkscape.org/namespaces/inkscape"
   version="1.0"
   width="859.06531"
   height="752.44757"
   id="svg2"
   sodipodi:version="0.32"
   inkscape:version="0.47 r22583"
   sodipodi:docname="ZZ.svg"
   inkscape:output_extension="org.inkscape.output.svg.inkscape">
  <metadata
     id="metadata12">
    <rdf:RDF>
      <cc:Work
         rdf:about="">
        <dc:format>image/svg+xml</dc:format>
        <dc:type
           rdf:resource="http://purl.org/dc/dcmitype/StillImage" />
        <dc:title />
      </cc:Work>
    </rdf:RDF>
  </metadata>
  <sodipodi:namedview
     inkscape:window-height="1004"
     inkscape:window-width="1280"
     inkscape:pageshadow="2"
     inkscape:pageopacity="0.0"
     guidetolerance="10.0"
     gridtolerance="10.0"
     objecttolerance="10.0"
     borderopacity="1.0"
     bordercolor="#666666"
     pagecolor="#ffffff"
     id="base"
     inkscape:zoom="0.79893017"
     inkscape:cx="350.39262"
     inkscape:cy="372.10067"
     inkscape:window-x="-8"
     inkscape:window-y="-8"
     inkscape:current-layer="svg2"
     width="200px"
     height="200px"
     showgrid="false"
     inkscape:showpageshadow="false"
     inkscape:window-maximized="1"
     inkscape:snap-global="false" />
  <defs
     id="defs4">
    <marker
       inkscape:stockid="Arrow2Mend"
       orient="auto"
       refY="0"
       refX="0"
       id="Arrow2Mend"
       style="overflow:visible">
      <path
         id="path3696"
         style="font-size:12px;fill-rule:evenodd;stroke-width:0.625;stroke-linejoin:round"
         d="M 8.7185878,4.0337352 -2.2072895,0.01601326 8.7185884,-4.0017078 c -1.7454984,2.3720609 -1.7354408,5.6174519 -6e-7,8.035443 z"
         transform="scale(-0.6,-0.6)" />
    </marker>
    <marker
       inkscape:stockid="Arrow1Send"
       orient="auto"
       refY="0"
       refX="0"
       id="Arrow1Send"
       style="overflow:visible">
      <path
         id="path3684"
         d="M 0,0 5,-5 -12.5,0 5,5 0,0 z"
         style="fill-rule:evenodd;stroke:#000000;stroke-width:1pt;marker-start:none"
         transform="matrix(-0.2,0,0,-0.2,-1.2,0)" />
    </marker>
    <inkscape:perspective
       sodipodi:type="inkscape:persp3d"
       inkscape:vp_x="0 : 450 : 1"
       inkscape:vp_y="0 : 1000 : 0"
       inkscape:vp_z="900 : 450 : 1"
       inkscape:persp3d-origin="450 : 300 : 1"
       id="perspective22" />
    <inkscape:perspective
       id="perspective2836"
       inkscape:persp3d-origin="0.5 : 0.33333333 : 1"
       inkscape:vp_z="1 : 0.5 : 1"
       inkscape:vp_y="0 : 1000 : 0"
       inkscape:vp_x="0 : 0.5 : 1"
       sodipodi:type="inkscape:persp3d" />
    <inkscape:perspective
       id="perspective2850"
       inkscape:persp3d-origin="0.5 : 0.33333333 : 1"
       inkscape:vp_z="1 : 0.5 : 1"
       inkscape:vp_y="0 : 1000 : 0"
       inkscape:vp_x="0 : 0.5 : 1"
       sodipodi:type="inkscape:persp3d" />
    <inkscape:perspective
       id="perspective2864"
       inkscape:persp3d-origin="0.5 : 0.33333333 : 1"
       inkscape:vp_z="1 : 0.5 : 1"
       inkscape:vp_y="0 : 1000 : 0"
       inkscape:vp_x="0 : 0.5 : 1"
       sodipodi:type="inkscape:persp3d" />
    <inkscape:perspective
       id="perspective3654"
       inkscape:persp3d-origin="0.5 : 0.33333333 : 1"
       inkscape:vp_z="1 : 0.5 : 1"
       inkscape:vp_y="0 : 1000 : 0"
       inkscape:vp_x="0 : 0.5 : 1"
       sodipodi:type="inkscape:persp3d" />
  </defs>
  <path
     style="font-size:medium;font-style:normal;font-variant:normal;font-weight:normal;font-stretch:normal;text-indent:0;text-align:start;text-decoration:none;line-height:normal;letter-spacing:normal;word-spacing:normal;text-transform:none;direction:ltr;block-progression:tb;writing-mode:lr-tb;text-anchor:start;color:#000000;fill:#ffffff;fill-opacity:1;stroke:#000000;stroke-width:3;stroke-miterlimit:4;stroke-dasharray:none;marker:none;visibility:visible;display:inline;overflow:visible;enable-background:accumulate;font-family:Bitstream Vera Sans;-inkscape-font-specification:Bitstream Vera Sans"
     d="m 427.95445,1.5413307 a 30.003,30.003 0 0 0 -24.375,14.9687503 L 5.5170451,705.94758 a 30.003,30.003 0 0 0 25.9686999,45 l 796.093705,0 a 30.003,30.003 0 0 0 25.9688,-45 L 455.51705,16.510081 A 30.003,30.003 0 0 0 427.95445,1.5413307 z"
     id="path3661" />
  <path
     style="font-size:medium;font-style:normal;font-variant:normal;font-weight:normal;font-stretch:normal;text-indent:0;text-align:start;text-decoration:none;line-height:normal;letter-spacing:normal;word-spacing:normal;text-transform:none;direction:ltr;block-progression:tb;writing-mode:lr-tb;text-anchor:start;color:#000000;fill:#d40000;fill-opacity:1;fill-rule:nonzero;stroke:none;stroke-width:10;marker:none;visibility:visible;display:inline;overflow:visible;enable-background:accumulate;font-family:Bitstream Vera Sans;-inkscape-font-specification:Bitstream Vera Sans"
     d="m 428.22015,6.5466287 c 4.55528,-0.23935 9.24143,0.82302 13.25,3 4.00857,2.1769803 7.43927,5.5175683 9.71875,9.4687503 L 849.22015,708.45288 c 4.2898,7.43311 4.2896,17.56677 0,25 -4.2896,7.43323 -13.07409,12.49509 -21.65625,12.5 l -796.062503,0 c -0.01026,-1e-5 -0.02099,2e-5 -0.03125,0 -8.572328,-0.017 -17.340548,-5.07567 -21.6249999,-12.5 -4.28958,-7.43322 -4.289789,-17.5669 0,-25 L 407.90765,19.015379 c 4.07668,-7.067743 12.16514,-12.0296813 20.3125,-12.4687503 z"
     id="path3663" />
  <path
     style="font-size:medium;font-style:normal;font-variant:normal;font-weight:normal;font-stretch:normal;text-indent:0;text-align:start;text-decoration:none;line-height:normal;letter-spacing:normal;word-spacing:normal;text-transform:none;direction:ltr;block-progression:tb;writing-mode:lr-tb;text-anchor:start;color:#000000;fill:#ffffff;fill-opacity:1;fill-rule:nonzero;stroke:none;stroke-width:150;marker:none;visibility:visible;display:inline;overflow:visible;enable-background:accumulate;font-family:Bitstream Vera Sans;-inkscape-font-specification:Bitstream Vera Sans"
     d="m 429.50145,124.17163 318.625,551.78125 -637.1875,0 318.5625,-551.78125 z"
     id="path3602" />
  <path
     style="fill:#000000"
     d="m -389.94549,520.69925 c 0,0 0,0 0,0 z"
     id="path2835" />
  <path
     style="fill:#000000"
     d="m -392.91424,520.76175 0,0 z"
     id="path2833" />
  <path
     style="fill:#000000"
     d="m 2273.4834,808.28255 c 0.5363,0 1.0761,-17.72003 1.1995,-39.37785 0.1234,-21.65781 0.7505,-44.37232 1.3935,-50.4767 0.6431,-6.10437 1.1786,-14.97014 1.1899,-19.70173 0.038,-15.79765 3.4402,-27.47621 14.7216,-50.5355 4.0184,-8.21366 7.6223,-15.20274 8.0085,-15.53129 0.3863,-0.32855 2.2415,-3.28547 4.1227,-6.57093 3.956,-6.90881 18.5863,-26.64163 22.1313,-29.84977 1.3251,-1.19928 2.4094,-2.90361 2.4094,-3.78741 0,-0.88379 0.5722,-1.60691 1.2716,-1.60691 1.2618,0 11.1349,-7.8462 15.9385,-12.66634 4.7721,-4.78849 19.2937,-13.96543 32.3705,-20.4566 7.2281,-3.58788 14.0754,-7.01137 15.2164,-7.60775 1.141,-0.59638 2.8883,-1.08432 3.8829,-1.08432 0.9945,0 1.8083,-0.46728 1.8083,-1.0384 0,-0.57111 1.7472,-1.36802 3.8828,-1.77089 2.1355,-0.40288 8.7214,-2.10447 14.6352,-3.78132 5.9139,-1.67684 15.5911,-3.60864 21.5049,-4.29288 11.3936,-1.31826 86.463,-1.65267 90.4013,-0.40272 1.2763,0.4051 2.1045,1.36294 1.8404,2.12855 -0.3435,0.99575 -5.1018,1.27339 -16.7149,0.97532 -8.9291,-0.2292 -16.8361,-0.045 -17.5712,0.40931 -0.9371,0.57915 -0.7259,1.77479 0.7066,4.00083 3.4658,5.38584 13.6872,17.23936 19.7361,22.88763 l 5.7576,5.37622 c 2.7709,9.91462 -261.9869,376.49928 -249.8434,234.76145 m 7.3878,2.1908 c -29.1156,56.63117 55.7207,71.2813 60.4474,1.75139 -0.9228,-0.52547 -7.6945,-6.60043 -15.0482,-13.49991 -7.3538,-6.89948 -14.072,-12.94449 -14.9294,-13.43336 -1.0196,-0.58138 -4.5367,2.00165 -10.1671,7.46697 -4.7345,4.5957 -8.7683,8.35582 -8.9641,8.35582 -0.1957,0 -2.155,1.57177 -4.3538,3.49282 -2.1989,1.92106 -5.3421,4.56087 -6.9848,5.86627 m 234.5231,-227.50847 c -2.0522,0.65134 -11.5532,9.65082 -19.8112,18.76541 -5.8157,6.41902 -8.3207,7.33153 -15.9999,5.82855 -8.1877,-1.60249 -29.2298,-0.93515 -38.6202,1.22484 -10.3403,2.37845 -29.0455,9.54939 -34.8781,13.37107 -1.6421,1.07595 -4.9984,2.79724 -7.4584,3.8251 -2.4783,1.03547 -4.7532,2.94145 -5.1018,4.27423 -0.3459,1.32296 -1.3896,2.4054 -2.3192,2.4054 -0.9297,0 -1.9997,0.80643 -2.3779,1.79207 -0.3783,0.98564 -1.4366,1.79207 -2.352,1.79207 -0.9153,0 -1.6642,0.80644 -1.6642,1.79208 0,0.98564 -0.5197,1.79207 -1.1549,1.79207 -2.1843,0 -14.994,14.25869 -17.1728,19.11543 -0.4422,0.98564 -2.1383,3.94256 -3.7691,6.57094 -3.4164,5.50601 -5.4732,9.7574 -8.3813,17.32336 -5.2521,13.66448 -5.6919,18.1787 -6.6343,68.09874 -0.5024,26.61227 -0.9974,50.74047 -1.1002,53.61821 134.5796,149.28963 223.4565,-116.466 168.7955,-221.58957 z"
     id="path3662"
     sodipodi:nodetypes="csssssssssssssssssssssscccccsssssccssssssssssssssscc" />
  <path
     style="fill:none;stroke:#000000;stroke-width:66.90000153;stroke-linecap:butt;stroke-linejoin:miter;stroke-miterlimit:4;stroke-opacity:1;stroke-dasharray:none"
     d="M 522.66432,596.14241 C 526.65453,457.76953 484.63742,381.46858 346.80415,384.92244"
     id="path4302"
     sodipodi:nodetypes="cc" />
  <path
     style="fill:#000000;fill-opacity:1;stroke:#000000;stroke-width:1px;stroke-linecap:butt;stroke-linejoin:miter;stroke-opacity:1"
     d="m 555.70407,593.07017 0,32.85644 -33.79519,-30.66601"
     id="path4304" />
  <path
     id="path4306"
     d="m 489.81722,593.08915 0,32.85644 33.79519,-30.66601"
     style="fill:#000000;fill-opacity:1;stroke:#000000;stroke-width:1px;stroke-linecap:butt;stroke-linejoin:miter;stroke-opacity:1" />
  <path
     style="fill:#000000;fill-opacity:1;stroke:#000000;stroke-width:0.98850006px;stroke-linecap:butt;stroke-linejoin:miter;stroke-opacity:1"
     d="m 346.4777,352.3005 -35.68392,34.84602 36.62298,29.95534 -0.93906,-64.80136 z"
     id="path4308" />
</svg>
