<?xml version="1.0" encoding="utf-8"?>
<!-- Generator: Adobe Illustrator 20.1.0, SVG Export Plug-In . SVG Version: 6.00 Build 0)  -->
<svg version="1.1" id="Capa_1" xmlns="http://www.w3.org/2000/svg" xmlns:xlink="http://www.w3.org/1999/xlink" x="0px" y="0px"
	 viewBox="0 0 270 200" style="enable-background:new 0 0 270 200;" xml:space="preserve">
<style type="text/css">
	.st0{fill:#0874B3;}
	.st1{opacity:0.3;enable-background:new    ;}
	.st2{fill:#FFFFFF;}
	.st3{opacity:0.6;}
	.st4{fill:#CCD0D5;}
	.st5{fill:#5EA5FB;}
	.st6{fill:#F2D156;}
	.st7{fill:#E48920;}
	.st8{fill:#813C89;}
	.st9{fill:#E5E5E6;}
	.st10{opacity:0.3;}
	.st11{fill:none;}
</style>
<g>
	<rect class="st0" width="270" height="200"/>
</g>
<g class="st1">
	<rect x="186.1" y="160.5" width="68.9" height="29.5"/>
</g>
<g>
	<g>
		<path class="st2" d="M205.7,167.2h1.2v16.4h-1.4v-14.5l-3,2.5l-0.9-1.1L205.7,167.2z"/>
	</g>
	<g>
		<path class="st2" d="M215.6,173.9c0,0.6-0.5,1.1-1.1,1.1s-1.1-0.5-1.1-1.1s0.5-1.1,1.1-1.1C215.1,172.7,215.6,173.2,215.6,173.9z
			 M215.6,182.6c0,0.6-0.5,1.1-1.1,1.1s-1.1-0.5-1.1-1.1s0.5-1.1,1.1-1.1S215.6,182,215.6,182.6z"/>
	</g>
	<g>
		<path class="st2" d="M228.4,171.1c0,2.6-1.8,4.3-2.7,5.2l-5.8,6h8.6v1.2h-10.1V182l6.9-7.3c1-1,1.6-2.2,1.6-3.5
			c0-1.8-1.3-3.1-3.3-3.1c-1.6,0-2.9,1-3.3,2.7l-1.6-0.2c0.5-2.5,2.4-3.8,5-3.8C226.4,166.9,228.4,168.6,228.4,171.1z"/>
	</g>
	<g>
		<path class="st2" d="M240.9,175.4c0,5.5-1.9,8.5-5.4,8.5c-3.6,0-5.4-3-5.4-8.5s1.9-8.5,5.4-8.5S240.9,169.9,240.9,175.4z
			 M235.5,182.6c2.6,0,3.9-2.6,3.9-7.2c0-4.6-1.3-7.2-3.9-7.2c-2.5,0-3.9,2.5-3.9,7.2C231.6,180,233,182.6,235.5,182.6z"/>
	</g>
</g>
<g class="st3">
	<g class="st1">
		<path class="st2" d="M245.7,102.2H109.9V31.6c0-4.4,3.6-8.1,8.1-8.1h119.7c4.4,0,8.1,3.6,8.1,8.1v70.6H245.7z"/>
		<path class="st4" d="M248.3,104.7H107.4V31.6c0-5.8,4.8-10.6,10.6-10.6h119.7c5.8,0,10.6,4.8,10.6,10.6V104.7z M112.4,99.7h130.9
			V31.6c0-3.1-2.5-5.6-5.6-5.6H118c-3.1,0-5.6,2.5-5.6,5.6V99.7z"/>
	</g>
	<g class="st1">
		<path class="st2" d="M112.3,99.8h131V31.6c0-3.1-2.5-5.7-5.7-5.7H118c-3.1,0-5.7,2.5-5.7,5.7V99.8z"/>
	</g>
	<g class="st1">
		<path class="st4" d="M258.1,104.3c0,2.1-1.7,3.7-3.7,3.7h-153c-2.1,0-3.7-1.7-3.7-3.7l0,0c0-2.1,1.7-3.7,3.7-3.7h153
			C256.4,100.6,258.1,102.2,258.1,104.3L258.1,104.3z"/>
	</g>
	<g class="st1">
		<rect x="133.3" y="39.6" class="st5" width="89" height="4.1"/>
	</g>
	<g class="st1">
		<rect x="133.3" y="50.6" class="st6" width="18" height="14.6"/>
	</g>
	<g class="st1">
		<rect x="157" y="50.6" class="st4" width="18" height="14.6"/>
	</g>
	<g class="st1">
		<rect x="180.7" y="50.6" class="st6" width="18" height="14.6"/>
	</g>
	<g class="st1">
		<rect x="133.3" y="71.5" class="st7" width="18" height="14.7"/>
	</g>
	<g class="st1">
		<rect x="157" y="71.5" class="st6" width="18" height="14.7"/>
	</g>
	<g class="st1">
		<rect x="180.7" y="71.5" class="st4" width="18" height="14.7"/>
	</g>
	<g class="st1">
		<rect x="204.3" y="50.6" class="st8" width="18" height="14.6"/>
	</g>
	<g class="st1">
		<rect x="204.3" y="71.5" class="st9" width="18" height="14.7"/>
	</g>
	<g>
		<path class="st0" d="M235.4,14.1c-13.2,0-23.9,10.7-23.9,23.9s10.7,23.9,23.9,23.9s23.9-10.7,23.9-23.9
			C259.3,24.9,248.6,14.1,235.4,14.1z"/>
	</g>
	<g class="st10">
		<g>
			<path class="st2" d="M235.4,14.1c13.2,0,23.9,10.7,23.9,23.9s-10.7,23.9-23.9,23.9S211.5,51.2,211.5,38
				C211.4,24.9,222.2,14.1,235.4,14.1 M235.4,11.1c-14.9,0-26.9,12.1-26.9,26.9c0,14.9,12.1,26.9,26.9,26.9
				c14.9,0,26.9-12.1,26.9-26.9S250.2,11.1,235.4,11.1L235.4,11.1z"/>
		</g>
	</g>
	<g>
		<g>
			<rect x="233.4" y="25.5" class="st2" width="3.9" height="22.2"/>
		</g>
		<g>
			<g>
				<polygon class="st2" points="246.6,38.6 244.6,36.8 235.4,46.7 226.2,36.8 224.2,38.6 235.4,50.7 				"/>
			</g>
		</g>
	</g>
</g>
<g>
	<rect y="-2.5" class="st11" width="270" height="202.5"/>
</g>
<g>
	<path class="st2" d="M28,49.4V58H39v-8.7h2.4v20.5H39v-9.5H28v9.5h-2.4V49.4H28z"/>
	<path class="st2" d="M59.8,63.1c0,4.2-3,7.1-7.2,7.1c-4.2,0-7.2-3-7.2-7.1c0-4.1,3-7.1,7.2-7.1C56.7,55.9,59.8,58.9,59.8,63.1z
		 M52.5,68.1c2.9,0,4.8-2.2,4.8-5c0-2.9-1.9-5-4.8-5c-2.8,0-4.8,2.2-4.8,5C47.7,66,49.7,68.1,52.5,68.1z"/>
	<path class="st2" d="M64,56.3l3.1,10.4h0.1l3.5-10.4H73l3.6,10.4h0.1l3.1-10.4h2.4l-4.4,13.5h-2.2l-3.8-10.4h-0.1l-3.4,10.4h-2.3
		l-4.4-13.5H64z"/>
	<path class="st2" d="M96.2,52.4v3.8h4v1.9h-4v7.2c0,2.2,0.7,2.7,2,2.7c0.7,0,1.4-0.1,2-0.5l0.1,2.1c-0.8,0.3-1.8,0.5-2.6,0.5
		c-2.6,0-3.7-1-3.7-4.4v-7.6h-3v-1.9h3v-3.8H96.2z"/>
	<path class="st2" d="M116.6,63.1c0,4.2-3,7.1-7.2,7.1c-4.2,0-7.2-3-7.2-7.1c0-4.1,3-7.1,7.2-7.1C113.6,55.9,116.6,58.9,116.6,63.1z
		 M109.4,68.1c2.9,0,4.8-2.2,4.8-5c0-2.9-1.9-5-4.8-5c-2.8,0-4.8,2.2-4.8,5C104.6,66,106.5,68.1,109.4,68.1z"/>
	<path class="st2" d="M38.7,79.8v21.9h-2.3v-2.4h-0.1c-0.9,1.7-3,2.7-5.2,2.7c-3.8,0-6.8-3.1-6.8-7.1c0-4.1,2.9-7.1,7.1-7.1
		c1.9,0,3.6,0.8,4.9,2.3h0.1V79.8H38.7z M31.6,99.9c2.9,0,4.8-2.2,4.8-5c0-2.9-1.9-5-4.8-5c-2.8,0-4.8,2.2-4.8,5
		C26.8,97.8,28.8,99.9,31.6,99.9z"/>
	<path class="st2" d="M56.6,94.9c0,4.2-3,7.1-7.2,7.1c-4.2,0-7.2-3-7.2-7.1c0-4.1,3-7.1,7.2-7.1C53.5,87.8,56.6,90.7,56.6,94.9z
		 M49.3,99.9c2.9,0,4.8-2.2,4.8-5c0-2.9-1.9-5-4.8-5c-2.8,0-4.8,2.2-4.8,5C44.5,97.8,46.5,99.9,49.3,99.9z"/>
	<path class="st2" d="M60.8,88.1l3.1,10.4H64l3.5-10.4h2.4l3.6,10.4h0.1l3.1-10.4h2.4l-4.4,13.5h-2.2l-3.8-10.4h-0.1L65,101.7h-2.3
		l-4.4-13.5H60.8z"/>
	<path class="st2" d="M93.3,93.2v8.5H91v-8.2c0-2.1-0.9-3.6-3.1-3.6c-2.8,0-4.2,1.9-4.2,5.2v6.6h-2.3V91.1c0-0.9-0.1-2.2-0.1-3h2.1
		c0,0.8,0.1,1.3,0.1,2.2h0.1c0.7-1.5,2.5-2.6,4.5-2.6C91.6,87.8,93.3,89.9,93.3,93.2z"/>
	<path class="st2" d="M100,79.8v21.9h-2.3V79.8H100z"/>
	<path class="st2" d="M118.2,94.9c0,4.2-3,7.1-7.2,7.1c-4.2,0-7.2-3-7.2-7.1c0-4.1,3-7.1,7.2-7.1C115.2,87.8,118.2,90.7,118.2,94.9z
		 M111,99.9c2.9,0,4.8-2.2,4.8-5c0-2.9-1.9-5-4.8-5c-2.8,0-4.8,2.2-4.8,5C106.2,97.8,108.1,99.9,111,99.9z"/>
	<path class="st2" d="M132.6,93.4v6.1c0,0.5,0.1,1.3,0.2,2.2h-2.2c-0.1-0.3-0.1-0.9-0.1-2h-0.1c-1,1.5-2.6,2.4-4.5,2.4
		c-3,0-5-1.6-5-4c0-3.1,2.3-4.7,8.4-4.7h1v-0.4c0-2-1.2-3-3.4-3c-1.5,0-3,0.5-4,1.5l-1.4-1.5c1.4-1.4,3.4-2.1,5.4-2.1
		C130.8,87.8,132.6,89.7,132.6,93.4z M126.3,100.1c2.3,0,4-1.5,4-4.4v-0.5h-2.5c-2.7,0-4.5,0.8-4.5,2.6
		C123.3,99.3,124.4,100.1,126.3,100.1z"/>
	<path class="st2" d="M150.2,79.8v21.9H148v-2.4h-0.1c-0.9,1.7-3,2.7-5.2,2.7c-3.8,0-6.8-3.1-6.8-7.1c0-4.1,2.9-7.1,7.1-7.1
		c1.9,0,3.6,0.8,4.9,2.3h0.1V79.8H150.2z M143.2,99.9c2.9,0,4.8-2.2,4.8-5c0-2.9-1.9-5-4.8-5c-2.8,0-4.8,2.2-4.8,5
		C138.4,97.8,140.3,99.9,143.2,99.9z"/>
	<path class="st2" d="M173.3,93.4v6.1c0,0.5,0.1,1.3,0.2,2.2h-2.2c-0.1-0.3-0.1-0.9-0.1-2h-0.1c-1,1.5-2.6,2.4-4.5,2.4
		c-3,0-5-1.6-5-4c0-3.1,2.3-4.7,8.4-4.7h1v-0.4c0-2-1.2-3-3.4-3c-1.5,0-3,0.5-4,1.5l-1.4-1.5c1.4-1.4,3.4-2.1,5.4-2.1
		C171.5,87.8,173.3,89.7,173.3,93.4z M167.1,100.1c2.3,0,4-1.5,4-4.4v-0.5h-2.5c-2.7,0-4.5,0.8-4.5,2.6
		C164.1,99.3,165.1,100.1,167.1,100.1z"/>
	<path class="st2" d="M28.7,113l11.9,17h0.1v-17H43v20.5h-3.1l-11.9-17H28v17h-2.4V113H28.7z"/>
	<path class="st2" d="M60.3,126.9v0.5H49.3c0.2,2.5,2.1,4.3,4.5,4.3c1.9,0,3.2-0.7,4.3-2.1l1.7,1.3c-1.4,1.9-3.2,2.8-6,2.8
		c-4.2,0-6.9-3.1-6.9-7.1c0-4.2,2.9-7.1,6.9-7.1C57.4,119.6,60.3,121.8,60.3,126.9z M57.9,125.5c-0.1-2.3-1.6-3.8-4.1-3.8
		c-2.3,0-4.1,1.4-4.4,3.8H57.9z"/>
	<path class="st2" d="M74.7,125.2v6.1c0,0.5,0.1,1.3,0.2,2.2h-2.2c-0.1-0.3-0.1-0.9-0.1-2h-0.1c-1,1.5-2.6,2.4-4.5,2.4
		c-3,0-5-1.6-5-4c0-3.1,2.3-4.7,8.4-4.7h1v-0.4c0-2-1.2-3-3.4-3c-1.5,0-3,0.5-4,1.5l-1.4-1.5c1.4-1.4,3.4-2.1,5.4-2.1
		C72.9,119.6,74.7,121.5,74.7,125.2z M68.4,131.9c2.3,0,4-1.5,4-4.4V127h-2.5c-2.7,0-4.5,0.8-4.5,2.6
		C65.4,131.1,66.5,131.9,68.4,131.9z"/>
	<path class="st2" d="M86.4,119.7l-0.1,2.3c-0.4-0.1-0.8-0.2-1.2-0.2c-2.6,0-4,1.8-4,4.9v6.7h-2.3v-10.5c0-0.9-0.1-2.2-0.1-3h2.1
		c0,0.8,0.1,1.3,0.1,2.2h0.1c0.7-1.5,2.5-2.6,4.5-2.6C85.8,119.6,86.1,119.6,86.4,119.7z"/>
	<path class="st2" d="M103.2,126.7c0,4-3,7.1-6.8,7.1c-2.3,0-4.3-1.1-5.2-2.7h-0.1v9h-2.3v-20.1h2.3v2h0.1c1.3-1.5,2.9-2.3,4.9-2.3
		C100.3,119.6,103.2,122.6,103.2,126.7z M95.9,131.7c2.9,0,4.8-2.2,4.8-5c0-2.9-1.9-5-4.8-5c-2.8,0-4.8,2.2-4.8,5
		C91.1,129.6,93.1,131.7,95.9,131.7z"/>
	<path class="st2" d="M120.3,126.7c0,4.2-3,7.1-7.2,7.1c-4.2,0-7.2-3-7.2-7.1c0-4.1,3-7.1,7.2-7.1
		C117.3,119.6,120.3,122.5,120.3,126.7z M113.1,131.7c2.9,0,4.8-2.2,4.8-5c0-2.9-1.9-5-4.8-5c-2.8,0-4.8,2.2-4.8,5
		C108.3,129.6,110.3,131.7,113.1,131.7z"/>
	<path class="st2" d="M137.3,111.6v21.9h-2.3v-2.4H135c-0.9,1.7-3,2.7-5.2,2.7c-3.8,0-6.8-3.1-6.8-7.1c0-4.1,2.9-7.1,7.1-7.1
		c1.9,0,3.6,0.8,4.9,2.3h0.1v-10.3H137.3z M130.3,131.7c2.9,0,4.8-2.2,4.8-5c0-2.9-1.9-5-4.8-5c-2.8,0-4.8,2.2-4.8,5
		C125.5,129.6,127.5,131.7,130.3,131.7z"/>
	<path class="st2" d="M152.4,113v18.2h9.4v2.3H150V113H152.4z"/>
	<path class="st2" d="M176.6,126.9v0.5h-10.9c0.2,2.5,2.1,4.3,4.5,4.3c1.9,0,3.2-0.7,4.3-2.1l1.7,1.3c-1.4,1.9-3.2,2.8-6,2.8
		c-4.2,0-6.9-3.1-6.9-7.1c0-4.2,2.9-7.1,6.9-7.1C173.7,119.6,176.6,121.8,176.6,126.9z M174.2,125.5c-0.1-2.3-1.6-3.8-4.1-3.8
		c-2.3,0-4.1,1.4-4.4,3.8H174.2z"/>
	<path class="st2" d="M188.8,122.1l-1.9,1.2c-0.6-1-1.5-1.6-2.9-1.6c-1.5,0-2.7,0.8-2.7,1.9c0,0.9,1.1,1.5,3.4,2
		c3.2,0.6,4.5,1.9,4.5,4c0,2.7-2.1,4.3-5.4,4.3c-2.5,0-4.1-0.8-5.3-2.5l1.8-1.4c1.1,1.4,2.1,1.8,3.5,1.8c1.7,0,3-0.8,3-2.1
		c0-1.2-0.8-1.7-3.8-2.4c-2.7-0.6-3.8-1.7-3.8-3.7c0-2.5,2.3-4,5.1-4C186.3,119.6,188,120.5,188.8,122.1z"/>
	<path class="st2" d="M201.2,122.1l-1.9,1.2c-0.6-1-1.5-1.6-2.9-1.6c-1.5,0-2.7,0.8-2.7,1.9c0,0.9,1.1,1.5,3.4,2
		c3.2,0.6,4.5,1.9,4.5,4c0,2.7-2.1,4.3-5.4,4.3c-2.5,0-4.1-0.8-5.3-2.5l1.8-1.4c1.1,1.4,2.1,1.8,3.5,1.8c1.7,0,3-0.8,3-2.1
		c0-1.2-0.8-1.7-3.8-2.4c-2.7-0.6-3.8-1.7-3.8-3.7c0-2.5,2.3-4,5.1-4C198.6,119.6,200.3,120.5,201.2,122.1z"/>
	<path class="st2" d="M218.4,126.7c0,4.2-3,7.1-7.2,7.1s-7.2-3-7.2-7.1c0-4.1,3-7.1,7.2-7.1C215.4,119.6,218.4,122.5,218.4,126.7z
		 M211.2,131.7c2.9,0,4.8-2.2,4.8-5c0-2.9-1.9-5-4.8-5c-2.8,0-4.8,2.2-4.8,5C206.4,129.6,208.4,131.7,211.2,131.7z"/>
	<path class="st2" d="M233.7,125v8.5h-2.3v-8.2c0-2.1-0.9-3.6-3.1-3.6c-2.8,0-4.2,1.9-4.2,5.2v6.6h-2.3v-10.5c0-0.9-0.1-2.2-0.1-3
		h2.1c0,0.8,0.1,1.3,0.1,2.2h0.1c0.7-1.5,2.5-2.6,4.5-2.6C232,119.6,233.7,121.7,233.7,125z"/>
</g>
</svg>
