<?xml version="1.0" encoding="utf-8"?>
<!-- Generator: Adobe Illustrator 20.0.0, SVG Export Plug-In . SVG Version: 6.00 Build 0)  -->
<svg version="1.1" xmlns="http://www.w3.org/2000/svg" xmlns:xlink="http://www.w3.org/1999/xlink" x="0px" y="0px"
	 viewBox="0 0 1440 1440" style="enable-background:new 0 0 1440 1440;" xml:space="preserve">
<style type="text/css">
	.st0{display:none;}
	.st1{display:inline;}
	.st2{fill:#FFFFFF;}
	.st3{display:inline;clip-path:url(#SVGID_2_);}
	.st4{opacity:0.31;}
	.st5{fill:#59595C;}
	.st6{fill:#C05F68;}
	.st7{display:inline;fill:#59595C;}
	.st8{fill:#BF5F68;}
	.st9{fill:#8CC23F;stroke:#59595C;stroke-width:4;stroke-linecap:round;stroke-linejoin:round;stroke-miterlimit:10;}
	.st10{fill:none;stroke:#B0B7C0;stroke-linecap:round;stroke-linejoin:round;}
	.st11{fill:none;stroke:#B0B7C0;stroke-linecap:round;stroke-linejoin:round;stroke-dasharray:3.0008,6.0015;}
	.st12{fill:#FFFFFF;stroke:#B0B7C0;stroke-width:3;stroke-linecap:round;stroke-linejoin:round;stroke-miterlimit:10;}
	.st13{fill:none;stroke:#59595C;stroke-width:4;stroke-linecap:round;stroke-linejoin:round;stroke-miterlimit:10;}
	.st14{fill:#8CC03F;}
	.st15{fill:#8CC23F;}
	.st16{display:inline;fill:#6EC5AB;}
	.st17{display:inline;fill:#59595C;stroke:#59595C;stroke-width:3;stroke-miterlimit:10;}
	.st18{display:inline;fill:#6C96A1;}
	.st19{display:inline;fill:#C05F68;}
</style>
<g id="Toolbox" class="st0">
</g>
<g id="Industries" class="st0">
</g>
<g id="Footer" class="st0">
</g>
<g id="RBM_World" class="st0">
</g>
<g id="Editions" class="st0">
</g>
<g id="_x39__Keys">
	<g>
		<g>
			<g>
				<path class="st5" d="M821.9,1290.9c-0.9,0-1.8-0.4-2.4-1.1l-109.3-120.7c-1.2-1.3-1.1-3.4,0.2-4.6c1.3-1.2,3.4-1.1,4.6,0.2
					l106.9,118l106.9-118c1.2-1.3,3.3-1.4,4.6-0.2c1.3,1.2,1.4,3.3,0.2,4.6l-109.3,120.7C823.7,1290.5,822.8,1290.9,821.9,1290.9z"
					/>
			</g>
		</g>
		<g>
			<path class="st5" d="M908.5,434.3c-1.8,0-3.3-1.5-3.3-3.3V152.4c0-1.8,1.5-3.3,3.3-3.3s3.3,1.5,3.3,3.3V431
				C911.8,432.8,910.3,434.3,908.5,434.3z"/>
		</g>
		<g>
			<g>
				<g>
					<path class="st2" d="M1065.7,992.1c0,11-9,20-20,20H685c-11,0-20-9-20-20V451c0-11,9-20,20-20h360.7c11,0,20,9,20,20V992.1z"/>
					<path class="st5" d="M1045.6,1015.4H685c-12.9,0-23.3-10.5-23.3-23.3V451c0-12.9,10.5-23.3,23.3-23.3h360.7
						c12.9,0,23.3,10.5,23.3,23.3v541C1068.9,1004.9,1058.5,1015.4,1045.6,1015.4z M685,434.3c-9.2,0-16.8,7.5-16.8,16.8v541
						c0,9.2,7.5,16.8,16.8,16.8h360.7c9.2,0,16.8-7.5,16.8-16.8V451c0-9.2-7.5-16.8-16.8-16.8H685z"/>
				</g>
				<g>
					<path class="st5" d="M1005.6,614.6H725c-1.8,0-3.3-1.5-3.3-3.3V491.1c0-1.8,1.5-3.3,3.3-3.3h280.5c1.8,0,3.3,1.5,3.3,3.3v120.2
						C1008.8,613.1,1007.4,614.6,1005.6,614.6z M728.3,608.1h274V494.4h-274V608.1z"/>
				</g>
				<g>
					<path class="st8" d="M965.5,574.5c-1.8,0-3.3-1.5-3.3-3.3v-40.1c0-1.8,1.5-3.3,3.3-3.3s3.3,1.5,3.3,3.3v40.1
						C968.8,573.1,967.3,574.5,965.5,574.5z"/>
				</g>
				<g>
					<path class="st8" d="M765.1,694.8H725c-1.8,0-3.3-1.5-3.3-3.3s1.5-3.3,3.3-3.3h40.1c1.8,0,3.3,1.5,3.3,3.3
						S766.9,694.8,765.1,694.8z"/>
				</g>
				<g>
					<path class="st8" d="M845.3,694.8h-40.1c-1.8,0-3.3-1.5-3.3-3.3s1.5-3.3,3.3-3.3h40.1c1.8,0,3.3,1.5,3.3,3.3
						S847.1,694.8,845.3,694.8z"/>
				</g>
				<g>
					<path class="st8" d="M925.4,694.8h-40.1c-1.8,0-3.3-1.5-3.3-3.3s1.5-3.3,3.3-3.3h40.1c1.8,0,3.3,1.5,3.3,3.3
						S927.2,694.8,925.4,694.8z"/>
				</g>
				<g>
					<path class="st8" d="M1005.6,694.8h-40.1c-1.8,0-3.3-1.5-3.3-3.3s1.5-3.3,3.3-3.3h40.1c1.8,0,3.3,1.5,3.3,3.3
						S1007.4,694.8,1005.6,694.8z"/>
				</g>
				<g>
					<path class="st8" d="M765.1,774.9H725c-1.8,0-3.3-1.5-3.3-3.3s1.5-3.3,3.3-3.3h40.1c1.8,0,3.3,1.5,3.3,3.3
						S766.9,774.9,765.1,774.9z"/>
				</g>
				<g>
					<path class="st8" d="M845.3,774.9h-40.1c-1.8,0-3.3-1.5-3.3-3.3s1.5-3.3,3.3-3.3h40.1c1.8,0,3.3,1.5,3.3,3.3
						S847.1,774.9,845.3,774.9z"/>
				</g>
				<g>
					<path class="st8" d="M925.4,774.9h-40.1c-1.8,0-3.3-1.5-3.3-3.3s1.5-3.3,3.3-3.3h40.1c1.8,0,3.3,1.5,3.3,3.3
						S927.2,774.9,925.4,774.9z"/>
				</g>
				<g>
					<path class="st8" d="M765.1,855.1H725c-1.8,0-3.3-1.5-3.3-3.3s1.5-3.3,3.3-3.3h40.1c1.8,0,3.3,1.5,3.3,3.3
						S766.9,855.1,765.1,855.1z"/>
				</g>
				<g>
					<path class="st8" d="M845.3,855.1h-40.1c-1.8,0-3.3-1.5-3.3-3.3s1.5-3.3,3.3-3.3h40.1c1.8,0,3.3,1.5,3.3,3.3
						S847.1,855.1,845.3,855.1z"/>
				</g>
				<g>
					<path class="st8" d="M925.4,855.1h-40.1c-1.8,0-3.3-1.5-3.3-3.3s1.5-3.3,3.3-3.3h40.1c1.8,0,3.3,1.5,3.3,3.3
						S927.2,855.1,925.4,855.1z"/>
				</g>
				<g>
					<path class="st8" d="M1005.6,855.1h-40.1c-1.8,0-3.3-1.5-3.3-3.3s1.5-3.3,3.3-3.3h40.1c1.8,0,3.3,1.5,3.3,3.3
						S1007.4,855.1,1005.6,855.1z"/>
				</g>
				<g>
					<path class="st8" d="M765.1,935.2H725c-1.8,0-3.3-1.5-3.3-3.3s1.5-3.3,3.3-3.3h40.1c1.8,0,3.3,1.5,3.3,3.3
						S766.9,935.2,765.1,935.2z"/>
				</g>
				<g>
					<path class="st8" d="M845.3,935.2h-40.1c-1.8,0-3.3-1.5-3.3-3.3s1.5-3.3,3.3-3.3h40.1c1.8,0,3.3,1.5,3.3,3.3
						S847.1,935.2,845.3,935.2z"/>
				</g>
				<g>
					<path class="st5" d="M1005.6,935.2H885.3c-1.8,0-3.3-1.5-3.3-3.3s1.5-3.3,3.3-3.3h120.2c1.8,0,3.3,1.5,3.3,3.3
						S1007.4,935.2,1005.6,935.2z"/>
				</g>
			</g>
			<g>
				<path class="st8" d="M1005.6,774.9h-40.1c-1.8,0-3.3-1.5-3.3-3.3s1.5-3.3,3.3-3.3h40.1c1.8,0,3.3,1.5,3.3,3.3
					S1007.4,774.9,1005.6,774.9z"/>
			</g>
		</g>
		<g>
			<g>
				<path class="st5" d="M606.2,825.8c-1.8,0-3.3-1.5-3.3-3.3V551.3c0-1.8,1.5-3.3,3.3-3.3s3.3,1.5,3.3,3.3v271.3
					C609.4,824.4,608,825.8,606.2,825.8z"/>
			</g>
			<g>
				<path class="st5" d="M681.5,825.8H545.9c-1.8,0-3.3-1.5-3.3-3.3s1.5-3.3,3.3-3.3h135.6c1.8,0,3.3,1.5,3.3,3.3
					S683.3,825.8,681.5,825.8z"/>
			</g>
			<g>
				<path class="st8" d="M402.7,675.1c-0.4,0-0.8-0.1-1.2-0.2c-1.7-0.7-2.5-2.6-1.8-4.2l60.3-150.7c0.5-1.2,1.7-2.1,3-2.1
					c1.3,0,2.5,0.8,3,2.1l60.3,150.7c0.7,1.7-0.1,3.6-1.8,4.2c-1.7,0.7-3.6-0.1-4.2-1.8L463,529.9l-57.3,143.1
					C405.2,674.3,404,675.1,402.7,675.1z"/>
			</g>
			<g>
				<path class="st8" d="M824.7,675.1c-1.3,0-2.5-0.8-3-2.1l-57.3-143.1l-57.3,143.1c-0.7,1.7-2.6,2.5-4.2,1.8
					c-1.7-0.7-2.5-2.6-1.8-4.2l60.3-150.7c0.5-1.2,1.7-2.1,3-2.1s2.5,0.8,3,2.1l60.3,150.7c0.7,1.7-0.1,3.6-1.8,4.2
					C825.5,675,825.1,675.1,824.7,675.1z"/>
			</g>
			<g>
				<path class="st5" d="M576,524.4H432.8c-1.8,0-3.3-1.5-3.3-3.3s1.5-3.3,3.3-3.3H576c1.8,0,3.3,1.5,3.3,3.3S577.8,524.4,576,524.4
					z"/>
			</g>
			<g>
				<path class="st5" d="M794.5,524.4H636.3c-1.8,0-3.3-1.5-3.3-3.3s1.5-3.3,3.3-3.3h158.3c1.8,0,3.3,1.5,3.3,3.3
					S796.4,524.4,794.5,524.4z"/>
			</g>
			<g>
				<path class="st5" d="M606.2,554.5c-18.4,0-33.4-15-33.4-33.4c0-18.4,15-33.4,33.4-33.4c18.4,0,33.4,15,33.4,33.4
					C639.6,539.5,624.6,554.5,606.2,554.5z M606.2,494.3c-14.8,0-26.9,12.1-26.9,26.9c0,14.8,12.1,26.9,26.9,26.9
					c14.8,0,26.9-12.1,26.9-26.9C633,506.3,621,494.3,606.2,494.3z"/>
			</g>
			<g>
				<path class="st5" d="M463,742.9c-39.2,0-71.1-31.9-71.1-71.1c0-1.8,1.5-3.3,3.3-3.3h135.6c1.8,0,3.3,1.5,3.3,3.3
					C534.1,711,502.2,742.9,463,742.9z M398.5,675.1c1.7,34.1,30,61.3,64.5,61.3s62.8-27.2,64.5-61.3H398.5z"/>
			</g>
			<g>
				<path class="st2" d="M832.2,671.8H696.6c0,37.5,30.4,67.8,67.8,67.8C801.9,739.7,832.2,709.3,832.2,671.8z"/>
				<path class="st5" d="M764.4,742.9c-39.2,0-71.1-31.9-71.1-71.1c0-1.8,1.5-3.3,3.3-3.3h135.6c1.8,0,3.3,1.5,3.3,3.3
					C835.5,711,803.6,742.9,764.4,742.9z M699.9,675.1c1.7,34.1,30,61.3,64.5,61.3c34.5,0,62.8-27.2,64.5-61.3H699.9z"/>
			</g>
		</g>
		<g>
			<g>
				<rect x="374.3" y="760.9" class="st2" width="353.5" height="219.4"/>
				<path class="st5" d="M727.8,983.6H374.3c-1.8,0-3.3-1.5-3.3-3.3V760.9c0-1.8,1.5-3.3,3.3-3.3h353.5c1.8,0,3.3,1.5,3.3,3.3v219.4
					C731.1,982.1,729.6,983.6,727.8,983.6z M377.6,977.1h346.9V764.2H377.6V977.1z"/>
			</g>
			<g>
				<path class="st5" d="M673,959.2H429.2c-18.9,0-33.7-14.8-33.7-33.7V815.8c0-18.9,14.8-33.7,33.7-33.7H673
					c18.9,0,33.7,14.8,33.7,33.7v109.7C706.7,944.4,691.9,959.2,673,959.2z M429.2,788.6c-15.3,0-27.2,11.9-27.2,27.2v109.7
					c0,15.3,12,27.2,27.2,27.2H673c15.3,0,27.2-12,27.2-27.2V815.8c0-15.3-11.9-27.2-27.2-27.2H429.2z"/>
			</g>
			<g>
				<path class="st8" d="M551.1,916.6c-25.3,0-45.9-20.6-45.9-45.9c0-25.3,20.6-45.9,45.9-45.9c25.3,0,45.9,20.6,45.9,45.9
					C597,896,576.4,916.6,551.1,916.6z M551.1,831.2c-21.7,0-39.4,17.7-39.4,39.4c0,21.7,17.7,39.4,39.4,39.4
					c21.7,0,39.4-17.7,39.4-39.4C590.5,848.9,572.8,831.2,551.1,831.2z"/>
			</g>
			<g>
				<path class="st8" d="M654.7,922.7c-8.5,0-15.5-6.9-15.5-15.5c0-8.5,6.9-15.4,15.5-15.4c8.5,0,15.5,6.9,15.5,15.4
					C670.1,915.7,663.2,922.7,654.7,922.7z M654.7,898.3c-4.9,0-8.9,4-8.9,8.9c0,4.9,4,8.9,8.9,8.9c4.9,0,8.9-4,8.9-8.9
					C663.6,902.3,659.6,898.3,654.7,898.3z"/>
			</g>
			<g>
				<path class="st8" d="M447.5,849.5c-8.5,0-15.5-6.9-15.5-15.5c0-8.5,6.9-15.4,15.5-15.4c8.5,0,15.5,6.9,15.5,15.4
					C462.9,842.6,456,849.5,447.5,849.5z M447.5,825.1c-4.9,0-8.9,4-8.9,8.9c0,4.9,4,8.9,8.9,8.9c4.9,0,8.9-4,8.9-8.9
					C456.4,829.1,452.4,825.1,447.5,825.1z"/>
			</g>
		</g>
		<g>
			<path class="st5" d="M821.9,1290.9c-1.8,0-3.3-1.5-3.3-3.3v-275.8c0-1.8,1.5-3.3,3.3-3.3s3.3,1.5,3.3,3.3v275.8
				C825.2,1289.4,823.7,1290.9,821.9,1290.9z"/>
		</g>
		<g>
			<path class="st5" d="M887.4,1077.9c-12.1,0-24.4-8.5-24.4-24.9l-0.7-665.8c0-12.6-9.2-18.3-17.8-18.3c-8.6,0-17.8,5.7-17.8,18.3
				V431c0,1.8-1.5,3.3-3.3,3.3s-3.3-1.5-3.3-3.3v-43.7c0-16.3,12.3-24.9,24.4-24.9s24.4,8.5,24.4,24.9l0.7,665.8
				c0,12.6,9.2,18.3,17.8,18.3c8.6,0,17.8-5.7,17.8-18.3v-40.9c0-1.8,1.5-3.3,3.3-3.3s3.3,1.5,3.3,3.3v40.9
				C911.8,1069.4,899.5,1077.9,887.4,1077.9z"/>
		</g>
		<g>
			<path class="st5" d="M1017.8,276.4c-0.9,0-1.8-0.4-2.4-1.1l-106.9-118l-106.9,118c-1.2,1.3-3.3,1.4-4.6,0.2
				c-1.3-1.2-1.4-3.3-0.2-4.6l109.3-120.7c1.2-1.4,3.6-1.4,4.8,0l109.3,120.7c1.2,1.3,1.1,3.4-0.2,4.6
				C1019.3,276.1,1018.5,276.4,1017.8,276.4z"/>
		</g>
	</g>
	<path class="st12" d="M529.4,174c-10.2,0-20.2,1.6-29.5,4.3C483.9,102.2,416.2,45,335,45c-60.7,0-113.7,32-143.4,80
		c-8.1-1.6-16.5-2.5-25.1-2.5c-71.6,0-129.6,57.8-129.6,129.1c0,71.3,58,129.1,129.6,129.1c29.4,0,56.4-9.8,78.2-26.3
		c26.1,16.6,57.1,26.3,90.3,26.3c42.6,0,81.5-15.9,111.2-41.9c18.9,25.4,49.1,41.9,83.3,41.9c57.3,0,103.7-46.2,103.7-103.3
		C633.1,220.3,586.7,174,529.4,174z"/>
</g>
<g id="colors" class="st0">
</g>
</svg>
