<?xml version="1.0" encoding="UTF-8" standalone="no"?>
<!-- Created with Inkscape (http://www.inkscape.org/) -->
<svg xmlns:rdf="http://www.w3.org/1999/02/22-rdf-syntax-ns#" xmlns="http://www.w3.org/2000/svg" xmlns:cc="http://web.resource.org/cc/" xmlns:dc="http://purl.org/dc/elements/1.1/" xmlns:svg="http://www.w3.org/2000/svg" xmlns:inkscape="http://www.inkscape.org/namespaces/inkscape" xmlns:sodipodi="http://sodipodi.sourceforge.net/DTD/sodipodi-0.dtd" xmlns:ns1="http://sozi.baierouge.fr" xmlns:xlink="http://www.w3.org/1999/xlink" id="svg2" viewBox="0 0 360 360" version="1.0" inkscape:version="0.91 r13725">
  <g id="layer1">
    <rect id="rect3166" style="fill:#0000ff" transform="matrix(5.0704 0 0 6.1017 -81.127 -189.15)" height="59" width="71" y="31" x="16"/>
    <path id="path2424" style="fill-rule:evenodd;stroke:#000000;stroke-width:2.1117;fill:#ffffff" d="m-155.88-30h34.64l17.32 30-17.32 30h-34.64l-17.33-30 17.33-30z" transform="matrix(.47355 0 0 .47355 150.55 45)"/>
    <path id="path3197" style="fill-rule:evenodd;stroke:#000000;stroke-width:2.1117;fill:#ffffff" d="m-155.88-30h34.64l17.32 30-17.32 30h-34.64l-17.33-30 17.33-30z" transform="matrix(.47355 0 0 .47355 175.16 59.206)"/>
    <path id="path3199" style="fill-rule:evenodd;stroke:#000000;stroke-width:2.1117;fill:#ffffff" d="m-155.88-30h34.64l17.32 30-17.32 30h-34.64l-17.33-30 17.33-30z" transform="matrix(.47355 0 0 .47355 150.55 73.413)"/>
    <path id="path3201" style="fill-rule:evenodd;stroke:#000000;stroke-width:2.1117;fill:#00ff00" d="m-155.88-30h34.64l17.32 30-17.32 30h-34.64l-17.33-30 17.33-30z" transform="matrix(.47355 0 0 .47355 150.55 101.83)"/>
    <path id="path3203" style="fill-rule:evenodd;stroke:#000000;stroke-width:2.1117;fill:#00ff00" d="m-155.88-30h34.64l17.32 30-17.32 30h-34.64l-17.33-30 17.33-30z" transform="matrix(.47355 0 0 .47355 150.55 130.24)"/>
    <path id="path3205" style="fill-rule:evenodd;stroke:#000000;stroke-width:2.1117;fill:#00ff00" d="m-155.88-30h34.64l17.32 30-17.32 30h-34.64l-17.33-30 17.33-30z" transform="matrix(.47355 0 0 .47355 150.55 158.65)"/>
    <path id="path3207" style="fill-rule:evenodd;stroke:#000000;stroke-width:2.1117;fill:#00ff00" d="m-155.88-30h34.64l17.32 30-17.32 30h-34.64l-17.33-30 17.33-30z" transform="matrix(.47355 0 0 .47355 150.55 187.06)"/>
    <path id="path3209" style="fill-rule:evenodd;stroke:#000000;stroke-width:2.1117;fill:#00ff00" d="m-155.88-30h34.64l17.32 30-17.32 30h-34.64l-17.33-30 17.33-30z" transform="matrix(.47355 0 0 .47355 150.55 215.48)"/>
    <path id="path3211" style="fill-rule:evenodd;stroke:#000000;stroke-width:2.1117;fill:#00ff00" d="m-155.88-30h34.64l17.32 30-17.32 30h-34.64l-17.33-30 17.33-30z" transform="matrix(.47355 0 0 .47355 150.55 243.89)"/>
    <path id="path3213" style="fill-rule:evenodd;stroke:#000000;stroke-width:2.1117;fill:#00ff00" d="m-155.88-30h34.64l17.32 30-17.32 30h-34.64l-17.33-30 17.33-30z" transform="matrix(.47355 0 0 .47355 175.16 258.1)"/>
    <path id="path3215" style="fill-rule:evenodd;stroke:#000000;stroke-width:2.1117;fill:#00ff00" d="m-155.88-30h34.64l17.32 30-17.32 30h-34.64l-17.33-30 17.33-30z" transform="matrix(.47355 0 0 .47355 199.77 272.3)"/>
    <path id="path3217" style="fill-rule:evenodd;stroke:#000000;stroke-width:2.1117;fill:#00ff00" d="m-155.88-30h34.64l17.32 30-17.32 30h-34.64l-17.33-30 17.33-30z" transform="matrix(.47355 0 0 .47355 224.37 258.1)"/>
    <path id="path3219" style="fill-rule:evenodd;stroke:#000000;stroke-width:2.1117;fill:#00ff00" d="m-155.88-30h34.64l17.32 30-17.32 30h-34.64l-17.33-30 17.33-30z" transform="matrix(.47355 0 0 .47355 248.98 243.89)"/>
    <path id="path3221" style="fill-rule:evenodd;stroke:#000000;stroke-width:2.1117;fill:#00ff00" d="m-155.88-30h34.64l17.32 30-17.32 30h-34.64l-17.33-30 17.33-30z" transform="matrix(.47355 0 0 .47355 273.58 229.68)"/>
    <path id="path3223" style="fill-rule:evenodd;stroke:#000000;stroke-width:2.1117;fill:#00ff00" d="m-155.88-30h34.64l17.32 30-17.32 30h-34.64l-17.33-30 17.33-30z" transform="matrix(.47355 0 0 .47355 298.19 215.48)"/>
    <path id="path3225" style="fill-rule:evenodd;stroke:#000000;stroke-width:2.1117;fill:#00ff00" d="m-155.88-30h34.64l17.32 30-17.32 30h-34.64l-17.33-30 17.33-30z" transform="matrix(.47355 0 0 .47355 322.8 201.27)"/>
    <path id="path3227" style="fill-rule:evenodd;stroke:#000000;stroke-width:2.1117;fill:#00ff00" d="m-155.88-30h34.64l17.32 30-17.32 30h-34.64l-17.33-30 17.33-30z" transform="matrix(.47355 0 0 .47355 347.4 187.06)"/>
    <path id="path3229" style="fill-rule:evenodd;stroke:#000000;stroke-width:2.1117;fill:#00ff00" d="m-155.88-30h34.64l17.32 30-17.32 30h-34.64l-17.33-30 17.33-30z" transform="matrix(.47355 0 0 .47355 372.01 172.86)"/>
    <path id="path3231" style="fill-rule:evenodd;stroke:#000000;stroke-width:2.1117;fill:#00ff00" d="m-155.88-30h34.64l17.32 30-17.32 30h-34.64l-17.33-30 17.33-30z" transform="matrix(.47355 0 0 .47355 347.4 158.65)"/>
    <path id="path3233" style="fill-rule:evenodd;stroke:#000000;stroke-width:2.1117;fill:#00ff00" d="m-155.88-30h34.64l17.32 30-17.32 30h-34.64l-17.33-30 17.33-30z" transform="matrix(.47355 0 0 .47355 322.8 144.45)"/>
    <path id="path3235" style="fill-rule:evenodd;stroke:#000000;stroke-width:2.1117;fill:#00ff00" d="m-155.88-30h34.64l17.32 30-17.32 30h-34.64l-17.33-30 17.33-30z" transform="matrix(.47355 0 0 .47355 298.19 130.24)"/>
    <path id="path3237" style="fill-rule:evenodd;stroke:#000000;stroke-width:2.1117;fill:#00ff00" d="m-155.88-30h34.64l17.32 30-17.32 30h-34.64l-17.33-30 17.33-30z" transform="matrix(.47355 0 0 .47355 273.58 116.03)"/>
    <path id="path3239" style="fill-rule:evenodd;stroke:#000000;stroke-width:2.1117;fill:#00ff00" d="m-155.88-30h34.64l17.32 30-17.32 30h-34.64l-17.33-30 17.33-30z" transform="matrix(.47355 0 0 .47355 248.98 101.83)"/>
    <path id="path3241" style="fill-rule:evenodd;stroke:#000000;stroke-width:2.1117;fill:#00ff00" d="m-155.88-30h34.64l17.32 30-17.32 30h-34.64l-17.33-30 17.33-30z" transform="matrix(.47355 0 0 .47355 224.37 87.619)"/>
    <path id="path3243" style="fill-rule:evenodd;stroke:#000000;stroke-width:2.1117;fill:#00ff00" d="m-155.88-30h34.64l17.32 30-17.32 30h-34.64l-17.33-30 17.33-30z" transform="matrix(.47355 0 0 .47355 199.77 73.413)"/>
    <path id="path3245" style="fill-rule:evenodd;stroke:#000000;stroke-width:2.1117;fill:#00ff00" d="m-155.88-30h34.64l17.32 30-17.32 30h-34.64l-17.33-30 17.33-30z" transform="matrix(.47355 0 0 .47355 175.16 172.86)"/>
    <path id="path3247" style="fill-rule:evenodd;stroke:#000000;stroke-width:2.1117;fill:#00ff00" d="m-155.88-30h34.64l17.32 30-17.32 30h-34.64l-17.33-30 17.33-30z" transform="matrix(.47355 0 0 .47355 199.77 158.65)"/>
    <path id="path3249" style="fill-rule:evenodd;stroke:#000000;stroke-width:2.1117;fill:#00ff00" d="m-155.88-30h34.64l17.32 30-17.32 30h-34.64l-17.33-30 17.33-30z" transform="matrix(.47355 0 0 .47355 224.37 144.45)"/>
    <path id="path3251" style="fill-rule:evenodd;stroke:#000000;stroke-width:2.1117;fill:#00ff00" d="m-155.88-30h34.64l17.32 30-17.32 30h-34.64l-17.33-30 17.33-30z" transform="matrix(.47355 0 0 .47355 248.98 158.65)"/>
    <path id="path3253" style="fill-rule:evenodd;stroke:#000000;stroke-width:2.1117;fill:#00ff00" d="m-155.88-30h34.64l17.32 30-17.32 30h-34.64l-17.33-30 17.33-30z" transform="matrix(.47355 0 0 .47355 248.98 187.06)"/>
    <path id="path3255" style="fill-rule:evenodd;stroke:#000000;stroke-width:2.1117;fill:#00ff00" d="m-155.88-30h34.64l17.32 30-17.32 30h-34.64l-17.33-30 17.33-30z" transform="matrix(.47355 0 0 .47355 224.37 201.27)"/>
    <path id="path3257" style="fill-rule:evenodd;stroke:#000000;stroke-width:2.1117;fill:#00ff00" d="m-155.88-30h34.64l17.32 30-17.32 30h-34.64l-17.33-30 17.33-30z" transform="matrix(.47355 0 0 .47355 199.77 187.06)"/>
    <path id="path3259" style="fill-rule:evenodd;stroke:#000000;stroke-width:2.1117;fill:#00ff00" d="m-155.88-30h34.64l17.32 30-17.32 30h-34.64l-17.33-30 17.33-30z" transform="matrix(.47355 0 0 .47355 224.37 172.86)"/>
    <path id="path3261" style="fill-rule:evenodd;stroke:#000000;stroke-width:2.1117;fill:#ffffff" d="m-155.88-30h34.64l17.32 30-17.32 30h-34.64l-17.33-30 17.33-30z" transform="matrix(.47355 0 0 .47355 125.95 172.86)"/>
    <path id="path3263" style="fill-rule:evenodd;stroke:#000000;stroke-width:2.1117;fill:#ffffff" d="m-155.88-30h34.64l17.32 30-17.32 30h-34.64l-17.33-30 17.33-30z" transform="matrix(.47355 0 0 .47355 150.55 272.3)"/>
    <path id="path3265" style="fill-rule:evenodd;stroke:#000000;stroke-width:2.1117;fill:#ffffff" d="m-155.88-30h34.64l17.32 30-17.32 30h-34.64l-17.33-30 17.33-30z" transform="matrix(.47355 0 0 .47355 150.55 300.72)"/>
    <path id="path3267" style="fill-rule:evenodd;stroke:#000000;stroke-width:2.1117;fill:#ffffff" d="m-155.88-30h34.64l17.32 30-17.32 30h-34.64l-17.33-30 17.33-30z" transform="matrix(.47355 0 0 .47355 175.16 286.51)"/>
  </g>
  <metadata>
    <rdf:RDF>
      <cc:Work>
        <dc:format>image/svg+xml</dc:format>
        <dc:type rdf:resource="http://purl.org/dc/dcmitype/StillImage"/>
        <cc:license rdf:resource="http://creativecommons.org/licenses/publicdomain/"/>
        <dc:publisher>
          <cc:Agent rdf:about="http://openclipart.org/">
            <dc:title>Openclipart</dc:title>
          </cc:Agent>
        </dc:publisher>
        <dc:title>regular hex-a-hop triangular</dc:title>
        <dc:date>2011-01-30T19:53:41</dc:date>
        <dc:description>I used regular hexagons for this but it's not that much different from the other.</dc:description>
        <dc:source>https://openclipart.org/detail/110467/regular-hex-a-hop-triangular-by-10binary</dc:source>
        <dc:creator>
          <cc:Agent>
            <dc:title>10binary</dc:title>
          </cc:Agent>
        </dc:creator>
        <dc:subject>
          <rdf:Bag>
            <rdf:li>hex-a-hop</rdf:li>
            <rdf:li>hexagon</rdf:li>
            <rdf:li>triangle</rdf:li>
            <rdf:li>triangular</rdf:li>
          </rdf:Bag>
        </dc:subject>
      </cc:Work>
      <cc:License rdf:about="http://creativecommons.org/licenses/publicdomain/">
        <cc:permits rdf:resource="http://creativecommons.org/ns#Reproduction"/>
        <cc:permits rdf:resource="http://creativecommons.org/ns#Distribution"/>
        <cc:permits rdf:resource="http://creativecommons.org/ns#DerivativeWorks"/>
      </cc:License>
    </rdf:RDF>
  </metadata>
</svg>
