<?xml version="1.0"?><svg width="6000" height="6000" xmlns="http://www.w3.org/2000/svg" xmlns:xlink="http://www.w3.org/1999/xlink">
 <title>Test</title>
 <defs>
  <linearGradient y2="0.000028" x2="0.434766" y1="0.962463" x1="0.434766" id="linearGradient3671-6-4" xlink:href="#linearGradient1697-1-2"/>
  <linearGradient id="linearGradient1697-1-2">
   <stop stop-color="#69db0e" id="stop1698-8-7" offset="0"/>
   <stop stop-color="#397607" id="stop1699-9-7" offset="1"/>
  </linearGradient>
  <linearGradient y2="0.933531" x2="0.491787" y1="0.077503" x1="0.491787" id="linearGradient3673-2-9" xlink:href="#linearGradient1697-1-2"/>
  <linearGradient y2="1.321252" x2="0.482601" y1="-0.037708" x1="0.478617" id="linearGradient4809" xlink:href="#linearGradient1702-9-1"/>
  <linearGradient id="linearGradient1702-9-1">
   <stop stop-color="#ffffff" stop-opacity="0.690722" id="stop1703-54-9" offset="0"/>
   <stop stop-color="#ffffff" stop-opacity="0" id="stop1704-3-8" offset="1"/>
  </linearGradient>
 </defs>
 <metadata id="metadata3434">image/svg+xml</metadata>
 <g>
  <title>Layer 1</title>
  <g id="layer1">
   <g id="g4914">
    <path fill="url(#linearGradient3671-6-4)" fill-rule="nonzero" stroke="url(#linearGradient3673-2-9)" stroke-width="0.327425" stroke-linecap="round" stroke-linejoin="round" stroke-miterlimit="4" stroke-dashoffset="0" d="m5997.693359,3001.437988c0,1655.539063 -1342.080078,2997.619629 -2997.628174,2997.619629c-1655.545166,0 -2997.625728,-1342.080566 -2997.625728,-2997.619629c0,-1655.552124 1342.080562,-2997.635247 2997.625728,-2997.635247c1655.548096,0 2997.628174,1342.083123 2997.628174,2997.635247z" id="path1070-3-0"/>
    <path opacity="0.9" fill="url(#linearGradient4809)" fill-rule="evenodd" id="path1713-4-2" d="m5177.694824,2211.75708c698.49707,-15.22168 -195.222168,-1938.861115 -2136.099365,-1949.093506c-2118.473938,-10.817596 -2551.963318,1746.924316 -2215.422241,1778.973877c0,0 580.372925,79.705566 1132.58374,233.888184c889.079468,250.806885 1976.588257,-205.755615 2405.12146,-272.104736c477.697754,-73.961182 745.824219,242.331787 813.816406,208.336182z"/>
    <path fill="#ffffff" fill-rule="evenodd" stroke="#cccccc" stroke-width="2" stroke-miterlimit="4" d="m3130.427979,3309.859619l11.231689,0l-2.818359,5.592285l-2.775391,5.638184l-109.279541,0l-109.279785,0l0,-5.638184l0,-5.592285l11.188965,0l11.231445,0l2.775635,-22.42041q2.818604,-22.421143 0,-196.141113l-2.775635,-173.718018l-123.286865,-25.194336q-123.285889,-25.23999 -274.58667,-92.455566q-151.343506,-67.259766 -221.378174,-120.510254q-70.033691,-53.208252 -182.131836,-187.726074q-112.05542,-134.475098 -156.894531,-263.399902q-44.839111,-128.879395 -50.432983,-196.139893l-5.593994,-67.214478l2.775146,-2.819336q2.818848,-2.77356 36.42627,-8.411011q33.651001,-5.594971 353.034546,-11.188477q319.425537,-5.594971 560.403564,-5.594971q240.97876,0 731.306152,-2.819214l490.370361,-2.818604l-16.825439,95.27356q-16.825684,95.27124 -61.66626,207.370117q-44.79541,112.054688 -89.634277,179.314697q-44.8396,67.259521 -92.453857,126.105713q-47.658447,58.800781 -131.699463,120.46582q-84.084717,61.622314 -156.937012,106.461426q-72.852783,44.839355 -173.720459,78.447998q-100.866699,33.651123 -184.908447,53.250488l-84.084473,19.602295l5.637695,196.139648l5.594238,196.139893l11.187744,0l0,0z" id="path2"/>
    <path fill="#ffffff" fill-rule="evenodd" stroke="#cccccc" stroke-width="2" stroke-miterlimit="4" d="m3012.780029,3735.745361l106.460205,-22.375488l8.412598,112.053955c5.593994,74.719238 19.601074,231.612305 42.020508,470.725098c22.419434,239.115234 45.751221,378.272461 70.035156,417.516602c24.283936,39.20459 55.116455,79.359375 92.497314,120.468262c37.33667,41.110352 69.07959,69.123047 95.228271,84.041016c26.14917,14.962402 134.518799,45.664551 134.518799,45.664551c0,0 1.908691,92.931152 -2.818604,103.640625c-331.047852,7.026855 -687.073486,9.019043 -1019.118652,4.814453l-1.604492,-87.640625c0,0 100.563477,-20.64209 166.130859,-55.246582c52.297852,-37.380371 94.318848,-75.670898 126.105225,-114.87207c31.742676,-39.246582 58.845703,-94.36377 81.264893,-165.353027c22.377441,-70.944336 32.655029,-235.34082 30.790527,-493.14209l-2.775635,-386.642578l-16.825195,0l-16.825928,0l0,-5.595947l0,-5.638672l106.50415,-22.41748l0,0z" id="path4"/>
    <path fill="#ffffff" fill-rule="evenodd" stroke="#cccccc" stroke-width="2" stroke-miterlimit="4" d="m3119.240234,3707.731689l0,5.638184l-106.460205,22.375488l-106.50415,22.41748l0,5.638672l0,5.595947l-61.622314,14.006104q-61.664795,14.006104 -162.530762,47.613281q-100.867676,33.651367 -212.922363,95.272949q-112.097412,61.665039 -154.119385,114.873047l-42.02002,53.253418l0,61.623779q0,61.664063 22.419434,112.095215l22.377441,50.435059l2.817383,2.818359q2.818848,2.773438 70.034668,42.02002q67.259033,39.20166 235.385742,28.01416q168.124756,-11.188477 170.899658,-8.415039l2.819336,2.818848l0,22.421387q0,22.418457 -53.251953,64.438965q-53.208496,42.022949 -148.482178,58.848633q-95.272217,16.780762 -173.718994,0q-78.447998,-16.825684 -109.280518,-30.833008q-30.832275,-14.006836 -103.684814,-75.673828q-72.852783,-61.620117 -106.460205,-145.705078q-33.651123,-84.041992 -28.013916,-190.502441q5.594238,-106.503906 44.795654,-190.544922q39.245361,-84.040527 154.118164,-187.724854q114.874023,-103.685791 154.119873,-128.883057l39.244629,-25.237061l-30.832031,-33.609375q-30.83252,-33.650879 -134.518799,-103.68457q-103.641357,-70.033447 -238.158691,-182.133301q-134.474976,-112.054443 -190.546143,-173.718262q-56.026855,-61.623047 -126.061401,-165.308105q-70.03479,-103.685059 -109.279907,-170.900391q-39.244751,-67.259521 -58.845703,-103.684326q-19.600952,-36.428223 -72.853271,-196.139893q-53.252197,-159.712646 -70.03418,-411.879272q-16.825806,-252.212036 0,-347.440796q16.781982,-95.273315 50.433228,-184.952026q33.608398,-89.633545 78.447266,-156.892822q44.839233,-67.260376 120.467896,-137.294312q75.671387,-70.076294 215.783569,-142.929077q140.069092,-72.852539 308.19397,-89.635925q168.126709,-16.825562 235.38501,0q67.214844,16.783386 145.705322,72.852966q78.448242,56.026855 131.65625,126.060669q53.251709,70.078735 98.091309,165.352661q44.838867,95.22876 61.620605,173.71875q16.826172,78.445801 8.41333,109.280518l-8.41333,30.787354l-22.418945,0q-22.375732,0 -58.80249,-42.020264q-36.426514,-42.020264 -72.852539,-78.447754q-36.426514,-36.425659 -70.077881,-53.251099q-33.607178,-16.782715 -44.839111,-11.187622l-11.188965,5.592285l-19.601074,-42.020386q-19.644043,-42.020264 -53.251709,-109.277222l-33.60791,-67.260254l-5.637451,89.678711q-5.593994,89.635742 16.825439,151.299927q22.419922,61.623047 67.258789,123.287842q44.839355,61.619873 81.266846,98.046875l36.426514,36.425171l-56.070801,0q-56.02832,0 -134.475098,-89.633423q-78.446777,-89.677856 -126.104736,-148.526367q-47.615479,-58.84668 -84.041992,-117.692505l-36.426514,-58.800537l-56.026855,-5.638184q-56.070557,-5.594482 -117.691895,16.825806q-61.664551,22.418335 -114.87439,75.671997q-53.251831,53.207886 -98.091064,137.29126q-44.839111,84.042847 -61.621582,263.35498q-16.825806,179.358887 5.594116,291.413452q22.419922,112.098877 56.027466,201.732422q33.651367,89.678467 100.866577,218.561279q67.26001,128.879395 145.706543,229.745117q78.446533,100.911133 126.104492,142.932373q47.614502,42.02002 140.113037,112.054199q92.453125,70.078369 207.326172,145.70459q114.874268,75.672119 221.334717,117.692139l106.50415,42.022949l0,5.592285l0,5.638184l106.461182,2.776367l106.460205,2.818604l5.637939,-8.414551l5.59375,-8.410889l151.300781,-70.036133q151.299561,-70.076172 229.747314,-126.10376q78.447021,-56.027344 137.292236,-103.684814q58.84668,-47.615723 176.539551,-187.729004q117.692139,-140.066895 184.906738,-257.759521q67.26001,-117.691162 117.693359,-285.818115q50.433105,-168.083252 56.026855,-201.734619q5.637695,-33.606689 -11.187988,-252.166992q-16.825684,-218.558472 -64.439453,-311.012817q-47.658447,-92.452393 -120.468506,-148.524292q-72.852783,-56.026978 -134.518066,-61.619751l-61.62207,-5.595337l-64.483154,86.859497q-64.440186,86.859131 -86.859619,109.280029q-22.376465,22.376343 -120.467285,131.656616q-98.048584,109.277466 -154.119141,112.096313l-56.027344,2.818481l25.238281,-39.243652q25.195068,-39.24585 70.03418,-106.460938q44.839111,-67.26062 78.447998,-156.939209q33.607422,-89.633179 28.013428,-151.297607l-5.59375,-61.622681l-53.253418,100.866943l-53.208252,100.865723l-28.013672,-2.818726q-28.057373,-2.773804 -112.097412,103.684937q-84.04248,106.46167 -112.099609,106.46167l-28.013672,0l-8.412842,-14.00647q-8.369141,-14.007202 -8.369141,-109.280396q0,-95.270996 33.60791,-168.124023q33.608643,-72.852295 84.041992,-145.662476q50.432861,-72.853394 92.49707,-120.510742q42.020508,-47.615845 92.453369,-75.629578q50.43335,-28.055847 112.05542,-50.43457q61.664307,-22.417969 173.719238,-22.417969q112.098389,0 257.804688,44.796692q145.707031,44.839294 249.391602,114.915649q103.641602,70.033813 193.320801,182.090698q89.634277,112.096191 117.691406,201.774414q28.01416,89.636475 44.795898,291.368774q16.82666,201.77771 -16.781738,392.279297q-33.651367,190.545166 -84.084473,325.064697q-50.433105,134.472168 -154.075684,305.375488q-103.685059,170.942139 -170.943848,257.803711q-67.259033,86.859863 -86.861084,103.685547q-19.600586,16.780762 -151.299072,126.061279q-131.69873,109.280762 -311.013428,210.147217q-179.313721,100.865967 -325.019531,159.711426l-145.706299,58.845703l0,5.595459l0,0z" id="path6"/>
    <path fill="#ffffff" fill-rule="evenodd" stroke="#cccccc" stroke-width="2" stroke-miterlimit="4" d="m3578.757813,3595.666992l22.415039,0l137.296631,86.860107q137.295654,86.861572 187.730713,159.71167q50.43457,72.850586 72.850342,145.702881q22.416992,72.849121 5.604736,190.531982q-16.812256,117.683105 -56.038574,184.930176q-39.228271,67.246582 -120.485107,131.690918q-81.257324,64.445801 -120.483887,75.652832q-39.227783,11.209473 -184.929199,-5.603516q-145.701172,-16.812988 -182.128418,-47.634277q-36.424316,-30.821289 -47.632324,-75.652344l-11.208008,-44.831055l25.217285,-2.80127q25.217529,-2.802246 70.050293,19.612793q44.830811,22.415527 179.324707,5.603516q134.493164,-16.80957 170.919434,-53.237305q36.425293,-36.424805 58.84082,-81.256348l22.415771,-44.831543l-16.8125,-84.058594q-16.811279,-84.056641 -75.653076,-142.899658q-58.840332,-58.840576 -114.879639,-92.463379q-56.039551,-33.624512 -224.155518,-92.4646l-168.118652,-58.841309l16.8125,-14.009277q16.811035,-14.011719 173.721191,-86.862793l156.909668,-72.849609l22.415771,0z" id="path8"/>
   </g>
  </g>
 </g>
</svg>