<?xml version="1.0" encoding="utf-8"?>
<!-- Generator: Adobe Illustrator 16.0.4, SVG Export Plug-In . SVG Version: 6.00 Build 0)  -->
<!DOCTYPE svg PUBLIC "-//W3C//DTD SVG 1.1//EN" "http://www.w3.org/Graphics/SVG/1.1/DTD/svg11.dtd">
<svg version="1.1" id="Layer_1" xmlns="http://www.w3.org/2000/svg" xmlns:xlink="http://www.w3.org/1999/xlink" x="0px" y="0px"
	 width="300px" height="300px" viewBox="0 0 300 300" enable-background="new 0 0 300 300" xml:space="preserve">
<polygon fill="#FFA518" points="300,300.022 0,300 0,0 300,0.022 "/>
<path fill="none" stroke="#000000" stroke-width="1.25" stroke-linecap="round" stroke-miterlimit="10" d="M82.386,247.836
	c-15.305-9.74-30.225-28.732-30.156-56.367"/>
<path fill="none" stroke="#000000" stroke-width="1.25" stroke-linecap="round" stroke-miterlimit="10" d="M95.785,70.66"/>
<path fill="none" stroke="#000000" stroke-width="1.25" stroke-linecap="round" stroke-miterlimit="10" d="M234.475,73.984
	c-6.213-9.828-14.688-18.473-25.37-25.27c-37.27-23.719-82.583-14.629-112.038,20.391"/>
<path fill="none" stroke="#000000" stroke-width="1.25" stroke-linecap="round" stroke-miterlimit="10" d="M219.619,189.957
	c11.674-16.352,17.551-29.213,17.551-29.213"/>
<path fill="none" stroke="#000000" stroke-width="1.25" stroke-linecap="round" stroke-miterlimit="10" d="M91.376,252.582
	c30.695,11.541,58.238-2.084,71.805-10.09"/>
<path fill="none" stroke="#000000" stroke-width="1.25" stroke-linecap="round" stroke-miterlimit="10" d="M205.135,56.254
	C174.257,34.5,136.175,38.355,101.566,77.086l0,0"/>
<path fill="none" stroke="#000000" stroke-width="1.25" stroke-linecap="round" stroke-miterlimit="10" d="M228.764,158.133
	c0,0-4.973,10.785-14.774,24.893c0,0-7.041,9.387,1.137,14.59"/>
<path fill="none" stroke="#000000" stroke-width="1.25" stroke-linecap="round" stroke-miterlimit="10" d="M120.82,247.35
	c0,0,0.652-0.025,0.99-0.072c11.271-0.92,23.084-4.703,34.65-11"/>
<path fill="none" stroke="#000000" stroke-width="1.25" stroke-linecap="round" stroke-miterlimit="10" d="M149.15,76.57
	c6.053-9.51,18.668-12.312,28.18-6.262c9.512,6.055,12.316,18.672,6.264,28.18"/>
<path fill="none" stroke="#000000" stroke-width="1.25" stroke-linecap="round" stroke-miterlimit="10" d="M105.474,102.803
	c-7.744-0.279-17.131-3.066-26.803-8.635"/>
<path fill="none" stroke="#000000" stroke-width="1.25" stroke-linecap="round" stroke-miterlimit="10" d="M149.15,76.57
	c0,0-12.336,22.141-35.633,25.762"/>
<path fill="none" stroke="#000000" stroke-width="1.25" stroke-linecap="round" stroke-miterlimit="10" d="M183.593,98.488
	c0,0-38.793,71.074-122.061,34.375"/>
<path fill="none" stroke="#000000" stroke-width="1.25" stroke-linecap="round" stroke-miterlimit="10" d="M156.181,81.508
	c3.547-5.572,10.938-7.219,16.512-3.67c5.574,3.547,7.217,10.941,3.672,16.514"/>
<path fill="none" stroke="#000000" stroke-width="1.25" stroke-linecap="round" stroke-miterlimit="10" d="M156.181,81.508
	c0,0-31.371,51.543-83.143,21.986"/>
<path fill="none" stroke="#000000" stroke-width="1.25" stroke-linecap="round" stroke-miterlimit="10" d="M175.755,95.215
	c0,0-39.127,61.576-111.07,27.93"/>
<path fill="none" stroke="#000000" stroke-width="1.25" stroke-linecap="round" stroke-miterlimit="10" d="M83.992,85.809
	c0,0,32.758,20.848,57.873-15.586"/>
<path fill="none" stroke="#000000" stroke-width="1.25" stroke-linecap="round" stroke-miterlimit="10" d="M101.566,77.086
	c0,0-4.543,7.139-12.316,2.193"/>
<path fill="none" stroke="#000000" stroke-width="1.25" stroke-linecap="round" stroke-miterlimit="10" d="M140.673,71.947
	c8.908-13.996,27.475-18.123,41.471-9.215c13.999,8.908,18.124,27.475,9.217,41.471"/>
<path fill="none" stroke="#000000" stroke-width="1.25" stroke-linecap="round" stroke-miterlimit="10" d="M185.636,113.199
	c0,0-35.129,55.201,22.53,91.766"/>
<path fill="none" stroke="#000000" stroke-width="1.25" stroke-linecap="round" stroke-miterlimit="10" d="M166.156,87.855
	c0,0-38.195,57.369-97.756,25.518"/>
<path fill="none" stroke="#000000" stroke-width="1.25" stroke-linecap="round" stroke-linejoin="round" stroke-miterlimit="10" d="
	M90.24,153.908c16.584,2.125,53.41,2.904,76.316-20.49c0,0-16.68,48.566,33.159,80.896"/>
<path fill="none" stroke="#000000" stroke-width="1.25" stroke-linecap="round" stroke-linejoin="round" stroke-miterlimit="10" d="
	M100.855,166.301c0,0,26.914,3.818,50.832-10.455c0,0-5.438,35.344,38.416,66.328"/>
<path fill="none" stroke="#000000" stroke-width="1.25" stroke-linecap="round" stroke-linejoin="round" stroke-miterlimit="10" d="
	M80.744,152.58c0,0-12.295-0.535-26.256,11.232"/>
<path fill="none" stroke="#000000" stroke-width="1.25" stroke-linecap="round" stroke-linejoin="round" stroke-miterlimit="10" d="
	M95.314,164.828c0,0-23.939-6.242-42.762,14.232"/>
<path fill="none" stroke="#000000" stroke-width="1.25" stroke-linecap="round" stroke-miterlimit="10" d="M194.891,117.545"/>
<path fill="none" stroke="#000000" stroke-width="1.25" stroke-linecap="round" stroke-miterlimit="10" d="M91.601,175.719
	c0,0-35.398-5.885-28.539,28.893"/>
<path fill="none" stroke="#000000" stroke-width="1.25" stroke-linecap="round" stroke-linejoin="round" stroke-miterlimit="10" d="
	M91.601,175.719c0,0,28.162,4.668,48.982-3.348c0,0,3.699,32.225,32.873,50.791c0,0,7.566,4.814,3.959,9.424"/>
<path fill="none" stroke="#000000" stroke-width="1.25" stroke-linecap="round" stroke-linejoin="round" stroke-miterlimit="10" d="
	M72.488,197.037c0.166,2.08-3.355-15.066,25.604-9.719"/>
<path fill="none" stroke="#000000" stroke-width="1.25" stroke-linecap="round" stroke-linejoin="round" stroke-miterlimit="10" d="
	M66,210.896c0,0,7.699,36.611,48.617,36.182"/>
<path fill="none" stroke="#000000" stroke-width="1.25" stroke-linecap="round" stroke-linejoin="round" stroke-miterlimit="10" d="
	M74.597,205.582c0,0,10.635,49.059,74.34,23.393"/>
<path fill="none" stroke="#000000" stroke-width="1.25" stroke-linecap="round" stroke-linejoin="round" stroke-miterlimit="10" d="
	M106.56,187.088c0,0,15.145,3.27,25.104-1.182c0,0,6.6,28.828,39.965,50.061"/>
<path fill="none" stroke="#000000" stroke-width="1.25" stroke-linecap="round" stroke-miterlimit="10" d="M194.891,117.545
	c0,0-23.913,45.811,7.697,66.852"/>
<path fill="none" stroke="#000000" stroke-width="1.25" stroke-linecap="round" stroke-miterlimit="10" d="M141.464,221.762
	c-54.844,16.191-56.541-19.326-56.541-19.326c0.928-7.881,9.766-7.988,18.377-5.24c0,0,12.875,3.482,20.932-0.613"/>
<path fill="none" stroke="#000000" stroke-width="1.25" stroke-linecap="round" stroke-linejoin="round" stroke-miterlimit="10" d="
	M58.769,141.572c0,0,6.783,3.854,12.232,3.779c-0.246,0.096-10.057,2.609-12.691,6.188"/>
<path fill="none" stroke="#000000" stroke-width="1.25" stroke-linecap="round" stroke-miterlimit="10" d="M202.588,184.396
	c0,0,46.383-58.018,12.148-107.852"/>
<path fill="none" stroke="#000000" stroke-width="1.25" stroke-linecap="round" stroke-miterlimit="10" d="M182.933,53.998"/>
<path fill="none" stroke="#000000" stroke-width="1.25" stroke-linecap="round" stroke-linejoin="round" stroke-miterlimit="10" d="
	M202.939,167.605c-13.52-12.678,3.326-49.295,3.326-49.295c0.158-0.385,15.539-31.742-12.809-57.242
	c-18.977-17.072-43.162-6.812-40.828-7.842c-11.543,3.342-18.334,11.252-18.334,11.252c-15.445,17.305-25.404,17.676-28.012,17.945"
	/>
<path fill="none" stroke="#000000" stroke-width="1.25" stroke-linecap="round" stroke-miterlimit="10" d="M189.277,57.107"/>
<path fill="none" stroke="#000000" stroke-width="1.25" stroke-linecap="round" stroke-miterlimit="10" d="M139.482,59.248"/>
<path fill="none" stroke="#000000" stroke-width="1.25" stroke-linecap="round" stroke-miterlimit="10" d="M124.443,64.635"/>
<path fill="none" stroke="#000000" stroke-width="1.25" stroke-linecap="round" stroke-miterlimit="10" d="M114.511,72.398"/>
<path fill="none" stroke="#000000" stroke-width="1.25" stroke-linecap="round" stroke-miterlimit="10" d="M212.68,61.984
	c0,0,43.448,34.891,16.084,96.148"/>
<path fill="none" stroke="#000000" stroke-width="1.25" stroke-linecap="round" stroke-miterlimit="10" d="M238.334,80.928
	c0,0,18.305,32.451,1.967,71.988"/>
<path fill="none" stroke="#000000" stroke-width="1.25" stroke-linecap="round" stroke-linejoin="round" stroke-miterlimit="10" d="
	M209.545,157.225c-2.68-6.514-1.627-14.455,0.111-21.035c3.133-11.857,13.914-23.826,7.398-36.568"/>
<path fill="none" stroke="#000000" stroke-width="1.25" stroke-linecap="round" stroke-linejoin="round" stroke-miterlimit="10" d="
	M124.443,64.635"/>
<path fill="none" stroke="#000000" stroke-width="1.25" stroke-linecap="round" stroke-miterlimit="10" d="M133.955,213.299
	c-24.277,8.217-36.436-2.549-36.436-2.549c-1.908-1.213-2.641-3.471-1.643-5.041c1-1.57,3.354-1.859,5.262-0.645
	c0,0,16.393,6.438,26.408-0.586"/>
<path fill="none" stroke="#5E5F5E" stroke-linecap="round" stroke-miterlimit="10" d="M113.271,256.768"/>
<path fill="none" stroke="#000000" stroke-width="1.25" stroke-linecap="round" stroke-linejoin="round" stroke-miterlimit="10" d="
	M213.938,145.959"/>
<path fill="none" stroke="#000000" stroke-width="1.25" stroke-linecap="round" stroke-linejoin="round" stroke-miterlimit="10" d="
	M218.689,128.086"/>
<circle fill="#FFFFFF" cx="190.933" cy="104.875" r="3.111"/>
<circle fill="#FFFFFF" cx="98.083" cy="165.536" r="3.112"/>
<circle fill="#FFFFFF" cx="165.339" cy="134.753" r="3.113"/>
<circle fill="#FFFFFF" cx="80.746" cy="152.579" r="3.112"/>
<circle fill="#FFFFFF" cx="208.03" cy="204.878" r="3.112"/>
<circle fill="#FFFFFF" cx="190.057" cy="222.243" r="3.112"/>
<circle fill="#FFFFFF" cx="69.901" cy="114.328" r="3.113"/>
<path fill="#FFFFFF" d="M91.875,80.949c-0.924,1.449-2.85,1.877-4.297,0.955c-1.451-0.922-1.879-2.848-0.955-4.297
	c0.922-1.449,2.846-1.879,4.297-0.953C92.367,77.576,92.796,79.498,91.875,80.949z"/>
<circle fill="#FFFFFF" cx="52.229" cy="191.467" r="3.113"/>
<circle fill="#FFFFFF" cx="166.157" cy="87.855" r="3.113"/>
<path fill="#FFFFFF" d="M205.211,186.068c-0.922,1.449-2.844,1.875-4.293,0.953c-1.451-0.924-1.879-2.846-0.955-4.295
	c0.922-1.451,2.846-1.879,4.297-0.957C205.709,182.693,206.135,184.617,205.211,186.068z"/>
<circle fill="#FFFFFF" cx="214.738" cy="76.544" r="3.112"/>
<path fill="#FFFFFF" d="M130.173,206.15c-0.924,1.449-2.848,1.879-4.297,0.955c-1.453-0.924-1.879-2.848-0.955-4.299
	c0.922-1.449,2.844-1.877,4.297-0.951C130.667,202.777,131.095,204.699,130.173,206.15z"/>
<circle fill="#FFFFFF" cx="133.032" cy="213.797" r="3.11"/>
</svg>
