<?xml version="1.0" encoding="utf-8"?>
<!-- Generator: Adobe Illustrator 19.1.0, SVG Export Plug-In . SVG Version: 6.00 Build 0)  -->
<svg version="1.1" id="Layer_1" xmlns="http://www.w3.org/2000/svg" xmlns:xlink="http://www.w3.org/1999/xlink" x="0px" y="0px"
	 viewBox="0 0 1123.2 683.1" style="enable-background:new 0 0 1123.2 683.1;" xml:space="preserve">
<style type="text/css">
	.st0{fill:none;stroke:#FFFFFF;stroke-miterlimit:10;}
	.st1{fill:none;stroke:#FF7BAC;stroke-width:5;stroke-miterlimit:10;}
	.st2{fill:none;stroke:#3FA9F5;stroke-width:5;stroke-miterlimit:10;}
	.st3{clip-path:url(#SVGID_2_);fill:#FFFFFF;}
	.st4{clip-path:url(#SVGID_2_);}
	.st5{fill:#FFFFFF;}
	.st6{fill:none;stroke:#FFFF00;stroke-width:5;stroke-miterlimit:10;}
</style>
<rect x="-1.2" y="-0.5" width="1123.2" height="683.1"/>
<g>
	<line class="st0" x1="449.9" y1="488" x2="463.9" y2="488"/>
	<line class="st0" x1="463.4" y1="488.5" x2="463.4" y2="500.5"/>
</g>
<path class="st1" d="M368.4,251.5"/>
<path class="st2" d="M467.9,528"/>
<line class="st1" x1="447.4" y1="226.5" x2="447.4" y2="502.5"/>
<path class="st2" d="M624.5,452.6"/>
<g>
	<g>
		<defs>
			<rect id="SVGID_1_" x="1373.5" y="156.9" width="526.3" height="394.8"/>
		</defs>
		<clipPath id="SVGID_2_">
			<use xlink:href="#SVGID_1_"  style="overflow:visible;"/>
		</clipPath>
		<rect x="1391.9" y="173.8" class="st3" width="526.3" height="394.8"/>
		<path class="st4" d="M1646.1,276.1c-0.1,0.3-0.1,0.3-0.3,0.6c-0.7,0.9-1.3,1.1-1.8,1.1c-0.8,0-1-0.9-1-1.5c0-0.8,0.5-2.7,0.9-3.5
			c0.5-0.9,1.2-1.5,1.8-1.5c1,0,1.3,1.3,1.3,1.4s0,0.2,0,0.3L1646.1,276.1z M1647.1,272c-0.3-0.6-0.7-1-1.5-1
			c-1.9,0-3.8,2.3-3.8,4.6c0,1.5,0.9,2.5,2.1,2.5c0.3,0,1.1-0.1,2.1-1.2c0.1,0.7,0.7,1.2,1.4,1.2c0.6,0,0.9-0.4,1.2-0.9
			c0.3-0.6,0.5-1.5,0.5-1.6c0-0.2-0.1-0.2-0.2-0.2c-0.2,0-0.2,0.1-0.2,0.3c-0.3,1-0.6,2-1.2,2c-0.4,0-0.5-0.4-0.5-0.7
			c0-0.3,0-0.5,0.2-1.2c0.2-0.7,0.2-0.8,0.3-1.4l0.6-2.2c0.1-0.4,0.1-0.5,0.1-0.5c0-0.3-0.2-0.4-0.5-0.4
			C1647.4,271.3,1647.1,271.7,1647.1,272z M1621.9,276.1c-0.1,0.3-0.1,0.3-0.3,0.6c-0.7,0.9-1.3,1.1-1.8,1.1c-0.8,0-1-0.9-1-1.5
			c0-0.8,0.5-2.7,0.9-3.5c0.5-0.9,1.2-1.5,1.8-1.5c1,0,1.3,1.3,1.3,1.4s0,0.2,0,0.3L1621.9,276.1z M1622.9,272c-0.3-0.6-0.7-1-1.5-1
			c-1.9,0-3.8,2.3-3.8,4.6c0,1.5,0.9,2.5,2.1,2.5c0.3,0,1.1-0.1,2.1-1.2c0.1,0.7,0.7,1.2,1.4,1.2c0.6,0,0.9-0.4,1.2-0.9
			c0.3-0.6,0.5-1.5,0.5-1.6c0-0.2-0.1-0.2-0.2-0.2c-0.2,0-0.2,0.1-0.2,0.3c-0.3,1-0.6,2-1.2,2c-0.4,0-0.5-0.4-0.5-0.7
			c0-0.3,0-0.5,0.2-1.2c0.2-0.7,0.2-0.8,0.3-1.4l0.6-2.2c0.1-0.4,0.1-0.5,0.1-0.5c0-0.3-0.2-0.4-0.5-0.4
			C1623.2,271.3,1622.9,271.7,1622.9,272z"/>
		<path class="st4" d="M1652.8,269.1c0.2-0.2,0.7-0.6,0.9-0.7c0.7-0.7,1.4-1.3,1.4-2.3c0-1.4-1.2-2.3-2.6-2.3
			c-1.4,0-2.3,1.1-2.3,2.1c0,0.6,0.5,0.6,0.6,0.6c0.2,0,0.6-0.2,0.6-0.6c0-0.6-0.6-0.6-0.7-0.6c0.3-0.8,1.1-1.1,1.7-1.1
			c1.1,0,1.6,0.9,1.6,1.9c0,1.2-0.8,2.1-2.2,3.5l-1.5,1.5c-0.1,0.1-0.1,0.2-0.1,0.4h4.6l0.3-2.1h-0.4c0,0.2-0.1,0.8-0.3,1
			c-0.1,0.1-0.9,0.1-1.1,0.1h-2.1L1652.8,269.1z"/>
		<path class="st4" d="M1645.1,298.8c0.1-0.3,0.1-0.4,0.2-0.6c0.8-1,1.5-1.3,1.9-1.3c0.6,0,1,0.5,1,1.5c0,0.9-0.5,2.8-0.8,3.4
			c-0.5,1.1-1.3,1.6-1.9,1.6c-0.5,0-1.1-0.4-1.1-1.6c0-0.3,0-0.6,0.3-1.6L1645.1,298.8z M1646.5,292.9c0,0,0-0.2-0.2-0.2
			c-0.4,0-1.5,0.1-1.9,0.2c-0.1,0-0.3,0-0.3,0.3c0,0.2,0.1,0.2,0.4,0.2c0.8,0,0.8,0.1,0.8,0.3c0,0.1-0.1,0.6-0.2,1l-1.3,5.2
			c-0.2,0.8-0.3,1-0.3,1.6c0,1.5,0.8,2.5,2,2.5c1.9,0,3.8-2.4,3.8-4.6c0-1.4-0.8-2.5-2.1-2.5c-0.7,0-1.4,0.5-1.9,0.9L1646.5,292.9z
			 M1622.4,298.8c0.1-0.3,0.1-0.4,0.2-0.6c0.8-1,1.5-1.3,1.9-1.3c0.6,0,1,0.5,1,1.5c0,0.9-0.5,2.8-0.8,3.4c-0.5,1.1-1.3,1.6-1.9,1.6
			c-0.5,0-1.1-0.4-1.1-1.6c0-0.3,0-0.6,0.3-1.6L1622.4,298.8z M1623.9,292.9c0,0,0-0.2-0.2-0.2c-0.4,0-1.5,0.1-1.9,0.2
			c-0.1,0-0.3,0-0.3,0.3c0,0.2,0.1,0.2,0.4,0.2c0.8,0,0.8,0.1,0.8,0.3c0,0.1-0.1,0.6-0.2,1l-1.3,5.2c-0.2,0.8-0.3,1-0.3,1.6
			c0,1.5,0.8,2.5,2,2.5c1.9,0,3.8-2.4,3.8-4.6c0-1.4-0.8-2.5-2.1-2.5c-0.7,0-1.4,0.5-1.9,0.9L1623.9,292.9z"/>
		<path class="st4" d="M1652.8,294.8c0.2-0.2,0.7-0.6,0.9-0.7c0.7-0.7,1.4-1.3,1.4-2.3c0-1.4-1.2-2.3-2.6-2.3
			c-1.4,0-2.3,1.1-2.3,2.1c0,0.6,0.5,0.6,0.6,0.6c0.2,0,0.6-0.2,0.6-0.6c0-0.6-0.6-0.6-0.7-0.6c0.3-0.8,1.1-1.1,1.7-1.1
			c1.1,0,1.6,0.9,1.6,1.9c0,1.2-0.8,2.1-2.2,3.5l-1.5,1.5c-0.1,0.1-0.1,0.2-0.1,0.4h4.6l0.3-2.1h-0.4c0,0.2-0.1,0.8-0.3,1
			c-0.1,0.1-0.9,0.1-1.1,0.1h-2.1L1652.8,294.8z"/>
		<path class="st4" d="M1649,323.3c-0.3,0-0.5,0-0.7,0.2c-0.3,0.2-0.3,0.5-0.3,0.6c0,0.4,0.3,0.6,0.6,0.6c0.5,0,0.9-0.4,0.9-1
			c0-0.8-0.7-1.4-1.9-1.4c-2.1,0-4.2,2.3-4.2,4.5c0,1.4,0.9,2.7,2.6,2.7c2.3,0,3.6-1.7,3.6-1.9c0-0.1-0.1-0.2-0.2-0.2
			c-0.1,0-0.1,0-0.2,0.2c-1.3,1.6-3,1.6-3.2,1.6c-1,0-1.4-0.8-1.4-1.7c0-0.6,0.3-2.2,0.9-3.2c0.5-0.9,1.4-1.6,2.2-1.6
			C1648.1,322.7,1648.7,322.9,1649,323.3z M1626.3,323.3c-0.3,0-0.5,0-0.7,0.2c-0.3,0.2-0.3,0.5-0.3,0.6c0,0.4,0.3,0.6,0.6,0.6
			c0.5,0,0.9-0.4,0.9-1c0-0.8-0.7-1.4-1.9-1.4c-2.1,0-4.2,2.3-4.2,4.5c0,1.4,0.9,2.7,2.6,2.7c2.3,0,3.6-1.7,3.6-1.9
			c0-0.1-0.1-0.2-0.2-0.2c-0.1,0-0.1,0-0.2,0.2c-1.3,1.6-3,1.6-3.2,1.6c-1,0-1.4-0.8-1.4-1.7c0-0.6,0.3-2.2,0.9-3.2
			c0.5-0.9,1.4-1.6,2.2-1.6C1625.5,322.7,1626.1,322.9,1626.3,323.3z"/>
		<path class="st4" d="M1652.8,320.4c0.2-0.2,0.7-0.6,0.9-0.7c0.7-0.7,1.4-1.3,1.4-2.3c0-1.4-1.2-2.3-2.6-2.3
			c-1.4,0-2.3,1.1-2.3,2.1c0,0.6,0.5,0.6,0.6,0.6c0.2,0,0.6-0.2,0.6-0.6c0-0.6-0.6-0.6-0.7-0.6c0.3-0.8,1.1-1.1,1.7-1.1
			c1.1,0,1.6,0.9,1.6,1.9c0,1.2-0.8,2.1-2.2,3.5l-1.5,1.5c-0.1,0.1-0.1,0.2-0.1,0.4h4.6l0.3-2.1h-0.4c0,0.2-0.1,0.8-0.3,1
			c-0.1,0.1-0.9,0.1-1.1,0.1h-2.1L1652.8,320.4z"/>
		<path class="st4" d="M1645.6,353.3c-0.6,0-1.6-0.4-1.8-1.9c-0.2-0.9-0.2-2.4-0.2-3.3c0-1,0-2.1,0.1-2.9c0.3-1.9,1.5-2,1.9-2
			c0.5,0,1.6,0.3,1.9,1.9c0.2,0.9,0.2,2.1,0.2,3.1c0,1.2,0,2.3-0.2,3.3C1647.2,352.8,1646.3,353.3,1645.6,353.3z M1648.9,348.3
			c0-1.3-0.1-2.5-0.6-3.7c-0.7-1.5-2-1.8-2.7-1.8c-0.9,0-2.1,0.4-2.8,1.9c-0.5,1.1-0.6,2.3-0.6,3.6c0,1.2,0.1,2.6,0.7,3.8
			c0.7,1.3,1.8,1.6,2.6,1.6c0.9,0,2.1-0.3,2.8-1.8C1648.8,350.7,1648.9,349.5,1648.9,348.3z M1637.6,349.5c-0.3,0-1,0-1.5-1
			c-0.3-0.6-0.3-1.4-0.3-2.2c0-0.9,0-1.6,0.3-2.2c0.4-0.8,1-1,1.6-1c0.7,0,1.3,0.5,1.5,1.3c0.2,0.5,0.3,1.5,0.3,2.2
			C1639.5,348,1639,349.5,1637.6,349.5z M1639.5,348.3v0.5c0,3.7-1.6,4.4-2.6,4.4c-0.3,0-1.1,0-1.6-0.6c0.7,0,0.8-0.5,0.8-0.7
			c0-0.5-0.4-0.7-0.7-0.7c-0.3,0-0.7,0.1-0.7,0.8c0,1.1,0.9,1.7,2.2,1.7c2,0,4-2.2,4-5.6c0-4.3-1.8-5.3-3.2-5.3
			c-0.9,0-1.6,0.3-2.3,1c-0.6,0.7-1,1.4-1,2.6c0,2,1.4,3.5,3.2,3.5C1638.5,349.9,1639.2,349.2,1639.5,348.3z"/>
		<path class="st4" d="M1652.6,345.8c-1,0-1.8-0.8-1.8-1.9c0-1,0.8-1.9,1.8-1.9s1.8,0.8,1.8,1.9
			C1654.5,344.9,1653.6,345.8,1652.6,345.8z M1655,343.9c0-1.3-1.1-2.4-2.4-2.4s-2.4,1.1-2.4,2.4s1.1,2.4,2.4,2.4
			S1655,345.2,1655,343.9z"/>
		<path class="st4" d="M1652.7,375.7c-1.4,1.2-2.6,1.4-3.2,1.4c-0.9,0-1.4-0.7-1.4-1.7c0-0.8,0.4-2.5,0.9-3.3
			c0.7-1.2,1.6-1.5,2.2-1.5c1.6,0,1.6,2.1,1.6,3.3C1652.7,374.6,1652.7,375.5,1652.7,375.7z M1653.8,373.6c0-2.5-1.5-3.3-2.6-3.3
			c-2.2,0-4.3,2.3-4.3,4.5c0,1.5,0.9,2.7,2.6,2.7c1,0,2.1-0.4,3.3-1.3c0.2,0.8,0.7,1.3,1.4,1.3c0.8,0,1.3-0.9,1.3-1.1
			c0-0.1-0.1-0.2-0.2-0.2c-0.1,0-0.2,0-0.2,0.2c-0.3,0.8-0.9,0.8-0.9,0.8c-0.5,0-0.5-1.2-0.5-1.6c0-0.3,0-0.4,0.2-0.6
			c1.5-1.9,1.8-3.7,1.8-3.7c0,0,0-0.2-0.2-0.2c-0.2,0-0.2,0-0.2,0.3c-0.3,1-0.8,2.2-1.6,3.1V373.6z"/>
		<path class="st4" d="M1654.8,391.9c0,1.1-0.6,2.2-1.4,2.7c-0.4-0.2-0.7-0.2-1.2-0.2c-0.3,0-1.2,0-1.2,0.5c0,0.4,0.8,0.4,1.1,0.4
			c0.6,0,0.8,0,1.3-0.2c0.6,0.6,0.7,1.1,0.7,1.8c0,0.9-0.3,2.1-0.8,2.7c-0.6,0.9-1.7,1.4-2.6,1.4c-1.2,0-1.8-0.9-1.8-2
			c0-0.2,0-0.4,0.1-0.7l1-4c0.3-1.4,1.5-3.9,3.4-3.9C1654.3,390.5,1654.8,391,1654.8,391.9z M1652.9,394.9c-0.2,0.1-0.4,0.1-0.8,0.1
			c-0.2,0-0.5,0-0.7-0.1c0-0.2,0.6-0.1,0.8-0.1C1652.5,394.8,1652.7,394.8,1652.9,394.9z M1655.7,392.3c0-1.2-0.9-2.2-2.2-2.2
			c-0.9,0-1.4,0.3-1.9,0.7c-0.9,0.6-1.7,2.2-2,3.4l-2.5,10c0,0.1,0.1,0.2,0.2,0.2s0.2,0,0.2-0.1l1.1-4.4c0.3,0.9,1,1.5,2.2,1.5
			c1.2,0,2.3-0.6,3.1-1.3c0.8-0.7,1.3-1.7,1.3-2.9c0-1.1-0.6-2-1.2-2.4C1654.8,394.4,1655.7,393.4,1655.7,392.3z"/>
		<path class="st4" d="M1648,421.3c0.6-1.8,2.3-1.8,2.5-1.8c2.4,0,2.6,2.8,2.6,4c0,1-0.1,1.2-0.2,1.6c-0.3,1.2-0.8,3-0.8,3.4
			c0,0.2,0.1,0.3,0.2,0.3c0.2,0,0.3-0.3,0.5-0.9c0.4-1.3,0.5-2.2,0.6-2.7c0-0.2,0.1-0.4,0.1-0.6c0.5-1.6,1.5-3.9,2.2-5.2
			c0.1-0.2,0.3-0.5,0.3-0.6c0-0.2-0.2-0.2-0.2-0.2c0,0-0.1,0-0.2,0.1c-0.8,1.5-1.5,3.1-2.1,4.7c0-0.5,0-1.7-0.6-3.2
			c-0.4-1-1-1.7-2.1-1.7c-2,0-3.1,2.4-3.1,2.9C1647.6,421.4,1647.8,421.4,1648,421.3L1648,421.3z"/>
	</g>
</g>
<g>
	<path class="st5" d="M496.3,530.8c-1.3-2.7-3.4-4.6-6.6-4.6c-8.4,0-17.3,10.6-17.3,21c0,6.7,3.9,11.5,9.5,11.5c1.4,0,5-0.3,9.3-5.4
		c0.6,3,3.1,5.4,6.5,5.4c2.5,0,4.2-1.7,5.3-3.9c1.2-2.6,2.2-7,2.2-7.1c0-0.7-0.6-0.7-0.9-0.7c-0.7,0-0.8,0.3-1,1.3
		c-1.2,4.7-2.5,8.9-5.5,8.9c-1.9,0-2.2-1.9-2.2-3.3c0-1.6,0.1-2.2,0.9-5.3c0.8-3,0.9-3.7,1.6-6.5l2.6-10c0.5-2,0.5-2.2,0.5-2.4
		c0-1.2-0.9-1.9-2.1-1.9C497.6,527.6,496.5,529.2,496.3,530.8z"/>
	<g>
		<path d="M491.6,549.4c-0.4,1.3-0.4,1.4-1.4,2.7c-3.2,3.9-6.1,5.1-8.1,5.1c-3.6,0-4.6-3.9-4.6-6.7c0-3.6,2.3-12.4,3.9-15.7
			c2.2-4.2,5.5-6.9,8.3-6.9c4.7,0,5.7,5.9,5.7,6.3c0,0.4-0.1,0.9-0.2,1.2L491.6,549.4z"/>
	</g>
</g>
<g>
	<path class="st5" d="M415.4,352c0-0.1,0-0.8-0.9-0.8c-1.6,0-6.6,0.6-8.4,0.7c-0.6,0.1-1.3,0.1-1.3,1.4c0,0.8,0.6,0.8,1.7,0.8
		c3.3,0,3.5,0.5,3.5,1.2c0,0.5,0.4,2.8,0,4.3l-6.7,22.6c-0.8,3.5-1.1,4.6-1.1,7c0,6.6,3.7,10.9,8.8,10.9c8.2,0,16.7-10.3,16.7-20.3
		c0-6.3-3.7-11.1-9.2-11.1c-3.2,0-6,2-8.1,4.2L415.4,352z"/>
	<path d="M408.5,378.2c0.4-1.5,0.4-1.7,1-2.4c3.4-4.5,6.5-5.5,8.3-5.5c2.5,0,4.4,2.1,4.4,6.5c0,4.1-2.3,12-3.5,14.7
		c-2.3,4.6-5.5,7.1-8.2,7.1c-2.4,0-4.6-1.9-4.6-7c0-1.3,0-2.6,1.1-7L408.5,378.2z"/>
</g>
<path class="st5" d="M532.9,352.3c-1.1,0-2,0-2.9,0.9c-1.1,1-1.2,2.1-1.2,2.6c0,1.6,1.2,2.3,2.5,2.3c1.9,0,3.7-1.6,3.7-4.3
	c0-3.3-3.1-5.8-7.9-5.8c-9,0-17.9,9.6-17.9,19c0,6,3.9,11.3,10.8,11.3c12.2,0,15.2-7.1,15.2-7.9c0-0.4-0.4-0.9-0.8-0.9
	c-0.3,0-0.5,0.1-0.9,0.7c-5.3,6.6-12.6,6.6-13.4,6.6c-4.2,0-6-3.3-6-7.3c0-2.7,1.3-9.2,3.6-13.4c2.1-3.8,5.8-6.7,9.4-6.7
	C529.4,349.7,532,350.5,532.9,352.3z"/>
<path class="st6" d="M720.7,128.2c32.8,95.7,65.8,183.3,97.8,277.5"/>
<path class="st6" d="M444.9,228c93-31.9,185.5-66.5,276.3-97.3"/>
<path class="st2" d="M443.9,503.1c34.8,0.2,68.9,0.3,101.7,0.5"/>
<path class="st6" d="M543.6,502.8c-32.3-94.2-64.8-181.6-97.3-277.3"/>
<path class="st6" d="M820.1,402.8c-93.2,31.9-185.6,66.5-276.3,97.3"/>
</svg>
