<?xml version="1.0"?><svg width="5000" height="6000" xmlns="http://www.w3.org/2000/svg" xmlns:xlink="http://www.w3.org/1999/xlink">
 <metadata id="metadata77">image/svg+xml</metadata>
 <defs>
  <linearGradient id="linearGradient8301">
   <stop offset="0" id="stop8303" stop-color="#ffffff"/>
   <stop offset="1" id="stop8305" stop-opacity="0" stop-color="#ffffff"/>
  </linearGradient>
  <linearGradient id="linearGradient8200">
   <stop offset="0" id="stop8202" stop-opacity="0.752941" stop-color="#00c0c0"/>
   <stop offset="1" id="stop8204" stop-opacity="0.301961" stop-color="#80f5f5"/>
  </linearGradient>
  <clipPath clipPathUnits="userSpaceOnUse" id="clipoutline1">
   <path id="outline1" d="m22.42,17.200001l12.960001,12.949999l-2.5,8.780001l-8.780001,2.5l-12.96,-12.960001l-5.86,5.860003l14.89,21.459999l17.559999,-3.34l61.630001,65.619999c9.440002,9.51001 22.169998,-4.75 13.339996,-12.870003l-65.849998,-62.279999l4.010002,-17.759998l-22.140001,-14.27l-6.299999,6.31zm81.060011,91.96999c1.68,-1.68 4.399986,-1.68 6.079987,0c1.68,1.68 1.68,4.400009 0,6.080009c-1.68,1.669991 -4.399986,1.669991 -6.079987,0c-1.68,-1.68 -1.68,-4.400009 0,-6.080009z"/>
  </clipPath>
  <clipPath clipPathUnits="userSpaceOnUse" id="clipoutline2">
   <path id="outline2" d="m55.799999,12l0.760002,0.16c8.84,-2.94 28.679996,8.639999 24.259998,18.960001c-1.120003,1.620001 -0.93,4.499998 0.419998,6.309999l-24.809998,24.82c-1.389999,-1.389999 -4.48,-1.360001 -5.900002,0l-41.029999,39.379997c-3.74,3.590004 -0.8,6.639999 0.78,8.25l7.36,7.360001c1.610001,1.599998 5.860001,3.760002 8.880001,0.560005l38.719997,-40.810005c1.349998,-1.419998 1.360001,-4.470001 0,-5.869995c0,0 0.010002,-0.020004 0,-0.020004l24.910004,-24.899998c2.629997,2.369999 5.113815,2.574848 7.470001,1.93c4.550568,-1.24543 7.08725,3.206638 9.809998,6.459999l-1.230003,1.209999c-1.82,1.84 -1.649994,4.940002 0.389999,6.98c2.040001,2.040001 5.150002,2.209999 6.970001,0.389999l8.139999,-8.129997c1.82,-1.84 1.650002,-4.940002 -0.399994,-6.970001c-1.840004,-1.849998 -4.510002,-2.09 -6.370003,-0.77c-5.580002,-6.259998 -2.650002,-7.200001 -10.010002,-15.349998l-13.790001,-14.09c-9.93,-9.740001 -22.829994,-9.73 -35.329998,-5.860001z"/>
  </clipPath>
  <!-- -->
  <linearGradient xlink:href="#linearGradient8301" id="linearGradient6638" x1="-0.28892" y1="0.519823" x2="1.023691" y2="0.514471"/>
  <linearGradient xlink:href="#linearGradient8301" id="linearGradient6641" x1="2.006318" y1="0.502706" x2="-0.016148" y2="0.511336"/>
  <radialGradient xlink:href="#linearGradient8200" id="radialGradient6644" gradientUnits="userSpaceOnUse" gradientTransform="matrix(-1.3717424,1.6032171,-0.7071561,-0.6050509,1832.7848,-1919.0977)" cx="1227.3593" cy="63.768734" fx="1227.3593" fy="63.768734" r="55.412729"/>
 </defs>/* Specular Highlighting */
		.low-specularity	{opacity:0.25;}
		.specularity		{opacity:0.5;}
		.high-specularity	{opacity:0.75;}
		.full-specularity	{opacity:1;}

	/* Shading */
		.low-shade	{opacity:0.25;}
		.shade		{opacity:0.5;}
		.high-shade	{opacity:0.75;}
		.full-shade	{opacity:1;}

	/* Tango palette fill/stroke */
		.black		{fill:#000;}
		.aluminium1	{fill:#eeeeec;}
		.aluminium2	{fill:#d3d7cf;}
		.aluminium6	{fill:#2e3436;}
		.chocolate3	{fill:#8f5902;}
		.chocolate2	{fill:#c17d11;}
		.aluminium4	{fill:#888a85;}

	/* Shadows: Back-Shadows &amp; Base Shadows */
		.base-shadow	{opacity:0.4;}
		.outline-big	{stroke:black;stroke-width:8;opacity:0.25;stroke-linejoin:round;}
		.outline-small	{stroke:black;stroke-width:4;opacity:0.5;stroke-linejoin:round;}
		.stroke-highlight	{fill:none;stroke:white;stroke-opacity:0.2;stroke-width:4;stroke-linejoin:round;}
 <g>
  <title>Layer 1</title>
  <g id="layer3"/>
  <g id="layer2"/>
  <g id="svg_1">
   <path d="m3171.505371,219.088181l1463.477051,-12.011597c-181.767578,237.041641 -180.834473,425.626663 -179.436035,708.122086l13.994141,2826.48175c2.331543,471.080811 -362.37207,709.623779 -545.306152,711.125244c-182.93457,1.501465 -549.970459,-231.036133 -552.30249,-702.116211l-13.993896,-2826.482422c-1.397949,-282.495422 -2.332031,-471.079651 -186.432617,-705.118851z" id="path8208" stroke-dashoffset="0" stroke-miterlimit="4" marker-end="none" marker-mid="none" marker-start="none" stroke-linejoin="round" stroke-linecap="round" stroke-width="8" stroke="#000000" fill-rule="nonzero" fill="none" opacity="0.25"/>
   <path id="path8210" d="m3171.505371,219.088181l1463.477051,-12.011597c-181.767578,237.041641 -180.834473,425.626663 -179.436035,708.122086l13.994141,2826.48175c2.331543,471.080811 -362.37207,709.623779 -545.306152,711.125244c-182.93457,1.501465 -549.970459,-231.036133 -552.30249,-702.116211l-13.993896,-2826.482422c-1.397949,-282.495422 -2.332031,-471.079651 -186.432617,-705.118851z" stroke-dashoffset="0" stroke-miterlimit="4" marker-end="none" marker-mid="none" marker-start="none" stroke-linejoin="round" stroke-linecap="round" stroke-width="5.871697" fill-rule="nonzero" fill="#ffffff"/>
   <path d="m3177.901855,226.058716l1463.476074,-12.010895c-181.768555,237.041412 -180.834961,425.62735 -179.436035,708.121857l13.994141,2826.481445c2.330566,471.080811 -362.37207,709.625244 -545.306885,711.126221c-182.93457,1.501953 -549.96875,-231.037598 -552.30127,-702.118408l-13.993164,-2826.481628c-1.398926,-282.49469 -2.33252,-471.080139 -186.432861,-705.118591l0,0z" id="path8156" stroke-dashoffset="0" stroke-miterlimit="4" marker-end="none" marker-mid="none" marker-start="none" stroke-linejoin="round" stroke-linecap="round" stroke-width="5.871697" fill-rule="nonzero" fill="url(#radialGradient6644)"/>
   <g id="g3285" fill="#00ff00">
    <path id="path3287" d="m3374.269287,1590.319092c493.755371,-5.871216 543.380127,-4.77417 1070.334229,-26.930908l24.9375,2178.294678c2.332031,471.080811 -362.371582,709.622803 -545.305908,711.125244c-182.934326,1.501953 -549.970459,-231.036133 -552.30249,-702.117432c-12.718262,-934.026611 -1.103027,-1156.722168 2.33667,-2160.371582z" stroke-dashoffset="0" stroke-miterlimit="4" marker-end="none" marker-mid="none" marker-start="none" stroke-linejoin="round" stroke-linecap="round" stroke-width="3" fill-rule="nonzero" fill="#007f7f"/>
    <path id="path3289" d="m4437.766113,1161.419434l-457.987793,-11.04187" stroke-miterlimit="4" stroke-linecap="round" stroke-width="2.970638" fill-rule="evenodd" fill="#007f7f"/>
    <path d="m4431.587891,1873.743042l-457.987793,-11.042236" id="path3291" stroke-miterlimit="4" stroke-linecap="round" stroke-width="2.970638" fill-rule="evenodd" fill="#007f7f"/>
    <path id="path3293" d="m4435.052734,2573.491699l-457.988037,-11.041992" stroke-miterlimit="4" stroke-linecap="round" stroke-width="2.970638" fill-rule="evenodd" fill="#007f7f"/>
    <path d="m4438.516113,3273.240967l-457.988281,-11.043213" id="path3295" stroke-miterlimit="4" stroke-linecap="round" stroke-width="2.970638" fill-rule="evenodd" fill="#007f7f"/>
   </g>
   <path d="m3127.553223,174.29866c-17.830322,28.730865 -15.95874,70.150513 4.339844,96.024399c86.745605,110.27597 126.141846,201.917999 147.049072,301.641602c20.906738,99.723328 22.661133,211.106323 23.360107,352.354431l13.380859,2827.03418c1.284668,259.515137 105.391113,456.817139 230.289307,583.795654c124.897461,126.978027 268.76001,190.026855 378.848389,189.122559c110.087891,-0.90332 252.724121,-65.950684 376.354004,-194.96875c123.630859,-129.018066 225.327637,-328.235352 224.04248,-587.750488l-13.379883,-2827.034668c-0.700684,-141.247864 -1.146484,-252.019592 18.770996,-352.078369c19.918945,-100.058167 58.79541,-193.228973 144.442871,-304.919861c15.937988,-20.808731 20.584961,-51.731415 11.649414,-78.596878c-8.936523,-26.864258 -29.680664,-44.331314 -52.376465,-43.835754l-1462.686768,12.167465c-17.138916,-0.169357 -33.38916,9.800293 -44.084229,27.044479zm159.230225,116.133011l1233.01001,-10.718353c-45.798828,82.060181 -80.323242,163.548492 -96.81543,246.396423c-24.70752,124.118103 -23.834961,248.776001 -23.135254,390.024048l0.635254,172.973267l-419.372803,-10.948242c-19.176514,-0.850586 -37.351074,11.028931 -48.134766,31.464722c-11.913818,21.959595 -13.508057,50.016235 -3.908203,73.781616c9.599609,23.764771 28.804443,39.300171 49.60791,39.348022l422.397217,9.827637l3.279785,569.010498l-429.879395,-10.621948c-18.853271,-0.792236 -36.744385,10.718994 -47.570801,30.607178c-11.914551,21.959473 -13.508545,50.01709 -3.90918,73.781372c9.599854,23.765015 28.804443,39.299683 49.608887,39.347656l432.339844,10.358765l3.026855,555.481323l-429.880615,-10.621338c-19.17627,-0.85083 -37.351318,11.030029 -48.13501,31.464844c-11.913818,21.959229 -13.507813,50.01709 -3.908203,73.78125c9.599854,23.765381 28.804443,39.299805 49.608887,39.3479l432.339355,10.358398l3.129395,557.065186l-429.316162,-11.479492c-17.105469,-1.041748 -33.636719,8.074707 -44.853271,24.734863c-14.396729,21.418945 -17.901855,51.790771 -8.625244,77.475586c9.277588,25.68457 29.609375,41.900146 51.607178,41.525879l432.340332,10.359131l1.517578,397.752441c1.047363,211.565186 -78.479004,367.239502 -182.351563,475.637939c-103.871582,108.398926 -234.357666,162.252441 -307.205322,162.850098c-72.84668,0.598145 -203.79834,-51.664063 -308.734863,-158.348145c-104.937012,-106.685547 -186.771484,-261.148193 -187.819092,-472.712891l-13.944336,-2826.177185c-0.698975,-141.247498 -1.007324,-264.950012 -26.941895,-388.652466c-17.306152,-82.546387 -53.422607,-163.197754 -100.00708,-244.475983z" id="rect3162" stroke-dashoffset="0" stroke-miterlimit="4" stroke-linejoin="round" stroke-linecap="round" stroke-width="4" fill-rule="nonzero" fill="#000000" opacity="0.5"/>
   <path d="m4541.404297,282.941772c-45.796875,55.628571 -137.813965,181.436646 -133.602051,367.958191l-0.233887,3149.198669c-7.767578,209.49707 -101.574707,303.289063 -212.525879,384.223145c64.825684,-119.508057 74.489746,-322.726807 74.110352,-541.479004l22.059082,-3216.925629c-0.813965,-138.061279 147.54834,-134.064087 250.192383,-142.975372z" id="path8291" stroke-width="1px" fill-rule="evenodd" fill="url(#linearGradient6641)"/>
   <path id="path8321" d="m3300.789307,301.473145c60.55249,135.946106 100.901367,219.280212 117.732178,392.434143l14.655762,3116.105652c16.217773,209.154785 153.087158,489.789795 435.940186,548.231201c-155.349365,-115.640137 -105.893066,-371.02002 -102.289307,-589.932617l-10.210693,-3161.435425c-5.178467,-232.694183 -187.18457,-326.130005 -455.828125,-305.402954z" stroke-width="1px" fill-rule="evenodd" fill="url(#linearGradient6638)"/>
   <rect fill="#007f7f" stroke-width="1px" stroke-dasharray="null" opacity="0.5" x="183.249977" y="3673.474051" width="1876.411508" height="1069.679687" id="svg_2"/>
  </g>
 </g></svg>