<?xml version="1.0" encoding="utf-8"?>
<!-- Generator: Adobe Illustrator 18.1.0, SVG Export Plug-In . SVG Version: 6.00 Build 0)  -->
<svg version="1.1" baseProfile="tiny" id="Layer_1" xmlns="http://www.w3.org/2000/svg" xmlns:xlink="http://www.w3.org/1999/xlink"
	 x="0px" y="0px" viewBox="0 0 200 200" xml:space="preserve">
<g>
	<g>
		<g>
			<path fill="none" d="M4.369,119.656C4.337,119.656,4.369,119.656,4.369,119.656"/>
			<g>
				<path fill="#E5C7A1" d="M112.928,170.863c0.085-0.245,0.155-0.491,0.16-0.749c0.016-0.735-0.487-1.368-0.973-1.919
					c-0.215-0.243-0.43-0.632-0.191-0.853c0.121-0.112,0.305-0.111,0.47-0.104c1.364,0.061,2.731,0.104,4.095,0.184
					c0.924,0.054,0.662-0.018,0.809,0.727c0.041,0.209,0.311,1.583,0.59,1.583c0.381,0.647,0.646,1.321,0.639,2.091
					c-0.001,0.085-0.006,0.174-0.049,0.248c-0.157,0.27-0.606,0.056-0.697-0.242s-0.011-0.633-0.122-0.925
					c-0.033-0.087-0.09-0.174-0.179-0.202c-0.219-0.069-0.353,0.238-0.368,0.467c-0.041,0.608-0.006,1.221,0.103,1.821
					c0.034,0.187,0.074,0.381,0.02,0.563c-0.055,0.182-0.243,0.339-0.425,0.285c-0.203-0.06-0.261-0.318-0.269-0.529
					c-0.035-0.858,0.087-1.862-0.554-2.433c-0.132,0.089-0.148,0.274-0.152,0.433c-0.021,0.943-0.042,1.885-0.063,2.828
					c-0.299-0.062-0.504-0.353-0.573-0.65s-0.031-0.607-0.021-0.912c0.016-0.47-0.033-0.942-0.146-1.399
					c-0.067-0.274-0.343-0.606-0.559-0.425c0.005,1-0.031,2-0.11,2.997c-0.189,0.105-0.439-0.02-0.545-0.208
					c-0.106-0.188-0.107-0.416-0.105-0.632c0.004-0.514,0.009-1.028,0.013-1.542c0.002-0.257-0.127-0.62-0.371-0.539
					c-0.019,0.382-0.063,0.762-0.132,1.138c-0.028,0.153-0.084,0.333-0.233,0.377c-0.255,0.074-0.39-0.304-0.344-0.565
					C112.699,171.461,112.825,171.163,112.928,170.863z"/>
				<path fill="#E5C7A1" d="M76.678,170.863c-0.085-0.245-0.155-0.491-0.16-0.749c-0.016-0.735,0.487-1.368,0.973-1.919
					c0.215-0.243,0.43-0.632,0.191-0.853c-0.121-0.112-0.305-0.111-0.47-0.104c-1.364,0.061-2.731,0.104-4.095,0.184
					c-0.924,0.054-0.662-0.018-0.809,0.727c-0.041,0.209-0.311,1.583-0.59,1.583c-0.381,0.647-0.646,1.321-0.639,2.091
					c0.001,0.085,0.006,0.174,0.049,0.248c0.157,0.27,0.606,0.056,0.697-0.242s0.011-0.633,0.122-0.925
					c0.033-0.087,0.09-0.174,0.179-0.202c0.219-0.069,0.353,0.238,0.368,0.467c0.041,0.608,0.006,1.221-0.103,1.821
					c-0.034,0.187-0.074,0.381-0.02,0.563c0.055,0.182,0.243,0.339,0.425,0.285c0.203-0.06,0.261-0.318,0.269-0.529
					c0.035-0.858-0.087-1.862,0.554-2.433c0.132,0.089,0.148,0.274,0.152,0.433c0.021,0.943,0.042,1.885,0.063,2.828
					c0.299-0.062,0.504-0.353,0.573-0.65c0.069-0.297,0.031-0.607,0.021-0.912c-0.016-0.47,0.033-0.942,0.146-1.399
					c0.067-0.274,0.343-0.606,0.559-0.425c-0.005,1,0.031,2,0.11,2.997c0.189,0.105,0.439-0.02,0.545-0.208
					c0.106-0.188,0.107-0.416,0.105-0.632c-0.004-0.514-0.009-1.028-0.013-1.542c-0.002-0.257,0.127-0.62,0.371-0.539
					c0.019,0.382,0.063,0.762,0.132,1.138c0.028,0.153,0.084,0.333,0.233,0.377c0.255,0.074,0.39-0.304,0.344-0.565
					C76.907,171.461,76.782,171.163,76.678,170.863z"/>
				<path fill="#B58D61" d="M118.121,112.131c-0.541-0.655-1.418-1.292-2.197-1.511c-0.089-1.766-2.011-2.584-3.293-3.427
					c-3.777-2.481-5.174-7.544-8.889-10.117c-1.569-1.087-3.44-1.644-5.298-2.083c-4.424-1.047-8.982-1.523-13.527-1.414
					c-1.802,0.043-3.661,0.194-5.26,1.026c-3.042,1.582-4.385,5.159-5.281,8.469c-0.838,3.099-1.736,5.732-3.565,8.376
					c-0.642,0.928-1.31,1.374-1.061,2.664c0.139,0.719,2.19,2.22,2.185,1.982c0.118,6.401,6.347,12.205,11.615,15.05
					c0.72,0.389,1.463,0.739,2.242,0.988c1.632,0.52,4.218,0.677,5.547,1.875c0.614,0.554,0.514,1.316,0.967,1.89
					c0.902,1.142,1.193,0.978,2.825,0.957c0.283-0.004,0.584-0.012,0.821-0.168c1.396-0.917-0.415-3.175,1.851-4.179
					c0.815-0.361,1.974-0.295,2.857-0.614c3.868-1.393,7.634-3.12,10.611-5.935c0.566-0.535,1.126-1.086,1.564-1.73
					c2.045-3.013,1.895-6.699,5.119-8.992C118.402,114.237,118.819,112.976,118.121,112.131z"/>
				<path fill="#754C24" d="M85.975,84.178c-2.756,0.684-5.3,2.062-7.612,3.711c-1.591,1.135-3.101,2.42-4.249,4.001
					c-1.168,1.609-1.928,3.474-2.609,5.341c-1.764,4.836-3.096,10.021-2.274,15.102c0.497-0.033,0.994-0.065,1.491-0.098
					c1.228-1.352,2.202-2.934,2.856-4.64c0.729-1.902,1.059-3.938,1.783-5.842c0.613-1.612,1.507-3.117,2.631-4.426
					c3.011-3.509,7.442-2.206,10.617,0.428c1.026,0.852,1.854,2.009,2.965,2.709c1.179,0.744,2.674,1.22,3.923,1.881
					c2.785,1.474,5.493,3.17,7.688,5.457c1.515,1.579,2.737,4.766,4.604,5.693c2.043,1.014,6.535,2.013,8.752,1.066
					c2.564-1.095,2.32-6.83,2.386-9.145c0.13-4.578-0.683-9.368-3.414-13.044c-1.233-1.66-2.81-3.032-4.428-4.32
					c-1.786-1.421-3.658-2.767-5.754-3.67C99.345,81.806,92.109,82.655,85.975,84.178z"/>
				<path d="M74.61,152.921c-0.078,5.35-1.498,10.603-2.91,15.802c2.067,0.172,4.119,0.488,6.132,0.945
					c-0.379-0.086,2.224-15.946,2.932-17.189c0.197-0.346,0.776-0.474,0.978-0.131c0.077,0.131,0.079,0.292,0.079,0.444
					c-0.009,5.67-0.018,11.34-0.027,17.01c-0.001,0.802-0.078,1.764,0.18,2.536c0.434,1.299,0.264,0.893,1.195,0.968
					c0.846,0.068,2.177-0.296,3.122-0.314c2.597-0.049,5.195-0.095,7.793-0.126c0.759-0.009,11.059-0.349,11.096,0.223
					c-0.233-3.704,1.248-7.645,1.713-11.374c0.261-2.092,0.447-4.194,0.558-6.299c0.094-1.779,0.549-4.235,0.112-5.967
					c0.889,3.52,1.778,7.04,2.667,10.56c0.8,3.168,1.603,6.356,1.777,9.601c1.833-0.266,3.646-0.649,5.419-1.144
					c-1.374-5.319-2.293-10.723-3.152-16.128c-0.433-2.721-0.858-5.472-1.955-8.039c-1.097-2.568-2.945-4.975-5.619-6.33
					c-1.041-0.527-2.179-0.883-3.328-1.181c-5.631-1.462-11.696-1.453-17.443-0.72c-0.792,0.101-1.587,0.202-2.359,0.392
					c-2.445,0.6-4.565,2.084-5.984,3.963C74.765,144.152,74.673,148.626,74.61,152.921z"/>
				<path fill="#FFFFFF" d="M96.403,135.703c-1.889-0.436-3.891-0.479-5.801-0.123c0.827,0.517,1.12,1.475,1.337,2.357
					c1.591,6.474,2.173,13.108,2.751,19.716c-0.216-7.086,2.176-14.051,2.335-21.138c0.005-0.22-0.003-0.464-0.173-0.622
					C96.736,135.785,96.566,135.741,96.403,135.703z"/>
				<g>
					<circle cx="83.912" cy="114.207" r="2.135"/>
					<path fill="#FFFFFF" d="M83.962,113.247c-0.488,0.041-0.959,0.297-1.24,0.698s-0.358,0.944-0.179,1.399
						c-0.225-0.64-0.154-1.394,0.247-1.941c0.33-0.45,1.223-0.948,1.8-0.75c0.13,0.045,0.245,0.167,0.235,0.304
						C84.806,113.261,84.155,113.231,83.962,113.247z"/>
				</g>
				<path fill="#754C24" d="M92.593,119.152c0.014,0.011-0.208-0.261-0.079-0.738c0.06-0.228,0.207-0.482,0.448-0.681
					c0.122-0.095,0.262-0.191,0.425-0.245c0.177-0.052,0.314-0.086,0.554-0.083c0.085,0.005,0.351,0.058,0.489,0.123
					c0.16,0.065,0.291,0.173,0.406,0.276c0.226,0.216,0.353,0.482,0.395,0.714c0.092,0.483-0.152,0.739-0.137,0.73
					c0,0-0.139-0.276-0.38-0.479c-0.123-0.103-0.265-0.195-0.411-0.264c-0.072-0.038-0.153-0.048-0.22-0.076
					c-0.093-0.021-0.072-0.02-0.237-0.029c-0.01-0.002-0.122-0.002-0.181,0.013c-0.07,0.022-0.152,0.027-0.226,0.059
					c-0.152,0.057-0.3,0.139-0.431,0.232C92.752,118.885,92.593,119.152,92.593,119.152z"/>
				<path fill="none" stroke="#754C24" stroke-miterlimit="10" d="M95.913,126.64c1.716,0.554,3.734,0.009,4.938-1.334"/>
				<g>
					<circle cx="102.116" cy="113.918" r="2.135"/>
					<path fill="#FFFFFF" d="M102.065,112.958c0.488,0.041,0.959,0.297,1.24,0.698c0.281,0.401,0.358,0.944,0.179,1.399
						c0.225-0.64,0.154-1.394-0.247-1.941c-0.33-0.45-1.223-0.948-1.8-0.75c-0.13,0.045-0.245,0.167-0.235,0.304
						C101.221,112.972,101.872,112.942,102.065,112.958z"/>
				</g>
			</g>
		</g>
		<rect x="70.137" y="146.046" fill="#666666" width="51.551" height="54.168"/>
		<rect x="60.429" y="146.046" fill="#B3B3B3" width="69.157" height="31.027"/>
	</g>
	<polygon points="64.107,147 84.126,129.933 86.001,131.033 67.985,147 	"/>
	<path d="M93.438,134.196H83.346c-0.863,0-1.569-0.706-1.569-1.569v-4.976c0-0.863,0.706-1.569,1.569-1.569h10.093
		c0.863,0,1.569,0.706,1.569,1.569v4.976C95.008,133.49,94.302,134.196,93.438,134.196z"/>
	<g>
		<path fill="#FFFF00" d="M94.998,28.224c0.61,0,1.221,0,1.831,0c0.105,0.022,0.21,0.052,0.316,0.066
			c0.638,0.085,1.285,0.125,1.913,0.258c3.826,0.809,6.957,2.755,9.368,5.832c1.578,2.013,2.608,4.284,3.053,6.809
			c0.12,0.679,0.194,1.365,0.29,2.048c0,0.537,0,1.074,0,1.611c-0.091,0.537-0.166,1.076-0.276,1.609
			c-0.483,2.348-1.477,4.487-2.699,6.531c-1.142,1.909-2.32,3.798-3.403,5.739c-1.059,1.898-1.781,3.929-2.055,6.103
			c-0.115,0.914-0.713,1.415-1.644,1.418c-1.501,0.005-3.001,0.001-4.502,0.001c-2.281,0-4.563,0.004-6.844-0.002
			c-0.895-0.002-1.42-0.456-1.586-1.34c-0.038-0.203-0.073-0.406-0.107-0.61c-0.3-1.804-0.928-3.501-1.835-5.074
			c-1.171-2.032-2.426-4.017-3.65-6.019c-1.242-2.032-2.251-4.164-2.783-6.498c-0.14-0.612-0.219-1.239-0.326-1.859
			c0-0.537,0-1.074,0-1.611c0.023-0.129,0.05-0.258,0.067-0.388c0.086-0.637,0.129-1.284,0.261-1.912
			c0.801-3.813,2.737-6.935,5.795-9.347c2.02-1.593,4.301-2.632,6.84-3.079C93.677,28.396,94.339,28.319,94.998,28.224z"/>
		<path d="M93.387,75.093c-0.527-0.231-0.969-0.537-1.115-1.148c-0.016-0.068-0.207-0.132-0.318-0.134
			c-0.768-0.014-1.536-0.006-2.304-0.015c-0.418-0.005-0.718-0.217-0.89-0.591c-0.178-0.386-0.157-0.792,0.144-1.084
			c0.2-0.194,0.516-0.378,0.782-0.38c4.109-0.024,8.218-0.019,12.328-0.014c0.573,0.001,1.022,0.453,1.04,1.011
			c0.018,0.56-0.403,1.032-0.986,1.053c-0.694,0.025-1.39,0.011-2.085,0.014c-0.131,0-0.263,0-0.406,0
			c-0.115,0.692-0.564,1.047-1.137,1.289C96.755,75.093,95.071,75.093,93.387,75.093z"/>
		<path d="M95.867,70.113c-2.026,0-4.052,0.004-6.078-0.002c-0.794-0.002-1.288-0.633-1.086-1.362
			c0.123-0.444,0.561-0.741,1.132-0.749c0.561-0.008,1.123-0.002,1.684-0.002c3.417,0,6.835,0,10.252,0
			c0.506,0,0.948,0.124,1.18,0.627c0.333,0.722-0.174,1.48-1.006,1.486c-1.379,0.011-2.758,0.003-4.137,0.003
			C97.161,70.113,96.514,70.113,95.867,70.113z"/>
		<line fill="none" stroke="#FFFF00" stroke-miterlimit="10" x1="118" y1="47.5" x2="145" y2="47.5"/>
		<line fill="none" stroke="#FFFF00" stroke-miterlimit="10" x1="116.474" y1="34.995" x2="135.248" y2="25.409"/>
		<line fill="none" stroke="#FFFF00" stroke-miterlimit="10" x1="110.076" y1="25.409" x2="117.35" y2="12.007"/>
		<line fill="none" stroke="#FFFF00" stroke-miterlimit="10" x1="92.5" y1="21" x2="92.5" y2="1"/>
		<line fill="none" x1="77.786" y1="21.509" x2="68.982" y2="16.123"/>
		<line fill="none" stroke="#FFFF00" stroke-miterlimit="10" x1="83.154" y1="28.435" x2="62.432" y2="16.953"/>
		<line fill="none" stroke="#FFFF00" stroke-miterlimit="10" x1="74.285" y1="42.624" x2="57.643" y2="44.652"/>
	</g>
</g>
</svg>
