<?xml version="1.0" encoding="UTF-8" standalone="no"?>
<!-- Created with Inkscape (http://www.inkscape.org/) -->
<svg
   xmlns:dc="http://purl.org/dc/elements/1.1/"
   xmlns:cc="http://web.resource.org/cc/"
   xmlns:rdf="http://www.w3.org/1999/02/22-rdf-syntax-ns#"
   xmlns:svg="http://www.w3.org/2000/svg"
   xmlns="http://www.w3.org/2000/svg"
   xmlns:sodipodi="http://inkscape.sourceforge.net/DTD/sodipodi-0.dtd"
   xmlns:inkscape="http://www.inkscape.org/namespaces/inkscape"
   width="1053"
   height="405"
   id="svg2"
   sodipodi:version="0.32"
   inkscape:version="0.43"
   version="1.0"
   sodipodi:docbase="C:\Backups from C\Eigene Bilder\Phonology"
   sodipodi:docname="A-umlaut.svg">
  <defs
     id="defs4" />
  <sodipodi:namedview
     id="base"
     pagecolor="#ffffff"
     bordercolor="#666666"
     borderopacity="1.0"
     inkscape:pageopacity="0.0"
     inkscape:pageshadow="2"
     inkscape:zoom="1.0764762"
     inkscape:cx="526.18109"
     inkscape:cy="372.04724"
     inkscape:document-units="px"
     inkscape:current-layer="layer1"
     inkscape:window-width="1280"
     inkscape:window-height="968"
     inkscape:window-x="-4"
     inkscape:window-y="-4" />
  <metadata
     id="metadata7">
    <rdf:RDF>
      <cc:Work
         rdf:about="">
        <dc:format>image/svg+xml</dc:format>
        <dc:type
           rdf:resource="http://purl.org/dc/dcmitype/StillImage" />
      </cc:Work>
    </rdf:RDF>
  </metadata>
  <g
     inkscape:label="Layer 1"
     inkscape:groupmode="layer"
     id="layer1">
    <path
       transform="matrix(3.012052,0,0,3.012052,-7.895695,-41.9385)"
       style="font-size:144px;font-style:normal;font-variant:normal;font-weight:normal;font-stretch:normal;text-align:start;line-height:125%;writing-mode:lr-tb;text-anchor:start;font-family:Helvetica"
       d="M 4.8828125,146.47293 L 43.90625,43.113555 L 51.851563,43.113555 L 59.867188,43.113555 L 96.992188,146.47293 L 96.992188,146.47293 L 89.46875,146.47293 L 81.945313,146.47293 L 81.945313,146.47293 L 71.46875,116.5198 L 71.46875,116.5198 L 30.125,116.5198 L 30.125,116.5198 L 19.296875,146.47293 L 19.296875,146.47293 L 12.125,146.47293 L 4.8828125,146.47293 L 4.8828125,146.47293 M 51.21875,58.301055 L 34.625,104.1448 L 34.625,104.1448 L 67.179688,104.1448 L 67.179688,104.1448 L 51.21875,58.301055 L 51.21875,58.301055 L 51.21875,58.301055 M 33.640625,16.605742 L 46.71875,16.605742 L 46.71875,31.371367 L 33.640625,31.371367 L 33.640625,16.605742 M 56.984375,16.605742 L 70.0625,16.605742 L 70.0625,31.371367 L 56.984375,31.371367 L 56.984375,16.605742 M 128.21094,148.51199 C 120.85154,148.51199 115.01561,146.54324 110.70313,142.60574 C 106.39062,138.66825 104.23437,133.34794 104.23438,126.6448 C 104.23437,119.89483 106.24999,114.52765 110.28125,110.54324 C 114.35936,106.55891 120.28904,104.07453 128.07031,103.09012 L 145.29688,100.91043 C 146.70308,100.76985 148.03901,100.53548 149.30469,100.2073 C 150.94526,99.785477 152.21088,98.941727 153.10156,97.676055 C 153.99213,96.41048 154.43744,94.816732 154.4375,92.894805 L 154.4375,92.261992 C 154.43744,88.230801 152.91401,85.090179 149.86719,82.840117 C 146.82026,80.543308 142.57808,79.394872 137.14063,79.394805 C 131.93747,79.394872 127.85935,80.613621 124.90625,83.051055 C 121.99998,85.441741 120.24217,89.027675 119.63281,93.808867 L 119.63281,93.808867 L 107.96094,93.808867 L 107.96094,93.808867 C 108.5703,85.558928 111.47655,79.371435 116.67969,75.246367 C 121.88279,71.074568 129.33591,68.988632 139.03906,68.988555 C 148.17964,68.988632 155.14057,70.980818 159.92188,74.965117 C 164.70306,78.902685 167.09368,84.668304 167.09375,92.261992 L 167.09375,133.60574 C 167.09368,134.87138 167.46868,135.90263 168.21875,136.69949 C 169.01556,137.4495 170.07024,137.8245 171.38281,137.82449 C 171.75774,137.8245 172.2968,137.77763 173,137.68387 C 173.74993,137.59013 174.5468,137.4495 175.39063,137.26199 L 175.39063,146.40262 C 174.1718,146.87137 172.88274,147.24637 171.52344,147.52762 C 170.16399,147.80887 169.01556,147.94949 168.07813,147.94949 C 163.29681,147.94949 159.82806,146.63699 157.67188,144.01199 C 156.26557,142.27762 155.25776,139.81669 154.64844,136.62918 L 154.64844,136.62918 C 153.71088,137.80106 152.63276,138.92606 151.41406,140.00418 C 145.08589,145.67606 137.35152,148.51199 128.21094,148.51199 M 154.4375,116.66043 L 154.4375,108.50418 L 154.4375,108.50418 C 152.0937,109.62922 149.49214,110.40265 146.63281,110.82449 L 135.03125,112.51199 C 128.93747,113.35578 124.48435,114.78546 121.67188,116.80105 C 118.85936,118.76983 117.45311,121.46514 117.45313,124.88699 C 117.45311,129.10576 118.60154,132.36357 120.89844,134.66043 C 123.19529,136.91044 126.4531,138.03544 130.67188,138.03543 C 137.32809,138.03544 142.95308,136.23075 147.54688,132.62137 C 150.68745,130.09013 152.77338,127.23076 153.80469,124.04324 C 153.99213,123.43389 154.13276,122.47295 154.22656,121.16043 C 154.36713,119.80108 154.43744,118.30108 154.4375,116.66043 M 119.35156,44.730742 L 132.42969,44.730742 L 132.42969,59.496367 L 119.35156,59.496367 L 119.35156,44.730742 M 142.69531,44.730742 L 155.77344,44.730742 L 155.77344,59.496367 L 142.69531,59.496367 L 142.69531,44.730742"
       id="flowRoot1307" />
    <path
       transform="matrix(3.117769,0,0,3.117769,520.3208,-37.574)"
       style="font-size:144px;font-style:normal;font-variant:normal;font-weight:normal;font-stretch:normal;text-align:start;line-height:125%;writing-mode:lr-tb;text-anchor:start;font-family:Times New Roman"
       d="M 68.726563,108.81857 L 31.8125,108.81857 L 25.34375,123.86545 C 23.749979,127.56858 22.953105,130.33421 22.953125,132.16232 C 22.953105,133.61545 23.632792,134.90451 24.992188,136.02951 C 26.398414,137.10764 29.398411,137.81076 33.992188,138.13888 L 33.992188,140.74045 L 3.96875,140.74045 L 3.96875,138.13888 C 7.9531199,137.43576 10.531242,136.5217 11.703125,135.3967 C 14.093739,133.1467 16.742174,128.5764 19.648438,121.68576 L 53.1875,43.217008 L 55.648438,43.217008 L 88.835938,122.52951 C 91.507724,128.90452 93.921784,133.05295 96.078125,134.97482 C 98.281155,136.84982 101.32803,137.90451 105.21875,138.13888 L 105.21875,140.74045 L 67.601563,140.74045 L 67.601563,138.13888 C 71.398369,137.95139 73.953054,137.31857 75.265625,136.24045 C 76.624926,135.16233 77.304613,133.84983 77.304688,132.30295 C 77.304613,130.24046 76.367114,126.98265 74.492188,122.52951 L 68.726563,108.81857 M 66.757813,103.61545 L 50.585938,65.084196 L 33.992188,103.61545 L 66.757813,103.61545 M 66.898438,20.646696 C 69.007746,20.646816 70.788995,21.396815 72.242188,22.896696 C 73.742117,24.396812 74.492116,26.201498 74.492188,28.310758 C 74.492116,30.420244 73.742117,32.224929 72.242188,33.724821 C 70.788995,35.178051 69.007746,35.904613 66.898438,35.904508 C 64.789001,35.904613 62.984315,35.178051 61.484375,33.724821 C 59.984318,32.224929 59.234319,30.420244 59.234375,28.310758 C 59.234319,26.201498 59.984318,24.396812 61.484375,22.896696 C 62.984315,21.396815 64.789001,20.646816 66.898438,20.646696 M 42.078125,20.646696 C 44.234334,20.646816 46.039019,21.396815 47.492188,22.896696 C 48.992141,24.396812 49.742141,26.201498 49.742188,28.310758 C 49.742141,30.420244 48.992141,32.224929 47.492188,33.724821 C 45.992144,35.178051 44.210896,35.904613 42.148438,35.904508 C 40.039025,35.904613 38.23434,35.178051 36.734375,33.724821 C 35.234343,32.224929 34.484343,30.420244 34.484375,28.310758 C 34.484343,26.201498 35.210905,24.396812 36.664063,22.896696 C 38.164027,21.396815 39.968713,20.646816 42.078125,20.646696 M 147.89844,131.4592 C 141.28903,136.56858 137.14059,139.5217 135.45313,140.31857 C 132.92185,141.49045 130.22654,142.07638 127.36719,142.07638 C 122.91405,142.07638 119.23436,140.55295 116.32813,137.50607 C 113.46874,134.4592 112.03906,130.45139 112.03906,125.48263 C 112.03906,122.34203 112.74218,119.62328 114.14844,117.32638 C 116.0703,114.13891 119.39843,111.13891 124.13281,108.32638 C 128.91404,105.51392 136.83591,102.09205 147.89844,98.060758 L 147.89844,95.529508 C 147.8984,89.107685 146.86715,84.701439 144.80469,82.310758 C 142.78903,79.920194 139.8359,78.724883 135.94531,78.724821 C 132.99216,78.724883 130.64841,79.521757 128.91406,81.115446 C 127.13279,82.709254 126.24217,84.537377 126.24219,86.599821 L 126.38281,90.677946 C 126.38279,92.834244 125.82029,94.498305 124.69531,95.670133 C 123.61717,96.842052 122.18748,97.427989 120.40625,97.427946 C 118.67186,97.427989 117.24218,96.818615 116.11719,95.599821 C 115.03905,94.381117 114.49999,92.717056 114.5,90.607633 C 114.49999,86.576438 116.56249,82.873316 120.6875,79.498258 C 124.81248,76.123323 130.60154,74.435825 138.05469,74.435758 C 143.7734,74.435825 148.4609,75.396761 152.11719,77.318571 C 154.88276,78.771758 156.92182,81.045193 158.23438,84.138883 C 159.07807,86.154563 159.49995,90.279559 159.5,96.513883 L 159.5,118.38107 C 159.49995,124.52171 159.61713,128.29515 159.85156,129.70138 C 160.08588,131.06077 160.46088,131.97483 160.97656,132.44357 C 161.53901,132.91233 162.17182,133.1467 162.875,133.1467 C 163.62494,133.1467 164.28119,132.98264 164.84375,132.65451 C 165.82807,132.04514 167.7265,130.33421 170.53906,127.5217 L 170.53906,131.4592 C 165.289,138.49045 160.27338,142.00607 155.49219,142.00607 C 153.19527,142.00607 151.36714,141.2092 150.00781,139.61545 C 148.6484,138.0217 147.94527,135.30295 147.89844,131.4592 M 147.89844,126.88888 L 147.89844,102.34982 C 140.82028,105.16236 136.24997,107.15454 134.1875,108.32638 C 130.48435,110.38891 127.83592,112.54516 126.24219,114.79513 C 124.64842,117.04516 123.85155,119.50609 123.85156,122.17795 C 123.85155,125.55296 124.85936,128.36546 126.875,130.61545 C 128.8906,132.81858 131.21091,133.92014 133.83594,133.92013 C 137.39841,133.92014 142.0859,131.57639 147.89844,126.88888 M 151.48438,46.732633 C 153.5937,46.732727 155.37495,47.482727 156.82813,48.982633 C 158.32807,50.482724 159.07807,52.287409 159.07813,54.396696 C 159.07807,56.506155 158.32807,58.310841 156.82813,59.810758 C 155.37495,61.263963 153.5937,61.990525 151.48438,61.990446 C 149.37496,61.990525 147.57027,61.263963 146.07031,59.810758 C 144.57027,58.310841 143.82028,56.506155 143.82031,54.396696 C 143.82028,52.287409 144.57027,50.482724 146.07031,48.982633 C 147.57027,47.482727 149.37496,46.732727 151.48438,46.732633 M 126.66406,46.732633 C 128.82029,46.732727 130.62498,47.482727 132.07813,48.982633 C 133.5781,50.482724 134.3281,52.287409 134.32813,54.396696 C 134.3281,56.506155 133.5781,58.310841 132.07813,59.810758 C 130.5781,61.263963 128.79685,61.990525 126.73438,61.990446 C 124.62498,61.990525 122.8203,61.263963 121.32031,59.810758 C 119.8203,58.310841 119.0703,56.506155 119.07031,54.396696 C 119.0703,52.287409 119.79686,50.482724 121.25,48.982633 C 122.74998,47.482727 124.55467,46.732727 126.66406,46.732633"
       id="flowRoot1315" />
  </g>
</svg>
