<?xml version="1.0" encoding="utf-8"?>
<!-- Generator: Adobe Illustrator 19.2.1, SVG Export Plug-In . SVG Version: 6.00 Build 0)  -->
<svg version="1.0" id="Layer_1" xmlns="http://www.w3.org/2000/svg" xmlns:xlink="http://www.w3.org/1999/xlink" x="0px" y="0px"
	 viewBox="0 0 155 200" enable-background="new 0 0 155 200" xml:space="preserve">
<g>
	<g>
		<path fill="#00C86F" d="M54.532,138.233c1.534,1.05,3.634-0.081,3.634-1.938V61.767L7.458,88.898
			c-7.429,3.957-7.752,14.373-0.727,18.894L54.532,138.233z"/>
	</g>
	<g>
		<path fill="#CECECE" d="M144.079,193.14L144.079,193.14c-2.584,4.683-9.366,4.683-11.95,0l0,0V22.363h11.95V193.14z"/>
		<path fill="#666E72" d="M138.104,198.227L138.104,198.227c-3.068,0-5.814-1.615-7.348-4.36l-0.161-0.323V20.748h15.019v172.714
			l-0.161,0.323C143.917,196.612,141.172,198.227,138.104,198.227z M133.663,192.736c0.969,1.534,2.584,2.422,4.441,2.422
			s3.472-0.888,4.441-2.422V23.897h-8.882V192.736z"/>
	</g>
	<g>
		<circle fill="#FFFFFF" cx="138.104" cy="18.568" r="15.261"/>
		<path fill="#666E72" d="M138.104,35.363c-9.286,0-16.795-7.59-16.795-16.795s7.59-16.795,16.795-16.795s16.795,7.59,16.795,16.795
			S147.389,35.363,138.104,35.363z M138.104,4.842c-7.59,0-13.727,6.137-13.727,13.727s6.137,13.727,13.727,13.727
			s13.727-6.137,13.727-13.727S145.613,4.842,138.104,4.842z"/>
	</g>
	<g>
		<path fill="#00C86F" d="M57.843,135.811c0-16.634,11.143-17.199,17.925-17.199h56.199V44.568H76.414
			c-10.335,0-18.491,4.037-18.491,17.199v74.043H57.843z"/>
	</g>
	<g>
		<g>
			<g>
				<path fill="#02BC63" d="M58.812,78.401h-2.019c0-11.87,6.783-18.168,19.621-18.168h55.391v2.019H76.414
					C64.545,62.171,58.812,67.5,58.812,78.401z"/>
			</g>
			<g>
				<path fill="#02BC63" d="M58.812,93.016h-2.019c0-11.87,6.783-18.168,19.621-18.168h55.391v2.019H76.414
					C64.545,76.786,58.812,82.115,58.812,93.016z"/>
			</g>
			<g>
				<path fill="#02BC63" d="M58.812,106.258h-2.019c0-11.87,6.783-18.168,19.621-18.168h55.391v2.019H76.414
					C64.545,90.028,58.812,95.357,58.812,106.258z"/>
			</g>
			<g>
				<path fill="#02BC63" d="M58.812,122.165h-2.019c0-11.87,6.783-18.168,19.621-18.168h55.391v2.019H76.414
					C64.545,106.016,58.812,111.264,58.812,122.165z"/>
			</g>
		</g>
		<g>
			<g>
				<rect x="27.483" y="77.432" fill="#02BC63" width="29.876" height="2.019"/>
			</g>
			<g>
				<rect x="3.582" y="92.047" fill="#02BC63" width="53.776" height="2.019"/>
			</g>
			<g>
				<rect x="5.601" y="106.661" fill="#02BC63" width="51.838" height="2.019"/>
			</g>
			<g>
				<rect x="29.501" y="121.276" fill="#02BC63" width="27.857" height="2.019"/>
			</g>
		</g>
	</g>
	<g>
		<path fill="#666E72" d="M55.501,139.929c-0.727,0-1.373-0.242-2.019-0.646l-47.72-30.36c-3.714-2.342-5.814-6.379-5.652-10.82
			s2.584-8.317,6.46-10.335l52.646-28.18v76.708c0,1.373-0.727,2.584-1.938,3.23C56.712,139.767,56.147,139.929,55.501,139.929z
			 M56.551,63.947L7.781,90.028c-3.068,1.615-4.925,4.683-5.087,8.155c-0.161,3.472,1.534,6.621,4.441,8.478l47.801,30.36
			c0.484,0.323,0.888,0.161,1.05,0.081c0.161-0.081,0.565-0.323,0.565-0.888L56.551,63.947L56.551,63.947z"/>
	</g>
	<g>
		<path fill="#666E72" d="M59.216,135.811h-2.665V61.767c0-12.112,6.863-18.491,19.863-18.491h56.845v76.708H75.768
			C69.955,119.984,59.216,119.984,59.216,135.811z M76.414,45.86c-11.547,0-17.199,5.168-17.199,15.907v62.578
			c4.199-7.025,12.435-7.025,16.553-7.025h54.826V45.86H76.414z"/>
	</g>
	<g>
		<g>
			<g>
				<path fill="#FC9D9A" d="M109.405,94.444l-12.193-2.099c-0.161,0-0.323,0-0.404,0l-12.193,2.099
					c-0.727,0.161-1.453-0.484-1.453-1.211V75.711h27.696v17.522C110.859,93.96,110.132,94.606,109.405,94.444z"/>
			</g>
			<g>
				<path fill="#666E72" d="M122.082,76.922H71.859c-0.646,0-1.211-0.565-1.211-1.211s0.565-1.211,1.211-1.211h50.224
					c0.646,0,1.211,0.565,1.211,1.211S122.728,76.922,122.082,76.922z"/>
			</g>
			<g>
				<path fill="#666E72" d="M109.567,95.655c-0.161,0-0.242,0-0.404,0l0,0l-12.193-2.099l-12.193,2.099
					c-0.727,0.161-1.453-0.081-2.019-0.565c-0.565-0.484-0.888-1.13-0.888-1.857V74.5h30.118v18.733
					c0,0.727-0.323,1.373-0.888,1.857C110.697,95.494,110.213,95.655,109.567,95.655z M109.567,93.233L109.567,93.233
					L109.567,93.233V76.922H84.294v16.311l12.193-2.099c0.242-0.081,0.565-0.081,0.807,0L109.567,93.233L109.567,93.233z"/>
			</g>
			<g>
				<path fill="#666E72" d="M116.996,85.966c-0.646,0-1.211-0.565-1.211-1.211v-8.963c0-0.646,0.565-1.211,1.211-1.211
					c0.646,0,1.211,0.565,1.211,1.211v8.882C118.207,85.401,117.722,85.966,116.996,85.966z"/>
			</g>
			<g>
				<circle fill="#666E72" cx="116.996" cy="84.674" r="3.472"/>
			</g>
			<g>
				<path fill="#666E72" d="M115.219,92.425c-0.323,0-0.646-0.242-0.646-0.646v-7.106c0-0.323,0.242-0.646,0.646-0.646
					c0.404,0,0.646,0.242,0.646,0.646v7.106C115.784,92.183,115.542,92.425,115.219,92.425z"/>
			</g>
			<g>
				<path fill="#666E72" d="M116.996,92.425c-0.323,0-0.646-0.242-0.646-0.646v-7.106c0-0.323,0.242-0.646,0.646-0.646
					c0.404,0,0.646,0.242,0.646,0.646v7.106C117.641,92.183,117.318,92.425,116.996,92.425z"/>
			</g>
			<g>
				<path fill="#666E72" d="M118.853,92.425c-0.323,0-0.646-0.242-0.646-0.646v-7.106c0-0.323,0.242-0.646,0.646-0.646
					c0.404,0,0.646,0.242,0.646,0.646v7.106C119.418,92.183,119.176,92.425,118.853,92.425z"/>
			</g>
		</g>
	</g>
</g>
<g>
	<path fill="#CECECE" d="M1326.4,255.8L1326.4,255.8c-3.2,5.8-11.6,5.8-14.8,0l0,0V44.3h14.8V255.8z"/>
	<path fill="#666E72" d="M1319,262.1L1319,262.1c-3.8,0-7.2-2-9.1-5.4l-0.2-0.4v-214h18.6v213.9l-0.2,0.4
		C1326.2,260.1,1322.8,262.1,1319,262.1z M1313.5,255.3c1.2,1.9,3.2,3,5.5,3s4.3-1.1,5.5-3V46.2h-11V255.3z"/>
</g>
<g>
	<circle fill="#FFFFFF" cx="1319" cy="39.6" r="18.9"/>
	<path fill="#666E72" d="M1319,60.4c-11.5,0-20.8-9.4-20.8-20.8s9.4-20.8,20.8-20.8s20.8,9.4,20.8,20.8S1330.5,60.4,1319,60.4z
		 M1319,22.6c-9.4,0-17,7.6-17,17s7.6,17,17,17s17-7.6,17-17S1328.3,22.6,1319,22.6z"/>
</g>
<g>
	<path fill="#009BDD" d="M1215.462,187.75c1.928,1.282,4.507-0.1,4.507-2.415V93.1l-62.789,33.618
		c-9.151,4.899-9.636,17.842-0.877,23.413L1215.462,187.75z"/>
</g>
<g>
	<path fill="#009BDD" d="M1219.645,184.84c0-20.584,13.847-21.302,22.161-21.302h69.578V71.799h-68.792
		c-12.806,0-22.948,5.027-22.948,21.302L1219.645,184.84L1219.645,184.84z"/>
</g>
<g>
	<g>
		<g>
			<path fill="#0093C6" d="M1220.763,113.657h-2.468c0-14.743,8.402-22.535,24.297-22.535h68.561v2.468h-68.561
				C1227.903,93.589,1220.763,100.153,1220.763,113.657z"/>
		</g>
		<g>
			<path fill="#0093C6" d="M1220.763,131.754h-2.468c0-14.743,8.402-22.535,24.297-22.535h68.561v2.468h-68.561
				C1227.903,111.687,1220.763,118.251,1220.763,131.754z"/>
		</g>
		<g>
			<path fill="#0093C6" d="M1220.763,148.206h-2.468c0-14.743,8.402-22.535,24.297-22.535h68.561v2.468h-68.561
				C1227.903,128.139,1220.763,134.703,1220.763,148.206z"/>
		</g>
		<g>
			<path fill="#0093C6" d="M1220.763,167.949h-2.468c0-14.743,8.402-22.535,24.297-22.535h68.561v2.468h-68.561
				C1227.903,147.882,1220.763,154.446,1220.763,167.949z"/>
		</g>
	</g>
	<g>
		<g>
			<rect x="1182.003" y="112.509" fill="#0093C6" width="37.018" height="2.468"/>
		</g>
		<g>
			<rect x="1152.389" y="130.607" fill="#0093C6" width="66.632" height="2.468"/>
		</g>
		<g>
			<rect x="1154.857" y="148.704" fill="#0093C6" width="64.164" height="2.468"/>
		</g>
		<g>
			<rect x="1184.471" y="166.802" fill="#0093C6" width="34.55" height="2.468"/>
		</g>
	</g>
</g>
<g>
	<path fill="#666E72" d="M1216.743,189.883c-0.873,0-1.744-0.252-2.502-0.752l-59.145-37.612c-4.613-2.933-7.244-7.946-7.04-13.409
		c0.205-5.462,3.204-10.263,8.022-12.843l65.211-34.914v94.982c0,1.679-0.919,3.214-2.399,4.007
		C1218.217,189.703,1217.479,189.883,1216.743,189.883z M1218,95.847l-60.367,32.321c-3.776,2.022-6.127,5.785-6.288,10.066
		c-0.161,4.281,1.902,8.21,5.517,10.509l59.186,37.638c0.565,0.376,1.09,0.169,1.289,0.061c0.199-0.106,0.663-0.428,0.663-1.107
		V95.847z"/>
</g>
<g>
	<path fill="#666E72" d="M1221.29,184.84H1218V93.101c0-15.012,8.504-22.947,24.592-22.947h70.437v95.03h-71.223
		C1234.636,165.184,1221.29,165.184,1221.29,184.84z M1242.592,73.444c-14.334,0-21.302,6.429-21.302,19.656v77.451
		c5.229-8.658,15.368-8.659,20.516-8.659h67.933V73.444H1242.592z"/>
</g>
<g>
	<g>
		<path fill="#D5FF96" d="M1271.268,119.628l-0.884-2.429c0.217-0.991,0.17-2.052-0.203-3.076l-1.119-3.075l0,0l-1.391-12.671
			l-9.812-10.032c-0.096-0.157-0.239-0.235-0.354-0.193l-4.728,1.721c-0.115,0.042-0.174,0.194-0.147,0.375l-1.068,13.992
			l7.079,10.601l0,0l1.119,3.075c0.373,1.026,1.021,1.87,1.827,2.49l0,0l0.882,2.424l-3.18,7.919l6.044,16.607
			c0.44,1.21,2.054,1.736,3.598,1.174l0.01-0.004c1.544-0.562,2.441-2.003,2.001-3.212l-5.146-14.139l2.541-5.893l5.734,2.881
			l5.146,14.139c0.44,1.21,2.054,1.736,3.598,1.174l0.021-0.007c1.544-0.562,2.441-2.003,2.001-3.212l-6.044-16.607
			L1271.268,119.628z"/>
	</g>
	<g>
		<g>
			<path fill="#666E72" d="M1270.916,112.201l-12.952,4.714l-8.155-12.214l1.102-14.451c-0.035-0.897,0.466-1.693,1.281-1.989
				l4.728-1.721c0.812-0.296,1.708-0.009,2.258,0.699l10.136,10.363L1270.916,112.201z M1259.322,112.768l7.887-2.871l-1.178-10.743
				l-8.856-9.054l-2.891,1.052l-0.964,12.629L1259.322,112.768z"/>
		</g>
		<g>
			
				<rect x="1258.006" y="88.385" transform="matrix(0.9397 -0.342 0.342 0.9397 41.9674 436.5162)" fill="#666E72" width="1.716" height="21.722"/>
		</g>
		<g>
			
				<ellipse transform="matrix(0.9397 -0.342 0.342 0.9397 38.7013 438.4019)" fill="#666E72" cx="1262.579" cy="109.451" rx="3.746" ry="3.746"/>
		</g>
		<g>
			<path fill="#666E72" d="M1267.455,122.843c-3.762,1.369-7.937-0.577-9.306-4.339l-1.706-4.687l13.645-4.966l1.706,4.687
				C1273.164,117.299,1271.217,121.474,1267.455,122.843z M1260.843,115.868l0.532,1.462c0.722,1.984,2.923,3.01,4.906,2.288
				c1.984-0.722,3.01-2.923,2.288-4.906l-0.532-1.462L1260.843,115.868z"/>
		</g>
		<g>
			<path fill="#666E72" d="M1269.53,150.14c-2.443,0.889-5.044-0.098-5.808-2.196l-6.269-17.224l3.18-7.919l-0.658-1.807
				c-0.324-0.891,0.135-1.876,1.026-2.2s1.875,0.135,2.2,1.026l1.107,3.041l-3.18,7.919l5.82,15.99
				c0.065,0.177,0.659,0.417,1.398,0.148c0.749-0.273,1.05-0.839,0.986-1.016l-5.379-14.78l2.541-5.893l-1.239-3.408
				c-0.324-0.89,0.135-1.875,1.026-2.199h0.001c0.891-0.324,1.875,0.136,2.199,1.027l1.705,4.689l-2.541,5.892l4.913,13.499
				C1273.321,146.827,1271.964,149.254,1269.53,150.14z"/>
		</g>
		<g>
			<path fill="#666E72" d="M1283.424,145.083c-2.454,0.893-5.054-0.094-5.818-2.192l-4.913-13.499l-5.734-2.881l-1.705-4.69
				c-0.324-0.89,0.135-1.875,1.026-2.199h0.001c0.891-0.324,1.875,0.136,2.199,1.027l1.239,3.408l5.734,2.88l5.38,14.78
				c0.064,0.177,0.659,0.417,1.398,0.148c0.759-0.276,1.06-0.843,0.996-1.02l-5.82-15.99l-7.526-4.022l-1.113-3.057
				c-0.324-0.891,0.135-1.876,1.026-2.2s1.876,0.135,2.2,1.026l0.664,1.823l7.526,4.022l6.269,17.224
				C1287.215,141.77,1285.858,144.197,1283.424,145.083z"/>
		</g>
	</g>
</g>
</svg>
