<?xml version="1.0" encoding="utf-8"?>
<!-- Generator: Adobe Illustrator 18.1.1, SVG Export Plug-In . SVG Version: 6.00 Build 0)  -->
<!DOCTYPE svg PUBLIC "-//W3C//DTD SVG 1.1//EN" "http://www.w3.org/Graphics/SVG/1.1/DTD/svg11.dtd">
<svg version="1.1" id="Layer_1" xmlns="http://www.w3.org/2000/svg" xmlns:xlink="http://www.w3.org/1999/xlink" x="0px" y="0px"
	 viewBox="0 0 697.5 366.9" enable-background="new 0 0 697.5 366.9" xml:space="preserve">
<g>
	<path fill="#E31B23" d="M669.6,184.5c-19,0-22.5-8.6-22.5-8.6l7.7-9.7c0,0,2.6,6.7,14.5,6.7c10.4,0,13.4-7.5,13.4-14.5V154
		c0,0-5.9,7.3-17.6,7.3c-10.7,0-23.8-10.4-23.8-35.7c0-25.4,12.8-34.2,24.7-34.2c11.2,0,16.9,7,16.9,7l3-6.1h11.5V158
		C697.5,174.8,683.9,184.5,669.6,184.5z M683,107.6c0,0-5.6-5.4-13.1-5.4c-11.2,0-13.1,11-13.1,25.5c0,14.5,5.4,23,12.8,23
		c7.3,0,13.4-6.2,13.4-6.2V107.6z"/>
	<path fill="#E31B23" d="M684.9,195c-6.4,3-11,9.6-11,9.6v-10.9H659v68.1h14.8v-43.4c0,0,3.4-7.3,11-10.7c3.8-1.6,8-2,11.3-2v-13.3
		C695.4,192.4,690.7,192.4,684.9,195z"/>
	<path fill="#E31B23" d="M294.3,262.2l-5-21.4h-24.6l-5.1,21.4h-16.9l25.9-89.4h16.8l26,89.4H294.3z M277.1,193.1l-9.3,35.3h18.5
		L277.1,193.1z"/>
	<path fill="#E31B23" d="M427.9,160.7v-6.2c0,0-7,7.3-18,7.3c-6.4,0-20.1-4.2-20.1-20.4c0-16.8,15-22.3,30.8-22.3h7.3v-3.2
		c0-1.6,1.1-14-13.1-14c-9.6,0-12.8,9.4-12.8,9.4l-11.2-2.6c0,0,3.5-17.2,23.6-17.2c21.5,0,27.9,11.2,27.9,25.1v44.2H427.9z
		 M427.9,127.4h-4c-1.9,0-20.6,1.3-20.6,12.9c0,9.3,5.4,10.8,12.6,10.8c6.2,0,12-5.3,12-5.3V127.4z"/>
	<path fill="#E31B23" d="M451,160.6v-6.9h6.2V99.8h-6.1v-7.3h20.7v61.3h6.4v6.9H451z M464,85.6c-4.1,0-7.3-3.3-7.3-7.3
		c0-4.1,3.3-7.3,7.3-7.3c4.1,0,7.5,3.3,7.5,7.3C471.4,82.3,468,85.6,464,85.6z"/>
	<path fill="#E31B23" d="M511.2,161.5c-12.8,0-22-5.3-26.7-17.1l10.2-5.1c3,8.1,8.8,11.8,17.6,11.8c7.5,0,12-3.5,12-8.6
		c0-5.3-3.2-7.7-14.5-10.2c-9.4-2.4-15.2-4.6-18.8-8.8c-2.9-3.4-4.2-7.5-4.2-11.6c0-11.3,9.4-20.3,23.9-20.3
		c10.7,0,20.7,4.6,24.9,15.3l-10.1,5.1c-2.4-6.5-8.5-9.9-14.7-9.9c-6.1,0-10.5,2.7-10.5,7.7c0,3.4,2.4,5.6,8,7.3
		c5.3,1.6,11.2,2.9,16.9,5.4c8.8,3.8,12.9,9.3,12.9,17.9C538.2,152.8,529.6,161.5,511.2,161.5z"/>
	<path fill="#E31B23" d="M544.1,160.6v-6.9h6.2V99.8h-6.1v-7.3H565v61.3h6.4v6.9H544.1z M557.1,85.6c-4.1,0-7.3-3.3-7.3-7.3
		c0-4.1,3.3-7.3,7.3-7.3c4.1,0,7.5,3.3,7.5,7.3C564.5,82.3,561.1,85.6,557.1,85.6z"/>
	<path fill="#E31B23" d="M618.2,160.6V118c0-9.7-1.6-15.3-9.7-15.3c-5.3,0-10.5,4.9-13.4,8.3v49.6h-15V92.4h15v8.6
		c4.2-3.7,12.1-9.6,19.8-9.6c9.9,0,18,5.3,18,22.8v46.3H618.2z"/>
	<path fill="#E31B23" d="M368.6,118c7.8-3.4,14.9-9.9,14.9-22.7c0-23.1-20-24.1-31-24.1h-29.4v89.4h16.4v-39.1h10.5
		c0.8,0,1.9,0,3.2-0.2l15.2,39.3h17.7L368.6,118z M351.5,109.3h-12V83h10.7c6.9,0,16.3,1.1,16.3,12.9
		C366.5,107.1,359.3,109.3,351.5,109.3z"/>
	<path fill="#E31B23" d="M459.1,230.2H416v2.4c0.2,10.5,6.1,19.6,16.4,19.6c6.9,0,12.1-3.5,16-10.7l10.4,4.9
		c-5.9,11-15.2,16.8-27.8,16.8c-19.3,0-30.2-12-30.2-34.9c0-22,10.5-35.1,29.2-35.1c17.1,0,29.7,11.3,29,34.5
		C459.6,228.1,459.1,229.5,459.1,230.2z M430.4,203.5c-8.8,0-13.1,6.2-13.7,16.8h27.1C443.5,210.1,438.7,203.5,430.4,203.5z"/>
	<path fill="#E31B23" d="M503.7,262.4v-6.2c0,0-7,7.3-18,7.3c-6.4,0-20.1-4.1-20.1-20.4c0-16.8,15-22.3,30.8-22.3h7.3v-3.2
		c0-1.6,1.1-14-13.1-14c-9.6,0-12.8,9.4-12.8,9.4l-11.2-2.6c0,0,3.5-17.2,23.6-17.2c21.5,0,27.9,11.2,27.9,25.1v44.2H503.7z
		 M503.7,229.1h-4c-1.9,0-20.6,1.3-20.6,12.9c0,9.3,5.4,10.9,12.6,10.9c6.2,0,12-5.3,12-5.3V229.1z"/>
	<path fill="#E31B23" d="M568.3,262.2v-6.1c0,0-4.9,7.3-15.6,7.3c-13.3,0-25.9-9.1-25.9-34.5c0-25.4,12.9-35.7,23.6-35.7
		c11.8,0,17.7,7.3,17.7,7.3v-27.8h14.7v89.4H568.3z M568.1,210.2c0,0-5.9-6.2-13.2-6.2c-7.3,0-12.8,8.5-12.8,23
		c0,14.5,1.9,25.5,13.1,25.5c11,0,12.9-5.4,12.9-5.4V210.2z"/>
	<path fill="#E31B23" d="M650.1,230.2H607v2.4c0.2,10.5,6.1,19.6,16.4,19.6c6.9,0,12.1-3.5,16-10.7l10.4,4.9
		c-5.9,11-15.2,16.8-27.8,16.8c-19.3,0-30.2-12-30.2-34.9c0-22,10.5-35.1,29.2-35.1c17.1,0,29.7,11.3,29,34.5
		C650.6,228.1,650.1,229.5,650.1,230.2z M621.4,203.5c-8.8,0-13.1,6.2-13.7,16.8h27.1C634.5,210.1,629.7,203.5,621.4,203.5z"/>
	<path fill="#E31B23" d="M381.7,219.6c7.8-3.3,14.8-9.9,14.8-22.7c0-23.1-19.9-24.1-31-24.1h-29.4v89.4h16.4v-39.1h10.5
		c0.8,0,1.9,0,3.2-0.2l15.2,39.3h17.7L381.7,219.6z M364.7,211h-12v-26.3h10.7c6.9,0,16.3,1.1,16.3,12.9
		C379.7,208.8,372.5,211,364.7,211z"/>
	<g>
		<path fill="#E31B23" d="M215,187.5c0,0-44.4-6.6-80.5,53.2L8.3,151.2l11.1,18.4l118.5,79c0,0,38.5-56.9,76.7-58.4
			c5.1-0.2,12.8-43,70.4-54.8l4.7-13.2C289.8,122.1,239.6,124.6,215,187.5z"/>
		<path fill="#E31B23" d="M210.9,178.3c0,0-1.7-54.7,62.2-69c0,0-38.4-10.2-56.3-11.9l4.9-7.1c16.3-0.1,73.4,17.7,71.9,24.3
			C293.5,114.6,233.5,113.6,210.9,178.3z"/>
		<path fill="#E31B23" d="M138.3,61.7c-17,0-30.8-13.8-30.8-30.8c0-17,13.8-30.8,30.8-30.8c17,0,30.8,13.8,30.8,30.8
			C169.2,47.9,155.3,61.7,138.3,61.7z M140.9,5.8c-11.3,0-20.4,9.2-20.4,20.4c0,11.3,9.1,20.4,20.4,20.4c11.2,0,20.4-9.2,20.4-20.4
			C161.3,15,152.2,5.8,140.9,5.8z"/>
		<path fill="#E31B23" d="M62.7,47.3l5.2-2.4c11.9,9.5,21.8,27.3,53.9,41.7C169,108,222,36.8,223.4,37.3l7.2,3.3
			c-8.8,20.4-66.3,100.4-66.3,100.4l8.9,5.6c0.5-1.4,62.2-91.8,65.5-107.5c0,0-17.6-8.6-16.7-7.2c0,0-15.6,14.5-40.1,31
			C122.4,103.3,77.9,44,70.3,37.3L55,43c-3.3,2.9,42,90.6,42,90.6l95.3,44.3c-13.1-1.5-39.3,0.2-61.3,35.8
			c0,0-115.3-74.7-113.5-79.5c5.9-15.8,27.3-26.9,54.4-25.6l-1.4-2.5c-14-4.4-44.9-8-68.5,33l131.4,90.7
			c32.7-49.4,71.4-49.5,71.4-49.5s-89.9-47.4-97.2-55.7C107.5,124.6,63.6,55.4,62.7,47.3z"/>
	</g>
	<g>
		<path fill="#E31B23" d="M0,365.5l10.3-72.2h1.2l29.4,59.3L70,293.3h1.2l10.4,72.2h-7.1l-7.1-51.7l-25.5,51.7h-1.8l-25.8-52
			l-7.1,52H0z"/>
		<path fill="#E31B23" d="M147.4,312.1v53.4h-6.8v-9.2c-2.9,3.5-6.1,6.1-9.7,7.9c-3.6,1.8-7.5,2.7-11.8,2.7c-7.6,0-14-2.7-19.4-8.2
			c-5.4-5.5-8-12.2-8-20c0-7.7,2.7-14.3,8.1-19.7c5.4-5.5,11.9-8.2,19.5-8.2c4.4,0,8.4,0.9,11.9,2.8c3.6,1.9,6.7,4.7,9.4,8.4v-9.8
			H147.4z M119.9,317.4c-3.8,0-7.4,0.9-10.6,2.8c-3.2,1.9-5.8,4.5-7.7,7.9c-1.9,3.4-2.9,7-2.9,10.8c0,3.8,1,7.4,2.9,10.8
			c1.9,3.4,4.5,6.1,7.8,8s6.7,2.9,10.5,2.9c3.8,0,7.3-0.9,10.7-2.8c3.4-1.9,6-4.5,7.8-7.7c1.8-3.2,2.7-6.9,2.7-10.9
			c0-6.2-2-11.3-6.1-15.5C130.9,319.4,125.9,317.4,119.9,317.4z"/>
		<path fill="#E31B23" d="M190,317.9l-4.4,4.6c-3.7-3.6-7.3-5.4-10.8-5.4c-2.2,0-4.1,0.7-5.7,2.2c-1.6,1.5-2.4,3.2-2.4,5.2
			c0,1.7,0.7,3.4,2,5c1.3,1.6,4.1,3.5,8.3,5.6c5.1,2.7,8.6,5.2,10.4,7.7c1.8,2.5,2.7,5.3,2.7,8.4c0,4.4-1.5,8.1-4.6,11.1
			c-3.1,3-6.9,4.6-11.6,4.6c-3.1,0-6-0.7-8.8-2c-2.8-1.3-5.1-3.2-7-5.5l4.3-4.9c3.5,4,7.2,5.9,11.2,5.9c2.8,0,5.1-0.9,7-2.7
			c1.9-1.8,2.9-3.8,2.9-6.2c0-2-0.6-3.7-1.9-5.3c-1.3-1.5-4.2-3.4-8.7-5.7c-4.8-2.5-8.1-4.9-9.8-7.4c-1.7-2.4-2.6-5.2-2.6-8.3
			c0-4.1,1.4-7.4,4.2-10.1c2.8-2.7,6.3-4,10.5-4C180.1,310.7,185,313.1,190,317.9z"/>
		<path fill="#E31B23" d="M229,317.9l-4.4,4.6c-3.7-3.6-7.3-5.4-10.8-5.4c-2.2,0-4.1,0.7-5.7,2.2c-1.6,1.5-2.4,3.2-2.4,5.2
			c0,1.7,0.7,3.4,2,5c1.3,1.6,4.1,3.5,8.3,5.6c5.1,2.7,8.6,5.2,10.4,7.7c1.8,2.5,2.7,5.3,2.7,8.4c0,4.4-1.5,8.1-4.6,11.1
			c-3.1,3-6.9,4.6-11.6,4.6c-3.1,0-6-0.7-8.8-2c-2.8-1.3-5.1-3.2-7-5.5l4.3-4.9c3.5,4,7.2,5.9,11.2,5.9c2.8,0,5.1-0.9,7-2.7
			c1.9-1.8,2.9-3.8,2.9-6.2c0-2-0.6-3.7-1.9-5.3c-1.3-1.5-4.2-3.4-8.7-5.7c-4.8-2.5-8.1-4.9-9.8-7.4c-1.7-2.4-2.6-5.2-2.6-8.3
			c0-4.1,1.4-7.4,4.2-10.1c2.8-2.7,6.3-4,10.5-4C219.1,310.7,224,313.1,229,317.9z"/>
		<path fill="#E31B23" d="M294.4,312.1v53.4h-6.8v-9.2c-2.9,3.5-6.1,6.1-9.7,7.9c-3.6,1.8-7.5,2.7-11.8,2.7c-7.6,0-14-2.7-19.4-8.2
			c-5.4-5.5-8-12.2-8-20c0-7.7,2.7-14.3,8.1-19.7c5.4-5.5,11.9-8.2,19.5-8.2c4.4,0,8.4,0.9,11.9,2.8c3.6,1.9,6.7,4.7,9.4,8.4v-9.8
			H294.4z M266.9,317.4c-3.8,0-7.4,0.9-10.6,2.8c-3.2,1.9-5.8,4.5-7.7,7.9c-1.9,3.4-2.9,7-2.9,10.8c0,3.8,1,7.4,2.9,10.8
			c1.9,3.4,4.5,6.1,7.8,8s6.7,2.9,10.5,2.9c3.8,0,7.3-0.9,10.7-2.8c3.4-1.9,6-4.5,7.8-7.7c1.8-3.2,2.7-6.9,2.7-10.9
			c0-6.2-2-11.3-6.1-15.5C277.9,319.4,272.9,317.4,266.9,317.4z"/>
		<path fill="#E31B23" d="M362,323.2l-5.5,3.4c-4.7-6.3-11.1-9.4-19.3-9.4c-6.5,0-11.9,2.1-16.2,6.3s-6.4,9.3-6.4,15.3
			c0,3.9,1,7.6,3,11s4.7,6.1,8.1,8s7.3,2.8,11.6,2.8c7.8,0,14.3-3.1,19.2-9.4l5.5,3.6c-2.6,3.8-6,6.8-10.3,8.9
			c-4.3,2.1-9.2,3.2-14.7,3.2c-8.4,0-15.5-2.7-21-8.1c-5.6-5.4-8.3-11.9-8.3-19.6c0-5.2,1.3-10,3.9-14.4s6.2-7.9,10.7-10.4
			c4.5-2.5,9.6-3.7,15.3-3.7c3.5,0,6.9,0.5,10.2,1.6c3.3,1.1,6.1,2.5,8.4,4.2C358.5,318.3,360.4,320.5,362,323.2z"/>
		<path fill="#E31B23" d="M375.2,291.5h6.9v30.2c2.8-3.7,5.8-6.4,9.2-8.2s7-2.7,10.9-2.7c4,0,7.5,1,10.6,3c3.1,2,5.4,4.8,6.8,8.2
			c1.5,3.4,2.2,8.8,2.2,16.1v27.5h-6.9V340c0-6.2-0.2-10.3-0.7-12.3c-0.9-3.5-2.4-6.2-4.6-8c-2.2-1.8-5.2-2.7-8.8-2.7
			c-4.2,0-7.9,1.4-11.2,4.1s-5.5,6.2-6.5,10.2c-0.7,2.6-1,7.5-1,14.5v19.6h-6.9V291.5z"/>
		<path fill="#E31B23" d="M435.3,312.1h6.9V337c0,6.1,0.3,10.3,1,12.6c1,3.3,2.9,5.9,5.6,7.8s6.1,2.8,9.9,2.8c3.8,0,7.1-0.9,9.8-2.8
			c2.7-1.8,4.5-4.3,5.5-7.3c0.7-2.1,1-6.4,1-13.1v-24.9h7v26.2c0,7.4-0.9,12.9-2.6,16.6c-1.7,3.7-4.3,6.7-7.8,8.8
			c-3.5,2.1-7.8,3.2-13,3.2c-5.2,0-9.6-1.1-13-3.2c-3.5-2.1-6.1-5.1-7.8-8.8c-1.7-3.8-2.6-9.5-2.6-17.1V312.1z"/>
		<path fill="#E31B23" d="M524,317.9l-4.4,4.6c-3.7-3.6-7.3-5.4-10.8-5.4c-2.2,0-4.1,0.7-5.7,2.2c-1.6,1.5-2.4,3.2-2.4,5.2
			c0,1.7,0.7,3.4,2,5c1.3,1.6,4.1,3.5,8.3,5.6c5.1,2.7,8.6,5.2,10.4,7.7c1.8,2.5,2.7,5.3,2.7,8.4c0,4.4-1.5,8.1-4.6,11.1
			c-3.1,3-6.9,4.6-11.6,4.6c-3.1,0-6-0.7-8.8-2s-5.1-3.2-7-5.5l4.3-4.9c3.5,4,7.2,5.9,11.2,5.9c2.8,0,5.1-0.9,7-2.7
			c1.9-1.8,2.9-3.8,2.9-6.2c0-2-0.6-3.7-1.9-5.3c-1.3-1.5-4.2-3.4-8.7-5.7c-4.8-2.5-8.1-4.9-9.8-7.4c-1.7-2.4-2.6-5.2-2.6-8.3
			c0-4.1,1.4-7.4,4.2-10.1c2.8-2.7,6.3-4,10.5-4C514.1,310.7,519,313.1,524,317.9z"/>
		<path fill="#E31B23" d="M581.1,347.8l5.8,3c-1.9,3.7-4.1,6.7-6.6,9c-2.5,2.3-5.3,4-8.4,5.2c-3.1,1.2-6.6,1.8-10.6,1.8
			c-8.7,0-15.5-2.9-20.4-8.6c-4.9-5.7-7.4-12.2-7.4-19.4c0-6.8,2.1-12.8,6.2-18.1c5.3-6.7,12.3-10.1,21.2-10.1
			c9.1,0,16.4,3.5,21.8,10.4c3.9,4.9,5.8,11,5.9,18.3h-48.1c0.1,6.2,2.1,11.3,5.9,15.3c3.8,4,8.6,6,14.2,6c2.7,0,5.4-0.5,7.9-1.4
			c2.6-0.9,4.8-2.2,6.6-3.8C577.1,353.8,579,351.3,581.1,347.8z M581.1,333.4c-0.9-3.7-2.3-6.6-4-8.8c-1.8-2.2-4.1-4-7-5.3
			c-2.9-1.3-5.9-2-9.1-2c-5.2,0-9.8,1.7-13.5,5.1c-2.8,2.5-4.8,6.1-6.2,11H581.1z"/>
		<path fill="#E31B23" d="M607.2,292.3h6.9v19.8h10.9v5.9H614v47.5h-6.9V318h-9.4v-5.9h9.4V292.3z"/>
		<path fill="#E31B23" d="M641.2,292.3h6.9v19.8h10.9v5.9H648v47.5h-6.9V318h-9.4v-5.9h9.4V292.3z"/>
		<path fill="#E31B23" d="M696,317.9l-4.4,4.6c-3.7-3.6-7.3-5.4-10.8-5.4c-2.2,0-4.1,0.7-5.7,2.2c-1.6,1.5-2.4,3.2-2.4,5.2
			c0,1.7,0.7,3.4,2,5c1.3,1.6,4.1,3.5,8.3,5.6c5.1,2.7,8.6,5.2,10.4,7.7c1.8,2.5,2.7,5.3,2.7,8.4c0,4.4-1.5,8.1-4.6,11.1
			c-3.1,3-6.9,4.6-11.6,4.6c-3.1,0-6-0.7-8.8-2s-5.1-3.2-7-5.5l4.3-4.9c3.5,4,7.2,5.9,11.2,5.9c2.8,0,5.1-0.9,7-2.7
			c1.9-1.8,2.9-3.8,2.9-6.2c0-2-0.6-3.7-1.9-5.3c-1.3-1.5-4.2-3.4-8.7-5.7c-4.8-2.5-8.1-4.9-9.8-7.4c-1.7-2.4-2.6-5.2-2.6-8.3
			c0-4.1,1.4-7.4,4.2-10.1c2.8-2.7,6.3-4,10.5-4C686.1,310.7,691,313.1,696,317.9z"/>
	</g>
</g>
</svg>
