<?xml version="1.0" encoding="utf-8"?>
<!-- Generator: Adobe Illustrator 19.0.0, SVG Export Plug-In . SVG Version: 6.00 Build 0)  -->
<svg version="1.1" id="Layer_1" xmlns="http://www.w3.org/2000/svg" xmlns:xlink="http://www.w3.org/1999/xlink" x="0px" y="0px"
	 viewBox="0 0 692 692" enable-background="new 0 0 692 692" xml:space="preserve">
<g>
	<g>
		<path fill="#E21919" d="M395.2,0.4c4.1,3.9,7,8.7,10.1,13.4c23.7,36.4,36.2,76.1,34,119.7c-1.5,29.8-8.3,58.3-25.2,83.6
			c-6.4,9.5-14.3,17.7-23.1,25.1c-1.8,1.5-3,1.7-4.8,0.1c-2.3-2.1-4.6-4.1-6.2-6.8c-1.3-2.1-2.6-2.8-5.2-1.9
			c-8.2,2.7-8.2,2.5-2.7,9.4c6.9,8.6,16.5,13.5,26.1,18.3c14.7,7.5,29.5,14.6,42.5,24.9c4.8,3.8,9.5,7.9,13.5,12.6
			c1.7,2,3.7,3.3,6.1,4.4c15.3,6.6,25.9,17.3,29.3,34.2c0.6,2.7,2.2,4.8,4.5,6.4c13,8.7,29.7,1.1,31.6-14.4
			c1.6-13.7-1.8-26.6-6.9-39.1c-9.3-22.7-18.4-45.4-24.1-69.3c-5-20.8-7.7-41.9-4.7-63.3c3.2-22.8,12.9-42.4,29.2-58.6
			c3.5-3.5,5.4-7.5,5.7-12.4c0.5-7.3,1.3-9.7,4.3-14.2c1.9,2.5,2.7,5.5,3.8,8.2c0.8,1.9,1.6,2.2,3.6,1.4c7.3-2.9,7.4-2.7,4.3-9.8
			c-0.9-2.2-1.8-4.5-2.7-6.7c-1.5-3.8,1.8-9.2,5.8-9.4c1.6-0.1,1.6,1.3,1.8,2.2c1,4.6,3.5,5,7.1,2.7c0.4-0.3,1-0.5,1.5-0.6
			c2.9-0.7,3.4-2,2.1-4.8c-2.1-4.4-1.8-4.7,3.2-5.2c0.5-0.1,1.1-0.1,1.6-0.1c2.2,0.1,4.9-0.5,6.2,1.9c1.2,2.2-0.8,3.7-1.9,5.3
			c-5,7.9-8.5,16.4-9.3,25.8c-0.3,3.2-1.7,5.5-4.2,7.4c-7.9,6.2-15.5,12.8-22.4,20.1c-15.5,16.5-22.7,36.3-23.7,58.6
			c-1.2,25.2,5.5,48.8,14.4,71.9c6.4,16.7,13.5,33.2,19.9,50c5.5,14.3,8.3,29.1,7.1,44.5c-1.7,20.8-14.6,34-35.5,36.6
			c-7.9,1-15.5,0.6-22.9-2.3c-2.5-1-3.4-0.4-4.5,1.8c-8.7,17.8-9.3,36.1-3.6,54.7c4.4,14.6,12.3,27.3,22.9,38.2
			c5.3,5.5,6,9.1,2,15.7c-5.1,8.4-11.5,15.8-17.6,23.5c-11.4,14.3-23.4,28-38.6,38.4c-2.5,1.8-5.1,2.6-8.2,2.6
			c-15.3-0.1-30.6,0-45.9-0.1c-8.8,0-14-8.5-9.9-16.4c5.5-10.8,18-16.4,29.7-13.3c2.1,0.6,4.2,1,6.2,1.8c9.5,3.9,17.1,1.1,23.6-6.3
			c4.2-4.8,8-9.7,11.4-15c1.5-2.4,1.4-3.4-1.3-4.7c-10.1-5.2-20.2-10.6-29.8-16.6c-25.9-16.3-39.7-40.2-44.7-69.8
			c-1.2-6.9-2.4-13.8-2.4-20.7c0-7.1-3.6-11.5-9.6-14.5c-9.4-4.7-19.3-7.8-29.3-10.9c-12.6-3.8-25.2-7.5-36.7-13.9
			c-10.6-5.8-19.5-13.5-27-23.5c9.5-3.3,18.5-7,26.9-11.9c-5.4-8.1-5.5-8.1-14.1-4.2c-17.4,7.8-35.8,11.8-54.5,14.9
			c-13.9,2.4-27.7,5.1-41.4,8.2c-9.7,2.2-18.2,7-26.4,12.4c-8.5,5.6-17,11.2-26.7,14.6c-4.7,1.6-9.6,3.1-14.5,1.8
			c-4.4-1.2-9.2-2.2-13-4.3c-5.4-3-10.2-7.8-13.6-13.1c-2.8-4.4-1.1-10.5,3-14.2c1.5-1.4,2.6-2.9,3.2-4.9c1.3-4.5,4.6-7.5,8.6-9.6
			c5.3-2.7,11-4,16.8-5.2c1-0.2,2.2,0.2,2.8-1.1c2.5-5.5,7.6-6,12.3-5.2c6.2,1,11.2-1,16.3-4.1c19.1-11.7,38.8-22.2,59.4-31.1
			c6.9-3,13.8-5.7,21.7-8.2c-1.4,4.5-2.6,8.3-4,12.8c21.4-7.8,42.9-12.7,64.8-17.6c-1.2,4-2.2,7.3-3.4,11.4c7-1.6,13.3-3,19.7-4.4
			c6.5-1.5,13-3.1,19.6-4.3c2.8-0.5,4.5-1.7,5.1-4.6c0.5-2.3,1.3-4.6,2.2-7.5c-10.6,2.4-20.7,4.7-31.1,7c1-3.8,1.9-7.1,2.7-10.4
			c0.4-0.2,0.4-0.5,0.1-0.8c0,0-0.3,0.3-0.4,0.4c-12.3,1.8-24.4,4.9-36.5,7.7c-8.7,2-17.3,4.4-26.2,6.8c-0.3-4,2.9-7.2,2.5-11
			c0.1-0.1,0.3-0.1,0.5-0.2c-0.1-0.1-0.1-0.2-0.2-0.3c-0.1,0.1-0.2,0.3-0.3,0.4c-9.6,1.6-18.5,5.2-27.6,8.4
			c-8.8,3.1-17.4,6.8-25.8,11c-0.8,0.4-1.6,1.1-3,0.7c0.2-10,2.1-19.7,5.5-29.2c10.9-31.1,32-53.7,59.4-71
			c5.1-3.2,10.4-6.1,15.9-8.6c1.9-0.9,2.6-1.7,1.5-3.9c-2.5-5.2-3.6-10.9-4.3-16.9c-2.7,0.4-4.9,1.9-7.3,3
			c-11.1,4.9-22.3,9.1-34.8,8.5c-15.3-0.7-29.5-11.6-32.3-25.1c-1.9-9.2,2.3-18.9,9.2-21.5c0.4-0.1,0.8-0.1,1.5-0.3
			c0.2,3.6,0.3,7.2,1.4,10.6c5,15.4,21.7,24.1,38.1,19.5c6.4-1.7,12.2-4.8,18.3-7.2c10.8-4.1,21.6-6.3,32.9-2
			c5.1,2,9.7,4.6,11.3,10.5c0.2,0.9,0.4,1.8-0.1,2.9c-7.3-3.8-15.1-5.4-23.3-4.6c-1.2,0.1-2.9,0.3-3.3,1c-0.8,1.3,0.8,2.4,1.5,3.4
			c8.3,11,24.3,12.7,35.9,3.9c10.4-8,12.2-22.7,4.1-32.9c-8.7-11.1-25.2-12.8-36.3-3.8c-3.2,2.6-5.9,5.6-7.1,9.5
			c-0.6,1.9-1.7,2.2-3.3,1.8c-9.5-2.3-17.9-5.9-21.8-16.1c-2.4-6.3-4.8-12.5-6.2-19c-0.3-1.3-0.5-2.7-1-3.9
			c-3-7.8,0.4-14.5,8.6-16.3c1.6-0.4,3.1-0.9,4.5-1.6c16.6-8.8,34.7-13.1,52.7-17.8c16.3-4.3,32.6-8.7,47.5-16.9
			c8.2-4.5,16.1-9.5,22.1-16.9C393,0.4,394.1,0.4,395.2,0.4z M386.9,46.1c-6.2,0-11.8,3.5-16.3,9.2c-4.5,5.7-4.4,5.7,1.9,9.3
			c2.3,1.3,3.4,0.9,4.9-1c1.9-2.6,4.2-4.8,7.2-6.3c4.4-2.1,8.4-0.9,11.5,3.4c3.2,4.5,3.1,8.4-0.3,12c-2.5,2.6-5.6,4-8.9,5.4
			c-1,0.4-2.3,0.4-2.3,2.2c0,7.1,2,8.6,8.5,6.3c0.9-0.3,1.8-0.6,2.6-1c9.4-4.4,14.9-14,13-22.6C406.8,54,397.3,46.3,386.9,46.1z
			 M320.2,67.6c2.2,0,4.7,0.6,4.9-2.3c0.4-4.1,2.9-4.8,6.3-4.6c1.5,0.1,2.9,0,4.4,0c1.5,0,3,0.4,2.9-2c-0.1-1.8,0-3.2-2.5-3.6
			c-8.3-1.2-16.5-1.3-24.7,0c-2.5,0.4-3,1.5-2.9,3.7c0.1,2-0.5,4,2.8,3.9c2,0,4.1,1,4.9,3C317.1,67.8,318.7,67.7,320.2,67.6z"/>
		<path fill="#E21919" d="M298.4,545.1c-6.8,0-13.7,0-20.5,0c-9.2-0.1-14.5-8.8-10.4-16.9c5.9-11.9,19.3-17.3,31.8-12.7
			c1.3,0.5,2.6,0.8,3.8,1.3c7.9,2.9,14.7,1.2,20.5-4.8c6.9-7.1,11.8-15.5,17.4-23.6c1.5-2.1-0.4-2.9-1.4-3.9
			c-6.9-6.7-13.9-13.4-20.2-20.7c-12.6-14.7-22.2-30.9-24.5-50.5c-2.3-18.7,1.8-35.7,14.5-50.1c1.8-2,3.3-2.6,6.1-1.6
			c10.8,3.8,21.8,7.2,32.8,10.7c1.9,0.6,3.4,1.3,3.8,3.6c1.1,6.5,5.4,10,11.6,11.2c3.1,0.6,4.2,2.1,4.5,5
			c1.2,14.8,4.4,29.1,9.9,42.9c0.5,1.3,0.5,2.4-0.4,3.7c-4.3,6.3-3.6,12.6,0.2,18.8c2.3,3.8,5.2,7.1,8.4,10.3
			c2.2,2.2,3.1,4.6,1.3,7.5c-13.1,21.5-27.8,41.7-47.5,57.8c-0.1,0.1-0.2,0.2-0.3,0.3c-9.5,8.2-19.8,14-33.2,11.8
			C304.1,544.7,301.2,545.1,298.4,545.1z"/>
		<path fill="#E21919" d="M197.2,226.8c-7.7-6.3-15.2-12.3-22.7-18.4c-12.5-10.2-24.6-20.8-35.2-33c-1.5-1.7-3.7-2.1-5.4-3.3
			c-3.1-2-6-4.1-8.3-6.9c-1.7-2.1-3.6-4.3-0.8-7c1-1-0.1-1.4-0.5-1.9c-5.3-6.6-11-12.9-11.1-22.1c0-1.5-1.2-2.3-2.3-3.1
			c-2.9-2.4-4.3-5.4-4.1-9.2c0.1-1.3,0.6-3-0.5-3.9c-3.7-3.3-4.2-7.2-3.5-11.8c0.3-2-1.2-3.8-2.1-5.5c-2-3.9-1.5-5.6,2.2-8
			c9.5-6.1,19.5-4.5,27.4,4.3c8.8,9.9,13.5,21.8,16.6,34.4c2.2,9,7.4,14.9,15.4,18.9c2.4,1.2,4.8,2.4,7.3,3.2
			c15.3,4.9,29,13,42.6,21.3c3,1.8,6,3.6,9.2,5c2.9,1.2,2.4,2.2,0.7,4.2c-9.3,10.5-16.7,22.3-22.1,35.3
			C199.1,221.6,198.3,223.9,197.2,226.8z"/>
	</g>
	<g>
		<path d="M44.7,674.4c-2.8,1-8.4,2.7-14.9,2.7c-7.3,0-13.4-1.9-18.1-6.4c-4.2-4-6.8-10.5-6.8-18.1c0.1-14.5,10-25.1,26.3-25.1
			c5.6,0,10,1.2,12.1,2.2l-1.5,5.1c-2.6-1.2-5.8-2.1-10.7-2.1c-11.8,0-19.5,7.3-19.5,19.5c0,12.3,7.4,19.6,18.7,19.6
			c4.1,0,6.9-0.6,8.4-1.3v-14.5h-9.9v-5h16V674.4z"/>
		<path d="M57.9,660.3c0.1,8.6,5.6,12.1,12,12.1c4.5,0,7.3-0.8,9.7-1.8l1.1,4.5c-2.2,1-6,2.2-11.6,2.2c-10.7,0-17.1-7.1-17.1-17.6
			c0-10.5,6.2-18.8,16.3-18.8c11.4,0,14.4,10,14.4,16.4c0,1.3-0.1,2.3-0.2,3H57.9z M76.5,655.8c0.1-4-1.7-10.3-8.8-10.3
			c-6.4,0-9.2,5.9-9.7,10.3H76.5z"/>
		<path d="M90.5,651.1c0-3.6-0.1-6.6-0.3-9.4h5.5l0.3,5.6h0.2c1.9-3.3,5.2-6.4,10.9-6.4c4.8,0,8.4,2.9,9.9,7h0.1
			c1.1-1.9,2.4-3.5,3.9-4.5c2.1-1.6,4.4-2.4,7.7-2.4c4.6,0,11.5,3,11.5,15.1v20.5h-6.2v-19.7c0-6.7-2.4-10.7-7.6-10.7
			c-3.6,0-6.4,2.7-7.5,5.8c-0.3,0.9-0.5,2-0.5,3.2v21.5h-6.2v-20.9c0-5.5-2.4-9.6-7.3-9.6c-4,0-6.8,3.2-7.9,6.3
			c-0.4,0.9-0.5,2-0.5,3.1v21h-6.2V651.1z"/>
		<path d="M154.1,660.3c0.1,8.6,5.6,12.1,12,12.1c4.5,0,7.3-0.8,9.7-1.8l1.1,4.5c-2.2,1-6,2.2-11.6,2.2c-10.7,0-17.1-7.1-17.1-17.6
			c0-10.5,6.2-18.8,16.3-18.8c11.4,0,14.4,10,14.4,16.4c0,1.3-0.1,2.3-0.2,3H154.1z M172.7,655.8c0.1-4-1.7-10.3-8.8-10.3
			c-6.4,0-9.2,5.9-9.7,10.3H172.7z"/>
		<path d="M190.2,660.3c0.1,8.6,5.6,12.1,12,12.1c4.5,0,7.3-0.8,9.7-1.8l1.1,4.5c-2.2,1-6,2.2-11.6,2.2c-10.7,0-17.1-7.1-17.1-17.6
			c0-10.5,6.2-18.8,16.3-18.8c11.4,0,14.4,10,14.4,16.4c0,1.3-0.1,2.3-0.2,3H190.2z M208.7,655.8c0.1-4-1.7-10.3-8.8-10.3
			c-6.4,0-9.2,5.9-9.7,10.3H208.7z"/>
		<path d="M222.7,651.1c0-3.6-0.1-6.6-0.3-9.4h5.6l0.4,5.8h0.1c1.7-3.3,5.8-6.6,11.5-6.6c4.8,0,12.3,2.9,12.3,14.8v20.8h-6.3v-20.1
			c0-5.6-2.1-10.3-8.1-10.3c-4.2,0-7.4,3-8.5,6.5c-0.3,0.8-0.4,1.9-0.4,3v21h-6.3V651.1z"/>
		<path d="M270,631.7v10h9.1v4.8H270v18.8c0,4.3,1.2,6.8,4.8,6.8c1.7,0,2.9-0.2,3.7-0.4l0.3,4.8c-1.2,0.5-3.2,0.9-5.6,0.9
			c-3,0-5.3-0.9-6.8-2.7c-1.8-1.9-2.4-5-2.4-9.1v-19h-5.4v-4.8h5.4v-8.4L270,631.7z"/>
		<path d="M289.4,660.3c0.1,8.6,5.6,12.1,12,12.1c4.5,0,7.3-0.8,9.7-1.8l1.1,4.5c-2.2,1-6,2.2-11.6,2.2c-10.7,0-17.1-7.1-17.1-17.6
			c0-10.5,6.2-18.8,16.3-18.8c11.4,0,14.4,10,14.4,16.4c0,1.3-0.1,2.3-0.2,3H289.4z M307.9,655.8c0.1-4-1.7-10.3-8.8-10.3
			c-6.4,0-9.2,5.9-9.7,10.3H307.9z"/>
		<path d="M345.5,676.6L329.6,628h6.8l7.6,23.9c2.1,6.6,3.9,12.5,5.2,18.2h0.1c1.4-5.6,3.4-11.7,5.5-18.1l8.2-24h6.7l-17.4,48.5
			H345.5z"/>
		<path d="M374.4,625.4h6.3v51.1h-6.3V625.4z"/>
		<path d="M410.7,676.6l-0.5-4.4H410c-1.9,2.7-5.7,5.2-10.7,5.2c-7.1,0-10.7-5-10.7-10c0-8.4,7.5-13,21-13v-0.7
			c0-2.9-0.8-8.1-7.9-8.1c-3.2,0-6.6,1-9.1,2.6l-1.4-4.2c2.9-1.9,7.1-3.1,11.5-3.1c10.7,0,13.3,7.3,13.3,14.3v13c0,3,0.1,6,0.6,8.4
			H410.7z M409.8,658.8c-6.9-0.1-14.8,1.1-14.8,7.9c0,4.1,2.7,6,6,6c4.5,0,7.4-2.9,8.4-5.8c0.2-0.6,0.4-1.4,0.4-2V658.8z"/>
		<path d="M445.4,676.6l-0.5-4.4h-0.2c-1.9,2.7-5.7,5.2-10.7,5.2c-7.1,0-10.7-5-10.7-10c0-8.4,7.5-13,21-13v-0.7
			c0-2.9-0.8-8.1-7.9-8.1c-3.2,0-6.6,1-9.1,2.6l-1.4-4.2c2.9-1.9,7.1-3.1,11.5-3.1c10.7,0,13.3,7.3,13.3,14.3v13c0,3,0.1,6,0.6,8.4
			H445.4z M444.5,658.8c-6.9-0.1-14.8,1.1-14.8,7.9c0,4.1,2.7,6,6,6c4.5,0,7.4-2.9,8.4-5.8c0.2-0.6,0.4-1.4,0.4-2V658.8z"/>
		<path d="M460.8,652.6c0-4.1-0.1-7.6-0.3-10.9h5.5l0.2,6.8h0.3c1.6-4.7,5.4-7.6,9.7-7.6c0.7,0,1.2,0.1,1.8,0.2v6
			c-0.6-0.1-1.3-0.2-2.2-0.2c-4.5,0-7.6,3.4-8.5,8.1c-0.1,0.9-0.3,1.9-0.3,3v18.6h-6.3V652.6z"/>
		<path d="M513.8,625.4v42.1c0,3.1,0.1,6.6,0.3,9h-5.7l-0.3-6H508c-1.9,3.9-6.2,6.8-11.9,6.8c-8.4,0-14.9-7.1-14.9-17.7
			c-0.1-11.6,7.1-18.7,15.6-18.7c5.3,0,8.9,2.5,10.5,5.3h0.1v-20.8H513.8z M507.5,655.9c0-0.8-0.1-1.9-0.3-2.7
			c-0.9-4-4.4-7.3-9.1-7.3c-6.6,0-10.4,5.8-10.4,13.5c0,7.1,3.5,12.9,10.3,12.9c4.2,0,8.1-2.8,9.3-7.6c0.2-0.9,0.3-1.7,0.3-2.7
			V655.9z"/>
		<path d="M531.4,631.9c0.1,2.2-1.5,3.9-4,3.9c-2.2,0-3.8-1.7-3.8-3.9c0-2.2,1.7-4,4-4C529.9,628,531.4,629.7,531.4,631.9z
			 M524.3,676.6v-34.9h6.3v34.9H524.3z"/>
		<path d="M541.2,651.1c0-3.6-0.1-6.6-0.3-9.4h5.6l0.4,5.8h0.1c1.7-3.3,5.8-6.6,11.5-6.6c4.8,0,12.3,2.9,12.3,14.8v20.8h-6.3v-20.1
			c0-5.6-2.1-10.3-8.1-10.3c-4.2,0-7.4,3-8.5,6.5c-0.3,0.8-0.4,1.9-0.4,3v21h-6.3V651.1z"/>
		<path d="M611.2,641.7c-0.1,2.5-0.3,5.3-0.3,9.6v20.2c0,8-1.6,12.9-5,15.9c-3.4,3.2-8.3,4.2-12.7,4.2c-4.2,0-8.8-1-11.6-2.9
			l1.6-4.8c2.3,1.4,5.9,2.7,10.2,2.7c6.5,0,11.2-3.4,11.2-12.2v-3.9h-0.1c-1.9,3.2-5.7,5.8-11.1,5.8c-8.6,0-14.8-7.3-14.8-17
			c0-11.8,7.7-18.5,15.7-18.5c6,0,9.4,3.2,10.9,6h0.1l0.3-5.3H611.2z M604.6,655.5c0-1.1-0.1-2-0.4-2.9c-1.2-3.7-4.2-6.7-8.9-6.7
			c-6,0-10.4,5.1-10.4,13.2c0,6.8,3.5,12.5,10.3,12.5c3.9,0,7.4-2.4,8.8-6.5c0.4-1.1,0.5-2.3,0.5-3.4V655.5z"/>
		<path d="M624.9,660.3c0.1,8.6,5.6,12.1,12,12.1c4.5,0,7.3-0.8,9.7-1.8l1.1,4.5c-2.2,1-6,2.2-11.6,2.2c-10.7,0-17.1-7.1-17.1-17.6
			c0-10.5,6.2-18.8,16.3-18.8c11.4,0,14.4,10,14.4,16.4c0,1.3-0.1,2.3-0.2,3H624.9z M643.5,655.8c0.1-4-1.7-10.3-8.8-10.3
			c-6.4,0-9.2,5.9-9.7,10.3H643.5z"/>
		<path d="M657.5,651.1c0-3.6-0.1-6.6-0.3-9.4h5.6l0.4,5.8h0.1c1.7-3.3,5.8-6.6,11.5-6.6c4.8,0,12.3,2.9,12.3,14.8v20.8h-6.3v-20.1
			c0-5.6-2.1-10.3-8.1-10.3c-4.2,0-7.4,3-8.5,6.5c-0.3,0.8-0.4,1.9-0.4,3v21h-6.3V651.1z"/>
	</g>
</g>
</svg>
