<?xml version="1.0" encoding="utf-8"?>
<!-- Generator: Adobe Illustrator 16.2.1, SVG Export Plug-In . SVG Version: 6.00 Build 0)  -->
<!DOCTYPE svg PUBLIC "-//W3C//DTD SVG 1.1//EN" "http://www.w3.org/Graphics/SVG/1.1/DTD/svg11.dtd">
<svg version="1.1" id="Layer_1" xmlns="http://www.w3.org/2000/svg" xmlns:xlink="http://www.w3.org/1999/xlink" x="0px" y="0px"
	 width="500px" height="500px" viewBox="0 0 500 500" enable-background="new 0 0 500 500" xml:space="preserve">
<g>
	<g>
		<rect x="41.667" y="35.667" fill="#FFFFFF" width="180" height="215.245"/>
	</g>
	<g>
		
			<rect x="41.667" y="35.667" fill="none" stroke="#333333" stroke-width="2" stroke-miterlimit="10" width="180" height="215.245"/>
	</g>
</g>
<g>
	<rect x="76.669" y="154.457" fill="none" width="128.666" height="41.754"/>
	<text transform="matrix(1 0 0 1 76.6689 158.7534)"><tspan x="0" y="0" fill="#4D4D4D" font-family="'BLOKKNeue-Regular'" font-size="10">Lorem ipsum dolor </tspan><tspan x="0" y="8" fill="#4D4D4D" font-family="'BLOKKNeue-Regular'" font-size="10">sit amet, consec</tspan><tspan x="112.578" y="8" fill="#4D4D4D" font-family="'BLOKKNeue-Regular'" font-size="10">-</tspan><tspan x="0" y="16" fill="#4D4D4D" font-family="'BLOKKNeue-Regular'" font-size="10">tetur adipiscing </tspan><tspan x="0" y="24" fill="#4D4D4D" font-family="'BLOKKNeue-Regular'" font-size="10">elit. Vivamus quis </tspan><tspan x="0" y="32" fill="#4D4D4D" font-family="'BLOKKNeue-Regular'" font-size="10">leo sapien. Cura</tspan><tspan x="112.578" y="32" fill="#4D4D4D" font-family="'BLOKKNeue-Regular'" font-size="10">-</tspan></text>
	<rect x="76.669" y="102.79" fill="#E6E6E6" width="128.666" height="43"/>
	<rect x="76.669" y="43.79" fill="none" width="111.333" height="53"/>
	<text transform="matrix(1 0 0 1 76.6689 48.0864)"><tspan x="0" y="0" fill="#4D4D4D" font-family="'BLOKKNeue-Regular'" font-size="10">Lorem ipsum </tspan><tspan x="0" y="8" fill="#4D4D4D" font-family="'BLOKKNeue-Regular'" font-size="10">dolor sit amet, </tspan><tspan x="0" y="16" fill="#4D4D4D" font-family="'BLOKKNeue-Regular'" font-size="10">consectetur </tspan><tspan x="0" y="24" fill="#4D4D4D" font-family="'BLOKKNeue-Regular'" font-size="10">adipiscing elit. </tspan><tspan x="0" y="32" fill="#4D4D4D" font-family="'BLOKKNeue-Regular'" font-size="10">Vivamus quis </tspan><tspan x="0" y="40" fill="#4D4D4D" font-family="'BLOKKNeue-Regular'" font-size="10">leo sapien. </tspan><tspan x="0" y="48" fill="#4D4D4D" font-family="'BLOKKNeue-Regular'" font-size="10">Curabitur ul</tspan><tspan x="81.289" y="48" fill="#4D4D4D" font-family="'BLOKKNeue-Regular'" font-size="10">-</tspan></text>
	<rect x="65.668" y="203.124" fill="#E6E6E6" width="38.667" height="29.999"/>
</g>
<rect x="110.835" y="197.246" fill="none" width="94.5" height="45.877"/>
<text transform="matrix(1 0 0 1 110.8354 201.5425)"><tspan x="0" y="0" fill="#4D4D4D" font-family="'BLOKKNeue-Regular'" font-size="10">Lorem ipsum </tspan><tspan x="0" y="8" fill="#4D4D4D" font-family="'BLOKKNeue-Regular'" font-size="10">dolor sit </tspan><tspan x="0" y="16" fill="#4D4D4D" font-family="'BLOKKNeue-Regular'" font-size="10">amet, consec</tspan><tspan x="81.289" y="16" fill="#4D4D4D" font-family="'BLOKKNeue-Regular'" font-size="10">-</tspan><tspan x="0" y="24" fill="#4D4D4D" font-family="'BLOKKNeue-Regular'" font-size="10">tetur adipisc</tspan><tspan x="87.539" y="24" fill="#4D4D4D" font-family="'BLOKKNeue-Regular'" font-size="10">-</tspan><tspan x="0" y="32" fill="#4D4D4D" font-family="'BLOKKNeue-Regular'" font-size="10">ing elit. </tspan><tspan x="0" y="40" fill="#4D4D4D" font-family="'BLOKKNeue-Regular'" font-size="10">Vivamus quis </tspan></text>
<g>
	<g>
		<rect x="42.667" y="36" fill="#333333" width="69.333" height="214.911"/>
	</g>
</g>
<rect x="52.5" y="70.5" fill="none" width="57.5" height="176.5"/>
<g>
	<g>
		<rect x="140" y="118.333" fill="#FFFFFF" width="180" height="215.245"/>
	</g>
	<g>
		<rect x="140" y="118.333" fill="none" stroke="#333333" stroke-width="2" stroke-miterlimit="10" width="180" height="215.245"/>
	</g>
</g>
<g>
	<rect x="172.334" y="241" fill="none" width="128.666" height="41.754"/>
	<text transform="matrix(1 0 0 1 172.334 245.2969)"><tspan x="0" y="0" fill="#4D4D4D" font-family="'BLOKKNeue-Regular'" font-size="10">Lorem ipsum dolor </tspan><tspan x="0" y="8" fill="#4D4D4D" font-family="'BLOKKNeue-Regular'" font-size="10">sit amet, consec</tspan><tspan x="112.578" y="8" fill="#4D4D4D" font-family="'BLOKKNeue-Regular'" font-size="10">-</tspan><tspan x="0" y="16" fill="#4D4D4D" font-family="'BLOKKNeue-Regular'" font-size="10">tetur adipiscing </tspan><tspan x="0" y="24" fill="#4D4D4D" font-family="'BLOKKNeue-Regular'" font-size="10">elit. Vivamus quis </tspan><tspan x="0" y="32" fill="#4D4D4D" font-family="'BLOKKNeue-Regular'" font-size="10">leo sapien. Cura</tspan><tspan x="112.578" y="32" fill="#4D4D4D" font-family="'BLOKKNeue-Regular'" font-size="10">-</tspan></text>
	<rect x="172.334" y="189.333" fill="#E6E6E6" width="128.666" height="43"/>
	<rect x="172.334" y="130.333" fill="none" width="111.333" height="53"/>
	<text transform="matrix(1 0 0 1 172.334 134.6299)"><tspan x="0" y="0" fill="#4D4D4D" font-family="'BLOKKNeue-Regular'" font-size="10">Lorem ipsum </tspan><tspan x="0" y="8" fill="#4D4D4D" font-family="'BLOKKNeue-Regular'" font-size="10">dolor sit amet, </tspan><tspan x="0" y="16" fill="#4D4D4D" font-family="'BLOKKNeue-Regular'" font-size="10">consectetur </tspan><tspan x="0" y="24" fill="#4D4D4D" font-family="'BLOKKNeue-Regular'" font-size="10">adipiscing elit. </tspan><tspan x="0" y="32" fill="#4D4D4D" font-family="'BLOKKNeue-Regular'" font-size="10">Vivamus quis </tspan><tspan x="0" y="40" fill="#4D4D4D" font-family="'BLOKKNeue-Regular'" font-size="10">leo sapien. </tspan><tspan x="0" y="48" fill="#4D4D4D" font-family="'BLOKKNeue-Regular'" font-size="10">Curabitur ul</tspan><tspan x="81.289" y="48" fill="#4D4D4D" font-family="'BLOKKNeue-Regular'" font-size="10">-</tspan></text>
	<rect x="161.333" y="289.667" fill="#E6E6E6" width="38.667" height="29.999"/>
</g>
<rect x="206.5" y="283.789" fill="none" width="94.5" height="45.877"/>
<text transform="matrix(1 0 0 1 206.5005 288.0859)"><tspan x="0" y="0" fill="#4D4D4D" font-family="'BLOKKNeue-Regular'" font-size="10">Lorem ipsum </tspan><tspan x="0" y="8" fill="#4D4D4D" font-family="'BLOKKNeue-Regular'" font-size="10">dolor sit </tspan><tspan x="0" y="16" fill="#4D4D4D" font-family="'BLOKKNeue-Regular'" font-size="10">amet, consec</tspan><tspan x="81.289" y="16" fill="#4D4D4D" font-family="'BLOKKNeue-Regular'" font-size="10">-</tspan><tspan x="0" y="24" fill="#4D4D4D" font-family="'BLOKKNeue-Regular'" font-size="10">tetur adipisc</tspan><tspan x="87.539" y="24" fill="#4D4D4D" font-family="'BLOKKNeue-Regular'" font-size="10">-</tspan><tspan x="0" y="32" fill="#4D4D4D" font-family="'BLOKKNeue-Regular'" font-size="10">ing elit. </tspan><tspan x="0" y="40" fill="#4D4D4D" font-family="'BLOKKNeue-Regular'" font-size="10">Vivamus quis </tspan></text>
<g>
	<g>
		<rect x="141" y="118.667" fill="#999999" width="69.333" height="214.911"/>
	</g>
</g>
<rect x="170.834" y="213.167" fill="none" width="57.5" height="176.5"/>
<g>
	<g>
		<rect x="280.668" y="193" fill="#FFFFFF" width="179.999" height="215.245"/>
	</g>
	<g>
		
			<rect x="280.668" y="193" fill="none" stroke="#333333" stroke-width="2" stroke-miterlimit="10" width="179.999" height="215.245"/>
	</g>
</g>
<g>
	<g>
		<rect x="141" y="118.5" fill="#333333" width="69.334" height="16.5"/>
	</g>
</g>
<rect x="297.333" y="282.333" fill="none" width="145.666" height="27.334"/>
<g>
	<rect x="308.334" y="312" fill="none" width="128.666" height="41.754"/>
	<text transform="matrix(1 0 0 1 308.334 316.2969)"><tspan x="0" y="0" fill="#4D4D4D" font-family="'BLOKKNeue-Regular'" font-size="10">Lorem ipsum dolor </tspan><tspan x="0" y="8" fill="#4D4D4D" font-family="'BLOKKNeue-Regular'" font-size="10">sit amet, consec</tspan><tspan x="112.578" y="8" fill="#4D4D4D" font-family="'BLOKKNeue-Regular'" font-size="10">-</tspan><tspan x="0" y="16" fill="#4D4D4D" font-family="'BLOKKNeue-Regular'" font-size="10">tetur adipiscing </tspan><tspan x="0" y="24" fill="#4D4D4D" font-family="'BLOKKNeue-Regular'" font-size="10">elit. Vivamus quis </tspan><tspan x="0" y="32" fill="#4D4D4D" font-family="'BLOKKNeue-Regular'" font-size="10">leo sapien. Cura</tspan><tspan x="112.578" y="32" fill="#4D4D4D" font-family="'BLOKKNeue-Regular'" font-size="10">-</tspan></text>
	<rect x="308.334" y="260.333" fill="#E6E6E6" width="128.666" height="43"/>
	<rect x="308.334" y="201.333" fill="none" width="111.333" height="53"/>
	<text transform="matrix(1 0 0 1 308.334 205.6299)"><tspan x="0" y="0" fill="#4D4D4D" font-family="'BLOKKNeue-Regular'" font-size="10">Lorem ipsum </tspan><tspan x="0" y="8" fill="#4D4D4D" font-family="'BLOKKNeue-Regular'" font-size="10">dolor sit amet, </tspan><tspan x="0" y="16" fill="#4D4D4D" font-family="'BLOKKNeue-Regular'" font-size="10">consectetur </tspan><tspan x="0" y="24" fill="#4D4D4D" font-family="'BLOKKNeue-Regular'" font-size="10">adipiscing elit. </tspan><tspan x="0" y="32" fill="#4D4D4D" font-family="'BLOKKNeue-Regular'" font-size="10">Vivamus quis </tspan><tspan x="0" y="40" fill="#4D4D4D" font-family="'BLOKKNeue-Regular'" font-size="10">leo sapien. </tspan><tspan x="0" y="48" fill="#4D4D4D" font-family="'BLOKKNeue-Regular'" font-size="10">Curabitur ul</tspan><tspan x="81.289" y="48" fill="#4D4D4D" font-family="'BLOKKNeue-Regular'" font-size="10">-</tspan></text>
	<rect x="297.333" y="360.667" fill="#E6E6E6" width="38.667" height="29.999"/>
</g>
<rect x="342.5" y="354.789" fill="none" width="94.5" height="45.877"/>
<text transform="matrix(1 0 0 1 342.5 359.0859)"><tspan x="0" y="0" fill="#4D4D4D" font-family="'BLOKKNeue-Regular'" font-size="10">Lorem ipsum </tspan><tspan x="0" y="8" fill="#4D4D4D" font-family="'BLOKKNeue-Regular'" font-size="10">dolor sit </tspan><tspan x="0" y="16" fill="#4D4D4D" font-family="'BLOKKNeue-Regular'" font-size="10">amet, consec</tspan><tspan x="81.289" y="16" fill="#4D4D4D" font-family="'BLOKKNeue-Regular'" font-size="10">-</tspan><tspan x="0" y="24" fill="#4D4D4D" font-family="'BLOKKNeue-Regular'" font-size="10">tetur adipisc</tspan><tspan x="87.539" y="24" fill="#4D4D4D" font-family="'BLOKKNeue-Regular'" font-size="10">-</tspan><tspan x="0" y="32" fill="#4D4D4D" font-family="'BLOKKNeue-Regular'" font-size="10">ing elit. </tspan><tspan x="0" y="40" fill="#4D4D4D" font-family="'BLOKKNeue-Regular'" font-size="10">Vivamus quis </tspan></text>
<rect x="41.668" y="256.333" fill="none" width="48" height="52.667"/>
<text transform="matrix(1 0 0 1 41.668 281.3887)" font-family="'SourceSansPro-Black'" font-size="36">1</text>
<rect x="137.668" y="341.333" fill="none" width="48" height="52.667"/>
<text transform="matrix(1 0 0 1 137.668 366.3887)" font-family="'SourceSansPro-Black'" font-size="36">2</text>
<rect x="280.668" y="417.333" fill="none" width="48" height="52.667"/>
<text transform="matrix(1 0 0 1 280.668 442.3887)" font-family="'SourceSansPro-Black'" font-size="36">3</text>
</svg>
