<?xml version="1.0" encoding="UTF-8" standalone="no"?>
<svg width="465px" height="624px" viewBox="0 0 465 624" version="1.1" xmlns="http://www.w3.org/2000/svg" xmlns:xlink="http://www.w3.org/1999/xlink" xmlns:sketch="http://www.bohemiancoding.com/sketch/ns">
    <!-- Generator: Sketch 3.4.2 (15855) - http://www.bohemiancoding.com/sketch -->
    <title>Artboard Copy 2</title>
    <desc>Created with Sketch.</desc>
    <defs>
        <path id="path-1" d="M0,0.829631613 L268.375322,0.829631613 L268.375322,268.585774 L0,268.585774 L0,0.829631613 Z"></path>
        <path id="path-3" d="M0,0.829631613 L268.375322,0.829631613 L268.375322,270.861925 L0,270.861925"></path>
    </defs>
    <g id="Page-1" stroke="none" stroke-width="1" fill="none" fill-rule="evenodd" sketch:type="MSPage">
        <g id="Artboard-Copy-2" sketch:type="MSArtboardGroup">
            <rect id="Rectangle-1" fill="#FFFFFF" sketch:type="MSShapeGroup" x="0" y="0" width="465" height="624"></rect>
            <g id="Page-1-Copy" sketch:type="MSLayerGroup" transform="translate(-41.000000, -40.000000)">
                <g id="Group-3">
                    <mask id="mask-2" sketch:name="Clip 2" fill="white">
                        <use xlink:href="#path-1"></use>
                    </mask>
                    <g id="Clip-2"></g>
                    <path d="M268.376518,138.382553 C268.206151,140.495428 268.017851,142.605318 267.868407,144.718193 C266.70274,161.018365 262.682684,176.59634 255.691673,191.356621 C243.580696,216.937923 225.187073,236.801334 200.669218,251.000568 C200.307562,251.212452 199.93694,251.403447 199.566318,251.594441 C199.53344,251.612347 199.47964,251.582504 199.23754,251.540724 C199.488607,249.326383 199.718751,247.094137 199.999707,244.86786 C201.458284,233.297781 202.892951,221.724719 204.408318,210.163593 C205.899773,198.787494 207.445029,187.417363 209.02914,176.056184 C210.511629,165.429141 212.003084,154.802097 213.617084,144.195943 C215.72724,130.330948 217.822451,116.46297 220.183673,102.639755 C222.571796,88.685232 225.285707,74.7844261 227.83224,60.8567615 C227.963751,60.1375485 228.166996,58.9498025 227.826262,58.7170282 C226.857862,58.0455638 225.802784,57.5024237 224.374096,58.1709038 C215.464218,62.3339833 206.055196,63.4501064 196.320384,62.6324119 C181.112918,61.3551374 165.905451,60.0927842 150.686029,58.9527868 C137.875651,57.9888623 125.038373,57.308445 112.18914,57.8217423 C96.7814178,58.4365053 81.7054622,60.871683 67.6546956,67.5743902 C53.2841178,74.429296 41.9233511,84.5728854 35.1027067,99.1839515 C26.8982067,116.764383 29.0292844,138.7914 40.2914178,153.560634 C42.3089178,156.204711 44.7089956,158.595125 47.1658622,160.845277 C48.3763622,161.952447 50.05014,162.773126 51.6551733,163.190926 C54.3511511,163.895217 55.6752289,162.334436 54.91904,159.669468 C51.9929178,149.37368 51.4459511,138.880929 52.7341622,128.322524 C54.6410733,112.720675 62.0654733,100.246357 74.6188067,90.7414053 C85.53124,82.4809006 97.87834,77.6344196 111.208784,75.0530118 C121.837273,72.99087 132.582329,72.0239612 143.396129,71.9553226 C155.267996,71.8807154 167.136873,71.9941183 179.00874,72.0239612 C181.884051,72.0299297 184.759362,72.0239612 187.634673,72.0239612 C187.679507,72.1701912 187.721351,72.313437 187.766184,72.4566827 C187.58984,72.6655827 187.458329,72.9759485 187.234162,73.07443 C178.088162,77.0047351 171.685962,84.0446667 165.848662,91.759047 C154.963129,106.143307 145.724473,121.566099 137.101529,137.358943 C127.309929,155.294504 117.853084,173.412107 108.028607,191.329762 C97.5166844,210.491865 86.1200511,229.116796 73.1512622,246.744976 C71.8839733,248.463925 70.5838067,250.156015 69.1072956,252.113707 C64.5880956,249.150311 59.9792289,246.422673 55.6812067,243.268282 C28.07284,223.010946 9.90338444,196.286662 3.10665111,162.749251 C-6.03038222,117.668621 4.99264,77.544891 36.1009956,43.4762777 C56.5300511,21.1030827 82.1806956,7.74840115 112.063607,2.60946001 C116.502107,1.84846698 121.024296,1.57988121 125.507629,1.07255252 C125.911129,1.02778823 126.302673,0.91140106 126.700196,0.830825328 L141.51014,0.830825328 C141.907662,0.91140106 142.305184,1.03972537 142.705696,1.06359967 C149.729584,1.48139976 156.687718,2.42144997 163.538251,4.01505889 C196.194851,11.6190206 222.592718,28.859243 242.474807,55.7983961 C257.598584,76.294475 265.973451,99.3809144 267.868407,124.789129 C268.026818,126.902003 268.206151,129.014878 268.376518,131.127753 L268.376518,138.382553 Z" id="Fill-1" fill="#F7F6F2" sketch:type="MSShapeGroup" mask="url(#mask-2)"></path>
                </g>
                <g id="Group-6">
                    <mask id="mask-4" sketch:name="Clip 5" fill="white">
                        <use xlink:href="#path-3"></use>
                    </mask>
                    <g id="Clip-5"></g>
                    <path d="M81.38057,257.796385 C83.39807,254.928486 85.4215478,252.21577 87.2776478,249.392635 C96.6268922,235.190416 105.952226,220.973275 115.217781,206.714355 C116.030759,205.460955 116.831781,205.049123 118.305303,205.025249 C131.187414,204.81038 144.078492,204.673103 156.951637,204.135932 C163.951614,203.843472 170.921703,202.819861 178.050203,202.112586 C177.775226,204.103105 177.476337,206.326398 177.156526,208.546707 C175.527581,219.943697 173.88967,231.343671 172.260726,242.74066 C171.301292,249.45232 170.344848,256.16398 169.415303,262.878625 C169.295748,263.750036 168.889259,264.084276 168.037426,264.302129 C157.994759,266.895474 147.79667,268.298089 137.428214,268.545785 C118.47567,268.996412 100.23747,265.642074 82.7195922,258.396227 C82.3011478,258.223138 81.8946589,258.026175 81.38057,257.796385" id="Fill-4" fill="#F7F6F2" sketch:type="MSShapeGroup" mask="url(#mask-4)"></path>
                </g>
                <path d="M125.034488,190.78692 C125.222788,190.428806 125.354299,190.151267 125.509721,189.885666 C135.187743,173.484028 144.835877,157.064484 154.558732,140.689705 C164.144099,124.541731 173.971566,108.537003 185.690999,93.8155187 C190.428388,87.8648517 195.727688,82.355859 200.787877,76.6588563 C201.089754,76.3186477 201.514177,76.0858734 202.105977,76.0023133 C201.152521,79.1835626 200.157221,82.3498905 199.248599,85.5430769 C194.499254,102.264033 190.93351,119.247607 188.174766,136.395317 C185.314399,154.181664 182.579566,171.985916 179.814843,189.7842 C179.692299,190.563099 179.477099,190.900323 178.616299,190.900323 C160.972888,190.876449 143.329477,190.882417 125.686066,190.876449 C125.51271,190.876449 125.339354,190.831685 125.034488,190.78692" id="Fill-7" fill="#F7F6F2" sketch:type="MSShapeGroup"></path>
            </g>
            <g id="Group" sketch:type="MSLayerGroup" transform="translate(87.000000, 128.000000)" fill="#E7E6DE">
                <path d="M0,46.6973266 L290.283099,46.6973266 L290.283099,70.0252806 L0,70.0252806 L0,46.6973266 L0,46.6973266 Z" id="Fill-197" sketch:type="MSShapeGroup"></path>
                <path d="M0,93.3532346 L290.283099,93.3532346 L290.283099,116.679306 L0,116.679306 L0,93.3532346 L0,93.3532346 Z" id="Fill-199" sketch:type="MSShapeGroup"></path>
                <path d="M0,140.00726 L290.283099,140.00726 L290.283099,163.335215 L0,163.335215 L0,140.00726 L0,140.00726 Z" id="Fill-201" sketch:type="MSShapeGroup"></path>
                <path d="M0,186.661285 L180.080382,186.661285 L180.080382,209.98924 L0,209.98924 L0,186.661285 L0,186.661285 Z" id="Fill-203" sketch:type="MSShapeGroup"></path>
                <path d="M0,0 L290.283099,0 L290.283099,23.327954 L0,23.327954 L0,0 L0,0 Z" id="Fill-211" sketch:type="MSShapeGroup"></path>
            </g>
            <path d="M410.901121,643.480839 L256.735819,503.087831 L263.903025,495.780077 C265.402049,494.374784 266.713707,492.828942 267.837999,491.142552 C268.962291,489.456066 269.899122,487.722858 270.648682,485.942737 C271.491877,484.068981 272.147706,482.195224 272.616169,480.321468 C273.084632,478.447616 273.365633,476.527042 273.459364,474.559555 C273.552999,474.465824 273.670139,474.395598 273.810687,474.348781 C273.951236,474.301867 274.115193,474.231641 274.302559,474.13791 L303.252481,456.009168 C304.189311,454.884876 304.892053,453.620035 305.36042,452.214742 C305.828883,450.809353 306.016249,449.357242 305.922614,447.858218 C305.922614,446.359194 305.641517,444.930396 305.079419,443.57192 C304.517225,442.213445 303.67403,440.972013 302.549738,439.847817 L252.238746,389.396277 C251.208185,388.365715 249.990258,387.569338 248.584869,387.007144 C247.179576,386.445046 245.774283,386.117131 244.368894,386.0234 C242.86987,385.929765 241.417663,386.117131 240.01237,386.585594 C238.607077,387.054057 237.295419,387.803521 236.077396,388.834083 L218.089144,417.784004 C217.995452,417.97137 217.925187,418.135327 217.878341,418.275876 C217.831494,418.416424 217.76123,418.533564 217.667537,418.627199 C215.700069,418.72093 213.779447,419.001931 211.905663,419.470394 C210.031887,419.938857 208.204948,420.594686 206.424856,421.437881 C204.551081,422.187442 202.794407,423.124272 201.154853,424.248564 C199.51529,425.372856 197.946001,426.684514 196.446977,428.183538 L169.042945,455.728071 C167.637604,457.133364 166.372802,458.679301 165.248539,460.365691 C164.124275,462.052082 163.140532,463.785289 162.297337,465.56541 C161.547825,467.345532 160.938842,469.195879 160.470398,471.116453 C160.001954,473.037122 159.720886,474.981201 159.627203,476.948592 C159.439818,476.948592 159.275861,476.995505 159.135331,477.089141 C158.994802,477.182872 158.877681,477.276507 158.783998,477.370238 L129.834096,495.499076 C128.803516,496.623272 128.054004,497.888112 127.58556,499.293501 C127.117116,500.698795 126.929731,502.151001 127.023423,503.650025 C127.117116,505.14905 127.445021,506.577751 128.007157,507.936227 C128.569294,509.294799 129.365652,510.489317 130.396223,511.519878 L180.707224,562.111967 C181.831497,563.142528 183.072871,563.938905 184.431366,564.501003 C185.789851,565.063101 187.218611,565.391016 188.717635,565.484747 C190.216659,565.578382 191.668837,565.391016 193.074178,564.922649 C194.479509,564.454186 195.744312,563.704626 196.868575,562.674065 L214.997403,533.724143 C214.997403,533.536777 215.04425,533.37282 215.137933,533.232271 C215.231625,533.091723 215.278472,532.974679 215.278472,532.880948 C217.24594,532.787313 219.189989,532.506216 221.110611,532.037753 C223.031233,531.56929 224.88158,530.913461 226.661701,530.070266 C228.441822,529.320802 230.17503,528.383876 231.86142,527.259584 C233.54781,526.135387 235.093652,524.823729 236.499041,523.324705 L244.509442,515.314304 L384.480785,669.901138 C385.511442,671.025406 386.635638,671.915452 387.853661,672.571274 C389.071588,673.227098 390.336429,673.648698 391.647991,673.836076 C392.866014,673.929765 394.060532,673.789232 395.231642,673.414476 C396.402752,673.03972 397.456722,672.430741 398.393648,671.58754 L412.587511,657.393653 C413.430706,656.456766 414.039718,655.402767 414.41445,654.231648 C414.789182,653.060538 414.929731,651.819154 414.836096,650.507516 C414.648634,649.28956 414.227084,648.048176 413.571255,646.783374 C412.915426,645.518571 412.025413,644.37088 410.901121,643.3403 L410.901121,643.480839 Z" id="Page-1" fill="#E7E6DE" sketch:type="MSShapeGroup"></path>
        </g>
    </g>
</svg>