<svg xmlns="http://www.w3.org/2000/svg" xmlns:xlink="http://www.w3.org/1999/xlink" viewBox="0 0 447.23 158.93"><defs><style>.cls-1{isolation:isolate;}.cls-2{fill:#fff;}.cls-3{fill:url(#radial-gradient);}.cls-4{mask:url(#mask);}.cls-5,.cls-6{opacity:0.4;}.cls-5{mix-blend-mode:multiply;}.cls-6{fill:url(#linear-gradient);}.cls-7{fill:url(#radial-gradient-2);}</style><radialGradient id="radial-gradient" cx="-101.61" cy="1850.14" r="139.51" gradientUnits="userSpaceOnUse"><stop offset="0" stop-color="#00aeff"/><stop offset="0.13" stop-color="#00a5f7"/><stop offset="0.35" stop-color="#008de0"/><stop offset="0.62" stop-color="#0065ba"/><stop offset="0.93" stop-color="#002f87"/><stop offset="1" stop-color="#00217a"/></radialGradient><mask id="mask" x="10.8" y="8.75" width="146.86" height="142.41" maskUnits="userSpaceOnUse"/><linearGradient id="linear-gradient" x1="-79.56" y1="1846.51" x2="31.29" y2="1846.51" gradientUnits="userSpaceOnUse"><stop offset="0" stop-color="#fff"/><stop offset="0.08" stop-color="#fff" stop-opacity="0.96"/><stop offset="0.22" stop-color="#fff" stop-opacity="0.87"/><stop offset="0.4" stop-color="#fff" stop-opacity="0.71"/><stop offset="0.6" stop-color="#fff" stop-opacity="0.5"/><stop offset="0.83" stop-color="#fff" stop-opacity="0.22"/><stop offset="1" stop-color="#fff" stop-opacity="0"/></linearGradient><radialGradient id="radial-gradient-2" cx="20" cy="17.67" r="24.19" gradientUnits="userSpaceOnUse"><stop offset="0" stop-color="#fff"/><stop offset="0.68" stop-color="#7a7a7a"/><stop offset="1" stop-color="#404040"/></radialGradient></defs><title>logo</title><g class="cls-1"><g id="Logos"><path id="Horizontal_Text" data-name="Horizontal Text" class="cls-2" d="M203.81,1902.37H186.58v-51.7h17.23v17.23l10.53-17.23H233.5l-17.23,25.85,17.23,25.85H214.35l-10.53-17.23v17.23Zm98.62-38.3H312v-13.4H275.63v13.4h9.57v38.3h17.23v-38.3ZM271.8,1889H252.65v-5.74H268v-13.4H252.65v-5.74H271.8v-13.4H235.41v51.7H271.8V1889Zm-191,55.53H61.67v-38.3H44.43v51.7H80.82v-13.4Zm40.21,0H101.88v-5.74H117.2v-13.4H101.88v-5.74H121v-13.4H84.65v51.7H121v-13.4Zm191,0H292.86v-5.74h15.32v-13.4H292.86v-5.74H312v-13.4H275.63v51.7H312v-13.4Zm-167.84-68a26.81,26.81,0,1,1-26.81-26.81A26.81,26.81,0,0,1,144.17,1876.52Zm-17.23,0a9.57,9.57,0,1,0-9.57,9.57A9.57,9.57,0,0,0,126.93,1876.52Zm127.63,59.36a5.74,5.74,0,1,1-11.49,0V1906.2H225.84v29.68a23,23,0,1,0,46,0V1906.2H254.56v29.68Zm-71.81-53.64c-1.75,2.33-6.44,3.85-9.57,3.85a9.57,9.57,0,0,1,0-19.15c3.14,0,7.83,1.52,9.57,3.85v-20a41.7,41.7,0,0,0-9.57-1.12,26.81,26.81,0,1,0,0,53.62,41.7,41.7,0,0,0,9.57-1.12v-20Zm-94.27-15.3c0,7.25-3.92,13.84-10.25,15l13.13,20.39H72.2l-10.53-17.23v17.23H44.43v-51.7H71.24C80.76,1850.67,88.48,1857.43,88.48,1866.95Zm-17.23,2.87a5.74,5.74,0,0,0-5.74-5.74H61.67v11.49H65.5A5.74,5.74,0,0,0,71.24,1869.82Zm84.33,80.43H142l-1.84,7.66H122.95l17.23-51.7h17.23l17.23,51.7H157.42Zm-3.23-13.4-3.55-14.73-3.55,14.73h7.09Zm70.14-9.57H197.59v12.45h8c-0.73,1.76-2.77,4.79-8,4.79-5.9,0-10.53-5.07-10.53-11.49a11.19,11.19,0,0,1,10.53-11.49c5.77-.34,8.22,2,10,3.76L219.42,1914c-5.72-5.72-12.65-8.78-21.83-8.78a26.81,26.81,0,0,0,0,53.62c15.4,0,24.89-11.05,24.89-24.89v-6.7Z" transform="translate(125.99 -1825.65)"/><g id="Symbol"><path class="cls-2" d="M38.27,1851L38,1847.64l-2.79-1.9C23,1837.37-.41,1827.4-42,1827.4a195.08,195.08,0,0,0-42.65,4.3,24.84,24.84,0,0,0-16.3-6.05,25,25,0,0,0-25,25,24.82,24.82,0,0,0,3.27,12.35c0.48,21.57,7.36,44,20.49,66.74,21.11,36.56,44,47.26,55.07,52.4l2.09,1,3,1.46,3-1.46,2.09-1c11-5.14,34-15.84,55.07-52.4C41.18,1889.85,39,1860.61,38.27,1851Z" transform="translate(125.99 -1825.65)"/><path class="cls-3" d="M-48.92,1882.51s3.76,0.28,7,4.48l-1.62.26-0.8-.44A37,37,0,0,0-48.92,1882.51Zm-5.64,18-1.76-4.36-0.5-.07-2.81,3.51C-57.81,1901.5-54.57,1900.55-54.57,1900.55Zm26.64-25.8-1.31.73,1.76,3.35,5.82,1.93C-23.94,1875.72-27.93,1874.76-27.93,1874.76Zm-16.53,6.1a49,49,0,0,1,3.64,5c2.78-2.84,9-4.09,17.06-3.88A83,83,0,0,0-44.46,1880.86Zm-10.88-4.36a34.89,34.89,0,0,1,7.57.91,31.37,31.37,0,0,0-7.58-3.36v2.45Zm27.06,16.2-4.86,4.45,3.92,1.06,3.72-4.07-2.29-.85Zm-33.09-23.15s2.1,1.16,2.29,1.24,4.51,1.43,6,1.92a3.42,3.42,0,0,0,2.52,0c0.17-.07,5.18-3.05,5.18-3.05-4.37-1.66-8.33-2.8-8.33-2.8C-53.89,1866.87-61.37,1869.55-61.37,1869.55Zm29.63,2.58-0.16-.24c-0.16-.24-0.85-0.39-4.09-0.8a52.39,52.39,0,0,0-6.65-.44,1.89,1.89,0,0,0-1,.36s-1.82,1.15-3.21,2.09a6,6,0,0,0-2,1.62,3.6,3.6,0,0,0,.47,1.57l2.38,2.87c0.34,0.12,1.23.59,1.23,0.59s4.68-.4,7.58-0.54,7.57-.08,7.57-0.08c0.3-.13-0.11-1.17-0.58-2.61S-31.74,1872.13-31.74,1872.13Zm-27.51,3.28s0.32,0.08.79,0.15a1.32,1.32,0,0,0,1-1.27,1.13,1.13,0,0,0-.77-1.1l-0.22,0-0.22,0-0.86.35-0.33,2h0.23l0.16,0,0-.3a1.38,1.38,0,0,1,0-1.09,1.2,1.2,0,0,1,.91-0.88s0.56,0.12.35,1.15A1.17,1.17,0,0,1-59.26,1875.41Zm49.18,23.2-2.39,3.22v0.06l0.13,0.36H-9A4.1,4.1,0,0,0-10.08,1898.62Zm-58.38-15.2H-69.1l-1.39-.39c-1.39-.39-1-3-1-3l-1.73.62c-0.67-1.22-3.16-4.44-3.16-4.44l-0.33,2.29c0.17,0.23,1.69,2.5,2.14,3.17l-1,.84-0.28.73a1.36,1.36,0,0,1-.33.46l-1.14.57-0.37-.05-4.09-2.72-0.15,2.31,0.17,0.08a5.43,5.43,0,0,0,2.32,2.41,5.17,5.17,0,0,0,3.2.3l1.09,0.53c1.09,0.52,1.47.23,1.47,0.23l1.74-.71,0.38,0.09,0.25-.3,0.5-1.23s2.84,0.18,4.15.34c1.26-1.81,4.85-4.52,7.56-4.58a14,14,0,0,1,10.39,4c3.24,3.41,2.37,8.22,2.37,8.22l6.32,2-2.46-2.13c-2.26-5.85-7.91-11-7.91-11s-1.35-.27-2.31-0.43a2,2,0,0,1-1.36-.91l-0.92-1.18-0.71-.92a4.42,4.42,0,0,0-1.47-1.23,31.18,31.18,0,0,0-6-1.27c-1.74-.27-1.69-0.1-1.69-0.1a55.15,55.15,0,0,1,6.65,1.68,4.31,4.31,0,0,1,.47.83,20.23,20.23,0,0,0-8.7.07,2.94,2.94,0,0,1,.09,2.91A6.25,6.25,0,0,1-68.46,1883.42ZM-13,1904.48l1,3.8a12.52,12.52,0,0,0,1.73-2.07,7.33,7.33,0,0,0,1.1-2.44l-3.52.28Zm-70.38-26.71-0.3,3.35,1.63-.07,0.21-1.9,0.05,1.3,0.25-.13,0-1.74-0.17-.14,0-.36-0.14-.17,0-.63h0l2.66,1.43,0.26,0.63,0.53,0.44,0.71,0,0.23-.4-0.08-.35c-1.89,0-1.8-1-1.8-1l0.46-2.66c0.09-.52,1.4-0.31,1.4-0.31a0.83,0.83,0,0,0-.39-0.27,0.9,0.9,0,0,1-.61-0.09c-0.51-.36-2.3-1.37-2.86-1.68v-0.1l-0.14-.36,0.43-.18v-0.55l-0.11-.17,0.14-.17,0.3,0c0.07-.19.16-0.38,0.25-0.57l0,0.06,5-.79-3.38-.92-0.12-.19c-1-.24-1.9-0.47-2.7-0.74a11.46,11.46,0,0,0-2,4s-0.26,4-.29,4.57A0.8,0.8,0,0,0-83.42,1877.76Zm68.76,23,0.7,1,0.35-.16,2.43-3,0-.15C-12.67,1898.12-14.66,1900.8-14.66,1900.8Zm-6.91-5.31-1.8-.49-4.08,4.82,3,0.74C-23.93,1898.34-21.57,1895.49-21.57,1895.49Zm6,6.81a7.72,7.72,0,0,0-1,5l1.51-3.27,0.08-.53S-15.31,1902.92-15.6,1902.3Zm-1.46-19.13a15.06,15.06,0,0,1-.81,1.38c-0.13.11-2.22,0.53-3.45,1a18,18,0,0,0-3.85,1.91,3.81,3.81,0,0,0-.21,1.48,2.75,2.75,0,0,0,1,.24l-2.59,2.26,0.62,0.66,6.44,1.91a10.25,10.25,0,0,1,3.64-1.5c-1.14-.69-6.27-2.74-7.65-3.29h0a3,3,0,0,1-.92-0.58,4.25,4.25,0,0,1,.12-0.84,17.33,17.33,0,0,1,9.67-2.78l0.74-1.62Zm3.89,25.75-1.2-3.55-0.29,0-1.62,3.16,0.19,0.27A3.18,3.18,0,0,0-13.17,1908.93Zm-44.13-33.24,0.93,0.18a1,1,0,0,0,.69-0.65l0-.45,0-.64-0.84-.69-1.17-.17a1.12,1.12,0,0,1,.41.49l0.3,0a0.41,0.41,0,0,1,.43-0.15c0.11,0,.5.26,0.34,1.06A1.16,1.16,0,0,1-57.3,1875.69ZM-60,1891.92c-1.91,3.72-.57,6.3-0.57,6.3l2.61-3.86,0.08-.57Zm-19-22.74,3.61,1c0.35,0,2.3-.26,2.3-0.26l-5.66-1.48Zm2.08-.87c4.72,0.7,5.56,1.41,5.56,1.41s1.72-.2,2.73-0.2c-1.58-1.27-8-3.32-8-3.32A12,12,0,0,0-76.84,1868.3Zm7.07,9.07a4.31,4.31,0,0,0-1.54,3.72c0.21,1.35.63,1.46,1.32,1.39-1.48-.45-1-3-0.1-4.28s1.72-.42,1.72-0.42A1,1,0,0,0-69.77,1877.37Zm-20.71,43.27c-3.75-.13-8.12,1.38-5.68,5.59,21.53,37.18,44.49,45.93,54.13,50.58a131.24,131.24,0,0,0,19.91-11.09c4.83-3.33,4.45-8.12,3.08-11.47C-25.29,1939-58.86,1921.76-90.49,1920.64Zm121.78-69.12c-8.84-6-30.38-17.13-73.33-17.13a192.41,192.41,0,0,0-37.52,3.37A24.88,24.88,0,0,1-76,1850.65a24.9,24.9,0,0,1-6.27,16.54,25.87,25.87,0,0,0,3.43,1l0.51-1.39,1,0.15c0.13-1.52.83-1.52,0.83-1.52a0.79,0.79,0,0,1,.26-0.37,50.45,50.45,0,0,1,7.16,3.2c1.66,0.84,1.67,1.18,1.67,1.18s4-.12,5.22-0.18,3.18-.91,6-1.89,3.44-1.07,4.14-1.06,5.84,0.39,10.54,1a30.86,30.86,0,0,1,9.8,2.9,4.29,4.29,0,0,1,1.38.24l0.29-.86-0.09,0s-2.32-.88-2.41-1a8.71,8.71,0,0,1,.3-1.79,0.78,0.78,0,0,1,.45-0.64,20.86,20.86,0,0,1,3.68.95c0.74,0.3,3.71,2.21,3.95,2.34a0.53,0.53,0,0,1,.25.4,6.24,6.24,0,0,1-.6,1.65l-0.84-.23,0,0.12,0.83,0.2a3.83,3.83,0,0,1,1.16.47c0.34,0.27,1.15.95,2,1.62a1.38,1.38,0,0,1,.66,1.41l2.13,2,0,1,5.05,5v0.21l-1,1.81a13,13,0,0,1,5.48.93c2.27,1.11,2.54,1.69,2.5,2.32-0.49.16-1.34,0.46-1.34,0.46-1.62.5-6.27,3.61-6.27,3.61l-0.12.42a16.49,16.49,0,0,1,2.2.64c2.65-2.4,7.24-3.2,10.7-2.52,12,2.4,20.19,10.34,21.94,17,0.1,0.39.2,0.77,0.29,1.15C33.1,1880.78,32,1860.47,31.29,1851.52ZM-10.88,1894a7.38,7.38,0,0,1,.82.48c1.66,1.14,2.53,1.8,3,4.39a12.63,12.63,0,0,1-1.73,7.72c8.21,5.54,19.6,1.13,23.95,5.66C14.3,1901.23-2,1889.93-10.88,1894Zm-67.09-14-0.62.39,0.06,2.2,0.61-.38ZM6.48,1916a20.53,20.53,0,0,1-16.55-7.39l-0.12.17c-2.55,3.4-5.65,3.61-6.7,3.48s-5-1.76-6.54-3.62-1.5-5.1-1.5-5.1l-5.73-1.9-7.19-4-1.22-.29c-2.3,1.19-5.12.22-7.77-1.88a15.61,15.61,0,0,1-3.47,5.62c-1.67,1.53-5.19,3.56-7.93,3.49s-8.46-3-10.25-7,0-8.51,0-8.51l-2.93-.68-1.35-.9s-3.4,2.89-7.38,1.82-7.08-4.3-7.8-7.17a9.54,9.54,0,0,1,.45-5.7,14.52,14.52,0,0,1-.64-3.35,0.32,0.32,0,0,1-.21,0,2,2,0,0,1-.1-0.8,24.88,24.88,0,0,1-12.5,3.35,24.88,24.88,0,0,1-14.2-4.43,137,137,0,0,0,4.65,22.53c3.31,11.77,13.68,15.52,29.43,18,34.7,5.53,68.16,32.27,65.82,48.6,8.62-7.41,18.13-18.15,27.39-34.14C15.6,1920.18,12.1,1915.93,6.48,1916Zm-93-40.18-0.29,3.31,1.93-.06,0-.21-0.24,0,0.05-.37-0.41-.06,0.38-.55,0.2-1.37-0.22-.3,0-.49,0.27-.21,0.26-3.64-1.53-.86a13.27,13.27,0,0,1,2.1-4.25l-0.74-.11a13,13,0,0,0-2.18,4.23s-0.22,3.83-.22,4.28A1,1,0,0,0-86.5,1875.83Zm32.14,19.35,1.5,4.61a9.2,9.2,0,0,0,3.56-5.34l-4.69.26Zm2.73-7.16-2.38,4,0.28,0.44,4.61,0.18A5.6,5.6,0,0,0-51.62,1888Zm-29.47-9.12-0.26-.19,0,2.08,0.26-.12Zm22.32,11.23,2.4,1.63,0.53-.24,2.61-4C-56.3,1887.19-58.78,1890.13-58.78,1890.13Zm-21.74-10.87-0.31-.19v2l0.31-.14Zm1,0.62-0.28-.15,0,2.13,0.3-.12Zm0.57,0.31-0.27-.16,0,2.15,0.28-.13Zm-1.09-.61-0.29-.18,0,2.09,0.3-.11Z" transform="translate(125.99 -1825.65)"/><g class="cls-4"><path class="cls-5" d="M31.29,1851.52c0.8,10.67,2.28,37.5-19.2,74.71S-32.4,1972.16-42,1976.81v-5.56c17.68-9.5,33.3-25.25,45.68-49.67,14.37-28.35,16.17-51.33,15-63Z" transform="translate(125.99 -1825.65)"/></g><path class="cls-6" d="M31.29,1851.52c-8.84-6-30.38-17.13-73.33-17.13a192.41,192.41,0,0,0-37.52,3.37A24.85,24.85,0,0,1-76,1848.95a180,180,0,0,1,36-2.93c27.44,0.44,49.5,6.48,58.69,12.6l12.66-7.1" transform="translate(125.99 -1825.65)"/><circle class="cls-7" cx="25" cy="25" r="18"/></g><path class="cls-2" d="M318.13,1951.67a3.2,3.2,0,0,1,1.53.4,2.86,2.86,0,0,1,1.17,1.15,3.13,3.13,0,0,1,0,3.11,2.9,2.9,0,0,1-1.15,1.15,3.13,3.13,0,0,1-3.1,0,2.91,2.91,0,0,1-1.15-1.15,3.12,3.12,0,0,1,0-3.11,2.88,2.88,0,0,1,1.17-1.15A3.2,3.2,0,0,1,318.13,1951.67Zm0,0.52a2.65,2.65,0,0,0-1.28.34,2.42,2.42,0,0,0-1,1,2.59,2.59,0,0,0,0,2.59,2.45,2.45,0,0,0,1,1,2.6,2.6,0,0,0,2.59,0,2.43,2.43,0,0,0,1-1,2.6,2.6,0,0,0,0-2.59,2.4,2.4,0,0,0-1-1A2.66,2.66,0,0,0,318.13,1952.19Zm-1.37,4.33v-3.35h1.15a2.82,2.82,0,0,1,.86.09,0.83,0.83,0,0,1,.42.32,0.86,0.86,0,0,1,.16.49,0.89,0.89,0,0,1-.26.64,1,1,0,0,1-.7.31,0.92,0.92,0,0,1,.29.18,3.84,3.84,0,0,1,.5.67l0.41,0.66h-0.66l-0.3-.53a2.71,2.71,0,0,0-.57-0.78,0.7,0.7,0,0,0-.43-0.12H317.3v1.43h-0.54Zm0.54-1.89H318a1.06,1.06,0,0,0,.64-0.14,0.48,0.48,0,0,0,.09-0.64,0.49,0.49,0,0,0-.23-0.18,1.7,1.7,0,0,0-.54-0.06H317.3v1Z" transform="translate(125.99 -1825.65)"/></g></g></svg>