<?xml version="1.0" encoding="utf-8"?>
<!-- Generator: Adobe Illustrator 19.2.1, SVG Export Plug-In . SVG Version: 6.00 Build 0)  -->
<svg version="1.1" id="Layer_1" xmlns="http://www.w3.org/2000/svg" xmlns:xlink="http://www.w3.org/1999/xlink" x="0px" y="0px"
	 viewBox="0 0 186 55" style="enable-background:new 0 0 186 55;" xml:space="preserve">
<style type="text/css">
	.st0{fill:#343333;}
	.st1{fill:#5B210F;}
</style>
<g>
	<g>
		<path class="st0" d="M112.8,34.1c-3.9,0-6.3-2.8-6.3-7c0-4.2,2.5-7.1,6.4-7.1c3.9,0,6.3,2.8,6.3,7
			C119.2,31.2,116.7,34.1,112.8,34.1 M112.8,22.1c-2.3,0-3.7,1.9-3.7,4.9s1.4,4.9,3.7,4.9c2.3,0,3.7-1.9,3.7-4.9
			S115.1,22.1,112.8,22.1"/>
		<polygon class="st0" points="131.1,33.8 124.7,24.5 124.7,33.8 122.3,33.8 122.3,20.2 124.8,20.2 130.9,29.1 130.9,20.2 
			133.3,20.2 133.3,33.8 		"/>
		<polygon class="st0" points="137.7,33.8 137.7,20.2 140.3,20.2 140.3,31.5 144.8,31.5 145.2,33.8 		"/>
		<rect x="148.8" y="20.2" class="st0" width="2.6" height="13.6"/>
		<polygon class="st0" points="164.3,33.8 157.9,24.5 157.9,33.8 155.5,33.8 155.5,20.2 158,20.2 164.1,29.1 164.1,20.2 166.5,20.2 
			166.5,33.8 		"/>
		<polygon class="st0" points="170.9,33.8 170.9,20.2 178.8,20.2 178.8,22.4 173.5,22.4 173.5,25.7 177.6,25.7 177.9,27.9 
			173.5,27.9 173.5,31.6 179,31.6 179,33.8 		"/>
	</g>
	<g>
		<path class="st1" d="M6.5,34.5c-3.3,0-5.5-2-5.5-5.5v-8.4h2.6v8.3c0,2.1,0.9,3.4,2.9,3.4c1.9,0,2.9-1.2,2.9-3.3v-8.3H12v8.3
			C12,32.5,9.8,34.5,6.5,34.5"/>
		<polygon class="st1" points="24.6,34.2 18.2,24.8 18.2,34.2 15.7,34.2 15.7,20.5 18.2,20.5 24.4,29.5 24.4,20.5 26.8,20.5 
			26.8,34.2 		"/>
		<path class="st1" d="M36.6,34.5c-4,0-6.5-2.8-6.5-7.1c0-4.2,2.6-7.1,6.5-7.1c1.5,0,2.7,0.4,3.7,1L40,23.8
			c-0.9-0.7-1.9-1.2-3.3-1.2c-2.5,0-4,1.9-4,4.8c0,3,1.5,4.8,4,4.8c1.3,0,2.4-0.5,3.5-1.2l0.4,2.3C39.6,34,38.1,34.5,36.6,34.5"/>
	</g>
	<g>
		<path class="st1" d="M64.9,20c-0.1-0.2-0.2-0.4-0.3-0.7c-0.3-0.7-0.4-1.1-0.6-1.5c-0.2-0.3-0.5-0.6-1.1-1.2
			c-0.6-0.5-0.9-0.8-1.2-1.2c-0.2-0.3-0.3-0.8-0.4-1.6c-0.1-0.9-0.1-1.3-0.3-1.7c-0.2-0.4-0.5-0.7-1.1-1.2c-0.3-0.2-0.5-0.5-0.7-0.8
			c0.3,0.1,0.5,0.3,0.9,0.4c0.9,0.3,1.3,0.4,1.6,0.7c0.3,0.3,0.5,0.7,0.8,1.4c0.4,0.8,0.5,1.1,0.8,1.4c0.3,0.3,0.7,0.5,1.4,0.9
			c0.7,0.4,1,0.6,1.3,1c0.2,0.3,0.4,0.7,0.8,1.4c0.3,0.7,0.7,1.2,1.1,1.6c0,0,0,0,0.1,0c-0.2-0.5-0.4-1.1-0.5-1.7
			c-0.1-0.8-0.1-1.2-0.2-1.6c-0.1-0.4-0.3-0.7-0.8-1.4c-0.5-0.7-0.7-1-0.8-1.4c-0.1-0.4-0.1-0.8,0-1.7c0.1-0.9,0.2-1.3,0.1-1.7
			c-0.1-0.4-0.3-0.8-0.7-1.5c-0.2-0.3-0.3-0.6-0.4-1c0.2,0.2,0.5,0.4,0.7,0.6c0.8,0.5,1.1,0.8,1.3,1.1c0.2,0.3,0.3,0.8,0.4,1.6
			c0.1,0.8,0.2,1.2,0.4,1.6c0.2,0.3,0.5,0.6,1.1,1.2c0.6,0.6,0.8,0.9,1,1.3c0.2,0.4,0.2,0.8,0.3,1.6c0.1,0.7,0.4,1.4,0.6,1.9
			c0,0,0,0,0.1,0c-0.1-0.5-0.1-1.1,0-1.8c0.1-0.8,0.2-1.2,0.2-1.6c0-0.4-0.1-0.8-0.4-1.6c-0.3-0.8-0.4-1.2-0.4-1.6
			c0-0.4,0.1-0.8,0.4-1.6c0.3-0.8,0.5-1.2,0.6-1.6c0-0.4-0.1-0.8-0.3-1.6c-0.1-0.4-0.2-0.7-0.2-1c0.1,0.3,0.3,0.5,0.6,0.8
			c0.6,0.7,0.9,1,1,1.4c0.1,0.4,0.1,0.8,0,1.6c-0.1,0.8-0.1,1.2,0,1.6c0.1,0.4,0.3,0.7,0.8,1.4c0.4,0.7,0.6,1.1,0.6,1.5
			c0.1,0.4,0,0.8-0.1,1.6c-0.1,0.7,0,1.4,0.1,1.9c0,0,0,0,0.1,0c0-0.5,0.2-1.1,0.4-1.7c0.3-0.7,0.5-1.1,0.6-1.5
			c0.1-0.4,0.1-0.8,0-1.6c-0.1-0.8-0.1-1.2,0-1.6c0.1-0.4,0.3-0.7,0.8-1.4c0.5-0.7,0.8-1,0.9-1.4c0.1-0.4,0.1-0.8,0.1-1.6
			c0-0.4,0-0.7,0.1-1c0.1,0.3,0.2,0.6,0.3,0.9c0.4,0.8,0.6,1.2,0.6,1.6c0,0.4-0.1,0.8-0.4,1.6c-0.3,0.8-0.4,1.2-0.4,1.6
			c0,0.4,0.1,0.8,0.4,1.6c0.2,0.8,0.3,1.2,0.2,1.6c0,0.4-0.2,0.8-0.5,1.6c-0.3,0.7-0.3,1.4-0.4,1.9c0,0,0,0,0.1,0
			c0.2-0.5,0.4-1.1,0.8-1.5c0.5-0.6,0.8-0.9,1-1.3c0.2-0.3,0.3-0.8,0.4-1.6c0.2-0.8,0.2-1.2,0.4-1.6c0.2-0.3,0.5-0.6,1.2-1.2
			c0.7-0.5,1-0.8,1.3-1.1c0.2-0.3,0.3-0.7,0.5-1.6c0.1-0.4,0.2-0.7,0.4-1c0,0.3,0,0.6,0.1,0.9c0.2,0.9,0.2,1.3,0.2,1.7
			c-0.1,0.4-0.3,0.7-0.8,1.4c-0.5,0.7-0.7,1-0.8,1.4c-0.1,0.4-0.1,0.8-0.1,1.6c0,0.8,0,1.2-0.2,1.6c-0.1,0.4-0.4,0.7-0.9,1.4
			c-0.4,0.6-0.7,1.2-0.9,1.7c0,0,0,0,0,0c0.3-0.4,0.7-0.9,1.2-1.3c0.6-0.5,1-0.7,1.3-1c0.3-0.3,0.5-0.7,0.8-1.4
			c0.4-0.8,0.5-1.1,0.8-1.4c0.3-0.3,0.6-0.5,1.4-0.8c0.8-0.3,1.2-0.5,1.5-0.7c0.3-0.3,0.5-0.6,0.9-1.4c0.2-0.3,0.4-0.6,0.6-0.9
			c-0.1,0.3-0.1,0.6-0.1,0.9c0,0.9-0.1,1.3-0.3,1.7c-0.2,0.4-0.5,0.6-1.2,1.2c-0.6,0.5-0.9,0.8-1.1,1.2c-0.2,0.3-0.3,0.8-0.5,1.6
			c-0.2,0.8-0.4,1.2-0.6,1.5c-0.2,0.3-0.6,0.6-1.2,1.1c-0.6,0.5-1,1-1.3,1.5c0,0,0,0,0,0c0.4-0.3,0.9-0.7,1.5-0.9
			c0.7-0.3,1.1-0.4,1.5-0.6c0.3-0.2,0.6-0.5,1.2-1.1c0.5-0.6,0.8-1,1.2-1.2c0.3-0.2,0.7-0.3,1.6-0.4c0.8-0.1,1.3-0.1,1.6-0.3
			c0.4-0.2,0.7-0.5,1.2-1.1c0.2-0.3,0.5-0.5,0.8-0.7c-0.1,0.3-0.3,0.5-0.4,0.9c-0.3,0.9-0.4,1.3-0.7,1.6c-0.3,0.3-0.7,0.5-1.4,0.8
			c-0.8,0.4-1.1,0.6-1.4,0.8c-0.3,0.3-0.5,0.7-0.9,1.4c-0.4,0.7-0.6,1-0.9,1.3c-0.3,0.3-0.7,0.4-1.4,0.8c-0.7,0.3-1.2,0.7-1.7,1.1
			c0,0,0,0,0,0c0.5-0.2,1.1-0.4,1.7-0.5c0.8-0.1,1.2-0.1,1.6-0.2c0.4-0.1,0.7-0.3,1.4-0.8c0.7-0.5,1-0.7,1.4-0.8
			c0.4-0.1,0.8-0.1,1.7,0c0.8,0.1,1.3,0.2,1.7,0.1c0.4-0.1,0.8-0.3,1.5-0.7c0.3-0.2,0.6-0.3,1-0.4c-0.2,0.2-0.4,0.5-0.6,0.7
			c-0.5,0.8-0.8,1.1-1.1,1.3c-0.3,0.2-0.8,0.3-1.6,0.4c-0.8,0.2-1.2,0.2-1.6,0.4c-0.3,0.2-0.6,0.5-1.2,1.1c-0.6,0.6-0.9,0.8-1.3,1
			C87.2,25,86.8,25,86,25.2c-0.7,0.1-1.4,0.4-1.9,0.6c0,0,0,0,0,0c0.5-0.1,1.2-0.2,1.8-0.1c0.8,0.1,1.2,0.2,1.6,0.2
			c0.4,0,0.8-0.1,1.6-0.4c0.8-0.3,1.2-0.4,1.6-0.4c0.4,0,0.8,0.1,1.6,0.4c0.8,0.3,1.2,0.5,1.6,0.6c0.4,0,0.8-0.1,1.6-0.3
			c0.4-0.1,0.7-0.2,1-0.2c-0.3,0.1-0.5,0.3-0.7,0.6c-0.7,0.6-1,0.9-1.4,1c-0.4,0.1-0.8,0.1-1.6,0c-0.8-0.1-1.3-0.1-1.6,0
			c-0.4,0.1-0.7,0.3-1.4,0.8c-0.7,0.4-1.1,0.6-1.5,0.6c-0.4,0.1-0.8,0-1.6-0.1c-0.8-0.1-1.5,0-2,0.1c0,0,0,0,0,0
			c0.5,0,1.2,0.1,1.8,0.4c0.7,0.3,1.1,0.5,1.5,0.6c0.4,0.1,0.8,0.1,1.6,0c0.8-0.1,1.2-0.1,1.6,0c0.4,0.1,0.7,0.3,1.4,0.8
			c0.7,0.5,1,0.8,1.4,1c0.4,0.1,0.8,0.1,1.6,0.1c0.4,0,0.7,0,1,0.1c-0.3,0.1-0.6,0.2-0.9,0.3c-0.8,0.4-1.2,0.6-1.6,0.6
			c-0.4,0-0.8-0.1-1.6-0.4c-0.8-0.3-1.2-0.4-1.6-0.4c-0.4,0-0.8,0.1-1.6,0.4c-0.8,0.2-1.2,0.3-1.6,0.2c-0.4,0-0.8-0.2-1.6-0.5
			c-0.7-0.3-1.4-0.4-2-0.4c0,0,0,0,0,0c0.5,0.2,1.1,0.5,1.6,0.9c0.6,0.5,0.9,0.8,1.2,1c0.3,0.2,0.8,0.3,1.6,0.4
			c0.8,0.2,1.2,0.2,1.6,0.4c0.3,0.2,0.6,0.5,1.2,1.2c0.5,0.7,0.8,1.1,1.1,1.3c0.3,0.2,0.7,0.3,1.5,0.5c0.4,0.1,0.7,0.2,1,0.4
			c-0.3,0-0.6,0-0.9,0.1c-0.9,0.2-1.3,0.2-1.7,0.2c-0.4-0.1-0.7-0.3-1.4-0.8c-0.7-0.5-1-0.7-1.4-0.8c-0.4-0.1-0.8-0.1-1.6-0.1
			c-0.8,0-1.2,0-1.6-0.2c-0.4-0.1-0.7-0.4-1.4-0.9c-0.6-0.5-1.3-0.7-1.8-0.9c0,0,0,0,0,0c0.5,0.3,1,0.7,1.4,1.3c0.5,0.6,0.7,1,1,1.3
			c0.3,0.3,0.7,0.5,1.4,0.8c0.7,0.4,1.1,0.5,1.4,0.8c0.3,0.3,0.5,0.7,0.8,1.4c0.3,0.8,0.5,1.2,0.7,1.5c0.3,0.3,0.6,0.5,1.4,0.9
			c0.3,0.2,0.6,0.4,0.8,0.6c-0.3-0.1-0.6-0.1-0.9-0.1c-0.9-0.1-1.3-0.1-1.7-0.3c-0.3-0.2-0.6-0.5-1.1-1.2c-0.5-0.6-0.8-0.9-1.2-1.1
			c-0.3-0.2-0.8-0.3-1.6-0.5c-0.5-0.1-0.9-0.3-1.1-0.4l8.1,8.1c10.3-10.5,10.2-27.3-0.1-37.7C81.8-0.6,65-0.6,54.6,9.7L64.9,20z"/>
		<path class="st1" d="M82.2,37c0.1,0.2,0.2,0.4,0.3,0.7c0.3,0.7,0.4,1.1,0.6,1.5c0.2,0.3,0.5,0.6,1.1,1.2c0.6,0.5,1,0.8,1.2,1.2
			c0.2,0.3,0.3,0.8,0.4,1.6c0.1,0.9,0.1,1.3,0.3,1.7c0.2,0.4,0.5,0.7,1.1,1.2c0.3,0.2,0.5,0.5,0.7,0.8c-0.3-0.1-0.5-0.3-0.9-0.4
			c-0.9-0.3-1.3-0.4-1.6-0.7c-0.3-0.3-0.5-0.7-0.8-1.4c-0.4-0.8-0.5-1.1-0.8-1.4c-0.3-0.3-0.7-0.5-1.4-0.9c-0.7-0.4-1-0.6-1.3-0.9
			c-0.2-0.3-0.4-0.7-0.8-1.4c-0.3-0.7-0.7-1.2-1.1-1.6c0,0,0,0-0.1,0c0.2,0.5,0.4,1.1,0.5,1.7c0.1,0.8,0.1,1.2,0.2,1.6
			c0.1,0.4,0.3,0.7,0.8,1.4c0.5,0.7,0.7,1,0.8,1.4c0.1,0.4,0.1,0.8,0,1.7c-0.1,0.9-0.2,1.3-0.1,1.7c0.1,0.4,0.3,0.8,0.7,1.5
			c0.2,0.3,0.3,0.6,0.4,1c-0.2-0.2-0.5-0.4-0.7-0.6c-0.8-0.5-1.1-0.8-1.3-1.1c-0.2-0.3-0.3-0.8-0.4-1.6c-0.1-0.8-0.2-1.2-0.4-1.6
			c-0.2-0.3-0.5-0.6-1.1-1.2c-0.6-0.6-0.8-0.9-1-1.3c-0.2-0.4-0.2-0.8-0.3-1.6c-0.1-0.7-0.4-1.4-0.6-1.9c0,0,0,0-0.1,0
			c0.1,0.5,0.1,1.1,0,1.8c-0.1,0.8-0.2,1.2-0.2,1.6c0,0.4,0.1,0.8,0.4,1.6c0.3,0.8,0.4,1.2,0.4,1.6c0,0.4-0.1,0.8-0.4,1.6
			c-0.3,0.8-0.5,1.2-0.6,1.6c0,0.4,0.1,0.8,0.3,1.6c0.1,0.4,0.2,0.7,0.2,1c-0.1-0.3-0.3-0.5-0.6-0.8c-0.6-0.7-0.9-1-1-1.4
			c-0.1-0.4-0.1-0.8,0-1.6c0.1-0.8,0.1-1.2,0-1.6c-0.1-0.4-0.3-0.7-0.8-1.4c-0.4-0.7-0.6-1.1-0.6-1.5c-0.1-0.4,0-0.8,0.1-1.6
			c0.1-0.7,0-1.4-0.1-1.9c0,0,0,0-0.1,0c0,0.5-0.2,1.1-0.4,1.7c-0.3,0.7-0.5,1.1-0.6,1.5c-0.1,0.4-0.1,0.8,0,1.6
			c0.1,0.8,0.1,1.2,0,1.6c-0.1,0.4-0.3,0.7-0.8,1.4c-0.5,0.7-0.8,1-0.9,1.4c-0.1,0.4-0.1,0.8-0.1,1.6c0,0.4,0,0.7-0.1,1
			c-0.1-0.3-0.2-0.6-0.3-0.9c-0.4-0.8-0.6-1.2-0.6-1.6c0-0.4,0.1-0.8,0.4-1.6c0.3-0.8,0.4-1.2,0.4-1.6c0-0.4-0.1-0.8-0.4-1.6
			C70,43.4,70,43,70,42.6c0-0.4,0.2-0.8,0.5-1.6c0.3-0.7,0.3-1.4,0.4-1.9c0,0,0,0-0.1,0c-0.2,0.5-0.4,1-0.8,1.5
			c-0.5,0.6-0.8,0.9-1,1.3c-0.2,0.3-0.3,0.8-0.4,1.6c-0.2,0.8-0.2,1.2-0.4,1.6c-0.2,0.3-0.5,0.6-1.2,1.2c-0.7,0.5-1,0.8-1.3,1.1
			c-0.2,0.3-0.3,0.7-0.5,1.6c-0.1,0.4-0.2,0.7-0.4,1c0-0.3,0-0.6-0.1-0.9c-0.2-0.9-0.2-1.3-0.2-1.7c0.1-0.4,0.3-0.7,0.8-1.4
			c0.5-0.7,0.7-1,0.8-1.4c0.1-0.4,0.1-0.8,0.1-1.6c0-0.8,0-1.2,0.2-1.6c0.1-0.4,0.4-0.7,0.9-1.4c0.4-0.6,0.7-1.2,0.9-1.7
			c0,0,0,0-0.1,0c-0.3,0.4-0.7,0.9-1.2,1.3c-0.6,0.5-1,0.7-1.3,1c-0.3,0.3-0.5,0.7-0.8,1.4c-0.4,0.8-0.5,1.1-0.8,1.4
			c-0.3,0.3-0.6,0.5-1.4,0.8c-0.8,0.3-1.2,0.5-1.5,0.7c-0.3,0.3-0.5,0.6-0.9,1.4c-0.2,0.3-0.4,0.6-0.6,0.9c0.1-0.3,0.1-0.6,0.1-0.9
			c0-0.9,0.1-1.3,0.3-1.7c0.2-0.4,0.5-0.6,1.2-1.2c0.6-0.5,0.9-0.8,1.1-1.2c0.2-0.3,0.3-0.8,0.5-1.6c0.2-0.8,0.4-1.2,0.6-1.5
			c0.2-0.3,0.6-0.6,1.2-1.1c0.6-0.5,1-1,1.3-1.5c0,0,0,0,0,0c-0.4,0.3-0.9,0.7-1.5,0.9c-0.7,0.3-1.1,0.4-1.5,0.6
			c-0.3,0.2-0.6,0.5-1.2,1.1c-0.5,0.6-0.8,1-1.2,1.2c-0.3,0.2-0.7,0.3-1.6,0.4c-0.8,0.1-1.3,0.1-1.6,0.3c-0.4,0.2-0.6,0.5-1.2,1.1
			c-0.2,0.3-0.5,0.5-0.8,0.7c0.1-0.3,0.3-0.5,0.4-0.9c0.3-0.9,0.4-1.3,0.7-1.6c0.3-0.3,0.7-0.5,1.4-0.8c0.8-0.4,1.1-0.6,1.4-0.8
			c0.3-0.3,0.5-0.7,0.9-1.4c0.4-0.7,0.6-1,0.9-1.3c0.3-0.3,0.7-0.4,1.4-0.8c0.7-0.3,1.2-0.7,1.7-1.1c0,0,0,0,0,0
			c-0.5,0.2-1.1,0.4-1.7,0.5c-0.8,0.1-1.2,0.1-1.6,0.2c-0.4,0.1-0.7,0.3-1.4,0.8c-0.7,0.5-1,0.7-1.4,0.8c-0.4,0.1-0.8,0.1-1.7,0
			C55.5,36,55,36,54.6,36c-0.4,0.1-0.7,0.3-1.5,0.7c-0.3,0.2-0.6,0.3-1,0.4c0.2-0.2,0.4-0.5,0.6-0.7c0.5-0.8,0.8-1.1,1.1-1.3
			c0.3-0.2,0.8-0.3,1.6-0.4c0.8-0.1,1.2-0.2,1.6-0.4c0.3-0.2,0.6-0.5,1.2-1.1c0.6-0.6,0.9-0.8,1.3-1c0.4-0.2,0.8-0.2,1.6-0.3
			c0.7-0.1,1.4-0.4,1.9-0.6c0,0,0,0,0,0c-0.5,0.1-1.2,0.2-1.8,0.1C60.4,31.1,60,31,59.6,31c-0.4,0-0.8,0.1-1.6,0.4
			c-0.8,0.3-1.2,0.4-1.6,0.4c-0.4,0-0.8-0.1-1.6-0.4c-0.8-0.3-1.2-0.5-1.6-0.6c-0.4,0-0.8,0.1-1.6,0.3c-0.4,0.1-0.7,0.2-1,0.2
			c0.3-0.1,0.5-0.3,0.7-0.6c0.7-0.6,1-0.9,1.4-1c0.4-0.1,0.8-0.1,1.6,0c0.8,0.1,1.2,0.1,1.6,0s0.7-0.3,1.4-0.8
			c0.7-0.4,1.1-0.6,1.5-0.6c0.4-0.1,0.8,0,1.6,0.1c0.8,0.1,1.5,0,2-0.1c0,0,0,0,0,0c-0.5,0-1.2-0.1-1.8-0.4
			c-0.7-0.3-1.1-0.5-1.5-0.6c-0.4-0.1-0.8-0.1-1.6,0c-0.8,0.1-1.2,0.1-1.6,0c-0.4-0.1-0.7-0.3-1.4-0.8c-0.7-0.5-1-0.8-1.4-1
			c-0.4-0.1-0.8-0.1-1.6-0.1c-0.4,0-0.7,0-1-0.1c0.3-0.1,0.6-0.2,0.9-0.3c0.8-0.4,1.2-0.6,1.6-0.6c0.4,0,0.8,0.1,1.6,0.4
			c0.8,0.3,1.2,0.4,1.6,0.4c0.4,0,0.8-0.1,1.6-0.4c0.8-0.2,1.2-0.3,1.6-0.2c0.4,0,0.8,0.2,1.6,0.5c0.7,0.3,1.4,0.4,2,0.4
			c0,0,0,0,0,0c-0.5-0.2-1.1-0.5-1.6-0.9c-0.6-0.5-0.9-0.8-1.2-1c-0.3-0.2-0.8-0.3-1.6-0.4s-1.2-0.2-1.6-0.4
			c-0.3-0.2-0.6-0.5-1.2-1.2c-0.5-0.7-0.8-1.1-1.1-1.3c-0.3-0.2-0.7-0.3-1.5-0.5c-0.4-0.1-0.7-0.2-1-0.4c0.3,0,0.6,0,0.9-0.1
			c0.9-0.2,1.3-0.2,1.7-0.2c0.4,0.1,0.7,0.3,1.4,0.8c0.7,0.5,1,0.7,1.4,0.8c0.4,0.1,0.8,0.1,1.6,0.1c0.8,0,1.2,0,1.6,0.2
			c0.4,0.1,0.7,0.4,1.4,0.9c0.6,0.5,1.3,0.7,1.8,0.9c0,0,0,0,0,0c-0.5-0.3-1-0.7-1.4-1.3c-0.5-0.6-0.7-1-1-1.3
			c-0.3-0.3-0.7-0.5-1.4-0.8c-0.7-0.4-1.1-0.5-1.4-0.8c-0.3-0.3-0.5-0.7-0.8-1.4c-0.3-0.8-0.5-1.2-0.7-1.5c-0.3-0.3-0.6-0.5-1.4-0.9
			c-0.3-0.2-0.6-0.4-0.9-0.6c0.3,0.1,0.6,0.1,0.9,0.1c0.9,0.1,1.3,0.1,1.7,0.3c0.4,0.2,0.6,0.5,1.2,1.2c0.5,0.6,0.8,0.9,1.2,1.1
			c0.3,0.2,0.8,0.3,1.6,0.5c0.5,0.1,0.9,0.3,1.1,0.4l-8.1-8.1C44.5,20,44.6,36.8,54.9,47.2c10.4,10.4,27.1,10.4,37.6,0.1L82.2,37z"
			/>
	</g>
</g>
</svg>
