<?xml version="1.0" encoding="utf-8"?>
<!-- Generator: Adobe Illustrator 19.0.0, SVG Export Plug-In . SVG Version: 6.00 Build 0)  -->
<svg version="1.1" id="Layer_1" xmlns="http://www.w3.org/2000/svg" xmlns:xlink="http://www.w3.org/1999/xlink" x="0px" y="0px"
	 viewBox="-55 228 500 337" style="enable-background:new -55 228 500 337;" xml:space="preserve">
<style type="text/css">
	.st0{fill:#231F20;}
	.st1{fill:#799900;}
	.st2{enable-background:new    ;}
</style>
<path class="st0" d="M-52.5,388.7h10.7v19.8l18.2-19.8h13.3L-29.4,410c1.7,2.3,4.7,6.6,9.2,12.8c4.4,6.3,7.8,10.9,10,14h-12.5
	l-14.1-19l-4.8,5.4v13.6h-10.7v-48.1H-52.5z"/>
<path class="st0" d="M36,436.8l-4.5-10.4H11.3l-4.5,10.4H-4.6l20.8-48.1h10.4l20.8,48.1H36z M21.4,403l-6.1,14h12L21.4,403z"/>
<polygon class="st0" points="91.1,388.7 101.9,388.7 101.9,436.8 91.1,436.8 68.2,406.6 68.2,436.8 57.5,436.8 57.5,388.7 
	67.5,388.7 91.1,419.6 "/>
<path class="st0" d="M129.5,398.3c-1,0.9-1.5,2-1.5,3.4s0.6,2.5,1.9,3.3s4.2,1.8,8.7,2.9c4.6,1.1,8.1,2.8,10.6,5.1
	c2.5,2.2,3.8,5.5,3.8,9.8s-1.6,7.8-4.8,10.5c-3.2,2.7-7.5,4-12.8,4c-7.6,0-14.5-2.8-20.6-8.5l6.4-7.8c5.2,4.5,10,6.8,14.4,6.8
	c2,0,3.5-0.4,4.6-1.3c1.1-0.8,1.7-2,1.7-3.4s-0.6-2.6-1.8-3.4c-1.2-0.8-3.6-1.7-7.1-2.6c-5.6-1.3-9.7-3.1-12.3-5.2
	c-2.6-2.1-3.9-5.5-3.9-10s1.6-8.1,4.9-10.6s7.4-3.7,12.3-3.7c3.2,0,6.4,0.6,9.6,1.6c3.2,1.1,6,2.7,8.4,4.7l-5.4,7.9
	c-4.2-3.2-8.5-4.8-12.9-4.8C132,397,130.6,397.4,129.5,398.3"/>
<path class="st0" d="M199.8,436.8l-4.5-10.4h-20.1l-4.5,10.4h-11.4l20.8-48.1h10.4l20.8,48.1H199.8z M185.3,403l-6.1,14h12.1
	L185.3,403z"/>
<path class="st0" d="M230.9,398.3c-1,0.9-1.5,2-1.5,3.4s0.6,2.5,1.9,3.3c1.3,0.8,4.2,1.8,8.7,2.9c4.6,1.1,8.1,2.8,10.6,5.1
	c2.5,2.2,3.8,5.5,3.8,9.8s-1.6,7.8-4.8,10.5s-7.5,4-12.8,4c-7.6,0-14.5-2.8-20.6-8.5l6.4-7.8c5.2,4.5,10,6.8,14.4,6.8
	c2,0,3.5-0.4,4.6-1.3c1.1-0.8,1.7-2,1.7-3.4s-0.6-2.6-1.8-3.4s-3.6-1.7-7.1-2.6c-5.6-1.3-9.7-3.1-12.3-5.2s-3.9-5.5-3.9-10
	s1.6-8.1,4.9-10.6c3.3-2.5,7.4-3.7,12.3-3.7c3.2,0,6.4,0.6,9.6,1.6c3.2,1.1,6,2.7,8.4,4.7l-5.4,7.9c-4.2-3.2-8.5-4.8-12.9-4.8
	C233.3,397,231.9,397.4,230.9,398.3"/>
<path class="st0" d="M307.4,427.3c5.3,0,9.6-2.1,12.9-6.3l6.9,7.1c-5.5,6.1-11.9,9.2-19.3,9.2c-7.4,0-13.5-2.3-18.3-7
	c-4.8-4.7-7.2-10.6-7.2-17.7s2.4-13.1,7.3-17.9c4.9-4.8,10.9-7.2,17.9-7.2c7.9,0,14.5,3,19.8,9l-6.7,7.6c-3.4-4.2-7.6-6.3-12.7-6.3
	c-4,0-7.5,1.3-10.4,4c-2.9,2.6-4.3,6.2-4.3,10.7s1.4,8.1,4.1,10.8C300.2,425.9,303.5,427.3,307.4,427.3"/>
<rect x="339.7" y="388.7" class="st0" width="10.7" height="48.1"/>
<polygon class="st0" points="383.5,398 383.5,436.8 372.8,436.8 372.8,398 360.6,398 360.6,388.7 395.7,388.7 395.7,398 "/>
<polygon class="st0" points="426.3,436.8 415.6,436.8 415.6,417.8 398.9,388.7 410.6,388.7 420.9,406.6 431.3,388.7 443,388.7 
	426.3,417.8 "/>
<path class="st1" d="M24.4,491.6c2.8,0,5.4-1.4,7.7-4.3l5.1,5.7c-4,4.1-8.2,6.2-12.9,6.2c-4.6,0-8.5-1.5-11.7-4.4s-4.8-6.7-4.8-11.4
	c0-4.7,1.6-8.5,4.8-11.5c3.2-2.9,7-4.4,11.4-4.4c2.2,0,4.5,0.5,6.7,1.4c2.3,0.9,4.3,2.3,6,4.1l-4.5,5.8c-1-1.2-2.2-2.1-3.6-2.7
	s-2.8-1-4.3-1c-2.2,0-4.2,0.7-5.8,2.2s-2.4,3.5-2.4,6.1s0.8,4.6,2.4,6.1C20.3,490.9,22.2,491.6,24.4,491.6"/>
<path class="st1" d="M60.7,475.5c-2.5,0-4.5,0.9-5.7,2.7c-1.3,1.8-1.9,4.2-1.9,7.2v13.3h-8.6V468h8.7v4.1c1.1-1.3,2.5-2.3,4.1-3.2
	c1.7-0.9,3.3-1.3,5.1-1.4l0.1,8.1L60.7,475.5L60.7,475.5z"/>
<path class="st1" d="M96.4,494.3c-3.5,3.3-7.5,4.9-12.2,4.9c-4.7,0-8.5-1.4-11.6-4.3c-3-2.9-4.6-6.7-4.6-11.6
	c0-4.8,1.6-8.7,4.7-11.5c3.1-2.9,6.8-4.3,11-4.3c4.2,0,7.8,1.3,10.8,3.8s4.4,6,4.4,10.5v4.6H76.5c0.3,1.7,1.1,3,2.6,4.1
	s3.2,1.6,5,1.6c3,0,5.5-1,7.4-3L96.4,494.3z M88.2,476.1c-1.2-1-2.6-1.5-4.3-1.5c-1.7,0-3.2,0.5-4.7,1.5c-1.4,1-2.2,2.4-2.5,4.2
	h13.5C90.1,478.4,89.4,477,88.2,476.1"/>
<path class="st1" d="M120.5,499.2c-3.6,0-6.9-1.5-9.7-4.6c-2.9-3.1-4.3-6.9-4.3-11.5s1.4-8.3,4.2-11.2c2.8-2.9,6-4.4,9.8-4.4
	c3.7,0,6.8,1.3,9.1,3.9v-15.1h8.6v42.4h-8.6v-4.1C127.2,497.7,124.1,499.2,120.5,499.2 M115.1,483.4c0,2.5,0.8,4.5,2.2,6.1
	c1.5,1.6,3.2,2.4,5.2,2.4s3.7-0.8,5.1-2.4s2.1-3.6,2.1-6.1s-0.7-4.6-2.1-6.2c-1.4-1.7-3.1-2.5-5.1-2.5s-3.8,0.8-5.2,2.5
	C115.8,478.9,115.1,480.9,115.1,483.4"/>
<rect x="149.3" y="468" class="st1" width="8.6" height="30.7"/>
<rect x="149.3" y="456.3" class="st1" width="8.6" height="7.7"/>
<rect x="292.8" y="456.3" class="st1" width="8.6" height="7.7"/>
<path class="st1" d="M179.2,474.2V488c0,1.2,0.3,2.1,0.9,2.8c0.6,0.7,1.3,1,2.2,1c1.6,0,2.9-0.7,4.1-2.2l3.2,6
	c-2.7,2.4-5.5,3.7-8.4,3.7c-3,0-5.4-1-7.5-2.9c-2-1.9-3.1-4.6-3.1-7.9v-14.2H167v-6.2h3.6v-9.2h8.6v9.2h7.4v6.2L179.2,474.2
	L179.2,474.2z"/>
<path class="st1" d="M230.9,484.6V468h8.6v30.7h-8.6v-4.1c-2.1,3-4.9,4.5-8.2,4.5c-3.4,0-6.2-1.1-8.5-3.2s-3.4-5.2-3.4-9.4v-18.6
	h8.6v16.7c0,4.7,1.7,7.1,5.2,7.1c1.7,0,3.2-0.6,4.5-1.9C230.2,488.7,230.9,486.9,230.9,484.6"/>
<path class="st1" d="M260.6,481.6v17.1H252V468h8.6v3.4c2.6-2.6,5.5-3.9,8.7-3.9c3.2,0,6,1.1,8.1,3.4c2.2,2.3,3.3,5.3,3.3,9.1v18.7
	h-8.6v-17.4c0-4.7-1.7-7.1-5.2-7.1c-1.7,0-3.2,0.6-4.5,1.9C261.2,477.4,260.6,479.2,260.6,481.6"/>
<rect x="292.8" y="468" class="st1" width="8.6" height="30.7"/>
<path class="st1" d="M343.3,483.4c0,4.5-1.5,8.2-4.6,11.3c-3.1,3-7,4.6-11.6,4.6c-4.7,0-8.5-1.5-11.6-4.6c-3.1-3-4.6-6.8-4.6-11.3
	s1.5-8.2,4.6-11.3c3.1-3.1,7-4.6,11.6-4.6c4.7,0,8.5,1.5,11.6,4.6C341.7,475.1,343.3,478.9,343.3,483.4 M319.4,483.4
	c0,2.5,0.7,4.6,2.2,6.1c1.4,1.6,3.3,2.4,5.5,2.4s4.1-0.8,5.5-2.4s2.1-3.6,2.1-6.1s-0.7-4.6-2.1-6.2s-3.3-2.4-5.5-2.4
	s-4.1,0.8-5.5,2.4C320.1,478.8,319.4,480.8,319.4,483.4"/>
<path class="st1" d="M361.2,481.6v17.1h-8.6V468h8.6v3.4c2.6-2.6,5.5-3.9,8.7-3.9s5.9,1.1,8.1,3.4s3.3,5.3,3.3,9.1v18.7h-8.6v-17.4
	c0-4.7-1.7-7.1-5.2-7.1c-1.7,0-3.2,0.6-4.5,1.9C361.8,477.4,361.2,479.2,361.2,481.6"/>
<rect x="131.8" y="228" class="st1" width="17.3" height="130"/>
<polygon class="st1" points="211.2,228 166.3,228 166.3,358 211.2,358 166.5,292.9 "/>
<path class="st1" d="M229.9,228l-43.2,65l43.2,65h31.9V228L229.9,228L229.9,228z M247,329.2h-18.8L203.7,293l24.5-36.2h18.7
	l-23,36.2L247,329.2z"/>
<g class="st2">
	<path d="M-43.5,523.6h3.3l4.7,11.3l8.2-11.3h3.3L-34.7,538l-1.7,10.9h-2.8l1.7-10.9L-43.5,523.6z"/>
	<path d="M-28,541.1c0.7-4.6,5-8.4,9.6-8.4c4.6,0,7.7,3.7,7,8.4c-0.7,4.6-5,8.3-9.6,8.3C-25.6,549.4-28.7,545.7-28,541.1z
		 M-25.3,541c-0.5,3.2,1.4,5.8,4.7,5.8s6-2.6,6.5-5.8c0.5-3.2-1.4-5.8-4.7-5.8S-24.8,537.8-25.3,541z"/>
	<path d="M-4.5,541.9c-0.4,2.7-0.5,4.9,2.8,4.9s3.9-2.3,4.3-4.9l1.4-8.8h2.7l-1.4,9.1c-0.7,4.2-2.7,7.1-7.4,7.1s-5.8-2.9-5.1-7.1
		l1.4-9.1h2.7L-4.5,541.9z"/>
	<path d="M14.7,534.9L14.7,534.9c1.2-1.2,2.2-2.2,3.9-2.2c0.9,0,1.6,0.3,2.3,0.7l-1.7,2.5c-0.5-0.4-0.8-0.7-1.5-0.7
		c-3,0-3.7,3.8-4,5.8l-1.3,7.9H9.8l2.5-15.8H15L14.7,534.9z"/>
	<path d="M37.9,535.4L37.9,535.4c1.7-1.7,3.8-2.7,5.9-2.7c4.6,0,6.9,4,6.2,8.4c-0.7,4.5-4.2,8.3-8.9,8.3c-2.2,0-4-0.9-5-2.7h-0.1
		l-1.8,11.1h-2.7l3.9-24.7h2.7L37.9,535.4z M36.9,540.9c-0.5,3.1,0.9,6,4.2,6c3.5,0,5.7-2.8,6.2-6c0.5-3.2-1.1-5.7-4.4-5.7
		C39.9,535.2,37.4,537.9,36.9,540.9z"/>
	<path d="M67.9,548.9h-2.7l0.3-2.2h-0.1c-1.7,1.7-3.6,2.6-5.9,2.6c-4.6,0-6.9-3.9-6.2-8.3c0.7-4.5,4.2-8.4,8.9-8.4
		c2.2,0,3.9,1,5,2.7h0.1l0.4-2.3h2.7L67.9,548.9z M56.2,540.9c-0.5,3.1,0.9,6,4.2,6c3.5,0,5.7-2.8,6.2-6c0.5-3.2-1.1-5.7-4.4-5.7
		C59.1,535.2,56.6,537.9,56.2,540.9z"/>
	<path d="M76.5,548.9h-2.7l2.1-13.3h-1.6l0.4-2.5h1.6l0.9-5.7h2.7l-0.9,5.7h2.8l-0.4,2.5h-2.8L76.5,548.9z"/>
	<path d="M89.7,521.2L87.5,535l0.1,0.1c1.3-1.5,2.9-2.4,4.9-2.4c4.4,0,4.9,3.2,4.3,6.9l-1.5,9.4h-2.7L94,540
		c0.4-2.6,0.6-4.8-2.6-4.8c-3.7,0-4.5,3.4-4.9,6.3l-1.2,7.5h-2.7l4.4-27.7L89.7,521.2L89.7,521.2z"/>
	<path d="M115.2,548.9h-2.7l2.1-13.3H113l0.4-2.5h1.6l0.9-5.7h2.7l-0.9,5.7h2.8l-0.4,2.5h-2.8L115.2,548.9z"/>
	<path d="M121.1,541.1c0.7-4.6,5-8.4,9.6-8.4c4.6,0,7.7,3.7,7,8.4c-0.7,4.6-5,8.3-9.6,8.3C123.5,549.4,120.4,545.7,121.1,541.1z
		 M123.8,541c-0.5,3.2,1.4,5.8,4.7,5.8c3.3,0,6-2.6,6.5-5.8c0.5-3.2-1.4-5.8-4.7-5.8C127,535.2,124.3,537.8,123.8,541z"/>
	<path d="M155.1,548.9h-2.7l2.1-13.3H153l0.4-2.5h1.5l1-6.3c0.2-1.3,0.5-3,1.4-4.1c1.1-1.4,2.8-2,4.4-2c0.6,0,1.3,0.1,1.9,0.3
		l-0.4,2.7c-0.6-0.2-1.1-0.4-1.8-0.4c-2.2,0-2.4,1.5-2.9,4.3l-0.8,5.3h4l-0.4,2.5h-4L155.1,548.9z"/>
	<path d="M165.4,548.9h-2.7l2.5-15.8h2.7L165.4,548.9z M169.4,527.2c-0.2,1.1-1.2,1.9-2.2,1.9c-1,0-1.8-0.8-1.6-1.9
		c0.2-1,1.2-1.9,2.2-1.9C168.9,525.3,169.6,526.1,169.4,527.2z"/>
	<path d="M176.8,535.1L176.8,535.1c1.4-1.5,3-2.4,4.9-2.4c4.4,0,4.9,3.2,4.3,6.9l-1.5,9.4h-2.7l1.4-8.9c0.4-2.6,0.6-4.8-2.6-4.8
		c-3.7,0-4.5,3.4-4.9,6.3l-1.2,7.5h-2.7l2.5-15.8h2.7L176.8,535.1z"/>
	<path d="M204.9,548.9h-2.7l0.3-2.2h-0.1c-1.7,1.7-3.6,2.6-5.9,2.6c-4.6,0-6.9-3.9-6.2-8.3c0.7-4.5,4.2-8.4,8.9-8.4
		c2.2,0,3.9,1,5,2.7h0.1l0.4-2.3h2.7L204.9,548.9z M193.1,540.9c-0.5,3.1,0.9,6,4.2,6c3.5,0,5.7-2.8,6.2-6c0.5-3.2-1.1-5.7-4.4-5.7
		C196.1,535.2,193.6,537.9,193.1,540.9z"/>
	<path d="M215.6,535.1L215.6,535.1c1.4-1.5,3-2.4,4.9-2.4c4.4,0,4.9,3.2,4.3,6.9l-1.5,9.4h-2.7l1.4-8.9c0.4-2.6,0.6-4.8-2.6-4.8
		c-3.7,0-4.5,3.4-4.9,6.3l-1.2,7.5h-2.7l2.5-15.8h2.7L215.6,535.1z"/>
	<path d="M242.7,537.8L242.7,537.8c-1.1-1.6-2.4-2.7-4.6-2.7c-3.3,0-6,2.7-6.5,5.8c-0.5,3.1,1.2,5.8,4.5,5.8c2.3,0,4-1,5.6-2.7h0.1
		l-0.6,3.6c-1.7,1-3.4,1.6-5.3,1.6c-4.8,0-7.8-3.6-7.1-8.3c0.7-4.7,5.1-8.3,9.8-8.3c1.7,0,3.4,0.6,4.6,1.6L242.7,537.8z"/>
	<path d="M249.3,548.9h-2.7l2.5-15.8h2.7L249.3,548.9z M253.3,527.2c-0.2,1.1-1.2,1.9-2.2,1.9c-1,0-1.8-0.8-1.6-1.9
		c0.2-1,1.2-1.9,2.2-1.9C252.7,525.3,253.5,526.1,253.3,527.2z"/>
	<path d="M270.2,548.9h-2.7l0.3-2.2h-0.1c-1.7,1.7-3.6,2.6-5.9,2.6c-4.6,0-6.9-3.9-6.2-8.3c0.7-4.5,4.2-8.4,8.9-8.4
		c2.2,0,3.9,1,5,2.7h0.1l0.4-2.3h2.7L270.2,548.9z M258.4,540.9c-0.5,3.1,0.9,6,4.2,6c3.5,0,5.7-2.8,6.2-6c0.5-3.2-1.1-5.7-4.4-5.7
		C261.3,535.2,258.9,537.9,258.4,540.9z"/>
	<path d="M278.6,548.9h-2.7l4.4-27.7h2.7L278.6,548.9z"/>
	<path d="M298.5,548.9h-2.7l2.1-13.3h-1.5l0.4-2.5h1.5l1-6.3c0.2-1.3,0.5-3,1.4-4.1c1.1-1.4,2.8-2,4.4-2c0.6,0,1.3,0.1,1.9,0.3
		l-0.4,2.7c-0.6-0.2-1.1-0.4-1.8-0.4c-2.2,0-2.4,1.5-2.9,4.3l-0.8,5.3h4l-0.4,2.5h-4L298.5,548.9z"/>
	<path d="M310.5,534.9L310.5,534.9c1.2-1.2,2.2-2.2,3.9-2.2c0.9,0,1.6,0.3,2.3,0.7l-1.7,2.5c-0.5-0.4-0.8-0.7-1.5-0.7
		c-3,0-3.7,3.8-4,5.8l-1.3,7.9h-2.7l2.5-15.8h2.7L310.5,534.9z"/>
	<path d="M320.3,541.6c-0.4,2.9,1.3,5.3,4.3,5.3c2.3,0,4-1.4,5.3-3.3l2.1,1.3c-2,2.8-4.8,4.4-8,4.4c-4.7,0-7.2-3.6-6.4-8.1
		c0.7-4.7,4.1-8.5,9-8.5c5.1,0,7.1,4.2,6.1,8.9L320.3,541.6L320.3,541.6z M330.2,539.3c0-2.3-1.6-4.1-4-4.1c-2.3,0-4.8,1.8-5.5,4.1
		H330.2z"/>
	<path d="M338.5,541.6c-0.4,2.9,1.3,5.3,4.3,5.3c2.3,0,4-1.4,5.3-3.3l2.1,1.3c-2,2.8-4.8,4.4-8,4.4c-4.7,0-7.2-3.6-6.4-8.1
		c0.7-4.7,4.1-8.5,9-8.5c5.1,0,7.1,4.2,6.1,8.9L338.5,541.6L338.5,541.6z M348.5,539.3c0-2.3-1.6-4.1-4-4.1c-2.3,0-4.8,1.8-5.5,4.1
		H348.5z"/>
	<path d="M366.4,546.7L366.4,546.7c-1.6,1.7-3.8,2.6-5.9,2.6c-4.6,0-6.9-3.9-6.2-8.3c0.7-4.5,4.2-8.4,8.9-8.4c2.1,0,4,1,5,2.7h0.1
		l2.2-14.2h2.7l-4.4,27.7H366L366.4,546.7z M357,540.9c-0.5,3.1,0.9,6,4.2,6c3.5,0,5.7-2.8,6.2-6c0.5-3.2-1.1-5.7-4.4-5.7
		C359.9,535.2,357.5,537.9,357,540.9z"/>
	<path d="M374.4,541.1c0.7-4.6,5-8.4,9.6-8.4c4.6,0,7.7,3.7,7,8.4c-0.7,4.6-5,8.3-9.6,8.3C376.8,549.4,373.6,545.7,374.4,541.1z
		 M377.1,541c-0.5,3.2,1.4,5.8,4.7,5.8c3.3,0,6-2.6,6.5-5.8c0.5-3.2-1.4-5.8-4.7-5.8C380.3,535.2,377.6,537.8,377.1,541z"/>
	<path d="M399.2,534.9L399.2,534.9c1.1-1.3,2.6-2.2,4.2-2.2c1.8,0,3.4,1,4,2.6c1.2-1.7,3.2-2.6,5.2-2.6c4,0,4.5,3.3,4,6.6l-1.5,9.6
		h-2.7l1.5-9.2c0.3-2,0.6-4.6-2.2-4.6c-3.1,0-3.9,3-4.3,5.4l-1.3,8.4h-2.7l1.4-9c0.3-1.9,0.5-4.8-2.1-4.8c-3.2,0-4,3.2-4.4,5.6
		l-1.3,8.2h-2.7l2.5-15.8h2.7L399.2,534.9z"/>
	<path d="M426.2,547.5c-0.2,1-1.1,1.9-2.2,1.9c-1,0-1.7-0.9-1.6-1.9c0.2-1,1.1-1.8,2.2-1.8C425.6,545.6,426.3,546.4,426.2,547.5z
		 M426.7,523.6h2.8l-3.2,20.2h-2.8L426.7,523.6z"/>
</g>
</svg>
