<?xml version="1.0" standalone="no"?>
<!DOCTYPE svg PUBLIC "-//W3C//DTD SVG 20010904//EN"
 "http://www.w3.org/TR/2001/REC-SVG-20010904/DTD/svg10.dtd">
<svg version="1.0" xmlns="http://www.w3.org/2000/svg"
 width="6233.000000pt" height="3567.000000pt" viewBox="0 0 6233.000000 3567.000000"
 preserveAspectRatio="xMidYMid meet">
<metadata>
Created by potrace 1.12, written by Peter Selinger 2001-2015
</metadata>
<g transform="translate(0.000000,3567.000000) scale(0.100000,-0.100000)"
fill="#000000" stroke="none">
<path d="M24415 33184 c-82 -47 -10540 -4574 -10663 -4616 l-67 -23 -4400 -5
-4400 -5 0 -295 0 -295 100 -6 c186 -12 9316 -10 9402 2 43 6 110 23 148 39
39 15 1404 688 3035 1495 1631 807 3386 1675 3900 1930 514 254 1376 681 1915
948 539 267 1004 492 1034 501 69 20 143 20 211 0 29 -9 546 -248 1149 -531
5070 -2384 9226 -4330 9291 -4351 36 -12 97 -26 135 -32 48 -7 3414 -10 10920
-8 l10850 3 3 302 2 303 -4492 3 c-4223 3 -4497 4 -4562 20 -114 29 -7684
2422 -11471 3627 -1225 390 -1205 384 -1385 425 -352 81 -525 99 -1229 130
-317 14 -884 41 -1261 60 -377 19 -1043 53 -1480 75 -437 22 -1870 94 -3185
160 -1314 66 -2527 127 -2695 136 -225 11 -325 20 -382 35 -57 14 -112 19
-210 19 l-133 0 -80 -46z"/>
<path d="M24470 31163 c-59 -10 -143 -49 -1110 -510 -558 -267 -1841 -879
-2850 -1360 -1009 -482 -1995 -952 -2190 -1046 -195 -93 -402 -192 -460 -220
l-105 -50 35 -9 c19 -5 105 -11 190 -14 179 -7 292 7 436 55 55 18 533 250
1249 606 638 318 1549 770 2025 1005 476 235 1286 636 1800 891 l935 464 90 0
90 0 330 -157 c182 -86 614 -289 960 -451 696 -325 3910 -1833 4620 -2167 477
-224 524 -243 626 -259 78 -11 878 0 898 13 11 7 3 14 -30 31 -24 13 -1140
492 -2479 1065 -1339 573 -2989 1280 -3666 1570 -1126 484 -1305 555 -1358
549 -6 -1 -22 -4 -36 -6z"/>
<path d="M4824 26649 c-76 -9 -146 -30 -225 -65 l-60 -27 3 -40 3 -40 135 -42
c132 -41 734 -259 1670 -605 585 -215 615 -227 784 -313 118 -59 151 -81 212
-141 71 -70 115 -142 152 -245 16 -43 17 -600 20 -7426 2 -7338 2 -7380 -18
-7459 -52 -206 -185 -339 -465 -464 -50 -22 -578 -219 -1174 -437 -596 -219
-1136 -421 -1200 -450 -99 -46 -116 -56 -116 -76 0 -29 74 -69 190 -102 l80
-22 5080 -3 c3440 -2 5120 0 5205 7 69 6 143 16 165 23 43 14 125 88 125 113
0 30 -180 103 -1044 420 -1301 477 -1311 481 -1436 541 -161 77 -249 135 -314
205 -68 73 -112 157 -132 248 -21 101 -21 14753 1 14854 29 137 120 265 250
350 137 89 319 168 723 311 134 48 555 202 935 342 381 141 750 276 820 302
136 48 187 83 187 126 0 51 -92 99 -220 115 -101 13 -10239 13 -10336 0z
m3066 -729 c890 -244 1079 -299 1167 -335 292 -118 444 -277 488 -509 13 -69
15 -946 15 -7401 0 -6439 -2 -7333 -15 -7402 -28 -150 -124 -294 -254 -383
-69 -46 -208 -116 -281 -142 -140 -48 -1560 -416 -1639 -424 -55 -6 -58 -5
-64 17 -3 13 -5 24 -4 25 108 75 225 138 548 293 217 104 413 200 436 213 191
109 294 269 314 488 12 137 11 14391 -1 14560 -11 151 -27 227 -69 315 -61
130 -190 231 -442 346 -167 76 -608 296 -709 354 -100 56 -169 116 -159 137 7
13 18 15 51 11 24 -3 302 -77 618 -163z"/>
<path d="M17167 26649 c-126 -19 -180 -47 -213 -112 -18 -34 -21 -32 68 -77
81 -42 804 -312 1593 -595 750 -269 872 -318 995 -400 139 -92 216 -208 251
-378 18 -90 19 -276 19 -7442 0 -6478 -2 -7358 -15 -7408 -23 -88 -69 -170
-136 -241 -123 -132 -281 -210 -801 -395 -400 -142 -1851 -687 -1920 -722 -38
-18 -68 -39 -68 -46 0 -26 84 -98 129 -111 24 -8 96 -18 160 -23 158 -12 8651
-11 9226 1 2086 45 3545 254 4845 695 1570 533 2726 1436 3512 2745 636 1060
1047 2492 1198 4175 51 573 70 951 77 1530 7 617 -11 1093 -62 1600 -232 2301
-1075 4009 -2570 5204 -1188 950 -2808 1560 -4895 1845 -522 71 -912 106
-1680 148 -250 14 -9623 21 -9713 7z m2948 -750 c738 -167 1162 -267 1245
-296 105 -36 294 -134 361 -188 71 -56 141 -158 177 -255 l27 -75 3 -7370 c2
-6686 1 -7377 -13 -7449 -57 -280 -252 -430 -776 -594 -658 -207 -1337 -409
-1402 -416 -49 -6 -58 -5 -64 10 -5 13 9 32 53 73 58 55 273 181 779 457 199
108 256 147 321 216 63 66 99 135 125 236 19 74 19 191 19 7426 0 6355 -2
7360 -15 7419 -20 96 -70 192 -135 257 -109 111 -272 193 -805 404 -427 170
-525 222 -487 260 12 13 78 0 587 -115z m5880 -439 c330 -5 656 -14 725 -20
698 -59 1346 -261 1859 -580 239 -148 503 -366 690 -568 814 -880 1296 -2243
1485 -4202 167 -1723 96 -4041 -170 -5590 -221 -1289 -566 -2260 -1065 -3000
-500 -743 -1174 -1227 -2009 -1444 -483 -126 -1093 -176 -2146 -176 l-544 0 2
7788 3 7787 45 6 c72 10 477 9 1125 -1z m2451 -30 c961 -76 1758 -405 2448
-1010 1143 -1004 1801 -2619 1961 -4810 61 -838 40 -1910 -61 -3115 -92 -1110
-257 -2077 -499 -2933 -271 -956 -665 -1759 -1148 -2342 -104 -125 -346 -368
-472 -475 -509 -430 -1112 -696 -1825 -804 -125 -19 -668 -71 -740 -71 l-31 0
20 28 c15 22 55 43 158 85 894 368 1684 1093 2313 2122 699 1145 1144 2692
1294 4495 215 2579 -105 4693 -949 6272 -215 402 -430 723 -711 1063 -133 161
-509 538 -669 671 -418 347 -831 596 -1277 769 -82 31 -148 59 -148 61 0 8
208 4 336 -6z"/>
<path d="M36274 26645 c-38 -7 -85 -20 -102 -29 -29 -15 -72 -68 -72 -89 0
-18 93 -105 138 -130 53 -29 164 -68 1457 -517 958 -332 1066 -376 1174 -475
71 -66 111 -132 143 -235 l23 -75 3 -7395 c2 -6593 0 -7401 -13 -7455 -45
-176 -153 -300 -350 -401 -194 -100 -187 -97 -1665 -598 -705 -239 -846 -301
-890 -392 -11 -22 -20 -46 -20 -52 0 -18 78 -70 134 -90 48 -16 337 -17 5191
-20 3494 -2 5174 1 5245 8 122 12 178 35 224 93 l31 39 -60 54 c-40 36 -97 73
-170 108 -114 56 -165 74 -1070 381 -1128 382 -1221 417 -1344 492 -137 85
-223 193 -278 348 l-28 80 -3 1544 c-3 1686 -5 1596 53 1697 13 22 96 123 186
225 89 101 569 649 1066 1217 497 568 918 1042 936 1052 42 26 86 25 128 -3
25 -17 256 -363 877 -1312 464 -710 1278 -1954 1809 -2765 531 -810 980 -1503
996 -1539 60 -128 38 -243 -68 -347 -109 -106 -121 -112 -1495 -784 -454 -222
-835 -410 -848 -418 -27 -17 -43 -70 -28 -94 5 -9 28 -27 50 -39 34 -19 62
-24 181 -30 206 -11 9683 -11 9785 1 47 5 109 14 138 20 l52 12 0 71 0 72 -63
33 c-233 125 -341 172 -667 293 -529 195 -1156 424 -1595 580 -391 140 -530
199 -660 279 -158 97 -319 239 -437 385 -31 39 -389 574 -795 1190 -407 616
-1637 2479 -2734 4140 -1097 1661 -2009 3044 -2027 3072 l-32 53 62 72 c35 40
925 1045 1978 2233 1054 1188 2147 2421 2429 2740 529 598 695 775 841 899
239 203 508 374 800 506 69 32 382 153 695 270 802 298 1691 634 1815 685 58
24 168 72 245 108 l140 64 3 55 3 55 -42 17 c-23 9 -69 24 -103 34 -57 15
-390 17 -4886 20 -3378 2 -4857 0 -4931 -8 -59 -6 -128 -18 -153 -26 -46 -16
-116 -71 -116 -92 0 -6 31 -35 70 -66 55 -43 102 -67 222 -115 197 -77 213
-83 1193 -391 1124 -353 1132 -356 1291 -456 213 -132 228 -289 46 -494 -184
-208 -6047 -6788 -6145 -6897 -135 -150 -163 -167 -230 -139 l-37 15 0 3518
c0 3867 -4 3589 61 3721 46 95 129 177 250 249 185 110 160 100 1464 543 765
259 872 298 1014 370 118 59 176 136 135 181 -29 32 -103 66 -169 78 -92 17
-10356 14 -10451 -4z m14098 -610 c1107 -237 1575 -344 1726 -396 224 -78 367
-166 422 -262 54 -94 36 -208 -52 -321 -18 -22 -125 -135 -238 -251 -596 -610
-6237 -6360 -6294 -6415 -88 -85 -105 -70 -28 25 111 137 3659 4346 4906 5820
363 429 677 804 698 834 21 29 47 78 58 108 70 187 -43 304 -450 463 -688 269
-893 356 -942 401 -24 21 -37 38 -31 39 7 0 108 -20 225 -45z m-10838 -166
c980 -250 1061 -275 1265 -388 118 -64 183 -127 226 -214 19 -40 40 -99 47
-132 16 -81 25 -14496 9 -14710 -18 -235 -65 -359 -181 -475 -81 -81 -209
-150 -392 -209 -333 -108 -1675 -481 -1729 -481 -61 0 -56 24 14 74 65 46 244
142 732 391 160 82 315 165 346 186 117 79 203 202 239 345 20 77 20 140 20
7408 0 4851 -4 7353 -10 7396 -16 100 -47 190 -89 250 -73 106 -137 146 -526
330 -131 61 -507 260 -535 283 -21 16 -60 68 -60 78 0 23 112 -1 624 -132z
m8192 -10257 c56 -62 988 -1169 3190 -3787 495 -588 937 -1115 983 -1170 142
-169 211 -292 211 -378 0 -73 -29 -128 -109 -207 -137 -136 -151 -142 -911
-432 -581 -221 -789 -298 -808 -298 -55 0 -26 34 202 240 129 116 305 271 392
346 169 144 215 193 246 263 27 58 21 146 -13 221 -14 30 -698 1065 -1519
2300 -1897 2852 -1953 2938 -1946 2955 9 24 18 18 82 -53z"/>
<path d="M4715 7213 c-16 -3 -38 -12 -47 -20 -17 -15 -18 -141 -18 -2380 l0
-2363 26285 0 26285 0 0 2329 c0 1280 -3 2349 -6 2374 -6 40 -11 47 -37 56
-21 8 -7907 11 -26231 10 -14411 -1 -26214 -4 -26231 -6z m26677 -733 c309
-65 574 -219 714 -416 93 -131 142 -273 151 -445 9 -163 36 -149 -302 -149
l-284 0 -11 58 c-31 164 -57 227 -122 298 -58 63 -117 100 -213 130 -335 107
-706 -64 -723 -334 -8 -114 48 -201 166 -257 84 -41 380 -136 601 -195 234
-62 305 -87 439 -153 279 -138 465 -359 527 -627 19 -82 19 -254 1 -341 -75
-353 -406 -667 -809 -769 -352 -89 -775 -50 -1072 97 -169 84 -321 210 -406
334 -101 149 -147 296 -156 491 l-6 126 44 7 c56 8 535 2 544 -7 4 -3 15 -53
25 -110 20 -118 39 -171 88 -246 94 -144 288 -223 547 -223 378 0 642 227 596
512 -17 104 -70 185 -161 245 -67 44 -327 131 -830 277 -372 108 -568 243
-675 462 -61 124 -79 221 -72 384 3 69 13 153 22 186 24 88 87 211 146 283
161 199 497 364 829 406 78 10 308 -4 402 -24z m-14991 10 c477 -47 859 -187
1187 -435 352 -265 555 -568 628 -941 24 -122 25 -385 1 -506 -78 -395 -313
-718 -722 -992 -423 -285 -918 -413 -1453 -377 -444 29 -748 122 -1074 328
-181 114 -268 182 -399 313 -222 221 -348 451 -406 738 -24 119 -24 375 0 494
80 396 334 756 717 1012 406 272 1007 417 1521 366z m32954 -15 c347 -53 723
-198 980 -376 209 -145 390 -352 489 -559 l36 -75 -312 -3 c-172 -1 -322 0
-334 3 -11 2 -68 51 -125 107 -58 57 -139 126 -180 155 -278 191 -654 286
-1013 255 -465 -40 -851 -229 -1085 -533 -325 -420 -288 -904 99 -1277 387
-373 988 -520 1520 -372 244 69 445 180 649 362 36 33 100 76 141 96 l74 37
286 -3 c205 -3 289 -7 297 -16 10 -9 1 -29 -43 -96 -121 -183 -292 -371 -439
-486 -295 -230 -651 -376 -1075 -441 -163 -25 -522 -25 -675 1 -231 38 -421
93 -620 181 -259 115 -425 225 -595 395 -240 240 -384 511 -435 819 -21 126
-16 383 10 501 39 177 116 354 223 515 85 127 298 343 432 438 271 190 663
333 1032 376 51 6 109 13 128 15 75 9 440 -4 535 -19z m-6655 -44 c14 -10 108
-117 210 -238 102 -121 483 -576 847 -1010 364 -433 689 -818 722 -853 l60
-65 1 1087 0 1086 93 7 c107 8 482 3 492 -6 17 -18 26 -471 31 -1584 3 -676 1
-1304 -3 -1395 l-8 -165 -240 0 c-132 0 -251 3 -265 7 -51 14 -48 11 -1310
1513 -524 624 -670 795 -681 795 -16 0 -19 -207 -19 -1222 l0 -1088 -300 0
-300 0 0 1560 0 1559 21 12 c40 21 114 25 369 21 223 -3 258 -6 280 -21z
m-30170 -1556 l0 -1575 -295 0 -295 0 0 669 0 668 -92 7 c-50 3 -419 6 -820 6
l-728 0 0 -674 0 -673 -61 -7 c-34 -3 -169 -6 -300 -6 l-239 0 0 1575 0 1575
295 0 295 0 0 -619 c0 -407 3 -622 10 -626 6 -3 54 -11 108 -18 120 -14 1368
-15 1457 -1 l60 9 3 622 2 623 23 5 c48 10 91 12 330 14 l247 1 0 -1575z
m8215 1566 c83 -14 59 24 468 -746 584 -1101 761 -1434 800 -1503 l41 -72 30
47 c46 74 784 1450 1081 2015 48 92 104 184 123 204 62 63 65 64 437 64 l335
0 0 -1570 0 -1570 -298 0 -299 0 -8 878 c-4 482 -10 964 -14 1071 l-6 195 -29
-45 c-39 -58 -497 -928 -970 -1842 -103 -198 -142 -249 -205 -268 -22 -6 -107
-9 -214 -7 l-179 3 -25 30 c-26 31 -45 66 -678 1286 -344 664 -431 819 -457
819 -4 0 -8 -479 -8 -1064 l0 -1063 -61 -7 c-34 -3 -166 -6 -294 -6 l-232 0
-7 88 c-32 422 -32 2972 0 3056 5 14 39 16 313 15 168 0 328 -4 356 -8z m7448
-7 l47 -6 0 -244 0 -244 -800 0 -800 0 0 -400 0 -400 770 0 770 0 0 -260 0
-260 -775 0 -775 0 0 -410 0 -410 805 0 805 0 0 -250 0 -250 -1110 0 -1110 0
0 1559 0 1560 43 6 c111 17 497 23 1257 19 454 -2 846 -6 873 -10z m11837
-1564 l0 -1570 -279 0 c-240 0 -280 2 -285 15 -26 67 -45 2624 -22 2988 l8
137 289 0 289 0 0 -1570z m-5450 -855 c0 -25 -511 -918 -547 -955 l-33 -35
-300 -3 -299 -3 15 51 c8 27 110 218 226 422 283 501 268 477 308 504 35 24
35 24 332 24 164 0 298 -2 298 -5z m18040 -359 l0 -354 -72 -7 c-40 -3 -170
-5 -288 -3 l-215 3 -3 358 -2 357 290 0 290 0 0 -354z"/>
<path d="M15936 5974 c-339 -46 -635 -189 -871 -421 -353 -345 -411 -807 -151
-1197 96 -144 292 -317 472 -416 322 -178 786 -238 1180 -151 311 68 553 191
739 376 111 109 171 193 230 317 145 307 110 651 -95 928 -65 88 -226 241
-322 308 -88 60 -242 139 -343 175 -236 84 -577 117 -839 81z"/>
</g>
</svg>
