<?xml version="1.0" encoding="utf-8"?>
<!-- Generator: Adobe Illustrator 19.2.1, SVG Export Plug-In . SVG Version: 6.00 Build 0)  -->
<!DOCTYPE svg PUBLIC "-//W3C//DTD SVG 1.1//EN" "http://www.w3.org/Graphics/SVG/1.1/DTD/svg11.dtd">
<svg version="1.1" id="Layer_1" xmlns="http://www.w3.org/2000/svg" xmlns:xlink="http://www.w3.org/1999/xlink" x="0px" y="0px"
	 viewBox="0 0 65 65" style="enable-background:new 0 0 65 65;" xml:space="preserve">
<style type="text/css">
	.st0{fill:#BDD63A;}
</style>
<g>
	<path class="st0" d="M61.9,12c0-0.4,0-0.7,0-1.1c0-0.4,0-0.7,0-1l-0.1-0.1V9.6V9.5c0-0.3-0.1-0.6-0.2-0.9c-0.1-0.3-0.3-0.6-0.4-0.8
		c-0.2-0.3-0.4-0.5-0.6-0.7c-0.2-0.2-0.5-0.4-0.7-0.5c0-0.1,0-0.1,0-0.1c0,0-0.1,0-0.1,0c-0.1,0-0.1-0.1-0.1-0.1c0,0-0.1,0-0.1,0
		c-2-1-4.1-1.9-6.2-2.7c-2.2-0.8-4.3-1.5-6.6-2c-2.2-0.5-4.5-0.9-6.9-1.2C37.3,0.1,34.9,0,32.5,0s-4.8,0.1-7.1,0.4
		c-2.4,0.3-4.7,0.7-6.9,1.2c-2.3,0.5-4.4,1.2-6.6,2C9.8,4.4,7.7,5.3,5.7,6.3c0,0.1,0,0.1,0,0.1c0,0-0.1,0-0.1,0c0,0-0.1,0-0.1,0
		c0,0-0.1,0-0.1,0C5,6.7,4.8,6.9,4.5,7.1C4.3,7.3,4.1,7.6,3.9,7.9C3.7,8.1,3.5,8.4,3.4,8.7c-0.1,0.3-0.1,0.7-0.1,1
		c-0.1,0.4-0.1,0.8-0.1,1.1c0,0.4,0,0.7,0,1.1c0,0.4,0,0.7,0,1c0,0.3,0,0.7,0,1.1c0,2.1,0.1,4.1,0.3,6.1c0.2,2,0.5,4,0.9,6
		c0.4,2,0.9,3.9,1.5,5.8c0.6,1.9,1.3,3.7,2.1,5.5C8,38,8.2,38.4,8.3,38.8c0.2,0.4,0.4,0.9,0.6,1.3c0.2,0.4,0.4,0.8,0.6,1.2
		c0.2,0.4,0.4,0.8,0.6,1.2c1.2,2.2,2.5,4.3,3.9,6.3c1.4,2,3,3.9,4.6,5.8c1.7,1.8,3.4,3.5,5.3,5.1c1.9,1.6,3.9,3,5.9,4.4
		c0,0.1,0,0.1,0.1,0.1c0.1,0,0.1,0.1,0.2,0.1c0.1,0,0.1,0.1,0.1,0.1c0,0,0.1,0.1,0.1,0.1c0.1,0.1,0.3,0.1,0.4,0.1
		c0.2,0,0.3,0.1,0.4,0.1C31.6,65,31.8,65,32,65c0.2,0,0.3,0,0.5,0c0.1,0,0.3,0,0.4,0c0.2,0,0.3,0,0.5,0c0.2,0,0.3-0.1,0.5-0.1
		c0.2-0.1,0.3-0.1,0.4-0.2c0.1-0.1,0.1-0.1,0.1-0.1c0,0,0.1-0.1,0.1-0.1c0.1,0,0.1-0.1,0.2-0.1c0.1,0,0.1-0.1,0.1-0.1
		c3.2-2.1,6.2-4.4,8.9-7.1c2.7-2.7,5.2-5.6,7.4-8.7c2.2-3.1,4.1-6.5,5.6-10.1c1.6-3.6,2.8-7.3,3.6-11.1c0.1-0.5,0.1-0.9,0.2-1.3
		c0.1-0.4,0.2-0.9,0.2-1.3c0.1-0.4,0.1-0.9,0.2-1.3c0.1-0.4,0.1-0.9,0.2-1.3c0.1-0.6,0.1-1.2,0.2-1.9c0.1-0.7,0.1-1.3,0.1-1.9
		c0-0.6,0.1-1.3,0.1-1.9c0-0.6,0-1.3,0-1.9c0-0.3,0-0.7,0-1C61.9,12.7,61.9,12.3,61.9,12z M56.5,12c0,0.1,0,0.3,0,0.4
		c0,0.2,0,0.3,0,0.5c0,0.2,0,0.3,0,0.5c0,0.2,0,0.3,0,0.4V14v0.1c0,0.7,0,1.3,0,2c0,0.7,0,1.3-0.1,2c-0.1,0.7-0.1,1.3-0.2,1.9
		C56.1,20.7,56,21.3,56,22c-0.1,0.5-0.1,0.9-0.2,1.4c-0.1,0.5-0.2,0.9-0.2,1.3c-0.1,0.4-0.1,0.9-0.2,1.3c-0.1,0.5-0.2,0.9-0.3,1.4
		c-0.3,1.2-0.7,2.4-1.1,3.6c-0.4,1.2-0.8,2.4-1.3,3.6c-0.5,1.2-1,2.3-1.5,3.5c-0.6,1.2-1.2,2.3-1.8,3.4c-0.9,1.5-1.8,3-2.9,4.5
		c-1.1,1.5-2.2,2.9-3.4,4.2c-1.2,1.3-2.5,2.6-3.8,3.8c-1.3,1.2-2.7,2.4-4.1,3.5c-0.1,0.1-0.2,0.1-0.3,0.2c-0.1,0.1-0.2,0.1-0.3,0.2
		c-0.1,0.1-0.2,0.2-0.3,0.2c-0.1,0.1-0.2,0.1-0.3,0.2l-0.1,0.1c-0.1,0.1-0.1,0.1-0.2,0.1c-0.1,0-0.2,0-0.2,0c-0.1,0-0.1,0-0.2,0
		c-0.1,0-0.2,0-0.2,0c-0.1,0-0.1,0-0.2,0c-0.1,0-0.2,0-0.3,0s-0.2,0-0.2,0c-0.1,0-0.1-0.1-0.2-0.1l-0.1-0.1
		c-0.1-0.1-0.2-0.1-0.3-0.2c-0.1-0.1-0.2-0.1-0.3-0.2c-0.1-0.1-0.2-0.2-0.3-0.2c-0.1-0.1-0.2-0.1-0.3-0.2c-1.4-1.1-2.8-2.3-4.1-3.5
		c-1.3-1.2-2.6-2.5-3.8-3.8c-1.2-1.3-2.4-2.7-3.4-4.2c-1.1-1.5-2-3-2.9-4.5c-0.1-0.1-0.1-0.3-0.2-0.4c-0.1-0.1-0.2-0.3-0.2-0.4
		c-0.1-0.1-0.1-0.2-0.2-0.3c-0.1-0.1-0.1-0.2-0.2-0.3c-0.2-0.4-0.4-0.8-0.6-1.2c-0.2-0.4-0.4-0.8-0.6-1.2c-0.2-0.4-0.4-0.8-0.6-1.2
		c-0.2-0.4-0.4-0.9-0.6-1.3c-0.7-1.7-1.3-3.3-1.8-5c-0.5-1.7-1-3.4-1.3-5.2C9.2,23,9,21.3,8.8,19.5c-0.2-1.8-0.2-3.6-0.2-5.4V14
		v-0.1c0-0.1,0-0.3,0-0.4c0-0.1,0-0.3,0-0.4c0-0.2,0-0.3,0-0.4c0-0.1,0-0.3,0-0.4v-0.1V12c0-0.1,0-0.1,0-0.2v-0.1
		c0-0.1,0-0.2,0.1-0.3c0.1-0.1,0.1-0.2,0.2-0.3c0.1-0.1,0.1-0.2,0.2-0.3c0.1-0.1,0.2-0.1,0.3-0.2c0-0.1,0-0.1,0-0.1c0,0,0.1,0,0.1,0
		c0,0,0,0,0,0c0,0,0,0,0.1,0c0.1-0.1,0.3-0.1,0.4-0.1c0.1,0,0.3-0.1,0.4-0.1c0.1-0.1,0.3-0.1,0.4-0.2c0.1-0.1,0.3-0.1,0.4-0.2
		c0.6-0.3,1.2-0.5,1.8-0.7c0.6-0.2,1.2-0.4,1.8-0.6c0.6-0.2,1.2-0.4,1.8-0.5c0.6-0.2,1.2-0.3,1.8-0.5c1.1-0.3,2.3-0.5,3.4-0.7
		c1.2-0.2,2.3-0.4,3.5-0.5c1.2-0.1,2.3-0.2,3.5-0.3c1.2-0.1,2.3-0.1,3.5-0.1s2.4,0,3.5,0.1c1.2,0.1,2.3,0.2,3.5,0.3
		C40.7,6,41.8,6.2,43,6.4c1.2,0.2,2.3,0.5,3.4,0.7c0.6,0.2,1.2,0.4,1.8,0.5c0.6,0.2,1.2,0.3,1.8,0.5c0.6,0.2,1.2,0.4,1.8,0.6
		c0.6,0.2,1.2,0.5,1.8,0.7c0.1,0.1,0.3,0.1,0.4,0.2c0.2,0.1,0.3,0.1,0.4,0.2c0.1,0.1,0.3,0.1,0.4,0.2c0.1,0.1,0.3,0.1,0.5,0.2
		c0.1,0.1,0.3,0.1,0.4,0.2c0.1,0.1,0.2,0.2,0.3,0.3c0.1,0.1,0.1,0.3,0.2,0.4C56.4,11.6,56.5,11.8,56.5,12L56.5,12z"/>
	<path class="st0" d="M53.3,14.2c0-0.1,0-0.2,0-0.3c-0.1-0.1-0.1-0.2-0.2-0.3c-0.1-0.1-0.1-0.2-0.1-0.3c0-0.1-0.1-0.2-0.2-0.3
		c-0.1-0.1-0.2-0.2-0.2-0.2c-0.1-0.1-0.1-0.1-0.2-0.1c-0.1,0-0.1-0.1-0.2-0.1c-0.1,0-0.1-0.1-0.2-0.1c-0.1,0-0.1-0.1-0.2-0.1
		c-0.5-0.2-1-0.4-1.5-0.6c-0.6-0.2-1.1-0.4-1.6-0.5c-0.5-0.2-1-0.3-1.6-0.5c-0.5-0.2-1-0.3-1.6-0.4c-1-0.3-2.1-0.6-3.2-0.8
		C41.2,9.3,40.1,9.1,39,9c-1.1-0.1-2.2-0.2-3.3-0.3c-1.1-0.1-2.2-0.1-3.3-0.1c-1.1,0-2.2,0-3.3,0.1l-6.5,0.8
		c-1.1,0.2-2.1,0.5-3.2,0.8c-0.5,0.1-1,0.3-1.6,0.4c-0.5,0.2-1.1,0.3-1.6,0.5c-0.6,0.2-1.1,0.3-1.6,0.5c-0.5,0.2-1,0.4-1.5,0.6
		c-0.1,0.1-0.1,0.1-0.2,0.1c-0.1,0-0.2,0.1-0.2,0.1c0,0-0.1,0.1-0.1,0.1c-0.1,0-0.1,0.1-0.2,0.1c-0.1,0.1-0.1,0.1-0.2,0.2
		c-0.1,0.1-0.2,0.2-0.2,0.3c0,0.1-0.1,0.2-0.1,0.3c-0.1,0.1-0.1,0.2-0.2,0.2c0,0.1,0,0.1,0,0.2c0,0.1,0,0.1,0,0.2c0,0.1,0,0.1,0,0.2
		c0,0.1,0,0.2,0,0.2c0,0.1,0,0.1,0,0.2c0,1.4,0.1,2.9,0.2,4.3c0.1,1.4,0.3,2.9,0.6,4.3c0.3,1.4,0.6,2.8,1,4.2
		c0.2,0.7,0.4,1.4,0.6,2.1l0,0l0,0c0.2,0.7,0.4,1.3,0.6,2c0.1,0.1,0.1,0.1,0.1,0.1c0,0,0,0.1,0,0.1c0,0.1,0,0.1,0.1,0.1
		c0,0.1,0.1,0.2,0.1,0.2c1.2,3,3.3,7.9,5.8,11.2c0,0,0,0.1,0.1,0.1c0.3,0.4,0.6,0.9,0.9,1.3c0.9,1.2,1.9,2.4,2.9,3.5
		c1,1.1,2.1,2.2,3.2,3.2c1.1,1,2.3,2,3.5,2.9l0.1,0.1l0.1,0.1c0.1,0.1,0.1,0.1,0.1,0.1c0,0,0.1,0,0.1,0c0,0,0,0,0,0.1
		c0.1,0,0.1,0,0.2,0c0.1,0,0.1,0,0.1,0c0,0,0.1,0,0.1,0c0.1,0,0.1,0,0.2,0c0.1,0,0.1,0,0.2,0c0.1,0,0.1,0,0.1,0c0,0,0.1,0,0.1,0
		c0.1,0,0.1,0,0.2,0c0-0.1,0-0.1,0-0.1c0,0,0.1,0,0.1,0c0,0,0.1,0,0.1-0.1l0.1-0.1l0.1-0.1c1.3-1,2.6-2,3.8-3.2
		c1.2-1.1,2.3-2.3,3.4-3.6c1.1-1.2,2.1-2.5,3-3.8c0.9-1.3,1.8-2.7,2.7-4.1c0.2-0.4,0.4-0.8,0.6-1.2l0,0c0,0,5.8-9.9,6.2-21.6
		c0-0.3,0-0.5,0-0.8c0-0.1,0-0.1,0-0.2c0-0.5,0-0.9,0-1.4c0-0.1,0-0.1,0-0.2c0-0.1,0-0.1,0-0.2C53.4,14.4,53.4,14.3,53.3,14.2z
		 M38.6,20.6C38.6,20.6,38.6,20.5,38.6,20.6c0-0.1,0-0.1,0-0.2c0,0,0,0,0-0.1v0l0,0c0.1-0.2,0.2-0.4,0.3-0.6
		c0.1-0.2,0.2-0.4,0.2-0.6c0.1-0.2,0.1-0.5,0.1-0.7c0-0.2,0-0.5,0-0.7c0-0.1,0-0.3,0-0.4c0-0.1,0-0.3,0-0.4c0-0.1,0-0.3-0.1-0.4
		c0-0.1-0.1-0.3-0.1-0.4c0,0,0,0,0,0c0,0,0,0,0,0c0,0,0-0.1,0-0.1c0,0,0,0,0,0c0,0,0,0,0,0c0,0,0,0,0-0.1c0-0.1,0-0.2,0-0.2
		c0-0.1,0.1-0.1,0.1-0.2c0.1-0.1,0.1-0.1,0.2-0.2c0.1,0,0.2-0.1,0.2-0.1h0h0c0.1,0,0.1,0,0.1,0c0,0,0.1,0,0.1,0c0,0,0,0,0.1,0
		c0.5,0,0.9,0.1,1.3,0.3c0.4,0.2,0.8,0.4,1.1,0.7c0.3,0.3,0.5,0.7,0.7,1.1c0.2,0.4,0.3,0.8,0.3,1.3c0,0.4-0.1,0.9-0.3,1.3
		c-0.2,0.4-0.4,0.8-0.7,1.1c-0.3,0.3-0.6,0.5-1.1,0.7c-0.4,0.2-0.8,0.3-1.3,0.3c-0.1,0-0.1,0-0.2,0c-0.1,0-0.1,0-0.2,0
		c-0.1,0-0.1,0-0.2,0c-0.1,0-0.1,0-0.2,0c0,0,0,0,0,0c0,0,0,0,0,0c0,0,0,0-0.1,0c-0.1,0-0.2-0.1-0.2-0.1c-0.1,0-0.1-0.1-0.2-0.2
		c0-0.1-0.1-0.1-0.1-0.2c0-0.1,0-0.1,0-0.2C38.6,20.7,38.6,20.6,38.6,20.6z M28.9,17.2c0-0.1,0-0.3,0.1-0.4c0-0.1,0.1-0.3,0.1-0.4
		c0-0.1,0.1-0.3,0.2-0.4c0.1-0.3,0.3-0.6,0.6-0.9c0.2-0.3,0.5-0.5,0.8-0.7c0.3-0.2,0.6-0.4,1-0.5c0.4-0.1,0.7-0.2,1.1-0.2
		c0.4,0,0.8,0.1,1.1,0.2c0.3,0.1,0.7,0.3,1,0.5c0.3,0.2,0.6,0.4,0.8,0.7c0.2,0.3,0.4,0.6,0.6,0.9c0,0.1,0.1,0.2,0.1,0.4
		c0,0.1,0.1,0.3,0.1,0.4c0,0.1,0.1,0.3,0.1,0.4c0,0.1,0,0.3,0,0.4c0,0.2,0,0.4-0.1,0.6c0,0.2-0.1,0.4-0.2,0.6
		c-0.1,0.2-0.1,0.4-0.2,0.6c-0.1,0.2-0.2,0.3-0.3,0.5c-0.2,0.2-0.4,0.5-0.6,0.6c-0.2,0.2-0.5,0.4-0.7,0.5c-0.3,0.1-0.6,0.2-0.8,0.3
		c-0.3,0.1-0.6,0.1-0.9,0.1c-0.3,0-0.6,0-0.9-0.1c-0.3-0.1-0.6-0.2-0.8-0.3c-0.3-0.1-0.5-0.3-0.7-0.5c-0.2-0.2-0.4-0.4-0.6-0.6
		c-0.1-0.1-0.2-0.3-0.3-0.5c-0.1-0.2-0.2-0.4-0.2-0.6c-0.1-0.2-0.1-0.4-0.2-0.6c0-0.2,0-0.4,0-0.6C28.9,17.4,28.9,17.3,28.9,17.2z
		 M21.8,16.9c0.2-0.4,0.4-0.8,0.7-1.1c0.3-0.3,0.7-0.6,1.1-0.7c0.4-0.2,0.8-0.3,1.3-0.3c0.1,0,0.1,0,0.1,0c0,0,0.1,0,0.1,0
		c0,0,0,0,0.1,0h0h0c0.1,0,0.2,0,0.2,0.1c0.1,0,0.1,0.1,0.2,0.2c0.1,0.1,0.1,0.1,0.1,0.2c0,0.1,0,0.2,0,0.2c0,0,0,0.1,0,0.1
		c0,0,0,0,0,0c0,0,0,0,0,0c0,0,0,0,0,0.1v0v0c-0.1,0.1-0.1,0.3-0.1,0.4c0,0.1-0.1,0.3-0.1,0.4c0,0.1-0.1,0.3-0.1,0.4
		c0,0.1,0,0.3,0,0.4c0,0.2,0,0.5,0.1,0.7c0,0.2,0.1,0.5,0.2,0.7c0.1,0.2,0.1,0.4,0.2,0.6c0.1,0.2,0.2,0.4,0.3,0.6v0l0,0
		c0,0,0,0.1,0,0.1c0,0,0,0.1,0,0.1c0,0,0,0,0,0.1c0,0,0,0.1,0,0.1c0,0.1,0,0.1,0,0.2c0,0.1-0.1,0.1-0.1,0.2c0,0.1-0.1,0.1-0.2,0.2
		c-0.1,0-0.1,0.1-0.2,0.1c0,0-0.1,0-0.1,0c0,0,0,0,0,0c0,0,0,0-0.1,0c-0.1,0-0.2,0-0.2,0c-0.1,0-0.1,0-0.2,0c-0.1,0-0.1,0-0.2,0
		c-0.1,0-0.1,0-0.2,0c-0.5,0-0.9-0.1-1.3-0.3c-0.4-0.2-0.8-0.4-1.1-0.7c-0.3-0.3-0.6-0.7-0.7-1.1c-0.2-0.4-0.3-0.8-0.3-1.3
		C21.5,17.7,21.6,17.3,21.8,16.9z M26.6,38.9L26.6,38.9c0,0.1,0,0.2,0,0.3c0,0.1-0.1,0.2-0.2,0.2c-0.1,0.1-0.2,0.1-0.2,0.2
		c-0.1,0-0.2,0-0.3,0h-2.2c-0.1,0-0.3,0-0.4,0c-0.1,0-0.2-0.1-0.3-0.2c-0.1-0.1-0.2-0.2-0.2-0.3c-0.1-0.1-0.1-0.2-0.1-0.3l0-0.1
		l-0.5-5.1v0v0c0-0.1-0.1-0.2-0.1-0.2c0-0.1-0.1-0.1-0.1-0.2c-0.1-0.1-0.1-0.1-0.2-0.1c-0.1,0-0.1,0-0.2,0h0h0h-0.3
		c-0.1,0-0.2,0-0.3-0.1c-0.1,0-0.2-0.1-0.3-0.2c-0.1-0.1-0.2-0.1-0.2-0.2c-0.1-0.1-0.1-0.2-0.1-0.3l0-0.2l-0.5-6.3
		c0-0.2,0-0.4,0.1-0.6c0.1-0.2,0.2-0.4,0.3-0.5c0.1-0.1,0.3-0.2,0.5-0.3c0.2-0.1,0.4-0.1,0.6-0.1h1.6c0.1,0,0.2,0,0.3,0
		c0.1,0,0.2,0.1,0.2,0.2c0.1,0.1,0.1,0.2,0.2,0.2c0,0.1,0.1,0.2,0.1,0.3v0l0,0v0c0,0,0,0.1,0,0.1c0,0.1-0.1,0.2-0.1,0.2
		c0,0.1,0,0.1,0,0.2c0,0.1,0,0.1,0,0.2c0,0.1,0,0.1,0,0.2c0,0,0,0.1,0,0.1c0,0,0,0,0,0c0,0,0,0,0,0l0.6,7.2l0,0.2v0c0,0,0,0.1,0,0.1
		c0.1,0.2,0.1,0.5,0.2,0.7c0.1,0.2,0.2,0.4,0.4,0.6c0.1,0.2,0.3,0.3,0.5,0.4c0.2,0.1,0.4,0.2,0.6,0.3c0,0,0,0,0,0c0,0,0,0,0,0
		c0.1,0,0.1,0.1,0.2,0.1c0.1,0,0.1,0.1,0.1,0.1c0,0.1,0.1,0.1,0.1,0.2c0,0.1,0.1,0.1,0.1,0.2v0.1L26.6,38.9L26.6,38.9z M38.2,33.3
		c0,0.1-0.1,0.3-0.1,0.4c-0.1,0.1-0.1,0.2-0.2,0.3c-0.1,0.1-0.2,0.1-0.4,0.2c-0.1,0.1-0.3,0.1-0.4,0.1h-0.4h0h0c-0.1,0-0.1,0-0.2,0
		c-0.1,0-0.1,0-0.2,0.1c-0.1,0-0.1,0.1-0.2,0.1c0,0-0.1,0.1-0.1,0.2c0,0,0,0.1,0,0.1c0,0,0,0,0,0c0,0,0,0.1,0,0.1v0v0l-0.6,6v0.2
		c0,0.1-0.1,0.3-0.2,0.4c-0.1,0.1-0.2,0.2-0.2,0.3c-0.1,0.1-0.2,0.2-0.3,0.2c-0.1,0-0.3,0.1-0.4,0.1h-3c-0.1,0-0.3,0-0.4-0.1
		c-0.1,0-0.2-0.1-0.3-0.2c-0.1-0.1-0.2-0.2-0.2-0.3c-0.1-0.1-0.1-0.2-0.1-0.4V41l-0.6-6v0v0c0,0,0-0.1,0-0.1c0,0,0,0,0,0
		c0,0,0,0,0,0c0,0,0,0,0-0.1c0-0.1-0.1-0.1-0.1-0.2c0,0-0.1-0.1-0.2-0.1c-0.1,0-0.1-0.1-0.2-0.1c-0.1,0-0.1,0-0.2,0h0h0h-0.3
		c-0.1,0-0.3,0-0.4-0.1c-0.1,0-0.2-0.1-0.3-0.2c-0.1-0.1-0.2-0.2-0.2-0.3c-0.1-0.1-0.1-0.2-0.1-0.4v-0.2l-0.7-7.2
		c0-0.2,0-0.5,0.1-0.7c0.1-0.2,0.2-0.4,0.4-0.5c0.2-0.1,0.4-0.3,0.6-0.4c0.2-0.1,0.4-0.1,0.7-0.1h8.8c0.2,0,0.5,0,0.7,0.1
		c0.2,0.1,0.4,0.2,0.5,0.4c0.1,0.1,0.3,0.3,0.4,0.5c0.1,0.2,0.1,0.4,0.1,0.7L38.2,33.3L38.2,33.3z M44.9,32.1L44.9,32.1
		c0,0.2-0.1,0.3-0.1,0.4c-0.1,0.1-0.1,0.2-0.2,0.3c-0.1,0.1-0.2,0.1-0.3,0.2C44.1,33,44,33,43.9,33h-0.3h0c-0.1,0-0.2,0-0.2,0
		c-0.1,0-0.1,0.1-0.2,0.1c0,0.1-0.1,0.1-0.1,0.2c0,0.1-0.1,0.1-0.1,0.2v0l-0.5,5.1v0.2c0,0.1-0.1,0.2-0.1,0.3
		c-0.1,0.1-0.1,0.2-0.2,0.3c-0.1,0.1-0.2,0.1-0.3,0.2c-0.1,0-0.2,0-0.3,0h-2.3c-0.1,0-0.2,0-0.3,0c-0.1,0-0.2-0.1-0.2-0.2
		c-0.1-0.1-0.1-0.2-0.2-0.2c0-0.1-0.1-0.2-0.1-0.3v0v0l0.4-2.5v-0.1c0-0.1,0-0.1,0-0.2c0-0.1,0.1-0.1,0.1-0.2c0,0,0.1-0.1,0.2-0.1
		c0.1,0,0.1-0.1,0.2-0.1v0h0c0.1,0,0.2-0.1,0.2-0.1c0.1,0,0.1-0.1,0.2-0.1c0.1,0,0.1-0.1,0.2-0.1c0.1,0,0.1-0.1,0.2-0.2
		c0.1-0.1,0.2-0.2,0.3-0.4c0.1-0.1,0.2-0.2,0.3-0.4c0.1-0.1,0.1-0.3,0.2-0.4c0-0.1,0.1-0.3,0.1-0.4v0v0v0v-0.1l0.7-7.2v0
		c0,0,0-0.1,0-0.1c0-0.1,0-0.1,0-0.2c0-0.1,0-0.1,0-0.2c0-0.1,0-0.1,0-0.2c0-0.1,0-0.1,0-0.2c0,0,0-0.1,0-0.1c0,0,0,0,0,0
		c0,0,0,0,0,0v0v0c0-0.1,0-0.2,0.1-0.3c0-0.1,0.1-0.2,0.2-0.2c0.1-0.1,0.1-0.1,0.2-0.2c0.1,0,0.2,0,0.3,0h1.6c0.2,0,0.4,0,0.6,0.1
		c0.2,0.1,0.3,0.2,0.5,0.3c0.1,0.1,0.3,0.3,0.3,0.5c0.1,0.2,0.1,0.4,0.1,0.6L44.9,32.1z"/>
</g>
</svg>
