<?xml version="1.0" encoding="utf-8"?>
<!-- Generator: Adobe Illustrator 16.0.0, SVG Export Plug-In . SVG Version: 6.00 Build 0)  -->
<!DOCTYPE svg PUBLIC "-//W3C//DTD SVG 1.1//EN" "http://www.w3.org/Graphics/SVG/1.1/DTD/svg11.dtd">
<svg version="1.1" id="Layer_1" xmlns="http://www.w3.org/2000/svg" xmlns:xlink="http://www.w3.org/1999/xlink" x="0px" y="0px"
	 width="432px" height="432px" viewBox="0 0 432 432" enable-background="new 0 0 432 432" xml:space="preserve">
<g>
	<defs>
		<polyline id="SVGID_1_" points="6.7,423 6.7,9 425.3,9 425.3,423 		"/>
	</defs>
	<clipPath id="SVGID_2_">
		<use xlink:href="#SVGID_1_"  overflow="visible"/>
	</clipPath>
	<path clip-path="url(#SVGID_2_)" fill="#4D4D4D" d="M421.2,215c0,112.7-91.4,204.1-204.1,204.1S13,327.8,13,215
		c0-112.7,91.4-204.1,204.1-204.1S421.2,102.3,421.2,215"/>
	<path clip-path="url(#SVGID_2_)" fill="#35B6BF" d="M272.3,18.5c0,1.1,0,2.2,0.1,3.3c0-1.1,0-2.2,0.1-3.3"/>
	<path clip-path="url(#SVGID_2_)" fill="#62B6A9" d="M172,15.9L172,15.9c0,0.5,0,1,0,1.5l0-0.3"/>
	<polyline clip-path="url(#SVGID_2_)" fill="#62BAA4" points="172,17.1 172,17.4 172,17.9 	"/>
	<path clip-path="url(#SVGID_2_)" fill="#19B7C7" d="M272.3,18.5l0,0.5v7.4c0-1.5,0.1-3,0.1-4.6C272.4,20.7,272.3,19.6,272.3,18.5"
		/>
	<polyline clip-path="url(#SVGID_2_)" fill="#1AB8C7" points="272.3,18.5 272.3,19 272.3,18.5 	"/>
	<path clip-path="url(#SVGID_2_)" fill="#92C63F" d="M172,17.9v7c0-1,0.1-2.1,0.1-3.1C172.1,20.5,172.1,19.2,172,17.9"/>
	<path clip-path="url(#SVGID_2_)" fill="#83C155" d="M172.1,15.9L172.1,15.9l0,1.2C172.1,16.7,172.1,16.3,172.1,15.9"/>
	<path clip-path="url(#SVGID_2_)" fill="#84C354" d="M172.1,15.9L172.1,15.9c-0.1,0.4-0.1,0.8-0.1,1.2v0.8c0,1.3,0,2.6,0.1,3.9
		c0-1.2,0.1-2.4,0.1-3.7C172.2,17.4,172.2,16.6,172.1,15.9"/>
	<path clip-path="url(#SVGID_2_)" fill="#7FC25B" d="M172.2,15.9L172.2,15.9c-0.1,0.8,0,1.5,0,2.2c0-0.5,0-1.1,0-1.6"/>
	<polyline clip-path="url(#SVGID_2_)" fill="#7DC25D" points="172.2,15.9 172.2,15.9 172.2,16.6 	"/>
	<path clip-path="url(#SVGID_2_)" fill="#A7B860" d="M172,15.9L172,15.9c-1,23.2-3.7,43.5-7.5,61.4c-4.3,20.1-10.1,37.2-16.8,51.7
		c-11.7,25.4-26,43.2-41,56.7c-11.3,10.1-23,17.7-34.6,23.5c-17.3,8.7-34,13.2-46.1,15.4c-5.2,0.9-9.5,1.5-12.7,1.8
		c1.7,30.9,10.2,59.9,24.1,85.6l-5.1-11.8c0,0,0.2-0.1,0.6-0.3c0.7-0.3,2.2-1,4.2-2.1c4-2.1,10.3-5.8,18.1-11.4
		c15.5-11.2,36.5-29.8,56.5-59.1c13.3-19.5,26.3-43.8,36.9-74.2c12.5-35.9,21.6-80.4,23.6-135.6C172,16.9,172,16.4,172,15.9"/>
	<path clip-path="url(#SVGID_2_)" fill="#A7B860" d="M126,294c-2.1,1.2-4.2,2.3-6.3,3.4c-24.3,12.6-47.3,19.7-65.9,23.8
		c-3.4,0.8-6.8,1.4-9.9,2C56,342.5,71.3,359.7,89,374c2-3.2,4.6-7.6,7.6-13.2C104.4,346.6,115.1,324.4,126,294"/>
	<path clip-path="url(#SVGID_2_)" fill="#B3CA40" d="M172,17.4c-1.9,55.3-11.1,99.7-23.6,135.6c-10.6,30.4-23.5,54.7-36.9,74.2
		c-20,29.3-41,47.9-56.5,59.1c-7.7,5.6-14,9.3-18.1,11.4c-2,1.1-3.4,1.8-4.2,2.1c-0.4,0.2-0.6,0.3-0.6,0.3l5.1,11.8
		c2.1,3.8,4.3,7.6,6.5,11.2c3.1-0.6,6.4-1.2,9.9-2c18.6-4.1,41.6-11.2,65.9-23.8c2.1-1.1,4.2-2.2,6.3-3.4c0.3-0.8,0.5-1.5,0.8-2.3
		c20.7-58.4,42.1-146.5,45.2-266.8v-7"/>
	<path clip-path="url(#SVGID_2_)" fill="#A7B860" d="M171.7,313.5c-4.9,5.8-9.7,11.1-14.6,16.2c-18.5,19.3-36.3,33.3-51,43.2
		c-3.6,2.4-7,4.6-10.2,6.5c22.2,16.3,47.7,28.3,75.5,34.6l0-1c0.1-18.9,0.1-47.1,0.2-84.5C171.7,323.7,171.7,318.7,171.7,313.5"/>
	<path clip-path="url(#SVGID_2_)" fill="#B3CA40" d="M171.8,261.8c-15.1,13.3-30.6,23.8-45.8,32.2c-10.9,30.4-21.6,52.5-29.4,66.8
		c-3.1,5.6-5.7,10-7.6,13.2c2.3,1.9,4.6,3.6,7,5.4c3.2-1.9,6.6-4.1,10.2-6.5c14.6-9.9,32.5-23.9,51-43.2c4.8-5,9.7-10.4,14.6-16.2
		C171.8,297.7,171.8,280.5,171.8,261.8"/>
	<path clip-path="url(#SVGID_2_)" fill="#B6D035" d="M172,24.9c-3.1,120.4-24.5,208.4-45.2,266.8c-0.3,0.8-0.5,1.5-0.8,2.3
		c15.2-8.4,30.8-18.9,45.8-32.2C171.9,199,172,119.9,172,24.9"/>
	<path clip-path="url(#SVGID_2_)" fill="#61A6B3" d="M272.5,18.6c2.2,59.3,12.7,106.1,26.7,143.1c15.8,41.8,36,71.4,54.9,92.6
		c12.7,14.1,24.8,24.4,34.7,31.6c6.2,4.5,11.6,7.9,15.6,10.2c9.5-22,15.3-45.9,16.5-71.1c-3.9-0.6-8.3-1.5-13.1-2.7
		c-12.1-3-26.6-8.1-41.3-16.2c-11-6.1-22.1-13.9-32.7-24.1c-7.9-7.6-15.6-16.6-22.8-27.3c-10.7-16.1-20.3-36.3-27.4-62.3
		c-5.6-20.6-9.6-45-11-73.8"/>
	<path clip-path="url(#SVGID_2_)" fill="#61A6B3" d="M318.5,294c13,36.2,25.8,60.8,33.5,74.2c15.3-13.5,28.6-29.3,39.3-46.9
		c-18.1-4-40.3-10.7-63.9-22.6C324.4,297.2,321.5,295.7,318.5,294"/>
	<path clip-path="url(#SVGID_2_)" fill="#39B1C2" d="M272.4,18.6c0,1.1,0,2.2-0.1,3.3c2.7,117.4,22.8,204.3,43,263.2
		c1.1,3.1,2.1,6.1,3.2,9c3,1.7,6,3.2,8.9,4.7c23.6,11.8,45.8,18.6,63.9,22.6c4.9-8.1,9.3-16.5,13.1-25.2c-4-2.3-9.4-5.6-15.6-10.2
		c-9.9-7.2-22.1-17.5-34.7-31.6c-19-21.2-39.2-50.8-54.9-92.6C285.2,124.6,274.7,77.8,272.4,18.6"/>
	<path clip-path="url(#SVGID_2_)" fill="#61A6B3" d="M272,312.6c-0.1,44.4-0.2,77.5-0.2,99.1c26.1-7.3,50.2-19.6,71-35.9
		c-3.8-2.5-7.8-5.2-12.1-8.3C313.4,355.1,292.6,337.2,272,312.6"/>
	<path clip-path="url(#SVGID_2_)" fill="#39B1C2" d="M272.1,261.3c0,18.5-0.1,35.6-0.1,51.3c20.7,24.6,41.4,42.5,58.7,55
		c4.2,3.1,8.3,5.8,12.1,8.3c3.1-2.5,6.2-5,9.2-7.7c-7.7-13.4-20.4-37.9-33.5-74.1C303.1,285.5,287.3,274.8,272.1,261.3"/>
	<path clip-path="url(#SVGID_2_)" fill="#1FB4C6" d="M272.4,21.8c0,1.5-0.1,3.1-0.1,4.6c0,94-0.1,172.5-0.2,235
		c15.2,13.5,31,24.2,46.4,32.7c-1.1-2.9-2.1-5.9-3.2-9C295.1,226.1,275,139.2,272.4,21.8"/>
	<path clip-path="url(#SVGID_2_)" fill="#8DB656" d="M222.2,322.5c-0.3,0.9-0.7,1.9-1,2.8c-14.8,41.7-29.9,71.8-40.6,90.6
		c11.8,2.1,23.9,3.2,36.3,3.2c15.7,0,31-1.8,45.7-5.1c-10.6-18.9-25.2-48.3-39.5-88.7C222.9,324.4,222.6,323.5,222.2,322.5"/>
	<path clip-path="url(#SVGID_2_)" fill="#91C143" d="M205.1,267.1c-10.7,17.6-22,33-33.4,46.4c0,5.2,0,10.2,0,15.1
		c-0.1,37.4-0.2,65.6-0.2,84.5v1c3,0.7,6.1,1.3,9.2,1.9c10.7-18.8,25.7-48.8,40.6-90.6c0.3-0.9,0.7-1.8,1-2.8
		C216.4,305.9,210.6,287.4,205.1,267.1"/>
	<path clip-path="url(#SVGID_2_)" fill="#92C63F" d="M197.4,235.9c-7.2,8.4-14.7,16.1-22.4,23.1c-1.1,1-2.1,1.9-3.2,2.8
		c0,18.7-0.1,35.9-0.1,51.7c11.3-13.4,22.6-28.8,33.4-46.4C202.5,257.1,199.9,246.7,197.4,235.9"/>
	<path clip-path="url(#SVGID_2_)" fill="#93C73D" d="M172.1,21.8c0,1.1,0,2.1-0.1,3.1c0,94.9-0.1,174-0.2,236.9
		c1.1-0.9,2.1-1.9,3.2-2.8c7.7-7,15.2-14.7,22.4-23.1C184,177.5,173.9,106.2,172.1,21.8"/>
	<path clip-path="url(#SVGID_2_)" fill="#81BD5B" d="M239.3,267.1c-5.5,20.3-11.3,38.8-17.1,55.5c0.3,0.9,0.7,1.9,1,2.8
		c14.3,40.4,28.9,69.8,39.5,88.7c3-0.7,6-1.5,9-2.3c0.1-21.6,0.2-54.7,0.2-99.1c-7.3-8.7-14.7-18.3-21.8-28.8
		C246.5,278.5,242.9,272.9,239.3,267.1"/>
	<path clip-path="url(#SVGID_2_)" fill="#83C155" d="M222.2,236c-5.5,11-11.2,21.4-17.1,31.1c5.5,20.3,11.3,38.8,17.1,55.5
		c5.8-16.7,11.6-35.1,17.1-55.5C233.4,257.4,227.7,247,222.2,236"/>
	<path clip-path="url(#SVGID_2_)" fill="#84C354" d="M212.9,215.8c-5,7.1-10.2,13.8-15.6,20.1c2.5,10.8,5.1,21.2,7.7,31.2
		c5.9-9.7,11.6-20.1,17.1-31.1C219,229.5,215.9,222.8,212.9,215.8"/>
	<path clip-path="url(#SVGID_2_)" fill="#84C454" d="M172.2,18.1c0,1.2-0.1,2.4-0.1,3.7c1.8,84.4,11.9,155.7,25.3,214.1
		c5.4-6.3,10.6-13,15.6-20.1c-4.1-9.5-8-19.5-11.6-29.9C185.2,139.4,174.2,83.8,172.2,18.1"/>
	<path clip-path="url(#SVGID_2_)" fill="#7DC05C" d="M247.1,235.9c-2.5,10.8-5.1,21.2-7.8,31.2c3.5,5.8,7.2,11.4,10.8,16.8
		c7.2,10.5,14.5,20,21.8,28.8c0-15.7,0.1-32.8,0.1-51.3c-0.4-0.3-0.7-0.7-1.1-1C262.8,253,254.8,244.9,247.1,235.9"/>
	<path clip-path="url(#SVGID_2_)" fill="#7EC15B" d="M231.5,215.8c-3,7-6.1,13.7-9.3,20.1c5.5,11,11.2,21.4,17.1,31.1
		c2.7-10,5.3-20.3,7.8-31.2C241.7,229.6,236.5,222.9,231.5,215.8"/>
	<path clip-path="url(#SVGID_2_)" fill="#7FC25B" d="M222.2,201.7c-2.8,4.6-5.7,9-8.7,13.3l-0.6,0.8c3,7,6.1,13.7,9.3,20.1
		c3.2-6.5,6.3-13.2,9.3-20.1C228.3,211.3,225.2,206.6,222.2,201.7"/>
	<path clip-path="url(#SVGID_2_)" fill="#7FC25B" d="M172.2,16.6c0,0.5,0,1.1,0,1.6c2.1,65.7,13,121.3,29.2,167.8
		c3.6,10.4,7.5,20.4,11.6,29.9l0.6-0.8c3-4.3,5.9-8.7,8.7-13.3c-5.9-9.6-11.4-19.8-16.4-30.7c-9.9-21.5-18-45.7-23.8-72.5
		C176.7,73.5,173.3,46.3,172.2,16.6"/>
	<path clip-path="url(#SVGID_2_)" fill="#7CC15D" d="M272.2,26.4c-2,82.4-12,152.2-25.2,209.5c7.7,9,15.7,17.1,23.9,24.4
		c0.4,0.3,0.7,0.7,1.1,1C272.2,198.8,272.2,120.4,272.2,26.4"/>
	<path clip-path="url(#SVGID_2_)" fill="#7DC25D" d="M272.2,19c-2.4,74.4-16.3,135.9-36.2,185.8c-1.5,3.7-3,7.4-4.6,11
		c5,7.1,10.2,13.8,15.6,20.1c13.1-57.4,23.1-127.1,25.2-209.5"/>
	<path clip-path="url(#SVGID_2_)" fill="#7DC25D" d="M272.2,18.5c-1.5,38.7-7,73.1-15.6,103.7c-8.6,30.3-20.4,56.8-34.3,79.6
		c3,4.9,6.1,9.6,9.3,14.1c1.6-3.6,3.1-7.3,4.6-11C256,154.9,269.8,93.4,272.2,19L272.2,18.5"/>
	<path clip-path="url(#SVGID_2_)" fill="#7DC25D" d="M217,10.9c-15.4,0-30.4,1.7-44.8,4.9l0,0.7c1.1,29.8,4.5,57,9.8,81.9
		c5.8,26.9,13.9,51,23.8,72.5c5,10.9,10.5,21.2,16.4,30.7c14-22.7,25.8-49.2,34.3-79.6c8.6-30.5,14.1-64.9,15.6-103.7
		C254.6,13.6,236.1,10.9,217,10.9"/>
	<path clip-path="url(#SVGID_2_)" fill="#00BAD5" d="M216.1,175.9c0.1-0.4,0.2-0.7,0.3-1c0,0,0-0.1,0-0.1c1.8-7.2-0.9-14-8.8-18.2
		c-7.8-4.1-15.9-3.4-22.3-1.1c0.6-6.1-1-11.2-9.5-15.7c-7.8-4.1-15.4-3.5-21.6-1.3l-3.5,6.7c6.5-1.6,12.1-1.2,16.8,1.3
		c5.6,2.9,5.4,8.3,2.2,13.4c-3.1,4.9-5.5,7.8-5.5,7.8c2.4-0.5,13.7-3.1,23.6-4.9c4.8-0.9,10.3-0.3,15.5,2.6
		c5.9,3.3,11.2,9.1,9.8,16.2C213.8,180.8,215.2,178.8,216.1,175.9"/>
	<path clip-path="url(#SVGID_2_)" fill="#00BAD5" d="M152.4,258.1c0.2-0.3,0.5-0.6,0.7-0.8c0,0,0-0.1,0.1-0.1
		c4.5-5.9,4.7-13.2-0.9-20.2c-5.5-6.9-13.3-9.4-20.1-9.8c3-5.3,3.5-10.7-2.5-18.2c-5.5-6.8-12.8-9.3-19.4-9.7l-5.9,4.8
		c6.6,1.1,11.6,3.7,14.9,7.8c4,4.9,1.7,9.7-3.3,13.1c-4.7,3.3-8.1,5-8.1,5c2.4,0.5,13.8,2.6,23.6,4.9c4.7,1.1,9.6,3.8,13.2,8.5
		c4.1,5.3,6.7,12.8,2.6,18.8C148.3,261.6,150.4,260.3,152.4,258.1"/>
	<path clip-path="url(#SVGID_2_)" fill="#00BAD5" d="M72.7,309.3c0.3-0.2,0.6-0.4,0.9-0.6c0,0,0.1,0,0.1-0.1
		c6.2-4.2,8.6-11.1,5.4-19.5c-3.2-8.2-9.8-13-16.1-15.5c4.5-4.2,6.7-9.1,3.2-18.1c-3.1-8.2-9.3-12.8-15.4-15.2l-7.1,2.7
		c5.9,3.1,9.9,7.1,11.8,12c2.3,5.9-1.4,9.8-7.2,11.5c-5.5,1.6-9.3,2.3-9.3,2.3c2.2,1.2,12.3,6.7,21,11.9c4.2,2.5,8,6.6,10,12.2
		c2.3,6.3,2.4,14.3-3.3,18.7C67.7,311.4,70.1,310.9,72.7,309.3"/>
	<path clip-path="url(#SVGID_2_)" fill="#B9D532" d="M226.8,175.9c-0.1-0.4-0.2-0.7-0.3-1c0,0,0-0.1,0-0.1c-1.8-7.2,0.9-14,8.8-18.2
		c7.8-4.1,15.9-3.4,22.3-1.1c-0.6-6.1,1-11.2,9.5-15.7c7.8-4.1,15.4-3.5,21.6-1.3l3.5,6.7c-6.5-1.6-12.1-1.2-16.8,1.3
		c-5.6,2.9-5.4,8.3-2.2,13.4c3.1,4.9,5.5,7.8,5.5,7.8c-2.4-0.5-13.7-3.1-23.6-4.9c-4.8-0.9-10.3-0.3-15.5,2.6
		c-5.9,3.3-11.2,9.1-9.8,16.2C229.2,180.8,227.8,178.8,226.8,175.9"/>
	<path clip-path="url(#SVGID_2_)" fill="#B9D532" d="M290.6,258.1c-0.2-0.3-0.5-0.6-0.7-0.8c0,0,0-0.1-0.1-0.1
		c-4.5-5.9-4.7-13.2,0.9-20.2c5.5-6.9,13.3-9.4,20.1-9.8c-3-5.3-3.5-10.7,2.5-18.2c5.5-6.8,12.8-9.3,19.4-9.7l5.9,4.8
		c-6.6,1.1-11.6,3.7-14.9,7.8c-4,4.9-1.7,9.7,3.3,13.1c4.7,3.3,8.1,5,8.1,5c-2.4,0.5-13.8,2.6-23.6,4.9c-4.7,1.1-9.6,3.8-13.2,8.5
		c-4.1,5.3-6.7,12.8-2.6,18.8C294.7,261.6,292.6,260.3,290.6,258.1"/>
	<path clip-path="url(#SVGID_2_)" fill="#B9D532" d="M370.3,309.3c-0.3-0.2-0.6-0.4-0.9-0.6c0,0-0.1,0-0.1-0.1
		c-6.2-4.2-8.6-11.1-5.4-19.5c3.2-8.2,9.8-13,16.1-15.5c-4.5-4.2-6.7-9.1-3.2-18.1c3.1-8.2,9.3-12.8,15.4-15.2l7.1,2.7
		c-5.9,3.1-9.9,7.1-11.8,12c-2.3,5.9,1.4,9.8,7.2,11.5c5.5,1.6,9.3,2.3,9.3,2.3c-2.2,1.2-12.3,6.7-21,11.9c-4.2,2.5-8,6.6-10,12.2
		c-2.3,6.3-2.4,14.3,3.3,18.7C375.3,311.4,372.9,310.9,370.3,309.3"/>
	<path clip-path="url(#SVGID_2_)" fill="#FFFFFF" d="M265.3,72c-0.1-0.4-0.2-0.9-0.2-1.3c0,0,0-0.1,0-0.1
		c-2.1-8.6-8.6-14.1-19.2-14.1c-10.4,0-18.5,5.3-23.9,11.2c-2.7-6.7-7.2-11.2-18.7-11.2c-10.4,0-18.1,4.8-23.3,10.6V76
		c5.9-5.2,12-7.9,18.2-7.9c7.5,0,10.2,5.7,9.6,12.8c-0.5,6.8-1.4,11.2-1.4,11.2c2.2-1.9,12.6-10.8,22-18.2c4.5-3.6,10.6-6,17.6-5.9
		c7.9,0.2,16.8,3.4,19.2,11.5C265.5,78.4,265.9,75.5,265.3,72"/>
	<path clip-path="url(#SVGID_2_)" fill="none" stroke="#000000" stroke-width="1.856" stroke-miterlimit="10" d="M421.2,215
		c0,112.7-91.4,204.1-204.1,204.1S13,327.8,13,215c0-112.7,91.4-204.1,204.1-204.1S421.2,102.3,421.2,215"/>
</g>
</svg>
