<?xml version="1.0" encoding="utf-8"?>
<!-- Generator: Adobe Illustrator 19.2.0, SVG Export Plug-In . SVG Version: 6.00 Build 0)  -->
<svg version="1.2" baseProfile="tiny" id="Layer_1" xmlns="http://www.w3.org/2000/svg" xmlns:xlink="http://www.w3.org/1999/xlink"
	 x="0px" y="0px" viewBox="0 0 231 297" xml:space="preserve">
<path fill="#FFFFFF" d="M208.9,86.7c0,0,3.7,8.5-10.2,8.9c-6.9,0.2-11.4,3.4-14.3,6.5c0.8-1.9,1.6-3.9,2.4-6
	c0.6-1.6,1.1-3.2,1.6-4.8c0,0.1,0,0.2,0,0.2c16.4-1.8,10-6.8,19.9-13.8c10-7,2.2-11.6,2.2-11.6s5.2,7.2-7.7,10.1
	c-8.5,1.9-12,8-13.5,11.8c1.1-4.6,1.7-8.9,1.8-13c13.7-4.6,7.2-8,14.9-16.2c7.9-8.4-0.3-11.2-0.3-11.2s6.3,5.8-5.1,10.8
	c-5.9,2.6-8.5,7.1-9.6,10.8c-0.3-3.4-0.8-6.6-1.6-9.7c12-6.8,5.2-8.8,10.7-17.9c5.6-9.2-2.5-10.4-2.5-10.4s7,4.2-2.6,11
	c-5.6,4-6.8,9.3-6.8,13.1c-1.2-3.5-2.6-6.7-4.3-9.6c10.2-8.8,3.3-9.3,6.7-18.8c3.4-9.6-4.4-9.2-4.4-9.2s7.3,2.6-0.2,10.7
	c-5.2,5.6-4.3,11.8-3.3,15.1c-1.9-3.1-3.9-5.9-6-8.4c7.8-10,1.2-9.3,2.4-18.7c1.2-9.6-6-7.7-6-7.7s7.4,1.1,2,10
	c-3.7,6-1.7,11.5-0.1,14.5c-2.3-2.6-4.6-4.8-6.7-6.7c6.6-10,0.5-8.8,0.9-17.9c0.5-9.1-6.2-6.9-6.2-6.9s7.1,0.6,2.6,9.4
	c-3.2,6.3-0.5,11.7,1.3,14.2c-1.6-1.4-3.1-2.5-4.2-3.3c-3.6-11.4-6.7-6.2-13.6-12.4c-6.9-6.3-10.9-4-10.9-4s6.4-0.8,10.5,8.2
	c3.7,8.3,12.7,8.4,14,8.4c1.4,1.2,3.4,3,5.6,5.2c-2.2-1-8.8-3.3-15,1.5c-7.6,5.9-9.6-0.3-9.6-0.3s-0.7,6.4,8,4
	c8.7-2.4,8.9,3.3,17.2-4.7c2.3,2.4,4.9,5.4,7.4,8.8c-2.9-1.5-8.1-3.1-13.8-0.3c-9.1,4.5-9.9-2.2-9.9-2.2s-2.2,6.4,7.4,5.8
	c9.2-0.7,8.5,4.9,18-0.9c2,3.1,4,6.5,5.6,10.2c-2.6-2.2-7.7-5.4-14.7-3.5c-10.4,2.8-9.7-4.3-9.7-4.3s-3.7,6.2,6.3,7.4
	c9.7,1.2,7.6,6.9,19,2.6c1.6,3.9,2.9,8.2,3.6,12.8c-1.7-2.6-6.4-8.3-15.1-7.7c-11.3,0.8-9-6.4-9-6.4s-5.2,5.7,4.9,9
	c9.9,3.3,6.2,8.8,19.5,6.5c0.6,4.4,0.7,9,0.2,13.8c-1.2-3.1-4.9-9.7-13.8-10.8c-11.8-1.5-7.9-8.4-7.9-8.4s-6.6,4.8,3,10.2
	c9.4,5.4,4.5,10.3,18.4,10.6c-0.6,4-1.6,8.1-3.1,12.4c-1-3.8-3.8-9.6-11.4-12.1c-11.9-3.9-6.2-10.3-6.2-10.3s-7.8,3.6,0.8,11.2
	c8.3,7.2,2.7,11.3,15.6,14.5c-1.6,3.9-3.2,7.7-5,11.3c-0.5-4.1-2.4-9.8-9-13.6c-11.3-6.5-4.1-11.9-4.1-11.9s-8.9,2.1-1.6,11.7
	c6.9,9.1,0.3,12.2,12.6,18c-2.3,4.3-4.8,8.2-7.5,11.9c0.7-4.3,0.5-11.3-6.1-17c-10.3-9-1.6-13.1-1.6-13.1s-9.6,0.4-4.3,11.7
	c5.2,11-2.7,12.7,9.6,21.5c-3.6,4.5-7.6,8.6-11.8,12.2c1.9-3.8,4.7-12.3-1.6-20.7c-8.6-11.3,1.3-13.8,1.3-13.8s-10-1.6-7,11.2
	c2.9,12.6-5.8,12.5,5.6,24.7c-4.7,3.7-9.8,6.9-15.4,9.5c2.9-3.7,8-12.3,3.1-22.8c-6.6-14.1,4.6-14.7,4.6-14.7s-10.5-3.8-10.2,10.7
	c0.2,14.2-9.2,12.4,0.2,27.9c-5.7,2.5-11.8,4.3-18.3,5.7c-6.5-1.3-12.6-3.2-18.3-5.7c9.4-15.6,0-13.7,0.2-27.9
	c0.2-14.5-10.2-10.7-10.2-10.7s11.2,0.6,4.6,14.7c-4.9,10.5,0.1,19.1,3.1,22.8c-5.5-2.6-10.6-5.8-15.4-9.5
	c11.4-12.2,2.7-12.2,5.6-24.7c3-12.8-7-11.2-7-11.2s9.8,2.5,1.3,13.8c-6.3,8.4-3.5,16.8-1.6,20.7c-4.3-3.6-8.2-7.6-11.8-12.2
	c12.2-8.9,4.4-10.5,9.6-21.5c5.3-11.3-4.3-11.7-4.3-11.7s8.6,4.1-1.6,13.1c-6.5,5.7-6.8,12.7-6.1,17c-2.7-3.7-5.2-7.7-7.5-11.9
	c12.2-5.8,5.7-8.9,12.6-18c7.3-9.6-1.6-11.7-1.6-11.7s7.2,5.4-4.1,11.9c-6.6,3.8-8.5,9.5-9,13.6c-1.8-3.6-3.4-7.3-5-11.3
	c12.9-3.2,7.3-7.2,15.6-14.5c8.7-7.6,0.8-11.2,0.8-11.2s5.6,6.4-6.2,10.3c-7.6,2.5-10.4,8.3-11.4,12.1c-1.5-4.3-2.5-8.4-3.1-12.4
	c13.9-0.4,9-5.3,18.4-10.6c9.6-5.4,3-10.2,3-10.2s4,6.9-7.9,8.4C50.6,70,47,76.5,45.8,79.6c-0.5-4.8-0.4-9.5,0.2-13.8
	c13.3,2.3,9.6-3.2,19.5-6.5c10-3.3,4.9-9,4.9-9s2.3,7.2-9,6.4c-8.8-0.6-13.5,5.1-15.1,7.7c0.7-4.6,2-8.8,3.6-12.8
	c11.4,4.3,9.3-1.4,19-2.6c10-1.2,6.3-7.4,6.3-7.4s0.7,7.1-9.7,4.3c-7-1.9-12.1,1.3-14.7,3.5c1.7-3.7,3.6-7.1,5.6-10.2
	c9.5,5.8,8.7,0.2,18,0.9c9.6,0.7,7.4-5.8,7.4-5.8s-0.8,6.7-9.9,2.2C66.1,33.7,61,35.3,58,36.9c2.5-3.5,5-6.4,7.4-8.8
	c8.3,8,8.5,2.3,17.2,4.7c8.8,2.4,8-4,8-4S88.5,34.9,81,29c-6.2-4.8-12.8-2.5-15-1.5c2.2-2.3,4.2-4,5.6-5.2c1.3,0,10.2-0.1,14-8.4
	c4-9,10.5-8.2,10.5-8.2s-4-2.3-10.9,4c-6.9,6.2-10,1-13.6,12.4c-1.1,0.8-2.6,1.9-4.2,3.3c1.8-2.5,4.5-7.9,1.3-14.2
	c-4.5-8.8,2.6-9.4,2.6-9.4s-6.7-2.2-6.2,6.9c0.5,9.1-5.7,7.9,0.9,17.9c-2.1,1.8-4.4,4.1-6.7,6.7c1.6-2.9,3.6-8.4-0.1-14.5
	c-5.4-8.9,2-10,2-10s-7.2-1.9-6,7.7c1.2,9.5-5.3,8.7,2.4,18.7c-2.1,2.5-4.1,5.3-6,8.4c1.1-3.3,2-9.5-3.3-15.1
	C40.7,20.5,48,17.8,48,17.8s-7.8-0.5-4.4,9.2c3.4,9.5-3.5,10.1,6.7,18.8c-1.6,3-3.1,6.2-4.3,9.6c0-3.7-1.2-9.1-6.8-13.1
	c-9.6-6.8-2.6-11-2.6-11s-8.2,1.1-2.5,10.4c5.5,9.1-1.3,11.1,10.7,17.9c-0.8,3.1-1.4,6.3-1.6,9.7c-1.1-3.7-3.6-8.1-9.6-10.8
	c-11.4-5.1-5.1-10.8-5.1-10.8s-8.2,2.8-0.3,11.2C35.8,67,29.3,70.5,43,75c0.1,4.1,0.7,8.5,1.8,13c-1.4-3.9-5-9.9-13.5-11.8
	c-12.9-2.9-7.7-10.1-7.7-10.1s-7.8,4.6,2.2,11.6c10,7,3.6,12,19.9,13.8c0,0,0-0.1,0-0.2c0.5,1.6,1,3.1,1.6,4.8c0.8,2,1.6,4,2.4,6
	c-2.8-3.1-7.4-6.3-14.3-6.5c-13.9-0.4-10.2-8.9-10.2-8.9s-7,6.3,4.8,11.5c11.6,5.1,6.5,11.4,22.7,10.3c2,4,4.2,7.8,6.5,11.3
	c-3.4-3.3-9.6-7.2-18.4-5.7c-14.4,2.4-12.5-7.1-12.5-7.1s-5.8,7.9,7.5,10.9c13.2,3,9.2,10.6,26.1,5.9c3,4.2,6.1,7.9,9.4,11.3
	c-4-2.8-11.7-6.5-21.3-2.9c-14.3,5.4-14.4-4.8-14.4-4.8s-4.2,9.3,10.2,9.7c14.3,0.4,11.8,9.1,28.4,0.7c4.1,3.9,8.3,7.3,12.5,10.2
	c-4.8-2.1-13.5-4.3-22.6,1.4c-13.6,8.5-15.9-2-15.9-2s-2.3,10.5,12.7,8c14.9-2.5,14.2,7,29.4-5.1c6.2,3.8,12.2,6.6,17.7,8.6
	c-6.6,0.8-13.6,1-21,0.8c0,0,7.9,4.1,14.1,4.7c0,0,6.5-0.1,16.2-2.6c9.6,2.5,16.2,2.6,16.2,2.6c6.2-0.5,14.1-4.7,14.1-4.7
	c-7.4,0.2-14.4,0-21-0.8c5.5-2,11.6-4.8,17.7-8.6c15.2,12.1,14.5,2.6,29.4,5.1c15,2.5,12.7-8,12.7-8s-2.4,10.5-15.9,2
	c-9.1-5.7-17.8-3.5-22.6-1.4c4.2-2.9,8.4-6.2,12.5-10.2c16.5,8.4,14-0.3,28.4-0.7c14.4-0.4,10.2-9.7,10.2-9.7s-0.1,10.2-14.4,4.8
	c-9.6-3.6-17.3,0-21.3,2.9c3.2-3.4,6.4-7.1,9.4-11.3c16.9,4.7,12.9-2.9,26.1-5.9c13.4-3,7.5-10.9,7.5-10.9s1.9,9.5-12.5,7.1
	c-8.8-1.5-15,2.4-18.4,5.7c2.3-3.5,4.4-7.2,6.5-11.3c16.1,1.1,11.1-5.1,22.7-10.3C215.9,92.9,208.9,86.7,208.9,86.7z"/>
<g>
	<path fill="#FFFFFF" d="M17.4,191.9c0.6-1.7,0.8-2,1.1-2c0.3,0,0.5,0.2,1.1,1.8c0.8,1.9,8.6,22.6,11.7,30.2
		c1.8,4.5,3.3,5.3,4.3,5.6c0.8,0.2,1.5,0.3,2,0.3c0.3,0,0.5,0,0.5,0.3c0,0.3-0.5,0.4-1,0.4c-0.8,0-4.4,0-7.9-0.1c-1,0-1.5,0-1.5-0.3
		c0-0.2,0.1-0.3,0.4-0.4c0.3-0.1,0.6-0.5,0.3-1.4L23.7,214c-0.1-0.2-0.2-0.3-0.5-0.3H12.5c-0.2,0-0.4,0.2-0.5,0.4L9,223
		c-0.5,1.3-0.7,2.5-0.7,3.4c0,1,1.1,1.5,1.9,1.5h0.5c0.4,0,0.5,0.1,0.5,0.3c0,0.3-0.3,0.4-0.8,0.4c-1.2,0-3.4-0.1-3.9-0.1
		c-0.6,0-3.3,0.1-5.7,0.1c-0.6,0-1-0.1-1-0.4c0-0.2,0.2-0.3,0.5-0.3c0.4,0,1.1-0.1,1.5-0.1c2.3-0.3,3.3-2.2,4.2-4.7L17.4,191.9z
		 M22.6,211.9c0.3,0,0.3-0.2,0.2-0.4L18,198.1c-0.3-0.8-0.5-0.8-0.8,0l-4.4,13.5c-0.1,0.3,0,0.4,0.1,0.4H22.6z"/>
	<path fill="#FFFFFF" d="M42.3,225.6c0-1.2,0.8-2.8,2.8-2.8c1.6,0,2.8,1,2.8,2.6c0,1.6-1.1,2.9-2.8,2.9
		C43.1,228.3,42.3,226.8,42.3,225.6z"/>
	<path fill="#FFFFFF" d="M78.1,214c0,4.8,0,8.8,0.2,10.9c0.2,1.5,0.5,2.6,2,2.8c0.7,0.1,1.8,0.2,2.3,0.2c0.3,0,0.4,0.2,0.4,0.3
		c0,0.2-0.3,0.4-0.8,0.4c-2.8,0-5.9-0.1-6.2-0.1c-0.3,0-3.4,0.1-4.9,0.1c-0.6,0-0.8-0.1-0.8-0.4c0-0.1,0.1-0.3,0.4-0.3
		c0.5,0,1.1-0.1,1.5-0.2c1-0.2,1.3-1.3,1.5-2.8c0.2-2.1,0.2-6.1,0.2-10.9v-21.2l-7.4,0.1c-3.1,0.1-4.3,0.4-5.1,1.6
		c-0.6,0.9-0.7,1.2-0.9,1.6c-0.2,0.4-0.3,0.5-0.5,0.5c-0.1,0-0.2-0.1-0.2-0.5c0-0.5,1-4.8,1.1-5.2c0.1-0.3,0.3-1,0.5-1
		c0.4,0,0.9,0.5,2.2,0.6c1.5,0.1,3.4,0.2,4,0.2h18.8c1.6,0,2.8-0.1,3.6-0.2c0.8-0.1,1.2-0.3,1.4-0.3c0.2,0,0.2,0.3,0.2,0.6
		c0,1.5-0.1,5-0.1,5.5c0,0.4-0.1,0.7-0.4,0.7c-0.2,0-0.4-0.2-0.4-0.9l0-0.5c-0.1-1.5-1.4-2.7-6.2-2.8l-6.3-0.1V214z"/>
	<path fill="#FFFFFF" d="M108.6,217.4c0-2.3-0.3-3.2-1-4.4c-0.3-0.7-6.3-10.1-7.8-12.4c-1-1.6-2.1-2.6-2.9-3.1
		c-0.7-0.4-1.5-0.6-1.9-0.6c-0.2,0-0.5-0.2-0.5-0.4c0-0.2,0.2-0.3,0.6-0.3c0.9,0,4.2,0.1,4.4,0.1c0.3,0,2.1-0.1,3.8-0.1
		c0.5,0,0.6,0.1,0.6,0.3c0,0.2-0.3,0.3-0.7,0.5c-0.4,0.1-0.6,0.3-0.6,0.7c0,0.6,0.3,1.1,0.6,1.7l8,13.3c0.9-1.8,6.4-10.9,7.2-12.3
		c0.5-1,0.8-1.7,0.8-2.2c0-0.6-0.2-1-0.7-1.1c-0.4-0.1-0.7-0.3-0.7-0.5c0-0.1,0.2-0.2,0.7-0.2c1.2,0,2.7,0.1,3.1,0.1
		c0.3,0,3.5-0.1,4.3-0.1c0.3,0,0.6,0.1,0.6,0.2c0,0.2-0.2,0.5-0.6,0.5c-0.5,0-1.3,0.2-2.1,0.6c-0.8,0.5-1.2,0.9-2.2,2.1
		c-1.5,1.7-7.7,11.7-8.6,13.5c-0.8,1.5-0.5,2.9-0.5,4.3v3.7c0,0.7,0,2.5,0.1,4.3c0.1,1.2,0.4,2.1,1.7,2.2c0.6,0.1,1.6,0.2,2,0.2
		c0.2,0,0.4,0.2,0.4,0.3c0,0.2-0.2,0.3-0.7,0.3c-2.5,0-5.3-0.1-5.6-0.1c-0.2,0-3,0.1-4.3,0.1c-0.5,0-0.7-0.1-0.7-0.3
		c0-0.2,0.1-0.3,0.3-0.3c0.4,0,0.9-0.1,1.3-0.2c0.9-0.2,1.2-1,1.3-2.2c0.1-1.8,0.1-3.6,0.1-4.3V217.4z"/>
	<path fill="#FFFFFF" d="M136.7,222.7c0.1,3.5,0.5,4.6,1.7,4.9c0.8,0.2,1.8,0.2,2.2,0.2c0.2,0,0.4,0.2,0.4,0.3
		c0,0.2-0.3,0.3-0.8,0.3c-2.5,0-4.3-0.1-4.7-0.1c-0.4,0-2.2,0.1-4.3,0.1c-0.5,0-0.7,0-0.7-0.3c0-0.2,0.2-0.3,0.3-0.3
		c0.4,0,1.2-0.1,1.8-0.2c1.1-0.3,1.3-1.5,1.3-5.3v-24.4c0-1.7,0.2-2.2,0.6-2.2c0.5,0,1.2,0.9,1.7,1.3c0.7,0.7,7.1,7.5,13.9,14.5
		c4.4,4.5,9.1,9.6,10.4,11l-0.5-21.3c0-2.8-0.3-3.7-1.7-4c-0.8-0.1-1.8-0.2-2.2-0.2c-0.3,0-0.4-0.2-0.4-0.4c0-0.2,0.4-0.3,0.9-0.3
		c2,0,4.1,0.1,4.6,0.1s2-0.1,3.8-0.1c0.4,0,0.8,0,0.8,0.3c0,0.2-0.2,0.4-0.5,0.4c-0.2,0-0.5,0-1.1,0.1c-1.5,0.3-1.5,1.2-1.5,3.7
		l-0.1,24.9c0,2.8,0,3.1-0.4,3.1c-0.4,0-0.9-0.3-3.4-2.6c-0.5-0.4-6.8-6.7-11.5-11.5c-5.1-5.4-10.1-10.6-11.4-12.1L136.7,222.7z"/>
	<path fill="#FFFFFF" d="M176.1,208.6c0-6.6,0-7.8-0.1-9.2c-0.1-1.5-0.4-2.2-1.8-2.4c-0.4,0-1.1-0.1-1.5-0.1c-0.1,0-0.4-0.2-0.4-0.3
		c0-0.2,0.2-0.4,0.7-0.4c2,0,4.9,0.1,5.1,0.1c0.3,0,9.5,0,10.5,0c0.8-0.1,1.7-0.2,2-0.2c0.2-0.1,0.4-0.2,0.6-0.2
		c0.2,0,0.2,0.2,0.2,0.4c0,0.3-0.2,0.8-0.3,2c-0.1,0.4-0.2,2.3-0.2,2.8c-0.1,0.2-0.2,0.5-0.4,0.5c-0.2,0-0.4-0.2-0.4-0.5
		c0-0.3,0-1-0.2-1.5c-0.3-0.7-0.8-1-3.2-1.3c-0.8-0.1-5.9-0.1-6.4-0.1c-0.2,0-0.2,0.1-0.2,0.5v11.6c0,0.3,0,0.4,0.2,0.4
		c0.5,0,6.4,0,7.4-0.1c1.1-0.1,1.7-0.2,2.2-0.6c0.3-0.3,0.5-0.6,0.7-0.6c0.1,0,0.2,0.1,0.2,0.3s-0.2,1-0.4,2.4
		c-0.1,0.8-0.2,2.5-0.2,2.8c0,0.4-0.1,0.8-0.4,0.8c-0.2,0-0.3-0.2-0.3-0.4c0-0.4,0-0.8-0.2-1.4c-0.2-0.6-0.6-1.1-2.3-1.3
		c-1.2-0.1-5.9-0.2-6.7-0.2c-0.2,0-0.3,0.2-0.3,0.3v3.6c0,1.5-0.1,6.4,0,7.3c0.1,2.9,0.9,3.4,5.3,3.4c1.2,0,3.2,0,4.4-0.5
		c1.2-0.5,1.8-1.2,2-3c0.1-0.5,0.2-0.7,0.4-0.7s0.3,0.4,0.3,0.7c0,0.3-0.4,3.2-0.6,4.1c-0.3,1.1-0.8,1.1-2.5,1.1
		c-3.3,0-5.9-0.1-7.7-0.1c-1.9-0.1-3-0.1-3.7-0.1c-0.1,0-1,0-1.9,0c-0.9,0.1-1.9,0.1-2.6,0.1c-0.5,0-0.7-0.1-0.7-0.3
		c0-0.2,0.1-0.3,0.4-0.3c0.4,0,1-0.2,1.4-0.2c0.8-0.1,1-1,1.2-2.2c0.2-1.8,0.2-5.1,0.2-9.2V208.6z"/>
	<path fill="#FFFFFF" d="M203.1,208.6c0-6.6,0-7.8-0.1-9.2c-0.1-1.5-0.4-2.2-1.8-2.4c-0.4,0-1.1-0.1-1.5-0.1c-0.1,0-0.3-0.2-0.3-0.3
		c0-0.2,0.2-0.4,0.7-0.4c2,0,5,0.1,5.2,0.1c0.5,0,4.2-0.1,5.5-0.1c2.8,0,5.9,0.2,8.2,1.9c1.1,0.8,3.1,2.9,3.1,5.8
		c0,3.2-1.3,6.2-5.4,9.7c3.6,4.5,6.7,8.4,9.2,11c2.4,2.4,3.8,2.8,4.9,3c0.9,0.2,1.3,0.2,1.6,0.2s0.4,0.2,0.4,0.3
		c0,0.2-0.2,0.3-1.1,0.3h-2.8c-2.5,0-3.6-0.2-4.7-0.8c-1.9-1-3.5-3.1-6-6.3c-1.9-2.3-3.8-5.1-4.8-6.2c-0.2-0.2-0.3-0.2-0.6-0.2
		l-5.6-0.1c-0.2,0-0.3,0.1-0.3,0.3v1c0,4.1,0,7.4,0.2,9.2c0.1,1.2,0.4,2.1,1.8,2.2c0.6,0.1,1.6,0.2,2,0.2c0.3,0,0.4,0.2,0.4,0.3
		c0,0.2-0.2,0.3-0.7,0.3c-2.4,0-5.2-0.1-5.4-0.1c0,0-3,0.1-4.4,0.1c-0.5,0-0.7-0.1-0.7-0.3c0-0.2,0.1-0.3,0.3-0.3
		c0.4,0,1-0.1,1.4-0.2c0.8-0.2,0.9-1,1.2-2.2c0.2-1.8,0.2-5.1,0.2-9.2V208.6z M206.9,212.2c0,0.2,0.1,0.4,0.3,0.6
		c0.6,0.3,2.9,0.7,4.9,0.7c1,0,2.2-0.1,3.3-0.8c1.5-1,2.7-3.3,2.7-6.5c0-5.3-2.9-8.4-7.6-8.4c-1.3,0-2.7,0.1-3.2,0.2
		c-0.2,0.1-0.3,0.2-0.3,0.5V212.2z"/>
</g>
<g>
	<path fill="#FFFFFF" d="M32,256.5l-2.1,4.9h-2.1l8.1-18.3l7.8,18.3h-2.2l-2.1-4.9H32z M35.7,247.7l-3,7h5.9L35.7,247.7z"/>
	<path fill="#FFFFFF" d="M54.9,243.2l13.6,14.2V244h1.9v18.2L56.8,248v13.4h-1.9V243.2z"/>
	<path fill="#FFFFFF" d="M88,261.4H86v-15.6h-4.2V244h10.4v1.8H88V261.4z"/>
	<path fill="#FFFFFF" d="M105.4,261.4h-1.9V244h1.9V261.4z"/>
	<path fill="#FFFFFF" d="M131.7,260c-1.4,1.1-3.5,1.7-5.3,1.7c-5,0-9.1-4-9.1-9c0-5,4.1-9,9.1-9c5,0,9.1,4.1,9.1,9.1
		c0,2.4-0.9,4.4-2.5,6.2l2.6,2.7h-2.5L131.7,260z M131.7,257.5c1.3-1.4,1.9-3,1.9-4.8c0-4-3.1-7.2-7.1-7.2c-4,0-7.1,3.3-7.1,7.2
		c0,3.9,3.2,7.2,7.1,7.2c1.3,0,2.8-0.5,3.9-1.3l-4.2-4.2h2.5L131.7,257.5z"/>
	<path fill="#FFFFFF" d="M149.3,254.4c0,1.3,0,2.8,0.8,3.9c0.8,1.1,2.2,1.7,3.5,1.7c1.2,0,2.6-0.6,3.4-1.5c0.9-1.1,0.9-2.6,0.9-4
		V244h1.9v10.9c0,1.9-0.1,3.4-1.5,4.8c-1.2,1.3-2.9,2-4.7,2c-1.6,0-3.3-0.6-4.5-1.8c-1.5-1.5-1.7-3.1-1.7-5V244h1.9V254.4z"/>
	<path fill="#FFFFFF" d="M172.5,244h9v1.8h-7.1v5.2h6.9v1.8h-6.9v6.8h7.1v1.8h-9V244z"/>
	<path fill="#FFFFFF" d="M202,247.4c-0.7-1.2-1.5-1.9-3-1.9c-1.6,0-2.9,1.1-2.9,2.7c0,1.5,1.6,2.2,2.7,2.7l1.2,0.5
		c2.3,1,4.2,2.1,4.2,4.9c0,3.1-2.5,5.4-5.5,5.4c-2.8,0-4.9-1.8-5.4-4.5l1.9-0.5c0.3,1.8,1.6,3.2,3.5,3.2c1.9,0,3.6-1.4,3.6-3.4
		c0-2-1.6-2.7-3.2-3.5l-1.1-0.5c-2-0.9-3.8-2-3.8-4.5c0-2.7,2.3-4.4,4.9-4.4c1.9,0,3.6,1,4.5,2.7L202,247.4z"/>
</g>
</svg>
