<?xml version="1.0"?><svg width="5000" height="5000" xmlns="http://www.w3.org/2000/svg" xmlns:xlink="http://www.w3.org/1999/xlink">
 <defs>
  <linearGradient id="linearGradient4098">
   <stop stop-color="#ffb142" offset="0" id="stop4100"/>
   <stop stop-color="#c87600" offset="1" id="stop4104"/>
  </linearGradient>
  <linearGradient gradientTransform="matrix(0.6414802,0,0,0.778051,125.3732,117.52892)" xlink:href="#linearGradient4098" id="linearGradient3211" y2="0.676297" x2="0.75476" y1="0.676297" x1="0.409772"/>
  <linearGradient xlink:href="#linearGradient4098" id="linearGradient3327" y2="0.533092" x2="-0.736838" y1="0.533092" x1="-0.736836"/>
  <linearGradient xlink:href="#linearGradient4098" id="linearGradient3329" y2="0.533092" x2="-0.140348" y1="0.533092" x1="-0.140346"/>
  <linearGradient xlink:href="#linearGradient4098" id="linearGradient3331" y2="0.533092" x2="-1.350873" y1="0.533092" x1="-1.350871"/>
  <linearGradient xlink:href="#linearGradient4098" id="linearGradient3333" y2="0.533092" x2="1.964916" y1="0.533092" x1="1.964918"/>
  <linearGradient xlink:href="#linearGradient4098" id="linearGradient3335" y2="0.533092" x2="2.561407" y1="0.533092" x1="2.561409"/>
  <linearGradient xlink:href="#linearGradient4098" id="linearGradient3337" y2="0.533092" x2="1.350881" y1="0.533092" x1="1.350883"/>
 </defs>
 <g>
  <title>Layer 1</title>
  <g id="layer1">
   <path fill="url(#linearGradient3337)" fill-rule="nonzero" stroke="#000000" stroke-width="40" stroke-linecap="round" stroke-linejoin="round" stroke-miterlimit="4" id="path3226" d="m2444.974121,4501.975586a178.043869,287.666534 0 1 1-356.087646,0a178.043869,287.666534 0 1 1356.087646,0z"/>
   <path fill="url(#linearGradient3335)" fill-rule="nonzero" stroke="#000000" stroke-width="40" stroke-linecap="round" stroke-linejoin="round" stroke-miterlimit="4" id="path3228" d="m2013.920776,4501.975586a178.043869,287.666534 0 1 1-356.087769,0a178.043869,287.666534 0 1 1356.087769,0z"/>
   <path fill="url(#linearGradient3333)" fill-rule="nonzero" stroke="#000000" stroke-width="40" stroke-linecap="round" stroke-linejoin="round" stroke-miterlimit="4" id="path3230" d="m2226.32373,4501.975586a178.043869,287.666534 0 1 1-356.087524,0a178.043869,287.666534 0 1 1356.087524,0z"/>
   <path fill="url(#linearGradient3331)" fill-rule="nonzero" stroke="#000000" stroke-width="40" stroke-linecap="round" stroke-linejoin="round" stroke-miterlimit="4" id="path3224" d="m3407.035889,4501.975586a178.043869,287.666534 0 1 1-356.087646,0a178.043869,287.666534 0 1 1356.087646,0z"/>
   <path fill="url(#linearGradient3329)" fill-rule="nonzero" stroke="#000000" stroke-width="40" stroke-linecap="round" stroke-linejoin="round" stroke-miterlimit="4" id="path3220" d="m2975.982422,4501.975586a178.043869,287.666534 0 1 1-356.087891,0a178.043869,287.666534 0 1 1356.087891,0z"/>
   <path fill="url(#linearGradient3327)" fill-rule="nonzero" stroke="#000000" stroke-width="40" stroke-linecap="round" stroke-linejoin="round" stroke-miterlimit="4" id="path3222" d="m3188.385498,4501.975586a178.043869,287.666534 0 1 1-356.087646,0a178.043869,287.666534 0 1 1356.087646,0z"/>
   <path fill="#000000" fill-opacity="0.313725" fill-rule="nonzero" stroke-width="40" stroke-linecap="round" stroke-miterlimit="4" id="path3250" d="m1835.876831,4214.267578c-72.546753,0 -134.692383,70.347656 -162.425903,171.016113c237.03064,63.399414 497.450195,100.380859 771.133057,105.42041c-3.728027,-153.489746 -81.748779,-276.436523 -177.653564,-276.436523c-41.242432,0 -79.130371,22.833496 -109.325195,60.910156c-30.195068,-38.07666 -68.082764,-60.910156 -109.325195,-60.910156c-39.803833,0 -76.540649,21.30127 -106.201416,57.005859c-29.660889,-35.70459 -66.397583,-57.005859 -106.201782,-57.005859zm962.061646,0c-95.658936,0 -173.554688,122.325195 -177.653564,275.265137c273.382813,-8.799805 532.455566,-49.771484 767.618896,-116.743652c-29.326416,-93.902344 -89.422852,-158.521484 -158.911621,-158.521484c-41.242676,0 -79.130371,22.833496 -109.325195,60.910156c-30.195313,-38.07666 -68.083008,-60.910156 -109.325195,-60.910156c-39.804199,0 -76.541016,21.30127 -106.201904,57.005859c-29.660645,-35.70459 -66.397461,-57.005859 -106.201416,-57.005859z"/>
   <path fill="#784421" fill-rule="nonzero" stroke="#000000" stroke-width="40" stroke-linecap="round" stroke-miterlimit="4" id="path2385" d="m4577.23291,2301.878906a2068.609375,2068.609375 0 1 1-4137.219452,0a2068.609375,2068.609375 0 1 14137.219452,0z"/>
   <path fill="#ffffff" fill-rule="nonzero" stroke="#000000" stroke-width="40" stroke-linecap="round" stroke-linejoin="round" stroke-miterlimit="4" id="path3167" d="m3531.128906,3336.182861c-331.098877,-61.51709 -28.078857,270.265869 -78.848145,390.231445c-200.700439,-98.685059 -124.227051,228.021484 -214.984619,318.778809c-171.969971,-9.197021 -198.813232,164.215576 -318.778564,214.984131c-144.953613,-80.420898 -251.839111,78.848633 -390.231201,78.848633c-138.392334,0 -220.288818,-153.022461 -390.231445,-78.848633c-119.964844,-50.768555 -146.808228,-217.934326 -318.77832,-214.984131c-90.757446,-90.757324 -76.755493,-436.205566 -214.984741,-318.778809c-50.769043,-119.965576 183.531738,-476.736084 -78.848389,-390.231445c0,-138.391846 277.965576,-395.209229 78.848389,-390.230957c50.768921,-119.965332 305.394775,-209.279785 214.984741,-318.778809c181.514282,-181.514893 432.225098,-293.833008 709.009766,-293.833008c276.784424,0 527.495605,112.318115 709.009766,293.833008c-134.139893,65.768555 164.216064,198.813477 214.984619,318.778809c-224.105713,-11.225342 78.848145,251.839111 78.848145,390.230957z"/>
   <path fill="#000000" fill-opacity="0.313725" fill-rule="evenodd" stroke-width="40" stroke-miterlimit="4" id="path3211" d="m4336.300293,1332.768311c24.746582,127.847412 37.873535,259.699707 37.873535,394.742065c0,46.602295 -1.646484,92.771362 -4.685547,138.608765c-45.88623,-2.284058 -94.685547,0.237915 -146.808105,7.808838c-439.99292,93.690674 -252.051758,645.506836 -366.629883,1222.880371c-379.106445,428.913574 -933.442627,699.290771 -1550.46582,699.290771c-379.49292,0 -735.060303,-102.543701 -1040.931641,-281.121826c-295.855286,-692.716797 100.906616,-1445.149414 -420.511536,-1575.063721c-576.118439,-104.019531 -799.266773,430.50708 -426.758698,1231.470215c205.668549,442.226318 546.287323,659.446289 796.902557,743.801758c354.380737,284.875 804.531372,455.26123 1294.332031,455.26123c574.107666,0 1093.966309,-234.13623 1468.862061,-612.220947c218.06958,-108.918457 460.559326,-307.297119 629.010498,-639.161865c315.01123,-620.603516 254.692871,-1087.984619 -68.328125,-1217.414063c-39.605469,-201.608276 -108.275391,-392.844727 -201.861328,-568.881592z"/>
   <path fill="#784421" fill-rule="evenodd" stroke="#000000" stroke-width="40" stroke-miterlimit="4" id="path3169" d="m842.411743,1839.349976c601.116089,216.151978 -176.962341,1176.247681 472.523926,2013.97937c120.050049,154.845215 -723.020142,26.122803 -1021.069519,-831.933594c-289.846922,-834.441895 -14.148193,-1343.626465 548.545593,-1182.045776z"/>
   <path fill="#784421" fill-rule="evenodd" stroke="#000000" stroke-width="40" stroke-miterlimit="4" id="path3800" d="m4171.427734,1839.349976c-601.116943,216.151978 176.961914,1176.247681 -472.524658,2013.97937c-120.049805,154.845215 723.020264,26.122803 1021.070068,-831.933594c289.84668,-834.441895 14.147949,-1343.626465 -548.54541,-1182.045776z"/>
   <path fill="#784421" fill-rule="evenodd" stroke="#000000" stroke-width="40" stroke-linecap="round" stroke-linejoin="round" stroke-miterlimit="4" id="path2413" d="m3950.587646,1726.308105c167.282471,-57.586426 340.108154,94.755249 373.144775,177.168579c-168.82666,-43.133667 -246.383301,-55.296997 -290.097656,-17.251099c18.825684,42.123779 217.503906,84.235474 279.089844,360.725098c-155.289063,-107.658936 -278.66748,-232.089111 -328.255859,-180.957031c36.003174,62.894775 77.45874,181.135498 49.522461,298.374268c-89.228516,-117.751953 -180.402588,-242.12085 -264.148926,-245.486084"/>
   <path fill="#ffffff" fill-rule="nonzero" stroke="#000000" stroke-width="40" stroke-linecap="round" stroke-miterlimit="4" id="path2387" d="m1934.497559,705.104492c-390.25293,0 -707.219604,366.475342 -707.219604,818.023682c0,451.547852 316.966675,818.023193 707.219604,818.023193c229.341064,0 432.857422,-126.703125 562.053467,-322.720703c129.187012,196.159424 333.146729,322.720703 562.584961,322.720703c390.25293,0 707.219238,-366.475342 707.219482,-818.023193c0,-451.54834 -316.966553,-818.023682 -707.219482,-818.023682c-229.411621,0 -433.395752,126.600159 -562.584961,322.721313c-129.198486,-195.975464 -332.741455,-322.721313 -562.053467,-322.721313z"/>
   <path fill="#000000" fill-opacity="0.313725" fill-rule="evenodd" stroke-width="40" stroke-miterlimit="4" id="path3407" d="m2517.974854,2090.835205c-116.047119,0 -242.185059,129.031494 -237.139404,210.524902c5.04541,81.493652 206.866455,421.050781 252.276123,421.050781c45.409668,0 222.002686,-332.765381 216.95752,-427.841553c-5.045898,-95.076172 -156.411621,-210.525879 -232.094238,-203.734131z"/>
   <path fill="url(#linearGradient3211)" fill-rule="evenodd" stroke="#000000" stroke-width="40" stroke-miterlimit="4" id="path2391" d="m2491.470459,1958.284668c-116.046875,0 -242.185059,116.274414 -237.139648,189.710693c5.045654,73.436768 206.866699,379.422363 252.276123,379.422363c45.409668,0 222.003174,-299.865967 216.957275,-385.541504c-5.045166,-85.676514 -156.410889,-189.711548 -232.09375,-183.591553z"/>
   <path fill="#000000" fill-rule="nonzero" stroke="#000000" stroke-width="40" stroke-linecap="round" stroke-miterlimit="4" id="path2411" d="m2451.874023,1578.466919a204.745605,204.745605 0 1 1-409.491211,0a204.745605,204.745605 0 1 1409.491211,0z"/>
   <path fill="#784421" fill-rule="evenodd" stroke="#000000" stroke-width="40" stroke-linecap="round" stroke-linejoin="round" stroke-miterlimit="4" id="path3193" d="m1059.898804,1726.308105c-167.28241,-57.586426 -340.108032,94.755249 -373.144897,177.168579c168.826599,-43.133667 246.383179,-55.296997 290.097595,-17.251099c-18.825684,42.123779 -217.503967,84.235474 -279.089355,360.725098c155.288879,-107.658936 278.667175,-232.089111 328.25531,-180.957031c-36.003174,62.894775 -77.458374,181.135498 -49.521912,298.374268c89.227844,-117.751953 180.401917,-242.12085 264.148621,-245.486084"/>
   <path fill="#ffffff" fill-rule="evenodd" stroke="#000000" stroke-width="40" stroke-linejoin="round" stroke-miterlimit="4" id="path3283" d="m2669.503662,842.775635c165.873291,-401.813538 445.616943,-456.207336 445.616943,-456.207336c0,0 -155.595459,209.59613 -14.667969,151.290588c218.216797,-90.282043 912.043701,192.641052 912.043701,192.641052c0,0 -919.261719,-213.9776 -1342.992676,112.275696z"/>
   <path fill="#ffffff" fill-rule="evenodd" stroke="#000000" stroke-width="40" stroke-linejoin="round" stroke-miterlimit="4" id="path3285" d="m2289.162842,805.29303c-165.873291,-401.813843 -445.616577,-456.207642 -445.616577,-456.207642c0,0 155.595459,209.59613 14.668213,151.290649c-218.216919,-90.282135 -912.043884,192.640991 -912.043884,192.640991c0,0 919.26178,-213.9776 1342.992249,112.276001z"/>
   <path fill="#000000" fill-rule="nonzero" stroke="#000000" stroke-width="40" stroke-linecap="round" stroke-miterlimit="4" id="path3301" d="m2970.387695,1578.466919a204.745605,204.745605 0 1 1-409.491211,0a204.745605,204.745605 0 1 1409.491211,0z"/>
   <path fill="#ffffff" fill-rule="nonzero" stroke-width="40" stroke-linejoin="round" stroke-miterlimit="4" id="path3341" d="m2226.32373,1506.763428a53.100803,53.100803 0 1 1-106.201416,0a53.100803,53.100803 0 1 1106.201416,0z"/>
   <path fill="#ffffff" fill-rule="nonzero" stroke-width="40" stroke-linejoin="round" stroke-miterlimit="4" id="path3343" d="m2744.837646,1506.763428a53.100803,53.100803 0 1 1-106.20166,0a53.100803,53.100803 0 1 1106.20166,0z"/>
   <path fill="#000000" fill-opacity="0.313725" fill-rule="evenodd" stroke-width="40" stroke-miterlimit="4" id="path3200" d="m4368.316895,1809.504395c-5.154785,-0.007446 -10.390625,0.256592 -15.617676,0.390503c202.558105,163.2323 288.285156,540.967407 184.681152,1066.310913c-137.725586,698.365967 -669.4021,999.644531 -846.099121,1015.552734c57.375244,81.543457 761.789063,-101.525635 1028.828125,-870.306396c253.616211,-730.136719 73.976074,-1211.324707 -351.79248,-1211.947754z"/>
   <path fill="#000000" fill-opacity="0.313725" fill-rule="evenodd" stroke-width="40" stroke-miterlimit="4" id="path3205" d="m196.779968,2211.664795c-43.127609,206.22876 -16.224136,483.188232 97.221344,809.787354c298.049469,858.056641 1141.069244,986.887695 1021.019196,832.042725c-51.338013,-66.217773 -93.962158,-133.370605 -128.847534,-200.689697c-236.785889,-56.741943 -675.289917,-304.564209 -873.430206,-874.991943c-73.460861,-211.487061 -110.623306,-402.07251 -115.962799,-566.148438zm890.609924,79.260986c-11.03064,106.6521 -23.192261,220.048096 -28.502686,338.907959c12.410522,-122.327148 25.980591,-236.65625 28.502686,-338.907959z"/>
  </g>
 </g>
</svg>