<?xml version="1.0" encoding="utf-8"?>
<!-- Generator: Adobe Illustrator 20.1.0, SVG Export Plug-In . SVG Version: 6.00 Build 0)  -->
<!DOCTYPE svg PUBLIC "-//W3C//DTD SVG 1.1//EN" "http://www.w3.org/Graphics/SVG/1.1/DTD/svg11.dtd">
<svg version="1.1" id="Layer_1" xmlns="http://www.w3.org/2000/svg" xmlns:xlink="http://www.w3.org/1999/xlink" x="0px" y="0px"
	 viewBox="0 0 283.5 283.5" style="enable-background:new 0 0 283.5 283.5;" xml:space="preserve">
<style type="text/css">
	.st0{fill:#F2D3C2;}
	.st1{fill:url(#SVGID_1_);}
	.st2{fill:url(#SVGID_2_);}
	.st3{fill:#603C1E;}
	.st4{fill:#4F2E16;}
	.st5{opacity:0.64;fill:#4F2E16;}
	.st6{fill:url(#SVGID_3_);}
	.st7{opacity:0.06;fill:#FFFFFF;}
	.st8{opacity:0.15;fill:#4F2E16;}
	.st9{opacity:0.28;fill:#4F2E16;}
	.st10{fill:#680E19;}
	.st11{fill:#54040A;}
	.st12{fill:#EAE2C7;}
	.st13{opacity:0.74;fill:url(#SVGID_4_);}
	.st14{fill:url(#SVGID_5_);}
</style>
<rect x="148.3" y="129.6" width="55.3" height="132.3"/>
<rect x="79.5" y="148.3" width="66.1" height="111"/>
<path class="st0" d="M-103.7-74.7"/>
<linearGradient id="SVGID_1_" gradientUnits="userSpaceOnUse" x1="144.2469" y1="173.1709" x2="144.2469" y2="283.4649">
	<stop  offset="0" style="stop-color:#42210B"/>
	<stop  offset="1" style="stop-color:#603C1E"/>
</linearGradient>
<path class="st1" d="M205,244.4c-15.9-1.8-54.8-12.3-41.9-71.2l-18.9,4.8l-18.9-4.8c12.9,58.9-26.1,69.4-41.9,71.2l-5,39.1h62h7.5
	h62L205,244.4z"/>
<linearGradient id="SVGID_2_" gradientUnits="userSpaceOnUse" x1="315.9343" y1="160.6009" x2="315.9343" y2="160.6009">
	<stop  offset="0" style="stop-color:#42210B"/>
	<stop  offset="1" style="stop-color:#603C1E"/>
</linearGradient>
<polygon class="st2" points="316.3,160.6 315.6,160.6 315.6,160.6 316.3,160.6 "/>
<path class="st3" d="M143.2,16.3C85,16.3,79.5,99.5,84,122c4.4,21.8,17,79.2,59.2,79.2s54.8-57.3,59.2-79.2
	C206.8,99.5,201.3,16.3,143.2,16.3z"/>
<g>
	<g>
		<path d="M159.2,110l27.1-0.5C186.3,109.5,174.2,90.5,159.2,110z"/>
		<circle cx="173.4" cy="110.1" r="7"/>
		<path class="st4" d="M162,118.4h23.6C185.5,118.4,176,133.3,162,118.4z"/>
		<path d="M179.1,109.7l10.8-1C189.9,108.7,185.8,117.1,179.1,109.7z"/>
		<path d="M159.2,106.4c0,0,15.6-27.3,27.6-0.8C186.8,105.5,176.8,84.3,159.2,106.4z"/>
	</g>
	<g>
		<path d="M127.2,110l-27.1-0.5C100,109.5,113.6,90.5,127.2,110z"/>
		<circle cx="112.9" cy="110.1" r="7"/>
		<path class="st4" d="M124.3,118.4h-23.6C100.8,118.4,110.3,133.3,124.3,118.4z"/>
		<path d="M107.2,109.7l-10.8-1C96.4,108.7,100.5,117.1,107.2,109.7z"/>
		<path d="M127.2,106.4c0,0-15.6-27.3-27.6-0.8C99.5,105.5,109.5,84.3,127.2,106.4z"/>
	</g>
</g>
<g>
	<path class="st5" d="M89.6,142.5h35.5C125.1,142.5,105,185,89.6,142.5z"/>
	<path class="st5" d="M196.7,142.5h-35.5C161.2,142.5,181.3,185,196.7,142.5z"/>
</g>
<g>
	<path d="M158.1,96.5c20.9-5.3,29.1-21.1,38.6-4.5c-3.2-19.3-26.4-11.9-35.9-6.6L158.1,96.5z"/>
	<path d="M128.2,96.5c-20.9-5.3-29.1-21.1-38.6-4.5c3.2-19.3,26.4-11.9,35.9-6.6L128.2,96.5z"/>
</g>
<ellipse class="st5" cx="143.3" cy="158.3" rx="4.7" ry="7.1"/>
<linearGradient id="SVGID_3_" gradientUnits="userSpaceOnUse" x1="143.1534" y1="153.7456" x2="143.1534" y2="102.6856">
	<stop  offset="0" style="stop-color:#42210B"/>
	<stop  offset="0.2866" style="stop-color:#522F15"/>
	<stop  offset="0.6161" style="stop-color:#5D391C"/>
	<stop  offset="1" style="stop-color:#603C1E"/>
</linearGradient>
<path class="st6" d="M153.9,140.1c-0.9,0-1.8,0.3-2.6,0.8c-1.3-10.9-3.4-31.3-1.7-38l-6.5-0.2l-6.5,0.2c1.7,6.7-0.4,27.1-1.7,38
	c-0.7-0.5-1.6-0.8-2.6-0.8c-2.6,0-4.7,2.3-4.7,5.1c0,2.8,2.1,5.1,4.7,5.1c1.2,0,2.3-0.5,3.1-1.3l4.7,3.7c1.8,1.4,4.2,1.4,6,0
	l4.7-3.7c0.8,0.8,1.9,1.3,3.1,1.3c2.6,0,4.7-2.3,4.7-5.1C158.6,142.4,156.5,140.1,153.9,140.1z"/>
<g>
	<path d="M156.3,148c-0.1-0.7-1.5-1.1-3.1-0.8s-2.9,1-2.8,1.7c0.1,0.7,1.5,1.1,3.1,0.8C155.1,149.5,156.4,148.7,156.3,148z"/>
	<path d="M130.5,148c0.1-0.7,1.5-1.1,3.1-0.8s2.9,1,2.8,1.7c-0.1,0.7-1.5,1.1-3.1,0.8C131.6,149.5,130.4,148.7,130.5,148z"/>
</g>
<ellipse id="nose" class="st7" cx="143.3" cy="142.3" rx="5.5" ry="6.9"/>
<path class="st8" d="M127.8,146.3c0.4,2.3,2.3,4.1,4.6,4.1c1.2,0,2.3-0.5,3.1-1.3l4.7,3.7c1.8,1.4,4.2,1.4,6,0l4.7-3.7
	c0.8,0.8,1.9,1.3,3.1,1.3c2.3,0,4.1-1.7,4.6-4.1H127.8z"/>
<path class="st9" d="M181,150.4l-1.5,21.1C179.5,171.5,192.7,159.6,181,150.4z"/>
<g>
	<path class="st10" d="M143.2,169.8l-20.7-0.2c0,0,8.8,10.7,20.7,10.7c11.9,0,20.7-10.7,20.7-10.7L143.2,169.8z"/>
	<path class="st11" d="M143.2,166c-2.6-0.4-13.7,0.3-24.8,0.3c2.1,8,21.2,5.2,24.8,5c3.5,0.2,22.7,3,24.8-5
		C156.8,166.3,145.7,165.5,143.2,166z"/>
	<g>
		<path class="st5" d="M121.2,161.5l-1.2,10.8C120,172.3,111.7,165.8,121.2,161.5z"/>
		<path class="st5" d="M165.1,161.5l1.2,10.8C166.4,172.3,174.6,165.8,165.1,161.5z"/>
	</g>
</g>
<path d="M228,273.5c5.4-4.3-3.6-7-3.6-7c5-5.3-3.6-8-3.6-8c5.7-5-3.2-8-3.2-8c6.8-2.3-1.8-9-1.8-9c7.5-4.7-1.4-10-1.4-10
	c3.9-3.7-1.1-7.3-1.1-7.3c5.7-4.7-1.4-9-1.4-9c6.5-1.7,0-9.7,0-9.7c5.7-4-0.7-10-0.7-10c6.5-2.3,0.4-9.3,0.4-9.3
	c5-4.3-0.7-9.7-0.7-9.7c5.4-3,0.4-9,0.4-9c5.4-3,0.4-9.3,0.4-9.3c6.1-2.7,0.7-10.7,0.7-10.7c5.7-3.7,0.4-10.7,0.4-10.7
	c5.4-2.3,0.4-9,0.4-9c6.5-2.7,0.4-8.3,0.4-8.3c6.1-3,0.7-11.3,0.7-11.3c4.3-2.7,0-9.7,0-9.7c5.7-5.3-0.7-12-0.7-12
	c6.1-3.3-0.4-8.7-0.4-8.7c7.9-3,0.4-10.7,0.4-10.7c7.2-5-1.1-11-1.1-11c5-6-2.5-11.3-2.5-11.3c4.7-6.7-2.9-9-2.9-9
	c3.2-7.3-5-8.7-5-8.7c-0.4-7.3-7.2-5-7.2-5c1.1-8-8.3-3-8.3-3c-2.2-6-8.3,0.3-8.3,0.3s-2.2-6.3-9.7,1.7l0.8,0.5
	c-0.7,0.2-1.5,0.4-2.2,0.7l0.4,4.3c0,0,39.6,36.7,31,90.7c-8.6,54-10.5,107-5.5,130l12.9,3.3l5.5,32.9h11.4h11.1h2.9
	C238.7,277.5,228,273.5,228,273.5z"/>
<circle cx="169.3" cy="23.3" r="3.7"/>
<circle cx="166.4" cy="25.8" r="3.5"/>
<circle cx="173.9" cy="28.6" r="3.7"/>
<path d="M170.9,23.6c0,0-7.3,11,5.7,10c0,0-2.3,9.3,5.3,8.3c0,0-3.7,8.3,4.7,8c0,0-3.7,8.7,4.7,8c0,0,1.3,10.7,8.3,1.7
	s-7-27.3-7-27.3L170.9,23.6z"/>
<path d="M166.4,25.8c0,0-9.8,6.8-11.8-1.5c0,0-13,10.7-18.7-0.3s14.3-8.7,14.3-8.7l12,4.3L166.4,25.8z"/>
<path d="M44,283.5h45.4c0-0.4-0.1-0.8-0.2-1.3c0,0,5.3-2.7,4.1-8c0,0,4.7-2.7,3.2-7.3c0,0,4.4-3.7,1.5-8.7c0,0,4.9-5.2,1.4-9.2
	c0,0,5.6-3.4,2.1-9.4c0,0,5.3-7.7,0.3-10.7c0,0,6.4-3.3,1.2-9c0,0,3.5-6.3,0.6-10c0,0,3.8-5.3,0.3-10c0,0,4.4-6.3-0.3-11
	c0,0,3.8-4.7,0.3-10.3c0,0,4.1-6.7,0.3-11.3c0,0,3.5-7.3-0.9-11.3c0,0,3.5-6.7-0.3-10c0,0,2.6-3.7-0.9-8.3c0,0,3.2-7-0.6-10
	c0,0,3.5-5.3-0.3-9.7c0,0,1.8-6-1.5-9.3c0,0,3.2-5.3,0-8c0,0,3.8-5.7,0.3-9.3c0,0,4.1-6,0.6-10.7c0,0,4.1-4.7,2.1-9
	c0,0,5-5.3,1.8-9.7c0,0,5-3.3,3.8-8.3c0,0,5.6-3,3.8-7.7c0,0,6.4-2,5.6-7.3c0,0,7.3-1.3,6.7-7c0,0,6.7,0,7-3.7c0,0,5.3,2.3,6.2-2.7
	c0,0,5,3.7,8.5-2c2.3,4.3,6.4-4.3,9.1,1.7c2.6,6,6.7,0.3,6.7,0.3l3.8,2.7h1.2l-0.3-4.3c0,0-0.6-5.7-3.8-4.3c0,0-2.9-6.7-6.2-4.3
	c0,0-4.7-7.7-7-4.3c0,0-2.6-6-6.2-2c0,0-4.7-5.3-8.2-1c0,0-5-5.3-7.9-0.7c0,0-5-2.3-6.7,1.3c0,0-5.6-1.3-6.4,2c0,0-4.7-0.7-5.6,3.3
	c0,0-5.9-0.3-6.7,5.3c0,0-7,0.3-7.9,6.7c0,0-5.6,2.3-5.3,6.7c0,0-5,0.3-3.2,5.3c0,0-6.7,4.3-5.3,10c0,0-4.7,1.7-2.3,7.7
	c0,0-4.4,0.7-2.3,7.7c0,0-4.7,2.3-2.3,8c0,0-4.4,3-1.5,9.3c0,0-4.7,5.3-0.6,10.3c0,0-5.6,3.3-0.9,10c0,0-5.3,5.7-0.6,10.3
	c0,0-4.4,5.7-0.3,10.3c0,0-4.7,7,0.6,11.3c0,0-5.3,4.7-0.6,10c0,0-4.1,5.7,0.6,9c0,0-3.8,5-0.3,8.3c0,0-5,5.3,0,10.7
	c0,0-4.1,4.7,0.6,8.7c0,0-6.2,4.7,0.3,9.7c0,0-5.3,6-0.9,12c0,0-5.6,6.3,0,11c0,0-5.3,5.7-1.2,10.3c0,0-4.7,5.3-0.9,9
	c0,0-5.3,5-0.9,9.7c0,0-6.2,6-2.6,10.3c0,0-4.4,3.7-2.1,8c0,0-6.4,5-2.9,8.7c0,0-6.7,2.3-3.5,7c0,0-8.2,2-5.9,7.7
	C49.7,282.5,46.5,281.7,44,283.5z"/>
<path class="st12" d="M205,244.4c-4.7-0.5-11.4-1.8-18.2-4.9c-9.3,15.8-24.9,26.1-42.6,26.1s-33.3-10.3-42.6-26.1
	c-6.8,3.1-13.5,4.4-18.2,4.9l-5,39.1h62h7.5h62L205,244.4z"/>
<path d="M74.3,282.5c0,0-1.4,0.2-2.5,1h8.1c0-0.4-0.1-0.8-0.2-1.3c0,0,5.4-2.7,4.2-8c0,0,4.8-2.7,3.3-7.3c0,0,4.5-3.7,1.5-8.7
	c0,0,5-5.2,1.4-9.2c0,0,5.7-3.4,2.2-9.4c0,0,5.4-7.7,0.3-10.7c0,0,6.6-3.3,1.2-9c0,0,3.6-6.3,0.6-10c0,0,3.9-5.3,0.3-10
	c0,0,4.5-6.3-0.3-11c0,0,3.9-4.7,0.3-10.3c0,0,4.2-6.7,0.3-11.3c0,0,3.6-7.3-0.9-11.3c0,0,3.6-6.7-0.3-10c0,0,2.7-3.7-0.9-8.3
	c0,0,3.3-7-0.6-10c0,0,3.6-5.3-0.3-9.7c0,0,1.8-6-1.5-9.3c0,0,3.3-5.3,0-8c0,0,3.9-5.7,0.3-9.3c0,0,4.2-6,0.6-10.7
	c0,0,4.2-4.7,2.1-9c0,0,5.1-5.3,1.8-9.7c0,0,5.1-3.3,3.9-8.3c0,0,5.7-3,3.9-7.7c0,0,6.6-2,5.7-7.3c0,0,7.5-1.3,6.9-7
	c0,0,6.9,0,7.2-3.7c0,0,5.4,2.3,6.3-2.7c0,0,5.1,3.7,8.7-2c2.3,4.2,6.4-3.9,9.1,1.3c2.4,0.2,5.5-4.4,7.7,0.4
	c0.2,0.5,0.4,0.9,0.7,1.2l2.3,1.6c0.5,0,1-0.1,1.5-0.3c-0.6-2.4-2-6.2-5.3-5.1c0,0-2.1-7.7-4.5-4c0,0-3.3-6.7-7.2-1.7
	c0,0-5.4-5.3-8.4,0.7c0,0-5.7-3.7-6.9,1c0,0-5.1-2-5.7,3c0,0-5.7-2-6.6,3.7c0,0-5.1-2-4.8,4c0,0-5.4-2-6.3,6c0,0-4.8,0.3-5.1,6
	c0,0-5.7,1.3-3.9,7.3c0,0-6.3,3.3-3.3,9.7c0,0-5.4,2.3-1.2,9c0,0-3.6,0.7-2.7,7.3c0,0-5.4,4-0.6,9.7c0,0-4.5,3-0.6,10.3
	c0,0-3.9,4,0,9c0,0-4.2,4.7-0.3,8.3c0,0-4.2,2.3,0,8.3c0,0-5.7,5.3,0.9,10c0,0-4.2,5,0.3,9c0,0-4.5,5,0,9.7c0,0-3,4.3,0.6,8.7
	c0,0-5.7,3.7,0.3,9.7c0,0-5.4,3.3-0.6,10c0,0-4.5,5.3,0.3,10c0,0-4.8,4,0.3,9c0,0-4.2,4-0.3,9c0,0-4.2,5,0.6,9c0,0-6,4.3-0.9,9.7
	c0,0-5.7,3-0.3,9c0,0-6.9,5.3-0.6,9.3c0,0-6.6,3.7-2.7,8.7c0,0-7.5,4-2.4,8.3c0,0-6.6,3-2.4,7.7c0,0-8.7,3.3-2.4,9.7
	C76.4,276.1,71.9,277.1,74.3,282.5z"/>
<linearGradient id="SVGID_4_" gradientUnits="userSpaceOnUse" x1="115.3377" y1="283.4649" x2="115.3377" y2="14.2803">
	<stop  offset="0" style="stop-color:#000000"/>
	<stop  offset="1.311296e-02" style="stop-color:#020101"/>
	<stop  offset="0.1882" style="stop-color:#16100D"/>
	<stop  offset="0.385" style="stop-color:#251B15"/>
	<stop  offset="0.6215" style="stop-color:#2D211A"/>
	<stop  offset="1" style="stop-color:#30231B"/>
</linearGradient>
<path class="st13" d="M74.3,282.5c0,0-1.4,0.2-2.5,1h8.1c0-0.4-0.1-0.8-0.2-1.3c0,0,5.4-2.7,4.2-8c0,0,4.8-2.7,3.3-7.3
	c0,0,4.5-3.7,1.5-8.7c0,0,5-5.2,1.4-9.2c0,0,5.7-3.4,2.2-9.4c0,0,5.4-7.7,0.3-10.7c0,0,6.6-3.3,1.2-9c0,0,3.6-6.3,0.6-10
	c0,0,3.9-5.3,0.3-10c0,0,4.5-6.3-0.3-11c0,0,3.9-4.7,0.3-10.3c0,0,4.2-6.7,0.3-11.3c0,0,3.6-7.3-0.9-11.3c0,0,3.6-6.7-0.3-10
	c0,0,2.7-3.7-0.9-8.3c0,0,3.3-7-0.6-10c0,0,3.6-5.3-0.3-9.7c0,0,1.8-6-1.5-9.3c0,0,3.3-5.3,0-8c0,0,3.9-5.7,0.3-9.3
	c0,0,4.2-6,0.6-10.7c0,0,4.2-4.7,2.1-9c0,0,5.1-5.3,1.8-9.7c0,0,5.1-3.3,3.9-8.3c0,0,5.7-3,3.9-7.7c0,0,6.6-2,5.7-7.3
	c0,0,7.5-1.3,6.9-7c0,0,6.9,0,7.2-3.7c0,0,5.4,2.3,6.3-2.7c0,0,5.1,3.7,8.7-2c2.3,4.2,6.4-3.9,9.1,1.3c2.4,0.2,5.5-4.4,7.7,0.4
	c0.2,0.5,0.4,0.9,0.7,1.2l2.3,1.6c0.5,0,1-0.1,1.5-0.3c-0.6-2.4-2-6.2-5.3-5.1c0,0-2.1-7.7-4.5-4c0,0-3.3-6.7-7.2-1.7
	c0,0-5.4-5.3-8.4,0.7c0,0-5.7-3.7-6.9,1c0,0-5.1-2-5.7,3c0,0-5.7-2-6.6,3.7c0,0-5.1-2-4.8,4c0,0-5.4-2-6.3,6c0,0-4.8,0.3-5.1,6
	c0,0-5.7,1.3-3.9,7.3c0,0-6.3,3.3-3.3,9.7c0,0-5.4,2.3-1.2,9c0,0-3.6,0.7-2.7,7.3c0,0-5.4,4-0.6,9.7c0,0-4.5,3-0.6,10.3
	c0,0-3.9,4,0,9c0,0-4.2,4.7-0.3,8.3c0,0-4.2,2.3,0,8.3c0,0-5.7,5.3,0.9,10c0,0-4.2,5,0.3,9c0,0-4.5,5,0,9.7c0,0-3,4.3,0.6,8.7
	c0,0-5.7,3.7,0.3,9.7c0,0-5.4,3.3-0.6,10c0,0-4.5,5.3,0.3,10c0,0-4.8,4,0.3,9c0,0-4.2,4-0.3,9c0,0-4.2,5,0.6,9c0,0-6,4.3-0.9,9.7
	c0,0-5.7,3-0.3,9c0,0-6.9,5.3-0.6,9.3c0,0-6.6,3.7-2.7,8.7c0,0-7.5,4-2.4,8.3c0,0-6.6,3-2.4,7.7c0,0-8.7,3.3-2.4,9.7
	C76.4,276.1,71.9,277.1,74.3,282.5z"/>
<linearGradient id="SVGID_5_" gradientUnits="userSpaceOnUse" x1="126.6406" y1="283.4649" x2="126.6406" y2="14.8502">
	<stop  offset="0" style="stop-color:#000000"/>
	<stop  offset="1.311296e-02" style="stop-color:#020101"/>
	<stop  offset="0.1882" style="stop-color:#16100D"/>
	<stop  offset="0.385" style="stop-color:#251B15"/>
	<stop  offset="0.6215" style="stop-color:#2D211A"/>
	<stop  offset="1" style="stop-color:#30231B"/>
</linearGradient>
<path class="st14" d="M88.2,283.5h6c1.3-0.9,4.3-3.5,3.3-7.7c0,0,4.5-2.8,3-7.4c0,0,4.2-3.8,1.3-8.7c0,0,4.7-5.3,1.2-9.3
	c0,0,5.4-3.5,1.9-9.5c0,0,5-7.8,0.1-10.7c0,0,6.3-3.5,1-9c0,0,3.3-6.4,0.4-10c0,0,3.6-5.4,0.1-10c0,0,4.2-6.4-0.5-11
	c0,0,3.7-4.7,0.1-10.3c0,0,3.9-6.7,0.1-11.3c0,0,3.3-7.4-1.1-11.3c0,0,3.3-6.7-0.5-10c0,0,2.5-3.7-1-8.3c0,0,3-7.1-0.7-10
	c0,0,3.4-5.4-0.4-9.7c0,0,1.6-6-1.6-9.3c0,0,3.1-5.4-0.1-8c0,0,3.6-5.7,0.1-9.3c0,0,3.9-6.1,0.4-10.7c0,0,3.9-4.7,1.9-9
	c0,0,4.8-5.4,1.6-9.7c0,0,4.8-3.4,3.6-8.4c0,0,5.4-3.1,3.6-7.7c0,0,6.3-2.1,5.3-7.4c0,0,7.1-1.5,6.5-7.1c0,0,6.6-0.1,6.8-3.8
	c0,0,5.2,2.2,6-2.8c0,0,4.9,3.6,8.3-2.2c2.4,4.3,6.2-4.5,8.9,1.5s6.6,0.2,6.6,0.2l3.8,2.6l1.1,0l0-0.6c-0.6-2.4-2-6.2-5.2-5
	c0,0-2.1-7.6-4.4-3.9c0,0-3.3-6.6-6.9-1.5c0,0-5.3-5.2-8,0.8c0,0-5.5-3.6-6.6,1.1c0,0-4.9-1.9-5.4,3.1c0,0-5.5-1.9-6.2,3.8
	c0,0-4.9-1.9-4.5,4.1c0,0-5.2-1.9-5.9,6.1c0,0-4.6,0.4-4.8,6.1c0,0-5.4,1.4-3.6,7.4c0,0-6,3.5-3,9.7c0,0-5.1,2.4-1,9
	c0,0-3.4,0.7-2.5,7.4c0,0-5.1,4.1-0.4,9.7c0,0-4.3,3.1-0.4,10.3c0,0-3.7,4.1,0.2,9c0,0-3.9,4.7-0.1,8.3c0,0-4,2.4,0.1,8.3
	c0,0-5.4,5.4,1,10c0,0-3.9,5.1,0.4,9c0,0-4.2,5.1,0.2,9.7c0,0-2.8,4.4,0.7,8.7c0,0-5.4,3.8,0.4,9.7c0,0-5.1,3.4-0.4,10
	c0,0-4.2,5.4,0.5,10c0,0-4.5,4.1,0.4,9c0,0-3.9,4.1-0.1,9c0,0-3.9,5.1,0.7,9c0,0-5.7,4.5-0.7,9.7c0,0-5.4,3.1-0.1,9
	c0,0-6.5,5.5-0.4,9.3c0,0-6.2,3.8-2.4,8.7c0,0-7.1,4.1-2.2,8.4c0,0-6.3,3.1-2.2,7.7c0,0-8.3,3.5-2.1,9.7
	C90.5,277.9,86.6,278.9,88.2,283.5z"/>
<ellipse class="st5" cx="143.2" cy="183.3" rx="10.2" ry="2.5"/>
<circle cx="83.5" cy="251.5" r="3.2"/>
</svg>
