<?xml version="1.0" encoding="utf-8"?>
<!-- Generator: Adobe Illustrator 16.0.0, SVG Export Plug-In . SVG Version: 6.00 Build 0)  -->
<!DOCTYPE svg PUBLIC "-//W3C//DTD SVG 1.1//EN" "http://www.w3.org/Graphics/SVG/1.1/DTD/svg11.dtd">
<svg version="1.1" xmlns="http://www.w3.org/2000/svg" xmlns:xlink="http://www.w3.org/1999/xlink" x="0px" y="0px" width="408px"
	 height="408px" viewBox="0 0 408 408" enable-background="new 0 0 408 408" xml:space="preserve">
<g id="ring" display="none">
	<g display="inline">
		<path fill="#FFFFFF" d="M204,403C94.271,403,5,313.729,5,204S94.271,5,204,5s199,89.271,199,199S313.729,403,204,403z"/>
		<path fill="#131545" d="M204,10c26.194,0,51.6,5.128,75.51,15.241c23.1,9.771,43.849,23.76,61.668,41.58
			s31.81,38.568,41.58,61.668C392.872,152.4,398,177.806,398,204s-5.128,51.6-15.241,75.511c-9.771,23.1-23.76,43.848-41.58,61.668
			c-17.82,17.82-38.568,31.809-61.668,41.58C255.6,392.873,230.194,398,204,398s-51.6-5.128-75.51-15.241
			c-23.1-9.771-43.849-23.76-61.668-41.58c-17.82-17.82-31.81-38.568-41.58-61.668C15.128,255.6,10,230.194,10,204
			s5.128-51.6,15.241-75.51c9.771-23.101,23.76-43.849,41.58-61.668s38.568-31.809,61.668-41.58C152.4,15.128,177.806,10,204,10
			 M204,0C91.334,0,0,91.334,0,204s91.334,204,204,204s204-91.334,204-204S316.666,0,204,0L204,0z"/>
	</g>
</g>
<g id="ring_copy">
	<g>
		<path fill="#4091AE" d="M204,10c26.194,0,51.6,5.128,75.51,15.241c23.1,9.771,43.849,23.76,61.668,41.58
			s31.81,38.568,41.58,61.668C392.872,152.4,398,177.806,398,204s-5.128,51.6-15.241,75.511c-9.771,23.1-23.76,43.848-41.58,61.668
			c-17.82,17.82-38.568,31.809-61.668,41.58C255.6,392.873,230.194,398,204,398s-51.6-5.128-75.51-15.241
			c-23.1-9.771-43.849-23.76-61.668-41.58c-17.82-17.82-31.81-38.568-41.58-61.668C15.128,255.6,10,230.194,10,204
			s5.128-51.6,15.241-75.51c9.771-23.101,23.76-43.849,41.58-61.668s38.568-31.809,61.668-41.58C152.4,15.128,177.806,10,204,10
			 M204,0C91.334,0,0,91.334,0,204s91.334,204,204,204s204-91.334,204-204S316.666,0,204,0L204,0z"/>
	</g>
</g>
<g id="twitter" display="none">
	<path display="inline" fill-rule="evenodd" clip-rule="evenodd" fill="#131545" d="M244.166,111.568c2.671,0,5.343,0,8.014,0
		c0.203,0.104,0.398,0.279,0.61,0.303c10.467,1.175,18.993,6.174,26.258,13.515c1.38,1.395,2.587,1.567,4.346,1.05
		c7.087-2.085,13.37-5.773,19.607-9.575c2.649-1.615,5.306-3.22,7.959-4.829c-4.213,12.208-11.161,22.331-21.565,29.966
		c0.113,0.27,0.227,0.539,0.34,0.809c9.645-2.382,19.288-4.764,28.863-7.129c-0.669,0.905-1.435,1.99-2.249,3.037
		c-5.406,6.945-11.977,12.644-19.1,17.734c-1.111,0.794-1.67,1.598-1.602,3.078c0.456,9.933-0.331,19.792-2.489,29.491
		c-8.931,40.126-30.401,71.256-66.634,91.386c-22.697,12.609-47.36,17.235-73.131,15.769c-17.634-1.003-34.188-6.298-49.9-14.235
		c-4.776-2.413-9.398-5.128-14.091-7.705c0.069-0.211,0.139-0.423,0.208-0.635c11.813,4.673,23.557,2.117,35.21-0.33
		c11.783-2.477,22.466-7.531,32.392-15.119c-21.19-1.88-37.415-10.336-46.027-30.79c7.69,0,14.819,0,21.948,0
		c-11.051-3.277-19.534-9.892-25.923-19.277c-6.368-9.354-9.657-19.673-9.68-31.364c6.779,3.254,13.62,4.046,21.262,4.158
		c-10.24-7.339-17.793-15.994-21.299-27.691c-3.659-12.207-0.506-23.155,6.103-33.608c26.784,30.167,58.814,50.203,99.901,53.814
		c0-1.153-0.031-1.924,0.006-2.692c0.35-7.365-0.033-14.858,1.22-22.068c2.87-16.506,12.061-28.393,28.091-34.287
		C236.447,113.005,240.374,112.471,244.166,111.568z"/>
</g>
<g id="google_x2B_" display="none">
	<g display="inline">
		<path fill-rule="evenodd" clip-rule="evenodd" fill="#131545" d="M231.414,100.797c-9.751,2.825-19.501,5.65-29.816,8.639
			c0.842,0.962,2.784,3.209,4.759,5.432c19.477,21.923,17.628,47.373-4.822,66.317c-16.238,13.704-16.328,20.765-0.343,34.586
			c2.636,2.28,5.379,4.473,8.255,6.439c26.815,18.344,27.067,62.147-9.218,77.491c-8.038,3.4-16.816,5.047-25.253,7.502
			c-6.45,0-12.9,0-19.351,0c-2.26-0.623-4.485-1.466-6.785-1.836c-20.375-3.279-38.763-9.633-48.042-30.415c0-3.225,0-6.45,0-9.675
			c12.072-34.802,40.891-41.047,74.378-41.85c-9.183-9.065-9.723-18.76-6.315-29.303c-2.272-0.192-3.567-0.315-4.864-0.406
			c-1.337-0.093-2.68-0.11-4.016-0.239c-20.44-1.969-35.77-11.234-42.497-31.393c-7.605-22.8,4.687-45.714,29.54-55.881
			c5.391-2.205,11.103-3.626,16.664-5.409C186.262,100.797,208.838,100.797,231.414,100.797z M173.277,297.876
			c5.127-1.477,15.675-3.049,24.832-7.492c14.714-7.138,20.156-27.728,11.034-40.062c-21.719-29.369-58.64-26.438-78.917-4.619
			c-10.11,10.88-9.171,26.275,1.449,37.851C141.429,294.185,154.178,297.402,173.277,297.876z M197.733,155.665
			c-0.083-16.439-5.864-30.448-19.239-40.391c-16.66-12.384-36.574-4.808-40.671,15.489c-3.778,18.704,1.508,35.103,15.201,48.309
			c7.652,7.379,16.872,11.633,27.823,7.461c10.759-4.098,14.877-13.217,16.821-23.654
			C198.101,160.551,197.733,158.073,197.733,155.665z"/>
		<path fill-rule="evenodd" clip-rule="evenodd" fill="#131545" d="M325.204,155.949c-10.422,0-20.845,0-32.261,0
			c0,10.283,0,20.571,0,31.347c-4.543,0-8.106,0-12.373,0c0-10.315,0-20.406,0-31.469c-10.934,0-21.223,0-31.932,0
			c0-4.357,0-7.738,0-12.101c10.123,0,20.409,0,31.646,0c0-11.229,0-21.514,0-32.159c4.372,0,7.767,0,12.125,0
			c0,10.278,0,20.58,0,31.48c11.559,0,22.176,0,32.793,0C325.204,147.349,325.204,151.648,325.204,155.949z"/>
	</g>
</g>
<g id="linkedin" display="none">
	<g display="inline">
		<path fill-rule="evenodd" clip-rule="evenodd" fill="#131545" d="M221.731,180.963c13.544-14.662,31.215-17.211,49.861-9.279
			c19.105,8.13,24.479,25.425,24.842,44.438c0.447,23.306,0.107,46.627,0.107,71.24c-12.557,0-24.367,0-38.174,0
			c0-18.169,0.051-36.015-0.03-53.854c-0.026-5.831,0.226-11.763-0.744-17.463c-1.798-10.574-7.857-17.796-19.27-17.304
			c-11.782,0.511-18.815,8.162-19.654,19.324c-1.189,15.838-0.644,31.807-0.795,47.723c-0.063,6.839-0.011,13.681-0.011,21.855
			c-13.021,0-24.754,0-37.489,0c0-39.097,0-77.493,0-118.016C194.468,172.534,210.234,162.526,221.731,180.963z"/>
		<path fill-rule="evenodd" clip-rule="evenodd" fill="#131545" d="M155.022,285.532c-12.727,0-23.744,0-36.074,0
			c0-38.932,0-77.341,0-117.076c11.441,0,23.254,0,36.074,0C155.022,207.207,155.022,245.61,155.022,285.532z"/>
		<path fill-rule="evenodd" clip-rule="evenodd" fill="#131545" d="M160.171,129.468c0.157,12.053-8.676,20.563-21.321,20.538
			c-12.591-0.025-21.486-8.653-21.063-20.759c0.458-13.099,8.672-18.851,20.554-19.788
			C150.806,108.479,160.012,117.347,160.171,129.468z"/>
	</g>
</g>
<g id="facebook" display="none">
	<g display="inline">
		<path fill-rule="evenodd" clip-rule="evenodd" fill="#131545" d="M222.845,325.993c-18.13,0-34.171,0-51.295,0
			c0-40.771,0-80.907,0-122.525c-8.313,0-15.581,0-23.514,0c0-15.173,0-28.853,0-43.499c7.524,0,14.525,0,23.294,0
			c0-9-0.081-17.104,0.013-25.206c0.424-36.612,18.478-54.47,55.188-54.615c11.182-0.046,22.364-0.009,34.042-0.009
			c0,14.354,0,27.405,0,42.287c-8.146,0-16.249,0.095-24.351-0.027c-9.443-0.141-13.822,4.366-13.563,13.808
			c0.204,7.435,0.041,14.88,0.041,23.479c13.189,0,25.422,0,38.929,0c-1.523,14.979-2.914,28.648-4.41,43.362
			c-11.609,0-22.375,0-34.375,0C222.845,244.58,222.845,284.995,222.845,325.993z"/>
	</g>
</g>
<g id="issue" display="none">
	<g display="inline">
		<path fill-rule="evenodd" clip-rule="evenodd" fill="#0066AA" d="M36.709,103.281c0.769,2.034,3.032,3.06,5.079,2.295
			c0.739-0.279,74.879-27.631,132.838,2.786c0.585,0.308,1.211,0.452,1.83,0.452c1.416,0,2.786-0.767,3.491-2.108
			c1.011-1.926,0.27-4.31-1.657-5.32c-61.14-32.087-136.124-4.374-139.287-3.181C36.968,98.974,35.942,101.247,36.709,103.281z"/>
		<path fill-rule="evenodd" clip-rule="evenodd" fill="#0066AA" d="M178.29,128.956c-61.14-32.083-136.124-4.372-139.287-3.182
			c-2.035,0.77-3.061,3.042-2.293,5.077c0.769,2.037,3.032,3.055,5.079,2.296c0.739-0.28,74.879-27.629,132.838,2.786
			c0.585,0.307,1.211,0.451,1.83,0.451c1.416,0,2.786-0.767,3.491-2.109C180.957,132.349,180.216,129.966,178.29,128.956z"/>
		<path fill-rule="evenodd" clip-rule="evenodd" fill="#0066AA" d="M178.29,156.525c-61.14-32.084-136.124-4.373-139.287-3.18
			c-2.035,0.769-3.061,3.042-2.293,5.076c0.769,2.035,3.032,3.063,5.079,2.296c0.739-0.282,74.879-27.629,132.838,2.786
			c0.585,0.309,1.211,0.451,1.83,0.451c1.416,0,2.786-0.767,3.491-2.108C180.957,159.919,180.216,157.537,178.29,156.525z"/>
		<path fill-rule="evenodd" clip-rule="evenodd" fill="#0066AA" d="M178.29,184.096c-61.14-32.08-136.124-4.374-139.287-3.181
			c-2.035,0.77-3.061,3.043-2.293,5.077c0.769,2.034,3.032,3.061,5.079,2.296c0.739-0.282,74.879-27.629,132.838,2.786
			c0.585,0.308,1.211,0.452,1.83,0.452c1.416,0,2.786-0.767,3.491-2.108C180.957,187.489,180.216,185.106,178.29,184.096z"/>
		<path fill-rule="evenodd" clip-rule="evenodd" fill="#0066AA" d="M178.29,211.666c-61.14-32.083-136.124-4.371-139.287-3.181
			c-2.035,0.769-3.061,3.042-2.293,5.077c0.769,2.034,3.032,3.057,5.079,2.295c0.739-0.282,74.879-27.626,132.838,2.786
			c0.585,0.308,1.211,0.452,1.83,0.452c1.416,0,2.786-0.768,3.491-2.109C180.957,215.06,180.216,212.676,178.29,211.666z"/>
		<path fill-rule="evenodd" clip-rule="evenodd" fill="#0066AA" d="M178.29,239.235c-61.14-32.084-136.124-4.368-139.287-3.181
			c-2.035,0.77-3.061,3.042-2.293,5.077c0.769,2.034,3.032,3.066,5.079,2.295c0.739-0.282,74.879-27.631,132.838,2.786
			c0.585,0.308,1.211,0.451,1.83,0.451c1.416,0,2.786-0.767,3.491-2.108C180.957,242.629,180.216,240.246,178.29,239.235z"/>
		<path fill-rule="evenodd" clip-rule="evenodd" fill="#0066AA" d="M178.29,266.803c-61.14-32.08-136.124-4.372-139.287-3.181
			c-2.035,0.769-3.061,3.047-2.293,5.079c0.769,2.031,3.032,3.063,5.079,2.298c0.739-0.287,74.879-27.634,132.838,2.781
			c0.585,0.308,1.211,0.452,1.83,0.452c1.416,0,2.786-0.765,3.491-2.103C180.957,270.2,180.216,267.819,178.29,266.803z"/>
		<path fill-rule="evenodd" clip-rule="evenodd" fill="#0066AA" d="M178.29,294.373c-61.14-32.084-136.124-4.371-139.287-3.181
			c-2.035,0.77-3.061,3.047-2.293,5.079c0.769,2.032,3.032,3.058,5.079,2.299c0.739-0.282,74.879-27.632,132.838,2.78
			c0.585,0.308,1.211,0.451,1.83,0.451c1.416,0,2.786-0.765,3.491-2.103C180.957,297.769,180.216,295.389,178.29,294.373z"/>
		<path fill-rule="evenodd" clip-rule="evenodd" fill="#0066AA" d="M227.853,103.281c0.769,2.034,3.032,3.06,5.079,2.295
			c0.739-0.279,74.879-27.631,132.838,2.786c0.585,0.308,1.211,0.452,1.83,0.452c1.416,0,2.786-0.767,3.491-2.108
			c1.011-1.926,0.27-4.31-1.657-5.32c-61.14-32.087-136.124-4.374-139.287-3.181C228.112,98.974,227.086,101.247,227.853,103.281z"
			/>
		<path fill-rule="evenodd" clip-rule="evenodd" fill="#0066AA" d="M369.433,128.956c-61.14-32.083-136.124-4.372-139.287-3.182
			c-2.035,0.77-3.061,3.042-2.293,5.077c0.769,2.037,3.032,3.055,5.079,2.296c0.739-0.28,74.879-27.629,132.838,2.786
			c0.585,0.307,1.211,0.451,1.83,0.451c1.416,0,2.786-0.767,3.491-2.109C372.101,132.349,371.36,129.966,369.433,128.956z"/>
		<path fill-rule="evenodd" clip-rule="evenodd" fill="#0066AA" d="M369.433,156.525c-61.14-32.084-136.124-4.373-139.287-3.18
			c-2.035,0.769-3.061,3.042-2.293,5.076c0.769,2.035,3.032,3.063,5.079,2.296c0.739-0.282,74.879-27.629,132.838,2.786
			c0.585,0.309,1.211,0.451,1.83,0.451c1.416,0,2.786-0.767,3.491-2.108C372.101,159.919,371.36,157.537,369.433,156.525z"/>
		<path fill-rule="evenodd" clip-rule="evenodd" fill="#0066AA" d="M369.433,184.096c-61.14-32.08-136.124-4.374-139.287-3.181
			c-2.035,0.77-3.061,3.043-2.293,5.077c0.769,2.034,3.032,3.061,5.079,2.296c0.739-0.282,74.879-27.629,132.838,2.786
			c0.585,0.308,1.211,0.452,1.83,0.452c1.416,0,2.786-0.767,3.491-2.108C372.101,187.489,371.36,185.106,369.433,184.096z"/>
		<path fill-rule="evenodd" clip-rule="evenodd" fill="#0066AA" d="M369.433,211.666c-61.14-32.083-136.124-4.371-139.287-3.181
			c-2.035,0.769-3.061,3.042-2.293,5.077c0.769,2.034,3.032,3.057,5.079,2.295c0.739-0.282,74.879-27.626,132.838,2.786
			c0.585,0.308,1.211,0.452,1.83,0.452c1.416,0,2.786-0.768,3.491-2.109C372.101,215.06,371.36,212.676,369.433,211.666z"/>
		<path fill-rule="evenodd" clip-rule="evenodd" fill="#0066AA" d="M369.433,239.235c-61.14-32.084-136.124-4.368-139.287-3.181
			c-2.035,0.77-3.061,3.042-2.293,5.077c0.769,2.034,3.032,3.066,5.079,2.295c0.739-0.282,74.879-27.631,132.838,2.786
			c0.585,0.308,1.211,0.451,1.83,0.451c1.416,0,2.786-0.767,3.491-2.108C372.101,242.629,371.36,240.246,369.433,239.235z"/>
		<path fill-rule="evenodd" clip-rule="evenodd" fill="#0066AA" d="M369.433,266.803c-61.14-32.08-136.124-4.372-139.287-3.181
			c-2.035,0.769-3.061,3.047-2.293,5.079c0.769,2.031,3.032,3.063,5.079,2.298c0.739-0.287,74.879-27.634,132.838,2.781
			c0.585,0.308,1.211,0.452,1.83,0.452c1.416,0,2.786-0.765,3.491-2.103C372.101,270.2,371.36,267.819,369.433,266.803z"/>
		<path fill-rule="evenodd" clip-rule="evenodd" fill="#0066AA" d="M369.433,294.373c-61.14-32.084-136.124-4.371-139.287-3.181
			c-2.035,0.77-3.061,3.047-2.293,5.079c0.769,2.032,3.032,3.058,5.079,2.299c0.739-0.282,74.879-27.632,132.838,2.78
			c0.585,0.308,1.211,0.451,1.83,0.451c1.416,0,2.786-0.765,3.491-2.103C372.101,297.769,371.36,295.389,369.433,294.373z"/>
		<path fill-rule="evenodd" clip-rule="evenodd" fill="#0066AA" d="M203.641,70.122C95.738,22.923,7.118,72.817,7.118,72.817
			v276.357h191.144h11.477h191.143V72.817C305.895,28.294,224.729,60.192,203.641,70.122z M195.853,330.551
			c-95.482-44.756-174.85,0-174.85,0V79.549c0,0,79.368-44.757,174.85,0V330.551z M386.996,330.551
			c-95.481-44.756-174.85,0-174.85,0V79.549c0,0,79.368-44.757,174.85,0V330.551z"/>
	</g>
</g>
<g id="Layer_7">
	<path fill="#4091AE" d="M277.115,315.023L204,255.25l-68.484,59.772V122.729c0-11.585,9.394-20.978,20.978-20.978h99.644
		c11.584,0,20.978,9.393,20.978,20.978V315.023z"/>
</g>
</svg>
