<svg id="Layer_1" data-name="Layer 1" xmlns="http://www.w3.org/2000/svg" xmlns:xlink="http://www.w3.org/1999/xlink" viewBox="0 0 248.72 238.68"><defs><style>.cls-1{fill:#fff;}.cls-2{fill:#a5a7ab;}.cls-3{fill:url(#linear-gradient);}.cls-4{fill:#00508e;}.cls-5{fill:#dbdcdd;}.cls-6{fill:#cd181f;}.cls-7{fill:#323333;}.cls-8{fill:#005da3;}.cls-9{fill:#ec1c24;}</style><linearGradient id="linear-gradient" x1="48.11" y1="-3.93" x2="200.61" y2="213.87" gradientUnits="userSpaceOnUse"><stop offset="0.13" stop-color="#d2b167"/><stop offset="0.39" stop-color="#ffebb9"/><stop offset="0.48" stop-color="#f9e4b0"/><stop offset="0.61" stop-color="#e9d198"/><stop offset="0.79" stop-color="#cfb270"/><stop offset="0.98" stop-color="#ab873a"/><stop offset="1" stop-color="#a88335"/></linearGradient></defs><title>badge-generic-best-jobs</title><polygon class="cls-1" points="29.84 208.7 29.84 0.36 218.88 0.36 218.88 208.69 124.36 238.3 29.84 208.7"/><path class="cls-2" d="M240.6,19.49V227.15l-94.16,29.53L52.29,227.15V19.49H240.6m0.73-.73H51.56V227.82l94.88,29.62,94.89-29.62V18.76h0Z" transform="translate(-22.08 -18.76)"/><polygon class="cls-3" points="214.05 5.48 34.67 5.48 34.67 204.46 124.36 232.22 214.05 204.46 214.05 5.48"/><polygon class="cls-4" points="0 147.53 29.41 147.53 29.41 187.12 2.48 187.12 8.2 170.85 0 147.53"/><polygon class="cls-5" points="29.41 188.74 1.91 188.74 2.48 187.12 29.41 187.12 29.41 188.74"/><polygon class="cls-6" points="29.41 194.18 0 194.18 1.91 188.74 29.41 188.74 29.41 194.18"/><polygon class="cls-4" points="248.72 147.53 219.32 147.53 219.32 187.12 246.24 187.12 240.53 170.85 248.72 147.53"/><polygon class="cls-5" points="219.32 188.74 246.81 188.74 246.24 187.12 219.32 187.12 219.32 188.74"/><polygon class="cls-6" points="219.32 194.18 248.72 194.18 246.81 188.74 219.32 188.74 219.32 194.18"/><polygon class="cls-7" points="29.58 183.93 29.58 194.33 17.42 183.89 29.58 183.93"/><polygon class="cls-7" points="219.24 183.93 219.24 194.33 230.46 183.89 219.24 183.93"/><rect class="cls-8" x="17.46" y="137.09" width="212.92" height="41.48"/><g id="U.S.News"><path class="cls-1" d="M70.88,196.64c-7.53,0-13.16-2.83-13.16-9.91V166h6.61v20.12c0,3.18,2.37,5,6.7,5,3.79,0,6.46-1.87,6.46-5V166h6.62v21.07C84.11,193.5,78.6,196.64,70.88,196.64Z" transform="translate(-22.08 -18.76)"/><path class="cls-1" d="M82.45,196.26V190.1h5.9v6.15h-5.9Z" transform="translate(-22.08 -18.76)"/><path class="cls-1" d="M102.72,196.68c-9.14,0-12.43-2.75-13.65-6.58a12.7,12.7,0,0,1-.42-3.1h6.81a5.32,5.32,0,0,0,.42,1.91c0.84,1.76,2.83,2.52,6.84,2.52,4.59,0,6.2-1.26,6.2-3.25,0-2.49-1.26-3.37-6.16-4.28-0.88-.15-3.1-0.58-4.44-0.84-5.89-1.11-9.52-3.82-9.52-8.83s4.13-8.57,13-8.57c7.58,0,11.13,2.64,12.66,6.46a9.26,9.26,0,0,1,.69,2.91h-6.81a4.22,4.22,0,0,0-.42-1.49c-0.8-1.68-2.45-2.56-6.27-2.56-5,0-6,1.11-6,2.83,0,2.22,1.8,3.1,6.74,4.09,1.52,0.3,3.51.73,4.2,0.84,6,1.15,9.14,3.63,9.14,8.8C115.73,193,111.41,196.68,102.72,196.68Z" transform="translate(-22.08 -18.76)"/><path class="cls-1" d="M114.22,196.26V190.1h5.9v6.15h-5.9Z" transform="translate(-22.08 -18.76)"/><path class="cls-1" d="M140.63,196.26l-12.17-20.46v20.46h-6.31V166h7.69l11.63,19.47V166h6.31v30.22h-7.15Z" transform="translate(-22.08 -18.76)"/><path class="cls-1" d="M170.66,194.6a15.1,15.1,0,0,1-8.27,2c-4.95,0-9-1.46-11.1-4.86a12.45,12.45,0,0,1-1.71-6.77,11.37,11.37,0,0,1,1.95-6.6c2.15-3.12,6-4.94,10.86-4.94,5.11,0,8.59,1.86,10.58,4.74a13.35,13.35,0,0,1,1.91,9H156a3.8,3.8,0,0,0,1.21,2.64c0.94,1,2.76,1.66,5.19,1.66a10.27,10.27,0,0,0,4.1-.73,3.1,3.1,0,0,0,1.86-1.74h6.36A9.13,9.13,0,0,1,170.66,194.6Zm-3.32-14.23a6.66,6.66,0,0,0-4.91-1.71,7.53,7.53,0,0,0-5.11,1.58,4.61,4.61,0,0,0-1.38,2.67h12.48A3.91,3.91,0,0,0,167.34,180.37Z" transform="translate(-22.08 -18.76)"/><path class="cls-1" d="M206.59,196.26h-7.66s-4.38-12.81-4.46-13.54c0-.29-0.29-1.61-0.29-1.61s-0.24,1.32-.28,1.56c0,0.77-4.42,13.58-4.42,13.58h-7.71l-8-22.29h6.77l5.35,16.57,4.9-16.57H198l5,16.57L208.29,174h6.37Z" transform="translate(-22.08 -18.76)"/><path class="cls-1" d="M226.56,196.66c-7.54,0-11.11-1.5-12-5.14a9.18,9.18,0,0,1-.24-2.23h6.44a3.36,3.36,0,0,0,.2,1.14c0.41,1.05,2.11,1.34,5.63,1.34,3.69,0,4.82-.65,4.82-1.94s-1.34-1.54-4.62-2l-4.86-.73c-4.9-.69-7.25-2.83-7.25-7.09,0-4,3.56-6.56,10.74-6.56,6.12,0,10,1.58,11.1,4.78a11,11,0,0,1,.41,2.67h-6.28a2.83,2.83,0,0,0-.29-1.21c-0.45-.61-1.62-1.14-4.7-1.14-3.57,0-4.62.57-4.62,1.62s0.69,1.34,3.85,1.82l5.19,0.77c5.35,0.81,7.7,2.8,7.7,7C237.75,194.31,234.26,196.66,226.56,196.66Z" transform="translate(-22.08 -18.76)"/></g><g id="_World_Report" data-name="&amp; World Report"><path class="cls-1" d="M155,170.14a1.61,1.61,0,0,0,.33-0.92H157a2.71,2.71,0,0,1-.82,1.88c0.4,0.3.86,0.65,1.3,1h-2.31a3.53,3.53,0,0,1-.29-0.23,4.58,4.58,0,0,1-1.67.29c-1.44,0-2.74-.26-2.8-1.38,0-.1,0-0.24,0-0.31a1.93,1.93,0,0,1,1.39-1.46,2.33,2.33,0,0,1-.5-1.28v-0.31a1.79,1.79,0,0,1,2-1.45,1.67,1.67,0,0,1,1.87,1.41c0,0.05,0,.22,0,0.26a2.16,2.16,0,0,1-1.21,1.68Zm-2.75.38c0,0.29.27,0.4,0.9,0.4a2.32,2.32,0,0,0,.53-0.06c-0.35-.3-0.71-0.58-1-0.84A0.75,0.75,0,0,0,152.27,170.52Zm1.48-2.76v-0.12a0.35,0.35,0,0,0-.38-0.38,0.4,0.4,0,0,0-.41.4,0.58,0.58,0,0,0,0,.16,1.07,1.07,0,0,0,.25.56A0.93,0.93,0,0,0,153.75,167.76Z" transform="translate(-22.08 -18.76)"/><path class="cls-1" d="M166.67,172.1h-2s-0.91-3.5-.93-3.7c0,0.2-.94,3.7-0.94,3.7h-2L159,166h2s0.93,3.75.93,3.94c0-.19.9-3.94,0.9-3.94h1.91s0.92,3.75.92,3.94c0-.19.91-3.94,0.91-3.94h1.8Z" transform="translate(-22.08 -18.76)"/><path class="cls-1" d="M174.92,169c0,2.13-1,3.18-3.24,3.18s-3.24-1.08-3.24-3.16,1-3.12,3.24-3.12S174.92,167,174.92,169Zm-1.88,0c0-1.2-.33-1.7-1.36-1.7s-1.34.48-1.34,1.7,0.46,1.71,1.35,1.71S173,170.41,173,169.05Z" transform="translate(-22.08 -18.76)"/><path class="cls-1" d="M181.31,169.09a1.17,1.17,0,0,1-.75.58L182,172.1h-2.09L178.83,170h-1.26v2.05h-1.83V166h3.84a1.92,1.92,0,0,1,1.64.64,2,2,0,0,1,.35,1.28A2.23,2.23,0,0,1,181.31,169.09Zm-1.61-1.38a0.51,0.51,0,0,0-.54-0.25h-1.57v1.24h1.61a0.5,0.5,0,0,0,.49-0.2,1.09,1.09,0,0,0,.07-0.39A0.88,0.88,0,0,0,179.69,167.71Z" transform="translate(-22.08 -18.76)"/><path class="cls-1" d="M182.86,172.1V166h1.88v4.57h2.92v1.5h-4.79Z" transform="translate(-22.08 -18.76)"/><path class="cls-1" d="M192,172.1h-3.42V166h3.33a2.46,2.46,0,0,1,2.16.79,3.24,3.24,0,0,1,.45,2.13,3.64,3.64,0,0,1-.43,2.27A2.24,2.24,0,0,1,192,172.1Zm0.71-3.15a2.46,2.46,0,0,0-.19-1.17,1,1,0,0,0-.92-0.33h-1.17v3.22h1.17a1.07,1.07,0,0,0,.93-0.35A3.25,3.25,0,0,0,192.71,168.95Z" transform="translate(-22.08 -18.76)"/><path class="cls-1" d="M203.17,169.09a1.18,1.18,0,0,1-.75.58l1.42,2.43h-2.08L200.69,170h-1.25v2.05h-1.83V166h3.84a1.92,1.92,0,0,1,1.64.64,2,2,0,0,1,.35,1.28A2.25,2.25,0,0,1,203.17,169.09Zm-1.61-1.38a0.52,0.52,0,0,0-.54-0.25h-1.56v1.24h1.6a0.51,0.51,0,0,0,.5-0.2,1.09,1.09,0,0,0,.07-0.39A1,1,0,0,0,201.56,167.71Z" transform="translate(-22.08 -18.76)"/><path class="cls-1" d="M204.8,172.1V166H210v1.43h-3.33v0.88h3.21v1.44h-3.21v0.9H210v1.42h-5.2Z" transform="translate(-22.08 -18.76)"/><path class="cls-1" d="M216.61,169.59a2.18,2.18,0,0,1-1.68.62h-1.87v1.9h-1.87V166h3.74a2.1,2.1,0,0,1,1.59.51,2,2,0,0,1,.55,1.58A2.06,2.06,0,0,1,216.61,169.59Zm-1.5-1.87a0.58,0.58,0,0,0-.59-0.29H213v1.4h1.46a0.61,0.61,0,0,0,.62-0.29,0.77,0.77,0,0,0,.08-0.4A0.83,0.83,0,0,0,215.1,167.73Z" transform="translate(-22.08 -18.76)"/><path class="cls-1" d="M224.19,169c0,2.13-1,3.18-3.23,3.18s-3.24-1.08-3.24-3.16,1-3.12,3.24-3.12S224.19,167,224.19,169Zm-1.88,0c0-1.2-.33-1.7-1.36-1.7s-1.35.48-1.35,1.7,0.46,1.71,1.35,1.71S222.31,170.41,222.31,169.05Z" transform="translate(-22.08 -18.76)"/><path class="cls-1" d="M230.6,169.09a1.18,1.18,0,0,1-.75.58l1.42,2.43h-2.08L228.12,170h-1.26v2.05H225V166h3.84a1.94,1.94,0,0,1,1.64.64,2,2,0,0,1,.35,1.28A2.29,2.29,0,0,1,230.6,169.09ZM229,167.71a0.52,0.52,0,0,0-.54-0.25h-1.57v1.24h1.6a0.51,0.51,0,0,0,.5-0.2,1.13,1.13,0,0,0,.07-0.39A1,1,0,0,0,229,167.71Z" transform="translate(-22.08 -18.76)"/><path class="cls-1" d="M235.23,167.49v4.61h-1.89v-4.61h-1.93V166h5.76v1.46h-1.94Z" transform="translate(-22.08 -18.76)"/></g><rect class="cls-1" x="17.48" y="176.87" width="212.9" height="1.95"/><rect class="cls-9" x="17.42" y="178.5" width="213.05" height="5.65"/><path class="cls-7" d="M71.29,75.22V37.53H65.12V31.24H81.84a47.71,47.71,0,0,1,10.35.83,11,11,0,0,1,6.09,4.21,12.52,12.52,0,0,1,2.64,7.93,12.77,12.77,0,0,1-1.57,6.32,10.1,10.1,0,0,1-4.61,4.26,12.38,12.38,0,0,1,6.45,4.79,13.33,13.33,0,0,1,2.26,7.64A13.7,13.7,0,0,1,101.77,74a12.24,12.24,0,0,1-4.46,4.7,17.7,17.7,0,0,1-6.09,2.24,54.93,54.93,0,0,1-9,.58H65.12V75.22h6.18Zm7.59-23.05h4.73q5.42,0,7.57-1.9a7.05,7.05,0,0,0,2.15-5.58q0-7.15-9.72-7.15H78.88V52.17Zm0,23.05h2.85a43,43,0,0,0,8.2-.56A7.18,7.18,0,0,0,94.18,72a8.32,8.32,0,0,0,1.64-5.33,7.8,7.8,0,0,0-1.57-5,7.49,7.49,0,0,0-4-2.67,28.25,28.25,0,0,0-7-.67H78.88V75.22Z" transform="translate(-22.08 -18.76)"/><path class="cls-7" d="M110.76,75.22V37.53h-6.5V31.24H146V46.38h-6.21V37.53H118.34v15H137v6.29H118.34V75.22h21.46V66.08H146V81.5H104.25V75.22h6.5Z" transform="translate(-22.08 -18.76)"/><path class="cls-7" d="M150.3,81.7V63.46h6.29V67.9q4.52,8.2,11.82,8.2a9.14,9.14,0,0,0,6.29-2.28,7.59,7.59,0,0,0,2.57-6q0-3.58-2.1-5.15t-7.91-3.13a57.8,57.8,0,0,1-10-3.41,12.83,12.83,0,0,1-5.18-4.59,12.69,12.69,0,0,1-1.93-7.06,12.9,12.9,0,0,1,4.21-10.1,15.24,15.24,0,0,1,10.57-3.78,18.21,18.21,0,0,1,11.2,3.9V31.19h6.14V46.44H176.1v-3.5a12.14,12.14,0,0,0-10.66-5.82,9.42,9.42,0,0,0-6.32,1.9,5.79,5.79,0,0,0-2.2,4.53A5.88,5.88,0,0,0,158,47.11a6.62,6.62,0,0,0,2.85,2.26,59.47,59.47,0,0,0,6.83,2,53.43,53.43,0,0,1,9.65,3.23,13,13,0,0,1,5.17,5,15,15,0,0,1,2.17,8.06,13.85,13.85,0,0,1-4.53,10.63,15.91,15.91,0,0,1-11.22,4.19,18,18,0,0,1-12.36-5V81.7H150.3Z" transform="translate(-22.08 -18.76)"/><path class="cls-7" d="M203.73,75.42V37.73H193.36V50.56h-6.21V31.44h40.72V50.56h-6.21V37.73H211.32V75.42h6.54V81.7H197.3V75.42h6.43Z" transform="translate(-22.08 -18.76)"/><path class="cls-7" d="M135.25,96.67c2.41,4.54,3.22,11.64,3.22,21.16,0,10.47-1,17-3.49,21.53-3.13,5.71-8.23,8.42-17.16,8.42s-14.58-3-17.26-8.35c-2.06-4.1-3.4-10.18-3.4-21.46,0-9.59,1-16.26,3.4-21.24,2.32-4.76,8-8.27,17.26-8.27C126.84,88.47,132.47,91.48,135.25,96.67Zm-7.6,40.72c1.79-3.37,2.77-9.67,2.77-19.33,0-5.93-.63-14.94-2.41-18.38-1.43-2.78-4.83-5.05-10.19-5.05-5.54,0-8.5,2.2-9.93,5-1.79,3.52-2.5,12.52-2.5,18.6,0,6.66.45,14.87,2.5,19,1.88,3.74,6.26,4.91,9.93,4.91C122.46,142.08,126,140.39,127.65,137.39Z" transform="translate(-22.08 -18.76)"/><path class="cls-7" d="M146.24,147.2V89h20.65c9.83,0,15.47,4.32,15.47,14.28,0,7-2,13.33-9,14.06,8.67,1.32,11.18,6.3,11.18,14.13,0,10.33-5.36,15.74-15.56,15.74H146.24Zm19.85-52.14H154v19.84h13.41c2.32,0,4-.73,5-2.12,1.25-1.83,1.7-4.61,1.7-8.13C174.14,98.36,171.9,95.06,166.09,95.06Zm8.41,28.27c-1.34-1.83-4.29-2.42-7.24-2.42H154V141.2h13.77c6,0,8.41-2.42,8.41-10.32C176.19,128.16,175.92,125.23,174.49,123.33Z" transform="translate(-22.08 -18.76)"/><path class="cls-7" d="M209.36,147.79c-11.62,0-17.52-3.52-18.86-9.74a30.59,30.59,0,0,1-.54-7.1h7.87a48,48,0,0,0,.54,5.79c0.72,3.88,5,5.34,11.26,5.34,6.88,0,10.37-2.56,10.37-8.35,0-5.42-2.5-8.5-10-12.38l-7-3.66c-8-4.17-13-8.2-13-16.11,0-7.69,6.08-13.11,18.51-13,11.44,0,16.81,4,18.51,10.77a23,23,0,0,1,.45,5.93h-8a23,23,0,0,0-.27-4.76c-1-4.17-3.93-6.08-10.91-6.08s-9.92,2.71-9.92,7.18c0,4.83,2.5,7.47,10.19,11.42,2.15,1.1,5.1,2.56,6.71,3.37,8.23,4.17,13,8.57,13,16.84C228.22,142.66,221.7,147.79,209.36,147.79Z" transform="translate(-22.08 -18.76)"/><path class="cls-7" d="M76.82,95.16h4.92v38.68c0,5.19-2.14,7.74-8.83,7.74a59.48,59.48,0,0,1-8.2-.51v5.84a70.44,70.44,0,0,0,9.09.58c9.81,0,16-4.09,16-12.42V89H76.82v6.17Z" transform="translate(-22.08 -18.76)"/><path class="cls-1" d="M99.59,218.5a3,3,0,0,1-2.27,1.63l4,7.92H98.49l-3.61-7.37H89.49V228H87V210.66h8.43c2.22,0,3.48.81,4.14,2a5.89,5.89,0,0,1,.64,2.93A6,6,0,0,1,99.59,218.5Zm-2.22-4.38C97,213.37,96.23,213,94.86,213H89.51v5.52h5.81a2.1,2.1,0,0,0,2-.95,5.23,5.23,0,0,0,.26-1.67A6,6,0,0,0,97.37,214.12Z" transform="translate(-22.08 -18.76)"/><path class="cls-1" d="M105.38,228h-2.62l6.67-17.38h3.17L118.93,228h-2.66l-1.58-4.38H107Zm6.05-13.47-0.46-1.5-0.48,1.52-2.62,6.82h6Z" transform="translate(-22.08 -18.76)"/><path class="cls-1" d="M131.14,228L123,214.43V228H120.6V210.66h3.06L131.54,224V210.66H134V228h-2.84Z" transform="translate(-22.08 -18.76)"/><path class="cls-1" d="M148.06,228l-6.43-8.12L140,221.64V228h-2.55V210.66H140v8l8-8H151l-7.53,7.59L151.2,228h-3.15Z" transform="translate(-22.08 -18.76)"/><path class="cls-1" d="M152.92,228V210.66h2.6V228h-2.6Z" transform="translate(-22.08 -18.76)"/><path class="cls-1" d="M169.59,228l-8.1-13.62V228h-2.44V210.66h3.06L170,224V210.66h2.44V228h-2.84Z" transform="translate(-22.08 -18.76)"/><path class="cls-1" d="M187.26,228l-0.13-2.11c-0.66,1-2.07,2.33-5.24,2.33-3.87,0-7.33-1.63-7.33-8.91,0-5.19,1.91-8.93,7.63-8.93,5.1,0,7,2.73,7,6.1h-2.49c0-2.16-1.12-3.79-4.47-3.79s-5.1,1.61-5.1,6.69,1.58,6.67,5.15,6.67c2.57,0,4.09-1.34,4.6-2.88,0.07-.24,0-2.35,0-2.51h-5.59v-2.25h7.94v5c0,2.13,0,4.58,0,4.62h-2.09Z" transform="translate(-22.08 -18.76)"/><path class="cls-1" d="M199,228.27c-4.4,0-6.42-1.36-7.17-3.61a6.66,6.66,0,0,1-.29-1.76h2.62a4.43,4.43,0,0,0,.26,1.23c0.62,1.39,2.09,2,4.55,2,3.08,0,4.18-1.08,4.18-2.6,0-1.78-1.14-2.49-3.85-3-0.62-.13-1.65-0.33-2.57-0.51-3.43-.66-5-2-5-4.82s2-4.69,6.75-4.66c4,0,6,1.36,6.82,3.56a5,5,0,0,1,.24,1.56h-2.62a2.87,2.87,0,0,0-.15-1c-0.62-1.34-1.67-1.94-4.38-1.94-3,0-4,1-4,2.31,0,1.52.92,2.22,3.92,2.79l2.49,0.48c3.19,0.57,5.06,2,5.06,4.82C205.83,226.29,203.67,228.27,199,228.27Z" transform="translate(-22.08 -18.76)"/></svg>