<?xml version="1.0"?><svg width="5000" height="5000" xmlns="http://www.w3.org/2000/svg">
 <title>Burst - Christmas</title>
 <defs>
  <radialGradient r="1" cy="0.5" cx="0.5" spreadMethod="repeat" id="svg_38">
   <stop offset="0.289063" stop-color="#FF0000"/>
   <stop stop-opacity="0.996094" offset="0.496094" stop-color="#00ff00"/>
  </radialGradient>
  <radialGradient r="1" cy="0.5" cx="0.5" spreadMethod="repeat" id="svg_42">
   <stop stop-opacity="0.996094" offset="0.410156" stop-color="#00ff00"/>
   <stop offset="1" stop-color="#FF0000"/>
  </radialGradient>
 </defs>
 <g>
  <title>Layer 1</title>
  <ellipse ry="3530" rx="3650" id="svg_5" cy="2450" cx="2500" stroke-width="5" stroke="#000000" fill="url(#svg_38)"/>
  <g id="layer1">
   <g id="g3306">
    <path fill="url(#svg_42)" id="path3171" d="m-3.125,0l2501.562256,2497.916748l-2397.33049,-2497.916748l-104.231766,0z"/>
    <path fill="url(#svg_42)" id="path3216" d="m205.338516,0l2293.09874,2497.916748l-2188.867004,-2497.916748l-104.231735,0z"/>
    <path fill="url(#svg_42)" id="path3218" d="m413.802002,0l2084.635254,2497.916748l-1980.403503,-2497.916748l-104.23175,0z"/>
    <path fill="url(#svg_42)" id="path3220" d="m622.265503,0l1876.171753,2497.916748l-1771.940125,-2497.916748l-104.231628,0z"/>
    <path fill="url(#svg_42)" id="path3222" d="m830.729126,0l1667.70813,2497.916748l-1563.47644,-2497.916748l-104.231689,0z"/>
    <path fill="url(#svg_42)" id="path3224" d="m1039.192505,0l1459.244751,2497.916748l-1355.012939,-2497.916748l-104.231812,0z"/>
    <path fill="url(#svg_42)" id="path3288" d="m1247.656006,0l1250.78125,2497.916748l-1146.549194,-2497.916748l-104.232056,0z"/>
    <path fill="url(#svg_42)" id="path3290" d="m1456.119263,0l1042.317993,2497.916748l-938.085938,-2497.916748l-104.232056,0z"/>
    <path fill="url(#svg_42)" id="path3292" d="m1664.583252,0l833.854004,2497.916748l-729.622437,-2497.916748l-104.231567,0z"/>
    <path fill="url(#svg_42)" id="path3294" d="m1873.046143,0l625.391113,2497.916748l-521.159058,-2497.916748l-104.232056,0z"/>
    <path fill="url(#svg_42)" id="path3296" d="m2081.51001,0l416.927246,2497.916748l-312.695313,-2497.916748l-104.231934,0z"/>
    <path fill="url(#svg_42)" id="path3298" d="m2289.973633,0l208.463623,2497.916748l-104.231445,-2497.916748l-104.232178,0z"/>
    <path fill="url(#svg_42)" id="path2922" d="m2498.437256,0l0,2497.916748l104.231201,-2497.916748l-104.231201,0z"/>
    <path fill="url(#svg_42)" id="path2924" d="m2706.900879,0l-208.463623,2497.916748l312.695068,-2497.916748l-104.231445,0z"/>
    <path fill="url(#svg_42)" id="path2926" d="m2915.36377,0l-416.926514,2497.916748l521.158936,-2497.916748l-104.232422,0z"/>
    <path fill="url(#svg_42)" id="path2928" d="m3123.827637,0l-625.390381,2497.916748l729.622803,-2497.916748l-104.232422,0z"/>
    <path fill="url(#svg_42)" id="path2930" d="m3332.29126,0l-833.854004,2497.916748l938.085449,-2497.916748l-104.231445,0z"/>
    <path fill="url(#svg_42)" id="path2932" d="m3540.754395,0l-1042.317139,2497.916748l1146.548828,-2497.916748l-104.231689,0z"/>
    <path fill="url(#svg_42)" id="path2934" d="m3749.218018,0l-1250.780762,2497.916748l1355.012695,-2497.916748l-104.231934,0z"/>
    <path fill="url(#svg_42)" id="path2936" d="m3957.681885,0l-1459.244629,2497.916748l1563.476074,-2497.916748l-104.231445,0z"/>
    <path fill="url(#svg_42)" id="path2938" d="m4166.145996,0l-1667.70874,2497.916748l1771.940186,-2497.916748l-104.231445,0z"/>
    <path fill="url(#svg_42)" id="path2940" d="m4374.608887,0l-1876.171631,2497.916748l1980.404053,-2497.916748l-104.232422,0z"/>
    <path fill="url(#svg_42)" id="path2942" d="m4583.071289,0l-2084.634033,2497.916748l2188.866943,-2497.916748l-104.23291,0z"/>
    <path fill="url(#svg_42)" id="path2944" d="m4791.535645,0l-2293.098389,2497.916748l2397.329346,-2497.916748l-104.230957,0z"/>
    <path fill="url(#svg_42)" id="path2974" d="m4999.999023,4995.833496l-2501.561768,-2497.916748l2397.329346,2497.916748l104.232422,0z"/>
    <path fill="url(#svg_42)" id="path2976" d="m4791.535645,4995.833496l-2293.098389,-2497.916748l2188.866943,2497.916748l104.231445,0z"/>
    <path fill="url(#svg_42)" id="path2978" d="m4583.071289,4995.833496l-2084.634033,-2497.916748l1980.404053,2497.916748l104.22998,0z"/>
    <path fill="url(#svg_42)" id="path2980" d="m4374.608887,4995.833496l-1876.171631,-2497.916748l1771.940186,2497.916748l104.231445,0z"/>
    <path fill="url(#svg_42)" id="path2982" d="m4166.145996,4995.833496l-1667.70874,-2497.916748l1563.476074,2497.916748l104.232666,0z"/>
    <path fill="url(#svg_42)" id="path2984" d="m3957.681885,4995.833496l-1459.244629,-2497.916748l1355.012695,2497.916748l104.231934,0z"/>
    <path fill="url(#svg_42)" id="path2986" d="m3749.218018,4995.833496l-1250.780762,-2497.916748l1146.548828,2497.916748l104.231934,0z"/>
    <path fill="url(#svg_42)" id="path2988" d="m3540.754395,4995.833496l-1042.317139,-2497.916748l938.085449,2497.916748l104.231689,0z"/>
    <path fill="url(#svg_42)" id="path2990" d="m3332.29126,4995.833496l-833.854004,-2497.916748l729.622803,2497.916748l104.231201,0z"/>
    <path fill="url(#svg_42)" id="path2992" d="m3123.827637,4995.833496l-625.390381,-2497.916748l521.158936,2497.916748l104.231445,0z"/>
    <path fill="url(#svg_42)" id="path2994" d="m2915.36377,4995.833496l-416.926514,-2497.916748l312.695068,2497.916748l104.231445,0z"/>
    <path fill="url(#svg_42)" id="path2996" d="m2706.900879,4995.833496l-208.463623,-2497.916748l104.231201,2497.916748l104.232422,0z"/>
    <path fill="url(#svg_42)" id="path2998" d="m2498.437256,4995.833496l0,-2497.916748l-104.231445,2497.916748l104.231445,0z"/>
    <path fill="url(#svg_42)" id="path3000" d="m2289.973633,4995.833496l208.463623,-2497.916748l-312.695313,2497.916748l104.231689,0z"/>
    <path fill="url(#svg_42)" id="path3002" d="m2081.51001,4995.833496l416.927246,-2497.916748l-521.159058,2497.916748l104.231812,0z"/>
    <path fill="url(#svg_42)" id="path3004" d="m1873.046143,4995.833496l625.391113,-2497.916748l-729.622437,2497.916748l104.231323,0z"/>
    <path fill="url(#svg_42)" id="path3006" d="m1664.583252,4995.833496l833.854004,-2497.916748l-938.085938,2497.916748l104.231934,0z"/>
    <path fill="url(#svg_42)" id="path3008" d="m1456.119263,4995.833496l1042.317993,-2497.916748l-1146.549194,2497.916748l104.231201,0z"/>
    <path fill="url(#svg_42)" id="path3010" d="m1247.656006,4995.833496l1250.78125,-2497.916748l-1355.012939,2497.916748l104.231689,0z"/>
    <path fill="url(#svg_42)" id="path3012" d="m1039.192505,4995.833496l1459.244751,-2497.916748l-1563.47644,2497.916748l104.231689,0z"/>
    <path fill="url(#svg_42)" id="path3014" d="m830.729126,4995.833496l1667.70813,-2497.916748l-1771.940125,2497.916748l104.231995,0z"/>
    <path fill="url(#svg_42)" id="path3016" d="m622.265503,4995.833496l1876.171753,-2497.916748l-1980.403503,2497.916748l104.23175,0z"/>
    <path fill="url(#svg_42)" id="path3018" d="m413.802002,4995.833496l2084.635254,-2497.916748l-2188.867004,2497.916748l104.23175,0z"/>
    <path fill="url(#svg_42)" id="path3020" d="m205.338516,4995.833496l2293.09874,-2497.916748l-2397.33049,2497.916748l104.23175,0z"/>
    <path fill="url(#svg_42)" id="path3111" d="m-3.125,4995.833496l2501.562256,-2497.916748l-2501.562256,2393.837158l0,104.07959z"/>
    <path fill="url(#svg_42)" id="path3113" d="m-3.125,4787.673828l2501.562256,-2289.75708l-2501.562256,2185.678467l0,104.078613z"/>
    <path fill="url(#svg_42)" id="path3115" d="m-3.125,4579.514648l2501.562256,-2081.5979l-2501.562256,1977.517822l0,104.080078z"/>
    <path fill="url(#svg_42)" id="path3117" d="m-3.125,4371.355469l2501.562256,-1873.438721l-2501.562256,1769.358643l0,104.080078z"/>
    <path fill="url(#svg_42)" id="path3119" d="m-3.125,4163.195313l2501.562256,-1665.278564l-2501.562256,1561.198486l0,104.080078z"/>
    <path fill="url(#svg_42)" id="path3121" d="m-3.125,3955.035645l2501.562256,-1457.118896l-2501.562256,1353.039307l0,104.07959z"/>
    <path fill="url(#svg_42)" id="path3123" d="m-3.125,3746.875732l2501.562256,-1248.958984l-2501.562256,1144.879639l0,104.079346z"/>
    <path fill="url(#svg_42)" id="path3125" d="m-3.125,3538.715576l2501.562256,-1040.798828l-2501.562256,936.719482l0,104.079346z"/>
    <path fill="url(#svg_42)" id="path3127" d="m-3.125,3330.556641l2501.562256,-832.639893l-2501.562256,728.559082l0,104.080811z"/>
    <path fill="url(#svg_42)" id="path3129" d="m-3.125,3122.39624l2501.562256,-624.479492l-2501.562256,520.399414l0,104.080078z"/>
    <path fill="url(#svg_42)" id="path3131" d="m-3.125,2914.236328l2501.562256,-416.31958l-2501.562256,312.239746l0,104.079834z"/>
    <path fill="url(#svg_42)" id="path3133" d="m-3.125,2706.077393l2501.562256,-208.160645l-2501.562256,104.080078l0,104.080566z"/>
    <path fill="url(#svg_42)" id="path3135" d="m-3.125,2497.916748l2501.562256,0l-2501.562256,-104.079834l0,104.079834z"/>
    <path fill="url(#svg_42)" id="path3137" d="m-3.125,2289.757324l2501.562256,208.159424l-2501.562256,-312.239014l0,104.07959z"/>
    <path fill="url(#svg_42)" id="path3139" d="m-3.125,2081.597656l2501.562256,416.319092l-2501.562256,-520.398926l0,104.079834z"/>
    <path fill="url(#svg_42)" id="path3141" d="m-3.125,1873.437866l2501.562256,624.478882l-2501.562256,-728.55896l0,104.080078z"/>
    <path fill="url(#svg_42)" id="path3143" d="m-3.125,1665.27832l2501.562256,832.638428l-2501.562256,-936.718628l0,104.0802z"/>
    <path fill="url(#svg_42)" id="path3145" d="m-3.125,1457.118164l2501.562256,1040.798584l-2501.562256,-1144.878052l0,104.079468z"/>
    <path fill="url(#svg_42)" id="path3147" d="m-3.125,1248.958374l2501.562256,1248.958374l-2501.562256,-1353.038086l0,104.079712z"/>
    <path fill="url(#svg_42)" id="path3149" d="m-3.125,1040.798828l2501.562256,1457.11792l-2501.562256,-1561.197815l0,104.079895z"/>
    <path fill="url(#svg_42)" id="path3151" d="m-3.125,832.63916l2501.562256,1665.277588l-2501.562256,-1769.357666l0,104.080078z"/>
    <path fill="url(#svg_42)" id="path3153" d="m-3.125,624.479187l2501.562256,1873.437561l-2501.562256,-1977.517334l0,104.079773z"/>
    <path fill="url(#svg_42)" id="path3155" d="m-3.125,416.31958l2501.562256,2081.597168l-2501.562256,-2185.677155l0,104.079987z"/>
    <path fill="url(#svg_42)" id="path3157" d="m-3.125,208.15979l2501.562256,2289.756958l-2501.562256,-2393.836853l0,104.079895z"/>
    <path fill="url(#svg_42)" id="path3161" d="m4999.999023,0l-2501.561768,2497.916748l2501.561768,-2393.836853l0,-104.079895z"/>
    <path fill="url(#svg_42)" id="path3163" d="m4999.999023,208.15979l-2501.561768,2289.756958l2501.561768,-2185.677155l0,-104.079803z"/>
    <path fill="url(#svg_42)" id="path3165" d="m4999.999023,416.31958l-2501.561768,2081.597168l2501.561768,-1977.517334l0,-104.079834z"/>
    <path fill="url(#svg_42)" id="path3167" d="m4999.999023,624.479187l-2501.561768,1873.437561l2501.561768,-1769.357666l0,-104.079895z"/>
    <path fill="url(#svg_42)" id="path3169" d="m4999.999023,832.63916l-2501.561768,1665.277588l2501.561768,-1561.197815l0,-104.079773z"/>
    <path fill="url(#svg_42)" id="path3172" d="m4999.999023,1040.798828l-2501.561768,1457.11792l2501.561768,-1353.038086l0,-104.079834z"/>
    <path fill="url(#svg_42)" id="path3174" d="m4999.999023,1248.958374l-2501.561768,1248.958374l2501.561768,-1144.878052l0,-104.080322z"/>
    <path fill="url(#svg_42)" id="path3176" d="m4999.999023,1457.118164l-2501.561768,1040.798584l2501.561768,-936.718628l0,-104.079956z"/>
    <path fill="url(#svg_42)" id="path3178" d="m4999.999023,1665.27832l-2501.561768,832.638428l2501.561768,-728.55896l0,-104.079468z"/>
    <path fill="url(#svg_42)" id="path3180" d="m4999.999023,1873.437866l-2501.561768,624.478882l2501.561768,-520.398926l0,-104.079956z"/>
    <path fill="url(#svg_42)" id="path3182" d="m4999.999023,2081.597656l-2501.561768,416.319092l2501.561768,-312.239014l0,-104.080078z"/>
    <path fill="url(#svg_42)" id="path3184" d="m4999.999023,2289.757324l-2501.561768,208.159424l2501.561768,-104.079834l0,-104.07959z"/>
    <path fill="url(#svg_42)" id="path3186" d="m4999.999023,2497.916748l-2501.561768,0l2501.561768,104.080078l0,-104.080078z"/>
    <path fill="url(#svg_42)" id="path3188" d="m4999.999023,2706.077393l-2501.561768,-208.160645l2501.561768,312.239746l0,-104.079102z"/>
    <path fill="url(#svg_42)" id="path3190" d="m4999.999023,2914.236328l-2501.561768,-416.31958l2501.561768,520.399414l0,-104.079834z"/>
    <path fill="url(#svg_42)" id="path3192" d="m4999.999023,3122.39624l-2501.561768,-624.479492l2501.561768,728.559082l0,-104.07959z"/>
    <path fill="url(#svg_42)" id="path3194" d="m4999.999023,3330.556641l-2501.561768,-832.639893l2501.561768,936.719482l0,-104.07959z"/>
    <path fill="url(#svg_42)" id="path3196" d="m4999.999023,3538.715576l-2501.561768,-1040.798828l2501.561768,1144.879639l0,-104.080811z"/>
    <path fill="url(#svg_42)" id="path3198" d="m4999.999023,3746.875732l-2501.561768,-1248.958984l2501.561768,1353.039307l0,-104.080322z"/>
    <path fill="url(#svg_42)" id="path3200" d="m4999.999023,3955.035645l-2501.561768,-1457.118896l2501.561768,1561.198486l0,-104.07959z"/>
    <path fill="url(#svg_42)" id="path3202" d="m4999.999023,4163.195313l-2501.561768,-1665.278564l2501.561768,1769.358643l0,-104.080078z"/>
    <path fill="url(#svg_42)" id="path3204" d="m4999.999023,4371.355469l-2501.561768,-1873.438721l2501.561768,1977.517822l0,-104.079102z"/>
    <path fill="url(#svg_42)" id="path3206" d="m4999.999023,4579.514648l-2501.561768,-2081.5979l2501.561768,2185.678467l0,-104.080566z"/>
    <path fill="url(#svg_42)" id="path3208" d="m4999.999023,4787.673828l-2501.561768,-2289.75708l2501.561768,2393.837158l0,-104.080078z"/>
   </g>
  </g>
 </g>
</svg>