<svg xmlns="http://www.w3.org/2000/svg" xmlns:xlink="http://www.w3.org/1999/xlink" width="500" height="648" viewBox="0 0 500 648"><path fill="#E53E45" d="M0 0h500v648H0z"/><g><path opacity=".2" fill="#010101" d="M0 180h468v307H0z"/><path fill="#fff" d="M36 118h36v2H36z"/></g><g><defs><path id="a" d="M214.954 385H474v262.5H214.954z"/></defs><clipPath id="b"><use xlink:href="#a" overflow="visible"/></clipPath><path clip-path="url(#b)" fill="#fff" d="M323.27 451.393H265.52l28.873-57.747 28.874 57.747zm-55.265-1.536h52.78l-26.39-52.78-26.39 52.78zM323.27 472.116H265.52l28.873-57.747 28.874 57.746zm-55.265-1.535h52.78l-26.39-52.778-26.39 52.78zM323.27 492.84H265.52l28.873-57.747 28.874 57.747zm-55.265-1.535h52.78l-26.39-52.78-26.39 52.78zM323.27 513.563H265.52l28.873-57.747 28.874 57.747zm-55.265-1.535h52.78l-26.39-52.78-26.39 52.78zM323.27 534.287H265.52l28.873-57.747 28.874 57.747zm-55.265-1.535h52.78l-26.39-52.78-26.39 52.78zM323.27 555.01H265.52l28.873-57.746 28.874 57.747zm-55.265-1.534h52.78l-26.39-52.78-26.39 52.78zM323.27 575.734H265.52l28.873-57.747 28.874 57.747zm-55.265-1.535h52.78l-26.39-52.78-26.39 52.78zM323.27 596.458H265.52l28.873-57.747 28.874 57.748zm-55.265-1.535h52.78l-26.39-52.778-26.39 52.778zM323.27 617.182H265.52l28.873-57.747 28.874 57.747zm-55.265-1.536h52.78l-26.39-52.778-26.39 52.778zM323.27 637.905H265.52l28.873-57.747 28.874 57.747zm-55.265-1.534h52.78l-26.39-52.778-26.39 52.78zM323.27 658.63H265.52l28.873-57.748 28.874 57.747zm-55.265-1.535h52.78l-26.39-52.78-26.39 52.78zM323.27 679.354H265.52l28.873-57.748 28.874 57.748zm-55.265-1.536h52.78l-26.39-52.78-26.39 52.78zM378.53 451.393h-57.746l28.874-57.747 28.873 57.747zm-55.26-1.536h52.778l-26.39-52.78-26.39 52.78zM378.53 472.116h-57.746l28.874-57.747 28.873 57.746zm-55.26-1.535h52.778l-26.39-52.778-26.39 52.78zM378.53 492.84h-57.746l28.874-57.747 28.873 57.747zm-55.26-1.535h52.778l-26.39-52.78-26.39 52.78zM378.53 513.563h-57.746l28.874-57.747 28.873 57.747zm-55.26-1.535h52.778l-26.39-52.78-26.39 52.78zM378.53 534.287h-57.746l28.874-57.747 28.873 57.747zm-55.26-1.535h52.778l-26.39-52.78-26.39 52.78zM378.53 555.01h-57.746l28.874-57.746 28.873 57.747zm-55.26-1.534h52.778l-26.39-52.78-26.39 52.78zM378.53 575.734h-57.746l28.874-57.747 28.873 57.747zm-55.26-1.535h52.778l-26.39-52.78-26.39 52.78zM378.53 596.458h-57.746l28.874-57.747 28.873 57.748zm-55.26-1.535h52.778l-26.39-52.778-26.39 52.778zM378.53 617.182h-57.746l28.874-57.747 28.873 57.747zm-55.26-1.536h52.778l-26.39-52.778-26.39 52.778zM378.53 637.905h-57.746l28.874-57.747 28.873 57.747zm-55.26-1.534h52.778l-26.39-52.778-26.39 52.78zM378.53 658.63h-57.746l28.874-57.748 28.873 57.747zm-55.26-1.535h52.778l-26.39-52.78-26.39 52.78zM378.53 679.354h-57.746l28.874-57.748 28.873 57.748zm-55.26-1.536h52.778l-26.39-52.78-26.39 52.78zM433.795 451.393h-57.747l28.873-57.747 28.875 57.747zm-55.264-1.536h52.78l-26.39-52.78-26.39 52.78zM433.795 472.116h-57.747l28.873-57.747 28.875 57.746zm-55.264-1.535h52.78l-26.39-52.778-26.39 52.78zM433.795 492.84h-57.747l28.873-57.747 28.875 57.747zm-55.264-1.535h52.78l-26.39-52.78-26.39 52.78zM433.795 513.563h-57.747l28.873-57.747 28.875 57.747zm-55.264-1.535h52.78l-26.39-52.78-26.39 52.78zM433.795 534.287h-57.747l28.873-57.747 28.875 57.747zm-55.264-1.535h52.78l-26.39-52.78-26.39 52.78zM433.795 555.01h-57.747l28.873-57.746 28.875 57.747zm-55.264-1.534h52.78l-26.39-52.78-26.39 52.78zM433.795 575.734h-57.747l28.873-57.747 28.875 57.747zM378.53 574.2h52.78l-26.39-52.78-26.39 52.78zM433.795 596.458h-57.747l28.873-57.747 28.875 57.748zm-55.264-1.535h52.78l-26.39-52.778-26.39 52.778zM433.795 617.182h-57.747l28.873-57.747 28.875 57.747zm-55.264-1.536h52.78l-26.39-52.778-26.39 52.778zM433.795 637.905h-57.747l28.873-57.747 28.875 57.747zm-55.264-1.534h52.78l-26.39-52.778-26.39 52.78zM433.795 658.63h-57.747l28.873-57.748 28.875 57.747zm-55.264-1.535h52.78l-26.39-52.78-26.39 52.78zM433.795 679.354h-57.747l28.873-57.748 28.875 57.748zm-55.264-1.536h52.78l-26.39-52.78-26.39 52.78z"/></g><g fill="#fff"><path d="M41.673 149.042h-1.82l-3.56-9.47 1.962-.335 2.577 7.41 2.536-7.312H45.3l-3.627 9.707zM46.683 149v-9.665h1.863V149h-1.863zM53.712 149h-3.068v-9.665h3.068c3.362 0 5.1 1.975 5.1 4.818 0 2.872-1.808 4.847-5.1 4.847zm-.014-8.138h-1.205v6.61h1.177c2.03 0 3.25-1.036 3.25-3.305 0-2.227-1.29-3.305-3.222-3.305zM60.5 149v-9.665h5.617v1.57h-3.782v2.268h2.914l.25 1.597h-3.165v2.662h3.922V149H60.5zM71.773 149.182c-2.746 0-4.524-2.017-4.524-5 0-3 1.792-5.03 4.55-5.03 2.774 0 4.525 2.018 4.525 5 0 2.985-1.78 5.03-4.552 5.03zm.014-8.49c-1.653 0-2.647 1.36-2.647 3.475s.995 3.474 2.647 3.474c1.667 0 2.662-1.357 2.662-3.473s-1.01-3.474-2.663-3.474zM85.184 149.168c-2.815 0-4.58-1.99-4.58-4.987s1.835-5.014 4.566-5.014c1.12 0 1.99.266 2.703.7l-.266 1.752c-.63-.477-1.415-.854-2.353-.854-1.71 0-2.76 1.303-2.76 3.404 0 2.13 1.12 3.39 2.83 3.39.896 0 1.71-.322 2.452-.812l.252 1.597c-.77.49-1.75.825-2.844.825zM93.43 149.182c-2.745 0-4.523-2.017-4.523-5 0-3 1.793-5.03 4.552-5.03 2.772 0 4.523 2.018 4.523 5 0 2.985-1.78 5.03-4.552 5.03zm.014-8.49c-1.653 0-2.647 1.36-2.647 3.475s.995 3.474 2.647 3.474c1.667 0 2.662-1.357 2.662-3.473s-1.01-3.474-2.662-3.474zM103.412 149.168c-2.34 0-3.866-1.387-3.866-3.908v-5.925h1.85v5.827c0 1.47.67 2.395 2.03 2.395 1.373 0 2.06-.868 2.06-2.353v-5.87h1.862v5.884c0 2.563-1.597 3.95-3.936 3.95zM116.378 148.748l-1.89.35-2.522-3.796h-.84V149h-1.85v-9.665h3c2.156 0 3.46 1.022 3.46 2.9 0 1.4-.743 2.282-1.934 2.716l2.576 3.798zm-4.245-7.928h-1.022v3.067h.94c1.148 0 1.862-.546 1.862-1.555 0-.966-.616-1.512-1.78-1.512zM120.21 149.112c-1.175 0-2.184-.266-3.04-.672l.28-1.695c.813.477 1.822.854 2.79.854.853 0 1.442-.407 1.442-1.178 0-.714-.336-1.008-1.737-1.61-1.877-.77-2.633-1.388-2.633-2.886 0-1.71 1.317-2.704 3.124-2.704 1.093 0 1.85.224 2.55.588l-.28 1.68c-.7-.46-1.527-.755-2.283-.755-.925 0-1.33.448-1.33 1.037 0 .616.308.91 1.652 1.47 1.99.813 2.717 1.5 2.717 3 0 1.89-1.388 2.87-3.25 2.87zM125.04 149v-9.665h5.617v1.57h-3.782v2.268h2.914l.25 1.597h-3.165v2.662h3.922V149h-5.757z"/></g><g fill="#fff"><path d="M41.463 600.302V604H39.6v-3.684l-3.376-5.77 1.933-.31 2.45 4.37 2.368-4.27h1.99l-3.502 5.966zM50.018 600.946h-4.342c.084 1.316.784 1.89 1.82 1.89.87 0 1.584-.32 2.326-.84l.196 1.317c-.73.505-1.61.826-2.704.826-1.89 0-3.306-1.08-3.306-3.517 0-2.2 1.316-3.53 3.082-3.53 2.03 0 2.94 1.527 2.94 3.446 0 .14-.012.31-.012.406zm-2.97-2.69c-.672 0-1.22.533-1.345 1.64h2.69c-.113-1.05-.533-1.64-1.345-1.64zM53.67 604.126c-.98 0-1.99-.308-2.634-.658l.224-1.4c.73.476 1.625.798 2.465.798.728 0 1.12-.266 1.12-.7 0-.477-.293-.673-1.372-.938-1.64-.42-2.325-.896-2.325-2.13 0-1.162.925-1.988 2.494-1.988.882 0 1.695.168 2.367.477l-.225 1.4c-.672-.378-1.47-.616-2.143-.616-.63 0-.938.24-.938.617 0 .364.252.56 1.26.826 1.75.448 2.438.925 2.438 2.2 0 1.33-.954 2.113-2.733 2.113zM63.387 600.946h-4.342c.084 1.316.784 1.89 1.82 1.89.87 0 1.584-.32 2.326-.84l.197 1.317c-.73.505-1.61.826-2.704.826-1.89 0-3.306-1.08-3.306-3.517 0-2.2 1.316-3.53 3.082-3.53 2.03 0 2.94 1.527 2.94 3.446 0 .14-.013.31-.013.406zm-2.97-2.69c-.672 0-1.22.533-1.345 1.64h2.69c-.112-1.05-.532-1.64-1.345-1.64zM68.847 604v-4.427c0-.588-.252-.994-.87-.994-.53 0-1.05.335-1.54.853V604h-1.68v-6.766h1.428l.154.952c.63-.602 1.344-1.092 2.254-1.092 1.26 0 1.933.77 1.933 2.03V604h-1.68zM73.128 596.1c-.56 0-1.008-.393-1.008-.952 0-.574.448-.98 1.008-.98.546 0 .995.406.995.98 0 .56-.448.952-.995.952zm-.854 7.9v-6.766h1.68V604h-1.68zM79.668 604l-.14-.883c-.546.574-1.247 1.022-2.255 1.022-1.15 0-1.92-.7-1.92-1.878 0-1.64 1.346-2.353 4.077-2.62v-.195c0-.73-.42-1.008-1.163-1.008-.784 0-1.527.223-2.255.545l-.21-1.345c.785-.31 1.61-.546 2.69-.546 1.75 0 2.62.644 2.62 2.27V604h-1.444zm-.238-3.376c-1.947.238-2.41.812-2.41 1.457 0 .49.31.785.828.785.574 0 1.12-.266 1.583-.73v-1.51zM88.614 600.442h-.827V604h-1.85v-9.665h2.83c2.214 0 3.545 1.022 3.545 2.97 0 2.087-1.485 3.137-3.698 3.137zm.055-4.623h-.883v3.123h.813c1.19 0 1.89-.49 1.89-1.597 0-1.008-.63-1.527-1.82-1.527zM98.765 600.946h-4.342c.084 1.316.784 1.89 1.82 1.89.87 0 1.584-.32 2.326-.84l.195 1.317c-.73.505-1.61.826-2.704.826-1.89 0-3.305-1.08-3.305-3.517 0-2.2 1.316-3.53 3.082-3.53 2.03 0 2.94 1.527 2.94 3.446.002.14-.012.31-.012.406zm-2.97-2.69c-.672 0-1.22.533-1.345 1.64h2.69c-.112-1.05-.532-1.64-1.345-1.64zM101.814 600.12V604h-1.68v-6.766h1.428l.21 1.358c.448-.784 1.12-1.442 2.17-1.498l.267 1.666c-1.05.07-1.92.632-2.396 1.36zM110.75 600.946h-4.343c.084 1.316.784 1.89 1.82 1.89.87 0 1.584-.32 2.326-.84l.196 1.317c-.73.505-1.612.826-2.705.826-1.89 0-3.306-1.08-3.306-3.517 0-2.2 1.315-3.53 3.08-3.53 2.032 0 2.942 1.527 2.942 3.446 0 .14-.013.31-.013.406zm-2.97-2.69c-.673 0-1.22.533-1.346 1.64h2.69c-.112-1.05-.532-1.64-1.345-1.64zM111.712 604v-1.29l3.362-4.13h-2.998l-.224-1.346h5.253v1.29l-3.376 4.13h3.32l.223 1.346h-5.56zM118.236 600.778v-1.61h3.642v1.61h-3.642zM127.758 604.168c-2.815 0-4.58-1.99-4.58-4.986 0-2.998 1.835-5.015 4.566-5.015 1.12 0 1.99.266 2.703.7l-.266 1.75c-.63-.476-1.414-.853-2.352-.853-1.71 0-2.76 1.303-2.76 3.403 0 2.13 1.12 3.39 2.83 3.39.896 0 1.71-.32 2.452-.81l.252 1.596c-.77.49-1.75.825-2.844.825zM133.818 600.12V604h-1.68v-6.766h1.428l.21 1.358c.448-.784 1.12-1.442 2.17-1.498l.267 1.666c-1.05.07-1.918.632-2.395 1.36zM141.59 604l-.154-.952c-.63.602-1.36 1.092-2.255 1.092-1.273 0-1.932-.77-1.932-2.045v-4.86h1.68v4.427c0 .588.253.98.855.98.532 0 1.064-.337 1.555-.84v-4.567h1.68V604h-1.428zM144.317 604v-1.29l3.362-4.13h-3l-.223-1.346h5.253v1.29l-3.376 4.13h3.32l.224 1.346h-5.56z"/></g><g fill="#fff"><path d="M50.65 245.497h-11.5v-34.502H50.9c7.852 0 11.702 3.35 11.702 8.95 0 3.75-2.15 6.05-4.95 7.3 3.75 1.2 6.25 3.6 6.25 8.3 0 6.652-5 9.952-13.25 9.952zm-.35-28.35h-3.05v7.8h2.852c3.2 0 4.9-1.55 4.9-4.05 0-2.302-1.4-3.75-4.7-3.75zm0 13.3h-3.05v8.9h3.15c3.45 0 5.45-1.45 5.45-4.35 0-3-1.95-4.55-5.55-4.55zM83 245.497l-.55-3.35c-2.25 2.2-4.6 3.85-7.65 3.85-4.55 0-6.95-2.8-6.95-7.55v-17.45h7.55v15.35c0 1.75.75 3 2.55 3 1.45 0 2.8-.85 4.15-2.2v-16.15h7.55v24.5H83zM98.8 217.795c-2.4 0-4.3-1.6-4.3-4.05 0-2.5 1.9-4.1 4.3-4.1 2.45 0 4.3 1.6 4.3 4.1 0 2.45-1.85 4.05-4.3 4.05zM95 245.497v-24.5h7.6v24.5H95zM108.1 245.497v-34.902l7.6-1.2v36.102h-7.6zM136.35 245.497l-.5-3.2c-1.65 1.85-3.9 3.7-7.05 3.7-5 0-8.85-3.8-8.85-12.05 0-9.352 4.95-13.102 10.35-13.102 2.25 0 3.8.3 5.2.8v-11.05l7.55-1.2v36.1h-6.7zm-.85-18.05c-1.1-.5-1.95-.7-3.55-.7-2.5 0-4.4 1.95-4.4 6.65 0 4.2 1.6 5.9 3.75 5.9 1.6 0 2.9-1.05 4.2-2.5v-9.35zM152.198 217.795c-2.4 0-4.3-1.6-4.3-4.05 0-2.5 1.9-4.1 4.3-4.1 2.45 0 4.3 1.6 4.3 4.1 0 2.45-1.85 4.05-4.3 4.05zm-3.8 27.702v-24.5h7.6v24.5h-7.6zM175.548 245.497v-15.35c0-1.75-.7-2.95-2.5-2.95-1.45 0-2.8.85-4.15 2.2v16.1h-7.55v-24.5h6.65l.55 3.35c2.2-2.15 4.55-3.85 7.65-3.85 4.55 0 6.95 2.85 6.95 7.6v17.4h-7.6zM211 220.746l.95 5.6s-4.25.1-4.3.1c.3.85.45 1.7.45 2.6 0 5.3-4.602 8.45-10.152 8.45-.8 0-1.55-.05-2.3-.15-.4.4-.6.75-.6 1.1 0 .7.6.9 3.9 1.3l4.5.3c4.9.5 7.85 2.05 7.85 5.75 0 5.352-5.85 8.802-13.7 8.802-6.9 0-11.8-2.1-11.8-5.85 0-2.15 1.3-3.75 4-5.25-.85-.75-1.35-1.75-1.35-2.7 0-1.55 1.25-3.05 3.65-4.4-3.05-1.4-4.7-3.95-4.7-7.102 0-5.35 4.4-8.7 10.3-8.7 3.1 0 5.65.9 7.5 2.35l5.8-2.2zm-19.103 27.05c0 1.7 1.9 2.9 6.3 2.9 3.95 0 6.2-1.3 6.2-2.9 0-1.15-.9-1.65-3.55-1.95l-3.65-.3c-1.8-.15-2.65-.3-3.85-.5-1 1-1.45 1.9-1.45 2.75zm5.85-22.75c-2.2 0-3.5 1.8-3.5 4.15 0 2.3 1.3 3.9 3.5 3.9 2.3 0 3.6-1.7 3.6-4.05 0-2.3-1.35-4-3.6-4zM238.998 245.497l-.5-3.05c-2 2.1-4.35 3.55-7.7 3.55-3.9 0-6.65-2.35-6.65-6.8 0-5.75 4.4-8.45 14-9.3v-.45c0-2.15-1.2-3.102-3.7-3.102-2.75 0-5.3.7-7.9 1.85l-.9-5.7c2.8-1.15 5.95-1.9 9.95-1.9 6.75 0 10.1 2.25 10.1 8.5v16.4H239zm-.85-11.95c-5.15.8-6.55 2.5-6.55 4.65 0 1.55.95 2.4 2.35 2.4 1.45 0 2.85-.65 4.2-1.85v-5.2zM55.4 272.246v27.25h-8.6v-27.25h-9.55v-7.25h27.302l1.2 7.25h-10.35zM78.15 299.997c-2.2 6.4-5.2 8.6-10.55 8.6-1.5 0-2.15-.15-2.85-.3l-.95-6.05c.8.25 1.55.4 3 .4 1.7 0 3.2-.65 4-2.35l.3-.75-8.9-23.952 8.1-.95 4.75 15.45 4.5-15.1h7.3l-8.7 25.002zM102.55 299.747c-2.2 0-3.75-.4-5.15-.85v8.75l-7.55 1.15v-33.802h6.65l.5 3.25c1.7-1.9 3.9-3.75 7.05-3.75 5.05 0 8.8 3.8 8.8 12.1 0 9.302-4.9 13.152-10.3 13.152zm-.95-18.5c-1.65 0-2.95 1-4.2 2.5v9.3c1.05.5 1.9.75 3.45.75 2.55 0 4.45-1.95 4.45-6.7 0-4.1-1.55-5.85-3.7-5.85zM138.1 289.146h-14.7c.4 3.85 2.7 5.35 6 5.35 2.7 0 5.35-1 8.05-2.55l.75 5.3c-2.65 1.7-5.9 2.75-9.75 2.75-7.35 0-12.6-3.9-12.6-12.65 0-8 4.9-12.852 11.55-12.852 7.5 0 10.852 5.6 10.852 12.7-.002.752-.05 1.553-.15 1.952zm-10.9-9.75c-2.1 0-3.6 1.85-3.85 5.6h7.7c-.25-3.7-1.55-5.6-3.85-5.6zM163.95 299.897c-4.65 0-8.55-1-12.05-2.6l1.25-7.3c3.55 1.9 7.5 3.2 10.95 3.2 2.45 0 4.15-1.05 4.15-3.1 0-1.95-1-2.85-5.85-4.7-6.9-2.65-9.9-4.9-9.9-10.602 0-6.65 5.2-10.2 11.8-10.2 4.5 0 7.4.85 10.4 2.3l-1.3 7.2c-3.1-1.8-6.35-2.8-9-2.8-2.6 0-3.85 1.1-3.85 2.7 0 1.75.95 2.6 5.25 4.25 7.5 2.75 10.5 5.35 10.5 10.85 0 7.502-5.5 10.802-12.35 10.802zM193.75 299.997c-2.2 6.4-5.2 8.6-10.55 8.6-1.5 0-2.15-.15-2.85-.3l-.95-6.05c.8.25 1.55.4 3 .4 1.7 0 3.2-.65 4-2.35l.3-.75-8.9-23.952 8.1-.95 4.75 15.45 4.5-15.1h7.3l-8.7 25.002zM213.9 299.897c-3.9 0-7.55-1.1-10.1-2.45l.9-5.75c2.9 1.8 6.45 2.9 9.25 2.9 2.1 0 3.1-.7 3.1-1.85 0-1.25-.7-1.8-4.15-2.65-6.15-1.6-8.75-3.25-8.75-7.85 0-4.55 3.4-7.602 9.4-7.602 3.3 0 6.5.65 9.05 1.8l-.95 5.75c-2.65-1.45-5.7-2.3-8.05-2.3-1.8 0-2.6.65-2.6 1.6 0 1 .7 1.55 4.15 2.5 6.5 1.75 8.802 3.4 8.802 7.95 0 5.152-3.55 7.952-10.052 7.952zM238.05 299.847c-5.25 0-8.9-1.9-8.9-8.15v-10.55h-3.25v-6.15h3.25v-7.3l7.5-1.15v8.45h4.65l.95 6.15h-5.6v9.35c0 2 .95 2.9 3 2.9.65 0 1.25-.1 1.8-.25l.95 6.202c-1.2.347-2.35.497-4.35.497zM266.8 289.146h-14.7c.4 3.85 2.7 5.35 6 5.35 2.7 0 5.35-1 8.05-2.55l.75 5.3c-2.65 1.7-5.9 2.75-9.75 2.75-7.35 0-12.6-3.9-12.6-12.65 0-8 4.9-12.852 11.55-12.852 7.5 0 10.85 5.6 10.85 12.7 0 .752-.05 1.553-.15 1.952zm-10.9-9.75c-2.1 0-3.602 1.85-3.852 5.6h7.7c-.248-3.7-1.55-5.6-3.848-5.6zM298.9 299.497v-15.35c0-1.75-.65-2.95-2.4-2.95-1.35 0-2.65.85-4 2.15v16.15h-7.55v-15.35c0-1.75-.65-2.95-2.4-2.95-1.4 0-2.65.85-4 2.15v16.15h-7.552v-24.5h6.65l.55 3.35c2.2-2.25 4.45-3.85 7.6-3.85 3.353 0 5.202 1.65 6.103 3.85 2.2-2.2 4.6-3.85 7.65-3.85 4.55 0 6.95 2.85 6.95 7.6v17.4h-7.6z"/></g></svg>