<svg id="Layer_1" data-name="Layer 1" xmlns="http://www.w3.org/2000/svg" viewBox="0 0 239.99 313.2"><title>four-step-gfc-svg</title><path d="M30.67,249.83V216.46H44.39c5.64,0,9.73,5.26,9.73,10.34,0,5.36-3.81,10.43-9.4,10.43H33.07v12.6h-2.4Zm2.4-14.8H44.58c4.37,0,7.1-4,7.1-8.22s-3.34-8.18-7.38-8.18H33.07V235Z" style="fill:#828487"/><path d="M84.81,233.24V216.46h2.4v16.78c0,8.93-3.67,16.82-13.91,16.82-10.57,0-13.91-8.37-13.91-16.82V216.46h2.4v16.78c0,7.38,2.58,14.62,11.47,14.62C82.32,247.86,84.81,240.43,84.81,233.24Z" style="fill:#828487"/><path d="M95.48,249.83V216.46h13.91c5.64,0,9.68,5.26,9.68,10.34s-3.15,9.35-7.85,10.06l8.32,13h-2.77l-8.08-12.6H97.88v12.6h-2.4Zm2.4-14.8h11.7c4.32,0,7.1-4,7.1-8.22s-3.34-8.18-7.43-8.18H97.88V235Z" style="fill:#828487"/><path d="M145.82,222c-2.16-2.4-5.17-3.62-9.16-3.62-6.53,0-9.35,2.68-9.35,6.86s3,5.4,9.78,6.81c7.24,1.55,11.75,3.29,11.75,9.21s-4.84,8.84-11.94,8.84a18.7,18.7,0,0,1-13.21-5L125,243.2A16.32,16.32,0,0,0,137,248c5.78,0,9.31-2.16,9.31-6.44s-3.43-5.92-10.43-7.43-11-3.1-11-8.55c0-6,4.79-9.35,11.8-9.35a14.3,14.3,0,0,1,10.39,3.9Z" style="fill:#828487"/><path d="M179.94,233.24V216.46h2.4v16.78c0,8.93-3.67,16.82-13.91,16.82-10.57,0-13.91-8.37-13.91-16.82V216.46h2.4v16.78c0,7.38,2.58,14.62,11.47,14.62C177.45,247.86,179.94,240.43,179.94,233.24Z" style="fill:#828487"/><path d="M212.84,247.67v2.16H190.61V216.46h21.81v2.16H193v13.11h17v2.07H193v13.86h19.83Z" style="fill:#828487"/><path d="M73.86,265.1H74.8l1.4,3.53,1.41-3.53h0.92l-1.74,4.24,1.91,4.5,3.6-8.81h1.06L79.17,275H78.3l-2.09-4.92L74.11,275H73.24L69.06,265h1l3.61,8.81,1.89-4.5Z" style="fill:#231f20"/><path d="M84.08,271.3a3.64,3.64,0,1,1,7.27,0,2.3,2.3,0,0,1,0,.38H85.09a2.79,2.79,0,0,0,2.69,2.72A2.44,2.44,0,0,0,90,273.07l0.83,0.22a3.32,3.32,0,0,1-3.1,1.82A3.7,3.7,0,0,1,84.08,271.3Zm6.36-.36a2.74,2.74,0,0,0-2.7-2.65,2.7,2.7,0,0,0-2.68,2.65h5.38Z" style="fill:#231f20"/><path d="M97.31,273.46V278h-1V267.67h0.85v1.41a3.3,3.3,0,0,1,2.72-1.54,3.66,3.66,0,0,1,3.47,3.78,3.5,3.5,0,0,1-3.31,3.78A3.28,3.28,0,0,1,97.31,273.46Zm5.11-2.13a2.85,2.85,0,0,0-2.72-2.94,2.61,2.61,0,0,0-2.4,1.81v2.24a2.87,2.87,0,0,0,2.52,1.83A2.78,2.78,0,0,0,102.42,271.33Z" style="fill:#231f20"/><path d="M104.39,272.88c0-1.36,1.26-2.24,3.08-2.24a6.19,6.19,0,0,1,2.14.38v-0.66a1.93,1.93,0,0,0-2-2.1,4.15,4.15,0,0,0-2.35.87l-0.34-.63a4.88,4.88,0,0,1,2.79-1,2.69,2.69,0,0,1,2.9,2.9v3.29a0.32,0.32,0,0,0,.34.39V275l-0.38,0a0.72,0.72,0,0,1-.77-0.67l0-.57a3.63,3.63,0,0,1-2.83,1.36A2.33,2.33,0,0,1,104.39,272.88Zm5,0.48a1,1,0,0,0,.24-0.55v-1.19a5.83,5.83,0,0,0-2-.38c-1.36,0-2.3.59-2.3,1.55a1.65,1.65,0,0,0,1.82,1.58A2.93,2.93,0,0,0,109.38,273.36Z" style="fill:#231f20"/><path d="M116.28,268.51a2.8,2.8,0,0,0-2.69,1.92V275h-1v-7.3h0.9v1.75a2.86,2.86,0,0,1,2.33-1.79,3.64,3.64,0,0,1,.42,0v0.87Z" style="fill:#231f20"/><path d="M121.08,274.62a3.94,3.94,0,0,1-1.65.43,1.39,1.39,0,0,1-1.54-1.4v-5.22h-1v-0.76h1v-2.47h1v2.47h1.68v0.76h-1.68v5a0.81,0.81,0,0,0,.88.78,2.29,2.29,0,0,0,1.11-.32Z" style="fill:#231f20"/><path d="M128.33,275h-1v-4.08c0-1.72-.49-2.48-1.56-2.48a3,3,0,0,0-2.68,2.09V275h-1v-7.3h0.87v1.65a3.58,3.58,0,0,1,3.1-1.78c1.64,0,2.17,1.23,2.17,3.15V275Z" style="fill:#231f20"/><path d="M129.83,271.3a3.64,3.64,0,1,1,7.27,0,2.3,2.3,0,0,1,0,.38h-6.23a2.79,2.79,0,0,0,2.69,2.72,2.44,2.44,0,0,0,2.24-1.32l0.83,0.22a3.32,3.32,0,0,1-3.1,1.82A3.7,3.7,0,0,1,129.83,271.3Zm6.36-.36a2.74,2.74,0,0,0-2.7-2.65,2.7,2.7,0,0,0-2.68,2.65h5.38Z" style="fill:#231f20"/><path d="M142.17,268.51a2.8,2.8,0,0,0-2.69,1.92V275h-1v-7.3h0.9v1.75a2.86,2.86,0,0,1,2.33-1.79,3.64,3.64,0,0,1,.42,0v0.87Z" style="fill:#231f20"/><path d="M155.57,267.67h0.92l-3.12,7.3h-0.8L151,271.25,149.46,275h-0.8l-3.12-7.3h0.91l2.66,6.32,1.39-3.33-1.25-3h0.81l1,2.38,0.94-2.38h0.81l-1.23,3,1.39,3.33Z" style="fill:#231f20"/><path d="M157.73,266.15v-1.4h1v1.4h-1Zm0,8.82v-7.3h1V275h-1Z" style="fill:#231f20"/><path d="M164.26,274.62a3.94,3.94,0,0,1-1.65.43,1.39,1.39,0,0,1-1.54-1.4v-5.22h-1v-0.76h1v-2.47h1v2.47h1.68v0.76H162v5a0.81,0.81,0,0,0,.88.78,2.29,2.29,0,0,0,1.11-.32Z" style="fill:#231f20"/><path d="M171.51,275h-1v-4.08c0-1.65-.59-2.48-1.68-2.48a2.86,2.86,0,0,0-2.55,2.09V275h-1V264.75h1v4.58a3.3,3.3,0,0,1,2.87-1.78c1.68,0,2.31,1.27,2.31,3.15V275Z" style="fill:#231f20"/><path d="M58.2,284.35a3.17,3.17,0,0,1,3,1.74l-0.92.29a2.33,2.33,0,0,0-2.07-1.19,2.74,2.74,0,0,0-2.65,2.91,2.83,2.83,0,0,0,2.66,3,2.34,2.34,0,0,0,2.13-1.25l0.92,0.28a3.17,3.17,0,0,1-3,1.81,3.7,3.7,0,0,1-3.67-3.81A3.62,3.62,0,0,1,58.2,284.35Z" style="fill:#231f20"/><path d="M62.76,281.55h1v8.57a0.79,0.79,0,0,0,.85.87,2.21,2.21,0,0,0,.76-0.15l0.17,0.77a4.22,4.22,0,0,1-1.32.25,1.31,1.31,0,0,1-1.42-1.41v-8.9Z" style="fill:#231f20"/><path d="M66.42,282.95v-1.4h1v1.4h-1Zm0,8.82v-7.3h1v7.3h-1Z" style="fill:#231f20"/><path d="M68.94,288.1a3.64,3.64,0,1,1,7.27,0,2.3,2.3,0,0,1,0,.38H69.95a2.79,2.79,0,0,0,2.69,2.72,2.45,2.45,0,0,0,2.24-1.32l0.83,0.22a3.32,3.32,0,0,1-3.1,1.82A3.7,3.7,0,0,1,68.94,288.1Zm6.36-.36a2.74,2.74,0,0,0-2.7-2.65,2.7,2.7,0,0,0-2.68,2.65H75.3Z" style="fill:#231f20"/><path d="M83.77,291.77h-1V287.7c0-1.72-.49-2.48-1.56-2.48a3,3,0,0,0-2.68,2.09v4.47h-1v-7.3H78.5v1.65a3.58,3.58,0,0,1,3.1-1.78c1.64,0,2.17,1.23,2.17,3.15v4.27Z" style="fill:#231f20"/><path d="M89.21,291.42a3.94,3.94,0,0,1-1.65.43,1.39,1.39,0,0,1-1.54-1.4v-5.22H85v-0.76h1V282h1v2.47h1.68v0.76H87v5a0.81,0.81,0,0,0,.88.78,2.29,2.29,0,0,0,1.11-.32Z" style="fill:#231f20"/><path d="M89.71,290.82l0.43-.64a4,4,0,0,0,2.62,1c1.16,0,1.93-.5,1.93-1.37s-0.73-1-2.2-1.39C90.81,288,90,287.71,90,286.56c0-1.47,1.23-2.21,2.73-2.21a3.65,3.65,0,0,1,2.63,1L95,285.9a3.08,3.08,0,0,0-2.2-.84c-1,0-1.79.41-1.79,1.36,0,0.77.52,0.94,1.82,1.25,1.88,0.45,2.84.81,2.84,2.06s-1.12,2.19-2.84,2.19A4.62,4.62,0,0,1,89.71,290.82Z" style="fill:#231f20"/><path d="M109.58,284.47h0.92l-3.12,7.3h-0.8L105,288l-1.55,3.73h-0.8l-3.12-7.3h0.91l2.66,6.32,1.39-3.33-1.25-3h0.81l1,2.38,0.94-2.38h0.81l-1.23,3,1.39,3.33Z" style="fill:#231f20"/><path d="M117.88,291.77h-1V287.7c0-1.65-.59-2.48-1.68-2.48a2.86,2.86,0,0,0-2.55,2.09v4.47h-1V281.55h1v4.58a3.3,3.3,0,0,1,2.87-1.78c1.68,0,2.31,1.27,2.31,3.15v4.27Z" style="fill:#231f20"/><path d="M119.38,288.14a3.63,3.63,0,1,1,3.63,3.77A3.65,3.65,0,0,1,119.38,288.14Zm3.61,2.93a3,3,0,1,0-2.63-2.91A2.77,2.77,0,0,0,123,291.07Z" style="fill:#231f20"/><path d="M127.55,290.82l0.43-.64a4,4,0,0,0,2.62,1c1.16,0,1.93-.5,1.93-1.37s-0.73-1-2.2-1.39c-1.69-.42-2.45-0.71-2.45-1.86,0-1.47,1.23-2.21,2.73-2.21a3.65,3.65,0,0,1,2.63,1l-0.46.56a3.08,3.08,0,0,0-2.2-.84c-1,0-1.79.41-1.79,1.36,0,0.77.52,0.94,1.82,1.25,1.88,0.45,2.84.81,2.84,2.06s-1.12,2.19-2.84,2.19A4.62,4.62,0,0,1,127.55,290.82Z" style="fill:#231f20"/><path d="M134.51,288.1a3.64,3.64,0,1,1,7.27,0,2.3,2.3,0,0,1,0,.38h-6.23a2.79,2.79,0,0,0,2.69,2.72,2.45,2.45,0,0,0,2.24-1.32l0.83,0.22a3.32,3.32,0,0,1-3.1,1.82A3.7,3.7,0,0,1,134.51,288.1Zm6.36-.36a2.74,2.74,0,0,0-2.7-2.65,2.7,2.7,0,0,0-2.68,2.65h5.38Z" style="fill:#231f20"/><path d="M148.6,291.77l-3-7.3h1l2.51,6.42,2.52-6.42h0.92l-3,7.3h-1Z" style="fill:#231f20"/><path d="M153.08,289.68c0-1.36,1.26-2.24,3.08-2.24a6.19,6.19,0,0,1,2.14.38v-0.66a1.93,1.93,0,0,0-2-2.1,4.15,4.15,0,0,0-2.35.87l-0.34-.63a4.88,4.88,0,0,1,2.79-1,2.69,2.69,0,0,1,2.9,2.9v3.29a0.32,0.32,0,0,0,.34.39v0.84l-0.38,0a0.72,0.72,0,0,1-.77-0.67l0-.57a3.63,3.63,0,0,1-2.83,1.36A2.33,2.33,0,0,1,153.08,289.68Zm5,0.48a1,1,0,0,0,.24-0.55v-1.19a5.83,5.83,0,0,0-2-.38c-1.36,0-2.3.59-2.3,1.55a1.65,1.65,0,0,0,1.82,1.58A2.93,2.93,0,0,0,158.06,290.16Z" style="fill:#231f20"/><path d="M161.36,281.55h1v8.57a0.79,0.79,0,0,0,.85.87,2.21,2.21,0,0,0,.76-0.15l0.17,0.77a4.22,4.22,0,0,1-1.32.25,1.31,1.31,0,0,1-1.42-1.41v-8.9Z" style="fill:#231f20"/><path d="M164.95,288.76v-4.29h1v4.12c0,1.67.56,2.48,1.69,2.48a2.88,2.88,0,0,0,2.63-2v-4.59h1v6.06a0.33,0.33,0,0,0,.35.39v0.84a2.7,2.7,0,0,1-.39,0,0.73,0.73,0,0,1-.78-0.69v-1a3.51,3.51,0,0,1-3.08,1.79C165.75,291.91,164.95,290.83,164.95,288.76Z" style="fill:#231f20"/><path d="M172.86,288.1a3.64,3.64,0,1,1,7.27,0,2.3,2.3,0,0,1,0,.38h-6.23a2.79,2.79,0,0,0,2.69,2.72,2.45,2.45,0,0,0,2.24-1.32l0.83,0.22a3.32,3.32,0,0,1-3.1,1.82A3.7,3.7,0,0,1,172.86,288.1Zm6.36-.36a2.74,2.74,0,0,0-2.7-2.65,2.7,2.7,0,0,0-2.68,2.65h5.38Z" style="fill:#231f20"/><path d="M180.94,290.82l0.43-.64a4,4,0,0,0,2.62,1c1.16,0,1.93-.5,1.93-1.37s-0.73-1-2.2-1.39c-1.69-.42-2.45-0.71-2.45-1.86,0-1.47,1.23-2.21,2.73-2.21a3.65,3.65,0,0,1,2.63,1l-0.46.56a3.08,3.08,0,0,0-2.2-.84c-1,0-1.79.41-1.79,1.36,0,0.77.52,0.94,1.82,1.25,1.88,0.45,2.84.81,2.84,2.06s-1.12,2.19-2.84,2.19A4.62,4.62,0,0,1,180.94,290.82Z" style="fill:#231f20"/><path d="M73.13,306.48c0-1.36,1.26-2.24,3.08-2.24a6.19,6.19,0,0,1,2.14.38V304a1.93,1.93,0,0,0-2-2.1,4.14,4.14,0,0,0-2.35.87l-0.34-.63a4.88,4.88,0,0,1,2.79-1,2.69,2.69,0,0,1,2.9,2.9v3.29a0.32,0.32,0,0,0,.34.39v0.84l-0.38,0a0.72,0.72,0,0,1-.77-0.67l0-.57a3.63,3.63,0,0,1-2.83,1.36A2.33,2.33,0,0,1,73.13,306.48Zm5,0.48a1,1,0,0,0,.24-0.55v-1.19a5.83,5.83,0,0,0-2-.38c-1.36,0-2.3.59-2.3,1.55A1.65,1.65,0,0,0,75.88,308,2.93,2.93,0,0,0,78.12,307Z" style="fill:#231f20"/><path d="M81.42,298.35h1v8.57a0.79,0.79,0,0,0,.85.87,2.22,2.22,0,0,0,.76-0.15l0.17,0.77a4.23,4.23,0,0,1-1.32.25,1.31,1.31,0,0,1-1.42-1.42v-8.89Z" style="fill:#231f20"/><path d="M85.07,299.75v-1.4h1v1.4h-1Zm0,8.82v-7.3h1v7.3h-1Z" style="fill:#231f20"/><path d="M87.61,304.94a3.56,3.56,0,0,1,3.39-3.8,3.37,3.37,0,0,1,2.8,1.65v-1.53h0.85v7.33c0,2-1.62,3.1-3.59,3.1A3.51,3.51,0,0,1,87.8,310l0.59-.46a3,3,0,0,0,2.68,1.36,2.35,2.35,0,0,0,2.63-2.34v-1.44A3.23,3.23,0,0,1,91,308.67,3.59,3.59,0,0,1,87.61,304.94Zm6.09,1.12v-2.26A2.89,2.89,0,0,0,91.16,302a2.79,2.79,0,0,0-2.59,3,2.83,2.83,0,0,0,2.72,2.91A2.57,2.57,0,0,0,93.7,306.06Z" style="fill:#231f20"/><path d="M102.83,308.57h-1V304.5c0-1.72-.49-2.48-1.56-2.48a3,3,0,0,0-2.68,2.09v4.47h-1v-7.3h0.87v1.65a3.58,3.58,0,0,1,3.1-1.78c1.64,0,2.17,1.23,2.17,3.15v4.27Z" style="fill:#231f20"/><path d="M117.23,301.27h0.92l-3.12,7.3h-0.8l-1.56-3.73-1.55,3.73h-0.8l-3.12-7.3h0.91l2.66,6.32,1.39-3.33-1.25-3h0.81l1,2.38,0.94-2.38h0.81l-1.23,3,1.39,3.33Z" style="fill:#231f20"/><path d="M119.4,299.75v-1.4h1v1.4h-1Zm0,8.82v-7.3h1v7.3h-1Z" style="fill:#231f20"/><path d="M125.92,308.22a3.93,3.93,0,0,1-1.65.43,1.39,1.39,0,0,1-1.54-1.4V302h-1v-0.76h1v-2.47h1v2.47h1.68V302h-1.68v5a0.81,0.81,0,0,0,.88.79,2.29,2.29,0,0,0,1.11-.32Z" style="fill:#231f20"/><path d="M133.18,308.57h-1V304.5c0-1.65-.59-2.48-1.68-2.48A2.86,2.86,0,0,0,128,304.1v4.47h-1V298.35h1v4.58a3.3,3.3,0,0,1,2.87-1.78c1.68,0,2.31,1.27,2.31,3.15v4.27Z" style="fill:#231f20"/><path d="M138.26,304.94a3.63,3.63,0,1,1,3.63,3.77A3.65,3.65,0,0,1,138.26,304.94Zm3.61,2.93a3,3,0,1,0-2.63-2.91A2.77,2.77,0,0,0,141.87,307.87Z" style="fill:#231f20"/><path d="M147,305.56v-4.29h1v4.12c0,1.67.56,2.48,1.69,2.48a2.88,2.88,0,0,0,2.63-2v-4.59h1v6.06a0.33,0.33,0,0,0,.35.39v0.84a2.63,2.63,0,0,1-.39,0,0.73,0.73,0,0,1-.78-0.69v-1a3.51,3.51,0,0,1-3.08,1.79C147.79,308.71,147,307.63,147,305.56Z" style="fill:#231f20"/><path d="M159,302.11a2.8,2.8,0,0,0-2.69,1.92v4.54h-1v-7.3h0.9V303a2.86,2.86,0,0,1,2.33-1.79,3.64,3.64,0,0,1,.42,0v0.87Z" style="fill:#231f20"/><path d="M159.61,307.62L160,307a4,4,0,0,0,2.62,1c1.16,0,1.93-.5,1.93-1.37s-0.73-1-2.2-1.39c-1.69-.42-2.45-0.71-2.45-1.86,0-1.47,1.23-2.21,2.73-2.21a3.65,3.65,0,0,1,2.63,1l-0.46.56a3.08,3.08,0,0,0-2.2-.84c-1,0-1.79.41-1.79,1.36,0,0.77.52,0.94,1.82,1.25,1.88,0.45,2.84.81,2.84,2.06s-1.12,2.18-2.84,2.18A4.62,4.62,0,0,1,159.61,307.62Z" style="fill:#231f20"/><path d="M166.94,308.57V307.2h0.81v1.37h-0.81Z" style="fill:#231f20"/><line x1="228" y1="204.75" x2="12" y2="204.75" style="fill:none;stroke:#c41230;stroke-miterlimit:10"/><path d="M2.44,59.85A124.71,124.71,0,0,0,63.14,82.73C56.06,105.16,47.41,126,34.4,142.55c-10.87-6.92-21.1-14.48-32-21.41V59.85Z" style="fill:#545454;fill-rule:evenodd"/><path d="M153.47,91.23A78.79,78.79,0,0,1,167,116.75c0.95,3.15,2.44,7.71,2.05,10.85-0.4,3.3-5.32,9.74-10,9.09-2.43-.34-4.38-4.48-6.45-5.86-1.21-.81-2.85-1-4.11-1.76-5.28-3.17-9.71-8.78-14.66-12.9-5.15-4.29-10-8.41-14.66-12.61a3.14,3.14,0,0,1-2.93-1.17c-4.84-.33-7.81,2.73-12,2.05-3.41,3.7-8,8.26-15.54,8.21-4.39,0-10.71-2.44-9.68-7.33,0.52-2.46,5.38-4.53,7.92-6.75,5.64-4.93,10.49-7.68,18.77-10,4.3-1.19,8.35-3.39,12.61-3.81C132.38,83.4,139.6,95.2,153.47,91.23Z" style="fill:#c2c4c6;fill-rule:evenodd"/><path d="M105.37,106.19c4.34,0,6.24-2.37,11.14-1.76,4.13,5.55,12,9.14,17.6,14.08,2.31,2,4,4.28,6.16,6.16,4.21,3.68,9,6.4,13.49,10.56,2.35,2.18,6.82,5.53,6.45,9.09-0.26,2.5-4.31,5.43-7.63,5.28-2.17-.1-4.63-2.2-6.74-3.52-5.89-3.67-12.48-8.35-18.48-11.44,1.05,2.82,4.75,4.7,7.92,7.33s9,6.06,8.21,11.14c-0.58,3.91-5,7-9.39,6.75-5.6-.38-8.3-7.82-12.9-9.09,1.78,3.11,6.47,5.85,9.09,9.09-1.44,3.33-4.51,6.21-8.5,5.57-3-.49-4.48-4.16-7-5,1.18,2.73,4.33,3.49,5.57,6.16-2.23,5.76-12.75,6.37-15.84,1.76-2.34-3.49-1.5-7.16-7.33-7.62a10,10,0,0,0-4.69.88c1.22-5.18-2.78-7.55-8.51-6.74-0.57-2.44-.92-3.78-2.35-4.69-2.1-1.34-4.82-.19-7.33-0.88-2-.55-7.57-6.65-9.38-8.21-3.45-3-6.65-5.43-8.8-8.5C63.34,121.25,71,110.32,71.94,92.7c11.82,2.67,21.81-7,33.14-5.57-10,1.17-15.24,6.76-22.29,12-2.65,2-6.92,3.5-6.16,7.92s6.91,7.54,12,7.63C96.31,114.82,102.45,110.05,105.37,106.19Z" style="fill:#545454;fill-rule:evenodd"/><path d="M188.08,131.41a8.7,8.7,0,0,1,0,5v-5Z" style="fill:#545454;fill-rule:evenodd"/><path d="M56.69,144.61a18.79,18.79,0,0,1,1.47-5.87c3.45,2.71,6.46,5.85,9.68,8.8-0.89,5.4-11,9.53-11.14.59v-3.52Z" style="fill:#c2c4c6;fill-rule:evenodd"/><path d="M137.93,143.14a15.16,15.16,0,0,1,6.74,4.4C141.71,147.88,140.47,144.18,137.93,143.14Z" style="fill:#80431d;fill-rule:evenodd"/><path d="M56.69,144.61v3.52A4.43,4.43,0,0,1,56.69,144.61Z" style="fill:#fab6a0;fill-rule:evenodd"/><path d="M70.18,154.28c0.26-1.21.53-2.4,0.88-3.52,3.76,1.26,11.34.1,10.85,6.45,5.43-1.49,10,1.07,8.8,6.16,0.92,0.1,2-.8,3.23-0.88,5.63-.35,7.88,4.29,9.38,8.8a15,15,0,0,1-4.69,1.76H95.4c-2.71-.62-4.08-2.56-4.69-5.28-4,2.57-9.35.17-10.26-3.81-5.06.77-9.76-.86-10.27-5.57v-4.11Z" style="fill:#c2c4c6;fill-rule:evenodd"/><path d="M70.18,154.28v4.11A6,6,0,0,1,70.18,154.28Z" style="fill:#fab6a0;fill-rule:evenodd"/><path d="M95.4,173.05h3.23A3.76,3.76,0,0,1,95.4,173.05Z" style="fill:#fab6a0;fill-rule:evenodd"/><circle cx="53.26" cy="125.32" r="3.52" style="fill:#545454"/><circle cx="178.81" cy="126.92" r="3.52" style="fill:#c41230"/><path d="M228.55,57.8c0.3,17.48.87,41.7-.29,58.95-14.46,6.66-27.61,16.18-40.47,23.46-0.17-1.54.52-2.22,0.29-3.81a8.7,8.7,0,0,0,0-5c-1.59-20.31-10.15-35.21-17-49.27C194.21,78,211.42,67.95,228.55,57.8Z" style="fill:#c41230;fill-rule:evenodd"/></svg>