<?xml version="1.0" encoding="utf-8"?>
<!-- Generator: Adobe Illustrator 15.1.0, SVG Export Plug-In . SVG Version: 6.00 Build 0)  -->
<!DOCTYPE svg PUBLIC "-//W3C//DTD SVG 1.1//EN" "http://www.w3.org/Graphics/SVG/1.1/DTD/svg11.dtd">
<svg version="1.1" id="Layer_1" xmlns="http://www.w3.org/2000/svg" xmlns:xlink="http://www.w3.org/1999/xlink" x="0px" y="0px"
	 width="394.312px" height="135.597px" viewBox="0 0 394.312 135.597" enable-background="new 0 0 394.312 135.597"
	 xml:space="preserve">
<g>
	<path fill="#EC008C" d="M99.183,107.723c-0.094-0.238-0.208-0.426-0.34-0.564c-0.133-0.137-0.353-0.24-0.657-0.31
		c-0.306-0.068-0.732-0.113-1.28-0.132c-0.548-0.018-1.283-0.027-2.206-0.027c-0.798,0-1.44,0.009-1.926,0.027
		c-0.484,0.019-0.864,0.063-1.138,0.132c-0.274,0.069-0.474,0.17-0.6,0.3c-0.125,0.132-0.234,0.304-0.328,0.517l-9.365,21.559
		c-0.188,0.438-0.306,0.787-0.353,1.051s0.007,0.467,0.165,0.609c0.156,0.144,0.438,0.235,0.845,0.273
		c0.407,0.039,0.97,0.056,1.689,0.056c0.673,0,1.217-0.012,1.631-0.037c0.415-0.025,0.736-0.072,0.962-0.141
		c0.227-0.069,0.392-0.163,0.494-0.281c0.101-0.12,0.183-0.267,0.246-0.441l1.925-4.751h11.408l2.042,4.882
		c0.063,0.163,0.141,0.294,0.234,0.395c0.095,0.1,0.258,0.178,0.494,0.235c0.235,0.056,0.575,0.094,1.021,0.113
		c0.446,0.019,1.068,0.027,1.866,0.027c0.767,0,1.369-0.015,1.807-0.046c0.439-0.031,0.744-0.112,0.916-0.244
		s0.236-0.329,0.188-0.592c-0.047-0.263-0.165-0.62-0.352-1.071L99.183,107.723L99.183,107.723z M98.924,121.769h-8.615
		l4.296-10.328h0.023L98.924,121.769L98.924,121.769z M148.219,108.775c0-0.314-0.051-0.593-0.153-0.837
		c-0.101-0.245-0.25-0.451-0.445-0.619c-0.195-0.17-0.446-0.298-0.753-0.386c-0.304-0.087-0.668-0.13-1.089-0.13h-4.156
		c-0.58,0-1.088,0.046-1.526,0.14c-0.438,0.095-0.818,0.254-1.138,0.479c-0.321,0.225-0.604,0.52-0.845,0.882
		c-0.243,0.363-0.465,0.808-0.669,1.333l-6.807,14.44h-0.094l-6.573-14.478c-0.188-0.525-0.407-0.967-0.657-1.324
		c-0.25-0.357-0.563-0.645-0.938-0.864c-0.376-0.219-0.822-0.375-1.339-0.47c-0.516-0.094-1.134-0.14-1.854-0.14h-4.038
		c-0.704,0-1.268,0.168-1.689,0.506c-0.423,0.338-0.634,0.826-0.634,1.466v21.651c0,0.125,0.043,0.237,0.129,0.338
		c0.086,0.099,0.242,0.181,0.469,0.243c0.227,0.063,0.528,0.112,0.903,0.15c0.377,0.039,0.846,0.056,1.409,0.056
		c0.579,0,1.052-0.018,1.42-0.056c0.368-0.038,0.669-0.088,0.903-0.15c0.235-0.063,0.396-0.144,0.481-0.243
		c0.087-0.101,0.129-0.213,0.129-0.338v-19.774h0.047l8.499,19.755c0.047,0.137,0.14,0.256,0.282,0.357
		c0.14,0.099,0.332,0.185,0.575,0.252c0.242,0.069,0.552,0.12,0.927,0.151c0.375,0.032,0.83,0.046,1.362,0.046
		c0.532,0,0.987-0.008,1.361-0.027c0.376-0.02,0.685-0.06,0.927-0.123c0.243-0.063,0.435-0.148,0.576-0.254
		c0.141-0.105,0.242-0.24,0.306-0.403l8.802-19.755h0.047v19.774c0,0.125,0.046,0.237,0.14,0.338c0.095,0.099,0.25,0.181,0.47,0.243
		c0.218,0.063,0.515,0.112,0.891,0.15c0.376,0.039,0.845,0.056,1.409,0.056c0.579,0,1.056-0.018,1.431-0.056
		c0.376-0.038,0.676-0.088,0.904-0.15c0.227-0.063,0.383-0.144,0.468-0.243c0.087-0.101,0.13-0.213,0.13-0.338V108.775
		L148.219,108.775z M172.784,128.257c-0.038-0.243-0.097-0.441-0.175-0.59c-0.08-0.151-0.177-0.261-0.293-0.329
		c-0.118-0.069-0.248-0.103-0.388-0.103h-10.938v-6.855h9.178c0.141,0,0.27-0.032,0.388-0.094c0.117-0.063,0.214-0.166,0.294-0.309
		c0.078-0.144,0.136-0.336,0.175-0.573c0.039-0.238,0.058-0.539,0.058-0.902c0-0.351-0.019-0.648-0.058-0.892
		c-0.039-0.244-0.097-0.438-0.175-0.582c-0.08-0.143-0.177-0.25-0.294-0.319c-0.118-0.068-0.247-0.104-0.388-0.104h-9.178v-5.934
		h10.845c0.14,0,0.266-0.034,0.376-0.103c0.108-0.068,0.203-0.178,0.28-0.329c0.08-0.149,0.138-0.348,0.177-0.591
		c0.039-0.244,0.059-0.542,0.059-0.892c0-0.375-0.02-0.685-0.059-0.93c-0.039-0.244-0.097-0.444-0.177-0.6
		c-0.078-0.157-0.172-0.266-0.28-0.328c-0.11-0.063-0.236-0.094-0.376-0.094h-15.165c-0.516,0-0.95,0.121-1.302,0.365
		c-0.353,0.245-0.527,0.643-0.527,1.193v21.184c0,0.549,0.175,0.948,0.527,1.192c0.353,0.245,0.786,0.366,1.302,0.366h15.258
		c0.141,0,0.271-0.034,0.388-0.103c0.117-0.068,0.214-0.179,0.293-0.329c0.078-0.149,0.137-0.348,0.175-0.591
		c0.039-0.244,0.06-0.547,0.06-0.911C172.844,128.806,172.822,128.502,172.784,128.257L172.784,128.257z M200.706,129.948
		c-0.08-0.219-0.233-0.567-0.47-1.043l-2.558-4.788c-0.297-0.576-0.602-1.092-0.915-1.549c-0.313-0.456-0.646-0.864-0.998-1.221
		c-0.352-0.357-0.728-0.66-1.127-0.91c-0.398-0.251-0.825-0.463-1.279-0.64c0.938-0.237,1.776-0.55,2.511-0.938
		c0.736-0.388,1.353-0.844,1.856-1.372c0.499-0.526,0.88-1.123,1.138-1.792c0.258-0.669,0.386-1.412,0.386-2.225
		c0-0.965-0.18-1.818-0.539-2.564c-0.361-0.745-0.88-1.389-1.563-1.934c-0.681-0.544-1.51-0.985-2.487-1.324
		c-0.98-0.338-2.078-0.576-3.298-0.714c-0.423-0.037-0.893-0.068-1.408-0.094c-0.516-0.024-1.174-0.037-1.972-0.037h-7.864
		c-0.518,0-0.952,0.121-1.304,0.365c-0.352,0.245-0.528,0.643-0.528,1.193v22.066c0,0.125,0.047,0.237,0.14,0.338
		c0.094,0.099,0.259,0.181,0.494,0.243c0.235,0.063,0.551,0.112,0.95,0.15c0.399,0.039,0.897,0.056,1.49,0.056
		c0.611,0,1.112-0.018,1.503-0.056c0.391-0.038,0.704-0.088,0.939-0.15c0.235-0.063,0.403-0.144,0.505-0.243
		c0.101-0.101,0.152-0.213,0.152-0.338v-9.258h1.925c0.657,0,1.236,0.082,1.736,0.244c0.501,0.163,0.943,0.404,1.327,0.723
		c0.384,0.319,0.732,0.717,1.044,1.192c0.313,0.477,0.634,1.021,0.963,1.633l2.724,5.429c0.062,0.15,0.14,0.277,0.234,0.384
		c0.094,0.106,0.254,0.193,0.48,0.263c0.227,0.069,0.538,0.116,0.927,0.141c0.392,0.025,0.917,0.037,1.573,0.037
		c0.784,0,1.4-0.012,1.855-0.037c0.454-0.025,0.798-0.069,1.034-0.131c0.233-0.063,0.383-0.141,0.446-0.236
		c0.062-0.093,0.092-0.208,0.092-0.347C200.822,130.339,200.785,130.166,200.706,129.948L200.706,129.948z M192.538,115.403
		c-0.22,0.426-0.548,0.792-0.985,1.098c-0.438,0.307-0.987,0.544-1.644,0.714c-0.657,0.168-1.424,0.253-2.3,0.253h-3.146v-6.893
		h2.77c0.704,0,1.256,0.019,1.655,0.057c0.399,0.037,0.756,0.087,1.069,0.15c1.032,0.225,1.775,0.613,2.23,1.165
		c0.453,0.552,0.68,1.226,0.68,2.027C192.866,114.501,192.755,114.978,192.538,115.403L192.538,115.403z M211.553,107.478
		c0-0.125-0.052-0.237-0.154-0.336c-0.101-0.1-0.27-0.182-0.505-0.244c-0.234-0.063-0.546-0.113-0.938-0.15
		c-0.394-0.039-0.893-0.056-1.504-0.056c-0.592,0-1.086,0.018-1.477,0.056c-0.391,0.037-0.708,0.088-0.951,0.15
		c-0.241,0.063-0.416,0.144-0.516,0.244c-0.103,0.099-0.152,0.212-0.152,0.336v22.949c0,0.125,0.049,0.237,0.152,0.338
		c0.101,0.099,0.269,0.181,0.506,0.243c0.232,0.063,0.548,0.112,0.947,0.15c0.399,0.039,0.899,0.056,1.491,0.056
		c0.612,0,1.111-0.018,1.504-0.056c0.392-0.038,0.704-0.088,0.938-0.15c0.235-0.063,0.404-0.144,0.505-0.243
		c0.103-0.101,0.154-0.213,0.154-0.338V107.478L211.553,107.478z M239.133,126.342c-0.033-0.268-0.079-0.479-0.141-0.629
		c-0.063-0.15-0.139-0.25-0.234-0.3c-0.095-0.05-0.22-0.075-0.375-0.075c-0.207,0-0.492,0.1-0.858,0.3
		c-0.366,0.201-0.835,0.426-1.406,0.676c-0.573,0.251-1.258,0.479-2.056,0.686c-0.798,0.207-1.744,0.31-2.841,0.31
		c-1.206,0-2.287-0.167-3.251-0.499c-0.961-0.331-1.784-0.835-2.463-1.511c-0.682-0.676-1.205-1.536-1.572-2.581
		c-0.37-1.045-0.552-2.281-0.552-3.709c0-1.302,0.171-2.472,0.516-3.513c0.345-1.039,0.847-1.924,1.513-2.656
		c0.665-0.733,1.472-1.297,2.42-1.69c0.945-0.394,2.021-0.592,3.227-0.592c1.095,0,2.036,0.109,2.827,0.328
		c0.79,0.22,1.472,0.465,2.042,0.733c0.57,0.27,1.038,0.514,1.396,0.732c0.362,0.219,0.66,0.329,0.894,0.329
		c0.141,0,0.267-0.039,0.375-0.113s0.204-0.194,0.282-0.357c0.079-0.162,0.133-0.375,0.166-0.638
		c0.03-0.263,0.047-0.583,0.047-0.958c0-0.351-0.011-0.645-0.036-0.883c-0.024-0.238-0.06-0.444-0.106-0.62
		c-0.046-0.175-0.111-0.321-0.187-0.433c-0.079-0.113-0.223-0.252-0.435-0.422c-0.211-0.168-0.583-0.372-1.117-0.61
		c-0.532-0.237-1.129-0.448-1.795-0.628c-0.665-0.183-1.388-0.329-2.17-0.441c-0.785-0.113-1.597-0.17-2.441-0.17
		c-2.083,0-3.986,0.283-5.717,0.844c-1.729,0.564-3.209,1.392-4.448,2.48c-1.236,1.088-2.2,2.435-2.887,4.037
		c-0.687,1.602-1.032,3.437-1.032,5.502c0,2.029,0.313,3.806,0.94,5.334c0.625,1.526,1.523,2.8,2.697,3.821
		c1.176,1.02,2.599,1.787,4.271,2.3c1.676,0.513,3.556,0.771,5.636,0.771c1.065,0,2.053-0.069,2.969-0.207
		c0.918-0.138,1.729-0.309,2.441-0.517c0.712-0.207,1.315-0.423,1.81-0.648c0.492-0.226,0.823-0.411,0.997-0.555
		c0.171-0.144,0.296-0.271,0.377-0.384c0.076-0.112,0.139-0.247,0.187-0.403c0.047-0.158,0.082-0.345,0.106-0.564
		c0.022-0.22,0.033-0.484,0.033-0.798C239.179,126.971,239.163,126.611,239.133,126.342L239.133,126.342z M259.108,107.723
		c-0.092-0.238-0.207-0.426-0.339-0.564c-0.134-0.137-0.354-0.24-0.657-0.31c-0.304-0.068-0.731-0.113-1.279-0.132
		c-0.548-0.018-1.282-0.027-2.205-0.027c-0.799,0-1.442,0.009-1.926,0.027c-0.486,0.019-0.866,0.063-1.138,0.132
		c-0.274,0.069-0.475,0.17-0.6,0.3c-0.125,0.132-0.233,0.304-0.329,0.517l-9.367,21.559c-0.187,0.438-0.304,0.787-0.351,1.051
		c-0.046,0.264,0.008,0.467,0.164,0.609c0.157,0.144,0.439,0.235,0.847,0.273c0.405,0.039,0.97,0.056,1.689,0.056
		c0.673,0,1.216-0.012,1.632-0.037c0.413-0.025,0.733-0.072,0.961-0.141c0.228-0.069,0.391-0.163,0.492-0.281
		c0.103-0.12,0.184-0.267,0.25-0.441l1.923-4.751h11.409l2.042,4.882c0.063,0.163,0.138,0.294,0.233,0.395
		c0.096,0.1,0.258,0.178,0.492,0.235c0.235,0.056,0.576,0.094,1.021,0.113c0.448,0.019,1.069,0.027,1.866,0.027
		c0.769,0,1.372-0.015,1.809-0.046c0.438-0.031,0.744-0.112,0.915-0.244c0.171-0.132,0.234-0.329,0.19-0.592
		c-0.049-0.263-0.166-0.62-0.355-1.071L259.108,107.723L259.108,107.723z M258.85,121.769h-8.615l4.296-10.328h0.024L258.85,121.769
		L258.85,121.769z M290.188,121.272c-0.375-0.72-0.87-1.346-1.48-1.878c-0.608-0.532-1.307-0.988-2.089-1.37
		c-0.782-0.383-1.581-0.724-2.392-1.024c-0.815-0.3-1.614-0.585-2.396-0.854c-0.783-0.271-1.483-0.558-2.103-0.865
		c-0.616-0.306-1.111-0.657-1.478-1.051c-0.369-0.394-0.552-0.861-0.552-1.398c0-0.364,0.082-0.708,0.248-1.033
		c0.163-0.326,0.412-0.605,0.749-0.836c0.337-0.232,0.755-0.412,1.257-0.544c0.5-0.132,1.086-0.198,1.76-0.198
		c0.858,0,1.651,0.085,2.371,0.254c0.719,0.169,1.352,0.357,1.901,0.563c0.549,0.207,1.011,0.398,1.385,0.573
		c0.375,0.176,0.65,0.263,0.821,0.263c0.174,0,0.31-0.037,0.41-0.112c0.104-0.076,0.182-0.194,0.236-0.357
		c0.054-0.163,0.096-0.369,0.117-0.62c0.024-0.251,0.035-0.558,0.035-0.92c0-0.325-0.008-0.597-0.022-0.817
		c-0.016-0.219-0.043-0.4-0.084-0.544c-0.038-0.144-0.084-0.26-0.138-0.348c-0.057-0.087-0.163-0.194-0.318-0.32
		c-0.157-0.124-0.478-0.28-0.964-0.469c-0.483-0.187-1.04-0.356-1.664-0.507c-0.627-0.15-1.298-0.268-2.021-0.357
		c-0.719-0.087-1.438-0.132-2.159-0.132c-1.393,0-2.71,0.146-3.954,0.434c-1.245,0.288-2.325,0.722-3.241,1.304
		c-0.916,0.582-1.643,1.315-2.183,2.197c-0.538,0.883-0.81,1.906-0.81,3.07c0,1.015,0.187,1.884,0.564,2.61
		c0.375,0.727,0.864,1.355,1.467,1.888c0.603,0.532,1.285,0.988,2.053,1.37c0.766,0.383,1.556,0.724,2.371,1.023
		c0.814,0.3,1.603,0.585,2.371,0.854c0.766,0.271,1.453,0.558,2.053,0.864c0.603,0.307,1.092,0.657,1.466,1.052
		c0.378,0.394,0.566,0.867,0.566,1.418c0,0.475-0.112,0.907-0.329,1.295c-0.22,0.389-0.538,0.714-0.951,0.976
		c-0.416,0.264-0.92,0.468-1.515,0.612c-0.596,0.144-1.266,0.216-2.019,0.216c-1.144,0-2.148-0.103-3.017-0.31
		c-0.867-0.208-1.616-0.436-2.241-0.686c-0.627-0.25-1.138-0.479-1.537-0.686s-0.708-0.31-0.926-0.31
		c-0.158,0-0.293,0.034-0.413,0.103c-0.117,0.069-0.211,0.185-0.28,0.348c-0.073,0.163-0.122,0.375-0.155,0.639
		c-0.032,0.263-0.046,0.587-0.046,0.976c0,0.576,0.044,1.017,0.128,1.324c0.087,0.307,0.231,0.541,0.434,0.705
		c0.204,0.162,0.538,0.35,0.999,0.562c0.462,0.213,1.035,0.417,1.725,0.611c0.69,0.194,1.483,0.36,2.381,0.497
		c0.902,0.138,1.875,0.207,2.923,0.207c1.551,0,3.007-0.162,4.367-0.487c1.36-0.327,2.55-0.812,3.568-1.456
		c1.016-0.645,1.822-1.449,2.417-2.413c0.595-0.965,0.894-2.085,0.894-3.361C290.753,122.841,290.563,121.992,290.188,121.272
		L290.188,121.272z"/>
	<polygon fill="#EC008C" points="93.445,63.91 98.758,43.907 128.449,43.907 123.761,63.91 93.445,63.91 	"/>
	<path fill="#EC008C" d="M214.084,7.653c-4.525-1.479-7.17-2.105-11.879-2.811c-8.566-1.285-14.157-0.971-22.208,0.079
		c-10.24,1.333-21.604,4.434-31.546,13.357c-12.424,11.153-17.428,26.551-17.501,39.067c-0.046,7.819,3.303,14.544,9.982,20.319
		c5.042,4.36,9.126,5.5,15.649,6.872c8.75,1.842,16.495,1.451,26.875,0c3.315-0.464,5.18-0.805,8.439-1.563
		c2.707-0.63,6.875-1.875,6.875-1.875l9.063-37.191h-24.689l-4.689,21.252c-2.204,0.796-3.594,1.016-5.937,0.939
		c-3.895-0.127-6.473-0.778-9.377-3.44c-3.75-3.438-3.357-13.542-0.313-21.252c2.271-5.751,4.694-8.958,9.774-12.485
		c6.535-4.535,11.965-4.576,19.918-4.392c6.622,0.153,10.522,1.037,16.565,3.75L214.084,7.653L214.084,7.653z"/>
	<path fill="#EC008C" d="M247.424,47.477h15.638l-1.252-25.024L247.424,47.477L247.424,47.477z M200.814,83.762l45.67-78.826h37.849
		l6.255,78.826h-30.03V66.871h-23.145l-8.131,16.891H200.814L200.814,83.762z"/>
	<path fill="#EC008C" d="M372.539,7.339c0,0-3.227-0.833-5.313-1.25c-3.38-0.675-5.321-0.915-8.75-1.25
		c-7.849-0.769-12.382-0.78-20.22,0.082c-6.622,0.727-17.297,2.437-24.785,9.607c-7.17,6.865-10.627,14.377-10.627,23.127
		c0,7.37,5.641,11.752,10.003,12.814c2.396,0.584,10.388,3.026,16.794,4.877c4.421,1.277,5.399,2.223,5.394,5.124
		c-0.005,3.119-3.52,4.331-6.67,5.179c-2.99,0.805-8.743,0.781-14.269,0.135c-6.787-0.794-10.655-1.868-16.877-4.688l-5.002,20.002
		c5.358,1.784,8.487,2.551,14.065,3.438c10.711,1.705,18.082,2.083,27.816,0c8.522-1.825,13.452-4.044,20.206-9.552
		c4.605-3.758,9.717-10.299,10.421-18.577c0.475-5.573,0.541-9.584-2.811-14.063c-3.892-5.203-9.188-5.059-15.315-6.563
		c-4.196-1.029-6.694-0.894-10.964-2.374c-1.798-0.625-2.786-1.818-2.789-4.501c0-3.061,2.99-4.268,6.184-4.832
		c4.124-0.728,6.725-0.468,11.007-0.168c4.555,0.32,7.182,0.587,11.562,1.875c2.368,0.696,3.686,1.181,5.94,2.188L372.539,7.339
		L372.539,7.339z"/>
	<path fill="#EC008C" d="M46.607,47.477h15.639l-1.251-25.024L46.607,47.477L46.607,47.477z M0,83.762L45.668,4.936h37.849
		l6.256,78.826H59.744V66.871H36.597l-8.132,16.891H0L0,83.762z"/>
	<path fill="#EC008C" d="M383.707,14.821h1.521l2.542,4.208h1.831l-2.756-4.327c1.472-0.166,2.566-0.902,2.566-2.685
		c0-1.997-1.211-2.83-3.591-2.83h-3.731v9.842h1.619V14.821L383.707,14.821z M383.707,13.442v-2.877h1.947
		c0.975,0,2.14,0.143,2.14,1.333c0,1.426-1.07,1.544-2.281,1.544H383.707L383.707,13.442z M394.166,13.941
		c0-5.349-4.041-8.891-8.702-8.891c-4.707,0-8.748,3.542-8.748,8.891c0,5.064,3.636,8.892,8.748,8.892
		C390.125,22.833,394.166,19.29,394.166,13.941L394.166,13.941z M392.265,13.941c0,4.351-2.996,7.346-6.801,7.346
		c-4.231,0-6.847-3.305-6.847-7.346c0-4.327,2.996-7.346,6.847-7.346C389.269,6.595,392.265,9.614,392.265,13.941L392.265,13.941z"
		/>
</g>
</svg>
