<svg id="Layer_1" xmlns="http://www.w3.org/2000/svg" viewBox="0 0 79.4 71.1"><style>.st0{fill:#0D1821;} .st1{fill:#172635;} .st2{fill:#1A3B6A;} .st3{fill:#E7DAC2;stroke:#E7DAC2;stroke-width:0.2671;stroke-miterlimit:10;}</style><path class="st0" d="M.7 19.3L16 6.3c1.1-.9 2.4-1.5 3.8-1.6l8.2-.9c1.1 3.8 5.8 6.3 11 5.7 5.3-.6 9.3-4 9.5-8l8.2-.9c1.4-.2 2.8.1 4.1.8l17.7 9.3L70 26.1 61.3 22l6.5 41-46.2 7.1L20 26.5l-7.5 6L.7 19.3z"/><path class="st1" d="M.3 20c-.3-.3-.3-.1-.3-.1.5.5.3.1.3.1zM5.1 24.9l-.2-.1.8.7zM9.3 29.6C9 29 7.7 27.9 7 27l-.1-.2-.5-.3c1 1.1 2.3 2.4 2.9 3.1zM11.3 32.6c-.1-.2.1.1.1.1l-.8-.8c0 .1.1.1.1.1.2.1.3.3.6.6z"/><path class="st1" d="M10.8 32c-.5-.5.2.3 0 0zM14.2 32.1l-.3.3c-.3.3-.6.5-.6.5.1 0 .2-.1.3-.2.1-.1.2-.2.4-.3.2-.1.3-.2.2-.1.7-.5.5-.4 0-.2zM14.8 31.5l-.3.3.3-.3z"/><path class="st1" d="M13.7 32.5l.8-.7c-.1.1-.2 0-.3.3 0-.1 0 0-.1 0l-.1.1-.3.3zM12.9 33.1c-.2.1-.4.3-.6.4-.3-.3-.4-.5 0-.1.1-.1.2-.1.3-.2-.1.1-.2.2-.3.2-1.3-1.4-1.3-1.3 0 .2.2-.2.4-.4.6-.5zM9.7 29.7l-.4-.5-.4-.4c.2.2.7 1 .8.9zM18.6 28.8c0-.1-.3.1-.4.1l-.5.4c.3-.1.8-.5.9-.5zM18.2 28.9s.2-.2.4-.3c.1-.1.1-.2.2-.2l-.4.4-.2.1zM14.8 31.2l-.6.6-.6.6L15 31l-.2.2zM19 28.7l-.1.1c0-.1.2-.1.1-.1.1 0 0 0 0 0zM19.1 30.1c-.1-.4-.1.6-.2.1 0 .7.1 1.2.2 1.7v-1.8zM19.3 32.9c0-.3-.1-.6-.1-.9 0 .3 0 .6.1.9zM19.2 28c0 .1 0 .1 0 0v.3c0 .1.1-.3 0-.3zM19.3 28v0zM19.2 28.1c0-.1 0-.1 0 0zM16.8 29.7c.4-.4 1.3-1.2.3-.6-.2.4.3 0-.3.6zM19.1 27.9l-.4.3s.1 0 0 .1l.4-.4zM19.3 27.7l-.2.2.1-.1zM19.3 31.1c.1.4.1.9.1 1.5v-1.8c0-.1-.1-.3-.1.3zM19.3 28.9c0 .1 0 .1 0 0 0 .1 0 0 0 0zM19.7 38v-.1zM19.5 30.7c0-.4 0-.7-.1-1 0 .3 0 .7.1 1.1v-.1zM19.4 34.4v-.8.8zM19.3 29.2c-.1.1 0 0 0 0z"/><path class="st1" d="M19.3 29.2c0 .2.1.4.1.6 0-.3 0-.5-.1-.7v.1zM20.6 39.6c-.1-.1-.3-1.2-.2-2.2-.1-1-.5-.3-.7.5.1 0 .1 0 .2 1 .1-.4.1-2.3.2-1.4.1 1.3 0 1.1 0 1.8.1-.6.3 1.7.5 1.4l-.1-1.2s.1.5.1.1zM19.6 36v-.4c0 .5 0 .8-.1 1.5.1.7.1.8.2.9l-.1-2.1v.1zM19.5 33.7c.1.3.2 1.3.4.7-.1-1.2-.1-.9-.2-1.6.1 2-.1-.6-.2.9 0-.4 0-.8-.1-1.1.1.4.1.7.1 1.1l-.1-.1c0-.1 0-.1 0 0 .1 0 .1 0 .1.1 0-.1 0-.1 0 0 0 .6 0 .1 0 0l-.1-.1.1 2c.1-.4.1-1 0-1.9zM17.8 28.2c.1 0 .1 0 0 0 .2-.1.2-.1 0 0z"/><path class="st1" d="M18.5 27.8c-.1.1-.1.2-.5.5-.3.2 0-.1-.1-.1-.2.2-.7.7 0 .2l.1-.1c.7-.5 1.2-.6 1.1-.6-.1 0-.2-.1-.6.1zM19.7 29.1l.1 1.7.1-.8h-.1c0-.9-.1-.7-.1-.9zM19.6 38.2l-.1-.2.2 1zM19.7 40.4l-.1-.1.1.6zM64.9 22.9l.5.2c-.3-.1-.4-.2-.5-.2zM60.5 20.8c.1.1.2.1 0 0zM44.7 67.3c.7 0 1.5.1 1.4-.1l-.2-.1c-.5.2-.9.2-1.2.2zM65.8 50.4v.2c.1.2.1.3.2.5-.1-.2-.2-.4-.2-.7zM65.1 50l-.1-.9c.1.2.1.5.1.9zM75.7 14.1l.2-.6c-.5.9-.2.5-.2.6zM20.6 62.4v1.5c0-.7.1-1.3 0-1.5zM63 23.5c.3.1.4.1.4.1-.3-.1-.4-.1-.4-.1zM20.7 65.7v-.3c0-.4-.1-.9-.1-1.4 0 .5-.1 1.1.1 1.7zM21.9 5.2h-.2c0 .1.1 0 .2 0zM4.8 15c.2-.1.4-.3.6-.5-.1 0-.3.2-.6.5zM20 49c0-.4 0 0 0 0zM20.4 46.8c0 .1 0 .2.1.2 0-.1 0-.1-.1-.2zM21.8 70.1c-.1-.1 0 0 0 0zM20 48.4v0zM20 48.5v-.4c-.1-.1-.1-.1 0 .4zM20 49.7V49v.7zM52.9 1.5c-.5.1-.3.1 0 0zM56.2 64.2zM57.8 63.8c-.7.3-1.1.3-1.6.4l.6.3 1-.7z"/><path class="st1" d="M70.5 23.7l-.7 1c.5-1.3 1.1-2.2.4-1.3.1.1 0 .4-.3.9-.1.2-.2.5-.4.7h-.2c-.1 0-.2-.1-.3-.1-.4-.1-.6-.2-.7-.1l-.6-.4.4.2c-1.2-.8-1.1-.2-2.8-1.1-.6-.3-1-.6-.5-.4l-1.4-.6c-.6-.3-.4-.3.2 0L60.4 21c.1.6.4 1.7.6 2.3.1.8-.1-.4-.1-.3 0 0 .1.5.2.9l.2.8c0 .3-.1.1-.2-.2-.1-.4-.2-1.2-.3-1.8-.1.7 0 1.4.2 1.9.1.4.3 1 .4 2.3l-.4-1.4c-.1.8.1 1.7.2 3 0-.3-.1-2.7.3-1.4 0 .4.1.9.3 1.6-.1 0 0 .7.2 1.6h-.2c.2.9.3.9.5 1.4.2 1.1 0 1.3-.1 1.6.2 1.7.1-1.2.4.8.2 1.4.4 2.4.8 4.1.1 1-.1-.2-.1.2l.3.9c0 .2 0 .2-.1.1.2.7.2 0 .4 1.2.3.3.1 2.4.5 3.8 0 .4-.1-.2-.2 0 .5 2 .4 1.7.9 3.3l.1 1.4c0-1 .4.2.7 1.3v-.9l.4 1.8c0 .2-.1.1-.2-.2 0 .1.1.2.1.3 0 .7-.1.3-.3-.1v-.7c-.2-.4-.4-.8-.5-.7 0 .1.1.3.1.6-.1-.1-.1-.2-.1-.1s.1.2.2.5l-.2.4.1.1.2 2.4c.5 1.7 1 3.1 1.6 5.8-.3-.6-.3-.1-.5-.1.1-.8-.4-2.1-.6-3.5.1.7 0 .6-.1.4l.6 2.5c-.2 0 0 .5 0 1.2.1-.3.2.2.4.8.1.3.1.7.2 1 0 .2.1.5.1.7-.1 0-.1-.1-.2-.2 0-.1-.1-.2-.1-.3v-.2c0-.1 0-.3-.1-.4V62.1c0 .1.1.3.2.4-.1.1-.2.1-.3.2-.2 0-.3.1-.7.1.2 0 .3 0 .4-.1.1 0 .1 0 .1-.1-.1 0-.3.1-.6.1s-.5.1-.8.1c-.5.1-.8.1-.6 0h.3c-2 .3-6.1.9-6.4 1.2 0 0 .2-.4.3-.4L55.5 65c.3-.3-1-.6.6-1-.5 0-1.1.1-2.1.3.3 0 .9.2.4.3-1.3-.1-.9 0-2.4 0 .5 0 0 .4-.8.5.1-.1-.1-.3.2-.4l-1.9.6c.5-.1 0-.3-.4-.3.2 0-1.7.2-2.2.4h.8c-2.2.3-2.1.8-4.2 1.1.2-.1.6-.5-.5-.4-.5.3-2.1 1.2-4 1.6h-.4l-1.4.3c.9-.4 3.3-1.3 4.7-1.8-.8 0-.2-.1-1.5.1-.4 0 .6-.2 1-.3l-2.8.4c.2.2-2.1.5-2 .7l3-.7c.2.2-1.7.9-3.7 1.1-.5 0 .3-.4.3-.5-.2.1-1.9.4-2.1.4l.8-.2c-1.1.1-1.8.6-3.2.6-.5.1-1.4 0-1.5.1.8.1 1.1.8.6 1.1-.2 0-2.5.2-3 .1-.8-.1 1.1-.6.4-.7 0 .1-.4.2-.6.2-.5 0 .2-.2-.9 0-.1.2-2.2.3-.5.3-1 .2-1.1.1-2.3.3.2 0-.1.2-.5.4s-1 .4-1.7.5c.1-.1-.1-.1-.2-.1h-.1c-.1-2 0-3.2-.1-5.1 0-.2.1-1.2.2-.7 0-.3-.1-.5-.2-1.2.1-1.2.1 1.4.3.5-.1-.1-.2-1.6-.3-2.5-.2.3 0 2 .2 2.9-.3 0-.6-1.5-.8-3.6-.1-1.7.1-.7.1-1-.1-3.1-.6-2.6-.5-5.2.1-1 .3-.1.4-.3.1 1.4 0 2.1 0 3v-1.1c.1.4.1 1.3.1 1.8.1-.9-.2-5.3-.1-7.7-.1-.4-.2-1.2-.2-.8l.1.8c-.1.7-.2-1.4-.3-.5-.1-1-.3-2.2-.3-3.6l.2-.3c-.1 0-.1.9 0 1.3-.1-.6.2-2.2-.1-2.9l-.1 1c-.1-1-.4-2.3-.4-3.6-.2.6 0 .3-.1 1.2.2-.8.1 3.3.3 2-.2.9 0 1.6-.2 2.8.1 0 .1-.4.1.6 0 0 0 .2.1.2v.1-.1s0 .1 0 0c0-.3 0-.5.1-.5.2.5.2 2.2.3 2.8 0 .6-.1-.3-.1.1l.1.9c-.1.1-.2 1.7-.3.2V55.4c0 .6.2 1.6.1 1l.2 2.1c.1 2.1.4 4.3.2 6.7.1.7.1 1.4.1 2.6l-.1.2c0 .3.1 1.8.1 2.9.9-.1 1.8-.3 2.1-.4h1.2c.5-.1 1-.1 1.6-.2 1.2-.2 2.4-.4 3.2-.5v-.2c1.1-.2 2.1-.4 3.4-.6l-.1-.1c1.1-.3 3-.4 4.8-.7-.1.1-.6.1-.9.1 2.2 0 4.6-.9 6.6-1 .5-.1.8-.2 1.2-.2h-.1H44.4h-.6c.4-.1 1-.2 1.5-.3l.3.1h.1c.6 0 .4-.1.1-.2.3-.1.5-.1.7-.2.5.2 1.5-.3 2.1-.2.4-.2 2.8-.5 3.1-.8 0 0 .2 0-.1.1.6-.1 1.3-.1 1.8-.3l.3.1 1.3-.5c.9 0 1.2 0 .4.3 2-.5 1.6-.3 3.3-.8l.3.4c.6-.1 1.6-.4 1.9-.4.5 0 1.5-.1 2.7-.3 1.4-.2 3.1-.5 4.7-.7-.3-1.9-.4-2.8-.5-3.9-.2.7-.1-1.6-.4-1.7.1-.2 0-.7.2-.2-.4-1.8-.3-2.7-.7-3.9.1-.2.2.4.2.2 0-.1-.2-.6-.1-.7 0-.2.1.2.2.5-.3-1.8-.6-2-.9-2.1 0-.9-.1-1.4-.4-2 0-.3 0-.9.2.2-.1-.6-.5-3.9-.7-3.9 0-.2-.1-.9-.2-1.1-.2-1.4-.2-1.6-.5-3v.4c-.3-.5-.2-1.2-.4-2.3-.2-2.6-.3-1.1-.5-3.7l-.1.2c-.4-.2-.2-2.3-.5-3.8v.5c-.2-.8.1-2.3 0-3.2 0-.2.1.3.1.5-.2-2.2-.2-.2-.5-1.8.1-.3.3.3.2-.7 0-.3-.2-1-.4-1.9-.1-.4-.2-.9-.3-1.4 0-.2-.1-.4-.1-.7v-.2-.1c-.1.1-.1.3-.2-.1v-.6c.3.2.5.3.6.4.1 0 .2.1.3.1.1 0 .2.1.4.1.1.1.2.1.2.1.8.3 2.6 1.1 3.1 1.2.1.2.6.5 1.3.8.3.1.7.3 1 .4.5.2.9.4 1.4.6.3-.6.6-1.2.8-1.5.2-.3.3-.4.4-.4l1.3-2.4v.1c.9-1.5 1.1-2.1 1.3-2.7.2-.3.1-.1.1 0 1.3-2.2 1.4-2.4 2.2-4.3l.2-.1c.1-.2.5-.8 1-1.6.2-.4.5-.8.8-1.3.2-.3.3-.6.5-.9l.6-1.1c-.5-.2-1-.5-1.4-.7 0 0 .1 0 .4.1l-1.2-.6c-.3-.2-.7-.4-1-.5-.7-.4-1.3-.8-2-1.1-1.3-.6-2.4-1.2-3-1.2l-1.7-.7c2.1 1.1-.4 0 .4.6-.8-.5-2-1.3-1-.8l.1.1c.5-.1-2.6-1.5-2.4-1.6-2.1-1.1-4.1-2.2-6.1-3.3-1.1-.5-2.3-.7-3.5-.7-1.2.1-2.2.2-3.3.3l.5.2-1.5.2c-.4 0-.6-.1.5-.2-.6-.1-1.8.3-1.8.4-2.1.1.8-.4.1-.3l-.9.1h.2c-.3.1-.6.1-.8.2-.1 0-.3.1-.5.1s-.5.1-1 .1c-.3 0-.5 0-.6.1v.1s-.1 0-.1.2c0 0 0 .2-.1.8l-.2.8c-.1.2-.1.4-.2.5-.1.1-.1.2-.1.2l.5-.6c-.2.8-.8 1.5-.2.9-.2.2-.6.7-1 1.2-.5.5-1.1 1.1-1.8 1.6-1.4 1-2.9 1.5-3.3 1.5-1.1.5-2.2.7-3.6.7.4 0 .6.2-.7.2.2-.2-.3-.3-1.1-.4-.7-.1-1.6-.3-2-.6.4.2-.4 0-1.2-.3-.8-.1-1.4-.5-.9 0-.9-.5 0-.2-.6-.6-1-.6-2-1.5-2.5-2.7l-.1-.2c-.1-.1-.1-.3-.1-.4l-.3-.8c0-.1-.1-.1-.2-.1H27.6l-.8.1c-.8.1-1.5.1-2.3.2 0 .1.5.1-.2.2l-1.6-.1c-.6.1-.5.4-1.7.3.2 0 .4.1 0 .1-.7.1-1.5.1-2.3.3-.8.2-1.6.5-2.3.9-.7.5-1.3 1-1.9 1.5l-1.8 1.5c-2.3 2-4.7 4-7.2 5.8.7-.5.3-.1-.2.3.3-.2.1.1.2.1l-2.1 1.5c-.2.5-2.1 1.8-2.2 2.1l.8-.4c-.7.9 1.5-.6 1.6-.3.8-1 2.7-1.8 4-3.3.4-.2-.2.3 0 .2.3-.4.8-.8 1.6-1.5l-.2.1c2.4-2.1 3.5-2.9 6.3-5.1l-.3.1c.6-.5.7-.5 1-.8.5-.7-1.6 1.4-1.2.7.3-.1.7-.4 1.2-.7.5-.4.9-.7 1.5-1 1.1-.6 2.3-.7 2.6-.6 1.2-.1-.4-.1.8-.3l.3.1.2-.2c.8-.1 1.2 0 1.2.1-.2 0-.5.1-.7.1 1 0 2.8-.3 3.1-.3l-1.1.1c.8-.1 1.6-.2 2.5-.3.3 0 .6-.1 1-.1h.1V4.9l.2.1c.8 1.8 2.4 3 3.9 3.7l-.2-.2c1.1.5 1.6.7 2.1.9.5.2 1 .4 2.4.5h-.1 2c-.3 0 0 .1.3.1s.6 0 .1.1c1.3-.1 1.7-.3 1.9-.3.2-.1.3-.2 1.1-.5h.4c.5-.3.6-.3 1.8-.9-1 .5.9-.2-.2.4 1.4-.5 2.2-1.1 2.9-1.7.6-.6 1.1-1.1 1.6-1.5.3-.6-.1-.1-.6.4s-1 1-.8.7c-.5.3.7-.9 1.2-1.6.3-.4.6-.6.9-1.1.2-.2.3-.5.5-.9.1-.2.1-.4.2-.6H49v-.1-.2.2c0-.1 0-.2.1-.3 0-.1.2-.1.2-.1h1.2c.5-.3 1.3-.1 1.4-.4l-2 .3c1.1-.2 2.2-.6 4-.7-.1.1-.7.2-1.1.3.6 0 1-.2 1.6-.2-.1.3-2.4.3-3.6.6.6 0 2.3-.4 1.7-.1.8-.4 2.1-.2 3.6-.6l-.1.2c.2 0 .7-.2 1.1-.2 0 0-.2.1-.3.1-.2.1-.4.1-.4.1 1.1-.3 2.1.1 3.1.3-1-.3-1.1-.3-1.1-.4 0 0 .2-.1-.2-.2 1.4.1 1.7.5 2.1.7.3.3.8.7 2.2 1.4-.4-.2-1.5-.9-.8-.6.5.3 1.3.8 1.6 1 2 1-.2-.3.6.1.6.5 1 .4 1.9.8l-.1.1c2.3 1.4.8.2 2.8 1.4l-.9-.3 1.1.5h-.3c1.2.5 1.5.7 2.6 1.3-.2-.2.3-.2 1.3.4.6.4-.4-.1 1 .6-.4-.1-.8-.2-1.3-.6-.1 0-.4-.1-.4-.1.7.5 1.8 1 2.3 1.2-.2-.1-.4-.2-.5-.3l2.1.9c.3.2 0 .1-.3 0 .4.2.7.3 1.3.6-.2 0-.2.2-1.1-.2l1 .4c.2.1.5.2.7.3 0 0 .1 0 .1.1s.1.2 0 .2c0 0 0 .1-.1.1v.1l-.1.4c-.1.2-.2.3-.2.5-.3.7-.7 1.4-1.1 2.1 0 .1-.1.2-.2.5-.8 1.3-1.5 2.4-2.3 4l-.7.8c-.6 1.2.9-1.1-.2 1-.7 1.5-.5.4-.8.9-.3.8-.8 2.2-1.7 3.3.3-.3.5-.6.7-1zm-9.1 3.4c-.1-.3-.3-1-.2-1.2.2.4.2.7.2 1.2zM65.9 53c-.1-.2-.1-.6-.1-1.1 0 .3.1.7.1 1.1zm-45.6 1.1c0 .7 0 .5 0 0zm0-1.6c0-.2 0-.1 0 0v.8c0-.1.1-.3 0-.8zM47.9 1.8l.1-.4c-.1 1-.1.7-.1.4z"/><path class="st1" d="M65.2 50.1c0-.1 0-.1.1-.2-.1-.1-.1-.1-.1.2zM75.6 14.2v-.1.1zM27.8 68.6h.6c0-.1-.1-.1-.6 0zM19.7 44.3l.1 1c0-.5 0-.6-.1-1 .1.1.1.3 0 0zM20.3 35.7v-.4h-.1c.1.6.1 1 .1.4zM20.2 43.4c.1-.1.1-.7 0-1.4v.1c-.2-.2-.1.5 0 1.3zM20.2 41.8v-.6c-.1-.1 0 .2 0 .6zM20.2 50.5c0-.3-.2-.2-.1-.4-.2-.3.2 2.2.1.4zM20.6 42.8l-.2.3.2.3zM20.7 48.3v-1.1s0-.1-.1-.3c0 .7 0 1.4.1 1.4zM20.6 46.9c0-.4 0-.7-.1-.9.1.2.1.6.1.9zM20.7 44.3v1.1zM21.1 60.2l.1 1.2c.1.1.1-.2 0-.7 0-.2 0-.7-.1-.5zM21.4 56.5c0 .3-.1.4-.1.5h.2l-.1-.5zM21.6 60.1c.1.1.2 1.8.1.2 0-.1-.1-1.4-.1-.2zM29.7 68.8h-.3l.1.3zM45.5 65.6c-1.4.1-.3.2-1.6.3-.3.1 1.1-.1.7 0 .9-.1 1.3-.2.9-.3zM44.6 66c-.1 0-.3.1-.4.1.3-.1.4-.1.4-.1zM2.1 17.1l-.7.5.5-.3zM.9 18.4H.6l-.3.5c.2-.2.5-.5.6-.5zM61.4 29.7c.1-.1.1-.3 0-.7v.7zM66 23.2l-.2-.1.3.3zM71.7 20.7l-.6 1.2c.4-.9.9-1.2.6-1.2z"/><g><path class="st2" d="M54 29.7c.4-.4.7-.9.9-1.1-.7-.1-2.6.1-3.3.4.1 0 .2 0 .3.1.3-.1 1-.2 1.7-.2 0 0-.7 0-1.3.3.1 0 .1.1.2.1.3-.1.8-.1 1.4 0 0 0-.5 0-1.1.2 0 0 .1.1.1.2H54zM54.1 29.9l-.1-.1c-.2 0-.6 0-1.1.2v.2h.9s-.4 0-.9.2v.2c.3 0 .7-.1 1.2 0 0 0-.6 0-1.2.2v.2c.2-.1.7-.2 1.4-.1 0 0-.8 0-1.4.3v.1c.5-.3 1.3-.3 2.1-.4.1 0-.4-.6-.9-1zM34.1 39.6c-.2.2-.8.6-1.5.8 0 0 .6-.3 1.1-.8h-.1-.1c-.3.2-.7.4-1.2.6 0 0 .4-.2.9-.6-.1 0-.2 0-.3-.1-.2.1-.5.2-.9.3 0 0 .3-.1.7-.4 0 0-.1 0-.1-.1 0 0 0-.1-.1-.1-.1.1-.3.1-.5.2 0 0 .2-.1.5-.3 0-.1-.1-.2-.1-.3-.2.1-.5.2-.9.4 0 0 .4-.2.8-.5 0-.1-.1-.2-.1-.3-.2.1-.6.3-1.1.5 0 0 .6-.2 1-.7v-.1c-.3.2-.9.5-1.4.7l-.6.3c.4.1 1.3.4 1.7.4h.1l-.5 1.5c.5-.1 2.3-.7 2.7-1.4.1 0 .1 0 0 0 .1 0 0 0 0 0z"/><path class="st2" d="M33.3 39.4c.2 0 .3 0 .5-.1h.1l-.1-.2-.1-.2-.2-.3s-.1 0-.1.1h-.1s-.1 0-.1.1l-.1.1-.3.3c.1 0 .1 0 .2.1s.2.1.3.1zM51.6 29.7l.1.8c.1-.1.2-.1.3-.2 0 0 .1 0 .1-.1l.1-.1.1-.1c.1-.1.2-.2.2-.3v-.1c-.1-.1-.2-.1-.3-.2-.2-.1-.4-.1-.6-.2h-.1v.1l.1.4z"/><path class="st2" d="M53.1 32.8v-.1c-.2.1-.5.3-.8.4-.2.1-.5.2-.8.2 0 0 .3-.1.7-.3.3-.1.6-.4.9-.6v-.1l-1 .5c-.2.1-.4.1-.7.2 0 0 .2-.1.6-.2.3-.2.7-.4 1.1-.8v-.1c-.2.1-.6.4-1.2.5-.2 0-.3.1-.5.1 0 0 .2-.1.5-.2s.7-.4 1.1-.7l.1-.1v-.1s-.1 0-.1.1c0 0-.1 0-.1.1-.2.1-.6.3-1 .4-.2 0-.3.1-.5.1 0 0 .2-.1.5-.2s.6-.3.9-.6c0 0 .1 0 .1-.1l.1-.1.1-.1v-.1s-.1.1-.2.1c0 0-.1 0-.1.1h-.1c-.2.1-.5.2-.8.3-.1 0-.2 0-.3.1 0 0 .1 0 .3-.1.2-.1.4-.2.7-.4 0 0 .1 0 .1-.1h.1c.1-.1.2-.1.2-.2v-.2-.1l-.1.1s-.1.1-.2.1l-.1.1s-.1 0-.1.1c-.1.1-.2.2-.4.2-.1 0-.2.1-.2.1h-.1c-.7.4-1.6.7-2.5 1-2.1.6-4.7.7-6.7.8-.8 0-1.4.1-1.9.1h-.1c-1.9.2-3.4.5-4.5.8-.4.1-.7.2-1 .3-1.2.5-2.1 1.1-2.7 1.8-.1.1-.2.2-.2.3.2-.2.6-.5 1.2-.7 0 0-.7.4-1.2 1.2 0 0 0 .1-.1.1v.1l.1-.1c.2-.2.8-.7 1.5-1 0 0-.7.4-1.3 1.2-.1.1-.1.2-.2.3v.1l.3-.3c.3-.3.7-.6 1.4-.9 0 0-.6.3-1.1 1-.1.1-.2.3-.3.5v.1l.5-.5c.3-.2.7-.5 1.1-.7 0 0-.5.3-1 .8-.1.2-.3.3-.4.5 0 0 0 .1-.1.1 0 0 0 .1-.1.1v.1l.1-.1.1-.1c.1-.1.3-.2.5-.4.3-.2.6-.4 1-.5 0 0-.4.2-.9.7-.1.1-.2.2-.2.3l-.1.1s0 .1-.1.1c0 0 0 .1-.1.1 0 .1-.1.1-.1.2v.1l.2-.2.1-.1.1-.1.1-.1c.1-.1.2-.1.2-.2.2-.1.4-.3.7-.4 0 0-.3.2-.7.5l-.2.2s0 .1-.1.1l-.1.1c-.1.1-.2.2-.3.4v.1c.1-.1.2-.2.3-.4l.1-.1.1-.1s.1-.1.2-.1c.1-.1.2-.1.3-.2.8-.6 2-1.3 3.3-1.7 1.6-.6 4.1-.7 6.5-.8 2.1-.1 4.1-.2 5.5-.6 1.9-.5 3-1 3.6-1.4.2-.1.4-.3.4-.4-.1.1-.3.2-.5.2-.2.1-.5.2-.8.2 0 0 .3-.1.7-.3.3-.1.5-.3.7-.5z"/><path class="st2" d="M34.9 35.7l-.2.1.1.6s.1-.1.2-.1c.1-.1.3-.1.2-.4 0-.2-.1-.2-.3-.2zM35 35c0-.2-.1-.3-.3-.2l-.2.1.1.5.2-.1c.1.1.2-.1.2-.3zM46.2 34.2H46v.1l.1.5s0 .1.1 0h.2c.1 0 .3 0 .2-.3-.1-.2-.2-.3-.4-.3zM36.3 34.5v.9l.3-.1-.3-.8zM46 33.9h.2c.1 0 .2-.1.2-.3 0-.2-.1-.2-.3-.2h-.2v.1l.1.4c-.1 0 0 0 0 0z"/><path class="st3" d="M54.6 29.8c.8-1 .8-1.1.8-1.2 0-.1-.1-.2-.2-.2-.4-.2-1.4-.1-1.7-.1-.6.1-1.6.2-2 .5h-.3c-.1 0-.3 0-.5-.1s-.4-.1-.6-.2c-.3-.1-.5-.2-.8-.3-.1 0-.3-.1-.5 0-.1 0-.2 0-.3.1-.2.1-.4.2-.7.2-.2.1-.3.1-.5.2-.1 0-.2.1-.4.1h-.1c-.5 0-1-.1-1.6-.1h-.7c-.2 0-.3 0-.4-.1-.3-.2-.6-.2-.8-.2-.9.1-1.7-.1-2.5-.4-.1 0-.1 0-.1-.1-.1-.9-.2-1.8-.3-2.6 0-.3-.1-.6-.1-.9V23.8H40l-5.5.6h-.3v.3l.9 8.8c-.5.1-.9.3-1.3.5l-2.3.3-2.2.3c-.1 0-.3.1-.3.2-.1.1-.1.3 0 .4.1.1 1 .9 1.1 1 .1.1.3.2.4.3.1.1.3.2.4.2l.1.1c0 .2.1.4.3.7.1.1.1.3.2.4-.3.2-.9.5-1.3.6-.7.3-.9.4-.9.7 0 .1.1.2.2.3.2.1 1.1.3 1.6.4l-.3 1c0 .1 0 .3.1.4.1.1.2.2.4.2.6-.1 2.2-.6 2.9-1.4.1 0 .1 0 .2.1.3.1.7.2.9.4.2.1.5.2.7.2.4 0 .7-.3.9-.8.1-.2.1-.4.1-.5 0-.2 0-.3.1-.3 0 0 .1-.1.3-.1h.1c.1 0 .3-.1.4-.1h1c.1.1.2.1.3.2.2.2.5.3.6.5.3.3.5.7.8 1.1 0 .1.1.2.1.2.3.6.7 1.2 1.3 1.6.3.2.4.5.4.9v.1c0 .4.2.6.4.8.2.2.3.4.4.5.2.4.5.7.9.7l2.1.3h.9c.2 0 .4-.3.4-.4.1-.2-.1-.3-.2-.4l-.1-.1c0-.1 0-.1-.1-.2-.1-.2-.2-.4-.2-.6-.1-.7-.2-1.3 0-1.9.1-.3.1-.6.1-.9h.1c.3 0 .5-.3.6-.4.1-.1.2-.2.3-.2 0 0 .1 0 .1-.1.1 0 .2-.1.3-.2l1.5-1.2h.1c.1-.1.3-.3.3-.5 0-.1 0-.1.2-.2h.1c.1-.1.2-.1.4-.2.1-.1.3-.2.4-.3.2-.2.4-.3.7-.4.5-.3.7-.7.7-1.2v-.8-.8c0-.4 0-.7-.1-1 .3-.2.5-.4.6-.6.1 0 .1-.1.1-.1l.1-.1v-.4h.1v-.2l-.1-.4v-.2c.3-.1.7-.2 1.3-.3.2 0 .5 0 .7-.1.1 0 .2-.1.3-.2 0-.2.1-.4-1.2-1.5zm1 1.4s0 .1 0 0l-.1.1c-.8.1-1.7.1-2.2.4 0 .1 0 .3.1.4 0 .3.1.5.1.6v.4c-.1.2-.3.5-.7.7 0 0-.1 0-.1.1.1.3.1.6.1.9v1.6c0 .4-.2.7-.6 1-.4.2-.7.5-1.1.7-.1.1-.2.1-.3.2-.2.1-.4.2-.4.5 0 .1-.1.2-.2.2-.5.4-1 .8-1.5 1.3-.1.1-.3.1-.5.2s-.3.2-.4.4c-.1.2-.2.3-.4.3h-.1-.1c-.2 0-.2.1-.2.3 0 .3 0 .6-.1.8-.3.7-.2 1.4-.1 2.1l.3.9c0 .1.1.1.2.1l.1.1c0 .1-.1.2-.1.2-.3 0-.5.1-.8 0l-2.1-.3c-.3-.1-.6-.2-.7-.6-.1-.2-.3-.4-.5-.6-.1-.2-.2-.3-.2-.6v-.2c0-.5-.1-.8-.6-1.1-.6-.4-1-1.1-1.4-1.7-.3-.4-.5-.8-.8-1.2-.3-.3-.6-.5-1-.8h-.1c-.4 0-.8-.1-1.2-.1-.2 0-.3.1-.5.1 0 0-.1 0-.1.1-.4.1-.5.2-.5.6 0 .2 0 .4-.1.5-.1.4-.3.5-.6.6-.2 0-.3 0-.5-.1-.3-.2-.6-.3-1-.4-.1 0-.2-.1-.2-.1-.6.8-2.4 1.4-3 1.5-.1 0-.2 0-.2-.1-.1-.1-.1-.2 0-.2l.4-1.2c-.4-.1-1.6-.4-1.8-.5-.1 0-.1-.1-.1-.1 0-.1.1-.2.8-.5.5-.2 1.1-.5 1.4-.7l-.3-.6c-.2-.4-.3-.6-.2-.9l-.1-.1c-.2-.2-.5-.3-.8-.5-.3-.3-1-.9-1-.9 0-.1 0-.2.1-.2 1.4-.2 2.7-.3 4.1-.5.6-.3 1.2-.5 2-.8l-.9-8.9 5.4-.6v.3c.1 1.2.2 2.3.4 3.5 0 .2.1.3.3.4.8.4 1.7.5 2.6.4.2 0 .4 0 .7.2.2.1.5.1.8.1.6.1 1.3.1 1.9.2h.1c.1 0 .3-.1.4-.1.4-.1.7-.3 1.1-.4h.6c.5.1.9.3 1.3.5.2.1.4.1.6.1h.2c0-.1.1-.1.2-.2.7-.4 3-.6 3.6-.4v.1s0 .1-.1.3c-.1.2-.3.4-.8.9.2.2.4.4.6.5 1 .6.9.8.9.8z"/></g></svg>