<?xml version="1.0"?><svg width="4251.968" height="5669.291" xmlns="http://www.w3.org/2000/svg">
 <title>Santa</title>

 <g>
  <title>Layer 1</title>
  <g id="svg_1">
   <path d="m1736.75,3004.965088l-31.104004,8.561035l1.417969,10.325928l211.338013,-52.229004c0,0 19.460083,-13.141846 10.213989,-23.468018c-9.24292,-10.323975 37.849976,-15.36084 -4.554932,-44.37793c-42.400024,-29.01709 6.020996,-6.947021 6.020996,-6.947021s14.393921,-30.512939 -16.215088,-25.895996c-30.60498,4.61792 -57.796997,6.788086 -63.317993,11.7229c-5.521973,4.934082 -12.514893,20.812988 -12.514893,20.812988s-1.891113,-21.155762 -21.936035,-17.038818c-20.047974,4.115967 -27.948975,5.628906 -27.948975,5.628906s-11.465088,-1.598877 -0.874023,-18.145996c10.591919,-16.543945 10.703979,-33.547852 -8.484009,-25.792969c-19.19397,7.75293 -7.118042,15.431885 -8.166016,13.798096c-1.047974,-1.62915 -17.161987,17.218994 -20.045044,15.51001c-2.87793,-1.706055 -19.682007,-17.265137 -32.148926,-13.468018c-12.468018,3.795898 -30.458008,8.700928 -32.046021,20.406006c-1.592041,11.708984 -14.062012,-1.164063 -12.54895,2.293945c1.511963,3.449951 -5.55603,-13.179932 -13.44812,-7.841064c-7.895996,5.338135 -4.338989,11.031982 4.417114,12.573975c8.753906,1.537109 20.653931,13.187988 27.544922,10.478027s-9.564941,15.738037 -0.820923,25.218018c8.740967,9.478027 13.998901,6.554932 16.642944,14.425049c2.640991,7.869873 7.858032,36.927979 15.973022,40.234863c8.110962,3.309082 2.73291,10.700195 7.044922,11.496094c4.308105,0.793945 5.560059,11.718994 5.560059,11.718994l0,0zm15.034058,-13.65918l1.822998,8.2229l113.047974,-27.487793l-2.346924,-8.092041l-112.524048,27.356934l0,0zm129.135986,-32.442871l38.686035,-10.728027c0,0 4.373901,6.169922 -3.488037,11.547119c-7.863037,5.372803 -31.985962,8.454834 -31.985962,8.454834l-3.212036,-9.273926l0,0zm12.489014,-17.009033l14.733032,-3.364014c0,0 -4.087036,-8.168945 -8.896973,-11.345947c-4.812134,-3.175049 -6.00708,17.956055 -5.83606,14.709961zm14.05896,-20.293945c-0.623047,5.047119 4.802002,11.310059 14.979004,10.406006c10.178955,-0.895996 8.155029,-6.333984 8.142944,-8.874023c-0.014893,-2.545898 -6.595947,-10.850098 -13.328979,-9.765869c-6.734985,1.081787 -9.171021,3.187744 -9.792969,8.233887z" stroke-width="0.0762" stroke="#1F1A17" fill="#1F1A17" id="_107781992"/>
   <path d="m2042.571045,2659.590088l-1.333008,-2.856934l-9.369995,11.318848l6.843994,-14.606934l-3.615967,-0.302002c-16.305054,19.458984 -24.609009,26.713135 -34.367065,49.288086l0.296997,0.105957l7.462036,-7.949951l0.095947,0.204834l-9.178955,15.450195l0.300049,0.109863l10.128906,-9.687988c-3.427002,17.878906 19.5271,42.260986 30.435059,53.580078c13.406006,13.907959 -41.583984,37.006836 -46.729004,59.513916l-6.042969,0.558105l-0.031006,3.045898l4.77002,-0.023926c1.700928,6.630859 4.851929,15.234863 9.505005,20.391846c10.295898,11.408203 24.13501,11.837158 25.368896,14.487061c5.743042,12.320068 -1.748901,57.266113 0.004028,59.116943l9.08606,-27.364014c-2.518066,-18.183838 -4.723022,-40.491943 -0.44104,-42.486816c10.051025,-4.685059 28.674072,54.691895 35.846924,51.3479c-28.670898,-62.572021 -23.892822,-138.410889 60.471191,-131.740967l20.224854,33.269043l1.918945,-0.151123l-18.901855,-37.354004c-14.298096,-2.341797 -28.853027,-1.198975 -35.987061,-16.491943c-0.138916,-0.296875 28.570068,2.133057 32.958008,2.012939l31.27002,15.956055l0.407959,-0.188965l-31.13208,-20.989014c-7.038818,-0.191895 -36.855957,-1.434082 -37.931885,-4.164063c-8.026123,-20.361816 -76.437988,-27.592041 -63.969971,-45.639893l11.636963,-27.759033l0,0zm178.158936,31.462891l1.821045,1.062988c-4.739014,28.319092 1.151855,22.706055 12.214844,46.433105c0.380127,0.814941 -19.140869,53.312012 -21.040771,62.430908l2.427979,-0.638916c3.755859,-11.999023 27.274902,-78.356201 34.542969,-62.76416c4.718018,10.12207 -3.052002,59.155029 2.688965,59.561035c7.827881,-80.23291 53.397949,-127.666992 125.765869,-78.479004l-6.438965,33.577148l1.685059,0.948975l9.115967,-35.817139c-6.570068,-6.727051 -19.636963,-16.038818 -23.48584,-24.300049c-12.653076,-27.145996 31.794922,8.836182 38.212891,12.223145l2.531006,21.409912l0.979004,-24.534912c-9.416016,-6.886963 -33.609131,-18.833008 -38.366943,-29.035156c4.12085,-23.230957 -44.476074,-62.786865 -39.935059,-70.24292l43.565918,-2.931885l-0.380859,-8.265137c-20.347168,-6.240967 -48.822998,-6.889893 -63.081055,-22.968994l-0.200928,0.093994l2.330811,10.332031l-12.220947,-2.248047l8.525146,4.965088c-37.14209,44.365967 33.48584,108.031982 -60.939209,100.389893c-5.333984,-0.425781 -12.092773,3.753174 -15.700928,7.318115l-3.398926,-1.552979c-0.330078,1.044922 -0.736084,2.057861 -1.217041,3.032959l0,0z" fill="#1F1A17" id="_107779240"/>
   <path d="m2011.962036,2678.452881c10.084961,9.99707 -5.380005,-3.343994 -9.217041,-14.593018c-3.835938,-11.246094 -19.395996,-2.990967 -19.395996,-2.990967m18.470947,0.604004c0,0 -2.151978,-6.375 3.853027,-11.635986m3.406982,34.827148c0,0 -9.817017,-10.0271 -25.832031,-2.990967c-16.015991,7.033936 -19.13501,13.216064 -20.23999,15.445068m26.782104,-39.115234c0,0 -6.338013,-3.48999 -1.503052,-8.750977m17.216064,19.468018c0,0 8.078003,-2.909912 4.73999,-8.225098m-26.645996,21.013184c0,0 -13.032959,-0.373047 -13.458984,-10.479004c-0.421997,-10.10791 0.047974,-7.945068 0.047974,-7.945068m35.247925,8.245117c0,0 -10.733032,4.571045 -15.619019,-1.312988m-2.720947,10.719971c0,0 -14.480957,14.914063 -7.057007,17.039063m-9.309937,-22.727051c0,0 -5.56604,-6.420898 -10.402954,-1.164063m7.400879,15.879883c0,0 -3.405029,-9.147949 -7.889038,-4.052979m18.364014,7.486084c0,0 -1.756958,8.829102 -5.702026,6.802979m27.174072,-53.906006c0.465942,-4.513916 4.428955,5.239014 4.428955,5.239014s9.967041,-10.236084 10.695068,-4.986084" stroke-linejoin="round" stroke-linecap="round" stroke-width="3" stroke="#1F1A17" fill="none" id="_107778888"/>
   <ellipse ry="19.990996" rx="37.626993" cy="2898.106312" cx="2012.367058" fill="#1F1A17" transform="matrix(-0.5314, 0.8471, -0.8471, -0.5314, 5592.18, 2626.08)" id="_107778368"/>
   <path d="m2017.022949,2685.729004c1.467041,-9.635986 7.531006,-18.12207 13.537964,-18.955078c6.008057,-0.833984 9.686035,6.300049 8.216064,15.935059c-1.466064,9.634033 -7.528076,18.120117 -13.538086,18.955078c-6.007935,0.833984 -9.684937,-6.302002 -8.215942,-15.935059z" fill="#1F1A17" id="_107775864"/>
   <path d="m2304.319092,2578.187012c10.084961,9.998047 -5.379883,-3.345947 -9.214111,-14.593018c-3.837891,-11.248047 -19.398926,-2.989014 -19.398926,-2.989014m18.4729,0.599121c0,0 -2.153076,-6.37207 3.853027,-11.63208m3.406006,34.826904c0,0 -9.816895,-10.0271 -25.830078,-2.995117c-16.018799,7.038086 -19.136963,13.217041 -20.24292,15.447021m26.782959,-39.11377c0,0 -6.339111,-3.489014 -1.504883,-8.75m17.218994,19.468018c0,0 8.076904,-2.912109 4.741943,-8.228027m-26.647949,21.014893c0,0 -13.035889,-0.374023 -13.459961,-10.479004c-0.423096,-10.108887 0.049072,-7.948975 0.049072,-7.948975m35.246826,8.249023c0,0 -10.72998,4.570068 -15.615967,-1.312012m-2.724121,10.719971c0,0 -14.47998,14.914063 -7.056885,17.038086m-9.309082,-22.726074c0,0 -5.571045,-6.420898 -10.405029,-1.164063m7.4021,15.881104c0,0 -3.405029,-9.149902 -7.888916,-4.052979m18.364014,7.483887c0,0 -1.75708,8.826904 -5.705078,6.801025m27.176025,-53.904053c0.468994,-4.51709 4.428955,5.236084 4.428955,5.236084s9.968994,-10.231201 10.697021,-4.985107" stroke-linejoin="round" stroke-linecap="round" stroke-width="3" stroke="#1F1A17" fill="none" id="_107775512"/>
   <path d="m2343.512939,2688.416992c6.113037,11.702881 -6.36499,30.344971 -27.87207,41.64209c-21.510986,11.295898 -43.900879,10.966797 -50.017822,-0.735107c-6.113037,-11.701904 6.365967,-30.344971 27.872803,-41.64209c21.51123,-11.294922 43.905029,-10.966797 50.01709,0.735107z" fill="#1F1A17" id="_107778024"/>
   <path d="m2333.310059,2591.916992c9.957031,-3.135986 18.987061,-1.716064 20.173096,3.169922c1.184814,4.886963 -5.927979,11.390137 -15.88501,14.529053c-9.957031,3.135986 -18.990967,1.716064 -20.176025,-3.170898c-1.185059,-4.888184 5.927979,-11.391113 15.887939,-14.528076z" fill="#1F1A17" id="_107777624"/>
   <path d="m2191.965088,2659.832031l-1.530029,-3.280029l-10.763916,13.000977l7.86084,-16.780029l-4.153809,-0.346924c-18.731201,22.352051 -28.27002,30.689941 -39.475098,56.616943l0.343994,0.128174l8.571045,-9.133057l0.108887,0.23291l-10.547852,17.75l0.35083,0.125977l11.63501,-11.128906c-3.937988,20.541992 22.434082,48.550049 34.962158,61.553955c15.401855,15.977051 -47.775146,42.516113 -53.678955,68.365967l-6.944092,0.644043l-0.036133,3.501953l5.479004,-0.026855c1.955078,7.618896 5.574219,17.5 10.919189,23.424805c11.824951,13.104004 27.723877,13.598145 29.144043,16.644043c6.5979,14.154053 -2.01123,65.788086 0.005859,67.917969l10.440918,-31.437988c-2.895996,-20.891846 -5.430908,-46.516846 -0.511963,-48.811035c11.547119,-5.381836 32.941162,62.831055 41.181152,58.987061c-32.936035,-71.884033 -27.447021,-159.01001 69.473877,-151.344971l23.230957,38.218994l2.201172,-0.169922l-21.717041,-42.916016c-16.424072,-2.690918 -33.14502,-1.374023 -41.335938,-18.942139c-0.158203,-0.343994 32.819824,2.449219 37.86377,2.310059l35.920166,18.333984l0.468994,-0.218994l-35.770996,-24.113037c-8.087158,-0.220947 -42.334961,-1.647949 -43.572021,-4.781006c-9.219971,-23.392822 -87.819092,-31.704834 -73.485107,-52.431885l13.361084,-31.89502l0,0zm204.668945,36.14209l2.092041,1.220947c-5.439941,32.533936 1.331055,26.084961 14.032959,53.344971c0.435059,0.938965 -21.989014,61.243164 -24.173096,71.722168l2.793213,-0.736084c4.314941,-13.788086 31.336914,-90.018066 39.679932,-72.104004c5.427979,11.631104 -3.50415,67.957031 3.091064,68.425049c8.98584,-92.172119 61.344971,-146.665039 144.473877,-90.158936l-7.398926,38.572998l1.934814,1.09082l10.475098,-41.143799c-7.548096,-7.730225 -22.559082,-18.428223 -26.97998,-27.916016c-14.538086,-31.187988 36.529053,10.151855 43.896973,14.042969l2.907959,24.595947l1.125,-28.187012c-10.815918,-7.913086 -38.604004,-21.637939 -44.067871,-33.356934c4.728027,-26.687012 -51.098145,-72.126953 -45.884033,-80.697021l50.047852,-3.369141l-0.435791,-9.49292c-23.378174,-7.169922 -56.090088,-7.915039 -72.468994,-26.38501l-0.22998,0.105957l2.677002,11.86499l-14.038086,-2.579834l9.791992,5.701904c-42.669922,50.971924 38.469971,124.10791 -70.00708,115.326904c-6.125,-0.48999 -13.888916,4.312988 -18.037842,8.410156l-3.904053,-1.786133c-0.373047,1.204834 -0.840088,2.366943 -1.394043,3.487061l0,0z" fill="#1F1A17" id="_107774872"/>
   <path d="m2156.802002,2681.499023c11.584961,11.48291 -6.181885,-3.841064 -10.590088,-16.764893c-4.403809,-12.924072 -22.283936,-3.434082 -22.283936,-3.434082m21.220947,0.689941c0,0 -2.469971,-7.322021 4.428955,-13.36499m3.912109,40.010986c0,0 -11.2771,-11.520996 -29.673096,-3.438965c-18.400879,8.081055 -21.98291,15.178955 -23.25,17.74585m30.76416,-44.936768c0,0 -7.280029,-4.008057 -1.728027,-10.051025m19.780029,22.365967c0,0 9.2771,-3.3479 5.446045,-9.455078m-30.611084,24.144043c0,0 -14.978027,-0.427979 -15.465088,-12.039063c-0.487793,-11.611816 0.055176,-9.129883 0.055176,-9.129883m40.49585,9.474854c0,0 -12.329102,5.251953 -17.943115,-1.509033m-3.124756,12.315186c0,0 -16.637939,17.135986 -8.112061,19.575928m-10.693115,-26.110107c0,0 -6.396973,-7.378906 -11.951904,-1.335938m8.503906,18.244141c0,0 -3.913086,-10.511963 -9.062988,-4.656982m21.097168,8.5979c0,0 -2.020996,10.139893 -6.552979,7.818115m31.218994,-61.930176c0.534912,-5.186035 5.085938,6.016113 5.085938,6.016113s11.453125,-11.755127 12.290039,-5.726074" stroke-linejoin="round" stroke-linecap="round" stroke-width="3" stroke="#1F1A17" fill="none" id="_107774384"/>
   <ellipse ry="22.961996" rx="43.227992" cy="2917.973309" cx="2165.432763" fill="#1F1A17" transform="matrix(-0.5314, 0.8471, -0.8471, -0.5314, 5843.42, 2526.91)" id="_107774032"/>
   <path d="m2162.61792,2689.856934c1.687988,-11.069092 8.649902,-20.816895 15.552979,-21.774902c6.897949,-0.955078 11.125977,7.23999 9.437012,18.305908c-1.687988,11.069092 -8.650879,20.820068 -15.553955,21.774902c-6.898926,0.960205 -11.126953,-7.236816 -9.436035,-18.305908z" fill="#1F1A17" id="_107773680"/>
   <path d="m2492.658936,2566.313965c11.586914,11.485107 -6.180908,-3.841064 -10.586914,-16.763916c-4.408203,-12.924072 -22.285156,-3.435059 -22.285156,-3.435059m21.221191,0.691895c0,0 -2.470947,-7.322021 4.428955,-13.366943m3.910889,40.009033c0,0 -11.275879,-11.518066 -29.677002,-3.437988c-18.395996,8.079102 -21.981934,15.183105 -23.249023,17.746094m30.76709,-44.937988c0,0 -7.282959,-4.008057 -1.72998,-10.051025m19.782959,22.365967c0,0 9.278076,-3.343994 5.446045,-9.451904m-30.614014,24.140869c0,0 -14.974121,-0.425049 -15.460938,-12.039063s0.054932,-9.125 0.054932,-9.125m40.491943,9.470947c0,0 -12.326904,5.251953 -17.943115,-1.508057m-3.122803,12.316162c0,0 -16.636963,17.133057 -8.111084,19.574951m-10.693848,-26.108887c0,0 -6.395996,-7.379883 -11.950928,-1.336914m8.50293,18.241943c0,0 -3.914063,-10.510986 -9.064941,-4.656982m21.098877,8.5979c0,0 -2.02002,10.143066 -6.554932,7.815918m31.221924,-61.927002c0.534912,-5.186035 5.085938,6.01709 5.085938,6.01709s11.448975,-11.75415 12.287109,-5.728027" stroke-linejoin="round" stroke-linecap="round" stroke-width="3" stroke="#1F1A17" fill="none" id="_107773328"/>
   <path d="m2537.688965,2692.948975c7.022949,13.443115 -7.312988,34.860107 -32.020996,47.836914c-24.708008,12.978027 -50.430908,12.600098 -57.455078,-0.844971c-7.022949,-13.442871 7.311035,-34.86084 32.019043,-47.836914c24.711182,-12.978027 50.436035,-12.600098 57.457031,0.844971z" fill="#1F1A17" id="_107772976"/>
   <path d="m2525.968018,2582.086914c11.439941,-3.604004 21.813965,-1.975098 23.177002,3.64209c1.361084,5.614014 -6.808105,13.086914 -18.248047,16.689941c-11.439941,3.602051 -21.813965,1.971924 -23.179932,-3.643066c-1.358154,-5.61377 6.811035,-13.086914 18.250977,-16.688965z" fill="#1F1A17" id="_107772624"/>
   <path d="m1787.416016,2855.523926c0,0 34.275024,28.583008 92.109009,-4.870117c57.833984,-33.449951 135.744995,-142.563965 135.744995,-142.563965" stroke="#1F1A17" fill="none" id="_107772344"/>
   <path d="m1813.022949,2865.283936c0,0 34.275024,28.579102 92.108032,-4.870117c57.833984,-33.448975 135.744995,-142.564941 135.744995,-142.564941" stroke="#1F1A17" fill="none" id="_107772064"/>
   <path d="m1792.128052,2859.486084c0,0 63.267944,67.133057 190.233032,12.784912c126.965088,-54.346924 313.846924,-259.007813 313.846924,-259.007813" stroke="#1F1A17" fill="none" id="_107768248"/>
   <path d="m1782.738037,2856.604004c0,0 72.815063,68.8479 255.217041,19.663086c182.399902,-49.183105 474.810059,-245.108154 474.810059,-245.108154" stroke="#1F1A17" fill="none" id="_107768088"/>
   <path d="m1788.225952,2870.311035c0,0 60.218994,69.881104 189.477051,21.229004c129.253052,-48.645996 325.050903,-244.801025 325.050903,-244.801025" stroke="#1F1A17" fill="none" id="_107767672"/>
   <path d="m1782.258057,2859.375c0,0 42.062988,53.718018 139.244995,22.264893c97.177979,-31.451904 248.641968,-169.565918 248.641968,-169.565918" stroke="#1F1A17" fill="none" id="_107767392"/>
  </g>
 </g>
</svg>