<?xml version="1.0" encoding="utf-8"?>
<!-- Generator: Adobe Illustrator 19.1.0, SVG Export Plug-In . SVG Version: 6.00 Build 0)  -->
<svg version="1.1" id="Layer_1" xmlns="http://www.w3.org/2000/svg" xmlns:xlink="http://www.w3.org/1999/xlink" x="0px" y="0px"
	 viewBox="0 0 65 30" style="enable-background:new 0 0 65 30;" xml:space="preserve">
<style type="text/css">
	.st0{fill:#AEAEAE;}
</style>
<path class="st0" d="M63.3,9.3c-0.3,0-0.6,0-0.9,0.1c-0.2,0-0.3-0.1-0.3-0.3l-0.1-0.8C62.1,8,62,8,61.8,8c-0.2,0-0.3,0.1-0.3,0.4
	c0,0.3-0.1,4.4-0.1,4.7c0,0.1,0.3,0.2,0.4,0.2c0.1,0.1,0.2,0.3,0.2,0.4c0,0.2,0,0.7,0,0.9c0,0.2-0.2,0.1-0.6,0.2c-0.4,0-2.2,0-2.5,0
	s-0.2-0.1-0.3-0.4c0-0.2,0-1,0-1.2c0-0.2,0-0.3,0.1-0.3c0.2,0,0.3-0.1,0.3-0.3c0-0.3,0-3.9,0-4.2s0-0.3-0.2-0.4
	c-0.2,0-0.4,0.1-0.4,0.3c0,0.2,0,0.7-0.1,0.9c0,0.2-0.2,0.3-0.4,0.3c-0.3,0-0.7,0-0.9,0c-0.2,0-0.2-0.1-0.1-0.4
	c0.1-0.3,0.1-1.6,0.1-1.9s-0.1-0.6,0-0.7c0.3,0,5.5-0.4,6-0.5c0.5-0.1,0.3,0.3,0.3,0.4l0.1,2.4C63.6,9.2,63.5,9.3,63.3,9.3L63.3,9.3
	z M46,0.8c-4.8,0-9.1,1.5-12,3.9h-0.6C36.4,1.8,41,0,46.3,0s10,1.8,12.9,4.6h-1.6C54.7,2.3,50.8,0.8,46,0.8z M34.3,8.6l-1.8-0.1
	c0,0,0-0.5-0.1-0.8c0-0.2-0.5-0.2-0.8-0.3c-0.3,0-0.6,0-0.7,0.2c-0.1,0.2-0.1,0.9,0,1c0.1,0.1,2.4,1.1,2.8,1.2
	c0.4,0.2,0.6,0.3,0.7,0.7c0.1,0.3,0.1,2.3,0,2.6c0,0.3-1,1.2-1.4,1.4s-2.8,0.2-3.7,0.1c-0.9-0.1-0.8-0.2-0.8-0.5
	c-0.1-0.3-0.1-1.1-0.1-1.1c0-0.6,0-1.4,0.1-1.5c0.1-0.1,1.9,0,1.9,0.1c0,0.1,0.1,0.9,0.2,1.1c0.1,0.2,0.7,0.3,1,0.3s0.5-0.5,0.5-0.8
	c0-0.3-0.1-0.7-0.4-0.8c-0.3-0.1-1.3-0.5-2-0.8c-1.5-0.6-1.3-1.3-1.2-2.8c0-0.6,0.1-1,0.2-1.2c0.1-0.2,1-1,1.6-1
	c0.2,0,3.4,0.5,3.6,0.7C34.3,6.1,34.3,8.6,34.3,8.6L34.3,8.6z M29.6,16.1c0-0.2,0-0.7,0.2-0.8c0.3-0.1,3.4,0,3.5,0.1
	c0.1,0,0.2,0,0.2,0.3c0,0.4,0.8,5.8,0.9,6s0.1,0.4,0.2,0.3c0.1-0.1,0.3,0,0.2,0.3c0,0.3,0,1,0,1.2c0,0.2,0.1,0.3-0.3,0.4
	c-0.4,0-1.6,0.2-1.9,0.2c-0.3,0-0.3-0.1-0.3-0.2c0-0.1-0.1-0.5-0.1-0.6l0-0.3c0-0.2,0.1-0.7-0.1-0.7c-0.2,0-1.1,0.1-1.3,0.1
	s-0.2,0.3-0.2,0.5c0,0.2,0,0.6,0,0.8l0.1,0.6c0,0.2-0.2,0.3-0.4,0.3c-0.2,0-1.9,0.3-2.1,0.3c-0.1,0-0.2,0.1-0.2-0.3V23
	c0-0.2,0-0.5,0.2-0.5c0.3,0,0.4-0.8,0.4-1C28.6,21.4,29.5,16.3,29.6,16.1L29.6,16.1z M31.9,20.4c0-0.2-0.3-2.6-0.3-2.9
	c0-0.4-0.2-0.5-0.3-0.1c-0.1,0.4-0.3,3.1-0.3,3.1S31.9,20.5,31.9,20.4z M50.8,25l0.2,0l0.2,0l0,0.1l-0.1,0.1l-0.1,0l0,0H51v0
	l0.1,0.6l0,0.3V26l0,0.1l0,0.1v0.1l0,0.2l0,0.2v0.2l0.1,0.1h0.1l0.2,0c0.1,0,0.2-0.1,0.2-0.2l0-0.3v0h0l0.1-0.1l0,0l0-0.1h0.3v0.1
	h-0.1v0l0.1,0.2v0.1l0,0.1l0,0.2H52l-0.2,0.1L51.5,27l-0.2,0l-0.2,0l-0.1,0H51l0,0l-0.1,0h-0.1l0,0l0.1-0.1l0.1-0.1v-0.1h0l0-0.1v0
	l0-0.1v-0.1l0,0h0v-0.1h0l0.1-0.1h-0.1l0-0.1l0-0.1l0-0.2l0-0.2l0-0.2l0-0.1h0l0-0.1l-0.1-0.1h0l-0.1,0V25l0,0
	C50.5,25,50.8,25,50.8,25L50.8,25z M52,26.6L52,26.6L52,26.6z M50.7,25.2L50.7,25.2L50.7,25.2z M57.1,22.3l0,1.3
	c0,0.2,0.1,0.3-0.2,0.3l-2-0.2c-0.3,0-0.3-0.1-0.3-0.3c0-0.2-0.1-0.5,0-0.7c0-0.2-0.1-0.7-0.2-0.8c0-0.1-0.3-0.2-0.6-0.2
	c-0.3,0-0.8-0.2-0.9,0.3c-0.1,0.5,0,0.8,0,1.1l0,0.3c0,0.1-0.1,0.2-0.2,0.2c-0.2,0-1.9-0.1-2.1-0.1c-0.2,0-0.3-0.2-0.3-0.4l0.1-1.2
	c0-0.2,0.2-0.3,0.3-0.3c0.1,0,0.3-0.1,0.3-0.3c0-0.2,0.9-5,1-5.2c0.1-0.3,0.1-0.6,0.2-0.6c0.3,0,3.3,0.1,3.5,0.1
	c0.2,0,0.2,0.2,0.3,0.5c0.1,0.4,0.5,3.1,0.5,3.5c0.1,0.4,0.3,2,0.4,2.2c0.1,0.2,0,0.4,0.2,0.4C57,22.1,57.1,22.1,57.1,22.3
	L57.1,22.3z M53.8,17.3c0-0.2-0.1-0.2-0.2,0c-0.1,0.2-0.4,2.9-0.4,2.9c0.1,0.1,0.6,0,0.8,0c0.2,0,0.2-0.1,0.2-0.2
	C54.1,19.8,53.8,17.4,53.8,17.3z M50.4,26.8c-0.1,0.3-0.3,0.5-0.5,0.5c-0.2,0-0.4-0.1-0.6-0.2l-0.1-0.1l-0.1-0.2L49,26.6l-0.1-0.2
	l0-0.2l0-0.2v0l0-0.1v-0.1c0.1-0.4,0.3-0.6,0.5-0.6h0.2c0.1,0,0.2,0,0.3,0.1c0.1,0.1,0.2,0.1,0.2,0.2l0.1,0.1l0.1,0.1
	c0,0.1,0.1,0.2,0.1,0.4l0,0.2l0,0v0.2C50.5,26.4,50.4,26.8,50.4,26.8L50.4,26.8z M49.1,26.2L49.1,26.2L49.1,26.2L49.1,26.2z
	 M49.1,26.4l0,0.1v0l0,0C49.1,26.6,49.1,26.4,49.1,26.4L49.1,26.4z M49.1,25.8L49.1,25.8L49.1,25.8z M49.2,26.3L49.2,26.3
	C49.2,26.4,49.2,26.3,49.2,26.3z M49.3,27L49.3,27L49.3,27L49.3,27z M49.3,25.9L49.3,25.9L49.3,25.9L49.3,25.9L49.3,25.9L49.3,25.9z
	 M50,25.9c0-0.3-0.1-0.5-0.2-0.7l-0.2-0.1l-0.1,0.1l-0.1,0.1l0,0.2l0,0l0,0l0,0l0,0.1h0l0,0h0.1v0.1l0,0v0.5c0,0.2,0.1,0.3,0.1,0.5
	c0.1,0.2,0.2,0.3,0.3,0.3l0.1,0c0.1-0.1,0.2-0.2,0.2-0.3v-0.4C50.1,26.4,50,25.9,50,25.9L50,25.9z M47.3,25.4l-0.1-0.1l0.1,0h0.3
	l0.1,0l0.1,0l0.2,0l0.2,0l0.1,0h0.1l0,0v0h0c0.1,0.1,0.2,0.2,0.2,0.4c0,0.2,0,0.4-0.1,0.4h0v0.1l-0.2,0.1l0.1,0.1l0.1,0.1l0.1,0.1
	l0,0.1l0,0.1v0.1l0,0.1l0,0.1l0.1,0.1l0.1,0.1l0,0h-0.2l-0.1-0.1l-0.1-0.1h0h0c0-0.1-0.1-0.3-0.1-0.4l0-0.2l0-0.1v-0.1h0l0-0.1l0,0
	l0,0l0,0h-0.1l0,0H48l-0.1,0v0.5l0,0.3H48c0.1,0,0.1,0,0.1,0.1l-0.2,0h-0.6l0-0.1l0-0.1l0.1,0v0l0,0l0.1,0l0-0.1V27l0-0.1l0-0.3
	v-0.2l0-0.1v-0.2l0-0.2v-0.1l0-0.1h0v-0.3l0-0.2C47.4,25.4,47.3,25.4,47.3,25.4L47.3,25.4z M48.4,25.4L48.4,25.4L48.4,25.4
	L48.4,25.4z M48.6,27.2L48.6,27.2L48.6,27.2z M48.3,25.9L48.3,25.9L48.3,25.9z M48.3,26L48.3,26L48.3,26z M47.8,25.7v0.5h0.3
	l0.1-0.1l0,0l0.1-0.1c0-0.1,0.1-0.2,0.1-0.3l-0.1-0.2c0-0.1-0.1-0.1-0.2-0.1h-0.2l-0.1,0C47.8,25.5,47.8,25.6,47.8,25.7L47.8,25.7z
	 M47.7,26.9L47.7,26.9L47.7,26.9L47.7,26.9z M47.7,26.1L47.7,26.1L47.7,26.1z M47.6,27.3L47.6,27.3L47.6,27.3z M47.7,26.4L47.7,26.4
	L47.7,26.4z M47.5,25.6L47.5,25.6L47.5,25.6z M47.5,25.5L47.5,25.5L47.5,25.5L47.5,25.5z M45.7,25.4v-0.1l0.1,0h0.5l0,0h0.1v0v0H47
	l0,0.1l0,0.1l0,0.1l0,0.1l0,0.3l0,0.3l0,0h-0.1l-0.1-0.2l0-0.3c0-0.1-0.1-0.1-0.2-0.1l0,0.1v0.1l0,0v0.7l0,0.2l0,0.1l0,0.2h0l0,0
	v0.2l0,0l0,0v0.1l0.1,0h0.1l0.1,0.1l0,0.1l-0.1,0h-0.1l-0.1,0l-0.1,0h-0.1l0,0l-0.3,0l-0.1-0.1l0.1,0h0l0.1,0l0.1,0l0.1-0.2l0-0.2
	l0-0.1v-0.2h0l0-0.1v-1h0l-0.2,0.1l0,0.1l0,0.1v0l0,0v0h0l0,0.1V26l0,0l-0.1,0.1h0l0-0.1v-0.4h-0.1C45.6,25.6,45.7,25.4,45.7,25.4
	L45.7,25.4z M46.5,25.6L46.5,25.6L46.5,25.6z M46.2,26.1L46.2,26.1L46.2,26.1L46.2,26.1z M46.2,25.7L46.2,25.7L46.2,25.7z
	 M44.2,27.2L44.2,27.2l0.1,0.1v0l0,0l-0.1,0L44.2,27.2l-0.4,0.1v-0.1l0.1-0.1l0.1-0.1v-0.2l0-0.3l0-0.3v-0.2l0,0v-0.5l0-0.1l0-0.1
	l0-0.1v0L44,25.3l-0.1-0.1v0l0.1,0h0.3l0.1,0.1v0h0l0.1,0.1h0l0,0.1l0,0.1l0.1,0.1l0.1,0.1l0,0.1l0,0v0h0l0.1,0.1l0,0.1l0.1,0.1
	l0.1,0.1l0.1,0.2v0l0,0l0,0v-0.2l0-0.2l0-0.1l0-0.1v-0.6L45,25.4l-0.1-0.1l0.1,0h0.4v0l-0.1,0l-0.1,0l-0.1,0.2v0.3l0,0.1l0,0.1v0.4
	l0,0l0,0.9v0l-0.1,0l0,0l0-0.1L45,27.2l0-0.1h0l0,0v0l-0.1-0.1l0-0.1l-0.1-0.1l0,0v0l-0.2-0.3h0.1l-0.1-0.1l-0.1-0.1h0.1l-0.2-0.4
	l-0.1,0.3v0.3l0,0l0,0.1v0.1l0,0.3l0,0l0,0v0.1C44.1,27.1,44.2,27.2,44.2,27.2L44.2,27.2z M44.6,26.4L44.6,26.4L44.6,26.4z
	 M44.3,25.6L44.3,25.6L44.3,25.6L44.3,25.6C44.3,25.5,44.3,25.6,44.3,25.6L44.3,25.6z M43.4,26.9c-0.2,0.3-0.4,0.4-0.6,0.4
	c-0.2,0-0.4-0.2-0.5-0.4l-0.1-0.2l0-0.2v-0.6l0.1-0.2v0l0-0.1l0-0.1c0.2-0.3,0.4-0.5,0.6-0.4h0.2c0.1,0,0.2,0.1,0.3,0.1
	c0.1,0.1,0.1,0.2,0.2,0.3l0.1,0.1l0,0.2c0,0.1,0,0.2,0,0.4l0,0.2l0,0l0,0.1l0,0v0C43.6,26.5,43.4,26.9,43.4,26.9L43.4,26.9z
	 M42.2,26.3v0.2l0,0L42.2,26.3z M42.4,26.9L42.4,26.9L42.4,26.9z M42.4,26.2L42.4,26.2L42.4,26.2z M42.6,25.7v0.1V25.7z M43.2,25.3
	L43,25.3l-0.1,0l-0.1,0.1l-0.1,0.1v0l0,0l0,0l0,0.1h0v0h0.1v0.1l-0.1,0.3l0,0.3c0,0.2,0,0.3,0,0.5c0,0.2,0.1,0.3,0.3,0.3h0.1
	c0.1,0,0.2-0.1,0.3-0.3l0.1-0.4l0.1-0.4C43.3,25.7,43.3,25.5,43.2,25.3L43.2,25.3z M40.5,26.2v-0.3l0-0.1c0.1-0.5,0.3-0.8,0.7-0.9
	h0.2c0.2,0,0.3,0.1,0.4,0.2l0,0l0-0.1l0.2,0V25l0,0v0l0,0v0.4h0v0l0,0H42v0l0,0L42,25.6h-0.1l0-0.2l0-0.2l-0.2-0.2
	c-0.1,0-0.2,0-0.3,0.1l-0.1,0.1l-0.1,0.1l0,0.1L41,25.7v0.2l0,0.2c0,0.1,0,0.2,0,0.2c0,0.1,0,0.2,0,0.3h0l0.1,0.1
	c0,0.1,0.1,0.1,0.2,0.1c0.2,0,0.3-0.1,0.4-0.3v-0.1h0l0,0l0-0.1l0.2,0v0.1l0,0.1h0v0.1l0,0l0,0l0,0c-0.1,0.1-0.2,0.2-0.4,0.3l-0.3,0
	L41,26.9l-0.1-0.1c-0.1,0-0.2-0.1-0.2-0.1c-0.1-0.1-0.1-0.2-0.2-0.3L40.5,26.2L40.5,26.2L40.5,26.2z M41.1,25.1L41.1,25.1L41.1,25.1
	L41.1,25.1L41.1,25.1z M38.1,18.8l-0.5,1.1c-1,0-0.8,0.1-1.7,0.2l0.5-1.1L38.1,18.8z M38.2,12.8c0.6,0.1,0.7-0.7,0.7-1
	c0-0.3,0-0.4,0.2-0.4h1.5c0.2,0,0.3,0,0.3,0.2c0.1,0.1-0.1,2.9-0.2,2.9c-0.1,0-1.4,0-1.4,0l-0.1-0.1c-1.5,0.3-2.7-0.2-3-0.4
	c-0.6-0.4-0.8-1.3-1-1.7c-0.2-0.5,0-2.9,0-4c0-1.1,0.5-1.3,0.8-1.7c0.3-0.4,1-0.5,1.4-0.4c0.4,0,1.4,0.4,1.5,0.3
	c0-0.1,0.1-0.1,0.3-0.1l1.2,0.1c0.2,0,0.2,0.1,0.2,0.3l0.1,2.7c-0.6,0.1-1.1,0-1.5-0.1c-0.4-0.1-0.2-0.9-0.3-1
	c0-0.1-0.4-0.1-0.8-0.2c-0.3,0-0.5,0.2-0.5,0.5c0,0.3,0,2-0.1,2.8C37.5,12.3,37.7,12.8,38.2,12.8L38.2,12.8z M49.3,15.5
	c0.1,0,0.2,0,0.2,0.3c0,0.3,0,1.2-0.1,1.4c-0.1,0.2-0.4,0-0.4,0.5c0,0.4-0.7,5.4-0.7,5.5c0,0.2-2.4,0.1-2.8,0.1
	c-0.3,0-0.4-0.1-0.4-0.4c0-0.3-0.6-4.5-0.7-4.8c-0.1-0.3-0.2-0.7-0.3-0.1c-0.1,0.6-0.3,3.1-0.4,3.3s-0.2,1.4-0.2,1.6
	c0,0.3,0,0.4-0.6,0.4c-0.6,0-2,0-2.3,0.1c-0.3,0.1-0.4,0-0.4-0.3s-0.5-4.3-0.5-4.8c0-0.5-0.1-0.9-0.2-0.9l-0.3,0
	c-0.1,0-0.2-0.2-0.2-0.3c0-0.1,0-1.1,0-1.3s0-0.2,0.2-0.2l2.1,0c0.2,0,0.3,0,0.3,0.4s0.4,5,0.5,5.3c0.1,0.3,0.2-0.6,0.2-0.7
	c0-0.1,0.5-4.4,0.6-4.7c0.1-0.3,0.1-0.4,0.3-0.4c0.2,0,2,0,2.1,0s0.4-0.1,0.4,0.5c0.1,0.6,0.4,4.5,0.5,4.7c0.1,0.3,0.2,0.1,0.2-0.1
	l0.4-4.9c0-0.2,0-0.3,0.2-0.3C47.4,15.5,49.2,15.5,49.3,15.5L49.3,15.5z M44,3.7L44,3.7L44,3.7l-0.2,0.5c-0.1,0.3-0.3,0.5-0.6,0.6
	c-0.2,0-0.5-0.1-0.7-0.3l-0.1-0.2l-0.1-0.2c-0.1-0.1-0.1-0.1-0.1-0.2l-0.1-0.2l-0.1-0.2l0-0.3v0l0-0.1V3.1c0.1-0.4,0.3-0.7,0.6-0.7
	l0,0h0.2c0.1,0,0.2,0,0.4,0.1c0.1,0.1,0.2,0.2,0.3,0.3l0.1,0.1L44,3c0,0.1,0.1,0.2,0.1,0.4v0.2L44,3.7C44.1,3.7,44,3.7,44,3.7
	L44,3.7z M42.5,3L42.5,3L42.5,3L42.5,3z M42.5,3.7L42.5,3.7L42.5,3.7z M42.5,3.2L42.5,3.2L42.5,3.2L42.5,3.2z M42.4,3.9l0,0.2l0,0
	l0,0L42.4,3.9L42.4,3.9z M42.8,4.5L42.8,4.5L42.8,4.5L42.8,4.5z M42.7,3.2V3.1V3.2C42.7,3.2,42.7,3.2,42.7,3.2z M42.6,3.8L42.6,3.8
	L42.6,3.8z M43.6,3.3c0-0.3-0.1-0.6-0.3-0.7L43,2.5l-0.1,0.1l-0.1,0.1l0,0.2l0,0l0,0l0,0l0,0.1h0l0,0h0.1v0.1l0,0.1v0.3l0,0.3
	c0,0.2,0.1,0.4,0.1,0.5c0.1,0.2,0.2,0.3,0.4,0.3l0.1,0c0.1-0.1,0.2-0.2,0.2-0.4V3.7C43.6,3.8,43.6,3.3,43.6,3.3L43.6,3.3z M43.7,2.7
	L43.7,2.7L43.7,2.7z M47.3,7.1c0.1,0.3,0.1,1.8,0.1,2c0,0.2,0,0.3-0.3,0.3c-0.3,0-1.1-0.1-1.3-0.1c-0.2,0-0.3,0-0.4-0.2
	c-0.1-0.2,0-0.8-0.5-0.8c-0.5,0-0.7,0-0.7,0.1v1.2c0,0.1,0.1,0.3,0.2,0.3c0.1,0,1.1,0,1.2-0.1c0.1,0,0.2-0.1,0.3,0
	c0.1,0.1,0.2,0.2,0.2,0.4v0.9c0,0.1,0,0.2-0.2,0.2c-0.2,0-1.3-0.1-1.4-0.1s-0.2,0-0.2,0.2c0,0.2,0,1.1,0,1.2c0,0.1,0,0.3,0.1,0.3
	c0.1,0,0.8,0.1,0.9,0.1c0.1,0,0.3-0.1,0.3-0.5c0-0.4,0-0.6,0.2-0.7c0.2,0,1-0.1,1.3,0c0.3,0,0.5,0,0.4,0.4c0,0.4-0.1,1.7-0.1,2
	c0,0.3,0,0.3-0.8,0.4c-0.8,0-4.3,0-4.7,0c-0.4,0-0.4,0-0.4-0.5v-1.2c0-0.2,0-0.1,0.2-0.1c0.1,0,0.3,0,0.3-0.2c0-0.2-0.1-3.6,0-3.9
	c0-0.3,0-0.4-0.1-0.4c-0.1,0-0.2-0.1-0.2-0.5c0-0.4-0.1-1.2,0-1.3c0.2-0.1,4.9,0.2,5.2,0.2C47.2,6.8,47.3,6.7,47.3,7.1L47.3,7.1z
	 M46.1,3.8C46.1,4,46,4.1,46,4.1l0,0l0,0l-0.1,0.1l-0.1,0.1l-0.2,0.1c-0.1,0.1-0.2,0.1-0.4,0.1h-0.3l-0.1,0h-0.4l0-0.1v0l0.1-0.1
	l0.1,0l0,0l-0.1-0.1l0.2,0l0,0v0l0,0V3.9l-0.1-0.2h0l0-0.1V3.6l0-0.2V3.1L44.6,3l0-0.1V2.8l0,0V2.5c0-0.1-0.1-0.1-0.2-0.2l0,0
	l-0.1,0l0-0.1l0.1-0.1l0.1,0l0.1,0l0.1,0h0l0.1,0h0.2l0.1,0l0.2,0l0.2,0l0.2,0h0l0.2,0.1l0.2,0.1l0.1,0.1L46,2.4l0.1,0.1v0l0.1,0.1
	l0,0.1l0,0.2l0.1,0.2v0l0,0.1l0,0.1l0.1,0C46.2,3.5,46.1,3.8,46.1,3.8L46.1,3.8z M44.7,3.5L44.7,3.5L44.7,3.5L44.7,3.5z M44.8,4.5
	L44.8,4.5L44.8,4.5L44.8,4.5z M45.6,4.2L45.6,4.2L45.6,4.2z M45,4.3L45,4.3L45,4.3L45,4.3z M45,4.2L45,4.2L45,4.2L45,4.2L45,4.2z
	 M45.7,2.8L45.7,2.8L45.7,2.8L45.7,2.8z M45.6,2.9l-0.1-0.2l-0.1-0.1l-0.1,0l0,0c-0.1-0.1-0.2-0.1-0.3-0.1h-0.1v0.2l0,0.1v0.6l0,0.3
	v1h0.1l0,0h0.1l0.1-0.1l0-0.1l0.1,0l0-0.1l0.1-0.1c0.1-0.2,0.1-0.4,0.1-0.6l0-0.1l0-0.1C45.7,3.2,45.7,3,45.6,2.9L45.6,2.9z
	 M45.9,3.8L45.9,3.8L45.9,3.8z M48.1,3c0,0.1,0,0.2,0,0.4l0,0.2l0,0l0,0.1l0,0.1v0l-0.2,0.4c-0.2,0.3-0.4,0.5-0.7,0.5
	c-0.2,0-0.4-0.1-0.6-0.4l-0.1-0.2l0-0.2c0-0.1-0.1-0.1,0-0.2l0-0.3l0-0.3L46.4,3v0l0-0.1l0-0.1c0.2-0.4,0.4-0.6,0.7-0.6h0.3
	c0.1,0,0.2,0.1,0.3,0.2c0.1,0.1,0.2,0.2,0.2,0.3l0.1,0.1C48.1,2.8,48.1,3,48.1,3L48.1,3z M46.5,3.6v0.2l0,0L46.5,3.6z M46.6,3.4
	L46.6,3.4L46.6,3.4L46.6,3.4z M46.6,2.7L46.6,2.7L46.6,2.7L46.6,2.7z M46.6,2.9L46.6,2.9L46.6,2.9z M46.7,3.5L46.7,3.5L46.7,3.5z
	 M46.7,4.2L46.7,4.2L46.7,4.2L46.7,4.2z M46.8,2.9L46.8,2.9l0,0.1L46.8,2.9C46.9,2.9,46.8,2.9,46.8,2.9L46.8,2.9z M47.5,2.4
	l-0.2-0.1l-0.1,0L47,2.4L47,2.6l0,0l0,0l0,0l0,0.1h0l0,0H47v0.1l0,0.3l0,0.3c0,0.2,0,0.4,0.1,0.5c0.1,0.2,0.2,0.4,0.3,0.4h0.1
	c0.1-0.1,0.2-0.2,0.3-0.3l0.1-0.5l0-0.5C47.7,2.9,47.7,2.6,47.5,2.4L47.5,2.4z M48,2.6L48,2.6L48,2.6z M50.2,3
	c0,0.3-0.1,0.4-0.2,0.4l0,0l0,0.1l-0.2,0.1l0.1,0.1l0.1,0.1L49.9,4v0.3l0,0.1v0.3l0.1,0.1L50,4.9l0,0l-0.2,0l-0.1-0.1l-0.1-0.1h0h0
	c0-0.2,0-0.3,0-0.4V4.1l0-0.1V3.9l0,0l0-0.1l0,0l0,0l0,0h0l0,0l0,0h-0.1l-0.1,0l0,0l-0.1,0v0.1l0,0.3l0,0.3v0.4l0.1,0
	c0.1,0,0.1,0.1,0.1,0.1H49l-0.6-0.1l0-0.1l0-0.1l0.1,0.1v0l0,0l0.1,0l0.1-0.1V4.4l0-0.1V4l0-0.2V3.3h0V3.1h0v0l0-0.2l0-0.1l0-0.3
	l-0.2,0l-0.1-0.2h0.3l0.1,0h0l0.2,0l0.2,0h0.4l0.2,0.1l0.1,0v0.1h0.1C50.1,2.7,50.2,2.9,50.2,3L50.2,3z M48.7,4.5L48.7,4.5L48.7,4.5
	L48.7,4.5C48.7,4.6,48.7,4.5,48.7,4.5z M48.8,4.2L48.8,4.2L48.8,4.2L48.8,4.2L48.8,4.2z M48.8,2.7L48.8,2.7L48.8,2.7L48.8,2.7z
	 M48.9,2.5L48.9,2.5L48.9,2.5L48.9,2.5L48.9,2.5L48.9,2.5L48.9,2.5z M49,2.7L49,2.7L49,2.7L49,2.7z M49.7,3.3L49.7,3.3L49.7,3.3z
	 M49.7,2.7c0-0.1-0.1-0.2-0.2-0.2h-0.2l-0.1,0c0,0.1,0,0.2,0,0.3l0,0.3l0,0.3v0l0.3,0l0.1-0.1v0l0.1-0.1c0.1-0.1,0.1-0.3,0.1-0.4
	C49.8,2.9,49.7,2.8,49.7,2.7L49.7,2.7z M49.7,3.2L49.7,3.2L49.7,3.2z M49.9,2.6L49.9,2.6L49.9,2.6L49.9,2.6z M54.8,6.7
	c0.6,0,1.5-0.1,1.5-0.1s0.2-0.1,0.2,0.3l0.1,1.4l-0.3,0.3c-0.1,0.2-0.1,0.2-0.1,0.7c0,0.6,0,4.6,0.1,5c0,0.4-0.2,0.4-0.4,0.4
	c-0.2,0-2.6,0-2.9,0s-0.3,0.1-0.4-0.2s-1.5-5.2-1.6-5.5s-0.2-0.1-0.2,0.3l0.1,5c0,0.5,0,0.5-0.5,0.5c-0.5,0-1.5,0-1.7,0
	c-0.2,0-0.2-0.1-0.2-0.4l0-1.3c0-0.2,0.2,0,0.3-0.2c0.1-0.2,0.1-4,0.1-4.1c0-0.1-0.2-0.1-0.3-0.1s-0.2-0.1-0.1-0.3
	c0-0.2,0-0.9,0-1.1c0-0.2-0.1-0.4,0.1-0.5c0.4-0.1,3.5-0.1,3.8,0c0.2,0,0.3,0,0.4,0.5c0.1,0.4,1.2,4.5,1.4,4.8s0.3,0,0.3-0.3
	c0-0.2-0.2-4.1-0.1-4.5S54.3,6.7,54.8,6.7L54.8,6.7z M46.7,29c4.8,0,9.1-1.5,12-3.9h0.6c-2.9,2.8-7.6,4.6-12.9,4.6s-10-1.8-12.9-4.6
	h1.6C38,27.5,42,29,46.7,29z M59.6,22.3c0.1,0,0.4,0,0.4-0.5c0-0.5-1.5-4.2-1.5-4.4s-0.3-0.1-0.4-0.1s-0.3,0.1-0.3-0.4
	c0-0.6,0-0.8-0.1-1c0-0.2-0.1-0.3,0.1-0.3c0.3,0,1.7,0,1.9,0c0.2,0,0.3,0.1,0.3,0.5c0.1,0.6,0.7,2.4,0.8,2.7
	c0.3,1.3,0.3,0.3,0.4-0.1s0.4-2.7,0.5-2.9c0.1-0.2,0.1-0.3,0.3-0.3l1.8,0c0,0,0.4,0,0.4,0.3c0,0.3,0,1.2,0,1.5
	c0,0.2-0.1,0.2-0.3,0.2c-0.4,0-0.4,0.1-0.7,0.9c-0.3,0.9-1.1,2.7-1.1,2.9c0,0.2-0.1,1-0.1,1.2c0,0.2,0.1,0.2,0.2,0.2
	c0.1,0,0.4,0,0.3,0.2l-0.1,1.5c0,0.2-0.1,0.1-0.3,0.1c-0.2,0-2.4-0.4-2.6-0.3c-0.2,0-0.4-0.1-0.4-0.5s0-1,0-1.2
	C59.4,22.4,59.5,22.3,59.6,22.3L59.6,22.3z M62.4,12l0.5-1.2l1.7-0.2l-0.5,1.3L62.4,12L62.4,12z M63.8,23.4c0.1,0,0.2,0.1,0.3,0.2
	c0.1,0.1,0.1,0.3,0.1,0.4c0,0.2,0,0.3-0.1,0.4c-0.1,0.1-0.2,0.2-0.3,0.2s-0.2-0.1-0.3-0.2c-0.1-0.1-0.1-0.3-0.1-0.4
	c0-0.2,0-0.3,0.1-0.4C63.5,23.4,63.7,23.4,63.8,23.4z M63.5,24.4c0.1,0.1,0.2,0.2,0.3,0.2c0.1,0,0.2-0.1,0.3-0.2
	c0.1-0.1,0.1-0.2,0.1-0.4c0-0.2,0-0.3-0.1-0.4c-0.1-0.1-0.2-0.2-0.3-0.2c-0.1,0-0.2,0.1-0.3,0.2c-0.1,0.1-0.1,0.2-0.1,0.4
	C63.4,24.1,63.4,24.3,63.5,24.4z M63.9,23.7L63.9,23.7L63.9,23.7l0.1,0.1l0,0.1L63.9,24l0.1,0.1l0.1,0.1l0,0l0,0h0.1v0H64l-0.1-0.2
	L63.8,24h-0.1v0.2l0,0h0.1v0h-0.2v0h0.1l0,0v-0.5l0,0h-0.1v0L63.9,23.7L63.9,23.7z M63.7,23.7V24h0l0.1,0l0-0.1l0-0.1L63.7,23.7
	L63.7,23.7L63.7,23.7z"/>
</svg>
