<?xml version="1.0" encoding="utf-8"?>
<!-- Generator: Adobe Illustrator 17.0.0, SVG Export Plug-In . SVG Version: 6.00 Build 0)  -->
<!DOCTYPE svg PUBLIC "-//W3C//DTD SVG 1.1//EN" "http://www.w3.org/Graphics/SVG/1.1/DTD/svg11.dtd">
<svg version="1.1" id="Layer_1" xmlns="http://www.w3.org/2000/svg" xmlns:xlink="http://www.w3.org/1999/xlink" x="0px" y="0px"
	 width="612px" height="218.831px" viewBox="0 270.669 612 218.831" enable-background="new 0 270.669 612 218.831"
	 xml:space="preserve">
<g>
	<g>
		<defs>
			<rect id="SVGID_1_" x="0" y="270.669" width="612" height="250.662"/>
		</defs>
		<clipPath id="SVGID_2_">
			<use xlink:href="#SVGID_1_"  overflow="visible"/>
		</clipPath>
		<path clip-path="url(#SVGID_2_)" d="M63.212,441.714L46.37,396.656h-0.219l-17.498,45.058H63.212z M63.65,443.245H27.997
			L20.998,461.4c-6.124,15.748-5.249,18.592,10.061,19.029v0.656H0v-0.656c10.061-0.656,12.686-3.281,19.467-20.56l30.841-78.086
			h0.875l31.716,83.335c5.031,13.342,6.124,14.874,17.498,15.53v0.656H60.369v-0.656c15.311-0.437,15.967-3.281,12.467-12.905
			L63.65,443.245z"/>
	</g>
	<g>
		<defs>
			<rect id="SVGID_3_" x="0" y="270.669" width="612" height="250.662"/>
		</defs>
		<clipPath id="SVGID_4_">
			<use xlink:href="#SVGID_3_"  overflow="visible"/>
		</clipPath>
		<path clip-path="url(#SVGID_4_)" d="M112.426,476.711c0-3.937,3.281-6.999,6.999-6.999c3.937,0,6.999,3.062,6.999,6.781
			c0,3.937-3.281,6.999-6.999,6.999C115.488,483.491,112.426,480.429,112.426,476.711"/>
	</g>
	<g>
		<defs>
			<rect id="SVGID_5_" x="0" y="270.669" width="612" height="250.662"/>
		</defs>
		<clipPath id="SVGID_6_">
			<use xlink:href="#SVGID_5_"  overflow="visible"/>
		</clipPath>
		<path clip-path="url(#SVGID_6_)" d="M148.735,467.743c0-5.031,3.281-8.53,7.437-8.53c3.937,0,6.999,3.281,6.999,7.437
			c0,3.5-2.625,7.437-7.874,7.655c2.406,4.375,8.093,7.874,14.873,7.874c11.374,0,16.405-9.187,16.405-24.06v-63.65
			c0-6.999-0.219-8.53-17.061-8.968v-0.656h44.402v0.656c-15.311,0.437-17.061,1.75-17.061,9.187v59.275
			c0,17.498-6.999,29.528-25.154,29.528C157.484,483.491,148.735,475.179,148.735,467.743"/>
	</g>
	<g>
		<defs>
			<rect id="SVGID_7_" x="0" y="270.669" width="612" height="250.662"/>
		</defs>
		<clipPath id="SVGID_8_">
			<use xlink:href="#SVGID_7_"  overflow="visible"/>
		</clipPath>
		<path clip-path="url(#SVGID_8_)" d="M281.284,441.714l-16.842-45.058h-0.219l-17.498,45.058H281.284z M281.721,443.245h-35.653
			l-6.999,18.154c-6.124,15.748-5.249,18.592,10.061,19.029v0.656h-31.059v-0.656c10.061-0.656,12.686-3.281,19.467-20.56
			l31.059-78.086h0.875l31.716,83.335c5.031,13.342,6.124,14.874,17.498,15.53v0.656h-40.027v-0.656
			c15.311-0.437,15.967-3.281,12.467-12.905L281.721,443.245z"/>
	</g>
	<g>
		<defs>
			<rect id="SVGID_9_" x="0" y="270.669" width="612" height="250.662"/>
		</defs>
		<clipPath id="SVGID_10_">
			<use xlink:href="#SVGID_9_"  overflow="visible"/>
		</clipPath>
		<path clip-path="url(#SVGID_10_)" d="M336.841,480.429c15.748-0.437,17.061-1.75,17.061-9.187v-76.773
			c0-7.437-1.312-8.749-17.061-9.187v-0.656h74.805l1.312,27.56l-0.656,0.219c-8.53-21.654-11.155-26.247-21.654-26.247h-26.466
			v45.495h15.967c8.53,0,10.061-3.718,13.342-19.029h0.656v39.371h-0.437c-3.5-15.311-5.031-19.029-13.342-19.029H364.4v38.277
			c0,7.655,1.75,8.749,17.498,9.187v0.656h-45.058V480.429z"/>
	</g>
	<g>
		<defs>
			<rect id="SVGID_11_" x="0" y="270.669" width="612" height="250.662"/>
		</defs>
		<clipPath id="SVGID_12_">
			<use xlink:href="#SVGID_11_"  overflow="visible"/>
		</clipPath>
		<path clip-path="url(#SVGID_12_)" d="M435.049,480.429c15.748-0.437,17.061-1.75,17.061-9.187v-76.773
			c0-7.437-1.312-8.749-17.061-9.187v-0.656h74.805l1.312,27.56l-0.656,0.219c-8.53-21.654-11.155-26.247-21.654-26.247H462.39
			v45.495h15.967c8.53,0,10.061-3.718,13.342-19.029h0.656v39.371H491.7c-3.5-15.311-5.031-19.029-13.342-19.029H462.39v38.277
			c0,7.655,1.75,8.749,17.498,9.187v0.656h-45.058v-0.656H435.049z"/>
	</g>
	<g>
		<defs>
			<rect id="SVGID_13_" x="0" y="270.669" width="612" height="250.662"/>
		</defs>
		<clipPath id="SVGID_14_">
			<use xlink:href="#SVGID_13_"  overflow="visible"/>
		</clipPath>
		<path clip-path="url(#SVGID_14_)" d="M530.196,480.429c15.748-0.437,17.061-1.75,17.061-9.187v-76.773
			c0-7.437-1.312-8.749-17.061-9.187v-0.656h76.992l0.437,26.904l-0.656,0.219c-7.874-21.654-10.28-25.591-20.779-25.591h-28.435
			v44.183h17.498c8.53,0,10.061-3.718,13.342-19.029h0.656v39.371h-0.656c-3.5-15.311-5.031-19.029-13.342-19.029h-17.498v48.12
			h33.028c10.28,0,12.686-4.375,20.56-27.341L612,452.65l-0.656,28.435h-80.929v-0.656H530.196z"/>
	</g>
</g>
<g>
	<defs>
		<rect id="SVGID_15_" x="0" y="270.669" width="612" height="250.662"/>
	</defs>
	<clipPath id="SVGID_16_">
		<use xlink:href="#SVGID_15_"  overflow="visible"/>
	</clipPath>
</g>
<g>
	<defs>
		<rect id="SVGID_17_" x="0" y="270.669" width="612" height="250.662"/>
	</defs>
	<clipPath id="SVGID_18_">
		<use xlink:href="#SVGID_17_"  overflow="visible"/>
	</clipPath>
</g>
<g>
	<defs>
		<rect id="SVGID_19_" x="0" y="270.669" width="612" height="250.662"/>
	</defs>
	<clipPath id="SVGID_20_">
		<use xlink:href="#SVGID_19_"  overflow="visible"/>
	</clipPath>
</g>
<g>
	<defs>
		<rect id="SVGID_21_" x="0" y="270.669" width="612" height="250.662"/>
	</defs>
	<clipPath id="SVGID_22_">
		<use xlink:href="#SVGID_21_"  overflow="visible"/>
	</clipPath>
</g>
<g>
	<defs>
		<rect id="SVGID_23_" x="0" y="270.669" width="612" height="250.662"/>
	</defs>
	<clipPath id="SVGID_24_">
		<use xlink:href="#SVGID_23_"  overflow="visible"/>
	</clipPath>
	<path clip-path="url(#SVGID_24_)" d="M173.888,329.726l-0.437-0.437l0.219-1.75l0.437-0.437c2.406-0.219,3.718-0.437,4.375-0.656
		c0.219-0.219,0.656-0.437,0.656-0.656c0.437-0.656,1.312-2.406,1.969-4.812c1.75-5.468,3.5-11.155,5.249-17.498l5.249-18.592
		c1.312-4.593,1.969-7.437,1.969-8.312c0-1.094-0.437-1.969-1.531-2.625c-1.094-0.656-3.062-0.875-6.343-1.094h-0.219l0.219-1.75
		l0.219-0.437c2.843,0.219,5.468,0.219,7.655,0.219c2.187,0,4.375,0,6.343-0.219l12.686,49.214l19.685-33.903
		c2.406-4.156,5.249-9.405,8.093-15.311c3.281,0.219,5.687,0.437,6.999,0.437c1.531,0,3.937,0,6.781-0.437l0.219,0.437l0,1.75
		l-0.437,0.437l-2.625,0.437c-1.312,0.219-2.406,0.219-2.625,0.656c-0.437,0.219-0.656,0.656-0.875,1.094
		c-0.219,0.437-0.437,1.312-0.656,2.843c-0.219,1.531-0.437,3.937-0.875,7.874c-0.437,3.718-0.656,6.999-0.875,9.843l-1.312,16.842
		c-0.437,5.906-0.656,9.624-0.656,11.374c0,1.531,0.437,2.625,1.312,3.062c0.875,0.437,2.843,0.656,6.124,0.875l0.437,0.437
		l-0.219,1.75l-0.437,0.437c-2.625-0.219-6.124-0.437-10.499-0.437c-3.718,0-7.437,0.219-11.155,0.437l-0.219-0.437l0.219-1.75
		l0.437-0.437c3.718,0,5.906-0.437,6.781-1.094c0.656-0.656,1.094-3.281,1.531-7.437l2.843-38.715
		c-1.312,1.969-5.249,8.53-11.811,19.467c-6.343,10.936-11.155,19.467-14.436,25.591l-3.062,5.687h-1.969l-12.905-49.214
		c-7.437,25.372-10.936,39.59-10.936,42.214c0,0.656,0.219,1.312,0.437,1.531c0.437,0.437,0.875,0.656,1.531,0.656
		c0.656,0.219,2.406,0.219,4.812,0.437l0.219,0.437l0,1.75l-0.437,0.219h-1.531c-3.718-0.219-6.562-0.219-8.53-0.219
		C180.45,329.507,177.607,329.507,173.888,329.726"/>
</g>
<g>
	<defs>
		<rect id="SVGID_25_" x="0" y="270.669" width="612" height="250.662"/>
	</defs>
	<clipPath id="SVGID_26_">
		<use xlink:href="#SVGID_25_"  overflow="visible"/>
	</clipPath>
	<path clip-path="url(#SVGID_26_)" d="M283.471,294.729c-2.187-0.875-4.375-1.531-6.781-1.531c-1.969,0-3.937,0.437-5.468,1.094
		c-0.656,0.437-1.094,1.312-1.75,2.406s-1.531,3.281-2.625,6.343c-1.094,3.062-1.969,6.343-2.625,9.843s-1.094,6.343-1.094,8.312
		c0,1.531,0.219,2.406,0.437,3.062c0.219,0.656,0.656,0.656,1.094,0.656c1.094,0,3.062-1.312,5.906-3.937s5.468-5.906,7.437-9.405
		c1.969-3.5,3.718-8.312,5.031-14.217L283.471,294.729z M290.47,321.414l0.219,1.094l-0.219,0.437
		c-5.906,5.031-9.843,7.437-11.811,7.437c-1.312,0-2.187-0.875-2.187-2.625c0-0.875,0-1.969,0.219-3.281
		c0.219-1.312,0.437-2.843,0.875-4.375l1.094-4.375l0.656-2.406l-0.219-0.219c-4.156,5.906-8.093,10.28-11.593,13.342
		c-3.5,2.843-6.124,4.375-7.655,4.375c-1.969,0-2.843-2.406-2.843-7.218c0-3.062,0.437-6.343,1.312-10.061
		c0.875-3.718,1.969-7.218,3.281-10.499c1.312-3.281,2.406-5.249,3.062-6.343c0.875-1.094,2.187-2.187,3.937-3.5
		c1.75-1.312,3.5-2.406,5.249-3.062c1.531-0.656,3.5-1.094,5.468-1.094c2.406,0,5.031,0.437,7.655,1.531l2.625-1.531l0.875,0.656
		c0,0.437-0.656,2.406-1.75,6.343l-1.969,6.999l-1.094,4.156c-0.656,2.843-1.531,6.124-2.187,9.187
		c-0.656,3.281-0.875,5.468-0.875,6.562c0,1.094,0.437,1.75,1.094,1.75c0.437,0,1.094-0.219,1.969-0.656
		c0.875-0.437,2.187-1.312,4.156-3.062L290.47,321.414z"/>
</g>
<g>
	<defs>
		<rect id="SVGID_27_" x="0" y="270.669" width="612" height="250.662"/>
	</defs>
	<clipPath id="SVGID_28_">
		<use xlink:href="#SVGID_27_"  overflow="visible"/>
	</clipPath>
	<path clip-path="url(#SVGID_28_)" d="M304.031,324.914c2.406,1.312,4.812,1.969,7.218,1.969c1.969,0,3.937-0.437,5.468-1.312
		c1.531-0.875,3.062-3.062,4.812-6.343s2.843-6.562,3.718-10.061c0.875-3.5,1.312-6.343,1.312-8.968
		c0-2.187-0.219-3.718-0.656-4.593c-0.437-0.875-1.094-1.312-2.187-1.312c-1.312,0-2.843,0.437-4.593,1.312
		c-1.75,0.875-3.5,2.406-5.468,4.593s-3.718,4.812-5.249,7.874c-0.875,1.969-1.75,4.812-2.406,8.093L304.031,324.914z
		 M293.314,353.129l-0.437-0.437l1.312-5.687c0.875-3.718,1.969-9.843,3.718-18.811l3.062-17.498
		c0.437-2.843,0.875-5.249,1.094-7.655l0.437-4.812c0.219-0.875,0.219-1.531,0.219-1.969c0-0.875-0.437-1.312-1.094-1.312
		c-0.437,0-0.875,0.219-1.75,0.656c-0.875,0.437-2.625,1.531-5.249,3.281l-0.437-0.219l-0.437-0.875l0.219-0.656
		c2.625-2.187,5.249-3.937,7.874-5.468c2.625-1.531,4.593-2.187,5.906-2.187c1.312,0,1.969,0.656,1.969,1.969
		c0,1.531-0.875,6.124-2.187,13.78c3.062-5.249,6.562-9.187,10.499-11.811c3.937-2.625,7.218-3.937,9.843-3.937
		c1.312,0,2.187,0.437,2.843,1.094c0.656,0.656,1.094,1.75,1.531,3.281c0.437,1.531,0.656,3.281,0.656,5.249
		c0,2.625-0.437,5.468-1.312,8.749c-0.875,3.281-1.969,6.124-3.062,8.53c-1.094,2.406-2.625,4.375-4.156,5.906
		c-1.531,1.75-3.5,3.062-5.687,4.593c-2.187,1.312-4.156,2.406-5.687,3.062c-1.531,0.656-2.843,1.094-3.937,1.094
		c-0.656,0-1.531,0-2.187-0.219s-1.75-0.437-3.5-0.875l-3.718,21.873C296.595,352.254,294.407,352.692,293.314,353.129"/>
</g>
<g>
	<defs>
		<rect id="SVGID_29_" x="0" y="270.669" width="612" height="250.662"/>
	</defs>
	<clipPath id="SVGID_30_">
		<use xlink:href="#SVGID_29_"  overflow="visible"/>
	</clipPath>
	<path clip-path="url(#SVGID_30_)" d="M336.841,328.413c0.875-4.375,1.531-7.874,1.75-10.499l0.437-0.437h1.312l0.437,0.437v6.781
		c2.406,2.187,5.249,3.281,8.093,3.281c1.312,0,2.625-0.219,3.937-0.656c1.312-0.437,2.187-1.094,3.062-1.75
		c0.875-0.656,1.531-1.75,1.969-3.062c0.437-1.312,0.656-2.625,0.656-3.937c0-0.875-0.219-1.75-0.437-2.625
		c-0.437-0.875-0.875-1.531-1.75-1.969c-0.875-0.437-2.406-1.094-5.031-1.531c-2.406-0.437-4.156-0.875-5.249-1.094
		s-1.969-0.875-3.062-1.531c-0.875-0.656-1.75-1.75-2.406-2.843c-0.656-1.094-0.875-2.406-0.875-3.718c0-1.75,0.437-3.5,1.312-5.031
		c0.875-1.531,2.187-2.843,3.937-4.375c1.75-1.312,3.5-2.406,5.249-3.281c1.75-0.875,3.937-1.312,6.124-1.312
		c3.281,0,6.124,0.656,8.312,1.969l0.219,0.437c-0.437,1.531-0.875,3.062-0.875,4.375l-0.437,4.593l-0.437,0.437h-1.312
		l-0.437-0.437c0-1.531,0-3.281-0.219-4.812c-1.969-2.187-4.593-3.281-7.874-3.281c-2.625,0-4.812,0.656-6.343,2.187
		c-1.531,1.531-2.406,3.281-2.406,5.468c0,1.75,0.437,3.062,1.531,4.156c1.094,1.094,3.062,1.75,5.906,2.187
		c2.625,0.437,4.593,0.656,5.687,1.094c1.094,0.219,2.187,0.656,3.062,1.312c0.875,0.656,1.75,1.531,2.187,2.625
		c0.437,1.094,0.875,2.187,0.875,3.5c0,1.531-0.219,3.062-0.875,4.593c-0.656,1.531-1.531,2.843-2.625,4.156
		c-1.094,1.312-2.625,2.625-4.593,3.937c-1.969,1.312-3.718,2.187-5.468,2.843c-1.531,0.437-3.281,0.656-5.031,0.656
		c-2.843,0-5.687-0.656-8.749-2.187L336.841,328.413z"/>
</g>
<g>
	<defs>
		<rect id="SVGID_31_" x="0" y="270.669" width="612" height="250.662"/>
	</defs>
	<clipPath id="SVGID_32_">
		<use xlink:href="#SVGID_31_"  overflow="visible"/>
	</clipPath>
	<path clip-path="url(#SVGID_32_)" d="M394.803,325.132c0,0.875,0.219,1.531,0.656,2.187c0.437,0.656,1.312,0.875,2.406,0.875
		c1.531,0,2.843-0.656,3.937-2.187c1.094-1.312,1.969-3.281,2.625-5.468c0.656-2.187,1.094-4.156,1.094-5.468
		c0-1.531-0.219-2.406-0.437-2.843c-0.219-0.437-0.656-0.656-1.312-0.656c-0.875,0-1.969,0.219-2.843,0.875
		c-1.094,0.656-1.969,1.531-3.062,3.062c-1.094,1.312-1.75,3.062-2.187,5.031C395.241,322.945,394.803,324.257,394.803,325.132
		 M399.615,298.885l0.437,0.437l-1.531,6.562l-2.187,10.061c1.75-2.406,3.5-4.156,5.249-5.031c1.75-1.094,3.062-1.531,4.375-1.531
		c0.656,0,1.094,0.219,1.312,0.437c0.437,0.219,0.656,0.875,0.875,1.531c0.219,0.656,0.219,1.531,0.219,2.625
		c0,1.969-0.437,3.937-1.094,5.906c-0.656,1.969-1.312,3.5-2.187,4.593c-0.875,1.094-1.531,2.187-2.625,2.843
		c-0.875,0.875-1.969,1.531-3.281,2.187c-1.312,0.656-2.406,0.875-3.5,0.875c-1.094,0-2.187-0.437-3.062-1.094
		c-0.875-0.656-1.312-1.531-1.312-2.625c0-0.656,0.219-2.187,0.656-4.812l1.531-7.437c0.219-1.531,0.656-3.062,0.875-4.812
		l0.875-4.593c0.219-1.312,0.437-1.969,0.437-2.187c0-0.219,0-0.437,0-0.437c0-0.219-0.219-0.437-0.219-0.656
		c-0.219-0.219-0.656-0.219-1.094-0.219h-1.75l-0.219-0.219v-0.437l0.219-0.219C395.678,299.979,397.866,299.541,399.615,298.885"/>
</g>
<path d="M410.114,337.381l1.969-1.312l0.437,0.219c0,0.219,0,0.437,0,0.656c0,1.094,0.219,1.75,0.875,2.187
	c0.656,0.437,1.312,0.656,1.969,0.656c0.437,0,1.094-0.219,1.531-0.437c0.437-0.219,1.094-0.656,1.531-1.312
	c0.437-0.656,1.094-1.75,1.75-3.062c0.656-1.531,1.312-3.062,1.75-4.812s1.094-3.5,1.531-5.249l0.656-2.625
	c-0.875,1.531-1.75,2.625-2.625,3.5c-0.875,0.875-1.531,1.75-2.406,2.406c-0.656,0.875-1.312,1.312-1.969,1.75
	c-0.437,0.219-0.875,0.437-1.312,0.437c-0.656,0-1.094-0.437-1.312-1.094c-0.437-0.656-0.437-1.531-0.437-2.625
	c0-0.437,0-1.75,0.219-3.281c0.437-3.062,0.437-5.687,0.437-7.874c0-1.094,0-1.969-0.219-2.187
	c-0.219-0.437-0.219-0.437-0.656-0.437c-0.219,0-0.656,0.219-1.312,0.437c-0.437,0.219-1.094,0.656-1.75,1.312h-0.219l-0.219-0.437
	v-0.219c3.062-2.625,5.031-3.937,6.124-3.937c0.437,0,0.656,0.219,1.094,0.437c0.219,0.437,0.437,1.094,0.437,1.969
	s0,2.187-0.219,3.718c-0.437,4.812-0.656,7.874-0.656,9.405c0,0.656,0,0.875,0.219,1.312c0.219,0.219,0.219,0.437,0.656,0.437
	c0.219,0,0.437,0,0.875-0.219c0.437-0.219,0.875-0.656,1.531-1.312s1.531-1.75,2.187-2.843c0.656-1.094,1.312-2.406,1.969-3.718
	c0.656-1.312,1.094-2.625,1.312-3.937c0.437-1.312,0.656-2.843,1.312-4.812c0.875-0.219,1.969-0.437,3.062-0.875l0.437,0.437
	c-0.656,1.312-1.969,5.249-3.937,11.593c-0.875,3.281-1.75,5.906-2.406,7.655c-0.656,1.969-1.312,3.5-2.187,5.031
	c-0.875,1.531-1.969,2.843-3.062,3.937s-2.187,1.969-3.281,2.406c-1.094,0.437-1.969,0.656-2.843,0.656
	c-0.875,0-1.75-0.219-2.625-0.875c-0.656-0.656-1.094-1.531-1.094-2.406C409.896,337.818,409.896,337.6,410.114,337.381"/>
<rect x="0" y="270.669" fill="none" width="612" height="218.831"/>
</svg>
