<?xml version="1.0" encoding="UTF-8"?>
<svg width="394pt" version="1.1" xmlns="http://www.w3.org/2000/svg" height="111pt" viewBox="0 0 394 111" xmlns:xlink="http://www.w3.org/1999/xlink">
 <defs>
  <clipPath id="Clip0">
   <path d="M0 0 L394 0 L394 111 L0 111 L0 0 Z" transform="translate(0, 0)"/>
  </clipPath>
 </defs>
 <g id="Background">
  <g id="Group1" clip-path="url(#Clip0)">
   <path style="fill:#0000ff; fill-rule:nonzero;stroke:none;" d="M1.5996 37.1494 L0 38.7002 L0 0 L1.5996 1.5996 L1.5996 37.1494 Z" transform="translate(2.2002, 36.9502)"/>
   <path style="fill:#0000ff; fill-rule:nonzero;stroke:none;" d="M1.59961 28.2002 L0 28.2002 L0 0 L1.59961 0 L1.59961 28.2002 Z" transform="translate(6.65039, 42.2002)"/>
   <path style="fill:#000000; fill-rule:nonzero;stroke:none;" d="M37.1494 0 L37.8994 0.75 L37.0498 1.5508 L0 1.5508 L1.5996 0 L37.1494 0 Z" transform="translate(2.2002, 74.0996)"/>
   <path style="fill:#000000; fill-rule:nonzero;stroke:none;" d="M0 0.7998 L0.75 0 L1.5508 0.7998 L1.5508 36.3496 L0.75 37.0996 L0 36.3496 L0 0.7998 Z" transform="translate(39.3496, 37.75)"/>
   <path style="fill:#000000; fill-rule:nonzero;stroke:none;" d="M1.5996 1.5996 L0 0 L37.0498 0 L37.8994 0.7998 L37.1494 1.5996 L1.5996 1.5996 Z" transform="translate(2.2002, 36.9502)"/>
   <path style="fill:#ff0000; fill-rule:nonzero;stroke:none;" d="M36.3506 0 L37.1006 0.75 L36.25 1.5508 L0.8506 1.5508 L0 0.75 L0.8008 0 L36.3506 0 Z" transform="translate(40.0996, 74.0996)"/>
   <path style="fill:#000000; fill-rule:nonzero;stroke:none;" d="M0 0.7998 L0.75 0 L1.5498 0.7998 L1.5498 36.3496 L0.75 37.0996 L0 36.3496 L0 0.7998 Z" transform="translate(76.4502, 37.75)"/>
   <path style="fill:#ff0000; fill-rule:nonzero;stroke:none;" d="M0.8008 1.5996 L0 0.7998 L0.8506 0 L36.25 0 L37.1006 0.7998 L36.3506 1.5996 L0.8008 1.5996 Z" transform="translate(40.0996, 36.9502)"/>
   <path style="fill:#000000; fill-rule:nonzero;stroke:none;" d="M36.3498 0 L37.8998 1.5508 L0.8496 1.5508 L0 0.75 L0.7998 0 L36.3498 0 Z" transform="translate(77.2002, 74.0996)"/>
   <path style="fill:#ff00ff; fill-rule:nonzero;stroke:none;" d="M0 1.5996 L1.55 0 L1.55 38.7002 L0 37.1494 L0 1.5996 Z" transform="translate(113.55, 36.9502)"/>
   <path style="fill:#ff00ff; fill-rule:nonzero;stroke:none;" d="M0 0 L1.55 0 L1.55 28.2002 L0 28.2002 L0 0 Z" transform="translate(109.1, 42.2002)"/>
   <path style="fill:#000000; fill-rule:nonzero;stroke:none;" d="M0.7998 1.5996 L0 0.7998 L0.8496 0 L37.8998 0 L36.3498 1.5996 L0.7998 1.5996 Z" transform="translate(77.2002, 36.9502)"/>
   <path style="fill:#0000ff; fill-rule:nonzero;stroke:none;" d="M1.55 30 L0 30.5996 L0 0 L1.55 0.5996 L1.55 30 Z" transform="translate(180, 43.4502)"/>
   <path style="fill:#0000ff; fill-rule:nonzero;stroke:none;" d="M22.3 20.75 L21.7 22.2998 L0 0.5996 L1.55 0 L22.3 20.75 Z" transform="translate(180, 73.4502)"/>
   <path style="fill:#0000ff; fill-rule:nonzero;stroke:none;" d="M20 18.9004 L18.9 20 L0 1.1006 L1.1 0 L20 18.9004 Z" transform="translate(184.15, 71.5996)"/>
   <path style="fill:#000000; fill-rule:nonzero;stroke:none;" d="M28 0 L28.6 1.5996 L0 1.5498 L0.6 0 L28 0 Z" transform="translate(201.7, 94.2002)"/>
   <path style="fill:#ff00ff; fill-rule:nonzero;stroke:none;" d="M22.75 0 L24.3 0.6992 L0.6 22.3994 L0 20.7998 L22.75 0 Z" transform="translate(229.7, 73.4004)"/>
   <path style="fill:#ff00ff; fill-rule:nonzero;stroke:none;" d="M20.85 0 L21.9 1.1494 L1.05 20.25 L0 19.0996 L20.85 0 Z" transform="translate(227.95, 71.4502)"/>
   <path style="fill:#ff00ff; fill-rule:nonzero;stroke:none;" d="M0 0.8008 L1.55 0 L1.55 30.75 L0 30.0508 L0 0.8008 Z" transform="translate(252.45, 43.3496)"/>
   <path style="fill:#ff00ff; fill-rule:nonzero;stroke:none;" d="M0 1.5996 L0.5 0 L27.25 21.1494 L25.7 21.9502 L0 1.5996 Z" transform="translate(226.75, 22.2002)"/>
   <path style="fill:#ff00ff; fill-rule:nonzero;stroke:none;" d="M0 1.1992 L1 0 L24.6 18.6992 L23.6 19.8994 L0 1.1992 Z" transform="translate(225.1, 26.4004)"/>
   <path style="fill:#000000; fill-rule:nonzero;stroke:none;" d="M0.7 1.5996 L0 0 L28.6 0 L28.1 1.5996 L0.7 1.5996 Z" transform="translate(198.65, 22.2002)"/>
   <path style="fill:#0000ff; fill-rule:nonzero;stroke:none;" d="M1.55 21.8496 L0 21.25 L18.65 0 L19.35 1.5996 L1.55 21.8496 Z" transform="translate(180, 22.2002)"/>
   <path style="fill:#0000ff; fill-rule:nonzero;stroke:none;" d="M1.15 19.3496 L0 18.2998 L16.1 0 L17.25 1 L1.15 19.3496 Z" transform="translate(184.1, 26.4004)"/>
   <path style="fill:none;stroke:#0000ff; stroke-width:1.55906; stroke-linecap:butt; stroke-linejoin:miter; stroke-dasharray:none;" d="M0 3 C0.9502 2.0996 2.1006 1.4004 3.3506 1.0996 C7.3506 0 11.4004 2.4004 12.5 6.3496 " transform="translate(15.3496, 57)"/>
   <path style="fill:#0000ff; fill-rule:nonzero;stroke:none;" d="M0 8.7998 L4.2998 1.2002 C4.2998 1.2002 2.5498 1.7998 1.9492 1.5996 C1.2998 1.4502 0.0996 0 0.0996 0 L0 8.7998 L0 8.7998 " transform="translate(25.9004, 61.75)"/>
   <path style="fill:none;stroke:#0000ff; stroke-width:1.55906; stroke-linecap:butt; stroke-linejoin:miter; stroke-dasharray:none;" d="M6.4004 8.3496 C5.4004 8.3496 4.4502 8.0996 3.6006 7.5996 C0.9502 6.0498 0 2.6504 1.5498 0 " transform="translate(27.5498, 44.25)"/>
   <path style="fill:#0000ff; fill-rule:nonzero;stroke:none;" d="M6.4004 0 L0 1.75 C0 1.75 1.3506 2.5 1.5498 2.7998 C1.75 3.0996 1.7002 4.5996 1.7002 4.5996 L6.4004 0 L6.4004 0 " transform="translate(27.5498, 41.4502)"/>
   <path style="fill:none;stroke:#ff00ff; stroke-width:1.55906; stroke-linecap:butt; stroke-linejoin:miter; stroke-dasharray:none;" d="M12.6502 4.1992 C11.5002 5.2998 10.0002 6.0498 8.4502 6.2998 C4.3506 6.8994 0.6006 4.0498 0 0 " transform="translate(93.0498, 49.6504)"/>
   <path style="fill:#ff00ff; fill-rule:nonzero;stroke:none;" d="M5.6504 0 L0 7.2998 C0 7.2998 1.9004 6.8994 2.5498 7.2002 C3.2002 7.5 4.2002 9.1494 4.2002 9.1494 L5.6504 0 L5.6504 0 " transform="translate(90.5, 42.4502)"/>
   <path style="fill:none;stroke:#ff00ff; stroke-width:1.55906; stroke-linecap:butt; stroke-linejoin:miter; stroke-dasharray:none;" d="M0 3.2002 C0.9502 2.2002 2.2002 1.5 3.5498 1.1504 C7.75 0 12.0996 2.5 13.25 6.75 " transform="translate(79.7002, 55.5996)"/>
   <path style="fill:#ff00ff; fill-rule:nonzero;stroke:none;" d="M0 9.4004 L4.5498 1.25 C4.5498 1.25 2.75 1.9502 2.0498 1.75 C1.3496 1.5508 0.0996 0 0.0996 0 L0 9.4004 L0 9.4004 " transform="translate(90.9004, 60.5996)"/>
   <path style="fill:#000000; fill-rule:nonzero;stroke:none;" d="M1.55 30.0498 L0 30.6494 L0 0 L1.55 0.6992 L1.55 30.0498 Z" transform="translate(318, 43.4004)"/>
   <path style="fill:#000000; fill-rule:nonzero;stroke:none;" d="M1.55 26.5508 L0 26.5508 L0 0 L1.55 0 L1.55 26.5508 Z" transform="translate(321.9, 45.5996)"/>
   <path style="fill:#000000; fill-rule:nonzero;stroke:none;" d="M22.3 20.75 L21.7 22.2998 L0 0.5996 L1.55 0 L22.3 20.75 Z" transform="translate(318, 73.4502)"/>
   <path style="fill:#ff0000; fill-rule:nonzero;stroke:none;" d="M29 0 L29.6 1.5996 L0 1.5498 L0.6 0 L29 0 Z" transform="translate(339.7, 94.2002)"/>
   <path style="fill:#ff0000; fill-rule:nonzero;stroke:none;" d="M25.85 0 L25.85 1.6006 L0 1.5498 L0 0 L25.85 0 Z" transform="translate(341.6, 90.2998)"/>
   <path style="fill:#000000; fill-rule:nonzero;stroke:none;" d="M21.75 0 L23.3 0.6992 L0.6 22.3994 L0 20.7998 L21.75 0 Z" transform="translate(368.7, 73.4004)"/>
   <path style="fill:#000000; fill-rule:nonzero;stroke:none;" d="M0 0.8008 L1.55 0 L1.55 30.75 L0 30.0508 L0 0.8008 Z" transform="translate(390.45, 43.3496)"/>
   <path style="fill:#000000; fill-rule:nonzero;stroke:none;" d="M0 0 L1.55 0 L1.55 26.3994 L0 26.3994 L0 0 Z" transform="translate(386.55, 45.7002)"/>
   <path style="fill:#000000; fill-rule:nonzero;stroke:none;" d="M0 1.5996 L0.5 0 L26.25 19.1494 L24.7 19.9502 L0 1.5996 Z" transform="translate(365.75, 24.2002)"/>
   <path style="fill:#ff0000; fill-rule:nonzero;stroke:none;" d="M0.6 1.5996 L0 0 L24.55 0 L24.05 1.5996 L0.6 1.5996 Z" transform="translate(341.7, 24.2002)"/>
   <path style="fill:#ff0000; fill-rule:nonzero;stroke:none;" d="M0 1.6006 L0 0 L21.3 0 L21.3 1.6006 L0 1.6006 Z" transform="translate(343.4, 28.0996)"/>
   <path style="fill:#000000; fill-rule:nonzero;stroke:none;" d="M1.55 19.8994 L0 19.2002 L23.7 0 L24.3 1.5996 L1.55 19.8994 Z" transform="translate(318, 24.2002)"/>
   <path style="fill:none;stroke:#ff0000; stroke-width:1.55906; stroke-linecap:butt; stroke-linejoin:miter; stroke-dasharray:none;" d="M7.75 4.5 C7 4.9502 6.1006 5.2002 5.2002 5.2002 C2.2998 5.2002 0 2.8506 0 0 " transform="translate(58.7998, 46.7998)"/>
   <path style="fill:#ff0000; fill-rule:nonzero;stroke:none;" d="M4.3008 0 L0 4.3506 C0 4.3506 1.4004 4.3506 1.7002 4.5 C1.9502 4.6504 2.6504 5.9502 2.6504 5.9502 L4.3008 0 L4.3008 0 " transform="translate(57.0996, 42.2998)"/>
   <path style="fill:none;stroke:#ff0000; stroke-width:1.55906; stroke-linecap:butt; stroke-linejoin:miter; stroke-dasharray:none;" d="M0 3.5498 C1.1006 2.4502 2.4502 1.6494 3.9502 1.2998 C8.6006 0 13.4502 2.7998 14.7002 7.5 " transform="translate(46.2998, 57.7002)"/>
   <path style="fill:#ff0000; fill-rule:nonzero;stroke:none;" d="M0 10.4004 L5.0498 1.4004 C5.0498 1.4004 3.0996 2.1504 2.25 1.9004 C1.4004 1.6504 0.0996 0 0.0996 0 L0 10.4004 L0 10.4004 " transform="translate(58.75, 63.2998)"/>
   <path style="fill:none;stroke:#000000; stroke-width:1.25; stroke-linecap:butt; stroke-linejoin:miter; stroke-dasharray:none;" d="M37.4 0 L0 0 " transform="translate(121, 59.25)"/>
   <path style="fill:#000000; fill-rule:nonzero;stroke:none;" d="M15.6 4 L0 0 C0 0 1.95 2.25 1.95 4 C1.95 5.75 0 7.9502 0 7.9502 L15.6 4 L15.6 4 " transform="translate(156.4, 55.25)"/>
   <path style="fill:none;stroke:#000000; stroke-width:1.25; stroke-linecap:butt; stroke-linejoin:miter; stroke-dasharray:none;" d="M24.1 0 L0 0 " transform="translate(273.1, 38.5)"/>
   <path style="fill:#000000; fill-rule:nonzero;stroke:none;" d="M15.55 4 L0 0 C0 0 1.95 2.25 1.95 4 C1.95 5.75 0 7.9502 0 7.9502 L15.55 4 L15.55 4 " transform="translate(295.2, 34.5)"/>
   <path style="fill:#000000; fill-rule:nonzero;stroke:none;" d="M0 3.9502 L15.6 0 C15.6 0 13.65 2.2002 13.65 3.9502 C13.65 5.7002 15.6 7.9502 15.6 7.9502 L0 3.9502 L0 3.9502 " transform="translate(259.5, 34.5498)"/>
   <path style="fill:none;stroke:#000000; stroke-width:1.25; stroke-linecap:butt; stroke-linejoin:miter; stroke-dasharray:none;" d="M17.75 0 L0 0 " transform="translate(273, 73.1504)"/>
   <path style="fill:none;stroke:#000000; stroke-width:1.25; stroke-linecap:butt; stroke-linejoin:miter; stroke-dasharray:none;" d="M0 0 L17.75 0 " transform="translate(284.25, 77.8496)"/>
   <path style="fill:#000000; fill-rule:nonzero;stroke:none;" d="M15.6 4.7998 L0 0 C0 0 1.95 2.25 1.95 4.7998 L15.6 4.7998 L15.6 4.7998 " transform="translate(288.75, 69.1504)"/>
   <path style="fill:#000000; fill-rule:nonzero;stroke:none;" d="M0 0 L13.65 0 C13.65 1 15.6 4.7998 15.6 4.7998 L0 0 L0 0 " transform="translate(270.65, 77.0498)"/>
   <path style="fill:#000000; fill-rule:evenodd;stroke:none;" d="M3.168 9.2159 C3.366 8.0098 3.672 7.2901 4.338 6.4444 C5.166 5.4356 5.166 5.4356 5.418 5.0576 C5.994 4.1758 6.228 3.5284 6.228 2.7901 C6.228 2.1065 5.994 1.458 5.58 1.044 C4.95 0.4141 3.888 0 2.916 0 C1.26 0 0 1.1162 0 2.6104 C0 3.3301 0.306 3.7256 0.864 3.7256 C1.296 3.7256 1.602 3.42 1.602 2.9883 C1.602 2.7364 1.494 2.5196 1.224 2.2139 C1.008 1.9619 0.918 1.7998 0.918 1.6563 C0.918 1.0801 1.746 0.5401 2.628 0.5401 C3.708 0.5401 4.572 1.4942 4.572 2.7002 C4.572 3.5284 4.338 4.5176 3.906 5.5078 L3.402 6.6602 C3.06 7.542 2.88 8.4239 2.862 9.2159 L3.168 9.2159 Z M3.042 10.3858 C2.502 10.3858 2.088 10.8184 2.088 11.3936 C2.088 11.916 2.484 12.3116 3.024 12.3116 C3.6 12.3116 4.014 11.916 4.014 11.376 C4.014 10.836 3.564 10.3858 3.042 10.3858 Z" transform="translate(285.224, 51.832)"/>
   <path style="fill:#000000; fill-rule:evenodd;stroke:none;" d="M4.6797 3.96973 L4.6797 7.29004 L5.6103 7.29004 L5.6103 0 L4.6797 0 L4.6797 3.15039 L0.9297 3.15039 L0.9297 0 L0 0 L0 7.29004 L0.9394 7.29004 L0.9394 3.96973 L4.6797 3.96973 Z" transform="translate(38.0801, 3.95996)"/>
   <path style="fill:#000000; fill-rule:nonzero;stroke:none;" d="M0 0 L6 0 L3.8506 23.6504 L3 24.4502 L2.1504 23.6504 L0 0 Z" transform="translate(37.0996, 13.2998)"/>
   <path style="fill:#000000; fill-rule:evenodd;stroke:none;" d="M4.6797 3.96973 L4.6797 7.29004 L5.6103 7.29004 L5.6103 0 L4.6797 0 L4.6797 3.15039 L0.9297 3.15039 L0.9297 0 L0 0 L0 7.29004 L0.9394 7.29004 L0.9394 3.96973 L4.6797 3.96973 Z" transform="translate(75.0801, 3.95996)"/>
   <path style="fill:#000000; fill-rule:nonzero;stroke:none;" d="M0 0 L6 0 L3.8496 23.6504 L3 24.4502 L2.1494 23.6504 L0 0 Z" transform="translate(74.2002, 13.2998)"/>
   <path style="fill:#000000; fill-rule:evenodd;stroke:none;" d="M4.6797 3.97 L4.6797 7.29 L5.6103 7.29 L5.6103 0 L4.6797 0 L4.6797 3.15 L0.9297 3.15 L0.9297 0 L0 0 L0 7.29 L0.9394 7.29 L0.9394 3.97 L4.6797 3.97 Z" transform="translate(38.0801, 101.21)"/>
   <path style="fill:#000000; fill-rule:nonzero;stroke:none;" d="M6 24.5 L0 24.5 L2.1504 0.8008 L3 0 L3.8506 0.8008 L6 24.5 Z" transform="translate(37.0996, 74.8496)"/>
   <path style="fill:#000000; fill-rule:evenodd;stroke:none;" d="M4.6797 3.97 L4.6797 7.29 L5.6103 7.29 L5.6103 0 L4.6797 0 L4.6797 3.15 L0.9297 3.15 L0.9297 0 L0 0 L0 7.29 L0.9394 7.29 L0.9394 3.97 L4.6797 3.97 Z" transform="translate(75.0801, 101.21)"/>
   <path style="fill:#000000; fill-rule:nonzero;stroke:none;" d="M6 24.5 L0 24.5 L2.1494 0.8008 L3 0 L3.8496 0.8008 L6 24.5 Z" transform="translate(74.2002, 74.8496)"/>
   <path style="fill:#000000; fill-rule:evenodd;stroke:none;" d="M0 12.3838 L10.836 12.3838 L5.778 0 L0 12.3838 Z M1.278 11.4658 L5.112 3.2217 L8.514 11.4658 L1.278 11.4658 Z" transform="translate(136.858, 29.3662)"/>
   <path style="fill:#000000; fill-rule:evenodd;stroke:none;" d="M10.88 10.6396 L10.816 10.6396 C10.192 10.6396 9.936 10.3037 9.136 8.416 L5.568 0 L5.12 0 L1.568 8.7675 C0.96 10.2558 0.768 10.4961 0 10.6396 L0 11.04 L3.248 11.04 L3.248 10.6396 C2.304 10.5761 1.936 10.4004 1.936 9.9843 C1.936 9.7763 2.064 9.3759 2.4 8.5117 L2.64 7.8877 L6.24 7.8877 C6.784 9.1357 6.976 9.7119 6.976 10.0644 C6.976 10.4004 6.768 10.5595 6.208 10.5918 C6.128 10.5918 5.92 10.6084 5.696 10.6396 L5.696 11.04 L10.88 11.04 L10.88 10.6396 Z M2.88 7.2636 L4.384 3.3759 L6 7.2636 L2.88 7.2636 Z" transform="translate(210.144, 50.96)"/>
   <path style="fill:#000000; fill-rule:evenodd;stroke:none;" d="M0 0 L0 0.4004 C1.104 0.4648 1.408 0.7207 1.408 1.5361 L1.408 9.2803 C1.408 10.0967 1.168 10.2881 0 10.416 L0 10.8164 L5.152 10.8164 C7.856 10.8164 9.648 9.6162 9.648 7.8086 C9.648 7.0889 9.344 6.4326 8.784 5.9365 C8.224 5.456 7.68 5.2168 6.56 4.9766 C8.416 4.4326 9.104 3.7764 9.104 2.5605 C9.104 0.9121 7.616 0 4.944 0 L0 0 Z M3.968 5.3281 L4.448 5.3281 C6.096 5.3281 6.896 6.1924 6.896 7.9521 C6.896 9.5049 6.24 10.3047 4.944 10.3047 C4.24 10.3047 3.968 10.0322 3.968 9.3281 L3.968 5.3281 Z M3.968 1.2646 C3.968 0.6885 4.208 0.4805 4.832 0.4805 C5.952 0.4805 6.464 1.1689 6.464 2.6728 C6.464 4.3525 5.936 4.8008 3.968 4.8486 L3.968 1.2646 Z" transform="translate(346.256, 50.1836)"/>
  </g>
 </g>
</svg>
