<?xml version="1.0" encoding="utf-8"?>
<!-- Generator: Adobe Illustrator 18.0.0, SVG Export Plug-In . SVG Version: 6.00 Build 0)  -->
<!DOCTYPE svg PUBLIC "-//W3C//DTD SVG 1.1//EN" "http://www.w3.org/Graphics/SVG/1.1/DTD/svg11.dtd">
<svg version="1.1" id="Layer_1" xmlns="http://www.w3.org/2000/svg" xmlns:xlink="http://www.w3.org/1999/xlink" x="0px" y="0px"
	 viewBox="0 0 218 528.4" enable-background="new 0 0 218 528.4" xml:space="preserve" preserveAspectRatio="xMinYMax slice">
<g>
	<path opacity="0.3" fill="#DF3025" d="M189,101.9c0.5-0.4,1.5-1.3,1.5-3.1V83.2c-1-2.6-2.1-13-9.8-17.4l-2.7-1.3
		c-1.4-0.4-2.5-0.3-3.2,0c-0.2,0.1-0.4,0.2-0.7,0.3c-0.2,0.1-0.4,0.2-0.4,0.2l0-0.1c-0.3,0.1-0.7,0.2-1,0.2c-1.8,0-3.4-1.6-4-2.6
		h-0.2v-0.1c0-0.2-0.1-0.5-0.2-0.8c-0.4-0.9-1.3-2.5-3.4-3.6l-32.9-16.8l-0.6-0.6V14.4h-0.7h-3.9h-10.5h-5.2h-5.2h-5.2H90.2h-5.7V41
		l-34,17.5c-1.4,0.7-2,1.9-2.3,2.8c-0.4,2-2.1,3.6-4.3,3.6c-0.5,0-1-0.1-1.5-0.3l0,0c-1.9-0.8-3.8,0.2-3.8,0.2l0-0.1l-4.3,2.4
		c-4.4,3.4-6.8,8.9-6.8,12.7v18.8c0,2.7,1.5,3.9,1.5,3.9l-0.1,0c0.9,0.8,1.4,2,1.4,3.3c0,1.3-0.6,2.5-1.5,3.3l0.2,0
		c0,0-1.5,1.5-1.5,4.5v5.7v2.6v22.8c0,2,0.6,3,1,3.3c0.1,0.1,0,0.1,0.1,0.2c0.1,0,0,0.1,0,0.1l0,0c1,0.8,1.7,2,1.7,3.4
		c0,1.5-0.7,2.8-1.8,3.6l0.3,0c0,0-1.2,1-1.2,3.8V176c0,4.7,0.1,9,0.5,12.7c0.4,2.5,1.2,3.7,1.9,4.2c1.5,0.7,2.5,2.1,2.5,3.9
		c0,0.6-0.2,1.6-0.4,1.6h0l0,0.1c-0.1,0.2-0.2,0.5-0.3,0.7c-0.4,0.9-1,3-0.1,5.7c0.3,0.8,0.8,1.5,1,2.1l1,1.7v0l4.5,10.2
		c1.6,4,3.4,10.5,2.9,17.3l0,0c0,0,0,0.1,0,0.1c0,0.2,0,0.3,0,0.5l0,0.1c-0.1,1.8,0.6,3.3,0.8,3.8c0,0,0-0.1,0.1,0c0,0,0-0.1,0-0.1
		c0.3,0.7,0.5,1.5,0.5,2.3c0,1.6-0.8,3.3-2.1,4c0,0,0-0.1,0-0.1c-0.2,0.1-0.4,0.1-0.5,0.2c-0.7,0.4-1.8,1.6-2.5,4.3l-3.4,13
		c-0.6,2.5-1.6,6.7-2.7,11.7l0,0c-1.4,6.1-0.8,8.8-0.4,9.9c0.7,0.8,1.2,1.8,1.2,3c0,1.2-0.5,2.3-1.3,3.1l0.1,0c0,0-1.8,1.5-2.7,5.9
		c-0.3,3.5-0.3,7.1-0.3,10.4v19.5c0,2,0.6,3,1,3.3c0.1,0.1,0,0.1,0.1,0.2c0.1,0,0,0.1,0,0.1l0,0c1,0.8,1.7,2,1.7,3.4
		c0,1.5-0.7,2.8-1.8,3.6l0.3,0c0,0-1.2,1-1.2,3.8V373c0,2,0.6,3,1,3.3c0.1,0.1,0,0.1,0.1,0.2c0.1,0,0,0.1,0,0.1l0,0
		c1,0.8,1.7,2,1.7,3.4c0,1.5-0.7,2.8-1.8,3.6l0.3,0c0,0-1.2,1-1.2,3.8v30.8c0,2,0.6,3,1,3.3c0.1,0.1,0,0.1,0.1,0.2
		c0.1,0,0,0.1,0,0.1l0,0c1,0.8,1.7,2,1.7,3.4c0,1.5-0.7,2.8-1.8,3.6l0.3,0c0,0-1.2,1-1.2,3.8v31.5c0,2,0.6,3,1,3.3
		c0.1,0.1,0,0.1,0.1,0.2c0.1,0,0,0.1,0,0.1l0,0c1,0.8,1.7,2,1.7,3.4c0,1.5-0.7,2.8-1.8,3.6l0.3,0c0,0-1.2,1-1.2,3.8v0.3
		c0,4.7,0.3,14.4,3,19.8c5.1,8.4,14,17.8,16.6,20.4c14.8,5.1,36.8,8.3,61.4,8.3c24.5,0,46.5-3.1,61.3-8.2
		c2.6-2.6,12.4-12.4,17.4-20.9c2-4.5,2.2-11.6,3.2-16.5V478c0-2.3-2-3.3-2-3.3l-0.1,0c-1.1-0.8-1.9-2.1-1.9-3.5
		c0-1.4,0.7-2.7,1.7-3.5l0,0c0,0,0,0,0,0c0.2-0.1,0.6-0.2,0.8-0.3c0.5-0.4,1.4-1.3,1.4-3.1v-32.1c0-2.3-2-3.3-2-3.3l-0.1,0
		c-1.1-0.8-1.9-2.1-1.9-3.5c0-1.4,0.7-2.7,1.7-3.5l0,0c0,0,0,0,0,0c0.2-0.1,0.6-0.2,0.8-0.3c0.5-0.4,1.4-1.3,1.4-3.1v-31.4
		c0-2.3-2-3.3-2-3.3l-0.1,0c-1.1-0.8-1.9-2.1-1.9-3.5c0-1.4,0.7-2.7,1.7-3.5l0,0c0,0,0,0,0,0c0.2-0.1,0.6-0.2,0.8-0.3
		c0.5-0.4,1.4-1.3,1.4-3.1v-31.4c0-2.3-2-3.3-2-3.3l-0.1,0c-1.1-0.8-1.9-2.1-1.9-3.5c0-1.4,0.7-2.7,1.7-3.5l0,0c0,0,0,0,0,0
		c0.2-0.1,0.6-0.2,0.8-0.3c0.5-0.4,1.4-1.3,1.4-3.1v-19.6l-0.4,0c0-3.6-0.4-7.4-0.7-11.2c-0.5-3-2-4.2-2.5-4.5c-0.1,0-0.2,0-0.3,0
		h-0.1v-0.2c-1-0.8-1.6-2-1.6-3.4c0-0.9,0.4-1.5,0.9-2.5h0c0,0,0-0.1,0-0.1c0-0.1,0.1-0.1,0.1-0.2c0.4-0.6,1.4-2.7,0.4-8.2
		c0-0.2-0.1-0.5-0.1-0.7c0-0.2-0.1-0.4-0.1-0.7c-0.8-4.2-1.7-7.8-2.3-10.4l-3.8-14.4c-0.8-3-2.2-4.4-3-5c-0.2-0.1-0.4-0.4-0.6-0.4
		c0,0,0,0,0,0h0c-1.1-1-1.8-2.1-1.8-3.6c0-0.8,0.2-1.6,0.6-2.3l0,0c0,0,1.3-1.8,0.8-4.1l-0.1-0.2c-0.5-6.5,1-12.6,2.5-16.7l5-11.2v0
		l1.2-2.3l-0.1,0c1.5-3.4,0.8-5.8,0.3-6.9c-0.1-0.2-0.2-0.4-0.3-0.5c0,0,0,0,0,0l0,0c-0.2-0.5-0.4-1.1-0.4-1.7
		c0-1.4,0.7-2.7,1.8-3.5l0,0c0,0,0,0,0,0c0.2-0.2,0.5-0.3,0.7-0.4c0.8-0.6,1.9-2,2.2-5.1l0.4,0c0.4-3.3,0.2-7.1,1.2-11.4v-18
		c0-2.3-2-3.3-2-3.3l-0.1,0c-1.1-0.8-1.9-2.1-1.9-3.5c0-1.4,0.7-2.7,1.7-3.5l0,0c0,0,0,0,0,0c0.2-0.1,0.6-0.2,0.8-0.3
		c0.5-0.4,1.4-1.3,1.4-3.1v-22.8v-2.6v-6.6c0-2.3-2-3.3-2-3.3l-0.1,0c-1.1-0.8-1.9-2.1-1.9-3.5c0-1.4,0.7-2.7,1.7-3.5l0,0
		c0,0,0.2,0,0.2,0C188.5,102.1,188.9,102,189,101.9z"/>
	<g>
		<path fill="#DDDDDD" d="M31.7,199.3c-0.4,0.9-1,2.9-0.1,5.6c0.3,0.8,0.8,1.5,1,2.1l1,1.7v0L38,219c1.6,4,3.3,10.5,2.8,17.5h0
			c0,0,0,0,0,0c0,0.2,0,0.3,0,0.4l0,0c-0.1,1.7,0.5,2.5,0.8,3.5h133.7c0,0,0,0,0,0l0,0h0c0.1,0,1.2-1.8,0.8-3.9l-0.1-0.2
			c-0.5-6.5,1-12.6,2.5-16.7l5-11.2v0l1.2-2.3l-0.1,0c1.5-3.4,0.8-5.8,0.4-6.8L31.7,199.3C31.7,199.4,31.7,199.3,31.7,199.3z"/>
		<path fill="#DDDDDD" d="M28.4,155.5l0.3-0.1c0,0-1.2,0.9-1.2,3.7V176c0,4.7,0.1,9,0.5,12.7c0.4,2.5,1.2,3.6,1.9,4.1
			c0.8,0.4,1.3,1.6,1.7,1.6H185c0.3,0,0.7-0.8,1.1-1.1l0,0c0,0,0,0,0,0c0.2-0.2,0.5-0.3,0.7-0.4c0.8-0.6,1.9-2,2.2-5.1l0.4,0
			c0.4-3.3,0.2-7.1,1.2-11.4v-18c0-2.3-2-3.3-2-3.3l-0.1,0.2c-0.4-0.3-1-1-1.3-1H29.6C29.3,154.4,28.9,155.1,28.4,155.5z"/>
		<path fill="#DDDDDD" d="M174,64.6c-0.2,0.1-0.3,0.3-0.3,0.3l0-0.1c-0.3,0.1-0.7,0-1,0c-0.5,0-1-0.3-1.4-0.3h-126
			c-0.4,0-0.9,0.2-1.4,0.2c-0.5,0-0.9-0.2-1.4-0.2h-3.4c-0.3,0-0.5,0.3-0.5,0.3l0,0l-4.3,2.4c-4.4,3.4-6.8,9-6.8,12.7v18.8
			c0,2.7,1.5,3.9,1.5,3.9l-0.1,0.1c0.3,0.2,0.4,0.9,0.6,0.9h157.7c0.3,0,0.6-0.8,1-1.1l0-0.1c0,0,0,0,0.1,0c0.2-0.1,0.6-0.2,0.8-0.3
			c0.5-0.4,1.5-1.3,1.5-3.1V83.2c-1-2.6-2.1-13.2-9.8-17.5l-2.6-1.3h-4C174.1,64.4,174.1,64.6,174,64.6z"/>
		<path fill="#DDDDDD" d="M28.8,109.3l0.3-0.1c0,0-1.5,1.3-1.5,4.4v5.7v2.6v22.8c0,2,0.6,3,1,3.3c0.1,0.1,0,0.1,0.1,0.2
			c0.1,0,0,0.1,0,0.1l0,0c0.4,0.3,0.7,0.2,1,1.2h157.5c0.3-1,0.7-0.9,1.1-1.2l0,0c0,0,0,0,0.1,0c0.2-0.1,0.6-0.2,0.8-0.3
			c0.5-0.4,1.5-1.3,1.5-3.1v-22.8v-2.6v-6.6c0-2.3-2-3.3-2-3.3l-0.1,0.3c-0.5-0.4-1.1-1.1-1.4-1.1H29.7
			C29.5,108.4,29.1,109,28.8,109.3z"/>
		<path fill="#DDDDDD" d="M40,246.9c0,0,0-0.2,0-0.2c-0.2,0.1-0.4,0.1-0.5,0.2c-0.7,0.4-1.8,1.5-2.5,4.3l-3.4,13
			c-0.6,2.5-1.6,6.7-2.7,11.7l0,0c-1.4,6.1-0.8,8.8-0.4,9.9c0.2,0.2,0.4,0.6,0.5,0.6h154.7c0,0,0.1-0.1,0.1-0.2l0,0c0,0,0,0,0,0
			c0-0.1,0.1-0.1,0.1-0.2c0.4-0.6,1.4-2.7,0.4-8.1c0-0.2-0.1-0.5-0.1-0.7c0-0.2-0.1-0.4-0.1-0.6c-0.8-4.2-1.7-7.8-2.3-10.4
			l-3.8-14.4c-0.8-3-2.2-4.4-3-5c-0.2-0.1-0.4-0.4-0.6-0.4c0,0,0,0,0,0h0c-0.4,0-0.7-1-1-1H41.5C41.1,246.4,40.6,246.6,40,246.9z"/>
		<path fill="#DDDDDD" d="M167.5,60.4c-0.6,0-1.4-1.7-2.6-2.3l-32.9-16.9l-0.6-0.7V14.4h-0.7h-3.9h-10.5h-5.2h-5.2h-5.2H90.2h-5.7
			V41l-34,17.7c-0.8,0.4-1.2,1.7-1.6,1.7H167.5z"/>
		<path fill="#DDDDDD" d="M30.4,292L30.4,292c0.1-0.1-1.8,1.4-2.6,5.8c-0.3,3.5-0.3,7-0.3,10.4v19.5c0,2,0.6,3,1,3.3
			c0.1,0.1,0,0.1,0.1,0.2c0.1,0,0,0.1,0,0.1l0,0c0.4,0.3,0.7,0.1,1,1.1h157.5c0.3-1,0.7-0.9,1.1-1.2l0,0c0,0,0,0,0.1,0
			c0.2-0.1,0.6-0.2,0.8-0.3c0.5-0.4,1.5-1.3,1.5-3.1v-19.6l-0.4,0c0-3.6-0.4-7.4-0.7-11.2c-0.5-3-2-4.2-2.5-4.5c-0.1,0-0.3,0-0.4,0
			h0v-0.1c0-0.3-0.6-0.9-0.8-0.9H31C30.8,291.4,30.6,291.8,30.4,292z"/>
		<path fill="#DDDDDD" d="M28.4,428.7l0.3,0.1c0,0-1.2,1.1-1.2,3.9v31.5c0,2,0.6,3,1,3.3c0.1,0.1,0,0.1,0.1,0.2c0.1,0,0,0.1,0,0.1
			l0-0.2c0.4,0.3,0.7-0.1,1,0.9h157.5c0.3-1,0.7-0.7,1.1-1l0,0.1c0,0,0,0,0.1,0c0.2-0.1,0.6-0.2,0.8-0.3c0.5-0.4,1.5-1.3,1.5-3.1
			v-32.1c0-2.3-2-3.3-2-3.3l-0.1-0.1c-0.4-0.3-1-1.3-1.3-1.3H29.6C29.3,427.4,28.9,428.4,28.4,428.7z"/>
		<path fill="#DDDDDD" d="M188.5,474.7l-0.1,0c-0.4-0.3-1-1.2-1.3-1.2H29.6c-0.3,0-0.7,0.9-1.2,1.3l0.3,0c0,0-1.2,1.1-1.2,3.8v0.3
			c0,4.7,0.3,14.4,3,19.8c5.1,8.4,14,17.8,16.6,20.4c14.8,5.1,36.8,8.3,61.4,8.3c24.5,0,46.5-3.1,61.3-8.2
			c2.6-2.6,12.4-12.4,17.4-20.9c2-4.5,2.2-11.6,3.2-16.5V478C190.5,475.7,188.5,474.7,188.5,474.7z"/>
		<path fill="#DDDDDD" d="M28.4,338.5l0.3-0.1c0,0-1.2,1-1.2,3.7V373c0,2,0.6,3,1,3.3c0.1,0.1,0,0.1,0.1,0.2c0.1,0,0,0.1,0,0.1
			l0-0.1c0.4,0.3,0.7,0,1,1h157.5c0.3-1,0.7-0.8,1.1-1.1l0,0c0,0,0,0,0.1,0c0.2-0.1,0.6-0.2,0.8-0.3c0.5-0.4,1.5-1.3,1.5-3.1v-31.4
			c0-2.3-2-3.3-2-3.3l-0.1,0.2c-0.4-0.3-1-1-1.3-1H29.6C29.3,337.4,28.9,338.1,28.4,338.5z"/>
		<path fill="#DDDDDD" d="M28.4,383.6l0.3,0c0,0-1.2,1-1.2,3.8v30.8c0,2,0.6,3,1,3.3c0.1,0.1,0,0.1,0.1,0.2c0.1,0,0,0.1,0,0.1l0-0.2
			c0.4,0.3,0.7-0.1,1,0.9h157.5c0.3-1,0.7-0.6,1.1-1l0,0.1c0,0,0,0.1,0.1,0c0.2-0.1,0.6-0.2,0.8-0.3c0.5-0.4,1.5-1.3,1.5-3.1v-31.4
			c0-2.3-2-3.3-2-3.3l-0.1,0.1c-0.4-0.3-1-1.1-1.3-1.1H29.6C29.3,382.4,28.9,383.3,28.4,383.6z"/>
	</g>
	<g>
		<path fill="#DF3025" d="M31.7,199.3c-0.4,0.9-1,2.9-0.1,5.6c0.3,0.8,0.8,1.5,1,2.1l1,1.7v0L38,219c1.6,4,3.3,10.5,2.8,17.5h0
			c0,0,0,0,0,0c0,0.2,0,0.3,0,0.4l0,0c-0.1,1.7,0.5,2.5,0.8,3.5h133.7c0,0,0,0,0,0l0,0h0c0.1,0,1.2-1.8,0.8-3.9l-0.1-0.2
			c-0.5-6.5,1-12.6,2.5-16.7l5-11.2v0l1.2-2.3l-0.1,0c1.5-3.4,0.8-5.8,0.4-6.8L31.7,199.3C31.7,199.4,31.7,199.3,31.7,199.3z"/>
		<path fill="#DF3025" d="M28.4,155.5l0.3-0.1c0,0-1.2,0.9-1.2,3.7V176c0,4.7,0.1,9,0.5,12.7c0.4,2.5,1.2,3.6,1.9,4.1
			c0.8,0.4,1.3,1.6,1.7,1.6H185c0.3,0,0.7-0.8,1.1-1.1l0,0c0,0,0,0,0,0c0.2-0.2,0.5-0.3,0.7-0.4c0.8-0.6,1.9-2,2.2-5.1l0.4,0
			c0.4-3.3,0.2-7.1,1.2-11.4v-18c0-2.3-2-3.3-2-3.3l-0.1,0.2c-0.4-0.3-1-1-1.3-1H29.6C29.3,154.4,28.9,155.1,28.4,155.5z"/>
		<path fill="#DF3025" d="M174,64.6c-0.2,0.1-0.3,0.3-0.3,0.3l0-0.1c-0.3,0.1-0.7,0-1,0c-0.5,0-1-0.3-1.4-0.3h-126
			c-0.4,0-0.9,0.2-1.4,0.2c-0.5,0-0.9-0.2-1.4-0.2h-3.4c-0.3,0-0.5,0.3-0.5,0.3l0,0l-4.3,2.4c-4.4,3.4-6.8,9-6.8,12.7v18.8
			c0,2.7,1.5,3.9,1.5,3.9l-0.1,0.1c0.3,0.2,0.4,0.9,0.6,0.9h157.7c0.3,0,0.6-0.8,1-1.1l0-0.1c0,0,0,0,0.1,0c0.2-0.1,0.6-0.2,0.8-0.3
			c0.5-0.4,1.5-1.3,1.5-3.1V83.2c-1-2.6-2.1-13.2-9.8-17.5l-2.6-1.3h-4C174.1,64.4,174.1,64.6,174,64.6z"/>
		<path fill="#DF3025" d="M28.8,109.3l0.3-0.1c0,0-1.5,1.3-1.5,4.4v5.7v2.6v22.8c0,2,0.6,3,1,3.3c0.1,0.1,0,0.1,0.1,0.2
			c0.1,0,0,0.1,0,0.1l0,0c0.4,0.3,0.7,0.2,1,1.2h157.5c0.3-1,0.7-0.9,1.1-1.2l0,0c0,0,0,0,0.1,0c0.2-0.1,0.6-0.2,0.8-0.3
			c0.5-0.4,1.5-1.3,1.5-3.1v-22.8v-2.6v-6.6c0-2.3-2-3.3-2-3.3l-0.1,0.3c-0.5-0.4-1.1-1.1-1.4-1.1H29.7
			C29.5,108.4,29.1,109,28.8,109.3z"/>
		<path fill="#DF3025" d="M40,246.9c0,0,0-0.2,0-0.2c-0.2,0.1-0.4,0.1-0.5,0.2c-0.7,0.4-1.8,1.5-2.5,4.3l-3.4,13
			c-0.6,2.5-1.6,6.7-2.7,11.7l0,0c-1.4,6.1-0.8,8.8-0.4,9.9c0.2,0.2,0.4,0.6,0.5,0.6h154.7c0,0,0.1-0.1,0.1-0.2l0,0c0,0,0,0,0,0
			c0-0.1,0.1-0.1,0.1-0.2c0.4-0.6,1.4-2.7,0.4-8.1c0-0.2-0.1-0.5-0.1-0.7c0-0.2-0.1-0.4-0.1-0.6c-0.8-4.2-1.7-7.8-2.3-10.4
			l-3.8-14.4c-0.8-3-2.2-4.4-3-5c-0.2-0.1-0.4-0.4-0.6-0.4c0,0,0,0,0,0h0c-0.4,0-0.7-1-1-1H41.5C41.1,246.4,40.6,246.6,40,246.9z"/>
		<path fill="#DF3025" d="M30.4,292L30.4,292c0.1-0.1-1.8,1.4-2.6,5.8c-0.3,3.5-0.3,7-0.3,10.4v19.5c0,2,0.6,3,1,3.3
			c0.1,0.1,0,0.1,0.1,0.2c0.1,0,0,0.1,0,0.1l0,0c0.4,0.3,0.7,0.1,1,1.1h157.5c0.3-1,0.7-0.9,1.1-1.2l0,0c0,0,0,0,0.1,0
			c0.2-0.1,0.6-0.2,0.8-0.3c0.5-0.4,1.5-1.3,1.5-3.1v-19.6l-0.4,0c0-3.6-0.4-7.4-0.7-11.2c-0.5-3-2-4.2-2.5-4.5c-0.1,0-0.3,0-0.4,0
			h0v-0.1c0-0.3-0.6-0.9-0.8-0.9H31C30.8,291.4,30.6,291.8,30.4,292z"/>
		<path fill="#DF3025" d="M28.4,428.7l0.3,0.1c0,0-1.2,1.1-1.2,3.9v31.5c0,2,0.6,3,1,3.3c0.1,0.1,0,0.1,0.1,0.2c0.1,0,0,0.1,0,0.1
			l0-0.2c0.4,0.3,0.7-0.1,1,0.9h157.5c0.3-1,0.7-0.7,1.1-1l0,0.1c0,0,0,0,0.1,0c0.2-0.1,0.6-0.2,0.8-0.3c0.5-0.4,1.5-1.3,1.5-3.1
			v-32.1c0-2.3-2-3.3-2-3.3l-0.1-0.1c-0.4-0.3-1-1.3-1.3-1.3H29.6C29.3,427.4,28.9,428.4,28.4,428.7z"/>
		<path fill="#DF3025" d="M188.5,474.7l-0.1,0c-0.4-0.3-1-1.2-1.3-1.2H29.6c-0.3,0-0.7,0.9-1.2,1.3l0.3,0c0,0-1.2,1.1-1.2,3.8v0.3
			c0,4.7,0.3,14.4,3,19.8c5.1,8.4,14,17.8,16.6,20.4c14.8,5.1,36.8,8.3,61.4,8.3c24.5,0,46.5-3.1,61.3-8.2
			c2.6-2.6,12.4-12.4,17.4-20.9c2-4.5,2.2-11.6,3.2-16.5V478C190.5,475.7,188.5,474.7,188.5,474.7z"/>
		<path fill="#DF3025" d="M28.4,338.5l0.3-0.1c0,0-1.2,1-1.2,3.7V373c0,2,0.6,3,1,3.3c0.1,0.1,0,0.1,0.1,0.2c0.1,0,0,0.1,0,0.1
			l0-0.1c0.4,0.3,0.7,0,1,1h157.5c0.3-1,0.7-0.8,1.1-1.1l0,0c0,0,0,0,0.1,0c0.2-0.1,0.6-0.2,0.8-0.3c0.5-0.4,1.5-1.3,1.5-3.1v-31.4
			c0-2.3-2-3.3-2-3.3l-0.1,0.2c-0.4-0.3-1-1-1.3-1H29.6C29.3,337.4,28.9,338.1,28.4,338.5z"/>
		<path fill="#DF3025" d="M28.4,383.6l0.3,0c0,0-1.2,1-1.2,3.8v30.8c0,2,0.6,3,1,3.3c0.1,0.1,0,0.1,0.1,0.2c0.1,0,0,0.1,0,0.1l0-0.2
			c0.4,0.3,0.7-0.1,1,0.9h157.5c0.3-1,0.7-0.6,1.1-1l0,0.1c0,0,0,0.1,0.1,0c0.2-0.1,0.6-0.2,0.8-0.3c0.5-0.4,1.5-1.3,1.5-3.1v-31.4
			c0-2.3-2-3.3-2-3.3l-0.1,0.1c-0.4-0.3-1-1.1-1.3-1.1H29.6C29.3,382.4,28.9,383.3,28.4,383.6z"/>
	</g>
	<rect x="80.5" y="16.4" fill="#F2F2F2" width="56" height="16"/>
	<rect x="80.5" y="16.4" fill="#CCCCCC" width="56" height="16"/>
	<path fill="#2F3B46" d="M132.1,0.4H84.8c-2.2,0-4.3,2-4.3,4.2v3.1v5.1v3.6h4.3h47.3h4.4v-3.6V7.7V4.6
		C136.5,2.4,134.3,0.4,132.1,0.4z"/>
	<path opacity="0.15" fill="#FFFFFF" d="M188.2,102.2c0.2-0.1,0.1-0.2,0.3-0.3c0.5-0.4,1-1.3,1-3.1V83.2c0-2.6-1.6-13.2-9.3-17.5
		l-2.1-1.3h-0.6c-1.2,0-2.2,0-2.9,0h-0.6c0,0,0,0.1-0.1,0.1c-0.2,0.1-0.2,0.2-0.3,0.2l0,0c0,0,0,0,0,0l0,0c-0.3,0.1-0.7,0-1,0
		c-0.2,0-0.4,0.1-0.6,0.1c-0.2,0-0.3-0.1-0.5-0.1c-0.1-0.1-0.2-0.3-0.3-0.3h-0.6c-0.9,0-1.7-1.2-2.1-2.2l0,0l0,0
		c-0.1-0.2-0.2-0.5-0.2-0.7c-0.4-0.9-1.3-2.5-3.4-3.6l-14.4-7.4c18.2,16.1,17.8,42.7,17.8,42.7l-3.1,91.2c-3,13.7-9.5,24.8-9.5,24.8
		c-8.8,23.7,1.4,46.6,1.4,46.6c5.1,15.3,8.2,45.9,8.2,45.9v185.4c0,20.4-22.6,36.9-24.6,38.3c11.2-1.4,21-3.6,28.9-6.3
		c2.6-2.6,12-12.4,16.9-20.9c2-4.5,2.8-11.6,2.8-16.5V478c0-2.3-1.5-3.3-1.5-3.3l0.1,0c-0.2-0.2-0.4-0.4-0.6-0.6
		c0-0.1-0.1-0.1-0.1-0.2c-0.6-0.8-1-1.7-1-2.8c0-1.4,0.7-2.7,1.8-3.5l0,0l0,0l0,0c0,0,0,0,0.1,0c0.2-0.1,0.3-0.2,0.5-0.3
		c0.4-0.4,0.8-1.1,0.9-2.5c0-0.2-0.2-0.4-0.2-0.6V432c0-2.3-1.5-3.3-1.5-3.3l0.1,0c-0.2-0.2-0.4-0.4-0.6-0.6c0-0.1-0.1-0.1-0.1-0.2
		c-0.6-0.8-1-1.7-1-2.8c0-1.4,0.7-2.7,1.8-3.5l0,0l0,0l0,0c0,0,0,0,0.1,0c0.2-0.1,0.3-0.2,0.5-0.3c0.4-0.4,0.8-1.1,0.9-2.5
		c0-0.2-0.2-0.4-0.2-0.6v-31.4c0-2.3-1.5-3.3-1.5-3.3l0.1,0c-0.2-0.2-0.4-0.4-0.6-0.6c0-0.1-0.1-0.1-0.1-0.2c-0.6-0.8-1-1.7-1-2.8
		c0-1.4,0.7-2.7,1.8-3.5l0,0l0,0l0,0c0,0,0,0,0.1,0c0.2-0.1,0.3-0.2,0.5-0.3c0.4-0.4,0.8-1.1,0.9-2.5c0-0.2-0.2-0.4-0.2-0.6v-31.4
		c0-2.3-1.5-3.3-1.5-3.3l0.1,0c-0.2-0.2-0.4-0.4-0.6-0.6c0-0.1-0.1-0.1-0.1-0.2c-0.6-0.8-1-1.7-1-2.8c0-1.4,0.7-2.7,1.8-3.5l0,0l0,0
		l0,0c0,0,0,0,0.1,0c0.2-0.1,0.3-0.2,0.5-0.3c0.4-0.4,0.8-1.1,0.9-2.5c0-0.2-0.2-0.4-0.2-0.6v-19.6l0.1,0c0-3.6-0.1-7.4-0.5-11.2
		c-0.5-3-1.8-4.2-2.3-4.5c-0.1,0-0.1,0-0.1,0h-0.1v-0.3c0-0.2-0.3-0.3-0.5-0.5c-0.1-0.1-0.1-0.1-0.1-0.2c-0.6-0.7-0.9-1.7-0.9-2.7
		c0-0.9,0.3-1.6,0.7-2.3c0,0,0.1-0.1,0.1-0.2c0,0,0,0,0,0c0,0,0,0,0.1,0c0-0.1,0.1-0.1,0.1-0.2c0.3-0.4,0.8-1.5,0.8-3.9
		c0-1.1-0.1-2.5-0.4-4.2c0-0.2-0.1-0.5-0.1-0.7c0-0.2-0.1-0.4-0.1-0.6c-0.4-2.1-0.8-4-1.2-5.8c-0.4-1.8-0.8-3.3-1.1-4.6l-3.8-14.4
		c-0.8-3-2.2-4.4-3-5c-0.2-0.1-0.4-0.2-0.6-0.4c0,0,0,0,0,0h0c-0.1,0-0.1-0.3-0.2-0.3c-0.2-0.1-0.3-0.4-0.5-0.5
		c-0.7-0.7-1.2-1.8-1.2-2.9c0-0.8,0.2-1.5,0.6-2.2l0,0l0,0l0,0c0,0,0,0,0,0c0.1,0,0.8-1.2,0.9-2.7c0,0,0,0,0-0.1c0-0.1,0-0.2,0-0.2
		c0-0.1,0-0.1,0-0.2c0-0.1,0-0.1,0-0.2c0-0.1,0-0.1,0-0.2c0-0.1,0-0.3-0.1-0.4l-0.1-0.2c-0.1-0.8-0.1-1.6-0.1-2.4
		c0-5.6,1.3-10.7,2.6-14.3l5-11.2v0l1.2-2.3l0,0c0.6-1.4,0.9-2.8,0.9-3.9c0-1.4-0.3-2.4-0.6-3c-0.1-0.2-0.2-0.4-0.3-0.5c0,0,0,0,0,0
		l0,0c-0.2-0.5-0.4-1.2-0.4-1.8c0-1.4,0.7-2.9,1.8-3.6l0,0.1c0,0,0,0,0,0c0.2-0.2,0.5-0.3,0.7-0.4c0.8-0.6,1.9-2,2.2-5.1l0.1,0
		c0.3-2.5,0.4-5.2,0.5-8.3c0.1-1,0-2,0-3.1v-18c0-2.3-1.5-3.3-1.5-3.3l0.1,0c-0.2-0.2-0.4-0.4-0.6-0.6c0-0.1-0.1-0.1-0.1-0.2
		c-0.6-0.8-1-1.7-1-2.8c0-1.4,0.7-2.7,1.8-3.5l0,0l0,0l0,0c0,0,0,0,0.1,0c0.2-0.1,0.3-0.2,0.5-0.3c0.4-0.4,0.8-1.1,0.9-2.5
		c0-0.2-0.2-0.4-0.2-0.6v-32.1c0-2.3-1.5-3.3-1.5-3.3l0.1,0c0,0,0,0,0,0l0-0.2c-0.5-0.4-0.9-0.6-1.2-1.6h-0.1
		c-0.3,0-0.4-1.1-0.4-1.8c0-0.9,0.3-1.2,0.7-2.2h0.1c0.3-1,0.6-0.8,1-1.1L188.2,102.2C188.2,102.2,188.2,102.2,188.2,102.2z"/>
</g>
<g>
</g>
<g>
</g>
<g>
</g>
<g>
</g>
<g>
</g>
<g>
</g>
<g>
</g>
<g>
</g>
<g>
</g>
<g>
</g>
<g>
</g>
<g>
</g>
<g>
</g>
<g>
</g>
<g>
</g>
</svg>
