<?xml version="1.0" encoding="utf-8"?>
<!-- Generator: Adobe Illustrator 20.1.0, SVG Export Plug-In . SVG Version: 6.00 Build 0)  -->
<!DOCTYPE svg PUBLIC "-//W3C//DTD SVG 1.1//EN" "http://www.w3.org/Graphics/SVG/1.1/DTD/svg11.dtd">
<svg version="1.1" id="Layer_1" xmlns="http://www.w3.org/2000/svg" xmlns:xlink="http://www.w3.org/1999/xlink" x="0px" y="0px"
	 viewBox="0 0 500 200" style="enable-background:new 0 0 500 200;" xml:space="preserve">
<style type="text/css">
	.st0{fill:#D1282C;}
	.st1{fill:none;stroke:#D1292D;stroke-width:7.2841;stroke-miterlimit:10;}
	.st2{fill:#FDBD10;}
	.st3{fill:none;stroke:#FCBD15;stroke-width:1.8214;stroke-miterlimit:10;}
	.st4{fill:#4D4D4F;}
</style>
<g>
	<path class="st0" d="M41.6,147.7v-66h26.9c2.7,0,5.1,0.6,7.4,1.7c2.3,1.1,4.3,2.7,5.9,4.6c1.6,1.9,2.9,4,3.9,6.4
		c0.9,2.4,1.4,4.8,1.4,7.3c0,2.6-0.4,5.1-1.3,7.5c-0.9,2.4-2.1,4.6-3.7,6.4c-1.6,1.9-3.5,3.3-5.7,4.5c-2.2,1.1-4.6,1.7-7.3,1.7H43.5
		v25.9H41.6z M43.5,119.9h25.7c2.5,0,4.7-0.5,6.7-1.6c2-1.1,3.7-2.4,5.1-4.2c1.4-1.7,2.4-3.7,3.2-5.9c0.7-2.2,1.1-4.4,1.1-6.6
		c0-2.4-0.4-4.6-1.3-6.8c-0.9-2.2-2.1-4.1-3.6-5.8c-1.5-1.7-3.3-3-5.3-4c-2-1-4.2-1.5-6.5-1.5h-25V119.9z"/>
	<path class="st1" d="M41.6,147.7v-66h26.9c2.7,0,5.1,0.6,7.4,1.7c2.3,1.1,4.3,2.7,5.9,4.6c1.6,1.9,2.9,4,3.9,6.4
		c0.9,2.4,1.4,4.8,1.4,7.3c0,2.6-0.4,5.1-1.3,7.5c-0.9,2.4-2.1,4.6-3.7,6.4c-1.6,1.9-3.5,3.3-5.7,4.5c-2.2,1.1-4.6,1.7-7.3,1.7H43.5
		v25.9H41.6z M43.5,119.9h25.7c2.5,0,4.7-0.5,6.7-1.6c2-1.1,3.7-2.4,5.1-4.2c1.4-1.7,2.4-3.7,3.2-5.9c0.7-2.2,1.1-4.4,1.1-6.6
		c0-2.4-0.4-4.6-1.3-6.8c-0.9-2.2-2.1-4.1-3.6-5.8c-1.5-1.7-3.3-3-5.3-4c-2-1-4.2-1.5-6.5-1.5h-25V119.9z"/>
	<polygon class="st2" points="290.3,184.6 290.3,186 276.1,186 276.1,164.8 290,164.8 290,166.2 277.7,166.2 277.7,174.5 
		288.4,174.5 288.4,175.8 277.7,175.8 277.7,184.6 	"/>
	<polygon class="st3" points="290.3,184.6 290.3,186 276.1,186 276.1,164.8 290,164.8 290,166.2 277.7,166.2 277.7,174.5 
		288.4,174.5 288.4,175.8 277.7,175.8 277.7,184.6 	"/>
	<polygon class="st2" points="293.7,164.8 301.8,184.1 309.9,164.8 311.5,164.8 302.5,186 301.1,186 292.1,164.8 	"/>
	<polygon class="st3" points="293.7,164.8 301.8,184.1 309.9,164.8 311.5,164.8 302.5,186 301.1,186 292.1,164.8 	"/>
	<polygon class="st2" points="328.8,184.6 328.8,186 314.7,186 314.7,164.8 328.6,164.8 328.6,166.2 316.2,166.2 316.2,174.5 
		327,174.5 327,175.8 316.2,175.8 316.2,184.6 	"/>
	<polygon class="st3" points="328.8,184.6 328.8,186 314.7,186 314.7,164.8 328.6,164.8 328.6,166.2 316.2,166.2 316.2,174.5 
		327,174.5 327,175.8 316.2,175.8 316.2,184.6 	"/>
	<path class="st2" d="M333.1,186v-21.2h8.8c0.9,0,1.7,0.2,2.5,0.6c0.8,0.4,1.4,0.9,1.9,1.5c0.5,0.6,1,1.3,1.3,2.1
		c0.3,0.8,0.5,1.6,0.5,2.4c0,0.8-0.1,1.5-0.4,2.3c-0.2,0.7-0.6,1.4-1,2c-0.4,0.6-1,1.1-1.6,1.4c-0.6,0.4-1.3,0.6-2,0.7l5.3,8.2h-1.8
		l-5.1-8h-6.9v8H333.1z M334.6,176.6h7.4c0.7,0,1.3-0.2,1.8-0.5c0.6-0.3,1-0.7,1.4-1.2c0.4-0.5,0.7-1,0.9-1.7
		c0.2-0.6,0.3-1.3,0.3-1.9c0-0.7-0.1-1.3-0.4-2c-0.3-0.6-0.6-1.2-1-1.7c-0.4-0.5-0.9-0.9-1.5-1.1c-0.6-0.3-1.2-0.4-1.8-0.4h-7.2
		V176.6z"/>
	<path class="st3" d="M333.1,186v-21.2h8.8c0.9,0,1.7,0.2,2.5,0.6c0.8,0.4,1.4,0.9,1.9,1.5c0.5,0.6,1,1.3,1.3,2.1
		c0.3,0.8,0.5,1.6,0.5,2.4c0,0.8-0.1,1.5-0.4,2.3c-0.2,0.7-0.6,1.4-1,2c-0.4,0.6-1,1.1-1.6,1.4c-0.6,0.4-1.3,0.6-2,0.7l5.3,8.2h-1.8
		l-5.1-8h-6.9v8H333.1z M334.6,176.6h7.4c0.7,0,1.3-0.2,1.8-0.5c0.6-0.3,1-0.7,1.4-1.2c0.4-0.5,0.7-1,0.9-1.7
		c0.2-0.6,0.3-1.3,0.3-1.9c0-0.7-0.1-1.3-0.4-2c-0.3-0.6-0.6-1.2-1-1.7c-0.4-0.5-0.9-0.9-1.5-1.1c-0.6-0.3-1.2-0.4-1.8-0.4h-7.2
		V176.6z"/>
	<polygon class="st2" points="351.1,164.8 358.5,176.5 366,164.8 367.6,164.8 359.3,178 359.3,186 357.8,186 357.8,177.9 
		349.4,164.8 	"/>
	<polygon class="st3" points="351.1,164.8 358.5,176.5 366,164.8 367.6,164.8 359.3,178 359.3,186 357.8,186 357.8,177.9 
		349.4,164.8 	"/>
	<polygon class="st2" points="385.6,166.2 377.9,166.2 377.9,186 376.3,186 376.3,166.2 368.6,166.2 368.6,164.8 385.6,164.8 	"/>
	<path class="st4" d="M154.2,102.6c-1.5-4-3.6-7.6-6.3-10.7c-2.7-3.2-5.9-5.7-9.7-7.7c-3.8-2-7.9-2.9-12.5-2.9
		c-4.3,0-8.4,0.9-12.1,2.7c-3.7,1.8-7,4.3-9.8,7.4c-2.8,3.1-4.9,6.7-6.5,10.7c-1.6,4-2.4,8.2-2.4,12.6c0,4.2,0.7,8.3,2.2,12.4
		c1.5,4,3.6,7.6,6.3,10.7c2.7,3.1,6,5.6,9.7,7.5c3.7,1.9,7.9,2.9,12.5,2.9c4.3,0,8.4-0.9,12.1-2.7c3.7-1.8,7-4.3,9.7-7.3
		c2.8-3.1,4.9-6.6,6.5-10.6c1.6-4,2.4-8.3,2.4-12.7C156.4,110.6,155.7,106.6,154.2,102.6z M125.9,140.7c-12.3,0-22.3-11.2-22.3-25.1
		c0-13.9,10-25.1,22.3-25.1c12.3,0,22.3,11.2,22.3,25.1C148.2,129.5,138.2,140.7,125.9,140.7z"/>
	<polygon class="st3" points="385.6,166.2 377.9,166.2 377.9,186 376.3,186 376.3,166.2 368.6,166.2 368.6,164.8 385.6,164.8 	"/>
	<polygon class="st2" points="405.5,164.8 405.5,186 403.9,186 403.9,175.9 390.6,175.9 390.6,186 389,186 389,164.8 390.6,164.8 
		390.6,174.5 403.9,174.5 403.9,164.8 	"/>
	<polygon class="st3" points="405.5,164.8 405.5,186 403.9,186 403.9,175.9 390.6,175.9 390.6,186 389,186 389,164.8 390.6,164.8 
		390.6,174.5 403.9,174.5 403.9,164.8 	"/>
	<rect x="411.1" y="164.8" class="st2" width="1.5" height="21.2"/>
	<rect x="411.1" y="164.8" class="st3" width="1.5" height="21.2"/>
	<polygon class="st2" points="419.7,167.7 419.7,186 418.2,186 418.2,164.8 419.4,164.8 434.2,183.5 434.2,164.8 435.8,164.8 
		435.8,186 434.4,186 	"/>
	<polygon class="st3" points="419.7,167.7 419.7,186 418.2,186 418.2,164.8 419.4,164.8 434.2,183.5 434.2,164.8 435.8,164.8 
		435.8,186 434.4,186 	"/>
	<path class="st2" d="M457,182.7c-2,2.3-4.4,3.4-7.1,3.4c-1.4,0-2.8-0.3-4-0.9c-1.2-0.6-2.3-1.4-3.1-2.4c-0.9-1-1.6-2.2-2.1-3.5
		c-0.5-1.3-0.7-2.6-0.7-3.9c0-1.4,0.2-2.7,0.7-4c0.5-1.3,1.2-2.4,2-3.4c0.9-1,1.9-1.8,3.1-2.4c1.2-0.6,2.5-0.9,3.9-0.9
		c1.1,0,2,0.1,2.9,0.3c0.8,0.2,1.6,0.5,2.3,1c0.7,0.4,1.2,0.9,1.7,1.5c0.5,0.6,0.9,1.2,1.2,1.9l-1.2,0.7c-0.7-1.4-1.7-2.4-2.9-3
		c-1.2-0.6-2.5-0.9-4-0.9c-1.3,0-2.4,0.3-3.4,0.8c-1,0.5-1.9,1.2-2.6,2.1c-0.7,0.9-1.3,1.9-1.6,3c-0.4,1.1-0.6,2.3-0.6,3.4
		c0,1.3,0.2,2.4,0.7,3.6c0.4,1.1,1,2.1,1.8,3c0.8,0.9,1.7,1.5,2.7,2c1,0.5,2.2,0.8,3.3,0.8c1.3,0,2.5-0.3,3.7-0.9
		c1.1-0.6,2.3-1.5,3.4-2.8v-4.1h-4.8v-1.2h6.1V186H457V182.7z"/>
	<path class="st3" d="M457,182.7c-2,2.3-4.4,3.4-7.1,3.4c-1.4,0-2.8-0.3-4-0.9c-1.2-0.6-2.3-1.4-3.1-2.4c-0.9-1-1.6-2.2-2.1-3.5
		c-0.5-1.3-0.7-2.6-0.7-3.9c0-1.4,0.2-2.7,0.7-4c0.5-1.3,1.2-2.4,2-3.4c0.9-1,1.9-1.8,3.1-2.4c1.2-0.6,2.5-0.9,3.9-0.9
		c1.1,0,2,0.1,2.9,0.3c0.8,0.2,1.6,0.5,2.3,1c0.7,0.4,1.2,0.9,1.7,1.5c0.5,0.6,0.9,1.2,1.2,1.9l-1.2,0.7c-0.7-1.4-1.7-2.4-2.9-3
		c-1.2-0.6-2.5-0.9-4-0.9c-1.3,0-2.4,0.3-3.4,0.8c-1,0.5-1.9,1.2-2.6,2.1c-0.7,0.9-1.3,1.9-1.6,3c-0.4,1.1-0.6,2.3-0.6,3.4
		c0,1.3,0.2,2.4,0.7,3.6c0.4,1.1,1,2.1,1.8,3c0.8,0.9,1.7,1.5,2.7,2c1,0.5,2.2,0.8,3.3,0.8c1.3,0,2.5-0.3,3.7-0.9
		c1.1-0.6,2.3-1.5,3.4-2.8v-4.1h-4.8v-1.2h6.1V186H457V182.7z"/>
	<polygon class="st0" points="212.1,83.6 186.8,83.6 186.8,147.7 185,147.7 185,83.6 159.7,83.6 159.7,81.7 212.1,81.7 	"/>
	<polygon class="st1" points="212.1,83.6 186.8,83.6 186.8,147.7 185,147.7 185,83.6 159.7,83.6 159.7,81.7 212.1,81.7 	"/>
	<polygon class="st0" points="223.6,147.7 223.6,81.7 225.5,81.7 225.5,145.8 266.9,145.8 266.9,147.7 	"/>
	<polygon class="st1" points="223.6,147.7 223.6,81.7 225.5,81.7 225.5,145.8 266.9,145.8 266.9,147.7 	"/>
	<path class="st0" d="M299.6,146.3c5,0,9.1-0.9,12.3-2.8c3.3-1.9,5.8-4.3,7.7-7.2c1.9-3,3.2-6.4,4-10.1c0.8-3.8,1.2-7.6,1.2-11.4
		v-33h1.9v33c0,4.4-0.5,8.6-1.3,12.6c-0.9,4-2.4,7.6-4.5,10.6c-2.1,3.1-4.9,5.5-8.3,7.4c-3.4,1.9-7.7,2.8-12.8,2.8
		c-5.2,0-9.5-1-13-2.9c-3.5-1.9-6.2-4.5-8.3-7.6c-2.1-3.2-3.5-6.7-4.4-10.7c-0.9-4-1.3-8.1-1.3-12.2v-33h1.9v33
		c0,4,0.4,7.8,1.2,11.6c0.8,3.8,2.1,7.2,4,10.1c1.9,3,4.5,5.4,7.7,7.2C290.6,145.4,294.7,146.3,299.6,146.3"/>
	<path class="st1" d="M299.6,146.3c5,0,9.1-0.9,12.3-2.8c3.3-1.9,5.8-4.3,7.7-7.2c1.9-3,3.2-6.4,4-10.1c0.8-3.8,1.2-7.6,1.2-11.4
		v-33h1.9v33c0,4.4-0.5,8.6-1.3,12.6c-0.9,4-2.4,7.6-4.5,10.6c-2.1,3.1-4.9,5.5-8.3,7.4c-3.4,1.9-7.7,2.8-12.8,2.8
		c-5.2,0-9.5-1-13-2.9c-3.5-1.9-6.2-4.5-8.3-7.6c-2.1-3.2-3.5-6.7-4.4-10.7c-0.9-4-1.3-8.1-1.3-12.2v-33h1.9v33
		c0,4,0.4,7.8,1.2,11.6c0.8,3.8,2.1,7.2,4,10.1c1.9,3,4.5,5.4,7.7,7.2C290.6,145.4,294.7,146.3,299.6,146.3z"/>
	<path class="st0" d="M339.8,114.2c0-4,0.7-7.9,2.1-11.8c1.4-3.9,3.4-7.4,6-10.6c2.6-3.1,5.9-5.7,9.8-7.6c3.9-2,8.3-2.9,13.2-2.9
		c5.9,0,10.9,1.4,15,4c4.1,2.7,7.1,6.2,9.1,10.4l-1.8,0.6c-1.3-2.4-2.8-4.5-4.5-6.1c-1.7-1.7-3.6-3-5.6-4c-2-1-4.1-1.8-6.2-2.2
		c-2.1-0.5-4.3-0.7-6.4-0.7c-4.6,0-8.7,0.9-12.3,2.7c-3.6,1.8-6.6,4.2-9.1,7.2c-2.5,3-4.4,6.3-5.6,10.1c-1.3,3.7-1.9,7.5-1.9,11.3
		c0,4.2,0.8,8.2,2.3,12.1c1.5,3.8,3.6,7.2,6.2,10.2c2.6,2.9,5.7,5.3,9.2,7c3.5,1.7,7.3,2.6,11.4,2.6c2.2,0,4.4-0.3,6.7-0.8
		c2.3-0.6,4.5-1.4,6.6-2.5c2.1-1.1,4.1-2.6,6-4.3c1.8-1.8,3.4-3.9,4.7-6.3l1.8,0.5c-1.1,2.5-2.6,4.7-4.6,6.6
		c-1.9,1.9-4.1,3.5-6.4,4.8c-2.4,1.3-4.8,2.3-7.5,2.9c-2.6,0.6-5.2,1-7.7,1c-4.5,0-8.6-1-12.4-3c-3.8-2-7-4.6-9.7-7.8
		c-2.7-3.2-4.8-6.8-6.3-10.9C340.6,122.6,339.8,118.5,339.8,114.2"/>
	<path class="st1" d="M339.8,114.2c0-4,0.7-7.9,2.1-11.8c1.4-3.9,3.4-7.4,6-10.6c2.6-3.1,5.9-5.7,9.8-7.6c3.9-2,8.3-2.9,13.2-2.9
		c5.9,0,10.9,1.4,15,4c4.1,2.7,7.1,6.2,9.1,10.4l-1.8,0.6c-1.3-2.4-2.8-4.5-4.5-6.1c-1.7-1.7-3.6-3-5.6-4c-2-1-4.1-1.8-6.2-2.2
		c-2.1-0.5-4.3-0.7-6.4-0.7c-4.6,0-8.7,0.9-12.3,2.7c-3.6,1.8-6.6,4.2-9.1,7.2c-2.5,3-4.4,6.3-5.6,10.1c-1.3,3.7-1.9,7.5-1.9,11.3
		c0,4.2,0.8,8.2,2.3,12.1c1.5,3.8,3.6,7.2,6.2,10.2c2.6,2.9,5.7,5.3,9.2,7c3.5,1.7,7.3,2.6,11.4,2.6c2.2,0,4.4-0.3,6.7-0.8
		c2.3-0.6,4.5-1.4,6.6-2.5c2.1-1.1,4.1-2.6,6-4.3c1.8-1.8,3.4-3.9,4.7-6.3l1.8,0.5c-1.1,2.5-2.6,4.7-4.6,6.6
		c-1.9,1.9-4.1,3.5-6.4,4.8c-2.4,1.3-4.8,2.3-7.5,2.9c-2.6,0.6-5.2,1-7.7,1c-4.5,0-8.6-1-12.4-3c-3.8-2-7-4.6-9.7-7.8
		c-2.7-3.2-4.8-6.8-6.3-10.9C340.6,122.6,339.8,118.5,339.8,114.2z"/>
	<polygon class="st0" points="409.6,147.7 409.6,81.8 411.5,81.8 411.5,124.6 453.5,81.7 456.2,81.7 428,110.5 457.5,147.7 
		455.1,147.7 426.6,111.8 411.5,127.2 411.5,147.7 	"/>
	<polygon class="st1" points="409.6,147.7 409.6,81.8 411.5,81.8 411.5,124.6 453.5,81.7 456.2,81.7 428,110.5 457.5,147.7 
		455.1,147.7 426.6,111.8 411.5,127.2 411.5,147.7 	"/>
	<path class="st4" d="M131.7,45.5c0,17.5-2.6,31.6-5.8,31.6c-3.2,0-5.8-14.2-5.8-31.6c0-17.5,2.6-31.6,5.8-31.6
		C129.1,13.8,131.7,28,131.7,45.5"/>
	<path class="st2" d="M41.8,186l9-21.2h1.3l9,21.2h-1.6l-3-7H46.4l-3,7H41.8z M51.4,166.7l-4.7,11.1h9.3L51.4,166.7z"/>
	<path class="st3" d="M41.8,186l9-21.2h1.3l9,21.2h-1.6l-3-7H46.4l-3,7H41.8z M51.4,166.7l-4.7,11.1h9.3L51.4,166.7z"/>
	<polygon class="st2" points="71.3,186 71.3,164.8 72.8,164.8 72.8,184.6 85.4,184.6 85.4,186 	"/>
	<polygon class="st3" points="71.3,186 71.3,164.8 72.8,164.8 72.8,184.6 85.4,184.6 85.4,186 	"/>
	<rect x="88.9" y="164.8" class="st2" width="1.5" height="21.2"/>
	<rect x="88.9" y="164.8" class="st3" width="1.5" height="21.2"/>
	<polygon class="st2" points="110.9,166.2 103.1,166.2 103.1,186 101.6,186 101.6,166.2 93.9,166.2 93.9,164.8 110.9,164.8 	"/>
	<polygon class="st3" points="110.9,166.2 103.1,166.2 103.1,186 101.6,186 101.6,166.2 93.9,166.2 93.9,164.8 110.9,164.8 	"/>
	<polygon class="st2" points="129.2,166.2 121.4,166.2 121.4,186 119.9,186 119.9,166.2 112.2,166.2 112.2,164.8 129.2,164.8 	"/>
	<polygon class="st3" points="129.2,166.2 121.4,166.2 121.4,186 119.9,186 119.9,166.2 112.2,166.2 112.2,164.8 129.2,164.8 	"/>
	<polygon class="st2" points="132.6,186 132.6,164.8 134.2,164.8 134.2,184.6 146.8,184.6 146.8,186 	"/>
	<polygon class="st3" points="132.6,186 132.6,164.8 134.2,164.8 134.2,184.6 146.8,184.6 146.8,186 	"/>
	<polygon class="st2" points="164.4,184.6 164.4,186 150.3,186 150.3,164.8 164.1,164.8 164.1,166.2 151.8,166.2 151.8,174.5 
		162.6,174.5 162.6,175.8 151.8,175.8 151.8,184.6 	"/>
	<polygon class="st3" points="164.4,184.6 164.4,186 150.3,186 150.3,164.8 164.1,164.8 164.1,166.2 151.8,166.2 151.8,174.5 
		162.6,174.5 162.6,175.8 151.8,175.8 151.8,184.6 	"/>
	<path class="st2" d="M192,180.5c0,0.8-0.2,1.5-0.4,2.2c-0.3,0.7-0.7,1.3-1.2,1.7c-0.5,0.5-1.1,0.9-1.8,1.2
		c-0.7,0.3-1.4,0.4-2.2,0.4h-9.9v-21.2h9.9c0.7,0,1.4,0.2,2,0.5c0.6,0.3,1.1,0.7,1.5,1.2c0.4,0.5,0.7,1.1,1,1.7
		c0.2,0.6,0.3,1.3,0.3,2c0,1.1-0.3,2.1-0.8,3c-0.5,0.9-1.3,1.6-2.2,2c1.2,0.4,2.2,1,2.9,2C191.7,178.1,192,179.3,192,180.5
		 M177.9,166.2v8.5h7.8c0.6,0,1.1-0.1,1.6-0.4c0.5-0.2,0.9-0.6,1.2-0.9c0.3-0.4,0.6-0.8,0.8-1.4c0.2-0.5,0.3-1,0.3-1.6
		c0-0.6-0.1-1.1-0.3-1.6c-0.2-0.5-0.4-0.9-0.8-1.3c-0.3-0.4-0.7-0.7-1.2-0.9c-0.5-0.2-1-0.3-1.5-0.3H177.9z M190.5,180.3
		c0-0.6-0.1-1.1-0.3-1.6c-0.2-0.5-0.5-1-0.8-1.4c-0.4-0.4-0.8-0.7-1.3-1c-0.5-0.2-1-0.4-1.6-0.4h-8.6v8.7h8.4c0.6,0,1.2-0.1,1.7-0.4
		c0.5-0.2,0.9-0.6,1.3-1c0.4-0.4,0.7-0.9,0.9-1.4C190.4,181.4,190.5,180.9,190.5,180.3"/>
	<path class="st3" d="M192,180.5c0,0.8-0.2,1.5-0.4,2.2c-0.3,0.7-0.7,1.3-1.2,1.7c-0.5,0.5-1.1,0.9-1.8,1.2
		c-0.7,0.3-1.4,0.4-2.2,0.4h-9.9v-21.2h9.9c0.7,0,1.4,0.2,2,0.5c0.6,0.3,1.1,0.7,1.5,1.2c0.4,0.5,0.7,1.1,1,1.7
		c0.2,0.6,0.3,1.3,0.3,2c0,1.1-0.3,2.1-0.8,3c-0.5,0.9-1.3,1.6-2.2,2c1.2,0.4,2.2,1,2.9,2C191.7,178.1,192,179.3,192,180.5z
		 M177.9,166.2v8.5h7.8c0.6,0,1.1-0.1,1.6-0.4c0.5-0.2,0.9-0.6,1.2-0.9c0.3-0.4,0.6-0.8,0.8-1.4c0.2-0.5,0.3-1,0.3-1.6
		c0-0.6-0.1-1.1-0.3-1.6c-0.2-0.5-0.4-0.9-0.8-1.3c-0.3-0.4-0.7-0.7-1.2-0.9c-0.5-0.2-1-0.3-1.5-0.3H177.9z M190.5,180.3
		c0-0.6-0.1-1.1-0.3-1.6c-0.2-0.5-0.5-1-0.8-1.4c-0.4-0.4-0.8-0.7-1.3-1c-0.5-0.2-1-0.4-1.6-0.4h-8.6v8.7h8.4c0.6,0,1.2-0.1,1.7-0.4
		c0.5-0.2,0.9-0.6,1.3-1c0.4-0.4,0.7-0.9,0.9-1.4C190.4,181.4,190.5,180.9,190.5,180.3z"/>
	<rect x="196.3" y="164.8" class="st2" width="1.5" height="21.2"/>
	<rect x="196.3" y="164.8" class="st3" width="1.5" height="21.2"/>
	<polygon class="st2" points="218.3,166.2 210.5,166.2 210.5,186 209,186 209,166.2 201.2,166.2 201.2,164.8 218.3,164.8 	"/>
	<polygon class="st3" points="218.3,166.2 210.5,166.2 210.5,186 209,186 209,166.2 201.2,166.2 201.2,164.8 218.3,164.8 	"/>
	<path class="st2" d="M237.2,186.2c-1.5,0-2.8-0.3-4-0.9c-1.2-0.6-2.3-1.4-3.1-2.4c-0.9-1-1.6-2.1-2-3.4c-0.5-1.3-0.7-2.6-0.7-4
		c0-1.4,0.3-2.8,0.8-4.1c0.5-1.3,1.2-2.4,2.1-3.4c0.9-1,1.9-1.8,3.1-2.4c1.2-0.6,2.5-0.9,3.9-0.9c1.5,0,2.8,0.3,4,0.9
		c1.2,0.6,2.3,1.5,3.1,2.5c0.9,1,1.5,2.2,2,3.4c0.5,1.3,0.7,2.6,0.7,3.9c0,1.4-0.3,2.8-0.8,4.1c-0.5,1.3-1.2,2.4-2.1,3.4
		c-0.9,1-1.9,1.8-3.1,2.4C240,185.9,238.7,186.2,237.2,186.2 M228.9,175.4c0,1.2,0.2,2.4,0.6,3.5c0.4,1.1,1,2.1,1.7,3
		c0.7,0.9,1.6,1.6,2.7,2.1c1,0.5,2.2,0.8,3.4,0.8c1.3,0,2.4-0.3,3.4-0.8c1-0.5,1.9-1.3,2.6-2.1c0.7-0.9,1.3-1.9,1.7-3
		c0.4-1.1,0.6-2.2,0.6-3.4c0-1.2-0.2-2.4-0.6-3.5c-0.4-1.1-1-2.1-1.7-3c-0.7-0.9-1.6-1.6-2.7-2.1c-1-0.5-2.1-0.8-3.4-0.8
		c-1.3,0-2.4,0.3-3.5,0.8c-1,0.5-1.9,1.2-2.6,2.1c-0.7,0.9-1.3,1.9-1.7,3C229.1,173.1,228.9,174.3,228.9,175.4"/>
	<path class="st3" d="M237.2,186.2c-1.5,0-2.8-0.3-4-0.9c-1.2-0.6-2.3-1.4-3.1-2.4c-0.9-1-1.6-2.1-2-3.4c-0.5-1.3-0.7-2.6-0.7-4
		c0-1.4,0.3-2.8,0.8-4.1c0.5-1.3,1.2-2.4,2.1-3.4c0.9-1,1.9-1.8,3.1-2.4c1.2-0.6,2.5-0.9,3.9-0.9c1.5,0,2.8,0.3,4,0.9
		c1.2,0.6,2.3,1.5,3.1,2.5c0.9,1,1.5,2.2,2,3.4c0.5,1.3,0.7,2.6,0.7,3.9c0,1.4-0.3,2.8-0.8,4.1c-0.5,1.3-1.2,2.4-2.1,3.4
		c-0.9,1-1.9,1.8-3.1,2.4C240,185.9,238.7,186.2,237.2,186.2z M228.9,175.4c0,1.2,0.2,2.4,0.6,3.5c0.4,1.1,1,2.1,1.7,3
		c0.7,0.9,1.6,1.6,2.7,2.1c1,0.5,2.2,0.8,3.4,0.8c1.3,0,2.4-0.3,3.4-0.8c1-0.5,1.9-1.3,2.6-2.1c0.7-0.9,1.3-1.9,1.7-3
		c0.4-1.1,0.6-2.2,0.6-3.4c0-1.2-0.2-2.4-0.6-3.5c-0.4-1.1-1-2.1-1.7-3c-0.7-0.9-1.6-1.6-2.7-2.1c-1-0.5-2.1-0.8-3.4-0.8
		c-1.3,0-2.4,0.3-3.5,0.8c-1,0.5-1.9,1.2-2.6,2.1c-0.7,0.9-1.3,1.9-1.7,3C229.1,173.1,228.9,174.3,228.9,175.4z"/>
	<polygon class="st2" points="251.4,186 251.4,164.8 265.2,164.8 265.2,166.2 252.9,166.2 252.9,174.6 263.3,174.6 263.3,175.9 
		252.9,175.9 252.9,186 	"/>
	<polygon class="st3" points="251.4,186 251.4,164.8 265.2,164.8 265.2,166.2 252.9,166.2 252.9,174.6 263.3,174.6 263.3,175.9 
		252.9,175.9 252.9,186 	"/>
</g>
</svg>
