<?xml version="1.0" encoding="utf-8"?>
<!-- Generator: Adobe Illustrator 18.0.0, SVG Export Plug-In . SVG Version: 6.00 Build 0)  -->
<!DOCTYPE svg PUBLIC "-//W3C//DTD SVG 1.1//EN" "http://www.w3.org/Graphics/SVG/1.1/DTD/svg11.dtd">
<svg version="1.1" id="Layer_1" xmlns="http://www.w3.org/2000/svg" xmlns:xlink="http://www.w3.org/1999/xlink" x="0px" y="0px"
	 viewBox="0 0 600 300" enable-background="new 0 0 600 300" xml:space="preserve">
<path fill="#FFFFFF" stroke="#000000" stroke-miterlimit="10" d="M370.5-59.5h-21V-60c-10,0.3-19.2,9.1-19.2,20
	c0,11,9.1,19.8,20.1,19.8c10.8,0,19.6-8.3,20.1-19.3l0,0V-59.5z"/>
<g>
	<g>
		<line fill="none" stroke="#CCCCCC" stroke-width="3" stroke-miterlimit="10" x1="186.3" y1="184.2" x2="423.7" y2="134.8"/>
		<g>
			<polygon fill="#CCCCCC" points="188.5,188.3 180,185.5 186.7,179.5 			"/>
		</g>
		<g>
			<polygon fill="#CCCCCC" points="423.3,139.5 430,133.5 421.5,130.7 			"/>
		</g>
	</g>
</g>
<g>
	<g>
		<line fill="none" stroke="#CCCCCC" stroke-width="3" stroke-miterlimit="10" x1="300.5" y1="35" x2="300.5" y2="263"/>
		<g>
			<polygon fill="#CCCCCC" points="296,37 300.5,29.2 305,37 			"/>
		</g>
		<g>
			<polygon fill="#CCCCCC" points="296,261 300.5,268.8 305,261 			"/>
		</g>
	</g>
</g>
<g>
	<g>
		<line fill="none" stroke="#CCCCCC" stroke-width="3" stroke-miterlimit="10" x1="300" y1="158.9" x2="224.6" y2="84.5"/>
		<g>
			<polygon fill="#CCCCCC" points="228.7,82.3 220,80 222.4,88.7 			"/>
		</g>
	</g>
</g>
<g>
	<g>
		<line fill="none" stroke="#CCCCCC" stroke-width="3" stroke-miterlimit="10" x1="405.4" y1="265.4" x2="300.5" y2="160"/>
		<g>
			<polygon fill="#CCCCCC" points="407.6,261.3 410,270 401.3,267.7 			"/>
		</g>
	</g>
</g>
<polygon opacity="0.4" fill="#3BB2D0" enable-background="new    " points="367,209 230,240 230,103 370,78 "/>
<circle fill="#666666" cx="300" cy="160" r="5"/>
<g>
	<g>
		<path fill="#3BB2D0" d="M290.2,54.2c0,0-0.3,0.1-0.8,0.3c-0.2,0.1-0.5,0.2-0.8,0.3c-0.3,0.2-0.7,0.3-1.1,0.6
			c-0.8,0.4-1.8,1-2.6,1.8c-0.8,0.8-1.4,1.8-1.5,2.8l0,0l0,0c0-0.1,0,0.2,0-0.2v0.1v0.2v0.3v0.4c0,0.1,0,0.1,0.1,0.2
			c0,0.1,0.1,0.2,0.1,0.2l0.2,0.4c0.1,0.1,0.1,0.3,0.3,0.4l0.3,0.4c0.3,0.3,0.5,0.6,0.9,0.9c1.3,1.1,3.1,2.1,5,2.8
			c2,0.7,4.1,1.2,6.4,1.5c0.6,0.1,1.1,0.1,1.7,0.2c0.6,0.1,1.1,0.1,1.7,0.1h0.9c0.2,0,0.6,0,0.9,0c0.6,0,1.2,0,1.8-0.1
			c2.2-0.1,4.6-0.5,6.7-1.1c2.2-0.6,4.2-1.4,5.8-2.5c0.4-0.3,0.8-0.6,1.1-0.9c0.3-0.3,0.7-0.6,0.9-1c0.5-0.7,0.8-1.3,0.9-2v-0.2V60
			l0,0l0,0c0-0.1,0,0.2,0,0.1v-0.2v-0.4v-0.2c0-0.1,0-0.1,0-0.1c-0.1-0.1,0-0.2-0.1-0.4l-0.2-0.5c-0.3-0.6-0.8-1.2-1.3-1.7
			c-1.1-1-2.4-1.8-3.7-2.4c-1.2-0.6-2.4-1-3.4-1.3s-1.7-0.5-2.3-0.6c-0.5-0.1-0.8-0.2-0.8-0.2h-0.1c-1-0.2-1.6-1.2-1.4-2.1
			c0.2-1,1.1-1.6,2.1-1.4c0,0,0.3,0.1,0.9,0.2c0.6,0.1,1.5,0.3,2.6,0.6s2.4,0.7,3.9,1.4s3.1,1.6,4.7,3c0.8,0.8,1.6,1.6,2.1,2.8
			c0.1,0.3,0.3,0.6,0.4,0.9c0.1,0.3,0.2,0.7,0.3,1.1c0,0.2,0.1,0.3,0.1,0.5v0.4v0.2c0,0,0,0.3,0,0.2l0,0V60v0.1v0.5
			c-0.1,1.4-0.8,2.8-1.6,3.9c-0.4,0.6-0.9,1-1.3,1.5c-0.5,0.4-1,0.9-1.5,1.2c-2.1,1.5-4.5,2.5-7,3.2s-5,1.1-7.7,1.3
			c-0.7,0.1-1.3,0.1-1.9,0.1c-0.3,0-0.6,0-1,0h-1c-0.6,0-1.3,0-1.9-0.1c-0.6,0-1.3-0.1-1.9-0.2c-2.5-0.3-5-0.8-7.4-1.6
			c-2.3-0.8-4.6-1.9-6.5-3.5c-0.5-0.4-0.9-0.9-1.4-1.3c-0.2-0.3-0.4-0.5-0.6-0.8s-0.4-0.5-0.5-0.8c-0.2-0.3-0.3-0.6-0.5-0.9
			c-0.1-0.4-0.2-0.8-0.3-1.1c0-0.2-0.1-0.4-0.1-0.5v-0.4v-0.3v-0.2V60c0-0.5,0-0.1,0-0.3l0,0v-0.1c0-1.3,0.4-2.6,0.9-3.6
			s1.2-1.8,1.8-2.5c1.3-1.3,2.6-2.1,3.6-2.7c0.5-0.3,1-0.5,1.4-0.7c0.4-0.2,0.8-0.3,1.1-0.5c0.5-0.2,0.8-0.3,0.8-0.3
			c1.2-0.5,2.7,0.1,3.2,1.4C292.1,52.2,291.5,53.6,290.2,54.2C290.2,54.1,290.2,54.2,290.2,54.2z"/>
		<g>
			<polygon fill="#3BB2D0" points="286.3,46.6 297.7,50.1 289,58.3 			"/>
		</g>
	</g>
</g>
<g>
	<g>
		<path fill="#3BB2D0" d="M387.5,127.6c0,0,0.1-0.3,0.2-0.9c0.1-0.3,0.2-0.7,0.3-1.2c0.1-0.4,0.3-1,0.5-1.5c0.4-1.1,0.9-2.5,2-4.1
			c0.5-0.8,1.2-1.5,2.1-2.2s2-1.3,3.4-1.6h0.1l0,0c0.1,0-0.2,0,0.3,0h0.1h0.2h0.3h0.4c0.1,0,0.4,0,0.5,0c0.4,0,0.8,0.1,1.2,0.1
			c0.3,0.1,0.6,0.2,1,0.3c0.3,0.1,0.6,0.2,0.9,0.4c0.3,0.1,0.6,0.3,0.9,0.4c0.5,0.4,1.1,0.7,1.6,1.1c1.9,1.6,3.4,3.6,4.7,5.8
			c1.2,2.2,2.2,4.5,2.9,7c0.2,0.6,0.3,1.2,0.5,1.8c0.2,0.6,0.3,1.2,0.4,1.9l0.2,0.9c0.1,0.4,0.1,0.6,0.2,1c0.1,0.6,0.2,1.2,0.2,1.9
			c0.3,2.6,0.3,5.2,0.1,7.8c-0.3,2.6-0.8,5.1-1.9,7.5c-0.2,0.6-0.6,1.2-0.9,1.7c-0.4,0.5-0.7,1.1-1.3,1.6c-0.9,1-2.2,1.9-3.6,2.3
			l-0.5,0.1h-0.1h-0.1l0,0c0.1,0-0.2,0-0.2,0h-0.2h-0.4c-0.1,0-0.2,0-0.5,0c-0.4,0-0.8,0-1.2-0.1c-0.3-0.1-0.7-0.1-1-0.2
			c-1.2-0.4-2.3-1-3.1-1.6c-1.7-1.3-2.9-2.8-3.8-4.1c-0.9-1.3-1.6-2.6-2.1-3.6s-0.8-1.8-1.1-2.4c-0.2-0.6-0.3-0.9-0.3-0.9
			c-0.4-0.9,0.1-2,1-2.3c0.9-0.4,1.9,0.1,2.3,1v0.1c0,0,0.1,0.3,0.3,0.8s0.5,1.2,1,2.1c0.4,0.9,1.1,2,1.8,3.1c0.8,1.1,1.8,2.3,3,3.2
			c0.6,0.4,1.3,0.8,1.9,1l0.5,0.1c0.2,0,0.2,0,0.4,0c0,0,0,0,0.1,0h0.2h0.4h0.2c0,0-0.3,0-0.1,0l0,0l0,0h0.1l0.2-0.1
			c0.6-0.2,1.2-0.6,1.8-1.2c0.3-0.3,0.5-0.7,0.8-1c0.2-0.4,0.5-0.8,0.7-1.3c0.8-1.8,1.3-4,1.5-6.2c0.2-2.2,0.1-4.6-0.2-6.8
			c0-0.5-0.2-1.2-0.3-1.8c0-0.3-0.1-0.7-0.1-0.8l-0.2-0.8c-0.1-0.6-0.2-1.1-0.4-1.7s-0.3-1.1-0.5-1.6c-0.7-2.2-1.6-4.2-2.6-6
			c-1.1-1.8-2.3-3.4-3.6-4.4c-0.3-0.3-0.7-0.4-1-0.7l-0.5-0.2c-0.2-0.1-0.3-0.2-0.5-0.2l-0.4-0.1c-0.1,0-0.2,0-0.3,0
			c-0.1,0,0,0-0.2,0h-0.4H397h-0.2h-0.1c0.5-0.1,0.1,0,0.2,0l0,0l0,0c-1,0.2-1.8,1-2.4,1.9c-0.6,1-1,2-1.3,2.9
			c-0.1,0.4-0.2,0.9-0.3,1.2c-0.1,0.3-0.1,0.6-0.2,0.9c-0.1,0.6-0.2,0.9-0.2,0.9c-0.2,1.3-1.5,2.2-2.8,2
			C388.1,130.2,387.2,129,387.5,127.6C387.4,127.6,387.5,127.6,387.5,127.6z"/>
		<g>
			<polygon fill="#3BB2D0" points="396.1,126.6 389.6,136.7 384.1,126 			"/>
		</g>
	</g>
</g>
<g>
	<g>
		<path fill="#3BB2D0" d="M380.2,258.2c0,0-0.4,0.1-1.1,0.2c-0.4,0.1-0.9,0.1-1.5,0.2c-0.6,0.1-1.2,0.1-2,0.1
			c-1.5,0-3.3-0.1-5.4-0.7c-2-0.6-4.3-1.6-6.3-3.3c-0.5-0.4-1-0.9-1.5-1.4l0,0l-0.1-0.1l0,0l-0.1-0.1l-0.1-0.2l-0.3-0.3
			c-0.2-0.2-0.4-0.5-0.6-0.7c-0.4-0.6-0.9-1.3-1.2-2s-0.7-1.3-0.9-2c-1-2.8-1.3-6-0.8-9.1s1.7-6.2,3.4-9c0.4-0.7,0.9-1.3,1.4-2
			c0.5-0.6,1-1.3,1.6-1.9l0.9-0.9l0.4-0.4l0.1-0.1l0.1-0.1h0.1l0.2-0.2l0.9-0.7l0.4-0.4l0.5-0.4c0.7-0.5,1.4-1,2.1-1.4l1.1-0.6
			l1.1-0.5c1.5-0.7,3.1-1.2,4.6-1.6c3.2-0.7,6.5-0.8,9.6,0s5.9,2.5,7.9,4.6l0.2,0.2l0,0l0.1,0.1l0,0l0.1,0.1l0.3,0.4
			c0.2,0.3,0.4,0.5,0.6,0.8s0.4,0.6,0.6,0.9c0.2,0.3,0.3,0.6,0.5,0.9c0.4,0.6,0.6,1.2,0.9,1.9c0.2,0.6,0.4,1.2,0.6,1.9
			c0.6,2.5,0.6,4.8,0.4,6.8s-0.8,3.7-1.3,5s-1,2.3-1.4,3c-0.4,0.7-0.6,1-0.6,1c-0.5,0.9-1.6,1.2-2.5,0.7c-0.9-0.5-1.2-1.6-0.7-2.4
			l0.1-0.1c0,0,0.2-0.3,0.5-0.9c0.3-0.6,0.7-1.4,1.1-2.6c0.4-1.1,0.8-2.5,1-4.2c0.2-1.6,0.1-3.5-0.4-5.4c-0.1-0.5-0.3-0.9-0.5-1.4
			s-0.4-1-0.7-1.4c-0.1-0.2-0.3-0.5-0.4-0.7l-0.4-0.6c-0.1-0.2-0.4-0.5-0.6-0.7l-0.3-0.4l-0.1-0.1l0,0c-0.1-0.1,0.1,0.1,0,0l0,0
			l-0.2-0.1c-1.6-1.6-3.7-2.8-6.1-3.4c-2.4-0.6-5.1-0.5-7.7,0.1c-1.3,0.4-2.6,0.8-3.8,1.4l-0.9,0.4l-0.9,0.5
			c-0.6,0.3-1.1,0.7-1.7,1.1l-0.4,0.3l-0.4,0.4l-0.9,0.7l-0.2,0.2h-0.1c0.1-0.1,0,0,0,0l0,0l-0.1,0.1l-0.4,0.4l-0.7,0.7
			c-0.5,0.5-0.9,1-1.3,1.6c-0.4,0.6-0.8,1.1-1.1,1.7c-1.4,2.3-2.3,4.8-2.7,7.3c-0.3,2.5,0,4.9,0.7,6.9c0.1,0.5,0.5,1,0.7,1.5
			s0.5,0.8,0.7,1.2c0.4,0.4,0.7,0.9,1,1.3c0.3,0.3,0.7,0.7,1.1,1c1.5,1.2,3.1,1.9,4.6,2.3c1.5,0.4,2.9,0.5,4,0.5
			c0.6,0,1.1,0,1.5-0.1c0.4,0,0.8-0.1,1.1-0.1c0.7-0.1,1.1-0.2,1.1-0.2c1.3-0.3,2.6,0.6,2.9,1.9
			C381.9,256.9,381.5,257.9,380.2,258.2L380.2,258.2z"/>
		<g>
			<polygon fill="#3BB2D0" points="375.7,250.7 387.6,252.3 380.3,261.8 			"/>
		</g>
	</g>
</g>
<g enable-background="new    ">
	<path fill="#666666" d="M332.1,63.7v-6.2h0.9v0.9c0.2-0.4,0.5-0.7,0.7-0.9s0.4-0.2,0.7-0.2c0.4,0,0.7,0.1,1.1,0.3l-0.4,1
		c-0.3-0.2-0.5-0.2-0.8-0.2c-0.2,0-0.4,0.1-0.6,0.2s-0.3,0.3-0.4,0.6c-0.1,0.4-0.2,0.8-0.2,1.2v3.3H332.1z"/>
	<path fill="#666666" d="M335.7,60.6c0-1.2,0.3-2,1-2.6c0.5-0.5,1.2-0.7,2-0.7c0.9,0,1.6,0.3,2.1,0.8s0.8,1.3,0.8,2.3
		c0,0.8-0.1,1.4-0.4,1.9s-0.6,0.8-1,1.1s-1,0.4-1.5,0.4c-0.9,0-1.6-0.3-2.1-0.8S335.7,61.6,335.7,60.6z M336.8,60.6
		c0,0.8,0.2,1.4,0.5,1.8s0.8,0.6,1.3,0.6c0.5,0,1-0.2,1.3-0.6s0.5-1,0.5-1.8c0-0.8-0.2-1.4-0.5-1.7s-0.8-0.6-1.3-0.6
		c-0.5,0-1,0.2-1.3,0.6S336.8,59.8,336.8,60.6z"/>
	<path fill="#666666" d="M345.1,62.7l0.2,0.9c-0.3,0.1-0.6,0.1-0.8,0.1c-0.4,0-0.7-0.1-0.9-0.2s-0.4-0.3-0.4-0.5s-0.1-0.6-0.1-1.2
		v-3.6h-0.8v-0.8h0.8v-1.5l1-0.6v2.2h1.1v0.8H344v3.6c0,0.3,0,0.5,0.1,0.6s0.1,0.2,0.2,0.2s0.2,0.1,0.4,0.1
		C344.8,62.8,344.9,62.8,345.1,62.7z"/>
	<path fill="#666666" d="M350.2,62.9c-0.4,0.3-0.8,0.6-1.1,0.7s-0.7,0.2-1.2,0.2c-0.7,0-1.2-0.2-1.6-0.5s-0.6-0.8-0.6-1.3
		c0-0.3,0.1-0.6,0.2-0.8s0.3-0.5,0.5-0.6s0.5-0.3,0.8-0.3c0.2-0.1,0.5-0.1,0.9-0.2c0.9-0.1,1.5-0.2,1.9-0.4c0-0.1,0-0.2,0-0.3
		c0-0.4-0.1-0.7-0.3-0.9c-0.3-0.2-0.7-0.4-1.2-0.4c-0.5,0-0.9,0.1-1.1,0.3s-0.4,0.5-0.5,0.9l-1-0.1c0.1-0.4,0.2-0.8,0.5-1.1
		s0.5-0.5,0.9-0.6s0.9-0.2,1.4-0.2c0.5,0,1,0.1,1.3,0.2s0.6,0.3,0.7,0.5s0.3,0.4,0.3,0.7c0,0.2,0.1,0.5,0.1,1v1.4c0,1,0,1.6,0.1,1.9
		s0.1,0.5,0.3,0.7h-1.1C350.3,63.4,350.2,63.2,350.2,62.9z M350.1,60.5c-0.4,0.2-1,0.3-1.7,0.4c-0.4,0.1-0.7,0.1-0.9,0.2
		s-0.3,0.2-0.4,0.3s-0.1,0.3-0.1,0.5c0,0.3,0.1,0.5,0.3,0.7s0.5,0.3,0.9,0.3c0.4,0,0.8-0.1,1.1-0.3s0.5-0.4,0.7-0.7
		c0.1-0.2,0.2-0.6,0.2-1.1V60.5z"/>
	<path fill="#666666" d="M355.1,62.7l0.2,0.9c-0.3,0.1-0.6,0.1-0.8,0.1c-0.4,0-0.7-0.1-0.9-0.2s-0.4-0.3-0.4-0.5s-0.1-0.6-0.1-1.2
		v-3.6h-0.8v-0.8h0.8v-1.5l1-0.6v2.2h1.1v0.8H354v3.6c0,0.3,0,0.5,0.1,0.6s0.1,0.2,0.2,0.2s0.2,0.1,0.4,0.1
		C354.8,62.8,354.9,62.8,355.1,62.7z"/>
	<path fill="#666666" d="M360.4,61.7l1.1,0.1c-0.2,0.6-0.5,1.1-1,1.5s-1.1,0.5-1.8,0.5c-0.9,0-1.6-0.3-2.2-0.8s-0.8-1.3-0.8-2.4
		c0-1,0.3-1.9,0.8-2.4s1.2-0.9,2.1-0.9c0.8,0,1.5,0.3,2,0.8s0.8,1.4,0.8,2.4c0,0.1,0,0.2,0,0.3h-4.6c0,0.7,0.2,1.2,0.6,1.6
		s0.8,0.5,1.3,0.5c0.4,0,0.7-0.1,1-0.3S360.2,62.1,360.4,61.7z M356.9,60h3.5c0-0.5-0.2-0.9-0.4-1.2c-0.3-0.4-0.8-0.6-1.3-0.6
		c-0.5,0-0.9,0.2-1.2,0.5S357,59.4,356.9,60z"/>
	<path fill="#666666" d="M365.4,63.7V60l-3.3-5h1.4l1.7,2.6c0.3,0.5,0.6,1,0.9,1.5c0.3-0.4,0.6-1,0.9-1.5l1.7-2.5h1.3l-3.4,5v3.6
		H365.4z"/>
</g>
<g enable-background="new    ">
	<path fill="#666666" d="M394.8,107.7v-6.2h0.9v0.9c0.2-0.4,0.5-0.7,0.7-0.9s0.4-0.2,0.7-0.2c0.4,0,0.7,0.1,1.1,0.3l-0.4,1
		c-0.3-0.2-0.5-0.2-0.8-0.2c-0.2,0-0.4,0.1-0.6,0.2s-0.3,0.3-0.4,0.6c-0.1,0.4-0.2,0.8-0.2,1.2v3.3H394.8z"/>
	<path fill="#666666" d="M398.4,104.6c0-1.2,0.3-2,1-2.6c0.5-0.5,1.2-0.7,2-0.7c0.9,0,1.6,0.3,2.1,0.8s0.8,1.3,0.8,2.3
		c0,0.8-0.1,1.4-0.4,1.9s-0.6,0.8-1,1.1s-1,0.4-1.5,0.4c-0.9,0-1.6-0.3-2.1-0.8S398.4,105.6,398.4,104.6z M399.5,104.6
		c0,0.8,0.2,1.4,0.5,1.8s0.8,0.6,1.3,0.6c0.5,0,1-0.2,1.3-0.6s0.5-1,0.5-1.8c0-0.8-0.2-1.4-0.5-1.7s-0.8-0.6-1.3-0.6
		c-0.5,0-1,0.2-1.3,0.6S399.5,103.8,399.5,104.6z"/>
	<path fill="#666666" d="M407.8,106.7l0.2,0.9c-0.3,0.1-0.6,0.1-0.8,0.1c-0.4,0-0.7-0.1-0.9-0.2s-0.4-0.3-0.4-0.5s-0.1-0.6-0.1-1.2
		v-3.6h-0.8v-0.8h0.8v-1.5l1-0.6v2.2h1.1v0.8h-1.1v3.6c0,0.3,0,0.5,0.1,0.6s0.1,0.2,0.2,0.2s0.2,0.1,0.4,0.1
		C407.4,106.8,407.6,106.8,407.8,106.7z"/>
	<path fill="#666666" d="M412.9,106.9c-0.4,0.3-0.8,0.6-1.1,0.7s-0.7,0.2-1.2,0.2c-0.7,0-1.2-0.2-1.6-0.5s-0.6-0.8-0.6-1.3
		c0-0.3,0.1-0.6,0.2-0.8s0.3-0.5,0.5-0.6s0.5-0.3,0.8-0.3c0.2-0.1,0.5-0.1,0.9-0.2c0.9-0.1,1.5-0.2,1.9-0.4c0-0.1,0-0.2,0-0.3
		c0-0.4-0.1-0.7-0.3-0.9c-0.3-0.2-0.7-0.4-1.2-0.4c-0.5,0-0.9,0.1-1.1,0.3s-0.4,0.5-0.5,0.9l-1-0.1c0.1-0.4,0.2-0.8,0.5-1.1
		s0.5-0.5,0.9-0.6s0.9-0.2,1.4-0.2c0.5,0,1,0.1,1.3,0.2s0.6,0.3,0.7,0.5s0.3,0.4,0.3,0.7c0,0.2,0.1,0.5,0.1,1v1.4c0,1,0,1.6,0.1,1.9
		s0.1,0.5,0.3,0.7h-1.1C413,107.4,412.9,107.2,412.9,106.9z M412.8,104.5c-0.4,0.2-1,0.3-1.7,0.4c-0.4,0.1-0.7,0.1-0.9,0.2
		s-0.3,0.2-0.4,0.3s-0.1,0.3-0.1,0.5c0,0.3,0.1,0.5,0.3,0.7s0.5,0.3,0.9,0.3c0.4,0,0.8-0.1,1.1-0.3s0.5-0.4,0.7-0.7
		c0.1-0.2,0.2-0.6,0.2-1.1V104.5z"/>
	<path fill="#666666" d="M417.8,106.7l0.2,0.9c-0.3,0.1-0.6,0.1-0.8,0.1c-0.4,0-0.7-0.1-0.9-0.2s-0.4-0.3-0.4-0.5s-0.1-0.6-0.1-1.2
		v-3.6h-0.8v-0.8h0.8v-1.5l1-0.6v2.2h1.1v0.8h-1.1v3.6c0,0.3,0,0.5,0.1,0.6s0.1,0.2,0.2,0.2s0.2,0.1,0.4,0.1
		C417.4,106.8,417.6,106.8,417.8,106.7z"/>
	<path fill="#666666" d="M423.1,105.7l1.1,0.1c-0.2,0.6-0.5,1.1-1,1.5s-1.1,0.5-1.8,0.5c-0.9,0-1.6-0.3-2.2-0.8s-0.8-1.3-0.8-2.4
		c0-1,0.3-1.9,0.8-2.4s1.2-0.9,2.1-0.9c0.8,0,1.5,0.3,2,0.8s0.8,1.4,0.8,2.4c0,0.1,0,0.2,0,0.3h-4.6c0,0.7,0.2,1.2,0.6,1.6
		s0.8,0.5,1.3,0.5c0.4,0,0.7-0.1,1-0.3S422.9,106.1,423.1,105.7z M419.6,104h3.5c0-0.5-0.2-0.9-0.4-1.2c-0.3-0.4-0.8-0.6-1.3-0.6
		c-0.5,0-0.9,0.2-1.2,0.5S419.6,103.4,419.6,104z"/>
	<path fill="#666666" d="M424.7,107.7l3.3-4.5l-2.9-4.1h1.4l1.6,2.2c0.3,0.5,0.6,0.8,0.7,1.1c0.2-0.3,0.4-0.6,0.7-1l1.7-2.3h1.2
		l-3,4l3.3,4.5h-1.4l-2.2-3.1c-0.1-0.2-0.2-0.4-0.4-0.6c-0.2,0.3-0.3,0.5-0.4,0.6l-2.2,3H424.7z"/>
</g>
<g enable-background="new    ">
	<path fill="#666666" d="M410.8,220v-6.2h0.9v0.9c0.2-0.4,0.5-0.7,0.7-0.9s0.4-0.2,0.7-0.2c0.4,0,0.7,0.1,1.1,0.3l-0.4,1
		c-0.3-0.2-0.5-0.2-0.8-0.2c-0.2,0-0.4,0.1-0.6,0.2s-0.3,0.3-0.4,0.6c-0.1,0.4-0.2,0.8-0.2,1.2v3.3H410.8z"/>
	<path fill="#666666" d="M414.4,216.9c0-1.2,0.3-2,1-2.6c0.5-0.5,1.2-0.7,2-0.7c0.9,0,1.6,0.3,2.1,0.8s0.8,1.3,0.8,2.3
		c0,0.8-0.1,1.4-0.4,1.9s-0.6,0.8-1,1.1s-1,0.4-1.5,0.4c-0.9,0-1.6-0.3-2.1-0.8S414.4,217.9,414.4,216.9z M415.5,216.9
		c0,0.8,0.2,1.4,0.5,1.8s0.8,0.6,1.3,0.6c0.5,0,1-0.2,1.3-0.6s0.5-1,0.5-1.8c0-0.8-0.2-1.4-0.5-1.7s-0.8-0.6-1.3-0.6
		c-0.5,0-1,0.2-1.3,0.6S415.5,216.1,415.5,216.9z"/>
	<path fill="#666666" d="M423.8,219.1l0.2,0.9c-0.3,0.1-0.6,0.1-0.8,0.1c-0.4,0-0.7-0.1-0.9-0.2s-0.4-0.3-0.4-0.5s-0.1-0.6-0.1-1.2
		v-3.6h-0.8v-0.8h0.8v-1.5l1-0.6v2.2h1.1v0.8h-1.1v3.6c0,0.3,0,0.5,0.1,0.6s0.1,0.2,0.2,0.2s0.2,0.1,0.4,0.1
		C423.4,219.1,423.6,219.1,423.8,219.1z"/>
	<path fill="#666666" d="M428.9,219.2c-0.4,0.3-0.8,0.6-1.1,0.7s-0.7,0.2-1.2,0.2c-0.7,0-1.2-0.2-1.6-0.5s-0.6-0.8-0.6-1.3
		c0-0.3,0.1-0.6,0.2-0.8s0.3-0.5,0.5-0.6s0.5-0.3,0.8-0.3c0.2-0.1,0.5-0.1,0.9-0.2c0.9-0.1,1.5-0.2,1.9-0.4c0-0.1,0-0.2,0-0.3
		c0-0.4-0.1-0.7-0.3-0.9c-0.3-0.2-0.7-0.4-1.2-0.4c-0.5,0-0.9,0.1-1.1,0.3s-0.4,0.5-0.5,0.9l-1-0.1c0.1-0.4,0.2-0.8,0.5-1.1
		s0.5-0.5,0.9-0.6s0.9-0.2,1.4-0.2c0.5,0,1,0.1,1.3,0.2s0.6,0.3,0.7,0.5s0.3,0.4,0.3,0.7c0,0.2,0.1,0.5,0.1,1v1.4c0,1,0,1.6,0.1,1.9
		s0.1,0.5,0.3,0.7h-1.1C429,219.8,428.9,219.5,428.9,219.2z M428.8,216.9c-0.4,0.2-1,0.3-1.7,0.4c-0.4,0.1-0.7,0.1-0.9,0.2
		s-0.3,0.2-0.4,0.3s-0.1,0.3-0.1,0.5c0,0.3,0.1,0.5,0.3,0.7s0.5,0.3,0.9,0.3c0.4,0,0.8-0.1,1.1-0.3s0.5-0.4,0.7-0.7
		c0.1-0.2,0.2-0.6,0.2-1.1V216.9z"/>
	<path fill="#666666" d="M433.8,219.1l0.2,0.9c-0.3,0.1-0.6,0.1-0.8,0.1c-0.4,0-0.7-0.1-0.9-0.2s-0.4-0.3-0.4-0.5s-0.1-0.6-0.1-1.2
		v-3.6h-0.8v-0.8h0.8v-1.5l1-0.6v2.2h1.1v0.8h-1.1v3.6c0,0.3,0,0.5,0.1,0.6s0.1,0.2,0.2,0.2s0.2,0.1,0.4,0.1
		C433.4,219.1,433.6,219.1,433.8,219.1z"/>
	<path fill="#666666" d="M439.1,218l1.1,0.1c-0.2,0.6-0.5,1.1-1,1.5s-1.1,0.5-1.8,0.5c-0.9,0-1.6-0.3-2.2-0.8s-0.8-1.3-0.8-2.4
		c0-1,0.3-1.9,0.8-2.4s1.2-0.9,2.1-0.9c0.8,0,1.5,0.3,2,0.8s0.8,1.4,0.8,2.4c0,0.1,0,0.2,0,0.3h-4.6c0,0.7,0.2,1.2,0.6,1.6
		s0.8,0.5,1.3,0.5c0.4,0,0.7-0.1,1-0.3S438.9,218.4,439.1,218z M435.6,216.3h3.5c0-0.5-0.2-0.9-0.4-1.2c-0.3-0.4-0.8-0.6-1.3-0.6
		c-0.5,0-0.9,0.2-1.2,0.5S435.6,215.7,435.6,216.3z"/>
	<path fill="#666666" d="M440.9,220v-1.1l4.4-5.5c0.3-0.4,0.6-0.7,0.9-1h-4.8v-1h6.2v1l-4.8,6l-0.5,0.6h5.5v1H440.9z"/>
</g>
<g>
	<path fill="#666666" d="M183.9,28.6h4.4v0.9H185v2.7h3.1V33H185v3.7h-1V28.6z"/>
	<path fill="#666666" d="M190.6,29.2c0,0.4-0.3,0.6-0.7,0.6c-0.4,0-0.6-0.3-0.6-0.6c0-0.4,0.3-0.7,0.7-0.7
		C190.3,28.6,190.6,28.9,190.6,29.2z M189.4,36.7v-5.8h1.1v5.8H189.4z"/>
	<path fill="#666666" d="M197.2,30.9c0,0.4,0,0.9,0,1.6v3.4c0,1.3-0.3,2.1-0.8,2.7c-0.6,0.5-1.4,0.7-2.1,0.7c-0.7,0-1.5-0.2-1.9-0.5
		l0.3-0.8c0.4,0.2,1,0.5,1.7,0.5c1.1,0,1.9-0.6,1.9-2v-0.6h0c-0.3,0.5-0.9,1-1.8,1c-1.4,0-2.5-1.2-2.5-2.8c0-2,1.3-3.1,2.6-3.1
		c1,0,1.6,0.5,1.8,1h0l0-0.9H197.2z M196.1,33.2c0-0.2,0-0.3-0.1-0.5c-0.2-0.6-0.7-1.1-1.5-1.1c-1,0-1.7,0.9-1.7,2.2
		c0,1.1,0.6,2.1,1.7,2.1c0.6,0,1.2-0.4,1.5-1.1c0.1-0.2,0.1-0.4,0.1-0.6V33.2z"/>
	<path fill="#666666" d="M203.4,29.9L203.4,29.9l-1.4,0.7l-0.2-0.8l1.7-0.9h0.9v7.8h-1V29.9z"/>
</g>
</svg>
