<?xml version="1.0" encoding="UTF-8" standalone="no"?>
<svg
   xmlns:dc="http://purl.org/dc/elements/1.1/"
   xmlns:cc="http://creativecommons.org/ns#"
   xmlns:rdf="http://www.w3.org/1999/02/22-rdf-syntax-ns#"
   xmlns:svg="http://www.w3.org/2000/svg"
   xmlns="http://www.w3.org/2000/svg"
   viewBox="0 0 455.72 431.97333"
   xml:space="preserve"
   version="1.1"
   id="svg2"><metadata
     id="metadata8"><rdf:RDF><cc:Work
         rdf:about=""><dc:format>image/svg+xml</dc:format><dc:type
           rdf:resource="http://purl.org/dc/dcmitype/StillImage" /></cc:Work></rdf:RDF></metadata><defs
     id="defs6"><clipPath
       id="clipPath18"
       clipPathUnits="userSpaceOnUse"><path
         id="path20"
         d="M 0,3239.81 0,0 l 3417.86,0 0,3239.81 -3417.86,0 z" /></clipPath></defs><g
     transform="matrix(1.3333333,0,0,-1.3333333,0,431.97333)"
     id="g10"><g
       transform="scale(0.1)"
       id="g12"><g
         id="g14"><g
           clip-path="url(#clipPath18)"
           id="g16"><path
             id="path22"
             style="fill:#881e84;fill-opacity:1;fill-rule:nonzero;stroke:none"
             d="m 3054.29,2466.01 c 0,-125.89 -74.84,-227.94 -167.16,-227.94 -92.32,0 -167.16,102.05 -167.16,227.94 0,125.89 74.84,227.95 167.16,227.95 92.32,0 167.16,-102.06 167.16,-227.95" /><path
             id="path24"
             style="fill:#881e84;fill-opacity:1;fill-rule:nonzero;stroke:none"
             d="m 2128.43,2246.66 125.14,0 c 4.88,0 9.47,-1.62 13.82,-4.87 4.33,-3.26 8,-8.42 10.99,-15.46 2.96,-7.05 5.14,-16.4 6.5,-28.05 1.34,-11.66 2.03,-25.61 2.03,-41.88 0,-32.53 -2.85,-56.11 -8.53,-70.75 -5.71,-14.63 -27.4,-19.11 -38.24,-19.11 l -360.63,-2.84 0,-225.25 c 18.96,2.15 37.81,3.52 56.51,4.06 18.71,0.53 38.35,0.82 58.96,0.82 56.92,0 107.47,-6.65 151.66,-19.92 44.18,-13.29 81.32,-32.81 111.4,-58.55 30.09,-25.76 52.98,-57.74 68.71,-95.95 15.72,-38.23 23.59,-82.55 23.59,-132.96 0,-56.93 -9.9,-107.75 -29.68,-152.48 -19.8,-44.72 -47.71,-82.4 -83.77,-113.02 -36.05,-30.64 -79.41,-54.08 -130.1,-70.35 -50.7,-16.26 -106.93,-24.39 -168.73,-24.39 -32.53,0 -63.43,2.04 -92.71,6.09 -29.27,4.08 -55.58,9.23 -78.88,15.46 -23.31,6.22 -42.42,12.46 -57.32,18.7 -14.92,6.23 -24.68,11.38 -29.27,15.45 -4.62,4.06 -8.02,8.54 -10.17,13.42 -2.18,4.88 -3.94,10.7 -5.29,17.49 -1.36,6.77 -2.32,15.3 -2.85,25.61 -0.54,10.28 -0.81,22.48 -0.81,36.59 0,15.17 0.53,28.05 1.63,38.63 1.08,10.56 2.85,19.11 5.28,25.61 2.45,6.51 5.29,11.1 8.54,13.82 3.25,2.71 7.04,4.07 11.39,4.07 5.41,0 13.68,-3.12 24.8,-9.35 11.1,-6.24 25.74,-13.15 43.91,-20.74 18.16,-7.6 40.25,-14.51 66.27,-20.74 26.03,-6.23 57.19,-9.34 93.52,-9.34 31.43,0 60.04,3.25 85.79,9.75 25.74,6.51 47.57,16.94 65.46,31.32 17.89,14.35 31.71,32.38 41.47,54.07 9.76,21.67 14.64,47.69 14.64,78.06 0,26.02 -4.07,49.2 -12.2,69.53 -8.13,20.32 -20.88,37.53 -38.22,51.64 -17.36,14.08 -39.84,24.66 -67.49,31.71 -27.65,7.04 -61.27,10.57 -100.83,10.57 -31.45,0 -60.05,-1.63 -85.8,-4.88 -25.75,-3.25 -50.01,-4.88 -72.77,-4.88 -15.74,0 -26.98,3.93 -33.75,11.8 -6.79,7.85 -10.17,22.36 -10.17,43.5 l 0,457.01 c 0,21.67 4.2,37.27 12.6,46.75 8.41,9.48 21.82,14.23 40.26,14.23 l 210.84,0" /><path
             id="path26"
             style="fill:#881e84;fill-opacity:1;fill-rule:nonzero;stroke:none"
             d="m 1611.4,1293.39 c 0,-15.24 -0.66,-28.24 -1.96,-39 -1.32,-10.77 -3.29,-19.57 -5.91,-26.39 -2.64,-6.84 -6.05,-11.7 -10.25,-14.58 -4.21,-2.89 -8.93,-4.33 -14.18,-4.33 l -586.143,0 c -11.562,0 -21.543,1.04 -29.937,3.15 -8.411,2.09 -15.239,6.17 -20.485,12.21 -5.258,6.03 -9.058,14.83 -11.422,26.39 -2.363,11.55 -3.547,26.52 -3.547,44.91 0,17.33 0.789,32.16 2.364,44.51 1.578,12.34 4.457,23.37 8.668,33.09 4.195,9.71 9.578,19.17 16.148,28.36 6.559,9.19 15.094,19.31 25.606,30.34 l 176.478,189.08 c 35.18,36.75 63.54,70.24 85.08,100.44 21.53,30.2 38.33,57.77 50.42,82.73 12.08,24.94 20.35,47.92 24.82,68.93 4.46,21 6.7,40.97 6.7,59.88 0,17.33 -2.76,33.74 -8.28,49.24 -5.51,15.48 -13.66,29.01 -24.42,40.57 -10.77,11.55 -24.3,20.61 -40.57,27.18 -16.29,6.56 -35.45,9.85 -57.51,9.85 -31,0 -58.44,-3.94 -82.33,-11.82 -23.91,-7.88 -44.91,-16.68 -63.03,-26.39 -18.12,-9.73 -33.23,-18.65 -45.3,-26.79 -12.086,-8.15 -21.543,-12.21 -28.359,-12.21 -4.731,0 -8.805,1.58 -12.211,4.73 -3.426,3.15 -6.184,8.39 -8.274,15.75 -2.109,7.35 -3.816,17.2 -5.121,29.55 -1.32,12.33 -1.968,27.43 -1.968,45.3 0,12.07 0.39,22.18 1.179,30.33 0.789,8.13 1.969,15.22 3.547,21.27 1.574,6.03 3.668,11.29 6.301,15.76 2.621,4.45 7.215,9.85 13.789,16.15 6.559,6.3 18.637,14.3 36.237,24.03 17.59,9.71 39.26,19.16 65,28.36 25.73,9.18 54.09,16.94 85.08,23.24 30.99,6.3 63.29,9.45 96.91,9.45 53.04,0 99.39,-6.69 139.05,-20.09 39.65,-13.39 72.6,-32.04 98.87,-55.93 26.26,-23.91 45.82,-52.27 58.7,-85.09 12.86,-32.83 19.3,-68.14 19.3,-105.96 0,-33.09 -3.15,-65.66 -9.46,-97.69 -6.3,-32.05 -19.44,-66.57 -39.39,-103.6 -19.96,-37.03 -48.06,-78 -84.3,-122.9 -36.24,-44.91 -84.29,-97.04 -144.17,-156.39 l -118.96,-122.11 401.79,0 c 5.25,0 10.11,-1.58 14.58,-4.73 4.45,-3.15 8.27,-8.02 11.42,-14.57 3.15,-6.58 5.52,-15.24 7.09,-26 1.58,-10.78 2.36,-23.51 2.36,-38.21" /><path
             id="path28"
             style="fill:#4c328e;fill-opacity:1;fill-rule:nonzero;stroke:none"
             d="M 1720.13,4.42969 C 1203.88,104.309 -847.754,1711.19 391.863,2664.67 1327.89,3283.97 2132.26,2241.78 1888.67,2426.2 1090.48,3030.51 -689.969,1402.41 1719.6,0" /><path
             id="path30"
             style="fill:#4c328e;fill-opacity:1;fill-rule:nonzero;stroke:none"
             d="m 2122.94,2939.83 c 0,-165.67 -132.27,-299.98 -295.45,-299.98 -163.17,0 -295.45,134.31 -295.45,299.98 0,165.67 132.28,299.98 295.45,299.98 163.18,0 295.45,-134.31 295.45,-299.98" /><path
             id="path32"
             style="fill:#881e84;fill-opacity:1;fill-rule:nonzero;stroke:none"
             d="m 1139.62,826.129 0,-119.258 c 0,-1.742 -0.56,-3.32 -1.7,-4.711 -1.14,-1.398 -3.01,-2.539 -5.63,-3.41 -2.63,-0.871 -6.16,-1.57 -10.62,-2.102 -4.46,-0.519 -10,-0.777 -16.64,-0.777 -6.82,0 -12.41,0.258 -16.78,0.777 -4.37,0.532 -7.91,1.231 -10.61,2.102 -2.71,0.871 -4.59,2.012 -5.64,3.41 -1.05,1.391 -1.57,2.969 -1.57,4.711 l 0,119.258 -92.789,184.791 c -3.321,6.46 -5.461,11.49 -6.422,15.07 -0.961,3.58 -0.438,6.29 1.574,8.13 2.008,1.83 5.723,2.97 11.141,3.4 5.414,0.44 12.929,0.66 22.536,0.66 8.04,0 14.46,-0.18 19.27,-0.52 4.8,-0.36 8.6,-1.01 11.4,-1.97 2.8,-0.96 4.85,-2.23 6.16,-3.8 1.31,-1.57 2.58,-3.58 3.8,-6.03 l 37.74,-83.348 c 3.67,-8.043 7.3,-16.512 10.88,-25.422 3.58,-8.922 7.21,-18.262 10.88,-28.051 l 0.52,0 c 3.32,9.441 6.73,18.609 10.23,27.52 3.49,8.91 6.9,17.39 10.22,25.429 l 37.22,82.822 c 0.87,2.79 1.96,5.02 3.27,6.69 1.31,1.66 3.28,3.01 5.9,4.06 2.62,1.05 6.2,1.74 10.75,2.1 4.54,0.34 10.57,0.52 18.08,0.52 9.96,0 17.69,-0.22 23.2,-0.66 5.5,-0.43 9.26,-1.57 11.27,-3.4 2.01,-1.84 2.49,-4.59 1.44,-8.26 -1.05,-3.67 -3.14,-8.65 -6.29,-14.94 l -92.79,-184.791" /><path
             id="path34"
             style="fill:#881e84;fill-opacity:1;fill-rule:nonzero;stroke:none"
             d="m 1482.46,724.441 c 0,-5.07 -0.22,-9.312 -0.65,-12.722 -0.44,-3.399 -1.1,-6.16 -1.97,-8.25 -0.87,-2.098 -1.96,-3.629 -3.28,-4.59 -1.31,-0.957 -2.75,-1.438 -4.32,-1.438 l -170.37,0 c -5.77,0 -10.62,1.7 -14.55,5.11 -3.93,3.41 -5.89,8.949 -5.89,16.64 l 0,295.659 c 0,7.69 1.96,13.24 5.89,16.65 3.93,3.4 8.78,5.11 14.55,5.11 l 169.32,0 c 1.57,0 2.97,-0.44 4.2,-1.31 1.22,-0.88 2.27,-2.41 3.14,-4.59 0.87,-2.19 1.53,-4.98 1.97,-8.39 0.43,-3.41 0.65,-7.73 0.65,-12.97 0,-4.9 -0.22,-9.05 -0.65,-12.452 -0.44,-3.41 -1.1,-6.16 -1.97,-8.257 -0.87,-2.102 -1.92,-3.629 -3.14,-4.59 -1.23,-0.961 -2.63,-1.442 -4.2,-1.442 l -121.09,0 0,-82.82 102.48,0 c 1.57,0 3.02,-0.488 4.33,-1.449 1.31,-0.961 2.4,-2.449 3.27,-4.449 0.88,-2.012 1.53,-4.719 1.97,-8.129 0.44,-3.403 0.65,-7.551 0.65,-12.453 0,-5.059 -0.21,-9.258 -0.65,-12.579 -0.44,-3.32 -1.09,-5.98 -1.97,-7.992 -0.87,-2.008 -1.96,-3.449 -3.27,-4.328 -1.31,-0.871 -2.76,-1.308 -4.33,-1.308 l -102.48,0 0,-95.672 122.14,0 c 1.57,0 3.01,-0.481 4.32,-1.442 1.32,-0.957 2.41,-2.488 3.28,-4.59 0.87,-2.089 1.53,-4.839 1.97,-8.25 0.43,-3.41 0.65,-7.648 0.65,-12.707" /><path
             id="path36"
             style="fill:#881e84;fill-opacity:1;fill-rule:nonzero;stroke:none"
             d="m 1658.86,971.871 -0.26,0 -47.97,-144.16 96.2,0 -47.97,144.16 z m 155.69,-248.742 c 2.1,-6.301 3.41,-11.277 3.93,-14.949 0.53,-3.66 -0.17,-6.418 -2.09,-8.25 -1.92,-1.84 -5.33,-2.969 -10.22,-3.41 -4.9,-0.442 -11.62,-0.649 -20.19,-0.649 -8.91,0 -15.85,0.129 -20.83,0.391 -4.98,0.258 -8.78,0.789 -11.41,1.566 -2.62,0.793 -4.45,1.883 -5.5,3.281 -1.05,1.403 -1.92,3.231 -2.62,5.5 l -22.8,68.153 -127.39,0 -21.49,-66.313 c -0.7,-2.449 -1.62,-4.5 -2.75,-6.16 -1.14,-1.66 -2.97,-2.969 -5.51,-3.93 -2.53,-0.968 -6.11,-1.621 -10.75,-1.968 -4.63,-0.352 -10.7,-0.52 -18.21,-0.52 -8.04,0 -14.33,0.258 -18.87,0.777 -4.55,0.532 -7.69,1.793 -9.44,3.801 -1.75,2.012 -2.36,4.852 -1.83,8.52 0.52,3.672 1.83,8.562 3.93,14.679 l 104.58,300.902 c 1.05,2.97 2.27,5.37 3.67,7.21 1.4,1.83 3.62,3.23 6.68,4.19 3.06,0.96 7.3,1.57 12.71,1.84 5.42,0.26 12.59,0.39 21.5,0.39 10.31,0 18.52,-0.13 24.64,-0.39 6.11,-0.27 10.87,-0.88 14.28,-1.84 3.41,-0.96 5.85,-2.4 7.34,-4.32 1.48,-1.93 2.75,-4.55 3.8,-7.87 l 104.84,-300.631" /><path
             id="path38"
             style="fill:#881e84;fill-opacity:1;fill-rule:nonzero;stroke:none"
             d="m 2024.76,936.48 c 0,11.18 -2.53,20.622 -7.6,28.309 -5.06,7.691 -13.36,13.102 -24.9,16.25 -3.49,0.871 -7.47,1.57 -11.92,2.102 -4.46,0.519 -10.62,0.777 -18.48,0.777 l -30.93,0 0,-96.188 35.12,0 c 9.79,0 18.35,1.18 25.69,3.54 7.34,2.359 13.45,5.671 18.35,9.96 4.89,4.282 8.56,9.391 11,15.329 2.45,5.941 3.67,12.582 3.67,19.921 z m 88.86,-230.128 c 0,-1.922 -0.35,-3.543 -1.05,-4.852 -0.7,-1.309 -2.36,-2.398 -4.98,-3.281 -2.62,-0.867 -6.46,-1.481 -11.53,-1.828 -5.07,-0.352 -11.97,-0.52 -20.71,-0.52 -7.34,0 -13.19,0.168 -17.56,0.52 -4.37,0.347 -7.82,1 -10.35,1.968 -2.54,0.961 -4.33,2.18 -5.38,3.672 -1.05,1.481 -1.92,3.27 -2.62,5.367 l -30.4,75.75 c -3.67,8.563 -7.25,16.161 -10.75,22.801 -3.49,6.641 -7.38,12.192 -11.66,16.653 -4.28,4.449 -9.22,7.808 -14.81,10.089 -5.59,2.27 -12.06,3.399 -19.4,3.399 l -21.49,0 0,-129.219 c 0,-1.742 -0.57,-3.32 -1.7,-4.711 -1.14,-1.398 -3.02,-2.539 -5.64,-3.41 -2.62,-0.871 -6.12,-1.57 -10.48,-2.102 -4.37,-0.519 -9.96,-0.777 -16.78,-0.777 -6.64,0 -12.19,0.258 -16.64,0.777 -4.46,0.532 -8,1.231 -10.62,2.102 -2.62,0.871 -4.45,2.012 -5.5,3.41 -1.05,1.391 -1.58,2.969 -1.58,4.711 l 0,307.979 c 0,7.69 1.97,13.24 5.9,16.65 3.93,3.4 8.78,5.11 14.55,5.11 l 87.81,0 c 8.91,0 16.25,-0.18 22.01,-0.53 5.77,-0.35 11.01,-0.78 15.73,-1.31 13.63,-1.93 25.9,-5.24 36.83,-9.96 10.92,-4.72 20.18,-10.88 27.78,-18.48 7.6,-7.6 13.41,-16.6 17.43,-26.99 4.02,-10.399 6.03,-22.328 6.03,-35.781 0,-11.368 -1.44,-21.719 -4.33,-31.059 -2.88,-9.352 -7.12,-17.691 -12.71,-25.031 -5.59,-7.34 -12.49,-13.719 -20.71,-19.141 -8.21,-5.406 -17.56,-9.777 -28.04,-13.098 5.07,-2.449 9.83,-5.421 14.28,-8.91 4.46,-3.5 8.65,-7.742 12.58,-12.718 3.94,-4.981 7.65,-10.661 11.14,-17.032 3.5,-6.379 6.91,-13.59 10.23,-21.629 l 28.57,-66.832 c 2.62,-6.64 4.36,-11.488 5.24,-14.55 0.87,-3.059 1.31,-5.457 1.31,-7.207" /><path
             id="path40"
             style="fill:#881e84;fill-opacity:1;fill-rule:nonzero;stroke:none"
             d="m 2360,799.141 c 0,-17.832 -3.32,-33.473 -9.96,-46.922 -6.64,-13.457 -15.64,-24.68 -27,-33.68 -11.35,-9 -24.63,-15.769 -39.84,-20.32 -15.2,-4.539 -31.45,-6.809 -48.75,-6.809 -11.71,0 -22.58,0.961 -32.63,2.879 -10.05,1.93 -18.92,4.242 -26.61,6.949 -7.68,2.711 -14.11,5.551 -19.26,8.524 -5.16,2.968 -8.87,5.59 -11.14,7.859 -2.27,2.27 -3.89,5.547 -4.85,9.828 -0.96,4.281 -1.44,10.442 -1.44,18.481 0,5.422 0.17,9.961 0.52,13.629 0.35,3.671 0.92,6.64 1.71,8.91 0.78,2.269 1.83,3.89 3.14,4.851 1.31,0.961 2.84,1.442 4.59,1.442 2.45,0 5.9,-1.442 10.35,-4.321 4.46,-2.89 10.18,-6.082 17.17,-9.57 6.99,-3.5 15.33,-6.691 25.03,-9.57 9.7,-2.883 20.93,-4.321 33.68,-4.321 8.39,0 15.9,1 22.54,3.008 6.64,2.012 12.28,4.852 16.91,8.524 4.63,3.668 8.17,8.207 10.62,13.629 2.44,5.418 3.67,11.437 3.67,18.078 0,7.691 -2.1,14.293 -6.3,19.793 -4.19,5.508 -9.65,10.398 -16.38,14.679 -6.72,4.278 -14.37,8.297 -22.93,12.059 -8.56,3.762 -17.39,7.73 -26.47,11.93 -9.09,4.191 -17.92,8.949 -26.48,14.281 -8.56,5.328 -16.2,11.707 -22.93,19.129 -6.73,7.43 -12.19,16.211 -16.38,26.351 -4.2,10.129 -6.29,22.27 -6.29,36.43 0,16.25 3.01,30.527 9.04,42.848 6.03,12.321 14.15,22.541 24.37,30.671 10.23,8.13 22.28,14.19 36.18,18.22 13.89,4.02 28.61,6.03 44.16,6.03 8.04,0 16.08,-0.62 24.11,-1.84 8.04,-1.22 15.56,-2.88 22.55,-4.98 6.99,-2.1 13.19,-4.46 18.61,-7.08 5.41,-2.62 8.99,-4.81 10.74,-6.55 1.75,-1.75 2.93,-3.24 3.54,-4.46 0.61,-1.22 1.14,-2.84 1.57,-4.84 0.44,-2.01 0.75,-4.55 0.92,-7.61 0.18,-3.05 0.26,-6.85 0.26,-11.401 0,-5.07 -0.13,-9.348 -0.39,-12.84 -0.26,-3.5 -0.7,-6.379 -1.31,-8.648 -0.61,-2.27 -1.49,-3.93 -2.62,-4.981 -1.14,-1.051 -2.67,-1.57 -4.59,-1.57 -1.92,0 -4.98,1.219 -9.17,3.672 -4.2,2.437 -9.35,5.109 -15.47,7.988 -6.11,2.879 -13.19,5.512 -21.23,7.859 -8.04,2.36 -16.86,3.539 -26.47,3.539 -7.51,0 -14.07,-0.91 -19.66,-2.75 -5.59,-1.828 -10.26,-4.367 -14.02,-7.597 -3.76,-3.242 -6.55,-7.121 -8.39,-11.66 -1.83,-4.551 -2.75,-9.352 -2.75,-14.422 0,-7.508 2.05,-14.02 6.16,-19.528 4.1,-5.5 9.61,-10.39 16.51,-14.679 6.9,-4.282 14.72,-8.301 23.46,-12.051 8.74,-3.762 17.65,-7.731 26.73,-11.93 9.09,-4.191 18,-8.953 26.74,-14.281 8.74,-5.332 16.51,-11.711 23.33,-19.141 6.81,-7.418 12.32,-16.16 16.51,-26.211 4.19,-10.046 6.29,-21.878 6.29,-35.507" /><path
             id="path42"
             style="fill:#881e84;fill-opacity:1;fill-rule:nonzero;stroke:none"
             d="m 2021.41,4.12891 c 0,0 1263.18,701.10909 1169.39,1653.50109 -48.87,414.92 238.05,801.45 226.73,808.3 -9.96,6.03 -180.04,-317.58 -408.98,-390.87 -80.74,-25.85 -163.17,-25.24 -163.17,-25.24 -98.13,0.74 -170.48,29.65 -200.34,41.92 -222.45,91.38 -362.04,329.05 -371.8,322.17 -11.44,-8.04 315.27,-373.78 382.61,-571.48 C 3232.71,705.238 2021.41,4.12891 2021.41,4.12891" /><path
             id="path44"
             style="fill:#881e84;fill-opacity:1;fill-rule:nonzero;stroke:none"
             d="m 1288.33,386.66 c 0,0 26.36,-14.672 72.49,-40.351 11.83,-5.571 24.92,-11.75 39.18,-18.469 14.21,-6.738 29.3,-14.481 46.5,-20.649 17,-6.48 34.82,-14.043 54.01,-20.761 19.43,-5.961 39.85,-12.219 61.16,-18.75 21.76,-4.711 44.28,-10.078 67.69,-14.739 11.82,-1.613 23.84,-3.261 36.05,-4.921 12.19,-1.649 24.51,-3.719 37.18,-3.918 25.25,-1.313 51.07,-3.313 77.49,-1.731 26.45,-0.32 53.17,3.649 80.31,6.551 53.92,8.84 108.68,22.988 161.4,45.066 52.46,22.602 102.92,51.551 149.68,85.672 46.48,34.602 88.56,74.852 125.93,117.738 37.7,42.711 69.3,89.223 98.45,134.75 29.92,45.243 53.33,92.282 75.87,136.782 10.06,22.8 20.86,44.679 28.71,66.859 4.39,10.949 8.71,21.711 12.95,32.281 3.67,10.782 7.27,21.36 10.79,31.719 14.04,41.563 24.44,80.602 32.43,115.671 4.55,17.47 6.71,34.14 9.87,49.49 3.44,15.36 4.92,29.63 6.8,42.55 4.26,25.85 5.55,46.39 7.08,60.48 1.49,14.14 2.29,21.68 2.29,21.68 l 8,0.54 c 0,0 1.3,-7.53 3.75,-21.64 2.43,-14.16 6.22,-35.06 7.63,-61.94 2.66,-26.93 2.65,-59.74 1.03,-97.52 -2.49,-37.639 -6.85,-80.362 -16.92,-125.998 -8.86,-45.993 -24.04,-94.551 -43.16,-144.852 -10.11,-24.898 -20.68,-50.559 -33.8,-75.629 -6.46,-12.59 -13.05,-25.301 -19.99,-37.98 -7.54,-12.332 -15.16,-24.782 -22.84,-37.34 -32.29,-49.192 -69.58,-97.77 -113.9,-141.051 -43.98,-43.422 -91.57,-84.719 -144.15,-119.129 -52.47,-34.461 -108.66,-63.051 -166.47,-84.551 -58.09,-21.011 -117.79,-33.308 -175.82,-39.8 -29.19,-1.731 -57.77,-4.418 -85.83,-2.739 -13.99,0.668 -27.89,-0.082 -41.46,1.778 -13.56,1.562 -26.96,3.109 -40.18,4.632 -13.26,1.098 -26.05,4.047 -38.68,6.579 -12.61,2.558 -25.03,5.082 -37.24,7.55 -24.05,6.391 -47.03,13.43 -69.12,19.739 -21.48,8.109 -42.06,15.89 -61.64,23.281 -19.23,8.14 -36.95,17.019 -53.83,24.73 -17.03,7.371 -32.07,16.301 -46.13,24.121 -13.98,7.911 -26.82,15.168 -38.41,21.731 -44.11,29.039 -69.32,45.629 -69.32,45.629 l 4.17,6.859" /></g></g></g></g></svg>