<?xml version="1.0" encoding="UTF-8" standalone="no"?>
<!-- Created with Inkscape (http://www.inkscape.org/) -->

<svg
   xmlns:dc="http://purl.org/dc/elements/1.1/"
   xmlns:cc="http://creativecommons.org/ns#"
   xmlns:rdf="http://www.w3.org/1999/02/22-rdf-syntax-ns#"
   xmlns:svg="http://www.w3.org/2000/svg"
   xmlns="http://www.w3.org/2000/svg"
   xmlns:sodipodi="http://sodipodi.sourceforge.net/DTD/sodipodi-0.dtd"
   xmlns:inkscape="http://www.inkscape.org/namespaces/inkscape"
   id="svg5899"
   version="1.1"
   inkscape:version="0.91 r13725"
   xml:space="preserve"
   width="6377.9531"
   height="4251.9663"
   viewBox="0 0 6377.9531 4251.9663"
   sodipodi:docname="Bild_54_a_-_Vorwegweiser zu Straßenkreuzungen und Abzweigungen,_StVO_DDR 1964.svg"><metadata
     id="metadata5905"><rdf:RDF><cc:Work
         rdf:about=""><dc:format>image/svg+xml</dc:format><dc:type
           rdf:resource="http://purl.org/dc/dcmitype/StillImage" /><dc:title></dc:title></cc:Work></rdf:RDF></metadata><defs
     id="defs5903" /><sodipodi:namedview
     pagecolor="#ffffff"
     bordercolor="#666666"
     borderopacity="1"
     objecttolerance="10"
     gridtolerance="10"
     guidetolerance="10"
     inkscape:pageopacity="0"
     inkscape:pageshadow="2"
     inkscape:window-width="699"
     inkscape:window-height="480"
     id="namedview5901"
     showgrid="false"
     inkscape:zoom="0.055503732"
     inkscape:cx="3188.9766"
     inkscape:cy="2125.9832"
     inkscape:window-x="0"
     inkscape:window-y="0"
     inkscape:window-maximized="0"
     inkscape:current-layer="g5907" /><g
     id="g5907"
     inkscape:groupmode="layer"
     inkscape:label="Bild_54_a_-_Vorwegweiser,_StVO_DDR 1964"
     transform="matrix(1.25,0,0,-1.25,0,4251.9662)"><g
       id="g5909"><g
         id="g5911"
         transform="matrix(1,0,0,-0.971463,0,3401.573)"><path
           d="m 113.793,2.405 c 0,0 -110.086,-2.807 -110.391,110.243 -2.097,246.049 -0.472,3026.773 0,3275.476 -0.308,113.247 110.567,111.011 110.567,111.011 l 4874.422,0 c 0,0 110.879,2.236 110.566,-111.011 0.477,-248.703 2.102,-3029.427 0,-3275.476 C 5098.652,-0.402 4988.566,2.405 4988.566,2.405 2758.902,2.3 2379.391,2.392 113.793,2.405 Z"
           style="fill:#e6b634;fill-opacity:1;fill-rule:nonzero;stroke:#000000;stroke-width:4.71091604;stroke-linecap:butt;stroke-linejoin:miter;stroke-miterlimit:4;stroke-dasharray:none;stroke-opacity:1"
           id="path5913"
           inkscape:connector-curvature="0" /></g><path
         d="M 144.066,3356.257 C 57.082,3356.034 46.422,3324.6 46.914,3267.061 l 0,-3125.238 c -0.492,-57.535 8.563,-96.219 95.551,-96.441 1605.812,0.582 3211.621,0.265 4817.433,0 86.989,0.222 96.043,38.906 95.551,96.441 l 0,3125.238 c 0.492,57.539 -10.168,88.973 -97.152,89.196 -1604.742,-1.582 -3209.488,-0.719 -4814.231,0 z m -0.769,-53.618 0,-0.01 c 1606.055,-2.125 3209.641,-0.739 4815.769,0 38.469,-0.133 39.356,-2.114 39.442,-34.407 l 0,-3136.757 c -0.086,-33.532 0.562,-33.235 -37.844,-32.864 -1338.035,0.692 -4013.562,0.16 -4013.562,0.16 l 0,481.371 -170.168,0 0,400.559 1823.668,0 0,-157.316 333.175,319.715 -333.175,334.64 0,-156.281 -1823.668,0 0,821.148 161.289,0 -345.653,308.102 -345.562,-308.164 161.543,0 0,-1562.403 -166.86,0 0,-481.511 c 0,0 -66.66,-0.016 -99.992,-0.016 -38.406,-0.371 -37.761,-0.668 -37.847,32.863 l 0,3136.758 c 0.086,32.293 0.972,34.27 39.445,34.406 l 0,0 z m 1096.82,-147.074 c -26.48,0 -47.984,-19.851 -47.984,-44.344 0,-24.531 21.504,-44.382 47.984,-44.382 26.485,0 47.985,19.851 47.985,44.382 0,24.493 -21.5,44.344 -47.985,44.344 z m -962.031,-1.254 120.949,-551.156 1.016,0 -0.254,-0.703 75.816,0 83.426,379.945 83.422,-379.945 75.816,0 -0.254,0.703 1.016,0 120.949,551.156 -76.07,0 -83.422,-379.945 -83.172,379.945 -38.285,-0.468 -38.289,0.468 -83.172,-379.945 -83.422,379.945 -76.07,0 z m 1386.555,-155.234 0.01,-0.02 c -24.695,0 -64.05,-4.898 -85.218,-23.922 -9.383,7.61 -12.344,9.231 -19.969,13.051 -32.324,15.758 -82.289,11.949 -111.074,1.078 l 0,4.895 -75.797,0 1.765,-391.219 75.797,0 -1.765,277.621 0,20.649 c 0,15.218 20.57,27.73 37.011,27.73 2.364,0 5.293,-0.551 7.649,-1.094 1.164,0 1.766,-0.539 2.93,-0.539 11.179,-4.359 26.453,-14.136 26.453,-26.105 l 0,-13.574 1.168,-284.696 76.39,0 c 0,88.578 -1.761,211.856 -1.761,298.27 0,15.215 19.968,27.73 36.449,27.73 16.441,0 37.012,-12.523 37.012,-27.73 0,-88.598 1.765,-209.149 1.765,-298.27 l 75.797,0 -1.766,310.805 c 0,26.633 1.766,44.023 -18.207,61.418 -22.332,19.023 -41.136,21.738 -64.636,23.922 z m 642.554,-0.336 c -1.101,0 -2.203,-0.01 -3.304,-0.02 l 0,-0.011 c -19.414,-0.563 -37.922,-4.211 -51.891,-9.821 l 0,7.844 -75.543,0 0,-393.805 75.543,0 0,280.149 c 0,15.441 2.738,27.504 7.902,35.641 8.196,9.257 18.52,12.351 29.739,12.351 11.828,0 20.933,-3.648 27.293,-10.945 6.371,-7.309 9.718,-17.395 9.718,-30.039 l 0,-85.184 75.246,0 0,113.832 c 0.293,8.145 -0.312,16.277 -1.832,24.141 -1.511,7.84 -4.242,14.867 -8.187,20.488 -15.27,25.547 -50.5,35.301 -84.684,35.379 z m -344.105,-1.953 0,-0.01 c -22.883,0 -42.684,-4.578 -60.067,-13.887 -17.089,-9.023 -29.953,-21.109 -38.785,-36.351 -4.89,-8.735 -8.531,-19.188 -11.258,-31.59 -1.847,-11.836 -2.761,-32.262 -2.761,-46.633 l 75.707,-1.633 0,20.039 c 0,13.52 3.367,23.125 9.758,29.618 7.015,7.054 16.125,10.414 27.414,10.414 11.277,0 20.386,-3.368 26.765,-10.414 7.02,-6.493 10.375,-16.098 10.375,-29.618 l 0,-63.203 c -16.246,7.723 -34.566,11.465 -55.429,11.465 -23.164,0 -43.278,-4.465 -60.063,-13.781 -17.07,-9.024 -29.82,-21.098 -38.656,-36.324 -5.496,-8.754 -9.27,-19.184 -11.399,-31.618 -1.41,-9.07 -2.343,-18.855 -2.757,-29.382 l -0.235,0 c 0,-1.668 0.082,-3.235 0.11,-4.868 -0.039,-1.66 -0.11,-3.273 -0.11,-4.972 l 0.235,0 c 0.402,-10.543 1.347,-20.199 2.757,-29.278 2.129,-12.421 5.903,-22.863 11.399,-31.617 8.836,-15.226 21.586,-27.429 38.656,-36.453 16.777,-9.289 36.887,-13.766 60.063,-13.766 20.863,0 39.183,3.747 55.429,11.446 l 0,-11.446 75.961,0 0,272.813 c 0,14.371 -1.168,27.375 -2.992,39.223 -2.152,12.402 -5.906,22.863 -11.402,31.586 -8.832,15.246 -21.582,27.328 -38.653,36.355 -16.777,9.313 -36.898,13.883 -60.062,13.883 z m -759.625,-4.438 0,-389.41 74.547,0 0,389.41 -74.547,0 z m -220.617,-1.183 0.011,-0.016 c -15.933,0 -31.136,-2.711 -45.582,-8.266 -13.964,-5.507 -26.347,-13.125 -37.281,-22.796 -10.5,-9.684 -18.937,-21.11 -25.391,-34.485 -5.972,-13.359 -8.933,-27.863 -9.054,-43.523 l -0.965,-171.883 c -0.113,-14.742 3.043,-28.832 9.059,-42.207 5.953,-12.891 14.046,-24.375 24.515,-34.488 10.465,-9.653 22.758,-17.457 36.695,-23.481 14.442,-5.508 30.145,-8.265 47.04,-8.265 16.929,0 32.64,2.769 47.054,8.265 14.442,6.024 26.856,14.016 37.281,24.129 10.438,10.18 18.676,21.738 24.68,34.598 5.953,12.937 8.934,26.719 8.934,41.457 l -0.129,0 0,24.449 -77.684,0 0,-26.43 c -0.457,-9.285 -4.32,-17.168 -11.797,-23.582 -7.445,-6.914 -16.695,-10.359 -27.636,-10.359 l -0.711,0 c -11.453,0 -20.989,3.258 -28.43,9.684 -7.508,6.914 -11.391,15.656 -11.199,26.246 l 0.965,74.031 157.586,0 0,97.848 c 0,15.187 -3.184,29.191 -9.645,42.082 -6.004,13.359 -14.555,24.937 -25.5,34.601 -10.437,10.121 -22.871,17.945 -37.285,23.469 -13.934,5.976 -29.09,8.922 -45.531,8.922 z m 0.011,-72.543 0.739,0 c 10.468,0 19.656,-3.426 27.64,-10.36 7.953,-6.445 11.899,-15.148 11.899,-26.191 l 0,-25.219 -79.907,0 0,25.219 c 0,10.617 3.704,19.305 11.2,26.191 7.472,6.942 16.98,10.36 28.429,10.36 z m 970.848,-153.996 c 27.484,0 49.789,-20.629 49.789,-46.082 0,-25.422 -22.305,-46.055 -49.789,-46.055 -27.519,0 -49.82,20.633 -49.82,46.055 0,25.453 22.301,46.082 49.82,46.082 z m 1181.711,-1103.758 -3.516,-457.215 697.133,0 3.508,457.215 -697.125,0 z m 28.129,-28.348 640.43,0 -3.071,-400.523 -640.437,0 3.078,400.523 z m 216.558,-30.414 c -11.652,0 -22.8,-2.383 -33.429,-7.14 -10.285,-4.438 -18.856,-10.778 -25.711,-19.024 -1.027,-1.277 -2.063,-2.543 -3.086,-3.812 -0.691,-0.946 -1.551,-1.903 -2.574,-2.848 -4.797,-6.664 -8.227,-14.113 -10.285,-22.359 -2.063,-8.247 -3.086,-20.301 -3.086,-36.153 l -0.02,0 c 0,-16.812 0.691,-29.816 2.059,-39.012 1.715,-9.203 6.523,-17.445 14.406,-24.738 1.379,-1.586 2.746,-3.008 4.117,-4.277 1.711,-1.266 3.598,-2.692 5.656,-4.277 -1.023,-0.637 -2.058,-1.434 -3.082,-2.383 -1.035,-0.637 -1.886,-1.266 -2.574,-1.903 -9.953,-7.929 -15.945,-17.293 -18.004,-28.07 -1.726,-10.469 -2.578,-27.43 -2.578,-50.902 0,-18.719 0.863,-32.348 2.578,-40.914 1.715,-8.246 4.625,-15.696 8.742,-22.356 0.332,-0.637 0.68,-1.433 1.024,-2.383 0.691,-0.636 1.371,-1.265 2.058,-1.902 5.832,-8.25 14.059,-15.227 24.688,-20.93 10.976,-5.715 24.008,-8.566 39.09,-8.566 15.082,0 27.945,2.859 38.574,8.566 10.973,5.703 19.371,12.68 25.203,20.93 0.692,0.637 1.199,1.266 1.543,1.902 0.688,0.957 1.195,1.746 1.543,2.383 4.117,6.66 7.027,14.11 8.742,22.356 1.723,8.566 2.574,22.207 2.574,40.914 0,23.472 -1.023,40.433 -3.082,50.902 -1.714,10.789 -7.546,20.141 -17.484,28.07 -0.691,0.637 -1.555,1.266 -2.578,1.903 -1.024,0.957 -2.059,1.746 -3.082,2.383 2.058,1.585 3.773,3.011 5.141,4.277 1.714,1.269 3.257,2.691 4.625,4.277 7.882,7.301 12.515,15.547 13.886,24.738 1.723,9.196 2.574,22.2 2.574,39.012 0,15.852 -1.023,27.906 -3.082,36.153 -2.058,8.246 -5.488,15.695 -10.285,22.359 -1.023,0.945 -2.058,1.902 -3.082,2.848 -0.691,1.277 -1.554,2.543 -2.578,3.812 -6.855,8.246 -15.426,14.586 -25.711,19.024 -10.285,4.757 -21.43,7.14 -33.43,7.14 z m 128.903,-2.863 0,-84.715 46.293,0 0,39.008 57.597,0 -92.093,-293.07 0.039,0.082 55.543,0 88.968,290.175 0,48.52 -156.347,0 z m -128.922,-45.695 c 6.855,0 12.859,-2.383 18.004,-7.141 5.14,-4.445 7.719,-9.988 7.719,-16.652 l 0,-49.469 c 0,-6.649 -2.579,-12.363 -7.719,-17.117 -5.145,-4.438 -11.149,-6.664 -18.004,-6.664 -6.523,0 -12.516,2.226 -18.004,6.664 -5.141,4.754 -7.719,10.457 -7.719,17.117 l 0,49.469 c 0,6.664 2.578,12.214 7.719,16.652 5.488,4.758 11.492,7.141 18.004,7.141 z m 0,-133.161 c 6.855,0 12.859,-2.382 18.004,-7.136 5.14,-4.45 7.719,-9.993 7.719,-16.653 l 0,-66.601 c 0,-6.649 -2.579,-12.364 -7.719,-17.117 -5.145,-4.438 -11.149,-6.664 -18.004,-6.664 -6.523,0 -12.516,2.226 -18.004,6.664 -5.141,4.753 -7.719,10.457 -7.719,17.117 l 0,66.601 c 0,6.66 2.578,12.215 7.719,16.653 5.488,4.754 11.492,7.136 18.004,7.136 z m 1027.34,-355.468 0,-179.559 c -47.024,13.199 -94.36,8.227 -128.438,-17.91 -25.336,-16.238 -37.972,-38.227 -37.972,-65.949 l 0,-208.547 c 0.839,-80.211 88.593,-107.906 166.398,-84.528 l 0.012,0.102 0,-7.898 75.125,0 0,564.289 -75.125,0 z m -1281.629,-9.606 -129.067,-556.316 76.071,0.941 20.793,90.059 154.168,0 20.793,-90.766 75.816,0.473 -127.797,554.625 -14.961,0.234 0,0.235 -45.133,0.234 -15.214,0.234 -15.469,0 0,0.047 z m 952.863,-2.59 0,-552.629 74.305,0 0,552.629 -74.305,0 z m -907.472,-128.515 0.046,0 -0.023,-0.11 60.832,-265.382 -122.426,0 61.594,265.382 -0.023,0.11 z m 1522.414,-29.731 0,-0.008 c -22.883,0 -42.684,-4.578 -60.067,-13.886 -17.09,-9.024 -29.949,-21.106 -38.785,-36.352 -4.887,-8.734 -8.531,-19.183 -11.258,-31.586 -1.847,-11.84 -2.758,-32.262 -2.758,-46.633 l 75.704,-1.632 0,20.039 c 0,13.515 3.367,23.125 9.757,29.617 7.02,7.055 16.125,10.41 27.414,10.41 11.278,0 20.387,-3.367 26.77,-10.41 7.016,-6.492 10.375,-16.102 10.375,-29.617 l 0,-63.203 c -16.25,7.718 -34.566,11.464 -55.43,11.464 -23.168,0 -43.281,-4.468 -60.066,-13.785 -17.07,-9.023 -29.817,-21.097 -38.653,-36.32 -5.496,-8.754 -9.273,-19.188 -11.402,-31.617 -1.41,-9.071 -2.34,-18.856 -2.758,-29.383 l -0.23,0 c 0,-1.668 0.078,-3.238 0.109,-4.867 -0.039,-1.66 -0.109,-3.278 -0.109,-4.973 l 0.23,0 c 0.407,-10.547 1.348,-20.199 2.758,-29.281 2.129,-12.422 5.906,-22.86 11.402,-31.613 8.836,-15.227 21.583,-27.434 38.653,-36.458 16.777,-9.289 36.89,-13.761 60.066,-13.761 20.864,0 39.18,3.742 55.43,11.445 l 0,-11.445 75.957,0 0,272.808 c 0,14.371 -1.164,27.375 -2.992,39.223 -2.149,12.402 -5.903,22.863 -11.399,31.59 -8.836,15.246 -21.586,27.324 -38.656,36.351 -16.777,9.317 -36.898,13.883 -60.062,13.883 z m -821.387,-2.429 c -22.86,0 -42.68,-4.504 -60.063,-13.817 -17.058,-9.027 -29.871,-21.148 -38.703,-36.375 -4.89,-8.742 -8.543,-19.183 -11.281,-31.586 -1.836,-11.836 -2.758,-24.804 -2.758,-39.203 l 0,-152.398 c 0,-14.383 0.922,-27.368 2.758,-39.207 2.738,-12.11 6.391,-22.543 11.281,-31.567 8.832,-15.238 21.633,-27.367 38.703,-36.39 17.383,-8.735 37.211,-13.254 60.063,-13.254 23.199,0 43.312,4.519 60.086,13.254 17.07,9.023 29.883,21.164 38.715,36.39 5.488,9.012 9.148,19.457 11.281,31.567 1.844,11.839 3.051,24.824 3.051,39.207 l 0,152.398 c 0,14.399 -1.215,27.367 -3.051,39.203 -2.133,12.403 -5.793,22.836 -11.281,31.586 -8.844,15.238 -21.645,27.348 -38.715,36.375 -16.774,9.313 -36.899,13.817 -60.086,13.817 z m -448.274,-1.34 0,-518.696 74.051,0 0,133.637 c 46.352,-13.012 93.02,-8.113 126.602,17.656 24.972,16.008 37.426,37.715 37.426,64.977 l 0,211.312 c 1.453,75.145 -84.399,106.133 -164.008,83.325 l -0.02,0 0,7.789 -74.051,0 z m 939.414,-65.766 c 22.278,-0.301 44.051,-10.047 44.071,-30.101 l 0,-195.028 c 1.168,-37.254 -90.746,-38.851 -91.274,0 l 0,195.028 c -0.793,20.035 23.489,30.417 47.203,30.101 z m -491.14,-2.82 c 11.281,0 20.43,-3.379 26.851,-10.434 6.989,-6.492 10.352,-16.078 10.352,-29.625 l 0,-174.39 c 0,-12.965 -3.355,-22.844 -10.352,-29.61 -6.461,-7.043 -15.57,-10.43 -26.851,-10.43 -11.277,0 -20.406,3.375 -27.422,10.43 -6.41,6.766 -9.758,16.645 -9.758,29.61 l 0,174.39 c 0,13.547 3.348,23.133 9.758,29.625 7.039,7.043 16.145,10.434 27.422,10.434 z m -329.867,-1.043 c 22.57,0.195 45.351,-8.985 45.609,-28.133 l 0,-198.043 c 1.512,-38.301 -89.922,-40.816 -89.965,0 l 0,198.043 c -0.578,18.363 21.785,27.937 44.356,28.133 z M 4684.219,662.319 c 27.488,0 49.789,-20.629 49.789,-46.078 0,-25.426 -22.301,-46.055 -49.789,-46.055 -27.516,0 -49.821,20.629 -49.821,46.055 0,25.449 22.305,46.078 49.821,46.078 z M 270.035,551.792 l 648.719,0 0,-453.032 -648.719,-0.128 0,453.16 z m 221.313,-52.235 -0.762,-0.234 0.762,-80.211 52.484,0 0,32.133 c 13.531,-0.039 4.93,0.055 96.609,-0.238 l -124.246,-290.352 58.828,0 124.247,290.352 0,48.55 -207.922,0 z"
         style="fill:#000000;fill-opacity:1;fill-rule:evenodd;stroke:none"
         id="path5915"
         inkscape:connector-curvature="0" /><g
         id="g5917"
         transform="matrix(1,0,0,-1,0,3401.573)"><path
           d="m 4676.188,407.109 c 9.41,0 17.027,7.618 17.027,17.028 0,9.367 -7.617,16.996 -17.027,16.996 -9.379,0 -17.008,-7.629 -17.008,-16.996 0,-9.41 7.629,-17.028 17.008,-17.028 z"
           style="fill:#ffffff;fill-opacity:1;fill-rule:nonzero;stroke:#000000;stroke-width:2.83464098;stroke-linecap:butt;stroke-linejoin:miter;stroke-miterlimit:4;stroke-dasharray:none;stroke-opacity:1"
           id="path5919"
           inkscape:connector-curvature="0" /></g><g
         id="g5921"
         transform="matrix(1,0,0,-1,0,3401.573)"><path
           d="m 4659.184,2975.84 c 0,9.41 7.617,17.027 17.027,17.027 9.367,0 16.996,-7.617 16.996,-17.027 0,-9.383 -7.629,-17.008 -16.996,-17.008 -9.41,0 -17.027,7.625 -17.027,17.008 z"
           style="fill:#ffffff;fill-opacity:1;fill-rule:nonzero;stroke:#000000;stroke-width:2.83464098;stroke-linecap:butt;stroke-linejoin:miter;stroke-miterlimit:4;stroke-dasharray:none;stroke-opacity:1"
           id="path5923"
           inkscape:connector-curvature="0" /></g><g
         id="g5925"
         transform="matrix(1,0,0,-1,0,3401.573)"><path
           d="m 425.172,406.883 c -9.41,0 -17.024,7.617 -17.024,17.031 0,9.367 7.614,16.996 17.024,16.996 9.383,0 17.012,-7.629 17.012,-16.996 0,-9.414 -7.629,-17.031 -17.012,-17.031 z"
           style="fill:#ffffff;fill-opacity:1;fill-rule:nonzero;stroke:#000000;stroke-width:2.83464098;stroke-linecap:butt;stroke-linejoin:miter;stroke-miterlimit:4;stroke-dasharray:none;stroke-opacity:1"
           id="path5927"
           inkscape:connector-curvature="0" /></g><g
         id="g5929"
         transform="matrix(1,0,0,-1,0,3401.573)"><path
           d="m 442.18,2975.617 c 0,9.41 -7.617,17.024 -17.028,17.024 -9.367,0 -17,-7.614 -17,-17.024 0,-9.383 7.633,-17.012 17,-17.012 9.411,0 17.028,7.629 17.028,17.012 z"
           style="fill:#ffffff;fill-opacity:1;fill-rule:nonzero;stroke:#000000;stroke-width:2.83464098;stroke-linecap:butt;stroke-linejoin:miter;stroke-miterlimit:4;stroke-dasharray:none;stroke-opacity:1"
           id="path5931"
           inkscape:connector-curvature="0" /></g></g></g></svg>