<?xml version="1.0" encoding="utf-8"?>
<!-- Generator: Adobe Illustrator 19.2.1, SVG Export Plug-In . SVG Version: 6.00 Build 0)  -->
<!DOCTYPE svg PUBLIC "-//W3C//DTD SVG 1.1//EN" "http://www.w3.org/Graphics/SVG/1.1/DTD/svg11.dtd">
<svg version="1.1" id="Layer_1" xmlns="http://www.w3.org/2000/svg" xmlns:xlink="http://www.w3.org/1999/xlink" x="0px" y="0px"
	 viewBox="0 0 418.7 120.7" style="enable-background:new 0 0 418.7 120.7;" xml:space="preserve">
<style type="text/css">
	.st0{fill:#9E882E;}
	.st1{fill:#8F202B;}
	.st2{fill:#333333;}
</style>
<title>a-gift-inside-logo-header-tabs-01</title>
<path class="st0" d="M49.8,27c-5.5-5.4-13.1-8.3-20.8-7.9c-4.2,0.2-7.8,2-12.6-7.9c0,0,0.2,4.4-2.4,6.2c0,0,3.9,8.2,16.4,6.2
	C34.5,23,41.1,22.6,49.8,27z"/>
<path class="st0" d="M61.8,26.8c5.1-3.1,8.2-4.7,17.2-10.5c4.4-2,11.1-3.8,17.3-0.2c0,0-0.9,4.2,1.6,6.7c0,0-9.1-6.7-18.8-1.7
	C75.4,23,67.8,27.4,61.8,26.8z"/>
<path class="st0" d="M63.6,7.8c-6.7,1.1-7,12.3-7,19.8c4.7-6.6,9.5-5.7,13.6-10.1C73.9,13.7,70.4,6.5,63.6,7.8z M64.5,17
	c-2.2,1.6-4.2,2.6-6,5.5c0.5-7.1,2.7-15.1,8-11.4C69.1,12.6,66.9,15.3,64.5,17L64.5,17z"/>
<path class="st0" d="M47.2,7.8c-6.7-1.1-10.2,6-6.6,9.8c4.2,4.4,8.9,3.3,13.6,10.1C54.3,20.1,53.9,8.9,47.2,7.8z M46.1,17
	c-2.4-1.7-4.4-4.4-2-6c5.3-3.6,7.5,4.2,8,11.4C50.4,19.7,48.5,18.6,46.1,17L46.1,17z"/>
<polygon class="st1" points="56.6,69.9 83.3,63.2 83.3,39.4 56.6,41.4 "/>
<polygon class="st1" points="56.6,39.1 83.2,36.9 89.9,26.7 60.7,29.2 "/>
<polygon class="st1" points="54.3,69.9 27.5,63.2 27.5,39.4 54.3,41.4 "/>
<polygon class="st1" points="54.3,39.1 27.5,36.9 20.9,26.7 49.9,29.2 "/>
<path class="st0" d="M141,61c-0.4,0-1-0.2-1.7-0.2c-0.5-0.1-1-0.3-1.5-0.6c-0.5-0.4-1-0.8-1.5-1.2c-0.4-0.5-0.7-1-0.8-1.7
	l-13.3-32.6v-0.2h-2.7v0.2c-1.9,4.6-3.9,10-6.4,15.8c-2.5,6-4.6,11.2-6.7,16c-0.3,0.7-0.7,1.4-1.2,2.1c-0.5,0.6-1,1.1-1.7,1.4
	c-0.5,0.2-1.1,0.5-1.7,0.6c-0.5,0.2-1.1,0.2-1.7,0.2h-0.4v2.7h15.8v-2.7h-0.4c-1.3,0-2.7-0.2-3.9-0.6c-1-0.4-1.5-0.8-1.5-1.2
	s0.1-0.7,0.2-1c0.1-0.6,0.2-1.3,0.4-1.9c0.2-0.8,0.6-1.7,0.8-2.5c0.3-1,0.7-2,1.2-2.9h13.3l3.1,8.3c0,0.2,0.2,0.4,0.2,0.6v0.6
	c-0.2,0.3-0.6,0.6-1,0.6c-1.2,0.3-2.3,0.4-3.5,0.4H124v2.7h17.3v-2.7L141,61z M124.4,47.5h-10.8l5.4-13.1L124.4,47.5z"/>
<path class="st0" d="M171.2,45.4v2.7h0.4c0.6,0,1.5,0.2,2.5,0.2c0.8,0.1,1.5,0.3,2.3,0.6c0.5,0.2,0.9,0.6,1,1
	c0.2,0.6,0.2,1.2,0.2,1.9v4.6c0,0.9,0,1.8-0.2,2.7c-0.7,0.6-1.6,1.1-2.5,1.5c-1.3,0.4-2.7,0.6-4.2,0.6c-1.9,0-3.9-0.4-5.6-1.2
	c-1.7-0.8-3.1-2.1-4.2-3.7c-1.2-1.7-2-3.6-2.5-5.6c-0.6-2.2-0.9-4.5-0.8-6.9c-0.1-2.5,0.2-5,0.8-7.5c0.5-2,1.3-3.9,2.5-5.6
	c1-1.5,2.3-2.6,3.9-3.3c1.5-0.8,3.2-1.3,5-1.2c1.5,0,3,0.4,4.4,1c1.3,0.6,2.3,1.5,3.1,2.7c0.9,1.1,1.6,2.4,2.1,3.7
	c0.6,1.4,1.1,2.9,1.5,4.4v0.2h2.9l-0.1-14.4H181l-1,1.7c-1.3-0.7-2.6-1.2-3.9-1.7c-1.9-0.6-3.8-0.9-5.8-0.8
	c-2.7,0.1-5.4,0.6-7.9,1.5c-2.4,1-4.5,2.5-6.2,4.4c-1.9,1.9-3.3,4.1-4.2,6.7c-1,2.7-1.5,5.5-1.5,8.3c0,2.9,0.6,5.8,1.7,8.5
	c1,2.4,2.4,4.6,4.2,6.4c1.8,1.8,3.9,3.2,6.2,4.2c2.3,1,4.8,1.5,7.3,1.5c2.4,0,4.9-0.3,7.3-0.8c2.5-0.6,4.9-1.4,7.3-2.5l0.2-0.2v-9.4
	c0-0.6,0-1.1,0.2-1.7c0.2-0.5,0.6-0.9,1-1c0.5-0.3,1.1-0.4,1.7-0.4c0.5-0.1,1.1-0.2,1.7-0.2h0.4v-2.7L171.2,45.4L171.2,45.4z"/>
<path class="st0" d="M225.4,21.7c-1.2-0.7-2.6-1.1-3.9-1c-3.2-0.1-6.3,1.4-8.3,3.9c-2.2,2.9-3.4,6.5-3.3,10.2V36h-5.4v3.3h5.4v19.3
	c0,0.5-0.2,1-0.4,1.5c-0.1,0.4-0.4,0.6-0.8,0.6c-0.3,0.1-0.7,0.2-1,0.2l-1.7,0.2v2.5h15v-2.5h-0.4c-0.6,0-1-0.2-1.9-0.2
	c-0.6,0-1.1-0.2-1.7-0.4c-0.4-0.2-0.8-0.4-1-0.8c-0.2-0.4-0.2-0.8-0.2-1.2V39.6h6.9v-3.3h-6.9V34c0-3.5,0.4-6.2,1-7.7
	s1.2-2.1,2.3-2.3c0.3,0.3,0.5,0.7,0.6,1c0.3,0.5,0.6,1,1,1.5c0.4,0.4,0.8,0.8,1.2,1c0.5,0.3,1.1,0.4,1.7,0.4c0.9,0.1,1.7-0.3,2.3-1
	c0.5-0.7,0.8-1.5,0.8-2.3C226.8,23.5,226.3,22.4,225.4,21.7z"/>
<path class="st0" d="M243.3,59.7c-0.6,0.1-1.2,0.2-1.9,0.2c-0.8,0-1.5,0.2-1.9,0.2c-0.8,0-1.6-0.2-2.3-0.4c-0.4-0.2-0.8-0.6-1-1
	c-0.3-0.6-0.5-1.2-0.6-1.9c0-0.8-0.2-1.7-0.2-2.7V39.4h7.7v-3.3h-7.7v-8.3h-5.8v8.3h-5v3.3h4.8v17.9c0,2.1,0.4,3.9,1.5,5
	c1,1.2,2.7,1.9,5,1.9c1.3,0,2.7-0.2,3.9-0.6c1-0.4,2.3-0.8,3.3-1.2h0.2V59.7L243.3,59.7z"/>
<path class="st0" d="M270.5,28.3c0.3-0.4,0.7-0.7,1.2-0.8c0.7-0.3,1.4-0.4,2.1-0.4c0.7-0.2,1.4-0.2,2.1-0.2h0.4v-2.7H258v2.7h0.4
	c0.7,0.1,1.4,0.2,2.1,0.4c0.8,0.2,1.5,0.4,2.1,0.6c0.5,0.2,0.9,0.5,1.2,0.8c0.2,0.5,0.3,1,0.2,1.5v28.1c0,0.5-0.1,1-0.4,1.5
	c-0.2,0.4-0.6,0.7-1,0.8c-0.6,0.2-1.2,0.3-1.9,0.2c-0.8,0-1.7,0.2-2.1,0.2h-0.4v2.7h18.3V61h-0.4c-0.6,0-1.2-0.2-2.1-0.2
	c-0.6-0.2-1.2-0.3-1.9-0.4c-0.5-0.2-1-0.5-1.2-1c-0.3-0.4-0.4-0.9-0.4-1.5V29.8C270.3,29.3,270.3,28.8,270.5,28.3z"/>
<path class="st0" d="M309,61.2c-0.4,0.1-0.9,0-1.2-0.2c-0.4-0.1-0.7-0.2-1-0.4c-0.4-0.1-0.7-0.4-0.8-0.8c-0.2-0.5-0.3-1-0.2-1.5
	V44.1c0.1-2.4-0.5-4.7-1.9-6.7c-1.2-1.7-3.3-2.5-6-2.5c-1.1,0-2.2,0.2-3.3,0.4c-0.9,0.2-1.7,0.5-2.5,1c-0.7,0.4-1.3,0.9-1.9,1.5
	l-1,1v-3l-0.6-0.6l-9.6,0.6v2.5h0.4c0.5,0,1,0,1.5,0.2c0.4,0,0.8,0.2,1,0.4c0.4,0.2,0.8,0.6,1,1c0.2,0.5,0.4,0.9,0.4,1.5V58
	c0,0.6-0.2,1-0.2,1.5c-0.1,0.4-0.4,0.6-0.8,0.6c-0.3,0.1-0.7,0.2-1,0.2l-1.7,0.2V63h13.9v-2.5H293c-0.4,0-0.9,0-1.2-0.2
	c-0.4,0-0.9-0.2-1.2-0.4c-0.4-0.2-0.8-0.4-1-0.8c-0.2-0.4-0.4-0.8-0.4-1.2V42.5c0.3-0.3,0.5-0.7,0.6-1l1.2-1.2
	c0.6-0.5,1.3-0.8,2.1-1c0.8-0.2,1.6-0.4,2.5-0.4c1.2,0,2.3,0.5,2.9,1.5c0.9,1.2,1.3,2.7,1.2,4.2v13.9c0,0.5-0.2,1-0.4,1.5
	c-0.1,0.4-0.4,0.6-0.8,0.6c-0.4,0.1-0.8,0.2-1.2,0.2c-0.5,0-1,0-1.5,0.2h-0.4v2.5h13.9v-2.7L309,61.2z"/>
<path class="st0" d="M331.6,52.3c-0.5-0.9-1.1-1.8-1.9-2.5s-1.7-1.3-2.7-1.7s-2.3-1-3.5-1.5c-1.2-0.4-2.3-0.8-3.1-1
	c-0.7-0.2-1.5-0.6-2.1-1c-0.4-0.4-0.8-0.8-1-1.2c-0.3-0.6-0.4-1.2-0.4-1.9c0-1,0.5-1.9,1.2-2.5c1-0.7,2.1-1.1,3.3-1
	c1.6,0,3.2,0.6,4.4,1.7c1.3,1.2,2.1,2.8,2.3,4.6v0.4h2.7l-0.4-9.6h-2.7l-0.6,1.2c-0.8-0.4-1.6-0.7-2.5-0.8c-1.1-0.2-2.2-0.4-3.3-0.4
	c-2.5-0.1-5,0.8-6.9,2.5c-1.6,1.5-2.5,3.6-2.5,5.8c0,1.2,0.2,2.5,0.8,3.5c0.5,1,1.2,1.8,2.1,2.5c0.8,0.7,1.7,1.2,2.7,1.7
	c0.9,0.4,1.9,0.8,2.9,1c1,0.4,2.1,0.6,2.9,1c0.7,0.3,1.4,0.6,2.1,1c0.5,0.3,0.9,0.7,1.2,1.2c0.3,0.6,0.4,1.2,0.4,1.9
	c0.1,1.2-0.3,2.3-1.2,3.1c-0.8,0.8-2.1,1-3.7,1c-1.1,0.1-2.2-0.2-3.1-0.8c-0.9-0.5-1.7-1.1-2.5-1.9c-0.6-0.8-1.2-1.6-1.7-2.5
	c-0.5-0.8-0.7-1.6-0.8-2.5v-0.4h-2.7l0.2,10.2h2.7l0.4-1.5c0.8,0.5,1.6,0.9,2.5,1.2c1.4,0.6,3,0.9,4.6,0.8c2.7,0.1,5.4-0.8,7.5-2.5
	c1.9-1.6,3-4,2.9-6.4C332.2,54.2,332.1,53.1,331.6,52.3z"/>
<path class="st0" d="M378,60.6c-0.6,0-1.3,0-1.9-0.2c-0.5,0-0.9-0.1-1.2-0.4c-0.4-0.2-0.8-0.6-1-1c-0.3-0.4-0.4-0.9-0.4-1.5V20.9
	l-0.6-0.6l-11.6,0.6v2.5h0.4c0.9,0,1.8,0.2,2.7,0.4c0.6,0.1,1.3,0.4,1.9,0.6c0.4,0.3,0.7,0.7,0.8,1.2c0.2,0.6,0.4,1.2,0.4,1.9v8.7
	c-0.8-0.4-1.7-0.6-2.7-1c-3-0.8-6.1-0.6-8.9,0.6c-1.6,0.7-3.1,1.7-4.2,3.1c-1.3,1.4-2.2,3-2.9,4.8c-0.6,1.8-1,3.7-1,5.6
	c0,2.1,0.4,4.1,1,6c0.5,1.7,1.4,3.3,2.7,4.6c1,1.3,2.4,2.3,4,2.9c2.9,1.4,6.3,1.4,9.1,0c1.2-0.5,2.3-1.3,3.1-2.3v2.1l0.6,0.6l10-0.6
	v-2.5L378,60.6z M367.6,42.3v15.6c-0.7,0.7-1.5,1.3-2.3,1.9c-2.1,1.1-4.6,1.1-6.7,0c-0.9-0.6-1.7-1.4-2.3-2.3
	c-0.6-1.1-1.1-2.2-1.5-3.3c-0.3-1.4-0.4-2.8-0.4-4.2c0-1.8,0.2-3.5,0.6-5.2c0.3-1.3,0.8-2.6,1.5-3.7c0.5-1,1.3-1.7,2.3-2.3
	c0.9-0.6,1.9-0.9,2.9-0.8c0.8,0,1.6,0.2,2.3,0.4c0.6,0.2,1.2,0.6,1.7,1s0.9,0.9,1.2,1.5C367.3,41.2,367.5,41.7,367.6,42.3
	L367.6,42.3L367.6,42.3z"/>
<path class="st0" d="M399.8,55.2l-0.2,0.4c-1,1.9-2.1,3.3-3.3,3.9c-2.5,1.3-5.4,1.4-7.9,0.2c-1-0.6-1.9-1.4-2.7-2.3
	c-0.7-1.1-1.2-2.4-1.5-3.7c-0.3-1.4-0.4-2.9-0.4-4.4h17.9V47c0-1.5-0.2-3.1-0.6-4.6c-0.4-1.4-1-2.6-1.9-3.7
	c-0.9-1.2-2.2-2.1-3.5-2.7c-1.6-0.7-3.4-1.1-5.2-1c-1.9,0-3.7,0.4-5.4,1.2c-1.6,0.8-2.9,1.9-3.9,3.3c-1.1,1.5-1.9,3.1-2.5,4.8
	s-0.9,3.4-0.8,5.2c-0.1,1.9,0.2,3.8,0.8,5.6c0.5,1.7,1.3,3.4,2.5,4.8c1.1,1.4,2.5,2.6,4.2,3.3c1.8,0.9,3.8,1.3,5.8,1.2
	c2.4,0,4.8-0.7,6.9-2.1c1.9-1.3,3.5-3.1,4.6-5.2l0.2-0.4L399.8,55.2z M395.2,46.2h-11.6c0.1-2.1,0.7-4.2,1.9-6
	c1-1.4,2.6-2.2,4.4-2.3c0.9,0,1.7,0.2,2.5,0.6c0.7,0.5,1.3,1.1,1.7,1.9c0.4,0.9,0.7,1.8,0.8,2.7C395.1,44.1,395.3,45.2,395.2,46.2
	L395.2,46.2z"/>
<path class="st0" d="M203.6,61.2c-0.4,0-0.9,0-1.2-0.2c-0.4,0-0.8-0.2-1-0.4c-0.4-0.2-0.8-0.4-1-0.8c-0.3-0.4-0.4-0.9-0.4-1.5V36
	l-0.6-0.6l-10,0.6v2.5h0.4c0.4,0,1,0.2,1.7,0.2c0.5,0.2,1,0.3,1.5,0.4c0.4,0.2,0.8,0.6,1,1c0.3,0.4,0.4,0.9,0.4,1.5v16.6
	c0,0.6-0.2,1-0.2,1.5c-0.1,0.4-0.4,0.6-0.8,0.6c-0.3,0.1-0.7,0.2-1,0.2l-1.7,0.2v2.5h13.7v-2.4L203.6,61.2z"/>
<circle class="st0" cx="196.3" cy="28.8" r="4.6"/>
<path class="st0" d="M347.4,61.2c-0.4,0-0.9,0-1.2-0.2c-0.4,0-0.8-0.2-1-0.4c-0.4-0.2-0.8-0.4-1-0.8c-0.3-0.4-0.4-0.9-0.4-1.5V36
	l-0.6-0.6l-10,0.6v2.5h0.4c0.6,0,1,0.2,1.7,0.2c0.5,0.2,1,0.3,1.5,0.4c0.4,0.2,0.8,0.6,1,1c0.3,0.4,0.4,0.9,0.4,1.5v16.6
	c0,0.5-0.2,1-0.4,1.5c-0.1,0.4-0.4,0.6-0.8,0.6c-0.3,0.1-0.7,0.2-1,0.2l-1.7,0.2v2.5H348v-2.4L347.4,61.2z"/>
<circle class="st0" cx="340.2" cy="28.8" r="4.6"/>
<g>
	<path class="st2" d="M37.6,99c0,1.9-0.7,3.4-2.1,4.5s-3.3,1.6-5.7,1.6s-4.4-0.4-5.9-1.1v-3.3c1,0.5,2,0.8,3.1,1.1s2.1,0.4,3.1,0.4
		c1.4,0,2.4-0.3,3.1-0.8s1-1.2,1-2.1c0-0.8-0.3-1.5-0.9-2s-1.9-1.2-3.8-2c-2-0.8-3.3-1.7-4.1-2.7s-1.2-2.2-1.2-3.7
		c0-1.8,0.6-3.2,1.9-4.2s3-1.5,5.1-1.5s4.1,0.4,6.1,1.3l-1.1,2.9c-1.9-0.8-3.6-1.2-5.1-1.2c-1.1,0-2,0.2-2.6,0.7s-0.9,1.1-0.9,2
		c0,0.6,0.1,1,0.4,1.4c0.2,0.4,0.6,0.8,1.2,1.1s1.5,0.8,2.9,1.4c1.6,0.7,2.7,1.3,3.5,1.8s1.3,1.2,1.6,1.9S37.6,98.1,37.6,99z"/>
	<path class="st2" d="M55.7,104.8h-3.5v-10c0-1.2-0.3-2.2-0.8-2.8s-1.3-0.9-2.4-0.9c-1.4,0-2.5,0.4-3.2,1.3s-1,2.3-1,4.3v8h-3.4V82
		h3.4v5.8c0,0.9-0.1,1.9-0.2,3h0.2c0.5-0.8,1.1-1.4,2-1.8s1.8-0.6,2.9-0.6c3.9,0,5.9,2,5.9,5.9L55.7,104.8L55.7,104.8z"/>
	<path class="st2" d="M74.8,96.7c0,2.6-0.7,4.7-2,6.2s-3.2,2.2-5.7,2.2c-1.5,0-2.9-0.3-4-1s-2.1-1.7-2.7-2.9s-0.9-2.8-0.9-4.5
		c0-2.6,0.7-4.7,2-6.2s3.2-2.2,5.7-2.2c2.3,0,4.2,0.8,5.6,2.3C74.1,92.1,74.8,94.1,74.8,96.7z M63,96.7c0,3.7,1.4,5.6,4.1,5.6
		s4.1-1.9,4.1-5.6s-1.4-5.6-4.1-5.6c-1.4,0-2.5,0.5-3.1,1.4S63,94.9,63,96.7z"/>
	<path class="st2" d="M87,105.1c-2.1,0-3.6-0.7-4.8-2.2H82c0.1,1.4,0.2,2.2,0.2,2.5v6.6h-3.4V88.6h2.8c0.1,0.3,0.2,1,0.5,2.2h0.2
		c1.1-1.6,2.7-2.5,4.8-2.5c2,0,3.6,0.7,4.7,2.2s1.7,3.5,1.7,6.2s-0.6,4.7-1.7,6.2S89,105.1,87,105.1z M86.2,91.2
		c-1.4,0-2.4,0.4-3,1.2s-0.9,2.1-0.9,3.8v0.5c0,2,0.3,3.4,0.9,4.3s1.6,1.3,3.1,1.3c1.2,0,2.1-0.5,2.8-1.5s1-2.4,1-4.2
		c0-1.8-0.3-3.2-1-4.1C88.3,91.6,87.4,91.2,86.2,91.2z"/>
	<path class="st2" d="M119.6,96.7c0,2.6-0.7,4.7-2,6.2s-3.2,2.2-5.7,2.2c-1.5,0-2.9-0.3-4-1s-2.1-1.7-2.7-2.9s-0.9-2.8-0.9-4.5
		c0-2.6,0.7-4.7,2-6.2s3.2-2.2,5.7-2.2c2.3,0,4.2,0.8,5.6,2.3S119.6,94.1,119.6,96.7z M107.8,96.7c0,3.7,1.4,5.6,4.1,5.6
		s4.1-1.9,4.1-5.6s-1.4-5.6-4.1-5.6c-1.4,0-2.5,0.5-3.1,1.4S107.8,94.9,107.8,96.7z"/>
	<path class="st2" d="M135,104.8l-0.5-2.1h-0.2c-0.5,0.8-1.2,1.3-2,1.8s-1.9,0.6-3,0.6c-2,0-3.4-0.5-4.4-1.5s-1.5-2.5-1.5-4.4V88.6
		h3.5v10c0,1.2,0.3,2.2,0.8,2.8c0.5,0.6,1.3,0.9,2.4,0.9c1.4,0,2.5-0.4,3.2-1.3s1-2.3,1-4.3v-8.1h3.5v16.2H135z"/>
	<path class="st2" d="M150.9,88.3c0.7,0,1.3,0,1.7,0.1l-0.3,3.2c-0.5-0.1-1-0.2-1.5-0.2c-1.4,0-2.5,0.4-3.3,1.3s-1.3,2.1-1.3,3.5
		v8.5h-3.4V88.6h2.7l0.5,2.9h0.2c0.5-1,1.2-1.7,2.1-2.3S149.9,88.3,150.9,88.3z"/>
	<path class="st2" d="M168.8,105.1c-2,0-3.6-0.7-4.7-2.2s-1.7-3.5-1.7-6.2s0.6-4.7,1.7-6.2c1.1-1.5,2.7-2.2,4.8-2.2s3.8,0.8,4.9,2.4
		h0.2c-0.2-1.2-0.2-2.1-0.2-2.8V82h3.5v22.8h-2.7l-0.6-2.1h-0.2C172.6,104.3,171,105.1,168.8,105.1z M169.7,102.3
		c1.4,0,2.4-0.4,3.1-1.2s1-2.1,1-3.9v-0.5c0-2-0.3-3.5-1-4.4s-1.7-1.3-3.1-1.3c-1.2,0-2.1,0.5-2.8,1.5s-1,2.4-1,4.2
		c0,1.8,0.3,3.2,1,4.1C167.5,101.9,168.5,102.3,169.7,102.3z"/>
	<path class="st2" d="M189.1,105.1c-2.5,0-4.5-0.7-5.9-2.2s-2.1-3.5-2.1-6.1s0.7-4.7,2-6.2s3.1-2.3,5.4-2.3c2.1,0,3.8,0.6,5.1,1.9
		s1.9,3.1,1.9,5.4v1.9h-10.8c0,1.6,0.5,2.8,1.3,3.6c0.8,0.8,1.9,1.3,3.4,1.3c1,0,1.8-0.1,2.7-0.3c0.8-0.2,1.7-0.5,2.7-0.9v2.8
		c-0.8,0.4-1.7,0.7-2.5,0.8S190.2,105.1,189.1,105.1z M188.5,90.9c-1.1,0-2,0.3-2.6,1s-1.1,1.7-1.2,3h7.4c0-1.3-0.3-2.4-1-3
		C190.5,91.3,189.6,90.9,188.5,90.9z"/>
	<path class="st2" d="M202.8,104.8h-3.4V82h3.4V104.8z"/>
	<path class="st2" d="M207.5,84.3c0-0.6,0.2-1.1,0.5-1.4s0.8-0.5,1.4-0.5c0.6,0,1.1,0.2,1.4,0.5c0.3,0.3,0.5,0.8,0.5,1.4
		s-0.2,1-0.5,1.4c-0.3,0.3-0.8,0.5-1.4,0.5c-0.6,0-1.1-0.2-1.4-0.5C207.7,85.4,207.5,84.9,207.5,84.3z M211.1,104.8h-3.4V88.6h3.4
		V104.8z"/>
	<path class="st2" d="M222.6,105.1c-2.5,0-4.3-0.7-5.6-2.1s-1.9-3.5-1.9-6.2s0.7-4.8,2-6.3s3.3-2.2,5.8-2.2c1.7,0,3.2,0.3,4.6,1
		l-1,2.8c-1.5-0.6-2.7-0.8-3.6-0.8c-2.8,0-4.2,1.9-4.2,5.6c0,1.8,0.3,3.2,1,4.1s1.7,1.4,3.1,1.4c1.5,0,3-0.4,4.4-1.1v3
		c-0.6,0.4-1.3,0.6-2,0.8S223.6,105.1,222.6,105.1z"/>
	<path class="st2" d="M230.7,84.3c0-0.6,0.2-1.1,0.5-1.4s0.8-0.5,1.4-0.5c0.6,0,1.1,0.2,1.4,0.5c0.3,0.3,0.5,0.8,0.5,1.4
		s-0.2,1-0.5,1.4c-0.3,0.3-0.8,0.5-1.4,0.5c-0.6,0-1.1-0.2-1.4-0.5C230.9,85.4,230.7,84.9,230.7,84.3z M234.4,104.8H231V88.6h3.4
		V104.8z"/>
	<path class="st2" d="M253.7,96.7c0,2.6-0.7,4.7-2,6.2s-3.2,2.2-5.7,2.2c-1.5,0-2.9-0.3-4-1s-2.1-1.7-2.7-2.9s-0.9-2.8-0.9-4.5
		c0-2.6,0.7-4.7,2-6.2s3.2-2.2,5.7-2.2c2.3,0,4.2,0.8,5.6,2.3C253,92.1,253.7,94.1,253.7,96.7z M241.9,96.7c0,3.7,1.4,5.6,4.1,5.6
		c2.7,0,4.1-1.9,4.1-5.6s-1.4-5.6-4.1-5.6c-1.4,0-2.5,0.5-3.1,1.4C242.2,93.5,241.9,94.9,241.9,96.7z"/>
	<path class="st2" d="M269,104.8l-0.5-2.1h-0.2c-0.5,0.8-1.2,1.3-2,1.8s-1.9,0.6-3,0.6c-2,0-3.4-0.5-4.4-1.5s-1.5-2.5-1.5-4.4V88.6
		h3.5v10c0,1.2,0.3,2.2,0.8,2.8s1.3,0.9,2.4,0.9c1.4,0,2.5-0.4,3.2-1.3s1-2.3,1-4.3v-8.1h3.5v16.2H269z"/>
	<path class="st2" d="M287.5,100.2c0,1.6-0.6,2.8-1.7,3.6c-1.2,0.8-2.8,1.3-5,1.3s-3.9-0.3-5.2-1v-3c1.9,0.9,3.7,1.3,5.3,1.3
		c2.1,0,3.2-0.6,3.2-1.9c0-0.4-0.1-0.8-0.4-1s-0.6-0.6-1.2-0.8s-1.3-0.6-2.2-1c-1.9-0.7-3.1-1.4-3.8-2.2c-0.7-0.7-1-1.7-1-2.8
		c0-1.4,0.6-2.5,1.7-3.2c1.1-0.8,2.6-1.2,4.6-1.2c1.9,0,3.7,0.4,5.4,1.2l-1.1,2.6c-1.7-0.7-3.2-1.1-4.4-1.1c-1.8,0-2.7,0.5-2.7,1.6
		c0,0.5,0.2,0.9,0.7,1.3s1.5,0.8,3.1,1.5c1.3,0.5,2.3,1,2.9,1.4s1.1,0.9,1.3,1.5C287.4,98.8,287.5,99.4,287.5,100.2z"/>
	<path class="st2" d="M307.3,88.3c2,0,3.6,0.7,4.7,2.2s1.7,3.5,1.7,6.2s-0.6,4.7-1.7,6.2s-2.7,2.2-4.8,2.2c-2.1,0-3.6-0.7-4.8-2.2
		h-0.2l-0.6,1.9H299V82h3.4v5.4c0,0.4,0,1-0.1,1.8s-0.1,1.3-0.1,1.5h0.1C303.6,89.1,305.2,88.3,307.3,88.3z M306.4,91.2
		c-1.4,0-2.4,0.4-3,1.2c-0.6,0.8-0.9,2.2-0.9,4.1v0.2c0,2,0.3,3.4,0.9,4.3s1.6,1.3,3.1,1.3c1.2,0,2.1-0.5,2.8-1.5
		c0.6-1,0.9-2.4,0.9-4.2C310.2,93,309,91.2,306.4,91.2z"/>
	<path class="st2" d="M326,88.3c0.7,0,1.3,0,1.7,0.1l-0.3,3.2c-0.5-0.1-1-0.2-1.5-0.2c-1.4,0-2.5,0.4-3.3,1.3
		c-0.9,0.9-1.3,2.1-1.3,3.5v8.5h-3.4V88.6h2.7l0.5,2.9h0.2c0.5-1,1.2-1.7,2.1-2.3C324,88.6,325,88.3,326,88.3z"/>
	<path class="st2" d="M340.8,104.8l-0.7-2.3H340c-0.8,1-1.6,1.7-2.4,2c-0.8,0.4-1.8,0.5-3,0.5c-1.6,0-2.8-0.4-3.7-1.3
		c-0.9-0.9-1.3-2.1-1.3-3.6c0-1.7,0.6-2.9,1.9-3.8s3.1-1.3,5.7-1.4l2.8-0.1v-0.9c0-1-0.2-1.8-0.7-2.3s-1.2-0.8-2.2-0.8
		c-0.8,0-1.6,0.1-2.4,0.4s-1.5,0.5-2.2,0.9l-1.1-2.5c0.9-0.5,1.8-0.8,2.9-1s2-0.4,3-0.4c2.1,0,3.6,0.4,4.7,1.3
		c1,0.9,1.6,2.3,1.6,4.2v10.9h-2.8V104.8z M335.7,102.5c1.2,0,2.3-0.3,3-1s1.1-1.7,1.1-2.9v-1.4l-2.1,0.1c-1.6,0.1-2.8,0.3-3.5,0.8
		s-1.1,1.2-1.1,2.2c0,0.7,0.2,1.3,0.6,1.7C334.2,102.3,334.8,102.5,335.7,102.5z"/>
	<path class="st2" d="M362.3,104.8h-3.5v-10c0-1.2-0.3-2.2-0.8-2.8s-1.3-0.9-2.4-0.9c-1.5,0-2.5,0.4-3.2,1.3s-1,2.3-1,4.3v8.1H348
		V88.6h2.7l0.5,2.1h0.2c0.5-0.8,1.2-1.4,2.1-1.8s1.9-0.6,3-0.6c3.9,0,5.8,2,5.8,5.9L362.3,104.8L362.3,104.8z"/>
	<path class="st2" d="M372.6,105.1c-2,0-3.6-0.7-4.7-2.2s-1.7-3.5-1.7-6.2s0.6-4.7,1.7-6.2s2.7-2.2,4.8-2.2c2.1,0,3.8,0.8,4.9,2.4
		h0.2c-0.2-1.2-0.2-2.1-0.2-2.8V82h3.5v22.8h-2.7l-0.6-2.1h-0.2C376.3,104.3,374.7,105.1,372.6,105.1z M373.5,102.3
		c1.4,0,2.4-0.4,3.1-1.2s1-2.1,1-3.9v-0.5c0-2-0.3-3.5-1-4.4s-1.7-1.3-3.1-1.3c-1.2,0-2.1,0.5-2.8,1.5c-0.7,1-1,2.4-1,4.2
		c0,1.8,0.3,3.2,1,4.1C371.3,101.9,372.2,102.3,373.5,102.3z"/>
	<path class="st2" d="M396.7,100.2c0,1.6-0.6,2.8-1.7,3.6c-1.2,0.8-2.8,1.3-5,1.3s-3.9-0.3-5.2-1v-3c1.9,0.9,3.7,1.3,5.3,1.3
		c2.1,0,3.2-0.6,3.2-1.9c0-0.4-0.1-0.8-0.4-1s-0.6-0.6-1.2-0.8s-1.3-0.6-2.2-1c-1.9-0.7-3.1-1.4-3.8-2.2c-0.7-0.7-1-1.7-1-2.8
		c0-1.4,0.6-2.5,1.7-3.2c1.1-0.8,2.6-1.2,4.6-1.2c1.9,0,3.7,0.4,5.4,1.2l-1.1,2.6c-1.7-0.7-3.2-1.1-4.4-1.1c-1.8,0-2.7,0.5-2.7,1.6
		c0,0.5,0.2,0.9,0.7,1.3s1.5,0.8,3.1,1.5c1.3,0.5,2.3,1,2.9,1.4s1.1,0.9,1.3,1.5C396.6,98.8,396.7,99.4,396.7,100.2z"/>
	<path class="st2" d="M399.9,103c0-0.7,0.2-1.3,0.6-1.6s0.9-0.6,1.6-0.6s1.2,0.2,1.6,0.6s0.6,0.9,0.6,1.6s-0.2,1.2-0.6,1.6
		s-0.9,0.6-1.6,0.6s-1.2-0.2-1.6-0.6C400.1,104.3,399.9,103.7,399.9,103z M403.4,98.3h-2.5l-0.8-14.9h4.1L403.4,98.3z"/>
</g>
</svg>
