<?xml version="1.0" encoding="UTF-8" standalone="no"?>
<svg width="300px" height="270px" viewBox="0 0 300 270" version="1.1" xmlns="http://www.w3.org/2000/svg" xmlns:xlink="http://www.w3.org/1999/xlink">
    <!-- Generator: Sketch 3.6 (26304) - http://www.bohemiancoding.com/sketch -->
    <title>41 Trivialization Effect</title>
    <desc>Created with Sketch.</desc>
    <defs></defs>
    <g id="New-style" stroke="none" stroke-width="1" fill="none" fill-rule="evenodd">
        <g id="41-Trivialization-Effect">
            <g id="Group" transform="translate(5.000000, 1.000000)">
                <g id="Group-12" transform="translate(89.333333, 181.294118)">
                    <g id="Group-2">
                        <path d="M54.9676945,44.6725386 C57.6035787,40.2501388 59.1176471,35.081344 59.1176471,29.5588235 C59.1176471,13.2303467 45.883711,0 29.5588235,0 C13.2303467,0 0,13.2339361 0,29.5588235 C0,45.8873004 13.2339361,59.1176471 29.5588235,59.1176471 C35.0237514,59.1176471 40.1416411,57.6352432 44.5326352,55.0506966 L60.6802106,60.8897549 L54.9676945,44.6725386 Z" id="Combined-Shape" fill="#FFE04F"></path>
                        <path d="M39.0874717,30.1266682 C39.7936007,31.2390259 40.1474515,32.5353051 40.1474515,34.0206557 C40.1474515,36.2998118 39.4193052,38.1993537 37.9661578,39.7192816 C36.5161557,41.2428878 34.4213588,42.1367467 31.6817671,42.4067435 L31.6817671,46.3095592 L28.1896525,46.3095592 L28.1896525,42.4266071 C23.6218315,41.9896094 20.7957429,39.5044612 19.7058824,34.9777835 L25.105646,33.6616408 C25.6057552,36.5065396 27.261777,37.9293569 30.0721389,37.9293569 C31.3868914,37.9293569 32.357229,37.6277255 32.9776474,37.0156345 C33.5988522,36.4064863 33.9055229,35.6708 33.9055229,34.8085757 C33.9055229,33.9147169 33.5957069,33.2393569 32.9776474,32.7824957 C32.357229,32.319749 30.9811424,31.7392925 28.8470287,31.032298 C26.9267983,30.4084361 25.4280434,29.7963451 24.3468325,29.1842541 C23.2656217,28.5780486 22.3872853,27.7275953 21.7141824,26.6321584 C21.0418658,25.5345145 20.7037417,24.2558918 20.7037417,22.7984973 C20.7037417,20.8908627 21.3092198,19.1693569 22.5099536,17.6406008 C23.7106874,16.1147875 25.6057552,15.1834086 28.1896525,14.8413145 L28.1896525,11.8235294 L31.6817671,11.8235294 L31.6817671,14.8383718 C35.5827758,15.2753694 38.1108434,17.3411765 39.2628245,21.0343216 L34.4496669,22.8794227 C33.50921,20.3471906 32.0623533,19.0803388 30.0965153,19.0803388 C29.1112374,19.0803388 28.3186115,19.3621067 27.7257148,19.9278494 C27.1265274,20.4943278 26.8285064,21.1807231 26.8285064,21.9855639 C26.8285064,22.8073255 27.1170914,23.4370729 27.6919024,23.8792204 C28.2627817,24.316218 29.4981143,24.8591545 31.383746,25.5087655 C33.4573119,26.21576 35.0850257,26.8852345 36.2613831,27.514982 C37.4408859,28.1469365 38.3813427,29.0209318 39.0874717,30.1266682 L39.0874717,30.1266682 Z" id="Path" fill="#BFA73B"></path>
                    </g>
                    <ellipse id="Oval-1200-Copy" fill-opacity="0.25" fill="#000000" cx="28.0935143" cy="82.7647059" rx="14.8552036" ry="3.94117647"></ellipse>
                </g>
                <g id="Group-11" transform="translate(120.862745, 7.882353)">
                    <g id="Group-7-Copy">
                        <path d="M152.414991,95.1824771 C152.414991,94.4866405 152.414991,93.8061307 152.188154,93.1102941 C151.734481,84.3709542 142.992076,80.4656863 138.84771,79.0893399 L139.304448,64.1457124 C139.304448,29.2067451 111.259474,0.695836601 76.5350821,0 L75.1587357,0 C40.446605,0.695836601 12.3924351,29.1944837 12.3924351,64.372549 L13.0852063,79.5430131 C8.71400372,81.1492614 0.897337052,85.2905621 0.44059849,93.3371307 C0.44059849,94.0329673 0.44059849,94.7165425 0.213761888,95.4093137 C-0.242976674,103.002209 -1.39248648,120.244856 14.7006508,127.595588 L14.7006508,128.052327 C14.7006508,128.506 15.3964874,140.240196 20.6781018,148.513601 C22.7472194,151.962131 41.8229514,181.622549 50.5653567,186.447425 C57.4624155,190.352693 68.500775,190.818627 73.0988142,190.818627 L75.3978338,190.818627 L76.5473436,190.818627 C77.2431802,190.818627 92.6404808,191.514464 101.382886,186.447425 C109.883128,181.622549 128.971121,151.735294 131.270141,148.286765 C136.321853,140.240196 137.01769,128.518261 137.01769,127.822425 C154.0335,120.698529 152.883991,103.002209 152.414991,95.1824771 L152.414991,95.1824771 Z" id="Path" fill="#F2C490"></path>
                        <path d="M125.295755,144.384562 C117.476023,156.572431 103.225167,177.02451 97.9343567,180.019366 C91.959971,183.467895 80.6917096,183.694732 76.5473436,183.467895 L74.9441606,183.467895 C71.0388926,183.694732 59.7736965,183.467895 53.7962455,180.019366 C48.5054351,177.02451 34.2545789,156.572431 26.4379122,144.384562 C23.682154,139.786523 22.2935462,133.343137 21.839873,129.894608 L19.76769,77.2439935 L19.5408534,77.2439935 L19.0841148,63.9066144 L19.0841148,63.4498758 C38.1721083,58.1590654 51.2703893,46.4371307 56.3251671,41.3823529 C75.8668338,55.4033072 106.903598,59.5476732 132.192814,60.2312484 C132.192814,61.3807582 132.419651,62.530268 132.419651,63.6797778 L130.120631,127.129654 C130.120631,127.368752 129.424795,137.71434 125.295755,144.384562 L125.295755,144.384562 Z" id="Page-1" fill="#F2C490"></path>
                        <path d="M102.986069,150.030516 C103.681906,150.726353 103.908742,151.633699 103.212906,152.556373 C102.759232,153.013111 102.293298,153.252209 101.836559,153.252209 C101.382886,153.252209 101.143788,153.025373 100.687049,152.795471 C100.687049,152.795471 94.2467292,147.50466 84.5939122,147.50466 L67.1244286,147.50466 C57.4746769,147.50466 51.0312913,152.795471 51.0312913,152.795471 C50.3354547,153.491307 49.1859449,153.252209 48.5054351,152.568634 C47.8095985,151.875863 48.0486965,150.726353 48.7322717,150.042778 C48.9591083,149.815941 56.0830037,143.83849 67.1244286,143.83849 L84.5939122,143.83849 C95.6353371,143.829294 102.759232,149.80368 102.986069,150.030516 L102.986069,150.030516 Z" id="Path" fill-opacity="0.5" fill="#000000" transform="translate(75.861048, 148.545344) rotate(-6.000000) translate(-75.861048, -148.545344) "></path>
                        <rect id="Rectangle-1441" fill="#D9B081" transform="translate(76.196078, 160.931373) rotate(-5.000000) translate(-76.196078, -160.931373) " x="68.3137255" y="158.960784" width="15.7647059" height="3.94117647"></rect>
                        <path d="M113.393402,91.5308974 C113.393402,96.0753578 109.766169,99.7068867 105.22203,99.7068867 C100.67789,99.7068867 97.0506573,96.0753578 97.0506573,91.5308974 C97.0506573,86.986437 100.67789,83.3589477 105.22203,83.3589477 C109.766169,83.3589477 113.393402,86.986437 113.393402,91.5308974 L113.393402,91.5308974 Z" id="Path" fill="#FFFFFF"></path>
                        <path d="M52.9620293,91.5308974 C52.9620293,96.0753578 49.3347963,99.7068867 44.790657,99.7068867 C40.2465177,99.7068867 36.6192848,96.0753578 36.6192848,91.5308974 C36.6192848,86.986437 40.2465177,83.3589477 44.790657,83.3589477 C49.3347963,83.3589477 52.9620293,86.986437 52.9620293,91.5308974 L52.9620293,91.5308974 Z" id="Path-Copy-2" fill="#FFFFFF"></path>
                        <path d="M108.874187,94.5882353 C108.874187,97.5105115 106.541561,99.8457348 103.619285,99.8457348 C100.697009,99.8457348 98.3643828,97.5105115 98.3643828,94.5882353 C98.3643828,91.6659591 100.697009,89.3333333 103.619285,89.3333333 C106.541561,89.3333333 108.874187,91.6659591 108.874187,94.5882353 L108.874187,94.5882353 Z" id="Path-Copy" fill="#353535"></path>
                        <path d="M44.0461976,99.8397979 C41.1246435,99.8397979 38.7899972,97.5058933 38.7899972,94.5852675 C38.7899972,91.6646417 41.1246435,89.3333333 44.0461976,89.3333333 C46.9677517,89.3333333 49.2998011,91.6646417 49.2998011,94.5852675 C49.2998011,97.5058933 46.9677517,99.8397979 44.0461976,99.8397979 Z" id="Path" fill="#353535"></path>
                        <path d="M42.0620495,83.9142157 C38.6135201,83.9142157 35.3918272,82.7647059 32.6391344,80.6925229 C31.9432978,80.2388497 31.7164612,79.0893399 32.1854612,78.1666667 C32.8782325,77.4738954 33.7886442,77.2439935 34.7113174,77.7129935 C36.7835005,79.3161765 39.3093567,80.2388497 42.0620495,80.2388497 C45.0569057,80.2388497 48.0364351,79.3161765 50.3354547,77.4861569 C51.0312913,76.7903203 52.1808011,77.0294183 52.8643763,77.7129935 C53.5571475,78.4057647 53.3180495,79.5552745 52.6344743,80.2388497 C49.6426835,82.5378693 46.194154,83.6873791 42.518788,83.6873791 C42.2888861,83.9142157 42.2888861,83.9142157 42.0620495,83.9142157 L42.0620495,83.9142157 Z" id="Path" fill="#7D654A" transform="translate(42.609570, 80.491020) rotate(-32.000000) translate(-42.609570, -80.491020) "></path>
                        <path d="M118.85237,79.2535556 C119.548206,79.9493922 119.306043,81.098902 118.625533,81.7794118 C115.630677,84.0784314 112.182148,85.2279412 108.506781,85.2279412 L108.053108,85.2279412 C104.604579,85.2279412 101.382886,84.0784314 98.6271279,82.0062484 C97.9343567,81.3134771 97.7075201,80.4030654 98.1734547,79.4803922 C98.8662259,78.7876209 99.7766377,78.557719 100.699311,79.026719 C102.771494,80.629902 105.29735,81.5525752 108.053108,81.5525752 C111.044899,81.5525752 114.027494,80.629902 116.326514,78.7998824 C117.249187,78.3308824 118.156533,78.557719 118.85237,79.2535556 L118.85237,79.2535556 Z" id="Path" fill="#7D654A" transform="translate(108.599383, 81.890627) rotate(36.000000) translate(-108.599383, -81.890627) "></path>
                    </g>
                    <path d="M74.8823529,128.745098 C82.1378585,128.745098 88.0196078,126.980573 88.0196078,124.803922 C88.0196078,122.62727 82.1378585,123.490196 74.8823529,123.490196 C67.6268474,123.490196 61.745098,122.62727 61.745098,124.803922 C61.745098,126.980573 67.6268474,128.745098 74.8823529,128.745098 Z" id="Oval-1223" fill="#D9B081"></path>
                    <ellipse id="Oval-1200" fill-opacity="0.25" fill="#000000" cx="75.5392157" cy="209.539216" rx="32.1862745" ry="8.53921569"></ellipse>
                    <path d="M7.12308215,95.6361503 C7.12308215,94.7165425 7.12308215,94.0329673 7.34991875,93.3371307 C7.57675535,90.1185033 10.5716116,88.0463203 13.0974678,86.6699739 L14.2469776,119.083085 C6.65408215,113.801471 6.65408215,104.378556 7.12308215,95.6361503 L7.12308215,95.6361503 Z" id="Path" fill="#D9B081"></path>
                    <path d="M137.940363,119.322183 L139.31671,86.6822353 C142.069402,88.0585817 145.064259,90.1307647 145.291095,93.3493922 C145.291095,94.0452288 145.291095,94.7288039 145.517932,95.6484118 C145.986932,104.378556 145.986932,114.028307 137.940363,119.322183 L137.940363,119.322183 Z" id="Path" fill="#D9B081"></path>
                    <ellipse id="Oval-1224" fill-opacity="0.200000003" fill="#FFFFFF" transform="translate(47.950980, 22.990196) rotate(-33.000000) translate(-47.950980, -22.990196) " cx="47.9509804" cy="22.9901961" rx="20.3627451" ry="9.85294118"></ellipse>
                </g>
                <g id="Group-5">
                    <g id="Page-1" transform="translate(111.009804, 123.490196) scale(-1, 1) translate(-111.009804, -123.490196) translate(88.019608, 106.411765)" fill="#FFFFFF">
                        <path d="M32.9148371,25.4976365 C26.1398252,25.4976365 20.6259713,19.9581176 20.6259713,13.1560021 C20.6259713,6.35189825 26.1398252,0.812379438 32.9148371,0.812379438 C39.6898489,0.812379438 45.2116222,6.35189825 45.2116222,13.1560021 C45.2116222,19.9581176 39.6898489,25.4976365 32.9148371,25.4976365 L32.9148371,25.4976365 Z" id="Path"></path>
                        <path d="M9.42007788,33.9083201 C4.89614388,33.9083201 1.20572245,30.2119936 1.20572245,25.6606804 C1.20572245,21.1093672 4.88822452,17.4110525 9.42007788,17.4110525 C13.9519312,17.4110525 17.6324535,21.1093672 17.6324535,25.6606804 C17.6324535,30.2040403 13.9440119,33.9083201 9.42007788,33.9083201 L9.42007788,33.9083201 Z" id="Path"></path>
                    </g>
                    <path d="M74.8146683,98.2388299 L76.6935363,99.6207271 C81.8450795,103.404541 87.9073491,105.4068 94.2428365,105.4068 C110.675507,105.4068 124.047345,91.9775432 124.047345,75.4822639 C124.047345,65.4769306 119.097746,56.1734817 110.800237,50.5961844 L107.652292,48.484566 L110.451785,45.9196057 C114.658945,42.0602353 117.07237,36.5843434 117.07237,30.8996757 C117.07237,19.6675358 107.976985,10.5350843 96.8027694,10.5350843 C92.3243717,10.5350843 88.0716758,11.9865734 84.4980649,14.7444028 L82.1776926,16.5299332 L80.3601997,14.2314107 C73.3614659,5.35346688 62.9197907,0.267289878 51.7138973,0.267289878 C31.5611077,0.267289878 15.1719936,16.732744 15.1719936,36.9661049 C15.1719936,41.6406953 16.0609417,46.2317753 17.8170597,50.6279979 L19.0702983,53.7656004 L15.8134618,54.6265522 C7.22293676,56.8952496 1.22006241,64.7014775 1.22006241,73.6171998 C1.22006241,84.4596248 9.99867219,93.2838834 20.7947387,93.2838834 C24.5148578,93.2838834 28.157763,92.2121675 31.3274866,90.176106 L34.1744963,88.3508087 L35.61186,91.4188193 C39.5952977,99.9249433 48.1957219,105.422707 57.5227473,105.422707 C63.1831094,105.422707 68.6969633,103.410506 73.0367722,99.7618993 L74.8146683,98.2388299 Z" id="Path" fill="#FFFFFF" transform="translate(62.633704, 52.844998) scale(-1, 1) translate(-62.633704, -52.844998) "></path>
                    <path d="M88.3758337,48.8872422 C88.3758337,38.963303 80.3317229,30.9182667 70.4068582,30.9182667 C65.5837238,30.9182667 61.2057875,32.824011 57.9801834,35.9191101 C54.7518025,32.824011 50.3766429,30.9182667 45.5572108,30.9182667 C35.6332716,30.9182667 27.5882353,38.963303 27.5882353,48.8872422 C27.5882353,54.227769 29.9243687,59.0222108 33.6266404,62.3153815 L53.6022471,82.287286 C54.7555047,83.4442459 56.2919475,84.0847389 57.9329794,84.0847389 L58.1143907,84.0847389 C59.7480181,84.0847389 61.2844608,83.4516504 62.4414207,82.2983928 L82.8076171,61.9247918 C82.9418245,61.7915101 83.0686273,61.6498982 83.1843233,61.5092118 C86.3941928,58.2623196 88.3758337,53.8047845 88.3758337,48.8872422 L88.3758337,48.8872422 Z" id="Page-1" fill="#EF704C"></path>
                    <path d="M55.2421569,61.1539216 C55.1107837,60.2080345 55.1436265,59.3409843 55.3406863,58.5527451 C55.5377461,57.7645059 55.8267628,57.0419641 56.2077451,56.385098 C56.5887274,55.728232 57.0222525,55.1173558 57.5083333,54.552451 C57.9944142,53.9875462 58.4542135,53.435787 58.8877451,52.8971569 C59.3212767,52.3585267 59.6825476,51.8264732 59.9715686,51.3009804 C60.2605897,50.7754876 60.405098,50.2105913 60.405098,49.6062745 C60.405098,48.6603874 60.1226499,47.8984343 59.5577451,47.3203922 C58.9928403,46.7423501 58.2111815,46.4533333 57.2127451,46.4533333 C56.3982312,46.4533333 55.6625523,46.6372531 55.0056863,47.005098 C54.3488202,47.372943 53.7313754,47.8721537 53.1533333,48.5027451 L50.6309804,46.177451 C51.4717689,45.1790146 52.4701903,44.3579444 53.6262745,43.7142157 C54.7823587,43.070487 56.082934,42.7486275 57.5280392,42.7486275 C58.5790249,42.7486275 59.551172,42.8865672 60.4445098,43.162451 C61.3378476,43.4383347 62.1129379,43.8521541 62.7698039,44.4039216 C63.42667,44.955689 63.9324492,45.6388195 64.2871569,46.4533333 C64.6418645,47.2678472 64.8192157,48.2137201 64.8192157,49.2909804 C64.8192157,50.1317689 64.6681388,50.8871535 64.3659804,51.5571569 C64.063822,52.2271602 63.689414,52.8643107 63.2427451,53.4686275 C62.7960762,54.0729442 62.3165712,54.6509776 61.8042157,55.2027451 C61.2918602,55.7545126 60.8320609,56.332546 60.4248039,56.9368627 C60.017547,57.5411795 59.6891189,58.1848985 59.4395098,58.8680392 C59.1899007,59.5511799 59.1176465,60.3131331 59.2227451,61.1539216 L55.2421569,61.1539216 Z M54.3356863,67.0262745 C54.3356863,66.1329367 54.6115659,65.3972578 55.1633333,64.8192157 C55.7151008,64.2411736 56.4113683,63.9521569 57.2521569,63.9521569 C58.0929454,63.9521569 58.7957815,64.2411736 59.3606863,64.8192157 C59.9255911,65.3972578 60.2080392,66.1329367 60.2080392,67.0262745 C60.2080392,67.9196123 59.9255911,68.6552912 59.3606863,69.2333333 C58.7957815,69.8113754 58.0929454,70.1003922 57.2521569,70.1003922 C56.4113683,70.1003922 55.7151008,69.8113754 55.1633333,69.2333333 C54.6115659,68.6552912 54.3356863,67.9196123 54.3356863,67.0262745 L54.3356863,67.0262745 Z" id="?" fill="#FFFFFF"></path>
                </g>
            </g>
        </g>
    </g>
</svg>