<?xml version="1.0" encoding="utf-8"?>
<!-- Generator: Adobe Illustrator 16.0.0, SVG Export Plug-In . SVG Version: 6.00 Build 0)  -->
<!DOCTYPE svg PUBLIC "-//W3C//DTD SVG 1.1//EN" "http://www.w3.org/Graphics/SVG/1.1/DTD/svg11.dtd">
<svg version="1.1" id="Gfx" xmlns="http://www.w3.org/2000/svg" xmlns:xlink="http://www.w3.org/1999/xlink" x="0px" y="0px"
	 width="716px" height="235px" viewBox="0 0 716 235" enable-background="new 0 0 716 235" xml:space="preserve">
<g>
	<path fill="#FFFFFF" d="M151.622,191.816c-3.087,3.49-6.608,6.676-10.562,9.424c-3.958,2.75-8.148,4.158-12.574,4.158
		c-3.756,0-6.236-1.724-7.443-5.213c-1.207-3.486-1.609-7.769-1.207-12.867c5.633,0.672,10.763-0.027,15.39-2.108
		c4.627-2.076,8.581-4.857,11.869-8.346c3.285-3.486,5.8-7.374,7.544-11.668c1.742-4.29,2.581-8.278,2.515-11.97
		c-0.069-3.688-1.175-6.805-3.319-9.354c-2.147-2.547-5.432-3.822-9.858-3.822c-7.513,0-14.151,1.88-19.916,5.633
		c-5.768,3.757-10.562,8.418-14.384,13.981c-3.823,5.567-6.539,11.456-8.148,18.024C100.177,183.211,99.664,189,99.968,193h-0.912
		c-1.744,4-3.69,6.016-5.834,7.223c-2.147,1.207-3.957,1.9-5.432,1.9c-2.011,0-2.75-1.494-2.213-4.582
		c0.535-3.084,1.641-6.882,3.32-11.443c1.675-4.559,3.52-9.544,5.532-14.978c2.012-5.432,3.452-10.42,4.326-14.98
		c0.87-4.559,0.836-8.377-0.101-11.465c-0.94-3.082-3.621-4.625-8.047-4.625c-3.489,0-6.809,1.241-9.958,3.722
		c-3.153,2.482-6.07,5.779-8.751,9.666L89.601,94H71.495l-23.242,78h-2.104c-0.804,2-2.112,4.445-3.923,7.865
		c-1.81,3.42-3.822,6.899-6.035,10.319s-4.495,6.437-6.84,8.981c-2.348,2.549-4.526,3.838-6.538,3.838
		c-2.147,0-3.253-1.703-3.319-5.123c-0.07-3.42,1.037-8.501,3.319-15.341L32.671,150H48v-9H35.286c1.339-4,2.581-8.486,3.722-12.443
		c1.138-3.955,2.178-7.443,3.118-10.53L45.144,108H27.038l-10.059,33H7v9h7.162L4.104,182.545
		c-3.351,10.863-3.989,19.157-1.912,24.922c2.078,5.768,6.136,8.641,12.172,8.641c3.753,0,7.443-1.682,11.064-5.035
		c3.621-3.352,7.007-7.346,10.16-11.973c3.149-4.628,5.934-9.457,8.348-14.487c0.627-1.307,1.211-2.398,1.757-3.582L35.082,217
		h18.106l11.266-37.973c0.937-2.414,1.977-5.104,3.118-7.921c1.138-2.816,2.38-5.534,3.722-8.085
		c1.339-2.545,2.647-4.676,3.923-6.355c1.273-1.674,2.515-2.524,3.722-2.524c1.072,0,1.508,0.869,1.307,2.611
		c-0.201,1.746-0.773,4.09-1.71,7.039c-0.94,2.951-2.112,6.27-3.52,9.956c-1.408,3.691-2.751,7.479-4.024,11.367
		c-1.276,3.891-2.313,7.678-3.118,11.365c-0.805,3.69-1.106,7.01-0.905,9.958c0.201,2.952,1.072,5.3,2.615,7.042
		c1.54,1.744,4.055,2.615,7.544,2.615c1.742,0,3.722-0.402,5.935-1.207c2.213-0.806,4.457-2.112,6.739-3.924
		c2.279-1.811,4.527-4.155,6.74-7.041c1.433-1.867,2.738-4.006,3.917-6.407c0.887,4.933,2.879,9.12,5.999,12.544
		c3.42,3.756,8.279,5.633,14.585,5.633c3.351,0,6.57-0.535,9.656-1.61c3.084-1.071,5.967-2.479,8.651-4.225
		c2.681-1.741,5.161-3.721,7.444-5.935c2.278-2.213,4.356-4.664,6.236-7.078c4.426-5.361,8.248-11.846,11.467-18.846h-3.219
		C158.327,183,155.108,187.793,151.622,191.816z M123.96,168.416c1.408-4.154,2.983-7.912,4.728-11.266
		c1.741-3.352,3.586-6.102,5.532-8.248c1.943-2.145,3.788-3.219,5.532-3.219c1.339,0,2.113,0.975,2.314,2.917
		c0.201,1.945,0,4.359-0.604,7.243c-0.603,2.885-1.609,5.934-3.017,9.152c-1.408,3.219-3.052,6.136-4.929,8.751
		c-1.88,2.616-3.923,4.627-6.136,6.036c-2.213,1.408-4.46,1.71-6.739,0.905C121.445,176.664,122.552,172.575,123.96,168.416z
		 M599.508,123.755c3.219,0,6.035-1.207,8.449-3.62c2.414-2.415,3.621-5.298,3.621-8.651c0-3.486-1.207-6.368-3.621-8.65
		c-2.414-2.279-5.23-3.42-8.449-3.42c-3.489,0-6.406,1.141-8.751,3.42c-2.349,2.282-3.521,5.164-3.521,8.65
		c0,3.354,1.172,6.236,3.521,8.651C593.102,122.548,596.019,123.755,599.508,123.755z M346.637,163.085
		c0.535-4.627,0.268-8.65-0.804-12.07c-1.075-3.42-3.018-6.102-5.834-8.047c-2.817-1.942-6.774-2.917-11.87-2.917
		c-3.756,0-7.544,0.975-11.366,2.917c-3.823,1.945-7.444,4.627-10.864,8.047s-6.507,7.443-9.254,12.07
		c-2.75,4.627-4.863,9.417-6.337,14.646c-0.135,0.477-0.245,1.27-0.372,1.27h-0.11c-5.501,9-11.335,16.303-17.503,22.873
		c-2.684,2.816-5.532,5.637-8.55,8.318c-3.017,2.684-6.17,5.133-9.455,7.275c-3.288,2.145-6.639,3.873-10.059,5.148
		c-3.42,1.273-6.874,1.92-10.36,1.92c-5.099,0-9.022-2.041-11.769-6.131c-2.75-4.089-4.596-9.52-5.532-16.294
		c-0.94-6.771-0.94-14.448,0-23.033c0.936-8.581,2.615-17.399,5.029-26.454c2.414-9.053,5.463-17.869,9.154-26.454
		c3.687-8.581,7.911-16.261,12.674-23.035c4.759-6.77,9.989-12.202,15.691-16.295c5.699-4.089,11.7-6.136,18.006-6.136
		c4.426,0,7.676,0.774,9.757,2.313c2.077,1.544,3.25,3.389,3.52,5.532c0.268,2.147-0.27,4.426-1.609,6.84
		c-1.342,2.414-3.219,4.527-5.633,6.337c-2.414,1.812-5.265,3.118-8.55,3.924c-3.288,0.805-6.809,0.604-10.562-0.604
		c0.67,2.549,1.742,4.897,3.219,7.041c1.339,1.88,3.15,3.656,5.432,5.331c2.279,1.68,5.362,2.65,9.254,2.917
		c6.57,0.673,12.237-0.132,16.999-2.414c4.759-2.279,8.45-5.297,11.065-9.053c2.615-3.753,4.19-7.877,4.728-12.372
		c0.534-4.492-0.136-8.717-2.012-12.674c-1.88-3.955-4.964-7.274-9.254-9.959c-4.294-2.682-9.927-4.023-16.899-4.023
		c-9.254,0-18.276,2.349-27.058,7.041c-8.786,4.696-16.968,10.898-24.544,18.609c-7.578,7.714-14.384,16.496-20.419,26.354
		c-6.035,9.856-10.999,19.916-14.887,30.176c-3.892,10.26-6.538,20.288-7.947,30.076c-1.408,9.792-1.238,18.543,0.503,26.254
		c1.742,7.714,5.196,13.912,10.361,18.607c5.161,4.694,12.438,7.042,21.827,7.042c5.231,0,10.26-0.773,15.089-2.313
		c4.828-1.543,9.386-3.621,13.68-6.236c4.29-2.616,8.314-5.533,12.07-8.752c3.753-3.218,7.173-6.569,10.26-10.058
		c4.257-4.645,8.215-9.659,11.892-15.019c-0.044,0.343-0.105,0.696-0.144,1.036c-0.534,4.627-0.27,8.65,0.805,12.07
		c1.072,3.42,3.018,6.104,5.834,8.048c2.817,1.945,6.771,2.917,11.87,2.917c3.621,0,7.308-0.972,11.064-2.917
		c3.754-1.943,7.343-4.628,10.763-8.048s6.539-7.443,9.355-12.07s5.029-9.556,6.639-14.787
		C345.094,172.642,346.1,167.712,346.637,163.085z M327.325,164.795c-0.673,4.294-1.71,8.887-3.119,13.781
		c-1.408,4.897-2.986,9.489-4.727,13.78c-1.745,4.294-3.521,7.846-5.331,10.662c-1.811,2.816-3.521,4.225-5.131,4.225
		c-1.477,0-2.348-1.408-2.615-4.225c-0.27-2.816-0.1-6.368,0.503-10.662c0.604-4.291,1.54-8.883,2.817-13.78
		c1.273-4.895,2.747-9.487,4.426-13.781c1.675-4.291,3.451-7.846,5.331-10.662c1.876-2.816,3.687-4.225,5.431-4.225
		c1.742,0,2.748,1.408,3.018,4.225C328.195,156.949,327.994,160.504,327.325,164.795z M712.184,193c-1.609,4-3.59,6.016-5.935,7.223
		c-2.348,1.207-4.058,1.9-5.13,1.9c-2.147,0-2.952-1.494-2.414-4.582c0.534-3.084,1.641-6.882,3.319-11.443
		c1.676-4.559,3.521-9.544,5.531-14.978c2.013-5.432,3.486-10.42,4.427-14.98c0.937-4.559,0.905-8.377-0.101-11.465
		c-1.006-3.082-3.656-4.625-7.947-4.625c-3.488,0-6.738,1.175-9.757,3.521c-3.017,2.348-5.868,5.375-8.55,9.129L689.451,140h-18.308
		l-22.935,77h18.307l12.676-42.398c0.936-2.279,1.941-4.702,3.017-7.116c1.072-2.414,2.144-4.63,3.219-6.575
		c1.072-1.943,2.213-3.57,3.42-4.848c1.207-1.271,2.346-1.921,3.42-1.921c1.475,0,1.812,1.541,1.007,4.625
		c-0.806,3.086-2.047,6.904-3.723,11.463c-1.678,4.561-3.454,9.522-5.331,14.886c-1.88,5.366-3.152,10.329-3.821,14.887
		c-0.674,4.562-0.403,8.383,0.804,11.467c1.207,3.087,4.09,4.627,8.65,4.627c1.741,0,3.723-0.402,5.936-1.207
		c2.213-0.806,4.491-2.112,6.84-3.924c2.345-1.811,4.592-4.337,6.739-7.223C711.511,200.859,713.391,197,715,193H712.184z
		 M656.34,163.085c0.534-4.627,0.268-8.65-0.805-12.07c-1.075-3.42-3.018-6.102-5.834-8.047c-2.816-1.942-6.774-2.917-11.869-2.917
		c-3.757,0-7.544,0.975-11.367,2.917c-3.822,1.945-7.443,4.627-10.863,8.047s-6.507,7.443-9.254,12.07
		c-2.751,4.627-4.862,9.557-6.337,14.786c-1.478,5.231-2.483,10.16-3.018,14.787c-0.044,0.382-0.074,0.753-0.107,1.126
		c-1.571,3.26-3.48,5.571-5.727,6.921c-2.349,1.408-4.124,1.911-5.331,1.509c-0.538-0.132-1.041-0.367-1.509-0.703
		c-0.473-0.334-0.806-0.938-1.007-1.812c-0.2-0.871-0.17-2.078,0.102-3.621c0.267-1.54,0.804-3.587,1.609-6.136
		c0.805-2.681,2.043-6.771,3.722-12.272c1.675-5.498,3.385-11.088,5.13-16.721c2.012-6.439,4.155-12.949,6.438-20.949h-18.106
		l-9.993,32h-1.974c-0.806,2-2.112,4.445-3.923,7.865c-1.812,3.42-3.822,6.899-6.035,10.319s-4.495,6.437-6.84,8.981
		c-2.349,2.549-4.527,3.838-6.538,3.838c-2.147,0-3.254-1.703-3.32-5.123c-0.069-3.42,1.037-8.501,3.32-15.341L556.76,150H572v-9
		h-12.625c1.34-4,2.581-8.486,3.722-12.443c1.139-3.955,2.18-7.443,3.118-10.53L569.233,108h-18.106l-10.059,33H531v9h7.252
		l-8.755,28h-1.604c-2.951,5-6.171,9.727-9.656,13.615c-3.086,3.355-6.573,6.475-10.461,9.223c-3.892,2.75-8.048,4.158-12.474,4.158
		c-2.815,0-4.896-1.422-6.235-4.308c-1.343-2.883-2.113-6.496-2.314-10.856c-0.201-4.354,0.167-9.048,1.107-14.077
		c0.936-5.029,2.312-9.721,4.124-14.08c1.81-4.357,3.988-7.977,6.538-10.862c2.546-2.882,5.362-4.324,8.449-4.324
		c2.546,0,4.491,0.805,5.834,2.414c1.339,1.609,2.144,3.389,2.414,5.331c0.268,1.946,0.166,3.722-0.302,5.331
		c-0.472,1.609-1.242,2.415-2.314,2.415c-0.804,0-1.543-0.302-2.213-0.906c-0.672-0.603-1.141-1.339-1.407-2.213
		c-0.271-0.87-0.336-1.81-0.201-2.816c0.132-1.006,0.604-1.842,1.408-2.515c-3.354-0.805-6.171-0.201-8.449,1.811
		c-2.282,2.012-3.656,4.427-4.124,7.242c-0.473,2.817,0.03,5.433,1.509,7.847c1.474,2.414,4.224,3.62,8.248,3.62
		c3.621,0,6.739-0.836,9.354-2.515c2.615-1.675,4.728-3.787,6.338-6.337c1.608-2.546,2.614-5.262,3.017-8.146
		c0.403-2.884,0.132-5.6-0.804-8.148c-0.94-2.546-2.616-4.658-5.03-6.337c-2.414-1.675-5.567-2.515-9.455-2.515
		c-7.513,0-14.152,1.88-19.917,5.633c-5.768,3.757-10.561,8.418-14.384,13.981c-3.822,5.567-6.538,11.638-8.147,18.206
		c-0.418,1.708-0.753,3.381-1.013,5.021c-2.142,3.268-4.398,6.301-6.792,9.062c-3.086,3.489-6.607,6.607-10.562,9.354
		c-3.957,2.751-8.147,4.125-12.573,4.125c-3.756,0-6.236-1.742-7.443-5.231c-1.207-3.486-1.61-7.776-1.207-12.875
		c5.632,0.672,10.763-0.032,15.39-2.113c4.627-2.076,8.581-4.858,11.869-8.348c3.285-3.486,5.801-7.375,7.544-11.669
		c1.742-4.29,2.581-8.279,2.516-11.97c-0.069-3.688-1.177-6.806-3.32-9.354c-2.146-2.547-5.431-3.822-9.856-3.822
		c-7.514,0-14.152,1.88-19.918,5.633c-5.768,3.757-10.561,8.418-14.384,13.981c-3.821,5.567-6.538,11.456-8.146,18.024
		c-1.353,5.521-1.866,11.311-1.562,15.311h-0.571c-1.609,4-3.521,6.115-5.733,7.523c-2.213,1.408-4.059,2.002-5.533,1.6
		c-1.075-0.267-1.81-1.061-2.213-2.469c-0.402-1.408,0.201-4.636,1.811-9.734c0.402-1.339,1.106-3.71,2.112-7.13
		c1.006-3.422,2.213-7.504,3.621-12.266c1.409-4.76,2.949-9.988,4.627-15.689c1.676-5.699,3.386-11.256,5.13-16.889
		c3.89-13.277,8.249-27.946,13.077-43.946h-18.307l-28.971,95.871c-0.356,1.19-0.668,2.129-0.945,3.129h-0.765
		c-1.608,4-3.52,6.115-5.732,7.523s-4.059,2.002-5.532,1.6c-1.075-0.267-1.811-1.061-2.213-2.469
		c-0.403-1.408,0.201-4.636,1.81-9.734c0.403-1.339,1.107-3.71,2.113-7.13c1.005-3.422,2.213-7.504,3.621-12.266
		c1.408-4.76,2.948-9.988,4.627-15.689c1.675-5.699,3.385-11.256,5.13-16.889C383.938,124.669,388.298,110,393.126,94h-18.307
		l-28.969,96.053c-1.61,5.365-2.414,9.701-2.414,13.121s0.503,6.043,1.509,7.92c1.005,1.879,2.345,3.173,4.023,3.908
		c1.676,0.739,3.452,1.101,5.331,1.101c1.742,0,3.723-0.405,5.936-1.21c2.213-0.806,4.491-2.115,6.84-3.927
		c2.345-1.811,4.592-4.155,6.738-7.041c0.62-0.834,1.216-1.728,1.791-2.667c-0.048,0.646-0.08,1.272-0.08,1.861
		c0,3.42,0.503,6.07,1.509,7.947c1.006,1.879,2.345,3.187,4.023,3.922c1.676,0.739,3.451,1.107,5.331,1.107
		c1.741,0,3.723-0.402,5.936-1.207c2.213-0.806,4.49-2.112,6.84-3.924c2.345-1.811,4.592-4.155,6.739-7.041
		c1.284-1.728,2.472-3.688,3.565-5.873c0.932,4.704,2.901,8.708,5.909,12.01c3.42,3.756,8.28,5.633,14.586,5.633
		c3.35,0,6.569-0.535,9.656-1.61c3.084-1.071,5.966-2.479,8.65-4.225c2.682-1.741,5.161-3.721,7.443-5.935
		c2.279-2.213,4.357-4.526,6.237-6.94c1.671-2.024,3.256-4.175,4.754-6.448c-0.006,1.898,0.097,3.75,0.334,5.543
		c0.736,5.567,2.815,10.229,6.236,13.982c3.42,3.756,8.279,5.633,14.586,5.633c3.485,0,6.771-0.535,9.856-1.61
		c3.084-1.071,5.966-2.479,8.651-4.225c2.681-1.741,5.161-3.721,7.442-5.935c2.279-2.213,4.357-4.526,6.237-6.94
		c2.514-3.045,4.802-6.383,6.883-9.992c-2.208,8.688-2.429,15.512-0.647,20.453c2.078,5.768,6.136,8.651,12.171,8.651
		c3.753,0,7.443-1.676,11.064-5.029c3.621-3.352,7.007-7.343,10.159-11.97c3.15-4.628,5.936-9.456,8.35-14.485
		c0.346-0.721,0.676-1.417,0.997-2.101l-2.308,7.432c-1.608,5.366-2.446,9.757-2.515,13.177c-0.066,3.42,0.402,6.07,1.408,7.947
		c1.006,1.879,2.313,3.187,3.923,3.922c1.609,0.739,3.285,1.107,5.03,1.107c1.875,0,3.953-0.402,6.235-1.207
		c2.279-0.806,4.558-2.112,6.84-3.924c2.279-1.811,4.492-4.155,6.64-7.041c0.91-1.225,1.771-2.57,2.585-4.024
		c0.161,1.722,0.466,3.337,0.936,4.829c1.071,3.42,3.018,6.104,5.834,8.048c2.816,1.945,6.771,2.917,11.869,2.917
		c3.621,0,7.309-0.972,11.065-2.917c3.753-1.943,7.343-4.628,10.763-8.048s6.538-7.443,9.354-12.07
		c2.817-4.627,5.03-9.556,6.64-14.787C654.797,172.642,655.802,167.712,656.34,163.085z M432.879,168.416
		c1.408-4.154,2.983-7.912,4.728-11.266c1.741-3.352,3.587-6.102,5.532-8.248c1.942-2.145,3.788-3.219,5.532-3.219
		c1.339,0,2.112,0.975,2.314,2.917c0.2,1.945,0,4.359-0.604,7.243c-0.603,2.885-1.609,5.934-3.018,9.152s-3.053,6.136-4.929,8.751
		c-1.88,2.616-3.923,4.627-6.136,6.036c-2.213,1.408-4.461,1.71-6.74,0.905C430.364,176.664,431.47,172.575,432.879,168.416z
		 M637.027,164.795c-0.674,4.294-1.71,8.887-3.118,13.781c-1.408,4.897-2.986,9.489-4.729,13.78
		c-1.743,4.294-3.52,7.846-5.331,10.662c-1.811,2.816-3.521,4.225-5.13,4.225c-1.477,0-2.348-1.408-2.614-4.225
		c-0.271-2.816-0.102-6.368,0.503-10.662c0.603-4.291,1.54-8.883,2.815-13.78c1.273-4.895,2.747-9.487,4.426-13.781
		c1.676-4.291,3.451-7.846,5.331-10.662c1.877-2.816,3.688-4.225,5.433-4.225c1.74,0,2.747,1.408,3.018,4.225
		C637.898,156.949,637.697,160.504,637.027,164.795z"/>
	<g>
		<path fill="#FFCB63" d="M521.766,53.509l16.531,6.271l1.431-3.771l-12.39-4.7l7.509-19.797l-4.141-1.57L521.766,53.509z
			 M515.573,24.829l-17.801-5.692l-7.678,24.01l17.974,5.746l1.206-3.772l-13.755-4.398l2.062-6.447l12.039,3.849l1.206-3.772
			l-12.038-3.85l1.996-6.242l13.582,4.344L515.573,24.829z M468.015,33.772l-7.154-1.664l1.565-6.734l6.839,1.59
			c3.403,0.791,4.766,2.402,4.276,4.507C473.019,33.715,470.961,34.457,468.015,33.772 M469.167,23.096l-5.893-1.37l1.518-6.523
			L471,16.646c2.77,0.645,4.044,2.16,3.58,4.159C474.049,23.086,471.938,23.741,469.167,23.096 M472.45,12.954l-11.013-2.562
			l-5.711,24.553l11.364,2.642c5.472,1.273,9.63-0.237,10.658-4.656c0.783-3.366-0.833-5.479-3.48-7.131
			c2.044-0.522,4.087-1.675,4.788-4.69C479.954,17.25,477.395,14.104,472.45,12.954 M445.309,7.592l-18.449-2.977L422.844,29.5
			l18.628,3.005l0.631-3.911l-14.255-2.299l1.078-6.684l12.479,2.013l0.631-3.91l-12.479-2.013l1.044-6.47l14.077,2.271
			L445.309,7.592z M405.168,10.817c-0.199,2.585-2.337,4.082-5.496,3.839l-6.463-0.497l0.649-8.438l6.427,0.494
			C403.552,6.467,405.38,8.053,405.168,10.817 M409.145,28.133l-6.054-10.036c3.593-0.698,6.265-3.021,6.584-7.186
			c0.378-4.919-2.941-8.244-8.722-8.688l-11.202-0.861l-1.932,25.132l4.416,0.34l0.673-8.76l5.529,0.425l5.502,9.235L409.145,28.133
			z M347.899,18.572L333.786,1.634l-4.103,0.146l0.896,25.189l4.354-0.153l-0.637-17.922l14.528,17.428l3.707-0.132L351.635,1
			l-4.354,0.155L347.899,18.572z M307.509,19.473l-8.615,1.044l3.078-10.528L307.509,19.473z M303.443,4.478l-4.074,0.493
			l-7.958,26.535l4.504-0.545l1.842-6.353l11.833-1.434l3.269,5.734l4.648-0.563L303.443,4.478z M278.769,30.385l-2.15-10.364
			L266.11,22.2l0.783,3.772l6.312-1.31l0.959,4.619c-1.282,1.442-3.244,2.622-5.571,3.104c-5.042,1.046-9.167-1.996-10.228-7.107
			c-0.996-4.795,1.64-9.461,6.188-10.405c3.138-0.651,5.219-0.017,7.46,1.21l2.069-3.85c-2.985-1.624-5.878-2.274-10.18-1.381
			c-7.439,1.544-11.514,8.494-10.071,15.439c1.5,7.229,7.719,11.675,15.439,10.072C273.643,35.458,276.768,32.97,278.769,30.385
			 M235.688,31.174c1.399,4.731-0.817,9.556-5.618,10.975c-4.799,1.419-9.371-1.473-10.77-6.203
			c-1.399-4.731,0.817-9.555,5.617-10.975C229.718,23.552,234.29,26.444,235.688,31.174 M240.123,29.788
			c-2.022-6.837-8.866-10.934-16.29-8.739c-7.424,2.195-10.988,9.445-8.967,16.282s8.865,10.934,16.29,8.739
			C238.58,43.875,242.144,36.625,240.123,29.788 M196.879,45.956l3.828,9.909l4.131-1.596l-9.083-23.514l-4.131,1.597l3.775,9.774
			l-11.219,4.334l-3.776-9.774l-4.132,1.596l9.083,23.513l4.132-1.596l-3.827-9.909L196.879,45.956z"/>
	</g>
</g>
</svg>
