<!-- Generator: Adobe Illustrator 17.0.0, SVG Export Plug-In  -->
<svg version="1.1"
	 xmlns="http://www.w3.org/2000/svg" xmlns:xlink="http://www.w3.org/1999/xlink" xmlns:a="http://ns.adobe.com/AdobeSVGViewerExtensions/3.0/"
	 x="0px" y="0px" width="1081.603px" height="247.562px" viewBox="0 0 1081.603 247.562"
	 enable-background="new 0 0 1081.603 247.562" xml:space="preserve">
<defs>
</defs>
<g>
	<g>
		<path fill="#6D6E71" d="M860,20c56.519,0,102.5,45.981,102.5,102.5S916.519,225,860,225s-102.5-45.981-102.5-102.5
			S803.481,20,860,20 M860,10c-62.132,0-112.5,50.368-112.5,112.5S797.868,235,860,235s112.5-50.368,112.5-112.5S922.132,10,860,10
			L860,10z"/>
	</g>
	<g>
		<path fill="#A7A9AC" d="M860,25c53.848,0,97.5,43.652,97.5,97.5S913.848,220,860,220s-97.5-43.652-97.5-97.5S806.152,25,860,25
			 M860,23c-54.865,0-99.5,44.635-99.5,99.5S805.135,222,860,222s99.5-44.635,99.5-99.5S914.865,23,860,23L860,23z"/>
	</g>
	
		<circle fill="none" stroke="#A7A9AC" stroke-width="3" stroke-linejoin="round" stroke-miterlimit="10" cx="860" cy="122.5" r="12.5"/>
	<g>
		<line fill="none" stroke="#A7A9AC" stroke-miterlimit="10" x1="847.5" y1="120" x2="877.5" y2="25"/>
		<line fill="none" stroke="#A7A9AC" stroke-miterlimit="10" x1="842.5" y1="25" x2="872.5" y2="120"/>
		<line fill="none" stroke="#A7A9AC" stroke-miterlimit="10" x1="872.5" y1="125" x2="842.5" y2="220"/>
		<line fill="none" stroke="#A7A9AC" stroke-miterlimit="10" x1="877.5" y1="220" x2="847.5" y2="125"/>
	</g>
	<g>
		<line fill="none" stroke="#A7A9AC" stroke-miterlimit="10" x1="862.5" y1="110" x2="957.5" y2="140"/>
		<line fill="none" stroke="#A7A9AC" stroke-miterlimit="10" x1="957.5" y1="105" x2="862.5" y2="135"/>
		<line fill="none" stroke="#A7A9AC" stroke-miterlimit="10" x1="857.5" y1="135" x2="762.5" y2="105"/>
		<line fill="none" stroke="#A7A9AC" stroke-miterlimit="10" x1="762.5" y1="140" x2="857.5" y2="110"/>
	</g>
	<g>
		<line fill="none" stroke="#A7A9AC" stroke-miterlimit="10" x1="852.929" y1="111.893" x2="941.317" y2="65.931"/>
		<line fill="none" stroke="#A7A9AC" stroke-miterlimit="10" x1="916.569" y1="41.183" x2="870.607" y2="129.571"/>
		<line fill="none" stroke="#A7A9AC" stroke-miterlimit="10" x1="867.071" y1="133.107" x2="778.683" y2="179.069"/>
		<line fill="none" stroke="#A7A9AC" stroke-miterlimit="10" x1="803.431" y1="203.817" x2="849.393" y2="115.429"/>
	</g>
	<g>
		<line fill="none" stroke="#A7A9AC" stroke-miterlimit="10" x1="870.607" y1="115.429" x2="916.569" y2="203.817"/>
		<line fill="none" stroke="#A7A9AC" stroke-miterlimit="10" x1="941.317" y1="179.069" x2="852.929" y2="133.107"/>
		<line fill="none" stroke="#A7A9AC" stroke-miterlimit="10" x1="849.393" y1="129.571" x2="803.431" y2="41.183"/>
		<line fill="none" stroke="#A7A9AC" stroke-miterlimit="10" x1="778.683" y1="65.931" x2="867.071" y2="111.893"/>
	</g>
	<g>
		<line fill="none" stroke="#A7A9AC" stroke-miterlimit="10" x1="848.21" y1="117.652" x2="895.848" y2="30.156"/>
		<line fill="none" stroke="#A7A9AC" stroke-miterlimit="10" x1="861.496" y1="23.453" x2="872.747" y2="122.44"/>
		<line fill="none" stroke="#A7A9AC" stroke-miterlimit="10" x1="871.79" y1="127.348" x2="824.152" y2="214.844"/>
		<line fill="none" stroke="#A7A9AC" stroke-miterlimit="10" x1="858.504" y1="221.547" x2="847.253" y2="122.56"/>
	</g>
	<g>
		<line fill="none" stroke="#A7A9AC" stroke-miterlimit="10" x1="864.848" y1="110.71" x2="952.344" y2="158.348"/>
		<line fill="none" stroke="#A7A9AC" stroke-miterlimit="10" x1="959.047" y1="123.996" x2="860.06" y2="135.247"/>
		<line fill="none" stroke="#A7A9AC" stroke-miterlimit="10" x1="855.152" y1="134.29" x2="767.656" y2="86.652"/>
		<line fill="none" stroke="#A7A9AC" stroke-miterlimit="10" x1="760.953" y1="121.004" x2="859.94" y2="109.753"/>
	</g>
	<g>
		<line fill="none" stroke="#A7A9AC" stroke-miterlimit="10" x1="855.091" y1="110.736" x2="950.646" y2="82.552"/>
		<line fill="none" stroke="#A7A9AC" stroke-miterlimit="10" x1="931.095" y1="53.521" x2="869.056" y2="131.471"/>
		<line fill="none" stroke="#A7A9AC" stroke-miterlimit="10" x1="864.909" y1="134.264" x2="769.354" y2="162.448"/>
		<line fill="none" stroke="#A7A9AC" stroke-miterlimit="10" x1="788.905" y1="191.479" x2="850.944" y2="113.529"/>
	</g>
	<g>
		<line fill="none" stroke="#A7A9AC" stroke-miterlimit="10" x1="871.764" y1="117.591" x2="899.948" y2="213.146"/>
		<line fill="none" stroke="#A7A9AC" stroke-miterlimit="10" x1="928.979" y1="193.595" x2="851.029" y2="131.556"/>
		<line fill="none" stroke="#A7A9AC" stroke-miterlimit="10" x1="848.236" y1="127.409" x2="820.052" y2="31.854"/>
		<line fill="none" stroke="#A7A9AC" stroke-miterlimit="10" x1="791.021" y1="51.405" x2="868.971" y2="113.444"/>
	</g>
</g>
<g>
	<g>
		<path fill="#6D6E71" d="M112.5,10C169.019,10,215,55.981,215,112.5S169.019,215,112.5,215S10,169.019,10,112.5S55.981,10,112.5,10
			 M112.5,0C50.368,0,0,50.368,0,112.5S50.368,225,112.5,225S225,174.632,225,112.5S174.632,0,112.5,0L112.5,0z"/>
	</g>
	<g>
		<path fill="#A7A9AC" d="M112.5,15c53.848,0,97.5,43.652,97.5,97.5S166.348,210,112.5,210S15,166.348,15,112.5S58.652,15,112.5,15
			 M112.5,13C57.635,13,13,57.635,13,112.5S57.635,212,112.5,212s99.5-44.635,99.5-99.5S167.365,13,112.5,13L112.5,13z"/>
	</g>
	
		<circle fill="none" stroke="#A7A9AC" stroke-width="3" stroke-linejoin="round" stroke-miterlimit="10" cx="112.5" cy="112.5" r="12.5"/>
	<g>
		<line fill="none" stroke="#A7A9AC" stroke-miterlimit="10" x1="100" y1="110" x2="130" y2="15"/>
		<line fill="none" stroke="#A7A9AC" stroke-miterlimit="10" x1="95" y1="15" x2="125" y2="110"/>
		<line fill="none" stroke="#A7A9AC" stroke-miterlimit="10" x1="125" y1="115" x2="95" y2="210"/>
		<line fill="none" stroke="#A7A9AC" stroke-miterlimit="10" x1="130" y1="210" x2="100" y2="115"/>
	</g>
	<g>
		<line fill="none" stroke="#A7A9AC" stroke-miterlimit="10" x1="115" y1="100" x2="210" y2="130"/>
		<line fill="none" stroke="#A7A9AC" stroke-miterlimit="10" x1="210" y1="95" x2="115" y2="125"/>
		<line fill="none" stroke="#A7A9AC" stroke-miterlimit="10" x1="110" y1="125" x2="15" y2="95"/>
		<line fill="none" stroke="#A7A9AC" stroke-miterlimit="10" x1="15" y1="130" x2="110" y2="100"/>
	</g>
	<g>
		<line fill="none" stroke="#A7A9AC" stroke-miterlimit="10" x1="105.429" y1="101.893" x2="193.817" y2="55.931"/>
		<line fill="none" stroke="#A7A9AC" stroke-miterlimit="10" x1="169.069" y1="31.183" x2="123.107" y2="119.571"/>
		<line fill="none" stroke="#A7A9AC" stroke-miterlimit="10" x1="119.571" y1="123.107" x2="31.183" y2="169.069"/>
		<line fill="none" stroke="#A7A9AC" stroke-miterlimit="10" x1="55.931" y1="193.817" x2="101.893" y2="105.429"/>
	</g>
	<g>
		<line fill="none" stroke="#A7A9AC" stroke-miterlimit="10" x1="123.107" y1="105.429" x2="169.069" y2="193.817"/>
		<line fill="none" stroke="#A7A9AC" stroke-miterlimit="10" x1="193.817" y1="169.069" x2="105.429" y2="123.107"/>
		<line fill="none" stroke="#A7A9AC" stroke-miterlimit="10" x1="101.893" y1="119.571" x2="55.931" y2="31.183"/>
		<line fill="none" stroke="#A7A9AC" stroke-miterlimit="10" x1="31.183" y1="55.931" x2="119.571" y2="101.893"/>
	</g>
	<g>
		<line fill="none" stroke="#A7A9AC" stroke-miterlimit="10" x1="100.71" y1="107.652" x2="148.348" y2="20.156"/>
		<line fill="none" stroke="#A7A9AC" stroke-miterlimit="10" x1="113.996" y1="13.453" x2="125.247" y2="112.44"/>
		<line fill="none" stroke="#A7A9AC" stroke-miterlimit="10" x1="124.29" y1="117.348" x2="76.652" y2="204.844"/>
		<line fill="none" stroke="#A7A9AC" stroke-miterlimit="10" x1="111.004" y1="211.547" x2="99.753" y2="112.56"/>
	</g>
	<g>
		<line fill="none" stroke="#A7A9AC" stroke-miterlimit="10" x1="117.348" y1="100.71" x2="204.844" y2="148.348"/>
		<line fill="none" stroke="#A7A9AC" stroke-miterlimit="10" x1="211.547" y1="113.996" x2="112.56" y2="125.247"/>
		<line fill="none" stroke="#A7A9AC" stroke-miterlimit="10" x1="107.652" y1="124.29" x2="20.156" y2="76.652"/>
		<line fill="none" stroke="#A7A9AC" stroke-miterlimit="10" x1="13.453" y1="111.004" x2="112.44" y2="99.753"/>
	</g>
	<g>
		<line fill="none" stroke="#A7A9AC" stroke-miterlimit="10" x1="107.591" y1="100.736" x2="203.146" y2="72.552"/>
		<line fill="none" stroke="#A7A9AC" stroke-miterlimit="10" x1="183.595" y1="43.521" x2="121.556" y2="121.471"/>
		<line fill="none" stroke="#A7A9AC" stroke-miterlimit="10" x1="117.409" y1="124.264" x2="21.854" y2="152.448"/>
		<line fill="none" stroke="#A7A9AC" stroke-miterlimit="10" x1="41.405" y1="181.479" x2="103.444" y2="103.529"/>
	</g>
	<g>
		<line fill="none" stroke="#A7A9AC" stroke-miterlimit="10" x1="124.264" y1="107.591" x2="152.448" y2="203.146"/>
		<line fill="none" stroke="#A7A9AC" stroke-miterlimit="10" x1="181.479" y1="183.595" x2="103.529" y2="121.556"/>
		<line fill="none" stroke="#A7A9AC" stroke-miterlimit="10" x1="100.736" y1="117.409" x2="72.552" y2="21.854"/>
		<line fill="none" stroke="#A7A9AC" stroke-miterlimit="10" x1="43.521" y1="41.405" x2="121.471" y2="103.444"/>
	</g>
</g>
<g>
	<polyline fill="none" stroke="#A7A9AC" stroke-width="9" stroke-linejoin="round" stroke-miterlimit="10" points="662.5,149.201 
		663.555,169.173 678.27,163.389 	"/>
	<path fill="none" stroke="#A7A9AC" stroke-width="9" stroke-linecap="round" stroke-linejoin="round" stroke-miterlimit="10" d="
		M722.944,156.023l-1.508-28.56c0,0-0.791-14.979-16.034-19.181c-15.243-4.202-24.512,9.906-24.512,9.906l-18.39,31.013"/>
	
		<line fill="none" stroke="#A7A9AC" stroke-width="9" stroke-linecap="square" stroke-linejoin="round" stroke-miterlimit="10" x1="723.438" y1="165.385" x2="721.922" y2="136.675"/>
</g>
<g>
	<path fill="none" stroke="#A7A9AC" stroke-width="9" stroke-miterlimit="10" d="M592.137,208.612c0,0,79.339,27.024,90.363,28.888
		s36.022,1.556,36.022,1.556"/>
	<g>
		<g>
			<polyline fill="none" stroke="#A7A9AC" stroke-width="9" stroke-linejoin="round" stroke-miterlimit="10" points="
				515.748,177.552 512.798,181.588 607.197,213.427 			"/>
		</g>
		<circle fill="#FFFFFF" stroke="#6D6E71" stroke-width="3" stroke-miterlimit="10" cx="721.98" cy="238.561" r="7.5"/>
	</g>
</g>
<g>
	
		<line fill="none" stroke="#A7A9AC" stroke-width="7" stroke-linejoin="round" stroke-miterlimit="10" x1="637.124" y1="119.885" x2="659.955" y2="51.634"/>
	<path fill="none" stroke="#808285" stroke-width="2" stroke-linecap="round" stroke-linejoin="round" stroke-miterlimit="10" d="
		M691.26,77.031c0,0-18.019,0.555-22.263-2.089c-4.244-2.644-33.949-21.153-33.949-21.153"/>
	<path fill="#6D6E71" d="M624.406,23.593c6.888-1.6,6.888-1.6,11.131,1.045s14.33,14.82,27.061,22.753s29.706,18.509,33.949,21.153
		c4.244,2.644,8.487,5.288,5.843,9.532c-2.644,4.244-6.888,1.6-11.131-1.045c-6.001-3.739-36.593-16.909-47.725-17.954
		c-7.04-0.661-16.975-10.577-22.818-20.108C614.874,29.437,617.518,25.193,624.406,23.593z"/>
</g>
<g>
	
		<line fill="none" stroke="#6FC4EE" stroke-width="12" stroke-linejoin="round" stroke-miterlimit="10" x1="585.376" y1="65.22" x2="588.773" y2="117.311"/>
	
		<line fill="none" stroke="#6FC4EE" stroke-width="10" stroke-linejoin="round" stroke-miterlimit="10" x1="586.883" y1="80.959" x2="406.601" y2="39.442"/>
	
		<line fill="none" stroke="#6FC4EE" stroke-width="10" stroke-linejoin="round" stroke-miterlimit="10" x1="588.389" y1="96.699" x2="407.43" y2="214.082"/>
	
		<line fill="none" stroke="#6FC4EE" stroke-width="10" stroke-linejoin="round" stroke-miterlimit="10" x1="403.973" y1="28.575" x2="408.552" y2="209.21"/>
	
		<line fill="none" stroke="#6FC4EE" stroke-width="5" stroke-linejoin="round" stroke-miterlimit="10" x1="405.479" y1="44.314" x2="273.245" y2="172.919"/>
	
		<line fill="none" stroke="#6FC4EE" stroke-width="9" stroke-linejoin="round" stroke-miterlimit="10" x1="273.245" y1="172.919" x2="407.43" y2="214.082"/>
	<circle fill="#FFFFFF" stroke="#6FC4EE" stroke-width="5" stroke-miterlimit="10" cx="276.242" cy="171.043" r="7.5"/>
	
		<circle fill="#FFFFFF" stroke="#6FC4EE" stroke-width="5" stroke-linejoin="round" stroke-miterlimit="10" cx="410.427" cy="212.207" r="7.5"/>
</g>
<g>
	
		<circle fill="none" stroke="#A7A9AC" stroke-width="5" stroke-linejoin="round" stroke-miterlimit="10" cx="1046.595" cy="106.206" r="32.5"/>
	<g>
		
			<line fill="none" stroke="#A7A9AC" stroke-width="8" stroke-linejoin="round" stroke-miterlimit="10" x1="1044.893" y1="109.305" x2="1039.663" y2="162.902"/>
		
			<line fill="none" stroke="#A7A9AC" stroke-width="8" stroke-linejoin="round" stroke-miterlimit="10" x1="1052.13" y1="44.709" x2="1046.899" y2="98.306"/>
		
			<line fill="none" stroke="#6D6E71" stroke-width="8" stroke-linejoin="round" stroke-miterlimit="10" x1="1057.469" y1="152.512" x2="1021.857" y2="173.292"/>
		<g>
			<path fill="#6D6E71" d="M1039.506,155.447c-0.694,0-1.4,0.097-2.099,0.301c-3.977,1.158-6.263,5.32-5.105,9.297
				c0.954,3.278,3.948,5.406,7.198,5.406c0.694,0,1.4-0.097,2.099-0.301c3.977-1.158,6.263-5.32,5.105-9.297
				C1045.75,157.575,1042.756,155.446,1039.506,155.447L1039.506,155.447z"/>
		</g>
		
			<line fill="none" stroke="#6D6E71" stroke-width="8" stroke-linejoin="round" stroke-miterlimit="10" x1="1072.766" y1="52.353" x2="1032.891" y2="41.866"/>
		<g>
			<path fill="#6D6E71" d="M1052.672,39.654c-0.694,0-1.4,0.097-2.099,0.301c-3.977,1.157-6.263,5.32-5.105,9.297
				c0.954,3.277,3.948,5.406,7.198,5.406c0.694,0,1.4-0.097,2.099-0.301c3.977-1.157,6.263-5.32,5.105-9.297
				C1058.916,41.782,1055.922,39.654,1052.672,39.654L1052.672,39.654z"/>
		</g>
		
			<circle fill="#FFFFFF" stroke="#A7A9AC" stroke-width="5" stroke-linejoin="round" stroke-miterlimit="10" cx="1046.595" cy="106.206" r="7.5"/>
	</g>
</g>
<g>
	
		<circle fill="none" stroke="#A7A9AC" stroke-width="3" stroke-linejoin="round" stroke-miterlimit="10" cx="615" cy="170" r="12.5"/>
	<g>
		<path fill="#6D6E71" d="M615,176.5c-3.584,0-6.5-2.916-6.5-6.5s2.916-6.5,6.5-6.5s6.5,2.916,6.5,6.5S618.584,176.5,615,176.5z"/>
		<path fill="#A7A9AC" d="M615,164.5c3.033,0,5.5,2.467,5.5,5.5s-2.467,5.5-5.5,5.5s-5.5-2.467-5.5-5.5S611.967,164.5,615,164.5
			 M615,162.5c-4.142,0-7.5,3.358-7.5,7.5s3.358,7.5,7.5,7.5s7.5-3.358,7.5-7.5S619.142,162.5,615,162.5L615,162.5z"/>
	</g>
</g>
<g>
	<g>
		<path fill="#A7A9AC" d="M324.863,10.959c-8.462-3.562-18.674,3.053-25.404,7.605c-9.737,6.586-17.926,15.219-25.458,24.17
			c-14.076,16.728-26.364,36.021-32.739,57.082c-2.286,7.551-4.555,17.458-0.997,24.988c4.877,10.32,15.916,7.707,23.75,2.603
			c4.11-2.678,7.986-5.64,10.403-9.995c2.284-4.116,2.537-9.213,3.925-13.651c3.85-12.315,12.397-23.274,21.189-32.463
			c7.006-7.322,15.104-14.282,24.885-17.379c7.584-2.402,15.981-4.06,21.759-9.959c5.517-5.632,4.294-13.066-0.317-18.689
			c-5.312-6.477-13.557-8.69-19.894-13.667c-2.505-1.968-6.07,1.545-3.536,3.536c7.021,5.515,18.315,8.157,22.057,17.113
			c4.524,10.827-14.829,14.836-21.399,16.845c-10.215,3.124-18.511,10.142-25.995,17.55c-8.721,8.633-16.375,18.884-21.384,30.116
			c-1.994,4.471-3.146,9.069-4.199,13.825c-1.431,6.465-5.915,9.828-11.243,13.3c-5.225,3.404-12.901,5.41-15.749-1.814
			c-1.701-4.315-0.977-9.52-0.165-13.935c4.001-21.765,17.442-42.188,30.954-59.145c6.975-8.753,14.751-17.234,23.714-23.992
			c6.017-4.537,16.551-12.572,24.512-9.22C326.505,17.031,327.788,12.191,324.863,10.959z"/>
	</g>
</g>
<g>
	<path fill="#6D6E71" d="M225,226.5c-3.584,0-6.5-2.916-6.5-6.5s2.916-6.5,6.5-6.5s6.5,2.916,6.5,6.5S228.584,226.5,225,226.5z"/>
	<path fill="#A7A9AC" d="M225,214.5c3.033,0,5.5,2.467,5.5,5.5s-2.467,5.5-5.5,5.5s-5.5-2.467-5.5-5.5S221.967,214.5,225,214.5
		 M225,212.5c-4.142,0-7.5,3.358-7.5,7.5s3.358,7.5,7.5,7.5s7.5-3.358,7.5-7.5S229.142,212.5,225,212.5L225,212.5z"/>
</g>
<g>
	<path fill="#6D6E71" d="M585,31.5c-3.584,0-6.5-2.916-6.5-6.5s2.916-6.5,6.5-6.5s6.5,2.916,6.5,6.5S588.584,31.5,585,31.5z"/>
	<path fill="#A7A9AC" d="M585,19.5c3.033,0,5.5,2.467,5.5,5.5s-2.467,5.5-5.5,5.5s-5.5-2.467-5.5-5.5S581.967,19.5,585,19.5
		 M585,17.5c-4.142,0-7.5,3.358-7.5,7.5s3.358,7.5,7.5,7.5s7.5-3.358,7.5-7.5S589.142,17.5,585,17.5L585,17.5z"/>
</g>
<g>
	<path fill="#6D6E71" d="M980,211.5c-3.584,0-6.5-2.916-6.5-6.5s2.916-6.5,6.5-6.5s6.5,2.916,6.5,6.5S983.584,211.5,980,211.5z"/>
	<path fill="#A7A9AC" d="M980,199.5c3.033,0,5.5,2.467,5.5,5.5s-2.467,5.5-5.5,5.5s-5.5-2.467-5.5-5.5S976.967,199.5,980,199.5
		 M980,197.5c-4.142,0-7.5,3.358-7.5,7.5s3.358,7.5,7.5,7.5s7.5-3.358,7.5-7.5S984.142,197.5,980,197.5L980,197.5z"/>
</g>
</svg>
