<?xml version="1.0" encoding="UTF-8" standalone="no"?>
<svg
   xmlns:dc="http://purl.org/dc/elements/1.1/"
   xmlns:cc="http://creativecommons.org/ns#"
   xmlns:rdf="http://www.w3.org/1999/02/22-rdf-syntax-ns#"
   xmlns:svg="http://www.w3.org/2000/svg"
   xmlns="http://www.w3.org/2000/svg"
   xmlns:xlink="http://www.w3.org/1999/xlink"
   xmlns:sodipodi="http://sodipodi.sourceforge.net/DTD/sodipodi-0.dtd"
   xmlns:inkscape="http://www.inkscape.org/namespaces/inkscape"
   height="660"
   width="600"
   version="1.0"
   id="svg2"
   sodipodi:version="0.32"
   inkscape:version="0.48.2 r9819"
   sodipodi:docname="Blason_Vide_3D.svg"
   inkscape:export-filename="/Users/olivier/Desktop/Blason Rouge/Blason_Vide_3D.png"
   inkscape:export-xdpi="144"
   inkscape:export-ydpi="144"
   inkscape:output_extension="org.inkscape.output.svg.inkscape">
  <metadata
     id="metadata49">
    <rdf:RDF>
      <cc:Work
         rdf:about="">
        <dc:format>image/svg+xml</dc:format>
        <dc:type
           rdf:resource="http://purl.org/dc/dcmitype/StillImage" />
        <dc:title></dc:title>
        <dc:date></dc:date>
        <dc:creator>
          <cc:Agent>
            <dc:title></dc:title>
          </cc:Agent>
        </dc:creator>
        <cc:license
           rdf:resource="http://web.resource.org/cc/PublicDomain" />
        <dc:language></dc:language>
        <dc:subject>
          <rdf:Bag />
        </dc:subject>
      </cc:Work>
      <cc:License
         rdf:about="http://web.resource.org/cc/PublicDomain">
        <cc:permits
           rdf:resource="http://web.resource.org/cc/Reproduction" />
        <cc:permits
           rdf:resource="http://web.resource.org/cc/Distribution" />
        <cc:permits
           rdf:resource="http://web.resource.org/cc/DerivativeWorks" />
      </cc:License>
    </rdf:RDF>
  </metadata>
  <sodipodi:namedview
     inkscape:window-height="1220"
     inkscape:window-width="1024"
     inkscape:pageshadow="2"
     inkscape:pageopacity="0.0"
     guidetolerance="10.0"
     gridtolerance="10.0"
     objecttolerance="10.0"
     borderopacity="1.0"
     bordercolor="#666666"
     pagecolor="#ffffff"
     id="base"
     showgrid="false"
     height="660px"
     inkscape:zoom="0.50000001"
     inkscape:cx="315.00094"
     inkscape:cy="320.05833"
     inkscape:window-x="-4"
     inkscape:window-y="-4"
     inkscape:current-layer="layer4"
     showguides="true"
     inkscape:guide-bbox="true"
     inkscape:window-maximized="1" />
  <defs
     id="defs6">
    <linearGradient
       id="linearGradient2893">
      <stop
         style="stop-color:white;stop-opacity:0.3137255;"
         offset="0"
         id="stop2895" />
      <stop
         id="stop2897"
         offset="0.19"
         style="stop-color:white;stop-opacity:0.25098041;" />
      <stop
         style="stop-color:#6b6b6b;stop-opacity:0.1254902;"
         offset="0.60000002"
         id="stop2901" />
      <stop
         style="stop-color:black;stop-opacity:0.1254902;"
         offset="1"
         id="stop2899" />
    </linearGradient>
    <radialGradient
       inkscape:collect="always"
       xlink:href="#linearGradient2893"
       id="radialGradient3163"
       gradientUnits="userSpaceOnUse"
       gradientTransform="matrix(1.353218,0,0,1.348928,-77.62935,-85.74693)"
       cx="221.44487"
       cy="226.33101"
       fx="221.44487"
       fy="226.33101"
       r="300" />
    <radialGradient
       r="300"
       fy="226.33101"
       fx="221.44487"
       cy="226.33101"
       cx="221.44487"
       gradientTransform="matrix(1.353218,0,0,1.348928,-77.62935,-85.74693)"
       gradientUnits="userSpaceOnUse"
       id="radialGradient3163-1"
       xlink:href="#linearGradient2893-5"
       inkscape:collect="always" />
    <linearGradient
       id="linearGradient2893-5">
      <stop
         id="stop2895-5"
         offset="0"
         style="stop-color:white;stop-opacity:0.3137255;" />
      <stop
         style="stop-color:white;stop-opacity:0.25098041;"
         offset="0.19"
         id="stop2897-1" />
      <stop
         id="stop2901-7"
         offset="0.60000002"
         style="stop-color:#6b6b6b;stop-opacity:0.1254902;" />
      <stop
         id="stop2899-1"
         offset="1"
         style="stop-color:black;stop-opacity:0.1254902;" />
    </linearGradient>
    <radialGradient
       inkscape:collect="always"
       xlink:href="#linearGradient2893-5"
       id="radialGradient6055"
       gradientUnits="userSpaceOnUse"
       gradientTransform="matrix(1.353218,0,0,1.348928,-77.62935,-85.74693)"
       cx="221.44487"
       cy="226.33101"
       fx="221.44487"
       fy="226.33101"
       r="300" />
    <radialGradient
       inkscape:collect="always"
       xlink:href="#linearGradient2893-5"
       id="radialGradient6058"
       gradientUnits="userSpaceOnUse"
       gradientTransform="matrix(1.353218,0,0,1.348928,-233.37957,-1130.3622)"
       cx="221.44487"
       cy="226.33101"
       fx="221.44487"
       fy="226.33101"
       r="300" />
  </defs>
  <g
     inkscape:groupmode="layer"
     id="layer3"
     inkscape:label="Fond écu"
     style="display:inline"
     sodipodi:insensitive="true">
    <path
       style="fill:#fcef3c;fill-opacity:1;fill-rule:evenodd;stroke:none;display:inline"
       d="M 0,0 0,260.4375 C 0,274.01693 0.6625789,287.19198 1.9375,300 L 2,300 c 25.698488,257.61656 298,360 298,360 l 0,-1.5 c 0,0 270.47398,-101.95684 296,-358.5 l 2.0625,0 C 599.33742,287.19198 600,274.01694 600,260.4375 L 600,0 300,0 0,0 z"
       id="path3161"
       inkscape:connector-curvature="0" />
  </g>
  <g
     inkscape:groupmode="layer"
     id="layer4"
     inkscape:label="Meubles"
     style="display:inline"
     sodipodi:insensitive="true">
    <g
       transform="translate(1273.1651,563.42907)"
       inkscape:label="Piezas"
       id="g5818"
       style="stroke-width:3" />
    <g
       transform="translate(1273.1651,563.42907)"
       inkscape:label="Muebles"
       id="g5820"
       style="stroke-width:3" />
    <g
       transform="translate(1273.1651,563.42907)"
       inkscape:label="Ornamentos"
       id="g5822"
       style="stroke-width:3" />
    <g
       style="stroke-width:3;display:inline"
       transform="translate(-182.57438,1258.9167)"
       id="g5438"
       inkscape:label="Escudo" />
    <g
       transform="translate(-126.14566,1182.2763)"
       style="stroke-width:3;display:inline"
       inkscape:label="Piezas"
       id="g5440" />
    <g
       transform="translate(-126.14566,1182.2763)"
       inkscape:label="Ornamento"
       id="g5559"
       style="stroke-width:3" />
    <g
       transform="translate(-126.14566,1182.2763)"
       style="stroke-width:3;display:inline"
       inkscape:label="Borde 3px"
       id="g5561" />
    <g
       id="g4138"
       transform="matrix(1.1823384,0,0,1.1823384,-39.423893,-103.7007)"
       style="stroke-width:2.53734469;stroke-miterlimit:4;stroke-dasharray:none">
      <g
         id="g4132"
         style="stroke-width:2.53734469;stroke-miterlimit:4;stroke-dasharray:none">
        <g
           id="g4126"
           style="stroke-width:2.53734469;stroke-miterlimit:4;stroke-dasharray:none">
          <path
             inkscape:connector-curvature="0"
             style="fill:#000000;fill-opacity:1;stroke:#313131;stroke-width:2.53734469;stroke-miterlimit:4;stroke-opacity:1;stroke-dasharray:none"
             d="m 151.50597,211.76677 23.10951,0 7.42379,259.9938 -37.95709,0 z"
             id="rect48740"
             sodipodi:nodetypes="ccccc" />
          <rect
             ry="0"
             y="199.67349"
             x="146.37109"
             height="15.202795"
             width="33.234016"
             id="rect4124"
             style="color:#000000;fill:#000000;fill-opacity:1;fill-rule:nonzero;stroke:#313131;stroke-width:2.53734469;stroke-linecap:butt;stroke-linejoin:miter;stroke-miterlimit:4;stroke-opacity:1;stroke-dasharray:none;marker:none;visibility:visible;display:inline;overflow:visible;enable-background:accumulate" />
        </g>
        <use
           x="0"
           y="0"
           xlink:href="#g4126"
           id="use4130"
           transform="translate(248.03548,0)"
           width="600"
           height="660"
           style="stroke-width:2.53734469;stroke-miterlimit:4;stroke-dasharray:none" />
      </g>
      <path
         sodipodi:nodetypes="ccccccccccccc"
         inkscape:connector-curvature="0"
         style="fill:#000000;fill-opacity:1;fill-rule:evenodd;stroke:#313131;stroke-width:2.53734469;stroke-linecap:butt;stroke-linejoin:miter;stroke-miterlimit:4;stroke-opacity:1;stroke-dasharray:none"
         d="m 163.60821,471.76057 0,-134.15109 48.72523,29.90629 0,-29.90629 49.36825,29.90629 0,-29.90629 49.36826,29.90629 0,-29.90629 49.36825,29.90629 0,-29.90629 50.11053,29.90629 0,104.2448 z"
         id="path49108" />
      <path
         sodipodi:nodetypes="cc"
         inkscape:connector-curvature="0"
         style="fill:none;stroke:#313131;stroke-width:2.53734469;stroke-linecap:butt;stroke-linejoin:miter;stroke-miterlimit:4;stroke-opacity:1;stroke-dasharray:none"
         d="M 163.47597,379.47828 409.7382,377.76936"
         id="path49110" />
      <path
         inkscape:connector-curvature="0"
         style="fill:#ffffff;fill-rule:evenodd;stroke:#313131;stroke-width:2.53734469;stroke-linecap:butt;stroke-linejoin:miter;stroke-miterlimit:4;stroke-opacity:1;stroke-dasharray:none"
         d="m 179.85406,396.75743 11.95577,-0.40184 3.20018,26.35286 -17.71079,-0.21672 2.55484,-25.7343 z"
         id="path49112"
         sodipodi:nodetypes="ccccc" />
      <use
         style="fill:#ffffff;stroke:#313131;stroke-width:2.53734469;stroke-miterlimit:4;stroke-dasharray:none"
         height="660"
         width="600"
         transform="translate(50.461923,0)"
         id="use4063"
         xlink:href="#path49112"
         y="0"
         x="0" />
      <use
         style="fill:#ffffff;stroke:#313131;stroke-width:2.53734469;stroke-miterlimit:4;stroke-dasharray:none"
         height="660"
         width="600"
         transform="translate(50.461934,0)"
         id="use4065"
         xlink:href="#use4063"
         y="0"
         x="0" />
      <use
         style="fill:#ffffff;stroke:#313131;stroke-width:2.53734469;stroke-miterlimit:4;stroke-dasharray:none"
         height="660"
         width="600"
         transform="translate(50.461924,0)"
         id="use4067"
         xlink:href="#use4065"
         y="0"
         x="0" />
      <use
         style="fill:#ffffff;stroke:#313131;stroke-width:2.53734469;stroke-miterlimit:4;stroke-dasharray:none"
         height="660"
         width="600"
         transform="translate(50.461929,0)"
         id="use4069"
         xlink:href="#use4067"
         y="0"
         x="0" />
      <path
         sodipodi:nodetypes="sscccss"
         inkscape:connector-curvature="0"
         id="rect4082"
         d="m 211.38557,431.72208 c 10.45856,0 18.87826,8.4197 18.87826,18.87825 l 0,21.16024 -18.87826,0 -18.87825,0 0,-21.16024 c 0,-10.45855 8.4197,-18.87825 18.87825,-18.87825 z"
         style="color:#000000;fill:#ffffff;fill-opacity:1;fill-rule:nonzero;stroke:#313131;stroke-width:2.53734469;stroke-linecap:butt;stroke-linejoin:miter;stroke-miterlimit:4;stroke-opacity:1;stroke-dasharray:none;marker:none;visibility:visible;display:inline;overflow:visible;enable-background:accumulate" />
      <use
         style="stroke-width:2.53734469;stroke-miterlimit:4;stroke-dasharray:none"
         transform="translate(151.38577,0)"
         height="660"
         width="600"
         id="use4090"
         xlink:href="#rect4082"
         y="0"
         x="0" />
      <use
         style="stroke-width:2.53734469;stroke-miterlimit:4;stroke-dasharray:none"
         transform="translate(75.692887,0)"
         height="660"
         width="600"
         id="use4092"
         xlink:href="#rect4082"
         y="0"
         x="0" />
    </g>
    <path
       style="color:#000000;fill:#000000;fill-opacity:1;fill-rule:nonzero;stroke:#000000;stroke-width:3;stroke-linecap:butt;stroke-linejoin:miter;stroke-miterlimit:4;stroke-opacity:1;stroke-dasharray:none;marker:none;visibility:visible;display:inline;overflow:visible;enable-background:accumulate"
       d="m 300,466.25 c -26.55565,0 -48.09375,21.5381 -48.09375,48.09375 0,26.55565 21.5381,48.0625 48.09375,48.0625 26.55565,0 48.09375,-21.50685 48.09375,-48.0625 C 348.09375,487.7881 326.55565,466.25 300,466.25 z m 0,10.28125 c 20.875,0 37.8125,16.9375 37.8125,37.8125 0,20.875 -16.9375,37.78125 -37.8125,37.78125 -20.875,0 -37.8125,-16.90625 -37.8125,-37.78125 0,-20.875 16.9375,-37.8125 37.8125,-37.8125 z"
       id="path4923"
       inkscape:connector-curvature="0" />
    <use
       x="0"
       y="0"
       xlink:href="#path4923"
       id="use4932"
       transform="translate(120.91525,0)"
       width="600"
       height="660"
       style="stroke:#000000" />
    <use
       x="0"
       y="0"
       xlink:href="#use4932"
       id="use4934"
       transform="translate(-241.83051,0)"
       width="600"
       height="660"
       style="stroke:#000000" />
    <path
       sodipodi:nodetypes="cccccc"
       d="m 300,207.50227 c 0,0 -88.79539,-33.41218 -88.79539,-118.326043 0,-84.9138558 0,-77.095961 0,-77.095961 l 177.59078,-0.01738 0,77.113401 C 388.79539,174.09015 300,207.50231 300,207.50231 z"
       style="fill:#e20909;stroke:#000000;stroke-width:3;stroke-linecap:butt;stroke-linejoin:miter;stroke-miterlimit:4;stroke-opacity:1;stroke-dasharray:none;display:inline"
       id="path1411-4"
       inkscape:export-xdpi="144"
       inkscape:export-ydpi="144"
       inkscape:connector-curvature="0" />
    <path
       style="fill:#ffffff;stroke:#000000;stroke-width:3"
       d="m 284.92447,18.344533 0,24.120843 -26.13091,0 0,30.151055 26.13091,0 0,26.130909 -42.21148,0 0,30.15106 42.21148,0 0,64.32226 30.15106,0 0,-64.32226 42.21148,0 0,-30.15106 -42.21148,0 0,-26.130909 24.12084,0 0,-30.151055 -24.12084,0 0,-24.120843 -30.15106,0 z"
       id="rect4956"
       inkscape:connector-curvature="0" />
    <g
       transform="matrix(1.6836203,0,0,1.5692873,-1209.0877,-1840.0155)"
       id="g3820"
       style="stroke:#000000;stroke-width:3;stroke-miterlimit:4;stroke-opacity:1;stroke-dasharray:none;display:inline" />
    <path
       style="fill:#2b5df2;fill-rule:evenodd;stroke:#000000;stroke-width:3;stroke-linecap:butt;stroke-linejoin:miter;stroke-miterlimit:4;stroke-opacity:1;stroke-dasharray:none;display:inline"
       d="M 154.28125,8.71875 102.5,164.0625 84.21875,147.78125 l -27.3125,115.875 -19.8125,-26.125 -26.8125,105.5 c 0.904859,4.13284 1.843733,8.2389 2.875,12.28125 l 23.90625,-72.09375 21.46875,16.375 27.40625,-113.40625 20.75,14.40625 47.59375,-191.875 z"
       id="path6618-6"
       inkscape:connector-curvature="0" />
    <use
       x="0"
       y="0"
       xlink:href="#path6618-6"
       id="use6543"
       transform="matrix(-1,0,0,1,599.81249,0)"
       width="600"
       height="660" />
  </g>
  <g
     inkscape:groupmode="layer"
     id="layer2"
     inkscape:label="Reflet final"
     sodipodi:insensitive="true"
     style="display:inline">
    <path
       sodipodi:nodetypes="cccccc"
       d="M 300.00001,658.5 C 300.00001,658.5 598.50001,546.17969 598.50001,260.72817 C 598.50001,-24.723334 598.50001,2.1764865 598.50001,2.1764865 L 1.5,2.1764865 L 1.5,260.72817 C 1.5,546.17969 300.00001,658.5 300.00001,658.5 z "
       style="opacity:1;fill:url(#radialGradient3163);fill-opacity:1;fill-rule:evenodd;stroke:none;stroke-width:1px;stroke-linecap:butt;stroke-linejoin:miter;stroke-opacity:1"
       id="path2875"
       inkscape:export-xdpi="144"
       inkscape:export-ydpi="144" />
  </g>
  <g
     inkscape:groupmode="layer"
     id="layer1"
     inkscape:label="Contour final"
     style="display:inline"
     sodipodi:insensitive="true">
    <path
       sodipodi:nodetypes="cccccc"
       d="m 299.99999,658.50028 c 0,0 -298.49999,-112.32036 -298.49999,-397.772 0,-285.451616 0,-259.1705027 0,-259.1705027 l 596.99999,-0.058594 0,259.2290967 c 0,285.45164 -298.5,397.772 -298.5,397.772 z"
       style="fill:none;stroke:#000000;stroke-width:3.00000048;stroke-linecap:butt;stroke-linejoin:miter;stroke-miterlimit:4;stroke-opacity:1;stroke-dasharray:none"
       id="path1411"
       inkscape:export-xdpi="144"
       inkscape:export-ydpi="144"
       inkscape:connector-curvature="0" />
  </g>
</svg>
