<?xml version="1.0" encoding="utf-8"?>
<!-- Generator: Adobe Illustrator 18.1.0, SVG Export Plug-In . SVG Version: 6.00 Build 0)  -->
<svg version="1.1" id="Layer_1" xmlns="http://www.w3.org/2000/svg" xmlns:xlink="http://www.w3.org/1999/xlink" x="0px" y="0px"
	 viewBox="0 0 100 55" enable-background="new 0 0 100 55" xml:space="preserve">
<g>
	<g>
		<g>
			<path fill="#EC1C24" d="M18.5,7c-1,0.6-1.8,2.1-1.4,3.6c1.4-2,5.5-0.2,6.9-4.8c-0.9,0.7-2.1,1-2.7,0.9c2.3-0.9,3.6-4.3,1.5-6.6
				c0.6,2.7-2.8,2.9-5.5,3.4c-5.1,1-5.9,5.6-3.6,8C13.5,8.6,15.7,6.9,18.5,7L18.5,7z"/>
			<path fill="#EC1C24" d="M17.3,23.1c0.2-2.4,0.2-4.5,0.7-6.1h-4.3c0.5,1.6,0.6,3.7,0.7,6.1c0.2,2.9,0.7,11.3,0.7,11.3h1.3
				C16.5,34.4,17.1,26.1,17.3,23.1L17.3,23.1L17.3,23.1z M9.7,13.9c0,0,0.4,0.9,0.4,1.9h11.7c0-0.9,0.4-1.9,0.4-1.9l-5.5,0
				c0.7-1.2,2.6-3.3,6.4-3.3c4.2,0,8.8,3.4,8.8,9.3c0,8.9-9.3,15.3-15.9,19.5C9.3,35.3,0,28.9,0,20c0-6,4.7-9.3,8.8-9.3
				c3.8,0,5.6,2,6.4,3.3L9.7,13.9L9.7,13.9L9.7,13.9z"/>
		</g>
		<path fill="#FFFFFF" d="M17.3,23.2c0.2-2.4,0.2-4.5,0.7-6.1h-4.3c0.5,1.6,0.6,3.7,0.7,6.1c0.2,2.9,0.7,11.3,0.7,11.3h1.3
			C16.6,34.4,17.1,26.1,17.3,23.2L17.3,23.2z"/>
		<path fill="#FFFFFF" d="M9.7,13.9c0,0,0.4,0.9,0.4,1.9h11.7c0-0.9,0.4-1.9,0.4-1.9H9.7L9.7,13.9z"/>
		<path d="M41.5,6.5l2.8,7.4h-1.7L42,12.2h-2.8l-0.6,1.6H37l2.8-7.4H41.5z M41.6,11l-0.9-2.7h0l-1,2.7H41.6z"/>
		<path d="M46.2,8.5v0.7h0c0.2-0.3,0.4-0.5,0.7-0.6c0.3-0.2,0.6-0.2,0.9-0.2c0.3,0,0.6,0.1,0.9,0.2c0.3,0.1,0.5,0.4,0.6,0.7
			C49.6,9,49.8,8.8,50,8.7c0.3-0.2,0.6-0.3,1-0.3c0.3,0,0.5,0,0.8,0.1c0.2,0.1,0.4,0.2,0.6,0.3c0.2,0.2,0.3,0.4,0.4,0.6
			C52.9,9.7,53,10,53,10.3v3.6h-1.5v-3c0-0.2,0-0.3,0-0.5c0-0.2-0.1-0.3-0.1-0.4c-0.1-0.1-0.2-0.2-0.3-0.3c-0.1-0.1-0.3-0.1-0.5-0.1
			c-0.2,0-0.4,0-0.5,0.1C50,9.7,49.9,9.8,49.8,10c-0.1,0.1-0.1,0.3-0.1,0.4c0,0.2,0,0.3,0,0.5v3h-1.5v-3c0-0.2,0-0.3,0-0.5
			c0-0.2,0-0.3-0.1-0.4c-0.1-0.1-0.1-0.2-0.3-0.3c-0.1-0.1-0.3-0.1-0.5-0.1c-0.1,0-0.2,0-0.3,0c-0.1,0-0.2,0.1-0.3,0.2
			c-0.1,0.1-0.2,0.2-0.3,0.4c-0.1,0.2-0.1,0.4-0.1,0.6v3.1h-1.5V8.5H46.2z"/>
		<path d="M55.7,12.6c0.2,0.2,0.5,0.3,1,0.3c0.3,0,0.6-0.1,0.8-0.2c0.2-0.1,0.3-0.3,0.4-0.5h1.3c-0.2,0.6-0.5,1.1-1,1.4
			c-0.4,0.3-0.9,0.4-1.6,0.4c-0.4,0-0.8-0.1-1.1-0.2c-0.3-0.1-0.6-0.3-0.9-0.6c-0.2-0.2-0.4-0.5-0.5-0.9c-0.1-0.3-0.2-0.7-0.2-1.1
			c0-0.4,0.1-0.8,0.2-1.1c0.1-0.3,0.3-0.6,0.6-0.9c0.2-0.3,0.5-0.4,0.9-0.6c0.3-0.1,0.7-0.2,1.1-0.2c0.5,0,0.9,0.1,1.2,0.3
			c0.3,0.2,0.6,0.4,0.8,0.7c0.2,0.3,0.4,0.6,0.5,1c0.1,0.4,0.1,0.8,0.1,1.2h-3.9C55.4,12,55.5,12.4,55.7,12.6z M57.4,9.8
			c-0.2-0.2-0.4-0.3-0.8-0.3c-0.2,0-0.4,0-0.6,0.1c-0.2,0.1-0.3,0.2-0.4,0.3c-0.1,0.1-0.2,0.2-0.2,0.4c0,0.1-0.1,0.2-0.1,0.4h2.4
			C57.7,10.3,57.5,10,57.4,9.8z"/>
		<path d="M61.5,8.5v1h0c0.1-0.2,0.2-0.3,0.3-0.5c0.1-0.1,0.3-0.3,0.4-0.4c0.2-0.1,0.3-0.2,0.5-0.2c0.2-0.1,0.4-0.1,0.5-0.1
			c0.1,0,0.2,0,0.3,0.1v1.4c-0.1,0-0.2,0-0.2,0c-0.1,0-0.2,0-0.3,0c-0.3,0-0.5,0-0.7,0.1c-0.2,0.1-0.3,0.2-0.5,0.4
			c-0.1,0.2-0.2,0.3-0.2,0.5c0,0.2-0.1,0.4-0.1,0.7v2.4h-1.5V8.5H61.5z"/>
		<path d="M64.1,7.7V6.5h1.5v1.2H64.1z M65.6,8.5v5.3h-1.5V8.5H65.6z"/>
		<path d="M69.3,9.5c-0.2,0-0.4,0.1-0.6,0.2c-0.2,0.1-0.3,0.2-0.4,0.4c-0.1,0.2-0.2,0.4-0.2,0.6s-0.1,0.4-0.1,0.6
			c0,0.2,0,0.4,0.1,0.6c0,0.2,0.1,0.4,0.2,0.5c0.1,0.2,0.2,0.3,0.4,0.4c0.2,0.1,0.4,0.2,0.6,0.2c0.4,0,0.6-0.1,0.8-0.3
			c0.2-0.2,0.3-0.5,0.4-0.8h1.4c-0.1,0.7-0.4,1.3-0.8,1.6c-0.5,0.4-1,0.6-1.7,0.6c-0.4,0-0.8-0.1-1.1-0.2c-0.3-0.1-0.6-0.3-0.9-0.6
			c-0.2-0.2-0.4-0.5-0.5-0.9c-0.1-0.3-0.2-0.7-0.2-1.1c0-0.4,0.1-0.8,0.2-1.2c0.1-0.4,0.3-0.7,0.5-0.9c0.2-0.3,0.5-0.5,0.9-0.6
			c0.3-0.1,0.7-0.2,1.2-0.2c0.3,0,0.6,0,0.9,0.1c0.3,0.1,0.6,0.2,0.8,0.4c0.2,0.2,0.4,0.4,0.6,0.6c0.1,0.3,0.2,0.5,0.2,0.9h-1.4
			C70.3,9.8,69.9,9.5,69.3,9.5z"/>
		<path d="M72.9,9.3c0.2-0.2,0.3-0.4,0.6-0.5c0.2-0.1,0.5-0.2,0.8-0.3c0.3-0.1,0.6-0.1,0.9-0.1c0.3,0,0.5,0,0.8,0.1
			c0.3,0,0.5,0.1,0.8,0.2c0.2,0.1,0.4,0.3,0.6,0.5c0.1,0.2,0.2,0.5,0.2,0.8v2.8c0,0.2,0,0.5,0,0.7s0.1,0.4,0.1,0.5h-1.5
			c0-0.1-0.1-0.2-0.1-0.3c0-0.1,0-0.2,0-0.3c-0.2,0.2-0.5,0.4-0.8,0.5c-0.3,0.1-0.6,0.1-1,0.1c-0.3,0-0.5,0-0.7-0.1
			c-0.2-0.1-0.4-0.2-0.6-0.3c-0.2-0.1-0.3-0.3-0.4-0.5c-0.1-0.2-0.1-0.4-0.1-0.7c0-0.3,0.1-0.6,0.2-0.7c0.1-0.2,0.2-0.4,0.4-0.5
			c0.2-0.1,0.4-0.2,0.6-0.3c0.2-0.1,0.4-0.1,0.7-0.1c0.2,0,0.4-0.1,0.7-0.1c0.2,0,0.4-0.1,0.6-0.1c0.2,0,0.3-0.1,0.4-0.2
			c0.1-0.1,0.1-0.2,0.1-0.3c0-0.2,0-0.3-0.1-0.4c-0.1-0.1-0.1-0.2-0.2-0.2c-0.1-0.1-0.2-0.1-0.3-0.1c-0.1,0-0.2,0-0.4,0
			c-0.3,0-0.5,0.1-0.7,0.2c-0.2,0.1-0.3,0.3-0.3,0.6h-1.5C72.7,9.8,72.7,9.5,72.9,9.3z M75.8,11.4c-0.1,0-0.2,0.1-0.3,0.1
			c-0.1,0-0.2,0-0.3,0.1c-0.1,0-0.2,0-0.4,0.1c-0.1,0-0.2,0-0.3,0.1c-0.1,0-0.2,0.1-0.3,0.1c-0.1,0.1-0.1,0.1-0.2,0.2
			c0,0.1-0.1,0.2-0.1,0.3c0,0.1,0,0.2,0.1,0.3c0,0.1,0.1,0.2,0.2,0.2c0.1,0.1,0.2,0.1,0.3,0.1c0.1,0,0.2,0,0.3,0
			c0.3,0,0.5,0,0.7-0.1c0.2-0.1,0.3-0.2,0.4-0.3c0.1-0.1,0.1-0.3,0.1-0.4c0-0.1,0-0.2,0-0.3v-0.5C76,11.3,75.9,11.4,75.8,11.4z"/>
		<path d="M80,8.5v0.7h0c0.2-0.3,0.4-0.5,0.7-0.7c0.3-0.1,0.6-0.2,0.9-0.2c0.4,0,0.7,0.1,1,0.2c0.3,0.1,0.5,0.3,0.6,0.4
			c0.1,0.2,0.2,0.4,0.3,0.7c0.1,0.3,0.1,0.6,0.1,0.9v3.3h-1.5v-3c0-0.4-0.1-0.8-0.2-1c-0.1-0.2-0.4-0.3-0.7-0.3
			c-0.4,0-0.7,0.1-0.9,0.4c-0.2,0.2-0.3,0.6-0.3,1.2v2.8h-1.5V8.5H80z"/>
		<path d="M40.1,16.9v3.6H44v-3.6H46v9.5H44v-4.1h-3.8v4.1H38v-9.5H40.1z"/>
		<path d="M49.7,24.8c0.3,0.3,0.7,0.4,1.2,0.4c0.4,0,0.7-0.1,1-0.3c0.3-0.2,0.4-0.4,0.5-0.6h1.7c-0.3,0.8-0.7,1.4-1.2,1.8
			c-0.5,0.4-1.2,0.5-2,0.5c-0.5,0-1-0.1-1.5-0.3c-0.4-0.2-0.8-0.4-1.1-0.7c-0.3-0.3-0.5-0.7-0.7-1.1c-0.2-0.4-0.2-0.9-0.2-1.5
			c0-0.5,0.1-1,0.3-1.4c0.2-0.4,0.4-0.8,0.7-1.2c0.3-0.3,0.7-0.6,1.1-0.8c0.4-0.2,0.9-0.3,1.4-0.3c0.6,0,1.1,0.1,1.5,0.3
			c0.4,0.2,0.8,0.5,1.1,0.9c0.3,0.4,0.5,0.8,0.6,1.3c0.1,0.5,0.2,1,0.1,1.5h-5C49.3,24.1,49.4,24.5,49.7,24.8z M51.8,21.2
			c-0.2-0.2-0.6-0.4-1-0.4c-0.3,0-0.6,0.1-0.8,0.2s-0.4,0.2-0.5,0.4c-0.1,0.2-0.2,0.3-0.3,0.5c0,0.2-0.1,0.3-0.1,0.5h3.1
			C52.2,21.8,52.1,21.4,51.8,21.2z"/>
		<path d="M55.6,20.6c0.2-0.3,0.4-0.5,0.7-0.7c0.3-0.2,0.6-0.3,1-0.4c0.4-0.1,0.8-0.1,1.1-0.1c0.3,0,0.7,0,1.1,0.1
			c0.4,0,0.7,0.1,1,0.3c0.3,0.1,0.5,0.3,0.7,0.6c0.2,0.3,0.3,0.6,0.3,1v3.6c0,0.3,0,0.6,0.1,0.9c0,0.3,0.1,0.5,0.2,0.6h-1.9
			c0-0.1-0.1-0.2-0.1-0.3c0-0.1,0-0.2,0-0.3c-0.3,0.3-0.7,0.5-1.1,0.7c-0.4,0.1-0.8,0.2-1.3,0.2c-0.3,0-0.6,0-0.9-0.1
			c-0.3-0.1-0.5-0.2-0.7-0.4c-0.2-0.2-0.4-0.4-0.5-0.6c-0.1-0.3-0.2-0.6-0.2-0.9c0-0.4,0.1-0.7,0.2-1c0.1-0.3,0.3-0.5,0.5-0.6
			c0.2-0.2,0.5-0.3,0.7-0.3c0.3-0.1,0.6-0.1,0.8-0.2c0.3,0,0.6-0.1,0.8-0.1c0.3,0,0.5-0.1,0.7-0.1c0.2-0.1,0.4-0.1,0.5-0.2
			c0.1-0.1,0.2-0.3,0.2-0.4c0-0.2,0-0.4-0.1-0.5c-0.1-0.1-0.2-0.2-0.3-0.3c-0.1-0.1-0.2-0.1-0.4-0.1c-0.1,0-0.3,0-0.5,0
			c-0.4,0-0.7,0.1-0.9,0.2c-0.2,0.2-0.3,0.4-0.4,0.8h-1.9C55.3,21.2,55.4,20.9,55.6,20.6z M59.3,23.2c-0.1,0-0.2,0.1-0.4,0.1
			c-0.1,0-0.3,0-0.4,0.1c-0.2,0-0.3,0-0.5,0.1c-0.1,0-0.3,0.1-0.4,0.1c-0.1,0-0.3,0.1-0.4,0.2c-0.1,0.1-0.2,0.2-0.2,0.3
			c-0.1,0.1-0.1,0.3-0.1,0.4c0,0.2,0,0.3,0.1,0.4c0.1,0.1,0.1,0.2,0.3,0.3c0.1,0.1,0.2,0.1,0.4,0.1c0.1,0,0.3,0,0.4,0
			c0.4,0,0.7-0.1,0.9-0.2c0.2-0.1,0.4-0.3,0.5-0.4c0.1-0.2,0.2-0.3,0.2-0.5c0-0.2,0-0.3,0-0.4v-0.7C59.5,23.1,59.4,23.2,59.3,23.2z"
			/>
		<path d="M64.7,19.6v1.3h0c0.1-0.2,0.2-0.4,0.4-0.6c0.2-0.2,0.3-0.3,0.5-0.5c0.2-0.1,0.4-0.2,0.6-0.3c0.2-0.1,0.5-0.1,0.7-0.1
			c0.1,0,0.3,0,0.4,0.1v1.8c-0.1,0-0.2,0-0.3,0c-0.1,0-0.2,0-0.4,0c-0.3,0-0.6,0.1-0.9,0.2c-0.2,0.1-0.4,0.3-0.6,0.5
			c-0.1,0.2-0.2,0.4-0.3,0.7c-0.1,0.3-0.1,0.6-0.1,0.9v3.1h-1.9v-6.9H64.7z"/>
		<path d="M72.6,19.6v1.3h-1.4v3.4c0,0.3,0.1,0.5,0.2,0.6c0.1,0.1,0.3,0.2,0.6,0.2c0.1,0,0.2,0,0.3,0c0.1,0,0.2,0,0.3,0v1.5
			c-0.2,0-0.3,0-0.5,0.1c-0.2,0-0.4,0-0.6,0c-0.3,0-0.6,0-0.8-0.1c-0.3,0-0.5-0.1-0.7-0.2c-0.2-0.1-0.4-0.3-0.5-0.5
			c-0.1-0.2-0.2-0.5-0.2-0.8v-4.1h-1.1v-1.3h1.1v-2.1h1.9v2.1H72.6z"/>
		<path d="M41.5,29.4l2.8,7.4h-1.7L42,35.1h-2.8l-0.6,1.6H37l2.8-7.4H41.5z M41.6,33.9l-0.9-2.7h0l-1,2.7H41.6z"/>
		<path d="M46,35.5c0.1,0.1,0.1,0.2,0.3,0.3c0.1,0.1,0.2,0.1,0.4,0.2c0.1,0,0.3,0.1,0.4,0.1c0.1,0,0.2,0,0.3,0
			c0.1,0,0.2-0.1,0.3-0.1c0.1-0.1,0.2-0.1,0.2-0.2c0.1-0.1,0.1-0.2,0.1-0.3c0-0.2-0.1-0.4-0.4-0.5c-0.3-0.1-0.7-0.2-1.2-0.3
			c-0.2,0-0.4-0.1-0.6-0.2c-0.2-0.1-0.4-0.2-0.5-0.3c-0.2-0.1-0.3-0.2-0.4-0.4c-0.1-0.2-0.1-0.4-0.1-0.6c0-0.3,0.1-0.6,0.2-0.8
			c0.1-0.2,0.3-0.4,0.5-0.5c0.2-0.1,0.5-0.2,0.7-0.3c0.3-0.1,0.6-0.1,0.8-0.1s0.6,0,0.8,0.1c0.3,0.1,0.5,0.1,0.7,0.3
			c0.2,0.1,0.4,0.3,0.5,0.5c0.1,0.2,0.2,0.5,0.3,0.8h-1.4c0-0.3-0.1-0.5-0.3-0.6c-0.2-0.1-0.4-0.1-0.7-0.1c-0.1,0-0.2,0-0.3,0
			c-0.1,0-0.2,0-0.3,0.1c-0.1,0-0.1,0.1-0.2,0.2c-0.1,0.1-0.1,0.2-0.1,0.3c0,0.1,0,0.2,0.1,0.3c0.1,0.1,0.2,0.2,0.4,0.2
			c0.2,0.1,0.3,0.1,0.5,0.1c0.2,0,0.4,0.1,0.6,0.1c0.2,0,0.4,0.1,0.6,0.2c0.2,0.1,0.4,0.2,0.5,0.3c0.2,0.1,0.3,0.3,0.4,0.4
			c0.1,0.2,0.1,0.4,0.1,0.6c0,0.4-0.1,0.6-0.2,0.9c-0.1,0.2-0.3,0.4-0.6,0.6c-0.2,0.1-0.5,0.2-0.8,0.3c-0.3,0.1-0.6,0.1-0.9,0.1
			c-0.3,0-0.6,0-0.9-0.1c-0.3-0.1-0.6-0.2-0.8-0.3c-0.2-0.1-0.4-0.3-0.6-0.6c-0.1-0.2-0.2-0.5-0.2-0.9h1.4
			C45.9,35.2,45.9,35.3,46,35.5z"/>
		<path d="M51.5,35.5c0.1,0.1,0.1,0.2,0.3,0.3c0.1,0.1,0.2,0.1,0.4,0.2c0.1,0,0.3,0.1,0.4,0.1c0.1,0,0.2,0,0.3,0
			c0.1,0,0.2-0.1,0.3-0.1c0.1-0.1,0.2-0.1,0.2-0.2c0.1-0.1,0.1-0.2,0.1-0.3c0-0.2-0.1-0.4-0.4-0.5c-0.3-0.1-0.7-0.2-1.2-0.3
			c-0.2,0-0.4-0.1-0.6-0.2c-0.2-0.1-0.4-0.2-0.5-0.3c-0.2-0.1-0.3-0.2-0.4-0.4c-0.1-0.2-0.1-0.4-0.1-0.6c0-0.3,0.1-0.6,0.2-0.8
			c0.1-0.2,0.3-0.4,0.5-0.5c0.2-0.1,0.5-0.2,0.7-0.3c0.3-0.1,0.6-0.1,0.8-0.1c0.3,0,0.6,0,0.8,0.1c0.3,0.1,0.5,0.1,0.7,0.3
			c0.2,0.1,0.4,0.3,0.5,0.5c0.1,0.2,0.2,0.5,0.3,0.8h-1.4c0-0.3-0.1-0.5-0.3-0.6c-0.2-0.1-0.4-0.1-0.7-0.1c-0.1,0-0.2,0-0.3,0
			c-0.1,0-0.2,0-0.3,0.1c-0.1,0-0.1,0.1-0.2,0.2c-0.1,0.1-0.1,0.2-0.1,0.3c0,0.1,0,0.2,0.1,0.3c0.1,0.1,0.2,0.2,0.4,0.2
			c0.2,0.1,0.3,0.1,0.5,0.1c0.2,0,0.4,0.1,0.6,0.1c0.2,0,0.4,0.1,0.6,0.2c0.2,0.1,0.4,0.2,0.5,0.3c0.2,0.1,0.3,0.3,0.4,0.4
			c0.1,0.2,0.1,0.4,0.1,0.6c0,0.4-0.1,0.6-0.2,0.9c-0.1,0.2-0.3,0.4-0.6,0.6c-0.2,0.1-0.5,0.2-0.8,0.3c-0.3,0.1-0.6,0.1-0.9,0.1
			c-0.3,0-0.6,0-0.9-0.1c-0.3-0.1-0.6-0.2-0.8-0.3c-0.2-0.1-0.4-0.3-0.6-0.6c-0.1-0.2-0.2-0.5-0.2-0.9h1.4
			C51.4,35.2,51.5,35.3,51.5,35.5z"/>
		<path d="M55.9,33c0.1-0.3,0.3-0.6,0.6-0.9c0.2-0.2,0.5-0.4,0.9-0.6c0.3-0.1,0.7-0.2,1.1-0.2c0.4,0,0.8,0.1,1.1,0.2
			c0.3,0.1,0.6,0.3,0.9,0.6c0.2,0.2,0.4,0.5,0.6,0.9c0.1,0.3,0.2,0.7,0.2,1.2c0,0.4-0.1,0.8-0.2,1.2c-0.1,0.3-0.3,0.6-0.6,0.9
			c-0.2,0.2-0.5,0.4-0.9,0.6c-0.3,0.1-0.7,0.2-1.1,0.2c-0.4,0-0.8-0.1-1.1-0.2c-0.3-0.1-0.6-0.3-0.9-0.6c-0.2-0.2-0.4-0.5-0.6-0.9
			c-0.1-0.3-0.2-0.7-0.2-1.2C55.7,33.7,55.8,33.3,55.9,33z M57.2,34.7c0,0.2,0.1,0.4,0.2,0.5c0.1,0.2,0.2,0.3,0.4,0.4
			c0.2,0.1,0.4,0.1,0.6,0.1c0.2,0,0.5,0,0.6-0.1c0.2-0.1,0.3-0.2,0.4-0.4c0.1-0.2,0.2-0.3,0.2-0.5c0-0.2,0.1-0.4,0.1-0.6
			c0-0.2,0-0.4-0.1-0.6c0-0.2-0.1-0.4-0.2-0.5c-0.1-0.2-0.2-0.3-0.4-0.4c-0.2-0.1-0.4-0.1-0.6-0.1c-0.2,0-0.5,0-0.6,0.1
			c-0.2,0.1-0.3,0.2-0.4,0.4c-0.1,0.2-0.2,0.3-0.2,0.5c0,0.2-0.1,0.4-0.1,0.6C57.2,34.3,57.2,34.5,57.2,34.7z"/>
		<path d="M64.7,32.4c-0.2,0-0.4,0.1-0.6,0.2c-0.2,0.1-0.3,0.2-0.4,0.4c-0.1,0.2-0.2,0.4-0.2,0.6c0,0.2-0.1,0.4-0.1,0.6
			c0,0.2,0,0.4,0.1,0.6c0,0.2,0.1,0.4,0.2,0.5c0.1,0.2,0.2,0.3,0.4,0.4c0.2,0.1,0.4,0.2,0.6,0.2c0.4,0,0.6-0.1,0.8-0.3
			c0.2-0.2,0.3-0.5,0.4-0.8h1.4c-0.1,0.7-0.4,1.3-0.8,1.6c-0.5,0.4-1,0.6-1.7,0.6c-0.4,0-0.8-0.1-1.1-0.2c-0.3-0.1-0.6-0.3-0.9-0.6
			c-0.2-0.2-0.4-0.5-0.5-0.9C62.1,35,62,34.6,62,34.2c0-0.4,0.1-0.8,0.2-1.2c0.1-0.4,0.3-0.7,0.5-0.9c0.2-0.3,0.5-0.5,0.9-0.6
			c0.3-0.1,0.7-0.2,1.2-0.2c0.3,0,0.6,0,0.9,0.1c0.3,0.1,0.6,0.2,0.8,0.4c0.2,0.2,0.4,0.4,0.6,0.6c0.1,0.3,0.2,0.6,0.2,0.9h-1.4
			C65.7,32.7,65.4,32.4,64.7,32.4z"/>
		<path d="M68.2,30.6v-1.2h1.5v1.2H68.2z M69.6,31.4v5.3h-1.5v-5.3H69.6z"/>
		<path d="M71,32.2c0.2-0.2,0.3-0.4,0.6-0.5c0.2-0.1,0.5-0.2,0.8-0.3c0.3-0.1,0.6-0.1,0.9-0.1c0.3,0,0.5,0,0.8,0.1
			c0.3,0,0.5,0.1,0.8,0.2c0.2,0.1,0.4,0.3,0.6,0.5c0.1,0.2,0.2,0.5,0.2,0.8v2.8c0,0.2,0,0.5,0,0.7c0,0.2,0.1,0.4,0.1,0.5h-1.5
			c0-0.1-0.1-0.2-0.1-0.3c0-0.1,0-0.2,0-0.3c-0.2,0.2-0.5,0.4-0.8,0.5c-0.3,0.1-0.6,0.1-1,0.1c-0.3,0-0.5,0-0.7-0.1
			c-0.2-0.1-0.4-0.2-0.6-0.3c-0.2-0.1-0.3-0.3-0.4-0.5c-0.1-0.2-0.1-0.4-0.1-0.7c0-0.3,0.1-0.6,0.2-0.8c0.1-0.2,0.2-0.4,0.4-0.5
			c0.2-0.1,0.4-0.2,0.6-0.3c0.2-0.1,0.4-0.1,0.7-0.1c0.2,0,0.4-0.1,0.7-0.1c0.2,0,0.4-0.1,0.6-0.1c0.2,0,0.3-0.1,0.4-0.2
			c0.1-0.1,0.1-0.2,0.1-0.3c0-0.2,0-0.3-0.1-0.4c-0.1-0.1-0.1-0.2-0.2-0.2c-0.1-0.1-0.2-0.1-0.3-0.1c-0.1,0-0.2,0-0.4,0
			c-0.3,0-0.5,0.1-0.7,0.2c-0.2,0.1-0.3,0.3-0.3,0.6h-1.5C70.7,32.7,70.8,32.5,71,32.2z M73.9,34.3c-0.1,0-0.2,0.1-0.3,0.1
			c-0.1,0-0.2,0-0.3,0.1c-0.1,0-0.2,0-0.4,0.1c-0.1,0-0.2,0-0.3,0.1c-0.1,0-0.2,0.1-0.3,0.1c-0.1,0.1-0.1,0.1-0.2,0.2
			c0,0.1-0.1,0.2-0.1,0.3c0,0.1,0,0.2,0.1,0.3c0,0.1,0.1,0.2,0.2,0.2c0.1,0.1,0.2,0.1,0.3,0.1c0.1,0,0.2,0,0.3,0
			c0.3,0,0.5,0,0.7-0.1c0.2-0.1,0.3-0.2,0.4-0.3c0.1-0.1,0.1-0.3,0.1-0.4c0-0.1,0-0.2,0-0.3v-0.5C74.1,34.2,74,34.3,73.9,34.3z"/>
		<path d="M79.7,31.4v1h-1.1v2.6c0,0.2,0,0.4,0.1,0.5c0.1,0.1,0.2,0.1,0.5,0.1c0.1,0,0.2,0,0.2,0c0.1,0,0.1,0,0.2,0v1.1
			c-0.1,0-0.3,0-0.4,0c-0.2,0-0.3,0-0.4,0c-0.2,0-0.4,0-0.6,0c-0.2,0-0.4-0.1-0.5-0.2c-0.2-0.1-0.3-0.2-0.4-0.4
			c-0.1-0.2-0.1-0.4-0.1-0.7v-3.2h-0.9v-1h0.9v-1.6h1.5v1.6H79.7z"/>
		<path d="M80.4,30.6v-1.2h1.5v1.2H80.4z M81.9,31.4v5.3h-1.5v-5.3H81.9z"/>
		<path d="M83.1,33c0.1-0.3,0.3-0.6,0.6-0.9c0.2-0.2,0.5-0.4,0.9-0.6c0.3-0.1,0.7-0.2,1.1-0.2c0.4,0,0.8,0.1,1.1,0.2
			c0.3,0.1,0.6,0.3,0.9,0.6c0.2,0.2,0.4,0.5,0.6,0.9c0.1,0.3,0.2,0.7,0.2,1.2c0,0.4-0.1,0.8-0.2,1.2c-0.1,0.3-0.3,0.6-0.6,0.9
			c-0.2,0.2-0.5,0.4-0.9,0.6c-0.3,0.1-0.7,0.2-1.1,0.2c-0.4,0-0.8-0.1-1.1-0.2c-0.3-0.1-0.6-0.3-0.9-0.6c-0.2-0.2-0.4-0.5-0.6-0.9
			c-0.1-0.3-0.2-0.7-0.2-1.2C82.9,33.7,82.9,33.3,83.1,33z M84.4,34.7c0,0.2,0.1,0.4,0.2,0.5c0.1,0.2,0.2,0.3,0.4,0.4
			c0.2,0.1,0.4,0.1,0.6,0.1c0.2,0,0.5,0,0.6-0.1c0.2-0.1,0.3-0.2,0.4-0.4c0.1-0.2,0.2-0.3,0.2-0.5c0-0.2,0.1-0.4,0.1-0.6
			c0-0.2,0-0.4-0.1-0.6c0-0.2-0.1-0.4-0.2-0.5c-0.1-0.2-0.2-0.3-0.4-0.4c-0.2-0.1-0.4-0.1-0.6-0.1c-0.2,0-0.5,0-0.6,0.1
			c-0.2,0.1-0.3,0.2-0.4,0.4c-0.1,0.2-0.2,0.3-0.2,0.5c0,0.2-0.1,0.4-0.1,0.6C84.3,34.3,84.4,34.5,84.4,34.7z"/>
		<path d="M90.8,31.4v0.7h0c0.2-0.3,0.4-0.5,0.7-0.7c0.3-0.1,0.6-0.2,0.9-0.2c0.4,0,0.7,0.1,1,0.2c0.3,0.1,0.5,0.3,0.6,0.4
			c0.1,0.2,0.2,0.4,0.3,0.7c0.1,0.3,0.1,0.6,0.1,0.9v3.3h-1.5v-3c0-0.4-0.1-0.8-0.2-1c-0.1-0.2-0.4-0.3-0.7-0.3
			c-0.4,0-0.7,0.1-0.9,0.4c-0.2,0.2-0.3,0.6-0.3,1.2v2.8h-1.5v-5.3H90.8z"/>
		<g>
			<path d="M97.7,36.9c-1,0-1.6-0.7-1.6-1.7c0-1,0.8-1.7,1.6-1.7c0.9,0,1.6,0.7,1.6,1.7C99.3,36.2,98.5,36.9,97.7,36.9z M97.7,33.8
				c-0.7,0-1.3,0.6-1.3,1.4c0,0.8,0.5,1.4,1.3,1.4c0.7,0,1.3-0.6,1.3-1.4C98.9,34.4,98.4,33.8,97.7,33.8z M97.3,36.1H97v-1.8h0.7
				c0.4,0,0.7,0.2,0.7,0.5c0,0.3-0.2,0.5-0.5,0.5l0.5,0.8h-0.3l-0.5-0.8h-0.3V36.1z M97.7,35.1c0.2,0,0.4,0,0.4-0.3
				c0-0.2-0.2-0.2-0.4-0.2h-0.4v0.5H97.7z"/>
		</g>
	</g>
	<g>
		<path fill="#EC1C24" d="M38.6,45.6h1.2V53h-1.2V45.6z"/>
		<path fill="#EC1C24" d="M41.1,45.6h1.2v1.1h-1.2V45.6z M41.1,47.7h1.2V53h-1.2V47.7z"/>
		<path fill="#EC1C24" d="M43.1,47.7h0.9v-0.4c0-1.4,0.7-1.6,1.5-1.6c0.4,0,0.6,0,0.8,0.1v0.9c-0.2,0-0.3-0.1-0.5-0.1
			c-0.3,0-0.6,0.1-0.6,0.6v0.5h1v0.9h-1V53h-1.2v-4.5h-0.9V47.7z"/>
		<path fill="#EC1C24" d="M47.8,50.7c0,0.8,0.5,1.6,1.4,1.6c0.7,0,1.1-0.3,1.3-0.9h1.1c-0.3,1.2-1.3,1.8-2.4,1.8
			c-1.7,0-2.6-1.2-2.6-2.8c0-1.5,1-2.8,2.6-2.8c1.7,0,2.7,1.5,2.5,3.1H47.8z M50.5,49.9c0-0.7-0.5-1.4-1.3-1.4
			c-0.8,0-1.4,0.6-1.4,1.4H50.5z"/>
		<path fill="#231F20" d="M55.5,45.6h0.7v1h-0.7V45.6z M55.5,47.7h0.7V53h-0.7V47.7z"/>
		<path fill="#231F20" d="M60.6,49.2c0-0.8-0.7-1.2-1.4-1.2c-0.6,0-1.3,0.2-1.3,0.9c0,0.6,0.7,0.8,1.1,0.9l0.9,0.2
			c0.7,0.1,1.5,0.5,1.5,1.5c0,1.2-1.1,1.6-2.1,1.6c-1.2,0-2.1-0.6-2.2-1.9h0.7c0.1,0.9,0.7,1.3,1.6,1.3c0.6,0,1.5-0.3,1.5-1
			c0-0.6-0.6-0.8-1.2-1l-0.8-0.2c-0.8-0.2-1.5-0.5-1.5-1.4c0-1.1,1.1-1.5,2-1.5c1.1,0,1.9,0.6,2,1.7H60.6z"/>
		<path fill="#231F20" d="M64.7,47.7h0.7l1.4,4.6h0l1.3-4.6h0.7l1.3,4.6h0l1.4-4.6h0.7L70.5,53h-0.7l-1.3-4.5h0L67.1,53h-0.7
			L64.7,47.7z"/>
		<path fill="#231F20" d="M72.9,45.6h0.7v3h0c0.2-0.6,1-1.1,1.7-1.1c1.5,0,2,0.8,2,2.1V53h-0.7v-3.3c0-0.9-0.3-1.6-1.4-1.6
			c-1,0-1.7,0.8-1.7,1.8V53h-0.7V45.6z"/>
		<path fill="#231F20" d="M77.9,47.7h0.7l1.8,4.6l1.6-4.6h0.7l-2.3,6.2c-0.4,0.9-0.6,1.2-1.4,1.2c-0.3,0-0.4,0-0.5-0.1v-0.5
			c0.2,0,0.3,0.1,0.4,0.1c0.6,0,0.7-0.3,0.9-0.8L80,53L77.9,47.7z"/>
	</g>
	<g>
		<path fill="#231F20" d="M84.4,47.9h-0.5v1.3h-0.3v-1.3h-0.5v-0.2h1.2V47.9z M86.4,49.2h-0.3v-1.3h0l-0.5,1.3h-0.2L85,47.9h0v1.3
			h-0.3v-1.5h0.4l0.5,1.2l0.5-1.2h0.4V49.2z"/>
	</g>
</g>
</svg>
