<?xml version="1.0"?><svg width="216.8479" height="216.8829" xmlns="http://www.w3.org/2000/svg" xmlns:xlink="http://www.w3.org/1999/xlink">
 <title>A sun Cartoon with a long ray</title>
 <defs>
  <filter id="filter4730">
   <feGaussianBlur id="feGaussianBlur4732" stdDeviation="2.597379"/>
  </filter>
  <filter id="filter17277">
   <feGaussianBlur id="feGaussianBlur17279" stdDeviation="3.016293"/>
  </filter>
  <filter id="filter7785" height="1.336337" y="-0.168169" width="1.222696" x="-0.111348">
   <feGaussianBlur id="feGaussianBlur7787" stdDeviation="2.16611"/>
  </filter>
  <filter id="filter7789" height="1.480945" y="-0.240473" width="1.302027" x="-0.151013">
   <feGaussianBlur id="feGaussianBlur7791" stdDeviation="2.16611"/>
  </filter>
  <linearGradient id="linearGradient6092">
   <stop stop-color="#fff900" id="stop6094" offset="0"/>
   <stop stop-color="#ea8f00" id="stop6096" offset="1"/>
  </linearGradient>
  <radialGradient r="50.458801" fy="205.54878" fx="480.08002" cy="234.65076" cx="480.08002" gradientTransform="matrix(0.95874, 0, 0, 0.95874, -351.917, -111.326)" gradientUnits="userSpaceOnUse" id="radialGradient8294" xlink:href="#linearGradient6092"/>
  <radialGradient spreadMethod="pad" id="svg_5">
   <stop offset="0" stop-color="#FF0000"/>
   <stop offset="1" stop-color="#00ffff"/>
  </radialGradient>
 </defs>
 <metadata id="metadata7">image/svg+xml</metadata>
 <g>
  <title>Layer 1</title>
  <use height="744.09448" width="1052.3622" transform="matrix(0.832045,0.476323,-0.476323,0.832045,192.319,-189.343) " id="use7913" xlink:href="#g7904" y="-0.000031" x="0"/>
  <use height="744.09448" width="1052.3622" transform="matrix(0.830203,0.479527,-0.479527,0.830203,193.955,-190.45) " id="use7915" xlink:href="#use7913" y="0.000031" x="0"/>
  <use height="744.09448" width="1052.3622" transform="matrix(0.828443,0.48256,-0.48256,0.828443,195.51,-191.494) " id="use7917" xlink:href="#use7915" y="-0.000061" x="0"/>
  <use height="744.09448" width="1052.3622" transform="matrix(0.825979,0.486766,-0.486766,0.825979,-174.048,-318.934) " id="use7919" xlink:href="#use7917" y="-83.630661" x="400.759979"/>
  <use height="744.09448" width="1052.3622" transform="matrix(0.827669,0.483887,-0.483887,0.827669,196.194,-191.949) " id="use7921" xlink:href="#use7919" y="0" x="0"/>
  <use height="744.09448" width="1052.3622" transform="matrix(0.83202,0.476366,-0.476366,0.83202,192.341,-189.358) " id="use7923" xlink:href="#use7921" y="0" x="-0.000031"/>
  <use height="744.09448" width="1052.3622" transform="matrix(0.830809,0.478476,-0.478476,0.830809,-178.311,-316.086) " id="use7925" xlink:href="#use7923" y="-79.616394" x="401.576691"/>
  <use height="744.09448" width="1052.3622" transform="matrix(0.831639,0.477032,-0.477032,0.831639,192.68,-189.588) " id="use7927" xlink:href="#use7925" y="0" x="0"/>
  <use height="744.09448" width="1052.3622" transform="matrix(0.832031,0.476348,-0.476348,0.832031,192.331,-189.35) " id="use7929" xlink:href="#use7927" y="0.000015" x="-0.000061"/>
  <use height="744.09448" width="1052.3622" transform="matrix(0.831191,0.477812,-0.477812,0.831191,-178.65,-315.856) " id="use7931" xlink:href="#use7929" y="-79.295242" x="401.640228"/>
  <use height="744.09448" width="1052.3622" transform="matrix(0.834646,0.47175,-0.47175,0.834646,189.998,-187.757) " id="use7933" xlink:href="#use7931" y="4.540253" x="2.565971"/>
  <path fill="#ed7323" fill-opacity="0.999935" stroke-width="0.25" stroke-miterlimit="4" stroke-dashoffset="0" id="path3760" d="m108.346878,51.585258c-34.260361,0 -62.065578,27.805229 -62.065578,62.065582c0,34.260338 27.805248,62.06559 62.065578,62.06559c34.26033,0 62.065598,-27.805252 62.065598,-62.06559c0,-34.260338 -27.805267,-62.065582 -62.065598,-62.065582zm0.000809,14.538643c26.22699,0 47.526108,21.299126 47.526108,47.526138c0,26.22699 -21.299118,47.512054 -47.526108,47.512054c-26.227005,0 -47.512047,-21.285065 -47.512047,-47.512054c0,-26.227013 21.285042,-47.526138 47.512047,-47.526138z"/>
  <g id="svg_21">
   <path id="svg_10" fill="#ed8224" fill-opacity="0.999941" stroke-width="0.218" stroke-miterlimit="4" stroke-dashoffset="0" d="m50.894939,129.648041c-10.56744,-0.206177 -25.512629,-5.303192 -32.5478,-21.088577c16.935202,5.031876 18.052073,-9.834587 31.016253,-10.970291"/>
   <path id="svg_11" fill="#efbe52" fill-opacity="0.996957" stroke-width="0.218" stroke-miterlimit="4" stroke-dashoffset="0" filter="url(#filter7785)" d="m48.733929,124.253113c-7.842628,-1.128815 -17.830029,-3.6474 -25.558569,-13.436813c13.577108,4.247917 15.267241,-9.634361 25.187601,-11.255501"/>
   <path id="svg_12" fill="#ffff00" stroke-width="0.218" stroke-miterlimit="4" stroke-dashoffset="0" filter="url(#filter7789)" d="m48.866821,118.775848c-7.355862,-0.793175 -10.55212,-2.024841 -18.802071,-6.647217c9.525738,0.436119 13.17588,-11.238495 18.542698,-10.579865"/>
  </g>
  <g transform="rotate(180 181.65199279785156,114.61499786376953) " id="svg_22">
   <path id="svg_23" fill="#ed8224" fill-opacity="0.999941" stroke-width="0.218" stroke-miterlimit="4" stroke-dashoffset="0" d="m197.925964,130.645996c-10.567444,-0.206161 -25.512634,-5.3032 -32.547791,-21.088577c16.935181,5.031868 18.052063,-9.834579 31.016235,-10.970291"/>
   <path id="svg_24" fill="#efbe52" fill-opacity="0.996957" stroke-width="0.218" stroke-miterlimit="4" stroke-dashoffset="0" filter="url(#filter7785)" d="m195.764954,125.251068c-7.842651,-1.128815 -17.830017,-3.647385 -25.558594,-13.436821c13.577087,4.247932 15.267273,-9.634346 25.187622,-11.255486"/>
   <path id="svg_25" fill="#ffff00" stroke-width="0.218" stroke-miterlimit="4" stroke-dashoffset="0" filter="url(#filter7789)" d="m195.897827,119.773804c-7.355835,-0.793182 -10.552124,-2.024826 -18.802063,-6.647217c9.525757,0.436127 13.175842,-11.23848 18.542664,-10.579849"/>
  </g>
  <g transform="rotate(-90 107.65200042724611,187.61500549316406) " id="svg_26">
   <path id="svg_27" fill="#ed8224" fill-opacity="0.999941" stroke-width="0.218" stroke-miterlimit="4" stroke-dashoffset="0" d="m123.925957,203.645996c-10.567436,-0.206161 -25.512627,-5.303192 -32.547791,-21.088577c16.935181,5.031876 18.052071,-9.834579 31.016243,-10.970291"/>
   <path id="svg_28" fill="#efbe52" fill-opacity="0.996957" stroke-width="0.218" stroke-miterlimit="4" stroke-dashoffset="0" filter="url(#filter7785)" d="m121.764954,198.251068c-7.842651,-1.128815 -17.830017,-3.647385 -25.558594,-13.436813c13.577087,4.247925 15.267273,-9.634354 25.187622,-11.255493"/>
   <path id="svg_29" fill="#ffff00" stroke-width="0.218" stroke-miterlimit="4" stroke-dashoffset="0" filter="url(#filter7789)" d="m121.897827,192.773804c-7.355835,-0.793182 -10.552124,-2.024826 -18.802071,-6.647217c9.525764,0.436127 13.17585,-11.23848 18.542671,-10.579849"/>
  </g>
  <g transform="rotate(30 43.652301788330085,76.61530303955078) " id="svg_30">
   <path id="svg_31" fill="#ed8224" fill-opacity="0.999941" stroke-width="0.218" stroke-miterlimit="4" stroke-dashoffset="0" d="m59.925961,92.646004c-10.56744,-0.206161 -25.51263,-5.303207 -32.547791,-21.088585c16.935181,5.031868 18.052071,-9.834579 31.016239,-10.970287"/>
   <path id="svg_32" fill="#efbe52" fill-opacity="0.996957" stroke-width="0.218" stroke-miterlimit="4" stroke-dashoffset="0" filter="url(#filter7785)" d="m57.76495,87.251068c-7.842651,-1.128815 -17.830009,-3.647385 -25.55859,-13.436821c13.577091,4.247932 15.267269,-9.634346 25.187618,-11.255486"/>
   <path id="svg_33" fill="#ffff00" stroke-width="0.218" stroke-miterlimit="4" stroke-dashoffset="0" filter="url(#filter7789)" d="m57.897831,81.773804c-7.355843,-0.793182 -10.552132,-2.024826 -18.802071,-6.647217c9.525761,0.436127 13.17585,-11.238476 18.542671,-10.579849"/>
  </g>
  <g transform="rotate(60 70.652099609375,49.6151008605957) " id="svg_34">
   <path id="svg_35" fill="#ed8224" fill-opacity="0.999941" stroke-width="0.218" stroke-miterlimit="4" stroke-dashoffset="0" d="m86.925957,65.646004c-10.567436,-0.206161 -25.512627,-5.303204 -32.547787,-21.088585c16.935177,5.031872 18.052067,-9.834579 31.016239,-10.970287"/>
   <path id="svg_36" fill="#efbe52" fill-opacity="0.996957" stroke-width="0.218" stroke-miterlimit="4" stroke-dashoffset="0" filter="url(#filter7785)" d="m84.764954,60.251068c-7.842651,-1.128819 -17.830017,-3.647388 -25.558594,-13.436817c13.577087,4.247929 15.267273,-9.63435 25.187622,-11.255489"/>
   <path id="svg_37" fill="#ffff00" stroke-width="0.218" stroke-miterlimit="4" stroke-dashoffset="0" filter="url(#filter7789)" d="m84.897827,54.7738c-7.355835,-0.793179 -10.552124,-2.024818 -18.802071,-6.647209c9.525764,0.436119 13.17585,-11.23848 18.542671,-10.579849"/>
  </g>
  <g transform="rotate(120 146.6519927978516,50.615299224853516) " id="svg_38">
   <path id="svg_39" fill="#ed8224" fill-opacity="0.999941" stroke-width="0.218" stroke-miterlimit="4" stroke-dashoffset="0" d="m162.925964,66.646004c-10.567444,-0.206184 -25.512634,-5.303204 -32.547791,-21.088585c16.935181,5.031879 18.052063,-9.834568 31.016235,-10.970287"/>
   <path id="svg_40" fill="#efbe52" fill-opacity="0.996957" stroke-width="0.218" stroke-miterlimit="4" stroke-dashoffset="0" filter="url(#filter7785)" d="m160.764954,61.251068c-7.842651,-1.128819 -17.830017,-3.647388 -25.558594,-13.43681c13.577087,4.247932 15.267273,-9.634357 25.187622,-11.255497"/>
   <path id="svg_41" fill="#ffff00" stroke-width="0.218" stroke-miterlimit="4" stroke-dashoffset="0" filter="url(#filter7789)" d="m160.897827,55.7738c-7.355835,-0.793171 -10.552124,-2.024818 -18.802063,-6.647209c9.525757,0.436119 13.175842,-11.23848 18.542664,-10.579849"/>
  </g>
  <g transform="rotate(150 173.65199279785156,77.61509704589844) " id="svg_42">
   <path id="svg_43" fill="#ed8224" fill-opacity="0.999941" stroke-width="0.218" stroke-miterlimit="4" stroke-dashoffset="0" d="m189.925964,93.646004c-10.567444,-0.206184 -25.512634,-5.303207 -32.547791,-21.088585c16.935181,5.031883 18.052063,-9.834568 31.016235,-10.970287"/>
   <path id="svg_44" fill="#efbe52" fill-opacity="0.996957" stroke-width="0.218" stroke-miterlimit="4" stroke-dashoffset="0" filter="url(#filter7785)" d="m187.764954,88.251068c-7.842651,-1.128815 -17.830017,-3.647385 -25.558594,-13.436806c13.577087,4.247925 15.267273,-9.634361 25.187622,-11.255501"/>
   <path id="svg_45" fill="#ffff00" stroke-width="0.218" stroke-miterlimit="4" stroke-dashoffset="0" filter="url(#filter7789)" d="m187.897827,82.773804c-7.355835,-0.793175 -10.552124,-2.024826 -18.802063,-6.647217c9.525757,0.436127 13.175842,-11.23848 18.542664,-10.579849"/>
  </g>
  <g transform="rotate(-60 71.65239715576173,177.61500549316406) " id="svg_50">
   <path id="svg_51" fill="#ed8224" fill-opacity="0.999941" stroke-width="0.218" stroke-miterlimit="4" stroke-dashoffset="0" d="m87.925957,193.645996c-10.567436,-0.206177 -25.512627,-5.303192 -32.547787,-21.088577c16.935177,5.031876 18.052067,-9.834579 31.016239,-10.970291"/>
   <path id="svg_52" fill="#efbe52" fill-opacity="0.996957" stroke-width="0.218" stroke-miterlimit="4" stroke-dashoffset="0" filter="url(#filter7785)" d="m85.764954,188.251068c-7.842651,-1.128815 -17.830017,-3.647385 -25.558594,-13.436798c13.577087,4.247925 15.267273,-9.634369 25.187622,-11.255508"/>
   <path id="svg_53" fill="#ffff00" stroke-width="0.218" stroke-miterlimit="4" stroke-dashoffset="0" filter="url(#filter7789)" d="m85.897827,182.773804c-7.355835,-0.793182 -10.552124,-2.024826 -18.802071,-6.647217c9.525764,0.436127 13.17585,-11.23848 18.542671,-10.579849"/>
  </g>
  <g transform="rotate(-120 143.65199279785153,178.61500549316403) " id="svg_54">
   <path id="svg_55" fill="#ed8224" fill-opacity="0.999941" stroke-width="0.218" stroke-miterlimit="4" stroke-dashoffset="0" d="m159.925964,194.645996c-10.567444,-0.206177 -25.512634,-5.303192 -32.547798,-21.088577c16.935188,5.031876 18.052071,-9.834579 31.016243,-10.970291"/>
   <path id="svg_56" fill="#efbe52" fill-opacity="0.996957" stroke-width="0.218" stroke-miterlimit="4" stroke-dashoffset="0" filter="url(#filter7785)" d="m157.764954,189.251068c-7.842651,-1.128815 -17.830017,-3.647385 -25.558594,-13.436798c13.577087,4.247925 15.267273,-9.634369 25.187622,-11.255508"/>
   <path id="svg_57" fill="#ffff00" stroke-width="0.218" stroke-miterlimit="4" stroke-dashoffset="0" filter="url(#filter7789)" d="m157.897827,183.773804c-7.355835,-0.793182 -10.552124,-2.024826 -18.802063,-6.647217c9.525757,0.436127 13.175842,-11.23848 18.542664,-10.579849"/>
  </g>
  <g transform="rotate(-20 43.652400970458906,147.61500549316406) " id="svg_58">
   <path id="svg_59" fill="#ed8224" fill-opacity="0.999941" stroke-width="0.218" stroke-miterlimit="4" stroke-dashoffset="0" d="m59.925961,163.645996c-10.56744,-0.206177 -25.51263,-5.303192 -32.547791,-21.088577c16.935181,5.031876 18.052071,-9.834579 31.016239,-10.970291"/>
   <path id="svg_60" fill="#efbe52" fill-opacity="0.996957" stroke-width="0.218" stroke-miterlimit="4" stroke-dashoffset="0" filter="url(#filter7785)" d="m57.76495,158.251068c-7.842651,-1.128815 -17.830009,-3.647385 -25.55859,-13.436798c13.577091,4.247925 15.267269,-9.634369 25.187618,-11.255508"/>
   <path id="svg_61" fill="#ffff00" stroke-width="0.218" stroke-miterlimit="4" stroke-dashoffset="0" filter="url(#filter7789)" d="m57.897831,152.773804c-7.355843,-0.793182 -10.552132,-2.024826 -18.802071,-6.647217c9.525761,0.436127 13.17585,-11.23848 18.542671,-10.579849"/>
  </g>
  <g transform="rotate(-150 171.65199279785153,152.61500549316406) " id="svg_62">
   <path id="svg_63" fill="#ed8224" fill-opacity="0.999941" stroke-width="0.218" stroke-miterlimit="4" stroke-dashoffset="0" d="m187.925964,168.645996c-10.567444,-0.206177 -25.512634,-5.303192 -32.547791,-21.088577c16.935181,5.031876 18.052063,-9.834579 31.016235,-10.970291"/>
   <path id="svg_64" fill="#efbe52" fill-opacity="0.996957" stroke-width="0.218" stroke-miterlimit="4" stroke-dashoffset="0" filter="url(#filter7785)" d="m185.764954,163.251068c-7.842651,-1.128815 -17.830017,-3.647385 -25.558594,-13.436798c13.577087,4.247925 15.267273,-9.634369 25.187622,-11.255508"/>
   <path id="svg_65" fill="#ffff00" stroke-width="0.218" stroke-miterlimit="4" stroke-dashoffset="0" filter="url(#filter7789)" d="m185.897827,157.773804c-7.355835,-0.793182 -10.552124,-2.024826 -18.802063,-6.647217c9.525757,0.436127 13.175842,-11.23848 18.542664,-10.579849"/>
  </g>
  <path fill="url(#radialGradient8294)" fill-opacity="0.999935" stroke-width="0.25" stroke-miterlimit="4" stroke-dashoffset="0" d="m108.347549,65.266113c26.700439,0 48.384033,21.683609 48.384033,48.384033c0,26.700424 -21.683594,48.369705 -48.384033,48.369705c-26.700417,0 -48.369709,-21.66925 -48.369709,-48.369705c0,-26.700424 21.669292,-48.384033 48.369709,-48.384033z" id="path4743"/>
  <path transform="rotate(90 103.16761779785156,29.117454528808604) " id="svg_2" fill="#b75c0c" stroke-width="0.218" stroke-miterlimit="4" stroke-dashoffset="0" d="m130.441711,39.661743c-17.710403,-0.206158 -42.757668,-5.303188 -54.54818,-21.088579c28.382362,5.031881 30.254196,-9.834579 51.981384,-10.970289"/>
  <path transform="rotate(90 104.7366714477539,31.352462768554698) " id="svg_3" fill="#cc9c35" stroke-width="0.218" stroke-miterlimit="4" stroke-dashoffset="0" filter="url(#filter7785)" d="m126.154022,38.070869c-13.143822,-1.128811 -29.882057,-3.647381 -42.834702,-13.436811c22.754402,4.247921 25.587051,-9.634359 42.212967,-11.255499"/>
  <path transform="rotate(90 112.12249755859375,37.23691558837892) " id="svg_4" fill="#cece08" stroke-width="0.218" stroke-miterlimit="4" stroke-dashoffset="0" filter="url(#filter7789)" d="m127.878059,45.863884c-12.327934,-0.79319 -17.684723,-2.024834 -31.511131,-6.647224c15.9646,0.436134 22.08194,-11.238478 31.076408,-10.579847"/>
  <path fill="#f3d818" fill-opacity="0.999935" stroke-width="0.25" stroke-miterlimit="4" stroke-dashoffset="0" filter="url(#filter17277)" id="path3767" d="m108.346909,55.567791c-32.061996,0 -58.083069,26.021076 -58.083069,58.08305c0,32.061989 26.021072,58.083046 58.083069,58.083046c32.061935,0 58.083023,-26.021088 58.083023,-58.083046c0,-32.061974 -26.021088,-58.08305 -58.083023,-58.08305zm-0.000511,5.22863c29.167671,0 52.854942,23.68726 52.854942,52.854908c0,29.167625 -23.687271,52.839241 -52.854942,52.839241c-29.167625,0 -52.839207,-23.671616 -52.839207,-52.839241c0,-29.167648 23.671581,-52.854908 52.839207,-52.854908z"/>
  <path fill="#fbef00" stroke-width="0.25" stroke-miterlimit="4" stroke-dashoffset="0" filter="url(#filter4730)" d="m169.25975,116.491837c0.417679,-31.832314 -26.634171,-62.491646 -61.987328,-62.009087c-30.423332,0.415272 -59.844025,26.630463 -59.844025,57.754143c1.013962,-30.91758 31.851051,-53.593014 62.073532,-53.593014c30.865593,0 59.75782,26.013958 59.75782,57.847958zm-6.385391,6.226067c-4.372208,24.465767 -27.30394,47.091316 -53.751129,47.091362c-30.495087,0 -56.056759,-22.539734 -56.1119,-57.884857c-1.537979,35.064651 21.691597,60.675018 56.490601,60.899017c33.276207,0.216705 51.109825,-27.450256 53.372429,-50.105522z" id="path19323"/>
 </g>
</svg>