<svg id="icons" xmlns="http://www.w3.org/2000/svg" viewBox="0 0 260 240"><defs><style>.cls-1{fill:#b8cccc;}.cls-2{fill:#3f7070;}.cls-3{fill:#636d73;}.cls-4{fill:#fff;}.cls-5{fill:#646e73;}.cls-6{fill:#f5be46;}.cls-7{fill:#fafafa;}.cls-8{fill:#8cb0b0;}</style></defs><title>ofCtxt-Curves</title><rect class="cls-1" width="260" height="240" rx="4" ry="4"/><rect class="cls-2" x="16.29" y="182.77" width="227.43" height="40.81" rx="4" ry="4"/><path class="cls-3" d="M95.24,128.24a4.88,4.88,0,0,1,2-2,5.75,5.75,0,0,1,2.8-.68,5.07,5.07,0,0,1,2.69.71,4.76,4.76,0,0,1,1.8,2,6.77,6.77,0,0,1,.64,3,7.2,7.2,0,0,1-.71,3.33,4.86,4.86,0,0,1-1.95,2.07,5.69,5.69,0,0,1-2.84.7,4.8,4.8,0,0,1-4.51-2.82A7.65,7.65,0,0,1,95.24,128.24Zm7.76,0.85a3.75,3.75,0,0,0-1.17-1.64,2.93,2.93,0,0,0-1.87-.61,3.41,3.41,0,0,0-3.21,2.06,6,6,0,0,0-.49,2.56,6.11,6.11,0,0,0,.41,2.27,3.87,3.87,0,0,0,1.22,1.67,3.07,3.07,0,0,0,1.94.63,3.31,3.31,0,0,0,1.88-.54,3.42,3.42,0,0,0,1.24-1.59,6.65,6.65,0,0,0,.44-2.55A6.26,6.26,0,0,0,103,129.09Z"/><path class="cls-3" d="M120.79,131.32v5.19a1.12,1.12,0,0,0-.33.05l-0.46.17a11.39,11.39,0,0,1-1.43.45,7.64,7.64,0,0,1-1.76.17,5.55,5.55,0,0,1-2.95-.75,4.91,4.91,0,0,1-1.89-2.09,6.81,6.81,0,0,1-.65-3,6.9,6.9,0,0,1,.72-3.28,4.84,4.84,0,0,1,2-2,5.75,5.75,0,0,1,2.8-.68,10.43,10.43,0,0,1,1.43.08q0.54,0.08,1.17.23l0.71,0.16L120,127.55a5.59,5.59,0,0,0-1.39-.52,9,9,0,0,0-2-.17,3.31,3.31,0,0,0-1.85.53,3.53,3.53,0,0,0-1.27,1.53,5.63,5.63,0,0,0-.46,2.37,6.88,6.88,0,0,0,.4,2.44,3.67,3.67,0,0,0,1.23,1.69,3.28,3.28,0,0,0,2,.62,8.3,8.3,0,0,0,1.36-.11,2.57,2.57,0,0,0,1-.33v-3H117v-1.3h3.83Z"/><path class="cls-3" d="M129.79,128.49v8.87h-0.66a2,2,0,0,1-.48,0,0.45,0.45,0,0,1-.28-0.19,0.81,0.81,0,0,1-.1-0.44v-0.22a7.15,7.15,0,0,1-1.4.63,4.6,4.6,0,0,1-1.47.27,2.63,2.63,0,0,1-1.66-.45,2.23,2.23,0,0,1-.78-1.25,8.61,8.61,0,0,1-.2-2.05v-5.11h1.71v5.09a5.58,5.58,0,0,0,.16,1.57,1,1,0,0,0,.49.66,2.43,2.43,0,0,0,1,.15,3.31,3.31,0,0,0,1.05-.2,4.27,4.27,0,0,0,.92-0.41v-6.85h1.71Z"/><path class="cls-3" d="M132.28,125.23a1.34,1.34,0,0,1,.48-0.44,1.23,1.23,0,0,1,.6-0.16,1.07,1.07,0,0,1,.81.3,1,1,0,0,1,.28.75,1.13,1.13,0,0,1-.18.62,1.26,1.26,0,0,1-.47.44,1.27,1.27,0,0,1-.61.16,1.16,1.16,0,0,1-.54-0.13,1,1,0,0,1-.55-0.92A1.09,1.09,0,0,1,132.28,125.23Zm1.85,3.27v8.86h-1.71v-8.86h1.71Z"/><path class="cls-3" d="M141.49,128.71a2,2,0,0,1,1.06.83,3.16,3.16,0,0,1,.38,1.69v6.13h-0.7a2.23,2.23,0,0,1-.53,0,0.45,0.45,0,0,1-.28-0.22,1.11,1.11,0,0,1-.1-0.54v-0.06a3.27,3.27,0,0,1-1.07.61,4,4,0,0,1-1.42.26,3.15,3.15,0,0,1-1.4-.3,2.28,2.28,0,0,1-1-.87,2.48,2.48,0,0,1-.35-1.33,2.38,2.38,0,0,1,.46-1.45,2.92,2.92,0,0,1,1.27-.95,7.71,7.71,0,0,1,1.64-.43,11.22,11.22,0,0,1,1.74-.14v-0.8a1.45,1.45,0,0,0-.2-0.84,1,1,0,0,0-.59-0.38,4.78,4.78,0,0,0-1.1-.1,4.68,4.68,0,0,0-.86.09,7.39,7.39,0,0,0-.91.23,2.91,2.91,0,0,0-.63.27l-0.42-1.07a4.55,4.55,0,0,1,.73-0.32,9.8,9.8,0,0,1,1.21-.35,6,6,0,0,1,1.31-.15A5.51,5.51,0,0,1,141.49,128.71ZM140.12,136a3.93,3.93,0,0,0,.71-0.26,1.39,1.39,0,0,0,.4-0.26V133a8.58,8.58,0,0,0-1.28.11,4.11,4.11,0,0,0-1.15.32,2.15,2.15,0,0,0-.73.53,1.17,1.17,0,0,0-.26.79,1.29,1.29,0,0,0,1.53,1.37A2.94,2.94,0,0,0,140.12,136Z"/><path class="cls-3" d="M157.14,124.52v12.85H156.4a2,2,0,0,1-.49,0,0.49,0.49,0,0,1-.29-0.19,0.76,0.76,0,0,1-.1-0.44v-0.32a3.69,3.69,0,0,1-1,.71,3.27,3.27,0,0,1-1.47.29,3.43,3.43,0,0,1-1.75-.46,3.27,3.27,0,0,1-1.26-1.39,5,5,0,0,1-.47-2.28,5.36,5.36,0,0,1,.55-2.47,4.08,4.08,0,0,1,1.56-1.69,4.45,4.45,0,0,1,2.33-.6,4.83,4.83,0,0,1,1.45.22l0-.48v-3.71h1.71Zm-5.26,10.78a2,2,0,0,0,1.65.72,2.7,2.7,0,0,0,1.05-.2,3.82,3.82,0,0,0,.84-0.48v-5.17a1.38,1.38,0,0,0-.62-0.34,3.73,3.73,0,0,0-1-.11,2.26,2.26,0,0,0-1.3.39,2.56,2.56,0,0,0-.9,1.15,4.62,4.62,0,0,0-.33,1.83A3.52,3.52,0,0,0,151.87,135.29Z"/><path class="cls-3" d="M159.45,130.48a3.57,3.57,0,0,1,1.44-1.49,4.24,4.24,0,0,1,2.08-.51,3.79,3.79,0,0,1,2.22.61,3.51,3.51,0,0,1,1.28,1.62,6.14,6.14,0,0,1,.4,2.29,5,5,0,0,1-.52,2.37,3.54,3.54,0,0,1-1.44,1.49,4.28,4.28,0,0,1-2.09.5,3.78,3.78,0,0,1-2.21-.61,3.51,3.51,0,0,1-1.28-1.62,6.14,6.14,0,0,1-.4-2.29A5,5,0,0,1,159.45,130.48Zm5.44,0.84a2.55,2.55,0,0,0-.75-1.18,2.09,2.09,0,0,0-2.91.36,3.87,3.87,0,0,0-.56,2.26,5.58,5.58,0,0,0,.25,1.72,2.67,2.67,0,0,0,.75,1.21,1.82,1.82,0,0,0,1.25.45,1.88,1.88,0,0,0,1.65-.82,4,4,0,0,0,.57-2.3A5.48,5.48,0,0,0,164.89,131.32Z"/><path class="cls-3" d="M82.73,149.31v-2.86H94.37v2.86H90.42v11.94H86.69V149.31h-4Z"/><path class="cls-3" d="M105.26,156.4h-6.5a2.4,2.4,0,0,0,.82,1.75,3.09,3.09,0,0,0,2,.55,9,9,0,0,0,1.68-.17,4.7,4.7,0,0,0,1.3-.39l0.55,1.92a5.29,5.29,0,0,1-1.79.84,9,9,0,0,1-2.59.35,6.28,6.28,0,0,1-3-.67,4.39,4.39,0,0,1-1.88-1.92,6.57,6.57,0,0,1-.64-3,6,6,0,0,1,.66-2.83,4.77,4.77,0,0,1,1.92-2,6,6,0,0,1,3-.71,5.41,5.41,0,0,1,3.34,1,4,4,0,0,1,1.32,3.33A13.49,13.49,0,0,1,105.26,156.4Zm-3.21-2.17a2.15,2.15,0,0,0-.34-1.33,1.27,1.27,0,0,0-1.07-.43,1.66,1.66,0,0,0-1.26.48,2.87,2.87,0,0,0-.59,1.65H102C102.05,154.52,102.06,154.4,102.06,154.24Z"/><path class="cls-3" d="M108,158.26a7.74,7.74,0,0,0,1.23.41,5.7,5.7,0,0,0,1.38.17,2.72,2.72,0,0,0,1.18-.19,0.62,0.62,0,0,0,.37-0.59,0.65,0.65,0,0,0-.27-0.51,3,3,0,0,0-.77-0.43q-0.5-.2-1.36-0.47a4.56,4.56,0,0,1-2.19-1.3,3.11,3.11,0,0,1-.67-2.08,2.53,2.53,0,0,1,.61-1.71,3.67,3.67,0,0,1,1.65-1.06,7.31,7.31,0,0,1,2.35-.35,10,10,0,0,1,2.16.21,5.36,5.36,0,0,1,1.41.47l-0.32,2.5a2.82,2.82,0,0,0-.65-0.37,5.59,5.59,0,0,0-1-.32,4.59,4.59,0,0,0-1-.13,3.39,3.39,0,0,0-1.3.18,0.6,0.6,0,0,0-.4.55,0.67,0.67,0,0,0,.2.49,2.17,2.17,0,0,0,.68.41,14.15,14.15,0,0,0,1.39.47,5.51,5.51,0,0,1,2.32,1.24,2.7,2.7,0,0,1,.74,2,3,3,0,0,1-.57,1.87,3.47,3.47,0,0,1-1.63,1.16,7.13,7.13,0,0,1-2.47.39,10.5,10.5,0,0,1-3.15-.49,4.75,4.75,0,0,1-1-.41l0.35-2.49A3.3,3.3,0,0,0,108,158.26Z"/><path class="cls-3" d="M118,152.52H116.7v-1.9a7.65,7.65,0,0,0,1.28-.5,1.41,1.41,0,0,0,.63-0.68q0.13-.27.5-1.24l0.28-.71h2.19v2.67h2.88v2.36h-2.88v3.88a6.9,6.9,0,0,0,.11,1.47,0.85,0.85,0,0,0,.37.59,1.81,1.81,0,0,0,.8.13,3.56,3.56,0,0,0,.87-0.13,2.49,2.49,0,0,0,.75-0.3l0.43,2a3.34,3.34,0,0,1-.86.51,7.38,7.38,0,0,1-2.84.58,4,4,0,0,1-1.89-.39,2.24,2.24,0,0,1-1-1.17,5.35,5.35,0,0,1-.32-2v-5.18Z"/><path class="cls-3" d="M135.77,156.4h-6.5a2.4,2.4,0,0,0,.82,1.75,3.09,3.09,0,0,0,2,.55,9,9,0,0,0,1.68-.17,4.7,4.7,0,0,0,1.3-.39l0.55,1.92a5.29,5.29,0,0,1-1.79.84,9,9,0,0,1-2.59.35,6.28,6.28,0,0,1-3-.67,4.39,4.39,0,0,1-1.88-1.92,6.57,6.57,0,0,1-.64-3,6,6,0,0,1,.66-2.83,4.77,4.77,0,0,1,1.92-2,6,6,0,0,1,3-.71,5.41,5.41,0,0,1,3.34,1,4,4,0,0,1,1.32,3.33A13.49,13.49,0,0,1,135.77,156.4Zm-3.21-2.17a2.15,2.15,0,0,0-.34-1.33,1.27,1.27,0,0,0-1.07-.43,1.66,1.66,0,0,0-1.26.48,2.87,2.87,0,0,0-.59,1.65h3.26C132.56,154.52,132.57,154.4,132.57,154.24Z"/><path class="cls-3" d="M152.34,158.48h-5.16l-0.78,2.76h-3.88l5.15-14.79h4.22l5.19,14.79h-3.93Zm-0.77-2.59-1.37-4.56-0.49-1.88-0.5,1.88-1.31,4.56h3.66Z"/><path class="cls-3" d="M164.9,145.7l-5.39,19.07h-2.83l5.39-19.07h2.83Z"/><path class="cls-3" d="M168.16,146.45h3.53a7.64,7.64,0,0,1,4.33,1,3.15,3.15,0,0,1,1.36,2.74,3.66,3.66,0,0,1-.57,2.05,2.74,2.74,0,0,1-1.65,1.16,3.7,3.7,0,0,1,1.54.54,3.09,3.09,0,0,1,1.07,1.15,3.33,3.33,0,0,1,.39,1.62,4.88,4.88,0,0,1-.57,2.43,3.78,3.78,0,0,1-1.92,1.58,9.6,9.6,0,0,1-3.64.57h-5.67V146.45h1.8Zm5.11,5.57a1.85,1.85,0,0,0,.58-1.54,1.3,1.3,0,0,0-.63-1.22,3.92,3.92,0,0,0-1.92-.37h-0.73a1.33,1.33,0,0,0-.54.07v3.44a8.87,8.87,0,0,0,1.43.07A2.91,2.91,0,0,0,173.27,152Zm0.49,6.36a2,2,0,0,0,.62-1.65,1.73,1.73,0,0,0-.64-1.46,3.32,3.32,0,0,0-2-.49h-1a2.45,2.45,0,0,0-.69.06v3.83a1.81,1.81,0,0,0,.72.17c0.36,0,.73.05,1.09,0.05A3,3,0,0,0,173.75,158.38Z"/><path class="cls-4" d="M88.79,206.34a6.25,6.25,0,0,0,1.37.53,6.36,6.36,0,0,0,1.68.22,2.35,2.35,0,0,0,1.34-.29,1,1,0,0,0,.39-0.89,1.2,1.2,0,0,0-.2-0.7,2.19,2.19,0,0,0-.66-0.57q-0.46-.29-1.44-0.76a7.37,7.37,0,0,1-2.12-1.47,2.92,2.92,0,0,1-.82-2.12,2.8,2.8,0,0,1,.55-1.79,3.09,3.09,0,0,1,1.48-1,6.53,6.53,0,0,1,2.1-.32,7.21,7.21,0,0,1,1.84.22,4.48,4.48,0,0,1,1.22.47l-0.4,1.92a5.32,5.32,0,0,0-1.15-.55,4.46,4.46,0,0,0-1.43-.21,2.32,2.32,0,0,0-1.36.31,1,1,0,0,0-.42.88,1.16,1.16,0,0,0,.21.69,2.23,2.23,0,0,0,.61.55q0.4,0.26,1.23.69a16.69,16.69,0,0,1,1.79,1,3.77,3.77,0,0,1,1.06,1.1,2.81,2.81,0,0,1,.4,1.53,3,3,0,0,1-.51,1.74,3.12,3.12,0,0,1-1.43,1.1A5.63,5.63,0,0,1,92,209a9.6,9.6,0,0,1-1.46-.11,10.47,10.47,0,0,1-1.3-.28,3.4,3.4,0,0,1-.8-0.31Z"/><path class="cls-4" d="M103.19,200.42a2.07,2.07,0,0,1,1.16,1,4,4,0,0,1,.38,1.91V209h-1.42a2.24,2.24,0,0,1-.53,0,0.45,0.45,0,0,1-.28-0.22,1.11,1.11,0,0,1-.1-0.54v-0.06a3.39,3.39,0,0,1-1,.62,3.35,3.35,0,0,1-1.31.25,3,3,0,0,1-1.51-.37,2.58,2.58,0,0,1-1-1,3,3,0,0,1-.36-1.49,2.21,2.21,0,0,1,.4-1.33,2.79,2.79,0,0,1,1.15-.89,9.27,9.27,0,0,1,3.55-.51v-0.47a1.13,1.13,0,0,0-.13-0.61,0.72,0.72,0,0,0-.49-0.27,6.48,6.48,0,0,0-1.14-.07,6.07,6.07,0,0,0-1.13.16,8.63,8.63,0,0,0-1.31.37l-0.54-1.46a5.7,5.7,0,0,1,.9-0.4,9.55,9.55,0,0,1,1.3-.37,6.46,6.46,0,0,1,1.36-.15A6.34,6.34,0,0,1,103.19,200.42Zm-1.45,6.8a1.29,1.29,0,0,0,.56-0.33v-2.12a5.81,5.81,0,0,0-1,.1,3.6,3.6,0,0,0-.83.22,1.44,1.44,0,0,0-.56.36,1,1,0,0,0-.21.67,1.14,1.14,0,0,0,1.22,1.26A2.33,2.33,0,0,0,101.74,207.22Z"/><path class="cls-4" d="M107,196.81a1.61,1.61,0,0,1,.58-0.53,1.54,1.54,0,0,1,.75-0.2,1.4,1.4,0,0,1,1,.37,1.27,1.27,0,0,1,.38,1,1.34,1.34,0,0,1-.21.73,1.57,1.57,0,0,1-.57.54,1.53,1.53,0,0,1-.76.2,1.49,1.49,0,0,1-.71-0.17,1.31,1.31,0,0,1-.51-0.47A1.33,1.33,0,0,1,107,196.81Zm2.5,3.34V209H107v-8.86h2.43Z"/><path class="cls-4" d="M118.5,200.6a3.26,3.26,0,0,1,1.28,1.38,4.88,4.88,0,0,1,.48,2.26,5.21,5.21,0,0,1-.58,2.5,4.16,4.16,0,0,1-1.64,1.69,4.81,4.81,0,0,1-2.41.6,10.55,10.55,0,0,1-1.56-.12,13.11,13.11,0,0,1-1.43-.28,2.68,2.68,0,0,1-.75-0.27V196.09h2.43v3.49l-0.06,1.5a3.66,3.66,0,0,1,1-.67A3.89,3.89,0,0,1,118.5,200.6Zm-1.23,1.9A1.57,1.57,0,0,0,116,202a2.66,2.66,0,0,0-.93.17,2.36,2.36,0,0,0-.74.42v4.52a2.12,2.12,0,0,0,1.37.28,1.68,1.68,0,0,0,1-.35,2.32,2.32,0,0,0,.72-1,4.36,4.36,0,0,0,.26-1.59A3,3,0,0,0,117.27,202.5Z"/><path class="cls-4" d="M127.54,200.42a2.07,2.07,0,0,1,1.16,1,4,4,0,0,1,.38,1.91V209h-1.42a2.24,2.24,0,0,1-.53,0,0.45,0.45,0,0,1-.28-0.22,1.11,1.11,0,0,1-.1-0.54v-0.06a3.39,3.39,0,0,1-1,.62,3.35,3.35,0,0,1-1.31.25,3,3,0,0,1-1.51-.37,2.58,2.58,0,0,1-1-1,3,3,0,0,1-.36-1.49,2.21,2.21,0,0,1,.4-1.33,2.79,2.79,0,0,1,1.15-.89,9.27,9.27,0,0,1,3.55-.51v-0.47a1.13,1.13,0,0,0-.13-0.61,0.72,0.72,0,0,0-.49-0.27,6.48,6.48,0,0,0-1.14-.07,6.07,6.07,0,0,0-1.13.16,8.63,8.63,0,0,0-1.31.37l-0.54-1.46a5.7,5.7,0,0,1,.9-0.4,9.55,9.55,0,0,1,1.3-.37,6.46,6.46,0,0,1,1.36-.15A6.34,6.34,0,0,1,127.54,200.42Zm-1.45,6.8a1.29,1.29,0,0,0,.56-0.33v-2.12a5.81,5.81,0,0,0-1,.1,3.6,3.6,0,0,0-.83.22,1.44,1.44,0,0,0-.56.36,1,1,0,0,0-.21.67,1.14,1.14,0,0,0,1.22,1.26A2.33,2.33,0,0,0,126.09,207.22Z"/><path class="cls-4" d="M148.36,200.47a2.12,2.12,0,0,1,1,1.08,5,5,0,0,1,.33,2V209h-2.43v-4.93a4.81,4.81,0,0,0-.1-1.12,1,1,0,0,0-.36-0.58,1.34,1.34,0,0,0-.76-0.18,2.78,2.78,0,0,0-1,.18,3.05,3.05,0,0,0-.85.46q0,0.33,0,.8V209H141.8v-4.93a4.68,4.68,0,0,0-.1-1.12,1,1,0,0,0-.37-0.58,1.28,1.28,0,0,0-.74-0.18,2.88,2.88,0,0,0-.91.18,2.5,2.5,0,0,0-.91.54V209h-2.43v-8.86h2.2l0,1a6.36,6.36,0,0,1,1.34-.71,4.1,4.1,0,0,1,1.55-.32,3.62,3.62,0,0,1,1.39.24,1.88,1.88,0,0,1,.89.77,5.77,5.77,0,0,1,1.35-.69,4.77,4.77,0,0,1,1.7-.31A3.33,3.33,0,0,1,148.36,200.47Z"/><path class="cls-4" d="M157.45,200.42a2.07,2.07,0,0,1,1.16,1,4,4,0,0,1,.38,1.91V209h-1.42a2.24,2.24,0,0,1-.53,0,0.45,0.45,0,0,1-.28-0.22,1.11,1.11,0,0,1-.1-0.54v-0.06a3.39,3.39,0,0,1-1,.62,3.35,3.35,0,0,1-1.31.25,3,3,0,0,1-1.51-.37,2.58,2.58,0,0,1-1-1,3,3,0,0,1-.36-1.49,2.21,2.21,0,0,1,.4-1.33,2.79,2.79,0,0,1,1.15-.89,9.27,9.27,0,0,1,3.55-.51v-0.47a1.13,1.13,0,0,0-.13-0.61,0.72,0.72,0,0,0-.49-0.27,6.48,6.48,0,0,0-1.14-.07,6.07,6.07,0,0,0-1.13.16,8.63,8.63,0,0,0-1.31.37l-0.54-1.46a5.7,5.7,0,0,1,.9-0.4,9.55,9.55,0,0,1,1.3-.37,6.46,6.46,0,0,1,1.36-.15A6.34,6.34,0,0,1,157.45,200.42Zm-1.45,6.8a1.29,1.29,0,0,0,.56-0.33v-2.12a5.81,5.81,0,0,0-1,.1,3.6,3.6,0,0,0-.83.22,1.44,1.44,0,0,0-.56.36,1,1,0,0,0-.21.67,1.14,1.14,0,0,0,1.22,1.26A2.33,2.33,0,0,0,156,207.22Z"/><path class="cls-4" d="M161.21,196.81a1.61,1.61,0,0,1,.58-0.53,1.54,1.54,0,0,1,.75-0.2,1.4,1.4,0,0,1,1,.37,1.27,1.27,0,0,1,.38,1,1.34,1.34,0,0,1-.21.73,1.57,1.57,0,0,1-.57.54,1.53,1.53,0,0,1-.76.2,1.49,1.49,0,0,1-.71-0.17,1.31,1.31,0,0,1-.51-0.47A1.33,1.33,0,0,1,161.21,196.81Zm2.5,3.34V209h-2.43v-8.86h2.43Z"/><path class="cls-4" d="M166.52,206.82a6,6,0,0,0,.94.29,4.62,4.62,0,0,0,1.05.12,2.52,2.52,0,0,0,1.06-.17,0.57,0.57,0,0,0,.33-0.56,0.81,0.81,0,0,0-.46-0.65,6.61,6.61,0,0,0-1.46-.61,3.5,3.5,0,0,1-1.71-1,2.45,2.45,0,0,1-.52-1.6,2.09,2.09,0,0,1,.45-1.36,2.77,2.77,0,0,1,1.26-.85,5.54,5.54,0,0,1,1.86-.29,6.39,6.39,0,0,1,1.52.16,4,4,0,0,1,1,.34l-0.26,1.87a2.26,2.26,0,0,0-.85-0.42,3.88,3.88,0,0,0-1.14-.18,3,3,0,0,0-1.15.16,0.55,0.55,0,0,0-.35.53,0.65,0.65,0,0,0,.16.45,1.6,1.6,0,0,0,.52.35,9.9,9.9,0,0,0,1,.4,6.2,6.2,0,0,1,1.45.66,2.11,2.11,0,0,1,1,1.92,2.27,2.27,0,0,1-.92,2,4.29,4.29,0,0,1-2.55.67,8.19,8.19,0,0,1-2.35-.36,3.2,3.2,0,0,1-.74-0.32l0.25-1.81A2.6,2.6,0,0,0,166.52,206.82Z"/><path class="cls-5" d="M89.94,65.75H82.22l-1.47,4.41H76.07l8-21.38h4.08l8,21.38H91.42Zm-6.53-3.57h5.34l-2.69-8Z"/><path class="cls-6" d="M178.11,48.78a8.46,8.46,0,0,1,5.19,1.4,5,5,0,0,1,1.86,4.22,4.58,4.58,0,0,1-.93,2.86A4.78,4.78,0,0,1,181.69,59a5.15,5.15,0,0,1,3.17,1.84,5.23,5.23,0,0,1,1.22,3.42,5.4,5.4,0,0,1-1.86,4.41,7.54,7.54,0,0,1-5,1.54h-9.78V68.86l2.39-.19V50.28l-2.39-.19V48.78h8.63Zm-4.49,9.59h4.92a5.6,5.6,0,0,0,3.59-1,3.62,3.62,0,0,0,1.27-3,3.58,3.58,0,0,0-1.35-3,6.45,6.45,0,0,0-3.94-1h-4.49v8.09Zm0,1.48v8.82h5.64A5.49,5.49,0,0,0,183,67.51a4.09,4.09,0,0,0,1.35-3.27,4.29,4.29,0,0,0-1.23-3.16,4.81,4.81,0,0,0-3.56-1.23h-5.92Z"/><rect class="cls-7" x="90.72" y="23.52" width="81.11" height="78.88"/><rect class="cls-1" x="94.11" y="48.9" width="36.92" height="15.03"/><rect class="cls-6" x="94.11" y="67.27" width="74.33" height="30.6"/><rect class="cls-8" x="90.7" y="17.6" width="81.11" height="7.57"/><path class="cls-7" d="M98.34,21.36a2.16,2.16,0,1,1-2.16-2.16,2.16,2.16,0,0,1,2.16,2.16"/><path class="cls-7" d="M103.91,21.36a2.16,2.16,0,1,1-2.16-2.16,2.16,2.16,0,0,1,2.16,2.16"/><path class="cls-7" d="M109.48,21.36a2.16,2.16,0,1,1-2.16-2.16,2.16,2.16,0,0,1,2.16,2.16"/><rect class="cls-7" x="131.03" y="23.52" width="40.94" height="78.88"/><rect class="cls-1" x="131.03" y="82.7" width="37.73" height="15.03"/><rect class="cls-6" x="131.03" y="48.76" width="37.73" height="30.6"/><rect class="cls-8" x="131.03" y="17.6" width="40.97" height="7.57"/><rect class="cls-1" x="94.11" y="29.69" width="36.92" height="15.03"/><rect class="cls-1" x="131.03" y="29.69" width="37.41" height="15.03"/><rect class="cls-5" x="130.55" y="9.88" width="1.6" height="100.24"/><path class="cls-4" d="M59,88a1,1,0,0,1,0-1.41h0a1,1,0,0,1,1.41,0h0a1,1,0,0,1,0,1.42h0a1,1,0,0,1-.73.31h0A1,1,0,0,1,59,88Zm-3.76-4.34h0a1,1,0,0,1,1-1h0a1,1,0,0,1,1,1h0a1,1,0,0,1-1,1h0A1,1,0,0,1,55.25,83.68Z"/><path class="cls-4" d="M64.25,88.3h0A1,1,0,0,1,63.52,88h0a1,1,0,0,1,0-1.42h0a1,1,0,0,1,1.41,0h0a1,1,0,0,1,0,1.41A1,1,0,0,1,64.25,88.3Zm3.45-3.62h0a1,1,0,0,1-1-1h0a1,1,0,0,1,1-1h0a1,1,0,0,1,1,1h0A1,1,0,0,1,67.7,84.68Z"/><path class="cls-4" d="M60.75,88.58a1,1,0,0,1,1-1h0a1,1,0,0,1,1,1h0a1,1,0,0,1-1,1h0A1,1,0,0,1,60.75,88.58Zm0-5a1,1,0,0,1,1-1h0a1,1,0,0,1,1,1h0a1,1,0,0,1-1,1h0A1,1,0,0,1,60.75,83.58Zm0-5a1,1,0,0,1,1-1h0a1,1,0,0,1,1,1h0a1,1,0,0,1-1,1h0A1,1,0,0,1,60.75,78.58Zm0-5a1,1,0,0,1,1-1h0a1,1,0,0,1,1,1h0a1,1,0,0,1-1,1h0A1,1,0,0,1,60.75,73.58Zm0-5a1,1,0,0,1,1-1h0a1,1,0,0,1,1,1h0a1,1,0,0,1-1,1h0A1,1,0,0,1,60.75,68.58Zm0-5a1,1,0,0,1,1-1h0a1,1,0,0,1,1,1h0a1,1,0,0,1-1,1h0A1,1,0,0,1,60.75,63.58Zm0-5a1,1,0,0,1,1-1h0a1,1,0,0,1,1,1h0a1,1,0,0,1-1,1h0A1,1,0,0,1,60.75,58.58Zm0-5a1,1,0,0,1,1-1h0a1,1,0,0,1,1,1h0a1,1,0,0,1-1,1h0A1,1,0,0,1,60.75,53.58Zm0-5a1,1,0,0,1,1-1h0a1,1,0,0,1,1,1h0a1,1,0,0,1-1,1h0A1,1,0,0,1,60.75,48.58Zm0-5a1,1,0,0,1,1-1h0a1,1,0,0,1,1,1h0a1,1,0,0,1-1,1h0A1,1,0,0,1,60.75,43.58Z"/><path class="cls-4" d="M201,34.35a1,1,0,0,1,0,1.41h0a1,1,0,0,1-1.41,0h0a1,1,0,0,1,0-1.42h0a1,1,0,0,1,.73-0.31h0A1,1,0,0,1,201,34.35Zm3.76,4.34h0a1,1,0,0,1-1,1h0a1,1,0,0,1-1-1h0a1,1,0,0,1,1-1h0A1,1,0,0,1,204.75,38.69Z"/><path class="cls-4" d="M195.75,34.07h0a1,1,0,0,1,.73.31h0a1,1,0,0,1,0,1.42h0a1,1,0,0,1-1.41,0h0a1,1,0,0,1,0-1.41A1,1,0,0,1,195.75,34.07Zm-3.45,3.62h0a1,1,0,0,1,1,1h0a1,1,0,0,1-1,1h0a1,1,0,0,1-1-1h0A1,1,0,0,1,192.3,37.69Z"/><path class="cls-4" d="M197.25,78.79a1,1,0,0,1,1-1h0a1,1,0,0,1,1,1h0a1,1,0,0,1-1,1h0A1,1,0,0,1,197.25,78.79Zm0-5a1,1,0,0,1,1-1h0a1,1,0,0,1,1,1h0a1,1,0,0,1-1,1h0A1,1,0,0,1,197.25,73.79Zm0-5a1,1,0,0,1,1-1h0a1,1,0,0,1,1,1h0a1,1,0,0,1-1,1h0A1,1,0,0,1,197.25,68.79Zm0-5a1,1,0,0,1,1-1h0a1,1,0,0,1,1,1h0a1,1,0,0,1-1,1h0A1,1,0,0,1,197.25,63.79Zm0-5a1,1,0,0,1,1-1h0a1,1,0,0,1,1,1h0a1,1,0,0,1-1,1h0A1,1,0,0,1,197.25,58.79Zm0-5a1,1,0,0,1,1-1h0a1,1,0,0,1,1,1h0a1,1,0,0,1-1,1h0A1,1,0,0,1,197.25,53.79Zm0-5a1,1,0,0,1,1-1h0a1,1,0,0,1,1,1h0a1,1,0,0,1-1,1h0A1,1,0,0,1,197.25,48.79Zm0-5a1,1,0,0,1,1-1h0a1,1,0,0,1,1,1h0a1,1,0,0,1-1,1h0A1,1,0,0,1,197.25,43.79Zm0-5a1,1,0,0,1,1-1h0a1,1,0,0,1,1,1h0a1,1,0,0,1-1,1h0A1,1,0,0,1,197.25,38.79Zm0-5a1,1,0,0,1,1-1h0a1,1,0,0,1,1,1h0a1,1,0,0,1-1,1h0A1,1,0,0,1,197.25,33.79Z"/></svg>