<?xml version="1.0" encoding="utf-8"?>
<!-- Generator: Adobe Illustrator 19.2.1, SVG Export Plug-In . SVG Version: 6.00 Build 0)  -->
<svg version="1.1" baseProfile="basic" id="Layer_1"
	 xmlns="http://www.w3.org/2000/svg" xmlns:xlink="http://www.w3.org/1999/xlink" x="0px" y="0px" viewBox="0 0 225.6 99.9"
	 xml:space="preserve">
<style type="text/css">
	.st0{fill:#FFFFFF;}
	.st1{fill:#250671;}
	.st2{fill:#F29D20;}
</style>
<g id="Layer_1_1_">
	<polygon class="st0" points="85.2,49.8 77.9,49.8 77.9,99.1 94.8,99.1 94.8,92.4 85.2,92.4 	"/>
	<path class="st0" d="M106.2,99.9c-9.7,0-9.7-10.7-9.7-10.7v-29c0,0-0.1-10.7,9.7-10.7c9.7,0,9.7,10.7,9.7,10.7v29
		C115.9,89.3,116,99.9,106.2,99.9z M106.2,56.6c-2.6,0-2.4,3.6-2.4,3.6v29c0,0-0.1,3.6,2.4,3.6c2.6,0,2.4-3.6,2.4-3.6v-29
		C108.6,60.2,108.8,56.6,106.2,56.6z"/>
	<path class="st0" d="M117.6,57.5v-7.4h20.9v7.4h-6.8v41.9h-7.2V57.5H117.6z"/>
	<path class="st0" d="M141,57.5v-7.4h20.9v7.4H155v41.9h-7.2V57.5H141z"/>
	<path class="st0" d="M164.4,50.1H181v7.4h-9.3v12.9h6.7v7.9h-6.7v13.6h9.3v7.4h-16.6V50.1z"/>
	<path class="st0" d="M196.6,99.4l-3.8-20.8h-1.9v20.8h-7.2V50.1h7.2c8.6,0,12.3,5,12.3,14.2c0,4.9-1.3,9.3-4,11.2l4.6,23.9H196.6z
		 M190.9,57.3v14.6c2,0,5.4-0.3,5.4-7.3C196.3,57.5,192.9,57.3,190.9,57.3z"/>
	<path class="st0" d="M214.4,65.9l0.2,0.5h0.1l0.2-0.5l3.6-15.8h7.1l-7.4,28.3v21H211v-21l-7.4-28.3h7.1L214.4,65.9z"/>
	<g>
		<path class="st1" d="M223.7,21.6c-0.1-9-8-16.6-17.5-17c-4.7-0.2-9,1.5-12.1,4.3c0,0,0,0,0.1,0c-1.3,1.2-2.6,2.4-3.9,3.5
			c-1.7,1.5-3,3.4-3.8,5.4c-0.8-0.8-1.9-1.3-3.1-1.4c-7.1,0-14.6,0.3-22.4,0.9l-0.1-2.8c0.7,0.5,1.5,0.8,2.4,0.8c0.2,0,0.3,0,0.5,0
			l17.1-1.5c0.9-0.1,1.7-0.4,2.3-1l3.9-3.5c0,0-0.1,0-0.1,0.1c1-0.8,1.5-2.1,1.3-3.5c-0.3-2.1-2-3.7-4.1-3.8c-0.2,0-0.3,0-0.5,0
			l-17.1,1.5c-0.9,0.1-1.7,0.4-2.4,1c0,0,0,0,0,0c-1.2,1.1-2.4,2.1-3.5,3.2l0-0.1c-0.1-2.2-1.9-4.1-4.2-4.2c-1.1,0-2.1,0.4-2.8,1.1
			c0,0,0,0,0.1-0.1c-1.3,1.2-2.6,2.4-3.9,3.5c-0.8,0.7-1.3,1.8-1.3,3l0.2,7.4c-2.9,0.3-5.8,0.6-8.7,0.9l0.1-14.9
			c0-2.3-1.8-4.2-4.1-4.3c-1.1,0-2.1,0.4-2.8,1c0,0,0,0,0,0c-1.3,1.2-2.6,2.4-3.9,3.5c-0.8,0.7-1.2,1.7-1.3,2.9l-0.1,13.6
			c-0.4,0.2-0.7,0.4-1,0.7c0,0,0,0,0,0c-1.3,1.2-2.6,2.4-3.9,3.5c-1,0.9-1.5,2.3-1.2,3.8c0.1,0.7,0.4,1.2,0.8,1.8
			c-3.3,0.7-7.7,1.3-11.6,1.2c-3.2-0.1-5.6-0.7-7-1.7c-0.7-0.5-1.4-1.3-1.4-3.2c-0.1-2.7,1-5.1,2.8-7.2c4.4-3.2,9.9-5.3,12.9-6.1
			c0.6-0.2,1.2-0.5,1.6-0.9l3.9-3.5c0,0-0.1,0-0.1,0.1c1.1-1,1.6-2.6,1.2-4.2c-0.5-1.8-2.2-3-4-3.1c-0.4,0-0.8,0-1.2,0.1
			c-0.7,0.2-11.1,3-18.4,9.6c0,0,0,0,0,0c-1.3,1.2-2.6,2.4-3.9,3.5c-4.1,3.7-7.2,8.7-7,15c0.1,4.1,1.8,7.5,4.9,9.8
			c2.8,2.1,6.8,3.3,11.9,3.5c7.4,0.3,14.8-1.7,16.2-2.1c0.6-0.2,1.1-0.5,1.6-0.9c0.9-0.8,1.7-1.6,2.6-2.4l0,5.6c0,1.1,0.4,2.1,1.2,3
			c0.8,0.8,1.8,1.3,3,1.4c1.1,0,2-0.3,2.8-1c1.3-1.2,2.6-2.4,3.9-3.5c0,0-0.1,0.1-0.1,0.1c0.8-0.7,1.4-1.8,1.4-3l0-10.2
			c3-0.3,6-0.7,9-0.9l0.4,18c0.1,2.3,1.9,4.1,4.2,4.2c1.1,0,2-0.4,2.7-1c1.3-1.2,2.6-2.4,3.9-3.5c0,0-0.1,0-0.1,0.1
			c0.9-0.7,1.4-1.8,1.3-3.1l-0.1-3.8c0.6,0.4,1.3,0.6,2,0.6c0.1,0,0.2,0,0.3,0l19.5-0.6c1,0,1.9-0.4,2.5-1c1.3-1.2,2.6-2.4,3.9-3.5
			c-0.1,0.1-0.2,0.2-0.3,0.2c0.4-0.3,0.7-0.6,0.9-1c3.2,3.2,7.6,5.3,12.5,5.5c4.7,0.2,8.9-1.5,12-4.3c1.3-1.2,2.6-2.4,3.9-3.5
			c-0.1,0.1-0.2,0.1-0.2,0.2C221.8,30.4,223.8,26.2,223.7,21.6z M167.1,29.6c-1,0-1.8,0.4-2.5,1c0,0,0,0,0,0l-3.2,2.9l-0.1-5.5
			c6.5-0.4,12.8-0.6,18.7-0.7c1,0,2.8-0.4,3.5-1l1.9-1.7c0.1,1.5,0.4,2.9,0.9,4.3L167.1,29.6z M210.8,28.3c-1.3,0.6-2.7,0.9-4.2,0.8
			c-5-0.2-9.1-4-9.2-8.5c0-1.3,0.3-2.5,0.9-3.5c1.3-0.6,2.7-0.9,4.2-0.8c5,0.2,9.1,4,9.2,8.5C211.7,26.1,211.4,27.3,210.8,28.3z"/>
	</g>
	<g>
		<path class="st0" d="M0.5,55.7h3c4.1,0,6.4,3,6.4,8.9v0.6c0,5.9-2.3,8.9-6.4,8.9h-3V55.7z M3.8,71.1c1.5,0,2.8-1.3,2.8-5.9v-0.6
			c0-4.6-1.3-5.9-2.8-5.9H3.7v12.5H3.8z"/>
		<path class="st0" d="M11.4,55.7h3.3c3.3,0,5.7,1.7,5.7,5.8v0.2c0,2.4-0.9,3.9-2.1,4.8l2.5,7.4h-3.4l-2.1-6.4c0,0-0.1,0-0.1,0h-0.6
			V74h-3.2L11.4,55.7L11.4,55.7z M14.8,64.8c1.4,0,2.4-0.8,2.4-3v-0.2c0-2.3-1.1-2.9-2.5-2.9h-0.1v6.1H14.8z"/>
		<path class="st0" d="M21.9,55.7h7v3h-3.8v4.6h3.4v3h-3.4V71H29v3h-7.1V55.7z"/>
		<path class="st0" d="M33.1,55.6h3.4L40,74h-3.2l-0.6-3.6h-2.9L32.7,74h-3.1L33.1,55.6z M35.7,67.5l-1-6.1l-1,6.1H35.7z"/>
		<path class="st0" d="M41,55.7h3.2l2.3,6.7l2.3-6.7h3.2V74h-3.1V62.9l-2.3,6.9h-0.1L44,62.9V74H41L41,55.7L41,55.7z"/>
		<path class="st0" d="M55.2,68.9v-0.6c0-3.5,1.2-5.2,2.9-5.2c1.7,0,2.9,1.7,2.9,5.2v0.6c0,3.5-1.2,5.2-2.9,5.2
			C56.4,74.2,55.2,72.5,55.2,68.9z M59,68.9v-0.6c0-2.8-0.4-3.5-1-3.5c-0.6,0-1,0.8-1,3.5v0.6c0,2.8,0.4,3.5,1,3.5
			C58.6,72.5,59,71.7,59,68.9z"/>
		<path class="st0" d="M61.8,63.3h3.9v1.8h-2v2.7h1.8v1.8h-1.8V74h-1.9V63.3z"/>
		<path class="st0" d="M70.5,63.3h2l2,10.8h-1.9l-0.4-2.1h-1.7L70.3,74h-1.8L70.5,63.3z M72.1,70.2l-0.6-3.5l-0.6,3.5H72.1z"/>
		<path class="st0" d="M0,77.9h3.7v17.8h3.9v3.5H0V77.9z"/>
		<path class="st0" d="M9.2,77.9H13v21.4H9.2V77.9z"/>
		<path class="st0" d="M15.2,77.9H23v3.5H19v5.4h3.5v3.5H19v8.9h-3.7C15.2,99.3,15.2,77.9,15.2,77.9z"/>
		<path class="st0" d="M24.7,77.9h8.2v3.5h-4.5v5.3h3.9v3.5h-3.9v5.4H33v3.5h-8.3V77.9z"/>
		<path class="st0" d="M36.8,81.4h-2.6v-3.5h9v3.5h-2.6v17.8h-3.7L36.8,81.4L36.8,81.4z"/>
		<path class="st0" d="M44.8,77.9h3.7v21.4h-3.7V77.9z"/>
		<path class="st0" d="M50.7,77.9h3.7l2.6,7.8l2.6-7.8h3.7v21.4h-3.6V86.3l-2.7,8.1H57l-2.7-8.1v12.9h-3.6V77.9z"/>
		<path class="st0" d="M65.6,77.9h8.2v3.5h-4.5v5.3h3.9v3.5h-3.9v5.4h4.6v3.5h-8.3C65.6,99.3,65.6,77.9,65.6,77.9z"/>
	</g>
	<g>
		<path class="st2" d="M167.3,11.8c0.1,0,0.1,0,0.2,0c0.1,0,0.2,0,0.3,0l17.1-1.5c1.1-0.1,2.1-0.6,2.7-1.4c0.7-0.9,1-1.9,0.9-3.1
			c-0.3-2.1-2.1-3.8-4.2-3.8c-0.2,0-0.3,0-0.5,0l-17.1,1.5c-1.1,0.1-2.1,0.6-2.8,1.4c-0.7,0.8-1,1.9-0.8,3
			C163.4,10.1,165.2,11.7,167.3,11.8z M126.6,30c-0.4,0-0.8,0-1.2,0.1c-3.4,0.9-9,1.9-13.9,1.8c-3.2-0.1-5.6-0.7-6.9-1.7
			c-0.7-0.5-1.4-1.3-1.4-3.1c-0.3-9.4,14-15.3,19.5-16.8c1-0.3,1.9-0.9,2.4-1.9c0.5-1,0.7-2.1,0.3-3.2c-0.5-1.8-2.2-3.1-4-3.1
			c-0.4,0-0.8,0-1.2,0.1c-1.1,0.3-26,7.1-25.4,24.7c0.1,4.1,1.9,7.5,4.9,9.8c2.8,2.1,6.9,3.3,11.9,3.5c0.5,0,0.9,0,1.4,0l0,0
			c7,0,13.6-1.7,14.8-2.1c1-0.3,1.9-1,2.4-1.9c0.5-1,0.6-2.1,0.3-3.2C130,31.3,128.4,30,126.6,30z M206.4,4.4
			c-4.9-0.2-9.4,1.6-12.7,4.9c-2.9,2.9-4.5,6.8-4.4,10.9c0.1,9.1,8,16.7,17.5,17c0.2,0,0.4,0,0.6,0l0,0c4.6,0,8.9-1.7,12-4.9
			c2.9-2.9,4.5-6.8,4.4-11C223.8,12.4,215.9,4.7,206.4,4.4z M213.5,26.4c-1.7,1.7-4.1,2.7-6.8,2.6c-5-0.2-9.1-4-9.1-8.4
			c0-2,0.7-3.8,2.1-5.2c1.6-1.6,3.9-2.6,6.4-2.6c0.1,0,0.2,0,0.4,0c5,0.2,9.1,4,9.1,8.4C215.7,23.1,214.9,25,213.5,26.4z
			 M186.9,28.8c0,0-0.1,0-0.1,0l-19.6,0.6c-1.1,0-2.1,0.5-2.8,1.3c-0.7,0.8-1.1,1.9-1,3c0.2,2.2,2,4,4.2,4c0.1,0,0.1,0,0.2,0
			c0,0,0.1,0,0.1,0l19.5-0.6c1.1,0,2.1-0.5,2.8-1.3c0.7-0.8,1.1-1.9,1-3C190.9,30.7,189.1,28.9,186.9,28.8z M184,24.6
			c1.1,0,2.1-0.4,2.9-1.2c0.7-0.8,1.1-1.8,1.1-3c-0.1-2.3-2-4.1-4.4-4.1c-7.1,0-14.6,0.3-22.4,0.9l-0.2-9.6c-0.1-2.3-2-4.2-4.2-4.3
			l-0.1,0c-1.1,0-2.1,0.4-2.8,1.2c-0.7,0.8-1.1,1.8-1.1,2.9l0.2,10.5c-4.3,0.4-8.5,0.8-12.5,1.3l0.1-14.8c0-2.3-1.9-4.3-4.2-4.4
			c-2.3-0.1-4.1,1.6-4.1,3.9l-0.1,16.3c-1,0.1-1.9,0.3-2.8,0.4c-1.1,0.2-2,0.8-2.6,1.6c-0.6,0.9-0.8,2-0.6,3.1
			c0.4,2,2.1,3.4,4.1,3.5c0.3,0,0.6,0,0.9-0.1l0.1,0c0.2,0,0.5-0.1,0.9-0.1L132,40.4c0,1.1,0.4,2.2,1.2,3c0.8,0.8,1.8,1.3,3,1.4
			c2.3,0.1,4.1-1.7,4.1-3.9l0.1-13.3c4.2-0.5,8.5-1,12.7-1.4l0.4,18c0.1,2.3,2,4.2,4.2,4.3l0.1,0l0,0c1.1,0,2.1-0.4,2.8-1.2
			c0.7-0.8,1.1-1.8,1.1-2.9l-0.4-18.9C169.3,25,176.9,24.7,184,24.6z"/>
	</g>
	<g>
		<g>
			<path class="st2" d="M0.1,45.5l4.4-10c0.7-1.5,1.1-2.7,1.4-3.5c0.3-0.8,0.4-1.6,0.4-2.1c0-0.7-0.2-1.2-0.6-1.6
				c-0.4-0.4-1-0.6-1.7-0.6c-0.6,0-1.2,0.1-1.8,0.3c-0.5,0.2-1.1,0.5-1.5,0.8v-4.4c0.6-0.3,1.3-0.6,2-0.8c0.7-0.2,1.5-0.3,2.3-0.3
				c1.6,0,3,0.5,4.1,1.5c1.1,1,1.6,2.4,1.6,4.3v0.2c0,0.5,0,1-0.1,1.4c-0.1,0.5-0.2,1-0.4,1.5C10,32.7,9.8,33.3,9.5,34
				c-0.3,0.7-0.6,1.4-0.9,2.3l-3.7,8.6h5.6v4.5H0.1V45.5z"/>
			<path class="st2" d="M18.4,49.7c-2.1,0-3.7-1-4.8-3c-1.1-2-1.6-5.2-1.6-9.6v-1.4c0-4.5,0.5-7.7,1.6-9.6c1.1-2,2.7-2.9,4.8-2.9
				c1,0,1.9,0.2,2.7,0.7c0.8,0.5,1.5,1.2,2,2.2c0.5,1,1,2.3,1.2,3.9c0.3,1.6,0.4,3.5,0.4,5.7v1.4c0,2.2-0.1,4.1-0.4,5.7
				c-0.3,1.6-0.7,2.9-1.2,3.9c-0.5,1-1.2,1.8-2,2.2S19.5,49.7,18.4,49.7z M18.4,45.5c0.3,0,0.5-0.1,0.7-0.3c0.2-0.2,0.4-0.6,0.6-1.2
				c0.2-0.6,0.3-1.5,0.4-2.6c0.1-1.1,0.1-2.6,0.1-4.4v-1.3c0-1.8,0-3.3-0.1-4.4c-0.1-1.1-0.2-2-0.4-2.6c-0.2-0.6-0.4-1-0.6-1.2
				s-0.5-0.3-0.7-0.3s-0.5,0.1-0.8,0.3s-0.4,0.6-0.6,1.2c-0.2,0.6-0.3,1.5-0.4,2.6c-0.1,1.1-0.1,2.6-0.1,4.4v1.3
				c0,1.8,0,3.3,0.1,4.4c0.1,1.1,0.2,2,0.4,2.6c0.2,0.6,0.4,1,0.6,1.2C17.9,45.4,18.1,45.5,18.4,45.5z"/>
			<path class="st2" d="M28.6,28.3l-2.7,0.8v-4.5l4-1.3h3.2v26h-4.5V28.3z"/>
			<path class="st2" d="M41.7,49.7c-2,0-3.5-0.9-4.5-2.8c-1-1.9-1.5-5-1.5-9.3v-0.8c0-2.7,0.2-4.9,0.6-6.6c0.4-1.7,0.9-3.1,1.5-4.2
				c0.6-1,1.4-1.8,2.3-2.2s1.9-0.6,2.9-0.6c0.7,0,1.3,0.1,1.8,0.2c0.5,0.1,0.9,0.3,1.3,0.4v4.2c-0.3-0.2-0.8-0.4-1.2-0.5
				c-0.5-0.2-0.9-0.2-1.4-0.2c-0.5,0-1,0.1-1.4,0.3c-0.4,0.2-0.8,0.6-1.1,1.1c-0.3,0.5-0.5,1.1-0.7,2c-0.2,0.8-0.3,1.9-0.3,3.1
				c0.4-0.3,0.8-0.6,1.2-0.8c0.4-0.2,1-0.3,1.7-0.3c0.6,0,1.2,0.1,1.8,0.4c0.6,0.2,1.1,0.7,1.5,1.3c0.5,0.6,0.8,1.4,1.1,2.3
				c0.3,1,0.4,2.2,0.4,3.6v0.7c0,1.3-0.1,2.5-0.4,3.6s-0.7,2-1.2,2.8c-0.5,0.8-1.2,1.4-1.9,1.8C43.3,49.5,42.5,49.7,41.7,49.7z
				 M41.7,45.7c0.6,0,1-0.4,1.3-1.1c0.3-0.7,0.4-1.9,0.4-3.5v-0.7c0-1.5-0.2-2.5-0.6-3.1c-0.4-0.6-0.8-0.9-1.4-0.9
				c-0.4,0-0.7,0.1-0.9,0.2c-0.2,0.1-0.5,0.3-0.7,0.5v3.1c0,2,0.2,3.4,0.5,4.2C40.7,45.3,41.2,45.7,41.7,45.7z"/>
		</g>
	</g>
</g>
<g id="Layer_2">
	<path class="st1" d="M97.4,43.4c-0.3-2.1-2.2-4-4.6-4.5l-0.1,0c-0.3,0-0.6,0-0.9,0c-0.5,0-1.3,0-2,0.2c0-0.3,0-0.5-0.1-0.7
		c-0.2-0.7-0.3-1.1-0.5-1.3c-0.8-1.1-1.8-1.8-3-2c0.1-0.9,0-1.9-0.1-2.8c0.1,0,0.2,0,0.3,0.1c0.9,0.2,1.9,0.5,2.8,0.5
		c0.5,0,1-0.1,1.4-0.2c1.5-0.5,4-3.8,3.9-6.2c0-0.1,0-0.3,0-0.4c0-1.3,0-2.8-0.7-4l0-0.1c-0.4-0.5-1.1-1-1.9-1.2l-0.1,0
		c-0.1,0-0.2,0-0.3,0c-1.6,0-2.6,1.3-3.2,2.3c-0.9-0.5-1.9-0.8-2.8-1.1c-0.3-0.1-0.5-0.1-0.8-0.2c-0.3-0.1-0.6-0.2-0.8-0.2
		c-0.1,0-0.3,0-0.4-0.1c0.2-1.9,0.4-4,0.3-5.9c0.5-0.5,1.4-1.5,1.4-2.6c0-2-1-4.5-3.2-5.4l-0.1,0l-0.1,0c-0.2,0-0.3,0-0.5,0
		c-0.5,0-1.2,0.1-1.7,0.5c-0.2,0.2-0.4,0.4-0.6,0.6c-0.2,0.3-0.3,0.3-0.3,0.3c0,0,0,0-0.1,0c-1.3-0.3-2.7-0.4-4.3-0.4
		c-1.4,0-2.7,0.1-4.1,0.2c-0.2,0-0.5,0-0.7,0c-0.1-0.1-0.3-0.3-0.4-0.4c-1-1-2.2-2.3-3.7-2.3c-0.2,0-0.4,0-0.6,0.1
		c-1.2,0.3-2.5,1-4,2.1l0,0c-0.2,0.2-0.5,0.4-0.8,0.6c-1.1,0.8-2.3,1.7-2.4,3c-0.1,1,0.3,1.9,1,2.5l1.1,0.8c0.4,0.3,0.7,0.4,1,0.4
		c0,0,0,0,0,0c0.1,1.2,0.2,2.5,0.7,3.6c0.2,0.5,0.5,1,0.8,1.4c0.2,0.4,0.5,0.8,0.7,1.2c-2.4,0.8-4.9,2.2-6.8,3.8l0,0
		c-2,1.8-3.3,3.9-4,6.2c-1,3-0.2,4.8,0.4,5.7c0.6,0.9,1.5,1.6,2.4,1.7c0.2,0,0.3,0,0.5,0c1.9,0,4.6-1,6.4-3c0,0.1,0,0.2,0,0.3l0,0
		c0,0.4,0,0.7,0,1c-0.4,0.2-0.7,0.5-1,0.6c-1.9,1.2-2.6,1.7-3.3,3.6c-0.7,0.4-1.3,0.9-2.1,1.8c-0.4,0.2-0.8,0.7-1,1.4
		c-0.6,1.8-0.4,5,1.5,7.6c1.2,1.9,4.3,3.8,7.4,3.8c2.3,0,4.3-1,5.8-3l0,0c0.1-0.1,1.9-2.9,2-5.6c0.4,0.2,1,0.3,1.7,0.3
		c2.8,0,6.6-1.7,8.3-3c1.7,3.5,2.2,4,4,5.7c0.9,0.8,2.3,1.3,4.1,1.3h0c2.2,0,5.1-0.8,7-2.9C97.3,47.6,97.8,45.6,97.4,43.4z M70,46
		L70,46L70,46L70,46z"/>
	<g>
		<g>
			<path class="st2" d="M60.5,13.4c0.2,0.2,0.3,0.2,0.5,0.3c0.1,0,0.2,0,0.3,0c0.3-0.5,2.2-3.3,5.4-3.7l0,0c0.4,0,0.7,0,0.8,0l0-0.3
				l0,0c-0.1-0.6-0.3-1.2-1.3-1l0.2-0.2c0.6,0,1.7,0.2,1.8,1.1l0,0.1c0.3-0.3,0.8-1,0.9-1.3c-0.1-0.2-0.3-0.4-0.4-0.5
				C68,6.9,67.1,6,65.8,6c-0.1,0-0.2,0-0.4,0c-1.1,0.5-2.5,1.3-3.6,2.1l-0.1,0.1c-1,0.9-2.2,1.7-2.9,2.8c-0.2,0.4,0.1,1.1,0.7,1.6
				L60.5,13.4z M61.4,42.8c-0.2-0.1-0.5-0.1-0.7-0.1c-1.7,0-2.7,2.3-2.7,2.3l0,0c-0.7,1.5-0.5,3.7,0.5,5.5c0.8,1.5,2.1,2.4,3.6,2.6
				c0.4,0,0.8,0.1,1.1,0.1c1.3,0,2.2-0.3,2.7-1c0.4-0.5,0.6-1.3,0.6-2.6C66.2,46.2,63.7,43.6,61.4,42.8z M62.6,37.2
				c-0.4,0.3-0.8,0.5-1.2,0.7c-1.9,1.2-2.4,1.5-3,3.4l0,0.1l-0.2,0.1c-0.7,0.4-1.3,0.8-2.1,1.7l-0.1,0.1L56,43.5
				c-0.3,0.2-0.4,0.3-0.6,0.8c-0.5,1.6-0.3,4.4,1.3,6.8l0,0c1.1,1.7,3.2,3.5,5.8,3.5c1.9,0,5-1.2,5.8-2.6l0.1-0.2
				c1.2-2.4,1.3-4.2,1.4-6.1l0-0.2c-0.6-1-2.1-3.6-2.6-4.2C66.9,40.8,64.3,38.5,62.6,37.2z M67,49.6c0,0.9-0.1,2.1-0.8,2.9
				c-0.6,0.8-1.6,1.2-3.1,1.2c-0.4,0-0.8,0-1.2-0.1c-1.7-0.2-3.1-1.2-4-2.9c-1.1-1.9-1.3-4.4-0.5-6.1c0.1-0.2,1.2-2.6,3.3-2.6
				c0.3,0,0.6,0.1,0.9,0.2c1.3,0.5,2.6,1.4,3.6,2.6C66.3,46.2,66.9,47.9,67,49.6L67,49.6L67,49.6L67,49.6z M96.9,42.6
				c-0.4-1.8-1.4-3.3-3.8-3.8c-0.3,0-0.5,0-0.8,0c-1.1,0-2,0.2-2.6,0.6l-0.9,0.6l0.4-0.7c0.2-0.4,0.2-1.1,0.1-1.6
				c-0.1-0.6-0.3-0.9-0.4-1.1c-0.7-1-1.5-1.4-2.6-1.6c-0.3,0.6-1.5,2.2-2.3,3.6c-0.8,1.4-2,4-2.3,4.7c1.7,3.5,1.9,3.8,3.4,5.4
				c0.2,0.2,0.4,0.5,0.7,0.7c0.7,0.7,1.9,1.1,3.3,1.1c1.8,0,4.3-0.6,5.9-2.4C96.5,46.5,97.1,44.5,96.9,42.6z M96.2,44
				c-0.5,2-2.4,4-3.4,4.6l-0.1,0.1c-0.8,0.5-2,1.2-3.2,1.2c-0.9,0-1.6-0.3-2.3-1c-0.7-0.7-1-1.3-0.9-2c0.1-0.9,0.7-1.5,0.9-1.7
				c0.3-0.4,2.9-3.5,3.5-4.2c0.3-0.4,1.3-0.8,2.4-0.8c1.3,0,2.4,0.6,3,1.6C96.3,42.4,96.4,43.1,96.2,44z M75.2,29
				c-0.2-1.3-0.4-3.3-0.5-3.8c-3.4,0-6.2-1-7.9-1.8c-0.2-0.1-0.5-0.2-0.7-0.4c-0.3,0.6-1.6,3.1-1.8,4.3c-0.3,1.4-1.5,6-1.6,6.3
				c-0.1,0.3-0.1,0.4-0.2,0.6c-0.1,0.8,0,1.1,0.1,2.2c0.6,0.5,4.6,3.8,5.2,4.6c0.5,0.7,2.4,3.9,2.8,4.6c0.6,0.3,1.3,0.5,2.2,0.5
				c0.8,0,1.7-0.1,2.5-0.3c0.2-1.1,1-3.3,1-5.7C76.4,37.4,75.5,30.6,75.2,29z M58.2,35.6c0.6-0.3,0.9-0.8,1-1.3
				c0.2-1.2-0.6-2.5-1-3.1c-1.2,1-2.6,1.1-3.1,1.1c-0.1,0-0.2,0-0.2,0l0,0l-0.2,0c0.1,0.5,0.3,1.4,0.7,2.6c0.2,0.8,0.8,1.1,1.6,1.1
				C57.3,36,57.9,35.8,58.2,35.6z M92.9,40.7c-1,0-1.7,0.4-1.9,0.6c-0.6,0.7-3.3,3.9-3.5,4.1l-0.2,0.3c0,0-0.5,0.5-0.5,1.2
				c0,0.5,0.2,1,0.7,1.5c0.6,0.5,1.2,0.8,1.9,0.8c1.1,0,2.1-0.6,2.9-1.1l0.2-0.1c0.9-0.5,2.7-2.4,3.1-4.2c0.2-0.7,0.1-1.3-0.2-1.8
				C94.7,41,93.7,40.7,92.9,40.7z M85.7,34.4c0.3-1.3,0-2.3-0.1-3.4c0-0.1,0-0.2-0.1-0.3c-0.8-1.1-3.1-6.3-3.7-7.8
				c-1.5,1.1-3.9,2.2-6.2,2.4l0,0c-0.1,0-0.2,0-0.2,0c0.1,0.5,0.2,2.4,0.5,3.7C76,30.2,77,37.2,77,40.1c0,2.3-0.8,4.4-1,5.5
				c2.3-0.7,4.5-1.8,5.2-2.6c0.1-0.2,1.4-3.3,2.4-4.9C84.4,36.6,85.4,35.1,85.7,34.4z M62.1,33.4l0-0.1c0.2-0.8,1.3-4.8,1.5-6.1
				c0.3-1.3,1.6-3.9,1.9-4.5c-0.9-0.5-1.5-1-1.8-1.2c-2.4,0.7-5.1,2.2-6.9,3.8c-1.8,1.7-3.1,3.6-3.8,5.9c-0.8,2.6-0.2,4.2,0.3,4.9
				c0.5,0.8,1.2,1.2,1.7,1.2c0.1,0,0.3,0,0.4,0C57.6,37.3,60.7,35.8,62.1,33.4z M54.6,35.1c-0.6-1.9-0.8-3.1-0.8-3.2l0-0.4l1,0.2
				c0,0,0.1,0,0.1,0c0.5,0,1.8-0.1,2.9-1.2l0.2-0.2l0.2,0.3c0.1,0.1,1.7,2.1,1.4,3.8c-0.1,0.7-0.5,1.3-1.2,1.8
				c-0.3,0.2-1,0.5-1.7,0.5C55.7,36.6,55,36.1,54.6,35.1z M83.7,21.1c-0.2,0.3-0.7,0.8-1.4,1.3c1,2.5,3,6.9,3.6,7.8
				c0.3,0.1,0.7,0.1,1.1,0.2c0.9,0.2,1.8,0.4,2.6,0.4c0.4,0,0.8-0.1,1.1-0.2c1.1-0.4,3.4-3.3,3.3-5.3v0c0-0.1,0-0.3,0-0.5
				c0-1.2,0-2.6-0.5-3.6c-0.1-0.1-0.2-0.2-0.4-0.3c0.7,2.1-1.1,5-1.2,5.2l-0.1,0.1l-0.1,0c-0.3,0-0.5,0-0.8,0c-1.1,0-1.5-0.3-2-0.7
				c-0.1-0.1-0.2-0.2-0.4-0.3c-0.8-0.5-0.4-2.1-0.2-2.6c-0.9-0.5-1.8-0.9-2.8-1.2c-0.3-0.1-0.5-0.2-0.8-0.2l0,0
				c-0.2,0-0.4-0.1-0.7-0.2C84,21.2,83.9,21.2,83.7,21.1z M89.4,25.3c0.5,0.4,1.2,0.6,2.2,0.5c0.3-0.6,2-3.3,1.1-5
				c-0.1-0.1-0.2-0.2-0.4-0.2c-0.1,0-0.3-0.1-0.4-0.1c-1.4,0-2.1,1.5-2.6,2.4l-0.1,0.2c-0.2,0.6-0.4,1.6-0.2,1.9
				C89.1,25.1,89.2,25.2,89.4,25.3z M75,23.6c3,0,5.4-1.7,5.4-3.7S78,16.2,75,16.2c-3,0-5.4,1.7-5.4,3.7S72,23.6,75,23.6z M72,19.2
				c0.1-0.1,0.3,0,0.3,0.1c0,0.1,0.8,1.7,3.1,1.6c0.2-0.7,0.1-1.3,0-1.5c-0.2,0-0.5-0.1-0.8-0.2c-1.1-0.7-1.5-1.1-1.4-1.5
				c0,0,0,0,0-0.1c0,0,0,0,0,0c0.1-0.3,0.9-0.8,2-0.8c0,0,1.4-0.1,2,0.3c0.1,0.1,0.1,0.2,0.1,0.4c0,0.3-0.1,0.6-0.5,1.2
				c-0.3,0.3-0.5,0.6-0.9,0.7c0.1,0.3,0.1,0.9,0,1.5c2.2-0.3,2.6-2.1,2.6-2.1c0-0.1,0.2-0.2,0.3-0.2c0.1,0,0.2,0.2,0.2,0.3
				c0,0-0.1,0.6-0.6,1.2c-0.4,0.6-1.3,1.2-2.7,1.4c-0.1,0-0.3,0-0.4,0c-1.2,0-2-0.5-2.5-0.9c-0.6-0.5-0.8-1-0.8-1.1
				C71.8,19.4,71.9,19.2,72,19.2z M66.8,10.7c-2.8,0.4-4.6,2.7-5,3.3l0,0.3c0,1.2,0.1,2.5,0.6,3.6l0,0c0.2,0.4,0.4,0.9,0.7,1.3
				c0.3,0.6,0.7,1.2,0.9,1.8c0.3,0.3,1.3,1.1,3,1.9c1.8,0.9,4.7,1.9,8.4,1.7c2.1-0.2,4.1-1.2,5.1-1.7c1.5-0.9,2.2-1.7,2.3-1.9l0,0
				l0.1-0.6c0.2-1.9,0.5-4.1,0.3-6.1l0-0.1l0.1-0.1c0.8-0.7,1.3-1.7,1.3-2.1c-0.3-1.9-1-4.2-2.6-4.5c-0.1,0-0.2,0-0.4,0
				c-0.5,0-0.8,0.1-1.1,0.3l-0.1,0.1c-0.2,0.1-0.3,0.3-0.5,0.5c-0.1,0.1-0.1,0.2-0.2,0.3c0.3,0.2,0.6,0.4,0.7,0.5
				c0.1,0.1,0.1,0,0.2,0c0.4-0.3,1-0.6,1.6-0.2l-0.5,0c-0.2-0.2-0.5,0.3-0.7,0.6c0.3,0.4,0.8,1.3,0.8,1.6c0,0.3,0.9,1.5,1.2,1.7
				c0.4,0.3,0.4,0.8,0.4,0.9l-0.2-0.1c0-0.1,0-0.3-0.1-0.4c-0.3-0.2-0.8-0.9-0.9-1c-0.6-0.9-0.9-1.1-0.9-1.1c0-0.2-0.5-1.1-0.8-1.3
				c-0.2,0-0.5-0.2-1.3-0.7c-0.1,0-0.1,0-0.2,0c-0.1,0-0.1,0-0.2,0h0c-1.3-0.3-2.6-0.4-4.2-0.4c-1.3,0-2.4,0-3.8,0.1
				c-0.3,0-0.9,0.1-1.2,0.2c-0.1,0.1-0.6,1-1,1.4C68.2,10.6,68,10.6,66.8,10.7z M78.3,12.7c0.9,0,1.6,0.7,1.6,1.6
				c0,0.9-0.7,1.6-1.6,1.6c-0.9,0-1.6-0.7-1.6-1.6C76.7,13.4,77.4,12.7,78.3,12.7z M75,15.8c1.5,0,3,0.4,4,1.2
				c1.1,0.8,1.7,1.8,1.7,2.9s-0.6,2.2-1.7,2.9C78,23.6,76.5,24,75,24c-1.5,0-3-0.4-4-1.2c-1.1-0.8-1.7-1.8-1.7-2.9s0.6-2.2,1.7-2.9
				C72.1,16.2,73.5,15.8,75,15.8z M70.7,15.4c0,0.9-0.7,1.6-1.6,1.6c-0.9,0-1.6-0.7-1.6-1.6c0-0.9,0.7-1.6,1.6-1.6
				C70,13.8,70.7,14.5,70.7,15.4z"/>
		</g>
	</g>
	<g>
		<g>
			<path class="st0" d="M67.9,14.8c0,0.3-0.1,0.7,0.3,0.7c0.3-0.2,0.1-0.6,0.3-0.9C68.3,14.4,68,14.7,67.9,14.8z M70.1,15.4
				c-0.2,0.1-0.3,0.4-0.2,0.5c0.1,0,0.2,0,0.3-0.1C70.3,15.7,70.4,15.4,70.1,15.4z M77.6,13.6c-0.1,0.1-0.4,0.1-0.4,0.3
				c-0.1,0.2-0.3,0.6,0,0.8c0.5,0,0.2-0.5,0.5-0.8C77.8,13.8,77.8,13.6,77.6,13.6z M79.5,14.5c-0.2,0.1-0.1,0.3-0.1,0.5h0.1
				c0.2,0,0.2-0.2,0.2-0.3C79.7,14.6,79.6,14.5,79.5,14.5z"/>
		</g>
	</g>
</g>
</svg>
