<?xml version="1.0" encoding="utf-8"?>
<!-- Generator: Adobe Illustrator 16.0.4, SVG Export Plug-In . SVG Version: 6.00 Build 0)  -->
<!DOCTYPE svg PUBLIC "-//W3C//DTD SVG 1.1//EN" "http://www.w3.org/Graphics/SVG/1.1/DTD/svg11.dtd">
<svg version="1.1" id="Layer_1" xmlns="http://www.w3.org/2000/svg" xmlns:xlink="http://www.w3.org/1999/xlink" x="0px" y="0px"
	 width="940px" height="792px" viewBox="0 0 940 792" enable-background="new 0 0 940 792" xml:space="preserve">
<path fill="none" d="M227.803,390.939c-0.007-0.019-0.016-0.038-0.023-0.056C227.788,390.902,227.796,390.921,227.803,390.939z"/>
<path fill="none" d="M226.175,398.422c0.025-0.027,0.048-0.055,0.074-0.082C226.224,398.367,226.201,398.395,226.175,398.422z"/>
<path fill="none" d="M225.036,399.541c-0.015,0.015-0.03,0.03-0.044,0.045C225.006,399.571,225.021,399.556,225.036,399.541z"/>
<path fill="none" d="M226.691,397.835c0.005-0.007,0.01-0.013,0.015-0.019C226.701,397.822,226.696,397.828,226.691,397.835z"/>
<path fill="none" d="M217.868,373.861c0.083,0.034,0.157,0.07,0.226,0.109C218.024,373.932,217.951,373.896,217.868,373.861z"/>
<path fill="none" d="M217.437,373.715c0.101,0.028,0.199,0.058,0.292,0.09C217.635,373.773,217.538,373.743,217.437,373.715z"/>
<path fill="none" d="M218.196,374.031c0.085,0.059,0.156,0.121,0.2,0.188C218.353,374.151,218.282,374.089,218.196,374.031z"/>
<path fill="none" d="M325.812,293.151l27.194-29.465c1.266,0.209,2.233-0.285,2.891-1.241c0.854-1.239,1.737-2.518,2.262-3.911
	c1.923-5.099,5.34-9.072,9.123-12.85c9.101-9.087,18.346-18.045,25.105-29.177c1.354-2.231,3.317-4.143,5.211-5.984
	c3.562-3.464,6.18-7.529,8.819-11.722c5.619-8.928,12.035-17.353,17.678-26.267c4.871-7.695,10.993-14.403,16.202-21.779
	c6.563-9.294,13.538-18.17,21.307-26.459c1.264-1.347,2.263-2.995,3.142-4.634c0.752-1.4,0.603-3.052-0.345-4.301
	c-0.964-1.27-2.56-1.782-4.06-1.203c-4.712,1.822-9.767,3.089-14.357,1.064c-5.158-2.277-9.52-1.23-14.098,0.846
	c-3.786,1.717-7.843,3.044-11.251,5.331c-3.54,2.375-7.318,3.945-11.268,5.119c-14.114,4.195-28.28,8.214-42.444,12.24
	c-0.65,0.185-1.464-0.202-2.201-0.323c-2.546,0.788-5.092,1.575-7.638,2.362c-1.408,1.223-2.62,2.946-4.255,3.588
	c-12.664,4.976-25.032,10.637-37.835,15.329c-22.717,8.327-46.454,13.414-68.941,22.427c-7.755,3.109-15.084,7-22.514,10.722
	c-1.986,0.995-3.811,2.475-5.421,4.031c-4.901,4.735-5.752,11.844-2.152,17.555c1.001,1.587,2.503,2.854,3.549,4.419
	c1.051,1.571,1.905,3.382,0.551,5.208c-1.073,1.447-2.722,1.246-4.119,0.715c-2.641-1.006-4.999-1.341-7.349,0.802
	c-3.557,3.244-3.977,5.612-0.747,11.052c10.611,17.873,21.187,35.772,32.136,53.439c5.411,8.732,10.095,17.731,13.512,27.399
	c2.818,7.977,7.651,14.712,13.074,21.053c2.709,3.168,5.814,4.151,10.1,2.432c3.648-1.463,6.34-3.686,9.164-6.264
	c5.007-4.571,11.183-7.972,15.109-13.612c5.459-7.842,12.48-14.185,18.935-21.081C321.946,297.804,323.992,295.557,325.812,293.151z
	 M311.957,289.556c-6.745,4.036-14.157,2.598-21.077,1.558c-7.011-1.054-13.932-3.401-20.391-6.741
	c-13.127-6.789-21.907-17.249-26.48-31.21c-1.292-3.944-2.056-8.075-2.89-12.155c-2.325-11.369,0.55-21.942,6.005-31.708
	c3.574-6.397,10.235-10.074,16.163-14.03c4.698-3.136,9.8-5.621,14.094-9.445c4.104-3.655,9.109-5.233,14.645-5.248
	c4.147-0.012,8.366,0.314,12.3-1.534c5.576-2.62,11.003-1.678,16.483,0.495c8.799,3.49,17.648,6.768,25.383,12.494
	c7.842,5.807,12.277,13.199,12.206,23.103c-0.041,5.67,0.727,11.368-0.658,16.986c-1.952,0.914-2.19,2.843-2.809,4.594
	c-1.131,3.204-2.837,6.029-5.083,8.66c-10.445,12.237-20.716,24.622-31.106,36.907C316.604,284.811,314.225,287.137,311.957,289.556
	z"/>
<path fill="none" d="M334.285,227.508c0.257-7.501-2.766-13.96-5.941-20.467c-4.363-8.938-11.699-12.565-21.216-12.181
	c-9.156,0.368-17.989,2.196-26.111,6.788c-11.572,6.544-17.466,16.358-17.535,29.657c-0.03,6.143,1.425,12.044,3.016,17.875
	c2.54,9.314,8.655,15.7,17.017,20.29c2.811,1.543,5.588,2.253,8.666,1.966c13.218-1.234,25.047-6.137,34.949-14.834
	c6.901-6.061,10.14-14.001,7.881-23.492C334.576,231.284,334.222,229.367,334.285,227.508z M312.274,233.514h-0.116
	c0,1.519,0.115,3.048-0.018,4.555c-0.88,9.897-8.953,16.594-18.756,15.546c-1.5-0.161-3.004-0.516-4.444-0.977
	c-10.952-3.507-12.319-9.385-9.669-18.37c2.003-6.79,6.619-12.787,13.959-15.64c9.621-3.739,18.629,2.185,19.04,12.609
	C312.3,231.995,312.274,232.755,312.274,233.514z"/>
<path fill="none" d="M228.327,394.073l0.024-0.03l-0.021-0.039C228.328,394.027,228.329,394.05,228.327,394.073z"/>
<path class="filled" fill="#C44D8B" d="M443.08,441.206c0-9.462,0.016-16.275-0.005-23.09c-0.016-4.964-0.904-9.82-2.326-14.539
	c-2.752-9.135-8.997-12.93-18.025-10.858c-6.632,1.523-13.258,2.966-20.079,3.165c-2.846,0.082-4.06,1.834-4.524,4.198
	c-0.507,2.577-0.915,5.22-0.943,7.837c-0.091,8.707-0.036,17.417,0.062,26.125c0.026,2.252,0.043,4.62,0.714,6.729
	c1.894,5.948,1.743,11.977,1.101,18.01c-2.041,19.172-4.108,38.343-6.421,57.483c-0.517,4.277-0.315,8.25,1.196,12.239
	c0.863,2.278,2.281,3.467,4.685,4.341c8.912,3.238,18.291,3.347,27.494,4.623c2.077,0.287,3.73-0.573,4.577-2.531
	c0.749-1.734,1.636-3.504,1.894-5.338c1.205-8.592,4.016-16.937,3.753-25.762c-0.135-4.53,0.216-9.039,1.2-13.534
	C441.161,473.267,443.849,456.093,443.08,441.206z"/>
<path class="filled" fill="#C44D8B" d="M354.931,236.715c0.619-1.751,0.857-3.68,2.809-4.594c1.385-5.618,0.617-11.316,0.658-16.986
	c0.071-9.904-4.364-17.296-12.206-23.103c-7.735-5.726-16.584-9.004-25.383-12.494c-5.48-2.173-10.907-3.115-16.483-0.495
	c-3.934,1.848-8.153,1.522-12.3,1.534c-5.536,0.015-10.541,1.593-14.645,5.248c-4.294,3.824-9.396,6.309-14.094,9.445
	c-5.928,3.956-12.589,7.633-16.163,14.03c-5.455,9.766-8.33,20.339-6.005,31.708c0.834,4.08,1.598,8.211,2.89,12.155
	c4.573,13.961,13.353,24.421,26.48,31.21c6.459,3.34,13.38,5.687,20.391,6.741c6.92,1.04,14.332,2.478,21.077-1.558
	c2.268-2.419,4.647-4.745,6.785-7.274c10.39-12.285,20.661-24.67,31.106-36.907C352.094,242.744,353.8,239.918,354.931,236.715z
	 M327.13,256.602c-9.902,8.697-21.731,13.6-34.949,14.834c-3.078,0.287-5.855-0.423-8.666-1.966
	c-8.362-4.59-14.477-10.976-17.017-20.29c-1.591-5.831-3.046-11.732-3.016-17.875c0.069-13.299,5.963-23.113,17.535-29.657
	c8.122-4.592,16.955-6.42,26.111-6.788c9.517-0.384,16.853,3.243,21.216,12.181c3.175,6.507,6.198,12.966,5.941,20.467
	c-0.063,1.859,0.291,3.776,0.726,5.602C337.27,242.601,334.031,250.541,327.13,256.602z"/>
<path class="filled" fill="#C44D8B" d="M717.561,429.58c-4.243,2.268-7.05,5.316-9.413,9.406c-2.66,4.602-4.996,9.287-7.058,14.18
	c-4.111,9.748-8.535,19.364-12.777,29.058c-1.445,3.307-0.295,6.041,3.156,7.228c2.845,0.977,5.874,1.429,8.698,2.453
	c4.228,1.531,5.02,3.054,3.973,7.816c-2.112,9.601-4.221,19.208-6.683,28.723c-1.562,6.033-1.196,12.023-0.767,18.073
	c0.175,2.456,1.26,4.444,3.665,5.242c10.854,3.597,21.857,6.118,33.449,4.783c2.979-0.342,5.017-1.398,5.901-4.347
	c0.544-1.816,1.325-3.574,1.721-5.418c1.901-8.839,4.238-17.633,5.33-26.575c0.576-4.728,3.583-8.232,4.202-12.817
	c2.691-19.914,8.878-39.052,13.578-58.516c2.767-11.463,5.558-22.816,5.056-34.719c-0.373-7.514,0.771-15.129-2.199-22.473
	c-1.244-3.074-2.709-4.877-6.08-5.87c-8.952-2.636-18.018-1.895-27.089-1.804c-2.463,0.024-4.352,1.157-5.895,2.942
	c-2.53,2.926-4.413,6.189-4.624,10.156c-0.321,6.054-0.642,12.074,0.664,18.114C726.24,423.87,725.713,425.223,717.561,429.58z"/>
<path class="filled" fill="#C44D8B" d="M293.23,218.628c-7.34,2.853-11.956,8.85-13.959,15.64c-2.65,8.985-1.283,14.863,9.669,18.37
	c1.44,0.461,2.944,0.816,4.444,0.977c9.803,1.048,17.876-5.649,18.756-15.546c0.133-1.507,0.018-3.036,0.018-4.555h0.116
	c0-0.759,0.026-1.519-0.004-2.277C311.859,220.813,302.851,214.889,293.23,218.628z"/>
<path class="filled" fill="#C44D8B" d="M48.237,452.514c0.936,1.492,2.676,2.896,4.346,3.439c7.143,2.328,14.45,4.611,22.023,3.827
	c3.689-0.381,5.266,0.084,6.711,3.741c1.986,5.028,4.779,5.291,8.576,2.025c5.965-5.134,8.868-12.141,11.782-19.095
	c7.885-18.812,15.634-37.683,23.405-56.544c1.73-4.2,3.372-8.438,4.964-12.692c0.522-1.397,0.755-2.901,0.923-3.572
	c-0.166-5.798-6.066-9.524-10.73-7.481c-1.359,0.595-2.445,1.784-3.738,2.564c-2.334,1.411-4.536,0.787-6.026-1.211
	c-2.712-3.636-5.05-7.549-7.707-11.23c-5.449-7.551-13.201-10.374-21.953-8.588c-4.938,1.007-9.362,2.334-14.286,0.165
	c-2.353-1.036-4.401,0.465-5.447,2.807c-0.772,1.726-1.529,3.496-1.972,5.324c-3.13,12.909-7.7,25.365-11.776,37.98
	c-4.886,15.121-7.743,30.757-11.307,46.21c-0.854,3.703,0.317,5.992,3.962,6.982C43.445,448.107,46.244,449.333,48.237,452.514z"/>
<path class="filled" fill="#C44D8B" d="M880.266,47.895c1.837-3.72,1.063-7.244-1.834-10.462c-4.768-5.294-6.035-5.657-11.951-1.021
	c-3.263,2.556-6.67,4.067-10.477,2.35c-4.172-1.881-7.16-0.885-10.122,2.216c-3.934,4.116-8.351,7.792-12.083,12.072
	c-7.468,8.561-14.422,17.57-21.926,26.098c-16.79,19.082-32.315,39.142-46.949,59.899c-9.639,13.67-20.136,26.528-32.13,38.268
	c-9.734,9.528-18.735,19.824-27.798,30.014c-9.302,10.46-18.32,21.173-27.389,31.837c-6.379,7.502-12.438,15.284-19.003,22.616
	c-5.599,6.254-9.64,13.666-15.122,19.907c-8.296,9.443-14.332,20.445-21.77,30.473c-5.104,6.881-10.003,14.122-14.573,21.522
	c-8.331,13.486-18.256,25.99-27.585,38.852c-1.314,1.812-2.901,3.482-4.605,4.931c-0.772,0.657-2.339,0.706-2.979-0.461
	c-1.08-1.969-1.939-4.068-2.78-6.156c-1.413-3.51-2.48-7.186-4.187-10.541c-1.229-2.415-3.761-4.695-6.489-3.341
	c-5.788,2.872-12.087,0.913-17.901,2.662c-9.747,2.931-18.661,1.579-26.622-5.013c-1.391-1.151-2.877-2.818-4.866-1.071
	c-1.384,1.215-0.569,2.712-0.279,4.203c0.502,2.58,0.899,5.215,0.968,7.837c0.129,4.92,0.949,9.726,1.565,14.564
	c0.791,6.227,4.09,11.414,5.058,17.376c1.028,6.333,1.771,12.719,2.957,19.021c1.596,8.485,1.881,17.334,7.127,24.85
	c1.939,2.779,0.906,5.734-0.935,8.479c-13.72,20.456-27.4,40.938-41.052,61.44c-7.147,10.735-14.056,21.634-21.386,32.24
	c-3.02,4.37-4.727,9.367-8.048,13.646c-10.677,13.758-20.757,27.977-31.197,41.921c-5.444,7.271-11.069,14.413-16.791,21.467
	c-3.032,3.739-6.797,3.131-8.854-1.201c-2.278-4.798-4.597-9.584-6.672-14.471c-11.845-27.904-22.922-56.16-35.616-83.671
	c-13.191-28.588-23.715-58.25-36.626-86.924c-1.193-2.65-0.934-5.201,0.748-7.538c0.883-1.228,2.08-2.232,2.94-3.473
	c2.021-2.916,1.925-4.088-0.86-6.847c-1.299-1.287-3.342-1.883-3.417-4.165c-0.069-2.082,1.31-3.472,2.359-5.03
	c7.415-11.009,14.711-22.1,22.255-33.019c10.346-14.974,20.44-30.15,31.419-44.651c25.42-33.574,50.293-67.519,72.857-103.095
	c6.98-11.005,15.044-20.907,25.617-28.654c2.509-1.838,4.246-4.302,4.829-7.473c1.284-6.987,5.487-12.368,9.773-17.713
	c9.248-11.535,18.688-22.925,27.626-34.695c7.343-9.669,14.619-19.336,23.112-28.065c4.221-4.338,7.996-9.127,11.789-13.86
	c3.856-4.811,3.691-8.782-0.822-12.848c-4.385-3.95-7.311-9.724-13.998-10.999c-1.419-0.27-2.59-2.608-3.581-4.179
	c-1.648-2.613-3.822-3.746-6.726-2.626c-5.217,2.013-10.366,1.79-15.61,0.165c-1.418-0.438-3.151-0.898-4.459-0.478
	c-6.985,2.247-14.333,1.273-21.412,2.748c-18.578,3.87-36.548,9.893-54.703,15.243c-15.988,4.712-31.257,11.504-47.123,16.687
	c-18.342,5.993-36.113,13.757-54.052,20.951c-18.305,7.34-36.482,14.997-54.777,22.363c-8.766,3.53-17.69,6.662-26.511,10.058
	c-15.227,5.862-30.753,10.608-46.738,14.049c-5.899,1.27-10.364,1.324-13.775-4.187c-1.192-1.926-2.66-3.693-4.098-5.453
	c-5.514-6.753-10.846-13.637-15.34-21.126c-1.484-2.473-3.508-4.32-6.45-3.645c-5.509,1.265-11.406,1.68-16.264,4.722
	c-4.444,2.783-8.272,6.395-13.357,8.353c-3.497,1.347-4.233,4.751-2.605,8.711c1.868,4.544,4.056,8.957,6.095,13.432
	c0.852,1.871,1.131,4.076-0.935,4.933c-5.215,2.163-5.701,6.803-6.166,11.248c-0.553,5.278-0.087,10.515,1.2,15.793
	c1.803,7.395,0.771,9.185-5.786,12.917c-5.612,3.194-11.267,6.31-15.812,10.992c-2.809,2.894-3.012,4.151-0.893,8.047
	c1.095,2.014,2.888,3.85,1.778,6.208c-2.005,4.263-0.324,7.223,2.784,9.971c2.602,2.301,4.467,5.01,5.317,8.535
	c0.589,2.448,2.42,3.502,5.248,2.737c6.671-1.803,12.645-5.099,18.745-8.173c4.955-2.497,6.418-2.529,9.635,2.083
	c4.621,6.624,9.252,13.268,13.651,20.048l0.03-0.02l0.219,0.404c2.52,3.897,4.983,7.827,7.268,11.855
	c12.717,22.414,24.729,45.229,36.979,67.907c2.514,4.652,4.88,9.39,7.149,14.167c0.224,0.471,0.314,0.943,0.292,1.393l2.518,4.645
	c-0.812-0.204-1.764-0.261-1.794-0.181c-1.546,4.108-5.564,7.607-4.396,12.351c1.34,5.444,3.168,10.847,6.451,15.535
	c0.562,0.803,1.714,1.192,2.378,1.63c0.581-0.106,1.083-0.29,1.547-0.51c0,0.001,0,0.001-0.001,0.001l-6.046,7.459l-4.585,5.656
	l-4.977,6.141c-0.41,1.249-1.105,2.442-2.103,3.583c-5.243,5.99-10.459,12.005-15.664,18.029
	c-13.631,15.773-27.276,31.536-40.867,47.344c-9.392,10.924-18.847,21.798-27.992,32.926c-4.823,5.87-9.9,11.473-14.994,17.094
	c-6.097,6.73-11.785,13.856-17.305,21.075c-4.135,5.407-7.875,11.137-11.484,16.914c-1.546,2.476-4.104,5.258-2.648,8.271
	c0.787,1.629,3.852,2.012,5.543,3.384c2.646,2.145,4.9,4.766,7.498,6.976c3.457,2.941,6.98,5.829,10.674,8.458
	c2.761,1.966,5.9,1.824,8.386-0.513c3.866-3.635,7.999-7.164,11.083-11.417c11.845-16.337,25.58-30.983,39.351-45.645
	c6.742-7.178,13.068-14.78,19.162-22.521c2.366-3.006,4.656-6.073,6.941-9.143l0.003-0.003c6.536-8.782,13.035-17.59,21.176-25.056
	c0.837-0.768,1.742-1.548,2.317-2.502c4.778-7.939,12.446-13.237,18.377-20.128c0.679-0.79,1.332-1.353,1.958-1.724l28.696-32.351
	l20.925,52.266c1.476,1.411,2.514,3.41,3.472,5.28c7.783,15.188,13.174,31.347,19.019,47.315
	c4.381,11.968,8.399,24.072,12.968,35.966l21.657,54.092c3.914,8.973,6.487,18.538,11.663,26.976
	c0.962,1.568,1.615,3.468,1.892,5.293c1.066,7.016,4.001,12.933,9.427,17.601c1.739,1.496,3.303,3.322,3.474,5.701
	c0.101,1.411-0.272,3.006-0.908,4.281c-0.206,0.415-0.466,0.703-0.763,0.896l22.852,40.33c0.412,0.282,0.794,0.632,1.123,1.087
	c4.21,5.82,9.958,10.391,13.215,17.039c1.455,2.97,4.054,5.456,6.424,7.878c2.299,2.35,4.816,2.654,7.171,0.821
	c3.588-2.793,7.483-4.873,11.471-7.047c10.507-5.729,12.228-13.043,6.896-23.867c-0.167-0.34-0.384-0.656-0.594-0.972
	c-2.788-4.195-1.837-8.003,1.495-11.277c8.459-8.314,14.518-18.427,21.34-27.979c10.567-14.794,21.372-29.419,31.895-44.244
	c7.228-10.185,14.093-20.626,21.236-30.872c3.034-4.354,6.026-8.691,8.755-13.272c11.411-19.162,22.216-38.7,34.936-57.066
	c3.019-4.358,5.644-8.987,8.604-13.389c0.524-0.779,1.865-1.529,2.723-1.424c0.875,0.107,2.204,1.199,2.324,2.01
	c0.947,6.393,3.545,12.452,4.541,18.689c2.882,18.049,9.485,35.085,13.465,52.841c2.953,13.174,9.123,25.628,13.869,38.4
	c2.379,6.4,5.085,12.699,7.097,19.213c3.349,10.835,6.554,21.733,9.237,32.748c1.559,6.403,4.463,12.075,7.47,17.763
	c1.776,3.359,3.219,3.913,6.397,2.146c6.04-3.36,12.311-5.678,19.268-6.141c1.843-0.123,3.714-0.849,5.432-1.614
	c3.934-1.752,5.738-4.961,5.038-9.198c-0.556-3.361-1.425-6.677-2.291-9.978c-2.976-11.341-7.162-22.403-6.812-34.457
	c0.084-2.904-1.119-5.977-2.245-8.764c-5.979-14.792-10.289-30.098-14.502-45.452c-3.007-10.958-6.852-21.707-9.409-32.761
	c-2.91-12.571-6.577-24.908-10.053-37.307c-3.988-14.224-8.218-28.379-12.21-42.601c-0.711-2.533-0.854-5.239-1.117-7.879
	c-0.469-4.711,0.959-8.568,3.791-12.618c10.417-14.891,20.467-30.051,30.279-45.351c10.213-15.925,19.824-32.235,30.006-48.181
	c9.992-15.65,19.932-31.365,30.685-46.49c14.046-19.758,27.899-39.672,43.229-58.506c13.874-17.046,27.036-34.676,41.075-51.581
	c12.121-14.597,23.211-29.946,34.652-45.042c13.278-17.518,26.205-35.319,39.986-52.431c11.197-13.903,21.924-28.077,31.396-43.194
	c1.807-2.883,3.301-5.966,4.854-9c0.936-1.828,0.878-3.684-0.542-5.285C879,53.645,878.685,51.096,880.266,47.895z M217.437,373.715
	c0.101,0.028,0.199,0.058,0.292,0.09C217.636,373.773,217.538,373.743,217.437,373.715z M217.868,373.861
	c0.083,0.034,0.157,0.07,0.226,0.109C218.025,373.932,217.95,373.895,217.868,373.861z M225.036,399.541
	c-0.015,0.015-0.03,0.03-0.044,0.045C225.006,399.571,225.021,399.556,225.036,399.541z M227.78,390.883
	c0.007,0.019,0.016,0.038,0.023,0.056C227.796,390.921,227.788,390.902,227.78,390.883z M218.196,374.031
	c0.085,0.059,0.156,0.121,0.2,0.188C218.353,374.151,218.282,374.089,218.196,374.031z M226.175,398.422
	c0.026-0.027,0.048-0.055,0.074-0.082C226.224,398.367,226.201,398.395,226.175,398.422z M226.706,397.816
	c-0.005,0.006-0.01,0.012-0.015,0.019C226.696,397.828,226.701,397.822,226.706,397.816z M228.327,394.073
	c0.002-0.023,0.001-0.046,0.003-0.069l0.021,0.039L228.327,394.073z M300.946,321.092c-3.926,5.64-10.102,9.041-15.109,13.612
	c-2.824,2.578-5.516,4.801-9.164,6.264c-4.286,1.719-7.391,0.736-10.1-2.432c-5.423-6.341-10.256-13.076-13.074-21.053
	c-3.417-9.668-8.101-18.667-13.512-27.399c-10.949-17.667-21.525-35.566-32.136-53.439c-3.23-5.44-2.81-7.808,0.747-11.052
	c2.35-2.143,4.708-1.808,7.349-0.802c1.397,0.531,3.046,0.732,4.119-0.715c1.354-1.826,0.5-3.637-0.551-5.208
	c-1.046-1.565-2.548-2.832-3.549-4.419c-3.6-5.711-2.749-12.82,2.152-17.555c1.61-1.556,3.435-3.036,5.421-4.031
	c7.43-3.722,14.759-7.613,22.514-10.722c22.487-9.013,46.224-14.1,68.941-22.427c12.803-4.692,25.171-10.353,37.835-15.329
	c1.635-0.642,2.847-2.365,4.255-3.588c2.546-0.787,5.092-1.574,7.638-2.362c0.737,0.121,1.551,0.508,2.201,0.323
	c14.164-4.026,28.33-8.045,42.444-12.24c3.95-1.174,7.728-2.744,11.268-5.119c3.408-2.287,7.465-3.614,11.251-5.331
	c4.578-2.076,8.94-3.123,14.098-0.846c4.59,2.025,9.645,0.758,14.357-1.064c1.5-0.579,3.096-0.067,4.06,1.203
	c0.948,1.249,1.097,2.901,0.345,4.301c-0.879,1.639-1.878,3.287-3.142,4.634c-7.769,8.289-14.744,17.165-21.307,26.459
	c-5.209,7.376-11.331,14.084-16.202,21.779c-5.643,8.914-12.059,17.339-17.678,26.267c-2.639,4.193-5.257,8.258-8.819,11.722
	c-1.894,1.841-3.857,3.753-5.211,5.984c-6.759,11.132-16.004,20.09-25.105,29.177c-3.783,3.778-7.2,7.751-9.123,12.85
	c-0.525,1.393-1.408,2.672-2.262,3.911c-0.658,0.956-1.625,1.45-2.891,1.241l-27.194,29.465c-1.82,2.406-3.866,4.653-5.931,6.86
	C313.426,306.907,306.405,313.25,300.946,321.092z"/>
</svg>
