<?xml version="1.0" encoding="utf-8"?>
<!-- Generator: Adobe Illustrator 17.1.0, SVG Export Plug-In . SVG Version: 6.00 Build 0)  -->
<!DOCTYPE svg PUBLIC "-//W3C//DTD SVG 1.1//EN" "http://www.w3.org/Graphics/SVG/1.1/DTD/svg11.dtd">
<svg version="1.1" xmlns="http://www.w3.org/2000/svg" xmlns:xlink="http://www.w3.org/1999/xlink" x="0px" y="0px"
	 viewBox="0 0 612 114.7" enable-background="new 0 0 612 114.7" xml:space="preserve">
<g id="TEMPLATE" display="none">
	<rect x="94.1" y="198.9" display="inline" fill="none" width="250.4" height="44.5"/>
	
		<text transform="matrix(1 0 0 1 94.1167 235.4009)" display="inline" fill="#B7CE96" font-family="'ZurichBT-ItalicCondensed'" font-size="50.7596">at a glance</text>
	<rect x="89.9" y="132.1" display="inline" fill="none" width="507.8" height="76.8"/>
	<text transform="matrix(1 0 0 1 89.8872 192.9663)" display="inline"><tspan x="0" y="0" fill="#1E2859" font-family="'ZurichBT-RomanCondensed'" font-size="84.5993" letter-spacing="-3">G</tspan><tspan x="44.7" y="0" fill="#1E2859" font-family="'ZurichBT-RomanCondensed'" font-size="84.5993" letter-spacing="-5">S</tspan><tspan x="84.2" y="0" fill="#1E2859" font-family="'ZurichBT-RomanCondensed'" font-size="84.5993" letter-spacing="-3">E</tspan><tspan x="120" y="0" fill="#1E2859" font-family="'ZurichBT-RomanCondensed'" font-size="84.5993">P</tspan></text>
	<path display="inline" fill="#ED7625" d="M0,130.6l18.4,31.6L0,194h15.2l19.4-31.8l-19.4-31.6H0z M35.7,130.6l18.5,31.6L35.7,194
		h15.2l19.4-31.8l-19.4-31.6H35.7z"/>
</g>
<g id="WWW">
	<g>
		<path fill="#968B83" d="M100.3,105c-4.2,0-6.7-2.6-6.7-6.8c0-6.9,4.3-9.8,13.5-9.8c0.9,0,1.8,0.1,2.7,0.1c0.3-1.3,0.4-2.4,0.4-3.4
			c0-2.1-1.4-3.2-4.2-3.2c-2.7,0-4.3,1.3-4.7,4.1h-4.7c1-5.1,3.9-7.3,9.3-7.3c5.8,0,8.6,2.1,8.6,6.5c0,1.2-0.2,2.7-0.6,4.6l-2.1,9.8
			c-0.4,1.6-0.6,3.4-0.7,5.2H107l0.7-4C105.7,103.6,103.3,105,100.3,105z M108.2,91.6c-6.9,0-10.2,1.9-10.2,6.2
			c0,2.3,1.4,3.7,3.6,3.7c4,0,6.7-3.4,7.7-9.9H108.2z"/>
		<path fill="#968B83" d="M123.4,104.8c-3.4,0-5.1-1.4-5.1-4.4c0-1.1,0.3-2.3,0.6-3.8l3-14.4h-4.1l0.6-2.9h4.1l1.1-5.1l4.8-1.6
			l-1.4,6.7h4.9l-0.6,2.9h-5L123,97.6c-0.2,0.8-0.3,1.4-0.3,1.7c0,1.6,0.9,2.1,3.1,2.1c0.4,0,0.8-0.1,1.2-0.1l-0.7,3.4H123.4z"/>
		<path fill="#968B83" d="M149.3,105c-4.2,0-6.7-2.6-6.7-6.8c0-6.9,4.3-9.8,13.5-9.8c0.9,0,1.8,0.1,2.7,0.1c0.3-1.3,0.4-2.4,0.4-3.4
			c0-2.1-1.4-3.2-4.2-3.2c-2.7,0-4.3,1.3-4.7,4.1h-4.7c1-5.1,3.9-7.3,9.3-7.3c5.8,0,8.6,2.1,8.6,6.5c0,1.2-0.2,2.7-0.6,4.6l-2.1,9.8
			c-0.4,1.6-0.6,3.4-0.7,5.2h-4.3l0.7-4C154.7,103.6,152.3,105,149.3,105z M157.2,91.6c-6.9,0-10.2,1.9-10.2,6.2
			c0,2.3,1.4,3.7,3.6,3.7c4,0,6.7-3.4,7.7-9.9H157.2z"/>
		<path fill="#968B83" d="M181.3,108.2c0,2,1.3,3,3.8,3c3.8,0,5.2-1.8,6-5.8l0.8-3.9c-1.9,1.8-3.8,2.6-6.2,2.6c-4,0-6.4-2.5-6.4-7.1
			c0-1,0.1-2.1,0.3-3.5c0.7-4.7,1.6-8.1,2.6-10.1c1.7-3.3,4.1-4.8,7.5-4.8c3.2,0,5.1,1.3,6.2,4.2l0.9-3.7h4.4c-0.6,2.5-1,4-1.1,4.6
			l-4.5,21.1c-1.5,7-3.6,9.7-10.5,9.7c-5.4,0-8.1-2.1-8.1-6.1c0-0.5,0-1,0.1-1.6h4.3C181.3,107.4,181.3,107.9,181.3,108.2z
			 M186,85.4c-0.3,0.7-0.9,2.5-1.5,5.4c-0.7,3-0.9,5.2-0.9,6.5c0,2.5,1.2,3.8,3.6,3.8c2.1,0,3.7-0.9,4.8-2.9
			c0.7-1.1,1.3-3.2,2.1-6.6c0.4-1.6,0.6-3.2,0.6-4.6c0-3.5-1.5-5.2-4.2-5.2C188.3,81.9,187,83,186,85.4z"/>
		<path fill="#968B83" d="M209.3,68.2h4.4l-7.8,36.6h-4.4L209.3,68.2z"/>
		<path fill="#968B83" d="M219.1,105c-4.2,0-6.7-2.6-6.7-6.8c0-6.9,4.3-9.8,13.5-9.8c0.9,0,1.8,0.1,2.7,0.1c0.3-1.3,0.4-2.4,0.4-3.4
			c0-2.1-1.4-3.2-4.2-3.2c-2.7,0-4.3,1.3-4.7,4.1h-4.7c1-5.1,3.9-7.3,9.3-7.3c5.8,0,8.6,2.1,8.6,6.5c0,1.2-0.2,2.7-0.6,4.6l-2.1,9.8
			c-0.4,1.6-0.6,3.4-0.7,5.2h-4.3l0.7-4C224.5,103.6,222.1,105,219.1,105z M227,91.6c-6.9,0-10.2,1.9-10.2,6.2
			c0,2.3,1.4,3.7,3.6,3.7c4,0,6.7-3.4,7.7-9.9H227z"/>
		<path fill="#968B83" d="M239.5,85.1c0.4-1.8,0.7-3.8,1-5.8h4.1l-0.7,3.8c2-2.9,4.6-4.3,7.9-4.3c3.4,0,5.4,2.1,5.4,5.8
			c0,0.9-0.2,2-0.5,3.6l-3.5,16.7h-4.4l3.6-17.1c0.2-1,0.4-1.8,0.4-2.4c0-2.1-1-3.1-2.9-3.1c-4.2,0-6,3.6-7.5,10.6l-2.6,12.1h-4.4
			L239.5,85.1z"/>
		<path fill="#968B83" d="M267.9,105.4c-4.7,0-7.6-3-7.6-8c0-1.5,0.3-3.7,0.9-6.5c0.8-3.6,1.5-5.9,2.2-7.2c1.8-3.4,4.7-4.9,8.7-4.9
			c5,0,7.7,2.5,7.7,7.2c0,0.6-0.1,1.1-0.1,1.7h-4.4c0.1-0.5,0.1-1,0.1-1.4c0-2.6-1.2-3.9-3.6-3.9c-2,0-3.4,1-4.4,3
			c-0.6,1.1-1.2,3.1-1.8,6.1c-0.7,2.9-1,5.1-1,6.3c0,2.8,1.3,4.2,4,4.2c2.8,0,4.4-1.8,5-5.4h4.5C277.2,102.5,274,105.4,267.9,105.4z
			"/>
		<path fill="#968B83" d="M290.7,105.4c-5.3,0-8.5-3-8.5-8c0-1.6,0.3-3.8,0.9-6.6c0.7-3.4,1.5-5.8,2.3-7.2c1.9-3.5,4.6-5,8.8-5
			c5.5,0,8.5,2.9,8.5,8.3c0,1.4-0.3,3.4-0.8,5.9h-14.7c-0.4,1.7-0.6,3.2-0.6,4.7c0,2.9,1.6,4.3,4.8,4.3c2.5,0,4.1-1.7,5-5.2h4.6
			C299.7,102.6,296.5,105.4,290.7,105.4z M298.1,89.7c0.2-1,0.3-1.9,0.3-2.7c0-3.2-1.4-4.8-4.2-4.8c-3.6,0-5.1,2.3-6.2,7.5H298.1z"
			/>
	</g>
	<g id="Layer_4">
		<path fill="#1E2859" d="M105.4,3C109,2.5,113.2,2.5,116,5c1.9,1.9,4.2,5,4.2,11.1c0,0.3,0,0.5,0,0.9c-0.3,6.3-2.2,8.9-5.6,11.2
			c-1.3,0.8-3.8,1.8-8.3,2.2h0.1h-0.1l0,0c0,0-1.3,0-1.3,0c-0.9-0.1-1.6-0.1-1.7,0.1l-0.1,0.1l-0.4,0.4l-0.1,0.1l0.1,0.3
			c0.3,0.4,0.8,0.5,1.3,0.7c1.7,0.1,6.6-0.1,7.3-0.3c6.9-0.9,10.9-4.6,13-7.5c2.1-3.5,3-6.1,3-9.2c0-1.3-0.1-2.5-0.4-4
			c-0.8-3.8-4.9-8.7-9.4-9.8l0,0c-4.2-1.3-9.9-1-10-1L102,0.8l-3.4,0.1L96.7,1h-0.1L94,0.9h-0.1l0,0l-1.6-0.1l-3-0.3h-0.1
			c-1.2-0.3-1.9-0.3-2.2,0h-0.1h-0.1c-0.3,0.1-0.4,0.4-0.4,0.7c-0.1,0.7,0.3,0.9,0.5,1l0,0l0,0c0.5,0.4,3.1,0.3,4.3,0.1h0.3L93,2.7
			l0.3,0.7c0.8,2.5,0.9,10.8,1,18.5l0.3,26.1c0,3.5,0,3.9,0,4l-0.1,1.7c-0.1,1.8-0.3,4-0.4,5.2l-0.1,0.5l-0.4,0.3
			c-0.5,0.4-1.7,0.8-2.5,0.8h-1c-1.4,0-2.1,0-2.2,0.3c-0.3,0.1-0.4,0.4-0.4,0.7s0.3,0.8,0.5,1c0.4,0.3,0.9,0.3,3.1-0.1h0.1l2.1,0.1
			h4l7.8-0.1c0,0,1.9,0,2.2,0c0.5-0.1,0.7-0.4,0.7-0.4s0.1-0.3,0.1-0.4c0-0.3,0-0.4-0.1-0.5c-0.4-0.5-0.7-0.5-1.2-0.5h-0.1
			c0,0-2.4-0.1-2.5-0.1h-1h-0.4l-0.4-0.3l-0.5-0.4l-0.5-3l0,0c-0.3-1.8-0.9-19.2-0.9-24.6v-4.4l0.1,0.1c0-6.9,0.3-20.2,0.4-21.6
			C101.6,4,102.3,3.3,105.4,3z"/>
		<path fill="#1E2859" d="M281.9,48.6L281.9,48.6c-0.4,0-0.5,0.3-0.7,0.4l0,0c-0.1,0.5-0.5,2.4-0.5,2.4l-0.8,3.5l-0.1,0.3
			c-0.7,1-1.8,2.9-6.3,3.1c-5,0.4-12.5,0.4-13.7,0.3h-0.1h-0.1c-1.3-0.4-1.9-1.3-2.4-4.6c-0.4-3.8-1-18.3-1-22.3v-0.4v-1.3h11.3l0,0
			h0.3c0.7,0,2.1,0.1,3.1,0.5l0.4,0.3l0.3,0.4l0.4,1v-0.1l0.3,2.4c0.1,1.3,0.1,1.8,0.4,2.2s0.7,0.4,0.9,0.4c0.1,0,0.4-0.3,0.5-0.7
			c0.1-0.4,0-1.8-0.3-5.5v-0.5c-0.1-1.3,0.1-7.8,0.3-8.6v-0.1v-0.1c0.3-0.8,0.3-1.3-0.1-1.7c-0.1-0.3-0.4-0.4-0.7-0.3
			c-0.9,0.1-1.2,0.4-1.2,1.8v0.9c0,1.9-0.4,3.1-1.3,3.8l-0.1,0.1h-0.3c-3,0.9-7.7,0.9-9.6,0.9h-1.2l-3.5-0.1l-0.4-1.3l0,0
			c-0.1-0.3-0.1-0.5-0.1-0.9s0-0.7,0-1c0-1.7,0-3.3,0-4.8c0-12.6,0.5-13.7,0.7-14.2l0.1-0.1l0.1-0.1c1-1.3,2.1-1.4,4.9-1.7
			c3-0.3,6.3,0,7.6,0.3c1.9,0.4,4.4,1.4,5.1,2.1l0,0c0.3,0.1,0.4,0.4,0.4,0.4c0.4,0.4,1,1.7,1,3.8c0,0.3,0,0.4,0,0.8
			c0,0.1,0,0.3,0,0.4c0,0.7,0.1,1.6,0.8,1.7c0.5,0.1,0.9-0.5,1-1.2c0-0.4,0-3.8,0-3.8V6.1l0,0V5.2c0.1-2.2,0.1-3-0.1-3.1
			c-0.3-0.3-1.7-1.3-4.8-1.4L264.4,1c-4.1,0.4-10.2,0.4-11.5,0.3L250,1l0,0c0,0-4.8-0.4-5-0.4c-0.3,0-0.5,0.4-0.7,0.7v0.1
			c0,0.3,0.1,0.4,0.4,0.5c0.5,0.3,2.6,1,3.1,2.1c0.7,1.4,1.2,3.3,1.3,5.6l0.5,19.9c0,1.2,0.3,13.4,0.3,19.4c0,1.4,0,2.5,0,3v0.8
			c-0.3,5-0.5,6.5-1,7l-0.1,0.3l-0.3,0.1c-0.9,0.4-1.3,1-1.3,1.6c0,0,0,0,0,0.1c0,0.3,0.3,0.5,0.4,0.5c0.4,0.1,1.2,0,2.1-0.3
			l1.2-0.3c1.2-0.1,6.9-0.3,9.6-0.3l4.1,0.1l8,0.3c3.8,0.3,6.3,0,6.9-0.5c0.5-0.5,1.2-1.4,1.3-2.2V59c0.1-0.4,1.3-6.1,1.8-9.5l0,0
			l0,0C282.7,49.2,282.4,48.6,281.9,48.6z"/>
		<path fill="#1E2859" d="M183.6,3c3.6-0.4,7.7-0.4,10.6,2.1c1.9,1.9,4.2,5,4.2,11.1c0,0.3,0,0.5,0,0.9c-0.3,6.3-2.2,8.9-5.6,11.2
			c-1.3,0.8-3.8,1.8-8.3,2.2h0.1h-0.1l0,0c0,0-1.3,0-1.3,0c-0.9-0.1-1.6-0.1-1.7,0.1l-0.1,0.1l-0.4,0.4l-0.1,0.1l0.1,0.3
			c0.3,0.4,0.8,0.5,1.3,0.7c1.7,0.1,6.6-0.1,7.3-0.3c6.9-0.9,10.9-4.6,13-7.5c2.1-3.5,3-6.1,3-9.2c0-1.3-0.1-2.5-0.4-4
			c-0.8-3.8-4.9-8.7-9.4-9.8l0,0c-4.2-1.3-9.9-1-10-1l-5.7,0.4l-3.4,0.1L174.9,1h-0.1l-2.6-0.1h-0.1l0,0l-1.6-0.1l-3-0.3h-0.1
			c-1.2-0.3-1.9-0.3-2.2,0h-0.1H165c-0.3,0.1-0.4,0.4-0.4,0.7c-0.1,0.7,0.3,0.9,0.5,1l0,0l0,0c0.5,0.4,3.1,0.3,4.3,0.1h0.3l1.4,0.4
			l0.3,0.7c0.8,2.5,0.9,10.8,1,18.5l0.3,26.1c0,3.5,0,3.9,0,4l-0.1,1.7c-0.1,1.8-0.3,4-0.4,5.2l-0.1,0.5l-0.4,0.3
			c-0.5,0.4-1.7,0.8-2.5,0.8h-1c-1.4,0-2.1,0-2.2,0.3c-0.3,0.1-0.4,0.4-0.4,0.7s0.3,0.8,0.5,1c0.4,0.3,0.9,0.3,3.1-0.1h0.1l2.1,0.1
			h4l7.8-0.1c0,0,1.9,0,2.2,0c0.5-0.1,0.7-0.4,0.7-0.4s0.1-0.3,0.1-0.4c0-0.3,0-0.4-0.1-0.5c-0.4-0.5-0.7-0.5-1.2-0.5h-0.1
			c0,0-2.4-0.1-2.5-0.1h-1h-0.4l-0.4-0.3l-0.5-0.4l-0.5-3l0,0c-0.3-1.8-0.9-19.2-0.9-24.6v-4.4l0.1,0.1c0-6.9,0.3-20.2,0.4-21.6
			C179.8,4,180.4,3.3,183.6,3z"/>
		<path fill="#1E2859" d="M222.9,3c3.6-0.4,7.7-0.4,10.6,2.1c1.9,1.9,4.2,5,4.2,11.1c0,0.3,0,0.5,0,0.9c-0.3,6.3-2.2,8.9-5.6,11.2
			c-1.3,0.8-3.8,1.8-8.3,2.2h0.1h-0.2l0,0c0,0-1.3,0-1.3,0c-0.9-0.1-1.6-0.1-1.7,0.1l-0.1,0.1l-0.4,0.4l-0.1,0.1l0.1,0.3
			c0.3,0.4,0.8,0.5,1.3,0.7c1.7,0.1,6.6-0.1,7.3-0.3c6.9-0.9,10.9-4.6,13-7.5c2.1-3.5,3-6.1,3-9.2c0-1.3-0.1-2.5-0.4-4
			c-0.8-3.8-4.9-8.7-9.4-9.8l0,0c-4.2-1.3-9.9-1-10-1l-5.7,0.4L216,0.9L214.1,1h-0.2l-2.6-0.1h-0.1l0,0l-1.6-0.1l-3-0.3h-0.1
			c-1.2-0.3-1.9-0.3-2.2,0h-0.1H204c-0.3,0.1-0.4,0.4-0.4,0.7c-0.1,0.7,0.3,0.9,0.5,1l0,0l0,0c0.5,0.4,3.1,0.3,4.3,0.1h0.3l1.4,0.4
			l0.3,0.7c0.8,2.5,0.9,10.8,1,18.5l0.3,26.1c0,3.5,0,3.9,0,4l-0.1,1.7c-0.1,1.8-0.3,4-0.4,5.2l-0.1,0.5l-0.4,0.3
			c-0.5,0.4-1.7,0.8-2.5,0.8h-0.7c-1.4,0-2.1,0-2.2,0.3c-0.3,0.1-0.4,0.4-0.4,0.7s0.3,0.8,0.5,1c0.4,0.3,0.9,0.3,3.1-0.1h0.1
			l2.1,0.1h4l7.8-0.1c0,0,1.9,0,2.2,0c0.5-0.1,0.7-0.4,0.7-0.4s0.1-0.3,0.1-0.4c0-0.3,0-0.4-0.1-0.5c-0.4-0.5-0.7-0.5-1.2-0.5H224
			c0,0-2.4-0.1-2.5-0.1h-1H220l-0.4-0.3l-0.5-0.4l-0.5-3l0,0c-0.3-1.8-0.9-19.2-0.9-24.6v-4.4l0.1,0.1c0-6.9,0.3-20.2,0.4-21.6
			C219,4,219.7,3.3,222.9,3z"/>
		<path fill="#1E2859" d="M164.2,49c-0.4,0.1-0.4,0.3-0.5,0.5l-0.3,0.9l-0.9,3v0.3l-1.4,1.8l-0.3,0.3l-0.1,0.1l-0.3,0.1
			c-1.6,1.2-3.5,2.5-9.8,2.6h-0.8c-6.6,0.1-8.3,0.1-9.1-1c-1-1.3-1.3-6.8-1.3-6.9c-0.1-1.4-0.4-16-0.4-19.9v-0.3l0.1-1.2l10.2-0.1
			c2.7,0,4.8,0.3,5.6,0.7l0.4,0.3l0.1,0.4c0.4,1.3,0.5,3.8,0.5,4.4v0.1v0.1c0,0.1,0.1,0.4,0.1,0.8c0.4,0.1,0.7,0.3,1,0.4l0,0
			c0.4-0.1,0.8-0.3,0.8-0.9v0.1l-0.1-1.8c0,0,0-0.9-0.1-0.9v-2.1c0-3.1,0.1-9.2,0.4-10.2l0,0c0-0.1,0-0.3,0-0.4
			c-0.1-0.3-0.3-0.4-0.4-0.7c-0.3-0.1-0.5-0.3-0.9-0.1c-0.4,0.1-0.8,0.4-0.9,0.8c-0.4,2.2-0.7,3.9-1,4.7l-0.1,0.4l-0.4,0.3
			c-0.8,0.4-2.2,0.8-6.6,0.8h-3.8c-3.3,0-4.2,0-4.8-0.4l-0.4-0.3l-0.1-0.4c-0.4-1.7-0.3-15.9-0.3-16c0.3-3.6,1.6-5.8,3.9-5.9
			c3.8-0.3,8.3,0.1,10,0.4c1.4,0.3,3.1,0.5,4.1,1.8l0.3,0.3l0.1,1.3v3.1v0.5c0,1,0.1,1.2,0.4,1.3c0,0,0.7,0.4,1.2,0.3
			c0,0,0.1,0,0.3-0.1c0.1-0.1,0.1-0.1,0.1-0.3c0-0.1,0.1-0.1,0.1-0.3c0-0.4,0.1-1.8,0.1-1.8l0.4-4.4V5.4c0.3-0.8,0.4-2.1,0.4-3
			c0-0.5-0.1-0.7-0.1-0.7c-0.4-0.4-1-1.4-4.8-1.3l-12.3,0.4c-7.4-0.1-13-0.3-14.1,0.1v0.1L128.4,1c-0.3,0.4-0.3,0.4-0.3,0.5v0.1v0.1
			c0.3,0,0.5,0.1,0.5,0.1c0.5,0,1.3,0.3,1.6,1.2c0.7,1.6,1.3,8.2,1.3,12v0.7c0.4,10.9,0.5,23.9,0.5,28.2c0,0.8,0,1.3,0,1.4l0,0
			c0,0.1,0,0.1,0,0.3c0,0.4,0,0.7,0,1.2l-0.1,1.3c-0.1,4.6-0.4,7.6-0.9,8.9c-0.8,2.4-2.2,2.9-3,3.1c0,0-0.4,0.1-0.4,0.3
			c-0.1,0.1-0.1,0.1-0.1,0.4c0,0,0,0,0,0.1c0,0.4,0.3,0.8,0.4,0.9l0,0c1,0,3.1-0.1,3.1-0.1s0.7,0,0.8,0c4.9-0.5,15.5-0.1,20.9,0.3
			c4.8,0.3,7.6-0.1,8.2-0.7c0.5-0.4,1.2-1.6,1.6-3.1l0.1-0.3l0.3-0.5c0,0,0.4-0.9,0.4-1s0.7-3.1,0.7-3.1c0.4-2.1,0.7-3.1,0.7-3.5
			c0-0.4-0.1-0.4-0.3-0.5C164.7,49,164.3,49,164.2,49z"/>
		<path fill="#1E2859" d="M405.2,70.3c-0.1,0-0.3-0.1-0.3-0.1c-0.4,0-0.9,0.4-1.3,0.7c-0.7,0.5-3.9,3.1-6.4,4.2
			c-6.8,3.6-13,4.7-16.8,5.3c-3.8,0.5-13.7,2.2-27.6-2.1c-8.3-2.5-15-6.7-21.6-13.5c-2.2-1.7-10.2-12.8-21.1-28.8l-4.4-6.4l1.7-0.4
			c1.8-0.4,5.1-1,7.4-2.4l0.1-0.1h0.1c4.8-1.7,8.3-8.4,8.3-12v-0.4c-0.3-3.6-0.5-9.9-8.7-12.8c-3.8-1.3-7.5-1.2-9.8-1
			c0,0-0.5,0-0.4,0l-6.7,0.4h-6.7h-0.1h-0.1c0,0-1.6-0.3-1.4-0.3c0,0-3.1-0.4-3.1-0.4c-1.4-0.3-2.4-0.4-2.9-0.3
			c-0.4,0.3-0.9,0.7-0.9,0.7s-0.1,0.1-0.3,0.1l0.1,0.1c0,0.1,0.3,0.4,0.3,0.4v0.1c0.3,0.4,0.7,0.4,1.2,0.4h0.1l2.2,0.4
			c1.2,0.1,1.9,0.3,2.4,0.5l0.3,0.4l0.4,0.8v0.1c0.4,1.6,0.8,5.2,0.9,6.3l0,0c0,0.3,0.1,0.5,0.1,0.9l0.4,4.7v0.1v0.1
			c0,0.1,0,0.4,0,0.5c0,2.2,0.1,8.9,0.3,9.4v0.1v0.1c0,0.4,0.1,5.6,0.3,8.9c0,1.9,0.1,10,0.1,14c0,1.2,0,2.1,0,2.2l0,0
			c0,0.1,0,0.1,0,0.1c0,0.4,0,0.7-0.1,1.2c-0.4,4.3-0.4,5.6-0.7,6l-0.1,0.1l-0.3,0.4l-0.7,1c0,0-0.3-0.3-0.4-0.4c-0.1,0-0.1,0-0.1,0
			c-3.8,0-4,0.3-4.1,0.4c-0.1,0.1-0.4,0.4-0.4,0.9c0,0.1,0,0.3,0,0.4c0.1,0.3,0.4,0.4,0.5,0.4c0.3,0,1.4,0,1.4,0s0.8,0,0.9,0
			l11.1-0.1c0,0,0.9,0,1,0h1.6c3.6,0.1,4.2,0.1,4.4,0c0.4-0.4,0.5-0.7,0.4-1.3c-0.1-0.4-0.3-0.8-1.8-0.7l-2.9,0.1h-0.3l-0.4-0.1
			h-0.1l-0.9-0.4l-0.8-1.8v-0.1c-0.5-2.2-1.3-20.5-1.3-26.2v-3.1l2.1,2.5c6.6,8,14.3,19.2,18.4,25.3c0,0,1.9,2.7,1.9,2.9
			c1.2,1.9,7.4,10.8,14.9,16.2c7.3,5.2,15.5,8.4,26.3,10.3c7.7,1.3,18.1,0.5,25.6-2.2l0.4-0.1c4.2-1.4,9-3.1,16-8.9
			c2.4-2.1,3.1-3.3,3.1-3.8v-0.1C405.3,70.5,405.2,70.4,405.2,70.3z M298.2,27.6L298.2,27.6h-0.3h-0.1l-1-0.4v-0.8
			c-0.1-1.9-0.1-4.8-0.1-8.2c0-6.1,0.1-12.4,0.1-12.4V5.6l0.1-0.5l0.3-0.7l4.3-1l0,0c1.3-0.3,4.9-0.5,8.3,0.3h0.1h0.1
			c5.6,2.2,6,5.3,6.6,9.5l0.1,0.4v0.1c0,0-0.1,1.3-0.1,1.3c0,2.6-0.1,6.8-5,10.2l0,0l0,0C308.3,27.1,303.4,27.9,298.2,27.6z"/>
		<path fill="#1E2859" d="M325.8,2.8l1.2,0.1l2.7,0.3h0.4l0.9,0.1l0.7,0.1c0,0,0.4,1,0.4,1.2c0.9,3.5,1.4,29.4,1.4,40v4.8V51
			c-0.1,3.1-0.1,6.1-0.7,7.7v0.1l-0.1,0.1c-0.7,1-1.2,2.7-1.2,2.7s0,0.1,0,0.3c0,0,0.5,0.5,4.1,0.3h0.1h4.9c0,0,3,0,2.9,0l2.2-0.1
			c2.9-0.1,6.5-0.1,7-0.4c5.1-0.8,17.9-4,24.5-14.6c8.3-13.2,4.7-25.8,3.8-28.3c-1.2-3.5-4.8-14.1-21.1-17.5
			C355,0,348.6,0.6,344.7,0.9c0,0-2.6,0.3-2.7,0.3l-2.9,0.1h-0.3L334.1,1c0,0-3.3-0.1-3.1-0.1h-2.2l-1.2-0.1
			c-1.4-0.1-1.9-0.1-2.2,0.1c-0.1,0.3-0.3,0.4-0.4,0.9v0.1C325.2,2.4,325.4,2.6,325.8,2.8z M339.5,9.3c0-2.1,0.3-3.3,0.7-3.9
			c0,0,0.4-0.4,0.4-0.4c0,0,0,0-0.1,0h0.1l0,0c1.2-0.7,4.3-1.8,14-1.2c15,0.9,20.5,14,20.5,26.1c-0.4,23.5-13.7,27-18.1,27.9l0,0
			l-0.7,0.3c-1.7,0.4-5.2,0.7-10.4,0.7h-0.4l0,0c-0.8,0-3.3-0.5-4.1-0.9l-0.7-0.3l-0.1-0.7c-0.1-0.7-0.3-1.9-0.4-3.8l-0.1-1.8
			c-0.3-3.4-0.5-33-0.5-40.8L339.5,9.3z"/>
		<path fill="#1E2859" d="M402.3,60.7c-0.1,0-1.6-0.1-1.7-0.1c-0.9,0-1.6,0-2.2-0.4l-1.4-0.8l-0.1-0.4c-0.4-0.8-0.5-1.9-0.7-3.9
			c-0.4-4.4-1-32.1-1-43.9c0-4.9,0.1-5.5,0.1-5.7c0.1-0.4,0.4-1.6,0.8-2.4l0.3-0.4l0.9-0.3c0,0,0,0.1-0.1,0.1
			c0.4-0.1,0.9-0.1,1.8-0.3l1.6-0.1l0,0c0.3-0.1,0.7-0.4,0.8-0.9c0-0.3-0.1-0.4-0.4-0.7c-0.8-0.1-3.5-0.1-8.4-0.1h-0.8h-1.3
			c-3.6-0.1-7.8-0.3-8.3,0.3l-0.1,0.3l-0.1,0.1l-0.1,0.3v0.3c0.1,0.4,0.4,0.4,1,0.5h0.9l0,0c2.4,0,3,0.3,3.3,0.4l0.1,0.1l0.1,0.1
			c0.7,0.5,1.2,1.3,1.3,6.5v2.2c0.4,19.4,0.5,32.4,0.5,38.6c0,2.2,0,3.5-0.1,4.1v0.9c0,1.7-0.1,3.1-0.4,4.2l-0.1,0.4l-1.4,0.9
			l-0.4,0.1l-1.7,0.1c-1.6,0.1-2.1,0.1-2.2,0.4c-0.1,0.4-0.3,0.5-0.4,0.9c0,0.1,0,0.1,0,0.1c0.1,0.4,0.5,0.4,0.7,0.5l0,0
			c0.5,0,2.6-0.1,2.6-0.1l2.6-0.1l14.1-0.1l0,0c0.5,0,0.9-0.3,1-0.7C403,61.1,402.7,60.8,402.3,60.7z"/>
		<path fill="#1E2859" d="M464.6,0.3C464.1,0,462.7,0,461.6,0l-13.2,0.1c-0.4,0-0.5,0.1-0.8,0.4c-0.1,0.1-0.3,0.4-0.1,0.9
			c0.1,0.5,0.7,0.7,2.1,0.5l0,0c0.3,0,0.4,0,0.4,0c0.3,0,0.3,0,1.4,0.3l0.4,0.1l0.3,0.4c0.4,0.4,0.7,1.3,1,2.2
			c0.5,2.6,1.2,12.3,1.2,17.1c0,0,0,0.5,0,0.7c0.4,3.9,0.7,19.7,0.7,27.1v3.5l-2.1-3c-23.1-32.4-35-48.6-36.5-49.8
			c-0.4-0.1-1.8-0.1-6.4-0.1h-0.1l-4.6-0.3c0,0-0.5,0-0.8,0l0,0C404.1,0.3,404,0.6,404,1v0.1c0,0.1,0.1,0.5,0.8,0.7h0.4
			c1.7,0.1,4,0.4,4.7,0.8l0.3,0.1l0.1,0.3c0.1,0.3,0.5,1,1,5c0.1,2.5,0.7,14.7,0.7,16l0,0l0,0c0,0.4,0.1,0.9,0.1,1.4v1.4
			c0.1,3.8,0.3,10.8,0.3,16.9s-0.1,9.9-0.4,11.5c-0.1,1.3-0.3,2.4-0.5,3.3l-0.1,0.4l-1.8,1.2l-2.4,0.1h-0.1
			c-0.9-0.1-1.3-0.1-1.7,0.4c-0.4,0.7-0.3,1-0.3,1.2c0.3,0.4,0.8,0.4,1.4,0.4l6.9-0.1l7.3,0.1c0.5,0,1,0,1.4,0.1l-0.1-0.1
			c0,0,0.4,0,0.8,0l0,0c0.4-0.1,0.8-0.4,0.8-0.9c0,0,0-0.3,0.1-0.4c-0.3-0.1-0.3-0.3-0.4-0.4c-0.7,0-2.2-0.3-2.2-0.3h-1h-0.4l-2.1-1
			l-0.1-0.4c-0.4-0.9-0.7-1.9-0.9-3.4c-1.2-6.7-1.7-35.8-1.8-43.4V8.4l2.1,3c1.4,2.1,36.5,50.7,37.7,52.6c0.4,0.8,1.2,0.8,1.4,0.7
			l0,0c0.3-0.1,1.9-1.3,1.9-1.3h0.1c0.4-0.3,1.2-0.5,1.2-1l-0.8-12.9c-0.3-2.7-0.9-22.9-0.9-33.4c0-3.1,0-5,0.1-5.9l0.3-2.7
			c0.3-2.7,0.4-4.3,1.6-5.3l0.1-0.1l0.5-0.3h0.1c1.6-0.3,2.6-0.1,3,0c0,0,0.5,0,0.7,0.1l0,0c0.4-0.1,0.9-0.4,0.9-1c0,0,0-0.3,0-0.4
			C464.9,0.4,464.8,0.4,464.6,0.3L464.6,0.3z"/>
		<path fill="#1E2859" d="M504,47.6L504,47.6c-0.4,0-0.8,0.4-0.9,0.9c0,0-0.4,1.6-0.4,1.4l-0.8,3.1v0.3l-0.7,1.2l-0.1,0.1
			c-2.2,2.4-5.1,3.9-8.9,4.2c-3.3,0.4-11.2,1-12.9-0.4l-0.1-0.1l-0.1-0.1c-0.3-0.4-0.7-1.3-1-9.1v-1c0-0.7-0.4-14.3-0.4-15.1l0,0
			c0-0.1,0-0.4,0-0.4v-0.5l0.1-0.9l1.6-0.4h0.1c2.4-0.1,10-0.3,11.1-0.1h0.1l0,0l0.3,0.1c0.9,0.3,1.6,0.4,2.1,0.9l0.4,0.3l0.4,1.3
			v0.3l0.1,1.9c0,1,0.1,1.4,0.4,1.7c0.1,0.1,0.5,0.3,0.7,0.1c0.5-0.3,0.9-0.5,0.8-1.9c-0.1-0.5-0.9-9.4,0-12.8c0.1-1,0-1.6-0.4-1.8
			c-0.3-0.1-0.5-0.1-0.9,0.1l-0.1,0.1c-0.1,0.1-0.3,0.5-0.4,1.9c0,0-0.1,0.8-0.1,0.9l-0.4,2.5l-0.3,0.3c-0.3,0.3-0.7,0.7-1.3,0.8
			c-2.2,0.4-10.3,0.7-13,0.7h-1l-0.1-1c-0.1-1.3-0.1-4.2-0.1-8c0-4.3,0.1-11.2,0.3-12.3l0,0c0-0.3,0-0.4,0.1-0.5
			c0.3-1.6,1-2.2,3.3-2.7c3.3-0.7,7.7-0.4,9.8-0.3c0.5,0.1,2.4,0.4,3.9,0.9h0.1l0.3,0.3c0,0,0.7,0.4,0.5,0.4l0.7,1l0.1,0.1l0.4,2.7
			v0.1l-0.1,1.6l0.1,1.8l0,0c0.4,0.4,0.8,0.5,1.3,0.4c0.4-0.1,0.5-0.4,0.7-0.7c0-0.1,0.4-4.6,0.4-4.6l0,0c0-0.4,0-0.9,0.1-1.4
			l0.1-1.4l0,0c0.1-0.8,0.4-1.6,0.4-2.2c0-0.4,0-0.5-0.3-0.7c-0.5-0.4-2.2-0.9-4.1-1s-8.9,0-11.5,0.1C481.7,1,470.9,1.1,469.7,1l0,0
			l0,0c-1.2-0.3-1.6-0.1-1.7,0l0,0l0,0c-0.1,0.1-0.4,0.5-0.4,0.9l0,0c0.3,0.3,0.4,0.4,0.4,0.4c0.5,0.4,1.7,1,2.2,2.9
			c1.2,3.9,1.7,22.2,1.7,26.2V36c0,3.5,0.1,6.6,0.1,9.3c0,5.2-0.1,8.6-0.4,9.6c-0.5,3.4-2.5,5.9-2.6,6.3l0,0l0,0
			c0,0.1-0.1,0.4-0.1,0.4s0,0.4,0.1,0.4c0.3,0.3,0.7,0.4,2.1,0.1h0.1h0.1c2.2-0.4,5.5-0.4,6.9-0.3h0.8l3.5,0.1
			c4.6,0.1,11.3,0.4,12.8,0.3h0.8c2.5-0.1,4.8-0.4,5.3-0.8c0.3-0.3,1-1.4,1-1.4l0.1-0.1l0.4-0.7c0,0,0.5-1.3,0.5-1.4
			c0-0.3,0.9-4.9,0.9-4.9c0.5-2.9,0.7-3.8,0.7-4c0,0,0,0,0-0.1C504.9,48.2,504.5,47.6,504,47.6z"/>
	</g>
	<path fill="#ED7625" d="M0,0l18.4,31.6L0,63.4h15.2l19.4-31.8L15.2,0H0z M35.7,0l18.5,31.6L35.7,63.4h15.2l19.4-31.8L50.9,0H35.7z"
		/>
</g>
</svg>
