<?xml version="1.0" encoding="UTF-8" standalone="no"?>
<!-- Created with Inkscape (http://www.inkscape.org/) -->
<svg
   xmlns:svg="http://www.w3.org/2000/svg"
   xmlns="http://www.w3.org/2000/svg"
   version="1.0"
   width="620"
   height="414.60999"
   id="svg2">
  <defs
     id="defs4" />
  <g
     transform="translate(7.4285714,-805.59018)"
     id="layer1">
    <path
       d="M 154.22355,1209.67 C 151.02926,1208.6258 148.28972,1206.1761 146.70335,1202.9457 C 145.46254,1200.4189 145.29719,1199.5217 145.29719,1195.3163 C 145.29719,1191.1066 145.4619,1190.2149 146.70867,1187.676 C 149.72751,1181.5284 155.99094,1178.9459 162.89008,1181.0042 C 168.20616,1182.5902 171.48078,1187.2376 171.98562,1193.9128 C 172.68552,1203.167 167.68685,1209.671 159.49245,1210.1683 C 157.63905,1210.2808 155.46195,1210.0749 154.22355,1209.67 z M 163.97678,1205.0352 C 166.40338,1203.1008 167.65165,1200.5492 167.98847,1196.8347 C 168.50486,1191.1399 166.38538,1186.5418 162.41228,1184.7376 C 157.22598,1182.3824 151.42306,1185.0318 149.80044,1190.4958 C 147.1276,1199.4962 151.59848,1207.2059 159.21089,1206.7234 C 161.48944,1206.5789 162.48068,1206.2278 163.97678,1205.0352 z M 269.1065,1209.67 C 265.9122,1208.6258 263.17266,1206.1761 261.5863,1202.9457 C 260.34548,1200.4189 260.18013,1199.5217 260.18013,1195.3163 C 260.18013,1191.1066 260.34485,1190.2149 261.59162,1187.676 C 264.61046,1181.5284 270.87388,1178.9459 277.77302,1181.0042 C 283.08911,1182.5902 286.36373,1187.2376 286.86857,1193.9128 C 287.56846,1203.167 282.5698,1209.671 274.37539,1210.1683 C 272.522,1210.2808 270.3449,1210.0749 269.1065,1209.67 z M 278.85972,1205.0352 C 281.28633,1203.1008 282.5346,1200.5492 282.87142,1196.8347 C 283.38781,1191.1399 281.26833,1186.5418 277.29523,1184.7376 C 272.10893,1182.3824 266.30601,1185.0318 264.68339,1190.4958 C 262.01055,1199.4962 266.48143,1207.2059 274.09384,1206.7234 C 276.37239,1206.5789 277.36362,1206.2278 278.85972,1205.0352 z M 177.15337,1195.3163 L 177.15337,1180.7678 L 179.16006,1180.7678 L 181.16675,1180.7678 L 181.16675,1186.7879 L 181.16675,1192.8079 L 188.69184,1192.8079 L 196.21692,1192.8079 L 196.21692,1186.7879 L 196.21692,1180.7678 L 198.22361,1180.7678 L 200.2303,1180.7678 L 200.2303,1195.3163 L 200.2303,1209.8648 L 198.22361,1209.8648 L 196.21692,1209.8648 L 196.21692,1203.0922 L 196.21692,1196.3196 L 188.69184,1196.3196 L 181.16675,1196.3196 L 181.16675,1203.0922 L 181.16675,1209.8648 L 179.16006,1209.8648 L 177.15337,1209.8648 L 177.15337,1195.3163 z M 157.46751,1153.3151 L 157.33732,1128.8725 L 128.99284,1112.5049 L 100.64835,1096.1374 L 100.50117,1062.8255 L 100.35399,1029.5136 L 80.308865,1017.9957 C 69.284045,1011.6609 60.271739,1006.3557 60.281517,1006.2064 C 60.291289,1006.0571 60.57348,1005.4669 60.908607,1004.8949 C 61.493135,1003.8971 62.333211,1004.3271 81.564947,1015.4668 L 101.61198,1027.0787 L 113.1703,1020.4028 C 119.52738,1016.731 132.11311,1009.4904 141.1386,1004.3125 L 157.54858,994.89818 L 157.56837,971.94667 L 157.58816,948.99516 L 159.08811,948.99516 L 160.58807,948.99516 L 160.71855,971.9436 L 160.84903,994.89204 L 188.69184,1011.0053 L 216.53465,1027.1186 L 218.03966,1026.226 C 218.86742,1025.7351 227.93261,1020.4935 238.18453,1014.5781 C 256.72248,1003.8815 256.82739,1003.8293 257.3735,1005.0279 C 257.67551,1005.6907 257.92261,1006.2881 257.92261,1006.3554 C 257.92261,1006.4228 248.90103,1011.6609 237.87466,1017.9957 L 217.82673,1029.5136 L 217.82385,1061.8714 L 217.82098,1094.2293 L 245.92154,1110.4234 L 274.0221,1126.6175 L 302.09276,1110.4265 L 330.16341,1094.2355 L 330.15657,1061.8746 L 330.14973,1029.5136 L 310.09652,1017.9751 C 299.06726,1011.629 290.04741,1006.2109 290.05243,1005.935 C 290.05744,1005.6591 290.33753,1005.0709 290.67486,1004.628 C 291.21515,1003.9186 293.78141,1005.2624 312.23062,1015.9157 L 333.17307,1028.0086 L 333.17325,1061.1395 L 333.17344,1094.2703 L 354.87077,1103.9762 C 366.8043,1109.3144 376.62845,1113.73 376.70222,1113.7888 C 376.77599,1113.8475 375.41238,1116.3909 373.67198,1119.4408 L 370.50761,1124.9861 L 351.04576,1110.926 C 333.87132,1098.5185 331.45621,1096.9264 330.4974,1097.3805 C 329.89983,1097.6635 318.46191,1104.2244 305.0798,1111.9602 L 280.74869,1126.0253 L 280.61876,1151.8915 L 280.48883,1177.7578 L 278.98833,1177.7578 L 277.48782,1177.7578 L 277.48782,1152.8831 C 277.48782,1139.2021 277.31851,1128.091 277.11157,1128.1919 C 276.90463,1128.2927 276.10261,1128.6918 275.3293,1129.0788 C 274.09272,1129.6976 273.7509,1129.6805 272.4927,1128.9373 C 271.70588,1128.4725 270.92763,1128.0922 270.76326,1128.0922 C 270.5989,1128.0922 270.46441,1139.267 270.46441,1152.925 L 270.46441,1177.7578 L 268.96391,1177.7578 L 267.46341,1177.7578 L 267.33348,1151.8514 L 267.20354,1125.9449 L 241.88922,1111.3225 L 216.57489,1096.6999 L 188.71196,1112.7925 L 160.84903,1128.8849 L 160.71884,1153.3214 L 160.58864,1177.7578 L 159.09317,1177.7578 L 157.5977,1177.7578 L 157.46751,1153.3151 z M 187.41837,1110.2828 L 215.26719,1094.2293 L 215.26158,1061.8714 L 215.25596,1029.5136 L 187.17665,1013.3315 L 159.09735,997.14947 L 131.01769,1013.3315 L 102.93803,1029.5136 L 102.93151,1061.8714 L 102.92499,1094.2293 L 130.88366,1110.382 C 146.26093,1119.2659 159.00596,1126.49 159.20594,1126.4355 C 159.40592,1126.3809 172.10151,1119.1123 187.41837,1110.2828 z M 159.15565,1116.7413 C 158.82471,1116.015 158.61883,1115.3762 158.69814,1115.3218 C 160.41783,1114.1417 205.37335,1088.4601 205.71937,1088.4601 C 206.20756,1088.4601 207.49229,1090.4298 207.16894,1090.6825 C 207.0776,1090.7539 197.07416,1096.5295 184.93907,1103.5173 C 172.80398,1110.5051 162.17374,1116.6363 161.31632,1117.1422 L 159.75736,1118.062 L 159.15565,1116.7413 z M 109.92929,1061.8714 L 109.92929,1034.2795 L 111.43431,1034.2795 L 112.93932,1034.2795 L 112.93932,1061.8714 L 112.93932,1089.4634 L 111.43431,1089.4634 L 109.92929,1089.4634 L 109.92929,1061.8714 z M 182.1701,1021.9875 C 169.61575,1014.702 159.14338,1008.6637 158.89817,1008.569 C 158.65296,1008.4744 158.76584,1007.8077 159.14901,1007.0875 L 159.84568,1005.778 L 183.17344,1019.267 C 196.00371,1026.6859 206.70289,1032.8273 206.94939,1032.9146 C 207.57991,1033.1378 206.34705,1035.2881 205.60562,1035.2583 C 205.27043,1035.2449 194.72444,1029.273 182.1701,1021.9875 z M 383.98944,1143.4493 C 380.79515,1142.405 378.05561,1139.9553 376.46924,1136.7249 C 375.22843,1134.1982 375.06308,1133.301 375.06308,1129.0955 C 375.06308,1124.8858 375.22779,1123.9942 376.47456,1121.4553 C 379.4934,1115.3076 385.75683,1112.7251 392.65597,1114.7834 C 397.97206,1116.3695 401.24667,1121.0169 401.75151,1127.6921 C 402.45141,1136.9462 397.45274,1143.4502 389.25834,1143.9476 C 387.40494,1144.06 385.22784,1143.8541 383.98944,1143.4493 z M 393.74267,1138.8144 C 396.16928,1136.8801 397.41754,1134.3284 397.75437,1130.614 C 398.27075,1124.9191 396.15127,1120.3211 392.17817,1118.5168 C 386.99187,1116.1616 381.18895,1118.8111 379.56633,1124.275 C 376.89349,1133.2754 381.36437,1140.9851 388.97678,1140.5026 C 391.25534,1140.3582 392.24657,1140.0071 393.74267,1138.8144 z M 407.42094,1129.0955 L 407.42094,1114.5471 L 409.42763,1114.5471 L 411.43432,1114.5471 L 411.43432,1120.5671 L 411.43432,1126.5872 L 418.9594,1126.5872 L 426.48448,1126.5872 L 426.48448,1120.5671 L 426.48448,1114.5471 L 428.49117,1114.5471 L 430.49786,1114.5471 L 430.49786,1129.0955 L 430.49786,1143.644 L 428.49117,1143.644 L 426.48448,1143.644 L 426.48448,1136.8715 L 426.48448,1130.0989 L 418.9594,1130.0989 L 411.43432,1130.0989 L 411.43432,1136.8715 L 411.43432,1143.644 L 409.42763,1143.644 L 407.42094,1143.644 L 407.42094,1129.0955 z M 416.59361,1013.2837 L 387.38836,996.4032 L 387.49662,962.35317 L 387.60488,928.30314 L 416.32562,911.73393 L 445.04636,895.16473 L 445.04636,872.4144 L 445.04636,849.66406 L 446.54631,849.66406 L 448.04627,849.66406 L 448.17675,872.55732 L 448.30723,895.45058 L 475.14669,910.97684 C 489.9084,919.51628 502.44604,926.72447 503.00811,926.99505 C 503.86397,927.40702 507.16301,925.67549 523.29843,916.34575 C 533.89601,910.21806 542.95481,905.10301 543.42914,904.97897 C 543.94551,904.84394 544.51069,905.16293 544.83773,905.77399 C 545.46302,906.94238 547.52499,905.62776 521.17511,920.86052 L 505.24703,930.06848 L 505.24703,963.24089 L 505.24703,996.4133 L 475.94833,1013.3397 C 459.83405,1022.6492 446.45821,1030.2432 446.22425,1030.2152 C 445.99029,1030.1871 432.6565,1022.568 416.59361,1013.2837 z M 475.31774,1010.45 L 502.23564,994.89818 L 502.11092,962.32402 L 501.98616,929.74986 L 474.39418,913.79495 C 459.2186,905.01976 446.64797,897.83657 446.45945,897.83232 C 446.27093,897.82808 433.62879,905.03593 418.36581,913.84979 L 390.61492,929.87499 L 390.61492,962.37815 L 390.61492,994.88132 L 418.45773,1010.9883 C 442.69745,1025.0109 446.43637,1027.0245 447.35018,1026.5486 C 447.92748,1026.2479 460.51289,1019.0035 475.31774,1010.45 z M 421.98713,1004.7772 C 409.18246,997.38032 398.64267,991.11569 398.56536,990.85576 C 398.48806,990.59581 398.72198,989.99115 399.08519,989.51207 C 399.6891,988.71551 401.75781,989.8028 423.2739,1002.2254 C 436.21447,1009.6967 446.87429,1015.8799 446.96239,1015.9656 C 447.17599,1016.1736 445.88294,1018.226 445.53835,1018.226 C 445.38984,1018.226 434.79179,1012.174 421.98713,1004.7772 z M 492.70522,962.28948 L 492.70522,934.94834 L 493.9594,934.94834 L 495.21358,934.94834 L 495.21358,962.28948 L 495.21358,989.63062 L 493.9594,989.63062 L 492.70522,989.63062 L 492.70522,962.28948 z M 398.86368,934.89448 C 398.5525,934.31302 398.48812,933.66931 398.72062,933.46402 C 399.50221,932.77391 445.64236,906.27983 445.77885,906.44277 C 446.4027,907.1875 446.9811,908.84336 446.67815,909.01733 C 446.47046,909.13659 435.88258,915.2456 423.14952,922.59293 C 410.41645,929.94024 399.87047,935.95169 399.71399,935.95169 C 399.55751,935.95169 399.17488,935.47595 398.86368,934.89448 z M 337.67133,1025.2173 C 337.26001,1024.4487 337.27129,1023.9962 337.71511,1023.4614 C 338.5732,1022.4275 339.5699,1022.5729 340.24272,1023.8301 C 340.72571,1024.7325 340.66934,1025.0333 339.91365,1025.5859 C 338.67904,1026.4887 338.32018,1026.4297 337.67133,1025.2173 z M 344.75336,1020.9428 C 343.72474,1019.1994 343.71616,1019.0824 344.56941,1018.4362 C 345.77777,1017.5209 346.10741,1017.6897 347.34654,1019.8579 C 348.50124,1021.8784 348.4878,1021.9567 346.90255,1022.4431 C 346.04073,1022.7075 345.62223,1022.4154 344.75336,1020.9428 z M 351.89314,1016.9385 L 350.31372,1014.2733 L 351.514,1013.4869 C 352.69371,1012.7139 352.7402,1012.7456 354.22678,1015.3378 C 355.05866,1016.7883 355.7414,1018.1082 355.74399,1018.2708 C 355.74658,1018.4335 355.23656,1018.7999 354.61062,1019.0851 C 353.57381,1019.5575 353.33202,1019.3665 351.89314,1016.9385 z M 359.00944,1012.8611 C 357.16459,1009.7074 357.12047,1009.5306 358.01473,1008.8767 C 358.5294,1008.5004 359.11367,1008.1925 359.31311,1008.1925 C 359.71642,1008.1925 363.4652,1014.7053 363.19409,1014.935 C 363.09996,1015.0148 362.55426,1015.3233 361.98143,1015.6206 C 361.03831,1016.1101 360.75752,1015.8494 359.00944,1012.8611 z M 367.01445,1010.3186 C 366.26405,1009.0113 365.2266,1007.235 364.70902,1006.3714 L 363.76797,1004.8011 L 364.98918,1004.0009 C 366.20949,1003.2013 366.21213,1003.2037 368.54377,1007.2461 C 369.82712,1009.4711 370.80309,1011.3538 370.71258,1011.4299 C 370.62208,1011.506 370.05995,1011.822 369.46343,1012.132 C 368.47923,1012.6434 368.25253,1012.4756 367.01445,1010.3186 z M 39.842275,1011.0078 C 36.647982,1009.9635 33.90844,1007.5139 32.322077,1004.2834 C 31.081261,1001.7566 30.91591,1000.8595 30.91591,996.65403 C 30.91591,992.44431 31.080624,991.55271 32.327395,989.01377 C 35.346238,982.86614 41.609661,980.28366 48.508803,982.34197 C 53.824889,983.92797 57.099505,988.57538 57.604348,995.25056 C 58.304241,1004.5047 53.305578,1011.0088 45.111168,1011.5061 C 43.257775,1011.6185 41.080678,1011.4127 39.842275,1011.0078 z M 49.595501,1006.373 C 52.02211,1004.4386 53.270376,1001.887 53.607198,998.17243 C 54.123585,992.47763 52.004105,987.87958 48.031006,986.07533 C 42.844708,983.72013 37.041785,986.36957 35.419166,991.83352 C 32.746327,1000.834 37.217205,1008.5436 44.829614,1008.0611 C 47.10817,1007.9167 48.099404,1007.5656 49.595501,1006.373 z M 269.1065,1011.0078 C 265.9122,1009.9635 263.17266,1007.5139 261.5863,1004.2834 C 260.34548,1001.7566 260.18013,1000.8595 260.18013,996.65403 C 260.18013,992.44431 260.34485,991.55271 261.59162,989.01377 C 264.61046,982.86614 270.87388,980.28366 277.77302,982.34197 C 283.08911,983.92797 286.36373,988.57538 286.86857,995.25056 C 287.56846,1004.5047 282.5698,1011.0088 274.37539,1011.5061 C 272.522,1011.6185 270.3449,1011.4127 269.1065,1011.0078 z M 278.85972,1006.373 C 281.28633,1004.4386 282.5346,1001.887 282.87142,998.17243 C 283.38781,992.47763 281.26833,987.87958 277.29523,986.07533 C 272.10893,983.72013 266.30601,986.36957 264.68339,991.83352 C 262.01055,1000.834 266.48143,1008.5436 274.09384,1008.0611 C 276.37239,1007.9167 277.36362,1007.5656 278.85972,1006.373 z M 2.5714279,996.65403 L 2.5714279,982.10554 L 4.5781169,982.10554 L 6.5848059,982.10554 L 6.5848059,988.1256 L 6.5848059,994.14567 L 14.10989,994.14567 L 21.634973,994.14567 L 21.634973,988.1256 L 21.634973,982.10554 L 23.641662,982.10554 L 25.648351,982.10554 L 25.648351,996.65403 L 25.648351,1011.2025 L 23.641662,1011.2025 L 21.634973,1011.2025 L 21.634973,1004.43 L 21.634973,997.65738 L 14.10989,997.65738 L 6.5848059,997.65738 L 6.5848059,1004.43 L 6.5848059,1011.2025 L 4.5781169,1011.2025 L 2.5714279,1011.2025 L 2.5714279,996.65403 z M 373.88762,1005.7895 C 370.50328,999.94364 370.55247,1000.0816 371.58374,999.32753 C 372.08529,998.96078 372.63786,998.66072 372.81167,998.66072 C 373.18334,998.66072 378.07311,1007.2327 378.07311,1007.8842 C 378.07311,1008.1285 377.56986,1008.5146 376.95478,1008.7421 C 375.95626,1009.1115 375.62767,1008.7952 373.88762,1005.7895 z M 382.65795,1004.5554 C 382.26974,1003.9346 380.91231,1001.6206 379.64146,999.41323 L 377.3308,995.39985 L 378.40012,994.50938 C 378.98824,994.01962 379.52943,993.68099 379.60277,993.75688 C 379.67611,993.83275 381.11328,996.26524 382.79648,999.16239 C 385.58287,1003.9584 385.78054,1004.4861 385.00455,1005.057 C 383.82177,1005.9273 383.46864,1005.8518 382.65795,1004.5554 z M 154.22355,944.78705 C 151.02926,943.74276 148.28972,941.29314 146.70335,938.06268 C 145.46254,935.5359 145.29719,934.63876 145.29719,930.43329 C 145.29719,926.22356 145.4619,925.33198 146.70867,922.79303 C 149.72751,916.64541 155.99094,914.06292 162.89008,916.12123 C 168.20616,917.70724 171.48078,922.35464 171.98562,929.02982 C 172.68552,938.284 167.68685,944.78801 159.49245,945.28531 C 157.63905,945.39779 155.46195,945.19191 154.22355,944.78705 z M 163.97678,940.15222 C 166.40338,938.21785 167.65165,935.66621 167.98847,931.9517 C 168.50486,926.25689 166.38538,921.65885 162.41228,919.85459 C 157.22598,917.4994 151.42306,920.14883 149.80044,925.61278 C 147.1276,934.61321 151.59848,942.32289 159.21089,941.84036 C 161.48944,941.69593 162.48068,941.34482 163.97678,940.15222 z M 177.15337,930.43329 L 177.15337,915.8848 L 179.16006,915.8848 L 181.16675,915.8848 L 181.16675,921.90486 L 181.16675,927.92493 L 188.69184,927.92493 L 196.21692,927.92493 L 196.21692,921.90486 L 196.21692,915.8848 L 198.22361,915.8848 L 200.2303,915.8848 L 200.2303,930.43329 L 200.2303,944.98179 L 198.22361,944.98179 L 196.21692,944.98179 L 196.21692,938.20921 L 196.21692,931.43664 L 188.69184,931.43664 L 181.16675,931.43664 L 181.16675,938.20921 L 181.16675,944.98179 L 179.16006,944.98179 L 177.15337,944.98179 L 177.15337,930.43329 z M 556.56467,911.17501 C 553.37037,910.13072 550.63084,907.68109 549.0445,904.45064 C 547.80367,901.92386 547.63832,901.02672 547.63832,896.82125 C 547.63832,892.61152 547.80302,891.71994 549.04982,889.18099 C 552.06863,883.03337 558.33206,880.45088 565.23121,882.50919 C 570.54728,884.0952 573.8219,888.7426 574.32673,895.41778 C 575.02666,904.67196 570.028,911.17597 561.83358,911.67327 C 559.98016,911.78575 557.8031,911.57987 556.56467,911.17501 z M 566.31788,906.54018 C 568.74452,904.60582 569.99278,902.05417 570.32961,898.33966 C 570.84598,892.64485 568.72651,888.04681 564.75342,886.24255 C 559.56713,883.88736 553.76419,886.53679 552.14158,892.00074 C 549.46872,901.00117 553.93962,908.71085 561.552,908.22833 C 563.83059,908.08389 564.8218,907.73278 566.31788,906.54018 z M 579.4945,896.82125 L 579.4945,882.27275 L 581.50119,882.27275 L 583.50788,882.27275 L 583.50788,888.29282 L 583.50788,894.31289 L 591.03297,894.31289 L 598.55805,894.31289 L 598.55805,888.29282 L 598.55805,882.27275 L 600.56474,882.27275 L 602.57143,882.27275 L 602.57143,896.82125 L 602.57143,911.36975 L 600.56474,911.36975 L 598.55805,911.36975 L 598.55805,904.59717 L 598.55805,897.82459 L 591.03297,897.82459 L 583.50788,897.82459 L 583.50788,904.59717 L 583.50788,911.36975 L 581.50119,911.36975 L 579.4945,911.36975 L 579.4945,896.82125 z M 441.68175,844.95427 C 438.48746,843.90998 435.74792,841.46035 434.16155,838.2299 C 432.92074,835.70312 432.75539,834.80598 432.75539,830.60052 C 432.75539,826.39079 432.9201,825.4992 434.16687,822.96025 C 437.18571,816.81263 443.44914,814.23014 450.34828,816.28845 C 455.66436,817.87446 458.93898,822.52186 459.44382,829.19704 C 460.14372,838.45123 455.14505,844.95523 446.95065,845.45253 C 445.09725,845.56501 442.92015,845.35913 441.68175,844.95427 z M 451.43498,840.31944 C 453.86159,838.38508 455.10985,835.83344 455.44667,832.11892 C 455.96306,826.42411 453.84358,821.82607 449.87048,820.02181 C 444.68418,817.66661 438.88126,820.31606 437.25864,825.78 C 434.5858,834.78043 439.05668,842.49011 446.66909,842.00759 C 448.94765,841.86316 449.93888,841.51205 451.43498,840.31944 z M 464.61157,830.60052 L 464.61157,816.05202 L 466.61826,816.05202 L 468.62495,816.05202 L 468.62495,822.07209 L 468.62495,828.09216 L 476.15004,828.09216 L 483.67512,828.09216 L 483.67512,822.07209 L 483.67512,816.05202 L 485.68181,816.05202 L 487.6885,816.05202 L 487.6885,830.60052 L 487.6885,845.14901 L 485.68181,845.14901 L 483.67512,845.14901 L 483.67512,838.37644 L 483.67512,831.60386 L 476.15004,831.60386 L 468.62495,831.60386 L 468.62495,838.37644 L 468.62495,845.14901 L 466.61826,845.14901 L 464.61157,845.14901 L 464.61157,830.60052 z"
       id="path2542"
       style="fill:#000000" />
  </g>
</svg>
