<?xml version="1.0" encoding="UTF-8"?>
<!-- Generator: Adobe Illustrator 13.0.2, SVG Export Plug-In . SVG Version: 6.00 Build 14948)  -->
<!DOCTYPE svg PUBLIC "-//W3C//DTD SVG 1.1//EN" "http://www.w3.org/Graphics/SVG/1.1/DTD/svg11.dtd">
<svg xmlns="http://www.w3.org/2000/svg" xmlns:xlink="http://www.w3.org/1999/xlink" xmlns:svg="http://www.w3.org/2000/svg" xmlns:dc="http://purl.org/dc/elements/1.1/" xmlns:cc="http://web.resource.org/cc/" xmlns:rdf="http://www.w3.org/1999/02/22-rdf-syntax-ns#" version="1.1" id="Layer_1" x="0px" y="0px" width="451.3px" height="276.308px" viewBox="0 0 451.3 276.308" style="enable-background:new 0 0 451.3 276.308;" xml:space="preserve">
<g>
	<path style="fill-rule:evenodd;clip-rule:evenodd;" d="M217.177,27.121c1.838,0.044,3.538,0.227,3.138,2.511   C218.476,29.587,216.776,29.404,217.177,27.121z"/>
	<path style="fill-rule:evenodd;clip-rule:evenodd;" d="M340.829,142.613c-1.519,2.256-5.284,1.488-7.532,1.883   c-5.435,0.955-10.997,2.743-16.32,3.766c-0.487-0.559-0.675-1.417-0.627-2.511c-1.458,0.665-5.078,2.412-6.904,0.627   c0.425-2.838,6.797-3.375,9.415-3.766c2.765-0.413,6.864-1.335,9.415-1.255C331.771,141.468,336.509,142.93,340.829,142.613z"/>
	<path style="fill-rule:evenodd;clip-rule:evenodd;" d="M340.829,145.124c-0.723,2.714-5.704,2.459-8.788,3.139   c-2.351,0.518-5.823,3.122-6.904,0.627C328.341,145.608,335.451,146.232,340.829,145.124z"/>
	<path style="fill-rule:evenodd;clip-rule:evenodd;" d="M345.851,148.89c-0.814,2.568-3.766,0.919-5.649,1.255   c-2.569,0.458-5.338,2.416-8.16,1.883C334.267,149.016,342.23,148.418,345.851,148.89z"/>
	<path style="fill-rule:evenodd;clip-rule:evenodd;" d="M350.871,151.4c-1.075,2.279-4.603,1.448-6.904,1.883   s-4.561,1.787-6.904,1.255C338.724,150.962,346.646,150.323,350.871,151.4z"/>
	<path style="fill-rule:evenodd;clip-rule:evenodd;" d="M352.755,153.911c-0.944,2.761-1.591,2.089-1.884,5.021   c-2.749-0.93-1.584-3.343-5.648-1.883C344.867,153.137,350.428,155.141,352.755,153.911z"/>
	<path style="fill-rule:evenodd;clip-rule:evenodd;" d="M341.456,164.582c1.575,2.72,0.689,4,1.256,7.532   c-1.651,0.65-3.853,0.751-6.277,0.628c-0.537-2.63,2.811-1.375,3.767-2.511c-2.349-1.895-8.187,1.401-10.043,0   c1.946-2.657,7.502-1.705,10.671-3.139c-0.54-1.553-4.369,0.185-5.021-1.255C336.027,163.756,339.425,164.852,341.456,164.582z"/>
	<path style="fill-rule:evenodd;clip-rule:evenodd;" d="M310.7,172.742c1.641,5.326-9.921,6.467-9.415,1.255   C301.936,170.581,309.133,169.831,310.7,172.742z M304.424,174.625c1.664-0.01,3.695,0.348,3.766-1.255   C306.525,173.379,304.493,173.021,304.424,174.625z"/>
	<path style="fill-rule:evenodd;clip-rule:evenodd;" d="M146.876,179.646c-1.826,3.469-8.272,2.072-13.181,3.138   c-4.25,0.923-8.233,3.686-12.554,3.139c1.94-4.029,8.054-3.346,12.554-4.394C137.936,180.542,142.721,177.642,146.876,179.646z"/>
	<path style="fill-rule:evenodd;clip-rule:evenodd;" d="M334.552,182.157c0.619,4.189-6.144,4.773-8.159,2.511   C326.06,180.801,333.021,178.439,334.552,182.157z"/>
	<path style="fill-rule:evenodd;clip-rule:evenodd;" d="M134.323,186.55c-0.037-2.334,3.881-3.155,6.277-3.766   c3.569-0.91,8.902-1.651,10.67,0c-1.677,2.396-5.612,1.865-8.787,2.511C139.726,185.855,136.62,187.789,134.323,186.55z"/>
	<path style="fill-rule:evenodd;clip-rule:evenodd;" d="M153.781,184.667c1.476,4.779-6.662,3.726-6.276,0.627   C148.692,184.182,151.65,184.838,153.781,184.667z"/>
	<path style="fill-rule:evenodd;clip-rule:evenodd;" d="M305.679,192.2c1.831-0.923,1.831,2.806,0,1.883   C305.679,193.455,305.679,192.828,305.679,192.2z"/>
	<path style="fill-rule:evenodd;clip-rule:evenodd;" d="M200.857,201.615c-0.334,1.759-3.024,1.16-4.394,1.883   c3.805,1.46,9.602-3.028,13.809-1.255c-0.347,3.35-3.692,1.474-5.649,1.883c-5.094,1.065-10.915,3.715-15.064,3.139   c-0.166-3.096,3.941-1.917,5.649-3.139c-5.667-0.784-10.227,2.771-16.319,2.511c0-0.628,0-1.256,0-1.883   c-1.661,0.741-1.95,0.543-1.255,2.511c-2.812,0.745-4.882,2.231-8.788,1.883c-0.457-1.713,1.247-1.264,1.255-2.511   c-4.193,1.455-9.212,2.086-13.181,3.766c-2.004-0.088-2.076-2.108-3.766-2.511c0.046-2.706,4.141-2.047,5.021-0.627   c5.624-0.862,9.695-3.277,14.437-5.021c1.688-0.433,1.213,1.297,1.883,1.883c2.602-1.39,7.897-3.028,8.788,0.628   C187.406,202.331,195.185,200.419,200.857,201.615z M172.611,206.636c1.118-0.348,2.606-0.322,3.138-1.256   C175.256,204.173,171.577,206.503,172.611,206.636z"/>
	<path style="fill-rule:evenodd;clip-rule:evenodd;" d="M210.899,205.38c-0.04,2.289-4.444,3.471-6.276,1.884   C204.871,205.183,209.275,204.001,210.899,205.38z"/>
	<path style="fill-rule:evenodd;clip-rule:evenodd;" d="M109.844,227.349c-3.047-1.854-0.114-6.738,0.627-8.787   c-2.07-2.613-0.905-6.937,0.628-9.415C115.656,212.669,112.074,221.951,109.844,227.349z"/>
	<path style="fill-rule:evenodd;clip-rule:evenodd;" d="M116.12,216.051c0.073,4.258-1.673,6.695-3.138,9.415   C110.964,223.829,112.748,216.354,116.12,216.051z"/>
	<path style="fill-rule:evenodd;clip-rule:evenodd;" d="M118.631,218.562c1.256,1.57,0.518,5.165-1.883,5.021   C115.492,222.013,116.23,218.417,118.631,218.562z"/>
	<path style="fill-rule:evenodd;clip-rule:evenodd;" d="M120.514,219.19c1.455,0.175,1.443,1.676,0.627,2.511   C119.687,221.525,119.699,220.024,120.514,219.19z"/>
	<path style="fill-rule:evenodd;clip-rule:evenodd;" d="M94.779,225.466C96.683,223.146,96.894,227.373,94.779,225.466   L94.779,225.466z"/>
	<path style="fill-rule:evenodd;clip-rule:evenodd;" d="M128.674,226.722c-5.83,0.447-10.189,2.363-16.319,2.51   c1.644-1.762,9.531-4.511,13.181-4.394C127.076,224.888,128.97,224.589,128.674,226.722z"/>
	<path style="fill-rule:evenodd;clip-rule:evenodd;" d="M92.269,225.466c-1.647,2.053-8.604,3.84-11.926,4.394   c-1.716,0.286-3.711,0.31-5.021,0C79.259,226.142,87.951,227.181,92.269,225.466z"/>
	<path style="fill-rule:evenodd;clip-rule:evenodd;" d="M106.705,226.722c-8.203,3.723-19.306,4.545-28.873,6.904   c0.872-3.219,5.033-3.03,8.16-3.767C91.798,228.494,99.677,225.952,106.705,226.722z"/>
	<path style="fill-rule:evenodd;clip-rule:evenodd;" d="M141.228,226.094c-1.843,3.147-6.244,2.494-9.415,3.138   c-6.361,1.292-13.053,3.721-19.458,4.395c1.325-3.088,10.188-4.674,15.064-5.649C131.978,227.065,136.877,226.572,141.228,226.094z   "/>
	<path style="fill-rule:evenodd;clip-rule:evenodd;" d="M67.162,226.722c1.26-0.214,1.964,0.128,1.883,1.255   c-0.627,0-1.255,0-1.883,0C67.162,227.559,67.162,227.14,67.162,226.722z"/>
	<path style="fill-rule:evenodd;clip-rule:evenodd;" d="M150.643,227.977c-0.435,0.867-5.366,2.907-6.904,3.139   c-1.37,0.206-3.866,0.397-5.021-0.628C140.52,227.887,146.947,226.596,150.643,227.977z"/>
	<path style="fill-rule:evenodd;clip-rule:evenodd;" d="M74.066,229.86c-0.532,1.351-1.546,2.221-3.766,1.884   c0-0.628,0-1.256,0-1.884C71.767,229.667,72.893,228.631,74.066,229.86z"/>
	<path style="fill-rule:evenodd;clip-rule:evenodd;" d="M106.078,229.86c0.159,2.416-3.935,2.656-5.021,1.884   C101.716,230.102,103.606,229.691,106.078,229.86z"/>
	<path style="fill-rule:evenodd;clip-rule:evenodd;" d="M109.844,241.786c-9.931,1.368-17.726,4.871-27.618,6.277   c1.411-3.519,7.315-3.283,11.926-4.394c4.439-1.07,9.216-3.03,12.553-3.139C107.673,240.5,109.567,240.183,109.844,241.786z"/>
	<path style="fill-rule:evenodd;clip-rule:evenodd;" d="M116.12,241.786c-0.688,2.211-3.715,1.917-5.649,2.511   c-5.121,1.573-13.076,4.074-18.203,4.395c2.664-2.896,7.158-3.301,11.298-4.395C107.357,243.296,111.643,241.586,116.12,241.786z"/>
	<path style="fill-rule:evenodd;clip-rule:evenodd;" d="M130.557,241.786c-2.163,3.484-7.462,2.8-11.298,3.767   c-4.08,1.027-7.882,3.032-11.926,3.139c1.137-3.562,6.059-2.921,9.415-3.767C121.268,243.786,124.479,241.859,130.557,241.786z"/>
	<path style="fill-rule:evenodd;clip-rule:evenodd;" d="M137.461,244.296c-2.714,3.145-9.524,2.192-13.809,3.767   C125.719,244.682,133.64,243.833,137.461,244.296z"/>
	<path style="fill-rule:evenodd;clip-rule:evenodd;" d="M136.206,177.763c-2.712,3.206-14.035,3.676-21.341,5.649   c-0.719-1.974,0.986-1.525,1.255-2.511c-4.848-0.784-11.607,5.284-13.181,0c5.58-1.325,11.519-2.291,17.575-3.138   c2.015-0.551,1.301,1.627,2.511,1.883C128.24,178.653,131.934,178.655,136.206,177.763z"/>
	<path style="fill-rule:evenodd;clip-rule:evenodd;" d="M208.389,51.6c-4.737-0.494-7.381-3.081-11.298-4.394   c0.484-4.912,3.373-9.142,0.627-13.809c-15.28,2.458-21.002,32.82-9.415,43.31c25.827,1.879,32.071-38.96,21.341-58.374   c-2.535-4.586-8.573-11.069-13.181-11.926c-5.067-0.942-12.564,1.867-16.319,3.766c-2.439,1.233-5.39,3.614-8.16,5.649   c-21.293,15.64-32.736,57.509-19.458,89.13c16.77,7.793,33.096,13.905,51.47,21.341c5.498,2.225,12.462,5.816,17.575,6.277   c2.516,0.227,6.125-0.75,9.415-1.255c16.392-2.522,43.388-4.382,63.396-6.905c17.495-2.206,35.387-4.237,54.607-6.276   c14.617-1.551,25.352-2.807,36.405,3.766c-1.269,14.693-5.281,31.15-8.159,45.192c-1.605,7.83-1.166,16.637-6.277,20.714   c20.196,7.853,40.844,14.681,61.513,23.224c3.084,1.274,6.176,3.154,9.415,4.394c3.029,1.159,7.727,0.838,9.415,4.394   c-0.863,2.405-3.786,0.373-5.021,0c-5.21-1.571-10.372-4.224-15.691-6.276c-20.387-7.865-43.137-15.126-62.141-24.479   c-1.465,0-2.929,0-4.394,0c-5.18-2.24-11.897-6.736-18.202-8.16c-17.181-3.878-44.2-0.282-50.843,11.926   c1.526,3.54,5.786,3.148,8.788,4.394c8.511,3.528,17.821,8.533,26.99,12.554c12.238,5.366,24.936,10.055,37.032,15.691   c21.153,9.856,41.75,19.651,64.023,28.245c2.743,1.059,7.386,1.2,8.16,5.021c-7.813-0.468-14.406-5.228-21.341-8.159   c-48.644-20.562-97.754-43.581-147.505-64.023c1.034,4.227,6.35,4.774,9.415,6.277c43.039,21.09,91.552,39.764,135.579,60.884   c3.388,1.626,7.263,2.889,10.67,4.395c3.153,1.394,7.257,2.6,9.415,5.648c-0.69,2.217-3.53,0.291-4.394,0   c-4.339-1.46-8.655-4.248-13.181-6.276c-40.664-18.226-84.105-37.918-125.536-55.863c1.195,9.089,12.094,11.091,21.969,15.691   c22.549,10.507,45.646,20.946,69.045,31.385c14.087,6.284,28.194,12.965,43.31,19.457c2.456,1.056,7.479,1.177,6.904,5.649   c-30.066-12.357-59.044-26.599-89.758-40.171c-14.79-6.536-29.558-13.2-44.565-20.086c-8.012-3.676-8.902-4.005-18.83-1.256   c-8.875,2.459-19.494,6.092-28.245,8.16c-22.224,5.253-38.083,9.559-57.747,15.692c-6.12,1.909-12.625,2.811-18.83,4.394   c-6.337,1.616-12.638,4.037-18.831,5.649c-17.389,4.526-33.58,8.722-51.469,13.181c-4.908,1.224-9.803,3.602-15.064,5.021   c-5.316,1.436-10.901,2.315-16.319,3.766c-10.27,2.751-20.228,7.199-30.129,8.16c0.784-3.565,5.491-4.245,8.16-5.021   c22.486-6.538,46.869-12.965,70.3-18.83c3.088-0.617,0.963-2.716,3.766-3.139c6.55-1.107,12.857-5.382,20.085-3.766   c45.547-13.455,92.447-25.557,138.716-38.288c-9.178-6.305-24.514-6.452-25.734-20.714c-24.238-10.765-48.032-20.695-73.438-32.011   c-3.521-1.568-7.322-4.662-10.042-5.021c-4.608-0.609-9.895,1.883-15.064,2.511c-19.259,2.338-40.675,3.485-59.629,6.277   c-2.28,0.335-4.695,1.048-6.904,1.255c-22.152,2.078-47.878,5.565-73.438,8.788c-4.108,0.518-9.092,1.583-13.182,0   c2.979-3.127,9.269-3.105,14.437-3.766c26.13-3.339,54.485-5.881,81.598-9.415c10.951-1.427,22.161-2.229,32.639-3.766   c1.742-0.255,3.74-0.188,5.021-1.883c9.424,1.164,20.047-1.638,29.501-2.511c-3.074-1.739-7.124-2.5-10.043-4.394   c-26.431,4.029-53.835,5.994-80.97,9.416c-26.966,3.4-53.982,6.469-80.343,8.16c3.186-3.871,8.945-2.696,13.181-3.139   c21.908-2.289,46.885-5.751,70.3-8.16c17.012-1.75,34.279-3.509,51.47-6.904c6.602,1.59,13.571-1.348,20.713-1.255   c-4.897-4.309-13.683-4.729-17.575-10.043c-12.729-5.584-29.044-12.316-43.31-18.83c-14.355-6.556-26.188-14.239-30.756-30.756   c28.845-5.982,48.921,11.268,71.555,17.575c-5.046-13.497-5.314-26.703-3.138-40.799c1.094-7.087,2.563-9.518,5.021-15.692   c1.346-3.38,1.82-7.3,3.138-10.042c1.655-3.444,5.593-8.24,8.788-12.554c6.495-8.771,16.481-18.293,29.501-19.458   c14.417-1.29,35.044,7.202,41.426,15.692c11.49,15.284,9.455,48.005-3.766,61.512c-2.388,2.439-9.669,7.491-16.947,7.532   c-10.903,0.062-16.405-7.162-25.735-10.043c-0.538-1.753-1.599-3.215-2.511-5.021c-9.603-19.029,4.861-51.395,30.128-40.799   C209.374,32.312,215.496,41.854,208.389,51.6z M167.59,7.035c-8.373,4.5-10.646,7.71-16.32,15.064   c-5.777,7.488-9.511,15.25-12.553,25.734c-3.003,10.347-5.366,21.648-4.394,32.64c0.48,5.424,3.3,10.514,3.139,13.181   c1.182,0.91,3.262,0.922,3.766,2.511c0.653,3.95,2.829,6.377,4.394,9.415c-1.058,1.846-2.821-1.958-3.766,0   c1.556,1.374,1.41,4.448,3.766,5.021c0.374-1.3-0.776-4.124,0.628-4.394c1.7,0.811,2.231,2.79,5.021,2.511   c-4.066-11.002-8.677-23.085-8.16-36.405c0.152-3.916,1.763-8.17,2.511-12.553c0.864-5.066,1.167-11.958,2.511-15.064   c7.508-17.364,19.06-32.571,34.522-38.916c1.984-0.814,4.402,0.139,5.649-2.511C178.596,2.745,173.284,3.974,167.59,7.035z    M217.804,17.078C215.267,14.87,216.323,19.097,217.804,17.078L217.804,17.078z M215.293,18.96c-1.169,0.601-2.098-1.88-2.51,0   C213.168,19.144,215.199,20.522,215.293,18.96z M219.06,22.099c-1.16,1.917-2.982-0.725-5.021,0   c-0.497,3.718,4.944-0.826,5.021,3.138c-0.774,1.907-2.159-0.681-3.767,0c0.816,6.125,2.328,12.371,1.884,19.458   c-0.686,10.927-4.708,23.35-10.043,28.873c-3.568,3.695-8.387,4.046-12.553,6.905c27.653,5.01,38.044-37.356,25.107-59.629   c-0.742-0.091-1.424-1.118-1.884,0C218.508,20.977,218.781,21.541,219.06,22.099z M170.728,57.249   c0.068,0.872,1.077,0.735,1.255,1.255c0.91,2.655-0.567,1.838,0.628,3.766c1.443,2.33,1.366,2.377,3.138,4.394   c2.3,2.616,3.952,5.906,6.277,7.532c-5.511-13.904-1.574-34.475,8.788-41.427c2.083-1.398,4.386-0.538,5.649-3.138   C180.972,25.317,169.714,44.15,170.728,57.249z M201.484,42.185c2.26,0.168,3.025-1.159,5.021-1.255   c0.788,2.817,1.035,5.399-1.883,6.904c4.159,1.41,4.953-4.906,4.394-8.16c-0.738-4.292-5.479-7.063-8.788-7.532   C201.098,35.04,201.813,38.09,201.484,42.185z M95.407,103.069c10.402,4.854,20.13,9.15,30.128,13.809   c4.533,2.112,10.857,4.348,15.064,6.904c2.123,1.29,3.427,3.661,5.649,5.021c2.512,1.538,6.468,3.1,9.415,4.394   c19.907,8.742,39.388,16.645,58.374,24.479c3.108,1.283,6.318,4.549,10.043,3.138c0.489,3.119,3.753,3.182,6.276,4.394   c2.681,1.288,5.547,3.084,8.16,3.138c4.634,0.095,10.945-4.027,16.319-6.277c6.108-2.557,12.202-3.797,15.692-6.904   c-11.247-4.655-23.476-8.327-33.895-13.809c-45.575,8.085-84.812-7.861-99.173-38.916c-23.614-6.096-38.952-20.468-69.044-20.086   C74.664,92.561,84.392,97.929,95.407,103.069z M174.494,130.687c10.845,2.665,26.871,5.729,39.544,2.511   c-18.872-7.909-38.398-15.164-57.747-22.596C160.265,119.391,167.825,124.593,174.494,130.687z M155.036,120.644   c0.51,0.512,2.652,4.706,3.139,1.883c-3.775-2.92-6.859-6.531-10.67-9.415C147.547,116.359,153.003,118.603,155.036,120.644z    M367.191,118.761c-11.666,1.135-27.661,2.757-41.427,4.394c-12.94,1.539-25.913,3.557-38.916,5.021   c-26.229,2.956-52.997,7.206-79.087,8.788c-6.897,0.418-13.8,0.282-20.713-1.255c1.19,2.862,4.984,2.526,7.532,3.139   c6.679,1.606,14.836,2.493,23.224,1.883c13.134-0.956,26.642-2.886,40.172-4.394c40.581-4.522,79.355-10.049,119.886-13.809   C375.77,119.808,370.371,120.394,367.191,118.761z M316.977,132.57c-22.413,3.42-45.505,5.209-67.789,7.532   c-2.552,0.266-5.373-1.211-7.532,1.256c8.297,2.751,17.563,6.939,25.107,10.042c2.869,1.18,6.382,2.919,8.788,3.139   c6.025,0.549,11.641-2.597,16.319,2.51c0.526,1.775,0.729,3.875,1.255,5.649c9.361-0.783,16.131,1.026,21.969,3.766   c2.909-1.903,7.079-2.546,11.926-2.511c-1.059,4.159,6.617-0.375,7.532,2.511c-3.164,0.615-8.159,2.704-11.298,1.255   c-0.304-1.977,2.877-0.47,3.139-1.883c-3.416-0.067-6.14,0.556-8.16,1.883c7.186,2.836,15.169,5.717,24.479,8.787   c7.885,2.601,20.917,10.608,28.245,8.16c4.758-19.303,8.191-39.931,11.926-60.257C361.16,126.861,336.394,129.607,316.977,132.57z    M162.568,126.921c0.464-1.391-2.313-2.586-2.511-1.255C160.986,125.992,161.64,126.594,162.568,126.921z M190.814,152.028   c-1.851-2.461-5.288-3.8-8.16-5.021c-3.008-1.28-6.367-2.396-9.416-3.766c-10.083-4.533-22.049-10.405-31.384-12.554   C157.691,138.284,173.717,145.691,190.814,152.028z M193.952,153.911c5.009,3.258,11.976,6.087,18.203,8.788   c6.425,2.786,13.168,5.454,19.458,8.16c11.443,4.923,21.957,11.07,32.639,15.064c0.748,0.279,4.117,2.912,4.394,0   c-2.169-2.087-5.358-3.828-8.159-5.021c-22.761-9.699-45.403-18.433-66.534-28.873c-0.627,0-1.255,0-1.883,0   C191.836,154.283,193.274,153.47,193.952,153.911z M283.082,156.422c-10.342,3.655-31.845,11.446-40.799,14.437   c6.766,2.44,12.666,5.747,19.458,8.16c4.133-10.722,16.984-12.725,28.873-15.692C290.853,159.876,286.675,155.152,283.082,156.422z    M276.178,170.231c6.361-1.171,13.38-1.685,18.203-4.394C287.146,166.134,280.891,167.411,276.178,170.231z M310.7,167.092   c-9.396-2.637-13.359,1.735-21.341,3.766c-9.517,2.422-23.418,0.081-24.479,9.415c8.393,4.579,17.95,7.994,26.99,11.926   c6.919-12.957,25.255-14.498,43.938-15.692C328.293,174.736,319.396,169.532,310.7,167.092z M274.923,199.732   c5.584,2.446,12.088,5.873,16.947,6.276c-1.619-1.102-1.305-4.136-1.883-6.276c-9.31-3.244-17.523-7.584-26.363-11.299   C264.716,194.587,269.918,197.54,274.923,199.732z"/>
</g>
<metadata><rdf:RDF><cc:Work><dc:format>image/svg+xml</dc:format><dc:type rdf:resource="http://purl.org/dc/dcmitype/StillImage"/><cc:license rdf:resource="http://creativecommons.org/licenses/publicdomain/"/><dc:publisher><cc:Agent rdf:about="http://openclipart.org/"><dc:title>Open Clip Art Library</dc:title></cc:Agent></dc:publisher><dc:title>cutting with a knife</dc:title><dc:date>2009-11-02T23:57:14</dc:date><dc:description>from "Wood-working Tools; How To USe Them - A Manual"&#13;\n&#13;\npublished by D.C.Heath &amp; Co. Publishers, 1896&#13;\n&#13;\nno author listed</dc:description><dc:source>http://openclipart.org/detail/28043/cutting-with-a-knife-by-johnny_automatic</dc:source><dc:creator><cc:Agent><dc:title>johnny_automatic</dc:title></cc:Agent></dc:creator><dc:subject><rdf:Bag><rdf:li>clip art</rdf:li><rdf:li>clipart</rdf:li><rdf:li>cutting</rdf:li><rdf:li>cutting</rdf:li><rdf:li>externalsource</rdf:li><rdf:li>image</rdf:li><rdf:li>knife</rdf:li><rdf:li>knife</rdf:li><rdf:li>media</rdf:li><rdf:li>public domain</rdf:li><rdf:li>svg</rdf:li><rdf:li>technique</rdf:li><rdf:li>technique</rdf:li><rdf:li>tool</rdf:li><rdf:li>tool</rdf:li><rdf:li>wood</rdf:li><rdf:li>wood</rdf:li><rdf:li>working</rdf:li><rdf:li>working</rdf:li></rdf:Bag></dc:subject></cc:Work><cc:License rdf:about="http://creativecommons.org/licenses/publicdomain/"><cc:permits rdf:resource="http://creativecommons.org/ns#Reproduction"/><cc:permits rdf:resource="http://creativecommons.org/ns#Distribution"/><cc:permits rdf:resource="http://creativecommons.org/ns#DerivativeWorks"/></cc:License></rdf:RDF></metadata></svg>
