<?xml version="1.0" encoding="UTF-8" standalone="no"?>
<svg
   xmlns:dc="http://purl.org/dc/elements/1.1/"
   xmlns:cc="http://creativecommons.org/ns#"
   xmlns:rdf="http://www.w3.org/1999/02/22-rdf-syntax-ns#"
   xmlns:svg="http://www.w3.org/2000/svg"
   xmlns="http://www.w3.org/2000/svg"
   viewBox="0 0 6377.9517 3687.9646"
   height="3687.9646"
   width="6377.9517"
   xml:space="preserve"
   version="1.1"
   id="svg8020"><metadata
     id="metadata8026"><rdf:RDF><cc:Work
         rdf:about=""><dc:format>image/svg+xml</dc:format><dc:type
           rdf:resource="http://purl.org/dc/dcmitype/StillImage" /><dc:title></dc:title></cc:Work></rdf:RDF></metadata><defs
     id="defs8024" /><g
     transform="matrix(1.25,0,0,-1.25,0,3687.9645)"
     id="g8028"><g
       id="g8030"><g
         transform="matrix(1,0,0,-0.971463,0,2950.3716)"
         id="g8032"><path
           id="path8034"
           style="fill:#eeb110;fill-opacity:1;fill-rule:nonzero;stroke:#000000;stroke-width:4.71091604;stroke-linecap:butt;stroke-linejoin:miter;stroke-miterlimit:4;stroke-dasharray:none;stroke-opacity:1"
           d="m 113.793,2.405 c 0,0 -110.086,-2.807 -110.387,110.243 -2.101,246.049 -0.476,2562.316 0,2811.023 -0.312,113.243 110.563,111.008 110.563,111.008 l 4874.422,0 c 0,0 110.879,2.235 110.566,-111.008 0.477,-248.707 2.102,-2564.974 0,-2811.023 C 5098.652,-0.402 4988.566,2.405 4988.566,2.405 2758.902,2.3 2379.391,2.392 113.793,2.405 Z" /></g><path
         id="path8036"
         style="fill:#000000;fill-opacity:1;fill-rule:evenodd;stroke:none"
         d="m 144.066,2905.055 c -86.984,-0.222 -97.644,-31.656 -97.152,-89.191 l 0,-2674.039 c -0.492,-57.539 8.566,-96.223 95.551,-96.446 1605.812,0.582 3211.621,0.266 4817.43,0 86.988,0.223 96.046,38.907 95.554,96.446 l 0,2674.039 c 0.492,57.535 -10.168,88.969 -97.152,89.191 -1604.746,-1.582 -3209.488,-0.719 -4814.231,0 z m -0.769,-53.625 c 1606.055,-2.121 3209.641,-0.734 4815.769,0 38.469,-0.133 39.36,-2.109 39.446,-34.402 l 0,-2685.559 c -0.086,-33.535 0.558,-33.238 -37.848,-32.863 -1601.48,0.762 -3380.187,0.262 -4818.961,-0.008 -38.406,-0.371 -37.762,-0.668 -37.848,32.863 l 0,2685.563 c 0.086,32.289 0.973,34.269 39.446,34.402 l -0.004,0 0,0 z" /><path
         id="path8038"
         style="fill:#000000;fill-opacity:1;fill-rule:nonzero;stroke:none"
         d="m 4398.977,1240.317 88.742,305.316 -55.531,0 0,-40.664 -44.59,0 0,88.242 150.679,0 0,-50.558 -85.773,-302.336 -53.527,0" /><path
         id="path8040"
         style="fill:#000000;fill-opacity:1;fill-rule:nonzero;stroke:none"
         d="m 501.633,1947.387 c -41.914,0 -75.676,-34.98 -75.676,-78.426 l 0,-327.234 c 0,-43.445 33.762,-78.426 75.676,-78.426 l 650.344,0 c 41.914,0 75.543,34.981 75.543,78.426 l 0,327.234 c 0,43.446 -33.629,78.426 -75.543,78.426 l -650.344,0 z m 0,-30.469 650.344,0 c 25.621,0 46.148,-21.398 46.148,-47.957 l 0,-327.234 c 0,-26.555 -20.527,-47.957 -46.148,-47.957 l -650.344,0 c -25.61,0 -46.281,21.402 -46.281,47.957 l 0,327.234 c 0,26.559 20.671,47.957 46.281,47.957 z" /><path
         id="path8042"
         style="fill:#000000;fill-opacity:1;fill-rule:nonzero;stroke:none"
         d="m 4079.898,1240.743 0,299.125 -50.515,-37.145 0,53.488 50.515,37.141 50.512,0 0,-352.609 -50.512,0 z" /><path
         id="path8044"
         style="fill:#000000;fill-opacity:1;fill-rule:nonzero;stroke:none"
         d="m 4203.754,1313.543 0,207.012 c 0,23.442 7.43,41.93 22.285,55.465 15.188,13.535 32.852,20.305 52.992,20.305 20.137,0 37.637,-6.77 52.496,-20.305 15.188,-13.535 22.778,-32.023 22.778,-55.465 l 0,-207.012 c 0,-23.441 -7.59,-41.929 -22.778,-55.468 -14.859,-13.207 -32.359,-19.809 -52.496,-19.809 -20.14,0 -37.804,6.602 -52.992,19.809 -14.855,13.539 -22.285,32.027 -22.285,55.468 z m 50.516,207.012 0,-207.012 c 0,-7.265 2.308,-13.371 6.933,-18.324 4.621,-4.621 10.563,-6.933 17.828,-6.933 7.262,0 13.207,2.312 17.828,6.933 4.621,4.953 6.934,11.059 6.934,18.324 l 0,207.012 c 0,7.262 -2.313,13.203 -6.934,17.828 -4.621,4.953 -10.566,7.426 -17.828,7.426 -7.265,0 -13.207,-2.473 -17.828,-7.426 -4.625,-4.625 -6.933,-10.566 -6.933,-17.828 z" /><path
         id="path8046"
         style="fill:#000000;fill-opacity:1;fill-rule:nonzero;stroke:none"
         d="m 809.406,1526.833 0,299.128 -50.515,-37.144 0,53.484 50.515,37.145 50.512,0 0,-352.613 -50.512,0 z" /><path
         id="path8048"
         style="fill:#000000;fill-opacity:1;fill-rule:nonzero;stroke:none"
         d="m 3959.406,1658.821 c -41.914,0 -75.672,-34.981 -75.672,-78.426 l 0,-327.234 c 0,-43.446 33.758,-78.426 75.672,-78.426 l 650.348,0 c 41.914,0 75.543,34.98 75.543,78.426 l 0,327.234 c 0,43.445 -33.629,78.426 -75.543,78.426 l -650.348,0 z m 0,-30.469 650.348,0 c 25.617,0 46.148,-21.398 46.148,-47.957 l 0,-327.234 c 0,-26.555 -20.531,-47.957 -46.148,-47.957 l -650.348,0 c -25.605,0 -46.277,21.402 -46.277,47.957 l 0,327.234 c 0,26.559 20.672,47.957 46.277,47.957 z" /><path
         id="path8050"
         style="fill:#000000;fill-opacity:1;fill-rule:nonzero;stroke:none"
         d="m 1509.215,1958.215 60.254,-566.914 c -0.332,-5.265 0.195,-10.168 1.554,-14.84 l -0.187,-0.574 c 1.434,-10.469 5.473,-18.762 10.543,-24.847 25.031,-30.063 51.742,-32.586 81.004,-8.219 17.816,22.277 31.281,51.152 46.004,76.664 l 1.164,1.961 431.429,-533.805 0,-622.074 368.165,0 0,596.855 c 255.414,90.891 587.855,209.172 791.378,281.438 l 7.325,-91.395 c -0.887,-3.531 0.039,-8.445 2.132,-14.043 12.09,-32.328 31.86,-42.843 59.571,-32.48 10.199,3.816 17.488,9.742 22.332,19.031 l 316.375,393.356 -497.731,100.64 c -3.425,0.699 -6.703,1 -9.808,0.977 -5.176,-0.043 -9.871,-0.988 -13.961,-2.516 -32.336,-12.097 -42.219,-33.609 -30.445,-65.086 1.718,-4.601 4.054,-8.066 6.898,-10.074 l 55.898,-74.711 c -204.457,-74.148 -531.918,-184.914 -777.921,-267.223 l -445.25,550.899 c 33.125,9.801 63.265,12.723 84.488,29.246 29.867,23.625 32.894,50.281 8.621,80.965 -4.914,6.211 -12.195,11.871 -22.149,15.429 l -557.683,181.34 z" /><path
         id="path8052"
         style="fill:#000000;fill-opacity:1;fill-rule:nonzero;stroke:none"
         d="m 2809.617,2114.598 0,298.988 59.571,0 0,-11.226 c 41.953,23.48 88.175,19.871 121.027,4.062 l -40.504,-48.273 c -6.594,2.32 -13.813,3.48 -21.66,3.48 -17.043,0 -31.172,-5.144 -42.321,-15.476 -11.027,-10.528 -16.542,-24.969 -16.542,-43.348 l 0,-188.207 -59.571,0 z" /><path
         id="path8054"
         style="fill:#000000;fill-opacity:1;fill-rule:nonzero;stroke:none"
         d="m 2725.254,2415.321 0,-300.578 -59.543,0 0,11.215 c -53.168,-29.77 -113.258,-16.016 -144.199,10.972 -21.856,18.403 -32.172,38.52 -32.172,69.52 l 0,208.871 59.375,0 0,-189.824 c 0,-18.379 5.64,-32.821 16.836,-43.325 11.027,-10.336 24.762,-15.472 41.304,-15.472 17.036,0 31.165,5.136 42.313,15.472 11.027,10.504 16.543,24.946 16.543,43.325 l 0,189.824 59.543,0 z" /><path
         id="path8056"
         style="fill:#000000;fill-opacity:1;fill-rule:nonzero;stroke:none"
         d="m 1930.137,2241.641 c 0,-24.918 6.754,-43.465 20.168,-55.738 13.461,-12.258 30.672,-18.379 51.668,-18.379 11.468,0 22.933,2.582 34.41,7.723 11.844,5.144 22.328,12.23 31.406,21.304 l 43.941,-37.363 c -15.042,-17.371 -31.851,-29.844 -50.437,-37.348 -18.605,-7.523 -37.984,-11.238 -58.141,-11.238 -15.433,0 -31.062,2.156 -46.894,6.516 -15.828,4.324 -30.254,12.226 -43.348,23.691 -12.652,11.488 -23.09,27.082 -31.43,46.887 -7.929,19.781 -11.839,45.094 -11.839,75.894 0,29.274 3.734,53.801 11.246,73.551 7.504,19.781 17.203,35.574 29.093,47.461 11.868,12.246 25.129,20.934 39.708,26.074 14.667,5.145 29.339,7.727 43.957,7.727 16.593,0 32.449,-2.981 47.492,-8.906 15.008,-5.907 28.086,-14.414 39.16,-25.489 11.469,-11.07 20.551,-24.527 27.297,-40.324 6.746,-15.422 10.094,-32.836 10.094,-52.203 l 0,-49.84 -187.551,0 z m 127,49.84 c -0.789,22.957 -7.114,40.301 -18.985,52.203 -11.863,11.832 -26.726,17.793 -44.507,17.793 -17.821,0 -32.661,-5.961 -44.5,-17.793 -11.891,-11.902 -18.219,-29.246 -19.008,-52.203 l 127,0 z" /><path
         id="path8058"
         style="fill:#000000;fill-opacity:1;fill-rule:nonzero;stroke:none"
         d="m 1791.652,2544.93 c 0.051,-140.273 0,-290.89 0,-430.769 l -60.207,0 0.121,11.172 c -87.582,-37.219 -158.793,3.101 -159.8,80.492 -0.149,39.609 -0.618,81.777 -0.618,120.082 3.618,88.633 98.559,109.543 160.321,77.363 0,5.859 0.195,129.359 0.195,141.73 l 59.988,-0.046 0,-0.024 z m -110.941,-182.347 c -42.438,-0.219 -49.895,-32.868 -50.215,-58.821 -0.195,-31.539 0.692,-53.457 0.692,-78.89 0.859,-31.641 6.593,-58.653 50.042,-58.731 43.469,-0.043 50.536,32.133 50.438,58.676 -0.102,34.047 -0.102,44.656 -0.223,78.945 -0.074,28.094 -8.297,59.09 -50.734,58.821 z" /><path
         id="path8060"
         style="fill:#000000;fill-opacity:1;fill-rule:nonzero;stroke:none"
         d="m 1369.762,2418.063 c -80.992,0.379 -114.653,-50.559 -115.223,-97.219 -0.098,-39.511 -0.789,-75.105 -0.789,-113.386 0,-30.852 10.34,-50.922 32.172,-69.297 30.844,-26.895 90.832,-40.446 143.879,-10.879 l -0.196,-8.606 c -0.914,-39.015 -18.117,-73.535 -67.472,-73.535 -28.703,0 -44.899,8.762 -63.238,26.008 l -37.266,-37.445 c 30.449,-28.094 58.609,-38.375 102.816,-38.375 77.489,0 125.172,52.203 125.172,123.347 0.465,95.821 0.321,199.09 0.367,295.254 l -59.445,0 0,-12.668 c -19.891,11.145 -40.812,16.262 -60.777,16.801 z m 1.945,-57.465 c 16.984,0 31.238,-5.191 42.414,-15.476 11,-10.477 16.418,-24.817 16.418,-43.196 0.887,-25.976 0.887,-41.527 -0.566,-75.328 0,-18.351 -5.442,-32.695 -16.418,-43.176 -11.176,-10.277 -25.231,-15.668 -42.266,-15.668 -16.492,0 -30.25,5.391 -41.254,15.668 -11.152,10.481 -16.789,24.825 -16.789,43.176 -0.223,31.414 0.543,49.988 0.543,75.328 0,18.379 5.66,32.719 16.836,43.196 10.977,10.285 24.59,15.476 41.082,15.476 z" /><path
         id="path8062"
         style="fill:#000000;fill-opacity:1;fill-rule:nonzero;stroke:none"
         d="m 427.156,2544.606 0,-0.09 -0.312,0 0,-428.922 64.398,0 0,327.844 141.848,-174.762 c 0,0 76.301,96.653 141.68,174.567 l 0,-327.649 64.402,0 c -0.539,142.906 0.461,286.481 0.461,429.012 l -61.641,0 -144.902,-173.609 -144.902,173.609 -61.032,0 z" /><path
         id="path8064"
         style="fill:#000000;fill-opacity:1;fill-rule:nonzero;stroke:none"
         d="m 2190.871,2544.93 c -0.051,-140.273 0,-290.89 0,-430.769 l 60.211,0 -0.125,11.172 c 87.582,-37.219 158.797,3.101 159.805,80.492 0.148,39.609 0.617,81.777 0.617,120.082 -3.621,88.633 -98.563,109.543 -160.32,77.363 0,5.859 -0.2,129.359 -0.2,141.73 l -59.988,-0.046 0,-0.024 z m 110.942,-182.347 c 42.437,-0.219 49.898,-32.868 50.218,-58.821 0.196,-31.539 -0.691,-53.457 -0.691,-78.89 -0.86,-31.641 -6.598,-58.653 -50.043,-58.731 -43.473,-0.043 -50.535,32.133 -50.438,58.676 0.098,34.047 0.098,44.656 0.223,78.945 0.074,28.094 8.297,59.09 50.731,58.821 z" /><path
         id="path8066"
         style="fill:#000000;fill-opacity:1;fill-rule:nonzero;stroke:none"
         d="m 3116.992,2418.364 c -80.996,0.379 -114.656,-50.559 -115.226,-97.219 -0.098,-39.512 -0.786,-75.105 -0.786,-113.387 0,-30.851 10.336,-50.922 32.172,-69.297 30.844,-26.894 90.832,-40.445 143.875,-10.878 l -0.195,-8.606 c -0.91,-39.019 -18.117,-73.535 -67.473,-73.535 -28.699,0 -44.898,8.762 -63.234,26.004 l -37.27,-37.442 c 30.45,-28.093 58.61,-38.375 102.821,-38.375 77.488,0 125.168,52.204 125.168,123.348 0.469,95.816 0.32,199.09 0.371,295.254 l -59.449,0 0,-12.668 c -19.887,11.145 -40.809,16.258 -60.774,16.801 z m 1.946,-57.469 c 16.984,0 31.234,-5.187 42.41,-15.473 11.004,-10.48 16.418,-24.816 16.418,-43.195 0.886,-25.977 0.886,-41.527 -0.567,-75.328 0,-18.352 -5.437,-32.699 -16.418,-43.176 -11.172,-10.277 -25.23,-15.668 -42.261,-15.668 -16.493,0 -30.254,5.391 -41.258,15.668 -11.149,10.477 -16.785,24.824 -16.785,43.176 -0.223,31.414 0.539,49.988 0.539,75.328 0,18.379 5.664,32.715 16.836,43.195 10.98,10.286 24.593,15.473 41.086,15.473 z" /><path
         id="path8068"
         style="fill:#000000;fill-opacity:1;fill-rule:nonzero;stroke:none"
         d="m 3783.254,369.926 0,300.578 59.547,0 0,-11.214 c 53.168,29.769 113.254,16.011 144.195,-10.973 21.859,-18.402 32.172,-38.524 32.172,-69.524 l 0,-208.867 -59.371,0 0,189.824 c 0,18.379 -5.645,32.817 -16.836,43.321 -11.031,10.336 -24.766,15.476 -41.305,15.476 -17.035,0 -31.164,-5.14 -42.316,-15.476 -11.027,-10.504 -16.539,-24.942 -16.539,-43.321 l 0,-189.824 -59.547,0 z" /><path
         id="path8070"
         style="fill:#000000;fill-opacity:1;fill-rule:nonzero;stroke:none"
         d="m 3515.586,498.844 c 0,-24.918 6.75,-43.465 20.164,-55.738 13.465,-12.258 30.672,-18.379 51.668,-18.379 11.469,0 22.937,2.582 34.414,7.723 11.84,5.148 22.328,12.23 31.406,21.304 l 43.938,-37.363 c -15.039,-17.367 -31.852,-29.844 -50.438,-37.348 -18.605,-7.523 -37.984,-11.238 -58.14,-11.238 -15.434,0 -31.063,2.156 -46.891,6.516 -15.828,4.328 -30.254,12.226 -43.348,23.691 -12.652,11.488 -23.089,27.082 -31.433,46.887 -7.93,19.781 -11.84,45.094 -11.84,75.894 0,29.274 3.738,53.805 11.246,73.551 7.504,19.781 17.203,35.578 29.098,47.461 11.863,12.25 25.129,20.934 39.703,26.074 14.672,5.145 29.344,7.727 43.961,7.727 16.594,0 32.445,-2.981 47.488,-8.906 15.012,-5.907 28.086,-14.414 39.16,-25.489 11.473,-11.07 20.555,-24.527 27.301,-40.324 6.742,-15.422 10.09,-32.836 10.09,-52.199 l 0,-49.844 -187.547,0 z m 126.996,49.844 c -0.785,22.953 -7.113,40.297 -18.98,52.199 -11.864,11.836 -26.731,17.793 -44.508,17.793 -17.821,0 -32.66,-5.957 -44.5,-17.793 -11.891,-11.902 -18.219,-29.246 -19.008,-52.199 l 126.996,0 z" /><path
         id="path8072"
         style="fill:#000000;fill-opacity:1;fill-rule:nonzero;stroke:none"
         d="m 4324.215,784.512 c 0.051,-140.277 0,-274.89 0,-414.769 l -60.207,0 0.121,11.172 c -87.582,-37.219 -158.793,3.097 -159.805,80.492 -0.144,39.605 -0.613,81.773 -0.613,120.078 3.617,88.633 98.559,109.543 160.32,77.367 0,5.856 0.196,113.359 0.196,125.727 l 59.988,-0.043 0,-0.028 0,0.004 z M 4213.273,618.161 c -42.437,-0.219 -49.894,-32.868 -50.214,-58.821 -0.196,-31.535 0.687,-53.453 0.687,-78.89 0.863,-31.641 6.598,-58.653 50.043,-58.727 43.473,-0.047 50.539,32.129 50.438,58.676 -0.098,34.047 -0.098,44.652 -0.219,78.941 -0.074,28.094 -8.297,59.094 -50.735,58.821 z" /><path
         id="path8074"
         style="fill:#000000;fill-opacity:1;fill-rule:nonzero;stroke:none"
         d="m 4507.555,673.02 c -1.203,0.008 -2.41,0 -3.625,-0.016 -64.66,-1.261 -102.36,-49.39 -102.36,-49.39 l 39.879,-44.492 c 0,0 32.176,33.66 65.477,33.203 60.726,-0.407 65.07,-33.203 65.765,-53.063 l 0,-0.121 c -36.238,5.516 -64.253,3.746 -75.554,1.668 -6.739,-1.297 -25.239,-4.394 -44.84,-14.66 -92.27,-52.59 -57.418,-179.707 53.043,-180.559 32.047,-0.183 58.183,5.684 83.574,25.547 17.133,-17.429 38.563,-21.441 59.918,-21.527 l 26.246,0 0,55.992 -20.414,0 c -14.777,0 -22.164,6.805 -22.164,20.414 -0.246,39.813 0.414,75.633 -0.246,114.32 -0.852,78.231 -49.039,112.387 -124.699,112.684 z m 27.023,-167.543 c 11.711,-0.078 25.453,-1.219 38.086,-4.559 -0.082,-17.031 -0.082,-20.96 -0.082,-27.21 l 0.027,0 c 0,-17.2 -10.382,-26.786 -20.488,-33.258 -9.789,-6.68 -29.281,-10.293 -46.781,-10.293 -46.594,0.808 -58.516,45.996 -23.168,65.265 9.519,4.903 20.605,7.196 26.508,8.243 4.504,0.902 14.183,1.886 25.898,1.812 z" /><path
         id="path8076"
         style="fill:#000000;fill-opacity:1;fill-rule:nonzero;stroke:none"
         d="m 2912.965,472 c 15.941,-12.445 34.023,-22.554 54.242,-30.328 20.219,-7.39 41.41,-11.082 63.574,-11.082 25.664,0 45.688,5.246 60.074,15.746 14.778,10.5 22.165,24.497 22.165,41.997 0,14.773 -4.469,27.214 -13.415,37.328 -8.554,10.109 -22.164,16.328 -40.828,18.664 -9.332,1.164 -18.082,2.332 -26.246,3.496 -8.164,1.168 -17.691,2.527 -28.578,4.086 -36.164,5.054 -63.574,18.078 -82.238,39.078 -18.664,21.383 -27.996,47.242 -27.996,77.57 0,17.887 2.914,34.219 8.746,48.992 6.223,14.778 15.164,27.414 26.832,37.914 11.664,10.887 25.855,19.247 42.578,25.079 16.719,6.222 35.77,9.332 57.156,9.332 25.664,0 49.774,-4.082 72.324,-12.247 22.551,-8.167 43.356,-18.472 62.407,-30.914 l -34.992,-51.91 c -15.165,9.723 -31.497,17.5 -48.997,23.332 -17.105,5.832 -34.992,8.746 -53.656,8.746 -19.441,0 -35.969,-5.054 -49.578,-15.164 -13.219,-9.718 -19.832,-24.496 -19.832,-44.324 0,-11.668 4.473,-22.75 13.418,-33.246 9.332,-10.109 24.496,-16.723 45.492,-19.832 5.446,-0.777 12.055,-1.75 19.832,-2.914 7.774,-1.168 16.719,-2.336 26.828,-3.5 19.442,-2.336 36.161,-7.195 50.161,-14.582 14.386,-7.387 26.246,-16.527 35.578,-27.414 9.332,-10.887 16.332,-23.137 20.996,-36.746 4.668,-13.219 7,-26.828 7,-40.824 0,-38.497 -13.219,-68.243 -39.66,-89.239 -26.055,-21 -61.438,-31.496 -106.153,-31.496 -30.719,0 -59.297,4.664 -85.738,13.996 -26.441,9.332 -50.742,23.719 -72.906,43.16 l 41.41,47.246 z" /><path
         id="path8078"
         style="fill:#000000;fill-opacity:1;fill-rule:nonzero;stroke:none"
         d="m 3277.418,785.825 59.492,0 0,-115.422 60.758,0 0,-50.293 -60.758,0 0,-172.059 c 0,-8.168 1.555,-14 4.664,-17.5 3.5,-3.109 8.946,-4.664 16.332,-4.664 l 22.164,0 0,-55.992 -30.914,0 c -20.996,0 -38.301,6.223 -51.91,18.664 -13.219,12.832 -19.828,30.91 -19.828,54.242 l 0,177.309 -55.348,0 0,50.293 55.348,0 0,115.422 z" /><path
         id="path8080"
         style="fill:#000000;fill-opacity:1;fill-rule:nonzero;stroke:none"
         d="m 4728.207,784.887 59.492,0 0,-338.871 c 0,-13.609 7.387,-20.414 22.164,-20.414 l 20.414,0 0,-55.992 -26.246,0 c -10.886,0 -20.996,1.168 -30.328,3.5 -8.945,2.723 -16.914,6.805 -23.914,12.246 -6.609,5.836 -11.859,13.223 -15.75,22.164 -3.887,9.332 -5.832,20.609 -5.832,33.832 l 0,343.535 z" /><path
         id="path8082"
         style="fill:#000000;fill-opacity:1;fill-rule:nonzero;stroke:none"
         d="m 1029.063,2418.286 c -1.2,0.011 -2.407,0 -3.622,-0.012 -64.664,-1.266 -102.359,-49.395 -102.359,-49.395 l 39.879,-44.492 c 0,0 32.176,33.66 65.477,33.207 60.722,-0.41 65.066,-33.207 65.765,-53.066 l 0,-0.121 c -36.242,5.515 -64.258,3.746 -75.555,1.668 -6.738,-1.297 -25.238,-4.395 -44.843,-14.66 -92.27,-52.586 -57.414,-179.707 53.043,-180.559 32.047,-0.184 58.183,5.684 83.578,25.547 17.133,-17.43 38.562,-21.442 59.914,-21.528 l 26.246,0 0,55.993 -20.414,0 c -14.774,0 -22.16,6.804 -22.16,20.414 -0.25,39.812 0.41,75.633 -0.25,114.32 -0.848,78.231 -49.039,112.387 -124.699,112.684 z m 27.023,-167.543 c 11.715,-0.078 25.457,-1.219 38.09,-4.559 -0.082,-17.031 -0.086,-20.961 -0.086,-27.211 l 0.027,0 c 0,-17.199 -10.379,-26.785 -20.484,-33.258 -9.789,-6.679 -29.285,-10.293 -46.785,-10.293 -46.594,0.809 -58.516,45.996 -23.164,65.266 9.519,4.902 20.601,7.195 26.504,8.242 4.503,0.906 14.187,1.887 25.898,1.813 z" /></g></g></svg>