<svg width="720" height="264" viewBox="0 0 720 264" xmlns="http://www.w3.org/2000/svg" xmlns:xlink="http://www.w3.org/1999/xlink"><title></title><defs><path id="a" d="M0 0l720 131.613L0 263.227z"/></defs><g fill="none" fill-rule="evenodd"><mask id="b" fill="#fff"><use xlink:href="#a"/></mask><use fill="#009B97" xlink:href="#a"/><g opacity=".06" mask="url(#b)" fill="#000"><path d="M346.296 46.354c-3.693.69-6.047 4.08-7.456 7.292-4.74 10.818-4.582 24.105-4.122 35.665.428 10.764 1.542 22.27 5.37 32.517-1.144 2.157-2.559 4.034-4.398 5.305-3.83 2.646-7.638-1.435-10.615-6.477.325-1.245.593-2.405.811-3.412 2.853-13.117 2.6-27.261.872-40.481-.78-5.937-1.803-14.39-6.838-18.458-3.699-2.986-8.358-1.655-10.527 2.349-2.543 4.7-2.503 10.884-2.382 16.065.184 7.868 1.532 15.756 3.464 23.37 1.262 4.96 3.965 14.136 8.09 21.7-1.669 5.485-4.363 10.567-8.49 8.28-3.43-1.895-5.7-5.833-7.789-8.965-.094-.142-.186-.287-.28-.43.023-3.283.097-6.583.153-9.913.127-7.735-.116-15.928-2.479-23.363-1.85-5.831-6.99-12.145-13.598-8.48-6.657 3.694-4.78 13.278-2.876 19.07 2.622 8.022 7.016 15.478 11.486 22.577.343.545.696 1.118 1.055 1.702-.033 2.42-.023 4.843.09 7.26.921 19.404 7.61 37.84 17.437 54.443 2.473 4.166 5.401 8.08 7.47 12.469 2.358 5.012 3.395 10.766 3.963 16.232.463 4.466.49 8.976.293 13.455a81.037 81.037 0 0 1-.293 4.086c-.034.4-.356 2.975-.123 1.282-.529 3.839 5.336 5.494 5.873 1.62 1.747-12.664 1.148-26.94-4.019-38.748-3.274-7.485-8.52-14.115-12.307-21.372a113.254 113.254 0 0 1-9.995-27.275c-1.084-4.774-1.633-9.52-1.905-14.268 2.241 2.438 4.828 4.398 7.933 5.172 6.105 1.519 9.976-3.164 12.436-8.695 4.318 5.298 9.708 8.07 16.16 4.463 1.795-1.004 3.233-2.404 4.44-4.03 2.168 3.262 5.27 5.762 9.288 6.573 1.927.39 3.773.25 5.53-.241 1.2 9.498 4.926 18.233 13.845 23.71.942.579 1.974 1.092 3.04 1.563-3.357 5.545-6.038 11.477-8.186 16.812-6.975 17.327-9.68 36.362-10.027 54.946-.166 8.859.176 17.904 1.602 26.668.625 3.867 6.492 2.224 5.868-1.618-2.078-12.77-1.778-27.265-.498-40.458 1.788-18.495 6.67-38.625 17.355-54.384 9.33 1.999 20.25.243 25.676-7.333 2.614-3.643 1.88-9.008-1.19-12.12-2.94-2.981-7.6-2.596-11.156-1.15-6.452 2.626-11.698 7.603-16.007 13.477-4.577-1.827-8.562-5.07-11.09-9.363-2.38-4.042-3.179-8.986-3.463-13.77 2.221-1.696 4.182-3.8 5.815-5.84 9.431-11.775 17.46-29.235 14.782-44.554-.737-4.225-5.117-11.408-10.405-9.198-3.827 1.6-5.853 5.933-7.438 9.495-5.685 12.735-8.29 27.28-8.914 41.14a82.264 82.264 0 0 0-.07 5.553c-2.663 1.115-5.513.992-8.15-1.693-1.216-1.24-2.127-2.826-2.86-4.534 1.02-2.59 1.812-5.273 2.601-7.676 2.411-7.32 4.385-14.785 6.04-22.306 1.654-7.52 2.922-15.181 3.382-22.88.34-5.724.155-11.728-2.174-17.05-1.493-3.404-4.9-5.915-8.602-5.915a8.04 8.04 0 0 0-1.498.139m-5.398 28.217c.315-5.602 1.008-11.262 2.761-16.612.807-2.451 2.542-5.974 4.401-5.668 4.075.67 4.315 7.5 4.481 10.563.381 7.307-.74 14.702-2.06 21.863-1.439 7.808-3.408 15.524-5.673 23.132-.384 1.287-.765 2.722-1.175 4.21-2.845-12.17-3.44-25.082-2.735-37.488m-22.416-7.362c3.184 8.674 3.262 18.7 3.262 27.822.002 5.502-.277 12.212-.988 16.68-.41-1.001-.742-1.854-.984-2.471-3.055-7.84-5.039-16.196-6.067-24.541-.76-6.168-1.249-12.874.258-18.971.266-1.091 1.28-2.996 1.265-2.992 1.453-.54 2.894 3.5 3.254 4.473m47.484 37.29c1.302-6.586 3.091-13.137 5.623-19.37.824-2.028 1.846-4.01 3.067-5.831.32-.488.715-.91 1.138-1.305 2.825 1.528 2.99 6.093 3.037 8.829.086 4.764-1.058 9.524-2.518 14.034-2.356 7.247-6.396 14.415-10.9 20.522a31.396 31.396 0 0 1-1.738 2.14c.19-6.387 1.061-12.757 2.291-19.018m-75.85-20.644c-.267.052.604.143.975.448 3.315 2.764 3.936 8.864 4.411 12.824.554 4.608.593 9.223.507 13.843a163.477 163.477 0 0 1-2.242-4.033c-2.785-5.21-5.682-11.103-6.217-17.085-.139-1.57-.079-2.69.323-3.997.057-.178.135-.403.501-.987-.086.139.098-.033.253-.206.172-.19.311-.377.03-.16 1.071-.827.35-.424 1.46-.647M385.7 156.44c-.17-.008-.336-.027-.504-.041.367-.442.714-.897 1.094-1.33 3.05-3.487 7.628-8.205 12.56-8.748 2.837-.317 4.321 2.426 2.588 5.204-2.527 4.054-9 4.968-13.769 4.968-.699 0-1.36-.02-1.969-.053M34.46-132.08c-3.693.691-6.047 4.08-7.456 7.292-4.741 10.818-4.582 24.105-4.122 35.665.428 10.764 1.542 22.271 5.37 32.517-1.144 2.157-2.56 4.034-4.398 5.305-3.83 2.646-7.638-1.435-10.615-6.478.325-1.244.593-2.404.81-3.41 2.854-13.118 2.6-27.262.873-40.482-.78-5.937-1.803-14.389-6.838-18.458-3.7-2.986-8.358-1.655-10.527 2.35-2.543 4.7-2.503 10.883-2.382 16.064.184 7.868 1.532 15.756 3.464 23.371 1.262 4.96 3.965 14.135 8.089 21.7-1.668 5.484-4.362 10.566-8.49 8.28-3.43-1.896-5.7-5.834-7.788-8.966-.094-.142-.186-.287-.281-.429.024-3.284.098-6.584.154-9.914.127-7.735-.116-15.928-2.48-23.363-1.85-5.83-6.99-12.145-13.597-8.479-6.657 3.693-4.78 13.277-2.876 19.07 2.622 8.021 7.016 15.477 11.486 22.576.343.545.696 1.118 1.055 1.702-.033 2.421-.023 4.843.09 7.261.92 19.403 7.609 37.84 17.437 54.442 2.473 4.166 5.4 8.08 7.47 12.47 2.358 5.011 3.395 10.765 3.963 16.231.463 4.466.489 8.976.293 13.455a81.037 81.037 0 0 1-.293 4.086c-.034.4-.356 2.975-.123 1.282-.53 3.84 5.336 5.494 5.873 1.621 1.747-12.665 1.148-26.94-4.02-38.749C11.329 8.447 6.082 1.817 2.296-5.44A113.254 113.254 0 0 1-7.7-32.715c-1.084-4.774-1.633-9.519-1.905-14.268 2.24 2.438 4.828 4.398 7.933 5.172 6.105 1.52 9.976-3.164 12.436-8.695 4.318 5.298 9.708 8.071 16.16 4.463 1.795-1.004 3.233-2.404 4.44-4.03 2.168 3.262 5.269 5.762 9.288 6.573 1.927.391 3.773.251 5.529-.24 1.2 9.497 4.927 18.232 13.846 23.71.942.578 1.974 1.091 3.04 1.562C59.71-12.923 57.029-6.99 54.88-1.656 47.906 15.671 45.2 34.706 44.854 53.29c-.166 8.86.176 17.904 1.602 26.668.625 3.867 6.492 2.224 5.868-1.618-2.078-12.769-1.778-27.265-.498-40.458 1.788-18.495 6.67-38.625 17.355-54.384 9.33 2 20.25.243 25.676-7.333 2.614-3.643 1.88-9.008-1.191-12.119-2.94-2.982-7.6-2.597-11.155-1.15-6.452 2.625-11.698 7.602-16.007 13.476-4.577-1.827-8.562-5.069-11.09-9.363-2.38-4.042-3.18-8.986-3.463-13.769 2.22-1.697 4.182-3.8 5.815-5.84 9.43-11.776 17.459-29.236 14.782-44.555-.737-4.225-5.117-11.408-10.405-9.198-3.827 1.6-5.853 5.933-7.44 9.495-5.684 12.735-8.288 27.281-8.912 41.14a82.264 82.264 0 0 0-.071 5.553c-2.662 1.115-5.512.992-8.15-1.693-1.215-1.239-2.126-2.826-2.86-4.534 1.02-2.59 1.812-5.273 2.602-7.676 2.41-7.319 4.385-14.785 6.039-22.306 1.655-7.519 2.923-15.18 3.383-22.879.339-5.725.155-11.729-2.174-17.05-1.493-3.405-4.901-5.916-8.602-5.916a8.04 8.04 0 0 0-1.498.14m-5.398 28.216c.315-5.602 1.008-11.262 2.76-16.612.808-2.45 2.543-5.974 4.402-5.668 4.075.67 4.315 7.5 4.48 10.563.382 7.307-.74 14.703-2.06 21.863-1.438 7.808-3.407 15.524-5.672 23.132-.384 1.287-.765 2.722-1.175 4.211-2.845-12.17-3.44-25.083-2.735-37.489m-22.416-7.362c3.184 8.674 3.262 18.701 3.262 27.822C9.91-77.9 9.63-71.19 8.92-66.722c-.411-1.002-.742-1.855-.984-2.472-3.055-7.839-5.04-16.196-6.067-24.54-.76-6.169-1.25-12.875.258-18.972.266-1.09 1.28-2.996 1.265-2.992 1.453-.539 2.894 3.5 3.254 4.473M54.13-73.934c1.302-6.587 3.09-13.138 5.623-19.37.823-2.029 1.846-4.01 3.067-5.832.32-.488.715-.909 1.138-1.305 2.826 1.528 2.99 6.093 3.037 8.83.086 4.763-1.058 9.523-2.518 14.033-2.356 7.247-6.396 14.415-10.901 20.522a31.396 31.396 0 0 1-1.737 2.14c.19-6.387 1.06-12.757 2.29-19.018m-75.85-20.644c-.266.052.605.143.976.448 3.315 2.764 3.936 8.864 4.41 12.824.555 4.608.594 9.223.508 13.843a163.477 163.477 0 0 1-2.242-4.033c-2.785-5.21-5.682-11.103-6.217-17.085-.14-1.569-.08-2.69.323-3.997.057-.178.135-.403.5-.987-.085.14.099-.033.254-.206.172-.189.31-.377.03-.16 1.07-.827.35-.424 1.459-.647m95.584 72.584c-.17-.008-.336-.027-.504-.04.367-.443.714-.898 1.094-1.33 3.049-3.488 7.628-8.206 12.559-8.749 2.838-.317 4.322 2.426 2.589 5.204-2.527 4.054-9 4.968-13.77 4.968-.698 0-1.36-.02-1.968-.053M-40.536 45.243a2401.56 2401.56 0 0 0 2.678 16.03c.629 3.697 1.27 7.39 1.938 11.08.375 2.08.429 5.074 1.487 6.962 2.2 3.929 8.386-4.676 9.52-5.935 3.675-4.084 7.258-8.256 10.801-12.451 1.593-1.884-1.084-4.656-2.687-2.762a667.535 667.535 0 0 1-8.845 10.25c-1.926 2.187-3.871 4.356-5.892 6.455-1.082-5.374-2.032-10.777-2.929-16.192l7.548-7.772c2.248.768 4.498 1.535 6.745 2.306 3.278 1.124 6.558 2.245 9.836 3.365 3.292 1.123 3.965 2.205 6.574 4.902 10.25 10.592 19.856 21.79 29.677 32.777 4.911 5.493 9.899 10.919 15.009 16.229a337.05 337.05 0 0 0 8.546 8.533c1.209 1.17-.625 3.195-2.065 4.628-3.25-2.895-6.158-6.287-9.116-9.433-6.225-6.624-12.344-13.348-18.452-20.081-9.304-10.252-18.484-20.614-27.78-30.87-.675-.744-2.034-.794-2.724-.038-.237.259-.615.629-1.075 1.08-2.352 2.306-6.841 6.722-5.477 9.156 1.097 1.964 3.099 3.699 4.589 5.349C-6.15 85.99.515 93.008 7.163 100.029a3159.07 3159.07 0 0 0 22.128 23.142 926.235 926.235 0 0 0 7.323 7.513c.317.32.675.74 1.061 1.16-.687.766-1.38 1.526-2.083 2.275-.814.868-1.344 1.262-1.658 1.443-.145.083-.244.12-.303.139-1.056-.946-4.139-4.082-5.401-5.165-6.3-5.411-9.7-9.876-15.497-15.82C1.149 102.835-9.551 90.052-19.419 76.718c-.638-.867-1.603-1.27-2.622-.737-3.467 1.812-5.945 4.698-7.639 8.196-.372.768-.363 1.68.28 2.318 21.074 20.844 38.669 45.146 61.797 63.895.888.72 1.821.745 2.725.037 9.059-7.088 18.703-14.123 24.709-24.107 2.116 1.72 4.276 3.51 5.803 5.713 2.369 3.418-1.406 7.502-3.476 10.012-4.026 4.88-8.28 9.599-13.596 13.102-1.193.788-3.623 2.546-4.968 1.386-1.396-1.204-2.572-2.627-4.004-3.808-1.9-1.564-4.677 1.11-2.763 2.686 2.909 2.396 4.894 6.038 9.108 5.224 7.65-1.478 14.252-10.327 18.91-15.827 2.584-3.051 6.263-7.366 5.312-11.745-1.046-4.828-5.969-8.04-9.497-11.015-.911-.766-2.407-.824-3.042.369-5.42 10.185-14.842 17.21-23.795 24.167-22.107-18.293-39.246-41.57-59.473-61.781 1.052-1.824 2.365-3.384 4.085-4.59C-10.737 94.7 1.019 108.468 13.794 121.28c3.357 3.369 6.818 6.629 10.336 9.826 2.933 2.666 6.087 6.123 9.513 8.132 2.744 1.607 6.722-4.598 8.101-6.19.945-1.091-.321-3.015-1.01-3.692-.687-.677-1.362-1.365-2.039-2.051a908.69 908.69 0 0 1-6.641-6.82A3105.058 3105.058 0 0 1 12.13 99.668C5.886 93.09-.341 86.494-6.487 79.826a342.464 342.464 0 0 1-5.943-6.577c-.267-.306-.52-.62-.781-.931.126-.227.329-.562.675-1.035.975-1.337 2.081-2.587 3.2-3.815 8.83 9.76 17.568 19.603 26.409 29.353 5.906 6.51 11.832 13.002 17.835 19.42 3.595 3.843 7.131 8.043 11.23 11.368.765.618 1.975.893 2.726.037 2.362-2.692 4.158-4.632 5.307-8.08.203-.608-.021-1.403-.48-1.84-20.876-19.917-38.64-42.754-58.914-63.25-.913-.921-2.964-1.226-4.117-1.62a6346.117 6346.117 0 0 1-9.836-3.366c-6.34-2.172-12.702-4.301-18.999-6.594-.687-.25-1.288-.043-1.715.378a2.34 2.34 0 0 0-.646 1.969M573.07 153.426a2461.748 2461.748 0 0 0-13.464-9.102 1070.949 1070.949 0 0 0-9.366-6.23c-1.767-1.16-3.974-3.183-6.07-3.719-4.365-1.111-2.39 9.3-2.257 10.99.428 5.477.983 10.948 1.582 16.406.268 2.453 4.121 2.424 3.852-.043a674.915 674.915 0 0 1-1.334-13.475c-.259-2.901-.49-5.805-.619-8.716 4.64 2.917 9.21 5.951 13.754 9.032l.433 10.827c-2.106 1.099-4.212 2.202-6.318 3.299-3.075 1.601-6.146 3.207-9.216 4.81-3.082 1.613-4.33 1.356-8.082 1.389-14.74.132-29.475-.622-44.202-1.072-7.367-.224-14.735-.348-22.105-.303-4.026.026-8.05.147-12.072.317-1.682.068-1.886-2.656-1.932-4.685 4.337-.363 8.8-.134 13.118-.11 9.09.053 18.179.25 27.267.46 13.84.32 27.676.806 41.514 1.133 1.005.025 1.977-.927 1.904-1.947-.024-.35-.033-.88-.043-1.524-.05-3.293-.158-9.59-2.861-10.278-2.18-.558-4.817-.301-7.04-.36-9.668-.249-19.346-.253-29.016-.27-10.673-.022-21.345.007-32.018.094-3.496.03-6.993.063-10.49.132-.451.009-1.001-.02-1.572-.03a144.5 144.5 0 0 1-.214-3.078c-.068-1.186.012-1.842.097-2.195a1.57 1.57 0 0 1 .108-.315c1.413-.115 5.81-.188 7.464-.356 8.262-.84 13.841-.228 22.143-.334 16.592-.21 33.23.841 49.692 2.875 1.068.135 2.025-.288 2.341-1.394 1.076-3.76.69-7.544-.678-11.183-.3-.798-.967-1.42-1.874-1.394-29.625.916-59.361-3.075-88.885.772-1.135.148-1.794.805-1.904 1.949-1.104 11.45-2.65 23.286.45 34.517-2.705.35-5.491.68-8.138.27-4.111-.638-4.47-6.186-4.863-9.417-.766-6.28-1.254-12.615-.13-18.88.25-1.409.65-4.38 2.418-4.557 1.834-.181 3.676-.053 5.518-.279 2.444-.298 2.418-4.154-.042-3.853-3.742.46-7.749-.611-10.063 3.004-4.198 6.561-2.333 17.445-1.556 24.61.432 3.975 1.024 9.614 4.855 11.941 4.22 2.569 9.938 1.214 14.526.706 1.183-.132 2.255-1.178 1.827-2.46-3.647-10.945-2.249-22.614-1.123-33.895 28.49-3.421 57.17.192 85.754-.544.599 2.02.823 4.046.513 6.123-17.96-2.132-36.038-3.096-54.126-2.664-4.756.113-9.502.375-14.243.722-3.954.29-8.632.194-12.448 1.293-3.055.882-1.298 8.04-1.096 10.135.14 1.438 2.407 1.846 3.373 1.813.964-.032 1.928-.047 2.892-.066a915.28 915.28 0 0 1 9.517-.115c9.607-.082 19.21-.104 28.815-.099 9.07.007 18.14.037 27.208.176 2.955.045 5.91.103 8.863.224.404.018.807.05 1.212.076.077.248.18.625.284 1.202.298 1.627.442 3.29.562 4.947-13.159-.325-26.313-.772-39.47-1.08-8.788-.206-17.576-.383-26.363-.453-5.263-.041-10.743-.373-15.977.308-.974.129-2.009.817-1.904 1.95.322 3.566.491 6.206 2.198 9.412.302.567 1.031.952 1.665.92 28.82-1.408 57.61 1.45 86.433.874 1.297-.025 2.93-1.301 4.011-1.866a6147.86 6147.86 0 0 1 9.216-4.81c5.942-3.1 11.869-6.245 17.87-9.228.654-.327.918-.904.907-1.505a2.343 2.343 0 0 0-.983-1.824M90.726 52.223c.074.013.134.043.205.062.248-.104.524-.181.843-.197 46.813-2.268 93.72-.135 140.519-2.817 1.124-.065 2.019.64 2.42 1.648 3.616 9.13 7.504 18.16 11.52 27.124 6.37 14.215 12.878 29.478 22.63 41.77 1.11 1.402-.171 3.69-1.878 3.699-23.93.117-47.858.298-71.786.535-17.218.166-34.436.362-51.651.676-10.026.18-20.264-.068-30.247.998-1.097.116-2.05-.674-2.417-1.647L88.41 64.619c-1.1-2.905 3.468-4.384 4.559-1.5 7.263 19.219 14.528 38.436 21.79 57.653 9.078-.828 18.338-.651 27.425-.822 17.577-.331 35.159-.523 52.739-.695 22.389-.225 44.779-.388 67.167-.507-7.926-11.14-13.573-24.202-19.196-36.513a633.347 633.347 0 0 1-12.041-28.084c-46.23 2.536-92.563.49-138.803 2.73a2.444 2.444 0 0 1-.886-.12c-.408.19-.892.26-1.445.154-12.334-2.374-11.2 16.653-9.404 24.21.08.336.087.652.046.946.179.204.342.436.46.724C89.298 103.079 99 123.063 106.26 143.83c24.27.283 48.537.206 72.796-.57 26.668-.85 53.317-2.57 80.008-2.331-2.022-4.181-4.05-8.356-6.032-12.554-1.324-2.798 3.255-4.255 4.559-1.497 2.398 5.073 4.866 10.113 7.304 15.165.708 1.47.126 3.735-1.877 3.699-27.92-.444-55.796 1.392-83.686 2.312-24.866.818-49.751.862-74.627.554-1.097-.015-2.05-.575-2.417-1.647-7.318-21.36-17.327-41.853-26.025-62.67a2.373 2.373 0 0 1-.192-.93 2.434 2.434 0 0 1-.315-.74c-.57-2.386-.99-5.261-1.141-8.282-.57-11.33 2.645-24.71 16.11-22.117M449.81-20.9c-4.214 15.381-9.154 30.525-14.346 45.59-17.957 2.043-35.807 5.356-53.788 7.125-2.449.241-3.225 3.03-1.216 4.478 13.426 9.672 27.285 18.82 41.016 28.128-5.17 14.722-10.198 29.491-14.639 44.454-.883 2.976 3.75 4.227 4.63 1.267 4.287-14.447 9.122-28.715 14.103-42.934 7.173 4.893 14.288 9.853 21.276 14.974-11.534 9.628-22.507 19.885-32.325 31.42-1.989 2.338 1.402 5.738 3.412 3.374 9.973-11.714 21.138-22.11 32.874-31.871 14.345 10.72 28.074 22.206 40.463 35.353 1.634 1.736 4.676-.06 4.005-2.325-5.488-18.47-10.266-37.158-15.155-55.812 15.103-11.237 30.355-22.308 44.65-34.423 1.441-1.221.518-3.513-1.072-4.003-17.116-5.262-36.475-1.899-54.448-1.125-4.356-14.733-9.15-29.33-14.808-43.66-.433-1.094-1.493-1.73-2.503-1.73-.923 0-1.804.53-2.129 1.72m2.661 8.226c4.383 11.722 8.256 23.603 11.817 35.58-.432.005-.868.02-1.297.02-7.458.008-14.873.48-22.27 1.206 4.18-12.184 8.175-24.424 11.75-36.806m18.144 40.14c6.925-.211 13.842-.466 20.79-.829 8.672-.454 17.855-.96 26.487.758-12.613 10.442-25.87 20.174-39.073 29.976-2.634-9.998-5.335-19.98-8.204-29.905m-43.403 35.069c3.918-11.11 7.902-22.2 11.765-33.328 7.176-.75 14.374-1.296 21.614-1.453 1.695-.039 3.377-.101 5.067-.146 3.17 10.902 6.122 21.867 9.013 32.855-8.123 6.06-16.18 12.196-24.014 18.58-7.692-5.656-15.536-11.123-23.445-16.508m-39.046-26.629c15.218-1.762 30.335-4.317 45.534-6.111-3.485 10-7.056 19.973-10.584 29.961-11.685-7.911-23.442-15.728-34.95-23.85m66.451 46.063c6.981-5.671 14.136-11.15 21.354-16.555 3.921 14.983 7.79 29.983 12.026 44.867-10.456-10.268-21.706-19.553-33.38-28.313M67.72 213.614c-4.215 15.382-9.155 30.526-14.347 45.59-17.957 2.044-35.807 5.356-53.788 7.126-2.449.241-3.225 3.03-1.216 4.478 13.426 9.672 27.285 18.82 41.016 28.127-5.17 14.722-10.198 29.492-14.639 44.455-.883 2.975 3.75 4.227 4.63 1.266 4.287-14.447 9.122-28.715 14.103-42.933 7.173 4.892 14.288 9.853 21.276 14.973-11.534 9.63-22.507 19.886-32.325 31.421-1.989 2.338 1.402 5.738 3.412 3.374 9.973-11.714 21.138-22.11 32.874-31.872 14.345 10.721 28.074 22.207 40.463 35.354 1.634 1.735 4.676-.06 4.005-2.325-5.488-18.47-10.266-37.159-15.155-55.812 15.103-11.237 30.355-22.308 44.65-34.424 1.441-1.22.518-3.513-1.072-4.002-17.116-5.262-36.475-1.899-54.448-1.125-4.356-14.733-9.15-29.33-14.808-43.66-.433-1.095-1.493-1.73-2.503-1.73-.923 0-1.804.53-2.129 1.72m2.661 8.225c4.383 11.723 8.256 23.604 11.817 35.581-.432.005-.868.02-1.297.02-7.458.007-14.873.48-22.27 1.206 4.18-12.184 8.175-24.424 11.75-36.807m18.144 40.141c6.925-.212 13.842-.467 20.79-.829 8.672-.455 17.855-.96 26.487.758-12.613 10.441-25.87 20.173-39.073 29.976-2.634-9.999-5.335-19.98-8.204-29.905M45.121 297.05c3.918-11.11 7.902-22.199 11.765-33.328 7.176-.75 14.374-1.296 21.614-1.453 1.695-.038 3.377-.1 5.067-.145 3.17 10.901 6.122 21.866 9.013 32.854-8.123 6.06-16.18 12.196-24.014 18.581-7.692-5.657-15.536-11.123-23.445-16.509M6.075 270.421c15.218-1.762 30.335-4.318 45.534-6.112-3.485 10-7.056 19.974-10.584 29.962-11.685-7.912-23.442-15.729-34.95-23.85m66.451 46.062c6.981-5.67 14.136-11.15 21.354-16.555 3.921 14.983 7.79 29.983 12.026 44.868-10.456-10.268-21.706-19.553-33.38-28.313M-2.55 178.56c81.758-5.401 163.815-8.012 245.669-3.137 11.466.683 22.922 1.528 34.366 2.515 3.029.26 3.031-4.447.034-4.707-81.649-7.035-163.712-6.011-245.468-1.488a3241.82 3241.82 0 0 0-34.567 2.11c-3.014.2-3.06 4.906-.034 4.707M21.99 199.603c36.002-7.578 73.06-7.056 109.66-6.398 37.29.67 74.545 2.489 111.79 4.35 10.461.523 20.922 1.05 31.384 1.558 2.75.134 2.761-4.125.031-4.26-37.28-1.81-74.553-3.855-111.86-5.093-36.67-1.215-73.812-2.64-110.392.91-10.649 1.033-21.246 2.617-31.716 4.82-2.689.567-1.573 4.676 1.102 4.113"/><path d="M44.51 203.054c74.393-1.426 148.572 5.493 222.856 8.148 11.493.41 22.988.706 34.488.862 2.75.037 2.772-4.22.03-4.258-74.363-1.01-148.489-8.248-222.856-9.129a1113.702 1113.702 0 0 0-34.487.118c-2.745.053-2.773 4.311-.03 4.26M552.274 121.207c36.004-7.578 73.062-7.056 109.66-6.398 37.29.67 74.547 2.489 111.792 4.35 10.46.522 20.922 1.05 31.384 1.557 2.75.135 2.76-4.124.03-4.258-37.28-1.811-74.553-3.857-111.86-5.095-36.67-1.214-73.812-2.638-110.391.91-10.65 1.034-21.245 2.618-31.716 4.822-2.69.566-1.573 4.674 1.101 4.112"/><path d="M574.796 124.658c74.392-1.426 148.57 5.493 222.856 8.148 11.492.41 22.988.706 34.487.862 2.75.037 2.772-4.22.03-4.258-74.363-1.01-148.488-8.248-222.855-9.129a1113.702 1113.702 0 0 0-34.487.118c-2.745.053-2.774 4.311-.031 4.26"/></g></g></svg>