<svg id="Layer_1" data-name="Layer 1" xmlns="http://www.w3.org/2000/svg" xmlns:xlink="http://www.w3.org/1999/xlink" viewBox="0 0 344.85 344.85"><defs><style>.cls-1{fill:none;}.cls-2{clip-path:url(#clip-path);}.cls-3{clip-path:url(#clip-path-2);}.cls-4{fill:#fff;}.cls-5{fill:#0076c0;}.cls-6{fill:#e03a3e;}.cls-7{fill:#fff200;}</style><clipPath id="clip-path" transform="translate(0 -0.15)"><rect class="cls-1" x="0.06" y="0.15" width="344.79" height="344.85"/></clipPath><clipPath id="clip-path-2" transform="translate(0 -0.15)"><rect class="cls-1" width="345" height="345"/></clipPath></defs><title>HDOS_Seal_2013</title><g class="cls-2"><g class="cls-3"><path class="cls-4" d="M342.58,172.87c0,93.52-76.2,169.33-170.2,169.33S2.17,266.39,2.17,172.87,78.38,3.55,172.38,3.55s170.2,75.81,170.2,169.33" transform="translate(0 -0.15)"/><path d="M0,172.57C0,267.65,77.35,345,172.43,345s172.42-77.35,172.42-172.43S267.5,0.15,172.43.15,0,77.5,0,172.57m4.95,0C4.95,80.23,80.08,5.1,172.43,5.1S339.9,80.23,339.9,172.57,264.77,340.05,172.43,340.05,4.95,264.92,4.95,172.57Z" transform="translate(0 -0.15)"/></g></g><g class="cls-3"><path d="M292.73,120.81L279.17,124l0.66,2.84a8.65,8.65,0,0,1-5-4.84,6.57,6.57,0,0,1,.54-5.76c1.34-2.31,3.87-3.76,7.11-4.09,10.46-1,18.21,14.31,18.29,14.46l1.13,2.28,2.47-.59L322.47,124l-0.87-3.18c-3.06-11.17-9.82-20.08-18.93-25-7.53-4.06-16-5-23.2-2.7-9.09,3-16.06,9.06-19.11,16.75-2.83,7.16-2.16,15.17,1.91,22.57,8.73,15.88,31.17,10.91,32.12,10.69l3.07-.71-4.73-21.64m2.2,20.15c-0.22.05-21.64,4.8-29.51-9.52-3.72-6.77-4.35-14.06-1.78-20.55,2.79-7,9.21-12.64,17.63-15.37,6.6-2.14,14.38-1.22,21.34,2.53,8.54,4.6,14.83,12.95,17.72,23.49l0.23,0.81-16.34,3.93-0.29-.59c-0.08-.17-8.54-17-20.65-15.77-4,.4-7.19,2.26-8.92,5.26a8.88,8.88,0,0,0-.66,7.92c2.33,5.24,6.72,6.68,10.34,6.89l-0.94-4.09,8.91-2.1,3.71,17Z" transform="translate(0 -0.15)"/><path class="cls-5" d="M265.17,111.5c2.65-6.68,8.55-11.8,16.62-14.42,0.44-.14.88-0.27,1.33-0.38a26.32,26.32,0,0,1,18.73,2.8c7.92,4.27,13.79,12,16.66,21.68l-13.4,3.23c-1.63-3.06-9.89-17.29-22-16.09a16.45,16.45,0,0,0-2.39.41,12.19,12.19,0,0,0-7.79,5.65,10.55,10.55,0,0,0-.73,9.41c2.27,5.11,6.85,7.91,12.88,7.9h1l-1-4.55,5.71-1.35,3,13.75c-3.77.67-20.44,2.9-26.91-8.87-3.48-6.33-4.08-13.13-1.69-19.16" transform="translate(0 -0.15)"/><path d="M44.77,89.28l14.66,9L56,103.52l-17-10.12-1.49,2.37-11.34,18,51.42,29.83L89.33,124.7l-14.85-9.46,3-4.72,14.4,8.81,9.59-15.21-46-31.32L44.77,89.28m53,14.57-7.3,11.57-14.31-8.75-5.26,8.27,14.77,9.42-9.52,15.21L28.74,112.07l10.09-16,0.37-.59,16.89,10,5.81-8.71-14.6-9,8.24-12.7Z" transform="translate(0 -0.15)"/><path class="cls-6" d="M39.67,97.42l16.86,10,7.39-11.07-14.62-9L56,77.11l39.86,27.14L90,113.46l-14.3-8.75-6.77,10.66,14.78,9.42-8,12.84-44.93-26,8.93-14.17" transform="translate(0 -0.15)"/><path class="cls-6" d="M260.27,171.69A86.72,86.72,0,1,1,173.54,85a86.72,86.72,0,0,1,86.72,86.73" transform="translate(0 -0.15)"/><path class="cls-4" d="M163.57,98l0.67,0,0.44-.51a7.6,7.6,0,0,1,5.65-2.35h4.57a7.62,7.62,0,0,1,5.64,2.35l0.44,0.5,7.62,0.48c6.51,0.49,14.91,1.6,18.95,3a13,13,0,0,1,8.15,7.71c0.81,2.42,11.91,56.91,12.13,59.53,0,0-.07.87-0.07,0.87l0,0.46,0.22,0.48a36.66,36.66,0,0,1,4.43,13.36l0.1,0.93,0.86,0.37a9.7,9.7,0,0,1,5.69,6,10.38,10.38,0,0,1,.33,2.49v0.19a13.91,13.91,0,0,1-8,12.06,17.32,17.32,0,0,1-3.59,1.29l-0.82.21-0.29.79a55.76,55.76,0,0,1-19.5,26.16c-13.81,10.23-25.67,11.68-36.43,11.73a56.16,56.16,0,0,1-34.83-11.43A52.35,52.35,0,0,1,117,208.51l-0.24-.76-0.75-.27a20.56,20.56,0,0,1-4.1-1.95,15.07,15.07,0,0,1-7.69-12.65,9.35,9.35,0,0,1,.65-3.9,9.58,9.58,0,0,1,5.37-5.09l0.89-.35,0.11-1a34.3,34.3,0,0,1,4.19-12.27l0.26-.47-0.06-.4-0.07-.45a9.56,9.56,0,0,1,.21-1.79c4.15-20.36,11.84-56.17,14.31-61.09,1.7-3.38,5.81-4.72,9.6-5.59,0.63-.13,8.16-1.37,18.56-2.21l5.32-.35m79,95.9h0Z" transform="translate(0 -0.15)"/><path class="cls-5" d="M222.64,168.23l0.28,0c-0.75-4.19-10-55.06-10.72-57.25-1.15-3.41-3.62-4.69-7.78-5.85a37.74,37.74,0,0,0-5-.89h0l-2.5-.3a6.74,6.74,0,0,1,5.69,5.94c0.69,3.46,8.29,52,9.08,57,5.37,0.57,9.35,1.09,11,1.34h0" transform="translate(0 -0.15)"/><path d="M185.31,203.39a13.12,13.12,0,0,1,6.54-1,6,6,0,0,0,2.2-4.56c0-.1,0-0.09,0-0.12a7.77,7.77,0,0,0,5.25-4,0.42,0.42,0,0,0,0-.33,0.43,0.43,0,0,0-.23-0.24l-1.37-.51a0.44,0.44,0,0,0-.53.19,6.5,6.5,0,0,1-3.65,2.62c-0.09-.19-0.19-0.38-0.3-0.57a9,9,0,0,0,3.6-3.66,0.43,0.43,0,0,0,0-.33,0.44,0.44,0,0,0-.22-0.23l-2.28-.85a0.42,0.42,0,0,0-.54.2,5.18,5.18,0,0,1-2.92,2.61,6.59,6.59,0,0,0-3.2-.82,6.21,6.21,0,0,0-6.37,6,6.07,6.07,0,0,0,4,5.61" transform="translate(0 -0.15)"/><path d="M160,203.39a13.11,13.11,0,0,0-6.54-1,6,6,0,0,1-2.2-4.56c0-.1,0-0.09,0-0.12a7.76,7.76,0,0,1-5.24-4,0.42,0.42,0,0,1,.21-0.57l1.37-.51a0.44,0.44,0,0,1,.53.19,6.52,6.52,0,0,0,3.66,2.62c0.09-.19.19-0.38,0.29-0.57a9,9,0,0,1-3.59-3.66,0.42,0.42,0,0,1,.21-0.56l2.27-.85a0.42,0.42,0,0,1,.54.2,5.15,5.15,0,0,0,2.92,2.61,6.58,6.58,0,0,1,3.2-.82,6.21,6.21,0,0,1,6.37,6,6.06,6.06,0,0,1-4,5.61" transform="translate(0 -0.15)"/><path d="M205.07,210.46l-1.08-.41a0.6,0.6,0,0,0-.83.3c-4.34,8-16.26,15.79-30.64,15.79s-26.31-7.79-30.65-15.79a0.6,0.6,0,0,0-.84-0.3l-1.08.41a0.59,0.59,0,0,0-.21.79c4.67,8.6,17.13,18.32,32.78,18.32s28.1-9.72,32.77-18.32a0.59,0.59,0,0,0-.22-0.79" transform="translate(0 -0.15)"/><path d="M167.64,209.91a0.4,0.4,0,0,0,0,.32,0.42,0.42,0,0,0,.26.19l1.41,0.32a0.41,0.41,0,0,0,.49-0.27c0.52-1.57,1.73-2.76,2.79-2.76s2.27,1.19,2.79,2.76a0.42,0.42,0,0,0,.49.27l1.41-.32a0.42,0.42,0,0,0,.31-0.51c-0.59-2.21-2.36-4.44-5-4.44s-4.41,2.23-5,4.44" transform="translate(0 -0.15)"/><path class="cls-7" d="M131.41,170.32c-5.59.45-9.32,0.78-9.32,0.78-0.26,0-.72.07-1.23,0.1-3.28,6.18-3.8,10.91-3.8,13.27,0,0,0,.06,0,0.09,16.15-1.32,23.37-7,23.44-7a0.29,0.29,0,0,1,.26-0.06,36.94,36.94,0,0,0,3.13-2.42,51.59,51.59,0,0,1-12.47-4.71" transform="translate(0 -0.15)"/><path class="cls-7" d="M178.43,180.41c0.24,0.07,26.28,6.88,48.76,3.19a28.72,28.72,0,0,0-3.57-12.45l-0.35,0s-4.9-.57-12.29-1.22c-8.16,5-22.85,8.24-39.23,8.25a60.27,60.27,0,0,0,6.49,2.31,0.2,0.2,0,0,1,.19,0" transform="translate(0 -0.15)"/><path class="cls-6" d="M159.18,103.38l-1.59.14a7.46,7.46,0,0,0-1.81,4.32c-0.6,4-4.5,47.89-5.34,57.43,8-.35,16.42-0.62,23.25-0.64s14.26,0.31,21.05.77c-0.87-8.71-5.33-53.7-6-57.74-0.39-2.4-1.16-3.77-2.22-4.62a169.81,169.81,0,0,0-27.37.33" transform="translate(0 -0.15)"/><path class="cls-6" d="M205.87,170.16a0.73,0.73,0,0,0,.6-0.65C196.8,168.73,184.34,168,173,168c-8.71,0-22.63.91-33.71,1.73a0.33,0.33,0,0,0,.09.47c7.25,3.13,17.69,4.69,31.79,4.78s26.32-1.57,34.59-4.74h0l0,0,0.12,0" transform="translate(0 -0.15)"/><path class="cls-5" d="M123.3,166.74c0.76-3.76,9.7-49,12.1-55.52,1-2.6,3.25-4.5,6.46-5.37h0.07l0.07,0h0c0.4-.09,1.6-0.35,3.42-0.67l2-.35a6.44,6.44,0,0,0-2.09.85,7.14,7.14,0,0,0-2.87,4.77c-0.69,3.3-8.23,47.83-9.56,55.74l-9.64.59" transform="translate(0 -0.15)"/><path d="M237.47,191.26a8.55,8.55,0,0,0-6.55-5.63c0-.07.14-7.06-4.91-15.68a4.2,4.2,0,0,0,.24-1.58c0-.24-10.92-55.62-12-58.78a11.53,11.53,0,0,0-7.18-6.74c-3.42-1.16-11.07-2.32-18.53-2.88-3-.23-5.79-0.41-8.47-0.53-0.49-1.58-2.76-2.78-5.05-2.78h-4.56c-2.3,0-4.57,1.2-5.06,2.79-2.15.1-4.4,0.25-6.85,0.45-10.82.88-18.14,2.14-18.32,2.18-3.81.87-7.18,2.11-8.52,4.76-3,6-14.15,60.55-14.15,60.55a5.59,5.59,0,0,0,0,2.62c-4.38,7.49-4.61,13.44-4.61,14.57h0a8.22,8.22,0,0,0-6.33,4.76,7.9,7.9,0,0,0-.53,3.29,13.45,13.45,0,0,0,6.86,11.26,19.14,19.14,0,0,0,5.31,2.33c2.85,10.42,9.29,19.65,18.78,26.81a54.48,54.48,0,0,0,33.8,11.09c10.47,0,22-1.46,35.42-11.4a54.35,54.35,0,0,0,19.5-27,16.26,16.26,0,0,0,4.83-1.56c7.13-3.66,7.14-10.12,7.15-10.72a8.64,8.64,0,0,0-.28-2.23m-102.08-80c1-2.6,3.25-4.5,6.46-5.37a132.39,132.39,0,0,1,17.32-2.48,170.52,170.52,0,0,1,29.62-.17c0.12,0,11.79.9,15.62,2,4.16,1.16,6.64,2.44,7.78,5.85,0.73,2.19,10,53.06,10.72,57.25a394.52,394.52,0,0,0-49.24-3.64c-18.09,0-47.38,1.91-50.39,2.11C124.06,163,133,117.77,135.4,111.23Zm3.94,59a0.33,0.33,0,0,1-.09-0.47c11.08-.82,25-1.71,33.71-1.73,11.37,0,23.83.75,33.51,1.53a0.73,0.73,0,0,1-.6.65l-0.12,0,0,0h0c-8.27,3.17-20.38,4.84-34.59,4.74S146.58,173.31,139.34,170.18ZM229,201.06a10.17,10.17,0,0,1-4.47,1.42l-1.21.07-0.31,1.2a46.66,46.66,0,0,1-18,25.84,54.93,54.93,0,0,1-65.14-.06,46.69,46.69,0,0,1-17.93-26l-0.31-1.05-1.21-.07a9.92,9.92,0,0,1-4.5-1.12c-4.05-2.35-6.43-7.12-5.08-10.21,1.13-2.6,4.55-3.57,8-2.26l2,0.75,0.27-2.65c15-3.11,19.38-7.89,20.17-8.87a0.23,0.23,0,0,0-.09-0.4l-0.37-.19a0.28,0.28,0,0,0-.31,0c-0.07.06-7.29,5.73-23.44,7,0,0,0-.06,0-0.09,0-2.36.52-7.09,3.8-13.27,0.51,0,1-.07,1.23-0.1,0,0,3.73-.33,9.32-0.78,8.58,4.83,23,7.71,39.39,7.82,16.76,0.11,31.84-3.15,40.15-8.25,7.4,0.65,12.29,1.22,12.29,1.22l0.35,0a28.7,28.7,0,0,1,3.57,12.45c-22.48,3.68-48.52-3.12-48.76-3.19a0.2,0.2,0,0,0-.24.1l-0.2.35a0.21,0.21,0,0,0,0,.17,0.22,0.22,0,0,0,.11.12c2.11,1,25,8.27,46,6.27l0.2,2.33,2-.73c3.29-1.22,6.74-.15,7.87,2.44a4.74,4.74,0,0,1,.38,1.9C234.49,196.16,232.4,199.11,229,201.06Z" transform="translate(0 -0.15)"/><path d="M276,179.92l-0.19.39c-0.32.68-.44,0.93-2,0.92h-0.2v1.87h1.58L275.17,193l3.11,0,0.07-13.21h-2.26l-0.05.11" transform="translate(0 -0.15)"/><path d="M280.46,183.94c0,3.14,2.9,4.8,5.79,4.82a7.15,7.15,0,0,0,3.61-1.24,3.86,3.86,0,0,1-3.62,3.28,2.66,2.66,0,0,1-2.42-1.54l-0.06-.16-3.06,0,0,0.27c0.32,3.32,4.07,3.71,5.67,3.72a7,7,0,0,0,5.18-1.7,6.5,6.5,0,0,0,1.68-4.77c0-4.31-2.58-6.9-7-6.93-4.8,0-5.82,2.31-5.84,4.26m5.8,2.37a2.52,2.52,0,0,1-2.79-2.36,1.85,1.85,0,0,1,.55-1.31,3.12,3.12,0,0,1,2.26-.74c2.59,0,3.27,1.38,3.27,2.1a1.87,1.87,0,0,1-.59,1.35A3.92,3.92,0,0,1,286.26,186.31Z" transform="translate(0 -0.15)"/><path d="M302.18,179.56l-7.69,7.28v1.85l8.85,0c0,0.45,0,4.74,0,4.74h2.89l0-4.74h2.47v-2h-2.46c0-.47,0-7.24,0-7.24l-4,0-0.07.07m0.94,3.16c0,0.83,0,3.57,0,4l-4.34,0Z" transform="translate(0 -0.15)"/><path d="M311.3,181.84a5.88,5.88,0,0,0-1.37,4.65c0.35,3.95,1.64,6.58,6.79,6.61h0a7.07,7.07,0,0,0,5.11-1.63,3.93,3.93,0,0,0,1.16-2.88c0-3.63-3.68-4.19-5.89-4.21a4.7,4.7,0,0,0-4,1.76l-0.26.27c0.07-1.5.66-4.4,4.23-4.38,1.68,0,2.9.61,3.27,1.62l0,0.07h2.41v-0.11c-0.32-3.35-4.14-3.73-5.77-3.74-2.52,0-4.42.65-5.63,2m6,8.74c-2.68,0-3-1.32-3-1.88a1.71,1.71,0,0,1,.48-1.25,3,3,0,0,1,2.14-.65c2.56,0,2.93,1.23,2.93,1.95C319.91,189.86,318.89,190.58,317.33,190.57Z" transform="translate(0 -0.15)"/><path d="M19.48,182.31a3.48,3.48,0,0,0-1,2.56c0,1.61,1.05,2.53,3.25,2.8l2.95,0.39c1.41,0.19,1.4.82,1.4,1.29,0,1-.77,1-2.25,1s-1.78-.7-1.9-1.46l0-.17H18.43v0.21c0.14,2.66,1.83,3.91,5.32,3.93,1.9,0,4-.1,5.15-1.23a3.08,3.08,0,0,0,.87-2.27v0c0-2.15-1.34-3.32-4.27-3.68l-2.12-.26c-1.12-.14-1.85-0.23-1.85-0.54a1,1,0,0,1,.34-0.68,3.27,3.27,0,0,1,2-.81,2,2,0,0,1,1.86,1.57l0,0.17,3.41,0,0-.22c-0.23-2-.82-4-5.28-4a6.28,6.28,0,0,0-4.34,1.41" transform="translate(0 -0.15)"/><polyline points="31.6 177.82 31.58 180.9 34.47 180.91 34.48 177.63 31.6 177.62 31.6 177.82"/><polyline points="31.58 182.09 31.53 192.12 34.41 192.14 34.46 181.91 31.58 181.89 31.58 182.09"/><path d="M40.35,182.35c0-.31,0-0.84,0-0.84l-3.35,0-0.06,10.81,3.46,0,0-5.23a2.63,2.63,0,0,1,2.85-2.79c1.26,0,2.24,1.52,2.23,2.81l0,5.25,3.06,0,0-5.23c0-5.29-3.68-5.87-5.27-5.88a3.66,3.66,0,0,0-2.95,1.09" transform="translate(0 -0.15)"/><path d="M51.4,182.69A5.83,5.83,0,0,0,49.84,187c0,3.72,2.3,5.87,6.33,5.89,3.58,0,5.79-1.69,6.07-4.71l0-.22-0.22,0-3.36,0v0.2a1.37,1.37,0,0,1-.42,1,2.92,2.92,0,0,1-2.06.66,2.86,2.86,0,1,1,0-5.72,3,3,0,0,1,2.08.65,1.32,1.32,0,0,1,.39,1v0.2l3.58,0v-0.2c0-3-3.56-4.63-6-4.65a6.64,6.64,0,0,0-4.82,1.64" transform="translate(0 -0.15)"/><path d="M65.14,182.24a6.2,6.2,0,0,0-1.72,4.5c0,3.74,2.47,6.17,6.34,6.19,2.8,0,5.9-1.43,6.23-3.88l0-.22-3.51,0V189a0.69,0.69,0,0,1-.24.46,4,4,0,0,1-2.5.88,3.44,3.44,0,0,1-2.39-1.07,2.78,2.78,0,0,1-.83-1.49L76,187.85v-0.48c0-4-3.23-6.84-6.16-6.86a6.42,6.42,0,0,0-4.69,1.73m4.37,1a3.13,3.13,0,0,1,2.95,2.18l-5.89,0A3.1,3.1,0,0,1,69.51,183.29Z" transform="translate(0 -0.15)"/><path class="cls-5" d="M87,254.87l-7,5.79L83,247.86c0.34-1.3.25-2-.34-2.7a2.27,2.27,0,0,0-2.1-.79,2.9,2.9,0,0,0-1.7.86l-12.16,10a2.59,2.59,0,0,0-.65,3.75c0.93,1.14,2.46,1.16,3.79.06l6.93-5.7-3.14,12.52c-0.4,1.46-.35,2.06.24,2.78a2.6,2.6,0,0,0,2.38.92,3.36,3.36,0,0,0,1.87-1l12-9.84c1.32-1.08,1.57-2.58.63-3.73s-2.41-1.16-3.76-.09" transform="translate(0 -0.15)"/><path class="cls-6" d="M156.68,281.16a4.27,4.27,0,0,1-5,3.37,4.16,4.16,0,0,1-2.11-1.29c-0.1-.09-0.74-0.93-1.68-2.08a7.82,7.82,0,0,0-4.25-3c-2.46-.55-4.88.68-5.32,2.66s0.54,3.22,4,4.94a40.82,40.82,0,0,1,7.39,4.43A11.14,11.14,0,0,1,153.91,302c-1.75,7.83-8.89,11.85-17.54,9.92-7.81-1.75-13.69-7.87-12.53-13a4.48,4.48,0,0,1,5.13-3.47c1.68,0.38,2.81,1.26,4.4,3.45,1.85,2.69,3.58,4,5.62,4.48A4.57,4.57,0,0,0,144.7,300c0.47-2.11-.68-3.75-3.7-5.44l-3.71-2a23.75,23.75,0,0,1-6.19-4.48c-2-2.16-2.71-5.34-1.93-8.84,1.55-6.92,8.35-10.52,16.57-8.68,7,1.55,11.89,6.32,10.93,10.6" transform="translate(0 -0.15)"/><path class="cls-6" d="M184.82,310.4l0.05,1.05c0.1,3.2-1.55,5.39-4.24,5.52s-4.55-1.94-4.71-5.08l-0.05-1-1.32-26.55-6.38.32-0.88,0c-2.81.08-4.65-1.5-4.78-4.08a4.23,4.23,0,0,1,4.35-4.54l0.87,0,21.64-1.08,0.94,0c2.75-.07,4.65,1.5,4.78,4.08a4.23,4.23,0,0,1-4.35,4.54l-0.94,0-6.33.32,1.33,26.55" transform="translate(0 -0.15)"/><path class="cls-6" d="M217.93,303.94l0.29,1c0.88,3.08-.24,5.58-2.83,6.32s-4.93-.85-5.79-3.87l-0.29-1-8-28.18-0.29-1c-0.82-3.1.31-5.54,2.91-6.28s4.86,0.8,5.72,3.82l0.29,1,8,28.18" transform="translate(0 -0.15)"/><path class="cls-6" d="M227.09,259.85a17.25,17.25,0,0,1,12.79-2.35c3,0.5,4.46,1.26,5.43,2.84a4.39,4.39,0,0,1-5,6.62l-1.28-.31a9.17,9.17,0,0,0-7.15,1.25c-5.26,3.19-5.4,9.56-2,15.09s9.14,8.24,14.4,5a9,9,0,0,0,4.23-5.16l0.55-2.14a4.49,4.49,0,0,1,2.09-3,4.55,4.55,0,0,1,6.16,1.67c0.74,1.21.82,2.6,0.37,4.68a18.38,18.38,0,0,1-8.53,12c-9.47,5.75-20.94,1.46-27-8.45s-4.55-22,4.91-27.74" transform="translate(0 -0.15)"/><path class="cls-6" d="M286.55,248.11c2.79-.26,3.88-0.11,5.11.92a4.65,4.65,0,0,1,.7,6.55,5.11,5.11,0,0,1-3.42,1.49l-1.06.11-20.95,1.93,8.22,6.9,0.81,0.68c2.46,2.06,2.93,4.75,1.2,6.82s-4.56,2.07-7,0l-0.8-.68L246.95,254l-0.8-.68c-2.42-2.11-2.85-4.76-1.11-6.82s4.47-2.07,6.88,0l8.32,7-2.14-18.94-0.15-1a5,5,0,0,1,.9-3.76,4.6,4.6,0,0,1,6.54-.4c1.09,0.91,1.51,2,1.76,4.62l1.63,15.91,17.8-1.82" transform="translate(0 -0.15)"/><path class="cls-5" d="M107.93,288.93l2.18-16.63a2.51,2.51,0,0,0-1.19-2.58,2.43,2.43,0,0,0-2.83.15l-13.57,9.83-0.42.29a3.65,3.65,0,0,0-1,1,2.5,2.5,0,0,0,3.84,3.11l0.4-.31,1.21-.91,6.56,4c0,0.23-.2,1.55-0.2,1.55l-0.08.53a2.5,2.5,0,0,0,4.57,1.9,4.07,4.07,0,0,0,.56-1.94M99.66,280l5.75-4.42-1.17,7.18Z" transform="translate(0 -0.15)"/><path class="cls-5" d="M73.06,232.86c-3.54-4.3-9.84-4.56-14.65-.6s-5.73,10.19-2.17,14.51,9.83,4.6,14.62.67,5.77-10.24,2.2-14.58M60.19,243.52c-1.81-2.2-1.26-5.33,1.32-7.45s5.8-2.1,7.61.11,1.2,5.31-1.4,7.44S62,245.73,60.19,243.52Z" transform="translate(0 -0.15)"/><path d="M214.18,44.69c-2.12,8.34-5.05,19.92-5.74,22.86,4.21,0.51,13.34-2.08,15.07-9,0-.12.06-0.23,0.08-0.34a10.57,10.57,0,0,0-1.43-7.82,13.23,13.23,0,0,0-8-5.65m6.35,13.78c-1.12,4.49-6.33,6.71-10,7.28,1.05-4.24,2.91-11.58,4.44-17.62a10.47,10.47,0,0,1,4.52,3.9,8.35,8.35,0,0,1,1.15,6.18C220.58,58.3,220.55,58.39,220.53,58.48Z" transform="translate(0 -0.15)"/><path d="M236.85,34.62c-6.27-9.19-17.52-14.63-33.43-16.18l-2.51-.24-6.38,23.49,4.59,1.38-8.51,35,2.71,0.81c0.74,0.22,18.45,5.39,32.72-2.44,7.37-4,12.42-10.76,15-20,1.16-4.1,1.57-13.32-4.23-21.81m2.95,20.75c-2.44,8.61-7.13,14.88-14,18.62-13.46,7.38-30.29,2.47-31,2.26l-0.68-.2,8.51-35-4.54-1.36,5.32-19.56,0.62,0.06c15.22,1.48,25.92,6.6,31.8,15.22C241.21,43.25,240.85,51.64,239.79,55.37Z" transform="translate(0 -0.15)"/><path class="cls-6" d="M234.64,36.27c5,7.36,4.7,15.22,3.72,18.7-2.32,8.21-6.77,14.17-13.23,17.72C213.69,79,199.21,75.84,195.95,75l8.51-35-4.51-1.35c0.34-1.25,4.3-15.81,4.6-16.93,14.42,1.51,24.55,6.38,30.09,14.5m-21.71,7.29c-6.26,24.59-6.25,24.61-6,25l0.16,0.27,0.3,0.07c4.34,1.07,15.5-1.61,17.59-10a12,12,0,0,0-1.53-9.31A14.83,14.83,0,0,0,213.81,43l-0.71-.15Z" transform="translate(0 -0.15)"/><path d="M107.93,31.58l6.6,22.59,12.77-3.76,8.8,32.36,18.33-5.68-9-32.24,11.7-3.49L151,19,107.93,31.58m46.29,7.13-11.71,3.5,9,32.26-13.75,4.26L129,46.4l-12.82,3.78-5-17.24-0.22-.76L149.35,21Z" transform="translate(0 -0.15)"/><path class="cls-5" d="M112.85,33.26L148.25,23l4,14.67-11.71,3.5,9,32.28-10.7,3.31-8.79-32.3L117.22,48.2l-4.37-14.95" transform="translate(0 -0.15)"/><path d="M93.26,64.91c-3.47,2.89-3.06,9.44.93,14.61,2.36,3.06,5.59,5.09,8.64,5.43a6.25,6.25,0,0,0,4.81-1.29c3.48-2.88,3.06-9.44-.93-14.61-2.36-3.06-5.59-5.09-8.64-5.43a6.26,6.26,0,0,0-4.81,1.29M106.43,82.6a3.84,3.84,0,0,1-3,.75,10.85,10.85,0,0,1-6.78-4.24l-0.2-.26C93,74.42,93,69.36,95.15,67.6a3.85,3.85,0,0,1,3-.75c2.41,0.27,5,1.95,7,4.49C108.55,75.78,108.56,80.84,106.43,82.6Z" transform="translate(0 -0.15)"/><path d="M86.17,47.28c-2.15,1-9.41,4.92-12.25,13.17-2.24,6.48-1.25,13.93,2.93,22.15l0,0.08c4.72,8.7,18.26,23,35.75,15A22.42,22.42,0,0,0,124,83.6c1.46-5.44,1.52-14.3-6.49-25.63h0c-6.69-9.47-19-16.45-31.34-10.69m29,11.27c6,8.48,8.06,16.42,6.13,23.6a19.87,19.87,0,0,1-10,12.5c-19.81,9.1-32.48-13.72-32.61-14-3.87-7.61-4.81-14.42-2.79-20.26,2.53-7.34,9-10.85,11-11.76C97.95,43.49,109.08,49.9,115.19,58.55Z" transform="translate(0 -0.15)"/><path class="cls-7" d="M110.61,93.18c-18.43,8.47-30-12.37-30.51-13.26-3.65-7.18-4.56-13.57-2.7-19,2.33-6.74,8.35-10,10.14-10.82,10.24-4.77,20.6,1.26,26.33,9.36s7.69,15.56,5.89,22.25a18.18,18.18,0,0,1-9.15,11.45M92.23,63.67c-4.13,3.43-3.83,11,.68,16.83h0c2.62,3.4,6.26,5.66,9.74,6a7.83,7.83,0,0,0,6-1.66c4.14-3.43,3.83-11-.68-16.84-2.62-3.4-6.26-5.66-9.74-6A7.84,7.84,0,0,0,92.23,63.67Z" transform="translate(0 -0.15)"/><path d="M278.62,60.81c-1.47-1.87-6.95-8-15.62-8.9-6.82-.69-13.85,2-20.89,7.93l-0.06.06c-7.39,6.59-18.23,23.06-6.4,38.24a22.43,22.43,0,0,0,16.3,7.83c5.63,0.17,14.26-1.8,23.46-12.2,7.68-8.69,11.65-22.25,3.21-33m-4.16,31c-6.88,7.78-14.14,11.62-21.57,11.39a19.89,19.89,0,0,1-14.47-6.9c-13.4-17.2,5.91-34.76,6.12-34.95,6.52-5.51,12.94-8,19.08-7.37,7.73,0.78,12.64,6.32,14,8C285.16,71.56,281.47,83.87,274.46,91.8Z" transform="translate(0 -0.15)"/><path d="M263.24,71.92c-3.61-2.72-9.89-.82-14,4.25-2.44,3-3.67,6.61-3.3,9.66a6.27,6.27,0,0,0,2.36,4.38c3.61,2.72,9.89.81,14-4.25,2.43-3,3.67-6.61,3.3-9.65a6.26,6.26,0,0,0-2.36-4.38M248.89,88.63a3.85,3.85,0,0,1-1.42-2.74c-0.29-2.41.75-5.34,2.78-7.83,3.53-4.34,8.45-5.51,10.66-3.85A3.84,3.84,0,0,1,262.32,77c0.29,2.41-.74,5.33-2.77,7.83C256,89.13,251.1,90.3,248.89,88.63Z" transform="translate(0 -0.15)"/><path class="cls-7" d="M239.7,95.29c-12.47-16,5.15-32.06,5.91-32.73,6.15-5.2,12.17-7.55,17.86-7,7.09,0.72,11.63,5.83,12.85,7.38,7,8.87,3.5,20.34-3.07,27.77s-13.38,11.05-20.3,10.84a18.18,18.18,0,0,1-13.24-6.28m24.51-24.66c-4.3-3.24-11.57-1.21-16.23,4.52-2.71,3.33-4.08,7.4-3.65,10.87a7.82,7.82,0,0,0,3,5.48c4.29,3.24,11.57,1.21,16.23-4.53,2.71-3.33,4.07-7.39,3.65-10.87A7.85,7.85,0,0,0,264.21,70.63Z" transform="translate(0 -0.15)"/><path d="M266.38,226.13l-0.38.64a0.34,0.34,0,1,1-.57-0.34l1.15-1.95a0.34,0.34,0,1,1,.57.33l-0.38.64,2.11,1.25a0.39,0.39,0,1,1-.4.67l-2.11-1.24" transform="translate(0 -0.15)"/><path d="M267.28,224a0.36,0.36,0,0,1-.12-0.56l0.12-.2a0.41,0.41,0,0,1,.53-0.19l2.25,0.53h0l-1.56-1.7a0.41,0.41,0,0,1-.09-0.56l0.11-.19a0.36,0.36,0,0,1,.55-0.17l2.41,1.42a0.35,0.35,0,1,1-.36.6l-1.83-1.08h0l1.59,1.79a0.31,0.31,0,0,1,0,.4,0.32,0.32,0,0,1-.37.17l-2.34-.53h0l1.83,1.08a0.35,0.35,0,1,1-.36.6l-2.4-1.42" transform="translate(0 -0.15)"/></g></svg>