<?xml version="1.0" encoding="UTF-8" standalone="no"?>
<svg
   xmlns:dc="http://purl.org/dc/elements/1.1/"
   xmlns:cc="http://creativecommons.org/ns#"
   xmlns:rdf="http://www.w3.org/1999/02/22-rdf-syntax-ns#"
   xmlns:svg="http://www.w3.org/2000/svg"
   xmlns="http://www.w3.org/2000/svg"
   viewBox="0 0 5560.2749 4681.1499"
   height="3744.9199pt"
   width="4448.2197pt"
   xml:space="preserve"
   version="1.1"
   id="svg3336"><metadata
     id="metadata3342"><rdf:RDF><cc:Work
         rdf:about=""><dc:format>image/svg+xml</dc:format><dc:type
           rdf:resource="http://purl.org/dc/dcmitype/StillImage" /><dc:title></dc:title></cc:Work></rdf:RDF></metadata><defs
     id="defs3340"><clipPath
       id="clipPath3350"
       clipPathUnits="userSpaceOnUse"><path
         id="path3352"
         d="m 0,4197.519 4448.22,0 L 4448.22,0 0,0 0,4197.519 Z" /></clipPath></defs><g
     id="g3346"
     transform="matrix(1.25,0,0,-1.25,2.0000001,5255.15)"><g
       id="g3348"
       clip-path="url(#clipPath3350)"><g
         id="g3354"
         transform="translate(4030.1287,1126.8066)"><path
           d="m 0,0 c 0,-18.89 -15.313,-34.203 -34.203,-34.203 l -3961.723,0 c -18.89,0 -34.203,15.313 -34.203,34.203 l 0,2847.198 c 0,18.89 15.313,34.203 34.203,34.203 l 3961.723,0 c 18.89,0 34.203,-15.313 34.203,-34.203 L 0,0 Z"
           style="fill:#26575c;fill-opacity:1;fill-rule:nonzero;stroke:none"
           id="path3356" /></g><g
         id="g3358"
         transform="translate(4030.1287,3704.0879)"><path
           d="m 0,0 0,459.229 c 0,18.889 -15.313,34.202 -34.203,34.202 l -3961.723,0 c -18.89,0 -34.203,-15.313 -34.203,-34.202 L -4030.129,0 0,0 Z"
           style="fill:#e35d31;fill-opacity:1;fill-rule:nonzero;stroke:none"
           id="path3360" /></g><path
         d="m 0,1476.301 4030.129,0 0,2407.863 -4030.129,0 0,-2407.863 z"
         style="fill:#18bfc8;fill-opacity:1;fill-rule:nonzero;stroke:none"
         id="path3362" /><g
         id="g3364"
         transform="translate(3903.0479,1298.4476)"><path
           d="m 0,0 c 0,-18.89 -15.313,-34.203 -34.203,-34.203 l -3707.562,0 c -18.89,0 -34.202,15.313 -34.202,34.203 l 0,6.841 c 0,18.889 15.312,34.202 34.202,34.202 l 3707.562,0 C -15.313,41.043 0,25.73 0,6.841 L 0,0 Z"
           style="fill:#18bfc8;fill-opacity:1;fill-rule:nonzero;stroke:none"
           id="path3366" /></g><g
         id="g3368"
         transform="translate(570.2699,1339.4908)"><path
           d="m 0,0 -408.987,0 c -18.89,0 -34.202,-15.313 -34.202,-34.203 l 0,-6.84 c 0,-18.89 15.312,-34.203 34.202,-34.203 L 0,-75.246 0,0 Z"
           style="fill:#119cbc;fill-opacity:1;fill-rule:nonzero;stroke:none"
           id="path3370" /></g><g
         id="g3372"
         transform="translate(651.6247,1301.8679)"><path
           d="m 0,0 c 0,-37.987 -30.796,-68.783 -68.784,-68.783 -37.987,0 -68.783,30.796 -68.783,68.783 0,37.987 30.796,68.783 68.783,68.783 C -30.796,68.783 0,37.987 0,0"
           style="fill:#ffffff;fill-opacity:1;fill-rule:nonzero;stroke:none"
           id="path3374" /></g><g
         id="g3376"
         transform="translate(2918.4688,2157.3777)"><path
           d="m 0,0 c -33.851,26.019 -76.226,41.496 -122.232,41.496 l -1445.524,0 c -28.933,0 -56.43,-6.129 -81.28,-17.15 -95.693,-26.5 -174.385,-102.976 -198.821,-206.436 -0.371,-1.573 -25.892,-350.173 -65.405,-499.348 l 2117.485,0 c -39.514,149.175 -65.035,497.775 -65.406,499.353 C 119.73,-101.277 67.539,-36.934 0,0"
           style="fill:#1b93af;fill-opacity:1;fill-rule:nonzero;stroke:none"
           id="path3378" /></g><g
         id="g3380"
         transform="translate(2156.009,2527.7573)"><path
           d="m 0,0 -192.481,0 c -123.214,0 -223.078,-56.127 -223.078,-125.402 l 0,-241.166 c 0,-69.274 99.864,-125.412 223.078,-125.412 l 192.481,0 c 123.22,0 223.084,56.138 223.084,125.412 l 0,241.166 C 223.084,-56.127 123.22,0 0,0"
           style="fill:#a4eae8;fill-opacity:1;fill-rule:nonzero;stroke:none"
           id="path3382" /></g><g
         id="g3384"
         transform="translate(2499.9343,3597.3926)"><path
           d="m 0,0 c -59.892,0 -228.407,64.839 -228.407,4.981 0,0 89.352,-58.563 138.672,-218.776 49.281,-160.215 49.281,-440.6 49.281,-440.6 0,-26.085 29.757,-88.333 61.629,-98.595 41.309,-13.28 39.622,-0.32 39.622,33.49 l 47.599,611.086 C 108.396,-48.541 59.847,0 0,0"
           style="fill:#108699;fill-opacity:1;fill-rule:nonzero;stroke:none"
           id="path3386" /></g><g
         id="g3388"
         transform="translate(2514.3345,3145.6636)"><path
           d="m 0,0 c -41.701,0 -130.959,-63.052 -130.959,-104.77 l -0.439,-175.69 c 0,-41.693 89.697,-95.441 131.398,-95.441 41.675,0 75.481,33.797 75.481,75.481 l 25.067,183.342 C 107.44,-36.58 41.675,0 0,0"
           style="fill:#a4eae8;fill-opacity:1;fill-rule:nonzero;stroke:none"
           id="path3390" /></g><g
         id="g3392"
         transform="translate(2498.4026,3059.0623)"><path
           d="m 0,0 c -19.802,0 -59.494,-26.383 -68.693,-48.042 22.907,-7.547 39.433,-29.091 39.433,-54.508 0,-25.807 -17.03,-47.641 -40.467,-54.89 7.388,-21.26 49.266,-45.257 69.727,-45.257 22.48,0 40.72,18.207 40.72,40.684 L 54.227,-63.12 C 57.951,-19.72 22.48,0 0,0"
           style="fill:#e2caaa;fill-opacity:1;fill-rule:nonzero;stroke:none"
           id="path3394" /></g><g
         id="g3396"
         transform="translate(2156.009,2527.7573)"><path
           d="m 0,0 -192.481,0 c -123.214,0 -223.078,-56.127 -223.078,-125.402 l 0,-110.759 c 118.991,-55.84 266.678,-97.85 378.142,-97.85 97.236,0 187.488,26.972 260.501,66.438 l 0,142.171 C 223.084,-56.127 123.22,0 0,0"
           style="fill:#a4eae8;fill-opacity:1;fill-rule:nonzero;stroke:none"
           id="path3398" /></g><g
         id="g3400"
         transform="translate(1534.6055,2567.3945)"><path
           d="m 0,0 c 0,-110.895 363.166,-275.714 583.986,-275.714 240.453,0 438.099,164.819 438.099,275.714 l 0,968.421 L 0,968.421 0,0 Z"
           style="fill:#cfd3d3;fill-opacity:1;fill-rule:nonzero;stroke:none"
           id="path3402" /></g><g
         id="g3404"
         transform="translate(1534.6055,2567.3945)"><path
           d="m 0,0 c 0,-110.895 363.166,-275.714 583.986,-275.714 240.453,0 438.099,164.819 438.099,275.714 l 0,968.421 L 0,968.421 0,0 Z"
           style="fill:#a4eae8;fill-opacity:1;fill-rule:nonzero;stroke:none"
           id="path3406" /></g><g
         id="g3408"
         transform="translate(1547.226,3515.6426)"><path
           d="m 0,0 c -4.865,-53.182 10.245,-113.266 54.934,-134.84 95.745,-46.212 183.651,35.894 399.981,-22.842 154.298,-41.896 300.837,-78.491 430.477,-61.263 52.456,6.973 92.871,31.28 124.072,64.749 l 0,174.369 -1007.622,0 L 0,0 Z"
           style="fill:#a4eae8;fill-opacity:1;fill-rule:nonzero;stroke:none"
           id="path3410" /></g><g
         id="g3412"
         transform="translate(1616.5889,3597.3926)"><path
           d="m 0,0 c -59.878,0 -108.398,-48.541 -108.398,-108.414 l 0,-578.17 c 0,-33.798 45.914,-79.686 87.214,-66.406 31.89,10.262 61.638,72.51 61.638,98.595 0,0 0,280.385 49.303,440.6 C 139.046,-53.582 228.408,4.981 228.408,4.981 228.408,64.839 59.887,0 0,0"
           style="fill:#108699;fill-opacity:1;fill-rule:nonzero;stroke:none"
           id="path3414" /></g><g
         id="g3416"
         transform="translate(1545.4125,3145.6636)"><path
           d="m 0,0 c -41.71,0 -107.435,-36.58 -100.564,-117.078 l 25.062,-183.342 c 0,-41.684 33.792,-75.481 75.502,-75.481 41.675,0 131.365,53.748 131.365,95.441 l -0.423,175.69 C 130.942,-63.052 41.675,0 0,0"
           style="fill:#a4eae8;fill-opacity:1;fill-rule:nonzero;stroke:none"
           id="path3418" /></g><g
         id="g3420"
         transform="translate(1590.5884,2956.5125)"><path
           d="m 0,0 c 0,25.417 16.545,46.96 39.414,54.508 -9.183,21.659 -48.859,48.042 -68.678,48.042 -22.475,0 -57.939,-19.72 -54.222,-63.12 l 13.506,-98.893 c 0,-22.478 18.241,-40.684 40.716,-40.684 20.464,0 62.366,23.996 69.727,45.257 C 17.027,-47.642 0,-25.807 0,0"
           style="fill:#a4eae8;fill-opacity:1;fill-rule:nonzero;stroke:none"
           id="path3422" /></g><g
         id="g3424"
         transform="translate(2658.7224,3794.2388)"><path
           d="m 0,0 c -78.567,4.187 -7.562,-81.719 -264.549,-81.719 -74.735,0 -191.631,33.431 -308.99,65.366 -392.009,106.708 -490.598,-53.986 -506.178,-98.611 -9.332,-26.808 -14.292,-55.214 -13.318,-80.31 1.401,-36.304 3.426,-139.797 91.763,-190.417 92.268,-52.843 160.433,50.425 381.224,11.618 157.473,-27.7 306.721,-50.808 434.258,-21.843 C 44.578,-343.614 78.55,-4.195 0,0"
           style="fill:#108699;fill-opacity:1;fill-rule:nonzero;stroke:none"
           id="path3426" /></g><g
         id="g3428"
         transform="translate(1752.1228,2076.4958)"><path
           d="m 0,0 -40.749,-71.555 74.865,-178.019 56.874,-350.983 438.301,0 35.143,343.23 L 685.796,23.603 390.881,-33.159 0,0 Z"
           style="fill:#3fd8d8;fill-opacity:1;fill-rule:nonzero;stroke:none"
           id="path3430" /></g><g
         id="g3432"
         transform="translate(2248.8948,2018.6625)"><path
           d="m 0,0 c -71.205,-19.749 -166.312,-28.141 -189.472,-29.965 -23.161,1.824 -118.267,10.216 -189.476,29.965 -81.636,22.648 -130.045,81.916 -130.045,81.916 l -99.894,-122.104 349.446,-110.84 69.969,112.24 69.966,-112.24 349.449,110.84 -99.895,122.104 C 130.048,81.916 81.64,22.648 0,0"
           style="fill:#18bfc8;fill-opacity:1;fill-rule:nonzero;stroke:none"
           id="path3434" /></g><g
         id="g3436"
         transform="translate(2058.1318,2062.5874)"><path
           d="m 0,0 -0.657,0.236 -146.984,-56.519 61.074,-109.718 88.212,-7.32 0.655,-0.053 0.656,0.066 87.996,8.974 58.151,110.827 L 0.663,-0.236 0,0 Z"
           style="fill:#108699;fill-opacity:1;fill-rule:nonzero;stroke:none"
           id="path3438" /></g><g
         id="g3440"
         transform="translate(1739.9014,2182.2622)"><path
           d="m 0,0 -99.894,-122.104 349.447,-110.84 75.223,120.67 c 0,0 -113.08,7.714 -194.731,30.36 C 48.41,-59.266 0,0 0,0"
           style="fill:#3fd8d8;fill-opacity:1;fill-rule:nonzero;stroke:none"
           id="path3442" /></g><g
         id="g3444"
         transform="translate(2248.8948,2100.3479)"><path
           d="M 0,0 C -81.647,-22.646 -194.727,-30.359 -194.727,-30.359 L -119.506,-151.03 229.943,-40.189 130.048,81.914 C 130.048,81.914 81.64,22.648 0,0"
           style="fill:#3fd8d8;fill-opacity:1;fill-rule:nonzero;stroke:none"
           id="path3446" /></g><g
         id="g3448"
         transform="translate(2064.7788,1940.9901)"><path
           d="m 0,0 -0.068,3.443 -3.77,-1.75 -3.812,1.681 0.016,-3.448 -30.11,-14.015 -43.484,-450.962 161.098,0 L 30.478,-13.45 0,0 Z"
           style="fill:#108699;fill-opacity:1;fill-rule:nonzero;stroke:none"
           id="path3450" /></g><g
         id="g3452"
         transform="translate(2396.0244,2180.48)"><path
           d="m 0,0 -17.998,18.538 -160.397,-723.079 251.331,0 23.797,271.014 -161.893,60.033 336.825,181.189 L 0,0 Z"
           style="fill:#108699;fill-opacity:1;fill-rule:nonzero;stroke:none"
           id="path3454" /></g><g
         id="g3456"
         transform="translate(1722.8195,2180.48)"><path
           d="m 0,0 -271.665,-192.305 336.824,-181.189 -161.893,-60.033 23.799,-271.014 251.329,0 L 17.996,18.538 0,0 Z"
           style="fill:#108699;fill-opacity:1;fill-rule:nonzero;stroke:none"
           id="path3458" /></g><g
         id="g3460"
         transform="translate(1805.2451,3073.5444)"><path
           d="M 0,0 567.908,-393.312 0,-786.623 0,0 Z"
           style="fill:#ffffff;fill-opacity:1;fill-rule:nonzero;stroke:none"
           id="path3462" /></g><g
         id="g3464"
         transform="translate(2015.0643,2069.146)"><path
           d="m 0,0 c -337.494,0 -611.088,273.592 -611.088,611.087 0,337.493 273.594,611.087 611.088,611.087 337.493,0 611.087,-273.594 611.087,-611.087 C 611.087,273.592 337.493,0 0,0 m 0,1348 c -406.986,0 -736.913,-329.927 -736.913,-736.913 0,-406.986 329.927,-736.913 736.913,-736.913 406.986,0 736.913,329.927 736.913,736.913 C 736.913,1018.073 406.986,1348 0,1348"
           style="fill:#ffffff;fill-opacity:1;fill-rule:nonzero;stroke:none"
           id="path3466" /></g><g
         id="g3468"
         transform="translate(3543.8843,4085.8069)"><path
           d="m 0,0 c -32.93,0 -59.637,-26.699 -59.637,-59.637 0,-32.938 26.707,-59.637 59.637,-59.637 32.93,0 59.637,26.699 59.637,59.637 C 59.637,-26.699 32.93,0 0,0"
           style="fill:#d33211;fill-opacity:1;fill-rule:nonzero;stroke:none"
           id="path3470" /></g><g
         id="g3472"
         transform="translate(3714.2759,4085.8069)"><path
           d="m 0,0 c -32.93,0 -59.637,-26.699 -59.637,-59.637 0,-32.938 26.707,-59.637 59.637,-59.637 32.93,0 59.637,26.699 59.637,59.637 C 59.637,-26.699 32.93,0 0,0"
           style="fill:#d33211;fill-opacity:1;fill-rule:nonzero;stroke:none"
           id="path3474" /></g><g
         id="g3476"
         transform="translate(3884.6677,4085.8069)"><path
           d="m 0,0 c -32.93,0 -59.637,-26.699 -59.637,-59.637 0,-32.938 26.707,-59.637 59.637,-59.637 32.929,0 59.637,26.699 59.637,59.637 C 59.637,-26.699 32.929,0 0,0"
           style="fill:#d33211;fill-opacity:1;fill-rule:nonzero;stroke:none"
           id="path3478" /></g><g
         id="g3480"
         transform="translate(3000.4546,979.8381)"><path
           d="m 0,0 c -56.965,-1.437 -124.035,29.795 -124.035,29.795 l -345.215,195.006 -98.211,478.734 c 0,0 136.535,11.577 200.554,-136.296 64.018,-147.85 92.798,-243.362 92.798,-243.362 L -1.077,250.832 c 0,0 17.955,-3.99 39.975,-16.602 C 81.363,209.889 140.999,161.002 130.536,99.68 112.93,-3.821 33.845,0.873 0,0"
           style="fill:#e09563;fill-opacity:1;fill-rule:nonzero;stroke:none"
           id="path3482" /></g><g
         id="g3484"
         transform="translate(3506.1514,1473.7767)"><path
           d="m 0,0 c 25.889,-51.786 5.283,-114.968 -46.093,-141.121 -51.345,-26.17 -113.963,-5.351 -139.844,46.436 l -283.689,567.267 c -25.896,51.811 -5.282,114.992 46.077,141.121 51.352,26.171 113.97,5.359 139.883,-46.42 L 0,0 Z"
           style="fill:#f2a977;fill-opacity:1;fill-rule:nonzero;stroke:none"
           id="path3486" /></g><g
         id="g3488"
         transform="translate(3188.7673,1683.3499)"><path
           d="m 0,0 -153.959,353.921 c -12.633,-28.005 -13.078,-61.319 1.717,-90.912 L 1.546,-64.61 C 0.841,-52.081 5.375,-12.124 0,0"
           style="fill:#e09563;fill-opacity:1;fill-rule:nonzero;stroke:none"
           id="path3490" /></g><g
         id="g3492"
         transform="translate(2657.0166,1413.4951)"><path
           d="m 0,0 137.423,-274.792 c 97.59,-195.187 333.595,-273.518 527.161,-174.949 193.501,98.53 271.262,336.635 173.649,531.84 L 700.818,356.882 0,0 Z"
           style="fill:#f2a977;fill-opacity:1;fill-rule:nonzero;stroke:none"
           id="path3494" /></g><g
         id="g3496"
         transform="translate(3303.7622,1460.4933)"><path
           d="m 0,0 c 25.906,-51.787 5.283,-114.96 -46.076,-141.122 -51.345,-26.162 -113.964,-5.358 -139.876,46.42 L -469.617,472.59 c -25.897,51.795 -5.291,114.984 46.061,141.113 51.367,26.162 113.994,5.358 139.891,-46.42 L 0,0 Z"
           style="fill:#f2a977;fill-opacity:1;fill-rule:nonzero;stroke:none"
           id="path3498" /></g><g
         id="g3500"
         transform="translate(2979.0149,1642.6956)"><path
           d="m 0,0 -146.611,381.276 c -12.601,-27.998 -13.077,-61.278 1.741,-90.889 L 8.886,-37.231 C 8.221,-24.711 5.408,-12.101 0,0"
           style="fill:#e09563;fill-opacity:1;fill-rule:nonzero;stroke:none"
           id="path3502" /></g><g
         id="g3504"
         transform="translate(3097.2246,1450.743)"><path
           d="m 0,0 c 25.912,-51.804 5.282,-114.992 -46.085,-141.129 -51.344,-26.155 -113.97,-5.367 -139.859,46.427 l -283.682,567.259 c -25.897,51.787 -5.282,114.993 46.077,141.121 51.368,26.162 113.986,5.359 139.884,-46.395 L 0,0 Z"
           style="fill:#f2a977;fill-opacity:1;fill-rule:nonzero;stroke:none"
           id="path3506" /></g><g
         id="g3508"
         transform="translate(2772.4846,1632.9283)"><path
           d="m 0,0 -146.611,381.277 c -12.625,-28.014 -13.078,-61.312 1.725,-90.905 L 8.894,-37.255 C 8.221,-24.718 5.407,-12.133 0,0"
           style="fill:#e09563;fill-opacity:1;fill-rule:nonzero;stroke:none"
           id="path3510" /></g><g
         id="g3512"
         transform="translate(2958.4954,1277.1853)"><path
           d="m 0,0 c 25.913,-51.795 5.266,-114.992 -46.07,-141.146 -51.367,-26.138 -113.962,-5.359 -139.875,46.461 l -491.301,982.431 c -25.895,51.803 -5.258,114.966 46.094,141.129 51.343,26.121 113.963,5.351 139.867,-46.428 L 0,0 Z"
           style="fill:#f2a977;fill-opacity:1;fill-rule:nonzero;stroke:none"
           id="path3514" /></g><g
         id="g3516"
         transform="translate(2456.2546,2202.7654)"><path
           d="m 0,0 -23.079,46.171 c -16.384,32.778 -56.082,45.975 -88.605,29.402 -32.514,-16.565 -45.578,-56.573 -29.171,-89.4 l 23.079,-46.155 c 0,0 22.197,-2.653 61.166,17.653 C -8.264,-17.095 -9.269,-11.868 0,0"
           style="fill:#ffd9b4;fill-opacity:1;fill-rule:nonzero;stroke:none"
           id="path3518" /></g><g
         id="g3520"
         transform="translate(2656.2666,1821.752)"><path
           d="M 0,0 C 1.866,-3.724 0.391,-8.289 -3.343,-10.188 L -120.34,-69.782 c -3.709,-1.892 -8.232,-0.398 -10.106,3.36 -1.881,3.749 -0.382,8.288 3.335,10.188 L -10.106,3.361 C -6.388,5.26 -1.882,3.75 0,0"
           style="fill:#ffd9b4;fill-opacity:1;fill-rule:nonzero;stroke:none"
           id="path3522" /></g><g
         id="g3524"
         transform="translate(2642.6323,1772.7979)"><path
           d="M 0,0 C 1.658,-3.3 0.349,-7.316 -2.938,-8.991 L -60.8,-38.455 c -3.279,-1.674 -7.285,-0.354 -8.919,2.961 -1.666,3.316 -0.34,7.341 2.939,9.016 L -8.935,2.994 C -5.648,4.66 -1.642,3.331 0,0"
           style="fill:#ffd9b4;fill-opacity:1;fill-rule:nonzero;stroke:none"
           id="path3526" /></g><g
         id="g3528"
         transform="translate(3652.8276,1277.668)"><path
           d="M 0,0 -83.979,58.612 -537.178,-402.201 -181.8511,-816.60738 0,-536.559 Z"
           style="fill:#ffffff;fill-opacity:1;fill-rule:nonzero;stroke:none"
           id="path3530" /></g><g
         id="g3532"
         transform="translate(4448.2197,583.9682)"><path
           style="fill:#10323f;fill-opacity:1;fill-rule:nonzero;stroke:none"
           d="m 4549.9727,3584.2852 -696.3887,721.1836 366.1015,365.9492 1340.5899,0 0,-154.4785 -1010.3027,-932.6543 z"
           transform="matrix(0.8,0,0,-0.8,-4448.2197,3613.5518)"
           id="path3534" /></g><g
         id="g3536"
         transform="translate(3358.4292,651.4604)"><path
           d="m 0,0 c -0.412,-24.435 19.062,-44.577 43.496,-44.989 24.435,-0.413 44.577,19.061 44.99,43.496 C 88.898,22.941 69.424,43.084 44.99,43.496 20.555,43.909 0.413,24.435 0,0"
           style="fill:#26575c;fill-opacity:1;fill-rule:nonzero;stroke:none"
           id="path3538" /></g><g
         id="g3540"
         transform="translate(3253.8252,746.7943)"><path
           d="m 0,0 c -0.412,-24.435 19.062,-44.577 43.496,-44.99 24.435,-0.412 44.577,19.062 44.99,43.497 C 88.898,22.941 69.424,43.084 44.99,43.496 20.555,43.909 0.413,24.435 0,0"
           style="fill:#26575c;fill-opacity:1;fill-rule:nonzero;stroke:none"
           id="path3542" /></g></g></g></svg>