<svg xmlns="http://www.w3.org/2000/svg" viewBox="0 0 212.8 211.46"><defs><style>.a{fill:#cee9fa;}.b{fill:#fff;}.c{fill:#fcfcfc;}.d{fill:#b7e2a2;}.e{fill:#def7d9;}.f{fill:#b2d49d;}.g{fill:#e5edf8;}.h{fill:#0a81b8;}.i{fill:#a1def8;stroke:#147aac;stroke-miterlimit:10;stroke-width:0.5px;}.j{fill:#0083ba;}</style></defs><title>1_semana</title><path class="a" d="M205.44,105.89h0a17.57,17.57,0,0,1-3.65-25.09h0a17.55,17.55,0,0,0-13-28.32h0a17.54,17.54,0,0,1-16.6-19.13h0A17.52,17.52,0,0,0,146,16.55h0a17.49,17.49,0,0,1-24.29-7.1,17.49,17.49,0,0,0-31.1.05h0a17.49,17.49,0,0,1-24.26,7.18h0A17.51,17.51,0,0,0,40.25,33.58,17.53,17.53,0,0,1,23.72,52.76,17.55,17.55,0,0,0,10.86,81.13a17.57,17.57,0,0,1-3.55,25.1,17.56,17.56,0,0,0,4.48,30.83,17.56,17.56,0,0,1,10.55,23h0a17.53,17.53,0,0,0,20.41,23.51,17.51,17.51,0,0,1,21.31,13.67A17.5,17.5,0,0,0,93.91,206a17.48,17.48,0,0,1,25.3,0A17.5,17.5,0,0,0,149,197.14a17.51,17.51,0,0,1,21.26-13.74,17.53,17.53,0,0,0,20.32-23.58h0a17.55,17.55,0,0,1,10.47-23.08h0A17.56,17.56,0,0,0,205.44,105.89Z"/><path class="b" d="M132.29,69.3c-2.91-.58-5.69-2.47-6.41-5.48a9.84,9.84,0,0,1,.81-6.25,6,6,0,0,0,.42-4.94,5,5,0,0,0-5.36-3.05c-1.45.21-2.56,1.18-3.89,1.71a7.5,7.5,0,0,1-10-4.52c-0.59-1.62-.86-3.11-2.43-4.14a5.25,5.25,0,0,0-5.83.11c-1.57,1.12-1.8,2.73-2.4,4.4a7.4,7.4,0,0,1-4,4.46,9.1,9.1,0,0,1-6.76-.38c-1.71-.73-3.21-1.45-5.11-0.72a5.12,5.12,0,0,0-3.15,5.79c0.27,1.3,1.17,2.37,1.62,3.6a7.19,7.19,0,0,1-.17,5.65,8.89,8.89,0,0,1-4.77,4.29c-1.31.54-2.58,0.85-3.53,2a5.13,5.13,0,0,0,.08,6.52,7.24,7.24,0,0,0,3.65,1.93,8.81,8.81,0,0,1,4,2.51,7.58,7.58,0,0,1,1.3,6.69C80,91,79,92.36,78.73,93.9a5.13,5.13,0,0,0,3.79,5.7c2,0.58,3.31-.07,5-0.93A7.52,7.52,0,0,1,98,102c0.55,1,.77,2.16,1.32,3.15a5.07,5.07,0,0,0,6.23,2.28c3.43-1.34,3-5.07,5-7.61a6.94,6.94,0,0,1,6.2-2.53c1.92,0.15,3.11,1.09,4.83,1.65a5.31,5.31,0,0,0,6.3-2.79c0.88-1.93.32-3.75-.71-5.46a7.3,7.3,0,0,1,2.63-10.34,15.75,15.75,0,0,1,2.82-1.25,5.35,5.35,0,0,0,3.56-5A5.16,5.16,0,0,0,132.29,69.3Z"/><path class="c" d="M146.41,62.39a2.93,2.93,0,1,1,2.78-2.14A2.93,2.93,0,0,1,146.41,62.39Zm-0.06-4.34a1.41,1.41,0,1,0,.4.05A1.41,1.41,0,0,0,146.35,58.05Z"/><rect class="d" x="49.28" y="70.96" width="109.17" height="49.62" rx="4" ry="4" transform="translate(-0.25 0.28) rotate(-0.15)"/><circle class="e" cx="103.89" cy="95.77" r="19.12" transform="translate(-0.25 0.28) rotate(-0.15)"/><path class="b" d="M89.31,134.89c-0.68,2-1.38,3.86-1.9,5.14-0.41,1-1.16,2.53-.59,2.78a0.6,0.6,0,0,0,.75-0.41,31.55,31.55,0,0,0,2.1-4.45c1.38-3.69,2.67-7.24,3.64-10.92a34.87,34.87,0,0,0,1.31-11.57c-0.14-2.19-.38-4.36-0.6-6.5a27.37,27.37,0,0,1-.12-6.18,3.56,3.56,0,0,1,1-2.21,3.8,3.8,0,0,1,2.26-.8,13.67,13.67,0,0,1,3,.2,7.9,7.9,0,0,1,1.33.32,5.55,5.55,0,0,1,1.14.64s0.1,0.06.29,0.21,0.44,0.37.72,0.71a11,11,0,0,1,1.89,3,28.22,28.22,0,0,1,2,8.69,78.4,78.4,0,0,1,.18,11.17,36.45,36.45,0,0,1-2.13,11,33.13,33.13,0,0,1-2,4.31,0.63,0.63,0,0,0,0,.85c0.24,0.22.61,0,1-.5a8.4,8.4,0,0,0,1-1.6,34.6,34.6,0,0,0,3-8.58c0.17-.73.32-1.46,0.44-2.17h0a2.35,2.35,0,0,0,.32,0h0.48a2,2,0,0,1,.31,0,4.52,4.52,0,0,1,2.6.28,16.73,16.73,0,0,1,2.41,1.55,9.74,9.74,0,0,1,2.81,3.71,9.19,9.19,0,0,1,1,4.4,13.24,13.24,0,0,1-.77,5.56,0.44,0.44,0,0,0,.24.66,0.49,0.49,0,0,0,.77-0.24,23.26,23.26,0,0,0,1.14-3.06,14.68,14.68,0,0,0,.6-4,7.28,7.28,0,0,0-.32-2.26c-0.1-.31-0.19-0.58-0.3-0.85a12.93,12.93,0,0,1,7.88.95c0.17,0.11.38,0.22,0.58,0.34l0.57,0.49c0.18,0.2.35,0.46,0.55,0.71s0.32,0.62.5,0.93a18.44,18.44,0,0,1,1.14,5.44c0.34,4.29.06,9.52-.08,14.86,0,1.35-.11,2.67-0.06,4.06a35.55,35.55,0,0,0,.37,4c0.37,2.63.92,5.14,1.49,7.48a114.54,114.54,0,0,0,3.33,11.09c0.46,1.32,1,2.68,1.51,4a2,2,0,0,1-1.08,2.5,2.13,2.13,0,0,1-.75.14h-3.2l-4.28,0-17.18.13L94.43,191l-4.29,0H88a2,2,0,0,1-1.32-.53,1.74,1.74,0,0,1-.39-0.61l-0.4-1c-0.26-.65-0.52-1.3-0.74-2-0.48-1.31-.89-2.65-1.28-4a94.88,94.88,0,0,1-3.17-18.65L80.56,162l-0.06-1.18c0-.38,0-0.78-0.06-1.27a7.61,7.61,0,0,0-.81-2.65c-0.52-.89-0.89-1.39-1.32-2.07a29.27,29.27,0,0,1-3.68-8.37,23.2,23.2,0,0,1-.63-6,15.88,15.88,0,0,1,1.31-5.82,15.25,15.25,0,0,1,5.5-6.43,16.26,16.26,0,0,1,5.13-2.26,17.37,17.37,0,0,1,5.76-.47,62.28,62.28,0,0,1-1.43,6.21c-0.17.58-.34,1.16-0.51,1.72h-0.1a6.2,6.2,0,0,0-2.3.67,11.88,11.88,0,0,0-3,2,16.44,16.44,0,0,0-1.08,1.78s-0.12.13,0.14,0.31,0.38,0.1.4,0.07a7.52,7.52,0,0,1,1.63-1.52,17.55,17.55,0,0,1,2.2-1.39,3.9,3.9,0,0,1,1.39-.36A1.62,1.62,0,0,0,89.31,134.89Z"/><path class="f" d="M93.52,99c-5.45,1.56-5.44,10.32-5.34,16.16a15.82,15.82,0,0,0,0,2.25c0,0.08,0,.16,0,0.24h0c0,0.21,0,.42.06,0.64,0.28,2.34,4.39,3.49,5.19,1.72,0.51-.26-0.33-2.12-0.21-2.83a2.73,2.73,0,0,0,.64-2.15,2.28,2.28,0,0,0,0-.63c-0.33-3.78-2.48-8.6-.06-11.66C95.29,101,95.63,98.43,93.52,99Z"/><path class="c" d="M113.75,37.07a2.93,2.93,0,1,1,2.78-2.14A2.93,2.93,0,0,1,113.75,37.07Zm-0.06-4.34a1.41,1.41,0,1,0,.4.05A1.41,1.41,0,0,0,113.69,32.73Z"/><circle class="c" cx="67.26" cy="58.46" r="2.93" transform="translate(-18.28 33.49) rotate(-24.72)"/><path class="c" d="M86.1,31.44l1.26,2.39a1.22,1.22,0,0,0,.48.49l2.35,1.33a1.22,1.22,0,0,1,0,2.14L87.78,39a1.22,1.22,0,0,0-.49.48L86,41.88a1.22,1.22,0,0,1-2.14,0l-1.26-2.39A1.22,1.22,0,0,0,82.08,39l-2.35-1.33a1.22,1.22,0,0,1,0-2.14l2.39-1.26a1.22,1.22,0,0,0,.49-0.48L84,31.41A1.22,1.22,0,0,1,86.1,31.44Z"/><path class="c" d="M131.66,39.92l2.41-1.23a1.22,1.22,0,0,0,.5-0.47l1.36-2.33a1.22,1.22,0,0,1,2.14.06l1.23,2.41a1.22,1.22,0,0,0,.47.5l2.33,1.36a1.22,1.22,0,0,1-.06,2.14l-2.41,1.23a1.22,1.22,0,0,0-.5.47l-1.36,2.33a1.22,1.22,0,0,1-2.14-.06l-1.23-2.41a1.22,1.22,0,0,0-.47-0.5l-2.33-1.36A1.22,1.22,0,0,1,131.66,39.92Z"/><path class="g" d="M91.37,125.41a2.62,2.62,0,0,0-1.94,0,2,2,0,0,0-2.46-.07,1.7,1.7,0,0,0-2.3,1.32,1.48,1.48,0,0,0-.67,1.42c0.17,2.57.25,5.13,0.25,7.71a1.83,1.83,0,0,0,.21.88c-0.09.81-.19,1.62-0.26,2.44a1.53,1.53,0,0,0,0,.41l-0.33,3c-0.22,2,3,2.34,3.47.47L91,130a1.64,1.64,0,0,0,.44-0.17A2.46,2.46,0,0,0,91.37,125.41Z"/><path class="g" d="M110.22,127.7a1.4,1.4,0,0,0-2,.76c-1.58,3.71-1.76,7.68-3.83,11.52-0.92,1.72.29,3.17,1.88,1.76a21.51,21.51,0,0,0,5.56-7.7,13.87,13.87,0,0,0,1-3,1.88,1.88,0,0,0,0-.77l0.13-.67A1.81,1.81,0,0,0,110.22,127.7Z"/><path class="g" d="M122,133.31c-0.93-1.12-3.21-.78-3.16,1.06,0.1,3,1.12,5.92.18,8.8-0.46,1.41-.11,2.86,1.16,2,3.43-2.37,4-6.39,4.17-10.28A1.63,1.63,0,0,0,122,133.31Z"/><path class="g" d="M79.81,169.62a1.88,1.88,0,0,0,.13,1.38,39.38,39.38,0,0,0,3.56,12.39,1.91,1.91,0,0,0-.21,1.12,9.5,9.5,0,0,0,1.82,4.37,1.5,1.5,0,0,0,.36.44,11.55,11.55,0,0,0,3,2.42,1.75,1.75,0,0,0,1.61,0c0.17,0.12.33,0.24,0.51,0.35a1.68,1.68,0,0,0,1.9-.13,28.77,28.77,0,0,0,4.45.63c1.31,0.08,4,1.21,1.53-2.53A69.35,69.35,0,0,1,89.28,171q3.58-.39,7.15-0.85a1.82,1.82,0,0,0,.93.29l7.44,0.32c0.24,0.15,1.55-.54,1.9-0.51a66.61,66.61,0,0,0,14.27.2c0.47,0,1.16.45,1.43,0.2l0.07,0c1.72,0.3,3.53-.81,5.26-0.51a3.61,3.61,0,0,0,1.27,0,2.06,2.06,0,0,0,2.47,0c0.07-.07.91,0,1,0,1.56-.28.39-1.58-1.15-2.17a1.84,1.84,0,0,0-1.1-1.09l-0.23-.07a1.84,1.84,0,0,0-.5-0.19l-0.24-.05a1.51,1.51,0,0,0-1.17-1c-1.75-.38-3.48-0.73-5.2-1a33.16,33.16,0,0,0-9.3-1.14,1.63,1.63,0,0,0-.73-0.13A138.9,138.9,0,0,0,91.88,166c-1.3.25-2.6,0.54-3.9,0.82"/><path class="g" d="M83.13,166.65l-0.09,0"/><path class="h" d="M118.49,144.93a0.45,0.45,0,0,0,.65-0.3,22.78,22.78,0,0,0,1.12-3,14.22,14.22,0,0,0,.54-4,7.57,7.57,0,0,0-.34-2.21,12.81,12.81,0,0,0-.85-2,13.9,13.9,0,0,0-2.59-3.57,15.65,15.65,0,0,0-1.9-1.61,10.07,10.07,0,0,0-2.26-1.31,6,6,0,0,0-1.79-.25,9.79,9.79,0,0,0-1.23,0l-0.36,0h-0.09s0-.06,0,0.06,0,0.18,0,.27a0.79,0.79,0,0,1,0,.19,1.16,1.16,0,0,1-.05.18,0.19,0.19,0,0,1,0,.1c0,0.06,0,0,0,0a0.4,0.4,0,0,1,.17.09c0.1,0.09,0,.08,0-0.09a0.17,0.17,0,0,1,0-.1,0,0,0,0,1,0,0,0.23,0.23,0,0,1-.18,0,1.53,1.53,0,0,1-.45-0.1l-0.16,0s0,0,0,0v0.06l1.71,0.49,0-.08a1,1,0,0,0,0-.15,1.34,1.34,0,0,0,0-.31,1.24,1.24,0,0,0,0-.24,0.83,0.83,0,0,0-.14-0.28,1,1,0,0,0-.67-0.4,1.08,1.08,0,0,0-.45,0,1.25,1.25,0,0,0-.43.24,1.13,1.13,0,0,0-.33.44,1.06,1.06,0,0,0-.06.2,1.09,1.09,0,0,0,0,.33,1,1,0,0,0,.32.6,1.22,1.22,0,0,0,.34.2,1.17,1.17,0,0,0,.2.05,1.27,1.27,0,0,0,.27,0h0.46l0.31,0a5.12,5.12,0,0,1,2.73.31,15,15,0,0,1,2.46,1.59,10.22,10.22,0,0,1,2.89,3.79,11.64,11.64,0,0,1,.82,2.23,9.83,9.83,0,0,1,.22,2.31,13.7,13.7,0,0,1-.92,5.6A0.41,0.41,0,0,0,118.49,144.93Z"/><path class="h" d="M105.43,139.46a34.56,34.56,0,0,0,3-8.55,57,57,0,0,0,1.24-9.32,51.47,51.47,0,0,0-.24-6.09c0-.3,0-0.92-0.12-1.76a20.44,20.44,0,0,0-.75-5.46c-0.18-.53-0.37-1.31-0.72-2.21a15.66,15.66,0,0,0-2.07-4.19L105,101c-0.24-.25-0.47-0.45-0.65-0.63a2.67,2.67,0,0,0-.47-0.39l-0.19-.12a7.21,7.21,0,0,0-3.34-1.3,18.63,18.63,0,0,0-3-.13,7.08,7.08,0,0,0-3.17.8A4.36,4.36,0,0,0,92.54,101a7.18,7.18,0,0,0-.75,2.7,29.43,29.43,0,0,0,.26,5.83c0.49,3.8.81,7.23,0.8,8.08,0,1-.07,2-0.13,2.94s-0.21,1.93-.37,2.93a59.5,59.5,0,0,1-1.88,9,78,78,0,0,1-2.91,8.35c-0.42,1-1.17,2.54-.72,2.73,0.17,0.07.41,0,.64-0.46a38.49,38.49,0,0,0,2.05-4.45,106.55,106.55,0,0,0,3.58-10.92,36.43,36.43,0,0,0,1.24-11.51c-0.13-2.18-.37-4.35-0.58-6.49a27.53,27.53,0,0,1-.14-6.24,3.32,3.32,0,0,1,3.5-3.23,13.33,13.33,0,0,1,3,.2,8.64,8.64,0,0,1,1.39.33,5.82,5.82,0,0,1,1.2.67s0.11,0.07.3,0.23,0.46,0.39.75,0.74a11.42,11.42,0,0,1,1.92,3.11,24,24,0,0,1,1.41,4.49,37.94,37.94,0,0,1,.62,4.28,72.57,72.57,0,0,1,.12,11.22,38.45,38.45,0,0,1-2.22,11,27.68,27.68,0,0,1-2,4.32c-0.25.41-.22,0.67-0.09,0.79s0.53-.12.91-0.57A10,10,0,0,0,105.43,139.46Z"/><path class="h" d="M83.44,138.88c0.24,0.17.31,0,.33,0a6.2,6.2,0,0,1,.67-0.76,7.92,7.92,0,0,1,.94-0.8,16.8,16.8,0,0,1,2.22-1.43,4.54,4.54,0,0,1,1.39-.4c0.15,0,.29-0.08.41-0.09a1.84,1.84,0,0,1,.55,0l0.5-.95a1.74,1.74,0,0,0-.79-0.21,6.06,6.06,0,0,0-2.23.65,11.94,11.94,0,0,0-2.95,2,15.22,15.22,0,0,0-1.13,1.71S83.25,138.74,83.44,138.88Z"/><path class="h" d="M119.07,134.45c2.83-.67,6.49-0.73,9.25.8,0.18,0.11.39,0.22,0.6,0.36l0.58,0.51c0.19,0.22.36,0.48,0.56,0.74s0.32,0.63.5,1a18.17,18.17,0,0,1,1.13,5.48c0.34,4.3.06,9.54-.09,14.89,0,1.34-.1,2.66-0.06,4a35.6,35.6,0,0,0,.37,4c0.38,2.62.92,5.14,1.49,7.46a115.39,115.39,0,0,0,3.35,11.06c0.47,1.33,1,2.68,1.52,4a2.15,2.15,0,0,1-1.17,2.73,2.3,2.3,0,0,1-.81.16h-3.2l-4.28,0-17.18.14-17.2.16-4.29,0L88,192a2.1,2.1,0,0,1-1.46-.6,2,2,0,0,1-.44-0.67l-0.39-1c-0.27-.65-0.53-1.3-0.75-2-0.48-1.32-.9-2.66-1.29-4a96.64,96.64,0,0,1-3.2-18.68c-0.06-.79-0.11-1.58-0.16-2.36l-0.06-1.18c0-.39,0-0.78-0.07-1.24a7.13,7.13,0,0,0-.78-2.56c-0.49-.84-0.89-1.38-1.32-2.06a29.09,29.09,0,0,1-3.73-8.43,22.48,22.48,0,0,1-.65-6.11,16.18,16.18,0,0,1,1.34-5.92,12.75,12.75,0,0,1,.85-1.62c0.18-.27.33-0.57,0.54-0.85l0.65-.84a16.42,16.42,0,0,1,8.8-5.53,17.56,17.56,0,0,1,6.53-.4l0.38-1.74a19.4,19.4,0,0,0-9.11.86,18.4,18.4,0,0,0-5.4,3,17,17,0,0,0-4.42,5.35A17.79,17.79,0,0,0,71.93,140a22,22,0,0,0,.43,6.69,26.2,26.2,0,0,0,2.17,6.25c0.45,1,1,1.94,1.57,2.9,0.28,0.47.6,0.92,0.9,1.38s0.64,0.94.84,1.29a5.6,5.6,0,0,1,.7,2.68c0,1.08.12,2.17,0.2,3.25a107.06,107.06,0,0,0,1.8,13.08,76.76,76.76,0,0,0,2.78,10.27c0.3,0.84.59,1.68,0.94,2.5l0.52,1.27a3.52,3.52,0,0,0,1.11,1.34,3.66,3.66,0,0,0,1.59.65,4.41,4.41,0,0,0,.81,0h0.66l2.64,0,21.14-.15,21.15-.14c0.9,0,1.71,0,2.69,0a3.71,3.71,0,0,0,2.92-1.83,3.77,3.77,0,0,0,.19-3.41c-0.33-.8-0.66-1.61-1-2.42-1.25-3.25-2.33-6.57-3.27-9.92A66.61,66.61,0,0,1,133,162.88c0-.54,0-1.06,0-1.59l0-1.65,0.09-3.31c0.07-2.21.14-4.42,0.17-6.64s0-4.45-.16-6.69a17.6,17.6,0,0,0-1.63-6.71,6.74,6.74,0,0,0-2.65-2.58,10.87,10.87,0,0,0-3.32-1.18,16.86,16.86,0,0,0-6.79.18Z"/><path class="h" d="M120.34,134.47a11.46,11.46,0,0,0-1.21.23l-0.54-2.23,0.67-.13c0.19,0.29.35,0.6,0.52,0.92S120.17,134.05,120.34,134.47Z"/><path class="h" d="M109.46,127.62a0,0,0,0,1,0,0h0Z"/><path class="h" d="M118.22,144.26a13.24,13.24,0,0,0,.77-5.56,9.19,9.19,0,0,0-1-4.4,9.74,9.74,0,0,0-2.81-3.71,16.73,16.73,0,0,0-2.41-1.55,4.52,4.52,0,0,0-2.6-.28,2,2,0,0,0-.31,0h-0.48a2.35,2.35,0,0,1-.32,0h0c0.08-.41.15-0.81,0.21-1.21l0.23,0.07h0a0,0,0,0,0,0,0l1.1,0.32,0-.08a0.3,0.3,0,0,0,0-.17,1.33,1.33,0,0,0,0-.38,1.85,1.85,0,0,0,0-.31,1.24,1.24,0,0,0-.18-0.35,1.29,1.29,0,0,0-.36-0.33c0.39,0,.75,0,1,0a6,6,0,0,1,1.85.27,10,10,0,0,1,2.3,1.4,15.83,15.83,0,0,1,1.91,1.65,13.06,13.06,0,0,1,2.11,2.7l-0.67.13,0.54,2.23a11.46,11.46,0,0,1,1.21-.23c0.11,0.27.21,0.55,0.3,0.85a7.28,7.28,0,0,1,.32,2.26,14.68,14.68,0,0,1-.6,4,23.26,23.26,0,0,1-1.14,3.06,0.49,0.49,0,0,1-.77.24A0.44,0.44,0,0,1,118.22,144.26Z"/><path class="h" d="M109.3,127.41l0.1,0a0.42,0.42,0,0,0,0,.13l0,0.1h0l0,0a0.33,0.33,0,0,0-.17-0.09h0A0.16,0.16,0,0,0,109.3,127.41Z"/><path class="h" d="M109.35,127.19a0.45,0.45,0,0,0,0-.2,1.89,1.89,0,0,0,0-.26,0.52,0.52,0,0,0,0-.13s0-.07,0-0.1a0.4,0.4,0,0,1,0-.1h0.06l0.36,0,0.23,0a1.29,1.29,0,0,1,.36.33,1.24,1.24,0,0,1,.18.35,1.85,1.85,0,0,1,0,.31,1.33,1.33,0,0,1,0,.38,0.3,0.3,0,0,1,0,.17l0,0.08-1.1-.32,0-.1a0.42,0.42,0,0,1,0-.13l-0.1,0a0,0,0,0,0,0,0A0.91,0.91,0,0,0,109.35,127.19Z"/><path class="h" d="M109.25,127.52a0.33,0.33,0,0,1,.17.09l0,0-0.23-.07a0,0,0,0,0,0,0h0Z"/><path class="h" d="M109.25,127.48h0a0.18,0.18,0,0,1,0-.08h0A0.16,0.16,0,0,1,109.25,127.48Z"/><path class="h" d="M109.24,127.51h0s0,0,0,0h0Z"/><path class="h" d="M109.26,127.41c0-.27.08-0.54,0.12-0.81a0.52,0.52,0,0,1,0,.13,1.89,1.89,0,0,1,0,.26,0.45,0.45,0,0,1,0,.2,0.91,0.91,0,0,1,0,.18,0,0,0,0,1,0,0h0Z"/><path class="h" d="M109.83,126.35l-0.36,0H109.4c0-.1,0-0.18,0-0.26a0.32,0.32,0,0,1,.13,0,1.22,1.22,0,0,1,.5.19Z"/><path class="h" d="M109.4,126.4a0.4,0.4,0,0,0,0,.1,1,1,0,0,1,0-.1h0Z"/><path class="h" d="M108.34,127.3a0.81,0.81,0,0,1,.44,0,1.65,1.65,0,0,0,.45.09h0a0.18,0.18,0,0,0,0,.08h0s0,0,0,0a0,0,0,0,1,0,0Z"/><path class="h" d="M108.34,127.3l0.88,0.26c-0.07.4-.13,0.8-0.21,1.21l-0.2-.07a1.58,1.58,0,0,1-.42-0.25,1.28,1.28,0,0,1-.41-0.76,1.14,1.14,0,0,1,0-.42,1,1,0,0,1,.08-0.25,1.37,1.37,0,0,1,.41-0.54,1.3,1.3,0,0,1,.51-0.28,1.25,1.25,0,0,1,.43-0.06c0,0.08,0,.16,0,0.26h0a1,1,0,0,0,0,.1s0,0.07,0,.1c0,0.27-.09.53-0.12,0.81h0a1.65,1.65,0,0,1-.45-0.09A0.81,0.81,0,0,0,108.34,127.3Z"/><path class="h" d="M90.53,134.36l-0.64,1.23c-0.17,0-.32,0-0.46,0l-0.12,0c0.15-.49.31-1,0.45-1.49A1.9,1.9,0,0,1,90.53,134.36Z"/><path class="h" d="M92.85,124l-0.48,2.26a6.06,6.06,0,0,0-.66-0.06c0.15-.83.26-1.6,0.35-2.29C92.32,123.93,92.58,124,92.85,124Z"/><path class="h" d="M85.46,137.41a7.52,7.52,0,0,0-1.63,1.52s-0.09.15-.4-0.07-0.16-.29-0.14-0.31a16.44,16.44,0,0,1,1.08-1.78,11.88,11.88,0,0,1,3-2,6.2,6.2,0,0,1,2.3-.67h0.1c-0.15.5-.3,1-0.45,1.49a1.62,1.62,0,0,1-.27,0,3.9,3.9,0,0,0-1.39.36A17.55,17.55,0,0,0,85.46,137.41Z"/><path class="h" d="M105.5,136.46a36.45,36.45,0,0,0,2.13-11,78.4,78.4,0,0,0-.18-11.17,28.22,28.22,0,0,0-2-8.69,11,11,0,0,0-1.89-3c-0.28-.34-0.56-0.53-0.72-0.71s-0.29-.2-0.29-0.21a5.55,5.55,0,0,0-1.14-.64,7.9,7.9,0,0,0-1.33-.32,13.67,13.67,0,0,0-3-.2,3.8,3.8,0,0,0-2.26.8,3.56,3.56,0,0,0-1,2.21,27.37,27.37,0,0,0,.12,6.18c0.22,2.14.46,4.31,0.6,6.5a34.87,34.87,0,0,1-1.31,11.57c-1,3.68-2.26,7.23-3.64,10.92a31.55,31.55,0,0,1-2.1,4.45,0.6,0.6,0,0,1-.75.41c-0.57-.25.18-1.76,0.59-2.78,0.52-1.27,1.22-3.09,1.9-5.14l0.12,0c0.14,0,.3,0,0.46,0l0.64-1.23a1.9,1.9,0,0,0-.77-0.23c0.17-.56.34-1.14,0.51-1.72a62.28,62.28,0,0,0,1.43-6.21,6.06,6.06,0,0,1,.66.06L92.85,124c-0.27,0-.53-0.07-0.79-0.1,0-.14,0-0.3.06-0.45,0.12-1,.26-1.95.38-2.91s0.19-1.92.16-2.93c0-.85-0.34-4.26-0.86-8.07a28.93,28.93,0,0,1-.28-5.88,7.57,7.57,0,0,1,.78-2.8A4.66,4.66,0,0,1,94.05,99a7.57,7.57,0,0,1,3.29-.81,19.24,19.24,0,0,1,3.07.1,7.5,7.5,0,0,1,3.46,1.36,1.37,1.37,0,0,1,.19.12,2.54,2.54,0,0,1,.5.4c0.19,0.18.43,0.4,0.67,0.64l0.72,0.88A15.7,15.7,0,0,1,108,106c0.35,0.91.54,1.69,0.73,2.23a18.07,18.07,0,0,1,.69,5.49c0.08,0.84.09,1.47,0.12,1.77a51.29,51.29,0,0,1,.29,6.12c-0.07,1.25-.2,2.83-0.43,4.54a1.25,1.25,0,0,0-.43.06,1.3,1.3,0,0,0-.51.28,1.37,1.37,0,0,0-.41.54,1,1,0,0,0-.08.25,1.14,1.14,0,0,0,0,.42,1.28,1.28,0,0,0,.41.76,1.58,1.58,0,0,0,.42.25l0.2,0.07c-0.12.72-.28,1.45-0.44,2.17a34.6,34.6,0,0,1-3,8.58,8.4,8.4,0,0,1-1,1.6c-0.41.45-.78,0.71-1,0.5a0.63,0.63,0,0,1,0-.85A33.13,33.13,0,0,0,105.5,136.46Z"/><path class="h" d="M139.95,187.88a4,4,0,0,1-3.36,5.65c-1,0-1.79,0-2.71,0l-21.15.12-21.13.13-2.64,0a11.06,11.06,0,0,1-1.51,0,4.06,4.06,0,0,1-1.71-.71,3.83,3.83,0,0,1-1.18-1.44L84,190.37c-0.35-.82-0.65-1.67-1-2.51a77.91,77.91,0,0,1-2.79-10.3,108.47,108.47,0,0,1-1.8-13.1c-0.09-1.09-.15-2.17-0.19-3.26a5.25,5.25,0,0,0-.67-2.56L75.88,156c-0.54-1-1.12-1.9-1.57-2.91A24.79,24.79,0,0,1,71.68,140a17.52,17.52,0,0,1,6.44-12.08,18.35,18.35,0,0,1,5.46-3,19.55,19.55,0,0,1,8.48-1c-0.09.69-.21,1.45-0.35,2.29a17.37,17.37,0,0,0-5.76.47,16.26,16.26,0,0,0-5.13,2.26,15.25,15.25,0,0,0-5.5,6.43A15.88,15.88,0,0,0,74,141.18a23.2,23.2,0,0,0,.63,6,29.27,29.27,0,0,0,3.68,8.37c0.43,0.68.8,1.18,1.32,2.07a7.61,7.61,0,0,1,.81,2.65c0.05,0.49,0,.89.06,1.27l0.06,1.18,0.16,2.35a187.38,187.38,0,0,0,3.17,18.65c0.38,1.34.8,2.68,1.28,4,0.23,0.66.48,1.31,0.74,2l0.4,1a1.74,1.74,0,0,0,.39.61,2,2,0,0,0,1.32.53h2.11l4.29,0,17.19-.17,17.18-.13,4.28,0h3.2a2.13,2.13,0,0,0,.75-0.14,2,2,0,0,0,1.08-2.5c-0.51-1.29-1-2.64-1.51-4a114.54,114.54,0,0,1-3.33-11.09q-0.21-.88-0.42-1.79c-0.41-1.82-.79-3.72-1.07-5.7a35.55,35.55,0,0,1-.37-4c0-1.39,0-2.7.06-4.06,0.14-5.34.42-10.58,0.08-14.86a18.44,18.44,0,0,0-1.14-5.44c-0.18-.32-0.33-0.65-0.5-0.93s-0.37-.51-0.55-0.71l-0.57-.49c-0.2-.13-0.41-0.23-0.58-0.34a12.93,12.93,0,0,0-7.88-.95c-0.17-.42-0.36-0.81-0.56-1.22s-0.33-.62-0.52-0.92a16.79,16.79,0,0,1,6.24,0,11.31,11.31,0,0,1,3.39,1.21,7.08,7.08,0,0,1,2.75,2.68,17.76,17.76,0,0,1,1.66,6.81c0.18,2.25.19,4.48,0.16,6.72s-0.1,4.43-.17,6.64l-0.08,3.3,0,1.66c0,0.51,0,1,.06,1.57a67,67,0,0,0,2.47,12.71c0.95,3.34,2,6.66,3.27,9.89C139.29,186.29,139.62,187.08,139.95,187.88Z"/><path class="i" d="M81.21,170.11S83.53,192.7,89,192c0.85-.11,37.16.28,47.35-0.79,1.32-.14,2.44-1.63,1.86-2.82-2.17-4.42-4.34-12.46-5.74-18.29H81.21Z"/><line class="h" x1="80.38" y1="170.11" x2="133.84" y2="169.71"/><path class="j" d="M133.83,168.82a19.48,19.48,0,0,0-2.66.25c-1.91.35-10.78,0.26-13.55,0.19-5.92-.14-12,0-18,0-3.35,0-6.68-.06-10-0.2-1.09,0-2.3,0-3.39,0-1.28,0-3.27,0-5.86.12V171c1.87,0,3,0,3.84,0,4.67-.16,9,0,13.64-0.11,7.35-.15,14.79,0,22.15-0.1,4.61-.08,9.32-0.18,13.81-0.18v-1.78Z"/><path class="j" d="M132.37,181.56a6.47,6.47,0,0,1-.54,2,2.84,2.84,0,0,1-1.28,1.33,1.91,1.91,0,0,1-1.08.29,1.86,1.86,0,0,1-.35-0.09,4.77,4.77,0,0,0-1-.6,2.67,2.67,0,0,1-.41-0.25,7.41,7.41,0,0,1-1-1.12c-0.18-.26-0.26-0.5-0.33-0.6a2.16,2.16,0,0,1-.44-1.15,9.62,9.62,0,0,1-.05-2.2,5.6,5.6,0,0,1,.48-1.76,3.62,3.62,0,0,1,.88-0.89,1.58,1.58,0,0,1,1.57-.36,4.32,4.32,0,0,1,1.63,1.09c0.19,0.18.43,0.52,0.73,0.26a0.28,0.28,0,0,0,.12-0.33,3.68,3.68,0,0,0-.77-1,6.36,6.36,0,0,0-1.27-.89,2.79,2.79,0,0,0-1.65-.27,3.46,3.46,0,0,0-2.48,2.11,7.94,7.94,0,0,0-.68,3.44,6.19,6.19,0,0,0,1.1,3.38,5.94,5.94,0,0,0,1.05,1.15,6.12,6.12,0,0,0,2.32,1.22,2.87,2.87,0,0,0,1.78-.07,3.13,3.13,0,0,0,1.34-1,6.35,6.35,0,0,0,1.06-2.86,4.24,4.24,0,0,0,0-1.23,0.28,0.28,0,0,0-.29-0.19C132.41,180.87,132.4,181.29,132.37,181.56Z"/><path class="e" d="M49.26,111c13.18,0,12.93,9,12.93,9s-7.27,2-10.18,0S49.26,111,49.26,111Z"/><path class="e" d="M49.22,80.72c13.18,0,12.93-9,12.93-9s-7.27-2-10.18,0S49.22,80.72,49.22,80.72Z"/><path class="e" d="M158.49,111c-13.18,0-12.93,9-12.93,9s7.27,2,10.18,0S158.49,111,158.49,111Z"/><path class="e" d="M158.52,80.72c-13.18,0-12.93-9-12.93-9s7.27-2,10.18,0S158.52,80.72,158.52,80.72Z"/><path class="j" d="M109.14,121.46c4.56,0,9.68-.1,14.58-0.26,2.62-.09,7.63-0.16,13.9-0.2l10.22-.06,5.56,0a5.52,5.52,0,0,0,5-3.08,6.09,6.09,0,0,0,.56-3v-2.89c0-1.92,0-3.84,0-5.73,0-3.78,0-7.45,0-10.88l0-16.55V75.71a5.62,5.62,0,0,0-3.78-5.2,5.49,5.49,0,0,0-1.69-.3H139.7l-24.72,0-49.33.13H55.32a16.16,16.16,0,0,0-1.81.05,5.44,5.44,0,0,0-1.87.58,5.71,5.71,0,0,0-3.1,4.71c0,0.67,0,1.17,0,1.77v6.87l-0.11,27.48v2.27a21.57,21.57,0,0,0,.06,2.45,6,6,0,0,0,5.84,5.12h7c7,0,17.93,0,32.13-.16l0.06-1.78-21.08,0-9.53.06-4.71,0H54.61a5.24,5.24,0,0,1-1-.07,4.15,4.15,0,0,1-3-2.25,4.11,4.11,0,0,1-.43-1.86v-2.32q0-4.63,0-9.25l0-18.53,0-9.36a4.1,4.1,0,0,1,1.63-3.36,4,4,0,0,1,1.76-.77A17.32,17.32,0,0,1,55.78,72l60.73-.14,30.43,0h5.7c0.3,0,.67,0,0.91,0a3.79,3.79,0,0,1,.75.1,4,4,0,0,1,3,3.1,4.82,4.82,0,0,1,.08.76V76.7l0.05,15.17q0,9.48.09,19v4.73a4.09,4.09,0,0,1-3.69,3.87c-0.29,0-.72,0-1.11,0h-1.19l-4.77,0-37.63.11Z"/></svg>