<?xml version="1.0" encoding="UTF-8" standalone="no"?>
<svg
   xmlns:dc="http://purl.org/dc/elements/1.1/"
   xmlns:cc="http://creativecommons.org/ns#"
   xmlns:rdf="http://www.w3.org/1999/02/22-rdf-syntax-ns#"
   xmlns:svg="http://www.w3.org/2000/svg"
   xmlns="http://www.w3.org/2000/svg"
   xmlns:sodipodi="http://sodipodi.sourceforge.net/DTD/sodipodi-0.dtd"
   xmlns:inkscape="http://www.inkscape.org/namespaces/inkscape"
   width="77.9764in"
   height="30.9267in"
   viewBox="0 0 5615 2227"
   id="svg5329"
   version="1.1"
   inkscape:version="0.48.4 r9939"
   sodipodi:docname="Full_Horizontal_RightAligned_PathsExport.svg">
  <metadata
     id="metadata5337">
    <rdf:RDF>
      <cc:Work
         rdf:about="">
        <dc:format>image/svg+xml</dc:format>
        <dc:type
           rdf:resource="http://purl.org/dc/dcmitype/StillImage" />
        <dc:title></dc:title>
      </cc:Work>
    </rdf:RDF>
  </metadata>
  <defs
     id="defs5335" />
  <sodipodi:namedview
     pagecolor="#ffffff"
     bordercolor="#666666"
     borderopacity="1"
     objecttolerance="10"
     gridtolerance="10"
     guidetolerance="10"
     inkscape:pageopacity="0"
     inkscape:pageshadow="2"
     inkscape:window-width="1918"
     inkscape:window-height="1059"
     id="namedview5333"
     showgrid="false"
     inkscape:zoom="0.18638118"
     inkscape:cx="3181.407"
     inkscape:cy="555.87213"
     inkscape:window-x="0"
     inkscape:window-y="19"
     inkscape:window-maximized="0"
     inkscape:current-layer="svg5329" />
  <path
     id="Red"
     fill="none"
     stroke="black"
     stroke-width="1"
     d="M 100.91,381.73            C 103.12,441.62 107.79,522.38 109.50,544.00              360.67,399.00 1072.00,59.00 1887.45,428.55              1889.00,402.25 1893.39,318.35 1894.36,273.55              1164.67,-63.33 489.33,156.67 100.91,381.73 Z            M 740.00,703.00            C 740.32,675.92 762.85,653.04 790.00,653.00              790.00,653.00 909.00,653.00 909.00,653.00              909.00,653.00 909.00,1042.00 909.00,1042.00              909.00,1042.00 740.00,1042.00 740.00,1042.00              740.00,1042.00 740.00,703.00 740.00,703.00 Z            M 1478.00,653.00            C 1478.00,653.00 1478.00,991.00 1478.00,991.00              1477.63,1021.96 1452.82,1041.95 1423.00,1042.00              1423.00,1042.00 1309.00,1042.00 1309.00,1042.00              1309.00,1042.00 1309.00,653.00 1309.00,653.00              1309.00,653.00 1478.00,653.00 1478.00,653.00 Z            M 1194.00,937.00            C 1194.00,937.00 1194.25,1146.25 1194.25,1146.25              1194.25,1187.00 1230.00,1221.00 1270.00,1221.00              1270.00,1221.00 1463.67,1220.91 1463.67,1220.91              1406.67,1371.58 1199.09,1395.82 1109.08,1274.43              1017.33,1396.00 813.00,1372.33 754.67,1221.00              754.67,1221.00 948.25,1220.75 948.25,1220.75              994.25,1220.75 1024.00,1183.25 1024.00,1142.75              1024.00,1142.75 1024.00,937.00 1024.00,937.00              1024.00,937.00 1194.00,937.00 1194.00,937.00 Z            M 2847.05,431.00            C 2847.05,431.00 2809.72,560.00 2809.72,560.00              2809.72,560.00 2994.05,560.00 2994.05,560.00              2994.05,560.00 3026.42,431.00 3026.42,431.00              3026.42,431.00 2847.05,431.00 2847.05,431.00 Z            M 2415.16,429.00            C 2415.16,429.00 2377.83,560.00 2377.83,560.00              2377.83,560.00 2569.77,560.00 2569.77,560.00              2569.77,560.00 2605.95,429.00 2605.95,429.00              2605.95,429.00 2415.16,429.00 2415.16,429.00 Z            M 3071.03,609.00            C 3071.03,609.00 3046.16,696.00 3046.16,696.00              3046.16,696.00 3171.33,696.00 3171.33,696.00              3171.33,696.00 3195.19,609.00 3195.19,609.00              3195.19,609.00 3071.03,609.00 3071.03,609.00 Z            M 3243.02,608.52            C 3243.02,608.52 3186.91,695.00 3186.91,695.00              3186.91,695.00 3532.47,695.00 3532.47,695.00              3532.47,695.00 3554.56,608.00 3554.56,608.00              3554.56,608.00 3243.02,608.52 3243.02,608.52 Z            M 3866.97,609.00            C 3866.97,609.00 3735.70,609.00 3735.70,609.00              3735.70,609.00 3661.05,696.00 3661.05,696.00              3661.05,696.00 3885.50,696.00 3885.50,696.00              3885.50,696.00 3866.97,609.00 3866.97,609.00 Z            M 4365.27,637.14            C 4361.20,629.64 4355.19,623.16 4347.23,617.70              4338.77,611.90 4330.55,609.00 4322.61,609.00              4322.61,609.00 4026.80,609.00 4026.80,609.00              4026.80,609.00 3971.70,696.00 3971.70,696.00              3971.70,696.00 4374.66,696.00 4374.66,696.00              4374.66,668.37 4371.52,648.75 4365.27,637.14 Z            M 4730.25,635.38            C 4710.61,617.79 4689.46,609.00 4666.78,609.00              4666.78,609.00 4457.06,609.00 4457.06,609.00              4457.06,609.00 4401.20,696.00 4401.20,696.00              4401.20,696.00 4761.48,696.00 4761.48,696.00              4760.64,673.68 4750.23,653.47 4730.25,635.38 Z            M 2309.80,1259.00            C 2275.77,1259.00 2242.77,1273.53 2210.77,1302.59              2182.33,1328.34 2162.91,1357.14 2152.50,1389.00              2152.50,1389.00 2658.28,1389.00 2658.28,1389.00              2658.28,1389.00 2692.94,1259.00 2692.94,1259.00              2692.94,1259.00 2309.80,1259.00 2309.80,1259.00 Z            M 3058.69,1509.00            C 3058.69,1461.67 3036.34,1438.00 2991.66,1438.00              2991.66,1438.00 2814.92,1438.00 2814.92,1438.00              2793.25,1438.00 2772.18,1447.89 2751.70,1467.67              2734.94,1483.90 2723.09,1503.68 2716.16,1527.00              2716.16,1527.00 3058.69,1527.00 3058.69,1527.00              3058.69,1526.84 3058.69,1520.84 3058.69,1509.00 Z            M 3125.78,1439.77            C 3125.78,1439.77 3101.92,1526.00 3101.92,1526.00              3101.92,1526.00 3227.86,1526.00 3227.86,1526.00              3227.86,1526.00 3253.50,1439.00 3253.50,1439.00              3253.50,1439.00 3125.78,1439.77 3125.78,1439.77 Z            M 3640.16,1441.00            C 3640.16,1441.00 3616.03,1526.00 3616.03,1526.00              3616.03,1526.00 3734.84,1526.00 3734.84,1526.00              3734.84,1526.00 3758.97,1441.25 3758.97,1441.25              3758.97,1441.25 3640.16,1441.00 3640.16,1441.00 Z            M 3426.36,1441.00            C 3426.36,1441.00 3401.73,1526.00 3401.73,1526.00              3401.73,1526.00 3519.03,1526.00 3519.03,1526.00              3519.03,1526.00 3542.64,1441.00 3542.64,1441.00              3542.64,1441.00 3426.36,1441.00 3426.36,1441.00 Z            M 3811.09,1439.00            C 3811.09,1439.00 3756.00,1526.00 3756.00,1526.00              3756.00,1526.00 4102.33,1526.00 4102.33,1526.00              4102.33,1526.00 4126.45,1439.00 4126.45,1439.00              4126.45,1439.00 3811.09,1439.00 3811.09,1439.00 Z            M 4196.03,1439.00            C 4196.03,1439.00 4171.16,1526.00 4171.16,1526.00              4171.16,1526.00 4296.33,1526.00 4296.33,1526.00              4296.33,1526.00 4320.19,1439.00 4320.19,1439.00              4320.19,1439.00 4196.03,1439.00 4196.03,1439.00 Z            M 4697.69,1509.00            C 4697.69,1461.67 4675.34,1438.00 4630.66,1438.00              4630.66,1438.00 4453.92,1438.00 4453.92,1438.00              4432.25,1438.00 4411.18,1447.89 4390.70,1467.67              4373.94,1483.90 4362.09,1503.68 4355.16,1527.00              4355.16,1527.00 4697.69,1527.00 4697.69,1527.00              4697.69,1526.84 4697.69,1520.84 4697.69,1509.00 Z            M 4986.58,1439.00            C 4986.58,1439.00 4968.03,1512.36 4968.03,1512.36              4968.03,1512.36 4891.11,1439.00 4891.11,1439.00              4891.11,1439.00 4773.03,1439.00 4773.03,1439.00              4773.03,1439.00 4748.41,1526.00 4748.41,1526.00              4748.41,1526.00 5089.16,1526.00 5089.16,1526.00              5089.16,1526.00 5114.80,1439.00 5114.80,1439.00              5114.80,1439.00 4986.58,1439.00 4986.58,1439.00 Z            M 5259.52,1439.00            C 5236.84,1439.00 5214.83,1448.73 5193.50,1468.17              5174.54,1485.40 5161.59,1504.68 5154.66,1526.00              5154.66,1526.00 5491.84,1526.00 5491.84,1526.00              5491.84,1526.00 5514.95,1439.00 5514.95,1439.00              5514.95,1439.00 5259.52,1439.00 5259.52,1439.00 Z"
     style="stroke:#280000;fill:#b00000;fill-opacity:1" />
  <path
     id="Grey"
     fill="none"
     stroke="black"
     stroke-width="1"
     d="M 1108.87,2126.52            C 1141.27,2106.73 1208.18,2064.73 1244.52,2038.43              715.50,1727.00 323.33,1225.67 256.44,556.06              216.75,576.00 148.75,610.75 118.33,627.31              167.00,1200.67 492.00,1772.00 1108.87,2126.52 Z            M 1972.75,308.34            C 2021.46,332.01 2083.75,363.44 2116.56,381.42              2116.80,381.55 2117.04,381.69 2117.27,381.82              2117.12,967.00 1887.00,1586.00 1314.09,1989.27              1277.09,1966.36 1217.75,1928.75 1183.00,1905.33              1701.33,1539.33 1969.00,942.75 1972.75,308.34 Z            M 745.33,1065.67            C 745.33,1065.67 1000.00,1066.00 1000.00,1066.00              1000.00,1066.00 1000.00,1146.00 1000.00,1146.00              999.70,1172.35 977.04,1196.57 949.74,1196.87              949.74,1196.87 752.67,1197.00 752.67,1197.00              497.00,1194.00 410.67,920.67 410.67,704.33              458.33,905.00 573.67,1065.67 745.33,1065.67 Z            M 1284.00,782.00            C 1284.00,782.00 1284.00,913.00 1284.00,913.00              1284.00,913.00 934.00,913.00 934.00,913.00              934.00,913.00 934.00,782.00 934.00,782.00              934.00,782.00 1284.00,782.00 1284.00,782.00 Z            M 1429.33,1197.00            C 1429.33,1197.00 1271.75,1196.88 1271.75,1196.88              1248.62,1196.88 1217.38,1179.88 1217.88,1142.88              1217.88,1142.88 1218.00,1066.00 1218.00,1066.00              1218.00,1066.00 1432.67,1065.67 1432.67,1065.67              1462.67,1065.33 1502.67,1036.33 1502.67,990.33              1502.67,990.33 1502.00,797.00 1502.00,797.00              1717.67,888.67 1648.33,1192.33 1429.33,1197.00 Z            M 791.33,497.33            C 791.33,497.33 1467.19,497.44 1467.19,497.44              1747.19,500.10 1808.33,802.67 1807.45,965.45              1762.36,777.45 1643.64,624.91 1467.64,628.00              1467.64,628.00 795.00,628.00 795.00,628.00              754.64,628.06 716.06,660.33 716.00,702.00              716.00,702.00 716.00,897.00 716.00,897.00              500.67,807.33 569.09,499.82 791.33,497.33 Z            M 2796.02,611.52            C 2796.02,611.52 2757.55,742.53 2757.55,742.53              2757.55,742.53 2650.14,636.66 2650.14,636.66              2650.14,636.66 2517.59,742.53 2517.59,742.53              2517.59,742.53 2557.20,611.52 2557.20,611.52              2557.20,611.52 2366.02,611.52 2366.02,611.52              2366.02,611.52 2267.00,968.00 2267.00,968.00              2267.00,968.00 2454.00,967.23 2454.00,967.23              2454.00,967.23 2587.30,866.31 2587.30,866.31              2587.30,866.31 2698.52,967.23 2698.52,967.23              2698.52,967.23 2879.80,968.00 2879.80,968.00              2879.80,968.00 2978.83,611.52 2978.83,611.52              2978.83,611.52 2796.02,611.52 2796.02,611.52 Z            M 3038.02,730.34            C 3038.02,730.34 2972.00,968.00 2972.00,968.00              2972.00,968.00 3098.45,968.00 3098.45,968.00              3098.45,968.00 3163.70,730.34 3163.70,730.34              3163.70,730.34 3038.02,730.34 3038.02,730.34 Z            M 4047.11,968.00            C 4047.11,968.00 4091.30,824.00 4091.30,824.00              4091.30,824.00 4213.94,824.00 4213.94,824.00              4213.94,824.00 4172.30,968.00 4172.30,968.00              4172.30,968.00 4288.84,968.00 4288.84,968.00              4305.59,918.51 4314.73,889.18 4316.27,880.00              4318.63,865.38 4319.81,853.98 4319.81,845.81              4319.81,832.04 4315.83,818.95 4307.88,806.53              4314.13,804.15 4322.26,798.62 4332.25,789.95              4353.58,771.25 4365.69,751.26 4368.56,730.00              4368.56,730.00 3995.83,730.00 3995.83,730.00              3995.83,730.00 3936.07,933.68 3936.07,933.68              3936.07,933.68 3892.61,730.00 3892.61,730.00              3892.61,730.00 3633.11,730.00 3633.11,730.00              3633.11,730.00 3464.20,946.02 3464.20,946.02              3464.20,946.02 3484.48,873.00 3484.48,873.00              3484.48,873.00 3332.14,873.00 3332.14,873.00              3332.14,873.00 3525.88,730.09 3525.88,730.09              3525.88,730.09 3377.30,730.34 3377.30,730.34              3377.30,730.34 3172.42,872.78 3172.42,872.78              3172.42,872.78 3145.00,968.00 3145.00,968.00              3145.00,968.00 3599.09,968.25 3599.09,968.25              3599.09,968.25 3703.95,826.00 3703.95,826.00              3703.95,826.00 3777.59,826.00 3777.59,826.00              3777.59,826.00 3812.88,968.00 3812.88,968.00              3812.88,968.00 4047.11,968.00 4047.11,968.00 Z            M 4657.14,730.09            C 4656.46,754.06 4653.67,774.57 4648.77,791.12              4639.45,822.86 4619.64,847.25 4589.34,864.30              4570.73,874.77 4552.70,880.00 4535.27,880.00              4525.95,880.00 4517.23,878.40 4509.11,875.19              4509.11,875.19 4552.27,730.09 4552.27,730.09              4552.27,730.09 4424.05,730.09 4424.05,730.09              4424.05,730.09 4356.00,968.00 4356.00,968.00              4356.00,968.00 4562.69,968.00 4562.69,968.00              4609.91,968.00 4649.18,956.27 4680.50,932.81              4696.24,921.01 4713.59,901.27 4732.55,873.59              4756.24,839.01 4768.09,791.01 4768.09,730.09              4768.09,730.09 4657.14,730.09 4657.14,730.09 Z            M 2610.30,1514.25            C 2602.05,1484.50 2588.75,1469.70 2565.75,1457.70              2542.75,1445.70 2513.55,1442.00 2482.45,1442.00              2482.45,1442.00 2139.16,1442.00 2139.16,1442.00              2139.16,1442.00 2139.16,1450.96 2139.16,1468.88              2139.16,1505.73 2146.82,1532.30 2162.16,1548.58              2177.50,1564.86 2201.40,1573.00 2233.86,1573.00              2233.86,1573.00 2381.07,1573.05 2381.07,1573.05              2389.04,1573.04 2410.00,1572.02 2417.85,1580.79              2425.70,1589.57 2420.39,1608.30 2415.52,1620.33              2410.64,1632.36 2394.91,1649.00 2375.54,1649.00              2375.54,1649.00 2080.47,1649.08 2080.47,1649.08              2080.47,1649.08 2039.00,1796.99 2039.00,1796.99              2039.00,1796.99 2412.00,1797.00 2412.00,1797.00              2463.62,1794.75 2513.50,1776.38 2550.00,1731.38              2588.25,1688.12 2625.80,1571.50 2610.30,1514.25 Z            M 2933.09,1560.11            C 2933.09,1560.11 2895.80,1687.55 2895.80,1687.55              2891.40,1702.64 2884.38,1711.46 2874.73,1714.00              2874.73,1714.00 2799.39,1714.00 2799.39,1714.00              2793.13,1712.14 2790.00,1707.81 2790.00,1701.03              2790.00,1697.98 2790.84,1693.48 2792.53,1687.55              2792.53,1687.55 2828.52,1560.09 2828.52,1560.09              2828.52,1560.09 2707.41,1560.09 2707.41,1560.09              2707.41,1560.09 2680.62,1657.19 2680.62,1657.19              2675.54,1675.82 2673.00,1693.45 2673.00,1710.05              2673.00,1741.23 2684.93,1764.37 2708.80,1779.44              2728.43,1791.81 2754.75,1798.00 2787.77,1798.00              2787.77,1798.00 2849.72,1798.00 2849.72,1798.00              2904.56,1798.00 2948.32,1779.62 2980.98,1742.84              2999.10,1722.51 3012.39,1697.18 3020.86,1666.84              3034.57,1619.23 3044.05,1586.36 3049.30,1568.23              3049.30,1568.23 3051.58,1560.09 3051.58,1560.09              3051.58,1560.09 2933.09,1560.11 2933.09,1560.11 Z            M 3177.58,1710.00            C 3177.58,1710.00 3219.22,1560.34 3219.22,1560.34              3219.22,1560.34 3093.03,1560.34 3093.03,1560.34              3093.03,1560.34 3026.00,1798.00 3026.00,1798.00              3026.00,1798.00 3278.89,1798.00 3278.89,1798.00              3278.89,1798.00 3351.52,1710.00 3351.52,1710.00              3351.52,1710.00 3177.58,1710.00 3177.58,1710.00 Z            M 3607.89,1560.34            C 3607.89,1560.34 3563.97,1716.00 3563.97,1716.00              3563.97,1716.00 3480.94,1716.00 3480.94,1716.00              3474.00,1713.97 3470.53,1709.48 3470.53,1702.52              3470.53,1699.81 3471.38,1695.48 3473.08,1689.55              3473.08,1689.55 3509.89,1560.09 3509.89,1560.09              3509.89,1560.09 3394.47,1560.16 3394.47,1560.16              3394.47,1560.16 3356.03,1699.48 3356.03,1699.48              3354.68,1704.39 3354.00,1709.73 3354.00,1715.48              3354.00,1724.96 3355.95,1734.61 3359.84,1744.42              3374.06,1780.14 3410.96,1798.00 3470.55,1798.00              3470.55,1798.00 3660.70,1798.00 3660.70,1798.00              3660.70,1798.00 3726.47,1560.34 3726.47,1560.34              3726.47,1560.34 3607.89,1560.34 3607.89,1560.34 Z            M 3874.06,1560.34            C 3874.06,1560.34 3809.58,1798.00 3809.58,1798.00              3809.58,1798.00 3928.41,1798.00 3928.41,1798.00              3928.41,1798.00 3991.62,1560.34 3991.62,1560.34              3991.62,1560.34 3874.06,1560.34 3874.06,1560.34 Z            M 4163.02,1560.22            C 4163.02,1560.22 4097.00,1798.00 4097.00,1798.00              4097.00,1798.00 4223.45,1798.00 4223.45,1798.00              4223.45,1798.00 4288.70,1560.22 4288.70,1560.22              4288.70,1560.22 4163.02,1560.22 4163.02,1560.22 Z            M 4572.09,1560.11            C 4572.09,1560.11 4534.80,1687.55 4534.80,1687.55              4530.40,1702.64 4523.38,1711.46 4513.73,1714.00              4513.73,1714.00 4438.39,1714.00 4438.39,1714.00              4432.13,1712.14 4429.00,1707.81 4429.00,1701.03              4429.00,1697.98 4429.84,1693.48 4431.53,1687.55              4431.53,1687.55 4467.39,1560.09 4467.39,1560.09              4467.39,1560.09 4346.28,1560.22 4346.28,1560.22              4346.28,1560.22 4319.62,1657.19 4319.62,1657.19              4314.54,1675.82 4312.00,1693.45 4312.00,1710.05              4312.00,1741.23 4323.93,1764.37 4347.80,1779.44              4367.43,1791.81 4393.75,1798.00 4426.77,1798.00              4426.77,1798.00 4488.72,1798.00 4488.72,1798.00              4543.56,1798.00 4587.32,1779.62 4619.98,1742.84              4638.10,1722.51 4651.39,1697.18 4659.86,1666.84              4673.57,1619.23 4683.05,1586.36 4688.30,1568.23              4688.30,1568.23 4690.58,1560.09 4690.58,1560.09              4690.58,1560.09 4572.09,1560.11 4572.09,1560.11 Z            M 4738.00,1560.22            C 4738.00,1560.22 4673.00,1798.00 4673.00,1798.00              4673.00,1798.00 4791.83,1798.00 4791.83,1798.00              4791.83,1798.00 4852.27,1584.47 4852.27,1584.47              4852.27,1584.47 4928.44,1653.78 4928.44,1653.78              4928.44,1653.78 4888.31,1798.00 4888.31,1798.00              4888.31,1798.00 5018.83,1798.00 5018.83,1798.00              5018.83,1798.00 5082.05,1560.22 5082.05,1560.22              5082.05,1560.22 4738.00,1560.22 4738.00,1560.22 Z            M 5464.00,1661.25            C 5469.75,1632.50 5470.08,1601.08 5451.42,1582.08              5432.75,1563.08 5401.62,1560.12 5388.78,1560.00              5388.78,1560.00 5144.86,1560.00 5144.86,1560.00              5144.86,1560.00 5144.86,1565.95 5144.86,1577.86              5144.86,1602.33 5150.32,1620.70 5160.53,1631.51              5170.74,1642.32 5184.46,1647.00 5206.05,1647.00              5206.05,1647.00 5311.83,1647.00 5311.83,1647.00              5328.70,1647.18 5338.50,1648.25 5334.95,1667.89              5331.59,1688.43 5317.50,1697.91 5296.42,1697.94              5296.42,1697.94 5106.83,1697.94 5106.83,1697.94              5106.83,1697.94 5078.76,1797.97 5078.76,1797.97              5078.76,1797.97 5334.34,1798.00 5334.34,1798.00              5357.50,1796.75 5386.84,1790.66 5414.88,1764.88              5442.91,1739.09 5458.25,1690.00 5464.00,1661.25 Z"
     style="fill:#282828;fill-opacity:1" />
</svg>
