<?xml version="1.0" encoding="UTF-8" standalone="no"?>
<!-- Created with Inkscape (http://www.inkscape.org/) -->

<svg
   xmlns:dc="http://purl.org/dc/elements/1.1/"
   xmlns:cc="http://creativecommons.org/ns#"
   xmlns:rdf="http://www.w3.org/1999/02/22-rdf-syntax-ns#"
   xmlns:svg="http://www.w3.org/2000/svg"
   xmlns="http://www.w3.org/2000/svg"
   xmlns:sodipodi="http://sodipodi.sourceforge.net/DTD/sodipodi-0.dtd"
   xmlns:inkscape="http://www.inkscape.org/namespaces/inkscape"
   width="4244.3188"
   height="5575.0967"
   id="svg34"
   version="1.1"
   inkscape:version="0.48.2 r9819"
   sodipodi:docname="Do_not_enter_icon_08.svg">
  <defs
     id="defs36">
    <inkscape:path-effect
       is_visible="true"
       id="path-effect3149"
       effect="spiro" />
    <inkscape:path-effect
       effect="skeletal"
       id="path-effect3073"
       is_visible="true"
       pattern="M 0,0 0,10 10,5 z"
       copytype="single_stretched"
       prop_scale="1"
       scale_y_rel="false"
       spacing="0"
       normal_offset="0"
       tang_offset="0"
       prop_units="false"
       vertical_pattern="false"
       fuse_tolerance="0" />
    <inkscape:path-effect
       effect="spiro"
       id="path-effect58"
       is_visible="true" />
    <inkscape:path-effect
       effect="skeletal"
       id="path-effect472"
       is_visible="true"
       pattern="m -728.65743,-5016.2754 0,10 10,-5 z"
       copytype="single_stretched"
       prop_scale="1"
       scale_y_rel="false"
       spacing="0"
       normal_offset="0"
       tang_offset="0"
       prop_units="false"
       vertical_pattern="false"
       fuse_tolerance="0" />
    <inkscape:path-effect
       effect="skeletal"
       id="path-effect476"
       is_visible="true"
       pattern="m -728.65743,-5016.2754 0,10 10,-5 z"
       copytype="single_stretched"
       prop_scale="1"
       scale_y_rel="false"
       spacing="0"
       normal_offset="0"
       tang_offset="0"
       prop_units="false"
       vertical_pattern="false"
       fuse_tolerance="0" />
    <inkscape:path-effect
       effect="skeletal"
       id="path-effect480"
       is_visible="true"
       pattern="m -728.65743,-5016.2754 0,10 10,-5 z"
       copytype="single_stretched"
       prop_scale="1"
       scale_y_rel="false"
       spacing="0"
       normal_offset="0"
       tang_offset="0"
       prop_units="false"
       vertical_pattern="false"
       fuse_tolerance="0" />
    <inkscape:path-effect
       effect="skeletal"
       id="path-effect484"
       is_visible="true"
       pattern="m -728.65743,-5016.2754 0,10 10,-5 z"
       copytype="single_stretched"
       prop_scale="1"
       scale_y_rel="false"
       spacing="0"
       normal_offset="0"
       tang_offset="0"
       prop_units="false"
       vertical_pattern="false"
       fuse_tolerance="0" />
    <inkscape:path-effect
       effect="skeletal"
       id="path-effect488"
       is_visible="true"
       pattern="m -728.65743,-5016.2754 0,10 10,-5 z"
       copytype="single_stretched"
       prop_scale="1"
       scale_y_rel="false"
       spacing="0"
       normal_offset="0"
       tang_offset="0"
       prop_units="false"
       vertical_pattern="false"
       fuse_tolerance="0" />
    <inkscape:path-effect
       effect="skeletal"
       id="path-effect444"
       is_visible="true"
       pattern="m -1092.0687,-5016.2754 0,10 10,-5 z"
       copytype="single_stretched"
       prop_scale="1"
       scale_y_rel="false"
       spacing="0"
       normal_offset="0"
       tang_offset="0"
       prop_units="false"
       vertical_pattern="false"
       fuse_tolerance="0" />
    <inkscape:path-effect
       effect="skeletal"
       id="path-effect448"
       is_visible="true"
       pattern="m -1092.0687,-5016.2754 0,10 10,-5 z"
       copytype="single_stretched"
       prop_scale="1"
       scale_y_rel="false"
       spacing="0"
       normal_offset="0"
       tang_offset="0"
       prop_units="false"
       vertical_pattern="false"
       fuse_tolerance="0" />
    <inkscape:path-effect
       effect="skeletal"
       id="path-effect456"
       is_visible="true"
       pattern="m -1092.0687,-5016.2754 0,10 10,-5 z"
       copytype="single_stretched"
       prop_scale="1"
       scale_y_rel="false"
       spacing="0"
       normal_offset="0"
       tang_offset="0"
       prop_units="false"
       vertical_pattern="false"
       fuse_tolerance="0" />
    <inkscape:path-effect
       effect="skeletal"
       id="path-effect464"
       is_visible="true"
       pattern="m -1092.0687,-5016.2754 0,10 10,-5 z"
       copytype="single_stretched"
       prop_scale="1"
       scale_y_rel="false"
       spacing="0"
       normal_offset="0"
       tang_offset="0"
       prop_units="false"
       vertical_pattern="false"
       fuse_tolerance="0" />
    <inkscape:path-effect
       effect="skeletal"
       id="path-effect468"
       is_visible="true"
       pattern="m -1092.0687,-5016.2754 0,10 10,-5 z"
       copytype="single_stretched"
       prop_scale="1"
       scale_y_rel="false"
       spacing="0"
       normal_offset="0"
       tang_offset="0"
       prop_units="false"
       vertical_pattern="false"
       fuse_tolerance="0" />
    <inkscape:path-effect
       effect="spiro"
       id="path-effect58-1"
       is_visible="true" />
    <inkscape:path-effect
       effect="spiro"
       id="path-effect549"
       is_visible="true" />
  </defs>
  <sodipodi:namedview
     id="base"
     pagecolor="#ffffff"
     bordercolor="#666666"
     borderopacity="1.0"
     inkscape:pageopacity="0.0"
     inkscape:pageshadow="2"
     inkscape:zoom="0.094527511"
     inkscape:cx="2481.8432"
     inkscape:cy="2787.5484"
     inkscape:document-units="px"
     inkscape:current-layer="layer1"
     showgrid="false"
     fit-margin-top="0"
     fit-margin-left="0"
     fit-margin-right="0"
     fit-margin-bottom="0"
     inkscape:window-width="1280"
     inkscape:window-height="744"
     inkscape:window-x="-4"
     inkscape:window-y="-4"
     inkscape:window-maximized="1" />
  <metadata
     id="metadata39">
    <rdf:RDF>
      <cc:Work
         rdf:about="">
        <dc:format>image/svg+xml</dc:format>
        <dc:type
           rdf:resource="http://purl.org/dc/dcmitype/StillImage" />
        <dc:title></dc:title>
      </cc:Work>
    </rdf:RDF>
  </metadata>
  <g
     inkscape:label="Layer 1"
     inkscape:groupmode="layer"
     id="layer1"
     transform="translate(2452.4482,1706.629)">
    <path
       style="fill:#000000;fill-opacity:1;fill-rule:nonzero;stroke:none"
       d="m -1596.6549,3492.6076 c 21.0876,-7390.7783 4260.5056,-7471.2976 4244.2725,-22.1049"
       id="path3075"
       inkscape:connector-curvature="0"
       transform="translate(-855.79325,397.9649)"
       sodipodi:nodetypes="cc" />
    <g
       id="g3077"
       transform="translate(970.24521,-586.11381)">
      <path
         transform="translate(-936.73909,663.58483)"
         d="m 1000.4357,317.61462 c 0,753.44368 -610.78679,1364.23048 -1364.23047,1364.23048 -753.44373,0 -1364.23043,-610.7868 -1364.23043,-1364.23048 0,-753.44368 610.7867,-1364.23042 1364.23043,-1364.23042 753.44368,0 1364.23047,610.78674 1364.23047,1364.23042 z"
         sodipodi:ry="1364.2305"
         sodipodi:rx="1364.2305"
         sodipodi:cy="317.61462"
         sodipodi:cx="-363.79477"
         id="path3067"
         style="fill:#ffffff;fill-opacity:1;fill-rule:nonzero;stroke:none"
         sodipodi:type="arc" />
      <path
         sodipodi:type="arc"
         style="fill:#d40000;fill-opacity:1;fill-rule:nonzero;stroke:none"
         id="path3069"
         sodipodi:cx="-363.79477"
         sodipodi:cy="317.61462"
         sodipodi:rx="1364.2305"
         sodipodi:ry="1364.2305"
         d="m 1000.4357,317.61462 c 0,753.44368 -610.78679,1364.23048 -1364.23047,1364.23048 -753.44373,0 -1364.23043,-610.7868 -1364.23043,-1364.23048 0,-753.44368 610.7867,-1364.23042 1364.23043,-1364.23042 753.44368,0 1364.23047,610.78674 1364.23047,1364.23042 z"
         transform="matrix(0.91626747,0,0,0.91626747,-967.20055,690.17951)" />
    </g>
    <rect
       style="fill:#ffffff;fill-opacity:1;fill-rule:nonzero;stroke:none"
       id="rect3081"
       width="2022.5394"
       height="616.90356"
       x="-1341.5583"
       y="86.633865"
       ry="143.94417" />
    <g
       id="g3179"
       transform="matrix(0.82951081,0,0,0.82951081,-107.23411,32.114626)">
      <path
         sodipodi:nodetypes="cc"
         inkscape:connector-curvature="0"
         inkscape:original-d="m -950.79035,346.8424 c -9.87675,-44.3664 0.21112,-94.5213 -67.10725,-121.8526"
         inkscape:path-effect="#path-effect444"
         id="path442"
         d="m -955.67088,347.92889 9.76106,-2.17298 c -2.79208,-10.7108 -4.36583,-21.97232 -6.25253,-33.32812 -1.85676,-11.29719 -4.05427,-22.77837 -8.0793,-33.74904 0,0 0,0 0,-10e-6 -4.17267,-11.35853 -10.56011,-21.91286 -19.05561,-30.39459 0,0 0,0 -10e-6,0 -10.86294,-10.80462 -24.49703,-18.11315 -38.60033,-23.29435 13.7235,6.11649 26.69743,14.2784 36.39272,25.36732 7.58869,8.64717 12.91906,19.07523 16.13979,30.02001 3.13754,10.63627 4.46422,21.78207 5.57551,33.05372 1.09659,11.32895 1.93898,22.87547 4.1187,34.49804 z"
         style="fill:#000000;fill-opacity:1;fill-rule:nonzero;stroke:none" />
      <path
         sodipodi:nodetypes="cc"
         inkscape:connector-curvature="0"
         inkscape:original-d="m -913.70479,300.9269 c -9.84505,-44.1569 -0.20357,-88.9855 -60.04329,-121.8526"
         inkscape:path-effect="#path-effect448"
         id="path446"
         d="m -918.58497,302.01496 9.76036,-2.17612 c -2.74131,-10.45064 -4.37159,-21.40233 -6.20107,-32.45041 -1.77434,-10.81743 -3.79124,-21.80752 -7.38062,-32.39928 0,0 0,0 0,0 -3.74086,-11.02557 -9.38249,-21.41033 -16.932,-30.15974 0,0 -10e-6,0 -10e-6,0 -9.53445,-11.01756 -21.63279,-19.30753 -34.40977,-25.75511 12.29577,7.32368 23.66325,16.37746 32.0746,27.63632 6.66776,8.89872 11.30432,19.16723 14.12291,29.83408 2.72751,10.29847 3.89647,21.00214 4.9263,31.82822 1.03611,11.0694 1.92733,22.3248 4.0393,33.64204 z"
         style="fill:#000000;fill-opacity:1;fill-rule:nonzero;stroke:none" />
      <path
         sodipodi:nodetypes="cc"
         inkscape:connector-curvature="0"
         inkscape:original-d="m -880.15118,263.8413 c -13.96085,-41.5831 -7.93623,-82.2561 -54.74536,-118.3206"
         inkscape:path-effect="#path-effect456"
         id="path454"
         d="m -884.89117,265.43268 9.47998,-3.18276 c -3.665,-9.63107 -6.3129,-19.82476 -8.87501,-30.14371 -2.48639,-10.05911 -4.93526,-20.29252 -8.39209,-30.26918 0,0 0,0 0,0 -3.5857,-10.35248 -8.36945,-20.33242 -14.67581,-29.24918 0,0 0,-1e-5 -10e-6,-1e-5 -7.53911,-10.64048 -17.07897,-19.61091 -27.54243,-27.06714 9.87804,8.21606 18.61775,17.79228 25.1342,28.64222 5.46223,9.07695 9.31548,19.01854 12.02912,29.2231 2.62278,9.86333 4.24937,20.01719 5.99473,30.27259 1.78323,10.54081 3.73066,21.20561 6.84732,31.77407 z"
         style="fill:#000000;fill-opacity:1;fill-rule:nonzero;stroke:none" />
      <path
         sodipodi:nodetypes="cc"
         inkscape:connector-curvature="0"
         inkscape:original-d="m -956.08829,383.9279 c -15.00844,-16.7763 -28.46805,-80.1993 -102.42681,-102.4268"
         inkscape:path-effect="#path-effect464"
         id="path462"
         d="m -959.81471,387.26164 7.45284,-6.66748 c -1.93835,-1.95291 -3.60608,-4.52245 -5.36233,-7.30005 -2.25492,-3.61508 -4.37327,-7.4227 -6.55926,-11.27953 -5.59655,-9.8936 -11.47475,-19.78975 -18.38015,-29.0249 -8.45315,-11.29973 -18.38509,-21.50577 -29.70619,-29.80504 -13.8956,-10.17488 -29.7234,-17.34036 -46.1453,-21.68354 16.0954,5.42955 31.2265,13.57726 44.0447,24.36095 10.454,8.78467 19.34393,19.27812 26.74336,30.66567 0,0 0,0 0,0 6.04359,9.29667 11.07714,19.26467 15.96307,29.4016 0,0 0,10e-6 10e-6,10e-6 1.90218,3.9551 3.81202,7.99514 5.95808,12.02014 1.59727,3.0441 3.44997,6.25788 5.99117,9.31217 z"
         style="fill:#000000;fill-opacity:1;fill-rule:nonzero;stroke:none" />
      <path
         inkscape:connector-curvature="0"
         inkscape:original-d="m -850.12953,240.8836 c 3.13864,-46.1423 0.19839,-85.4074 -33.55361,-113.0227"
         inkscape:path-effect="#path-effect468"
         id="path466"
         d="m -855.118,240.54428 9.97694,0.67864 c 0.63982,-21.40317 0.27455,-43.4725 -5.58719,-64.36003 0,0 0,0 0,0 -2.67074,-9.48708 -6.60413,-18.62866 -11.97155,-26.81702 -5.65824,-8.62157 -12.8675,-16.07723 -20.98334,-22.18497 7.59389,6.74568 14.07558,14.67532 18.86315,23.45751 10e-6,1e-5 10e-6,1e-5 10e-6,1e-5 4.55201,8.33838 7.58243,17.41064 9.40354,26.66793 0,1e-5 0,1e-5 0,1e-5 4.04547,20.45494 2.54372,41.54612 0.29844,62.55792 z"
         style="fill:#000000;fill-opacity:1;fill-rule:nonzero;stroke:none" />
      <path
         id="path42-4"
         d="m -843.14502,218.65937 c -77.30897,0 -139.97477,116.50682 -139.97477,260.23779 0,80.616 19.71114,152.65448 50.66703,200.39092 23.21698,-17.44517 53.20311,-27.96649 85.96315,-27.96649 34.8558,0 66.61402,11.89319 90.37517,31.38225 32.25655,-47.67676 52.94419,-121.24065 52.94419,-203.80668 0,-143.73097 -62.66579,-260.23779 -139.97477,-260.23779 z"
         style="fill:#ffffff;stroke:#000000;stroke-width:7.22222519;stroke-linecap:round;stroke-miterlimit:4;stroke-opacity:1;stroke-dasharray:none"
         inkscape:connector-curvature="0" />
      <path
         inkscape:connector-curvature="0"
         id="path49-0"
         d="m -845.38113,380.81093 c -49.40753,0 -89.45007,80.82349 -89.45007,180.53686 0,38.99728 6.09333,75.09171 16.50948,104.60748 20.62294,-11.64368 45.07345,-18.39527 71.30387,-18.39527 27.36747,0 52.83127,7.30589 74.00802,19.88966 10.74048,-29.78801 17.07877,-66.4427 17.07877,-106.10187 0,-99.71337 -40.04255,-180.53686 -89.45007,-180.53686 z"
         style="fill:#786721;stroke:none" />
      <path
         transform="matrix(1.1385848,0,0,1.1385848,-338.9146,6.1354)"
         d="m -414.28572,493.79074 c 0,29.1922 -12.79186,52.85714 -28.57143,52.85714 -15.77956,0 -28.57143,-23.66494 -28.57143,-52.85714 0,-29.19219 12.79187,-52.85714 28.57143,-52.85714 15.77957,0 28.57143,23.66495 28.57143,52.85714 z"
         sodipodi:ry="52.857143"
         sodipodi:rx="28.571428"
         sodipodi:cy="493.79074"
         sodipodi:cx="-442.85715"
         id="path54-9"
         style="fill:#000000;fill-opacity:1;fill-rule:nonzero;stroke:none"
         sodipodi:type="arc" />
      <path
         sodipodi:nodetypes="cccc"
         inkscape:connector-curvature="0"
         inkscape:original-d="m -908.09165,500.58567 54.91717,47.79827 -35.59446,-96.61352 c -17.32222,6.15736 -23.54813,23.80371 -19.32271,48.81525 z"
         inkscape:path-effect="#path-effect3149"
         id="path56-4"
         d="m -908.09165,500.58567 54.91717,47.79827 -35.59446,-96.61352 -19.32271,48.81525"
         style="fill:#ffffff;stroke:none" />
    </g>
    <g
       id="g3190"
       transform="matrix(0.82951081,0,0,0.82951081,51.449857,32.114626)">
      <path
         inkscape:connector-curvature="0"
         inkscape:original-d="m 113.71472,246.1816 c 6.89445,-51.8847 27.60661,-84.4536 68.87319,-113.0227"
         inkscape:path-effect="#path-effect472"
         id="path470"
         d="m 108.75829,245.52299 9.91286,1.31722 c 2.18193,-22.50293 7.53746,-44.92511 18.69648,-64.61753 10.87213,-19.29044 27.12478,-35.53372 45.22028,-49.06378 -19.03379,12.17477 -36.63831,27.30162 -49.43201,46.47222 -13.03145,19.62127 -20.49924,42.63702 -24.39761,65.89187 z"
         style="fill:#000000;fill-opacity:1;fill-rule:nonzero;stroke:none" />
      <path
         inkscape:connector-curvature="0"
         inkscape:original-d="m 161.39616,263.8413 c 18.41253,-54.9513 60.6991,-74.6946 113.02271,-81.235"
         inkscape:path-effect="#path-effect476"
         id="path474"
         d="m 156.65522,262.25275 9.48188,3.1771 c 3.6346,-12.20051 8.89482,-23.9571 16.24544,-34.3234 0,0 0,0 1e-5,0 6.53434,-9.24044 14.76336,-17.37814 24.1586,-23.95993 0,0 0,0 0,0 19.5751,-13.76568 43.69996,-20.68587 67.87772,-24.54022 -24.3826,2.21565 -49.12473,7.47644 -70.5783,20.3866 0,0 -1e-5,1e-5 -1e-5,1e-5 -10.29664,6.22139 -19.59671,14.22463 -27.29163,23.67163 0,0 0,0 0,0 -8.61344,10.59947 -15.15611,22.80231 -19.89371,35.58821 z"
         style="fill:#000000;fill-opacity:1;fill-rule:nonzero;stroke:none" />
      <path
         inkscape:connector-curvature="0"
         inkscape:original-d="m 191.41781,295.629 c 30.42189,-32.0394 59.54604,-63.5753 100.66086,-63.5753"
         inkscape:path-effect="#path-effect480"
         id="path478"
         d="m 187.79193,292.18618 7.25176,6.88564 c 14.08017,-16.05204 27.70224,-32.23253 44.11242,-45.31069 7.54171,-6.01307 15.68449,-11.32171 24.55823,-15.1584 1e-5,0 1e-5,0 1e-5,0 8.89253,-3.84877 18.54065,-6.1487 28.36432,-6.54903 -9.82367,-0.40033 -19.78171,1.10229 -29.22667,4.30717 0,0 0,0 0,0 -9.40927,3.19601 -18.27265,7.96512 -26.53132,13.53114 0,0 0,1e-5 0,1e-5 -17.91832,12.07902 -33.30381,27.48296 -48.52875,42.29416 z"
         style="fill:#000000;fill-opacity:1;fill-rule:nonzero;stroke:none" />
      <path
         inkscape:connector-curvature="0"
         inkscape:original-d="M 212.60956,336.2465 C 255.6941,302.1062 300.43217,278.8082 332.69617,290.331"
         inkscape:path-effect="#path-effect484"
         id="path482"
         d="m 209.50427,332.32767 6.21058,7.83766 c 19.07632,-16.28412 39.16849,-31.48312 61.83131,-42.01036 9.23285,-4.28571 18.88453,-7.7608 28.94969,-9.31902 0,0 10e-6,0 10e-6,0 8.67457,-1.33984 17.71627,-1.18116 26.20031,1.49505 -8.25992,-3.30375 -17.44657,-4.20124 -26.43198,-3.48067 0,0 0,0 0,0 -10.40605,0.83018 -20.61942,3.63096 -30.38921,7.32488 0,0 -10e-6,0 -10e-6,0 -23.94429,9.04411 -45.82802,23.04238 -66.3707,38.15246 z"
         style="fill:#000000;fill-opacity:1;fill-rule:nonzero;stroke:none" />
      <path
         inkscape:connector-curvature="0"
         inkscape:original-d="m 226.7374,369.8001 c 41.21468,-25.4842 91.74697,-38.9075 128.91647,-14.1278"
         inkscape:path-effect="#path-effect488"
         id="path486"
         d="m 224.10784,365.54741 5.25912,8.50538 c 19.39091,-12.96379 40.74946,-23.41626 63.709,-27.79875 0,-10e-6 0,-10e-6 0,-10e-6 10.62331,-2.03053 21.5728,-2.6946 32.34801,-1.24181 0,0 0,0 0,0 10.5915,1.42483 20.99275,4.97765 30.2299,10.66008 -8.79806,-6.34106 -19.05732,-10.74424 -29.82664,-13.00028 0,0 0,-10e-6 0,-10e-6 -10.94246,-2.28957 -22.31882,-2.46535 -33.47803,-1.15157 0,0 0,0 0,0 -24.05379,2.83555 -47.17707,11.97617 -68.24136,24.02697 z"
         style="fill:#000000;fill-opacity:1;fill-rule:nonzero;stroke:none" />
      <path
         inkscape:connector-curvature="0"
         style="fill:#ffffff;stroke:#000000;stroke-width:7.22222519;stroke-linecap:round;stroke-miterlimit:4;stroke-opacity:1;stroke-dasharray:none"
         d="m 118.5713,218.65937 c -77.308973,0 -139.974767,116.50682 -139.974767,260.23779 0,80.616 19.711134,152.65448 50.667023,200.39092 23.216985,-17.44517 53.203119,-27.96649 85.963154,-27.96649 34.8558,0 66.61402,11.89319 90.37517,31.38225 32.25655,-47.67676 52.94419,-121.24065 52.94419,-203.80668 0,-143.73097 -62.66579,-260.23779 -139.97477,-260.23779 z"
         id="path68-8" />
      <path
         style="fill:#786721;stroke:none"
         d="m 116.33519,380.81093 c -49.407533,0 -89.450069,80.82349 -89.450069,180.53686 0,38.99728 6.09333,75.09171 16.509479,104.60748 C 64.017536,654.31159 88.468053,647.56 114.69847,647.56 c 27.36747,0 52.83127,7.30589 74.00802,19.88966 10.74048,-29.78801 17.07877,-66.4427 17.07877,-106.10187 0,-99.71337 -40.04255,-180.53686 -89.45007,-180.53686 z"
         id="path70-2"
         inkscape:connector-curvature="0" />
      <path
         sodipodi:type="arc"
         style="fill:#000000;fill-opacity:1;fill-rule:nonzero;stroke:none"
         id="path72-4"
         sodipodi:cx="-442.85715"
         sodipodi:cy="493.79074"
         sodipodi:rx="28.571428"
         sodipodi:ry="52.857143"
         d="m -414.28572,493.79074 c 0,29.1922 -12.79186,52.85714 -28.57143,52.85714 -15.77956,0 -28.57143,-23.66494 -28.57143,-52.85714 0,-29.19219 12.79187,-52.85714 28.57143,-52.85714 15.77957,0 28.57143,23.66495 28.57143,52.85714 z"
         transform="matrix(1.1385848,0,0,1.1385848,622.80172,6.1354)" />
      <path
         style="fill:#ffffff;stroke:none"
         d="M 53.624671,500.58567 108.54184,548.38394 72.947377,451.77042 53.624671,500.58567"
         id="path74-5"
         inkscape:path-effect="#path-effect58-1"
         inkscape:original-d="m 53.624671,500.58567 54.917169,47.79827 -35.594463,-96.61352 c -17.322213,6.15736 -23.548131,23.80371 -19.322706,48.81525 z"
         inkscape:connector-curvature="0"
         sodipodi:nodetypes="cccc" />
    </g>
  </g>
</svg>
