<?xml version="1.0" encoding="utf-8"?>
<!-- Generator: Adobe Illustrator 18.1.1, SVG Export Plug-In . SVG Version: 6.00 Build 0)  -->
<svg version="1.1" id="Layer_1" xmlns="http://www.w3.org/2000/svg" xmlns:xlink="http://www.w3.org/1999/xlink" x="0px" y="0px"
	 viewBox="0 0 276 137" enable-background="new 0 0 276 137" xml:space="preserve">
<g>
	<defs>
		<path id="SVGID_1063_" d="M434.7-189.5c-24.6,0-44.6-20-44.6-44.6s20-44.6,44.6-44.6c24.6,0,44.6,20,44.6,44.6
			S459.3-189.5,434.7-189.5z M434.7-186.8c26.1,0,47.3-21.2,47.3-47.3s-21.2-47.3-47.3-47.3s-47.3,21.2-47.3,47.3
			S408.6-186.8,434.7-186.8z M369.2-299.6h131v131h-131V-299.6z"/>
	</defs>
	<clipPath id="SVGID_2_">
		<use xlink:href="#SVGID_1063_"  overflow="visible"/>
	</clipPath>
	<g clip-path="url(#SVGID_2_)">
		<defs>
			<circle id="SVGID_1065_" cx="434.7" cy="-234.1" r="45.9"/>
		</defs>
		<clipPath id="SVGID_4_">
			<use xlink:href="#SVGID_1065_"  overflow="visible"/>
		</clipPath>
		<g clip-path="url(#SVGID_4_)">
			<defs>
				<rect id="SVGID_1067_" x="276" y="-903.7" width="1019.8" height="937"/>
			</defs>
			<clipPath id="SVGID_6_">
				<use xlink:href="#SVGID_1067_"  overflow="visible"/>
			</clipPath>
		</g>
	</g>
</g>
<g>
	<defs>
		<circle id="SVGID_1069_" cx="434.7" cy="-234.1" r="45.9"/>
	</defs>
	<clipPath id="SVGID_8_">
		<use xlink:href="#SVGID_1069_"  overflow="visible"/>
	</clipPath>
	<g clip-path="url(#SVGID_8_)">
		<defs>
			<rect id="SVGID_1071_" x="276" y="-903.7" width="1019.8" height="937"/>
		</defs>
		<clipPath id="SVGID_10_">
			<use xlink:href="#SVGID_1071_"  overflow="visible"/>
		</clipPath>
	</g>
</g>
<g>
	<defs>
		<circle id="SVGID_1073_" cx="434.7" cy="-234.1" r="39.6"/>
	</defs>
	<clipPath id="SVGID_12_">
		<use xlink:href="#SVGID_1073_"  overflow="visible"/>
	</clipPath>
	<g clip-path="url(#SVGID_12_)">
		<defs>
			<rect id="SVGID_1075_" x="276" y="-903.7" width="1019.8" height="937"/>
		</defs>
		<clipPath id="SVGID_14_">
			<use xlink:href="#SVGID_1075_"  overflow="visible"/>
		</clipPath>
	</g>
</g>
<rect x="79.5" y="38.3" fill="#FFFFFF" stroke="#0C1F2E" stroke-width="3" stroke-linecap="round" stroke-miterlimit="10" width="123.4" height="74.7"/>
<text transform="matrix(1 0 0 1 126.5002 62.4685)"><tspan x="0" y="0" fill="#231F20" font-family="'Montserrat-Bold'" font-size="16.1042">MASS</tspan><tspan x="0" y="19.3" fill="#231F20" font-family="'Montserrat-Bold'" font-size="16.1042">VALUE </tspan><tspan x="0" y="38.7" fill="#231F20" font-family="'Montserrat-Bold'" font-size="16.1042">PASS</tspan></text>
<rect x="92.4" y="38.3" fill="none" stroke="#0C1F2E" stroke-width="3" stroke-linecap="round" stroke-miterlimit="10" width="14.9" height="14.9"/>
<rect x="92.4" y="53.2" fill="none" stroke="#0C1F2E" stroke-width="3" stroke-linecap="round" stroke-miterlimit="10" width="14.9" height="14.9"/>
<rect x="92.4" y="68.2" fill="none" stroke="#0C1F2E" stroke-width="3" stroke-linecap="round" stroke-miterlimit="10" width="14.9" height="14.9"/>
<g>
	<defs>
		<path id="SVGID_1077_" d="M973.5-122.8H972v1.5v81v1.5h1.5h105h1.5v-1.5v-81v-1.5h-1.5H973.5z M973.5-119.8h105l-1.5-1.5v81
			l1.5-1.5h-105l1.5,1.5v-81L973.5-119.8z M952-142.8h148v124H952V-142.8z"/>
	</defs>
	<clipPath id="SVGID_16_">
		<use xlink:href="#SVGID_1077_"  overflow="visible"/>
	</clipPath>
	<g clip-path="url(#SVGID_16_)">
		<defs>
			<rect id="SVGID_1079_" x="973.5" y="-121.3" width="105" height="81"/>
		</defs>
		<clipPath id="SVGID_18_">
			<use xlink:href="#SVGID_1079_"  overflow="visible"/>
		</clipPath>
		<g clip-path="url(#SVGID_18_)">
			<defs>
				<rect id="SVGID_1081_" x="92.5" y="-620.3" width="1121" height="1030"/>
			</defs>
			<clipPath id="SVGID_20_">
				<use xlink:href="#SVGID_1081_"  overflow="visible"/>
			</clipPath>
		</g>
	</g>
</g>
<g>
	<defs>
		<rect id="SVGID_1083_" x="973.5" y="-121.3" width="105" height="81"/>
	</defs>
	<clipPath id="SVGID_22_">
		<use xlink:href="#SVGID_1083_"  overflow="visible"/>
	</clipPath>
	<g clip-path="url(#SVGID_22_)">
		<defs>
			<rect id="SVGID_1085_" x="92.5" y="-620.3" width="1121" height="1030"/>
		</defs>
		<clipPath id="SVGID_24_">
			<use xlink:href="#SVGID_1085_"  overflow="visible"/>
		</clipPath>
	</g>
</g>
<g>
	<defs>
		<path id="SVGID_1087_" d="M967.5-105.8h-2.2l0.9-2.1l9.1-22l0.4-0.9h1h98.9h1l0.4,0.9l9.1,22l0.9,2.1h-2.2H967.5z M967.5-108.8
			h117l-1.4,2.1l-9.1-22l1.4,0.9h-98.9l1.4-0.9l-9.1,22L967.5-108.8z M945.3-85.8h161.5v-65H945.3V-85.8z"/>
	</defs>
	<clipPath id="SVGID_26_">
		<use xlink:href="#SVGID_1087_"  overflow="visible"/>
	</clipPath>
	<g clip-path="url(#SVGID_26_)">
		<defs>
			<polygon id="SVGID_1089_" points="967.5,-107.3 1084.5,-107.3 1075.4,-129.3 976.6,-129.3 			"/>
		</defs>
		<clipPath id="SVGID_28_">
			<use xlink:href="#SVGID_1089_"  overflow="visible"/>
		</clipPath>
		<g clip-path="url(#SVGID_28_)">
			<defs>
				<rect id="SVGID_1091_" x="92.5" y="-620.3" width="1121" height="1030"/>
			</defs>
			<clipPath id="SVGID_30_">
				<use xlink:href="#SVGID_1091_"  overflow="visible"/>
			</clipPath>
		</g>
	</g>
</g>
<g>
	<defs>
		<polygon id="SVGID_1093_" points="967.5,-107.3 1084.5,-107.3 1075.4,-129.3 976.6,-129.3 		"/>
	</defs>
	<clipPath id="SVGID_32_">
		<use xlink:href="#SVGID_1093_"  overflow="visible"/>
	</clipPath>
	<g clip-path="url(#SVGID_32_)">
		<defs>
			<rect id="SVGID_1095_" x="92.5" y="-620.3" width="1121" height="1030"/>
		</defs>
		<clipPath id="SVGID_34_">
			<use xlink:href="#SVGID_1095_"  overflow="visible"/>
		</clipPath>
	</g>
</g>
<g>
	<defs>
		<path id="SVGID_1097_" d="M1052.5-138.8h-1.5v1.5v16v1.5h1.5h12h1.5v-1.5v-16v-1.5h-1.5H1052.5z M1052.5-135.8h12l-1.5-1.5v16
			l1.5-1.5h-12l1.5,1.5v-16L1052.5-135.8z M1031-158.8h55v59h-55V-158.8z"/>
	</defs>
	<clipPath id="SVGID_36_">
		<use xlink:href="#SVGID_1097_"  overflow="visible"/>
	</clipPath>
	<g clip-path="url(#SVGID_36_)">
		<defs>
			<rect id="SVGID_1099_" x="1052.5" y="-137.3" width="12" height="16"/>
		</defs>
		<clipPath id="SVGID_38_">
			<use xlink:href="#SVGID_1099_"  overflow="visible"/>
		</clipPath>
		<g clip-path="url(#SVGID_38_)">
			<defs>
				<rect id="SVGID_1101_" x="92.5" y="-620.3" width="1121" height="1030"/>
			</defs>
			<clipPath id="SVGID_40_">
				<use xlink:href="#SVGID_1101_"  overflow="visible"/>
			</clipPath>
		</g>
	</g>
</g>
<g>
	<defs>
		<rect id="SVGID_1103_" x="1052.5" y="-137.3" width="12" height="16"/>
	</defs>
	<clipPath id="SVGID_42_">
		<use xlink:href="#SVGID_1103_"  overflow="visible"/>
	</clipPath>
	<g clip-path="url(#SVGID_42_)">
		<defs>
			<rect id="SVGID_1105_" x="92.5" y="-620.3" width="1121" height="1030"/>
		</defs>
		<clipPath id="SVGID_44_">
			<use xlink:href="#SVGID_1105_"  overflow="visible"/>
		</clipPath>
	</g>
</g>
<g>
	<defs>
		<path id="SVGID_1107_" d="M986.5-72.8H985v1.5v31v1.5h1.5h21h1.5v-1.5v-31v-1.5h-1.5H986.5z M986.5-69.8h21l-1.5-1.5v31l1.5-1.5
			h-21l1.5,1.5v-31L986.5-69.8z M965-92.8h64v74h-64V-92.8z"/>
	</defs>
	<clipPath id="SVGID_46_">
		<use xlink:href="#SVGID_1107_"  overflow="visible"/>
	</clipPath>
	<g clip-path="url(#SVGID_46_)">
		<defs>
			<rect id="SVGID_1109_" x="986.5" y="-71.3" width="21" height="31"/>
		</defs>
		<clipPath id="SVGID_48_">
			<use xlink:href="#SVGID_1109_"  overflow="visible"/>
		</clipPath>
		<g clip-path="url(#SVGID_48_)">
			<defs>
				<rect id="SVGID_1111_" x="92.5" y="-620.3" width="1121" height="1030"/>
			</defs>
			<clipPath id="SVGID_50_">
				<use xlink:href="#SVGID_1111_"  overflow="visible"/>
			</clipPath>
		</g>
	</g>
</g>
<g>
	<defs>
		<rect id="SVGID_1113_" x="986.5" y="-71.3" width="21" height="31"/>
	</defs>
	<clipPath id="SVGID_52_">
		<use xlink:href="#SVGID_1113_"  overflow="visible"/>
	</clipPath>
	<g clip-path="url(#SVGID_52_)">
		<defs>
			<rect id="SVGID_1115_" x="92.5" y="-620.3" width="1121" height="1030"/>
		</defs>
		<clipPath id="SVGID_54_">
			<use xlink:href="#SVGID_1115_"  overflow="visible"/>
		</clipPath>
	</g>
</g>
<g>
	<defs>
		<path id="SVGID_1117_" d="M987.5-100.8H986v1.5v19v1.5h1.5h19h1.5v-1.5v-19v-1.5h-1.5H987.5z M987.5-97.8h19l-1.5-1.5v19l1.5-1.5
			h-19l1.5,1.5v-19L987.5-97.8z M966-120.8h62v62h-62V-120.8z"/>
	</defs>
	<clipPath id="SVGID_56_">
		<use xlink:href="#SVGID_1117_"  overflow="visible"/>
	</clipPath>
	<g clip-path="url(#SVGID_56_)">
		<defs>
			<rect id="SVGID_1119_" x="987.5" y="-99.3" width="19" height="19"/>
		</defs>
		<clipPath id="SVGID_58_">
			<use xlink:href="#SVGID_1119_"  overflow="visible"/>
		</clipPath>
		<g clip-path="url(#SVGID_58_)">
			<defs>
				<rect id="SVGID_1121_" x="92.5" y="-620.3" width="1121" height="1030"/>
			</defs>
			<clipPath id="SVGID_60_">
				<use xlink:href="#SVGID_1121_"  overflow="visible"/>
			</clipPath>
		</g>
	</g>
</g>
<g>
	<defs>
		<rect id="SVGID_1123_" x="987.5" y="-99.3" width="19" height="19"/>
	</defs>
	<clipPath id="SVGID_62_">
		<use xlink:href="#SVGID_1123_"  overflow="visible"/>
	</clipPath>
	<g clip-path="url(#SVGID_62_)">
		<defs>
			<rect id="SVGID_1125_" x="92.5" y="-620.3" width="1121" height="1030"/>
		</defs>
		<clipPath id="SVGID_64_">
			<use xlink:href="#SVGID_1125_"  overflow="visible"/>
		</clipPath>
	</g>
</g>
<g>
	<defs>
		<path id="SVGID_1127_" d="M992.5-95.8H991v1.5v9v1.5h1.5h9h1.5v-1.5v-9v-1.5h-1.5H992.5z M992.5-92.8h9l-1.5-1.5v9l1.5-1.5h-9
			l1.5,1.5v-9L992.5-92.8z M971-115.8h52v52h-52V-115.8z"/>
	</defs>
	<clipPath id="SVGID_66_">
		<use xlink:href="#SVGID_1127_"  overflow="visible"/>
	</clipPath>
	<g clip-path="url(#SVGID_66_)">
		<defs>
			<rect id="SVGID_1129_" x="992.5" y="-94.3" width="9" height="9"/>
		</defs>
		<clipPath id="SVGID_68_">
			<use xlink:href="#SVGID_1129_"  overflow="visible"/>
		</clipPath>
		<g clip-path="url(#SVGID_68_)">
			<defs>
				<rect id="SVGID_1131_" x="92.5" y="-620.3" width="1121" height="1030"/>
			</defs>
			<clipPath id="SVGID_70_">
				<use xlink:href="#SVGID_1131_"  overflow="visible"/>
			</clipPath>
		</g>
	</g>
</g>
<g>
	<defs>
		<rect id="SVGID_1133_" x="992.5" y="-94.3" width="9" height="9"/>
	</defs>
	<clipPath id="SVGID_72_">
		<use xlink:href="#SVGID_1133_"  overflow="visible"/>
	</clipPath>
	<g clip-path="url(#SVGID_72_)">
		<defs>
			<rect id="SVGID_1135_" x="92.5" y="-620.3" width="1121" height="1030"/>
		</defs>
		<clipPath id="SVGID_74_">
			<use xlink:href="#SVGID_1135_"  overflow="visible"/>
		</clipPath>
	</g>
</g>
<g>
	<defs>
		<path id="SVGID_1137_" d="M1017.5-100.8h-1.5v1.5v19v1.5h1.5h19h1.5v-1.5v-19v-1.5h-1.5H1017.5z M1017.5-97.8h19l-1.5-1.5v19
			l1.5-1.5h-19l1.5,1.5v-19L1017.5-97.8z M996-120.8h62v62h-62V-120.8z"/>
	</defs>
	<clipPath id="SVGID_76_">
		<use xlink:href="#SVGID_1137_"  overflow="visible"/>
	</clipPath>
	<g clip-path="url(#SVGID_76_)">
		<defs>
			<rect id="SVGID_1139_" x="1017.5" y="-99.3" width="19" height="19"/>
		</defs>
		<clipPath id="SVGID_78_">
			<use xlink:href="#SVGID_1139_"  overflow="visible"/>
		</clipPath>
		<g clip-path="url(#SVGID_78_)">
			<defs>
				<rect id="SVGID_1141_" x="92.5" y="-620.3" width="1121" height="1030"/>
			</defs>
			<clipPath id="SVGID_80_">
				<use xlink:href="#SVGID_1141_"  overflow="visible"/>
			</clipPath>
		</g>
	</g>
</g>
<g>
	<defs>
		<rect id="SVGID_1143_" x="1017.5" y="-99.3" width="19" height="19"/>
	</defs>
	<clipPath id="SVGID_82_">
		<use xlink:href="#SVGID_1143_"  overflow="visible"/>
	</clipPath>
	<g clip-path="url(#SVGID_82_)">
		<defs>
			<rect id="SVGID_1145_" x="92.5" y="-620.3" width="1121" height="1030"/>
		</defs>
		<clipPath id="SVGID_84_">
			<use xlink:href="#SVGID_1145_"  overflow="visible"/>
		</clipPath>
	</g>
</g>
<g>
	<defs>
		<path id="SVGID_1147_" d="M1046.5-100.8h-1.5v1.5v19v1.5h1.5h19h1.5v-1.5v-19v-1.5h-1.5H1046.5z M1046.5-97.8h19l-1.5-1.5v19
			l1.5-1.5h-19l1.5,1.5v-19L1046.5-97.8z M1025-120.8h62v62h-62V-120.8z"/>
	</defs>
	<clipPath id="SVGID_86_">
		<use xlink:href="#SVGID_1147_"  overflow="visible"/>
	</clipPath>
	<g clip-path="url(#SVGID_86_)">
		<defs>
			<rect id="SVGID_1149_" x="1046.5" y="-99.3" width="19" height="19"/>
		</defs>
		<clipPath id="SVGID_88_">
			<use xlink:href="#SVGID_1149_"  overflow="visible"/>
		</clipPath>
		<g clip-path="url(#SVGID_88_)">
			<defs>
				<rect id="SVGID_1151_" x="92.5" y="-620.3" width="1121" height="1030"/>
			</defs>
			<clipPath id="SVGID_90_">
				<use xlink:href="#SVGID_1151_"  overflow="visible"/>
			</clipPath>
		</g>
	</g>
</g>
<g>
	<defs>
		<rect id="SVGID_1153_" x="1046.5" y="-99.3" width="19" height="19"/>
	</defs>
	<clipPath id="SVGID_92_">
		<use xlink:href="#SVGID_1153_"  overflow="visible"/>
	</clipPath>
	<g clip-path="url(#SVGID_92_)">
		<defs>
			<rect id="SVGID_1155_" x="92.5" y="-620.3" width="1121" height="1030"/>
		</defs>
		<clipPath id="SVGID_94_">
			<use xlink:href="#SVGID_1155_"  overflow="visible"/>
		</clipPath>
	</g>
</g>
<g>
	<defs>
		<path id="SVGID_1157_" d="M1017.5-72.8h-1.5v1.5v19v1.5h1.5h19h1.5v-1.5v-19v-1.5h-1.5H1017.5z M1017.5-69.8h19l-1.5-1.5v19
			l1.5-1.5h-19l1.5,1.5v-19L1017.5-69.8z M996-92.8h62v62h-62V-92.8z"/>
	</defs>
	<clipPath id="SVGID_96_">
		<use xlink:href="#SVGID_1157_"  overflow="visible"/>
	</clipPath>
	<g clip-path="url(#SVGID_96_)">
		<defs>
			<rect id="SVGID_1159_" x="1017.5" y="-71.3" width="19" height="19"/>
		</defs>
		<clipPath id="SVGID_98_">
			<use xlink:href="#SVGID_1159_"  overflow="visible"/>
		</clipPath>
		<g clip-path="url(#SVGID_98_)">
			<defs>
				<rect id="SVGID_1161_" x="92.5" y="-620.3" width="1121" height="1030"/>
			</defs>
			<clipPath id="SVGID_100_">
				<use xlink:href="#SVGID_1161_"  overflow="visible"/>
			</clipPath>
		</g>
	</g>
</g>
<g>
	<defs>
		<rect id="SVGID_1163_" x="1017.5" y="-71.3" width="19" height="19"/>
	</defs>
	<clipPath id="SVGID_102_">
		<use xlink:href="#SVGID_1163_"  overflow="visible"/>
	</clipPath>
	<g clip-path="url(#SVGID_102_)">
		<defs>
			<rect id="SVGID_1165_" x="92.5" y="-620.3" width="1121" height="1030"/>
		</defs>
		<clipPath id="SVGID_104_">
			<use xlink:href="#SVGID_1165_"  overflow="visible"/>
		</clipPath>
	</g>
</g>
<g>
	<defs>
		<path id="SVGID_1167_" d="M1046.5-72.8h-1.5v1.5v19v1.5h1.5h19h1.5v-1.5v-19v-1.5h-1.5H1046.5z M1046.5-69.8h19l-1.5-1.5v19
			l1.5-1.5h-19l1.5,1.5v-19L1046.5-69.8z M1025-92.8h62v62h-62V-92.8z"/>
	</defs>
	<clipPath id="SVGID_106_">
		<use xlink:href="#SVGID_1167_"  overflow="visible"/>
	</clipPath>
	<g clip-path="url(#SVGID_106_)">
		<defs>
			<rect id="SVGID_1169_" x="1046.5" y="-71.3" width="19" height="19"/>
		</defs>
		<clipPath id="SVGID_108_">
			<use xlink:href="#SVGID_1169_"  overflow="visible"/>
		</clipPath>
		<g clip-path="url(#SVGID_108_)">
			<defs>
				<rect id="SVGID_1171_" x="92.5" y="-620.3" width="1121" height="1030"/>
			</defs>
			<clipPath id="SVGID_110_">
				<use xlink:href="#SVGID_1171_"  overflow="visible"/>
			</clipPath>
		</g>
	</g>
</g>
<g>
	<defs>
		<rect id="SVGID_1173_" x="1046.5" y="-71.3" width="19" height="19"/>
	</defs>
	<clipPath id="SVGID_112_">
		<use xlink:href="#SVGID_1173_"  overflow="visible"/>
	</clipPath>
	<g clip-path="url(#SVGID_112_)">
		<defs>
			<rect id="SVGID_1175_" x="92.5" y="-620.3" width="1121" height="1030"/>
		</defs>
		<clipPath id="SVGID_114_">
			<use xlink:href="#SVGID_1175_"  overflow="visible"/>
		</clipPath>
	</g>
</g>
<g>
	<defs>
		<path id="SVGID_1177_" d="M1022.5-95.8h-1.5v1.5v9v1.5h1.5h9h1.5v-1.5v-9v-1.5h-1.5H1022.5z M1022.5-92.8h9l-1.5-1.5v9l1.5-1.5h-9
			l1.5,1.5v-9L1022.5-92.8z M1001-115.8h52v52h-52V-115.8z"/>
	</defs>
	<clipPath id="SVGID_116_">
		<use xlink:href="#SVGID_1177_"  overflow="visible"/>
	</clipPath>
	<g clip-path="url(#SVGID_116_)">
		<defs>
			<rect id="SVGID_1179_" x="1022.5" y="-94.3" width="9" height="9"/>
		</defs>
		<clipPath id="SVGID_118_">
			<use xlink:href="#SVGID_1179_"  overflow="visible"/>
		</clipPath>
		<g clip-path="url(#SVGID_118_)">
			<defs>
				<rect id="SVGID_1181_" x="92.5" y="-620.3" width="1121" height="1030"/>
			</defs>
			<clipPath id="SVGID_120_">
				<use xlink:href="#SVGID_1181_"  overflow="visible"/>
			</clipPath>
		</g>
	</g>
</g>
<g>
	<defs>
		<rect id="SVGID_1183_" x="1022.5" y="-94.3" width="9" height="9"/>
	</defs>
	<clipPath id="SVGID_122_">
		<use xlink:href="#SVGID_1183_"  overflow="visible"/>
	</clipPath>
	<g clip-path="url(#SVGID_122_)">
		<defs>
			<rect id="SVGID_1185_" x="92.5" y="-620.3" width="1121" height="1030"/>
		</defs>
		<clipPath id="SVGID_124_">
			<use xlink:href="#SVGID_1185_"  overflow="visible"/>
		</clipPath>
	</g>
</g>
<g>
	<defs>
		<path id="SVGID_1187_" d="M1051.5-95.8h-1.5v1.5v9v1.5h1.5h9h1.5v-1.5v-9v-1.5h-1.5H1051.5z M1051.5-92.8h9l-1.5-1.5v9l1.5-1.5h-9
			l1.5,1.5v-9L1051.5-92.8z M1030-115.8h52v52h-52V-115.8z"/>
	</defs>
	<clipPath id="SVGID_126_">
		<use xlink:href="#SVGID_1187_"  overflow="visible"/>
	</clipPath>
	<g clip-path="url(#SVGID_126_)">
		<defs>
			<rect id="SVGID_1189_" x="1051.5" y="-94.3" width="9" height="9"/>
		</defs>
		<clipPath id="SVGID_128_">
			<use xlink:href="#SVGID_1189_"  overflow="visible"/>
		</clipPath>
		<g clip-path="url(#SVGID_128_)">
			<defs>
				<rect id="SVGID_1191_" x="92.5" y="-620.3" width="1121" height="1030"/>
			</defs>
			<clipPath id="SVGID_130_">
				<use xlink:href="#SVGID_1191_"  overflow="visible"/>
			</clipPath>
		</g>
	</g>
</g>
<g>
	<defs>
		<rect id="SVGID_1193_" x="1051.5" y="-94.3" width="9" height="9"/>
	</defs>
	<clipPath id="SVGID_132_">
		<use xlink:href="#SVGID_1193_"  overflow="visible"/>
	</clipPath>
	<g clip-path="url(#SVGID_132_)">
		<defs>
			<rect id="SVGID_1195_" x="92.5" y="-620.3" width="1121" height="1030"/>
		</defs>
		<clipPath id="SVGID_134_">
			<use xlink:href="#SVGID_1195_"  overflow="visible"/>
		</clipPath>
	</g>
</g>
<g>
	<defs>
		<path id="SVGID_1197_" d="M1022.5-67.8h-1.5v1.5v9v1.5h1.5h9h1.5v-1.5v-9v-1.5h-1.5H1022.5z M1022.5-64.8h9l-1.5-1.5v9l1.5-1.5h-9
			l1.5,1.5v-9L1022.5-64.8z M1001-87.8h52v52h-52V-87.8z"/>
	</defs>
	<clipPath id="SVGID_136_">
		<use xlink:href="#SVGID_1197_"  overflow="visible"/>
	</clipPath>
	<g clip-path="url(#SVGID_136_)">
		<defs>
			<rect id="SVGID_1199_" x="1022.5" y="-66.3" width="9" height="9"/>
		</defs>
		<clipPath id="SVGID_138_">
			<use xlink:href="#SVGID_1199_"  overflow="visible"/>
		</clipPath>
		<g clip-path="url(#SVGID_138_)">
			<defs>
				<rect id="SVGID_1201_" x="92.5" y="-620.3" width="1121" height="1030"/>
			</defs>
			<clipPath id="SVGID_140_">
				<use xlink:href="#SVGID_1201_"  overflow="visible"/>
			</clipPath>
		</g>
	</g>
</g>
<g>
	<defs>
		<rect id="SVGID_1203_" x="1022.5" y="-66.3" width="9" height="9"/>
	</defs>
	<clipPath id="SVGID_142_">
		<use xlink:href="#SVGID_1203_"  overflow="visible"/>
	</clipPath>
	<g clip-path="url(#SVGID_142_)">
		<defs>
			<rect id="SVGID_1205_" x="92.5" y="-620.3" width="1121" height="1030"/>
		</defs>
		<clipPath id="SVGID_144_">
			<use xlink:href="#SVGID_1205_"  overflow="visible"/>
		</clipPath>
	</g>
</g>
<g>
	<defs>
		<path id="SVGID_1207_" d="M1051.5-67.8h-1.5v1.5v9v1.5h1.5h9h1.5v-1.5v-9v-1.5h-1.5H1051.5z M1051.5-64.8h9l-1.5-1.5v9l1.5-1.5h-9
			l1.5,1.5v-9L1051.5-64.8z M1030-87.8h52v52h-52V-87.8z"/>
	</defs>
	<clipPath id="SVGID_146_">
		<use xlink:href="#SVGID_1207_"  overflow="visible"/>
	</clipPath>
	<g clip-path="url(#SVGID_146_)">
		<defs>
			<rect id="SVGID_1209_" x="1051.5" y="-66.3" width="9" height="9"/>
		</defs>
		<clipPath id="SVGID_148_">
			<use xlink:href="#SVGID_1209_"  overflow="visible"/>
		</clipPath>
		<g clip-path="url(#SVGID_148_)">
			<defs>
				<rect id="SVGID_1211_" x="92.5" y="-620.3" width="1121" height="1030"/>
			</defs>
			<clipPath id="SVGID_150_">
				<use xlink:href="#SVGID_1211_"  overflow="visible"/>
			</clipPath>
		</g>
	</g>
</g>
<g>
	<defs>
		<rect id="SVGID_1213_" x="1051.5" y="-66.3" width="9" height="9"/>
	</defs>
	<clipPath id="SVGID_152_">
		<use xlink:href="#SVGID_1213_"  overflow="visible"/>
	</clipPath>
	<g clip-path="url(#SVGID_152_)">
		<defs>
			<rect id="SVGID_1215_" x="92.5" y="-620.3" width="1121" height="1030"/>
		</defs>
		<clipPath id="SVGID_154_">
			<use xlink:href="#SVGID_1215_"  overflow="visible"/>
		</clipPath>
	</g>
</g>
<rect x="92.4" y="83.1" fill="none" stroke="#0C1F2E" stroke-width="3" stroke-linecap="round" stroke-miterlimit="10" width="14.9" height="14.9"/>
<rect x="92.4" y="98" fill="none" stroke="#0C1F2E" stroke-width="3" stroke-linecap="round" stroke-miterlimit="10" width="14.9" height="14.9"/>
</svg>
