<svg xmlns="http://www.w3.org/2000/svg" version="1.1" width="424" height="424" viewBox="0 0 424 424"><defs><clipPath id="clip-1"><rect x="0" y="23.999999999999986" width="400" height="400"/></clipPath></defs><path fill="none" stroke="#000000" d="M 0,424 L 0,24" style="stroke-width: 2px;opacity: 0.1" stroke-width="2" opacity="0.1"/><path fill="none" stroke="#000000" d="M 20,424 L 20,24" style="stroke-width: 2px;opacity: 0.1" stroke-width="2" opacity="0.1"/><path fill="none" stroke="#000000" d="M 40,424 L 40,24" style="stroke-width: 2px;opacity: 0.1" stroke-width="2" opacity="0.1"/><path fill="none" stroke="#000000" d="M 60,424 L 60,24" style="stroke-width: 2px;opacity: 0.1" stroke-width="2" opacity="0.1"/><path fill="none" stroke="#000000" d="M 80,424 L 80,24" style="stroke-width: 2px;opacity: 0.1" stroke-width="2" opacity="0.1"/><path fill="none" stroke="#000000" d="M 100,424 L 100,24" style="stroke-width: 2px;opacity: 0.1" stroke-width="2" opacity="0.1"/><path fill="none" stroke="#000000" d="M 120,424 L 120,24" style="stroke-width: 2px;opacity: 0.1" stroke-width="2" opacity="0.1"/><path fill="none" stroke="#000000" d="M 140,424 L 140,24" style="stroke-width: 2px;opacity: 0.1" stroke-width="2" opacity="0.1"/><path fill="none" stroke="#000000" d="M 160,424 L 160,24" style="stroke-width: 2px;opacity: 0.1" stroke-width="2" opacity="0.1"/><path fill="none" stroke="#000000" d="M 180,424 L 180,24" style="stroke-width: 2px;opacity: 0.1" stroke-width="2" opacity="0.1"/><path fill="none" stroke="#000000" d="M 200,424 L 200,24" style="stroke-width: 2px;opacity: 0.1" stroke-width="2" opacity="0.1"/><path fill="none" stroke="#000000" d="M 220,424 L 220,24" style="stroke-width: 2px;opacity: 0.1" stroke-width="2" opacity="0.1"/><path fill="none" stroke="#000000" d="M 240,424 L 240,24" style="stroke-width: 2px;opacity: 0.1" stroke-width="2" opacity="0.1"/><path fill="none" stroke="#000000" d="M 260,424 L 260,24" style="stroke-width: 2px;opacity: 0.1" stroke-width="2" opacity="0.1"/><path fill="none" stroke="#000000" d="M 280,424 L 280,24" style="stroke-width: 2px;opacity: 0.1" stroke-width="2" opacity="0.1"/><path fill="none" stroke="#000000" d="M 300,424 L 300,24" style="stroke-width: 2px;opacity: 0.1" stroke-width="2" opacity="0.1"/><path fill="none" stroke="#000000" d="M 320,424 L 320,24" style="stroke-width: 2px;opacity: 0.1" stroke-width="2" opacity="0.1"/><path fill="none" stroke="#000000" d="M 340,424 L 340,24" style="stroke-width: 2px;opacity: 0.1" stroke-width="2" opacity="0.1"/><path fill="none" stroke="#000000" d="M 360,424 L 360,24" style="stroke-width: 2px;opacity: 0.1" stroke-width="2" opacity="0.1"/><path fill="none" stroke="#000000" d="M 380,424 L 380,24" style="stroke-width: 2px;opacity: 0.1" stroke-width="2" opacity="0.1"/><path fill="none" stroke="#000000" d="M 400,424 L 400,24" style="stroke-width: 2px;opacity: 0.1" stroke-width="2" opacity="0.1"/><path fill="none" stroke="#000000" d="M 0,424 L 400,424" style="stroke-width: 2px;opacity: 0.1" stroke-width="2" opacity="0.1"/><path fill="none" stroke="#000000" d="M 0,404 L 400,404" style="stroke-width: 2px;opacity: 0.1" stroke-width="2" opacity="0.1"/><path fill="none" stroke="#000000" d="M 0,384 L 400,384" style="stroke-width: 2px;opacity: 0.1" stroke-width="2" opacity="0.1"/><path fill="none" stroke="#000000" d="M 0,364 L 400,364" style="stroke-width: 2px;opacity: 0.1" stroke-width="2" opacity="0.1"/><path fill="none" stroke="#000000" d="M 0,344 L 400,344" style="stroke-width: 2px;opacity: 0.1" stroke-width="2" opacity="0.1"/><path fill="none" stroke="#000000" d="M 0,324 L 400,324" style="stroke-width: 2px;opacity: 0.1" stroke-width="2" opacity="0.1"/><path fill="none" stroke="#000000" d="M 0,304 L 400,304" style="stroke-width: 2px;opacity: 0.1" stroke-width="2" opacity="0.1"/><path fill="none" stroke="#000000" d="M 0,284 L 400,284" style="stroke-width: 2px;opacity: 0.1" stroke-width="2" opacity="0.1"/><path fill="none" stroke="#000000" d="M 0,264 L 400,264" style="stroke-width: 2px;opacity: 0.1" stroke-width="2" opacity="0.1"/><path fill="none" stroke="#000000" d="M 0,244 L 400,244" style="stroke-width: 2px;opacity: 0.1" stroke-width="2" opacity="0.1"/><path fill="none" stroke="#000000" d="M 0,224 L 400,224" style="stroke-width: 2px;opacity: 0.1" stroke-width="2" opacity="0.1"/><path fill="none" stroke="#000000" d="M 0,204 L 400,204" style="stroke-width: 2px;opacity: 0.1" stroke-width="2" opacity="0.1"/><path fill="none" stroke="#000000" d="M 0,184 L 400,184" style="stroke-width: 2px;opacity: 0.1" stroke-width="2" opacity="0.1"/><path fill="none" stroke="#000000" d="M 0,164 L 400,164" style="stroke-width: 2px;opacity: 0.1" stroke-width="2" opacity="0.1"/><path fill="none" stroke="#000000" d="M 0,144 L 400,144" style="stroke-width: 2px;opacity: 0.1" stroke-width="2" opacity="0.1"/><path fill="none" stroke="#000000" d="M 0,124 L 400,124" style="stroke-width: 2px;opacity: 0.1" stroke-width="2" opacity="0.1"/><path fill="none" stroke="#000000" d="M 0,104 L 400,104" style="stroke-width: 2px;opacity: 0.1" stroke-width="2" opacity="0.1"/><path fill="none" stroke="#000000" d="M 0,84 L 400,84" style="stroke-width: 2px;opacity: 0.1" stroke-width="2" opacity="0.1"/><path fill="none" stroke="#000000" d="M 0,64 L 400,64" style="stroke-width: 2px;opacity: 0.1" stroke-width="2" opacity="0.1"/><path fill="none" stroke="#000000" d="M 0,44 L 400,44" style="stroke-width: 2px;opacity: 0.1" stroke-width="2" opacity="0.1"/><path fill="none" stroke="#000000" d="M 0,24 L 400,24" style="stroke-width: 2px;opacity: 0.1" stroke-width="2" opacity="0.1"/><path fill="none" stroke="#000000" d="M -3.45,269.6 C -3.1,267.5 0.75,264.35 1.8,264 C 0.75,263.65 -3.1,260.5 -3.45,258.4" transform="rotate(180 1.8000000000000114 264)" style="stroke-width: 2px;opacity: 1;stroke-linejoin: round;stroke-linecap: round" stroke-width="2" opacity="1" stroke-linejoin="round" stroke-linecap="round"/><path fill="none" stroke="#000000" d="M 200,264 S 200,264 1.05,264" style="stroke-width: 2px;opacity: 1" stroke-width="2" opacity="1"/><path fill="none" stroke="#000000" d="M 394.45,269.6 C 394.8,267.5 398.65,264.35 399.7,264 C 398.65,263.65 394.8,260.5 394.45,258.4" transform="" style="stroke-width: 2px;opacity: 1;stroke-linejoin: round;stroke-linecap: round" stroke-width="2" opacity="1" stroke-linejoin="round" stroke-linecap="round"/><path fill="none" stroke="#000000" d="M 200,264 S 200,264 398.95,264" style="stroke-width: 2px;opacity: 1" stroke-width="2" opacity="1"/><path fill="none" stroke="#000000" d="M 195.5,428.55 C 195.85,426.45 199.7,423.3 200.75,422.95 C 199.7,422.6 195.85,419.45 195.5,417.35" transform="rotate(90 200.75 422.95)" style="stroke-width: 2px;opacity: 1;stroke-linejoin: round;stroke-linecap: round" stroke-width="2" opacity="1" stroke-linejoin="round" stroke-linecap="round"/><path fill="none" stroke="#000000" d="M 200,264 S 200,264 200,422.95" style="stroke-width: 2px;opacity: 1" stroke-width="2" opacity="1"/><path fill="none" stroke="#000000" d="M 195.5,30.65 C 195.85,28.55 199.7,25.4 200.75,25.05 C 199.7,24.7 195.85,21.55 195.5,19.45" transform="rotate(-90 200.75 25.05000000000001)" style="stroke-width: 2px;opacity: 1;stroke-linejoin: round;stroke-linecap: round" stroke-width="2" opacity="1" stroke-linejoin="round" stroke-linecap="round"/><path fill="none" stroke="#000000" d="M 200,264 S 200,264 200,25.05" style="stroke-width: 2px;opacity: 1" stroke-width="2" opacity="1"/><path fill="none" stroke="#000000" d="M 240,269 L 240,259" style="stroke-width: 1px;opacity: 1" stroke-width="1" opacity="1"/><path fill="none" stroke="#000000" d="M 280,269 L 280,259" style="stroke-width: 1px;opacity: 1" stroke-width="1" opacity="1"/><path fill="none" stroke="#000000" d="M 320,269 L 320,259" style="stroke-width: 1px;opacity: 1" stroke-width="1" opacity="1"/><path fill="none" stroke="#000000" d="M 360,269 L 360,259" style="stroke-width: 1px;opacity: 1" stroke-width="1" opacity="1"/><path fill="none" stroke="#000000" d="M 160,269 L 160,259" style="stroke-width: 1px;opacity: 1" stroke-width="1" opacity="1"/><path fill="none" stroke="#000000" d="M 120,269 L 120,259" style="stroke-width: 1px;opacity: 1" stroke-width="1" opacity="1"/><path fill="none" stroke="#000000" d="M 80,269 L 80,259" style="stroke-width: 1px;opacity: 1" stroke-width="1" opacity="1"/><path fill="none" stroke="#000000" d="M 40,269 L 40,259" style="stroke-width: 1px;opacity: 1" stroke-width="1" opacity="1"/><path fill="none" stroke="#000000" d="M 195,224 L 205,224" style="stroke-width: 1px;opacity: 1" stroke-width="1" opacity="1"/><path fill="none" stroke="#000000" d="M 195,184 L 205,184" style="stroke-width: 1px;opacity: 1" stroke-width="1" opacity="1"/><path fill="none" stroke="#000000" d="M 195,144 L 205,144" style="stroke-width: 1px;opacity: 1" stroke-width="1" opacity="1"/><path fill="none" stroke="#000000" d="M 195,104 L 205,104" style="stroke-width: 1px;opacity: 1" stroke-width="1" opacity="1"/><path fill="none" stroke="#000000" d="M 195,64 L 205,64" style="stroke-width: 1px;opacity: 1" stroke-width="1" opacity="1"/><path fill="none" stroke="#000000" d="M 195,304 L 205,304" style="stroke-width: 1px;opacity: 1" stroke-width="1" opacity="1"/><path fill="none" stroke="#000000" d="M 195,344 L 205,344" style="stroke-width: 1px;opacity: 1" stroke-width="1" opacity="1"/><path fill="none" stroke="#000000" d="M 195,384 L 205,384" style="stroke-width: 1px;opacity: 1" stroke-width="1" opacity="1"/><path fill="none" stroke="#6495ed" d="M 0,21.1429 L 0.5,21.5 L 1,21.8571 L 1.5,22.2143 L 2,22.5714 L 2.5,22.9286 L 3,23.2857 L 3.5,23.6429 L 4,24 L 4.5,24.3571 L 5,24.7143 L 5.5,25.0714 L 6,25.4286 L 6.5,25.7857 L 7,26.1429 L 7.5,26.5 L 8,26.8571 L 8.5,27.2143 L 9,27.5714 L 9.5,27.9286 L 10,28.2857 L 10.5,28.6429 L 11,29 L 11.5,29.3571 L 12,29.7143 L 12.5,30.0714 L 13,30.4286 L 13.5,30.7857 L 14,31.1429 L 14.5,31.5 L 15,31.8571 L 15.5,32.2143 L 16,32.5714 L 16.5,32.9286 L 17,33.2857 L 17.5,33.6429 L 18,34 L 18.5,34.3571 L 19,34.7143 L 19.5,35.0714 L 20,35.4286 L 20.5,35.7857 L 21,36.1429 L 21.5,36.5 L 22,36.8571 L 22.5,37.2143 L 23,37.5714 L 23.5,37.9286 L 24,38.2857 L 24.5,38.6429 L 25,39 L 25.5,39.3571 L 26,39.7143 L 26.5,40.0714 L 27,40.4286 L 27.5,40.7857 L 28,41.1429 L 28.5,41.5 L 29,41.8571 L 29.5,42.2143 L 30,42.5714 L 30.5,42.9286 L 31,43.2857 L 31.5,43.6429 L 32,44 L 32.5,44.3571 L 33,44.7143 L 33.5,45.0714 L 34,45.4286 L 34.5,45.7857 L 35,46.1429 L 35.5,46.5 L 36,46.8571 L 36.5,47.2143 L 37,47.5714 L 37.5,47.9286 L 38,48.2857 L 38.5,48.6429 L 39,49 L 39.5,49.3571 L 40,49.7143 L 40.5,50.0714 L 41,50.4286 L 41.5,50.7857 L 42,51.1429 L 42.5,51.5 L 43,51.8571 L 43.5,52.2143 L 44,52.5714 L 44.5,52.9286 L 45,53.2857 L 45.5,53.6429 L 46,54 L 46.5,54.3571 L 47,54.7143 L 47.5,55.0714 L 48,55.4286 L 48.5,55.7857 L 49,56.1429 L 49.5,56.5 L 50,56.8571 L 50.5,57.2143 L 51,57.5714 L 51.5,57.9286 L 52,58.2857 L 52.5,58.6429 L 53,59 L 53.5,59.3571 L 54,59.7143 L 54.5,60.0714 L 55,60.4286 L 55.5,60.7857 L 56,61.1429 L 56.5,61.5 L 57,61.8571 L 57.5,62.2143 L 58,62.5714 L 58.5,62.9286 L 59,63.2857 L 59.5,63.6429 L 60,64 L 60.5,64.3571 L 61,64.7143 L 61.5,65.0714 L 62,65.4286 L 62.5,65.7857 L 63,66.1429 L 63.5,66.5 L 64,66.8571 L 64.5,67.2143 L 65,67.5714 L 65.5,67.9286 L 66,68.2857 L 66.5,68.6429 L 67,69 L 67.5,69.3571 L 68,69.7143 L 68.5,70.0714 L 69,70.4286 L 69.5,70.7857 L 70,71.1429 L 70.5,71.5 L 71,71.8571 L 71.5,72.2143 L 72,72.5714 L 72.5,72.9286 L 73,73.2857 L 73.5,73.6429 L 74,74 L 74.5,74.3571 L 75,74.7143 L 75.5,75.0714 L 76,75.4286 L 76.5,75.7857 L 77,76.1429 L 77.5,76.5 L 78,76.8571 L 78.5,77.2143 L 79,77.5714 L 79.5,77.9286 L 80,78.2857 L 80.5,78.6429 L 81,79 L 81.5,79.3571 L 82,79.7143 L 82.5,80.0714 L 83,80.4286 L 83.5,80.7857 L 84,81.1429 L 84.5,81.5 L 85,81.8571 L 85.5,82.2143 L 86,82.5714 L 86.5,82.9286 L 87,83.2857 L 87.5,83.6429 L 88,84 L 88.5,84.3571 L 89,84.7143 L 89.5,85.0714 L 90,85.4286 L 90.5,85.7857 L 91,86.1429 L 91.5,86.5 L 92,86.8571 L 92.5,87.2143 L 93,87.5714 L 93.5,87.9286 L 94,88.2857 L 94.5,88.6429 L 95,89 L 95.5,89.3571 L 96,89.7143 L 96.5,90.0714 L 97,90.4286 L 97.5,90.7857 L 98,91.1429 L 98.5,91.5 L 99,91.8571 L 99.5,92.2143 L 100,92.5714 L 100.5,92.9286 L 101,93.2857 L 101.5,93.6429 L 102,94 L 102.5,94.3571 L 103,94.7143 L 103.5,95.0714 L 104,95.4286 L 104.5,95.7857 L 105,96.1429 L 105.5,96.5 L 106,96.8571 L 106.5,97.2143 L 107,97.5714 L 107.5,97.9286 L 108,98.2857 L 108.5,98.6429 L 109,99 L 109.5,99.3571 L 110,99.7143 L 110.5,100.071 L 111,100.429 L 111.5,100.786 L 112,101.143 L 112.5,101.5 L 113,101.857 L 113.5,102.214 L 114,102.571 L 114.5,102.929 L 115,103.286 L 115.5,103.643 L 116,104 L 116.5,104.357 L 117,104.714 L 117.5,105.071 L 118,105.429 L 118.5,105.786 L 119,106.143 L 119.5,106.5 L 120,106.857 L 120.5,107.214 L 121,107.571 L 121.5,107.929 L 122,108.286 L 122.5,108.643 L 123,109 L 123.5,109.357 L 124,109.714 L 124.5,110.071 L 125,110.429 L 125.5,110.786 L 126,111.143 L 126.5,111.5 L 127,111.857 L 127.5,112.214 L 128,112.571 L 128.5,112.929 L 129,113.286 L 129.5,113.643 L 130,114 L 130.5,114.357 L 131,114.714 L 131.5,115.071 L 132,115.429 L 132.5,115.786 L 133,116.143 L 133.5,116.5 L 134,116.857 L 134.5,117.214 L 135,117.571 L 135.5,117.929 L 136,118.286 L 136.5,118.643 L 137,119 L 137.5,119.357 L 138,119.714 L 138.5,120.071 L 139,120.429 L 139.5,120.786 L 140,121.143 L 140.5,121.5 L 141,121.857 L 141.5,122.214 L 142,122.571 L 142.5,122.929 L 143,123.286 L 143.5,123.643 L 144,124 L 144.5,124.357 L 145,124.714 L 145.5,125.071 L 146,125.429 L 146.5,125.786 L 147,126.143 L 147.5,126.5 L 148,126.857 L 148.5,127.214 L 149,127.571 L 149.5,127.929 L 150,128.286 L 150.5,128.643 L 151,129 L 151.5,129.357 L 152,129.714 L 152.5,130.071 L 153,130.429 L 153.5,130.786 L 154,131.143 L 154.5,131.5 L 155,131.857 L 155.5,132.214 L 156,132.571 L 156.5,132.929 L 157,133.286 L 157.5,133.643 L 158,134 L 158.5,134.357 L 159,134.714 L 159.5,135.071 L 160,135.429 L 160.5,135.786 L 161,136.143 L 161.5,136.5 L 162,136.857 L 162.5,137.214 L 163,137.571 L 163.5,137.929 L 164,138.286 L 164.5,138.643 L 165,139 L 165.5,139.357 L 166,139.714 L 166.5,140.071 L 167,140.429 L 167.5,140.786 L 168,141.143 L 168.5,141.5 L 169,141.857 L 169.5,142.214 L 170,142.571 L 170.5,142.929 L 171,143.286 L 171.5,143.643 L 172,144 L 172.5,144.357 L 173,144.714 L 173.5,145.071 L 174,145.429 L 174.5,145.786 L 175,146.143 L 175.5,146.5 L 176,146.857 L 176.5,147.214 L 177,147.571 L 177.5,147.929 L 178,148.286 L 178.5,148.643 L 179,149 L 179.5,149.357 L 180,149.714 L 180.5,150.071 L 181,150.429 L 181.5,150.786 L 182,151.143 L 182.5,151.5 L 183,151.857 L 183.5,152.214 L 184,152.571 L 184.5,152.929 L 185,153.286 L 185.5,153.643 L 186,154 L 186.5,154.357 L 187,154.714 L 187.5,155.071 L 188,155.429 L 188.5,155.786 L 189,156.143 L 189.5,156.5 L 190,156.857 L 190.5,157.214 L 191,157.571 L 191.5,157.929 L 192,158.286 L 192.5,158.643 L 193,159 L 193.5,159.357 L 194,159.714 L 194.5,160.071 L 195,160.429 L 195.5,160.786 L 196,161.143 L 196.5,161.5 L 197,161.857 L 197.5,162.214 L 198,162.571 L 198.5,162.929 L 199,163.286 L 199.5,163.643 L 200,164 L 200.5,164.357 L 201,164.714 L 201.5,165.071 L 202,165.429 L 202.5,165.786 L 203,166.143 L 203.5,166.5 L 204,166.857 L 204.5,167.214 L 205,167.571 L 205.5,167.929 L 206,168.286 L 206.5,168.643 L 207,169 L 207.5,169.357 L 208,169.714 L 208.5,170.071 L 209,170.429 L 209.5,170.786 L 210,171.143 L 210.5,171.5 L 211,171.857 L 211.5,172.214 L 212,172.571 L 212.5,172.929 L 213,173.286 L 213.5,173.643 L 214,174 L 214.5,174.357 L 215,174.714 L 215.5,175.071 L 216,175.429 L 216.5,175.786 L 217,176.143 L 217.5,176.5 L 218,176.857 L 218.5,177.214 L 219,177.571 L 219.5,177.929 L 220,178.286 L 220.5,178.643 L 221,179 L 221.5,179.357 L 222,179.714 L 222.5,180.071 L 223,180.429 L 223.5,180.786 L 224,181.143 L 224.5,181.5 L 225,181.857 L 225.5,182.214 L 226,182.571 L 226.5,182.929 L 227,183.286 L 227.5,183.643 L 228,184 L 228.5,184.357 L 229,184.714 L 229.5,185.071 L 230,185.429 L 230.5,185.786 L 231,186.143 L 231.5,186.5 L 232,186.857 L 232.5,187.214 L 233,187.571 L 233.5,187.929 L 234,188.286 L 234.5,188.643 L 235,189 L 235.5,189.357 L 236,189.714 L 236.5,190.071 L 237,190.429 L 237.5,190.786 L 238,191.143 L 238.5,191.5 L 239,191.857 L 239.5,192.214 L 240,192.571 L 240.5,192.929 L 241,193.286 L 241.5,193.643 L 242,194 L 242.5,194.357 L 243,194.714 L 243.5,195.071 L 244,195.429 L 244.5,195.786 L 245,196.143 L 245.5,196.5 L 246,196.857 L 246.5,197.214 L 247,197.571 L 247.5,197.929 L 248,198.286 L 248.5,198.643 L 249,199 L 249.5,199.357 L 250,199.714 L 250.5,200.071 L 251,200.429 L 251.5,200.786 L 252,201.143 L 252.5,201.5 L 253,201.857 L 253.5,202.214 L 254,202.571 L 254.5,202.929 L 255,203.286 L 255.5,203.643 L 256,204 L 256.5,204.357 L 257,204.714 L 257.5,205.071 L 258,205.429 L 258.5,205.786 L 259,206.143 L 259.5,206.5 L 260,206.857 L 260.5,207.214 L 261,207.571 L 261.5,207.929 L 262,208.286 L 262.5,208.643 L 263,209 L 263.5,209.357 L 264,209.714 L 264.5,210.071 L 265,210.429 L 265.5,210.786 L 266,211.143 L 266.5,211.5 L 267,211.857 L 267.5,212.214 L 268,212.571 L 268.5,212.929 L 269,213.286 L 269.5,213.643 L 270,214 L 270.5,214.357 L 271,214.714 L 271.5,215.071 L 272,215.429 L 272.5,215.786 L 273,216.143 L 273.5,216.5 L 274,216.857 L 274.5,217.214 L 275,217.571 L 275.5,217.929 L 276,218.286 L 276.5,218.643 L 277,219 L 277.5,219.357 L 278,219.714 L 278.5,220.071 L 279,220.429 L 279.5,220.786 L 280,221.143 L 280.5,221.5 L 281,221.857 L 281.5,222.214 L 282,222.571 L 282.5,222.929 L 283,223.286 L 283.5,223.643 L 284,224 L 284.5,224.357 L 285,224.714 L 285.5,225.071 L 286,225.429 L 286.5,225.786 L 287,226.143 L 287.5,226.5 L 288,226.857 L 288.5,227.214 L 289,227.571 L 289.5,227.929 L 290,228.286 L 290.5,228.643 L 291,229 L 291.5,229.357 L 292,229.714 L 292.5,230.071 L 293,230.429 L 293.5,230.786 L 294,231.143 L 294.5,231.5 L 295,231.857 L 295.5,232.214 L 296,232.571 L 296.5,232.929 L 297,233.286 L 297.5,233.643 L 298,234 L 298.5,234.357 L 299,234.714 L 299.5,235.071 L 300,235.429 L 300.5,235.786 L 301,236.143 L 301.5,236.5 L 302,236.857 L 302.5,237.214 L 303,237.571 L 303.5,237.929 L 304,238.286 L 304.5,238.643 L 305,239 L 305.5,239.357 L 306,239.714 L 306.5,240.071 L 307,240.429 L 307.5,240.786 L 308,241.143 L 308.5,241.5 L 309,241.857 L 309.5,242.214 L 310,242.571 L 310.5,242.929 L 311,243.286 L 311.5,243.643 L 312,244 L 312.5,244.357 L 313,244.714 L 313.5,245.071 L 314,245.429 L 314.5,245.786 L 315,246.143 L 315.5,246.5 L 316,246.857 L 316.5,247.214 L 317,247.571 L 317.5,247.929 L 318,248.286 L 318.5,248.643 L 319,249 L 319.5,249.357 L 320,249.714 L 320.5,250.071 L 321,250.429 L 321.5,250.786 L 322,251.143 L 322.5,251.5 L 323,251.857 L 323.5,252.214 L 324,252.571 L 324.5,252.929 L 325,253.286 L 325.5,253.643 L 326,254 L 326.5,254.357 L 327,254.714 L 327.5,255.071 L 328,255.429 L 328.5,255.786 L 329,256.143 L 329.5,256.5 L 330,256.857 L 330.5,257.214 L 331,257.571 L 331.5,257.929 L 332,258.286 L 332.5,258.643 L 333,259 L 333.5,259.357 L 334,259.714 L 334.5,260.071 L 335,260.429 L 335.5,260.786 L 336,261.143 L 336.5,261.5 L 337,261.857 L 337.5,262.214 L 338,262.571 L 338.5,262.929 L 339,263.286 L 339.5,263.643 L 340,264 L 340.5,264.357 L 341,264.714 L 341.5,265.071 L 342,265.429 L 342.5,265.786 L 343,266.143 L 343.5,266.5 L 344,266.857 L 344.5,267.214 L 345,267.571 L 345.5,267.929 L 346,268.286 L 346.5,268.643 L 347,269 L 347.5,269.357 L 348,269.714 L 348.5,270.071 L 349,270.429 L 349.5,270.786 L 350,271.143 L 350.5,271.5 L 351,271.857 L 351.5,272.214 L 352,272.571 L 352.5,272.929 L 353,273.286 L 353.5,273.643 L 354,274 L 354.5,274.357 L 355,274.714 L 355.5,275.071 L 356,275.429 L 356.5,275.786 L 357,276.143 L 357.5,276.5 L 358,276.857 L 358.5,277.214 L 359,277.571 L 359.5,277.929 L 360,278.286 L 360.5,278.643 L 361,279 L 361.5,279.357 L 362,279.714 L 362.5,280.071 L 363,280.429 L 363.5,280.786 L 364,281.143 L 364.5,281.5 L 365,281.857 L 365.5,282.214 L 366,282.571 L 366.5,282.929 L 367,283.286 L 367.5,283.643 L 368,284 L 368.5,284.357 L 369,284.714 L 369.5,285.071 L 370,285.429 L 370.5,285.786 L 371,286.143 L 371.5,286.5 L 372,286.857 L 372.5,287.214 L 373,287.571 L 373.5,287.929 L 374,288.286 L 374.5,288.643 L 375,289 L 375.5,289.357 L 376,289.714 L 376.5,290.071 L 377,290.429 L 377.5,290.786 L 378,291.143 L 378.5,291.5 L 379,291.857 L 379.5,292.214 L 380,292.571 L 380.5,292.929 L 381,293.286 L 381.5,293.643 L 382,294 L 382.5,294.357 L 383,294.714 L 383.5,295.071 L 384,295.429 L 384.5,295.786 L 385,296.143 L 385.5,296.5 L 386,296.857 L 386.5,297.214 L 387,297.571 L 387.5,297.929 L 388,298.286 L 388.5,298.643 L 389,299 L 389.5,299.357 L 390,299.714 L 390.5,300.071 L 391,300.429 L 391.5,300.786 L 392,301.143 L 392.5,301.5 L 393,301.857 L 393.5,302.214 L 394,302.571 L 394.5,302.929 L 395,303.286 L 395.5,303.643 L 396,304 L 396.5,304.357 L 397,304.714 L 397.5,305.071 L 398,305.429 L 398.5,305.786 L 399,306.143 L 399.5,306.5" style="stroke-width: 2px" stroke-width="2" clip-path="url(#clip-1)"/><ellipse cx="0" cy="0" rx="4" ry="4" fill="#ff00af" stroke="#ff00af" style="stroke-width: 2px;stroke-opacity: 1;fill-opacity: 1" stroke-width="2" clip-path="url(#clip-1)" stroke-opacity="1" stroke-dasharray="0" fill-opacity="1"/></svg>