<?xml version="1.0"?><svg width="5000" height="5000" xmlns="http://www.w3.org/2000/svg">
 <title>studna</title>

 <metadata id="metadata7">image/svg+xml</metadata>
 <g>
  <title>Layer 1</title>
  <g id="layer1">
   <path fill="#000000" stroke-miterlimit="4" id="path2308" d="m3333.67041,119.794861l-2279.322021,512.84729l-713.787659,1040.690491l706.289978,-116.96521l-1.499634,98.970825c-186.273438,104.380493 -231.907837,319.764282 -241.428101,518.845581c0,17.884277 1.574341,35.147217 2.999023,52.484131c-39.142883,17.575928 -78.519775,33.350098 -118.464722,49.485596l-185.944733,74.977539c-19.374176,65.729248 50.189728,109.851807 74.977814,155.953613l169.449585,-106.468506c1.63092,-5.875 3.188232,-11.009033 4.498535,-16.494873c23.043762,-14.518066 45.85437,-29.066895 68.979614,-41.987305c9.680664,47.633789 23.321899,92.530762 40.487915,133.459717c-32.807983,63.936523 -29.521729,128.59082 -19.494263,196.44165c-0.699585,90.147461 9.583618,181.121338 0,283.416016c6.481567,178.784424 142.938843,288.258789 280.416626,377.887451l49.485229,1223.635742c437.589478,337.949707 834.585571,422.290527 1372.091675,389.883789c443.816895,-55.457031 768.459961,-223.565918 1010.699219,-358.393066l26.991943,-1337.602051c94.944824,-74.489502 152.222412,-175.209717 163.451416,-295.411865c-0.834961,-119.136719 -6.547607,-238.297607 -8.99707,-356.894287c-5.487549,-166.357422 -128.300293,-273.936035 -254.924561,-361.391846l-5.998047,-794.763794l547.337402,-152.954468l-688.295166,-1169.652161zm-14.99585,44.98645l655.305176,1105.171448l-2300.31543,643.308472l-500.851074,-1258.125732l2145.861328,-490.354187zm-530.841797,167.950043l-13.496094,2.999115l61.481689,103.469238l-140.958008,29.991211l-1.499756,13.495941l148.456055,-34.489807l101.969482,172.448639l10.49707,1.499634l-101.969727,-176.947388l388.384277,-89.973267l-7.497559,0l-385.385254,80.975922l-59.982178,-103.469238zm-574.329346,178.447083l-22.49292,4.498566c4.939941,10.703125 36.919678,76.417419 55.48291,115.465698l-892.234131,209.937561l-58.482544,-145.456726l-20.993896,-5.99823l62.981323,154.453857l-37.488892,8.997559l10.496948,11.996521l31.490601,-7.497925l373.388916,922.225708l17.994629,0l-373.388916,-926.724304l892.234253,-208.438049c46.005859,96.708435 74.001953,154.940552 128.96167,269.9198l-262.421387,61.481689l10.496826,11.99646l257.922852,-61.481689c40.557861,84.843506 97.471191,205.438843 97.471191,205.438843l16.495117,2.999146c0,0 -56.508545,-122.757202 -97.471191,-211.437317l928.223877,-218.934937l235.429932,442.368713l-298.411377,86.974121l14.99585,8.997192l290.913574,-82.475342l46.48584,86.974121l11.996582,1.499512l-47.985596,-91.472778l160.452148,-46.486084l-8.997314,-11.99646l-157.453125,44.986572l-232.431152,-442.368469l208.438232,-49.485229l-11.996582,-8.997559l-202.439941,47.985962l-86.973877,-166.450562l-17.994629,1.499451l89.973145,167.950012l-928.223877,217.435486c-54.032227,-116.976196 -80.154297,-175.484863 -124.463135,-271.41925l166.450928,-38.988403l-11.996582,-11.996521l-160.452148,37.48877c-17.794434,-38.528625 -49.427002,-105.591492 -53.984131,-115.465485zm-1138.161133,152.954376l49.485229,1.499512l521.844849,1267.123291l-61.481934,23.993042l-484.355835,-1255.126892c-18.124268,-7.475342 -6.416138,7.788147 -22.493408,-4.498779l-622.314758,931.223206l-65.980377,19.494263l685.296234,-983.707642zm11.996338,106.468384l253.424683,605.819946l-8.997437,317.905518c-65.548462,-44.045776 -147.796021,-64.967407 -247.426392,-50.984863l2.999146,2.998901c-3.905151,-0.008911 -8.171997,-1.690918 -11.996338,-1.499634l11.996338,-874.239868zm-25.492432,31.490662l-13.495972,703.290955l-539.839417,107.967773l553.335388,-811.258728zm2198.345947,107.968018l-493.353271,118.464661l-40.487793,-91.472778l-17.994629,-1.499634l43.486816,97.471191l-76.477051,17.994507l14.995361,8.997437l65.980469,-16.495117l127.461914,281.916138l-790.264404,193.442505l-232.43103,-574.329285l-17.994751,-4.498596l239.928711,581.827026l-161.951904,38.988281l17.994751,2.999146l146.956177,-35.989258l62.981201,154.454102l13.496094,4.498657l-65.980225,-161.951904l790.264648,-191.942993l67.47998,149.955566l11.996094,1.49939l-67.47998,-154.453857l151.455078,-37.488892l-7.497559,-5.998291l-146.956299,35.989258l-124.463135,-281.916138l491.85376,-121.463989l-2.999023,-8.997131zm-2276.322754,185.944641l-208.437927,338.89917l-95.971497,-1.499634l-20.993652,19.494385l107.967773,-1.499634l-19.494141,29.990967l16.494995,10.49707l23.992798,-41.987671l188.94397,-2.998901l-7.497803,17.994507l1.499512,4.498779l10.496826,-22.493286l35.989258,0l11.99646,-10.49707l-41.987427,0l37.488892,-76.477173l-11.99646,-5.998169l-31.490723,82.475342l-184.445068,-1.499512l190.443359,-337.399658l-2.999146,-1.499512zm2454.769531,350.895752l19.494141,866.742065c-54.598389,45.931885 -120.916992,62.636719 -155.953613,59.982178c25.448242,-76.547607 -10.052246,-120.633789 -58.482422,-172.44873c-12.0625,-42.680908 -40.845459,-83.58667 -79.476318,-119.9646l1.499512,-199.44043l83.975098,-20.993652c94.947021,-116.215698 128.723145,-237.504883 79.476074,-377.887573l109.467529,-35.989258zm-2069.384033,29.990967l140.957886,361.392578l-47.985718,10.496826c-23.655029,-46.970947 -53.690186,-87.947998 -89.973022,-121.463745l-2.999146,-250.425659zm1928.426025,19.494141c63.753906,116.54541 4.024414,232.981689 -70.479004,320.904785l-121.464111,29.990845l-40.487549,-290.913574l232.430664,-59.982056zm-262.421875,74.977661l44.986572,277.417603l-155.953613,40.488037l-67.47998,-277.417725l178.447021,-40.487915zm-203.939209,50.984985l70.47876,272.918823l-127.461914,41.987427l-61.481689,-281.916016l118.464844,-32.990234zm-1682.499512,31.490601c495.215698,-0.162231 430.422119,1016.972412 31.490723,1028.693604c113.704102,-34.626709 208.646362,-132.242188 254.924072,-307.408203c38.307373,-144.427734 13.391968,-304.760742 -26.991821,-463.362061c-37.076416,-143.404907 -152.014893,-232.117676 -259.422974,-257.92334zm-20.993652,8.997192c73.57605,0 145.431763,70.708008 197.94104,158.952881c52.509277,88.244995 107.968018,226.680542 107.968018,364.391724c-7.039063,206.769287 -82.267212,436.501709 -301.410522,496.351807c-170.347412,-33.563477 -241.940063,-196.951904 -274.418335,-359.892578c35.987915,-18.685059 71.945557,-35.865723 109.467407,-50.984863c32.065063,100.287598 66.859009,128.319092 133.460327,137.95874c89.516968,19.560059 119.040527,-63.449219 143.957275,-226.432373c5.650146,-155.766724 -81.097046,-261.959839 -187.444336,-244.427246l0,1.499634c-1.018555,-0.033203 -1.968872,0.004517 -2.999146,0c-44.139526,22.099731 -71.312012,45.567505 -97.470947,85.474243c-14.776245,31.100342 -15.198486,85.214355 -8.997314,127.462402c-34.870361,21.40625 -71.237305,41.02832 -107.967773,58.482422c-1.576904,-15.765869 -3.314453,-31.73291 -4.498779,-46.486328c2.841309,-210.420044 73.713379,-443.356201 292.413086,-502.350464zm1561.0354,0l46.486328,272.918701l-91.4729,22.493408l-62.981201,-265.420898l107.967773,-29.991211zm-137.958984,41.987671l65.980469,268.420166l-125.962402,26.991943l-55.483398,-266.920532l115.465332,-28.491577zm-139.458496,41.987427l49.485352,260.922607l-128.96167,25.492188l-43.487061,-259.422974l122.963379,-26.991821zm-152.95459,40.488037l53.983887,256.423584l-86.974121,14.995483l-82.475342,-244.427246l115.465576,-26.991821zm-134.959473,23.99292l70.47876,263.921021l-116.964844,19.494385l-19.494141,-256.423462l65.980225,-26.991943zm-89.973389,34.489746l13.495972,260.922241l-103.469238,19.494141l-35.989258,-245.92688l125.962524,-34.489502zm-505.349609,37.48877l35.989258,92.972168l130.461182,-35.989014l11.99646,244.427124l-82.475342,19.494141l-125.962524,-313.40686l29.990967,-7.497559zm1589.526855,8.997192l-1.499268,149.955322c-27.626953,-18.562866 -57.567871,-34.264893 -89.973389,-44.986572c-57.844727,-19.138184 -123.06958,-31.562866 -188.943604,-37.48877l280.41626,-67.47998zm-1240.130737,2.999268l35.989258,233.93042l-175.447754,52.484131l-17.994751,-245.92688l157.453247,-40.487671zm-815.757446,61.481812c64.860596,1.109375 115.874146,115.47522 137.958984,194.942017c13.133667,93.14624 -36.115967,178.0271 -106.468384,233.930176c-63.511108,-9.92749 -75.839355,-70.280029 -97.470947,-124.463135c10.481567,-3.926514 20.806641,-8.322266 31.490723,-11.996338l91.472656,-19.494141c56.288208,-47.595947 40.800903,-71.962402 35.989258,-103.469238c-21.493896,-46.287842 -42.986816,-32.137939 -64.480713,-47.985596l-68.979492,23.99292c-15.209473,11.641357 -30.686035,22.529541 -46.486328,32.990234c-5.563354,-31.747314 -3.598755,-63.618652 7.497925,-86.974365c10.979614,-23.108887 24.294189,-73.453979 79.476318,-91.472534zm56.983032,5.998169c74.509888,23.366699 107.894043,108.502197 112.466675,205.438721c-9.891357,108.204102 -22.53125,225.908691 -112.466675,227.932129c78.449463,-59.008057 93.919067,-139.353271 95.971558,-245.926758c-10.961792,-56.383789 -40.268188,-145.951782 -95.971558,-187.444092zm1675.001587,23.992676c40.276123,-1.736572 105.480713,7.974243 233.930176,31.490845c29.716064,5.439697 89.178711,31.301147 92.972656,73.478149c-83.648926,-23.116699 -286.809082,-74.589111 -380.886719,-89.973267c14.79541,-8.811768 29.818359,-13.953857 53.983887,-14.995728zm-1277.619751,20.994019l80.975952,203.939087l-68.979492,16.495117c5.527466,-73.695068 2.198608,-149.285156 -11.99646,-220.434204zm1034.692017,17.994263c7.118896,-0.650513 13.309082,-0.356567 19.494141,0c201.937012,17.419922 386.075928,53.843506 545.837891,103.469482l0,20.993652c-85.884277,-23.987061 -192.749512,-38.988525 -310.407959,-38.988525c-147.457031,-0.084961 -333.696777,46.385254 -466.361084,112.466797c1.745605,-33.621094 25.790039,-101.552734 46.486084,-125.962891c45.060303,-38.677734 115.122314,-67.422485 164.950928,-71.978516zm-169.449707,44.986572c-44.990234,32.593994 -64.244873,112.840576 -77.976807,136.459717c-198.724609,0 -382.859375,21.574463 -538.3396,58.482422l-29.990967,-49.485352l646.307373,-145.456787zm-1292.615112,25.492676c66.673218,22.527588 86.804199,74.921143 2.999146,113.96582l-44.986694,8.997559l-10.496948,-98.970703l52.484497,-23.992676zm2075.382446,5.998291c12.779785,13.36084 52.3125,77.847656 59.981934,91.472656c-9.605225,-4.19043 -49.350586,-24.661621 -59.981934,-28.491699l0,-62.980957zm-359.892822,29.990967c148.781738,12.566406 407.196045,33.412354 493.353027,169.449707c-12.608398,19.898682 -30.039307,36.092285 -49.485352,50.984863c-142.431641,-63.794678 -292.719727,-115.671875 -425.873291,-109.467773c-133.756348,6.23291 -271.254639,68.718018 -392.882813,151.455078c-1.920898,-0.740234 -4.082031,-0.744629 -5.998291,-1.499756c-53.369873,-11.858154 -86.913574,-74.49292 -64.480957,-122.963135c124.992676,-79.907227 300.923828,-134.197998 445.367676,-137.958984zm-1812.960571,19.494385l8.997192,79.476318c-100.076172,34.994629 -168.028198,86.838135 -245.92688,136.459229c4.907471,-29.984863 0.369141,-54.751221 -28.491577,-80.97583c100.174683,-40.277832 194.153687,-58.209717 265.421265,-134.959717zm737.780396,65.980225l28.491577,49.485107c-52.938843,12.812744 -103.201416,27.172119 -148.455811,43.487061c-36.74231,13.246094 -68.858154,27.906494 -98.970703,43.487305c7.131836,-29.851563 11.352661,-60.212891 14.995605,-91.4729l203.939331,-44.986572zm587.824951,16.495117l-26.991699,79.476318l35.989014,179.946289c-46.869385,21.800781 -48.453369,62.288818 -34.489746,94.47168l-2.999023,-4.498535c-106.738525,-8.283447 -177.31958,-5.653564 -260.922241,1.499756c-93.440796,7.994629 -172.830688,25.416504 -238.428955,47.985596l-13.496216,-347.89624c176.798584,-39.640869 362.099854,-46.150146 541.338867,-50.984863zm506.849365,23.99292c135.019531,-4.179932 274.599609,32.922119 407.878418,107.967529c-115.750732,74.342529 -312.219971,83.469482 -431.871582,94.471924c-123.97583,-1.049072 -245.219727,-18.968018 -359.892578,-61.481689c116.323975,-90.327637 247.345215,-136.730713 383.885742,-140.957764zm-1061.684082,31.490479l14.995605,347.896484c-100.707764,36.79834 -167.901611,87.112793 -203.939331,142.45752c-59.275879,-25.213623 -107.434448,-52.639404 -142.457642,-82.475342c-16.452515,-14.015869 -28.530884,-29.034424 -38.988403,-43.487305c-5.979614,-16.752197 -8.913452,-33.297607 -10.49707,-49.485352c51.092896,-51.483154 88.817993,-122.47876 113.966309,-202.439453c34.685425,-27.10791 75.664795,-53.845703 125.962524,-71.978516c45.944824,-16.635986 93.392212,-29.328613 140.958008,-40.488037zm1718.488281,4.498535c115.30249,72.676514 182.081299,172.143555 206.938477,304.40918c0,60.841309 -23.513916,120.15625 -67.47998,176.947754l-334.400391,-179.946533c45.638428,-23.578613 15.131592,-133.728271 -1.499268,-106.468506l13.49585,-88.473633c135.404053,-3.809814 176.852051,-43.100342 182.945313,-106.468262zm-2777.173462,4.499023c40.115173,21.042969 19.421387,48.464844 25.492432,77.976807c-103.565674,75.251221 -106.726868,76.895752 -124.462891,88.473145c-4.485718,2.927979 -6.227661,4.539307 -14.995605,10.496826c-39.581909,-29.344238 -64.227905,-73.888916 -68.979431,-115.465088l182.945496,-61.481689zm-98.970459,166.449951c29.17334,-31.966553 11.029907,-109.687744 -47.985718,-94.471436l-2.999146,0c23.549927,8.095947 54.307373,57.063965 40.488037,91.472656l10.496826,2.998779zm1748.479614,-83.974609c27.165771,20.643311 61.86084,37.935303 104.96875,52.484131c90.601807,30.578369 213.066895,49.485352 347.896484,49.485352c154.5354,0.592041 309.498047,-20.985107 445.367432,-95.97168l-17.994385,112.466553c-22.421387,4.362549 -84.019287,24.552979 -106.468262,28.491699l5.998291,-41.987793l-13.496338,-1.499268l-2.998779,43.487061c-55.344482,8.864014 -121.984131,19.975586 -176.947754,25.492188l-2.998779,-29.990723l-8.997559,0l-1.499268,29.990723c-53.827148,4.320313 -130.168213,11.867432 -182.945557,11.996582c-1.015381,-13.391846 4.792236,-42.616455 2.999023,-50.984619l-11.996582,0c0.630371,2.940674 -3.94043,43.275146 -2.999023,52.484131c-55.767334,-1.375732 -147.156494,-12.253906 -200.940186,-19.493896l-5.998047,-50.984863l-14.99585,-1.499756l7.497803,52.484619c-34.464355,-6.016602 -104.635498,-28.570313 -137.95874,-37.489258l-25.492676,-128.961182zm938.720703,128.961182c1.622803,18.418945 12.066162,41.005859 -13.49585,65.980469c-320.596924,135.201904 -626.31665,98.427246 -940.220215,38.98877c-61.160889,-26.615234 -35.862793,-76.034424 -14.995605,-92.972656c256.269287,125.090576 786.591309,60.736328 968.71167,-11.996582zm-2402.285156,25.492676c35.20813,70.503174 75.353027,101.619629 139.458496,142.45752l-5.998169,148.456055c24.425293,10.080811 42.023071,21.581543 59.982178,31.490479l-52.484253,0c-91.168701,-80.065186 -151.932129,-184.102783 -140.958252,-322.404053zm1262.624512,56.983154c26.540283,-0.179443 54.156982,0.314941 82.475098,1.499268l1.499512,307.408447c-236.773682,-6.047852 -449.974121,-42.785889 -605.819458,-98.970215c-18.265747,-6.585205 -35.817505,-13.996826 -52.484375,-20.993652l2.999146,0c52.709839,-85.179443 244.470947,-186.733643 571.330078,-188.943848zm94.471436,2.999023c16.751465,0.811035 33.623779,1.679688 50.985107,2.998779c16.353271,28.310791 43.057861,46.875732 56.983154,32.990234l40.488037,208.437988c-12.082764,8.991211 -26.714844,4.76123 -7.498047,56.983154c-15.925049,0.40625 -67.732178,5.998291 -83.975098,5.998291c-19.793213,0 -38.989502,-1.067627 -58.482422,-1.499756l1.499268,-305.908691zm1016.697754,5.998291l349.39624,182.945313c-9.414795,11.480713 -18.826416,23.216064 -29.991211,34.489746c-213.924316,190.262207 -489.831787,287.712402 -773.769775,338.89917l-41.987549,-44.986572c168.414795,5.345215 324.951172,-37.491943 431.871582,-118.4646l7.497559,-5.998291l1.499512,-10.49707l8.997559,-61.481445c38.73999,18.146729 53.229492,-107.838867 11.996094,-92.972412l34.48999,-221.933838zm-1904.43335,23.99292l0,190.443359c-88.212036,22.791016 -195.484131,88.554932 -304.409424,-7.498047l-1.49939,-112.466553c33.457397,2.207275 65.807495,0.525391 97.470947,-5.998291c82.299805,7.678223 152.068115,-17.290039 208.437866,-64.480469zm1851.948975,22.493164l-28.491455,179.946289c-15.779297,3.14624 -52.113281,10.616455 -67.47998,13.496094l13.49585,-173.948242c19.889404,-4.546875 62.514648,-14.544189 82.475586,-19.494141zm-100.469971,23.992676l-11.996582,170.949463c-47.20459,8.103516 -110.227539,19.051758 -154.454102,23.992432l-4.498779,-164.950684c50.190674,-7.169189 120.055664,-19.277588 170.949463,-29.991211zm602.820557,1.499756c-5.053223,68.017334 -2.432373,212.102783 8.997314,272.918701c-11.47583,48.776855 -28.681885,92.613525 -50.985107,133.460205l-20.993652,-275.917725c24.76001,-46.141602 49.759033,-106.851074 62.981445,-130.461182zm-1300.113037,2.998779c29.642334,8.836914 83.654297,15.079346 113.96582,20.994141l20.993652,173.948242c-26.59375,-5.807129 -79.216797,-22.119629 -106.468262,-29.991211l-28.491211,-164.951172zm127.461914,22.493408c48.792969,7.064453 132.745117,15.730225 182.945557,16.495361c0.748047,52.01001 0.873779,121.978516 2.999268,173.947998c-44.053955,-2.574707 -122.064941,-4.242432 -166.450684,-11.996582l-19.494141,-178.446777zm385.385498,2.999268l4.498535,166.450439c-50.499512,4.258789 -140.282471,24.993896 -188.943848,23.99292c-1.055176,-51.984375 -4.84082,-123.465576 -5.998047,-175.447998c50.414307,-1.045166 138.960693,-8.952393 190.443359,-14.995361zm-1541.541504,16.495117c3.561523,3.462646 6.712524,7.272461 10.49707,10.496826c52.299683,44.553223 124.718628,83.121338 214.436157,115.465576c106.90625,38.541016 237.544189,68.049072 382.386108,85.474609l-190.443359,232.431152l1.499756,1.499268c-196.996948,-37.650635 -373.920288,-94.022705 -518.845825,-155.953613c-83.042114,-35.271484 -165.494629,-78.368408 -233.930298,-133.460205l80.975952,2.998779c46.314453,13.40625 110.485107,9.62915 254.924072,-41.987305l-1.499634,-116.965088zm-500.850952,50.984863c27.988647,42.947266 61.494751,79.508789 98.970581,112.466553l-16.494995,259.423096c-35.891968,-53.954102 -63.136841,-114.96167 -76.477417,-185.944824c6.278442,-60.600342 -0.054565,-124.22998 -5.998169,-185.944824zm2753.18103,58.482422l23.992432,271.419434c-150.449951,249.99707 -495.410156,350.847656 -829.25293,397.381836l-11.996582,-307.408691c293.062012,-44.798584 578.279297,-136.590332 797.762695,-335.899902c5.860107,-5.917725 12.849854,-14.71875 19.494385,-25.492676zm-410.87793,8.997559c29.022705,4.620605 14.773682,44.450928 0,68.979492c-312.735107,87.441406 -588.650391,105.7771 -827.753906,2.999023l-10.496826,-50.984863c284.485596,105.159912 549.145996,49.786865 838.250732,-20.993652zm-2228.337036,58.482422c79.437988,65.693359 174.703491,114.276855 268.420166,157.453125c148.358643,63.397217 328.41333,111.64209 527.843018,142.457764l-8.997314,305.908936c-314.88562,-38.294434 -644.638916,-122.160156 -805.260498,-340.398682l17.994629,-265.421143zm1006.200806,35.989502c94.74585,10.899902 195.307861,16.494873 299.9104,16.494873c21.218262,0 73.687988,-2.482178 94.471924,-2.999268c10.682373,17.116211 6.307617,7.147705 25.492676,13.496094l10.496826,68.979736l2.999023,13.495605l11.996338,4.498779c95.665039,38.331055 193.93335,59.917725 289.413818,65.980713l61.481689,47.985352c-174.771484,30.872803 -352.383545,45.161621 -520.345215,50.984863c-162.621826,0 -317.380005,-16.753418 -461.862305,-43.486816l185.944824,-235.429932zm1159.154785,16.494873l4.498535,19.494141c-153.180176,111.380859 -436.801758,145.655518 -691.294189,47.98584l-4.498535,-50.984863c81.063477,19.969238 183.546387,39.169678 260.922363,40.488037c0.244629,4.220459 -1.499512,29.990967 -1.499512,29.990967l14.995605,4.498779c0,0 -1.458984,-36.145752 -1.499756,-37.489014c130.126709,-3.142822 273.195313,-14.374268 418.375488,-53.983887zm-353.894531,242.92749l1.499268,310.407959c-189.766846,25.17749 -374.799561,33.014648 -517.345947,40.488037c-133.534424,-10.98999 -310.974731,-17.306152 -494.852539,-38.988281l14.995605,-304.409668c147.829102,21.804932 305.679688,34.489746 470.859863,34.489746c169.5625,-6.197021 348.365479,-15.695557 524.84375,-41.987793zm757.274658,61.482178l-11.996582,428.872314c-112.387939,53.152344 -224.91626,97.816895 -337.399414,134.959961l-43.487305,-359.893066c137.961914,-49.743896 270.520752,-115.80835 392.883301,-203.939209zm-2417.280762,98.970459c99.959595,52.052246 204.251343,91.17334 310.407837,122.963379l-13.496216,323.903564c-96.014526,-31.947754 -191.85083,-66.928223 -286.414795,-107.967529l-10.496826,-338.899414zm2009.4021,110.967041l43.486816,358.393311c-275.900391,89.416748 -551.553223,131.145508 -824.754395,131.960693l0,-365.891113c266.593018,-6.230225 533.397949,-37.594971 781.267578,-124.462891zm-1683.998901,16.494873c264.429688,76.967041 543.219116,101.571045 818.756226,110.967041c23.021973,-0.072021 45.932373,-1.047852 68.979736,-1.499268l-2.999268,365.890869c-303.556641,-1.11499 -604.044556,-55.112549 -898.232666,-151.454834l13.495972,-323.903809zm2079.880981,214.436035l-14.995361,544.338379c-231.509033,97.671875 -463.787109,175.399902 -695.792725,223.433594l-25.492676,-529.342529c243.174805,-43.116943 488.770752,-121.634033 736.280762,-238.429443zm-2394.787354,13.496094c207.207153,90.093506 416.312622,159.081299 626.813721,203.939453l-2.999146,530.842285c-204.506714,-56.529785 -407.455566,-146.734375 -608.81897,-278.916992l-14.995605,-455.864746zm644.808228,206.938965c329.060669,67.972168 661.452026,78.809326 998.703003,20.993652l25.492188,529.342285c-344.591797,69.453125 -689.517578,73.299316 -1030.193359,-17.994629l5.998169,-532.341309zm-629.812622,257.922852c86.625,56.943359 173.020264,106.044434 259.422974,148.455566l-1.499634,377.887695c-80.851196,-45.401855 -162.805908,-97.17334 -245.92688,-158.952148l-11.99646,-367.391113zm2364.796387,76.477539l-8.997314,311.907227c-76.421875,42.287109 -162.032959,87.64209 -254.924316,131.960449l-23.99292,-334.400391c95.492432,-33.169434 191.837402,-68.898438 287.914551,-109.467285zm-2087.378906,80.975586c290.261719,139.202148 579.743774,199.465332 869.741211,200.94043l2.998779,397.381836c-282.619995,4.987305 -572.428467,-52.631348 -877.238525,-220.43457l4.498535,-377.887695zm1787.468262,32.990234l23.992676,335.899902c-196.462158,92.699219 -430.662354,178.683105 -716.786621,214.437012c-67.673096,8.455566 -135.555664,13.149902 -203.939453,14.995117l-2.999023,-397.381836c298.607666,-1.000488 597.724854,-64.102051 899.732422,-167.950195z"/>
  </g>
 </g>
</svg>