<?xml version="1.0" encoding="utf-8"?>
<!-- Generator: Adobe Illustrator 15.1.0, SVG Export Plug-In  -->
<!DOCTYPE svg PUBLIC "-//W3C//DTD SVG 1.1//EN" "http://www.w3.org/Graphics/SVG/1.1/DTD/svg11.dtd" [
	<!ENTITY ns_flows "http://ns.adobe.com/Flows/1.0/">
]>
<svg version="1.1"
	 xmlns="http://www.w3.org/2000/svg" xmlns:xlink="http://www.w3.org/1999/xlink" xmlns:a="http://ns.adobe.com/AdobeSVGViewerExtensions/3.0/"
	 x="0px" y="0px" width="1000px" height="1000px" viewBox="-110.924 0 1000 1000"
	 overflow="visible" enable-background="new -110.924 0 1000 1000" xml:space="preserve">
<defs>
</defs>
<path fill="#231F20" d="M695.422,601.759c95.265-56.747,64.005-225.188-69.829-376.229
	C523.49,110.301,391.192,38.492,291.894,36.117c84.546,26.135,179.248,88.517,256.613,175.829
	c133.834,151.04,165.095,319.481,69.827,376.231c-22.587,13.453-50.259,19.422-81.118,18.685
	C598.926,625.938,655.224,625.703,695.422,601.759z"/>
<path fill="#231F20" d="M695.422,601.759l0.071,0.12c37.292-22.212,55.219-61.526,55.216-110.169
	c-0.002-75.79-43.481-174.259-125.012-266.273c-102.125-115.25-234.439-187.079-333.8-189.459l-0.045,0.274
	c84.515,26.124,179.201,88.493,256.551,175.788c81.496,91.974,124.942,190.401,124.94,266.085
	c-0.003,48.58-17.888,87.775-55.081,109.933c-21.323,12.7-47.19,18.726-76.005,18.726c-1.669,0-3.35-0.021-5.039-0.061l-0.044,0.273
	c28.944,8.948,56.702,13.649,82.173,13.649c28.851,0,54.769-6.033,76.146-18.767L695.422,601.759l-0.07-0.12
	c-21.325,12.702-47.191,18.728-76.004,18.728c-25.435,0-53.167-4.696-82.091-13.637l-0.041,0.133l-0.003,0.14
	c1.691,0.041,3.373,0.061,5.045,0.061c28.854,0,54.771-6.032,76.147-18.765c37.293-22.214,55.22-61.529,55.219-110.173
	c-0.003-75.79-43.484-174.258-125.013-266.271c-77.381-87.33-172.1-149.726-256.677-175.871l-0.041,0.134l-0.003,0.14
	c99.237,2.369,231.518,74.158,333.598,189.365c81.499,91.974,124.943,190.403,124.941,266.087
	c-0.003,48.579-17.887,87.772-55.078,109.929L695.422,601.759z"/>
<path fill="#231F20" d="M288.341,20.32C226.632,1.244,170.332,1.476,130.136,25.42c-95.268,56.748-64.004,225.19,69.829,376.23
	C302.066,516.88,434.366,588.688,533.664,591.065c-84.546-26.138-179.249-88.519-256.615-175.831
	C143.216,264.193,111.953,95.752,207.22,39.004C229.809,25.549,257.481,19.582,288.341,20.32z"/>
<path fill="#231F20" d="M288.341,20.32l0.042-0.134c-28.948-8.948-56.707-13.65-82.179-13.65c-28.849,0-54.765,6.032-76.139,18.765
	c-37.292,22.212-55.22,61.527-55.217,110.17c0.002,75.79,43.484,174.259,125.013,266.273
	c102.124,115.251,234.441,187.079,333.801,189.46l0.044-0.272c-84.515-26.127-179.202-88.495-256.551-175.79
	c-81.499-91.975-124.945-190.404-124.942-266.088c0.002-48.579,17.887-87.773,55.08-109.93
	c21.323-12.701,47.187-18.725,75.998-18.725c1.673,0,3.356,0.02,5.048,0.06l0.045-0.273L288.341,20.32l0.003-0.14
	c-1.695-0.041-3.38-0.061-5.055-0.061c-28.849,0-54.765,6.033-76.141,18.765c-37.292,22.212-55.219,61.527-55.216,110.17
	c0.002,75.789,43.483,174.259,125.012,266.273c77.382,87.33,172.102,149.723,256.679,175.872l0.041-0.134l0.003-0.141
	c-99.235-2.371-231.519-74.159-333.598-189.367C118.571,309.583,75.125,211.154,75.127,135.47
	c0.002-48.58,17.887-87.773,55.081-109.93c21.321-12.701,47.185-18.725,75.996-18.725c25.438,0,53.171,4.696,82.096,13.638
	L288.341,20.32l0.003-0.14L288.341,20.32z"/>
<path fill="#CC0000" d="M96.147,595.586C0.88,538.838,32.144,370.395,165.977,219.354C268.078,104.126,400.379,32.317,499.675,29.94
	c-84.547,26.137-179.249,88.519-256.614,175.832c-133.833,151.04-165.096,319.481-69.828,376.23
	c22.588,13.455,50.26,19.424,81.12,18.684C192.643,619.763,136.345,619.527,96.147,595.586z"/>
<path fill="#CC0000" d="M96.147,595.586l0.256-0.43c-37.067-22.085-54.896-61.123-54.905-109.621
	c-0.008-75.549,43.393-173.925,124.853-265.85C268.371,104.535,400.612,32.797,499.687,30.44l-0.012-0.5l-0.146-0.477
	C414.87,55.637,320.11,118.066,242.687,205.44c-81.568,92.063-125.095,190.585-125.103,266.51
	c-0.009,48.727,17.974,88.198,55.393,110.481c21.44,12.771,47.42,18.815,76.316,18.815c1.681-0.001,3.372-0.021,5.071-0.062
	l-0.012-0.5l-0.147-0.478c-28.896,8.934-56.595,13.622-81.987,13.622c-28.763,0-54.56-6.015-75.814-18.674L96.147,595.586
	l-0.256,0.43c21.443,12.771,47.427,18.813,76.326,18.813c25.516,0,53.308-4.709,82.282-13.666l-0.159-0.977
	c-1.692,0.041-3.375,0.06-5.048,0.06c-28.759,0-54.552-6.014-75.805-18.674c-37.066-22.086-54.896-61.124-54.905-109.622
	c-0.008-75.548,43.392-173.924,124.851-265.847c77.308-87.25,171.953-149.585,256.388-175.685l-0.159-0.977
	c-99.518,2.396-231.878,74.276-334.06,189.582C84.034,311.088,40.506,409.61,40.499,485.536
	c-0.01,48.726,17.974,88.196,55.393,110.48L96.147,595.586z"/>
<path fill="#CC0000" d="M503.229,14.145c61.707-19.077,118.009-18.843,158.204,5.101c95.268,56.749,64.007,225.19-69.829,376.23
	C489.5,510.705,357.202,582.512,257.905,584.89c84.545-26.138,179.249-88.52,256.613-175.83
	C648.351,258.02,679.615,89.577,584.347,32.83C561.761,19.375,534.086,13.406,503.229,14.145z"/>
<path fill="#CC0000" d="M503.229,14.145l0.147,0.478C532.271,5.688,559.971,0.999,585.362,1c28.763,0,54.561,6.014,75.814,18.675
	c37.067,22.086,54.896,61.125,54.905,109.623c0.007,75.548-43.393,173.923-124.853,265.847
	C489.208,510.297,356.969,582.031,257.894,584.39l0.012,0.5l0.147,0.477c84.657-26.174,179.419-88.603,256.84-175.976
	c81.567-92.063,125.095-190.587,125.102-266.511c0.011-48.726-17.972-88.196-55.392-110.479
	c-21.442-12.773-47.428-18.816-76.326-18.816c-1.677,0-3.363,0.021-5.061,0.061L503.229,14.145l0.147,0.478L503.229,14.145
	l0.011,0.5c1.688-0.041,3.368-0.061,5.037-0.061c28.761,0,54.562,6.014,75.814,18.676c37.067,22.085,54.896,61.123,54.904,109.62
	c0.009,75.548-43.393,173.924-124.851,265.849c-77.307,87.249-171.952,149.583-256.387,175.684l0.16,0.978
	c99.518-2.397,231.876-74.277,334.06-189.583c81.568-92.064,125.096-190.585,125.104-266.51
	c0.01-48.726-17.974-88.197-55.394-110.481C640.245,6.043,614.262,0,585.362,0c-25.516,0-53.308,4.71-82.281,13.667l0.158,0.978
	L503.229,14.145z"/>
<polygon fill="#CC0000" points="362.766,419.969 334.281,413.347 325.761,388.469 311.827,355.758 312.736,303.057 314.553,283.065 
	313.604,239.477 314.304,199.415 317.266,189.831 323.889,186.17 331.818,186.445 336.058,191.898 339.719,228.492 342.681,269.146 
	345.751,270.331 348.82,267.262 345.144,202.498 346.054,148.888 349.688,142.225 357.26,138.288 364.832,139.801 369.073,145.556 
	373.615,200.378 377.25,245.205 377.855,256.412 382.701,252.777 382.151,235.815 382.398,177.662 383.335,142.554 387.851,126.171 
	388.02,126.036 387.396,125.414 392.545,120.568 397.998,119.054 402.69,119.811 406.176,123.445 407.691,126.323 407.945,128.8 
	410.568,137.379 412.083,178.268 413.294,234.604 413.899,243.691 419.352,240.661 420.22,230.377 423.288,150.402 426.62,143.437 
	433.588,140.71 441.161,141.922 446.31,146.162 448.731,172.513 451.18,229.192 454.181,282.46 457.212,283.974 464.48,255.2 
	473.265,245.509 484.773,232.181 499.615,227.335 508.095,229.758 507.449,238.884 496.573,266.077 487.499,292.152 
	477.202,341.219 454.181,403.007 435.456,414.53 419.033,415.715 416.072,421.746 434.758,423.038 445.151,419.376 440.249,437.536 
	442.066,453.286 407.564,462.991 381.449,463.585 359.077,458.132 337.875,455.103 337.835,439.946 339.719,430.846 
	336.058,424.223 355.443,427.292 372.351,427.292 372.351,424.815 "/>
<polygon fill-rule="evenodd" clip-rule="evenodd" fill="#FFFFFF" points="447.518,297.603 441.463,299.421 402.391,336.676 
	402.69,353.94 405.42,393.315 408.145,390.892 406.934,343.339 410.568,334.556 "/>
<polygon fill="#FFFFFF" points="447.518,297.603 447.374,297.124 441.205,298.977 401.887,336.465 402.19,353.962 404.991,394.364 
	408.65,391.111 407.437,343.432 410.992,334.839 447.871,297.956 447.374,297.124 447.518,297.603 447.164,297.25 410.145,334.272 
	406.431,343.246 407.64,390.673 405.849,392.266 403.19,353.919 402.895,336.886 441.722,299.864 447.661,298.082 447.518,297.603 
	447.164,297.25 "/>
<polygon fill-rule="evenodd" clip-rule="evenodd" fill="#FFFFFF" points="497.797,240.814 494.769,243.615 489.771,255.655 
	489.471,259.365 492.572,261.787 493.938,260.122 492.8,255.882 493.027,251.869 "/>
<polygon fill="#FFFFFF" points="497.797,240.814 497.457,240.447 494.349,243.323 489.279,255.536 488.95,259.593 492.649,262.482 
	494.487,260.24 493.304,255.829 493.521,251.985 498.256,241.012 497.457,240.447 497.797,240.814 497.338,240.616 492.533,251.752 
	492.296,255.934 493.388,260.003 492.495,261.093 489.99,259.137 490.263,255.773 495.188,243.908 498.137,241.181 497.797,240.814 
	497.338,240.616 "/>
<path fill-rule="evenodd" clip-rule="evenodd" fill="#231F20" d="M427.43,627.369c0-21.023-17.117-38.145-38.141-38.145
	c-21.024,0-38.143,17.121-38.143,38.145c0,20.84,17.303,38.142,38.143,38.142C410.127,665.511,427.43,648.209,427.43,627.369z
	 M417.382,627.369c0,15.441-12.651,28.28-28.093,28.28c-15.444,0-28.097-12.839-28.097-28.28c0-15.443,12.469-28.468,28.097-28.468
	S417.382,611.926,417.382,627.369z M397.103,643.93h8.743c-1.115-2.235-1.674-3.537-1.857-5.213
	c-0.188-1.673-0.188-3.347-0.562-4.836c-0.183-1.489-0.741-2.791-3.162-4.836c3.351-2.794,4.466-5.398,4.466-8.562
	c0-8.184-6.698-9.86-13.395-9.86h-15.817v33.307h7.813v-12.469h4.281c4.465,0,7.442,0.747,8,5.769
	c0.188,1.303,0.374,2.606,0.559,3.72C396.358,641.882,396.545,642.811,397.103,643.93z M391.521,617.509
	c2.791,0,4.838,0.186,4.838,3.535c0,1.487-0.745,2.603-1.86,3.162c-0.931,0.188-2.046,0.188-2.978,0.188h-8.188v-6.886H391.521z"/>
<path fill-rule="evenodd" clip-rule="evenodd" fill="#CC0000" d="M273.443,977.367c-1.944-4.443-2.083-9.303-2.361-14.024
	c-0.972-13.745-3.194-21.799-16.802-27.354c12.358-3.747,18.469-12.496,18.469-25.271c0-6.666-2.361-13.332-7.082-18.051
	c-7.637-7.638-19.58-7.915-29.715-7.915h-43.601v92.616h16.941v-37.353h15.274c18.746,0,26.661,4.722,28.604,24.161
	c0.417,4.441,0.277,9.025,2.082,13.191H273.443z M254.281,912.104c0,5.833-2.36,11.249-8.332,13.054
	c-2.637,0.833-5.554,0.833-8.192,0.833h-28.465v-27.354h29.299C248.033,898.638,254.281,901.83,254.281,912.104z"/>
<path fill-rule="evenodd" clip-rule="evenodd" fill="#CC0000" d="M348.056,977.367v-67.621h-15.83v55.263H316.12
	c-10.415,0-13.053-4.167-13.053-14.023v-41.239h-15.83v40.683c0,15.136,5.138,25.689,21.522,26.801
	c2.223,0.138,4.305,0.138,6.526,0.138H348.056z"/>
<path fill-rule="evenodd" clip-rule="evenodd" fill="#CC0000" d="M428.354,976.394v-66.647h-30.967
	c-9.303,0-17.356,0.693-24.575,7.355c-7.36,6.944-10.278,17.358-10.278,27.218c0,17.912,8.748,31.522,27.632,32.91
	c3.192,0.274,6.388,0.274,9.581,0.274c4.306,0,8.611-0.137,12.915-0.137c0,9.579-1.805,10.275-10.97,10.275h-32.492V1000h33.742
	C421.133,1000,428.354,995.559,428.354,976.394z M412.663,965.009h-15.275c-7.221,0-12.773-1.388-16.246-8.331
	c-1.805-3.749-2.499-8.052-2.499-12.219c0-4.583,0.694-9.999,2.776-14.164c3.473-7.218,9.581-8.192,16.802-8.192h14.442V965.009z"/>
<path fill-rule="evenodd" clip-rule="evenodd" fill="#CC0000" d="M512.796,942.373c0-10.688-3.33-21.937-12.773-28.045
	c-5.83-3.75-12.497-4.582-19.3-4.582H462.95v-24.995h-15.692v92.616h28.328c9.995,0,18.466-0.138,26.38-7.081
	C510.022,963.204,512.796,952.649,512.796,942.373z M496.553,943.209c0,6.111-1.391,14.855-6.666,18.746
	c-3.334,2.498-8.053,3.054-12.079,3.054H462.95v-42.906h15.271C492.247,922.103,496.553,930.434,496.553,943.209z"/>
<path fill-rule="evenodd" clip-rule="evenodd" fill="#CC0000" d="M586.151,970.702v-60.956h-15.83v55.263h-16.106
	c-11.806,0-12.36-6.944-12.36-16.663v-38.6h-15.827v41.656c0,3.47,0.139,6.94,0.971,10.413c2.36,9.026,10.553,14.578,19.579,15.414
	c2.082,0.138,4.028,0.138,6.109,0.138h17.635c-0.277,8.469-2.499,10.275-10.829,10.275h-33.465V1000h33.601
	c3.334,0,6.666,0,9.999-0.833C583.792,995.833,586.151,983.337,586.151,970.702z"/>
<path fill-rule="evenodd" clip-rule="evenodd" fill="#231F20" d="M121.567,781.355V699.48H91.983v83.331
	c0,9.377,0.208,20.419-7.917,26.877c-5.624,4.375-15.624,6.457-22.708,6.457c-10.417,0-23.333-3.958-28.333-13.96
	c-3.124-6.039-3.334-12.915-3.334-19.374V699.48H0.317v83.958c0,12.914,0.416,24.999,8.334,35.832
	c12.083,16.877,32.916,20.208,52.292,20.208c19.583,0,44.166-4.999,54.165-23.958C120.108,805.939,121.567,791.979,121.567,781.355z
	"/>
<path fill="#231F20" d="M121.567,781.355h0.316v-82.191H91.666v83.647c0,0.458,0,0.92,0,1.384c0.005,9.068-0.212,19.23-7.797,25.245
	l0.197,0.248l-0.194-0.249c-5.518,4.304-15.49,6.396-22.513,6.39c-10.35,0.005-23.153-3.953-28.05-13.784l-0.001-0.003l-0.001-0.002
	c-3.083-5.955-3.301-12.774-3.299-19.229v-83.647H0v84.274c0,12.914,0.41,25.092,8.395,36.019v-0.001l-0.001-0.002
	c12.187,17.013,33.147,20.341,52.549,20.341c19.623-0.005,44.331-4.989,54.445-24.127h0v-0.002
	c5.042-9.67,6.492-23.657,6.495-34.311H121.567h-0.317c0.003,10.593-1.465,24.526-6.423,34.018l0,0h0.001
	c-9.885,18.779-34.342,23.794-53.885,23.79c-19.352,0-40.056-3.335-52.034-20.077l-0.001-0.001l-0.001-0.002
	c-7.85-10.738-8.273-22.73-8.273-35.645v-83.642h28.741v83.015c0.002,6.464,0.204,13.394,3.37,19.52l0.281-0.146l-0.283,0.142
	c5.103,10.173,18.131,14.13,28.616,14.135c7.144-0.006,17.171-2.077,22.902-6.523l0.001-0.001h0.001
	c7.872-6.272,8.031-16.69,8.036-25.742c0-0.466,0-0.926,0-1.384v-83.015h28.951v81.559H121.567z"/>
<path fill-rule="evenodd" clip-rule="evenodd" fill="#231F20" d="M242.002,838.437v-24.793h-28.334
	c-9.167,0-23.334,0.836-30.625-5.832c-6.667-6.043-6.042-13.747-6.458-21.874c-0.209-2.709-0.417-5.623-0.417-8.335V699.48h-29.375
	v83.122c0,13.75,1.25,28.753,10.208,39.795c10.833,13.121,27.084,16.039,43.333,16.039H242.002z"/>
<path fill="#231F20" d="M242.002,838.437h0.316v-25.108h-28.65c-1.841,0-3.878,0.033-6.018,0.033
	c-8.54,0.009-18.706-0.561-24.394-5.783l-0.001-0.001c-6.543-5.926-5.94-13.485-6.355-21.656v-0.004l0-0.005
	c-0.208-2.706-0.416-5.614-0.416-8.31v-78.438h-30.008v83.438c0.003,13.765,1.24,28.846,10.279,39.994l0.001,0.002l0.001,0.001
	c10.928,13.231,27.299,16.155,43.577,16.152h41.984v-0.315H242.002v-0.316h-41.668c-16.22-0.002-32.35-2.914-43.089-15.925
	l0.002,0.003c-8.879-10.937-10.14-25.859-10.138-39.596v-82.806h28.741v77.806c0,2.727,0.209,5.648,0.418,8.359l0.316-0.024
	l-0.317,0.016c0.418,8.083-0.228,15.933,6.562,22.094l-0.002-0.002h0.001c5.972,5.441,16.258,5.941,24.821,5.949
	c2.146,0,4.185-0.034,6.018-0.034h28.017v24.477H242.002v-0.316V838.437z"/>
<path fill-rule="evenodd" clip-rule="evenodd" fill="#231F20" d="M381.187,797.396c0-14.584-5.208-29.79-18.959-36.667
	c-9.583-4.791-20.624-5.208-31.25-5.208h-22.291c-11.459,0-25.417-0.832-25.417-15.834c0-13.958,10.001-15.414,21.458-15.414h68.542
	V699.48h-74.583c-12.083,0-25,0.832-34.584,9.166c-8.541,7.5-13.541,20.626-13.541,31.875c0,14.791,7.708,30.209,21.875,35.831
	c7.708,3.126,17.708,3.752,26.042,3.752h25.624c6.667,0,14.167,0.416,19.167,5.416c3.126,3.127,5.001,7.708,5.001,12.085
	c0,15.832-16.042,16.038-27.709,16.038h-63.334v24.793h76.042c15.001,0,28.542-0.832,38.751-13.333
	C378.27,817.397,381.187,807.188,381.187,797.396z"/>
<path fill="#231F20" d="M381.187,797.396h0.316c0.002-14.648-5.233-29.993-19.134-36.951c-9.667-4.83-20.759-5.238-31.392-5.24
	h-22.291c-5.721,0.003-12.044-0.216-16.882-2.268c-4.833-2.062-8.202-5.852-8.218-13.25c0.013-6.909,2.438-10.599,6.266-12.662
	c3.837-2.062,9.16-2.438,14.876-2.436h68.859v-25.425h-74.9c-12.092,0.002-25.1,0.822-34.792,9.243l-0.001,0.002
	c-8.627,7.584-13.643,20.771-13.648,32.112c0.001,14.892,7.754,30.434,22.075,36.126l-0.002-0.001
	c7.783,3.153,17.81,3.773,26.161,3.774h25.624c6.661-0.004,14.063,0.433,18.942,5.323c3.063,3.062,4.911,7.574,4.909,11.861
	c-0.018,7.8-3.888,11.639-9.273,13.659c-5.389,2.005-12.29,2.064-18.119,2.063h-63.651v25.424h76.358
	c14.996,0.004,28.692-0.829,38.997-13.448l0.005-0.006l-0.004,0.005c6.305-7.777,9.237-18.053,9.237-27.907H381.187h-0.316
	c0,9.731-2.902,19.872-9.096,27.508h0c-10.114,12.382-23.5,13.213-38.506,13.217h-75.725v-24.16h63.018
	c5.837-0.001,12.791-0.045,18.339-2.101c5.553-2.042,9.704-6.224,9.686-14.254c-0.002-4.467-1.906-9.116-5.094-12.309
	c-5.121-5.108-12.718-5.505-19.391-5.51h-25.624c-8.317,0.002-18.289-0.63-25.923-3.728l-0.002-0.001
	c-14.012-5.554-21.676-20.849-21.675-35.537c-0.005-11.159,4.979-24.224,13.433-31.637l-0.002,0.001h0.001
	c9.475-8.245,22.302-9.092,34.376-9.089h74.267v24.16h-68.226c-5.742,0.003-11.147,0.354-15.175,2.509
	c-4.038,2.153-6.612,6.172-6.6,13.221c-0.017,7.602,3.593,11.731,8.604,13.835c5.005,2.114,11.391,2.313,17.129,2.315h22.291
	c10.619-0.001,21.609,0.424,31.108,5.174c13.6,6.798,18.782,21.865,18.784,36.385H381.187z"/>
<polygon fill-rule="evenodd" clip-rule="evenodd" fill="#231F20" points="507.875,724.272 507.875,699.48 388.082,699.48 
	388.082,724.272 432.458,724.272 432.458,838.437 461.833,838.437 461.833,724.272 "/>
<polygon fill="#231F20" points="507.875,724.272 508.191,724.272 508.191,699.164 387.766,699.164 387.766,724.589 432.142,724.589 
	432.142,838.752 462.15,838.752 462.15,724.589 508.191,724.589 508.191,724.272 507.875,724.272 507.875,723.957 461.518,723.957 
	461.518,838.12 432.774,838.12 432.774,723.957 388.399,723.957 388.399,699.797 507.559,699.797 507.559,724.272 507.875,724.272 
	507.875,723.957 "/>
<path fill-rule="evenodd" clip-rule="evenodd" fill="#231F20" d="M627.289,838.437v-24.793h-37.291
	c-24.373,0-38.543-5.206-40.834-32.08h78.125V756.98h-78.125c0.626-7.712,1.252-16.042,6.252-22.501
	c7.917-10.625,21.458-10.207,33.333-10.207h38.54V699.48h-49.998c-11.042,0-22.085,0.832-31.875,6.665
	c-21.249,12.711-29.793,38.127-29.793,61.667c0,24.999,8.334,56.25,34.376,65.834c11.458,4.164,26.458,4.79,38.75,4.79H627.289z"/>
<path fill="#231F20" d="M627.289,838.437h0.316v-25.108h-37.607c-12.168,0.001-21.741-1.31-28.52-5.908
	c-6.775-4.596-10.853-12.492-11.999-25.884l-0.315,0.027v0.316h78.441v-25.217h-78.441v0.317l0.315,0.024
	c0.622-7.716,1.26-15.976,6.188-22.331l0.001-0.004l0.002-0.001c7.218-9.702,19.247-10.085,30.452-10.082
	c0.882,0,1.758,0.002,2.627,0.002h38.856v-25.425h-50.314c-11.056,0-22.164,0.829-32.037,6.71
	c-21.384,12.798-29.947,38.33-29.947,61.938c0.004,25.05,8.333,56.449,34.583,66.131l0.005,0.003l-0.005-0.002
	c11.532,4.188,26.555,4.808,38.859,4.808h38.856v-0.315H627.289v-0.316h-38.54c-12.278,0.001-27.255-0.631-38.642-4.771h0.001
	c-25.834-9.486-34.172-40.589-34.169-65.537c0-23.472,8.523-48.771,29.64-61.396c9.706-5.783,20.682-6.62,31.712-6.62h49.681v24.16
	h-38.223c-0.867,0-1.743-0.004-2.627-0.004c-11.188,0.004-23.5,0.341-30.96,10.337l0.254,0.189l-0.251-0.194
	c-5.073,6.562-5.688,14.963-6.316,22.669l-0.028,0.342h78.151v23.951H548.82l0.028,0.344c1.144,13.482,5.296,21.626,12.273,26.354
	c6.974,4.722,16.671,6.015,28.876,6.016h36.974v24.477H627.289v-0.316V838.437z"/>
<path fill-rule="evenodd" clip-rule="evenodd" fill="#231F20" d="M777.717,838.437c-4.163-12.914-1.663-27.291-6.873-39.998
	c-4.793-11.667-10.002-15.627-21.667-19.794c18.957-6.039,26.458-21.458,26.458-40.415c0-16.874-9.792-30.832-26.042-35.625
	c-9.999-2.917-20.832-3.124-31.041-3.124h-67.917v138.956h29.583V785.73h23.752c25.831,0,34.374,7.081,37.498,32.914
	c0.836,6.667,1.043,13.336,3.125,19.792H777.717z M743.136,741.771c0,14.584-7.916,19.167-21.46,19.167h-41.458v-36.665h41.458
	C734.177,724.272,743.136,727.604,743.136,741.771z"/>
<path fill="#231F20" d="M777.717,838.437l0.302-0.098c-4.145-12.809-1.638-27.197-6.881-40.021
	c-4.797-11.725-10.162-15.814-21.854-19.973l-0.106,0.299l0.096,0.302c19.104-6.073,26.696-21.687,26.679-40.717
	c0.007-16.997-9.886-31.103-26.269-35.928c-10.056-2.934-20.918-3.138-31.131-3.138h-68.233v139.588h30.216v-52.706h23.436
	c12.894-0.001,21.401,1.776,27.057,6.693c5.66,4.911,8.568,13.05,10.128,25.943v0.001c0.834,6.647,1.038,13.338,3.137,19.851
	l0.071,0.218h33.79l-0.134-0.413L777.717,838.437v-0.316h-33.124v0.316l0.302-0.098c-2.065-6.399-2.275-13.046-3.112-19.733
	l0.001,0.011l-0.001-0.01c-1.564-12.94-4.49-21.258-10.341-26.346c-5.854-5.081-14.534-6.846-27.472-6.847H679.9v52.706h-28.949
	V699.797h67.601c10.205,0,21.008,0.21,30.952,3.111c16.114,4.76,25.808,18.569,25.813,35.321
	c-0.017,18.885-7.426,34.109-26.236,40.113l-0.895,0.284l0.884,0.316c11.638,4.177,16.69,8.007,21.481,19.615
	c5.175,12.591,2.68,26.955,6.863,39.976L777.717,838.437v-0.316V838.437z M743.136,741.771h-0.315
	c-0.004,7.242-1.957,11.911-5.534,14.807c-3.58,2.897-8.871,4.045-15.61,4.044h-41.142v-36.032h41.142
	c6.224-0.002,11.53,0.838,15.239,3.381c3.703,2.543,5.897,6.778,5.905,13.801H743.136h0.317c0.008-7.144-2.278-11.658-6.18-14.323
	c-3.896-2.662-9.32-3.489-15.598-3.49H679.9v37.296h41.775c6.804,0,12.243-1.145,16.009-4.184c3.766-3.043,5.772-7.956,5.769-15.299
	H743.136z"/>
<path fill-rule="evenodd" clip-rule="evenodd" fill="#FFFFFF" d="M332.816,343.139c0,0,6.337-15.021,9.269-17.953
	c2.931-2.932,86.049-37.274,86.049-37.274l14.63-2.736c0,0-94.839,40.41-98.832,43.929
	C339.941,332.621,332.816,343.139,332.816,343.139z"/>
<path fill="#FFFFFF" d="M332.816,343.139l0.46,0.194c0.003-0.008,1.582-3.747,3.526-7.857c0.973-2.054,2.037-4.2,3.035-6.005
	c0.993-1.802,1.944-3.279,2.601-3.931c0.078-0.089,0.582-0.417,1.333-0.814c5.718-3.067,26.891-12.173,46.588-20.487
	c9.852-4.159,19.344-8.125,26.373-11.051c7.027-2.926,11.582-4.808,11.593-4.812l-0.19-0.462l0.092,0.491l14.63-2.736l-0.092-0.491
	l-0.196-0.46c0,0-23.71,10.104-47.922,20.646c-12.104,5.271-24.335,10.653-33.793,14.939c-4.729,2.143-8.763,4.01-11.746,5.456
	c-1.492,0.723-2.72,1.339-3.643,1.834c-0.93,0.5-1.53,0.852-1.863,1.139c-4.093,3.618-11.182,14.111-11.2,14.128L332.816,343.139
	l0.46,0.194L332.816,343.139l0.414,0.28c0.004-0.005,1.776-2.621,4.049-5.68c2.269-3.056,5.052-6.561,6.984-8.259
	c0.167-0.153,0.775-0.529,1.673-1.007c6.808-3.646,31.092-14.37,53.637-24.162c11.275-4.898,22.122-9.566,30.15-13.011
	c4.014-1.722,7.323-3.138,9.629-4.123c2.307-0.985,3.604-1.539,3.609-1.541l-0.288-0.951l-14.682,2.745l-0.049,0.02
	c0,0-20.78,8.586-41.929,17.539c-10.575,4.477-21.241,9.045-29.45,12.679c-4.105,1.817-7.595,3.4-10.156,4.624
	c-1.28,0.611-2.329,1.133-3.11,1.552c-0.789,0.428-1.278,0.711-1.567,0.989c-0.809,0.815-1.749,2.315-2.769,4.153
	c-3.041,5.501-6.603,13.95-6.607,13.958l0.874,0.475L332.816,343.139z"/>
</svg>
