<?xml version="1.0" encoding="utf-8"?>
<!-- Generator: Adobe Illustrator 17.1.0, SVG Export Plug-In . SVG Version: 6.00 Build 0)  -->
<!DOCTYPE svg PUBLIC "-//W3C//DTD SVG 1.1//EN" "http://www.w3.org/Graphics/SVG/1.1/DTD/svg11.dtd">
<svg version="1.1" id="Layer_1" xmlns="http://www.w3.org/2000/svg" xmlns:xlink="http://www.w3.org/1999/xlink" x="0px" y="0px"
	 viewBox="0 0 313.2 142.6" enable-background="new 0 0 313.2 142.6" xml:space="preserve">
<g>
	<g>
		<g>
			<g>
				<path d="M40.6,45.1c1.7,19.4,2.2,24.3,4.5,45.5l-0.4,0.4l-7,0.2l-0.4-0.5l-0.5-8.1L36.4,77H20.1l-2.5,4.9
					c-2,3.8-2.2,4.2-4.4,8.7L12.8,91l-6.9,0.1l-0.3-0.7c3.7-6.3,4.4-7.6,8.5-15.3L22,61l8.5-15.7l0.5-0.3l9.1-0.1L40.6,45.1z
					 M22.8,71.7c2.2,0,4.4,0.1,6.7,0.1c2.2,0,4.5-0.1,6.7-0.1l-1-12l-0.7-10.2L22.8,71.7z"/>
				<path d="M73.4,63.3c-0.3-0.7-0.8-1.6-2-2.5c-1.7-1.2-3.8-1.8-5.8-1.8c-4.9,0-6.7,2.9-6.7,5.5c0,2.8,2.1,3.9,5.8,5.8
					c3.2,1.7,7.9,4.2,7.9,10c0,5.2-4,11.6-14.2,11.6c-3.9,0-7.8-0.9-10.9-3.3l-0.1-0.6c0.7-2.3,0.9-3.2,1.4-5.9l0.6-0.1
					c0.4,0.8,0.7,1.4,1.3,2.2c1.6,1.8,4.2,2.9,7.4,2.9c4.9,0,7.6-2.7,7.6-6.2c0-3.2-2.5-4.6-5.8-6.3c-3.5-1.8-7.9-4.1-7.9-9.5
					c0-5,3.8-10.8,13.4-10.8c3.6,0,7.2,0.8,10.1,3l0.3,0.5c-0.9,2.5-1,3-1.7,5.4L73.4,63.3z"/>
				<path d="M83.2,81.7c-0.3,1.5-0.6,2.9-0.9,4.4c-0.1,0.7-0.7,3.8-0.9,4.6l-0.5,0.3c-1.9,0-4,0.1-6.2,0.1l-0.4-0.5
					c0.7-2.5,1.4-5.4,3.3-13.6l1.2-5.4c1.6-7.1,2.6-12,3.3-16.2l0.5-0.4c2.9,0,3.6,0,6.3-0.1l0.3,0.5c-0.7,2.4-1.2,4.6-1.9,7.8
					c-0.3,1.2-1.6,7-1.9,8.3l9.8-9.9c1.8-1.9,3.4-3.5,5.5-5.8c0.3-0.4,0.4-0.5,0.9-0.7h2.7c1.4,0,3-0.1,4.2-0.1l0.3,0.5
					c-2.9,2.5-3.2,2.9-5.5,5L92,71.7l5.6,9.9c0.9,1.6,4.8,8,5.5,8.9l-0.3,0.5c-1.3,0-2.5,0-3.8,0.1c-1,0-2.1,0.1-3.1,0.1l-0.5-0.3
					c-0.5-1-0.7-1.2-3.5-6.6l-6.7-11.9L83.2,81.7z"/>
			</g>
			<path d="M145.1,55.4c0.7,8.5,2.8,31.1,3.5,35.3l-0.5,0.4c-3.1,0-3.5,0-6.4,0.1l-0.4-0.4c-0.1-1.7-0.1-3.2-0.3-6.4l-0.3-4.1
				c-2.5-0.1-8.3-0.1-11.1,0l-1.9,3.7c-0.7,1.4-3.1,6.1-3.1,6.2c-0.2,0.5-0.3,0.5-0.7,0.8c-2.7,0-3.4,0-6.3,0.1l-0.2-0.6
				c2.4-4,4.4-7.8,6.9-12.2l6-10.9c1.1-2,2.2-4,3.3-6.1c0.5-0.9,2.7-5,3.2-5.9l0.5-0.3c3.4,0,3.7,0,7.4-0.1L145.1,55.4z M132,75.7
				c3.8,0.1,4.8,0.1,8.5,0l-1-14.6L132,75.7z"/>
		</g>
		<g>
			<path d="M48.7,141.3l-0.5,0.5l-6.5,0.1l-0.5-0.5l2.6-11.8l2.5-12.2l3.7-17l-14.9,27.7l-7.2,13.3l-0.5,0.3l-6.5,0.1l-0.3-0.5
				L20,132l-2.1-31.3l-2.7,10.5l-4.3,16l-3.7,14.3l-0.4,0.3L1,141.9l-0.3-0.5l3.8-12.9l4.6-16.4L13.5,96l0.5-0.3l9.6-0.1l0.4,0.4
				l0.7,11.7l0.9,12.7c0.5,7,0.6,8.4,0.8,13.8l13.6-26L46.3,96l0.6-0.3l9.8-0.1L57,96l-3.1,16.2l-2.5,13.4L48.7,141.3z"/>
			<path d="M64,131.3c-0.5,2.1-1.8,9.1-2,10.1l-0.5,0.4c-2.2-0.1-3.5-0.1-6.5,0.1l-0.4-0.5c0.1-0.3,0.8-3.4,1.7-6.9l2.4-10.6
				c1.8-8.2,2-9.1,3.8-17.7l0.5-0.3c2.5,0,3.5,0,6.5-0.1l0.3,0.5c-1.1,4.2-3.7,15.4-4.6,19.6L64,131.3z"/>
			<path d="M93.4,114c-0.3-0.7-0.8-1.6-2-2.5c-1.7-1.2-3.8-1.8-5.8-1.8c-4.9,0-6.7,2.9-6.7,5.5c0,2.8,2.1,3.9,5.8,5.8
				c3.2,1.7,7.9,4.2,7.9,10c0,5.2-4,11.5-14.2,11.5c-3.9,0-7.8-0.9-10.9-3.3l-0.1-0.6c0.7-2.3,0.9-3.2,1.4-5.9l0.6-0.1
				c0.4,0.8,0.7,1.4,1.3,2.2c1.6,1.8,4.2,2.9,7.4,2.9c4.9,0,7.6-2.7,7.6-6.2c0-3.2-2.5-4.6-5.8-6.3c-3.5-1.8-7.9-4.1-7.9-9.5
				c0-5,3.8-10.8,13.4-10.8c3.6,0,7.2,0.8,10.1,3l0.3,0.5c-0.9,2.5-1,3-1.7,5.4L93.4,114z"/>
			<path d="M120.7,114c-0.3-0.7-0.8-1.6-2-2.5c-1.7-1.2-3.9-1.8-5.8-1.8c-4.9,0-6.7,2.9-6.7,5.5c0,2.8,2.1,3.9,5.8,5.8
				c3.2,1.7,7.9,4.2,7.9,10c0,5.2-4,11.5-14.2,11.5c-3.9,0-7.8-0.9-10.9-3.3l-0.1-0.6c0.7-2.3,0.9-3.2,1.4-5.9l0.6-0.1
				c0.4,0.8,0.7,1.4,1.3,2.2c1.6,1.8,4.2,2.9,7.4,2.9c4.9,0,7.6-2.7,7.6-6.2c0-3.2-2.5-4.6-5.8-6.3c-3.5-1.8-7.9-4.1-7.9-9.5
				c0-5,3.8-10.8,13.4-10.8c3.6,0,7.2,0.8,10.1,3l0.3,0.5c-0.9,2.5-1,3-1.7,5.4L120.7,114z"/>
			<path d="M130.8,131.3c-0.5,2.1-1.8,9.1-2,10.1l-0.5,0.4c-2.2-0.1-3.5-0.1-6.5,0.1l-0.4-0.5c0.1-0.3,0.8-3.4,1.7-6.9l2.4-10.6
				c1.8-8.2,2-9.1,3.8-17.7l0.5-0.3c2.5,0,3.5,0,6.5-0.1l0.3,0.5c-1.1,4.2-3.7,15.4-4.6,19.6L130.8,131.3z"/>
			<path d="M151.7,142.5c-8.3,0-14.9-4.4-14.9-14.4c0-6.5,3.5-22.9,20.2-22.9c8,0,14.9,4.2,14.9,14.3
				C171.9,125.9,168.6,142.5,151.7,142.5z M164.9,119.3c0-1.2-0.1-2.6-0.6-4c-1.6-4.9-5.8-5.4-7.7-5.4c-9.6,0-12.9,12.3-12.9,18.3
				c0,5.7,2.7,9.5,8.2,9.5C161.8,137.7,164.9,125,164.9,119.3z"/>
			<path d="M201.1,128.2c-0.5,2.3-1,4.7-1.5,7c-0.5,2.1-0.9,4.5-1.4,6.2l-0.6,0.3c-0.9,0-1.8,0-2.8,0.1c-1,0-2,0.1-3.1,0.1l-0.5-0.3
				c-0.7-2.1-1.5-4.2-2.3-6.3l-7.5-21.3l-3.8,18.1c-0.7,3.2-1.8,9.1-1.9,9.5l-0.5,0.4h-1.1c-1.8,0-2.6,0-4.4,0.1l-0.3-0.5
				c0.3-1,1.3-5.4,3.1-13.4l3.3-14.9c0.8-3.8,0.9-4.3,1.3-6.9l0.5-0.4h3.3c1.1,0,2.3-0.1,3.4-0.1l0.6,0.4c0.4,1,2.2,6.1,2.5,7.2
				l4.1,11.7c0.5,1.2,2.5,6.7,2.9,7.9l3.3-16.3c0.7-2.8,1.5-7.4,2.2-10.3l0.5-0.4c2.2,0.1,2.8,0,5.2-0.1l0.4,0.5l-0.2,0.9
				c-0.6,2.3-1,4.1-2.7,11.7L201.1,128.2z"/>
			<path d="M227.9,106.1c0.7,8.5,2.8,31.1,3.5,35.3l-0.5,0.4c-3.1,0-3.5,0-6.4,0.1l-0.4-0.4c-0.1-1.7-0.1-3.2-0.3-6.4l-0.3-4.1
				c-2.5-0.1-8.3-0.1-11.1,0l-1.9,3.7c-0.7,1.4-3.1,6.1-3.1,6.2c-0.2,0.5-0.3,0.5-0.7,0.8c-2.7,0-3.4,0-6.3,0.1l-0.2-0.6
				c2.4-4,4.4-7.8,6.9-12.2l6-10.9c1.1-2,2.2-4,3.3-6.1c0.5-0.8,2.7-5,3.2-5.9l0.5-0.3c3.4,0,3.7,0,7.4-0.1L227.9,106.1z
				 M214.7,126.4c3.8,0.1,4.8,0.1,8.5,0l-1-14.6L214.7,126.4z"/>
			<path d="M250.3,105.7c2.9,0,6.2,0,8.7,0.8c4.7,1.4,5.9,5.1,5.9,8c0,3.2-1.4,6-3.5,7.9c-2.7,2.4-6.1,3-7.7,3.3l4.6,9.1
				c0.5,1,0.9,1.9,1.4,2.8c0.3,0.5,1.5,2.9,1.8,3.5l-0.3,0.5c-1.2,0-2.3,0-3.5,0.1c-1,0.1-2.1,0.1-3.1,0.1l-0.5-0.3
				c-1-2.3-1.3-3.1-2.4-5.5l-4.6-9.5c-1.6,0.1-2.1,0.1-3.5,0.1c-0.9,3.6-2.7,12.4-3.1,14.7l-0.5,0.5c-2.8,0-3.4,0-6.2,0.1l-0.4-0.5
				c1.8-7.2,2-8.1,2.7-11.4l1.5-6.7c2.3-10.4,2.6-11.8,3.5-17l0.5-0.4L250.3,105.7z M244.6,122.2c6.3,0.1,8.4-0.7,9.6-1.2
				c2.5-1.2,4-3.3,4-6.1c0-4.5-4.4-4.5-7.4-4.5c-1.1,0-2.2,0-3.5,0.1c-0.3,1.4-0.7,2.8-1,4.2L244.6,122.2z"/>
			<path d="M281.1,134c-0.7,3.1-1.1,5.4-1.6,7.5l-0.5,0.3c-3,0-3.3,0-6.5,0.1l-0.4-0.5c0.7-2.5,3.5-13.9,3.5-14.6l-4.8-15.7
				c-0.7-2.5-1-3.1-1.5-4.8l0.3-0.5c2.8-0.1,3.5-0.1,6.6-0.3l0.5,0.4c0.7,2.9,3.1,12.1,4,15.3l5.2-7.3c1.5-2.2,3.9-5.7,5.4-8
				l0.5-0.3c2,0.1,3,0.1,5.9,0l0.3,0.5c-1.7,2.2-2,2.6-5.8,7.7l-9.7,13.2L281.1,134z"/>
		</g>
	</g>
	<g>
		<g>
			<g>
				<path fill="#00447C" d="M232.7-0.1c-44.4,0-80.4,25.3-80.4,56.5c0,13.7,6.9,26.2,18.4,36l-15,26.1l34.2-14.2
					c12.4,5.5,27.1,8.7,42.8,8.7c44.4,0,80.4-25.3,80.4-56.5C313.1,25.2,277.1-0.1,232.7-0.1z"/>
			</g>
		</g>
		<g>
			<g>
				
					<linearGradient id="SVGID_1_" gradientUnits="userSpaceOnUse" x1="165.6195" y1="-160.5227" x2="265.1304" y2="-77.0231" gradientTransform="matrix(1 0 0 1 10.1147 183.4287)">
					<stop  offset="0" style="stop-color:#AEE0E8"/>
					<stop  offset="0.1447" style="stop-color:#AADBE6"/>
					<stop  offset="0.2947" style="stop-color:#9DD1E3"/>
					<stop  offset="0.4472" style="stop-color:#88C2DD"/>
					<stop  offset="0.6014" style="stop-color:#6BAFD7"/>
					<stop  offset="0.7568" style="stop-color:#4099CE"/>
					<stop  offset="0.9113" style="stop-color:#0083C4"/>
					<stop  offset="1" style="stop-color:#0076C0"/>
				</linearGradient>
				<path fill="url(#SVGID_1_)" d="M232.2,5.8c-40.4,0-73.2,22.8-73.2,50.9c0,13.2,7.2,25.2,19,34.2L167,109l22.6-11
					c12,6,26.7,9.5,42.6,9.5c40.4,0,73.2-22.8,73.2-50.9C305.4,28.5,272.7,5.8,232.2,5.8z"/>
			</g>
		</g>
		<g>
			<defs>
				<path id="SVGID_2_" d="M305.6,56.7c0,28.1-33,51-73.4,51c-40.7,0-73.3-22.8-73.3-51.3c-0.1-28.2,32.6-50.4,73.4-50.5
					C273.6,5.8,305.6,28.7,305.6,56.7z"/>
			</defs>
			<clipPath id="SVGID_3_">
				<use xlink:href="#SVGID_2_"  overflow="visible"/>
			</clipPath>
			<g clip-path="url(#SVGID_3_)">
				<g>
					<g>
						<path fill="#00447C" enable-background="new    " d="M172.3,16.5c0.9,0.1,0.6,1.4,1.3,1.3c0.7-0.1,1.2-0.6,2.6,0
							c1.4,0.5,2.1,0.7,3.8,0.8c1.7,0.2,2.8,0.6,3.8,0.3c0.9-0.2,1.5,0,1.5,0.6c0,0.6,0.6,0.7,0.5,1.5c-0.1,0.8,1.1-0.8,1.1-0.8
							s0.5,1.3,0.1,1.5c-0.4,0.2,0.1,1,0.6,0.8c0.5-0.1,1.2,0.2,1.8-0.3c0.6-0.5-0.3-1.7-0.3-2.3c0-0.5-0.6-0.8-0.9-1.3
							c-0.3-0.5,0.8-0.7,1.2-0.1c0.4,0.5,1.1,0,1.8-0.4c0.7-0.5,0.7-1.3,0.7-1.3s-1.2-1.3-2.1-1.6c-0.9-0.3-0.5-0.4,0.4-0.6
							c0.9-0.2,0-0.4,0.2-1.4c0.2-1,0.2-1.6,0.7-1.6c0.5,0,2.3-0.4,3.8-0.4c1.5,0,2.2,0.9,3.2,1c1,0,2.6,0.1,2.9,0.5
							c0.3,0.4-1.1,0.6-0.4,1.3c0.7,0.7,0.8,0.6,1.5,0.8c0.7,0.2,1.5,0,2.4-1.1c0.9-1.1,1.3-1.2,1.6-1.1c0.3,0.2,2.2,2,2.7,2.5
							c0.5,0.4,1.5,1.4,1.6,1.8c0.1,0.4,1.5,0.4,1.9,0.4c0.4,0,1.9,0.9,2.1,1.4c0.2,0.5,0.6,0.7,1.9,0.9c1.3,0.2,0,1.3-0.3,1.8
							c-0.3,0.6-0.5,0.7-0.9,1.4c-0.4,0.6,0,0,0.5,0.3c0.5,0.3,0.7,0.6,1.5,0.4c0.8-0.2,1.2,0,1.5,0.5c0.3,0.5,0.7,1,1,1.4
							c0.3,0.4,0,1.2-0.4,0.7c-0.4-0.4-1.7-0.1-1.7-0.1s-0.6,0.6-0.8,0.3c-0.2-0.3-0.6-0.6-1.3-0.4c-0.7,0.2-1.4,0.1-2.2,0.2
							c-0.8,0.1-1.1-0.3-0.6-0.7c0.5-0.4,0.6-1.7,1.6-2.3c1-0.6,0.7-1.4,0-1.4c-0.7,0-1,0.9-1.4,1.1c-0.4,0.2-1.2,0.2-1.9,0.7
							c-0.7,0.5-2.4,0.4-1.7,0.5c0.7,0.2-1,0.9-1.6,1c-0.6,0-0.4-1.2-0.4-1.6c0-0.4-0.8,0.3-0.8,0.3s-1.6-0.7-2.2-0.2
							c-0.6,0.6-1.5,0.9-2.2,1.4c-0.7,0.6-2.3,1.5-2.3,1.5s0.6-0.3,1.8-0.6c1.2-0.3,1.1-0.2,2.1-0.7c1-0.5,2-0.7,2.7,0.1
							c0.7,0.8-0.3,1.3-0.3,1.3s0.4,0.6,0.8,0.8c0.4,0.2,0.5-0.2,1.2-0.6c0.7-0.4,0.4,0.7,0.6,1.1c0.2,0.4,0.9,0.3,1.3-0.1
							c0.4-0.5,0.7-0.8,1-0.6c0.3,0.3,0.6,0.9,0.9,1.5c0.3,0.6-2.1,0.9-2.5,1c-0.4,0.1-2.3,0.5-2.6,0.6c-0.3,0.1-1.3,0.9-2.1,1
							c-0.8,0-0.7-1-0.8-1.7c-0.1-0.6-1.1,0.1-1.2,0.4c-0.1,0.3-1,0.2-1.7,0.3c-0.7,0.1-1.9,0.8-1.9,1.5c0,0.7,0.9,1,0.6,1.4
							c-0.3,0.4-2.1,0.7-2.8,0.5c-0.7-0.2-1.7,0.3-1.4,0.7c0.3,0.3,0.1,0.9-0.6,0.8c-0.7-0.1-0.8,0.5-0.5,1c0.3,0.4-0.9,1.3-1.2,1
							c-0.3-0.3-0.9-0.5-0.9,0c0,0.5,0.2,1,0.8,1.7c0.6,0.7-1.3,1.2-2,1.7c-0.7,0.5-3.2,2.3-4.2,2.7c-1,0.4-1,1.5-0.5,1.9
							c0.5,0.4,1.1,2.3,1.4,2.9c0.3,0.6-0.1,2.4-1,2.3c-0.9-0.1-0.4-1.1-1.3-1.4c-0.9-0.2-1.4-1.8-1.6-2.9c-0.2-1-0.4-0.4-1-0.1
							c-0.6,0.4-1.2-0.7-1.5-0.9c-0.3-0.3-2,0.2-3.3,0.1c-1.2-0.1-1.6,0.5-1.6,0.7c0,0.3-0.2,1-1.3,0.5c-1.1-0.5-1.3-0.5-2.4-0.5
							c-1.1,0-2.1-0.1-2.3,0.3c-0.2,0.3-1.3,1.1-2.1,1.3c-0.7,0.2-2.1,1.1-1.4,1.2c0.6,0.2,0.6,1.4,0.2,2c-0.4,0.7-0.3,1.9-0.1,3.1
							c0.2,1.2,1.4,2,2.5,2.7c1.1,0.8,1.5,1,2.7,0.3c1.1-0.7,1.5-0.3,1.8-0.2c0.3,0.1,1.1-0.4,0.8-1.2c-0.3-0.8,0.4-1.5,1.3-1.4
							c0.9,0.1,2.3-0.3,3-0.2c0.7,0.1,1.1,1.7,0,2.4c-1.1,0.7-0.5,1.7-0.7,2.5c-0.2,0.8-1.1,0.9,0,0.9c1.1,0,0.8,0.2,1.5,0.3
							c0.7,0.1,1.4-0.5,2.2-0.6c0.7-0.1,2.6,1.3,2.2,2c-0.3,0.7-0.6,1.9-0.5,3c0.1,1.1,0.5,1.2,0.7,1.6c0.2,0.4,1,1.1,1.9,0.8
							c0.9-0.3,1.8-0.6,2.2-0.9c0.3-0.3,2.3,0.6,2,0.9c-0.2,0.3,0.7,0.5,1.3,0.3c0.6-0.3,0.9-0.7,1.5-1.4c0.6-0.7,1.6-1.3,2.2-1.4
							c0.5-0.1,1.7-1.1,2.6-0.9c0.8,0.2-0.3,1.1-0.4,1.6c-0.1,0.5,0,2,0.4,2.1c0.4,0.1,0.2-1.1,0.7-1.8c0.5-0.8,1.5-1.2,2.1-1.2
							c0.5,0,0.9,1.9,1.6,1.3c0.7-0.5,2.2-0.4,2.5,0.1c0.3,0.5,0.6,0.8,0.6,0.8s0.5-0.4,0.5-0.8c0-0.4,1.6-0.9,2.7-0.3
							c1,0.5,0.6,0.7,1.1,0.8c0.5,0.1,1-1.2,1.3-1.2c0.3-0.1,0,1.4-0.7,2.2c-0.7,0.8,0.6,0.5,0.6,0.5s0,0,0.3,0.3
							c0.3,0.3,1.3-0.3,1.7,0.3c0.4,0.5,1.1,0.7,1.8,1.7c0.6,1,1.5,0.7,2.8,0.6c1.2-0.2,2.8,0.6,4,1.8c1.2,1.2,1,2.1,1.9,2.1
							c0.8,0,1,1,1,1.4c0,0.4-1.8,1.1-2.9,1.3c-1,0.2-1,1.1,0.6,0.8c1.6-0.2,0.9-0.8,1.9-1c1-0.3,2.1,0.4,1.1,1.5
							c-0.9,1.1-2.8,1.1-1.1,1.3c1.6,0.2,0.7-0.2,1.6-1.2c0.9-1.1,0.8-0.7,1.4-0.7c0.6,0,2,0.3,2.5,0.7c0.5,0.4,1.9,1,2.7,1.4
							c0.8,0.5,1.9,0.3,2.5,0.2c0.6-0.2,2.4,0.6,3,1.4c0.6,0.8,2.2,0.9,2.9,1.2c0.7,0.3,1.9,1.5,2,2.4c0.1,0.9-1.1,2.8-1.2,3.3
							c-0.1,0.5-1.7,2.1-3.3,3.1c-1.5,1-0.6,2.4-0.5,2.9c0.1,0.6-1,2.5-0.7,3c0.3,0.5-0.4,1.5-1,2.1c-0.6,0.6-1,1.8-1.4,2.3
							c-0.4,0.5-1.8,0.3-3,0.5c-1.2,0.2-1.9,0.5-1.9,0.5s-2.2,0.8-3.4,1.5c-1.2,0.7,0.4,2-0.2,3c-0.6,1-1.2,0.8-1.9,2
							c-0.6,1.1-0.9,0.1-1.5,0.4c-0.5,0.2-0.8,0.9-0.9,1.7c-0.1,0.7-1.1,1.4-2.5,2.4c-1.3,1-2.2,0.8-3.6,0.3
							c-1.5-0.5-1.3-3.5-1.5-3.1c-0.2,0.4-0.1,2.1,0.1,2.3c0.2,0.3,0.8,1.3,1.4,1.6c0.5,0.3,0.4,0.7,0,1.2c-0.4,0.4-1.6,2-2,2
							c-0.4,0.1-3.6,0.2-4.3-0.1c-0.6-0.3-0.9,0.6-0.8,1.1c0.1,0.5,0.6,1.2-0.5,0.9c-1.1-0.3-2.7-1-2.7-0.6c0,0.4,0.3,1.4,0.9,1.5
							c0.6,0,1.2-0.3,0.9,0.3c-0.3,0.6-1.1,1.1-1.6,1.3c-0.4,0.2-0.9,1.1-2,1.6c-1,0.5-1,0.9-0.8,1.2c0.2,0.3,1.8,0.2,2.1,0.4
							c0.3,0.2-0.3,1.4-0.7,1.6c-0.4,0.2-2.2,1.3-2.9,1.6c-0.7,0.3-0.7,1.4-0.5,1.9c0.2,0.5,1.9,2,2.8,2.4c0.9,0.3,2.9,0.4,2.7,0.7
							c-0.2,0.2-2.5,0.3-2.8,0.4c-0.3,0.1-2,0.3-2.8,0.2c-0.8-0.1-2.4-0.9-2.7-0.9c-0.3,0,0.2-0.3,1.3-0.9c1-0.6-0.4-1.5-0.6-0.6
							c-0.2,0.9-0.6,1.2-1.1,1.1c-0.5,0-1.1-0.7-1.5-1c-0.3-0.3-1.7-0.7-1.5-1.7c0.2-1-0.6-1-1.2-1.5c-0.6-0.5,0.8-0.7,0.6-1.2
							c-0.2-0.5-1.1-0.3-1.2-0.9c-0.1-0.6,0.8-1.4,0.9-1.7c0.1-0.3-0.6-0.8-0.7-1.3c-0.1-0.4,0.4-0.8,1.1-1.5
							c0.7-0.6,1.2-1.5,1.2-1.7c0-0.3-0.5-1.3-0.5-2c0-0.7,0.5-0.9,0.7-1.9c0.2-1-0.7-0.7-0.7-1.5c0-0.8,1-0.5,0.8-1.3
							c-0.2-0.8,0.5-1.3,0.8-1.8c0.3-0.5,0.6-1.4,1-2c0.4-0.6-0.4-2-0.4-2.3c0-0.3,1.3-0.5,0.7-1.1c-0.6-0.6,0.2-1,0.8-1.4
							c0.6-0.4-0.1-1.7,0.2-3.2c0.3-1.6,0.6-4.3,0.6-4.6c0-0.3,0.1-1.3-0.4-2c-0.5-0.7-1.1-1.3-1.9-1.6c-0.7-0.3-1.7-1.1-2.2-1.2
							c-0.5-0.1-3-1-3-2.2c0-1.2-1.7-2.3-1.9-3.1c-0.2-0.9-1.7-2.9-1.8-3.7c-0.1-0.9-2.3-1.2-2.6-2.2c-0.3-1,1-1.6,1.2-2.2
							c0.2-0.6-0.7-1.9-0.8-2.4c-0.1-0.4,1.5-1.6,2.2-1.9c0.6-0.2,1.1-1.4,1.5-1.4c0.4,0,0.3-1,0.7-1.9c0.4-1-0.2-2.3-0.5-2.5
							c-0.3-0.2-0.6-1.3-1.1-1.7c-0.5-0.4-1.5-0.2-1.5-0.2s0.2,0.8-0.7,1.2c-0.9,0.4-1.1-0.1-1.4-0.4c-0.3-0.3-1.4-0.4-1.9-0.8
							c-0.5-0.4-1.3-1.1-1.9-1.3c-0.6-0.3-1.5-0.5-1.4-1.6c0.1-1-1.3-1.6-1.7-1.8c-0.4-0.2-1.2-0.6-1.7-0.4
							c-0.5,0.3-1.4-0.5-2.1-0.4c-0.7,0.1-2.1-1-2.7-1.5c-0.5-0.4-0.9-1-1.8-1c-0.9,0-1,0.3-1.6,0.9c-0.6,0.6-1.5-0.4-1.8-0.7
							c-0.3-0.3-1.1-0.3-2.2-0.3c-1.1,0-1.9-1.3-2.3-1.4c-0.4-0.2-3.3-1.3-4-1.6c-0.7-0.3-1.4-1.6-1.1-1.9c0.3-0.3-0.5-1.4-0.5-1.4
							s-1.4-1.3-1.9-1.3c-0.5,0-2.1-2.3-3-3c-0.9-0.7-3-2.1-3.4-2.9 M179.9,33.4c1,0.1,1-1.2,0.9-1.5c-0.1-0.3-0.1-1.8,0.3-2.1
							c0.4-0.3,0.9-1.1,2-1.2c1.1-0.1,1.8,0.5,1.7,1.3c-0.1,0.8,0.2,1.6,0.6,1.5c0.4,0,1.6-0.7,1.2-1.2c-0.4-0.5,0.3-2.3,0.3-1.7
							c0,0.6,0.8,1,1.3,0.9c0.5-0.1-0.5-1.6-1.2-1.7c-0.7-0.1-2.1,0-2.4,0.1c-0.3,0.1-2-0.4-2.8-0.2c-0.8,0.1-2,0.4-2.4,1.1
							c-0.4,0.7,0,2-0.1,2.5C179.2,31.9,179,33.4,179.9,33.4z M185.6,33.3c0.2,0.4,1.3,0,1.9-0.5c0.6-0.5,1.9-0.8,2.3-1.2
							c0.4-0.5,0.7-0.4,1.7-0.8c1-0.4,1.8-0.5,1.4-0.9c-0.4-0.4-2.5,0.1-2.8-0.1c-0.3-0.2-2.4,2-2.4,2s-1.8,0.7-1.9,0.9
							C185.7,33,185.3,32.7,185.6,33.3z M175.1,27c0,0.5,1,0.5,1.6,0.2c0.6-0.3,1.5-0.5,1.9-0.6c0.4-0.1,0.2,0.4,1.1,0.4
							c0.9,0,2,0.2,2.3,0.1c0.3-0.1,1.2-1.2,0.5-1.2c-0.7-0.1-1.8-0.6-2.4-1.1c-0.6-0.5-2,0.8-3.4,1.3
							C175.5,26.4,175.1,26.3,175.1,27z"/>
					</g>
					<g>
						<path fill="#00447C" enable-background="new    " d="M182.8,52.8c-0.1,0.9,0.9,0.6,2.1,0.6c1.2,0,3.4-0.2,3.8,0.2
							c0.4,0.4,2.2,1.1,2.8,1.5c0.5,0.3,2.1,0.4,2.2,0.1c0.1-0.3-1.1-1.3-1.8-1.2c-0.7,0.1-2.2-0.6-3.1-1.2c-0.8-0.6-2.4-0.6-3-0.6
							C185.3,52.2,182.8,52.8,182.8,52.8z"/>
					</g>
					<g>
						<path fill="#00447C" enable-background="new    " d="M190.3,50.3c-0.9,0.1-0.7,1.1,0.4,0.9C191.8,51,191.2,50.2,190.3,50.3z"
							/>
					</g>
					<g>
						<path fill="#00447C" enable-background="new    " d="M190.8,57.5c-0.9,0.1-0.7,1.7,0.4,1.4C192.3,58.7,191.7,57.4,190.8,57.5z
							"/>
					</g>
					<g>
						<path fill="#00447C" enable-background="new    " d="M204.3,56.6c-0.9,0.1-0.7,1.7,0.4,1.4C205.8,57.7,205.2,56.4,204.3,56.6z
							"/>
					</g>
					<g>
						<path fill="#00447C" enable-background="new    " d="M195,56.9c0,0,1.1,0.2,1.8,0.2c0.7,0,1.1,0.4,1.7,0.6
							c0.6,0.3,1.7-0.4,2.1-0.4c0.4,0,0.9,1.1,1-0.1c0.1-1.2-1.2-1.7-2-1.9c-0.8-0.2-1.7,0-2.4,0.1C196.7,55.6,195,56.9,195,56.9z"
							/>
					</g>
				</g>
				<g>
					<g>
						<path fill="#00447C" enable-background="new    " d="M251.5,38.6c0.3-0.2,1.7-0.5,2.4-0.8c0.7-0.3,3.2-1.1,3.6-1.1
							c0.4,0,5.1,0.2,5.7,0c0.6-0.3,2.2-0.7,3.4,1.2c1.2,1.9,0.3,1.2-0.4,1.6c-0.7,0.4,0.6,1.1,0.9,1.1c0.4,0,2,1.1,2.6,1
							c0.7,0,2.4,0.5,2.4,0.5c0,0,1.9,1,2.7,0.9c0.9-0.1,1.7,0.5,2.4-0.4c0.7-0.9,1.7-2,2.7-2c1,0.1,2.2,0.6,3.5,0.5
							c1.2-0.1,3.5-0.6,4-0.3c0.5,0.4-2.1,2.2-1.9,2.5c0.3,0.3,0.6,0.2,1.4-1c0.7-1.1,2.2-1.3,3.2-1.8c1.1-0.4,2,1,2.4,1.5
							c0.3,0.5,1.4,1.2,2.3,2.1c0.9,0.9,2,2.2,3,3.2c1,1,1.9,2.6,2.9,3.1c0.9,0.6,1.9,1.6,2.6,2.5c0.7,0.9,2.1,1.6,2.5,1.6
							c0.4,0,2.4,1.5,2.7,1.9c0.2,0.5-0.2,1.7,1.3,1.4c1.5-0.3,2.7-1.3,3.1-1.6c0.4-0.3,3.8-2.6,4.3-2.2c0.6,0.4,0,2.8,0,3.5
							c0,0.6-2,4.2-1.9,5c0.1,0.8-1.2,2.5-2.2,2.9c-1,0.4-2.6,3.3-3.2,4.2c-0.6,0.9-1.4,2.8-1.9,3.1c-0.5,0.3-0.3,2.1,0.1,2.3
							c0.4,0.3,0.6,2.3,1.6,2.8c1,0.5,1.4,0.9,1.1,1.6c-0.2,0.7,0.6,1.9,0.7,3c0.1,1.1-0.6,2.7-0.9,3.2c-0.3,0.4-2.5,1.4-3.1,2.4
							c-0.6,1-1,1.8-0.8,2.2c0.3,0.4,1.5,2.3,1.5,2.8c0,0.5-1.6,1.5-2.3,1.9c-0.7,0.5-0.1,1.1,0.2,1.7c0.3,0.6-0.9,2-1.4,2.6
							c-0.5,0.7-1.8,3-2.9,3.9c-1,0.9-2.3,1.7-3.5,1.8c-1.2,0.1-3.5,0.5-3.9,1c-0.4,0.5-1,0.5-2.1,0.2c-1-0.3-1.3-0.8-1.6-1.7
							c-0.3-0.9-0.7-1.4-0.7-1.4s-0.6-1.3-1.6-1.9c-1-0.5-1.5-1.2-2-1.7c-0.6-0.4-0.6-1.5-0.9-2.4c-0.3-0.9-1.2-2.2-1.8-2.7
							c-0.6-0.5-1.9-1.9-2.4-2.5c-0.5-0.5-1.3-1.6-1.6-3.3c-0.3-1.7,0.8-2.7,1.4-3.3c0.6-0.6-0.2-1.2-1.1-2.1
							c-0.9-0.9-0.6-2.6-1.3-3.2c-0.7-0.5-3.3-3.3-4.5-3.7c-1.2-0.4-1.3-0.5-1-1.8c0.3-1.2-0.6-2.3,0.2-3.2c0.8-0.8,0.2-1.3-1-1.7
							c-1.2-0.4-0.8-0.7-1.5,0c-0.7,0.7-1.8,1.1-2.5,0.6c-0.8-0.5-0.8-1.5-2.2-2.1c-1.4-0.6-2.7,0.4-3.2,0.6
							c-0.4,0.2-1.6,1.1-2.8,1.3c-1.3,0.2-2.3,0-3.6,0.1c-1.3,0.1-2.4,0.2-2.4,0.8c0,0.6-0.2,1-1.2,0.4c-1-0.6-3-2-3-2
							c0,0-2.7-1.7-3.4-2.8c-0.7-1.1-1.7-1.8-3.6-2.7c-1.9-0.9-1.1-1.8-1.5-2.7c-0.4-0.9-1.4-1.4-0.9-1.4c0.4-0.1,0.2-0.7,0.9-2
							c0.7-1.3-0.2-2.7-0.5-3.5c-0.3-0.8-1.5-2-0.8-3.1c0.6-1.2,1-3.7,1.6-4.4c0.6-0.7,2.1-1.6,3-2c0.9-0.4,0-1.6,0.3-3
							c0.2-1.4,0.9-1.9,1.2-1.9c0.3,0,1.1-0.8,2-1.4C249.2,38,251.2,38.7,251.5,38.6z"/>
					</g>
					<g>
						<path fill="#00447C" enable-background="new    " d="M263.1,32.8c-0.9,0-1,1.3-0.3,1.7c0.7,0.4,1.2,0.4,1.5-0.2
							C264.6,33.7,263.5,32.8,263.1,32.8z"/>
					</g>
					<g>
						<path fill="#00447C" enable-background="new    " d="M256.3,34c-0.1,0.3,0.8,0.5,0.9,0.1C257.4,33.8,256.7,33.1,256.3,34z"/>
					</g>
					<g>
						<path fill="#00447C" enable-background="new    " d="M267.8,35.7c-0.3,0.2,0.8,0.8,1.3,0.9c0.5,0.2,1,0.7,1.4,0.7
							c0.4,0.1,1.6-0.1,1-0.9c-0.6-0.8-1.4-0.8-1.7-0.8C269.5,35.6,268.2,35.4,267.8,35.7z"/>
					</g>
					<g>
						<path fill="#00447C" enable-background="new    " d="M241.8,15.3c-0.8,0-0.7,0.9-1.2,0.8c-0.5-0.1-1.1-0.1-0.8,0.7
							c0.3,0.7,0.7,1.3,0.3,1.5c-0.5,0.2,0.4,1.5,1.1,1.7c0.7,0.2,1.4-0.2,2-0.3c0.6-0.2,1.3-0.6,1.2-1.4c-0.2-0.9-0.5-1.7-0.9-2.1
							C243,15.6,242.3,15.3,241.8,15.3z"/>
					</g>
					<g>
						<path fill="#00447C" enable-background="new    " d="M242.2,12.6c-0.7,0.1-0.2,1.2,0.2,1.7c0.4,0.6,1.3,1.8,2.2,2.3
							c1,0.6,2.9,1.3,2.3,1.5c-0.6,0.3-1.7,1.1-1.7,1.6c-0.1,0.5,1.8,1.4,1.8,1.4c0,0-0.4,0.6,0.1,0.8c0.5,0.3,0.6-0.5,1.3-0.4
							c0.7,0.1,2.3,0.8,3,0.9c0.7,0.1,1.7-0.8,1.5-1.4c-0.2-0.6-1.4-1.8-2.3-2.3c-0.9-0.5-2.2-2.3-2.8-2.8c-0.6-0.5,0.3-1.2-0.5-2
							c-0.8-0.8-1.2-0.8-2-1.4c-0.8-0.6-1.3-0.2-1.6,0.3C243.4,13.4,242.7,12.6,242.2,12.6z"/>
					</g>
					<g>
						<path fill="#00447C" enable-background="new    " d="M272.3,7.8c-1.8,0.1,0.4,0.5-0.9,2.1c-1.3,1.5-2.5,0.5-3.5,1.5
							c-1.1,1-0.1,1.1,1.2,1.5c1.3,0.3,0.5,1.4,0.3,1.6c-0.2,0.3-1.4,1.2-1.1,1.9c0.4,0.7-0.7,1.1-0.7,1.1c0,0-3.3,0.6-4,0.7
							c-0.6,0.1-0.9-0.5-0.9-1c0.1-0.5-1.2-1.8-1.4-2.6c-0.3-0.8-1.4,0.2-1.4,0.8c0,0.5-1.7,0.5-2.8,0c-1.1-0.5-2-1.9-1.8-2.1
							c0.1-0.2-0.9-1.7-1-2.1c-0.1-0.4,1.6-1.5,3.3-1.7c1.7-0.2,3.5-2,4.5-2.8 M319.2,48.8c-1.3,0.7-1.4,1.4-2.4,1.9
							c-1.1,0.4-3.9,2.7-4.3,3c-0.4,0.4-2.8,1.7-3.6,1.7c-0.8-0.1-1.5-1.6-2.1-2.8c-0.6-1.2-1.1-1.7-1.5-2.1
							c-0.4-0.4-2.4-1.3-2.9-1.5c-0.4-0.2-1.9-1.9-2.2-2.7c-0.3-0.8-1.3-0.2-1.7-1.1c-0.4-0.8-1.8-1.8-2.1-2.4
							c-0.3-0.5-2.1,0.5-2.8,0.7c-0.7,0.2-2.3-0.1-2.5-1.4c-0.1-1.3,0.6-1.5,1.6-1.6c1-0.2,0.5-0.5,1.2-1.5c0.8-1,0.6-2.7,0.5-3.7
							c-0.2-1.1-0.8-0.4-1.5-0.1c-0.7,0.3-1.8,0.8-2.2,0.7c-0.4,0-2-0.2-2.3,0.1c-0.2,0.3-1.9,0.4-2.4,0c-0.5-0.4-2.5-0.6-2.8-0.9
							c-0.3-0.3-0.6-2.3-1.1-2.8c-0.5-0.5-1.2,0.2-1.6,0.6c-0.4,0.4-1.7,0.8-1.2,1c0.4,0.2,1.8,0.6,1.9,1.2c0.1,0.7-0.8,0.9-1.1,1.3
							c-0.4,0.4-1.2,1-1.6,0.6c-0.4-0.4-1.8-2.1-2.2-2.5c-0.4-0.3-1.4-1.1-1.9-1.8c-0.5-0.7-1.6-0.9-2.4-1.5
							c-0.8-0.6-2.9-1.4-3.9-2.1c-0.9-0.7-2.4-1.2-2.3-0.3c0.1,0.9,1.6,1,2.4,1.9c0.8,0.9,2.1,1.3,2.9,1.6c0.7,0.2,2.8,1.2,2.8,1.2
							c0,0-0.7,0.3-1.4,0.2c-0.7-0.1,0.2,1,0.2,1.6c0,0.6-0.6,0.6-1,0c-0.4-0.7-1.1-1.4-1.6-1.7c-0.4-0.2-3.1-0.9-3.5-1
							c-0.4-0.2-2.2-1.1-2.6-1.9c-0.4-0.8-1.8-0.9-2.1-0.7c-0.3,0.2-1.5,1.1-2.2,1.1c-0.6,0-1.8-0.5-2.5-0.7
							c-0.8-0.1-0.6,1.1-0.7,1.8c-0.1,0.7-1.4,0.1-1.9,0.7c-0.5,0.6-1.5,1.1-1.1,1.7c0.4,0.6,0.9,0.6,0.1,1c-0.7,0.4-1,1.3-1.8,1.3
							c-0.8,0-1.8,0.3-2.3,0c-0.5-0.3-0.6,0.8-0.8,1.1c-0.2,0.3-0.9-0.9-1.5-1.4c-0.6-0.5-1.6-0.3-2-0.4c-0.4-0.1-0.9-1-1.4-1.5
							c-0.5-0.4-0.6-1.3-0.3-1.5c0.3-0.2,0.6-0.7,0.1-1.6c-0.4-0.9-1-2.8-0.2-3.1c0.8-0.2,3,0.5,4.1,0.6c1.1,0.1,3,0.7,3.2,0.2
							c0.3-0.8,0.3-1.7,0-2.5c-0.3-0.8-2.2-1.8-3.5-2.2c-1.2-0.4-1.1-0.9,0.1-0.8c1.2,0.1,1.1-0.4,2.1-0.4c1,0,2.1-0.2,2.9-0.2
							c0.8,0,0.6-0.7,0.5-1.3c-0.1-0.5,2.1-0.5,2.1-0.5c0,0,1-1,1.6-1.5c0.6-0.5,1.9-0.3,3,0.1c1.1,0.3-0.2-0.6-0.7-1.1
							c-0.5-0.5-0.4-1.4-0.3-1.9c0.2-0.5,1.8-0.6,2.3-0.4c0.5,0.2,0.2,1,0.5,1.7c0.3,0.7,1.1,1.2,1.1,1.2c0.2,0,0.5,0,0.7-0.1
							c0,0,0,0,1.2,0c1.2,0,1,0.7,1.9,0.5c0.9-0.2,1.9-0.6,2.3-0.8c0.3-0.2,1.4-0.2,2.9,0.2c1.5,0.4,0.5-0.8,0.6-1.5
							c0.1-0.7,0.4-1.9,1.4-1.8c1,0.1,1.9,0.5,2.5,0.1c0.7-0.5-1.7-0.9-1.8-1.2c-0.1-0.3,1.8-0.3,3.4-0.5 M284.6,32.2
							c0.3,0.3,1-0.6,1.8-0.8c0.8-0.1,2.6-0.1,2.9-0.8c0.3-0.6,1.9-1,3.1-1.1c1.3-0.1,2.5,0.4,3.4,0.3c0.9-0.1,3.1-0.8,3.9-1.1
							c0.7-0.3,0.3-1.4-1.1-1.7c-1.4-0.3-2.7-0.9-3.9-1c-1.2-0.1-1.7-0.3-1.1-0.6c0.6-0.3,1.3-1.1,0.4-0.9c-1,0.2-1.8,0.6-1.8,1
							c0,0.4-0.5,1-0.8,1.2c-0.3,0.2-1.1,1-1.6,0.6c-0.4-0.4-1.8-1.7-2.3-1.7c-0.5,0-1.3,0.2-1.6,1.1c-0.4,0.9-0.8,1.8-1.3,2.2
							c-0.5,0.4-1,1.5-0.4,1.6C284.8,30.6,284.6,32.2,284.6,32.2z"/>
					</g>
				</g>
			</g>
		</g>
		<path opacity="0.2" fill="#FFFFFF" d="M246.3,23.1c25.3,0.1,44.3,9.5,57.8,23.1c-7-22.4-35.9-40.4-71.6-40.4
			C191.2,5.7,158,29.3,159,57.4c0.4,11,4.9,19.8,13.7,29c-1.1-3.6-1.5-6.6-1.5-10.4C171.3,46.6,207.5,23,246.3,23.1z"/>
	</g>
</g>
</svg>
