<svg id="Layer_1" xmlns="http://www.w3.org/2000/svg" viewBox="0 0 184 67.9"><style>.st0{fill:#FFFFFF;} .st1{fill:#ED305D;}</style><path class="st0" d="M64.8 19.5c-.4-.9-.9-1.8-1.4-2.7-.4-.7-.8-1.4-1.3-2-.5-.8-1.1-1.5-1.6-2.2 0 .1.1.2.1.4.3.5 1.6 3.4 4.2 6.5M.2 33.8v.8c0 1.2.1 2.3.3 3.5.1 1.1.3 2.3.6 3.4 0-3.4-.3-6.9-.8-10.5-.1.9-.1 1.9-.1 2.8m9-23c-.3.3-.6.7-.9 1-.2.5-.3 1-.5 1.6-1.4 5.4-1 10.4-.4 14.4 1.8 11 1.3 20.7 0 26-.1.3-.1.5-.2.8.1.2.3.3.4.5.1-.2.1-.5.2-.7.5-1.8.8-4 1-6.6.5-6 .2-13.1-1-19.9-.7-4.2-1.1-9.6.7-15.3.3-.8.5-1.3.7-1.8m58.1 23.5C56 28.8 51.5 17.8 51 16.5 48.4 8.3 39.5 3.7 31.3 6.2c-4 1.2-7.4 4-9.3 7.7-2.1 4-1.8 8.4-1.2 11.7 2 12.2 2.3 28.2-2.5 37.4l-.3.6c.1.1.3.2.4.2l.3-.6c4.8-9.4 4.5-25.4 2.5-37.7-.5-3.3-.9-7.5 1.2-11.4 1.9-3.6 5.1-6.3 9-7.5 8-2.5 16.5 2 19.1 9.9.5 1.4 5.1 12.7 16.8 18.2l.6.3v-.6c-.2.1-.4 0-.6-.1M43.5 19c-1.3-4.2-5.7-6.5-9.9-5.2-2 .6-3.7 2-4.7 3.9s-1.2 4-.6 6c.3 1 7.2 22.6 30.1 32.7l.6.3c.1-.1.2-.3.4-.4l-.6-.3C36 46 29.1 24.5 28.8 23.6c-.6-1.9-.4-3.9.5-5.6.9-1.8 2.5-3 4.4-3.6 3.9-1.2 8.1 1 9.3 4.9.1.2 5.8 16.9 23 23.7.2.1.4.1.6.2 0-.2.1-.3.1-.5-.2-.1-.4-.1-.6-.2C49.2 35.6 43.6 19.2 43.5 19m-4.8 46.2c-1.5.3-2.9.9-4 1.9-.2.2-.5.4-.7.6h.7c.2-.2.5-.4.8-.6.9-.7 2-1.1 3.2-1.4 1.3-.2 2.6-.1 3.8.3.3.1.6.2.9.4.2-.1.5-.1.7-.2-.3-.2-.5-.3-.8-.4-1.3-.7-2.9-.9-4.6-.6m2.4-45.4c-.9-2.8-3.9-4.4-6.7-3.5-1.4.4-2.5 1.4-3.2 2.6-.7 1.3-.8 2.7-.4 4.1.3.9 7 21.9 29.4 31.4.2.1.4.2.6.2.1-.1.2-.3.3-.4-.2-.1-.4-.2-.6-.2-22.3-9.3-29-30.2-29.2-31.1-.4-1.2-.3-2.6.3-3.7s1.6-2 2.9-2.4c2.6-.8 5.3.6 6.1 3.2.1.2 6 18.1 24.7 25.4.2.1.4.1.6.2.1-.2.1-.3.2-.5-.2-.1-.4-.1-.6-.2C47 37.6 41.1 20 41.1 19.8M28.4 55.4c0 .1.1.1.2.1h.1c2.4-1.5 5-2.5 7.9-3.1 2.1-.4 4.1-.5 6.1-.2.1 0 .3-.1.3-.2s-.1-.3-.2-.3c-2-.2-4.1-.1-6.2.2-2.9.5-5.6 1.6-8 3.1-.3.2-.3.3-.2.4m1-3.7c.1.1.1.1.2.1s.1 0 .2-.1c2.2-1.6 5.9-2.8 9.6-2 .1 0 .2 0 .3-.1.1-.1 0-.2-.1-.3 0 0-4.7-3.8-9.6-11.6-.1-.1-.2-.2-.4-.1-.1.1-.2.2-.1.4 3.8 6.1 7.5 9.8 9 11.2-3.5-.5-7 .7-9.1 2.2v.3m16.5-33.5c-1.7-5.5-7.6-8.6-13.1-6.9-2.7.8-4.9 2.6-6.2 5.1-1.3 2.5-1.6 5.3-.8 8 .3 1 7.4 23.1 30.6 33.8l.6.3.4-.4-.6-.3C33.7 47.3 26.7 25.3 26.4 24.3c-.8-2.5-.5-5.2.7-7.6 1.2-2.4 3.3-4.1 5.9-4.9 5.2-1.6 10.8 1.3 12.4 6.6.2.7 5.7 15.6 21.2 22 .2.1.4.2.6.2 0-.2.1-.3.1-.5-.2-.1-.4-.2-.6-.2-15.2-6.3-20.5-21-20.8-21.7M29.8 48.8h.2s2.1-1.1 3.6-1.2c.1 0 .2-.1.2-.2v-.3L32 45c-.1-.1-.3-.1-.4 0-.1.1-.1.3 0 .4l1.5 1.8c-1.1.2-2.3.7-2.9 1 .3-2.2.1-4.9.1-5 0-.1-.1-.3-.3-.2-.1 0-.2.1-.2.3 0 0 .2 3.1-.2 5.4.1-.1.1 0 .2.1m7.5 8.5c-5.2.9-9.4 4.1-11.7 8.7l-.3.6c.2 0 .3.1.5.1l.3-.6c2.3-4.3 6.3-7.4 11.3-8.3 5.2-.9 10.1.7 13.9 4.4.2.1.3.3.4.5.1-.1.3-.2.4-.3-.1-.2-.3-.3-.4-.5-3.9-3.8-9-5.6-14.4-4.6m.5 2.6c-4.1.7-7.4 3.2-9.4 6.7l-.3.6c.2 0 .4.1.5.1l.3-.6c2-3.3 5.1-5.5 9-6.2 4-.7 7.8.5 11 3.2.2.1.3.3.5.5.2-.1.3-.2.5-.2l-.5-.5c-3.3-3.1-7.4-4.4-11.6-3.6m.5 2.6c-2.9.5-5.3 2.1-7 4.4-.1.2-.3.4-.4.6h.6c.1-.2.3-.4.4-.6 1.6-2.1 3.8-3.5 6.5-4 2.8-.5 5.5.1 7.7 1.8.2.1.4.3.6.4.2-.1.4-.1.6-.2-.2-.2-.4-.3-.6-.5-2.5-1.7-5.4-2.4-8.4-1.9m.3-42c-.5-1.5-2-2.3-3.5-1.9-.7.2-1.3.7-1.7 1.4-.4.7-.4 1.4-.2 2.1.3.9 6.7 21.1 28.5 30 .2.1.4.2.6.2.1-.1.2-.3.3-.4-.2-.1-.4-.2-.6-.2C40.4 43 34 22.9 33.7 22.1c-.2-.6-.1-1.2.2-1.8.3-.5.8-.9 1.4-1.1 1.2-.4 2.5.3 2.9 1.5.1.2 6.2 19.2 26.1 27 .2.1.4.2.6.2.1-.2.1-.3.2-.5-.2-.1-.4-.1-.6-.2-19.7-7.7-25.8-26.5-25.9-26.7m-1.8 34.2c-6.3 1.1-11.2 5-13.8 10.5.1 0 .1 0 .2.1-.1 0-.1 0-.2-.1-.1.2-.2.4-.2.6.2.1.3.1.5.2.1-.2.2-.4.2-.6 2.6-5.3 7.4-9.1 13.4-10.2 6.3-1.1 12.2.9 16.7 5.6.1.2.3.3.4.5.1-.1.3-.2.4-.3-.1-.2-.3-.3-.4-.5-4.6-4.9-10.7-7-17.2-5.8m-.6-33.4c0-.1-.2-.2-.3-.2-.1 0-.2.2-.2.3.3.9 6.4 20.2 27.4 28.6.2.1.4.2.6.2.1-.1.2-.3.2-.4-.2-.1-.4-.2-.6-.2-20.6-8.3-27.1-28.1-27.1-28.3m-22.9 5.6c-.7-4.5-1.2-10.4 2-16.4 1.5-3 3.6-5.5 6.1-7.5.6-.5 1.3-1 2-1.4-.6.2-1.3.4-1.9.7-.6.4-1.2.9-1.7 1.4-2 1.8-3.6 4-4.9 6.4-3.2 6.1-2.8 12.2-2.1 16.7 1.8 11 1.8 24.5-1.1 31.4l-.3.6c.1.1.3.2.4.3l.3-.6c2.9-6.9 3-20.5 1.2-31.6m44.8-13c.3.8 2.8 6.3 7.9 10.6.3.2.6.4.8.7-.1-.3-.2-.6-.2-.8-.3-.2-.6-.5-.9-.7-4.6-4.1-6.8-9.1-7.1-9.8-.5-1.6-1.2-3-2-4.4-.4-.7-.8-1.3-1.2-1.9-.5-.4-1.1-.8-1.6-1.2.5.6 1 1.2 1.5 1.9 1.1 1.5 2.1 3.5 2.8 5.6m-56 10.6c0-.6-.1-1.1-.1-1.7-.2.4-.3.9-.4 1.3 0 .6.1 1.2.2 1.8.1 1 .2 1.9.4 2.8 1 5.9 1.3 12 1 17.3 0 .3 0 .7-.1 1v.4c.1.3.3.6.4.9 0-.4.1-.8.1-1.3v-.1c.4-5.5.1-12-1-18.3-.2-1.3-.3-2.7-.5-4.1m8.5 2.8c-.8-4.9-1.3-11.4 2.3-18.1.3-.6.7-1.3 1.1-1.9.3-.5.7-1 1.1-1.5-.4.3-.8.6-1.3.9l-.9 1.5c-.1.2-.3.5-.4.7-3.6 6.8-3.1 13.4-2.3 18.4 1.8 11.4 1.5 22.9-.5 28.9-.1.2-.2.4-.2.7.1.1.2.3.4.4.1-.2.2-.4.2-.6 2-6.1 2.4-17.9.5-29.4M4.8 18c0-.5.1-1 .2-1.6-.2.4-.4.8-.7 1.1-.1.5-.1 1.1-.1 1.6-.2 3.3.2 6.4.6 9.1 1.1 6.5 1.4 13.2.9 18.9-.1 1.3-.2 2.4-.4 3.4-.1.3-.1.7-.2 1 .1.2.3.4.4.6.1-.3.1-.6.2-.9.2-1.1.4-2.5.5-4.1.4-5.7.1-12.5-1-19.1-.4-2.8-.7-6.2-.4-10m20.9 40.1c.2 0 .3-.1.3-.2 2.9-8.8 1.3-25.2 1.3-25.3 0-.1-.1-.2-.3-.2-.1 0-.2.1-.2.3 0 .2 1.6 16.4-1.2 25.1-.1.1 0 .3.1.3m-9.8-31.7c-.7-4.1-1.1-9.5 1.7-14.7 2.6-4.9 6.9-8.5 12.2-10.1C40.5-1.7 52 4.2 55.6 14.8c.4 1 3.7 8.8 11.3 13.6.2.1.5.3.7.4 0-.2-.1-.4-.1-.7-.2-.2-.5-.3-.7-.5-7.2-4.6-10.3-12-10.7-12.9-1.8-5.3-5.5-9.4-10-11.9C41.7.4 36.6-.4 31.5.7c-.6.1-1.2.3-1.7.4-5.4 1.7-9.9 5.3-12.5 10.4-2.9 5.4-2.5 10.9-1.8 15.1 2.3 13.9 1.5 26.8-1.7 33.6l-.3.6c.1.1.3.2.4.3l.3-.6c3.2-7 4-20 1.7-34.1m32.6-9C46.3 10.5 39 6.7 32.1 8.8c-3.4 1-6.1 3.3-7.8 6.4-1.7 3.3-1.5 6.9-1 10 .8 4.7 3.8 26.4-2.7 39l-.3.6c.2.1.3.1.5.2l.3-.6c6.5-12.8 3.5-34.5 2.7-39.3-.5-3-.8-6.5.9-9.7 1.6-3 4.2-5.2 7.5-6.2 6.6-2 13.7 1.7 15.8 8.3.2.6 5.4 14.2 19.1 20.1l.6.3c0-.2 0-.4.1-.5l-.6-.3C53.8 31.2 48.7 18 48.5 17.4M18.6 26c-.6-3.7-1-8.5 1.5-13.1 2.3-4.3 6-7.4 10.6-8.8C40 1.3 50 6.5 53.1 15.8c.5 1.2 4.5 10.9 14.2 16 .2.1.4.2.7.3v-.6c-.2-.1-.4-.2-.7-.3-9.4-5.1-13.3-14.5-13.8-15.6C50.4 6 40.1.7 30.5 3.7c-4.7 1.5-8.6 4.7-10.9 9-2.5 4.7-2.1 9.6-1.5 13.4 2 12.6 2 27.4-2.1 35.6l-.3.6c.1.1.3.2.4.3l.3-.6c4.1-8.4 4.2-23.3 2.2-36"/><path class="st0" d="M34.1 67.9h-.4l.3-.3.7-.7c1.2-1 2.5-1.7 4.1-1.9 1.7-.3 3.3-.1 4.8.6.3.1.6.3.8.4l.3.2-.4.1c-.2 0-.3.1-.5.1l-.3.1h-.1c-.3-.1-.6-.3-.9-.4-1.2-.4-2.4-.5-3.7-.3-1.2.2-2.2.7-3.1 1.3-.3.2-.6.4-.8.6h-.3c-.2.2-.3.2-.5.2zm6.1-2.7c-.5 0-1 0-1.4.1-1.5.3-2.8.9-3.9 1.9-.1.1-.2.2-.4.3h.2c.2-.2.5-.4.8-.6 1-.7 2.1-1.2 3.3-1.4 1.3-.2 2.6-.1 3.9.3.3.1.6.2.9.4l.2-.1h.1c-.1-.1-.3-.1-.4-.2-1.2-.5-2.2-.7-3.3-.7zm-8.6 2.6h-1l.2-.2c.1-.2.3-.4.4-.6 1.7-2.4 4.2-4 7.1-4.5 3-.5 6 .2 8.5 2.1.2.1.4.3.6.5l.2.2-.3.1c-.1 0-.2.1-.4.1l-.3.1-.1-.1c-.2-.2-.4-.3-.6-.4-1.8-1.3-3.7-1.9-5.8-1.9-.6 0-1.2.1-1.8.2-2.6.5-4.8 1.8-6.4 3.9 0 0-.1.2-.3.5zm-.4-.4h.2c.1-.2.2-.4.4-.5 1.7-2.2 3.9-3.5 6.6-4 .6-.1 1.3-.2 1.9-.2 2.1 0 4.2.7 6 2 .2.1.3.3.5.4h.2l-.3-.3c-1.9-1.5-4.1-2.2-6.4-2.2-.6 0-1.3.1-1.9.2-2.8.5-5.2 2-6.9 4.3l-.3.3zm-2.5 0h-.1c-.1 0-.3 0-.4-.1l-.4-.1.1-.2c.1-.2.2-.3.3-.4l.1-.1c2.1-3.6 5.5-6 9.6-6.7.8-.1 1.6-.2 2.4-.2 3.4 0 6.6 1.3 9.3 3.7l.1.1c.1.1.3.2.4.4l.2.2-.8.4-.1-.1c-.2-.2-.3-.3-.5-.4-2.5-2.2-5.5-3.4-8.5-3.4-.8 0-1.5.1-2.3.2-3.7.7-6.9 2.9-8.9 6.2l-.3.6-.2-.1zm-.4-.4h.2c.1-.2.2-.3.3-.5 2-3.4 5.3-5.6 9.1-6.3.8-.1 1.6-.2 2.3-.2 3.2 0 6.2 1.2 8.8 3.4.1.1.3.2.4.4l.2-.1-.2-.2-.1-.1c-2.6-2.4-5.7-3.6-9-3.6-.8 0-1.6.1-2.4.2-4 .7-7.3 3-9.3 6.6l-.1.1c-.1.2-.2.2-.2.3zm-2.4-.1h-.1c-.2 0-.3-.1-.5-.1l-.2-.1.1-.2.3-.6c2.4-4.7 6.7-7.8 11.8-8.8 1-.2 2-.3 3-.3 4.3 0 8.4 1.7 11.6 5l.5.5.1.2-.3.2c-.1.1-.2.1-.3.2l-.1.1-.1-.1c-.1-.2-.3-.3-.4-.5-3.1-3-6.9-4.7-11-4.7-.9 0-1.9.1-2.8.3-4.9.9-8.8 3.8-11.2 8.2l-.3.6-.1.1zm-.3-.5h.2c.1-.2.1-.3.2-.5 2.4-4.5 6.4-7.5 11.4-8.4 1-.2 1.9-.3 2.9-.3 4.2 0 8 1.6 11.2 4.8l.4.4.1-.1-.3-.3c-3.2-3.2-7.2-4.9-11.4-4.9-1 0-1.9.1-2.9.3-5.1.9-9.2 4-11.6 8.6-.1.2-.2.3-.2.4zm-2.3-.3L23 66c-.1 0-.2-.1-.3-.1l-.2-.1.1-.2.3-.6.1-.1c2.8-5.6 7.8-9.4 13.9-10.5 1.2-.2 2.3-.3 3.5-.3 5.2 0 10 2.1 13.8 6.1.1.2.3.3.4.5l.1.1-.2.2c-.1.1-.2.1-.2.2l-.3.2-.1-.1c-.1-.2-.3-.3-.4-.5C49.8 57 45.2 55 40.3 55c-1.1 0-2.2.1-3.3.3-5.8 1.1-10.7 4.7-13.3 10.1l-.1.1c-.1.1-.1.3-.2.4l-.1.2zm-.3-.5h.1c.1-.1.1-.3.2-.4l.1-.2c2.7-5.4 7.6-9.1 13.5-10.1 1.1-.2 2.3-.3 3.4-.3 5 0 9.7 2 13.4 5.9.1.1.2.2.3.4 0 0 .1 0 .1-.1l-.3-.3c-3.8-3.9-8.5-6-13.6-6-1.1 0-2.3.1-3.4.3-6 1.1-10.9 4.8-13.6 10.2l-.1.3H23c.1.2 0 .3 0 .3zm-2.1-.4l-.1-.1c-.1 0-.2-.1-.3-.1l-.4-.2.1-.2c.1-.2.2-.4.3-.5 6.5-12.7 3.4-34.6 2.7-38.9-.5-3.1-.8-6.8 1-10.1 1.7-3.2 4.5-5.5 7.9-6.5 1.2-.4 2.5-.6 3.8-.6 5.8 0 11 3.7 12.7 9.3.2.6 5.3 13.8 18.6 19.7.2.1.4.2.5.2l.2.1v.4l-.1.4-.2-.1-.6-.3c-13.8-6-19-19.7-19.2-20.2-1.7-5.2-6.5-8.7-11.9-8.7-1.2 0-2.5.2-3.6.6-3.2 1-5.8 3.1-7.4 6.1-1.6 3.1-1.4 6.6-.9 9.6.7 4.3 3.8 26.5-2.7 39.4l-.3.6-.1.1zm-.3-.5c.1 0 .1 0 .1.1.1-.1.1-.3.2-.4 6.5-12.9 3.4-34.9 2.7-39.2-.5-3-.8-6.6.9-9.8 1.6-3 4.3-5.3 7.6-6.3 1.2-.4 2.5-.6 3.8-.6 5.6 0 10.5 3.6 12.2 8.9.2.6 5.3 14.1 19 20 .1.1.3.1.4.2v-.2c-.2-.1-.3-.1-.5-.2C53.6 31.4 48.5 18 48.3 17.4c-1.7-5.4-6.7-9-12.4-9-1.3 0-2.6.2-3.8.6-3.3 1-6 3.3-7.7 6.3-1.7 3.2-1.4 6.8-.9 9.9.7 4.3 3.8 26.3-2.7 39.1 0 .2-.1.3-.2.4zm-2.1-.6l-.3-.2c-.1 0-.2-.1-.3-.1l-.2-.1.1-.2c.1-.2.2-.4.3-.5 4.7-9.3 4.4-25.4 2.4-37.3-.5-3.4-.9-7.8 1.2-11.8 2-3.8 5.4-6.6 9.5-7.8 1.5-.5 3.1-.7 4.7-.7 7 0 13.1 4.5 15.3 11.1.5 1.2 4.9 12.2 16.2 17.7l.1.1c.2.1.3.2.5.2h.1v1l-.2-.1c-.2-.1-.3-.1-.4-.2l-.3-.2c-11.7-5.5-16.4-17-16.9-18.3-2-6.3-7.9-10.5-14.5-10.5-1.5 0-3 .2-4.4.7-3.9 1.2-7 3.8-8.9 7.4-2 3.8-1.7 8-1.2 11.3 1.9 12.1 2.3 28.3-2.5 37.8l-.3.6v.1zm-.3-.6c0 .1.1.1 0 0l.1.1c.1-.1.1-.3.2-.4 4.8-9.4 4.4-25.6 2.5-37.6-.5-3.3-.9-7.6 1.2-11.5 1.9-3.7 5.2-6.4 9.2-7.6 1.5-.5 3-.7 4.5-.7 6.8 0 12.7 4.3 14.8 10.7.5 1.3 5.1 12.6 16.7 18.1l.2.1c.1 0 .1.1.2.1v-.1c-.1-.1-.3-.1-.4-.2l-.1-.1c-11.4-5.5-15.9-16.6-16.4-17.9C48.8 10 42.8 5.7 36 5.7c-1.5 0-3.1.2-4.6.7-4 1.2-7.3 3.9-9.2 7.6-2.1 4-1.7 8.3-1.2 11.6 1.9 12 2.3 28.1-2.5 37.5-.2.2-.2.3-.3.4zm-2.1-.7l-.1-.1c-.1-.1-.2-.1-.3-.2l-.3-.2.1-.1.3-.6c4.4-8.7 3.9-24.6 2.1-35.5-.6-3.8-1-8.7 1.5-13.5 2.3-4.4 6.3-7.7 11-9.1 1.8-.5 3.6-.8 5.4-.8 8.1 0 15.3 5.2 17.8 12.9.4 1 4.3 10.4 13.6 15.5l.6.3h.1v1l-.3-.1c-.2-.1-.4-.2-.5-.3l-.1-.1c-9.8-5.2-13.9-15-14.3-16.1-2.4-7.4-9.3-12.3-17-12.3-1.8 0-3.5.3-5.2.8C25.9 5.7 22.2 8.8 20 13c-2.4 4.5-2 9.3-1.4 12.9 2.9 17.6.7 30.2-2.2 36.1l-.3.6v.2zm-.2-.6l.1.1c.1-.1.1-.3.2-.4 4.5-8.9 4-24.9 2.2-35.9-.6-3.7-1-8.5 1.5-13.2 2.3-4.3 6.1-7.5 10.7-8.9 1.7-.5 3.5-.8 5.3-.8 7.9 0 14.9 5 17.3 12.5.4 1.1 4.4 10.8 14.1 15.9l.1.1c.1 0 .2.1.3.1v-.2l-.6-.3C57.7 26 53.8 16.6 53.3 15.5 50.9 8.1 43.9 3 35.9 3c-1.8 0-3.6.3-5.3.8-4.7 1.4-8.5 4.6-10.8 9-2.5 4.7-2.1 9.5-1.5 13.3 2.8 17.5.7 29.9-2.2 35.7-.1.1-.1.2-.2.4zm-2-1l-.2-.1c-.1-.1-.2-.1-.2-.2l-.3-.2.1-.1.3-.6c3.2-6.9 3.9-19.7 1.7-33.5-.7-4.2-1.1-9.7 1.8-15.2C19.8 6.2 24.3 2.5 29.7.9c.5-.2 1.1-.3 1.7-.5C36.3-.7 41.6.1 46.1 2.5c4.8 2.6 8.4 6.9 10.1 12 .3.8 3.5 8.3 10.6 13 .2.2.5.3.7.5h.1v.2c0 .2.1.4.1.6l.1.4-.3-.2c-.2-.1-.5-.3-.7-.4-7.7-4.9-11-12.8-11.4-13.7C52.6 6.5 44.8.8 35.9.8c-2 0-4 .3-6 .9-5.2 1.6-9.5 5.2-12.1 10-2.8 5.3-2.4 10.6-1.7 14.7 2.3 13.9 1.6 27-1.8 34.1l-.3.6-.1.1zm-.2-.6l.1.1c.1-.1.1-.2.2-.4 3.3-7 4-20 1.8-33.9-.7-4.1-1.1-9.5 1.8-14.9 2.6-4.9 7-8.6 12.3-10.2 2-.6 4-.9 6.1-.9 9 0 17 5.7 19.9 14.3.3.9 3.7 8.7 11.2 13.5.1.1.2.2.4.2v-.2c-.2-.1-.4-.3-.7-.4C59.6 23 56.4 15.4 56 14.6c-1.7-5.1-5.2-9.2-10-11.8C41.6.4 36.4-.3 31.5.7c-.6.1-1.2.3-1.7.4-5.4 1.8-9.8 5.5-12.5 10.4-2.8 5.4-2.4 10.8-1.8 15 2.2 13.8 1.6 26.7-1.7 33.7 0 .1-.1.3-.1.4zm-1.9-1l-.3-.3c-.1-.1-.2-.1-.2-.2l-.2-.1.1-.1.3-.6C14.6 51 14.2 37 12.6 27c-.7-4.6-1.2-10.7 2.1-16.9 1.3-2.4 3-4.6 5-6.5.5-.5 1.1-1 1.7-1.4.6-.3 1.3-.5 1.9-.7l1.4-.5-1.2.8c-.7.4-1.3.9-1.9 1.4-2.5 2-4.6 4.5-6.1 7.3-3.1 5.9-2.7 11.8-2 16.3 1.6 10.2 2 24.5-1.2 31.9l-.3.6-.2.3zm-.2-.7l.1.1c.1-.1.1-.2.2-.4 3.2-7.4 2.9-21.6 1.2-31.7-.7-4.5-1.2-10.5 2-16.5C16.6 7.5 18.7 5 21.3 3c.3-.2.6-.4.8-.6-.2.1-.4.2-.6.2-.6.4-1.2.9-1.7 1.4-2 1.8-3.6 4-4.9 6.4-3.2 6.1-2.8 12.1-2 16.6 1.6 10 2 24.2-1.1 31.5-.1.1-.2.2-.2.4zm45.6-.1h-.1c-.2-.1-.3-.2-.5-.2h-.1c-23.4-10.8-30.4-33-30.7-34-.8-2.7-.6-5.6.8-8.1 1.3-2.5 3.6-4.4 6.3-5.2 1-.3 2.1-.5 3.1-.5 4.7 0 8.8 3 10.2 7.5.2.6 5.6 15.3 20.7 21.5l.2.1c.1.1.3.1.4.2l.1.1V40.5c0 .1 0 .2-.1.3v.2l-.2-.1c-.2-.1-.3-.1-.5-.2h-.1C51 34.2 45.5 19.1 45.3 18.5c-1.3-4.1-5.1-6.9-9.4-6.9-1 0-1.9.1-2.9.4-2.5.8-4.6 2.5-5.8 4.8-1.2 2.3-1.5 5-.7 7.5.3.9 7.3 23 30.4 33.5l.6.3.3.1-.2.2-.4.4zM35.9 11.1c-1 0-2 .2-3 .5-2.6.8-4.8 2.6-6.1 5-1.3 2.4-1.6 5.2-.7 7.9.3.9 7.3 23.1 30.5 33.7h.1c.1.1.3.1.4.2l.1-.1c-.1-.1-.3-.1-.4-.2-23.2-10.6-30.3-32.8-30.6-33.7-.8-2.6-.5-5.3.7-7.7 1.3-2.4 3.4-4.2 6-5 1-.3 2-.5 3-.5 4.5 0 8.4 2.9 9.7 7.1.2.6 5.7 15.6 21.1 21.9h.1c.1 0 .2.1.3.1v-.1-.1c-.1 0-.2-.1-.3-.1l-.2-.1c-15.2-6.2-20.6-21-20.8-21.6-1.4-4.3-5.3-7.2-9.9-7.2zM25.8 58.3h-.1c-.1 0-.2-.1-.2-.2-.1-.1-.1-.2 0-.3 2.9-8.6 1.3-24.9 1.2-25 0-.2.1-.4.4-.5.2 0 .4.2.4.4s1.7 16.5-1.3 25.4c-.1.1-.2.2-.4.2zM27 32.6s-.1 0 0 0c-.1.3 1.5 16.6-1.3 25.3v.1s.1 0 .1-.1c3-8.8 1.3-25.1 1.2-25.3.1 0 .1 0 0 0zm-17.2 25l-.3-.3-.3-.3h-.1v-.1c.1-.2.2-.4.2-.6 2.1-6.2 2.3-17.7.5-28.8-.8-5-1.3-11.7 2.4-18.5l.3-.6.1-.2c.4-.7.7-1.2 1-1.6.4-.3.8-.6 1.3-.9l.9-.7-.6.8c-.3.5-.7 1-1 1.5-.5.7-.8 1.4-1.2 2-3.5 6.6-3.1 13.1-2.3 18 1.8 11.3 1.6 23.2-.7 29.5-.1.2-.2.4-.2.7v.1zm-.3-.7l.1.1c0-.1.1-.3.1-.4 2.2-6.2 2.5-18 .7-29.3-.8-4.9-1.3-11.5 2.3-18.2.3-.6.7-1.2 1.1-1.9.2-.2.4-.5.5-.7-.1.1-.3.2-.4.3-.3.4-.6.9-.9 1.5l-.1.2-.3.6C9 15.8 9.5 22.4 10.3 27.3c1.8 11.1 1.6 22.8-.5 29l-.3.6zm49.6 0H59c-.1-.1-.3-.1-.4-.2l-.2-.1c-23-10.1-29.9-31.9-30.2-32.8-.6-2.1-.4-4.3.6-6.2 1-1.9 2.7-3.3 4.8-4 .8-.2 1.6-.4 2.4-.4 3.6 0 6.7 2.3 7.7 5.7.1.2 5.7 16.5 22.6 23.3.1 0 .2.1.4.1l.4.1-.2.8-.4-.2c-.1 0-.2-.1-.3-.1C48.9 36 43.1 19.2 43.1 19.1c-.9-3.1-3.7-5.1-6.9-5.1-.7 0-1.4.1-2.1.3-2.1.7-3.7 2-4.6 3.7-.9 1.7-1.1 3.7-.5 5.5.3.9 7.1 22.4 29.9 32.3l.8.4-.3.3c0 .1-.1.2-.3.4zM35.9 13.6c-.8 0-1.5.1-2.3.3-2 .6-3.6 2-4.6 3.8-1 1.8-1.2 3.9-.6 5.9.3.9 7.2 22.5 30 32.6l.2.1c.1 0 .2.1.3.1l.1-.1-.4-.2C35.8 46.1 29 24.5 28.7 23.6c-.6-1.9-.4-4 .5-5.8.9-1.8 2.5-3.1 4.5-3.7.7-.2 1.5-.3 2.2-.3 3.3 0 6.3 2.2 7.3 5.4.1.2 5.7 16.8 22.9 23.6.1 0 .2.1.3.1h.1v-.2h-.1c-.1 0-.3-.1-.4-.1-17-6.8-22.7-23.3-22.8-23.5-.9-3.3-3.8-5.5-7.3-5.5zm-7.3 42.1c-.1 0-.3-.1-.4-.2-.1-.2-.1-.5.1-.6 2.4-1.6 5.2-2.6 8.1-3.2 2.1-.4 4.2-.5 6.3-.2.2 0 .4.2.4.5 0 .2-.2.4-.4.4-.8-.1-1.5-.1-2.2-.1-1.3 0-2.6.1-3.9.4-2.8.5-5.5 1.5-7.8 3h-.2zm11.9-3.9c-1.3 0-2.6.1-4 .4-2.9.5-5.6 1.6-8 3.1v.1c0 .1.1 0 .1 0 2.4-1.5 5-2.6 7.9-3.1 2.1-.4 4.1-.5 6.2-.2 0 0 .1 0 .1-.1 0 0 0-.1-.1-.1-.7-.1-1.5-.1-2.2-.1zM7.7 55.4l-.2-.3c-.1-.2-.3-.3-.4-.5l-.1-.1v-.1c.1-.2.1-.5.2-.8 1.2-5 1.8-14.4 0-25.9-.5-3.7-1.1-8.8.4-14.3.2-.6.3-1.1.5-1.6v-.1c.3-.4.6-.7.9-1.1l.7-.6-.3.9c-.2.5-.4 1-.5 1.6-1.9 5.8-1.4 11.1-.8 15.2 1.1 6.9 1.5 14 1 20-.2 2.5-.6 4.8-1 6.6-.1.3-.1.5-.2.8l-.2.3zm-.2-.9l.1.1c0-.1.1-.3.1-.4.5-1.8.8-4.1 1-6.6.5-6 .2-13.1-1-19.9-.7-4.1-1.2-9.5.7-15.4.1-.2.2-.5.2-.7l-.3.3c-.2.5-.3 1-.5 1.5C6.5 19 7 24 7.6 27.8c1.9 11.6 1.2 21.1 0 26.1 0 .2-.1.4-.1.6zm53.4.3l-.3-.1c-.1-.1-.3-.1-.4-.2C37.6 45 30.9 23.9 30.6 23c-.4-1.4-.3-2.9.4-4.2.7-1.3 1.9-2.3 3.3-2.7.5-.2 1.1-.2 1.6-.2 2.4 0 4.6 1.6 5.3 3.9.1.2 5.9 17.8 24.3 25 .1 0 .2.1.3.1l.4.1-.1.3c0 .1-.1.2-.1.4v.1l-.4-.1c-.1 0-.3-.1-.4-.1C46.4 38.1 40.5 20.2 40.4 20c-.6-2-2.4-3.3-4.5-3.3-.5 0-.9.1-1.4.2-1.2.4-2.2 1.2-2.8 2.3-.6 1.1-.7 2.4-.3 3.6.3.9 6.9 21.7 29.1 31 .2.1.4.2.6.2l.2.1-.1.2c-.1.1-.1.2-.2.2l-.1.3zm-25-38.6c-.5 0-1 .1-1.5.2-1.3.4-2.4 1.3-3.1 2.5s-.8 2.6-.4 4c.3.9 6.9 21.8 29.3 31.3.1.1.3.1.4.2h.1l.1-.1v-.1c-.1-.1-.3-.1-.4-.2C38 44.6 31.3 23.7 31.1 22.8c-.4-1.3-.3-2.6.4-3.8.6-1.2 1.7-2.1 3-2.5.5-.1 1-.2 1.5-.2 2.2 0 4.2 1.4 4.8 3.5.1.2 5.9 18 24.6 25.3.1 0 .3.1.4.1 0-.1 0-.1.1-.2h-.1c-.1 0-.2-.1-.4-.1C46.9 37.8 41 20 40.9 19.8c-.7-2.2-2.7-3.6-5-3.6zm26.5 36.5l-.1-.1c-.1-.1-.3-.1-.4-.2l-.2-.1C39.8 43.4 33.3 23 33.1 22.2c-.2-.8-.2-1.6.2-2.3.4-.7 1-1.2 1.8-1.5.3-.1.6-.1.9-.1 1.3 0 2.5.8 2.9 2.1.1.2 6.1 18.9 25.8 26.6.1 0 .2.1.4.1l.4.1-.1.2c-.1.2-.1.3-.2.5l-.2.3-.2-.1c-.2-.1-.4-.1-.6-.2C44.2 40 38 20.9 38 20.7c-.3-.9-1.1-1.5-2-1.5-.2 0-.4 0-.6.1-.5.2-1 .5-1.3 1s-.3 1.1-.2 1.6c.3.8 6.6 20.9 28.2 29.6.2.1.4.2.6.2l.2.1-.2.3c-.1.1-.1.2-.2.3l-.1.3zm-26.5-34c-.3 0-.5 0-.8.1-.7.2-1.2.7-1.6 1.3-.3.6-.4 1.3-.2 2 .3.9 6.7 21 28.4 29.9l.2.1c.1 0 .2.1.3.1l.1-.1c-.1-.1-.2-.1-.3-.2-21.7-8.8-28.1-29-28.4-29.8-.2-.6-.1-1.3.2-1.9.3-.6.8-1 1.5-1.2.2-.1.5-.1.7-.1 1.1 0 2 .7 2.4 1.7.1.2 6.2 19.1 26 26.9.1.1.3.1.4.2 0-.1 0-.1.1-.2-.1 0-.2-.1-.4-.1-19.8-7.8-25.9-26.6-26-26.8-.4-1.1-1.4-1.9-2.6-1.9zM5.7 52.6l-.3-.5c-.1-.2-.2-.3-.3-.5v-.2c.1-.3.1-.6.2-1 .2-1.1.3-2.2.4-3.4.3-5.5 0-12.3-1.1-18.7-.3-2.1-.8-5.4-.6-9.1 0-.5.1-1.1.1-1.6v-.1c.2-.4.4-.8.7-1.1l.4-.7-.1.9c0 .4-.1.9-.1 1.4-.4 4 .1 7.7.5 10.1 1.1 6.6 1.4 13.3 1 19.1-.1 1.5-.3 2.8-.5 4.1-.1.3-.1.6-.2.9l-.1.4zm-.3-1.1c0 .1.1.1.1.2 0-.2.1-.3.1-.5.2-1.2.4-2.6.5-4 .4-5.7.1-12.5-.9-19-.5-2.4-.9-6.1-.6-10.2 0-.2 0-.5.1-.7-.1.1-.1.2-.2.4-.1.5-.1 1.1-.1 1.6-.2 3.6.2 6.9.6 9 1.1 6.5 1.4 13.3.9 19-.1 1.2-.2 2.4-.4 3.4 0 .2-.1.5-.1.8zm24.3.5c-.1 0-.3-.1-.3-.2-.1-.1-.1-.2-.1-.3 0-.1.1-.2.2-.3 1.6-1.1 4.4-2.4 7.6-2.4h1.1c-1.7-1.5-5.1-5.1-8.7-10.8-.1-.2-.1-.5.1-.6.2-.1.5-.1.6.1 4.9 7.9 9.5 11.6 9.6 11.6.2.1.2.3.1.5s-.3.3-.5.2c-.8-.2-1.6-.3-2.4-.3-3 0-5.6 1.1-7.1 2.2-.1.3-.2.3-.2.3zm7.3-2.8c-3.1 0-5.8 1.2-7.4 2.3v.2h.1c1.5-1.1 4.2-2.3 7.3-2.3.8 0 1.7.1 2.5.3h.1v-.1s-4.8-3.8-9.7-11.7h-.1v.1c3.8 6.2 7.6 9.8 9 11.1l.4.4-.6-.1c-.6-.1-1.1-.2-1.6-.2zm26.8 1.2l-.7-.3C42 41.8 35.8 22.3 35.5 21.5c-.1-.2.1-.5.3-.5.2-.1.5.1.5.3.1.2 6.4 19.9 27.1 28.1.1.1.3.1.4.2l.3.1-.1.2c-.1.1-.1.2-.2.3v.2zM35.9 21.3c-.1 0-.1.1-.1.1.3.8 6.4 20.1 27.3 28.4l.4.2s0-.1.1-.1c-.1-.1-.3-.1-.4-.2-20.8-8.3-27.1-28.1-27.3-28.4.1 0 .1 0 0 0zm-6 27.7c-.1 0-.2 0-.2-.1-.1-.1-.2-.3-.2-.4.4-2.2.2-5.3.2-5.3 0-.2.2-.4.4-.5.3 0 .4.2.5.4 0 .1.2 2.5-.1 4.7.6-.3 1.5-.6 2.4-.8l-1.3-1.6c-.2-.2-.1-.5 0-.6.2-.1.5-.1.6 0L34 47c.1.1.1.3.1.4-.1.2-.2.3-.4.3-1.5.1-3.5 1.1-3.6 1.2 0 .1-.1.1-.2.1zm.2-6s0 .1 0 0c-.1.1.1 3.2-.3 5.5v.1h.1c.1 0 2.2-1.2 3.7-1.2h.1v-.1l-1.9-2.2h-.1v.1l1.7 2h-.3c-1.1.2-2.2.7-2.9 1l-.3.1V48c.5-2.1.3-4.8.2-5 .1.1.1 0 0 0zM3.6 49l-.3-.6c-.1-.3-.3-.6-.4-.9v-.2-.3V46.1c.3-5.3 0-11.4-1-17.3-.2-1-.3-1.9-.4-2.8-.1-.6-.1-1.2-.2-1.8.1-.4.3-.9.4-1.3L2 22v.9c0 .5.1 1.1.1 1.7.1 1.3.3 2.6.5 4.1 1 6.4 1.4 12.9.9 18.5v.1c0 .5-.1.9-.1 1.3l.2.4zm-.4-1.6c0 .1.1.2.1.3 0-.2 0-.4.1-.6V47c.4-5.5.1-12-.9-18.4-.2-1.5-.4-2.8-.5-4.1 0-.3 0-.5-.1-.8 0 .1-.1.3-.1.4 0 .6.1 1.1.2 1.7.1.9.2 1.8.4 2.8 1 5.9 1.3 12.1 1 17.4v1.2l-.2.2zm-2-4.3l-.4-1.5c-.3-1.1-.5-2.3-.6-3.4C.1 37 0 35.8 0 34.6v-.3-.5c0-.9 0-1.8.1-2.8l.1-1.6.3 1.6c.5 3.5.7 7.1.8 10.5l-.1 1.6zM.4 32.9v1.7c0 1.2.1 2.3.3 3.5.1.5.1 1 .2 1.5-.1-2.2-.3-4.4-.5-6.7zm66.7-7.3l-.4-.3c-.3-.2-.6-.4-.8-.7-5.2-4.3-7.7-10-7.9-10.6-.7-2.1-1.7-4-2.9-5.8-.5-.7-1-1.3-1.5-1.9l-1-1.1 1.2.8c.6.4 1.1.8 1.7 1.3.4.6.9 1.2 1.2 1.9.8 1.4 1.5 2.9 2 4.4.2.6 2.4 5.7 7.1 9.8.3.3.6.5.9.7v.1c.1.2.1.5.2.7l.2.7zM54.7 7.1c.2.3.4.6.6.8 1.3 1.8 2.3 3.8 3 5.9.3.6 2.7 6.2 7.8 10.5.1.1.3.2.4.3 0-.1 0-.2-.1-.2-.3-.2-.6-.5-.8-.7-4.6-4.1-6.8-9-7.2-9.9-.5-1.5-1.2-3-2-4.4-.4-.6-.8-1.3-1.2-1.9-.2-.1-.3-.2-.5-.4zm10.8 13.5l-.8-1c-2.6-3.1-4-6-4.2-6.6 0-.1-.1-.2-.1-.2l-.4-1.1.7.8c.6.8 1.2 1.5 1.6 2.2.4.6.8 1.3 1.3 2 .5.9 1 1.8 1.4 2.7l.5 1.2zm-4.3-6.8c.5 1 1.4 2.5 2.7 4.3-.2-.4-.4-.8-.7-1.2-.4-.8-.9-1.4-1.3-2-.2-.4-.4-.7-.7-1.1z"/><path class="st1" d="M136.8 53.4c0 .6-.5 1-1 1s-1-.4-1-1 .5-1 1-1 1 .4 1 1zm-.2 0c0-.5-.4-.8-.8-.8s-.8.4-.8.8c0 .5.4.8.8.8.5 0 .8-.3.8-.8zm-.6.1l.3.3h-.3l-.2-.3h-.1v.3h-.2v-.9h.5c.2 0 .4.1.4.3-.1.2-.2.3-.4.3zm-.1-.1c.1 0 .2-.1.2-.1 0-.1-.1-.1-.2-.1h-.2v.2h.2z"/><g><path class="st1" d="M15.8 25.4c-5.3 0-9.6 3.7-9.6 9.1 0 5.5 4.4 9.2 9.6 9.2 5.1 0 9.5-3.7 9.5-9.2 0-5.4-4.3-9.1-9.5-9.1zm0 13.7c-2.2 0-4.3-1.8-4.3-4.5s2-4.5 4.3-4.5c2.1 0 4.2 1.8 4.2 4.5s-2 4.5-4.2 4.5zM37 25.4c-2.2 0-4 .8-5.3 2.2v-1.7h-5.5v17.4h5.5v-8.1c0-3.4 1.4-4.8 3.6-4.8 1.8 0 3 1.4 3 3.4v9.5h5.5V32.6c-.1-4.4-2.8-7.2-6.8-7.2zM54.2 25.4c-5 0-9.2 3.7-9.2 9.2 0 5.5 4.1 9.2 9.2 9.2 4 0 7.1-1.8 8.6-5.4l-4.9-1c-.9 1.7-2.4 2-3.7 2-1.9 0-3.3-1.3-3.7-3.4h12.7v-1.4c-.1-5.7-4.1-9.2-9-9.2zm-3.7 7.2c.5-1.8 2.1-2.7 3.7-2.7s3 .9 3.5 2.7h-7.2zM74.6 25.8c-5.1 0-9.1 3.7-9.1 8.9s4 9 9.1 9c5 0 9-3.7 9-9s-4-8.9-9-8.9zm0 15.5c-3.5 0-6.5-2.7-6.5-6.6 0-3.9 3-6.6 6.5-6.6s6.4 2.7 6.4 6.6c0 4-2.9 6.6-6.4 6.6zM96.8 26.2h-6.2v-2.5c0-2.2 1.3-3.5 3.4-3.5.6 0 1.3.1 1.9.4l.7-2.1c-.8-.4-1.8-.6-2.8-.6-3.6 0-5.8 2.3-5.8 5.9v2.5h-3v2.2h3v14.8h2.6V28.4h6.2v-2.2zM112.2 43.3h2.6v-17h-2.6V29c-1.5-2-3.9-3.1-6.8-3.1-4.5 0-8.5 3.6-8.5 9s4 9 8.5 9c2.8 0 5.3-1.1 6.8-3.1v2.5zm-6.3-2c-3.5 0-6.4-2.6-6.4-6.6 0-4.1 2.8-6.6 6.4-6.6 3.2 0 6.4 2.6 6.4 6.6-.1 4.1-3.2 6.6-6.4 6.6zM137 25.9h-6.6l-5.5 5.9h-.8V18.4h-5.5v24.9h5.5V37h1l5.6 6.3h7.1l-8.4-9.1zM138 25.9h5.5v17.4H138zM140.7 23.9c1.9 0 3.2-1.3 3.2-3.1 0-1.7-1.3-3.1-3.2-3.1-1.9 0-3.2 1.5-3.2 3.1.1 1.7 1.4 3.1 3.2 3.1zM157.8 33.8v9.5h5.5V32.6c0-4.4-2.7-7.2-6.7-7.2-2.2 0-4 .8-5.3 2.2v-1.7h-5.5v17.4h5.5v-8.1c0-3.4 1.4-4.8 3.6-4.8 1.7 0 2.9 1.3 2.9 3.4zM178.5 18.4v8.9c-1.3-1.2-3.1-1.9-5.4-1.9-4.6 0-8.5 3.7-8.5 9.2 0 5.5 3.9 9.2 8.5 9.2 2.2 0 4-.7 5.4-1.9v1.4h5.5V18.4h-5.5zm-4.3 20.7c-2.4 0-4.2-1.8-4.2-4.5s1.8-4.5 4.2-4.5c2.2 0 4.3 1.8 4.3 4.5s-2 4.5-4.3 4.5zM81.5 54.4l-1.5-.3c-.5-.1-.6-.3-.6-.6 0-.4.4-.8 1-.8s1.2.3 1.3 1l1.8-.4c-.3-1.4-1.5-2.2-3.1-2.2-1.8 0-3 .9-3 2.4 0 1.4.9 1.9 2 2.2l1.6.3c.5.1.7.3.7.7 0 .5-.4.8-1.1.8-.7 0-1.3-.3-1.5-1.1l-1.9.4c.2 1.5 1.6 2.3 3.3 2.3 1.7 0 3.1-.8 3.1-2.4 0-1.3-.8-2-2.1-2.3zM88 53.1c-.7 0-1.3.3-1.7.7v-3h-1.8v8h1.8v-2.6c0-1.1.5-1.6 1.2-1.6.6 0 1 .4 1 1.1v3.1h1.8v-3.4c-.1-1.4-1-2.3-2.3-2.3zM93.9 53.1c-1.7 0-3.1 1.2-3.1 2.9 0 1.8 1.4 3 3.1 3 1.7 0 3.1-1.2 3.1-3 0-1.7-1.4-2.9-3.1-2.9zm0 4.4c-.7 0-1.4-.6-1.4-1.5s.7-1.5 1.4-1.5 1.4.6 1.4 1.5c0 1-.7 1.5-1.4 1.5zM102.9 56.3l-1-3h-1.3l-1.1 3-.9-3h-1.7l1.8 5.6h1.5l1-3 1 3h1.6l1.8-5.6h-1.8zM109.2 52.8h-1.5v2h-1.9v1.4h1.9v2h1.5v-2h1.9v-1.4h-1.9zM116 54.4l-1.6-.3c-.5-.1-.6-.3-.6-.6 0-.4.4-.8 1-.8s1.2.3 1.3 1l1.8-.4c-.3-1.4-1.5-2.2-3.1-2.2-1.8 0-3 .9-3 2.4 0 1.4.9 1.9 2 2.2l1.6.3c.5.1.7.3.7.7 0 .5-.4.8-1.1.8-.7 0-1.3-.3-1.5-1.1l-1.9.4c.2 1.5 1.6 2.3 3.3 2.3 1.7 0 3.1-.8 3.1-2.4.1-1.3-.7-2-2-2.3zM123.1 53.7c-.4-.4-1-.6-1.7-.6-1.5 0-2.7 1.2-2.7 3s1.3 3 2.7 3c.7 0 1.3-.2 1.7-.6v.4h1.8v-5.6h-1.8v.4zm-1.4 3.8c-.8 0-1.4-.6-1.4-1.5s.6-1.5 1.4-1.5c.7 0 1.4.6 1.4 1.5s-.6 1.5-1.4 1.5zM125.9 50.8h1.8v8h-1.8zM131.4 53.1c-1.6 0-3 1.2-3 3s1.3 3 3 3c1.3 0 2.3-.6 2.8-1.8l-1.6-.3c-.3.5-.8.6-1.2.6-.6 0-1.1-.4-1.2-1.1h4.1V56c-.1-1.8-1.4-2.9-2.9-2.9zm-1.2 2.3c.2-.6.7-.9 1.2-.9s1 .3 1.1.9h-2.3zM143.8 57.4c-1.2 0-2.1-1-2.1-2.2s.9-2.2 2.1-2.2c1 0 1.7.5 2 1.6l1.8-.4c-.4-1.8-1.9-2.9-3.8-2.9-2.2 0-4 1.7-4 3.9s1.8 3.9 4 3.9c1.9 0 3.4-1.1 3.8-3l-1.8-.4c-.2 1.1-1 1.7-2 1.7zM152 53.1c-.7 0-1.3.3-1.7.7v-3h-1.8v8h1.8v-2.6c0-1.1.5-1.6 1.2-1.6.6 0 1 .4 1 1.1v3.1h1.8v-3.4c-.2-1.4-1-2.3-2.3-2.3zM156 50.6c-.6 0-1 .5-1 1 0 .6.4 1 1 1s1-.4 1-1c.1-.5-.4-1-1-1zM155.1 53.3h1.8v5.6h-1.8zM160.7 54.7c.6 0 1 .3 1.2 1l1.7-.4c-.3-1.3-1.5-2.2-2.9-2.2-1.7 0-3.1 1.2-3.1 3s1.4 3 3.1 3c1.4 0 2.6-.9 2.9-2.2l-1.6-.4c-.2.7-.6 1-1.2 1-.8 0-1.3-.6-1.3-1.4-.2-.8.4-1.4 1.2-1.4zM168.3 53.7c-.4-.4-1-.6-1.7-.6-1.5 0-2.7 1.2-2.7 3s1.3 3 2.7 3c.7 0 1.3-.2 1.7-.6v.4h1.8v-5.6h-1.8v.4zm-1.4 3.8c-.8 0-1.4-.6-1.4-1.5s.6-1.5 1.4-1.5c.7 0 1.4.6 1.4 1.5s-.6 1.5-1.4 1.5zM175.1 53.6c-.4-.3-1-.5-1.7-.5-1.5 0-2.7 1.2-2.7 2.7 0 1.6 1.2 2.7 2.7 2.7.7 0 1.3-.2 1.7-.5v.2c0 .9-.6 1.4-1.4 1.4-.6 0-.9-.2-1.3-.7l-1.5.8c.5.9 1.5 1.4 2.8 1.4 1.8 0 3.1-.9 3.1-2.7v-5H175v.2zm-1.3 3.5c-.8 0-1.3-.5-1.3-1.3 0-.7.6-1.3 1.3-1.3.7 0 1.3.5 1.3 1.3s-.5 1.3-1.3 1.3zM180.7 53.1c-1.7 0-3.1 1.2-3.1 2.9 0 1.8 1.4 3 3.1 3 1.7 0 3.1-1.2 3.1-3 0-1.7-1.4-2.9-3.1-2.9zm0 4.4c-.7 0-1.4-.6-1.4-1.5s.7-1.5 1.4-1.5 1.4.6 1.4 1.5c-.1 1-.7 1.5-1.4 1.5z"/></g></svg>