<?xml version="1.0" encoding="utf-8"?>
<!-- Generator: Adobe Illustrator 18.1.1, SVG Export Plug-In . SVG Version: 6.00 Build 0)  -->
<svg version="1.1" id="Layer_1" xmlns="http://www.w3.org/2000/svg" xmlns:xlink="http://www.w3.org/1999/xlink" x="0px" y="0px"
	 viewBox="0 0 276 137" enable-background="new 0 0 276 137" xml:space="preserve">
<circle fill="#FFFFFF" stroke="#0F1F2D" stroke-width="3" stroke-linecap="round" stroke-miterlimit="10" cx="130.4" cy="103.1" r="17"/>
<path fill="#FFFFFF" stroke="#0F1F2D" stroke-width="3" stroke-linecap="round" stroke-miterlimit="10" d="M136.6,100.6
	c0,3.4-6.2,11.7-6.2,11.7s-6.2-8.3-6.2-11.7c0-3.4,2.8-6.2,6.2-6.2C133.8,94.4,136.6,97.2,136.6,100.6z"/>
<circle fill="#0F1F2D" cx="130.4" cy="100" r="2.1"/>
<g>
	<defs>
		<path id="SVGID_1049_" d="M-750-199.7c-27.1,0-49-21.9-49-49c0-27.1,21.9-49,49-49c27.1,0,49,21.9,49,49
			C-701-221.7-722.9-199.7-750-199.7z M-750-196.7c28.7,0,52-23.3,52-52c0-28.7-23.3-52-52-52s-52,23.3-52,52
			C-802-220-778.7-196.7-750-196.7z M-822-320.7h144v144h-144V-320.7z"/>
	</defs>
	<clipPath id="SVGID_2_">
		<use xlink:href="#SVGID_1049_"  overflow="visible"/>
	</clipPath>
	<g clip-path="url(#SVGID_2_)">
		<defs>
			<circle id="SVGID_1051_" cx="-750" cy="-248.7" r="50.5"/>
		</defs>
		<clipPath id="SVGID_4_">
			<use xlink:href="#SVGID_1051_"  overflow="visible"/>
		</clipPath>
		<g clip-path="url(#SVGID_4_)">
			<defs>
				<rect id="SVGID_1053_" x="-924.5" y="-984.7" width="1121" height="1030"/>
			</defs>
			<clipPath id="SVGID_6_">
				<use xlink:href="#SVGID_1053_"  overflow="visible"/>
			</clipPath>
		</g>
	</g>
</g>
<g>
	<defs>
		<circle id="SVGID_1055_" cx="-750" cy="-248.7" r="50.5"/>
	</defs>
	<clipPath id="SVGID_8_">
		<use xlink:href="#SVGID_1055_"  overflow="visible"/>
	</clipPath>
	<g clip-path="url(#SVGID_8_)">
		<defs>
			<rect id="SVGID_1057_" x="-924.5" y="-984.7" width="1121" height="1030"/>
		</defs>
		<clipPath id="SVGID_10_">
			<use xlink:href="#SVGID_1057_"  overflow="visible"/>
		</clipPath>
	</g>
</g>
<g>
	<defs>
		<circle id="SVGID_1059_" cx="-750" cy="-248.7" r="43.5"/>
	</defs>
	<clipPath id="SVGID_12_">
		<use xlink:href="#SVGID_1059_"  overflow="visible"/>
	</clipPath>
	<g clip-path="url(#SVGID_12_)">
		<defs>
			<rect id="SVGID_1061_" x="-924.5" y="-984.7" width="1121" height="1030"/>
		</defs>
		<clipPath id="SVGID_14_">
			<use xlink:href="#SVGID_1061_"  overflow="visible"/>
		</clipPath>
	</g>
</g>
<g>
	<defs>
		<path id="SVGID_1063_" d="M-749.3-32.5c-24.6,0-44.6-20-44.6-44.6s20-44.6,44.6-44.6s44.6,20,44.6,44.6S-724.7-32.5-749.3-32.5z
			 M-749.3-29.8c26.1,0,47.3-21.2,47.3-47.3s-21.2-47.3-47.3-47.3c-26.1,0-47.3,21.2-47.3,47.3S-775.4-29.8-749.3-29.8z
			 M-814.8-142.6h131v131h-131V-142.6z"/>
	</defs>
	<clipPath id="SVGID_16_">
		<use xlink:href="#SVGID_1063_"  overflow="visible"/>
	</clipPath>
	<g clip-path="url(#SVGID_16_)">
		<defs>
			<circle id="SVGID_1065_" cx="-749.3" cy="-77.1" r="45.9"/>
		</defs>
		<clipPath id="SVGID_18_">
			<use xlink:href="#SVGID_1065_"  overflow="visible"/>
		</clipPath>
		<g clip-path="url(#SVGID_18_)">
			<defs>
				<rect id="SVGID_1067_" x="-908" y="-746.7" width="1019.8" height="937"/>
			</defs>
			<clipPath id="SVGID_20_">
				<use xlink:href="#SVGID_1067_"  overflow="visible"/>
			</clipPath>
		</g>
	</g>
</g>
<g>
	<defs>
		<circle id="SVGID_1069_" cx="-749.3" cy="-77.1" r="45.9"/>
	</defs>
	<clipPath id="SVGID_22_">
		<use xlink:href="#SVGID_1069_"  overflow="visible"/>
	</clipPath>
	<g clip-path="url(#SVGID_22_)">
		<defs>
			<rect id="SVGID_1071_" x="-908" y="-746.7" width="1019.8" height="937"/>
		</defs>
		<clipPath id="SVGID_24_">
			<use xlink:href="#SVGID_1071_"  overflow="visible"/>
		</clipPath>
	</g>
</g>
<g>
	<defs>
		<circle id="SVGID_1073_" cx="-749.3" cy="-77.1" r="39.6"/>
	</defs>
	<clipPath id="SVGID_26_">
		<use xlink:href="#SVGID_1073_"  overflow="visible"/>
	</clipPath>
	<g clip-path="url(#SVGID_26_)">
		<defs>
			<rect id="SVGID_1075_" x="-908" y="-746.7" width="1019.8" height="937"/>
		</defs>
		<clipPath id="SVGID_28_">
			<use xlink:href="#SVGID_1075_"  overflow="visible"/>
		</clipPath>
	</g>
</g>
<g>
	<path fill="#0F1F2D" d="M175.6,119.9H159l2.5-43.8h13.2v17.1l8.4-10.6l16.8-9.3L174.7,105L175.6,119.9z M161.7,117.3h11.2
		l-0.8-13.1l17.8-22.5l-5.1,2.8l-12.7,16V78.6h-8.2L161.7,117.3z"/>
</g>
<g>
	<path fill="#0F1F2D" d="M103.6,119.9H87.9L89.7,97l-9.2-20.8h9.3l5.7,12.7l3.9-12.7H111l-9.8,21.2L103.6,119.9z M90.7,117.3h10
		l-2.1-20.4l8.4-18.2h-5.6L96,96.2l-7.8-17.4h-3.7l7.9,17.8L90.7,117.3z"/>
</g>
<g>
	<path fill="#FFFFFF" stroke="#0F1F2D" stroke-width="3" stroke-linecap="round" stroke-miterlimit="10" d="M201.6,63.2
		c0.2-0.9,0.3-1.9,0.3-2.8c0-5.4-3.6-10-8.4-11.6c0.6-1.5,1-3.2,1-4.9c0-7-5.7-12.7-12.7-12.7c-0.6,0-1.2,0-1.8,0.1
		c-1.2-4.8-5.6-8.4-10.9-8.4c-5.2,0-9.5,3.5-10.8,8.3c-0.1,0-0.3,0-0.4,0c-9.3,0-16.9,7.6-16.9,16.9c0,2.7,0.7,5.3,1.8,7.6
		C137,57.9,133,63.5,133,70c0,8.5,6.9,15.4,15.4,15.4c2.4,0,4.7-0.6,6.8-1.6c1.9,0.9,4.1,1.4,6.3,1.4c3.5,0,6.8-1.2,9.4-3.2
		c2.6,2,5.9,3.2,9.4,3.2c4.3,0,8.2-1.8,11-4.7c1.7,1.3,3.8,2.1,6.1,2.1c5.6,0,10.1-4.5,10.1-10.1C207.6,68.3,205.1,64.8,201.6,63.2z
		"/>
</g>
<g>
	<path fill="#FFFFFF" stroke="#0F1F2D" stroke-width="3" stroke-linecap="round" stroke-miterlimit="10" d="M88.1,80.8
		c1,0.6,2.2,1.1,3.4,1.4c3.3,0.8,6.6,0.3,9.4-1.2c0.8,0.7,1.8,1.3,2.9,1.5c3.7,0.9,7.4-1.3,8.4-5c0.1-0.2,0.1-0.5,0.1-0.7
		c5.6,0.4,10.8-3.2,12.2-8.9c1.6-6.3-2.3-12.7-8.5-14.2c0,0-0.1,0-0.1,0c0.1-0.3,0.2-0.6,0.3-0.9c0.8-3.1-1.1-6.3-4.3-7.1
		c-1.4-0.4-2.8-0.2-4,0.4c-1.7-3.5-4.9-6.2-8.9-7.2c-6.2-1.5-12.4,1.4-15.3,6.8c-3.1-0.5-6.1,1.4-6.8,4.4c-0.4,1.5-0.1,3.1,0.6,4.3
		c-2.9,1.3-5.2,3.8-6.1,7.2c-1.2,4.8,1.1,9.7,5.2,11.9c-0.4,0.6-0.6,1.2-0.8,1.9c-0.9,3.7,1.3,7.4,5,8.3
		C83.6,84.4,86.5,83.2,88.1,80.8z"/>
</g>
<g>
	<defs>
		<path id="SVGID_1077_" d="M-210.5,34.2h-1.5v1.5v81v1.5h1.5h105h1.5v-1.5v-81v-1.5h-1.5H-210.5z M-210.5,37.2h105l-1.5-1.5v81
			l1.5-1.5h-105l1.5,1.5v-81L-210.5,37.2z M-232,14.2h148v124h-148V14.2z"/>
	</defs>
	<clipPath id="SVGID_30_">
		<use xlink:href="#SVGID_1077_"  overflow="visible"/>
	</clipPath>
	<g clip-path="url(#SVGID_30_)">
		<defs>
			<rect id="SVGID_1079_" x="-210.5" y="35.7" width="105" height="81"/>
		</defs>
		<clipPath id="SVGID_32_">
			<use xlink:href="#SVGID_1079_"  overflow="visible"/>
		</clipPath>
		<g clip-path="url(#SVGID_32_)">
			<defs>
				<rect id="SVGID_1081_" x="-1091.5" y="-463.3" width="1121" height="1030"/>
			</defs>
			<clipPath id="SVGID_34_">
				<use xlink:href="#SVGID_1081_"  overflow="visible"/>
			</clipPath>
		</g>
	</g>
</g>
<g>
	<defs>
		<rect id="SVGID_1083_" x="-210.5" y="35.7" width="105" height="81"/>
	</defs>
	<clipPath id="SVGID_36_">
		<use xlink:href="#SVGID_1083_"  overflow="visible"/>
	</clipPath>
	<g clip-path="url(#SVGID_36_)">
		<defs>
			<rect id="SVGID_1085_" x="-1091.5" y="-463.3" width="1121" height="1030"/>
		</defs>
		<clipPath id="SVGID_38_">
			<use xlink:href="#SVGID_1085_"  overflow="visible"/>
		</clipPath>
	</g>
</g>
<g>
	<defs>
		<path id="SVGID_1087_" d="M-216.5,51.2h-2.2l0.9-2.1l9.1-22l0.4-0.9h1h98.9h1l0.4,0.9l9.1,22l0.9,2.1h-2.2H-216.5z M-216.5,48.2
			h117l-1.4,2.1l-9.1-22l1.4,0.9h-98.9l1.4-0.9l-9.1,22L-216.5,48.2z M-238.7,71.2h161.5v-65h-161.5V71.2z"/>
	</defs>
	<clipPath id="SVGID_40_">
		<use xlink:href="#SVGID_1087_"  overflow="visible"/>
	</clipPath>
	<g clip-path="url(#SVGID_40_)">
		<defs>
			<polygon id="SVGID_1089_" points="-216.5,49.7 -99.5,49.7 -108.6,27.7 -207.4,27.7 			"/>
		</defs>
		<clipPath id="SVGID_42_">
			<use xlink:href="#SVGID_1089_"  overflow="visible"/>
		</clipPath>
		<g clip-path="url(#SVGID_42_)">
			<defs>
				<rect id="SVGID_1091_" x="-1091.5" y="-463.3" width="1121" height="1030"/>
			</defs>
			<clipPath id="SVGID_44_">
				<use xlink:href="#SVGID_1091_"  overflow="visible"/>
			</clipPath>
		</g>
	</g>
</g>
<g>
	<defs>
		<polygon id="SVGID_1093_" points="-216.5,49.7 -99.5,49.7 -108.6,27.7 -207.4,27.7 		"/>
	</defs>
	<clipPath id="SVGID_46_">
		<use xlink:href="#SVGID_1093_"  overflow="visible"/>
	</clipPath>
	<g clip-path="url(#SVGID_46_)">
		<defs>
			<rect id="SVGID_1095_" x="-1091.5" y="-463.3" width="1121" height="1030"/>
		</defs>
		<clipPath id="SVGID_48_">
			<use xlink:href="#SVGID_1095_"  overflow="visible"/>
		</clipPath>
	</g>
</g>
<g>
	<defs>
		<path id="SVGID_1097_" d="M-131.5,18.2h-1.5v1.5v16v1.5h1.5h12h1.5v-1.5v-16v-1.5h-1.5H-131.5z M-131.5,21.2h12l-1.5-1.5v16
			l1.5-1.5h-12l1.5,1.5v-16L-131.5,21.2z M-153-1.8h55v59h-55V-1.8z"/>
	</defs>
	<clipPath id="SVGID_50_">
		<use xlink:href="#SVGID_1097_"  overflow="visible"/>
	</clipPath>
	<g clip-path="url(#SVGID_50_)">
		<defs>
			<rect id="SVGID_1099_" x="-131.5" y="19.7" width="12" height="16"/>
		</defs>
		<clipPath id="SVGID_52_">
			<use xlink:href="#SVGID_1099_"  overflow="visible"/>
		</clipPath>
		<g clip-path="url(#SVGID_52_)">
			<defs>
				<rect id="SVGID_1101_" x="-1091.5" y="-463.3" width="1121" height="1030"/>
			</defs>
			<clipPath id="SVGID_54_">
				<use xlink:href="#SVGID_1101_"  overflow="visible"/>
			</clipPath>
		</g>
	</g>
</g>
<g>
	<defs>
		<rect id="SVGID_1103_" x="-131.5" y="19.7" width="12" height="16"/>
	</defs>
	<clipPath id="SVGID_56_">
		<use xlink:href="#SVGID_1103_"  overflow="visible"/>
	</clipPath>
	<g clip-path="url(#SVGID_56_)">
		<defs>
			<rect id="SVGID_1105_" x="-1091.5" y="-463.3" width="1121" height="1030"/>
		</defs>
		<clipPath id="SVGID_58_">
			<use xlink:href="#SVGID_1105_"  overflow="visible"/>
		</clipPath>
	</g>
</g>
<g>
	<defs>
		<path id="SVGID_1107_" d="M-197.5,84.2h-1.5v1.5v31v1.5h1.5h21h1.5v-1.5v-31v-1.5h-1.5H-197.5z M-197.5,87.2h21l-1.5-1.5v31
			l1.5-1.5h-21l1.5,1.5v-31L-197.5,87.2z M-219,64.2h64v74h-64V64.2z"/>
	</defs>
	<clipPath id="SVGID_60_">
		<use xlink:href="#SVGID_1107_"  overflow="visible"/>
	</clipPath>
	<g clip-path="url(#SVGID_60_)">
		<defs>
			<rect id="SVGID_1109_" x="-197.5" y="85.7" width="21" height="31"/>
		</defs>
		<clipPath id="SVGID_62_">
			<use xlink:href="#SVGID_1109_"  overflow="visible"/>
		</clipPath>
		<g clip-path="url(#SVGID_62_)">
			<defs>
				<rect id="SVGID_1111_" x="-1091.5" y="-463.3" width="1121" height="1030"/>
			</defs>
			<clipPath id="SVGID_64_">
				<use xlink:href="#SVGID_1111_"  overflow="visible"/>
			</clipPath>
		</g>
	</g>
</g>
<g>
	<defs>
		<rect id="SVGID_1113_" x="-197.5" y="85.7" width="21" height="31"/>
	</defs>
	<clipPath id="SVGID_66_">
		<use xlink:href="#SVGID_1113_"  overflow="visible"/>
	</clipPath>
	<g clip-path="url(#SVGID_66_)">
		<defs>
			<rect id="SVGID_1115_" x="-1091.5" y="-463.3" width="1121" height="1030"/>
		</defs>
		<clipPath id="SVGID_68_">
			<use xlink:href="#SVGID_1115_"  overflow="visible"/>
		</clipPath>
	</g>
</g>
<g>
	<defs>
		<path id="SVGID_1117_" d="M-196.5,56.2h-1.5v1.5v19v1.5h1.5h19h1.5v-1.5v-19v-1.5h-1.5H-196.5z M-196.5,59.2h19l-1.5-1.5v19
			l1.5-1.5h-19l1.5,1.5v-19L-196.5,59.2z M-218,36.2h62v62h-62V36.2z"/>
	</defs>
	<clipPath id="SVGID_70_">
		<use xlink:href="#SVGID_1117_"  overflow="visible"/>
	</clipPath>
	<g clip-path="url(#SVGID_70_)">
		<defs>
			<rect id="SVGID_1119_" x="-196.5" y="57.7" width="19" height="19"/>
		</defs>
		<clipPath id="SVGID_72_">
			<use xlink:href="#SVGID_1119_"  overflow="visible"/>
		</clipPath>
		<g clip-path="url(#SVGID_72_)">
			<defs>
				<rect id="SVGID_1121_" x="-1091.5" y="-463.3" width="1121" height="1030"/>
			</defs>
			<clipPath id="SVGID_74_">
				<use xlink:href="#SVGID_1121_"  overflow="visible"/>
			</clipPath>
		</g>
	</g>
</g>
<g>
	<defs>
		<rect id="SVGID_1123_" x="-196.5" y="57.7" width="19" height="19"/>
	</defs>
	<clipPath id="SVGID_76_">
		<use xlink:href="#SVGID_1123_"  overflow="visible"/>
	</clipPath>
	<g clip-path="url(#SVGID_76_)">
		<defs>
			<rect id="SVGID_1125_" x="-1091.5" y="-463.3" width="1121" height="1030"/>
		</defs>
		<clipPath id="SVGID_78_">
			<use xlink:href="#SVGID_1125_"  overflow="visible"/>
		</clipPath>
	</g>
</g>
<g>
	<defs>
		<path id="SVGID_1127_" d="M-191.5,61.2h-1.5v1.5v9v1.5h1.5h9h1.5v-1.5v-9v-1.5h-1.5H-191.5z M-191.5,64.2h9l-1.5-1.5v9l1.5-1.5h-9
			l1.5,1.5v-9L-191.5,64.2z M-213,41.2h52v52h-52V41.2z"/>
	</defs>
	<clipPath id="SVGID_80_">
		<use xlink:href="#SVGID_1127_"  overflow="visible"/>
	</clipPath>
	<g clip-path="url(#SVGID_80_)">
		<defs>
			<rect id="SVGID_1129_" x="-191.5" y="62.7" width="9" height="9"/>
		</defs>
		<clipPath id="SVGID_82_">
			<use xlink:href="#SVGID_1129_"  overflow="visible"/>
		</clipPath>
		<g clip-path="url(#SVGID_82_)">
			<defs>
				<rect id="SVGID_1131_" x="-1091.5" y="-463.3" width="1121" height="1030"/>
			</defs>
			<clipPath id="SVGID_84_">
				<use xlink:href="#SVGID_1131_"  overflow="visible"/>
			</clipPath>
		</g>
	</g>
</g>
<g>
	<defs>
		<rect id="SVGID_1133_" x="-191.5" y="62.7" width="9" height="9"/>
	</defs>
	<clipPath id="SVGID_86_">
		<use xlink:href="#SVGID_1133_"  overflow="visible"/>
	</clipPath>
	<g clip-path="url(#SVGID_86_)">
		<defs>
			<rect id="SVGID_1135_" x="-1091.5" y="-463.3" width="1121" height="1030"/>
		</defs>
		<clipPath id="SVGID_88_">
			<use xlink:href="#SVGID_1135_"  overflow="visible"/>
		</clipPath>
	</g>
</g>
<g>
	<defs>
		<path id="SVGID_1137_" d="M-166.5,56.2h-1.5v1.5v19v1.5h1.5h19h1.5v-1.5v-19v-1.5h-1.5H-166.5z M-166.5,59.2h19l-1.5-1.5v19
			l1.5-1.5h-19l1.5,1.5v-19L-166.5,59.2z M-188,36.2h62v62h-62V36.2z"/>
	</defs>
	<clipPath id="SVGID_90_">
		<use xlink:href="#SVGID_1137_"  overflow="visible"/>
	</clipPath>
	<g clip-path="url(#SVGID_90_)">
		<defs>
			<rect id="SVGID_1139_" x="-166.5" y="57.7" width="19" height="19"/>
		</defs>
		<clipPath id="SVGID_92_">
			<use xlink:href="#SVGID_1139_"  overflow="visible"/>
		</clipPath>
		<g clip-path="url(#SVGID_92_)">
			<defs>
				<rect id="SVGID_1141_" x="-1091.5" y="-463.3" width="1121" height="1030"/>
			</defs>
			<clipPath id="SVGID_94_">
				<use xlink:href="#SVGID_1141_"  overflow="visible"/>
			</clipPath>
		</g>
	</g>
</g>
<g>
	<defs>
		<rect id="SVGID_1143_" x="-166.5" y="57.7" width="19" height="19"/>
	</defs>
	<clipPath id="SVGID_96_">
		<use xlink:href="#SVGID_1143_"  overflow="visible"/>
	</clipPath>
	<g clip-path="url(#SVGID_96_)">
		<defs>
			<rect id="SVGID_1145_" x="-1091.5" y="-463.3" width="1121" height="1030"/>
		</defs>
		<clipPath id="SVGID_98_">
			<use xlink:href="#SVGID_1145_"  overflow="visible"/>
		</clipPath>
	</g>
</g>
<g>
	<defs>
		<path id="SVGID_1147_" d="M-137.5,56.2h-1.5v1.5v19v1.5h1.5h19h1.5v-1.5v-19v-1.5h-1.5H-137.5z M-137.5,59.2h19l-1.5-1.5v19
			l1.5-1.5h-19l1.5,1.5v-19L-137.5,59.2z M-159,36.2h62v62h-62V36.2z"/>
	</defs>
	<clipPath id="SVGID_100_">
		<use xlink:href="#SVGID_1147_"  overflow="visible"/>
	</clipPath>
	<g clip-path="url(#SVGID_100_)">
		<defs>
			<rect id="SVGID_1149_" x="-137.5" y="57.7" width="19" height="19"/>
		</defs>
		<clipPath id="SVGID_102_">
			<use xlink:href="#SVGID_1149_"  overflow="visible"/>
		</clipPath>
		<g clip-path="url(#SVGID_102_)">
			<defs>
				<rect id="SVGID_1151_" x="-1091.5" y="-463.3" width="1121" height="1030"/>
			</defs>
			<clipPath id="SVGID_104_">
				<use xlink:href="#SVGID_1151_"  overflow="visible"/>
			</clipPath>
		</g>
	</g>
</g>
<g>
	<defs>
		<rect id="SVGID_1153_" x="-137.5" y="57.7" width="19" height="19"/>
	</defs>
	<clipPath id="SVGID_106_">
		<use xlink:href="#SVGID_1153_"  overflow="visible"/>
	</clipPath>
	<g clip-path="url(#SVGID_106_)">
		<defs>
			<rect id="SVGID_1155_" x="-1091.5" y="-463.3" width="1121" height="1030"/>
		</defs>
		<clipPath id="SVGID_108_">
			<use xlink:href="#SVGID_1155_"  overflow="visible"/>
		</clipPath>
	</g>
</g>
<g>
	<defs>
		<path id="SVGID_1157_" d="M-166.5,84.2h-1.5v1.5v19v1.5h1.5h19h1.5v-1.5v-19v-1.5h-1.5H-166.5z M-166.5,87.2h19l-1.5-1.5v19
			l1.5-1.5h-19l1.5,1.5v-19L-166.5,87.2z M-188,64.2h62v62h-62V64.2z"/>
	</defs>
	<clipPath id="SVGID_110_">
		<use xlink:href="#SVGID_1157_"  overflow="visible"/>
	</clipPath>
	<g clip-path="url(#SVGID_110_)">
		<defs>
			<rect id="SVGID_1159_" x="-166.5" y="85.7" width="19" height="19"/>
		</defs>
		<clipPath id="SVGID_112_">
			<use xlink:href="#SVGID_1159_"  overflow="visible"/>
		</clipPath>
		<g clip-path="url(#SVGID_112_)">
			<defs>
				<rect id="SVGID_1161_" x="-1091.5" y="-463.3" width="1121" height="1030"/>
			</defs>
			<clipPath id="SVGID_114_">
				<use xlink:href="#SVGID_1161_"  overflow="visible"/>
			</clipPath>
		</g>
	</g>
</g>
<g>
	<defs>
		<rect id="SVGID_1163_" x="-166.5" y="85.7" width="19" height="19"/>
	</defs>
	<clipPath id="SVGID_116_">
		<use xlink:href="#SVGID_1163_"  overflow="visible"/>
	</clipPath>
	<g clip-path="url(#SVGID_116_)">
		<defs>
			<rect id="SVGID_1165_" x="-1091.5" y="-463.3" width="1121" height="1030"/>
		</defs>
		<clipPath id="SVGID_118_">
			<use xlink:href="#SVGID_1165_"  overflow="visible"/>
		</clipPath>
	</g>
</g>
<g>
	<defs>
		<path id="SVGID_1167_" d="M-137.5,84.2h-1.5v1.5v19v1.5h1.5h19h1.5v-1.5v-19v-1.5h-1.5H-137.5z M-137.5,87.2h19l-1.5-1.5v19
			l1.5-1.5h-19l1.5,1.5v-19L-137.5,87.2z M-159,64.2h62v62h-62V64.2z"/>
	</defs>
	<clipPath id="SVGID_120_">
		<use xlink:href="#SVGID_1167_"  overflow="visible"/>
	</clipPath>
	<g clip-path="url(#SVGID_120_)">
		<defs>
			<rect id="SVGID_1169_" x="-137.5" y="85.7" width="19" height="19"/>
		</defs>
		<clipPath id="SVGID_122_">
			<use xlink:href="#SVGID_1169_"  overflow="visible"/>
		</clipPath>
		<g clip-path="url(#SVGID_122_)">
			<defs>
				<rect id="SVGID_1171_" x="-1091.5" y="-463.3" width="1121" height="1030"/>
			</defs>
			<clipPath id="SVGID_124_">
				<use xlink:href="#SVGID_1171_"  overflow="visible"/>
			</clipPath>
		</g>
	</g>
</g>
<g>
	<defs>
		<rect id="SVGID_1173_" x="-137.5" y="85.7" width="19" height="19"/>
	</defs>
	<clipPath id="SVGID_126_">
		<use xlink:href="#SVGID_1173_"  overflow="visible"/>
	</clipPath>
	<g clip-path="url(#SVGID_126_)">
		<defs>
			<rect id="SVGID_1175_" x="-1091.5" y="-463.3" width="1121" height="1030"/>
		</defs>
		<clipPath id="SVGID_128_">
			<use xlink:href="#SVGID_1175_"  overflow="visible"/>
		</clipPath>
	</g>
</g>
<g>
	<defs>
		<path id="SVGID_1177_" d="M-161.5,61.2h-1.5v1.5v9v1.5h1.5h9h1.5v-1.5v-9v-1.5h-1.5H-161.5z M-161.5,64.2h9l-1.5-1.5v9l1.5-1.5h-9
			l1.5,1.5v-9L-161.5,64.2z M-183,41.2h52v52h-52V41.2z"/>
	</defs>
	<clipPath id="SVGID_130_">
		<use xlink:href="#SVGID_1177_"  overflow="visible"/>
	</clipPath>
	<g clip-path="url(#SVGID_130_)">
		<defs>
			<rect id="SVGID_1179_" x="-161.5" y="62.7" width="9" height="9"/>
		</defs>
		<clipPath id="SVGID_132_">
			<use xlink:href="#SVGID_1179_"  overflow="visible"/>
		</clipPath>
		<g clip-path="url(#SVGID_132_)">
			<defs>
				<rect id="SVGID_1181_" x="-1091.5" y="-463.3" width="1121" height="1030"/>
			</defs>
			<clipPath id="SVGID_134_">
				<use xlink:href="#SVGID_1181_"  overflow="visible"/>
			</clipPath>
		</g>
	</g>
</g>
<g>
	<defs>
		<rect id="SVGID_1183_" x="-161.5" y="62.7" width="9" height="9"/>
	</defs>
	<clipPath id="SVGID_136_">
		<use xlink:href="#SVGID_1183_"  overflow="visible"/>
	</clipPath>
	<g clip-path="url(#SVGID_136_)">
		<defs>
			<rect id="SVGID_1185_" x="-1091.5" y="-463.3" width="1121" height="1030"/>
		</defs>
		<clipPath id="SVGID_138_">
			<use xlink:href="#SVGID_1185_"  overflow="visible"/>
		</clipPath>
	</g>
</g>
<g>
	<defs>
		<path id="SVGID_1187_" d="M-132.5,61.2h-1.5v1.5v9v1.5h1.5h9h1.5v-1.5v-9v-1.5h-1.5H-132.5z M-132.5,64.2h9l-1.5-1.5v9l1.5-1.5h-9
			l1.5,1.5v-9L-132.5,64.2z M-154,41.2h52v52h-52V41.2z"/>
	</defs>
	<clipPath id="SVGID_140_">
		<use xlink:href="#SVGID_1187_"  overflow="visible"/>
	</clipPath>
	<g clip-path="url(#SVGID_140_)">
		<defs>
			<rect id="SVGID_1189_" x="-132.5" y="62.7" width="9" height="9"/>
		</defs>
		<clipPath id="SVGID_142_">
			<use xlink:href="#SVGID_1189_"  overflow="visible"/>
		</clipPath>
		<g clip-path="url(#SVGID_142_)">
			<defs>
				<rect id="SVGID_1191_" x="-1091.5" y="-463.3" width="1121" height="1030"/>
			</defs>
			<clipPath id="SVGID_144_">
				<use xlink:href="#SVGID_1191_"  overflow="visible"/>
			</clipPath>
		</g>
	</g>
</g>
<g>
	<defs>
		<rect id="SVGID_1193_" x="-132.5" y="62.7" width="9" height="9"/>
	</defs>
	<clipPath id="SVGID_146_">
		<use xlink:href="#SVGID_1193_"  overflow="visible"/>
	</clipPath>
	<g clip-path="url(#SVGID_146_)">
		<defs>
			<rect id="SVGID_1195_" x="-1091.5" y="-463.3" width="1121" height="1030"/>
		</defs>
		<clipPath id="SVGID_148_">
			<use xlink:href="#SVGID_1195_"  overflow="visible"/>
		</clipPath>
	</g>
</g>
<g>
	<defs>
		<path id="SVGID_1197_" d="M-161.5,89.2h-1.5v1.5v9v1.5h1.5h9h1.5v-1.5v-9v-1.5h-1.5H-161.5z M-161.5,92.2h9l-1.5-1.5v9l1.5-1.5h-9
			l1.5,1.5v-9L-161.5,92.2z M-183,69.2h52v52h-52V69.2z"/>
	</defs>
	<clipPath id="SVGID_150_">
		<use xlink:href="#SVGID_1197_"  overflow="visible"/>
	</clipPath>
	<g clip-path="url(#SVGID_150_)">
		<defs>
			<rect id="SVGID_1199_" x="-161.5" y="90.7" width="9" height="9"/>
		</defs>
		<clipPath id="SVGID_152_">
			<use xlink:href="#SVGID_1199_"  overflow="visible"/>
		</clipPath>
		<g clip-path="url(#SVGID_152_)">
			<defs>
				<rect id="SVGID_1201_" x="-1091.5" y="-463.3" width="1121" height="1030"/>
			</defs>
			<clipPath id="SVGID_154_">
				<use xlink:href="#SVGID_1201_"  overflow="visible"/>
			</clipPath>
		</g>
	</g>
</g>
<g>
	<defs>
		<rect id="SVGID_1203_" x="-161.5" y="90.7" width="9" height="9"/>
	</defs>
	<clipPath id="SVGID_156_">
		<use xlink:href="#SVGID_1203_"  overflow="visible"/>
	</clipPath>
	<g clip-path="url(#SVGID_156_)">
		<defs>
			<rect id="SVGID_1205_" x="-1091.5" y="-463.3" width="1121" height="1030"/>
		</defs>
		<clipPath id="SVGID_158_">
			<use xlink:href="#SVGID_1205_"  overflow="visible"/>
		</clipPath>
	</g>
</g>
<g>
	<defs>
		<path id="SVGID_1207_" d="M-132.5,89.2h-1.5v1.5v9v1.5h1.5h9h1.5v-1.5v-9v-1.5h-1.5H-132.5z M-132.5,92.2h9l-1.5-1.5v9l1.5-1.5h-9
			l1.5,1.5v-9L-132.5,92.2z M-154,69.2h52v52h-52V69.2z"/>
	</defs>
	<clipPath id="SVGID_160_">
		<use xlink:href="#SVGID_1207_"  overflow="visible"/>
	</clipPath>
	<g clip-path="url(#SVGID_160_)">
		<defs>
			<rect id="SVGID_1209_" x="-132.5" y="90.7" width="9" height="9"/>
		</defs>
		<clipPath id="SVGID_162_">
			<use xlink:href="#SVGID_1209_"  overflow="visible"/>
		</clipPath>
		<g clip-path="url(#SVGID_162_)">
			<defs>
				<rect id="SVGID_1211_" x="-1091.5" y="-463.3" width="1121" height="1030"/>
			</defs>
			<clipPath id="SVGID_164_">
				<use xlink:href="#SVGID_1211_"  overflow="visible"/>
			</clipPath>
		</g>
	</g>
</g>
<g>
	<defs>
		<rect id="SVGID_1213_" x="-132.5" y="90.7" width="9" height="9"/>
	</defs>
	<clipPath id="SVGID_166_">
		<use xlink:href="#SVGID_1213_"  overflow="visible"/>
	</clipPath>
	<g clip-path="url(#SVGID_166_)">
		<defs>
			<rect id="SVGID_1215_" x="-1091.5" y="-463.3" width="1121" height="1030"/>
		</defs>
		<clipPath id="SVGID_168_">
			<use xlink:href="#SVGID_1215_"  overflow="visible"/>
		</clipPath>
	</g>
</g>
</svg>
