<svg xmlns="http://www.w3.org/2000/svg" version="1.1" x="0" y="0" viewBox="0 0 171.592 125.859" enable-background="new 0 0 171.592 125.859" xml:space="preserve">

  <pattern x="-219.406" y="-333.465" width="72" height="72" patternUnits="userSpaceOnUse" viewBox="0 -72 72 72" overflow="visible">
    <polygon fill="none" points="0 0 72 0 72 -72 0 -72 "/>
    <polygon fill="#991B1E" points="72 0 0 0 0 -72 72 -72 "/>
  </pattern>

  <g id="Page-1" stroke="none" stroke-width="1" fill="none" fill-rule="evenodd">
      <rect id="Rectangle-path" x="75.446" y="24.372" width="3.739" height="8.618"></rect>
      <rect id="Rectangle-path" x="80.085" y="24.372" width="4.215" height="8.618"></rect>
      <rect id="Rectangle-path" x="85.2" y="24.372" width="4.215" height="8.618"></rect>
      <path d="M98.462,39.456 C97.91,39.268 97.511,38.751 97.511,38.136 C97.511,37.521 97.91,37.004 98.462,36.816 L98.462,33.891 L95.473,33.891 L95.473,34.322 L95.473,39.868 L74.545,39.868 L74.545,34.322 L74.545,33.891 L71.556,33.891 L71.556,36.816 C72.108,37.004 72.507,37.521 72.507,38.136 C72.507,38.751 72.108,39.268 71.556,39.456 L71.556,40.486 L98.462,40.486 L98.462,39.456 L98.462,39.456 L98.462,39.456 Z" id="Shape"></path>
      <path d="M82.083,45.964 L82.083,45.072 L69.897,45.072 C70.024,45.354 70.146,45.654 70.263,45.964 L82.083,45.964 L82.083,45.964 L82.083,45.964 Z" id="Shape"></path>
      <rect id="Rectangle-path" x="90.315" y="24.372" width="4.257" height="8.618"></rect>
      <path d="M70.655,39.456 C70.103,39.268 69.704,38.751 69.704,38.136 C69.704,37.521 70.103,37.004 70.655,36.816 L70.655,33.891 L65.552,33.891 L65.552,36.816 C66.104,37.004 66.503,37.521 66.503,38.136 C66.503,38.751 66.104,39.268 65.552,39.456 L65.552,40.486 L70.655,40.486 L70.655,39.456 L70.655,39.456 L70.655,39.456 Z" id="Shape"></path>
      <polygon id="Shape" points="89.455 21.916 95.488 21.916 94.717 21.261 89.101 21.261"></polygon>
      <polygon id="Shape" points="88.411 19.984 93.214 19.984 92.441 19.328 88.056 19.328"></polygon>
      <polygon id="Shape" points="88.661 16.119 87.888 15.463 85.967 15.463 86.321 16.119"></polygon>
      <polygon id="Shape" points="87.366 18.051 90.937 18.051 90.165 17.395 87.012 17.395"></polygon>
      <path d="M82.083,70.754 L70.201,70.754 C70.186,71.05 70.171,71.347 70.155,71.646 L82.083,71.646 L82.083,70.754 L82.083,70.754 L82.083,70.754 Z" id="Shape"></path>
      <path d="M70.481,65.226 L82.082,65.226 L82.082,64.334 L70.526,64.334 C70.511,64.628 70.496,64.925 70.481,65.226 L70.481,65.226 L70.481,65.226 Z" id="Shape"></path>
      <path d="M71.052,49.174 L82.083,49.174 L82.083,48.282 L70.913,48.282 C70.968,48.573 71.017,48.869 71.052,49.174 L71.052,49.174 L71.052,49.174 Z" id="Shape"></path>
      <path d="M104.465,39.456 C103.913,39.268 103.514,38.751 103.514,38.136 C103.514,37.521 103.913,37.004 104.465,36.816 L104.465,33.891 L99.362,33.891 L99.362,36.816 C99.914,37.004 100.313,37.521 100.313,38.136 C100.313,38.751 99.914,39.268 99.362,39.456 L99.362,40.486 L104.465,40.486 L104.465,39.456 L104.465,39.456 L104.465,39.456 Z" id="Shape"></path>
      <path d="M71.08,52.384 L82.083,52.384 L82.083,51.492 L71.111,51.492 C71.103,51.751 71.092,52.049 71.08,52.384 L71.08,52.384 L71.08,52.384 Z" id="Shape"></path>
      <path d="M70.641,62.015 L82.083,62.015 L82.083,61.123 L70.684,61.123 C70.67,61.417 70.656,61.713 70.641,62.015 L70.641,62.015 L70.641,62.015 Z" id="Shape"></path>
      <path d="M70.319,68.436 L82.083,68.436 L82.083,67.544 L70.364,67.544 C70.349,67.839 70.334,68.136 70.319,68.436 L70.319,68.436 L70.319,68.436 Z" id="Shape"></path>
      <path d="M70.796,58.805 L82.082,58.805 L82.082,57.913 L70.838,57.913 C70.825,58.203 70.811,58.501 70.796,58.805 L70.796,58.805 L70.796,58.805 Z" id="Shape"></path>
      <path d="M70.945,55.595 L82.082,55.595 L82.082,54.703 L70.985,54.703 C70.972,54.988 70.959,55.285 70.945,55.595 L70.945,55.595 L70.945,55.595 Z" id="Shape"></path>
      <path d="M77.733,78.645 C78.678,78.645 79.591,78.758 80.468,78.949 C80.576,78.656 80.68,78.357 80.79,78.067 L69.822,78.067 C69.838,77.769 69.853,77.471 69.869,77.175 L81.134,77.175 C81.441,76.39 81.753,75.615 82.073,74.857 L69.989,74.857 C70.004,74.558 70.02,74.261 70.035,73.965 L82.082,73.965 L82.082,74.833 C86.597,64.155 92.406,56.289 98.941,52.502 C99.094,56.542 99.548,65.648 100.092,76.103 L100.993,76.103 C100.321,63.195 99.786,52.34 99.786,50.542 C99.786,47.509 101.094,44.923 102.006,43.488 L107.492,43.488 L107.492,40.486 L105.364,40.486 L105.364,39.456 C105.916,39.268 106.315,38.751 106.315,38.136 C106.315,37.521 105.916,37.004 105.364,36.816 L105.364,33.891 L107.031,33.891 C107.28,33.891 107.481,33.689 107.481,33.441 C107.481,33.192 107.279,32.991 107.031,32.991 L105.364,32.991 L105.364,32.045 C105.364,31.796 105.162,31.595 104.914,31.595 C104.665,31.595 104.464,31.797 104.464,32.045 L104.464,32.991 L99.361,32.991 L99.361,32.045 C99.361,31.796 99.159,31.595 98.911,31.595 C98.662,31.595 98.461,31.797 98.461,32.045 L98.461,32.991 L95.472,32.991 L95.472,23.473 L74.545,23.473 L74.545,32.991 L71.556,32.991 L71.556,32.045 C71.556,31.796 71.355,31.595 71.106,31.595 C70.857,31.595 70.656,31.797 70.656,32.045 L70.656,32.991 L65.553,32.991 L65.553,32.045 C65.553,31.796 65.351,31.595 65.103,31.595 C64.854,31.595 64.653,31.797 64.653,32.045 L64.653,32.991 L62.986,32.991 C62.737,32.991 62.536,33.193 62.536,33.441 C62.536,33.69 62.738,33.891 62.986,33.891 L64.653,33.891 L64.653,36.816 C64.101,37.004 63.702,37.521 63.702,38.136 C63.702,38.751 64.101,39.268 64.653,39.456 L64.653,40.486 L62.525,40.486 L62.525,43.488 L68.008,43.488 C68.017,43.501 68.026,43.514 68.035,43.527 C68.946,44.969 70.231,47.535 70.231,50.542 C70.231,52.464 69.619,64.727 68.884,78.786 C69.911,79.117 70.865,79.585 71.725,80.169 C73.466,79.209 75.522,78.645 77.733,78.645 L77.733,78.645 L77.733,78.645 Z M99.362,39.456 C99.914,39.268 100.313,38.751 100.313,38.136 C100.313,37.521 99.914,37.004 99.362,36.816 L99.362,33.891 L104.465,33.891 L104.465,36.816 C103.913,37.004 103.514,37.521 103.514,38.136 C103.514,38.751 103.913,39.268 104.465,39.456 L104.465,40.486 L99.362,40.486 L99.362,39.456 L99.362,39.456 L99.362,39.456 Z M82.083,68.436 L70.319,68.436 C70.334,68.136 70.349,67.839 70.364,67.544 L82.082,67.544 L82.082,68.436 L82.083,68.436 L82.083,68.436 Z M82.083,65.226 L70.481,65.226 C70.496,64.925 70.511,64.628 70.526,64.334 L82.083,64.334 L82.083,65.226 L82.083,65.226 L82.083,65.226 Z M82.083,62.015 L70.641,62.015 C70.656,61.713 70.67,61.416 70.685,61.123 L82.083,61.123 L82.083,62.015 L82.083,62.015 L82.083,62.015 Z M82.083,58.805 L70.796,58.805 C70.81,58.501 70.825,58.203 70.838,57.913 L82.082,57.913 L82.082,58.805 L82.083,58.805 L82.083,58.805 Z M82.083,55.595 L70.945,55.595 C70.959,55.286 70.972,54.988 70.985,54.703 L82.083,54.703 L82.083,55.595 L82.083,55.595 L82.083,55.595 Z M82.083,52.384 L71.08,52.384 C71.093,52.048 71.103,51.751 71.111,51.492 L82.083,51.492 L82.083,52.384 L82.083,52.384 L82.083,52.384 Z M82.083,49.174 L71.052,49.174 C71.017,48.869 70.968,48.573 70.913,48.282 L82.082,48.282 L82.082,49.174 L82.083,49.174 L82.083,49.174 Z M90.315,24.372 L94.572,24.372 L94.572,32.99 L90.315,32.99 L90.315,24.372 L90.315,24.372 L90.315,24.372 Z M85.2,24.372 L89.415,24.372 L89.415,32.99 L85.2,32.99 L85.2,24.372 L85.2,24.372 L85.2,24.372 Z M80.085,24.372 L84.3,24.372 L84.3,32.99 L80.085,32.99 L80.085,24.372 L80.085,24.372 L80.085,24.372 Z M75.446,24.372 L79.185,24.372 L79.185,32.99 L75.446,32.99 L75.446,24.372 L75.446,24.372 L75.446,24.372 Z M71.556,39.456 C72.108,39.268 72.507,38.751 72.507,38.136 C72.507,37.521 72.108,37.004 71.556,36.816 L71.556,33.891 L74.545,33.891 L74.545,34.322 L74.545,39.868 L95.472,39.868 L95.472,34.322 L95.472,33.891 L98.461,33.891 L98.461,36.816 C97.909,37.004 97.51,37.521 97.51,38.136 C97.51,38.751 97.909,39.268 98.461,39.456 L98.461,40.486 L71.556,40.486 L71.556,39.456 L71.556,39.456 L71.556,39.456 Z M65.553,40.487 L65.553,39.457 C66.105,39.269 66.504,38.752 66.504,38.137 C66.504,37.522 66.105,37.005 65.553,36.817 L65.553,33.892 L70.656,33.892 L70.656,36.817 C70.104,37.005 69.705,37.522 69.705,38.137 C69.705,38.752 70.104,39.269 70.656,39.457 L70.656,40.487 L65.553,40.487 L65.553,40.487 L65.553,40.487 Z M69.897,45.071 L82.083,45.071 L82.083,45.963 L70.263,45.963 C70.146,45.653 70.024,45.354 69.897,45.071 L69.897,45.071 L69.897,45.071 Z M70.201,70.754 L82.083,70.754 L82.083,71.646 L70.155,71.646 C70.17,71.348 70.186,71.05 70.201,70.754 L70.201,70.754 L70.201,70.754 Z" id="Shape" fill="#324557"></path>
      <path d="M102.715,124.923 L96.51,124.935 L96.51,113.51 C96.51,111.159 94.587,109.236 92.236,109.236 L90.354,109.236 C88.003,109.236 86.08,111.159 86.08,113.51 L86.08,124.955 L85.01,124.957 L72.346,124.932 C72.364,124.29 72.383,123.649 72.408,123.011 L67.408,123.011 C67.423,122.735 67.439,122.438 67.457,122.119 L72.443,122.119 C72.477,121.343 72.516,120.57 72.56,119.801 L67.583,119.801 C67.599,119.513 67.615,119.215 67.632,118.909 L72.615,118.909 C72.663,118.133 72.716,117.36 72.774,116.591 L67.758,116.591 C67.774,116.299 67.79,116.002 67.807,115.699 L72.843,115.699 C72.906,114.922 72.974,114.15 73.047,113.381 L67.933,113.381 C67.949,113.087 67.965,112.79 67.981,112.489 L73.132,112.489 C73.209,111.712 73.29,110.939 73.378,110.171 L68.107,110.171 C68.123,109.876 68.139,109.579 68.155,109.279 L73.484,109.279 C73.577,108.502 73.674,107.729 73.777,106.961 L68.281,106.961 C68.297,106.666 68.313,106.368 68.329,106.069 L73.897,106.069 C74.006,105.291 74.12,104.519 74.239,103.751 L68.454,103.751 C68.47,103.455 68.486,103.158 68.502,102.859 L74.378,102.859 C74.503,102.081 74.633,101.308 74.768,100.541 L68.626,100.541 C68.642,100.245 68.658,99.947 68.674,99.649 L74.929,99.649 C75.019,99.157 75.114,98.671 75.208,98.183 C74.048,98.449 72.752,98.602 71.379,98.602 C70.123,98.602 68.93,98.476 67.848,98.252 C67.067,112.788 66.392,125.058 66.376,125.35 C66.369,125.473 66.413,125.594 66.498,125.684 C66.583,125.774 66.701,125.825 66.824,125.825 L84.808,125.861 C84.817,125.861 84.825,125.862 84.834,125.862 L85.179,125.862 L85.185,125.862 C85.194,125.862 85.203,125.862 85.211,125.861 L103.189,125.826 C103.313,125.826 103.431,125.775 103.515,125.685 C103.6,125.595 103.644,125.474 103.637,125.351 C103.621,125.055 102.929,112.489 102.136,97.722 L101.234,97.722 C101.95,110.982 102.581,122.478 102.715,124.923 L102.715,124.923 L102.715,124.923 Z" id="Shape" fill="#324557"></path>
      <path d="M72.664,22.572 L72.664,22.572 L80.208,22.572 L89.809,22.572 L97.353,22.572 L97.353,22.572 L86.892,13.689 L86.553,11.609 C87.074,11.169 87.405,10.513 87.405,9.778 C87.405,8.623 86.588,7.659 85.5,7.432 L85.5,0.492 C85.501,0.22 85.281,0 85.009,0 C84.737,0 84.517,0.22 84.517,0.492 L84.517,7.431 C83.429,7.658 82.612,8.622 82.612,9.777 C82.612,10.512 82.944,11.169 83.464,11.608 L83.125,13.688 L72.664,22.572 L72.664,22.572 L72.664,22.572 Z M95.488,21.916 L89.455,21.916 L89.101,21.261 L94.717,21.261 L95.488,21.916 L95.488,21.916 L95.488,21.916 Z M93.214,19.984 L88.411,19.984 L88.056,19.328 L92.441,19.328 L93.214,19.984 L93.214,19.984 L93.214,19.984 Z M90.937,18.051 L87.366,18.051 L87.011,17.395 L90.164,17.395 L90.937,18.051 L90.937,18.051 L90.937,18.051 Z M87.888,15.463 L88.661,16.119 L86.321,16.119 L85.966,15.463 L87.888,15.463 L87.888,15.463 L87.888,15.463 Z" id="Shape" fill="#324557"></path>
      <path d="M75.224,98.104 C75.219,98.13 75.214,98.156 75.209,98.181 C75.268,98.167 75.328,98.154 75.387,98.14 C75.332,98.13 75.279,98.115 75.224,98.104 L75.224,98.104 L75.224,98.104 Z" id="Shape" fill="#B3B3B3"></path>
      <polygon id="Shape" fill="#991B1E" points="0 77.462 3.717 77.462 11.178 88.64 11.178 77.462 15.024 77.462 15.024 94.681 11.487 94.681 3.846 83.296 3.846 94.681 0 94.681"></polygon>
      <polygon id="Shape" fill="#991B1E" points="18.38 77.462 22.278 77.462 22.278 84.071 29.739 84.071 29.739 77.462 33.637 77.462 33.637 94.681 29.739 94.681 29.739 87.608 22.278 87.608 22.278 94.681 18.38 94.681"></polygon>
      <polygon id="Shape" fill="#991B1E" points="41.665 77.462 45.563 77.462 45.563 84.071 53.024 84.071 53.024 77.462 56.922 77.462 56.922 94.681 53.024 94.681 53.024 87.608 45.563 87.608 45.563 94.681 41.665 94.681"></polygon>
      <path d="M70.759,93.364 C70.621,93.45 70.415,93.592 70.139,93.79 C69.864,93.988 69.507,94.182 69.068,94.371 C68.629,94.561 68.108,94.728 67.506,94.874 C66.903,95.02 66.215,95.094 65.441,95.094 C64.408,95.094 63.479,94.935 62.653,94.616 C61.827,94.298 61.126,93.855 60.549,93.286 C59.972,92.718 59.533,92.034 59.232,91.234 C58.931,90.434 58.78,89.552 58.78,88.588 C58.78,87.745 58.922,86.932 59.206,86.148 C59.49,85.365 59.899,84.681 60.432,84.096 C60.965,83.511 61.62,83.042 62.394,82.689 C63.169,82.336 64.046,82.16 65.027,82.16 C66.008,82.16 66.868,82.332 67.609,82.676 C68.349,83.02 68.973,83.498 69.481,84.109 C69.989,84.72 70.372,85.451 70.63,86.303 C70.888,87.155 71.017,88.089 71.017,89.104 L71.017,89.724 L62.395,89.724 C62.412,90.379 62.7,90.95 63.26,91.441 C63.819,91.932 64.589,92.177 65.57,92.177 C66.534,92.177 67.317,92.035 67.919,91.751 C68.521,91.467 68.96,91.222 69.236,91.015 L70.759,93.364 L70.759,93.364 L70.759,93.364 Z M67.506,87.349 C67.506,87.091 67.455,86.829 67.351,86.562 C67.248,86.295 67.093,86.05 66.886,85.826 C66.68,85.603 66.422,85.418 66.112,85.271 C65.802,85.125 65.432,85.052 65.002,85.052 C64.572,85.052 64.193,85.125 63.866,85.271 C63.539,85.418 63.268,85.603 63.053,85.826 C62.838,86.05 62.674,86.295 62.563,86.562 C62.451,86.829 62.395,87.091 62.395,87.349 L67.506,87.349 L67.506,87.349 L67.506,87.349 Z" id="Shape" fill="#991B1E"></path>
      <path d="M80.155,93.545 C79.742,94.027 79.221,94.397 78.593,94.655 C77.965,94.913 77.263,95.042 76.489,95.042 C76.059,95.042 75.607,94.981 75.134,94.861 C74.66,94.741 74.221,94.538 73.817,94.254 C73.412,93.97 73.077,93.587 72.81,93.105 C72.543,92.623 72.41,92.021 72.41,91.298 C72.41,90.593 72.552,89.965 72.836,89.414 C73.12,88.863 73.511,88.403 74.01,88.033 C74.509,87.663 75.098,87.384 75.778,87.194 C76.457,87.005 77.193,86.91 77.985,86.91 C78.415,86.91 78.85,86.919 79.289,86.936 C79.728,86.953 80.016,86.979 80.154,87.014 L80.154,86.756 C80.154,86.446 80.089,86.184 79.961,85.969 C79.832,85.754 79.659,85.573 79.445,85.427 C79.23,85.281 78.984,85.178 78.709,85.117 C78.434,85.057 78.141,85.027 77.831,85.027 C77.005,85.027 76.321,85.13 75.779,85.337 C75.237,85.543 74.776,85.776 74.398,86.034 L72.875,83.762 C73.133,83.573 73.426,83.384 73.753,83.194 C74.08,83.005 74.467,82.833 74.915,82.678 C75.362,82.523 75.866,82.398 76.425,82.304 C76.984,82.21 77.625,82.162 78.348,82.162 C80.189,82.162 81.549,82.657 82.427,83.646 C83.305,84.636 83.744,85.965 83.744,87.635 L83.744,94.682 L80.259,94.682 L80.155,93.545 L80.155,93.545 L80.155,93.545 Z M80.155,89.337 C80.069,89.32 79.905,89.298 79.665,89.272 C79.424,89.246 79.149,89.233 78.839,89.233 C77.806,89.233 77.075,89.38 76.645,89.672 C76.215,89.965 76,90.378 76,90.911 C76,91.909 76.602,92.408 77.807,92.408 C78.099,92.408 78.388,92.361 78.672,92.266 C78.956,92.172 79.205,92.038 79.42,91.866 C79.635,91.694 79.811,91.479 79.949,91.221 C80.086,90.963 80.155,90.662 80.155,90.318 L80.155,89.337 L80.155,89.337 L80.155,89.337 Z" id="Shape" fill="#991B1E"></path>
      <polygon id="Shape" fill="#991B1E" points="86.428 77.462 90.145 77.462 90.145 94.681 86.428 94.681"></polygon>
      <path d="M93.786,85.49 L91.876,85.49 L91.876,82.573 L93.786,82.573 L93.786,78.907 L97.503,78.907 L97.503,82.573 L100.627,82.573 L100.627,85.49 L97.503,85.49 L97.503,90.266 C97.503,90.851 97.619,91.303 97.852,91.621 C98.085,91.94 98.45,92.099 98.949,92.099 C99.327,92.099 99.655,92.034 99.93,91.906 C100.205,91.777 100.463,91.626 100.705,91.454 L102.202,93.726 C101.031,94.655 99.758,95.12 98.381,95.12 C97.52,95.12 96.797,94.995 96.212,94.746 C95.627,94.497 95.154,94.152 94.792,93.713 C94.43,93.274 94.172,92.745 94.017,92.125 C93.862,91.505 93.785,90.817 93.785,90.06 L93.785,85.49 L93.786,85.49 L93.786,85.49 Z" id="Shape" fill="#991B1E"></path>
      <path d="M103.673,77.462 L107.364,77.462 L107.364,83.735 C107.76,83.27 108.284,82.913 108.939,82.664 C109.593,82.415 110.256,82.29 110.927,82.29 C112.321,82.29 113.435,82.703 114.27,83.529 C115.104,84.355 115.522,85.577 115.522,87.195 L115.522,94.681 L111.83,94.681 L111.83,87.762 C111.83,87.057 111.649,86.506 111.288,86.11 C110.927,85.714 110.445,85.516 109.843,85.516 C109.447,85.516 109.094,85.589 108.784,85.736 C108.474,85.882 108.216,86.076 108.009,86.317 C107.803,86.558 107.648,86.838 107.544,87.156 C107.441,87.475 107.389,87.814 107.389,88.176 L107.389,94.681 L103.672,94.681 L103.672,77.462 L103.673,77.462 L103.673,77.462 Z" id="Shape" fill="#991B1E"></path>
      <path d="M134.083,91.505 C133.722,92.004 133.283,92.473 132.766,92.912 C132.25,93.351 131.677,93.734 131.049,94.061 C130.421,94.388 129.741,94.646 129.009,94.836 C128.277,95.025 127.516,95.12 126.724,95.12 C125.416,95.12 124.22,94.896 123.136,94.449 C122.052,94.002 121.118,93.378 120.335,92.577 C119.552,91.777 118.945,90.83 118.515,89.737 C118.085,88.644 117.87,87.444 117.87,86.136 C117.87,84.863 118.085,83.671 118.515,82.561 C118.945,81.451 119.551,80.487 120.335,79.67 C121.118,78.853 122.056,78.207 123.149,77.734 C124.242,77.261 125.45,77.024 126.776,77.024 C128.377,77.024 129.775,77.317 130.971,77.902 C132.167,78.487 133.161,79.331 133.953,80.432 L131.294,82.988 C130.778,82.265 130.167,81.684 129.461,81.246 C128.755,80.807 127.912,80.588 126.931,80.588 C126.156,80.588 125.459,80.73 124.84,81.014 C124.22,81.298 123.695,81.69 123.265,82.189 C122.835,82.688 122.504,83.269 122.271,83.931 C122.039,84.594 121.922,85.295 121.922,86.035 C121.922,86.793 122.038,87.498 122.271,88.152 C122.504,88.806 122.834,89.374 123.265,89.856 C123.695,90.338 124.211,90.717 124.814,90.992 C125.416,91.268 126.096,91.405 126.853,91.405 C127.473,91.405 128.01,91.34 128.466,91.212 C128.922,91.083 129.326,90.911 129.679,90.696 C130.032,90.481 130.346,90.231 130.621,89.948 C130.896,89.664 131.163,89.376 131.421,89.083 L134.083,91.505 L134.083,91.505 L134.083,91.505 Z" id="Shape" fill="#991B1E"></path>
      <path d="M135.529,88.614 C135.529,87.719 135.688,86.88 136.007,86.097 C136.325,85.314 136.769,84.63 137.337,84.045 C137.905,83.46 138.589,82.999 139.389,82.664 C140.189,82.328 141.071,82.161 142.035,82.161 C142.999,82.161 143.876,82.329 144.668,82.664 C145.459,83 146.14,83.46 146.707,84.045 C147.275,84.63 147.718,85.314 148.037,86.097 C148.355,86.88 148.514,87.719 148.514,88.614 C148.514,89.509 148.355,90.348 148.037,91.131 C147.718,91.914 147.275,92.599 146.707,93.183 C146.139,93.768 145.459,94.233 144.668,94.577 C143.876,94.921 142.998,95.093 142.035,95.093 C141.071,95.093 140.189,94.921 139.389,94.577 C138.589,94.233 137.905,93.768 137.337,93.183 C136.769,92.598 136.326,91.914 136.007,91.131 C135.688,90.348 135.529,89.509 135.529,88.614 L135.529,88.614 L135.529,88.614 Z M142.034,91.867 C142.499,91.867 142.912,91.777 143.273,91.596 C143.634,91.415 143.94,91.17 144.19,90.86 C144.439,90.55 144.624,90.202 144.745,89.814 C144.865,89.427 144.926,89.027 144.926,88.614 C144.926,88.201 144.865,87.801 144.745,87.414 C144.624,87.027 144.439,86.683 144.19,86.381 C143.94,86.08 143.635,85.839 143.273,85.658 C142.912,85.477 142.499,85.387 142.034,85.387 C141.569,85.387 141.152,85.477 140.782,85.658 C140.412,85.839 140.106,86.08 139.866,86.381 C139.625,86.682 139.44,87.026 139.311,87.414 C139.182,87.801 139.117,88.201 139.117,88.614 C139.117,89.027 139.182,89.427 139.311,89.814 C139.44,90.201 139.625,90.55 139.866,90.86 C140.107,91.17 140.412,91.415 140.782,91.596 C141.152,91.776 141.57,91.867 142.034,91.867 L142.034,91.867 L142.034,91.867 Z" id="Shape" fill="#991B1E"></path>
      <path d="M151.327,90.938 C151.723,91.299 152.243,91.601 152.889,91.841 C153.534,92.082 154.158,92.202 154.761,92.202 C155.312,92.202 155.768,92.133 156.129,91.995 C156.49,91.858 156.671,91.591 156.671,91.195 C156.671,91.04 156.632,90.898 156.555,90.769 C156.477,90.64 156.335,90.52 156.129,90.408 C155.923,90.296 155.634,90.18 155.264,90.059 C154.894,89.939 154.425,89.801 153.857,89.646 C153.393,89.526 152.932,89.366 152.476,89.168 C152.02,88.97 151.615,88.725 151.263,88.432 C150.91,88.14 150.626,87.787 150.411,87.374 C150.195,86.961 150.088,86.479 150.088,85.928 C150.088,85.36 150.217,84.848 150.475,84.392 C150.733,83.936 151.09,83.54 151.546,83.205 C152.002,82.869 152.544,82.611 153.172,82.43 C153.8,82.249 154.476,82.159 155.199,82.159 C156.232,82.159 157.135,82.275 157.91,82.508 C158.684,82.74 159.398,83.08 160.053,83.528 L158.478,85.98 C158.082,85.722 157.63,85.489 157.123,85.283 C156.615,85.077 156.043,84.973 155.406,84.973 C154.838,84.973 154.425,85.055 154.167,85.218 C153.909,85.382 153.78,85.601 153.78,85.876 C153.78,86.272 154.047,86.565 154.58,86.754 C155.113,86.943 155.836,87.158 156.748,87.399 C157.987,87.743 158.886,88.216 159.446,88.819 C160.005,89.422 160.285,90.222 160.285,91.22 C160.285,91.891 160.134,92.468 159.833,92.949 C159.531,93.431 159.127,93.831 158.619,94.15 C158.111,94.469 157.535,94.705 156.89,94.86 C156.245,95.015 155.586,95.093 154.915,95.093 C153.831,95.093 152.806,94.946 151.843,94.654 C150.879,94.362 150.096,93.914 149.494,93.312 L151.327,90.938 L151.327,90.938 L151.327,90.938 Z" id="Shape" fill="#991B1E"></path>
      <path d="M163.177,85.49 L161.267,85.49 L161.267,82.573 L163.177,82.573 L163.177,78.907 L166.894,78.907 L166.894,82.573 L170.018,82.573 L170.018,85.49 L166.894,85.49 L166.894,90.266 C166.894,90.851 167.01,91.303 167.243,91.621 C167.476,91.94 167.841,92.099 168.34,92.099 C168.718,92.099 169.046,92.034 169.321,91.906 C169.596,91.777 169.854,91.626 170.096,91.454 L171.593,93.726 C170.422,94.655 169.149,95.12 167.772,95.12 C166.911,95.12 166.188,94.995 165.603,94.746 C165.018,94.497 164.545,94.152 164.183,93.713 C163.821,93.274 163.563,92.745 163.408,92.125 C163.253,91.505 163.176,90.817 163.176,90.06 L163.176,85.49 L163.177,85.49 L163.177,85.49 Z" id="Shape" fill="#991B1E"></path>
      <path d="M165.825897,101.201993 C165.825897,101.121636 165.758933,101.059136 165.68304,101.059136 L162.142857,101.059136 C162.0625,101.059136 162,101.121636 162,101.201993 L162,101.724315 C162,101.800208 162.0625,101.862708 162.142857,101.862708 L163.468752,101.862708 L163.468752,105.487713 C163.468752,105.56807 163.531252,105.63057 163.611609,105.63057 L164.214288,105.63057 C164.290181,105.63057 164.352681,105.56807 164.352681,105.487713 L164.352681,101.862708 L165.68304,101.862708 C165.758933,101.862708 165.825897,101.800208 165.825897,101.724315 L165.825897,101.201993 Z M170.459832,101.1886 C170.455367,101.117172 170.392867,101.059136 170.316974,101.059136 L169.687509,101.059136 C169.629473,101.059136 169.580366,101.09485 169.558045,101.143958 L168.571436,103.465389 C168.540186,103.536818 168.513401,103.617175 168.482151,103.693068 C168.455365,103.617175 168.424115,103.536818 168.392865,103.465389 L167.410721,101.143958 C167.388399,101.09485 167.339292,101.059136 167.281256,101.059136 L166.647327,101.059136 C166.575898,101.059136 166.513398,101.117172 166.508934,101.1886 L166.160719,105.478784 C166.160719,105.518963 166.174112,105.554677 166.200898,105.585927 C166.227684,105.612713 166.263398,105.63057 166.303577,105.63057 L166.906256,105.63057 C166.977685,105.63057 167.040185,105.572534 167.044649,105.501106 L167.245542,102.867174 L168.084829,104.773426 C168.111614,104.826998 168.160722,104.858248 168.214293,104.858248 L168.750008,104.858248 C168.808044,104.858248 168.857151,104.826998 168.879472,104.773426 L169.723223,102.876102 L169.928581,105.501106 C169.933045,105.572534 169.995545,105.63057 170.066974,105.63057 L170.665189,105.63057 C170.705368,105.63057 170.741082,105.612713 170.767868,105.585927 C170.794653,105.554677 170.808046,105.518963 170.803582,105.478784 L170.459832,101.1886 Z" id="" fill="#991B1E"></path>
  </g>
</svg>
