<?xml version="1.0" encoding="utf-8"?>
<!-- Generator: Adobe Illustrator 16.0.0, SVG Export Plug-In . SVG Version: 6.00 Build 0)  -->
<!DOCTYPE svg PUBLIC "-//W3C//DTD SVG 1.1//EN" "http://www.w3.org/Graphics/SVG/1.1/DTD/svg11.dtd">
<svg version="1.1" id="Gfx" xmlns="http://www.w3.org/2000/svg" xmlns:xlink="http://www.w3.org/1999/xlink" x="0px" y="0px"
	 width="962px" height="356px" viewBox="0 0 962 356" enable-background="new 0 0 962 356" xml:space="preserve">
<g>
	<g>
		<path fill="#FFCB63" d="M765.813,338.261c0,2.495-1.941,4.09-4.991,4.09h-6.238v-8.145h6.204
			C763.942,334.206,765.813,335.592,765.813,338.261 M770.908,354.584l-6.551-9.184c3.397-0.937,5.788-3.362,5.788-7.382
			c0-4.748-3.431-7.694-9.011-7.694h-10.812v24.26h4.262v-8.456h5.338l5.961,8.456H770.908z M737.964,330.324h-17.987v24.26h18.16
			v-3.812h-13.897v-6.517h12.164v-3.812h-12.164v-6.308h13.725V330.324z M707.199,351.223v-10.189h-10.328v3.708h6.203v4.54
			c-1.49,1.109-3.568,1.837-5.856,1.837c-4.955,0-8.248-3.673-8.248-8.699c0-4.713,3.396-8.594,7.866-8.594
			c3.086,0,4.922,1.005,6.794,2.599l2.702-3.223c-2.494-2.114-5.094-3.293-9.321-3.293c-7.313,0-12.512,5.753-12.512,12.581
			c0,7.104,4.99,12.511,12.58,12.511C701.377,355,704.808,353.268,707.199,351.223 M673.143,351.223v-10.189h-10.328v3.708h6.204
			v4.54c-1.491,1.109-3.57,1.837-5.857,1.837c-4.956,0-8.249-3.673-8.249-8.699c0-4.713,3.397-8.594,7.867-8.594
			c3.085,0,4.922,1.005,6.793,2.599l2.703-3.223c-2.495-2.114-5.094-3.293-9.322-3.293c-7.312,0-12.511,5.753-12.511,12.581
			c0,7.104,4.99,12.511,12.58,12.511C667.319,355,670.75,353.268,673.143,351.223 M635.094,342.489c0,4.748-3.362,8.595-8.18,8.595
			s-8.249-3.917-8.249-8.665s3.362-8.594,8.18-8.594C631.661,333.825,635.094,337.741,635.094,342.489 M639.563,342.419
			c0-6.861-5.198-12.511-12.649-12.511s-12.719,5.719-12.719,12.581S619.394,355,626.845,355S639.563,349.281,639.563,342.419
			 M587.946,354.584h17.018v-3.882h-12.755v-20.378h-4.263V354.584z M566.941,350.807h-7.07v-6.654h6.759
			c3.361,0,4.99,1.213,4.99,3.293C571.62,349.663,569.853,350.807,566.941,350.807 M565.694,340.548h-5.823v-6.445h6.136
			c2.736,0,4.262,1.144,4.262,3.119C570.269,339.475,568.433,340.548,565.694,340.548 M566.561,330.324h-10.882v24.26h11.229
			c5.406,0,8.977-2.322,8.977-6.688c0-3.327-1.977-4.956-4.818-5.927c1.803-0.936,3.466-2.461,3.466-5.44
			C574.531,332.716,571.447,330.324,566.561,330.324 M520.987,347.099l-12.996-16.774h-3.951v24.26h4.194v-17.259l13.377,17.259
			h3.57v-24.26h-4.194V347.099z M487.386,342.489c0,4.748-3.362,8.595-8.179,8.595c-4.817,0-8.25-3.917-8.25-8.665
			s3.362-8.594,8.18-8.594S487.386,337.741,487.386,342.489 M491.855,342.419c0-6.861-5.198-12.511-12.648-12.511
			c-7.451,0-12.72,5.719-12.72,12.581S471.686,355,479.137,355C486.589,355,491.855,349.281,491.855,342.419 M450.008,354.584h4.264
			v-24.26h-4.264V354.584z M432.236,344.36v10.224h4.264v-24.26h-4.264v10.085h-11.574v-10.085h-4.264v24.26h4.264V344.36H432.236z
			 M390.818,336.666c0-1.628,1.456-2.911,3.951-2.911c2.218,0,4.402,0.867,6.585,2.496l2.287-3.224
			c-2.46-1.976-5.269-3.049-8.804-3.049c-4.816,0-8.281,2.842-8.281,7.069c0,4.505,2.91,6.03,8.074,7.278
			c4.506,1.039,5.476,1.975,5.476,3.742c0,1.872-1.663,3.085-4.297,3.085c-3.015,0-5.337-1.145-7.659-3.154l-2.564,3.05
			c2.91,2.6,6.412,3.882,10.119,3.882c5.094,0,8.664-2.703,8.664-7.277c0-4.055-2.669-5.893-7.798-7.14
			C391.928,339.404,390.818,338.573,390.818,336.666 M367.619,344.949h-8.352l4.158-9.703L367.619,344.949z M365.472,330.151h-3.951
			l-10.674,24.433h4.366l2.496-5.856h11.471l2.461,5.856h4.505L365.472,330.151z M343.592,330.324h-18.055v24.26h4.262v-9.877
			h12.234v-3.882h-12.234v-6.619h13.793V330.324z M288.594,344.949h-8.353l4.159-9.703L288.594,344.949z M286.444,330.151h-3.95
			l-10.675,24.433h4.367l2.495-5.856h11.472l2.46,5.856h4.506L286.444,330.151z M231.064,336.666c0-1.628,1.455-2.911,3.95-2.911
			c2.218,0,4.401,0.867,6.585,2.496l2.288-3.224c-2.462-1.976-5.269-3.049-8.804-3.049c-4.817,0-8.283,2.842-8.283,7.069
			c0,4.505,2.912,6.03,8.076,7.278c4.504,1.039,5.476,1.975,5.476,3.742c0,1.872-1.664,3.085-4.298,3.085
			c-3.016,0-5.338-1.145-7.659-3.154l-2.565,3.05c2.912,2.6,6.412,3.882,10.121,3.882c5.094,0,8.663-2.703,8.663-7.277
			c0-4.055-2.668-5.893-7.797-7.14C232.174,339.404,231.064,338.573,231.064,336.666 M207.865,344.949h-8.353l4.159-9.703
			L207.865,344.949z M205.717,330.151h-3.951l-10.674,24.433h4.367l2.494-5.856h11.471l2.461,5.856h4.506L205.717,330.151z"/>
	</g>
	<g>
		<path fill="#FFFFFF" d="M909.812,163.511v10.917h8.733l-12.131,39.301c-4.04,13.1-4.81,23.13-2.304,30.082
			c2.505,6.955,7.399,10.431,14.677,10.431c4.526,0,8.977-2.02,13.344-6.064c4.365-4.04,8.448-8.854,12.251-14.435
			c3.798-5.58,7.155-11.401,10.067-17.467c2.911-6.064,5.095-11.038,6.55-14.92h-3.882c-0.97,2.104-2.547,5.216-4.73,9.34
			s-4.609,8.249-7.278,12.373c-2.668,4.124-5.42,7.726-8.248,10.795c-2.831,3.074-5.458,4.609-7.884,4.609
			c-2.589,0-3.923-2.062-4.003-6.187c-0.083-4.124,1.251-10.31,4.003-18.558l11.887-39.301h18.438v-10.917h-15.283
			c1.615-5.174,3.112-10.147,4.488-14.919c1.372-4.769,2.627-9.014,3.76-12.737l3.639-12.129h-21.834l-12.129,39.785H909.812z
			 M911.947,117.661c-2.912-2.748-6.308-4.124-10.188-4.124c-4.208,0-7.727,1.376-10.554,4.124
			c-2.832,2.752-4.246,6.228-4.246,10.431c0,4.045,1.414,7.521,4.246,10.432c2.827,2.911,6.346,4.367,10.554,4.367
			c3.881,0,7.276-1.456,10.188-4.367c2.911-2.911,4.366-6.387,4.366-10.432C916.313,123.889,914.858,120.413,911.947,117.661
			 M888.779,207.905c2.021-6.629,4.082-13.342,6.187-20.135c2.426-7.763,5.011-16.171,7.763-25.23h-21.834l-18.68,60.164
			c-1.94,6.471-2.949,11.767-3.032,15.891c-0.08,4.124,0.485,7.318,1.698,9.582c1.213,2.267,2.79,3.844,4.73,4.73
			c1.941,0.892,3.961,1.334,6.065,1.334c2.263,0,4.768-0.484,7.52-1.455c2.748-0.971,5.496-2.548,8.248-4.73
			c2.749-2.184,5.417-5.011,8.006-8.491c2.585-3.476,4.853-7.721,6.793-12.736h-3.396c-1.94,4.207-4.328,7.156-7.156,8.855
			c-2.832,1.698-4.973,2.304-6.429,1.819c-0.648-0.159-1.255-0.443-1.819-0.85c-0.569-0.401-0.971-1.13-1.213-2.183
			c-0.243-1.05-0.205-2.506,0.121-4.367c0.322-1.857,0.97-4.325,1.94-7.399C885.262,219.471,886.755,214.539,888.779,207.905
			 M767.605,231.316c-0.326-2.991-0.041-6.793,0.849-11.402c0.888-4.608,2.306-9.541,4.246-14.798
			c1.94-5.254,4.162-10.188,6.671-14.799c2.507-4.608,5.134-8.407,7.885-11.402c2.749-2.991,5.338-4.487,7.763-4.487
			c1.13,0,2.184,0.243,3.154,0.728c-0.971,3.396-2.104,7.278-3.396,11.646c-1.296,4.366-2.669,9.059-4.124,14.069
			c-1.456,5.016-2.953,10.068-4.488,15.162c-1.539,5.096-3.032,10.068-4.487,14.92c-1.297,0.812-2.911,1.819-4.853,3.032
			c-1.94,1.213-3.722,1.82-5.337,1.82C769.221,235.805,767.928,234.311,767.605,231.316 M772.7,260.913
			c-1.456,5.254-3.032,10.105-4.73,14.556c-1.698,4.446-3.602,8.127-5.701,11.039c-2.104,2.911-4.53,4.365-7.278,4.365
			c-3.236,0-5.299-1.175-6.186-3.517c-0.892-2.347-0.933-4.693-0.121-7.036c0.807-2.346,2.426-4.124,4.852-5.337
			c2.427-1.213,5.416-0.605,8.977,1.82c2.1-4.53,2.062-8.37-0.122-11.524c-2.184-3.152-5.178-5.136-8.977-5.942
			c-3.802-0.812-7.763-0.326-11.887,1.455c-4.124,1.777-7.073,5.254-8.854,10.432c-1.292,3.556-1.656,6.914-1.092,10.068
			c0.568,3.152,1.819,5.942,3.761,8.368c1.94,2.427,4.57,4.367,7.884,5.823c3.312,1.455,7.074,2.184,11.281,2.184
			c6.144,0,11.522-1.377,16.133-4.124c4.608-2.753,8.69-6.472,12.251-11.16c3.555-4.692,6.629-10.109,9.218-16.254
			c2.586-6.148,4.932-12.694,7.036-19.65c2.426-8.733,5.053-17.831,7.884-27.292c2.828-9.461,5.459-18.316,7.884-26.564
			c2.912-9.378,5.66-18.68,8.249-27.898c-5.337-2.426-11.28-3.313-17.831-2.668c-6.55,0.648-13.062,2.668-19.528,6.065
			c-6.472,3.396-12.577,8.127-18.316,14.192c-5.743,6.064-10.473,13.384-14.191,21.954c-3.723,8.412-6.229,15.769-7.521,22.077
			c-1.293,6.307-1.699,11.522-1.213,15.646c0.485,4.124,1.736,7.198,3.76,9.22c2.021,2.023,4.647,3.031,7.884,3.031
			c3.397,0,6.952-0.887,10.675-2.668c3.719-1.777,7.194-4.041,10.432-6.793c0,0.326-0.042,0.569-0.121,0.729
			c-0.084,0.163-0.122,0.326-0.122,0.484C775.611,250.687,774.155,255.655,772.7,260.913 M721.029,185.102
			c-0.97,3.723-2.468,8.332-4.488,13.828c-2.023,5.5-4.166,11.485-6.429,17.952c-2.266,6.471-3.802,12.456-4.608,17.953
			c-0.812,5.5-0.485,10.108,0.97,13.827c1.456,3.723,4.932,5.579,10.432,5.579c2.101,0,4.488-0.484,7.157-1.455
			c2.668-0.971,5.416-2.548,8.248-4.73c2.828-2.184,5.538-5.011,8.127-8.491c2.585-3.476,4.852-7.721,6.792-12.736h-3.396
			c-1.941,4.207-4.329,7.035-7.156,8.491c-2.832,1.455-4.895,2.184-6.188,2.184c-2.589,0-3.559-1.857-2.911-5.58
			c0.646-3.719,1.979-8.327,4.003-13.828c2.021-5.496,4.245-11.523,6.672-18.073c2.426-6.55,4.203-12.573,5.338-18.073
			c1.129-5.497,1.091-10.106-0.122-13.828c-1.213-3.719-4.408-5.58-9.582-5.58c-4.208,0-8.127,1.418-11.767,4.245
			c-3.639,2.832-7.076,6.513-10.311,11.038l4.61-15.283h-22.076l-27.656,92.429h22.076l15.283-50.945
			c1.13-2.748,2.343-5.58,3.639-8.491c1.293-2.911,2.586-5.538,3.882-7.884c1.293-2.343,2.668-4.284,4.124-5.823
			c1.456-1.534,2.828-2.304,4.124-2.304C721.595,179.522,722,181.384,721.029,185.102 M683.767,117.661
			c-2.911-2.748-6.308-4.124-10.189-4.124c-4.207,0-7.725,1.376-10.553,4.124c-2.831,2.752-4.245,6.228-4.245,10.431
			c0,4.045,1.414,7.521,4.245,10.432c2.828,2.911,6.346,4.367,10.553,4.367c3.882,0,7.278-1.456,10.189-4.367
			c2.912-2.911,4.367-6.387,4.367-10.432C688.134,123.889,686.679,120.413,683.767,117.661 M660.599,207.905
			c2.021-6.629,4.083-13.342,6.187-20.135c2.427-7.763,5.012-16.171,7.764-25.23h-21.834l-18.681,60.164
			c-1.94,6.471-2.948,11.767-3.031,15.891c-0.08,4.124,0.484,7.318,1.697,9.582c1.213,2.267,2.79,3.844,4.73,4.73
			c1.94,0.892,3.962,1.334,6.064,1.334c2.264,0,4.77-0.484,7.521-1.455c2.748-0.971,5.496-2.548,8.248-4.73
			c2.748-2.184,5.417-5.011,8.006-8.491c2.585-3.476,4.852-7.721,6.793-12.736h-3.397c-1.94,4.207-4.328,7.156-7.155,8.855
			c-2.832,1.698-4.975,2.304-6.43,1.819c-0.647-0.159-1.255-0.443-1.819-0.85c-0.568-0.401-0.971-1.13-1.213-2.183
			c-0.242-1.05-0.204-2.506,0.122-4.367c0.321-1.857,0.97-4.325,1.939-7.399C657.081,219.471,658.574,214.539,660.599,207.905
			 M608.271,184.011c0,2.994-0.891,6.349-2.669,10.066c-1.781,3.724-4.287,7.278-7.521,10.676c-3.236,3.396-7.034,5.42-11.401,6.064
			l1.698-5.095c1.13-2.748,2.384-5.659,3.76-8.733c1.373-3.07,2.79-5.901,4.246-8.491c1.455-2.585,2.911-4.73,4.367-6.429
			c1.454-1.698,2.91-2.547,4.365-2.547C607.218,179.522,608.271,181.02,608.271,184.011 M595.656,106.744L551.504,254.97h22.076
			l10.432-35.419c0.322,3.236,0.808,6.834,1.456,10.796c0.644,3.964,1.655,7.725,3.032,11.28c1.372,3.56,3.153,6.55,5.338,8.976
			c2.183,2.426,4.973,3.639,8.368,3.639c2.101,0,4.488-0.484,7.157-1.455c2.668-0.971,5.416-2.548,8.248-4.73
			c2.828-2.184,5.58-5.011,8.248-8.491c2.669-3.476,4.973-7.721,6.914-12.736h-3.881c-2.104,4.207-4.488,7.319-7.157,9.341
			c-2.668,2.023-4.973,3.031-6.914,3.031c-1.94,0-3.639-0.765-5.094-2.304c-1.456-1.536-2.669-3.518-3.639-5.944
			c-0.972-2.426-1.661-5.053-2.062-7.884c-0.406-2.828-0.606-5.538-0.606-8.127c6.951-2.426,12.614-6.509,16.981-12.251
			c4.367-5.739,7.278-11.603,8.733-17.589c1.456-5.981,1.335-11.239-0.364-15.768c-1.698-4.526-5.056-6.793-10.067-6.793
			c-4.208,0-8.127,1.456-11.766,4.367c-3.639,2.911-7.077,6.713-10.311,11.402l21.349-71.566H595.656z M528.799,180.978
			c-2.752,2.426-4.408,5.337-4.974,8.734c-0.567,3.396,0.038,6.55,1.82,9.461c1.777,2.911,5.094,4.366,9.946,4.366
			c4.367,0,8.127-1.009,11.28-3.032c3.153-2.021,5.701-4.567,7.642-7.643c1.94-3.069,3.154-6.345,3.64-9.825
			c0.485-3.476,0.159-6.75-0.971-9.825c-1.133-3.07-3.154-5.617-6.065-7.642c-2.911-2.02-6.713-3.032-11.401-3.032
			c-9.06,0-17.065,2.267-24.018,6.793c-6.956,4.529-12.735,10.151-17.346,16.86c-4.609,6.713-7.884,14.033-9.825,21.955
			c-1.939,7.926-2.463,15.246-1.576,21.955c0.888,6.713,3.396,12.334,7.521,16.86c4.124,4.529,9.983,6.793,17.588,6.793
			c4.204,0,8.165-0.645,11.887-1.941c3.719-1.292,7.195-2.99,10.433-5.094c3.232-2.101,6.224-4.488,8.976-7.157
			c2.748-2.668,5.254-5.458,7.521-8.369c5.338-6.467,9.863-13.987,13.586-22.562h-4.124c-3.56,6.147-7.441,11.564-11.646,16.254
			c-3.722,4.045-7.926,7.725-12.615,11.038c-4.692,3.316-9.704,4.973-15.041,4.973c-3.396,0-5.904-1.736-7.52-5.215
			c-1.619-3.477-2.547-7.843-2.79-13.101c-0.243-5.254,0.201-10.916,1.334-16.981c1.13-6.065,2.79-11.724,4.973-16.982
			c2.185-5.254,4.812-9.62,7.886-13.1c3.069-3.476,6.466-5.216,10.188-5.216c3.07,0,5.417,0.97,7.035,2.911
			c1.615,1.941,2.585,4.086,2.911,6.429c0.321,2.346,0.201,4.488-0.364,6.429c-0.568,1.941-1.497,2.911-2.789,2.911
			c-0.971,0-1.862-0.364-2.669-1.092c-0.811-0.729-1.376-1.615-1.698-2.668c-0.326-1.05-0.405-2.185-0.243-3.397
			c0.159-1.213,0.729-2.221,1.698-3.031C534.943,177.824,531.548,178.552,528.799,180.978 M438.12,238.473
			c-0.326-3.396-0.122-7.679,0.606-12.857c0.728-5.174,1.856-10.712,3.396-16.618c1.536-5.901,3.313-11.439,5.337-16.617
			c2.021-5.175,4.163-9.461,6.43-12.857c2.263-3.397,4.446-5.095,6.55-5.095c2.1,0,3.312,1.698,3.639,5.095
			c0.322,3.396,0.08,7.683-0.727,12.857c-0.812,5.178-2.063,10.716-3.762,16.617c-1.697,5.906-3.601,11.444-5.7,16.618
			c-2.104,5.179-4.245,9.461-6.43,12.857c-2.183,3.396-4.245,5.095-6.186,5.095C439.492,243.567,438.442,241.869,438.12,238.473
			 M450.613,166.059c-4.609,2.346-8.976,5.579-13.1,9.703c-4.124,4.125-7.847,8.976-11.159,14.556
			c-3.317,5.58-5.864,11.523-7.643,17.831c-1.781,6.307-2.995,12.251-3.639,17.831c-0.645,5.58-0.326,10.431,0.97,14.556
			c1.293,4.124,3.64,7.361,7.036,9.703c3.396,2.348,8.164,3.519,14.313,3.519c4.365,0,8.812-1.171,13.342-3.519
			c4.526-2.342,8.854-5.579,12.979-9.703c4.125-4.125,7.886-8.976,11.281-14.556c3.396-5.58,6.065-11.524,8.006-17.831
			c1.778-6.308,2.991-12.251,3.64-17.831c0.644-5.58,0.322-10.431-0.971-14.556c-1.297-4.124-3.64-7.357-7.036-9.703
			c-3.396-2.343-8.169-3.518-14.312-3.518C459.79,162.541,455.223,163.715,450.613,166.059 M399.914,131.488
			c0.887,7.763,0.402,15.041-1.455,21.833c-1.861,6.793-4.852,12.456-8.976,16.982c-4.125,4.53-8.939,6.793-14.436,6.793
			c-4.529,0-9.139-1.13-13.827-3.397c2.426-7.278,4.769-14.271,7.034-20.984c2.264-6.709,4.61-12.896,7.036-18.559
			c2.426-5.659,5.012-10.553,7.764-14.677c2.748-4.124,5.738-7.316,8.976-9.582C396.397,116.53,399.023,123.726,399.914,131.488
			 M281.649,264.31c-1.456-1.213-2.388-2.631-2.79-4.245c-0.406-1.619-0.243-3.275,0.485-4.974c0.728-1.698,1.777-3.07,3.153-4.124
			c1.372-1.05,2.99-1.577,4.853-1.577c1.856,0,3.839,0.891,5.942,2.669c2.748-3.882,4.003-7.316,3.761-10.311
			c-0.242-2.99-1.455-5.417-3.639-7.277c-2.184-1.858-4.936-3.112-8.249-3.761c-3.316-0.645-6.671-0.606-10.066,0.121
			c-3.397,0.729-6.514,2.184-9.341,4.366c-2.831,2.185-4.73,5.216-5.7,9.099c-1.456,5.821-1.699,10.712-0.729,14.677
			c0.97,3.961,2.79,7.194,5.458,9.704c2.669,2.505,5.944,4.325,9.825,5.458c3.882,1.13,7.923,1.697,12.13,1.697
			c9.704,0,18.153-2.71,25.352-8.127c7.194-5.42,13.586-12.492,19.166-21.227c5.578-8.733,10.469-18.596,14.677-29.597
			c4.203-10.996,8.164-22.076,11.887-33.235c5.496,2.426,9.378,6.106,11.644,11.038c2.264,4.935,3.72,10.432,4.367,16.496
			c0.645,6.064,0.888,12.373,0.729,18.923c-0.163,6.55,0.038,12.778,0.605,18.68c0.565,5.906,1.858,11.038,3.882,15.405
			c2.021,4.366,5.618,7.438,10.796,9.218c2.911,0.972,5.738,1.213,8.49,0.729c2.749-0.485,5.296-1.376,7.643-2.668
			c2.343-1.297,4.325-2.912,5.943-4.853c1.614-1.94,2.668-3.802,3.153-5.58c-4.366,0.485-7.603-0.283-9.703-2.305
			c-2.104-2.024-3.601-4.931-4.487-8.733c-0.892-3.798-1.456-8.165-1.699-13.1c-0.242-4.932-0.689-10.068-1.334-15.405
			c-0.648-5.337-1.781-10.633-3.396-15.89c-1.619-5.254-4.287-10.068-8.006-14.435c-2.104-1.13-4.124-2.142-6.064-3.032
			c-1.941-0.888-3.966-1.736-6.065-2.547h0.243c9.541,0,18.152-2.627,25.836-7.885c7.68-5.254,13.745-11.845,18.195-19.771
			c4.445-7.923,6.913-16.535,7.398-25.837c0.485-9.298-1.66-17.91-6.429-25.836c-4.772-7.923-12.535-14.514-23.289-19.772
			c-10.757-5.254-25.108-7.884-43.062-7.884c-13.585,0-25.999,2.062-37.237,6.186c-11.243,4.124-21.148,9.582-29.719,16.375
			c-8.573,6.793-15.81,14.556-21.712,23.289c-5.905,8.734-10.352,17.589-13.343,26.565c-2.995,8.976-4.53,17.83-4.609,26.564
			c-0.083,8.733,1.372,16.496,4.366,23.289c2.991,6.793,7.601,12.251,13.828,16.375c6.225,4.124,14.109,6.188,23.653,6.188
			c4.041,0,7.923-0.646,11.645-1.941c3.719-1.293,6.993-3.07,9.825-5.337c2.828-2.263,5.095-4.974,6.793-8.127
			c1.698-3.154,2.547-6.672,2.547-10.553c0-5.823-1.697-10.026-5.095-12.615c-3.396-2.585-7.118-3.84-11.159-3.76
			c-4.044,0.083-7.763,1.375-11.159,3.881c-3.396,2.509-5.095,5.944-5.095,10.31c5.011,0,8.612,0.934,10.796,2.79
			c2.184,1.861,3.313,3.924,3.396,6.187c0.08,2.267-0.69,4.329-2.306,6.187c-1.617,1.861-3.722,2.79-6.307,2.79
			c-5.822,0-10.474-3.07-13.949-9.219c-3.479-6.145-5.58-13.828-6.308-23.047c-0.729-9.218,0.038-19.203,2.305-29.96
			c2.263-10.754,6.308-20.742,12.13-29.961c5.822-9.219,13.585-16.898,23.289-23.047c9.704-6.144,21.507-9.218,35.419-9.218
			c10.349,0,19.081,1.577,26.2,4.73c7.115,3.154,12.858,7.157,17.224,12.009c-7.603,0.326-14.434,2.831-20.499,7.52
			c-6.064,4.693-11.484,10.838-16.254,18.438c-4.771,7.604-9.059,16.216-12.856,25.836c-3.802,9.624-7.32,19.408-10.553,29.354
			c-3.238,9.947-6.309,19.691-9.22,29.232c-2.911,9.545-5.943,18.036-9.097,25.474c-3.154,7.44-6.471,13.426-9.947,17.952
			c-3.479,4.525-7.398,6.792-11.766,6.792C285.367,266.129,283.104,265.522,281.649,264.31 M166.419,162.541l-27.655,92.429h22.076
			l21.349-71.809c0.645,5.179,2.221,9.018,4.73,11.523c2.505,2.509,5.659,3.639,9.461,3.396c3.799-0.241,8.127-1.856,12.979-4.852
			c4.852-2.99,9.863-7.558,15.041-13.706c-2.426,1.133-4.937,1.819-7.521,2.062c-2.589,0.241-4.852-0.322-6.792-1.698
			c-1.94-1.373-3.358-3.639-4.246-6.793c-0.891-3.154-0.849-7.642,0.122-13.464L185.1,173.458l3.396-10.917H166.419z
			 M97.623,238.473c-0.326-3.396-0.122-7.679,0.606-12.857c0.728-5.174,1.857-10.712,3.396-16.618
			c1.535-5.901,3.313-11.439,5.337-16.617c2.021-5.175,4.162-9.461,6.429-12.857c2.263-3.397,4.446-5.095,6.551-5.095
			c2.1,0,3.312,1.698,3.639,5.095c0.322,3.396,0.079,7.683-0.728,12.857c-0.812,5.178-2.062,10.716-3.762,16.617
			c-1.697,5.906-3.601,11.444-5.7,16.618c-2.104,5.179-4.245,9.461-6.429,12.857s-4.246,5.095-6.187,5.095
			C98.995,243.567,97.945,241.869,97.623,238.473 M110.116,166.059c-4.609,2.346-8.976,5.579-13.1,9.703
			c-4.124,4.125-7.847,8.976-11.159,14.556c-3.317,5.58-5.864,11.523-7.643,17.831c-1.781,6.307-2.993,12.251-3.639,17.831
			c-0.644,5.58-0.326,10.431,0.971,14.556c1.292,4.124,3.639,7.361,7.035,9.703c3.396,2.348,8.165,3.519,14.313,3.519
			c4.367,0,8.812-1.171,13.343-3.519c4.526-2.342,8.854-5.579,12.979-9.703c4.124-4.125,7.885-8.976,11.28-14.556
			c3.397-5.58,6.065-11.524,8.006-17.831c1.778-6.308,2.991-12.251,3.64-17.831c0.644-5.58,0.321-10.431-0.971-14.556
			c-1.297-4.124-3.639-7.357-7.035-9.703c-3.396-2.343-8.169-3.518-14.313-3.518C119.293,162.541,114.727,163.715,110.116,166.059
			 M74.87,102.741c-4.771,1.054-9.302,3.116-13.585,6.186c-4.287,3.074-8.29,7.361-12.009,12.858
			c-3.722,5.5-6.876,12.698-9.461,21.591c-1.297,4.367-2.873,9.582-4.731,15.647c-1.86,6.065-3.843,12.577-5.942,19.529
			c-2.104,6.956-4.246,14.153-6.43,21.591c-2.183,7.441-4.329,14.719-6.429,21.834C11.272,238.636,6.178,256.02,1,274.135h22.562
			c2.263-8.411,4.768-17.146,7.52-26.2c2.264-7.763,4.812-16.497,7.643-26.201c2.827-9.703,5.617-19.407,8.369-29.111
			c0.645,5.016,2.222,8.733,4.73,11.159c2.506,2.427,5.701,3.519,9.583,3.275c3.881-0.242,8.206-1.899,12.979-4.973
			c4.768-3.07,9.741-7.601,14.92-13.586c-2.427,1.134-4.937,1.819-7.521,2.062c-2.589,0.242-4.852-0.281-6.793-1.577
			c-1.94-1.293-3.438-3.556-4.488-6.793c-1.053-3.232-1.175-7.763-0.363-13.585l-19.893,13.828
			c1.614-5.823,3.233-11.44,4.852-16.861c1.614-5.416,3.032-10.31,4.246-14.677c1.213-4.366,2.263-8.085,3.153-11.159
			c0.888-3.07,1.576-5.254,2.062-6.55c2.263-7.278,5.174-13.222,8.732-17.831c3.557-4.609,7.438-6.914,11.646-6.914
			c3.069,0,5.416,0.97,7.035,2.911c1.614,1.941,2.585,4.086,2.91,6.429c0.322,2.346,0.201,4.488-0.363,6.429
			c-0.568,1.941-1.497,2.911-2.79,2.911c-0.97,0-1.861-0.364-2.668-1.092c-0.812-0.728-1.334-1.615-1.577-2.668
			c-0.243-1.05-0.243-2.184,0-3.397c0.243-1.213,0.849-2.221,1.82-3.032c-4.208-0.971-7.685-0.243-10.433,2.183
			c-2.752,2.426-4.45,5.299-5.095,8.612c-0.648,3.317-0.083,6.471,1.699,9.462c1.776,2.994,5.094,4.488,9.945,4.488
			c4.367,0,8.165-1.009,11.402-3.033c3.233-2.02,5.781-4.526,7.642-7.52c1.857-2.991,3.07-6.224,3.64-9.704
			c0.563-3.476,0.242-6.709-0.971-9.704c-1.214-2.991-3.275-5.496-6.187-7.52c-2.911-2.021-6.793-3.033-11.644-3.033
			C84.453,101.164,79.64,101.69,74.87,102.741"/>
	</g>
	<path fill="#FFCB63" d="M716.75,46.784c0.572-1.525,2.385-2.214,4.723-1.338c2.074,0.779,3.816,2.357,5.289,4.648l3.271-2.214
		c-1.609-2.714-3.861-4.706-7.17-5.947c-4.512-1.691-8.754-0.247-10.238,3.712c-1.582,4.218,0.607,6.668,5.004,9.649
		c3.855,2.556,4.436,3.773,3.814,5.428c-0.658,1.752-2.641,2.304-5.107,1.379c-2.822-1.059-4.596-2.945-6.064-5.642l-3.471,1.955
		c1.812,3.456,4.641,5.885,8.111,7.187c4.771,1.789,9.062,0.511,10.668-3.772c1.424-3.797-0.43-6.453-4.795-9.423
		C716.826,49.737,716.08,48.569,716.75,46.784 M701.129,34.595l-17.139-5.453l-7.355,23.118l17.307,5.505l1.156-3.633l-13.244-4.213
		l1.975-6.208l11.592,3.687l1.156-3.633l-11.592-3.687l1.912-6.011l13.078,4.16L701.129,34.595z M647.885,44.487l16.447,4.362
		l0.996-3.752L653,41.828l5.225-19.697l-4.119-1.093L647.885,44.487z M638.314,17.457l-4.174-0.866l-2.834,13.676
		c-0.908,4.378-3.646,6.146-7.346,5.379c-3.732-0.774-5.514-3.621-4.6-8.032l2.801-13.506l-4.174-0.866l-2.836,13.676
		c-1.428,6.889,1.77,11.268,7.947,12.549c6.209,1.287,10.953-1.446,12.422-8.538L638.314,17.457z M598.088,17.985
		c-0.395,2.464-2.562,3.731-5.574,3.249l-6.16-0.986l1.287-8.042l6.127,0.981C596.881,13.685,598.51,15.35,598.088,17.985
		 M600.537,34.908l-5.016-10.103c3.502-0.388,6.248-2.405,6.883-6.375c0.75-4.688-2.172-8.139-7.682-9.021L584.045,7.7
		l-3.834,23.955l4.209,0.673l1.336-8.349l5.271,0.843l4.549,9.292L600.537,34.908z M542.83,20.251L531.162,2.528l-3.939-0.304
		l-1.865,24.188l4.182,0.322l1.326-17.208l12.012,18.236l3.559,0.274l1.865-24.187l-4.182-0.323L542.83,20.251z M512.074,1.592
		L494.098,1l-0.799,24.247l18.15,0.597l0.125-3.81l-13.891-0.457l0.215-6.512l12.158,0.4l0.125-3.81l-12.158-0.4l0.209-6.304
		l13.715,0.451L512.074,1.592z M474.847,13.218c0.054,4.783-3.235,8.25-8.33,8.306l-4.782,0.052l-0.182-16.495l4.782-0.053
		C471.43,4.972,474.795,8.436,474.847,13.218 M479.317,13.1c-0.075-6.862-5.4-12.037-13.024-11.953l-9.045,0.099l0.266,24.258
		l9.046-0.099C474.184,25.321,479.393,19.962,479.317,13.1 M427.774,27.13l16.989-0.933l-0.213-3.876l-12.733,0.7l-1.118-20.348
		l-4.256,0.234L427.774,27.13z M408.174,16.779c0.504,4.721-2.43,8.903-7.22,9.415c-4.79,0.512-8.618-3.018-9.122-7.739
		c-0.505-4.721,2.429-8.903,7.219-9.415C403.841,8.528,407.669,12.058,408.174,16.779 M412.612,16.235
		c-0.729-6.823-6.499-11.888-13.908-11.096c-7.409,0.791-12.039,7.037-11.31,13.86c0.729,6.823,6.498,11.888,13.906,11.097
		C408.71,29.304,413.341,23.058,412.612,16.235 M375.194,29.62l-1.611-10.061l-10.198,1.632l0.586,3.662l6.126-0.981l0.719,4.483
		c-1.297,1.331-3.235,2.378-5.494,2.74c-4.894,0.783-8.726-2.324-9.52-7.286c-0.745-4.654,1.995-9.024,6.41-9.73
		c3.045-0.488,5.019,0.214,7.118,1.493l2.16-3.61c-2.798-1.693-5.551-2.446-9.727-1.778c-7.221,1.156-11.444,7.658-10.365,14.4
		c1.123,7.015,6.905,11.565,14.399,10.365C370.041,34.27,373.155,32.017,375.194,29.62 M316.459,19.567l-17.49,4.198l5.661,23.59
		l17.659-4.238l-0.89-3.707l-13.515,3.243l-1.52-6.336l11.829-2.838l-0.891-3.707l-11.828,2.838l-1.473-6.133l13.345-3.203
		L316.459,19.567z M283.064,42.978l2.938,9.792l4.083-1.225l-6.973-23.236l-4.083,1.225l2.897,9.659l-11.086,3.328l-2.898-9.66
		l-4.083,1.225l6.973,23.236l4.083-1.225l-2.938-9.792L283.064,42.978z M244.586,45.209l7.228-2.639l-1.355-3.711l-18.491,6.752
		l1.355,3.711l7.227-2.639l6.968,19.077l4.035-1.474L244.586,45.209z"/>
</g>
</svg>
