<?xml version="1.0" encoding="utf-8"?>
<!-- Generator: Adobe Illustrator 15.1.0, SVG Export Plug-In  -->
<!DOCTYPE svg PUBLIC "-//W3C//DTD SVG 1.1//EN" "http://www.w3.org/Graphics/SVG/1.1/DTD/svg11.dtd" [
	<!ENTITY ns_flows "http://ns.adobe.com/Flows/1.0/">
]>
<svg version="1.1"
	 xmlns="http://www.w3.org/2000/svg" xmlns:xlink="http://www.w3.org/1999/xlink" xmlns:a="http://ns.adobe.com/AdobeSVGViewerExtensions/3.0/"
	 x="0px" y="0px" width="1156px" height="507px" viewBox="-14.391 -1.887 1156 507"
	 overflow="visible" enable-background="new -14.391 -1.887 1156 507" xml:space="preserve">
<defs>
</defs>
<polygon fill="none" stroke="#231F20" stroke-width="2" stroke-miterlimit="10" points="215.402,104.659 45.024,119.172 
	1.886,61.853 172.268,47.337 "/>
<polyline fill="none" stroke="#231F20" stroke-width="2" stroke-miterlimit="10" points="208.211,95.106 123.024,102.362 
	37.833,109.618 "/>
<path fill="none" stroke="#231F20" stroke-width="2" stroke-miterlimit="10" d="M201.027,85.553c0,0-27.575,2.554-36.016,3.065
	c-8.44,0.516-36.912,10.234-51.159,11.447s-39.591-3.716-47.2-3.068c-7.609,0.649-36.009,3.068-36.009,3.068"/>
<path fill="none" stroke="#231F20" stroke-width="2" stroke-miterlimit="10" d="M193.839,76c0,0-0.009,0-28.403,2.419
	c-28.396,2.418-42.543,19.237-56.793,20.453c-14.247,1.215-28.395-13.197-56.791-10.778s-28.396,2.419-28.396,2.419"/>
<path fill="none" stroke="#231F20" stroke-width="2" stroke-miterlimit="10" d="M186.649,66.446c0,0-27.803,2.619-36.019,3.066
	c-8.216,0.449-35.188,10.809-49.179,12c-13.98,1.188-41.562-4.272-49.175-3.622c-7.615,0.646-36.009,3.068-36.009,3.068"/>
<polyline fill="none" stroke="#231F20" stroke-width="2" stroke-miterlimit="10" points="179.458,56.894 94.264,64.149 
	9.077,71.406 "/>
<polyline fill="none" stroke="#231F20" stroke-width="2" stroke-miterlimit="10" points="143.868,49.756 165.436,78.419 
	187.005,107.078 "/>
<path fill="none" stroke="#231F20" stroke-width="2" stroke-miterlimit="10" d="M115.471,52.175l9.121,12.119
	c1.109,1.953,8.741,15.521,12.447,20.446s10.521,10.078,12.45,12.641l9.122,12.116"/>
<path fill="none" stroke="#231F20" stroke-width="2" stroke-miterlimit="10" d="M87.074,54.597c0,0,0.003,0,7.19,9.553
	c7.188,9.554,10.544,29.622,14.379,34.723c3.84,5.1,7.19-6.062,14.381,3.49s7.19,9.553,7.19,9.553"/>
<path fill="none" stroke="#231F20" stroke-width="2" stroke-miterlimit="10" d="M58.677,57.016l9.118,12.115
	c1.832,2.476,8.551,15.26,12.453,20.447c3.903,5.188,10.522,10.078,12.45,12.641l9.116,12.115"/>
<polyline fill="none" stroke="#231F20" stroke-width="2" stroke-miterlimit="10" points="30.284,59.435 51.852,88.094 
	73.42,116.753 "/>
<polygon fill="none" stroke="#231F20" stroke-width="2" stroke-miterlimit="10" points="518.274,104.659 347.893,119.172 
	304.755,61.853 475.136,47.337 "/>
<polyline fill="none" stroke="#231F20" stroke-width="2" stroke-miterlimit="10" points="511.083,95.106 425.899,102.362 
	340.702,109.618 "/>
<path fill="none" stroke="#231F20" stroke-width="2" stroke-miterlimit="10" d="M391.574,105.281
	c-6.646-4.628-13.875-8.487-22.047-8.284l-36.013,3.068"/>
<path fill="none" stroke="#231F20" stroke-width="2" stroke-miterlimit="10" d="M433.127,111.969
	c-4.981,4.399-9.729,7.766-14.419,8.169c-4.825,0.409-9.679-2.166-14.778-5.734"/>
<path fill="none" stroke="#231F20" stroke-width="2" stroke-miterlimit="10" d="M503.899,85.553c0,0-0.156-0.013-36.019,3.065
	c-6.159,0.528-11.819,3.566-17.109,7.557"/>
<path fill="none" stroke="#231F20" stroke-width="2" stroke-miterlimit="10" d="M372.74,97.128
	c-5.328-5.928-11.272-9.609-18.019-9.034c-28.397,2.419-28.397,2.419-28.397,2.419"/>
<path fill="none" stroke="#231F20" stroke-width="2" stroke-miterlimit="10" d="M437.849,111.509
	c-10.422,21.344-18.362,45.241-26.331,45.922c-7.979,0.679-15.919-21.868-26.341-41.44"/>
<path fill="none" stroke="#231F20" stroke-width="2" stroke-miterlimit="10" d="M496.708,76c0,0-0.007,0-28.4,2.419
	c-9.778,0.831-17.875,10.318-24.859,22.446"/>
<path fill="none" stroke="#231F20" stroke-width="2" stroke-miterlimit="10" d="M489.518,66.446c0,0,0.034-0.274-36.02,3.066
	c-20.415,1.894-35.188,30.328-49.172,31.519c-13.987,1.19-29.696-24.288-49.181-23.141l-36.01,3.068"/>
<polyline fill="none" stroke="#231F20" stroke-width="2" stroke-miterlimit="10" points="482.327,56.894 397.136,64.149 
	311.946,71.406 "/>
<polyline fill="none" stroke="#231F20" stroke-width="2" stroke-miterlimit="10" points="446.737,49.756 468.308,78.419 
	489.874,107.078 "/>
<path fill="none" stroke="#231F20" stroke-width="2" stroke-miterlimit="10" d="M446.105,100.638c1.775-3.544,3.772-6.26,6.26-3.257
	l9.118,12.116"/>
<path fill="none" stroke="#231F20" stroke-width="2" stroke-miterlimit="10" d="M418.342,52.175c0,0,0.02,0.094,9.119,12.119
	c6.919,9.144,8.372,26.894,10.297,37.043"/>
<path fill="none" stroke="#231F20" stroke-width="2" stroke-miterlimit="10" d="M423.083,102.6c0.868-1.359,1.803-1.581,2.815-0.237
	c7.185,9.553,7.185,9.553,7.185,9.553"/>
<path fill="none" stroke="#231F20" stroke-width="2" stroke-miterlimit="10" d="M411.518,157.431
	c2.581,3.432,4.94-27.021,8.402-44.394"/>
<path fill="none" stroke="#231F20" stroke-width="2" stroke-miterlimit="10" d="M389.946,54.597c0,0,0,0,7.19,9.553
	c3.135,4.163,5.534,21.435,7.572,40.028"/>
<path fill="none" stroke="#231F20" stroke-width="2" stroke-miterlimit="10" d="M390.417,104.497c1.606-2.841,3.3-4.66,5.15-2.278
	l9.115,12.115"/>
<path fill="none" stroke="#231F20" stroke-width="2" stroke-miterlimit="10" d="M361.549,57.016l9.121,12.115
	c2.594,5.122,5.21,18.438,7.747,29.2"/>
<polyline fill="none" stroke="#231F20" stroke-width="2" stroke-miterlimit="10" points="333.155,59.435 354.721,88.094 
	376.29,116.753 "/>
<polygon fill="none" stroke="#231F20" stroke-width="2" stroke-miterlimit="10" points="821.145,104.659 650.764,119.172 
	607.624,61.853 778.004,47.337 "/>
<polyline fill="none" stroke="#231F20" stroke-width="2" stroke-miterlimit="10" points="813.958,95.106 728.76,102.362 
	643.574,109.618 "/>
<path fill="none" stroke="#231F20" stroke-width="2" stroke-miterlimit="10" d="M686.929,106.131
	c-4.483-5.841-9.286-9.578-14.533-9.134c-20.991,1.79-36.013,3.068-36.013,3.068"/>
<path fill="none" stroke="#231F20" stroke-width="2" stroke-miterlimit="10" d="M750.179,110.703
	c-10.631,20.415-19.597,47.706-28.609,48.475c-8.997,0.766-17.888-24.993-28.509-43.597"/>
<path fill="none" stroke="#231F20" stroke-width="2" stroke-miterlimit="10" d="M806.767,85.553c0,0-15.237,1.297-36.016,3.065
	c-4.994,0.426-9.612,4.66-13.938,10.866"/>
<path fill="none" stroke="#231F20" stroke-width="2" stroke-miterlimit="10" d="M668.784,97.315
	c-3.531-6.135-7.26-9.557-11.194-9.222c-28.396,2.419-28.396,2.419-28.396,2.419"/>
<path fill="none" stroke="#231F20" stroke-width="2" stroke-miterlimit="10" d="M751.958,110.55
	c-17.266,56.416-28.916,167.356-37.578,167.906c-7.916,0.5-19.925-108.153-37.415-161.516"/>
<path fill="none" stroke="#231F20" stroke-width="2" stroke-miterlimit="10" d="M799.577,76c0,0,0,0-28.397,2.419
	c-5.681,0.484-10.903,8.746-15.706,21.668"/>
<path fill="none" stroke="#231F20" stroke-width="2" stroke-miterlimit="10" d="M680.699,99.753
	c-6.685-12.365-14.091-22.597-22.685-21.862c-21.24,1.81-36.012,3.068-36.012,3.068"/>
<path fill="none" stroke="#231F20" stroke-width="2" stroke-miterlimit="10" d="M792.385,66.446c0,0-15.234,1.297-36.012,3.066
	c-9.832,0.837-18.234,16.399-25.838,32.696"/>
<polyline fill="none" stroke="#231F20" stroke-width="2" stroke-miterlimit="10" points="785.195,56.894 700.007,64.149 
	614.811,71.406 "/>
<polyline fill="none" stroke="#231F20" stroke-width="2" stroke-miterlimit="10" points="749.608,49.756 771.179,78.419 
	792.742,107.078 "/>
<path fill="none" stroke="#231F20" stroke-width="2" stroke-miterlimit="10" d="M752.323,100.35c0.916-2.99,1.885-4.334,2.913-2.969
	c5.169,6.872,9.112,12.116,9.112,12.116"/>
<path fill="none" stroke="#231F20" stroke-width="2" stroke-miterlimit="10" d="M721.21,52.175c0,0,3.859,5.128,9.119,12.119
	c2.409,3.203,4.446,19.837,6.306,37.396"/>
<path fill="none" stroke="#231F20" stroke-width="2" stroke-miterlimit="10" d="M727.648,102.456
	c0.366-0.547,0.737-0.597,1.112-0.094c7.191,9.553,7.191,9.553,7.191,9.553"/>
<path fill="none" stroke="#231F20" stroke-width="2" stroke-miterlimit="10" d="M714.379,278.456
	c2.44,3.021,5.787-126.831,10.966-165.638"/>
<path fill="none" stroke="#231F20" stroke-width="2" stroke-miterlimit="10" d="M692.817,54.597c0,0,0,0,7.19,9.553
	c1.891,2.51,3.597,18.278,5.138,40.223"/>
<path fill="none" stroke="#231F20" stroke-width="2" stroke-miterlimit="10" d="M695.051,105.231
	c1.044-3.223,2.166-4.638,3.385-3.013c5.368,7.131,9.118,12.115,9.118,12.115"/>
<path fill="none" stroke="#231F20" stroke-width="2" stroke-miterlimit="10" d="M685.983,152.044
	c2.196-3.304,4.277-22.763,6.74-36.538"/>
<path fill="none" stroke="#231F20" stroke-width="2" stroke-miterlimit="10" d="M664.415,57.016c0,0,3.865,5.125,9.119,12.115
	c2.128,2.819,4.855,15.744,7.243,30.612"/>
<polyline fill="none" stroke="#231F20" stroke-width="2" stroke-miterlimit="10" points="636.018,59.435 657.589,88.094 
	679.162,116.753 "/>
<polygon fill="none" stroke="#231F20" stroke-width="2" stroke-miterlimit="10" points="1124.014,104.659 953.635,119.172 
	910.495,61.853 1080.876,47.337 "/>
<polyline fill="none" stroke="#231F20" stroke-width="2" stroke-miterlimit="10" points="1116.823,95.106 1031.632,102.362 
	946.445,109.618 "/>
<path fill="none" stroke="#231F20" stroke-width="2" stroke-miterlimit="10" d="M991.189,105.803
	c-4.194-5.95-9.385-9.362-15.925-8.806c-36.01,3.068-36.01,3.068-36.01,3.068"/>
<path fill="none" stroke="#231F20" stroke-width="2" stroke-miterlimit="10" d="M1109.635,85.553c0,0-0.303-0.216-36.012,3.065
	c-5.788,0.535-10.719,4.047-14.981,9.569"/>
<path fill="none" stroke="#231F20" stroke-width="2" stroke-miterlimit="10" d="M973.773,97.118
	c-3.978-6.037-8.403-9.262-13.312-9.024c-28.462,1.388-28.394,2.419-28.394,2.419"/>
<path fill="none" stroke="#231F20" stroke-width="2" stroke-miterlimit="10" d="M1050.176,110.946
	c-30.51,94.504-25.894,362.098-32.925,362.713c-6.679,0.355-5.429-267.582-34.719-356.954"/>
<path fill="none" stroke="#231F20" stroke-width="2" stroke-miterlimit="10" d="M1102.445,76c0,0-0.003,0-28.396,2.419
	c-6.781,0.574-12.628,6.634-17.688,16.859"/>
<path fill="none" stroke="#231F20" stroke-width="2" stroke-miterlimit="10" d="M982.611,98.216
	c-5.054-12.676-11.81-21.169-21.722-20.325c-36.013,3.068-36.013,3.068-36.013,3.068"/>
<path fill="none" stroke="#231F20" stroke-width="2" stroke-miterlimit="10" d="M1095.254,66.446c0,0,0.2,0.022-36.013,3.066
	c-12.234,1.031-18.031,14.6-21.478,32.328"/>
<polyline fill="none" stroke="#231F20" stroke-width="2" stroke-miterlimit="10" points="1088.067,56.894 1002.876,64.149 
	917.686,71.406 "/>
<polyline fill="none" stroke="#231F20" stroke-width="2" stroke-miterlimit="10" points="1052.479,49.756 1074.048,78.419 
	1095.614,107.078 "/>
<path fill="none" stroke="#231F20" stroke-width="2" stroke-miterlimit="10" d="M1048.167,100.95
	c2.672-7.169,5.922-9.562,9.938-3.569c8.432,12.601,9.116,12.116,9.116,12.116"/>
<path fill="none" stroke="#231F20" stroke-width="2" stroke-miterlimit="10" d="M1024.083,52.175c0,0,8.456-2.869,9.122,12.119
	c0.228,5.262,0.021,20.04-0.26,37.953"/>
<path fill="none" stroke="#231F20" stroke-width="2" stroke-miterlimit="10" d="M1029.57,102.534
	c0.647-1.05,1.335-1.141,2.062-0.172c7.19,9.553,7.19,9.553,7.19,9.553"/>
<path fill="none" stroke="#231F20" stroke-width="2" stroke-miterlimit="10" d="M1017.251,473.66
	c1.794,2.674,0.45-298.334,9.722-360.735"/>
<path fill="none" stroke="#231F20" stroke-width="2" stroke-miterlimit="10" d="M995.686,54.597c0,0,0,0,7.19,9.553
	c2.524,3.359,4.547,18.106,6.162,40.145"/>
<path fill="none" stroke="#231F20" stroke-width="2" stroke-miterlimit="10" d="M997.749,105.247
	c-0.419-3.406,0.54-7.031,3.559-3.028c9.125,12.112,9.119,12.115,9.119,12.115"/>
<path fill="none" stroke="#231F20" stroke-width="2" stroke-miterlimit="10" d="M967.286,57.016c0,0,0.175-0.022,9.119,12.115
	c3.362,4.557,6.215,16.022,8.662,30.44"/>
<polyline fill="none" stroke="#231F20" stroke-width="2" stroke-miterlimit="10" points="938.889,59.435 960.46,88.094 
	982.033,116.753 "/>
<path fill="none" stroke="#231F20" stroke-width="2" stroke-miterlimit="10" d="M995.686,115.959
	c0.815,11.734,20.665,84.944,25.69,93.706"/>
<path fill="none" stroke="#231F20" stroke-width="2" stroke-miterlimit="10" d="M1048.167,111.118
	c-5.568,11.223-22.3,90.304-26.79,98.547"/>
<path fill="none" stroke="#231F20" stroke-width="2" stroke-miterlimit="10" d="M995.686,115.959
	c0.815,11.734,3.875,63.359,2.521,84"/>
<g>
	<path fill="#231F20" d="M73.506,16.604c0,2.66,2.072,3.696,4.424,3.696c1.54,0,3.892-0.448,3.892-2.492
		c0-2.156-2.996-2.52-5.936-3.304c-2.968-0.784-5.964-1.932-5.964-5.684c0-4.088,3.864-6.048,7.476-6.048
		c4.172,0,8.008,1.82,8.008,6.44H81.15c-0.14-2.408-1.848-3.024-3.948-3.024c-1.4,0-3.024,0.588-3.024,2.268
		c0,1.54,0.952,1.736,5.964,3.024c1.456,0.364,5.936,1.288,5.936,5.824c0,3.668-2.884,6.412-8.316,6.412
		c-4.424,0-8.568-2.184-8.512-7.112H73.506z"/>
	<path fill="#231F20" d="M101.842,23.24h-3.78v-2.016h-0.084c-1.008,1.624-2.744,2.408-4.424,2.408c-4.228,0-5.292-2.38-5.292-5.964
		V8.764h3.976v8.176c0,2.38,0.7,3.556,2.548,3.556c2.156,0,3.08-1.204,3.08-4.144V8.764h3.976V23.24z"/>
	<path fill="#231F20" d="M104.866,8.764h3.78v2.016h0.084c1.008-1.624,2.744-2.408,4.424-2.408c4.228,0,5.292,2.38,5.292,5.964
		v8.904h-3.976v-8.176c0-2.38-0.7-3.556-2.548-3.556c-2.156,0-3.08,1.204-3.08,4.144v7.588h-3.976V8.764z"/>
</g>
<g>
	<path fill="#231F20" d="M330.839,23.24h-4.368l-3.388-13.608h-0.056l-3.332,13.608h-4.452l-5.292-19.992h4.396l3.164,13.608h0.056
		l3.472-13.608h4.116l3.416,13.776h0.056l3.276-13.776h4.312L330.839,23.24z"/>
	<path fill="#231F20" d="M337.811,3.249h3.976v7.532h0.084c1.008-1.624,2.744-2.408,4.228-2.408c4.228,0,5.292,2.38,5.292,5.964
		v8.904h-3.976v-8.176c0-2.38-0.7-3.556-2.548-3.556c-2.156,0-3.08,1.204-3.08,4.144v7.588h-3.976V3.249z"/>
	<path fill="#231F20" d="M358.502,6.524h-3.976V3.249h3.976V6.524z M354.526,8.764h3.976V23.24h-3.976V8.764z"/>
	<path fill="#231F20" d="M366.678,8.764h2.912v2.66h-2.912v7.168c0,1.344,0.336,1.68,1.68,1.68c0.42,0,0.812-0.028,1.232-0.112
		v3.108c-0.672,0.112-1.54,0.14-2.324,0.14c-2.436,0-4.564-0.56-4.564-3.444v-8.54h-2.408v-2.66h2.408v-4.34h3.976V8.764z"/>
	<path fill="#231F20" d="M374.77,16.968c0.112,2.52,1.344,3.668,3.556,3.668c1.596,0,2.884-0.98,3.136-1.876h3.5
		c-1.12,3.416-3.5,4.872-6.776,4.872c-4.564,0-7.392-3.136-7.392-7.616c0-4.34,2.996-7.644,7.392-7.644
		c4.928,0,7.308,4.144,7.028,8.596H374.77z M381.238,14.448c-0.364-2.016-1.232-3.08-3.164-3.08c-2.52,0-3.248,1.96-3.304,3.08
		H381.238z"/>
	<path fill="#231F20" d="M405.682,21.392h-0.056c-0.924,1.568-2.548,2.24-4.396,2.24c-4.368,0-6.496-3.752-6.496-7.756
		c0-3.892,2.156-7.504,6.412-7.504c1.708,0,3.388,0.728,4.284,2.156h0.056v-7.28h3.976V23.24h-3.78V21.392z M402.21,11.368
		c-2.604,0-3.5,2.24-3.5,4.62c0,2.268,1.036,4.648,3.5,4.648c2.632,0,3.416-2.296,3.416-4.676
		C405.626,13.608,404.786,11.368,402.21,11.368z"/>
	<path fill="#231F20" d="M429.005,23.24h-4.088l-2.576-9.716h-0.056l-2.464,9.716h-4.116l-4.592-14.476h4.2l2.66,9.828h0.056
		l2.408-9.828h3.864l2.464,9.8h0.056l2.66-9.8h4.088L429.005,23.24z"/>
	<path fill="#231F20" d="M435.082,13.216c0.224-3.724,3.556-4.844,6.804-4.844c2.884,0,6.356,0.644,6.356,4.116v7.532
		c0,1.316,0.14,2.632,0.504,3.22h-4.032c-0.14-0.448-0.252-0.924-0.28-1.4c-1.26,1.316-3.108,1.792-4.872,1.792
		c-2.744,0-4.928-1.372-4.928-4.34c0-3.276,2.464-4.06,4.928-4.396c2.436-0.364,4.704-0.28,4.704-1.904
		c0-1.708-1.176-1.96-2.576-1.96c-1.512,0-2.492,0.616-2.632,2.184H435.082z M444.265,16.156c-0.672,0.588-2.072,0.616-3.304,0.84
		c-1.232,0.252-2.352,0.672-2.352,2.128c0,1.484,1.148,1.848,2.436,1.848c3.108,0,3.22-2.464,3.22-3.332V16.156z"/>
	<path fill="#231F20" d="M451.321,8.764h3.78v2.688h0.056c0.728-1.82,2.688-3.08,4.62-3.08c0.28,0,0.616,0.056,0.868,0.14v3.696
		c-0.364-0.084-0.952-0.14-1.428-0.14c-2.912,0-3.92,2.1-3.92,4.648v6.524h-3.976V8.764z"/>
	<path fill="#231F20" d="M463.081,11.424h-2.38v-2.66h2.38v-1.12c0-2.548,1.596-4.396,4.844-4.396c0.7,0,1.428,0.084,2.1,0.112
		v2.968c-0.476-0.056-0.952-0.084-1.456-0.084c-1.064,0-1.512,0.448-1.512,1.652v0.868h2.744v2.66h-2.744V23.24h-3.976V11.424z"/>
</g>
<g>
	<path fill="#231F20" d="M613.475,3.249h4.368l8.344,13.412h0.056V3.249h4.116V23.24h-4.396l-8.316-13.384h-0.056V23.24h-4.116
		V3.249z"/>
	<path fill="#231F20" d="M637.079,16.968c0.112,2.52,1.344,3.668,3.556,3.668c1.596,0,2.884-0.98,3.136-1.876h3.5
		c-1.119,3.416-3.5,4.872-6.775,4.872c-4.564,0-7.392-3.136-7.392-7.616c0-4.34,2.996-7.644,7.392-7.644
		c4.928,0,7.308,4.144,7.028,8.596H637.079z M643.546,14.448c-0.364-2.016-1.232-3.08-3.164-3.08c-2.52,0-3.248,1.96-3.304,3.08
		H643.546z"/>
	<path fill="#231F20" d="M663.454,23.24h-3.78v-2.016h-0.084c-1.008,1.624-2.743,2.408-4.424,2.408c-4.228,0-5.292-2.38-5.292-5.964
		V8.764h3.977v8.176c0,2.38,0.699,3.556,2.548,3.556c2.156,0,3.08-1.204,3.08-4.144V8.764h3.976V23.24z"/>
	<path fill="#231F20" d="M671.517,8.764h2.912v2.66h-2.912v7.168c0,1.344,0.336,1.68,1.681,1.68c0.42,0,0.812-0.028,1.231-0.112
		v3.108c-0.672,0.112-1.54,0.14-2.324,0.14c-2.436,0-4.563-0.56-4.563-3.444v-8.54h-2.408v-2.66h2.408v-4.34h3.976V8.764z"/>
	<path fill="#231F20" d="M676.333,8.764h3.78v2.688h0.056c0.729-1.82,2.688-3.08,4.62-3.08c0.28,0,0.616,0.056,0.868,0.14v3.696
		c-0.364-0.084-0.952-0.14-1.428-0.14c-2.912,0-3.92,2.1-3.92,4.648v6.524h-3.977V8.764z"/>
	<path fill="#231F20" d="M693.75,8.372c4.563,0,7.504,3.024,7.504,7.644c0,4.592-2.94,7.616-7.504,7.616
		c-4.536,0-7.476-3.024-7.476-7.616C686.274,11.396,689.213,8.372,693.75,8.372z M693.75,20.636c2.716,0,3.528-2.324,3.528-4.62
		c0-2.324-0.812-4.648-3.528-4.648c-2.688,0-3.5,2.324-3.5,4.648C690.25,18.312,691.061,20.636,693.75,20.636z"/>
	<path fill="#231F20" d="M703.829,8.764h3.78v2.016h0.084c1.008-1.624,2.744-2.408,4.424-2.408c4.229,0,5.292,2.38,5.292,5.964
		v8.904h-3.976v-8.176c0-2.38-0.7-3.556-2.548-3.556c-2.156,0-3.08,1.204-3.08,4.144v7.588h-3.977V8.764z"/>
	<path fill="#231F20" d="M731.296,18.536c0.028,1.736,1.484,2.436,3.052,2.436c1.148,0,2.604-0.448,2.604-1.848
		c0-1.204-1.652-1.624-4.508-2.24c-2.296-0.504-4.592-1.316-4.592-3.864c0-3.696,3.191-4.648,6.3-4.648
		c3.164,0,6.076,1.064,6.384,4.62h-3.78c-0.111-1.54-1.288-1.96-2.716-1.96c-0.896,0-2.212,0.168-2.212,1.344
		c0,1.428,2.24,1.624,4.508,2.156c2.324,0.532,4.592,1.372,4.592,4.06c0,3.808-3.304,5.04-6.607,5.04
		c-3.36,0-6.636-1.26-6.805-5.096H731.296z"/>
	<path fill="#231F20" d="M748.292,8.764h2.912v2.66h-2.912v7.168c0,1.344,0.336,1.68,1.681,1.68c0.42,0,0.812-0.028,1.231-0.112
		v3.108c-0.672,0.112-1.54,0.14-2.324,0.14c-2.436,0-4.563-0.56-4.563-3.444v-8.54h-2.408v-2.66h2.408v-4.34h3.976V8.764z"/>
	<path fill="#231F20" d="M752.94,13.216c0.225-3.724,3.557-4.844,6.805-4.844c2.884,0,6.355,0.644,6.355,4.116v7.532
		c0,1.316,0.14,2.632,0.504,3.22h-4.032c-0.14-0.448-0.252-0.924-0.279-1.4c-1.261,1.316-3.108,1.792-4.872,1.792
		c-2.744,0-4.929-1.372-4.929-4.34c0-3.276,2.465-4.06,4.929-4.396c2.436-0.364,4.704-0.28,4.704-1.904
		c0-1.708-1.177-1.96-2.576-1.96c-1.512,0-2.492,0.616-2.632,2.184H752.94z M762.125,16.156c-0.672,0.588-2.072,0.616-3.305,0.84
		c-1.231,0.252-2.352,0.672-2.352,2.128c0,1.484,1.147,1.848,2.436,1.848c3.108,0,3.221-2.464,3.221-3.332V16.156z"/>
	<path fill="#231F20" d="M769.18,8.764h3.78v2.688h0.056c0.729-1.82,2.688-3.08,4.62-3.08c0.28,0,0.616,0.056,0.868,0.14v3.696
		c-0.364-0.084-0.952-0.14-1.428-0.14c-2.912,0-3.92,2.1-3.92,4.648v6.524h-3.977V8.764z"/>
</g>
<g>
	<path fill="#231F20" d="M934.322,3.249h9.408c3.808,0,6.384,1.232,6.384,4.956c0,1.96-0.979,3.332-2.716,4.172
		c2.437,0.7,3.668,2.576,3.668,5.068c0,4.06-3.443,5.796-7.056,5.796h-9.688V3.249z M938.718,11.34h4.452
		c1.54,0,2.688-0.7,2.688-2.38c0-1.904-1.456-2.296-3.023-2.296h-4.116V11.34z M938.718,19.824h4.704
		c1.735,0,3.248-0.56,3.248-2.632c0-2.044-1.288-2.856-3.164-2.856h-4.788V19.824z"/>
	<path fill="#231F20" d="M953.726,3.249h3.976V23.24h-3.976V3.249z"/>
	<path fill="#231F20" d="M960.669,13.216c0.225-3.724,3.557-4.844,6.805-4.844c2.884,0,6.355,0.644,6.355,4.116v7.532
		c0,1.316,0.14,2.632,0.504,3.22h-4.032c-0.14-0.448-0.252-0.924-0.279-1.4c-1.261,1.316-3.108,1.792-4.872,1.792
		c-2.744,0-4.928-1.372-4.928-4.34c0-3.276,2.464-4.06,4.928-4.396c2.436-0.364,4.704-0.28,4.704-1.904
		c0-1.708-1.177-1.96-2.576-1.96c-1.512,0-2.492,0.616-2.632,2.184H960.669z M969.854,16.156c-0.673,0.588-2.072,0.616-3.305,0.84
		c-1.231,0.252-2.352,0.672-2.352,2.128c0,1.484,1.147,1.848,2.436,1.848c3.108,0,3.221-2.464,3.221-3.332V16.156z"/>
	<path fill="#231F20" d="M986.766,13.86c-0.252-1.624-1.288-2.492-2.94-2.492c-2.548,0-3.388,2.576-3.388,4.704
		c0,2.072,0.812,4.564,3.304,4.564c1.849,0,2.912-1.176,3.164-2.94h3.836c-0.504,3.836-3.164,5.936-6.972,5.936
		c-4.368,0-7.308-3.08-7.308-7.42c0-4.508,2.688-7.84,7.392-7.84c3.416,0,6.552,1.792,6.804,5.488H986.766z"/>
	<path fill="#231F20" d="M993.345,3.249h3.976v10.724l5.013-5.208h4.704l-5.46,5.32l6.075,9.156h-4.815l-3.977-6.468l-1.54,1.484
		v4.984h-3.976V3.249z"/>
	<path fill="#231F20" d="M1016.836,3.249h3.977v7.532h0.084c1.008-1.624,2.744-2.408,4.228-2.408c4.229,0,5.292,2.38,5.292,5.964
		v8.904h-3.976v-8.176c0-2.38-0.7-3.556-2.548-3.556c-2.156,0-3.08,1.204-3.08,4.144v7.588h-3.977V3.249z"/>
	<path fill="#231F20" d="M1040.468,8.372c4.563,0,7.504,3.024,7.504,7.644c0,4.592-2.94,7.616-7.504,7.616
		c-4.536,0-7.476-3.024-7.476-7.616C1032.993,11.396,1035.932,8.372,1040.468,8.372z M1040.468,20.636
		c2.716,0,3.528-2.324,3.528-4.62c0-2.324-0.812-4.648-3.528-4.648c-2.688,0-3.5,2.324-3.5,4.648
		C1036.968,18.312,1037.78,20.636,1040.468,20.636z"/>
	<path fill="#231F20" d="M1050.661,3.249h3.976V23.24h-3.976V3.249z"/>
	<path fill="#231F20" d="M1061.048,16.968c0.112,2.52,1.344,3.668,3.556,3.668c1.597,0,2.884-0.98,3.136-1.876h3.5
		c-1.119,3.416-3.5,4.872-6.775,4.872c-4.564,0-7.393-3.136-7.393-7.616c0-4.34,2.996-7.644,7.393-7.644
		c4.928,0,7.308,4.144,7.027,8.596H1061.048z M1067.516,14.448c-0.364-2.016-1.231-3.08-3.164-3.08c-2.52,0-3.248,1.96-3.304,3.08
		H1067.516z"/>
</g>
<path opacity="0.9" d="M198.409,318.53c0,51.031-41.37,92.4-92.402,92.4c-51.028,0-92.398-41.369-92.398-92.4
	c0-51.029,41.37-92.399,92.398-92.399C157.039,226.13,198.409,267.5,198.409,318.53z"/>
<polyline fill="none" stroke="#231F20" stroke-width="2" stroke-miterlimit="10" points="42.609,455.674 13.609,455.674 
	13.609,455.215 13.609,446.075 "/>
<polyline fill="none" stroke="#231F20" stroke-width="2" stroke-miterlimit="10" points="197.609,446.075 197.609,455.215 
	197.609,455.674 168.609,455.674 "/>
<g>
	<path fill="#231F20" d="M67.489,445.153c3.36,0,6.192,2.112,6.192,8.665c0,6.696-2.832,8.809-6.192,8.809
		c-3.312,0-6.145-2.112-6.145-8.809C61.344,447.265,64.176,445.153,67.489,445.153z M67.489,459.818c2.784,0,2.784-4.104,2.784-6
		c0-1.752,0-5.856-2.784-5.856c-2.736,0-2.736,4.104-2.736,5.856C64.752,455.714,64.752,459.818,67.489,459.818z"/>
	<path fill="#231F20" d="M75.625,458.594h3.768v3.696h-3.768V458.594z"/>
	<path fill="#231F20" d="M93.265,448.417c-3.528,3.072-5.448,9.385-5.496,13.873h-3.648c0.384-4.969,2.448-9.793,5.64-13.633h-7.968
		v-3.169h11.473V448.417z"/>
	<path fill="#231F20" d="M105.673,447.961h-3.408v-2.809h3.408V447.961z M102.265,449.881h3.408v12.409h-3.408V449.881z"/>
	<path fill="#231F20" d="M108.36,449.881h3.24v1.729h0.072c0.864-1.393,2.353-2.064,3.792-2.064c3.625,0,4.537,2.04,4.537,5.112
		v7.633h-3.408v-7.009c0-2.04-0.601-3.048-2.185-3.048c-1.849,0-2.641,1.032-2.641,3.552v6.505h-3.408V449.881z"/>
	<path fill="#231F20" d="M131.042,454.25c-0.216-1.392-1.104-2.136-2.521-2.136c-2.185,0-2.904,2.208-2.904,4.032
		c0,1.776,0.696,3.912,2.832,3.912c1.584,0,2.496-1.008,2.713-2.52h3.288c-0.433,3.288-2.713,5.088-5.977,5.088
		c-3.744,0-6.265-2.641-6.265-6.36c0-3.864,2.304-6.721,6.337-6.721c2.928,0,5.616,1.536,5.832,4.704H131.042z"/>
	<path fill="#231F20" d="M136.368,445.153h3.408v6.457h0.072c0.864-1.393,2.353-2.064,3.624-2.064c3.625,0,4.537,2.04,4.537,5.112
		v7.633h-3.408v-7.009c0-2.04-0.601-3.048-2.185-3.048c-1.849,0-2.641,1.032-2.641,3.552v6.505h-3.408V445.153z"/>
</g>
</svg>
