<svg xmlns="http://www.w3.org/2000/svg" viewBox="0 0 210 363.7"><style>.st0{fill:#A94425;} .st1{fill:#FFFFFF;}</style><path class="st0" d="M210 363.7H0V0h210v148.1z" id="Layer_2"/><g id="Layer_1"><path class="st1" d="M28.6 231.5l-1.9 1-.3-1.4 2.4-1.3h1.6v11h-1.8v-9.3zM34.3 240.9c-.6 0-1.1-.5-1.1-1.3 0-.7.5-1.3 1.1-1.3.6 0 1.1.5 1.1 1.3.1.8-.4 1.3-1.1 1.3zM41.6 229.3v7.5c0 1.9.6 2.4 1.3 2.4.8 0 1.3-.6 1.3-2.4v-7.5H46v7.2c0 3-1.2 4.4-3.1 4.4-2.1 0-3.1-1.4-3.1-4.3v-7.3h1.8zM47.8 235.1c0-1.1 0-1.9-.1-2.6h1.6l.1 1c.4-.8 1-1.1 1.7-1.1 1.6 0 2.5 1.8 2.5 4.2 0 3-1.3 4.3-2.6 4.3-.7 0-1.2-.4-1.4-.9v4h-1.8v-8.9zm1.8 2.6c0 .3 0 .5.1.7.2.8.6 1 1 1 .9 0 1.2-1.3 1.2-2.8 0-1.6-.4-2.8-1.2-2.8-.5 0-.9.5-1 1.1-.1.2-.1.4-.1.6v2.2zM60.6 229v9.5c0 .7 0 1.6.1 2.2h-1.5l-.1-1H59c-.3.6-.9 1.1-1.7 1.1-1.6 0-2.5-1.8-2.5-4.2 0-2.9 1.3-4.3 2.6-4.3.7 0 1.2.3 1.4.9V229h1.8zm-1.8 6.6v-.5c-.1-.7-.4-1.3-1-1.3-.9 0-1.2 1.3-1.2 2.8 0 1.7.4 2.7 1.2 2.7.3 0 .8-.2 1-1 .1-.1.1-.3.1-.5v-2.2zM67.3 238.9c0 .6 0 1.3.1 1.9h-1.6l-.1-.8c-.4.6-1 1-1.8 1-1.2 0-2.1-1-2.1-2.4 0-2.1 1.8-3 3.7-3v-.2c0-.9-.3-1.5-1.2-1.5-.6 0-1.1.2-1.5.5l-.3-1.2c.4-.3 1.3-.6 2.3-.6 2.1 0 2.7 1.5 2.7 3.2v3.1zm-1.8-2.3c-.7 0-2 .2-2 1.6 0 .9.5 1.3.9 1.3.5 0 .9-.3 1-1 0-.1.1-.3.1-.4v-1.5zM71 230.4v2.1h1.6v1.3H71v4.3c0 1 .4 1.3.8 1.3.2 0 .4 0 .6-.1v1.4c-.3.1-.7.1-1.2.1-.6 0-1.1-.2-1.5-.5-.4-.4-.6-1-.6-2.2v-4.3h-1v-1.3h1v-1.4l1.9-.7zM75 237.1c0 1.9.9 2.4 1.8 2.4.6 0 1.1-.1 1.5-.3l.3 1.3c-.5.2-1.3.4-2.1.4-2.1 0-3.3-1.5-3.3-4.1 0-2.7 1.3-4.4 3.1-4.4 1.7 0 2.6 1.6 2.6 3.8 0 .5 0 .7-.1 1H75zm2.2-1.3c0-1.3-.4-2.1-1.1-2.1-.8 0-1.1 1.1-1.2 2.1h2.3zM88.5 229v9.5c0 .7 0 1.6.1 2.2H87l-.1-1h-.1c-.3.6-.9 1.1-1.7 1.1-1.6 0-2.5-1.8-2.5-4.2 0-2.9 1.3-4.3 2.6-4.3.7 0 1.2.3 1.4.9V229h1.9zm-1.8 6.6v-.5c-.1-.7-.4-1.3-1-1.3-.9 0-1.2 1.3-1.2 2.8 0 1.7.4 2.7 1.2 2.7.3 0 .8-.2 1-1 .1-.1.1-.3.1-.5v-2.2zM92.8 240.9c-1.8 0-3-1.5-3-4.2 0-3 1.5-4.3 3-4.3 1.7 0 2.9 1.5 2.9 4.2.1 3.4-1.7 4.3-2.9 4.3zm.1-1.4c.9 0 1.1-1.6 1.1-2.9 0-1.2-.2-2.9-1.1-2.9-1 0-1.2 1.7-1.2 2.9-.1 1.4.2 2.9 1.2 2.9zM101.5 240.6c-.3.1-.8.3-1.4.3-2 0-3.3-1.5-3.3-4.2 0-2.5 1.4-4.3 3.6-4.3.5 0 1 .1 1.2.2l-.3 1.4c-.2-.1-.5-.2-.9-.2-1.2 0-1.8 1.3-1.8 2.8 0 1.7.7 2.7 1.8 2.7.3 0 .6-.1.9-.2l.2 1.5zM108.1 238.4c0 .9 0 1.7.1 2.4h-1.6l-.1-.9c-.3.5-1 1-1.9 1-1.5 0-2.1-1.1-2.1-3.3v-5.1h1.8v4.9c0 1.2.2 2 1 2 .6 0 .8-.5.9-.8.1-.2.1-.4.1-.7v-5.4h1.8v5.9zM109.8 234.8c0-.9 0-1.6-.1-2.3h1.6l.1 1c.4-.6 1.1-1.1 1.9-1.1.9 0 1.5.4 1.8 1.2.2-.4.5-.7.8-.9.3-.2.7-.3 1.2-.3 1.3 0 2.1 1 2.1 3.1v5.4h-1.8v-5c0-1-.1-1.9-.9-1.9-.5 0-.8.4-1 1-.1.2-.1.4-.1.7v5.3h-1.8v-5.3c0-.7-.1-1.6-.9-1.6-.4 0-.9.3-1 1 0 .2-.1.4-.1.7v5.2h-1.8v-6.2zM122.4 237.1c0 1.9.9 2.4 1.8 2.4.6 0 1.1-.1 1.5-.3l.3 1.3c-.5.2-1.3.4-2.1.4-2.1 0-3.3-1.5-3.3-4.1 0-2.7 1.3-4.4 3.1-4.4 1.7 0 2.6 1.6 2.6 3.8 0 .5 0 .7-.1 1h-3.8zm2.2-1.3c0-1.3-.4-2.1-1.1-2.1-.8 0-1.1 1.1-1.2 2.1h2.3zM127.6 234.8c0-.9 0-1.6-.1-2.3h1.6l.1 1c.4-.7 1.1-1.1 2-1.1 1.4 0 2.1 1.1 2.1 3v5.4h-1.8v-5.3c0-.8-.2-1.6-1-1.6-.4 0-.8.3-1 1-.1.2-.1.4-.1.7v5.1h-1.8v-5.9zM137.1 230.4v2.1h1.6v1.3h-1.6v4.3c0 1 .4 1.3.8 1.3.2 0 .4 0 .6-.1v1.4c-.3.1-.7.1-1.2.1-.6 0-1.1-.2-1.5-.5-.4-.4-.6-1-.6-2.2v-4.3h-1v-1.3h1v-1.4l1.9-.7zM139.7 239c.3.2.9.4 1.4.4.6 0 1-.3 1-1 0-.5-.2-.9-1-1.3-1.2-.7-1.7-1.5-1.7-2.4 0-1.4 1-2.5 2.5-2.5.7 0 1.2.2 1.6.4l-.4 1.3c-.3-.2-.7-.4-1.1-.4-.6 0-.9.4-.9.9 0 .4.2.7 1 1.2 1.1.7 1.7 1.5 1.7 2.5 0 1.7-1.2 2.5-2.7 2.5-.6 0-1.4-.2-1.8-.5l.4-1.1zM26 261.2V260l1-1.3c1.4-1.8 2.7-3.6 2.7-5.4 0-1-.5-1.7-1.5-1.7-.7 0-1.3.4-1.6.6l-.4-1.4c.4-.3 1.3-.7 2.3-.7 2.2 0 2.9 1.5 2.9 3.1 0 2.1-1.3 3.9-2.6 5.5l-.7.9h3.5v1.6H26zM34.3 261.3c-.6 0-1.1-.5-1.1-1.3 0-.7.5-1.3 1.1-1.3.6 0 1.1.5 1.1 1.3.1.8-.4 1.3-1.1 1.3zM39.8 249.9c.6-.2 1.4-.2 2.2-.2 1.2 0 2.2.2 2.8.8.6.6.9 1.4.9 2.3 0 1.3-.6 2.4-1.8 2.9.8.3 1.2 1.1 1.5 2.4.2 1.4.5 2.6.7 3h-1.9c-.1-.3-.4-1.4-.6-2.8-.2-1.5-.6-2-1.6-2h-.4v4.8h-1.8v-11.2zm1.8 5.1h.5c1.1 0 1.8-.8 1.8-2 0-1.1-.5-1.9-1.6-1.9-.2 0-.5 0-.6.1v3.8zM48.6 257.5c0 1.9.9 2.4 1.8 2.4.6 0 1.1-.1 1.5-.3l.3 1.3c-.5.2-1.3.4-2.1.4-2.1 0-3.3-1.5-3.3-4.1 0-2.7 1.3-4.4 3.1-4.4 1.7 0 2.6 1.6 2.6 3.8 0 .5 0 .7-.1 1h-3.8zm2.2-1.3c0-1.3-.4-2.1-1.1-2.1-.8 0-1.1 1.1-1.2 2.1h2.3zM55 252.9l.8 4.1c.1.6.2 1.4.4 2.2.1-.8.2-1.5.3-2.2l.8-4.1h1.8l-2.2 8.3h-1.6l-2.2-8.3H55zM61 251.8c-.5 0-1-.4-1-1.1 0-.6.4-1.1 1-1.1s1 .4 1 1.1c0 .7-.4 1.1-1 1.1zm-.9 9.4v-8.3h1.8v8.3h-1.8zM65.1 257.5c0 1.9.9 2.4 1.8 2.4.6 0 1.1-.1 1.5-.3l.3 1.3c-.5.2-1.3.4-2.1.4-2.1 0-3.3-1.5-3.3-4.1 0-2.7 1.3-4.4 3.1-4.4 1.7 0 2.6 1.6 2.6 3.8 0 .5 0 .7-.1 1h-3.8zm2.2-1.3c0-1.3-.4-2.1-1.1-2.1-.8 0-1.1 1.1-1.2 2.1h2.3zM71.5 252.9l.6 3.8c.1.9.3 1.8.4 2.6h.1c.1-.8.3-1.8.5-2.5l.8-3.8h1.4l.8 3.7c.2.9.4 1.8.5 2.6.1-.8.2-1.7.4-2.6l.6-3.8h1.8l-2.1 8.3h-1.5l-.8-3.4c-.2-.8-.3-1.6-.4-2.5-.1 1-.3 1.8-.5 2.6l-.8 3.4h-1.6l-2-8.3h1.8zM85 249.7v11.5h-1.8v-11.5H85zM86.8 255.2c0-.9 0-1.6-.1-2.3h1.6l.1 1c.4-.7 1.1-1.1 2-1.1 1.4 0 2.1 1.1 2.1 3v5.4h-1.8v-5.3c0-.8-.2-1.6-1-1.6-.4 0-.9.3-1 1-.1.2-.1.4-.1.7v5.1h-1.8v-5.9zM94.1 259.4c.3.2.9.4 1.4.4.6 0 1-.3 1-1 0-.5-.2-.9-1-1.3-1.2-.7-1.7-1.5-1.7-2.4 0-1.4 1-2.5 2.5-2.5.7 0 1.2.2 1.6.4l-.4 1.3c-.3-.2-.7-.4-1.1-.4-.6 0-.9.4-.9.9 0 .4.2.7 1 1.2 1.1.7 1.7 1.5 1.7 2.5 0 1.7-1.2 2.5-2.7 2.5-.6 0-1.4-.2-1.8-.5l.4-1.1zM105 258.8c0 .9 0 1.7.1 2.4h-1.6l-.1-.9c-.3.5-1 1-1.9 1-1.5 0-2.1-1.1-2.1-3.3v-5.1h1.8v4.9c0 1.2.2 2 1 2 .6 0 .8-.5.9-.8.1-.2.1-.4.1-.7v-5.4h1.8v5.9zM106.7 255.2c0-.8 0-1.6-.1-2.3h1.6l.1 1.2h.1c.3-.8 1-1.4 1.7-1.4h.4v1.8h-.4c-.6 0-1.3.5-1.5 1.4 0 .2-.1.5-.1.8v4.4h-1.8v-5.9zM116.4 259.3c0 .6 0 1.3.1 1.9h-1.6l-.1-.8c-.4.6-1 1-1.8 1-1.2 0-2.1-1-2.1-2.4 0-2.1 1.8-3 3.7-3v-.2c0-.9-.3-1.5-1.2-1.5-.6 0-1.1.2-1.5.5l-.3-1.2c.4-.3 1.3-.6 2.3-.6 2.1 0 2.7 1.5 2.7 3.2v3.1zm-1.8-2.3c-.7 0-2 .2-2 1.6 0 .9.5 1.3.9 1.3.5 0 .9-.3 1-1 0-.1.1-.3.1-.4V257zM118.1 255.2c0-.9 0-1.6-.1-2.3h1.6l.1 1c.4-.7 1.1-1.1 2-1.1 1.4 0 2.1 1.1 2.1 3v5.4H122v-5.3c0-.8-.2-1.6-1-1.6-.4 0-.8.3-1 1-.1.2-.1.4-.1.7v5.1h-1.8v-5.9zM129.8 261c-.3.1-.8.3-1.4.3-2 0-3.3-1.5-3.3-4.2 0-2.5 1.4-4.3 3.6-4.3.5 0 1 .1 1.2.2l-.3 1.4c-.2-.1-.5-.2-.9-.2-1.2 0-1.8 1.3-1.8 2.8 0 1.7.7 2.7 1.8 2.7.3 0 .6-.1.9-.2l.2 1.5zM132.2 257.5c0 1.9.9 2.4 1.8 2.4.6 0 1.1-.1 1.5-.3l.3 1.3c-.5.2-1.3.4-2.1.4-2.1 0-3.3-1.5-3.3-4.1 0-2.7 1.3-4.4 3.1-4.4 1.7 0 2.6 1.6 2.6 3.8 0 .5 0 .7-.1 1h-3.8zm2.2-1.3c0-1.3-.4-2.1-1.1-2.1-.8 0-1.1 1.1-1.2 2.1h2.3zM26.2 279.8c.4.2 1 .4 1.6.4 1.1 0 1.8-.7 1.8-1.9 0-1.3-.9-2-2.1-2h-.3V275h.2c.8 0 1.9-.5 1.9-1.7 0-.9-.5-1.5-1.4-1.5-.5 0-1 .2-1.4.5l-.3-1.4c.4-.3 1.3-.6 2.1-.6 1.8 0 2.7 1.2 2.7 2.6 0 1.1-.6 2.1-1.6 2.5 1 .3 1.9 1.3 1.9 2.9 0 1.7-1.2 3.3-3.5 3.3-.8 0-1.6-.2-2.1-.5l.5-1.3zM34.3 281.7c-.6 0-1.1-.5-1.1-1.3 0-.7.5-1.3 1.1-1.3.6 0 1.1.5 1.1 1.3.1.8-.4 1.3-1.1 1.3zM45.8 281.3c-.5.2-1.4.4-2.2.4-1.2 0-2.1-.3-2.9-1.1-.9-.9-1.4-2.6-1.4-4.6 0-4.3 2.4-5.9 4.6-5.9.8 0 1.4.2 1.8.3l-.4 1.6c-.3-.2-.7-.3-1.3-.3-1.5 0-2.8 1.1-2.8 4.3 0 3.1 1.2 4.2 2.4 4.2.3 0 .5 0 .6-.1v-3.2H43v-1.5h2.9v5.9zM48.8 277.9c0 1.9.9 2.4 1.8 2.4.6 0 1.1-.1 1.5-.3l.3 1.3c-.5.2-1.3.4-2.1.4-2.1 0-3.3-1.5-3.3-4.1 0-2.7 1.3-4.4 3.1-4.4 1.7 0 2.6 1.6 2.6 3.8 0 .5 0 .7-.1 1h-3.8zm2.3-1.3c0-1.3-.4-2.1-1.1-2.1-.8 0-1.1 1.1-1.2 2.1h2.3zM56.2 271.2v2.1h1.6v1.3h-1.6v4.3c0 1 .4 1.3.8 1.3.2 0 .4 0 .6-.1v1.4c-.3.1-.7.1-1.2.1-.6 0-1.1-.2-1.5-.5-.4-.4-.6-1-.6-2.2v-4.3h-1v-1.3h1v-1.4l1.9-.7zM61.5 279.6c.4.3 1.2.5 1.8.5 1.1 0 1.7-.6 1.7-1.6 0-.9-.6-1.4-1.5-2.1-1.3-.8-2.2-2-2.2-3.2 0-1.8 1.2-3.2 3.3-3.2.7 0 1.4.2 1.7.4L66 272c-.3-.2-.8-.4-1.4-.4-1 0-1.5.7-1.5 1.4 0 .9.5 1.3 1.6 2 1.4 1 2 2.1 2 3.3 0 2.1-1.5 3.4-3.5 3.4-.8 0-1.7-.2-2.1-.5l.4-1.6zM70.8 281.7c-1.8 0-3-1.5-3-4.2 0-3 1.5-4.3 3-4.3 1.7 0 2.9 1.5 2.9 4.2.1 3.3-1.6 4.3-2.9 4.3zm.1-1.4c.9 0 1.1-1.6 1.1-2.9 0-1.2-.2-2.9-1.1-2.9-1 0-1.2 1.7-1.2 2.9 0 1.4.2 2.9 1.2 2.9zM79.5 281.4c-.3.1-.8.3-1.4.3-2 0-3.3-1.5-3.3-4.2 0-2.5 1.4-4.3 3.6-4.3.5 0 1 .1 1.2.2l-.3 1.4c-.2-.1-.5-.2-.9-.2-1.2 0-1.8 1.3-1.8 2.8 0 1.7.7 2.7 1.8 2.7.3 0 .6-.1.9-.2l.2 1.5zM81.3 272.2c-.5 0-1-.4-1-1.1 0-.6.4-1.1 1-1.1s1 .4 1 1.1c0 .7-.4 1.1-1 1.1zm-.8 9.4v-8.3h1.8v8.3h-1.8zM89 279.7c0 .6 0 1.3.1 1.9h-1.6l-.1-.8c-.4.6-1 1-1.8 1-1.2 0-2.1-1-2.1-2.4 0-2.1 1.8-3 3.7-3v-.4c0-.9-.3-1.5-1.2-1.5-.6 0-1.1.2-1.5.5l-.3-1.2c.4-.3 1.3-.6 2.3-.6 2.1 0 2.7 1.5 2.7 3.2v3.3zm-1.8-2.3c-.7 0-2 .2-2 1.6 0 .9.5 1.3.9 1.3.5 0 .9-.3 1-1 0-.1.1-.3.1-.4v-1.5zM90.7 269.8h1.8v11.8h-1.8v-11.8zM96.9 279.6c.4.3 1.2.5 1.8.5 1.1 0 1.7-.6 1.7-1.6 0-.9-.6-1.4-1.5-2.1-1.3-.8-2.2-2-2.2-3.2 0-1.8 1.2-3.2 3.3-3.2.7 0 1.4.2 1.7.4l-.3 1.6c-.3-.2-.8-.4-1.4-.4-1 0-1.5.7-1.5 1.4 0 .9.5 1.3 1.6 2 1.4 1 2 2.1 2 3.3 0 2.1-1.5 3.4-3.5 3.4-.8 0-1.7-.2-2.1-.5l.4-1.6zM105 277.9c0 1.9.9 2.4 1.8 2.4.6 0 1.1-.1 1.5-.3l.3 1.3c-.5.2-1.3.4-2.1.4-2.1 0-3.3-1.5-3.3-4.1 0-2.7 1.3-4.4 3.1-4.4 1.7 0 2.6 1.6 2.6 3.8 0 .5 0 .7-.1 1H105zm2.2-1.3c0-1.3-.4-2.1-1.1-2.1-.8 0-1.1 1.1-1.2 2.1h2.3zM114.6 281.4c-.3.1-.8.3-1.4.3-2 0-3.3-1.5-3.3-4.2 0-2.5 1.4-4.3 3.6-4.3.5 0 1 .1 1.2.2l-.3 1.4c-.2-.1-.5-.2-.9-.2-1.2 0-1.8 1.3-1.8 2.8 0 1.7.7 2.7 1.8 2.7.3 0 .6-.1.9-.2l.2 1.5zM121.2 279.2c0 .9 0 1.7.1 2.4h-1.6l-.1-.9c-.3.5-1 1-1.9 1-1.5 0-2.1-1.1-2.1-3.3v-5.1h1.8v4.9c0 1.2.2 2 1 2 .6 0 .8-.5.9-.8.1-.2.1-.4.1-.7v-5.4h1.8v5.9zM122.9 275.6c0-.8 0-1.6-.1-2.3h1.6l.1 1.2h.1c.3-.8 1-1.4 1.7-1.4h.4v1.8h-.4c-.6 0-1.3.5-1.5 1.4 0 .2-.1.5-.1.8v4.4h-1.8v-5.9zM128.5 272.2c-.5 0-1-.4-1-1.1 0-.6.4-1.1 1-1.1s1 .4 1 1.1c0 .7-.5 1.1-1 1.1zm-.9 9.4v-8.3h1.8v8.3h-1.8zM133.2 271.2v2.1h1.6v1.3h-1.6v4.3c0 1 .4 1.3.8 1.3.2 0 .4 0 .6-.1v1.4c-.3.1-.7.1-1.2.1-.6 0-1.1-.2-1.5-.5-.4-.4-.6-1-.6-2.2v-4.3h-1v-1.3h1v-1.4l1.9-.7zM137.3 273.3l.9 4.5c.1.6.2 1.1.3 1.5.1-.4.2-1 .3-1.5l.8-4.5h1.8l-1.5 5.9c-.4 1.8-1 3.6-1.9 4.7-.6.8-1.4 1.2-1.7 1.3l-.6-1.6c.4-.2.8-.5 1.1-.9.3-.3.6-.8.7-1.2.1-.2.1-.3.1-.4 0-.1 0-.2-.1-.3l-2.2-7.6h2zM145 275.6c0-.9 0-1.6-.1-2.3h1.6l.1 1c.4-.7 1.1-1.1 2-1.1 1.4 0 2.1 1.1 2.1 3v5.4h-1.8v-5.3c0-.8-.2-1.6-1-1.6-.4 0-.9.3-1 1-.1.2-.1.4-.1.7v5.1H145v-5.9zM158 279.2c0 .9 0 1.7.1 2.4h-1.6l-.1-.9c-.3.5-1 1-1.9 1-1.5 0-2.1-1.1-2.1-3.3v-5.1h1.8v4.9c0 1.2.2 2 1 2 .6 0 .8-.5.9-.8.1-.2.1-.4.1-.7v-5.4h1.8v5.9zM159.7 275.6c0-.9 0-1.6-.1-2.3h1.6l.1 1c.4-.6 1.1-1.1 1.9-1.1.8 0 1.5.4 1.8 1.2.2-.4.5-.7.8-.9.3-.2.7-.3 1.2-.3 1.3 0 2.1 1 2.1 3.1v5.4h-1.8v-5c0-1-.1-1.9-.9-1.9-.5 0-.8.4-1 1-.1.2-.1.4-.1.7v5.3h-1.8v-5.3c0-.7-.1-1.6-.9-1.6-.4 0-.9.3-1 1 0 .2-.1.4-.1.7v5.2h-1.8v-6.2zM170.8 269.8h1.8v4.4c.4-.7 1-1 1.7-1 1.5 0 2.3 1.7 2.3 4.1 0 2.9-1.2 4.4-2.6 4.4-.8 0-1.2-.4-1.6-1.2h-.1l-.1 1h-1.5c0-.6.1-1.6.1-2.2v-9.5zm1.8 8.8c0 .2 0 .4.1.5.2.9.7 1.1 1 1.1.9 0 1.2-1.2 1.2-2.8 0-1.5-.4-2.7-1.2-2.7-.5 0-.9.5-1 1.1 0 .2-.1.4-.1.5v2.3zM179.5 277.9c0 1.9.9 2.4 1.8 2.4.6 0 1.1-.1 1.5-.3l.3 1.3c-.5.2-1.3.4-2.1.4-2.1 0-3.3-1.5-3.3-4.1 0-2.7 1.3-4.4 3.1-4.4 1.7 0 2.6 1.6 2.6 3.8 0 .5 0 .7-.1 1h-3.8zm2.2-1.3c0-1.3-.4-2.1-1.1-2.1-.8 0-1.1 1.1-1.2 2.1h2.3zM184.7 275.6c0-.8 0-1.6-.1-2.3h1.6l.1 1.2h.1c.3-.8 1-1.4 1.7-1.4h.4v1.8h-.4c-.6 0-1.3.5-1.5 1.4 0 .2-.1.5-.1.8v4.4h-1.8v-5.9zM29.5 302v-2.8h-3.7V298l3.6-7h1.8v6.8h1.1v1.5h-1.1v2.8h-1.7zm0-4.3V295c0-.7.1-1.3.1-2h-.1c-.3.7-.5 1.2-.9 1.9l-1.3 2.7h2.2zM34.3 302.1c-.6 0-1.1-.5-1.1-1.3 0-.7.5-1.3 1.1-1.3.6 0 1.1.5 1.1 1.3.1.8-.4 1.3-1.1 1.3zM45.1 301.8c-.3.2-.9.3-1.7.3-2.6 0-4.1-2.1-4.1-5.7 0-4.4 2.3-6 4.4-6 .7 0 1.3.2 1.5.3l-.3 1.5c-.3-.1-.5-.2-1.1-.2-1.2 0-2.5 1.1-2.5 4.3 0 3.1 1.2 4.2 2.5 4.2.4 0 .8-.1 1.1-.2l.2 1.5zM46.2 296c0-.8 0-1.6-.1-2.3h1.6l.1 1.2h.1c.3-.8 1-1.4 1.7-1.4h.4v1.8h-.4c-.6 0-1.3.5-1.5 1.4 0 .2-.1.5-.1.8v4.4h-1.8V296zM52.1 298.3c0 1.9.9 2.4 1.8 2.4.6 0 1.1-.1 1.5-.3l.3 1.3c-.5.2-1.3.4-2.1.4-2.1 0-3.3-1.5-3.3-4.1 0-2.7 1.3-4.4 3.1-4.4 1.7 0 2.6 1.6 2.6 3.8 0 .5 0 .7-.1 1h-3.8zm2.3-1.3c0-1.3-.4-2.1-1.1-2.1-.8 0-1.1 1.1-1.2 2.1h2.3zM62.4 300.1c0 .6 0 1.3.1 1.9h-1.6l-.1-.8c-.4.6-1 1-1.8 1-1.2 0-2.1-1-2.1-2.4 0-2.1 1.8-3 3.7-3v-.2c0-.9-.3-1.5-1.2-1.5-.6 0-1.1.2-1.5.5l-.3-1.2c.4-.3 1.3-.6 2.3-.6 2.1 0 2.7 1.5 2.7 3.2v3.1zm-1.8-2.3c-.7 0-2 .2-2 1.6 0 .9.5 1.3.9 1.3.5 0 .9-.3 1-1 0-.1.1-.3.1-.4v-1.5zM66.1 291.6v2.1h1.6v1.3h-1.6v4.3c0 1 .4 1.3.8 1.3.2 0 .4 0 .6-.1v1.4c-.3.1-.7.1-1.2.1-.6 0-1.1-.2-1.5-.5-.4-.4-.6-1-.6-2.2V295h-1v-1.3h1v-1.4l1.9-.7zM70.1 298.3c0 1.9.9 2.4 1.8 2.4.6 0 1.1-.1 1.5-.3l.3 1.3c-.5.2-1.3.4-2.1.4-2.1 0-3.3-1.5-3.3-4.1 0-2.7 1.3-4.4 3.1-4.4 1.7 0 2.6 1.6 2.6 3.8 0 .5 0 .7-.1 1h-3.8zm2.3-1.3c0-1.3-.4-2.1-1.1-2.1-.8 0-1.1 1.1-1.2 2.1h2.3zM83.1 300.1c0 .6 0 1.3.1 1.9h-1.6l-.1-.8c-.4.6-1 1-1.8 1-1.2 0-2.1-1-2.1-2.4 0-2.1 1.8-3 3.7-3v-.2c0-.9-.3-1.5-1.2-1.5-.6 0-1.1.2-1.5.5l-.3-1.2c.4-.3 1.3-.6 2.3-.6 2.1 0 2.7 1.5 2.7 3.2v3.1zm-1.8-2.3c-.7 0-2 .2-2 1.6 0 .9.5 1.3.9 1.3.5 0 .9-.3 1-1 0-.1.1-.3.1-.4v-1.5zM87.5 290.2h1.8v4.4c.4-.7 1-1 1.7-1 1.5 0 2.3 1.7 2.3 4.1 0 2.9-1.2 4.4-2.6 4.4-.8 0-1.2-.4-1.6-1.2H89l-.1 1h-1.5c0-.6.1-1.6.1-2.2v-9.5zm1.8 8.8c0 .2 0 .4.1.5.2.9.7 1.1 1 1.1.9 0 1.2-1.2 1.2-2.8 0-1.5-.4-2.7-1.2-2.7-.5 0-.9.5-1 1.1 0 .2-.1.4-.1.5v2.3zM100.3 299.6c0 .9 0 1.7.1 2.4h-1.6l-.1-.9c-.3.5-1 1-1.9 1-1.5 0-2.1-1.1-2.1-3.3v-5.1h1.8v4.9c0 1.2.2 2 1 2 .6 0 .8-.5.9-.8.1-.2.1-.4.1-.7v-5.4h1.8v5.9zM107.5 290.2v9.5c0 .7 0 1.6.1 2.2H106l-.1-1h-.1c-.3.6-.9 1.1-1.7 1.1-1.6 0-2.5-1.8-2.5-4.2 0-2.9 1.3-4.3 2.6-4.3.7 0 1.2.3 1.4.9v-4.2h1.9zm-1.8 6.6v-.5c-.1-.7-.4-1.3-1-1.3-.9 0-1.2 1.3-1.2 2.8 0 1.7.4 2.7 1.2 2.7.3 0 .8-.2 1-1 .1-.1.1-.3.1-.5v-2.2zM114.8 301c0 2-.3 2.9-.9 3.5-.6.6-1.4.9-2.5.9-.7 0-1.4-.2-2-.4l.4-1.4c.4.2.9.4 1.6.4 1.1 0 1.6-.7 1.6-2.2v-.8c-.3.6-.9.9-1.5.9-1.7 0-2.5-1.9-2.5-4 0-2.9 1.3-4.3 2.7-4.3.8 0 1.2.5 1.5 1l.1-.9h1.6c-.1.7-.1 1.5-.1 2.6v4.7zm-1.9-4.4c0-.2 0-.4-.1-.6-.1-.4-.4-.9-.9-.9-.9 0-1.3 1.2-1.3 2.7 0 1.8.5 2.7 1.2 2.7.3 0 .7-.2.9-.9.1-.2.1-.5.1-.7v-2.3zM117.9 298.3c0 1.9.9 2.4 1.8 2.4.6 0 1.1-.1 1.5-.3l.3 1.3c-.5.2-1.3.4-2.1.4-2.1 0-3.3-1.5-3.3-4.1 0-2.7 1.3-4.4 3.1-4.4 1.7 0 2.6 1.6 2.6 3.8 0 .5 0 .7-.1 1h-3.8zm2.2-1.3c0-1.3-.4-2.1-1.1-2.1-.8 0-1.1 1.1-1.2 2.1h2.3zM125.3 291.6v2.1h1.6v1.3h-1.6v4.3c0 1 .4 1.3.8 1.3.2 0 .4 0 .6-.1v1.4c-.3.1-.7.1-1.2.1-.6 0-1.1-.2-1.5-.5-.4-.4-.6-1-.6-2.2V295h-1v-1.3h1v-1.4l1.9-.7zM31.4 312.9h-2.9l-.3 2.4h.4c.5 0 1.5.3 2.1.8.6.6.9 1.4.9 2.5 0 2.2-1.4 3.8-3.6 3.8-.7 0-1.5-.2-2-.5l.3-1.4c.4.2 1 .4 1.6.4 1.1 0 1.9-.8 1.9-2.2 0-1.6-1.1-2.2-2.4-2.2-.3 0-.6 0-.8.1l.6-5.4h4.3v1.7zM34.3 322.5c-.6 0-1.1-.5-1.1-1.3 0-.7.5-1.3 1.1-1.3.6 0 1.1.5 1.1 1.3.1.8-.4 1.3-1.1 1.3zM39.5 320.4c.4.3 1.2.5 1.8.5 1.1 0 1.7-.6 1.7-1.6 0-.9-.6-1.4-1.5-2.1-1.3-.8-2.2-2-2.2-3.2 0-1.8 1.2-3.2 3.3-3.2.7 0 1.4.2 1.7.4l-.3 1.6c-.3-.2-.8-.4-1.4-.4-1 0-1.5.7-1.5 1.4 0 .9.5 1.3 1.6 2 1.4 1 2 2.1 2 3.3 0 2.1-1.5 3.4-3.5 3.4-.8 0-1.7-.2-2.1-.5l.4-1.6zM48.2 312v2.1h1.6v1.3h-1.6v4.3c0 1 .4 1.3.8 1.3.2 0 .4 0 .6-.1v1.4c-.3.1-.7.1-1.2.1-.6 0-1.1-.2-1.5-.5-.4-.4-.6-1-.6-2.2v-4.3h-1v-1.3h1v-1.4l1.9-.7zM56 320.5c0 .6 0 1.3.1 1.9h-1.6l-.1-.8c-.4.6-1 1-1.8 1-1.2 0-2.1-1-2.1-2.4 0-2.1 1.8-3 3.7-3v-.2c0-.9-.3-1.5-1.2-1.5-.6 0-1.1.2-1.5.5l-.3-1.2c.4-.3 1.3-.6 2.3-.6 2.1 0 2.7 1.5 2.7 3.2v3.1zm-1.8-2.3c-.7 0-2 .2-2 1.6 0 .9.5 1.3.9 1.3.5 0 .9-.3 1-1 0-.1.1-.3.1-.4v-1.5zM57.6 316.4c0-.8 0-1.6-.1-2.3h1.6l.1 1.2h.1c.3-.8 1-1.4 1.7-1.4h.4v1.8H61c-.6 0-1.3.5-1.5 1.4 0 .2-.1.5-.1.8v4.4h-1.8v-5.9zM64.8 312v2.1h1.6v1.3h-1.6v4.3c0 1 .4 1.3.8 1.3.2 0 .4 0 .6-.1v1.4c-.3.1-.7.1-1.2.1-.6 0-1.1-.2-1.5-.5-.4-.4-.6-1-.6-2.2v-4.3h-1v-1.3h1v-1.4l1.9-.7zM71.7 318.7c0 1.9.9 2.4 1.8 2.4.6 0 1.1-.1 1.5-.3l.3 1.3c-.5.2-1.3.4-2.1.4-2.1 0-3.3-1.5-3.3-4.1 0-2.7 1.3-4.4 3.1-4.4 1.7 0 2.6 1.6 2.6 3.8 0 .5 0 .7-.1 1h-3.8zm2.2-1.3c0-1.3-.4-2.1-1.1-2.1-.8 0-1.1 1.1-1.2 2.1h2.3zM82.5 310.6v9.5c0 .7 0 1.6.1 2.2H81l-.1-1h-.1c-.3.6-.9 1.1-1.7 1.1-1.6 0-2.5-1.8-2.5-4.2 0-2.9 1.3-4.3 2.6-4.3.7 0 1.2.3 1.4.9v-4.2h1.9zm-1.9 6.6v-.5c-.1-.7-.4-1.3-1-1.3-.9 0-1.2 1.3-1.2 2.8 0 1.7.4 2.7 1.2 2.7.3 0 .8-.2 1-1 .1-.1.1-.3.1-.5v-2.2zM89.7 320c0 .9 0 1.7.1 2.4h-1.6l-.1-.9c-.3.5-1 1-1.9 1-1.5 0-2.1-1.1-2.1-3.3v-5.1h1.8v4.9c0 1.2.2 2 1 2 .6 0 .8-.5.9-.8.1-.2.1-.4.1-.7v-5.4h1.8v5.9zM95.7 322.2c-.3.1-.8.3-1.4.3-2 0-3.3-1.5-3.3-4.2 0-2.5 1.4-4.3 3.6-4.3.5 0 1 .1 1.2.2l-.3 1.4c-.2-.1-.5-.2-.9-.2-1.2 0-1.8 1.3-1.8 2.8 0 1.7.7 2.7 1.8 2.7.3 0 .6-.1.9-.2l.2 1.5zM101.9 320.5c0 .6 0 1.3.1 1.9h-1.6l-.1-.8c-.4.6-1 1-1.8 1-1.2 0-2.1-1-2.1-2.4 0-2.1 1.8-3 3.7-3v-.2c0-.9-.3-1.5-1.2-1.5-.6 0-1.1.2-1.5.5l-.3-1.2c.4-.3 1.3-.6 2.3-.6 2.1 0 2.7 1.5 2.7 3.2v3.1zm-1.8-2.3c-.7 0-2 .2-2 1.6 0 .9.5 1.3.9 1.3.5 0 .9-.3 1-1 0-.1.1-.3.1-.4v-1.5zM105.6 312v2.1h1.6v1.3h-1.6v4.3c0 1 .4 1.3.8 1.3.2 0 .4 0 .6-.1v1.4c-.3.1-.7.1-1.2.1-.6 0-1.1-.2-1.5-.5-.4-.4-.6-1-.6-2.2v-4.3h-1v-1.3h1v-1.4l1.9-.7zM109.2 313c-.5 0-1-.4-1-1.1 0-.6.4-1.1 1-1.1s1 .4 1 1.1c0 .7-.4 1.1-1 1.1zm-.9 9.4v-8.3h1.8v8.3h-1.8zM114.4 322.5c-1.8 0-3-1.5-3-4.2 0-3 1.5-4.3 3-4.3 1.7 0 2.9 1.5 2.9 4.2.1 3.3-1.6 4.3-2.9 4.3zm.1-1.4c.9 0 1.1-1.6 1.1-2.9 0-1.2-.2-2.9-1.1-2.9-1 0-1.2 1.7-1.2 2.9 0 1.4.2 2.9 1.2 2.9zM118.7 316.4c0-.9 0-1.6-.1-2.3h1.6l.1 1c.4-.7 1.1-1.1 2-1.1 1.4 0 2.1 1.1 2.1 3v5.4h-1.8v-5.3c0-.8-.2-1.6-1-1.6-.4 0-.8.3-1 1-.1.2-.1.4-.1.7v5.1h-1.8v-5.9zM129.2 322.4v-7h-1.1v-1.3h1.1v-.4c0-.9.2-1.8.8-2.5.5-.5 1.2-.7 1.8-.7.5 0 .9.1 1.2.2l-.2 1.4c-.2-.1-.4-.1-.7-.1-.8 0-1.1.8-1.1 1.7v.4h1.5v1.3H131v7h-1.8zM138.8 320c0 .9 0 1.7.1 2.4h-1.6l-.1-.9c-.3.5-1 1-1.9 1-1.5 0-2.1-1.1-2.1-3.3v-5.1h1.8v4.9c0 1.2.2 2 1 2 .6 0 .8-.5.9-.8.1-.2.1-.4.1-.7v-5.4h1.8v5.9zM140.5 316.4c0-.9 0-1.6-.1-2.3h1.6l.1 1c.4-.7 1.1-1.1 2-1.1 1.4 0 2.1 1.1 2.1 3v5.4h-1.8v-5.3c0-.8-.2-1.6-1-1.6-.4 0-.8.3-1 1-.1.2-.1.4-.1.7v5.1h-1.8v-5.9zM153.4 310.6v9.5c0 .7 0 1.6.1 2.2H152l-.1-1h-.1c-.3.6-.9 1.1-1.7 1.1-1.6 0-2.5-1.8-2.5-4.2 0-2.9 1.3-4.3 2.6-4.3.7 0 1.2.3 1.4.9v-4.2h1.8zm-1.8 6.6v-.5c-.1-.7-.4-1.3-1-1.3-.9 0-1.2 1.3-1.2 2.8 0 1.7.4 2.7 1.2 2.7.3 0 .8-.2 1-1 .1-.1.1-.3.1-.5v-2.2zM31.2 333.1c-.2 0-.5 0-.9.1-1.6.4-2.4 1.9-2.6 3.4h.1c.4-.6 1-1 1.8-1 1.4 0 2.4 1.3 2.4 3.4 0 2-1 3.9-3 3.9s-3.1-1.9-3.1-4.5c0-2.3.7-3.9 1.6-5.1.7-.9 1.8-1.4 2.7-1.6.4-.1.8-.1 1-.1v1.5zm-2.1 8.5c.7 0 1.2-.9 1.2-2.5 0-1.3-.4-2.1-1.2-2.1-.4 0-.9.3-1.1.9-.1.1-.1.4-.1.8-.2 1.9.4 2.9 1.2 2.9zM34.3 342.9c-.6 0-1.1-.5-1.1-1.3 0-.7.5-1.3 1.1-1.3.6 0 1.1.5 1.1 1.3.1.8-.4 1.3-1.1 1.3zM40.7 333h-2.1v-1.7h5.9v1.7h-2.1v9.8h-1.8V333zM49.9 340.9c0 .6 0 1.3.1 1.9h-1.6l-.1-.8c-.4.6-1 1-1.8 1-1.2 0-2.1-1-2.1-2.4 0-2.1 1.8-3 3.7-3v-.2c0-.9-.3-1.5-1.2-1.5-.6 0-1.1.2-1.5.5l-.3-1.2c.4-.3 1.3-.6 2.3-.6 2.1 0 2.7 1.5 2.7 3.2v3.1zm-1.8-2.3c-.7 0-2 .2-2 1.6 0 .9.5 1.3.9 1.3.5 0 .9-.3 1-1 0-.1.1-.3.1-.4v-1.5zM52.9 334.5l.6 1.6c.2.5.3 1 .5 1.4.1-.5.3-1 .5-1.4l.6-1.6h1.8l-1.9 4.1 1.9 4.2h-2l-.7-1.7c-.2-.4-.3-.8-.5-1.3-.1.5-.3.9-.5 1.4l-.6 1.7h-1.8l1.9-4.1-1.9-4.1h2.1zM60.6 331h1.8v4.4c.4-.7 1-1 1.7-1 1.5 0 2.3 1.7 2.3 4.1 0 2.9-1.2 4.4-2.6 4.4-.8 0-1.2-.4-1.6-1.2h-.1l-.1 1h-1.5c0-.6.1-1.6.1-2.2V331zm1.8 8.8c0 .2 0 .4.1.5.2.9.7 1.1 1 1.1.9 0 1.2-1.2 1.2-2.8 0-1.5-.4-2.7-1.2-2.7-.5 0-.9.5-1 1.1 0 .2-.1.4-.1.5v2.3zM69.3 339.1c0 1.9.9 2.4 1.8 2.4.6 0 1.1-.1 1.5-.3l.3 1.3c-.5.2-1.3.4-2.1.4-2.1 0-3.3-1.5-3.3-4.1 0-2.7 1.3-4.4 3.1-4.4 1.7 0 2.6 1.6 2.6 3.8 0 .5 0 .7-.1 1h-3.8zm2.2-1.3c0-1.3-.4-2.1-1.1-2.1-.8 0-1.1 1.1-1.2 2.1h2.3zM74.5 336.8c0-.9 0-1.6-.1-2.3H76l.1 1c.4-.7 1.1-1.1 2-1.1 1.4 0 2.1 1.1 2.1 3v5.4h-1.8v-5.3c0-.8-.2-1.6-1-1.6-.4 0-.9.3-1 1-.1.2-.1.4-.1.7v5.1h-1.8v-5.9zM83.3 339.1c0 1.9.9 2.4 1.8 2.4.6 0 1.1-.1 1.5-.3l.3 1.3c-.5.2-1.3.4-2.1.4-2.1 0-3.3-1.5-3.3-4.1 0-2.7 1.3-4.4 3.1-4.4 1.7 0 2.6 1.6 2.6 3.8 0 .5 0 .7-.1 1h-3.8zm2.3-1.3c0-1.3-.4-2.1-1.1-2.1-.8 0-1.1 1.1-1.2 2.1h2.3zM88.9 342.8v-7h-1.1v-1.3h1.1v-.4c0-.9.2-1.8.8-2.5.5-.5 1.2-.7 1.8-.7.5 0 .9.1 1.2.2l-.2 1.4c-.2-.1-.4-.1-.7-.1-.8 0-1.1.8-1.1 1.7v.4h1.5v1.3h-1.5v7h-1.8zM93.9 333.4c-.5 0-1-.4-1-1.1 0-.6.4-1.1 1-1.1s1 .4 1 1.1c0 .7-.4 1.1-1 1.1zm-.9 9.4v-8.3h1.8v8.3H93zM98.7 332.4v2.1h1.6v1.3h-1.6v4.3c0 1 .4 1.3.8 1.3.2 0 .4 0 .6-.1v1.4c-.3.1-.7.1-1.2.1-.6 0-1.1-.2-1.5-.5-.4-.4-.6-1-.6-2.2v-4.3h-1v-1.3h1v-1.4l1.9-.7zM101.2 341c.3.2.9.4 1.4.4.6 0 1-.3 1-1 0-.5-.2-.9-1-1.3-1.2-.7-1.7-1.5-1.7-2.4 0-1.4 1-2.5 2.5-2.5.7 0 1.2.2 1.6.4l-.4 1.3c-.3-.2-.7-.4-1.1-.4-.6 0-.9.4-.9.9 0 .4.2.7 1 1.2 1.1.7 1.7 1.5 1.7 2.5 0 1.7-1.2 2.5-2.7 2.5-.6 0-1.4-.2-1.8-.5l.4-1.1z"/><g><path class="st1" d="M65.7 139c1 .5 2.7.9 4 .9 2.2 0 3.3-1.2 3.3-2.7 0-1.8-1.1-2.6-3.1-4-3.3-2-4.6-4.6-4.6-6.8 0-3.9 2.6-7.1 7.6-7.1 1.6 0 3.1.4 3.8.9l-.8 4.1c-.7-.4-1.7-.8-3.1-.8-2 0-3 1.2-3 2.5 0 1.4.7 2.2 3.3 3.8 3.2 1.9 4.4 4.4 4.4 6.9 0 4.4-3.3 7.3-8 7.3-1.9 0-3.8-.5-4.6-1l.8-4zM84.8 123.9h-4.3v-4.4h13.3v4.4h-4.3v19.9h-4.7v-19.9zM100.6 138.3l-1.1 5.5H95l5.3-24.3h5.7l4.7 24.3H106l-1-5.5h-4.4zm4-3.7l-.8-5.1c-.3-1.5-.6-3.9-.8-5.5h-.1c-.3 1.6-.6 4.1-.9 5.5l-.9 5.1h3.5zM115 119.9c1.5-.3 3.3-.5 5.1-.5 2.6 0 4.9.4 6.5 1.8 1.5 1.3 1.9 3 1.9 5 0 2.6-1.3 4.9-3.7 6v.1c1.7.7 2.5 2.2 3 4.8.5 2.7 1.1 5.7 1.5 6.6h-4.9c-.3-.7-.9-3.1-1.2-5.8-.4-3-1.2-3.9-2.7-3.9h-.7v9.7H115v-23.8zm4.7 10.6h.9c2.1 0 3.2-1.7 3.2-3.8 0-2.1-.8-3.5-2.9-3.6-.4 0-.9 0-1.2.1v7.3zM136.2 123.9h-4.3v-4.4h13.3v4.4h-4.3v19.9h-4.7v-19.9z"/></g><g><path class="st1" d="M64.8 158c0-1.8-.1-3.1-.1-4.3h2.6l.2 1.7h.1c.6-1.3 1.7-1.9 2.9-1.9 2.7 0 4.1 2.9 4.1 7 0 5-2.1 7.1-4.3 7.1-1.2 0-1.9-.7-2.3-1.4h-.1v6.6h-3V158zm3 4.4c0 .4.1.8.1 1.1.4 1.3 1.1 1.6 1.6 1.6 1.5 0 2-2.2 2-4.6 0-2.7-.6-4.5-2-4.5-.8 0-1.4.8-1.6 1.8-.1.3-.1.6-.1 1v3.6zM76.7 148h3v19.4h-3V148zM90.9 164.2c0 1.1 0 2.2.2 3.1h-2.7l-.2-1.4h-.1c-.7 1-1.7 1.6-2.9 1.6-2 0-3.4-1.6-3.4-4 0-3.5 3-5 6-5v-.4c0-1.4-.6-2.4-2-2.4-1 0-1.8.3-2.5.8l-.6-2c.7-.4 2.1-1 3.8-1 3.5 0 4.4 2.4 4.4 5.3v5.4zm-2.9-3.7c-1.2 0-3.3.3-3.3 2.7 0 1.5.8 2.1 1.5 2.1.8 0 1.5-.5 1.7-1.6.1-.2.1-.4.1-.7v-2.5zM93.7 157.5c0-1.5-.1-2.6-.1-3.8h2.6l.1 1.6h.1c.6-1.1 1.8-1.8 3.2-1.8 2.3 0 3.5 1.8 3.5 4.9v8.9h-3v-8.7c0-1.4-.3-2.7-1.6-2.7-.7 0-1.4.6-1.7 1.7-.1.3-.1.7-.1 1.2v8.4h-3v-9.7zM105.8 157.5c0-1.5-.1-2.6-.1-3.8h2.6l.1 1.6h.1c.6-1.1 1.8-1.8 3.2-1.8 2.3 0 3.5 1.8 3.5 4.9v8.9h-3v-8.7c0-1.4-.3-2.7-1.6-2.7-.7 0-1.4.6-1.7 1.7-.1.3-.1.7-.1 1.2v8.4h-3v-9.7zM119.4 151.9c-.9 0-1.6-.7-1.6-1.7 0-1.1.7-1.7 1.6-1.7 1 0 1.6.7 1.6 1.7.1 1-.6 1.7-1.6 1.7zm-1.4 15.4v-13.6h3v13.6h-3zM123.7 157.5c0-1.5-.1-2.6-.1-3.8h2.6l.1 1.6h.1c.6-1.1 1.8-1.8 3.2-1.8 2.3 0 3.5 1.8 3.5 4.9v8.9h-3v-8.7c0-1.4-.3-2.7-1.6-2.7-.7 0-1.4.6-1.7 1.7-.1.3-.1.7-.1 1.2v8.4h-3v-9.7zM145 165.7c0 3.2-.5 4.7-1.5 5.7-.9 1-2.3 1.5-4.1 1.5-1.2 0-2.4-.3-3.2-.6l.6-2.3c.6.3 1.5.6 2.6.6 1.8 0 2.7-1.1 2.7-3.7v-1.1h-.1c-.5 1-1.4 1.5-2.5 1.5-2.8 0-4.1-3.1-4.1-6.7 0-4.8 2.2-7.1 4.5-7.1 1.3 0 2 .8 2.5 1.7h.1l.2-1.5h2.6c-.1 1.1-.1 2.4-.1 4.3v7.7zm-2.9-7.2c0-.4-.1-.7-.1-1-.2-.7-.6-1.5-1.5-1.5-1.4 0-2.1 1.9-2.1 4.5 0 3 .9 4.4 2 4.4.6 0 1.2-.3 1.5-1.4.1-.4.2-.8.2-1.1v-3.9z"/></g><g><path class="st1" d="M75.1 191.2h-5.5v6.6h6.2v4.1H64.9v-24.3h10.5v4.1h-5.8v5.6h5.5v3.9zM85 196.3l-1.1 5.5h-4.6l5.3-24.3h5.7l4.7 24.3h-4.6l-1-5.5H85zm3.9-3.7l-.8-5.1c-.3-1.5-.6-3.9-.8-5.5h-.1c-.3 1.6-.6 4.1-.9 5.5l-.9 5.1h3.5zM99.6 177.9c1.5-.3 3.3-.5 5.1-.5 2.6 0 4.9.4 6.5 1.8 1.5 1.3 1.9 3 1.9 5 0 2.6-1.3 4.9-3.7 6v.1c1.7.7 2.5 2.2 3 4.8.5 2.7 1.1 5.7 1.5 6.6H109c-.3-.7-.9-3.1-1.2-5.8-.4-3-1.2-3.9-2.7-3.9h-.7v9.7h-4.7v-23.8zm4.7 10.6h.9c2.1 0 3.2-1.7 3.2-3.8 0-2.1-.8-3.5-2.9-3.6-.4 0-.9 0-1.2.1v7.3zM118.6 177.6h4.7v20.3h6.2v4h-10.9v-24.3zM135.1 201.8v-9.3l-5.3-15h5l1.6 5.8c.5 1.5.9 3.3 1.3 5.1h.1c.3-1.8.7-3.5 1.1-5.3l1.4-5.7h4.9l-5.4 14.8v9.5h-4.7z"/></g><g><path class="st1" d="M188.9 51.1c-.4 0-.7 0-1.1.1.2-.3.7-.6 1.1-.6.7 0 1.3-.6 1.3-1.3 0-.7-.6-1.3-1.3-1.3-2.2 0-3.9 1.8-3.9 3.9-3.2 1.5-5.4 4.7-5.4 8.5 0 5.2 4.2 9.3 9.3 9.3 5.2 0 9.3-4.2 9.3-9.3 0-5.1-4.2-9.3-9.3-9.3zm-6.8 9.4c0-2.6 1.5-4.9 3.7-6.1.7.9 1.8 1.5 3.1 1.5.7 0 1.3-.6 1.3-1.3 0-.3-.1-.7-.4-.9 3.3.4 5.9 3.3 5.9 6.7 0 3.7-3 6.8-6.8 6.8-3.8.1-6.8-3-6.8-6.7z"/><circle class="st1" cx="185.8" cy="59.6" r="1"/><circle class="st1" cx="191.9" cy="59.6" r="1"/><path class="st1" d="M177.9 30.9c.7 0 1.2-.6 1.2-1.3 0-.7-.5-1.2-1.2-1.3l-5.4-.5c.2-.1.3-.3.5-.4 1.8-1.8 1.8-4.8 0-6.6-.2-.2-.6-.4-.9-.4-.3 0-.7.1-.9.4l-4 4-4-4c-.5-.5-1.3-.5-1.8 0-.9.9-1.4 2.1-1.4 3.3 0 1 .3 1.9.8 2.7L149 25.7c-1.4-3.8-5-6.5-9.3-6.5-3.7 0-7 2-8.8 5.3 0 .1-.1.1-.1.2v.1c-.5 1.1-.8 1.7-.8 1.9-2.3 6.2-3.1 10.5-3.9 15.1-1 5.5-2.1 11.8-6.4 22.7H86.4c-8.4-9.2-8.5-23.3-.1-32.5l28.2 28c.2.2.6.4.9.4.3 0 .7-.1.9-.4.5-.5.5-1.3 0-1.8L80.4 22.5c-.5-.5-1.3-.5-1.8 0s-.5 1.3 0 1.8l1.4 1.4-5.4-2.8c-.6-.3-1.4-.1-1.7.5-.3.6-.1 1.4.5 1.7l4.8 2.5-8.8-2c-.7-.2-1.4.3-1.5 1-.2.7.3 1.4 1 1.5l14.6 3.3c-7.8 9.6-7.9 23.3-.4 33H70.3c-.4 0-.8.2-1 .5-.2.3-.3.7-.2 1.1.8 2.7 2 5.2 3.4 7.5H18.3c-.7 0-1.3.6-1.3 1.3 0 .7.6 1.3 1.3 1.3h56c1.1 1.5 2.4 2.9 3.8 4.2H34.2c-.7 0-1.3.6-1.3 1.3 0 .7.6 1.3 1.3 1.3h46.9c5.4 4 12.1 6.3 19.1 6.3 14.2 0 27-9.5 31.1-23.1 2.1-6.9 2.1-13 2.1-18.8 0-2.1 0-4.1.1-6.2.1-1.2.3-2.7.5-3.9 1.7 1.2 3.7 1.9 5.8 1.9 4.1 0 7.7-2.5 9.2-6.2l16-1.1c-11.6 35.5-11.6 35.9-11.6 36.2 0 8 6 14.6 13.4 14.6s13.4-6.5 13.4-14.6c0-.3 0-.6-11.7-36.4l9.4-.7zM134.2 34c-.2-.3-.6-.4-1-.4-1.2 0-1.5 1.3-1.9 3.3-.3 1.5-.5 3-.5 4.1-.1 2.1-.1 4.3-.1 6.3 0 5.6.1 11.5-1.9 18.1-3.8 12.5-15.6 21.3-28.7 21.3-5.1 0-10-1.3-14.4-3.7h7.4c.7 0 1.3-.6 1.3-1.3 0-.7-.6-1.3-1.3-1.3H82c-4.4-3.4-7.9-8-9.8-13.4h13.2c5.1 5.1 11.5 7.6 18 7.6 6.4 0 12.9-2.6 18-7.7.1-.1.2-.2.3-.4.1-.1.2-.2.2-.4 4.6-11.7 5.8-18.2 6.8-24 .8-4.4 1.5-8.6 3.8-14.7 0-.1.1-.4.7-1.7v-.1c1.3-2.5 3.8-4.1 6.6-4.1 4.1 0 7.4 3.3 7.4 7.4 0 4.1-3.3 7.4-7.4 7.4-2.1.2-4.2-.7-5.6-2.3zm-16.8 33c-8.5 6.9-19.7 6.9-28.3 0h28.3zm32.3-38.7l12.3 1.1-12.4.9c0-.4.1-.8.1-1.2v-.8zm19.7-2.1l2.4-2.4c.1.6-.1 1.3-.6 1.8-.4.5-1.1.7-1.8.6zm-6.8-2.4l2.4 2.5c-.7.1-1.4-.1-1.8-.6-.4-.4-.6-.9-.6-1.5v-.4zm-6.7 44.3c.5-1.8 6.3-19.8 10.8-33.6 4.5 13.9 10.3 31.9 10.9 33.6-.1 6.6-4.9 11.9-10.8 11.9-6 0-10.8-5.3-10.9-11.9z"/><path class="st1" d="M144.8 26.8h-3.7c0 1 .8 1.8 1.8 1.8 1.1 0 1.9-.8 1.9-1.8z"/></g></g></svg>