<?xml version="1.0" encoding="UTF-8"?>
<svg width="326pt" version="1.1" xmlns="http://www.w3.org/2000/svg" height="166pt" viewBox="0 0 326 166" xmlns:xlink="http://www.w3.org/1999/xlink">
 <defs>
  <clipPath id="Clip0">
   <path d="M0 0 L326 0 L326 166 L0 166 L0 0 Z" transform="translate(0, 0)"/>
  </clipPath>
 </defs>
 <g id="Background">
  <g id="Group1" clip-path="url(#Clip0)">
   <path style="fill:#000000; fill-rule:nonzero;stroke:none;" d="M1.5498 30 L0 30.9004 L0 0 L1.5498 0.9004 L1.5498 30 Z" transform="translate(2.25, 25.0996)"/>
   <path style="fill:#000000; fill-rule:nonzero;stroke:none;" d="M1.54981 25.5 L0 25.5 L0 0 L1.54981 0 L1.54981 25.5 Z" transform="translate(6.15039, 27.7998)"/>
   <path style="fill:#000000; fill-rule:nonzero;stroke:none;" d="M26.75 14.5508 L26.75 15.4502 L25.9502 15.9004 L0 0.9004 L1.5498 0 L26.75 14.5508 Z" transform="translate(2.25, 55.0996)"/>
   <path style="fill:#000000; fill-rule:nonzero;stroke:none;" d="M25.2002 0 L26 0.4502 L25.9004 1.4004 L0.7998 15.9004 L0 15.4502 L0 14.5508 L25.2002 0 Z" transform="translate(29, 55.0996)"/>
   <path style="fill:#000000; fill-rule:nonzero;stroke:none;" d="M22.1006 0 L22.8506 1.3506 L0.8008 14.1006 L0 12.75 L22.1006 0 Z" transform="translate(28.5996, 52.5996)"/>
   <path style="fill:#000000; fill-rule:nonzero;stroke:none;" d="M0 0.4502 L0.7998 0 L1.5498 0.4004 L1.5498 29.6006 L0.7998 30 L0 29.5498 L0 0.4502 Z" transform="translate(54.2002, 25.5498)"/>
   <path style="fill:#000000; fill-rule:nonzero;stroke:none;" d="M0 1.79981 L0 0 L25.9004 14.9492 L26 15.8994 L25.2002 16.3496 L0 1.79981 Z" transform="translate(29, 9.65039)"/>
   <path style="fill:#000000; fill-rule:nonzero;stroke:none;" d="M0 1.3496 L0.8008 0 L22.8506 12.75 L22.1006 14.0996 L0 1.3496 Z" transform="translate(28.5996, 14.4004)"/>
   <path style="fill:#000000; fill-rule:nonzero;stroke:none;" d="M1.5498 16.3496 L0 15.4492 L26.75 0 L26.75 1.79981 L1.5498 16.3496 Z" transform="translate(2.25, 9.65039)"/>
   <path style="fill:#000000; fill-rule:evenodd;stroke:none;" d="M5.7002 0 L4.8203 0 L4.8203 5.9599 L1.0097 0 L0 0 L0 7.29 L0.8798 7.29 L0.8798 1.3798 L4.6504 7.29 L5.7002 7.29 L5.7002 0 Z" transform="translate(76.2598, 70.46)"/>
   <path style="fill:#000000; fill-rule:evenodd;stroke:none;" d="M3.6905 3.54981 L6.1504 0 L5.0401 0 L3.1602 2.86035 L1.2901 0 L0.1602 0 L2.5801 3.54981 L0 7.29004 L1.1299 7.29004 L3.1299 4.25 L5.1201 7.29004 L6.2705 7.29004 L3.6905 3.54981 Z" transform="translate(75.4697, 3.20996)"/>
   <path style="fill:#000000; fill-rule:nonzero;stroke:none;" d="M19.1494 14.5996 L18.1992 15.8496 L0 1.3496 L0.0996 0.3994 L0.8496 0 L19.1494 14.5996 Z" transform="translate(54.9004, 55.1504)"/>
   <path style="fill:#000000; fill-rule:nonzero;stroke:none;" d="M1.5 0 L2.8 5.8496 L1.25 6.0498 L0 0.5 L1.5 0 Z" transform="translate(102.9, 65.25)"/>
   <path style="fill:#000000; fill-rule:nonzero;stroke:none;" d="M1.4996 0 L2.6996 5.1504 L1.1496 5.3506 L0 0.5 L1.4996 0 Z" transform="translate(99.9004, 66.2998)"/>
   <path style="fill:#000000; fill-rule:nonzero;stroke:none;" d="M1.5 0 L2.5 4.5498 L0.9502 4.7002 L0 0.5498 L1.5 0 Z" transform="translate(96.9502, 67.2998)"/>
   <path style="fill:#000000; fill-rule:nonzero;stroke:none;" d="M1.4502 0 L2.3496 3.8506 L0.7998 4 L0 0.5 L1.4502 0 Z" transform="translate(94, 68.3496)"/>
   <path style="fill:#000000; fill-rule:nonzero;stroke:none;" d="M1.5 0 L2.2002 3.2002 L0.6504 3.4004 L0 0.5508 L1.5 0 Z" transform="translate(91, 69.3496)"/>
   <path style="fill:#000000; fill-rule:nonzero;stroke:none;" d="M1.4502 0 L2.0498 2.5 L0.5 2.6992 L0 0.5 L1.4502 0 Z" transform="translate(88.0498, 70.4004)"/>
   <path style="fill:#000000; fill-rule:nonzero;stroke:none;" d="M1.5 0 L1.9004 1.8496 L0.3506 2 L0 0.5 L1.5 0 Z" transform="translate(85.0498, 71.4502)"/>
   <path style="fill:#000000; fill-rule:nonzero;stroke:none;" d="M12.85 0 L14.55 0 L1.4 27.3506 L0 26.7002 L12.85 0 Z" transform="translate(107, 40.5498)"/>
   <path style="fill:#000000; fill-rule:nonzero;stroke:none;" d="M0 1.3506 L1.05 0 L14.4 27.7002 L12.7 27.7002 L0 1.3506 Z" transform="translate(107.15, 12.8496)"/>
   <path style="fill:#000000; fill-rule:nonzero;stroke:none;" d="M0 1.5 L0.3496 0 L23.95 5.3994 L22.9 6.75 L0 1.5 Z" transform="translate(84.25, 7.4502)"/>
   <path style="fill:#000000; fill-rule:nonzero;stroke:none;" d="M0.8496 15.6006 L0.0996 15.2002 L0 14.25 L17.8994 0 L18.8994 1.2002 L0.8496 15.6006 Z" transform="translate(54.9004, 10.3496)"/>
   <path style="fill:#000000; fill-rule:evenodd;stroke:none;" d="M3.7402 4.43 L6.4805 0 L5.3701 0 L3.29 3.55 L1.1504 0 L0 0 L2.8105 4.43 L2.8105 7.29 L3.7402 7.29 L3.7402 4.43 Z" transform="translate(25.8799, 96.96)"/>
   <path style="fill:#000000; fill-rule:nonzero;stroke:none;" d="M1.5996 24.4502 L0 24.4502 L0 0.4502 L0.7998 0 L1.5996 0.4502 L1.5996 24.4502 Z" transform="translate(28.2002, 70.5498)"/>
   <path style="fill:#000000; fill-rule:evenodd;stroke:none;" d="M0.9307 4.15 L3.3301 4.15 C4.1601 4.15 4.5303 4.55 4.5303 5.45 L4.5205 6.1 C4.5205 6.55 4.6006 6.99 4.7305 7.29 L5.8603 7.29 L5.8603 7.06 C5.5107 6.82 5.4404 6.56 5.4199 5.59 C5.4101 4.39 5.2207 4.03 4.4307 3.69 C5.25 3.29 5.5801 2.78 5.5801 1.95 C5.5801 0.69 4.79 0 3.3603 0 L0 0 L0 7.29 L0.9307 7.29 L0.9307 4.15 Z M0.9307 3.33 L0.9307 0.82 L3.1807 0.82 C3.7002 0.82 4 0.9 4.2305 1.1 C4.4805 1.311 4.6103 1.64 4.6103 2.08 C4.6103 2.94 4.1699 3.33 3.1807 3.33 L0.9307 3.33 Z" transform="translate(68.6797, 99.46)"/>
   <path style="fill:#000000; fill-rule:nonzero;stroke:none;" d="M5.7998 17.8496 L0 16.2998 L6.6494 0 L8.1494 0.3994 L5.7998 17.8496 Z" transform="translate(69.4502, 79.9502)"/>
   <path style="fill:#000000; fill-rule:evenodd;stroke:none;" d="M3.51 0 C1.42 0 0 1.5401 0 3.8204 C0 6.1006 1.42 7.6407 3.52 7.6407 C4.4 7.6407 5.19 7.3702 5.78 6.8702 C6.57 6.2002 7.04 5.0704 7.04 3.8799 C7.04 1.5303 5.65 0 3.51 0 Z M3.51 0.8204 C5.09 0.8204 6.11 2.0206 6.11 3.8604 C6.11 5.6202 5.06 6.8204 3.52 6.8204 C1.97 6.8204 0.93 5.6202 0.93 3.8204 C0.93 2.0206 1.97 0.8204 3.51 0.8204 Z" transform="translate(125.88, 85.0898)"/>
   <path style="fill:#000000; fill-rule:nonzero;stroke:none;" d="M17.75 16.6494 L16.65 17.75 L0 1.0996 L1.15 0 L17.75 16.6494 Z" transform="translate(108, 65.1504)"/>
   <path style="fill:#000000; fill-rule:nonzero;stroke:none;" d="M18.1 17 L17 18.1006 L0 1.1006 L1.1 0 L18.1 17 Z" transform="translate(104.9, 67.5498)"/>
   <path style="fill:#000000; fill-rule:nonzero;stroke:none;" d="M1.55 30 L0 30.9004 L0 0 L1.55 0.9004 L1.55 30 Z" transform="translate(192.25, 25.0996)"/>
   <path style="fill:#000000; fill-rule:nonzero;stroke:none;" d="M1.55 25.5 L0 25.5 L0 0 L1.55 0 L1.55 25.5 Z" transform="translate(196.15, 27.7998)"/>
   <path style="fill:#000000; fill-rule:nonzero;stroke:none;" d="M26.75 14.5508 L26.75 15.4502 L25.95 15.9004 L0 0.9004 L1.55 0 L26.75 14.5508 Z" transform="translate(192.25, 55.0996)"/>
   <path style="fill:#000000; fill-rule:nonzero;stroke:none;" d="M25.2 0 L26 0.4502 L25.9 1.4004 L0.8 15.9004 L0 15.4502 L0 14.5508 L25.2 0 Z" transform="translate(219, 55.0996)"/>
   <path style="fill:#000000; fill-rule:nonzero;stroke:none;" d="M22.1 0 L22.85 1.3506 L0.8 14.1006 L0 12.75 L22.1 0 Z" transform="translate(218.6, 52.5996)"/>
   <path style="fill:#000000; fill-rule:nonzero;stroke:none;" d="M0 0.4502 L0.8 0 L1.55 0.4004 L1.55 29.6006 L0.8 30 L0 29.5498 L0 0.4502 Z" transform="translate(244.2, 25.5498)"/>
   <path style="fill:#000000; fill-rule:nonzero;stroke:none;" d="M0 1.79981 L0 0 L25.9 14.9492 L26 15.8994 L25.2 16.3496 L0 1.79981 Z" transform="translate(219, 9.65039)"/>
   <path style="fill:#000000; fill-rule:nonzero;stroke:none;" d="M0 1.3496 L0.8 0 L22.85 12.75 L22.1 14.0996 L0 1.3496 Z" transform="translate(218.6, 14.4004)"/>
   <path style="fill:#000000; fill-rule:nonzero;stroke:none;" d="M1.55 16.3496 L0 15.4492 L26.75 0 L26.75 1.79981 L1.55 16.3496 Z" transform="translate(192.25, 9.65039)"/>
   <path style="fill:#000000; fill-rule:evenodd;stroke:none;" d="M5.7 0 L4.82 0 L4.82 5.9599 L1.01 0 L0 0 L0 7.29 L0.88 7.29 L0.88 1.3798 L4.65 7.29 L5.7 7.29 L5.7 0 Z" transform="translate(266.26, 70.46)"/>
   <path style="fill:#000000; fill-rule:evenodd;stroke:none;" d="M3.69 3.54981 L6.15 0 L5.04 0 L3.16 2.86035 L1.29 0 L0.16 0 L2.58 3.54981 L0 7.29004 L1.13 7.29004 L3.13 4.25 L5.12 7.29004 L6.27 7.29004 L3.69 3.54981 Z" transform="translate(265.47, 3.20996)"/>
   <path style="fill:#000000; fill-rule:nonzero;stroke:none;" d="M19.15 14.5996 L18.2 15.8496 L0 1.3496 L0.1 0.3994 L0.85 0 L19.15 14.5996 Z" transform="translate(244.9, 55.1504)"/>
   <path style="fill:#000000; fill-rule:nonzero;stroke:none;" d="M23.4 0 L22 6.4502 L0.35 9.25 L0 7.75 L23.4 0 Z" transform="translate(275.05, 64.2002)"/>
   <path style="fill:#000000; fill-rule:nonzero;stroke:none;" d="M12.8 0 L14.5 0 L0 30.1006 L1.4 23.6504 L12.8 0 Z" transform="translate(297.05, 40.5498)"/>
   <path style="fill:#000000; fill-rule:nonzero;stroke:none;" d="M0 1.3506 L1.05 0 L14.4 27.7002 L12.7 27.7002 L0 1.3506 Z" transform="translate(297.15, 12.8496)"/>
   <path style="fill:#000000; fill-rule:nonzero;stroke:none;" d="M0 1.5 L0.35 0 L23.95 5.3994 L22.9 6.75 L0 1.5 Z" transform="translate(274.25, 7.4502)"/>
   <path style="fill:#000000; fill-rule:nonzero;stroke:none;" d="M0.85 15.6006 L0.1 15.2002 L0 14.25 L17.9 0 L18.9 1.2002 L0.85 15.6006 Z" transform="translate(244.9, 10.3496)"/>
   <path style="fill:#000000; fill-rule:evenodd;stroke:none;" d="M3.74 4.43 L6.48 0 L5.37 0 L3.29 3.55 L1.15 0 L0 0 L2.81 4.43 L2.81 7.29 L3.74 7.29 L3.74 4.43 Z" transform="translate(215.88, 96.96)"/>
   <path style="fill:#000000; fill-rule:nonzero;stroke:none;" d="M1.6 24.4502 L0 24.4502 L0 0.4502 L0.8 0 L1.6 0.4502 L1.6 24.4502 Z" transform="translate(218.2, 70.5498)"/>
   <path style="fill:#000000; fill-rule:evenodd;stroke:none;" d="M0.93 4.15 L3.33 4.15 C4.16 4.15 4.53 4.55 4.53 5.45 L4.52 6.1 C4.52 6.55 4.6 6.99 4.73 7.29 L5.86 7.29 L5.86 7.06 C5.51 6.82 5.44 6.56 5.42 5.59 C5.41 4.39 5.22 4.03 4.43 3.69 C5.25 3.29 5.58 2.78 5.58 1.95 C5.58 0.69 4.79 0 3.36 0 L0 0 L0 7.29 L0.93 7.29 L0.93 4.15 Z M0.93 3.33 L0.93 0.82 L3.18 0.82 C3.7 0.82 4 0.9 4.23 1.1 C4.48 1.311 4.61 1.64 4.61 2.08 C4.61 2.94 4.17 3.33 3.18 3.33 L0.93 3.33 Z" transform="translate(258.68, 99.46)"/>
   <path style="fill:#000000; fill-rule:nonzero;stroke:none;" d="M5.8 3 L0 1.4502 L0.6 0 L6 1.4502 L5.8 3 Z" transform="translate(259.45, 94.7998)"/>
   <path style="fill:#000000; fill-rule:nonzero;stroke:none;" d="M5 2.7998 L0 1.4502 L0.6 0 L5.25 1.25 L5 2.7998 Z" transform="translate(260.65, 91.7998)"/>
   <path style="fill:#000000; fill-rule:nonzero;stroke:none;" d="M4.25 2.6006 L0 1.4502 L0.6 0 L4.45 1.0508 L4.25 2.6006 Z" transform="translate(261.85, 88.8496)"/>
   <path style="fill:#000000; fill-rule:nonzero;stroke:none;" d="M3.45 2.3496 L0 1.4492 L0.6 0 L3.65 0.7998 L3.45 2.3496 Z" transform="translate(263.1, 85.9004)"/>
   <path style="fill:#000000; fill-rule:nonzero;stroke:none;" d="M2.65 2.1992 L0 1.4492 L0.6 0 L2.9 0.6494 L2.65 2.1992 Z" transform="translate(264.3, 82.9004)"/>
   <path style="fill:#000000; fill-rule:nonzero;stroke:none;" d="M1.9 1.9502 L0 1.4502 L0.6 0 L2.1 0.3994 L1.9 1.9502 Z" transform="translate(265.5, 79.9502)"/>
   <path style="fill:#000000; fill-rule:evenodd;stroke:none;" d="M3.51 0 C1.42 0 0 1.5401 0 3.8204 C0 6.1006 1.42 7.6407 3.52 7.6407 C4.4 7.6407 5.19 7.3702 5.78 6.8702 C6.57 6.2002 7.04 5.0704 7.04 3.8799 C7.04 1.5303 5.65 0 3.51 0 Z M3.51 0.8204 C5.09 0.8204 6.11 2.0206 6.11 3.8604 C6.11 5.6202 5.06 6.8204 3.52 6.8204 C1.97 6.8204 0.93 5.6202 0.93 3.8204 C0.93 2.0206 1.97 0.8204 3.51 0.8204 Z" transform="translate(315.88, 85.0898)"/>
   <path style="fill:#000000; fill-rule:nonzero;stroke:none;" d="M17.75 16.6494 L16.65 17.75 L0 1.0996 L1.15 0 L17.75 16.6494 Z" transform="translate(298, 65.1504)"/>
   <path style="fill:#000000; fill-rule:nonzero;stroke:none;" d="M18.1 17 L17 18.1006 L0 1.1006 L1.1 0 L18.1 17 Z" transform="translate(294.9, 67.5498)"/>
   <path style="fill:none;stroke:#000000; stroke-width:1.25; stroke-linecap:butt; stroke-linejoin:miter; stroke-dasharray:none;" d="M22.75 0 L0 0 " transform="translate(145.85, 52.0996)"/>
   <path style="fill:none;stroke:#000000; stroke-width:1.25; stroke-linecap:butt; stroke-linejoin:miter; stroke-dasharray:none;" d="M0 0 L22.75 0 " transform="translate(157.1, 56.7998)"/>
   <path style="fill:#000000; fill-rule:nonzero;stroke:none;" d="M15.6 4.8008 L0 0 C0 0 1.95 2.25 1.95 4.8008 L15.6 4.8008 L15.6 4.8008 " transform="translate(166.6, 48.0996)"/>
   <path style="fill:#000000; fill-rule:nonzero;stroke:none;" d="M0 0 L13.65 0 C13.65 1 15.6 4.7998 15.6 4.7998 L0 0 L0 0 " transform="translate(143.5, 56)"/>
   <path style="fill:#000000; fill-rule:evenodd;stroke:none;" d="M9.576 0 L6.4961 0 L6.4961 0.35 C7.4336 0.42 7.6718 0.532 7.6718 0.938 C7.6718 1.204 7.4755 1.694 7.1259 2.268 L5.5722 4.858 L3.8916 1.61 C3.8779 1.568 3.8076 1.442 3.8076 1.442 C3.6123 1.092 3.5556 0.938 3.5556 0.784 C3.5556 0.476 3.7656 0.364 4.3398 0.364 L4.6904 0.35 L4.6904 0 L0 0 L0 0.35 C0.4755 0.378 0.8398 0.644 1.1201 1.12 L3.6816 5.768 L3.6816 7.826 C3.6816 8.848 3.5283 9.002 2.3798 9.114 L2.3798 9.464 L7.2382 9.464 L7.2382 9.114 C6.0898 9.002 5.9502 8.862 5.9502 7.826 L5.9502 5.25 L8.624 0.896 C8.834 0.574 9.1 0.42 9.576 0.35 L9.576 0 Z" transform="translate(91.46, 137.536)"/>
   <path style="fill:#000000; fill-rule:evenodd;stroke:none;" d="M7.056 0 L0 0 L0 1.232 L7.056 1.232 L7.056 0 Z M7.056 2.856 L0 2.856 L0 4.088 L7.056 4.088 L7.056 2.856 Z" transform="translate(105.212, 141.414)"/>
   <path style="fill:#000000; fill-rule:evenodd;stroke:none;" d="M6.832 4.9 L6.832 8.12 C6.832 8.806 6.594 9.002 5.572 9.114 L5.572 9.464 L10.332 9.464 L10.332 9.114 C9.324 8.988 9.1 8.806 9.1 8.12 L9.1 1.344 C9.1 0.644 9.38 0.42 10.332 0.35 L10.332 0 L5.572 0 L5.572 0.35 C6.552 0.42 6.832 0.644 6.832 1.344 L6.832 4.242 L3.458 4.242 L3.458 1.344 C3.458 0.644 3.738 0.42 4.718 0.35 L4.718 0 L0 0 L0 0.35 C0.938 0.434 1.19 0.644 1.19 1.344 L1.19 8.12 C1.19 8.806 0.98 8.988 0 9.114 L0 9.464 L4.718 9.464 L4.718 9.114 C3.696 9.002 3.458 8.806 3.458 8.12 L3.458 4.9 L6.832 4.9 Z" transform="translate(116.544, 137.536)"/>
   <path style="fill:#000000; fill-rule:evenodd;stroke:none;" d="M0.252 4.69 C1.876 3.752 2.576 2.828 2.576 1.624 C2.576 0.658 2.002 0 1.162 0 C0.462 0 0 0.462 0 1.162 C0 1.806 0.42 2.254 1.022 2.254 C1.092 2.254 1.176 2.254 1.26 2.24 C1.302 2.226 1.33 2.226 1.358 2.226 C1.512 2.226 1.624 2.352 1.624 2.534 C1.624 3.066 1.148 3.654 0.098 4.382 L0.252 4.69 Z" transform="translate(127.796, 144.83)"/>
   <path style="fill:#000000; fill-rule:evenodd;stroke:none;" d="M8.512 7.546 C7.686 8.414 7.238 8.75 6.552 9.016 C6.146 9.184 5.684 9.268 5.292 9.268 C4.368 9.268 3.486 8.778 3.08 8.05 C2.674 7.308 2.478 6.3 2.478 4.9 C2.478 2.002 3.374 0.462 5.054 0.462 C5.712 0.462 6.314 0.714 6.916 1.246 C7.518 1.792 7.84 2.254 8.33 3.318 L8.68 3.318 L8.68 0.042 L8.302 0.042 C8.106 0.532 7.952 0.686 7.686 0.686 C7.56 0.686 7.35 0.63 7.042 0.49 C6.216 0.154 5.544 0 4.872 0 C2.086 0 0 2.156 0 5.012 C0 7.896 2.058 9.94 4.956 9.94 C5.95 9.94 6.776 9.702 7.546 9.184 C7.994 8.876 8.302 8.596 8.932 7.896 L8.512 7.546 Z" transform="translate(134.936, 137.326)"/>
   <path style="fill:#000000; fill-rule:evenodd;stroke:none;" d="M0.252 4.69 C1.876 3.752 2.576 2.828 2.576 1.624 C2.576 0.658 2.002 0 1.162 0 C0.462 0 0 0.462 0 1.162 C0 1.806 0.42 2.254 1.022 2.254 C1.092 2.254 1.176 2.254 1.26 2.24 C1.302 2.226 1.33 2.226 1.358 2.226 C1.512 2.226 1.624 2.352 1.624 2.534 C1.624 3.066 1.148 3.654 0.098 4.382 L0.252 4.69 Z" transform="translate(144.796, 144.83)"/>
   <path style="fill:#000000; fill-rule:evenodd;stroke:none;" d="M8.512 7.546 C7.686 8.414 7.238 8.75 6.552 9.016 C6.146 9.184 5.684 9.268 5.292 9.268 C4.368 9.268 3.486 8.778 3.08 8.05 C2.674 7.308 2.478 6.3 2.478 4.9 C2.478 2.002 3.374 0.462 5.054 0.462 C5.712 0.462 6.314 0.714 6.916 1.246 C7.518 1.792 7.84 2.254 8.33 3.318 L8.68 3.318 L8.68 0.042 L8.302 0.042 C8.106 0.532 7.952 0.686 7.686 0.686 C7.56 0.686 7.35 0.63 7.042 0.49 C6.216 0.154 5.544 0 4.872 0 C2.086 0 0 2.156 0 5.012 C0 7.896 2.058 9.94 4.956 9.94 C5.95 9.94 6.776 9.702 7.546 9.184 C7.994 8.876 8.302 8.596 8.932 7.896 L8.512 7.546 Z" transform="translate(151.936, 137.326)"/>
   <path style="fill:#000000; fill-rule:evenodd;stroke:none;" d="M2.66 0 L0 0 L0 0.336 C0.49 0.378 0.714 0.63 0.714 1.148 L0.714 8.288 C0.714 8.806 0.476 9.086 0 9.128 L0 9.464 L3.346 9.464 L3.346 9.128 C2.884 9.114 2.66 8.848 2.66 8.288 L2.66 0 Z" transform="translate(161.474, 137.536)"/>
   <path style="fill:#000000; fill-rule:evenodd;stroke:none;" d="M9.4084 0 L5.9082 0 L5.9082 0.35 C6.0342 0.364 6.1465 0.364 6.1885 0.378 C6.7481 0.406 6.916 0.532 6.916 0.868 C6.916 1.162 6.7627 1.456 6.1045 2.352 C5.9922 2.492 5.67 2.94 5.3203 3.43 L3.9619 1.33 C3.7803 1.05 3.752 0.98 3.752 0.812 C3.752 0.518 3.92 0.406 4.4248 0.378 C4.4942 0.378 4.6621 0.364 4.8584 0.35 L4.8584 0 L0.0147 0 L0.0147 0.35 C0.5186 0.392 0.7002 0.532 1.1348 1.162 L3.9063 5.236 L1.4561 8.33 C1.0362 8.848 0.7002 9.03 0 9.114 L0 9.464 L3.5 9.464 L3.5 9.114 C2.6465 9.03 2.3662 8.89 2.3662 8.54 C2.3662 8.232 2.6465 7.784 3.6826 6.384 L4.2149 5.67 L5.628 7.938 C5.7959 8.204 5.9229 8.54 5.9229 8.694 C5.9229 8.932 5.6846 9.058 5.1944 9.086 C5.1387 9.086 4.9844 9.1 4.8028 9.114 L4.8028 9.464 L9.5624 9.464 L9.5624 9.114 C9.0864 9.1 8.8764 8.918 8.2041 7.91 L5.6563 3.948 L6.7764 2.394 C8.0088 0.714 8.3721 0.448 9.4084 0.35 L9.4084 0 Z" transform="translate(91.4736, 151.536)"/>
   <path style="fill:#000000; fill-rule:evenodd;stroke:none;" d="M7.056 0 L0 0 L0 1.232 L7.056 1.232 L7.056 0 Z M7.056 2.856 L0 2.856 L0 4.088 L7.056 4.088 L7.056 2.856 Z" transform="translate(105.212, 155.414)"/>
   <path style="fill:#000000; fill-rule:evenodd;stroke:none;" d="M2.996 0 L0.042 0 L0.042 0.35 C0.322 0.35 0.56 0.56 1.232 1.358 L1.232 7.994 C1.232 8.792 1.022 8.988 0 9.114 L0 9.464 L3.178 9.464 L3.178 9.114 C2.1 8.988 1.848 8.722 1.848 7.728 L1.848 2.1 L8.106 9.716 L8.498 9.716 L8.498 1.47 C8.498 0.672 8.68 0.49 9.59 0.35 L9.59 0 L6.58 0 L6.58 0.35 C7.616 0.448 7.882 0.742 7.882 1.736 L7.882 6.006 L2.996 0 Z" transform="translate(116.474, 151.536)"/>
   <path style="fill:#000000; fill-rule:evenodd;stroke:none;" d="M9.646 9.114 C9.394 9.114 9.212 9.03 9.072 8.848 L6.258 4.858 C7.084 4.592 7.434 4.41 7.826 4.06 C8.232 3.682 8.456 3.122 8.456 2.492 C8.456 0.882 7.07 0 4.508 0 L0 0 L0 0.35 C1.036 0.42 1.232 0.63 1.232 1.638 L1.232 7.826 C1.232 8.848 1.092 8.988 0 9.114 L0 9.464 L4.732 9.464 L4.732 9.114 C3.64 8.974 3.5 8.82 3.5 7.826 L3.5 5.082 L3.878 5.082 L6.776 9.464 L9.646 9.464 L9.646 9.114 Z M3.5 1.064 C3.5 0.98 3.556 0.77 3.598 0.686 C3.682 0.546 3.906 0.476 4.256 0.476 C5.544 0.476 6.062 1.078 6.062 2.548 C6.062 3.444 5.852 3.99 5.404 4.284 C5.04 4.522 4.564 4.62 3.5 4.634 L3.5 1.064 Z" transform="translate(126.614, 151.536)"/>
   <path style="fill:#000000; fill-rule:evenodd;stroke:none;" d="M1.19 4.018 C1.652 2.002 1.806 1.246 1.806 0.938 C1.806 0.406 1.414 0 0.896 0 C0.364 0 0 0.392 0 0.994 C0 1.288 0.168 2.184 0.462 3.346 C0.476 3.444 0.546 3.724 0.616 4.018 L1.19 4.018 Z" transform="translate(137.55, 151.326)"/>
   <path style="fill:#000000; fill-rule:evenodd;stroke:none;" d="M0.252 4.69 C1.876 3.752 2.576 2.828 2.576 1.624 C2.576 0.658 2.002 0 1.162 0 C0.462 0 0 0.462 0 1.162 C0 1.806 0.42 2.254 1.022 2.254 C1.092 2.254 1.176 2.254 1.26 2.24 C1.302 2.226 1.33 2.226 1.358 2.226 C1.512 2.226 1.624 2.352 1.624 2.534 C1.624 3.066 1.148 3.654 0.098 4.382 L0.252 4.69 Z" transform="translate(140.796, 158.83)"/>
   <path style="fill:#000000; fill-rule:evenodd;stroke:none;" d="M6.286 3.038 L6.286 0 L5.866 0 C5.768 0.364 5.656 0.476 5.418 0.476 C5.292 0.476 5.138 0.434 4.83 0.322 C4.172 0.098 3.724 0.014 3.192 0.014 C1.288 0.014 0.126 1.092 0.126 2.856 C0.126 4.088 0.854 4.97 2.52 5.768 L3.458 6.216 C4.69 6.804 5.026 7.168 5.026 7.896 C5.026 8.862 4.34 9.492 3.262 9.492 C2.45 9.492 1.75 9.142 1.218 8.456 C0.84 7.938 0.644 7.476 0.406 6.496 L0 6.496 L0 9.954 L0.406 9.954 C0.49 9.604 0.602 9.478 0.826 9.478 C0.938 9.478 1.092 9.52 1.4 9.618 C2.1 9.856 2.618 9.954 3.22 9.954 C5.292 9.954 6.692 8.764 6.692 7 C6.692 5.95 6.048 4.9 5.152 4.452 L3.094 3.43 C1.96 2.87 1.652 2.52 1.652 1.848 C1.652 0.98 2.24 0.448 3.192 0.448 C3.822 0.448 4.41 0.714 4.914 1.232 C5.39 1.722 5.614 2.128 5.894 3.038 L6.286 3.038 Z" transform="translate(147.74, 151.312)"/>
   <path style="fill:#000000; fill-rule:evenodd;stroke:none;" d="M0.252 4.69 C1.876 3.752 2.576 2.828 2.576 1.624 C2.576 0.658 2.002 0 1.162 0 C0.462 0 0 0.462 0 1.162 C0 1.806 0.42 2.254 1.022 2.254 C1.092 2.254 1.176 2.254 1.26 2.24 C1.302 2.226 1.33 2.226 1.358 2.226 C1.512 2.226 1.624 2.352 1.624 2.534 C1.624 3.066 1.148 3.654 0.098 4.382 L0.252 4.69 Z" transform="translate(155.796, 158.83)"/>
   <path style="fill:#000000; fill-rule:evenodd;stroke:none;" d="M8.512 7.546 C7.686 8.414 7.238 8.75 6.552 9.016 C6.146 9.184 5.684 9.268 5.292 9.268 C4.368 9.268 3.486 8.778 3.08 8.05 C2.674 7.308 2.478 6.3 2.478 4.9 C2.478 2.002 3.374 0.462 5.054 0.462 C5.712 0.462 6.314 0.714 6.916 1.246 C7.518 1.792 7.84 2.254 8.33 3.318 L8.68 3.318 L8.68 0.042 L8.302 0.042 C8.106 0.532 7.952 0.686 7.686 0.686 C7.56 0.686 7.35 0.63 7.042 0.49 C6.216 0.154 5.544 0 4.872 0 C2.086 0 0 2.156 0 5.012 C0 7.896 2.058 9.94 4.956 9.94 C5.95 9.94 6.776 9.702 7.546 9.184 C7.994 8.876 8.302 8.596 8.932 7.896 L8.512 7.546 Z" transform="translate(162.936, 151.326)"/>
   <path style="fill:#000000; fill-rule:evenodd;stroke:none;" d="M2.1602 0 L0 1.0928 L0 1.2607 C0.1436 1.2002 0.2764 1.1523 0.3242 1.1279 C0.5401 1.0439 0.7442 0.9961 0.8643 0.9961 C1.1162 0.9961 1.2237 1.1768 1.2237 1.5605 L1.2237 6.9961 C1.2237 7.3926 1.128 7.668 0.9356 7.7764 C0.7559 7.8848 0.5879 7.9199 0.084 7.9326 L0.084 8.1123 L3.3955 8.1123 L3.3955 7.9326 C2.4483 7.9199 2.2559 7.8008 2.2559 7.2246 L2.2559 0.0244 L2.1602 0 Z" transform="translate(65.582, 24.8877)"/>
   <path style="fill:#000000; fill-rule:evenodd;stroke:none;" d="M5.3398 6.4687 L5.1835 6.4082 C4.7392 7.0928 4.5839 7.2002 4.0439 7.2002 L1.1757 7.2002 L3.1914 5.0879 C4.2597 3.9727 4.7275 3.0605 4.7275 2.124 C4.7275 0.9248 3.7558 0 2.5078 0 C1.8476 0 1.2236 0.2646 0.7792 0.7441 C0.3955 1.1523 0.2158 1.5361 0.0117 2.3887 L0.2636 2.4482 C0.7431 1.2725 1.1757 0.8887 2.0039 0.8887 C3.0117 0.8887 3.6953 1.5723 3.6953 2.5801 C3.6953 3.5166 3.1435 4.6318 2.1357 5.7002 L0 7.9687 L0 8.1123 L4.6796 8.1123 L5.3398 6.4687 Z" transform="translate(62.6104, 43.8877)"/>
   <path style="fill:#000000; fill-rule:evenodd;stroke:none;" d="M1.3203 4.1523 C2.0283 4.1523 2.3047 4.1768 2.5928 4.2842 C3.336 4.5478 3.8047 5.2324 3.8047 6.0605 C3.8047 7.0684 3.1201 7.8486 2.2324 7.8486 C1.9082 7.8486 1.668 7.7646 1.2246 7.4766 C0.8643 7.2607 0.6602 7.1768 0.4561 7.1768 C0.1807 7.1768 0 7.3447 0 7.5967 C0 8.0166 0.5166 8.2803 1.3565 8.2803 C2.2803 8.2803 3.2285 7.9687 3.792 7.4766 C4.3565 6.9844 4.668 6.2881 4.668 5.4844 C4.668 4.8721 4.4766 4.3086 4.128 3.9365 C3.8887 3.6719 3.6602 3.5283 3.1328 3.3008 C3.96 2.7363 4.2608 2.292 4.2608 1.6445 C4.2608 0.6719 3.4922 0 2.3887 0 C1.7881 0 1.2608 0.2041 0.8282 0.5879 C0.4688 0.9121 0.2881 1.2246 0.0244 1.9443 L0.2041 1.9922 C0.6963 1.1162 1.2364 0.7207 1.9922 0.7207 C2.7725 0.7207 3.3125 1.248 3.3125 2.0039 C3.3125 2.4365 3.1328 2.8682 2.8321 3.168 C2.4727 3.5283 2.1367 3.708 1.3203 3.9961 L1.3203 4.1523 Z" transform="translate(84.7656, 77.8877)"/>
   <path style="fill:#000000; fill-rule:evenodd;stroke:none;" d="M5.5205 5.34 L4.2968 5.34 L4.2968 0 L3.7685 0 L0 5.34 L0 6.108 L3.372 6.108 L3.372 8.112 L4.2968 8.112 L4.2968 6.108 L5.5205 6.108 L5.5205 5.34 Z M3.3603 5.34 L0.4804 5.34 L3.3603 1.224 L3.3603 5.34 Z" transform="translate(74.3936, 110.888)"/>
   <path style="fill:#000000; fill-rule:evenodd;stroke:none;" d="M1.788 1.2598 L4.14 1.2598 C4.332 1.2598 4.38 1.2364 4.416 1.1524 L4.872 0.084 L4.764 0 C4.584 0.252 4.464 0.3116 4.212 0.3116 L1.704 0.3116 L0.396 3.1563 C0.384 3.1797 0.384 3.1914 0.384 3.2159 C0.384 3.2754 0.432 3.3116 0.528 3.3116 C0.912 3.3116 1.392 3.3955 1.884 3.5518 C3.264 3.9961 3.9 4.7403 3.9 5.9278 C3.9 7.0801 3.168 7.9795 2.232 7.9795 C1.992 7.9795 1.788 7.8955 1.428 7.6319 C1.044 7.3555 0.768 7.2364 0.516 7.2364 C0.168 7.2364 0 7.3799 0 7.6797 C0 8.1358 0.564 8.4239 1.464 8.4239 C2.472 8.4239 3.336 8.0997 3.936 7.4883 C4.488 6.9483 4.74 6.2637 4.74 5.3516 C4.74 4.4883 4.512 3.9356 3.912 3.336 C3.384 2.8077 2.7 2.5323 1.284 2.2803 L1.788 1.2598 Z" transform="translate(116.634, 52.7441)"/>
   <path style="fill:#000000; fill-rule:evenodd;stroke:none;" d="M4.944 0 C3.576 0.1201 2.88 0.3476 2.004 0.96 C0.708 1.8838 0 3.2519 0 4.8603 C0 5.9043 0.324 6.96 0.84 7.5596 C1.296 8.0879 1.944 8.376 2.688 8.376 C4.176 8.376 5.208 7.2363 5.208 5.5801 C5.208 4.0439 4.332 3.0723 2.952 3.0723 C2.424 3.0723 2.172 3.1562 1.416 3.6123 C1.74 1.7998 3.084 0.5039 4.968 0.1924 L4.944 0 Z M2.496 3.624 C3.528 3.624 4.128 4.4883 4.128 5.9883 C4.128 7.3076 3.66 8.04 2.82 8.04 C1.764 8.04 1.116 6.9121 1.116 5.0518 C1.116 4.4404 1.212 4.1045 1.452 3.9238 C1.704 3.7324 2.076 3.624 2.496 3.624 Z" transform="translate(139.658, 82.792)"/>
  </g>
 </g>
</svg>
