<?xml version="1.0" encoding="utf-8"?>
<!-- Generator: Adobe Illustrator 16.0.4, SVG Export Plug-In . SVG Version: 6.00 Build 0)  -->
<!DOCTYPE svg PUBLIC "-//W3C//DTD SVG 1.1//EN" "http://www.w3.org/Graphics/SVG/1.1/DTD/svg11.dtd">
<svg version="1.1" id="Layer_1" xmlns="http://www.w3.org/2000/svg" xmlns:xlink="http://www.w3.org/1999/xlink" x="0px" y="0px"
	 width="1061.74px" height="359.53px" viewBox="0 0 1061.74 359.53" enable-background="new 0 0 1061.74 359.53"
	 xml:space="preserve">
<polygon fill="#F36B30" points="356.766,166.539 356.766,0 -0.314,0 -0.314,357.078 166.226,357.078 166.226,166.539 "/>
<g>
	<path fill="#010101" d="M183.319,243.073l-9.347-12.843v12.843h-7.675V217.73h7.903l8.814,12.006V217.73h7.675v25.343H183.319z"/>
	<path fill="#010101" d="M205.247,243.073v-1.748c-1.026,1.292-3.268,2.204-5.547,2.204c-2.736,0-6.307-1.862-6.307-6.041
		c0-4.562,3.571-5.854,6.307-5.854c2.394,0,4.559,0.763,5.547,2.017v-1.899c0-1.292-1.178-2.277-3.419-2.277
		c-1.709,0-3.647,0.685-5.091,1.783l-2.317-4.217c2.47-1.978,5.889-2.773,8.663-2.773c4.559,0,9.005,1.596,9.005,7.713v11.097
		L205.247,243.073L205.247,243.073z M205.247,238.096v-1.025c-0.456-0.646-1.634-0.986-2.697-0.986c-1.14,0-2.394,0.38-2.394,1.521
		c0,1.141,1.254,1.479,2.394,1.479C203.612,239.084,204.791,238.742,205.247,238.096z"/>
	<path fill="#010101" d="M227.894,243.073v-1.938c-1.558,1.747-3.305,2.396-5.167,2.396c-4.445,0-8.093-3.344-8.093-9.649
		c0-6.079,3.571-9.611,8.093-9.611c1.862,0,3.724,0.646,5.167,2.396v-8.929h6.839v25.342L227.894,243.073L227.894,243.073z
		 M227.894,236.234v-4.711c-0.646-0.799-1.938-1.217-2.85-1.217c-1.861,0-3.419,1.291-3.419,3.569c0,2.279,1.558,3.607,3.419,3.607
		C225.957,237.488,227.248,237.032,227.894,236.234z"/>
	<path fill="#010101" d="M237.282,233.879c0-5.317,4.065-9.612,9.992-9.612c5.396,0,9.537,3.877,9.537,10.336v1.403h-12.463
		c0.381,1.181,1.71,2.318,3.952,2.318c1.025,0,3.306-0.494,4.217-1.292l2.812,4.218c-1.823,1.56-5.091,2.279-7.826,2.279
		C241.765,243.529,237.282,239.92,237.282,233.879z M247.273,229.473c-2.09,0-2.773,1.365-3.001,2.201h6.041
		C250.124,230.877,249.478,229.473,247.273,229.473z"/>
	<path fill="#010101" d="M259.168,243.073V217.73h6.839v25.343H259.168z"/>
	<path fill="#010101" d="M269.809,243.073V217.73h6.839v25.343H269.809z"/>
	<path fill="#010101" d="M291.05,243.073v-1.748c-1.025,1.292-3.268,2.204-5.547,2.204c-2.735,0-6.308-1.862-6.308-6.041
		c0-4.562,3.572-5.854,6.308-5.854c2.394,0,4.56,0.763,5.547,2.017v-1.899c0-1.292-1.178-2.277-3.419-2.277
		c-1.71,0-3.647,0.685-5.092,1.783l-2.317-4.217c2.47-1.978,5.889-2.773,8.663-2.773c4.559,0,9.004,1.596,9.004,7.713v11.097
		L291.05,243.073L291.05,243.073z M291.05,238.096v-1.025c-0.456-0.646-1.634-0.986-2.697-0.986c-1.14,0-2.394,0.38-2.394,1.521
		c0,1.141,1.254,1.479,2.394,1.479C289.416,239.084,290.594,238.742,291.05,238.096z"/>
	<path fill="#010101" d="M308.227,233.879c0-5.13,3.8-9.612,10.298-9.612c6.534,0,10.334,4.482,10.334,9.612
		c0,5.129-3.8,9.65-10.334,9.65C312.026,243.529,308.227,239.008,308.227,233.879z M321.83,233.879c0-2.014-1.179-3.571-3.306-3.571
		c-2.091,0-3.27,1.561-3.27,3.571c0,2.054,1.179,3.609,3.27,3.609C320.651,237.488,321.83,235.932,321.83,233.879z"/>
	<path fill="#010101" d="M338.246,241.137v8.928h-6.839v-25.342h6.839v1.938c1.48-1.748,3.269-2.396,5.168-2.396
		c4.56,0,8.056,3.344,8.056,9.611c0,6.309-3.496,9.649-8.056,9.649C341.512,243.529,339.766,242.883,338.246,241.137z
		 M344.477,233.879c0-2.278-1.597-3.571-3.42-3.571c-0.873,0-2.166,0.457-2.812,1.254v4.674c0.606,0.762,1.938,1.254,2.812,1.254
		C342.88,237.488,344.477,236.195,344.477,233.879z"/>
	<path fill="#010101" d="M352.762,233.879c0-5.317,4.063-9.612,9.992-9.612c5.396,0,9.536,3.877,9.536,10.336v1.403h-12.463
		c0.381,1.181,1.71,2.318,3.95,2.318c1.026,0,3.308-0.494,4.219-1.292l2.812,4.218c-1.823,1.56-5.093,2.279-7.827,2.279
		C357.246,243.529,352.762,239.92,352.762,233.879z M362.754,229.473c-2.091,0-2.772,1.365-3.002,2.201h6.041
		C365.604,230.877,364.958,229.473,362.754,229.473z"/>
	<path fill="#010101" d="M387.075,243.073v-10.146c0-1.896-1.025-2.619-2.66-2.619c-1.559,0-2.354,0.799-2.926,1.441v11.321h-6.84
		v-18.353h6.84v2.091c1.063-1.218,3.078-2.547,6.309-2.547c4.256,0,6.117,2.584,6.117,5.774v13.031h-6.84V243.073z"/>
	<path fill="#010101" d="M396.461,233.879c0-5.317,4.062-9.612,9.99-9.612c5.396,0,9.537,3.877,9.537,10.336v1.403h-12.463
		c0.381,1.181,1.711,2.318,3.95,2.318c1.027,0,3.308-0.494,4.22-1.292l2.812,4.218c-1.824,1.56-5.092,2.279-7.828,2.279
		C400.944,243.529,396.461,239.92,396.461,233.879z M406.454,229.473c-2.09,0-2.771,1.365-3.002,2.201h6.041
		C409.303,230.877,408.657,229.473,406.454,229.473z"/>
	<path fill="#010101" d="M430.356,243.073v-1.938c-1.56,1.747-3.308,2.396-5.169,2.396c-4.444,0-8.094-3.344-8.094-9.649
		c0-6.079,3.572-9.611,8.094-9.611c1.861,0,3.724,0.646,5.169,2.396v-8.929h6.838v25.342L430.356,243.073L430.356,243.073z
		 M430.356,236.234v-4.711c-0.646-0.799-1.938-1.217-2.851-1.217c-1.863,0-3.42,1.291-3.42,3.569c0,2.279,1.557,3.607,3.42,3.607
		C428.417,237.488,429.709,237.032,430.356,236.234z"/>
	<path fill="#010101" d="M459.387,243.073v-1.748c-1.024,1.292-3.27,2.204-5.547,2.204c-2.736,0-6.311-1.862-6.311-6.041
		c0-4.562,3.571-5.854,6.311-5.854c2.394,0,4.56,0.763,5.547,2.017v-1.899c0-1.292-1.178-2.277-3.42-2.277
		c-1.709,0-3.646,0.685-5.092,1.783l-2.316-4.217c2.47-1.978,5.89-2.773,8.662-2.773c4.56,0,9.004,1.596,9.004,7.713v11.097
		L459.387,243.073L459.387,243.073z M459.387,238.096v-1.025c-0.457-0.646-1.635-0.986-2.696-0.986c-1.142,0-2.396,0.38-2.396,1.521
		c0,1.141,1.254,1.479,2.396,1.479C457.752,239.084,458.93,238.742,459.387,238.096z"/>
	<path fill="#010101" d="M482.454,243.073v-10.146c0-1.896-1.025-2.619-2.658-2.619c-1.561,0-2.354,0.799-2.928,1.441v11.321h-6.84
		v-18.353h6.84v2.091c1.063-1.218,3.078-2.547,6.309-2.547c4.256,0,6.117,2.584,6.117,5.774v13.031h-6.84V243.073z"/>
</g>
<g>
	<path fill="#010101" d="M165.917,257.555c0-2.129,1.709-3.839,3.837-3.839c2.127,0,3.837,1.71,3.837,3.839s-1.71,3.838-3.837,3.838
		S165.917,259.684,165.917,257.555z M166.335,281.073V262.72h6.839v18.353H166.335z"/>
	<path fill="#010101" d="M189.399,281.073v-10.146c0-1.896-1.026-2.619-2.66-2.619c-1.558,0-2.355,0.799-2.925,1.441v11.321h-6.839
		v-18.353h6.839v2.091c1.064-1.218,3.078-2.547,6.307-2.547c4.255,0,6.117,2.584,6.117,5.774v13.031h-6.839V281.073z"/>
	<path fill="#010101" d="M199.282,274.729v-5.699h9.119v5.699H199.282z"/>
	<path fill="#010101" d="M223.903,281.073v-10.222c0-1.898-1.026-2.545-2.66-2.545c-1.558,0-2.355,0.799-2.925,1.441v11.321h-6.839
		v-25.34h6.839v9.08c1.063-1.219,3.077-2.547,6.307-2.547c4.255,0,6.117,2.508,6.117,5.697v13.106h-6.839V281.073z"/>
	<path fill="#010101" d="M233.291,271.879c0-5.13,3.799-9.612,10.297-9.612c6.534,0,10.334,4.482,10.334,9.612
		c0,5.129-3.8,9.65-10.334,9.65C237.09,281.529,233.291,277.008,233.291,271.879z M246.893,271.879c0-2.014-1.178-3.571-3.305-3.571
		c-2.09,0-3.268,1.561-3.268,3.571c0,2.054,1.178,3.609,3.268,3.609C245.714,275.488,246.893,273.932,246.893,271.879z"/>
	<path fill="#010101" d="M268.856,281.073v-2.052c-1.064,1.178-3.078,2.508-6.308,2.508c-4.255,0-6.079-2.547-6.079-5.699v-13.106
		h6.839v10.182c0,1.863,0.988,2.586,2.66,2.586c1.52,0,2.317-0.799,2.888-1.444v-11.32h6.839v18.353h-6.839V281.073L268.856,281.073
		z"/>
	<path fill="#010101" d="M277.94,278.718l2.735-4.598c1.444,1.14,4.56,2.317,6.611,2.317c1.406,0,1.824-0.345,1.824-0.799
		c0-1.746-10.411,0.492-10.411-7.104c0-3.308,2.888-6.271,8.207-6.271c3.077,0,5.813,0.948,7.94,2.354l-2.507,4.445
		c-1.141-0.951-3.268-1.9-5.396-1.9c-0.988,0-1.71,0.38-1.71,0.798c0,1.521,10.41-0.38,10.41,7.257c0,3.647-3.267,6.31-8.7,6.31
		C283.563,281.529,279.916,280.352,277.94,278.718z"/>
	<path fill="#010101" d="M296.864,271.879c0-5.317,4.065-9.612,9.992-9.612c5.396,0,9.536,3.877,9.536,10.336v1.403H303.93
		c0.381,1.181,1.711,2.318,3.951,2.318c1.025,0,3.307-0.494,4.219-1.292l2.812,4.218c-1.823,1.56-5.093,2.279-7.826,2.279
		C301.347,281.529,296.864,277.92,296.864,271.879z M306.856,267.473c-2.09,0-2.772,1.365-3.002,2.201h6.041
		C309.707,268.877,309.059,267.473,306.856,267.473z"/>
	<path fill="#010101" d="M327.948,275.754v-7.104h-3.04v-5.928h3.04v-5.018h6.839v5.018h3.726v5.928h-3.726v5.129
		c0,0.949,0.605,1.709,1.521,1.709c0.607,0,1.218-0.189,1.369-0.342l1.215,5.168c-0.722,0.646-2.315,1.215-4.636,1.215
		C330.188,281.529,327.948,279.592,327.948,275.754z"/>
	<path fill="#010101" d="M340.639,257.555c0-2.129,1.709-3.839,3.838-3.839c2.128,0,3.837,1.71,3.837,3.839s-1.71,3.838-3.837,3.838
		C342.348,261.393,340.639,259.684,340.639,257.555z M341.057,281.073V262.72h6.838v18.353H341.057z"/>
	<path fill="#010101" d="M364.122,281.073v-10.146c0-1.896-1.025-2.619-2.659-2.619c-1.56,0-2.354,0.799-2.927,1.441v11.321h-6.839
		v-18.353h6.839v2.091c1.063-1.218,3.078-2.547,6.309-2.547c4.256,0,6.117,2.584,6.117,5.774v13.031h-6.84V281.073z"/>
	<path fill="#010101" d="M386.083,281.073l-3.153-5.927l-1.33,1.785v4.142h-6.838V255.73h6.838v13.523l4.22-6.533h8.243
		l-6.308,8.357l6.727,9.991L386.083,281.073L386.083,281.073z"/>
	<path fill="#010101" d="M394.332,271.879c0-5.317,4.062-9.612,9.991-9.612c5.396,0,9.537,3.877,9.537,10.336v1.403h-12.464
		c0.382,1.181,1.712,2.318,3.951,2.318c1.027,0,3.308-0.494,4.22-1.292l2.812,4.218c-1.824,1.56-5.094,2.279-7.828,2.279
		C398.815,281.529,394.332,277.92,394.332,271.879z M404.325,267.473c-2.09,0-2.771,1.365-3.002,2.201h6.041
		C407.174,268.877,406.528,267.473,404.325,267.473z"/>
	<path fill="#010101" d="M416.219,281.073V262.72h6.84v2.014c1.142-1.328,3.533-2.545,5.623-2.545v6.535
		c-0.342-0.113-0.912-0.189-1.561-0.189c-1.441,0-3.305,0.38-4.062,1.292v11.246H416.219z"/>
	<path fill="#010101" d="M430.624,257.555c0-2.129,1.711-3.839,3.838-3.839c2.129,0,3.838,1.71,3.838,3.839
		s-1.709,3.838-3.838,3.838C432.334,261.393,430.624,259.684,430.624,257.555z M431.04,281.073V262.72h6.84v18.353H431.04z"/>
	<path fill="#010101" d="M454.104,281.073v-10.146c0-1.896-1.024-2.619-2.659-2.619c-1.558,0-2.354,0.799-2.927,1.441v11.321h-6.838
		v-18.353h6.838v2.091c1.064-1.218,3.078-2.547,6.31-2.547c4.256,0,6.117,2.584,6.117,5.774v13.031h-6.841V281.073L454.104,281.073z
		"/>
	<path fill="#010101" d="M464.1,285.784l2.888-4.863c1.405,1.406,3.496,2.016,5.473,2.016c1.596,0,4.256-0.606,4.256-3.838v-0.988
		c-1.559,1.787-3.27,2.472-5.166,2.472c-4.408,0-8.059-2.89-8.059-9.156c0-6.115,3.535-9.154,8.059-9.154
		c1.896,0,3.685,0.646,5.166,2.395v-1.938h6.84V279.1c0,7.939-6.534,9.424-11.096,9.424
		C469.305,288.521,466.493,287.686,464.1,285.784z M476.713,273.359v-3.875c-0.646-0.76-1.938-1.178-2.812-1.178
		c-1.861,0-3.42,0.873-3.42,3.113c0,2.241,1.559,3.115,3.42,3.115C474.776,274.538,476.067,274.12,476.713,273.359z"/>
	<path fill="#010101" d="M494.499,285.784l2.889-4.863c1.404,1.406,3.494,2.016,5.472,2.016c1.596,0,4.256-0.606,4.256-3.838v-0.988
		c-1.56,1.787-3.269,2.472-5.168,2.472c-4.406,0-8.056-2.89-8.056-9.156c0-6.115,3.533-9.154,8.056-9.154
		c1.899,0,3.688,0.646,5.168,2.395v-1.938h6.838V279.1c0,7.939-6.533,9.424-11.094,9.424
		C499.704,288.521,496.893,287.686,494.499,285.784z M507.114,273.359v-3.875c-0.646-0.76-1.938-1.178-2.812-1.178
		c-1.86,0-3.42,0.873-3.42,3.113c0,2.241,1.56,3.115,3.42,3.115C505.176,274.538,506.467,274.12,507.114,273.359z"/>
	<path fill="#010101" d="M517.754,281.073V262.72h6.838v2.014c1.142-1.328,3.535-2.545,5.625-2.545v6.535
		c-0.344-0.113-0.912-0.189-1.561-0.189c-1.441,0-3.305,0.38-4.064,1.292v11.246H517.754z"/>
	<path fill="#010101" d="M531.321,271.879c0-5.13,3.799-9.612,10.297-9.612c6.535,0,10.334,4.482,10.334,9.612
		c0,5.129-3.799,9.65-10.334,9.65C535.12,281.529,531.321,277.008,531.321,271.879z M544.923,271.879
		c0-2.014-1.18-3.571-3.307-3.571c-2.09,0-3.269,1.561-3.269,3.571c0,2.054,1.179,3.609,3.269,3.609
		C543.745,275.488,544.923,273.932,544.923,271.879z"/>
	<path fill="#010101" d="M566.888,281.073v-2.052c-1.063,1.178-3.078,2.508-6.311,2.508c-4.254,0-6.076-2.547-6.076-5.699v-13.106
		h6.838v10.182c0,1.863,0.986,2.586,2.658,2.586c1.521,0,2.318-0.799,2.891-1.444v-11.32h6.839v18.353h-6.839V281.073
		L566.888,281.073z"/>
	<path fill="#010101" d="M584.366,279.135v8.93h-6.838v-25.342h6.838v1.938c1.481-1.748,3.27-2.396,5.168-2.396
		c4.561,0,8.057,3.344,8.057,9.611c0,6.309-3.496,9.649-8.057,9.649C587.634,281.529,585.888,280.883,584.366,279.135z
		 M590.599,271.879c0-2.278-1.596-3.571-3.42-3.571c-0.873,0-2.166,0.457-2.812,1.254v4.674c0.606,0.762,1.938,1.256,2.812,1.256
		C589.003,275.488,590.599,274.195,590.599,271.879z"/>
</g>
<g>
	<path fill="#010101" d="M166.64,313.754v-7.104h-3.04v-5.928h3.04v-5.018h6.839v5.018h3.724v5.928h-3.724v5.129
		c0,0.948,0.608,1.709,1.52,1.709c0.608,0,1.216-0.189,1.368-0.342l1.216,5.168c-0.722,0.646-2.318,1.215-4.635,1.215
		C168.881,319.529,166.64,317.592,166.64,313.754z"/>
	<path fill="#010101" d="M178.496,309.879c0-5.13,3.799-9.612,10.296-9.612c6.535,0,10.334,4.482,10.334,9.612
		c0,5.129-3.799,9.65-10.334,9.65C182.294,319.529,178.496,315.008,178.496,309.879z M192.098,309.879
		c0-2.014-1.178-3.571-3.306-3.571c-2.09,0-3.268,1.561-3.268,3.571c0,2.054,1.178,3.609,3.268,3.609
		C190.919,313.488,192.098,311.932,192.098,309.879z"/>
	<path fill="#010101" d="M210.871,313.754v-7.104h-3.04v-5.928h3.04v-5.018h6.839v5.018h3.724v5.928h-3.724v5.129
		c0,0.948,0.608,1.709,1.52,1.709c0.608,0,1.216-0.189,1.368-0.342l1.216,5.168c-0.722,0.646-2.318,1.215-4.635,1.215
		C213.112,319.529,210.871,317.592,210.871,313.754z"/>
	<path fill="#010101" d="M236.442,319.073V308.85c0-1.897-1.026-2.545-2.66-2.545c-1.558,0-2.355,0.8-2.925,1.442v11.322h-6.839
		v-25.34h6.839v9.08c1.063-1.219,3.077-2.547,6.307-2.547c4.255,0,6.117,2.508,6.117,5.697v13.107h-6.839V319.073z"/>
	<path fill="#010101" d="M245.83,309.879c0-5.317,4.065-9.612,9.993-9.612c5.395,0,9.536,3.877,9.536,10.336v1.403h-12.462
		c0.38,1.181,1.71,2.318,3.951,2.318c1.026,0,3.306-0.494,4.218-1.292l2.812,4.218c-1.824,1.56-5.092,2.279-7.827,2.279
		C250.312,319.529,245.83,315.92,245.83,309.879z M255.823,305.473c-2.09,0-2.773,1.365-3.002,2.201h6.041
		C258.671,306.877,258.025,305.473,255.823,305.473z"/>
	<path fill="#010101" d="M282.346,317.135v8.931h-6.839v-25.343h6.839v1.938c1.482-1.748,3.268-2.396,5.168-2.396
		c4.559,0,8.055,3.344,8.055,9.611c0,6.309-3.496,9.649-8.055,9.649C285.614,319.529,283.867,318.883,282.346,317.135z
		 M288.578,309.879c0-2.278-1.596-3.571-3.419-3.571c-0.874,0-2.166,0.457-2.812,1.254v4.675c0.608,0.761,1.938,1.255,2.812,1.255
		C286.981,313.488,288.578,312.195,288.578,309.879z"/>
	<path fill="#010101" d="M310.502,319.073v-2.052c-1.063,1.178-3.078,2.508-6.309,2.508c-4.255,0-6.079-2.547-6.079-5.699v-13.106
		h6.838v10.183c0,1.862,0.987,2.585,2.659,2.585c1.521,0,2.317-0.798,2.89-1.444v-11.32h6.839v18.353h-6.839L310.502,319.073
		L310.502,319.073z"/>
	<path fill="#010101" d="M321.143,319.073V293.73h6.841v8.93c1.442-1.748,3.306-2.395,5.168-2.395c4.521,0,8.093,3.531,8.093,9.61
		c0,6.309-3.646,9.649-8.093,9.649c-1.862,0-3.608-0.646-5.168-2.396v1.938L321.143,319.073L321.143,319.073z M330.832,313.488
		c1.86,0,3.42-1.293,3.42-3.609c0-2.278-1.56-3.571-3.42-3.571c-0.911,0-2.203,0.457-2.851,1.254v4.714
		C328.628,313.07,329.92,313.488,330.832,313.488z"/>
	<path fill="#010101" d="M343.792,319.073V293.73h6.839v25.343H343.792z"/>
	<path fill="#010101" d="M354.014,295.555c0-2.129,1.709-3.839,3.838-3.839c2.128,0,3.837,1.71,3.837,3.839s-1.71,3.838-3.837,3.838
		C355.723,299.393,354.014,297.684,354.014,295.555z M354.432,319.073V300.72h6.838v18.353H354.432z"/>
	<path fill="#010101" d="M363.817,309.879c0-5.812,4.483-9.612,10.298-9.612c4.181,0,6.764,1.899,7.788,3.459l-4.406,4.143
		c-0.568-0.874-1.635-1.561-3.077-1.561c-1.938,0-3.608,1.218-3.608,3.571c0,2.355,1.673,3.609,3.608,3.609
		c1.442,0,2.509-0.761,3.077-1.597l4.406,4.179c-1.024,1.521-3.607,3.459-7.788,3.459
		C368.301,319.529,363.817,315.729,363.817,309.879z"/>
	<path fill="#010101" d="M390.379,316.718l2.734-4.598c1.442,1.14,4.561,2.316,6.61,2.316c1.406,0,1.824-0.344,1.824-0.799
		c0-1.746-10.412,0.493-10.412-7.104c0-3.308,2.89-6.271,8.207-6.271c3.078,0,5.812,0.948,7.939,2.354l-2.508,4.445
		c-1.142-0.95-3.269-1.9-5.396-1.9c-0.988,0-1.711,0.38-1.711,0.798c0,1.521,10.41-0.38,10.41,7.257
		c0,3.647-3.269,6.311-8.699,6.311C396.002,319.529,392.356,318.352,390.379,316.718z"/>
	<path fill="#010101" d="M409.303,309.879c0-5.13,3.799-9.612,10.297-9.612c6.535,0,10.334,4.482,10.334,9.612
		c0,5.129-3.799,9.65-10.334,9.65C413.102,319.529,409.303,315.008,409.303,309.879z M422.905,309.879
		c0-2.014-1.179-3.571-3.306-3.571c-2.09,0-3.268,1.561-3.268,3.571c0,2.054,1.178,3.609,3.268,3.609
		C421.727,313.488,422.905,311.932,422.905,309.879z"/>
	<path fill="#010101" d="M439.018,309.879c0-5.13,3.802-9.612,10.298-9.612c6.534,0,10.336,4.482,10.336,9.612
		c0,5.129-3.802,9.65-10.336,9.65C442.819,319.529,439.018,315.008,439.018,309.879z M452.622,309.879
		c0-2.014-1.178-3.571-3.307-3.571c-2.091,0-3.269,1.561-3.269,3.571c0,2.054,1.178,3.609,3.269,3.609
		C451.444,313.488,452.622,311.932,452.622,309.879z"/>
	<path fill="#010101" d="M474.584,319.073v-2.052c-1.064,1.178-3.078,2.508-6.309,2.508c-4.257,0-6.08-2.547-6.08-5.699v-13.106
		h6.84v10.183c0,1.862,0.988,2.585,2.66,2.585c1.521,0,2.315-0.798,2.889-1.444v-11.32h6.84v18.353h-6.84V319.073L474.584,319.073z"
		/>
	<path fill="#010101" d="M486.631,313.754v-7.104h-3.039v-5.928h3.039v-5.018h6.84v5.018h3.724v5.928h-3.724v5.129
		c0,0.948,0.605,1.709,1.521,1.709c0.606,0,1.217-0.189,1.367-0.342l1.217,5.168c-0.724,0.646-2.316,1.215-4.637,1.215
		C488.874,319.529,486.631,317.592,486.631,313.754z"/>
	<path fill="#010101" d="M498.184,316.718l2.734-4.598c1.443,1.14,4.561,2.316,6.609,2.316c1.405,0,1.823-0.344,1.823-0.799
		c0-1.746-10.409,0.493-10.409-7.104c0-3.308,2.887-6.271,8.207-6.271c3.075,0,5.812,0.948,7.938,2.354l-2.508,4.445
		c-1.141-0.95-3.269-1.9-5.396-1.9c-0.987,0-1.709,0.38-1.709,0.798c0,1.521,10.41-0.38,10.41,7.257c0,3.647-3.27,6.311-8.701,6.311
		C503.807,319.529,500.159,318.352,498.184,316.718z"/>
	<path fill="#010101" d="M517.944,295.555c0-2.129,1.709-3.839,3.838-3.839c2.127,0,3.836,1.71,3.836,3.839
		s-1.709,3.838-3.836,3.838C519.653,299.393,517.944,297.684,517.944,295.555z M518.362,319.073V300.72h6.838v18.353H518.362z"/>
	<path fill="#010101" d="M541.009,319.073v-1.938c-1.561,1.747-3.309,2.396-5.168,2.396c-4.446,0-8.096-3.345-8.096-9.65
		c0-6.079,3.572-9.611,8.096-9.611c1.859,0,3.724,0.646,5.168,2.396v-8.929h6.838v25.342L541.009,319.073L541.009,319.073z
		 M541.009,312.234v-4.711c-0.646-0.8-1.938-1.218-2.852-1.218c-1.861,0-3.42,1.291-3.42,3.57s1.559,3.608,3.42,3.608
		C539.069,313.488,540.362,313.032,541.009,312.234z"/>
	<path fill="#010101" d="M550.396,309.879c0-5.317,4.063-9.612,9.991-9.612c5.396,0,9.537,3.877,9.537,10.336v1.403h-12.463
		c0.381,1.181,1.711,2.318,3.949,2.318c1.026,0,3.309-0.494,4.221-1.292l2.812,4.218c-1.824,1.56-5.093,2.279-7.826,2.279
		C554.878,319.529,550.396,315.92,550.396,309.879z M560.388,305.473c-2.09,0-2.772,1.365-3.002,2.201h6.041
		C563.237,306.877,562.591,305.473,560.388,305.473z"/>
	<path fill="#010101" d="M572.282,319.073V300.72h6.84v2.014c1.143-1.328,3.533-2.545,5.623-2.545v6.534
		c-0.342-0.112-0.91-0.188-1.56-0.188c-1.442,0-3.305,0.38-4.063,1.292v11.246H572.282z"/>
	<path fill="#010101" d="M585.546,316.718l2.732-4.598c1.444,1.14,4.562,2.316,6.61,2.316c1.406,0,1.824-0.344,1.824-0.799
		c0-1.746-10.41,0.493-10.41-7.104c0-3.308,2.888-6.271,8.207-6.271c3.076,0,5.812,0.948,7.938,2.354l-2.506,4.445
		c-1.142-0.95-3.269-1.9-5.396-1.9c-0.988,0-1.709,0.38-1.709,0.798c0,1.521,10.408-0.38,10.408,7.257
		c0,3.647-3.269,6.311-8.699,6.311C591.169,319.529,587.521,318.352,585.546,316.718z"/>
</g>
<g>
	<path fill="#010101" d="M165.195,347.879c0-5.812,4.483-9.612,10.296-9.612c4.179,0,6.763,1.899,7.789,3.459l-4.408,4.143
		c-0.57-0.874-1.634-1.561-3.078-1.561c-1.938,0-3.609,1.218-3.609,3.571c0,2.355,1.672,3.609,3.609,3.609
		c1.444,0,2.508-0.761,3.078-1.597l4.408,4.179c-1.026,1.521-3.61,3.459-7.789,3.459
		C169.68,357.529,165.195,353.729,165.195,347.879z"/>
	<path fill="#010101" d="M184.271,347.879c0-5.13,3.799-9.612,10.296-9.612c6.535,0,10.334,4.482,10.334,9.612
		c0,5.129-3.799,9.65-10.334,9.65C188.072,357.529,184.271,353.008,184.271,347.879z M197.874,347.879
		c0-2.014-1.178-3.571-3.306-3.571c-2.09,0-3.268,1.561-3.268,3.571c0,2.054,1.178,3.609,3.268,3.609
		C196.697,351.488,197.874,349.932,197.874,347.879z"/>
	<path fill="#010101" d="M219.837,357.073v-2.052c-1.064,1.178-3.078,2.508-6.307,2.508c-4.255,0-6.079-2.547-6.079-5.699v-13.106
		h6.839v10.183c0,1.862,0.988,2.585,2.66,2.585c1.52,0,2.317-0.798,2.888-1.444v-11.321h6.839v18.354h-6.84V357.073L219.837,357.073
		z"/>
	<path fill="#010101" d="M230.479,357.073V331.73h6.839v25.343H230.479z"/>
	<path fill="#010101" d="M253.125,357.073v-1.938c-1.558,1.747-3.306,2.396-5.167,2.396c-4.445,0-8.093-3.345-8.093-9.65
		c0-6.079,3.571-9.612,8.093-9.612c1.861,0,3.724,0.646,5.167,2.396v-8.929h6.839v25.342L253.125,357.073L253.125,357.073z
		 M253.125,350.234v-4.711c-0.646-0.8-1.938-1.218-2.85-1.218c-1.861,0-3.419,1.291-3.419,3.57s1.558,3.608,3.419,3.608
		C251.188,351.488,252.479,351.032,253.125,350.234z"/>
	<path fill="#010101" d="M272.961,351.754v-7.104h-3.04v-5.929h3.04v-5.017h6.839v5.017h3.724v5.929H279.8v5.129
		c0,0.948,0.607,1.709,1.52,1.709c0.608,0,1.216-0.189,1.368-0.342l1.216,5.168c-0.722,0.646-2.317,1.215-4.636,1.215
		C275.204,357.529,272.961,355.592,272.961,351.754z"/>
	<path fill="#010101" d="M284.817,347.879c0-5.317,4.065-9.612,9.993-9.612c5.395,0,9.536,3.877,9.536,10.336v1.403h-12.461
		c0.38,1.181,1.71,2.318,3.951,2.318c1.026,0,3.306-0.494,4.218-1.292l2.812,4.218c-1.824,1.56-5.092,2.279-7.827,2.279
		C289.301,357.529,284.817,353.92,284.817,347.879z M294.811,343.473c-2.09,0-2.773,1.365-3.002,2.201h6.041
		C297.661,344.877,297.014,343.473,294.811,343.473z"/>
	<path fill="#010101" d="M305.147,354.718l2.735-4.598c1.443,1.14,4.561,2.316,6.61,2.316c1.406,0,1.824-0.344,1.824-0.799
		c0-1.746-10.413,0.493-10.413-7.104c0-3.308,2.89-6.271,8.208-6.271c3.078,0,5.812,0.948,7.94,2.354l-2.508,4.445
		c-1.143-0.95-3.27-1.9-5.396-1.9c-0.987,0-1.709,0.38-1.709,0.798c0,1.521,10.409-0.38,10.409,7.257c0,3.647-3.268,6.311-8.7,6.311
		C310.77,357.529,307.124,356.352,305.147,354.718z"/>
	<path fill="#010101" d="M326.731,351.754v-7.104h-3.039v-5.929h3.039v-5.017h6.84v5.017h3.725v5.929h-3.725v5.129
		c0,0.948,0.606,1.709,1.521,1.709c0.607,0,1.216-0.189,1.368-0.342l1.217,5.168c-0.724,0.646-2.317,1.215-4.638,1.215
		C328.973,357.529,326.731,355.592,326.731,351.754z"/>
	<path fill="#010101" d="M347.211,333.555c0-2.129,1.71-3.839,3.838-3.839c2.129,0,3.838,1.71,3.838,3.839s-1.709,3.838-3.838,3.838
		C348.921,337.393,347.211,335.684,347.211,333.555z M347.629,357.073V338.72h6.84v18.354L347.629,357.073L347.629,357.073z"/>
	<path fill="#010101" d="M359.676,351.754v-7.104h-3.039v-5.929h3.039v-5.017h6.84v5.017h3.725v5.929h-3.725v5.129
		c0,0.948,0.605,1.709,1.521,1.709c0.606,0,1.217-0.189,1.367-0.342l1.217,5.168c-0.723,0.646-2.316,1.215-4.637,1.215
		C361.917,357.529,359.676,355.592,359.676,351.754z"/>
	<path fill="#010101" d="M371.229,354.718l2.734-4.598c1.443,1.14,4.562,2.316,6.61,2.316c1.404,0,1.823-0.344,1.823-0.799
		c0-1.746-10.41,0.493-10.41-7.104c0-3.308,2.889-6.271,8.207-6.271c3.075,0,5.812,0.948,7.938,2.354l-2.507,4.445
		c-1.142-0.95-3.269-1.9-5.396-1.9c-0.987,0-1.711,0.38-1.711,0.798c0,1.521,10.41-0.38,10.41,7.257
		c0,3.647-3.268,6.311-8.699,6.311C376.852,357.529,373.205,356.352,371.229,354.718z"/>
	<path fill="#010101" d="M398.778,333.555c0-2.129,1.709-3.839,3.838-3.839c2.127,0,3.836,1.71,3.836,3.839
		s-1.709,3.838-3.836,3.838C400.487,337.393,398.778,335.684,398.778,333.555z M399.196,357.073V338.72h6.838v18.354
		L399.196,357.073L399.196,357.073z"/>
	<path fill="#010101" d="M421.842,357.073v-1.938c-1.561,1.747-3.309,2.396-5.168,2.396c-4.445,0-8.096-3.345-8.096-9.65
		c0-6.079,3.572-9.612,8.096-9.612c1.859,0,3.724,0.646,5.168,2.396v-8.929h6.838v25.342L421.842,357.073L421.842,357.073z
		 M421.842,350.234v-4.711c-0.646-0.8-1.938-1.218-2.852-1.218c-1.861,0-3.42,1.291-3.42,3.57s1.559,3.608,3.42,3.608
		C419.903,351.488,421.196,351.032,421.842,350.234z"/>
	<path fill="#010101" d="M431.229,347.879c0-5.317,4.064-9.612,9.992-9.612c5.396,0,9.537,3.877,9.537,10.336v1.403h-12.463
		c0.381,1.181,1.711,2.318,3.949,2.318c1.027,0,3.309-0.494,4.221-1.292l2.812,4.218c-1.824,1.56-5.093,2.279-7.826,2.279
		C435.711,357.529,431.229,353.92,431.229,347.879z M441.221,343.473c-2.09,0-2.772,1.365-3.002,2.201h6.041
		C444.071,344.877,443.424,343.473,441.221,343.473z"/>
	<path fill="#010101" d="M463.717,357.073v-1.748c-1.024,1.292-3.27,2.204-5.547,2.204c-2.736,0-6.311-1.862-6.311-6.041
		c0-4.562,3.571-5.853,6.311-5.853c2.394,0,4.559,0.761,5.547,2.015v-1.899c0-1.292-1.18-2.277-3.42-2.277
		c-1.709,0-3.646,0.685-5.094,1.783l-2.314-4.217c2.47-1.978,5.89-2.773,8.662-2.773c4.56,0,9.004,1.598,9.004,7.714v11.096
		L463.717,357.073L463.717,357.073z M463.717,352.096v-1.024c-0.457-0.646-1.635-0.987-2.697-0.987c-1.141,0-2.395,0.38-2.395,1.521
		c0,1.141,1.254,1.479,2.395,1.479C462.083,353.084,463.26,352.742,463.717,352.096z"/>
	<path fill="#010101" d="M472.801,354.718l2.732-4.598c1.444,1.14,4.562,2.316,6.61,2.316c1.406,0,1.824-0.344,1.824-0.799
		c0-1.746-10.41,0.493-10.41-7.104c0-3.308,2.888-6.271,8.207-6.271c3.076,0,5.812,0.948,7.938,2.354l-2.506,4.445
		c-1.142-0.95-3.269-1.9-5.396-1.9c-0.988,0-1.709,0.38-1.709,0.798c0,1.521,10.41-0.38,10.41,7.257c0,3.647-3.27,6.311-8.701,6.311
		C478.424,357.529,474.776,356.352,472.801,354.718z"/>
	<path fill="#010101" d="M492.37,353.464c0-2.204,1.861-4.063,4.065-4.063c2.203,0,4.064,1.859,4.064,4.063
		c0,2.203-1.861,4.065-4.064,4.065C494.231,357.529,492.37,355.667,492.37,353.464z"/>
</g>
</svg>
