<?xml version="1.0" encoding="utf-8"?>
<!-- Generator: Adobe Illustrator 13.0.0, SVG Export Plug-In  -->
<!DOCTYPE svg PUBLIC "-//W3C//DTD SVG 1.1//EN" "http://www.w3.org/Graphics/SVG/1.1/DTD/svg11.dtd" [
	<!ENTITY ns_flows "http://ns.adobe.com/Flows/1.0/">
]>
<svg version="1.1"
	 xmlns="http://www.w3.org/2000/svg" xmlns:xlink="http://www.w3.org/1999/xlink" xmlns:a="http://ns.adobe.com/AdobeSVGViewerExtensions/3.0/"
	 x="0px" y="0px" width="4310px" height="5023px" viewBox="-0.84 -0.015 4310 5023" enable-background="new -0.84 -0.015 4310 5023"
	 xml:space="preserve">
<defs>
</defs>
<rect x="908.929" y="450.004" fill-rule="evenodd" clip-rule="evenodd" fill="#6A6A6A" width="233.55" height="102.914"/>
<polyline fill="none" stroke="#000000" stroke-width="0.3685" stroke-linecap="round" stroke-linejoin="round" points="
	908.929,450.004 1142.479,450.004 1142.479,552.918 908.929,552.918 908.929,450.004 "/>
<rect x="907.928" y="693.58" fill-rule="evenodd" clip-rule="evenodd" fill="#6A6A6A" width="235.217" height="1316.168"/>
<polyline fill="none" stroke="#000000" stroke-width="0.3685" stroke-linecap="round" stroke-linejoin="round" points="
	907.928,693.58 1143.146,693.58 1143.146,2009.749 907.928,2009.749 907.928,693.58 "/>
<rect x="907.928" y="2152.503" fill-rule="evenodd" clip-rule="evenodd" fill="#6A6A6A" width="235.217" height="63.026"/>
<polyline fill="none" stroke="#000000" stroke-width="0.3685" stroke-linecap="round" stroke-linejoin="round" points="
	907.928,2152.503 1143.146,2152.503 1143.146,2215.529 907.928,2215.529 907.928,2152.503 "/>
<polygon fill-rule="evenodd" clip-rule="evenodd" fill="#DCD705" points="12.736,483.682 154.458,341.96 404.943,592.446 
	457.677,543.008 487.339,819.86 210.487,819.86 256.629,763.83 "/>
<polygon fill-rule="evenodd" clip-rule="evenodd" fill="#DCD705" points="0,1037.633 141.722,895.911 392.208,1146.396 
	444.941,1096.958 474.604,1373.811 197.751,1373.811 243.894,1317.781 "/>
<polygon fill-rule="evenodd" clip-rule="evenodd" fill="#DCD705" points="12.736,1585.786 154.458,1444.064 404.943,1694.549 
	457.677,1645.111 487.339,1921.963 210.487,1921.963 256.629,1865.934 "/>
<rect x="2854.688" y="450.004" fill-rule="evenodd" clip-rule="evenodd" fill="#6A6A6A" width="233.55" height="102.914"/>
<polyline fill="none" stroke="#000000" stroke-width="0.3685" stroke-linecap="round" stroke-linejoin="round" points="
	2854.688,450.004 3088.238,450.004 3088.238,552.918 2854.688,552.918 2854.688,450.004 "/>
<rect x="2853.686" y="693.58" fill-rule="evenodd" clip-rule="evenodd" fill="#6A6A6A" width="235.218" height="1316.168"/>
<polyline fill="none" stroke="#000000" stroke-width="0.3685" stroke-linecap="round" stroke-linejoin="round" points="
	2853.686,693.58 3088.904,693.58 3088.904,2009.749 2853.686,2009.749 2853.686,693.58 "/>
<rect x="2853.686" y="2152.503" fill-rule="evenodd" clip-rule="evenodd" fill="#6A6A6A" width="235.218" height="63.026"/>
<polyline fill="none" stroke="#000000" stroke-width="0.3685" stroke-linecap="round" stroke-linejoin="round" points="
	2853.686,2152.503 3088.904,2152.503 3088.904,2215.529 2853.686,2215.529 2853.686,2152.503 "/>
<rect x="908.929" y="3185.116" fill-rule="evenodd" clip-rule="evenodd" fill="#6A6A6A" width="233.55" height="102.914"/>
<polyline fill="none" stroke="#000000" stroke-width="0.3685" stroke-linecap="round" stroke-linejoin="round" points="
	908.929,3185.117 1142.479,3185.117 1142.479,3288.031 908.929,3288.031 908.929,3185.117 "/>
<rect x="907.928" y="3428.692" fill-rule="evenodd" clip-rule="evenodd" fill="#6A6A6A" width="235.217" height="1316.169"/>
<polyline fill="none" stroke="#000000" stroke-width="0.3685" stroke-linecap="round" stroke-linejoin="round" points="
	907.928,3428.692 1143.146,3428.692 1143.146,4744.861 907.928,4744.861 907.928,3428.692 "/>
<rect x="907.928" y="4887.616" fill-rule="evenodd" clip-rule="evenodd" fill="#6A6A6A" width="235.217" height="63.026"/>
<polyline fill="none" stroke="#000000" stroke-width="0.3685" stroke-linecap="round" stroke-linejoin="round" points="
	907.928,4887.616 1143.146,4887.616 1143.146,4950.643 907.928,4950.643 907.928,4887.616 "/>
<polygon fill-rule="evenodd" clip-rule="evenodd" fill="#DCD705" points="12.736,3218.795 154.458,3077.073 404.943,3327.558 
	457.677,3278.12 487.339,3554.973 210.487,3554.973 256.629,3498.943 "/>
<polygon fill-rule="evenodd" clip-rule="evenodd" fill="#DCD705" points="0,3772.746 141.722,3631.023 392.208,3881.51 
	444.941,3832.071 474.604,4108.924 197.751,4108.924 243.894,4052.894 "/>
<polygon fill-rule="evenodd" clip-rule="evenodd" fill="#DCD705" points="12.736,4320.898 154.458,4179.177 404.943,4429.662 
	457.677,4380.224 487.339,4657.076 210.487,4657.076 256.629,4601.047 "/>
<line fill="#FF7F00" stroke="#FF7F00" stroke-width="7" stroke-linecap="round" stroke-linejoin="round" x1="908.929" y1="573.221" x2="1181.292" y2="573.221"/>
<line fill="#FF7F00" stroke="#FF7F00" stroke-width="7" stroke-linecap="round" stroke-linejoin="round" x1="1181.292" y1="573.221" x2="1155.529" y2="598.984"/>
<line fill="#FF7F00" stroke="#FF7F00" stroke-width="7" stroke-linecap="round" stroke-linejoin="round" x1="1181.292" y1="573.221" x2="1155.529" y2="547.457"/>
<line fill="#FF7F00" stroke="#FF7F00" stroke-width="7" stroke-linecap="round" stroke-linejoin="round" x1="908.929" y1="665.308" x2="1181.292" y2="665.308"/>
<line fill="#FF7F00" stroke="#FF7F00" stroke-width="7" stroke-linecap="round" stroke-linejoin="round" x1="1181.292" y1="665.308" x2="1155.529" y2="691.072"/>
<line fill="#FF7F00" stroke="#FF7F00" stroke-width="7" stroke-linecap="round" stroke-linejoin="round" x1="1181.292" y1="665.308" x2="1155.529" y2="639.545"/>
<line fill="none" stroke="#009999" stroke-width="7" stroke-linecap="round" stroke-linejoin="round" x1="1143.315" y1="2031.918" x2="870.952" y2="2031.918"/>
<line fill="none" stroke="#009999" stroke-width="7" stroke-linecap="round" stroke-linejoin="round" x1="870.952" y1="2031.918" x2="896.716" y2="2006.155"/>
<line fill="none" stroke="#009999" stroke-width="7" stroke-linecap="round" stroke-linejoin="round" x1="870.952" y1="2031.918" x2="896.716" y2="2057.682"/>
<line fill="none" stroke="#009999" stroke-width="7" stroke-linecap="round" stroke-linejoin="round" x1="1143.315" y1="2124.006" x2="870.952" y2="2124.006"/>
<line fill="none" stroke="#009999" stroke-width="7" stroke-linecap="round" stroke-linejoin="round" x1="870.952" y1="2124.006" x2="896.716" y2="2098.242"/>
<line fill="none" stroke="#009999" stroke-width="7" stroke-linecap="round" stroke-linejoin="round" x1="870.952" y1="2124.006" x2="896.716" y2="2149.77"/>
<line fill="none" stroke="#DCD705" stroke-width="7" stroke-linecap="round" stroke-linejoin="round" x1="1143.315" y1="4767.031" x2="870.952" y2="4767.031"/>
<line fill="none" stroke="#DCD705" stroke-width="7" stroke-linecap="round" stroke-linejoin="round" x1="870.952" y1="4767.031" x2="896.716" y2="4741.268"/>
<line fill="none" stroke="#DCD705" stroke-width="7" stroke-linecap="round" stroke-linejoin="round" x1="870.952" y1="4767.031" x2="896.716" y2="4792.795"/>
<line fill="none" stroke="#DCD705" stroke-width="7" stroke-linecap="round" stroke-linejoin="round" x1="1143.315" y1="4859.119" x2="870.952" y2="4859.119"/>
<line fill="none" stroke="#DCD705" stroke-width="7" stroke-linecap="round" stroke-linejoin="round" x1="870.952" y1="4859.119" x2="896.716" y2="4833.355"/>
<line fill="none" stroke="#DCD705" stroke-width="7" stroke-linecap="round" stroke-linejoin="round" x1="870.952" y1="4859.119" x2="896.716" y2="4884.883"/>
<line fill="#FF7F00" stroke="#FF7F00" stroke-width="7" stroke-linecap="round" stroke-linejoin="round" x1="881.309" y1="3213.329" x2="608.947" y2="3212.521"/>
<line fill="#FF7F00" stroke="#FF7F00" stroke-width="7" stroke-linecap="round" stroke-linejoin="round" x1="608.947" y1="3212.521" x2="634.788" y2="3186.834"/>
<line fill="#FF7F00" stroke="#FF7F00" stroke-width="7" stroke-linecap="round" stroke-linejoin="round" x1="608.947" y1="3212.521" x2="634.634" y2="3238.36"/>
<line fill="#FF7F00" stroke="#FF7F00" stroke-width="7" stroke-linecap="round" stroke-linejoin="round" x1="881.036" y1="3305.416" x2="608.674" y2="3304.608"/>
<line fill="#FF7F00" stroke="#FF7F00" stroke-width="7" stroke-linecap="round" stroke-linejoin="round" x1="608.674" y1="3304.608" x2="634.514" y2="3278.921"/>
<line fill="#FF7F00" stroke="#FF7F00" stroke-width="7" stroke-linecap="round" stroke-linejoin="round" x1="608.674" y1="3304.608" x2="634.361" y2="3330.448"/>
<polyline fill="none" stroke="#000000" stroke-width="7" stroke-linecap="round" stroke-linejoin="round" points="691.298,381.661 
	2337.224,381.661 2337.224,2283.873 679.908,2283.873 679.908,2215.529 2268.881,2215.529 2268.881,450.004 691.298,450.004 
	691.298,381.661 "/>
<polyline fill="none" stroke="#0000FF" stroke-width="2" stroke-linecap="round" stroke-linejoin="round" points="727.954,2215.529 
	754.874,2215.529 754.874,600.397 727.954,600.397 727.954,2215.529 "/>
<line fill="none" stroke="#000000" stroke-width="2" stroke-linecap="round" stroke-linejoin="round" x1="739.39" y1="465.688" x2="739.39" y2="594.462"/>
<line fill="none" stroke="#000000" stroke-width="2" stroke-linecap="round" stroke-linejoin="round" x1="933.317" y1="616.691" x2="1120.346" y2="616.691"/>
<line fill="none" stroke="#000000" stroke-width="2" stroke-linecap="round" stroke-linejoin="round" x1="930.879" y1="2074.815" x2="1121.28" y2="2074.815"/>
<polyline fill="none" stroke="#7F7FFF" stroke-width="0.7087" stroke-linecap="round" stroke-linejoin="round" points="
	907.928,2215.529 1143.146,2215.529 1143.146,2152.503 907.928,2152.503 907.928,2215.529 "/>
<polyline fill="none" stroke="#7F7FFF" stroke-width="0.7087" stroke-linecap="round" stroke-linejoin="round" points="
	907.928,2009.749 1143.146,2009.749 1143.146,693.58 907.928,693.58 907.928,2009.749 "/>
<polyline fill="none" stroke="#7F7FFF" stroke-width="0.7087" stroke-linecap="round" stroke-linejoin="round" points="
	908.929,553.309 1142.479,553.309 1142.479,450.004 908.929,450.004 908.929,553.309 "/>
<line fill="none" stroke="#000000" stroke-width="0.7087" stroke-linecap="round" stroke-linejoin="round" x1="536.853" y1="279.098" x2="668.31" y2="506.788"/>
<polyline fill="none" stroke="#000000" stroke-width="7" stroke-linecap="round" stroke-linejoin="round" points="2637.057,381.661 
	4282.982,381.661 4282.982,2283.873 2625.667,2283.873 2625.667,2215.529 4214.639,2215.529 4214.639,450.004 2637.057,450.004 
	2637.057,381.661 "/>
<polyline fill="none" stroke="#0000FF" stroke-width="2" stroke-linecap="round" stroke-linejoin="round" points="
	2673.712,2215.529 2700.632,2215.529 2700.632,600.397 2673.712,600.397 2673.712,2215.529 "/>
<line fill="none" stroke="#000000" stroke-width="2" stroke-linecap="round" stroke-linejoin="round" x1="2685.148" y1="465.688" x2="2685.148" y2="594.462"/>
<line fill="none" stroke="#000000" stroke-width="2" stroke-linecap="round" stroke-linejoin="round" x1="2975.08" y1="559.439" x2="2975.08" y2="679.781"/>
<polyline fill="none" stroke="#7F7FFF" stroke-width="0.7087" stroke-linecap="round" stroke-linejoin="round" points="
	2853.686,2215.529 3088.904,2215.529 3088.904,2152.503 2853.686,2152.503 2853.686,2215.529 "/>
<polyline fill="none" stroke="#7F7FFF" stroke-width="0.7087" stroke-linecap="round" stroke-linejoin="round" points="
	2853.686,2009.749 3088.904,2009.749 3088.904,693.58 2853.686,693.58 2853.686,2009.749 "/>
<polyline fill="none" stroke="#7F7FFF" stroke-width="0.7087" stroke-linecap="round" stroke-linejoin="round" points="
	2854.688,553.309 3088.238,553.309 3088.238,450.004 2854.688,450.004 2854.688,553.309 "/>
<line fill="#A80F02" stroke="#A80F02" stroke-width="6" stroke-linecap="round" stroke-linejoin="round" x1="3308.414" y1="898.593" x2="3282.651" y2="924.356"/>
<line fill="#A80F02" stroke="#A80F02" stroke-width="6" stroke-linecap="round" stroke-linejoin="round" x1="3308.414" y1="898.593" x2="3282.651" y2="872.83"/>
<line fill="#A80F02" stroke="#A80F02" stroke-width="6" stroke-linecap="round" stroke-linejoin="round" x1="3149.47" y1="898.593" x2="3308.414" y2="898.593"/>
<line fill="#A80F02" stroke="#A80F02" stroke-width="6" stroke-linecap="round" stroke-linejoin="round" x1="3308.414" y1="1014.49" x2="3282.651" y2="1040.253"/>
<line fill="#A80F02" stroke="#A80F02" stroke-width="6" stroke-linecap="round" stroke-linejoin="round" x1="3308.414" y1="1014.49" x2="3282.651" y2="988.726"/>
<line fill="#A80F02" stroke="#A80F02" stroke-width="6" stroke-linecap="round" stroke-linejoin="round" x1="3149.47" y1="1014.49" x2="3308.414" y2="1014.49"/>
<line fill="#A80F02" stroke="#A80F02" stroke-width="6" stroke-linecap="round" stroke-linejoin="round" x1="3308.414" y1="1178.008" x2="3282.651" y2="1203.771"/>
<line fill="#A80F02" stroke="#A80F02" stroke-width="6" stroke-linecap="round" stroke-linejoin="round" x1="3308.414" y1="1178.008" x2="3282.651" y2="1152.244"/>
<line fill="#A80F02" stroke="#A80F02" stroke-width="6" stroke-linecap="round" stroke-linejoin="round" x1="3149.47" y1="1178.008" x2="3308.414" y2="1178.008"/>
<line fill="#A80F02" stroke="#A80F02" stroke-width="6" stroke-linecap="round" stroke-linejoin="round" x1="3308.414" y1="1347.76" x2="3282.651" y2="1373.523"/>
<line fill="#A80F02" stroke="#A80F02" stroke-width="6" stroke-linecap="round" stroke-linejoin="round" x1="3308.414" y1="1347.76" x2="3282.651" y2="1321.996"/>
<line fill="#A80F02" stroke="#A80F02" stroke-width="6" stroke-linecap="round" stroke-linejoin="round" x1="3149.47" y1="1347.76" x2="3308.414" y2="1347.76"/>
<line fill="#A80F02" stroke="#A80F02" stroke-width="6" stroke-linecap="round" stroke-linejoin="round" x1="3308.414" y1="1504.16" x2="3282.651" y2="1529.924"/>
<line fill="#A80F02" stroke="#A80F02" stroke-width="6" stroke-linecap="round" stroke-linejoin="round" x1="3308.414" y1="1504.16" x2="3282.651" y2="1478.396"/>
<line fill="#A80F02" stroke="#A80F02" stroke-width="6" stroke-linecap="round" stroke-linejoin="round" x1="3149.47" y1="1504.16" x2="3308.414" y2="1504.16"/>
<line fill="#A80F02" stroke="#A80F02" stroke-width="6" stroke-linecap="round" stroke-linejoin="round" x1="3308.414" y1="1618.6" x2="3282.651" y2="1644.363"/>
<line fill="#A80F02" stroke="#A80F02" stroke-width="6" stroke-linecap="round" stroke-linejoin="round" x1="3308.414" y1="1618.6" x2="3282.651" y2="1592.836"/>
<line fill="#A80F02" stroke="#A80F02" stroke-width="6" stroke-linecap="round" stroke-linejoin="round" x1="3149.47" y1="1618.6" x2="3308.414" y2="1618.6"/>
<line fill="#A80F02" stroke="#A80F02" stroke-width="6" stroke-linecap="round" stroke-linejoin="round" x1="3308.414" y1="1757.834" x2="3282.651" y2="1783.598"/>
<line fill="#A80F02" stroke="#A80F02" stroke-width="6" stroke-linecap="round" stroke-linejoin="round" x1="3308.414" y1="1757.834" x2="3282.651" y2="1732.071"/>
<line fill="#A80F02" stroke="#A80F02" stroke-width="6" stroke-linecap="round" stroke-linejoin="round" x1="3149.47" y1="1757.834" x2="3308.414" y2="1757.834"/>
<line fill="none" stroke="#000000" stroke-width="2" stroke-linecap="round" stroke-linejoin="round" x1="2971.543" y1="2024.688" x2="2971.543" y2="2145.03"/>
<polyline fill="none" stroke="#000000" stroke-width="7" stroke-linecap="round" stroke-linejoin="round" points="691.298,3116.774 
	2337.224,3116.774 2337.224,5018.985 679.908,5018.985 679.908,4950.643 2268.881,4950.643 2268.881,3185.117 691.298,3185.117 
	691.298,3116.774 "/>
<polyline fill="none" stroke="#0000FF" stroke-width="2" stroke-linecap="round" stroke-linejoin="round" points="727.954,4950.643 
	754.874,4950.643 754.874,3335.511 727.954,3335.511 727.954,4950.643 "/>
<line fill="none" stroke="#000000" stroke-width="2" stroke-linecap="round" stroke-linejoin="round" x1="674.182" y1="3265.188" x2="802.956" y2="3265.188"/>
<line fill="none" stroke="#000000" stroke-width="2" stroke-linecap="round" stroke-linejoin="round" x1="1028.795" y1="3421.488" x2="1028.795" y2="3292.14"/>
<line fill="none" stroke="#000000" stroke-width="2" stroke-linecap="round" stroke-linejoin="round" x1="930.879" y1="4809.928" x2="1121.28" y2="4809.928"/>
<polyline fill="none" stroke="#7F7FFF" stroke-width="0.7087" stroke-linecap="round" stroke-linejoin="round" points="
	907.928,4950.643 1143.146,4950.643 1143.146,4887.616 907.928,4887.616 907.928,4950.643 "/>
<polyline fill="none" stroke="#7F7FFF" stroke-width="0.7087" stroke-linecap="round" stroke-linejoin="round" points="
	907.928,4744.861 1143.146,4744.861 1143.146,3428.692 907.928,3428.692 907.928,4744.861 "/>
<polyline fill="none" stroke="#7F7FFF" stroke-width="0.7087" stroke-linecap="round" stroke-linejoin="round" points="
	908.929,3288.421 1142.479,3288.421 1142.479,3185.117 908.929,3185.117 908.929,3288.421 "/>
<line fill="none" stroke="#000000" stroke-width="0.7087" stroke-linecap="round" stroke-linejoin="round" x1="628.03" y1="3172.135" x2="536.853" y2="3014.21"/>
<path fill="none" stroke="#000000" stroke-width="2" stroke-linecap="round" stroke-linejoin="round" d="M752.906,530.075
	c0-7.465-6.052-13.516-13.516-13.516c-7.465,0-13.516,6.051-13.516,13.516c0,7.464,6.051,13.516,13.516,13.516
	C746.854,543.591,752.906,537.54,752.906,530.075L752.906,530.075L752.906,530.075z"/>
<path fill="none" stroke="#000000" stroke-width="2" stroke-linecap="round" stroke-linejoin="round" d="M1042.393,616.691
	c0-7.465-6.051-13.516-13.516-13.516c-7.464,0-13.516,6.051-13.516,13.516c0,7.464,6.052,13.516,13.516,13.516
	C1036.342,630.207,1042.393,624.155,1042.393,616.691L1042.393,616.691L1042.393,616.691z"/>
<path fill="none" stroke="#000000" stroke-width="2" stroke-linecap="round" stroke-linejoin="round" d="M1039.555,2074.815
	c0-7.464-6.051-13.516-13.516-13.516c-7.464,0-13.516,6.052-13.516,13.516c0,7.465,6.051,13.516,13.516,13.516
	C1033.503,2088.331,1039.555,2082.28,1039.555,2074.815L1039.555,2074.815L1039.555,2074.815z"/>
<path fill="none" stroke="#000000" stroke-width="2" stroke-linecap="round" stroke-linejoin="round" d="M2698.664,530.075
	c0-7.465-6.051-13.516-13.516-13.516s-13.516,6.051-13.516,13.516c0,7.464,6.051,13.516,13.516,13.516
	S2698.664,537.54,2698.664,530.075L2698.664,530.075L2698.664,530.075z"/>
<path fill="none" stroke="#000000" stroke-width="2" stroke-linecap="round" stroke-linejoin="round" d="M2988.151,616.691
	c0-7.465-6.051-13.516-13.516-13.516s-13.516,6.051-13.516,13.516c0,7.464,6.051,13.516,13.516,13.516
	S2988.151,624.155,2988.151,616.691L2988.151,616.691L2988.151,616.691z"/>
<path fill="none" stroke="#000000" stroke-width="2" stroke-linecap="round" stroke-linejoin="round" d="M2985.313,2074.815
	c0-7.464-6.052-13.516-13.517-13.516c-7.464,0-13.516,6.052-13.516,13.516c0,7.465,6.052,13.516,13.516,13.516
	C2979.261,2088.331,2985.313,2082.28,2985.313,2074.815L2985.313,2074.815L2985.313,2074.815z"/>
<path fill="none" stroke="#000000" stroke-width="2" stroke-linecap="round" stroke-linejoin="round" d="M752.906,3265.188
	c0-7.464-6.052-13.516-13.516-13.516c-7.465,0-13.516,6.052-13.516,13.516c0,7.465,6.051,13.517,13.516,13.517
	C746.854,3278.704,752.906,3272.652,752.906,3265.188L752.906,3265.188L752.906,3265.188z"/>
<path fill="none" stroke="#000000" stroke-width="2" stroke-linecap="round" stroke-linejoin="round" d="M1042.393,3351.804
	c0-7.465-6.051-13.516-13.516-13.516c-7.464,0-13.516,6.051-13.516,13.516s6.052,13.516,13.516,13.516
	C1036.342,3365.319,1042.393,3359.269,1042.393,3351.804L1042.393,3351.804L1042.393,3351.804z"/>
<path fill="none" stroke="#000000" stroke-width="2" stroke-linecap="round" stroke-linejoin="round" d="M1039.555,4809.928
	c0-7.465-6.051-13.516-13.516-13.516c-7.464,0-13.516,6.051-13.516,13.516s6.051,13.517,13.516,13.517
	C1033.503,4823.444,1039.555,4817.393,1039.555,4809.928L1039.555,4809.928L1039.555,4809.928z"/>
<line fill="none" stroke="#009999" stroke-width="7" stroke-linecap="round" stroke-linejoin="round" x1="1779.267" y1="4482.426" x2="1784.084" y2="4446.311"/>
<line fill="none" stroke="#009999" stroke-width="7" stroke-linecap="round" stroke-linejoin="round" x1="1779.267" y1="4482.426" x2="1815.383" y2="4487.243"/>
<polyline fill="none" stroke="#009999" stroke-width="7" stroke-linecap="round" stroke-linejoin="round" points="2220.913,3787 
	2190.118,3872.829 2155.678,3959.569 2112.149,4057.26 2055.269,4165.476 2023.524,4217.557 1989.364,4267.904 1952.631,4316.228 
	1913.167,4362.238 1870.812,4405.649 1825.41,4446.172 1779.267,4482.426 "/>
<text transform="matrix(1 0 0 1 1318.3784 163.9053)" font-family="'Verdana'" font-size="189.4383">Deň/zima</text>
<text transform="matrix(1 0 0 1 401.5781 125.6709)" font-family="'Verdana'" font-size="113.663">vetracie</text>
<text transform="matrix(1 0 0 1 394.6992 253.5967)" font-family="'Verdana'" font-size="113.663">klapky</text>
<text transform="matrix(1 0 0 1 1210.8774 607.9111)" font-family="'Verdana'" font-size="113.663">prívod ohriateho</text>
<text transform="matrix(1 0 0 1 1217.2925 735.6201)" font-family="'Verdana'" font-size="113.663">vzducu, vetracia</text>
<text transform="matrix(1 0 0 1 1210.4141 863.5332)" font-family="'Verdana'" font-size="113.663">klapka</text>
<text transform="matrix(1 0 0 1 1236.8462 1263.5313)" font-family="'Verdana'" font-size="113.663">akumulačná</text>
<text transform="matrix(1 0 0 1 1412.876 1391.3174)" font-family="'Verdana'" font-size="113.663">stena</text>
<text transform="matrix(1 0 0 1 1227.4453 1902.7607)" font-family="'Verdana'" font-size="113.663">odvod studeného</text>
<text transform="matrix(1 0 0 1 1229.7642 2030.4697)" font-family="'Verdana'" font-size="113.663">vzduchu, vetracia</text>
<text transform="matrix(1 0 0 1 1222.8853 2158.3828)" font-family="'Verdana'" font-size="113.663">klapka</text>
<text transform="matrix(6.123234e-017 -1 1 6.123234e-017 887.564 1826.1309)" font-family="'Verdana'" font-size="113.663">vzduchová medzera</text>
<text transform="matrix(6.123234e-017 -1 1 6.123234e-017 706.063 1916.6152)" font-family="'Verdana'" font-size="113.663">absorbčná plocha, sklo</text>
<text transform="matrix(1 0 0 1 3258.5679 163.585)" font-family="'Verdana'" font-size="189.4383">Noc</text>
<text transform="matrix(6.123234e-017 -1 1 6.123234e-017 2833.3218 1826.1309)" font-family="'Verdana'" font-size="113.663">vzduchová medzera</text>
<text transform="matrix(6.123234e-017 -1 1 6.123234e-017 2651.8218 1916.6152)" font-family="'Verdana'" font-size="113.663">absorbčná plocha, sklo</text>
<text transform="matrix(6.123234e-017 -1 1 6.123234e-017 3451.5229 1932.4326)" fill="#A80F02" font-family="'Verdana'" font-size="113.663">naakumulované teplo</text>
<text transform="matrix(1 0 0 1 1314.9102 2899.0186)" font-family="'Verdana'" font-size="189.4383">Deň/leto</text>
<text transform="matrix(1 0 0 1 401.5781 2860.7832)" font-family="'Verdana'" font-size="113.663">vetracie</text>
<text transform="matrix(1 0 0 1 394.6992 2988.709)" font-family="'Verdana'" font-size="113.663">klapky</text>
<text transform="matrix(1 0 0 1 1236.8462 3998.6436)" font-family="'Verdana'" font-size="113.663">akumulačná</text>
<text transform="matrix(1 0 0 1 1412.876 4126.4307)" font-family="'Verdana'" font-size="113.663">stena</text>
<text transform="matrix(1 0 0 1 1162.5781 4600.8662)" font-family="'Verdana'" font-size="105.4655">prúdenie studeného</text>
<text transform="matrix(1 0 0 1 1168.5308 4719.3643)" font-family="'Verdana'" font-size="105.4655">vzduchu do miestn., </text>
<text transform="matrix(1 0 0 1 1168.5308 4838.0527)" font-family="'Verdana'" font-size="105.4655">vetracia klapka</text>
<text transform="matrix(6.123234e-017 -1 1 6.123234e-017 887.564 4561.2441)" font-family="'Verdana'" font-size="113.663">vzduchová medzera</text>
<text transform="matrix(6.123234e-017 -1 1 6.123234e-017 706.063 4651.7285)" font-family="'Verdana'" font-size="113.663">absorbčná plocha, sklo</text>
<rect x="2254.988" y="700.052" fill-rule="evenodd" clip-rule="evenodd" fill="#FFFFFF" width="107.573" height="471.491"/>
<rect x="4200.746" y="700.052" fill-rule="evenodd" clip-rule="evenodd" fill="#FFFFFF" width="107.574" height="471.491"/>
<rect x="2254.988" y="3435.165" fill-rule="evenodd" clip-rule="evenodd" fill="#FFFFFF" width="107.573" height="471.491"/>
<line fill="none" stroke="#000000" stroke-width="7" stroke-linecap="round" stroke-linejoin="round" x1="2268.881" y1="700.053" x2="2337.224" y2="700.053"/>
<line fill="none" stroke="#000000" stroke-width="7" stroke-linecap="round" stroke-linejoin="round" x1="2268.881" y1="1171.543" x2="2337.224" y2="1171.543"/>
<line fill="none" stroke="#000000" stroke-width="7" stroke-linecap="round" stroke-linejoin="round" x1="4214.639" y1="700.053" x2="4282.982" y2="700.053"/>
<line fill="none" stroke="#000000" stroke-width="7" stroke-linecap="round" stroke-linejoin="round" x1="4214.639" y1="1171.543" x2="4282.982" y2="1171.543"/>
<line fill="none" stroke="#000000" stroke-width="7" stroke-linecap="round" stroke-linejoin="round" x1="2268.881" y1="3435.165" x2="2337.224" y2="3435.165"/>
<line fill="none" stroke="#000000" stroke-width="7" stroke-linecap="round" stroke-linejoin="round" x1="2268.881" y1="3906.656" x2="2337.224" y2="3906.656"/>
<line fill="none" stroke="#000000" stroke-width="0.7087" stroke-linecap="round" stroke-linejoin="round" x1="2268.881" y1="700.053" x2="2268.881" y2="1171.543"/>
<line fill="none" stroke="#000000" stroke-width="0.7087" stroke-linecap="round" stroke-linejoin="round" x1="2337.224" y1="1171.543" x2="2337.224" y2="700.053"/>
<line fill="none" stroke="#000000" stroke-width="0.7087" stroke-linecap="round" stroke-linejoin="round" x1="4214.639" y1="700.053" x2="4214.639" y2="1171.543"/>
<line fill="none" stroke="#000000" stroke-width="0.7087" stroke-linecap="round" stroke-linejoin="round" x1="4282.982" y1="1171.543" x2="4282.982" y2="700.053"/>
<line fill="none" stroke="#000000" stroke-width="0.7087" stroke-linecap="round" stroke-linejoin="round" x1="2268.881" y1="3435.165" x2="2268.881" y2="3906.656"/>
<line fill="none" stroke="#000000" stroke-width="0.7087" stroke-linecap="round" stroke-linejoin="round" x1="2337.224" y1="3906.656" x2="2337.224" y2="3435.165"/>
</svg>
