<svg id="Layer_1" xmlns="http://www.w3.org/2000/svg" viewBox="0 0 122.6 111.3"><style>.st0{fill:#FFFFFF;} .st1{fill:#ED305D;} .st2{font-family:&amp;apos;GalanoGrotesque-Bold&amp;apos;;} .st3{font-size:9.7854px;}</style><path class="st0" d="M111.2 31.9c-.7-1.5-1.5-2.9-2.3-4.4-.7-1.1-1.3-2.2-2.1-3.3-.8-1.2-1.8-2.5-2.7-3.6.1.2.2.4.2.6.4.9 2.6 5.7 6.9 10.7M5 55.4v1.3c0 1.9.2 3.8.4 5.7.2 1.9.6 3.7 1 5.6 0-5.5-.5-11.4-1.3-17.2-.1 1.6-.1 3.1-.1 4.6m14.8-37.8c-.5.6-1 1.1-1.5 1.7-.3.9-.5 1.7-.8 2.6-2.4 8.8-1.7 17-.6 23.6 2.9 18.1 2.2 34 .1 42.7-.1.4-.2.9-.3 1.3.2.3.4.5.6.8l.3-1.2c.8-2.9 1.3-6.6 1.7-10.9.8-9.9.2-21.5-1.6-32.8-1.1-7-1.9-15.8 1.2-25.2.3-.9.6-1.7.9-2.6m95.6 38.6c-18.6-9-26-27-26.8-29.2-4.4-13.5-18.9-21-32.5-16.9-6.7 2-12.1 6.6-15.4 12.7-3.5 6.6-2.9 13.7-2 19.2 3.3 20.1 3.7 46.3-4 61.5-.2.3-.3.6-.5.9.2.1.5.3.7.4.2-.3.3-.6.5-.9 7.8-15.4 7.4-41.8 4.1-62-.9-5.4-1.4-12.3 1.9-18.7 3.2-6 8.4-10.3 14.9-12.3 13.1-4 27.2 3.3 31.4 16.3.9 2.2 8.4 20.8 27.6 29.9.3.2.7.3 1 .5v-.9c-.2-.2-.6-.4-.9-.5M76.2 31.1c-2.1-6.9-9.4-10.7-16.3-8.6-3.3 1-6.1 3.3-7.7 6.4-1.6 3.1-2 6.6-.9 9.9.5 1.6 11.8 37.2 49.5 53.7.3.1.7.3 1 .4.2-.2.4-.4.6-.7-.3-.1-.7-.3-1-.4-37.5-16.3-48.8-51.6-49.3-53.2-1-3.1-.6-6.4.9-9.3 1.5-2.9 4.1-5 7.2-5.9 6.4-2 13.2 1.6 15.2 8.1.1.3 9.5 27.7 37.9 39 .3.1.6.2 1 .4.1-.3.2-.5.2-.8-.3-.1-.7-.2-1-.4-27.9-11.3-37.2-38.3-37.3-38.6M68.4 107c-2.5.5-4.7 1.5-6.5 3.1-.4.3-.8.7-1.1 1.1H62c.4-.4.8-.7 1.3-1.1 1.5-1.1 3.3-1.9 5.3-2.2 2.2-.4 4.2-.2 6.2.5l1.5.6c.4-.1.8-.2 1.1-.3-.4-.3-.9-.5-1.3-.7-2.4-1.2-5-1.5-7.7-1m3.8-74.6c-1.4-4.6-6.4-7.3-11-5.8-2.3.7-4.1 2.2-5.2 4.3-1.1 2.1-1.3 4.5-.6 6.7.5 1.5 11.5 36 48.4 51.6.3.1.7.3 1 .4.2-.2.4-.5.5-.7-.3-.1-.7-.3-1-.4-36.8-15.4-47.7-49.6-48.2-51.2-.6-2-.4-4.2.6-6.1 1-1.9 2.7-3.3 4.7-3.9 4.2-1.3 8.7 1.1 10 5.3.1.3 9.9 29.7 40.6 41.8.3.1.6.2 1 .4.1-.3.2-.5.3-.8-.3-.1-.6-.2-1-.4-30.3-11.9-40-40.9-40.1-41.2M51.3 91c.1.1.2.2.4.2.1 0 .2 0 .2-.1 3.9-2.5 8.2-4.2 12.9-5 3.4-.6 6.7-.7 10-.4.2 0 .4-.1.5-.4 0-.2-.1-.4-.4-.5-3.4-.4-6.8-.2-10.3.4-4.8.9-9.3 2.6-13.2 5.2-.2.1-.2.4-.1.6m1.8-6.1c.1.1.2.2.3.2.1 0 .2 0 .2-.1 3.5-2.6 9.8-4.6 15.7-3.2.2 0 .4-.1.5-.2.1-.2 0-.4-.1-.5 0-.1-7.7-6.3-15.8-19.2-.1-.2-.4-.3-.6-.1-.2.1-.3.4-.1.6 6.3 10.1 12.4 16.1 14.9 18.3-5.7-.8-11.5 1.2-14.9 3.7-.2.1-.2.3-.1.5m27.1-55.1c-2.8-9-12.5-14.1-21.5-11.3-4.4 1.4-8 4.3-10.2 8.4-2.2 4.1-2.6 8.7-1.2 13.1.5 1.7 12.1 38 50.4 55.7.3.2.7.3 1 .5.2-.2.4-.4.7-.6-.3-.1-.7-.3-1-.5-38.2-17.4-49.8-53.6-50.3-55.3-1.3-4.2-.9-8.6 1.2-12.5 2.1-3.9 5.5-6.7 9.7-8 8.6-2.7 17.8 2.2 20.5 10.8.4 1.1 9.4 25.7 34.9 36.2.3.1.6.3 1 .4.1-.3.1-.6.2-.8-.3-.1-.6-.3-1-.4-25.2-10.4-34-34.6-34.4-35.7M53.7 80c.1.1.2.1.2.1.1 0 .1 0 .2-.1 0 0 3.5-1.9 6-2 .2 0 .3-.1.4-.3.1-.1 0-.3-.1-.4l-3-3.6c-.2-.2-.4-.2-.6 0-.2.2-.2.4 0 .6l2.5 3c-1.8.3-3.7 1.1-4.8 1.6.5-3.7.2-8 .2-8.2 0-.2-.2-.4-.4-.4s-.4.2-.4.4c0 .1.3 5.1-.3 8.8-.1.3-.1.4.1.5M66 94c-8.6 1.6-15.4 6.8-19.3 14.3-.2.3-.3.6-.5.9.3.1.6.1.8.2.2-.3.3-.6.5-.9 3.8-7.1 10.3-12.2 18.6-13.7 8.5-1.5 16.6 1.2 22.9 7.3l.7.7c.2-.2.5-.3.7-.5-.2-.3-.5-.5-.7-.8-6.4-6.2-14.8-9.1-23.7-7.5m.8 4.4c-6.8 1.2-12.2 5.2-15.5 10.9-.2.3-.4.6-.5.9.3.1.6.1.9.2.2-.3.4-.6.5-.9 3.2-5.4 8.4-9.1 14.8-10.3 6.6-1.2 12.9.8 18 5.2.3.2.5.5.8.7.3-.1.5-.3.8-.4-.3-.3-.5-.5-.8-.7-5.4-4.8-12-6.9-19-5.6m.8 4.3c-4.8.9-8.7 3.5-11.5 7.2-.2.3-.5.6-.7 1 .3 0 .6 0 1 .1.2-.3.5-.7.7-1 2.6-3.4 6.3-5.7 10.6-6.5 4.6-.8 9 .2 12.7 2.9.3.2.6.5 1 .7.3-.1.6-.2.9-.4-.3-.3-.6-.5-.9-.7-4-3-8.8-4.2-13.8-3.3m.6-69.1c-.8-2.4-3.3-3.8-5.8-3.1-1.2.4-2.1 1.2-2.7 2.3-.6 1.1-.7 2.3-.3 3.5.4 1.5 11.1 34.7 46.9 49.3.3.1.6.3 1 .4.2-.2.3-.5.5-.7-.3-.1-.7-.3-1-.4-35.7-14.4-46.2-47.3-46.7-48.8-.3-1-.2-2 .3-2.9.5-.9 1.3-1.5 2.2-1.8 2-.6 4.1.5 4.7 2.5.1.3 10.2 31.5 43 44.4.3.1.6.2 1 .4.1-.3.2-.5.4-.8-.3-.1-.7-.2-1-.4-32.4-12.7-42.4-43.6-42.5-43.9m-2.9 56.1C55 91.6 46.9 98 42.5 107c.1 0 .2.1.3.1-.1 0-.2-.1-.4-.1-.1.3-.3.6-.4 1 .3.1.5.2.8.3.1-.3.3-.6.4-.9 4.3-8.7 12.1-14.9 22.1-16.7 10.3-1.9 20 1.5 27.4 9.1.2.2.5.5.7.8.2-.2.5-.3.7-.5-.2-.3-.5-.5-.7-.8-7.4-8-17.5-11.5-28.1-9.6m-1.1-54.8c-.1-.2-.3-.3-.5-.3-.2.1-.3.3-.3.5.4 1.4 10.6 33.2 45.1 46.9.3.1.6.3 1 .4.1-.2.3-.5.4-.7-.3-.1-.6-.2-1-.4-34.1-13.5-44.6-46.1-44.7-46.4M26.5 44c-1.2-7.4-1.9-17.2 3.3-27 2.5-4.8 6-8.9 10.1-12.1 1-.8 2.1-1.6 3.2-2.3-1.1.3-2.1.7-3.2 1.1-1 .7-1.9 1.5-2.8 2.3-3.2 3-6 6.5-8.1 10.5-5.3 10.1-4.6 20-3.4 27.5 2.9 18.1 3 40.2-1.9 51.6-.1.3-.3.7-.4 1l.6.6c.2-.3.3-.6.4-1 5.1-11.4 5.1-33.9 2.2-52.2m73.7-21.3c.6 1.3 4.5 10.4 13 17.4.4.4.9.7 1.4 1.1-.1-.5-.3-.9-.4-1.4l-1.5-1.2c-7.6-6.7-11.2-14.9-11.7-16.2-.9-2.6-2-5-3.3-7.3-.6-1.1-1.3-2.1-2-3.1-.9-.7-1.8-1.4-2.7-2 .9 1 1.7 2.1 2.4 3.1 2 2.9 3.6 6.1 4.8 9.6m-92 17.4c-.1-.9-.2-1.8-.2-2.8-.2.7-.5 1.4-.7 2.2.1 1 .2 1.9.3 2.9.1 1.6.4 3.1.6 4.6 1.6 9.8 2.1 19.8 1.6 28.5 0 .5-.1 1.1-.1 1.6 0 .3 0 .5-.1.7.2.5.5 1 .7 1.5.1-.7.1-1.3.2-2.1v-.1c.8-9.1.2-19.8-1.5-30.3-.3-2.1-.6-4.3-.8-6.7m13.9 4.6c-1.3-8.1-2.1-18.8 3.8-29.8.6-1.1 1.2-2.1 1.8-3.1.6-.9 1.1-1.7 1.7-2.5l-2.1 1.5c-.5.8-1 1.7-1.5 2.5-.2.4-.5.8-.7 1.2-5.9 11.2-5.2 22.1-3.8 30.3 3 18.7 2.5 37.6-.9 47.5-.1.4-.3.7-.4 1.1l.6.6c.1-.3.3-.7.4-1.1 3.6-9.9 4.2-29.2 1.1-48.2m-9.5-15.2c.1-.9.2-1.7.3-2.6-.4.6-.7 1.2-1.1 1.9-.1.9-.2 1.8-.2 2.6-.3 5.5.3 10.5 1 14.9C14.3 57 14.8 68 14.1 77.4c-.2 2.2-.4 4-.6 5.6-.1.6-.2 1.1-.3 1.6.2.4.4.7.7 1l.3-1.5c.3-1.9.6-4.1.8-6.7.7-9.4.2-20.6-1.6-31.3-.8-4.8-1.4-10.5-.8-16.6m34.3 65.9h.1c.2 0 .3-.1.4-.3 4.8-14.5 2.1-41.4 2.1-41.7 0-.2-.2-.4-.5-.4-.2 0-.4.2-.4.5s2.7 27-2 41.3c0 .3.1.6.3.6M30.8 43.3c-1.1-6.7-1.7-15.6 2.8-24.2 4.3-8 11.4-13.9 20.1-16.6C71.3-3 90.3 6.8 96.1 24.2c.7 1.7 6.2 14.5 18.6 22.4.4.2.8.5 1.2.7-.1-.4-.1-.7-.2-1.1-.4-.2-.8-.5-1.2-.8-11.8-7.8-17-20-17.6-21.6-2.9-8.7-9-15.5-16.5-19.6C73.2.3 64.7-1.1 56.4.7c-.9.2-1.9.4-2.8.7-8.9 2.7-16.2 8.8-20.6 17-4.7 8.9-4 17.9-2.9 24.8 3.7 22.9 2.5 44-2.7 55.2-.2.3-.3.6-.5.9.2.2.4.3.7.5.2-.3.3-.6.5-.9 5.2-11.1 6.5-32.5 2.7-55.6m53.6-14.9c-3.6-11.3-15.7-17.6-27-14.1-5.5 1.7-10.1 5.5-12.8 10.6-2.9 5.4-2.4 11.3-1.6 16.5 1.3 7.8 6.2 43.4-4.4 64.2-.2.3-.3.6-.5.9.3.1.5.2.8.3.2-.3.3-.6.5-.9 10.7-21.1 5.7-56.8 4.5-64.7-.8-5-1.3-10.7 1.5-15.9 2.6-4.9 7-8.5 12.3-10.2 10.8-3.4 22.5 2.7 25.9 13.6.4 1 8.9 23.3 31.4 33.1.3.1.7.3 1 .4 0-.3.1-.6.1-.9-.3-.1-.7-.3-1-.4-22-9.7-30.4-31.5-30.7-32.5M35.2 42.6c-1-6-1.6-13.9 2.4-21.5 3.7-7 9.9-12.1 17.5-14.5C70.4 1.9 86.9 10.4 92 25.7c.8 2 7.4 17.8 23.4 26.4.4.2.7.4 1.1.6 0-.3 0-.7-.1-1-.4-.2-.7-.4-1.1-.6-15.4-8.4-21.8-23.7-22.5-25.7C87.6 9.8 70.5 1 54.8 5.9c-7.8 2.4-14.2 7.7-18 14.9-4.1 7.7-3.5 15.8-2.5 22 3.4 20.7 3.2 45.1-3.5 58.5-.2.3-.3.6-.5.9.2.2.5.3.7.4.2-.3.3-.6.5-.9 6.9-13.6 7.1-38.2 3.7-59.1"/><path class="st0" d="M60.5 111.3l.2-.2c.3-.4.7-.7 1.1-1.1 1.9-1.6 4.1-2.7 6.6-3.1 2.7-.5 5.3-.2 7.8.9.5.2.9.4 1.3.7l.2.1-.3.1c-.2.1-.5.1-.8.2-.1 0-.3.1-.4.1-.5-.2-1-.5-1.5-.6-2-.7-4.1-.9-6.1-.5-1.9.3-3.7 1.1-5.2 2.2-.5.4-.9.7-1.3 1.1h-1.3l-.3.1zm10.3-4.4c-.8 0-1.6.1-2.4.2-2.4.4-4.6 1.5-6.5 3.1-.3.3-.6.6-.9.8h.8c.4-.3.8-.7 1.3-1 1.6-1.2 3.4-1.9 5.3-2.3 2.1-.4 4.3-.2 6.3.5l1.5.6c.1 0 .2-.1.4-.1s.3-.1.5-.1c-.3-.2-.7-.4-1.1-.5-1.6-.8-3.4-1.2-5.2-1.2zm-14.3 4.2h-.4c-.2 0-.4 0-.7-.1h-.2l.1-.2c.2-.3.4-.6.7-1 2.8-3.9 6.8-6.4 11.5-7.3 1.1-.2 2.2-.3 3.2-.3 3.8 0 7.5 1.3 10.7 3.7.3.2.6.5.9.7l.2.1-.2.1c-.2.1-.4.1-.5.2-.1 0-.2.1-.4.1h-.2c-.3-.3-.7-.5-1-.7-3-2.1-6.2-3.2-9.6-3.2-1 0-2 .1-3 .3-4.2.8-7.9 3-10.5 6.5-.1.4-.4.8-.6 1.1zm-.8-.3h.7c.2-.3.4-.6.7-.9 2.7-3.5 6.4-5.8 10.7-6.5 1-.2 2.1-.3 3.1-.3 3.5 0 6.8 1.1 9.8 3.2.3.2.6.4.9.7.1 0 .2-.1.3-.1.1 0 .2-.1.4-.1-.3-.2-.5-.4-.8-.6-3.2-2.4-6.7-3.6-10.5-3.6-1.1 0-2.1.1-3.2.3-4.6.8-8.6 3.3-11.4 7.2-.4.2-.6.5-.7.7zm-4-.2c-.3-.1-.5-.1-.8-.1l-.4-.1.1-.2c.1-.2.3-.5.4-.7l.1-.3c3.4-5.9 9-9.8 15.6-11 1.3-.2 2.6-.4 4-.4 5.5 0 10.7 2.1 15.1 6l.2.1c.2.2.4.4.7.6l.1.1-.2.1c-.2.1-.4.2-.7.3l-.2.1-.1-.1c-.3-.3-.6-.5-.8-.7-4.1-3.6-9-5.5-14.2-5.5-1.2 0-2.5.1-3.8.3-6.2 1.1-11.4 4.7-14.7 10.2 0 .6-.2.9-.4 1.3zm-.8-.4c.2 0 .4.1.6.1.1-.3.3-.6.5-.9 3.3-5.5 8.6-9.2 14.9-10.3 1.3-.2 2.5-.3 3.8-.3 5.2 0 10.1 1.9 14.3 5.6.2.2.5.4.7.7h.1c.2-.1.3-.2.5-.3l-.5-.5-.2-.1c-4.4-3.9-9.5-6-14.9-6-1.3 0-2.6.1-3.9.4-6.6 1.2-12 5-15.4 10.9l-.1.3c-.2 0-.3.2-.4.4zm-3.7-.6c-.4-.1-.7-.2-.9-.2h-.1l.1-.1c.2-.3.3-.6.5-.9 4-7.7 10.9-12.8 19.4-14.3 1.6-.3 3.2-.4 4.8-.4 7.1 0 13.7 2.8 19 8.1.2.2.5.5.7.8l.1.1-.1.1c-.1.1-.2.1-.3.2-.1.1-.3.2-.4.3l-.1.1-.1-.1c-.2-.3-.5-.5-.7-.7-5.1-5-11.4-7.7-18.1-7.7-1.5 0-3.1.1-4.6.4-8.1 1.5-14.6 6.3-18.5 13.6-.3 0-.5.3-.7.7zm-.7-.4c.2.1.4.1.6.2.1-.3.3-.6.4-.9 3.9-7.4 10.5-12.3 18.7-13.7 1.6-.3 3.1-.4 4.7-.4 6.8 0 13.1 2.7 18.3 7.8l.7.7c.1-.1.2-.1.3-.2.1 0 .1-.1.2-.1l-.6-.6c-5.3-5.3-11.8-8.1-18.9-8.1-1.6 0-3.2.1-4.8.4-8.4 1.5-15.2 6.6-19.2 14.2-.2.2-.3.4-.4.7zm-3.5-.8l-.4-.1c-.2-.1-.3-.1-.5-.2H42l.1-.1c.1-.3.3-.6.4-1v-.1c4.5-9.2 12.8-15.4 22.8-17.3 1.9-.3 3.8-.5 5.7-.5 8.5 0 16.4 3.5 22.6 10 .2.2.5.5.7.8l.1.1-.1.1c-.1.1-.3.2-.4.3l-.3.2-.1-.1c-.2-.3-.5-.5-.7-.8-6.1-6.3-13.6-9.6-21.8-9.6-1.8 0-3.7.2-5.5.5-9.6 1.7-17.7 7.8-22 16.7v.1c-.1.3-.2.6-.4.8l-.1.2zm-.8-.5c.1 0 .3.1.4.1l.2.1c.1-.3.2-.6.4-.8v-.1c4.4-8.9 12.5-14.9 22.1-16.7 1.8-.3 3.7-.5 5.5-.5 8.3 0 15.9 3.3 22 9.7.2.2.4.5.6.7l.2-.1c.1-.1.2-.2.3-.2-.2-.2-.4-.4-.6-.7-6.2-6.5-14-9.9-22.5-9.9-1.9 0-3.8.2-5.6.5-9.9 1.8-18.2 8-22.6 17.1h.2l-.1.2c-.1 0-.2-.1-.3-.1 0 .2-.1.4-.2.7zm-3.2-1h-.1c-.1-.1-.3-.1-.4-.2-.1 0-.2-.1-.3-.1l-.1-.1.1-.1c.2-.3.3-.6.5-.9 4.5-8.8 6.7-21.2 6.6-36.9-.1-12.4-1.6-23.1-2.2-27.2-.8-5.1-1.3-11.1 1.6-16.5 2.7-5.1 7.3-8.9 12.8-10.6 2.1-.6 4.2-1 6.4-1 4.5 0 9 1.5 12.7 4.1 3.8 2.7 6.6 6.6 8 11 .3.9 8.7 22.7 30.7 32.4.3.1.6.3.9.4l.1.1v.1c0 .2 0 .4-.1.6v.5l-.2-.1c-.3-.1-.7-.3-1-.4-22.6-9.8-31.1-32.2-31.5-33.2-2.8-8.6-10.7-14.4-19.7-14.4-2 0-4.1.3-6 .9-5.3 1.6-9.6 5.2-12.2 10.1-2.7 5.1-2.3 10.9-1.5 15.8 1.1 7.1 6.3 43.5-4.5 64.7-.2.3-.4.6-.6 1zm-.7-.6c.1 0 .1.1.2.1.1.1.2.1.3.2.1-.3.3-.5.4-.8 10.8-21.2 5.6-57.5 4.5-64.6-.8-5-1.3-10.8 1.5-16 2.6-4.9 7-8.6 12.3-10.2 2-.6 4-.9 6.1-.9 9.2 0 17.2 5.9 20 14.6.3.9 8.8 23.2 31.4 33 .3.1.6.2.8.4v-.2c0-.2 0-.3.1-.5-.3-.1-.6-.3-.9-.4-22-9.7-30.4-31.6-30.7-32.5-2.9-9-11.1-15-20.5-15-2.1 0-4.3.3-6.3 1-5.5 1.7-10 5.4-12.7 10.5-2.8 5.4-2.4 11.3-1.6 16.4 1.1 7 6.3 43.3-4.4 64.2-.2.2-.3.5-.5.7zM35 105l-.1-.1c-.1-.1-.2-.1-.3-.2-.1-.1-.3-.1-.4-.2l-.1-.1.1-.1c.2-.3.3-.6.5-.9 7.8-15.3 7.2-41.8 4-61.4-.9-5.5-1.5-12.7 2-19.3C43.9 16.6 49.4 12 56.1 10c2.5-.8 5.1-1.2 7.6-1.2 5.4 0 10.8 1.7 15.3 4.9 4.6 3.3 7.9 7.8 9.7 13.2.8 2 8.1 20.2 26.8 29.2l.1.1c.3.1.6.3.9.4h.1v1.2l-.2-.1c-.3-.1-.5-.2-.8-.4l-.3-.1C96 48.1 88.4 29.4 87.6 27.3c-1.7-5.1-4.9-9.5-9.3-12.7-4.3-3-9.5-4.7-14.7-4.7-2.5 0-4.9.4-7.3 1.1-6.4 2-11.7 6.3-14.8 12.2-3.4 6.3-2.8 13.3-1.9 18.6 3.2 19.8 3.8 46.5-4.1 62.1-.2.3-.3.6-.5.9v.2zm-.6-.6c.1.1.2.1.3.2.1 0 .1.1.2.1.1-.3.3-.5.4-.8 7.9-15.5 7.3-42.2 4.1-61.9-.9-5.4-1.4-12.4 2-18.8 3.2-6 8.5-10.4 15-12.4 2.4-.7 4.9-1.1 7.4-1.1 5.2 0 10.5 1.7 14.8 4.8 4.5 3.2 7.7 7.6 9.4 12.8.8 2.1 8.4 20.7 27.5 29.8l.3.1.6.3v-.6c-.3-.1-.6-.3-.8-.4l-.1-.1C96.6 47.3 89.2 29 88.4 27c-1.7-5.3-5-9.8-9.6-13.1C74.4 10.8 69 9 63.7 9c-2.6 0-5.1.4-7.6 1.1-6.6 2-12.1 6.5-15.3 12.7-3.5 6.6-2.9 13.7-2 19.2 3.2 19.7 3.8 46.2-4 61.6-.2.3-.3.5-.4.8zm-3.2-1.6l-.1-.1c-.2-.1-.5-.3-.7-.5l-.1-.1.1-.1c.2-.3.3-.6.5-.9 3.1-6.2 5-15.4 5.5-26.5.4-9.9-.3-21.2-2-32-1-6.2-1.6-14.3 2.5-22.1 3.6-7 10.1-12.4 17.9-14.8 2.9-.9 5.9-1.3 8.9-1.3 6.3 0 12.6 2 17.8 5.7 5.4 3.8 9.3 9.1 11.3 15.3.7 1.7 7.1 17.1 22.4 25.6.4.2.7.4 1.1.6h.1v1.3l-.2-.1c-.3-.1-.6-.3-.9-.5l-.2-.1C99 43.6 92.4 27.6 91.7 25.8c-2-6-5.8-11.1-10.9-14.8-5-3.6-11.1-5.5-17.2-5.5-2.9 0-5.8.4-8.6 1.3-7.5 2.3-13.7 7.4-17.4 14.4-4 7.5-3.4 15.4-2.4 21.4 1.8 10.9 2.5 22.3 2 32.3-.5 11.2-2.4 20.5-5.6 26.9-.2.3-.3.6-.5.9l.1.1zm-.6-.7c.2.1.3.2.5.3.1-.3.3-.5.4-.8 3.2-6.3 5.1-15.6 5.6-26.8.4-10-.3-21.4-2-32.2-1-6.1-1.6-14 2.4-21.5 3.7-7 10-12.2 17.6-14.5 2.8-.9 5.7-1.3 8.7-1.3 6.1 0 12.3 2 17.3 5.6 5.2 3.7 9 8.9 11 14.9.7 1.8 7.3 17.8 23.3 26.3l.2.1c.2.1.4.2.7.4v-.4-.3c-.3-.2-.7-.4-1-.5-15.4-8.5-21.9-24-22.6-25.7-2-6.2-5.9-11.4-11.2-15.2-5.2-3.7-11.4-5.7-17.7-5.7-3 0-6 .4-8.8 1.3-7.8 2.4-14.1 7.6-17.9 14.8-4.1 7.7-3.5 15.8-2.5 21.9 1.7 10.8 2.5 22.2 2 32C36 85.9 34.1 95 31 101.3c-.1.3-.3.6-.4.8zm-3.1-1.8l-.1-.1c-.1-.1-.3-.2-.4-.3-.1-.1-.2-.1-.3-.2l-.1-.1v-.1c.2-.3.3-.6.5-.9 5.3-11.4 6.4-32.5 2.7-55.1-1.1-6.9-1.8-15.9 2.9-24.8 4.4-8.3 11.7-14.3 20.7-17.1.9-.3 1.8-.5 2.8-.7 2.5-.6 5-.9 7.4-.9 5.8 0 11.6 1.5 16.8 4.3C88.3 8.5 94.2 15.5 97 23.9c.6 1.4 5.8 13.7 17.6 21.5.4.3.8.5 1.2.8v.1c.1.4.1.7.2 1.1v.3l-.2-.1c-.4-.2-.8-.5-1.2-.7-12.6-8-18.1-21-18.7-22.5-2.3-6.9-6.6-12.7-12.6-16.9-5.8-4.1-12.8-6.3-19.7-6.3-3.3 0-6.7.5-9.9 1.5-8.7 2.7-15.8 8.5-20 16.6-4.6 8.7-3.9 17.5-2.8 24.2 3.7 22.9 2.6 44.3-2.9 56-.2.3-.3.6-.5.9v-.1zm-.6-.7c.1 0 .1.1.2.1.1.1.2.1.3.2.1-.3.3-.5.4-.8 5.5-11.6 6.6-33 2.9-55.8-1.1-6.7-1.7-15.6 2.9-24.3C37.8 10.9 45 5 53.7 2.3c3.2-1 6.6-1.5 9.9-1.5 7 0 14.1 2.3 19.9 6.4 6 4.2 10.4 10.1 12.7 17 .6 1.4 6.1 14.4 18.6 22.3l.9.6c0-.3-.1-.5-.1-.8-.3-.2-.7-.5-1.1-.7-12-7.9-17.2-20.2-17.8-21.6C94 15.7 88.1 8.7 80.3 4.5 75.2 1.7 69.4.3 63.7.3c-2.4 0-4.9.3-7.3.8-1 .2-2 .5-2.8.7-8.9 2.7-16.2 8.8-20.5 17-4.7 8.9-4 17.9-2.9 24.7 3.7 22.7 2.6 43.9-2.8 55.3-.2.2-.3.5-.5.8zM24 97.5l-.1-.1c-.1-.1-.2-.2-.3-.2-.1-.1-.2-.2-.4-.3l-.1-.1v-.1c.2-.4.3-.7.4-1 3.5-8.4 5.6-28.1 1.8-51.5-1.2-7.6-1.9-17.5 3.4-27.6C31 12.6 33.8 9 37.1 6c.9-.8 1.8-1.6 2.8-2.4 1-.4 2.1-.8 3.1-1.2l1-.3-.9.5C42 3.4 41 4.1 39.9 5c-4.2 3.3-7.5 7.4-10 12.1-5.2 9.8-4.5 19.5-3.3 26.9 1.5 9.4 2.2 19.6 2 28.7-.3 10-1.7 18.2-4 23.7-.2.4-.3.7-.5 1l-.1.1zm-.5-.8c.1.1.2.2.3.2.1 0 .1.1.2.1.1-.2.2-.5.4-.8 3.7-8.5 5.9-28.5 2-52.2-1.2-7.4-1.9-17.2 3.3-27.1 2.5-4.8 5.9-8.9 10.1-12.2l2.4-1.8c-.7.3-1.5.5-2.2.8-1 .7-1.9 1.5-2.8 2.3-3.3 3-6 6.5-8.1 10.5-5.3 10-4.6 19.9-3.4 27.5 1.5 9.3 2.2 19.3 2 28.3-.2 9.9-1.6 18-3.8 23.3-.1.5-.3.8-.4 1.1zm75.2-.4c-.4-.2-.6-.3-.9-.4l-.1-.1c-38.3-17.7-50-54.2-50.4-55.7-1.4-4.4-.9-9.1 1.2-13.2 2.2-4.1 5.8-7.1 10.2-8.5 1.7-.5 3.4-.8 5.1-.8 7.6 0 14.3 4.9 16.6 12.2.4 1 9.2 25.2 34.2 35.5l.3.1c.2.1.5.2.7.3h.1v.1c0 .1 0 .2-.1.4 0 .2-.1.3-.1.5v.1l-.1-.1c-.3-.1-.6-.2-.9-.4h-.1C88.8 55.8 79.8 31.1 79.4 30c-2.1-6.8-8.4-11.4-15.5-11.4-1.6 0-3.2.2-4.8.7-4.2 1.3-7.6 4.1-9.6 7.9-2 3.8-2.4 8.2-1.2 12.4.5 1.5 12 37.8 50.1 55.2.3.2.7.3 1 .5l.2.1-.3.2c-.2.3-.4.5-.6.7zM63.8 17.9c-1.7 0-3.4.3-5 .8-4.4 1.3-8 4.3-10.1 8.3-2.1 4-2.6 8.7-1.2 13 .5 1.5 12.1 38 50.3 55.6l.1.1c.3.1.5.2.8.4.2-.1.3-.3.5-.4-.3-.1-.6-.3-.8-.4C60 77.8 48.4 41.4 48 39.9c-1.3-4.2-.9-8.7 1.2-12.6 2.1-3.9 5.5-6.8 9.7-8.1 1.6-.5 3.2-.7 4.8-.7 7.3 0 13.6 4.7 15.8 11.6.4 1 9.3 25.7 34.8 36.1h.1c.3.1.5.2.8.3 0-.1 0-.2.1-.3v-.3l-.6-.3-.3-.1c-25.1-10.4-34-34.7-34.3-35.7-2.3-7.1-8.8-11.9-16.3-11.9zM47.1 95.6h-.2c-.1 0-.2-.1-.3-.3-.1-.1-.1-.3 0-.4 4.7-14.1 2.2-40.2 2-41.3 0-.3.2-.6.5-.6h.1c.3 0 .5.2.5.5s2.7 27.2-2.1 41.7c-.1.2-.3.4-.5.4zm2-42.3c-.2 0-.3.2-.3.3.1 1.1 2.7 27.2-2.1 41.4v.2c0 .1.1.1.2.1s.3 0 .4-.2c4.8-14.5 2.1-41.3 2.1-41.6 0-.1-.1-.2-.3-.2zm-28.4 41l-.2-.2-.6-.6-.1-.1v-.1c.1-.3.3-.7.4-1.1C23.7 82 24 63 21.1 44.7 19.8 36.5 19 25.6 25 14.3c.2-.3.4-.7.5-1l.1-.2c.6-1 1.1-1.8 1.5-2.5.7-.5 1.3-1 2.1-1.5l.8-.3-.4.6c-.6.8-1.1 1.6-1.7 2.5C27.1 13 26.5 14 26 15c-5.8 11-5.1 21.6-3.7 29.7 3 18.6 2.6 38-1.1 48.4-.1.4-.3.7-.4 1.1l-.1.1zm-.6-.9c.1.2.3.3.4.4l.3-.9C24.5 82.7 25 63.3 22 44.7c-1.3-8.1-2.1-18.8 3.8-29.9.5-1 1.1-2 1.8-3.1.4-.7.9-1.3 1.3-1.9-.5.4-1 .7-1.4 1-.5.7-1 1.5-1.5 2.5l-.1.2c-.2.3-.4.6-.5 1-5.9 11.2-5.2 22-3.8 30.2 3 18.3 2.6 37.4-.9 47.6-.3.5-.4.8-.6 1.1zm81.8-.3c-.3-.1-.6-.3-.8-.4l-.2-.1C63 76.1 51.7 40.4 51.2 38.9c-1-3.4-.7-6.9.9-10 1.6-3.1 4.4-5.4 7.8-6.4 1.3-.4 2.6-.6 3.9-.6 5.8 0 10.9 3.7 12.6 9.3.1.3 9.5 27.3 37.2 38.4.2.1.4.1.6.2.1 0 .3.1.4.1h.1v.1c-.1.2-.1.5-.2.7l-.1.3h-.1c-.1 0-.3-.1-.4-.1-.2-.1-.4-.1-.6-.2-28.5-11.4-37.9-38.8-38-39.1-1.6-5.1-6.2-8.5-11.5-8.5-1.2 0-2.4.2-3.5.5-3.1.9-5.6 3-7.1 5.9-1.5 2.8-1.8 6.1-.9 9.2.4 1.3 11.7 36.7 49.2 53.1l.3.1c.2.1.5.2.7.3l.2.1-.1.1c-.1.1-.2.2-.2.3-.2.1-.4.2-.5.4zm-38.1-71c-1.3 0-2.6.2-3.8.6-3.3 1-6 3.2-7.6 6.3-1.6 3-1.9 6.5-.9 9.8.5 1.5 11.8 37.1 49.5 53.6l.2.1c.2.1.4.2.7.3l.3-.3.1-.1c-.2-.1-.4-.2-.6-.2l-.3-.1C63.8 75.6 52.5 40.1 52 38.6c-1-3.1-.7-6.5.9-9.4 1.5-2.9 4.1-5 7.3-6 1.2-.4 2.4-.5 3.6-.5 5.4 0 10.2 3.5 11.8 8.7.1.3 9.4 27.6 37.8 38.9.2.1.4.1.6.2.1 0 .2.1.3.1.1-.2.1-.4.2-.6-.1 0-.2-.1-.3-.1-.2-.1-.4-.1-.6-.2-28-11.1-37.4-38.2-37.5-38.5-1.7-5.5-6.6-9.1-12.3-9.1zM51.7 91.3c-.2 0-.4-.1-.5-.3-.2-.3-.1-.6.2-.8 4-2.6 8.5-4.3 13.3-5.2 3.4-.6 6.9-.8 10.3-.4.3 0 .5.3.5.6s-.3.5-.5.5h-.1c-3.3-.3-6.6-.2-10 .4-4.7.8-9 2.5-12.9 5-.1.2-.2.2-.3.2zm19.5-6.5c-2.2 0-4.4.2-6.5.6-4.8.9-9.2 2.6-13.2 5.1-.1 0-.1.1-.1.2v.2c.1.1.3.2.4.1 3.9-2.5 8.3-4.2 13-5 3.4-.6 6.8-.7 10.1-.4.2 0 .3-.1.3-.3 0-.2-.1-.3-.3-.3-1.2-.1-2.4-.2-3.7-.2zm-53.9 5.8l-.1-.2c-.2-.3-.4-.5-.6-.8v-.1l.3-1.2c2-8.2 3-23.7-.1-42.7-1-6.2-1.9-14.6.6-23.7.3-.9.5-1.8.8-2.6.6-.7 1.1-1.2 1.5-1.7l.4-.5-.2.6c-.3.8-.6 1.6-.9 2.6-3.1 9.6-2.2 18.5-1.1 25.2 1.8 11.3 2.4 22.9 1.6 32.8-.3 4.2-.9 7.9-1.7 10.9-.1.5-.2.9-.3 1.2l-.2.2zm-.5-1.1c.1.2.3.4.4.6.1-.3.2-.6.3-1 .8-3 1.3-6.7 1.7-10.9.8-9.9.2-21.5-1.6-32.8-1.1-6.7-1.9-15.6 1.2-25.3.2-.7.4-1.4.7-2-.3.4-.7.8-1.1 1.2-.3.8-.5 1.6-.8 2.5C15.2 31 16 39.3 17 45.5c3.1 19 2.1 34.6.1 42.8l-.3 1.2zm87.9.3l-.4-.2c-.2-.1-.5-.2-.7-.3-37-15.6-48-50.2-48.4-51.7-.7-2.3-.5-4.7.6-6.8 1.1-2.1 3-3.7 5.3-4.4.9-.3 1.7-.4 2.6-.4 3.9 0 7.4 2.5 8.6 6.3.1.3 9.8 29.3 40 41.2.2.1.4.1.6.2.1 0 .3.1.4.1h.1l-.1.3c-.1.2-.1.4-.2.6v.1h-.1c-.1 0-.3-.1-.4-.1-.2-.1-.4-.1-.6-.2-30.8-12-40.6-41.5-40.7-41.8-1-3.3-4.1-5.5-7.5-5.5-.8 0-1.6.1-2.3.4-2 .6-3.7 2-4.6 3.8-1 1.9-1.2 4-.6 6 .4 1.5 11.3 35.7 48 51.1.3.1.7.3 1 .4l.2.1-.1.1c-.1.1-.2.3-.3.4-.2 0-.3.1-.4.3zM63.8 26.3c-.9 0-1.7.1-2.6.4-2.2.7-4 2.2-5.1 4.2-1.1 2.1-1.3 4.4-.6 6.6.4 1.5 11.4 36 48.3 51.5.2.1.5.2.7.3l.2.1c0-.1.1-.1.2-.2s.2-.2.2-.3c-.3-.1-.6-.2-.8-.3C67.4 73.2 56.5 38.8 56 37.4c-.6-2.1-.4-4.3.6-6.2 1-1.9 2.7-3.3 4.8-4 .8-.2 1.6-.4 2.4-.4 3.6 0 6.7 2.3 7.8 5.7.1.3 9.9 29.7 40.5 41.7.2.1.4.1.6.2.1 0 .2.1.3.1.1-.2.1-.3.2-.5v-.1c-.1 0-.2-.1-.3-.1-.2-.1-.4-.1-.6-.2-30.3-11.9-40.1-41-40.2-41.3-1.2-3.5-4.5-6-8.3-6zm43.5 60c-.4-.2-.7-.3-1-.4h-.1c-35.9-14.7-46.5-48-47-49.4-.4-1.2-.3-2.5.3-3.6s1.6-1.9 2.8-2.3c.5-.1.9-.2 1.4-.2 2.1 0 3.9 1.4 4.5 3.3.1.3 10.2 31.1 42.5 43.8.2.1.4.1.6.2.1 0 .3.1.4.1h.1l-.1.1c-.1.3-.2.5-.4.8v.1h-.1c-.3-.1-.6-.2-1-.4-32.8-12.9-43-44.2-43.1-44.5-.5-1.5-1.9-2.6-3.5-2.6-.4 0-.7.1-1.1.2-.9.3-1.7.9-2.2 1.8-.5.9-.6 1.9-.3 2.8.4 1.4 10.9 34.4 46.5 48.8.3.1.6.3 1 .4l.1.1-.2.3c.1.1 0 .3-.1.6zM63.8 30.5c-.4 0-.9.1-1.3.2-1.1.4-2.1 1.1-2.7 2.2-.6 1.1-.7 2.3-.3 3.4.4 1.4 11 34.7 46.8 49.3h.1c.3.1.5.2.8.3.1-.1.2-.3.3-.4v-.1c-.3-.1-.6-.2-.8-.3C71 70.6 60.5 37.5 60 36.1c-.3-1-.2-2.1.3-3 .5-.9 1.3-1.6 2.3-1.9.4-.1.8-.2 1.1-.2 1.7 0 3.2 1.1 3.7 2.8.1.3 10.2 31.5 42.9 44.3l.9.3c.1-.2.2-.4.2-.6-.1 0-.2-.1-.3-.1-.2-.1-.4-.1-.6-.2C78.3 64.9 68.2 34 68.1 33.7c-.6-1.9-2.4-3.2-4.3-3.2zM14 86l-.3-.5c-.2-.3-.3-.5-.5-.8.1-.5.2-1 .3-1.6.3-1.8.5-3.6.6-5.6.7-9.4.2-20.4-1.6-31.1-.6-3.5-1.3-8.9-1-14.9 0-.9.1-1.7.2-2.6.3-.6.7-1.2 1.1-1.9l.3-.5-.1.4c-.1.9-.2 1.8-.3 2.6-.6 6.6.2 12.7.8 16.6 1.7 10.8 2.3 21.9 1.6 31.4-.2 2.4-.5 4.7-.8 6.7-.1.6-.2 1.1-.3 1.5v.3zm-.6-1.4c.2.2.3.5.5.7.1-.4.1-.8.2-1.2.3-2 .6-4.3.8-6.7.7-9.4.2-20.5-1.6-31.3-.6-4-1.4-10-.8-16.7.1-.6.1-1.3.2-2-.3.5-.5.9-.7 1.3-.1.9-.2 1.8-.2 2.6-.3 6 .4 11.4 1 14.9C14.4 56.9 15 68 14.2 77.4c-.2 2-.4 3.9-.6 5.6-.1.6-.2 1.1-.2 1.6zm40 .6c-.2 0-.3-.1-.4-.2-.1-.1-.1-.3-.1-.4s.1-.3.2-.4c2.6-1.9 7.1-3.9 12.4-3.9.8 0 1.5 0 2.2.1-2.6-2.3-8.5-8.3-14.6-18.1-.2-.3-.1-.6.2-.8.3-.2.6-.1.8.2 8 12.9 15.7 19.1 15.8 19.1.2.2.3.4.2.7-.1.2-.4.4-.6.3-1.3-.3-2.6-.4-3.9-.4-4.9 0-9.3 1.9-11.7 3.6-.2.2-.4.2-.5.2zm12.1-4.6c-5.2 0-9.7 2-12.2 3.8-.1 0-.1.1-.1.2s0 .2.1.2c.1.1.3.2.4.1 2.4-1.8 6.8-3.7 11.8-3.7 1.4 0 2.7.1 4 .4.1 0 .3 0 .3-.2.1-.1 0-.3-.1-.4-.1-.1-7.8-6.2-15.9-19.2-.1-.1-.3-.2-.4-.1-.1.1-.2.3-.1.4 6.3 10.1 12.5 16.2 14.8 18.3l.3.3-.4-.1c-.8.1-1.7 0-2.5 0zm44 2h-.1c-.3-.1-.6-.3-1-.4-34.6-13.8-44.8-45.7-45.2-47-.1-.3.1-.6.4-.7.3-.1.6.1.7.4.1.3 10.5 32.8 44.6 46.4.3.1.6.3 1 .4h.1l-.1.1-.3.6-.1.2zM63.8 34.7c-.1 0-.1 0 0 0-.2.1-.3.2-.3.4.4 1.3 10.6 33.1 45 46.8l.9.3v-.1c.1-.1.2-.3.2-.4-.3-.1-.6-.2-.8-.3C74.6 67.8 64.2 35.2 64 34.9c0-.1-.1-.2-.2-.2zm-9.9 45.5c-.1 0-.2 0-.3-.1-.2-.1-.3-.3-.2-.5.6-3.6.3-8.6.3-8.8 0-.3.2-.6.5-.6s.5.2.5.5c0 0 .3 4.3-.2 8 1-.5 2.7-1.2 4.4-1.5l-2.4-2.8c-.2-.2-.2-.6.1-.8.2-.2.6-.2.8.1l3 3.6c.1.2.2.4.1.6s-.3.3-.5.3c-2.5.1-5.9 2-5.9 2h-.2zm.3-9.7c-.2 0-.3.2-.3.3 0 .2.3 5.2-.3 8.8 0 .1 0 .2.1.3.1.1.2.1.3 0 0 0 3.5-1.9 6-2 .1 0 .2-.1.3-.2s0-.2 0-.3l-3-3.6c-.1-.1-.3-.1-.4 0-.1.1-.1.3 0 .4l2.7 3.1h-.2c-1.8.3-3.7 1.1-4.7 1.6l-.2.1v-.2c.5-3.7.2-8.1.2-8.2-.2 0-.3-.1-.5-.1zm-43.8 9.3l-.2-.4c-.2-.5-.5-1-.7-1.5v-.3-.4c0-.3 0-.7.1-1v-.6c.5-8.7 0-18.8-1.6-28.5-.3-1.6-.5-3.1-.6-4.6-.1-1-.2-2-.3-2.9.2-.7.4-1.4.7-2.2l.2-.6v.6c0 .9.1 1.9.2 2.8.2 2.1.5 4.3.8 6.7 1.7 10.4 2.2 21.2 1.5 30.3v.1c-.1.7-.1 1.4-.2 2.1l.1.4zm-.6-2.1c.2.4.3.7.5 1.1.1-.5.1-1.1.1-1.6v-.1c.7-9.1.2-19.8-1.5-30.3-.4-2.4-.7-4.6-.9-6.7 0-.7-.1-1.4-.1-2.1-.2.5-.3 1-.5 1.5.1.9.2 1.9.3 2.9l.6 4.5c1.6 9.7 2.1 19.8 1.6 28.5v.6c0 .3 0 .7-.1 1v.7zm-3.2-8.5l-.3-1.1c-.4-1.8-.8-3.7-1-5.6-.2-1.9-.4-3.8-.4-5.7v-.5-.9c0-1.4.1-2.9.2-4.6l.1-1.1.2 1.1c.8 5.8 1.2 11.6 1.3 17.2l-.1 1.2zM5.2 52.1c-.1 1.2-.1 2.3-.1 3.3v1.4c0 1.9.2 3.8.4 5.7.2 1.5.4 2.9.7 4.4 0-4.9-.4-9.8-1-14.8zm109.6-10.6l-.3-.2c-.5-.4-1-.7-1.4-1.1-8.6-7.1-12.6-16.4-13-17.4-1.1-3.4-2.8-6.6-4.8-9.5-.8-1.1-1.6-2.2-2.4-3.1l-.7-.8.8.5c1 .7 1.9 1.4 2.7 2.1.7 1 1.4 2 2 3.1 1.4 2.3 2.5 4.8 3.3 7.3.4.9 4 9.3 11.7 16.1.5.4 1 .8 1.4 1.2v.1c.1.4.2.8.4 1.3l.3.4zM93.7 10.7l1.8 2.4c2.1 3 3.7 6.2 4.8 9.6.4 1 4.4 10.3 12.9 17.3.3.3.7.6 1.1.9l-.3-.9v-.1c-.5-.4-1-.8-1.4-1.2-7.5-6.7-11.1-14.7-11.8-16.2-.8-2.5-2-4.9-3.3-7.2-.6-1.1-1.3-2.1-2-3.1-.5-.5-1.2-1-1.8-1.5zm18 22l-.6-.7c-4.3-5-6.5-9.8-6.9-10.8 0-.1-.1-.2-.1-.3 0-.1-.1-.2-.1-.2l-.3-.7.5.6c1 1.2 1.9 2.4 2.7 3.6.7 1 1.4 2.1 2.1 3.3.8 1.4 1.6 2.9 2.3 4.4l.4.8zm-7.2-11.4c.5 1.2 2.5 5.3 6.1 9.8-.6-1.2-1.2-2.3-1.8-3.4-.7-1.3-1.4-2.3-2.1-3.3-.6-1.1-1.4-2.1-2.2-3.1z"/><path class="st1" d="M84.5 87.1c0 .5-.4.8-.8.8s-.8-.3-.8-.8.4-.8.8-.8.8.3.8.8zm-.2 0c0-.4-.3-.6-.6-.6s-.6.3-.6.6c0 .4.3.6.6.6.4 0 .6-.3.6-.6zm-.4.1l.2.2h-.2l-.2-.2h-.1v.2h-.2v-.7h.4c.2 0 .3.1.3.2s-.1.2-.2.3zm-.1-.2c.1 0 .1 0 .1-.1s0-.1-.1-.1h-.2v.2h.2z"/><text transform="translate(84.607 91.345)" class="st1 st2 st3"></text><g><path class="st1" d="M23 34c0-6.6-5.2-11-11.4-11C5.2 23 0 27.4 0 34s5.2 11 11.6 11C17.8 45 23 40.6 23 34zm-11.4 5.4c-2.7 0-5.2-2.1-5.2-5.4 0-3.2 2.5-5.4 5.2-5.4 2.6 0 5 2.2 5 5.4 0 3.3-2.5 5.4-5 5.4zM30.6 34.7c0-4 1.7-5.8 4.3-5.8 2.1 0 3.6 1.7 3.6 4.1v11.4h6.6V31.6c0-5.2-3.2-8.7-8.1-8.7-2.6 0-4.8 1-6.4 2.6v-2H24v20.9h6.7v-9.7zM57.7 45.1c4.8 0 8.6-2.1 10.4-6.5l-5.9-1.2c-1.1 2-2.9 2.4-4.4 2.4-2.2 0-3.9-1.5-4.5-4h15.3V34c-.1-6.8-4.9-11.1-10.8-11.1-6.1 0-11.1 4.5-11.1 11.1s5 11.1 11 11.1zm0-16.8c1.9 0 3.6 1 4.2 3.3h-8.6c.7-2.1 2.6-3.3 4.4-3.3zM82.3 44.9c6 0 10.9-4.5 10.9-10.8 0-6.3-4.8-10.7-10.9-10.7-6.1 0-10.9 4.4-10.9 10.7 0 6.3 4.8 10.8 10.9 10.8zm0-18.6c4.2 0 7.7 3.2 7.7 7.9s-3.5 8-7.7 8-7.8-3.2-7.8-8c0-4.7 3.5-7.9 7.8-7.9zM101.5 44.4V26.6h7.4v-2.7h-7.4v-3c0-2.6 1.6-4.2 4.1-4.2.7 0 1.6.2 2.3.5l.8-2.6c-1-.5-2.1-.7-3.3-.7-4.3 0-7 2.8-7 7.1v3h-3.6v2.7h3.6v17.8h3.1zM36.1 77.2h3.2V56.7h-3.2V60c-1.8-2.4-4.7-3.8-8.1-3.8-5.4 0-10.2 4.3-10.2 10.8 0 6.5 4.8 10.8 10.2 10.8 3.4 0 6.3-1.4 8.1-3.8v3.2zm-7.7-2.3c-4.2 0-7.6-3.1-7.6-7.9 0-4.9 3.4-8 7.6-8 3.9 0 7.7 3.1 7.7 8s-3.8 7.9-7.7 7.9zM43.7 47.3v29.9h6.6v-7.5h1.3l6.7 7.5h8.6L56.8 66.3l9.1-9.9h-8l-6.6 7.1h-1V47.3zM67 56.4h6.7v20.9H67zM66.5 50.2c0 2.1 1.6 3.7 3.8 3.7s3.9-1.6 3.9-3.7c0-2-1.6-3.8-3.9-3.8s-3.8 1.8-3.8 3.8zM90.9 65.8v11.4h6.6V64.4c0-5.2-3.2-8.7-8.1-8.7-2.6 0-4.8 1-6.4 2.6v-2h-6.7v20.9H83v-9.7c0-4 1.7-5.8 4.3-5.8 2.2 0 3.6 1.7 3.6 4.1zM99.1 66.8c0 6.6 4.7 11.1 10.2 11.1 2.7 0 4.9-.8 6.5-2.3v1.7h6.7v-30h-6.7V58c-1.6-1.5-3.8-2.3-6.5-2.3-5.6 0-10.2 4.5-10.2 11.1zm11.5-5.4c2.7 0 5.1 2.2 5.1 5.4s-2.4 5.4-5.1 5.4c-2.9 0-5-2.2-5-5.4s2.1-5.4 5-5.4zM39.4 87.7l-1.3-.3c-.4-.1-.5-.3-.5-.5 0-.4.3-.6.8-.6s1 .3 1.1.9l1.5-.3c-.2-1.1-1.2-1.8-2.5-1.8-1.4 0-2.4.7-2.4 1.9 0 1.1.8 1.6 1.7 1.8l1.2.2c.4.1.6.3.6.5 0 .4-.3.6-.9.6-.6 0-1.1-.3-1.2-.9l-1.6.3c.2 1.2 1.3 1.9 2.7 1.9 1.4 0 2.5-.7 2.5-2 0-.9-.6-1.5-1.7-1.7zM44.8 86.6c-.6 0-1.1.2-1.4.6v-2.4h-1.5v6.6h1.5v-2.1c0-.9.4-1.3.9-1.3s.8.4.8.9v2.5h1.5v-2.8c-.1-1.2-.8-2-1.8-2zM49.6 86.6c-1.4 0-2.6 1-2.6 2.4 0 1.5 1.2 2.4 2.6 2.4 1.4 0 2.5-1 2.5-2.4s-1.1-2.4-2.5-2.4zm0 3.6c-.6 0-1.1-.5-1.1-1.2s.5-1.2 1.1-1.2c.6 0 1.1.5 1.1 1.2 0 .8-.5 1.2-1.1 1.2zM57 89.2l-.8-2.5h-1.1l-.8 2.5-.8-2.5h-1.4l1.4 4.7h1.3l.9-2.5.8 2.5h1.3l1.4-4.7h-1.4zM62.2 86.3H61v1.6h-1.6v1.3H61v1.6h1.2v-1.6h1.6v-1.3h-1.6zM67.8 87.7l-1.3-.3c-.4-.1-.5-.3-.5-.5 0-.4.3-.6.8-.6s1 .3 1.1.9l1.5-.3c-.2-1.1-1.2-1.8-2.5-1.8-1.4 0-2.4.7-2.4 1.9 0 1.1.8 1.6 1.7 1.8l1.3.3c.4.1.6.3.6.5 0 .4-.3.6-.9.6-.6 0-1.1-.3-1.2-.9l-1.6.3c.2 1.2 1.3 1.9 2.7 1.9 1.4 0 2.5-.7 2.5-2-.1-1-.7-1.6-1.8-1.8zM73.7 87.1c-.4-.3-.8-.5-1.4-.5-1.2 0-2.3 1-2.3 2.4 0 1.5 1 2.4 2.3 2.4.6 0 1.1-.2 1.4-.5v.4h1.5v-4.6h-1.5v.4zm-1.2 3.1c-.6 0-1.1-.5-1.1-1.2s.5-1.2 1.1-1.2c.6 0 1.1.5 1.1 1.2.1.8-.5 1.2-1.1 1.2zM76 84.7h1.5v6.6H76zM80.5 86.6c-1.3 0-2.4 1-2.4 2.4 0 1.5 1.1 2.4 2.4 2.4 1.1 0 1.9-.5 2.3-1.4l-1.3-.3c-.2.5-.6.5-1 .5-.5 0-.9-.3-1-.9h3.4V89c-.1-1.5-1.1-2.4-2.4-2.4zm-1 1.9c.1-.5.6-.7 1-.7s.8.2.9.7h-1.9zM89.7 90.1c-1 0-1.8-.8-1.8-1.8s.8-1.8 1.8-1.8c.8 0 1.4.4 1.6 1.3l1.5-.3c-.3-1.5-1.6-2.4-3.1-2.4-1.8 0-3.3 1.4-3.3 3.2 0 1.8 1.4 3.2 3.3 3.2 1.6 0 2.8-.9 3.1-2.4l-1.5-.3c-.2.9-.8 1.3-1.6 1.3zM96.4 86.6c-.6 0-1.1.2-1.4.6v-2.4h-1.5v6.6H95v-2.1c0-.9.4-1.3.9-1.3s.8.4.8.9v2.5h1.5v-2.8c0-1.2-.8-2-1.8-2zM99.7 84.5c-.5 0-.8.4-.8.8 0 .5.3.8.8.8s.9-.3.9-.8c0-.4-.4-.8-.9-.8zM99 86.7h1.5v4.6H99zM103.6 87.9c.5 0 .8.3 1 .8l1.4-.3c-.3-1.1-1.2-1.8-2.4-1.8-1.4 0-2.5 1-2.5 2.4 0 1.5 1.1 2.4 2.5 2.4 1.2 0 2.1-.7 2.4-1.8l-1.4-.3c-.2.6-.5.8-1 .8-.7 0-1.1-.5-1.1-1.2-.1-.5.4-1 1.1-1zM109.9 87.1c-.4-.3-.8-.5-1.4-.5-1.2 0-2.3 1-2.3 2.4 0 1.5 1 2.4 2.3 2.4.6 0 1.1-.2 1.4-.5v.4h1.5v-4.6h-1.5v.4zm-1.2 3.1c-.6 0-1.1-.5-1.1-1.2s.5-1.2 1.1-1.2c.6 0 1.1.5 1.1 1.2.1.8-.5 1.2-1.1 1.2zM115.5 87c-.3-.3-.8-.4-1.4-.4-1.2 0-2.2.9-2.2 2.2 0 1.3 1 2.3 2.2 2.3.6 0 1.1-.2 1.4-.4v.1c0 .7-.5 1.1-1.2 1.1-.5 0-.7-.2-1.1-.6l-1.2.7c.5.7 1.3 1.1 2.3 1.1 1.5 0 2.6-.8 2.6-2.2v-4.2h-1.4v.3zm-1.1 2.9c-.6 0-1.1-.4-1.1-1.1s.5-1 1.1-1c.6 0 1.1.4 1.1 1s-.5 1.1-1.1 1.1zM120.1 86.6c-1.4 0-2.6 1-2.6 2.4 0 1.5 1.2 2.4 2.6 2.4 1.4 0 2.5-1 2.5-2.4s-1.2-2.4-2.5-2.4zm0 3.6c-.6 0-1.1-.5-1.1-1.2s.5-1.2 1.1-1.2c.6 0 1.1.5 1.1 1.2 0 .8-.6 1.2-1.1 1.2z"/></g></svg>