<?xml version="1.0" encoding="utf-8"?>
<!-- Generator: Adobe Illustrator 16.0.0, SVG Export Plug-In . SVG Version: 6.00 Build 0)  -->
<!DOCTYPE svg PUBLIC "-//W3C//DTD SVG 1.1//EN" "http://www.w3.org/Graphics/SVG/1.1/DTD/svg11.dtd">
<svg version="1.1" id="Layer_1" xmlns="http://www.w3.org/2000/svg" xmlns:xlink="http://www.w3.org/1999/xlink" x="0px" y="0px"
	 width="1190.55px" height="841.89px" viewBox="0 0 1190.55 841.89" enable-background="new 0 0 1190.55 841.89"
	 xml:space="preserve">
<g>
	<g>
		<path fill="#D9CEAE" d="M42.845,127.058h50.488v53.295h46.174v-53.295h50.488v151.033h-50.488v-54.157H93.333v54.157H42.845
			V127.058z"/>
		<path fill="#D9CEAE" d="M203.765,203.006v-0.433c0-43.798,36.041-78.754,82.639-78.754c46.605,0,82.208,34.523,82.208,78.323
			v0.431c0,43.8-36.037,78.753-82.639,78.753C239.368,281.326,203.765,246.805,203.765,203.006z M317.69,203.006v-0.433
			c0-17.909-12.3-34.088-31.717-34.088c-19.198,0-31.289,15.966-31.289,33.657v0.431c0,17.908,12.303,34.092,31.72,34.092
			C305.603,236.665,317.69,220.698,317.69,203.006z"/>
		<path fill="#D9CEAE" d="M381.093,210.341v-83.283h51.354v82.636c0,18.772,9.706,26.753,23.303,26.753
			c13.584,0,23.3-7.334,23.3-25.673v-83.716h51.354v82.207c0,51.566-29.992,71.849-75.091,71.849
			C410.219,281.113,381.093,260.399,381.093,210.341z"/>
		<path fill="#D9CEAE" d="M533.824,255.437l26.969-32.15c16.398,12.514,35.168,17.693,52.86,17.693c9.062,0,12.95-2.374,12.95-6.474
			v-0.43c0-4.317-4.752-6.691-20.934-9.927c-33.877-6.903-63.65-16.614-63.65-48.547v-0.431c0-28.695,22.443-50.919,64.082-50.919
			c29.126,0,50.706,6.905,68.186,20.714l-24.604,34.088c-14.234-10.357-31.279-14.887-45.308-14.887
			c-7.552,0-11.003,2.588-11.003,6.258v0.43c0,4.099,4.098,6.69,20.067,9.708c38.619,7.122,64.507,18.342,64.507,48.765v0.43
			c0,31.718-26.104,51.136-66.667,51.136C580.639,280.896,553.022,272.264,533.824,255.437z"/>
		<path fill="#D9CEAE" d="M722.805,169.779h-44.448v-42.722h139.388v42.722h-44.449v108.312h-50.49V169.779z"/>
		<path fill="#D9CEAE" d="M819.225,203.006v-0.433c0-43.798,36.037-78.754,82.64-78.754s82.205,34.523,82.205,78.323v0.431
			c0,43.8-36.037,78.753-82.64,78.753S819.225,246.805,819.225,203.006z M933.15,203.006v-0.433c0-17.909-12.3-34.088-31.721-34.088
			c-19.198,0-31.286,15.966-31.286,33.657v0.431c0,17.908,12.3,34.092,31.721,34.092C921.062,236.665,933.15,220.698,933.15,203.006
			z"/>
		<path fill="#D9CEAE" d="M997.844,127.058h47.252l53.727,66.67v-66.67h50.053v151.033h-44.877l-56.095-69.691v69.691h-50.06
			V127.058z"/>
	</g>
	<g>
		<path fill="#D9CEAE" d="M365.036,320.132l10.526,37.876h0.669l10.057-37.876h-7.938v-9.088h25.604v9.274h-7.446l-16.395,54.699
			h-17.692l-9.953-33.152l-12.278,33.152h-17.502l-15.931-54.699h-7.735v-9.274h34.125v9.088h-6.577l10.14,38.166h0.666
			l11.022-29.188l-2.711-8.978h-6.47v-9.088h32.753v9.088H365.036z"/>
		<path fill="#D9CEAE" d="M408.448,365.345h7.835v-45.026h-7.835v-9.274h62.347v23.483h-9.953
			c-2.041-12.476-3.683-14.504-12.098-14.504h-14.196v18.079h4.642c4.629,0,5.028-1.067,6.071-8.511h8.618v25.987h-8.618
			c-0.856-7.34-1.535-8.499-6.071-8.499h-4.642v18.559h13.807c10.343,0,11.595-3.67,13.343-17.2h9.954v26.19h-63.203V365.345z"/>
		<path fill="#D9CEAE" d="M503.629,365.345h7.835v-45.026h-7.835v-9.274h34.501v9.274h-8.401v16.716h23v-16.716h-8.405v-9.274
			h34.486v9.274h-7.829v45.026h7.829v9.283h-34.486v-9.283h8.405v-19.043h-23v19.043h8.401v9.283h-34.501V365.345z"/>
		<path fill="#D9CEAE" d="M625.229,355.204H604.07l-3.377,10.141h8.006v9.283h-25.418v-9.283h7.047l19.729-54.693h18.451l20,54.693
			h7.072v9.283H620.57v-9.283h8.032L625.229,355.204z M606.871,346.699h15.461l-7.549-22.806h-0.377L606.871,346.699z"/>
		<path fill="#D9CEAE" d="M658.504,320.318h-7.072v-9.274h34.981v9.274h-8.019l13.717,39.129h0.599l13.623-39.129h-8.032v-9.274
			h25.415v9.274h-7.057l-20.492,54.699h-16.903L658.504,320.318z"/>
		<path fill="#D9CEAE" d="M728.187,365.345h7.819v-45.026h-7.819v-9.274h62.321v23.483h-9.953
			c-2.028-12.476-3.683-14.504-12.088-14.504h-14.184v18.079h4.63c4.642,0,5.015-1.067,6.097-8.511h8.578v25.987h-8.578
			c-0.895-7.34-1.562-8.499-6.097-8.499h-4.63v18.559h13.823c10.327,0,11.579-3.67,13.313-17.2h9.967v26.19h-63.2V365.345z"/>
		<path fill="#D9CEAE" d="M863.02,355.204h-21.188l-3.36,10.141h7.989v9.283h-25.389v-9.283h7.044l19.72-54.693h18.465
			l19.999,54.693h7.044v9.283h-34.981v-9.283h8.019L863.02,355.204z M844.662,346.699h15.448l-7.552-22.806h-0.387L844.662,346.699z
			"/>
	</g>
	<rect x="42.845" y="310.671" fill="#D9CEAE" width="202.823" height="63.893"/>
	<rect x="946.706" y="310.671" fill="#D9CEAE" width="202.822" height="63.893"/>
	<g>
		<path fill="#ED1C24" d="M110.809,407.578H42.845v151.035h50.488v-40.992h16.395c40.779,0,68.617-19.42,68.617-55.889v-0.428
			C178.344,425.489,150.94,407.578,110.809,407.578z M128.497,464.974c0,10.787-8.63,16.61-21.571,16.61H93.333v-33.661h13.806
			c13.375,0,21.358,5.617,21.358,16.616V464.974z"/>
		<path fill="#ED1C24" d="M336.464,461.092v-0.435c0-15.535-4.748-26.757-13.81-35.815c-10.571-10.574-27.616-17.264-54.373-17.264
			h-73.787v151.035h50.488v-43.155h10.784l28.485,43.155h57.611l-35.178-51.354C325.03,498.417,336.464,483.091,336.464,461.092z
			 M286.192,464.762c0,9.271-7.339,14.669-19.417,14.669h-21.793V449.87h22.005c11.653,0,19.205,4.751,19.205,14.457V464.762z"/>
		<path fill="#ED1C24" d="M433.312,404.343c-46.603,0-82.64,34.956-82.64,78.748v0.44c0,43.796,35.603,78.316,82.208,78.316
			c46.599,0,82.64-34.955,82.64-78.757v-0.425C515.521,438.864,479.918,404.343,433.312,404.343z M461.244,522.492l-28.151-20.119
			l-28.125,20.119l10.42-32.97l-27.832-20.554l34.595-0.28l10.941-32.806l10.951,32.806l34.585,0.28l-27.819,20.554L461.244,522.492
			z"/>
		<path fill="#ED1C24" d="M644.514,479.643c16.183-5.61,26.97-16.616,26.97-34.521v-0.429c0-10.358-3.889-18.129-9.277-23.521
			c-8.846-8.846-22.009-13.594-42.936-13.594H534.69v151.035h83.714c38.191,0,58.043-17.692,58.043-41.861v-0.425
			C676.447,495.606,663.932,485.254,644.514,479.643z M583.883,445.77h21.792c10.787,0,16.183,3.669,16.183,10.358v0.429
			c0,6.688-5.183,10.358-15.97,10.358h-22.005V445.77z M625.74,509.416c0,6.477-5.607,11.006-16.616,11.006h-25.241v-22.439h25.462
			c11,0,16.395,4.535,16.395,11.006V509.416z"/>
		<polygon fill="#ED1C24" points="743.297,407.578 692.81,407.578 692.81,558.613 814.28,558.613 814.28,515.458 743.297,515.458 		
			"/>
		<polygon fill="#ED1C24" points="880.284,500.789 954.071,500.789 954.071,464.327 880.284,464.327 880.284,449.004 
			959.466,449.004 959.466,407.578 830.659,407.578 830.659,558.613 960.548,558.613 960.548,517.188 880.284,517.188 		"/>
		<polygon fill="#ED1C24" points="1096.881,407.578 1064.514,460.657 1032.152,407.578 979.508,407.578 979.508,558.613 
			1028.91,558.613 1028.91,483.748 1063.654,537.474 1064.514,537.474 1099.257,483.748 1099.257,558.613 1149.528,558.613 
			1149.528,407.578 		"/>
	</g>
</g>
<g>
	<path fill="#D9CEAD" d="M51.266,57.575l-4.094-15.678v15.678h-4.327V25.008h4.327V40.64l4.419-15.632h4.466l-4.792,16.051
		l4.652,16.516H51.266z"/>
	<path fill="#D9CEAD" d="M71.742,25.008v3.908h-5.303v10.142h5.07v3.908h-5.07v10.701h5.35v3.908h-9.677V25.008H71.742z"/>
	<path fill="#D9CEAD" d="M86.915,57.575L82.402,35.15l0.139,6.653v15.771H78.68V25.008h5.024l4.141,20.563l-0.093-5.862
		l-0.047-14.702h3.908v32.566H86.915z"/>
	<path fill="#D9CEAD" d="M107.115,57.575l-4.513-22.424l0.14,6.653v15.771H98.88V25.008h5.024l4.141,20.563l-0.093-5.862
		l-0.046-14.702h3.908v32.566H107.115z"/>
	<path fill="#D9CEAD" d="M128.708,25.008v3.908h-5.304v10.142h5.071v3.908h-5.071v10.701h5.35v3.908h-9.677V25.008H128.708z"/>
	<path fill="#D9CEAD" d="M135.646,25.008h6.513c4.233,0,6.141,1.954,6.141,6.188v20.191c0,4.187-2,6.188-6.141,6.188h-6.513V25.008z
		 M139.973,53.76h1.582c1.675,0,2.466-0.791,2.466-2.466V31.289c0-1.675-0.791-2.466-2.466-2.466h-1.582V53.76z"/>
	<path fill="#D9CEAD" d="M162.918,45.851v11.724h-4.327V46.363l-4.652-21.354h4.466l2.419,14.19l2.559-14.19h4.187L162.918,45.851z"
		/>
	<path fill="#D9CEAD" d="M223.606,37.353l-4.959,4.838l1.176,6.833c0.012,0.096,0.012,0.18,0.012,0.273
		c0,0.356-0.165,0.685-0.558,0.685c-0.192,0-0.385-0.068-0.549-0.164l-6.135-3.226l-6.135,3.226
		c-0.18,0.096-0.357,0.164-0.549,0.164c-0.394,0-0.573-0.329-0.573-0.685c0-0.093,0.016-0.177,0.027-0.273l1.176-6.833l-4.975-4.838
		c-0.165-0.177-0.341-0.409-0.341-0.654c0-0.41,0.425-0.574,0.766-0.63l6.86-0.999l3.074-6.215c0.124-0.261,0.357-0.562,0.67-0.562
		s0.546,0.301,0.67,0.562l3.074,6.215l6.86,0.999c0.329,0.056,0.767,0.22,0.767,0.63C223.963,36.943,223.786,37.176,223.606,37.353z
		"/>
	<path fill="#D9CEAD" d="M263.678,52.317c0,3.489-1.768,5.257-5.257,5.257h-2.512v-3.908h1.768c1.116,0,1.675-0.559,1.675-1.675
		V25.008h4.326V52.317z"/>
	<path fill="#D9CEAD" d="M278.382,57.854h-2.326c-3.536,0-5.257-1.768-5.257-5.257v-22.61c0-3.536,1.722-5.257,5.257-5.257h2.326
		c3.489,0,5.21,1.721,5.21,5.257v22.61C283.593,56.086,281.872,57.854,278.382,57.854z M277.638,28.544h-0.884
		c-1.116,0-1.628,0.512-1.628,1.628v22.238c0,1.117,0.512,1.628,1.628,1.628h0.884c1.117,0,1.675-0.512,1.675-1.628V30.172
		C279.312,29.056,278.755,28.544,277.638,28.544z"/>
	<path fill="#D9CEAD" d="M299.28,39.059v-14.05h4.327v32.566h-4.327V43.013h-4.14v14.562h-4.327V25.008h4.327v14.05H299.28z"/>
	<path fill="#D9CEAD" d="M319.105,57.575l-4.513-22.424l0.14,6.653v15.771h-3.861V25.008h5.024l4.141,20.563l-0.093-5.862
		l-0.047-14.702h3.908v32.566H319.105z"/>
	<path fill="#D9CEAD" d="M343.307,46.177v6.42c0,3.489-1.768,5.257-5.257,5.257h-1.907c-3.489,0-5.211-1.768-5.211-5.211v-7.909
		h4.234v7.723c0,1.07,0.512,1.628,1.628,1.628h0.558c1.117,0,1.628-0.558,1.628-1.628v-5.676c0-1.349-0.372-1.954-1.256-2.652
		l-4.28-3.21c-1.954-1.489-2.513-2.838-2.513-5.21v-5.723c0-3.489,1.722-5.257,5.257-5.257h1.814c3.489,0,5.21,1.768,5.21,5.21
		v7.118h-4.233v-6.932c0-1.117-0.512-1.628-1.628-1.628h-0.512c-1.117,0-1.628,0.512-1.628,1.628v4.978
		c0,1.349,0.372,1.954,1.303,2.652l4.188,3.164C342.702,42.408,343.307,43.711,343.307,46.177z"/>
	<path fill="#D9CEAD" d="M357.782,57.854h-2.326c-3.536,0-5.257-1.768-5.257-5.257v-22.61c0-3.536,1.721-5.257,5.257-5.257h2.326
		c3.489,0,5.21,1.721,5.21,5.257v22.61C362.993,56.086,361.271,57.854,357.782,57.854z M357.038,28.544h-0.884
		c-1.117,0-1.628,0.512-1.628,1.628v22.238c0,1.117,0.512,1.628,1.628,1.628h0.884c1.117,0,1.675-0.512,1.675-1.628V30.172
		C358.712,29.056,358.154,28.544,357.038,28.544z"/>
	<path fill="#D9CEAD" d="M378.444,57.575l-4.513-22.424l0.14,6.653v15.771h-3.861V25.008h5.024l4.141,20.563l-0.093-5.862
		l-0.047-14.702h3.908v32.566H378.444z"/>
	<path fill="#D9CEAD" d="M440.392,37.353l-4.959,4.838l1.175,6.833c0.012,0.096,0.012,0.18,0.012,0.273
		c0,0.356-0.164,0.685-0.558,0.685c-0.192,0-0.384-0.068-0.549-0.164l-6.135-3.226l-6.135,3.226
		c-0.18,0.096-0.356,0.164-0.549,0.164c-0.394,0-0.574-0.329-0.574-0.685c0-0.093,0.015-0.177,0.028-0.273l1.176-6.833l-4.975-4.838
		c-0.165-0.177-0.341-0.409-0.341-0.654c0-0.41,0.425-0.574,0.766-0.63l6.861-0.999l3.073-6.215c0.124-0.261,0.357-0.562,0.67-0.562
		c0.313,0,0.546,0.301,0.67,0.562l3.074,6.215l6.861,0.999c0.329,0.056,0.766,0.22,0.766,0.63
		C440.748,36.943,440.571,37.176,440.392,37.353z"/>
	<path fill="#D9CEAD" d="M481.577,57.575l-4.513-22.424l0.14,6.653v15.771h-3.861V25.008h5.024l4.141,20.563l-0.093-5.862
		l-0.046-14.702h3.908v32.566H481.577z"/>
	<path fill="#D9CEAD" d="M497.916,57.575h-4.327V25.008h4.327V57.575z"/>
	<path fill="#D9CEAD" d="M513.923,41.105l4.001,16.469h-4.42l-2.373-11.771l-2.559,11.771h-4.141l3.954-16.19l-3.861-16.376h4.42
		l2.279,11.724l2.466-11.724h4.188L513.923,41.105z"/>
	<path fill="#D9CEAD" d="M531.422,57.854h-2.326c-3.535,0-5.257-1.768-5.257-5.257v-22.61c0-3.536,1.722-5.257,5.257-5.257h2.326
		c3.489,0,5.211,1.721,5.211,5.257v22.61C536.633,56.086,534.911,57.854,531.422,57.854z M530.678,28.544h-0.884
		c-1.117,0-1.628,0.512-1.628,1.628v22.238c0,1.117,0.512,1.628,1.628,1.628h0.884c1.117,0,1.675-0.512,1.675-1.628V30.172
		C532.353,29.056,531.794,28.544,530.678,28.544z"/>
	<path fill="#D9CEAD" d="M552.088,57.575l-4.513-22.424l0.14,6.653v15.771h-3.861V25.008h5.024l4.141,20.563l-0.093-5.862
		l-0.046-14.702h3.908v32.566H552.088z"/>
	<path fill="#D9CEAD" d="M614.035,37.353l-4.96,4.838l1.176,6.833c0.013,0.096,0.013,0.18,0.013,0.273
		c0,0.356-0.165,0.685-0.559,0.685c-0.192,0-0.385-0.068-0.549-0.164l-6.135-3.226l-6.135,3.226
		c-0.18,0.096-0.357,0.164-0.549,0.164c-0.395,0-0.574-0.329-0.574-0.685c0-0.093,0.016-0.177,0.028-0.273l1.175-6.833l-4.975-4.838
		c-0.164-0.177-0.341-0.409-0.341-0.654c0-0.41,0.425-0.574,0.766-0.63l6.86-0.999l3.074-6.215c0.124-0.261,0.356-0.562,0.67-0.562
		s0.546,0.301,0.67,0.562l3.073,6.215l6.861,0.999c0.328,0.056,0.766,0.22,0.766,0.63C614.392,36.943,614.215,37.176,614.035,37.353
		z"/>
	<path fill="#D9CEAD" d="M659.544,43.99v8.607c0,3.536-1.719,5.257-5.254,5.257h-2.141c-3.535,0-5.257-1.722-5.257-5.257v-22.61
		c0-3.536,1.722-5.257,5.257-5.257h2.098c3.485,0,5.21,1.721,5.21,5.21v7.816h-4.236v-7.583c0-1.116-0.515-1.628-1.632-1.628h-0.744
		c-1.117,0-1.625,0.512-1.625,1.628v22.238c0,1.117,0.508,1.628,1.625,1.628h0.844c1.066,0,1.625-0.512,1.625-1.628V43.99H659.544z"
		/>
	<path fill="#D9CEAD" d="M679.419,57.575h-4.28l-0.559-5.071h-4.417l-0.508,5.071h-4.051l4.051-32.613h5.719L679.419,57.575z
		 M670.585,48.689h3.58l-1.818-16.935L670.585,48.689z"/>
	<path fill="#D9CEAD" d="M698.22,45.851v11.724h-4.279V45.944c0-1.256-0.602-1.814-1.818-1.814h-1.947v13.445h-4.33V25.008h7.121
		c3.58,0,5.211,1.722,5.211,5.257v7.537c0,2.512-0.887,3.722-2.469,4.327C697.476,42.641,698.22,43.757,698.22,45.851z
		 M692.222,28.87h-2.047v11.538h1.947c1.217,0,1.774-0.559,1.774-1.768v-8.142C693.896,29.382,693.339,28.87,692.222,28.87z"/>
	<path fill="#D9CEAD" d="M707.996,57.575V28.917h-3.765v-3.908h11.91v3.908h-3.822v28.658H707.996z"/>
	<path fill="#D9CEAD" d="M732.108,25.008v3.908h-5.311v10.142h5.074v3.908h-5.074v10.701h5.354v3.908h-9.677V25.008H732.108z"/>
	<path fill="#D9CEAD" d="M751.418,45.851v11.724h-4.28V45.944c0-1.256-0.602-1.814-1.817-1.814h-1.948v13.445h-4.329V25.008h7.121
		c3.579,0,5.21,1.722,5.21,5.257v7.537c0,2.512-0.887,3.722-2.469,4.327C750.674,42.641,751.418,43.757,751.418,45.851z
		 M745.42,28.87h-2.048v11.538h1.948c1.216,0,1.774-0.559,1.774-1.768v-8.142C747.095,29.382,746.536,28.87,745.42,28.87z"/>
	<path fill="#D9CEAD" d="M808.573,37.353l-4.963,4.838l1.173,6.833c0.019,0.096,0.019,0.18,0.019,0.273
		c0,0.356-0.168,0.685-0.564,0.685c-0.192,0-0.379-0.068-0.546-0.164l-6.135-3.226l-6.135,3.226
		c-0.18,0.096-0.354,0.164-0.546,0.164c-0.396,0-0.577-0.329-0.577-0.685c0-0.093,0.013-0.177,0.031-0.273l1.173-6.833l-4.976-4.838
		c-0.161-0.177-0.341-0.409-0.341-0.654c0-0.41,0.422-0.574,0.763-0.63l6.86-0.999l3.077-6.215c0.124-0.261,0.354-0.562,0.67-0.562
		s0.546,0.301,0.67,0.562l3.077,6.215l6.86,0.999c0.329,0.056,0.763,0.22,0.763,0.63C808.927,36.943,808.747,37.176,808.573,37.353z
		"/>
	<path fill="#D9CEAD" d="M854.085,43.99v8.607c0,3.536-1.724,5.257-5.26,5.257h-2.134c-3.536,0-5.261-1.722-5.261-5.257v-22.61
		c0-3.536,1.725-5.257,5.261-5.257h2.091c3.492,0,5.21,1.721,5.21,5.21v7.816h-4.236v-7.583c0-1.116-0.509-1.628-1.625-1.628h-0.745
		c-1.116,0-1.625,0.512-1.625,1.628v22.238c0,1.117,0.509,1.628,1.625,1.628h0.838c1.073,0,1.631-0.512,1.631-1.628V43.99H854.085z"
		/>
	<path fill="#D9CEAD" d="M865.487,25.008v28.659h4.652v3.908h-8.977V25.008H865.487z"/>
	<path fill="#D9CEAD" d="M881.175,57.575h-4.324V25.008h4.324V57.575z"/>
	<path fill="#D9CEAD" d="M896.713,57.575l-4.51-22.424l0.144,6.653v15.771h-3.865V25.008h5.024l4.138,20.563l-0.087-5.862
		l-0.05-14.702h3.908v32.566H896.713z"/>
	<path fill="#D9CEAD" d="M911.563,57.575V28.917h-3.771v-3.908h11.91v3.908h-3.809v28.658H911.563z"/>
	<path fill="#D9CEAD" d="M933.249,57.854h-2.319c-3.536,0-5.261-1.768-5.261-5.257v-22.61c0-3.536,1.725-5.257,5.261-5.257h2.319
		c3.492,0,5.211,1.721,5.211,5.257v22.61C938.46,56.086,936.741,57.854,933.249,57.854z M932.505,28.544h-0.881
		c-1.116,0-1.625,0.512-1.625,1.628v22.238c0,1.117,0.509,1.628,1.625,1.628h0.881c1.117,0,1.675-0.512,1.675-1.628V30.172
		C934.18,29.056,933.622,28.544,932.505,28.544z"/>
	<path fill="#D9CEAD" d="M953.918,57.575l-4.516-22.424l0.137,6.653v15.771h-3.858V25.008h5.024l4.144,20.563l-0.1-5.862
		l-0.043-14.702h3.908v32.566H953.918z"/>
	<path fill="#D9CEAD" d="M1015.862,37.353l-4.963,4.838l1.173,6.833c0.019,0.096,0.019,0.18,0.019,0.273
		c0,0.356-0.168,0.685-0.564,0.685c-0.192,0-0.379-0.068-0.546-0.164l-6.135-3.226l-6.135,3.226
		c-0.181,0.096-0.354,0.164-0.546,0.164c-0.397,0-0.577-0.329-0.577-0.685c0-0.093,0.013-0.177,0.031-0.273l1.172-6.833
		l-4.975-4.838c-0.161-0.177-0.341-0.409-0.341-0.654c0-0.41,0.422-0.574,0.763-0.63l6.86-0.999l3.077-6.215
		c0.124-0.261,0.354-0.562,0.67-0.562s0.546,0.301,0.67,0.562l3.076,6.215l6.861,0.999c0.322,0.056,0.763,0.22,0.763,0.63
		C1016.216,36.943,1016.036,37.176,1015.862,37.353z"/>
	<path fill="#D9CEAD" d="M1059.867,65.803V20.188h-5.999v-6.222h18.957v6.222h-6.066v45.615H1059.867z"/>
	<path fill="#D9CEAD" d="M1089.859,65.803h-6.886V13.967h6.886V65.803z"/>
	<path fill="#D9CEAD" d="M1106.074,65.803V20.188h-5.999v-6.222h18.957v6.222h-6.066v45.615H1106.074z"/>
	<path fill="#D9CEAD" d="M1140.582,66.247h-3.704c-5.626,0-8.367-2.813-8.367-8.368V21.892c0-5.626,2.741-8.368,8.367-8.368h3.704
		c5.558,0,8.293,2.742,8.293,8.368v35.987C1148.875,63.434,1146.14,66.247,1140.582,66.247z M1139.396,19.596h-1.408
		c-1.773,0-2.586,0.816-2.586,2.593v35.395c0,1.777,0.812,2.59,2.586,2.59h1.408c1.78,0,2.668-0.812,2.668-2.59V22.189
		C1142.064,20.412,1141.177,19.596,1139.396,19.596z"/>
</g>
<g>
	<path fill="#D4C9A1" d="M61.865,668.868L43.16,638.173h15.48l10.087,17.865l10.158-17.865h15.21l-18.643,30.476v18.569H61.865
		V668.868z"/>
	<path fill="#D4C9A1" d="M99.075,665.713v-27.54h13.73v27.26c0,7.075,3.575,10.436,9.035,10.436c5.535,0,9.113-3.226,9.113-10.085
		v-27.61h13.727v27.181c0,15.774-9.035,22.774-22.977,22.774C107.83,688.128,99.075,681.043,99.075,665.713z"/>
	<path fill="#D4C9A1" d="M152.458,662.833v-0.14c0-14.295,11.21-25.5,26.342-25.5c8.615,0,14.71,2.6,19.893,7.085l-7.985,9.654
		c-3.5-2.93-6.933-4.62-11.838-4.62c-7.08,0-12.537,5.881-12.537,13.381v0.14c0,7.985,5.535,13.66,13.305,13.66
		c3.363,0,5.888-0.695,7.845-2.021v-5.965h-9.595v-9.95h22.488v22.005c-5.183,4.346-12.33,7.636-21.298,7.636
		C163.805,688.198,152.458,677.698,152.458,662.833z"/>
	<path fill="#D4C9A1" d="M207.667,662.833v-0.14c0-14.07,11.347-25.5,26.48-25.5c15.132,0,26.342,11.274,26.342,25.364v0.136
		c0,14.09-11.35,25.505-26.48,25.505C218.877,688.198,207.667,676.923,207.667,662.833z M246.547,662.833v-0.14
		c0-7.141-5.045-13.24-12.538-13.24c-7.495,0-12.47,6.03-12.47,13.104v0.136c0,7.074,5.113,13.244,12.608,13.244
		C241.572,675.938,246.547,669.918,246.547,662.833z"/>
	<path fill="#D4C9A1" d="M264.757,679.938l7.57-9.05c4.9,3.86,10.228,5.896,15.9,5.896c3.717,0,5.675-1.26,5.675-3.365v-0.135
		c0-2.105-1.613-3.155-8.338-4.775c-10.435-2.38-18.495-5.314-18.495-15.335v-0.135c0-9.12,7.215-15.695,18.985-15.695
		c8.337,0,14.857,2.24,20.177,6.505l-6.795,9.605c-4.482-3.225-9.39-4.83-13.735-4.83c-3.288,0-4.897,1.325-4.897,3.14v0.141
		c0,2.239,1.68,3.225,8.545,4.77c11.208,2.45,18.217,6.09,18.217,15.265v0.141c0,10.02-7.922,15.984-19.83,15.984
		C279.052,688.062,270.854,685.323,264.757,679.938z"/>
	<path fill="#D4C9A1" d="M315.497,638.173h13.59v37.13h23.745v11.915h-37.335V638.173z"/>
	<path fill="#D4C9A1" d="M377.017,637.828h13.097l20.883,49.39h-14.573l-3.507-8.83h-18.98l-3.507,8.83h-14.22L377.017,637.828z
		 M388.924,667.812l-5.467-13.88l-5.527,13.88H388.924z"/>
	<path fill="#D4C9A1" d="M406.242,638.173h15.133l11.14,31.04l11.21-31.04h14.85l-19.895,49.39h-12.612L406.242,638.173z"/>
	<path fill="#D4C9A1" d="M481.739,679.938l7.57-9.05c4.897,3.86,10.225,5.896,15.9,5.896c3.715,0,5.675-1.26,5.675-3.365v-0.135
		c0-2.105-1.613-3.155-8.34-4.775c-10.432-2.38-18.495-5.314-18.495-15.335v-0.135c0-9.12,7.217-15.695,18.987-15.695
		c8.337,0,14.855,2.24,20.177,6.505l-6.795,9.605c-4.485-3.225-9.39-4.83-13.728-4.83c-3.295,0-4.907,1.325-4.907,3.14v0.141
		c0,2.239,1.683,3.225,8.545,4.77c11.21,2.45,18.212,6.09,18.212,15.265v0.141c0,10.02-7.915,15.984-19.825,15.984
		C496.034,688.062,487.834,685.323,481.739,679.938z"/>
	<path fill="#D4C9A1" d="M532.479,638.173h21.083c12.33,0,20.315,6.38,20.315,17.175v0.136c0,11.624-8.9,17.729-21.007,17.729
		h-6.808v14.005h-13.583V638.173z M552.579,662.558c4.772,0,7.777-2.59,7.777-6.449v-0.141c0-4.205-3.005-6.38-7.848-6.38h-6.447
		v12.97H552.579z"/>
	<path fill="#D4C9A1" d="M593.014,637.828h13.107l20.868,49.39h-14.573l-3.5-8.83h-18.987l-3.502,8.83h-14.225L593.014,637.828z
		 M604.929,667.812l-5.465-13.88l-5.535,13.88H604.929z"/>
	<path fill="#D4C9A1" d="M628.331,662.833v-0.14c0-14.295,10.933-25.5,25.78-25.5c10.02,0,16.47,4.205,20.814,10.154l-10.227,7.931
		c-2.811-3.445-6.021-5.755-10.726-5.755c-6.864,0-11.692,5.895-11.692,13.034v0.136c0,7.364,4.828,13.104,11.692,13.104
		c5.12,0,8.138-2.38,11.07-5.96l10.228,7.29c-4.623,6.38-10.85,11.07-21.646,11.07C639.609,688.198,628.331,677.473,628.331,662.833
		z"/>
	<path fill="#D4C9A1" d="M682.496,638.173h39.438v11.485h-25.987v7.5h23.54v10.725h-23.54v7.78h26.335v11.555h-39.785V638.173z"/>
	<path fill="#D4C9A1" d="M751.411,638.173h21.09c12.33,0,20.315,6.38,20.315,17.175v0.136c0,11.624-8.9,17.729-21.021,17.729h-6.795
		v14.005h-13.59V638.173z M771.519,662.558c4.76,0,7.777-2.59,7.777-6.449v-0.141c0-4.205-3.018-6.38-7.848-6.38h-6.447v12.97
		H771.519z"/>
	<path fill="#D4C9A1" d="M799.901,638.173h23.192c7.487,0,12.678,1.965,15.97,5.26c2.865,2.875,4.345,6.585,4.345,11.415v0.141
		c0,7.569-3.997,12.535-10.087,15.14l11.694,17.09h-15.625l-9.88-14.85h-6.02v14.85h-13.59V638.173z M822.526,661.713
		c4.555,0,7.295-2.24,7.295-5.814v-0.136c0-3.93-2.88-5.88-7.362-5.88h-8.968v11.83H822.526z"/>
	<path fill="#D4C9A1" d="M849.996,662.833v-0.14c0-14.07,11.362-25.5,26.487-25.5c15.14,0,26.348,11.274,26.348,25.364v0.136
		c0,14.09-11.36,25.505-26.485,25.505C861.206,688.198,849.996,676.923,849.996,662.833z M888.884,662.833v-0.14
		c0-7.141-5.038-13.24-12.538-13.24s-12.47,6.03-12.47,13.104v0.136c0,7.074,5.107,13.244,12.607,13.244
		C883.916,675.938,888.884,669.918,888.884,662.833z"/>
	<path fill="#D4C9A1" d="M909.543,662.833v-0.14c0-14.295,11.21-25.5,26.348-25.5c8.623,0,14.713,2.6,19.9,7.085l-7.985,9.654
		c-3.515-2.93-6.945-4.62-11.845-4.62c-7.07,0-12.537,5.881-12.537,13.381v0.14c0,7.985,5.534,13.66,13.312,13.66
		c3.363,0,5.883-0.695,7.848-2.021v-5.965h-9.604v-9.95h22.487v22.005c-5.175,4.346-12.33,7.636-21.298,7.636
		C920.906,688.198,909.543,677.698,909.543,662.833z"/>
	<path fill="#D4C9A1" d="M966.365,638.173h23.193c7.487,0,12.677,1.965,15.97,5.26c2.864,2.875,4.345,6.585,4.345,11.415v0.141
		c0,7.569-4,12.535-10.088,15.14l11.693,17.09h-15.623l-9.883-14.85h-6.02v14.85h-13.588V638.173z M988.99,661.713
		c4.553,0,7.293-2.24,7.293-5.814v-0.136c0-3.93-2.878-5.88-7.362-5.88h-8.968v11.83H988.99z"/>
	<path fill="#D4C9A1" d="M1034.118,637.828h13.104l20.868,49.39h-14.57l-3.503-8.83h-18.987l-3.5,8.83h-14.225L1034.118,637.828z
		 M1046.033,667.812l-5.468-13.88l-5.535,13.88H1046.033z"/>
	<path fill="#D4C9A1" d="M1074.195,638.173h14.362l11.695,18.985l11.708-18.985h14.35v49.045h-13.521v-28.16l-12.537,19.19h-0.277
		l-12.468-19.125v28.095h-13.312V638.173z"/>
	<path fill="#D4C9A1" d="M1135.415,649.312h13.798v13.66h-13.798V649.312z M1135.415,673.558h13.798v13.66h-13.798V673.558z"/>
	<path fill="#D4C9A1" d="M236.12,724.953h14.357l11.7,18.989l11.7-18.989h14.365v49.045h-13.52v-28.16l-12.545,19.195h-0.278
		l-12.467-19.125v28.09H236.12V724.953z"/>
	<path fill="#D4C9A1" d="M312.472,755.647l-18.703-30.694h15.48l10.087,17.864l10.165-17.864h15.2l-18.64,30.475v18.57h-13.59
		V755.647z"/>
	<path fill="#D4C9A1" d="M362.222,736.868h-14.64v-11.915h42.947v11.915h-14.717v37.13h-13.59V736.868z"/>
	<path fill="#D4C9A1" d="M397.822,724.953h13.59v18.364h17.442v-18.364h13.59v49.045h-13.59v-18.641h-17.442v18.641h-13.59V724.953z
		"/>
	<path fill="#D4C9A1" d="M471.637,749.613v-0.136c0-14.075,11.348-25.505,26.48-25.505s26.342,11.28,26.342,25.365v0.14
		c0,14.085-11.347,25.505-26.48,25.505C482.847,774.982,471.637,763.703,471.637,749.613z M510.517,749.613v-0.136
		c0-7.14-5.045-13.245-12.538-13.245c-7.495,0-12.47,6.035-12.47,13.105v0.14c0,7.07,5.115,13.24,12.607,13.24
		C505.542,762.718,510.517,756.703,510.517,749.613z"/>
	<path fill="#D4C9A1" d="M532.797,724.953h23.185c7.502,0,12.678,1.965,15.97,5.26c2.88,2.865,4.345,6.59,4.345,11.415v0.14
		c0,7.57-3.985,12.54-10.087,15.141l11.708,17.09h-15.623l-9.882-14.851h-6.02v14.851h-13.595V724.953z M555.429,748.493
		c4.552,0,7.28-2.24,7.28-5.811v-0.14c0-3.93-2.865-5.88-7.35-5.88h-8.967v11.83H555.429z"/>
	<path fill="#D4C9A1" d="M605.289,724.953h23.195c7.484,0,12.675,1.965,15.967,5.26c2.865,2.865,4.348,6.59,4.348,11.415v0.14
		c0,7.57-4,12.54-10.09,15.141l11.695,17.09h-15.625l-9.881-14.851h-6.02v14.851h-13.59V724.953z M627.916,748.493
		c4.553,0,7.293-2.24,7.293-5.811v-0.14c0-3.93-2.878-5.88-7.362-5.88h-8.968v11.83H627.916z"/>
	<path fill="#D4C9A1" d="M656.991,724.953h39.44v11.5h-25.99v7.489h23.54v10.726h-23.54v7.774h26.335v11.556h-39.785V724.953z"/>
	<path fill="#D4C9A1" d="M722.086,724.607h13.105l20.87,49.391h-14.573l-3.502-8.83h-18.985l-3.5,8.83h-14.228L722.086,724.607z
		 M734.001,754.598l-5.465-13.88l-5.535,13.88H734.001z"/>
	<path fill="#D4C9A1" d="M762.164,724.953h13.59v37.13h23.747v11.915h-37.337V724.953z"/>
	<path fill="#D4C9A1" d="M807.084,724.953h13.587v49.045h-13.587V724.953z"/>
	<path fill="#D4C9A1" d="M842.993,736.868h-14.654v-11.915h42.954v11.915h-14.71v37.13h-13.59V736.868z"/>
	<path fill="#D4C9A1" d="M892.813,755.647l-18.71-30.694h15.484l10.088,17.864l10.157-17.864h15.195L906.4,755.428v18.57h-13.587
		V755.647z"/>
	<path fill="#D4C9A1" d="M937.855,746.253l0.638-0.556c8.122-0.704,11.003-2.67,11.003-5.604v-0.135
		c0-2.396-1.965-3.865-5.328-3.865c-3.295,0-6.865,1.69-10.228,4.625l-7.002-9.175c4.263-4.275,10.087-7.35,18.143-7.35
		c10.295,0,17.505,5.534,17.505,14.709v0.141c0,8.83-5.88,12.535-13.658,14.5l-0.829,4.484h-8.415L937.855,746.253z
		 M936.735,762.083h13.811v11.915h-13.811V762.083z"/>
</g>
</svg>
