<?xml version="1.0" encoding="UTF-8" standalone="no"?>
<!-- Created with Inkscape (http://www.inkscape.org/) -->
<svg xmlns:rdf="http://www.w3.org/1999/02/22-rdf-syntax-ns#" xmlns="http://www.w3.org/2000/svg" height="454.5" width="600.333" version="1.1" xmlns:cc="http://creativecommons.org/ns#" xmlns:dc="http://purl.org/dc/elements/1.1/">
 <defs>
  <filter id="filter3919" color-interpolation-filters="sRGB">
   <feGaussianBlur stdDeviation="1.4549649"/>
  </filter>
 </defs>
 <metadata>
  <rdf:RDF>
   <cc:Work rdf:about="">
    <dc:format>image/svg+xml</dc:format>
    <dc:type rdf:resource="http://purl.org/dc/dcmitype/StillImage"/>
    <dc:title/>
   </cc:Work>
  </rdf:RDF>
 </metadata>
 <g transform="translate(-65.162491,-281.90311)">
  <rect height="454.5" width="600.333" y="281.903" x="65.1625" fill="#b70608"/>
  <g transform="translate(171.42857,651.42857)">
   <path d="m68.8464-196.419h-11.088c-0.608,0-1.056-0.104-1.344-0.312s-0.432-0.52-0.432-0.936c0-0.288,0.08-0.536,0.24-0.744s0.399-0.36,0.72-0.456c0.127-0.031,0.248-0.072,0.36-0.12,0.111-0.048,0.216-0.088,0.312-0.12,0.352-0.16,0.568-0.336,0.648-0.528,0.079-0.192,0.12-0.528,0.12-1.008v-23.52c0-0.448-0.041-0.768-0.12-0.96-0.081-0.192-0.296-0.367-0.648-0.528-0.096-0.032-0.2-0.072-0.312-0.12-0.113-0.048-0.233-0.088-0.36-0.12-0.32-0.096-0.56-0.248-0.72-0.456-0.161-0.208-0.24-0.456-0.24-0.744,0-0.448,0.151-0.775,0.456-0.984,0.304-0.208,0.744-0.312,1.32-0.312l0.624-0.048h10.464v32.016zm11.471-32.016v8.352c0,0.512-0.088,0.88-0.264,1.104s-0.473,0.336-0.888,0.336c-0.32,0-0.56-0.055-0.72-0.168-0.16-0.112-0.304-0.328-0.432-0.648-0.032-0.031-0.057-0.072-0.072-0.12-0.017-0.048-0.024-0.087-0.024-0.12-0.608-1.856-1.488-3.256-2.64-4.2-1.152-0.943-2.64-1.512-4.464-1.704v-2.832h9.504zm-9.504,14.352c0.896-0.416,1.56-0.872,1.992-1.368s0.744-1.176,0.936-2.04c0.16-0.608,0.328-1.024,0.504-1.248,0.175-0.224,0.472-0.336,0.888-0.336,0.448,0,0.752,0.136,0.912,0.408s0.24,0.792,0.24,1.56v8.832c0,0.768-0.081,1.289-0.24,1.56-0.16,0.272-0.464,0.408-0.912,0.408-0.352,0-0.624-0.104-0.816-0.312s-0.368-0.567-0.528-1.08c-0.256-1.088-0.624-1.92-1.104-2.496s-1.104-0.96-1.872-1.152v-2.736zm0,15.12c1.888-0.224,3.408-0.832,4.56-1.824,1.152-0.991,2.064-2.416,2.736-4.272,0.032-0.096,0.072-0.192,0.12-0.288s0.088-0.175,0.12-0.24c0.16-0.288,0.312-0.487,0.456-0.6,0.144-0.112,0.343-0.168,0.6-0.168,0.48,0,0.808,0.12,0.984,0.36,0.175,0.24,0.264,0.696,0.264,1.368v8.208h-9.84v-2.544zm-48.191,2.544h-0.624c-0.608,0-1.056-0.104-1.344-0.312s-0.432-0.52-0.432-0.936c0-0.288,0.08-0.536,0.24-0.744s0.399-0.36,0.72-0.456c0.127-0.031,0.248-0.072,0.36-0.12,0.111-0.048,0.216-0.088,0.312-0.12,0.352-0.16,0.567-0.336,0.648-0.528,0.079-0.192,0.12-0.528,0.12-1.008v-23.52c0-0.448-0.041-0.768-0.12-0.96-0.081-0.192-0.296-0.367-0.648-0.528-0.096-0.032-0.201-0.072-0.312-0.12-0.113-0.048-0.233-0.088-0.36-0.12-0.32-0.1-0.56-0.258-0.72-0.474-0.161-0.216-0.24-0.474-0.24-0.774,0-0.448,0.151-0.775,0.456-0.984,0.304-0.208,0.744-0.312,1.32-0.312l0.624-0.048h11.088c0.576,0.064,1,0.192,1.272,0.384,0.271,0.192,0.408,0.497,0.408,0.912,0,0.333-0.072,0.607-0.216,0.823s-0.376,0.375-0.696,0.473l-0.72,0.192c-0.224,0.097-0.392,0.273-0.504,0.529-0.113,0.256-0.168,0.609-0.168,1.058v23.466c0,0.449,0.055,0.809,0.168,1.082,0.112,0.273,0.28,0.441,0.504,0.505l0.72,0.192c0.32,0.124,0.552,0.286,0.696,0.486s0.216,0.455,0.216,0.762c0,0.417-0.136,0.72-0.408,0.912s-0.696,0.288-1.272,0.288h-11.088zm16.176-17.52v-10.183c0-0.414-0.056-0.75-0.168-1.004-0.113-0.255-0.281-0.414-0.504-0.479l-0.768-0.287c-0.288-0.069-0.504-0.208-0.648-0.416s-0.216-0.485-0.216-0.832c0-0.448,0.136-0.775,0.408-0.984,0.271-0.208,0.679-0.312,1.224-0.312l0.624-0.048h11.136c0.607,0.064,1.056,0.192,1.344,0.384s0.432,0.512,0.432,0.96c0,0.3-0.08,0.558-0.24,0.774-0.161,0.216-0.4,0.374-0.72,0.474-0.128,0.032-0.248,0.072-0.36,0.12s-0.216,0.088-0.312,0.12c-0.353,0.161-0.568,0.336-0.648,0.528s-0.12,0.528-0.12,1.008v23.424c0,0.512,0.04,0.864,0.12,1.056s0.28,0.368,0.6,0.528c0.096,0.032,0.208,0.072,0.336,0.12,0.127,0.048,0.256,0.088,0.384,0.12,0.32,0.096,0.56,0.249,0.72,0.456,0.16,0.208,0.24,0.456,0.24,0.744,0,0.417-0.152,0.729-0.456,0.936-0.304,0.208-0.744,0.312-1.32,0.312h-11.76c-0.545,0-0.953-0.096-1.224-0.288-0.272-0.192-0.408-0.496-0.408-0.912,0-0.288,0.08-0.543,0.24-0.768,0.16-0.224,0.367-0.384,0.624-0.48l0.768-0.288c0.223-0.032,0.391-0.184,0.504-0.456,0.112-0.271,0.168-0.616,0.168-1.032v-10.704h-3.792v-2.592h3.792zm-42.384-14.496v2.88c-0.8,0.48-1.448,1.176-1.944,2.088-0.497,0.912-0.873,2.04-1.128,3.384l-0.24,1.392c-0.064,0.512-0.224,0.896-0.48,1.152-0.256,0.257-0.576,0.384-0.96,0.384-0.417,0-0.752-0.144-1.008-0.432-0.257-0.288-0.384-0.656-0.384-1.104v-9.744h6.144zm12.384,27.552c0,0.608,0.072,1.024,0.216,1.248s0.487,0.416,1.032,0.576c0.096,0.032,0.184,0.056,0.264,0.072,0.08,0.017,0.168,0.041,0.264,0.072,0.352,0.064,0.631,0.2,0.84,0.408,0.208,0.208,0.312,0.472,0.312,0.792,0,0.448-0.168,0.776-0.504,0.984s-0.873,0.312-1.608,0.312h-12.096c-0.704,0-1.224-0.104-1.56-0.312s-0.504-0.536-0.504-0.984c0-0.32,0.096-0.583,0.288-0.792,0.192-0.208,0.463-0.344,0.816-0.408,0.127-0.031,0.24-0.055,0.336-0.072,0.096-0.016,0.175-0.04,0.24-0.072,0.543-0.16,0.879-0.352,1.008-0.576,0.127-0.224,0.192-0.624,0.192-1.2v-27.6h10.464v27.552zm8.064-17.904c0,0.48-0.128,0.864-0.384,1.152s-0.592,0.432-1.008,0.432c-0.384,0-0.705-0.136-0.96-0.408-0.257-0.271-0.432-0.632-0.528-1.08l-0.24-1.488c-0.225-1.312-0.584-2.424-1.08-3.336-0.497-0.912-1.145-1.591-1.944-2.04v-2.88h6.144v9.648zm363.868,143.582,2.016-7.104v7.776l-5.424,18.192h-1.2l-9.12-26.976c-0.032-0.096-0.071-0.199-0.12-0.312-0.048-0.112-0.088-0.231-0.119-0.36-0.225-0.512-0.465-0.88-0.721-1.104s-0.608-0.384-1.056-0.48c-0.513-0.096-0.896-0.264-1.152-0.504s-0.384-0.552-0.384-0.936c0-0.416,0.151-0.736,0.456-0.96,0.304-0.224,0.712-0.336,1.224-0.336l10.992-0.048,4.608,13.152zm-11.28,4.752v7.056c0,1.088,0.144,1.952,0.432,2.592,0.288,0.641,0.752,1.168,1.393,1.584l0.864,0.479c0.319,0.225,0.552,0.433,0.695,0.624,0.145,0.192,0.216,0.417,0.216,0.673,0,0.384-0.151,0.664-0.456,0.84-0.304,0.176-0.743,0.264-1.319,0.264h-5.856c-0.576,0-1.016-0.088-1.319-0.264-0.305-0.176-0.456-0.472-0.456-0.889,0-0.159,0.023-0.295,0.071-0.407,0.049-0.112,0.136-0.217,0.265-0.313,0.031-0.031,0.088-0.072,0.168-0.12,0.079-0.048,0.168-0.104,0.264-0.168,0.896-0.479,1.552-1.119,1.968-1.92,0.416-0.8,0.624-1.776,0.624-2.928v-14.208l2.446,7.105zm25.727-17.904h0.624c0.576,0.064,1.009,0.192,1.297,0.384,0.287,0.192,0.432,0.512,0.432,0.96,0,0.288-0.072,0.536-0.216,0.744-0.145,0.208-0.377,0.36-0.696,0.456-0.128,0.032-0.257,0.072-0.384,0.12-0.128,0.048-0.24,0.088-0.336,0.12-0.353,0.161-0.568,0.336-0.648,0.528s-0.12,0.528-0.12,1.008v23.423c0,0.513,0.04,0.864,0.12,1.057,0.08,0.191,0.296,0.368,0.648,0.527,0.096,0.033,0.208,0.072,0.336,0.12,0.127,0.049,0.256,0.089,0.384,0.12,0.319,0.097,0.552,0.248,0.696,0.456,0.144,0.209,0.216,0.456,0.216,0.744,0,0.416-0.145,0.729-0.432,0.937-0.288,0.208-0.721,0.312-1.297,0.312h-11.951c-0.705,0-1.225-0.104-1.561-0.312s-0.504-0.536-0.504-0.984c0-0.319,0.096-0.584,0.288-0.792s0.464-0.344,0.816-0.408c0.127-0.031,0.239-0.056,0.336-0.072,0.096-0.016,0.175-0.039,0.239-0.071,0.544-0.16,0.88-0.353,1.009-0.576,0.127-0.224,0.191-0.624,0.191-1.2v-27.6h10.513zm-52.126,10.848-4.177,15.12c-0.032,0.128-0.056,0.248-0.071,0.359-0.017,0.113-0.024,0.217-0.024,0.313-0.032,0.096-0.048,0.2-0.048,0.312v0.313c0,0.448,0.12,0.856,0.359,1.224,0.24,0.368,0.584,0.648,1.032,0.84l0.769,0.337c0.256,0.16,0.456,0.344,0.6,0.552,0.145,0.208,0.216,0.44,0.216,0.696,0,0.352-0.152,0.623-0.456,0.815-0.305,0.192-0.728,0.288-1.271,0.288h-5.952c-0.545,0-0.992-0.111-1.344-0.336-0.353-0.224-0.528-0.528-0.528-0.912,0-0.256,0.079-0.479,0.24-0.672,0.159-0.192,0.432-0.367,0.815-0.528,0.992-0.447,1.72-0.96,2.185-1.536,0.463-0.575,0.855-1.471,1.176-2.688l5.28-19.344,1.199,4.847zm9.888-10.848,6.479,27.552c0.032,0.128,0.056,0.232,0.072,0.312,0.016,0.081,0.04,0.168,0.072,0.265,0.127,0.448,0.279,0.776,0.456,0.983,0.175,0.209,0.439,0.377,0.792,0.504,0.031,0.032,0.071,0.057,0.12,0.072,0.048,0.017,0.087,0.024,0.12,0.024,0.319,0.16,0.535,0.328,0.647,0.504,0.111,0.176,0.168,0.408,0.168,0.696,0,0.352-0.152,0.623-0.456,0.815-0.305,0.192-0.761,0.288-1.368,0.288h-11.712c-0.448,0-0.815-0.104-1.104-0.312s-0.433-0.505-0.433-0.889c0-0.191,0.024-0.352,0.072-0.479s0.12-0.24,0.216-0.336c0.097-0.064,0.208-0.136,0.336-0.217,0.128-0.079,0.271-0.168,0.433-0.264,0.031-0.031,0.063-0.056,0.096-0.072,0.031-0.016,0.063-0.023,0.096-0.023,0.224-0.16,0.385-0.328,0.48-0.504s0.144-0.408,0.144-0.696l-0.048-0.672-0.768-3.408h-6.528l0.624-2.88h5.28l-4.32-18.96,0.576-2.304h9.458zm-34.176,32.016h-11.088c-0.608,0-1.057-0.104-1.345-0.312-0.287-0.208-0.432-0.521-0.432-0.937,0-0.288,0.079-0.535,0.24-0.744,0.159-0.208,0.399-0.359,0.72-0.456,0.128-0.031,0.248-0.071,0.36-0.12,0.111-0.048,0.216-0.087,0.312-0.12,0.352-0.159,0.568-0.336,0.648-0.527,0.079-0.192,0.12-0.528,0.12-1.008v-23.521c0-0.448-0.041-0.768-0.12-0.96-0.08-0.192-0.297-0.367-0.648-0.528-0.096-0.032-0.2-0.072-0.312-0.12s-0.232-0.088-0.36-0.12c-0.32-0.096-0.561-0.248-0.72-0.456-0.161-0.208-0.24-0.456-0.24-0.744,0-0.448,0.151-0.775,0.456-0.984,0.304-0.208,0.744-0.312,1.32-0.312l0.624-0.048h10.464v32.017zm11.472-32.016v8.352c0,0.512-0.088,0.88-0.264,1.104-0.177,0.224-0.473,0.336-0.889,0.336-0.319,0-0.56-0.055-0.72-0.168-0.16-0.112-0.305-0.328-0.432-0.648-0.032-0.031-0.057-0.072-0.072-0.12-0.017-0.048-0.023-0.087-0.023-0.12-0.608-1.856-1.488-3.256-2.641-4.2-1.151-0.943-2.64-1.512-4.464-1.704v-2.832h9.505zm-9.504,14.352c0.896-0.416,1.56-0.872,1.992-1.368s0.744-1.176,0.936-2.04c0.16-0.608,0.328-1.024,0.504-1.248s0.472-0.336,0.889-0.336c0.447,0,0.751,0.136,0.912,0.408,0.159,0.272,0.239,0.792,0.239,1.56v8.832c0,0.768-0.08,1.289-0.239,1.56-0.161,0.272-0.465,0.408-0.912,0.408-0.353,0-0.624-0.104-0.816-0.312-0.191-0.208-0.368-0.567-0.528-1.08-0.256-1.088-0.624-1.92-1.104-2.496s-1.104-0.96-1.872-1.152v-2.736zm0,15.12c1.888-0.224,3.408-0.832,4.56-1.824,1.152-0.991,2.064-2.416,2.736-4.272,0.031-0.096,0.072-0.192,0.12-0.288s0.088-0.175,0.12-0.24c0.159-0.288,0.312-0.487,0.456-0.6,0.144-0.112,0.344-0.168,0.6-0.168,0.48,0,0.808,0.12,0.984,0.36s0.264,0.696,0.264,1.368v8.208h-9.84v-2.544zm-38.16-29.472v2.88c-0.8,0.48-1.447,1.176-1.943,2.088s-0.873,2.04-1.128,3.384l-0.24,1.392c-0.064,0.512-0.224,0.896-0.479,1.152-0.257,0.257-0.576,0.384-0.961,0.384-0.416,0-0.752-0.144-1.008-0.432s-0.384-0.656-0.384-1.104v-9.744h6.143zm12.385,27.552c0,0.608,0.072,1.024,0.216,1.248s0.487,0.416,1.032,0.576c0.096,0.032,0.184,0.056,0.264,0.071,0.079,0.017,0.168,0.041,0.264,0.072,0.353,0.064,0.632,0.2,0.84,0.408s0.313,0.473,0.313,0.792c0,0.448-0.168,0.776-0.504,0.984s-0.872,0.312-1.607,0.312h-12.097c-0.704,0-1.224-0.104-1.56-0.312s-0.504-0.536-0.504-0.984c0-0.319,0.096-0.584,0.287-0.792,0.192-0.208,0.464-0.344,0.816-0.408,0.127-0.031,0.24-0.056,0.336-0.072s0.176-0.039,0.24-0.071c0.543-0.16,0.879-0.353,1.008-0.576,0.127-0.224,0.191-0.624,0.191-1.2v-27.6h10.465v27.552zm8.063-17.904c0,0.48-0.128,0.864-0.384,1.152-0.257,0.288-0.593,0.432-1.008,0.432-0.384,0-0.704-0.136-0.96-0.408-0.257-0.271-0.433-0.632-0.528-1.08l-0.24-1.488c-0.224-1.312-0.584-2.424-1.08-3.336s-1.145-1.591-1.943-2.04v-2.88h6.144v9.648zm-40.3593,10.201v3.8115c0,0.449037-0.0976,0.757823-0.29314,0.925179-0.19543,0.167358-0.53336,0.252215-1.00971,0.252215h-13.68c-0.47908,0.03772-0.8143-0.02829-1.00972-0.199179-0.19543-0.170892-0.29314-0.466714-0.29314-0.885107v-3.93996c0-0.380679,0.0977-0.656465,0.29314-0.827357,0.19542-0.170893,0.532-0.256929,1.00972-0.256929h13.68c0.47771,0.03772,0.81428,0.14025,1.00971,0.308786,0.19543,0.168535,0.29314,0.458464,0.29314,0.868607v-0.05775zm-138.256-101.928-22.79,82.5168c-0.17555,0.700373-0.30653,1.35527-0.39294,1.96468-0.09,0.613964-0.13098,1.17881-0.13098,1.70272-0.17646,0.523915-0.26196,1.0924-0.26196,1.70272v1.70273c0,2.44767,0.6549,4.67431,1.96468,6.67992,1.3098,2.00925,3.18443,3.53643,5.6321,4.58426l4.19132,1.8337c1.3962,0.875921,2.48859,1.87827,3.27447,3.01251,0.78587,1.13788,1.17881,2.4031,1.17881,3.79839,0,1.92375-0.83135,3.40545-2.4886,4.45328-1.66179,1.04692-3.97484,1.57175-6.94187,1.57175h-32.4816c-2.97158,0-5.41561-0.610325-7.33482-1.8337-1.92375-1.22065-2.88154-2.88154-2.88154-4.97811,0-1.39529,0.433868-2.61958,1.30979-3.66741,0.871373-1.04783,2.35762-2.00561,4.45328-2.88154,5.41106-2.44403,9.385-5.23916,11.9191-8.38265,2.52953-3.14349,4.67067-8.03064,6.41796-14.6696l28.8154-105.569,6.54894,26.4586zm53.9633-59.2024,35.3643,150.364c0.17191,0.700373,0.30289,1.26886,0.39294,1.70273,0.0855,0.437505,0.21648,0.916852,0.39293,1.44077,0.69583,2.44767,1.52627,4.2368,2.4886,5.37013,0.95779,1.13788,2.39856,2.05473,4.3223,2.75056,0.17191,0.175548,0.39294,0.306526,0.6549,0.392936,0.26196,0.09005,0.47935,0.130979,0.65489,0.130979,1.74367,0.875921,2.92247,1.79277,3.53643,2.75056,0.60942,0.961421,0.91685,2.22664,0.91685,3.79839,0,1.92375-0.83135,3.40545-2.4886,4.45328-1.66179,1.04692-4.15038,1.57175-7.46579,1.57175h-63.9177c-2.44767,0-4.45328-0.564846-6.02502-1.70272-1.57175-1.13333-2.35762-2.75056-2.35762-4.84622,0-1.04692,0.13097-1.9192,0.39293-2.61958,0.26196-0.695825,0.65489-1.30979,1.17881-1.8337,0.52391-0.347458,1.13424-0.740394,1.83371-1.17881,0.69582-0.433868,1.48169-0.916852,2.35762-1.44077,0.1719-0.17191,0.34836-0.302888,0.52391-0.392936,0.17191-0.0855,0.34745-0.13098,0.52392-0.13098,1.21974-0.872282,2.09565-1.78913,2.61957-2.75056,0.52392-0.957784,0.78588-2.22664,0.78588-3.79839l-0.26196-3.66741-4.19132-18.599h-35.626l3.40545-15.7175h28.8154l-23.5762-103.473,3.14349-12.574h51.6057z" filter="url(#filter3919)" fill="#333"/>
   <path fill="#fefefe" d="m67.5606-197.705h-11.088c-0.608,0-1.056-0.104-1.344-0.312s-0.432-0.52-0.432-0.936c0-0.288,0.08-0.536,0.24-0.744s0.399-0.36,0.72-0.456c0.127-0.031,0.248-0.072,0.36-0.12,0.111-0.048,0.216-0.088,0.312-0.12,0.352-0.16,0.568-0.336,0.648-0.528,0.079-0.192,0.12-0.528,0.12-1.008v-23.52c0-0.448-0.041-0.768-0.12-0.96-0.081-0.192-0.296-0.367-0.648-0.528-0.096-0.032-0.2-0.072-0.312-0.12-0.113-0.048-0.233-0.088-0.36-0.12-0.32-0.096-0.56-0.248-0.72-0.456-0.161-0.208-0.24-0.456-0.24-0.744,0-0.448,0.151-0.775,0.456-0.984,0.304-0.208,0.744-0.312,1.32-0.312l0.624-0.048h10.464v32.016zm11.471-32.016v8.352c0,0.512-0.088,0.88-0.264,1.104s-0.473,0.336-0.888,0.336c-0.32,0-0.56-0.055-0.72-0.168-0.16-0.112-0.304-0.328-0.432-0.648-0.032-0.031-0.057-0.072-0.072-0.12-0.017-0.048-0.024-0.087-0.024-0.12-0.608-1.856-1.488-3.256-2.64-4.2-1.152-0.943-2.64-1.512-4.464-1.704v-2.832h9.504zm-9.504,14.352c0.896-0.416,1.56-0.872,1.992-1.368s0.744-1.176,0.936-2.04c0.16-0.608,0.328-1.024,0.504-1.248,0.175-0.224,0.472-0.336,0.888-0.336,0.448,0,0.752,0.136,0.912,0.408s0.24,0.792,0.24,1.56v8.832c0,0.768-0.081,1.289-0.24,1.56-0.16,0.272-0.464,0.408-0.912,0.408-0.352,0-0.624-0.104-0.816-0.312s-0.368-0.567-0.528-1.08c-0.256-1.088-0.624-1.92-1.104-2.496s-1.104-0.96-1.872-1.152v-2.736zm0,15.12c1.888-0.224,3.408-0.832,4.56-1.824,1.152-0.991,2.064-2.416,2.736-4.272,0.032-0.096,0.072-0.192,0.12-0.288s0.088-0.175,0.12-0.24c0.16-0.288,0.312-0.487,0.456-0.6,0.144-0.112,0.343-0.168,0.6-0.168,0.48,0,0.808,0.12,0.984,0.36,0.175,0.24,0.264,0.696,0.264,1.368v8.208h-9.84v-2.544zm-48.191,2.544h-0.624c-0.608,0-1.056-0.104-1.344-0.312s-0.432-0.52-0.432-0.936c0-0.288,0.08-0.536,0.24-0.744s0.399-0.36,0.72-0.456c0.127-0.031,0.248-0.072,0.36-0.12,0.111-0.048,0.216-0.088,0.312-0.12,0.352-0.16,0.567-0.336,0.648-0.528,0.079-0.192,0.12-0.528,0.12-1.008v-23.52c0-0.448-0.041-0.768-0.12-0.96-0.081-0.192-0.296-0.367-0.648-0.528-0.096-0.032-0.201-0.072-0.312-0.12-0.113-0.048-0.233-0.088-0.36-0.12-0.32-0.1-0.56-0.258-0.72-0.474-0.161-0.216-0.24-0.474-0.24-0.774,0-0.448,0.151-0.775,0.456-0.984,0.304-0.208,0.744-0.312,1.32-0.312l0.624-0.048h11.088c0.576,0.064,1,0.192,1.272,0.384,0.271,0.192,0.408,0.497,0.408,0.912,0,0.333-0.072,0.607-0.216,0.823s-0.376,0.375-0.696,0.473l-0.72,0.192c-0.224,0.097-0.392,0.273-0.504,0.529-0.113,0.256-0.168,0.609-0.168,1.058v23.466c0,0.449,0.055,0.809,0.168,1.082,0.112,0.273,0.28,0.441,0.504,0.505l0.72,0.192c0.32,0.124,0.552,0.286,0.696,0.486s0.216,0.455,0.216,0.762c0,0.417-0.136,0.72-0.408,0.912s-0.696,0.288-1.272,0.288h-11.088zm16.176-17.52v-10.183c0-0.414-0.056-0.75-0.168-1.004-0.113-0.255-0.281-0.414-0.504-0.479l-0.768-0.287c-0.288-0.069-0.504-0.208-0.648-0.416s-0.216-0.485-0.216-0.832c0-0.448,0.136-0.775,0.408-0.984,0.271-0.208,0.679-0.312,1.224-0.312l0.624-0.048h11.136c0.607,0.064,1.056,0.192,1.344,0.384s0.432,0.512,0.432,0.96c0,0.3-0.08,0.558-0.24,0.774-0.161,0.216-0.4,0.374-0.72,0.474-0.128,0.032-0.248,0.072-0.36,0.12s-0.216,0.088-0.312,0.12c-0.353,0.161-0.568,0.336-0.648,0.528s-0.12,0.528-0.12,1.008v23.424c0,0.512,0.04,0.864,0.12,1.056s0.28,0.368,0.6,0.528c0.096,0.032,0.208,0.072,0.336,0.12,0.127,0.048,0.256,0.088,0.384,0.12,0.32,0.096,0.56,0.249,0.72,0.456,0.16,0.208,0.24,0.456,0.24,0.744,0,0.417-0.152,0.729-0.456,0.936-0.304,0.208-0.744,0.312-1.32,0.312h-11.76c-0.545,0-0.953-0.096-1.224-0.288-0.272-0.192-0.408-0.496-0.408-0.912,0-0.288,0.08-0.543,0.24-0.768,0.16-0.224,0.367-0.384,0.624-0.48l0.768-0.288c0.223-0.032,0.391-0.184,0.504-0.456,0.112-0.271,0.168-0.616,0.168-1.032v-10.704h-3.792v-2.592h3.792zm-42.384-14.496v2.88c-0.8,0.48-1.448,1.176-1.944,2.088-0.497,0.912-0.873,2.04-1.128,3.384l-0.24,1.392c-0.064,0.512-0.224,0.896-0.48,1.152-0.256,0.257-0.576,0.384-0.96,0.384-0.417,0-0.752-0.144-1.008-0.432-0.257-0.288-0.384-0.656-0.384-1.104v-9.744h6.144zm12.384,27.552c0,0.608,0.072,1.024,0.216,1.248s0.487,0.416,1.032,0.576c0.096,0.032,0.184,0.056,0.264,0.072,0.08,0.017,0.168,0.041,0.264,0.072,0.352,0.064,0.631,0.2,0.84,0.408,0.208,0.208,0.312,0.472,0.312,0.792,0,0.448-0.168,0.776-0.504,0.984s-0.873,0.312-1.608,0.312h-12.096c-0.704,0-1.224-0.104-1.56-0.312s-0.504-0.536-0.504-0.984c0-0.32,0.096-0.583,0.288-0.792,0.192-0.208,0.463-0.344,0.816-0.408,0.127-0.031,0.24-0.055,0.336-0.072,0.096-0.016,0.175-0.04,0.24-0.072,0.543-0.16,0.879-0.352,1.008-0.576,0.127-0.224,0.192-0.624,0.192-1.2v-27.6h10.464v27.552zm8.064-17.904c0,0.48-0.128,0.864-0.384,1.152s-0.592,0.432-1.008,0.432c-0.384,0-0.705-0.136-0.96-0.408-0.257-0.271-0.432-0.632-0.528-1.08l-0.24-1.488c-0.225-1.312-0.584-2.424-1.08-3.336-0.497-0.912-1.145-1.591-1.944-2.04v-2.88h6.144v9.648zm363.868,143.582,2.016-7.104v7.776l-5.424,18.192h-1.2l-9.12-26.976c-0.032-0.096-0.071-0.199-0.12-0.312-0.048-0.112-0.088-0.231-0.119-0.36-0.225-0.512-0.465-0.88-0.721-1.104s-0.608-0.384-1.056-0.48c-0.513-0.096-0.896-0.264-1.152-0.504s-0.384-0.552-0.384-0.936c0-0.416,0.151-0.736,0.456-0.96,0.304-0.224,0.712-0.336,1.224-0.336l10.992-0.048,4.608,13.152zm-11.28,4.752v7.056c0,1.088,0.144,1.952,0.432,2.592,0.288,0.641,0.752,1.168,1.393,1.584l0.864,0.479c0.319,0.225,0.552,0.433,0.695,0.624,0.145,0.192,0.216,0.417,0.216,0.673,0,0.384-0.151,0.664-0.456,0.84-0.304,0.176-0.743,0.264-1.319,0.264h-5.856c-0.576,0-1.016-0.088-1.319-0.264-0.305-0.176-0.456-0.472-0.456-0.889,0-0.159,0.023-0.295,0.071-0.407,0.049-0.112,0.136-0.217,0.265-0.313,0.031-0.031,0.088-0.072,0.168-0.12,0.079-0.048,0.168-0.104,0.264-0.168,0.896-0.479,1.552-1.119,1.968-1.92,0.416-0.8,0.624-1.776,0.624-2.928v-14.208l2.446,7.105zm25.727-17.904h0.624c0.576,0.064,1.009,0.192,1.297,0.384,0.287,0.192,0.432,0.512,0.432,0.96,0,0.288-0.072,0.536-0.216,0.744-0.145,0.208-0.377,0.36-0.696,0.456-0.128,0.032-0.257,0.072-0.384,0.12-0.128,0.048-0.24,0.088-0.336,0.12-0.353,0.161-0.568,0.336-0.648,0.528s-0.12,0.528-0.12,1.008v23.423c0,0.513,0.04,0.864,0.12,1.057,0.08,0.191,0.296,0.368,0.648,0.527,0.096,0.033,0.208,0.072,0.336,0.12,0.127,0.049,0.256,0.089,0.384,0.12,0.319,0.097,0.552,0.248,0.696,0.456,0.144,0.209,0.216,0.456,0.216,0.744,0,0.416-0.145,0.729-0.432,0.937-0.288,0.208-0.721,0.312-1.297,0.312h-11.951c-0.705,0-1.225-0.104-1.561-0.312s-0.504-0.536-0.504-0.984c0-0.319,0.096-0.584,0.288-0.792s0.464-0.344,0.816-0.408c0.127-0.031,0.239-0.056,0.336-0.072,0.096-0.016,0.175-0.039,0.239-0.071,0.544-0.16,0.88-0.353,1.009-0.576,0.127-0.224,0.191-0.624,0.191-1.2v-27.6h10.513zm-52.126,10.848-4.177,15.12c-0.032,0.128-0.056,0.248-0.071,0.359-0.017,0.113-0.024,0.217-0.024,0.313-0.032,0.096-0.048,0.2-0.048,0.312v0.313c0,0.448,0.12,0.856,0.359,1.224,0.24,0.368,0.584,0.648,1.032,0.84l0.769,0.337c0.256,0.16,0.456,0.344,0.6,0.552,0.145,0.208,0.216,0.44,0.216,0.696,0,0.352-0.152,0.623-0.456,0.815-0.305,0.192-0.728,0.288-1.271,0.288h-5.952c-0.545,0-0.992-0.111-1.344-0.336-0.353-0.224-0.528-0.528-0.528-0.912,0-0.256,0.079-0.479,0.24-0.672,0.159-0.192,0.432-0.367,0.815-0.528,0.992-0.447,1.72-0.96,2.185-1.536,0.463-0.575,0.855-1.471,1.176-2.688l5.28-19.344,1.199,4.847zm9.888-10.848,6.479,27.552c0.032,0.128,0.056,0.232,0.072,0.312,0.016,0.081,0.04,0.168,0.072,0.265,0.127,0.448,0.279,0.776,0.456,0.983,0.175,0.209,0.439,0.377,0.792,0.504,0.031,0.032,0.071,0.057,0.12,0.072,0.048,0.017,0.087,0.024,0.12,0.024,0.319,0.16,0.535,0.328,0.647,0.504,0.111,0.176,0.168,0.408,0.168,0.696,0,0.352-0.152,0.623-0.456,0.815-0.305,0.192-0.761,0.288-1.368,0.288h-11.712c-0.448,0-0.815-0.104-1.104-0.312s-0.433-0.505-0.433-0.889c0-0.191,0.024-0.352,0.072-0.479s0.12-0.24,0.216-0.336c0.097-0.064,0.208-0.136,0.336-0.217,0.128-0.079,0.271-0.168,0.433-0.264,0.031-0.031,0.063-0.056,0.096-0.072,0.031-0.016,0.063-0.023,0.096-0.023,0.224-0.16,0.385-0.328,0.48-0.504s0.144-0.408,0.144-0.696l-0.048-0.672-0.768-3.408h-6.528l0.624-2.88h5.28l-4.32-18.96,0.576-2.304h9.458zm-34.176,32.016h-11.088c-0.608,0-1.057-0.104-1.345-0.312-0.287-0.208-0.432-0.521-0.432-0.937,0-0.288,0.079-0.535,0.24-0.744,0.159-0.208,0.399-0.359,0.72-0.456,0.128-0.031,0.248-0.071,0.36-0.12,0.111-0.048,0.216-0.087,0.312-0.12,0.352-0.159,0.568-0.336,0.648-0.527,0.079-0.192,0.12-0.528,0.12-1.008v-23.521c0-0.448-0.041-0.768-0.12-0.96-0.08-0.192-0.297-0.367-0.648-0.528-0.096-0.032-0.2-0.072-0.312-0.12s-0.232-0.088-0.36-0.12c-0.32-0.096-0.561-0.248-0.72-0.456-0.161-0.208-0.24-0.456-0.24-0.744,0-0.448,0.151-0.775,0.456-0.984,0.304-0.208,0.744-0.312,1.32-0.312l0.624-0.048h10.464v32.017zm11.472-32.016v8.352c0,0.512-0.088,0.88-0.264,1.104-0.177,0.224-0.473,0.336-0.889,0.336-0.319,0-0.56-0.055-0.72-0.168-0.16-0.112-0.305-0.328-0.432-0.648-0.032-0.031-0.057-0.072-0.072-0.12-0.017-0.048-0.023-0.087-0.023-0.12-0.608-1.856-1.488-3.256-2.641-4.2-1.151-0.943-2.64-1.512-4.464-1.704v-2.832h9.505zm-9.504,14.352c0.896-0.416,1.56-0.872,1.992-1.368s0.744-1.176,0.936-2.04c0.16-0.608,0.328-1.024,0.504-1.248s0.472-0.336,0.889-0.336c0.447,0,0.751,0.136,0.912,0.408,0.159,0.272,0.239,0.792,0.239,1.56v8.832c0,0.768-0.08,1.289-0.239,1.56-0.161,0.272-0.465,0.408-0.912,0.408-0.353,0-0.624-0.104-0.816-0.312-0.191-0.208-0.368-0.567-0.528-1.08-0.256-1.088-0.624-1.92-1.104-2.496s-1.104-0.96-1.872-1.152v-2.736zm0,15.12c1.888-0.224,3.408-0.832,4.56-1.824,1.152-0.991,2.064-2.416,2.736-4.272,0.031-0.096,0.072-0.192,0.12-0.288s0.088-0.175,0.12-0.24c0.159-0.288,0.312-0.487,0.456-0.6,0.144-0.112,0.344-0.168,0.6-0.168,0.48,0,0.808,0.12,0.984,0.36s0.264,0.696,0.264,1.368v8.208h-9.84v-2.544zm-38.16-29.472v2.88c-0.8,0.48-1.447,1.176-1.943,2.088s-0.873,2.04-1.128,3.384l-0.24,1.392c-0.064,0.512-0.224,0.896-0.479,1.152-0.257,0.257-0.576,0.384-0.961,0.384-0.416,0-0.752-0.144-1.008-0.432s-0.384-0.656-0.384-1.104v-9.744h6.143zm12.385,27.552c0,0.608,0.072,1.024,0.216,1.248s0.487,0.416,1.032,0.576c0.096,0.032,0.184,0.056,0.264,0.071,0.079,0.017,0.168,0.041,0.264,0.072,0.353,0.064,0.632,0.2,0.84,0.408s0.313,0.473,0.313,0.792c0,0.448-0.168,0.776-0.504,0.984s-0.872,0.312-1.607,0.312h-12.097c-0.704,0-1.224-0.104-1.56-0.312s-0.504-0.536-0.504-0.984c0-0.319,0.096-0.584,0.287-0.792,0.192-0.208,0.464-0.344,0.816-0.408,0.127-0.031,0.24-0.056,0.336-0.072s0.176-0.039,0.24-0.071c0.543-0.16,0.879-0.353,1.008-0.576,0.127-0.224,0.191-0.624,0.191-1.2v-27.6h10.465v27.552zm8.063-17.904c0,0.48-0.128,0.864-0.384,1.152-0.257,0.288-0.593,0.432-1.008,0.432-0.384,0-0.704-0.136-0.96-0.408-0.257-0.271-0.433-0.632-0.528-1.08l-0.24-1.488c-0.224-1.312-0.584-2.424-1.08-3.336s-1.145-1.591-1.943-2.04v-2.88h6.144v9.648zm-40.3593,10.201v3.8115c0,0.449037-0.0976,0.757823-0.29314,0.925179-0.19543,0.167358-0.53336,0.252215-1.00971,0.252215h-13.68c-0.47908,0.03772-0.8143-0.02829-1.00972-0.199179-0.19543-0.170892-0.29314-0.466714-0.29314-0.885107v-3.93996c0-0.380679,0.0977-0.656465,0.29314-0.827357,0.19542-0.170893,0.532-0.256929,1.00972-0.256929h13.68c0.47771,0.03772,0.81428,0.14025,1.00971,0.308786,0.19543,0.168535,0.29314,0.458464,0.29314,0.868607v-0.05775zm-138.256-101.928-22.791,82.5171c-0.17555,0.700373-0.30653,1.35527-0.392942,1.96468-0.09005,0.613964-0.130979,1.17881-0.130979,1.70272-0.176457,0.523915-0.261957,1.0924-0.261957,1.70272v1.70273c0,2.44767,0.654898,4.67431,1.96468,6.67992,1.3098,2.00925,3.18443,3.53643,5.6321,4.58426l4.19132,1.8337c1.3962,0.875921,2.48859,1.87827,3.27447,3.01251,0.78587,1.13788,1.17881,2.4031,1.17881,3.79839,0,1.92375-0.83135,3.40545-2.4886,4.45328-1.66179,1.04692-3.97484,1.57175-6.94187,1.57175h-32.4813c-2.97158,0-5.41561-0.610325-7.33482-1.8337-1.92375-1.22065-2.88154-2.88154-2.88154-4.97811,0-1.39529,0.433868-2.61958,1.30979-3.66741,0.871373-1.04783,2.35762-2.00561,4.45328-2.88154,5.41106-2.44403,9.385-5.23916,11.9191-8.38265,2.52953-3.14349,4.67067-8.03064,6.41796-14.6696l28.8154-105.569,6.54894,26.4586zm53.9633-59.2024,35.3643,150.364c0.17191,0.700373,0.30289,1.26886,0.39294,1.70273,0.0855,0.437505,0.21648,0.916852,0.39293,1.44077,0.69583,2.44767,1.52627,4.2368,2.4886,5.37013,0.95779,1.13788,2.39856,2.05473,4.3223,2.75056,0.17191,0.175548,0.39294,0.306526,0.6549,0.392936,0.26196,0.09005,0.47935,0.130979,0.65489,0.130979,1.74367,0.875921,2.92247,1.79277,3.53643,2.75056,0.60942,0.961421,0.91685,2.22664,0.91685,3.79839,0,1.92375-0.83135,3.40545-2.4886,4.45328-1.66179,1.04692-4.15038,1.57175-7.46579,1.57175h-63.9177c-2.44767,0-4.45328-0.564846-6.02502-1.70272-1.57175-1.13333-2.35762-2.75056-2.35762-4.84622,0-1.04692,0.13097-1.9192,0.39293-2.61958,0.26196-0.695825,0.65489-1.30979,1.17881-1.8337,0.52391-0.347458,1.13424-0.740394,1.83371-1.17881,0.69582-0.433868,1.48169-0.916852,2.35762-1.44077,0.1719-0.17191,0.34836-0.302888,0.52391-0.392936,0.17191-0.0855,0.34745-0.13098,0.52392-0.13098,1.21974-0.872282,2.09565-1.78913,2.61957-2.75056,0.52392-0.957784,0.78588-2.22664,0.78588-3.79839l-0.26196-3.66741-4.19132-18.599h-35.6263l3.40545-15.7175h28.8154l-23.5762-103.473,3.14349-12.574h51.6057z"/>
  </g>
 </g>
</svg>
