<?xml version="1.0" standalone="yes"?>
<!DOCTYPE svg PUBLIC "-//W3C//DTD SVG 1.1//EN" "http://www.w3.org/Graphics/SVG/1.1/DTD/svg11.dtd">
<svg xmlns="http://www.w3.org/2000/svg" xmlns:xlink="http://www.w3.org/1999/xlink" version="1.1" width="5882.9" height="4504.1" viewBox="-28007,-22659 58829,45041">
<clipPath id="state_clip_path">
<g id="state_outline">
<path id="Wyoming" d="M 28852,-22659 l 8,188 209,4554 17,360 35,724 150,3249 15,329 4,86 2,28 2,53 13,284 4,101 3,71 39,886 7,162 2,53 35,747 7,157 15,309 7,162 8,219 1,24 26,551 17,382 4,109 8,215 7,140 6,131 21,466 13,274 36,805 3,74 34,708 11,233 5,61 4,106 5,157 19,348 17,365 47,1021 43,945 7,162 29,769 63,1394 6,0 1,16 32,754 157,3560 252,5827 41,948 2,50 145,3304 1,32 64,1466 82,1892 171,4122 8,243 -732,29 -2797,104 -126,4 -615,22 -62,2 -343,-6 -40,-1 -170,-3 -261,20 -159,12 -149,11 -1080,82 -35,1 -878,30 -33,1 -1416,47 -1392,36 -111,10 -552,14 -1025,25 -368,8 -1266,30 -159,4 -66,2 -1537,35 -164,3 -220,2 -103,3 -281,15 -205,12 -231,14 -40,0 -268,4 -65,1 -159,1 -917,7 -6,1 -56,0 -958,11 -37,-17 -36,-15 -4,-2 -46,1 -169,4 -231,1 -579,0 -67,1 -256,6 -481,1 -241,4 -82,1 -77,4 -2295,20 -1163,7 -200,3 -922,14 -794,6 -641,5 -102,0 -215,2 -200,3 -231,2 -158,2 -369,4 -313,1 -123,1 -36,0 -128,1 -640,-2 -605,1 -907,0 -241,-1 -327,0 -236,-1 -67,-1 -656,0 -292,3 -1516,10 -318,1 -373,2 -969,0 -1614,-21 -523,-8 -164,-2 -795,-5 -164,-2 -1233,-16 -164,-2 -348,-6 -640,-8 -270,-10 -181,-3 -132,-4 -655,-20 -190,-5 -7,0 -131,-1 -1743,-16 -221,-3 -19,0 -288,-5 -31,0 -671,-12 -21,-1 -297,-8 -144,-3 -102,-3 -117,-3 -164,-4 -339,-6 -686,-16 -635,-15 -470,-12 -489,-11 -407,-7 -74,-1 -870,-15 -289,-5 -193,-2 -458,-3 -34,-1 -1787,-63 -32,-1 -9,-1 -123,-4 -318,-12 -8,0 -151,-5 -71,-3 -41,-2 -41,-1 -2,0 -167,-6 -159,-6 -164,-6 -1122,-43 -353,-14 -1920,-73 103,-2718 4,-98 29,-771 6,-156 6,-161 12,-328 6,-171 6,-156 6,-162 12,-312 37,-973 17,-437 64,-1715 32,-812 13,-307 13,-323 32,-822 29,-710 0,-10 4,-97 35,-989 20,-453 14,-334 17,-454 27,-732 7,-182 54,-1473 8,-142 -3,-91 31,-740 5,-2 43,-1090 20,-439 29,-601 17,-328 30,-596 13,-323 11,-258 3,-65 35,-880 43,-1020 1,-19 13,-355 12,-353 25,-637 1,-35 12,-288 12,-309 42,-929 16,-355 80,-2068 -8,-8 3,-63 20,-490 1,-56 4,-157 35,-895 34,-860 63,-1717 42,-1149 2,-33 16,-491 29,-861 10,-276 39,-1020 6,-165 101,-2615 35,-2109 167,-3698 87,3 1904,54 143,4 53,2 536,119 997,39 1185,45 222,8 242,-50 1347,75 536,-72 4,0 1054,25 1154,28 438,9 559,13 250,3 1104,20 513,13 138,3 20,0 337,7 136,2 560,10 91,2 142,2 397,7 199,3 116,3 11,0 163,2 41,0 33,1 88,0 26,2 132,7 521,35 53,4 280,3 361,10 128,1 183,0 158,3 163,3 157,2 163,3 325,5 611,3 158,0 203,4 210,4 259,4 117,1 167,2 209,0 117,1 163,1 158,1 162,3 158,3 26,0 163,1 361,1 162,1 158,1 255,4 524,0 224,2 87,2 4,1 31,4 152,1 804,3 154,1 19,0 315,3 480,4 289,2 427,1 117,1 366,-1 1608,2 600,-4 2152,-4 518,-2 1811,26 82,-3 1461,-16 474,-6 494,-6 3271,-48 23,0 968,-20 796,-8 33,0 159,-2 127,-1 533,-18 81,-40 24,-11 178,-4 1079,-24 494,-12 28,-1 135,-2 703,-15 2367,-60 32,-1 125,-4 163,-5 68,-2 90,-2 1099,-25 361,-9 19,-1 1034,-34 92,-1 92,-2 70,-1 138,-6 25,0 265,-8 56,-2 85,-4 78,-3 259,-7 479,-13 82,-3 311,-11 163,-5 247,-9 51,-1 114,-5 595,-24 817,-36 815,-36 564,-22 180,-4 163,-5 110,-5 513,-25 153,0 z" />
</g>
</clipPath>
<g stroke="black" fill="none" stroke-linejoin="round" stroke-width="94" clip-path="url(#state_clip_path)">
<use xlink:href="#state_outline" fill="white" stroke-width="411" />
<path id="Albany" d="M 20034,6201 l 20,783 15,378 10,268 31,813 5,156 30,772 0,197 5,454 59,-5 38,479 10,162 11,156 5,136 35,853 0,141 25,1918 -63,6 47,946 217,7294 -111,10 -552,14 -1025,25 -368,8 -1266,30 -159,4 -66,2 -1537,35 -164,3 -220,2 -103,3 -281,15 -205,12 -231,14 -40,0 -268,4 -65,1 -159,1 -917,7 -6,1 -56,0 -958,11 -37,-17 -14,-484 -10,-338 -4,-317 -19,-832 -10,-418 -5,-101 -19,-665 -13,-1205 1746,-49 148,-5 226,0 -39,-1915 -19,-646 -5,-166 -10,-207 -34,-1049 -5,-161 -5,-323 5,-161 -10,-177 -5,-161 -5,-162 1,-161 0,-161 -5,-162 -10,-161 0,-157 -5,-161 0,-161 -28,-1726 -10,-666 -34,-974 -5,-151 0,-162 -10,-161 0,-167 -4,-621 -5,-323 -5,-156 -5,-162 419,-9 190,-5 163,-5 322,0 164,-5 276,-5 1130,-20 169,5 481,-5 158,0 803,-21 10,258 -164,5 5,166 5,162 -312,10 5,313 5,162 5,156 5,167 164,0 0,156 163,-5 307,0 174,-10 317,-16 793,-30 5,-106 -15,-222 138,-5 -20,-611 163,-5 -5,-328 154,-5 -5,-152 0,-116 97,-5 61,-5 26,-5 15,-5 87,-10 z" />
<path id="Big_Horn" d="M -7129,-22089 l 209,0 117,1 163,1 158,1 162,3 158,3 26,0 163,1 361,1 162,1 158,1 255,4 524,0 224,2 87,2 4,1 31,4 152,1 804,3 154,1 19,0 315,3 480,4 289,2 427,1 15,17 1,36 78,-11 9,14 39,52 22,-10 61,66 3,5 10,50 5,61 0,26 5,18 29,112 -11,64 0,61 -21,18 0,11 -13,36 -2,89 10,43 45,31 42,38 38,36 23,34 55,49 16,27 -5,38 5,18 14,41 -19,58 -52,71 -3,86 -15,54 -21,72 31,56 38,15 74,67 25,25 18,92 52,65 19,67 34,55 5,26 -31,54 23,37 47,29 36,8 13,36 -5,73 -24,37 -91,70 -8,44 3,78 29,-13 42,0 2,4 66,46 61,25 1,3 99,48 91,78 191,0 41,48 -18,95 76,67 -18,85 34,57 -10,146 -47,46 76,100 82,-18 152,59 232,84 -12,113 77,129 57,13 79,-41 48,-99 215,-17 37,2 107,-40 76,61 87,21 127,96 56,26 25,56 31,15 71,76 76,21 20,45 -15,46 -21,81 -25,91 15,56 66,31 92,5 81,-46 71,1 36,76 5,71 15,132 107,5 86,25 76,31 133,21 97,-81 10,91 66,21 96,40 82,11 71,30 31,16 45,76 15,66 64,216 -13,83 40,61 26,25 61,41 37,-2 1,1 149,-4 79,109 -39,92 268,245 -25,184 -65,10 53,91 -35,126 27,67 171,-12 40,41 -37,50 156,41 28,63 116,37 161,-62 31,-67 128,48 -21,110 9,131 23,60 5,137 -1,72 84,16 47,-58 47,0 69,110 -59,184 90,39 32,56 -93,86 -104,21 -21,130 90,15 37,114 77,-1 57,30 -41,79 42,34 92,-20 2,260 -8,1501 -11235,-50 -188,-1 9,-164 1,-167 1,-162 1,-324 1,-173 1,-308 -4,-163 2,-491 6,-137 1,-349 1,-147 6,-177 0,-137 6,-167 9,-867 -127,-5 0,-163 -1,-821 -4,-162 6,-284 1,-182 6,-315 1,-141 0,-168 3,-649 4,-867 -198,-6 -5,-152 1,-91 -1,-1010 z" />
<path id="Campbell" d="M 20732,-22366 l 26,347 27,974 76,-10 21,893 6,162 -71,0 5,330 11,329 10,320 21,507 0,162 16,299 31,928 11,182 5,157 0,168 141,3368 46,0 1,426 5,162 21,1367 -30,5 16,683 5,162 5,127 5,243 21,582 5,152 31,5 21,971 10,324 11,329 5,172 5,157 6,172 5,162 10,298 11,329 5,162 5,177 5,162 11,238 -1297,36 -158,10 -163,5 -164,6 -158,5 -163,0 -163,5 -322,10 -817,26 -168,5 -1291,36 -2726,91 -54,-2970 -15,-668 92,-5 -5,-308 -5,-162 0,-162 -5,-162 -20,-1134 -5,-299 -5,-162 -5,-167 -5,-157 0,-172 -10,-157 -10,-324 -5,-167 -5,-157 -5,-167 -81,0 -10,-299 -10,-324 -26,-820 -4,-836 -10,-324 0,-487 -5,-182 -5,-157 -5,-168 -5,-147 -5,-157 71,-5 -10,-491 -35,-3078 -5,-325 -71,0 -5,-314 -15,-487 0,-203 -10,-387 127,-1 533,-18 81,-40 24,-11 178,-4 1079,-24 494,-12 28,-1 135,-2 703,-15 2367,-60 32,-1 125,-4 163,-5 68,-2 90,-2 z" />
<path id="Carbon" d="M 13509,6358 l 5,162 5,156 5,323 4,621 0,167 10,161 0,162 5,151 34,974 10,666 28,1726 0,161 5,161 0,157 10,161 5,162 0,161 -1,161 5,162 5,161 10,177 -5,161 5,323 5,161 34,1049 10,207 5,166 19,646 39,1915 -226,0 -148,5 -1746,49 13,1205 19,665 5,101 10,418 19,832 4,317 10,338 14,484 -36,-15 -4,-2 -46,1 -169,4 -231,1 -579,0 -67,1 -256,6 -481,1 -241,4 -82,1 -77,4 -2295,20 -1163,7 -200,3 -922,14 -794,6 -641,5 -102,0 -215,2 -200,3 -231,2 -158,2 -369,4 -313,1 -123,1 -36,0 -128,1 -640,-2 -605,1 -907,0 -241,-1 -327,0 -236,-1 -67,-1 -230,0 -13,-2460 12,-1945 -118,0 1,-142 -5,-166 0,-161 -4,-167 -5,-161 1,-166 0,-172 1,-161 6,-166 0,-162 1,-166 0,-126 1,-166 0,-162 1,-161 0,-166 1,-162 0,-151 159,0 164,1 158,0 164,1 159,1 302,0 158,1 164,0 164,1 164,0 159,1 184,0 159,1 158,5 164,1 154,0 148,1 159,0 158,6 323,0 72,1 -5,-132 0,-161 1,-166 -5,-162 1,-161 0,-303 1,-161 0,-171 6,-162 0,-161 1,-161 0,-167 1,-161 0,-167 1,-156 -5,-166 0,-142 1,-141 -5,-161 1,-167 0,-161 -5,-162 1,-146 0,-171 1,-157 0,-166 1,-162 0,-328 -184,-5 18,-954 1,-161 -14,-636 1,-151 0,-162 -3,-812 1,-162 1,-318 -5,-166 1,-313 644,-9 159,1 158,-5 138,1 343,-5 307,-4 163,5 798,-8 153,0 655,-3 158,0 854,7 107,0 98,-5 56,0 526,6 210,0 107,-4 118,-5 317,0 373,-4 174,0 77,5 174,0 557,-4 82,0 66,-5 72,0 481,-4 429,0 61,1 251,-5 92,0 547,-15 92,0 92,-5 164,-5 480,-9 149,-5 66,-5 762,-20 164,-5 30,5 144,-5 z" />
<path id="Converse" d="M 22783,-5761 l 1,253 15,323 16,617 5,334 27,1001 52,1567 5,162 21,485 93,2259 108,1984 51,899 -1441,83 -966,46 -644,36 -138,10 46,1903 -67,1 -87,10 -15,5 -26,5 -61,5 -97,5 0,116 5,152 -154,5 5,328 -163,5 20,611 -138,5 15,222 -5,106 -793,30 -317,16 -174,10 -307,0 -163,5 0,-156 -164,0 -5,-167 -5,-156 -5,-162 -5,-313 312,-10 -5,-162 -5,-166 164,-5 -10,-258 -803,21 -158,0 -481,5 -169,-5 -1130,20 -276,5 -164,5 -322,0 -163,5 -190,5 -419,9 6,-318 -25,-646 -15,-621 -5,-161 -14,-828 -35,-1273 67,-5 -30,-884 -55,-1667 0,-162 -5,-172 -9,-485 0,-161 -10,-470 0,-162 -14,-809 0,-156 -5,-334 0,-157 -5,-627 1,-323 0,-182 -10,-961 -4,-232 377,-10 2726,-91 1291,-36 168,-5 817,-26 322,-10 163,-5 163,0 158,-5 164,-6 163,-5 158,-10 1297,-36 142,-6 689,-41 332,-21 153,-5 z" />
<path id="Crook" d="M 21112,-22376 l 1034,-34 92,-1 92,-2 70,-1 138,-6 25,0 265,-8 56,-2 85,-4 78,-3 259,-7 479,-13 82,-3 311,-11 163,-5 247,-9 51,-1 114,-5 595,-24 817,-36 815,-36 564,-22 180,-4 163,-5 110,-5 513,-25 153,0 189,-11 8,188 209,4554 17,360 35,724 150,3249 -624,32 -2253,91 -448,21 -999,33 -173,5 -826,32 -337,16 -321,10 -127,6 -153,5 -968,37 -928,46 -46,0 -141,-3368 0,-168 -5,-157 -11,-182 -31,-928 -16,-299 0,-162 -21,-507 -10,-320 -11,-329 -5,-330 71,0 -6,-162 -21,-893 -76,10 -27,-974 -26,-347 361,-9 z" />
<path id="Fremont" d="M -12817,-8985 l 30,66 31,-5 102,1 30,66 71,26 20,65 -5,41 0,66 40,30 41,36 51,15 51,36 4,91 158,31 127,269 35,96 35,56 66,102 61,96 162,102 -5,127 -35,738 960,35 969,35 -1,183 954,14 4,294 944,14 8,470 949,9 -6,359 969,10 -1,318 965,14 -1,132 1475,20 6,-151 214,5 434,7 960,18 173,1 490,2 169,-5 137,1 169,-10 184,0 627,2 169,1 480,-4 178,1 148,0 -4,-308 500,6 -6,303 199,-4 -1,490 -12,465 10,329 -6,162 -1,475 -1,490 -2,450 0,137 -7,808 163,0 -59,960 -5,162 -1,162 5,161 19,475 0,182 4,329 -2,479 5,152 0,162 4,166 -1,480 -358,-1 13,778 0,161 -1,445 -1,242 0,141 -1,162 5,162 -2,494 0,318 5,21 4,292 -1,142 0,353 4,156 164,-4 -1,313 5,166 -1,318 -1,162 3,812 0,162 -159,-1 -818,-2 -164,0 -164,-1 -322,-6 -317,-1 -174,0 -317,-1 -470,-7 -164,0 -798,2 -158,0 -783,-8 -164,-1 -818,-13 -158,0 -860,-24 -158,0 -767,7 -159,-1 -823,-19 -169,0 -787,-9 -149,0 -624,2 -189,-11 -159,-1 -322,-6 -971,-15 -491,-13 6,-161 14,-817 5,-162 19,-747 -215,-1 1,-166 4,-813 6,-157 1,-328 7,-389 3,-732 2,-333 -445,3 -55,-192 -35,-101 -71,-107 -46,-106 -56,-61 -173,-112 -107,-81 -81,-66 -67,-6 -51,30 -31,30 -127,-36 -36,-30 6,-106 20,-46 57,-65 184,-70 -66,-111 -173,-52 -107,-25 -128,-107 -81,-142 -152,-233 -107,-26 -122,-132 -30,-61 21,-192 -76,-96 -71,-212 -71,-72 -20,-91 -117,-132 -92,81 -107,-21 5,-35 -66,-71 -4,-3 -143,-99 -138,-112 -127,-57 -15,-60 -51,-91 -86,-51 -87,-51 -91,-102 -117,-82 -72,-35 -122,-1 -133,-31 -41,-51 11,-81 11,-121 -35,-86 -46,-36 10,-70 154,-65 -81,-132 -45,-116 -56,-152 -45,-51 -82,-16 -112,-137 -132,-127 -61,-96 -34,-218 -35,-71 -46,-40 -97,-77 -61,-66 -70,-192 -50,-233 -15,-86 21,-101 16,-66 -10,-81 -35,-76 -15,-45 16,-91 0,-71 -25,-46 -5,-81 31,-40 21,-111 5,-15 21,-91 -50,-122 -20,-60 -46,-51 -30,-41 -5,-116 26,-111 -15,-81 6,-106 -86,-97 -153,14 -113,106 -133,-41 2,-248 40,-829 -214,-6 -322,-13 -1918,-72 162,-5994 110,10 45,40 41,77 5,45 19,66 36,66 25,61 30,26 25,61 0,50 10,71 61,41 61,0 97,-45 72,-24 127,-25 61,31 71,46 87,36 86,26 199,16 92,-35 97,-24 21,10 92,-80 15,-31 15,112 -46,85 -72,56 -16,81 20,30 67,-5 9,61 -10,86 14,102 137,122 128,41 -52,136 -52,46 96,182 -31,41 -112,80 -118,14 -36,86 40,102 61,56 198,168 127,92 163,-35 128,-39 124,-146 209,-70 21,-10 112,-24 178,-10 169,-24 46,-40 -50,-91 -9,-213 82,-111 62,-116 -15,-152 16,-45 41,-101 148,-50 154,-70 15,-56 1,-60 16,-76 25,-30 51,10 61,76 30,36 36,0 56,-35 52,-50 36,-61 41,-45 92,-30 86,82 65,106 77,61 96,11 37,-86 76,-60 149,-50 55,61 30,142 97,46 92,26 35,122 96,51 117,81 5,112 203,153 30,46 10,30 20,35 0,11 5,35 10,41 5,30 -10,35 5,21 -1,70 10,31 16,10 35,46 26,10 71,-25 46,5 137,92 66,46 40,112 z" />
<path id="Goshen" d="M 30056,3833 l 252,5827 41,948 2,50 145,3304 1,32 64,1466 -4977,196 -46,-948 -82,-2119 -175,-4152 -125,-3407 -11,-970 292,-16 158,-5 976,-37 966,-52 1927,-75 z" />
<path id="Hot_Springs" d="M -12817,-8985 l 1255,7 561,-17 -18,-456 -14,-395 1,-111 449,12 352,-3 107,6 331,-4 179,1 0,-172 -4,-152 3,-633 199,1 316,7 479,7 -8,-324 -8,-668 836,19 148,1 179,5 148,1 163,1 158,6 168,5 143,1 163,-4 316,-9 -7,334 0,167 -2,324 0,147 321,6 168,1 -3,820 -1,157 811,13 163,1 -17,647 958,4 -6,303 311,7 566,12 837,18 199,0 2,805 5,162 780,-3 158,-4 194,0 158,6 159,-5 321,6 153,1 4,334 -1,298 4,304 153,0 184,1 480,-4 132,0 4,501 -1,329 5,151 -1,157 5,329 -6,157 4,308 -148,0 -178,-1 -480,4 -169,-1 -627,-2 -184,0 -169,10 -137,-1 -169,5 -490,-2 -173,-1 -960,-18 -434,-7 -214,-5 -6,151 -1475,-20 1,-132 -965,-14 1,-318 -969,-10 6,-359 -949,-9 -8,-470 -944,-14 -4,-294 -954,-14 1,-183 -969,-35 -960,-35 35,-738 5,-127 -162,-102 -61,-96 -66,-102 -35,-56 -35,-96 -127,-269 -158,-31 -4,-91 -51,-36 -51,-15 -41,-36 -40,-30 0,-66 5,-41 -20,-65 -71,-26 -30,-66 -102,-1 -31,5 z" />
<path id="Johnson" d="M 13547,-17345 l 10,491 -71,5 5,157 5,147 5,168 5,157 5,182 0,487 10,324 4,836 26,820 10,324 10,299 81,0 5,167 5,157 5,167 10,324 10,157 0,172 5,157 5,167 5,162 5,299 20,1134 5,162 0,162 5,162 5,308 -92,5 15,668 54,2970 -377,10 -1460,29 -332,5 -163,0 -158,5 -485,14 -128,-5 -316,10 -159,0 -158,5 -158,-1 -107,5 -337,5 -306,5 -1450,13 -480,4 -331,-5 -220,4 -913,9 -271,4 -485,10 0,-61 -4,-172 0,-324 -5,-141 -30,0 0,-162 -4,-167 0,-324 -5,-167 -2,-1113 6,-632 1,-152 0,-177 -112,0 -32,-1938 -9,-618 -4,-162 0,-116 5,-56 -16,-977 -148,1 8,-1501 -2,-260 -92,20 -42,-34 41,-79 -57,-30 -77,1 -37,-114 -90,-15 21,-130 104,-21 93,-86 -32,-56 -90,-39 59,-184 -69,-110 -47,0 -47,58 -84,-16 1,-72 -5,-137 -23,-60 -9,-131 21,-110 -128,-48 -31,67 -161,62 -116,-37 -28,-63 -156,-41 37,-50 -40,-41 -171,12 -27,-67 35,-126 -53,-91 65,-10 25,-184 -268,-245 39,-92 -79,-109 -149,4 -1,-1 -37,2 -61,-41 -26,-25 -40,-61 13,-83 1866,11 1609,-17 3367,-36 2460,-89 168,-10 1080,-40 162,-5 z" />
<path id="Laramie" d="M 20317,14814 l 891,9 941,-31 963,-31 2426,-53 46,948 4977,-196 82,1892 171,4122 8,243 -732,29 -2797,104 -126,4 -615,22 -62,2 -343,-6 -40,-1 -170,-3 -261,20 -159,12 -149,11 -1080,82 -35,1 -878,30 -33,1 -1416,47 -1392,36 z" />
<path id="Lincoln" d="M -26983,-3834 l 584,10 358,13 -17,242 260,2 638,15 14,655 1913,72 -41,1214 -78,-2 -132,3747 -4,78 -312,-12 -30,792 286,7 -48,1924 -48,984 409,19 -41,923 -19,459 -6,202 -12,308 153,6 379,18 271,7 158,1 169,6 158,6 328,18 174,6 102,6 700,35 164,6 92,5 71,6 154,16 670,50 291,12 -85,2926 68,-1 -1,83 -144,4689 -1877,-68 -158,-6 -159,-6 -164,-1 -164,-6 -158,-6 -159,-6 -164,-2 -158,-1 -164,-6 -144,-6 -153,-6 -159,-6 -169,-6 -158,-11 -164,-7 -159,-6 -322,-12 -164,-1 -159,-7 -169,-6 -153,-6 -179,-6 -159,-6 -159,-2 -163,-6 -164,-6 -133,-1 -164,-6 -164,-7 -159,-11 -163,-6 -164,-6 -143,-7 -190,-6 -159,-1 -163,-7 -159,-1 -164,-1 -102,-6 -77,-5 64,-1715 32,-812 13,-307 13,-323 32,-822 29,-710 0,-10 4,-97 35,-989 20,-453 14,-334 17,-454 27,-732 7,-182 54,-1473 8,-142 -3,-91 31,-740 5,-2 43,-1090 20,-439 29,-601 17,-328 30,-596 13,-323 11,-258 3,-65 35,-880 43,-1020 1,-19 13,-355 12,-353 25,-637 1,-35 12,-288 12,-309 42,-929 z" />
<path id="Natrona" d="M 4925,-5383 l 0,61 485,-10 271,-4 913,-9 220,-4 331,5 480,-4 1450,-13 306,-5 337,-5 107,-5 158,1 158,-5 159,0 316,-10 128,5 485,-14 158,-5 163,0 332,-5 1460,-29 4,232 10,961 0,182 -1,323 5,627 0,157 5,334 0,156 14,809 0,162 10,470 0,161 9,485 5,172 0,162 55,1667 30,884 -67,5 35,1273 14,828 5,161 15,621 25,646 -6,318 -250,5 -144,5 -30,-5 -164,5 -762,20 -66,5 -149,5 -480,9 -164,5 -92,5 -92,0 -547,15 -92,0 -251,5 -61,-1 -429,0 -481,4 -72,0 -66,5 -82,0 -557,4 -174,0 -77,-5 -174,0 -373,4 -317,0 -118,5 -107,4 -210,0 -526,-6 -56,0 -98,5 -107,0 -854,-7 -158,0 -655,3 -153,0 -798,8 -163,-5 -307,4 -343,5 -138,-1 -158,5 -159,-1 -644,9 -164,4 -4,-156 0,-353 1,-142 -4,-292 -5,-21 0,-318 2,-494 -5,-162 1,-162 0,-141 1,-242 1,-445 0,-161 -13,-778 358,1 1,-480 -4,-166 0,-162 -5,-152 2,-479 -4,-329 0,-182 -19,-475 -5,-161 1,-162 5,-162 59,-960 -163,0 7,-808 0,-137 2,-450 1,-490 1,-475 6,-162 -10,-329 12,-465 1,-490 -199,4 6,-303 184,-4 163,0 148,-5 184,1 801,7 970,-18 230,0 148,1 316,0 z" />
<path id="Niobrara" d="M 29610,-6058 l 11,233 5,61 4,106 5,157 19,348 17,365 47,1021 43,945 7,162 29,769 63,1394 6,0 1,16 32,754 157,3560 -592,42 -1927,75 -966,52 -976,37 -158,5 -292,16 -506,21 -976,16 -486,26 -51,-899 -108,-1984 -93,-2259 -21,-485 -5,-162 -52,-1567 -27,-1001 -5,-334 -16,-617 -15,-323 -1,-253 501,-21 326,-16 148,-5 332,-16 985,-37 153,-5 163,-5 1771,-80 1730,-80 490,-21 z" />
<path id="Park" d="M -16402,-22276 l 559,13 250,3 1104,20 513,13 138,3 20,0 337,7 136,2 560,10 91,2 142,2 397,7 199,3 116,3 11,0 163,2 41,0 33,1 88,0 26,2 132,7 521,35 53,4 280,3 361,10 128,1 183,0 158,3 163,3 157,2 163,3 325,5 611,3 158,0 203,4 210,4 259,4 117,1 167,2 -1,309 1,1010 -1,91 5,152 198,6 -4,867 -3,649 0,168 -1,141 -6,315 -1,182 -6,284 4,162 1,821 0,163 127,5 -9,867 -6,167 0,137 -6,177 -1,147 -1,349 -6,137 -2,491 4,163 -1,308 -1,173 -1,324 -1,162 -1,167 -9,164 188,1 -20,828 -5,162 -143,-1 -168,-5 -158,-6 -163,-1 -148,-1 -179,-5 -148,-1 -836,-19 8,668 8,324 -479,-7 -316,-7 -199,-1 -3,633 4,152 0,172 -179,-1 -331,4 -107,-6 -352,3 -449,-12 -1,111 14,395 18,456 -561,17 -1255,-7 -56,-111 -40,-112 -66,-46 -137,-92 -46,-5 -71,25 -26,-10 -35,-46 -16,-10 -10,-31 1,-70 -5,-21 10,-35 -5,-30 -10,-41 -5,-35 0,-11 -20,-35 -10,-30 -30,-46 -203,-153 -5,-112 -117,-81 -96,-51 -35,-122 -92,-26 -97,-46 -30,-142 -55,-61 -149,50 -76,60 -37,86 -96,-11 -77,-61 -65,-106 -86,-82 -92,30 -41,45 -36,61 -52,50 -56,35 -36,0 -30,-36 -61,-76 -51,-10 -25,30 -16,76 -1,60 -15,56 -154,70 -148,50 -41,101 -16,45 15,152 -62,116 -82,111 9,213 50,91 -46,40 -169,24 -178,10 -112,24 -21,10 -209,70 -124,146 -128,39 -163,35 -127,-92 -198,-168 -61,-56 -40,-102 36,-86 118,-14 112,-80 31,-41 -96,-182 52,-46 52,-136 -128,-41 -137,-122 -14,-102 10,-86 -9,-61 -67,5 -20,-30 16,-81 72,-56 46,-85 -15,-112 -15,31 -92,80 -21,-10 -97,24 -92,35 -199,-16 -86,-26 -87,-36 -71,-46 -61,-31 -127,25 -72,24 -97,45 -61,0 -61,-41 -10,-71 0,-50 -25,-61 -30,-26 -25,-61 -36,-66 -19,-66 -5,-45 -41,-77 -45,-40 -110,-10 60,-1408 -515,-18 -57,-126 5,-113 -22,-49 99,-98 -51,-77 67,-49 40,12 43,-80 -26,-16 -64,37 -64,-116 27,-14 4,1 75,33 19,-19 -32,-72 -64,7 -26,-65 27,-27 87,-19 -37,-78 -78,2 -4,-17 -20,-20 -3,-33 -29,-50 -25,-121 4,-96 -53,-113 16,-75 -43,-18 -21,-68 6,-13 59,-23 6,-17 -33,-27 3,-46 -44,-90 -14,-25 -60,-42 -62,-23 -55,-12 14,-32 -31,-29 -23,1 -13,-17 -2,-28 -27,-13 -14,12 7,39 -11,39 -32,-1 -49,-55 -41,2 -25,-52 35,-26 -36,-67 43,-64 -3,-30 -25,-16 -98,-34 -39,-37 -18,-33 -3,-34 -5,-17 12,-16 7,-35 -7,-32 -9,-20 -14,-82 12,-27 -6,-35 -4,-47 -10,-28 8,-34 -25,-42 -23,-43 -32,-28 -18,-9 -19,-30 -53,-19 -31,-15 10,-54 -8,-61 -5,-50 -32,-47 -31,-14 -60,-28 -23,0 -37,-16 -64,-57 -15,-64 -25,-30 -23,-15 -12,-35 2,-16 65,-197 -6,-108 11,-74 -11,-40 23,-28 53,-18 -16,-152 22,-60 37,-46 -12,-128 25,-55 -16,-58 -61,-72 -54,-13 -39,-9 27,-99 41,-23 -2,-29 -38,-56 -82,-69 -64,-29 -126,10 -14,51 -9,14 -45,-4 -115,-43 -72,-21 -21,-29 -53,-43 -57,-30 -29,-11 -6,-19 41,-30 42,-9 15,-30 -2,-26 -34,-60 13,-44 -2317,-80 32,-923 -3078,-119 167,-3698 87,3 1904,54 143,4 53,2 536,119 997,39 1185,45 222,8 242,-50 1347,75 536,-72 4,0 1054,25 1154,28 z" />
<path id="Platte" d="M 25145,4060 l 11,970 125,3407 175,4152 82,2119 -2426,53 -963,31 -941,31 -891,-9 -47,-946 63,-6 -25,-1918 0,-141 -35,-853 -5,-136 -11,-156 -10,-162 -38,-479 -59,5 -5,-454 0,-197 -30,-772 -5,-156 -31,-813 -10,-268 -15,-378 -20,-783 -46,-1903 138,-10 644,-36 966,-46 1441,-83 486,-26 976,-16 z" />
<path id="Sheridan" d="M -1527,-22048 l 117,1 366,-1 1608,2 600,-4 2152,-4 518,-2 1811,26 82,-3 1461,-16 474,-6 494,-6 3271,-48 23,0 968,-20 796,-8 33,0 159,-2 10,387 0,203 15,487 5,314 71,0 5,325 35,3078 -82,5 -162,5 -1080,40 -168,10 -2460,89 -3367,36 -1609,17 -1866,-11 -64,-216 -15,-66 -45,-76 -31,-16 -71,-30 -82,-11 -96,-40 -66,-21 -10,-91 -97,81 -133,-21 -76,-31 -86,-25 -107,-5 -15,-132 -5,-71 -36,-76 -71,-1 -81,46 -92,-5 -66,-31 -15,-56 25,-91 21,-81 15,-46 -20,-45 -76,-21 -71,-76 -31,-15 -25,-56 -56,-26 -127,-96 -87,-21 -76,-61 -107,40 -37,-2 -215,17 -48,99 -79,41 -57,-13 -77,-129 12,-113 -232,-84 -152,-59 -82,18 -76,-100 47,-46 10,-146 -34,-57 18,-85 -76,-67 18,-95 -41,-48 -191,0 -91,-78 -99,-48 -1,-3 -61,-25 -66,-46 -2,-4 -42,0 -29,13 -3,-78 8,-44 91,-70 24,-37 5,-73 -13,-36 -36,-8 -47,-29 -23,-37 31,-54 -5,-26 -34,-55 -19,-67 -52,-65 -18,-92 -25,-25 -74,-67 -38,-15 -31,-56 21,-72 15,-54 3,-86 52,-71 19,-58 -14,-41 -5,-18 5,-38 -16,-27 -55,-49 -23,-34 -38,-36 -42,-38 -45,-31 -10,-43 2,-89 13,-36 0,-11 21,-18 0,-61 11,-64 -29,-112 -5,-18 0,-26 -5,-61 -10,-50 -3,-5 -61,-66 -22,10 -39,-52 -9,-14 -78,11 -1,-36 z" />
<path id="Sublette" d="M -23233,-2825 l -18,-652 1919,64 13,-348 19,-617 1516,56 378,12 469,13 16,-804 6,-161 1918,72 322,13 214,6 -40,829 -2,248 133,41 113,-106 153,-14 86,97 -6,106 15,81 -26,111 5,116 30,41 46,51 20,60 50,122 -21,91 -5,15 -21,111 -31,40 5,81 25,46 0,71 -16,91 15,45 35,76 10,81 -16,66 -21,101 15,86 50,233 70,192 61,66 97,77 46,40 35,71 34,218 61,96 132,127 112,137 82,16 45,51 56,152 45,116 81,132 -154,65 -10,70 46,36 35,86 -11,121 -11,81 41,51 133,31 122,1 72,35 117,82 91,102 87,51 86,51 51,91 15,60 127,57 138,112 143,99 4,3 66,71 -5,35 107,21 92,-81 117,132 20,91 71,72 71,212 76,96 -21,192 30,61 122,132 107,26 152,233 81,142 128,107 107,25 173,52 66,111 -184,70 -57,65 -20,46 -6,106 36,30 127,36 31,-30 51,-30 67,6 81,66 107,81 173,112 56,61 46,106 71,107 35,101 55,192 445,-3 -2,333 -3,732 -7,389 -1,328 -6,157 -4,813 -1,166 215,1 -19,747 -5,162 -14,817 -6,161 -164,0 -782,-14 -159,-1 -813,-19 -148,-6 -645,-14 -163,-1 -149,-5 -194,-7 -123,-5 -87,-1 -102,-5 -332,-17 -148,-6 -415,-8 -404,-12 -153,-1 -803,-20 -158,-6 -798,-35 -1135,-52 -440,-23 -291,-12 -670,-50 -154,-16 -71,-6 -92,-5 -164,-6 -700,-35 -102,-6 -174,-6 -328,-18 -158,-6 -169,-6 -158,-1 -271,-7 -379,-18 -153,-6 12,-308 6,-202 19,-459 41,-923 -409,-19 48,-984 48,-1924 -286,-7 30,-792 312,12 4,-78 132,-3747 78,2 z" />
<path id="Sweetwater" d="M -19275,8022 l 440,23 1135,52 798,35 158,6 803,20 153,1 404,12 415,8 148,6 332,17 102,5 87,1 123,5 194,7 149,5 163,1 645,14 148,6 813,19 159,1 782,14 164,0 491,13 971,15 322,6 159,1 189,11 624,-2 149,0 787,9 169,0 823,19 159,1 767,-7 158,0 860,24 158,0 818,13 164,1 783,8 158,0 798,-2 164,0 470,7 317,1 174,0 317,1 322,6 164,1 164,0 818,2 159,1 -1,151 14,636 -1,161 -18,954 184,5 0,328 -1,162 0,166 -1,157 0,171 -1,146 5,162 0,161 -1,167 5,161 -1,141 0,142 5,166 -1,156 0,167 -1,161 0,167 -1,161 0,161 -6,162 0,171 -1,161 0,303 -1,161 5,162 -1,166 0,161 5,132 -72,-1 -323,0 -158,-6 -159,0 -148,-1 -154,0 -164,-1 -158,-5 -159,-1 -184,0 -159,-1 -164,0 -164,-1 -164,0 -158,-1 -302,0 -159,-1 -164,-1 -158,0 -164,-1 -159,0 0,151 -1,162 0,166 -1,161 0,162 -1,166 0,126 -1,166 0,162 -6,166 -1,161 0,172 -1,166 5,161 4,167 0,161 5,166 -1,142 118,0 -12,1945 13,2460 -426,0 -292,3 -1516,10 -318,1 -373,2 -969,0 -1614,-21 -523,-8 -164,-2 -795,-5 -164,-2 -1233,-16 -164,-2 -348,-6 -640,-8 -270,-10 -181,-3 -132,-4 -655,-20 -190,-5 -7,0 -131,-1 -1743,-16 -221,-3 -19,0 -288,-5 -31,0 -671,-12 -21,-1 -297,-8 -144,-3 -102,-3 -117,-3 -164,-4 -339,-6 -686,-16 -635,-15 -470,-12 -489,-11 -407,-7 184,-6425 144,-4689 1,-83 -68,1 z" />
<path id="Teton" d="M -26506,-16758 l 35,-2109 3078,119 -32,923 2317,80 -13,44 34,60 2,26 -15,30 -42,9 -41,30 6,19 29,11 57,30 53,43 21,29 72,21 115,43 45,4 9,-14 14,-51 126,-10 64,29 82,69 38,56 2,29 -41,23 -27,99 39,9 54,13 61,72 16,58 -25,55 12,128 -37,46 -22,60 16,152 -53,18 -23,28 11,40 -11,74 6,108 -65,197 -2,16 12,35 23,15 25,30 15,64 64,57 37,16 23,0 60,28 31,14 32,47 5,50 8,61 -10,54 31,15 53,19 19,30 18,9 32,28 23,43 25,42 -8,34 10,28 4,47 6,35 -12,27 14,82 9,20 7,32 -7,35 -12,16 5,17 3,34 18,33 39,37 98,34 25,16 3,30 -43,64 36,67 -35,26 25,52 41,-2 49,55 32,1 11,-39 -7,-39 14,-12 27,13 2,28 13,17 23,-1 31,29 -14,32 55,12 62,23 60,42 14,25 44,90 -3,46 33,27 -6,17 -59,23 -6,13 21,68 43,18 -16,75 53,113 -4,96 25,121 29,50 3,33 20,20 4,17 78,-2 37,78 -87,19 -27,27 26,65 64,-7 32,72 -19,19 -75,-33 -4,-1 -27,14 64,116 64,-37 26,16 -43,80 -40,-12 -67,49 51,77 -99,98 22,49 -5,113 57,126 515,18 -60,1408 -162,5994 -6,161 -16,804 -469,-13 -378,-12 -1516,-56 -19,617 -13,348 -1919,-64 18,652 -1913,-72 -14,-655 -638,-15 -260,-2 17,-242 -358,-13 -584,-10 80,-2068 -8,-8 3,-63 20,-490 1,-56 4,-157 35,-895 34,-860 63,-1717 42,-1149 2,-33 16,-491 29,-861 10,-276 39,-1020 6,-165 z" />
<path id="Uinta" d="M -27763,15434 l 77,5 102,6 164,1 159,1 163,7 159,1 190,6 143,7 164,6 163,6 159,11 164,7 164,6 133,1 164,6 163,6 159,2 159,6 179,6 153,6 169,6 159,7 164,1 322,12 159,6 164,7 158,11 169,6 159,6 153,6 144,6 164,6 158,1 164,2 159,6 158,6 164,6 164,1 159,6 158,6 1877,68 -184,6425 -74,-1 -870,-15 -289,-5 -193,-2 -458,-3 -34,-1 -1787,-63 -32,-1 -9,-1 -123,-4 -318,-12 -8,0 -151,-5 -71,-3 -41,-2 -41,-1 -2,0 -167,-6 -159,-6 -164,-6 -1122,-43 -353,-14 -1920,-73 103,-2718 4,-98 29,-771 6,-156 6,-161 12,-328 6,-171 6,-156 6,-162 12,-312 37,-973 z" />
<path id="Washakie" d="M -6669,-12830 l 11235,50 148,-1 16,977 -5,56 0,116 4,162 9,618 32,1938 112,0 0,177 -1,152 -6,632 2,1113 5,167 0,324 4,167 0,162 30,0 5,141 0,324 4,172 -306,4 -316,0 -148,-1 -230,0 -970,18 -801,-7 -184,-1 -148,5 -163,0 -184,4 -500,-6 6,-157 -5,-329 1,-157 -5,-151 1,-329 -4,-501 -132,0 -480,4 -184,-1 -153,0 -4,-304 1,-298 -4,-334 -153,-1 -321,-6 -159,5 -158,-6 -194,0 -158,4 -780,3 -5,-162 -2,-805 -199,0 -837,-18 -566,-12 -311,-7 6,-303 -958,-4 17,-647 -163,-1 -811,-13 1,-157 3,-820 -168,-1 -321,-6 0,-147 2,-324 0,-167 7,-334 -316,9 -163,4 5,-162 z" />
<path id="Weston" d="M 29271,-13584 l 15,329 4,86 2,28 2,53 13,284 4,101 3,71 39,886 7,162 2,53 35,747 7,157 15,309 7,162 8,219 1,24 26,551 17,382 4,109 8,215 7,140 6,131 21,466 13,274 36,805 3,74 34,708 -228,11 -490,21 -1730,80 -1771,80 -163,5 -153,5 -985,37 -332,16 -148,5 -326,16 -501,21 -158,5 -153,5 -332,21 -689,41 -142,6 -11,-238 -5,-162 -5,-177 -5,-162 -11,-329 -10,-298 -5,-162 -6,-172 -5,-157 -5,-172 -11,-329 -10,-324 -21,-971 -31,-5 -5,-152 -21,-582 -5,-243 -5,-127 -5,-162 -16,-683 30,-5 -21,-1367 -5,-162 -1,-426 928,-46 968,-37 153,-5 127,-6 321,-10 337,-16 826,-32 173,-5 999,-33 448,-21 2253,-91 z" />
</g>
<use xlink:href="#Park" stroke="none" fill="red" />
</svg>
