<?xml version="1.0" encoding="UTF-8"?>
<!DOCTYPE svg PUBLIC "-//W3C//DTD SVG 1.1//EN" "http://www.w3.org/Graphics/SVG/1.1/DTD/svg11.dtd">
<svg version="1.1" xmlns="http://www.w3.org/2000/svg" xmlns:xlink="http://www.w3.org/1999/xlink" x="0" y="0" width="5270" height="3960" viewBox="0, 0, 5270, 3960">
  <defs>
    <clipPath id="Clip_1">
      <path d="M4.105,3265.53 L5265.895,3265.53 L5265.895,10 L4.105,10 z"/>
    </clipPath>
  </defs>
  <g id="Layer_1">
    <path d="M1573.705,1530.13 C1591.565,1446.5 1547.675,1446.5 1458.785,1446.5 C1369.815,1446.5 1308.755,1446.5 1289.325,1538.12 C1274.595,1607.15 1292.655,1609.85 1437.285,1616.42 C1600.175,1624.38 1748.795,1612.47 1700.775,1838.15 C1660.725,2026.68 1508.065,2045.24 1331.525,2045.24 C1141.675,2045.24 1014.215,2045.24 1062.485,1818.27 L1229.735,1818.27 C1210.975,1919.11 1232.335,1931.1 1355.765,1931.1 C1455.305,1931.1 1513.205,1933.8 1533.515,1838.15 C1546.455,1777.09 1549.005,1746.52 1380.955,1743.89 C1125.535,1739.91 1086.455,1705.41 1124.265,1527.48 C1164.885,1336.31 1303.835,1332.38 1483.055,1332.38 C1619.785,1332.38 1782.515,1334.99 1741.005,1530.13 L1573.705,1530.13" fill="#4E2D7A"/>
    <path d="M2425.205,1771.76 C2376.625,2000.14 2284.735,2045.24 2049.765,2045.24 C1793.515,2045.24 1753.535,1970.94 1813.435,1689.5 C1865.355,1445.21 1927.795,1332.38 2201.325,1332.38 C2408.415,1332.38 2511.875,1364.22 2464.965,1584.55 L2297.695,1584.55 C2320.305,1478.36 2291.065,1459.76 2174.185,1459.76 C2030.805,1459.76 2018.765,1510.21 1980.645,1689.5 C1943.705,1863.38 1929.515,1917.78 2076.805,1917.78 C2213.585,1917.78 2231.925,1893.92 2257.915,1771.76 L2425.205,1771.76" fill="#4E2D7A"/>
    <path d="M2930.185,1332.38 C2639.425,1332.38 2583.905,1418.62 2526.345,1689.5 C2469.045,1959.01 2487.915,2045.24 2778.625,2045.24 C3069.405,2045.24 3124.885,1959.01 3182.225,1689.5 C3239.815,1418.62 3221.005,1332.38 2930.185,1332.38 z M2903.105,1459.76 C3051.855,1459.76 3054.725,1502.24 3014.615,1690.82 C2975.135,1876.67 2954.475,1917.78 2805.765,1917.78 C2657.095,1917.78 2653.855,1876.67 2693.385,1690.82 C2733.435,1502.24 2754.415,1459.76 2903.105,1459.76" fill="#4E2D7A"/>
    <g clip-path="url(#Clip_1)">
      <path d="M4059.655,1340.26 L4147.335,1340.26 L4180.875,1182.31 L4348.145,1182.31 L4314.625,1340.26 L4581.335,1340.26 L4554.305,1467.73 L4287.465,1467.73 L4211.605,1824.88 C4199.355,1888.58 4193.145,1917.78 4263.455,1917.78 C4337.325,1917.78 4356.365,1873.38 4368.705,1818.51 C4368.805,1818.46 4514.995,1818.66 4515.075,1818.51 C4472.085,1992.23 4402.755,2045.24 4236.425,2045.24 C4053.195,2045.24 4006.465,2002.79 4043.965,1826.2 L4120.125,1467.73 L4032.575,1467.73 L4059.655,1340.26" fill="#4E2D7A"/>
      <path d="M5091.995,1530.13 C5109.715,1446.5 5065.915,1446.5 4976.975,1446.5 C4888.065,1446.5 4826.965,1446.5 4807.515,1538.12 C4792.785,1607.15 4810.855,1609.85 4955.475,1616.42 C5118.465,1624.38 5267.005,1612.47 5218.975,1838.15 C5178.885,2026.68 5026.305,2045.24 4849.735,2045.24 C4659.875,2045.24 4532.415,2045.24 4580.695,1818.27 L4747.945,1818.27 C4729.115,1919.11 4750.595,1931.1 4873.905,1931.1 C4973.595,1931.1 5031.455,1933.8 5051.675,1838.15 C5064.645,1777.09 5067.195,1746.52 4899.245,1743.89 C4643.875,1739.91 4604.695,1705.41 4642.465,1527.48 C4683.135,1336.31 4822.075,1332.38 5001.235,1332.38 C5137.975,1332.38 5300.765,1334.99 5259.335,1530.13 L5091.995,1530.13" fill="#4E2D7A"/>
    </g>
    <path d="M3978.665,1340.26 L3811.415,1340.26 L3736.225,1694.21 C3696.705,1880.01 3698.945,1921.17 3550.235,1921.17 C3401.585,1921.17 3408.695,1880.01 3448.225,1694.21 L3524.655,1340.26 L3357.345,1340.26 L3281.725,1694.24 C3224.485,1963.73 3232.405,2048.68 3523.155,2048.68 C3813.905,2048.68 3846.905,1962.36 3904.275,1692.84 L3978.665,1340.26" fill="#4E2D7A"/>
    <path d="M2089.385,3265.53 C585.605,3265.53 4.105,2664.52 4.105,2051.65 C4.105,1404.47 629.285,879.74 1808.985,561.15 C650.305,983.41 279.465,1503.51 279.465,2005.13 C279.465,2593.42 820.485,3128.95 2170.545,3128.95 C3103.925,3128.95 3899.415,3024.47 4782.615,2681.05 C3983.465,3078.45 3041.245,3265.53 2089.385,3265.53" fill="#4E2D7A"/>
    <path d="M4022.555,2376.97 C3972.325,2376.97 3954.495,2399.23 3944.685,2445.83 C3936.315,2485.47 3949.095,2514.4 3993.295,2514.4 C4043.175,2514.4 4061.345,2491.86 4071.045,2445.83 C4080.845,2399.37 4072.465,2376.97 4022.555,2376.97" fill="#4E2D7A"/>
    <path d="M4527.775,2376.97 C4477.535,2376.97 4459.726,2399.23 4449.896,2445.83 C4441.555,2485.47 4454.315,2514.4 4498.525,2514.4 C4548.405,2514.4 4566.565,2491.86 4576.266,2445.83 C4586.065,2399.37 4577.695,2376.97 4527.775,2376.97" fill="#4E2D7A"/>
    <path d="M5033.645,2376.97 C4983.405,2376.97 4965.585,2399.23 4955.765,2445.83 C4947.415,2485.47 4960.185,2514.4 5004.395,2514.4 C5054.265,2514.4 5072.425,2491.86 5082.135,2445.83 C5091.935,2399.37 5083.565,2376.97 5033.645,2376.97" fill="#4E2D7A"/>
    <path d="M2916.155,523.18 L2869.365,483.52 L2803.475,525.06 L2840.175,458.81 L2794.105,419.88 L2861.495,419.88 L2894.065,360.36 L2902.305,419.88 L2969.685,419.88 L2907.535,459.18 L2916.155,523.18 z M2517.775,637.73 L2452.265,637.73 L2589.275,144 L2517.775,637.73 z M2434.315,892.27 L2441.035,706.99 L2506.555,706.99 L2434.315,892.27 z M2229.145,459.18 L2237.755,523.18 L2190.965,483.52 L2125.085,525.06 L2161.765,458.81 L2115.725,419.88 L2183.105,419.88 L2215.675,360.36 L2223.895,419.88 L2291.275,419.88 L2229.145,459.18 z M2894.815,317.69 C2775.775,317.69 2631.505,470.27 2587.655,637.73 L2554.195,637.73 C2601.445,423.01 2731.155,322.63 2731.155,223.73 C2731.155,125.79 2682.545,68.53 2616.975,10 C2464.645,104.35 2403.985,162.81 2403.985,284 C2403.985,342.04 2425.525,449.28 2425.525,512.58 C2425.525,544.95 2424.315,590.05 2417.345,637.73 L2384.975,637.73 C2387.135,617.46 2388.235,596.27 2388.235,574.47 C2388.235,421.37 2339.495,317.69 2216.795,317.69 C2126.215,317.69 2040.485,385.02 2040.485,485.39 C2040.485,565.54 2087.645,626.13 2168.505,648.21 C2175.985,581.17 2218.445,557.64 2258.715,557.64 C2306.795,557.64 2329.405,589.36 2334.625,638.11 C2294.885,640.42 2281.175,653.28 2281.175,675.54 C2281.175,695.63 2296.965,706.69 2327.525,706.97 C2315.975,738.89 2292.735,767.25 2260.215,767.25 C2241.885,767.25 2232.315,764.06 2218.665,756.02 C2213.425,762.75 2210.055,775.41 2210.055,784.47 C2210.055,815.36 2236.175,830.5 2261.715,830.5 C2314.875,830.5 2352.705,780.77 2372.455,706.99 L2403.695,706.99 C2381.675,797.6 2346.495,871.48 2308.535,921.09 C2339.455,933.74 2372.635,941.68 2424.945,941.68 C2470.125,941.68 2512.785,937.32 2549.965,921.09 C2538.365,881.41 2537.245,840.12 2537.245,799.44 C2537.245,766.65 2539.135,735.89 2542.555,706.99 L2575.615,706.99 C2574.805,716.73 2574.385,726.47 2574.385,736.17 C2574.385,811.39 2614.235,830.5 2640.645,830.5 C2687.815,830.5 2717.015,794.94 2717.015,768.37 C2717.015,763.87 2716.805,759.69 2715.505,756.02 C2703.585,762.47 2691.395,767.25 2671.345,767.25 C2635.445,767.25 2626.055,741.58 2626.055,712.22 C2626.055,710.31 2626.085,708.37 2626.205,706.42 C2665.065,704.19 2685.565,694.73 2685.565,666.55 C2685.565,646.16 2673.935,638.97 2646.315,637.89 C2668.965,594.97 2709.565,557.64 2763.055,557.64 C2798.585,557.64 2812.455,584.22 2812.455,602.55 C2812.455,618.11 2808.595,635.61 2803.475,648.21 C2945.255,627.58 3025.075,546.84 3025.075,443.84 C3025.075,378.29 2982.765,317.69 2894.815,317.69" fill="#4E2D7A"/>
    <path d="M3147.675,2296.54 C3141.845,2296.15 3138.335,2295.76 3131.725,2295.76 C3103.315,2295.76 3077.245,2311.33 3055.065,2327.67 L3061.285,2296.54 L2992.425,2296.54 L2946.895,2509.78 L3015.375,2509.78 L3046.115,2366.97 C3063.245,2361.13 3080.355,2358.41 3098.265,2358.41 C3109.545,2358.41 3120.045,2359.57 3127.435,2361.52 L3133.675,2361.52 L3147.675,2296.54 z M3327.065,2363.86 C3327.065,2368.13 3326.675,2371.25 3325.895,2375.53 L3234.065,2375.53 C3242.625,2349.85 3262.855,2332.33 3290.875,2332.33 C3311.105,2332.33 3326.275,2342.06 3327.065,2363.86 z M3395.155,2367.74 C3395.155,2307.43 3350.405,2289.92 3297.875,2289.92 C3218.885,2289.92 3160.905,2341.29 3160.905,2421.84 C3160.905,2490.7 3214.605,2515.62 3276.085,2515.62 C3306.825,2515.62 3336.785,2510.17 3364.805,2497.71 L3376.485,2442.85 L3369.085,2442.85 C3344.955,2457.64 3320.445,2467.36 3292.035,2467.36 C3258.585,2467.36 3227.845,2456.46 3227.845,2417.94 L3227.845,2415.61 L3386.605,2415.61 C3391.655,2400.43 3395.155,2383.7 3395.155,2367.74 z M2305.615,2363.86 C2306.005,2368.13 2305.615,2371.25 2304.835,2375.53 L2213.005,2375.53 C2221.185,2349.85 2241.405,2332.33 2269.425,2332.33 C2290.055,2332.33 2305.225,2342.06 2305.615,2363.86 z M2374.105,2367.74 C2374.105,2307.43 2329.355,2289.92 2276.815,2289.92 C2197.835,2289.92 2139.855,2341.29 2139.855,2421.84 C2139.855,2490.7 2193.555,2515.62 2254.645,2515.62 C2285.385,2515.62 2315.345,2510.17 2343.745,2497.71 L2355.425,2442.85 L2347.645,2442.85 C2323.905,2457.64 2299.395,2467.36 2270.985,2467.36 C2237.525,2467.36 2206.395,2456.46 2206.395,2417.94 L2206.395,2415.61 L2365.545,2415.61 C2370.215,2400.43 2374.105,2383.7 2374.105,2367.74 z M1109.845,2385.64 C1109.845,2428.84 1090.005,2466.58 1042.135,2466.58 C1031.625,2466.58 1021.905,2461.13 1012.955,2456.07 L1037.075,2340.9 C1047.585,2337.39 1058.875,2335.84 1069.765,2335.84 C1101.675,2335.84 1109.845,2356.86 1109.845,2385.64 z M1386.905,2363.86 C1386.905,2368.13 1386.515,2371.25 1386.125,2375.53 L1293.895,2375.53 C1302.455,2349.85 1322.695,2332.33 1350.715,2332.33 C1370.945,2332.33 1386.125,2342.06 1386.905,2363.86 z M1830.115,2387.2 C1830.115,2429.23 1809.875,2468.92 1762.795,2468.92 C1753.065,2468.92 1741.395,2467.36 1732.045,2463.48 L1758.125,2338.55 C1767.855,2336.62 1778.355,2335.06 1788.865,2335.06 C1818.825,2335.06 1830.115,2360.74 1830.115,2387.2 z M2577.615,2387.2 C2577.615,2429.23 2556.995,2468.92 2510.295,2468.92 C2500.175,2468.92 2488.505,2467.36 2479.555,2463.48 L2505.235,2338.55 C2515.355,2336.62 2525.865,2335.06 2535.975,2335.06 C2565.945,2335.06 2577.615,2360.74 2577.615,2387.2 z M2856.615,2338.17 L2833.275,2451.03 C2821.985,2457.64 2807.195,2465.03 2793.975,2465.03 C2765.565,2465.03 2757.395,2449.07 2757.395,2422.62 C2757.395,2380.21 2785.015,2334.68 2831.315,2334.68 C2839.885,2334.68 2848.055,2336.62 2856.615,2338.17 z M1181.835,2374.75 C1181.835,2324.17 1152.255,2290.7 1100.505,2290.7 C1082.225,2290.7 1063.925,2293.42 1046.415,2298.88 L1064.705,2214.04 L995.835,2214.04 L932.405,2509.78 L998.165,2509.78 L1002.445,2494.21 C1021.125,2510.17 1036.305,2514.05 1060.425,2514.05 C1136.305,2514.05 1181.835,2445.19 1181.835,2374.75 z M1454.995,2367.74 C1454.995,2307.43 1410.245,2289.92 1357.715,2289.92 C1278.725,2289.92 1220.745,2341.29 1220.745,2421.84 C1220.745,2490.7 1274.445,2515.62 1335.925,2515.62 C1366.665,2515.62 1396.625,2510.17 1425.035,2497.71 L1436.315,2442.85 L1428.925,2442.85 C1404.805,2457.64 1380.285,2467.36 1351.875,2467.36 C1318.805,2467.36 1287.675,2456.46 1287.675,2417.94 L1287.675,2415.61 L1446.435,2415.61 C1451.105,2400.43 1454.995,2383.7 1454.995,2367.74 z M1902.095,2385.25 C1902.095,2317.16 1864.355,2290.7 1798.595,2290.7 C1764.345,2290.7 1730.495,2296.54 1697.425,2303.93 L1636.325,2587.99 L1704.815,2587.99 L1723.485,2501.6 C1737.885,2510.17 1758.515,2514.05 1775.245,2514.05 C1848.395,2514.05 1902.095,2458.03 1902.095,2385.25 z M2126.615,2296.54 C2120.395,2296.15 2116.895,2295.76 2110.665,2295.76 C2081.875,2295.76 2056.185,2311.33 2033.625,2327.67 L2040.235,2296.54 L1971.365,2296.54 L1925.835,2509.78 L1994.315,2509.78 L2025.065,2366.97 C2041.795,2361.13 2058.915,2358.41 2076.815,2358.41 C2088.485,2358.41 2098.995,2359.57 2106.395,2361.52 L2112.225,2361.52 L2126.615,2296.54 z M2649.215,2385.25 C2649.215,2317.16 2611.465,2290.7 2545.705,2290.7 C2511.855,2290.7 2477.995,2296.54 2444.925,2303.93 L2383.445,2587.99 L2452.315,2587.99 L2470.995,2501.6 C2485.385,2510.17 2506.015,2514.05 2522.365,2514.05 C2595.905,2514.05 2649.215,2458.03 2649.215,2385.25 z M2932.105,2303.93 C2895.135,2294.59 2865.565,2290.7 2827.825,2290.7 C2749.985,2290.7 2686.575,2352.19 2686.575,2430.78 C2686.575,2473.58 2706.415,2515.62 2755.055,2515.62 C2783.845,2515.62 2802.525,2503.94 2825.095,2487.6 L2820.035,2509.78 L2888.525,2509.78 L2932.105,2303.93 z M3701.015,2214.04 L3632.135,2214.04 L3614.625,2296.54 C3597.505,2292.26 3580.775,2290.7 3563.265,2290.7 C3486.605,2290.7 3434.075,2358.8 3434.075,2431.95 C3434.075,2475.15 3453.915,2515.62 3502.165,2515.62 C3533.685,2515.62 3549.245,2506.27 3573.375,2487.6 L3568.705,2509.78 L3637.575,2509.78 L3701.015,2214.04 z M3604.905,2341.68 L3581.165,2451.03 C3569.885,2458.03 3555.865,2465.03 3542.245,2465.03 C3516.575,2465.03 3505.285,2448.69 3505.285,2424.55 C3505.285,2384.87 3528.635,2335.84 3574.155,2335.84 C3583.495,2335.84 3595.945,2338.55 3604.905,2341.68" fill="#4E2D7A"/>
    <path d="M680.329,3684.753 L634.75,3684.753 L634.75,3733.122 Q650.377,3734.238 666.748,3738.145 L666.748,3757.865 L567.591,3757.865 L567.591,3738.145 Q584.334,3734.424 600.706,3733.122 L600.706,3684.753 L490.201,3684.753 L484.62,3656.475 L590.474,3488.486 L634.75,3488.486 L634.75,3653.871 L680.329,3653.871 z M601.078,3653.871 L601.078,3522.158 L600.706,3522.158 L518.106,3654.243 Q539.686,3653.871 601.078,3653.871 z" fill="#4D2D7A"/>
    <path d="M814.088,3684.009 Q796.228,3687.729 777.439,3687.729 Q748.789,3687.729 737.813,3674.986 Q726.837,3662.242 726.837,3630.989 L726.837,3522.158 L687.956,3522.158 L687.956,3495.369 L726.837,3495.369 L726.837,3433.977 L761.068,3424.49 L761.068,3495.369 L814.088,3495.369 L814.088,3522.158 L761.068,3522.158 L761.068,3618.896 Q761.068,3642.523 766.649,3650.522 Q772.23,3658.522 788.229,3658.522 Q800.507,3658.522 814.088,3654.987 z" fill="#4D2D7A"/>
    <path d="M1055.561,3684.753 L989.519,3684.753 L989.519,3562.528 Q989.519,3541.134 982.357,3530.623 Q975.194,3520.112 957.149,3520.112 Q933.894,3520.112 918.454,3541.134 Q903.013,3562.156 903.013,3593.781 L903.013,3659.266 Q917.523,3660.382 933.894,3664.103 L933.894,3684.753 L836.04,3684.753 L836.04,3664.475 Q851.295,3660.196 869.154,3659.266 L869.154,3433.233 Q853.527,3430.629 836.04,3429.512 L836.04,3409.235 Q862.271,3406.072 886.083,3406.258 Q894.827,3406.258 903.013,3406.63 L903.013,3496.113 Q903.013,3520.484 900.036,3533.878 L900.78,3534.25 Q909.152,3514.531 926.36,3503.089 Q943.568,3491.648 966.637,3491.648 Q1023.377,3491.648 1023.563,3552.11 L1023.563,3659.266 Q1041.423,3660.382 1055.561,3664.475 z" fill="#4D2D7A"/>
    <path d="M1362.333,3684.753 L1305.593,3684.753 L1230.993,3569.225 L1224.481,3569.225 L1224.481,3659.266 Q1238.248,3660.382 1252.945,3664.103 L1252.945,3684.753 L1156.578,3684.753 L1156.578,3664.475 Q1171.833,3660.196 1189.879,3659.266 L1189.879,3453.139 Q1172.019,3452.023 1156.578,3447.744 L1156.578,3427.652 L1186.344,3427.652 Q1188.577,3427.652 1212.203,3426.815 Q1235.829,3425.978 1254.247,3425.978 Q1341.497,3425.978 1341.497,3493.136 Q1341.497,3523.274 1320.848,3542.25 Q1300.198,3561.225 1267.828,3564.76 Q1278.804,3578.899 1284.571,3588.014 L1333.126,3658.894 Q1350.241,3661.126 1362.333,3663.731 z M1304.849,3497.601 Q1304.849,3475.091 1290.71,3464.859 Q1276.571,3454.627 1248.108,3454.627 Q1238.992,3454.627 1224.481,3455.371 L1224.481,3542.994 Q1232.853,3543.738 1246.62,3543.738 Q1273.967,3543.738 1289.408,3531.181 Q1304.849,3518.623 1304.849,3497.601 z" fill="#4D2D7A"/>
    <path d="M1597.11,3682.148 Q1571.623,3685.311 1548.369,3685.125 Q1539.997,3685.125 1531.811,3684.753 Q1531.811,3661.126 1534.602,3645.127 L1533.858,3644.755 Q1525.486,3665.033 1508.092,3676.753 Q1490.698,3688.473 1467.071,3688.473 Q1410.33,3688.473 1410.33,3628.012 L1410.33,3522.158 Q1394.703,3519.553 1378.332,3518.251 L1378.332,3497.973 Q1403.261,3494.811 1427.26,3494.997 Q1436.003,3494.997 1444.561,3495.369 L1444.561,3617.78 Q1444.561,3639.174 1451.63,3649.592 Q1458.7,3660.01 1476.559,3660.01 Q1499.813,3660.01 1515.254,3639.081 Q1530.695,3618.152 1530.695,3586.526 L1530.695,3522.158 Q1518.975,3520.298 1500.185,3518.623 L1500.185,3497.973 Q1525.3,3494.811 1548.369,3494.997 Q1556.74,3494.997 1564.554,3495.369 L1564.554,3658.15 Q1580.181,3660.754 1597.11,3661.87 z" fill="#4D2D7A"/>
    <path d="M1769.192,3684.753 L1769.192,3562.528 Q1769.192,3541.134 1762.123,3530.623 Q1755.054,3520.112 1737.194,3520.112 Q1713.568,3520.112 1698.313,3541.134 Q1683.058,3562.156 1683.058,3593.781 L1683.058,3659.266 Q1698.313,3660.382 1713.568,3664.103 L1713.568,3684.753 L1615.527,3684.753 L1615.527,3664.475 Q1630.782,3660.196 1648.828,3659.266 L1648.828,3522.158 Q1633.201,3519.553 1615.527,3518.251 L1615.527,3497.973 Q1641.758,3494.811 1665.199,3494.997 Q1673.756,3494.997 1681.942,3495.369 Q1681.942,3519.367 1679.151,3534.994 L1679.523,3535.366 Q1687.895,3515.089 1705.289,3503.368 Q1722.683,3491.648 1746.682,3491.648 Q1803.423,3491.648 1803.423,3552.11 L1803.423,3659.266 Q1820.538,3660.382 1835.421,3664.475 L1835.421,3684.753 z" fill="#4D2D7A"/>
    <path d="M2000.062,3677.497 Q1972.715,3687.357 1944.065,3687.357 Q1858.303,3687.357 1858.303,3596.386 Q1858.303,3548.761 1882.488,3520.763 Q1906.672,3492.764 1953.553,3492.764 Q1978.296,3492.764 1998.946,3499.276 L1998.946,3554.528 L1977.552,3554.528 Q1974.947,3541.134 1972.529,3523.646 Q1963.041,3520.298 1948.902,3520.112 Q1922.671,3520.112 1908.347,3539.18 Q1894.022,3558.249 1894.022,3590.619 Q1894.022,3622.245 1907.044,3640.197 Q1920.067,3658.15 1951.321,3658.15 Q1977.18,3658.15 1997.829,3647.732 z" fill="#4D2D7A"/>
    <path d="M2204.886,3586.898 Q2204.886,3630.244 2179.4,3659.173 Q2153.913,3688.101 2112.427,3688.101 Q2072.429,3688.101 2049.919,3664.103 Q2027.409,3640.104 2027.409,3591.735 Q2027.409,3549.133 2052.524,3520.577 Q2077.638,3492.02 2119.496,3492.02 Q2158.378,3492.02 2181.632,3515.089 Q2204.886,3538.157 2204.886,3586.898 z M2169.168,3588.759 Q2169.168,3556.016 2155.773,3538.25 Q2142.379,3520.484 2116.52,3520.484 Q2094.01,3520.484 2078.569,3537.878 Q2063.128,3555.272 2063.128,3588.386 Q2063.128,3622.617 2076.894,3640.941 Q2090.661,3659.266 2116.52,3659.266 Q2139.03,3659.266 2154.099,3641.313 Q2169.168,3623.361 2169.168,3588.759 z" fill="#4D2D7A"/>
    <path d="M2363.016,3492.02 L2361.528,3525.507 Q2355.389,3524.576 2349.808,3524.576 Q2326.553,3524.576 2314.089,3541.506 Q2298.648,3562.528 2298.648,3608.478 L2298.648,3659.266 Q2316.508,3660.382 2331.762,3664.475 L2331.762,3684.753 L2231.117,3684.753 L2231.117,3664.475 Q2246.372,3660.196 2264.418,3659.266 L2264.418,3522.158 Q2248.791,3519.553 2231.117,3518.251 L2231.117,3497.973 Q2257.348,3494.811 2280.789,3494.997 Q2289.346,3494.997 2297.532,3495.369 Q2297.532,3517.879 2293.625,3540.389 L2293.997,3540.389 Q2309.624,3491.462 2353.901,3491.462 Q2358.365,3491.462 2363.016,3492.02 z" fill="#4D2D7A"/>
    <path d="M2533.983,3684.753 L2533.983,3562.528 Q2533.983,3541.134 2526.913,3530.623 Q2519.844,3520.112 2501.985,3520.112 Q2478.358,3520.112 2463.103,3541.134 Q2447.848,3562.156 2447.848,3593.781 L2447.848,3659.266 Q2463.103,3660.382 2478.358,3664.103 L2478.358,3684.753 L2380.318,3684.753 L2380.318,3664.475 Q2395.573,3660.196 2413.618,3659.266 L2413.618,3522.158 Q2397.991,3519.553 2380.318,3518.251 L2380.318,3497.973 Q2406.549,3494.811 2429.989,3494.997 Q2438.547,3494.997 2446.732,3495.369 Q2446.732,3519.367 2443.942,3534.994 L2444.314,3535.366 Q2452.685,3515.089 2470.08,3503.368 Q2487.474,3491.648 2511.472,3491.648 Q2568.213,3491.648 2568.213,3552.11 L2568.213,3659.266 Q2585.328,3660.382 2600.211,3664.475 L2600.211,3684.753 z" fill="#4D2D7A"/>
    <path d="M2863.823,3608.85 Q2863.823,3643.825 2838.057,3665.963 Q2812.291,3688.101 2768.573,3688.101 Q2738.435,3688.101 2713.693,3681.776 L2713.693,3620.757 L2738.807,3620.757 Q2741.412,3636.384 2743.83,3654.615 Q2758.341,3657.964 2770.433,3658.15 Q2795.548,3658.15 2811.361,3647.267 Q2827.174,3636.384 2827.174,3613.873 Q2827.174,3600.479 2818.43,3590.805 Q2809.687,3581.131 2796.757,3576.201 Q2783.828,3571.271 2768.573,3564.76 Q2753.318,3558.249 2740.389,3551.179 Q2727.459,3544.11 2718.623,3530.25 Q2709.786,3516.391 2709.786,3496.857 Q2709.786,3464.487 2734.25,3444.302 Q2758.713,3424.117 2800.943,3424.117 Q2823.081,3424.117 2850.428,3429.14 L2850.428,3488.114 L2825.314,3488.114 Q2821.965,3470.254 2820.663,3454.999 Q2811.919,3453.139 2799.455,3453.139 Q2773.968,3453.139 2760.201,3464.022 Q2746.435,3474.905 2746.435,3493.136 Q2746.435,3506.159 2755.178,3515.461 Q2763.922,3524.762 2776.945,3529.878 Q2789.967,3534.994 2805.129,3541.692 Q2820.291,3548.389 2833.313,3555.458 Q2846.336,3562.528 2855.079,3576.201 Q2863.823,3589.875 2863.823,3608.85 z" fill="#4D2D7A"/>
    <path d="M3040.184,3677.497 Q3012.837,3687.357 2984.188,3687.357 Q2898.426,3687.357 2898.426,3596.386 Q2898.426,3548.761 2922.61,3520.763 Q2946.795,3492.764 2993.676,3492.764 Q3018.418,3492.764 3039.068,3499.276 L3039.068,3554.528 L3017.674,3554.528 Q3015.07,3541.134 3012.651,3523.646 Q3003.163,3520.298 2989.025,3520.112 Q2962.794,3520.112 2948.469,3539.18 Q2934.144,3558.249 2934.144,3590.619 Q2934.144,3622.245 2947.167,3640.197 Q2960.189,3658.15 2991.443,3658.15 Q3017.302,3658.15 3037.952,3647.732 z" fill="#4D2D7A"/>
    <path d="M3245.009,3586.898 Q3245.009,3630.244 3219.522,3659.173 Q3194.035,3688.101 3152.55,3688.101 Q3112.552,3688.101 3090.042,3664.103 Q3067.531,3640.104 3067.531,3591.735 Q3067.531,3549.133 3092.646,3520.577 Q3117.761,3492.02 3159.619,3492.02 Q3198.5,3492.02 3221.755,3515.089 Q3245.009,3538.157 3245.009,3586.898 z M3209.29,3588.759 Q3209.29,3556.016 3195.896,3538.25 Q3182.501,3520.484 3156.642,3520.484 Q3134.132,3520.484 3118.691,3537.878 Q3103.25,3555.272 3103.25,3588.386 Q3103.25,3622.617 3117.017,3640.941 Q3130.783,3659.266 3156.642,3659.266 Q3179.153,3659.266 3194.221,3641.313 Q3209.29,3623.361 3209.29,3588.759 z" fill="#4D2D7A"/>
    <path d="M3487.041,3682.148 Q3461.554,3685.311 3438.3,3685.125 Q3429.928,3685.125 3421.742,3684.753 Q3421.742,3661.126 3424.533,3645.127 L3423.789,3644.755 Q3415.417,3665.033 3398.023,3676.753 Q3380.629,3688.473 3357.002,3688.473 Q3300.261,3688.473 3300.261,3628.012 L3300.261,3522.158 Q3284.635,3519.553 3268.263,3518.251 L3268.263,3497.973 Q3293.192,3494.811 3317.191,3494.997 Q3325.934,3494.997 3334.492,3495.369 L3334.492,3617.78 Q3334.492,3639.174 3341.561,3649.592 Q3348.631,3660.01 3366.49,3660.01 Q3389.744,3660.01 3405.185,3639.081 Q3420.626,3618.152 3420.626,3586.526 L3420.626,3522.158 Q3408.906,3520.298 3390.116,3518.623 L3390.116,3497.973 Q3415.231,3494.811 3438.3,3494.997 Q3446.671,3494.997 3454.485,3495.369 L3454.485,3658.15 Q3470.112,3660.754 3487.041,3661.87 z" fill="#4D2D7A"/>
    <path d="M3619.126,3684.009 Q3601.266,3687.729 3582.477,3687.729 Q3553.827,3687.729 3542.851,3674.986 Q3531.875,3662.242 3531.875,3630.989 L3531.875,3522.158 L3492.994,3522.158 L3492.994,3495.369 L3531.875,3495.369 L3531.875,3433.977 L3566.106,3424.49 L3566.106,3495.369 L3619.126,3495.369 L3619.126,3522.158 L3566.106,3522.158 L3566.106,3618.896 Q3566.106,3642.523 3571.687,3650.522 Q3577.268,3658.522 3593.267,3658.522 Q3605.545,3658.522 3619.126,3654.987 z" fill="#4D2D7A"/>
    <path d="M3970.174,3574.62 Q3958.454,3577.224 3945.059,3579.271 L3945.059,3673.405 Q3905.062,3688.287 3860.041,3688.101 Q3801.44,3688.101 3766.931,3654.429 Q3732.421,3620.757 3732.421,3561.225 Q3732.421,3500.578 3770,3462.348 Q3807.579,3424.117 3870.645,3424.117 Q3903.387,3424.117 3940.036,3433.233 L3940.036,3493.881 L3914.922,3493.881 Q3911.573,3474.905 3910.271,3460.022 Q3888.505,3454.255 3867.669,3454.255 Q3825.439,3454.255 3797.626,3480.951 Q3769.814,3507.647 3769.814,3557.133 Q3769.814,3604.758 3795.487,3631.268 Q3821.16,3657.778 3865.064,3657.778 Q3887.947,3657.778 3910.271,3650.894 L3910.271,3579.271 Q3893.528,3578.155 3877.529,3574.248 L3877.529,3553.598 L3970.174,3553.598 z" fill="#4D2D7A"/>
    <path d="M4123.653,3492.02 L4122.165,3525.507 Q4116.026,3524.576 4110.445,3524.576 Q4087.19,3524.576 4074.726,3541.506 Q4059.285,3562.528 4059.285,3608.478 L4059.285,3659.266 Q4077.144,3660.382 4092.399,3664.475 L4092.399,3684.753 L3991.754,3684.753 L3991.754,3664.475 Q4007.009,3660.196 4025.054,3659.266 L4025.054,3522.158 Q4009.427,3519.553 3991.754,3518.251 L3991.754,3497.973 Q4017.985,3494.811 4041.426,3494.997 Q4049.983,3494.997 4058.169,3495.369 Q4058.169,3517.879 4054.262,3540.389 L4054.634,3540.389 Q4070.261,3491.462 4114.538,3491.462 Q4119.002,3491.462 4123.653,3492.02 z" fill="#4D2D7A"/>
    <path d="M4322.339,3586.898 Q4322.339,3630.244 4296.852,3659.173 Q4271.365,3688.101 4229.879,3688.101 Q4189.882,3688.101 4167.372,3664.103 Q4144.861,3640.104 4144.861,3591.735 Q4144.861,3549.133 4169.976,3520.577 Q4195.091,3492.02 4236.949,3492.02 Q4275.83,3492.02 4299.084,3515.089 Q4322.339,3538.157 4322.339,3586.898 z M4286.62,3588.759 Q4286.62,3556.016 4273.226,3538.25 Q4259.831,3520.484 4233.972,3520.484 Q4211.462,3520.484 4196.021,3537.878 Q4180.58,3555.272 4180.58,3588.386 Q4180.58,3622.617 4194.347,3640.941 Q4208.113,3659.266 4233.972,3659.266 Q4256.482,3659.266 4271.551,3641.313 Q4286.62,3623.361 4286.62,3588.759 z" fill="#4D2D7A"/>
    <path d="M4564.371,3682.148 Q4538.884,3685.311 4515.629,3685.125 Q4507.258,3685.125 4499.072,3684.753 Q4499.072,3661.126 4501.863,3645.127 L4501.119,3644.755 Q4492.747,3665.033 4475.353,3676.753 Q4457.958,3688.473 4434.332,3688.473 Q4377.591,3688.473 4377.591,3628.012 L4377.591,3522.158 Q4361.964,3519.553 4345.593,3518.251 L4345.593,3497.973 Q4370.522,3494.811 4394.521,3494.997 Q4403.264,3494.997 4411.822,3495.369 L4411.822,3617.78 Q4411.822,3639.174 4418.891,3649.592 Q4425.96,3660.01 4443.82,3660.01 Q4467.074,3660.01 4482.515,3639.081 Q4497.956,3618.152 4497.956,3586.526 L4497.956,3522.158 Q4486.236,3520.298 4467.446,3518.623 L4467.446,3497.973 Q4492.561,3494.811 4515.629,3494.997 Q4524.001,3494.997 4531.814,3495.369 L4531.814,3658.15 Q4547.441,3660.754 4564.371,3661.87 z" fill="#4D2D7A"/>
    <path d="M4774.776,3581.131 Q4774.776,3631.361 4749.104,3659.173 Q4723.431,3686.985 4677.294,3686.985 Q4658.69,3686.985 4645.296,3684.753 L4645.296,3753.4 Q4661.667,3754.516 4678.41,3758.237 L4678.41,3778.886 L4577.765,3778.886 L4577.765,3758.237 Q4594.508,3754.516 4611.065,3753.4 L4611.065,3522.158 Q4595.438,3519.553 4577.765,3518.251 L4577.765,3497.973 Q4604.368,3494.811 4627.437,3494.997 Q4635.808,3494.997 4643.808,3495.369 Q4643.808,3521.228 4641.017,3533.878 L4641.761,3534.25 Q4649.761,3514.531 4666.411,3503.275 Q4683.061,3492.02 4705.013,3492.02 Q4738.5,3492.02 4756.638,3514.903 Q4774.776,3537.785 4774.776,3581.131 z M4739.058,3584.108 Q4739.058,3520.112 4697.014,3520.112 Q4673.015,3520.112 4659.156,3542.808 Q4645.296,3565.504 4645.296,3593.223 L4645.296,3655.731 Q4660.179,3660.382 4678.782,3660.382 Q4707.06,3660.382 4723.059,3641.872 Q4739.058,3623.361 4739.058,3584.108 z" fill="#4D2D7A"/>
  </g>
</svg>
