<svg id="c7195c5d-db1a-4f7f-a539-bc9e56567346" data-name="1" xmlns="http://www.w3.org/2000/svg" viewBox="0 0 558.26 336.35"><defs><style>.\31 1e4d96f-b356-4113-9520-4104a72c8391{fill:#ededee;}.\34 3c0228b-80b9-4f1f-8735-f898137820fe{fill:#f29d3e;}.bca16283-a3ba-4d2b-860f-96a3a8da4a2a{fill:#c88332;}.\34 3ea9a72-cc7e-4e53-b011-a5a022a9bedb{fill:#ca8433;}.\37 0297761-c64e-46f8-9e08-4b0a3f365b37{fill:#414042;}.deee90f9-6a69-4c2e-a39b-e032174e660a{fill:#dad7c5;}.b8432cec-2528-4e0a-a59b-6baba0e920e2{fill:#c1bfb0;}.\37 4964cd8-eef4-463f-a310-18b8ff7cb185{fill:#6f644f;}.cc85c128-b80e-40fb-9e69-e66ca07a3ba7{fill:#7e725b;}.\33 c6cdd53-3908-4d5f-9f5d-f1dbf4a6515b{fill:#ecc19c;}.a2bd1647-0807-4c19-b1fd-3a91c43289e6{fill:#dfb28b;}.\38 61e4cbf-a334-44de-92b3-8389d4eae71a{fill:#babcbe;}.\34 4ea71f1-b022-4ad5-b0ee-1ad80f26d945{fill:#6154a4;}.\33 c0ae9ed-53f1-40ff-8cc6-952594a16fc9{fill:#887dbb;}.bb868dc0-2e93-4548-906e-ef3443f28f33{fill:#4c4082;}.fba526ff-b2b5-407d-88fb-5dbeb5fe767b{fill:#ef3c39;}.be11b2d2-38cd-468c-a512-d88eb3a97e49{fill:#3989c9;}.\35 011c661-aeec-452b-8ca4-861260b61f95{fill:#6dc065;}.\32 727dd22-1379-431a-9085-84b6986d66fb{fill:#564a92;}.b0996858-fdc7-4d8f-aabc-656c0d509d41{fill:#fff;}.eab5574e-e627-4f77-bb9f-58e2a5cfe436{fill:#f26755;}.\34 810e3f2-905d-443f-8518-7f8c39a6273b{fill:#dadbdc;}.d05af9fd-da14-44aa-913f-2903869a7c10{fill:#ffdf7f;}.c53a2753-9b36-4b29-aebc-5b4507823868{fill:#d78d37;}</style></defs><title>get_your_ducks_in_a_row</title><ellipse class="11e4d96f-b356-4113-9520-4104a72c8391" cx="38.06" cy="325.61" rx="28.27" ry="4.03"/><ellipse class="11e4d96f-b356-4113-9520-4104a72c8391" cx="147.58" cy="327.57" rx="31.79" ry="4.03"/><ellipse class="11e4d96f-b356-4113-9520-4104a72c8391" cx="257.33" cy="331.18" rx="31.79" ry="4.03"/><ellipse class="11e4d96f-b356-4113-9520-4104a72c8391" cx="382.25" cy="331.18" rx="31.79" ry="4.03"/><ellipse class="11e4d96f-b356-4113-9520-4104a72c8391" cx="366.95" cy="319.19" rx="51.34" ry="6.14"/><ellipse class="11e4d96f-b356-4113-9520-4104a72c8391" cx="412.96" cy="319.19" rx="51.34" ry="6.14"/><ellipse class="11e4d96f-b356-4113-9520-4104a72c8391" cx="503.83" cy="329.76" rx="31.79" ry="4.03"/><path class="43c0228b-80b9-4f1f-8735-f898137820fe" d="M262.22,326s-0.69,7.14-5.49,9-6.86,3.77-5.32,5.83,18.88,7.55,24.37,8.24c0,0-.69-4.12,4.12-4.8,0,0-5.49-3.6-.86-5.66,0,0-14.27.3-17.16-2.4,0,0,7-5.66,7.89-12.53Z" transform="translate(-15.75 -12.79)"/><path class="bca16283-a3ba-4d2b-860f-96a3a8da4a2a" d="M276.72,321.24s5.61,4.47,4.57,9.53-0.58,7.81,2,7.64,16.62-11.71,20.19-15.94c0,0-3.83-1.67-1.78-6.07,0,0-6,2.64-5.21-2.37,0,0-7.53,12.13-11.37,13.07,0,0-.91-9-6.2-13.45Z" transform="translate(-15.75 -12.79)"/><path class="43ea9a72-cc7e-4e53-b011-a5a022a9bedb" d="M54.09,319.77s2,8.48.25,11.22a3.22,3.22,0,0,0,3.81,4.79c5.8-1.78,16.42-8.3,16.42-8.3s-2.87-2.53-1.22-4.61c0,0-3.84,1.12-3.38-.92,0,0-10.41,7.2-11.7,7.07a72.41,72.41,0,0,0-.5-14.1Z" transform="translate(-15.75 -12.79)"/><path class="43c0228b-80b9-4f1f-8735-f898137820fe" d="M44,322.36s-3.15,8.13-6.18,9.37a3.22,3.22,0,0,0,.41,6.11c5.78,1.83,18.23,2.52,18.23,2.52s-0.92-3.71,1.62-4.48c0,0-3.8-1.27-2.26-2.68,0,0-12.66,0-13.64-.84a72.4,72.4,0,0,0,7.61-11.88Z" transform="translate(-15.75 -12.79)"/><path class="70297761-c64e-46f8-9e08-4b0a3f365b37" d="M369.72,310.36s-3.87.71-11.39,0S336,320.71,342.19,330.44l36.26,1.33,3.1-3.32v3.32H396s2-5.37,0-10.42c0,0-7.55-13.9-8.44-13.9s-11.5-2.87-11.94-2.21S369.72,310.36,369.72,310.36Z" transform="translate(-15.75 -12.79)"/><path class="deee90f9-6a69-4c2e-a39b-e032174e660a" d="M359.65,140s-1.23.42-3.36,1.09c-7,2.22-24,7.21-39.39,9.07-20.08,2.42-32.82-5.5-32.82-5.5l5.75-15.61,0.12-.31,0.19,0.11a18.34,18.34,0,0,0,4.63,1.74c8.23,2.05,21.15,1.31,31-1.85,12.1-3.88,22.09-13.62,22.09-13.62s7.28,13.84,7.93,14.7S359.65,140,359.65,140Z" transform="translate(-15.75 -12.79)"/><path class="b8432cec-2528-4e0a-a59b-6baba0e920e2" d="M356.29,141.11c-7,2.22-24,7.21-39.39,9.07-20.08,2.42-32.82-5.5-32.82-5.5l5.75-15.61,0.31-.2a18.34,18.34,0,0,0,4.63,1.74c-0.54,3.8-4.36,10.46-4.38,12.84,7.08,0.1,14.22,2.31,21.54,2.29,9.58,0,20.57-.76,29.68-3.7-1.58-1.77-4.08-3.09-5.93-4.55a26.91,26.91,0,0,1,12.79,1.94c-1.14-3.14-3.84-5.49-5.47-8.26,2.9,1.35,5.7,2.58,8,4.92-0.3-3.44-3.46-6-3.76-9.47,3.06,2.12,5.31,5.82,7,9.12C355.15,137.38,355.51,139.53,356.29,141.11Z" transform="translate(-15.75 -12.79)"/><path class="74964cd8-eef4-463f-a310-18b8ff7cb185" d="M357.42,198.35s1.32,36.64,5,60.09,9.86,46.71,7.26,51.92c0,0,21.77,6,26.24,11,0,0-.74-23.82-4.09-35.17s-11.35-71.09-11.17-74.25-0.56-11.17-1.3-11.17S357.42,198.35,357.42,198.35Z" transform="translate(-15.75 -12.79)"/><path class="70297761-c64e-46f8-9e08-4b0a3f365b37" d="M413.11,317.2c-0.68.45-4.55,9.54-3.21,16.44l13.26,0.4,0.08-2.65,1.69,2.71,35.81,1.09s0.77-10.82-3.73-15.6-10.25-5.75-13.58-4.9c0,0-3.13-5.78-6.22-5.88s-7-2-9.93-1-3.8,1.21-4.7,1.63-2.48,1.47-3.6,1.88S413.11,317.2,413.11,317.2Z" transform="translate(-15.75 -12.79)"/><path class="cc85c128-b80e-40fb-9e69-e66ca07a3ba7" d="M443.23,314.45c-11.91-3.91-30.89,3.91-30.89,3.91s-0.93-17.68-3.73-25.87-26.24-78.9-26.24-78.9l-25-15.24-0.75-8.87-0.54-6.41,47.49-.27s0.33,1.75.88,4.7c2.38,12.73,9,47.82,11.37,60.52C418.85,263.65,443.23,314.45,443.23,314.45Z" transform="translate(-15.75 -12.79)"/><path class="3c6cdd53-3908-4d5f-9f5d-f1dbf4a6515b" d="M260.88,136.16s6.46,5.26,11.41,3.2,6.6-12.79,6.6-12.79-5.88-3.93-6.19-3.72-6.66.85-6.58,1-4.15,5.5-4.15,5.5L260.22,132Z" transform="translate(-15.75 -12.79)"/><path class="3c6cdd53-3908-4d5f-9f5d-f1dbf4a6515b" d="M263.33,135.23a13.79,13.79,0,0,1-2.45,3.1c-1.91,1.85-10.67-2.07-11.91-5.44A3.63,3.63,0,0,1,249,130a5.41,5.41,0,0,1,2.2-2.25l12.08,4C264.3,132.57,264.06,133.9,263.33,135.23Z" transform="translate(-15.75 -12.79)"/><path class="a2bd1647-0807-4c19-b1fd-3a91c43289e6" d="M263.33,135.23a5.56,5.56,0,0,1-2,1.22c-3.15,1.11-10.88-3.19-12.27-6.46a5.41,5.41,0,0,1,2.2-2.25l12.08,4C264.3,132.57,264.06,133.9,263.33,135.23Z" transform="translate(-15.75 -12.79)"/><path class="3c6cdd53-3908-4d5f-9f5d-f1dbf4a6515b" d="M265.38,129.3a6.58,6.58,0,0,1-1,2.56,5.66,5.66,0,0,1-3,2.34C258,135.44,248.77,130,249,126.67a6.89,6.89,0,0,1,2.63-4.47,11,11,0,0,1,1.5-1.1l2.89,0.51Z" transform="translate(-15.75 -12.79)"/><path class="a2bd1647-0807-4c19-b1fd-3a91c43289e6" d="M265.38,129.3a6.58,6.58,0,0,1-1,2.56c-4.38,2-12.5-6.1-12.8-9.13a3.1,3.1,0,0,1,0-.53,11,11,0,0,1,1.5-1.1l2.89,0.51Z" transform="translate(-15.75 -12.79)"/><path class="3c6cdd53-3908-4d5f-9f5d-f1dbf4a6515b" d="M256.73,115.14c-0.6.9-4.77,2.86-4.46,6s8.81,11.55,13.1,9,4.13-5.26,4.13-5.26L265.38,120l-6.29-4.82h-2.35Z" transform="translate(-15.75 -12.79)"/><path class="a2bd1647-0807-4c19-b1fd-3a91c43289e6" d="M257,122.44s1.86,5.2,8.15,2.24c0,0,3.41,5.83,8.87,4.58s-1.34-4.55-1.55-5-3-3.84-3-3.84-1.86-1.83-2.37-1.83-4.44.93-4.44,0.93l-2.48,1.55Z" transform="translate(-15.75 -12.79)"/><path class="3c6cdd53-3908-4d5f-9f5d-f1dbf4a6515b" d="M278.89,125.54l-1.55-5.06-10.76-8.87s-11.84,7.74-9.57,10.83,8.36,0.21,8.36.21,4.85,9,12.48,6.09Z" transform="translate(-15.75 -12.79)"/><path class="3c6cdd53-3908-4d5f-9f5d-f1dbf4a6515b" d="M265.38,113.88S249,95.82,244.74,98s8.25,17.75,15.68,20.64Z" transform="translate(-15.75 -12.79)"/><path class="deee90f9-6a69-4c2e-a39b-e032174e660a" d="M403.62,182.8l-6.11.31-40.89,2.07s1-30.16-.07-38.28-11.2-30.72-11.2-30.72,29.27-12.42,36.11-13.16,19.16,0.74,19.16.74l-10.33,22.09c0.09,0.28.19,0.62,0.29,1C393.54,137.26,403.62,182.8,403.62,182.8Z" transform="translate(-15.75 -12.79)"/><path class="b8432cec-2528-4e0a-a59b-6baba0e920e2" d="M403.62,182.8l-6.11.31a71.84,71.84,0,0,1-2.35-7,148.08,148.08,0,0,1-5.58-26.39c-0.57-4.6.34-10.94-2-15.12-1.4-2.54-4.29-1.72-6.31-3.84a21.72,21.72,0,0,1,5.58-1.83c-1.41-1.34-4.32-2.33-6.29-2.78a19.74,19.74,0,0,1,7.62,0l2.35,0.73C393.54,137.26,403.62,182.8,403.62,182.8Z" transform="translate(-15.75 -12.79)"/><path class="70297761-c64e-46f8-9e08-4b0a3f365b37" d="M404.5,187.5l-33.16,1.37-10.71.45-4,.16-0.54-6.41,5,0,9.49,0h2.07l30.88-.18S403.95,184.55,404.5,187.5Z" transform="translate(-15.75 -12.79)"/><polygon class="861e4cbf-a334-44de-92b3-8389d4eae71a" points="355.58 176.09 354.92 170.21 345.43 170.26 344.88 176.54 355.58 176.09"/><polygon class="deee90f9-6a69-4c2e-a39b-e032174e660a" points="367.34 79.5 354.54 82.13 358.87 90.98 363.39 88.34 367.34 79.5"/><path class="44ea71f1-b022-4ad5-b0ee-1ad80f26d945" d="M332.53,79.38v6l-5.78.9c3.43,8.49-6.13,11.83-9.57,9.56a10.46,10.46,0,0,1-3.35-3.52,11.53,11.53,0,0,1-1.51-6.36l6.48-5.82Z" transform="translate(-15.75 -12.79)"/><path class="3c0ae9ed-53f1-40ff-8cc6-952594a16fc9" d="M332.53,79.38V82l-0.86.5-6.8,1.07-3.5.33a15.56,15.56,0,0,0-7.54,8.37,11.53,11.53,0,0,1-1.51-6.36l6.48-5.82Z" transform="translate(-15.75 -12.79)"/><path class="bb868dc0-2e93-4548-906e-ef3443f28f33" d="M319,80.19c-0.21-.09,2.35,3.72,2.35,3.72l3.5-.33-2.36-3.7Z" transform="translate(-15.75 -12.79)"/><polygon class="861e4cbf-a334-44de-92b3-8389d4eae71a" points="329.6 96.25 330.07 108.31 340.93 98.77 338.36 95.32 331.82 95.88 329.6 96.25"/><polygon class="deee90f9-6a69-4c2e-a39b-e032174e660a" points="342.3 99.07 329.6 96.25 339.85 89.09 342.3 99.07"/><path class="3c6cdd53-3908-4d5f-9f5d-f1dbf4a6515b" d="M376.42,106.65l-6.13,2.77-12.66,5.72s-2.44-9.27-3.93-15c-0.65-2.5-1.12-4.31-1.12-4.36s-15.9,0-15.9,0c-4.52-2.6-6.06-13.82-6.54-19.09C330,75,329.94,74,329.94,74c-11.3.36-15.65-4.88-15.65-4.88,9.74-4.32,11.82-16,12.16-22.92a40.28,40.28,0,0,0-.06-5.43l-0.54-3.61L351.13,35l10.12,3.79s4.69,15.71,5,16.26S369,74,369,74Z" transform="translate(-15.75 -12.79)"/><path class="a2bd1647-0807-4c19-b1fd-3a91c43289e6" d="M376.42,106.65l-6.13,2.77L353.37,46.11l-5.21,2a17.23,17.23,0,0,1-13.89-2.57,42.64,42.64,0,0,1-7.82.6,40.28,40.28,0,0,0-.06-5.43l-0.54-3.61L351.13,35l10.12,3.79s4.69,15.71,5,16.26S369,74,369,74Z" transform="translate(-15.75 -12.79)"/><path class="fba526ff-b2b5-407d-88fb-5dbeb5fe767b" d="M385.32,56.67v0c-2.61,8.09-8,15-16.31,17.27l-4.88-13s-12.46-7.41-8.49-20.77c0,0-7.76,7.76-22.21,4.69l6.14-5.78s-25.44,12.63-43.5-2.51l0,0s15.36-2,22.58-10.65S350,5.15,362.33,19.24c0,0,10.83-5.6,20,7.76C387.49,34.44,388.59,46.52,385.32,56.67Z" transform="translate(-15.75 -12.79)"/><path class="3c6cdd53-3908-4d5f-9f5d-f1dbf4a6515b" d="M360.88,62.4s-0.36-8.31,9.39-8.67S376.78,74,364,72.88Z" transform="translate(-15.75 -12.79)"/><path class="a2bd1647-0807-4c19-b1fd-3a91c43289e6" d="M360.88,63.94s-0.3-7.09,7.72-7.4,5.35,17.27-5.2,16.34Z" transform="translate(-15.75 -12.79)"/><path class="be11b2d2-38cd-468c-a512-d88eb3a97e49" d="M284.79,37.35s-7.33,7.17-15.17,10.33A44.58,44.58,0,0,1,278.12,70s-6.33-6.7-9.33,2.9,13,14.93,14.67,5.27c0,0-2.67-16.67-4.67-20,0,0,7.5-3.5,11.17-1.5C290,56.69,290,41.69,284.79,37.35Z" transform="translate(-15.75 -12.79)"/><path class="5011c661-aeec-452b-8ca4-861260b61f95" d="M302.62,58.69s-2.17,9.83-5.5,13.33c0,0-.83-3-2.83-2.67s-8,5.83-4.33,9.17,6.83-2.33,6.83-2.33L302,65,309.08,67s0.5,0.69-.64,3.61S306.61,74,306.61,74s-2.32-3.06-4.32,0A4.77,4.77,0,0,0,304,80.6c1.18,0.54,2.3-.86,2.84-2.37,1.69-4.75,5.21-15.12,5.45-19.54h-9.67Z" transform="translate(-15.75 -12.79)"/><ellipse class="be11b2d2-38cd-468c-a512-d88eb3a97e49" cx="319.89" cy="45.75" rx="2.32" ry="5.66"/><path class="44ea71f1-b022-4ad5-b0ee-1ad80f26d945" d="M372.25,117.06c0,1-1.25,1.73-3,2.25a28.08,28.08,0,0,1-7.72,1,21.81,21.81,0,0,1-3.46-.24h0c-4.44-.75-3.59-6.55-3-8.87,0.44-1.77,7.46-1.48,10.78-1.24,1,0.07,1.71.14,1.71,0.14S372.35,114.27,372.25,117.06Z" transform="translate(-15.75 -12.79)"/><path class="44ea71f1-b022-4ad5-b0ee-1ad80f26d945" d="M373,177.52L361.12,190l-1,1-10.33-9.84c9.29-15,8.45-55.43,8.28-61.12,0-.44,0-0.67,0-0.67l5.12-.89,5.62-1a14.65,14.65,0,0,1,.46,1.79C371.91,131.83,373,177.52,373,177.52Z" transform="translate(-15.75 -12.79)"/><path class="2727dd22-1379-431a-9085-84b6986d66fb" d="M362.75,182.08a20.87,20.87,0,0,0-.51-5.19c-0.24-1.58-.32-0.88.18-2.7,0.26-.91,1.3-2.17.7-3.26-1.41-2.53-5.63.38-7-1.29-2.06-2.48,6.24-6.1,11-7.4,0.06-.56.13-1.1,0.15-1.57a253.62,253.62,0,0,0-.51-30.83c-0.44-4.88-2-7.18-5.22-9.54q-0.75-.54-1.62-1.11a5.35,5.35,0,0,0,3.26-.69c2.92-1.62,4.53-5.68,2.65-8.55,1,0.07,1.71.14,1.71,0.14s4.82,4.18,4.72,7c0,1-1.25,1.73-3,2.25,2.66,12.52,3.7,58.21,3.7,58.21L361.12,190C361.14,187.38,362.55,184.66,362.75,182.08Z" transform="translate(-15.75 -12.79)"/><polygon class="861e4cbf-a334-44de-92b3-8389d4eae71a" points="350.4 97 367.34 79.5 371.43 91.35 356.05 106.61 350.4 97"/><path class="a2bd1647-0807-4c19-b1fd-3a91c43289e6" d="M385.79,153.35s-7-3.17-11.17-3.17c0,0-9.67,3.33-12.17,4.08,0,0,.17,1.75,2.83,2.42s6.83,2.17,7.67,2.17h7.17l5-2.33Z" transform="translate(-15.75 -12.79)"/><path class="3c6cdd53-3908-4d5f-9f5d-f1dbf4a6515b" d="M385.79,153.35s-14.81-.25-18.5,1.17-11,6.17-13.83,8.67-6,7-3.67,7.5,15.72-6.5,16.36-4.67-1.19,2.55-3.69,4.69-8,9.14-4.4,9.81S373,173,373,173s-8.58,6.45-7.17,8.5,10.33-3,13-5.67c0,0-6.5,5.83-4.67,6.83S386,178,387.79,176s7.83-10.33,8.67-13S385.79,153.35,385.79,153.35Z" transform="translate(-15.75 -12.79)"/><path class="deee90f9-6a69-4c2e-a39b-e032174e660a" d="M397.45,147.52s13-13.83,14.33-18.5l8.33-4.67,10.67,8.33s-15,24.17-20.5,28.17Z" transform="translate(-15.75 -12.79)"/><path class="861e4cbf-a334-44de-92b3-8389d4eae71a" d="M414.29,162.52c-2.83,4.33-12,10.66-12,10.66a8.45,8.45,0,0,1-1.11-.58c-7.32-4.4-17.73-21.58-17.73-21.58l16.34-6.34,1.12,1.38Z" transform="translate(-15.75 -12.79)"/><path class="deee90f9-6a69-4c2e-a39b-e032174e660a" d="M422.09,125.89l-12.75,11.28L406.12,140s-0.67-4-5.5-6.17c-4.37-2-11.83-7.33-13.21-8.33l-0.23-.17s8.86-19,9.32-19.52a31.57,31.57,0,0,1,4.12-2.07S411.39,119.93,422.09,125.89Z" transform="translate(-15.75 -12.79)"/><path class="b8432cec-2528-4e0a-a59b-6baba0e920e2" d="M409.34,137.17L406.12,140s-0.67-4-5.5-6.17c-4.37-2-11.83-7.33-13.21-8.33,3.1-4.38,9.09-8.25,13.52-10.24-3.27,2.08-5.74,5.49-7.86,8.65a50.79,50.79,0,0,1,7.69-1.89c-0.82,2.06-3.58,2.85-5.15,4.26a34.46,34.46,0,0,0,9.4-.79,37.61,37.61,0,0,0-4.65,2.12C403.86,131,407.32,133.46,409.34,137.17Z" transform="translate(-15.75 -12.79)"/><path class="861e4cbf-a334-44de-92b3-8389d4eae71a" d="M294.23,127.68s-0.33.87-.9,2.31c-2.07,5.22-7.26,17.85-11,23.13l-14.05-5.74-1.71-.7s12.45-19,12.59-25.58C279.18,121.1,289.69,127,294.23,127.68Z" transform="translate(-15.75 -12.79)"/><circle class="deee90f9-6a69-4c2e-a39b-e032174e660a" cx="388.05" cy="151.01" r="1.94"/><circle class="deee90f9-6a69-4c2e-a39b-e032174e660a" cx="262.51" cy="131.68" r="2.1"/><path class="fba526ff-b2b5-407d-88fb-5dbeb5fe767b" d="M332.45,49a2,2,0,0,1,0-.51,2.31,2.31,0,0,1,.18-0.53,2.37,2.37,0,0,1,.38-0.61,2.68,2.68,0,0,1,.62-0.59,3.33,3.33,0,0,1,.87-0.46,4,4,0,0,1,2.13-.13,4.2,4.2,0,0,1,1,.35,3.45,3.45,0,0,1,.81.53,3.91,3.91,0,0,1,1,1.3,3.46,3.46,0,0,1,.34,1.14,3.21,3.21,0,0,1,0,.49l-0.14.14-0.27-.23c-0.18-.14-0.41-0.36-0.72-0.58a7,7,0,0,0-1.08-.7,4.31,4.31,0,0,0-.66-0.29,4.36,4.36,0,0,0-.71-0.2,3.85,3.85,0,0,0-1.43-.06,3.72,3.72,0,0,0-1.2.38,4,4,0,0,0-1,.69Z" transform="translate(-15.75 -12.79)"/><ellipse class="b0996858-fdc7-4d8f-aabc-656c0d509d41" cx="317.66" cy="48.86" rx="1.67" ry="1.68"/><path class="a2bd1647-0807-4c19-b1fd-3a91c43289e6" d="M358.81,95.81l-5.11,4.36c-0.65-2.5-1.12-4.31-1.12-4.36h6.23Z" transform="translate(-15.75 -12.79)"/><path class="eab5574e-e627-4f77-bb9f-58e2a5cfe436" d="M385.32,56.67c0.94-6.5,1.59-18-3.59-26.18-7.6-12-20.85-8.73-20.85-8.73-8.69-6.65-27-1.71-40.1,9.3-12.69,10.67-24,5.84-24.71,5.53l0,0s15.36-2,22.58-10.65S350,5.15,362.33,19.24c0,0,10.83-5.6,20,7.76C387.49,34.44,388.59,46.52,385.32,56.67Z" transform="translate(-15.75 -12.79)"/><path class="a2bd1647-0807-4c19-b1fd-3a91c43289e6" d="M334.7,73.6l-4.56,3.12C330,75,329.94,74,329.94,74Z" transform="translate(-15.75 -12.79)"/><path class="4810e3f2-905d-443f-8518-7f8c39a6273b" d="M293.33,130a18.64,18.64,0,0,1-11.55-4.63c0.42,1.46,1.09,2.87.88,4.45a6.22,6.22,0,0,1-2.06-2.47c-2.14,2.88-4.08,6.7-6.28,9.83s-3.89,6.88-6,10.21l-1.71-.7s12.45-19,12.59-25.58c0,0,10.51,5.94,15,6.58C294.23,127.68,293.9,128.55,293.33,130Z" transform="translate(-15.75 -12.79)"/><path class="4810e3f2-905d-443f-8518-7f8c39a6273b" d="M401.18,172.6c-7.32-4.4-17.73-21.58-17.73-21.58l16.34-6.34,1.12,1.38c-1.53.81-3.19,1.77-4.68,2.37-2.52,1-5.17,1.71-7.57,2.94,0.54,1.23,2.09,1.33,2.31,2.64a7.28,7.28,0,0,1-2.64-.46c0,3,4,6.06,5.54,8.4C396,165.19,399,168.83,401.18,172.6Z" transform="translate(-15.75 -12.79)"/><path class="d05af9fd-da14-44aa-913f-2903869a7c10" d="M79.59,268.11l-4.33,3s1.3,26-2.86,33.61c-0.11.2-.22,0.38-0.33,0.55-4.55,6.83-36,13.66-36,13.66s-0.56.29-1.42,0.67c-2,.88-5.69,2.25-7.92,1.61-3.19-.91-4.1-4.33-1.37-6.15,0,0-8.42-1.37-6.37-3.87a3.9,3.9,0,0,1,4.45-1.41c-1.06-.51-10.4-5.08-7-7,3.65-2,11.62,1.37,12.3,5.24,0,0,4.12-11.35,18.11-15.08,9.41-2.51,12.63-2.68,13.54-4.73s3.19-13.43,1.82-14.57-8.42-12.75-2-21.18,21.63-5.46,21.86,8.43Z" transform="translate(-15.75 -12.79)"/><path class="43c0228b-80b9-4f1f-8735-f898137820fe" d="M72.4,304.68c-0.11.2-.22,0.38-0.33,0.55-4.55,6.83-36,13.66-36,13.66s-0.56.29-1.42,0.67c-2-.39-3.53-1-2.77-2.2a6.19,6.19,0,0,1,4.22-2.68c-1.46.08-5.1,0-1.94-3.07,3.87-3.81,21.17-15.65,29.14-13.83C63.33,297.78,69.8,299.72,72.4,304.68Z" transform="translate(-15.75 -12.79)"/><path class="d05af9fd-da14-44aa-913f-2903869a7c10" d="M64.56,296.81s11.38,3.42,10,12.75-31.65,17.53-34.15,14.12,2-4.55,2-4.55-11.16,0-9.34-2.73a6.16,6.16,0,0,1,4.78-2.73s-6.38.79-2.5-3S56.59,295,64.56,296.81Z" transform="translate(-15.75 -12.79)"/><path class="43c0228b-80b9-4f1f-8735-f898137820fe" d="M84.62,262.41s-2.66-3.5-3.76-1.59c-1.22,2.14-7.93,8.4-6.1,10.15s9.83,1.11,12.84-.55,6.82-5.39,5.79-6.1S85.83,263.79,84.62,262.41Z" transform="translate(-15.75 -12.79)"/><path class="d05af9fd-da14-44aa-913f-2903869a7c10" d="M68.32,247.8s-1.42-6,1.54-8.09S69.94,245.84,68.32,247.8Z" transform="translate(-15.75 -12.79)"/><path class="d05af9fd-da14-44aa-913f-2903869a7c10" d="M68.32,247.8s-2.39-7.06-5.35-5.71S66.65,247.89,68.32,247.8Z" transform="translate(-15.75 -12.79)"/><ellipse class="70297761-c64e-46f8-9e08-4b0a3f365b37" cx="58.09" cy="246.8" rx="1.47" ry="2.73"/><circle class="b0996858-fdc7-4d8f-aabc-656c0d509d41" cx="59.37" cy="244.81" r="1.28"/><path class="d05af9fd-da14-44aa-913f-2903869a7c10" d="M201.3,258.1L193.94,272s-4.72,18.2-7.74,25.57a15,15,0,0,1-1.62,2.84c-5.46,7.8-20.73,19.52-34.07,20.17a25.92,25.92,0,0,1-8.75-.94c-8.12-2.36-10.7-8.29-10.7-8.29s-6.42,3.4-9.82,1.7,4.49-5.11,4.89-5.28c-0.55.14-10.41,2.7-11.69-1.89S125.58,303,125.58,303s-8.5-9.25-3.4-11.52,7.93,9.82,7.93,9.82c3.21-5.47,11.33-12.46,23.23-16s20.58-.77,20.58-0.77c4.72-2.47,6.23-12.52,6.23-12.52s-7.36-8.42-4.53-17.68,10.95-14.16,18.51-11.89S201.3,258.1,201.3,258.1Z" transform="translate(-15.75 -12.79)"/><path class="d05af9fd-da14-44aa-913f-2903869a7c10" d="M188.08,241.88s0.76-6.63,3.78-7.76S192.24,238.88,188.08,241.88Z" transform="translate(-15.75 -12.79)"/><path class="d05af9fd-da14-44aa-913f-2903869a7c10" d="M188.08,241.88s-3.4-5.24-8.31-4S183.53,241.69,188.08,241.88Z" transform="translate(-15.75 -12.79)"/><path class="43c0228b-80b9-4f1f-8735-f898137820fe" d="M184.58,300.41c-5.46,7.8-20.73,19.52-34.07,20.17a25.92,25.92,0,0,1-8.75-.94c-1.33-1.07-1.76-2.43,1.28-3.75,0,0-7.07-2.16-.47-5.9,0,0,7.18-3.54,11.15-6.94s13.73-8.17,16.24-8.88c0.74-.21,10-4.06,14,4.58A8.2,8.2,0,0,1,184.58,300.41Z" transform="translate(-15.75 -12.79)"/><path class="43c0228b-80b9-4f1f-8735-f898137820fe" d="M152.77,320.62s0,10.18-3.4,12.64-7.36,2.27-5.85,4.72,15.11,6.8,24.36,5.85c0,0-2.45-4.16,2.83-4.91,0,0-7-2.27-3.78-3.78,0,0-9.73,1-12.84-1.51,0,0,4.62-6.2,3.73-13h-5Z" transform="translate(-15.75 -12.79)"/><path class="c53a2753-9b36-4b29-aebc-5b4507823868" d="M162.17,317s5.94,8.27,4.6,12.25-4.66,6.14-2,7.25S181,333.18,188,327c0,0-4.42-1.95-.56-5.64,0,0-7,2.23-5.27-.87,0,0-7.31,6.5-11.31,6.26,0,0,.14-7.73-4.56-12.75Z" transform="translate(-15.75 -12.79)"/><path class="d05af9fd-da14-44aa-913f-2903869a7c10" d="M172.79,292.66c0.75-.21,10-4.06,14,4.58s-9.14,19.43-20.28,24.7-27.38,4.14-17.75-1.71c0,0-9.45-3-2.93-5.85,0,0-7.08-2.16-.47-5.9,0,0,7.18-3.55,11.14-6.95S170.29,293.37,172.79,292.66Z" transform="translate(-15.75 -12.79)"/><path class="43c0228b-80b9-4f1f-8735-f898137820fe" d="M205.29,259.16c-0.24-.16-3.44-2.72-4.48-1.36s-4.24,8.64-7,10.24,0.52,2.45,3.6,2.48c9.68,0.08,15.92-6.08,16.64-8.56s-2-1.6-3.84-1.6A18.76,18.76,0,0,1,205.29,259.16Z" transform="translate(-15.75 -12.79)"/><ellipse class="70297761-c64e-46f8-9e08-4b0a3f365b37" cx="178.09" cy="243.71" rx="1.47" ry="2.73"/><circle class="b0996858-fdc7-4d8f-aabc-656c0d509d41" cx="179.37" cy="241.71" r="1.28"/><path class="d05af9fd-da14-44aa-913f-2903869a7c10" d="M561.11,260.76l-7.36,13.9S549,292.86,546,300.23a15,15,0,0,1-1.62,2.84c-5.46,7.8-20.73,19.52-34.07,20.17a25.92,25.92,0,0,1-8.75-.94c-8.12-2.36-10.7-8.29-10.7-8.29s-6.42,3.4-9.82,1.7,4.49-5.11,4.89-5.28c-0.55.14-10.41,2.7-11.69-1.89s11.14-2.84,11.14-2.84-8.5-9.25-3.4-11.52,7.93,9.82,7.93,9.82c3.21-5.47,11.33-12.46,23.23-16s20.58-.77,20.58-0.77c4.72-2.47,6.23-12.52,6.23-12.52s-7.36-8.42-4.53-17.68,11-14.16,18.51-11.89S561.11,260.76,561.11,260.76Z" transform="translate(-15.75 -12.79)"/><path class="d05af9fd-da14-44aa-913f-2903869a7c10" d="M547.9,244.54s0.76-6.63,3.78-7.76S552.05,241.53,547.9,244.54Z" transform="translate(-15.75 -12.79)"/><path class="d05af9fd-da14-44aa-913f-2903869a7c10" d="M547.9,244.54s-3.4-5.24-8.31-4S543.34,244.34,547.9,244.54Z" transform="translate(-15.75 -12.79)"/><path class="43c0228b-80b9-4f1f-8735-f898137820fe" d="M544.39,303.07c-5.46,7.8-20.73,19.52-34.07,20.17a25.92,25.92,0,0,1-8.75-.94c-1.33-1.07-1.76-2.43,1.28-3.75,0,0-7.07-2.16-.47-5.9,0,0,7.18-3.54,11.15-6.94s13.73-8.17,16.24-8.88c0.74-.21,10-4.06,14,4.58A8.2,8.2,0,0,1,544.39,303.07Z" transform="translate(-15.75 -12.79)"/><path class="43c0228b-80b9-4f1f-8735-f898137820fe" d="M512.59,323.28s0,10.18-3.4,12.64-7.36,2.27-5.85,4.72,15.11,6.8,24.36,5.85c0,0-2.46-4.16,2.83-4.91,0,0-7-2.27-3.78-3.78,0,0-9.73,1-12.84-1.51,0,0,4.62-6.2,3.73-13h-5Z" transform="translate(-15.75 -12.79)"/><path class="c53a2753-9b36-4b29-aebc-5b4507823868" d="M522,319.62s5.93,8.27,4.6,12.25-4.66,6.14-2,7.25,16.24-3.28,23.2-9.44c0,0-4.42-1.95-.56-5.64,0,0-7,2.23-5.27-.87,0,0-7.31,6.5-11.31,6.26,0,0,.14-7.73-4.56-12.75Z" transform="translate(-15.75 -12.79)"/><path class="d05af9fd-da14-44aa-913f-2903869a7c10" d="M532.6,295.31c0.75-.21,10-4.06,14,4.58s-9.14,19.43-20.28,24.7-27.38,4.14-17.75-1.71c0,0-9.45-3-2.93-5.85,0,0-7.08-2.16-.47-5.9,0,0,7.18-3.55,11.14-6.95S530.1,296,532.6,295.31Z" transform="translate(-15.75 -12.79)"/><path class="43c0228b-80b9-4f1f-8735-f898137820fe" d="M565.1,261.81c-0.24-.16-3.44-2.72-4.48-1.36s-4.24,8.64-7,10.24,0.52,2.45,3.6,2.48c9.68,0.08,15.92-6.08,16.64-8.56s-2-1.6-3.84-1.6A18.77,18.77,0,0,1,565.1,261.81Z" transform="translate(-15.75 -12.79)"/><ellipse class="70297761-c64e-46f8-9e08-4b0a3f365b37" cx="537.9" cy="246.36" rx="1.47" ry="2.73"/><circle class="b0996858-fdc7-4d8f-aabc-656c0d509d41" cx="539.18" cy="244.36" r="1.28"/><path class="d05af9fd-da14-44aa-913f-2903869a7c10" d="M300.14,237.93s-4.8-5.66-7.89-9.26-15.27-4.12-19.56,8.06,3.6,19.25,6.52,22.49,5.15,12.51,1.89,16.8c0,0-14.24.86-24.54,7s-14.76,13.9-18,19.73c0,0-4.63-6.69-8.92-5s-6.18,6.78-2.4,9.05c0,0-4.23,1.41-2,3.81s6.49,3.33,6.49,3.33-6.52,1.13-2.75,3.37a11.22,11.22,0,0,0,7.55,1.37S247,326.91,264.11,326c16.71-.92,32.6-16.3,36-32.95,2.83-13.75-.69-39.81-0.69-39.81Z" transform="translate(-15.75 -12.79)"/><path class="43c0228b-80b9-4f1f-8735-f898137820fe" d="M281.39,287.72c0.69-.34,11.84-3.95,13.73,5.83s-15.27,26.55-23.68,29.32-15.62-1.86-12.87-3.24c0,0-9.44-4.63-5.15-7.55,0,0-4.81-4.72-1.12-6.82,0,0,2.15-3.65,5.92-3.47s16.64-8.58,19-11A14.12,14.12,0,0,1,281.39,287.72Z" transform="translate(-15.75 -12.79)"/><path class="d05af9fd-da14-44aa-913f-2903869a7c10" d="M283.16,285.47c0.69-.34,11.84-3.95,13.73,5.83s-15.27,26.55-23.68,29.32-15.62-1.86-12.87-3.24c0,0-9.44-4.63-5.15-7.55,0,0-4.81-4.72-1.12-6.82,0,0,2.15-3.65,5.92-3.47s16.64-8.58,19-11A14.12,14.12,0,0,1,283.16,285.47Z" transform="translate(-15.75 -12.79)"/><path class="d05af9fd-da14-44aa-913f-2903869a7c10" d="M278.94,228.46s-3.39-5.75-1-9.23S280.81,224.74,278.94,228.46Z" transform="translate(-15.75 -12.79)"/><path class="d05af9fd-da14-44aa-913f-2903869a7c10" d="M278.94,228.46s-5.57-4.09-8.18-2S275.95,229.86,278.94,228.46Z" transform="translate(-15.75 -12.79)"/><path class="43c0228b-80b9-4f1f-8735-f898137820fe" d="M301.78,237.74c-0.43,0-2.39-1.2-3.16,1.52s0.32,8.92-1,11.54,2.4,3.92,6.53,1.74,14.8-16,9.14-19.7a27.24,27.24,0,0,1-6,3.81A10,10,0,0,1,301.78,237.74Z" transform="translate(-15.75 -12.79)"/><ellipse class="70297761-c64e-46f8-9e08-4b0a3f365b37" cx="290.51" cy="242.32" rx="1.47" ry="2.73" transform="translate(-91.67 135.49) rotate(-25.44)"/><circle class="b0996858-fdc7-4d8f-aabc-656c0d509d41" cx="290.81" cy="239.96" r="1.28" transform="translate(-90.67 135.56) rotate(-25.46)"/><path class="43c0228b-80b9-4f1f-8735-f898137820fe" d="M402.35,320.51c0.36,0,4.44,6.12,4.08,8s0.24,5.16,4.92,4.08,20.41-9.4,22.57-14.18c0,0-6-.82-2.4-5.39,0,0-6.36,3.72-5.4,0,0,0-7.4,9.83-13.81,11.53s-6.24-6.84-6.24-6.84Z" transform="translate(-15.75 -12.79)"/><path class="43c0228b-80b9-4f1f-8735-f898137820fe" d="M387.46,324.83s0,0.1,0,.28c0,1.68-.23,10.39-3.48,12.45,0,0-6.84,3.84-5.16,6.24s24.13,5.16,32.54,3.36c0,0-7-2.16-4.8-3.48a46,46,0,0,1,4.2-2.16c-0.36.12-7.92-.12-6.6-1.56a6.22,6.22,0,0,1,2.64-1.8s-13.93,1.68-18.25-.72c0,0,5-7,4.68-13.33" transform="translate(-15.75 -12.79)"/><path class="d05af9fd-da14-44aa-913f-2903869a7c10" d="M426.61,265.15c-1.69,3-8.29,5.17-8.29,5.17s3.6,10.56,3.48,20.89S417.36,315,401.15,322.9a47.75,47.75,0,0,1-5.33,2.22l0,0a52.14,52.14,0,0,1-18.63,2.91c-5.64-.16-9.73-1.24-11-2a3.86,3.86,0,0,1-1.68-4.45s-4.44,1.44-6.84-.72,2.16-4.32,2.16-4.32-7,.12-7.2-3.12,6.12-4.08,6.12-4.08-8.16-3.61-7.2-7.45,5.4-3,9.48-.6a12.72,12.72,0,0,0,7.8,1.8A39.11,39.11,0,0,1,386,288.33c11.53-4.93,19.81-3.49,19.81-3.49,3.25-4.2,1.21-12.24.36-14.65s-10.08-8.52-6.24-19.09,13.09-12.24,19-10S425,254.35,425,254.35,428.29,262.15,426.61,265.15Z" transform="translate(-15.75 -12.79)"/><path class="d05af9fd-da14-44aa-913f-2903869a7c10" d="M409.47,241s4.53-5.15,3.45-7.55S406.75,236.07,409.47,241Z" transform="translate(-15.75 -12.79)"/><path class="d05af9fd-da14-44aa-913f-2903869a7c10" d="M409.47,241s-2.68-6.23-7-4.79S405.07,242.32,409.47,241Z" transform="translate(-15.75 -12.79)"/><path class="43c0228b-80b9-4f1f-8735-f898137820fe" d="M428.77,254.47c-0.38,0-4.2-2.28-4.8,0s-4.08,9.25-4.08,11,7.08,1.92,12.25-1.68,7.08-8.52,6.36-12.25C438.49,251.59,433.57,254.47,428.77,254.47Z" transform="translate(-15.75 -12.79)"/><ellipse class="70297761-c64e-46f8-9e08-4b0a3f365b37" cx="417.92" cy="252.03" rx="1.47" ry="2.73" transform="translate(-66.37 102.67) rotate(-14.84)"/><circle class="b0996858-fdc7-4d8f-aabc-656c0d509d41" cx="418.65" cy="249.77" r="1.28" transform="translate(-65.76 102.77) rotate(-14.84)"/><path class="43c0228b-80b9-4f1f-8735-f898137820fe" d="M395.82,325.12l0,0a52.14,52.14,0,0,1-18.63,2.91c-0.12-.56.22-1.31,1.14-2.26,0,0-14.19.52-6.74-4.51,0,0-9-.59-3.62-4.9s3.34-10,10.61-16a84.79,84.79,0,0,1,17.66-8.94c8.69-3,14.19,2.48,16,12.59C413.68,312.63,403.54,320.89,395.82,325.12Z" transform="translate(-15.75 -12.79)"/><path class="d05af9fd-da14-44aa-913f-2903869a7c10" d="M380.07,298a104.61,104.61,0,0,1,19-9.4c8.69-3,14.19,2.48,16,12.59S402.53,320.9,395,324.11s-18.61,3.78-13.82-1.15c0,0-14.19.53-6.74-4.51,0,0-8.33.46-3-4S372.8,304,380.07,298Z" transform="translate(-15.75 -12.79)"/></svg>