<svg xmlns="http://www.w3.org/2000/svg" width="3124.367" height="6444.988" viewBox="0 0 3124.367 6444.988"><g fill="#AF7F2D" stroke="#020202" stroke-width=".25"><path d="M2576.797 5668.84v-597.616c0-6.232-5.05-11.307-11.305-11.307h-121.73c-6.217 0-11.268 5.068-11.268 11.307v597.615c0 6.23 5.05 11.265 11.27 11.265h121.728c6.257-.002 11.305-5.03 11.305-11.266zm-107.63-16.946a8.46 8.46 0 0 1-8.46-8.463c0-4.653 3.787-8.462 8.46-8.462 4.677 0 8.483 3.81 8.483 8.463.003 4.677-3.806 8.464-8.482 8.464zm65.318-84.588c-4.438 4.398-11.603 4.38-15.98-.04h-21.103v20.714a11.347 11.347 0 0 1-11.05 11.047c-6.254.12-11.4-4.832-11.54-11.047v-435.918c.14-6.035 5.012-10.89 11.05-11.047 6.228-.117 11.382 4.855 11.54 11.047v20.713h21.104c4.398-4.34 11.48-4.34 15.9 0 4.418 4.398 4.457 11.562.077 15.98v362.533c.02.02.04.04.06.08 4.4 4.42 4.34 11.56-.058 15.938zm5.622-462.232c-4.655 0-8.463-3.787-8.463-8.463 0-4.673 3.808-8.462 8.463-8.462 4.675 0 8.48 3.79 8.48 8.463 0 4.677-3.805 8.464-8.48 8.464zM2243.043 5059.92c-6.23.02-11.303 5.065-11.303 11.304v597.615c0 6.23 5.07 11.265 11.303 11.265H2364.776c6.216 0 11.283-5.03 11.283-11.266v-597.616c0-6.232-5.068-11.307-11.306-11.307h-121.712v.002zm25.37 591.974c-4.654 0-8.463-3.787-8.463-8.463 0-4.653 3.81-8.462 8.463-8.462 4.695 0 8.48 3.81 8.48 8.463.002 4.677-3.786 8.464-8.48 8.464zm65.314-84.727c-4.38 4.438-11.52 4.48-15.938.102h-21.147v20.712c0 6.213-5.053 11.28-11.282 11.28-6.23 0-11.264-5.065-11.264-11.28v-435.918c0-6.232 5.027-11.283 11.265-11.283 6.237 0 11.283 5.05 11.283 11.284v20.713h21.146c.02 0 .02-.04.038-.04 4.438-4.378 11.6-4.358 15.98.04 4.395 4.46 4.34 11.6-.078 15.98v362.532c4.377 4.377 4.377 11.48-.003 15.877zm5.662-462.093c-4.694 0-8.48-3.787-8.48-8.463 0-4.673 3.787-8.462 8.48-8.462 4.653 0 8.462 3.79 8.462 8.463 0 4.677-3.81 8.464-8.463 8.464zM3087.52 5246.238l24.62-24.64-63.854-63.854c-4.398 4.46-11.52 4.46-15.96.078-4.42-4.38-4.458-11.54-.08-15.938.04-.062.062-.062.08-.12l17.952-17.95-69.832-69.832-51.392 51.408a8.53 8.53 0 0 0-2.465 5.98v292.288c0 2.23.888 4.38 2.464 5.98l51.392 51.388 69.832-69.832-17.95-17.973c-4.42-4.395-4.42-11.538 0-15.958 4.417-4.418 11.56-4.418 15.958 0l63.854-63.834-24.62-24.62c-6.25 0-11.302-5.067-11.302-11.28.003-6.24 5.053-11.29 11.303-11.29zM2788.073 5053.982l-69.832 69.832 17.976 17.95c4.396 4.397 4.438 11.562.04 15.98-4.38 4.46-11.503 4.46-15.96.08a.28.28 0 0 1-.06-.08l-63.855 63.855 24.64 24.638c6.216 0 11.267 5.05 11.267 11.283 0 6.216-5.05 11.284-11.267 11.284l-24.64 24.617 63.855 63.837c4.396-4.42 11.56-4.42 15.98 0 4.378 4.418 4.378 11.562 0 15.96l-17.976 17.972 69.83 69.83 51.37-51.39a8.398 8.398 0 0 0 2.506-5.977v-292.287a8.4 8.4 0 0 0-2.506-5.98l-51.367-51.404zM3098.984 5684.15l24.64-24.64-63.835-63.854c-4.397 4.46-11.54 4.46-15.96.078-4.438-4.38-4.457-11.54-.078-15.938.04-.062.062-.062.078-.12l17.95-17.95-69.83-69.832-51.39 51.408a8.444 8.444 0 0 0-2.484 5.98v292.288c0 2.23.89 4.38 2.484 5.98l51.39 51.388 69.83-69.832-17.95-17.973c-4.418-4.396-4.418-11.54 0-15.96 4.398-4.417 11.54-4.417 15.96 0l63.835-63.833-24.64-24.62c-6.194 0-11.266-5.067-11.266-11.28 0-6.24 5.07-11.29 11.264-11.29zM2799.576 5491.894l-69.832 69.832 17.95 17.95c4.44 4.397 4.458 11.562.078 15.98-4.397 4.46-11.562 4.46-15.96.08-.02-.02-.06-.04-.076-.08l-63.836 63.855 24.6 24.64c6.232 0 11.305 5.05 11.305 11.283 0 6.215-5.068 11.283-11.305 11.283l-24.6 24.617 63.836 63.875c4.396-4.46 11.54-4.498 15.96-.117 4.437 4.4 4.456 11.563.074 15.98-.04.04-.06.062-.075.08l-17.95 17.95 69.83 69.833 51.39-51.39a8.61 8.61 0 0 0 2.484-5.978v-292.287a8.634 8.634 0 0 0-2.485-5.98l-51.39-51.404zM2110.69 2212.49H5.766c-3.117 0-5.642 2.504-5.642 5.622v4221.106c0 3.1 2.525 5.645 5.642 5.645H2110.69c3.098 0 5.643-2.545 5.622-5.645V2218.112a5.62 5.62 0 0 0-5.623-5.622zm-200.303 155.188c4.418-4.378 11.52-4.378 15.918 0h18.88c4.42-4.397 11.56-4.357 15.96.06 4.357 4.398 4.357 11.48 0 15.9v18.857c4.38 4.418 4.357 11.58-.08 15.958-4.38 4.357-11.48 4.357-15.88 0h-18.88c-4.396 4.418-11.56 4.438-15.957.04-4.42-4.38-4.438-11.52-.062-15.96.04-.02.04-.04.062-.04v-18.857c-4.4-4.418-4.36-11.577.04-15.958zm-.1 136.43c.04 0 .04-.02.063-.04v-18.86a11.285 11.285 0 0 1 0-15.978c4.396-4.4 11.562-4.4 15.96 0h18.878c4.418-4.4 11.54-4.38 15.96.04 4.378 4.396 4.378 11.52 0 15.937v18.857c4.378 4.418 4.356 11.582-.08 15.96-4.38 4.358-11.48 4.358-15.88 0h-18.88c-4.396 4.417-11.56 4.437-15.958.06-4.422-4.396-4.44-11.538-.062-15.977zM206.033 6289.692c-4.38 4.34-11.48 4.34-15.9 0h-18.858c-4.38 4.42-11.54 4.44-15.96.062-4.437-4.398-4.457-11.562-.058-15.96.02-.02.04-.06.06-.08v-18.856c-4.38-4.42-4.36-11.58.078-15.96 4.4-4.357 11.5-4.357 15.88 0h18.858c4.438-4.38 11.6-4.357 15.98.04a11.286 11.286 0 0 1 0 15.92v18.856c4.397 4.438 4.338 11.578-.08 15.977zm.078-136.408v18.857c4.4 4.418 4.34 11.56-.08 15.957-4.378 4.358-11.48 4.358-15.9 0h-18.857c-4.42 4.397-11.56 4.358-15.96-.06-4.358-4.398-4.358-11.502 0-15.898v-18.857c-4.378-4.44-4.358-11.602.08-15.98 4.4-4.355 11.5-4.355 15.88 0h18.858c4.44-4.38 11.6-4.342 15.98.078a11.265 11.265 0 0 1 0 15.902zm.06-3633.258c-4.4 4.438-11.54 4.458-15.96.06-.02-.02-.04-.04-.078-.06h-18.858c-4.42 4.397-11.56 4.358-15.96-.06-4.358-4.42-4.358-11.5 0-15.898v-18.86c-4.398-4.418-4.398-11.56 0-15.978 4.42-4.4 11.54-4.4 15.96 0h18.858c4.42-4.4 11.56-4.4 15.98 0 4.398 4.418 4.398 11.56 0 15.978v18.86c4.417 4.377 4.437 11.537.057 15.957zm0-101.572c-4.4 4.418-11.54 4.458-15.96.06a.283.283 0 0 0-.078-.06h-18.858c-4.42 4.38-11.56 4.36-15.96-.08-4.358-4.376-4.358-11.478 0-15.88v-18.856c-4.437-4.4-4.457-11.542-.058-15.96 4.38-4.437 11.52-4.458 15.98-.08 0 .02.02.04.04.08h18.857c4.438-4.397 11.6-4.378 15.98.06 4.378 4.397 4.378 11.48 0 15.9v18.855c4.416 4.38 4.436 11.54.056 15.96zm101.513 3871.238c-4.417 4.398-11.562 4.398-15.958 0h-18.858c-4.438 4.398-11.6 4.34-15.98-.078-4.36-4.396-4.36-11.5 0-15.896v-18.86c-4.378-4.418-4.34-11.578.08-15.96 4.38-4.353 11.48-4.353 15.9 0h18.858c4.4-4.417 11.54-4.417 15.958 0 4.418 4.382 4.418 11.542 0 15.96v18.86c4.418 4.412 4.418 11.555 0 15.973zm0-101.592c-4.417 4.42-11.562 4.42-15.958 0h-18.858c-4.438 4.4-11.6 4.36-15.98-.06-4.36-4.396-4.36-11.5 0-15.896v-18.86c-4.378-4.437-4.34-11.6.08-15.978 4.38-4.36 11.48-4.36 15.9 0h18.858c4.4-4.38 11.54-4.38 15.958 0a11.29 11.29 0 0 1 0 15.98v18.858a11.262 11.262 0 0 1 0 15.957zm0-3668.073c-4.417 4.397-11.562 4.397-15.958 0h-18.858c-4.438 4.397-11.6 4.358-15.98-.06-4.36-4.42-4.36-11.5 0-15.898v-18.86c-4.378-4.418-4.378-11.56 0-15.978 4.42-4.4 11.56-4.4 15.98 0h18.858c4.4-4.4 11.54-4.4 15.958 0a11.288 11.288 0 0 1 0 15.978v18.86c4.418 4.417 4.418 11.557 0 15.957zm0-101.572c-4.417 4.398-11.562 4.398-15.958 0h-18.858c-4.38 4.418-11.54 4.458-15.98.06-4.418-4.38-4.437-11.522-.04-15.96.02-.02.02-.04.04-.06v-18.856c-4.378-4.44-4.34-11.58.08-15.96 4.38-4.378 11.48-4.378 15.9 0h18.858c4.4-4.417 11.54-4.417 15.958 0 4.418 4.4 4.418 11.54 0 15.96v18.856c4.418 4.4 4.418 11.54 0 15.96zm1551.81 101.572c-4.38 4.38-11.48 4.38-15.898 0h-18.856c-4.42 4.397-11.58 4.358-15.96-.06-4.36-4.42-4.36-11.5 0-15.898v-18.86c-4.418-4.396-4.418-11.56-.02-15.978 4.397-4.4 11.54-4.418 15.958 0h18.877c4.42-4.4 11.562-4.4 15.96 0a11.288 11.288 0 0 1 0 15.978v18.86c4.414 4.417 4.375 11.557-.062 15.957zm.097 3769.666c-4.38 4.42-11.52 4.44-15.938.062 0-.04-.04-.062-.062-.062h-18.856c-4.418 4.398-11.58 4.34-15.96-.078-4.358-4.396-4.358-11.5 0-15.896v-18.86c-4.38-4.418-4.358-11.578.08-15.96 4.38-4.353 11.48-4.353 15.88 0h18.856c4.396-4.437 11.54-4.437 15.96-.038 4.438 4.38 4.458 11.52.038 15.94 0 .038-.02.038-.04.058v18.86c4.443 4.393 4.462 11.533.042 15.973zm0-101.592c-4.38 4.44-11.52 4.44-15.938.062l-.062-.06h-18.856c-4.418 4.397-11.58 4.358-15.96-.08-4.358-4.378-4.358-11.478 0-15.878v-18.857c-4.38-4.44-4.358-11.602.08-15.98 4.38-4.34 11.48-4.34 15.88 0h18.856c4.396-4.418 11.54-4.438 15.96-.04 4.438 4.38 4.458 11.522.038 15.98l-.04.04v18.857a11.24 11.24 0 0 1 .042 15.957zm0-3804.52c0 .018-.02.038-.04.057v18.858c4.42 4.418 4.38 11.58-.06 15.958-4.38 4.357-11.48 4.357-15.898 0h-18.856c-4.418 4.38-11.58 4.357-15.96-.08-4.358-4.396-4.358-11.478 0-15.878v-18.858c-4.437-4.397-4.456-11.54-.077-15.96 4.396-4.437 11.538-4.477 15.958-.078.02.02.06.038.078.078h18.856a11.264 11.264 0 0 1 15.96-.06c4.44 4.4 4.458 11.54.038 15.96zm101.474 3906.113c-4.38 4.34-11.48 4.34-15.88 0h-18.88c-4.418 4.398-11.58 4.36-15.96-.06-4.357-4.397-4.357-11.5 0-15.92v-18.856c-4.396-4.42-4.357-11.58.04-15.96 4.42-4.378 11.52-4.378 15.92 0h18.88c4.417-4.378 11.56-4.356 15.958.04a11.33 11.33 0 0 1 0 15.92v18.857c4.38 4.44 4.36 11.58-.078 15.98zm.16-101.592c-4.398 4.44-11.563 4.46-15.98.08-.04-.02-.04-.06-.06-.08h-18.88c-4.396 4.44-11.56 4.44-15.958.062-4.42-4.396-4.438-11.56-.06-15.96.038-.02.038-.02.06-.058v-18.86c-4.397-4.437-4.358-11.6.04-15.978 4.42-4.36 11.52-4.36 15.92 0h18.878c4.42-4.38 11.562-4.342 15.96.078a11.302 11.302 0 0 1 0 15.898v18.855c4.417 4.405 4.458 11.527.08 15.964zM2189.96 3688.77h169.294v-50.776h-68.688c-4.418 4.38-11.562 4.357-15.96-.06-4.358-4.42-4.358-11.5 0-15.9v-18.878c-4.437-4.38-4.456-11.52-.077-15.98 4.396-4.395 11.538-4.417 15.958-.038.02.02.04.04.078.04h68.688V1984.53h-68.688c-4.398 4.44-11.54 4.46-15.96.06-4.417-4.397-4.437-11.52-.06-15.957.04-.02.04-.04.06-.06v-18.857a11.265 11.265 0 0 1 .08-15.96c4.38-4.36 11.48-4.36 15.88 0h68.688v-50.796H2189.96v1805.81zm108.005-265.206a11.325 11.325 0 0 1-15.92 0h-45.096c-4.44 4.38-11.562 4.342-15.94-.078-4.38-4.398-4.38-11.502 0-15.898v-66.834c-4.397-4.42-4.38-11.56.04-15.96a11.303 11.303 0 0 1 15.896 0h8.582v-26.353c-4.38-4.417-4.38-11.56.02-15.958 4.42-4.418 11.56-4.418 15.94 0h20.556c4.418-4.418 11.58-4.418 15.98 0a11.303 11.303 0 0 1 0 15.96v109.145c4.398 4.416 4.34 11.58-.06 15.977zm-76.955-1275.322c4.383-4.42 11.52-4.458 15.94-.062h45.095c4.418-4.357 11.52-4.357 15.94 0 4.417 4.4 4.437 11.54.038 15.96v109.166c4.38 4.4 4.38 11.5 0 15.9-4.38 4.418-11.52 4.458-15.98.08h-20.555c-4.38 4.34-11.48 4.34-15.88 0-4.44-4.4-4.458-11.562-.08-15.98v-26.354h-8.58a11.334 11.334 0 0 1-15.9 0c-4.417-4.4-4.437-11.54-.038-15.98v-66.832a11.23 11.23 0 0 1 0-15.898zM2290.508 50.842c0 .02.02.04.062.06h68.688V.124h-169.295v1805.81h169.293v-50.775h-68.688c-4.418 4.38-11.562 4.34-15.96-.08-4.358-4.398-4.358-11.5 0-15.898v-18.856c-4.437-4.378-4.456-11.54-.077-15.958a11.265 11.265 0 0 1 15.96-.062c.02.02.04.04.078.062h68.688V101.698h-68.688c-4.398 4.42-11.54 4.458-15.96.08-4.437-4.4-4.456-11.54-.077-15.98.022-.02.06-.04.08-.06V66.86c-4.44-4.378-4.458-11.52-.08-15.956 4.4-4.42 11.54-4.46 15.978-.062zm7.575 1489.87c-4.396 4.416-11.54 4.457-15.98.057 0-.022-.02-.04-.06-.06h-45.096c-4.42 4.4-11.562 4.38-15.94-.06a11.232 11.232 0 0 1 0-15.9v-66.832c-4.395-4.42-4.378-11.58.04-15.96a11.3 11.3 0 0 1 15.898 0h8.582v-26.374c-4.38-4.418-4.36-11.56.078-15.958 4.396-4.36 11.5-4.36 15.88 0h20.556c4.458-4.38 11.603-4.36 15.98.08a11.24 11.24 0 0 1 0 15.88v109.166c4.424 4.4 4.462 11.54.063 15.96zm-16.038-1275.363c.04-.022.062-.04.078-.06 4.438-4.38 11.562-4.36 15.96.06 4.396 4.437 4.357 11.58-.063 15.957v109.167c.04.02.04.04.062.06 4.397 4.437 4.358 11.58-.062 15.958-4.418 4.397-11.577 4.358-15.98-.06h-20.555c-4.38 4.356-11.48 4.356-15.88 0-4.437-4.398-4.458-11.54-.08-15.958V364.1h-8.58c-.02.02-.038.04-.08.058-4.395 4.4-11.56 4.38-15.937-.06-4.398-4.417-4.38-11.58.078-15.957v-66.833a.228.228 0 0 1-.078-.06c-4.398-4.436-4.38-11.58.078-15.958 4.396-4.38 11.56-4.36 15.938.06h45.1zM2628.665 3891.738h-68.688c-4.42 4.418-11.562 4.396-15.98-.02-4.378-4.382-4.378-11.542 0-15.94V3856.9c-4.378-4.398-4.378-11.54.04-15.96 4.4-4.378 11.52-4.378 15.938 0h68.688V122.09h-68.688c-4.418 4.4-11.562 4.4-15.98 0-4.378-4.418-4.378-11.56 0-15.958V87.274c-4.378-4.418-4.378-11.562 0-15.98 4.42-4.396 11.563-4.396 15.98 0h68.688V20.52H2459.37v3922.013h169.293l.002-50.795zM2520.602 285.8c4.38-4.417 11.52-4.457 15.96-.058h45.096c.02-.02.06-.04.077-.06 4.396-4.397 11.562-4.357 15.96.06 4.378 4.42 4.356 11.58-.078 15.96v66.832c4.418 4.398 4.418 11.56 0 15.958-4.398 4.418-11.54 4.418-15.96 0h-8.58v26.374c4.357 4.397 4.357 11.5 0 15.88-4.38 4.438-11.54 4.458-15.96.08h-20.556a11.33 11.33 0 0 1-15.92 0c-4.396-4.4-4.417-11.54-.038-15.96V301.7c-4.36-4.398-4.36-11.48 0-15.9zm15.88 3391.57c-4.42 4.378-11.562 4.356-15.96-.08-4.378-4.42-4.357-11.562.08-15.96v-109.146c-4.36-4.418-4.36-11.5 0-15.896 4.378-4.418 11.52-4.46 15.958-.062h20.555c4.398-4.355 11.502-4.355 15.882 0 4.438 4.38 4.457 11.52.077 15.96v26.354h8.582c4.418-4.36 11.5-4.36 15.898 0 4.418 4.398 4.438 11.54.06 15.98v66.81c.022.02.04.062.08.08 4.378 4.42 4.358 11.56-.08 15.958-4.42 4.38-11.56 4.36-15.958-.078h-45.096c-.018.018-.06.04-.078.08zM2869.788 24.563h-169.293v50.775h68.688c4.38-4.42 11.54-4.438 15.96-.06 4.437 4.4 4.458 11.522.058 15.98-.02 0-.038.02-.058.06v18.858c4.396 4.398 4.396 11.54 0 15.958a11.3 11.3 0 0 1-15.96 0h-68.687v3718.852h68.688c4.42-4.38 11.56-4.36 15.96.08 4.355 4.38 4.355 11.48 0 15.88v18.878c4.378 4.418 4.355 11.58-.08 15.96-4.4 4.358-11.5 4.358-15.88 0h-68.688v50.794h169.293V24.563zm-61.233 3656.85c-4.438 4.38-11.578 4.36-15.938-.077h-45.135c-4.38 4.38-11.54 4.38-15.938 0-4.396-4.38-4.418-11.54-.02-15.96v-66.81c-4.38-4.42-4.38-11.54 0-15.96 4.396-4.42 11.54-4.42 15.958-.02h8.582v-26.354c-.02-.04-.062-.062-.08-.08-4.357-4.418-4.34-11.562.08-15.96 4.438-4.395 11.577-4.356 15.98.08h20.573c4.38-4.358 11.48-4.358 15.858 0 4.46 4.38 4.48 11.52.078 15.96v109.145c.04.02.062.062.078.078 4.384 4.42 4.345 11.56-.075 15.96zm-.828-287.535c-4.397 4.42-11.54 4.46-15.98.06 0 0-.04-.038-.06-.06h-20.558c-4.44 4.396-11.58 4.357-15.96-.062-4.356-4.418-4.356-11.5 0-15.896v-379.478c-4.438-4.38-4.457-11.522-.075-15.94 4.396-4.438 11.54-4.458 15.96-.08.02.022.058.04.074.08h20.557c4.42-4.397 11.58-4.38 15.96.06 4.355 4.398 4.355 11.48 0 15.882v379.477c4.42 4.378 4.458 11.54.08 15.958zm-58.074-470.635c-4.656 0-8.463-3.787-8.463-8.46 0-4.677 3.807-8.483 8.463-8.483 4.694 0 8.48 3.806 8.48 8.482 0 4.674-3.785 8.46-8.48 8.46zm58.902-2492.293c-4.438 4.38-11.578 4.34-15.938-.08h-20.574c-.02.02-.06.042-.078.08-4.438 4.38-11.578 4.34-15.98-.08-4.356-4.437-4.34-11.56.08-15.958V388.54h-8.58c-4.38 4.416-11.542 4.416-15.96 0-4.396-4.4-4.396-11.56 0-15.96v-66.834c-4.396-4.398-4.396-11.54 0-15.96 4.418-4.398 11.58-4.398 15.96 0h45.134c4.38-4.357 11.478-4.357 15.857 0 4.46 4.38 4.48 11.543.078 15.96v109.167c.04.02.062.04.076.06 4.384 4.417 4.345 11.578-.075 15.977zm12.072 3039.114c-4.693 0-8.48-3.787-8.48-8.463s3.788-8.462 8.48-8.462c4.656 0 8.443 3.787 8.443 8.463s-3.786 8.464-8.443 8.464zM3093.583 2173.893h-152.367v1882.013h152.367V2173.893zm-115.954 51.98c0-4.675 3.81-8.464 8.48-8.464a8.462 8.462 0 0 1 8.464 8.462 8.46 8.46 0 0 1-8.463 8.462c-4.672 0-8.48-3.787-8.48-8.462zm11.796 1216.554c-4.693 0-8.48-3.785-8.48-8.463 0-4.676 3.788-8.463 8.48-8.463 4.656 0 8.465 3.788 8.465 8.464 0 4.678-3.807 8.463-8.464 8.463zm47.463-646.595c0-4.674 3.81-8.48 8.462-8.48 4.676 0 8.482 3.81 8.482 8.48 0 4.675-3.812 8.462-8.482 8.462-4.654 0-8.463-3.787-8.463-8.462zm11.777 1216.556c-4.676 0-8.48-3.787-8.48-8.463 0-4.654 3.808-8.465 8.48-8.465s8.46 3.81 8.46 8.465a8.46 8.46 0 0 1-8.46 8.463zM1999.215 863.22H117.223v152.368h1881.992v-152.37zM169.182 979.15c-4.655 0-8.462-3.81-8.462-8.482 0-4.656 3.807-8.462 8.462-8.462 4.675 0 8.482 3.806 8.482 8.462 0 4.674-3.807 8.482-8.482 8.482zm569.98-59.258c-4.695 0-8.482-3.79-8.482-8.464s3.788-8.46 8.482-8.46c4.655 0 8.443 3.787 8.443 8.46 0 4.676-3.788 8.464-8.443 8.464zm638.114 55.944c-4.677 0-8.443-3.787-8.443-8.462s3.768-8.463 8.443-8.463c4.654 0 8.463 3.788 8.463 8.463s-3.808 8.462-8.464 8.462zm569.96-59.26c-4.676 0-8.463-3.787-8.463-8.48 0-4.653 3.787-8.44 8.464-8.44 4.674 0 8.48 3.787 8.48 8.44.002 4.694-3.806 8.48-8.48 8.48zM1999.215 1515.004H117.223v152.348h1881.992v-152.348zM169.182 1630.937c-4.655 0-8.462-3.807-8.462-8.463 0-4.674 3.807-8.48 8.462-8.48 4.675 0 8.482 3.81 8.482 8.48 0 4.656-3.807 8.463-8.482 8.463zm569.98-59.26c-4.695 0-8.482-3.787-8.482-8.46 0-4.675 3.788-8.482 8.482-8.482 4.655 0 8.443 3.81 8.443 8.482s-3.788 8.46-8.443 8.46zm638.114 55.946c-4.677 0-8.443-3.787-8.443-8.463 0-4.675 3.768-8.462 8.443-8.462 4.654 0 8.463 3.787 8.463 8.462s-3.808 8.463-8.464 8.463zm569.96-59.26a8.462 8.462 0 0 1-8.463-8.46 8.46 8.46 0 0 1 8.464-8.464c4.674 0 8.48 3.784 8.48 8.462.002 4.674-3.806 8.462-8.48 8.462zM1999.215 223.56H117.223v152.348h1881.992v-152.35zM169.182 339.47c-4.655 0-8.462-3.787-8.462-8.46 0-4.676 3.807-8.462 8.462-8.462 4.675 0 8.482 3.786 8.482 8.46 0 4.675-3.807 8.463-8.482 8.463zm569.98-59.237c-4.695 0-8.482-3.81-8.482-8.48 0-4.676 3.788-8.444 8.482-8.444a8.44 8.44 0 0 1 8.443 8.442c0 4.673-3.788 8.48-8.443 8.48zm638.114 55.944c-4.677 0-8.443-3.806-8.443-8.46 0-4.678 3.768-8.484 8.443-8.484 4.654 0 8.463 3.808 8.463 8.483 0 4.655-3.808 8.46-8.464 8.46zm569.96-59.26c-4.676 0-8.463-3.787-8.463-8.46s3.787-8.48 8.464-8.48c4.674 0 8.48 3.806 8.48 8.48 0 4.675-3.806 8.46-8.48 8.46zM3088.54 13.847h-50.774v204.11c4.358 4.4 4.358 11.5 0 15.9-4.396 4.418-11.562 4.457-15.96.058h-18.876c-.02.02-.04.04-.062.08-4.42 4.378-11.58 4.36-15.96-.08-4.378-4.418-4.357-11.56.04-15.958V13.847h-50.756V2115.93h152.35l-.002-2102.083zm-115.935 272.05c0-4.676 3.81-8.462 8.463-8.462 4.677 0 8.48 3.788 8.48 8.46 0 4.676-3.807 8.465-8.48 8.465-4.653 0-8.463-3.79-8.463-8.464zm11.778 1216.556c-4.676 0-8.44-3.788-8.44-8.463 0-4.674 3.768-8.46 8.44-8.46a8.46 8.46 0 0 1 8.463 8.46 8.46 8.46 0 0 1-8.463 8.463zm47.483-646.597c0-4.676 3.787-8.482 8.48-8.482 4.653 0 8.462 3.808 8.462 8.482s-3.81 8.462-8.463 8.462c-4.692 0-8.48-3.787-8.48-8.462zm11.777 1216.556c-4.678 0-8.48-3.788-8.48-8.462 0-4.656 3.806-8.462 8.48-8.462 4.652 0 8.46 3.807 8.46 8.462 0 4.675-3.806 8.462-8.46 8.462zM7.188 1908.89H2109.25v-50.796h-204.13c-4.38 4.36-11.48 4.36-15.898 0-4.418-4.397-4.438-11.54-.036-15.958v-18.878a.28.28 0 0 1-.08-.06c-4.38-4.416-4.34-11.58.08-15.978 4.438-4.38 11.56-4.34 15.938.08h204.13v-50.796H7.187v152.386zm1830.014-115.933c4.674 0 8.48 3.788 8.48 8.463s-3.81 8.463-8.48 8.463-8.463-3.788-8.463-8.463 3.786-8.463 8.462-8.463zm-569.96 59.24c4.654 0 8.463 3.786 8.463 8.46 0 4.696-3.81 8.48-8.463 8.48-4.676 0-8.443-3.786-8.443-8.48 0-4.674 3.766-8.46 8.442-8.46zm-638.115-55.947c4.655 0 8.443 3.807 8.443 8.482 0 4.654-3.788 8.463-8.443 8.463-4.695 0-8.482-3.81-8.482-8.463a8.48 8.48 0 0 1 8.482-8.482zm-569.98 59.26c4.675 0 8.482 3.79 8.482 8.462 0 4.677-3.808 8.482-8.483 8.482-4.655 0-8.462-3.806-8.462-8.482 0-4.674 3.807-8.462 8.462-8.462zM7.188 1232.834H2109.25v-50.776h-204.13c-.02.02-.04.04-.04.06-4.437 4.4-11.6 4.36-15.978-.06-4.38-4.437-4.34-11.58.08-15.96v-18.877a.257.257 0 0 1-.08-.06c-4.38-4.437-4.34-11.577.08-15.978 4.437-4.38 11.56-4.34 15.937.08h204.13v-50.797H7.187v152.37zm1830.014-115.912c4.674 0 8.48 3.788 8.48 8.463 0 4.676-3.81 8.462-8.48 8.462a8.463 8.463 0 0 1 0-16.925zm-569.96 59.24c4.654 0 8.463 3.788 8.463 8.46 0 4.696-3.81 8.464-8.463 8.464a8.43 8.43 0 0 1-8.443-8.463c0-4.675 3.766-8.462 8.442-8.462zm-638.115-55.946c4.655 0 8.443 3.808 8.443 8.462 0 4.675-3.788 8.482-8.443 8.482-4.695 0-8.482-3.81-8.482-8.482 0-4.655 3.787-8.462 8.482-8.462zm-569.98 59.26c4.675 0 8.482 3.787 8.482 8.46 0 4.678-3.808 8.483-8.483 8.483-4.655 0-8.462-3.808-8.462-8.483 0-4.675 3.807-8.462 8.462-8.462zM7.188 568.925H2109.25V518.15h-204.13c-4.38 4.357-11.48 4.357-15.857 0-4.46-4.4-4.48-11.54-.08-15.98v-18.858a.24.24 0 0 1-.077-.06c-4.38-4.417-4.34-11.58.077-15.957 4.44-4.4 11.562-4.378 15.94.06h204.128v-50.797H7.19v152.367zm1830.014-115.933c4.674 0 8.48 3.808 8.48 8.48 0 4.655-3.81 8.462-8.48 8.462s-8.463-3.807-8.463-8.462c0-4.672 3.786-8.48 8.462-8.48zm-569.96 59.258c4.654 0 8.463 3.79 8.463 8.463s-3.81 8.482-8.463 8.482c-4.676 0-8.443-3.81-8.443-8.482s3.766-8.463 8.442-8.463zm-638.115-55.944c4.655 0 8.443 3.79 8.443 8.462 0 4.677-3.788 8.464-8.443 8.464-4.695 0-8.482-3.788-8.482-8.464 0-4.674 3.787-8.462 8.482-8.462zm-569.98 59.26c4.675 0 8.482 3.787 8.482 8.462 0 4.674-3.808 8.462-8.483 8.462-4.655 0-8.462-3.788-8.462-8.462s3.807-8.463 8.462-8.463zM7.188 2138.263H2109.25v-50.776h-204.13c-4.38 4.36-11.48 4.36-15.857 0a11.243 11.243 0 0 1-.08-15.957v-18.88c-4.38-4.396-4.38-11.5 0-15.88 4.382-4.437 11.54-4.457 15.94-.078h204.128v-50.795H7.19v152.366zm1830.014-53.36c4.674 0 8.48 3.79 8.48 8.442 0 4.695-3.81 8.482-8.48 8.482s-8.463-3.787-8.463-8.482c0-4.654 3.786-8.44 8.462-8.44zm-569.96-59.258c4.654 0 8.463 3.788 8.463 8.463 0 4.674-3.81 8.48-8.463 8.48-4.676 0-8.443-3.807-8.443-8.48 0-4.675 3.766-8.463 8.442-8.463zm-638.115 55.944c4.655 0 8.443 3.787 8.443 8.462s-3.788 8.46-8.443 8.46c-4.695 0-8.482-3.787-8.482-8.46 0-4.676 3.787-8.463 8.482-8.463zm-569.98-59.26c4.675 0 8.482 3.79 8.482 8.463 0 4.676-3.808 8.482-8.483 8.482-4.655 0-8.462-3.81-8.462-8.482s3.807-8.462 8.462-8.462zM7.188 1437.98H2109.25v-50.776h-204.13l-.04.04c-4.42 4.4-11.56 4.38-15.958-.04-4.38-4.438-4.357-11.58.062-15.98v-18.856a11.26 11.26 0 0 1 0-15.9c4.38-4.418 11.54-4.457 15.938-.058h204.13v-50.795H7.187v152.364zm1830.014-53.38c4.674 0 8.48 3.808 8.48 8.48 0 4.675-3.81 8.464-8.48 8.464s-8.463-3.788-8.463-8.463 3.786-8.48 8.462-8.48zm-569.96-59.24c4.654 0 8.463 3.788 8.463 8.46 0 4.675-3.81 8.48-8.463 8.48-4.676 0-8.443-3.806-8.443-8.48s3.766-8.46 8.442-8.46zm-638.115 55.944c4.655 0 8.443 3.79 8.443 8.462 0 4.677-3.788 8.462-8.443 8.462-4.695 0-8.482-3.786-8.482-8.462 0-4.674 3.787-8.462 8.482-8.462zm-569.98-59.258c4.675 0 8.482 3.808 8.482 8.482 0 4.674-3.808 8.462-8.483 8.462-4.655 0-8.462-3.79-8.462-8.462 0-4.674 3.807-8.482 8.462-8.482zM7.188 798.318H2109.25V747.52h-204.13c0 .022-.02.04-.04.063-4.437 4.397-11.56 4.356-15.958-.062-4.38-4.417-4.357-11.56.062-15.957v-18.857c-.037-.02-.062-.04-.062-.06-4.38-4.44-4.357-11.562.062-15.98 4.42-4.38 11.56-4.36 15.938.08h204.13V645.95H7.187v152.368zm1830.014-53.38c4.674 0 8.48 3.81 8.48 8.48 0 4.675-3.81 8.463-8.48 8.463s-8.463-3.788-8.463-8.462c0-4.673 3.786-8.48 8.462-8.48zm-569.96-59.24c4.654 0 8.463 3.79 8.463 8.464s-3.81 8.46-8.463 8.46c-4.676 0-8.443-3.786-8.443-8.46 0-4.675 3.766-8.463 8.442-8.463zm-638.115 55.946c4.655 0 8.443 3.787 8.443 8.46 0 4.678-3.788 8.466-8.443 8.466-4.695 0-8.482-3.788-8.482-8.465 0-4.674 3.787-8.46 8.482-8.46zm-569.98-59.26c4.675 0 8.482 3.79 8.482 8.465 0 4.676-3.808 8.48-8.483 8.48-4.655 0-8.462-3.808-8.462-8.48 0-4.676 3.807-8.465 8.462-8.465zM7.188 158.658H2109.25V107.86h-204.13c-4.38 4.36-11.48 4.36-15.857 0-4.46-4.378-4.48-11.54-.08-15.956v-18.86c-.036-.04-.06-.04-.077-.08-4.38-4.416-4.34-11.56.077-15.956 4.44-4.38 11.562-4.36 15.94.058h204.128V6.29H7.19V158.66zm1830.014-53.36c4.674 0 8.48 3.767 8.48 8.442 0 4.675-3.81 8.48-8.48 8.48s-8.463-3.808-8.463-8.48c0-4.675 3.786-8.443 8.462-8.443zm-569.96-59.26c4.654 0 8.463 3.79 8.463 8.463 0 4.657-3.81 8.463-8.463 8.463-4.676 0-8.443-3.806-8.443-8.462 0-4.673 3.766-8.46 8.442-8.46zm-638.115 55.926c4.655 0 8.443 3.807 8.443 8.48 0 4.677-3.788 8.463-8.443 8.463-4.695 0-8.482-3.787-8.482-8.462a8.48 8.48 0 0 1 8.482-8.48zM59.147 42.727c4.675 0 8.482 3.785 8.482 8.46 0 4.675-3.808 8.48-8.483 8.48-4.655 0-8.462-3.806-8.462-8.48 0-4.675 3.807-8.46 8.462-8.46z"/></g><text transform="translate(428.92 4077.554)" fill="#020202" font-family="'MyriadPro-Regular'" font-size="180">Length: 1,500mm</text><text transform="translate(428.92 4293.554)" fill="#020202" font-family="'MyriadPro-Regular'" font-size="180">Height: 750mmeight</text><text transform="translate(428.92 4509.554)" fill="#020202" font-family="'MyriadPro-Regular'" font-size="180">Width: 750mm</text><text transform="translate(428.92 4725.554)" fill="#020202" font-family="'MyriadPro-Regular'" font-size="180">Seats: 1 person</text><path fill="#AE7F2D" stroke="#020202" stroke-width=".25" d="M2521.37 4881.064h114v-50.775h-11.283a11.29 11.29 0 0 1-11.303-11.306c0-6.23 5.05-11.264 11.303-11.264v-553.033h-386.58v553.033c6.252 0 11.306 5.027 11.306 11.264a11.294 11.294 0 0 1-11.306 11.305h-11.266v50.774h295.13z"/><path fill="#231F20" stroke="#020202" stroke-width=".25" d="M2347.993 4884.18l35.766 34.048a8.473 8.473 0 0 0 5.84 2.328h82.396c2.17 0 4.262-.81 5.84-2.328l35.744-34.05a11.33 11.33 0 0 1 7.79-3.114h-181.148c2.9 0 5.68 1.125 7.77 3.115zM2248.81 4818.984c0-6.23-5.054-11.264-11.308-11.264v-553.033h-5.62c-3.116 0-5.644 2.504-5.644 5.62v569.98h11.264a11.29 11.29 0 0 0 11.307-11.303zM2612.784 4818.984a11.29 11.29 0 0 0 11.303 11.305h11.283v-569.98c-.02-3.117-2.545-5.623-5.644-5.623h-5.643v553.035c-6.25-.002-11.3 5.028-11.3 11.262z"/><path fill="#5E9BD3" stroke="#020202" d="M2808.373 4280.027h-52.393a6.803 6.803 0 0 0-6.803 6.803v518.867a6.803 6.803 0 0 0 6.803 6.803h52.393a6.803 6.803 0 0 0 6.803-6.803V4286.83a6.805 6.805 0 0 0-6.803-6.803zM2948.484 4720.826V4338.79c0-4.226 3.045-7.65 6.803-7.65h24.395c3.04 0 5.614 2.245 6.485 5.34v-49.68c0-3.757-3.106-6.804-6.938-6.804h-139.115c-3.832 0-6.938 3.047-6.938 6.805v51.446c.25-3.97 3.186-7.105 6.778-7.105h24.396c3.758 0 6.804 3.427 6.804 7.65v382.034c0 4.227-3.046 7.65-6.803 7.65h31.94c-3.758 0-6.804-3.426-6.804-7.65V4338.79c0-4.226 3.046-7.65 6.803-7.65h24.394c3.758 0 6.804 3.427 6.804 7.65v382.036c0 4.225-3.046 7.648-6.804 7.648h34.606c-3.76 0-6.806-3.426-6.806-7.648zM2833.174 4721.37v.302c0 2.977 1.95 5.496 4.663 6.422-2.573-.948-4.464-3.573-4.663-6.725zM2839.953 4728.474h.16a7.07 7.07 0 0 1-1.97-.283 6.07 6.07 0 0 0 1.81.284zM2833.15 4338.79v382.036c0 .184.013.36.023.543v-383.124c-.01.18-.023.36-.023.545zM2986.167 4721.67c0 3.757-3.106 6.804-6.938 6.804h.452c3.758 0 6.803-3.426 6.803-7.648V4338.79c0-.806-.11-1.58-.316-2.31l-.003 385.19z"/><path fill="none" d="M2833.15 4338.79v382.036c0 .184.013.36.023.543v-383.124c-.01.18-.023.36-.023.545zM2833.174 4721.37v.302c0 2.977 1.95 5.496 4.663 6.422-2.573-.948-4.464-3.573-4.663-6.725zM2948.484 4720.826V4338.79c0-4.226 3.045-7.65 6.803-7.65h24.395c3.04 0 5.614 2.245 6.485 5.34v-49.68c0-3.757-3.106-6.804-6.938-6.804h-139.115c-3.832 0-6.938 3.047-6.938 6.805v51.446c.25-3.97 3.186-7.105 6.778-7.105h24.396c3.758 0 6.804 3.427 6.804 7.65v382.034c0 4.227-3.046 7.65-6.803 7.65h31.94c-3.758 0-6.804-3.426-6.804-7.65V4338.79c0-4.226 3.046-7.65 6.803-7.65h24.394c3.758 0 6.804 3.427 6.804 7.65v382.036c0 4.225-3.046 7.648-6.804 7.648h34.606c-3.76 0-6.806-3.426-6.806-7.648zM2808.373 4280.027h-52.393a6.803 6.803 0 0 0-6.803 6.803v518.867a6.803 6.803 0 0 0 6.803 6.803h52.393a6.803 6.803 0 0 0 6.803-6.803V4286.83a6.805 6.805 0 0 0-6.803-6.803zM2839.953 4728.474h.16a7.07 7.07 0 0 1-1.97-.283 6.07 6.07 0 0 0 1.81.284zM2986.167 4721.67c0 3.757-3.106 6.804-6.938 6.804h.452c3.758 0 6.803-3.426 6.803-7.648V4338.79c0-.806-.11-1.58-.316-2.31l-.003 385.19z"/><path fill="#AF7F2D" stroke="#020202" d="M3118.225 4259.185H2720.38c-3.116 0-5.644 2.504-5.644 5.62v569.98l.004 39.47c0 6.233 5.05 11.265 11.305 11.267l102.672.043c2.902 0 5.684 1.125 7.773 3.115l35.766 34.05a8.473 8.473 0 0 0 5.84 2.327h82.396a8.4 8.4 0 0 0 5.84-2.328l35.744-34.05a11.33 11.33 0 0 1 7.79-3.115l102.624.04c6.256 0 11.305-5.03 11.305-11.267l.072-39.55v-569.98a5.65 5.65 0 0 0-5.642-5.623zm-303.05 546.512a6.804 6.804 0 0 1-6.803 6.803h-52.392a6.803 6.803 0 0 1-6.804-6.803V4286.83a6.804 6.804 0 0 1 6.804-6.803h52.392a6.803 6.803 0 0 1 6.803 6.803v518.867zm171.31-84.87c0 4.224-3.048 7.647-6.805 7.647h-139.725a6.1 6.1 0 0 1-1.81-.283c-.05-.013-.098-.022-.145-.04-.055-.018-.106-.04-.162-.06-2.713-.923-4.663-3.444-4.663-6.42v-.304a8.1 8.1 0 0 1-.023-.543V4338.79c0-.186.013-.363.023-.545V4286.8c0-3.758 3.106-6.803 6.938-6.803h139.115c3.832 0 6.938 3.045 6.938 6.803v49.682a8.52 8.52 0 0 1 .316 2.31v382.034h.002z"/><path fill="#AF7F2D" stroke="#020202" d="M2871.15 4720.826V4338.79c0-4.226-3.047-7.65-6.804-7.65h-24.395c-3.594 0-6.528 3.138-6.777 7.106v383.123c.198 3.15 2.09 5.776 4.663 6.724l.162.06c.047.015.096.024.144.04a7.034 7.034 0 0 0 1.97.283h24.234c3.758-.003 6.804-3.43 6.804-7.65zM2927.482 4720.826V4338.79c0-4.226-3.045-7.65-6.803-7.65h-24.396c-3.758 0-6.803 3.427-6.803 7.65v382.036c0 4.225 3.046 7.648 6.804 7.648h24.395c3.758 0 6.802-3.426 6.802-7.648zM2986.167 4721.67v-385.19c-.87-3.096-3.445-5.34-6.485-5.34h-24.395c-3.758 0-6.803 3.424-6.803 7.648v382.035c0 4.225 3.045 7.648 6.803 7.648h23.94c3.834.004 6.94-3.043 6.94-6.8z"/><g><path fill="#5E9BD3" d="M3094.186 4280.14h-78.654c-3.87 0-7.005 3.057-7.005 6.824v457.674h-169.2c-3.758 0-6.804 3.057-6.804 6.826v54.572c0 3.77 3.046 6.826 6.803 6.826h255.062c3.758 0 6.804-3.057 6.804-6.826v-519.07c-.003-3.77-3.14-6.826-7.006-6.826z"/><path fill="none" stroke="#020202" d="M3094.186 4280.14h-78.654c-3.87 0-7.005 3.057-7.005 6.824v457.674h-169.2c-3.758 0-6.804 3.057-6.804 6.826v54.572c0 3.77 3.046 6.826 6.803 6.826h255.062c3.758 0 6.804-3.057 6.804-6.826v-519.07c-.003-3.77-3.14-6.826-7.006-6.826z"/></g><text transform="translate(2212.89 4209.166)" fill="#020202" font-family="'MyriadPro-Regular'" font-size="144">bottom top</text></svg>