<?xml version="1.0"?><svg width="265.66891" height="287.93268" xmlns="http://www.w3.org/2000/svg" xmlns:xlink="http://www.w3.org/1999/xlink">
 <title>Birds on a branch</title>
 <metadata id="metadata7">image/svg+xml</metadata>
 <g>
  <title>Layer 1</title>
  <defs>
   <pattern xlink:href="#svg_511" id="svg_482" patternTransform="translate(-84.137687,510.39526)"/>
   <pattern xlink:href="#svg_511" id="svg_676" patternTransform="matrix(0.88006212,0,0,0.88006212,-58.848069,577.67804)"/>
   <pattern xlink:href="#svg_511" id="svg_674" patternTransform="matrix(0.88006212,0,0,0.88006212,-58.848069,577.67804)"/>
   <pattern xlink:href="#svg_511" id="svg_672" patternTransform="matrix(0.88006212,0,0,0.88006212,-58.848069,577.67804)"/>
   <pattern xlink:href="#svg_511" id="svg_670" patternTransform="matrix(0.88006212,0,0,0.88006212,-58.848069,577.67804)"/>
   <pattern xlink:href="#svg_511" id="svg_668" patternTransform="matrix(0.88006212,0,0,0.88006212,-58.848069,577.67804)"/>
   <pattern xlink:href="#svg_736" id="svg_681" patternTransform="translate(0.06721909,0.06717561)"/>
   <pattern xlink:href="#svg_684" id="svg_736" patternTransform="translate(-79.949423,517.53249)"/>
   <pattern xlink:href="#svg_712" id="svg_507" patternTransform="translate(-212.76306,474.817)"/>
   <pattern xlink:href="#svg_735" id="svg_509" patternTransform="matrix(0.8936531,0,0,0.81566101,-53.447338,517.4271)"/>
   <pattern xlink:href="#svg_723" id="svg_735" patternTransform="matrix(0.8936531,0,0,0.81566101,-50.365307,517.41929)"/>
   <pattern xlink:href="#svg_724" id="svg_723" patternTransform="matrix(0.69232574,0,0,0.69244029,3.5424804e-7,-1.9023438e-5)"/>
   <pattern xlink:href="#svg_727" id="svg_726" patternTransform="matrix(0.73209023,0,0,0.71495365,-6.4575195e-7,1.7539062e-5)"/>
   <pattern patternUnits="userSpaceOnUse" width="3.551382" height="3.635903" patternTransform="matrix(0.73209023,0,0,0.71495365,-50.326245,517.53554)" id="svg_727">
    <path id="svg_734" d="m2.19847,0.29226c0.28594,0.31889 0.36332,0.78009 0.17283,1.03011c-0.19049,0.25002 -0.57671,0.19418 -0.86265,-0.12472c-0.28594,-0.31889 -0.36332,-0.78008 -0.17283,-1.0301c0.19049,-0.25002 0.57671,-0.19419 0.86265,0.12471z" fill="#800000"/>
    <path d="m1.25987,2.07843c-0.26906,0.3736 -0.68656,0.53954 -0.93251,0.37063c-0.24595,-0.16892 -0.22721,-0.60871 0.04186,-0.98231c0.26907,-0.37361 0.68656,-0.53954 0.93251,-0.37063c0.24595,0.16891 0.22721,0.6087 -0.04186,0.98231z" id="svg_733" fill="#800000"/>
    <path id="svg_732" d="m2.09614,3.11828c-0.37625,0.13239 -0.73542,-0.03664 -0.8022,-0.37753c-0.06679,-0.34089 0.18408,-0.72454 0.56034,-0.85693c0.37626,-0.13238 0.73542,0.03664 0.80221,0.37753c0.06679,0.34089 -0.18409,0.72455 -0.56035,0.85693z" fill="#800000"/>
    <path id="svg_731" d="m0.90538,0.59997c-0.07413,0.34353 -0.33108,0.63208 -0.57393,0.64449c-0.24285,0.01241 -0.37962,-0.25602 -0.3055,-0.59955c0.07413,-0.34354 0.33108,-0.63209 0.57393,-0.6445c0.24285,-0.01241 0.37962,0.25602 0.3055,0.59956z" fill="#800000"/>
    <path d="m3.12962,1.48654c-0.27786,0.13239 -0.5431,-0.03663 -0.59243,-0.37752c-0.04932,-0.3409 0.13595,-0.72455 0.41381,-0.85694c0.27787,-0.13238 0.54311,0.03664 0.59243,0.37753c0.04932,0.34089 -0.13594,0.72455 -0.41381,0.85693z" id="svg_730" fill="#800000"/>
    <path d="m3.51902,2.71922c0.03585,0.35104 -0.117,0.72001 -0.3414,0.8241c-0.2244,0.10409 -0.43537,-0.0961 -0.47122,-0.44715c-0.03585,-0.35104 0.117,-0.72 0.3414,-0.8241c0.2244,-0.10409 0.43537,0.0961 0.47122,0.44715z" id="svg_729" fill="#800000"/>
    <path d="m0.48139,3.62673c-0.32262,-0.05105 -0.53317,-0.30081 -0.47029,-0.55787c0.06289,-0.25705 0.3754,-0.42406 0.69802,-0.37302c0.32262,0.05105 0.53317,0.30081 0.47028,0.55787c-0.06289,0.25706 -0.37539,0.42406 -0.69801,0.37302z" id="svg_728" fill="#800000"/>
   </pattern>
   <pattern patternUnits="userSpaceOnUse" width="2.599932" height="2.599502" patternTransform="matrix(0.69232574,0,0,0.69244029,-50.326244,517.53648)" id="svg_724">
    <rect id="svg_725" y="0" x="0" height="2.599502" width="2.599932" fill="url(#svg_726)"/>
   </pattern>
   <pattern patternUnits="userSpaceOnUse" width="1.8" height="1.8" patternTransform="translate(-50.326244,517.5365)" id="svg_721">
    <rect id="svg_722" y="0" x="0" height="1.8" width="1.8" fill="url(#svg_723)"/>
   </pattern>
   <pattern patternUnits="userSpaceOnUse" width="2.341234" height="2.175213" patternTransform="translate(-50.417812,517.40181)" id="svg_712">
    <path d="m0.64745,0.54334c-0.08455,0.11809 -0.21624,0.19802 -0.34541,0.20961c-0.12916,0.01161 -0.23614,-0.04686 -0.28059,-0.15336c-0.04447,-0.10649 -0.01961,-0.24482 0.06516,-0.36279c0.08454,-0.11809 0.21624,-0.19802 0.3454,-0.2096c0.12916,-0.01162 0.23615,0.04686 0.28059,0.15336c0.04447,0.10649 0.01961,0.24481 -0.06515,0.36278z" id="svg_720" fill="#333333"/>
    <path id="svg_719" d="m0.80062,1.02685c0.08029,0.12676 0.09675,0.27154 0.04313,0.37971c-0.0536,0.10818 -0.16909,0.16329 -0.30292,0.14455c-0.13382,-0.01871 -0.26562,-0.10845 -0.34567,-0.23533c-0.08029,-0.12676 -0.09675,-0.27154 -0.04312,-0.37971c0.05359,-0.10818 0.16909,-0.16329 0.30291,-0.14455c0.13383,0.01871 0.26562,0.10845 0.34567,0.23533z" fill="#333333"/>
    <path d="m1.50427,0.31448c0.10503,0.15122 0.14241,0.33267 0.09798,0.47589c-0.04439,0.14323 -0.16382,0.22645 -0.31321,0.21827c-0.14938,-0.00815 -0.30602,-0.10649 -0.41081,-0.25788c-0.10504,-0.15121 -0.14241,-0.33266 -0.09799,-0.47588c0.0444,-0.14323 0.16382,-0.22646 0.31321,-0.21828c0.14939,0.00815 0.30602,0.1065 0.41082,0.25788z" id="svg_718" fill="#333333"/>
    <path id="svg_717" d="m0.41985,2.17521c-0.13756,0.00015 -0.26476,-0.05301 -0.3336,-0.13946c-0.06886,-0.08643 -0.0689,-0.19299 -0.00009,-0.27946c0.06878,-0.08649 0.19595,-0.13974 0.33351,-0.13967c0.13756,-0.00016 0.26477,0.05301 0.33361,0.13946c0.06886,0.08643 0.06889,0.19299 0.00009,0.27947c-0.06878,0.08649 -0.19596,0.13973 -0.33352,0.13966z" fill="#333333"/>
    <path id="svg_716" d="m1.53942,1.83097c-0.13687,0.10252 -0.30416,0.14336 -0.43873,0.10706c-0.13459,-0.03627 -0.21601,-0.14413 -0.21354,-0.28288c0.00244,-0.13876 0.08842,-0.28731 0.22546,-0.3896c0.13687,-0.10252 0.30416,-0.14335 0.43874,-0.10705c0.13459,0.03627 0.21601,0.14413 0.21353,0.28288c-0.00243,0.13875 -0.08842,0.28729 -0.22546,0.38959z" fill="#333333"/>
    <path id="svg_715" d="m2.21879,0.54951c-0.08196,0.11604 -0.20138,0.18919 -0.31323,0.19179c-0.11185,0.00263 -0.1991,-0.06564 -0.22885,-0.17907c-0.02976,-0.11342 0.00253,-0.25475 0.08467,-0.37064c0.08195,-0.11605 0.20139,-0.18919 0.31323,-0.19179c0.11185,-0.00263 0.19911,0.06564 0.22885,0.17907c0.02976,0.11342 -0.00254,0.25474 -0.08467,0.37064z" fill="#333333"/>
    <path d="m2.30187,1.87822c-0.05208,0.1289 -0.14818,0.22612 -0.25206,0.25494c-0.10388,0.02884 -0.19974,-0.01507 -0.25141,-0.11518c-0.05168,-0.10009 -0.05131,-0.24116 0.00097,-0.36996c0.05207,-0.12891 0.14818,-0.22612 0.25207,-0.25494c0.10388,-0.02884 0.19974,0.01507 0.2514,0.11518c0.05169,0.10009 0.0513,0.24115 -0.00097,0.36996z" id="svg_714" fill="#333333"/>
    <path d="m2.03204,0.80549c0.11235,0.007 0.21344,0.05793 0.26511,0.13362c0.05168,0.07568 0.04611,0.16458 -0.01463,0.23317c-0.06072,0.0686 -0.16738,0.10644 -0.27972,0.09926c-0.11234,-0.00698 -0.21343,-0.05793 -0.2651,-0.13362c-0.05169,-0.07567 -0.04611,-0.16458 0.01463,-0.23316c0.06072,-0.06861 0.16738,-0.10644 0.27971,-0.09927z" id="svg_713" fill="#333333"/>
   </pattern>
   <pattern patternUnits="userSpaceOnUse" width="4" height="4" patternTransform="translate(-50.393454,512.78181)" id="svg_497">
    <g transform="matrix(1.7195441,0.05329233,-0.04947654,1.852161,117.38614,-950.24007) " id="svg_703" fill="#800000">
     <path id="svg_711" d="m-52.7938,515.085754c-0.130779,0.182373 -0.362339,0.261536 -0.517208,0.17688c-0.154881,-0.084656 -0.174412,-0.301086 -0.043633,-0.483398c0.130772,-0.182312 0.362331,-0.261475 0.517212,-0.17688c0.154869,0.084656 0.1744,0.301086 0.043629,0.483398z" fill="#800000"/>
     <path d="m-52.640629,515.569275c0.123848,0.195923 0.088707,0.419434 -0.078491,0.499207c-0.167198,0.079773 -0.403118,-0.014343 -0.52697,-0.210266c-0.123852,-0.195923 -0.088711,-0.419373 0.078491,-0.499207c0.167198,-0.079773 0.403118,0.014343 0.52697,0.210266z" id="svg_710" fill="#800000"/>
     <path id="svg_709" d="m-51.936989,514.856934c0.162079,0.233704 0.15332,0.520874 -0.019562,0.641357c-0.172878,0.120422 -0.444401,0.028625 -0.606468,-0.205078c-0.162071,-0.233765 -0.15332,-0.520874 0.019569,-0.641357c0.172871,-0.120483 0.444389,-0.028687 0.606461,0.205078z" fill="#800000"/>
     <path d="m-53.0214,516.717651c-0.212498,0.000061 -0.3848,-0.124939 -0.38485,-0.279175c-0.00005,-0.154236 0.172169,-0.279358 0.38467,-0.279419c0.212509,-0.000061 0.384811,0.124939 0.384861,0.279175c0.00005,0.154236 -0.172173,0.279358 -0.384682,0.279419z" id="svg_708" fill="#800000"/>
     <path d="m-51.901829,516.373413c-0.211571,0.158203 -0.478622,0.159851 -0.596481,0.003723c-0.11787,-0.156128 -0.041901,-0.41095 0.16967,-0.569153c0.211578,-0.158203 0.478619,-0.159851 0.596489,-0.003723c0.117863,0.156128 0.041901,0.41095 -0.169678,0.569153z" id="svg_707" fill="#800000"/>
     <path d="m-51.222462,515.09198c-0.12674,0.179138 -0.331879,0.244263 -0.458187,0.145386c-0.12632,-0.098816 -0.125961,-0.324158 0.000778,-0.503357c0.126751,-0.179138 0.331882,-0.244263 0.458202,-0.145386c0.126308,0.098816 0.125957,0.324158 -0.000793,0.503357z" id="svg_706" fill="#800000"/>
     <path id="svg_705" d="m-51.139381,516.420654c-0.080597,0.199036 -0.258419,0.308899 -0.39719,0.2453c-0.13876,-0.063538 -0.185909,-0.276428 -0.105309,-0.475525c0.080601,-0.199036 0.25843,-0.308838 0.39719,-0.2453c0.138771,0.063599 0.185921,0.276489 0.105309,0.475525z" fill="#800000"/>
     <path id="svg_704" d="m-51.40921,515.347961c0.17355,0.010925 0.30769,0.124084 0.29961,0.252808c-0.00808,0.128723 -0.1553,0.224182 -0.32885,0.213196c-0.17355,-0.010925 -0.307682,-0.124146 -0.29961,-0.252808c0.00808,-0.128723 0.1553,-0.224182 0.32885,-0.213196z" fill="#800000"/>
    </g>
   </pattern>
   <pattern patternUnits="userSpaceOnUse" width="4.531986" height="4.508552" patternTransform="translate(-50.633428,507.29656)" id="svg_494">
    <g id="svg_693">
     <path d="m0.79009,2.82555c-0.43626,0.00012 -0.78998,-0.23455 -0.79008,-0.52419c-0.0001,-0.28965 0.35345,-0.52451 0.7897,-0.52464c0.43626,-0.00012 0.78998,0.23455 0.79008,0.52419c0.0001,0.28965 -0.35345,0.52452 -0.7897,0.52464z" id="svg_702" fill="#800000"/>
     <path d="m3.82611,1.481c-0.45448,0.31616 -0.8984,0.29682 -0.99156,-0.04324c-0.09315,-0.34001 0.19973,-0.87197 0.65421,-1.18813c0.45448,-0.31616 0.89842,-0.29677 0.99157,0.04324c0.09316,0.34005 -0.19974,0.87197 -0.65422,1.18813z" id="svg_701" fill="#800000"/>
     <path id="svg_700" d="m2.31355,1.64747c0.32663,0.02919 0.57908,0.33114 0.56388,0.67444c-0.01519,0.34331 -0.29228,0.59792 -0.61891,0.56873c-0.32663,-0.02919 -0.57908,-0.33112 -0.56388,-0.67444c0.01519,-0.34329 0.29228,-0.59792 0.61891,-0.56873z" fill="#800000"/>
     <path id="svg_699" d="m3.74229,2.77869c-0.43626,0.00012 -0.78998,-0.23455 -0.79008,-0.52419c-0.0001,-0.28965 0.35345,-0.52451 0.7897,-0.52464c0.43626,-0.00012 0.78998,0.23455 0.79008,0.52419c0.00011,0.28965 -0.35345,0.52452 -0.7897,0.52464z" fill="#800000"/>
     <path d="m2.79041,0.7897c0.00012,0.43625 -0.23456,0.78997 -0.52419,0.79007c-0.28964,0.00011 -0.52452,-0.35345 -0.52464,-0.7897c-0.00012,-0.43626 0.23455,-0.78998 0.52419,-0.79008c0.28964,-0.0001 0.52451,0.35345 0.52464,0.78971z" id="svg_698" fill="#800000"/>
     <path id="svg_697" d="m2.81384,3.71846c0.00012,0.43626 -0.23456,0.78998 -0.52419,0.79008c-0.28964,0.0001 -0.52452,-0.35345 -0.52464,-0.78971c-0.00012,-0.43625 0.23455,-0.78997 0.52419,-0.79008c0.28964,-0.0001 0.52451,0.35346 0.52464,0.78971z" fill="#800000"/>
     <path id="svg_696" d="m1.04964,4.2809c-0.45448,0.31616 -0.8984,0.29682 -0.99157,-0.04324c-0.09315,-0.34001 0.19974,-0.87197 0.65422,-1.18813c0.45448,-0.31616 0.89842,-0.29677 0.99157,0.04324c0.09316,0.34005 -0.19974,0.87197 -0.65422,1.18813z" fill="#800000"/>
     <path d="m1.49665,0.72009c0.31616,0.45448 0.2968,0.89841 -0.04323,0.99157c-0.34006,0.09316 -0.87197,-0.19974 -1.18813,-0.65422c-0.31616,-0.45448 -0.29682,-0.89841 0.04323,-0.99157c0.34004,-0.09316 0.87197,0.19974 1.18813,0.65422z" id="svg_695" fill="#800000"/>
     <path id="svg_694" d="m4.24969,3.4497c0.31616,0.45448 0.2968,0.89841 -0.04323,0.99156c-0.34006,0.09317 -0.87197,-0.19973 -1.18813,-0.65421c-0.31616,-0.45448 -0.29682,-0.89841 0.04323,-0.99157c0.34004,-0.09316 0.87197,0.19974 1.18813,0.65422z" fill="#800000"/>
    </g>
   </pattern>
   <pattern patternUnits="userSpaceOnUse" width="5.599999" height="5.602892" patternTransform="translate(-82.238578,518.8986)" id="svg_684">
    <path d="m1.54863,1.40171c-0.20223,0.30401 -0.51722,0.5098 -0.82617,0.53963c-0.30894,0.0299 -0.56484,-0.12065 -0.67114,-0.39483c-0.10637,-0.27416 -0.04692,-0.63028 0.15584,-0.93397c0.20222,-0.30401 0.51723,-0.50979 0.82617,-0.53962c0.30894,-0.0299 0.56484,0.12064 0.67114,0.39482c0.10637,0.27416 0.0469,0.63027 -0.15584,0.93397z" id="svg_692" fill="#800000"/>
    <path id="svg_691" d="m1.98906,2.64646c0.19203,0.32635 0.23141,0.69908 0.10315,0.97755c-0.12819,0.27849 -0.40445,0.42039 -0.72454,0.37215c-0.3201,-0.04817 -0.63535,-0.2792 -0.82681,-0.60585c-0.19206,-0.32634 -0.23142,-0.69908 -0.10316,-0.97755c0.12819,-0.2785 0.40445,-0.4204 0.72454,-0.37216c0.3201,0.04818 0.63533,0.27922 0.82682,0.60586z" fill="#800000"/>
    <path d="m3.59807,0.6644c0.25122,0.3893 0.34064,0.85643 0.23437,1.22515c-0.10619,0.36874 -0.39184,0.583 -0.74916,0.56193c-0.35732,-0.02098 -0.73199,-0.27415 -0.98262,-0.6639c-0.25125,-0.38929 -0.34065,-0.85644 -0.23438,-1.22515c0.1062,-0.36874 0.39184,-0.583 0.74917,-0.56193c0.35732,0.02098 0.73196,0.27417 0.98262,0.6639z" id="svg_690" fill="#740000"/>
    <path id="svg_689" d="m1.00426,5.60289c-0.32903,0.00038 -0.6333,-0.13648 -0.79795,-0.35904c-0.16471,-0.22251 -0.16479,-0.49684 -0.00022,-0.719471c0.16452,-0.22267 0.46871,-0.35976 0.79774,-0.35957c0.32903,-0.0004 0.6333,0.13648 0.79795,0.35904c0.16471,0.22252 0.16479,0.49685 0.00022,0.71947c-0.16452,0.22267 -0.46871,0.35973 -0.79774,0.35957z" fill="#7b0000"/>
    <path id="svg_688" d="m3.68215,4.71665c-0.3274,0.26392 -0.72752,0.36907 -1.04942,0.27561c-0.32192,-0.09337 -0.51666,-0.37105 -0.51075,-0.72826c0.00583,-0.35722 0.21148,-0.73965 0.53928,-1.00299c0.32738,-0.26395 0.72752,-0.36906 1.04942,-0.27561c0.32191,0.09337 0.51666,0.37105 0.51075,0.72826c-0.00583,0.35722 -0.2115,0.73962 -0.53928,1.00299z" fill="#800000"/>
    <path id="svg_687" d="m5.30715,1.41758c-0.19604,0.29874 -0.48169,0.48704 -0.74922,0.49375c-0.26753,0.00678 -0.47624,-0.169 -0.54737,-0.46102c-0.0712,-0.29199 0.00604,-0.65583 0.20251,-0.9542c0.19602,-0.29876 0.48169,-0.48705 0.74922,-0.49375c0.26753,-0.00678 0.47624,0.169 0.54738,0.46101c0.07119,0.29199 -0.00607,0.65582 -0.20252,0.95421z" fill="#800000"/>
    <path d="m5.50586,4.8383c-0.12457,0.33184 -0.35443,0.58212 -0.60292,0.65632c-0.24847,0.07426 -0.47775,-0.0388 -0.60133,-0.29651c-0.12363,-0.25768 -0.12273,-0.62086 0.00232,-0.95247c0.12455,-0.33185 0.35444,-0.58212 0.60292,-0.65631c0.24847,-0.07426 0.47775,0.03879 0.60133,0.29651c0.12363,0.25768 0.12271,0.62085 -0.00232,0.95246z" id="svg_686" fill="#800000"/>
    <path d="m4.86045,2.0766c0.26873,0.01801 0.51052,0.14914 0.63411,0.344c0.12363,0.19482 0.11029,0.42371 -0.03499,0.60028c-0.14524,0.17661 -0.40036,0.27404 -0.66905,0.25555c-0.26872,-0.01799 -0.51052,-0.14914 -0.63411,-0.34399c-0.12363,-0.19483 -0.11029,-0.42371 0.03499,-0.60029c0.14524,-0.17661 0.40036,-0.27401 0.66905,-0.25555z" id="svg_685" fill="#800000"/>
   </pattern>
   <filter id="svg_682">
    <feGaussianBlur stdDeviation="0.028007" id="svg_683"/>
   </filter>
   <pattern patternUnits="userSpaceOnUse" width="5.734434" height="5.737327" patternTransform="translate(-80.016642,517.46531)" id="svg_511">
    <rect id="svg_680" y="0.067217" x="0.067217" height="5.602892" width="5.599999" filter="url(#svg_682)" fill="url(#svg_681)"/>
   </pattern>
  </defs>
  <metadata id="svg_679">image/svg+xml</metadata>
  <g id="svg_981" transform="rotate(-4.11397 172.108 133.388) matrix(1.40187 0 0 1.0766 97.1966 0.692184)">
   <g id="svg_973" transform="matrix(0.230807 0 0 0.230807 156 56)">
    <path d="m-559.740479,114.10511c4.843018,13.105003 13.583008,18.122002 11.341003,32.993996c-2.536011,16.818008 -5.322998,29.710007 -0.013977,46.823013c10.96698,35.352005 45.661011,50.360001 74.323975,67.683014c15.217041,9.195953 26.529022,22.355957 37.943024,35.707001c12.265991,14.346985 26.783997,27.51001 36.365997,43.86499c9.423004,16.082977 15.429993,34.244995 23.546997,51.008972c9.34201,19.294006 18.257996,38.265991 24.049011,58.970032c4.453003,15.919983 6.174011,32.288971 5.983002,48.777985c4.882996,-18.100006 -7.985016,-44.514008 -12.330994,-61.764984c-6.709015,-26.638 -13.419006,-53.274048 -20.128998,-79.912048c23.987,36.875 47.973999,73.75 71.960999,110.625c-9.786987,-25.703949 -29.193024,-45.250977 -43.412018,-68.314972c-15.164001,-24.597992 -25.233002,-52.439972 -38.718994,-78.020966c18.380005,23.103973 40.145996,41.963989 62.574005,60.939972c-0.140015,-4.667023 2.292999,-9.446991 0.391998,-13.585999c-2.03299,-4.425018 -8.132996,-6.833038 -10.558014,-11.644989c-8.194,-16.255005 -14.126984,-28.36499 -26.131989,-42.830017c-25.379028,-30.579987 -51.587006,-57.378967 -68.312988,-93.900986c-8.297028,-18.118011 -16.38501,-36.326019 -26.011017,-53.78302c-9.494995,-17.217987 -21.330017,-31.070999 -31.682983,-47.426003c-8.495026,-13.419991 -13.049011,-22.216995 -26.399048,-31.052002c-9.332947,-6.176987 -31.260986,-3.594986 -39.305969,3.882011c-3.708984,3.446999 -4.400024,10.409996 -7.822021,13.198006c-4.955017,4.036995 -15.177979,0.83699 -19.945007,5.820992c6.942017,2.363014 15.027039,1.653015 22.294006,1.941002" id="svg_980" clip-rule="evenodd" fill-rule="evenodd" fill="#000000"/>
    <path d="m-559.740479,114.10511c4.843018,13.105003 13.583008,18.122002 11.341003,32.993996c-2.536011,16.818008 -5.322998,29.710007 -0.013977,46.823013c10.96698,35.352005 45.661011,50.360001 74.323975,67.683014c15.217041,9.195953 26.529022,22.355957 37.943024,35.707001c12.265991,14.346985 26.783997,27.51001 36.365997,43.86499c9.423004,16.082977 15.429993,34.244995 23.546997,51.008972c9.34201,19.294006 18.257996,38.265991 24.049011,58.970032c4.453003,15.919983 6.174011,32.288971 5.983002,48.777985c4.882996,-18.100006 -7.985016,-44.514008 -12.330994,-61.764984c-6.709015,-26.638 -13.419006,-53.274048 -20.128998,-79.912048c23.987,36.875 47.973999,73.75 71.960999,110.625c-9.786987,-25.703949 -29.193024,-45.250977 -43.412018,-68.314972c-15.164001,-24.597992 -25.233002,-52.439972 -38.718994,-78.020966c18.380005,23.103973 40.145996,41.963989 62.574005,60.939972c-0.140015,-4.667023 2.292999,-9.446991 0.391998,-13.585999c-2.03299,-4.425018 -8.132996,-6.833038 -10.558014,-11.644989c-8.194,-16.255005 -14.126984,-28.36499 -26.131989,-42.830017c-25.379028,-30.579987 -51.587006,-57.378967 -68.312988,-93.900986c-8.297028,-18.118011 -16.38501,-36.326019 -26.011017,-53.78302c-9.494995,-17.217987 -21.330017,-31.070999 -31.682983,-47.426003c-8.495026,-13.419991 -13.049011,-22.216995 -26.399048,-31.052002c-9.699951,-6.418999 -30.803955,-3.250977 -39.305969,3.882011c-0.814026,0.682999 -1.638,1.535995 -2.346008,2.329002" id="svg_979" stroke-miterlimit="10" stroke-linecap="square" stroke-width="0.3806" stroke="#000000" fill="#000000"/>
    <path d="m-556.612488,95.474113c-1.876953,3.109993 -3.649963,10.94101 -7.28595,11.456993c-5.857056,0.832016 -14.237976,1.159004 -18.13501,5.233017c6.940979,2.362 15.026001,1.653 22.292969,1.939987" id="svg_978" stroke-miterlimit="10" stroke-linecap="square" stroke-width="0.3806" stroke="#000000" fill="#000000"/>
    <path d="m-515.157471,282.177124c4.464996,-2.398987 8.924011,-4.843994 13.689026,-6.597992c-1.389008,0.362 -4.082001,1.968994 -5.085022,2.32901c-0.406006,-0.156006 0.789001,-0.800018 0.392029,-0.777039c0.399963,1.619995 0.884979,3.71402 1.173981,6.210999c4.85199,-10.431976 4.031006,-10.428986 15.251984,-9.315002c9.143005,0.907043 11.701019,2.294006 19.557007,7.375c-3.950989,-9.077972 -10.877991,-10.972961 -19.557007,-6.988007c2.663025,-8.725983 13.926025,-10.875 21.901001,-11.643951c-9.52301,-4.508057 -17.550995,5.937988 -26.006989,8.733002c-7.808014,2.58197 -17.132996,2.470978 -21.31601,10.673981" id="svg_977" clip-rule="evenodd" fill-rule="evenodd" fill="#000000"/>
    <path d="m-515.157471,282.177124c4.464996,-2.398987 8.924011,-4.843994 13.689026,-6.597992c-1.389008,0.362 -4.082001,1.968994 -5.085022,2.32901c-0.406006,-0.156006 0.789001,-0.800018 0.392029,-0.777039c0.399963,1.619995 0.884979,3.71402 1.173981,6.210999c4.85199,-10.431976 4.031006,-10.428986 15.251984,-9.315002c9.143005,0.907043 11.701019,2.294006 19.557007,7.375c-3.950989,-9.077972 -10.877991,-10.972961 -19.557007,-6.988007c2.663025,-8.725983 13.926025,-10.875 21.901001,-11.643951c-9.52301,-4.508057 -17.550995,5.937988 -26.006989,8.733002c-7.808014,2.58197 -17.132996,2.470978 -21.31601,10.673981" id="svg_976" stroke-miterlimit="10" stroke-linecap="square" stroke-width="0.3806" stroke="#000000" fill="#000000"/>
    <path d="m-515.157471,262.770142c4.512024,-2.427032 9.084015,-4.740051 13.689026,-6.986038c-1.350006,0.331009 -3.641022,2.078018 -5.085022,2.716995c2.636017,0.79303 0.527008,0.661987 1.565002,5.433044c4.944,-10.627029 3.970001,-10.439041 15.252014,-9.315018c8.734985,0.869995 12.122986,1.645981 19.556976,6.986008c-3.93399,-9.475021 -11.085968,-9.887009 -19.556976,-6.986008c3.063995,-8.546997 13.820984,-10.479004 21.90097,-11.257034c-8.756989,-4.901001 -18.300964,5.138 -26.006989,8.540009c-7.403992,3.269028 -17.529999,2.234024 -21.315002,10.868011" id="svg_975" clip-rule="evenodd" fill-rule="evenodd" fill="#000000"/>
    <path d="m-515.157471,262.770142c4.512024,-2.427032 9.084015,-4.740051 13.689026,-6.986038c-1.350006,0.331009 -3.641022,2.078018 -5.085022,2.716995c2.636017,0.79303 0.527008,0.661987 1.565002,5.433044c4.944,-10.627029 3.970001,-10.439041 15.252014,-9.315018c8.734985,0.869995 12.122986,1.645981 19.556976,6.986008c-3.93399,-9.475021 -11.085968,-9.887009 -19.556976,-6.986008c3.063995,-8.546997 13.820984,-10.479004 21.90097,-11.257034c-8.756989,-4.901001 -18.300964,5.138 -26.006989,8.540009c-7.403992,3.269028 -17.529999,2.234024 -21.315002,10.868011" id="svg_974" stroke-miterlimit="10" stroke-linecap="square" stroke-width="0.3806" stroke="#000000" fill="#000000"/>
   </g>
  </g>
  <g id="svg_990" transform="rotate(3.02716 75.9273 129.878) matrix(1.83358 0 0 1.72279 -104.694 -187.915)">
   <g id="svg_982" transform="matrix(-0.195112 0 0 0.18968 167.008 63.8603)">
    <path d="m235.710205,458.542999c4.843002,13.105011 13.582962,18.122009 11.340973,32.994019c-2.535965,16.817993 -5.322968,29.709991 -0.013977,46.823029c10.966919,35.351929 45.660919,50.359924 74.323944,67.682983c15.21698,9.195984 26.528992,22.356018 37.942993,35.70697c12.265991,14.347046 26.783997,27.51001 36.365997,43.865051c9.423004,16.083008 15.429993,34.244934 23.546997,51.008972c9.34198,19.293945 18.257965,38.265991 24.048981,58.970032c4.453003,15.919922 6.174011,32.289001 5.983002,48.777893c4.883026,-18.099976 -7.984985,-44.513916 -12.330994,-61.764893c-6.708984,-26.638 -13.419006,-53.274048 -20.128998,-79.912109c23.987,36.875 47.973999,73.75 71.960999,110.625c-9.786987,-25.703979 -29.192993,-45.250916 -43.411987,-68.314941c-15.164001,-24.598022 -25.233002,-52.439941 -38.718994,-78.020996c18.379974,23.103943 40.145996,41.96405 62.573975,60.939941c-0.139984,-4.666992 2.292999,-9.446899 0.391998,-13.585999c-2.03299,-4.424988 -8.133026,-6.833008 -10.557983,-11.644897c-8.194,-16.255066 -14.127014,-28.365051 -26.131989,-42.830017c-25.379028,-30.580078 -51.587006,-57.379028 -68.313019,-93.901001c-8.296997,-18.118042 -16.38501,-36.32605 -26.010986,-53.78302c-9.495026,-17.218018 -21.330017,-31.071014 -31.683014,-47.426025c-8.494995,-13.419983 -13.049011,-22.21701 -26.399017,-31.052002c-9.332977,-6.177002 -31.260941,-3.595001 -39.305908,3.882019c-3.709,3.446991 -4.400009,10.409973 -7.822006,13.197998c-4.954987,4.036987 -15.177994,0.836975 -19.944992,5.820984c6.941986,2.363007 15.026993,1.653015 22.293991,1.94101" id="svg_989" clip-rule="evenodd" fill-rule="evenodd" fill="#000000"/>
    <path d="m235.710205,458.542999c4.843002,13.105011 13.582962,18.122009 11.340973,32.994019c-2.535965,16.817993 -5.322968,29.709991 -0.013977,46.823029c10.966919,35.351929 45.660919,50.359924 74.323944,67.682983c15.21698,9.195984 26.528992,22.356018 37.942993,35.70697c12.265991,14.347046 26.783997,27.51001 36.365997,43.865051c9.423004,16.083008 15.429993,34.244934 23.546997,51.008972c9.34198,19.293945 18.257965,38.265991 24.048981,58.970032c4.453003,15.919922 6.174011,32.289001 5.983002,48.777893c4.883026,-18.099976 -7.984985,-44.513916 -12.330994,-61.764893c-6.708984,-26.638 -13.419006,-53.274048 -20.128998,-79.912109c23.987,36.875 47.973999,73.75 71.960999,110.625c-9.786987,-25.703979 -29.192993,-45.250916 -43.411987,-68.314941c-15.164001,-24.598022 -25.233002,-52.439941 -38.718994,-78.020996c18.379974,23.103943 40.145996,41.96405 62.573975,60.939941c-0.139984,-4.666992 2.292999,-9.446899 0.391998,-13.585999c-2.03299,-4.424988 -8.133026,-6.833008 -10.557983,-11.644897c-8.194,-16.255066 -14.127014,-28.365051 -26.131989,-42.830017c-25.379028,-30.580078 -51.587006,-57.379028 -68.313019,-93.901001c-8.296997,-18.118042 -16.38501,-36.32605 -26.010986,-53.78302c-9.495026,-17.218018 -21.330017,-31.071014 -31.683014,-47.426025c-8.494995,-13.419983 -13.049011,-22.21701 -26.399017,-31.052002c-9.699982,-6.419006 -30.80394,-3.251007 -39.305908,3.882019c-0.813995,0.682983 -1.638,1.536011 -2.346008,2.328979" id="svg_988" stroke-miterlimit="10" stroke-linecap="square" stroke-width="0.3806" stroke="#000000" fill="#000000"/>
    <path d="m238.838211,439.911987c-1.876999,3.110016 -3.650009,10.94101 -7.286011,11.457031c-5.856995,0.83197 -14.237991,1.158966 -18.134995,5.232971c6.940994,2.362 15.026001,1.653015 22.292999,1.940002" id="svg_987" stroke-miterlimit="10" stroke-linecap="square" stroke-width="0.3806" stroke="#000000" fill="#000000"/>
    <path d="m280.293121,626.615051c4.464996,-2.399048 8.924011,-4.844055 13.688995,-6.598083c-1.389008,0.362061 -4.082001,1.969055 -5.084991,2.329041c-0.406006,-0.156006 0.789001,-0.799988 0.391998,-0.777039c0.399994,1.620056 0.88501,3.713989 1.174011,6.210999c4.85199,-10.431946 4.031006,-10.429016 15.251984,-9.315002c9.143005,0.907043 11.701019,2.294067 19.557007,7.375061c-3.950989,-9.078064 -10.877991,-10.973022 -19.557007,-6.987976c2.663025,-8.726074 13.926025,-10.875 21.901001,-11.644043c-9.52301,-4.508057 -17.550995,5.937988 -26.006989,8.733032c-7.808014,2.581909 -17.132996,2.471008 -21.31601,10.674011" id="svg_986" clip-rule="evenodd" fill-rule="evenodd" fill="#000000"/>
    <path d="m280.293121,626.615051c4.464996,-2.399048 8.924011,-4.844055 13.688995,-6.598083c-1.389008,0.362061 -4.082001,1.969055 -5.084991,2.329041c-0.406006,-0.156006 0.789001,-0.799988 0.391998,-0.777039c0.399994,1.620056 0.88501,3.713989 1.174011,6.210999c4.85199,-10.431946 4.031006,-10.429016 15.251984,-9.315002c9.143005,0.907043 11.701019,2.294067 19.557007,7.375061c-3.950989,-9.078064 -10.877991,-10.973022 -19.557007,-6.987976c2.663025,-8.726074 13.926025,-10.875 21.901001,-11.644043c-9.52301,-4.508057 -17.550995,5.937988 -26.006989,8.733032c-7.808014,2.581909 -17.132996,2.471008 -21.31601,10.674011" id="svg_985" stroke-miterlimit="10" stroke-linecap="square" stroke-width="0.3806" stroke="#000000" fill="#000000"/>
    <path d="m280.293121,607.208008c4.511993,-2.427002 9.084015,-4.73999 13.688995,-6.985962c-1.349976,0.330994 -3.640991,2.078003 -5.084991,2.71698c2.636017,0.79303 0.527008,0.661926 1.565002,5.432983c4.944,-10.627014 3.970001,-10.438965 15.252014,-9.315002c8.734985,0.869995 12.122986,1.645996 19.556976,6.986023c-3.93399,-9.475037 -11.085999,-9.887024 -19.556976,-6.986023c3.063995,-8.546997 13.820984,-10.479004 21.901001,-11.256958c-8.757019,-4.901001 -18.301025,5.138 -26.007019,8.539917c-7.403992,3.269043 -17.529999,2.234009 -21.315002,10.868042" id="svg_984" clip-rule="evenodd" fill-rule="evenodd" fill="#000000"/>
    <path d="m280.293121,607.208008c4.511993,-2.427002 9.084015,-4.73999 13.688995,-6.985962c-1.349976,0.330994 -3.640991,2.078003 -5.084991,2.71698c2.636017,0.79303 0.527008,0.661926 1.565002,5.432983c4.944,-10.627014 3.970001,-10.438965 15.252014,-9.315002c8.734985,0.869995 12.122986,1.645996 19.556976,6.986023c-3.93399,-9.475037 -11.085999,-9.887024 -19.556976,-6.986023c3.063995,-8.546997 13.820984,-10.479004 21.901001,-11.256958c-8.757019,-4.901001 -18.301025,5.138 -26.007019,8.539917c-7.403992,3.269043 -17.529999,2.234009 -21.315002,10.868042" id="svg_983" stroke-miterlimit="10" stroke-linecap="square" stroke-width="0.3806" stroke="#000000" fill="#000000"/>
   </g>
  </g>
 </g>
</svg>