<?xml version="1.0" encoding="utf-8"?>
<!-- Generator: Adobe Illustrator 18.1.0, SVG Export Plug-In . SVG Version: 6.00 Build 0)  -->
<!DOCTYPE svg PUBLIC "-//W3C//DTD SVG 1.1//EN" "http://www.w3.org/Graphics/SVG/1.1/DTD/svg11.dtd">
<svg version="1.1" id="Layer_1" xmlns="http://www.w3.org/2000/svg" xmlns:xlink="http://www.w3.org/1999/xlink" x="0px" y="0px"
	 viewBox="0 0 100 70" enable-background="new 0 0 100 70" xml:space="preserve">
<rect fill="#E1E1E1" width="100" height="70"/>
<g>
	<path fill="#F6901E" d="M37.4,32.4l4.6-0.2l3.6-0.1L45.1,37l-4.5,0c0,0-1.1,0-1.7-0.4c0,0-0.8-1.2-1-1.9S37.4,32.4,37.4,32.4z"/>
	<g>
		<g>
			<path d="M44.8,40.6C44.8,40.7,44.8,40.7,44.8,40.6c0.1,0.2,0.1,0.3,0.2,0.4c0,0.1,0.1,0.2,0.1,0.4c0,0.1,0.1,0.3,0.1,0.4
				c0.1,0.3,0.2,0.5,0.3,0.7c0,0.1,0.1,0.2,0.1,0.3c0,0.1,0.1,0.2,0.1,0.3c0,0,0,0.1,0.1,0.1c0,0,0,0.1,0,0.1c0,0.1,0.1,0.1,0.1,0.2
				c0,0.1,0.1,0.2,0.1,0.2s0-0.1,0-0.2c0-0.1,0-0.1,0-0.2c0,0,0-0.1,0-0.1c0,0,0-0.1,0-0.1c0-0.1,0-0.2-0.1-0.3c0-0.1,0-0.1,0-0.2
				c0-0.1,0-0.1-0.1-0.2c0-0.1-0.1-0.3-0.1-0.4c0-0.1-0.1-0.3-0.1-0.4c-0.1-0.1-0.1-0.3-0.2-0.4c-0.1-0.1-0.1-0.2-0.2-0.4
				c-0.1-0.2-0.2-0.4-0.3-0.6l0,0l0.5-0.9l2.4-0.4c0.1,0.9,0.2,1.8,0.2,2.8c0.1,2.5-0.1,4.1,0,5.5c0.1,1.5,0.4,2.7,0.5,3
				c0,0.1-0.2,0.2-0.4,0.4c-0.2,0.2,0.5,1.8-1.7,1.7c-0.9,0-1.4-0.4-1-0.8c0.5-0.4,0.7-0.6,0.8-1.1c0.1-0.5,0.5-1.8,0.3-3.6
				c-0.1-0.8-0.7-0.9-0.8-2.5c-0.1-1.2-0.8-2.1-1.2-3.5L44.8,40.6L44.8,40.6z"/>
		</g>
		<g>
			<g>
				<g>
					<path d="M30.9,26.6c0,0,0.1,0,0.2-0.1c0.2,0,0.4-0.1,0.6-0.2c0.1,0,0.3-0.1,0.4-0.1c0.2,0,0.3-0.1,0.5-0.1
						c0.2,0,0.3-0.1,0.5-0.1c0.2,0,0.3-0.1,0.5-0.1c0.2-0.1,0.3-0.1,0.5-0.2c0.1,0,0.2-0.1,0.2-0.1c0.1,0,0.1-0.1,0.2-0.1
						c0.1-0.1,0.3-0.2,0.4-0.3c0,0,0.1-0.1,0.1-0.1c0,0,0.1-0.1,0.1-0.2c0-0.1,0-0.1,0.1-0.2c0-0.1,0-0.1,0-0.2c0-0.1,0-0.1,0-0.1
						c0,0,0-0.1,0-0.1c0-0.1,0-0.1,0-0.2c0,0,0-0.1,0-0.1s0,0,0,0.1c0,0,0,0,0,0.1c0,0,0,0.1,0,0.1c0,0,0,0.1,0,0.1c0,0,0,0.1,0,0.2
						c0,0.1,0,0.1,0,0.2c0,0,0,0.1,0,0.1c0,0,0,0.1,0,0.1c0,0.1-0.1,0.3-0.2,0.4c-0.1,0.1-0.2,0.3-0.4,0.4c-0.2,0.1-0.3,0.2-0.5,0.3
						c-0.2,0.1-0.4,0.1-0.5,0.2c-0.7,0.2-1.5,0.3-2,0.3c-0.3,0-0.5,0-0.7,0C31,26.6,30.9,26.6,30.9,26.6z"/>
				</g>
			</g>
		</g>
		<g>
			<g>
				<g>
					<path d="M23.6,26.1c0,0,0.1,0,0.3,0c0,0,0.1,0,0.1,0c0,0,0.1,0,0.1,0c0.1,0,0.1,0,0.2,0c0.1,0,0.1,0,0.2,0c0,0,0.1,0,0.1-0.1
						c0,0,0.1,0,0.1-0.1c0,0,0.1,0,0.1,0c0,0,0,0,0.1,0c0,0,0,0,0.1,0c0,0,0.1,0,0.1,0c0,0,0.1,0,0.1,0c0,0,0.1,0,0.1,0l0,0
						c0,0,0,0,0,0.1c0,0,0,0.1,0,0.1c0,0,0,0.1-0.1,0.1c0,0-0.1,0.1-0.1,0.1c0,0-0.1,0.1-0.2,0.1c-0.1,0-0.1,0-0.2,0
						c-0.1,0-0.1,0-0.2,0c-0.1,0-0.1,0-0.2,0c-0.1,0-0.1,0-0.2,0c-0.1,0-0.2,0-0.3-0.1C23.7,26.2,23.5,26.1,23.6,26.1L23.6,26.1z"/>
				</g>
			</g>
		</g>
		<path d="M34.5,18.3c-0.1,0-0.2,0-0.3,0.1c-0.1,0-0.1,0-0.2,0c-0.1,0-0.1,0-0.2,0c-0.1,0-0.1,0-0.2,0c-0.1,0-0.2,0-0.2,0
			c-0.1,0-0.2,0-0.2,0c-0.1,0-0.2,0-0.2,0c-0.1,0-0.1,0-0.2,0c-0.1,0-0.1,0-0.2,0c-0.1,0-0.2,0-0.3,0c-0.1,0-0.1,0-0.1,0s0,0,0.1,0
			c0.1,0,0.2,0,0.3,0c0.1,0,0.1,0,0.2,0c0.1,0,0.1,0,0.2,0c0.1,0,0.1,0,0.2,0c0.1,0,0.1,0,0.2-0.1c0.1,0,0.1,0,0.2-0.1
			c0.1,0,0.1,0,0.2-0.1c0.1,0,0.1,0,0.2-0.1l0,0l0.7-0.3c0.7-0.3,1-0.6,1.2-1.4c0-0.1,0-0.1,0-0.1c0,0,0,0,0,0
			c-0.2,0-0.5,0.1-0.9,0.2c-0.2,0-0.4,0.1-0.6,0.1c-0.7,0.1-1.2,0.6-1.5,1l-0.1,0.1l-0.2-0.1c-0.1,0-0.1,0-0.2-0.1c0,0,0,0.1,0,0.1
			c-0.1,0.3-0.3,0.4-0.6,0.4c-0.3,0-0.6-0.2-0.8-0.5c0,0,0-0.1,0-0.1c0,0,0,0,0,0c-0.3,0-0.6,0-0.9-0.1c-0.1,0-0.2,0-0.3,0
			c0,0.1,0,0.2,0,0.3c-0.1,0.5-0.8,0.5-1.1,0.1c0,0,0,0,0,0c-0.3,0.2-0.7,0.5-1.2,1.1c-1.5,1.8-1.7,2.4-1.9,3.3
			c-0.1,0.2-0.1,0.5-0.2,0.7c-0.2,0.7-0.8,1.3-1.4,2c-0.4,0.5-1.2,1.3-1,1.6c0.3,0.7,1.4,1.6,2,1.6c0,0,0.1,0,0.1,0
			c0.3-0.1,0.5-0.2,0.6-0.4c0.3-0.2,0.5-0.4,1-0.4c0.1,0,0.1,0,0.2,0c0.2,0,0.4,0,0.7-0.1c0.5-0.1,1.2-0.3,2.2-0.3
			c0.6,0,1.3,0.1,2,0.2l0.1,0l0.1,0.1c0.5,0.7,0.9,1,1.1,1.3c0.8,0.8,0.9,1,2.8,5.3c1.3,3,2.5,4.6,4,5.3l0.1,0l0,0.1
			c0.1,0.1,0.1,0.3,0.2,0.4c0.4,0.8,0.7,1.6,0.9,2.4c0.1,0.6,0.3,1.2,0.5,1.8c0.4,1.5,0.9,2.9,0.8,3.9c0,0.3-0.1,0.7-0.1,1
			c-0.1,1.2-0.2,2.4-0.6,3.1c-0.2,0.5-0.5,0.9-0.7,1.2l0,0c0.1,0,0.2,0,0.3,0c0.1,0,0.3,0,0.5,0c0.1,0,0.2,0,0.2,0
			c0.1,0,0.2,0,0.2,0c0.1,0,0.1,0,0.2,0c0.1,0,0.1,0,0.2,0c0.1,0,0.1,0,0.2,0c0,0,0.1,0,0.1,0c0.1,0,0.1,0,0.1,0s0,0-0.1,0.1
			c0,0-0.1,0-0.1,0.1c0,0-0.1,0.1-0.1,0.1C42.1,53,42,53,42,53c-0.1,0-0.1,0.1-0.2,0.1c-0.1,0-0.1,0.1-0.2,0.1
			c-0.1,0-0.2,0.1-0.2,0.1c-0.2,0-0.3,0.1-0.5,0.1c0,0-0.1,0-0.1,0l0,0c0.6,0,1.3-0.1,2.1-0.6c0,0,0,0,0,0l0,0
			c0.1-0.2,0.2-0.4,0.2-0.7c0.1-1,0.4-1.3,0.6-1.4c-0.1-0.2-0.1-0.5-0.2-0.7c-0.2-0.7-0.4-1.3-0.1-2.7c0.1-0.6,0.1-1.1,0.1-1.7
			c0-1.1,0-2.3,0.7-4.1c0.2-0.5,0.4-1,0.6-1.5c0.1-0.2,0.2-0.5,0.3-0.7l0.1-0.2l0.2,0c1.7-0.2,2.7-0.4,3.4-0.5
			c0.7-0.1,1.1-0.2,1.7-0.2c0.6,0,1.4,0.1,2.6,0.4c1.6,0.3,2.4,0.4,3.2,0.4c0.6,0,1.1-0.1,2-0.1c0.8-0.1,1.9-0.2,3.4-0.3l0,0
			c-0.1,0-0.2,0-0.3,0c-0.3,0-0.5,0-0.9,0c-0.3,0-0.7,0-1,0c-0.2,0-0.3,0-0.5,0c-0.2,0-0.3,0-0.5,0c-0.3,0-0.6,0-0.9,0.1
			c-0.5,0-0.8,0.1-0.8,0.1s0.3,0,0.8-0.1c0.3,0,0.5-0.1,0.9-0.1c0.2,0,0.3,0,0.5,0c0.2,0,0.3,0,0.5,0c0.3,0,0.7-0.1,1-0.1
			c0.3,0,0.6,0,0.9-0.1c0.1,0,0.2,0,0.2,0l-1-0.9c-0.1,0-0.2,0.1-0.3,0.1c-0.2,0-0.3,0.1-0.5,0.1c-0.2,0-0.3,0.1-0.5,0.1
			c-0.2,0-0.3,0.1-0.5,0.1c-0.3,0.1-0.6,0.1-1,0.1c-0.3,0-0.6,0.1-0.9,0.1c-0.1,0-0.3,0-0.4,0c-0.1,0-0.3,0-0.4,0
			c-0.2,0-0.5,0-0.7,0c-0.2,0-0.4,0-0.5,0c-0.3,0-0.5,0-0.5,0s0.2,0,0.5,0c0.1,0,0.3,0,0.5,0c0.2,0,0.4,0,0.7,0c0.1,0,0.3,0,0.4,0
			c0.1,0,0.3,0,0.4,0c0.3,0,0.6-0.1,0.9-0.1c0.3,0,0.6-0.1,0.9-0.2c0.2,0,0.3-0.1,0.5-0.1c0.2,0,0.3-0.1,0.5-0.1
			c0.2,0,0.3-0.1,0.5-0.1c0.2,0,0.3-0.1,0.5-0.1c0,0,0,0,0,0l0,0c0,0,0.2,0.2,0.2,0.2c0.1,0,0.1,0.1,0.2,0.2
			c0.2,0.2,0.5,0.5,0.9,0.8c0.2,0.2,0.4,0.3,0.6,0.5c0.2,0.2,0.5,0.3,0.7,0.5c0.3,0.1,0.6,0.3,0.9,0.4c0.2,0.1,0.3,0.1,0.5,0.1
			c0.2,0,0.3,0.1,0.5,0.1c0.2,0,0.3,0,0.5,0.1c0.1,0,0.2,0,0.2,0c0.1,0,0.2,0,0.2,0c0.2,0,0.3,0,0.5,0c0.1,0,0.1,0,0.2,0l0,0
			c0,0.1,0.1,0.2,0.1,0.3c0,0.1,0.1,0.2,0.1,0.2c0,0.1,0.1,0.2,0.1,0.3c0.1,0.2,0.1,0.4,0.2,0.6c0.1,0.2,0.1,0.4,0.2,0.6
			c0,0.2,0.1,0.4,0.1,0.6c0,0.1,0,0.2,0.1,0.3c0,0.1,0,0.2,0,0.3c0,0.1,0,0.2,0,0.3c0,0.1,0,0.2,0,0.3c0,0.1,0,0.2,0,0.3
			c0,0.1,0,0.2,0,0.3c0,0.1,0,0.2,0,0.3c0,0.1,0,0.2,0,0.3c0,0.2,0,0.3,0,0.4c0,0.1,0,0.2,0,0.3c0,0.2,0,0.3,0,0.3s0-0.1,0.1-0.3
			c0-0.1,0-0.2,0.1-0.3c0-0.1,0-0.3,0-0.4c0-0.1,0-0.2,0-0.3c0-0.1,0-0.2,0-0.3c0-0.1,0-0.2,0-0.3c0-0.1,0-0.2,0-0.3
			c0-0.1,0-0.2,0-0.3c0-0.1,0-0.2,0-0.3c0-0.1,0-0.2,0-0.3c0-0.1,0-0.2-0.1-0.3c0-0.2-0.1-0.4-0.1-0.6c-0.1-0.2-0.1-0.4-0.2-0.6
			c-0.1-0.2-0.1-0.4-0.2-0.6c0-0.1-0.1-0.2-0.1-0.3c0-0.1-0.1-0.2-0.1-0.2c0-0.1-0.1-0.2-0.1-0.3l0,0c0.1,0,0.2,0,0.2,0
			c0.1,0,0.2,0,0.2,0c0.1,0,0.1,0,0.2,0c0.1,0,0.1,0,0.2,0c0.1,0,0.1,0,0.2,0c0.1,0,0.3-0.1,0.4-0.1c0.1,0,0.2-0.1,0.4-0.1
			c0.2-0.1,0.4-0.1,0.6-0.2c0.2-0.1,0.3-0.1,0.5-0.2c0.3-0.1,0.4-0.2,0.4-0.2s-0.2,0.1-0.4,0.2c-0.1,0.1-0.3,0.1-0.5,0.2
			c-0.2,0.1-0.4,0.1-0.6,0.2c-0.1,0-0.2,0.1-0.4,0.1c-0.1,0-0.3,0.1-0.4,0.1c-0.1,0-0.1,0-0.2,0c-0.1,0-0.1,0-0.2,0
			c-0.1,0-0.1,0-0.2,0c-0.1,0-0.1,0-0.2,0c-0.1,0-0.1,0-0.2,0c0,0,0,0,0,0l0,0c0,0,0,0,0,0c-0.1-0.1-0.1-0.2-0.2-0.3
			c-0.1-0.2-0.1-0.3-0.1-0.3s0.1,0.1,0.1,0.3c0,0.1,0.1,0.2,0.1,0.3c0,0,0,0,0,0l0,0c0,0-0.1,0-0.1,0c-0.2,0-0.3,0-0.5,0
			c-0.1,0-0.2,0-0.2,0c-0.1,0-0.2,0-0.2,0c-0.2,0-0.3,0-0.5-0.1c-0.2,0-0.3-0.1-0.5-0.1c-0.2,0-0.3-0.1-0.4-0.2
			c-0.3-0.1-0.6-0.2-0.8-0.4c-0.5-0.3-0.9-0.7-1.3-1c-0.4-0.3-0.6-0.6-0.8-0.8c-0.1-0.1-0.2-0.2-0.2-0.2c-0.1,0-0.1-0.1-0.1-0.1l0,0
			c0,0,0,0,0,0c0.1,0,0.2-0.1,0.3-0.1l0,0c0.1,0.1,0.2,0.2,0.3,0.4c0.1,0.1,0.2,0.2,0.3,0.3c0.1,0.1,0.2,0.2,0.3,0.3
			c0.1,0.1,0.2,0.2,0.3,0.3c0.1,0.1,0.2,0.2,0.3,0.3c0.1,0.1,0.2,0.2,0.4,0.3c0.1,0.1,0.2,0.2,0.4,0.2c0.1,0.1,0.2,0.1,0.4,0.2
			c0.1,0.1,0.2,0.1,0.3,0.2c0.1,0,0.2,0.1,0.3,0.1c0.1,0,0.2,0.1,0.2,0.1c0.1,0,0.2,0.1,0.2,0.1s-0.1,0-0.2-0.1
			c-0.1,0-0.1,0-0.2-0.1c-0.1,0-0.2-0.1-0.3-0.1c-0.1,0-0.2-0.1-0.3-0.2C64,39.1,63.9,39,63.8,39c-0.1-0.1-0.2-0.2-0.3-0.3
			c-0.1-0.1-0.2-0.2-0.3-0.3c-0.1-0.1-0.2-0.2-0.3-0.3c-0.1-0.1-0.2-0.2-0.3-0.3c-0.1-0.1-0.2-0.2-0.3-0.3c-0.1-0.1-0.2-0.2-0.2-0.3
			c-0.1-0.1-0.2-0.2-0.2-0.3l0,0c0.1,0,0.2-0.1,0.3-0.1c0.1-0.1,0.3-0.1,0.4-0.2c0.1-0.1,0.3-0.1,0.4-0.2c0.1-0.1,0.2-0.1,0.3-0.2
			c0.1-0.1,0.2-0.1,0.3-0.2c0.1-0.1,0.2-0.1,0.3-0.2c0.2-0.1,0.3-0.2,0.4-0.3c0.1-0.1,0.2-0.1,0.2-0.2l0,0c-0.1-0.1-0.3-0.2-0.4-0.3
			c-0.2-0.1-0.4-0.3-0.6-0.4c-0.2-0.1-0.3-0.3-0.5-0.4c-0.1-0.1-0.2-0.2-0.3-0.3c-0.2-0.2-0.3-0.3-0.3-0.3s0.1,0.1,0.3,0.2
			c0.1,0.1,0.2,0.2,0.4,0.2c0.1,0.1,0.3,0.2,0.5,0.3c0.1,0.1,0.2,0.1,0.3,0.2c0.1,0.1,0.2,0.1,0.3,0.2c0.2,0.1,0.4,0.2,0.7,0.4
			c0.2,0.1,0.5,0.2,0.8,0.4c0.3,0.1,0.5,0.2,0.8,0.3c0.3,0.1,0.5,0.2,0.8,0.4c0.3,0.1,0.5,0.2,0.8,0.4c0.2,0.1,0.5,0.3,0.7,0.4
			c0.2,0.1,0.4,0.3,0.6,0.5c0,0,0.1,0.1,0.1,0.1c0,0,0.1,0.1,0.1,0.1c0.1,0.1,0.1,0.2,0.2,0.2c0.1,0.1,0.1,0.1,0.1,0.2
			c0,0.1,0.1,0.1,0.1,0.2c0,0.1,0.1,0.1,0.1,0.2c0,0,0,0.1,0,0.1c0,0.1,0.2,0.2,0.2,0.2l0,0c0.5,0.4,0.8,0.8,1.2,1.3
			c0.9,0.9,1.4,1.8,1.7,2.8c0.8,3,1.5,7,0.1,9.3l0,0c0.1,0.1,0.2,0.1,0.3,0.2c0.1,0,0.2,0.1,0.2,0.1c0,0,0.1,0,0.1,0
			c0,0,0.1,0,0.1,0c0.1,0,0.1,0,0.2,0c0,0,0.1,0,0.1,0s0,0-0.1,0c0,0-0.1,0-0.2,0c0,0-0.1,0-0.1,0c0,0-0.1,0-0.1,0
			c-0.1,0-0.2,0-0.3,0c-0.1,0-0.2,0-0.3,0l0,0c0.3,0.1,0.6,0.3,1,0.3l0,0c0.1-0.4,0.1-0.7,0.1-0.7l-0.1-0.7l0.5,0.4l0,0
			c0,0,0-0.1,0.1-0.2c0.2-0.6,0.4-1.3,0.8-1.5c0-0.1-0.1-0.2-0.1-0.3c-0.1-0.3-0.3-0.8-0.3-1.3v-3.9c0-1.1,0-1.7,0-2.3
			c0-0.9,0-1.6,0-3.2c0-1.6-0.3-2.4-0.8-3.3c-0.3-0.6-0.6-1.2-0.8-2.1c-0.3-0.9,0.2-1.9,0.4-2.3c0.1-0.2,0.2-0.4,0.4-0.6
			c0.4-0.6,0.9-1.3,1-2.6c0.2-1.9,0.2-3.4-0.1-4.5l0,0c-0.1-0.4-0.2-0.8-0.3-1.2c-0.9-2.7-2.6-3.8-5.6-3.8c-1.1,0-2.2,0.1-3.6,0.3
			c-0.5,0.1-1.1,0.2-1.8,0.3c-1.9,0.3-4.3,0.6-6.7,0.9l0.1-0.6c2.5-0.3,4.7-0.6,6.6-0.9c0.7-0.1,1.3-0.2,1.8-0.3
			c1.4-0.2,2.6-0.3,3.7-0.3c1.5,0,2.7,0.3,3.7,0.9c0.2,0.1,0.4,0.3,0.6,0.4l0,0c0.5,0.2,1,0.4,1.5,0.7c0.6,0.4,1.2,0.9,1.6,1.5
			c0.5,0.6,0.8,1.4,0.9,2.3c0.1,0.4,0.1,0.8,0,1.2c0,0.1,0,0.2,0,0.3l0,0.3c0,0.2-0.1,0.4-0.1,0.6c-0.1,0.8-0.2,1.5-0.2,2.3
			c-0.1,0.8-0.1,1.5-0.1,2.2c0,1.4,0,2.8,0,3.9c0,0.3,0,0.6,0.1,0.9l0,0c0.3,0,0.5,0.3,0.7,0.7c0.3,0.7,0.3,3.2,0.3,3.2
			s-1.8-2.9-1.5-3.6c0.1-0.1,0.1-0.2,0.2-0.2l0,0c0-0.3-0.1-0.6-0.1-1c-0.1-1.2-0.2-2.5-0.2-4c0-0.7,0-1.5,0-2.2
			c0-0.8,0.1-1.5,0.1-2.3c0-0.2,0-0.4,0.1-0.6l0-0.1l0-0.1c0-0.1,0-0.2,0-0.3c0-0.4,0-0.7-0.1-1.1c-0.1-0.7-0.4-1.3-0.8-1.8
			c-0.2-0.3-0.6-0.6-0.9-0.9l0,0c0.1,0.3,0.3,0.6,0.4,0.9c0.1,0.4,0.2,0.8,0.3,1.3c0.3,1.2,0.3,2.8,0.1,4.7
			c-0.2,1.5-0.7,2.2-1.1,2.8c-0.1,0.2-0.3,0.4-0.3,0.6c-0.3,0.6-0.6,1.2-0.4,1.8c0.2,0.8,0.5,1.4,0.8,2c0.5,1,0.9,1.9,0.9,3.6
			c0,1.6,0,2.3,0,3.2c0,0.6,0,1.3,0,2.3v3.9c0,0.4,0.1,0.8,0.3,1.1c0.1,0.4,0.2,0.6,0.1,0.8c-0.1,0.1-0.2,0.2-0.3,0.2
			c0,0-0.3,0.1-0.5,1.1c-0.1,0.4-0.3,0.6-0.5,0.6c0,0.3-0.1,0.8-0.4,1.2c-0.3,0.3-0.7,0.5-1.3,0.5c-0.5,0-1-0.1-1.2-0.5
			c-0.2-0.4,0.2-1,0.6-1.5l0.1-0.1c1.2-1.6,1.2-4.7,0-9c-0.3-1-0.9-1.9-1.7-2.7l-0.1,0c-0.1,1.2-0.3,2.3-0.6,3
			c-0.7,1.6-1.1,4.8-1,5.7c0.1,0.9-0.2,0.7-0.6,0.8c-0.4,0.1-0.4,1.5-1,2c-0.5,0.5-2.3,0.4-2.2-0.3c0.1-0.7,0.5-0.9,1.4-2.3
			c0.9-1.5,1-3.2,0.9-5.6c0-0.4-0.1-1-0.3-1.5L67.1,42c-0.1,0.2-0.3,0.3-0.5,0.4c-0.5,0-0.7-1.1-0.8-1.9l-0.1,0c-0.2,0-0.4,0-0.6,0
			c-1,0-1.7-0.4-2.5-1.1l-0.1-0.1c-1.9,0.1-3.2,0.2-4.1,0.3c-0.9,0.1-1.5,0.1-2,0.1c-0.8,0-1.6-0.1-3.3-0.4
			c-1.2-0.2-1.9-0.3-2.5-0.3c-0.6,0-1,0.1-1.6,0.2c-0.7,0.2-1.7,0.4-3.3,0.5c-0.1,0.2-0.2,0.4-0.2,0.6c-0.2,0.5-0.4,0.9-0.6,1.5
			c-0.7,1.7-0.7,2.8-0.7,3.9c0,0.6,0,1.1-0.1,1.7c-0.2,1.3-0.1,1.8,0.1,2.4c0.1,0.2,0.1,0.4,0.2,0.7c0.1,0.3-0.1,0.5-0.2,0.6
			c-0.1,0.1-0.3,0.2-0.4,1c-0.2,2-1.8,2.2-2.6,2.3c-0.2,0-0.4,0-0.6,0c-0.6,0-1-0.2-1.1-0.4c-0.1-0.1-0.1-0.4,0.1-0.7
			c0.4-0.5,0.9-1.2,1.3-1.9c0.3-0.6,0.4-1.8,0.5-2.9c0-0.3,0.1-0.7,0.1-1c0.1-1-0.3-2.4-0.7-3.7c-0.2-0.6-0.4-1.2-0.5-1.8
			c-0.2-0.8-0.5-1.5-0.9-2.4c0-0.1-0.1-0.2-0.1-0.3c-1.6-0.8-2.9-2.5-4.2-5.6c-1.8-4.2-2-4.4-2.7-5.1c-0.3-0.3-0.6-0.6-1.1-1.3
			c-0.6-0.1-1.2-0.2-1.8-0.2c-1,0-1.6,0.2-2.1,0.3c-0.3,0.1-0.5,0.2-0.8,0.2c-0.1,0-0.1,0-0.2,0c0,0-0.1,0-0.1,0
			c-0.2,0-0.4,0.1-0.6,0.3c-0.2,0.2-0.5,0.3-0.8,0.5c-0.1,0-0.2,0-0.3,0c-0.9,0-2.2-1.2-2.5-1.9c-0.3-0.6,0.4-1.3,1.1-2.2
			c0.5-0.6,1.1-1.3,1.3-1.8c0.1-0.3,0.2-0.5,0.2-0.7c0.2-0.8,0.4-1.5,1.8-3.1l0,0c-0.3-0.1-0.8-0.1-1.2-1c-0.5-1-0.4-1.4,0.9-0.8
			c0.9,0.4,1.1,0.6,1.2,0.8l0,0c0.3-0.3,0.5-0.5,0.8-0.6c-0.1-0.2-0.3-0.3-0.7-0.5c-1.3-0.4-1.7-0.6,0.3-0.5c1,0.1,1.4,0.3,1.6,0.6
			c0.2,0,0.4,0,0.6,0.1c0.2,0,0.4,0.1,0.7,0.1c-0.1-0.1-0.2-0.3-0.5-0.4c-0.9-0.5-1.1-0.6-1-0.8c0-0.2,0.2-0.2,0.3-0.2
			c0.2,0,0.6,0.1,1.3,0.2c0.8,0.2,1.2,0.6,1.4,0.9c0.1,0.1,0.1,0.2,0.1,0.3c0.1,0,0.2,0,0.3,0.1c0.5-0.5,1.1-0.9,1.7-1
			c0.2,0,0.4-0.1,0.6-0.1c0.4-0.1,0.7-0.2,1-0.2c0.2,0,0.4,0.1,0.5,0.2c0.2,0.2,0.1,0.6,0,0.7c-0.2,0.7-0.5,1.1-0.9,1.4
			c1,0.3,2,0.5,3.2,0.7l0,0c0,0,0.5,0.1,1.2,0.4l0.2,0c0.6,0,1.1,0,1.7,0c1.7,0,3.8,0.1,5.6,0.5c1,0.2,2.4,0.4,4,0.4
			c1.7,0,3.8-0.1,5.7-0.3L57,20.2c-1.9,0.2-3.9,0.3-5.6,0.3c-1.7,0-3.1-0.1-4.1-0.4c-1.7-0.4-3.7-0.5-5.4-0.5c-0.6,0-1.2,0-1.7,0
			l-0.3,0l-0.1,0c-0.7-0.3-1.1-0.4-1.2-0.4c-1.4-0.2-2.7-0.5-3.9-0.9L34.5,18.3z"/>
		<g>
			<g>
				<g>
					<path d="M27.7,21.2C27.7,21.2,27.7,21.2,27.7,21.2c0-0.1,0-0.1,0.1-0.1c0.1-0.1,0.1-0.2,0.2-0.3c0.1-0.1,0.2-0.2,0.4-0.4
						c0.1-0.1,0.3-0.2,0.5-0.3c0,0,0.1-0.1,0.1-0.1c0,0,0.1,0,0.1-0.1c0,0,0.1,0,0.1,0c0,0,0.1,0,0.1,0c0.1,0,0.2-0.1,0.2-0.1
						c0.1,0,0.1-0.1,0.2-0.1c0.1,0,0.1-0.1,0.2-0.1c0.1,0,0.1,0,0.1-0.1c0.1,0,0.1,0,0.1,0s0,0-0.1,0.1c0,0-0.1,0.1-0.1,0.1
						c0,0-0.1,0.1-0.2,0.1c-0.1,0-0.1,0.1-0.2,0.1c-0.1,0-0.1,0.1-0.2,0.1c-0.1,0-0.2,0.1-0.3,0.1c0,0-0.1,0-0.1,0.1
						c0,0-0.1,0-0.1,0.1c-0.2,0.1-0.3,0.2-0.5,0.3c-0.1,0.1-0.3,0.2-0.4,0.3c-0.1,0.1-0.2,0.1-0.3,0.2
						C27.8,21.1,27.7,21.2,27.7,21.2C27.7,21.2,27.7,21.2,27.7,21.2z"/>
				</g>
			</g>
		</g>
		<g>
			<g>
				<g>
					<path d="M28.7,22.2C28.7,22.2,28.7,22.2,28.7,22.2c0-0.1,0-0.2,0.1-0.3c0-0.1,0.1-0.2,0.1-0.3c0,0,0.1-0.1,0.1-0.1
						c0,0,0.1-0.1,0.1-0.1c0,0,0.1-0.1,0.1-0.1c0,0,0.1-0.1,0.1-0.1c0,0,0.1-0.1,0.1-0.1c0,0,0.1,0,0.1-0.1c0,0,0.1,0,0.1,0
						c0,0,0.1,0,0.1,0c0.1,0,0.1,0,0.1,0s0,0-0.1,0c0,0,0,0-0.1,0.1c0,0-0.1,0-0.1,0.1c0,0-0.1,0.1-0.1,0.1c0,0-0.1,0.1-0.1,0.1
						c0,0-0.1,0.1-0.1,0.1c0,0-0.1,0.1-0.1,0.1c-0.1,0.1-0.1,0.2-0.2,0.2C29,21.9,29,21.9,28.9,22C28.8,22.1,28.8,22.1,28.7,22.2
						C28.7,22.2,28.7,22.2,28.7,22.2z"/>
				</g>
			</g>
		</g>
		<g>
			<g>
				<g>
					<path d="M29.7,21.1c-0.3,0.2-0.5,0.4-0.7,0.6c0.1,0.1,0.2,0.2,0.4,0.2c0.3,0,0.5-0.2,0.5-0.5C29.8,21.3,29.8,21.2,29.7,21.1z"
						/>
				</g>
			</g>
		</g>
		<g>
			<g>
				<g>
					<g>
						<path d="M54.7,21.4c-0.1-0.2-0.1-0.3-0.2-0.5l0.2-0.1c0.1,0.1,0.1,0.3,0.2,0.5L54.7,21.4z"/>
					</g>
				</g>
				<g>
					<g>
						<path d="M55.2,35.1l-0.2,0c0-0.3,0-0.6,0-1l0.2,0C55.2,34.4,55.2,34.8,55.2,35.1z M55.3,33.1l-0.2,0c0-0.3,0-0.6,0-1l0.2,0
							C55.3,32.5,55.3,32.8,55.3,33.1z M55.3,31.1l-0.2,0c0-0.3,0-0.7,0-1l0.2,0C55.4,30.5,55.4,30.8,55.3,31.1z M55.4,29.2l-0.2,0
							c0-0.3,0-0.7,0-1l0.2,0C55.5,28.5,55.4,28.8,55.4,29.2z M55.5,27.2l-0.2,0c0-0.1,0-0.2,0-0.3c0-0.2,0-0.5,0-0.7l0.2,0
							c0,0.2,0,0.5,0,0.7C55.5,27,55.5,27.1,55.5,27.2z M55.2,25.2c0-0.3,0-0.7-0.1-1l0.2,0c0,0.3,0,0.6,0.1,1L55.2,25.2z
							 M55.1,23.3c0-0.3-0.1-0.7-0.2-1l0.2,0c0.1,0.3,0.1,0.6,0.2,1L55.1,23.3z"/>
					</g>
				</g>
				<g>
					<g>
						<path d="M55,36.6c0,0,0-0.1,0-0.5l0.2,0c0,0.3,0,0.5,0,0.5L55,36.6z"/>
					</g>
				</g>
			</g>
			<g>
				<g>
					<g>
						<path d="M66.6,20.2c-0.2-0.3-0.3-0.4-0.3-0.4l0.1-0.1c0,0,0.1,0.1,0.3,0.4L66.6,20.2z"/>
					</g>
				</g>
				<g>
					<path d="M67.7,34.6c-0.1,0.4-0.1,0.6-0.1,0.6l0.2-0.1c0,0,0,0,0.1-0.5L67.7,34.6z"/>
				</g>
			</g>
			<g>
				<g>
					<path d="M61.5,20.7c-0.1-0.3-0.2-0.4-0.2-0.4l-0.2,0.1c0,0,0.1,0.1,0.2,0.4L61.5,20.7z"/>
				</g>
				<g>
					<path d="M62,22.2c-0.1-0.3-0.2-0.5-0.2-0.8l-0.2,0.1c0.1,0.2,0.2,0.5,0.2,0.7L62,22.2z"/>
				</g>
				<g>
					<path d="M62.2,23L62,23c0,0.1,0,0.2,0,0.3c-0.3,0.1-0.6,0.2-0.8,0.2l0.1,0.2l1-0.3C62.3,23.3,62.2,23.1,62.2,23z"/>
				</g>
				<g>
					<path d="M59.9,25.7l0,0.2c0.3,0,0.7,0,1-0.1l0-0.2C60.5,25.7,60.2,25.7,59.9,25.7z"/>
				</g>
				<g>
					<path d="M58.3,24.5c-0.4,0.1-0.7,0.3-0.9,0.4l0.1,0.2c0.3-0.1,0.6-0.2,0.9-0.4L58.3,24.5z"/>
				</g>
				<g>
					<path d="M60.3,23.8c-0.3,0.1-0.7,0.2-1,0.3l0.1,0.2c0.3-0.1,0.6-0.2,1-0.3L60.3,23.8z"/>
				</g>
				<g>
					<path d="M57.9,25.8l0,0.2c0.3,0,0.6,0,1,0l0-0.2C58.5,25.8,58.2,25.8,57.9,25.8z"/>
				</g>
				<g>
					<path d="M56.4,25.6c0,0,0-0.1,0.2-0.2l-0.1-0.2c-0.2,0.1-0.3,0.2-0.3,0.3c0,0.2,0.3,0.3,0.6,0.3l0-0.2
						C56.4,25.7,56.4,25.6,56.4,25.6z"/>
				</g>
				<g>
					<path d="M66.1,22.1c-0.3,0.1-0.6,0.2-1,0.3l0.1,0.2c0.4-0.1,0.7-0.2,1-0.3L66.1,22.1z"/>
				</g>
				<g>
					<path d="M65.9,25.1l0,0.2c0.4,0,0.7-0.1,1-0.1l0-0.2C66.6,25,66.3,25.1,65.9,25.1z"/>
				</g>
				<g>
					<path d="M61.9,25.6l0,0.2c0.3,0,0.7-0.1,1-0.1l0-0.2C62.6,25.5,62.2,25.5,61.9,25.6z"/>
				</g>
				<g>
					<path d="M64.2,22.9l-0.1-0.2l0,0c-0.3,0.1-0.6,0.2-1,0.3l0.1,0.2C63.6,23.1,63.9,23,64.2,22.9L64.2,22.9z"/>
				</g>
				<g>
					<path d="M63.9,25.4l0,0.2c0.3,0,0.7-0.1,1-0.1l0-0.2C64.6,25.3,64.2,25.3,63.9,25.4z"/>
				</g>
				<g>
					<path d="M68.4,24.7c-0.1,0-0.3,0.1-0.5,0.1l0,0.2c0.2,0,0.3-0.1,0.5-0.1L68.4,24.7z"/>
				</g>
			</g>
			<g>
				<g>
					<path d="M67.3,20.9L67.1,21c0.1,0.2,0.2,0.5,0.3,0.7c-0.1,0-0.2,0.1-0.3,0.1l0.1,0.2l0.5-0.2C67.5,21.5,67.4,21.2,67.3,20.9z"
						/>
				</g>
				<g>
					<path d="M67.8,33.6l0.2,0c0-0.3,0.1-0.6,0.1-1l-0.2,0C67.9,33,67.8,33.3,67.8,33.6z"/>
				</g>
				<g>
					<path d="M68.4,25.7l0.2,0c0-0.3-0.1-0.7-0.1-1l-0.2,0C68.3,25.1,68.3,25.4,68.4,25.7z"/>
				</g>
				<g>
					<path d="M68.2,23.7c-0.1-0.3-0.2-0.6-0.3-1l-0.2,0.1c0.1,0.3,0.2,0.6,0.2,0.9L68.2,23.7z"/>
				</g>
				<g>
					<path d="M68.6,27.1c0-0.1,0-0.3,0-0.4l-0.2,0c0,0.1,0,0.3,0,0.4c0,0.1,0,0.3,0,0.4c-0.1,0-0.2,0-0.3,0l0,0.2l0.5,0.1
						C68.6,27.6,68.6,27.3,68.6,27.1z"/>
				</g>
				<g>
					<path d="M68.3,29.1l-0.1,0.6l0.2,0l0.1-0.6c0-0.1,0-0.3,0-0.4l-0.2,0C68.3,28.8,68.3,28.9,68.3,29.1z"/>
				</g>
				<g>
					<path d="M68,31.6l0.2,0c0-0.3,0.1-0.6,0.1-1l-0.2,0C68.1,31,68.1,31.3,68,31.6z"/>
				</g>
				<g>
					<path d="M64,27.4c0.4,0,0.7,0,1,0l0-0.2c-0.3,0-0.7,0-1,0L64,27.4z"/>
				</g>
				<g>
					<path d="M66,27.4c0.3,0,0.7,0.1,1,0.1l0-0.2c-0.3,0-0.7-0.1-1-0.1L66,27.4z"/>
				</g>
				<g>
					<path d="M62.5,27.2l0,0.2c0.2,0,0.3,0,0.5,0l0-0.2C62.8,27.2,62.6,27.2,62.5,27.2z"/>
				</g>
			</g>
			<g>
				<g>
					<path d="M67.6,35.2l0.1-0.3c0.3-0.1,0.6-0.2,0.9-0.3l0,0.2C68.4,34.9,67.9,35.1,67.6,35.2z M72.5,34.8
						c-0.3-0.1-0.6-0.1-0.9-0.2l0-0.2c0.3,0,0.7,0.1,1,0.2L72.5,34.8z M69.7,34.7l0-0.2c0.3,0,0.7-0.1,1-0.1l0,0.2
						C70.3,34.6,70,34.6,69.7,34.7z"/>
				</g>
			</g>
			<g>
				<g>
					<g>
						<path d="M36.8,22.2l-0.2,0c0,0.3,0,0.6,0,1l0.2,0C36.8,22.8,36.8,22.5,36.8,22.2z"/>
					</g>
					<g>
						<path d="M37,20.3l-0.2-0.1c-0.1,0.2-0.1,0.6-0.2,1l0.2,0C36.9,20.8,37,20.5,37,20.3z"/>
					</g>
					<g>
						<path d="M40.3,32.3l0-0.2c-0.3,0-0.7,0-1,0l0,0.2C39.6,32.4,39.9,32.4,40.3,32.3z"/>
					</g>
					<g>
						<path d="M44.3,20.5c-0.3,0-0.7-0.1-1-0.1l0,0.2c0.3,0,0.6,0.1,1,0.1L44.3,20.5z"/>
					</g>
					<g>
						<path d="M40.5,20.1c-0.4,0-0.7-0.1-1-0.1l0,0.2c0.3,0,0.6,0.1,1,0.1L40.5,20.1z"/>
					</g>
					<g>
						<path d="M42.4,20.3c-0.3,0-0.7-0.1-1-0.1l0,0.2c0.3,0,0.6,0.1,1,0.1L42.4,20.3z"/>
					</g>
					<g>
						<path d="M37.4,32.3c0-0.1,0-0.2,0-0.3l-0.2,0c0,0.2,0,0.3,0,0.4l0,0.1c0,0.1,0.1,0.5,0.2,0.9l0.2,0c-0.1-0.4-0.2-0.7-0.2-0.8
							c0.3,0,0.5,0,0.9-0.1l0-0.2C38,32.3,37.7,32.3,37.4,32.3z"/>
					</g>
					<g>
						<path d="M44.1,32c-0.3,0-0.7,0-1,0l0,0.2c0.3,0,0.6,0,1,0L44.1,32z"/>
					</g>
					<g>
						<path d="M36.8,24.2l-0.2,0c0,0.3,0,0.6,0,1l0.2,0C36.8,24.8,36.8,24.5,36.8,24.2z"/>
					</g>
					<g>
						<path d="M42.2,32.1c-0.3,0-0.7,0-1,0l0,0.2c0.3,0,0.6,0,1,0L42.2,32.1z"/>
					</g>
					<g>
						<path d="M37.6,19.6l0,0.2c0.3,0.1,0.6,0.1,1,0.2l0-0.2C38.2,19.8,37.9,19.7,37.6,19.6z"/>
					</g>
					<g>
						<path d="M36.9,26.1l-0.2,0c0,0.3,0,0.6,0.1,1l0.2,0C36.9,26.7,36.9,26.4,36.9,26.1z"/>
					</g>
					<g>
						<path d="M37.2,30L37,30c0,0.4,0.1,0.7,0.1,1l0.2,0C37.2,30.7,37.2,30.4,37.2,30z"/>
					</g>
					<g>
						<path d="M37,28.1l-0.2,0c0,0.3,0.1,0.7,0.1,1l0.2,0C37.1,28.7,37,28.4,37,28.1z"/>
					</g>
					<g>
						<path d="M69.6,19.5l0-0.2c-0.3,0-0.6,0-1,0l0,0.2C69,19.5,69.3,19.5,69.6,19.5z"/>
					</g>
					<g>
						<path d="M48.2,20.8c-0.3,0-0.7,0-1-0.1l0,0.2c0.3,0,0.6,0,1,0.1L48.2,20.8z"/>
					</g>
					<g>
						<path d="M65.7,19.9l0-0.2c-0.3,0-0.6,0.1-1,0.1l0,0.2C65.1,20,65.4,19.9,65.7,19.9z"/>
					</g>
					<g>
						<path d="M63.8,20.1l0-0.2c-0.3,0-0.6,0.1-1,0.1l0,0.2C63.1,20.2,63.5,20.2,63.8,20.1z"/>
					</g>
					<g>
						<path d="M72.7,33.2c0,0.3,0.1,0.6,0.2,1l0.2-0.1c-0.1-0.4-0.2-0.7-0.2-0.9L72.7,33.2z"/>
					</g>
					<g>
						<path d="M74.6,26.7l0.2,0c0-0.3,0-0.7-0.1-1l-0.2,0C74.5,26.1,74.5,26.4,74.6,26.7z"/>
					</g>
					<g>
						<path d="M73.4,31.4l-0.2-0.1c0,0.1-0.1,0.1-0.1,0.2c-0.2,0.2-0.3,0.5-0.3,0.7l0.2,0.1c0.1-0.2,0.2-0.4,0.3-0.6
							C73.4,31.6,73.4,31.5,73.4,31.4z"/>
					</g>
					<g>
						<path d="M74.5,24.8c-0.1-0.3-0.2-0.6-0.3-1L74,23.9c0.1,0.3,0.2,0.6,0.3,0.9L74.5,24.8z"/>
					</g>
					<g>
						<path d="M46.1,32c-0.3,0-0.7,0-1,0l0,0.2c0.3,0,0.6,0,1,0L46.1,32z"/>
					</g>
					<g>
						<path d="M54.1,21l0-0.2c-0.3,0-0.7,0-1,0l0,0.2C53.4,21,53.7,21,54.1,21z"/>
					</g>
					<g>
						<path d="M52.1,21.1l0-0.2c-0.3,0-0.7,0-1,0l0,0.2C51.5,21.1,51.8,21.1,52.1,21.1z"/>
					</g>
					<g>
						<path d="M50.2,20.9c-0.3,0-0.7,0-1,0l0,0.2c0.3,0,0.6,0,1,0L50.2,20.9z"/>
					</g>
					<g>
						<path d="M61.8,20.4l0-0.2c-0.3,0-0.6,0.1-1,0.1l0,0.2C61.2,20.4,61.5,20.4,61.8,20.4z"/>
					</g>
					<g>
						<path d="M56,20.9l0-0.2c-0.3,0-0.7,0-1,0.1l0,0.2C55.4,20.9,55.7,20.9,56,20.9z"/>
					</g>
					<g>
						<path d="M59.9,20.6l0-0.2c-0.3,0-0.6,0.1-1,0.1l0,0.2C59.3,20.6,59.6,20.6,59.9,20.6z"/>
					</g>
					<g>
						<path d="M58,20.8l0-0.2c-0.3,0-0.6,0.1-1,0.1l0,0.2C57.3,20.8,57.6,20.8,58,20.8z"/>
					</g>
					<g>
						<path d="M59.7,32.3c-0.3,0-0.6-0.1-1-0.1l0,0.2c0.3,0,0.7,0,1,0.1L59.7,32.3z"/>
					</g>
					<g>
						<path d="M66.2,34.1c0.3,0.2,0.5,0.3,0.8,0.5l0.1-0.2c-0.3-0.2-0.5-0.4-0.8-0.6L66.2,34.1z"/>
					</g>
					<g>
						<path d="M66.7,19.6l0,0.2c0.4-0.1,0.7-0.1,1-0.1l0-0.2C67.3,19.5,67,19.5,66.7,19.6z"/>
					</g>
					<g>
						<path d="M71.5,19.8c-0.3-0.2-0.6-0.3-0.9-0.4l0,0.2c0.3,0.1,0.6,0.2,0.9,0.4L71.5,19.8z"/>
					</g>
					<g>
						<path d="M69.3,36.5l-0.1,0.1c0.2,0.2,0.5,0.5,0.7,0.7l0.1-0.1C69.8,36.9,69.5,36.7,69.3,36.5z"/>
					</g>
					<g>
						<path d="M57.8,32.1c-0.3,0-0.6,0-1,0l0,0.2c0.3,0,0.7,0,1,0L57.8,32.1z"/>
					</g>
					<g>
						<path d="M65.5,33.4c-0.2-0.1-0.5-0.2-0.7-0.3c-0.1,0-0.1,0-0.2-0.1l-0.1,0.2c0.1,0,0.1,0,0.2,0.1c0.2,0.1,0.5,0.2,0.7,0.3
							L65.5,33.4z"/>
					</g>
					<g>
						<path d="M61.9,31.6l-0.2,0c-0.1,0.3-0.1,0.6-0.2,0.9c-0.3,0-0.5-0.1-0.8-0.1l0,0.2c0.3,0,0.7,0.1,1,0.1L61.9,31.6z"/>
					</g>
					<g>
						<path d="M63.6,32.8c-0.3-0.1-0.6-0.1-1-0.2l0,0.2c0.3,0.1,0.7,0.1,1,0.2L63.6,32.8z"/>
					</g>
					<g>
						<path d="M67.9,35.1l-0.1,0.1c0.2,0.2,0.4,0.4,0.7,0.7l0.1-0.1C68.4,35.5,68.1,35.3,67.9,35.1z"/>
					</g>
					<g>
						<path d="M73.8,30.5l0.2,0.1c0.1-0.3,0.3-0.6,0.4-0.9l-0.2-0.1C74,29.9,73.9,30.2,73.8,30.5z"/>
					</g>
					<g>
						<path d="M73.4,22l-0.2,0.1c0.2,0.3,0.3,0.5,0.4,0.9l0.2-0.1C73.7,22.6,73.6,22.3,73.4,22z"/>
					</g>
					<g>
						<path d="M70.8,37.6l-0.1,0.2c0.3,0.1,0.5,0.2,0.8,0.2c0.1,0,0.1,0,0.2,0l0-0.2C71.4,37.8,71.1,37.8,70.8,37.6z"/>
					</g>
					<g>
						<path d="M74.4,28.7l0.2,0c0.1-0.3,0.1-0.6,0.1-1l-0.2,0C74.5,28,74.5,28.4,74.4,28.7z"/>
					</g>
					<g>
						<path d="M73.3,35.1c0.1,0.3,0.2,0.6,0.2,0.9l0.2,0c0-0.3-0.1-0.7-0.2-1L73.3,35.1z"/>
					</g>
					<g>
						<path d="M72.8,21.2c-0.2-0.3-0.4-0.5-0.6-0.8l-0.1,0.1c0.2,0.2,0.4,0.5,0.6,0.7L72.8,21.2z"/>
					</g>
					<g>
						<path d="M72.6,37.5l0.1,0.2c0.4-0.2,0.6-0.4,0.8-0.6l-0.2-0.1C73.1,37.2,72.9,37.3,72.6,37.5z"/>
					</g>
					<g>
						<path d="M50,32c-0.3,0-0.7,0-1,0l0,0.2c0.3,0,0.6,0,1,0L50,32z"/>
					</g>
					<g>
						<path d="M51.9,32c-0.3,0-0.6,0-1,0l0,0.2c0.3,0,0.6,0,1,0L51.9,32z"/>
					</g>
					<g>
						<path d="M53.9,32c-0.3,0-0.6,0-1,0l0,0.2c0.3,0,0.7,0,1,0L53.9,32z"/>
					</g>
					<g>
						<path d="M55.8,32c-0.3,0-0.6,0-1,0l0,0.2c0.3,0,0.7,0,1,0L55.8,32z"/>
					</g>
					<g>
						<path d="M48,32c-0.3,0-0.7,0-1,0l0,0.2c0.3,0,0.6,0,1,0L48,32z"/>
					</g>
					<g>
						<path d="M38.7,36l-0.2,0.1c0.2,0.4,0.4,0.6,0.7,0.8l0.1-0.2C39.1,36.6,38.9,36.4,38.7,36z"/>
					</g>
					<g>
						<path d="M49.9,36.7l0,0.2c0.3,0,0.6,0,1,0l0-0.2C50.6,36.7,50.3,36.7,49.9,36.7z"/>
					</g>
					<g>
						<path d="M40.2,37.1c0.3,0,0.6,0,1,0l0-0.2c-0.4,0-0.7,0-1,0L40.2,37.1z"/>
					</g>
					<g>
						<path d="M48,36.8l0,0.2c0.3,0,0.6,0,1,0l0-0.2C48.6,36.7,48.3,36.8,48,36.8z"/>
					</g>
					<g>
						<path d="M44.1,36.9l0,0.2c0.3,0,0.6,0,1,0l0-0.2C44.7,36.9,44.4,36.9,44.1,36.9z"/>
					</g>
					<g>
						<path d="M46,36.8l0,0.2c0.3,0,0.6,0,1,0l0-0.2C46.7,36.8,46.4,36.8,46,36.8z"/>
					</g>
					<g>
						<path d="M42.1,36.9l0,0.2c0.3,0,0.6,0,1,0l0-0.2C42.8,36.9,42.4,36.9,42.1,36.9z"/>
					</g>
					<g>
						<path d="M59.7,36l0,0.2c0.3,0,0.7-0.1,1-0.1l0-0.2C60.3,35.9,60,35.9,59.7,36z"/>
					</g>
					<g>
						<path d="M37.7,34.3c0.1,0.3,0.2,0.6,0.3,0.9l0.2-0.1c-0.1-0.3-0.2-0.6-0.3-0.9L37.7,34.3z"/>
					</g>
					<g>
						<path d="M61.6,35.7l0,0.2c0.4-0.1,0.7-0.1,1-0.2l0-0.2C62.3,35.5,61.9,35.6,61.6,35.7z"/>
					</g>
					<g>
						<path d="M63.5,35.2l0.1,0.2c0.3-0.1,0.6-0.2,0.9-0.3l-0.1-0.2C64.1,35,63.8,35.1,63.5,35.2z"/>
					</g>
					<g>
						<path d="M57.7,36.2l0,0.2c0.3,0,0.7-0.1,1-0.1l0-0.2C58.4,36.1,58.1,36.1,57.7,36.2z"/>
					</g>
					<g>
						<path d="M55.8,36.4l0,0.2c0.3,0,0.7-0.1,1-0.1l0-0.2C56.4,36.3,56.1,36.3,55.8,36.4z"/>
					</g>
					<g>
						<path d="M53.8,36.5l0,0.2c0.3,0,0.7,0,1-0.1l0-0.2C54.5,36.4,54.2,36.5,53.8,36.5z"/>
					</g>
					<g>
						<path d="M51.9,36.6l0,0.2c0.3,0,0.7,0,1-0.1l0-0.2C52.5,36.6,52.2,36.6,51.9,36.6z"/>
					</g>
					<g>
						<path d="M65.3,34.6l0.1,0.2c0.4-0.1,0.7-0.2,0.9-0.2l0-0.2C66,34.4,65.7,34.5,65.3,34.6z"/>
					</g>
					<g>
						<path d="M62.3,29.7l-0.2,0c-0.1,0.3-0.1,0.6-0.2,1l0.2,0C62.2,30.3,62.3,30,62.3,29.7z"/>
					</g>
					<g>
						<path d="M62.3,28.7l0.2,0c0-0.3,0.1-0.7,0.1-1l-0.2,0C62.4,28.1,62.4,28.4,62.3,28.7z"/>
					</g>
					<g>
						<path d="M62.5,26.8l0.2,0c0-0.1,0-0.2,0-0.3c0-0.3,0-0.5,0-0.7l-0.2,0c0,0.2,0,0.5,0,0.7C62.5,26.6,62.5,26.7,62.5,26.8z"/>
					</g>
					<g>
						<path d="M46.2,21.2l0.2,0c0-0.2,0-0.4-0.1-0.5c-0.3,0-0.7-0.1-1-0.1l0,0.2c0.3,0,0.5,0,0.8,0.1C46.1,21,46.1,21.1,46.2,21.2z"
							/>
					</g>
				</g>
				<g>
					<path d="M45.3,33.4l0.2,0c0-0.3,0.1-0.7,0.1-1l-0.2,0C45.4,32.8,45.3,33.1,45.3,33.4z"/>
				</g>
				<g>
					<rect x="45.5" y="30.4" transform="matrix(-0.9944 -0.1056 0.1056 -0.9944 87.7736 66.4675)" width="0.2" height="1"/>
				</g>
				<g>
					<path d="M45.1,35.5l0.2,0c0-0.3,0.1-0.7,0.1-1l-0.2,0C45.2,34.8,45.1,35.1,45.1,35.5z"/>
				</g>
				<g>
					<path d="M46.1,25.3l0.2,0c0-0.4,0-0.7,0.1-1l-0.2,0C46.1,24.6,46.1,24.9,46.1,25.3z"/>
				</g>
				<g>
					<path d="M45.7,29.4l0.2,0c0-0.3,0.1-0.7,0.1-1l-0.2,0C45.8,28.7,45.7,29,45.7,29.4z"/>
				</g>
				<g>
					<path d="M45.9,27.3l0.2,0c0-0.4,0.1-0.7,0.1-1l-0.2,0C46,26.6,45.9,27,45.9,27.3z"/>
				</g>
				<g>
					<path d="M46.4,22.2l-0.2,0c0,0.1,0,0.2,0,0.2c0,0.2,0,0.5,0,0.8l0.2,0c0-0.3,0-0.5,0-0.8C46.4,22.4,46.4,22.3,46.4,22.2z"/>
				</g>
				<g>
					<polygon points="45,36.5 44.9,37.5 45.1,37.5 45.2,36.5 					"/>
				</g>
				<g>
					<path d="M40,37.1c0,0.2,0.1,0.3,0.1,0.5l0.2,0c0-0.2-0.1-0.3-0.1-0.5L40,37.1z"/>
				</g>
				<g>
					<path d="M40.3,38.5c0.1,0.3,0.2,0.6,0.3,0.9l0.2-0.1c-0.1-0.3-0.2-0.5-0.3-0.8L40.3,38.5z"/>
				</g>
				<g>
					<path d="M42.4,41.3l-0.1,0.2c0.2,0.1,0.4,0.1,0.5,0.1c0.1,0,0.3,0,0.4-0.1l-0.1-0.2C42.9,41.4,42.6,41.4,42.4,41.3z"/>
				</g>
				<g>
					<path d="M44.5,39.2l0.2,0.1c0.1-0.3,0.2-0.6,0.2-0.9l-0.2,0C44.7,38.7,44.6,39,44.5,39.2z"/>
				</g>
				<g>
					<path d="M43.8,40.8l0.2,0.1c0.2-0.2,0.3-0.5,0.5-0.8l-0.2-0.1C44.1,40.3,44,40.6,43.8,40.8z"/>
				</g>
				<g>
					<path d="M41,40.1c0.2,0.3,0.3,0.5,0.5,0.8l0.1-0.1c-0.2-0.2-0.3-0.4-0.5-0.7L41,40.1z"/>
				</g>
			</g>
		</g>
	</g>
</g>
</svg>
