<?xml version="1.0" encoding="UTF-8" standalone="no"?>
<!-- Created with Inkscape (http://www.inkscape.org/) -->

<svg
   xmlns:dc="http://purl.org/dc/elements/1.1/"
   xmlns:cc="http://creativecommons.org/ns#"
   xmlns:rdf="http://www.w3.org/1999/02/22-rdf-syntax-ns#"
   xmlns:svg="http://www.w3.org/2000/svg"
   xmlns="http://www.w3.org/2000/svg"
   xmlns:inkscape="http://www.inkscape.org/namespaces/inkscape"
   version="1.0"
   width="504"
   height="383"
   viewBox="0 0 504 383"
   id="svg2"
   xml:space="preserve"><metadata
     id="metadata45"><rdf:RDF><cc:Work
         rdf:about=""><dc:format>image/svg+xml</dc:format><dc:type
           rdf:resource="http://purl.org/dc/dcmitype/StillImage" /></cc:Work></rdf:RDF></metadata><defs
     id="defs43" /><g
     id="Layer_1"><g
       id="g3"><path
         d="m 243.459,109.636 0,0 -8.888,4.867 c -3.222,1.765 -9.095,2.265 -12.568,1.07 l -12.287,-4.225 c -5.008,-1.722 -12.059,-0.347 -16.053,3.131 l -5.208,4.536 c -2.725,2.374 -8.229,3.861 -11.78,3.183 l -14.827,-2.832 c -5.338,-1.019 -11.816,1.766 -14.749,6.341 l -2.125,3.315 c -1.878,2.93 -6.573,5.315 -10.047,5.105 l -16.163,-0.979 c -5.591,-0.338 -11.075,3.847 -12.225,9.329 l -0.424,2.024 c -0.667,3.179 -4.096,6.148 -7.338,6.354 l -16.146,1.025 c -2.854,0.182 -5.341,1.473 -7.002,3.635 -1.662,2.162 -2.268,4.897 -1.708,7.702 l 0.399,2.002 c 0.285,1.43 -0.007,2.888 -0.825,4.107 -0.817,1.218 -2.056,2.042 -3.487,2.321 l -14.778,2.872 c -2.881,0.56 -5.108,2.21 -6.111,4.527 -1.003,2.317 -0.681,5.07 0.884,7.554 l 2.067,3.281 c 0.72,1.143 0.914,2.348 0.548,3.395 -0.366,1.045 -1.271,1.867 -2.546,2.311 l -12.215,4.25 c -2.849,0.992 -4.739,2.917 -5.186,5.283 -0.447,2.365 0.611,4.849 2.902,6.811 l 1.973,1.689 c 1.038,0.89 1.596,2.02 1.573,3.183 -0.023,1.162 -0.627,2.271 -1.7,3.115 l -7.237,5.71 c -2.336,1.844 -3.524,4.307 -3.259,6.759 0.265,2.451 1.953,4.604 4.629,5.904 l 5.407,2.627 c 1.222,0.595 2.037,1.531 2.293,2.64 0.256,1.105 -0.063,2.309 -0.898,3.377 l -4.28,5.484 c -1.838,2.354 -2.399,5.021 -1.54,7.314 0.859,2.295 3.033,3.938 5.965,4.508 l 10.12,1.963 c 1.333,0.259 2.36,0.953 2.892,1.955 0.532,1.003 0.531,2.242 -0.001,3.49 l -2.816,6.603 c -1.173,2.75 -1.031,5.47 0.392,7.46 1.422,1.992 3.948,3.01 6.929,2.791 l 12.526,-0.913 c 1.394,-0.103 2.657,0.332 3.558,1.222 0.901,0.889 1.351,2.146 1.268,3.541 l -0.579,9.723 c -0.17,2.861 0.809,5.479 2.759,7.373 1.95,1.893 4.596,2.794 7.452,2.539 l 17.176,-1.533 c 3.061,-0.273 5.848,1.986 6.212,5.037 l 0.812,6.795 c 0.336,2.816 1.755,5.255 3.994,6.861 2.239,1.607 5.002,2.172 7.78,1.59 l 17.473,-3.661 c 3.176,-0.667 6.98,1.272 8.307,4.233 l 3.217,7.184 c 2.319,5.175 8.568,7.887 13.931,6.045 l 16.411,-5.637 c 3.152,-1.082 7.754,0.24 9.855,2.824 l 6.189,7.623 c 3.541,4.362 10.239,5.786 15.249,3.243 l 14.151,-7.185 c 3.035,-1.541 8.027,-1.026 10.684,1.1 l 9.432,7.551 c 4.34,3.477 11.253,3.621 15.735,0.332 l 11.021,-8.086 c 2.754,-2.02 7.798,-2.355 10.795,-0.72 l 12.377,6.76 c 4.904,2.679 11.693,1.542 15.457,-2.588 l 7.494,-8.22 c 2.268,-2.489 7.03,-3.654 10.192,-2.495 l 14.521,5.323 c 5.263,1.93 11.709,-0.514 14.371,-5.446 l 4.16,-7.704 c 1.545,-2.863 5.687,-4.754 8.863,-4.045 l 15.518,3.461 c 2.735,0.61 5.539,0.107 7.893,-1.411 2.354,-1.519 3.965,-3.868 4.534,-6.612 l 1.456,-7.015 c 0.635,-3.057 3.797,-5.391 6.906,-5.095 l 15.185,1.443 c 2.842,0.27 5.531,-0.655 7.384,-2.537 1.851,-1.883 2.729,-4.588 2.413,-7.424 l -0.758,-6.793 c -0.156,-1.412 0.242,-2.752 1.127,-3.771 0.885,-1.021 2.153,-1.607 3.575,-1.65 l 13.493,-0.424 c 2.89,-0.091 5.4,-1.355 6.888,-3.473 1.488,-2.118 1.828,-4.908 0.936,-7.657 l -2.146,-6.603 c -0.434,-1.33 -0.313,-2.668 0.335,-3.765 0.649,-1.096 1.765,-1.843 3.14,-2.104 l 8.104,-1.533 c 2.993,-0.565 5.119,-2.185 5.834,-4.438 0.716,-2.256 -0.091,-4.804 -2.209,-6.99 l -3.492,-3.605 c -0.943,-0.975 -1.389,-2.131 -1.25,-3.254 0.14,-1.124 0.851,-2.139 2.002,-2.854 l 6.708,-4.172 c 2.531,-1.572 3.982,-3.887 3.982,-6.348 0,-2.461 -1.451,-4.773 -3.982,-6.348 l -6.708,-4.172 c -1.151,-0.717 -1.862,-1.729 -2.002,-2.854 -0.139,-1.123 0.307,-2.279 1.25,-3.254 l 3.492,-3.605 c 2.064,-2.131 2.921,-4.735 2.349,-7.146 -0.572,-2.411 -2.509,-4.354 -5.312,-5.329 l -12.214,-4.25 c -1.274,-0.442 -2.179,-1.265 -2.545,-2.312 -0.367,-1.045 -0.172,-2.252 0.547,-3.395 l 2.064,-3.28 c 1.564,-2.483 1.887,-5.237 0.884,-7.554 -1.003,-2.317 -3.23,-3.967 -6.111,-4.527 l -14.778,-2.872 c -1.431,-0.278 -2.669,-1.103 -3.486,-2.321 -0.817,-1.219 -1.11,-2.677 -0.825,-4.107 l 0.399,-2.002 c 0.562,-2.805 -0.046,-5.541 -1.707,-7.703 -1.661,-2.163 -4.148,-3.454 -7.004,-3.635 l -16.144,-1.025 c -3.242,-0.206 -6.672,-3.176 -7.339,-6.355 l -0.425,-2.024 c -1.149,-5.481 -6.635,-9.666 -12.227,-9.328 l -16.162,0.979 c -3.474,0.21 -8.168,-2.175 -10.047,-5.105 l -2.125,-3.315 c -2.933,-4.575 -9.411,-7.36 -14.749,-6.341 l -14.826,2.832 c -3.551,0.678 -9.056,-0.81 -11.78,-3.183 l -5.206,-4.536 C 305.702,111 298.65,109.624 293.642,111.346 l -12.289,4.226 c -3.474,1.194 -9.347,0.694 -12.567,-1.07 l -8.888,-4.867 c -4.613,-2.523 -11.832,-2.523 -16.439,10e-4 z"
         inkscape:connector-curvature="0"
         id="path5"
         style="fill:#ffd4c7" /><g
         id="g7"><path
           d="m 251.676,105.244 c -3.485,0 -6.829,0.781 -9.419,2.2 l -8.887,4.866 c -1.576,0.864 -4.227,1.421 -6.756,1.421 -1.472,0 -2.82,-0.185 -3.798,-0.522 l -12.288,-4.225 c -1.697,-0.582 -3.574,-0.877 -5.583,-0.877 -4.794,0 -9.747,1.72 -12.925,4.488 l -5.208,4.536 c -1.76,1.533 -5.375,2.733 -8.232,2.733 -0.536,0 -1.017,-0.04 -1.43,-0.12 l -14.834,-2.833 c -0.884,-0.168 -1.805,-0.253 -2.741,-0.253 -2.745,0 -5.575,0.71 -8.183,2.053 -2.713,1.397 -4.926,3.35 -6.399,5.648 l -2.124,3.315 c -1.332,2.076 -4.913,3.968 -7.512,3.968 -0.092,0 -0.182,-0.003 -0.268,-0.008 l -0.006,-10e-4 h -0.006 l -16.163,-0.979 c -0.266,-0.016 -0.535,-0.024 -0.799,-0.024 -3.18,0 -6.359,1.146 -8.951,3.228 -2.616,2.1 -4.417,4.979 -5.074,8.107 l -0.423,2.027 c -0.443,2.107 -2.897,4.233 -5.05,4.37 l -16.145,1.025 c -3.532,0.224 -6.749,1.903 -8.826,4.606 -2.077,2.703 -2.871,6.244 -2.178,9.715 l 0.398,2.001 c 0.155,0.775 -0.004,1.564 -0.448,2.226 -0.445,0.663 -1.115,1.11 -1.889,1.261 l -14.778,2.872 c -3.703,0.719 -6.593,2.902 -7.928,5.988 -1.336,3.086 -0.948,6.686 1.062,9.879 l 2.069,3.282 c 0.3,0.476 0.411,0.928 0.303,1.234 -0.108,0.308 -0.476,0.591 -1.009,0.775 l -12.214,4.25 c -3.717,1.295 -6.203,3.91 -6.821,7.181 -0.618,3.269 0.742,6.612 3.732,9.174 l 1.972,1.69 c 0.46,0.393 0.709,0.83 0.701,1.23 -0.009,0.402 -0.274,0.829 -0.749,1.204 l -7.237,5.71 c -3.027,2.389 -4.556,5.666 -4.195,8.991 0.36,3.325 2.555,6.198 6.022,7.883 l 5.406,2.627 c 0.531,0.258 0.869,0.597 0.951,0.954 0.083,0.357 -0.071,0.811 -0.433,1.275 l -4.281,5.484 c -2.385,3.055 -3.081,6.602 -1.911,9.729 1.171,3.13 4.026,5.348 7.832,6.086 l 10.119,1.963 c 0.577,0.111 0.989,0.35 1.16,0.673 0.171,0.321 0.138,0.797 -0.093,1.338 l -2.816,6.603 c -1.468,3.44 -1.295,6.953 0.477,9.637 1.732,2.621 4.771,4.126 8.338,4.126 0.325,0 0.658,-0.013 0.994,-0.038 -10e-4,0 -0.002,0.001 -0.003,0.001 l 12.521,-0.913 c 0.071,-0.005 0.145,-0.008 0.216,-0.008 0.602,0 1.102,0.191 1.446,0.558 0.357,0.38 0.525,0.923 0.487,1.569 l -0.579,9.723 c -0.202,3.399 0.918,6.579 3.156,8.953 2.218,2.354 5.279,3.65 8.621,3.65 0.39,0 0.782,-0.02 1.164,-0.055 -0.004,0 -0.009,0.002 -0.013,0.002 l 17.177,-1.533 c 0.082,-0.008 0.175,-0.012 0.27,-0.012 1.597,0 3.049,1.281 3.237,2.856 l 0.811,6.793 c 0.364,3.047 1.798,5.821 4.038,7.813 2.223,1.976 5.103,3.063 8.108,3.063 0.879,0 1.764,-0.093 2.631,-0.275 l 17.466,-3.66 c 0.238,-0.051 0.492,-0.076 0.754,-0.076 1.914,0 4.045,1.295 4.758,2.887 l 3.218,7.182 c 1.094,2.443 2.909,4.506 5.248,5.961 2.252,1.403 4.826,2.146 7.445,2.146 1.485,0 2.942,-0.241 4.33,-0.718 l 16.412,-5.637 c 0.47,-0.16 1.045,-0.246 1.662,-0.246 2.078,0 4.366,0.961 5.44,2.282 l 6.189,7.623 c 2.749,3.39 7.161,5.411 11.801,5.411 2.313,0 4.567,-0.523 6.52,-1.516 l 14.152,-7.187 c 0.794,-0.401 1.891,-0.625 3.089,-0.625 1.878,0 3.802,0.569 4.902,1.449 l 9.43,7.55 c 2.609,2.09 6.046,3.241 9.679,3.241 3.367,0 6.599,-1.011 9.099,-2.847 l 11.02,-8.084 c 1.076,-0.789 2.865,-1.28 4.67,-1.28 1.33,0 2.59,0.271 3.451,0.739 l 12.373,6.759 c 2.084,1.139 4.527,1.741 7.064,1.741 4.402,0 8.679,-1.811 11.438,-4.838 l 7.493,-8.223 c 1.146,-1.255 3.431,-2.132 5.556,-2.132 0.725,0 1.394,0.104 1.934,0.302 l 14.518,5.322 c 1.484,0.545 3.066,0.823 4.696,0.823 5.3,0 10.299,-2.916 12.735,-7.429 l 4.16,-7.703 c 0.873,-1.619 3.171,-2.887 5.229,-2.887 0.319,0 0.618,0.031 0.891,0.092 l 15.517,3.461 c 0.917,0.207 1.866,0.313 2.813,0.313 2.919,0 5.783,-1.011 8.067,-2.846 2.321,-1.866 3.933,-4.501 4.539,-7.422 l 1.456,-7.016 c 0.352,-1.693 2.146,-3.128 3.921,-3.128 0.099,0 0.2,0.005 0.302,0.015 h -0.001 l 15.186,1.443 c -0.002,0 -0.004,0 -0.006,-10e-4 0.4,0.04 0.813,0.06 1.229,0.06 3.362,0 6.391,-1.315 8.53,-3.707 2.166,-2.42 3.147,-5.645 2.766,-9.076 l -0.758,-6.793 c -0.103,-0.912 0.231,-1.514 0.531,-1.859 0.299,-0.344 0.847,-0.761 1.765,-0.789 l 13.493,-0.423 c 3.682,-0.114 6.91,-1.767 8.854,-4.534 1.945,-2.766 2.406,-6.361 1.269,-9.867 l -2.146,-6.603 c -0.21,-0.646 -0.172,-1.241 0.11,-1.717 0.282,-0.476 0.784,-0.794 1.452,-0.921 l 8.104,-1.533 c 3.924,-0.743 6.75,-2.98 7.752,-6.141 1.002,-3.158 -0.017,-6.617 -2.797,-9.485 l -3.493,-3.604 c -0.405,-0.422 -0.606,-0.851 -0.563,-1.209 0.043,-0.358 0.342,-0.728 0.84,-1.037 l 6.708,-4.172 c 3.281,-2.039 5.163,-5.127 5.163,-8.471 0,-3.343 -1.882,-6.432 -5.163,-8.47 l -6.708,-4.171 c -0.498,-0.312 -0.796,-0.68 -0.84,-1.037 -0.045,-0.359 0.156,-0.788 0.563,-1.209 l 3.493,-3.605 c 2.671,-2.757 3.759,-6.207 2.985,-9.466 -0.774,-3.258 -3.297,-5.851 -6.923,-7.11 l -12.213,-4.25 c -0.532,-0.187 -0.899,-0.47 -1.009,-0.776 -0.106,-0.308 0.003,-0.758 0.305,-1.236 l 2.064,-3.279 c 2.011,-3.193 2.397,-6.794 1.063,-9.88 -1.336,-3.086 -4.228,-5.269 -7.932,-5.988 l -14.775,-2.872 c -0.774,-0.151 -1.444,-0.598 -1.891,-1.261 -0.442,-0.662 -0.603,-1.451 -0.447,-2.224 l 0.398,-2.001 c 0.693,-3.473 -0.101,-7.014 -2.178,-9.717 -2.077,-2.703 -5.294,-4.382 -8.826,-4.606 l -16.144,-1.025 c -2.152,-0.137 -4.607,-2.263 -5.053,-4.374 l -0.423,-2.022 c -0.655,-3.13 -2.459,-6.008 -5.074,-8.108 -2.593,-2.082 -5.771,-3.228 -8.95,-3.228 -0.267,0 -0.534,0.008 -0.8,0.024 l -16.16,0.979 c -0.1,0.006 -0.189,0.009 -0.281,0.009 -2.599,0 -6.179,-1.892 -7.511,-3.969 l -2.125,-3.314 c -1.476,-2.299 -3.688,-4.252 -6.4,-5.648 -2.608,-1.343 -5.438,-2.053 -8.183,-2.053 -0.938,0 -1.858,0.085 -2.737,0.252 l -14.829,2.833 c -0.42,0.081 -0.902,0.121 -1.438,0.121 -2.856,0 -6.474,-1.201 -8.232,-2.734 l -5.207,-4.535 c -3.18,-2.769 -8.132,-4.488 -12.926,-4.488 -2.01,0 -3.889,0.295 -5.58,0.876 l -12.291,4.227 c -0.979,0.336 -2.326,0.521 -3.797,0.521 -2.529,0 -5.184,-0.558 -6.758,-1.42 l -8.887,-4.867 c -2.59,-1.415 -5.935,-2.196 -9.419,-2.196 l 0,0 z m -25.062,13.487 c 3.278,0 6.745,-0.713 9.157,-2.035 l 8.889,-4.867 c 1.929,-1.057 4.472,-1.585 7.016,-1.585 2.543,0 5.088,0.528 7.018,1.585 l 8.888,4.867 c 2.412,1.321 5.881,2.035 9.159,2.035 1.965,0 3.861,-0.256 5.423,-0.793 l 12.289,-4.226 c 1.192,-0.41 2.551,-0.605 3.956,-0.605 3.486,0 7.275,1.198 9.642,3.258 l 5.207,4.536 c 2.748,2.393 7.507,3.963 11.518,3.963 0.833,0 1.632,-0.067 2.376,-0.21 l 14.824,-2.832 c 0.583,-0.111 1.188,-0.164 1.804,-0.164 3.94,0 8.317,2.195 10.374,5.399 l 2.125,3.315 c 2.271,3.542 7.433,6.27 11.72,6.27 0.196,0 0.39,-0.006 0.583,-0.018 l 16.162,-0.979 c 0.165,-0.01 0.331,-0.015 0.496,-0.015 4.217,0 8.262,3.218 9.132,7.361 l 0.424,2.024 c 0.904,4.306 5.236,8.057 9.627,8.337 l 16.145,1.025 c 3.878,0.246 6.581,3.205 6.569,6.864 -0.002,0.486 -0.051,0.983 -0.15,1.489 l -0.4,2.002 c -0.104,0.522 -0.154,1.043 -0.154,1.558 -10e-4,3.729 2.646,7.076 6.441,7.814 l 14.778,2.872 c 2.969,0.577 4.659,2.521 4.666,4.89 0.002,1.077 -0.345,2.242 -1.076,3.405 l -2.066,3.28 c -0.751,1.193 -1.108,2.437 -1.113,3.625 -0.008,2.522 1.581,4.791 4.405,5.774 l 12.213,4.25 c 2.484,0.864 3.803,2.559 3.81,4.456 0.004,1.277 -0.587,2.648 -1.818,3.92 l -3.493,3.604 c -1.327,1.37 -1.975,2.99 -1.979,4.575 -0.004,2.07 1.091,4.08 3.207,5.396 l 6.708,4.172 c 1.868,1.16 2.803,2.691 2.803,4.225 0,1.531 -0.935,3.063 -2.803,4.225 l -6.708,4.172 c -2.116,1.314 -3.211,3.324 -3.207,5.396 0.004,1.585 0.65,3.204 1.979,4.575 l 3.493,3.604 c 1.195,1.234 1.767,2.483 1.761,3.598 -0.008,1.734 -1.421,3.14 -4.055,3.638 l -8.104,1.534 c -3.513,0.664 -5.771,3.492 -5.766,6.771 10e-4,0.758 0.123,1.539 0.378,2.323 l 2.146,6.603 c 0.255,0.785 0.374,1.547 0.372,2.268 -0.013,3.124 -2.322,5.479 -5.896,5.591 l -13.493,0.423 c -4.104,0.129 -7.166,3.354 -7.157,7.34 0.002,0.283 0.018,0.57 0.051,0.86 l 0.758,6.793 c 0.032,0.29 0.048,0.574 0.049,0.854 0.011,3.687 -2.669,6.377 -6.376,6.377 -0.246,0 -0.496,-0.012 -0.75,-0.036 l -15.184,-1.444 c -0.261,-0.023 -0.519,-0.035 -0.774,-0.035 -4.104,0 -7.975,3.059 -8.816,7.111 l -1.456,7.016 c -0.773,3.729 -4.059,6.282 -7.71,6.282 -0.568,0 -1.146,-0.062 -1.726,-0.19 L 369.4,324.73 c -0.644,-0.145 -1.308,-0.213 -1.978,-0.213 -3.811,0 -7.854,2.217 -9.632,5.51 l -4.16,7.705 c -1.604,2.975 -4.981,4.804 -8.335,4.804 -1.01,0 -2.018,-0.166 -2.975,-0.519 l -14.522,-5.322 c -1.124,-0.411 -2.371,-0.606 -3.649,-0.606 -3.429,0 -7.093,1.397 -9.249,3.765 l -7.494,8.222 c -1.893,2.075 -4.85,3.206 -7.744,3.206 -1.645,0 -3.27,-0.365 -4.667,-1.129 l -12.377,-6.762 c -1.666,-0.906 -3.74,-1.35 -5.847,-1.35 -2.776,0 -5.607,0.77 -7.625,2.249 l -11.021,8.085 c -1.71,1.255 -3.923,1.877 -6.141,1.877 -2.384,0 -4.775,-0.719 -6.554,-2.145 L 236,344.556 c -2.076,-1.66 -5.096,-2.545 -8.026,-2.545 -1.92,0 -3.801,0.379 -5.353,1.168 l -14.151,7.186 c -1.3,0.66 -2.771,0.974 -4.257,0.974 -3,0 -6.065,-1.278 -7.919,-3.563 l -6.189,-7.623 c -2.09,-2.573 -5.827,-4.131 -9.322,-4.131 -1.144,0 -2.261,0.166 -3.286,0.519 l -16.411,5.635 c -0.883,0.304 -1.797,0.447 -2.707,0.447 -3.384,0 -6.713,-1.985 -8.13,-5.149 l -3.218,-7.183 c -1.554,-3.468 -5.493,-5.841 -9.313,-5.841 -0.005,0 -0.01,0 -0.015,0 -0.019,0 -0.038,0 -0.056,0 -0.262,0.002 -0.522,0.015 -0.781,0.039 -0.04,0.004 -0.079,0.008 -0.118,0.012 -0.192,0.021 -0.385,0.049 -0.575,0.083 -0.081,0.015 -0.162,0.03 -0.242,0.047 l 0,0 -17.473,3.663 c -0.54,0.114 -1.075,0.168 -1.598,0.168 -3.646,0 -6.725,-2.648 -7.181,-6.47 l -0.811,-6.794 c -0.494,-4.131 -4.106,-7.264 -8.202,-7.264 -0.237,0 -0.476,0.01 -0.715,0.03 l -17.177,1.534 c -0.239,0.021 -0.474,0.031 -0.706,0.031 -3.875,0 -6.797,-2.91 -6.8,-6.823 0,-0.159 0.005,-0.319 0.014,-0.481 l 0.579,-9.724 c 0.01,-0.164 0.015,-0.326 0.014,-0.487 -0.005,-3.955 -2.995,-6.936 -6.938,-6.937 -0.191,0 -0.384,0.007 -0.579,0.021 l -12.526,0.913 c -0.213,0.017 -0.421,0.024 -0.623,0.024 -2.992,0 -4.803,-1.676 -4.809,-4.151 -0.002,-0.808 0.188,-1.7 0.593,-2.647 l 2.816,-6.604 c 0.405,-0.947 0.598,-1.895 0.601,-2.797 0.011,-2.95 -2.008,-5.443 -5.315,-6.085 l -10.119,-1.962 c -2.801,-0.543 -4.34,-2.216 -4.338,-4.271 0.001,-1.113 0.455,-2.341 1.407,-3.56 l 4.28,-5.485 c 1.026,-1.313 1.516,-2.764 1.514,-4.162 -0.003,-2.291 -1.329,-4.445 -3.788,-5.641 l -5.407,-2.628 c -2.148,-1.044 -3.252,-2.642 -3.259,-4.321 -0.006,-1.412 0.765,-2.884 2.344,-4.13 l 7.237,-5.71 c 1.768,-1.395 2.655,-3.271 2.652,-5.156 -0.003,-1.8 -0.816,-3.604 -2.448,-5.002 l -1.972,-1.688 c -1.436,-1.229 -2.132,-2.583 -2.13,-3.841 0.004,-1.668 1.238,-3.17 3.608,-3.993 l 12.215,-4.25 c 2.825,-0.983 4.414,-3.252 4.405,-5.774 -0.003,-1.188 -0.362,-2.433 -1.113,-3.625 l -2.068,-3.281 c -0.733,-1.164 -1.079,-2.328 -1.077,-3.404 0.005,-2.369 1.696,-4.313 4.666,-4.89 l 14.778,-2.872 c 3.797,-0.738 6.442,-4.085 6.442,-7.814 0,-0.514 -0.05,-1.035 -0.155,-1.558 l -0.399,-2.002 c -0.101,-0.506 -0.15,-1.003 -0.152,-1.489 -0.012,-3.659 2.693,-6.618 6.57,-6.864 l 16.146,-1.025 c 4.391,-0.28 8.722,-4.031 9.626,-8.337 l 0.423,-2.024 c 0.869,-4.143 4.914,-7.361 9.131,-7.361 0.165,0 0.331,0.005 0.497,0.015 l 16.163,0.979 c 0.191,0.012 0.386,0.018 0.582,0.018 4.288,0 9.449,-2.727 11.721,-6.27 l 2.125,-3.315 c 2.053,-3.204 6.431,-5.399 10.372,-5.399 0.615,0 1.219,0.053 1.803,0.164 l 14.827,2.832 c 0.743,0.143 1.543,0.21 2.375,0.21 4.009,0 8.768,-1.569 11.516,-3.963 l 5.208,-4.536 c 2.365,-2.06 6.153,-3.258 9.641,-3.258 1.405,0 2.762,0.195 3.957,0.605 l 12.287,4.225 c 1.561,0.536 3.46,0.793 5.426,0.793 l 0,0 z"
           inkscape:connector-curvature="0"
           id="path9"
           style="fill:#ff622b" /></g></g><path
       d="m 403.635,143.308 c -37.271,-22.215 -91.278,-36.186 -151.372,-36.186 -60.094,0 -114.1,13.971 -151.373,36.186 H 48.63 v 73.083 c 0,58.609 77.883,90.947 77.883,90.947 l 134.46,-79.838 137.373,70.174 c 0,0 57.549,-49.009 57.549,-81.283 v -73.083 h -52.26 z"
       inkscape:connector-curvature="0"
       id="path11"
       style="fill:#db8323;stroke:#ffb56c;stroke-width:5" /><polygon
       points="128.333,215.666 261,136 261,225 127.333,304 "
       id="polygon13"
       style="opacity:0.1" /><path
       d="m 463.844,144.651 c 0.194,18.485 0.602,52.115 -2,61.332 -3.802,13.479 -11.436,-1.838 -14.13,0.088 -4.537,3.246 -7.22,16.677 -11.946,25.396 -9.667,17.831 -1.044,-7.401 -14.523,-0.331 0.646,5.352 -7.656,16.887 -14.656,21.014 -3.545,2.09 -8.243,-1.066 -8.243,-1.066 L 398,205.5 260.973,134.456 l -133.938,80.077 -0.522,77.449 c 0,0 -3.43,2.629 -6.662,-0.604 -3.365,-3.363 -5.599,-34.378 -5.599,-45.88 0,-7.712 1.271,19.687 -9.272,15.519 -5.75,-2.274 -8.795,-21.466 -11.23,-26.949 -6.369,0.783 -6.018,7.611 -10.574,12.011 -9.984,-6.916 -13.348,-29.134 -18.779,-39.312 -6.26,1.735 -13.401,7.688 -18.717,5.926 -7.236,-2.397 -4.5,-19.942 -4.5,-40.042 0,-29.334 5.834,-64.168 31.5,-89.834 25.667,-25.666 92.99,-55.5 160.5,-55.5 140.936,0 229.997,54 230.664,117.334 z"
       inkscape:connector-curvature="0"
       id="path15"
       style="fill:#f2ce33;stroke:#ffeda3;stroke-width:3" /><defs
       id="defs12"><filter
         filterUnits="userSpaceOnUse"
         x="59.769001"
         y="38.987999"
         width="383.40799"
         height="169.679"
         color-interpolation-filters="sRGB"
         id="Adobe_OpacityMaskFilter"><feColorMatrix
           id="feColorMatrix15"
           values="1 0 0 0 0  0 1 0 0 0  0 0 1 0 0  0 0 0 1 0"
           type="matrix" /></filter></defs><mask
       id="XMLID_3_"><g
         id="g23"
         style="filter:url(#Adobe_OpacityMaskFilter)"><linearGradient
           x1="158.78999"
           y1="-9.4629002"
           x2="158.78999"
           y2="300.93231"
           id="rect30_1_"
           gradientUnits="userSpaceOnUse"
           gradientTransform="matrix(1,0,0,-1,94,286)"><stop
             id="stop20"
             style="stop-color:#ffffff;stop-opacity:1"
             offset="0" /><stop
             id="stop22"
             style="stop-color:#000000;stop-opacity:1"
             offset="1" /></linearGradient><rect
           width="467.95099"
           height="253.23199"
           x="18.815001"
           y="10.884"
           id="rect30"
           style="fill:url(#rect30_1_)" /></g></mask><path
       d="m 443.177,135.724 c 0,51.276 -44.415,62.928 -44.415,62.928 l -137.789,-70.195 -135.072,80.21 c 0,0 -66.132,-9.166 -66.132,-72.942 0,-53.426 85.829,-96.737 191.704,-96.737 105.875,0 191.704,43.31 191.704,96.736 z"
       inkscape:connector-curvature="0"
       mask="url(#XMLID_3_)"
       id="path32"
       style="fill:#ffffff" /><path
       d="m 290.846,71.317 c 0.564,14.716 33.998,2.666 68.665,20 34.667,17.333 39.334,31.333 49.334,25.333 10,-6 -17.334,-31.833 -45.334,-43.833 -28,-12 -73.333,-18.834 -72.665,-1.5 z"
       inkscape:connector-curvature="0"
       id="path34"
       style="fill:#ffffff" /><path
       d="m 132.434,241.823 c 1.435,-2.097 4.865,-4.234 7.204,-5.828 1.945,-1.326 3.294,-2.938 5.126,-4.397 1.84,-1.469 3.66,-2 5.727,-2.771 2.093,-0.781 3.97,-2.632 5.969,-3.798 2.106,-1.228 15.153,-8.098 15.894,-10.584 0.314,-1.057 -0.749,-2.618 0.306,-3.444 0.483,-0.379 2.775,-0.526 3.503,-0.802 5.094,-1.916 15.149,-12.686 19.75,-15.764 4.894,-3.271 9.489,-7.148 14.708,-9.917 3.086,-1.637 6.846,-2.261 10.034,-3.646 2.945,-1.281 5.767,-3.104 8.757,-4.397 6.416,-2.773 13.077,-5.192 18.648,-9.639 1.721,-1.373 2.914,-2.63 4.991,-3.508 1.891,-0.799 6.471,-3.481 8.465,-2.661 0.711,0.293 1.436,1.871 2.021,2.382 1.221,1.064 2.103,1.247 3.681,1.507 2.428,0.399 5.936,0.81 7.96,2.493 1.239,1.031 2.616,2.653 3.837,3.892 1.83,1.86 4.045,3.045 6.389,4.35 2.488,1.386 5.063,2.846 7.617,4.073 2.572,1.238 4.226,2.89 6.625,4.401 2.166,1.363 3.637,3.062 6.129,3.983 2.896,1.07 6.323,0.55 9.397,1.209 5.298,1.136 9.108,3.935 13.813,6.377 2.6,1.351 5.398,1.159 8.057,2.015 1.048,0.338 1.983,1.045 3.018,1.428 1.429,0.527 6.578,3.02 7.961,3.613 1.084,0.465 1.974,1.467 3.162,1.836 1.062,0.33 2.361,0.131 3.507,0.586 2.709,1.082 7.134,3.215 10.075,3.662 2.067,0.314 3.278,1.248 5.178,2.121 3.036,1.398 6.051,1.946 8.973,3.471 1.526,0.798 3.21,1.994 4.257,3.271 0.798,0.975 0.793,1.732 1.902,2.573 2.357,1.784 5.85,1.663 5.106,5.683 -2.596,0.176 -7.613,-1.182 -10.133,-2.14 -1.271,-0.483 -1.447,-1.16 -2.506,-1.815 -1.254,-0.774 -2.556,-0.742 -3.931,-1.002 -5.416,-1.023 -10.859,-5.703 -15.182,-8.672 -1.865,-1.279 -4.964,-1.779 -7.108,-2.302 -3.103,-0.752 -9.832,-3.517 -13.06,-4.584 -2.423,-0.802 -5.188,-1.712 -7.484,-2.779 -3.289,-1.528 -6.34,-3.998 -9.737,-5.389 -2.392,-0.978 -4.58,-1.236 -6.717,-2.651 -2.56,-1.689 -4.762,-4.651 -7.919,-4.94 -2.16,-0.197 -4.463,0.536 -6.598,0.11 -3.212,-0.641 -4.379,-2.466 -5.783,-5.102 -1.306,-2.447 -1.465,-2.874 -4.424,-3.004 -3.482,-0.152 -7.105,-1.338 -10.479,-2.218 -2.796,-0.729 -4.749,-1.285 -7.192,-2.688 -2.263,-1.298 -4.853,-1.422 -7.081,-2.916 -2.109,-1.413 -2.92,-1.398 -5.543,-1.343 -2.293,0.049 -3.781,1.009 -5.926,1.793 -2.671,0.975 -5.155,1.741 -7.943,2.098 -3.31,0.425 -5.215,2.104 -7.789,4.221 -2.332,1.917 -4.194,4.236 -6.976,5.337 -3.165,1.252 -5.498,2.786 -8.358,4.711 -3.172,2.134 -5.395,5.129 -8.306,7.51 -1.977,1.618 -4.558,2.653 -6.873,3.687 -2.461,1.096 -4.443,2.096 -6.95,2.791 -2.615,0.725 -4.545,2.486 -6.899,3.635 -1.024,0.498 -7.994,5.162 -8.951,5.884 -0.986,0.745 -1.852,2.276 -2.435,3.315 -1.727,3.074 -3.432,5.166 -6.398,7.221 -1.512,1.049 -11.844,6.533 -13.358,7.476 -1.082,0.673 -1.832,1.894 -2.88,2.624 -2.688,1.87 -5.538,3.327 -8.376,4.959 -2.923,1.68 -5.749,3.542 -8.865,4.788 -1.781,0.712 -4.645,2.312 -6.351,2.454 -0.838,-2.188 -2.224,-3.98 -2.778,-6.35"
       inkscape:connector-curvature="0"
       id="path36"
       style="opacity:0.5;fill:#ffffff" /><path
       d="m 389.668,253.48 c -1.628,-1.93 -5.211,-3.688 -7.668,-5.021 -2.043,-1.108 -3.535,-2.567 -5.483,-3.821 -1.956,-1.264 -3.79,-1.599 -5.893,-2.143 -2.129,-0.553 -4.163,-2.189 -6.242,-3.137 -2.188,-0.992 -13.334,-6.363 -14.326,-8.758 -0.421,-1.015 0.449,-2.683 -0.672,-3.392 -0.513,-0.323 -2.768,-0.228 -3.508,-0.42 -5.184,-1.358 -14.28,-8.714 -19.107,-11.279 -5.136,-2.728 -10.043,-6.089 -15.439,-8.28 -3.192,-1.297 -6.931,-1.515 -10.195,-2.549 -3.017,-0.959 -5.97,-2.469 -9.03,-3.434 -6.566,-2.07 -13.336,-3.76 -19.26,-7.582 -1.83,-1.182 -3.13,-2.303 -5.255,-2.952 -1.935,-0.592 -6.696,-2.769 -8.555,-1.738 -0.664,0.368 -1.201,2.014 -1.718,2.585 -1.075,1.188 -1.918,1.466 -3.432,1.893 -2.328,0.657 -5.71,1.44 -7.506,3.332 -1.1,1.157 -2.269,2.918 -3.326,4.28 -1.588,2.045 -3.624,3.461 -5.771,5.01 -2.28,1.645 -4.638,3.371 -6.999,4.865 -2.38,1.507 -3.816,3.324 -5.997,5.086 -1.967,1.587 -3.221,3.433 -5.556,4.617 -2.713,1.373 -6.119,1.225 -9.05,2.209 -5.052,1.696 -14.472,8.888 -18.802,11.82 -2.394,1.621 -5.148,1.73 -7.651,2.866 -0.987,0.448 -1.826,1.251 -2.794,1.743 -1.337,0.677 -2.951,0.846 -4.237,1.584 -1.008,0.58 -1.769,1.67 -2.891,2.164 -1,0.441 -11.293,6.384 -12.361,6.96 -2.529,1.364 -4.776,2.751 -7.602,3.512 -1.985,0.535 -3.068,1.593 -4.828,2.664 -2.816,1.716 -5.7,2.585 -8.39,4.413 -1.404,0.956 -2.92,2.324 -3.804,3.707 -0.674,1.055 -0.587,1.811 -1.58,2.762 -2.111,2.027 -5.535,2.282 -4.374,6.198 2.553,-0.104 7.31,-1.992 9.666,-3.214 1.188,-0.617 1.289,-1.309 2.252,-2.073 1.141,-0.905 2.416,-1.015 3.731,-1.418 5.181,-1.599 8.145,-5.627 12.046,-9.041 1.684,-1.474 13.656,-8.302 15.696,-9.05 2.949,-1.08 6.075,-1.688 9.112,-3.098 2.28,-1.057 4.882,-2.258 7.011,-3.564 3.048,-1.872 11.76,-8.654 14.93,-10.4 2.229,-1.229 4.339,-1.722 6.274,-3.356 2.317,-1.954 4.147,-5.134 7.2,-5.761 2.09,-0.428 4.419,0.055 6.458,-0.599 3.067,-0.979 4.009,-2.921 5.097,-5.69 1.011,-2.573 1.121,-3.016 3.998,-3.461 3.385,-0.524 6.796,-2.092 9.995,-3.33 2.651,-1.022 4.5,-1.785 6.734,-3.44 2.07,-1.533 4.587,-1.935 6.604,-3.659 1.907,-1.631 2.7,-1.703 5.269,-1.93 2.244,-0.196 3.803,0.599 5.981,1.146 2.715,0.684 5.224,1.18 7.985,1.234 3.281,0.066 5.322,1.533 8.066,3.359 2.484,1.656 4.555,3.763 7.391,4.558 3.229,0.906 5.673,2.181 8.675,3.787 3.329,1.782 5.825,4.521 8.926,6.575 2.105,1.396 4.738,2.15 7.113,2.927 2.521,0.826 4.565,1.608 7.091,2.028 2.632,0.439 4.708,1.986 7.131,2.875 1.055,0.386 1.478,0 2.489,0.615 1.045,0.635 2.057,2.065 2.737,3.035 2.021,2.871 8.91,6.768 12.03,8.492 1.591,0.88 3.434,1.164 5.015,1.939 1.128,0.553 8.492,5.686 9.597,6.3 2.827,1.569 5.77,2.714 8.719,4.03 3.037,1.355 5.998,2.904 9.177,3.81 1.816,0.519 4.788,1.8 6.47,1.76 0.583,-2.264 1.742,-4.196 2.027,-6.61"
       inkscape:connector-curvature="0"
       id="path38"
       style="opacity:0.5;fill:#ffffff" /><g
       id="g42"><path
         d="m 121.15,140.877 v -20.15 h -0.065 l -4.94,2.275 -0.91,-4.485 6.76,-2.99 h 5.395 v 25.351 l -6.24,-10e-4 0,0 z m 1.82,18.005 24.245,-43.681 h 4.615 l -24.31,43.681 h -4.55 z m 29.9,-0.715 v -6.24 H 140 v -3.38 l 11.765,-15.99 h 6.89 v 15.275 h 3.64 v 4.095 h -3.64 v 6.24 h -5.785 z m 0,-16.38 c 0,-1.625 0.13,-3.12 0.195,-4.551 h -0.13 c -0.845,1.495 -1.495,2.796 -2.275,3.966 l -4.81,6.564 0.13,0.065 h 6.89 v -6.044 l 0,0 z"
         inkscape:connector-curvature="0"
         id="path44"
         style="fill:#db8323" /></g><path
       d="m 268.604,240.102 c -2.404,-0.275 -5.373,-1.412 -6.896,0.603 -0.149,0.196 -1.489,5.966 -1.487,6.399 0.002,1.348 0.153,1.818 1.022,2.982 1.071,1.434 1.455,0.672 2.36,1.518 0.945,0.883 1.114,0.655 2.121,2.025 0.603,0.82 0.489,2.428 0.455,3.387 2.492,1.01 5.699,0.678 8.35,0.512 0.145,-5.358 2.685,-8.282 1.488,-13.838 -1.451,-0.268 -2.535,-1.14 -3,-2.5 -1.443,-0.104 -2.938,-0.068 -4.414,-0.088"
       inkscape:connector-curvature="0"
       id="path50"
       style="fill:#db8323" /><path
       d="m 279,254.5 c -3.001,0.504 -1.869,6.636 2.037,4.686 0.068,0.364 0.01,0.869 0.05,1.254 2.388,-0.438 2.063,-3.785 1.838,-5.863 -0.755,0.125 -1.72,-0.559 -1.925,-0.575"
       inkscape:connector-curvature="0"
       id="path52"
       style="fill:#db8323" /><path
       d="m 309,261.5 c -1.174,-0.491 -2.186,-0.419 -3.426,0.074 -0.251,0.85 -0.25,2.501 10e-4,3.351 0.542,-0.063 1.307,0.21 1.85,0.15 -0.104,0.495 -0.138,2.69 0.675,2.821 2.354,0.377 0.976,-0.961 1.898,-1.898 -0.219,0.223 1.521,-2.9 1.502,-2.861 0.369,-0.729 1.909,-1.414 2.448,-2.012 -1.201,-0.648 -2.562,-0.854 -3.948,-0.625"
       inkscape:connector-curvature="0"
       id="path54"
       style="fill:#db8323" /><line
       id="line2211"
       opacity="0.99"
       fill="none"
       stroke="#DB8323"
       stroke-width="6.5"
       stroke-linecap="round"
       stroke-linejoin="round"
       stroke-dasharray="13,13"
       enable-background="new    "
       x1="251.92799"
       y1="128.74001"
       x2="124.916"
       y2="61.916"
       style="opacity:0.98999999;fill:none;stroke:#db8323;stroke-width:6.5;stroke-linecap:round;stroke-linejoin:round;stroke-dasharray:13, 13" /><g
       transform="translate(119.235,-68.0415)"
       id="g2213"><path
         d="m 122.647,144.553 v -18.437 h -0.059 l -4.52,2.082 -0.833,-4.104 6.185,-2.736 h 4.937 v 23.196 l -5.71,-0.001 0,0 z m 1.666,16.474 22.184,-39.968 h 4.223 l -22.243,39.968 h -4.164 z m 27.358,-0.653 v -5.709 h -11.776 v -3.093 l 10.765,-14.63 h 6.306 v 13.977 h 3.329 v 3.747 h -3.329 v 5.709 h -5.295 z m 0,-14.988 c 0,-1.487 0.118,-2.855 0.178,-4.165 h -0.118 c -0.773,1.368 -1.368,2.558 -2.082,3.629 l -4.401,6.006 0.119,0.06 h 6.305 v -5.53 l -0.001,0 z"
         inkscape:connector-curvature="0"
         id="path2215"
         style="fill:#db8323" /></g><g
       transform="translate(239.84447,-9.6302578)"
       id="g2217"><path
         d="m 121.15,140.877 v -20.15 h -0.064 l -4.94,2.275 -0.91,-4.485 6.761,-2.99 h 5.395 v 25.351 l -6.242,-10e-4 0,0 z m 1.82,18.005 24.245,-43.681 h 4.615 l -24.311,43.681 h -4.549 z m 29.9,-0.715 v -6.24 H 140 v -3.38 l 11.765,-15.99 h 6.89 v 15.275 h 3.641 v 4.095 h -3.641 v 6.24 h -5.785 z m 0,-16.38 c 0,-1.625 0.13,-3.12 0.194,-4.551 h -0.13 c -0.845,1.495 -1.495,2.796 -2.274,3.966 l -4.811,6.564 0.13,0.065 h 6.891 v -6.044 l 0,0 z"
         inkscape:connector-curvature="0"
         id="path2219"
         style="fill:#db8323" /></g><line
       id="line4257"
       opacity="0.99"
       fill="none"
       stroke="#DB8323"
       stroke-width="5.9919"
       stroke-linecap="round"
       stroke-linejoin="round"
       stroke-dasharray="11.9838,11.9838"
       enable-background="new    "
       x1="268.83099"
       y1="128.188"
       x2="380.42899"
       y2="62.070999"
       style="opacity:0.98999999;fill:none;stroke:#db8323;stroke-width:5.99189997;stroke-linecap:round;stroke-linejoin:round;stroke-dasharray:11.9838, 11.9838" /></g><g
     id="Layer_2"
     style="display:none" /></svg>