<?xml version="1.0" encoding="utf-8"?>
<!-- Generator: Adobe Illustrator 16.0.3, SVG Export Plug-In . SVG Version: 6.00 Build 0)  -->
<!DOCTYPE svg PUBLIC "-//W3C//DTD SVG 1.1//EN" "http://www.w3.org/Graphics/SVG/1.1/DTD/svg11.dtd">
<svg version="1.1" id="Warstwa_1" xmlns="http://www.w3.org/2000/svg" xmlns:xlink="http://www.w3.org/1999/xlink" x="0px" y="0px"
	 width="650px" height="300px" viewBox="0 0 650 300" enable-background="new 0 0 650 300" xml:space="preserve">
<polyline fill="#3DAD24" points="0,300 0,0 650,0 650,300 "/>
<g id="XMLID_16_">
	<path id="XMLID_1355_" fill="#47CBD7" d="M395.696,254.838v-9.414c0-38.613-31.591-70.205-70.205-70.205l0,0
		c-38.611,0-70.204,31.592-70.204,70.205v9.414H395.696z"/>
	<g id="XMLID_33_">
		<path fill="#414042" d="M397.487,254.838h-3.58v-9.414c0-22.679-11.303-43.871-30.236-56.691l2.007-2.963
			c19.917,13.485,31.81,35.786,31.81,59.654V254.838z"/>
	</g>
	<g id="XMLID_32_">
		<path fill="#414042" d="M257.078,254.838h-3.579v-9.414c0-22.755,11.032-44.449,29.511-58.032l2.121,2.885
			c-17.566,12.911-28.053,33.527-28.053,55.147V254.838z"/>
	</g>
	<g id="XMLID_1368_">
		<rect x="289.882" y="229.666" fill="#414042" width="3.579" height="25.172"/>
	</g>
	<g id="XMLID_1367_">
		<rect x="361.522" y="229.666" fill="#414042" width="3.58" height="25.172"/>
	</g>
	<path id="XMLID_30_" fill="#FFFFFF" d="M278.291,150.41h-2.59c-3.288,0-5.948-2.669-5.948-5.952v-9.43
		c0-3.289,2.66-5.954,5.948-5.954h2.59V150.41z"/>
	<path id="XMLID_25_" fill="#FFFFFF" d="M367.901,150.41h2.588c3.292,0,5.952-2.669,5.952-5.952v-9.43
		c0-3.289-2.66-5.954-5.952-5.954h-2.588V150.41z"/>
	<g id="XMLID_24_">
		<path fill="#414042" d="M280.081,152.2h-4.38c-4.267,0-7.737-3.475-7.737-7.743v-9.43c0-4.27,3.471-7.743,7.737-7.743h4.38V152.2z
			 M275.7,130.863c-2.293,0-4.158,1.867-4.158,4.164v9.43c0,2.295,1.865,4.163,4.158,4.163h0.802v-17.757H275.7z"/>
	</g>
	<g id="XMLID_23_">
		<path fill="#414042" d="M370.489,152.2h-4.377v-24.916h4.377c4.27,0,7.743,3.474,7.743,7.743v9.43
			C378.232,148.725,374.759,152.2,370.489,152.2z M369.692,148.621h0.797c2.295,0,4.163-1.868,4.163-4.163v-9.43
			c0-2.297-1.868-4.164-4.163-4.164h-0.797V148.621z"/>
	</g>
	<path id="XMLID_22_" fill="#FFFFFF" d="M276.178,111.083V151.2c0,26.117,21.173,47.29,47.287,47.29l0,0
		c26.118,0,47.282-21.173,47.282-47.29v-37.77c-5.55-33.047-35.478-42.789-50.162-42.38
		C307.106,71.427,280.911,85.326,276.178,111.083z"/>
	<path id="XMLID_21_" fill="#F5AB35" d="M370.747,125.487c0,0-49.048-54.417-63.641-32.698
		c-13.421,19.973-30.928,33.841-30.928,33.841s-8-48.714,45.384-55.685C321.562,70.945,371.584,69.469,370.747,125.487z"/>
	<g id="XMLID_20_">
		<path fill="#414042" d="M277.077,128.176l-1.8-3.092c0.192-0.112,19.34-11.461,30.23-33.1l0.599-1.189l1.311,0.23
			c1.989,0.352,48.896,8.876,64.833,33.49l-3.004,1.946c-13.687-21.136-53.48-30.104-61.163-31.661
			C296.628,116.625,277.885,127.707,277.077,128.176z"/>
	</g>
	<g id="XMLID_19_">
		<path fill="#414042" d="M323.465,199.941c-27.062,0-49.077-22.014-49.077-49.071v-32.642c0-27.058,22.015-49.073,49.077-49.073
			c27.059,0,49.072,22.015,49.072,49.073v32.642C372.537,177.928,350.523,199.941,323.465,199.941z M323.465,72.735
			c-25.088,0-45.498,20.409-45.498,45.493v32.642c0,25.084,20.41,45.492,45.498,45.492c25.085,0,45.493-20.408,45.493-45.492
			v-32.642C368.958,93.144,348.55,72.735,323.465,72.735z"/>
	</g>
	<path id="XMLID_18_" fill="#F5AB35" d="M368.287,59.668c0,0-33.439,33.258-62.919,18.752c0,0-7.1,28.154,33.002,25.462
		C338.37,103.883,379.674,102.722,368.287,59.668z"/>
	<g id="XMLID_17_">
		<path fill="#414042" d="M333.068,105.859c-21.099,0-27.723-9.429-29.465-17.695l3.502-0.738
			c2.278,10.815,13.047,15.89,31.144,14.671c0.234-0.008,16.787-0.634,25.231-11.951c4.974-6.665,6.243-15.768,3.781-27.088
			c-4.257,3.779-14.051,11.711-26.23,16.642l-1.343-3.318c15.428-6.246,27.217-17.865,27.335-17.982l2.198-2.187l0.792,2.998
			c3.654,13.809,2.416,24.945-3.681,33.097c-9.499,12.703-27.166,13.342-27.913,13.363
			C336.542,105.798,334.757,105.859,333.068,105.859z"/>
	</g>
</g>
<g id="XMLID_569_">
	<path fill="#414042" d="M326.404,178.158c-9.076,0-17.609-3.536-24.028-9.954c-2.744-2.744-4.979-5.902-6.646-9.389l3.229-1.542
		c1.491,3.118,3.491,5.944,5.947,8.4c5.742,5.741,13.377,8.904,21.497,8.904c8.119,0,15.754-3.163,21.495-8.904l2.53,2.53
		C344.014,174.622,335.48,178.158,326.404,178.158z"/>
</g>
<g id="XMLID_566_">
	<g id="XMLID_568_">
		<path fill="#414042" d="M308.016,138.269c-2.6,0-5.042-1.013-6.879-2.851c-1.836-1.836-2.847-4.278-2.847-6.877h3.579
			c0,1.643,0.64,3.186,1.8,4.347c2.321,2.322,6.371,2.325,8.693,0c1.161-1.161,1.8-2.705,1.8-4.347h3.579
			c0,2.597-1.012,5.039-2.848,6.877C313.056,137.256,310.613,138.269,308.016,138.269z"/>
	</g>
	<g id="XMLID_567_">
		<path fill="#414042" d="M339.026,138.269c-2.597,0-5.04-1.013-6.878-2.851c-1.838-1.838-2.848-4.28-2.848-6.877h3.578
			c0,1.642,0.64,3.186,1.802,4.347c2.322,2.325,6.374,2.322,8.69,0c1.162-1.161,1.803-2.704,1.803-4.347h3.577
			c0,2.599-1.01,5.041-2.847,6.877C344.067,137.256,341.625,138.269,339.026,138.269z"/>
	</g>
</g>
<g>
	<rect x="83.134" y="255.768" fill="#283A27" width="7.622" height="2.522"/>
</g>
<g>
	<rect x="63.511" y="255.768" fill="#283A27" width="13.406" height="2.522"/>
</g>
<g>
	<rect x="552.755" y="255.768" fill="#283A27" width="12.923" height="2.522"/>
</g>
<g>
	<rect x="571.453" y="255.768" fill="#283A27" width="22.314" height="2.522"/>
</g>
<g>
	<rect x="94.209" y="255.604" fill="#283A27" width="455.057" height="2.519"/>
</g>
<g opacity="0.3">
	<g>
		<g id="XMLID_114_">
			<g id="XMLID_177_">
				<rect x="507.01" y="83.772" fill="#283A27" width="6.959" height="2.521"/>
			</g>
			<g id="XMLID_176_">
				<rect x="509.24" y="81.519" fill="#283A27" width="2.495" height="7.03"/>
			</g>
		</g>
		<g>
			<path fill="#283A27" d="M496.084,100.847h4.991v-2.519h-3.743v-4.26h-2.495v5.042h1.247V100.847z M506.063,100.847h4.989v-2.519
				h-4.989V100.847z M516.041,100.847h4.99v-2.519h-4.989L516.041,100.847L516.041,100.847z M523.645,98.442h2.494v-5.041h-2.494
				V98.442z M494.837,89.027h2.495v-5.041h-2.495V89.027z M523.645,88.359h2.494V83.32h-2.494V88.359z M494.837,78.941h2.495v-5.042
				h-2.495V78.941z M523.645,78.279h2.494v-5.043h-2.494V78.279z M497.685,71.738h4.989v-2.521h-4.989V71.738z M507.664,71.738
				h4.989v-2.521h-4.989V71.738z M517.644,71.738h4.989v-2.521h-4.989V71.738L517.644,71.738z"/>
		</g>
	</g>
	<g>
		<g id="XMLID_1_">
			<g id="XMLID_3_">
				<rect x="112.891" y="166.33" fill="#283A27" width="4.252" height="1.541"/>
			</g>
			<g id="XMLID_2_">
				<rect x="114.254" y="164.953" fill="#283A27" width="1.525" height="4.296"/>
			</g>
		</g>
		<g>
			<path fill="#283A27" d="M106.214,176.765h3.048v-1.539h-2.286v-2.605h-1.525v3.084h0.763V176.765z M112.313,176.765h3.048v-1.539
				h-3.048V176.765z M118.411,176.765h3.048v-1.539h-3.048V176.765z M123.058,175.297h1.524v-3.081h-1.524V175.297z
				 M105.452,169.541h1.525v-3.082h-1.525V169.541z M123.058,169.134h1.524v-3.081h-1.524V169.134z M105.452,163.38h1.525v-3.083
				h-1.525V163.38z M123.058,162.971h1.524v-3.079h-1.524V162.971z M107.192,158.978h3.048v-1.542h-3.048V158.978z M113.291,158.978
				h3.047v-1.542h-3.047V158.978z M119.391,158.978h3.049v-1.542h-3.049V158.978z"/>
		</g>
	</g>
	<g id="XMLID_957_">
		<g id="XMLID_961_">
			
				<rect x="229.075" y="79.447" transform="matrix(-0.707 -0.7072 0.7072 -0.707 336.5922 300.8592)" fill="#283A27" width="3.082" height="2.521"/>
		</g>
		<g id="XMLID_960_">
			
				<rect x="223.422" y="73.816" transform="matrix(-0.7072 -0.707 0.707 -0.7072 330.9739 287.2255)" fill="#283A27" width="3.083" height="2.521"/>
		</g>
		<g id="XMLID_959_">
			
				<rect x="223.681" y="79.19" transform="matrix(-0.7072 -0.707 0.707 -0.7072 326.91 296.8782)" fill="#283A27" width="2.495" height="3.115"/>
		</g>
		<g id="XMLID_958_">
			
				<rect x="229.389" y="73.489" transform="matrix(-0.7068 -0.7074 0.7074 -0.7068 340.5659 291.244)" fill="#283A27" width="2.495" height="3.115"/>
		</g>
	</g>
	<g id="XMLID_155_">
		<g id="XMLID_180_">
			
				<rect x="196.841" y="89.413" transform="matrix(-0.7072 -0.707 0.707 -0.7072 274.5672 295.0586)" fill="#283A27" width="3.083" height="2.521"/>
		</g>
		<g id="XMLID_179_">
			
				<rect x="191.192" y="83.772" transform="matrix(-0.7069 -0.7073 0.7073 -0.7069 268.8464 281.4586)" fill="#283A27" width="3.083" height="2.52"/>
		</g>
		<g id="XMLID_178_">
			
				<rect x="191.47" y="89.143" transform="matrix(-0.707 -0.7072 0.7072 -0.707 264.827 291.1178)" fill="#283A27" width="2.495" height="3.115"/>
		</g>
		<g id="XMLID_156_">
			
				<rect x="197.163" y="83.442" transform="matrix(-0.7072 -0.707 0.707 -0.7072 278.6307 285.3895)" fill="#283A27" width="2.495" height="3.115"/>
		</g>
	</g>
	<g id="XMLID_143_">
		<g id="XMLID_237_">
			
				<rect x="138.198" y="85.754" transform="matrix(-0.7075 -0.7067 0.7067 -0.7075 177.267 247.4024)" fill="#283A27" width="3.273" height="2.522"/>
		</g>
		<g id="XMLID_236_">
			
				<rect x="132.194" y="79.771" transform="matrix(-0.707 -0.7073 0.7073 -0.707 171.1331 232.9698)" fill="#283A27" width="3.273" height="2.521"/>
		</g>
		<g id="XMLID_234_">
			
				<rect x="132.552" y="85.398" transform="matrix(-0.7072 -0.707 0.707 -0.7072 166.8773 243.2128)" fill="#283A27" width="2.495" height="3.307"/>
		</g>
		<g id="XMLID_192_">
			
				<rect x="138.614" y="79.344" transform="matrix(-0.7071 -0.7071 0.7071 -0.7071 181.4841 237.1678)" fill="#283A27" width="2.494" height="3.306"/>
		</g>
	</g>
	<g>
		<rect x="83.234" y="200.981" fill="#283A27" width="25.372" height="2.52"/>
	</g>
	<g>
		<rect x="72.906" y="200.981" fill="#283A27" width="7.848" height="2.52"/>
	</g>
	<g>
		<rect x="352.983" y="34.879" fill="#283A27" width="49.149" height="2.521"/>
	</g>
	<g>
		<rect x="342.654" y="34.879" fill="#283A27" width="7.848" height="2.521"/>
	</g>
	<g>
		<rect x="515.667" y="130.54" fill="#283A27" width="49.148" height="2.52"/>
	</g>
	<g>
		<polygon fill="#283A27" points="210.173,63.948 204.917,58.693 206.771,56.84 210.173,60.241 216.607,53.806 218.462,55.663 		"/>
	</g>
	<g>
		<polygon fill="#283A27" points="531.952,174.32 526.696,169.065 528.552,167.211 531.952,170.611 538.388,164.178 
			540.241,166.034 		"/>
	</g>
	<g>
		<polygon fill="#283A27" points="454.429,92.17 449.171,86.914 451.027,85.06 454.429,88.461 460.861,82.028 462.719,83.883 		"/>
	</g>
	<g>
		<polygon fill="#283A27" points="99.959,229.563 94.478,224.085 96.412,222.149 99.959,225.696 106.671,218.986 108.605,220.922 		
			"/>
	</g>
	<g>
		<path fill="#283A27" d="M260.372,90.753l-3.293-3.418l2.773-2.675l3.294,3.419l3.418-3.297l2.456,2.55l-3.418,3.291l3.317,3.443
			l-2.773,2.675l-3.317-3.441l-3.374,3.252l-2.456-2.551L260.372,90.753z"/>
	</g>
</g>
<g>
	<g>
		<g>
			<g>
				<rect x="355.293" y="251.731" fill="#FFFFFF" width="11.935" height="4.775"/>
			</g>
			<g>
				<path fill="#283A27" d="M368.421,257.698h-14.324v-7.16h14.324V257.698z M356.486,255.313h9.548v-2.388h-9.548V255.313z"/>
			</g>
		</g>
		<g>
			<g>
				<polygon fill="#283A27" points="368.421,232.634 366.034,232.634 366.034,229.053 356.486,229.053 356.486,232.634 
					354.097,232.634 354.097,226.664 368.421,226.664 				"/>
			</g>
			<g>
				<rect x="356.486" y="229.053" fill="#FFFFFF" width="9.548" height="2.388"/>
			</g>
		</g>
		<g>
			<g>
				<polygon fill="#283A27" points="368.421,237.407 366.034,237.407 366.034,233.827 356.486,233.827 356.486,237.407 
					354.097,237.407 354.097,231.44 368.421,231.44 				"/>
			</g>
			<g>
				<rect x="356.486" y="233.827" fill="#FFFFFF" width="9.548" height="2.387"/>
			</g>
		</g>
		<g>
			<g>
				<polygon fill="#283A27" points="368.421,242.183 366.034,242.183 366.034,238.604 356.486,238.604 356.486,242.183 
					354.097,242.183 354.097,236.214 368.421,236.214 				"/>
			</g>
			<g>
				<rect x="356.486" y="238.604" fill="#FFFFFF" width="9.548" height="2.387"/>
			</g>
		</g>
		<g>
			<g>
				<polygon fill="#283A27" points="368.421,246.957 366.034,246.957 366.034,243.376 356.486,243.376 356.486,246.957 
					354.097,246.957 354.097,240.99 368.421,240.99 				"/>
			</g>
			<g>
				<rect x="356.486" y="243.376" fill="#FFFFFF" width="9.548" height="2.387"/>
			</g>
		</g>
		<g>
			<g>
				<polygon fill="#283A27" points="368.421,251.731 366.034,251.731 366.034,248.151 356.486,248.151 356.486,251.731 
					354.097,251.731 354.097,245.763 368.421,245.763 				"/>
			</g>
			<g>
				<rect x="356.486" y="248.151" fill="#FFFFFF" width="9.548" height="2.387"/>
			</g>
		</g>
		<g>
			<g>
				<rect x="343.355" y="251.731" fill="#FFFFFF" width="10.741" height="4.775"/>
			</g>
			<g>
				<polygon fill="#283A27" points="355.293,257.698 342.162,257.698 342.162,250.538 355.293,250.538 355.293,252.925 
					344.549,252.925 344.549,255.313 355.293,255.313 				"/>
			</g>
		</g>
		<g>
			<g>
				<polygon fill="#283A27" points="344.549,242.183 342.162,242.183 342.162,236.214 355.293,236.214 355.293,238.604 
					344.549,238.604 				"/>
			</g>
			<g>
				<rect x="344.549" y="238.604" fill="#FFFFFF" width="9.548" height="2.387"/>
			</g>
		</g>
		<g>
			<g>
				<polygon fill="#283A27" points="344.549,246.957 342.162,246.957 342.162,240.99 355.293,240.99 355.293,243.376 
					344.549,243.376 				"/>
			</g>
			<g>
				<rect x="344.549" y="243.376" fill="#FFFFFF" width="9.548" height="2.387"/>
			</g>
		</g>
		<g>
			<g>
				<polygon fill="#283A27" points="344.549,251.731 342.162,251.731 342.162,245.763 355.293,245.763 355.293,248.151 
					344.549,248.151 				"/>
			</g>
			<g>
				<rect x="344.549" y="248.151" fill="#FFFFFF" width="9.548" height="2.387"/>
			</g>
		</g>
		<g>
			<g>
				<rect x="331.419" y="251.731" fill="#FFFFFF" width="10.743" height="4.775"/>
			</g>
			<g>
				<polygon fill="#283A27" points="343.355,257.698 330.225,257.698 330.225,250.538 343.355,250.538 343.355,252.925 
					332.612,252.925 332.612,255.313 343.355,255.313 				"/>
			</g>
		</g>
		<g>
			<g>
				<polygon fill="#283A27" points="332.612,251.731 330.225,251.731 330.225,245.763 343.355,245.763 343.355,248.151 
					332.612,248.151 				"/>
			</g>
			<g>
				<rect x="332.612" y="248.151" fill="#FFFFFF" width="9.55" height="2.387"/>
			</g>
		</g>
	</g>
</g>
<g>
	<g>
		<g>
			<g>
				<path fill="#ACF0F2" d="M408.976,115.152h63.833c2.299,0,4.161,1.863,4.161,4.162v33.296c0,2.298-1.862,4.161-4.161,4.161
					h-63.833c-2.297,0-4.163-1.863-4.163-4.161v-33.296C404.813,117.016,406.679,115.152,408.976,115.152z"/>
			</g>
			<g>
				<rect x="404.813" y="120.701" fill="#4AC6C6" width="72.157" height="11.099"/>
			</g>
			<g>
				<path fill="#414042" d="M472.809,158.158h-63.833c-3.061,0-5.548-2.488-5.548-5.549v-33.296c0-3.059,2.487-5.549,5.548-5.549
					h63.833c3.062,0,5.551,2.489,5.551,5.549v33.296C478.359,155.67,475.87,158.158,472.809,158.158z M408.976,116.538
					c-1.531,0-2.773,1.245-2.773,2.775v33.296c0,1.531,1.242,2.776,2.773,2.776h63.833c1.531,0,2.774-1.243,2.774-2.776v-33.296
					c0-1.53-1.243-2.775-2.774-2.775H408.976L408.976,116.538z"/>
			</g>
			<g>
				<path fill="#FFFFFF" d="M422.864,131.8h63.815c2.299,0,4.165,1.865,4.165,4.163v33.294c0,2.297-1.866,4.165-4.165,4.165h-63.815
					c-2.297,0-4.161-1.866-4.161-4.165v-33.294C418.703,133.665,420.567,131.8,422.864,131.8z"/>
			</g>
			<g>
				<path fill="#414042" d="M486.68,174.806h-63.815c-3.057,0-5.55-2.489-5.55-5.549v-33.294c0-3.061,2.493-5.55,5.55-5.55h63.815
					c3.063,0,5.55,2.489,5.55,5.55v33.294C492.229,172.316,489.742,174.806,486.68,174.806z M422.864,133.187
					c-1.529,0-2.773,1.244-2.773,2.775v33.294c0,1.531,1.244,2.776,2.773,2.776h63.815c1.531,0,2.778-1.245,2.778-2.776v-33.294
					c0-1.531-1.247-2.775-2.778-2.775H422.864z"/>
			</g>
			<g>
				<circle fill="#F9D657" cx="447.835" cy="152.611" r="9.713"/>
			</g>
			<g>
				<circle fill="#67DDE0" cx="461.711" cy="152.611" r="9.713"/>
			</g>
			<g>
				<rect x="404.813" y="119.313" fill="#414042" width="72.157" height="2.774"/>
			</g>
			<g>
				<rect x="404.813" y="130.413" fill="#414042" width="18.052" height="2.774"/>
			</g>
		</g>
		<g>
			<rect x="411.756" y="138.737" fill="#414042" width="6.947" height="2.775"/>
		</g>
		<g>
			<rect x="429.803" y="151.221" fill="#414042" width="2.773" height="2.774"/>
		</g>
		<g>
			<rect x="476.97" y="151.221" fill="#414042" width="2.777" height="2.774"/>
		</g>
		<g>
			<rect x="456.162" y="124.862" fill="#414042" width="13.873" height="2.776"/>
		</g>
		<g>
			<rect x="447.836" y="124.862" fill="#414042" width="5.548" height="2.776"/>
		</g>
	</g>
</g>
<g>
	<g>
		<rect x="223.008" y="127.732" fill="#FFFFFF" width="3.895" height="4.869"/>
	</g>
	<g>
		<path fill="#ACF0F2" d="M172.367,117.022v35.051c0,3.227,2.616,5.842,5.842,5.842h44.799v-35.05h-44.799
			C174.983,122.864,172.367,120.248,172.367,117.022L172.367,117.022z"/>
	</g>
	<g>
		<g>
			<rect x="178.209" y="111.18" fill="#FFFFFF" width="44.799" height="11.684"/>
		</g>
		<g>
			<circle fill="#FFFFFF" cx="178.209" cy="117.022" r="5.842"/>
		</g>
		<g>
			<polygon fill="#414042" points="223.982,122.864 222.035,122.864 222.035,112.154 178.209,112.154 178.209,110.207 
				223.982,110.207 			"/>
		</g>
		<g>
			<rect x="177.235" y="116.049" fill="#414042" width="40.906" height="1.947"/>
		</g>
	</g>
	<g>
		<path fill="#414042" d="M223.982,132.601h-1.948v-8.764h-43.825c-3.758,0-6.815-3.057-6.815-6.815s3.057-6.815,6.815-6.815v1.946
			c-2.683,0-4.868,2.186-4.868,4.87c0,2.685,2.185,4.867,4.868,4.867h45.773V132.601L223.982,132.601z"/>
	</g>
	<g>
		<path fill="#414042" d="M223.982,158.891h-45.773c-3.758,0-6.815-3.061-6.815-6.817v-35.051h1.947v35.051
			c0,2.684,2.185,4.869,4.868,4.869h43.825v-8.765h1.948V158.891L223.982,158.891z"/>
	</g>
	<g>
		<g>
			<path fill="#67DDE0" d="M206.455,148.178c-4.301,0-7.792-3.487-7.792-7.789c0-4.299,3.491-7.788,7.792-7.788h20.448v15.577
				H206.455z"/>
		</g>
		<g>
			<path fill="#F0F0DF" d="M210.35,140.389c0,2.153-1.744,3.897-3.895,3.897c-2.148,0-3.894-1.744-3.894-3.897
				c0-2.151,1.745-3.895,3.894-3.895C208.606,136.495,210.35,138.238,210.35,140.389z"/>
		</g>
		<g>
			<path fill="#414042" d="M206.455,145.257c-2.684,0-4.868-2.181-4.868-4.868c0-2.683,2.184-4.869,4.868-4.869
				c2.685,0,4.869,2.186,4.869,4.869C211.324,143.076,209.14,145.257,206.455,145.257z M206.455,137.469
				c-1.61,0-2.921,1.309-2.921,2.92c0,1.612,1.311,2.923,2.921,2.923c1.611,0,2.922-1.312,2.922-2.923
				C209.375,138.778,208.066,137.469,206.455,137.469z"/>
		</g>
		<g>
			<path fill="#414042" d="M227.876,149.154h-21.421c-4.833,0-8.768-3.932-8.768-8.765c0-4.831,3.935-8.762,8.768-8.762h21.421
				V149.154z M206.455,133.574c-3.756,0-6.817,3.06-6.817,6.815c0,3.758,3.061,6.816,6.817,6.816h19.474v-13.631H206.455z"/>
		</g>
	</g>
	<g>
		<rect x="216.193" y="126.758" fill="#414042" width="1.947" height="1.948"/>
	</g>
	<g>
		<rect x="212.298" y="126.758" fill="#414042" width="1.947" height="1.948"/>
	</g>
	<g>
		<rect x="208.403" y="126.758" fill="#414042" width="1.947" height="1.948"/>
	</g>
	<g>
		<rect x="204.507" y="126.758" fill="#414042" width="1.948" height="1.948"/>
	</g>
	<g>
		<rect x="200.612" y="126.758" fill="#414042" width="1.949" height="1.948"/>
	</g>
	<g>
		<rect x="196.711" y="126.758" fill="#414042" width="1.952" height="1.948"/>
	</g>
	<g>
		<rect x="192.814" y="126.758" fill="#414042" width="1.948" height="1.948"/>
	</g>
	<g>
		<rect x="188.919" y="126.758" fill="#414042" width="1.949" height="1.948"/>
	</g>
	<g>
		<rect x="185.024" y="126.758" fill="#414042" width="1.948" height="1.948"/>
	</g>
	<g>
		<rect x="181.131" y="126.758" fill="#414042" width="1.947" height="1.948"/>
	</g>
	<g>
		<rect x="177.235" y="126.758" fill="#414042" width="1.948" height="1.948"/>
	</g>
	<g>
		<rect x="216.193" y="152.073" fill="#414042" width="1.947" height="1.947"/>
	</g>
	<g>
		<rect x="212.298" y="152.073" fill="#414042" width="1.947" height="1.947"/>
	</g>
	<g>
		<rect x="208.403" y="152.073" fill="#414042" width="1.947" height="1.947"/>
	</g>
	<g>
		<rect x="204.507" y="152.073" fill="#414042" width="1.948" height="1.947"/>
	</g>
	<g>
		<rect x="200.612" y="152.073" fill="#414042" width="1.949" height="1.947"/>
	</g>
	<g>
		<rect x="196.711" y="152.073" fill="#414042" width="1.952" height="1.947"/>
	</g>
	<g>
		<rect x="192.814" y="152.073" fill="#414042" width="1.948" height="1.947"/>
	</g>
	<g>
		<rect x="188.919" y="152.073" fill="#414042" width="1.949" height="1.947"/>
	</g>
	<g>
		<rect x="185.024" y="152.073" fill="#414042" width="1.948" height="1.947"/>
	</g>
	<g>
		<rect x="181.131" y="152.073" fill="#414042" width="1.947" height="1.947"/>
	</g>
	<g>
		<rect x="177.235" y="152.073" fill="#414042" width="1.948" height="1.947"/>
	</g>
	<g>
		<polygon fill="#414042" points="227.876,132.601 225.929,132.601 225.929,128.706 223.008,128.706 223.008,126.758 
			227.876,126.758 		"/>
	</g>
</g>
<g>
	<g>
		<g>
			<g>
				<path fill="#FFFFFF" d="M437.122,216.306c-5.765,0-10.438,4.674-10.438,10.438v6.646h5.692v-6.646
					c0-2.619,2.123-4.743,4.744-4.743c2.62,0,4.744,2.124,4.744,4.743v6.646h5.694v-6.646
					C447.562,220.979,442.889,216.306,437.122,216.306z"/>
			</g>
		</g>
		<g>
			<path fill="#FFFFFF" d="M451.358,253.316c0,1.573-1.276,2.847-2.847,2.847h-22.775c-1.571,0-2.846-1.273-2.846-2.847v-17.082
				c0-1.569,1.275-2.848,2.846-2.848h22.775c1.572,0,2.847,1.278,2.847,2.848V253.316z"/>
		</g>
		<g>
			<g>
				<polygon fill="#1686BD" points="437.122,245.727 431.43,245.727 437.122,240.03 442.815,240.03 				"/>
			</g>
			<g>
				<polygon fill="#1686BD" points="451.358,245.727 440.917,245.727 446.612,240.03 451.358,240.03 				"/>
			</g>
			<g>
				<polygon fill="#1686BD" points="422.889,240.03 433.326,240.03 427.635,245.727 422.889,245.727 				"/>
			</g>
		</g>
		<g>
			<path fill="#414042" d="M448.511,257.111h-22.777c-2.09,0-3.794-1.7-3.794-3.795v-17.082c0-2.093,1.704-3.796,3.794-3.796h22.777
				c2.092,0,3.797,1.703,3.797,3.796v17.082C452.307,255.411,450.603,257.111,448.511,257.111z M425.733,234.338
				c-1.046,0-1.896,0.851-1.896,1.896v17.082c0,1.045,0.851,1.898,1.896,1.898h22.777c1.046,0,1.897-0.854,1.897-1.898v-17.082
				c0-1.046-0.852-1.896-1.897-1.896H425.733L425.733,234.338z"/>
		</g>
		<g>
			<path fill="#414042" d="M442.815,233.387h-1.897v-6.644c0-2.094-1.703-3.796-3.796-3.796c-2.091,0-3.796,1.702-3.796,3.796v6.644
				h-1.896v-6.644c0-3.138,2.555-5.692,5.692-5.692c3.141,0,5.694,2.555,5.694,5.692L442.815,233.387L442.815,233.387z"/>
		</g>
		<g>
			<path fill="#414042" d="M448.511,233.387h-1.898v-6.644c0-5.231-4.257-9.487-9.49-9.487c-5.232,0-9.49,4.256-9.49,9.487v6.644
				h-1.898v-6.644c0-6.277,5.109-11.386,11.389-11.386c6.28,0,11.389,5.106,11.389,11.386V233.387L448.511,233.387z"/>
		</g>
	</g>
</g>
<g>
	<g>
		<g>
			<rect x="183.281" y="193.685" fill="#1686BD" width="41.919" height="48.02"/>
		</g>
		<g>
			<rect x="183.281" y="241.703" fill="#FFFFFF" width="41.919" height="13.544"/>
		</g>
	</g>
	<g>
		<path fill="#414042" d="M183.281,256.478H225.2c0.681,0,1.233-0.55,1.233-1.229v-61.564c0-0.683-0.552-1.233-1.233-1.233h-41.919
			c-0.68,0-1.233,0.551-1.233,1.233v61.564C182.048,255.928,182.601,256.478,183.281,256.478z M223.967,254.017h-39.456v-59.103
			h39.456V254.017z"/>
	</g>
	<g>
		<rect x="148.759" y="213.384" fill="#ACF0F2" width="66.579" height="41.865"/>
	</g>
	<g>
		<rect x="148.759" y="246.627" fill="#67DDE0" width="66.579" height="8.622"/>
	</g>
	<g>
		<path fill="#414042" d="M148.759,256.478h66.578v-2.461h-65.346v-40.633h-2.468v41.865
			C147.526,255.928,148.076,256.478,148.759,256.478z"/>
	</g>
	<g>
		<path fill="#414042" d="M191.911,191.219h2.467c0-5.429,4.425-9.85,9.864-9.85c5.438,0,9.862,4.42,9.862,9.85h2.467
			c0-6.787-5.532-12.313-12.329-12.313C197.443,178.906,191.911,184.432,191.911,191.219z"/>
	</g>
	<g>
		<rect x="214.103" y="191.219" fill="#414042" width="2.467" height="16.011"/>
	</g>
	<g>
		<rect x="191.91" y="191.219" fill="#414042" width="2.467" height="16.011"/>
	</g>
	<g>
		<rect x="191.91" y="219.54" fill="#414042" width="2.467" height="9.851"/>
	</g>
	<g>
		<rect x="169.717" y="219.54" fill="#414042" width="2.466" height="9.851"/>
	</g>
	<g>
		<path fill="#414042" d="M182.048,241.703c6.798,0,12.329-5.523,12.329-12.313h-2.467c0,5.43-4.424,9.851-9.862,9.851
			c-5.441,0-9.864-4.418-9.864-9.851h-2.466C169.719,236.18,175.25,241.703,182.048,241.703z"/>
	</g>
	<g>
		<rect x="215.337" y="239.242" fill="#414042" width="8.63" height="2.462"/>
	</g>
	<g>
		<rect x="174.65" y="204.764" fill="#414042" width="2.466" height="2.466"/>
	</g>
	<g>
		<rect x="169.717" y="204.764" fill="#414042" width="2.466" height="2.466"/>
	</g>
	<g>
		<rect x="164.786" y="204.764" fill="#414042" width="2.467" height="2.466"/>
	</g>
</g>
<g>
	<g>
		<rect x="470.369" y="218.475" fill="#ACF0F2" width="59.125" height="4.222"/>
	</g>
	<g>
		<polygon fill="#FFFFFF" points="532.313,218.475 467.548,218.475 499.929,199.469 		"/>
	</g>
	<g>
		<path fill="#3B443B" d="M532.313,219.528h-64.769c-0.511,0-0.963-0.307-1.107-0.757c-0.146-0.448,0.051-0.934,0.482-1.186
			l32.384-19.003c0.382-0.225,0.87-0.225,1.251,0l32.383,19.003c0.428,0.252,0.629,0.737,0.484,1.186
			C533.279,219.222,532.827,219.528,532.313,219.528z M471.485,217.416h56.89l-28.447-16.692L471.485,217.416z"/>
	</g>
	<g>
		<g>
			<rect x="474.592" y="226.92" fill="#F5F5F5" width="6.335" height="19.003"/>
		</g>
		<g>
			<rect x="472.48" y="222.696" fill="#F5F5F5" width="10.56" height="4.224"/>
		</g>
		<g>
			<polygon fill="#3B443B" points="484.094,227.976 471.424,227.976 471.424,222.696 473.536,222.696 473.536,225.865 
				481.981,225.865 481.981,222.696 484.094,222.696 			"/>
		</g>
		<g>
			<rect x="472.48" y="245.923" fill="#F5F5F5" width="10.56" height="4.224"/>
		</g>
		<g>
			<polygon fill="#3B443B" points="484.094,250.146 481.981,250.146 481.981,246.979 473.536,246.979 473.536,250.146 
				471.424,250.146 471.424,244.868 484.094,244.868 			"/>
		</g>
		<g>
			<rect x="473.536" y="226.92" fill="#3B443B" width="2.111" height="19.003"/>
		</g>
		<g>
			<rect x="479.87" y="226.92" fill="#3B443B" width="2.111" height="19.003"/>
		</g>
	</g>
	<g>
		<g>
			<rect x="489.372" y="226.92" fill="#F5F5F5" width="6.336" height="19.003"/>
		</g>
		<g>
			<rect x="487.262" y="222.696" fill="#F5F5F5" width="10.557" height="4.224"/>
		</g>
		<g>
			<polygon fill="#3B443B" points="498.875,227.976 486.205,227.976 486.205,222.696 488.318,222.696 488.318,225.865 
				496.764,225.865 496.764,222.696 498.875,222.696 			"/>
		</g>
		<g>
			<rect x="487.262" y="245.923" fill="#F5F5F5" width="10.557" height="4.224"/>
		</g>
		<g>
			<polygon fill="#3B443B" points="498.875,250.146 496.764,250.146 496.764,246.979 488.318,246.979 488.318,250.146 
				486.205,250.146 486.205,244.868 498.875,244.868 			"/>
		</g>
		<g>
			<rect x="488.318" y="226.92" fill="#3B443B" width="2.108" height="19.003"/>
		</g>
		<g>
			<rect x="494.65" y="226.92" fill="#3B443B" width="2.113" height="19.003"/>
		</g>
	</g>
	<g>
		<g>
			<rect x="504.155" y="226.92" fill="#F5F5F5" width="6.334" height="19.003"/>
		</g>
		<g>
			<rect x="502.042" y="222.696" fill="#F5F5F5" width="10.56" height="4.224"/>
		</g>
		<g>
			<polygon fill="#3B443B" points="513.655,227.976 500.987,227.976 500.987,222.696 503.098,222.696 503.098,225.865 
				511.544,225.865 511.544,222.696 513.655,222.696 			"/>
		</g>
		<g>
			<rect x="502.042" y="245.923" fill="#F5F5F5" width="10.56" height="4.224"/>
		</g>
		<g>
			<polygon fill="#3B443B" points="513.655,250.146 511.544,250.146 511.544,246.979 503.098,246.979 503.098,250.146 
				500.987,250.146 500.987,244.868 513.655,244.868 			"/>
		</g>
		<g>
			<rect x="503.098" y="226.92" fill="#3B443B" width="2.111" height="19.003"/>
		</g>
		<g>
			<rect x="509.434" y="226.92" fill="#3B443B" width="2.109" height="19.003"/>
		</g>
	</g>
	<g>
		<g>
			<rect x="518.934" y="226.92" fill="#F5F5F5" width="6.336" height="19.003"/>
		</g>
		<g>
			<rect x="516.822" y="222.696" fill="#F5F5F5" width="10.56" height="4.224"/>
		</g>
		<g>
			<polygon fill="#3B443B" points="528.437,227.976 515.77,227.976 515.77,222.696 517.879,222.696 517.879,225.865 
				526.325,225.865 526.325,222.696 528.437,222.696 			"/>
		</g>
		<g>
			<rect x="516.822" y="245.923" fill="#F5F5F5" width="10.56" height="4.224"/>
		</g>
		<g>
			<polygon fill="#3B443B" points="528.437,250.146 526.325,250.146 526.325,246.979 517.879,246.979 517.879,250.146 
				515.77,250.146 515.77,244.868 528.437,244.868 			"/>
		</g>
		<g>
			<rect x="517.879" y="226.92" fill="#3B443B" width="2.112" height="19.003"/>
		</g>
		<g>
			<rect x="524.213" y="226.92" fill="#3B443B" width="2.112" height="19.003"/>
		</g>
	</g>
	<g>
		<rect x="470.369" y="250.146" fill="#ACF0F2" width="59.125" height="5.56"/>
	</g>
	<g>
		<path fill="#3B443B" d="M530.549,256.761h-61.235v-7.67h61.235V256.761L530.549,256.761z M471.424,254.647h57.011v-3.444h-57.011
			V254.647z"/>
	</g>
	<g>
		<path fill="#3B443B" d="M529.494,223.753h-59.125c-0.586,0-1.056-0.472-1.056-1.057v-4.222h2.112v3.168h57.011v-3.168h2.112v4.222
			C530.549,223.281,530.074,223.753,529.494,223.753z"/>
	</g>
	<g>
		<circle fill="#F2BB20" cx="499.929" cy="210.027" r="4.224"/>
	</g>
</g>
</svg>
