<?xml version="1.0" encoding="utf-8"?>
<!-- Generator: Adobe Illustrator 19.2.1, SVG Export Plug-In . SVG Version: 6.00 Build 0)  -->
<svg version="1.1" id="Layer_1" xmlns="http://www.w3.org/2000/svg" xmlns:xlink="http://www.w3.org/1999/xlink" x="0px" y="0px"
	 viewBox="0 0 593.8 283.6" style="enable-background:new 0 0 593.8 283.6;" xml:space="preserve">
<style type="text/css">
	.st0{fill:#FFFFFF;}
	.st1{fill:#EE365D;}
	.st2{fill:#00A0DD;}
	.st3{fill:#30B14A;}
	.st4{fill:#FAA744;}
	.st5{fill:#FFD400;}
	.st6{fill:#0056A2;}
	.st7{fill:#ECB02E;}
	.st8{fill:#F4DDA1;}
</style>
<g>
	<path class="st0" d="M585.2,167H466.5C463.4,76.3,394.6,0,297.4,0c-98,0-166,76.3-169.1,167H8.5c-4.7,0-8.5,3.7-8.5,8.2v100.1
		c0,4.6,3.8,8.2,8.5,8.2h576.7c4.7,0,8.5-3.7,8.5-8.2V175.3C593.8,170.7,589.9,167,585.2,167z"/>
	<g>
		<g>
			<path class="st1" d="M546.9,239.8c2.4,2.1,3.6,1.4,5.7,1.5l6.2,0.4c21.4-0.6,23.5-4.6,23.3-26.8l-0.8-9
				c0.8-9.3-3.5-25.9-20.3-22.4l-25.9-1.2c-6.3-0.6-10.2,2.1-10.1,5.7l-1.8,79.7c2,4,1.8,4.3,6.6,3.7l12.7-1.2
				c3.4-1.9,3.3-1.4,3.5-3.2L546.9,239.8z M546.2,201.2c3.1-3.2,3.7-3.6,6-3.7l4.2-0.1c7.4-1.2,10.5,1.7,9.9,7.1l-0.2,14.4
				c0.3,4.1-4.4,8-9.6,5.8l-4.5,0.5c-2.6,0-6.1,0.3-5.6-1.7L546.2,201.2z"/>
			<path class="st2" d="M222.3,273.9c3.8-1.1,5.3-2.3,4.1-4.2c-0.1-3.8-0.2-5.8-0.2-11.4l0-13.8c-2.6-8.3-5.8-13.4-8.4-14.9
				c-3.9-3-3.6-3.7-2.3-3.7c10.1-1.1,10.8-11.3,9.5-21.4v-3.6c2.8-14.6-11.2-26.8-23.2-25.2l-24.3,0.7c-2,1.3-3,2.4-4.3,6.7
				l-3.7,88.6c4.7,2.1,4.8,4.6,6.4,4.8l13.4,0.4c1.6-1.1,2-4.4,2.7-6.3l-0.5-29.3c0-6.6,0.4-6.1,2.8-6.4l4.8,0.3
				c6.2-0.5,4.7,2.4,5.2,6.9l0.4,16.4c-1.6,5.9,0.9,9.9,1.7,12.2c0.4,1.9,2.2,2.4,4.1,2.3L222.3,273.9z M198.3,194.3
				c6,0.8,6.3,1.7,7.6,9.1l-0.2,8.5c-1.3,4.3-4.1,8.1-6.7,6.3l-4.8,0.4c-1.9,0.3-2.4-0.3-2.4-2.1l-0.6-16.6c3-4,0.7-5.2,2.9-4.8
				L198.3,194.3z"/>
			<path class="st3" d="M98.3,201.5l0.5,45.6c-5.1,26.2,6.8,28.8,25.1,29.3l5.8-0.1c17.4-0.9,26.4-11.2,26.1-28.8l2.4-44.3
				c-3.6-28.6-13.5-26-27.2-24.2l-8.8-0.6c-16.8-0.5-26.5,6.6-24.8,19.3L98.3,201.5z M134.4,250.4c-2,4.9-1.8,6.5-6.6,6.9l-3.8-0.3
				c-5,0-9.6-2.5-9.6-7.5l0.4-47.5c1.4-7,4.3-10.6,8.9-10.8l4.2-0.1c5,0,4.4,4.1,4.7,9.3L134.4,250.4z"/>
			<g>
				<g>
					<path class="st4" d="M22.9,274.1c0.1,0.6,0.6,1.1,1.2,1.1h19.4c0.6,0,1.2-0.5,1.3-1.1l5.2-37.5c0.1-0.6,0.3-0.6,0.4,0l7,29.2
						c0.1,0.6,0.7,1.1,1.3,1.2l14.2,2.1c0.6,0.1,1.2-0.3,1.3-0.9l17.4-90.3c0.1-0.6-0.3-1.1-0.9-1.1L73.4,176c-0.6,0-1.2,0.4-1.3,1
						l-10.3,61.8c-0.1,0.6-0.2,0.6-0.2,0l-3.1-53.1c0-0.6-0.6-1.1-1.2-1.1L44.7,184c-0.6,0-1.2,0.4-1.3,1l-6.6,37.7
						c-0.1,0.6-0.3,0.6-0.3,0l-5.8-40.1c-0.1-0.6-0.7-1-1.3-1l-16.8,2c-0.6,0.1-1,0.6-1,1.2L22.9,274.1z"/>
				</g>
			</g>
			<path class="st4" d="M477.6,178.5h7c15.4,0,27.4,7.7,27.4,23.5l-1.8,47.7c0,15.7-10.2,23.5-25.6,23.5h-7
				c-15.4,0-27.1-6.7-27.1-22.4l1-47.7C451.5,187.3,462.2,178.5,477.6,178.5z M493.6,200.8c0-5.1-6.4-7.2-10.7-7.2h-3.7
				c-4.3,0-6.6,2.2-6.6,7.2l-3.9,50c0,5.1,6.2,7.2,10.5,7.2h3.7c4.3,0,6.6-2.2,6.6-7.2L493.6,200.8z"/>
			<g>
				<g>
					<g>
						<path class="st1" d="M266.7,270c0.6,0,1.1-0.6,1.1-1.2l-1.8-37.5c0-0.6,0.2-0.7,0.4-0.1l17.8,37c0.3,0.6,1,1,1.6,1l17.7-0.8
							c0.6,0,1-0.5,0.7-1.1l-17.4-44.8c-0.2-0.6-0.3-1.6-0.1-2.2l12.1-43.1c0.2-0.6-0.2-1.1-0.8-1l-16.9,0.8c-0.6,0-1.3,0.5-1.5,1.1
							l-12.7,37c-0.2,0.6-0.4,0.6-0.5-0.1l-2.8-30.8c-0.1-0.6-0.6-1.1-1.2-1.1l-16.9,0.7c-0.6,0-1.1,0.6-1.1,1.2l4.4,84.7
							c0,0.6,0.6,1.1,1.2,1.1L266.7,270z"/>
					</g>
				</g>
			</g>
			<g>
				<g>
					<g>
						<path class="st5" d="M416.7,270.4c0,0.6,0.5,1.2,1.2,1.2l21.1,0.2c0.6,0,1.1-0.5,1.1-1.1l-2.2-88.6c0-0.6-0.5-1.2-1.2-1.3
							l-19.8-2.2c-0.6-0.1-1.1,0.4-1.1,1l0.4,37.9c0,0.6-0.5,1.1-1.1,1.1l-9-0.7c-0.6-0.1-1.1-0.6-1.1-1.2V185
							c0-0.6-0.5-1.2-1.2-1.2h-19.9c-0.6,0-1.1,0.5-1.1,1.1l2.6,89c0,0.6,0.6,1.1,1.2,1.1h17.3c0.6,0,1.2-0.5,1.2-1.2v-39.3
							c0-0.6,0.5-1.1,1.1-1.1l9.1,0.7c0.6,0.1,1.2,0.6,1.2,1.2L416.7,270.4z"/>
					</g>
				</g>
			</g>
			<g>
				<path class="st3" d="M346.6,200.4c0-4.6-2.1-7.2-6.4-7.2h-0.7c-4.2,0-6.4,2.7-6.4,7.2v2.4c0,5.6,1.5,8.8,12.7,15
					c16.2,8.9,19.2,16.1,19.2,27v4.8c0,15.7-7.3,23.5-23.7,23.5h-3.3c-15.6,0-22.7-7.7-22.7-23.5v-4.6c0-1.9,0.7-2.7,2.6-2.7h12.5
					c2,0,2.7,0.8,2.7,2.7v6.2c0,4.6,2.1,7.2,6.4,7.2h1.3c4.2,0,6.4-2.7,6.4-7.2v-4.8c0-5.6-1.5-8.8-12.7-15
					c-16.2-8.9-19.2-16.1-19.2-27v-2.5c0-15.7,7.3-23.5,23.7-23.5h2.7c15.6,0,22.7,7.7,22.7,23.5v1.9c0,1.9-0.7,2.7-2.6,2.7h-12.5
					c-2,0-2.7-0.8-2.7-2.7V200.4z"/>
			</g>
			<path class="st6" d="M483.5,274.5h-7c-16,0-23.8-8.1-23.8-24.8V202c0-16.7,7.8-24.8,23.8-24.8h7c16,0,23.8,8.1,23.8,24.8v47.7
				C507.3,266.4,499.5,274.5,483.5,274.5L483.5,274.5z M476.5,179.8c-14.4,0-21.2,7-21.2,22.2v47.7c0,15.1,6.7,22.2,21.2,22.2h7
				c14.4,0,21.2-7,21.2-22.2V202c0-15.1-6.7-22.2-21.2-22.2H476.5L476.5,179.8z M482.6,266.9h-5.2c-11,0-15.9-5.3-15.9-17.1v-48.1
				c0-11.8,4.9-17.1,15.9-17.1h5.2c11,0,15.9,5.3,15.9,17.1v48.1C498.5,261.6,493.6,266.9,482.6,266.9L482.6,266.9z M477.4,187.3
				c-8,0-13.3,2.5-13.3,14.4v48.1c0,12,5.3,14.4,13.3,14.4h5.2c8,0,13.3-2.4,13.3-14.4v-48.1c0-12-5.3-14.4-13.3-14.4H477.4
				L477.4,187.3z M481.8,259.4h-3.7c-3.6,0-7.9-1.5-7.9-8.6v-50c0-7.1,4.3-8.6,7.9-8.6h3.7c3.6,0,7.9,1.5,7.9,8.6v50
				C489.8,257.9,485.4,259.4,481.8,259.4L481.8,259.4z M478.1,194.9c-3.8,0-5.3,1.7-5.3,5.9v50c0,4.2,1.5,5.9,5.3,5.9h3.7
				c3.7,0,5.3-1.7,5.3-5.9v-50c0-4.2-1.5-5.9-5.3-5.9H478.1L478.1,194.9z"/>
			<g>
				<path class="st6" d="M73.3,273.3H58c-1.8,0-3.9-0.4-4.3-3.8l-4.1-39.3c-0.2-1.9-0.4-3.8-0.5-5.5c-0.2,2.1-0.3,3.9-0.5,5.4
					l-4.3,39.4c-0.4,3.4-2.5,3.8-4.3,3.8H24.5c-1.8,0-3.9-0.4-4.3-3.8l-9.9-87c-0.2-1.3,0.1-2.3,0.7-3.1c0.9-1.1,2.4-1.1,2.9-1.1h11
					c1.9,0,3.8,0.5,4.2,3.8l4.6,47c0.2,2,0.4,4.2,0.5,6c0.1-1.8,0.3-3.9,0.5-6l4.9-46.9c0.4-3.4,2.5-3.8,4.3-3.8h11.1
					c1.8,0,3.9,0.4,4.3,3.8l4.9,47c0.2,1.7,0.4,3.8,0.5,6.1c0.1-1.8,0.2-4,0.5-6.1l4.6-46.9c0.4-3.4,2.3-3.9,4.2-3.9h9.6
					c1.3,0,2.3,0.4,3,1.2c0.6,0.8,0.9,1.8,0.7,3.1l-9.6,86.9C77.2,272.8,75.1,273.3,73.3,273.3L73.3,273.3z M49,218.4
					c1.1,0,2.2,0.9,2.3,2.6c0.1,1.9,0.4,5.5,0.7,8.8l4.1,39.3c0.1,1.3,0.4,1.5,1.8,1.5h15.4c1.4,0,1.6-0.2,1.8-1.5l9.6-86.9
					c0.1-0.5,0-0.9-0.1-1.1c-0.1-0.2-0.5-0.3-1.1-0.3h-9.6c-1.3,0-1.5,0.1-1.7,1.5l-4.6,46.9c-0.3,2.5-0.4,5.2-0.5,7.2
					c0,0.6-0.1,1.2-0.1,1.7c-0.1,1.7-1.3,2.6-2.4,2.6c-1.1,0-2.2-0.9-2.4-2.6c-0.2-3.4-0.5-6.5-0.7-8.8l-4.9-47
					c-0.1-1.3-0.4-1.5-1.8-1.5H43.8c-1.4,0-1.6,0.2-1.8,1.5l-4.9,46.9c-0.4,3.5-0.6,7.3-0.7,8.8c-0.1,1.7-1.3,2.6-2.4,2.6
					c-1.1,0-2.2-0.9-2.4-2.6c0-0.5-0.1-1-0.1-1.5c-0.1-2.1-0.2-4.8-0.5-7.3l-4.6-47c-0.2-1.4-0.4-1.5-1.7-1.5h-11
					c-0.8,0-1,0.2-1,0.2c-0.1,0.1-0.1,0.4-0.1,1l9.9,87c0.1,1.3,0.4,1.5,1.8,1.5h15.5c1.4,0,1.6-0.2,1.8-1.5l4.3-39.5
					c0.3-2.2,0.5-5.2,0.7-8.7C46.8,219.3,47.9,218.4,49,218.4L49,218.4z"/>
			</g>
			<g>
				<g>
					<path class="st6" d="M130.9,274.4h-4.2c-0.7,0-1.3-0.6-1.3-1.3c0-0.7,0.6-1.3,1.3-1.3h4.2c0.2,0,0.4,0,0.7,0c0,0,0,0,0,0
						c0.7,0,1.3,0.6,1.3,1.3c0,0.7-0.6,1.3-1.3,1.3C131.4,274.4,131.1,274.4,130.9,274.4L130.9,274.4z M121.7,274.4
						C121.7,274.4,121.6,274.4,121.7,274.4c-1.8-0.1-3.5-0.3-5.1-0.6c-0.7-0.1-1.2-0.8-1-1.6c0.1-0.7,0.8-1.2,1.6-1
						c1.4,0.3,3,0.5,4.6,0.6c0.7,0,1.3,0.7,1.2,1.4C123,273.8,122.4,274.4,121.7,274.4L121.7,274.4z M136.6,274
						c-0.6,0-1.2-0.5-1.3-1.1c-0.1-0.7,0.4-1.4,1.1-1.5c1.6-0.3,3.1-0.6,4.4-1.1c0.7-0.3,1.4,0.1,1.7,0.8c0.3,0.7-0.1,1.4-0.8,1.7
						c-1.5,0.5-3.2,1-4.9,1.3C136.8,274,136.7,274,136.6,274L136.6,274z M112.1,272.2c-0.2,0-0.4,0-0.6-0.1
						c-1.6-0.7-3.1-1.7-4.4-2.8c-0.5-0.5-0.6-1.3-0.1-1.9c0.5-0.5,1.3-0.6,1.9-0.1c1.1,1,2.3,1.8,3.7,2.4c0.7,0.3,1,1.1,0.6,1.8
						C113,271.9,112.6,272.2,112.1,272.2L112.1,272.2z M145.8,270.5c-0.4,0-0.8-0.2-1.1-0.5c-0.4-0.6-0.3-1.4,0.3-1.8
						c1.2-0.9,2.2-1.9,3.1-3.1c0.4-0.6,1.3-0.7,1.8-0.3c0.6,0.4,0.7,1.3,0.3,1.8c-1,1.4-2.3,2.7-3.7,3.7
						C146.3,270.4,146,270.5,145.8,270.5L145.8,270.5z M104.8,265.7c-0.5,0-0.9-0.2-1.1-0.6c-0.8-1.4-1.5-3-2.1-4.7
						c-0.2-0.7,0.2-1.4,0.9-1.7c0.7-0.2,1.4,0.2,1.7,0.9c0.5,1.5,1.1,2.9,1.8,4.1c0.4,0.6,0.2,1.4-0.5,1.8
						C105.3,265.7,105,265.7,104.8,265.7L104.8,265.7z M151.5,262.6c-0.2,0-0.3,0-0.5-0.1c-0.7-0.3-1-1-0.8-1.7
						c0.5-1.3,0.9-2.8,1.2-4.4c0.1-0.7,0.8-1.2,1.5-1.1c0.7,0.1,1.2,0.8,1.1,1.5c-0.3,1.8-0.8,3.4-1.3,4.9
						C152.6,262.3,152.1,262.6,151.5,262.6L151.5,262.6z M101.8,256.4c-0.7,0-1.2-0.5-1.3-1.2c-0.2-1.6-0.3-3.2-0.3-5
						c0-0.7,0.6-1.3,1.3-1.3c0,0,0,0,0,0c0.7,0,1.3,0.6,1.3,1.3c0,1.7,0.1,3.2,0.3,4.7c0.1,0.7-0.4,1.4-1.1,1.5
						C101.9,256.4,101.8,256.4,101.8,256.4L101.8,256.4z M153.3,252.9C153.3,252.9,153.3,252.9,153.3,252.9c-0.8,0-1.4-0.6-1.3-1.4
						c0-0.6,0-1.2,0-1.9v-2.9c0-0.7,0.6-1.3,1.3-1.3c0.7,0,1.3,0.6,1.3,1.3v2.9c0,0.7,0,1.4,0,2C154.6,252.3,154,252.9,153.3,252.9
						L153.3,252.9z M101.5,246.5c-0.7,0-1.3-0.6-1.3-1.3v-4.8c0-0.7,0.6-1.3,1.3-1.3c0.7,0,1.3,0.6,1.3,1.3v4.8
						C102.8,245.9,102.2,246.5,101.5,246.5L101.5,246.5z M153.4,243c-0.7,0-1.3-0.6-1.3-1.3v-4.8c0-0.7,0.6-1.3,1.3-1.3
						c0.7,0,1.3,0.6,1.3,1.3v4.8C154.7,242.4,154.1,243,153.4,243L153.4,243z M101.5,236.6c-0.7,0-1.3-0.6-1.3-1.3v-4.8
						c0-0.7,0.6-1.3,1.3-1.3c0.7,0,1.3,0.6,1.3,1.3v4.8C102.8,236,102.2,236.6,101.5,236.6L101.5,236.6z M153.4,233.1
						c-0.7,0-1.3-0.6-1.3-1.3v-4.8c0-0.7,0.6-1.3,1.3-1.3c0.7,0,1.3,0.6,1.3,1.3v4.8C154.7,232.5,154.1,233.1,153.4,233.1
						L153.4,233.1z M101.5,226.6c-0.7,0-1.3-0.6-1.3-1.3v-4.8c0-0.7,0.6-1.3,1.3-1.3c0.7,0,1.3,0.6,1.3,1.3v4.8
						C102.8,226.1,102.2,226.6,101.5,226.6L101.5,226.6z M153.4,223.2c-0.7,0-1.3-0.6-1.3-1.3V217c0-0.7,0.6-1.3,1.3-1.3
						c0.7,0,1.3,0.6,1.3,1.3v4.8C154.7,222.6,154.1,223.2,153.4,223.2L153.4,223.2z M101.5,216.7c-0.7,0-1.3-0.6-1.3-1.3v-4.8
						c0-0.7,0.6-1.3,1.3-1.3c0.7,0,1.3,0.6,1.3,1.3v4.8C102.8,216.1,102.2,216.7,101.5,216.7L101.5,216.7z M153.4,213.3
						c-0.7,0-1.3-0.6-1.3-1.3v-4.8c0-0.7,0.6-1.3,1.3-1.3c0.7,0,1.3,0.6,1.3,1.3v4.8C154.7,212.7,154.1,213.3,153.4,213.3
						L153.4,213.3z M101.5,206.8c-0.7,0-1.3-0.6-1.3-1.3v-3.6c0-0.4,0-0.9,0-1.3c0-0.7,0.6-1.3,1.4-1.3c0.7,0,1.3,0.6,1.3,1.4
						c0,0.4,0,0.8,0,1.2v3.6C102.8,206.2,102.2,206.8,101.5,206.8L101.5,206.8z M153.4,203.3c-0.7,0-1.3-0.6-1.3-1.3v-0.1
						c0-1.6-0.1-3.2-0.2-4.6c-0.1-0.7,0.4-1.4,1.2-1.5c0.7-0.1,1.4,0.4,1.5,1.2c0.2,1.5,0.2,3.2,0.2,4.9v0.1
						C154.7,202.7,154.1,203.3,153.4,203.3L153.4,203.3z M101.9,196.9c-0.1,0-0.1,0-0.2,0c-0.7-0.1-1.2-0.8-1.1-1.5
						c0.3-1.8,0.7-3.4,1.2-4.9c0.2-0.7,1-1.1,1.7-0.8c0.7,0.2,1.1,1,0.8,1.7c-0.5,1.4-0.8,2.9-1.1,4.5
						C103.1,196.5,102.6,196.9,101.9,196.9L101.9,196.9z M152.2,193.5c-0.6,0-1.1-0.4-1.3-1c-0.4-1.5-1-3-1.7-4.2
						c-0.4-0.6-0.1-1.4,0.5-1.8c0.6-0.4,1.4-0.1,1.8,0.5c0.8,1.4,1.4,3,1.9,4.8c0.2,0.7-0.2,1.4-0.9,1.6
						C152.4,193.5,152.3,193.5,152.2,193.5L152.2,193.5z M105.3,187.7c-0.3,0-0.5-0.1-0.7-0.2c-0.6-0.4-0.8-1.2-0.4-1.8
						c1-1.5,2.2-2.8,3.5-3.8c0.6-0.5,1.4-0.4,1.9,0.2c0.5,0.6,0.4,1.4-0.2,1.9c-1.1,0.9-2.1,2-3,3.3
						C106.1,187.5,105.7,187.7,105.3,187.7L105.3,187.7z M147.3,185c-0.3,0-0.7-0.1-0.9-0.4c-1-1-2.3-1.9-3.6-2.5
						c-0.7-0.3-0.9-1.1-0.6-1.8c0.3-0.6,1.1-0.9,1.8-0.6c1.6,0.8,3,1.8,4.3,3c0.5,0.5,0.5,1.3,0,1.9C148,184.9,147.7,185,147.3,185
						L147.3,185z M112.9,181.6c-0.5,0-1-0.3-1.2-0.8c-0.3-0.7,0.1-1.4,0.7-1.7c1.5-0.6,3.1-1.1,4.9-1.4c0.7-0.1,1.4,0.3,1.5,1.1
						c0.1,0.7-0.3,1.4-1.1,1.5c-1.6,0.3-3.1,0.7-4.4,1.2C113.2,181.6,113.1,181.6,112.9,181.6L112.9,181.6z M138.6,180.6
						c-0.1,0-0.2,0-0.3,0c-1.4-0.3-2.9-0.6-4.6-0.7c-0.7-0.1-1.3-0.7-1.2-1.4c0.1-0.7,0.7-1.3,1.4-1.2c1.8,0.1,3.4,0.4,5,0.7
						c0.7,0.2,1.2,0.9,1,1.6C139.8,180.2,139.2,180.6,138.6,180.6L138.6,180.6z M122.6,179.8c-0.7,0-1.3-0.6-1.3-1.3
						c0-0.7,0.5-1.3,1.3-1.4c0.5,0,0.9,0,1.4,0h4.8c0.7,0,1.3,0.6,1.3,1.3c0,0.7-0.6,1.3-1.3,1.3h-4.8
						C123.5,179.8,123,179.8,122.6,179.8C122.6,179.8,122.6,179.8,122.6,179.8L122.6,179.8z"/>
				</g>
				<g>
					<path class="st6" d="M129.7,259.3c-0.7,0-1.3-0.6-1.3-1.3c0-0.7,0.5-1.3,1.3-1.4c1.6-0.1,2.8-0.5,3.5-1.2
						c0.5-0.5,1.3-0.5,1.9,0c0.5,0.5,0.5,1.3,0,1.9C133.8,258.6,132,259.2,129.7,259.3C129.7,259.3,129.7,259.3,129.7,259.3
						L129.7,259.3z M124.3,259.3c0,0-0.1,0-0.1,0c-2.3-0.3-4-1.2-5.1-2.8c-0.4-0.6-0.3-1.4,0.3-1.8c0.6-0.4,1.4-0.3,1.8,0.3
						c0.7,0.9,1.7,1.5,3.2,1.6c0.7,0.1,1.2,0.7,1.2,1.5C125.6,258.8,125,259.3,124.3,259.3L124.3,259.3z M135.8,252.8
						C135.8,252.8,135.8,252.8,135.8,252.8c-0.8,0-1.4-0.7-1.3-1.4c0-0.2,0-0.4,0-0.6v-4.2c0-0.7,0.6-1.3,1.3-1.3
						c0.7,0,1.3,0.6,1.3,1.3v4.2c0,0.3,0,0.5,0,0.7C137.1,252.2,136.5,252.8,135.8,252.8L135.8,252.8z M119,252
						c-0.7,0-1.3-0.6-1.3-1.3v-4.8c0-0.7,0.6-1.3,1.3-1.3c0.7,0,1.3,0.6,1.3,1.3v4.8C120.3,251.4,119.7,252,119,252L119,252z
						 M135.9,242.6c-0.7,0-1.3-0.6-1.3-1.3v-4.8c0-0.7,0.6-1.3,1.3-1.3c0.7,0,1.3,0.6,1.3,1.3v4.8
						C137.2,242,136.6,242.6,135.9,242.6L135.9,242.6z M119,241.8c-0.7,0-1.3-0.6-1.3-1.3v-4.8c0-0.7,0.6-1.3,1.3-1.3
						c0.7,0,1.3,0.6,1.3,1.3v4.8C120.3,241.2,119.7,241.8,119,241.8L119,241.8z M135.9,232.4c-0.7,0-1.3-0.6-1.3-1.3v-4.8
						c0-0.7,0.6-1.3,1.3-1.3c0.7,0,1.3,0.6,1.3,1.3v4.8C137.2,231.8,136.6,232.4,135.9,232.4L135.9,232.4z M119,231.6
						c-0.7,0-1.3-0.6-1.3-1.3v-4.8c0-0.7,0.6-1.3,1.3-1.3c0.7,0,1.3,0.6,1.3,1.3v4.8C120.3,231,119.7,231.6,119,231.6L119,231.6z
						 M135.9,222.3c-0.7,0-1.3-0.6-1.3-1.3v-4.8c0-0.7,0.6-1.3,1.3-1.3c0.7,0,1.3,0.6,1.3,1.3v4.8
						C137.2,221.7,136.6,222.3,135.9,222.3L135.9,222.3z M119,221.4c-0.7,0-1.3-0.6-1.3-1.3v-4.8c0-0.7,0.6-1.3,1.3-1.3
						c0.7,0,1.3,0.6,1.3,1.3v4.8C120.3,220.8,119.7,221.4,119,221.4L119,221.4z M135.9,212.1c-0.7,0-1.3-0.6-1.3-1.3v-4.8
						c0-0.7,0.6-1.3,1.3-1.3c0.7,0,1.3,0.6,1.3,1.3v4.8C137.2,211.5,136.6,212.1,135.9,212.1L135.9,212.1z M119,211.2
						c-0.7,0-1.3-0.6-1.3-1.3v-4.9c0-0.7,0.6-1.3,1.3-1.3c0.7,0,1.3,0.6,1.3,1.3v4.9C120.3,210.7,119.7,211.2,119,211.2L119,211.2z
						 M135.9,202.1c-0.7,0-1.3-0.6-1.3-1.3c0-1.7-0.3-3.1-0.8-4c-0.4-0.6-0.2-1.4,0.4-1.8c0.6-0.4,1.4-0.2,1.8,0.4
						c0.8,1.4,1.2,3.1,1.2,5.4C137.2,201.5,136.6,202.1,135.9,202.1L135.9,202.1z M119,201.1C119,201.1,118.9,201.1,119,201.1
						c-0.8-0.1-1.4-0.7-1.3-1.4c0.2-2.3,0.8-4,2-5.3c0.5-0.5,1.3-0.6,1.9-0.1c0.5,0.5,0.6,1.3,0.1,1.9c-0.7,0.8-1.2,2-1.3,3.7
						C120.3,200.5,119.7,201.1,119,201.1L119,201.1z M130.4,194.9c0,0-0.1,0-0.1,0c-0.3,0-0.6,0-1,0h-3.7c-0.7,0-1.3-0.6-1.3-1.3
						c0-0.7,0.6-1.3,1.3-1.3h3.7c0.4,0,0.8,0,1.2,0.1c0.7,0.1,1.3,0.7,1.2,1.4C131.6,194.4,131,194.9,130.4,194.9L130.4,194.9z"/>
				</g>
			</g>
			<path class="st6" d="M431,273.3h-13.2c-2.7,0-4.1-1.3-4.1-4v-34.1c0-0.7-0.1-0.9-0.1-0.9c0,0-0.1-0.1-0.8-0.1h-11.3
				c-0.6,0-0.8,0.1-0.8,0.1h0c0,0-0.1,0.2-0.1,0.9v34.1c0,2.7-1.3,4-4.1,4h-13.1c-2.7,0-4.1-1.3-4.1-4v-87c0-2.7,1.3-4,4.1-4h13.1
				c2.7,0,4.1,1.3,4.1,4v32.6c0,0.7,0.1,0.9,0.1,0.9c0,0,0.1,0.1,0.8,0.1h11.3c0.6,0,0.8-0.1,0.8-0.1l0,0c0,0,0.1-0.2,0.1-0.9v-32.6
				c0-2.7,1.3-4,4.1-4H431c2.7,0,4.1,1.3,4.1,4v87C435.1,272,433.8,273.3,431,273.3L431,273.3z M401.6,231.6h11.3
				c2.5,0,3.7,1.2,3.7,3.6v34.1c0,1.3,0.2,1.3,1.3,1.3H431c1.1,0,1.3,0,1.3-1.3v-87c0-1.3-0.2-1.3-1.3-1.3h-13.2
				c-1.1,0-1.3,0-1.3,1.3v32.6c0,2.4-1.2,3.6-3.7,3.6h-11.3c-2.5,0-3.7-1.2-3.7-3.6v-32.6c0-1.3-0.2-1.3-1.3-1.3h-13.1
				c-1.1,0-1.3,0-1.3,1.3v87c0,1.3,0.2,1.3,1.3,1.3h13.1c1.1,0,1.3,0,1.3-1.3v-34.1C397.9,232.7,399.1,231.6,401.6,231.6
				L401.6,231.6z"/>
			<path class="st6" d="M547.6,269.3c0,1.9-0.7,2.7-2.7,2.7h-13.2c-2,0-2.7-0.8-2.7-2.7v-83.2c0-4.7,1.6-6.5,6.6-6.5h19.8
				c16.3,0,23.8,7.7,23.8,23.5v11.5c0,15.7-7.5,23.5-23.8,23.5h-5.5c-1.7,0-2.3,0.6-2.3,2.3V269.3z M547.6,220.7
				c0,1.6,0.5,2.3,2.3,2.3h3.9c4.6,0,7-2.2,7-7.2v-13.8c0-5.1-2.4-7.2-7-7.2h-3.9c-1.7,0-2.3,0.6-2.3,2.3V220.7z"/>
			<g>
				<g>
					<ellipse class="st6" cx="330.1" cy="180.8" rx="2.2" ry="2.1"/>
				</g>
				<g>
					<ellipse class="st6" cx="336.8" cy="180.8" rx="2.2" ry="2.1"/>
				</g>
				<g>
					<ellipse class="st6" cx="343.5" cy="180.8" rx="2.2" ry="2.1"/>
				</g>
				<g>
					<ellipse class="st6" cx="350.1" cy="180.8" rx="2.2" ry="2.1"/>
				</g>
				<g>
					<ellipse class="st6" cx="330.1" cy="187.2" rx="2.2" ry="2.1"/>
				</g>
				<g>
					<ellipse class="st6" cx="336.8" cy="187.2" rx="2.2" ry="2.1"/>
				</g>
				<g>
					<ellipse class="st6" cx="343.5" cy="187.2" rx="2.2" ry="2.1"/>
				</g>
				<g>
					<ellipse class="st6" cx="350.1" cy="187.2" rx="2.2" ry="2.1"/>
				</g>
				<g>
					<ellipse class="st6" cx="356.8" cy="187.2" rx="2.2" ry="2.1"/>
				</g>
				<g>
					<ellipse class="st6" cx="316.7" cy="193.6" rx="2.2" ry="2.1"/>
				</g>
				<g>
					<ellipse class="st6" cx="323.4" cy="193.6" rx="2.2" ry="2.1"/>
				</g>
				<g>
					<ellipse class="st6" cx="330.1" cy="193.6" rx="2.2" ry="2.1"/>
				</g>
				<g>
					<ellipse class="st6" cx="350.1" cy="193.6" rx="2.2" ry="2.1"/>
				</g>
				<g>
					<ellipse class="st6" cx="356.8" cy="193.6" rx="2.2" ry="2.1"/>
				</g>
				<g>
					<ellipse class="st6" cx="363.5" cy="193.6" rx="2.2" ry="2.1"/>
				</g>
				<g>
					<ellipse class="st6" cx="316.7" cy="200" rx="2.2" ry="2.1"/>
				</g>
				<g>
					<ellipse class="st6" cx="323.4" cy="200" rx="2.2" ry="2.1"/>
				</g>
				<g>
					<ellipse class="st6" cx="330.1" cy="200" rx="2.2" ry="2.1"/>
				</g>
				<g>
					<ellipse class="st6" cx="350.1" cy="200" rx="2.2" ry="2.1"/>
				</g>
				<g>
					<ellipse class="st6" cx="356.8" cy="200" rx="2.2" ry="2.1"/>
				</g>
				<g>
					<ellipse class="st6" cx="363.5" cy="200" rx="2.2" ry="2.1"/>
				</g>
				<g>
					<ellipse class="st6" cx="316.7" cy="206.4" rx="2.2" ry="2.1"/>
				</g>
				<g>
					<ellipse class="st6" cx="323.4" cy="206.4" rx="2.2" ry="2.1"/>
				</g>
				<g>
					<ellipse class="st6" cx="330.1" cy="206.4" rx="2.2" ry="2.1"/>
				</g>
				<g>
					<ellipse class="st6" cx="316.7" cy="212.8" rx="2.2" ry="2.1"/>
				</g>
				<g>
					<ellipse class="st6" cx="323.4" cy="212.8" rx="2.2" ry="2.1"/>
				</g>
				<g>
					<ellipse class="st6" cx="330.1" cy="212.8" rx="2.2" ry="2.1"/>
				</g>
				<g>
					<ellipse class="st6" cx="336.8" cy="212.8" rx="2.2" ry="2.1"/>
				</g>
				<g>
					<ellipse class="st6" cx="323.4" cy="219.2" rx="2.2" ry="2.1"/>
				</g>
				<g>
					<ellipse class="st6" cx="330.1" cy="219.2" rx="2.2" ry="2.1"/>
				</g>
				<g>
					<ellipse class="st6" cx="336.8" cy="219.2" rx="2.2" ry="2.1"/>
				</g>
				<g>
					<ellipse class="st6" cx="343.5" cy="219.2" rx="2.2" ry="2.1"/>
				</g>
				<g>
					<ellipse class="st6" cx="330.1" cy="225.6" rx="2.2" ry="2.1"/>
				</g>
				<g>
					<ellipse class="st6" cx="336.8" cy="225.6" rx="2.2" ry="2.1"/>
				</g>
				<g>
					<ellipse class="st6" cx="343.5" cy="225.6" rx="2.2" ry="2.1"/>
				</g>
				<g>
					<ellipse class="st6" cx="350.1" cy="225.6" rx="2.2" ry="2.1"/>
				</g>
				<g>
					<ellipse class="st6" cx="336.8" cy="232" rx="2.2" ry="2.1"/>
				</g>
				<g>
					<ellipse class="st6" cx="343.5" cy="232" rx="2.2" ry="2.1"/>
				</g>
				<g>
					<ellipse class="st6" cx="350.1" cy="232" rx="2.2" ry="2.1"/>
				</g>
				<g>
					<ellipse class="st6" cx="356.8" cy="232" rx="2.2" ry="2.1"/>
				</g>
				<g>
					<ellipse class="st6" cx="343.5" cy="238.4" rx="2.2" ry="2.1"/>
				</g>
				<g>
					<ellipse class="st6" cx="350.1" cy="238.4" rx="2.2" ry="2.1"/>
				</g>
				<g>
					<ellipse class="st6" cx="356.8" cy="238.4" rx="2.2" ry="2.1"/>
				</g>
				<g>
					<ellipse class="st6" cx="363.5" cy="238.4" rx="2.2" ry="2.1"/>
				</g>
				<g>
					<ellipse class="st6" cx="316.7" cy="244.8" rx="2.2" ry="2.1"/>
				</g>
				<g>
					<ellipse class="st6" cx="323.4" cy="244.8" rx="2.2" ry="2.1"/>
				</g>
				<g>
					<ellipse class="st6" cx="330.1" cy="244.8" rx="2.2" ry="2.1"/>
				</g>
				<g>
					<ellipse class="st6" cx="350.1" cy="244.8" rx="2.2" ry="2.1"/>
				</g>
				<g>
					<ellipse class="st6" cx="356.8" cy="244.8" rx="2.2" ry="2.1"/>
				</g>
				<g>
					<ellipse class="st6" cx="363.5" cy="244.8" rx="2.2" ry="2.1"/>
				</g>
				<g>
					<ellipse class="st6" cx="316.7" cy="251.2" rx="2.2" ry="2.1"/>
				</g>
				<g>
					<ellipse class="st6" cx="323.4" cy="251.2" rx="2.2" ry="2.1"/>
				</g>
				<g>
					<ellipse class="st6" cx="330.1" cy="251.2" rx="2.2" ry="2.1"/>
				</g>
				<g>
					<ellipse class="st6" cx="350.1" cy="251.2" rx="2.2" ry="2.1"/>
				</g>
				<g>
					<ellipse class="st6" cx="356.8" cy="251.2" rx="2.2" ry="2.1"/>
				</g>
				<g>
					<ellipse class="st6" cx="363.5" cy="251.2" rx="2.2" ry="2.1"/>
				</g>
				<g>
					<ellipse class="st6" cx="316.7" cy="257.6" rx="2.2" ry="2.1"/>
				</g>
				<g>
					<ellipse class="st6" cx="323.4" cy="257.6" rx="2.2" ry="2.1"/>
				</g>
				<g>
					<ellipse class="st6" cx="330.1" cy="257.6" rx="2.2" ry="2.1"/>
				</g>
				<g>
					<ellipse class="st6" cx="350.1" cy="257.6" rx="2.2" ry="2.1"/>
				</g>
				<g>
					<ellipse class="st6" cx="356.8" cy="257.6" rx="2.2" ry="2.1"/>
				</g>
				<g>
					<ellipse class="st6" cx="363.5" cy="257.6" rx="2.2" ry="2.1"/>
				</g>
				<g>
					<ellipse class="st6" cx="323.4" cy="263.9" rx="2.2" ry="2.1"/>
				</g>
				<g>
					<ellipse class="st6" cx="330.1" cy="263.9" rx="2.2" ry="2.1"/>
				</g>
				<g>
					<ellipse class="st6" cx="336.8" cy="263.9" rx="2.2" ry="2.1"/>
				</g>
				<g>
					<ellipse class="st6" cx="343.5" cy="263.9" rx="2.2" ry="2.1"/>
				</g>
				<g>
					<ellipse class="st6" cx="350.1" cy="263.9" rx="2.2" ry="2.1"/>
				</g>
				<g>
					<ellipse class="st6" cx="356.8" cy="263.9" rx="2.2" ry="2.1"/>
				</g>
				<g>
					<ellipse class="st6" cx="330.1" cy="270.3" rx="2.2" ry="2.1"/>
				</g>
				<g>
					<ellipse class="st6" cx="336.8" cy="270.3" rx="2.2" ry="2.1"/>
				</g>
				<g>
					<ellipse class="st6" cx="343.5" cy="270.3" rx="2.2" ry="2.1"/>
				</g>
				<g>
					<ellipse class="st6" cx="350.1" cy="270.3" rx="2.2" ry="2.1"/>
				</g>
			</g>
			<g>
				<g>
					<path class="st6" d="M260.3,273.3h-12.9c-2.7,0-4-1.3-4-4v-87c0-2.7,1.3-4,4-4h12.9c2.7,0,4,1.3,4,4v87
						C264.3,272,263,273.3,260.3,273.3L260.3,273.3z M247.4,180.9c-1.1,0-1.3,0-1.3,1.3v87c0,1.3,0.2,1.3,1.3,1.3h12.9
						c1.1,0,1.3,0,1.3-1.3v-87c0-1.3-0.2-1.3-1.3-1.3H247.4L247.4,180.9z"/>
				</g>
				<g>
					<path class="st6" d="M268.3,225.1c0-2.6,1.6-7.5,1.6-7.5l10.5-35.3c0.5-1.9,1.6-2.7,3.7-2.7h12.4c2.2,0,2.9,0.9,2.2,2.9
						l-12.2,37.8c-1.2,3.7-0.9,4.8,0.1,8.2l13,40.5c0.7,2.2,0,2.9-2.2,2.9h-13.2c-2.1,0-3.2-0.8-3.7-2.7l-10.8-37
						C269.7,232.3,268.3,227.6,268.3,225.1z"/>
				</g>
			</g>
			<path class="st6" d="M225.4,268.5c-0.7-3.2-1.1-6.5-1.1-10v-14.3c0-8.9-2.8-14-9.4-16.9c5.8-2.9,8.8-9.2,8.8-18.8v-5.3
				c0-16.7-7.8-24.8-23.8-24.8h-19.2c-5.4,0-7.5,2.3-7.5,7.8v83.2c0,2.7,1.3,4,3.9,4h12.4c2.6,0,3.9-1.3,3.9-4v-31.8
				c0-0.7,0.1-0.9,0.1-0.9c0,0,0.1-0.1,0.7-0.1h4.4c2.9,0,5.5,0.9,5.5,7.1v15.6c0,3.5,0.5,7.5,1.3,10.2c0.8,2.5,1.8,4,4.7,4h11.5
				c1.5,0,2.6-0.4,3.2-1.2C225.8,270.9,225.6,269.5,225.4,268.5z M198,219.4h-3.8c-0.5,0-0.7-0.1-0.7-0.1c0,0-0.1-0.2-0.1-0.9v-21.2
				c0-0.7,0.1-0.9,0.1-0.9c0,0,0.1-0.1,0.7-0.1h4.1c3.7,0,5.3,1.7,5.3,5.9v11.2C203.5,217.5,201.7,219.4,198,219.4z M196.3,193.6
				l-3.7-12.7h2.6l3.7,12.7c-0.2,0-0.4,0-0.7,0H196.3z M193.5,193.7c-1,0.1-1.8,0.5-2.3,1.2l-4.1-14h2.6L193.5,193.7z M190.7,202.3
				v8.9l-8.9-30.3h2.6L190.7,202.3z M205.7,216.8l15.8,53.8h-2.6l-14.9-50.8C204.7,219.1,205.3,218,205.7,216.8z M221.6,243.6
				l-3.1-10.5C220.6,235.5,221.5,238.9,221.6,243.6z M215.8,223.5l-12.4-42.5c0.9,0.1,1.9,0.2,2.7,0.4l11.7,40
				C217.2,222.2,216.5,222.9,215.8,223.5z M209,182.2c1.1,0.3,2.1,0.8,3,1.3l8.7,29.7c-0.2,1.8-0.6,3.5-1.2,4.9L209,182.2z
				 M221,203.1v1.7l-5.5-18.8C219.2,189.7,221,195.3,221,203.1z M200.5,180.9l12.9,44.1c-1,0.5-1.6,1.4-1.6,2.3c0,1,0.7,1.8,1.7,2.2
				c0.5,0.2,1,0.5,1.4,0.7l6.7,22.8v5.5c0,1.4,0.1,2.7,0.2,4.1L206.1,209v-6.8c0-4.7-1.9-7-4.3-7.9l-3.9-13.3h2
				C200.1,180.9,200.3,180.9,200.5,180.9z M175.8,233.7v-8.9l13.4,45.8h-2.6L175.8,233.7z M183.9,270.6h-2.6l-5.4-18.6v-8.9
				L183.9,270.6z M175.8,215.4v-8.9l14.9,50.8v8.9L175.8,215.4z M175.8,197.1v-8.9l14.9,50.8v8.9L175.8,197.1z M175.8,269.3v-7.8
				l2.7,9.2H177C176,270.6,175.8,270.6,175.8,269.3z M192.1,234.3L176.8,182c0.5-0.6,1.3-0.9,2.3-1l15.5,52.8h-0.4
				C193.3,233.8,192.6,234,192.1,234.3z M197.3,233.8l-3.5-11.8c0.1,0,0.2,0,0.3,0h2.3l3.5,11.9c-0.4,0-0.9-0.1-1.3-0.1H197.3z
				 M203,234.8l-3.8-12.8c0.9-0.1,1.7-0.3,2.4-0.6l14.4,49.3h-2.6l-6.7-22.8v-4.3C206.8,239.1,205.5,236.2,203,234.8z M208,268.5
				c-0.7-2.5-1.2-6.1-1.2-9.4v-1.9l3.9,13.4h-0.5C209.1,270.6,208.6,270.6,208,268.5z"/>
		</g>
		<g>
			<g>
				<g>
					<path class="st6" d="M297,88.6c-42,0-76.3,33.5-77.6,75.1h0c0,2.4-1.4,4.4-3.2,4.4c-1.8,0-3.2-2-3.2-4.4l0,0l0,0
						c1.4-45.3,38.5-81.6,84.1-81.6c45.6,0,82.8,36.3,84.1,81.6l0,0l0,0c0,2.4-1.5,4.4-3.2,4.4c-1.8,0-3.2-2-3.2-4.4h0
						C373.2,122,339,88.6,297,88.6L297,88.6z"/>
				</g>
				<path class="st6" d="M297.4,16.1c-81.9,0-148.8,66-150.2,147.6h0c0,2.4-1.5,4.4-3.2,4.4c-1.8,0-3.2-2-3.2-4.4l0,0h0
					C142.1,78.4,211.9,9.6,297.4,9.6c85.5,0,155.3,68.9,156.7,154.1h0l0,0c0,2.4-1.5,4.4-3.2,4.4c-1.8,0-3.2-2-3.2-4.4h0
					C446.2,82,379.4,16.1,297.4,16.1L297.4,16.1z"/>
			</g>
			<g>
				<path class="st6" d="M186.8,136.3c-0.5-0.1-1-0.1-1.5-0.1c-2.9,0-5.4,1.5-6.6,3.8c-0.5-2.3-2.8-4.2-5.4-4.7
					c-5.4-0.9-8.8,2.5-10,10.1l-1.6,9.8l30.1,4.8l2-12.3c0.5-3.4,0.1-6.2-1.4-8.2C190.7,137.3,188.4,136.6,186.8,136.3z M169,146.2
					c0.4-2.4,1.6-3.9,3.2-3.9c0.1,0,0.3,0,0.4,0c1,0.2,1.7,0.6,2.2,1.2c0.5,0.8,0.7,2,0.4,3.6l-0.5,2.9l-6.2-1L169,146.2z
					 M180.4,151l0.6-3.7c0.5-3.3,1.8-4.6,4.2-4.2c1,0.2,1.8,0.7,2.1,1.6c0.3,0.8,0.4,1.9,0.2,3.2l-0.7,4.1L180.4,151z"/>
				<path class="st6" d="M195.9,108.4l-16.2-7.7l-0.2-0.1l-3,6.4l15.9,7.5c4.3,2,5.3,4,3.7,7.4c-1.1,2.3-2.4,3.3-4.3,3.3
					c-1.1,0-2.4-0.4-3.9-1.1l-15.7-7.5l-0.2-0.1l-3,6.4l16.4,7.8c2.1,1,4.1,1.5,6,1.5c4.5,0,8.1-2.6,10.4-7.6
					c1.8-3.8,2-7.2,0.7-10.2C201.3,112,199,109.9,195.9,108.4z"/>
				
					<rect x="196.4" y="82.7" transform="matrix(0.6014 -0.799 0.799 0.6014 1.4594 198.7768)" class="st6" width="7.1" height="30.5"/>
				<polygon class="st6" points="219.5,89.7 202.6,72.1 197.4,77 218.4,98.9 218.5,99 231.4,86.7 227.2,82.3 				"/>
				<path class="st6" d="M249,58.6c-3.3-5.4-7.4-8.1-12.3-8.1c-3.2,0-6.8,1.2-10.6,3.5l-7.2,4.3l15.7,26.1l8.9-5.4
					C252.6,73.6,252.8,64.9,249,58.6z M239.5,74.4l-1.8,1.1l-9.6-15.9l1.1-0.7c2.2-1.3,4.3-2,6.2-2c3,0,5.5,1.6,7.4,4.9
					C245.6,66.7,244.4,71.5,239.5,74.4z"/>
				
					<rect x="261.4" y="49.5" transform="matrix(0.9679 -0.2513 0.2513 0.9679 -4.598 68.758)" class="st6" width="10.9" height="5.8"/>
				<path class="st6" d="M297.8,32.6l-15.6,31.9l7.5,0.1l3.2-6.8l8.9,0.1l3,6.9l7.6,0.1l-14.5-32L297.8,32.6z M299.8,52.7l-4.7-0.1
					l2.3-4.9L299.8,52.7z"/>
				
					<rect x="325" y="47.1" transform="matrix(0.258 -0.9661 0.9661 0.258 192.4909 355.8588)" class="st6" width="5.8" height="10.9"/>
				<path class="st6" d="M364.2,68.5c2.3,0.3,5-1.2,6.3-3.4c2.7-4.8,0.8-9.1-5.9-12.9l-8.6-4.9l-15.1,26.5l10.8,6.2
					c2.1,1.2,4.2,1.8,6,1.8c4,0,6.2-2.7,7.1-4.3C366.8,73.8,365.9,70.4,364.2,68.5z M359,73.5c-1,1.8-2.8,1.9-5.3,0.5l-3.6-2.1
					l3.2-5.7l3.2,1.9C359.4,69.8,360.2,71.4,359,73.5z M356.1,61.2l3.1-5.5l2.5,1.4c1.3,0.7,2.1,1.6,2.5,2.5
					c0.3,0.8,0.2,1.5-0.2,2.2c-0.6,1.1-1.5,1.7-2.5,1.7l0,0c-0.8,0-1.8-0.3-2.9-0.9L356.1,61.2z"/>
				<polygon class="st6" points="373,88.4 377.5,83.5 384.5,90 388.4,85.8 381.4,79.3 385.6,74.7 393.6,82 397.5,77.7 384.3,65.6 
					363.7,88 377.5,100.8 381.6,96.3 				"/>
				<path class="st6" d="M379.8,102.2l-0.3,0l3.8,6.5l7.5-0.8l4.5,7.6l-4.3,6.2l3.8,6.5l19.9-29.4L379.8,102.2z M401.8,106.3l-3,4.7
					l-2.4-4.1L401.8,106.3z"/>
				<path class="st6" d="M429.3,136.4l-2.6-9.9l-29.3,7.8l-0.2,0l1.8,6.9l13.3-3.5l-10.9,12.2l-0.1,0.1l2.3,8.7l10.1-12.7
					c1.4,2.5,3.8,4,6.6,4.1c1,0,2-0.1,3-0.4C429,148.1,431.2,143.2,429.3,136.4z M421.5,142.7c-0.5,0.1-1,0.2-1.4,0.2
					c-1.7-0.1-2.9-1.2-3.5-3.4l-0.8-2.9l7-1.9l0.8,2.8C424.4,140.3,423.6,142.2,421.5,142.7z"/>
				<g>
					<path class="st6" d="M430.9,154.9l-0.3-1.5l-4.2,0.9l-0.2-1.1l4.2-0.9l-0.4-1.6l1-0.2l1.2,5.2l-3,2.3l3.7,0.8l0.2,0.9l-5,1.8
						l-0.2-1.1l3.2-1.1l-3-0.7l-0.2-0.8l2.4-1.9l-3.4,0.3l-0.2-1.1L430.9,154.9z"/>
				</g>
			</g>
		</g>
		<g>
			<path class="st7" d="M354.4,165.6c3.3-7.2,5.7-15.2,5.6-23.2l0,0c12-4.2,19.5-16.7,17.1-29.6c-2.7-14.2-16.4-23.6-30.6-20.9
				c-6,1.1-11.2,4.3-14.9,8.6c-3.5-0.7-9.5-1.8-17-2.1c-3.3-2.8-10.2-7.7-16-6.1c0,0-1.2,0.3-0.1,1.1c0.1,0,0.1,0.1,0.2,0.1
				c0.7,0.5,1.3,0.9,1.8,1.3c1.1,0.8,1.8,1.4,2.3,1.9c0.3,0.3,0.5,0.5,0.5,0.5c0,0,0,0,0,0c0.2,0.3,0.2,0.6,0.2,0.7
				c-0.1,0.3-0.4,0.4-0.6,0.5c-0.1,0-0.2,0-0.3,0c-7-3.3-14.7-4.3-21.7-3c-1.4,0.3-2.7,0.6-4.1,1.1c-1,0.5-1.4,1.1-0.9,1.8
				c0.4,0.6,5.9,1.7,8.4,3.2c-15.9,3.9-27.8,10.8-33,14.1c-5-2.6-10.9-3.6-16.8-2.4c-14.2,2.7-23.6,16.4-20.9,30.6
				c2.4,12.9,14,21.8,26.7,21.3v0c1.9,6.1,8.9,17.3,21.3,25c0,0,16.1,12,40.8,9.9C333.5,197.3,350.2,174.5,354.4,165.6z"/>
			<g>
				<path class="st8" d="M323.1,153.9c-6.2-6.7-15.7-15-25.6-13.1c-9.9,1.7-15.9,12.9-19.3,21.3c-3.3,8.1-6.7,21,1,27.6
					c7.4,6.3,18.8,6,28,4.7c9.2-1.6,19.9-5.8,24.6-14.2C336.8,171.3,329.1,160.3,323.1,153.9"/>
			</g>
			<g>
				<path class="st6" d="M298.5,145.6c-8.9,1.7-12.3,4-7.5,9.2c2.8,3.1,6.8,4.6,9.9,4c3.1-0.5,6.2-3.3,7.9-7.2
					C311.4,145.1,307.4,144.1,298.5,145.6"/>
				<path class="st6" d="M317.1,173.7c-0.2-0.1-0.4,0-0.6,0.1c-0.8,0.6-3.5,2.6-6.3,3.4c-3,0.8-5.2,0-6.5-2.6
					c-0.1-0.2-0.3-0.3-0.5-0.2c-0.1,0-0.2,0.1-0.3,0.2c0,0,0,0,0,0c-1.2,2.1-2.6,3.4-4.2,3.8c-1.3,0.3-2.6,0.2-3.7,0
					c-3.1-0.5-5.5-2.5-7-5.6c-0.2-0.3-0.5-0.3-0.5-0.3c-0.2,0.1-0.3,0.3-0.4,0.3c0,0,0,0.1,0,0.1c0.6,4.5,5.6,7.5,9.9,8.5
					c1,0.2,2,0.4,2.9,0.4c1,0.1,1.9,0,3-0.1c1.3-0.2,2.7-0.4,3.9-0.7c4.6-1.2,8.1-3.6,10.4-6.9c0-0.1,0.1-0.2,0-0.2
					C317.3,173.9,317.2,173.8,317.1,173.7"/>
				<path class="st6" d="M274.9,120.7c-0.2,0-0.5,0.1-0.7,0.3c-6.7,3.8-4.9,9.9-4.9,10c0,0.1,0.1,0.1,0.1,0.1c0,0,0.2,0.1,0.4,0
					c0.1,0,0.2-0.1,0.3-0.2c1.6-4.2,6.1-7,6.2-7c0.6-0.4,0.9-1.1,0.8-1.8C276.8,121.2,275.8,120.5,274.9,120.7"/>
				<path class="st6" d="M312,114c0.2,0,0.5,0,0.8,0c7.6,1.2,8.1,7.6,8.1,7.7c0,0.1,0,0.1-0.1,0.2c0,0-0.2,0.1-0.3,0.2
					c-0.1,0-0.3,0-0.3-0.1c-3-3.4-8.2-4.5-8.2-4.5c-0.7-0.2-1.2-0.7-1.3-1.4C310.4,115.1,311.1,114.2,312,114"/>
			</g>
			<path class="st6" d="M234.5,127.1c-0.3-0.7-1.1-1.3-2-1.1c-0.2,0-0.5,0.1-0.7,0.3c-3.6,2.2-5.6,5.8-5.8,10.3
				c-0.1,3.4,0.8,6.1,0.8,6.2c0,0,0,0,0,0c0.1,0.3,0.4,0.4,0.6,0.4c0.3,0,0.5-0.3,0.5-0.5c0.2-5.6,2.5-10.7,6.3-13.9
				C234.8,128.4,234.8,127.7,234.5,127.1"/>
			<path class="st6" d="M351.9,105.9c0.1-0.8,0.5-1.6,1.5-1.8c0.2,0,0.5,0,0.8,0c4.2,0.8,7.3,3.4,9.1,7.6c1.3,3.1,1.4,6,1.4,6.1
				c0,0,0,0,0,0c0,0.4-0.3,0.5-0.5,0.6c-0.3,0-0.6-0.1-0.7-0.3c-2.1-5.2-6.1-9.1-10.8-10.7C352.1,107.2,351.8,106.6,351.9,105.9"/>
			<path class="st8" d="M311.1,127c2.3-0.2,4.5,2,5.1,5.2c0.6,3.3-1,6.6-3.6,6.8c-2.3,0.2-4.6-2.1-5.1-5.2
				C306.8,130.1,308.7,127.2,311.1,127z"/>
			<path class="st8" d="M280.4,132.5c2.3-0.2,4.5,2,5.1,5.2c0.6,3.3-1,6.6-3.6,6.8c-2.3,0.2-4.6-2.1-5.1-5.2
				C276.1,135.6,278,132.7,280.4,132.5z"/>
			<path class="st6" d="M281.8,143c-2,0.1-3.4-2.3-3.7-4.2c0-0.1,0.1-0.1,0.1,0c0.3,0.3,0.7,0.5,1.1,0.5c1.1,0,2-1.2,2-2.7
				c0-1.8-0.9-2.5-1.1-2.6c-0.1,0,0-0.1,0-0.1h0c1.8-0.3,3.5,1.9,3.8,4.1C284.6,141.1,283.1,143,281.8,143z"/>
			<path class="st6" d="M312.5,137.6c-2,0.1-3.4-2.3-3.7-4.2c0-0.1,0.1-0.1,0.1,0c0.3,0.3,0.7,0.5,1.1,0.5c1.1,0,2-1.2,2-2.7
				c0-1.8-0.9-2.5-1.1-2.6c-0.1,0,0-0.1,0-0.1l0,0c1.8-0.3,3.5,1.9,3.8,4.1C315.3,135.6,313.8,137.5,312.5,137.6z"/>
		</g>
	</g>
</g>
</svg>
