<svg xmlns="http://www.w3.org/2000/svg" width="307.19" height="439.74" viewBox="0 0 307.19 439.74">
  <title>icons</title>
  <path d="M170.89,219.87A180.63,180.63,0,0,0,0,39.5V400.23A180.63,180.63,0,0,0,170.89,219.87Z" style="fill: #e0593e"/>
  <g>
    <path d="M92.68,340s-17.17-1.79-18.45-9.35,0.68-11.31.85-14.11S72.19,311,65.39,311,44.56,310.53,39,301.6c0,0,35.11,3.06,57.72-5.1s43.78-17.6,43.78-17.6h1s-8,5.78-7.67,10.63-0.23,8.16,2.74,8-1.19,6.29-6,8.25-8.67,9.95-8.67,9.95Z" style="fill: #ce1102"/>
    <path d="M92.84,340.55l-0.21,0c-0.72-.07-17.57-1.92-18.9-9.77a27.71,27.71,0,0,1,.4-11.67,17.76,17.76,0,0,0,.44-2.56,3.43,3.43,0,0,0-1-2.58c-1.51-1.6-4.41-2.49-8.16-2.49-5.16,0-20.85,0-26.79-9.59L38.07,301l1,0.09c0.35,0,35.26,3,57.5-5.07s43.53-17.49,43.74-17.58l0.21,0h2.59l-1.27.92c-0.08.06-7.72,5.67-7.46,10.18,0,0.83.07,1.62,0.1,2.35,0.07,2.32.13,4.15,0.87,4.83a1.6,1.6,0,0,0,1.24.33,1.27,1.27,0,0,1,1.5,1c0.44,2-3.29,6.64-7.23,8.26-4.53,1.86-8.37,9.62-8.41,9.7l-0.13.17ZM40,302.19c6,8.25,20.49,8.25,25.34,8.25,4,0,7.2,1,8.91,2.81a4.43,4.43,0,0,1,1.29,3.34,18.45,18.45,0,0,1-.46,2.72,26.8,26.8,0,0,0-.39,11.28c1.12,6.66,15.84,8.67,17.79,8.9l29.08-24.1c0.49-1,4.24-8.18,8.89-10.09,3.75-1.54,6.91-5.83,6.62-7.09,0-.07,0-0.2-0.45-0.17a2.55,2.55,0,0,1-2-.6c-1.06-1-1.12-2.89-1.2-5.55,0-.72,0-1.5-0.09-2.33-0.21-3.6,3.7-7.55,6.09-9.62-4.92,2.16-23.31,10.11-42.53,17C76.67,304.3,46.09,302.61,40,302.19Z"/>
  </g>
  <g>
    <path d="M144.25,348.48c0-.25,15.81-9.41,31.49,3.53,0,0-.51,5.14-12,3.74S144,350.46,144.25,348.48Z" style="fill: #aeb4c0"/>
    <path d="M167.47,356.51a31.29,31.29,0,0,1-3.77-.25c-10-1.22-17.75-4.32-19.53-6.61a1.67,1.67,0,0,1-.42-1.23h0c0.07-.53,2-1.37,3.16-1.83,4.69-1.85,16.92-5.07,29.16,5l0.21,0.17,0,0.27a4.09,4.09,0,0,1-1.63,2.55C173.06,355.88,170.66,356.51,167.47,356.51Zm-22.68-7.78a1.27,1.27,0,0,0,.18.29c1.36,1.75,8.28,4.93,18.85,6.22,6,0.73,8.8-.35,10.12-1.39a3.48,3.48,0,0,0,1.23-1.65C160.75,340.52,146.55,347.73,144.79,348.73Z"/>
  </g>
  <g>
    <path d="M144.25,348.48a25.82,25.82,0,0,1,17.55-3c10.06,1.87,13.76,6.53,13.76,6.53s1.25-3-4.51-6.48-11-5.78-14.68-5.48-8.22,1-8.22,1S142.6,345.87,144.25,348.48Z" style="fill: #5a6e7a"/>
    <path d="M175.7,353l-0.54-.67s-3.73-4.53-13.45-6.34a25.47,25.47,0,0,0-17.17,2.95l-0.43.28-0.28-.44c-1.84-2.9,3.38-7.59,4-8.12l0.11-.1,0.15,0s4.59-.71,8.26-1c3.42-.27,8.32,1.54,15,5.55,6.07,3.65,4.77,7,4.71,7.11Zm-18.57-8.46a26,26,0,0,1,4.76.44c7.6,1.41,11.63,4.37,13.23,5.85-0.17-1.06-1-2.86-4.33-4.86-6.48-3.9-11.19-5.66-14.38-5.41s-7.23.85-8,1c-1.39,1.24-4.3,4.35-3.87,6.24A26.31,26.31,0,0,1,157.13,344.52Z"/>
  </g>
  <g>
    <path d="M144.25,348.48a3,3,0,0,1,.16-2.88s8.44-4.94,24.59.39a16.81,16.81,0,0,1,6.16,3.38s1.09,3.11.39,2.62c-0.21-.15-6.7-6.24-15.65-6.8A30.26,30.26,0,0,0,144.25,348.48Z" style="fill: #aeb4c0"/>
    <path d="M175.68,352.55a0.72,0.72,0,0,1-.42-0.15l-0.16-.13c-2.11-1.82-7.83-6.11-15.23-6.58a30,30,0,0,0-15.36,3.23l-0.45.26-0.25-.45a3.5,3.5,0,0,1,.17-3.39l0.07-.11,0.11-.06c0.35-.21,8.83-5,25,0.35A17.16,17.16,0,0,1,175.5,349l0.1,0.09,0,0.13c1,2.79.62,3.05,0.39,3.23A0.61,0.61,0,0,1,175.68,352.55Zm-17.61-7.94q0.91,0,1.87.06c7.05,0.45,12.62,4.21,15.19,6.29-0.1-.4-0.25-0.87-0.39-1.3a16.46,16.46,0,0,0-5.85-3.18c-14.8-4.89-23.06-1-24.1-.51a2.49,2.49,0,0,0-.25,1.77A31,31,0,0,1,158.07,344.62Z"/>
  </g>
  <g>
    <path d="M78.74,353.2c0,0.26-9.86,10-10.2,19.81s3.74,8.33,8.42,5.61,15-15.39,15-15.39l0.68-.77s-5.19-.77-8.33-3.83-4.59-5.7-4.59-6S78.74,353.2,78.74,353.2Z" style="fill: #dce0e7"/>
    <path d="M71.76,381.15a3.1,3.1,0,0,1-1.62-.42c-1.59-1-2.26-3.41-2.11-7.73,0.2-5.69,3.49-12.24,9.79-19.47l0.41-.48v-0.1l0.2-.15c1-.76,1.29-0.72,1.53-0.6l0.28,0.14,0,0.36a23,23,0,0,0,4.44,5.58c3,2.91,8,3.68,8,3.69l0.93,0.14-1.31,1.47c-0.41.5-10.47,12.75-15.17,15.49C75.41,380.1,73.44,381.15,71.76,381.15Zm7.36-27.59c-0.09.13-.26,0.31-0.54,0.64-6.14,7-9.35,13.39-9.54,18.84-0.13,3.81.41,6.1,1.62,6.82,1.37,0.82,3.71-.32,6-1.67,4.54-2.64,14.8-15.14,14.91-15.27l0.1-.11A16.74,16.74,0,0,1,84,359a24.34,24.34,0,0,1-4.52-5.69Z"/>
  </g>
  <g>
    <path d="M80.6,354.21s-6.6,8.41-7.41,13.16a11.07,11.07,0,0,1,8.92,6.88l3.59-3.76s-3.18-3.86-4.79-4.83-0.17-3,1.7-2.13a14.06,14.06,0,0,1,5.4,4.38l1.43-1.65s-2.88-3.8-5-4.52S83.71,358,83.71,358Z" style="fill: #5a6e7a"/>
    <path d="M81.92,375.19l-0.29-.75a10.6,10.6,0,0,0-8.48-6.55l-0.55,0,0.09-.55c0.82-4.83,7.24-13,7.51-13.39l0.39-.5,3.71,4.52-0.12.29a3.7,3.7,0,0,0-.24,2.44,1.11,1.11,0,0,0,.7.61c2.2,0.76,5.08,4.54,5.2,4.7l0.25,0.33-2.16,2.48-0.37-.58A13.65,13.65,0,0,0,82.39,364a1.19,1.19,0,0,0-1.61.33,0.66,0.66,0,0,0,.38.9c1.67,1,4.79,4.78,4.92,4.94l0.29,0.35ZM73.8,367a11.64,11.64,0,0,1,8.48,6.38L85,370.47a28.35,28.35,0,0,0-4.37-4.37,1.65,1.65,0,0,1-.76-2.25,2.19,2.19,0,0,1,2.93-.78,15.47,15.47,0,0,1,5.23,4l0.73-.84c-1-1.19-3-3.52-4.47-4a2.11,2.11,0,0,1-1.3-1.17,4.39,4.39,0,0,1,.12-3L80.61,355C79.26,356.83,74.76,363,73.8,367Z"/>
  </g>
  <path d="M75.24,379.81a4.54,4.54,0,0,1-3.93-2.11c-1.56-2.44,1.1-9.69,1.41-10.51l1,0.36c-0.79,2.09-2.59,7.89-1.5,9.6a3.66,3.66,0,0,0,3.54,1.61l0.18,1A4,4,0,0,1,75.24,379.81Z"/>
  <g>
    <path d="M78.23,351S82.86,365.57,95,363.53c0,0,36-32.26,55.91-27.8,0,0-7.14,5.77-8.29,5.9s20.23-1.86,28.39,3.88c0,0,16.75-11,18.28-19.68s-5.61-10.37-11.56-10.54-21.85,4.42-24.57,4.17-21.59,1.53-31.54-6.12C121.66,313.33,85.37,343.43,78.23,351Z" style="fill: #5c5c5c"/>
    <path d="M92.76,364.23c-10.73,0-15-12.95-15-13.09l-0.09-.29,0.21-.22c7.08-7.5,43.12-37.4,43.48-37.7l0.31-.26,0.32,0.25c8.19,6.3,22.57,6.09,28.72,6,1.21,0,2.09,0,2.56,0,1.1,0.1,4.88-.72,8.88-1.6,5.72-1.25,12.21-2.66,15.66-2.57,5.22,0.15,8.69,1.37,10.62,3.74,1.49,1.83,2,4.32,1.43,7.4-1.55,8.79-17.81,19.56-18.5,20l-0.29.19-0.28-.2c-6.8-4.78-23.08-4.11-27.9-3.79a0.58,0.58,0,0,1-.75-0.45l0-.5,0.54-.06c0.62-.1,4-2.56,7.16-5.09-19.62-3-54,27.57-54.39,27.88l-0.11.1-0.15,0A14.31,14.31,0,0,1,92.76,364.23ZM78.81,351.12c0.72,2,5.43,13.59,16,11.93a194,194,0,0,1,20.45-15.52c15.37-10,27.41-14.18,35.81-12.3l1,0.23-0.82.66c-1.18,1-4.26,3.41-6.44,4.87,6.34-.29,19.81-0.33,26.22,3.89,2.19-1.49,16.4-11.4,17.77-19.15,0.49-2.77.08-5-1.22-6.58-1.71-2.09-5-3.23-9.86-3.36-3.31-.1-10,1.37-15.41,2.55-4.44,1-7.94,1.73-9.19,1.62-0.41,0-1.31,0-2.45,0-6.17.09-20.51,0.29-29-6C118.16,316.91,86,343.7,78.81,351.12Z"/>
  </g>
  <path d="M150.59,335.37a121.24,121.24,0,0,1,11.15-9.25c0.75-.52,1.47-1.06,2.22-1.54s1.47-1,2.21-1.4,1.43-.86,2.13-1.2l1-.53,1-.42,0.89-.39,0.84-.27a7.79,7.79,0,0,1,1.38-.37l1.23-.2-1.22.24a7.74,7.74,0,0,0-1.36.42l-0.82.3-0.88.42-1,.45-1,.56c-0.68.37-1.37,0.8-2.07,1.27s-1.42,1-2.15,1.47-1.43,1.07-2.15,1.61c-1.42,1.1-2.81,2.26-4.08,3.36s-2.44,2.16-3.43,3.09c-2,1.84-3.23,3.13-3.23,3.13Z"/>
  <g>
    <path d="M244.63,242.52s3.9-4.29,5.47-4.24a1.51,1.51,0,0,1,1.62,1.4s3.49-3.32,5.36-2.51a2.77,2.77,0,0,1,1.32,3.66s4.38,0,2.3,5.57c0,0,1.55,3.62-1.15,5.14-2.36,1.33-3.19,1-3.19,1a7.78,7.78,0,0,1-4.51,2.38,9.47,9.47,0,0,1-5.79-.89s-0.12-7.39-.76-8.92A8,8,0,0,1,244.63,242.52Z" style="fill: #e6cdb7"/>
    <path d="M250.33,255.55a10.14,10.14,0,0,1-4.52-1.1,0.51,0.51,0,0,1-.26-0.44c0-2-.23-7.55-0.72-8.74a8.51,8.51,0,0,1-.71-2.74,0.51,0.51,0,0,1,.13-0.36c0.67-.74,4.1-4.41,5.83-4.41h0a2.05,2.05,0,0,1,1.85,1c1.16-1,3.63-2.79,5.31-2.07a3,3,0,0,1,1.7,1.87,3.73,3.73,0,0,1,.1,1.83,3.35,3.35,0,0,1,2.1,1.31c0.75,1.09.77,2.66,0.05,4.67,0.56,1.46.9,4.27-1.44,5.6a6.25,6.25,0,0,1-3.25,1.08A9.11,9.11,0,0,1,250.33,255.55Zm-3.77-1.87a9,9,0,0,0,5.19.71,7.3,7.3,0,0,0,4.2-2.19,0.51,0.51,0,0,1,.6-0.15h0.12a5.8,5.8,0,0,0,2.62-1c2.27-1.28,1-4.37.93-4.5a0.51,0.51,0,0,1,0-.38c0.65-1.74.7-3.1,0.14-3.92a2.62,2.62,0,0,0-2-1,0.51,0.51,0,0,1-.44-0.77,2.44,2.44,0,0,0,.05-1.68,2,2,0,0,0-1.13-1.24c-1.14-.49-3.55,1.22-4.8,2.41a0.51,0.51,0,0,1-.86-0.35,1,1,0,0,0-1.12-.91c-0.87,0-3.36,2.22-4.93,3.91a8.49,8.49,0,0,0,.61,2.18C246.37,246.32,246.53,252.13,246.56,253.68Z"/>
  </g>
  <g>
    <path d="M175,274.4c-4.85,0-11.42-6.44-10.39-.37s13.9,18.2,17.71,15.7,11.54-16,11.54-16Z" style="fill: #eaceb6"/>
    <path d="M181.11,290.58a6.64,6.64,0,0,1-2.58-.64c-5.28-2.3-13.51-10.7-14.38-15.82-0.16-.94-0.28-2.26.52-2.89,1-.76,2.65,0,4.76.93,1.8,0.81,3.85,1.73,5.6,1.73l19.78-.71-0.46.8c-0.32.56-7.84,13.65-11.71,16.19A2.73,2.73,0,0,1,181.11,290.58Zm-15.42-18.65a0.64,0.64,0,0,0-.4.1c-0.12.1-.39,0.47-0.14,1.91,0.75,4.39,8.35,12.69,13.79,15.06,1.42,0.62,2.51.72,3.14,0.31,3.14-2.06,9.2-12.12,10.92-15l-18,.65c-2,0-4.12-1-6-1.82A11.43,11.43,0,0,0,165.69,271.93Z"/>
  </g>
  <g>
    <path d="M158.38,270.75s-25.54,4.85-26.05,23.55a8,8,0,0,0,2.81,4.63S127.06,308.83,118,310c0,0,8.69,14.39,42.49,8.22,0,0,9.49-2.87,16.89-2.95,0,0,6.46-12.45,7-14.87,4.21-2,26.52-13.9,41.57-26.9s17.55-13.39,17.55-13.39,7.4-12,0-18.87c0,0-12.84,11.14-16.92,12,0,0-32.56,16.24-33.92,16.49s-7.57,8.67-9.1,9.95-9.18,7.91-15.56-3.23S158.38,270.75,158.38,270.75Z" style="fill: #fffc80"/>
    <path d="M144.67,320.27c-20.8,0-26.83-9.51-27.13-10a0.49,0.49,0,0,1,.35-0.74c7.84-1,15-8.83,16.56-10.57a8,8,0,0,1-2.61-4.58,0.48,0.48,0,0,1,0-.1c0.5-18,23.83-23.45,26.25-24a3.39,3.39,0,0,1,2.67-1.38c2.32,0,4.9,2.46,7.65,7.27,2,3.52,4.34,5.54,6.91,6,3.65,0.66,6.8-2,7.84-2.85a43.38,43.38,0,0,0,3.39-3.86c3.11-3.77,5.07-6.07,6-6.24,1.12-.27,20.82-10,33.79-16.45l0.12,0c3.91-.81,16.57-11.77,16.7-11.88a0.49,0.49,0,0,1,.65,0c7.6,7.08.16,19.36,0.08,19.48a0.49,0.49,0,0,1-.34.23c-0.09,0-2.9.82-17.31,13.27-14.62,12.63-36.08,24.23-41.47,26.88-0.85,2.9-6.74,14.26-7,14.76a0.49,0.49,0,0,1-.43.26c-7.24.08-16.66,2.9-16.75,2.93A88.79,88.79,0,0,1,144.67,320.27Zm-25.83-9.9C121,313,131.4,323,160.37,317.75c0,0,9.34-2.8,16.67-3,0.93-1.8,6.35-12.35,6.84-14.5a0.49,0.49,0,0,1,.26-0.33c5-2.43,26.74-14.11,41.46-26.83,12.82-11.08,16.6-13.07,17.55-13.43,0.79-1.37,6.38-11.64.31-17.8-2.1,1.8-12.85,10.9-16.73,11.79-3.59,1.79-32.61,16.25-34,16.51-0.7.18-3.66,3.76-5.43,5.91a43.72,43.72,0,0,1-3.45,3.93c-1.19,1-4.61,3.85-8.7,3.11-2.87-.51-5.42-2.69-7.59-6.48-3.2-5.58-5.47-6.77-6.81-6.78h0A2.4,2.4,0,0,0,158.8,271a0.49,0.49,0,0,1-.33.23c-0.25,0-25.11,5-25.66,23a7.18,7.18,0,0,0,2.4,4.08l0.26,0.25a0.49,0.49,0,0,1,0,.65C135.19,299.63,127.68,308.74,118.84,310.38Zm39.54-39.63h0Z"/>
  </g>
  <path d="M165.27,274.91s0.12,0.49.39,1.32c0.14,0.42.31,0.92,0.55,1.48s0.52,1.19.86,1.84a10.2,10.2,0,0,0,.57,1,9,9,0,0,0,.69,1,12,12,0,0,0,1.79,1.92,10.56,10.56,0,0,0,1.1.82c0.4,0.24.83,0.43,1.25,0.64s0.9,0.31,1.36.4,1,0.16,1.41.18,1,0.05,1.49,0a12.5,12.5,0,0,0,1.42-.15,9.76,9.76,0,0,0,1.38-.32l0.67-.21,0.64-.27a13.44,13.44,0,0,0,2.3-1.28,12.59,12.59,0,0,0,1.79-1.56,13,13,0,0,0,1.27-1.57,6,6,0,0,0,.45-0.72,4.79,4.79,0,0,0,.32-0.64,4.62,4.62,0,0,0,.33-1l0.06-.36,0,0.36a4,4,0,0,1-.22,1,5,5,0,0,1-.27.69,6.27,6.27,0,0,1-.39.78,9.87,9.87,0,0,1-1.19,1.72,13.13,13.13,0,0,1-1.78,1.73,11.09,11.09,0,0,1-2.37,1.46l-0.67.3-0.71.23a10.5,10.5,0,0,1-1.47.37,13.13,13.13,0,0,1-1.55.19c-0.52,0-1,0-1.51,0s-1-.15-1.57-0.23-1-.32-1.49-0.47-0.93-.46-1.35-0.73a11.29,11.29,0,0,1-1.18-.91,10.25,10.25,0,0,1-1.81-2.12,9.45,9.45,0,0,1-.66-1.1,10.65,10.65,0,0,1-.53-1.07,13.69,13.69,0,0,1-.73-1.94c-0.19-.59-0.31-1.11-0.41-1.54A11.89,11.89,0,0,1,165.27,274.91Z"/>
  <path d="M183.87,300.25s1.67-4.53,3.07-9.16a64.66,64.66,0,0,0,1.66-6.43,19.42,19.42,0,0,0,.29-2.17v-0.83l0.05,0.83a19.52,19.52,0,0,1-.18,2.19,65,65,0,0,1-1.32,6.54c-1.16,4.71-2.6,9.35-2.6,9.35a0.51,0.51,0,1,1-1-.3v0Z"/>
  <path d="M164.06,305.19c-0.91-.72-4.89-0.86-7.19-0.78-12.42,2-21.95-5-22-5.07l0.61-.82a30.87,30.87,0,0,0,21.33,4.88c0.71,0,6.41-.19,7.92,1Z"/>
  <path d="M162.26,290.89a20.16,20.16,0,0,1-2.68-.51c-0.79-.2-1.7-0.46-2.65-0.8a30.59,30.59,0,0,1-2.92-1.2c-1-.46-1.92-1-2.78-1.48-0.43-.25-0.83-0.53-1.22-0.77s-0.74-.51-1.06-0.74c-0.66-.46-1.17-0.89-1.53-1.18l-0.57-.46,0.6,0.43c0.38,0.27.91,0.67,1.6,1.08,0.34,0.21.7,0.45,1.1,0.67s0.81,0.47,1.26.69c0.89,0.45,1.85.9,2.83,1.29a30,30,0,0,0,2.93,1c0.95,0.28,1.85.48,2.62,0.63a19,19,0,0,0,2.57.33Z"/>
  <path d="M158.25,289.62a5.89,5.89,0,0,0-.8.29,7.54,7.54,0,0,0-1.9,1.17,6,6,0,0,0-1,1.08c-0.16.21-.27,0.45-0.41,0.69s-0.21.51-.31,0.77l-0.19.84-0.06.88a8.64,8.64,0,0,0,.23,1.78,5.63,5.63,0,0,0,.24.87,8.28,8.28,0,0,0,.3.86c0.12,0.27.22,0.54,0.35,0.8l0.41,0.75,0.46,0.68,0.5,0.59a6.75,6.75,0,0,0,1.08.9,5.29,5.29,0,0,0,1.9.77,4,4,0,0,0,.56.07h0.17l0,1h-0.28a5,5,0,0,1-.69-0.12,6.21,6.21,0,0,1-2.19-1,7.58,7.58,0,0,1-1.17-1.08l-0.52-.69-0.47-.76-0.4-.83c-0.12-.29-0.22-0.59-0.33-0.88a8.66,8.66,0,0,1-.26-0.89,6.19,6.19,0,0,1-.2-0.93,9.1,9.1,0,0,1-.14-1.89l0.11-.93,0.25-.88c0.13-.27.24-0.54,0.37-0.8s0.3-.49.47-0.7a6.24,6.24,0,0,1,1.09-1.07,7.63,7.63,0,0,1,2-1.08A5.89,5.89,0,0,1,158.25,289.62Z"/>
  <path d="M239.79,244.33a5.3,5.3,0,0,1,.6.52,11,11,0,0,1,1.34,1.61,11.22,11.22,0,0,1,1.34,2.68,9.88,9.88,0,0,1,.43,1.65,11.28,11.28,0,0,1,.18,1.76c0,0.6,0,1.19-.07,1.73s-0.13,1.13-.23,1.67a15.83,15.83,0,0,1-.78,2.86,11.31,11.31,0,0,1-.91,1.88,4.67,4.67,0,0,1-.46.65s0.12-.26.28-0.73a16.12,16.12,0,0,0,.53-2,28.16,28.16,0,0,0,.45-2.82c0.06-.52.08-1.06,0.13-1.6s0.05-1.12,0-1.65a10.28,10.28,0,0,0-.13-1.62,12.11,12.11,0,0,0-.32-1.55,15.44,15.44,0,0,0-1-2.65,15.16,15.16,0,0,0-1-1.78C240,244.56,239.79,244.33,239.79,244.33Z"/>
  <g>
    <path d="M251.68,239.57s3.23,6.36,4,7.16-1.1,3.78-4,1.11-2.53-4.76-2.49-5" style="fill: #e6cdb7"/>
    <path d="M252.13,239.34s0.51,1.13,1.36,2.79c0.43,0.83.93,1.79,1.5,2.8a14.69,14.69,0,0,0,.91,1.47l0.08,0.1,0.08,0.11a1,1,0,0,1,.14.36,1.46,1.46,0,0,1,0,.62,2.18,2.18,0,0,1-.54,1,2.27,2.27,0,0,1-2,.68,3.7,3.7,0,0,1-1.76-.82,8.83,8.83,0,0,1-1.22-1.23,7.93,7.93,0,0,1-.89-1.27,5,5,0,0,1-.69-2.19,2.5,2.5,0,0,1,.07-0.86,2.47,2.47,0,0,0,.05.84,5.42,5.42,0,0,0,.89,2,8.39,8.39,0,0,0,.92,1.14,11.17,11.17,0,0,0,1.21,1.09,3.1,3.1,0,0,0,1.48.65,1.59,1.59,0,0,0,1.39-.52,0.89,0.89,0,0,0,.21-1.18,14.52,14.52,0,0,1-1-1.57c-0.59-1-1.12-2-1.57-2.8l-1.51-2.73Z"/>
  </g>
  <g>
    <path d="M258.39,240.83s-2.37,4.31-3.73,4.3" style="fill: #e6cdb7"/>
    <path d="M254.66,245.64h0v-1h0c0.64,0,2.21-2.09,3.28-4l0.89,0.49C258.25,242.14,256.21,245.64,254.66,245.64Z"/>
  </g>
  <g>
    <path d="M260.69,246.39s-2.8,3.29-5.25,1.84" style="fill: #e6cdb7"/>
    <path d="M256.79,249.12a3.1,3.1,0,0,1-1.61-.45l0.52-.88c2,1.21,4.57-1.7,4.6-1.73l0.78,0.66C261,246.84,259,249.12,256.79,249.12Z"/>
  </g>
  <path d="M256.25,253l-0.23-.08a5.16,5.16,0,0,1-.56-0.26,3.54,3.54,0,0,1-1.37-1.25,2.23,2.23,0,0,1-.31-0.94,2,2,0,0,1,0-.44,1.72,1.72,0,0,1,.06-0.38,2.57,2.57,0,0,1,.18-0.54l0.08-.2,0,0.21a2.47,2.47,0,0,0-.06.55,1.54,1.54,0,0,0,0,.36,1.72,1.72,0,0,0,.08.38,1.81,1.81,0,0,0,.4.7,2.88,2.88,0,0,0,1.29.75l0.49,0.11,0.18,0Z"/>
  <path d="M252.25,248.32a1.75,1.75,0,0,1-.17.84,2.47,2.47,0,0,1-.48.74,3,3,0,0,1-.82.62,3.24,3.24,0,0,1-1,.3,2.77,2.77,0,0,1-.87,0,2.11,2.11,0,0,1-.58-0.19l-0.21-.11,0.22-.09,0.54-.19,0.7-.25c0.24-.11.49-0.2,0.73-0.33a6.78,6.78,0,0,0,.69-0.39c0.22-.14.42-0.28,0.6-0.41C252,248.54,252.25,248.32,252.25,248.32Z"/>
  <g>
    <path d="M163.63,288.43s-6,2.59-5.42,8.34,1.59,7.09,6.44,8.62,10.07-1.85,9.28-5.51c0,0,3-3.35.38-6,0,0,2-5.64-3.86-4.14C170.46,289.74,167.3,286.45,163.63,288.43Z" style="fill: #e6cdb7"/>
    <path d="M167.11,306.27a8.67,8.67,0,0,1-2.61-.39c-5.06-1.6-6.2-3.12-6.79-9.06s5.27-8.65,5.7-8.85c3.38-1.81,6.37.48,7.19,1.2,1.78-.41,3.07-0.2,3.83.63,1.08,1.17.67,3.18,0.45,3.94,2,2.21.68,4.95-.41,6.27a4.71,4.71,0,0,1-1.7,4.17A8.49,8.49,0,0,1,167.11,306.27Zm-1-18a4.58,4.58,0,0,0-2.2.57l0,0c-0.23.1-5.64,2.52-5.11,7.82,0.55,5.56,1.41,6.71,6.09,8.18a7.68,7.68,0,0,0,7.28-1.47,3.61,3.61,0,0,0,1.34-3.45l-0.06-.26,0.17-.19c0.11-.12,2.67-3,0.4-5.29l-0.23-.23,0.1-.3c0.21-.62.6-2.39-0.15-3.21s-2-.54-3.1-0.27l-0.29.07-0.21-.21A6.17,6.17,0,0,0,166.08,288.3Z"/>
  </g>
  <path d="M170.73,290.17s-1.13.57-2.29,1a12.84,12.84,0,0,1-1.64.56,2.63,2.63,0,0,1-.78.1,2.58,2.58,0,0,0,.72-0.25,12.53,12.53,0,0,0,1.45-.86c1-.69,2-1.45,2-1.45Z"/>
  <path d="M174.73,294.17s-0.24.29-.61,0.69a8.44,8.44,0,0,1-1.54,1.36,7.58,7.58,0,0,0-.91.51c-0.27.19-.52,0.38-0.73,0.54-0.42.34-.68,0.58-0.68,0.58s0.21-.29.57-0.7c0.18-.2.39-0.44,0.63-0.68a7.75,7.75,0,0,1,.82-0.67,7.94,7.94,0,0,0,1.16-1.48c0.28-.44.45-0.74,0.45-0.74Z"/>
  <path d="M174.19,300.31s-0.78.31-1.53,0.68a11,11,0,0,0-1,.55,3,3,0,0,0-.42.31,3.06,3.06,0,0,1,.32-0.43,11.3,11.3,0,0,1,.83-0.85c0.63-.59,1.3-1.14,1.3-1.14Z"/>
  <g>
    <path d="M166,273.37s3.58,7.62,11.15,7.36a22.61,22.61,0,0,0,12.09-3.68l0.57-1.55S167.41,275.07,166,273.37Z" style="fill: #dc5b49"/>
    <path d="M176.8,281.25c-7.55,0-11.2-7.58-11.24-7.66l-1.76-3.74,2.61,3.2c0.92,1,12.63,1.74,23.43,1.95h0.72l-0.87,2.36-0.12.09a22.93,22.93,0,0,1-12.38,3.78H176.8Zm-9.6-6.87c1.36,2.07,4.66,6,10,5.84a22.69,22.69,0,0,0,11.69-3.49l0.27-.73C184,275.89,171.69,275.51,167.2,274.38Z"/>
  </g>
  <g>
    <path d="M142,243.38s-5.44-8.16-8.25-3.91,1.7,12,4.68,14.11a23.76,23.76,0,0,0,6.72,3.32c0.26,0,10.67,19.42,34.13,20.57s36.34-9.56,36.34-9.56,10.84-6.89,11-20.4a73.2,73.2,0,0,0-.94-8.54c-0.68-3.4.94-9.18,0.94-9.18s1-4.08.51-5.36,0.26-16.92-1.7-21.68-15.64-19.25-41.27-15.56S145.8,197,141.55,205.42s-9.35,21.55-6.29,26.65S142,243.38,142,243.38Z" style="fill: #eaceb6"/>
    <path d="M182.7,278.06c-1.13,0-2.29,0-3.48-.09-18.68-.91-29.43-13.11-34.17-20.3l-0.22-.33a25.55,25.55,0,0,1-6.73-3.36c-3.3-2.36-7.7-10.42-4.8-14.81a2.85,2.85,0,0,1,2.42-1.46h0a5.36,5.36,0,0,1,3.15,1.42c-1.22-2.06-2.7-4.55-4.06-6.82-3.84-6.4,4.55-23.73,6.27-27.14,4.58-9.06,18.22-14.94,42.93-18.51,25.42-3.67,39.55,10.35,41.81,15.87,1.33,3.24,1.44,11.29,1.5,16.62a42.69,42.69,0,0,0,.2,5.06c0.55,1.39-.38,5.23-0.49,5.67,0,0.07-1.58,5.72-.93,9a72.65,72.65,0,0,1,.94,8.62c-0.13,13.67-11.09,20.79-11.2,20.86S203.92,278.06,182.7,278.06Zm-37.52-21.67c0.24,0,.33.13,0.72,0.73,4.64,7,15.14,18.95,33.37,19.84,23,1.12,35.86-9.34,36-9.45s10.66-6.95,10.78-20a73.48,73.48,0,0,0-.92-8.44c-0.7-3.48.88-9.18,0.94-9.42,0.38-1.5.85-4.21,0.53-5-0.2-.5-0.23-2.11-0.27-5.43-0.07-5.25-.17-13.19-1.43-16.25-1.35-3.28-13.84-19.12-40.72-15.24-24.35,3.51-37.75,9.22-42.16,18-4.64,9.18-9.07,21.55-6.31,26.16,3.06,5.1,6.72,11.31,6.72,11.31l-0.86.54c-0.91-1.37-3.73-4.91-5.82-4.91h0a1.87,1.87,0,0,0-1.57,1c-2.63,4,1.83,11.48,4.55,13.42a23.88,23.88,0,0,0,6.47,3.22h0Z"/>
  </g>
  <g>
    <path d="M134.77,238.47s2.45-1.52,7.21,4.9c0,0-5.7-12.84,8.46-35,0,0-1.12,9.55-5.36,14.92a83.77,83.77,0,0,0,8.93-7s9.56-4.34,13.13-10.84-4.46,9.95-10.2,12.24c4.15-.73,10.26-4.4,12.24-7.14,0,0,13.26-2.55,23.84-16.58,0,0-2.3,12.75-11.48,17.09,0,0,13-.64,21.17-11.22,0,0-3.7,8.8-8.16,10.58a30.36,30.36,0,0,0,20.27-14,40.32,40.32,0,0,1-7,14.45s8.16-4.12,10.32-12.16c0,0-2.17,12.88,2.68,18.87,0,0-1.4-7.11,1.15-11.73,0,0,.51,17.47,7.52,21.8,0,0,9.39-38.72-26.82-51.3s-48.79,6.12-48.79,6.12-15.71,2-21,25.24C132.85,207.67,129.69,228.81,134.77,238.47Z" style="fill: #966751"/>
    <path d="M144.31,247.38l-2.74-3.7c-4.33-5.84-6.52-4.78-6.54-4.76l-0.45.24-0.25-.44c-5.1-9.7-2.1-30.25-2-31.12,5-21.82,19.28-25.26,21.25-25.63,1.47-1.92,15-18,49.25-6.13,36.23,12.59,27.24,51.51,27.15,51.9l-0.17.68-0.6-.37c-5.71-3.53-7.23-15.07-7.63-20a22.93,22.93,0,0,0-.27,9.39l0.4,2-1.3-1.6c-3.33-4.11-3.47-11.2-3.19-15.54a23.46,23.46,0,0,1-9.19,9l-2.15,1.09,1.53-1.87a37.51,37.51,0,0,0,5.93-11,31.42,31.42,0,0,1-18.73,11.44l-4.12.57,3.86-1.54c2.46-1,4.73-4.31,6.19-6.92a32.46,32.46,0,0,1-19,8.54l-2.56.13,2.32-1.1c6.51-3.08,9.5-10.64,10.62-14.45-9.59,11.53-20.85,14.48-22.48,14.86-2.21,2.88-8.39,6.47-12.45,7.19l-4.87.86,4.59-1.84c1.95-.78,4.22-3.36,6.19-6.05a40.79,40.79,0,0,1-8.64,5.55,87.53,87.53,0,0,1-8.92,7L143,225.34c-3.3,11.38-.61,17.74-0.57,17.83Zm-8.78-9.58c1,0,2.79.56,5.25,3.3-1-4.77-1.51-16.2,9.22-33l1.19-1.87-0.26,2.21c0,0.34-.9,7.43-3.92,12.84a76.31,76.31,0,0,0,6.63-5.36l0.14-.09c0.09,0,9.45-4.34,12.9-10.62,1-1.82,1-1.85,1.43-1.76l0.37,0.08,0,0.38a1.2,1.2,0,0,1-.13.37h0c-0.75,1.71-4.74,8.5-8.55,12,3.5-1.39,7.4-3.94,8.92-6l0.12-.16,0.2,0c0.13,0,13.2-2.69,23.53-16.38l1.29-1.71-0.38,2.1c-0.09.49-2.06,11-9.5,16.15,4.13-.76,12.5-3.18,18.28-10.69l2.39-3.1L203.18,200c-0.13.3-2.6,6.11-6,9.24a29.88,29.88,0,0,0,17.21-13.14l1.68-2.83-0.74,3.2a41.79,41.79,0,0,1-5.48,12.45c2.52-1.81,6.43-5.32,7.8-10.41l1,0.22c0,0.11-1.68,10.33,1.37,16.55-0.21-2.54-.21-6.64,1.51-9.75l0.9-1.63,0.05,1.86c0,0.17.55,16.19,6.67,21,1-5.39,6-38.63-26.64-50-18.56-6.45-30.7-4.46-37.62-1.67-7.44,3-10.55,7.54-10.58,7.59l-0.13.19-0.23,0a20,20,0,0,0-8.33,3.86c-4.1,3.06-9.56,9.19-12.27,21,0,0.17-3,20.49,1.68,30.07A2.49,2.49,0,0,1,135.53,237.8Zm14-27a63,63,0,0,0-6.36,14.06l1.53-1.94C147.46,219.44,148.88,214,149.51,210.84Z"/>
  </g>
  <path d="M150.08,208.13s1.14-1.62,2.13-3.33a23.51,23.51,0,0,0,1.25-2.42,7.73,7.73,0,0,0,.42-1.17,7.77,7.77,0,0,1-.29,1.21,23.79,23.79,0,0,1-1,2.56c-0.82,1.83-1.79,3.59-1.79,3.59Z"/>
  <path d="M153.74,215.93a20.72,20.72,0,0,0,2.66-2.59c0.38-.41.75-0.9,1.16-1.4s0.81-1.05,1.18-1.65,0.79-1.2,1.15-1.84,0.71-1.31,1.06-2,0.62-1.37.93-2.05,0.51-1.38.76-2,0.4-1.33.58-2,0.29-1.23.42-1.78,0.25-1.06.3-1.52l0.17-1.18,0.15-1-0.11,1L164,197.13c0,0.46-.16,1-0.25,1.53s-0.18,1.18-.36,1.8-0.31,1.31-.52,2-0.44,1.39-.69,2.09-0.54,1.42-.86,2.11-0.63,1.39-1,2-0.72,1.31-1.11,1.91-0.78,1.17-1.15,1.72-0.76,1-1.14,1.47a21.68,21.68,0,0,1-2.67,2.79Z"/>
  <path d="M167.64,203.74s0.37-.6.89-1.56,1.15-2.24,1.7-3.57c0.28-.67.52-1.34,0.73-2s0.36-1.25.48-1.78a11.61,11.61,0,0,0,.19-1.29l0-.5v0.5a11.68,11.68,0,0,1-.1,1.31c-0.08.54-.19,1.17-0.35,1.83s-0.36,1.37-.59,2.06a41.71,41.71,0,0,1-2.24,5.4Z"/>
  <path d="M168.87,210.23s1.1-1.12,2.62-3c0.76-.91,1.62-2,2.49-3.21,0.42-.61.89-1.22,1.3-1.88s0.86-1.32,1.25-2,0.78-1.38,1.13-2.07,0.65-1.4,1-2.08,0.49-1.37.73-2,0.32-1.28.47-1.86,0.15-1.13.22-1.61a5.65,5.65,0,0,0,0-1.25l0-1.09,0.08,1.09a5.69,5.69,0,0,1,0,1.26c-0.05.48,0,1-.16,1.63s-0.22,1.23-.41,1.89-0.39,1.36-.67,2.05-0.54,1.43-.9,2.13-0.68,1.44-1.08,2.13-0.78,1.4-1.19,2.07-0.84,1.32-1.25,1.95c-0.84,1.24-1.67,2.37-2.4,3.32-1.47,1.89-2.56,3.09-2.56,3.09Z"/>
  <path d="M192.66,193.73a19.85,19.85,0,0,0,1-1.78,24.83,24.83,0,0,0,1.63-4.21c0.1-.4.22-0.8,0.29-1.19s0.17-.79.21-1.17,0.11-.75.12-1.11,0.06-.69,0-1a10.08,10.08,0,0,0-.11-1.5l-0.07-.57,0.11,0.56a10.15,10.15,0,0,1,.2,1.5c0,0.31,0,.65,0,1s0,0.74,0,1.13-0.09.79-.13,1.21-0.15.82-.22,1.23a25.41,25.41,0,0,1-1.4,4.41,20.74,20.74,0,0,1-.9,1.92Z"/>
  <path d="M202.37,199.57s0.51-.67,1.21-1.75a39,39,0,0,0,2.33-4.07c0.38-.76.71-1.55,1-2.3a16.94,16.94,0,0,0,.63-2.1c0.08-.31.1-0.6,0.15-0.86a4.09,4.09,0,0,0,.06-0.67l0-.59v0.59a4.13,4.13,0,0,1,0,.68c0,0.26,0,.56-0.1.88a17.15,17.15,0,0,1-.5,2.16c-0.24.77-.53,1.59-0.87,2.39a42,42,0,0,1-3.23,6.13Z"/>
  <path d="M194.38,209.92s0.48-.16,1.34-0.52,2.05-.91,3.45-1.67a31.11,31.11,0,0,0,9-7.24A21.11,21.11,0,0,0,210,197.9a19.1,19.1,0,0,0,1.36-2.74c0.19-.46.33-0.93,0.49-1.38s0.24-.92.36-1.36a19.15,19.15,0,0,0,.37-2.55,20.44,20.44,0,0,0,0-2.18c-0.05-.65-0.07-1.22-0.14-1.68l-0.22-1.45,0.26,1.45c0.08,0.46.11,1,.19,1.68a20.57,20.57,0,0,1,0,2.2,19.34,19.34,0,0,1-.29,2.59c-0.1.45-.2,0.92-0.32,1.39s-0.28.95-.45,1.42a19.47,19.47,0,0,1-1.3,2.83,21.58,21.58,0,0,1-1.77,2.69,25.82,25.82,0,0,1-2.13,2.42,30.37,30.37,0,0,1-2.32,2.1,37.45,37.45,0,0,1-4.56,3.15,34,34,0,0,1-4.87,2.4Z"/>
  <path d="M214.45,196.17a7,7,0,0,0,.4-0.77,14.15,14.15,0,0,0,.68-1.86,18.35,18.35,0,0,0,.57-2.87,18.43,18.43,0,0,1-.16,3,14.72,14.72,0,0,1-.42,2,8.08,8.08,0,0,1-.32.92Z"/>
  <path d="M217.74,198.54a7.12,7.12,0,0,0,.25-0.81,11,11,0,0,0,.32-1.88,10.1,10.1,0,0,0-.16-2.8,10.21,10.21,0,0,1,.59,2.81,11.54,11.54,0,0,1,0,2,8.09,8.09,0,0,1-.14.92Z"/>
  <path d="M212.34,214.41a4.17,4.17,0,0,1,.81,0,8,8,0,0,1,.93.12,7.09,7.09,0,0,1,1.18.31,8.5,8.5,0,0,1,1.33.59,11.29,11.29,0,0,1,1.38.87,13.61,13.61,0,0,1,1.3,1.16,12.68,12.68,0,0,1,1.17,1.35l0.53,0.72,0.46,0.76a10.71,10.71,0,0,1,.8,1.52,14.05,14.05,0,0,1,.63,1.47c0.17,0.48.32,0.94,0.45,1.36,0.28,0.84.36,1.58,0.49,2.07s0.15,0.79.15,0.79-0.13-.27-0.34-0.73-0.47-1.14-.85-1.92c-0.19-.39-0.4-0.81-0.6-1.26s-0.49-.89-0.73-1.36c-0.13-.23-0.25-0.48-0.39-0.71l-0.45-.7-0.45-.71-0.51-.67a11.73,11.73,0,0,0-1.07-1.29c-0.36-.42-0.78-0.77-1.15-1.14s-0.79-.67-1.21-0.92a12.06,12.06,0,0,0-1.17-.71c-0.38-.18-0.73-0.37-1.06-0.48a7.73,7.73,0,0,0-.86-0.29A7.37,7.37,0,0,0,212.34,214.41Z"/>
  <path d="M170.65,214.48s-0.32,0-.85.14c-0.27.06-.59,0.12-0.95,0.24s-0.76.25-1.19,0.41-0.88.37-1.35,0.6a14.25,14.25,0,0,0-1.42.83,15.86,15.86,0,0,0-1.41,1c-0.45.39-.89,0.8-1.31,1.23s-0.84.88-1.18,1.37-0.74.93-1,1.43l-0.87,1.41c-0.23.48-.46,0.92-0.67,1.33a10.83,10.83,0,0,0-.55,1.15l-0.39.91c-0.22.5-.36,0.79-0.36,0.79s0.05-.31.17-0.85l0.22-1,0.14-.6,0.23-.64c0.16-.45.33-0.94,0.53-1.45s0.5-1,.78-1.54a16.47,16.47,0,0,1,1-1.56c0.35-.53.82-1,1.23-1.48s0.94-.89,1.43-1.29a12.49,12.49,0,0,1,1.56-1,10.53,10.53,0,0,1,1.57-.75,11,11,0,0,1,1.49-.46,10.62,10.62,0,0,1,2.29-.29A5.37,5.37,0,0,1,170.65,214.48Z"/>
  <g>
    <path d="M160.13,242.46s-3.51-12.24,4.59-17.53,16.38,2.87,16.83,7.14-0.51,5.74-.51,5.74A36.08,36.08,0,0,0,160.13,242.46Z" style="fill: #fff"/>
    <path d="M159.64,242.6a24.72,24.72,0,0,1-.72-5.87,18.4,18.4,0,0,1,.87-5.85,13.69,13.69,0,0,1,1.26-2.71l0.87-1.23,1-1.09c0.36-.35.78-0.62,1.17-0.93l0.3-.23,0.07-.06h0l0,0,0,0,0.16-.09,0.64-.35,0.64-.35,0.71-.26a6.77,6.77,0,0,1,1.45-.42,9.37,9.37,0,0,1,3-.16,10.38,10.38,0,0,1,2.89.7,9.09,9.09,0,0,1,1.35.62,9.33,9.33,0,0,1,1.26.77l0.61,0.42,0.57,0.48a10.5,10.5,0,0,1,1.08,1,13.55,13.55,0,0,1,1.81,2.33,7.73,7.73,0,0,1,1,2.79,18.76,18.76,0,0,1,.07,2.92,7.33,7.33,0,0,1-.65,2.89h0l0,0.08H181a32.69,32.69,0,0,0-5.4.05c-0.9.08-1.79,0.19-2.68,0.33s-1.77.31-2.65,0.52-1.74.46-2.6,0.7-1.71.56-2.53,0.92-1.64.71-2.44,1.11-1.56.87-2.34,1.3l-0.6.33Zm0.86-.9c0.6-.33,1.2-0.67,1.83-0.94,0.84-.39,1.68-0.76,2.55-1.06s1.74-.58,2.61-0.86,1.77-.47,2.67-0.63,1.8-.32,2.71-0.45,1.82-.19,2.73-0.24a33,33,0,0,1,5.47.13l-0.15.07h0a7.15,7.15,0,0,0,.56-2.74,18.35,18.35,0,0,0-.12-2.87,7.36,7.36,0,0,0-1-2.6,13.09,13.09,0,0,0-1.77-2.22,10,10,0,0,0-1.05-1l-0.55-.45-0.59-.4a8.84,8.84,0,0,0-1.22-.72,8.57,8.57,0,0,0-1.29-.57,9.78,9.78,0,0,0-2.74-.62,8.73,8.73,0,0,0-2.78.19,6.13,6.13,0,0,0-1.32.4l-0.65.24-0.63.36-0.63.36-0.16.09,0,0h0l-0.07.05-0.28.22c-0.36.3-.75,0.56-1.09,0.88l-1,1-0.79,1.15a12.87,12.87,0,0,0-1.14,2.56,17.52,17.52,0,0,0-.74,5.58A23.8,23.8,0,0,0,160.49,241.7Z"/>
  </g>
  <g>
    <path d="M223.43,235.77c-0.32-.57-2-11.86-11.67-11.67s-10.9,11.67-10.9,11.67,5.08,6.44,11.85,5.74A16.9,16.9,0,0,0,223.43,235.77Z" style="fill: #fff"/>
    <path d="M211.67,242.07c-6.4,0-11-5.73-11.2-6l-0.13-.16,0-.21c0-.12,1.44-11.92,11.4-12.12,5.92-.14,9.95,3.73,12,11.45,0.07,0.25.11,0.42,0.14,0.5l0.16,0.3-0.22.24A17.26,17.26,0,0,1,212.77,242,10.71,10.71,0,0,1,211.67,242.07Zm-10.26-6.46c0.84,1,5.46,6,11.26,5.38a16.47,16.47,0,0,0,10.2-5.34l-0.1-.36c-1.91-7.2-5.62-10.77-11-10.69C203.41,224.78,201.63,234.09,201.4,235.61Z"/>
  </g>
  <g>
    <path d="M168.22,223.52s-2.06,7.1,2.53,9.48,9.87-2.57,9.87-2.57S176.78,222.54,168.22,223.52Z" style="fill: #1497ad"/>
    <path d="M173.48,234a6.17,6.17,0,0,1-2.88-.69c-4.78-2.48-2.79-9.58-2.7-9.88l0.06-.22,0.22,0c8.71-1,12.7,7,12.74,7.1l0.11,0.23-0.18.17C180.67,230.85,177.26,234,173.48,234Zm-5-10.17c-0.29,1.19-1.43,6.87,2.42,8.87s8.31-1.51,9.28-2.35C179.49,229.11,175.74,223.13,168.49,223.83Z"/>
  </g>
  <g>
    <path d="M222.26,232.07s-3.67,4.46-8.33,1.85-3.46-8.63-1.22-9.8C212.71,224.12,219.24,224,222.26,232.07Z" style="fill: #1497ad"/>
    <path d="M216.9,235.08a6.31,6.31,0,0,1-3.13-.86,6.43,6.43,0,0,1-3.37-5.86c0-2,.92-3.89,2.16-4.53l0.15,0c0.06,0,6.8-.05,9.87,8.17l0.07,0.18-0.12.15A8.18,8.18,0,0,1,216.9,235.08Zm-4.09-10.61c-1,.57-1.69,2.19-1.72,3.9a5.77,5.77,0,0,0,3,5.26c3.93,2.21,7.1-.88,7.77-1.62C219.12,224.88,213.53,224.48,212.8,224.46Z"/>
  </g>
  <path d="M190.54,251.32a9.4,9.4,0,0,0,1.43,0,8,8,0,0,0,1.37-.22,5.59,5.59,0,0,0,.73-0.23,5.53,5.53,0,0,0,.72-0.31c0.23-.12.46-0.25,0.69-0.39s0.43-.29.63-0.45,0.38-.32.57-0.47l0.49-.47c0.32-.28.54-0.57,0.73-0.74l0.3-.28s0,0.14-.12.39a4.76,4.76,0,0,1-.44,1,7.09,7.09,0,0,1-.39.62c-0.16.2-.34,0.42-0.53,0.63s-0.43.4-.67,0.59-0.52.34-.79,0.49a6.54,6.54,0,0,1-.87.33,4.16,4.16,0,0,1-.88.18,4.64,4.64,0,0,1-.84,0,4.54,4.54,0,0,1-.73-0.1A3.55,3.55,0,0,1,190.54,251.32Z"/>
  <path d="M160.56,242.73l-0.11.11a0.78,0.78,0,0,1-.16.13l-0.15.09c-0.22.12-.5,0.25-0.78,0.38a6.79,6.79,0,0,0-1.09.55,1.82,1.82,0,0,1,.23-0.32l0.56-.64c0.2-.23.4-0.46,0.53-0.63l0.08-.11s0,0,0,0a0.21,0.21,0,0,1,0-.06Z"/>
  <path d="M181.37,237s0.42,0.33.8,0.68a9.8,9.8,0,0,1,.72.74,9.63,9.63,0,0,0-1-.29c-0.49-.12-1-0.2-1-0.2Z"/>
  <path d="M175.92,227.25a1.69,1.69,0,0,0-1.15,1.91,2.06,2.06,0,0,0,2.13.87,6,6,0,0,0,1-1.83A2.9,2.9,0,0,0,175.92,227.25Z" style="fill: #fff"/>
  <path d="M218.45,229.94a5.58,5.58,0,0,0-1,1.45,1.89,1.89,0,0,0,1.55.77,3.29,3.29,0,0,0,1.55-1.35A2.28,2.28,0,0,0,218.45,229.94Z" style="fill: #fff"/>
  <g>
    <path d="M179.76,249s6.57,15.36,19,5.55c0,0-5.87,4.65-7.52,10.14s-5,5.42-8.1,0S179.76,249,179.76,249Z" style="fill: #4d0e08"/>
    <path d="M187.75,269.31c-1.66,0-3.4-1.49-5-4.34-3.15-5.47-3.44-15.5-3.45-15.93a0.51,0.51,0,0,1,1-.21c0,0.07,3,6.86,8.51,8.26,3,0.76,6.28-.21,9.7-2.91h0a0.51,0.51,0,0,1,.63.8c-0.06,0-5.76,4.62-7.35,9.88-1,3.44-2.57,4.31-3.66,4.43Zm-7.33-18c0.27,3.32,1,9.43,3.17,13.12,1.49,2.58,3.07,4,4.36,3.82,1.12-.13,2.12-1.45,2.8-3.71a20.06,20.06,0,0,1,4.32-7.14,10.1,10.1,0,0,1-6.59.65C184.5,257.06,181.81,253.62,180.41,251.34Z"/>
  </g>
  <path d="M180.91,248.56l0,0,0,0h0a0.07,0.07,0,0,1,0,0,0.07,0.07,0,0,1,0,.08l0,0h0l0,0a3,3,0,0,1-.34.25,5.08,5.08,0,0,1-1,.49c-0.37.12-.73,0.21-1,0.28a3,3,0,0,0-.53.18,0.66,0.66,0,0,1,0-.18,1,1,0,0,1,.16-0.45,2,2,0,0,1,1.05-.79,2.56,2.56,0,0,1,1.25-.1,1.88,1.88,0,0,1,.42.12h0a0.07,0.07,0,0,0,0,.08,0.07,0.07,0,0,0,0,0h0l0,0Z"/>
  <g>
    <path d="M189,268.39s-1-7.53-7.35-7c0,0,1.74,5,3.38,6C186,268.14,187.23,269.5,189,268.39Z" style="fill: #912b1d"/>
    <path d="M187.7,269.32a4.32,4.32,0,0,1-2.76-1.39l-0.2-.18c-1.68-1.08-3.34-5.72-3.52-6.25l-0.22-.63,0.66-.05c6.72-.52,7.88,7.41,7.89,7.49l0,0.33-0.29.17A3.07,3.07,0,0,1,187.7,269.32Zm-5.27-7.49c0.62,1.61,1.87,4.43,2.93,5.11l0.27,0.23c0.94,0.84,1.76,1.44,2.86.94C188.21,266.75,186.94,261.94,182.42,261.83Z"/>
  </g>
  <path d="M221.39,205.64s0.24-.7.5-1.83a27,27,0,0,0,.64-4.17,21,21,0,0,0,0-2.26c0-.36,0-0.71-0.07-1s-0.05-.65-0.11-0.93a11.55,11.55,0,0,0-.29-1.38l-0.13-.52,0.18,0.5a11.65,11.65,0,0,1,.42,1.35c0.09,0.28.13,0.6,0.2,0.93s0.12,0.68.17,1a21.44,21.44,0,0,1,.18,2.31,27.79,27.79,0,0,1-.24,4.34c-0.15,1.17-.34,2-0.34,2Z"/>
  <path d="M153.55,182.52a3.3,3.3,0,0,0-.42-1,3.45,3.45,0,0,0-.72-0.88,3.62,3.62,0,0,0-1.13-.68,4.84,4.84,0,0,0-.66-0.18,4.35,4.35,0,0,0-.67-0.08,6.19,6.19,0,0,0-1.2.06,7.31,7.31,0,0,0-.85.16l-0.32.07,0.31-.1a7.45,7.45,0,0,1,.83-0.24,6.36,6.36,0,0,1,1.22-.17,4.57,4.57,0,0,1,.71,0,5.14,5.14,0,0,1,.73.13,4,4,0,0,1,1.32.64,4,4,0,0,1,.91.92,4.37,4.37,0,0,1,.47.8,3.17,3.17,0,0,1,.13.34Z"/>
  <path d="M145.65,183.05s0.48-.23,1.22-0.51a13.34,13.34,0,0,1,2.83-.75,10.43,10.43,0,0,1,3,0,7.77,7.77,0,0,1,1,.21,3.69,3.69,0,0,1,.38.13l-0.3.61a5.3,5.3,0,0,0-1.17-.39,10,10,0,0,0-2.82-.2,13.13,13.13,0,0,0-2.83.51C146.15,182.86,145.65,183.05,145.65,183.05Z"/>
  <path d="M153.66,182.43a3.62,3.62,0,0,1-.1-0.39,5.37,5.37,0,0,1-.1-1,5.64,5.64,0,0,1,.17-1.41,6.32,6.32,0,0,1,.58-1.5,7.81,7.81,0,0,1,.92-1.29l0.5-.52,0.49-.42a7.81,7.81,0,0,1,.78-0.57l0.3-.21-0.28.23a7.72,7.72,0,0,0-.72.63l-0.45.45-0.45.55a7.54,7.54,0,0,0-.78,1.3,5.91,5.91,0,0,0-.42,1.44A5.12,5.12,0,0,0,154,181a4.07,4.07,0,0,0,.26,1.2Z"/>
  <path d="M156.35,354.81s-0.36-.53-0.8-1.33a19.1,19.1,0,0,1-1.34-3.09,11.16,11.16,0,0,1-.58-3.3,6.74,6.74,0,0,1,.09-1.1l0.06-.41,0,0.41a6.66,6.66,0,0,0,0,1.08,10.83,10.83,0,0,0,.89,3.13,18.42,18.42,0,0,0,1.6,2.83c0.51,0.73.88,1.17,0.88,1.17Z"/>
  <path d="M144.66,257.11s-0.43-1.23-.76-2.48a14.38,14.38,0,0,1-.36-1.74,3.72,3.72,0,0,1,0-.81,3.68,3.68,0,0,0,.19.77,14.06,14.06,0,0,0,.69,1.6c0.56,1.14,1.21,2.23,1.21,2.23Z"/>
</svg>
