<?xml version="1.0" standalone="no"?>
<!DOCTYPE svg PUBLIC "-//W3C//DTD SVG 20001102//EN" "http://www.w3.org/TR/2000/CR-SVG-20001102/DTD/svg-20001102.dtd">
<svg xmlns="http://www.w3.org/2000/svg" width="361" x="5" y="5" height="288" id="/Users/hrzepa/Downloads/6G" >
 <g style="stroke:rgb(0,0,0);stroke-width:0.9;fill:none;" >
  <g style="stroke:rgb(0,0,0);stroke-width:0.9;fill:none;" >
   <rect width="311" x="50" y="5" height="16" style="stroke:rgb(0,0,0);stroke-width:0;fill:none;" />
  </g>
  <g style="stroke:rgb(0,0,0);stroke-width:0.9;fill:none;" >
   <text x="205" y="20" style="fill:rgb(0,0,0);stroke-width:0;font-size:14;font-style:normal;font-weight:700;font-family:Lucida Grande;" text-anchor="middle" >Relative Energy along IRC</text>
  </g>
  <g style="stroke:rgb(0,0,0);stroke-width:0.9;fill:none;" >
   <g style="stroke:rgb(0,0,0);stroke-width:0.9;fill:none;" >
    <rect width="226" x="28" y="-1" height="44" transform="matrix(6.12323e-17,-1,1,6.12323e-17,6,279)" style="stroke:rgb(0,0,0);stroke-width:0;fill:none;" />
   </g>
   <g style="stroke:rgb(0,0,0);stroke-width:0.9;fill:none;" >
    <text x="141" y="11" transform="matrix(6.12323e-17,-1,1,6.12323e-17,6,279)" style="fill:rgb(0,0,0);stroke-width:0;font-size:12;font-style:normal;font-weight:700;font-family:Lucida Grande;" text-anchor="middle" >kcal/mol</text>
   </g>
  </g>
  <g style="stroke:rgb(0,0,0);stroke-width:0.9;fill:none;" >
   <line style="stroke:rgb(0,0,0);stroke-width:0.9;fill:none;" y1="247" y2="247" x1="47" x2="40" />
   <g style="stroke:rgb(0,0,0);stroke-width:0.9;fill:none;" >
    <text x="-2" y="-28" transform="translate(23,278)" style="fill:rgb(0,0,0);stroke-width:0;font-size:10;font-style:normal;font-weight:400;font-family:Lucida Grande;" >-10</text>
   </g>
   <line style="stroke:rgb(0,0,0);stroke-width:0.9;fill:none;" y1="220" y2="220" x1="47" x2="40" />
   <g style="stroke:rgb(0,0,0);stroke-width:0.9;fill:none;" >
    <text x="-3" y="-25" transform="translate(29,248)" style="fill:rgb(0,0,0);stroke-width:0;font-size:10;font-style:normal;font-weight:400;font-family:Lucida Grande;" >-5</text>
   </g>
   <line style="stroke:rgb(0,0,0);stroke-width:0.9;fill:none;" y1="193" y2="193" x1="47" x2="40" />
   <g style="stroke:rgb(0,0,0);stroke-width:0.9;fill:none;" >
    <text x="-3" y="-22" transform="translate(35,218)" style="fill:rgb(0,0,0);stroke-width:0;font-size:10;font-style:normal;font-weight:400;font-family:Lucida Grande;" >0</text>
   </g>
   <line style="stroke:rgb(0,0,0);stroke-width:0.9;fill:none;" y1="166" y2="166" x1="47" x2="40" />
   <g style="stroke:rgb(0,0,0);stroke-width:0.9;fill:none;" >
    <text x="-3" y="-19" transform="translate(35,188)" style="fill:rgb(0,0,0);stroke-width:0;font-size:10;font-style:normal;font-weight:400;font-family:Lucida Grande;" >5</text>
   </g>
   <line style="stroke:rgb(0,0,0);stroke-width:0.9;fill:none;" y1="139" y2="139" x1="47" x2="40" />
   <g style="stroke:rgb(0,0,0);stroke-width:0.9;fill:none;" >
    <text x="-3" y="-16" transform="translate(29,158)" style="fill:rgb(0,0,0);stroke-width:0;font-size:10;font-style:normal;font-weight:400;font-family:Lucida Grande;" >10</text>
   </g>
   <line style="stroke:rgb(0,0,0);stroke-width:0.9;fill:none;" y1="112" y2="112" x1="47" x2="40" />
   <g style="stroke:rgb(0,0,0);stroke-width:0.9;fill:none;" >
    <text x="-3" y="-13" transform="translate(29,128)" style="fill:rgb(0,0,0);stroke-width:0;font-size:10;font-style:normal;font-weight:400;font-family:Lucida Grande;" >15</text>
   </g>
   <line style="stroke:rgb(0,0,0);stroke-width:0.9;fill:none;" y1="85" y2="85" x1="47" x2="40" />
   <g style="stroke:rgb(0,0,0);stroke-width:0.9;fill:none;" >
    <text x="-3" y="-10" transform="translate(29,98)" style="fill:rgb(0,0,0);stroke-width:0;font-size:10;font-style:normal;font-weight:400;font-family:Lucida Grande;" >20</text>
   </g>
   <line style="stroke:rgb(0,0,0);stroke-width:0.9;fill:none;" y1="58" y2="58" x1="47" x2="40" />
   <g style="stroke:rgb(0,0,0);stroke-width:0.9;fill:none;" >
    <text x="-3" y="-7" transform="translate(29,68)" style="fill:rgb(0,0,0);stroke-width:0;font-size:10;font-style:normal;font-weight:400;font-family:Lucida Grande;" >25</text>
   </g>
   <line style="stroke:rgb(0,0,0);stroke-width:0.9;fill:none;" y1="31" y2="31" x1="47" x2="40" />
   <g style="stroke:rgb(0,0,0);stroke-width:0.9;fill:none;" >
    <text x="-3" y="-4" transform="translate(29,38)" style="fill:rgb(0,0,0);stroke-width:0;font-size:10;font-style:normal;font-weight:400;font-family:Lucida Grande;" >30</text>
   </g>
   <line style="stroke:rgb(0,0,0);stroke-width:0.9;fill:none;" y1="31" y2="247" x1="47" x2="47" />
  </g>
  <g style="stroke:rgb(0,0,0);stroke-width:0.9;fill:none;" >
   <g style="stroke:rgb(0,0,0);stroke-width:0.9;fill:none;" >
    <rect width="311" x="-5" y="-28" height="37" transform="translate(54,279)" style="stroke:rgb(0,0,0);stroke-width:0;fill:none;" />
   </g>
   <g style="stroke:rgb(0,0,0);stroke-width:0.9;fill:none;" >
    <text x="150" y="8" transform="translate(54,279)" style="fill:rgb(0,0,0);stroke-width:0;font-size:12;font-style:normal;font-weight:700;font-family:Lucida Grande;" text-anchor="middle" >Intrinsic Reaction Coordinate</text>
   </g>
  </g>
  <g style="stroke:rgb(0,0,0);stroke-width:0.9;fill:none;" >
   <line style="stroke:rgb(0,0,0);stroke-width:0.9;fill:none;" y1="253" y2="260" x1="53" x2="53" />
   <g style="stroke:rgb(0,0,0);stroke-width:0.9;fill:none;" >
    <text x="-5" y="-30" transform="translate(54,301)" style="fill:rgb(0,0,0);stroke-width:0;font-size:10;font-style:normal;font-weight:400;font-family:Lucida Grande;" >-4</text>
   </g>
   <line style="stroke:rgb(0,0,0);stroke-width:0.9;fill:none;" y1="253" y2="260" x1="86" x2="86" />
   <g style="stroke:rgb(0,0,0);stroke-width:0.9;fill:none;" >
    <text x="-9" y="-30" transform="translate(91,301)" style="fill:rgb(0,0,0);stroke-width:0;font-size:10;font-style:normal;font-weight:400;font-family:Lucida Grande;" >-2</text>
   </g>
   <line style="stroke:rgb(0,0,0);stroke-width:0.9;fill:none;" y1="253" y2="260" x1="120" x2="120" />
   <g style="stroke:rgb(0,0,0);stroke-width:0.9;fill:none;" >
    <text x="-13" y="-30" transform="translate(131,301)" style="fill:rgb(0,0,0);stroke-width:0;font-size:10;font-style:normal;font-weight:400;font-family:Lucida Grande;" >0</text>
   </g>
   <line style="stroke:rgb(0,0,0);stroke-width:0.9;fill:none;" y1="253" y2="260" x1="153" x2="153" />
   <g style="stroke:rgb(0,0,0);stroke-width:0.9;fill:none;" >
    <text x="-17" y="-30" transform="translate(168,301)" style="fill:rgb(0,0,0);stroke-width:0;font-size:10;font-style:normal;font-weight:400;font-family:Lucida Grande;" >2</text>
   </g>
   <line style="stroke:rgb(0,0,0);stroke-width:0.9;fill:none;" y1="253" y2="260" x1="186" x2="186" />
   <g style="stroke:rgb(0,0,0);stroke-width:0.9;fill:none;" >
    <text x="-20" y="-30" transform="translate(205,301)" style="fill:rgb(0,0,0);stroke-width:0;font-size:10;font-style:normal;font-weight:400;font-family:Lucida Grande;" >4</text>
   </g>
   <line style="stroke:rgb(0,0,0);stroke-width:0.9;fill:none;" y1="253" y2="260" x1="220" x2="220" />
   <g style="stroke:rgb(0,0,0);stroke-width:0.9;fill:none;" >
    <text x="-24" y="-30" transform="translate(242,301)" style="fill:rgb(0,0,0);stroke-width:0;font-size:10;font-style:normal;font-weight:400;font-family:Lucida Grande;" >6</text>
   </g>
   <line style="stroke:rgb(0,0,0);stroke-width:0.9;fill:none;" y1="253" y2="260" x1="253" x2="253" />
   <g style="stroke:rgb(0,0,0);stroke-width:0.9;fill:none;" >
    <text x="-28" y="-30" transform="translate(279,301)" style="fill:rgb(0,0,0);stroke-width:0;font-size:10;font-style:normal;font-weight:400;font-family:Lucida Grande;" >8</text>
   </g>
   <line style="stroke:rgb(0,0,0);stroke-width:0.9;fill:none;" y1="253" y2="260" x1="286" x2="286" />
   <g style="stroke:rgb(0,0,0);stroke-width:0.9;fill:none;" >
    <text x="-31" y="-30" transform="translate(313,301)" style="fill:rgb(0,0,0);stroke-width:0;font-size:10;font-style:normal;font-weight:400;font-family:Lucida Grande;" >10</text>
   </g>
   <line style="stroke:rgb(0,0,0);stroke-width:0.9;fill:none;" y1="253" y2="260" x1="320" x2="320" />
   <g style="stroke:rgb(0,0,0);stroke-width:0.9;fill:none;" >
    <text x="-35" y="-30" transform="translate(350,301)" style="fill:rgb(0,0,0);stroke-width:0;font-size:10;font-style:normal;font-weight:400;font-family:Lucida Grande;" >12</text>
   </g>
   <line style="stroke:rgb(0,0,0);stroke-width:0.9;fill:none;" y1="253" y2="260" x1="353" x2="353" />
   <g style="stroke:rgb(0,0,0);stroke-width:0.9;fill:none;" >
    <text x="-39" y="-30" transform="translate(387,301)" style="fill:rgb(0,0,0);stroke-width:0;font-size:10;font-style:normal;font-weight:400;font-family:Lucida Grande;" >14</text>
   </g>
   <line style="stroke:rgb(0,0,0);stroke-width:0.9;fill:none;" y1="253" y2="257" x1="61" x2="61" />
   <line style="stroke:rgb(0,0,0);stroke-width:0.9;fill:none;" y1="253" y2="258" x1="70" x2="70" />
   <line style="stroke:rgb(0,0,0);stroke-width:0.9;fill:none;" y1="253" y2="257" x1="78" x2="78" />
   <line style="stroke:rgb(0,0,0);stroke-width:0.9;fill:none;" y1="253" y2="257" x1="95" x2="95" />
   <line style="stroke:rgb(0,0,0);stroke-width:0.9;fill:none;" y1="253" y2="258" x1="104" x2="104" />
   <line style="stroke:rgb(0,0,0);stroke-width:0.9;fill:none;" y1="253" y2="257" x1="112" x2="112" />
   <line style="stroke:rgb(0,0,0);stroke-width:0.9;fill:none;" y1="253" y2="257" x1="128" x2="128" />
   <line style="stroke:rgb(0,0,0);stroke-width:0.9;fill:none;" y1="253" y2="258" x1="137" x2="137" />
   <line style="stroke:rgb(0,0,0);stroke-width:0.9;fill:none;" y1="253" y2="257" x1="145" x2="145" />
   <line style="stroke:rgb(0,0,0);stroke-width:0.9;fill:none;" y1="253" y2="257" x1="161" x2="161" />
   <line style="stroke:rgb(0,0,0);stroke-width:0.9;fill:none;" y1="253" y2="258" x1="170" x2="170" />
   <line style="stroke:rgb(0,0,0);stroke-width:0.9;fill:none;" y1="253" y2="257" x1="178" x2="178" />
   <line style="stroke:rgb(0,0,0);stroke-width:0.9;fill:none;" y1="253" y2="257" x1="194" x2="194" />
   <line style="stroke:rgb(0,0,0);stroke-width:0.9;fill:none;" y1="253" y2="258" x1="203" x2="203" />
   <line style="stroke:rgb(0,0,0);stroke-width:0.9;fill:none;" y1="253" y2="257" x1="212" x2="212" />
   <line style="stroke:rgb(0,0,0);stroke-width:0.9;fill:none;" y1="253" y2="257" x1="228" x2="228" />
   <line style="stroke:rgb(0,0,0);stroke-width:0.9;fill:none;" y1="253" y2="258" x1="237" x2="237" />
   <line style="stroke:rgb(0,0,0);stroke-width:0.9;fill:none;" y1="253" y2="257" x1="245" x2="245" />
   <line style="stroke:rgb(0,0,0);stroke-width:0.9;fill:none;" y1="253" y2="257" x1="261" x2="261" />
   <line style="stroke:rgb(0,0,0);stroke-width:0.9;fill:none;" y1="253" y2="258" x1="270" x2="270" />
   <line style="stroke:rgb(0,0,0);stroke-width:0.9;fill:none;" y1="253" y2="257" x1="278" x2="278" />
   <line style="stroke:rgb(0,0,0);stroke-width:0.9;fill:none;" y1="253" y2="257" x1="294" x2="294" />
   <line style="stroke:rgb(0,0,0);stroke-width:0.9;fill:none;" y1="253" y2="258" x1="303" x2="303" />
   <line style="stroke:rgb(0,0,0);stroke-width:0.9;fill:none;" y1="253" y2="257" x1="311" x2="311" />
   <line style="stroke:rgb(0,0,0);stroke-width:0.9;fill:none;" y1="253" y2="257" x1="328" x2="328" />
   <line style="stroke:rgb(0,0,0);stroke-width:0.9;fill:none;" y1="253" y2="258" x1="337" x2="337" />
   <line style="stroke:rgb(0,0,0);stroke-width:0.9;fill:none;" y1="253" y2="257" x1="345" x2="345" />
   <line style="stroke:rgb(0,0,0);stroke-width:0.9;fill:none;" y1="253" y2="253" x1="53" x2="353" />
  </g>
  <rect width="310" x="50" y="26" height="224" style="stroke:rgb(0,0,0);stroke-width:0;fill:rgb(255,255,255);" />
   <g style="stroke:rgb(192,192,192);stroke-width:0.9;fill:none;" >
   <polyline points="54 195 56 195 57 195 59 195 60 195 62 195 63 195 65 195 66 195 68 195 70 195 71 194 73 194 75 194 76 193 78 193 80 192 81 192 83 191 85 190 86 189 88 188 90 187 91 186 93 184 95 182 96 179 98 176 100 173 101 168 103 163 105 155 106 144 108 128 110 109 111 90 113 71 115 55 116 43 118 35 120 33 121 36 123 43 125 54 126 64 128 72 130 77 131 81 133 84 135 88 136 91 138 94 140 97 141 99 143 102 145 104 146 106 148 108 150 110 151 112 153 113 155 115 156 116 158 117 160 119 161 120 163 121 165 122 166 123 168 124 170 125 171 126 173 127 175 127 176 128 178 129 180 130 181 131 183 132 185 133 186 134 188 135 190 136 191 137 193 138 195 139 196 140 198 141 200 142 201 143 203 144 205 145 206 146 208 147 210 148 211 149 213 150 215 151 216 152 218 153 220 153 221 154 223 155 225 155 226 156 228 156 230 157 231 158 233 161 235 165 236 171 238 179 240 187 241 196 243 204 245 212 246 218 248 223 250 227 251 231 253 233 255 236 256 237 258 239 260 240 261 241 263 242 265 242 266 243 268 243 270 243 271 243 273 243 275 243 276 244 278 244 279 244 281 244 283 244 284 244 286 244 288 244 289 244 291 244 293 244 294 244 296 244 298 244 299 244 301 244 303 244 304 244 306 244 308 244 309 244 311 244 313 244 314 244 316 244 318 244 319 244 321 244 322 244 324 244 326 244 327 244 329 244 331 244" style="stroke:rgb(0,0,0);stroke-width:0.9;fill:none;" />
  </g>
  <g style="stroke:rgb(192,192,192);stroke-width:0.9;fill:none;" >
   <circle cx="54.5" cy="195.5" style="stroke:rgb(0,0,255);stroke-width:0.9;fill:rgb(192,192,192);" r="2.5" />
   <circle cx="56.5" cy="195.5" style="stroke:rgb(0,0,255);stroke-width:0.9;fill:rgb(192,192,192);" r="2.5" />
   <circle cx="57.5" cy="195.5" style="stroke:rgb(0,0,255);stroke-width:0.9;fill:rgb(192,192,192);" r="2.5" />
   <circle cx="59.5" cy="195.5" style="stroke:rgb(0,0,255);stroke-width:0.9;fill:rgb(192,192,192);" r="2.5" />
   <circle cx="60.5" cy="195.5" style="stroke:rgb(0,0,255);stroke-width:0.9;fill:rgb(192,192,192);" r="2.5" />
   <circle cx="62.5" cy="195.5" style="stroke:rgb(0,0,255);stroke-width:0.9;fill:rgb(192,192,192);" r="2.5" />
   <circle cx="63.5" cy="195.5" style="stroke:rgb(0,0,255);stroke-width:0.9;fill:rgb(192,192,192);" r="2.5" />
   <circle cx="65.5" cy="195.5" style="stroke:rgb(0,0,255);stroke-width:0.9;fill:rgb(192,192,192);" r="2.5" />
   <circle cx="66.5" cy="195.5" style="stroke:rgb(0,0,255);stroke-width:0.9;fill:rgb(192,192,192);" r="2.5" />
   <circle cx="68.5" cy="195.5" style="stroke:rgb(0,0,255);stroke-width:0.9;fill:rgb(192,192,192);" r="2.5" />
   <circle cx="70.5" cy="195.5" style="stroke:rgb(0,0,255);stroke-width:0.9;fill:rgb(192,192,192);" r="2.5" />
   <circle cx="71.5" cy="194.5" style="stroke:rgb(0,0,255);stroke-width:0.9;fill:rgb(192,192,192);" r="2.5" />
   <circle cx="73.5" cy="194.5" style="stroke:rgb(0,0,255);stroke-width:0.9;fill:rgb(192,192,192);" r="2.5" />
   <circle cx="75.5" cy="194.5" style="stroke:rgb(0,0,255);stroke-width:0.9;fill:rgb(192,192,192);" r="2.5" />
   <circle cx="76.5" cy="193.5" style="stroke:rgb(0,0,255);stroke-width:0.9;fill:rgb(192,192,192);" r="2.5" />
   <circle cx="78.5" cy="193.5" style="stroke:rgb(0,0,255);stroke-width:0.9;fill:rgb(192,192,192);" r="2.5" />
   <circle cx="80.5" cy="192.5" style="stroke:rgb(0,0,255);stroke-width:0.9;fill:rgb(192,192,192);" r="2.5" />
   <circle cx="81.5" cy="192.5" style="stroke:rgb(0,0,255);stroke-width:0.9;fill:rgb(192,192,192);" r="2.5" />
   <circle cx="83.5" cy="191.5" style="stroke:rgb(0,0,255);stroke-width:0.9;fill:rgb(192,192,192);" r="2.5" />
   <circle cx="85.5" cy="190.5" style="stroke:rgb(0,0,255);stroke-width:0.9;fill:rgb(192,192,192);" r="2.5" />
   <circle cx="86.5" cy="189.5" style="stroke:rgb(0,0,255);stroke-width:0.9;fill:rgb(192,192,192);" r="2.5" />
   <circle cx="88.5" cy="188.5" style="stroke:rgb(0,0,255);stroke-width:0.9;fill:rgb(192,192,192);" r="2.5" />
   <circle cx="90.5" cy="187.5" style="stroke:rgb(0,0,255);stroke-width:0.9;fill:rgb(192,192,192);" r="2.5" />
   <circle cx="91.5" cy="186.5" style="stroke:rgb(0,0,255);stroke-width:0.9;fill:rgb(192,192,192);" r="2.5" />
   <circle cx="93.5" cy="184.5" style="stroke:rgb(0,0,255);stroke-width:0.9;fill:rgb(192,192,192);" r="2.5" />
   <circle cx="95.5" cy="182.5" style="stroke:rgb(0,0,255);stroke-width:0.9;fill:rgb(192,192,192);" r="2.5" />
   <circle cx="96.5" cy="179.5" style="stroke:rgb(0,0,255);stroke-width:0.9;fill:rgb(192,192,192);" r="2.5" />
   <circle cx="98.5" cy="176.5" style="stroke:rgb(0,0,255);stroke-width:0.9;fill:rgb(192,192,192);" r="2.5" />
   <circle cx="100.5" cy="173.5" style="stroke:rgb(0,0,255);stroke-width:0.9;fill:rgb(192,192,192);" r="2.5" />
   <circle cx="101.5" cy="168.5" style="stroke:rgb(0,0,255);stroke-width:0.9;fill:rgb(192,192,192);" r="2.5" />
   <circle cx="103.5" cy="163.5" style="stroke:rgb(0,0,255);stroke-width:0.9;fill:rgb(192,192,192);" r="2.5" />
   <circle cx="105.5" cy="155.5" style="stroke:rgb(0,0,255);stroke-width:0.9;fill:rgb(192,192,192);" r="2.5" />
   <circle cx="106.5" cy="144.5" style="stroke:rgb(0,0,255);stroke-width:0.9;fill:rgb(192,192,192);" r="2.5" />
   <circle cx="108.5" cy="128.5" style="stroke:rgb(0,0,255);stroke-width:0.9;fill:rgb(192,192,192);" r="2.5" />
   <circle cx="110.5" cy="109.5" style="stroke:rgb(0,0,255);stroke-width:0.9;fill:rgb(192,192,192);" r="2.5" />
   <circle cx="111.5" cy="90.5" style="stroke:rgb(0,0,255);stroke-width:0.9;fill:rgb(192,192,192);" r="2.5" />
   <circle cx="113.5" cy="71.5" style="stroke:rgb(0,0,255);stroke-width:0.9;fill:rgb(192,192,192);" r="2.5" />
   <circle cx="115.5" cy="55.5" style="stroke:rgb(0,0,255);stroke-width:0.9;fill:rgb(192,192,192);" r="2.5" />
   <circle cx="116.5" cy="43.5" style="stroke:rgb(0,0,255);stroke-width:0.9;fill:rgb(192,192,192);" r="2.5" />
   <circle cx="118.5" cy="35.5" style="stroke:rgb(0,0,255);stroke-width:0.9;fill:rgb(192,192,192);" r="2.5" />
   <circle cx="120.5" cy="33.5" style="stroke:rgb(0,0,255);stroke-width:0.9;fill:rgb(192,192,192);" r="2.5" />
   <circle cx="121.5" cy="36.5" style="stroke:rgb(0,0,255);stroke-width:0.9;fill:rgb(192,192,192);" r="2.5" />
   <circle cx="123.5" cy="43.5" style="stroke:rgb(0,0,255);stroke-width:0.9;fill:rgb(192,192,192);" r="2.5" />
   <circle cx="125.5" cy="54.5" style="stroke:rgb(0,0,255);stroke-width:0.9;fill:rgb(192,192,192);" r="2.5" />
   <circle cx="126.5" cy="64.5" style="stroke:rgb(0,0,255);stroke-width:0.9;fill:rgb(192,192,192);" r="2.5" />
   <circle cx="128.5" cy="72.5" style="stroke:rgb(0,0,255);stroke-width:0.9;fill:rgb(192,192,192);" r="2.5" />
   <circle cx="130.5" cy="77.5" style="stroke:rgb(0,0,255);stroke-width:0.9;fill:rgb(192,192,192);" r="2.5" />
   <circle cx="131.5" cy="81.5" style="stroke:rgb(0,0,255);stroke-width:0.9;fill:rgb(192,192,192);" r="2.5" />
   <circle cx="133.5" cy="84.5" style="stroke:rgb(0,0,255);stroke-width:0.9;fill:rgb(192,192,192);" r="2.5" />
   <circle cx="135.5" cy="88.5" style="stroke:rgb(0,0,255);stroke-width:0.9;fill:rgb(192,192,192);" r="2.5" />
   <circle cx="136.5" cy="91.5" style="stroke:rgb(0,0,255);stroke-width:0.9;fill:rgb(192,192,192);" r="2.5" />
   <circle cx="138.5" cy="94.5" style="stroke:rgb(0,0,255);stroke-width:0.9;fill:rgb(192,192,192);" r="2.5" />
   <circle cx="140.5" cy="97.5" style="stroke:rgb(0,0,255);stroke-width:0.9;fill:rgb(192,192,192);" r="2.5" />
   <circle cx="141.5" cy="99.5" style="stroke:rgb(0,0,255);stroke-width:0.9;fill:rgb(192,192,192);" r="2.5" />
   <circle cx="143.5" cy="102.5" style="stroke:rgb(0,0,255);stroke-width:0.9;fill:rgb(192,192,192);" r="2.5" />
   <circle cx="145.5" cy="104.5" style="stroke:rgb(0,0,255);stroke-width:0.9;fill:rgb(192,192,192);" r="2.5" />
   <circle cx="146.5" cy="106.5" style="stroke:rgb(0,0,255);stroke-width:0.9;fill:rgb(192,192,192);" r="2.5" />
   <circle cx="148.5" cy="108.5" style="stroke:rgb(0,0,255);stroke-width:0.9;fill:rgb(192,192,192);" r="2.5" />
   <circle cx="150.5" cy="110.5" style="stroke:rgb(0,0,255);stroke-width:0.9;fill:rgb(192,192,192);" r="2.5" />
   <circle cx="151.5" cy="112.5" style="stroke:rgb(0,0,255);stroke-width:0.9;fill:rgb(192,192,192);" r="2.5" />
   <circle cx="153.5" cy="113.5" style="stroke:rgb(0,0,255);stroke-width:0.9;fill:rgb(192,192,192);" r="2.5" />
   <circle cx="155.5" cy="115.5" style="stroke:rgb(0,0,255);stroke-width:0.9;fill:rgb(192,192,192);" r="2.5" />
   <circle cx="156.5" cy="116.5" style="stroke:rgb(0,0,255);stroke-width:0.9;fill:rgb(192,192,192);" r="2.5" />
   <circle cx="158.5" cy="117.5" style="stroke:rgb(0,0,255);stroke-width:0.9;fill:rgb(192,192,192);" r="2.5" />
   <circle cx="160.5" cy="119.5" style="stroke:rgb(0,0,255);stroke-width:0.9;fill:rgb(192,192,192);" r="2.5" />
   <circle cx="161.5" cy="120.5" style="stroke:rgb(0,0,255);stroke-width:0.9;fill:rgb(192,192,192);" r="2.5" />
   <circle cx="163.5" cy="121.5" style="stroke:rgb(0,0,255);stroke-width:0.9;fill:rgb(192,192,192);" r="2.5" />
   <circle cx="165.5" cy="122.5" style="stroke:rgb(0,0,255);stroke-width:0.9;fill:rgb(192,192,192);" r="2.5" />
   <circle cx="166.5" cy="123.5" style="stroke:rgb(0,0,255);stroke-width:0.9;fill:rgb(192,192,192);" r="2.5" />
   <circle cx="168.5" cy="124.5" style="stroke:rgb(0,0,255);stroke-width:0.9;fill:rgb(192,192,192);" r="2.5" />
   <circle cx="170.5" cy="125.5" style="stroke:rgb(0,0,255);stroke-width:0.9;fill:rgb(192,192,192);" r="2.5" />
   <circle cx="171.5" cy="126.5" style="stroke:rgb(0,0,255);stroke-width:0.9;fill:rgb(192,192,192);" r="2.5" />
   <circle cx="173.5" cy="127.5" style="stroke:rgb(0,0,255);stroke-width:0.9;fill:rgb(192,192,192);" r="2.5" />
   <circle cx="175.5" cy="127.5" style="stroke:rgb(0,0,255);stroke-width:0.9;fill:rgb(192,192,192);" r="2.5" />
   <circle cx="176.5" cy="128.5" style="stroke:rgb(0,0,255);stroke-width:0.9;fill:rgb(192,192,192);" r="2.5" />
   <circle cx="178.5" cy="129.5" style="stroke:rgb(0,0,255);stroke-width:0.9;fill:rgb(192,192,192);" r="2.5" />
   <circle cx="180.5" cy="130.5" style="stroke:rgb(0,0,255);stroke-width:0.9;fill:rgb(192,192,192);" r="2.5" />
   <circle cx="181.5" cy="131.5" style="stroke:rgb(0,0,255);stroke-width:0.9;fill:rgb(192,192,192);" r="2.5" />
   <circle cx="183.5" cy="132.5" style="stroke:rgb(0,0,255);stroke-width:0.9;fill:rgb(192,192,192);" r="2.5" />
   <circle cx="185.5" cy="133.5" style="stroke:rgb(0,0,255);stroke-width:0.9;fill:rgb(192,192,192);" r="2.5" />
   <circle cx="186.5" cy="134.5" style="stroke:rgb(0,0,255);stroke-width:0.9;fill:rgb(192,192,192);" r="2.5" />
   <circle cx="188.5" cy="135.5" style="stroke:rgb(0,0,255);stroke-width:0.9;fill:rgb(192,192,192);" r="2.5" />
   <circle cx="190.5" cy="136.5" style="stroke:rgb(0,0,255);stroke-width:0.9;fill:rgb(192,192,192);" r="2.5" />
   <circle cx="191.5" cy="137.5" style="stroke:rgb(0,0,255);stroke-width:0.9;fill:rgb(192,192,192);" r="2.5" />
   <circle cx="193.5" cy="138.5" style="stroke:rgb(0,0,255);stroke-width:0.9;fill:rgb(192,192,192);" r="2.5" />
   <circle cx="195.5" cy="139.5" style="stroke:rgb(0,0,255);stroke-width:0.9;fill:rgb(192,192,192);" r="2.5" />
   <circle cx="196.5" cy="140.5" style="stroke:rgb(0,0,255);stroke-width:0.9;fill:rgb(192,192,192);" r="2.5" />
   <circle cx="198.5" cy="141.5" style="stroke:rgb(0,0,255);stroke-width:0.9;fill:rgb(192,192,192);" r="2.5" />
   <circle cx="200.5" cy="142.5" style="stroke:rgb(0,0,255);stroke-width:0.9;fill:rgb(192,192,192);" r="2.5" />
   <circle cx="201.5" cy="143.5" style="stroke:rgb(0,0,255);stroke-width:0.9;fill:rgb(192,192,192);" r="2.5" />
   <circle cx="203.5" cy="144.5" style="stroke:rgb(0,0,255);stroke-width:0.9;fill:rgb(192,192,192);" r="2.5" />
   <circle cx="205.5" cy="145.5" style="stroke:rgb(0,0,255);stroke-width:0.9;fill:rgb(192,192,192);" r="2.5" />
   <circle cx="206.5" cy="146.5" style="stroke:rgb(0,0,255);stroke-width:0.9;fill:rgb(192,192,192);" r="2.5" />
   <circle cx="208.5" cy="147.5" style="stroke:rgb(0,0,255);stroke-width:0.9;fill:rgb(192,192,192);" r="2.5" />
   <circle cx="210.5" cy="148.5" style="stroke:rgb(0,0,255);stroke-width:0.9;fill:rgb(192,192,192);" r="2.5" />
   <circle cx="211.5" cy="149.5" style="stroke:rgb(0,0,255);stroke-width:0.9;fill:rgb(192,192,192);" r="2.5" />
   <circle cx="213.5" cy="150.5" style="stroke:rgb(0,0,255);stroke-width:0.9;fill:rgb(192,192,192);" r="2.5" />
   <circle cx="215.5" cy="151.5" style="stroke:rgb(0,0,255);stroke-width:0.9;fill:rgb(192,192,192);" r="2.5" />
   <circle cx="216.5" cy="152.5" style="stroke:rgb(0,0,255);stroke-width:0.9;fill:rgb(192,192,192);" r="2.5" />
   <circle cx="218.5" cy="153.5" style="stroke:rgb(0,0,255);stroke-width:0.9;fill:rgb(192,192,192);" r="2.5" />
   <circle cx="220.5" cy="153.5" style="stroke:rgb(0,0,255);stroke-width:0.9;fill:rgb(192,192,192);" r="2.5" />
   <circle cx="221.5" cy="154.5" style="stroke:rgb(0,0,255);stroke-width:0.9;fill:rgb(192,192,192);" r="2.5" />
   <circle cx="223.5" cy="155.5" style="stroke:rgb(0,0,255);stroke-width:0.9;fill:rgb(192,192,192);" r="2.5" />
   <circle cx="225.5" cy="155.5" style="stroke:rgb(0,0,255);stroke-width:0.9;fill:rgb(192,192,192);" r="2.5" />
   <circle cx="226.5" cy="156.5" style="stroke:rgb(0,0,255);stroke-width:0.9;fill:rgb(192,192,192);" r="2.5" />
   <circle cx="228.5" cy="156.5" style="stroke:rgb(0,0,255);stroke-width:0.9;fill:rgb(192,192,192);" r="2.5" />
   <circle cx="230.5" cy="157.5" style="stroke:rgb(0,0,255);stroke-width:0.9;fill:rgb(192,192,192);" r="2.5" />
   <circle cx="231.5" cy="158.5" style="stroke:rgb(0,0,255);stroke-width:0.9;fill:rgb(192,192,192);" r="2.5" />
   <circle cx="233.5" cy="161.5" style="stroke:rgb(0,0,255);stroke-width:0.9;fill:rgb(192,192,192);" r="2.5" />
   <circle cx="235.5" cy="165.5" style="stroke:rgb(0,0,255);stroke-width:0.9;fill:rgb(192,192,192);" r="2.5" />
   <circle cx="236.5" cy="171.5" style="stroke:rgb(0,0,255);stroke-width:0.9;fill:rgb(192,192,192);" r="2.5" />
   <circle cx="238.5" cy="179.5" style="stroke:rgb(0,0,255);stroke-width:0.9;fill:rgb(192,192,192);" r="2.5" />
   <circle cx="240.5" cy="187.5" style="stroke:rgb(0,0,255);stroke-width:0.9;fill:rgb(192,192,192);" r="2.5" />
   <circle cx="241.5" cy="196.5" style="stroke:rgb(0,0,255);stroke-width:0.9;fill:rgb(192,192,192);" r="2.5" />
   <circle cx="243.5" cy="204.5" style="stroke:rgb(0,0,255);stroke-width:0.9;fill:rgb(192,192,192);" r="2.5" />
   <circle cx="245.5" cy="212.5" style="stroke:rgb(0,0,255);stroke-width:0.9;fill:rgb(192,192,192);" r="2.5" />
   <circle cx="246.5" cy="218.5" style="stroke:rgb(0,0,255);stroke-width:0.9;fill:rgb(192,192,192);" r="2.5" />
   <circle cx="248.5" cy="223.5" style="stroke:rgb(0,0,255);stroke-width:0.9;fill:rgb(192,192,192);" r="2.5" />
   <circle cx="250.5" cy="227.5" style="stroke:rgb(0,0,255);stroke-width:0.9;fill:rgb(192,192,192);" r="2.5" />
   <circle cx="251.5" cy="231.5" style="stroke:rgb(0,0,255);stroke-width:0.9;fill:rgb(192,192,192);" r="2.5" />
   <circle cx="253.5" cy="233.5" style="stroke:rgb(0,0,255);stroke-width:0.9;fill:rgb(192,192,192);" r="2.5" />
   <circle cx="255.5" cy="236.5" style="stroke:rgb(0,0,255);stroke-width:0.9;fill:rgb(192,192,192);" r="2.5" />
   <circle cx="256.5" cy="237.5" style="stroke:rgb(0,0,255);stroke-width:0.9;fill:rgb(192,192,192);" r="2.5" />
   <circle cx="258.5" cy="239.5" style="stroke:rgb(0,0,255);stroke-width:0.9;fill:rgb(192,192,192);" r="2.5" />
   <circle cx="260.5" cy="240.5" style="stroke:rgb(0,0,255);stroke-width:0.9;fill:rgb(192,192,192);" r="2.5" />
   <circle cx="261.5" cy="241.5" style="stroke:rgb(0,0,255);stroke-width:0.9;fill:rgb(192,192,192);" r="2.5" />
   <circle cx="263.5" cy="242.5" style="stroke:rgb(0,0,255);stroke-width:0.9;fill:rgb(192,192,192);" r="2.5" />
   <circle cx="265.5" cy="242.5" style="stroke:rgb(0,0,255);stroke-width:0.9;fill:rgb(192,192,192);" r="2.5" />
   <circle cx="266.5" cy="243.5" style="stroke:rgb(0,0,255);stroke-width:0.9;fill:rgb(192,192,192);" r="2.5" />
   <circle cx="268.5" cy="243.5" style="stroke:rgb(0,0,255);stroke-width:0.9;fill:rgb(192,192,192);" r="2.5" />
   <circle cx="270.5" cy="243.5" style="stroke:rgb(0,0,255);stroke-width:0.9;fill:rgb(192,192,192);" r="2.5" />
   <circle cx="271.5" cy="243.5" style="stroke:rgb(0,0,255);stroke-width:0.9;fill:rgb(192,192,192);" r="2.5" />
   <circle cx="273.5" cy="243.5" style="stroke:rgb(0,0,255);stroke-width:0.9;fill:rgb(192,192,192);" r="2.5" />
   <circle cx="275.5" cy="243.5" style="stroke:rgb(0,0,255);stroke-width:0.9;fill:rgb(192,192,192);" r="2.5" />
   <circle cx="276.5" cy="244.5" style="stroke:rgb(0,0,255);stroke-width:0.9;fill:rgb(192,192,192);" r="2.5" />
   <circle cx="278.5" cy="244.5" style="stroke:rgb(0,0,255);stroke-width:0.9;fill:rgb(192,192,192);" r="2.5" />
   <circle cx="279.5" cy="244.5" style="stroke:rgb(0,0,255);stroke-width:0.9;fill:rgb(192,192,192);" r="2.5" />
   <circle cx="281.5" cy="244.5" style="stroke:rgb(0,0,255);stroke-width:0.9;fill:rgb(192,192,192);" r="2.5" />
   <circle cx="283.5" cy="244.5" style="stroke:rgb(0,0,255);stroke-width:0.9;fill:rgb(192,192,192);" r="2.5" />
   <circle cx="284.5" cy="244.5" style="stroke:rgb(0,0,255);stroke-width:0.9;fill:rgb(192,192,192);" r="2.5" />
   <circle cx="286.5" cy="244.5" style="stroke:rgb(0,0,255);stroke-width:0.9;fill:rgb(192,192,192);" r="2.5" />
   <circle cx="288.5" cy="244.5" style="stroke:rgb(0,0,255);stroke-width:0.9;fill:rgb(192,192,192);" r="2.5" />
   <circle cx="289.5" cy="244.5" style="stroke:rgb(0,0,255);stroke-width:0.9;fill:rgb(192,192,192);" r="2.5" />
   <circle cx="291.5" cy="244.5" style="stroke:rgb(0,0,255);stroke-width:0.9;fill:rgb(192,192,192);" r="2.5" />
   <circle cx="293.5" cy="244.5" style="stroke:rgb(0,0,255);stroke-width:0.9;fill:rgb(192,192,192);" r="2.5" />
   <circle cx="294.5" cy="244.5" style="stroke:rgb(0,0,255);stroke-width:0.9;fill:rgb(192,192,192);" r="2.5" />
   <circle cx="296.5" cy="244.5" style="stroke:rgb(0,0,255);stroke-width:0.9;fill:rgb(192,192,192);" r="2.5" />
   <circle cx="298.5" cy="244.5" style="stroke:rgb(0,0,255);stroke-width:0.9;fill:rgb(192,192,192);" r="2.5" />
   <circle cx="299.5" cy="244.5" style="stroke:rgb(0,0,255);stroke-width:0.9;fill:rgb(192,192,192);" r="2.5" />
   <circle cx="301.5" cy="244.5" style="stroke:rgb(0,0,255);stroke-width:0.9;fill:rgb(192,192,192);" r="2.5" />
   <circle cx="303.5" cy="244.5" style="stroke:rgb(0,0,255);stroke-width:0.9;fill:rgb(192,192,192);" r="2.5" />
   <circle cx="304.5" cy="244.5" style="stroke:rgb(0,0,255);stroke-width:0.9;fill:rgb(192,192,192);" r="2.5" />
   <circle cx="306.5" cy="244.5" style="stroke:rgb(0,0,255);stroke-width:0.9;fill:rgb(192,192,192);" r="2.5" />
   <circle cx="308.5" cy="244.5" style="stroke:rgb(0,0,255);stroke-width:0.9;fill:rgb(192,192,192);" r="2.5" />
   <circle cx="309.5" cy="244.5" style="stroke:rgb(0,0,255);stroke-width:0.9;fill:rgb(192,192,192);" r="2.5" />
   <circle cx="311.5" cy="244.5" style="stroke:rgb(0,0,255);stroke-width:0.9;fill:rgb(192,192,192);" r="2.5" />
   <circle cx="313.5" cy="244.5" style="stroke:rgb(0,0,255);stroke-width:0.9;fill:rgb(192,192,192);" r="2.5" />
   <circle cx="314.5" cy="244.5" style="stroke:rgb(0,0,255);stroke-width:0.9;fill:rgb(192,192,192);" r="2.5" />
   <circle cx="316.5" cy="244.5" style="stroke:rgb(0,0,255);stroke-width:0.9;fill:rgb(192,192,192);" r="2.5" />
   <circle cx="318.5" cy="244.5" style="stroke:rgb(0,0,255);stroke-width:0.9;fill:rgb(192,192,192);" r="2.5" />
   <circle cx="319.5" cy="244.5" style="stroke:rgb(0,0,255);stroke-width:0.9;fill:rgb(192,192,192);" r="2.5" />
   <circle cx="321.5" cy="244.5" style="stroke:rgb(0,0,255);stroke-width:0.9;fill:rgb(192,192,192);" r="2.5" />
   <circle cx="322.5" cy="244.5" style="stroke:rgb(0,0,255);stroke-width:0.9;fill:rgb(192,192,192);" r="2.5" />
   <circle cx="324.5" cy="244.5" style="stroke:rgb(0,0,255);stroke-width:0.9;fill:rgb(192,192,192);" r="2.5" />
   <circle cx="326.5" cy="244.5" style="stroke:rgb(0,0,255);stroke-width:0.9;fill:rgb(192,192,192);" r="2.5" />
   <circle cx="327.5" cy="244.5" style="stroke:rgb(0,0,255);stroke-width:0.9;fill:rgb(192,192,192);" r="2.5" />
   <circle cx="329.5" cy="244.5" style="stroke:rgb(0,0,255);stroke-width:0.9;fill:rgb(192,192,192);" r="2.5" />
   <circle cx="331.5" cy="244.5" style="stroke:rgb(0,0,255);stroke-width:0.9;fill:rgb(192,192,192);" r="2.5" />
  </g>
 </g>
</svg>
