<?xml version="1.0" encoding="utf-8"?>
<!-- Generator: Adobe Illustrator 15.1.0, SVG Export Plug-In . SVG Version: 6.00 Build 0)  -->
<!DOCTYPE svg PUBLIC "-//W3C//DTD SVG 1.1//EN" "http://www.w3.org/Graphics/SVG/1.1/DTD/svg11.dtd">
<svg version="1.1" id="Layer_1" xmlns="http://www.w3.org/2000/svg" xmlns:xlink="http://www.w3.org/1999/xlink" x="0px" y="0px"
	 width="5669.29px" height="5669.29px" viewBox="0 0 5669.29 5669.29" enable-background="new 0 0 5669.29 5669.29"
	 xml:space="preserve">
<path fill="none" stroke="#000000" stroke-width="0.25" stroke-miterlimit="10" d="M2391.057,1650.089
	c-4.877,87.446-11.36,173.282-15.998,260.967c-116.092,62.971-263.132,109.132-424.946,128.984
	c-83.413,10.233-186.153,18.167-246.97-11.999c-61.595-30.552-85.67-98.833-75.991-196.976c-3.104-1.514-7.067,4.514-10.998,7.999
	c-57.388,50.875-122.355,101.991-193.977,139.981c-78.631,41.709-169.109,66.65-283.965,71.991
	c-116.049,5.396-201.584-33.753-256.968-96.988c-57.296-65.419-85.371-153.736-78.99-272.966
	c5.899-110.216,38.72-196.333,92.989-262.967c52.935-64.996,123.059-117.943,201.975-153.98
	c165.047-75.371,372.42-102.032,578.927-132.982c0.667,0,1.333,0,2,0c2.447-75.1,20.382-160.557,2-227.973
	c-17.852-65.474-73.397-88.433-155.979-87.988c-157.772,0.849-226.615,99.03-273.966,212.974
	c-107.229,2.053-218.126-11.142-326.959-5.999c-34.102,1.611-63.442,8.39-90.989,19.997
	c-76.638,32.294-137.557,82.307-174.979,157.979c-12.193,24.66-25.719,51.769-29.995,80.99c-9.958,68.036-5,143.049-5,216.974
	c0,221.104,0,445.432,0,665.916c1472.036,2.334,2948.76,0.334,4422.446,1c0.668,0,1.334,0,2,0c0.008-246.939-0.012-504.3,0-752.905
	c0.002-33.21,0.816-64.281-1-92.988c-1.867-29.519-6.738-53.549-15.998-77.99c-17.164-45.311-39.361-85.357-70.99-116.984
	c-59.889-59.886-141.453-112.105-273.967-101.987c-20.57,168.735-44.459,349.672-58.992,531.934
	c-4.662,58.46-10.42,141.363,37.996,152.98c17.559,4.213,39.496,0.204,56.992-3c44.545-8.155,78.424-23.837,110.986-43.995
	c5.453-3.376,10.109-10.052,16.996-8.999c-5.4,42.679-10.461,86.938-15.996,130.984c-5.547,44.111-8.77,88.871-16,129.983
	c-0.982,5.598-26.691,16.947-34.994,20.997c-135.189,65.949-277.168,104.834-470.941,113.986
	c-114.076,5.388-195.252-5.719-203.975-111.986c-2.654-32.344,0.975-67.514,4-99.986c21.096-226.372,53.998-448.233,75.99-668.918
	c6.316-63.402,11.453-142.981-20.998-181.978c-16.775-20.158-45.379-22.099-80.988-12.998
	c-87.99,22.487-159.891,96.712-211.975,159.98c-4.432,5.383-9.518,10.127-11.998,14.998c-3.18,6.238-2.783,12.855-4,21.997
	c-16.801,126.346-28.727,254.403-39.996,385.951c-11.094,129.506-27.324,262.129-17.998,400.95
	c-183.822,27.487-361.709,66.23-519.934,115.985c29.678-250.391,63.857-512.043,82.988-774.903
	c4.756-65.34,11.949-133.41,13-201.975c1.055-68.903-8.088-138.543-82.99-126.984c-57.111,8.813-101.176,42.087-139.982,73.991
	c-40.121,32.985-73.195,68.431-105.986,107.986c-17.342,130.183-26.514,262.871-37.994,396.951
	c-11.439,133.561-23.547,269.159-22.998,408.948c-181.039,28.604-354.306,64.97-511.936,116.985
	c24.742-210.049,50.854-436.549,69.99-658.917c9.453-109.832,22.005-229.922,21.998-343.957
	c-0.004-66.078-8.481-108.423-77.99-102.987c-53.472,4.182-98.224,20.171-141.982,37.995c7.085-83.239,13.36-167.283,19.998-250.969
	c1.967-4.046,8.879-5.617,13.999-7.999c128.201-59.641,270.096-122.522,429.945-153.98c75.582-14.875,196.408-35.721,246.97,10.999
	c54.098,49.987,19.68,166.984,16.998,248.97c5.146,1.809,8.137-4.652,10.998-7c119.18-97.719,249.438-200.215,419.947-245.97
	c85.943-23.062,215.531-41.107,290.963,5c69.889,42.719,101.922,128.548,87.99,248.97c4.951,0.383,8.506-4.455,11.998-6.999
	c63.717-46.417,129.678-93.781,198.977-136.983c73.83-46.03,154.412-87.94,246.969-111.986
	c49.293-12.806,102.939-18.349,158.979-20.996c116.41-5.5,181.82,57.064,202.977,153.979c10.861,49.771,5.395,105.478-3,161.979
	c148.445-0.547,247.736,46.611,324.959,115.986c76.273,68.522,134.941,163.578,148.98,290.963c7.6,68.943,3.004,143.127,3,217.974
	c-0.047,1027.984,0.047,2056.728,0,3082.615c-0.002,37.979,0.625,73.469-3,106.984c-17.111,158.246-105.721,270.51-213.973,336.959
	c-45.357,27.84-96.938,50.066-158.98,60.992c-60.793,10.705-135.018,5.996-213.973,5.998c-1169.066,0.037-2355.525-0.035-3523.56,0
	c-80.086,0.004-150.44,2.941-210.975-9.998c-60.689-12.975-111.126-35.623-154.979-64.992
	c-87.021-58.27-153.427-137.586-186.978-252.969c-8.348-28.707-14.681-60.01-16.998-93.986c-2.329-34.156-1-71.113-1-108.986
	c0-1024.775,0-2053.1,0-3082.615c0-74.202-4.532-148.455,4.999-214.973c17.751-123.875,79.315-216.118,156.98-282.964
	c78.163-67.274,183.234-111.168,332.958-106.987c7.172-65.818,12.447-133.535,17.998-200.975
	c196.66-80.218,434.617-109.543,697.913-121.984c168.156-7.946,328.804,14.049,418.946,85.989
	c48.973,39.083,78.053,87.214,81.99,169.979c3.706,77.905-7.823,156.3-14.999,234.971
	c-13.952,152.969-34.858,301.558-44.994,459.942c-4.782,74.741-13.719,181.416,56.993,188.978
	c39.068,4.177,77.389-7.208,107.987-17.998c27.162-9.578,51.099-22.879,73.991-36.995
	C2385.307,1651.701,2388.012,1648.583,2391.057,1650.089z M1651.149,1353.126c-96.89,4.843-186.386,19.518-252.969,52.993
	c-69.176,34.779-109.873,95.225-106.986,198.975c2.697,96.928,65.656,149.285,169.979,123.984
	c57.322-13.902,103.939-49.568,142.982-85.989c10.23-9.543,33.245-28.29,36.996-39.995c2.709-8.456,2.021-20.583,3-30.996
	c2.991-31.843,6.211-65.065,8.999-94.987c3.964-42.55,9.694-83.388,8.999-124.984
	C1656.182,1351.324,1653.989,1352.984,1651.149,1353.126z M1833.126,2752.95c-9.639-3.925-11.004-27.688-9.999-48.993
	c5.417-114.737,19.772-220.64,29.996-328.959c1.774-18.809,5.642-37.503,5-54.993c-1.073-29.209-13.422-37.952-43.995-35.996
	c-51.727,3.314-112.663,21.632-156.98,35.996c-1.905,22.425-4.321,44.338-6.998,65.992c13.237,0.004,45.988-19.051,61.991-6
	c8.631,7.039,5.585,33.774,3.999,54.994c-7.998,107.04-18.256,212.655-24.997,317.959c-2.801,43.76-9.633,84.429,30.997,88.99
	c29.188,3.275,59.594-4.447,85.989-11c27.05-6.714,50.807-13.678,72.991-24.996c0.534-22.797,2.438-44.222,4-65.991
	C1872.586,2741.796,1852.146,2760.693,1833.126,2752.95z M4620.776,2752.95c-9.639-3.925-11.004-27.688-9.998-48.993
	c5.414-114.736,19.768-220.643,29.996-328.959c1.777-18.809,5.643-37.503,5-54.993c-1.07-29.209-13.424-37.952-43.994-35.996
	c-51.729,3.314-112.664,21.632-156.98,35.996c-1.906,22.425-4.322,44.338-6.998,65.992c13.236,0.004,45.988-19.051,61.992-6
	c8.633,7.041,5.582,33.774,3.998,54.994c-7.988,107.041-18.254,212.655-24.996,317.959c-2.801,43.76-9.633,84.429,30.996,88.99
	c29.188,3.275,59.594-4.447,85.988-11c27.051-6.714,50.809-13.678,72.99-24.996c0.535-22.797,2.439-44.222,4-65.991
	C4660.237,2741.796,4639.795,2760.693,4620.776,2752.95z M1335.188,2751.951c-12.93-5.37-11.464-35.085-10-53.993
	c1.761-22.729,4.263-42.903,6-59.992c4.565-44.936,21.229-125.368-5-153.98c-21.123-23.043-81.728-34.806-129.982-28.996
	c-60.842,7.325-124.301,8.466-173.979,32.995c-2.646,29.016-4.474,58.852-8.999,85.99c22.754,1.909,48.693,0.633,72.991,1
	c9.019-18.109,15.056-31.729,31.996-42.996c15.374-10.225,52.775-19.512,73.991-6.998c21.995,12.972,14.96,58.875,11.999,92.987
	c-3.598,41.429-7.417,83.732-10.999,124.984c-1.928,22.208-6.032,44.376-3.999,63.991c2.392,23.077,17.487,33.206,38.995,34.997
	c59.563,4.959,116.115-16.939,156.979-34.997c1.222-22.774,3.178-44.815,4-67.991
	C1376.133,2740.956,1355.759,2760.495,1335.188,2751.951z M2773.009,2751.951c-12.929-5.37-11.462-35.085-9.999-53.993
	c1.761-22.729,4.263-42.903,6-59.992c4.566-44.935,21.229-125.37-5-153.98c-21.122-23.042-81.729-34.808-129.983-28.996
	c-60.842,7.325-124.301,8.464-173.979,32.995c-2.646,29.016-4.474,58.852-8.999,85.99c22.753,1.909,48.693,0.633,72.991,1
	c9.018-18.109,15.056-31.729,31.995-42.996c15.375-10.224,52.774-19.513,73.991-6.998c21.995,12.973,14.96,58.875,11.999,92.987
	c-3.597,41.429-7.417,83.732-10.999,124.984c-1.93,22.209-6.032,44.375-3.999,63.991c2.391,23.077,17.487,33.206,38.993,34.997
	c59.563,4.959,116.117-16.939,156.98-34.997c1.223-22.774,3.179-44.815,4-67.991
	C2813.953,2740.956,2793.58,2760.495,2773.009,2751.951z M2143.087,2527.979c-2.702-19.207-2.773-45.555-12.999-58.992
	c-8.495-11.165-28.53-13.202-45.994-11.999c-51.308,3.539-93.417,27.479-130.982,44.995c-1.94,21.724-3.785,43.542-5,65.99
	c12.005-4.315,35.635-17.926,52.993-9.998c16.663,7.609,18.264,41.74,21.997,63.992c12.39,73.816,24.24,155.129,28.996,228.971
	c37.673-14.654,79.652-25.002,127.984-28.997c47.764-61.562,103.829-145.83,141.981-225.972
	c12.708-26.691,29.25-59.509,31.996-90.989c2.346-26.885-4.46-42.316-24.996-44.993c-43.925-5.726-86.887,16.146-116.984,23.997
	c-1.023,20.642-4.978,38.351-6,58.992c46.94-13.612,30.502,38.271,20.998,62.992c-13.809,35.908-31.771,68.54-48.994,98.987
	c-3.416,6.039-6.955,14.569-13.998,15.998C2158.563,2660.28,2151.843,2590.206,2143.087,2527.979z M3075.971,2462.987
	c-9.063-6.259-21.709-5.914-35.996-5c-55.541,3.553-111.615,28.482-149.98,45.993c-2.035,22.295-4.379,44.281-6.998,65.992
	c15.879-1.543,35.768-17.521,54.992-8.998c14.613,6.479,8.348,47.658,6.998,68.99c-4.768,75.387-15.826,154.532-25.996,216.973
	c45.807-11.521,92.242-22.409,142.982-28.997c-0.344-53.521,4.977-107.52,8.998-157.979c1.303-16.343,0.568-37.627,5-50.993
	c3.869-11.671,23.285-24.823,33.996-31.996c12.082-8.091,32.781-21.097,48.992-15.997c22.893,7.199,9.762,63.926,7,87.988
	c-5.055,44.026-8.496,78.375-12.998,120.983c-4.008,37.917-6.781,68.088,27.996,71.993c29.639,3.326,59.172-4.094,84.988-10
	c26.643-6.094,52.82-12.547,69.992-25.996c3.84-21.156,5.871-44.123,8.998-65.992c-13.789,2.5-31.643,22.762-49.994,13.998
	c-12.063-5.76-7.721-43.021-5.998-58.992c5.123-47.539,10.227-78.067,15.998-123.983c2.699-21.486,7.678-44.892,5.998-63.992
	c-2.451-27.903-19.184-46.45-43.992-48.993c-38.727-3.968-77.625,9.549-106.988,22.998c-31.119,14.254-56.461,35.375-77.99,50.992
	C3083.963,2508.82,3092.879,2474.662,3075.971,2462.987z M4168.834,2542.979c-4.504-61.914-54.125-83.181-120.984-84.99
	c-3.838,23.826-4.641,50.688-8,74.99c18.719,1.896,21.514,27.647,19.998,44.994c-3.201,36.661-31.297,59.995-70.99,58.993
	c-0.559,20.535-2.855,39.694-1,59.992C4090.704,2696.944,4176.385,2646.773,4168.834,2542.979z M3633.901,2459.987
	c-76.805,4.455-120.08,28.264-155.98,74.989c-33.277,43.313-51.742,106.205-45.994,183.979
	c5.168,69.917,46.525,110.479,109.986,120.985c50.963,8.438,112.244-0.732,152.98-14.998c8.58-3.007,33.09-9.913,37.994-19.998
	c4.811-9.888,2.633-26.643,4-38.995c1.488-13.44,3.65-25.633,5-37.995c-30.379,19.698-69.051,43.737-114.984,38.995
	c-36.385-3.758-56.342-34.95-58.994-71.991c-4.623-64.575,10.211-140.476,50.994-160.979c43.111-21.677,71.932,14.686,67.99,59.992
	c19.871-2.794,42.973-2.355,63.992-3.999c3.457-41.537,8.928-81.063,16.998-117.985
	C3728.342,2459.913,3681.891,2457.204,3633.901,2459.987z M1457.173,2651.964c-8.875,63.683-4.85,131.425,31.996,167.979
	c29.681,29.446,85.003,26.881,122.984,6.999c11.18-5.854,36.026-20.935,39.994-31.995c3.745-10.439,2.862-25.094,4-36.996
	c1.221-12.767,1.425-25.098,3-37.995c-11.533,5.756-28.043,23.005-49.993,15.998c-13.991-4.466-18.86-24.026-19.998-40.995
	c-3.61-53.848,12.502-126.646,42.995-150.98c10.731-8.565,27.893-15.328,43.993-10c1.982-24.348,4.38-48.281,6.999-71.99
	C1542.159,2446.569,1473.521,2534.661,1457.173,2651.964z M3837.875,2595.971c-26.287,80.579-26.133,192.643,43.994,228.973
	c70.6,36.573,196.668,15.653,252.969-15.998c1.906-26.425,4.094-52.567,6-78.99c-29.811,20.203-106.486,56.523-153.982,31.996
	c-36.982-19.102-35.623-77.418-28.996-129.984c5.768-45.736,19.67-85.447,49.994-98.986c1.314-23.447,7.688-53.25,6-72.991
	C3918.965,2465.847,3862.262,2521.212,3837.875,2595.971z M4244.825,2651.964c-8.877,63.683-4.852,131.427,31.996,167.979
	c29.68,29.444,85.004,26.883,122.984,6.999c11.182-5.854,36.025-20.934,39.994-31.995c3.746-10.438,2.863-25.096,4-36.996
	c1.219-12.767,1.424-25.098,3-37.995c-11.535,5.756-28.045,23.005-49.994,15.998c-13.992-4.466-18.859-24.026-19.998-40.995
	c-3.609-53.848,12.5-126.646,42.994-150.98c10.723-8.557,27.9-15.336,43.994-10c1.982-24.348,4.379-48.281,7-71.99
	C4329.809,2446.569,4261.174,2534.661,4244.825,2651.964z M1167.209,2605.97c-97.885,17.154-207.354,39.234-197.975,160.979
	c2.916,37.854,27.025,72.504,72.99,75.991c51.332,3.893,79.772-17.834,111.986-36.997c0.813-19.851,2.837-38.491,4-57.991
	c-10.969,2.6-22.557,14.789-40.995,10.998c-25.564-5.259-24.722-53.148-8.999-71.991c13.866-16.618,37.497-17.503,56.993-21.997
	c0.464-18.897,6.912-42.373,3-58.992C1167.876,2605.97,1167.543,2605.97,1167.209,2605.97z M2605.029,2605.97
	c-97.89,17.154-207.349,39.234-197.976,160.979c2.914,37.854,27.027,72.504,72.99,75.991c51.332,3.893,79.771-17.834,111.986-36.997
	c0.813-19.851,2.836-38.491,4-57.991c-10.969,2.6-22.557,14.789-40.995,10.998c-25.565-5.259-24.722-53.148-8.999-71.991
	c13.865-16.618,37.496-17.503,56.992-21.997c0.465-18.897,6.912-42.373,3-58.992
	C2605.697,2605.97,2605.363,2605.97,2605.029,2605.97z M2539.038,2968.924c2.105-18.557,6.204-37.217,3.999-54.992
	c-2.846-22.951-18.838-30.801-44.994-28.996c-55.19,3.805-106.589,22.002-152.98,34.996c-2.701,21.627-5.007,43.65-6.999,65.99
	c16.63-3.197,34.988-9.451,54.994-6c12.547,14.004,8.235,36.223,6.998,54.992c-9.287,140.977-23.679,281.246-40.994,411.949
	c45.164-13.494,92.595-24.725,141.981-33.996c-0.226-53.332,6.151-107.26,9.998-157.98c1.123-14.791-0.604-33.537,3-44.992
	c3.447-10.959,24.349-23.906,34.996-30.996c12.162-8.102,31.369-22.674,47.994-16.998c20.192,6.891,9.583,57.055,6.998,79.988
	c-4.332,38.451-8.585,74.543-12.998,112.986c-4.377,38.131-14.593,82.402,23.997,86.988c31.313,3.723,62.426-2.785,87.988-8.998
	c26.136-6.352,50.314-15.264,70.991-26.996c2.951-22.379,5.125-45.535,7.999-67.992c-14.471,3.596-31.672,18.23-53.994,13.998
	c-10.11-18.416-3.17-40.289-0.998-59.992c4.662-42.318,8.912-82.123,13.998-123.982c2.576-21.219,8.244-43.922,5.998-63.992
	c-3.061-27.357-23.223-43.594-48.993-45.994c-71.615-6.674-135.681,45.314-176.979,69.99
	C2527.289,3077.118,2533.207,3020.309,2539.038,2968.924z M2936.989,2919.93c-12.422,13.139-24.58,53.516-6,75.99
	c24.26,29.346,86.422,26.088,115.984,3c21.813-17.035,31.848-59.816,12.998-82.99c-12.928-15.895-38.656-21.066-68.99-17.998
	C2967.311,2900.327,2950.506,2905.631,2936.989,2919.93z M1836.126,3351.875c-12.943-5.375-11.469-35.01-9.999-53.994
	c1.754-22.65,4.268-42.951,6-59.99c4.566-44.943,21.232-125.365-5-153.98c-21.124-23.043-81.728-34.805-129.984-28.996
	c-60.842,7.324-124.3,8.465-173.978,32.996c-2.647,29.016-4.475,58.852-8.999,85.988c22.753,1.912,48.692,0.635,72.991,1
	c9.017-18.107,15.056-31.73,31.996-42.994c15.375-10.225,52.774-19.512,73.99-6.998c21.995,12.971,14.96,58.875,11.999,92.988
	c-3.597,41.428-7.417,83.729-10.999,124.982c-1.928,22.207-6.033,44.375-4,63.99c2.394,23.078,17.488,33.205,38.996,34.996
	c59.563,4.959,116.116-16.938,156.98-34.996c1.222-22.773,3.178-44.813,4-67.99
	C1877.07,3340.881,1856.696,3360.418,1836.126,3351.875z M4681.77,3122.905c-4.1-22.059-9.654-56.686-26.996-63.992
	c-8.201-3.457-18.059-2.617-26.998-2c-24.537,1.691-49.438,9.205-70.99,17.998c-20.52,8.371-40.559,17.496-54.994,29.996
	c-2.465,20.531-3.969,42.023-4.998,63.992c9.781-2.451,20.873-14.922,36.994-12c18.225,3.305,25.563,41.896,30.996,60.994
	c20.627,72.471,34.885,155.895,48.994,226.971c14.998,0,29.996,0,44.994,0c-31.764,44.588-70.377,86.5-110.984,120.984
	c-5.346,4.541-14.908,8.506-14.998,16.998c44.414,10.246,87.51,21.811,126.982,36.996c45.473-77.508,91.48-156.477,138.982-250.969
	c31.596-62.85,66.668-129.529,90.988-201.975c7.957-23.703,20.002-54.211,15.998-81.99c-4.086-28.348-29.439-30.176-60.992-26.996
	c-39.303,3.961-71.225,14.688-97.986,27.996c-0.883,20.117-7.273,40.053-6,58.992c8.244-3.293,19.928-7.832,29.996-4
	c18.066,6.881,9.246,42.99,5,59.992c-13.656,54.68-33.668,95.129-52.994,139.982c-3.777,8.766-5.291,20.676-13.998,24.996
	C4701.813,3284.653,4696.106,3200.04,4681.77,3122.905z M916.241,3064.911c-7.393-7.391-22.305-8.012-36.996-6.998
	c-27.339,1.883-53.221,10.068-78.99,18.998c-24.785,8.588-48.813,16.971-64.992,28.996c-2.375,20.621-4.101,41.893-5,63.992
	c13.379-2.273,34.611-17.441,49.994-8c12.729,7.814,6.362,49.674,5,69.992c-4.99,74.428-15.188,151.193-21.998,215.973
	c41.582-13.078,85.913-23.408,133.983-29.996c0.048-70.691,9.133-140.787,14.998-208.975c9.376-10.568,17.381-20.873,29.997-30.996
	c8.604-6.904,27.916-22.238,43.995-17.998c8.394,2.215,12.649,16.641,12.998,28.996c1.12,39.826-6.316,86.684-10.999,130.984
	c-4.843,45.813-8.956,90.375-14.998,127.982c42.333-12.994,87.36-23.293,135.982-29.996c-0.906-72.773,8.446-142.477,15.998-209.975
	c8.795-11.668,17.995-20.676,30.996-30.996c8.923-7.082,27.939-22.1,43.995-15.998c20.826,7.916,9.877,60.617,6.999,84.99
	c-5.026,42.559-10.668,80.711-14.998,122.984c-2.021,19.74-6.254,49.037,2,60.992c15.754,22.816,85.172,10.188,111.986,4
	c26.269-6.064,48.97-16.531,68.99-26.998c1.95-23.379,5.679-44.982,7.999-67.99c-11.036,1.885-31.89,22.273-50.993,12.998
	c-11.314-5.494-7.888-38.268-6-56.992c4.666-46.279,8.606-78.074,13.998-120.986c2.575-20.486,7.309-41.824,7-60.992
	c-0.524-32.557-17.675-52.447-44.994-54.992c-78.14-7.281-127.098,47.498-170.979,70.99c3.532-41.484-11.989-67.303-42.995-70.99
	c-72.138-8.58-130.113,44.59-167.979,70.99C920.403,3106.846,929.354,3078.024,916.241,3064.911z M3037.975,3350.875
	c-14.59-6.064-7.857-48.332-5.998-68.992c4.926-54.73,8.16-95.018,13.998-147.979c2.184-19.814,10.695-58.295-1-69.992
	c-6.424-6.424-15.016-7.246-31.996-5.998c-59.988,4.41-109.891,26.732-157.98,45.994c-2.334,21.662-4.59,43.404-5.998,65.992
	c10.211-0.646,39.326-18.701,55.992-8c11.012,7.068,4.867,41.109,3,60.99c-4.477,47.627-8.885,85.93-13.998,131.984
	c-2.17,19.539-8.576,49.947-2,66.99c12.906,33.451,87.697,17.914,119.984,10c26.029-6.381,51.469-13.793,69.99-26.996
	c2.389-21.611,2.381-45.615,5-66.992C3075.137,3340.42,3054.584,3357.782,3037.975,3350.875z M3344.938,3062.911
	c-9.064-6.256-21.709-5.912-35.996-4.998c-55.543,3.555-111.613,28.48-149.98,45.994c-2.035,22.295-4.379,44.281-7,65.992
	c15.879-1.543,35.77-17.523,54.994-9c14.613,6.48,8.348,47.66,6.998,68.992c-4.768,75.387-15.828,154.531-25.996,216.973
	c45.805-11.521,92.242-22.41,142.98-28.996c-0.342-53.523,4.979-107.521,9-157.98c1.303-16.342,0.568-37.629,5-50.994
	c3.869-11.672,23.283-24.822,33.994-31.996c12.084-8.092,32.783-21.096,48.994-15.998c22.893,7.199,9.764,63.928,7,87.99
	c-5.057,44.025-8.496,78.375-12.998,120.984c-4.006,37.908-6.785,68.088,27.996,71.99c29.631,3.326,59.188-4.098,84.988-9.998
	c26.643-6.094,52.82-12.549,69.99-25.996c3.842-21.158,5.873-44.123,9-65.992c-13.791,2.5-31.645,22.762-49.992,13.998
	c-12.064-5.762-7.721-43.021-6-58.992c5.121-47.551,10.225-78.047,15.998-123.984c2.699-21.486,7.678-44.893,6-63.992
	c-2.455-27.902-19.186-46.451-43.996-48.992c-38.725-3.971-77.625,9.547-106.986,22.996c-31.119,14.256-56.461,35.375-77.99,50.992
	C3352.928,3108.745,3361.846,3074.586,3344.938,3062.911z M4045.85,3142.901c-4.506-61.912-54.125-83.178-120.984-84.988
	c-3.838,23.824-4.641,50.686-8,74.99c18.721,1.895,21.51,27.648,19.998,44.994c-3.193,36.652-31.301,60-70.99,58.992
	c-0.561,20.535-2.855,39.695-1,59.992C3967.717,3296.87,4053.403,3246.698,4045.85,3142.901z M4305.817,3073.911
	c-6.273-13.758-23.867-17.287-43.996-15.998c-52.877,3.385-110.602,28.355-143.98,45.994c-1.227,21.773-5.439,45.885-5,65.992
	c13.855-6.227,32.986-12.229,52.994-9c7.518,4.777,9.67,12.918,9.998,22.998c1.41,43.313-6.115,89.652-10.998,133.982
	c-4.963,45.057-9.523,89.17-16.998,128.982c44.27-12.057,89.529-23.123,139.982-28.996c-3.045-38.629,2.896-87.75,5.998-124.982
	c1.18-14.146,0.531-29.463,4-40.996c5.602-18.611,20.582-34.871,32.996-44.994c17.064-13.914,49.854-30.439,74.99-20.996
	c9.314,3.498,9.35,12.547,21.998,13.998c6.232-16.943,9.699-38.086,13.998-61.992c2.916-16.223,14.014-49.969,7.998-66.992
	c-7.406-20.973-43.303-10.275-58.992-3c-36.314,16.844-57.643,44.705-75.99,75.99c-3.729,6.359-6.248,16.303-11.998,16.998
	C4300.198,3135.196,4317.444,3099.407,4305.817,3073.911z M2160.085,3059.913c-76.805,4.455-120.079,28.264-155.98,74.99
	c-33.275,43.309-51.747,106.207-45.994,183.977c5.172,69.916,46.522,110.479,109.985,120.984
	c50.964,8.439,112.243-0.732,152.981-14.998c8.581-3.004,33.091-9.912,37.996-19.996c4.808-9.887,2.633-26.643,3.999-38.996
	c1.487-13.441,3.65-25.633,5-37.994c-30.378,19.697-69.05,43.738-114.985,38.994c-36.385-3.758-56.338-34.949-58.993-71.99
	c-4.627-64.576,10.214-140.477,50.994-160.979c43.112-21.68,71.931,14.686,67.991,59.99c19.871-2.793,42.972-2.354,63.992-4
	c3.457-41.537,8.926-81.061,16.998-117.982C2254.526,3059.838,2208.076,3057.127,2160.085,3059.913z M3714.891,3195.897
	c-26.289,80.58-26.131,192.645,43.994,228.971c70.605,36.574,196.664,15.656,252.969-15.998c1.906-26.422,4.094-52.566,6-78.99
	c-29.813,20.201-106.479,56.529-153.98,31.996c-36.982-19.1-35.623-77.416-28.996-129.982c5.766-45.738,19.67-85.449,49.994-98.988
	c1.313-23.447,7.684-53.25,5.998-72.99C3795.973,3065.774,3739.282,3121.135,3714.891,3195.897z M1668.146,3205.895
	c-97.885,17.152-207.354,39.234-197.975,160.979c2.916,37.855,27.026,72.504,72.991,75.99
	c51.332,3.893,79.771-17.832,111.985-36.994c0.814-19.852,2.838-38.492,4-57.994c-10.968,2.602-22.557,14.791-40.994,11
	c-25.564-5.26-24.724-53.146-8.999-71.99c13.865-16.617,37.495-17.504,56.991-21.996c0.465-18.898,6.913-42.375,3-58.994
	C1668.813,3205.895,1668.479,3205.895,1668.146,3205.895z M622.278,3827.815c1473.863,0,2944.423,0,4418.447,0
	c3.791,0.234,5.998,0.002,5.998,0.002c-0.004-24.627-0.004-57.377,0.002-80.99c-1473.865,0-2950.425,0-4424.447,0
	 M4431.801,4009.793c-2.852,24.814-5.393,49.938-7,75.99c10.59-4.852,19.879-8.846,33.996-12.998
	c9.701-2.854,29.736-10.518,39.996-6c15.354,6.764,8.295,53.617,6.998,75.99c-4.748,81.924-15.693,166.273-28.996,231.971
	c52.689-5.303,107.41-8.574,164.979-8.998c-2.377-141.445,14.164-281.064,32.996-407.949c-4.225-3.105-7.604-7.061-12.998-8.998
	C4589.963,3973.981,4514.397,3995.401,4431.801,4009.793z M4740.762,4009.793c-2.85,24.814-5.391,49.938-6.998,75.99
	c10.59-4.852,19.877-8.846,33.994-12.998c9.701-2.854,29.736-10.518,39.996-6c15.355,6.764,8.297,53.617,6.998,75.99
	c-4.75,81.924-15.691,166.273-28.996,231.971c52.689-5.303,107.41-8.574,164.98-8.998c-2.379-141.445,14.164-281.064,32.996-407.949
	c-4.227-3.105-7.605-7.061-13-8.998C4898.926,3973.981,4823.358,3995.401,4740.762,4009.793z M1883.12,4191.772
	c28.794-37.477,56.323-81.537,51.993-140.982c-9.257-127.107-219.314-101.865-319.96-72.99
	c-3.087,42.574-8.938,82.383-13.998,122.984c21.331,0,42.661,0,63.992,0c2.648-43.086,27.732-77.855,73.989-75.99
	c34.22,1.381,47.143,28.301,42.995,63.992c-6.6,56.805-51.861,100.852-83.99,132.982c-39.234,39.236-83.849,65.699-124.983,91.986
	c3.307,18.357,8.08,35.248,10.999,53.994c77.054-4.82,174.947-1.998,259.968-2c21.626,0,73.21,5.16,84.989-4
	c8.671-6.742,12.716-32.354,15.998-43.994c4.97-17.631,8.608-31.57,12.998-46.994c-47.539,15.453-103.637,22.35-167.979,20.998
	C1820.738,4263.165,1853.647,4230.127,1883.12,4191.772z M2476.046,4191.772c28.796-37.477,56.321-81.537,51.993-140.982
	c-9.254-127.107-219.316-101.865-319.96-72.99c-3.087,42.574-8.938,82.383-13.998,122.984c21.331,0,42.66,0,63.992,0
	c2.648-43.086,27.732-77.855,73.99-75.99c34.219,1.379,47.143,28.301,42.994,63.992c-6.602,56.805-51.859,100.852-83.99,132.982
	c-39.23,39.23-83.851,65.701-124.983,91.986c3.307,18.357,8.08,35.248,10.999,53.994c77.054-4.82,174.947-1.998,259.968-2
	c21.626,0,73.211,5.16,84.989-4c8.671-6.744,12.716-32.354,15.998-43.994c4.971-17.631,8.608-31.57,12.999-46.994
	c-47.539,15.453-103.638,22.35-167.979,20.998C2413.664,4263.165,2446.572,4230.127,2476.046,4191.772z M2890.995,4191.772
	c28.795-37.479,56.32-81.537,51.992-140.982c-9.256-127.107-219.313-101.865-319.96-72.99
	c-3.086,42.574-8.938,82.383-13.998,122.984c21.33,0,42.661,0,63.992,0c2.648-43.086,27.733-77.855,73.99-75.99
	c34.221,1.381,47.141,28.301,42.994,63.992c-6.598,56.803-51.859,100.854-83.988,132.982
	c-39.236,39.234-83.85,65.699-124.984,91.986c3.308,18.357,8.08,35.248,10.998,53.994c77.055-4.82,174.948-1.998,259.968-2
	c21.627,0,73.211,5.16,84.988-4c8.672-6.742,12.719-32.354,15.998-43.994c4.971-17.631,8.609-31.57,12.998-46.994
	c-47.539,15.453-103.637,22.35-167.978,20.998C2828.611,4263.163,2861.52,4230.129,2890.995,4191.772z M3305.942,4191.772
	c28.795-37.479,56.318-81.537,51.992-140.982c-9.25-127.107-219.314-101.865-319.959-72.99
	c-3.088,42.574-8.938,82.383-13.998,122.984c21.33,0,42.66,0,63.992,0c2.646-43.086,27.732-77.855,73.99-75.99
	c34.219,1.381,47.141,28.301,42.994,63.992c-6.6,56.803-51.861,100.854-83.99,132.982c-39.234,39.234-83.848,65.699-124.984,91.986
	c3.309,18.357,8.08,35.248,11,53.994c77.055-4.82,174.947-1.998,259.969-2c21.625,0,73.209,5.16,84.988-4
	c8.67-6.742,12.717-32.354,15.998-43.994c4.971-17.631,8.609-31.57,12.998-46.994c-47.539,15.453-103.637,22.35-167.979,20.998
	C3243.559,4263.165,3276.469,4230.127,3305.942,4191.772z M3897.868,4191.772c28.797-37.48,56.318-81.535,51.992-140.982
	c-9.248-127.107-219.318-101.865-319.959-72.99c-3.088,42.574-8.938,82.383-13.998,122.984c21.33,0,42.66,0,63.992,0
	c2.648-43.086,27.732-77.855,73.99-75.99c34.221,1.381,47.141,28.301,42.994,63.992c-6.6,56.803-51.859,100.854-83.988,132.982
	c-39.238,39.234-83.85,65.699-124.984,91.986c3.307,18.357,8.08,35.248,10.998,53.994c77.055-4.82,174.947-1.998,259.969-2
	c21.625,0,73.211,5.16,84.988-4c8.672-6.744,12.717-32.354,15.998-43.994c4.971-17.631,8.609-31.57,12.998-46.994
	c-47.539,15.453-103.637,22.35-167.979,20.998C3835.485,4263.163,3868.395,4230.129,3897.868,4191.772z M4312.815,4191.772
	c28.797-37.479,56.32-81.535,51.994-140.982c-9.252-127.107-219.316-101.865-319.961-72.99
	c-3.086,42.574-8.938,82.383-13.998,122.984c21.33,0,42.662,0,63.992,0c2.65-43.086,27.734-77.855,73.99-75.99
	c34.217,1.379,47.146,28.301,42.996,63.992c-6.607,56.807-51.857,100.85-83.99,132.982c-39.232,39.23-83.852,65.703-124.984,91.986
	c3.309,18.357,8.08,35.248,10.998,53.994c77.055-4.82,174.949-1.998,259.969-2c21.625,0,73.209,5.16,84.988-4
	c8.672-6.744,12.717-32.354,15.998-43.994c4.971-17.631,8.609-31.57,12.998-46.994c-47.539,15.453-103.637,22.35-167.979,20.998
	C4250.434,4263.163,4283.344,4230.129,4312.815,4191.772z M692.269,4153.776c-11.876,135.57,36.826,220.963,168.979,218.973
	c1.169-24.494,4.069-47.26,5-71.992c-41.237-11.475-35.968-100.443-30.996-148.979c5.307-51.813,16.773-111.99,57.993-124.984
	c3.188-22.809,5.393-46.602,7-70.992C770.489,3959.17,703.1,4030.145,692.269,4153.776z M931.239,3958.799
	c-1.855,23.145-3.873,46.121-6,68.992c36.887,11.064,33.18,79.475,30.996,129.982c-2.023,46.785-9.666,90.867-23.997,116.986
	c-6.911,12.596-18.698,25.059-34.996,24.996c-1.025,24.973-4.093,47.9-4.999,72.992c134.947,0.953,198.766-81.818,208.974-204.975
	c5.763-69.529-1.679-133.771-41.995-170.98c-28.063-25.898-75.063-40.982-126.983-40.996
	C931.074,3955.969,931.153,3957.381,931.239,3958.799z M1201.205,3964.799c-4.157,53.502-12.297,103.021-22.997,149.98
	c22.997,0,45.994,0,68.991,0c5.298-59.693,46.071-83.912,117.984-76.99c-50.239,115.072-101.122,229.506-158.979,336.957
	c61.262-7.395,126.721-10.594,192.976-12.998c13.718-66.596,39.35-125.779,63.992-182.977
	c24.839-57.648,49.351-113.941,78.99-167.979c-6.835-16.162-14.222-31.773-19.998-48.994c-101.351,6.262-217.313,5.172-318.96,0
	C1201.799,3962.063,1202.065,3963.991,1201.205,3964.799z M622.278,4557.727c1473.863,0,2944.423,0,4418.447,0
	c4.766,0.076,5.998,0,5.998,0c-0.004-24.189-0.004-55.908,0.002-80.99c-1473.865,0-2950.425,0-4424.447,0 M1735.139,4913.682
	c-12.354-10.535,0.247-58.316,3-73.99c1.908-10.865,3.839-24.541,5.999-37.996c1.995-12.424,6.409-28.414,3-38.994
	c-9.141-28.377-84.217-34.658-122.983-29.996c-50.623,6.086-97.009,4.025-137.982,17.996c-0.81,17.188-4.362,31.633-7.999,45.994
	c17.971-0.641,33.812,0.852,50.993,1c17.239-24.021,47.334-38.361,90.989-34.994c13.098,1.01,25.947,4.99,29.997,13.998
	c4.974,11.063-0.113,27.82-2,40.994c-4.422,30.859-8.891,53.689-12.999,82.99c-4.844,34.533-5.533,54.201,27.997,56.992
	c43.3,3.604,90.218-9.449,123.983-18.998c-0.054-10.396,3.66-22.326,1-31.996C1776.522,4910.2,1748.325,4924.922,1735.139,4913.682z
	 M1993.106,4739.702c-5.148-7.926-24.045-7.891-37.996-6.998c-37.639,2.406-82.857,15.639-109.986,23.996
	c-1.021,9.32-4.652,21.334-3,29.996c12.236-1.217,39.529-15.223,50.994-4c6.934,6.787,2.757,30.43,1,44.994
	c-5.626,46.645-15.869,96.605-23.997,132.984c32.15-6.178,64.91-11.748,99.988-14.998c1.522-48.139,9.627-89.693,15.998-132.984
	c12.816-8.178,24.412-15.76,40.995-22.996c11.857-5.176,36.816-16.643,51.994-9c15.168,7.643,6.444,33.111,3.998,50.994
	c-6.182,45.205-13.991,91.414-20.996,128.984c32.037-6.291,65.196-11.461,99.986-14.998c-2.229-47.58,9.076-90.23,14.998-132.984
	c11.506-7.449,23.217-15.258,37.996-21.996c11.752-5.357,31.84-14.504,48.994-11.998c24.052,3.514,13.664,35.232,9.999,54.992
	c-4.877,26.297-9.358,48.584-13.999,73.99c-4.962,27.176-8.988,46.906,16.998,49.994c47.027,5.596,90.51-10.928,124.984-18.998
	c0.982-10.688,6.662-21.992,5-31.996c-9.515,2.885-40.28,17.613-50.994,6c-4.892-5.301-1.098-24.564,1-36.996
	c5.298-31.389,9.281-48.129,14.998-74.99c2.678-12.582,7.466-26.791,6-38.994c-2.235-18.602-20.223-27.342-37.996-28.996
	c-62.937-5.865-116.148,26.207-156.98,41.994c3.393-28.48-14.958-40.158-36.996-41.994c-58.449-4.871-119.149,24.666-153.979,41.994
	C1992.74,4763.6,1999.08,4748.899,1993.106,4739.702z M2675.021,4771.698c-30.818,23.873-52.668,64.24-47.993,113.986
	c8.975,95.521,181.675,78.787,257.967,50.992c1.943-12.721,3.313-26.018,6-37.994c-36.107,18.125-115.353,41.627-149.982,6.998
	c-32.984-32.982-7.354-107.135,23.998-127.982c29.063-19.328,90.923-22.445,91.988,22.996c14.98-0.684,30.453-0.877,44.994-2
	c3.205-21.457,8.123-41.203,13.998-59.992C2826.307,4725.772,2729.412,4729.565,2675.021,4771.698z M4147.836,4913.682
	c-12.355-10.535,0.248-58.316,3-73.99c1.908-10.865,3.838-24.541,6-37.996c1.994-12.424,6.408-28.414,2.998-38.994
	c-9.141-28.377-84.217-34.658-122.984-29.996c-50.623,6.086-97.008,4.025-137.98,17.996c-0.811,17.188-4.363,31.633-8,45.994
	c17.971-0.641,33.813,0.852,50.994,1c17.309-24.014,47.213-38.371,90.986-34.994c13.1,1.01,25.947,4.99,29.998,13.998
	c4.975,11.063-0.111,27.82-2,40.994c-4.422,30.859-8.891,53.689-12.998,82.99c-4.842,34.533-5.535,54.201,27.996,56.992
	c43.299,3.604,90.217-9.449,123.984-18.998c-0.057-10.396,3.66-22.326,1-31.996
	C4189.221,4910.2,4161.022,4924.924,4147.836,4913.682z M2947.987,4882.686c5.207,62.521,63.877,73.631,133.982,74.99
	c2.447-10.221,4.068-21.264,6-31.996c-17.059-1.627-29.23-10.125-34.996-21.996c-20.932-43.105,5.152-111.107,37.994-129.984
	c7.268-4.176,15.477-6.381,21.998-8c0.66-11.338,3.635-20.361,4-31.996C3026.012,4737.842,2939.596,4781.938,2947.987,4882.686z
	 M3142.963,4766.698c26.334,0.271,38.271,22.951,39.994,46.994c3.68,51.379-17.516,108.164-64.992,111.986
	c-1.328,11.004-2.881,21.783-5,31.996c94.682-2.059,177.496-47.078,166.979-148.98c-6.133-59.436-63.875-74.395-130.982-74.992
	C3146.221,4743.961,3144.532,4755.27,3142.963,4766.698z M3623.903,4925.68c67.15-54.166,131.137-111.498,184.977-178.979
	c-2.184-3.148-5.266-5.398-7-9c-84.061-0.58-180.07,0.359-263.967,0c-9.58,18.416-15.244,40.748-23.996,59.992
	c13.998,0,27.996,0,41.994,0c14.564-41.428,81.672-30.313,133.982-33.994c-58.52,68.465-127.393,126.574-202.975,177.979
	c3.047,5.285,5.229,11.436,9.998,14.998c75.92-6.629,185.172,1.895,261.969-1c18.25-0.689,20.158-9.99,25.996-22.996
	c3.535-7.875,8.389-15.119,7.998-21.998C3745.122,4923.579,3680.872,4925.321,3623.903,4925.68z M1617.153,4823.692
	c-52.405,5.57-136.066,13.117-166.979,45.994c-10.362,11.02-19.384,35.131-11.999,54.992
	c18.903,50.836,122.085,33.357,163.979,11.998c0.288-9.385,4.058-20.59,2-28.996c-19.577,12.686-71.002,20.93-74.991-7.998
	c-5.575-40.438,47.982-44.373,83.99-46.994C1615.079,4844.272,1617.292,4830.84,1617.153,4823.692z M4029.852,4823.692
	c-52.404,5.57-136.066,13.115-166.979,45.994c-10.361,11.02-19.383,35.131-11.998,54.992
	c18.902,50.836,122.086,33.357,163.979,11.998c0.289-9.385,4.059-20.59,2-28.996c-19.582,12.689-71.006,20.924-74.99-7.998
	c-5.574-40.438,47.98-44.371,83.988-46.994C4027.778,4844.272,4029.991,4830.84,4029.852,4823.692z M2464.047,4918.682
	c-16.563,50.588,90.64,48.584,99.988,15.998c10.356-36.102-31.494-40.508-61.992-36.996
	C2482.036,4899.985,2467.815,4907.167,2464.047,4918.682z M3344.938,4918.682c-16.563,50.588,90.641,48.584,99.986,15.998
	c10.355-36.102-31.49-40.508-61.992-36.996C3362.926,4899.985,3348.706,4907.167,3344.938,4918.682z">
	<title>Advanced Machinery Logo Outline</title>
	</path>
</svg>
