<?xml version="1.0" encoding="UTF-8" standalone="no"?>
<svg
   xmlns:dc="http://purl.org/dc/elements/1.1/"
   xmlns:cc="http://creativecommons.org/ns#"
   xmlns:rdf="http://www.w3.org/1999/02/22-rdf-syntax-ns#"
   xmlns:svg="http://www.w3.org/2000/svg"
   xmlns="http://www.w3.org/2000/svg"
   version="1.1"
   id="svg2"
   viewBox="0 0 4499.9999 4499.9999"
   height="4500"
   width="4500">
  <defs
     id="defs4" />
  <metadata
     id="metadata7">
    <rdf:RDF>
      <cc:Work
         rdf:about="">
        <dc:format>image/svg+xml</dc:format>
        <dc:type
           rdf:resource="http://purl.org/dc/dcmitype/StillImage" />
        <dc:title></dc:title>
      </cc:Work>
    </rdf:RDF>
  </metadata>
  <g
     transform="translate(0,-500)"
     id="layer5">
    <path
       id="path4331"
       d="m 3027.1226,1563.1094 c -90.7148,-0.02 -174.5873,10.4848 -264.8867,33.0545 -189.9956,47.4882 -386.6561,148.5017 -563.2285,289.2989 -175.4555,139.9068 -333.9919,322.2494 -455.2774,523.6446 -156.7451,260.2761 -250.1296,543.2951 -269.5351,816.875 -6.6527,93.7914 -4.4878,189.0786 6.2637,275.625 16.7003,134.4304 59.8941,272.6237 118.9668,380.625 66.0169,120.6973 161.8167,226.886 267.3867,296.3827 87.5882,57.6591 166.7266,92.2697 269.7988,117.9942 59.5646,14.866 128.4689,23.8694 194.375,25.3984 34.8069,0.8075 45.5909,0.7401 71.875,-0.4414 89.3359,-4.0157 174.9754,-18.499 270.625,-45.7676 210.3791,-59.9768 422.0131,-182.8728 613.125,-356.0448 27.0419,-24.5035 94.4918,-91.8875 118.8887,-118.7715 83.5661,-92.0858 151.1739,-180.7131 215.5586,-282.5782 127.7528,-202.1219 219.6199,-431.4858 261.0644,-651.7968 14.5396,-77.29 21.3935,-131.2549 27.2266,-214.375 2.4011,-34.2161 2.0068,-135.4064 -0.668,-171.25 -11.3261,-151.7832 -43.1475,-285.0156 -95.8887,-401.4864 -49.1761,-108.598 -104.3129,-190.5531 -181.8066,-270.2325 -80.6794,-82.9547 -183.7526,-150.4676 -291.25,-190.7694 -50.2492,-18.839 -111.0136,-35.3021 -161.25,-43.6875 -48.4327,-8.0845 -78.7071,-10.7118 -133.125,-11.5527 -6.1124,-0.095 -12.1906,-0.1432 -18.2383,-0.1445 z"
       style="fill:#1a240c;fill-opacity:1" />
    <path
       id="path4327"
       d="m 2915.3609,1661.1094 c 98.1751,0.1469 183.433,15.7357 267.5,48.9121 240.4737,94.9006 401.7249,320.0618 444.2598,620.3359 7.8202,55.2065 10.9528,103.2432 10.8828,166.875 -0.1288,116.7304 -14.9512,230.2806 -45.9317,351.875 -63.3398,248.6003 -187.5931,490.9822 -358.5234,699.375 -97.8971,119.353 -217.4471,230.9637 -336.3125,313.9785 -195.3961,136.463 -398.8835,213.2995 -596.875,225.3769 -23.6756,1.444 -74.289,1.385 -98.125,-0.1152 -235.0481,-14.7951 -430.184,-132.8323 -549.3652,-332.3086 -72.2013,-120.8447 -114.0566,-267.0331 -123.7325,-432.1582 -2.8506,-48.648 -1.4581,-128.4264 3.17,-181.6484 29.4703,-338.897 185.4169,-693.132 429.2304,-975 244.7723,-282.9764 555.145,-465.3573 850.6973,-499.8867 38.2058,-4.4636 60.4765,-5.675 103.125,-5.6113 z"
       style="fill:#80912c;fill-opacity:1" />
    <path
       id="path4323"
       d="m 2787.5777,1835.3378 c -19.9615,0.01 -39.8284,0.4369 -49.7168,1.2833 -154.3615,13.2116 -300.6695,67.5595 -451.3496,167.6561 -241.0936,160.1584 -444.8845,421.7128 -552.1231,708.6211 -98.5888,263.767 -110.5316,527.3104 -33.289,734.586 74.0238,198.6383 225.0238,330.0191 420.5117,365.873 27.852,5.1084 62.8001,8.9795 89.375,9.9004 23.2791,0.8066 29.9901,0.7539 53.75,-0.4258 30.3651,-1.5078 44.6478,-2.8639 72.9961,-6.9336 171.5004,-24.6201 352.9863,-112.0823 514.5039,-247.9511 260.3167,-218.9788 449.7121,-545.4046 504.3457,-869.2481 10.7165,-63.5229 14.9732,-109.3971 15.9121,-171.4668 0.7159,-47.32 -0.4029,-78.701 -4.1016,-115 -22.1402,-217.2915 -116.3095,-389.309 -267.4062,-488.4688 -76.3118,-50.0807 -163.8438,-79.0825 -263.125,-87.1835 -10.2655,-0.838 -30.3217,-1.2508 -50.2832,-1.2422 z"
       style="fill:#1a240c;fill-opacity:1" />
    <path
       id="path4321"
       d="m 2668.0582,2032.0898 c 22.8058,3e-4 45.3512,0.809 57.3027,2.4238 73.0375,9.8688 130.755,31.1596 185.625,68.4727 90.9744,61.8653 155.0998,163.0084 183.0195,288.6758 56.2225,253.0578 -40.6846,577.8398 -245.7695,823.6953 -164.6774,197.4151 -373.979,319.8104 -572.8125,334.9687 l 0,0 c -15.4096,1.1748 -57.1198,1.4602 -67.5625,0.4629 -2.4062,-0.2298 -10.5625,-0.9962 -18.125,-1.7032 -67.8794,-6.3456 -134.5947,-29.5814 -189.3516,-65.9492 -156.9591,-104.2472 -230.0679,-315.1511 -194.8672,-562.1543 29.2293,-205.1011 132.0574,-420.1544 279.1211,-583.75 156.5609,-174.1602 339.488,-279.7266 524.5586,-302.7227 12.9901,-1.6158 36.0555,-2.424 58.8614,-2.4238 z"
       style="fill:#80912c;fill-opacity:1" />
    <path
       id="path4319"
       d="m 2557.2671,2250.3574 c -64.7874,0 -126.0251,15.759 -194.5312,50.0625 -209.0555,104.6816 -373.5914,351.0374 -393.5898,589.3125 -1.624,19.3385 -1.6427,69.8031 -0.033,87.5 10.9733,120.6565 62.7698,212.6677 147.6621,262.3066 32.8859,19.2294 73.2349,31.9564 114.8359,36.2207 10.3188,1.0576 54.5518,0.7388 66.4316,-0.4786 171.4793,-17.5726 351.5748,-154.0352 461.1231,-349.4023 72.3952,-129.109 105.1545,-274.6166 89.2617,-396.4688 -17.2697,-132.4093 -89.144,-229.6041 -195.6289,-264.5449 -31.9889,-10.4965 -58.4041,-14.5078 -95.5313,-14.5078 z"
       style="fill:#1a240c;fill-opacity:1" />
    <path
       id="path4317"
       d="m 2477.0601,2444.2539 c 10.1043,0.058 19.4918,0.5941 25.9883,1.662 34.9775,5.7495 66.2463,21.9769 90.127,46.7715 57.0792,59.2636 69.989,162.7194 33.8671,271.4199 -48.9321,147.2505 -175.4706,268.0053 -299.2773,285.6016 -11.1028,1.5776 -45.2111,2.4046 -51.1543,1.2402 -1.0312,-0.202 -6.0938,-1.0418 -11.25,-1.8672 -5.1562,-0.8255 -14.7188,-3.1912 -21.25,-5.2578 -64.7138,-20.4775 -107.6478,-77.5261 -118.1348,-156.9688 -2.4356,-18.4495 -2.4189,-56.4724 0.033,-76.2792 11.4906,-92.8137 56.6446,-185.0735 125.8086,-257.0547 53.8213,-56.0134 114.6928,-92.0359 178.8164,-105.8203 10.7536,-2.3117 29.5853,-3.5439 46.4258,-3.4472 z"
       style="fill:#80912c;fill-opacity:1" />
    <path
       style="display:inline;fill:#000000"
       d="m 252.45189,2882.4495 c -41.1311,-15.3025 -74.8049,-28.2732 -74.8306,-28.8238 -0.026,-0.5507 36.1584,-45.5024 80.409,-99.8928 102.2727,-125.7081 201.3253,-247.4455 361.0806,-443.7748 69.7813,-85.7567 126.9895,-156.3273 127.1294,-156.8236 0.1399,-0.4962 -125.1326,-74.5854 -278.3834,-164.6425 l -278.6377,-163.7402 41.3541,-81.8848 c 22.7448,-45.0365 52.2014,-103.2597 65.4593,-129.3847 13.2578,-26.125 71.1727,-140.5938 128.6997,-254.375 57.527,-113.7813 104.9678,-207.2361 105.424,-207.6774 0.4563,-0.4413 37.6305,-1.3989 82.6093,-2.128 l 81.7797,-1.3256 191.3453,136.0654 c 155.51371,110.5857 191.52111,135.6793 192.28361,134.003 0.5159,-1.1343 20.0088,-84.1874 43.3173,-184.5624 107.9938,-465.06079 132.967,-572.51369 133.1007,-572.69689 0.7416,-1.0162 176.1263,-18.05 176.9256,-17.1834 0.5734,0.6216 42.114,92.5365 92.3126,204.2553 121.3328,270.03039 350.9659,780.90989 434.0348,965.62499 33.4281,74.3321 96.8673,215.4575 239.3715,532.5001 65.8206,146.4375 132.5602,294.893 148.3103,329.9012 15.75,35.0081 28.1983,64.0284 27.6627,64.4893 -0.5355,0.461 -36.9738,3.7855 -80.9738,7.3878 -44,3.6024 -126.6875,10.4178 -183.75,15.1452 -205.359,17.0133 -383.3804,31.7602 -731.25,60.5751 -194.5625,16.1161 -418.43751,34.6624 -497.50001,41.214 -79.0625,6.5515 -235.3932,19.5057 -347.4015,28.7871 -112.0084,9.2814 -203.9772,16.856 -204.375,16.8326 -0.3979,-0.024 -34.3763,-12.5628 -75.5075,-27.8652 z"
       id="path4366" />
    <path
       style="display:inline;fill:#ffffff"
       d="m 879.90469,2626.5994 c 37.7196,-0.6917 152.39371,-2.6591 254.83121,-4.3719 297.8725,-4.9802 623.7801,-10.464 740,-12.4511 59.125,-1.011 148.2813,-2.4981 198.125,-3.3048 49.8438,-0.8066 90.8285,-1.6377 91.0773,-1.8467 0.2488,-0.2094 -14.7389,-29.802 -33.3061,-65.7616 -18.5671,-35.9595 -64.1133,-124.1623 -101.2138,-196.0059 -37.1007,-71.8439 -81.2439,-157.3439 -98.0962,-190 -16.8523,-32.6564 -53.0073,-102.6875 -80.3446,-155.625 -27.3371,-52.9375 -111.8479,-216.625 -187.8016,-363.75 -75.9536,-147.125 -151.3926,-293.2492 -167.6421,-324.7203 -21.466,-41.5742 -29.7919,-56.6132 -30.4491,-55 -0.4975,1.2211 -8.7644,36.2515 -18.3708,77.8453 -15.4109,66.7252 -36.5658,157.8773 -90.2226,388.75 -8.2288,35.4061 -17.5857,75.7858 -20.7931,89.7325 l -5.8317,25.3575 -3.1903,-0.6195 c -1.7547,-0.3408 -12.4715,-1.5714 -23.8153,-2.7349 l -20.625,-2.1154 -90,-60.6532 c -105.7297,-71.2539 -269.84471,-181.9708 -364.73101,-246.0583 -36.977,-24.9749 -67.7809,-45.4087 -68.4532,-45.4087 -0.6723,0 -2.5605,2.9531 -4.1962,6.5625 -1.6356,3.6093 -22.5098,45.9375 -46.387,94.0625 -56.4831,113.8423 -89.452,180.9605 -89.0526,181.2933 0.176,0.1468 129.1325,81.114 286.57,179.9275 157.43751,98.8134 286.73531,180.1163 287.32831,180.6732 0.593,0.5567 -53.6714,70.6709 -120.5874,155.8092 -66.9162,85.1382 -155.92031,198.3904 -197.78711,251.6718 -41.8668,53.2811 -76.687,97.5781 -77.3782,98.4375 -1.5486,1.9254 -5.2762,1.9115 82.3432,0.3045 z"
       id="path4368" />
    <path
       id="path4355"
       d="m 3137.8355,1149.3691 c -4.3414,0.016 -8.8911,0.2628 -13.6406,0.7441 -35.9826,3.6462 -67.9766,18.4588 -91.5508,42.3848 -26.5355,26.9313 -47.8137,67.4358 -56.6621,107.8594 -3.2586,14.8867 -3.897,40.4341 -1.2773,51.123 2.3963,9.779 8.4559,20.8238 15.2832,27.8575 5.1006,5.2548 16.489,11.699 23.6445,13.3789 9.116,2.14 32.7916,1.5694 43.6035,-1.0508 46.2095,-11.1986 89.2797,-51.1323 118.8926,-110.2344 14.3691,-28.6782 21.5395,-51.8171 22.6035,-72.9492 1.132,-22.4803 -3.6347,-35.7106 -16.7051,-46.3653 -10.463,-8.5292 -25.3788,-12.8167 -44.1914,-12.748 z m -24.9238,48.6543 c 1.326,0.018 2.6535,0.087 3.9804,0.205 12.4039,1.1041 19.7051,8.2154 21.6016,21.0411 3.3124,22.4026 -19.3378,78.6695 -41.8379,103.9336 -6.991,7.8498 -18.9038,16.1708 -27.9043,19.4883 -8.3476,3.0768 -21.8385,3.5171 -27.8281,0.9082 -4.9904,-2.1737 -10.1433,-8.4058 -11.7578,-14.2188 -6.0848,-21.9092 8.9365,-73.0878 29.6523,-101.0273 14.5757,-19.6582 34.203,-30.597 54.0938,-30.3301 z"
       style="fill:#000000" />
    <path
       id="path4353"
       d="m 3334.3355,1150.58 c -4.9767,-0.039 -6.3592,0.3768 -7.2051,1.2227 -2.553,2.5531 -180.191,234.0952 -179.9043,234.4961 0.7069,0.9885 47.3612,5.313 48.125,4.4609 0.507,-0.5654 9.2035,-12.4149 19.3262,-26.3339 10.1226,-13.9191 18.8346,-25.5742 19.3594,-25.8985 0.9445,-0.5837 66.3046,5.1445 67.0351,5.875 0.2087,0.2087 -3.169,12.9289 -7.5058,28.2676 -5.2005,18.3932 -7.4073,28.0632 -6.4824,28.4004 0.7713,0.2811 10.4023,2.7247 21.4023,5.4297 11,2.7049 21.1263,4.9595 22.5039,5.0117 2.2926,0.087 5.2268,-10.7925 34.6035,-128.3224 17.654,-70.6296 31.9849,-128.5307 31.8457,-128.6698 -0.1391,-0.1392 -15.5892,-1.2335 -34.334,-2.4317 -15.2223,-0.973 -23.7928,-1.4684 -28.7695,-1.5078 z m 2.9316,51.2656 c 0.2322,0.2322 -5.0173,22.2112 -11.666,48.8419 l -12.0898,48.4199 -6.8867,-0.1602 c -10.41,-0.243 -38.6068,-3.0169 -39.4727,-3.8828 -0.4186,-0.4186 9.8338,-14.5084 22.7852,-31.3105 12.9513,-16.8022 28.8049,-37.6999 35.2285,-46.4395 6.4236,-8.7396 11.8693,-15.7009 12.1015,-15.4688 z"
       style="fill:#000000" />
    <path
       id="path4351"
       d="m 3498.8179,1173.164 c -0.9688,0.3229 -143.3865,241.8169 -143.8437,243.9122 -0.1313,0.6015 29.5742,11.103 66.0117,23.3378 36.4375,12.2349 66.3454,22.2896 66.4629,22.3438 0.3649,0.1684 33.134,-46.5241 33.7168,-48.043 0.3467,-0.9035 -16.1205,-7.3654 -44.5156,-17.4687 -44.0478,-15.6727 -45.0292,-16.0952 -43.3614,-18.6504 10.0228,-15.3547 119.5836,-190.8864 119.8457,-192.0098 0.234,-1.0023 -8.6266,-3.5535 -26.4941,-7.627 -14.7655,-3.3663 -27.2855,-5.9738 -27.8223,-5.7949 z"
       style="fill:#000000" />
    <path
       id="path4349"
       d="m 2927.3843,1186.7714 c -11.4872,-0.1129 -26.2464,1.1691 -35.1484,3.3985 -17.4434,4.3684 -31.654,10.2195 -42.9082,17.6679 -50.7403,33.5815 -80.9569,87.4041 -83.5195,148.7696 -0.7865,18.8351 0.9041,30.1593 6.2382,41.8105 6.314,13.7918 18.4896,22.6523 33.7364,24.5489 13.2465,1.6477 35.424,0.3912 45.8281,-2.5957 30.8141,-8.8464 58.6573,-29.8567 78.7012,-59.3887 7.5698,-11.1531 14.2861,-23.0538 13.4707,-23.8691 -0.3471,-0.3472 -8.4317,-1.7092 -17.9649,-3.0254 -9.533,-1.3162 -18.8594,-2.6755 -20.7265,-3.0215 -3.1638,-0.5863 -3.7552,0.061 -8.6719,9.5117 -9.2894,17.8554 -23.2001,29.9785 -39.1328,34.1016 -10.2786,2.6598 -16.681,2.4157 -23.209,-0.8848 -15.0726,-7.6205 -18.1,-30.8706 -8.8086,-67.6602 7.0829,-28.0451 19.8936,-48.9663 37.375,-61.0429 6.297,-4.3502 29.1161,-10.9653 37.8613,-10.9766 10.1819,-0.013 15.6533,6.65 16.961,20.6524 0.4155,4.4493 0.9056,8.0898 1.0879,8.0898 0.1821,0 12.2609,-6.8506 26.8418,-15.2246 l 26.5097,-15.2266 -0.5683,-9.4609 c -1.1488,-19.139 -11.4371,-30.7289 -31.1739,-35.1133 -3.0119,-0.6691 -7.5578,-1.0093 -12.7793,-1.0606 z"
       style="fill:#000000" />
    <path
       id="path4343"
       d="m 3669.6129,1223.25 c -1.5293,2.0796 -113.0618,271.2135 -112.5899,271.6855 0.3674,0.3674 11.2542,6.5109 24.1914,13.6504 12.9374,7.1395 24.1504,12.9874 24.918,13 1.6304,0.024 262.1715,-191.9327 262.7129,-193.5567 0.2737,-0.821 -35.9184,-25.4272 -46.9063,-31.8907 -1.582,-0.9304 -144.4857,113.3021 -167.8281,134.1564 -6.5312,5.8351 -16.604,14.8458 -22.3848,20.0234 -5.7807,5.1777 -9.9404,8.2891 -9.2441,6.9141 0.6962,-1.375 7.2229,-13.75 14.5059,-27.5 7.283,-13.75 25.7103,-51.1562 40.9492,-83.125 15.2389,-31.9689 32.1518,-67.3689 37.584,-78.6681 5.4322,-11.299 9.4478,-20.9725 8.9218,-21.494 -0.9746,-0.9668 -54.519,-23.6183 -54.83,-23.1953 z"
       style="fill:#000000" />
    <path
       id="path4341"
       d="m 2661.1402,1270.7187 c -0.3945,-0.3946 -37.9196,16.66 -83.3867,37.8985 l -82.666,38.6152 0.748,23.75 c 0.4115,13.0625 1.041,47.375 1.4004,76.25 0.3594,28.875 0.9922,62.4303 1.4043,74.5664 l 0.748,22.0644 3.9239,-1.6679 c 16.674,-7.0859 141.4695,-63.2587 142.2324,-64.0215 0.9152,-0.9152 5.2844,-41.5569 4.5391,-42.2227 -0.1914,-0.1711 -23.1289,10.0008 -50.9727,22.6035 l -50.625,22.9121 -0.3438,-20.1465 c -0.1895,-11.0815 0.092,-20.5358 0.625,-21.0078 0.5333,-0.4721 18.6876,-8.8961 40.3438,-18.7207 21.6562,-9.8247 39.6121,-18.0614 39.9023,-18.3047 0.5792,-0.4856 3.7114,-38.3325 3.2207,-38.916 -0.1671,-0.1987 -18.7181,8.0982 -41.2246,18.4375 -22.5065,10.3393 -41.1412,18.7988 -41.4101,18.7988 -0.909,0 -0.4571,-38.1141 0.4687,-39.541 0.7778,-1.1986 21.1011,-10.8024 96.8301,-45.7559 9.8278,-4.5361 10.9737,-5.4227 11.5293,-8.9316 1.3558,-8.5601 3.3855,-35.9875 2.7129,-36.6602 z"
       style="fill:#000000" />
    <path
       id="path4339"
       d="m 3894.5699,1343.7578 c -0.8579,-0.5249 -18.1001,17.2367 -43.7363,45.0547 -23.2755,25.2563 -65.6398,71.2324 -94.1446,102.1699 -28.5049,30.9375 -57.6484,62.5333 -64.7636,70.2129 l -12.9375,13.9629 20.2519,14.4746 c 11.1385,7.961 20.3892,14.4746 20.5586,14.4746 0.1693,0 35.3357,-35.8594 78.1465,-79.6875 42.8106,-43.8281 90.2583,-92.3572 105.4394,-107.8418 15.181,-15.4846 30.3402,-31.04 33.6875,-34.5684 l 6.086,-6.416 -23.586,-15.4843 c -12.9723,-8.5169 -24.223,-15.875 -25.0019,-16.3516 z"
       style="fill:#000000" />
    <path
       id="path4337"
       d="m 2448.9058,1374.7363 c -0.375,-0.3749 -51.4214,29.3296 -52.8398,30.7481 -0.3164,0.3163 0.8698,17.0377 2.6347,37.1582 1.7651,20.1204 3.0022,36.7381 2.7481,36.9277 -0.2541,0.1896 -16.6875,9.8131 -36.5176,21.3867 -23.6669,13.8129 -36.3559,20.5565 -36.9316,19.625 -0.4824,-0.7806 -3.0084,-16.1978 -5.6133,-34.2598 -2.6049,-18.0618 -4.9526,-33.0572 -5.2168,-33.3222 -0.2644,-0.2651 -11.9569,7.7553 -25.9824,17.8222 l -25.5,18.3028 1.1074,5.9296 c 12.6036,67.5018 31.3364,166.3397 31.7715,167.6308 0.3834,1.1375 1.0895,1.3108 2.123,0.5235 0.8513,-0.6485 10.9447,-7.7895 22.4317,-15.8692 19.3626,-13.6191 20.8413,-14.9325 20.2773,-18.0234 -0.3345,-1.8336 -2.7965,-18.2402 -5.4726,-36.459 -4.5137,-30.7277 -4.7148,-33.2427 -2.7774,-34.748 3.6813,-2.8602 69.1501,-40.4809 69.6231,-40.0079 0.2505,0.2505 1.9189,17.0323 3.707,37.293 1.7881,20.2608 3.3646,37.1965 3.5039,37.6348 0.1394,0.4381 10.6601,-5.2269 23.3789,-12.5899 l 23.125,-13.3886 -0.3809,-9.2832 c -1.4537,-35.3525 -8.8593,-182.6916 -9.1992,-183.0313 z"
       style="fill:#000000" />
    <path
       id="path4335"
       d="m 3980.4332,1411.1035 -10.334,9.9394 c -14.4959,13.9427 -191.2349,185.8272 -207.4961,201.7969 l -13.3809,13.1426 50.211,56.494 c 30.3612,34.1605 50.7242,56.108 51.5078,55.5157 5.752,-4.3478 48.1905,-39.1581 48.6543,-39.9082 0.3269,-0.529 -14.5548,-18.279 -33.0703,-39.4454 -18.5155,-21.1661 -33.6641,-38.8701 -33.6641,-39.3416 0,-0.4714 42.9931,-40.2227 95.541,-88.336 l 95.543,-87.4785 -10.2305,-9.9435 c -5.626,-5.4683 -15.4163,-15.0036 -21.7558,-21.1893 l -11.5254,-11.2462 z"
       style="fill:#000000" />
    <path
       id="path4333"
       d="m 2235.15,1511.5312 c -0.2758,0.011 -0.5694,0.1961 -0.9082,0.4864 -1.1032,0.945 -38.8497,30.8605 -83.8809,66.4785 -45.0312,35.618 -83.3383,65.9701 -85.127,67.4492 l -3.2519,2.6894 5.6094,14.6114 c 3.0851,8.0362 5.9545,14.6023 6.3769,14.5898 0.4224,-0.012 13.9382,-10.4381 30.0352,-23.17 16.097,-12.7319 29.662,-22.7065 30.1445,-22.1659 0.4825,0.5405 9.4639,27.9824 19.959,60.9824 10.4952,33 19.3397,60.449 19.6543,60.998 0.3147,0.5487 1.2253,0.4987 2.0234,-0.1113 24.4,-18.6467 40.8262,-32.1571 40.8262,-33.5801 0,-0.9972 -7.6315,-29.9364 -16.959,-64.3086 -9.3274,-34.372 -16.7805,-62.9792 -16.5625,-63.5722 0.2181,-0.593 13.334,-11.2707 29.1465,-23.7285 15.8125,-12.4579 29.2661,-23.4074 29.8965,-24.3321 0.7375,-1.0818 -0.1069,-7.5401 -2.3692,-18.1152 -2.5732,-12.0296 -3.4181,-15.2476 -4.6132,-15.2012 z"
       style="fill:#000000" />
    <path
       id="path4329"
       d="m 4126.0582,1572.0664 c -0.045,-0.01 -0.082,0 -0.1153,0.01 -1.112,0.4267 -243.9516,190.4185 -259.1191,202.7285 -0.2264,0.1837 17.7709,31.5483 39.9922,69.6992 38.361,65.8606 40.5343,69.2925 43.0332,67.9219 6.0459,-3.3162 53.0097,-34.0011 53.0097,-34.6368 0,-0.3808 -12.1135,-22.2485 -26.9218,-48.5957 -14.8084,-26.3471 -26.7615,-48.0112 -26.5625,-48.1425 0.2545,-0.168 211.239,-155.1964 214.4414,-157.5684 0.1817,-0.1348 -7.8955,-11.8975 -17.9492,-26.1406 -11.3,-16.009 -18.4198,-25.0899 -19.8086,-25.2754 z"
       style="fill:#000000" />
    <path
       id="path4325"
       d="m 4245.7496,1768.6914 c -1.0375,0.2149 -283.9012,174.7625 -285.0117,175.873 -0.4538,0.4538 52.2572,154.2109 57.8261,168.6778 0.5023,1.3046 1.6309,1.9659 2.6719,1.5663 7.5241,-2.8873 57.875,-27.738 57.875,-28.5644 0,-0.5766 -8.7196,-28.1047 -19.377,-61.1738 -10.6573,-33.0694 -19.2355,-60.2176 -19.0625,-60.3301 0.173,-0.1126 13.4447,-7.7039 29.4922,-16.8691 19.1599,-10.9428 29.4773,-16.18 30.0508,-15.252 0.4805,0.7774 8.1628,21.9546 17.0723,47.0586 8.9095,25.1041 16.7617,45.62 17.4492,45.5938 0.6875,-0.027 13.6837,-6.3454 28.8809,-14.043 l 27.6308,-13.9961 -17.8555,-48.75 c -9.8215,-26.8125 -17.4758,-49.1332 -17.0078,-49.6016 2.7604,-2.7626 58.3109,-33.4333 59.0938,-32.6269 0.5228,0.5386 10.841,29.343 22.9297,64.0117 12.0887,34.6689 22.1709,63.2256 22.4043,63.459 0.2334,0.2334 14.3306,-6.3226 31.3281,-14.5703 25.7671,-12.503 30.7876,-15.3641 30.1934,-17.209 -3.6042,-11.1899 -75.8168,-193.4129 -76.584,-193.2539 z"
       style="fill:#000000" />
    <path
       id="path4315"
       d="m 1279.8882,3481.8026 c -12.2593,0.1734 -22.7874,3.2191 -39.0195,10.9532 -41.3455,19.6996 -70.2917,51.789 -84.0957,93.2266 -7.1926,21.591 -8.2961,29.7393 -8.2051,60.625 0.073,24.8615 0.4004,29.2854 2.8125,38.125 5.99,21.952 16.1584,36.0186 28.8672,39.9335 3.1562,0.9724 7.8211,1.8056 10.3653,1.8535 5.6136,0.1057 16.9802,-2.2174 17.8671,-3.6522 0.3528,-0.571 2.3111,-12.7595 4.3516,-27.0861 2.0405,-14.3264 3.9824,-27.5416 4.3145,-29.3652 l 0.6035,-3.3144 -9.7149,0.666 c -9.5713,0.6561 -9.7848,0.6048 -14.3242,-3.3809 -3.322,-2.9167 -5.177,-6.0059 -6.6504,-11.0742 -2.6873,-9.244 -2.6875,-27.2478 0,-37.5489 6.3834,-24.4668 27.379,-47.1649 57.6856,-62.3613 31.7695,-15.9298 50.1979,-10.8646 54.3047,14.9239 1.6577,10.4086 -0.067,24.0063 -4.168,32.8691 -3.213,6.9443 -12.1791,19.2666 -18.1621,24.959 -2.1224,2.0192 -3.8594,4.1479 -3.8594,4.7304 0,2.4541 19.3727,35.9746 20.5664,35.586 2.2984,-0.748 15.6954,-17.4232 21.5801,-26.8613 7.8089,-12.5244 14.3894,-28.2804 18.6406,-44.627 3.2776,-12.6026 3.5794,-15.5753 3.5664,-35.625 -0.011,-24.6985 -1.3605,-31.9489 -8.7617,-47.0898 -8.4639,-17.3148 -21.6217,-25.3482 -43.1836,-26.3672 -1.8437,-0.087 -3.6295,-0.1224 -5.3809,-0.098 z"
       style="fill:#000000" />
    <path
       id="path4313"
       d="m 1316.0093,3693.1347 c -19.9263,0.018 -44.192,9.9731 -70.6484,29.9317 -57.8396,43.6338 -82.4999,112.357 -65.5039,182.5488 6.5681,27.1253 17.4827,42.2022 34.2539,47.3223 7.1476,2.1821 23.3917,1.2415 33.4551,-1.9375 35.0154,-11.0613 82.3878,-57.0874 103.7383,-100.7891 19.4645,-39.8412 23.9655,-90.3463 10.998,-123.4356 -8.7855,-22.4178 -25.081,-33.6599 -46.293,-33.6406 z m -9.1679,60.3477 c 8.9517,0 9.8769,0.2551 13.5996,3.75 5.9061,5.5445 8.8771,13.2477 9.6015,24.8984 1.487,23.9155 -10.5367,47.8212 -36.9277,73.4239 -16.37,15.8809 -26.7711,23.7956 -38.873,29.5819 -15.1145,7.227 -26.4193,6.4444 -32.6172,-2.2598 -3.0994,-4.3526 -7.5171,-24.5842 -7.4981,-34.3359 0.03,-15.4457 7.1289,-32.3731 20.4707,-48.8085 13.1364,-16.1825 33.1004,-31.9623 52.0137,-41.1114 9.6166,-4.652 11.5367,-5.1386 20.2305,-5.1386 z"
       style="fill:#000000" />
    <path
       id="path4309"
       d="m 1400.3082,3872.4218 c -1.2129,-1.3638 -182.7535,166.5699 -182.0664,168.4199 0.2844,0.7653 3.7924,11.9137 7.7968,24.7755 l 7.2813,23.3846 5.709,-5.1308 c 3.1394,-2.8224 34.2325,-33.2002 69.0976,-67.5059 l 63.3906,-62.3729 -55.1132,85.9941 c -30.3131,47.2974 -57.3341,89.4985 -60.0469,93.7792 -3.4237,5.4025 -4.6857,8.5614 -4.125,10.3281 1.7135,5.3988 18.101,38.7623 19.0273,38.7383 0.5375,-0.014 35.8516,-23.0005 78.4766,-51.0819 42.625,-28.0816 77.7031,-50.8833 77.9512,-50.6699 0.2483,0.2133 -10.7257,12.6529 -24.3867,27.6444 -22.6424,24.8477 -101.4241,114.0316 -107.0528,121.1875 l -2.3633,3.0019 10.9707,23.1426 c 10.3678,21.8718 11.0852,23.0189 13.0625,20.9082 6.7932,-7.2513 170.3236,-204.8173 170.4336,-205.9061 0.1475,-1.4593 -29.0379,-59.4512 -29.9199,-59.4512 -0.3016,0 -33.3021,22.4697 -73.334,49.9336 -40.032,27.4636 -72.9844,49.7343 -73.2285,49.4902 -0.2443,-0.2441 9.0594,-14.9797 20.6738,-32.7461 11.6142,-17.7665 36.7484,-56.4133 55.8555,-85.8828 l 34.7422,-53.582 -10.9453,-32.668 c -6.0191,-17.968 -11.368,-33.1473 -11.8867,-33.7304 z"
       style="fill:#000000" />
    <path
       id="path4307"
       d="m 3406.5171,4039.414 c -6.023,0.047 -11.6398,0.4844 -15.7109,1.3516 -15.6925,3.3426 -44.0834,16.0222 -60.6543,27.0897 -11.0461,7.3776 -113.541,92.058 -113.541,93.8067 0,0.8605 146.1031,280.6789 149.6387,286.5899 0.3351,0.5604 1.5389,0.2169 2.6738,-0.7617 1.1349,-0.9787 27.6563,-22.4769 58.9375,-47.7734 64.4797,-52.1438 69.6241,-56.4674 82.2188,-69.1192 25.2845,-25.4 39.1424,-51.8858 45.9062,-87.7403 2.0611,-10.9256 2.7227,-37.506 1.2051,-48.4355 -4.5295,-32.6176 -19.1129,-63.543 -45.3106,-96.0879 -23.0273,-28.6069 -51.0174,-48.9537 -77.1445,-56.08 -7.0136,-1.9131 -18.1802,-2.9185 -28.2188,-2.8399 z m -23.8964,79.9238 c 0.8406,-0.021 1.6802,-0.021 2.5195,0 17.2663,0.4362 34.2689,9.812 51.5684,28.2031 27.744,29.4948 45.4497,68.3933 43.207,94.9258 -2.2056,26.0914 -13.708,42.5198 -51.207,73.1386 -10.8779,8.882 -20.487,16.4223 -21.3516,16.754 -1.0078,0.3868 -19.2597,-29.3686 -50.8457,-82.8868 -27.1013,-45.9194 -49.2754,-83.8095 -49.2754,-84.1992 0,-0.8587 27.2825,-23.624 36.875,-30.7695 13.136,-9.7852 25.9002,-14.8507 38.5098,-15.166 z"
       style="fill:#000000" />
    <path
       id="path4305"
       d="m 1510.3023,4108.1151 c -0.5561,0.202 -13.0385,15.5547 -27.7402,34.1172 -14.7017,18.5625 -52.7125,66.5188 -84.4668,106.5703 -31.7543,40.0515 -57.7341,73.239 -57.7461,73.75 -0.01,0.511 6.8843,11.1738 15.3125,23.6953 8.4283,12.5213 15.6055,22.7755 15.9492,22.7755 0.3438,0 13.2813,-17.0935 28.75,-37.998 15.4688,-20.9046 28.6585,-37.867 29.3105,-37.6934 0.6519,0.1736 7.2548,8.9965 14.6739,19.6074 16.3519,23.3864 28.5882,35.8633 38.9922,39.7559 9.7882,3.6622 20.7094,3.5494 28.8984,-0.2988 24.5814,-11.551 51.6317,-48.4183 62.5801,-85.2891 4.8217,-16.2381 5.7351,-42.9324 1.9844,-58.0293 -1.448,-5.8278 -4.7728,-14.8144 -7.3868,-19.9707 -5.0034,-9.8691 -57.3726,-81.6236 -59.1113,-80.9922 z m -3.8965,82.3106 c 1.8093,0.1488 20.8846,28.4093 23.5528,34.8945 3.3472,8.1355 3.7363,18.024 1.0644,27.0215 -3.5017,11.7913 -14.9984,27.8598 -23.7539,33.1992 -2.1051,1.2837 -6.1382,2.3125 -9.0918,2.3125 -7.0937,0.01 -12.334,-4.8028 -26.0586,-23.9102 l -10.5742,-14.7207 22.0156,-29.4316 c 12.109,-16.188 22.3896,-29.4032 22.8457,-29.3652 z"
       style="fill:#000000" />
    <path
       id="path4299"
       d="m 3143.2339,4235.6815 c -15.2105,0.2279 -33.3063,5.4031 -49.3339,14.381 -16.2977,9.1289 -124.6997,79.6912 -124.3145,80.9198 0.2155,0.6875 21.7131,72.2638 47.7715,159.0587 26.0585,86.795 47.569,157.8125 47.8008,157.8125 0.2317,0 16.9233,-10.173 37.0937,-22.6113 l 36.6739,-22.6153 -7.9122,-22.6972 c -4.3521,-12.4835 -13.3112,-38.075 -19.9082,-56.8692 -6.5968,-18.7942 -11.9941,-34.902 -11.9941,-35.7949 0,-1.461 37.1785,-25.722 40.8848,-26.6797 0.8437,-0.2178 25.2371,16.544 54.207,37.2481 28.9699,20.7042 53.0643,37.4764 53.5449,37.2714 3.6616,-1.562 81.2506,-55.6029 80.9961,-56.414 -0.1797,-0.5727 -27.8746,-16.2546 -61.543,-34.8477 -33.6685,-18.5934 -61.4381,-34.0041 -61.7109,-34.2461 -0.2726,-0.2422 2.1521,-4.3869 5.3887,-9.2109 7.2472,-10.802 12.3611,-21.9091 15.959,-34.668 3.9408,-13.9746 3.652,-33.8974 -0.7403,-50.9863 -4.1131,-16.0026 -15.7356,-39.6209 -25.0508,-50.9062 -7.9213,-9.5971 -21.5306,-19.7023 -31.6132,-23.4747 -3.787,-1.4169 -11.0728,-3.2277 -16.1914,-4.0234 -3.1421,-0.4885 -6.4977,-0.6991 -10.0079,-0.6465 z m -19.8437,76.082 c 11.0687,0.025 20.0122,7.2795 26.2148,21.3047 9.4187,21.2971 6.5242,38.2079 -9.1679,53.5625 -4.2945,4.2022 -17.7702,13.6708 -34.2657,24.0763 -14.9532,9.4326 -27.4586,17.1504 -27.789,17.1504 -0.3304,0 -0.8588,-0.7031 -1.1758,-1.5625 -0.471,-1.2767 -14.3824,-40.8175 -24.3906,-69.3262 l -2.2871,-6.5136 23.834,-15.1934 c 27.7091,-17.6635 37.6805,-22.6533 46.7851,-23.4082 0.7566,-0.063 1.5043,-0.091 2.2422,-0.09 z"
       style="fill:#000000" />
    <path
       id="path4297"
       d="m 1625.9214,4250.5663 -29.2597,46.457 c -16.092,25.5521 -38.2731,60.8028 -49.293,78.334 -29.0311,46.1846 -38.3624,65.8296 -43.8887,92.4141 -2.249,10.8191 -2.6041,35.5292 -0.6406,44.5214 2.0955,9.5967 6.2773,21.7585 10.082,29.3145 12.2495,24.3264 41.0143,52.3647 57.4395,55.9903 23.8384,5.2619 48.5178,-4.4011 68.7461,-26.9161 14.1247,-15.7213 24.1939,-33.5994 69.3906,-123.207 24.5527,-48.6787 44.4379,-88.689 44.1895,-88.912 -2.0196,-1.8144 -40.1045,-25.8423 -40.4336,-25.5098 -0.2346,0.2367 -20.4807,37.7814 -44.9922,83.4336 -24.5116,45.652 -46.8769,86.4046 -49.6992,90.5606 -10.1954,15.0134 -21.1651,23.2558 -30.9512,23.2558 -10.3972,0 -22.7814,-10.0228 -29.168,-23.6074 -3.1494,-6.6987 -3.7816,-9.6133 -3.8066,-17.5 -0.036,-11.5998 1.9291,-19.9998 7.9199,-33.838 2.5299,-5.8437 25.8666,-46.5937 51.8574,-90.5546 35.4216,-59.9124 46.9598,-80.3961 46.0762,-81.797 -0.6484,-1.0279 -8.4658,-8.7473 -17.373,-17.1543 l -16.1954,-15.2851 z"
       style="fill:#000000" />
    <path
       id="path4293"
       d="m 2925.3902,4352.662 c -1.2832,0.01 -8.8281,3.0258 -17.5293,7.0371 -9.2812,4.2788 -51.3281,23.3981 -93.4375,42.4863 -54.7661,24.8255 -76.5625,35.2723 -76.5625,36.6992 0,1.0971 4.7716,36.8938 10.6035,79.5469 5.8319,42.6531 15.6678,114.6758 21.8574,160.0508 6.1895,45.375 11.5919,84.6094 12.0059,87.1875 0.4139,2.5781 1.0081,4.6875 1.3203,4.6875 0.6235,0 233.3507,-98.8714 233.9727,-99.4004 0.5107,-0.4346 -16.9874,-64.4952 -17.8536,-65.3613 -0.37,-0.37 -34.8408,14.5565 -76.6015,33.1699 -71.3814,31.8155 -75.9733,33.6812 -76.6504,31.1543 -2.7898,-10.4114 -11.4366,-64.7735 -10.4551,-65.7285 0.6473,-0.6297 25.6052,-12.1641 55.4629,-25.6309 29.8579,-13.467 54.5402,-24.7374 54.8496,-25.0469 0.7069,-0.7068 -13.53,-58.4199 -14.748,-59.7851 -0.4924,-0.552 -24.9701,10.0026 -54.3946,23.4551 -29.4246,13.4526 -53.61,24.3108 -53.7441,24.1289 -1.0504,-1.4235 -11.6184,-65.448 -10.9121,-66.1094 0.5019,-0.4699 29.8809,-14.1851 65.2871,-30.4785 35.4063,-16.2934 64.5012,-29.7391 64.6543,-29.8789 0.5027,-0.4584 -16.1069,-61.3438 -16.9531,-62.1445 -0.028,-0.027 -0.086,-0.04 -0.1719,-0.039 z"
       style="fill:#000000" />
    <path
       id="path4291"
       d="m 1774.7867,4373.1543 c -1.2918,-0.325 -26.9258,51.4579 -26.9258,54.3926 0,0.8424 11.8125,9.4195 26.25,19.0604 14.4375,9.641 26.25,17.8278 26.25,18.1934 0,0.3658 -22.5503,51.8186 -50.1113,114.3398 -27.561,62.5215 -49.9065,114.2903 -49.6563,115.041 0.2502,0.7507 11.1287,7.494 24.1738,14.9863 13.0452,7.4925 24.3627,13.6393 25.1485,13.6563 0.7858,0.018 1.7027,-0.6699 2.0391,-1.5293 9.1923,-23.478 93.9517,-230.6404 94.6777,-231.4043 0.5817,-0.612 13.7162,4.1982 29.8652,10.9375 15.8544,6.6164 29.3367,12.0293 29.961,12.0293 0.6244,0 1.5126,-0.9844 1.9746,-2.1875 2.7016,-7.0355 20.6777,-56.6239 20.6777,-57.041 0,-0.5579 -152.2569,-79.9545 -154.3242,-80.4746 z"
       style="fill:#000000" />
    <path
       id="path4289"
       d="m 2682.3531,4454.0682 c -0.7515,-0.021 -13.0391,3.486 -27.3047,7.793 l -25.9375,7.832 0,4.8223 c 0,9.748 11.3151,171.0257 13.7402,195.8418 1.3773,14.0938 2.4989,26.75 2.4864,28.125 -0.01,1.375 -4.8551,-6.7812 -10.7676,-18.125 -12.0273,-23.0757 -95.5517,-182.7338 -96.166,-183.8222 -0.2829,-0.5012 -66.4306,8.0456 -67.5703,8.7304 -0.3492,0.2098 -2.0018,54.3519 -5.4571,178.8418 -2.0131,72.5313 -3.925,137.922 -4.25,145.3125 -0.4317,9.8182 -0.1953,13.4447 0.8828,13.4688 0.8117,0.018 15.41,-1.4892 32.4395,-3.3496 l 30.9629,-3.3828 -0.2305,-81.963 c -0.127,-45.0791 -0.6659,-97.9808 -1.1973,-117.5604 -0.5312,-19.5795 -0.8217,-35.7449 -0.6445,-35.9219 0.1773,-0.1774 4.6442,10.4991 9.9258,23.7245 8.6884,21.7566 13.8952,31.7247 54.6855,104.6719 24.7959,44.3438 45.4924,81.0435 45.9903,81.5547 0.7353,0.7554 82.3287,-20.7956 83.6191,-22.0859 0.2099,-0.2101 -3.8751,-41.9427 -9.0781,-92.7383 -5.2029,-50.7958 -12.2445,-119.6367 -15.6465,-152.9805 -3.402,-33.3437 -6.8441,-66.953 -7.6504,-74.6875 -0.8749,-8.3926 -2.0166,-14.0785 -2.832,-14.1016 z"
       style="fill:#000000" />
    <path
       id="path4287"
       d="m 1956.6578,4464.5546 -1.3203,3.8398 c -0.7251,2.1112 -24.5423,70.7754 -52.9278,152.5879 -28.3856,81.8125 -51.5125,148.899 -51.3926,149.0821 0.1198,0.183 40.9436,12.953 90.7188,28.377 49.7753,15.4237 90.8439,28.0715 91.2637,28.1055 0.7178,0.058 16.1664,-61.6277 16.1074,-64.3146 -0.015,-0.6875 -26.7696,-7.7187 -59.4551,-15.625 -32.6855,-7.9062 -60.0433,-14.7402 -60.7949,-15.1875 -1.6885,-1.0047 17.5351,-63.5573 19.5371,-63.5722 0.7379,-0.01 20.9511,4.5675 44.918,10.162 32.8698,7.6727 43.81,9.7942 44.5254,8.6368 0.5215,-0.844 4.2095,-14.185 8.1953,-29.6464 4.8889,-18.9649 6.8061,-28.381 5.8926,-28.9396 -0.7448,-0.4553 -20.2452,-5.0289 -43.334,-10.162 -29.383,-6.5327 -41.9805,-9.8303 -41.9805,-10.9922 0,-1.74 18.2403,-60.2051 19.0293,-60.9941 0.25,-0.2499 24.011,4.5863 52.8027,10.7461 28.7916,6.16 52.7461,11.1992 53.2325,11.1992 1.1292,0 16.7388,-62.3626 15.8359,-63.2656 -0.3709,-0.3709 -34.4642,-9.5311 -75.7637,-20.3555 l -75.0898,-19.6816 z"
       style="fill:#000000" />
    <path
       id="path4285"
       d="m 2144.9547,4512.0331 0,0 c -0.2363,0.01 -0.373,0.024 -0.4043,0.049 -0.1021,0.081 -10.9746,48.2422 -24.1602,107.0234 -13.1855,58.7813 -29.5243,131.6077 -36.3105,161.8359 -6.7862,30.2283 -12.2194,55.0816 -12.0723,55.2287 0.8064,0.8064 62.1851,9.5199 62.791,8.914 0.6695,-0.6694 23.0625,-116.0957 23.0625,-118.877 0,-1.0572 37.2658,-0.3634 38.1855,0.7109 0.1469,0.1717 7.9578,28.4212 17.3594,62.7773 9.4016,34.356 17.2044,62.5476 17.3379,62.6446 0.1335,0.098 13.1797,1.0178 28.9922,2.0449 41.8855,2.7204 46.0519,2.7228 45.3262,0.031 -0.3245,-1.2031 -11.0763,-31.6042 -23.8946,-67.5585 -12.8182,-35.9542 -23.3066,-65.5674 -23.3066,-65.8067 0,-0.2394 2.9531,-1.9619 6.5625,-3.8281 26.2515,-13.5732 42.608,-39.1296 50.5,-78.9024 3.3496,-16.8815 3.0396,-52.6707 -0.5703,-65.8418 -7.8839,-28.7657 -25.8813,-46.5728 -52.1524,-51.6015 -7.2592,-1.3894 -109.9235,-9.0922 -117.246,-8.8457 z m 50.9023,69.8419 c 13.5681,0 36.0335,1.0378 40.8769,2.3027 6.8477,1.7882 12.6699,6.3037 16.0899,12.4785 2.6516,4.7875 3.0862,7.1682 3.0625,16.8262 -0.048,19.5871 -6.4631,37.6954 -15.9043,44.8965 -2.2924,1.7485 -6.5897,4.0334 -9.5508,5.0781 -4.0932,1.4441 -10.2152,1.8439 -25.5391,1.6641 -24.8102,-0.2908 -34.5312,-0.8649 -34.5312,-2.0391 0,-0.4955 3.375,-18.5036 7.5,-40.0176 4.125,-21.5138 7.5,-39.7233 7.5,-40.4648 0,-0.5074 4.3288,-0.7237 10.4961,-0.7246 z"
       style="fill:#000000" />
  </g>
</svg>
