<?xml version="1.0" encoding="UTF-8" standalone="no"?>
<!DOCTYPE svg PUBLIC "-//W3C//DTD SVG 1.1//EN"
 "http://www.w3.org/Graphics/SVG/1.1/DTD/svg11.dtd">
<!-- Generated by graphviz version 2.26.3 (20100126.1600)
 -->
<!-- Title: HAL Pages: 1 -->
<svg width="4645pt" height="2719pt"
 viewBox="0.00 0.00 4645.00 2719.00" xmlns="http://www.w3.org/2000/svg" xmlns:xlink="http://www.w3.org/1999/xlink">
<g id="graph1" class="graph" transform="scale(1 1) rotate(0) translate(4 2715)">
<title>HAL</title>
<polygon fill="white" stroke="white" points="-4,5 -4,-2715 4642,-2715 4642,5 -4,5"/>
<!-- motion -->
<g id="node1" class="node"><title>motion</title>
<polygon fill="none" stroke="black" points="299.5,-181 299.5,-613 628.5,-613 628.5,-181 299.5,-181"/>
<text text-anchor="middle" x="464" y="-568.5" font-family="Times Roman,serif" font-size="30.00">motion</text>
<polyline fill="none" stroke="black" points="299.5,-541 628.5,-541 "/>
<text text-anchor="middle" x="464" y="-496.5" font-family="Times Roman,serif" font-size="30.00">spindle&#45;revs</text>
<polyline fill="none" stroke="black" points="299.5,-469 628.5,-469 "/>
<text text-anchor="middle" x="464" y="-424.5" font-family="Times Roman,serif" font-size="30.00">spindle&#45;index&#45;enable</text>
<polyline fill="none" stroke="black" points="299.5,-397 628.5,-397 "/>
<text text-anchor="middle" x="464" y="-352.5" font-family="Times Roman,serif" font-size="30.00">spindle&#45;forward</text>
<polyline fill="none" stroke="black" points="299.5,-325 628.5,-325 "/>
<text text-anchor="middle" x="464" y="-280.5" font-family="Times Roman,serif" font-size="30.00">spindle&#45;speed&#45;out</text>
<polyline fill="none" stroke="black" points="299.5,-253 628.5,-253 "/>
<text text-anchor="middle" x="464" y="-208.5" font-family="Times Roman,serif" font-size="30.00">spindle&#45;on</text>
</g>
<!-- scale_0 -->
<g id="node15" class="node"><title>scale_0</title>
<polygon fill="none" stroke="black" points="1079.5,-36 1079.5,-252 1202.5,-252 1202.5,-36 1079.5,-36"/>
<text text-anchor="middle" x="1141" y="-207.5" font-family="Times Roman,serif" font-size="30.00">scale.0</text>
<polyline fill="none" stroke="black" points="1079.5,-180 1202.5,-180 "/>
<text text-anchor="middle" x="1141" y="-135.5" font-family="Times Roman,serif" font-size="30.00">in</text>
<polyline fill="none" stroke="black" points="1079.5,-108 1202.5,-108 "/>
<text text-anchor="middle" x="1141" y="-63.5" font-family="Times Roman,serif" font-size="30.00">out</text>
</g>
<!-- motion&#45;&gt;scale_0 -->
<g id="edge50" class="edge"><title>motion:spindle_speed_out&#45;&gt;scale_0:in</title>
<path fill="none" stroke="black" d="M629,-289C629,-289 1003.37,-168.368 1069.18,-147.163"/>
<polygon fill="black" stroke="black" points="1070.56,-150.398 1079,-144 1068.41,-143.736 1070.56,-150.398"/>
</g>
<!-- counter_0 -->
<g id="node16" class="node"><title>counter_0</title>
<polygon fill="none" stroke="black" points="3064.5,-184 3064.5,-616 3275.5,-616 3275.5,-184 3064.5,-184"/>
<text text-anchor="middle" x="3170" y="-571.5" font-family="Times Roman,serif" font-size="30.00">counter.0</text>
<polyline fill="none" stroke="black" points="3064.5,-544 3275.5,-544 "/>
<text text-anchor="middle" x="3170" y="-499.5" font-family="Times Roman,serif" font-size="30.00">index&#45;enable</text>
<polyline fill="none" stroke="black" points="3064.5,-472 3275.5,-472 "/>
<text text-anchor="middle" x="3170" y="-427.5" font-family="Times Roman,serif" font-size="30.00">phase&#45;A</text>
<polyline fill="none" stroke="black" points="3064.5,-400 3275.5,-400 "/>
<text text-anchor="middle" x="3170" y="-355.5" font-family="Times Roman,serif" font-size="30.00">phase&#45;Z</text>
<polyline fill="none" stroke="black" points="3064.5,-328 3275.5,-328 "/>
<text text-anchor="middle" x="3170" y="-283.5" font-family="Times Roman,serif" font-size="30.00">position</text>
<polyline fill="none" stroke="black" points="3064.5,-256 3275.5,-256 "/>
<text text-anchor="middle" x="3170" y="-211.5" font-family="Times Roman,serif" font-size="30.00">velocity</text>
</g>
<!-- motion&#45;&gt;counter_0 -->
<g id="edge2" class="edge"><title>motion:spindle_index_enable&#45;&gt;counter_0:index_enable</title>
<path fill="none" stroke="black" d="M629,-433C629,-433 1079,-562 1079,-562 1079,-562 2578,-562 2578,-562 2578,-562 2984.06,-516.882 3053.85,-509.128"/>
<polygon fill="black" stroke="black" points="3054.45,-512.583 3064,-508 3053.67,-505.626 3054.45,-512.583"/>
</g>
<!-- parport_0 -->
<g id="node17" class="node"><title>parport_0</title>
<polygon fill="none" stroke="black" points="2408,-1051 2408,-1987 2578,-1987 2578,-1051 2408,-1051"/>
<text text-anchor="middle" x="2493" y="-1942.5" font-family="Times Roman,serif" font-size="30.00">parport.0</text>
<polyline fill="none" stroke="black" points="2408,-1915 2578,-1915 "/>
<text text-anchor="middle" x="2493" y="-1870.5" font-family="Times Roman,serif" font-size="30.00">pin&#45;01&#45;out</text>
<polyline fill="none" stroke="black" points="2408,-1843 2578,-1843 "/>
<text text-anchor="middle" x="2493" y="-1798.5" font-family="Times Roman,serif" font-size="30.00">pin&#45;03&#45;out</text>
<polyline fill="none" stroke="black" points="2408,-1771 2578,-1771 "/>
<text text-anchor="middle" x="2493" y="-1726.5" font-family="Times Roman,serif" font-size="30.00">pin&#45;02&#45;out</text>
<polyline fill="none" stroke="black" points="2408,-1699 2578,-1699 "/>
<text text-anchor="middle" x="2493" y="-1654.5" font-family="Times Roman,serif" font-size="30.00">pin&#45;05&#45;out</text>
<polyline fill="none" stroke="black" points="2408,-1627 2578,-1627 "/>
<text text-anchor="middle" x="2493" y="-1582.5" font-family="Times Roman,serif" font-size="30.00">pin&#45;04&#45;out</text>
<polyline fill="none" stroke="black" points="2408,-1555 2578,-1555 "/>
<text text-anchor="middle" x="2493" y="-1510.5" font-family="Times Roman,serif" font-size="30.00">pin&#45;07&#45;out</text>
<polyline fill="none" stroke="black" points="2408,-1483 2578,-1483 "/>
<text text-anchor="middle" x="2493" y="-1438.5" font-family="Times Roman,serif" font-size="30.00">pin&#45;06&#45;out</text>
<polyline fill="none" stroke="black" points="2408,-1411 2578,-1411 "/>
<text text-anchor="middle" x="2493" y="-1366.5" font-family="Times Roman,serif" font-size="30.00">pin&#45;14&#45;out</text>
<polyline fill="none" stroke="black" points="2408,-1339 2578,-1339 "/>
<text text-anchor="middle" x="2493" y="-1294.5" font-family="Times Roman,serif" font-size="30.00">pin&#45;10&#45;in</text>
<polyline fill="none" stroke="black" points="2408,-1267 2578,-1267 "/>
<text text-anchor="middle" x="2493" y="-1222.5" font-family="Times Roman,serif" font-size="30.00">pin&#45;11&#45;in</text>
<polyline fill="none" stroke="black" points="2408,-1195 2578,-1195 "/>
<text text-anchor="middle" x="2493" y="-1150.5" font-family="Times Roman,serif" font-size="30.00">pin&#45;13&#45;in</text>
<polyline fill="none" stroke="black" points="2408,-1123 2578,-1123 "/>
<text text-anchor="middle" x="2493" y="-1078.5" font-family="Times Roman,serif" font-size="30.00">pin&#45;12&#45;in</text>
</g>
<!-- motion&#45;&gt;parport_0 -->
<g id="edge64" class="edge"><title>motion:spindle_on&#45;&gt;parport_0:pin_01_out</title>
<path fill="none" stroke="black" d="M629,-217C629,-217 1079,-0 1079,-0 1079,-0 1203,-0 1203,-0 1203,-0 1904,-74 1904,-74 1904,-74 2365.62,-1727.22 2405.29,-1869.29"/>
<polygon fill="black" stroke="black" points="2401.94,-1870.31 2408,-1879 2408.68,-1868.43 2401.94,-1870.31"/>
</g>
<!-- pwmgen_0 -->
<g id="node18" class="node"><title>pwmgen_0</title>
<polygon fill="none" stroke="black" points="1730,-110 1730,-398 1904,-398 1904,-110 1730,-110"/>
<text text-anchor="middle" x="1817" y="-353.5" font-family="Times Roman,serif" font-size="30.00">pwmgen.0</text>
<polyline fill="none" stroke="black" points="1730,-326 1904,-326 "/>
<text text-anchor="middle" x="1817" y="-281.5" font-family="Times Roman,serif" font-size="30.00">enable</text>
<polyline fill="none" stroke="black" points="1730,-254 1904,-254 "/>
<text text-anchor="middle" x="1817" y="-209.5" font-family="Times Roman,serif" font-size="30.00">value</text>
<polyline fill="none" stroke="black" points="1730,-182 1904,-182 "/>
<text text-anchor="middle" x="1817" y="-137.5" font-family="Times Roman,serif" font-size="30.00">pwm</text>
</g>
<!-- motion&#45;&gt;pwmgen_0 -->
<g id="edge48" class="edge"><title>motion:spindle_forward&#45;&gt;pwmgen_0:enable</title>
<path fill="none" stroke="black" d="M629,-361C629,-361 1608.81,-297.815 1719.8,-290.658"/>
<polygon fill="black" stroke="black" points="1720.25,-294.136 1730,-290 1719.8,-287.151 1720.25,-294.136"/>
</g>
<!-- stepgen_0 -->
<g id="node2" class="node"><title>stepgen_0</title>
<polygon fill="none" stroke="black" points="3741.5,-2279 3741.5,-2711 3950.5,-2711 3950.5,-2279 3741.5,-2279"/>
<text text-anchor="middle" x="3846" y="-2666.5" font-family="Times Roman,serif" font-size="30.00">stepgen.0</text>
<polyline fill="none" stroke="black" points="3741.5,-2639 3950.5,-2639 "/>
<text text-anchor="middle" x="3846" y="-2594.5" font-family="Times Roman,serif" font-size="30.00">position&#45;cmd</text>
<polyline fill="none" stroke="black" points="3741.5,-2567 3950.5,-2567 "/>
<text text-anchor="middle" x="3846" y="-2522.5" font-family="Times Roman,serif" font-size="30.00">enable</text>
<polyline fill="none" stroke="black" points="3741.5,-2495 3950.5,-2495 "/>
<text text-anchor="middle" x="3846" y="-2450.5" font-family="Times Roman,serif" font-size="30.00">position&#45;fb</text>
<polyline fill="none" stroke="black" points="3741.5,-2423 3950.5,-2423 "/>
<text text-anchor="middle" x="3846" y="-2378.5" font-family="Times Roman,serif" font-size="30.00">step</text>
<polyline fill="none" stroke="black" points="3741.5,-2351 3950.5,-2351 "/>
<text text-anchor="middle" x="3846" y="-2306.5" font-family="Times Roman,serif" font-size="30.00">dir</text>
</g>
<!-- axis -->
<g id="node5" class="node"><title>axis</title>
<polygon fill="none" stroke="black" points="3028,-980 3028,-1844 3312,-1844 3312,-980 3028,-980"/>
<text text-anchor="middle" x="3170" y="-1799.5" font-family="Times Roman,serif" font-size="30.00">axis</text>
<polyline fill="none" stroke="black" points="3028,-1772 3312,-1772 "/>
<text text-anchor="middle" x="3170" y="-1727.5" font-family="Times Roman,serif" font-size="30.00">0.motor&#45;pos&#45;fb</text>
<polyline fill="none" stroke="black" points="3028,-1700 3312,-1700 "/>
<text text-anchor="middle" x="3170" y="-1655.5" font-family="Times Roman,serif" font-size="30.00">1.motor&#45;pos&#45;fb</text>
<polyline fill="none" stroke="black" points="3028,-1628 3312,-1628 "/>
<text text-anchor="middle" x="3170" y="-1583.5" font-family="Times Roman,serif" font-size="30.00">2.motor&#45;pos&#45;fb</text>
<polyline fill="none" stroke="black" points="3028,-1556 3312,-1556 "/>
<text text-anchor="middle" x="3170" y="-1511.5" font-family="Times Roman,serif" font-size="30.00">0.home&#45;sw&#45;in</text>
<polyline fill="none" stroke="black" points="3028,-1484 3312,-1484 "/>
<text text-anchor="middle" x="3170" y="-1439.5" font-family="Times Roman,serif" font-size="30.00">2.home&#45;sw&#45;in</text>
<polyline fill="none" stroke="black" points="3028,-1412 3312,-1412 "/>
<text text-anchor="middle" x="3170" y="-1367.5" font-family="Times Roman,serif" font-size="30.00">0.motor&#45;pos&#45;cmd</text>
<polyline fill="none" stroke="black" points="3028,-1340 3312,-1340 "/>
<text text-anchor="middle" x="3170" y="-1295.5" font-family="Times Roman,serif" font-size="30.00">1.motor&#45;pos&#45;cmd</text>
<polyline fill="none" stroke="black" points="3028,-1268 3312,-1268 "/>
<text text-anchor="middle" x="3170" y="-1223.5" font-family="Times Roman,serif" font-size="30.00">2.motor&#45;pos&#45;cmd</text>
<polyline fill="none" stroke="black" points="3028,-1196 3312,-1196 "/>
<text text-anchor="middle" x="3170" y="-1151.5" font-family="Times Roman,serif" font-size="30.00">0.amp&#45;enable&#45;out</text>
<polyline fill="none" stroke="black" points="3028,-1124 3312,-1124 "/>
<text text-anchor="middle" x="3170" y="-1079.5" font-family="Times Roman,serif" font-size="30.00">1.amp&#45;enable&#45;out</text>
<polyline fill="none" stroke="black" points="3028,-1052 3312,-1052 "/>
<text text-anchor="middle" x="3170" y="-1007.5" font-family="Times Roman,serif" font-size="30.00">2.amp&#45;enable&#45;out</text>
</g>
<!-- stepgen_0&#45;&gt;axis -->
<g id="edge26" class="edge"><title>stepgen_0:position_fb&#45;&gt;axis:_0_motor_pos_fb</title>
<path fill="none" stroke="black" d="M3741,-2459C3741,-2459 3365.52,-1826.2 3317.12,-1744.62"/>
<polygon fill="black" stroke="black" points="3320.11,-1742.81 3312,-1736 3314.09,-1746.39 3320.11,-1742.81"/>
</g>
<!-- stepgen_0&#45;&gt;parport_0 -->
<g id="edge38" class="edge"><title>stepgen_0:dir&#45;&gt;parport_0:pin_02_out</title>
<path fill="none" stroke="black" d="M3741,-2315C3741,-2315 3028,-2063 3028,-2063 3028,-2063 2647.18,-1785.43 2586.19,-1740.97"/>
<polygon fill="black" stroke="black" points="2588.14,-1738.06 2578,-1735 2584.02,-1743.72 2588.14,-1738.06"/>
</g>
<!-- stepgen_0&#45;&gt;parport_0 -->
<g id="edge16" class="edge"><title>stepgen_0:step&#45;&gt;parport_0:pin_03_out</title>
<path fill="none" stroke="black" d="M3741,-2387C3741,-2387 3028,-2300 3028,-2300 3028,-2300 2642.32,-1877.46 2585.07,-1814.74"/>
<polygon fill="black" stroke="black" points="2587.33,-1812.03 2578,-1807 2582.16,-1816.75 2587.33,-1812.03"/>
</g>
<!-- stepgen_1 -->
<g id="node3" class="node"><title>stepgen_1</title>
<polygon fill="none" stroke="black" points="3741.5,-1775 3741.5,-2207 3950.5,-2207 3950.5,-1775 3741.5,-1775"/>
<text text-anchor="middle" x="3846" y="-2162.5" font-family="Times Roman,serif" font-size="30.00">stepgen.1</text>
<polyline fill="none" stroke="black" points="3741.5,-2135 3950.5,-2135 "/>
<text text-anchor="middle" x="3846" y="-2090.5" font-family="Times Roman,serif" font-size="30.00">position&#45;cmd</text>
<polyline fill="none" stroke="black" points="3741.5,-2063 3950.5,-2063 "/>
<text text-anchor="middle" x="3846" y="-2018.5" font-family="Times Roman,serif" font-size="30.00">enable</text>
<polyline fill="none" stroke="black" points="3741.5,-1991 3950.5,-1991 "/>
<text text-anchor="middle" x="3846" y="-1946.5" font-family="Times Roman,serif" font-size="30.00">position&#45;fb</text>
<polyline fill="none" stroke="black" points="3741.5,-1919 3950.5,-1919 "/>
<text text-anchor="middle" x="3846" y="-1874.5" font-family="Times Roman,serif" font-size="30.00">step</text>
<polyline fill="none" stroke="black" points="3741.5,-1847 3950.5,-1847 "/>
<text text-anchor="middle" x="3846" y="-1802.5" font-family="Times Roman,serif" font-size="30.00">dir</text>
</g>
<!-- stepgen_1&#45;&gt;axis -->
<g id="edge28" class="edge"><title>stepgen_1:position_fb&#45;&gt;axis:_1_motor_pos_fb</title>
<path fill="none" stroke="black" d="M3741,-1955C3741,-1955 3381.03,-1710.83 3320.57,-1669.81"/>
<polygon fill="black" stroke="black" points="3322.24,-1666.72 3312,-1664 3318.31,-1672.51 3322.24,-1666.72"/>
</g>
<!-- stepgen_1&#45;&gt;parport_0 -->
<g id="edge40" class="edge"><title>stepgen_1:step&#45;&gt;parport_0:pin_05_out</title>
<path fill="none" stroke="black" d="M3741,-1883C3741,-1883 3312,-2008 3312,-2008 3312,-2008 3028,-2008 3028,-2008 3028,-2008 2647.18,-1716.04 2586.19,-1669.28"/>
<polygon fill="black" stroke="black" points="2588.07,-1666.31 2578,-1663 2583.81,-1671.86 2588.07,-1666.31"/>
</g>
<!-- stepgen_1&#45;&gt;parport_0 -->
<g id="edge42" class="edge"><title>stepgen_1:dir&#45;&gt;parport_0:pin_04_out</title>
<path fill="none" stroke="black" d="M3741,-1811C3741,-1811 3312,-1880 3312,-1880 3312,-1880 3028,-1880 3028,-1880 3028,-1880 2648.8,-1636.47 2586.59,-1596.52"/>
<polygon fill="black" stroke="black" points="2588.31,-1593.46 2578,-1591 2584.52,-1599.35 2588.31,-1593.46"/>
</g>
<!-- stepgen_2 -->
<g id="node4" class="node"><title>stepgen_2</title>
<polygon fill="none" stroke="black" points="3741.5,-407 3741.5,-839 3950.5,-839 3950.5,-407 3741.5,-407"/>
<text text-anchor="middle" x="3846" y="-794.5" font-family="Times Roman,serif" font-size="30.00">stepgen.2</text>
<polyline fill="none" stroke="black" points="3741.5,-767 3950.5,-767 "/>
<text text-anchor="middle" x="3846" y="-722.5" font-family="Times Roman,serif" font-size="30.00">position&#45;cmd</text>
<polyline fill="none" stroke="black" points="3741.5,-695 3950.5,-695 "/>
<text text-anchor="middle" x="3846" y="-650.5" font-family="Times Roman,serif" font-size="30.00">enable</text>
<polyline fill="none" stroke="black" points="3741.5,-623 3950.5,-623 "/>
<text text-anchor="middle" x="3846" y="-578.5" font-family="Times Roman,serif" font-size="30.00">position&#45;fb</text>
<polyline fill="none" stroke="black" points="3741.5,-551 3950.5,-551 "/>
<text text-anchor="middle" x="3846" y="-506.5" font-family="Times Roman,serif" font-size="30.00">step</text>
<polyline fill="none" stroke="black" points="3741.5,-479 3950.5,-479 "/>
<text text-anchor="middle" x="3846" y="-434.5" font-family="Times Roman,serif" font-size="30.00">dir</text>
</g>
<!-- stepgen_2&#45;&gt;axis -->
<g id="edge30" class="edge"><title>stepgen_2:position_fb&#45;&gt;axis:_2_motor_pos_fb</title>
<path fill="none" stroke="black" d="M3741,-587C3741,-587 3359.22,-1481.38 3315.97,-1582.69"/>
<polygon fill="black" stroke="black" points="3312.71,-1581.43 3312,-1592 3319.14,-1584.18 3312.71,-1581.43"/>
</g>
<!-- stepgen_2&#45;&gt;parport_0 -->
<g id="edge44" class="edge"><title>stepgen_2:step&#45;&gt;parport_0:pin_07_out</title>
<path fill="none" stroke="black" d="M3741,-515C3741,-515 3312,-780 3312,-780 3312,-780 3028,-944 3028,-944 3028,-944 2639.06,-1440.98 2584.36,-1510.87"/>
<polygon fill="black" stroke="black" points="2581.41,-1508.97 2578,-1519 2586.92,-1513.28 2581.41,-1508.97"/>
</g>
<!-- stepgen_2&#45;&gt;parport_0 -->
<g id="edge46" class="edge"><title>stepgen_2:dir&#45;&gt;parport_0:pin_06_out</title>
<path fill="none" stroke="black" d="M3741,-443C3741,-443 3312,-652 3312,-652 3312,-652 3028,-766 3028,-766 3028,-766 2635.78,-1359.56 2583.69,-1438.39"/>
<polygon fill="black" stroke="black" points="2580.59,-1436.73 2578,-1447 2586.43,-1440.59 2580.59,-1436.73"/>
</g>
<!-- axis&#45;&gt;stepgen_0 -->
<g id="edge32" class="edge"><title>axis:_0_amp_enable_out&#45;&gt;stepgen_0:enable</title>
<path fill="none" stroke="black" d="M3312,-1160C3312,-1160 3699.33,-2397.84 3737.91,-2521.14"/>
<polygon fill="black" stroke="black" points="3734.67,-2522.5 3741,-2531 3741.35,-2520.41 3734.67,-2522.5"/>
</g>
<!-- axis&#45;&gt;stepgen_0 -->
<g id="edge12" class="edge"><title>axis:_0_motor_pos_cmd&#45;&gt;stepgen_0:position_cmd</title>
<path fill="none" stroke="black" d="M3312,-1376C3312,-1376 3697.74,-2479.27 3737.67,-2593.48"/>
<polygon fill="black" stroke="black" points="3734.4,-2594.72 3741,-2603 3741,-2592.41 3734.4,-2594.72"/>
</g>
<!-- axis&#45;&gt;stepgen_1 -->
<g id="edge34" class="edge"><title>axis:_1_amp_enable_out&#45;&gt;stepgen_1:enable</title>
<path fill="none" stroke="black" d="M3312,-1088C3312,-1088 3692.2,-1920.18 3736.75,-2017.71"/>
<polygon fill="black" stroke="black" points="3733.66,-2019.36 3741,-2027 3740.03,-2016.45 3733.66,-2019.36"/>
</g>
<!-- axis&#45;&gt;stepgen_1 -->
<g id="edge18" class="edge"><title>axis:_1_motor_pos_cmd&#45;&gt;stepgen_1:position_cmd</title>
<path fill="none" stroke="black" d="M3312,-1304C3312,-1304 3689.05,-2002.73 3736.18,-2090.07"/>
<polygon fill="black" stroke="black" points="3733.17,-2091.86 3741,-2099 3739.33,-2088.54 3733.17,-2091.86"/>
</g>
<!-- axis&#45;&gt;stepgen_2 -->
<g id="edge22" class="edge"><title>axis:_2_motor_pos_cmd&#45;&gt;stepgen_2:position_cmd</title>
<path fill="none" stroke="black" d="M3312,-1232C3312,-1232 3679.68,-802.607 3734.26,-738.87"/>
<polygon fill="black" stroke="black" points="3737.15,-740.872 3741,-731 3731.84,-736.319 3737.15,-740.872"/>
</g>
<!-- axis&#45;&gt;stepgen_2 -->
<g id="edge36" class="edge"><title>axis:_2_amp_enable_out&#45;&gt;stepgen_2:enable</title>
<path fill="none" stroke="black" d="M3312,-1016C3312,-1016 3675.04,-713.887 3733.19,-665.501"/>
<polygon fill="black" stroke="black" points="3735.55,-668.087 3741,-659 3731.07,-662.706 3735.55,-668.087"/>
</g>
<!-- ddt_0 -->
<g id="node6" class="node"><title>ddt_0</title>
<polygon fill="none" stroke="black" points="3798.5,-1487 3798.5,-1703 3893.5,-1703 3893.5,-1487 3798.5,-1487"/>
<text text-anchor="middle" x="3846" y="-1658.5" font-family="Times Roman,serif" font-size="30.00">ddt.0</text>
<polyline fill="none" stroke="black" points="3798.5,-1631 3893.5,-1631 "/>
<text text-anchor="middle" x="3846" y="-1586.5" font-family="Times Roman,serif" font-size="30.00">in</text>
<polyline fill="none" stroke="black" points="3798.5,-1559 3893.5,-1559 "/>
<text text-anchor="middle" x="3846" y="-1514.5" font-family="Times Roman,serif" font-size="30.00">out</text>
</g>
<!-- axis&#45;&gt;ddt_0 -->
<g id="edge14" class="edge"><title>axis:_0_motor_pos_cmd&#45;&gt;ddt_0:in</title>
<path fill="none" stroke="black" d="M3312,-1376C3312,-1376 3721.54,-1560.54 3788.73,-1590.82"/>
<polygon fill="black" stroke="black" points="3787.44,-1594.08 3798,-1595 3790.32,-1587.7 3787.44,-1594.08"/>
</g>
<!-- ddt_2 -->
<g id="node8" class="node"><title>ddt_2</title>
<polygon fill="none" stroke="black" points="3798.5,-1199 3798.5,-1415 3893.5,-1415 3893.5,-1199 3798.5,-1199"/>
<text text-anchor="middle" x="3846" y="-1370.5" font-family="Times Roman,serif" font-size="30.00">ddt.2</text>
<polyline fill="none" stroke="black" points="3798.5,-1343 3893.5,-1343 "/>
<text text-anchor="middle" x="3846" y="-1298.5" font-family="Times Roman,serif" font-size="30.00">in</text>
<polyline fill="none" stroke="black" points="3798.5,-1271 3893.5,-1271 "/>
<text text-anchor="middle" x="3846" y="-1226.5" font-family="Times Roman,serif" font-size="30.00">out</text>
</g>
<!-- axis&#45;&gt;ddt_2 -->
<g id="edge20" class="edge"><title>axis:_1_motor_pos_cmd&#45;&gt;ddt_2:in</title>
<path fill="none" stroke="black" d="M3312,-1304C3312,-1304 3718.06,-1306.51 3787.85,-1306.94"/>
<polygon fill="black" stroke="black" points="3787.98,-1310.44 3798,-1307 3788.02,-1303.44 3787.98,-1310.44"/>
</g>
<!-- ddt_4 -->
<g id="node10" class="node"><title>ddt_4</title>
<polygon fill="none" stroke="black" points="3798.5,-911 3798.5,-1127 3893.5,-1127 3893.5,-911 3798.5,-911"/>
<text text-anchor="middle" x="3846" y="-1082.5" font-family="Times Roman,serif" font-size="30.00">ddt.4</text>
<polyline fill="none" stroke="black" points="3798.5,-1055 3893.5,-1055 "/>
<text text-anchor="middle" x="3846" y="-1010.5" font-family="Times Roman,serif" font-size="30.00">in</text>
<polyline fill="none" stroke="black" points="3798.5,-983 3893.5,-983 "/>
<text text-anchor="middle" x="3846" y="-938.5" font-family="Times Roman,serif" font-size="30.00">out</text>
</g>
<!-- axis&#45;&gt;ddt_4 -->
<g id="edge24" class="edge"><title>axis:_2_motor_pos_cmd&#45;&gt;ddt_4:in</title>
<path fill="none" stroke="black" d="M3312,-1232C3312,-1232 3721.54,-1052.51 3788.73,-1023.06"/>
<polygon fill="black" stroke="black" points="3790.25,-1026.22 3798,-1019 3787.44,-1019.81 3790.25,-1026.22"/>
</g>
<!-- ddt_1 -->
<g id="node7" class="node"><title>ddt_1</title>
<polygon fill="none" stroke="black" points="4475.5,-1415 4475.5,-1631 4570.5,-1631 4570.5,-1415 4475.5,-1415"/>
<text text-anchor="middle" x="4523" y="-1586.5" font-family="Times Roman,serif" font-size="30.00">ddt.1</text>
<polyline fill="none" stroke="black" points="4475.5,-1559 4570.5,-1559 "/>
<text text-anchor="middle" x="4523" y="-1514.5" font-family="Times Roman,serif" font-size="30.00">in</text>
<polyline fill="none" stroke="black" points="4475.5,-1487 4570.5,-1487 "/>
<text text-anchor="middle" x="4523" y="-1442.5" font-family="Times Roman,serif" font-size="30.00">out</text>
</g>
<!-- ddt_0&#45;&gt;ddt_1 -->
<g id="edge6" class="edge"><title>ddt_0:out&#45;&gt;ddt_1:in</title>
<path fill="none" stroke="black" d="M3894,-1523C3894,-1523 4387.76,-1523 4464.92,-1523"/>
<polygon fill="black" stroke="black" points="4465,-1526.5 4475,-1523 4465,-1519.5 4465,-1526.5"/>
</g>
<!-- ddt_3 -->
<g id="node9" class="node"><title>ddt_3</title>
<polygon fill="none" stroke="black" points="4475.5,-1127 4475.5,-1343 4570.5,-1343 4570.5,-1127 4475.5,-1127"/>
<text text-anchor="middle" x="4523" y="-1298.5" font-family="Times Roman,serif" font-size="30.00">ddt.3</text>
<polyline fill="none" stroke="black" points="4475.5,-1271 4570.5,-1271 "/>
<text text-anchor="middle" x="4523" y="-1226.5" font-family="Times Roman,serif" font-size="30.00">in</text>
<polyline fill="none" stroke="black" points="4475.5,-1199 4570.5,-1199 "/>
<text text-anchor="middle" x="4523" y="-1154.5" font-family="Times Roman,serif" font-size="30.00">out</text>
</g>
<!-- ddt_2&#45;&gt;ddt_3 -->
<g id="edge8" class="edge"><title>ddt_2:out&#45;&gt;ddt_3:in</title>
<path fill="none" stroke="black" d="M3894,-1235C3894,-1235 4387.76,-1235 4464.92,-1235"/>
<polygon fill="black" stroke="black" points="4465,-1238.5 4475,-1235 4465,-1231.5 4465,-1238.5"/>
</g>
<!-- ddt_5 -->
<g id="node11" class="node"><title>ddt_5</title>
<polygon fill="none" stroke="black" points="4475.5,-839 4475.5,-1055 4570.5,-1055 4570.5,-839 4475.5,-839"/>
<text text-anchor="middle" x="4523" y="-1010.5" font-family="Times Roman,serif" font-size="30.00">ddt.5</text>
<polyline fill="none" stroke="black" points="4475.5,-983 4570.5,-983 "/>
<text text-anchor="middle" x="4523" y="-938.5" font-family="Times Roman,serif" font-size="30.00">in</text>
<polyline fill="none" stroke="black" points="4475.5,-911 4570.5,-911 "/>
<text text-anchor="middle" x="4523" y="-866.5" font-family="Times Roman,serif" font-size="30.00">out</text>
</g>
<!-- ddt_4&#45;&gt;ddt_5 -->
<g id="edge10" class="edge"><title>ddt_4:out&#45;&gt;ddt_5:in</title>
<path fill="none" stroke="black" d="M3894,-947C3894,-947 4387.76,-947 4464.92,-947"/>
<polygon fill="black" stroke="black" points="4465,-950.5 4475,-947 4465,-943.5 4465,-950.5"/>
</g>
<!-- iocontrol_0 -->
<g id="node12" class="node"><title>iocontrol_0</title>
<polygon fill="none" stroke="black" points="338,-685 338,-1189 590,-1189 590,-685 338,-685"/>
<text text-anchor="middle" x="464" y="-1144.5" font-family="Times Roman,serif" font-size="30.00">iocontrol.0</text>
<polyline fill="none" stroke="black" points="338,-1117 590,-1117 "/>
<text text-anchor="middle" x="464" y="-1072.5" font-family="Times Roman,serif" font-size="30.00">emc&#45;enable&#45;in</text>
<polyline fill="none" stroke="black" points="338,-1045 590,-1045 "/>
<text text-anchor="middle" x="464" y="-1000.5" font-family="Times Roman,serif" font-size="30.00">tool&#45;prepared</text>
<polyline fill="none" stroke="black" points="338,-973 590,-973 "/>
<text text-anchor="middle" x="464" y="-928.5" font-family="Times Roman,serif" font-size="30.00">tool&#45;changed</text>
<polyline fill="none" stroke="black" points="338,-901 590,-901 "/>
<text text-anchor="middle" x="464" y="-856.5" font-family="Times Roman,serif" font-size="30.00">user&#45;enable&#45;out</text>
<polyline fill="none" stroke="black" points="338,-829 590,-829 "/>
<text text-anchor="middle" x="464" y="-784.5" font-family="Times Roman,serif" font-size="30.00">tool&#45;prepare</text>
<polyline fill="none" stroke="black" points="338,-757 590,-757 "/>
<text text-anchor="middle" x="464" y="-712.5" font-family="Times Roman,serif" font-size="30.00">tool&#45;change</text>
</g>
<!-- iocontrol_0&#45;&gt;iocontrol_0 -->
<g id="edge58" class="edge"><title>iocontrol_0:user_enable_out&#45;&gt;iocontrol_0:emc_enable_in</title>
<path fill="none" stroke="black" d="M337.802,-847.148C182.948,-836.681 0,-862.258 0,-973 0,-1081.36 175.172,-1108.18 327.784,-1099.48"/>
<polygon fill="black" stroke="black" points="328.039,-1102.97 337.802,-1098.85 327.604,-1095.98 328.039,-1102.97"/>
</g>
<!-- iocontrol_0&#45;&gt;iocontrol_0 -->
<g id="edge60" class="edge"><title>iocontrol_0:tool_prepare&#45;&gt;iocontrol_0:tool_prepared</title>
<path fill="none" stroke="black" d="M337.802,-775.148C182.948,-764.681 0,-790.258 0,-901 0,-1009.36 175.172,-1036.18 327.784,-1027.48"/>
<polygon fill="black" stroke="black" points="328.039,-1030.97 337.802,-1026.85 327.604,-1023.98 328.039,-1030.97"/>
</g>
<!-- iocontrol_0&#45;&gt;iocontrol_0 -->
<g id="edge62" class="edge"><title>iocontrol_0:tool_change&#45;&gt;iocontrol_0:tool_changed</title>
<path fill="none" stroke="black" d="M337.802,-703.148C182.948,-692.681 0,-718.258 0,-829 0,-937.363 175.172,-964.181 327.784,-955.476"/>
<polygon fill="black" stroke="black" points="328.039,-958.967 337.802,-954.852 327.604,-951.981 328.039,-958.967"/>
</g>
<!-- lowpass_0 -->
<g id="node13" class="node"><title>lowpass_0</title>
<polygon fill="none" stroke="black" points="3763.5,-112 3763.5,-328 3928.5,-328 3928.5,-112 3763.5,-112"/>
<text text-anchor="middle" x="3846" y="-283.5" font-family="Times Roman,serif" font-size="30.00">lowpass.0</text>
<polyline fill="none" stroke="black" points="3763.5,-256 3928.5,-256 "/>
<text text-anchor="middle" x="3846" y="-211.5" font-family="Times Roman,serif" font-size="30.00">in</text>
<polyline fill="none" stroke="black" points="3763.5,-184 3928.5,-184 "/>
<text text-anchor="middle" x="3846" y="-139.5" font-family="Times Roman,serif" font-size="30.00">out</text>
</g>
<!-- mult2_0 -->
<g id="node14" class="node"><title>mult2_0</title>
<polygon fill="none" stroke="black" points="4457,-40 4457,-256 4589,-256 4589,-40 4457,-40"/>
<text text-anchor="middle" x="4523" y="-211.5" font-family="Times Roman,serif" font-size="30.00">mult2.0</text>
<polyline fill="none" stroke="black" points="4457,-184 4589,-184 "/>
<text text-anchor="middle" x="4523" y="-139.5" font-family="Times Roman,serif" font-size="30.00">in1</text>
<polyline fill="none" stroke="black" points="4457,-112 4589,-112 "/>
<text text-anchor="middle" x="4523" y="-67.5" font-family="Times Roman,serif" font-size="30.00">out</text>
</g>
<!-- lowpass_0&#45;&gt;mult2_0 -->
<g id="edge56" class="edge"><title>lowpass_0:out&#45;&gt;mult2_0:in1</title>
<path fill="none" stroke="black" d="M3929,-148C3929,-148 4373.93,-148 4446.92,-148"/>
<polygon fill="black" stroke="black" points="4447,-151.5 4457,-148 4447,-144.5 4447,-151.5"/>
</g>
<!-- scale_0&#45;&gt;pwmgen_0 -->
<g id="edge52" class="edge"><title>scale_0:out&#45;&gt;pwmgen_0:value</title>
<path fill="none" stroke="black" d="M1203,-72C1203,-72 1647.09,-195.029 1719.94,-215.214"/>
<polygon fill="black" stroke="black" points="1719.43,-218.703 1730,-218 1721.3,-211.957 1719.43,-218.703"/>
</g>
<!-- counter_0&#45;&gt;motion -->
<g id="edge4" class="edge"><title>counter_0:position&#45;&gt;motion:spindle_revs</title>
<path fill="none" stroke="black" d="M3064,-292C3064,-292 1904,-434 1904,-434 1904,-434 759.927,-497.709 639.263,-504.428"/>
<polygon fill="black" stroke="black" points="638.79,-500.949 629,-505 639.179,-507.938 638.79,-500.949"/>
</g>
<!-- counter_0&#45;&gt;lowpass_0 -->
<g id="edge54" class="edge"><title>counter_0:velocity&#45;&gt;lowpass_0:in</title>
<path fill="none" stroke="black" d="M3276,-220C3276,-220 3682.89,-220 3752.83,-220"/>
<polygon fill="black" stroke="black" points="3753,-223.5 3763,-220 3753,-216.5 3753,-223.5"/>
</g>
<!-- parport_0&#45;&gt;axis -->
<g id="edge68" class="edge"><title>parport_0:pin_10_in&#45;&gt;axis:_0_home_sw_in</title>
<path fill="none" stroke="black" d="M2578,-1303C2578,-1303 2953.98,-1484.31 3018.6,-1515.47"/>
<polygon fill="black" stroke="black" points="3017.47,-1518.81 3028,-1520 3020.51,-1512.5 3017.47,-1518.81"/>
</g>
<!-- parport_0&#45;&gt;axis -->
<g id="edge70" class="edge"><title>parport_0:pin_10_in&#45;&gt;axis:_2_home_sw_in</title>
<path fill="none" stroke="black" d="M2578,-1303C2578,-1303 2952.37,-1423.63 3018.18,-1444.84"/>
<polygon fill="black" stroke="black" points="3017.41,-1448.26 3028,-1448 3019.56,-1441.6 3017.41,-1448.26"/>
</g>
<!-- parport_0&#45;&gt;counter_0 -->
<g id="edge72" class="edge"><title>parport_0:pin_11_in&#45;&gt;counter_0:phase_A</title>
<path fill="none" stroke="black" d="M2578,-1231C2578,-1231 3006.04,-530.813 3058.71,-444.657"/>
<polygon fill="black" stroke="black" points="3061.77,-446.358 3064,-436 3055.8,-442.706 3061.77,-446.358"/>
</g>
<!-- parport_0&#45;&gt;counter_0 -->
<g id="edge74" class="edge"><title>parport_0:pin_13_in&#45;&gt;counter_0:phase_Z</title>
<path fill="none" stroke="black" d="M2578,-1159C2578,-1159 3006.04,-458.813 3058.71,-372.657"/>
<polygon fill="black" stroke="black" points="3061.77,-374.358 3064,-364 3055.8,-370.706 3061.77,-374.358"/>
</g>
<!-- pwmgen_0&#45;&gt;parport_0 -->
<g id="edge66" class="edge"><title>pwmgen_0:pwm&#45;&gt;parport_0:pin_14_out</title>
<path fill="none" stroke="black" d="M1904,-146C1904,-146 2357.18,-1251.07 2404.09,-1365.46"/>
<polygon fill="black" stroke="black" points="2400.97,-1367.08 2408,-1375 2407.44,-1364.42 2400.97,-1367.08"/>
</g>
</g>
</svg>
