<?xml version="1.0" encoding="utf-8"?>
<!-- Generator: Adobe Illustrator 19.2.1, SVG Export Plug-In . SVG Version: 6.00 Build 0)  -->
<svg version="1.1" xmlns="http://www.w3.org/2000/svg" xmlns:xlink="http://www.w3.org/1999/xlink" x="0px" y="0px"
	 viewBox="0 0 144 132" style="enable-background:new 0 0 144 132;" xml:space="preserve">
<style type="text/css">
	.st0{fill:#AAAD00;}
	.st1{fill:#00609C;}
	.st2{opacity:0.25;}
	.st3{fill:#FFFFFF;}
	.st4{fill:#4C4A4B;}
	.st5{fill:#918D8D;}
	.st6{fill:#AAAF37;}
	.st7{opacity:0.6;fill:#E5E4E5;}
	.st8{opacity:0.7;fill:#FFFFFF;}
	.st9{clip-path:url(#SVGID_6_);}
	.st10{fill:#F4F4F4;stroke:#7E7A7C;stroke-width:0.5;stroke-miterlimit:10;}
	.st11{fill:#006496;}
	.st12{fill:#7E7A7C;stroke:#7E7A7C;stroke-miterlimit:10;}
	.st13{fill:#CD332C;}
	.st14{fill:#326699;}
	.st15{fill:#3A5A98;}
	.st16{fill:#29A7DF;}
	.st17{fill-rule:evenodd;clip-rule:evenodd;fill:#AAAD00;}
	.st18{fill:#7E797B;}
	.st19{display:none;}
	.st20{display:inline;}
	.st21{opacity:0.1;fill:#E20613;}
</style>
<g id="Website_Design_Goes_Here">
	<g>
		<g>
			<g id="Untitled-1_1_">
				<g>
					<path class="st17" d="M64.3,57.4c-0.7,1.3-1.3,2.4-1.9,3.5C52.3,56.6,48.3,45,53.7,36.5c3.7-5.8,10.9-5.8,14.2,0.3
						c4.3,8,3.9,16.3,1.1,24.8c-1.6,5-4.5,9-8.5,12.1c-5.2,4-10.4,4.3-16.1,1c-6.5-3.8-10.1-11.2-8.9-18.6c0.8-5,6-7.4,11-5.1
						c4.9,2.2,7.8,6.5,11,10.5c1.3,1.5,2.4,3.2,3.6,4.8c7-6.8,7-20.1,3.5-26.6c-0.8-1.4-2.7-3-4.1-3.1c-1.2-0.1-3,1.7-3.8,3.1
						c-2.6,4.8-1.2,11.2,3.2,14.6C61.2,55.4,62.6,56.2,64.3,57.4z M58.2,69.8c-1.3-1.9-2.4-3.8-3.9-5.4c-2.8-3.1-5.5-6.4-8.7-8.8
						c-3.3-2.5-5.9-0.8-6,3.3c-0.1,5.6,3.3,10.9,8.4,13C51.8,73.4,55.1,73.1,58.2,69.8z"/>
					<path class="st17" d="M88.3,84.2c-1-0.6-1.7-1.7-2.4-2.6c0,0.1,0.1,0.2,0.1,0.3c0.4,2-0.1,4.1-1.2,5.7c0.4,0,0.8,0.1,1.2,0.3
						c3.4,2,2.9,5.5-1.2,7.6C78,98.7,71,99.3,64.1,96.6c-6.2-2.4-7.4-7.2-3.3-12.4c4-5,9-8.6,15.1-10.5c1.2-0.4,2.5-0.7,3.7-1
						c0.1-0.3,0.2-0.7,0.3-1c-1.4-0.7-3-2.3-4.2-2c-7.8,1.7-14.1,6-18.7,12.5c-5.5,7.6-3.2,14.9,5.5,18.5c5.6,2.3,11.5,2.5,17.2,0.9
						c3.2-0.9,6.6-2,9.2-3.9C94.1,93.8,93.6,87.7,88.3,84.2z"/>
					<path class="st17" d="M87.9,67.3c-3.3-2.3-3.4-2.4-0.9-5.5c2.3-2.9,4.8-5.6,7.4-8.2c2.4-2.4,5.4-3.8,9-3.2
						c3.2,0.5,5.3,2.3,5.8,5.4c2.3,13-9,22-17.1,21c-2.1-0.2-4.5-0.7-6-2c-3.3-2.7-6.2-6-9.3-9.1c3.9-2.8,4.3-2.7,6.5,0.4
						c0.9,1.3,1.9,2.6,3.1,3.7c3,2.8,6.4,3.9,10.4,2c4.5-2.2,7.6-5.7,8.3-10.7c0.3-2.1,1-4.9-1.6-6.1c-2.5-1.2-4.8,0.3-6.6,2.2
						C93.8,60.5,90.9,63.9,87.9,67.3z"/>
					<path class="st17" d="M78.4,56.3c-1.2,0.5-2.3,1-3.7,1.5c-1.7-7.6-1.3-14.6,2.2-21.2c3.2-5.9,10.6-5.8,14.1-0.1
						c5.8,9.4,0.6,22.1-10.4,25.2c-3.1,0.9-6.4,1.4-9.9,2.1c0.1-2.9,0.6-4.1,3.3-4.4C79,59,83,56.3,86.3,52.9
						c3.6-3.7,3.9-10.3,1-14.5c-1.9-2.8-4.8-2.8-6.6,0.2C77.5,44,77.4,49.9,78.4,56.3z"/>
				</g>
			</g>
			<path class="st18" d="M87.2,83.2c-0.1-0.4-0.2-0.8-0.6-1c-0.8-0.4-1.7-0.8-2.5-1.1c-0.6-0.2-1.2,0-1.5,0.6
				c-0.2,0.3-0.3,0.7-0.6,0.7c-0.2-0.1-0.4-0.2-0.6-0.2c-0.5,0.1-0.8-0.2-1.2-0.3c-1.1-0.5-2.3-1-3.3-1.5c0.1-0.2,0.2-0.4,0.3-0.6
				c0-0.2,0-0.5-0.1-0.6c-0.5-0.6-1.5-0.5-2,0.2c-0.2,0.3-0.4,0.4-0.8,0.3c-0.3-0.1-0.5-0.2-0.7-0.3c-0.1-0.1-0.2-0.2-0.2-0.3
				c-0.1,0-0.2-0.1-0.4-0.2c-0.2-0.2-0.2-0.2-0.4-0.3c-0.1,0-0.1,0-0.1,0c0,0,0,0,0,0c-0.1,0-0.2-0.1-0.3-0.1c0.1,0-0.4,0-0.3,0
				c-0.1,0-0.2,0-0.3,0.1c-0.1,0-0.1,0-0.1,0c-0.3,0.1-0.5,0.1-0.8,0c-0.4,0.1-0.7,0.2-1,0.4c-1.2,0.8-1.3,2.7-0.2,3.8
				c1.1,1.1,3,1.5,4.6,0.9c0.5-0.2,1.1-0.5,1.6-0.7c0.7-0.3,1.3-0.5,2.1-0.1c1,0.5,2.2,0.9,3.1,1.8c-0.1,0.3-0.2,0.5-0.3,0.8
				c-0.2,0.5-0.1,0.9,0.3,1.2c0.8,0.6,1.5,1.1,2.3,1.6c0.5,0.3,1,0.3,1.4-0.1c0.1-0.1,0.3-0.1,0.4,0c0,0,0.1,0,0.1,0
				c0,0,0.1-0.1,0.1-0.1c0,0,0.2-0.2,0.2-0.2c0.1-0.1,0.2-0.2,0.3-0.3c0.1-0.1,0.2-0.2,0.3-0.3c0,0,0,0,0,0c0,0,0,0,0,0
				c0,0,0.1-0.1,0.1-0.1c0.1-0.2,0.3-0.4,0.4-0.6c0.1-0.2,0.2-0.5,0.4-0.7c0-0.1,0.1-0.1,0.1-0.2c0,0,0,0,0,0c0-0.1,0.1-0.2,0.1-0.3
				c0.2-0.5,0.4-1,0.5-1.5c0,0,0,0,0,0c-0.1-0.1-0.2-0.1-0.3-0.2C87.3,83.4,87.2,83.3,87.2,83.2z M72.9,82.1c-1.1,0.5-2.2,0-2.5-1.1
				c-0.1-0.4,0.1-0.7,0.5-0.8c0.3-0.1,0.7-0.1,1-0.2c0.2,0,0.3,0.1,0.4,0.3C72.6,80.9,72.8,81.5,72.9,82.1z M85.2,83.1
				c-0.8,1.2-1.4,2.4-1.9,3.8c-0.5-0.3-0.9-0.6-1.4-0.9c-0.4-0.3-0.4-0.6,0-0.8c0.2-0.1,0.4-0.3,0.7-0.2c0.1,0,0.2,0,0.3-0.1
				c0.1-0.3,0.5-0.5,0.3-0.9c0,0,0.1-0.1,0.1-0.2c0.3-0.2,0.3-0.5,0-0.6c-0.1-0.1-0.2-0.1-0.4-0.1c0.1-0.2,0.1-0.3,0.2-0.4
				c0.3-0.5,0.5-0.6,1-0.4c0.3,0.1,0.6,0.3,0.9,0.4C85.3,82.8,85.4,82.9,85.2,83.1z"/>
		</g>
		<g>
			<path class="st18" d="M28.8,84.6c-0.2,0.1-0.5,0.1-0.7,0l-16.4-1.5c-0.2,0-0.4-0.1-0.6-0.3c-0.2-0.2-0.3-0.4-0.3-0.6
				c-0.1-0.5,0-0.8,0.4-1.1l8.2-6c0-0.3,0.1-0.6,0.2-0.9c0.1-0.2,0.4-0.4,0.7-0.5c0.1,0,0.3,0,0.4,0c0.1,0,0.3,0,0.4,0l0.2,0l3.3-2
				l0.3-0.1c0.4-0.1,0.7,0,1,0.3c0.3,0.3,0.4,0.6,0.5,1c0,0.2,0.1,0.4,0.1,0.6c0,0.2-0.1,0.3-0.3,0.4l-4,2l1.8,5.3
				c0.1,0.3,0.2,0.5,0.4,0.6c0.2,0.1,0.4,0.2,0.8,0.3l3.2,0.5c0.2,0,0.5,0.1,0.7,0.3c0.2,0.2,0.3,0.4,0.4,0.6c0.1,0.2,0,0.4,0,0.7
				C29.2,84.4,29,84.5,28.8,84.6z M21.5,81.6c-0.2-0.7-0.4-1.5-0.6-2.3c-0.2-0.8-0.5-1.5-0.7-2.2l0,0l0,0c0,0-0.1,0-0.1,0.1
				c0,0-0.1,0-0.1,0.1L14.7,81l6.6,0.6L21.5,81.6z"/>
			<path class="st18" d="M19.7,61l0.3,0.1l4.8,1.1c0.2,0,0.4,0.2,0.5,0.3c0.1,0.2,0.2,0.4,0.3,0.6c0.1,0.2,0.1,0.4,0.1,0.7
				c0,0.2,0,0.4,0,0.6l0,0.1l-0.1,0c0,0-0.1,0-0.2,0c-0.3,0-0.6-0.1-0.8-0.1c-0.2,0-0.5-0.1-0.9-0.2l-0.9-0.2l-6.7-1.8
				c-0.1,0-0.2,0-0.5-0.1c-0.3-0.1-0.6-0.1-0.9-0.2c-0.3-0.1-0.7-0.2-1.1-0.4c-0.4-0.2-0.7-0.3-1-0.5c-0.3-0.2-0.5-0.4-0.7-0.6
				c-0.2-0.2-0.2-0.5-0.2-0.7c0-0.2,0.2-0.4,0.3-0.5c0.2-0.1,0.4-0.2,0.6-0.2c0.5,0,1.2,0,2,0c0.8,0,1.7-0.1,2.6-0.2
				c0.9-0.1,1.9-0.2,2.8-0.4c1-0.2,1.9-0.5,2.7-0.8c0.8-0.4,1.5-0.8,2.1-1.4s1-1.2,1.1-2c0.1-0.6,0.1-1.1,0-1.7
				c-0.1-0.5-0.4-1-0.7-1.5c-0.3-0.4-0.7-0.8-1.1-1.2c-0.4-0.3-0.9-0.6-1.5-0.8l-1.4-0.3c-2.1-0.4-4.1-0.6-6.1-0.6
				c-0.5,0-1,0.1-1.5,0.2c-0.6,0.1-1.1,0.1-1.5,0c-0.3-0.1-0.5-0.2-0.8-0.3c-0.2-0.2-0.3-0.4-0.3-0.7c0.1-0.3,0.2-0.5,0.5-0.7
				c0.3-0.2,0.6-0.3,1-0.4c0.4-0.1,0.8-0.1,1.1-0.1c0.4,0,0.7,0,0.9,0l5.6,0.4l1,0.2c0.9,0.2,1.8,0.5,2.7,0.9
				c0.9,0.4,1.7,0.9,2.3,1.6c0.7,0.6,1.2,1.4,1.5,2.3c0.3,0.9,0.4,1.9,0.2,3c-0.2,1-0.6,1.8-1.1,2.4s-1.2,1.2-1.9,1.6
				c-0.7,0.4-1.5,0.8-2.4,1.1c-0.8,0.3-1.6,0.6-2.4,1c-0.1,0-0.2,0.1-0.3,0.1C19.8,60.8,19.7,60.9,19.7,61L19.7,61z"/>
			<path class="st18" d="M30.6,46.1c-0.4,0.4-0.9,0.8-1.3,1.2c-0.4,0.4-0.9,0.6-1.4,0.9c-0.5,0.2-1,0.3-1.5,0.3
				c-0.5,0-1.1-0.2-1.7-0.5c-0.4-0.2-0.9-0.5-1.4-1c-0.5-0.4-0.9-0.9-1.3-1.5c-0.4-0.6-0.6-1.1-0.7-1.7c-0.1-0.6-0.1-1.2,0.2-1.8
				l1-1.9c0.1-0.1,0.2-0.2,0.3-0.3c0.1-0.1,0.2-0.2,0.2-0.2c0.1-0.1,0.1-0.2,0.2-0.3c0,0,0,0,0.1-0.1c0,0,0.1-0.1,0.1-0.1
				c1-0.5,1.9-0.5,2.7,0c0.8,0.4,1.3,0.8,1.5,1.4c0.2,0.6,0.4,1.2,0.3,1.9c0,0.7-0.2,1.3-0.4,2c-0.3,0.7-0.5,1.3-0.8,1.9
				c0.4,0.1,0.7,0.1,1-0.1c0.3-0.1,0.6-0.3,0.9-0.6c0.3-0.3,0.5-0.6,0.7-0.9c0.2-0.3,0.4-0.6,0.5-0.9c0.3-0.5,0.5-1.1,0.6-1.6
				c0.1-0.6,0.3-1.1,0.6-1.6c0.1-0.2,0.3-0.3,0.6-0.3c0.3,0,0.5,0.1,0.7,0.1c0.3,0.1,0.5,0.4,0.5,0.7c0,0.3,0,0.6,0,1
				c-0.1,0.3-0.2,0.7-0.3,1c-0.2,0.3-0.3,0.6-0.4,0.8c-0.1,0.2-0.2,0.4-0.3,0.6c-0.1,0.2-0.2,0.3-0.3,0.5c-0.1,0.2-0.2,0.3-0.3,0.5
				C30.9,45.6,30.7,45.8,30.6,46.1z M25,45.6c0.2-0.2,0.3-0.3,0.3-0.4c0.1-0.1,0.1-0.3,0.2-0.5c0.1-0.2,0.2-0.6,0.3-1
				c0.1-0.4,0.2-0.8,0.2-1.3c0-0.4,0-0.8-0.2-1.2c-0.1-0.4-0.3-0.6-0.6-0.8c-0.2-0.1-0.5-0.1-0.9,0c-0.4,0.1-0.6,0.3-0.7,0.6
				c-0.2,0.4-0.4,0.9-0.4,1.3c-0.1,0.4-0.1,0.9,0,1.3c0.1,0.4,0.3,0.8,0.5,1.1c0.3,0.3,0.6,0.6,1.1,0.8L25,45.6z"/>
			<path class="st18" d="M35.1,34.2c0.1,0.2,0.2,0.5,0.3,0.8c0.1,0.3,0.1,0.5,0.2,0.8c0,0.3,0,0.5-0.1,0.8c-0.1,0.2-0.2,0.5-0.4,0.7
				c-0.5,0.6-1.3,1-2.2,1.2c-0.9,0.2-1.8,0.2-2.8,0.1c-1-0.1-1.9-0.4-2.8-0.7c-0.9-0.3-1.6-0.8-2.1-1.2c-0.1-0.1-0.2-0.2-0.3-0.3
				c-0.1-0.1-0.2-0.2-0.2-0.3c-0.1-0.1-0.1-0.2-0.1-0.4c0-0.1,0-0.3,0.2-0.4c0.2-0.2,0.5-0.3,1-0.3c0.4,0.1,0.9,0.2,1.4,0.4
				c0.5,0.2,1.1,0.4,1.7,0.7c0.6,0.2,1.2,0.5,1.8,0.6c0.6,0.2,1.1,0.2,1.6,0.2c0.5,0,0.9-0.3,1.3-0.6c0.2-0.3,0.3-0.5,0.3-0.9
				c0-0.3-0.1-0.6-0.3-0.9c-0.2-0.3-0.4-0.6-0.6-0.8c-0.2-0.3-0.4-0.5-0.6-0.6c-0.2-0.2-0.5-0.4-0.7-0.6c-0.3-0.2-0.5-0.4-0.7-0.6
				c-0.2-0.2-0.3-0.4-0.2-0.7c0-0.3,0.1-0.5,0.3-0.7c0.2-0.2,0.4-0.2,0.8-0.2c0.4,0.1,0.8,0.2,1.2,0.4c0.5,0.2,1,0.4,1.5,0.7
				c0.5,0.2,1.1,0.4,1.6,0.5c0.6,0.1,1.1,0.1,1.6,0c0.5-0.1,1-0.4,1.4-0.9c0.3-0.3,0.4-0.7,0.5-1c0.1-0.4,0-0.7,0-1.1
				c-0.1-0.4-0.3-0.7-0.5-1c-0.2-0.3-0.5-0.6-0.7-0.8c-0.5-0.4-1.1-0.8-1.8-0.9c-0.7-0.2-1.4-0.4-2-0.5c-0.1,0-0.2-0.1-0.2-0.1
				c0,0-0.1-0.1-0.2-0.1c-0.2-0.2-0.4-0.4-0.4-0.7c0-0.2,0-0.5,0.2-0.7c0.3-0.4,0.7-0.5,1.2-0.5c0.5,0,1,0.2,1.5,0.4
				c0.5,0.2,1,0.5,1.5,0.8c0.5,0.3,0.8,0.6,1,0.8c0.5,0.4,0.9,0.9,1.2,1.4c0.3,0.5,0.6,1.1,0.7,1.7c0.1,0.6,0.2,1.2,0,1.8
				c-0.1,0.6-0.4,1.2-0.9,1.7c-0.4,0.5-0.9,0.8-1.5,1.1c-0.6,0.2-1.1,0.4-1.7,0.5c-0.5,0.1-1,0.2-1.4,0.2
				C35.5,34,35.2,34.1,35.1,34.2L35.1,34.2z"/>
			<path class="st18" d="M46.1,19.9l-3.5-9.9c-0.1-0.2,0-0.4,0.1-0.6C42.9,9.2,43,9.1,43.2,9c0.1,0,0.2-0.1,0.4-0.1
				c0.2,0,0.3-0.1,0.5-0.1c0.2,0,0.3,0,0.4,0.1c0.1,0,0.2,0.1,0.3,0.3l0.8,2l2,6l0.4,1c0,0.1,0.1,0.4,0.3,0.8
				c0.2,0.5,0.4,0.9,0.6,1.4c0.2,0.5,0.5,0.9,0.8,1.3c0.3,0.4,0.5,0.5,0.8,0.4l0.2-0.1l5.7-3.2l0.7-0.3c0.1-0.1,0.3,0,0.4,0.1
				c0.1,0.1,0.3,0.2,0.4,0.4c0.1,0.2,0.2,0.3,0.3,0.5c0.1,0.2,0.1,0.3,0.2,0.4c0.2,0.5,0,0.8-0.4,1.1L53,24
				c-0.2,0.1-0.4,0.2-0.6,0.3c-0.2,0.1-0.4,0.2-0.6,0.2c-0.7,0.3-1.3,0.3-1.9,0.2c-0.6-0.2-1.1-0.5-1.5-0.9
				c-0.5-0.4-0.8-0.9-1.2-1.5c-0.3-0.6-0.6-1.1-0.8-1.7L46.1,19.9z"/>
			<path class="st18" d="M62.2,21c-0.6-0.1-1.2-0.2-1.7-0.4c-0.6-0.1-1.1-0.4-1.5-0.6c-0.5-0.3-0.9-0.6-1.2-1
				c-0.3-0.4-0.5-1-0.7-1.6c-0.1-0.5-0.1-1,0-1.7c0.1-0.7,0.2-1.3,0.4-1.9c0.2-0.6,0.5-1.2,1-1.6c0.4-0.5,0.9-0.8,1.5-0.9l2.1-0.4
				c0.1,0,0.3,0,0.4,0c0.1,0,0.2,0,0.3,0c0.1,0,0.2,0,0.3,0c0,0,0.1,0,0.1,0c0.1,0,0.1,0,0.1,0c0.9,0.5,1.5,1.2,1.7,2.2
				c0.2,0.8,0.1,1.5-0.2,2.1c-0.3,0.5-0.8,1-1.3,1.4c-0.6,0.4-1.2,0.7-1.9,0.9c-0.7,0.2-1.4,0.4-2,0.5c0.1,0.4,0.4,0.6,0.7,0.8
				c0.3,0.2,0.6,0.3,1,0.3c0.4,0,0.7,0.1,1.1,0c0.4,0,0.7-0.1,1.1-0.1c0.6-0.1,1.1-0.3,1.7-0.5c0.5-0.2,1.1-0.4,1.7-0.5
				c0.2,0,0.4,0.1,0.6,0.3c0.2,0.2,0.2,0.4,0.3,0.6c0.1,0.3,0,0.6-0.2,0.8c-0.2,0.2-0.5,0.4-0.8,0.6c-0.3,0.1-0.7,0.3-1,0.3
				c-0.4,0.1-0.6,0.1-0.8,0.2c-0.2,0-0.4,0.1-0.6,0.1c-0.2,0-0.4,0.1-0.5,0.1c-0.2,0-0.4,0-0.6,0.1C62.7,20.9,62.5,21,62.2,21z
				 M59.2,16.3c0.2,0,0.4,0,0.5,0c0.1,0,0.3-0.1,0.5-0.1c0.3-0.1,0.6-0.2,1-0.3c0.4-0.2,0.8-0.4,1.1-0.6c0.4-0.2,0.6-0.5,0.9-0.9
				c0.2-0.3,0.3-0.6,0.2-1c0-0.3-0.2-0.5-0.5-0.7c-0.3-0.2-0.6-0.3-0.9-0.3c-0.5,0.1-0.9,0.2-1.3,0.4c-0.4,0.2-0.7,0.5-1,0.8
				c-0.3,0.3-0.5,0.7-0.6,1.1c-0.1,0.4-0.1,0.9,0,1.3L59.2,16.3z"/>
			<path class="st18" d="M75.3,17c-0.5,0.9-1.2,1.7-1.9,2.2c-0.7,0.5-1.7,0.8-2.8,0.7c-0.7,0-1.3-0.2-1.8-0.5
				c-0.5-0.3-1-0.7-1.3-1.2c-0.4-0.5-0.6-1-0.8-1.6c-0.2-0.6-0.2-1.2-0.2-1.8c0-0.7,0.1-1.3,0.4-1.9c0.2-0.6,0.5-1.1,0.9-1.6
				c0.4-0.5,0.9-0.8,1.5-1.1c0.6-0.3,1.2-0.4,1.9-0.3c0.8,0,1.4,0.2,2,0.4c0.6,0.3,1,0.6,1.5,1c0.4,0.4,0.8,0.9,1.1,1.4
				c0.3,0.5,0.6,1.1,0.8,1.7c0.3,0.6,0.5,1.2,0.7,1.7c0.2,0.6,0.5,1.1,0.7,1.6c0.1,0.2,0.2,0.3,0.4,0.5c0.1,0.1,0.3,0.3,0.4,0.4
				c0.1,0.1,0.3,0.3,0.4,0.4c0.1,0.2,0.1,0.3,0.1,0.5c0,0.4-0.2,0.7-0.5,0.8c-0.3,0.2-0.6,0.3-1,0.3c-0.1,0-0.3,0-0.5-0.1
				c-0.2,0-0.3-0.1-0.4-0.3L75.3,17L75.3,17z M68.5,15c0,0.3,0,0.7,0.1,1.1c0.1,0.4,0.2,0.7,0.3,1.1c0.2,0.3,0.4,0.6,0.7,0.8
				c0.3,0.2,0.6,0.3,1.1,0.4c0.4,0,0.8-0.1,1.2-0.2c0.4-0.2,0.8-0.4,1.1-0.7c0.3-0.3,0.6-0.6,0.9-0.9c0.3-0.4,0.4-0.7,0.5-1.1
				c0-0.5-0.1-0.9-0.2-1.4c-0.1-0.5-0.3-0.9-0.6-1.2c-0.2-0.4-0.6-0.7-1-0.9c-0.4-0.2-0.9-0.4-1.4-0.4c-0.5,0-0.9,0.1-1.3,0.3
				c-0.3,0.2-0.6,0.5-0.8,0.8c-0.2,0.3-0.4,0.7-0.5,1.1C68.5,14.2,68.5,14.6,68.5,15z"/>
			<path class="st18" d="M78.2,17.9c0-0.2,0.2-0.4,0.3-0.5c0.2-0.1,0.4-0.2,0.6-0.1c0.4,0.1,0.7,0.3,1,0.5c0.3,0.2,0.6,0.5,1,0.8
				c0.3,0.3,0.7,0.5,1,0.8c0.4,0.3,0.7,0.4,1.2,0.5c0.4,0.1,0.8,0.1,1.2-0.1c0.4-0.2,0.6-0.5,0.7-0.9c0.1-0.5,0.1-1-0.2-1.5
				c-0.3-0.5-0.7-0.8-1.2-0.9c-0.2-0.1-0.5-0.1-0.7-0.1c-0.2,0-0.5-0.1-0.7-0.1c-0.4-0.1-0.8-0.2-1.2-0.4c-0.4-0.2-0.7-0.4-1-0.7
				c-0.3-0.3-0.5-0.6-0.6-1c-0.1-0.4-0.1-0.8,0-1.2c0.1-0.3,0.2-0.6,0.4-0.8c0.2-0.2,0.4-0.4,0.7-0.6c0.3-0.2,0.6-0.3,0.9-0.3
				c0.3-0.1,0.6-0.1,1,0l0.8,0.2c0.3,0.1,0.6,0.2,1,0.3c0.4,0.1,0.8,0.3,1.2,0.5c0.4,0.2,0.7,0.5,1,0.8c0.3,0.3,0.3,0.7,0.2,1.1
				c-0.1,0.4-0.4,0.6-0.8,0.5L86,14.4c-0.2-0.1-0.3-0.2-0.6-0.3c-0.2-0.1-0.4-0.2-0.7-0.4c-0.2-0.1-0.5-0.3-0.7-0.4
				c-0.3-0.1-0.5-0.2-0.7-0.2c-0.1,0-0.2,0-0.4-0.1c-0.2,0-0.4,0-0.5,0c-0.2,0-0.3,0.1-0.5,0.1c-0.1,0.1-0.2,0.1-0.3,0.3
				c0,0.2,0,0.3,0.1,0.5c0.1,0.1,0.2,0.3,0.3,0.4c0.1,0.1,0.3,0.2,0.5,0.3c0.2,0.1,0.3,0.1,0.5,0.2c0.3,0.1,0.7,0.2,1,0.2
				c0.3,0.1,0.7,0.1,1,0.2c1,0.2,1.7,0.7,2.1,1.5c0.4,0.7,0.5,1.6,0.2,2.6c-0.2,1-0.7,1.7-1.4,2.2c-0.7,0.5-1.6,0.6-2.6,0.4
				c-0.3-0.1-0.8-0.3-1.4-0.5c-0.6-0.3-1.2-0.6-1.8-1c-0.6-0.4-1.1-0.8-1.5-1.2C78.3,18.6,78.2,18.2,78.2,17.9z"/>
			<path class="st18" d="M95.5,25.4c0.2-0.4,0.3-0.9,0.5-1.4c0.2-0.5,0.3-1,0.4-1.5c0.1-0.5,0.2-1,0.2-1.5c0-0.5,0-1-0.1-1.4
				c-0.1-0.4-0.3-0.9-0.7-1.2c-0.3-0.4-0.8-0.7-1.3-1c-0.3-0.2-0.6-0.2-0.9-0.2c-0.3,0-0.6,0.1-0.9,0.2c-0.3,0.1-0.5,0.3-0.8,0.5
				c-0.2,0.2-0.4,0.5-0.6,0.7c0,0.1-0.1,0.2-0.2,0.5c-0.1,0.2-0.2,0.4-0.4,0.7c-0.1,0.2-0.2,0.5-0.4,0.7c-0.1,0.2-0.2,0.4-0.2,0.5
				l0,0c-0.1,0.2-0.1,0.3-0.2,0.5c0,0.2-0.1,0.3-0.2,0.5c-0.1,0.2-0.2,0.3-0.3,0.5c-0.1,0.2-0.2,0.3-0.4,0.4
				c-0.1,0.1-0.3,0.2-0.4,0.3c-0.2,0.1-0.3,0-0.5-0.1c-0.2-0.1-0.3-0.2-0.4-0.4c-0.1-0.2-0.1-0.3-0.1-0.5c0-0.2,0-0.4,0-0.6
				c0-0.2,0.1-0.3,0.1-0.5L90,15c0-0.2,0.1-0.5,0.2-1c0.1-0.5,0.3-1,0.4-1.5c0.1-0.5,0.3-1,0.4-1.5c0.1-0.5,0.2-0.8,0.3-1
				c0.1-0.2,0.1-0.4,0.2-0.7c0.1-0.3,0.2-0.6,0.3-0.9c0.1-0.3,0.2-0.6,0.3-0.8c0.1-0.2,0.1-0.4,0.2-0.5l0.2-0.4
				c0.1-0.1,0.2-0.1,0.4-0.1c0.2,0.1,0.4,0.1,0.4,0.2c0.1,0.1,0.3,0.2,0.5,0.3c0.2,0.1,0.2,0.3,0.2,0.5l-2,6.4l-0.3,1.7
				c0.4-0.1,0.8-0.2,1.1-0.3c0.3-0.1,0.6-0.2,0.9-0.2c0.3,0,0.6,0,0.9,0c0.3,0.1,0.7,0.2,1.1,0.4c0.8,0.4,1.4,0.8,1.9,1.4
				c0.5,0.5,0.8,1.1,1,1.8c0.2,0.6,0.3,1.3,0.3,2c0,0.7-0.1,1.4-0.2,2.1c-0.1,0.7-0.3,1.4-0.6,2.1c-0.2,0.7-0.4,1.4-0.6,2l0,0.1
				c0,0.1-0.1,0.1-0.2,0.1c-0.1,0-0.3,0-0.4,0c-0.1,0-0.3,0-0.4-0.1c-0.1,0-0.2-0.1-0.3-0.1c-0.3-0.1-0.4-0.4-0.4-0.7
				C95.4,25.9,95.4,25.6,95.5,25.4z"/>
			<path class="st18" d="M106.3,31.6c0.7-1.5,1.4-2.8,2.2-4c0.8-1.2,1.7-2.4,2.8-3.6l0.1-0.1c0.2-0.1,0.3-0.2,0.5-0.1
				c0.1,0,0.3,0.2,0.4,0.3c0.1,0.2,0.3,0.4,0.3,0.6c0.1,0.2,0.2,0.4,0.3,0.6c0,0,0.1,0,0.2,0c0.1,0,0.2-0.1,0.2-0.1
				c0.1,0,0.2-0.1,0.2-0.1c0.1,0,0.1-0.1,0.2-0.1c0.5-0.2,1.1-0.3,1.6-0.5c0.6-0.1,1.2-0.2,1.8-0.3c0.6,0,1.2,0,1.7,0.2
				c0.6,0.1,1.1,0.4,1.5,0.8l0.5,0.6c0.8,0.9,1.2,1.9,1.2,2.9c0.1,1.1-0.1,2.1-0.5,3.1c-0.4,1-0.9,2-1.6,2.9
				c-0.7,0.9-1.4,1.7-2.1,2.3c-0.8,0.6-1.6,1.2-2.5,1.6c-0.9,0.4-1.8,0.7-2.8,0.8c-0.9,0.1-1.9,0-2.8-0.4c-0.9-0.3-1.7-0.9-2.5-1.8
				c-0.7-0.8-1.1-1.7-1.2-2.7C105.9,33.5,106,32.6,106.3,31.6z M110.6,29.2c-0.5,0.4-0.9,0.9-1.3,1.4c-0.4,0.5-0.7,1.1-0.9,1.6
				c-0.2,0.6-0.3,1.2-0.2,1.8c0.1,0.6,0.3,1.2,0.8,1.7c0.5,0.6,1.1,1,1.6,1.3c0.6,0.3,1.2,0.4,1.8,0.4c0.6,0,1.2-0.1,1.8-0.4
				c0.6-0.3,1.2-0.6,1.7-1.1c0.3-0.3,0.7-0.6,1-1c0.4-0.4,0.8-0.8,1.1-1.3c0.4-0.5,0.7-1,1-1.5c0.3-0.5,0.5-1,0.7-1.6
				c0.1-0.5,0.2-1,0.1-1.6c-0.1-0.5-0.3-1-0.6-1.4c-0.4-0.4-0.8-0.7-1.3-0.9c-0.5-0.2-1-0.2-1.5-0.2c-0.5,0-1.1,0.2-1.7,0.3
				c-0.6,0.2-1.1,0.4-1.6,0.7c-0.5,0.3-1,0.6-1.5,0.9C111.3,28.7,110.9,28.9,110.6,29.2z"/>
			<path class="st18" d="M112.6,42.6c0.5-0.3,0.9-0.7,1.4-1.2c0.4-0.4,0.9-0.9,1.3-1.3c0.4-0.5,0.9-0.9,1.4-1.3
				c0.5-0.4,0.9-0.7,1.4-1c0.3-0.1,0.5-0.2,0.8,0c0.3,0.1,0.5,0.3,0.6,0.6l0.1,0.1l-0.1,0.5l0.1,0.1c0.5,0.3,1,0.6,1.5,1
				c0.5,0.3,0.8,0.8,1.1,1.3l0.3,0.5c0.1,0.6,0.1,1.2,0,1.7c-0.2,0.6-0.4,1.1-0.7,1.6c-0.3,0.5-0.7,1-1.2,1.5
				c-0.5,0.5-1,0.9-1.5,1.3c-0.5,0.4-1,0.8-1.5,1.1c-0.5,0.3-0.9,0.6-1.3,0.8c-0.2,0.1-0.4,0.1-0.6,0c-0.2-0.1-0.3-0.2-0.4-0.4
				c-0.1-0.2-0.1-0.3-0.2-0.5c0-0.2,0-0.3,0.1-0.5c0.2-0.1,0.5-0.3,0.9-0.6c0.4-0.3,0.8-0.6,1.3-1c0.5-0.4,0.9-0.8,1.4-1.2
				c0.4-0.4,0.8-0.9,1.1-1.3c0.3-0.5,0.5-0.9,0.6-1.4c0.1-0.5,0.1-0.9-0.2-1.3c-0.2-0.4-0.5-0.7-0.9-0.9c-0.4-0.2-0.8-0.2-1.2,0
				l-0.3,0.1l-4.8,3.6c-0.1,0.1-0.2,0.1-0.3,0c-0.1,0-0.2-0.1-0.3-0.2c-0.1-0.1-0.2-0.2-0.3-0.3c-0.1-0.1-0.1-0.2-0.2-0.2
				c-0.1-0.3-0.1-0.5,0-0.8C112.3,42.9,112.5,42.7,112.6,42.6z"/>
			<path class="st18" d="M124.1,56.1l10.5-0.6c0.2,0,0.4,0.1,0.5,0.3c0.1,0.2,0.2,0.4,0.2,0.5c0,0.1,0,0.2,0,0.4
				c0,0.2,0,0.3-0.1,0.5c0,0.1-0.1,0.3-0.2,0.4c-0.1,0.1-0.2,0.2-0.3,0.2l-2.1,0.2l-6.3,0.2l-1,0.1c-0.1,0-0.4,0-0.9,0.1
				c-0.5,0-1,0.1-1.5,0.2c-0.5,0.1-1,0.2-1.4,0.4c-0.4,0.2-0.6,0.4-0.6,0.7l0,0.3l1.4,6.4l0.1,0.7c0,0.2,0,0.3-0.2,0.4
				c-0.1,0.1-0.3,0.2-0.5,0.2c-0.2,0.1-0.4,0.1-0.6,0.1c-0.2,0-0.3,0.1-0.4,0.1c-0.5,0.1-0.8-0.2-1-0.7l-1.7-5.6
				c-0.1-0.2-0.1-0.4-0.1-0.6c0-0.2,0-0.4-0.1-0.6c-0.1-0.7,0-1.4,0.4-1.9c0.3-0.5,0.8-0.9,1.3-1.2c0.5-0.3,1.1-0.5,1.8-0.7
				c0.7-0.2,1.3-0.3,1.9-0.3L124.1,56.1z"/>
			<path class="st18" d="M126.7,68.8l0.3,0c0.2,0,0.5,0.1,0.7,0.1c0.3,0.1,0.4,0.3,0.4,0.6c0,0.3-0.1,0.5-0.4,0.7
				c-0.2,0.1-0.5,0.2-0.7,0.2l-7,0.6l-0.9,0c-0.2,0-0.4-0.1-0.5-0.4c-0.1-0.2-0.1-0.4-0.1-0.6c0-0.3,0.2-0.6,0.5-0.7
				c0.3-0.2,0.6-0.2,0.9-0.2L126.7,68.8z M130.9,68.1c0.2,0,0.3,0.1,0.5,0.1c0.2,0.1,0.3,0.2,0.5,0.4c0.1,0.1,0.2,0.3,0.3,0.5
				c0.1,0.2,0.1,0.4,0.1,0.5c0,0.3-0.1,0.5-0.3,0.6c-0.2,0.1-0.4,0.2-0.6,0.2c-0.2,0-0.3,0-0.5-0.1c-0.2-0.1-0.3-0.2-0.5-0.3
				c-0.1-0.1-0.3-0.3-0.4-0.4c-0.1-0.2-0.1-0.3-0.1-0.5c0-0.3,0.1-0.5,0.3-0.7C130.5,68.2,130.7,68.1,130.9,68.1z"/>
			<path class="st18" d="M114.9,73.7c0-0.2,0.1-0.3,0.2-0.6c0.1-0.2,0.3-0.3,0.6-0.3l5.2,0.7c0-0.2,0-0.4,0.1-0.6
				c0-0.3,0.1-0.5,0.1-0.7c0.1-0.2,0.2-0.4,0.3-0.6c0.1-0.1,0.3-0.2,0.6-0.2c0.2,0,0.3,0.1,0.4,0.3c0.1,0.2,0.1,0.3,0.1,0.5
				l-0.1,1.6l7.7,0.9c0.3,0,0.7,0.1,1,0.3c0.4,0.1,0.7,0.3,0.9,0.6c0.3,0.2,0.5,0.5,0.6,0.8c0.2,0.3,0.2,0.6,0.2,1
				c0,0.3-0.2,0.7-0.4,1c-0.2,0.3-0.5,0.6-0.8,0.8c-0.3,0.2-0.6,0.4-1,0.5c-0.4,0.1-0.7,0.2-1,0.1c-0.1,0-0.2,0-0.3-0.1
				c-0.1-0.1-0.3-0.1-0.4-0.2c-0.1-0.1-0.2-0.2-0.3-0.3c-0.1-0.1-0.1-0.3-0.1-0.4c0-0.3,0.2-0.5,0.5-0.6c0.3-0.1,0.6-0.2,0.9-0.2
				c0.2,0,0.5-0.1,0.7-0.2c0.2-0.1,0.4-0.2,0.4-0.4c0-0.1,0-0.2-0.1-0.3c-0.1-0.1-0.2-0.1-0.4-0.2c-0.2-0.1-0.5-0.1-0.8-0.2
				c-0.4-0.1-0.8-0.1-1.4-0.1c-0.3,0-0.6-0.1-0.9-0.1c-0.3,0-0.6-0.1-0.9-0.1c-0.3,0-0.6-0.1-0.9-0.1c-0.3,0-0.6-0.1-0.9-0.1
				c-0.1,0-0.3,0-0.4-0.1c-0.1,0-0.2,0-0.3-0.1l-1.7-0.2l0,1c0,0.2-0.1,0.3-0.3,0.3c-0.2,0-0.4,0-0.5,0c-0.4-0.1-0.6-0.2-0.6-0.6
				c0-0.3-0.1-0.6,0-0.9l0-0.2l-5.3-0.8c-0.2,0-0.3-0.2-0.4-0.4C114.9,74,114.9,73.8,114.9,73.7z"/>
			<path class="st18" d="M116.8,81.2c0.4-0.5,0.8-0.9,1.1-1.4c0.4-0.4,0.8-0.8,1.3-1.1c0.5-0.3,0.9-0.5,1.5-0.5
				c0.5-0.1,1.1,0,1.8,0.2c0.4,0.1,1,0.4,1.5,0.8c0.6,0.4,1.1,0.8,1.5,1.3c0.4,0.5,0.8,1,1,1.6c0.2,0.6,0.2,1.2,0.1,1.8l-0.6,2.1
				c-0.1,0.1-0.1,0.2-0.2,0.3c-0.1,0.1-0.1,0.2-0.2,0.3c-0.1,0.1-0.1,0.2-0.2,0.3c0,0,0,0-0.1,0.1c0,0-0.1,0.1-0.1,0.1
				c-0.9,0.6-1.8,0.7-2.7,0.5c-0.8-0.3-1.4-0.7-1.7-1.2c-0.3-0.5-0.5-1.1-0.6-1.8c-0.1-0.7,0-1.4,0.1-2.1c0.1-0.7,0.3-1.4,0.5-2
				c-0.4,0-0.7,0-1,0.2c-0.3,0.2-0.5,0.4-0.8,0.7c-0.2,0.3-0.4,0.6-0.5,1c-0.2,0.4-0.3,0.7-0.4,1c-0.2,0.6-0.3,1.1-0.3,1.7
				c-0.1,0.6-0.2,1.1-0.3,1.7c-0.1,0.2-0.3,0.4-0.5,0.4c-0.3,0-0.5,0-0.7,0c-0.3-0.1-0.5-0.3-0.6-0.6c-0.1-0.3-0.1-0.6-0.1-1
				c0-0.4,0.1-0.7,0.2-1.1c0.1-0.4,0.2-0.6,0.2-0.8c0.1-0.2,0.1-0.4,0.2-0.6c0.1-0.2,0.1-0.3,0.2-0.5c0.1-0.2,0.1-0.4,0.2-0.6
				C116.5,81.7,116.6,81.5,116.8,81.2z M122.3,80.8c-0.1,0.2-0.2,0.3-0.3,0.5c0,0.1-0.1,0.3-0.2,0.5c-0.1,0.3-0.1,0.6-0.2,1
				c0,0.4,0,0.9,0,1.3c0.1,0.4,0.2,0.8,0.3,1.2c0.2,0.3,0.4,0.6,0.8,0.7c0.3,0.1,0.5,0,0.9-0.1c0.3-0.2,0.6-0.4,0.6-0.7
				c0.1-0.5,0.2-0.9,0.2-1.4c0-0.4-0.1-0.9-0.2-1.2c-0.1-0.4-0.4-0.7-0.7-1c-0.3-0.3-0.7-0.5-1.2-0.7L122.3,80.8z"/>
		</g>
		<g>
			<path class="st18" d="M33.6,107.1c-0.7,0.2-1.4,0.3-2,0.3c-0.6-0.1-1.2-0.4-1.8-0.9c-0.3-0.3-0.6-0.7-0.7-1.1
				c-0.1-0.4-0.2-0.8-0.2-1.2c0-0.4,0.1-0.8,0.3-1.2c0.2-0.4,0.4-0.7,0.7-1c0.3-0.3,0.7-0.6,1.1-0.8c0.4-0.2,0.8-0.3,1.2-0.4
				c0.4-0.1,0.8,0,1.2,0.1c0.4,0.1,0.8,0.4,1.2,0.7c0.4,0.4,0.7,0.7,0.8,1.1c0.2,0.4,0.3,0.8,0.3,1.2c0,0.4,0,0.8-0.1,1.2
				c-0.1,0.4-0.2,0.8-0.3,1.2c-0.1,0.4-0.3,0.8-0.4,1.2c-0.1,0.4-0.3,0.8-0.4,1.2c0,0.1,0,0.3,0,0.4c0,0.1,0,0.3,0.1,0.4
				c0,0.1,0,0.3,0,0.4c0,0.1-0.1,0.2-0.2,0.3c-0.2,0.2-0.4,0.3-0.6,0.2c-0.3,0-0.5-0.2-0.6-0.3c-0.1-0.1-0.1-0.1-0.2-0.2
				c-0.1-0.1-0.1-0.2-0.1-0.3L33.6,107.1L33.6,107.1z M31,102.9c-0.2,0.2-0.3,0.4-0.5,0.6c-0.1,0.2-0.3,0.5-0.3,0.7
				c-0.1,0.2-0.1,0.5,0,0.7c0,0.2,0.2,0.5,0.4,0.7c0.2,0.2,0.5,0.3,0.8,0.4c0.3,0.1,0.6,0.2,0.9,0.2c0.3,0,0.6,0,0.9-0.1
				c0.3-0.1,0.6-0.2,0.8-0.4c0.2-0.2,0.4-0.5,0.5-0.8c0.1-0.3,0.2-0.6,0.3-0.9c0-0.3,0-0.6-0.1-0.9c-0.1-0.3-0.3-0.6-0.6-0.9
				c-0.3-0.2-0.5-0.4-0.8-0.4c-0.3,0-0.5,0-0.8,0c-0.3,0.1-0.5,0.2-0.8,0.4C31.4,102.5,31.2,102.7,31,102.9z"/>
			<path class="st18" d="M36.4,111.2c0.2-0.4,0.3-0.7,0.4-1.1c0.1-0.4,0.3-0.8,0.4-1.2c0.1-0.4,0.3-0.8,0.4-1.2
				c0.2-0.4,0.3-0.7,0.6-1.1c0.1-0.2,0.3-0.3,0.5-0.3c0.2,0,0.4,0,0.6,0.1l0.1,0l0.1,0.4l0.1,0.1c0.4,0,0.8,0,1.2,0.1
				c0.4,0,0.8,0.2,1.1,0.4l0.3,0.2c0.3,0.3,0.4,0.7,0.5,1.1c0.1,0.4,0.1,0.8,0.1,1.2c0,0.4-0.1,0.9-0.2,1.3
				c-0.1,0.5-0.3,0.9-0.5,1.3c-0.2,0.4-0.4,0.8-0.6,1.2c-0.2,0.4-0.4,0.7-0.6,0.9c-0.1,0.1-0.2,0.2-0.3,0.2c-0.1,0-0.2-0.1-0.4-0.1
				c-0.1-0.1-0.2-0.2-0.3-0.3c-0.1-0.1-0.1-0.2-0.1-0.3c0.1-0.1,0.2-0.4,0.4-0.7c0.2-0.3,0.3-0.6,0.5-1c0.2-0.4,0.3-0.8,0.4-1.2
				c0.1-0.4,0.2-0.8,0.3-1.2c0-0.4,0-0.7-0.1-1.1c-0.1-0.3-0.3-0.6-0.5-0.8c-0.2-0.2-0.5-0.2-0.8-0.2c-0.3,0-0.6,0.1-0.7,0.4
				l-0.1,0.2l-1.8,3.7c0,0.1-0.1,0.1-0.2,0.1c-0.1,0-0.2,0-0.2,0c-0.1,0-0.2,0-0.3-0.1c-0.1,0-0.1-0.1-0.2-0.1
				c-0.2-0.1-0.3-0.3-0.3-0.5C36.3,111.6,36.3,111.4,36.4,111.2z"/>
			<path class="st18" d="M44.2,116.9c-0.3-0.3-0.6-0.6-0.8-0.9c-0.2-0.3-0.4-0.6-0.6-1c-0.1-0.3-0.2-0.7-0.2-1.1
				c0-0.4,0.1-0.8,0.3-1.2c0.1-0.3,0.4-0.6,0.7-0.9c0.3-0.3,0.7-0.6,1-0.9c0.4-0.2,0.8-0.4,1.2-0.5c0.4-0.1,0.8,0,1.2,0.2l1.3,0.7
				c0.1,0.1,0.1,0.1,0.2,0.2c0,0.1,0.1,0.1,0.2,0.2c0.1,0.1,0.1,0.1,0.2,0.1c0,0,0,0,0.1,0c0,0,0,0,0.1,0c0.3,0.7,0.3,1.3,0,1.9
				c-0.3,0.5-0.6,0.9-1,1c-0.4,0.2-0.8,0.2-1.3,0.2c-0.5,0-0.9-0.1-1.4-0.3c-0.5-0.2-0.9-0.4-1.3-0.6c-0.1,0.3-0.1,0.5,0,0.7
				c0.1,0.2,0.2,0.4,0.4,0.6c0.2,0.2,0.4,0.3,0.6,0.5c0.2,0.1,0.4,0.3,0.6,0.4c0.4,0.2,0.7,0.3,1.1,0.4c0.4,0.1,0.8,0.2,1.1,0.4
				c0.2,0.1,0.2,0.2,0.2,0.4c0,0.2-0.1,0.3-0.1,0.4c-0.1,0.2-0.3,0.3-0.5,0.4c-0.2,0-0.4,0-0.7,0c-0.2-0.1-0.5-0.1-0.7-0.2
				c-0.2-0.1-0.4-0.2-0.5-0.3c-0.1-0.1-0.3-0.1-0.4-0.2c-0.1-0.1-0.2-0.1-0.3-0.2c-0.1-0.1-0.2-0.1-0.3-0.2
				C44.5,117.1,44.4,117,44.2,116.9z M44.6,113.1c0.1,0.1,0.2,0.2,0.3,0.2c0.1,0,0.2,0.1,0.3,0.2c0.2,0.1,0.4,0.2,0.7,0.2
				c0.3,0.1,0.6,0.1,0.9,0.1c0.3,0,0.6,0,0.8-0.1c0.3-0.1,0.4-0.2,0.5-0.4c0.1-0.2,0.1-0.4,0-0.6c-0.1-0.2-0.2-0.4-0.4-0.5
				c-0.3-0.2-0.6-0.3-0.9-0.3c-0.3-0.1-0.6-0.1-0.9,0c-0.3,0.1-0.5,0.2-0.8,0.3c-0.2,0.2-0.4,0.4-0.6,0.7L44.6,113.1z"/>
			<path class="st18" d="M54.8,119.4c-0.1,0.1-0.3,0.3-0.4,0.4c-0.1,0.1-0.3,0.2-0.5,0.3c-0.2,0.1-0.3,0.1-0.5,0.2
				c-0.2,0-0.4,0-0.6-0.1c-0.5-0.2-1-0.5-1.4-1c-0.4-0.5-0.7-1.1-0.8-1.7c-0.2-0.6-0.3-1.3-0.3-1.9c0-0.7,0-1.2,0.2-1.7
				c0-0.1,0.1-0.2,0.1-0.2c0-0.1,0.1-0.2,0.1-0.2c0.1-0.1,0.1-0.1,0.2-0.2c0.1,0,0.2,0,0.3,0c0.2,0.1,0.4,0.2,0.4,0.5
				c0.1,0.3,0.1,0.6,0.2,1c0,0.4,0,0.8,0.1,1.3c0,0.5,0.1,0.9,0.1,1.3c0.1,0.4,0.2,0.8,0.3,1.1c0.2,0.3,0.4,0.5,0.8,0.6
				c0.2,0.1,0.4,0.1,0.6-0.1c0.2-0.1,0.3-0.2,0.5-0.4c0.1-0.2,0.3-0.4,0.4-0.6c0.1-0.2,0.2-0.4,0.2-0.5c0.1-0.2,0.1-0.4,0.2-0.6
				c0-0.2,0.1-0.4,0.2-0.6c0.1-0.2,0.2-0.3,0.4-0.3c0.2-0.1,0.4-0.1,0.5,0c0.2,0.1,0.3,0.2,0.3,0.4c0,0.2,0.1,0.5,0.1,0.9
				c0,0.4,0,0.7,0,1.1c0,0.4,0.1,0.8,0.1,1.2c0.1,0.4,0.2,0.7,0.4,1c0.2,0.3,0.5,0.5,1,0.6c0.3,0.1,0.5,0.1,0.8,0
				c0.2-0.1,0.5-0.2,0.7-0.3c0.2-0.2,0.4-0.4,0.5-0.6c0.1-0.2,0.2-0.5,0.3-0.7c0.1-0.4,0.2-0.9,0.1-1.4c-0.1-0.5-0.2-1-0.2-1.4
				c0-0.1,0-0.1,0-0.2c0,0,0-0.1,0-0.1c0.1-0.2,0.2-0.3,0.3-0.4c0.1-0.1,0.3-0.1,0.5,0c0.3,0.1,0.5,0.3,0.6,0.6
				c0.1,0.3,0.2,0.7,0.2,1.1c0,0.4,0,0.8-0.1,1.2c-0.1,0.4-0.1,0.7-0.2,0.9c-0.1,0.4-0.3,0.8-0.5,1.2c-0.2,0.4-0.5,0.7-0.8,0.9
				c-0.3,0.3-0.7,0.4-1.1,0.5c-0.4,0.1-0.8,0.1-1.3-0.1c-0.4-0.1-0.8-0.4-1.1-0.7c-0.3-0.3-0.6-0.6-0.8-0.9
				c-0.2-0.3-0.4-0.6-0.5-0.8C55.1,119.6,55,119.4,54.8,119.4L54.8,119.4z"/>
			<path class="st18" d="M63.2,113.2c0-0.1,0.1-0.3,0.1-0.4c0-0.1,0.1-0.3,0.2-0.4c0.1-0.1,0.2-0.2,0.3-0.3c0.1-0.1,0.3-0.1,0.4-0.1
				c0.2,0,0.3,0.1,0.4,0.3c0.1,0.2,0.1,0.4,0.2,0.6c0,0.2,0,0.5,0,0.8c0,0.3,0,0.6-0.1,0.9c0,0.3,0,0.6-0.1,0.8c0,0.3,0,0.5,0,0.6
				c0,0.1,0.1,0.3,0.1,0.6c0,0.3,0.1,0.5,0.1,0.8c0,0.3,0.1,0.6,0.1,0.8c0,0.3,0.1,0.4,0.1,0.5c0,0,0,0.1,0,0.2c0,0.1,0,0.2,0,0.2
				l-0.1,2.6l-0.2,1.1c0,0.1-0.1,0.3-0.3,0.4c-0.2,0.1-0.3,0.1-0.5,0.1c-0.2,0-0.3-0.3-0.5-0.7c-0.1-0.5-0.2-1-0.3-1.7
				c-0.1-0.7-0.1-1.5-0.2-2.3c0-0.8,0-1.6,0-2.4c0-0.7,0-1.4,0-2C63.1,113.8,63.1,113.4,63.2,113.2z"/>
			<path class="st18" d="M68.7,123.9c-0.4-0.2-0.8-0.3-1.1-0.5c-0.3-0.2-0.7-0.4-0.9-0.7c-0.3-0.3-0.5-0.6-0.6-0.9
				c-0.1-0.3-0.2-0.7-0.2-1.2c0-0.3,0.1-0.7,0.3-1.1c0.2-0.4,0.4-0.8,0.6-1.2c0.3-0.4,0.6-0.7,0.9-0.9c0.4-0.3,0.7-0.4,1.2-0.3
				l1.5,0.1c0.1,0,0.2,0.1,0.3,0.1c0.1,0,0.1,0.1,0.2,0.1c0.1,0,0.1,0,0.2,0.1c0,0,0,0,0.1,0c0,0,0.1,0,0.1,0
				c0.5,0.5,0.8,1.1,0.8,1.7c0,0.6-0.2,1-0.5,1.3c-0.3,0.3-0.7,0.5-1.1,0.7c-0.4,0.1-0.9,0.2-1.4,0.3s-1,0-1.4,0
				c0,0.3,0.1,0.5,0.3,0.6c0.2,0.2,0.4,0.3,0.6,0.4c0.2,0.1,0.5,0.2,0.7,0.2c0.3,0,0.5,0.1,0.7,0.1c0.4,0,0.8,0,1.2-0.1
				c0.4-0.1,0.8-0.1,1.2-0.1c0.2,0,0.3,0.1,0.4,0.3c0.1,0.2,0.1,0.3,0.1,0.5c0,0.2-0.1,0.4-0.3,0.5c-0.2,0.1-0.4,0.2-0.6,0.2
				c-0.2,0-0.5,0.1-0.7,0.1c-0.3,0-0.5,0-0.6,0c-0.2,0-0.3,0-0.4,0c-0.1,0-0.3,0-0.4,0c-0.1,0-0.3,0-0.4-0.1
				C69.1,123.9,68.9,123.9,68.7,123.9z M67.5,120.2c0.1,0.1,0.3,0.1,0.4,0.1c0.1,0,0.2,0,0.4,0c0.2,0,0.4,0,0.7-0.1
				c0.3,0,0.6-0.1,0.9-0.2c0.3-0.1,0.5-0.2,0.7-0.4c0.2-0.2,0.3-0.4,0.3-0.6c0-0.2-0.1-0.4-0.2-0.6c-0.2-0.2-0.3-0.3-0.5-0.3
				c-0.3,0-0.6,0-0.9,0.1c-0.3,0.1-0.6,0.2-0.8,0.4c-0.2,0.2-0.4,0.4-0.6,0.6c-0.1,0.3-0.2,0.6-0.3,0.9L67.5,120.2z"/>
			<path class="st18" d="M79.7,121.5c-0.3,0.7-0.7,1.2-1.1,1.7c-0.5,0.4-1.1,0.7-1.9,0.7c-0.5,0-0.9,0-1.3-0.2
				c-0.4-0.2-0.7-0.4-1-0.7c-0.3-0.3-0.5-0.6-0.7-1c-0.2-0.4-0.3-0.8-0.3-1.2c0-0.5,0-0.9,0.1-1.3c0.1-0.4,0.3-0.8,0.5-1.2
				c0.2-0.3,0.5-0.6,0.9-0.8c0.4-0.2,0.8-0.3,1.3-0.4c0.5,0,1,0,1.4,0.1c0.4,0.1,0.8,0.3,1.1,0.6c0.3,0.3,0.6,0.6,0.9,0.9
				c0.2,0.3,0.5,0.7,0.7,1.1c0.2,0.4,0.4,0.8,0.6,1.1c0.2,0.4,0.4,0.7,0.6,1c0.1,0.1,0.2,0.2,0.3,0.3c0.1,0.1,0.2,0.2,0.3,0.2
				c0.1,0.1,0.2,0.2,0.3,0.3c0.1,0.1,0.1,0.2,0.1,0.4c0,0.3-0.1,0.5-0.3,0.6c-0.2,0.2-0.4,0.2-0.6,0.3c-0.1,0-0.2,0-0.3,0
				c-0.1,0-0.2-0.1-0.3-0.2L79.7,121.5L79.7,121.5z M74.9,120.7c0,0.2,0.1,0.5,0.1,0.7c0.1,0.3,0.2,0.5,0.3,0.7
				c0.1,0.2,0.3,0.4,0.5,0.5c0.2,0.1,0.5,0.2,0.8,0.2c0.3,0,0.6-0.1,0.8-0.3c0.3-0.1,0.5-0.3,0.7-0.5c0.2-0.2,0.4-0.5,0.5-0.7
				c0.1-0.3,0.2-0.5,0.3-0.8c-0.1-0.3-0.1-0.6-0.3-0.9c-0.1-0.3-0.3-0.6-0.5-0.8c-0.2-0.2-0.4-0.4-0.7-0.6c-0.3-0.1-0.6-0.2-1-0.2
				c-0.3,0-0.6,0.1-0.8,0.3c-0.2,0.2-0.4,0.4-0.5,0.6c-0.1,0.2-0.2,0.5-0.2,0.8C74.9,120.1,74.9,120.4,74.9,120.7z"/>
			<path class="st18" d="M83.2,121.6c0-0.1,0-0.3,0-0.4c0.1-0.1,0.2-0.2,0.4-0.3c0.3-0.1,0.5-0.1,0.8,0c0.3,0.1,0.5,0.1,0.8,0.2
				c0.3,0.1,0.6,0.1,0.9,0.2c0.3,0,0.6,0,0.9,0c0.3-0.1,0.5-0.2,0.7-0.4c0.2-0.2,0.2-0.5,0.2-0.8c-0.1-0.4-0.3-0.7-0.6-0.9
				c-0.3-0.2-0.6-0.3-1-0.2c-0.2,0-0.3,0.1-0.5,0.1c-0.2,0-0.3,0.1-0.5,0.1c-0.3,0.1-0.6,0.1-0.8,0.1c-0.3,0-0.6,0-0.8-0.1
				c-0.3-0.1-0.5-0.2-0.7-0.4c-0.2-0.2-0.3-0.4-0.4-0.7c-0.1-0.2,0-0.4,0-0.6c0.1-0.2,0.1-0.4,0.3-0.6c0.1-0.2,0.3-0.3,0.5-0.5
				c0.2-0.1,0.4-0.2,0.6-0.3l0.6-0.1c0.2,0,0.4-0.1,0.7-0.1c0.3,0,0.6-0.1,0.9,0c0.3,0,0.6,0.1,0.8,0.2c0.2,0.1,0.4,0.3,0.5,0.6
				c0.1,0.3,0,0.4-0.3,0.5l-0.2,0c-0.1,0-0.3,0-0.4,0c-0.2,0-0.3,0-0.5,0c-0.2,0-0.4,0-0.6,0c-0.2,0-0.4,0-0.5,0.1
				c-0.1,0-0.2,0-0.3,0.1c-0.1,0-0.2,0.1-0.3,0.2c-0.1,0.1-0.2,0.1-0.3,0.2c-0.1,0.1-0.1,0.2-0.1,0.2c0,0.1,0.1,0.2,0.2,0.3
				c0.1,0.1,0.2,0.1,0.3,0.1c0.1,0,0.2,0,0.4,0c0.1,0,0.2,0,0.3,0c0.2-0.1,0.5-0.1,0.7-0.2c0.2-0.1,0.5-0.1,0.7-0.2
				c0.7-0.2,1.3-0.1,1.7,0.3c0.5,0.3,0.8,0.8,0.9,1.5c0.2,0.7,0.1,1.3-0.2,1.8c-0.3,0.5-0.8,0.9-1.5,1c-0.2,0-0.5,0.1-1,0.1
				s-0.9,0-1.4-0.1c-0.5-0.1-0.9-0.2-1.3-0.3C83.5,122,83.3,121.8,83.2,121.6z"/>
			<path class="st18" d="M97.5,118.4c-0.2-0.3-0.3-0.6-0.5-0.9c-0.2-0.3-0.3-0.6-0.5-0.9c-0.2-0.3-0.4-0.6-0.6-0.8
				c-0.2-0.3-0.5-0.5-0.8-0.6c-0.3-0.2-0.6-0.2-0.9-0.3c-0.3,0-0.7,0-1.1,0.2c-0.2,0.1-0.4,0.2-0.6,0.4c-0.1,0.2-0.2,0.3-0.3,0.5
				c-0.1,0.2-0.1,0.4-0.1,0.6c0,0.2,0,0.4,0.1,0.6c0,0.1,0.1,0.2,0.1,0.3c0.1,0.2,0.1,0.3,0.2,0.5c0.1,0.2,0.1,0.3,0.2,0.5
				c0.1,0.2,0.1,0.3,0.1,0.3l0,0c0,0.1,0.1,0.2,0.2,0.3c0.1,0.1,0.1,0.2,0.2,0.3c0,0.1,0.1,0.2,0.1,0.4c0,0.1,0.1,0.3,0,0.4
				c0,0.1,0,0.2-0.1,0.4c-0.1,0.1-0.1,0.2-0.3,0.2c-0.1,0-0.2,0-0.4,0c-0.1,0-0.2-0.1-0.3-0.2c-0.1-0.1-0.2-0.2-0.3-0.3
				c-0.1-0.1-0.1-0.2-0.2-0.3l-2-4c-0.1-0.1-0.2-0.3-0.4-0.6c-0.2-0.3-0.4-0.6-0.6-0.9c-0.2-0.3-0.4-0.6-0.5-0.9
				c-0.2-0.3-0.3-0.5-0.4-0.6c-0.1-0.1-0.1-0.2-0.2-0.4c-0.1-0.2-0.2-0.4-0.3-0.6c-0.1-0.2-0.2-0.4-0.3-0.5
				c-0.1-0.2-0.1-0.3-0.1-0.3l-0.1-0.3c0-0.1,0-0.2,0.2-0.2c0.1-0.1,0.2-0.1,0.3-0.1c0.1,0,0.2-0.1,0.4-0.1c0.1,0,0.2,0,0.3,0.1
				l2.2,4l0.7,1c0.1-0.2,0.3-0.5,0.4-0.7c0.1-0.2,0.2-0.4,0.3-0.5c0.1-0.2,0.3-0.3,0.4-0.4c0.2-0.1,0.4-0.3,0.7-0.4
				c0.6-0.2,1.1-0.3,1.6-0.3c0.5,0,0.9,0.2,1.3,0.4c0.4,0.2,0.8,0.5,1.1,0.8c0.3,0.3,0.6,0.7,0.9,1.1c0.3,0.4,0.6,0.8,0.8,1.3
				c0.2,0.4,0.5,0.9,0.7,1.3l0,0.1c0,0,0,0.1-0.1,0.2c-0.1,0.1-0.1,0.1-0.2,0.2c-0.1,0.1-0.2,0.1-0.2,0.2c-0.1,0.1-0.1,0.1-0.2,0.1
				c-0.2,0.1-0.4,0-0.5-0.1C97.7,118.7,97.6,118.5,97.5,118.4z"/>
			<path class="st18" d="M100.3,117.3c-0.1-0.2-0.1-0.5-0.1-0.7c0.1-0.3,0.2-0.5,0.4-0.6c0.2-0.1,0.3-0.1,0.5-0.1
				c0.2,0,0.3,0.1,0.4,0.3c0.1,0.2,0.1,0.5,0.1,0.7c-0.1,0.3-0.2,0.5-0.4,0.6c-0.2,0.1-0.3,0.1-0.5,0.1
				C100.5,117.5,100.4,117.4,100.3,117.3z"/>
			<path class="st18" d="M101.3,114c-0.3-0.4-0.4-0.8-0.5-1.3c-0.1-0.5-0.1-0.9-0.1-1.4c0.1-0.5,0.2-0.9,0.4-1.3
				c0.2-0.4,0.6-0.7,1-1c0.4-0.2,0.8-0.4,1.2-0.5c0.4-0.1,0.9-0.1,1.3-0.1c0.4,0,0.8,0.2,1.2,0.4c0.4,0.2,0.7,0.5,0.9,0.9
				c0.3,0.5,0.5,1,0.5,1.5c0.1,0.5,0,1.1-0.1,1.6c-0.1,0.5-0.4,1-0.7,1.5c-0.3,0.4-0.7,0.8-1.2,1.1c-0.4,0.2-0.8,0.4-1.2,0.4
				c-0.4,0-0.7,0-1.1-0.2c-0.3-0.1-0.7-0.3-1-0.6C101.8,114.6,101.5,114.3,101.3,114z M102.6,113.3c0.3,0.4,0.6,0.8,1,0.9
				c0.4,0.2,0.8,0.1,1.3-0.2c0.3-0.2,0.5-0.4,0.7-0.7c0.2-0.3,0.3-0.6,0.4-0.9c0.1-0.3,0.1-0.7,0.1-1c0-0.3-0.1-0.7-0.3-0.9
				c-0.2-0.3-0.4-0.4-0.6-0.5c-0.2-0.1-0.5-0.2-0.8-0.2c-0.3,0-0.6,0-0.8,0.1c-0.3,0.1-0.5,0.2-0.7,0.3c-0.4,0.2-0.6,0.5-0.7,0.7
				c-0.1,0.2-0.2,0.5-0.2,0.8c0,0.3,0.1,0.5,0.2,0.8C102.3,112.7,102.4,113,102.6,113.3z"/>
			<path class="st18" d="M110,111.2c-0.4-0.5-0.8-1.1-1.3-1.7c-0.4-0.6-0.8-1.1-1.2-1.7c-0.1-0.1-0.3-0.1-0.5-0.2
				c-0.2,0-0.3,0-0.5,0c-0.2,0-0.3,0-0.5,0c-0.2,0-0.3-0.1-0.4-0.2c-0.1-0.1-0.1-0.2-0.1-0.2c0-0.1,0-0.2,0.1-0.2
				c0.1-0.1,0.2-0.1,0.4-0.2c0.1,0,0.3-0.1,0.5-0.1c0.2,0,0.3,0,0.5,0c0.2,0,0.3,0,0.4,0.1c-0.1-0.4-0.1-0.8-0.1-1.1
				c0.1-0.3,0.3-0.6,0.6-0.9c0.1-0.1,0.3-0.2,0.6-0.3c0.3-0.1,0.5-0.1,0.8-0.2c0.3,0,0.6,0,0.8,0c0.3,0,0.4,0.1,0.6,0.3
				c0.1,0.2,0.2,0.4,0.1,0.6c-0.1,0.2-0.2,0.4-0.3,0.5c-0.1,0.1-0.3,0.2-0.4,0.1c-0.1,0-0.3,0-0.4-0.1c-0.1,0-0.3-0.1-0.4-0.1
				c-0.1,0-0.3,0-0.4,0.1c-0.1,0.1-0.2,0.2-0.2,0.3c0,0.1,0,0.3,0,0.4c0,0.2,0.1,0.3,0.1,0.4c0.1,0.1,0.1,0.3,0.2,0.3l2.4,3.4
				c0.1,0.1,0,0.2-0.1,0.3c-0.1,0.1-0.2,0.2-0.2,0.3c-0.1,0.1-0.2,0.1-0.4,0.2c-0.2,0-0.3,0-0.4,0L110,111.2z"/>
			<path class="st18" d="M117.4,111c-0.1-0.1-0.1-0.2,0-0.4c0.1-0.1,0.2-0.3,0.3-0.3c0.2-0.2,0.5-0.4,0.8-0.6
				c0.3-0.2,0.6-0.4,0.8-0.5c0.3-0.2,0.6-0.3,0.8-0.5c0.3-0.2,0.5-0.4,0.8-0.6c0.4-0.4,0.6-0.7,0.7-1c0.1-0.3,0.1-0.6,0-0.9
				c-0.1-0.3-0.2-0.6-0.5-0.9c-0.2-0.3-0.5-0.6-0.8-0.9c-0.3-0.3-0.6-0.5-0.9-0.8c-0.3-0.2-0.6-0.5-0.9-0.8l0,0.1
				c0,0.6-0.1,1.1-0.2,1.6c-0.2,0.5-0.4,0.9-0.9,1.4c-0.4,0.4-0.8,0.6-1.2,0.8c-0.4,0.1-0.9,0.2-1.4,0.1s-0.9-0.2-1.3-0.4
				c-0.4-0.2-0.8-0.5-1.1-0.8c-0.3-0.3-0.5-0.6-0.6-1c-0.1-0.4-0.2-0.8-0.1-1.2c0-0.4,0.1-0.8,0.3-1.2c0.2-0.4,0.4-0.7,0.7-1
				c0.3-0.3,0.7-0.5,1.1-0.7c0.5-0.2,1-0.3,1.5-0.3c0.5-0.1,1,0,1.5,0c0.5,0.1,0.9,0.2,1.2,0.5c0.6,0.6,1.3,1.3,1.9,1.8
				c0.7,0.6,1.3,1.2,1.9,1.8c0.4,0.4,0.6,0.7,0.8,1.2c0.2,0.4,0.2,0.8,0.2,1.2c0,0.4-0.1,0.8-0.3,1.2c-0.2,0.4-0.5,0.8-0.9,1.2
				c-0.2,0.2-0.4,0.4-0.8,0.7c-0.4,0.3-0.8,0.6-1.2,0.9c-0.4,0.3-0.8,0.5-1.2,0.6C117.8,111.2,117.5,111.2,117.4,111z M113.2,104.5
				c0.2,0.2,0.5,0.4,0.8,0.6c0.3,0.2,0.6,0.3,0.9,0.4c0.3,0.1,0.6,0.1,0.9,0c0.3-0.1,0.6-0.2,0.8-0.5c0.2-0.2,0.3-0.4,0.5-0.7
				c0.1-0.3,0.2-0.6,0.3-0.9c0-0.3,0-0.6,0-0.9c-0.1-0.3-0.2-0.5-0.4-0.7c-0.2-0.2-0.5-0.3-0.8-0.4c-0.3-0.1-0.7-0.1-1.1-0.1
				c-0.4,0-0.7,0.1-1.1,0.2c-0.3,0.1-0.6,0.3-0.8,0.5c-0.4,0.4-0.6,0.9-0.6,1.4C112.6,103.6,112.8,104.1,113.2,104.5z"/>
		</g>
	</g>
</g>
<g id="Guides" class="st19">
</g>
<g id="_x32_4_Grid_Col_1_" class="st19">
</g>
</svg>
