<?xml version="1.0" encoding="UTF-8"?>
<svg xmlns:inkscape="http://www.inkscape.org/namespaces/inkscape" width="384pt" version="1.1" xmlns="http://www.w3.org/2000/svg" xmlns:xlink="http://www.w3.org/1999/xlink" height="212pt" viewBox="0 0 384 212">
 <title>decarbox3.eps</title>
 <defs/>
 <g inkscape:label="Background" id="Background" inkscape:groupmode="layer">
  <path transform="translate(217.2, 124.5)" style="fill:#000000; fill-rule:nonzero;stroke:none;" d="M1.6 30 L0 30.9 L0 0 L1.6 0.9 "/>
  <path transform="translate(221.1, 127.2)" style="fill:#000000; fill-rule:nonzero;stroke:none;" d="M0 25.5 L1.6 25.5 L1.6 0 L0 0 L0 25.5 Z"/>
  <path transform="translate(217.2, 154.5)" style="fill:#000000; fill-rule:nonzero;stroke:none;" d="M26.8 14.55 L26.8 16.35 L0 0.9 L1.6 0 "/>
  <path transform="translate(244, 154.5)" style="fill:#000000; fill-rule:nonzero;stroke:none;" d="M25.2 0 L25.95 0.45 L26.05 1.3 L0 16.35 L0 14.55 "/>
  <path transform="translate(243.6, 152)" style="fill:#000000; fill-rule:nonzero;stroke:none;" d="M22.05 0 L22.85 1.35 L0.75 14.1 L0 12.75 "/>
  <path transform="translate(269.2, 124.95)" style="fill:#000000; fill-rule:nonzero;stroke:none;" d="M0 0.45 L0.75 0 L1.55 0.55 L1.55 29.45 L0.75 30 L0 29.55 "/>
  <path transform="translate(244, 109.05)" style="fill:#000000; fill-rule:nonzero;stroke:none;" d="M0 1.8 L0 0 L26.05 15.05 L25.95 15.9 L25.2 16.35 "/>
  <path transform="translate(243.6, 113.75)" style="fill:#000000; fill-rule:nonzero;stroke:none;" d="M0 1.35 L0.75 0 L22.85 12.75 L22.05 14.1 "/>
  <path transform="translate(217.2, 109.05)" style="fill:#000000; fill-rule:nonzero;stroke:none;" d="M1.6 16.35 L0 15.45 L26.8 0 L26.8 1.8 "/>
  <g id="Group1" transform="translate(296.416, 160.8) scale(1, 1)" style="fill:none; stroke:none">
   <path transform="translate(0, 0)" style="fill:#000000; fill-rule:nonzero;stroke:none;" d="M5.6875 0 L4.8125 0 L4.8125 5.71875 L1 0 L0 0 L0 7 L0.875 7 L0.875 1.32812 L4.64062 7 L5.6875 7 L5.6875 0 Z"/>
   <path transform="translate(0.0625, 8.3418)" style="fill:#000000; fill-rule:nonzero;stroke:none;" d="M4.6875 3.90625 L4.6875 7 L5.60938 7 L5.60938 0 L4.6875 0 L4.6875 3.09375 L0.9375 3.09375 L0.9375 0 L0 0 L0 7 L0.9375 7 L0.9375 3.90625 L4.6875 3.90625 Z"/>
  </g>
  <path transform="translate(269.95, 154.4)" style="fill:#000000; fill-rule:nonzero;stroke:none;" d="M23.35 7.3 L22.9 8.8 L0.1 1.4 L0 0.55 L0.8 0 "/>
  <path transform="translate(302.1, 139.95)" style="fill:#000000; fill-rule:nonzero;stroke:none;" d="M13.05 0 L15 0 L1.25 18.9 L0 18 "/>
  <path transform="translate(298.2, 115.65)" style="fill:#000000; fill-rule:nonzero;stroke:none;" d="M0 0.95 L0.3 0 L1.8 0.8 L18.9 24.3 L16.95 24.3 "/>
  <path transform="translate(296.35, 119.8)" style="fill:#000000; fill-rule:nonzero;stroke:none;" d="M0 0.9 L1.3 0 L15.6 19.7 L14.35 20.6 "/>
  <path transform="translate(269.95, 115.3)" style="fill:#000000; fill-rule:nonzero;stroke:none;" d="M0.8 10.2 L0 9.65 L0.1 8.8 L27.1 0 L28.55 0.35 L28.25 1.3 "/>
  <g id="Group2" transform="translate(325.375, 39.85) scale(1, 1)" style="fill:none; stroke:none">
   <path transform="translate(21.2, 51.2)" style="fill:#000000; fill-rule:nonzero;stroke:none;" d="M3.51562 0 C1.42188 0 0 1.40625 0 3.5 C0 5.59375 1.42188 7 3.53125 7 C4.42188 7 5.1875 6.75 5.78125 6.28125 C6.57812 5.6875 7.04688 4.64062 7.04688 3.54688 C7.04688 1.40625 5.65625 0 3.51562 0 Z M3.51562 0.8125 C5.09375 0.8125 6.10938 1.875 6.10938 3.53125 C6.10938 5.09375 5.0625 6.17188 3.53125 6.17188 C1.96875 6.17188 0.9375 5.09375 0.9375 3.48438 C0.9375 1.89062 1.96875 0.8125 3.51562 0.8125 Z"/>
   <path transform="translate(22.3031, 21.2)" style="fill:#000000; fill-rule:nonzero;stroke:none;" d="M4.6875 3.90625 L4.6875 7 L5.60938 7 L5.60938 0 L4.6875 0 L4.6875 3.09375 L0.9375 3.09375 L0.9375 0 L0 0 L0 7 L0.9375 7 L0.9375 3.90625 L4.6875 3.90625 Z"/>
   <path transform="translate(0, 0)" style="fill:#000000; fill-rule:nonzero;stroke:none;" d="M3.51562 0 C1.42188 0 0 1.40625 0 3.5 C0 5.59375 1.42188 7 3.53125 7 C4.42188 7 5.1875 6.75 5.78125 6.28125 C6.57812 5.6875 7.04688 4.64062 7.04688 3.54688 C7.04688 1.40625 5.65625 0 3.51562 0 Z M3.51562 0.8125 C5.09375 0.8125 6.10938 1.875 6.10938 3.53125 C6.10938 5.09375 5.0625 6.17188 3.53125 6.17188 C1.96875 6.17188 0.9375 5.09375 0.9375 3.48438 C0.9375 1.89062 1.96875 0.8125 3.51562 0.8125 Z"/>
  </g>
  <g id="Group3" transform="translate(274.175, 39.85) scale(1, 1)" style="fill:none; stroke:none">
   <path transform="translate(22.3031, 0)" style="fill:#0000ff; fill-rule:nonzero;stroke:none;" d="M4.6875 3.90625 L4.6875 7 L5.60938 7 L5.60938 0 L4.6875 0 L4.6875 3.09375 L0.9375 3.09375 L0.9375 0 L0 0 L0 7 L0.9375 7 L0.9375 3.90625 L4.6875 3.90625 Z"/>
   <path transform="translate(0, 21.2)" style="fill:#0000ff; fill-rule:nonzero;stroke:none;" d="M3.51562 0 C1.42188 0 0 1.40625 0 3.5 C0 5.59375 1.42188 7 3.53125 7 C4.42188 7 5.1875 6.75 5.78125 6.28125 C6.57812 5.6875 7.04688 4.64062 7.04688 3.54688 C7.04688 1.40625 5.65625 0 3.51562 0 Z M3.51562 0.8125 C5.09375 0.8125 6.10938 1.875 6.10938 3.53125 C6.10938 5.09375 5.0625 6.17188 3.53125 6.17188 C1.96875 6.17188 0.9375 5.09375 0.9375 3.48438 C0.9375 1.89062 1.96875 0.8125 3.51562 0.8125 Z"/>
   <path transform="translate(1.10313, 51.2)" style="fill:#0000ff; fill-rule:nonzero;stroke:none;" d="M4.6875 3.90625 L4.6875 7 L5.60938 7 L5.60938 0 L4.6875 0 L4.6875 3.09375 L0.9375 3.09375 L0.9375 0 L0 0 L0 7 L0.9375 7 L0.9375 3.90625 L4.6875 3.90625 Z"/>
  </g>
  <path transform="translate(298.5, 114.9)" style="fill:#000000; fill-rule:nonzero;stroke:none;" d="M29.65 0 L30 0.75 L29.55 1.55 L1.5 1.55 L0 0.75 L0.3 0 "/>
  <path transform="translate(328.15, 98.5)" style="fill:#000000; fill-rule:nonzero;stroke:none;" d="M16.45 0 L17.55 1.1 L1.3 17.3 L0.35 17.15 L0 16.4 "/>
  <path transform="translate(348.95, 70)" style="fill:#000000; fill-rule:nonzero;stroke:none;" d="M0 0 L1.55 0 L1.55 4.25 L0 4.95 "/>
  <path transform="translate(348.95, 80.35)" style="fill:#000000; fill-rule:nonzero;stroke:none;" d="M1.55 8.25 L0 8.25 L0 0.7 L1.55 0 "/>
  <path transform="translate(333.3, 48.05)" style="fill:#000000; fill-rule:nonzero;stroke:none;" d="M0 1.1 L1.1 0 L3.35 2.25 L2.25 3.35 "/>
  <path transform="translate(337.85, 52.6)" style="fill:#000000; fill-rule:nonzero;stroke:none;" d="M0 1.1 L1.1 0 L3.35 2.25 L2.25 3.35 "/>
  <path transform="translate(342.4, 57.15)" style="fill:#000000; fill-rule:nonzero;stroke:none;" d="M0 1.1 L1.1 0 L3.35 2.25 L2.25 3.35 "/>
  <path transform="translate(304.85, 42.45)" style="fill:#000000; fill-rule:nonzero;stroke:none;" d="M0 1.6 L18.15 1.6 L18.15 0 L0 0 L0 1.6 Z"/>
  <path transform="translate(282.2, 56.2)" style="fill:#0000ff; fill-rule:nonzero;stroke:none;" d="M1.1 3.35 L0 2.25 L2.25 0 L3.35 1.1 "/>
  <path transform="translate(286.65, 51.75)" style="fill:#0000ff; fill-rule:nonzero;stroke:none;" d="M1.1 3.3 L0 2.2 L2.25 0 L3.35 1.1 "/>
  <path transform="translate(291.15, 47.25)" style="fill:#0000ff; fill-rule:nonzero;stroke:none;" d="M1.1 3.35 L0 2.25 L2.25 0 L3.35 1.1 "/>
  <path transform="translate(276.5, 70.2)" style="fill:#0000ff; fill-rule:nonzero;stroke:none;" d="M0 18.75 L1.55 18.75 L1.55 0 L0 0 L0 18.75 Z"/>
  <path transform="translate(294.9, 112.1)" style="fill:#000000; fill-rule:nonzero;stroke:none;" d="M3.9 2.8 L2.15 3.2 L0 1.1 L1.1 0 "/>
  <path transform="translate(290.6, 107.8)" style="fill:#000000; fill-rule:nonzero;stroke:none;" d="M3.25 2.15 L2.15 3.25 L0 1.1 L1.1 0 "/>
  <path transform="translate(286.3, 103.5)" style="fill:#000000; fill-rule:nonzero;stroke:none;" d="M3.25 2.15 L2.15 3.25 L0 1.1 L1.1 0 "/>
  <path transform="translate(282, 99.2)" style="fill:#000000; fill-rule:nonzero;stroke:none;" d="M3.25 2.15 L2.15 3.25 L0 1.1 L1.1 0 "/>
  <path transform="translate(340.375, 138.25)" style="fill:#000000; fill-rule:nonzero;stroke:none;" d="M3.51562 0 C1.42188 0 0 1.40625 0 3.5 C0 5.59375 1.42188 7 3.53125 7 C4.42188 7 5.1875 6.75 5.78125 6.28125 C6.57812 5.6875 7.04688 4.64062 7.04688 3.54688 C7.04688 1.40625 5.65625 0 3.51562 0 Z M3.51562 0.8125 C5.09375 0.8125 6.10938 1.875 6.10938 3.53125 C6.10938 5.09375 5.0625 6.17188 3.53125 6.17188 C1.96875 6.17188 0.9375 5.09375 0.9375 3.48438 C0.9375 1.89062 1.96875 0.8125 3.51562 0.8125 Z"/>
  <path transform="translate(328.05, 115.65)" style="fill:#000000; fill-rule:nonzero;stroke:none;" d="M12.6 19.55 L11.25 20.3 L0 0.8 L0.45 0 L1.4 0.15 "/>
  <path transform="translate(332.7, 115.9)" style="fill:#000000; fill-rule:nonzero;stroke:none;" d="M11.35 17.35 L10 18.1 L0 0.8 L1.35 0 "/>
  <path transform="translate(254.028, 39.85)" style="fill:#0000ff; fill-rule:nonzero;stroke:none;" d="M4.6875 3.90625 L4.6875 7 L5.60938 7 L5.60938 0 L4.6875 0 L4.6875 3.09375 L0.9375 3.09375 L0.9375 0 L0 0 L0 7 L0.9375 7 L0.9375 3.90625 L4.6875 3.90625 Z"/>
  <path transform="translate(259.25, 46.4)" style="fill:#000000; fill-rule:nonzero;stroke:none;" d="M0 4.25 L4.25 0 L5.15 1.3 L1.25 5.2 "/>
  <path transform="translate(261.45, 48.65)" style="fill:#000000; fill-rule:nonzero;stroke:none;" d="M0 3.7 L3.7 0 L4.65 1.25 L1.3 4.6 "/>
  <path transform="translate(263.7, 50.9)" style="fill:#000000; fill-rule:nonzero;stroke:none;" d="M0 3.1 L3.1 0 L4.05 1.25 L1.25 4.05 "/>
  <path transform="translate(265.95, 53.1)" style="fill:#000000; fill-rule:nonzero;stroke:none;" d="M0 2.55 L2.55 0 L3.5 1.3 L1.25 3.5 "/>
  <path transform="translate(268.2, 55.35)" style="fill:#000000; fill-rule:nonzero;stroke:none;" d="M0 2 L1.95 0 L2.9 1.25 L1.25 2.95 "/>
  <path transform="translate(270.4, 57.6)" style="fill:#000000; fill-rule:nonzero;stroke:none;" d="M0 1.4 L1.45 0 L2.35 1.25 L1.25 2.35 "/>
  <path transform="translate(341.478, 13.85)" style="fill:#000000; fill-rule:nonzero;stroke:none;" d="M4.6875 3.90625 L4.6875 7 L5.60938 7 L5.60938 0 L4.6875 0 L4.6875 3.09375 L0.9375 3.09375 L0.9375 0 L0 0 L0 7 L0.9375 7 L0.9375 3.90625 L4.6875 3.90625 Z"/>
  <path transform="translate(331.55, 22.4)" style="fill:#000000; fill-rule:nonzero;stroke:none;" d="M8.05 0 L9.4 0.8 L1.35 14.8 L0 14 "/>
  <path transform="translate(240.491, 194.184)" style="fill:#000000; fill-rule:nonzero;stroke:none;" d="M8.14062 8.32812 L7.70312 8.32812 C7.20312 9.5625 7 9.67188 5.1875 9.67188 L2.53125 9.67188 L5.39062 6.98438 C6.75 5.6875 7.39062 4.51562 7.39062 3.1875 C7.39062 1.3125 6.03125 0 4.125 0 C3.25 0 2.42188 0.328125 1.78125 0.984375 C1.10938 1.67188 0.75 2.25 0.25 3.57812 L0.75 3.57812 C1.29688 2.5 1.95312 2.01562 2.89062 2.01562 C3.67188 2.01562 4.25 2.32812 4.625 2.96875 C4.85938 3.34375 4.98438 3.8125 4.98438 4.20312 C4.98438 5 4.67188 5.9375 4.09375 6.79688 C3.1875 8.17188 2.5625 8.89062 0 11.625 L0 12.0156 L7.32812 12.0156 L8.14062 8.32812 Z"/>
  <path transform="translate(24.2, 133.7)" style="fill:#000000; fill-rule:nonzero;stroke:none;" d="M1.6 30 L0 30.9 L0 0 L1.6 0.9 "/>
  <path transform="translate(28.1, 136.4)" style="fill:#000000; fill-rule:nonzero;stroke:none;" d="M0 25.5 L1.6 25.5 L1.6 0 L0 0 L0 25.5 Z"/>
  <path transform="translate(24.2, 163.7)" style="fill:#000000; fill-rule:nonzero;stroke:none;" d="M26.8 14.55 L26.8 16.35 L0 0.9 L1.6 0 "/>
  <path transform="translate(51, 163.7)" style="fill:#000000; fill-rule:nonzero;stroke:none;" d="M25.2 0 L25.95 0.45 L26.05 1.3 L0 16.35 L0 14.55 "/>
  <path transform="translate(50.6, 161.25)" style="fill:#000000; fill-rule:nonzero;stroke:none;" d="M22.05 0 L22.85 1.35 L0.75 14.1 L0 12.75 "/>
  <path transform="translate(76.2, 134.15)" style="fill:#000000; fill-rule:nonzero;stroke:none;" d="M0 0.45 L0.75 0 L1.55 0.6 L1.55 29.45 L0.75 30 L0 29.55 "/>
  <path transform="translate(51, 118.25)" style="fill:#000000; fill-rule:nonzero;stroke:none;" d="M0 1.8 L0 0 L26.05 15.05 L25.95 15.9 L25.2 16.35 "/>
  <path transform="translate(50.6, 123)" style="fill:#000000; fill-rule:nonzero;stroke:none;" d="M0 1.35 L0.75 0 L22.85 12.75 L22.05 14.1 "/>
  <path transform="translate(24.2, 118.25)" style="fill:#000000; fill-rule:nonzero;stroke:none;" d="M1.6 16.35 L0 15.45 L26.8 0 L26.8 1.8 "/>
  <g id="Group4" transform="translate(103.416, 170) scale(1, 1)" style="fill:none; stroke:none">
   <path transform="translate(0, 0)" style="fill:#000000; fill-rule:nonzero;stroke:none;" d="M5.6875 0 L4.8125 0 L4.8125 5.71875 L1 0 L0 0 L0 7 L0.875 7 L0.875 1.32812 L4.64062 7 L5.6875 7 L5.6875 0 Z"/>
   <path transform="translate(0.0625, 8.3418)" style="fill:#000000; fill-rule:nonzero;stroke:none;" d="M4.6875 3.90625 L4.6875 7 L5.60938 7 L5.60938 0 L4.6875 0 L4.6875 3.09375 L0.9375 3.09375 L0.9375 0 L0 0 L0 7 L0.9375 7 L0.9375 3.90625 L4.6875 3.90625 Z"/>
  </g>
  <path transform="translate(76.95, 163.6)" style="fill:#000000; fill-rule:nonzero;stroke:none;" d="M23.35 7.35 L22.9 8.8 L0.1 1.4 L0 0.55 L0.8 0 "/>
  <path transform="translate(109.1, 149.15)" style="fill:#000000; fill-rule:nonzero;stroke:none;" d="M13.05 0 L15 0 L1.25 18.9 L0 18 "/>
  <path transform="translate(105.2, 124.9)" style="fill:#000000; fill-rule:nonzero;stroke:none;" d="M0 0.9 L0.3 0 L1.8 0.75 L18.9 24.25 L16.95 24.25 "/>
  <path transform="translate(103.35, 129)" style="fill:#000000; fill-rule:nonzero;stroke:none;" d="M0 0.95 L1.3 0 L15.6 19.7 L14.35 20.6 "/>
  <path transform="translate(76.95, 124.65)" style="fill:#000000; fill-rule:nonzero;stroke:none;" d="M0.8 10.1 L0 9.5 L0.1 8.65 L26.75 0 L28.55 0.25 L28.25 1.15 "/>
  <path transform="translate(165.078, 72.8)" style="fill:#ff0000; fill-rule:nonzero;stroke:none;" d="M4.6875 3.90625 L4.6875 7 L5.60938 7 L5.60938 0 L4.6875 0 L4.6875 3.09375 L0.9375 3.09375 L0.9375 0 L0 0 L0 7 L0.9375 7 L0.9375 3.90625 L4.6875 3.90625 Z"/>
  <path transform="translate(155.925, 101.7)" style="fill:#000000; fill-rule:nonzero;stroke:none;" d="M3.51562 0 C1.42188 0 0 1.40625 0 3.5 C0 5.59375 1.42188 7 3.53125 7 C4.42188 7 5.1875 6.75 5.78125 6.28125 C6.57812 5.6875 7.04688 4.64062 7.04688 3.54688 C7.04688 1.40625 5.65625 0 3.51562 0 Z M3.51562 0.8125 C5.09375 0.8125 6.10938 1.875 6.10938 3.53125 C6.10938 5.09375 5.0625 6.17188 3.53125 6.17188 C1.96875 6.17188 0.9375 5.09375 0.9375 3.48438 C0.9375 1.89062 1.96875 0.8125 3.51562 0.8125 Z"/>
  <path transform="translate(159.8, 81.85)" style="fill:#ff0000; fill-rule:nonzero;stroke:none;" d="M1.55 18.05 L0 17.65 L4.95 0 L6.45 0.4 "/>
  <path transform="translate(153.375, 44.75)" style="fill:#ff0000; fill-rule:nonzero;stroke:none;" d="M3.51562 0 C1.42188 0 0 1.40625 0 3.5 C0 5.59375 1.42188 7 3.53125 7 C4.42188 7 5.1875 6.75 5.78125 6.28125 C6.57812 5.6875 7.04688 4.64062 7.04688 3.54688 C7.04688 1.40625 5.65625 0 3.51562 0 Z M3.51562 0.8125 C5.09375 0.8125 6.10938 1.875 6.10938 3.53125 C6.10938 5.09375 5.0625 6.17188 3.53125 6.17188 C1.96875 6.17188 0.9375 5.09375 0.9375 3.48438 C0.9375 1.89062 1.96875 0.8125 3.51562 0.8125 Z"/>
  <path transform="translate(158.25, 54.4)" style="fill:#ff0000; fill-rule:nonzero;stroke:none;" d="M0 0.55 L1.45 0 L2.3 2.25 L0.85 2.8 "/>
  <path transform="translate(159.95, 58.9)" style="fill:#ff0000; fill-rule:nonzero;stroke:none;" d="M0 0.55 L1.45 0 L2.3 2.25 L0.85 2.8 "/>
  <path transform="translate(161.65, 63.4)" style="fill:#ff0000; fill-rule:nonzero;stroke:none;" d="M0 0.55 L1.45 0 L2.3 2.25 L0.85 2.8 "/>
  <path transform="translate(163.35, 67.9)" style="fill:#ff0000; fill-rule:nonzero;stroke:none;" d="M0 0.55 L1.45 0 L2.3 2.25 L0.85 2.8 "/>
  <path transform="translate(129.328, 28.4)" style="fill:#ff0000; fill-rule:nonzero;stroke:none;" d="M4.6875 3.90625 L4.6875 7 L5.60938 7 L5.60938 0 L4.6875 0 L4.6875 3.09375 L0.9375 3.09375 L0.9375 0 L0 0 L0 7 L0.9375 7 L0.9375 3.90625 L4.6875 3.90625 Z"/>
  <path transform="translate(137.25, 35.25)" style="fill:#ff0000; fill-rule:nonzero;stroke:none;" d="M0 1.3 L0.85 0 L13.8 8.45 L12.95 9.75 "/>
  <path transform="translate(98.275, 29.6)" style="fill:#ff0000; fill-rule:nonzero;stroke:none;" d="M3.51562 0 C1.42188 0 0 1.40625 0 3.5 C0 5.59375 1.42188 7 3.53125 7 C4.42188 7 5.1875 6.75 5.78125 6.28125 C6.57812 5.6875 7.04688 4.64062 7.04688 3.54688 C7.04688 1.40625 5.65625 0 3.51562 0 Z M3.51562 0.8125 C5.09375 0.8125 6.10938 1.875 6.10938 3.53125 C6.10938 5.09375 5.0625 6.17188 3.53125 6.17188 C1.96875 6.17188 0.9375 5.09375 0.9375 3.48438 C0.9375 1.89062 1.96875 0.8125 3.51562 0.8125 Z"/>
  <path transform="translate(107.6, 31.9)" style="fill:#ff0000; fill-rule:nonzero;stroke:none;" d="M0.05 1.65 L0 0.1 L2.7 0 L2.75 1.55 "/>
  <path transform="translate(113, 31.65)" style="fill:#ff0000; fill-rule:nonzero;stroke:none;" d="M0.05 1.7 L0 0.15 L2.7 0 L2.75 1.6 "/>
  <path transform="translate(118.4, 31.45)" style="fill:#ff0000; fill-rule:nonzero;stroke:none;" d="M0.05 1.65 L0 0.1 L2.7 0 L2.75 1.55 "/>
  <path transform="translate(123.8, 31.25)" style="fill:#ff0000; fill-rule:nonzero;stroke:none;" d="M0.05 1.65 L0 0.1 L2.7 0 L2.75 1.55 "/>
  <path transform="translate(75.6781, 48)" style="fill:#ff0000; fill-rule:nonzero;stroke:none;" d="M4.6875 3.90625 L4.6875 7 L5.60938 7 L5.60938 0 L4.6875 0 L4.6875 3.09375 L0.9375 3.09375 L0.9375 0 L0 0 L0 7 L0.9375 7 L0.9375 3.90625 L4.6875 3.90625 Z"/>
  <path transform="translate(83.1, 36.4)" style="fill:#ff0000; fill-rule:nonzero;stroke:none;" d="M0.95 11.1 L0 9.85 L12.7 0 L13.65 1.2 "/>
  <path transform="translate(66.525, 76.9)" style="fill:#000000; fill-rule:nonzero;stroke:none;" d="M3.51562 0 C1.42188 0 0 1.40625 0 3.5 C0 5.59375 1.42188 7 3.53125 7 C4.42188 7 5.1875 6.75 5.78125 6.28125 C6.57812 5.6875 7.04688 4.64062 7.04688 3.54688 C7.04688 1.40625 5.65625 0 3.51562 0 Z M3.51562 0.8125 C5.09375 0.8125 6.10938 1.875 6.10938 3.53125 C6.10938 5.09375 5.0625 6.17188 3.53125 6.17188 C1.96875 6.17188 0.9375 5.09375 0.9375 3.48438 C0.9375 1.89062 1.96875 0.8125 3.51562 0.8125 Z"/>
  <path transform="translate(70.4, 72.2)" style="fill:#ff0000; fill-rule:nonzero;stroke:none;" d="M1.5 2.95 L0 2.55 L0.7 0 L2.2 0.45 "/>
  <path transform="translate(71.8, 67.15)" style="fill:#ff0000; fill-rule:nonzero;stroke:none;" d="M1.5 2.95 L0 2.55 L0.7 0 L2.2 0.45 "/>
  <path transform="translate(73.2, 62.15)" style="fill:#ff0000; fill-rule:nonzero;stroke:none;" d="M1.5 2.9 L0 2.5 L0.7 0 L2.2 0.4 "/>
  <path transform="translate(74.6, 57.1)" style="fill:#ff0000; fill-rule:nonzero;stroke:none;" d="M1.5 2.95 L0 2.5 L0.7 0 L2.2 0.4 "/>
  <path transform="translate(78.4781, 104.9)" style="fill:#000000; fill-rule:nonzero;stroke:none;" d="M4.6875 3.90625 L4.6875 7 L5.60938 7 L5.60938 0 L4.6875 0 L4.6875 3.09375 L0.9375 3.09375 L0.9375 0 L0 0 L0 7 L0.9375 7 L0.9375 3.90625 L4.6875 3.90625 Z"/>
  <path transform="translate(71.45, 86.55)" style="fill:#000000; fill-rule:nonzero;stroke:none;" d="M7.5 15.7 L6.05 16.3 L0 0.6 L1.45 0 "/>
  <path transform="translate(101.25, 121.7)" style="fill:#000000; fill-rule:nonzero;stroke:none;" d="M4.5 2.4 L2.45 2.95 L0 1.3 L0.85 0 "/>
  <path transform="translate(96.25, 118.4)" style="fill:#000000; fill-rule:nonzero;stroke:none;" d="M3.35 1.65 L2.5 2.95 L0 1.3 L0.85 0 "/>
  <path transform="translate(91.25, 115.1)" style="fill:#000000; fill-rule:nonzero;stroke:none;" d="M3.35 1.65 L2.5 2.95 L0 1.3 L0.9 0 "/>
  <path transform="translate(86.3, 111.8)" style="fill:#000000; fill-rule:nonzero;stroke:none;" d="M3.35 1.65 L2.5 2.95 L0 1.3 L0.85 0 "/>
  <path transform="translate(105.5, 124.1)" style="fill:#000000; fill-rule:nonzero;stroke:none;" d="M29.7 0 L30.3 1.55 L1.5 1.55 L0 0.8 L0.25 0 "/>
  <path transform="translate(135.2, 108.65)" style="fill:#000000; fill-rule:nonzero;stroke:none;" d="M0.6 17 L0 15.45 L18.4 0 L19.4 1.2 "/>
  <path transform="translate(153.575, 142.7)" style="fill:#000000; fill-rule:nonzero;stroke:none;" d="M3.51562 0 C1.42188 0 0 1.40625 0 3.5 C0 5.59375 1.42188 7 3.53125 7 C4.42188 7 5.1875 6.75 5.78125 6.28125 C6.57812 5.6875 7.04688 4.64062 7.04688 3.54688 C7.04688 1.40625 5.65625 0 3.51562 0 Z M3.51562 0.8125 C5.09375 0.8125 6.10938 1.875 6.10938 3.53125 C6.10938 5.09375 5.0625 6.17188 3.53125 6.17188 C1.96875 6.17188 0.9375 5.09375 0.9375 3.48438 C0.9375 1.89062 1.96875 0.8125 3.51562 0.8125 Z"/>
  <path transform="translate(136.45, 123.1)" style="fill:#000000; fill-rule:nonzero;stroke:none;" d="M17.15 16 L16.05 17.1 L0 1.1 L1.1 0 "/>
  <path transform="translate(132.2, 124.35)" style="fill:#000000; fill-rule:nonzero;stroke:none;" d="M18.6 17.55 L17.5 18.65 L0 1.1 L1.1 0 "/>
  <path transform="translate(39.9781, 77.25)" style="fill:#0000ff; fill-rule:nonzero;stroke:none;" d="M4.6875 3.90625 L4.6875 7 L5.60938 7 L5.60938 0 L4.6875 0 L4.6875 3.09375 L0.9375 3.09375 L0.9375 0 L0 0 L0 7 L0.9375 7 L0.9375 3.90625 L4.6875 3.90625 Z"/>
  <path transform="translate(60.95, 79.6)" style="fill:#000000; fill-rule:nonzero;stroke:none;" d="M3.2 0 L3.2 1.6 L0.05 1.6 L0 0.05 "/>
  <path transform="translate(54.65, 79.7)" style="fill:#000000; fill-rule:nonzero;stroke:none;" d="M3.15 0 L3.2 1.55 L0.05 1.6 L0 0.05 "/>
  <path transform="translate(48.35, 79.75)" style="fill:#000000; fill-rule:nonzero;stroke:none;" d="M3.15 0 L3.15 1.6 L0 1.6 L0 0.05 "/>
  <path transform="translate(84.2344, 193.919)" style="fill:#000000; fill-rule:nonzero;stroke:none;" d="M6.65625 11.5625 C5.0625 11.5625 4.76562 11.2969 4.76562 9.9375 L4.76562 0 L4.45312 0 L0 1.98438 L0 2.42188 C0.171875 2.35938 0.28125 2.32812 0.375 2.29688 C0.828125 2.10938 1.26562 2 1.51562 2 C1.9375 2 2.15625 2.39062 2.15625 3.1875 L2.15625 9.85938 C2.15625 11.25 1.76562 11.5625 0.046875 11.5625 L0.046875 12 L6.65625 12 L6.65625 11.5625 Z"/>
  <path transform="translate(84.3781, 3.65)" style="fill:#ff0000; fill-rule:nonzero;stroke:none;" d="M4.6875 3.90625 L4.6875 7 L5.60938 7 L5.60938 0 L4.6875 0 L4.6875 3.09375 L0.9375 3.09375 L0.9375 0 L0 0 L0 7 L0.9375 7 L0.9375 3.90625 L4.6875 3.90625 Z"/>
  <path transform="translate(89.3, 12.8)" style="fill:#ff0000; fill-rule:nonzero;stroke:none;" d="M0 0.8 L1.35 0 L9.25 13.75 L7.9 14.55 "/>
  <path transform="translate(175.678, 23.55)" style="fill:#ff0000; fill-rule:nonzero;stroke:none;" d="M4.6875 3.90625 L4.6875 7 L5.60938 7 L5.60938 0 L4.6875 0 L4.6875 3.09375 L0.9375 3.09375 L0.9375 0 L0 0 L0 7 L0.9375 7 L0.9375 3.90625 L4.6875 3.90625 Z"/>
  <path transform="translate(161.4, 30.95)" style="fill:#ff0000; fill-rule:nonzero;stroke:none;" d="M11.2 0 L12.3 1.1 L1.1 12.3 L0 11.2 "/>
  <path transform="translate(97.9781, 70.65)" style="fill:#00ff00; fill-rule:nonzero;stroke:none;" d="M4.6875 3.90625 L4.6875 7 L5.60938 7 L5.60938 0 L4.6875 0 L4.6875 3.09375 L0.9375 3.09375 L0.9375 0 L0 0 L0 7 L0.9375 7 L0.9375 3.90625 L4.6875 3.90625 Z"/>
  <path transform="translate(76.25, 72.25)" style="fill:#00ff00; fill-rule:nonzero;stroke:none;" d="M17.75 0 L19 5.85 L0.3 7.45 L0 5.9 "/>
  <g id="Group5" transform="translate(3.49102, 77.25) scale(1, 1)" style="fill:none; stroke:none">
   <path transform="translate(0, 0)" style="fill:#0000ff; fill-rule:nonzero;stroke:none;" d="M6.14062 2.20312 C5.84375 0.71875 4.92188 0 3.32812 0 C2.34375 0 1.5625 0.28125 1.01562 0.828125 C0.359375 1.48438 0 2.45312 0 3.51562 C0 4.625 0.359375 5.5625 1.04687 6.21875 C1.60937 6.75 2.32812 7 3.28125 7 C5.0625 7 6.0625 6.10938 6.28125 4.32812 L5.32812 4.32812 C5.25 4.78125 5.14062 5.07812 5 5.32812 C4.70312 5.85938 4.07812 6.17188 3.29687 6.17188 C1.84375 6.17188 0.921875 5.14062 0.921875 3.51562 C0.921875 1.84375 1.79687 0.8125 3.21875 0.8125 C3.8125 0.8125 4.35938 0.96875 4.65625 1.23438 C4.92188 1.45312 5.07812 1.71875 5.1875 2.20312 L6.14062 2.20312 Z"/>
   <path transform="translate(7.42312, 0)" style="fill:#0000ff; fill-rule:nonzero;stroke:none;" d="M0.828125 0 L0 0 L0 7 L0.828125 7 L0.828125 0 Z"/>
  </g>
  <path transform="translate(14.4, 79.9)" style="fill:#0000ff; fill-rule:nonzero;stroke:none;" d="M0 1.55 L22.75 1.55 L22.75 0 L0 0 L0 1.55 Z"/>
  <path transform="translate(119.875, 72.65)" style="fill:#00ff00; fill-rule:nonzero;stroke:none;" d="M3.51562 0 C1.42188 0 0 1.40625 0 3.5 C0 5.59375 1.42188 7 3.53125 7 C4.42188 7 5.1875 6.75 5.78125 6.28125 C6.57812 5.6875 7.04688 4.64062 7.04688 3.54688 C7.04688 1.40625 5.65625 0 3.51562 0 Z M3.51562 0.8125 C5.09375 0.8125 6.10938 1.875 6.10938 3.53125 C6.10938 5.09375 5.0625 6.17188 3.53125 6.17188 C1.96875 6.17188 0.9375 5.09375 0.9375 3.48438 C0.9375 1.89062 1.96875 0.8125 3.51562 0.8125 Z"/>
  <path transform="translate(115.25, 74.6)" style="fill:#00ff00; fill-rule:nonzero;stroke:none;" d="M2.35 0.2 L2.2 1.75 L0 1.55 L0.1 0 "/>
  <path transform="translate(110.75, 74.2)" style="fill:#00ff00; fill-rule:nonzero;stroke:none;" d="M2.35 0.2 L2.25 1.75 L0 1.55 L0.1 0 "/>
  <path transform="translate(106.25, 73.85)" style="fill:#00ff00; fill-rule:nonzero;stroke:none;" d="M2.4 0.2 L2.25 1.75 L0 1.55 L0.15 0 "/>
  <path transform="translate(131.728, 93.6)" style="fill:#00ff00; fill-rule:nonzero;stroke:none;" d="M4.6875 3.90625 L4.6875 7 L5.60938 7 L5.60938 0 L4.6875 0 L4.6875 3.09375 L0.9375 3.09375 L0.9375 0 L0 0 L0 7 L0.9375 7 L0.9375 3.90625 L4.6875 3.90625 Z"/>
  <path transform="translate(125.6, 82.15)" style="fill:#00ff00; fill-rule:nonzero;stroke:none;" d="M6 8.9 L4.6 9.65 L0 0.7 L1.4 0 "/>
  <path transform="translate(150.2, 101.6)" style="fill:#00ff00; fill-rule:nonzero;stroke:none;" d="M2.95 0.8 L2.45 2.25 L0 1.5 L0.45 0 "/>
  <path transform="translate(145.3, 100.05)" style="fill:#00ff00; fill-rule:nonzero;stroke:none;" d="M2.9 0.75 L2.45 2.25 L0 1.45 L0.45 0 "/>
  <path transform="translate(140.35, 98.45)" style="fill:#00ff00; fill-rule:nonzero;stroke:none;" d="M2.95 0.8 L2.5 2.3 L0 1.5 L0.5 0 "/>
  <path transform="translate(135.978, 46.65)" style="fill:#00ff00; fill-rule:nonzero;stroke:none;" d="M4.6875 3.90625 L4.6875 7 L5.60938 7 L5.60938 0 L4.6875 0 L4.6875 3.09375 L0.9375 3.09375 L0.9375 0 L0 0 L0 7 L0.9375 7 L0.9375 3.90625 L4.6875 3.90625 Z"/>
  <path transform="translate(126.05, 54.15)" style="fill:#00ff00; fill-rule:nonzero;stroke:none;" d="M6.15 0 L11.35 3 L1.35 15.85 L0 15.05 "/>
  <g id="Group6" transform="translate(215.257, 24.85) scale(1, 1)" style="fill:none; stroke:none">
   <path transform="translate(0, 0)" style="fill:#000000; fill-rule:nonzero;stroke:none;" d="M4.6875 3.90625 L4.6875 7 L5.60938 7 L5.60938 0 L4.6875 0 L4.6875 3.09375 L0.9375 3.09375 L0.9375 0 L0 0 L0 7 L0.9375 7 L0.9375 3.90625 L4.6875 3.90625 Z"/>
   <path transform="translate(6.64082, 3.25)" style="fill:#000000; fill-rule:nonzero;stroke:none;" d="M3.54492 4.96582 L0.74707 4.96582 C0.820312 4.51172 1.05469 4.21875 1.71387 3.80859 L2.46094 3.36914 C3.20801 2.92969 3.58887 2.3584 3.58887 1.65527 C3.58887 1.18652 3.39844 0.74707 3.09082 0.439453 C2.76855 0.146484 2.3877 0 1.875 0 C1.20117 0 0.703125 0.249023 0.410156 0.732422 C0.219727 1.04004 0.146484 1.37695 0.131836 1.94824 L0.791016 1.94824 C0.805664 1.55273 0.849609 1.33301 0.9375 1.14258 C1.11328 0.791016 1.46484 0.571289 1.86035 0.571289 C2.46094 0.571289 2.91504 1.04004 2.91504 1.64062 C2.91504 2.08008 2.66602 2.47559 2.18262 2.75391 L1.49414 3.17871 C0.395508 3.85254 0.0732422 4.37988 0 5.625 L3.54492 5.625 L3.54492 4.96582 Z"/>
   <path transform="translate(10.9367, 0)" style="fill:#000000; fill-rule:nonzero;stroke:none;" d="M3.51562 0 C1.42188 0 0 1.40625 0 3.5 C0 5.59375 1.42188 7 3.53125 7 C4.42188 7 5.1875 6.75 5.78125 6.28125 C6.57812 5.6875 7.04688 4.64062 7.04688 3.54688 C7.04688 1.40625 5.65625 0 3.51562 0 Z M3.51562 0.8125 C5.09375 0.8125 6.10938 1.875 6.10938 3.53125 C6.10938 5.09375 5.0625 6.17188 3.53125 6.17188 C1.96875 6.17188 0.9375 5.09375 0.9375 3.48438 C0.9375 1.89062 1.96875 0.8125 3.51562 0.8125 Z"/>
  </g>
  <path transform="translate(233.95, 30)" style="fill:#000000; fill-rule:nonzero;stroke:none;" d="M0 1.35 L0.75 0 L3.1 1.4 L2.35 2.75 "/>
  <path transform="translate(238.65, 32.75)" style="fill:#000000; fill-rule:nonzero;stroke:none;" d="M0 1.35 L0.8 0 L3.15 1.35 L2.35 2.7 "/>
  <path transform="translate(243.35, 35.45)" style="fill:#000000; fill-rule:nonzero;stroke:none;" d="M0 1.35 L0.8 0 L3.15 1.35 L2.35 2.7 "/>
  <path transform="translate(248.05, 38.2)" style="fill:#000000; fill-rule:nonzero;stroke:none;" d="M0 1.35 L0.8 0 L3.15 1.35 L2.35 2.7 "/>
  <path transform="translate(302.928, 72.6)" style="fill:#0000ff; fill-rule:nonzero;stroke:none;" d="M4.6875 3.90625 L4.6875 7 L5.60938 7 L5.60938 0 L4.6875 0 L4.6875 3.09375 L0.9375 3.09375 L0.9375 0 L0 0 L0 7 L0.9375 7 L0.9375 3.90625 L4.6875 3.90625 Z"/>
  <path transform="translate(283.65, 66.55)" style="fill:#0000ff; fill-rule:nonzero;stroke:none;" d="M17.05 4.4 L14.7 9.95 L0 1.4 L0.6 0 "/>
  <path transform="translate(367.478, 123.25)" style="fill:#000000; fill-rule:nonzero;stroke:none;" d="M4.6875 3.90625 L4.6875 7 L5.60938 7 L5.60938 0 L4.6875 0 L4.6875 3.09375 L0.9375 3.09375 L0.9375 0 L0 0 L0 7 L0.9375 7 L0.9375 3.90625 L4.6875 3.90625 Z"/>
  <path transform="translate(361.7, 129.05)" style="fill:#000000; fill-rule:nonzero;stroke:none;" d="M2.05 0 L2.8 1.35 L0.8 2.55 L0 1.2 "/>
  <path transform="translate(357.7, 131.4)" style="fill:#000000; fill-rule:nonzero;stroke:none;" d="M2 0 L2.8 1.35 L0.8 2.5 L0 1.15 "/>
  <path transform="translate(353.7, 133.7)" style="fill:#000000; fill-rule:nonzero;stroke:none;" d="M2 0 L2.8 1.35 L0.8 2.5 L0 1.15 "/>
  <path transform="translate(349.7, 136)" style="fill:#000000; fill-rule:nonzero;stroke:none;" d="M2 0 L2.75 1.35 L0.75 2.55 L0 1.2 "/>
  <path transform="translate(374.125, 94.25)" style="fill:#000000; fill-rule:nonzero;stroke:none;" d="M3.51562 0 C1.42188 0 0 1.40625 0 3.5 C0 5.59375 1.42188 7 3.53125 7 C4.42188 7 5.1875 6.75 5.78125 6.28125 C6.57812 5.6875 7.04688 4.64062 7.04688 3.54688 C7.04688 1.40625 5.65625 0 3.51562 0 Z M3.51562 0.8125 C5.09375 0.8125 6.10938 1.875 6.10938 3.53125 C6.10938 5.09375 5.0625 6.17188 3.53125 6.17188 C1.96875 6.17188 0.9375 5.09375 0.9375 3.48438 C0.9375 1.89062 1.96875 0.8125 3.51562 0.8125 Z"/>
  <path transform="translate(370.3, 102.9)" style="fill:#000000; fill-rule:nonzero;stroke:none;" d="M4.75 0 L6.25 0.4 L1.5 18 L0 17.6 "/>
  <path transform="translate(367.478, 65.3)" style="fill:#000000; fill-rule:nonzero;stroke:none;" d="M4.6875 3.90625 L4.6875 7 L5.60938 7 L5.60938 0 L4.6875 0 L4.6875 3.09375 L0.9375 3.09375 L0.9375 0 L0 0 L0 7 L0.9375 7 L0.9375 3.90625 L4.6875 3.90625 Z"/>
  <path transform="translate(370.35, 74.5)" style="fill:#000000; fill-rule:nonzero;stroke:none;" d="M0 0.4 L1.5 0 L5.95 16.65 L4.45 17.05 "/>
  <g id="Group7" transform="translate(324.234, 84.6) scale(1, 1)" style="fill:none; stroke:none">
   <path transform="translate(0, 0)" style="fill:#0000ff; fill-rule:nonzero;stroke:none;" d="M6.14062 2.20312 C5.84375 0.71875 4.92188 0 3.32812 0 C2.34375 0 1.5625 0.28125 1.01562 0.828125 C0.359375 1.48438 0 2.45312 0 3.51562 C0 4.625 0.359375 5.5625 1.04688 6.21875 C1.60938 6.75 2.32812 7 3.28125 7 C5.0625 7 6.0625 6.10938 6.28125 4.32812 L5.32812 4.32812 C5.25 4.78125 5.14062 5.07812 5 5.32812 C4.70312 5.85938 4.07812 6.17188 3.29688 6.17188 C1.84375 6.17188 0.921875 5.14062 0.921875 3.51562 C0.921875 1.84375 1.79688 0.8125 3.21875 0.8125 C3.8125 0.8125 4.35938 0.96875 4.65625 1.23438 C4.92188 1.45312 5.07812 1.71875 5.1875 2.20312 L6.14062 2.20312 Z"/>
   <path transform="translate(7.42313, 0)" style="fill:#0000ff; fill-rule:nonzero;stroke:none;" d="M0.828125 0 L0 0 L0 7 L0.828125 7 L0.828125 0 Z"/>
  </g>
  <path transform="translate(318.95, 83.15)" style="fill:#0000ff; fill-rule:nonzero;stroke:none;" d="M2.7 1.1 L2 2.45 L0 1.4 L0.75 0 "/>
  <path transform="translate(315.05, 81.05)" style="fill:#0000ff; fill-rule:nonzero;stroke:none;" d="M2.7 1.05 L1.95 2.4 L0 1.35 L0.7 0 "/>
  <path transform="translate(311.1, 78.9)" style="fill:#0000ff; fill-rule:nonzero;stroke:none;" d="M2.7 1.05 L1.95 2.4 L0 1.35 L0.75 0 "/>
  <path transform="translate(361.05, 70.45)" style="fill:#000000; fill-rule:nonzero;stroke:none;" d="M2.6 0 L3.25 1.45 L0.65 2.65 L0 1.2 "/>
  <path transform="translate(355.85, 72.85)" style="fill:#000000; fill-rule:nonzero;stroke:none;" d="M2.6 0 L3.25 1.4 L0.6 2.6 L0 1.2 "/>
  <path transform="translate(350.6, 75.2)" style="fill:#000000; fill-rule:nonzero;stroke:none;" d="M2.6 0 L3.25 1.45 L0.65 2.65 L0 1.2 "/>
  <path transform="translate(345.35, 77.6)" style="fill:#000000; fill-rule:nonzero;stroke:none;" d="M2.65 0 L3.25 1.4 L0.65 2.6 L0 1.2 "/>
  <path transform="translate(340.15, 79.95)" style="fill:#000000; fill-rule:nonzero;stroke:none;" d="M2.6 0 L3.25 1.45 L0.65 2.6 L0 1.2 "/>
  <path transform="translate(334.9, 82.35)" style="fill:#000000; fill-rule:nonzero;stroke:none;" d="M2.6 0 L3.25 1.4 L0.65 2.6 L0 1.2 "/>
  <path transform="translate(325.1, 73.15)" style="fill:none;stroke-width:1.25; stroke-linecap:butt; stroke-linejoin:miter; stroke-dasharray:none; stroke:#0000ff;" d="M6.7 3.35 C6.7 5.2 5.2 6.7 3.35 6.7 C1.5 6.7 0 5.2 0 3.35 C0 1.5 1.5 0 3.35 0 C5.2 0 6.7 1.5 6.7 3.35 Z"/>
  <path transform="translate(326.8, 76.5)" style="fill:none;stroke-width:1.25; stroke-linecap:butt; stroke-linejoin:miter; stroke-dasharray:none; stroke:#0000ff;" d="M0 0 L3.35 0 "/>
  <path transform="translate(275.05, 45.5)" style="fill:none;stroke-width:1.25; stroke-linecap:butt; stroke-linejoin:miter; stroke-dasharray:none; stroke:#0000ff;" d="M6.7 3.35 C6.7 5.2 5.2 6.7 3.35 6.7 C1.5 6.7 0 5.2 0 3.35 C0 1.5 1.5 0 3.35 0 C5.2 0 6.7 1.5 6.7 3.35 Z"/>
  <path transform="translate(276.7, 48.85)" style="fill:none;stroke-width:1.25; stroke-linecap:butt; stroke-linejoin:miter; stroke-dasharray:none; stroke:#0000ff;" d="M0 0 L3.35 0 "/>
  <path transform="translate(278.4, 47.15)" style="fill:none;stroke-width:1.25; stroke-linecap:butt; stroke-linejoin:miter; stroke-dasharray:none; stroke:#0000ff;" d="M0 0 L0 3.35 "/>
 </g>
</svg>
