<?xml version="1.0" encoding="UTF-8"?>
<svg width="372pt" version="1.1" xmlns="http://www.w3.org/2000/svg" height="208pt" viewBox="0 0 372 208" xmlns:xlink="http://www.w3.org/1999/xlink">
 <defs>
  <clipPath id="Clip0">
   <path d="M0 0 L372 0 L372 208 L0 208 L0 0 Z" transform="translate(0, 0)"/>
  </clipPath>
 </defs>
 <g id="Background">
  <g id="Group1" clip-path="url(#Clip0)">
   <path style="fill:#000000; fill-rule:evenodd;stroke:none;" d="M7.65234 7.664 C7.19921 7.6289 6.96093 7.5078 6.61718 7.1054 L4.16015 4.0898 C5.67187 3.789 6.3164 3.1953 6.3164 2.0976 C6.3164 1.6094 6.17578 1.1797 5.88671 0.8594 C5.44531 0.3203 4.44531 0 3.28906 0 L0 0 L0 0.2265 C0.89453 0.3203 1.01171 0.4531 1.01171 1.2969 L1.01171 6.4609 C1.01171 7.4492 0.89453 7.5937 0 7.664 L0 7.8906 L3.30078 7.8906 L3.30078 7.664 C2.38281 7.6054 2.23046 7.4492 2.23046 6.5898 L2.23046 4.2422 L2.89453 4.2187 L5.73437 7.8906 L7.65234 7.8906 L7.65234 7.664 Z M2.23046 0.8711 C2.23046 0.5351 2.35937 0.4414 2.83593 0.4414 C4.32812 0.4414 5.01953 0.9531 5.01953 2.0742 C5.01953 2.6679 4.76953 3.1719 4.33984 3.3984 C3.78906 3.707 3.37109 3.7773 2.23046 3.8008 L2.23046 0.8711 Z" transform="translate(2.20313, 41.1094)"/>
   <path style="fill:#000000; fill-rule:evenodd;stroke:none;" d="M4.1523 4.0117 L3.2305 4.0117 L3.2305 0 L2.8359 0 L0 4.0117 L0 4.5898 L2.5351 4.5898 L2.5351 6.0937 L3.2305 6.0937 L3.2305 4.5898 L4.1523 4.5898 L4.1523 4.0117 Z M2.5273 4.0117 L0.3594 4.0117 L2.5273 0.9179 L2.5273 4.0117 Z" transform="translate(10.1133, 45.1563)"/>
   <path style="fill:#000000; fill-rule:evenodd;stroke:none;" d="M8.2852 0 L5.4805 0 L5.4805 0.2265 C5.9336 0.2617 6.1016 0.3086 6.2813 0.4179 C6.5196 0.582 6.625 1.0117 6.625 1.75 L6.625 5.7695 L2.0352 0 L0 0 L0 0.2265 C0.5118 0.2265 0.6797 0.3203 1.1563 0.8828 L1.1563 6.1367 C1.1563 7.3672 0.9883 7.5937 0 7.664 L0 7.8906 L2.8008 7.8906 L2.8008 7.664 C1.8829 7.6172 1.6797 7.3437 1.6797 6.1367 L1.6797 1.4648 L6.9493 8.0234 L7.1524 8.0234 L7.1524 1.75 C7.1524 1.0351 7.2696 0.5937 7.4961 0.4414 C7.6641 0.3203 7.8321 0.2734 8.2852 0.2265 L8.2852 0 Z" transform="translate(14.6484, 41.1094)"/>
   <path style="fill:#000000; fill-rule:evenodd;stroke:none;" d="M1.9805 1.9844 L0 1.9844 L0 2.5781 L1.9805 2.5781 L1.9805 4.5625 L2.5742 4.5625 L2.5742 2.5781 L4.5547 2.5781 L4.5547 1.9844 L2.5742 1.9844 L2.5742 0 L1.9805 0 L1.9805 1.9844 Z" transform="translate(23.4365, 39.9375)"/>
   <path style="fill:#000000; fill-rule:evenodd;stroke:none;" d="M5.5664 5.1367 L5.5664 2.3711 L5.293 2.3711 C5.1485 3.3242 4.9336 3.5039 3.9805 3.5039 L2.25 3.5039 L2.25 0.8594 C2.25 0.5234 2.3125 0.4531 2.6328 0.4531 L4.2539 0.4531 C5.6016 0.4531 5.8633 0.6328 6.0664 1.7031 L6.3633 1.7031 L6.3281 0 L0 0 L0 0.2265 C0.8789 0.2969 1.0352 0.4531 1.0352 1.2969 L1.0352 6.4609 C1.0352 7.4492 0.9063 7.6054 0 7.664 L0 7.8906 L3.336 7.8906 L3.336 7.664 C2.418 7.6172 2.25 7.4492 2.25 6.5898 L2.25 3.9922 L3.9805 3.9922 C4.9453 3.9922 5.1485 4.1719 5.293 5.1367 L5.5664 5.1367 Z" transform="translate(28.3867, 41.1094)"/>
   <path style="fill:#000000; fill-rule:evenodd;stroke:none;" d="M0 0 L0 0.5664 L2.2227 0.5664 L2.2227 0 L0 0 Z" transform="translate(35.2656, 42.1836)"/>
   <path style="fill:#000000; fill-rule:nonzero;stroke:none;" d="M29.7002 0 L30.3502 1.5996 L0 1.5996 L0 0 L29.7002 0 Z" transform="translate(72.2998, 44.2002)"/>
   <path style="fill:#000000; fill-rule:nonzero;stroke:none;" d="M28.4002 0 L28.4002 1.6006 L0 1.6006 L0 0 L28.4002 0 Z" transform="translate(72.2998, 40.2998)"/>
   <path style="fill:#000000; fill-rule:evenodd;stroke:none;" d="M4.183 0 C1.691 0 0 1.8359 0 4.5508 C0 7.2812 1.679 9.1054 4.195 9.1054 C5.258 9.1054 6.187 8.7851 6.89 8.1875 C7.832 7.3906 8.39 6.0429 8.39 4.625 C8.39 1.8242 6.734 0 4.183 0 Z M4.183 0.9765 C6.066 0.9765 7.285 2.3945 7.285 4.6015 C7.285 6.6992 6.031 8.1289 4.195 8.1289 C2.336 8.1289 1.109 6.6992 1.109 4.5508 C1.109 2.4062 2.336 0.9765 4.183 0.9765 Z" transform="translate(119.803, 19.2676)"/>
   <path style="fill:#000000; fill-rule:nonzero;stroke:none;" d="M15.2 0 L16.3 1.0996 L0.65 16.7998 L0 15.2002 L15.2 0 Z" transform="translate(102, 29)"/>
   <path style="fill:#000000; fill-rule:evenodd;stroke:none;" d="M3.969 0.9805 L6.82 0.9805 L6.82 0 L0 0 L0 0.9805 L2.859 0.9805 L2.859 8.6914 L3.969 8.6914 L3.969 0.9805 Z" transform="translate(150.3, 19.4082)"/>
   <path style="fill:#000000; fill-rule:evenodd;stroke:none;" d="M4.684 8.6914 L7.129 1.4063 L7.129 8.6914 L8.176 8.6914 L8.176 0 L6.641 0 L4.114 7.5703 L1.539 0 L0 0 L0 8.6914 L1.047 8.6914 L1.047 1.4063 L3.516 8.6914 L4.684 8.6914 Z" transform="translate(158.275, 19.4082)"/>
   <path style="fill:#000000; fill-rule:evenodd;stroke:none;" d="M6.535 2.6914 L6.535 2.539 C6.535 2.0273 6.379 1.5469 6.059 1.1211 C5.52 0.3789 4.602 0 3.352 0 C1.446 0 0.266 0.9765 0.266 2.5508 C0.266 3.6094 0.825 4.2773 1.969 4.5781 L4.125 5.1484 C5.235 5.4336 5.723 5.875 5.723 6.5547 C5.723 7.0195 5.473 7.4961 5.106 7.7578 C4.758 8.0078 4.211 8.1289 3.508 8.1289 C2.555 8.1289 1.922 7.9023 1.504 7.4023 C1.184 7.0195 1.039 6.6015 1.051 6.0664 L0 6.0664 C0.016 6.8633 0.168 7.3906 0.516 7.8672 C1.11 8.6875 2.114 9.1054 3.434 9.1054 C4.473 9.1054 5.321 8.8672 5.879 8.4375 C6.461 7.9726 6.832 7.1992 6.832 6.4492 C6.832 5.375 6.164 4.5898 4.985 4.2656 L2.805 3.6836 C1.754 3.3945 1.371 3.0625 1.371 2.3945 C1.371 1.5117 2.149 0.9297 3.317 0.9297 C4.7 0.9297 5.473 1.5469 5.485 2.6914 L6.535 2.6914 Z" transform="translate(167.946, 19.2676)"/>
   <path style="fill:#000000; fill-rule:nonzero;stroke:none;" d="M17.4 0 L17.4 1.5498 L0 1.5498 L0 0 L17.4 0 Z" transform="translate(130.65, 23)"/>
   <path style="fill:none;stroke:#000000; stroke-width:1.25; stroke-linecap:butt; stroke-linejoin:miter; stroke-dasharray:none;" d="M40.4 0 L0 0 " transform="translate(189.2, 48)"/>
   <path style="fill:#000000; fill-rule:nonzero;stroke:none;" d="M15.6 4 L0 0 C0 0 1.95 2.25 1.95 4 C1.95 5.75 0 7.9502 0 7.9502 L15.6 4 L15.6 4 " transform="translate(227.6, 44)"/>
   <path style="fill:#000000; fill-rule:evenodd;stroke:none;" d="M5.184 7.664 C4.207 7.6172 4.039 7.4609 4.039 6.5898 L4.039 0.5 L4.684 0.5 C6.043 0.5 6.305 0.7148 6.578 2.0273 L6.868 2.0273 L6.793 0 L0.071 0 L0 2.0273 L0.285 2.0273 C0.571 0.7148 0.848 0.5 2.18 0.5 L2.825 0.5 L2.825 6.4609 C2.825 7.4726 2.696 7.6054 1.703 7.664 L1.703 7.8906 L5.184 7.8906 L5.184 7.664 Z" transform="translate(200.403, 58.1094)"/>
   <path style="fill:#000000; fill-rule:evenodd;stroke:none;" d="M4.828 0 L4.578 0 C4.532 0.2617 4.399 0.4063 4.196 0.4063 C4.078 0.4063 3.887 0.3594 3.672 0.2617 C3.231 0.0977 2.789 0 2.399 0 C1.227 0 0.348 0.8828 0.348 2.0391 C0.348 2.9922 0.871 3.6602 2.207 4.3633 C3.074 4.8281 3.684 5.3047 3.981 5.7578 C4.09 5.9141 4.149 6.1641 4.149 6.4609 C4.149 7.2461 3.555 7.7969 2.684 7.7969 C1.61 7.7969 0.871 7.1406 0.274 5.6875 L0 5.6875 L0.36 8.2149 L0.621 8.2149 C0.633 7.9883 0.778 7.8203 0.953 7.8203 C1.086 7.8203 1.289 7.8672 1.516 7.9531 C1.969 8.1289 2.457 8.2266 2.922 8.2266 C4.305 8.2266 5.352 7.2852 5.352 6.0547 C5.352 5.0781 4.699 4.3047 3.125 3.4453 C1.871 2.7656 1.371 2.2422 1.371 1.5859 C1.371 0.9297 1.871 0.4883 2.61 0.4883 C3.149 0.4883 3.649 0.7149 4.067 1.1445 C4.434 1.5274 4.602 1.8359 4.793 2.5391 L5.09 2.5391 L4.828 0 Z" transform="translate(208.031, 57.9414)"/>
   <path style="fill:#000000; fill-rule:evenodd;stroke:none;" d="M0.082 8.0586 L3.371 8.0586 L3.371 7.8789 C2.43 7.8672 2.239 7.75 2.239 7.1758 L2.239 0.0234 L2.145 0 L0 1.0859 L0 1.2539 L0.321 1.1211 C0.536 1.0391 0.739 0.9883 0.856 0.9883 C1.11 0.9883 1.215 1.1563 1.215 1.5508 L1.215 6.9492 C1.215 7.6758 1.012 7.8438 0.082 7.8789 L0.082 8.0586 Z" transform="translate(215.527, 57.9414)"/>
   <path style="fill:#000000; fill-rule:nonzero;stroke:none;" d="M29.55 0 L30.45 1.5996 L0 1.5996 L0 0 L29.55 0 Z" transform="translate(257, 63.2002)"/>
   <path style="fill:#000000; fill-rule:nonzero;stroke:none;" d="M27.75 0 L27.75 1.6006 L0 1.6006 L0 0 L27.75 0 Z" transform="translate(257, 59.2998)"/>
   <path style="fill:#000000; fill-rule:evenodd;stroke:none;" d="M1.942 0 C0.75 1.5625 0 3.7344 0 5.6055 C0 7.4883 0.75 9.6562 1.942 11.2187 L2.598 11.2187 C1.547 9.5156 0.965 7.5117 0.965 5.6055 C0.965 3.707 1.547 1.6953 2.598 0 L1.942 0 Z" transform="translate(276.397, 33.6084)"/>
   <path style="fill:#000000; fill-rule:evenodd;stroke:none;" d="M5.637 3.6367 C5.637 2.6836 5.566 2.1094 5.387 1.6446 C4.984 0.6211 4.031 0 2.859 0 C1.121 0 0 1.3242 0 3.3867 C0 5.4492 1.074 6.6992 2.836 6.6992 C4.27 6.6992 5.258 5.8906 5.508 4.5313 L4.508 4.5313 C4.231 5.3516 3.672 5.7813 2.875 5.7813 C2.242 5.7813 1.703 5.4961 1.371 4.9727 C1.133 4.6133 1.051 4.2578 1.039 3.6367 L5.637 3.6367 Z M1.063 2.8242 C1.145 1.668 1.848 0.918 2.848 0.918 C3.863 0.918 4.566 1.7071 4.566 2.8242 L1.063 2.8242 Z" transform="translate(279.998, 35.874)"/>
   <path style="fill:#000000; fill-rule:evenodd;stroke:none;" d="M5.594 9.0235 L5.594 0.1797 L4.711 0.1797 L4.711 1.0156 C4.246 0.3594 3.543 0 2.719 0 C1.074 0 0 1.3477 0 3.4219 C0 5.4492 1.016 6.6992 2.672 6.6992 C3.543 6.6992 4.137 6.3906 4.602 5.711 L4.602 9.0235 L5.594 9.0235 Z M2.863 0.9297 C3.922 0.9297 4.602 1.8711 4.602 3.3867 C4.602 4.8164 3.91 5.7696 2.863 5.7696 C1.766 5.7696 1.039 4.8047 1.039 3.3516 C1.039 1.8946 1.766 0.9297 2.863 0.9297 Z" transform="translate(286.502, 35.874)"/>
   <path style="fill:#000000; fill-rule:evenodd;stroke:none;" d="M0.657 11.2187 C1.848 9.6562 2.598 7.4883 2.598 5.6172 C2.598 3.7344 1.848 1.5625 0.657 0 L0 0 C1.051 1.707 1.633 3.707 1.633 5.6172 C1.633 7.5117 1.051 9.5273 0 11.2187 L0.657 11.2187 Z" transform="translate(293.318, 33.6084)"/>
   <path style="fill:#000000; fill-rule:evenodd;stroke:none;" d="M4.184 0 C1.692 0 0 1.8359 0 4.5508 C0 7.2812 1.68 9.1054 4.196 9.1054 C5.258 9.1054 6.188 8.7851 6.891 8.1875 C7.833 7.3906 8.391 6.0429 8.391 4.625 C8.391 1.8242 6.735 0 4.184 0 Z M4.184 0.9765 C6.067 0.9765 7.286 2.3945 7.286 4.6015 C7.286 6.6992 6.032 8.1289 4.196 8.1289 C2.336 8.1289 1.11 6.6992 1.11 4.5508 C1.11 2.4062 2.336 0.9765 4.184 0.9765 Z" transform="translate(297.313, 33.4678)"/>
   <path style="fill:#000000; fill-rule:nonzero;stroke:none;" d="M9.1 0 L10.45 0.75 L0.9 17.2998 L0 15.7002 L9.1 0 Z" transform="translate(286.55, 47.5)"/>
   <path style="fill:#000000; fill-rule:evenodd;stroke:none;" d="M6.535 2.6914 L6.535 2.539 C6.535 2.0273 6.379 1.5468 6.059 1.1211 C5.52 0.3789 4.602 0 3.352 0 C1.445 0 0.266 0.9765 0.266 2.5508 C0.266 3.6093 0.824 4.2773 1.969 4.5781 L4.125 5.1484 C5.234 5.4336 5.723 5.875 5.723 6.5547 C5.723 7.0195 5.473 7.4961 5.106 7.7578 C4.758 8.0078 4.211 8.1289 3.508 8.1289 C2.555 8.1289 1.922 7.9023 1.504 7.4023 C1.184 7.0195 1.039 6.6015 1.051 6.0664 L0 6.0664 C0.016 6.8633 0.168 7.3906 0.516 7.8672 C1.109 8.6875 2.113 9.1054 3.434 9.1054 C4.473 9.1054 5.32 8.8672 5.879 8.4375 C6.461 7.9726 6.832 7.1992 6.832 6.4492 C6.832 5.375 6.164 4.5898 4.984 4.2656 L2.805 3.6836 C1.754 3.3945 1.371 3.0625 1.371 2.3945 C1.371 1.5117 2.149 0.9297 3.317 0.9297 C4.699 0.9297 5.473 1.5468 5.484 2.6914 L6.535 2.6914 Z" transform="translate(329.12, 33.4678)"/>
   <path style="fill:#000000; fill-rule:evenodd;stroke:none;" d="M4.684 8.6914 L7.129 1.4062 L7.129 8.6914 L8.176 8.6914 L8.176 0 L6.641 0 L4.114 7.5703 L1.539 0 L0 0 L0 8.6914 L1.047 8.6914 L1.047 1.4062 L3.516 8.6914 L4.684 8.6914 Z" transform="translate(337.448, 33.6084)"/>
   <path style="fill:#000000; fill-rule:evenodd;stroke:none;" d="M5.637 3.6367 C5.637 2.6836 5.567 2.1094 5.387 1.6446 C4.985 0.6211 4.032 0 2.86 0 C1.121 0 0 1.3242 0 3.3867 C0 5.4492 1.075 6.6992 2.836 6.6992 C4.27 6.6992 5.258 5.8906 5.508 4.5313 L4.508 4.5313 C4.231 5.3516 3.672 5.7813 2.875 5.7813 C2.243 5.7813 1.704 5.4961 1.371 4.9727 C1.133 4.6133 1.051 4.2578 1.039 3.6367 L5.637 3.6367 Z M1.063 2.8242 C1.145 1.668 1.848 0.918 2.848 0.918 C3.864 0.918 4.567 1.7071 4.567 2.8242 L1.063 2.8242 Z" transform="translate(347.025, 35.874)"/>
   <path style="fill:#000000; fill-rule:evenodd;stroke:none;" d="M1.707 3.4648 L1.804 3.4648 L2.14 3.4531 C3.015 3.4531 3.469 3.8515 3.469 4.6172 C3.469 5.4218 2.972 5.8984 2.14 5.8984 C1.273 5.8984 0.847 5.4648 0.793 4.5351 L0 4.5351 C0.035 5.0508 0.125 5.3828 0.281 5.6718 C0.605 6.2851 1.238 6.6015 2.113 6.6015 C3.429 6.6015 4.281 5.8164 4.281 4.6093 C4.281 3.7968 3.965 3.3476 3.195 3.0859 C3.793 2.8437 4.09 2.3984 4.09 1.7617 C4.09 0.6601 3.359 0 2.14 0 C0.847 0 0.164 0.7031 0.136 2.0664 L0.929 2.0664 C0.937 1.6797 0.976 1.4609 1.074 1.2656 C1.254 0.914 1.652 0.6953 2.148 0.6953 C2.855 0.6953 3.277 1.1015 3.277 1.7851 C3.277 2.2383 3.117 2.5078 2.761 2.6523 C2.547 2.7422 2.265 2.7773 1.707 2.789 L1.707 3.4648 Z" transform="translate(353.51, 38.1553)"/>
   <path style="fill:#000000; fill-rule:nonzero;stroke:none;" d="M18.4 0 L18.4 1.5498 L0 1.5498 L0 0 L18.4 0 Z" transform="translate(308.15, 37.25)"/>
   <path style="fill:#000000; fill-rule:evenodd;stroke:none;" d="M1.106 4.73437 L5.254 4.73437 L5.254 3.75781 L1.106 3.75781 L1.106 0.98047 L5.828 0.98047 L5.828 0 L0 0 L0 8.6914 L1.106 8.6914 L1.106 4.73437 Z" transform="translate(330.074, 3.6084)"/>
   <path style="fill:#000000; fill-rule:evenodd;stroke:none;" d="M1.942 0 C0.75 1.5625 0 3.73437 0 5.60547 C0 7.4883 0.75 9.6562 1.942 11.2187 L2.598 11.2187 C1.547 9.5156 0.965 7.5117 0.965 5.60547 C0.965 3.70703 1.547 1.69531 2.598 0 L1.942 0 Z" transform="translate(337.202, 3.6084)"/>
   <path style="fill:#000000; fill-rule:evenodd;stroke:none;" d="M5.879 5.83988 C5.77 5.86718 5.723 5.86718 5.664 5.86718 C5.317 5.86718 5.125 5.68748 5.125 5.37498 L5.125 1.70703 C5.125 0.59766 4.317 0 2.778 0 C1.86 0 1.133 0.26172 0.703 0.72657 C0.418 1.05078 0.297 1.40625 0.274 2.02735 L1.278 2.02735 C1.36 1.26563 1.813 0.91797 2.742 0.91797 C3.649 0.91797 4.137 1.25391 4.137 1.84766 L4.137 2.10938 C4.137 2.52735 3.887 2.70703 3.102 2.80078 C1.695 2.98047 1.481 3.02735 1.098 3.1836 C0.371 3.49219 0 4.04297 0 4.85158 C0 5.98438 0.789 6.69918 2.051 6.69918 C2.836 6.69918 3.469 6.42578 4.172 5.78128 C4.246 6.42578 4.555 6.69918 5.199 6.69918 C5.414 6.69918 5.543 6.67578 5.879 6.59378 L5.879 5.83988 Z M4.137 4.45708 C4.137 4.79298 4.043 4.99608 3.742 5.26958 C3.34 5.64058 2.852 5.82808 2.266 5.82808 C1.492 5.82808 1.039 5.46098 1.039 4.82808 C1.039 4.17188 1.469 3.83985 2.539 3.6836 C3.602 3.54297 3.805 3.49219 4.137 3.33985 L4.137 4.45708 Z" transform="translate(340.826, 5.87402)"/>
   <path style="fill:#000000; fill-rule:evenodd;stroke:none;" d="M3.278 3.01563 L5.375 0 L4.254 0 L2.754 2.26563 L1.25 0 L0.117 0 L2.203 3.0625 L0 6.24609 L1.133 6.24609 L2.719 3.85156 L4.278 6.24609 L5.434 6.24609 L3.278 3.01563 Z" transform="translate(347.201, 6.05371)"/>
   <path style="fill:#000000; fill-rule:evenodd;stroke:none;" d="M1.004 2.44531 L0.012 2.44531 L0.012 8.6914 L1.004 8.6914 L1.004 2.44531 Z M1.004 0 L0 0 L0 1.2539 L1.004 1.2539 L1.004 0 Z" transform="translate(353.783, 3.6084)"/>
   <path style="fill:#000000; fill-rule:evenodd;stroke:none;" d="M5.879 5.83988 C5.77 5.86718 5.723 5.86718 5.664 5.86718 C5.317 5.86718 5.125 5.68748 5.125 5.37498 L5.125 1.70703 C5.125 0.59766 4.317 0 2.777 0 C1.86 0 1.133 0.26172 0.703 0.72657 C0.418 1.05078 0.297 1.40625 0.274 2.02735 L1.277 2.02735 C1.36 1.26563 1.813 0.91797 2.742 0.91797 C3.649 0.91797 4.137 1.25391 4.137 1.84766 L4.137 2.10938 C4.137 2.52735 3.887 2.70703 3.102 2.80078 C1.695 2.98047 1.481 3.02735 1.098 3.1836 C0.371 3.49219 0 4.04297 0 4.85158 C0 5.98438 0.789 6.69918 2.051 6.69918 C2.836 6.69918 3.469 6.42578 4.172 5.78128 C4.246 6.42578 4.555 6.69918 5.199 6.69918 C5.414 6.69918 5.543 6.67578 5.879 6.59378 L5.879 5.83988 Z M4.137 4.45708 C4.137 4.79298 4.043 4.99608 3.742 5.26958 C3.34 5.64058 2.852 5.82808 2.266 5.82808 C1.492 5.82808 1.039 5.46098 1.039 4.82808 C1.039 4.17188 1.469 3.83985 2.539 3.6836 C3.602 3.54297 3.805 3.49219 4.137 3.33985 L4.137 4.45708 Z" transform="translate(356.161, 5.87402)"/>
   <path style="fill:#000000; fill-rule:evenodd;stroke:none;" d="M1 0 L0 0 L0 8.6914 L1 8.6914 L1 0 Z" transform="translate(363.146, 3.6084)"/>
   <path style="fill:#000000; fill-rule:evenodd;stroke:none;" d="M0.656 11.2187 C1.848 9.6562 2.598 7.4883 2.598 5.61719 C2.598 3.73437 1.848 1.5625 0.656 0 L0 0 C1.051 1.70703 1.633 3.70703 1.633 5.61719 C1.633 7.5117 1.051 9.5273 0 11.2187 L0.656 11.2187 Z" transform="translate(365.449, 3.6084)"/>
   <path style="fill:#000000; fill-rule:nonzero;stroke:none;" d="M0 0 L1.6 0 L1.6 15.7998 L0 15.7998 L0 0 Z" transform="translate(331.2, 15.9004)"/>
   <path style="fill:#000000; fill-rule:nonzero;stroke:none;" d="M29.55 0 L30.45 1.6 L0 1.6 L0 0 L29.55 0 Z" transform="translate(256, 174.2)"/>
   <path style="fill:#000000; fill-rule:nonzero;stroke:none;" d="M27.75 0 L27.75 1.6 L0 1.6 L0 0 L27.75 0 Z" transform="translate(256, 170.3)"/>
   <path style="fill:#000000; fill-rule:evenodd;stroke:none;" d="M1.942 0 C0.75 1.563 0 3.735 0 5.606 C0 7.489 0.75 9.657 1.942 11.219 L2.598 11.219 C1.547 9.516 0.965 7.512 0.965 5.606 C0.965 3.707 1.547 1.696 2.598 0 L1.942 0 Z" transform="translate(276.071, 144.608)"/>
   <path style="fill:#000000; fill-rule:evenodd;stroke:none;" d="M5.879 5.84 C5.77 5.867 5.723 5.867 5.664 5.867 C5.317 5.867 5.125 5.688 5.125 5.375 L5.125 1.707 C5.125 0.598 4.317 0 2.778 0 C1.86 0 1.133 0.262 0.703 0.727 C0.418 1.051 0.297 1.406 0.274 2.027 L1.278 2.027 C1.36 1.266 1.813 0.918 2.743 0.918 C3.649 0.918 4.137 1.254 4.137 1.848 L4.137 2.109 C4.137 2.527 3.887 2.707 3.102 2.801 C1.696 2.98 1.481 3.027 1.098 3.184 C0.371 3.492 0 4.043 0 4.852 C0 5.984 0.789 6.699 2.051 6.699 C2.836 6.699 3.469 6.426 4.172 5.781 C4.246 6.426 4.555 6.699 5.2 6.699 C5.414 6.699 5.543 6.676 5.879 6.594 L5.879 5.84 Z M4.137 4.457 C4.137 4.793 4.043 4.996 3.743 5.27 C3.34 5.641 2.852 5.828 2.266 5.828 C1.493 5.828 1.039 5.461 1.039 4.828 C1.039 4.172 1.469 3.84 2.539 3.684 C3.602 3.543 3.805 3.492 4.137 3.34 L4.137 4.457 Z" transform="translate(279.695, 146.874)"/>
   <path style="fill:#000000; fill-rule:evenodd;stroke:none;" d="M3.278 3.015 L5.375 0 L4.254 0 L2.754 2.265 L1.25 0 L0.118 0 L2.203 3.062 L0 6.246 L1.133 6.246 L2.719 3.851 L4.278 6.246 L5.434 6.246 L3.278 3.015 Z" transform="translate(286.07, 147.054)"/>
   <path style="fill:#000000; fill-rule:evenodd;stroke:none;" d="M0.657 11.219 C1.848 9.657 2.598 7.489 2.598 5.618 C2.598 3.735 1.848 1.563 0.657 0 L0 0 C1.051 1.707 1.633 3.707 1.633 5.618 C1.633 7.512 1.051 9.528 0 11.219 L0.657 11.219 Z" transform="translate(292.32, 144.608)"/>
   <path style="fill:#000000; fill-rule:evenodd;stroke:none;" d="M4.184 0 C1.692 0 0 1.836 0 4.551 C0 7.281 1.68 9.105 4.196 9.105 C5.258 9.105 6.188 8.785 6.891 8.187 C7.832 7.39 8.391 6.043 8.391 4.625 C8.391 1.824 6.735 0 4.184 0 Z M4.184 0.976 C6.067 0.976 7.286 2.394 7.286 4.601 C7.286 6.699 6.032 8.129 4.196 8.129 C2.336 8.129 1.11 6.699 1.11 4.551 C1.11 2.406 2.336 0.976 4.184 0.976 Z" transform="translate(296.315, 144.468)"/>
   <path style="fill:#000000; fill-rule:nonzero;stroke:none;" d="M9.65 0 L11 0.75 L0.9 18.3 L0 16.7 L9.65 0 Z" transform="translate(285.55, 157.5)"/>
   <path style="fill:#000000; fill-rule:evenodd;stroke:none;" d="M6.535 2.691 L6.535 2.539 C6.535 2.027 6.379 1.547 6.059 1.121 C5.52 0.379 4.602 0 3.352 0 C1.445 0 0.266 0.976 0.266 2.551 C0.266 3.609 0.824 4.277 1.969 4.578 L4.125 5.148 C5.234 5.433 5.723 5.875 5.723 6.554 C5.723 7.019 5.473 7.496 5.106 7.758 C4.758 8.008 4.211 8.129 3.508 8.129 C2.555 8.129 1.922 7.902 1.504 7.402 C1.184 7.019 1.039 6.601 1.051 6.066 L0 6.066 C0.016 6.863 0.168 7.39 0.516 7.867 C1.109 8.687 2.113 9.105 3.434 9.105 C4.473 9.105 5.32 8.867 5.879 8.437 C6.461 7.972 6.832 7.199 6.832 6.449 C6.832 5.375 6.164 4.59 4.984 4.265 L2.805 3.683 C1.754 3.394 1.371 3.062 1.371 2.394 C1.371 1.511 2.149 0.929 3.317 0.929 C4.699 0.929 5.473 1.547 5.484 2.691 L6.535 2.691 Z" transform="translate(328.12, 144.468)"/>
   <path style="fill:#000000; fill-rule:evenodd;stroke:none;" d="M1.004 2.446 L0.012 2.446 L0.012 8.692 L1.004 8.692 L1.004 2.446 Z M1.004 0 L0 0 L0 1.254 L1.004 1.254 L1.004 0 Z" transform="translate(336.339, 144.608)"/>
   <path style="fill:#000000; fill-rule:evenodd;stroke:none;" d="M4.684 8.692 L7.129 1.407 L7.129 8.692 L8.176 8.692 L8.176 0 L6.641 0 L4.114 7.571 L1.539 0 L0 0 L0 8.692 L1.047 8.692 L1.047 1.407 L3.516 8.692 L4.684 8.692 Z" transform="translate(339.111, 144.608)"/>
   <path style="fill:#000000; fill-rule:evenodd;stroke:none;" d="M5.637 3.637 C5.637 2.684 5.567 2.109 5.387 1.645 C4.985 0.621 4.032 0 2.86 0 C1.122 0 0 1.324 0 3.387 C0 5.449 1.075 6.699 2.836 6.699 C4.27 6.699 5.258 5.891 5.508 4.531 L4.508 4.531 C4.231 5.352 3.672 5.781 2.875 5.781 C2.243 5.781 1.704 5.496 1.372 4.973 C1.133 4.613 1.051 4.258 1.04 3.637 L5.637 3.637 Z M1.063 2.824 C1.145 1.668 1.848 0.918 2.848 0.918 C3.864 0.918 4.567 1.707 4.567 2.824 L1.063 2.824 Z" transform="translate(348.688, 146.874)"/>
   <path style="fill:#000000; fill-rule:evenodd;stroke:none;" d="M1.707 3.465 L1.805 3.465 L2.14 3.453 C3.015 3.453 3.469 3.852 3.469 4.617 C3.469 5.422 2.973 5.899 2.14 5.899 C1.273 5.899 0.848 5.465 0.793 4.535 L0 4.535 C0.035 5.051 0.125 5.383 0.281 5.672 C0.605 6.285 1.238 6.602 2.113 6.602 C3.43 6.602 4.281 5.817 4.281 4.61 C4.281 3.797 3.965 3.348 3.195 3.086 C3.793 2.844 4.09 2.399 4.09 1.762 C4.09 0.66 3.359 0 2.14 0 C0.848 0 0.164 0.703 0.137 2.067 L0.93 2.067 C0.937 1.68 0.976 1.461 1.074 1.266 C1.254 0.914 1.652 0.696 2.148 0.696 C2.855 0.696 3.277 1.102 3.277 1.785 C3.277 2.239 3.117 2.508 2.762 2.653 C2.547 2.742 2.265 2.778 1.707 2.789 L1.707 3.465 Z" transform="translate(355.173, 149.155)"/>
   <path style="fill:#000000; fill-rule:nonzero;stroke:none;" d="M18.4 0 L18.4 1.55 L0 1.55 L0 0 L18.4 0 Z" transform="translate(307.15, 148.25)"/>
   <path style="fill:#000000; fill-rule:evenodd;stroke:none;" d="M1.106 4.735 L5.254 4.735 L5.254 3.758 L1.106 3.758 L1.106 0.981 L5.828 0.981 L5.828 0 L0 0 L0 8.692 L1.106 8.692 L1.106 4.735 Z" transform="translate(329.074, 114.608)"/>
   <path style="fill:#000000; fill-rule:evenodd;stroke:none;" d="M1.942 0 C0.75 1.563 0 3.735 0 5.606 C0 7.489 0.75 9.657 1.942 11.219 L2.598 11.219 C1.547 9.516 0.965 7.512 0.965 5.606 C0.965 3.707 1.547 1.696 2.598 0 L1.942 0 Z" transform="translate(336.202, 114.608)"/>
   <path style="fill:#000000; fill-rule:evenodd;stroke:none;" d="M5.636 3.637 C5.636 2.684 5.566 2.109 5.386 1.645 C4.984 0.621 4.031 0 2.859 0 C1.121 0 0 1.324 0 3.387 C0 5.449 1.074 6.699 2.836 6.699 C4.269 6.699 5.258 5.891 5.508 4.531 L4.508 4.531 C4.23 5.352 3.672 5.781 2.875 5.781 C2.242 5.781 1.703 5.496 1.371 4.973 C1.133 4.613 1.051 4.258 1.039 3.637 L5.636 3.637 Z M1.062 2.824 C1.144 1.668 1.847 0.918 2.847 0.918 C3.863 0.918 4.566 1.707 4.566 2.824 L1.062 2.824 Z" transform="translate(339.803, 116.874)"/>
   <path style="fill:#000000; fill-rule:evenodd;stroke:none;" d="M5.593 9.023 L5.593 0.18 L4.711 0.18 L4.711 1.016 C4.246 0.359 3.543 0 2.718 0 C1.074 0 0 1.348 0 3.422 C0 5.449 1.015 6.699 2.672 6.699 C3.543 6.699 4.136 6.391 4.601 5.711 L4.601 9.023 L5.593 9.023 Z M2.863 0.93 C3.922 0.93 4.601 1.871 4.601 3.387 C4.601 4.816 3.91 5.77 2.863 5.77 C1.765 5.77 1.039 4.805 1.039 3.352 C1.039 1.895 1.765 0.93 2.863 0.93 Z" transform="translate(346.307, 116.874)"/>
   <path style="fill:#000000; fill-rule:evenodd;stroke:none;" d="M0.656 11.219 C1.848 9.657 2.598 7.489 2.598 5.618 C2.598 3.735 1.848 1.563 0.656 0 L0 0 C1.051 1.707 1.633 3.707 1.633 5.618 C1.633 7.512 1.051 9.528 0 11.219 L0.656 11.219 Z" transform="translate(353.123, 114.608)"/>
   <path style="fill:#000000; fill-rule:nonzero;stroke:none;" d="M0 0 L1.6 0 L1.6 14.95 L0 14.95 L0 0 Z" transform="translate(330.2, 127.75)"/>
   <path style="fill:none;stroke:#000000; stroke-width:1.25; stroke-linecap:butt; stroke-linejoin:miter; stroke-dasharray:none;" d="M0 28.4 L0 0 " transform="translate(290, 85)"/>
   <path style="fill:#000000; fill-rule:nonzero;stroke:none;" d="M4 15.6 L7.95 0 C7.95 0 5.75 1.95 4 1.95 C2.25 1.95 0 0 0 0 L4 15.6 L4 15.6 " transform="translate(286, 111.4)"/>
   <path style="fill:#000000; fill-rule:evenodd;stroke:none;" d="M5.184 7.6636 C4.207 7.6176 4.039 7.4606 4.039 6.5896 L4.039 0.5 L4.684 0.5 C6.043 0.5 6.305 0.7148 6.578 2.0273 L6.867 2.0273 L6.793 0 L0.07 0 L0 2.0273 L0.285 2.0273 C0.57 0.7148 0.848 0.5 2.18 0.5 L2.824 0.5 L2.824 6.4606 C2.824 7.4726 2.695 7.6056 1.703 7.6636 L1.703 7.8906 L5.184 7.8906 L5.184 7.6636 Z" transform="translate(260.203, 97.1094)"/>
   <path style="fill:#000000; fill-rule:evenodd;stroke:none;" d="M4.828 0 L4.578 0 C4.531 0.2617 4.398 0.4063 4.195 0.4063 C4.078 0.4063 3.887 0.3594 3.672 0.2617 C3.231 0.0977 2.789 0 2.398 0 C1.227 0 0.348 0.8828 0.348 2.0391 C0.348 2.9922 0.871 3.6606 2.207 4.3636 C3.074 4.8286 3.684 5.3046 3.981 5.7576 C4.09 5.9136 4.148 6.1636 4.148 6.4606 C4.148 7.2466 3.555 7.7966 2.684 7.7966 C1.609 7.7966 0.871 7.1406 0.273 5.6876 L0 5.6876 L0.359 8.2146 L0.621 8.2146 C0.633 7.9886 0.777 7.8206 0.953 7.8206 C1.086 7.8206 1.289 7.8676 1.516 7.9536 C1.969 8.1286 2.457 8.2266 2.922 8.2266 C4.305 8.2266 5.352 7.2856 5.352 6.0546 C5.352 5.0786 4.699 4.3046 3.125 3.4456 C1.871 2.7656 1.371 2.2422 1.371 1.5859 C1.371 0.9297 1.871 0.4883 2.609 0.4883 C3.148 0.4883 3.648 0.7149 4.066 1.1445 C4.434 1.5274 4.602 1.8359 4.793 2.5391 L5.09 2.5391 L4.828 0 Z" transform="translate(267.831, 96.9414)"/>
   <path style="fill:#000000; fill-rule:evenodd;stroke:none;" d="M5.305 6.4256 L5.149 6.3676 C4.707 7.0466 4.551 7.1526 4.016 7.1526 L1.168 7.1526 L3.168 5.0546 C4.231 3.9456 4.696 3.0391 4.696 2.0977 C4.696 0.918 3.731 0 2.489 0 C1.836 0 1.215 0.2617 0.774 0.7383 C0.391 1.1445 0.211 1.5274 0.012 2.3711 L0.262 2.4336 C0.739 1.2539 1.157 0.8828 1.989 0.8828 C3.004 0.8828 3.668 1.5625 3.668 2.5625 C3.668 3.5036 3.121 4.6016 2.121 5.6636 L0 7.9136 L0 8.0586 L4.649 8.0586 L5.305 6.4256 Z" transform="translate(274.362, 96.9414)"/>
   <path style="fill:none;stroke:#000000; stroke-width:1.25; stroke-linecap:butt; stroke-linejoin:miter; stroke-dasharray:none;" d="M0 0 L42.4 0 " transform="translate(215.6, 148)"/>
   <path style="fill:#000000; fill-rule:nonzero;stroke:none;" d="M0 4 L15.6 7.95 C15.6 7.95 13.65 5.75 13.65 4 C13.65 2.25 15.6 0 15.6 0 L0 4 L0 4 " transform="translate(202, 144)"/>
   <path style="fill:#000000; fill-rule:nonzero;stroke:none;" d="M29.55 0 L30.45 1.6 L0 1.6 L0 0 L29.55 0 Z" transform="translate(90, 156.2)"/>
   <path style="fill:#000000; fill-rule:nonzero;stroke:none;" d="M27.75 0 L27.75 1.6 L0 1.6 L0 0 L27.75 0 Z" transform="translate(90, 152.3)"/>
   <path style="fill:#000000; fill-rule:evenodd;stroke:none;" d="M4.184 0 C1.691 0 0 1.836 0 4.551 C0 7.281 1.68 9.105 4.195 9.105 C5.258 9.105 6.187 8.785 6.891 8.187 C7.832 7.39 8.391 6.043 8.391 4.625 C8.391 1.824 6.734 0 4.184 0 Z M4.184 0.976 C6.066 0.976 7.285 2.394 7.285 4.601 C7.285 6.699 6.031 8.129 4.195 8.129 C2.336 8.129 1.109 6.699 1.109 4.551 C1.109 2.406 2.336 0.976 4.184 0.976 Z" transform="translate(131.253, 126.468)"/>
   <path style="fill:#000000; fill-rule:evenodd;stroke:none;" d="M2.152 0 L0 0 L0 0.649 L2.152 0.649 L2.152 0 Z" transform="translate(140.55, 127.987)"/>
   <path style="fill:#000000; fill-rule:evenodd;stroke:none;" d="M6.793 0 L5.746 0 L5.746 7.106 L1.203 0 L0 0 L0 8.692 L1.047 8.692 L1.047 1.645 L5.543 8.692 L6.793 8.692 L6.793 0 Z" transform="translate(144.038, 126.608)"/>
   <path style="fill:#000000; fill-rule:evenodd;stroke:none;" d="M2.699 4.864 L2.699 6.395 L3.492 6.395 L3.492 4.864 L4.441 4.864 L4.441 4.149 L3.492 4.149 L3.492 0 L2.906 0 L0 4.024 L0 4.864 L2.699 4.864 Z M2.699 4.149 L0.695 4.149 L2.699 1.356 L2.699 4.149 Z" transform="translate(152.049, 131.155)"/>
   <path style="fill:#000000; fill-rule:evenodd;stroke:none;" d="M1.11 4.95 L3.969 4.95 C4.957 4.95 5.399 5.426 5.399 6.496 L5.387 7.274 C5.387 7.809 5.485 8.332 5.637 8.692 L6.985 8.692 L6.985 8.418 C6.567 8.133 6.485 7.821 6.461 6.664 C6.449 5.235 6.223 4.805 5.281 4.399 C6.258 3.911 6.653 3.329 6.653 2.325 C6.653 0.825 5.723 0 4.004 0 L0 0 L0 8.692 L1.11 8.692 L1.11 4.95 Z M1.11 3.973 L1.11 0.981 L3.789 0.981 C4.41 0.981 4.766 1.075 5.043 1.313 C5.34 1.563 5.496 1.957 5.496 2.469 C5.496 3.508 4.969 3.973 3.789 3.973 L1.11 3.973 Z" transform="translate(157.908, 126.608)"/>
   <path style="fill:#000000; fill-rule:evenodd;stroke:none;" d="M4.371 1.868 L2.5 1.868 L2.5 0 L1.867 0 L1.867 1.868 L0 1.868 L0 2.496 L1.867 2.496 L1.867 4.364 L2.5 4.364 L2.5 2.496 L4.371 2.496 L4.371 1.868 Z" transform="translate(165.915, 126.526)"/>
   <path style="fill:#000000; fill-rule:nonzero;stroke:none;" d="M11.3 0 L12.65 0.8 L0.9 21.2 L0 19.6 L11.3 0 Z" transform="translate(119.55, 136.6)"/>
   <path style="fill:#000000; fill-rule:evenodd;stroke:none;" d="M5.1836 7.664 C4.2071 7.618 4.0391 7.461 4.0391 6.59 L4.0391 0.5 L4.6836 0.5 C6.043 0.5 6.3047 0.715 6.5781 2.028 L6.8672 2.028 L6.793 0 L0.0703 0 L0 2.028 L0.2852 2.028 C0.5703 0.715 0.8477 0.5 2.1797 0.5 L2.8242 0.5 L2.8242 6.461 C2.8242 7.473 2.6953 7.606 1.7031 7.664 L1.7031 7.891 L5.1836 7.891 L5.1836 7.664 Z" transform="translate(84.9033, 195.109)"/>
   <path style="fill:#000000; fill-rule:evenodd;stroke:none;" d="M10.1442 0 L7.7695 0 L5.1367 6.02 L2.3828 0 L0.0234 0 L0.0234 0.227 C1 0.286 1.1562 0.43 1.1562 1.297 L1.1562 6.137 C1.1562 7.368 0.9883 7.594 0 7.664 L0 7.891 L2.8008 7.891 L2.8008 7.664 C1.8828 7.618 1.6797 7.344 1.6797 6.137 L1.6797 1.336 L4.6719 7.891 L4.8398 7.891 L7.8902 1.059 L7.8902 6.461 C7.8902 7.45 7.7461 7.606 6.8047 7.664 L6.8047 7.891 L10.1442 7.891 L10.1442 7.664 C9.2732 7.606 9.1052 7.438 9.1052 6.59 L9.1052 1.297 C9.1052 0.454 9.2622 0.297 10.1442 0.227 L10.1442 0 Z" transform="translate(92.1758, 195.109)"/>
   <path style="fill:#000000; fill-rule:evenodd;stroke:none;" d="M4.828 0 L4.578 0 C4.531 0.262 4.399 0.407 4.196 0.407 C4.078 0.407 3.887 0.36 3.672 0.262 C3.231 0.098 2.789 0 2.399 0 C1.227 0 0.348 0.883 0.348 2.039 C0.348 2.993 0.871 3.661 2.207 4.364 C3.074 4.829 3.684 5.305 3.981 5.758 C4.09 5.914 4.149 6.164 4.149 6.461 C4.149 7.247 3.555 7.797 2.684 7.797 C1.61 7.797 0.871 7.141 0.274 5.688 L0 5.688 L0.36 8.215 L0.621 8.215 C0.633 7.989 0.778 7.821 0.953 7.821 C1.086 7.821 1.289 7.868 1.516 7.954 C1.969 8.129 2.457 8.227 2.922 8.227 C4.305 8.227 5.352 7.286 5.352 6.055 C5.352 5.079 4.699 4.305 3.125 3.446 C1.871 2.766 1.371 2.243 1.371 1.586 C1.371 0.93 1.871 0.489 2.61 0.489 C3.149 0.489 3.649 0.715 4.067 1.145 C4.434 1.528 4.602 1.836 4.793 2.539 L5.09 2.539 L4.828 0 Z" transform="translate(103.199, 194.941)"/>
   <path style="fill:#000000; fill-rule:evenodd;stroke:none;" d="M0 0 L0 0.75 L2.934 0.75 L2.934 0 L0 0 Z" transform="translate(109.836, 199.938)"/>
   <path style="fill:#000000; fill-rule:evenodd;stroke:none;" d="M5.566 5.137 L5.566 2.371 L5.293 2.371 C5.148 3.325 4.933 3.504 3.98 3.504 L2.25 3.504 L2.25 0.86 C2.25 0.524 2.312 0.454 2.633 0.454 L4.254 0.454 C5.601 0.454 5.863 0.633 6.066 1.704 L6.363 1.704 L6.328 0 L0 0 L0 0.227 C0.879 0.297 1.035 0.454 1.035 1.297 L1.035 6.461 C1.035 7.45 0.906 7.606 0 7.664 L0 7.891 L3.336 7.891 L3.336 7.664 C2.418 7.618 2.25 7.45 2.25 6.59 L2.25 3.993 L3.98 3.993 C4.945 3.993 5.148 4.172 5.293 5.137 L5.566 5.137 Z" transform="translate(113.511, 195.109)"/>
   <path style="fill:#000000; fill-rule:evenodd;stroke:none;" d="M2.6094 2.621 L0 2.621 L0 3.4101 L2.6094 3.4101 L2.6094 6.0312 L3.3945 6.0312 L3.3945 3.4101 L6.0078 3.4101 L6.0078 2.621 L3.3945 2.621 L3.3945 0 L2.6094 0 L2.6094 2.621 Z" transform="translate(52.1094, 41.9688)"/>
   <path style="fill:#000000; fill-rule:evenodd;stroke:none;" d="M5.184 7.664 C4.207 7.618 4.039 7.461 4.039 6.59 L4.039 0.5 L4.684 0.5 C6.043 0.5 6.305 0.715 6.578 2.028 L6.867 2.028 L6.793 0 L0.07 0 L0 2.028 L0.285 2.028 C0.57 0.715 0.848 0.5 2.18 0.5 L2.824 0.5 L2.824 6.461 C2.824 7.473 2.695 7.606 1.703 7.664 L1.703 7.891 L5.184 7.891 L5.184 7.664 Z" transform="translate(227.203, 127.109)"/>
   <path style="fill:#000000; fill-rule:evenodd;stroke:none;" d="M4.828 0 L4.578 0 C4.531 0.262 4.398 0.407 4.195 0.407 C4.078 0.407 3.887 0.36 3.672 0.262 C3.231 0.098 2.789 0 2.398 0 C1.227 0 0.348 0.883 0.348 2.039 C0.348 2.993 0.871 3.661 2.207 4.364 C3.074 4.829 3.684 5.305 3.981 5.758 C4.09 5.914 4.148 6.164 4.148 6.461 C4.148 7.247 3.555 7.797 2.684 7.797 C1.609 7.797 0.871 7.141 0.273 5.688 L0 5.688 L0.359 8.215 L0.621 8.215 C0.633 7.989 0.777 7.821 0.953 7.821 C1.086 7.821 1.289 7.868 1.516 7.954 C1.969 8.129 2.457 8.227 2.922 8.227 C4.305 8.227 5.352 7.286 5.352 6.055 C5.352 5.079 4.699 4.305 3.125 3.446 C1.871 2.766 1.371 2.243 1.371 1.586 C1.371 0.93 1.871 0.489 2.609 0.489 C3.148 0.489 3.648 0.715 4.066 1.145 C4.434 1.528 4.602 1.836 4.793 2.539 L5.09 2.539 L4.828 0 Z" transform="translate(234.831, 126.941)"/>
   <path style="fill:#000000; fill-rule:evenodd;stroke:none;" d="M1.312 4.125 C2.015 4.125 2.265 4.149 2.527 4.231 C3.289 4.497 3.769 5.188 3.769 6.02 C3.769 7.036 3.101 7.797 2.218 7.797 C1.882 7.797 1.644 7.715 1.203 7.426 C0.859 7.211 0.656 7.129 0.453 7.129 C0.179 7.129 0 7.297 0 7.547 C0 7.965 0.511 8.227 1.347 8.227 C2.218 8.227 3.125 7.938 3.695 7.489 C4.293 6.997 4.625 6.282 4.625 5.45 C4.625 4.829 4.433 4.282 4.101 3.911 C3.851 3.649 3.625 3.504 3.113 3.278 C3.922 2.719 4.218 2.278 4.218 1.633 C4.218 0.657 3.468 0 2.359 0 C1.765 0 1.242 0.192 0.812 0.586 C0.453 0.907 0.273 1.215 0.023 1.93 L0.203 1.981 C0.679 1.098 1.214 0.715 1.968 0.715 C2.754 0.715 3.277 1.227 3.277 1.993 C3.277 2.422 3.101 2.836 2.8 3.149 C2.445 3.504 2.109 3.684 1.3 3.969 L1.312 4.125 Z" transform="translate(241.515, 126.941)"/>
   <path style="fill:#000000; fill-rule:evenodd;stroke:none;" d="M2.6094 2.621 L0 2.621 L0 3.41 L2.6094 3.41 L2.6094 6.031 L3.3945 6.031 L3.3945 3.41 L6.0076 3.41 L6.0076 2.621 L3.3945 2.621 L3.3945 0 L2.6094 0 L2.6094 2.621 Z" transform="translate(94.3594, 169.969)"/>
  </g>
 </g>
</svg>
