<?xml version="1.0"?><svg width="5000" height="6000" xmlns="http://www.w3.org/2000/svg">
 <title>Hibiscus Edit jm83</title>
 <metadata id="metadata8159">image/svg+xml</metadata>
 <g>
  <title>Layer 1</title>
  <g id="svg_1">
   <path id="path3416-4" d="m3708.006836,3758.728271c-314.228271,-69.841309 -677.62207,-74.86084 -916.23877,-332.531738c-78.554443,-16.752686 -282.468994,-212.243652 -91.75,-186.253906c127.115234,8.729248 372.875977,159.282715 403.363037,143.087402c-105.362549,-94.02417 -336.782959,-152.870117 -390.525146,-217.042969c405.597656,-40.068604 819.61499,209.407227 995.150879,592.741211zm329.570557,-510.715576c-234.245117,63.322754 -512.097656,156.591797 -729.419922,-6.258057c-91.645752,-77.575195 -338.264404,-96.311279 -344.242432,-197.823975c191.965576,-25.702881 378.050049,45.351318 566.82666,67.498291c-116.000977,-119.767578 -295.281982,-94.841797 -433.525635,-163.631592c139.98877,-59.59668 390.443848,-14.094971 558.147461,55.73999c139.753662,57.291016 269.651367,140.658691 382.213867,244.475342m264.699951,-396.869141c-224.94165,44.513672 -464.771729,185.064941 -690.371094,66.9021c-73.507324,-72.863281 -325.581299,-25.713379 -300.794434,-138.048096c180.757568,-31.337891 365.313721,-10.422852 544.204346,23.906006c-171.017578,-67.601807 -354.237061,-100.428467 -536.95752,-98.727295c324.452637,-124.710205 703.516113,-61.912354 983.918701,145.967285m-450.41333,-1423.478882c-104.068848,661.875854 -514.342529,1253.393188 -1055.199707,1603.96814c-319.859619,175.329834 -686.228027,231.285156 -1043.683838,232.429688c82.902344,-151.395996 263.765991,-76.321289 396.617188,-86.766113c154.053711,-39.26709 310.463867,-84.40332 457.269775,-152.409424c483.220947,-232.822021 865.265869,-665.625488 1098.848633,-1160.521973c63.947754,-143.140259 113.103027,-293.658447 144.226074,-448.327515l2.734131,3.166382l-0.812256,8.460815l0,0zm-834.755127,2666.600708c-280.214111,-170.219971 -607.192627,-296.242188 -799.52002,-584.973877c-179.306763,-18.544922 -56.16333,-299.531006 59.716309,-134.449707c180.445801,76.54126 335.553467,206.426025 468.259033,353.498291c-118.540527,-211.269775 -327.780029,-344.326416 -539.415283,-434.814941c361.219482,9.996582 738.270752,276.667725 788.465088,668.960693c8.983154,43.63208 16.145996,87.651611 22.494873,131.779541l0,0zm-321.376953,-2566.163818c303.021729,158.226685 536.683594,529.754883 443.182617,889.979248c36.138672,100.079346 -161.66748,245.203125 -103.920898,61.026855c-0.062988,-186.312744 -32.414551,-378.993164 -130.063965,-537.971313c59.242188,273.265015 103.936768,582.96106 -38.936279,837.309448c62.350098,-274.217285 -67.99585,-535.226318 -140.633301,-790.815063c-33.724121,-150.068481 -46.096924,-306.071899 -29.637451,-459.533691m-158.142578,393.062256c213.547119,262.802856 305.580566,680.209106 105.81543,979.107544c-86.62793,-123.953857 112.549072,-382.108643 -32.957275,-436.53833c-9.96582,160.990967 -43.901123,322.540771 -129.186035,460.349121c-37.752686,67.842041 -174.881104,224.76001 -102.496826,63.268555c93.60083,-348.901611 -10.846436,-736.462158 158.815186,-1066.19165m-361.791504,141.782227c156.508789,247.591064 267.039795,587.977051 114.201172,865.559814c-3.077881,119.849854 -274.736816,196.219727 -141.488525,29.679199c83.003174,-132.157227 113.126465,-409.305176 87.208252,-487.470703c-6.402588,227.444092 -113.843994,435.862305 -241.543457,614.109131c145.599854,-303.589844 -44.328979,-677.703857 150.155273,-965.507568l15.253418,-28.482178l16.242188,-27.873779m2382.869385,522.55127c-268.662109,22.800293 -546.434082,85.706787 -810.757813,-0.999512c-80.938477,32.088135 -282.261475,-72.736084 -89.998047,-82.181396c106.252441,-33.572021 380.691895,1.619873 385.163574,-41.463867c-148.169922,-32.068604 -300.67749,-23.278076 -449.967773,-45.970703c309.717529,-153.092041 749.39502,-145.155273 965.560059,170.615479l0,0zm49.868164,-528.064453c-293.659668,160.851563 -629.802002,191.342529 -953.906738,227.2229c171.852051,-128.415039 384.772217,-165.909424 586.819336,-210.861572c-126.321777,-65.663696 -377.606689,145.64624 -418.558838,5.97876c219.492188,-193.915527 546.982178,-150.787354 785.64624,-22.340088l0,0zm165.078613,-497.198975c-124.908203,221.137939 -374.67041,338.621338 -615.220703,331.314697c-112.225342,7.122192 -298.841553,112.438354 -354.297607,102.382568c138.664063,-144.923462 326.488525,-216.101807 500.358643,-301.736572c-165.832031,-4.543213 -298.983887,135.970093 -465.167236,129.095947c187.318359,-319.448242 619.314209,-424.853149 934.326904,-261.056641l0,0zm-207.512207,-515.5271c-87.706055,202.673218 -245.033203,383.641113 -452.163574,451.692993c-47.104736,98.688477 -219.861816,71.94165 -82.308105,-27.658691c48.25708,-43.497925 171.686035,-150.82605 135.600098,-175.895874c-29.305664,75.126831 -243.392578,169.432495 -134.966064,18.631958c128.516846,-166.252808 331.454834,-259.460571 533.837646,-266.770386zm-543.334473,-558.197296c147.806152,153.457672 219.480469,425.143646 82.882324,610.194489c13.045898,101.161133 -186.284424,105.50647 -79.995117,9.865112c55.800537,-61.874878 29.236572,-381.057678 3.86377,-155.016968c16.269043,80.385986 -127.04834,330.55249 -131.205322,146.969116c4.346191,-208.664612 11.301758,-431.498657 124.454346,-612.011749l0,0zm-1077.986572,794.207062c351.798828,147.872925 546.074707,606.960693 415.468262,978.905518c-19.141357,-145.181885 -36.501953,-410.319824 -99.817627,-470.254517c51.770508,208.642822 44.991455,429.027954 4.871826,639.157104c-24.020264,-302.533447 -159.232178,-576.584717 -274.156006,-849.276489c-24.189209,-97.812012 -34.585938,-198.497314 -46.366455,-298.531616l0,0zm666.249512,637.845703c-47.732666,-194.639038 -79.777588,-405.509033 -207.663818,-563.963501c96.263916,226.712769 136.383545,482.767334 95.386719,728.394165c-43.384521,-275.835327 -181.091797,-519.720581 -283.700684,-773.369751c-88.703369,-146.372803 55.969727,-372.267761 180.678955,-184.140625c192.856201,206.209839 244.5271,515.55127 215.298828,793.079712zm-170.220947,-1245.780701c303.274658,158.308716 448.78125,580.425598 308.218018,903.748596c-37.274658,-93.959839 -30.329834,-350.193359 -91.362793,-349.603638c10.190674,84.097534 66.510254,326.307129 0.818359,320.878174c-83.924316,-232.920898 -269.773926,-450.63501 -220.510254,-715.676453c0.769043,-53.101624 -4.655518,-106.529358 2.837158,-159.347656l-0.000488,0.000977l0,0z" fill="#abad3e"/>
   <g id="g4206" fill="#cdde87">
    <g id="g4208" fill="#cdde87">
     <g id="g4214" fill="#cdde87">
      <g id="g4216" fill="#cdde87">
       <path id="path4224" d="m3344.450439,4394.525879c30.040283,-2.27002 52.845703,-34.341309 62.565674,-88.001953c4.613525,-25.426758 6.668945,-50.557617 6.668945,-75.162598c0,-187.297119 -119.668945,-343.564209 -147.486816,-365.175537c0.031494,0.087646 0.188965,0.482422 0.188965,0.482422c23.403076,45.404297 31.665527,87.35498 31.665527,127.189453c0,49.077393 -12.561523,94.898438 -24.902832,139.897217c-11.124756,40.546875 -21.830322,79.581055 -21.830322,118.274902c0,18.694824 2.506104,37.3125 8.661133,55.985352c17.835449,54.208984 51.776367,88.977539 84.469727,86.510742m523.668457,162.429199c17.982178,-3.20166 29.694336,-28.463867 29.159668,-62.837891l0,-0.01123c-4.036865,-258.205078 -81.334717,-393.519043 -109.037109,-413.605957c-3.365479,-2.434326 -4.666016,-2.116455 -4.67627,-2.116455c-0.650146,0.657715 -1.834961,6.776123 5.27417,24.418213c39.582031,98.450684 26.695557,170.806641 15.32959,234.642578c-8.451172,47.45459 -16.430664,92.277832 -1.006836,140.664551c20.069092,63.166992 47.540527,81.949707 64.956787,78.846191m-35.975098,-1817.820068c106.216309,203.678467 139.265869,341.196289 101.057373,420.415527c-56.054443,116.005371 -196.264404,197.604004 -308.918457,263.172119c-102.557129,59.702148 -191.137207,111.24707 -181.197021,166.782471c4.529785,25.317383 20.079346,43.28833 43.776367,50.601807c42.622803,13.157227 98.687744,-9.813477 142.810059,-58.496094l23.099121,-27.488525c106.184814,-129.776855 388.208496,-474.525391 923.201416,-40.51416c0.954102,0.767578 1.425781,2.02832 1.227051,3.278564c-25.280273,155.993164 -169.306641,239.050049 -405.583008,233.885742c-110.504883,-2.368408 -178.104004,35.426758 -179.624268,73.342041c-1.226807,30.405029 42.581055,68.923584 170.051025,77.366211c63.992188,4.232422 131.098145,-5.42749 202.13623,-15.668213c215.095703,-30.975098 437.510742,-63.002686 605.527344,283.083984c0.492676,0.997559 0.47168,2.203613 -0.052734,3.201172c-1.006348,1.908203 -104.213867,189.249023 -393.451172,32.32373c-131.758301,-71.5 -170.638184,-64.63623 -182.077637,-54.197754c-9.856445,9.001953 -5.609863,25.470703 -3.32373,32.125977c15.549805,45.36084 79.845703,75.875488 154.291504,111.213867c117.61377,55.832031 264.020508,125.325684 317.160156,290.397461c57.197266,177.714355 -49.543457,376.26123 -110.200684,444.680176c-0.901855,1.030762 -2.306641,1.370605 -3.544434,0.876953c-19.837891,-7.828613 -43.775879,-13.716797 -71.509766,-20.547363c-76.993652,-18.935547 -182.434082,-44.88916 -279.066895,-138.625488c-102.022461,-98.944336 -123.254883,-200.564453 -145.735352,-308.137695c-19.345215,-92.596191 -39.351563,-188.338867 -114.342285,-286.41748c-57.732422,-75.414551 -96.024902,-58.758789 -106.384277,-51.862305c-19.848633,13.212402 -26.0979,43.222168 -14.239014,68.320313c166.444092,352.555176 95.059814,425.546875 -12.991455,536.025879c-36.447021,37.269043 -77.759033,79.526367 -114.761963,138.625488c-0.503174,0.778809 -1.310547,1.315918 -2.20166,1.480469c-0.891357,0.164063 -1.866699,-0.087891 -2.548096,-0.657715l-42.413086,-33.804199c-96.391357,-76.105469 -187.446289,-147.989258 -228.097656,-279.147461c-27.314453,-88.067871 6.930664,-191.058105 40.053711,-290.616699c23.801758,-71.51123 46.261475,-139.052734 45.286133,-197.724609c-1.541016,-90.183594 -95.41626,-212.373047 -168.341797,-245.442139c-17.227539,-7.795898 -41.071045,-13.980225 -56.862061,0.931885c-21.977051,20.733887 -46.512451,77.75 36.174561,226.703613c149.09082,268.621582 2.296143,476.083008 -94.839844,613.392578c-57.480469,81.214844 -99.002441,139.919434 -64.736328,178.711914c1.038086,1.17334 1.15332,2.927734 0.314697,4.243164c-0.849365,1.315918 -2.443115,1.853027 -3.879639,1.283203c-3.428711,-1.348633 -343.142822,-138.000488 -345.030029,-370.965332c-1.111572,-138.570801 67.99707,-275.935059 123.54834,-386.293457c37.401367,-74.340332 69.706543,-138.526855 67.053955,-178.854736c-3.848145,-59.20874 -15.95874,-94.580811 -37.013184,-108.154541c-24.105957,-15.526123 -57.87915,-0.668945 -90.540771,13.716309c-21.641846,9.517578 -42.088379,18.519531 -60.374512,19.539063c-19.198975,1.09668 -34.664551,-16.380859 -37.642334,-42.509521c-3.470947,-30.64624 11.722412,-67.267822 53.296631,-75.25c0,-0.022217 56.31665,-13.135498 56.31665,-13.135498c147.864258,-37.389404 350.388184,-88.594238 887.698242,244.553955c368.811035,228.677979 591.666016,441.544189 662.368164,632.668213c2.537598,6.853027 4.875488,13.081055 6.228516,14.484375c0.03125,-0.526367 0.681152,-1.666992 1.142578,-4.111816c0.010742,-0.120605 0.199707,-1.271973 0.199707,-3.541504c0,-24.19873 -19.377441,-175.356934 -442.837402,-562.856934c-15.864258,-14.505859 -23.843262,-27.071289 -23.843262,-37.487549c0,-2.521973 0.471191,-4.923096 1.404297,-7.181885c8.252441,-20.032471 52.02832,-23.047607 87.007324,-19.538818l41.322754,6.227783c77.853516,12.707764 239.862305,39.17627 281.929688,4.637939c5.924316,-4.857178 9.069336,-10.591797 9.646484,-17.553955c0.565918,-7.006592 -1.53125,-12.938477 -6.406738,-18.135742c-32.179688,-34.275146 -172.850586,-24.681152 -275.554199,-17.675049l-90.226074,4.835449c-85.864746,1.118408 -422.611328,-29.637207 -501.492188,-200.443604c-11.7854,-25.547363 -12.540527,-49.044678 -2.2229,-69.82251c34.633057,-69.789795 187.875977,-96.269287 299.764893,-115.610596c48.777832,-8.420898 90.907715,-15.701416 109.78125,-24.418457c65.029785,-24.429199 161.15918,-69.822266 160.278809,-95.095703c-0.094238,-2.807129 -3.460449,-5.263184 -6.249512,-6.820068c-45.757813,-25.426758 -276.937988,-15.010742 -373.057373,47.696045c0,0.010742 -54.73291,40.086426 -54.73291,40.086426c-101.089355,77.717041 -239.537354,184.150391 -532.633545,134.733154l-26.632813,-3.114014c-34.717041,-3.322266 -74.089355,-7.072266 -80.936279,-33.113281c-6.742188,-25.580322 11.303223,-80.096191 244.769287,-257.547119c76.249512,-57.969971 206.72876,-228.118652 205.816406,-300.0354c-0.157227,-11.863525 -3.774414,-20.174805 -11.061768,-25.404785c-7.507568,-5.383545 -18.055908,-6.513184 -31.351318,-3.333252c-69.611816,16.644287 -210.398438,154.260742 -316.478516,347.588623c-123.349365,224.807129 -278.40625,330.769043 -377.366699,336.053711c-12.886475,0.701904 -20.299561,-2.094238 -22.637939,-8.519531c-7.329102,-20.053955 45.191895,-66.42334 114.61499,-124.963379l40.347656,-34.867432c84.039795,-78.692871 105.681396,-160.751953 144.991211,-309.727783l2.64209,-9.945068c105.304199,-398.354492 181.773682,-540.356934 625.827148,-569.687256c1.258057,-0.087646 2.464111,0.603027 3.082764,1.776123" fill="#ddd687"/>
      </g>
     </g>
    </g>
   </g>
   <g id="g3876" fill="#89a02c">
    <g id="g3878" fill="#89a02c">
     <g id="g3884" fill="#89a02c">
      <g id="g3886" fill="#89a02c">
       <path id="path3894" d="m2750.268066,1456.376221c-56.526611,-47.356079 -120.612793,-101.027832 -209.96875,-113.143677c-16.43042,-2.22583 -17.908691,-6.216919 -17.929932,-6.260864l0,-0.043823c0,-0.186401 0.262207,-0.964844 1.750977,-2.149048c19.523682,-15.756104 170.05127,-33.003418 379.935791,92.771484c32.35791,19.418335 50.749023,56.906128 40.976563,83.58313c-8.241211,22.521118 -34.465088,30.63501 -71.939697,22.269043c-42.108887,-9.429565 -81.324219,-42.268555 -122.824951,-77.026245m-508.968262,214.127441c55.771484,-4.835327 197.941895,-4.780396 313.354004,100.019165c39.215088,35.645752 54.974365,73.177612 42.140381,100.457642c-12.330811,26.172363 -49.134033,36.983398 -93.822754,27.542969c-50.193115,-10.591797 -87.53125,-50.886719 -127.082031,-93.53894c-53.506592,-57.728638 -108.890137,-117.36499 -204.568848,-120.128052c8.808105,-4.166626 32.116943,-11.063354 69.979248,-14.352783m-181.228271,443.112305c-20.760864,-17.762695 -37.149536,-31.819336 -39.424805,-48.924072c-0.429932,-3.125 0.62915,-5.537109 3.344849,-7.576416c14.522095,-11.008545 64.463745,-5.219238 115.652954,20.942139c40.735596,20.821777 135.984375,83.528564 140.356689,215.739502c0.60791,18.957764 -26.548828,55.415039 -55.446289,59.296387c-27.461182,3.67334 -48.798828,-23.244873 -60.102051,-75.820068c-19.533936,-91.039063 -68.573975,-133.022461 -104.381348,-163.657471m-607.855225,-781.348022l-0.083862,0l0.083862,0zm1132.645508,-589.78009c-18.139404,66.390625 -35.272461,129.122314 -61.789795,182.560486c-50.361084,101.436768 -94.462158,123.94165 -116.900879,112.400269c-30.753418,-15.816406 -36.834961,-93.787842 6.941406,-192.195068c90.005859,-202.475525 79.583496,-366.464203 -29.338135,-461.733398c-0.98584,-0.862885 -2.348633,-1.041595 -3.502197,-0.465973c-524.538818,259.367523 -365.990112,666.510284 -306.286621,819.776764l12.404053,32.981445c24.955078,73.407959 12.634766,130.577393 -10.642578,154.67749c-13.798584,14.276001 -31.267212,17.905151 -50.549805,10.50415c-45.736938,-17.58728 -52.541992,-118.746582 -60.395386,-235.881348c-8.619019,-128.542358 -19.387329,-288.515747 -86.860352,-391.774902c-46.062134,-70.488037 -162.417725,-106.685425 -355.714722,-110.63269c-1.384033,-0.027466 -2.652832,0.877136 -3.124634,2.247742c-139.654053,398.768005 -59.913208,531.979065 203.572632,810.984192c96.706055,102.376465 97.786011,106.038696 125.435913,199.720093l5.766968,19.429199c8.93335,29.988281 6.280762,54.921753 -7.423706,70.206299c-12.215332,13.596191 -32.798096,18.716675 -53.737305,13.376831c-26.349609,-6.721313 -46.544312,-27.258057 -54.04126,-54.965454c-103.490234,-382.368408 -270.479492,-391.436035 -285.662109,-391.447021c-93.801758,-66.884033 -309.998657,25.492676 -354.61377,61.324951c-1.216309,0.997803 -1.625244,2.752075 -0.943604,4.221436c14.710815,31.797363 87.05957,295.232666 87.772583,297.875122c77.685791,221.364136 148.47229,263.698486 240.040405,299.366211c63.866211,24.889771 120.371704,25.251587 195.069092,1.239136c108.701294,-34.889404 155.025513,14.166138 179.907227,40.503174c10.223267,10.833008 17.615234,18.650757 24.567139,12.455933c2.484985,-2.214966 5.148193,-6.589844 3.774658,-14.857056c-4.875732,-29.396118 -58.25647,-91.203613 -157.342896,-130.47876c-180.179688,-71.500122 -290.464355,-222.449707 -317.642334,-300.791748c-5.494263,-15.832886 -5.756348,-24.615479 -4.173096,-27.575928c4.603027,-8.552368 13.756714,-13.201416 27.209473,-13.793457c69.517578,-3.059204 240.407471,106.520996 360.736938,291.943237c38.544067,59.362305 75.630615,86.269409 110.2323,79.953857c56.620605,-10.350586 83.68335,-103.867676 90.624634,-132.276978c23.109619,-94.503662 -6.469482,-267.733398 -158.768677,-470.52356c-104.255737,-138.88855 -133.666992,-296.025391 -116.869629,-383.248779c5.054077,-26.273315 14.081909,-44.379211 25.427002,-50.972168c4.980591,-2.891418 11.533936,-2.123901 19.460815,2.316772c66.015625,36.923279 192.772583,297.949707 199.955078,390.765015c20.435913,264.838867 99.967163,306.197266 123.852661,312.567749c22.480469,5.997559 44.394775,-3.026245 57.239502,-23.486206c157.028076,-251.04541 109.393311,-438.430298 77.864014,-562.414673c-8.367188,-32.948608 -15.602295,-61.388489 -18.422852,-86.771545c-11.942871,-107.891663 75.81958,-258.408142 115.380371,-286.25824c5.924316,-4.166504 10.663574,-5.618225 13.337402,-4.083191c19.429199,11.142273 18.800293,116.005432 13.641357,183.779724c-0.272705,20.69574 -10.128906,60.675964 -21.515869,106.959717c-26.454346,107.426636 -62.691895,254.556274 -20.341553,316.243042c11.974121,17.455566 29.663086,27.192139 52.542236,28.946533c155.644043,11.951294 279.89502,-262.955139 314.276367,-347.505371l13.054199,-32.688721c35.618652,-89.786865 101.91748,-256.913635 149.384521,-271.181824c6.301758,-1.891357 11.900879,-0.917725 17.143555,2.973572c43.650391,32.482605 -54.439941,191.167725 -96.349609,258.929993l-19.838379,32.989258c-14.144775,26.274353 -29.830811,71.338867 -15.193115,87.785767c7.580811,8.497559 21.327148,7.894531 40.90332,-1.754333c442.302246,-218.072632 619.4729,-139.771118 638.220459,-130.122314c8.189209,4.207092 10.957275,7.099548 12.058105,8.716858c-3.156006,0.190796 -9.625488,-0.494507 -16.661133,-1.247803c-207.829346,-22.846924 -468.547119,72.503418 -774.907227,283.371155c-456.237549,314.037109 -623.834839,796.555908 -683.139893,1056.230347c-8.472168,36.830078 10.537842,58.627686 19.10437,66.291992c13.526001,12.115967 30.638062,16.808838 42.538818,11.66626c7.832642,-3.376953 12.551025,-10.701416 13.327026,-20.613281c0.691895,-8.694824 6.668457,-28.628662 20.802734,-34.856445c11.135376,-4.901367 25.091431,-0.230225 41.38562,13.881104c19.61792,16.962402 16.094849,52.388916 11.64917,97.256104c-5.871704,59.230713 -13.169556,132.923828 30.659058,198.7771c60.322021,90.709961 140.220459,144.929932 237.492432,161.135742c131.098389,21.852295 252.423828,-33.442139 290.643066,-63.627686c0.838623,-0.657959 1.362793,-1.644775 1.362793,-2.730225c-0.010254,-1.085449 -0.461182,-2.061279 -1.300049,-2.697266l-9.248047,-7.094238c-34.591064,-25.689697 -98.981445,-73.550293 -99.998779,-289.541992c-1.058838,-234.050049 -183.943848,-392.806519 -277.609131,-408.76001c-46.775146,-7.982178 -76.32251,-23.036621 -90.320801,-46.029297c-10.778809,-17.718872 -12.299072,-40.130493 -4.665771,-68.506836c5.169189,-19.221069 15.612549,-32.148071 31.026123,-38.409058c27.460938,-11.139893 70.387939,-0.537231 114.898193,28.387329c29.065186,18.870239 63.824219,73.309326 104.077148,136.355835c65.16626,102.058472 146.23877,229.061157 255.149902,295.528687c177.579346,108.406982 405.488525,-122.112793 407.77417,-124.448242c1.058838,-1.085449 1.289551,-2.784912 0.555908,-4.133545c-0.734131,-1.348633 -2.233398,-2.028564 -3.68042,-1.622803c-41.595459,11.326416 -70.943604,-52.344971 -111.574219,-140.456421c-68.657959,-148.932129 -172.399902,-373.980347 -430.601074,-371.348999c-142.820557,1.46936 -177.128662,-46.730957 -184.877197,-75.600708c-6.091797,-22.795532 10.275879,-41.96167 25.070557,-54.022583c54.460693,-44.406616 174.3396,-65.721802 241.508545,-25.580566c44.562744,26.633057 95.41626,85.304565 149.269043,147.429932c77.486328,89.405396 157.60498,181.869873 234.766113,199.818848c114.58374,26.687866 202.461426,-18.519165 295.476807,-66.335693l40.90332,-20.76709c0.786133,-0.405518 1.415283,-1.151245 1.708984,-2.050293c0.261963,-0.888062 0.178223,-1.864014 -0.241211,-2.686279c-28.111328,-53.814331 -46.659912,-105.369751 -64.589844,-155.236816c-59.01123,-164.161865 -105.639404,-293.829224 -445.217285,-316.558716c-24.483154,-1.644775 -45.453613,-22.992798 -46.764404,-47.608398c-1.64624,-30.996948 27.450439,-55.075073 77.83252,-64.39502c101.393066,-18.738525 195.415039,12.773804 286.333252,43.211548c107.579346,36.051514 209.203125,70.096558 321.783936,28.167969c106.489014,-39.647949 164.703613,-118.950562 207.190186,-176.829346c15.287598,-20.81842 28.478027,-38.801453 41.605957,-52.259399c0.922363,-0.945129 1.226318,-2.371643 0.786133,-3.632568c-28.341797,-81.015198 -156.04248,-314.422913 -316.583252,-349.730042c-144.917969,-31.838989 -266.652344,72.598816 -364.459473,156.533875c-61.727051,52.958984 -115.034668,98.694458 -154.794922,90.855896c-5.966064,-1.17865 -20.173828,-5.345276 -23.162109,-18.639771c-4.078613,-18.214417 11.26123,-55.809814 107.432617,-131.562012c224.270752,-176.625366 123.611572,-349.221222 119.207764,-356.472137c-0.566406,-0.945129 -1.530762,-1.535034 -2.600342,-1.589874c-324.216797,-17.51593 -381.099365,190.632629 -436.137207,391.942566" fill="#89a02c"/>
      </g>
     </g>
    </g>
   </g>
   <path id="path7488" d="m1221.864258,3553.552246c-67.053711,-58.847168 -65.134888,-221.320313 -191.325806,-163.394531c-121.839355,-14.681396 -150.96759,-175.060303 -93.44519,-270.189453c49.207703,-105.490479 146.123535,-178.591309 186.890503,-289.24585c-95.930298,-54.757324 -144.529724,84.558838 -174.08783,155.883545c-46.628296,102.792969 -92.910522,227.372803 -200.563354,273.544678c-124.355835,40.678955 -79.27948,-175.861084 -179.949036,-136.618896c-101.558777,37.049561 -163.350922,-79.811035 -77.518005,-144.732666c1.782501,-115.841064 14.144684,-239.356934 130.699524,-295.046143c144.01593,-102.803955 335.823975,-129.711182 499.97168,-67.234863c-77.151001,78.714844 -212.159973,32.290527 -290.831421,116.838623c-80.695068,89.208008 50.088501,180.093506 123.286377,101.104492c78.451294,-21.578125 215.588867,-183.448486 260.91687,-61.061768c-39.382813,76.357422 -146.228394,244.039063 10.957153,251.078369c99.317017,-36.994629 110.326538,169.885254 194.303589,68.835449c52.0177,-99.656982 -41.584839,-190.11499 -45.412109,-290.682129c24.766602,-118.768555 57.061157,57.081543 77.130127,98.966309c62.733765,143.658203 202.377319,264.224854 186.125,436.105713c-44.53125,98.31958 -158.747681,132.189209 -211.184937,226.254639c-58.476563,48.178467 -157.080688,57.739258 -205.963135,-10.405518l0,0zm-84.868286,-1213.045898c-194.167114,-27.378662 -407.239441,-129.820801 -474.649597,-337.106567c-47.33075,-115.095337 117.739685,-153.614014 62.807068,-256.428955c-6.364563,-128.241943 156.493469,-211.452148 244.475891,-117.485596c73.491516,80.80896 166.527771,-64.745972 232.774231,46.91748c81.533813,89.569702 48.28479,212.318481 37.380127,320.056641c-2.914917,99.262329 18.905029,197.669556 52.269409,290.079224c-64.233154,26.227295 -85.078125,-137.14502 -128.30896,-183.0979c-35.786499,-74.427612 -85.749023,-199.358154 -186.072571,-161.859253c-67.420715,75.885864 29.14917,175.345825 60.573669,249.57605c25.804321,44.856201 198.665527,138.252686 98.750732,149.348877l0,0l0,0zm700.367188,-127.16748c-124.796265,62.377686 -226.755493,164.699219 -312.87146,276.165283c93.539429,40.525146 159.62854,-126.322998 248.848267,-61.259277c20.561646,52.893311 -29.421875,119.525146 61.737427,108.187744c116.670288,-42.81665 173.291016,146.234863 47.362305,164.995361c-65.764038,19.834717 -190.424072,-80.535156 -136.948853,41.182861c35.220093,135.35791 -162.239502,106.093506 -185.380615,6.227783c-20.949585,-55.557617 -97.869995,-131.95874 -99.704834,-25.163574c9.311035,100.227295 60.636597,194.018311 117.823608,273.610352c68.416626,84.317871 162.889404,167.593994 273.824097,167.034668c118.798706,-11.677246 197.459595,-134.107666 203.258179,-251.385254c47.005615,-93.253906 180.326416,-77.607422 226.105225,-178.043213c70.02124,-100.709717 63.855957,-271.647705 -49.270264,-335.856445c-71.436768,-81.072021 -103.825684,-234.773926 -238.310547,-216.342285c-53.527466,-1.842041 -106.635742,10.975586 -156.472534,30.645996l0,0zm-50.035767,-634.882813c-90.027222,11.479858 -106.342407,210.684692 -187.960083,93.39624c-97.482056,-58.824951 -185.034546,49.483276 -230.299561,128.625732c-90.320679,174.194458 -61.129395,386.633545 2.516357,564.435303c51.745117,47.575439 -10.820801,-89.755859 7.130127,-119.064453c8.838989,-72.125 19.534058,-215.377563 101.728638,-222.339966c21.977173,59.932495 80.065918,106.751099 101.22522,14.056519c58.025879,-99.087036 209.108887,-1.129272 101.015625,81.148926c-76.175903,90.304443 -190.42395,179.709717 -195.928711,307.337646c72.411621,-13.113525 124.292969,-137.539795 207.221558,-170.477539c94.053101,-69.570313 206.938232,-102.968506 304.325806,-164.962402c102.169067,-68.682007 110.75647,-230.157715 0.251709,-285.156128c-0.817871,-110.819092 -32.2948,-264.476929 -174.255615,-236.528198l-18.800171,3.716919l-18.170898,5.811401l0,0l0,0z" fill="#b70b0b"/>
   <path d="m290.872314,2679.027344c-38.979187,-32.444336 -149.453644,22.268799 -127.656708,-68.693359c-22.387222,-41.599609 -103.138908,-83.25415 -35.619713,-129.809814c50.611656,-34.121826 -13.677032,-100.666016 47.38842,-129.22876c41.857468,-38.343262 69.012329,19.341553 46.464706,55.469971c13.601517,79.657715 111.317459,64.55957 160.198929,31.227051c49.291565,-16.655029 25.607269,-68.934326 -17.980194,-63.6604c-67.11026,-19.802002 -3.749603,-118.582031 38.098419,-57.969727c15.307526,58.562012 71.002411,111.652344 126.546326,67.278809c38.764221,-26.490479 5.987122,-61.149658 -28.069214,-62.95874c-49.666901,-22.466553 -15.769928,-118.593018 29.862183,-72.289795c22.470032,50.218018 48.117126,138.844971 118.4422,106.488281c47.886475,-27.455322 -2.998779,-72.410156 -30.606628,-87.563232c-33.752319,-60.228516 75.001526,-92.058838 64.170166,-16.139893c-7.937439,77.059082 64.00238,99.942383 123.045288,83.023926c107.935852,-13.782471 217.895569,-0.89917 323.440796,24.648438c103.615967,27.773438 206.456055,75.381592 282.988403,154.929688c37.044678,62.103271 -33.259399,151.618408 -98.908081,122.55127c-77.591309,-19.429199 -135.407471,-82.892334 -209.643555,-110.928711c-137.651245,-70.085693 -288.136658,-120.128174 -442.501587,-119.613037c-72.285889,13.695068 3.795654,128.219971 -65.030029,142.276855c-64.327515,-9.956055 -27.052185,-99.459961 4.907166,-117.277344c-24.839783,-54.32959 -123.452179,-7.938477 -118.44223,48.35376c9.227081,43.584229 -1.782562,126.674072 -59.635254,81.126953c-44.795441,-49.373291 61.983978,-65.72168 33.167084,-111.542725c-46.481415,-28.694336 -99.007629,27.905029 -132.980072,58.177979c-49.641693,52.6521 37.714691,103.637695 12.79837,158.559326c-10.569183,13.946777 -28.592438,16.786621 -44.44519,13.563232z" id="path7490" fill="#abc837"/>
   <path d="m1291.885254,3976.105713c38.638306,-64.044189 130.720459,-50.601563 168.530518,-115.610352c-26.338989,-70.73291 -6.888794,-173.92041 70.125977,-198.624023c104.496704,-39.110352 212.967407,24.440186 287.759155,97.990723c51.619263,42.707031 103.301514,87.530518 164.818726,113.878174c47.320313,-58.989502 -23.990356,-126.037842 -76.060425,-145.116211c-113.304443,-61.971924 -248.449707,-102.167969 -324.416016,-217.877441c-33.416626,-59.088379 13.452759,-163.833252 85.77002,-140.577393c70.534668,2.598633 45.390991,-91.587158 24.325928,-128.274414c1.625244,-78.29834 101.424561,-104.229492 135.092896,-35.16333c63.289429,42.926025 149.877319,-18.245117 207.598877,40.689453c156.818359,136.322754 216.259766,373.212891 167.597656,576.913086c-5.400146,33.792969 -20.813721,84.197021 -41.868164,29.176514c-22.710938,-54.274414 -2.537354,-119.162842 -34.203125,-170.641846c-20.142334,-57.465332 -43.660889,-134.842529 -110.190186,-146.081299c-59.651001,-5.668457 -74.089233,77.563721 -54.261475,123.461426c23.854126,60.173584 61.160889,113.636963 87.154053,173.032227c9.5625,40.229004 65.386475,93.16626 26.737549,127.310059c-46.55481,29.647949 -95.364014,-13.376709 -132.261963,-41.029541c-40.567627,-46.435303 -135.774414,-40.437744 -148.115601,29.417725c19.932617,55.974365 4.865234,118.439697 -57.858154,134.908691c-80.674072,29.154541 -13.358276,141.125244 55.11084,116.301514c86.116089,-21.370117 169.65271,-63.583984 259.878784,-63.715332c38.533691,64.307129 -83.693726,40.053711 -115.254517,69.657715c-137.127075,62.399902 -245.891357,193.470703 -401.074219,209.610352c-73.743286,8.26709 -118.452637,-66.302734 -151.366211,-123.526855c-40.200684,-55.919434 -116.995117,-83.660156 -131.412476,-158.317871c-18.192017,-53.693604 -9.101318,-123.099854 37.841553,-157.791748l0,0zm1160.012207,-88.747314c22.28125,-167.473145 89.030762,-338.356689 220.758057,-443.484863c57.742676,-43.573242 132.566162,-68.956299 203.436523,-51.336426c33.322021,16.271729 29.977295,69.296387 66.550049,80.820068c42.601807,0.657959 84.679443,-29.999023 127.522705,-11.841553c81.942627,33.124023 128.24585,146.344238 82.729004,227.942871c-26.276123,25.075928 -72.631836,63.463135 -43.629395,104.964111c29.306641,36.347656 36.258301,96.455566 2.055176,132.057373c-57.669189,79.877197 -165.364014,103.593506 -254.531006,77.333252c-93.67627,-18.233887 -190.948242,-8.947021 -281.342285,21.578613c-29.925293,5.284912 -68.563477,28.83667 -91.966797,26.556152c-3.848145,-44.099609 46.397461,-52.257324 74.78125,-68.93457c93.916992,-57.333984 202.16748,-95.929199 276.770508,-182.308105c24.388672,-35.317139 10.422363,-100.567139 -35.597412,-105.9729c-63.54126,-4.45166 -116.376709,39.055908 -169.925293,67.892578c-51.671631,34.977051 -97.828125,80.206055 -130.091553,135.35791c19.99585,53.957031 -87.803955,29.560791 -47.519531,-10.635498l0,0.010986zm121.619141,732.380371c-59.598389,-130.533691 -157.541748,-237.087891 -264.093506,-327.172852c-25.416504,70.10791 40.955811,122.00293 65.029785,180.181152c41.071045,53.244141 -45.768311,142.254883 -78.031738,66.829102c-74.036621,30.76709 9.961182,141.816406 -60.479248,185.09375c-58.686523,56.401855 -145.808838,-16.918945 -133.866211,-90.370117c-7.947754,-44.878418 68.553223,-113.428711 20.65625,-137.803223c-41.375244,39.516113 -129.053467,59.318359 -142.558594,-18.453613c-10.233643,-92.96875 73.030273,-164.019531 150.359619,-188.941895c61.538086,-59.702148 -60.311523,-83.473145 -96.957764,-50.601563c-161.704834,39.012207 -301.002197,165.993164 -363.358521,326.186035c-25.03894,90.369629 21.08606,192.450684 98.887085,236.856934c53.737305,54.604004 161.232788,14.385742 191.231445,100.501465c17.856323,73.879395 57.553955,138.450195 117.037109,182.988281c89.19873,66.280762 228.632324,66.050781 302.837158,-24.681152c34.255615,-83.023926 134.631592,-89.219238 187.435547,-151.67334c53.12915,-85.95166 39.026367,-198.163574 5.871582,-288.938965l0,0zm607.121338,-52.334473c-24.724365,-66.192871 -85.32959,-107.913574 -145.693359,-134.206543c46.187744,-36.105957 94.441162,-100.808105 65.910645,-163.37207c-68.469238,-135.588379 -220.841797,-201.628174 -362.351807,-198.624023c-112.035645,-0.010986 -224.448975,24.187744 -327.708252,69.065918c-30.921387,40.470703 52.174805,0.405762 70.744629,3.070313c91.463379,-13.35498 187.603271,10.493164 263.926025,63.912598c48.473389,49.899902 -23.172607,59.296387 -54.890869,73.122559c-25.930176,50.832031 56.463623,64.800781 73.418213,106.609375c36.132324,32.783691 29.925293,108.855957 -26.160645,109.524902c-62.146729,1.710449 -93.403564,-65.118652 -135.722168,-101.400391c-65.763916,-69.658203 -145.368652,-132.419434 -239.715332,-149.469727c-15.623535,46.040527 59.336426,61.719727 75.840332,100.414063c94.89209,101.444336 159.649414,228.469238 209.223877,359.408691c31.676025,76.938477 86.92334,156.267578 172.420654,167.418457c53.527832,10.229492 122.951172,-16.94043 131.108398,-79.351074c29.778809,-49.713379 98.258057,13.091797 142.663574,-20.799805c60.206787,-15.405273 98.048096,-77.059082 97.261963,-139.88623c0.765381,-22.225098 -2.453613,-44.702637 -10.275879,-65.437012l0,0z" id="path6656" fill="#af2828"/>
   <path id="path6658" d="m2128.173584,2980.630371c31.036621,-40.766602 -21.285156,-156.289307 65.700928,-133.494141c39.770996,-23.40918 79.604736,-107.858643 124.135986,-37.246582c32.619873,52.92627 96.265869,-14.308838 123.56958,49.549072c36.67749,43.770508 -18.485596,72.168945 -53.034912,48.594971c-76.186279,14.221191 -61.748047,116.400146 -29.872559,167.51709c15.9375,51.544678 65.921387,26.775635 60.888184,-18.804199c18.936523,-70.17334 113.388428,-3.914307 55.435791,39.845215c-56.001953,16.008301 -106.782471,74.241211 -64.348389,132.331787c25.332764,40.525146 58.476807,6.260986 60.206787,-29.352295c21.484619,-51.939209 113.419678,-16.490723 69.140137,31.227051c-48.022461,23.486084 -132.786133,50.31665 -101.833496,123.856201c26.245117,50.075195 69.234619,-3.135986 83.725586,-32.016602c57.606201,-35.283936 88.045166,78.440674 15.434326,67.103271c-73.680176,-8.289063 -95.57373,66.938965 -79.384277,128.680664c13.179932,112.869385 0.849121,227.85498 -23.571289,338.224609c-26.559082,108.352051 -72.09668,215.893066 -148.167969,295.923828c-59.388672,38.726563 -144.980469,-34.780273 -117.194336,-103.44043c18.590332,-81.126709 79.269043,-141.585693 106.080078,-219.22583c67.022217,-143.943115 114.887695,-301.307373 114.394531,-462.727783c-13.096191,-75.579102 -122.625488,3.968994 -136.067871,-67.991699c9.531006,-67.278564 95.122803,-28.288574 112.151123,5.120605c51.95459,-25.964355 7.591309,-129.086426 -46.240234,-123.845215c-41.668701,9.638184 -121.126465,-1.86377 -77.581055,-62.366699c47.22583,-46.840576 62.849121,64.822754 106.677734,34.681152c27.429443,-48.605957 -26.695557,-103.527588 -55.645752,-139.053223c-50.350586,-51.917236 -99.09668,39.439941 -151.628174,13.376953c-13.326904,-11.04126 -16.053223,-29.889404 -12.970459,-46.467773z" fill="#89a02c"/>
  </g>
 </g>
</svg>