<svg xmlns="http://www.w3.org/2000/svg" version="1.1" width="425" height="425.00000000000006" viewBox="0 0 425 425.00000000000006"><defs><clipPath id="clip-1"><rect x="0" y="25" width="400" height="400"/></clipPath></defs><path fill="none" stroke="#000000" d="M -3.45,403.933 C -3.1,401.833 0.75,398.683 1.8,398.333 C 0.75,397.983 -3.1,394.833 -3.45,392.733" transform="rotate(180 1.8000000000000114 398.3333333333333)" style="stroke-width: 2px;opacity: 1;stroke-linejoin: round;stroke-linecap: round" stroke-width="2" opacity="1" stroke-linejoin="round" stroke-linecap="round"/><path fill="none" stroke="#000000" d="M 200,398.333 S 200,398.333 1.05,398.333" style="stroke-width: 2px;opacity: 1" stroke-width="2" opacity="1"/><path fill="none" stroke="#000000" d="M 394.45,403.933 C 394.8,401.833 398.65,398.683 399.7,398.333 C 398.65,397.983 394.8,394.833 394.45,392.733" transform="" style="stroke-width: 2px;opacity: 1;stroke-linejoin: round;stroke-linecap: round" stroke-width="2" opacity="1" stroke-linejoin="round" stroke-linecap="round"/><path fill="none" stroke="#000000" d="M 200,398.333 S 200,398.333 398.95,398.333" style="stroke-width: 2px;opacity: 1" stroke-width="2" opacity="1"/><path fill="none" stroke="#000000" d="M 195.5,429.55 C 195.85,427.45 199.7,424.3 200.75,423.95 C 199.7,423.6 195.85,420.45 195.5,418.35" transform="rotate(90 200.75 423.9499898274739)" style="stroke-width: 2px;opacity: 1;stroke-linejoin: round;stroke-linecap: round" stroke-width="2" opacity="1" stroke-linejoin="round" stroke-linecap="round"/><path fill="none" stroke="#000000" d="M 200,398.333 S 200,398.333 200,423.95" style="stroke-width: 2px;opacity: 1" stroke-width="2" opacity="1"/><path fill="none" stroke="#000000" d="M 195.5,31.65 C 195.85,29.55 199.7,26.4 200.75,26.05 C 199.7,25.7 195.85,22.55 195.5,20.45" transform="rotate(-90 200.75 26.04998982747395)" style="stroke-width: 2px;opacity: 1;stroke-linejoin: round;stroke-linecap: round" stroke-width="2" opacity="1" stroke-linejoin="round" stroke-linecap="round"/><path fill="none" stroke="#000000" d="M 200,398.333 S 200,398.333 200,26.05" style="stroke-width: 2px;opacity: 1" stroke-width="2" opacity="1"/><path fill="#6495ed" stroke="none" d="M 79.2308,131.879 L 79.7308,133.598 L 80.2308,135.296 L 80.7308,136.971 L 81.2308,138.625 L 81.7308,140.258 L 82.2308,141.87 L 82.7308,143.462 L 83.2308,145.034 L 83.7308,146.586 L 84.2308,148.118 L 84.7308,149.631 L 85.2308,151.126 L 85.7308,152.601 L 86.2308,154.059 L 86.7308,155.498 L 87.2308,156.92 L 87.7308,158.324 L 88.2308,159.711 L 88.7308,161.08 L 89.2308,162.434 L 89.7308,163.77 L 90.2308,165.091 L 90.7308,166.395 L 91.2308,167.684 L 91.7308,168.957 L 92.2308,170.215 L 92.7308,171.457 L 93.2308,172.685 L 93.7308,173.898 L 94.2308,175.097 L 94.7308,176.281 L 95.2308,177.452 L 95.7308,178.608 L 96.2308,179.751 L 96.7308,180.88 L 97.2308,181.996 L 97.7308,183.099 L 98.2308,184.189 L 98.7308,185.267 L 99.2308,186.331 L 99.7308,187.384 L 100.231,188.424 L 100.731,189.452 L 101.231,190.468 L 101.731,191.472 L 102.231,192.465 L 102.731,193.446 L 103.231,194.416 L 103.731,195.375 L 104.231,196.323 L 104.731,197.26 L 105.231,198.186 L 105.731,199.102 L 106.231,200.007 L 106.731,200.902 L 107.231,201.787 L 107.731,202.661 L 108.231,203.526 L 108.731,204.381 L 109.231,205.226 L 109.731,206.062 L 110.231,206.888 L 110.731,207.705 L 111.231,208.512 L 111.731,209.311 L 112.231,210.101 L 112.731,210.881 L 113.231,211.653 L 113.731,212.416 L 114.231,213.171 L 114.731,213.917 L 115.231,214.655 L 115.731,215.384 L 116.231,216.106 L 116.731,216.819 L 117.231,217.524 L 117.731,218.222 L 118.231,218.911 L 118.731,219.593 L 119.231,220.267 L 119.731,220.934 L 120.231,221.593 L 120.731,222.245 L 121.231,222.889 L 121.731,223.527 L 122.231,224.157 L 122.731,224.78 L 123.231,225.396 L 123.731,226.005 L 124.231,226.608 L 124.731,227.203 L 125.231,227.792 L 125.731,228.374 L 126.231,228.95 L 126.731,229.519 L 127.231,230.082 L 127.731,230.639 L 128.231,231.189 L 128.731,231.733 L 129.231,232.271 L 129.731,232.802 L 130.231,233.328 L 130.731,233.848 L 131.231,234.362 L 131.731,234.87 L 132.231,235.372 L 132.731,235.868 L 133.231,236.359 L 133.731,236.844 L 134.231,237.324 L 134.731,237.798 L 135.231,238.267 L 135.731,238.73 L 136.231,239.188 L 136.731,239.64 L 137.231,240.087 L 137.731,240.529 L 138.231,240.966 L 138.731,241.398 L 139.231,241.825 L 139.731,242.246 L 140.231,242.663 L 140.731,243.075 L 141.231,243.481 L 141.731,243.883 L 142.231,244.28 L 142.731,244.673 L 143.231,245.06 L 143.731,245.443 L 144.231,245.822 L 144.731,246.195 L 145.231,246.564 L 145.731,246.929 L 146.231,247.289 L 146.731,247.645 L 147.231,247.996 L 147.731,248.343 L 148.231,248.685 L 148.731,249.023 L 149.231,249.357 L 149.731,249.686 L 150.231,250.012 L 150.731,250.333 L 151.231,250.65 L 151.731,250.963 L 152.231,251.272 L 152.731,251.576 L 153.231,251.877 L 153.731,252.174 L 154.231,252.466 L 154.731,252.755 L 155.231,253.04 L 155.731,253.321 L 156.231,253.598 L 156.731,253.871 L 157.231,254.14 L 157.731,254.406 L 158.231,254.668 L 158.731,254.926 L 159.231,255.18 L 159.731,255.431 L 160.231,255.678 L 160.731,255.921 L 161.231,256.161 L 161.731,256.397 L 162.231,256.63 L 162.731,256.859 L 163.231,257.084 L 163.731,257.306 L 164.231,257.525 L 164.731,257.74 L 165.231,257.951 L 165.731,258.159 L 166.231,258.364 L 166.731,258.565 L 167.231,258.763 L 167.731,258.958 L 168.231,259.149 L 168.731,259.337 L 169.231,259.521 L 169.731,259.702 L 170.231,259.88 L 170.731,260.055 L 171.231,260.227 L 171.731,260.395 L 172.231,260.56 L 172.731,260.722 L 173.231,260.88 L 173.731,261.036 L 174.231,261.188 L 174.731,261.337 L 175.231,261.483 L 175.731,261.626 L 176.231,261.766 L 176.731,261.903 L 177.231,262.036 L 177.731,262.167 L 178.231,262.294 L 178.731,262.419 L 179.231,262.54 L 179.731,262.659 L 180.231,262.774 L 180.731,262.886 L 181.231,262.996 L 181.731,263.102 L 182.231,263.205 L 182.731,263.306 L 183.231,263.403 L 183.731,263.498 L 184.231,263.589 L 184.731,263.678 L 185.231,263.764 L 185.731,263.846 L 186.231,263.926 L 186.731,264.003 L 187.231,264.077 L 187.731,264.148 L 188.231,264.217 L 188.731,264.282 L 189.231,264.345 L 189.731,264.404 L 190.231,264.461 L 190.731,264.515 L 191.231,264.566 L 191.731,264.614 L 192.231,264.659 L 192.731,264.702 L 193.231,264.742 L 193.731,264.778 L 194.231,264.812 L 194.731,264.843 L 195.231,264.872 L 195.731,264.897 L 196.231,264.92 L 196.731,264.94 L 197.231,264.957 L 197.731,264.971 L 198.231,264.982 L 198.731,264.991 L 199.231,264.997 L 199.731,265 L 200.231,265 L 200.731,264.997 L 201.231,264.991 L 201.731,264.983 L 202.231,264.972 L 202.731,264.958 L 203.231,264.941 L 203.731,264.922 L 204.231,264.899 L 204.731,264.874 L 205.231,264.846 L 205.731,264.815 L 206.231,264.781 L 206.731,264.744 L 207.231,264.705 L 207.731,264.663 L 208.231,264.618 L 208.731,264.57 L 209.231,264.519 L 209.731,264.465 L 210.231,264.409 L 210.731,264.349 L 211.231,264.287 L 211.731,264.222 L 212.231,264.154 L 212.731,264.083 L 213.231,264.009 L 213.731,263.932 L 214.231,263.853 L 214.731,263.77 L 215.231,263.685 L 215.731,263.596 L 216.231,263.505 L 216.731,263.411 L 217.231,263.313 L 217.731,263.213 L 218.231,263.11 L 218.731,263.004 L 219.231,262.895 L 219.731,262.783 L 220.231,262.668 L 220.731,262.549 L 221.231,262.428 L 221.731,262.304 L 222.231,262.177 L 222.731,262.046 L 223.231,261.913 L 223.731,261.777 L 224.231,261.637 L 224.731,261.494 L 225.231,261.349 L 225.731,261.2 L 226.231,261.048 L 226.731,260.892 L 227.231,260.734 L 227.731,260.572 L 228.231,260.408 L 228.731,260.24 L 229.231,260.068 L 229.731,259.894 L 230.231,259.716 L 230.731,259.535 L 231.231,259.351 L 231.731,259.163 L 232.231,258.972 L 232.731,258.778 L 233.231,258.58 L 233.731,258.379 L 234.231,258.175 L 234.731,257.967 L 235.231,257.756 L 235.731,257.541 L 236.231,257.323 L 236.731,257.101 L 237.231,256.876 L 237.731,256.647 L 238.231,256.415 L 238.731,256.179 L 239.231,255.94 L 239.731,255.697 L 240.231,255.45 L 240.731,255.2 L 241.231,254.946 L 241.731,254.688 L 242.231,254.426 L 242.731,254.161 L 243.231,253.892 L 243.731,253.619 L 244.231,253.342 L 244.731,253.062 L 245.231,252.777 L 245.731,252.489 L 246.231,252.196 L 246.731,251.9 L 247.231,251.6 L 247.731,251.295 L 248.231,250.987 L 248.731,250.674 L 249.231,250.357 L 249.731,250.037 L 250.231,249.712 L 250.731,249.382 L 251.231,249.049 L 251.731,248.711 L 252.231,248.369 L 252.731,248.023 L 253.231,247.672 L 253.731,247.317 L 254.231,246.957 L 254.731,246.593 L 255.231,246.224 L 255.731,245.851 L 256.231,245.473 L 256.731,245.09 L 257.231,244.703 L 257.731,244.311 L 258.231,243.914 L 258.731,243.512 L 259.231,243.106 L 259.731,242.695 L 260.231,242.278 L 260.731,241.857 L 261.231,241.431 L 261.731,241 L 262.231,240.563 L 262.731,240.122 L 263.231,239.675 L 263.731,239.223 L 264.231,238.765 L 264.731,238.302 L 265.231,237.834 L 265.731,237.361 L 266.231,236.881 L 266.731,236.397 L 267.231,235.906 L 267.731,235.41 L 268.231,234.909 L 268.731,234.401 L 269.231,233.888 L 269.731,233.368 L 270.231,232.843 L 270.731,232.312 L 271.231,231.774 L 271.731,231.231 L 272.231,230.681 L 272.731,230.125 L 273.231,229.563 L 273.731,228.994 L 274.231,228.419 L 274.731,227.837 L 275.231,227.249 L 275.731,226.654 L 276.231,226.052 L 276.731,225.443 L 277.231,224.828 L 277.731,224.205 L 278.231,223.575 L 278.731,222.939 L 279.231,222.295 L 279.731,221.643 L 280.231,220.985 L 280.731,220.319 L 281.231,219.645 L 281.731,218.964 L 282.231,218.275 L 282.731,217.578 L 283.231,216.874 L 283.731,216.161 L 284.231,215.44 L 284.731,214.711 L 285.231,213.974 L 285.731,213.229 L 286.231,212.475 L 286.731,211.712 L 287.231,210.941 L 287.731,210.161 L 288.231,209.372 L 288.731,208.574 L 289.231,207.767 L 289.731,206.951 L 290.231,206.126 L 290.731,205.291 L 291.231,204.446 L 291.731,203.592 L 292.231,202.728 L 292.731,201.854 L 293.231,200.97 L 293.731,200.076 L 294.231,199.172 L 294.731,198.257 L 295.231,197.331 L 295.731,196.395 L 296.231,195.448 L 296.731,194.49 L 297.231,193.521 L 297.731,192.541 L 298.231,191.549 L 298.731,190.546 L 299.231,189.53 L 299.731,188.503 L 300.231,187.464 L 300.731,186.413 L 301.231,185.349 L 301.731,184.273 L 302.231,183.184 L 302.731,182.082 L 303.231,180.967 L 303.731,179.838 L 304.231,178.696 L 304.731,177.541 L 305.231,176.372 L 305.731,175.188 L 306.231,173.991 L 306.731,172.779 L 307.231,171.552 L 307.731,170.311 L 308.231,169.054 L 308.731,167.782 L 309.231,166.495 L 309.731,165.192 L 310.231,163.872 L 310.731,162.537 L 311.231,161.185 L 311.731,159.817 L 312.231,158.431 L 312.731,157.028 L 313.231,155.608 L 313.731,154.17 L 314.231,152.714 L 314.731,151.24 L 315.231,149.747 L 315.731,148.235 L 316.231,146.704 L 316.731,145.154 L 317.231,143.584 L 317.731,141.993 L 318.231,140.383 L 318.731,138.751 L 319.231,137.099 L 319.731,135.425 L 320.231,133.73 L 320.731,132.012 L 320.269,398.333 L 319.769,398.333 L 319.269,398.333 L 318.769,398.333 L 318.269,398.333 L 317.769,398.333 L 317.269,398.333 L 316.769,398.333 L 316.269,398.333 L 315.769,398.333 L 315.269,398.333 L 314.769,398.333 L 314.269,398.333 L 313.769,398.333 L 313.269,398.333 L 312.769,398.333 L 312.269,398.333 L 311.769,398.333 L 311.269,398.333 L 310.769,398.333 L 310.269,398.333 L 309.769,398.333 L 309.269,398.333 L 308.769,398.333 L 308.269,398.333 L 307.769,398.333 L 307.269,398.333 L 306.769,398.333 L 306.269,398.333 L 305.769,398.333 L 305.269,398.333 L 304.769,398.333 L 304.269,398.333 L 303.769,398.333 L 303.269,398.333 L 302.769,398.333 L 302.269,398.333 L 301.769,398.333 L 301.269,398.333 L 300.769,398.333 L 300.269,398.333 L 299.769,398.333 L 299.269,398.333 L 298.769,398.333 L 298.269,398.333 L 297.769,398.333 L 297.269,398.333 L 296.769,398.333 L 296.269,398.333 L 295.769,398.333 L 295.269,398.333 L 294.769,398.333 L 294.269,398.333 L 293.769,398.333 L 293.269,398.333 L 292.769,398.333 L 292.269,398.333 L 291.769,398.333 L 291.269,398.333 L 290.769,398.333 L 290.269,398.333 L 289.769,398.333 L 289.269,398.333 L 288.769,398.333 L 288.269,398.333 L 287.769,398.333 L 287.269,398.333 L 286.769,398.333 L 286.269,398.333 L 285.769,398.333 L 285.269,398.333 L 284.769,398.333 L 284.269,398.333 L 283.769,398.333 L 283.269,398.333 L 282.769,398.333 L 282.269,398.333 L 281.769,398.333 L 281.269,398.333 L 280.769,398.333 L 280.269,398.333 L 279.769,398.333 L 279.269,398.333 L 278.769,398.333 L 278.269,398.333 L 277.769,398.333 L 277.269,398.333 L 276.769,398.333 L 276.269,398.333 L 275.769,398.333 L 275.269,398.333 L 274.769,398.333 L 274.269,398.333 L 273.769,398.333 L 273.269,398.333 L 272.769,398.333 L 272.269,398.333 L 271.769,398.333 L 271.269,398.333 L 270.769,398.333 L 270.269,398.333 L 269.769,398.333 L 269.269,398.333 L 268.769,398.333 L 268.269,398.333 L 267.769,398.333 L 267.269,398.333 L 266.769,398.333 L 266.269,398.333 L 265.769,398.333 L 265.269,398.333 L 264.769,398.333 L 264.269,398.333 L 263.769,398.333 L 263.269,398.333 L 262.769,398.333 L 262.269,398.333 L 261.769,398.333 L 261.269,398.333 L 260.769,398.333 L 260.269,398.333 L 259.769,398.333 L 259.269,398.333 L 258.769,398.333 L 258.269,398.333 L 257.769,398.333 L 257.269,398.333 L 256.769,398.333 L 256.269,398.333 L 255.769,398.333 L 255.269,398.333 L 254.769,398.333 L 254.269,398.333 L 253.769,398.333 L 253.269,398.333 L 252.769,398.333 L 252.269,398.333 L 251.769,398.333 L 251.269,398.333 L 250.769,398.333 L 250.269,398.333 L 249.769,398.333 L 249.269,398.333 L 248.769,398.333 L 248.269,398.333 L 247.769,398.333 L 247.269,398.333 L 246.769,398.333 L 246.269,398.333 L 245.769,398.333 L 245.269,398.333 L 244.769,398.333 L 244.269,398.333 L 243.769,398.333 L 243.269,398.333 L 242.769,398.333 L 242.269,398.333 L 241.769,398.333 L 241.269,398.333 L 240.769,398.333 L 240.269,398.333 L 239.769,398.333 L 239.269,398.333 L 238.769,398.333 L 238.269,398.333 L 237.769,398.333 L 237.269,398.333 L 236.769,398.333 L 236.269,398.333 L 235.769,398.333 L 235.269,398.333 L 234.769,398.333 L 234.269,398.333 L 233.769,398.333 L 233.269,398.333 L 232.769,398.333 L 232.269,398.333 L 231.769,398.333 L 231.269,398.333 L 230.769,398.333 L 230.269,398.333 L 229.769,398.333 L 229.269,398.333 L 228.769,398.333 L 228.269,398.333 L 227.769,398.333 L 227.269,398.333 L 226.769,398.333 L 226.269,398.333 L 225.769,398.333 L 225.269,398.333 L 224.769,398.333 L 224.269,398.333 L 223.769,398.333 L 223.269,398.333 L 222.769,398.333 L 222.269,398.333 L 221.769,398.333 L 221.269,398.333 L 220.769,398.333 L 220.269,398.333 L 219.769,398.333 L 219.269,398.333 L 218.769,398.333 L 218.269,398.333 L 217.769,398.333 L 217.269,398.333 L 216.769,398.333 L 216.269,398.333 L 215.769,398.333 L 215.269,398.333 L 214.769,398.333 L 214.269,398.333 L 213.769,398.333 L 213.269,398.333 L 212.769,398.333 L 212.269,398.333 L 211.769,398.333 L 211.269,398.333 L 210.769,398.333 L 210.269,398.333 L 209.769,398.333 L 209.269,398.333 L 208.769,398.333 L 208.269,398.333 L 207.769,398.333 L 207.269,398.333 L 206.769,398.333 L 206.269,398.333 L 205.769,398.333 L 205.269,398.333 L 204.769,398.333 L 204.269,398.333 L 203.769,398.333 L 203.269,398.333 L 202.769,398.333 L 202.269,398.333 L 201.769,398.333 L 201.269,398.333 L 200.769,398.333 L 200.269,398.333 L 199.769,398.333 L 199.269,398.333 L 198.769,398.333 L 198.269,398.333 L 197.769,398.333 L 197.269,398.333 L 196.769,398.333 L 196.269,398.333 L 195.769,398.333 L 195.269,398.333 L 194.769,398.333 L 194.269,398.333 L 193.769,398.333 L 193.269,398.333 L 192.769,398.333 L 192.269,398.333 L 191.769,398.333 L 191.269,398.333 L 190.769,398.333 L 190.269,398.333 L 189.769,398.333 L 189.269,398.333 L 188.769,398.333 L 188.269,398.333 L 187.769,398.333 L 187.269,398.333 L 186.769,398.333 L 186.269,398.333 L 185.769,398.333 L 185.269,398.333 L 184.769,398.333 L 184.269,398.333 L 183.769,398.333 L 183.269,398.333 L 182.769,398.333 L 182.269,398.333 L 181.769,398.333 L 181.269,398.333 L 180.769,398.333 L 180.269,398.333 L 179.769,398.333 L 179.269,398.333 L 178.769,398.333 L 178.269,398.333 L 177.769,398.333 L 177.269,398.333 L 176.769,398.333 L 176.269,398.333 L 175.769,398.333 L 175.269,398.333 L 174.769,398.333 L 174.269,398.333 L 173.769,398.333 L 173.269,398.333 L 172.769,398.333 L 172.269,398.333 L 171.769,398.333 L 171.269,398.333 L 170.769,398.333 L 170.269,398.333 L 169.769,398.333 L 169.269,398.333 L 168.769,398.333 L 168.269,398.333 L 167.769,398.333 L 167.269,398.333 L 166.769,398.333 L 166.269,398.333 L 165.769,398.333 L 165.269,398.333 L 164.769,398.333 L 164.269,398.333 L 163.769,398.333 L 163.269,398.333 L 162.769,398.333 L 162.269,398.333 L 161.769,398.333 L 161.269,398.333 L 160.769,398.333 L 160.269,398.333 L 159.769,398.333 L 159.269,398.333 L 158.769,398.333 L 158.269,398.333 L 157.769,398.333 L 157.269,398.333 L 156.769,398.333 L 156.269,398.333 L 155.769,398.333 L 155.269,398.333 L 154.769,398.333 L 154.269,398.333 L 153.769,398.333 L 153.269,398.333 L 152.769,398.333 L 152.269,398.333 L 151.769,398.333 L 151.269,398.333 L 150.769,398.333 L 150.269,398.333 L 149.769,398.333 L 149.269,398.333 L 148.769,398.333 L 148.269,398.333 L 147.769,398.333 L 147.269,398.333 L 146.769,398.333 L 146.269,398.333 L 145.769,398.333 L 145.269,398.333 L 144.769,398.333 L 144.269,398.333 L 143.769,398.333 L 143.269,398.333 L 142.769,398.333 L 142.269,398.333 L 141.769,398.333 L 141.269,398.333 L 140.769,398.333 L 140.269,398.333 L 139.769,398.333 L 139.269,398.333 L 138.769,398.333 L 138.269,398.333 L 137.769,398.333 L 137.269,398.333 L 136.769,398.333 L 136.269,398.333 L 135.769,398.333 L 135.269,398.333 L 134.769,398.333 L 134.269,398.333 L 133.769,398.333 L 133.269,398.333 L 132.769,398.333 L 132.269,398.333 L 131.769,398.333 L 131.269,398.333 L 130.769,398.333 L 130.269,398.333 L 129.769,398.333 L 129.269,398.333 L 128.769,398.333 L 128.269,398.333 L 127.769,398.333 L 127.269,398.333 L 126.769,398.333 L 126.269,398.333 L 125.769,398.333 L 125.269,398.333 L 124.769,398.333 L 124.269,398.333 L 123.769,398.333 L 123.269,398.333 L 122.769,398.333 L 122.269,398.333 L 121.769,398.333 L 121.269,398.333 L 120.769,398.333 L 120.269,398.333 L 119.769,398.333 L 119.269,398.333 L 118.769,398.333 L 118.269,398.333 L 117.769,398.333 L 117.269,398.333 L 116.769,398.333 L 116.269,398.333 L 115.769,398.333 L 115.269,398.333 L 114.769,398.333 L 114.269,398.333 L 113.769,398.333 L 113.269,398.333 L 112.769,398.333 L 112.269,398.333 L 111.769,398.333 L 111.269,398.333 L 110.769,398.333 L 110.269,398.333 L 109.769,398.333 L 109.269,398.333 L 108.769,398.333 L 108.269,398.333 L 107.769,398.333 L 107.269,398.333 L 106.769,398.333 L 106.269,398.333 L 105.769,398.333 L 105.269,398.333 L 104.769,398.333 L 104.269,398.333 L 103.769,398.333 L 103.269,398.333 L 102.769,398.333 L 102.269,398.333 L 101.769,398.333 L 101.269,398.333 L 100.769,398.333 L 100.269,398.333 L 99.7692,398.333 L 99.2692,398.333 L 98.7692,398.333 L 98.2692,398.333 L 97.7692,398.333 L 97.2692,398.333 L 96.7692,398.333 L 96.2692,398.333 L 95.7692,398.333 L 95.2692,398.333 L 94.7692,398.333 L 94.2692,398.333 L 93.7692,398.333 L 93.2692,398.333 L 92.7692,398.333 L 92.2692,398.333 L 91.7692,398.333 L 91.2692,398.333 L 90.7692,398.333 L 90.2692,398.333 L 89.7692,398.333 L 89.2692,398.333 L 88.7692,398.333 L 88.2692,398.333 L 87.7692,398.333 L 87.2692,398.333 L 86.7692,398.333 L 86.2692,398.333 L 85.7692,398.333 L 85.2692,398.333 L 84.7692,398.333 L 84.2692,398.333 L 83.7692,398.333 L 83.2692,398.333 L 82.7692,398.333 L 82.2692,398.333 L 81.7692,398.333 L 81.2692,398.333 L 80.7692,398.333 L 80.2692,398.333 L 79.7692,398.333 L 79.2692,398.333" style="stroke-width: 2px;fill-opacity: 0.3" stroke-width="2" clip-path="url(#clip-1)" fill-opacity="0.3"/><path fill="none" stroke="#6495ed" d="M 0,-1465.02 L 0.5,-1422.16 L 1,-1380.81 L 1.5,-1340.88 L 2,-1302.32 L 2.5,-1265.06 L 3,-1229.05 L 3.5,-1194.23 L 4,-1160.54 L 4.5,-1127.95 L 5,-1096.39 L 5.5,-1065.84 L 6,-1036.25 L 6.5,-1007.57 L 7,-979.77 L 7.5,-952.817 L 8,-926.674 L 8.5,-901.311 L 9,-876.695 L 9.5,-852.798 L 10,-829.593 L 10.5,-807.052 L 11,-785.151 L 11.5,-763.866 L 12,-743.174 L 12.5,-723.054 L 13,-703.483 L 13.5,-684.443 L 14,-665.915 L 14.5,-647.88 L 15,-630.322 L 15.5,-613.223 L 16,-596.567 L 16.5,-580.34 L 17,-564.527 L 17.5,-549.114 L 18,-534.088 L 18.5,-519.435 L 19,-505.145 L 19.5,-491.204 L 20,-477.601 L 20.5,-464.327 L 21,-451.369 L 21.5,-438.719 L 22,-426.367 L 22.5,-414.303 L 23,-402.519 L 23.5,-391.006 L 24,-379.755 L 24.5,-368.76 L 25,-358.011 L 25.5,-347.503 L 26,-337.228 L 26.5,-327.179 L 27,-317.349 L 27.5,-307.733 L 28,-298.323 L 28.5,-289.115 L 29,-280.103 L 29.5,-271.281 L 30,-262.643 L 30.5,-254.185 L 31,-245.903 L 31.5,-237.79 L 32,-229.842 L 32.5,-222.056 L 33,-214.427 L 33.5,-206.95 L 34,-199.621 L 34.5,-192.438 L 35,-185.395 L 35.5,-178.489 L 36,-171.718 L 36.5,-165.076 L 37,-158.562 L 37.5,-152.172 L 38,-145.902 L 38.5,-139.751 L 39,-133.714 L 39.5,-127.789 L 40,-121.974 L 40.5,-116.265 L 41,-110.66 L 41.5,-105.158 L 42,-99.7538 L 42.5,-94.447 L 43,-89.2348 L 43.5,-84.115 L 44,-79.0854 L 44.5,-74.144 L 45,-69.2888 L 45.5,-64.5177 L 46,-59.8289 L 46.5,-55.2206 L 47,-50.6909 L 47.5,-46.238 L 48,-41.8603 L 48.5,-37.5561 L 49,-33.3238 L 49.5,-29.1618 L 50,-25.0686 L 50.5,-21.0428 L 51,-17.0828 L 51.5,-13.1873 L 52,-9.35495 L 52.5,-5.58435 L 53,-1.87423 L 53.5,1.77666 L 54,5.36955 L 54.5,8.90565 L 55,12.3861 L 55.5,15.8121 L 56,19.1847 L 56.5,22.5049 L 57,25.7739 L 57.5,28.9927 L 58,32.1623 L 58.5,35.2835 L 59,38.3575 L 59.5,41.3851 L 60,44.3672 L 60.5,47.3047 L 61,50.1984 L 61.5,53.0493 L 62,55.8581 L 62.5,58.6256 L 63,61.3526 L 63.5,64.0398 L 64,66.6881 L 64.5,69.2981 L 65,71.8705 L 65.5,74.4061 L 66,76.9055 L 66.5,79.3693 L 67,81.7983 L 67.5,84.193 L 68,86.5541 L 68.5,88.8821 L 69,91.1778 L 69.5,93.4415 L 70,95.6739 L 70.5,97.8756 L 71,100.047 L 71.5,102.189 L 72,104.301 L 72.5,106.385 L 73,108.441 L 73.5,110.469 L 74,112.47 L 74.5,114.444 L 75,116.392 L 75.5,118.314 L 76,120.21 L 76.5,122.082 L 77,123.928 L 77.5,125.751 L 78,127.55 L 78.5,129.325 L 79,131.078 L 79.5,132.807 L 80,134.515 L 80.5,136.2 L 81,137.864 L 81.5,139.507 L 82,141.129 L 82.5,142.73 L 83,144.311 L 83.5,145.872 L 84,147.413 L 84.5,148.935 L 85,150.438 L 85.5,151.922 L 86,153.388 L 86.5,154.836 L 87,156.266 L 87.5,157.678 L 88,159.073 L 88.5,160.45 L 89,161.811 L 89.5,163.155 L 90,164.483 L 90.5,165.795 L 91,167.091 L 91.5,168.371 L 92,169.636 L 92.5,170.886 L 93,172.12 L 93.5,173.34 L 94,174.545 L 94.5,175.736 L 95,176.913 L 95.5,178.076 L 96,179.225 L 96.5,180.361 L 97,181.483 L 97.5,182.592 L 98,183.688 L 98.5,184.771 L 99,185.842 L 99.5,186.9 L 100,187.945 L 100.5,188.979 L 101,190 L 101.5,191.01 L 102,192.008 L 102.5,192.995 L 103,193.97 L 103.5,194.934 L 104,195.887 L 104.5,196.829 L 105,197.76 L 105.5,198.68 L 106,199.59 L 106.5,200.49 L 107,201.379 L 107.5,202.259 L 108,203.128 L 108.5,203.987 L 109,204.837 L 109.5,205.677 L 110,206.508 L 110.5,207.329 L 111,208.141 L 111.5,208.944 L 112,209.737 L 112.5,210.522 L 113,211.298 L 113.5,212.065 L 114,212.824 L 114.5,213.574 L 115,214.315 L 115.5,215.049 L 116,215.774 L 116.5,216.491 L 117,217.2 L 117.5,217.901 L 118,218.594 L 118.5,219.279 L 119,219.957 L 119.5,220.627 L 120,221.29 L 120.5,221.945 L 121,222.593 L 121.5,223.233 L 122,223.867 L 122.5,224.493 L 123,225.112 L 123.5,225.725 L 124,226.33 L 124.5,226.929 L 125,227.521 L 125.5,228.106 L 126,228.685 L 126.5,229.257 L 127,229.823 L 127.5,230.383 L 128,230.936 L 128.5,231.483 L 129,232.023 L 129.5,232.558 L 130,233.086 L 130.5,233.609 L 131,234.125 L 131.5,234.636 L 132,235.141 L 132.5,235.64 L 133,236.133 L 133.5,236.621 L 134,237.103 L 134.5,237.58 L 135,238.051 L 135.5,238.517 L 136,238.977 L 136.5,239.432 L 137,239.882 L 137.5,240.326 L 138,240.765 L 138.5,241.199 L 139,241.628 L 139.5,242.052 L 140,242.471 L 140.5,242.885 L 141,243.294 L 141.5,243.698 L 142,244.098 L 142.5,244.492 L 143,244.882 L 143.5,245.267 L 144,245.648 L 144.5,246.023 L 145,246.395 L 145.5,246.761 L 146,247.123 L 146.5,247.481 L 147,247.834 L 147.5,248.183 L 148,248.527 L 148.5,248.868 L 149,249.203 L 149.5,249.535 L 150,249.862 L 150.5,250.185 L 151,250.504 L 151.5,250.819 L 152,251.13 L 152.5,251.436 L 153,251.739 L 153.5,252.037 L 154,252.332 L 154.5,252.622 L 155,252.909 L 155.5,253.192 L 156,253.47 L 156.5,253.745 L 157,254.016 L 157.5,254.284 L 158,254.547 L 158.5,254.807 L 159,255.063 L 159.5,255.316 L 160,255.564 L 160.5,255.809 L 161,256.051 L 161.5,256.289 L 162,256.523 L 162.5,256.753 L 163,256.981 L 163.5,257.204 L 164,257.424 L 164.5,257.641 L 165,257.854 L 165.5,258.064 L 166,258.27 L 166.5,258.473 L 167,258.672 L 167.5,258.868 L 168,259.061 L 168.5,259.25 L 169,259.436 L 169.5,259.619 L 170,259.799 L 170.5,259.975 L 171,260.148 L 171.5,260.318 L 172,260.484 L 172.5,260.647 L 173,260.807 L 173.5,260.964 L 174,261.118 L 174.5,261.269 L 175,261.416 L 175.5,261.561 L 176,261.702 L 176.5,261.84 L 177,261.975 L 177.5,262.107 L 178,262.236 L 178.5,262.362 L 179,262.485 L 179.5,262.604 L 180,262.721 L 180.5,262.835 L 181,262.946 L 181.5,263.053 L 182,263.158 L 182.5,263.26 L 183,263.359 L 183.5,263.454 L 184,263.547 L 184.5,263.637 L 185,263.724 L 185.5,263.809 L 186,263.89 L 186.5,263.968 L 187,264.043 L 187.5,264.116 L 188,264.185 L 188.5,264.252 L 189,264.316 L 189.5,264.377 L 190,264.435 L 190.5,264.49 L 191,264.543 L 191.5,264.592 L 192,264.639 L 192.5,264.683 L 193,264.724 L 193.5,264.762 L 194,264.797 L 194.5,264.829 L 195,264.859 L 195.5,264.886 L 196,264.91 L 196.5,264.931 L 197,264.949 L 197.5,264.965 L 198,264.977 L 198.5,264.987 L 199,264.994 L 199.5,264.999 L 200,265 L 200.5,264.999 L 201,264.994 L 201.5,264.987 L 202,264.977 L 202.5,264.965 L 203,264.949 L 203.5,264.931 L 204,264.91 L 204.5,264.886 L 205,264.859 L 205.5,264.829 L 206,264.797 L 206.5,264.762 L 207,264.724 L 207.5,264.683 L 208,264.639 L 208.5,264.592 L 209,264.543 L 209.5,264.49 L 210,264.435 L 210.5,264.377 L 211,264.316 L 211.5,264.252 L 212,264.185 L 212.5,264.116 L 213,264.043 L 213.5,263.968 L 214,263.89 L 214.5,263.809 L 215,263.724 L 215.5,263.637 L 216,263.547 L 216.5,263.454 L 217,263.359 L 217.5,263.26 L 218,263.158 L 218.5,263.053 L 219,262.946 L 219.5,262.835 L 220,262.721 L 220.5,262.604 L 221,262.485 L 221.5,262.362 L 222,262.236 L 222.5,262.107 L 223,261.975 L 223.5,261.84 L 224,261.702 L 224.5,261.561 L 225,261.416 L 225.5,261.269 L 226,261.118 L 226.5,260.964 L 227,260.807 L 227.5,260.647 L 228,260.484 L 228.5,260.318 L 229,260.148 L 229.5,259.975 L 230,259.799 L 230.5,259.619 L 231,259.436 L 231.5,259.25 L 232,259.061 L 232.5,258.868 L 233,258.672 L 233.5,258.473 L 234,258.27 L 234.5,258.064 L 235,257.854 L 235.5,257.641 L 236,257.424 L 236.5,257.204 L 237,256.981 L 237.5,256.753 L 238,256.523 L 238.5,256.289 L 239,256.051 L 239.5,255.809 L 240,255.564 L 240.5,255.316 L 241,255.063 L 241.5,254.807 L 242,254.547 L 242.5,254.284 L 243,254.016 L 243.5,253.745 L 244,253.47 L 244.5,253.192 L 245,252.909 L 245.5,252.622 L 246,252.332 L 246.5,252.037 L 247,251.739 L 247.5,251.436 L 248,251.13 L 248.5,250.819 L 249,250.504 L 249.5,250.185 L 250,249.862 L 250.5,249.535 L 251,249.203 L 251.5,248.868 L 252,248.527 L 252.5,248.183 L 253,247.834 L 253.5,247.481 L 254,247.123 L 254.5,246.761 L 255,246.395 L 255.5,246.023 L 256,245.648 L 256.5,245.267 L 257,244.882 L 257.5,244.492 L 258,244.098 L 258.5,243.698 L 259,243.294 L 259.5,242.885 L 260,242.471 L 260.5,242.052 L 261,241.628 L 261.5,241.199 L 262,240.765 L 262.5,240.326 L 263,239.882 L 263.5,239.432 L 264,238.977 L 264.5,238.517 L 265,238.051 L 265.5,237.58 L 266,237.103 L 266.5,236.621 L 267,236.133 L 267.5,235.64 L 268,235.141 L 268.5,234.636 L 269,234.125 L 269.5,233.609 L 270,233.086 L 270.5,232.558 L 271,232.023 L 271.5,231.483 L 272,230.936 L 272.5,230.383 L 273,229.823 L 273.5,229.257 L 274,228.685 L 274.5,228.106 L 275,227.521 L 275.5,226.929 L 276,226.33 L 276.5,225.725 L 277,225.112 L 277.5,224.493 L 278,223.867 L 278.5,223.233 L 279,222.593 L 279.5,221.945 L 280,221.29 L 280.5,220.627 L 281,219.957 L 281.5,219.279 L 282,218.594 L 282.5,217.901 L 283,217.2 L 283.5,216.491 L 284,215.774 L 284.5,215.049 L 285,214.315 L 285.5,213.574 L 286,212.824 L 286.5,212.065 L 287,211.298 L 287.5,210.522 L 288,209.737 L 288.5,208.944 L 289,208.141 L 289.5,207.329 L 290,206.508 L 290.5,205.677 L 291,204.837 L 291.5,203.987 L 292,203.128 L 292.5,202.259 L 293,201.379 L 293.5,200.49 L 294,199.59 L 294.5,198.68 L 295,197.76 L 295.5,196.829 L 296,195.887 L 296.5,194.934 L 297,193.97 L 297.5,192.995 L 298,192.008 L 298.5,191.01 L 299,190 L 299.5,188.979 L 300,187.945 L 300.5,186.9 L 301,185.842 L 301.5,184.771 L 302,183.688 L 302.5,182.592 L 303,181.483 L 303.5,180.361 L 304,179.225 L 304.5,178.076 L 305,176.913 L 305.5,175.736 L 306,174.545 L 306.5,173.34 L 307,172.12 L 307.5,170.886 L 308,169.636 L 308.5,168.371 L 309,167.091 L 309.5,165.795 L 310,164.483 L 310.5,163.155 L 311,161.811 L 311.5,160.45 L 312,159.073 L 312.5,157.678 L 313,156.266 L 313.5,154.836 L 314,153.388 L 314.5,151.922 L 315,150.438 L 315.5,148.935 L 316,147.413 L 316.5,145.872 L 317,144.311 L 317.5,142.73 L 318,141.129 L 318.5,139.507 L 319,137.864 L 319.5,136.2 L 320,134.515 L 320.5,132.807 L 321,131.078 L 321.5,129.325 L 322,127.55 L 322.5,125.751 L 323,123.928 L 323.5,122.082 L 324,120.21 L 324.5,118.314 L 325,116.392 L 325.5,114.444 L 326,112.47 L 326.5,110.469 L 327,108.441 L 327.5,106.385 L 328,104.301 L 328.5,102.189 L 329,100.047 L 329.5,97.8756 L 330,95.6739 L 330.5,93.4415 L 331,91.1778 L 331.5,88.8821 L 332,86.5541 L 332.5,84.193 L 333,81.7983 L 333.5,79.3693 L 334,76.9055 L 334.5,74.4061 L 335,71.8705 L 335.5,69.2981 L 336,66.6881 L 336.5,64.0398 L 337,61.3526 L 337.5,58.6256 L 338,55.8581 L 338.5,53.0493 L 339,50.1984 L 339.5,47.3047 L 340,44.3672 L 340.5,41.3851 L 341,38.3575 L 341.5,35.2835 L 342,32.1623 L 342.5,28.9927 L 343,25.7739 L 343.5,22.5049 L 344,19.1847 L 344.5,15.8121 L 345,12.3861 L 345.5,8.90565 L 346,5.36955 L 346.5,1.77666 L 347,-1.87423 L 347.5,-5.58435 L 348,-9.35495 L 348.5,-13.1873 L 349,-17.0828 L 349.5,-21.0428 L 350,-25.0686 L 350.5,-29.1618 L 351,-33.3238 L 351.5,-37.5561 L 352,-41.8603 L 352.5,-46.238 L 353,-50.6909 L 353.5,-55.2206 L 354,-59.8289 L 354.5,-64.5177 L 355,-69.2888 L 355.5,-74.144 L 356,-79.0854 L 356.5,-84.115 L 357,-89.2348 L 357.5,-94.447 L 358,-99.7538 L 358.5,-105.158 L 359,-110.66 L 359.5,-116.265 L 360,-121.974 L 360.5,-127.789 L 361,-133.714 L 361.5,-139.751 L 362,-145.902 L 362.5,-152.172 L 363,-158.562 L 363.5,-165.076 L 364,-171.718 L 364.5,-178.489 L 365,-185.395 L 365.5,-192.438 L 366,-199.621 L 366.5,-206.95 L 367,-214.427 L 367.5,-222.056 L 368,-229.842 L 368.5,-237.79 L 369,-245.903 L 369.5,-254.185 L 370,-262.643 L 370.5,-271.281 L 371,-280.103 L 371.5,-289.115 L 372,-298.323 L 372.5,-307.733 L 373,-317.349 L 373.5,-327.179 L 374,-337.228 L 374.5,-347.503 L 375,-358.011 L 375.5,-368.76 L 376,-379.755 L 376.5,-391.006 L 377,-402.519 L 377.5,-414.303 L 378,-426.367 L 378.5,-438.719 L 379,-451.369 L 379.5,-464.327 L 380,-477.601 L 380.5,-491.204 L 381,-505.145 L 381.5,-519.435 L 382,-534.088 L 382.5,-549.114 L 383,-564.527 L 383.5,-580.34 L 384,-596.567 L 384.5,-613.223 L 385,-630.322 L 385.5,-647.88 L 386,-665.915 L 386.5,-684.443 L 387,-703.483 L 387.5,-723.054 L 388,-743.174 L 388.5,-763.866 L 389,-785.151 L 389.5,-807.052 L 390,-829.593 L 390.5,-852.798 L 391,-876.695 L 391.5,-901.311 L 392,-926.674 L 392.5,-952.817 L 393,-979.77 L 393.5,-1007.57 L 394,-1036.25 L 394.5,-1065.84 L 395,-1096.39 L 395.5,-1127.95 L 396,-1160.54 L 396.5,-1194.23 L 397,-1229.05 L 397.5,-1265.06 L 398,-1302.32 L 398.5,-1340.88 L 399,-1380.81 L 399.5,-1422.16 L 400,-1465.02" style="stroke-width: 2px" stroke-width="2" clip-path="url(#clip-1)"/><path fill="#28ae7b" stroke="#000000" d="M 92.6056,398.333 L 92.6056,384.958" style="stroke-width: 1px;stroke-opacity: 1;fill-opacity: 0.2" stroke-width="1" clip-path="url(#clip-1)" stroke-opacity="1" stroke-dasharray="0" fill-opacity="0.2"/><path fill="#28ae7b" stroke="#000000" d="M 79.2308,384.958 L 92.6056,384.958" style="stroke-width: 1px;stroke-opacity: 1;fill-opacity: 0.2" stroke-width="1" clip-path="url(#clip-1)" stroke-opacity="1" stroke-dasharray="0" fill-opacity="0.2"/><path fill="#28ae7b" stroke="#000000" d="M 320.769,384.958 L 307.394,384.958" style="stroke-width: 1px;stroke-opacity: 1;fill-opacity: 0.2" stroke-width="1" clip-path="url(#clip-1)" stroke-opacity="1" stroke-dasharray="0" fill-opacity="0.2"/><path fill="#28ae7b" stroke="#000000" d="M 307.394,398.333 L 307.394,384.958" style="stroke-width: 1px;stroke-opacity: 1;fill-opacity: 0.2" stroke-width="1" clip-path="url(#clip-1)" stroke-opacity="1" stroke-dasharray="0" fill-opacity="0.2"/><path fill="#28ae7b" stroke="#000000" d="M 307.394,228.6 L 307.394,241.975" style="stroke-width: 1px;stroke-opacity: 1;fill-opacity: 0.2" stroke-width="1" clip-path="url(#clip-1)" stroke-opacity="1" stroke-dasharray="0" fill-opacity="0.2"/><path fill="#28ae7b" stroke="#000000" d="M 320.769,241.975 L 307.394,241.975" style="stroke-width: 1px;stroke-opacity: 1;fill-opacity: 0.2" stroke-width="1" clip-path="url(#clip-1)" stroke-opacity="1" stroke-dasharray="0" fill-opacity="0.2"/><path fill="#28ae7b" stroke="#000000" d="M 79.2308,241.975 L 92.6056,241.975" style="stroke-width: 1px;stroke-opacity: 1;fill-opacity: 0.2" stroke-width="1" clip-path="url(#clip-1)" stroke-opacity="1" stroke-dasharray="0" fill-opacity="0.2"/><path fill="#28ae7b" stroke="#000000" d="M 92.6056,228.6 L 92.6056,241.975" style="stroke-width: 1px;stroke-opacity: 1;fill-opacity: 0.2" stroke-width="1" clip-path="url(#clip-1)" stroke-opacity="1" stroke-dasharray="0" fill-opacity="0.2"/><path fill="#28ae7b" stroke="#000000" d="M 79.2308,398.333 L 320.769,398.333 L 320.769,228.6 L 79.2308,228.6 Z" style="stroke-width: 2px;fill-opacity: 0.2;stroke-opacity: 1" stroke-width="2" fill-opacity="0.2" stroke-opacity="1" stroke-dasharray="0"/><path fill="#000000" stroke="#6495ed" d="M 79.2308,228.6 L 176.164,228.6" style="stroke-width: 2px;stroke-opacity: 1;fill-opacity: 0" stroke-width="2" stroke-opacity="1" stroke-dasharray="8,6" fill-opacity="0" transform="rotate(270 79.23076923076923 228.6)"/><path fill="#000000" stroke="#6495ed" d="M 320.769,228.6 L 417.703,228.6" style="stroke-width: 2px;stroke-opacity: 1;fill-opacity: 0" stroke-width="2" stroke-opacity="1" stroke-dasharray="8,6" fill-opacity="0" transform="rotate(270 320.7692307692308 228.6)"/></svg>