<?xml version="1.0" encoding="UTF-8"?>
<!DOCTYPE svg PUBLIC "-//W3C//DTD SVG 1.1//EN" "http://www.w3.org/Graphics/SVG/1.1/DTD/svg11.dtd">
<!-- Creator: CorelDRAW X6 -->
<svg xmlns="http://www.w3.org/2000/svg" xml:space="preserve" width="5799px" height="6342px" version="1.1" style="shape-rendering:geometricPrecision; text-rendering:geometricPrecision; image-rendering:optimizeQuality; fill-rule:evenodd; clip-rule:evenodd"
viewBox="0 0 5790 6332"
 xmlns:xlink="http://www.w3.org/1999/xlink">
 <defs>
  <style type="text/css">
   <![CDATA[
    .str0 {stroke:#FEFEFE;stroke-width:0.898572}
    .fil1 {fill:#030303}
    .fil0 {fill:#FEC42B}
    .fil15 {fill:#FEFEFE}
    .fil18 {fill:#FEFEFE;fill-rule:nonzero}
    .fil12 {fill:#FEC42B;fill-rule:nonzero}
    .fil11 {fill:#FEFEFE;fill-rule:nonzero}
    .fil14 {fill:url(#id0)}
    .fil17 {fill:url(#id1)}
    .fil13 {fill:url(#id2);fill-rule:nonzero}
    .fil16 {fill:url(#id3);fill-rule:nonzero}
    .fil4 {fill:url(#id4);fill-rule:nonzero}
    .fil10 {fill:url(#id5);fill-rule:nonzero}
    .fil7 {fill:url(#id6);fill-rule:nonzero}
    .fil6 {fill:url(#id7);fill-rule:nonzero}
    .fil9 {fill:url(#id8);fill-rule:nonzero}
    .fil8 {fill:url(#id9);fill-rule:nonzero}
    .fil5 {fill:url(#id10);fill-rule:nonzero}
    .fil3 {fill:url(#id11);fill-rule:nonzero}
    .fil2 {fill:url(#id12);fill-rule:nonzero}
   ]]>
  </style>
  <linearGradient id="id0" gradientUnits="userSpaceOnUse" x1="1415.61" y1="685.618" x2="1415.61" y2="963.474">
   <stop offset="0" style="stop-color:#373435"/>
   <stop offset="1" style="stop-color:#727376"/>
  </linearGradient>
  <linearGradient id="id1" gradientUnits="userSpaceOnUse" xlink:href="#id0" x1="4342.68" y1="685.618" x2="4342.68" y2="963.474">
  </linearGradient>
  <linearGradient id="id2" gradientUnits="userSpaceOnUse" xlink:href="#id0" x1="2094.24" y1="724.44" x2="2094.24" y2="1427.89">
  </linearGradient>
  <linearGradient id="id3" gradientUnits="userSpaceOnUse" xlink:href="#id0" x1="3660.54" y1="724.495" x2="3660.54" y2="1443.76">
  </linearGradient>
  <linearGradient id="id4" gradientUnits="userSpaceOnUse" xlink:href="#id0" x1="3216.65" y1="2301.68" x2="3216.65" y2="2772.57">
  </linearGradient>
  <linearGradient id="id5" gradientUnits="userSpaceOnUse" xlink:href="#id0" x1="2851.54" y1="4623.93" x2="2851.54" y2="5477.86">
  </linearGradient>
  <linearGradient id="id6" gradientUnits="userSpaceOnUse" xlink:href="#id0" x1="3491.69" y1="2847.86" x2="3491.69" y2="3623.32">
  </linearGradient>
  <linearGradient id="id7" gradientUnits="userSpaceOnUse" xlink:href="#id0" x1="2865.01" y1="2787.09" x2="2865.01" y2="3719.41">
  </linearGradient>
  <linearGradient id="id8" gradientUnits="userSpaceOnUse" xlink:href="#id0" x1="3341.53" y1="3653.06" x2="3341.53" y2="4648.23">
  </linearGradient>
  <linearGradient id="id9" gradientUnits="userSpaceOnUse" xlink:href="#id0" x1="2376.43" y1="3777.12" x2="2376.43" y2="4776.88">
  </linearGradient>
  <linearGradient id="id10" gradientUnits="userSpaceOnUse" xlink:href="#id0" x1="2256.48" y1="2871.62" x2="2256.48" y2="3778.97">
  </linearGradient>
  <linearGradient id="id11" gradientUnits="userSpaceOnUse" xlink:href="#id0" x1="2449.34" y1="2251.08" x2="2449.34" y2="2813.58">
  </linearGradient>
  <linearGradient id="id12" gradientUnits="userSpaceOnUse" xlink:href="#id0" x1="2767.95" y1="1499.4" x2="2767.95" y2="2290.89">
  </linearGradient>
 </defs>
 <g id="Layer_x0020_1">
  <metadata id="CorelCorpID_0Corel-Layer"/>
  <g id="_284355072">
   <path class="fil0" d="M2895 18c1589,0 2877,1288 2877,2877 0,625 -200,1204 -538,1676l-69 -40c220,-383 346,-828 346,-1301 0,-1445 -1171,-2616 -2616,-2616 -1445,0 -2616,1171 -2616,2616 0,474 126,918 346,1301l-69 40c-339,-472 -538,-1051 -538,-1676 0,-1589 1288,-2877 2877,-2877z"/>
   <path class="fil1" d="M2895 614c1445,0 2616,1171 2616,2616 0,474 -126,918 -346,1301l409 236c-553,957 -1574,1547 -2679,1547 -1105,0 -2127,-590 -2679,-1547l409 -236c-220,-383 -346,-828 -346,-1301 0,-1445 1171,-2616 2616,-2616z"/>
   <path class="fil2" d="M2890 1828c8,1 17,2 26,4 10,2 20,6 30,11 11,5 22,12 34,20 12,8 24,19 36,31 17,17 29,34 37,53 8,18 13,36 15,54 2,18 1,36 -3,54 -4,18 -10,35 -18,52 -8,17 -17,33 -28,49 -11,15 -22,30 -34,43 -13,14 -27,27 -42,39 -15,12 -30,22 -46,30 -16,8 -32,14 -49,17 -17,4 -34,4 -50,2 -17,-2 -33,-7 -50,-15 -16,-8 -32,-20 -48,-36 -14,-14 -25,-28 -34,-42 -9,-14 -15,-27 -20,-39 -5,-12 -8,-24 -10,-34 -2,-10 -3,-20 -3,-28 -7,3 -14,4 -21,5 -7,0 -15,-1 -22,-3 -8,-3 -16,-7 -25,-13 -9,-6 -18,-14 -28,-24 -17,-18 -32,-34 -43,-50 -11,-16 -20,-30 -25,-44 -5,-14 -7,-27 -5,-39 2,-12 7,-23 16,-33 3,-4 7,-5 10,-5 3,0 7,1 10,3 3,2 7,4 10,6 4,2 8,4 12,5 4,1 9,0 14,-2 5,-2 11,-6 17,-13l260 -288c6,-7 10,-13 12,-19 2,-5 2,-10 1,-15 -1,-5 -2,-9 -5,-13 -2,-4 -5,-7 -6,-11 -2,-3 -3,-7 -3,-10 0,-3 1,-7 5,-11 9,-10 19,-16 30,-18 11,-2 23,-1 36,4 13,5 27,13 42,24 15,12 31,26 49,44 17,18 30,33 38,45 8,12 13,23 14,33 1,10 -1,19 -7,28 -5,9 -13,20 -24,31l-106 117zm-1 62c-6,-6 -12,-10 -19,-13 -7,-3 -13,-5 -20,-6l-148 165c-5,5 -9,10 -13,15 -4,5 -9,9 -13,13 2,8 4,15 8,24 3,8 9,16 15,23 9,9 17,15 25,16 8,2 17,0 26,-6 10,-6 20,-15 33,-28 13,-13 28,-30 46,-50 19,-21 34,-40 46,-55 11,-16 19,-29 24,-41 4,-12 6,-22 4,-31 -2,-9 -7,-17 -14,-25z"/>
   <path class="fil3" d="M2476 2429c-3,-9 -7,-16 -11,-20 -4,-4 -8,-7 -13,-8 -4,-1 -9,-1 -13,-1 -4,1 -9,1 -12,1 -4,0 -7,0 -10,-1 -3,-1 -5,-4 -7,-9 -9,-25 -3,-48 18,-69 21,-21 54,-40 101,-59 16,-6 29,-10 41,-11 12,-1 22,0 31,3 9,3 17,7 23,14 7,6 12,14 17,23 5,9 10,18 14,29 4,10 8,22 12,33l61 178c3,9 7,15 10,19 4,4 8,7 12,8 4,1 9,1 13,1 4,-1 8,-1 12,-1 4,0 7,0 10,2 3,1 5,4 7,9 9,26 3,49 -17,69 -20,21 -53,40 -97,57 -11,4 -21,7 -30,9 -9,2 -17,2 -25,2 -7,0 -14,-2 -20,-4 -6,-2 -11,-4 -16,-7 -10,-6 -19,-15 -25,-26 -6,17 -15,34 -26,50 -5,7 -10,14 -17,21 -6,7 -14,14 -22,21 -8,7 -18,14 -28,20 -10,6 -22,12 -34,17 -23,9 -44,14 -63,14 -19,0 -36,-2 -51,-8 -15,-6 -28,-14 -40,-25 -12,-11 -22,-23 -31,-36 -9,-13 -17,-27 -24,-42 -7,-15 -12,-29 -17,-43l-38 -110c-3,-9 -7,-16 -11,-20 -4,-4 -8,-7 -13,-9 -5,-1 -9,-2 -13,-1 -4,1 -8,1 -12,1 -4,0 -7,0 -10,-2 -3,-1 -5,-4 -7,-9 -9,-25 -3,-48 18,-69 21,-21 54,-40 101,-59 21,-8 38,-12 52,-11 14,1 26,4 36,11 10,7 18,16 24,28 6,12 12,25 17,40l57 165c5,14 10,26 16,36 6,10 12,18 19,24 7,6 15,9 25,10 9,1 19,-1 31,-5 7,-3 14,-7 19,-12 6,-5 10,-11 13,-17 3,-6 5,-13 6,-20 1,-7 0,-14 -3,-22l-60 -177z"/>
   <path class="fil4" d="M3281 2345c4,-3 9,-6 15,-11 6,-5 15,-10 27,-14 12,-5 28,-9 47,-12 20,-4 45,-5 76,-5 23,0 44,3 61,9 17,6 32,14 45,24 12,10 23,22 31,36 8,14 14,29 19,45 5,16 8,33 10,50 2,17 3,34 3,51l0 4c0,28 0,50 -1,65 0,15 0,27 0,34 0,7 0,11 0,13 0,1 0,2 0,2 0,10 1,18 4,23 2,6 5,10 9,13 4,3 8,5 12,6 4,1 8,2 12,4 4,1 7,3 9,5 2,2 4,6 4,11 0,13 -3,25 -9,35 -6,10 -16,18 -28,24 -12,6 -27,11 -45,14 -18,3 -38,4 -61,4 -22,0 -42,-1 -60,-4 -17,-3 -32,-7 -44,-14 -12,-6 -21,-14 -27,-24 -6,-10 -9,-21 -9,-35 0,-5 1,-9 3,-11 2,-2 4,-4 6,-5 2,-1 5,-2 8,-3 3,-1 5,-3 8,-5 2,-3 4,-7 6,-12 2,-5 2,-12 2,-22l0 -153c0,-14 -1,-27 -2,-39 -2,-11 -4,-21 -8,-29 -4,-8 -9,-14 -15,-18 -6,-4 -14,-6 -24,-6 -15,0 -25,5 -32,15 -6,10 -10,23 -10,38l0 188c0,10 1,18 3,24 2,6 4,10 7,13 3,3 6,5 9,6 3,1 6,2 9,4 3,1 5,3 7,5 2,2 3,6 3,11 0,13 -3,25 -8,35 -5,10 -13,18 -23,24 -10,6 -24,11 -40,14 -17,3 -36,4 -60,4 -22,0 -42,-1 -60,-4 -17,-3 -32,-7 -44,-14 -12,-6 -21,-14 -27,-24 -6,-10 -9,-21 -9,-35 0,-5 1,-9 2,-11 2,-2 4,-4 6,-5 2,-1 5,-2 8,-3 3,-1 6,-3 8,-5 2,-3 4,-7 6,-12 2,-5 2,-12 2,-22l0 -153c0,-29 -3,-51 -10,-67 -7,-16 -18,-24 -35,-24 -7,0 -13,1 -19,4 -6,3 -11,6 -16,11 -5,5 -8,11 -11,17 -3,7 -4,14 -4,22l0 189c0,10 1,17 3,23 2,5 4,10 7,12 3,3 6,5 9,6 3,1 6,2 9,3 3,1 5,3 7,5 2,2 3,6 3,11 0,27 -13,47 -38,59 -25,12 -61,18 -108,18 -23,0 -43,-1 -61,-4 -18,-3 -33,-7 -46,-14 -12,-6 -22,-14 -28,-24 -6,-10 -10,-21 -10,-35 0,-5 1,-9 4,-11 3,-2 5,-4 9,-5 4,-1 7,-2 12,-3 4,-1 8,-3 12,-5 4,-3 6,-7 9,-12 2,-5 4,-12 4,-22l0 -190c0,-9 -1,-17 -4,-22 -2,-5 -5,-9 -9,-12 -4,-3 -7,-5 -12,-6 -4,-1 -8,-2 -12,-3 -4,-1 -6,-3 -9,-5 -2,-2 -4,-6 -4,-11 0,-13 3,-25 10,-34 6,-10 16,-17 28,-24 12,-6 27,-11 45,-14 18,-3 38,-4 60,-4 10,0 19,0 28,2 8,1 15,2 22,4 6,2 12,4 17,6 5,2 9,5 12,7 8,6 13,12 16,19 11,-9 24,-16 39,-24 13,-6 29,-12 48,-17 19,-5 41,-7 66,-7 26,0 50,4 70,12 20,8 36,18 49,32z"/>
   <path class="fil5" d="M2281 3210c9,-5 19,-10 30,-14 11,-4 24,-8 39,-10 14,-3 30,-3 48,-3 18,0 37,3 58,7 28,6 52,16 72,29 20,13 36,28 49,46 13,18 23,37 30,59 7,22 12,44 14,67 2,23 3,47 1,71 -2,24 -5,47 -9,70 -5,24 -11,48 -20,71 -8,23 -18,44 -30,64 -12,20 -25,37 -41,53 -15,15 -32,28 -51,38 -19,10 -40,16 -62,19 -22,3 -46,1 -73,-4 -23,-5 -44,-12 -62,-20 -17,-8 -33,-17 -45,-26 -13,-10 -23,-19 -32,-29 -8,-10 -15,-19 -20,-27 -5,8 -12,14 -19,20 -7,6 -16,10 -26,12 -10,3 -21,4 -34,4 -13,0 -28,-2 -44,-6 -29,-6 -54,-14 -76,-22 -22,-8 -39,-18 -53,-29 -14,-11 -24,-23 -29,-37 -6,-13 -7,-28 -4,-45 1,-6 4,-10 7,-13 4,-2 8,-3 12,-4 5,0 9,-1 15,-1 5,0 10,-1 15,-4 5,-2 9,-6 14,-12 4,-6 7,-14 10,-26l94 -484c2,-12 3,-21 1,-28 -2,-7 -5,-12 -8,-17 -4,-4 -8,-8 -13,-10 -5,-2 -9,-5 -13,-7 -4,-2 -7,-5 -10,-9 -2,-3 -3,-8 -2,-15 3,-16 10,-30 20,-39 10,-10 24,-17 41,-21 17,-4 37,-6 60,-4 23,2 49,5 78,12 29,6 52,13 68,20 16,7 28,15 35,25 7,10 11,21 11,35 0,14 -2,30 -6,50l-39 197zm37 65c-9,-2 -19,-2 -28,-1 -9,2 -17,4 -25,8l-54 277c-2,8 -3,16 -5,25 -2,8 -3,16 -5,23 7,7 14,13 23,19 9,6 19,10 30,13 15,3 27,3 37,-1 9,-4 17,-12 24,-25 6,-13 12,-30 17,-53 5,-23 11,-51 17,-85 7,-36 11,-66 14,-90 2,-25 2,-44 -1,-60 -3,-15 -8,-27 -15,-35 -8,-8 -17,-13 -30,-16z"/>
   <path class="fil6" d="M3074 3465c4,13 8,22 14,28 5,6 11,10 17,12 6,2 12,3 18,2 6,-1 12,-1 17,-1 5,0 10,1 14,3 4,2 7,6 9,13 11,36 1,67 -29,94 -30,27 -77,52 -142,74 -31,11 -60,18 -85,23 -25,4 -48,5 -67,3 -19,-3 -35,-9 -47,-18 -12,-10 -21,-24 -26,-41 -2,-7 -2,-12 0,-16 2,-4 5,-8 10,-11 4,-3 9,-6 14,-9 5,-3 10,-7 13,-12 4,-5 6,-12 7,-19 1,-8 0,-18 -4,-31l-157 -525c-4,-13 -8,-22 -13,-28 -5,-6 -11,-9 -16,-11 -6,-2 -12,-3 -18,-2 -6,1 -11,1 -17,1 -5,0 -10,-1 -14,-3 -4,-2 -7,-6 -9,-13 -5,-18 -5,-34 -1,-50 5,-16 15,-30 29,-44 14,-14 33,-27 56,-39 23,-12 50,-23 82,-34 32,-11 57,-17 76,-20 19,-3 35,-2 46,4 12,5 21,14 27,28 7,13 13,30 19,52l177 593z"/>
   <path class="fil7" d="M3560 2995c-11,0 -22,3 -32,8 -10,6 -19,14 -26,26 -7,11 -13,26 -17,44 -4,18 -6,39 -6,63l171 0c0,-27 -2,-49 -6,-67 -4,-18 -10,-33 -17,-44 -8,-11 -17,-19 -28,-23 -11,-5 -24,-7 -38,-7zm-40 -147c48,0 91,8 130,23 39,15 71,36 98,63 27,27 48,58 63,95 15,36 22,75 22,117 0,17 -2,31 -7,40 -4,10 -11,17 -19,21 -8,5 -19,7 -31,9 -12,1 -26,2 -41,2l-259 0c0,44 4,79 12,107 8,27 19,48 33,64 14,15 31,25 52,31 20,5 42,8 67,8 13,0 26,-2 40,-5 14,-3 27,-7 40,-12 13,-5 25,-10 35,-16 11,-5 20,-11 27,-15 6,-4 11,-6 17,-6 8,0 15,4 19,11 5,7 7,16 7,25 0,3 0,6 -1,9 0,3 -1,5 -2,8 -10,28 -24,55 -42,79 -18,24 -40,45 -65,63 -26,18 -55,32 -89,42 -34,10 -72,15 -113,15 -40,0 -77,-5 -111,-15 -33,-10 -64,-24 -91,-43 -27,-18 -51,-39 -71,-64 -20,-24 -37,-51 -50,-80 -13,-29 -23,-59 -30,-91 -7,-32 -10,-63 -10,-95 0,-33 4,-65 10,-97 7,-32 17,-63 31,-91 14,-29 31,-55 52,-80 21,-24 45,-46 72,-63 27,-18 58,-32 93,-42 34,-10 72,-15 113,-15z"/>
   <path class="fil8" d="M2317 4088c6,-11 13,-23 22,-35 9,-12 20,-25 33,-37 13,-13 28,-25 46,-36 18,-12 38,-23 62,-33 32,-13 62,-20 90,-21 28,-1 54,3 78,12 24,9 46,21 67,38 20,17 39,36 55,58 17,22 31,45 44,70 13,25 24,51 34,76 10,28 18,56 24,85 6,29 9,57 9,85 0,28 -2,55 -8,82 -6,26 -15,51 -28,74 -13,23 -30,44 -50,62 -21,19 -46,34 -75,46 -27,11 -51,19 -74,23 -22,4 -43,6 -62,5 -19,-1 -35,-3 -50,-7 -14,-4 -27,-8 -37,-13 -1,11 -3,22 -7,33 -4,11 -10,21 -18,30 -8,10 -19,19 -32,28 -13,9 -29,17 -48,25 -33,14 -63,24 -90,31 -27,7 -51,9 -71,8 -21,-1 -38,-7 -52,-16 -14,-10 -24,-24 -31,-43 -3,-7 -3,-13 -1,-18 2,-5 5,-9 10,-12 4,-4 9,-7 14,-11 5,-4 10,-9 13,-14 4,-6 6,-13 6,-21 1,-8 -1,-19 -6,-33l-204 -552c-5,-13 -10,-23 -16,-29 -6,-6 -12,-9 -18,-11 -6,-2 -13,-2 -19,-1 -6,1 -12,2 -18,2 -5,0 -10,0 -15,-2 -4,-2 -8,-6 -11,-13 -7,-19 -8,-37 -4,-54 4,-17 13,-33 28,-50 14,-16 33,-31 57,-46 24,-15 53,-29 86,-43 33,-14 60,-23 81,-28 21,-4 37,-4 50,0 13,5 24,14 32,27 8,14 17,31 25,54l82 225zm78 39c-11,4 -20,11 -28,19 -8,8 -15,16 -20,25l117 316c4,10 7,19 10,28 3,9 6,18 9,27 11,2 22,3 35,3 12,0 25,-3 38,-8 17,-7 29,-16 36,-26 7,-10 10,-24 8,-41 -1,-17 -6,-39 -15,-65 -9,-26 -20,-58 -35,-97 -15,-41 -29,-74 -42,-100 -13,-26 -25,-46 -37,-60 -12,-14 -24,-22 -37,-25 -12,-3 -26,-1 -40,5z"/>
   <path class="fil9" d="M3484 3868c-14,-4 -28,-4 -42,0 -14,4 -27,11 -39,23 -12,12 -24,28 -34,49 -10,20 -19,46 -26,76l211 56c8,-33 12,-61 12,-85 0,-24 -3,-44 -9,-59 -6,-16 -15,-29 -28,-38 -13,-9 -28,-16 -45,-21zm-7 -195c59,16 111,40 154,71 43,32 78,69 103,110 26,42 42,88 50,137 8,49 5,100 -7,152 -5,21 -12,37 -20,47 -8,10 -18,17 -30,20 -12,3 -25,3 -40,1 -15,-3 -33,-6 -52,-11l-319 -85c-13,54 -18,99 -16,136 2,36 10,66 23,90 13,23 32,42 55,55 23,13 50,24 80,32 16,4 33,7 51,7 18,1 36,0 53,-2 17,-2 33,-5 48,-8 15,-3 28,-7 38,-10 8,-3 16,-4 22,-2 10,3 17,9 21,20 4,11 4,22 1,33 -1,4 -2,7 -3,10 -1,3 -3,6 -5,9 -21,31 -46,59 -75,83 -29,24 -62,42 -99,56 -37,14 -77,21 -122,22 -44,1 -93,-5 -145,-19 -50,-13 -94,-32 -132,-55 -38,-24 -72,-51 -99,-82 -28,-31 -51,-65 -69,-102 -18,-37 -31,-75 -39,-115 -8,-40 -12,-81 -11,-122 1,-41 6,-82 15,-121 9,-40 23,-79 41,-116 18,-37 39,-72 65,-102 25,-31 54,-58 87,-82 32,-23 68,-42 107,-55 39,-13 81,-20 126,-21 45,-1 93,5 144,19z"/>
   <path class="fil10" d="M2927 4786c-13,0 -24,3 -35,9 -11,6 -21,16 -29,28 -8,13 -14,29 -19,48 -4,19 -7,43 -7,70l188 0c0,-30 -2,-54 -6,-74 -4,-20 -11,-36 -19,-48 -8,-12 -19,-21 -31,-26 -12,-5 -26,-8 -42,-8zm-44 -162c53,0 101,8 143,25 43,17 79,40 108,70 30,30 53,64 69,104 16,40 24,83 24,129 0,19 -2,34 -8,44 -5,11 -12,19 -21,24 -9,5 -20,8 -34,10 -13,1 -29,2 -46,2l-285 0c0,48 4,87 13,118 9,30 21,53 37,70 16,17 35,28 57,34 22,6 46,9 73,9 14,0 29,-2 44,-5 15,-3 30,-8 44,-13 14,-6 27,-11 39,-17 12,-6 22,-12 30,-17 6,-5 12,-7 18,-7 9,0 16,4 21,12 5,8 8,17 8,27 0,3 0,6 -1,10 0,3 -1,6 -2,9 -11,31 -27,60 -47,87 -20,27 -44,49 -72,69 -28,20 -61,35 -98,46 -37,11 -79,16 -125,16 -45,0 -85,-6 -122,-17 -37,-11 -70,-27 -100,-47 -30,-20 -56,-43 -78,-70 -22,-27 -41,-56 -56,-88 -15,-32 -26,-65 -33,-100 -7,-35 -11,-70 -11,-105 0,-36 4,-72 11,-107 8,-35 19,-69 34,-100 15,-32 34,-61 57,-88 23,-27 49,-50 79,-70 30,-20 64,-35 102,-46 38,-11 79,-16 125,-16z"/>
   <path class="fil11" d="M2890 1723c8,1 17,2 26,4 10,2 20,6 30,11 11,5 22,12 34,20 12,8 24,19 36,31 17,17 29,34 37,53 8,18 13,36 15,54 2,18 1,36 -3,54 -4,18 -10,35 -18,52 -8,17 -17,33 -28,49 -11,15 -22,30 -34,43 -13,14 -27,27 -42,39 -15,12 -30,22 -46,30 -16,8 -32,14 -49,17 -17,4 -34,4 -50,2 -17,-2 -33,-7 -50,-15 -16,-8 -32,-20 -48,-36 -14,-14 -25,-28 -34,-42 -9,-14 -15,-27 -20,-39 -5,-12 -8,-24 -10,-34 -2,-10 -3,-20 -3,-28 -7,3 -14,4 -21,5 -7,0 -15,-1 -22,-3 -8,-3 -16,-7 -25,-13 -9,-6 -18,-14 -28,-24 -17,-18 -32,-34 -43,-50 -11,-16 -20,-30 -25,-44 -5,-14 -7,-27 -5,-39 2,-12 7,-23 16,-33 3,-4 7,-5 10,-5 3,0 7,1 10,3 3,2 7,4 10,6 4,2 8,4 12,5 4,1 9,0 14,-2 5,-2 11,-6 17,-13l260 -288c6,-7 10,-13 12,-19 2,-5 2,-10 1,-15 -1,-5 -2,-9 -5,-13 -2,-4 -5,-7 -6,-11 -2,-3 -3,-7 -3,-10 0,-3 1,-7 5,-11 9,-10 19,-16 30,-18 11,-2 23,-1 36,4 13,5 27,13 42,24 15,12 31,26 49,44 17,18 30,33 38,45 8,12 13,23 14,33 1,10 -1,19 -7,28 -5,9 -13,20 -24,31l-106 117zm-1 62c-6,-6 -12,-10 -19,-13 -7,-3 -13,-5 -20,-6l-148 165c-5,5 -9,10 -13,15 -4,5 -9,9 -13,13 2,8 4,15 8,24 3,8 9,16 15,23 9,9 17,15 25,16 8,2 17,0 26,-6 10,-6 20,-15 33,-28 13,-13 28,-30 46,-50 19,-21 34,-40 46,-55 11,-16 19,-29 24,-41 4,-12 6,-22 4,-31 -2,-9 -7,-17 -14,-25z"/>
   <path class="fil12" d="M2476 2324c-3,-9 -7,-16 -11,-20 -4,-4 -8,-7 -13,-8 -4,-1 -9,-1 -13,-1 -4,1 -9,1 -12,1 -4,0 -7,0 -10,-1 -3,-1 -5,-4 -7,-9 -9,-25 -3,-48 18,-69 21,-21 54,-40 101,-59 16,-6 29,-10 41,-11 12,-1 22,0 31,3 9,3 17,7 23,14 7,6 12,14 17,23 5,9 10,18 14,29 4,10 8,22 12,33l61 178c3,9 7,15 10,19 4,4 8,7 12,8 4,1 9,1 13,1 4,-1 8,-1 12,-1 4,0 7,0 10,2 3,1 5,4 7,9 9,26 3,49 -17,69 -20,21 -53,40 -97,57 -11,4 -21,7 -30,9 -9,2 -17,2 -25,2 -7,0 -14,-2 -20,-4 -6,-2 -11,-4 -16,-7 -10,-6 -19,-15 -25,-26 -6,17 -15,34 -26,50 -5,7 -10,14 -17,21 -6,7 -14,14 -22,21 -8,7 -18,14 -28,20 -10,6 -22,12 -34,17 -23,9 -44,14 -63,14 -19,0 -36,-2 -51,-8 -15,-6 -28,-14 -40,-25 -12,-11 -22,-23 -31,-36 -9,-13 -17,-27 -24,-42 -7,-15 -12,-29 -17,-43l-38 -110c-3,-9 -7,-16 -11,-20 -4,-4 -8,-7 -13,-9 -5,-1 -9,-2 -13,-1 -4,1 -8,1 -12,1 -4,0 -7,0 -10,-2 -3,-1 -5,-4 -7,-9 -9,-25 -3,-48 18,-69 21,-21 54,-40 101,-59 21,-8 38,-12 52,-11 14,1 26,4 36,11 10,7 18,16 24,28 6,12 12,25 17,40l57 165c5,14 10,26 16,36 6,10 12,18 19,24 7,6 15,9 25,10 9,1 19,-1 31,-5 7,-3 14,-7 19,-12 6,-5 10,-11 13,-17 3,-6 5,-13 6,-20 1,-7 0,-14 -3,-22l-60 -177z"/>
   <path class="fil12" d="M3281 2240c4,-3 9,-6 15,-11 6,-5 15,-10 27,-14 12,-5 28,-9 47,-12 20,-4 45,-5 76,-5 23,0 44,3 61,9 17,6 32,14 45,24 12,10 23,22 31,36 8,14 14,29 19,45 5,16 8,33 10,50 2,17 3,34 3,51l0 4c0,28 0,50 -1,65 0,15 0,27 0,34 0,7 0,11 0,13 0,1 0,2 0,2 0,10 1,18 4,23 2,6 5,10 9,13 4,3 8,5 12,6 4,1 8,2 12,4 4,1 7,3 9,5 2,2 4,6 4,11 0,13 -3,25 -9,35 -6,10 -16,18 -28,24 -12,6 -27,11 -45,14 -18,3 -38,4 -61,4 -22,0 -42,-1 -60,-4 -17,-3 -32,-7 -44,-14 -12,-6 -21,-14 -27,-24 -6,-10 -9,-21 -9,-35 0,-5 1,-9 3,-11 2,-2 4,-4 6,-5 2,-1 5,-2 8,-3 3,-1 5,-3 8,-5 2,-3 4,-7 6,-12 2,-5 2,-12 2,-22l0 -153c0,-14 -1,-27 -2,-39 -2,-11 -4,-21 -8,-29 -4,-8 -9,-14 -15,-18 -6,-4 -14,-6 -24,-6 -15,0 -25,5 -32,15 -6,10 -10,23 -10,38l0 188c0,10 1,18 3,24 2,6 4,10 7,13 3,3 6,5 9,6 3,1 6,2 9,4 3,1 5,3 7,5 2,2 3,6 3,11 0,13 -3,25 -8,35 -5,10 -13,18 -23,24 -10,6 -24,11 -40,14 -17,3 -36,4 -60,4 -22,0 -42,-1 -60,-4 -17,-3 -32,-7 -44,-14 -12,-6 -21,-14 -27,-24 -6,-10 -9,-21 -9,-35 0,-5 1,-9 2,-11 2,-2 4,-4 6,-5 2,-1 5,-2 8,-3 3,-1 6,-3 8,-5 2,-3 4,-7 6,-12 2,-5 2,-12 2,-22l0 -153c0,-29 -3,-51 -10,-67 -7,-16 -18,-24 -35,-24 -7,0 -13,1 -19,4 -6,3 -11,6 -16,11 -5,5 -8,11 -11,17 -3,7 -4,14 -4,22l0 189c0,10 1,17 3,23 2,5 4,10 7,12 3,3 6,5 9,6 3,1 6,2 9,3 3,1 5,3 7,5 2,2 3,6 3,11 0,27 -13,47 -38,59 -25,12 -61,18 -108,18 -23,0 -43,-1 -61,-4 -18,-3 -33,-7 -46,-14 -12,-6 -22,-14 -28,-24 -6,-10 -10,-21 -10,-35 0,-5 1,-9 4,-11 3,-2 5,-4 9,-5 4,-1 7,-2 12,-3 4,-1 8,-3 12,-5 4,-3 6,-7 9,-12 2,-5 4,-12 4,-22l0 -190c0,-9 -1,-17 -4,-22 -2,-5 -5,-9 -9,-12 -4,-3 -7,-5 -12,-6 -4,-1 -8,-2 -12,-3 -4,-1 -6,-3 -9,-5 -2,-2 -4,-6 -4,-11 0,-13 3,-25 10,-34 6,-10 16,-17 28,-24 12,-6 27,-11 45,-14 18,-3 38,-4 60,-4 10,0 19,0 28,2 8,1 15,2 22,4 6,2 12,4 17,6 5,2 9,5 12,7 8,6 13,12 16,19 11,-9 24,-16 39,-24 13,-6 29,-12 48,-17 19,-5 41,-7 66,-7 26,0 50,4 70,12 20,8 36,18 49,32z"/>
   <path class="fil11" d="M2281 3105c9,-5 19,-10 30,-14 11,-4 24,-8 39,-10 14,-3 30,-3 48,-3 18,0 37,3 58,7 28,6 52,16 72,29 20,13 36,28 49,46 13,18 23,37 30,59 7,22 12,44 14,67 2,23 3,47 1,71 -2,24 -5,47 -9,70 -5,24 -11,48 -20,71 -8,23 -18,44 -30,64 -12,20 -25,37 -41,53 -15,15 -32,28 -51,38 -19,10 -40,16 -62,19 -22,3 -46,1 -73,-4 -23,-5 -44,-12 -62,-20 -17,-8 -33,-17 -45,-26 -13,-10 -23,-19 -32,-29 -8,-10 -15,-19 -20,-27 -5,8 -12,14 -19,20 -7,6 -16,10 -26,12 -10,3 -21,4 -34,4 -13,0 -28,-2 -44,-6 -29,-6 -54,-14 -76,-22 -22,-8 -39,-18 -53,-29 -14,-11 -24,-23 -29,-37 -6,-13 -7,-28 -4,-45 1,-6 4,-10 7,-13 4,-2 8,-3 12,-4 5,0 9,-1 15,-1 5,0 10,-1 15,-4 5,-2 9,-6 14,-12 4,-6 7,-14 10,-26l94 -484c2,-12 3,-21 1,-28 -2,-7 -5,-12 -8,-17 -4,-4 -8,-8 -13,-10 -5,-2 -9,-4 -13,-7 -4,-2 -7,-5 -10,-9 -2,-3 -3,-8 -2,-15 3,-16 10,-30 20,-39 10,-10 24,-17 41,-21 17,-4 37,-6 60,-4 23,2 49,5 78,12 29,6 52,13 68,20 16,7 28,15 35,25 7,10 11,21 11,35 0,13 -2,30 -6,50l-39 197zm37 65c-9,-2 -19,-2 -28,-1 -9,2 -17,4 -25,8l-54 277c-2,8 -3,16 -5,25 -2,8 -3,16 -5,23 7,7 14,13 23,19 9,6 19,10 30,13 15,3 27,3 37,-1 9,-4 17,-12 24,-25 6,-13 12,-30 17,-53 5,-23 11,-51 17,-85 7,-36 11,-66 14,-90 2,-25 2,-44 -1,-60 -3,-15 -8,-27 -15,-35 -8,-8 -17,-13 -30,-16z"/>
   <path class="fil11" d="M3074 3360c4,13 8,22 14,28 5,6 11,10 17,12 6,2 12,3 18,2 6,-1 12,-1 17,-1 5,0 10,1 14,3 4,2 7,6 9,13 11,36 1,67 -29,94 -30,27 -77,52 -142,74 -31,11 -60,18 -85,23 -25,4 -48,5 -67,3 -19,-3 -35,-9 -47,-18 -12,-10 -21,-24 -26,-41 -2,-7 -2,-12 0,-16 2,-4 5,-8 10,-11 4,-3 9,-6 14,-9 5,-3 10,-7 13,-12 4,-5 6,-12 7,-19 1,-8 0,-18 -4,-31l-157 -525c-4,-13 -8,-22 -13,-28 -5,-6 -11,-9 -16,-11 -6,-2 -12,-3 -18,-2 -6,1 -11,1 -17,1 -5,0 -10,-1 -14,-3 -4,-2 -7,-6 -9,-13 -5,-18 -5,-34 -1,-50 5,-16 15,-30 29,-44 14,-14 33,-27 56,-39 23,-12 50,-23 82,-34 32,-11 57,-17 76,-20 19,-3 35,-2 46,4 12,5 21,14 27,28 7,13 13,30 19,52l177 593z"/>
   <path class="fil11" d="M3560 2890c-11,0 -22,3 -32,8 -10,6 -19,14 -26,26 -7,11 -13,26 -17,44 -4,18 -6,39 -6,63l171 0c0,-27 -2,-49 -6,-67 -4,-18 -10,-33 -17,-44 -8,-11 -17,-19 -28,-23 -11,-5 -24,-7 -38,-7zm-40 -147c48,0 91,8 130,23 39,15 71,36 98,63 27,27 48,58 63,95 15,36 22,75 22,117 0,17 -2,31 -7,40 -4,10 -11,17 -19,21 -8,5 -19,7 -31,9 -12,1 -26,2 -41,2l-259 0c0,44 4,79 12,107 8,27 19,48 33,64 14,15 31,25 52,31 20,5 42,8 67,8 13,0 26,-2 40,-5 14,-3 27,-7 40,-12 13,-5 25,-10 35,-16 11,-5 20,-11 27,-15 6,-4 11,-6 17,-6 8,0 15,4 19,11 5,7 7,16 7,25 0,3 0,6 -1,9 0,3 -1,5 -2,8 -10,28 -24,55 -42,79 -18,24 -40,45 -65,63 -26,18 -55,32 -89,42 -34,10 -72,15 -113,15 -40,0 -77,-5 -111,-15 -33,-10 -64,-24 -91,-43 -27,-18 -51,-39 -71,-64 -20,-24 -37,-51 -50,-80 -13,-29 -23,-59 -30,-91 -7,-32 -10,-63 -10,-95 0,-33 4,-65 10,-97 7,-32 17,-63 31,-91 14,-29 31,-55 52,-80 21,-24 45,-46 72,-63 27,-18 58,-32 93,-42 34,-10 72,-15 113,-15z"/>
   <path class="fil12" d="M2317 3982c6,-11 13,-23 22,-35 9,-12 20,-25 33,-37 13,-13 28,-25 46,-36 18,-12 38,-23 62,-33 32,-13 62,-20 90,-21 28,-1 54,3 78,12 24,9 46,21 67,38 20,17 39,36 55,58 17,22 31,45 44,70 13,25 24,51 34,76 10,28 18,56 24,85 6,29 9,57 9,85 0,28 -2,55 -8,82 -6,26 -15,51 -28,74 -13,23 -30,44 -50,62 -21,19 -46,34 -75,46 -27,11 -51,19 -74,23 -22,4 -43,6 -62,5 -19,-1 -35,-3 -50,-7 -14,-4 -27,-8 -37,-13 -1,11 -3,22 -7,33 -4,11 -10,21 -18,30 -8,10 -19,19 -32,28 -13,9 -29,17 -48,25 -33,14 -63,24 -90,31 -27,7 -51,9 -71,8 -21,-1 -38,-7 -52,-16 -14,-10 -24,-24 -31,-43 -3,-7 -3,-13 -1,-18 2,-5 5,-9 10,-12 4,-4 9,-7 14,-11 5,-4 10,-9 13,-14 4,-6 6,-13 6,-21 1,-8 -1,-19 -6,-33l-204 -552c-5,-13 -10,-23 -16,-29 -6,-6 -12,-9 -18,-11 -6,-2 -13,-2 -19,-1 -6,1 -12,2 -18,2 -5,0 -10,0 -15,-2 -4,-2 -8,-6 -11,-13 -7,-19 -8,-37 -4,-54 4,-17 13,-33 28,-50 14,-16 33,-31 57,-46 24,-15 53,-29 86,-43 33,-14 60,-23 81,-28 21,-4 37,-4 50,0 13,5 24,14 32,27 8,14 17,31 25,54l82 225zm78 39c-11,4 -20,11 -28,19 -8,8 -15,16 -20,25l117 316c4,10 7,19 10,28 3,9 6,18 9,27 11,2 22,3 35,3 12,0 25,-3 38,-8 17,-7 29,-16 36,-26 7,-10 10,-24 8,-41 -1,-17 -6,-39 -15,-65 -9,-26 -20,-58 -35,-97 -15,-41 -29,-74 -42,-100 -13,-26 -25,-46 -37,-60 -12,-14 -24,-22 -37,-25 -12,-3 -26,-1 -40,5z"/>
   <path class="fil12" d="M3484 3763c-14,-4 -28,-4 -42,0 -14,4 -27,11 -39,23 -12,12 -24,28 -34,49 -10,20 -19,46 -26,76l211 56c8,-33 12,-61 12,-85 0,-24 -3,-44 -9,-59 -6,-16 -15,-29 -28,-38 -13,-9 -28,-16 -45,-21zm-7 -195c59,16 111,40 154,71 43,32 78,69 103,110 26,42 42,88 50,137 8,49 5,100 -7,152 -5,21 -12,37 -20,47 -8,10 -18,17 -30,20 -12,3 -25,3 -40,1 -15,-3 -33,-6 -52,-11l-319 -85c-13,54 -18,99 -16,136 2,36 10,66 23,90 13,23 32,42 55,55 23,13 50,24 80,32 16,4 33,7 51,7 18,1 36,0 53,-2 17,-2 33,-5 48,-8 15,-3 28,-7 38,-10 8,-3 16,-4 22,-2 10,3 17,9 21,20 4,11 4,22 1,33 -1,4 -2,7 -3,10 -1,3 -3,6 -5,9 -21,31 -46,59 -75,83 -29,24 -62,42 -99,56 -37,14 -77,21 -122,22 -44,1 -93,-5 -145,-19 -50,-13 -94,-32 -132,-55 -38,-24 -72,-51 -99,-82 -28,-31 -51,-65 -69,-102 -18,-37 -31,-75 -39,-115 -8,-40 -12,-81 -11,-122 1,-41 6,-82 15,-121 9,-40 23,-79 41,-116 18,-37 39,-72 65,-103 25,-31 54,-58 87,-82 32,-23 68,-42 107,-55 39,-13 81,-20 126,-21 45,-1 93,5 144,19z"/>
   <path class="fil13" d="M2678 1343c-88,-145 -223,-277 -382,-375 -202,-124 -443,-191 -676,-158 -64,9 -127,26 -189,51l-29 -71c68,-27 137,-46 207,-55 252,-35 510,37 727,169 167,102 310,241 405,395l-62 46z"/>
   <path class="fil14" d="M1416 686c77,0 139,62 139,139 0,77 -62,139 -139,139 -77,0 -139,-62 -139,-139 0,-77 62,-139 139,-139z"/>
   <path class="fil11" d="M2723 1323c-83,-178 -238,-344 -428,-460 -202,-124 -443,-191 -676,-158 -64,9 -127,26 -189,51l-29 -71c68,-27 137,-46 207,-55 252,-35 510,37 727,169 198,121 362,294 452,481 -24,10 -46,25 -64,45z"/>
   <path class="fil15 str0" d="M1416 581c77,0 139,62 139,139 0,77 -62,139 -139,139 -77,0 -139,-62 -139,-139 0,-77 62,-139 139,-139z"/>
   <path class="fil16" d="M3008 1314c94,-160 241,-306 415,-412 216,-132 475,-204 727,-169 70,10 140,28 207,55l-29 71c-62,-25 -125,-42 -189,-51 -233,-33 -474,35 -676,158 -167,102 -307,242 -394,395l-61 -48z"/>
   <path class="fil17" d="M4343 686c-77,0 -139,62 -139,139 0,77 62,139 139,139 77,0 139,-62 139,-139 0,-77 -62,-139 -139,-139z"/>
   <path class="fil11" d="M2964 1293c89,-193 255,-371 459,-496 216,-132 475,-204 727,-169 70,10 140,28 207,55l-29 71c-62,-25 -125,-42 -189,-51 -233,-33 -474,35 -676,158 -196,120 -355,291 -435,476 -7,-6 -15,-12 -22,-18 -13,-10 -27,-19 -42,-27z"/>
   <path class="fil15" d="M4343 581c-77,0 -139,62 -139,139 0,77 62,139 139,139 77,0 139,-62 139,-139 0,-77 -62,-139 -139,-139z"/>
   <path class="fil11" d="M2927 4681c-13,0 -24,3 -35,9 -11,6 -21,16 -29,28 -8,13 -14,29 -19,48 -4,19 -7,43 -7,70l188 0c0,-30 -2,-54 -6,-74 -4,-20 -11,-36 -19,-48 -8,-12 -19,-21 -31,-26 -12,-5 -26,-8 -42,-8zm-44 -162c53,0 101,8 143,25 43,17 79,40 108,70 30,30 53,64 69,104 16,40 24,83 24,129 0,19 -2,34 -8,44 -5,11 -12,19 -21,24 -9,5 -20,8 -34,10 -13,1 -29,2 -46,2l-285 0c0,48 4,87 13,118 9,30 21,53 37,70 16,17 35,28 57,34 22,6 46,9 73,9 14,0 29,-2 44,-5 15,-3 30,-8 44,-13 14,-6 27,-11 39,-17 12,-6 22,-12 30,-17 6,-5 12,-7 18,-7 9,0 16,4 21,12 5,8 8,17 8,27 0,3 0,6 -1,10 0,3 -1,6 -2,9 -11,31 -27,60 -47,87 -20,27 -44,49 -72,69 -28,20 -61,35 -98,46 -37,11 -79,16 -125,16 -45,0 -85,-6 -122,-17 -37,-11 -70,-27 -100,-47 -30,-20 -56,-43 -78,-70 -22,-27 -41,-56 -56,-88 -15,-32 -26,-65 -33,-100 -7,-35 -11,-70 -11,-105 0,-36 4,-72 11,-107 8,-35 19,-69 34,-100 15,-32 34,-61 57,-88 23,-27 49,-50 79,-70 30,-20 64,-35 102,-46 38,-11 79,-16 125,-16z"/>
   <path class="fil11" d="M1141 5364l-35 50c-26,-10 -55,-29 -87,-57 -37,-32 -56,-63 -55,-94 0,-31 19,-69 57,-113 38,-44 72,-69 103,-73 31,-5 64,9 102,41 28,24 50,48 66,71l-45 42c-22,-20 -45,-40 -68,-60 -14,-12 -27,-15 -40,-10 -13,5 -30,20 -52,46 -22,26 -35,46 -38,59 -3,13 2,26 16,38 32,28 58,48 76,60zm229 -124l-41 57c-10,14 -20,26 -31,36 37,-2 67,6 90,22 17,12 27,26 30,40 3,15 -2,30 -13,47l-96 134 -66 -47 81 -114c4,-6 6,-11 5,-14 -1,-4 -4,-8 -9,-11 -10,-7 -25,-13 -45,-18l-85 119 -66 -47 180 -252 66 47zm181 222c38,22 60,45 66,69 7,24 -1,55 -22,91 -21,37 -44,58 -68,64 -24,6 -55,-2 -93,-23 -38,-22 -60,-44 -67,-68 -7,-24 0,-54 21,-91 21,-37 44,-58 68,-65 24,-6 55,1 93,23zm-28 49c-12,-7 -22,-8 -30,-4 -8,5 -18,17 -30,38 -12,21 -18,36 -18,44 0,9 6,17 18,24 12,7 22,8 29,4 8,-4 18,-17 30,-38 12,-21 18,-36 18,-45 0,-9 -6,-17 -18,-24zm240 66c40,18 64,38 73,62 9,23 5,54 -12,93 -17,39 -38,62 -61,70 -23,8 -55,4 -94,-14 -40,-18 -64,-38 -73,-61 -9,-23 -5,-54 12,-92 17,-39 38,-63 62,-71 24,-9 55,-4 94,14zm-23 52c-13,-6 -23,-6 -30,-1 -7,5 -16,19 -26,41 -10,22 -14,37 -13,46 1,9 8,16 20,22 12,6 22,6 30,1 7,-5 16,-19 26,-40 10,-22 14,-38 13,-47 -1,-9 -8,-16 -20,-22zm194 182l-42 -32c-18,-14 -28,-27 -31,-40 -3,-13 -1,-28 5,-45 8,-20 21,-32 39,-37 18,-4 43,1 76,14 39,16 71,32 97,48l-23 43c-18,-8 -45,-18 -80,-32 -16,-6 -26,-10 -30,-11 -4,-1 -7,1 -8,5 0,1 -1,2 -1,3 0,1 0,2 0,2 0,1 0,1 1,2 0,1 1,1 1,2 1,1 1,1 2,2 1,1 2,2 3,3 1,1 3,2 4,3 1,1 3,2 5,3 2,1 4,3 5,4l44 33c17,13 27,25 32,37 5,12 4,27 -3,44 -10,25 -24,39 -42,43 -18,4 -45,-2 -80,-16 -35,-14 -67,-30 -96,-48l23 -43c3,1 13,5 30,12 17,7 31,13 42,17 20,8 33,13 40,14 6,1 10,-1 12,-5 0,-1 1,-2 1,-3 0,-1 0,-2 -1,-3 -1,-1 -1,-2 -2,-3 -1,-1 -2,-2 -3,-3 -2,-1 -3,-2 -4,-3 -1,-1 -3,-3 -6,-4 -3,-2 -5,-4 -7,-6zm265 72l-64 -18c-1,12 1,21 5,27 5,6 14,11 28,15 26,7 54,13 85,18l-7 49c-27,5 -61,2 -104,-10 -42,-12 -69,-29 -82,-52 -13,-23 -14,-53 -3,-91 12,-41 29,-68 51,-80 22,-12 54,-12 96,0 37,10 62,24 75,41 13,17 16,38 9,64 -5,20 -15,33 -29,39 -14,6 -34,5 -61,-3zm-54 -58l43 12c9,2 15,3 18,1 3,-2 6,-6 8,-14 2,-8 2,-14 -2,-18 -3,-4 -11,-8 -21,-11 -13,-4 -23,-4 -29,0 -6,4 -12,14 -18,30zm385 43l-11 92c-1,7 0,12 3,15 3,3 8,5 16,6l26 3 2 54c-18,5 -41,5 -70,2 -21,-3 -36,-10 -47,-22 -10,-12 -14,-28 -12,-48l14 -112 -38 -5 6 -48 38 3 7 -59 80 10 -7 59 56 7 -6 50 -56 -7zm189 -40c43,3 73,14 90,33 16,19 23,50 20,92 -3,42 -14,71 -33,87 -19,16 -50,22 -94,19 -43,-3 -73,-14 -90,-33 -16,-19 -23,-49 -20,-91 3,-42 14,-72 34,-88 19,-16 50,-23 93,-19zm-4 57c-14,-1 -23,2 -28,10 -5,7 -8,23 -10,47 -2,24 -1,40 3,48 4,8 13,12 27,14 14,1 23,-2 28,-9 5,-7 9,-23 10,-47 2,-24 1,-40 -3,-48 -4,-8 -13,-13 -26,-14zm1115 -155l-26 -46c34,-21 70,-39 108,-54 29,-11 53,-14 71,-7 19,6 34,24 45,54l51 131 -59 23 -19 -27c-11,31 -30,53 -59,64 -20,8 -39,9 -56,4 -17,-5 -29,-17 -36,-35l-8 -21c-6,-16 -6,-31 3,-45 8,-14 22,-25 43,-33l68 -27 -2 -5c-4,-9 -8,-14 -14,-16 -5,-2 -13,-1 -24,4 -27,10 -56,23 -87,37zm88 59l3 7c4,11 13,14 27,9 12,-5 24,-15 35,-30l-10 -26 -43 17c-11,5 -15,12 -11,23zm131 -317l32 63c8,15 13,30 17,44 15,-33 36,-56 62,-69 19,-9 35,-12 50,-7 14,5 26,16 35,34l74 147 -72 36 -63 -125c-3,-6 -7,-10 -10,-11 -4,-1 -8,0 -14,3 -11,6 -24,16 -37,32l66 131 -72 36 -140 -277 72 -37zm379 35l-56 36c8,9 16,14 24,14 8,0 18,-3 30,-11 23,-14 46,-31 70,-51l32 38c-14,24 -39,47 -76,71 -37,23 -68,32 -93,27 -25,-5 -49,-25 -70,-58 -23,-36 -32,-67 -26,-91 6,-25 27,-48 63,-72 33,-21 60,-30 81,-29 21,2 39,13 54,35 11,17 15,33 10,47 -5,14 -19,29 -43,44zm-80 1l38 -24c8,-5 12,-9 13,-13 1,-4 -1,-9 -5,-15 -5,-7 -10,-11 -15,-11 -5,0 -13,3 -22,9 -12,7 -18,14 -20,22 -1,7 2,18 11,33zm126 -126l-38 -37c26,-30 55,-58 87,-84 24,-19 46,-29 66,-28 20,1 39,13 59,38l87 110 -50 40 -26 -21c-1,33 -13,59 -38,79 -17,13 -34,20 -52,20 -18,0 -33,-8 -45,-23l-14 -17c-11,-14 -14,-28 -11,-44 4,-16 14,-30 31,-44l57 -45 -3 -4c-6,-7 -12,-11 -18,-11 -6,0 -13,3 -22,10 -22,18 -46,38 -72,61zm101 31l5 6c7,9 17,9 28,0 10,-8 18,-21 24,-38l-17 -22 -36 29c-10,8 -11,16 -4,25zm141 -438l213 225 -46 44 -28 -20c5,31 -6,60 -33,85 -20,19 -41,25 -64,20 -23,-6 -48,-23 -74,-51 -29,-31 -45,-57 -46,-79 -2,-21 8,-42 29,-62 21,-20 42,-31 63,-33 -15,-14 -26,-25 -34,-33l-38 -40 58 -55zm106 229l-64 -67c-14,7 -24,13 -32,20 -9,8 -12,17 -11,25 2,8 11,21 28,39 15,16 26,25 34,27 8,2 16,-1 24,-9 10,-9 17,-21 20,-35z"/>
   <path class="fil12" d="M3047 5748l5 65c2,19 1,37 -2,53 22,-24 45,-38 72,-40 30,-2 52,5 65,21 14,17 22,45 25,86 1,14 1,26 0,37 -1,11 -4,22 -8,33 -4,11 -10,20 -18,27 -8,8 -18,14 -32,19 -13,5 -29,9 -47,10 -19,1 -40,2 -64,0 -24,-1 -42,-4 -54,-9l-23 -297 81 -6zm11 156l8 99c13,1 25,1 36,0 12,-2 20,-7 24,-15 4,-9 5,-25 3,-48 -2,-21 -5,-35 -10,-41 -5,-7 -14,-9 -27,-8 -11,1 -22,5 -35,14zm325 25l-65 12c4,12 10,19 17,22 7,3 18,4 32,1 26,-5 54,-12 84,-21l16 47c-22,17 -54,29 -97,37 -43,8 -75,4 -96,-10 -21,-15 -36,-41 -43,-80 -8,-42 -4,-74 10,-94 15,-21 43,-35 86,-42 38,-7 67,-6 86,4 19,10 31,27 36,53 4,20 1,36 -9,48 -10,11 -29,20 -56,25zm-74 -29l44 -8c9,-2 15,-4 17,-7 2,-3 3,-9 1,-16 -2,-8 -5,-14 -10,-16 -5,-2 -13,-2 -24,0 -14,2 -23,6 -27,12 -4,6 -5,18 -3,35zm313 -29l-64 18c5,11 12,18 19,21 7,3 18,2 32,-2 26,-7 53,-17 82,-29l20 45c-20,19 -51,34 -93,46 -42,12 -74,11 -97,-1 -23,-13 -39,-38 -50,-76 -12,-41 -11,-73 2,-95 13,-22 40,-39 81,-50 37,-10 66,-12 86,-4 20,8 34,24 41,49 6,20 4,36 -4,48 -9,12 -27,22 -54,30zm-76 -22l43 -12c9,-2 14,-5 16,-9 2,-3 2,-9 0,-16 -2,-8 -6,-13 -11,-15 -5,-2 -13,-1 -24,2 -13,3 -22,8 -25,15 -3,6 -3,18 1,35z"/>
   <g>
    <path class="fil18" d="M5565 4783l-340 -197 18 -31 340 197 7 25 -25 7zm-2670 1549l0 -36 0 0 103 -2 102 -5 102 -8 101 -12 100 -15 99 -18 98 -21 97 -25 96 -28 95 -31 94 -34 93 -37 91 -40 90 -43 89 -46 87 -48 85 -51 84 -54 82 -57 80 -59 78 -62 76 -65 74 -67 72 -70 70 -72 68 -74 65 -77 63 -79 61 -81 58 -84 56 -86 53 -88 31 18 -53 89 -56 87 -59 85 -61 82 -64 80 -66 78 -69 75 -71 73 -73 70 -75 68 -77 65 -79 63 -81 60 -83 57 -85 55 -86 52 -88 49 -90 46 -91 43 -93 40 -94 37 -95 34 -96 31 -97 28 -99 25 -100 22 -100 18 -101 15 -102 12 -103 9 -103 5 -104 2 0 0zm-2688 -1580l18 31 7 -25 53 88 56 86 58 84 61 81 63 79 65 77 68 74 70 72 72 70 74 67 76 65 78 62 80 59 82 57 84 54 85 51 87 48 89 46 90 43 91 40 93 37 94 34 95 31 96 28 97 25 98 21 99 18 100 15 101 12 102 8 102 5 103 2 0 36 -104 -2 -103 -5 -103 -9 -102 -12 -101 -15 -100 -18 -100 -22 -99 -25 -97 -28 -96 -31 -95 -34 -94 -37 -92 -40 -91 -43 -90 -46 -88 -49 -86 -52 -85 -55 -83 -57 -81 -60 -79 -63 -77 -65 -75 -68 -73 -70 -71 -73 -69 -75 -66 -78 -64 -80 -61 -82 -59 -85 -56 -87 -53 -89 7 -25zm358 -165l-340 197 -18 -31 340 -197 24 5 -6 26zm-565 -1691l36 0 0 0 1 58 2 58 3 58 4 57 5 57 6 57 7 56 8 56 9 56 11 55 12 55 13 54 14 54 15 54 16 53 17 53 18 52 19 52 20 51 21 51 22 50 22 50 23 49 24 49 25 48 26 48 27 47 28 47 29 46 29 45 30 45 31 44 -29 21 -32 -45 -31 -45 -30 -46 -29 -47 -28 -47 -27 -48 -26 -48 -25 -49 -25 -49 -24 -50 -23 -51 -22 -51 -21 -52 -20 -52 -19 -52 -18 -53 -17 -53 -16 -54 -15 -54 -14 -55 -13 -55 -12 -55 -11 -56 -10 -56 -9 -57 -7 -57 -6 -57 -5 -58 -4 -58 -3 -58 -2 -59 -1 -59 0 0zm2895 -2895l0 36 0 0 -147 4 -145 11 -143 18 -141 25 -138 32 -136 39 -133 45 -130 51 -127 57 -123 63 -120 69 -116 74 -112 80 -108 85 -104 90 -99 95 -95 99 -90 104 -85 108 -80 112 -74 116 -69 120 -63 123 -57 127 -51 130 -45 133 -39 136 -32 138 -25 141 -18 143 -11 145 -4 147 -36 0 4 -149 11 -147 18 -145 25 -143 32 -140 39 -137 46 -135 52 -131 58 -128 64 -125 70 -121 75 -117 81 -114 86 -109 91 -105 96 -101 101 -96 105 -91 109 -86 114 -81 117 -75 121 -70 125 -64 128 -58 131 -52 135 -46 137 -39 140 -32 143 -25 145 -18 147 -11 149 -4 0 0zm2895 2895l-36 0 0 0 -4 -147 -11 -145 -18 -143 -25 -141 -32 -138 -39 -136 -45 -133 -51 -130 -57 -127 -63 -123 -69 -120 -74 -116 -80 -112 -85 -108 -90 -104 -95 -99 -99 -95 -104 -90 -108 -85 -112 -80 -116 -74 -120 -69 -123 -63 -127 -57 -130 -51 -133 -45 -136 -39 -138 -32 -141 -25 -143 -18 -145 -11 -147 -4 0 -36 149 4 147 11 145 18 143 25 140 32 137 39 135 46 131 52 128 58 125 64 121 70 117 75 114 81 109 86 105 91 101 96 96 101 91 105 86 109 81 114 75 117 70 121 64 125 58 128 52 131 46 135 39 137 32 140 25 143 18 145 11 147 4 149 0 0zm-547 1660l-18 31 -6 -26 31 -44 30 -45 29 -45 29 -46 28 -47 27 -47 26 -48 25 -48 24 -49 23 -49 22 -50 22 -50 21 -51 20 -51 19 -52 18 -52 17 -53 16 -53 15 -54 14 -54 13 -54 12 -55 11 -55 9 -56 8 -56 7 -56 6 -57 5 -57 4 -57 3 -58 2 -58 1 -58 36 0 -1 59 -2 59 -3 58 -4 58 -5 58 -6 57 -7 57 -9 57 -10 56 -11 56 -12 55 -13 55 -14 55 -15 54 -16 54 -17 53 -18 53 -19 52 -20 52 -21 52 -22 51 -23 51 -24 50 -25 49 -25 49 -26 48 -27 48 -28 47 -29 47 -30 46 -31 45 -32 45 -6 -26z"/>
   </g>
  </g>
 </g>
</svg>
