<svg xmlns="http://www.w3.org/2000/svg" preserveAspectRatio="xMidYMid" width="325" height="325" viewBox="0 0 325 325"><defs><style>.cls-1{fill:#282523;fill-rule:evenodd}</style></defs><path d="M302.926 156.758c-.932-21.129-6.008-38.845-13.21-54.153-7.225-15.362-16.702-28.273-27.895-39.469-11.178-11.176-24.087-20.727-39.468-27.896-15.332-7.144-33.009-12.31-54.148-13.213-.1.014-.158-.018-.179-.086-1.57-7.282-3.062-14.648-4.625-21.941C252.422.484 324.491 72.538 325 161.553c-7.381-1.515-14.845-2.947-22.074-4.627v-.168zM102.563 35.327c-15.43 7.201-28.44 16.7-39.642 27.895-11.167 11.172-20.708 24.311-27.808 39.732-7.099 15.431-12.158 33.172-13.214 54.233-7.346 1.417-14.618 2.905-21.899 4.385C.499 72.567 72.541.516 161.542 0c-1.62 7.303-2.973 14.874-4.74 22.027-21.279.788-38.901 6.146-54.239 13.3zm-67.364 186.98c7.173 15.4 16.719 28.463 27.899 39.642 11.193 11.201 24.366 20.527 39.639 27.896 15.331 7.401 33.301 11.997 54.328 13.214 1.492 7.318 2.928 14.701 4.505 21.941C72.559 324.5.504 252.447 0 163.437c7.352 1.493 14.768 2.922 21.985 4.55.884 21.203 6.053 38.946 13.214 54.32zm139.565 37.83c-3.343 16.577-6.93 32.909-10.186 49.57-.365-16.102-.089-32.843-.178-49.227 3.626.064 7-.144 10.364-.343zm-138.53-89.043c-.006-.124-.01-.248.085-.261 1.24.205 2.354.532 3.628.692 1.364 17.197 5.804 31.927 12.091 44.651 6.29 12.709 14.134 23.804 23.494 33.164 9.414 9.411 20.27 17.409 33.16 23.489 12.777 6.031 27.209 11.064 44.569 12.091.305 1.223.596 2.46.775 3.802-18.066-1.101-33.245-6.085-46.549-12.35-13.422-6.317-24.584-14.648-34.372-24.443-19.502-19.502-33.795-45.04-36.881-80.835zm120.05 128.164c.071.65.224 1.215.342 1.814-20.798-.919-38.174-5.947-53.284-13.04-15.017-7.051-28.034-16.458-38.952-27.381-10.948-10.953-20.398-23.806-27.467-38.865-7.072-15.063-12.005-32.52-13.035-53.199-.01-.122-.015-.245.084-.261 1.341.216 2.594.521 3.885.781.12.189-.588.402-.948.691-.713.581-1.239 1.858-.861 3.193.626 2.244 4.746 2.67 5.435.089.323-1.189-.2-2.843-.773-3.371 1.251.22 2.519.42 3.625.775 1.004 18.603 5.994 34.103 12.348 47.768 6.335 13.602 15.063 25.157 24.961 35.06 9.934 9.936 21.502 18.59 35.151 24.957 13.617 6.357 29.1 11.387 47.673 12.356.247.844.307 1.882.608 2.675-.726.698-1.589.905-1.99 1.814-.953 2.152.664 4.279 3.198 4.144zM31.83 181.022c-.589-.424-1.392-.541-2.245-.428-1.037.134-1.734.586-2.073 1.206-1.297 2.423 1.218 5.395 3.971 4.234 1.861-.781 1.786-3.961.347-5.012zm1.729 10.885c-.505-.216-1.038-.242-1.902-.087-3.285.604-2.554 5.784.777 5.7 3.244-.078 3.26-4.706 1.125-5.613zm1.293 10.882c-3.961.725-1.914 6.967 1.813 5.527 2.794-1.072 2.148-6.249-1.813-5.527zm4.321 10.619c-1.362.192-2.165 1.007-2.329 2.077-.726 4.602 5.662 4.586 5.696.778.023-1.803-1.181-3.146-3.367-2.855zm4.835 10.281c-1.966.361-3.209 3.004-1.468 4.752 1.289 1.287 4.147 1.032 4.835-.608.999-2.357-.697-4.627-3.367-4.144zm6.217 9.761c-1.268.115-2.097.714-2.417 1.466-1.583 3.761 3.924 5.558 5.356 2.848 1.314-2.485-1.031-4.496-2.939-4.314zm8.293 9.413c-.519-.216-1.335-.24-2.072-.09-.89.192-1.47.705-1.642.958-2.052 2.915 2.448 6.553 4.748 3.794 1.112-1.322.211-4.139-1.034-4.662zm5.524 8.551c-2.391.378-2.942 3.842-1.035 5.18 1.198.839 3.055.525 3.887-.35 2.014-2.078-.083-5.269-2.852-4.83zm8.034 8.028c-3.082.565-2.446 5.225.258 5.614 4.461.652 4.659-6.513-.258-5.614zm8.894 7.257c-3.846.69-1.866 6.921 1.903 5.441 2.9-1.135 1.921-6.12-1.903-5.441zm9.673 6.475c-2.224.23-3.286 2.688-1.981 4.406 1.603 2.124 5.327 1.152 5.354-1.469.014-1.881-1.559-3.116-3.373-2.937zm9.76 5.704c-1.234.216-1.989.91-2.243 1.725-1.013 3.261 3.222 5.069 5.092 3.022 1.965-2.137-.329-5.183-2.849-4.747zm13.301 5.698c-.51-.647-1.45-1.109-2.936-.865-3.742.62-2.407 6.678 1.553 5.53 1.637-.471 2.654-3.072 1.383-4.665zm7.86 3.022c-2.123.332-3.648 3.474-1.293 5.006 1.445.951 3.9.665 4.572-.946 1.065-2.514-.922-4.42-3.279-4.06zm14.337 4.494c-.46-1.115-1.873-1.814-3.542-1.467-.941.196-1.603.72-1.901 1.291-1.399 2.699 2.174 5.566 4.576 3.718.886-.68 1.372-2.334.867-3.542zm7.858.512c-1.589.277-2.276 1.201-2.327 2.51-.14 3.138 3.904 3.995 5.44 1.811 1.708-2.431-.716-4.723-3.113-4.321zm16.843-250.972c-1.974.155-4.08.186-5.789.605 1.61-9.103 3.84-18.328 5.615-27.552.423 8.781-.055 18.13.174 26.947zM88.313 60.028c5.602-4.082 11.596-8.001 18.135-11.056 13.227-6.168 28.166-11.637 45.864-12.522.286-.015 1.065-.166 1.551-.086-.118 1.378-.498 2.493-.777 3.712-17.111 1.498-31.968 5.633-44.646 12.006-18.953 9.53-34.2 22.263-45.953 38.949C50.888 107.527 42 127.548 40.038 153.473c-1.228.215-2.668.668-3.804.694 1.248-17.714 5.682-33.054 12.177-46.293 9.699-19.747 22.801-35.389 39.902-47.846zm-64.341 96.73c.805-20.45 5.84-37.937 12.779-53.032 6.904-14.987 16.245-27.897 27.121-38.776 5.525-5.52 11.33-10.545 17.789-15.2 12.551-9.042 27.488-16.682 44.651-21.246 9.245-2.454 19.361-4.235 30.144-4.491-.655 3.524-1.405 6.946-2.158 10.365-18.563 1.033-34.09 5.973-47.676 12.436-13.561 6.455-25.15 15.046-35.062 24.96-9.935 9.934-18.459 21.509-24.877 35.151-6.397 13.604-11.395 29.062-12.348 47.671-3.383.79-6.957 1.395-10.363 2.162zM146.781 31.873c4.515 1.9 6.194-5.944 1.039-5.441-.05.005-.088.082-.088.086-1.004.123-1.66.382-2.076.949-1.079 1.519-.02 3.923 1.125 4.406zm-10.619 1.9c3.113.547 4.775-3.503 2.505-5.183-.548-.402-1.456-.535-2.505-.344-.857.158-1.461.438-1.813.95-1.238 1.792.16 4.287 1.813 4.577zm-12.264 2.158c2.923 2.251 6.417-2.246 3.799-4.576-.531-.471-1.25-.618-2.245-.518-1.054.111-1.452.222-1.898.69-1.055 1.104-.813 3.514.344 4.404zm-10.281 3.885c2.622.782 4.881-1.092 4.06-3.71-.381-1.218-1.658-1.951-3.37-1.643-1.055.196-1.899.864-2.156 1.468-.626 1.465-.031 3.44 1.466 3.885zm-12 2.679c.563 3.08 5.7 2.527 5.608-.949-.045-1.98-1.381-2.89-3.281-2.593-1.8.288-2.66 1.751-2.327 3.542zm-5.532 6.91c.687-.544 1.038-1.57 1.038-2.418 0-1.91-1.176-2.94-3.107-2.678-1.276.178-2.11.856-2.421 1.554-1.259 2.883 2.213 5.357 4.49 3.542zm-12.09 6.734c4.403.838 4.824-6.192.43-5.613-.836.112-1.04.155-1.467.432-1.864 1.239-1.27 4.748 1.037 5.181zm-7.941 7.083c2.458-.242 3.209-3.776 1.636-5.181-.434-.392-1.303-.558-1.982-.518-3.834.233-3.655 6.094.346 5.699zm-11.407 6.22c.868 2.017 4.547 2.065 5.443-.26.855-2.207-.901-4.066-2.934-3.888-1.89.174-3.486 1.856-2.509 4.148zm-38.17 78.502c-1.702 4.42 5.142 5.774 5.526 1.645.206-2.207-1.234-3.455-3.282-3.195-1.2.152-1.985.872-2.244 1.55zm1.38-9.581c.272 3.931 7.394 2.646 5.529-1.73-.432-1.019-1.84-1.755-3.112-1.555-1.641.26-2.543 1.422-2.417 3.285zm31.004-58.99c4.442 1.063 4.857-6.313.346-5.616-3.194.501-3.169 4.944-.346 5.616zm-4.231 8.462c1.325-1.254 1.059-4.422-.862-5.008-.425-.129-1.272-.043-1.556 0-.951.158-1.523.461-1.902.95-2.16 2.816 1.871 6.388 4.32 4.058zm-5.179 7.082c-.097-1.574-1.451-2.627-3.109-2.501-.636.047-1.098.126-1.471.342-1.105.662-1.877 3.123-.602 4.493 1.795 1.929 5.347.436 5.182-2.334zm-5.617 11.747c1.029-2.243-.864-4.283-2.764-4.146-1.827.133-2.974 1.431-2.763 3.284.303 2.576 4.358 3.417 5.527.862zm-7.772 6.476c-3.303.641-2.625 5.968.951 5.7 3.577-.26 3.552-6.568-.951-5.7zm-1.378 10.969c-.486-.244-1.063-.229-1.645-.171-.862.089-1.426.308-1.813.691-1.099 1.104-.968 4.089.777 4.836 3.612 1.539 5.391-3.984 2.681-5.356zM217.6 48.713c13.307 6.69 24.515 14.581 34.376 24.441 9.778 9.782 17.796 21.165 24.441 34.376 6.618 13.157 10.888 28.604 12.265 46.548-1.281-.268-2.691-.416-3.802-.862-1.335-17.192-5.652-31.93-12.004-44.565-6.367-12.672-14.185-23.602-23.578-32.991-18.727-18.731-43.233-32.489-77.467-35.584-.241-1.171-.583-2.24-.694-3.542-.107-.016-.11-.252 0-.257 17.932 1.35 33.339 5.837 46.463 12.436zm-45.942-22.8c-.981-.161-1.796.168-2.762.605-.04-.885-.258-1.582-.437-2.332-.008-.123-.016-.245.087-.259 20.798.863 38.13 6.106 53.198 13.129 15.126 7.045 27.888 16.4 38.867 27.377 10.965 10.96 20.341 23.778 27.378 38.862 7.033 15.069 12.157 32.445 13.039 53.201-.714.215-1.458-.253-2.159-.345 2.152-4.599-5.965-5.891-5.525-1.122-.935-.097-1.725-.347-2.59-.52-3.096-36.596-17.478-62.821-37.399-82.735-9.9-9.902-21.512-18.57-35.146-24.96-13.568-6.359-29.018-11.512-47.59-12.436-.19-.987-.433-1.923-.604-2.937 4.16 1.417 5.055-4.957 1.643-5.528zm122.379 120.221c3.016 1.24 4.8-2.415 3.372-4.579-.464-.69-1.562-1.176-2.858-.948-2.747.489-2.867 4.562-.514 5.527zm-3.719-12.956c.779 2.552 5.62 2.371 5.62-.949 0-1.826-1.386-3.248-3.546-2.851-1.679.308-2.656 1.89-2.074 3.8zm-.081-9.153c.947-.021 2.036-.558 2.416-1.466 1.057-2.5-.982-4.4-2.937-4.234-3.906.333-3.014 5.784.521 5.7zm-5.444-10.885c3.663 1.561 5.308-3.803 2.676-5.266-.46-.259-1.036-.281-1.55-.259-.579.024-1.152.098-1.559.345-1.698 1.048-1.402 4.402.433 5.18zm-6.04-11.311c.932 1.219 3.767 1.666 4.829.084 1.491-2.194-.386-5.004-3.019-4.578-1.848.305-3.226 2.654-1.81 4.494zm-1.469-9.243c.785-.746 1.181-2.762.514-3.972-.464-.85-1.611-1.367-3.023-1.124-1.491.263-2.243 1.087-2.243 2.678.002 1.899 2.588 4.463 4.752 2.418zm-11.32-10.71c.968 2.993 7.221 2.193 5.534-2.071-.44-1.1-1.684-1.95-3.372-1.642-1.528.281-2.827 1.642-2.162 3.713zm-7.163-8.463c.561 1.279 2.721 2.072 4.314 1.207.859-.456 1.323-1.558 1.296-2.503-.045-1.842-1.514-2.935-3.282-2.762-2.112.213-3.185 2.104-2.328 4.058zm-2.679-7.945c1.004-2.344-1.137-4.571-3.455-4.147-1.109.206-1.821.811-2.072 1.643-1.095 3.608 4.327 5.314 5.527 2.504zm-13.215-6.478c3.051 2.394 6.123-2.091 3.974-4.317-.499-.515-1.69-.944-2.761-.777-.885.141-1.461.434-1.817.949-.96 1.392-.118 3.58.604 4.145zm-6.042-6.39c.863-.368 1.583-1.429 1.466-2.764-.137-1.599-1.434-2.744-3.282-2.591-1.041.09-1.646.396-2.073.95-2.027 2.639 1.279 5.518 3.889 4.405zm-9.158-6.392c1.87-1.964.133-5.188-2.769-4.749-1.041.163-1.759.652-2.063 1.382-1.417 3.361 2.861 5.44 4.832 3.367zm-12.176-4.059c1.824-.078 3.577-2.458 2.155-4.575-.397-.598-1.766-1.24-3.109-1.04-3.439.522-2.714 5.778.954 5.615zm-8.032-7.168c-.134-1.683-1.395-2.8-3.458-2.505-1.075.158-1.781.601-2.159 1.297-2.323 4.307 6.002 6.225 5.617 1.208zm-16.67-1.642c.631 1.478 3.352 2.186 4.838.865 2.22-1.976.061-5.16-2.591-4.836-1.857.231-3.12 1.922-2.247 3.971zm-10.54-1.208c1.278 1.051 3.53.645 4.406-.43 1.046-1.276.551-3.56-.688-4.234-.614-.331-1.33-.367-2.16-.259-2.332.31-3.456 3.358-1.558 4.923zm42.684 257.422l-14.116 3.714c-11.991 4.263-25.385 7.146-40.571 7.805.356-.841.171-1.583.61-2.334.422-.73 1.135-.987 1.206-1.984.06-.836-.483-1.664-.43-2.591.07-1.291.741-2.205.86-3.538a151.07 151.07 0 0 0 16.269-2.088c-.075-.155-.158-.305-.22-.469l-.485-1.294a130.948 130.948 0 0 1-15.216 1.948c.249-1.271.481-2.572.778-3.802a144.754 144.754 0 0 0 13.076-1.773l-2.699-7.186c-2.869.502-5.793.946-8.821 1.276.677-2.238.691-4.739 1.463-6.999.235-.672.78-1.311.867-1.9.107-.752-.244-1.538-.173-2.244.164-1.661.777-3.144 1.177-4.746l-1.678-4.467c-4.865.611-10.016.919-15.563.835-7.142-.108-13.826-1.146-20.004-2.735a58.639 58.639 0 0 1-5.638 1.62 106.182 106.182 0 0 0 14.496 3.273c1.174 5.802 2.407 11.534 3.546 17.363-30.952-3.346-53.433-16.033-70.648-33.254a126.379 126.379 0 0 1-4.104-4.328 60.758 60.758 0 0 1-3.534-4.072c-12.606-15.178-21.829-34.05-25.187-58.276l2.585-3.537c1.805.358 3.609.717 5.366 1.121.215.423-.365.481-.519.694-.838 1.193-.142 3.435 1.297 3.71 2.187.424 3.47-1.833 2.419-3.71 1.594.208 3.595.649 5.322 1.038a58.948 58.948 0 0 1 3.105-6.652c-.04-.519-.087-1.036-.119-1.557-.23-1.218-.416-2.438-.486-3.666-.083-1.446 0-2.845.225-4.192H15.337c16.993-3.558 34.114-6.996 51.296-10.363 3.162-22.536 12.553-39.581 24.878-53.115a93.349 93.349 0 0 1 19.792-16.477 6.177 6.177 0 0 1-.402-2.039c-15.605 9.653-28.222 23.045-36.578 39.933-4.377 8.857-7.546 18.897-9.328 29.972-.92.161-1.677.332-2.591.515-.658.135-1.829.642-2.503.518-.531-.092-.608-.647-.952-1.033-.277-.318-.621-.618-1.208-.691-1.841-.231-2.739 1.004-2.854 2.765-2.465.291-4.858 1.124-7.162 1.293 3.274-32.23 16.757-54.155 34.63-72.029 8.851-8.851 19.426-15.959 31.524-21.764 12.16-5.834 25.983-9.846 42.663-10.623 19.021-.882 35.44 2.699 48.452 7.946 26.806 10.817 46.147 28.838 59.249 53.2 6.566 12.217 11.357 26.456 13.041 43.096-5.956-.983-11.535-2.344-17.367-3.453-3.56-22.459-13.075-39.7-25.732-53.2-6.167-6.576-13.252-12.365-21.333-17.147a6.63 6.63 0 0 1-1.33 1.461c8.328 4.826 15.617 10.701 21.8 17.583 12.307 13.698 21.968 30.679 24.958 53.548 2.794-.526 5.422.541 8.203 1.121 13.898 2.899 28.039 5.748 42.062 8.549-16.5.199-33.343.046-49.996.089.018.763.058 1.521.058 2.289 0 13.032-2.644 25.449-7.419 36.756.148.082.292.173.442.254-3.54 8.423-8.071 15.857-13.458 22.435l.374 3.037c10.498-12.678 18.211-28.423 21.371-48.191 2.206-.155 3.973-1.269 5.963-1.293.718-.008 1.428.407 2.158.344.787-.063 1.502-1.004 2.331-1.296 1.877-.653 4.725-.633 6.651-1.294.419.07.142.79.088 1.208-.876 7.132-2.275 14.05-4.059 20.383-5.642 20.035-16.166 36.201-29.02 49.055-.922.923-1.867 1.825-2.819 2.72l1.132 9.19a132.511 132.511 0 0 0 6.956-6.468c18.761-18.755 32.462-43.374 35.672-77.555.89-.546 2.385-.489 3.45-.862.473.134.132.98.087 1.467-1.495 17.359-5.613 32.368-12 45.081-8.643 17.185-19.68 31.298-33.63 42.685l.277 2.249c3.582-2.87 6.999-5.889 10.201-9.093 19.912-19.905 34.298-46.147 37.312-82.828 3.355-.762 6.887-1.337 10.191-2.158h.17c-.795 20.88-6.035 38.266-13.122 53.293-7.177 15.216-16.308 27.883-27.382 38.95a140.552 140.552 0 0 1-15.91 13.695l.269 2.185c6.115-4.497 11.768-9.42 17.021-14.673 22.34-22.34 38.602-51.894 41.111-93.88 7.389-1.428 14.664-2.97 21.985-4.46-.503 89.018-72.57 161.075-161.591 161.564 1.546-7.366 2.869-14.954 4.704-22.029 21.303-1.248 39.343-6.073 54.86-13.418zm-41.557 4.954c-.382-1.159-1.698-1.897-3.372-1.639-1.8.278-2.916 1.626-2.414 3.539.789 3.021 7.221 2.475 5.786-1.9zm-36.878-25.648c.941.859 2.879.688 3.623-.261 1.464-1.847-.485-4.005-2.589-3.542-1.781.399-2.309 2.638-1.034 3.803zm-8.982-1.817c.996 1.023 3.205.776 3.886-.43.996-1.754-.45-3.6-2.417-3.364-1.701.202-2.753 2.486-1.469 3.794zm-75.012-70.387c.047-1.379.128-2.76.271-4.143-.69.172-1.106.491-1.35.951-.662 1.265.021 2.595 1.079 3.192zm-1.595-12.952c-3.003.297-2.444 4.656.344 4.575 1.208-.032 2.138-.904 2.077-2.418-.07-1.624-1.058-2.288-2.421-2.157zm-.166-40.247c2.796-.047 2.864-4.959-.265-4.578-2.715.336-2.601 4.627.265 4.578zm1.721-13.297c-1.428.23-2.354 1.487-1.721 3.279.798 2.292 5.418 1.051 4.315-2.076-.358-1.014-1.237-1.424-2.594-1.203zm3.023-8.552c-1.055.157-1.516.615-1.729 1.032-1.103 2.221 1.505 4.507 3.542 3.025.727-.53 1.258-2.218.432-3.369-.407-.567-1.229-.84-2.245-.688zm3.367-8.207c-.583.139-.982.381-1.208.691-1.921 2.689 2.432 5.395 3.892 2.592.983-1.898-.451-3.798-2.684-3.283zm6.562-7.513c-.457-.468-1.214-.599-2.068-.432-2.232.434-2.133 3.601-.606 4.318 2.585 1.212 4.356-2.183 2.674-3.886zm4.41-7.947c-.416-.142-.867-.089-1.384 0-.702.126-1.101.331-1.384.693-1.775 2.318 1.486 5.177 3.368 3.196.968-1.015.73-3.417-.6-3.889zm4.398-7.079c-.888.115-1.409.419-1.723.863-1.676 2.392 1.83 4.86 3.715 2.936 1.675-1.713-.077-4.045-1.992-3.799zm7.864-6.308c-.41-.268-.945-.311-1.556-.258-3.552.326-2.115 5.858 1.209 4.319 1.145-.529 1.693-3.16.347-4.061zm4.835-6.217c-.559.115-.987.257-1.292.605-.886 1.015-.363 3.281.863 3.715 3.754 1.327 4.395-5.124.429-4.32zm7.426-5.44c-1.541.222-2.524 1.473-1.986 3.023.442 1.248 2.544 1.86 3.72 1.036.627-.444.937-1.458.859-2.243-.126-1.314-1.183-2.015-2.593-1.816zm164.872 76c2.526-.006 2.755-3.814.865-4.489-.412-.147-1.013-.121-1.554 0-2.566.563-1.742 4.499.689 4.489zm0-9.587c1.382-1.519.073-4.205-2.332-3.8-.686.12-1.107.307-1.378.694-1.73 2.422 1.843 5.177 3.71 3.106zm-3.71-8.029c2.083-.313 2.041-3.411.692-4.233-.361-.216-.789-.289-1.381-.26-3.354.181-2.461 4.959.689 4.493zm-5.963-9.762c.5 1.55 4.137 1.949 4.495-.431.274-1.823-.973-2.994-2.852-2.679-1.415.243-2.153 1.519-1.643 3.11zm-1.294-6.733c1.783-.278 2.414-3.574.691-4.408-.439-.212-1.078-.222-1.727-.086-2.615.568-1.911 4.952 1.036 4.494zm-7.254-9.245c.88 2.539 6.028 1.243 4.231-2.071-.473-.877-1.306-1.167-2.589-.951-1.352.231-2.254 1.256-1.642 3.022zm-1.728-6.216c1.135-.801.99-2.982.262-3.713-.434-.435-1.101-.646-2.159-.435-3.303.668-1.052 6.227 1.897 4.148zm-5.352-7.342c1.27-1.9-.378-3.926-2.158-3.711-.779.09-1.239.278-1.56.688-1.935 2.506 2.215 5.268 3.718 3.023zm-10.195-6.478c1.077 1.606 4.148.85 4.232-1.209.065-1.561-.982-2.738-2.937-2.332-1.538.326-2.142 2.276-1.295 3.541zm-2.937-5.959c1.102-1.927-.593-3.789-2.675-3.367-.722.148-1.215.41-1.466.865-1.589 2.788 2.782 4.891 4.141 2.502zm-10.451-4.318c3.774 1.59 4.638-4.846.604-4.317-.053.01-.083.085-.083.085-2.326.381-2.257 3.501-.521 4.232zm79.032 96.125c-.484-.232-.977-.218-1.559-.174-.806.069-1.199.129-1.643.436-1.86 1.28-1.085 4.841 1.041 5.261 3.67.734 4.69-4.299 2.161-5.523zm-3.549 11.226c-3.138.66-2.599 5.781.781 5.7 3.725-.085 3.578-6.601-.781-5.7zm-2.241 11.142c-2.883.5-3.067 5.225-.09 5.698 4.488.72 4.623-6.478.09-5.698zm-1.816 16.496c2.632-.799 2.177-4.801.089-5.53-.339-.11-1.052-.091-1.21-.086-2.06.139-3.555 1.95-2.591 4.149.631 1.435 2.427 1.861 3.712 1.467zm-2.417 7.86c0-1.831-1.528-3.09-3.282-2.851-1.628.221-2.446.954-2.506 2.677-.132 3.727 5.79 4.105 5.788.174zm-9.848 12.522c3.056 2.396 6.031-2.275 3.804-4.578-.509-.52-1.3-.725-2.337-.603-.65.078-.917.118-1.294.346-1.437.872-1.674 3.66-.173 4.835zm-5.524 10.018c3.138 1.406 4.993-2.43 3.539-4.576-.522-.774-1.645-1.132-2.937-.864-2.862.596-2.742 4.483-.602 5.44zm-7.862 8.465c2.374 2.609 6.873-.931 4.667-3.801-.571-.735-1.872-1.137-2.939-.951-1.962.355-3.321 3.001-1.728 4.752zm-3.628 8.98c1.668-1.128 1.365-4.376-.345-5.094-.496-.207-1.121-.207-1.812-.086-.901.157-1.484.485-1.906 1.035-1.991 2.641 1.559 5.847 4.063 4.145zm-9.237 8.291c3.386-.698 2.607-6.176-1.127-5.614-1.534.234-2.468 1.114-2.507 2.678-.034 1.719 1.514 3.377 3.634 2.936zm-6.967 5.522c.369-.832.395-1.978-.116-2.845a1.874 1.874 0 0 0-.276-.342l.392 3.187zm23.634-91.28c-.408-.357-1.131-.441-1.99-.264-2.068.45-2.116 3.57-.515 4.324 2.751 1.29 4.171-2.615 2.505-4.06zm-1.471 11.83c.903-1.765-.312-3.786-2.676-3.279-1.386.297-2.451 2.465-1.122 3.798.986.985 3.174.709 3.798-.519zm-3.621 9.414c1.877-.996 1.272-4.733-1.733-4.144-1.461.289-2.576 2.266-1.38 3.713.715.87 2.305.862 3.113.431zm-3.205 4.578c-.41-.415-1.106-.596-1.983-.431-1.81.344-2.411 2.851-1.288 3.971 2.228 2.236 5.257-1.556 3.271-3.54zm-6.561 12.004c2.88.96 3.524-3.185 2.162-4.233-.389-.297-.757-.418-1.727-.258-.86.144-1.461.468-1.729 1.038-.792 1.69.455 3.172 1.294 3.453zm-5.956 6.997c1.009 1.009 3.274.706 3.886-.603.797-1.713-.281-3.513-2.333-3.285-1.787.207-2.948 2.495-1.553 3.888zm-2.244 7.254c1.639-1.498.375-4.436-1.989-3.973-.912.179-1.596.878-1.73 1.558-.464 2.34 2.046 3.942 3.719 2.415zm-56.228 63.736c3.378 1.326 4.912-2.711 3.366-4.553a5.818 5.818 0 0 1-2.887-.79c-.966.176-1.603.555-1.946 1.197-.921 1.757.37 3.721 1.467 4.146zm-58.295-31.782c1.088-1.083.363-3.238-.518-3.714-.438-.236-.912-.257-1.557-.173-3.975.526-.598 6.564 2.075 3.887zm-8.636-3.106c1.182-.79 1.12-2.464.187-3.397-.569.017-1.139.034-1.709.034-.561 0-1.122-.016-1.684-.031-.24.206-.436.431-.507.626-.912 2.562 2.094 3.85 3.713 2.768zm-10.711-3.717c.907.428 1.661.321 2.226-.054a64.834 64.834 0 0 1-2.042-.269c-.273-.042-.541-.098-.813-.143.168.183.371.345.629.466zM73.858 158.14a113.423 113.423 0 0 0-.137 3.044 59.864 59.864 0 0 1 2.092-2.454 34.417 34.417 0 0 1-1.955-.59zm12.619 1.792a51.245 51.245 0 0 0-12.067 15.415 50.894 50.894 0 0 0-3.156 7.738 51.324 51.324 0 0 0-.825 2.875 51.888 51.888 0 0 0-1.006 4.969c-.139.925-.248 1.85-.337 2.774a51.032 51.032 0 0 0 1.539 18.27 50.905 50.905 0 0 0 3.497 9.222 51.718 51.718 0 0 0 2.08 3.806 52.095 52.095 0 0 0 2.508 3.769c.053.072.101.146.154.218a52.393 52.393 0 0 0 5.953 6.735 50.992 50.992 0 0 0 11.14 8.062 50.718 50.718 0 0 0 3.485 1.677 51.477 51.477 0 0 0 13.013 3.763 52.36 52.36 0 0 0 4.154.444c2.481.173 4.953.166 7.401-.017.276-.021.554-.034.83-.059a51.04 51.04 0 0 0 4.862-.684c7.444-1.416 14.536-4.491 20.811-9.124a51.53 51.53 0 0 0 9.696-9.346 50.75 50.75 0 0 0 2.579-3.523c.179-.27.348-.547.522-.82a50.67 50.67 0 0 0 1.758-2.961c.234-.428.454-.864.675-1.299.129-.254.261-.506.386-.762.049-.101.103-.199.152-.3l.113-.234.003-.008c.201-.425.386-.859.575-1.29.281-.64.548-1.286.803-1.938.124-.318.253-.635.371-.956.019-.054.042-.106.062-.16l.016-.041c.172-.474.326-.957.485-1.437l.006-.02c.168-.511.334-1.022.486-1.539.038-.13.072-.261.109-.391l.084-.301c.185-.661.359-1.325.518-1.996.034-.145.066-.291.099-.437a53.738 53.738 0 0 0 .681-3.499c.018-.11.042-.219.058-.33.006-.037.009-.074.014-.112.02-.134.032-.268.051-.402.031-.219.054-.438.083-.657.067-.53.137-1.06.189-1.59l.004-.054c.048-.505.082-1.008.115-1.512.057-.856.093-1.711.107-2.564.004-.23.019-.461.019-.691.002-.488-.018-.973-.031-1.459l-.001-.052c-.002-.101-.003-.203-.006-.304a50.808 50.808 0 0 0-.497-5.718c-1.113-7.615-3.961-14.906-8.406-21.403l-.116-.166c-.318-.461-.631-.924-.965-1.377a52.08 52.08 0 0 0-6.289-7.056 50.891 50.891 0 0 0-3.035-2.622c-.106-.085-.214-.168-.321-.252-.109-.085-.216-.171-.325-.255-.126-.097-.248-.199-.375-.295-.435-.329-.88-.645-1.326-.96-.43-.304-.86-.608-1.299-.898-.273-.181-.552-.353-.829-.528a51.309 51.309 0 0 0-1.485-.911 50.061 50.061 0 0 0-1.704-.966c-.242-.13-.492-.247-.736-.373-.435-.224-.868-.451-1.31-.662-.425-.204-.859-.391-1.291-.583a50.813 50.813 0 0 0-4.073-1.609 51.43 51.43 0 0 0-16.856-2.843c-1.97 0-3.919.127-5.844.35-1.357.157-2.7.366-4.028.629a51.41 51.41 0 0 0-23.707 11.63zm105.57-10.424c6.091 6.091 12.182 12.182 9.315 4.299-2.865-7.882-11.465-17.198-21.855-21.497-3.746-1.55-8.327-.997-12.338.888-5.856 2.752-10.483 8.352-9.518 14.465.159 1.004.463 2.022.944 3.044.149.316.307.634.489.951 0 0 .739-.499 2.001-1.041 3.405-1.463 10.648-3.247 17.706 3.549 9.672 9.315 17.556 11.465 12.539 2.866-5.016-8.599-5.375-13.615.717-7.524zm-1.075 67.716c-3.224-.358 5.732-5.015 7.525-13.257.238-1.098.379-1.954.436-2.612.078-.896-.002-1.417-.221-1.629-.282-.276-.794-.041-1.481.531-1.318 1.097-3.283 3.44-5.542 5.86-4.316 4.625-4.914 2.345-3.858-2.487a47.82 47.82 0 0 1 .632-2.529c.308-1.105.48-1.942.552-2.576.083-.718.03-1.164-.14-1.372-.024-.03-.053-.05-.082-.071-.019-.013-.039-.022-.059-.031-.248-.115-.622.031-1.101.395-.035.027-.075.063-.112.093-.631.504-1.412 1.328-2.273 2.338-.237.278-.478.564-.725.866 0 0-3.005 3.86-5.195 5.938-.087.083-.176.168-.26.245-.532.484-1.004.843-1.353.983-.39.156-.744.84-1.063 1.787-.308.916-.582 2.078-.816 3.311l-.043.221a60.722 60.722 0 0 0-.273 1.609 91.94 91.94 0 0 0-.649 5.028l-.022.226s.228.148.651.377c.266.143.616.32 1.028.511a21.54 21.54 0 0 0 6.472 1.824c3.174.37 7 .047 10.978-2.013 2.565-1.329 5.191-3.369 7.743-6.432 12.54-15.048-7.524 3.224-10.749 2.866zm-12.694-44.827a7.12 7.12 0 0 0 1.588-1.75s5.016 8.599 3.583 13.615c-.28.98-.756 1.904-1.334 2.759-.824 1.219-1.86 2.289-2.867 3.174-.044.039-.089.081-.134.119a24.829 24.829 0 0 1-3.081 2.268 58.354 58.354 0 0 1 .202 2.486c.005.086.014.172.018.259l.004.051c.026.482.041.966.055 1.45.017.605.039 1.209.037 1.815-.002.464-.025.93-.038 1.396-.014.477-.019.954-.044 1.432l-.004.055-.005.054c-.019.348-.054.697-.08 1.046a25.72 25.72 0 0 0 2.116-1.777c.029-.026.055-.055.083-.082.44-.412.872-.832 1.279-1.271.282-.305.539-.629.806-.947a25.11 25.11 0 0 0 2.872-4.241c.262-.485.518-.972.747-1.475.047-.101.084-.207.129-.309l.026-.062c.255-.585.503-1.173.714-1.778a25.713 25.713 0 0 0 1.157-4.638c.024-.158.027-.316.048-.475.865-6.559-.796-13.084-4.736-18.422a25.792 25.792 0 0 0-1.953-2.315 25.238 25.238 0 0 0-16.808-7.957c-.313-.021-.626-.025-.939-.035-.274-.009-.548-.031-.821-.031-.971 0-1.933.075-2.89.185.166.152.325.314.489.468a56.447 56.447 0 0 1 4.695 4.973 56.781 56.781 0 0 1 2.153 2.721c.369.5.716 1.011 1.066 1.52a56.73 56.73 0 0 1 4.044 6.844c1.149.276 2.498.461 3.865.349 1.375-.112 2.758-.53 3.958-1.474zm-14.554-52.439a32.927 32.927 0 0 1 4.44-.865 31.856 31.856 0 0 1 4.213-1.451c.265-.071.531-.12.796-.184 4.549-1.095 9.185-1.158 13.763-.306a49.96 49.96 0 0 0-23.889-6.065c-11.783 0-22.63 4.091-31.289 10.953a37.67 37.67 0 0 0-1.777 1.063c-4.973 3.183-8.843 9.497-13.098 15.958.293-.016.588-.015.882-.027a59.636 59.636 0 0 1 11.201.612 60.213 60.213 0 0 1 10.713 2.645c4.937-11.192 13.267-19.449 24.045-22.333zM98.198 105.96l-4.681 5.828 13.649 22.57 4.504-5.609-2.514-3.819 5.272-6.566 4.338 1.55 4.416-5.501-24.984-8.453zm33.696-38.34l-2.272.907-.601-2.312 2.527-1.01-1.149-2.875-1.254.501-.854.342-.603-2.408-.48-1.917-2.899 1.157.396 1.579.688 2.746-.277.111-2.042.815-1.058-4.334-1.368.546-1.507.601 1.06 4.336-2.713 1.083 1.148 2.875 2.317-.926.579 2.322-2.596 1.037 1.148 2.875 2.18-.871.399 1.586.743 2.957 2.875-1.148-.761-3.093-.359-1.459.402-.161 1.893-.756.351 1.46.746 3.102 2.921-1.167-.75-3.049-.37-1.503 2.689-1.074-1.149-2.875zm1.021 15.175c-1.082-.03-1.956.083-3.308.574-.549.2-1.169.456-1.926.8l-8.305 3.77 10.24 22.556 6.038-2.742-3.511-7.732 8.91 5.279 7.571-3.436-10.749-6.023c.49-.533.704-.824.888-1.097.451-.705.652-1.452.755-1.732.741-2.61-.151-4.747-.571-5.674-.124-.274-.258-.52-.392-.762-1.197-2.16-2.74-3.111-3.8-3.461-.775-.265-1.56-.294-1.84-.32zm16.437-16.998c-.455-2.149-1.634-3.022-2.519-3.345a3.018 3.018 0 0 0-.435-.118 4.955 4.955 0 0 0-.704-.074c.359-.357.446-.426.623-.668.032-.045.052-.094.081-.14.732-1.178.483-2.623.408-2.975a5.257 5.257 0 0 0-.408-1.181c-.672-1.411-1.931-2.338-3.59-2.514-1.122-.12-2.247.118-2.587.191-.705.149-3.511.697-4.763 2.965a4.796 4.796 0 0 0-.556 1.683c-.108.686-.059 1.288.034 1.959l2.539-.524 1.788-.369c-.007-.152-.075-.469-.048-.831.044-.393.334-1.194 1.407-1.422 1.026-.216 1.79.259 2.013 1.31.201.953-.187 1.774-1.162 1.981-.342.072-.856.054-.881.059l.663 3.253c.289-.086.499-.181.815-.249 1.319-.279 2.021.388 2.325.86.046.092.246.433.333.847.196.929-.086 1.882-.872 2.381-.337.223-.752.311-.874.338-.463.098-.802.068-.989.031a2.048 2.048 0 0 1-.752-.301c-.711-.462-.932-1.027-1.17-1.794l-4.616.979c.135.462.503 1.793 1.424 2.994.373.487.827.954 1.408 1.331 1.744 1.136 3.685.903 4.306.822.4-.033.791-.116 1.183-.199.916-.194 1.796-.453 2.622-.874.076-.039.155-.071.231-.113 1.483-.852 2.4-2.131 2.73-3.618a6.3 6.3 0 0 0-.007-2.675zm.242 14.262c-1.956 2.121-2.759 4.567-3.076 6.517a14.783 14.783 0 0 0-.182 2.979c.214 4.699 2.533 7.755 3.819 8.998 1.584 1.579 4.732 3.613 10.063 3.37 5.857-.267 9.003-2.939 10.565-4.874 2.794-3.5 2.889-7.546 2.821-9.054a13.648 13.648 0 0 0-.144-1.419 12.836 12.836 0 0 0-.838-3.072c-1.204-2.892-3.217-4.64-4.429-5.488-2.612-1.812-5.373-2.284-8.529-2.14-1.58.072-6.558.334-10.07 4.183zm21.945-14.297c-.605 1.094-1.669 1.39-2.101 1.494-.58.121-1.003.1-1.252.087-.873-.044-1.414-.246-1.754-.413-1.904-.921-2.438-3.197-2.344-5.091.028-.548.179-3.54 2.556-4.595a4.2 4.2 0 0 1 1.865-.33c.649.032 1.868.143 2.828 1.442.258.337.508.825.552.927l.733-.302 3.86-1.592c-.546-1.052-.85-1.467-1.253-1.912-.729-.841-1.627-1.439-2.607-1.863-1.182-.512-2.485-.767-3.779-.832-.473-.024-1.694-.085-3.009.199-1.414.303-4.514 1.296-6.072 4.967-.31.684-.719 1.863-.814 3.732-.139 2.767.646 4.657 1.447 5.873.21.319.421.601.616.829.402.47.88.893 1.386 1.269 1.568 1.103 3.247 1.512 5.141 1.607 2.515.127 4.084-.429 5.084-.901l.035-.015a7.212 7.212 0 0 0 2.484-2.071c1.478-1.934 1.728-4.211 1.825-5.059a35.13 35.13 0 0 0 .188-2.241l-4.532-.24-4.293-.228-.197 3.938 3.813.192c-.059.147-.158.667-.406 1.129zm6.819 33.169c.773 2.098 2.781 5.266 7.721 7.281 5.426 2.212 9.404 1.105 11.633.005 4.003-2.008 5.786-5.639 6.356-7.036 2.148-5.265.345-9.487-.726-11.327-1.609-2.741-3.92-4.326-6.847-5.519-.957-.392-3.277-1.314-6.111-1.34-1.493-.013-3.125.217-4.783.914-2.686 1.114-4.443 3.02-5.547 4.667a14.844 14.844 0 0 0-1.391 2.588c-1.775 4.354-.953 8.102-.305 9.767zm4.165-44.201l-3.206 14.156-.687 3.032 10.299 2.332.682-3.015.221-.978-5.671-1.284.6-2.654 4.773 1.081.914-4.041-4.772-1.082.188-.829.376-1.653 2.097.475 3.354.76.91-4.017-10.078-2.283zm16.767 4.495l-4.225-1.54-.672 1.842-.73 2.005 3.325 1.211.146.053-3.529 9.683-1.104 3.027.112.04 4.555 1.659 1.103-3.025 3.528-9.683 3.448 1.255 1.4-3.846-7.357-2.681zm30.913 48.793l-7.834 3.473c-.942.423-1.884.848-2.852 1.293-.71.313-1.373.628-2.111.96.411-.749.872-1.496 1.308-2.218.488-.82.982-1.689 1.471-2.509l4.282-7.358-5.219-5.788-21.108 13.598 4.774 5.293 7.109-4.853c1.625-1.134 3.174-2.246 4.771-3.358-.758 1.204-1.418 2.462-2.154 3.692l-5.26 9.47 2.867 3.181 10.008-4.205c1.323-.579 2.645-1.155 3.918-1.737-1.215 1.38-2.404 2.784-3.645 4.187l-5.767 6.76 4.771 5.291 15.77-19.514-5.099-5.658zm4.265 168.317l-.156-1.272-.7-5.682-.268-2.176-.49-3.977-1.064-8.639-.235-1.906-.037-.303-.799-6.489-.545-4.421-.825-6.706-.386-3.128-.042-.342-.6-4.878-2-16.234-1.142-9.278a58.054 58.054 0 0 0 1.64-7.505l-.105-.863-1.18-.084-1.409-.101-.018-.001a56.903 56.903 0 0 1-.795 4.456l-.053.234a52.652 52.652 0 0 1-.984 3.732 46.795 46.795 0 0 1-2.423 6.359c-.315.67-.647 1.323-.991 1.964-3.384 6.309-8.144 11.162-14.009 13.831 4.797-4.309 8.498-10.26 10.895-17.246a55.377 55.377 0 0 0 1.853-6.825c.416-2.027.737-4.111.951-6.248.158-1.572.263-3.169.307-4.79.014-.507.016-1.018.019-1.529.002-.505 0-1.011-.009-1.52a72.102 72.102 0 0 0-.127-3.164c-.03-.479-.054-.956-.093-1.437l-.005-.051c-.04-.488-.095-.979-.145-1.47a76.7 76.7 0 0 0-2.176-11.829 77.346 77.346 0 0 0-2.132-6.7c-3.903-10.627-9.97-19.838-17.514-26.504-.351-.31-.698-.625-1.055-.924-5.462-4.569-11.289-7.521-17.128-8.764.774-.07 1.55-.118 2.327-.118 6.549 0 13.157 2.475 19.194 6.876a48.964 48.964 0 0 1 6.672 5.9c.253.267.502.541.751.815 2.365 2.6 4.568 5.52 6.559 8.721a235.672 235.672 0 0 0-5.24-9.396 276.717 276.717 0 0 0-3.015-5.015 48.723 48.723 0 0 0-5.774-4.485c-.076-.051-.153-.099-.23-.149-4.715-3.08-9.724-5.091-14.78-5.816-3.824-.547-7.674-.37-11.441.639-1.458.391-2.86.906-4.214 1.515a28.127 28.127 0 0 0-4.439.801c-3.625.97-6.928 2.651-9.881 4.9-4.721 3.596-8.525 8.671-11.237 14.753a49.24 49.24 0 0 0-1.257 3.086 53.508 53.508 0 0 1 2.566 1.188 45.419 45.419 0 0 1 1.255-3.098c.126-.284.247-.572.378-.851 3.418-7.264 8.54-12.853 14.999-15.791a25.184 25.184 0 0 1 3.918-1.419c.107-.028.216-.048.324-.075a25.423 25.423 0 0 1 4.127-.687c.71-.059 1.422-.1 2.137-.1 3.582 0 7.224.742 10.826 2.189 3.664 1.471 7.287 3.671 10.763 6.58 4.421 3.698 8.337 8.32 11.615 13.61 3.518 5.676 6.301 12.124 8.157 19.06.169.629.319 1.257.47 1.885a74.229 74.229 0 0 1 1.145 5.718 71.783 71.783 0 0 1 .678 5.959l.004.051c.034.479.071.96.095 1.436a66.75 66.75 0 0 1 .083 3.18c.002.493 0 .985-.009 1.474l-.001.052c-.01.517-.031 1.03-.053 1.542a62.795 62.795 0 0 1-.393 4.821c-.644 5.312-1.96 10.262-3.877 14.652-1.379 3.158-3.068 6.023-5.041 8.521-2.831 3.586-6.244 6.41-10.159 8.252a25.19 25.19 0 0 1-3.899 1.463c-.106.03-.208.068-.315.097a25.334 25.334 0 0 1-4.229.738c-2.281.21-4.595.115-6.917-.281a30.318 30.318 0 0 1-5.229-1.393c-.102-.037-.204-.078-.307-.117a33.298 33.298 0 0 1-1.491-.596c-.168-.072-.335-.149-.503-.224a37.835 37.835 0 0 1-2.974-1.499c-.085.175-.176.347-.263.521l-.004.006-.082.164c-.099.195-.196.392-.297.586-.195.374-.391.748-.594 1.118l-.089.157c-.22.397-.445.792-.674 1.183-.055.093-.105.188-.16.28l1.425 3.794.048.127 8.603 22.909.745 1.984.034.092 1.127 3.001 1.947 5.185 1.384 3.686 2.642 7.035 2.687 7.155 1.353 3.603.446 1.187.245-.052 4.356-.931 1.417-.303 1.417-.302 4.809-1.028 2.608-.557 23.543-6.195 5.164-1.359zm-37.012 6.775l-1.393.366-1.393.367-1.737.457-1.007-2.683-2.671-7.113-5.968-15.892-1.101-2.932-.027-.071-.757-2.018-7.87-20.956-.008-.022-1.688-4.493-.448-1.195c.295.144.591.29.887.425a37.209 37.209 0 0 0 3.188 1.271c.48.166.961.32 1.441.463.098.029.196.053.294.081a31.47 31.47 0 0 0 4.485.947c.155.021.31.04.465.059l.14.018a28.331 28.331 0 0 0 10.734-.76 27.773 27.773 0 0 0 4.216-1.515 28.354 28.354 0 0 0 4.437-.801c3.625-.97 6.928-2.652 9.881-4.901 3.01-2.292 5.647-5.185 7.867-8.559a43.787 43.787 0 0 0 3.61-6.725l.942 7.65 1.791 14.543.56 4.548.031.252.399 3.239 1.299 10.554 1.089 8.837 1.049 8.523.478 3.88.265 2.153.381 3.093-10.569 2.781-11.41 3.002-7.599 2-4.283 1.127zm12.982-7.484l14.807-3.417 2.273-.525-.071-.737-.374-3.887-.817-8.491-.53-5.516-1.523-.581-10.991-4.195-1.534-.586-3.608-1.377-1.004-.383c.064.272.116.543.16.813.187 1.152.188 2.264.032 3.294a8.341 8.341 0 0 1-.55 2.006c-.4.943-.96 1.741-1.67 2.298l.782 3.047.719 2.799 2.048 7.974.004.016-.113.029-3.16.811-3.554-13.836c-.987-.16-1.955-.66-2.829-1.412-.743-.64-1.408-1.471-1.958-2.443l-.009-.015a11.288 11.288 0 0 1-.951-2.252c-.051-.166-.114-.324-.158-.495a12.023 12.023 0 0 1-.159-.723c-.431-2.246-.166-4.393.633-6.008l-5.452-2.081-5.838-2.228-5.492-2.097-.309-.117-.451-.172 6.42 17.549.752 2.056.034.093 1.042 2.846 2.048 5.599 1.257 3.436 2.511 6.864 2.058 5.626.992-.229 4.331-.999 10.202-2.354zM191.251 87.208a6.822 6.822 0 0 1 2.967.528c.358.145 1.222.535 1.968 1.219 1.236 1.149 2.697 3.791 1.133 7.627-.7 1.722-1.977 3.552-3.723 4.393-1.61.785-3.446.642-5.038-.008-2.567-1.046-4.065-3.324-3.916-6.107.068-1.374.517-2.478.704-2.934 1.536-3.769 4.164-4.632 5.905-4.718zm-29.093-5.192c1.332.435 3.218 1.763 3.935 4.56.147.573.262 1.186.294 1.889.084 1.859-.307 4.055-1.539 5.552-1.131 1.387-2.859 2.028-4.577 2.106-2.771.126-5.086-1.315-6.118-3.902-.515-1.276-.568-2.469-.591-2.961-.047-1.029.049-1.916.241-2.684.567-2.266 1.986-3.472 3.14-4.076 1.234-.654 2.391-.741 2.917-.766.386-.017 1.335-.025 2.298.282zm-31.119 12.689l-1.086.494-2.191-4.826 1.438-.652c.67-.305 2.669-1.25 3.744 1.113 1.189 2.62-1.235 3.565-1.905 3.871zm-7.212-26.416l2.319-.927.556 2.333-2.296.916-.579-2.322zm-20.223 48.313a148.874 148.874 0 0 0-2.565-3.59c1.337.579 2.673 1.157 4.031 1.707l4.129 1.695-3.076 3.831-2.519-3.643zm15.663 74.575c.667.249 1.326.555 1.977.914a16.736 16.736 0 0 1 3.087 2.203c3.54 3.179 7.239 5.233 10.871 6.324.689.207 1.374.381 2.056.518 1.705.343 3.383.473 5.013.399a19.337 19.337 0 0 0 1.42-.118c.161-.019.323-.029.482-.052a18.732 18.732 0 0 0 2.628-.587c.466-.138.924-.294 1.375-.468.444-.17.88-.358 1.308-.562.334-.159.665-.325.989-.504.121-.067.241-.139.361-.209a18.52 18.52 0 0 0 3.597-2.733 19.398 19.398 0 0 0 2.08-2.373 21.563 21.563 0 0 0 2.755-4.961c1.525-3.851 2.17-8.459 1.609-13.664 0 0 3.756 7.435 5.023 17.535.184 1.466.322 2.981.381 4.544.02.499.025 1.005.029 1.512l.001.052c.003.489-.006.982-.018 1.477-.008.354-.014.706-.031 1.063-.016.344-.044.692-.069 1.039-.027.392-.056.783-.094 1.177a42.754 42.754 0 0 1-.402 2.982c-.032.188-.058.375-.093.564-.023.125-.044.25-.068.375-.026.133-.06.267-.087.4-.048.236-.102.472-.154.707-.09.403-.181.805-.284 1.207-.045.175-.097.35-.145.524-.15.556-.31 1.111-.488 1.667l-.036.105c-.064.198-.133.396-.201.594-.106.311-.201.623-.316.934-.028.075-.062.15-.091.226-.043.112-.093.225-.137.337a36.841 36.841 0 0 1-.886 2.08c-.049.106-.102.211-.152.317a35.01 35.01 0 0 1-.906 1.79c-.23.424-.462.849-.712 1.27l-.004.007a37.738 37.738 0 0 1-2.497 3.667c-.147.191-.278.386-.429.576-10.415 13.074-25.899 19.971-40.098 18.93a35.931 35.931 0 0 1-8.033-1.51 34.298 34.298 0 0 1-1.621-.548c-5.079-1.859-9.757-4.931-13.664-9.348a19.362 19.362 0 0 1-3.811-6.457 18.488 18.488 0 0 1-.241-.746c-.8-2.621-1.026-5.358-.78-8.095 1.344-14.948 16.747-29.835 29.506-25.081zm33.133-4.269a15.51 15.51 0 0 1-.965 1.67 15.418 15.418 0 0 1-1.233 1.567 15.462 15.462 0 0 1-4.867 3.687c-.158.076-.313.158-.473.229-.279.122-.565.228-.852.335a15.309 15.309 0 0 1-4.868.949c-.134.004-.265.019-.4.02-.027 0-.053.004-.08.004-.114 0-.225-.014-.339-.017-.119-.003-.237-.013-.355-.018a15.328 15.328 0 0 1-6.573-1.787 15.47 15.47 0 0 1-5.959-5.711 15.316 15.316 0 0 1-2.181-7.874c0-6.993 4.664-12.89 11.049-14.771.118-.034.24-.06.359-.092a15.383 15.383 0 0 1 3.999-.543c.141 0 .277.018.417.021.476.013.947.042 1.411.097.325.039.646.089.965.148.139.025.28.045.417.075l.043.01c.118.026.233.062.351.091.336.08.674.157 1.001.26a15.275 15.275 0 0 1 4.327 2.168l.1.074c.512.373 1 .775 1.463 1.207a15.33 15.33 0 0 1 4.123 16.096 15.344 15.344 0 0 1-.88 2.105z" class="cls-1"/></svg>