<?xml version="1.0" encoding="UTF-8" standalone="no"?>
<svg width="430px" height="417px" viewBox="0 0 430 417" version="1.1" xmlns="http://www.w3.org/2000/svg" xmlns:xlink="http://www.w3.org/1999/xlink">
    <!-- Generator: Sketch 40 (33762) - http://www.bohemiancoding.com/sketch -->
    <title>home_mobile</title>
    <desc>Created with Sketch.</desc>
    <defs></defs>
    <g id="Hero" stroke="none" stroke-width="1" fill="none" fill-rule="evenodd">
        <g id="home_mobile">
            <g id="Group-16" transform="translate(-474.000000, 89.000000)">
                <g id="Group-11">
                    <g id="Landscape" transform="translate(0.000000, 131.979733)">
                        <g id="City" transform="translate(399.072401, 47.992630)" fill="#F6F6F6">
                            <polygon id="Fill-3" points="16.502994 111.779657 94.7820053 111.779657 94.7820053 104.983878 16.502994 104.983878"></polygon>
                            <polygon id="Fill-5" points="500.340773 127.527239 579.607225 127.527239 579.607225 120.73146 500.340773 120.73146"></polygon>
                            <polygon id="Fill-6" points="22.5040827 165.141155 89.8380554 165.141155 89.8380554 104.983878 22.5040827 104.983878"></polygon>
                            <polygon id="Fill-7" points="485.338051 163.918775 552.125366 163.918775 552.125366 98.2349148 485.338051 98.2349148"></polygon>
                            <polygon id="Fill-9" points="73.513337 109.317555 109.738595 109.317555 109.738595 91.4859512 73.513337 91.4859512"></polygon>
                            <polygon id="Fill-10" points="221.290147 140.067373 341.182128 140.067373 341.182128 41.9935514 221.290147 41.9935514"></polygon>
                            <polygon id="Fill-11" points="196.535656 125.819561 236.984007 125.819561 236.984007 27.7457393 196.535656 27.7457393"></polygon>
                            <polygon id="Fill-12" points="389.144693 169.312882 453.347722 169.312882 453.347722 69.7392906 389.144693 69.7392906"></polygon>
                            <polygon id="Fill-13" points="388.570495 70.8055837 458.574016 70.8055837 458.574016 65.2399816 388.570495 65.2399816"></polygon>
                            <polygon id="Fill-14" points="303.054981 55.8078868 373.058502 55.8078868 373.058502 50.2422847 303.054981 50.2422847"></polygon>
                            <polygon id="Fill-15" points="214.538922 47.5591535 284.542443 47.5591535 284.542443 41.9935514 214.538922 41.9935514"></polygon>
                            <polygon id="Fill-16" points="308.305934 149.065991 367.832208 149.065991 367.832208 50.9921695 308.305934 50.9921695"></polygon>
                            <polygon id="Fill-17" points="184.533478 152.528116 223.540555 152.528116 223.540555 49.4923998 184.533478 49.4923998"></polygon>
                            <polygon id="Fill-18" points="138.025041 176.22794 199.96698 176.22794 199.96698 53.9917089 138.025041 53.9917089"></polygon>
                            <polygon id="Fill-19" points="90.016331 45.7052502 149.369749 45.7052502 149.369749 38.994012 90.016331 38.994012"></polygon>
                            <polygon id="Fill-20" points="75.0136091 80.949838 148.823207 80.949838 148.823207 74.2385997 75.0136091 74.2385997"></polygon>
                            <polygon id="Fill-21" points="114.770822 171.80556 142.351109 171.80556 142.351109 26.9958544 114.770822 26.9958544"></polygon>
                            <polygon id="Fill-22" points="400.572673 128.897384 425.768625 128.897384 425.768625 57.7411331 400.572673 57.7411331"></polygon>
                            <polygon id="Fill-23" points="349.563419 131.147038 389.6747 131.147038 389.6747 59.9907877 349.563419 59.9907877"></polygon>
                            <polygon id="Fill-24" points="444.080566 155.143353 484.191848 155.143353 484.191848 83.9871027 444.080566 83.9871027"></polygon>
                            <polygon id="Fill-25" points="299.3043 101.901529 324.500253 101.901529 324.500253 30.7452787 299.3043 30.7452787"></polygon>
                            <polygon id="Fill-26" points="96.7675558 168.47799 174.359464 168.47799 174.359464 38.994012 96.7675558 38.994012"></polygon>
                            <polygon id="Fill-27" points="81.0146979 171.451696 143.675071 171.451696 143.675071 74.9884846 81.0146979 74.9884846"></polygon>
                            <polygon id="Fill-28" points="471.085465 143.158424 532.562854 143.158424 532.562854 76.4882543 471.085465 76.4882543"></polygon>
                            <polygon id="Fill-29" points="488.338596 82.162805 505.942919 82.162805 505.942919 62.2404422 488.338596 62.2404422"></polygon>
                            <polygon id="Fill-30" points="488.338596 89.1121383 490.759663 89.1121383 490.759663 69.7392906 488.338596 69.7392906"></polygon>
                            <polygon id="Fill-31" points="503.341317 89.1121383 505.762385 89.1121383 505.762385 69.7392906 503.341317 69.7392906"></polygon>
                            <polyline id="Fill-32" points="488.338596 62.5853181 497.140217 55.4914786 505.942919 62.5853181"></polyline>
                            <polygon id="Fill-33" points="217.391611 0 204.787153 31.793841 228.195124 31.0709088"></polygon>
                        </g>
                        <g id="Group-3" transform="translate(777.891127, 0.000000)">
                            <rect id="Rectangle-path" stroke="#00ACC1" stroke-width="1.125" fill="#EEEEEE" x="38.2944475" y="44.8557261" width="8.02645618" height="87.0705415"></rect>
                            <path d="M12.4522591,5.15185969 C12.4522591,2.14683669 14.4401198,0.719450762 16.8780621,0.719450762 C19.3160044,0.719450762 21.303865,2.14683669 21.303865,5.15185969 L12.4522591,5.15185969 L12.4522591,5.15185969 Z" id="Shape" stroke="#00ACC1" stroke-width="1.125" fill="#F5F5F5"></path>
                            <path id="Shape" stroke="#00ACC1" stroke-width="1.125" fill="#FFFFFF"></path>
                            <path d="M30.3430049,5.15185969 C30.3430049,2.14683669 32.3308655,0.719450762 34.7688078,0.719450762 C37.2067501,0.719450762 39.1946108,2.14683669 39.1946108,5.15185969 L30.3430049,5.15185969 L30.3430049,5.15185969 Z" id="Shape" stroke="#00ACC1" stroke-width="1.125" fill="#F5F5F5"></path>
                            <path id="Shape" stroke="#00ACC1" stroke-width="1.125" fill="#FFFFFF"></path>
                            <rect id="Rectangle-path" stroke="#00ACC1" stroke-width="1.125" fill="#FFFFFF" x="4.57583016" y="9.17107795" width="72.4256396" height="35.6846481"></rect>
                            <polygon id="Shape" fill="#9E9E9E" opacity="0.2" points="39.1195972 56.0869996 45.4957539 60.3691573 45.4957539 49.475949 39.1195972 49.475949"></polygon>
                            <ellipse id="Oval" fill="#00ACC1" cx="18.1157866" cy="27.013402" rx="1.42525857" ry="1.42738593"></ellipse>
                            <polyline id="Shape" stroke="#00ACC1" stroke-width="1.125" points="39.0820904 26.7880253 38.9320631 26.7880253 23.0666848 26.7880253"></polyline>
                            <rect id="Rectangle-path" stroke="#00ACC1" stroke-width="1.125" fill="#F5F5F5" x="0.262547632" y="44.8557261" width="81.0897115" height="3.79384154"></rect>
                            <path d="M84.0152422,4.02497606 L48.2712575,4.02497606 C46.9585193,4.02497606 45.6082744,4.21279 45.6082744,5.52748756 L45.6082744,28.1027229 C45.6082744,29.4174204 46.9585193,31.0701831 48.2712575,31.0701831 L54.2348394,31.0701831 L54.2348394,36.8924151 C54.2348394,37.981736 55.847632,38.8832429 56.7477953,38.2446755 L67.362221,31.0701831 L84.0152422,31.0701831 C85.3279804,31.0701831 86.0781165,29.4174204 86.0781165,28.1027229 L86.0781165,5.52748756 C86.0781165,4.21279 85.3279804,4.02497606 84.0152422,4.02497606 L84.0152422,4.02497606 Z" id="Shape" stroke="#F9A825" stroke-width="1.125" fill="#FFECB3"></path>
                            <g id="Group" transform="translate(54.009799, 13.979115)" stroke="#F9A825" stroke-width="1.125" fill="#FFFFFF">
                                <ellipse id="Oval" cx="2.85051715" cy="2.81720906" rx="2.66298312" ry="2.66695791"></ellipse>
                                <ellipse id="Oval" cx="11.6646162" cy="2.81720906" rx="2.66298312" ry="2.66695791"></ellipse>
                                <ellipse id="Oval" cx="20.4787153" cy="2.81720906" rx="2.66298312" ry="2.66695791"></ellipse>
                            </g>
                        </g>
                        <ellipse id="Oval-2" stroke="#4AC3D2" stroke-width="1.125" fill="#FAFAFA" cx="689" cy="807.251036" rx="689" ry="688.769231"></ellipse>
                    </g>
                    <g id="Group-6" transform="translate(423.076756, 117.731921)" stroke-width="1.125" stroke="#00ACC1">
                        <g id="Group">
                            <path d="M43.5454001,8.03843653 C44.2580294,7.55012029 45.1206859,7.24961799 46.058356,7.24961799 C48.4587915,7.24961799 50.4466522,9.20288294 50.4466522,11.6444641 L55.8851388,11.6444641" id="Shape"></path>
                        </g>
                    </g>
                    <g id="Group-2" transform="translate(628.614045, 170.973745)">
                        <polyline id="Shape" stroke="#00ACC1" stroke-width="1.125" points="105.544667 10.0273334 83.6233026 0.124100661 51.4440217 10.7471172"></polyline>
                        <rect id="Rectangle-path" stroke="#F9A825" stroke-width="1.2375" fill="#FFE082" x="77.3353972" y="100.049953" width="18.1239628" height="5.53488948"></rect>
                        <polygon id="Shape" stroke="#F9A825" stroke-width="1.2375" points="83.6233026 0.124100661 83.6233026 99.9258523 89.1714545 99.9258523 89.1714545 5.21222777"></polygon>
                        <g id="Group" transform="translate(77.557323, 5.212228)" stroke-width="1.2375" stroke="#F9A825">
                            <path id="Shape"></path>
                            <path id="Shape"></path>
                            <path id="Shape"></path>
                            <path id="Shape"></path>
                            <path id="Shape"></path>
                            <path id="Shape"></path>
                            <path id="Shape"></path>
                            <path id="Shape"></path>
                            <polyline id="Shape" points="17.5814769 94.8377252 11.6141313 89.1539149 6.0659794 89.1539149"></polyline>
                            <path d="M6.0659794,50.1118469 L11.5401559,55.5970962" id="Shape"></path>
                            <g transform="translate(5.918029, 33.258977)" id="Shape">
                                <path></path>
                                <path></path>
                                <path></path>
                                <path></path>
                                <path></path>
                                <path></path>
                                <path d="M0.147950717,11.26834 L5.62212725,16.7784094"></path>
                                <path d="M0.147950717,5.68381028 L5.62212725,11.1938796"></path>
                                <path d="M0.147950717,0.0992805289 L5.62212725,5.60934988"></path>
                            </g>
                            <g transform="translate(5.918029, 16.629489)" id="Shape">
                                <path></path>
                                <path></path>
                                <path></path>
                                <path></path>
                                <path></path>
                                <path></path>
                                <path d="M0.147950717,11.1938796 L5.62212725,16.6791288"></path>
                                <path d="M0.147950717,5.60934988 L5.62212725,11.0945991"></path>
                                <path d="M0.147950717,0.0248201322 L5.62212725,5.53488948"></path>
                            </g>
                            <g transform="translate(5.918029, 0.000000)" id="Shape">
                                <path></path>
                                <path></path>
                                <path></path>
                                <path></path>
                                <path></path>
                                <path d="M0.147950717,11.1690595 L5.62212725,16.6543087"></path>
                                <path d="M0.147950717,5.58452975 L5.62212725,11.069779"></path>
                                <path d="M0.147950717,0 L5.62212725,5.51006935"></path>
                            </g>
                            <path d="M6.0659794,55.6715566 L11.5401559,61.1816259" id="Shape"></path>
                            <path d="M6.0659794,61.2560863 L11.5401559,66.7661557" id="Shape"></path>
                            <path d="M6.0659794,66.8406161 L11.5401559,72.3506854" id="Shape"></path>
                            <path d="M6.0659794,72.4251458 L11.5401559,77.910395" id="Shape"></path>
                            <path d="M6.0659794,78.0096756 L11.5401559,83.4949248" id="Shape"></path>
                            <path d="M6.0659794,83.5693852 L11.5401559,89.0794545" id="Shape"></path>
                            <polyline id="Shape" points="0 94.8377252 6.0659794 89.1539149 11.5401559 94.6639843"></polyline>
                        </g>
                        <path d="M25.9614574,15.0056182 L23.1503938,29.5750358" id="Shape" stroke="#F9A825" stroke-width="1.2375"></path>
                        <path d="M26.158725,15.0056182 L28.9697886,29.5750358" id="Shape" stroke="#F9A825" stroke-width="1.2375"></path>
                        <g id="Group" transform="translate(0.000000, 10.672657)" stroke-width="1.2375" stroke="#F9A825">
                            <polygon id="Shape" points="0.147950717 5.65899015 111.018844 5.65899015 111.018844 0.0744603966 5.6961026 0.0744603966"></polygon>
                            <path d="M83.6233026,0.0744603966 L78.1491261,5.58452975" id="Shape"></path>
                            <path d="M72.699608,0.0744603966 L78.1491261,5.58452975" id="Shape"></path>
                            <path d="M72.699608,0.0744603966 L67.2254315,5.58452975" id="Shape"></path>
                            <path d="M94.6209726,0.0744603966 L100.095149,5.58452975" id="Shape"></path>
                            <path d="M94.6209726,0.0744603966 L89.1714545,5.58452975" id="Shape"></path>
                            <path d="M105.544667,0.0744603966 L100.095149,5.58452975" id="Shape"></path>
                            <path d="M61.7759134,0.0744603966 L67.2254315,5.58452975" id="Shape"></path>
                            <path d="M61.7759134,0.0744603966 L56.3017369,5.58452975" id="Shape"></path>
                            <path d="M50.9456614,0.0744603966 L56.3951794,5.58452975" id="Shape"></path>
                            <path d="M50.9456614,0.0744603966 L45.4714848,5.58452975" id="Shape"></path>
                            <path d="M40.0219668,0.0744603966 L45.4714848,5.58452975" id="Shape"></path>
                            <path d="M40.0219668,0.0744603966 L34.5477902,5.58452975" id="Shape"></path>
                            <path d="M28.4415786,0.0744603966 L33.8910967,5.58452975" id="Shape"></path>
                            <path d="M28.4415786,0.0744603966 L22.9674021,5.58452975" id="Shape"></path>
                            <path d="M17.517884,0.0744603966 L22.9674021,5.58452975" id="Shape"></path>
                            <path d="M17.517884,0.0744603966 L12.0437075,5.58452975" id="Shape"></path>
                            <path d="M5.93749588,0.0744603966 L11.387014,5.58452975" id="Shape"></path>
                            <path d="M5.93749588,0.0744603966 L0.463319351,5.58452975" id="Shape"></path>
                            <path d="M50.8275604,0.0744603966 L56.3017369,5.58452975" id="Shape"></path>
                        </g>
                        <polygon id="Rectangle-path" stroke="#00ACC1" stroke-width="1.125" fill="#FFFFFF" points="105.544667 7.07373768 111.548352 7.07373768 111.548352 21.3701338 105.544667 21.3701338"></polygon>
                        <polygon id="Rectangle-path" stroke="#00ACC1" stroke-width="1.125" fill="#FFFFFF" points="111.545756 7.07373768 117.54944 7.07373768 117.54944 21.3701338 111.545756 21.3701338"></polygon>
                        <polygon id="Rectangle-path" stroke="#00ACC1" stroke-width="1.125" fill="#FFFFFF" points="117.546845 7.07373768 123.550529 7.07373768 123.550529 21.3701338 117.546845 21.3701338"></polygon>
                        <rect id="Rectangle-path" stroke="#F9A825" stroke-width="1.2375" fill="#FFE082" x="22.3613233" y="15.2643813" width="7.39753585" height="2.48201322"></rect>
                        <g id="Group" transform="translate(77.310739, 16.381287)">
                            <g>
                                <polygon id="Shape" fill="#FFE082" points="11.8607158 11.0201387 2.78640517 11.0201387 0.197267623 0 11.8607158 0"></polygon>
                                <polyline id="Shape" stroke="#F9A825" stroke-width="1.2375" fill="#FFFFFF" points="0.739753585 2.28345216 4.3892046 2.28345216 4.3892046 8.53812548 2.29323611 8.53812548"></polyline>
                                <rect id="Rectangle-path" stroke="#F9A825" stroke-width="1.2375" fill="#FFFFFF" x="6.33722238" y="2.28345216" width="3.32889113" height="6.25467332"></rect>
                            </g>
                            <polygon id="Shape" stroke="#F9A825" stroke-width="1.2375" points="11.8607158 11.0201387 2.78640517 11.0201387 0.197267623 0 11.8607158 0"></polygon>
                        </g>
                    </g>
                    <g id="Group-8" transform="translate(506.341862, 287.205896)" stroke="#00ACC1" stroke-width="1.125" fill="#FFFFFF">
                        <ellipse id="Oval" cx="2.17539467" cy="1.35226035" rx="1.35024496" ry="1.35226035"></ellipse>
                        <g id="Group" transform="translate(0.000000, 4.207032)">
                            <path d="M0.187534023,2.1035161 C0.187534023,1.05175805 1.01268372,0.187813938 2.06287425,0.187813938 C3.11306478,0.187813938 3.93821448,1.01419526 3.93821448,2.06595331 L3.93821448,5.85979485 L0.187534023,5.85979485 L0.187534023,2.1035161 L0.187534023,2.1035161 Z" id="Shape"></path>
                            <path id="Shape"></path>
                            <path id="Shape"></path>
                        </g>
                        <path d="M4.1257485,6.23542273 L7.01377246,7.85062259" id="Shape"></path>
                    </g>
                    <g id="Group-8" transform="translate(615.111595, 193.470290)">
                        <g id="Group-10" transform="translate(0.000000, 23.996315)" stroke-width="1.125" stroke="#F9A825">
                            <g id="Group-3">
                                <path d="M6.21732694,0.372507732 C5.72284948,-0.124169244 4.96658983,-0.124169244 4.47211236,0.372507732 C-1.49070412,6.36184773 -1.49070412,16.0908732 4.47211236,22.0802132 C4.96658983,22.5768902 5.72284948,22.5768902 6.21732694,22.0802132 C6.71180441,21.5835362 6.71180441,20.8239126 6.21732694,20.3272356 C1.21437848,15.3020333 1.21437848,7.15068764 6.21732694,2.12548529 C6.6827175,1.62880832 6.6827175,0.839968415 6.21732694,0.372507732 L6.21732694,0.372507732 Z" id="Shape"></path>
                                <path d="M9.85319065,4.05376061 C9.35871319,3.55708363 8.60245353,3.55708363 8.10797607,4.05376061 C4.18124326,7.99796012 4.15215636,14.4547608 8.10797607,18.3989603 C8.60245353,18.8956373 9.35871319,18.8956373 9.85319065,18.3989603 C10.3476681,17.9022833 10.3476681,17.1426597 9.85319065,16.6459828 C6.88632586,13.6659209 6.88632586,8.78680003 9.85319065,5.80673817 C10.3476681,5.3100612 10.3476681,4.52122129 9.85319065,4.05376061 L9.85319065,4.05376061 Z" id="Shape"></path>
                                <path d="M13.605402,7.79344607 C13.1109245,7.2967691 12.3546649,7.2967691 11.8601874,7.79344607 C9.96953829,9.6925051 9.96953829,12.7602158 11.8601874,14.6300586 C12.3546649,15.1267355 13.1109245,15.1267355 13.605402,14.6300586 C14.0998795,14.1333816 14.0998795,13.373758 13.605402,12.877081 C12.7037078,11.9713759 12.7037078,10.4521287 13.605402,9.54642364 C14.0998795,9.07896295 14.0998795,8.29012305 13.605402,7.79344607 L13.605402,7.79344607 Z" id="Shape"></path>
                            </g>
                        </g>
                        <g id="Group-10" transform="translate(70.137725, 35.244588) scale(-1, 1) translate(-70.137725, -35.244588) translate(63.011432, 23.996315)" stroke-width="1.125" stroke="#F9A825">
                            <g id="Group-3">
                                <path d="M6.21732694,0.372507732 C5.72284948,-0.124169244 4.96658983,-0.124169244 4.47211236,0.372507732 C-1.49070412,6.36184773 -1.49070412,16.0908732 4.47211236,22.0802132 C4.96658983,22.5768902 5.72284948,22.5768902 6.21732694,22.0802132 C6.71180441,21.5835362 6.71180441,20.8239126 6.21732694,20.3272356 C1.21437848,15.3020333 1.21437848,7.15068764 6.21732694,2.12548529 C6.6827175,1.62880832 6.6827175,0.839968415 6.21732694,0.372507732 L6.21732694,0.372507732 Z" id="Shape"></path>
                                <path d="M9.85319065,4.05376061 C9.35871319,3.55708363 8.60245353,3.55708363 8.10797607,4.05376061 C4.18124326,7.99796012 4.15215636,14.4547608 8.10797607,18.3989603 C8.60245353,18.8956373 9.35871319,18.8956373 9.85319065,18.3989603 C10.3476681,17.9022833 10.3476681,17.1426597 9.85319065,16.6459828 C6.88632586,13.6659209 6.88632586,8.78680003 9.85319065,5.80673817 C10.3476681,5.3100612 10.3476681,4.52122129 9.85319065,4.05376061 L9.85319065,4.05376061 Z" id="Shape"></path>
                                <path d="M13.605402,7.79344607 C13.1109245,7.2967691 12.3546649,7.2967691 11.8601874,7.79344607 C9.96953829,9.6925051 9.96953829,12.7602158 11.8601874,14.6300586 C12.3546649,15.1267355 13.1109245,15.1267355 13.605402,14.6300586 C14.0998795,14.1333816 14.0998795,13.373758 13.605402,12.877081 C12.7037078,11.9713759 12.7037078,10.4521287 13.605402,9.54642364 C14.0998795,9.07896295 14.0998795,8.29012305 13.605402,7.79344607 L13.605402,7.79344607 Z" id="Shape"></path>
                            </g>
                        </g>
                        <g id="Group-9" transform="translate(20.253674, 0.000000)">
                            <path d="M3.67566685,69.4911569 L33.3810561,69.5287197 C35.0313555,69.5287197 36.3816004,68.1764593 36.3816004,66.5236967 L36.456614,3.19283694 C36.456614,1.54007429 35.1063691,0.187813938 33.4560697,0.187813938 L3.75068046,0.15025115 C2.10038106,0.15025115 0.750136091,1.5025115 0.750136091,3.15527415 L0.675122482,66.4861339 C0.675122482,68.1764593 2.02536745,69.4911569 3.67566685,69.4911569 L3.67566685,69.4911569 Z" id="Shape" stroke="#00ACC1" stroke-width="1.125" fill="#F5F5F5"></path>
                            <rect id="Rectangle-path" stroke="#00ACC1" stroke-width="1.12500047" fill="#FFFFFF" transform="translate(18.571407, 34.723847) rotate(180.052601) translate(-18.571407, -34.723847) " x="4.7501441" y="9.81970868" width="27.6425266" height="49.8082772"></rect>
                            <ellipse id="Oval" fill="#00ACC1" cx="13.1273816" cy="5.07097631" rx="1.08769733" ry="1.08932084"></ellipse>
                            <path id="Shape" stroke="#00ACC1" stroke-width="1.125"></path>
                            <g id="Group" transform="translate(8.626565, 24.040184)" stroke="#00ACC1" stroke-width="1.125" fill="#F5F5F5">
                                <path d="M15.3402831,3.34308809 C15.7528579,2.51670676 15.4152967,1.5025115 14.6276538,1.08932084 C13.6524769,0.6010046 12.2272183,0.262939513 10.9519869,0.262939513 C6.75122482,0.262939513 3.18807839,3.71871596 3.18807839,7.85062259 L3.18807839,9.57851082 L1.95035384,9.57851082 C1.05019053,9.57851082 0.300054437,10.1419526 0.300054437,11.0810223 C0.300054437,12.020092 1.05019053,12.5835338 1.95035384,12.5835338 L3.18807839,12.5835338 L3.18807839,19.4950867 C3.18807839,20.4341564 3.78818726,21.1854122 4.68835057,21.1854122 C5.58851388,21.1854122 6.18862275,20.4341564 6.18862275,19.4950867 L6.18862275,12.5835338 L10.8769733,12.5835338 C11.7771366,12.5835338 12.5272727,12.020092 12.5272727,11.0810223 C12.5272727,10.1419526 11.7771366,9.57851082 10.8769733,9.57851082 L6.18862275,9.57851082 L6.18862275,7.85062259 C6.18862275,5.59685534 8.43903103,3.6060276 10.8019597,3.6060276 C11.5520958,3.6060276 12.5272727,3.79384154 13.0148612,4.05678105 C13.8400109,4.5075345 14.9277082,4.16946941 15.3402831,3.34308809 L15.3402831,3.34308809 Z" id="Shape"></path>
                                <path d="M16.502994,9.57851082 C15.6028307,9.57851082 14.8151878,10.3297666 14.8151878,11.2688363 L14.8151878,19.4950867 C14.8151878,20.4341564 15.6028307,21.1854122 16.502994,21.1854122 C17.4031573,21.1854122 18.1908002,20.4341564 18.1908002,19.4950867 L18.1908002,11.2688363 C18.1908002,10.3297666 17.4031573,9.57851082 16.502994,9.57851082 L16.502994,9.57851082 Z" id="Shape"></path>
                            </g>
                        </g>
                    </g>
                    <g id="Group-2" transform="translate(807.649428, 260.210041)">
                        <rect id="Rectangle-path" stroke="#00ACC1" stroke-width="1.125" fill="#FAFAFA" x="2.13788786" y="19.0418656" width="73.2882961" height="20.321468"></rect>
                        <rect id="Rectangle-path" stroke="#00ACC1" stroke-width="1.125" fill="#FAFAFA" x="0.225040827" y="15.6987776" width="77.0764834" height="3.15527415"></rect>
                        <rect id="Rectangle-path" stroke="#00ACC1" stroke-width="1.125" fill="#FFFFFF" x="32.0683179" y="28.9208788" width="11.6271094" height="10.0668271"></rect>
                        <path d="M67.2121938,41.0160963 L54.9099619,41.0160963 C54.497387,41.0160963 54.1598258,41.3541614 54.1598258,41.7673521 L54.1598258,42.5186078 C54.1598258,42.9317985 54.497387,43.2698636 54.9099619,43.2698636 L67.2121938,43.2698636 C67.6247686,43.2698636 67.9623299,42.9317985 67.9623299,42.5186078 L67.9623299,41.7673521 C67.9623299,41.3541614 67.6247686,41.0160963 67.2121938,41.0160963 L67.2121938,41.0160963 Z" id="Shape" stroke="#00ACC1" stroke-width="1.125" fill="#FAFAFA"></path>
                        <path id="Shape" stroke="#00ACC1" stroke-width="1.125"></path>
                        <path id="Shape" stroke="#00ACC1" stroke-width="1.125"></path>
                        <path id="Shape" stroke="#00ACC1" stroke-width="1.125" fill="#FAFAFA"></path>
                        <path id="Shape" stroke="#00ACC1" stroke-width="1.125" fill="#FAFAFA"></path>
                        <g id="Group" transform="translate(16.878062, 22.798144)">
                            <rect id="Rectangle-path" stroke="#00ACC1" stroke-width="1.125" fill="#FFFFFF" x="0.300054437" y="0.3005023" width="8.02645618" height="9.57851082"></rect>
                            <rect id="Rectangle-path" fill="#9E9E9E" opacity="0.15" x="0.862656505" y="0.863944113" width="6.90125204" height="2.47914398"></rect>
                        </g>
                        <g id="Group" transform="translate(52.509526, 22.798144)">
                            <rect id="Rectangle-path" stroke="#00ACC1" stroke-width="1.125" fill="#FFFFFF" x="0.337561241" y="0.3005023" width="8.02645618" height="9.57851082"></rect>
                            <rect id="Rectangle-path" fill="#9E9E9E" opacity="0.15" x="0.90016331" y="0.863944113" width="6.90125204" height="2.47914398"></rect>
                        </g>
                        <path id="Shape" stroke="#00ACC1" stroke-width="1.125"></path>
                        <rect id="Rectangle-path" stroke="#00ACC1" stroke-width="1.125" fill="#FAFAFA" x="55.2100163" y="36.3958735" width="11.6646162" height="4.62022286"></rect>
                        <g id="Group" transform="translate(27.755035, 0.260472)">
                            <g id="Shape">
                                <path d="M0.825149701,13.3347896 L0.825149701,11.7947153 C0.825149701,9.015069 2.02536745,6.49836224 4.1257485,4.69534844 L2.4754491,3.04258579 C1.98786064,2.55426955 1.98786064,1.72788823 2.4754491,1.2020092 C2.73799673,0.939069688 3.03805117,0.826381325 3.37561241,0.826381325 C3.71317365,0.826381325 4.05073489,0.976632475 4.27577572,1.2020092 L6.37615678,3.3055253 C7.57637452,2.74208349 8.85160588,2.47914398 10.1268372,2.47914398 C11.4020686,2.47914398 12.6772999,2.74208349 13.8775177,3.3055253 L15.9778987,1.2020092 C16.2029396,0.976632475 16.5405008,0.826381325 16.8780621,0.826381325 C17.2156233,0.826381325 17.5531845,0.976632475 17.7782254,1.2020092 C18.2658138,1.69032544 18.2658138,2.51670676 17.7782254,3.04258579 L16.127926,4.69534844 C18.228307,6.46079945 19.4285248,9.015069 19.4285248,11.7947153 L19.4285248,13.3347896 L0.825149701,13.3347896 L0.825149701,13.3347896 Z" fill="#FFFFFF"></path>
                                <path d="M3.41311922,1.38982314 C3.60065324,1.38982314 3.78818726,1.46494871 3.93821448,1.61519986 L6.30114317,3.98165548 C7.46385411,3.41821366 8.77659227,3.04258579 10.164344,3.04258579 L10.164344,3.04258579 C11.5520958,3.04258579 12.864834,3.41821366 14.0275449,3.98165548 L16.3904736,1.61519986 C16.5405008,1.46494871 16.7280348,1.38982314 16.9155689,1.38982314 C17.1031029,1.38982314 17.2906369,1.46494871 17.4406641,1.61519986 C17.7407186,1.91570216 17.7407186,2.36645561 17.4406641,2.62939513 L15.3402831,4.73291123 C17.5156777,6.3105483 18.9409363,8.86481785 18.9409363,11.7947153 L18.9409363,12.7713478 L1.46276538,12.7713478 L1.46276538,11.7947153 C1.46276538,8.90238064 2.88802395,6.34811109 5.06341862,4.77047401 L2.96303756,2.66695791 C2.66298312,2.36645561 2.66298312,1.91570216 2.96303756,1.65276265 C3.03805117,1.46494871 3.22558519,1.38982314 3.41311922,1.38982314 L3.41311922,1.38982314 Z M3.41311922,0.262939513 L3.41311922,1.38982314 L3.41311922,0.262939513 C2.92553076,0.262939513 2.4379423,0.45075345 2.10038106,0.788818538 C1.38775177,1.5025115 1.38775177,2.7045207 2.10038106,3.41821366 L3.33810561,4.65778565 C1.38775177,6.49836224 0.300054437,9.05263179 0.262547632,11.7571525 L0.262547632,12.733785 L0.262547632,13.8606686 L1.38775177,13.8606686 L18.8659227,13.8606686 L19.9911268,13.8606686 L19.9911268,12.733785 L19.9911268,11.7571525 C19.9911268,9.015069 18.9034295,6.49836224 16.9530757,4.62022286 L18.1908002,3.38065088 C18.9034295,2.66695791 18.9034295,1.46494871 18.1908002,0.75125575 C17.853239,0.413190663 17.3656505,0.225376725 16.8780621,0.225376725 C16.3904736,0.225376725 15.9028851,0.413190663 15.5653239,0.75125575 L13.7649973,2.55426955 C12.6022863,2.06595331 11.3645618,1.84057659 10.164344,1.84057659 C8.92661949,1.84057659 7.72640174,2.06595331 6.5636908,2.55426955 L4.76336418,0.75125575 C4.35078933,0.45075345 3.90070768,0.262939513 3.41311922,0.262939513 L3.41311922,0.262939513 L3.41311922,0.262939513 Z" fill="#00ACC1"></path>
                            </g>
                            <ellipse id="Oval" stroke="#00ACC1" stroke-width="1.125" fill="#FFFFFF" cx="6.26363636" cy="8.86481785" rx="1.35024496" ry="1.35226035"></ellipse>
                            <ellipse id="Oval" stroke="#00ACC1" stroke-width="1.125" fill="#FFFFFF" cx="14.0275449" cy="8.86481785" rx="1.35024496" ry="1.35226035"></ellipse>
                        </g>
                        <rect id="Rectangle-path" stroke="#00ACC1" stroke-width="1.125" fill="#F5F5F5" x="25.917202" y="13.0318196" width="23.9293413" height="2.66695791"></rect>
                    </g>
                    <g id="Group" transform="translate(548.724551, 265.459235) scale(-1, 1) translate(-548.724551, -265.459235) translate(518.344039, 230.964532)" stroke="#00ACC1" stroke-width="1.125">
                        <path d="M7.31382689,2.62459696 L7.31382689,40.1230557" id="Line" stroke-linecap="square"></path>
                        <path d="M55.3920537,56.0733441 L55.3920537,54.2578334 L55.3920537,54.2578334 C55.3920537,53.1944629 54.5801607,52.3385793 53.584937,52.3385793 L49.4469018,52.3385793 C48.4516781,52.3385793 47.6397852,53.1944629 47.6397852,54.2578334 L47.6397852,54.2578334 L47.6397852,56.0733441" id="Shape"></path>
                        <path d="M39.5994256,62.712926 L59.9753205,62.712926 C60.3157918,62.712926 60.6038828,62.4276315 60.6038828,62.0904652 L60.6038828,56.6698691 C60.6038828,56.3327028 60.3157918,56.0474082 59.9753205,56.0474082 L39.5994256,56.0474082 C39.2589543,56.0474082 38.9708633,56.3327028 38.9708633,56.6698691 L38.9708633,62.0904652 C38.9708633,62.4535674 39.2589543,62.712926 39.5994256,62.712926 L39.5994256,62.712926 Z" id="Shape"></path>
                        <polyline id="Shape" points="42.0612947 56.4105104 42.0612947 49.3040829 35.0685389 49.3040829 32.63286 55.3730757 32.63286 63.0500923"></polyline>
                        <path d="M7.30703687,40.0167872 L10.056997,42.5066305 L10.056997,46.889792 L13.7759907,44.1924618 C13.7759907,44.1924618 16.1854795,42.013849 13.7759907,39.3424547 C11.8641136,37.2157136 9.95223659,38.5643787 9.95223659,38.5643787 L7.30703687,40.0167872 L7.30703687,40.0167872 Z" id="Shape" fill="#FFFFFF"></path>
                        <path d="M7.64750812,40.0167872 L4.89754801,42.5066305 L4.89754801,46.889792 L1.17855433,44.1924618 C1.17855433,44.1924618 -1.23093453,42.013849 1.17855433,39.3424547 C3.09043136,37.2157136 5.00230839,38.5643787 5.00230839,38.5643787 L7.64750812,40.0167872 L7.64750812,40.0167872 Z" id="Shape" fill="#FFFFFF"></path>
                        <path d="M52.0135312,52.3385793 L8.95701293,2.64545842" id="Shape"></path>
                        <ellipse id="Oval" fill="#FFFFFF" cx="7.46417744" cy="1.97112588" rx="1.70235626" ry="1.81551068"></ellipse>
                        <path d="M33.3923728,52.8054249 L8.56416149,3.34572682" id="Shape"></path>
                        <path d="M54.4230201,68.8078547 L27.1329398,68.8078547 C26.1639062,68.8078547 25.3782033,68.0297787 25.3782033,67.0701517 L25.3782033,64.476565 C25.3782033,63.5169379 26.1639062,62.7388619 27.1329398,62.7388619 L54.4230201,62.7388619 C55.3920537,62.7388619 56.1777566,63.5169379 56.1777566,64.476565 L56.1777566,67.0701517 C56.1777566,68.0297787 55.3920537,68.8078547 54.4230201,68.8078547 L54.4230201,68.8078547 Z" id="Shape" fill="#F5F5F5"></path>
                    </g>
                    <g id="Group-4" transform="translate(788.145890, 287.205896)" stroke="#00ACC1" stroke-width="1.125" fill="#FFFFFF">
                        <ellipse id="Oval" cx="2.13788786" cy="4.25062697" rx="1.35024496" ry="1.35226035"></ellipse>
                        <g id="Group" transform="translate(0.000000, 7.105399)">
                            <path d="M3.93821448,2.1035161 C3.93821448,1.05175805 3.11306478,0.187813938 2.06287425,0.187813938 C1.01268372,0.187813938 0.187534023,1.01419526 0.187534023,2.06595331 L0.187534023,3.23039973 L3.93821448,3.23039973 L3.93821448,2.1035161 L3.93821448,2.1035161 Z" id="Shape"></path>
                            <path id="Shape"></path>
                            <path id="Shape"></path>
                        </g>
                        <ellipse id="Oval" cx="10.7644529" cy="1.62123184" rx="1.35024496" ry="1.35226035"></ellipse>
                        <g id="Group" transform="translate(8.626565, 4.476004)">
                            <path d="M3.93821448,2.1035161 C3.93821448,1.05175805 3.11306478,0.187813938 2.06287425,0.187813938 C1.01268372,0.187813938 0.187534023,1.01419526 0.187534023,2.06595331 L0.187534023,5.85979485 L3.93821448,5.85979485 L3.93821448,2.1035161 L3.93821448,2.1035161 Z" id="Shape"></path>
                            <path id="Shape"></path>
                            <path id="Shape"></path>
                        </g>
                    </g>
                </g>
                <path d="M789,298 L789,301" id="Line" stroke="#00ACC1" stroke-linecap="square"></path>
                <path d="M792,298 L792,301" id="Line" stroke="#00ACC1" stroke-linecap="square"></path>
                <path d="M797,298 L797,301" id="Line" stroke="#00ACC1" stroke-linecap="square"></path>
                <path d="M800,298 L800,301" id="Line" stroke="#00ACC1" stroke-linecap="square"></path>
                <path d="M507,298 L507,301" id="Line" stroke="#00ACC1" stroke-linecap="square"></path>
                <path d="M510,298 L510,301" id="Line" stroke="#00ACC1" stroke-linecap="square"></path>
                <path d="M802,159 L818.03122,159" id="Line" stroke="#00ACC1" stroke-linecap="square"></path>
                <path d="M652,199 L659.905694,199" id="Line" stroke="#00ACC1" stroke-linecap="square"></path>
            </g>
        </g>
    </g>
</svg>