<?xml version="1.0"?><svg width="375" height="618" xmlns="http://www.w3.org/2000/svg" xmlns:xlink="http://www.w3.org/1999/xlink">
 <!-- Created with SVG-edit - http://svg-edit.googlecode.com/ -->
 <defs>
  <symbol id="svg_17" height="533.333333" width="533.333333" xmlns:xlink="http://www.w3.org/1999/xlink">
   <title>banana</title>
   <defs>
    <linearGradient id="svg_10">
     <stop id="svg_16" offset="0" stop-opacity="0" stop-color="#ffffff"/>
     <stop id="svg_15" offset="1" stop-opacity="0.416667" stop-color="#5f0e00"/>
    </linearGradient>
    <linearGradient id="svg_11">
     <stop id="svg_14" offset="0" stop-opacity="0.525" stop-color="#ffffff"/>
     <stop id="svg_13" offset="1" stop-opacity="0" stop-color="#ffffff"/>
    </linearGradient>
    <radialGradient id="svg_12" xlink:href="#svg_11"/>
    <linearGradient id="svg_8" x1="0.150735" x2="1.25" xlink:href="#svg_11" y1="0.432203" y2="-0.220339"/>
    <linearGradient id="svg_4" x1="0" x2="1" xlink:href="#svg_10" y1="0.5" y2="0.5"/>
   </defs>
   <g>
    <title>Layer 1</title>
    <g id="svg_2" transform="rotate(-21.6755 270.375 271.25)">
     <path d="m405.304352,98.869598c-18.827362,-18.009895 31.378937,-30.8741 37.654694,-24.442001c10.04126,5.145691 -8.786072,9.004951 -7.530914,18.009895c1.255157,9.004944 0,56.602516 10.041229,59.175362c10.04126,2.572845 22.592834,11.577789 22.592834,24.442001c31.378937,79.758072 -91.626434,298.449631 -382.822815,189.103867c-5.02063,-3.859253 -32.634079,-36.019775 -37.654709,-43.738312c-2.510311,-9.004944 -6.27578,-30.874084 8.786098,-38.592621c129.281147,-34.733368 278.644825,33.44693 346.423267,-122.209991c11.296448,-27.014847 2.510345,-61.748199 2.510345,-61.748199l-0.000031,0z" id="svg_9" stroke-linejoin="round" stroke-width="10" stroke="#000000" fill-rule="evenodd" fill="#ffe200"/>
     <path d="m58.881069,300.837677l2.510311,-12.864197c92.881599,-36.019806 264.838081,39.879028 347.678444,-123.496414c-41.420166,115.777878 -114.219269,186.531021 -350.188763,136.360611l0.000008,0z" id="svg_7" stroke-width="1.0000000pt" fill-rule="evenodd" fill="url(#svg_8)"/>
     <path d="m402.69632,94.121429c2.926666,-18.113197 29.232513,-18.599907 36.595001,-19.496643c12.034668,1.611954 -15.550537,22.069481 -36.595001,19.496643z" id="svg_6" stroke-width="1.0000000pt" fill-rule="evenodd" fill="#442400"/>
     <path d="m47.602249,316.420044c-0.936539,-18.90506 -1.873077,-25.139984 8.77998,-31.374878c4.635841,7.126953 3.765461,29.196442 -8.77998,31.374878z" id="svg_5" stroke-width="1.0000000pt" fill-rule="evenodd" fill="#442400"/>
     <path d="m149.25235,379.309357c219.652466,56.602509 294.199158,-85.543884 307.513428,-119.637146c22.592834,-41.165482 8.786102,-87.476624 8.786102,-87.476624c-1.255157,138.933472 -143.087891,250.852081 -316.29953,207.11377z" id="svg_3" stroke-width="1.0000000pt" fill-rule="evenodd" fill="url(#svg_4)"/>
    </g>
    <text fill="#000000" stroke="#000000" stroke-width="0" x="288.666687" y="414.666687" id="svg_1" font-size="24" font-family="Arial" text-anchor="middle" xml:space="preserve" transform="matrix(20.4 0 0 1 -5451.4 0)"/>
   </g>
  </symbol>
  <symbol id="svg_30" height="128" width="128">

   <metadata id="svg_29">image/svg+xml</metadata>
   <g id="svg_20">
    <g transform="translate(159,18)" id="svg_21">
     <path fill="#aad400" fill-rule="evenodd" stroke-width="1px" d="m-123.121452,41.575569l-2.257607,8.17667l-8.970917,21.357502l-1.546692,18.563049l14.343834,13.550117l24.190247,4.237442l39.942959,-12.738037c0,0 -0.928913,-26.108833 -1.331841,-28.095352c-0.402912,-1.986519 -11.926098,-10.7421 -12.84132,-12.524342c-0.915192,-1.782249 -4.514702,-24.276869 -7.865929,-25.394529c-3.351273,-1.11767 -13.041016,-7.106461 -13.041016,-7.106461l-14.877853,3.478352l-8.212685,1.434238l-7.531181,15.06135z" id="svg_28"/>
     <path fill="#000000" fill-rule="evenodd" stroke-width="1px" d="m-88.27494,-14.525249c-3.733322,0.153879 -9.284622,5.82914 -10.40625,6.84375c-0.536186,0.48503 -4.789627,12.44323 -5.09375,13.46875c-0.246307,0.83059 3.764481,13.72835 0.21875,14.4375c0,0 -7.948608,0.11714 -10.46875,2.09375c-5.950989,9.59189 -9.682442,20.467518 -13.375,31.21875c-6.160606,6.517521 -7.875542,12.386242 -8.593742,21.093746c-0.458618,4.383171 -2.600571,10.550072 -1,14.65625c2.215698,5.684303 9.348862,11.163025 14.749992,14c7.074432,3.715897 18.072357,5.385727 26.0625,5.5c8.774277,0.125504 20.674904,-1.858574 28.78125,-5.21875c3.889481,-1.612228 9.012299,-4.626259 11.53125,-8c2.131962,-2.855415 3.578491,-7.720497 3.71875,-11.28125c0.135231,-3.43306 -1.781509,-7.819588 -2.71875,-11.125c-0.73111,-2.578484 -1.368519,-6.203346 -2.75,-8.5c-2.01968,-3.357635 -7.344116,-5.869057 -9.09375,-9.374996c-1.512749,-3.0313 -0.831726,-7.895271 -1.75,-11.15625c-2.544662,-11.054432 -5.607666,-21.603281 -17.4375,-24.5625c-3.816017,-0.807631 -10.334328,3.06629 -13,0.21875c-1.472229,-1.572691 0.165688,-5.044961 0.59375,-7.15625c0.794113,-3.91668 1.707077,-9.498321 4.15625,-12.656251c1.077408,-1.3892 3.281517,-2.56598 4.9375,-3.15625c13.906853,-0.43408 17.076752,-5.34607 0.9375,-11.34375zm-11.8125,36.28125c0.043159,-0.04944 0.171051,-0.045071 0.21875,0c0.600647,0.56749 0.07724,1.92745 0.15625,2.75c0.053368,0.55563 -0.172867,1.479399 0.25,1.84375c3.12532,2.692799 10.170311,-2.23801 13.75,-0.1875c3.836281,2.19747 7.606674,6.94561 9.231483,11.057289c2.299797,5.819752 1.790474,15.226639 4.875,20.671299c1.022804,1.80542 1.50602,4.755783 2.987267,6.208908c5.56781,3.61586 8.559429,8.3507 9.629051,14.42997c0.64687,2.934387 0.854137,7.23616 -0.379051,9.97628c-2.4044,5.34256 -9.774231,9.134224 -15.307289,11.060181c-5.822357,2.026665 -15.87281,3.573662 -22.036461,3.702553c-6.259338,0.13089 -14.951141,-2.014824 -20.71875,-4.450233c-5.060791,-2.136948 -12.133965,-6.430428 -14.249992,-11.5c0.556747,-5.987694 0.059021,-13.22599 1.90625,-19.09375c2.291435,-3.290886 4.11158,-7.764328 6.456017,-11.035297c1.54081,-2.686958 4.217155,-11.269798 5.027779,-14.259251c0.811256,-2.99181 1.124779,-0.286438 2.328697,-3.142948c1.609238,-3.818199 3.586098,-9.558151 7,-11.90625c2.341629,-1.61059 7.563957,0.653259 9.34375,-1.5625c0.340973,-0.4245 -0.042847,-1.270411 -0.09375,-1.8125c-0.07782,-0.828991 -0.922539,-2.12273 -0.375,-2.75z" id="svg_27"/>
     <path fill="#ffffff" fill-opacity="0.343109" fill-rule="evenodd" stroke-width="1px" d="m-82.156563,30.883671l2.107399,3.622768l3.019066,5.410313l1.529282,5.083679l-5.017067,-3.79739l-8.239639,0.358658l-5.59082,-4.357849l-0.158676,-3.408619l-2.640129,-3.396481l-5.189575,-2.296911l18.082642,-0.550129l2.097519,3.331961z" id="svg_26"/>
     <path fill="#ffffff" fill-rule="evenodd" stroke-width="1px" d="m-85.008789,27.038019l2.316231,3.298201l1.632912,2.90971l-1.08255,1.474762l-3.061462,0.417957l-2.52803,-0.357967l-2.521584,-1.175472l-1.527588,-2.418329l-0.12928,-1.440849l0.574928,-1.594471l1.128746,-0.50276l1.432953,-0.91408l3.764725,0.303299z" id="svg_25"/>
     <path fill="#ffffff" fill-opacity="0.343109" fill-rule="evenodd" stroke-width="1px" d="m-69.501183,64.197533l2.913589,3.14917l4.093952,3.279137l2.066742,11.240379l-4.210888,-4.981361l-9.924515,1.625389l-4.495827,-2.450699l-2.634834,-5.541847l-2.308479,-1.987839l-10.164452,-6.474831l13.621223,0.544659l8.945969,-1.734119l2.097519,3.331963z" id="svg_24"/>
     <path fill="#ffffff" fill-rule="evenodd" stroke-width="1px" d="m-71.418388,63.92358l3.728058,2.553028l1.749092,2.197395l-2.798775,2.282837l-2.860474,0.382607l-2.362022,-0.327667l-2.356018,-1.076118l-1.427292,-2.213913l-0.120804,-1.319061l0.537193,-1.459694l1.054626,-0.460243l1.33886,-0.836819l3.517555,0.277649z" id="svg_23"/>
     <path fill="#000000" fill-opacity="0.249267" fill-rule="evenodd" stroke-width="1px" d="m-132.033203,68.014977c-2.220062,5.39608 -4.786484,13.55851 -3.224701,19.180527c1.22699,4.41684 6.230667,8.913399 9.942825,11.602997c4.520531,3.275276 11.678162,6.273758 17.198448,7.103889c10.569061,1.589363 23.509384,-0.216599 35.471741,-3.315163c-0.005898,-11.577454 -27.826942,1.102196 -38.427727,-3.551926c-3.782013,-1.660431 -8.293655,-5.576904 -10.211571,-9.235062c-1.729912,-3.299568 -1.306129,-8.600456 -1.61235,-12.3134c-0.192802,-2.33773 -0.713142,-5.511086 -0.268715,-7.81427c0.264824,-1.372368 1.578606,-2.897758 1.881065,-4.262329c0.84568,-3.815369 3.981575,-11.804329 0.268738,-13.0238c-5.450089,-1.790051 -8.835136,10.32346 -11.017754,15.628536z" id="svg_22"/>
    </g>
   </g>
  </symbol>
  <symbol width="400.00000pt" id="svg_52" height="400.00000pt" xmlns:xlink="http://www.w3.org/1999/xlink">
   <defs>
    <linearGradient id="svg_47">
     <stop stop-color="#ffffff" stop-opacity="0" offset="0" id="svg_51"/>
     <stop stop-color="#ffa617" stop-opacity="0.733333" offset="1" id="svg_50"/>
    </linearGradient>
    <linearGradient id="svg_46">
     <stop stop-color="#ffffff" stop-opacity="0.341667" offset="0" id="svg_49"/>
     <stop stop-color="#ffffff" stop-opacity="0" offset="1" id="svg_48"/>
    </linearGradient>
    <radialGradient xlink:href="#svg_46" r="0.5" id="svg_41" fy="0.5" fx="0.5" cy="0.5" cx="0.5"/>
    <linearGradient y2="1.485" y1="0.095" xlink:href="#svg_47" x2="0.830357" x1="0.848214" spreadMethod="pad" id="svg_39"/>
    <linearGradient y2="1.546875" y1="-0.148438" xlink:href="#svg_47" x2="0.514706" x1="0.551471" id="svg_37"/>
    <radialGradient xlink:href="#svg_46" r="0.5" id="svg_43" fy="0.5" fx="0.5" cy="0.5" cx="0.5"/>
    <linearGradient y2="0.5" y1="0.5" xlink:href="#svg_46" x2="1" x1="0" id="svg_45"/>
   </defs>
   <g id="svg_33">
    <path fill="#df3511" fill-rule="evenodd" stroke="#000000" stroke-width="10" stroke-linejoin="round" id="svg_44" d="m198.451508,81.882362c0,0 93.522491,-19.120663 110.902771,-16.626671c69.521149,6.650681 120.006744,63.181305 139.869934,133.844635c16.552673,117.217941 -73.693512,223.664566 -81.108002,240.255234c-9.475037,14.969971 -76.142212,26.602661 -94.350128,39.072632c-11.586853,9.144653 -89.435669,-1.220001 -107.59227,-13.301331c-198.631863,-177.905243 -118.351482,-344.171852 -48.002693,-365.786514c43.86454,-14.963989 80.280388,-17.457985 80.280388,-17.457985z"/>
    <path fill="url(#svg_43)" fill-rule="evenodd" stroke-width="1.0000000pt" id="svg_42" d="m168.725113,143.36499c-86.838203,-91.208 -132.677773,134.862 -90.31459,211.799286c57.106674,75.651306 233.876495,-46.877319 90.31459,-211.799286z"/>
    <path fill="url(#svg_41)" fill-rule="evenodd" stroke-width="1.0000000pt" id="svg_40" d="m394.908295,132.138992c-22.026337,-28.713989 -102.038269,-4.162674 -71.313232,59.515335c19.069733,31.213989 125.417175,38.325317 71.313232,-59.515335z"/>
    <path fill="url(#svg_39)" fill-rule="evenodd" stroke-width="1.0000000pt" id="svg_38" d="m274.998993,470.934204c35.588196,-69.000641 47.175049,-142.157959 63.727722,-152.133942c10.759216,6.650665 5.793427,84.795959 20.690826,118.880615c-12.41452,9.144653 -63.727753,24.108643 -84.418549,33.253326z"/>
    <path fill="url(#svg_37)" fill-rule="evenodd" stroke-width="1.0000000pt" id="svg_36" d="m196.796234,128.437012c0,0 -20.690826,-11.638664 -19.035553,-18.289322c14.069733,4.987991 22.346085,12.469994 27.311874,9.144653c4.965805,-3.32534 4.96579,9.144669 9.103958,-6.650665c4.138153,-15.795326 15.725037,-33.253311 14.069763,-15.795326c-1.655273,20.783318 6.621063,24.939987 24.001358,9.144661c17.380264,-15.795326 24.001328,-11.638649 19.035538,9.144669c-24.828995,27.433975 -80.280365,19.120651 -74.486938,13.301331z"/>
    <path fill="none" fill-opacity="0.75" fill-rule="evenodd" stroke="#000000" stroke-width="10" stroke-linejoin="round" id="svg_35" d="m163.690918,120.12368c75.314575,26.602654 62.900085,13.301323 144.008087,-8.313339"/>
    <path fill="#4a2a00" fill-rule="evenodd" stroke="#000000" stroke-width="10" stroke-linejoin="round" id="svg_34" d="m225.443695,132.321014c-3.310547,-19.951981 35.071442,-111.237774 46.658295,-112.900425c7.4487,-0.831339 40.550354,16.107849 21.104889,26.714451c0,8.83884 -7.448669,-1.66267 -12.41449,1.66267c-11.586853,12.46999 -30.943771,51.437542 -37.564835,82.196873l-17.783859,2.326431z"/>
   </g>
  </symbol>
  <symbol id="svg_55" width="317.02" viewBox="0 0 317.02 351.393" height="351.393" xmlns:xlink="http://www.w3.org/1999/xlink">
   <switch>
    <g>
     <g id="svg_54">
      <g>
       <path fill-rule="evenodd" d="m264.528015,75.132004c-4.5,2.051994 -7.70401,6.335999 -9.755997,12.851997c-2.123993,6.515999 -6.229004,18.792 -2.593002,26.136002c3.779999,7.236 13.608002,17.027992 24.335999,16.883995c10.656006,-0.360001 33.119995,-9.071999 38.627991,-18.360001c5.112,-9.467995 -1.187988,-26.927994 -7.234985,-37.367996c-6.156006,-10.512001 -16.309021,-23.688 -28.799988,-24.948002c-12.601013,-1.223999 -27.504013,4.355999 -45.685028,17.280003c-1.151001,-11.52 -4.175995,-21.05999 -9.071991,-29.448002c-5.003998,-8.316 -13.680008,-17.136 -20.339996,-20.232c-6.731003,-3.167999 -12.996002,-2.664 -19.368011,1.368c-3.778992,3.024 -5.938995,7.236 -6.623001,13.176001c-0.720993,5.832001 0.10701,13.032001 2.483002,21.743999c9.576004,0.827999 16.667999,3.672001 21.960007,8.532001c5.147995,4.895996 13.535995,12.816002 9.071991,20.447998c-4.644989,7.487999 -16.487991,15.587997 -36.215988,24.444l-3.925003,-8.568001l0.000992,0c7.307999,-10.295998 9.323013,-21.491997 6.479004,-34.416c-3.095993,-13.067997 -11.880005,-31.463997 -24.119995,-42.407999c-12.346008,-10.907999 -28.402016,-18.143999 -48.994011,-22.247999l9.755997,24.264c-7.487999,-1.944 -13.715996,-3.204 -18.683998,-3.780001c-5.003998,-0.612 -8.748001,-0.539999 -11.232002,0.216002l8.208,14.543999c-8.388,-4.571999 -17.855995,-5.292 -28.692001,-2.015999c-10.871998,3.276001 -22.823997,10.403999 -36.143997,21.528l13.032001,9.864002c-8.352001,3.276001 -15.696001,10.764 -22.608002,23.040001c-6.948,12.275993 -12.888,28.584 -18.396,49.895996c6.264,-4.716003 12.672,-7.919998 19.620001,-10.008003c6.875999,-2.087997 13.895998,-2.843994 21.455999,-2.267998l10.332001,13.608002c-4.68,4.824005 -6.66,11.483994 -6.084,20.520004c0.539997,8.963989 1.944,24.76799 9.503998,32.97699c7.632,8.063004 19.224003,13.248001 35.604,15.55101c0.648003,10.116989 3.959999,18.720993 9.935997,26.35199c6.048004,7.561005 14.472,13.789001 25.848007,18.828003c-2.844002,11.449005 -1.476006,21.132996 3.815994,30.024994c5.400009,8.675995 14.580002,16.09201 28.080002,22.248016c2.268005,13.606995 6.731995,23.363007 13.789001,29.411987c7.056,5.938995 21.526993,8.027008 28.007996,6.550995c6.335999,-1.583984 9.576004,-6.731995 9.863998,-15.731995c4.464005,6.373016 9.180008,11.449005 14.436005,15.804993c5.184006,4.28302 10.944,8.713013 16.703995,9.684021c5.723999,0.86499 13.968002,-0.072021 17.35202,-4.463013c3.203979,-4.5 3.995972,-11.915985 2.231995,-22.393005c7.992004,-2.915985 12.923981,-8.026978 14.79599,-15.47998c1.764008,-7.631012 2.231995,-21.275024 -3.600006,-29.123016c-5.940002,-7.884979 -16.163986,-13.5 -31.355988,-17.389008c1.332001,-4.35498 0.539993,-8.89299 -2.231003,-13.606979c-2.916,-4.861008 -7.669006,-9.721008 -14.688004,-14.977005c3.096008,-4.5 4.932007,-8.027008 5.507996,-10.979996c0.540009,-2.879013 -0.179993,-5.039001 -2.159988,-6.336014c9.972992,0 16.919998,-2.878998 21.672989,-8.638992c4.570999,-6.014008 6.659012,-16.776993 5.975998,-26.029007c-0.827988,-9.32399 -5.723999,-22.462997 -10.403992,-28.727997c-4.751999,-6.227997 -10.584,-8.783997 -17.783997,-8.063995c2.664001,-3.563995 4.177002,-7.703995 4.535995,-12.276001c0.251999,-4.716003 -1.115997,-11.736 -2.699997,-15.372002c-1.654999,-3.671997 -4.031006,-5.867996 -7.128006,-6.587997l12.563995,-18.360001c5.544006,-6.084 10.800003,-10.475998 16.056,-13.32c5.181,-2.881004 10.076996,-4.212997 14.973022,-3.852997z" clip-rule="evenodd"/>
       <path fill-rule="evenodd" fill="#FF00FF" d="m84.456001,97.848c-15.264,4.104004 -24.768002,17.748001 -21.743999,28.944c2.987995,11.159996 15.155994,18.467995 30.420002,14.400002c15.264,-4.068008 23.399994,-16.487999 20.375999,-27.648003c-3.024002,-11.159996 -13.788002,-19.764 -29.052002,-15.695999z" clip-rule="evenodd"/>
       <path fill-rule="evenodd" fill="#FF00FF" d="m81.828003,147.923996c-10.620003,-4.031998 -20.664001,4.572006 -22.428001,19.26001c-1.728001,14.686996 5.472,29.87999 16.091995,33.911987c10.620003,4.03299 20.664001,-4.606995 22.428001,-19.26001c1.728004,-14.687988 -5.435997,-29.87999 -16.091995,-33.911987z" clip-rule="evenodd"/>
       <path fill-rule="evenodd" fill="#FF00FF" d="m123.120003,106.487999c-3.060005,17.244003 2.339996,29.663994 12.419991,32.579994c10.080002,2.952011 23.076004,-2.663986 26.136002,-19.871994c3.061005,-17.243996 -5.615997,-32.472 -15.695999,-35.423996s-19.835999,5.507996 -22.859993,22.715996z" clip-rule="evenodd"/>
       <path fill-rule="evenodd" fill="#FF00FF" d="m152.315994,154.188004c-3.456009,19.475998 2.412003,33.263 13.82399,36.576004c11.412003,3.347992 27.252014,-4.104004 30.708008,-23.580002c3.455994,-19.440002 -7.344009,-35.31601 -18.755997,-38.627991c-11.375992,-3.348015 -22.319992,6.155991 -25.776001,25.631989z" clip-rule="evenodd"/>
       <path fill-rule="evenodd" fill="#FF00FF" d="m105.660004,204.408005c-3.456001,19.47699 3.563995,30.527008 14.975998,33.875c11.375992,3.312988 25.416,-4.031006 28.871994,-23.507996c3.456009,-19.475006 -5.832001,-32.832016 -17.243988,-36.143005c-11.41201,-3.348007 -23.14801,6.300003 -26.604004,25.776001z" clip-rule="evenodd"/>
       <path fill-rule="evenodd" fill="#FF00FF" d="m165.744003,258.660004c3.203995,15.984009 15.444,28.546997 24.947998,25.73999c9.468002,-2.843994 17.242996,-20.519989 14.039993,-36.541c-3.23999,-15.983994 -16.235992,-24.22699 -25.703995,-21.382996c-9.503998,2.807007 -16.524002,16.165009 -13.283997,32.184006z" clip-rule="evenodd"/>
       <path fill-rule="evenodd" fill="#FF00FF" d="m173.772003,306.539001c-4.5,11.557007 0.610992,22.5 8.207993,25.704987c7.667999,3.203003 17.460007,-3.563995 21.960007,-15.121002c4.5,-11.519989 0.755997,-27.142975 -6.876007,-30.347992c-7.631989,-3.203003 -18.791992,8.209015 -23.291992,19.764008z" clip-rule="evenodd"/>
       <path fill-rule="evenodd" fill="#FF00FF" d="m222.444,330.622986c10.906998,11.484009 21.348007,16.73999 27.179993,8.10199c5.832001,-8.60498 0.864014,-30.491974 -10.007996,-42.011993c-10.908005,-11.484009 -20.483994,-11.125 -26.315994,-2.520996c-5.832001,8.640015 -1.727997,24.912018 9.143997,36.431z" clip-rule="evenodd"/>
       <path fill-rule="evenodd" fill="#FF00FF" d="m204.912003,180.035004c1.080002,17.423996 13.82399,29.231995 23.903992,28.729004c10.080002,-0.539001 17.100006,-12.203003 16.020004,-29.59201c-1.115997,-17.388 -13.427994,-27.791992 -23.507996,-27.287994c-10.080002,0.539993 -17.496002,10.763992 -16.416,28.151001z" clip-rule="evenodd"/>
       <path fill-rule="evenodd" fill="#FF00FF" d="m209.591995,145.979996c11.59201,0.684006 18.215988,-8.315994 17.279999,-17.207993c-0.899994,-8.892006 -9.827988,-14.832001 -21.419998,-15.480003c-11.591995,-0.683998 -16.451996,5.040001 -15.552002,13.931999c0.900009,8.891998 8.136002,18.108002 19.692001,18.755997z" clip-rule="evenodd"/>
       <path fill-rule="evenodd" fill="#FF00FF" d="m194.147995,224.927994c9.503998,8.063995 20.340012,9.289001 24.228012,1.800995c3.888,-7.453003 -3.132004,-20.449005 -12.636002,-28.511993c-9.504013,-8.064011 -16.667999,-6.876999 -20.557007,0.645996c-3.886993,7.453003 -0.539001,18.000015 8.964996,26.065002z" clip-rule="evenodd"/>
       <path fill-rule="evenodd" fill="#FF00FF" d="m203.472,236.699005c5.328003,-1.259995 10.296005,-0.214996 15.048996,3.419998c4.751999,3.564011 11.735001,11.557007 13.319,18.000015c1.477005,6.40799 -0.358994,17.567993 -4.248001,20.411987c-3.996002,2.701019 -10.259995,1.511993 -19.223999,-3.85199c3.02301,-4.428009 4.139999,-9.863007 3.348007,-16.164001c-0.863998,-6.443008 -3.564011,-13.535019 -8.244003,-21.81601z" clip-rule="evenodd"/>
       <path fill-rule="evenodd" fill="#FF00FF" d="m230.759995,286.73999c-0.684006,-6.625 0.612,-10.872986 4.283997,-13.175995c3.636002,-2.339996 11.699997,-2.304993 17.244003,-0.432007c5.399994,1.835999 12.131989,6.623016 15.335999,11.59201c3.131989,4.824005 5.76001,12.778992 3.419983,17.496002c-2.519989,4.606995 -8.388,7.954987 -18.03598,10.187988c-3.022995,-8.171997 -6.156006,-14.14801 -9.935989,-18.503998c-3.81601,-4.247986 -7.740005,-6.731995 -12.312012,-7.164001z" clip-rule="evenodd"/>
       <path fill-rule="evenodd" fill="#FF00FF" d="m160.667999,244.438995c-3.059998,4.680008 -3.311996,10.656006 -1.044006,18.468994c2.340012,7.775024 7.200012,16.847992 14.868011,27.756012c-8.064011,3.778992 -15.048004,4.859009 -21.492004,2.843994c-6.444,-2.122986 -14.184006,-7.919983 -16.811996,-14.61499c-2.628006,-6.731995 -1.475998,-19.007996 0.972,-25.164001c2.339996,-6.193008 9.108002,-10.008011 13.104004,-11.59201c3.923996,-1.620987 7.343994,-0.755997 10.403992,2.302002z" clip-rule="evenodd"/>
       <path fill-rule="evenodd" fill="#FF00FF" d="m149.615997,229.858994c6.876007,3.491989 12.456009,4.175995 17.171997,1.90799c4.608002,-2.375 10.368011,-9.899994 10.62001,-15.370987c0.035995,-5.473007 -5.977005,-14.473007 -9.432999,-17.281006c-3.455002,-2.951004 -7.056,-2.878998 -10.943008,-0.070007c0.684006,6.264008 0.432007,11.807007 -0.755997,17.027008c-1.332001,5.184006 -3.419998,9.649002 -6.660004,13.787003z" clip-rule="evenodd"/>
       <path fill-rule="evenodd" fill="#FF00FF" d="m139.968002,147.528c-6.587997,-0.647995 -11.591995,-2.268005 -15.012001,-5.147995c-3.456001,-2.916 -5.292,-6.840012 -5.652,-11.916c-5.183998,1.151993 -9.18,4.031998 -12.276001,9.071991c-3.131996,4.932007 -6.084,13.212006 -6.084,20.521011c0,7.199997 1.907997,14.543991 5.867996,22.427994c4.140007,-5.796997 8.640007,-9.503998 13.644005,-10.979996c4.968002,-1.548004 10.295998,-1.008011 16.127998,1.763992c2.268005,-4.139999 3.708008,-8.279999 4.320007,-12.563995c0.575989,-4.320999 0.215988,-8.712997 -0.936005,-13.177002z" clip-rule="evenodd"/>
       <path fill-rule="evenodd" fill="#408000" d="m197.388,22.139999l-5.507996,0.828001c1.080002,2.375999 1.367996,5.76 1.007996,10.296c-0.432007,4.464001 -1.511993,10.043999 -3.384003,16.740002c4.031998,1.475998 8.100998,3.959999 12.348007,7.739998c4.177002,3.672001 11.016998,9.144001 12.888992,14.472004c1.800003,5.292 5.040009,10.151993 -1.800003,16.955994c-7.020996,6.660004 -19.800995,14.256004 -39.312988,22.931999l0.863998,5.868004c5.399002,-1.295998 11.015991,-3.167999 17.423996,-5.615997c6.335999,-2.448006 14.796005,-5.328003 20.376007,-9.072006c5.435989,-3.887993 9.431992,-6.479996 12.131989,-14.003998c2.521011,-7.739998 5.688004,-21.491997 3.528,-31.535999c-2.268997,-10.223999 -11.304001,-22.5 -16.416,-28.511999c-5.112,-6.012001 -9.828003,-8.243999 -14.147995,-7.092001z" clip-rule="evenodd"/>
       <path fill-rule="evenodd" fill="#408000" d="m232.884003,76.571999c5.688004,-6.084 12.132004,-10.547997 19.764999,-13.535999c7.560013,-2.987999 16.848007,-6.804001 25.522995,-4.248001c8.567993,2.556004 20.80899,11.051998 25.73999,19.259998c4.788025,8.100006 6.876007,21.672005 3.059998,29.052002c-4.066986,7.272003 -18.467987,14.040001 -26.530975,14.472c-8.101013,0.18 -19.513,-5.327995 -21.313019,-12.491997c-1.763977,-7.344002 5.184021,-25.704002 10.980011,-30.348c5.687988,-4.536003 19.187988,-0.720001 23.291992,3.096001c4.031006,3.708 4.031006,15.479996 0.972015,18.935997c-3.240021,3.348 -9.720001,3.744003 -19.835999,1.188004l3.888,-10.476006c4.53598,3.024002 7.667999,4.356003 9.828003,3.996002c2.051971,-0.431999 4.787994,-4.931999 2.520996,-6.407997c-2.557007,-1.548004 -12.421021,-4.32 -16.813019,-2.628006c-4.463989,1.656006 -9.431976,7.956001 -9.071991,12.528c0.359985,4.428001 6.40799,12.024002 11.339996,14.328003c4.824005,2.195999 13.248016,2.484001 17.783997,-0.935997c4.46402,-3.636002 10.729004,-12.816002 8.929016,-19.908005c-1.944,-7.236 -12.528015,-18.612 -20.520996,-22.32c-8.279999,-3.743996 -18.720001,-2.916 -27.972015,0.540001c-9.251999,3.492004 -18.035995,10.008003 -26.927994,20.087997c1.763992,-4.715996 3.563995,-9.431999 5.363998,-14.183998z" clip-rule="evenodd"/>
       <path fill-rule="evenodd" fill="#408000" d="m168.587997,96.155998c5.544006,-11.159996 6.947998,-21.671997 4.068008,-32.075996c-3.024002,-10.440002 -12.636002,-21.528004 -21.348007,-29.916c-8.748001,-8.496002 -18.899994,-15.012001 -30.743996,-20.232001l0.287994,16.56l-24.984001,-2.736l2.232002,14.147999c-11.411995,-2.484001 -21.851997,-2.627998 -31.608002,-0.287998c-9.827995,2.375999 -18.575996,6.911999 -26.783997,14.147999l10.368,11.304001c-6.804001,0.503998 -13.284,5.255997 -19.728001,14.652c-6.515999,9.395996 -12.6,22.895996 -18.684,41.183998c6.948,-4.643997 14.148001,-7.271996 21.887999,-7.739998c7.704002,-0.540001 15.660004,1.080002 24.156002,4.715996c1.764,-11.663994 6.119999,-19.691994 13.5,-24.911995c7.416,-5.148003 22.391998,-6.300003 30.204002,-5.688004c7.631996,0.540001 12.851997,3.492004 15.659996,9c5.903999,-10.080002 11.879997,-16.667999 18.071999,-19.764c6.12001,-3.204002 13.680008,-3.024002 18.792007,0.936005c5.003998,3.923996 8.748001,11.447998 11.375,22.715996c1.080994,-1.979996 2.160995,-3.996002 3.276993,-6.012001z" clip-rule="evenodd"/>
       <path fill-rule="evenodd" fill="#FFFFFF" d="m137.376007,95.040001c1.835999,-1.295998 4.608002,-2.807999 7.488007,-2.052002c2.735992,0.720001 7.416,2.736 9.035995,6.587997c1.475998,3.888 0.792007,15.264 0.324005,16.056007c-0.503998,0.539993 -1.548004,-9.756004 -3.276001,-12.564003c-1.835999,-2.987999 -4.104004,-4.176003 -6.947998,-4.68c-2.880005,-0.540001 -8.568008,2.052002 -9.684006,1.547997c-1.152008,-0.683998 1.259995,-3.708 3.059998,-4.895996z" clip-rule="evenodd"/>
       <path fill-rule="evenodd" fill="#FFFFFF" d="m168.731995,141.300003c2.123993,-1.512009 5.687988,-3.419998 9.143997,-2.520004c3.455994,0.899994 9.035995,3.419998 11.052002,8.100006c1.835999,4.679993 0.936996,18.755997 0.360001,19.584c-0.720001,0.575989 -1.872009,-11.807999 -3.996002,-15.335999c-2.231995,-3.564011 -5.003998,-5.14801 -8.460007,-5.723999c-3.419998,-0.612 -10.511993,2.483994 -11.843994,1.90799c-1.367996,-0.791992 1.548004,-4.608002 3.744003,-6.011993z" clip-rule="evenodd"/>
       <path fill-rule="evenodd" fill="#FFFFFF" d="m223.091995,163.044006c1.62001,-1.115997 4.429001,-2.735992 7.057007,-1.944c2.591995,0.720001 6.946991,2.628006 8.494995,6.264008c1.440002,3.671997 0.721008,14.36499 0.324005,15.121002c-0.468002,0.395996 -1.548004,-9.108002 -3.096008,-11.844009c-1.728989,-2.807999 -3.959991,-3.959991 -6.551987,-4.427994c-2.809006,-0.540009 -7.992004,1.944 -9.14502,1.475998c-1.006989,-0.649017 1.11702,-3.493011 2.917007,-4.645004z" clip-rule="evenodd"/>
       <path fill-rule="evenodd" fill="#FFFFFF" d="m119.087997,190.151993c2.664001,-1.80101 6.875999,-4.212997 11.087997,-3.061005c4.068008,1.044998 10.980011,4.175995 13.356003,9.792999c2.304001,5.688004 1.115997,22.680008 0.468002,23.76001c-0.828003,0.755997 -2.304001,-14.328003 -4.860001,-18.613007c-2.699997,-4.283005 -6.119995,-6.227005 -10.259995,-6.947006c-4.140007,-0.792999 -12.708008,3.096008 -14.328003,2.340012c-1.692001,-0.935989 1.907997,-5.580002 4.535995,-7.272003z" clip-rule="evenodd"/>
       <path fill-rule="evenodd" fill="#FFFFFF" d="m178.343994,236.412003c2.052994,-1.477005 5.651993,-3.313004 9,-2.447006c3.276001,0.791 8.89299,3.383011 10.871994,7.919998c1.835999,4.570007 0.936996,18.466995 0.360001,19.332016c-0.612,0.539001 -1.871994,-11.629013 -3.923996,-15.121017c-2.195999,-3.454987 -4.932999,-5.147995 -8.352997,-5.651993c-3.527008,-0.611008 -10.188004,2.483994 -11.628006,1.908005c-1.294983,-0.719009 1.405014,-4.645004 3.673004,-5.940002z" clip-rule="evenodd"/>
       <path fill-rule="evenodd" fill="#FFFFFF" d="m239.688004,279.828003c2.158997,-1.511993 5.61499,-2.988007 9,-2.484009c3.311996,0.468994 10.512009,3.960999 10.475998,5.184021c-0.252014,1.044983 -7.703995,0.685974 -11.520996,1.296997c-3.960007,0.503998 -10.296005,2.483978 -11.628006,1.90799c-1.294998,-0.756012 1.404999,-4.537994 3.673004,-5.904999z" clip-rule="evenodd"/>
       <path fill-rule="evenodd" fill="#FFFFFF" d="m225.251999,292.28299c2.483994,0.252014 6.408005,1.368988 9,3.889008c2.556,2.519989 6.912003,9.972992 6.264008,10.835999c-0.899002,0.64798 -6.876007,-4.320007 -10.548004,-6.442993c-3.671997,-2.088013 -10.188004,-4.752014 -10.943008,-6.049011c-0.792999,-1.404999 3.598999,-2.519989 6.227005,-2.233002z" clip-rule="evenodd"/>
       <path fill-rule="evenodd" fill="#FFFFFF" d="m89.244003,101.195999c2.483994,0.251999 6.407997,1.368004 9,3.888c2.556,2.447998 6.911995,9.935997 6.264,10.800003c-0.900002,0.540001 -6.875999,-4.248001 -10.548004,-6.444c-3.708,-2.088005 -10.115997,-4.751999 -10.907997,-6.048004c-0.828003,-1.439995 3.636002,-2.447998 6.192001,-2.195999z" clip-rule="evenodd"/>
      </g>
     </g>
    </g>
   </switch>
  </symbol>
  <symbol id="svg_62" height="120.14898" width="140.48436">

   <metadata id="svg_61">image/svg+xml</metadata>
   <g transform="translate(-314.0436,-300.85903)" id="svg_58">
    <path fill="#fc971a" stroke="#050013" stroke-width="6.051" stroke-miterlimit="2" transform="matrix(1.2021209,0,0,0.9698862,647.03506,39.96556)" d="m-162.857147,330.933624a55.714291,58.57143 0 1 1 -111.428558,0a55.714291,58.57143 0 1 1 111.428558,0z" id="svg_60"/>
    <path fill="#00ff00" stroke="#050013" stroke-width="3.05948" stroke-miterlimit="2" id="svg_59" d="m403.618683,335.171844l-7.653442,2.689301l4.375519,7.989136l-7.610565,-5.98764c0,0 1.994781,8.93924 -2.087524,8.512146c-0.801056,-0.083801 -4.013855,-3.92276 -3.414398,-8.483521l-3.927246,8.664154l-0.624664,-11.406921l-5.421692,7.978302l0.021851,-8.165802l-7.012512,6.094116l1.190979,-4.048492l-5.746613,-1.346497l7.803589,-4.515839l-8.085754,-4.374817l9.8125,-3.211823l-1.768616,-10.22226l8.061554,10.31488l1.778717,-10.561554l3.36792,8.541931l4.539978,-6.104706l0.460602,7.147491l6.409698,-2.974731l-3.923889,7.708344l1.651398,2.538727l7.802612,3.226074z"/>
   </g>
  </symbol>
  <symbol id="svg_65" width="202.833" viewBox="0 0 202.833 197.531" height="197.531" xmlns:xlink="http://www.w3.org/1999/xlink">
   <switch>
    <g>
     <g id="svg_64">
      <g>
       <path stroke-width="0.036" stroke-miterlimit="10" stroke="#000000" fill-rule="evenodd" d="m75.744003,14.922c-9.144005,6.047999 -17.820004,13.572 -26.028004,24.371999c-8.279999,10.728001 -19.691999,22.752003 -23.004,39.564003c-3.348,16.883995 -2.412001,42.804001 2.952,60.406998c5.292002,17.354004 14.219999,33.518005 28.727999,43.343994c14.616005,9.758011 38.844002,16.021011 57.708,14.904007c18.611,-1.332001 39.778999,-10.727005 53.640999,-22.210999c13.714996,-11.664001 23.14801,-29.231995 28.438995,-46.584c5.221008,-17.496002 6.229004,-40.176003 2.736008,-56.917c-3.744003,-16.812004 -14.938995,-31.536003 -24.408005,-42.804003c-9.610992,-11.338999 -20.304001,-19.979 -32.507996,-24.371c-12.384995,-4.356 -28.801003,-3.42 -40.355003,-1.62c-11.484993,1.8 -18.936996,5.724 -27.900993,11.916z" clip-rule="evenodd"/>
       <path stroke-width="0.036" stroke-miterlimit="10" stroke="#000000" fill-rule="evenodd" fill="#FF8000" d="m76.896004,16.865999c-8.856003,5.868 -17.064003,13.104 -25.056004,23.509001c-8.099998,10.259998 -18.756001,22.139999 -22.248001,38.160004c-3.455999,16.056 -2.844,40.355995 1.980001,57.490997c4.895998,17.028992 12.960001,33.876999 27.108,43.884995c14.148003,9.792999 38.339996,16.057007 56.880997,14.904007c18.431999,-1.296997 39.599998,-11.339996 53.099998,-22.5c13.248001,-11.412003 21.63501,-27.792999 26.568008,-44.676003c4.787003,-16.991997 5.866989,-39.564003 2.412003,-55.907997c-3.602005,-16.380001 -14.400009,-30.420002 -23.51001,-41.292004c-9.214996,-10.943998 -19.619003,-19.296 -31.354996,-23.507999c-11.916,-4.104 -27.862999,-3.384 -38.951004,-1.584c-11.088997,1.655 -18.252998,5.543 -26.928993,11.518999z" clip-rule="evenodd"/>
       <path stroke-width="0.036" stroke-miterlimit="10" stroke="#000000" fill-rule="evenodd" d="m121.788002,7.866c1.584,-1.908 2.808998,-2.808 3.528999,-2.7c0.645996,0.144 0.142998,2.52 0.827995,3.24c0.719002,0.612 1.654007,0.612 3.237999,0.288c3.674011,-0.360001 6.697006,-0.324 8.930008,0.252c2.26799,0.54 5.470993,2.556 4.606995,2.988c-1.007996,0.288 -7.487991,-1.008 -10.296997,-0.828c-2.843994,0.144 -5.003998,0.648 -6.479004,1.656c-1.548996,-1.116 -3.132996,-0.54 -4.895996,1.872c-1.873001,2.376 -4.140999,9.000001 -5.688004,12.492c-1.728996,3.42 -3.457001,8.892002 -3.780998,8.100002c-0.287003,-0.972 1.080002,-9.504002 2.160004,-13.248001c0.973,-3.708 2.231995,-6.696001 3.780998,-8.964001c-2.196999,-0.792 -3.422005,-1.512 -4.068001,-2.16c-0.612999,-0.648 -0.900002,-1.512 0.539001,-1.908c1.369995,-0.54 3.851997,-0.900001 7.597,-1.08z" clip-rule="evenodd"/>
       <path stroke-width="0.036" stroke-miterlimit="10" stroke="#000000" fill-rule="evenodd" d="m73.835999,182.356995c6.155998,3.528992 13.968002,5.472992 23.832001,6.228989c9.973,0.721008 23.291,1.117004 34.955002,-2.159988c11.483994,-3.563004 34.201004,-17.710999 33.587997,-18.431992c-0.936005,-0.576004 -26.026993,11.80899 -38.194992,14.362991c-12.203003,2.376999 -23.400009,1.729004 -34.416008,-0.286987c-11.052002,-2.23201 -28.223999,-12.313004 -31.68,-12.455002c-3.563999,-0.072006 0,3.634995 10.548004,11.661987l1.367996,1.080002z" clip-rule="evenodd"/>
       <path stroke-width="0.036" stroke-miterlimit="10" stroke="#000000" fill-rule="evenodd" d="m83.844002,3.546c-5.580002,-3.06 -12.888,-3.78 -22.212002,-2.16c-9.396,1.548 -24.155998,5.292 -33.587999,11.628c-9.576,6.264 -18.396001,16.559999 -23.004001,26.028c-4.608,9.360001 -6.012,19.332001 -4.356,30.059998c0.828,-1.043999 4.392,-2.124001 10.836,-3.239998c6.48,-1.187996 15.552,-2.267998 27.647999,-3.528c-2.015999,4.608002 -1.799999,10.655998 0.792,18.143997c2.591999,7.488007 7.380001,16.164001 14.652,26.568001c9.324001,-9.144997 16.812004,-18.036995 23.003998,-27.360001c6.192001,-9.287994 11.880005,-16.199997 13.572006,-27.935997c1.403999,-11.807999 0,-25.884001 -4.608002,-42.516c2.699997,-1.98 6.624001,-3.204 12.167999,-4.068c5.507996,-0.9 12.240997,-1.044 20.591995,-0.828c-1.151993,-0.936 -3.636993,-1.692 -7.308998,-2.412c-3.816002,-0.828 -10.223999,-2.16 -14.903,-1.908c-4.715996,0.288 -9.143997,1.368 -13.283997,3.528z" clip-rule="evenodd"/>
       <path stroke-width="0.036" stroke-miterlimit="10" stroke="#000000" fill-rule="evenodd" fill="#408000" d="m80.603996,4.626c-7.199997,8.64 -13.751999,17.208 -20.051998,25.992c-6.443996,8.784 -14.903999,17.352001 -17.603996,26.279999c-2.664001,8.784 -0.360001,18.792004 1.619999,26.280003c1.871998,7.416 5.076,13.248001 9.756001,17.891998c8.891998,-9 15.983997,-17.711998 21.672001,-26.279999c5.579994,-8.676003 11.124001,-13.464001 11.916,-25.200001c0.792,-11.807999 -1.692001,-26.604 -7.308006,-44.964z" clip-rule="evenodd"/>
       <path stroke-width="0.036" stroke-miterlimit="10" stroke="#000000" fill-rule="evenodd" d="m75.204002,26.586c-1.548004,2.232 -12.492001,25.991999 -15.732002,36.288c-3.348,10.080002 -5.256001,26.171997 -3.779999,24.120003c1.439999,-2.340004 9.108002,-26.928001 12.456001,-37.116005c3.311996,-10.259998 8.351997,-25.378998 7.056,-23.291998z" clip-rule="evenodd"/>
       <path stroke-width="0.036" stroke-miterlimit="10" stroke="#000000" fill-rule="evenodd" fill="#408000" d="m75.456001,3.798c-9.828003,-0.108 -18.900002,1.476 -27.612,4.608c-8.856003,3.132 -17.496002,7.884001 -24.408001,14.112c-6.948,6.191999 -13.248001,15.803999 -16.524001,23.004c-3.348,7.128002 -4.212,13.535999 -2.988,19.511997c2.412,-1.439995 6.48,-2.699997 12.492,-3.779995c6.011999,-1.080002 13.68,-1.980003 23.292,-2.700001c1.332001,-6.192001 3.672001,-12.204002 7.307999,-18.18c3.528,-6.012001 9.324001,-11.556 14.076,-17.604c4.716,-6.192001 9.504002,-12.384001 14.364002,-18.972z" clip-rule="evenodd"/>
       <path stroke-width="0.036" stroke-miterlimit="10" stroke="#000000" fill-rule="evenodd" d="m65.160004,9.774c-8.532005,3.636 -16.740005,8.82 -24.912003,15.695999c-8.172001,6.803999 -16.02,15.156 -23.832001,25.199999c4.751999,-3.348 11.015999,-8.351997 19.223999,-15.155998c8.208,-6.875999 17.82,-15.407999 29.520004,-25.74z" clip-rule="evenodd"/>
      </g>
     </g>
    </g>
   </switch>
  </symbol>
 </defs>
 <g>
  <title>Layer 1</title>
  <use x="86.622846" y="388.349465" transform="rotate(-42.1452 198.932 313.77) matrix(0.381087 0 0 0.38625 62.8851 59)" xlink:href="#svg_17" id="svg_18"/>
  <use x="-55.823893" y="-66.969171" transform="rotate(90.3792 223.01 119.421) matrix(0.489433 0 0 0.826149 219.157 120.888)" xlink:href="#svg_30" id="svg_31"/>
  <use x="1006.479175" y="216.459246" transform="rotate(-90.1231 134.685 123.753) matrix(0.13243 0 0 0.166336 -27.2955 45.651)" xlink:href="#svg_52" id="svg_53"/>
  <use x="11.940541" y="138.169119" transform="matrix(0.178116 0 0 0.240801 96.177 81.0874)" xlink:href="#svg_55" id="svg_56"/>
  <use x="466.972926" y="567.54603" transform="matrix(0.207799 0 0 0.229332 42.8672 234.657)" xlink:href="#svg_62" id="svg_63"/>
  <use x="-291.680659" y="436.620182" transform="matrix(0.0959954 0 0 0.0984838 140.442 314.627)" xlink:href="#svg_65" id="svg_66"/>
 </g>
</svg>