<?xml version="1.0"?><svg width="640" height="480" xmlns="http://www.w3.org/2000/svg" xmlns:xlink="http://www.w3.org/1999/xlink">
 <title>love birds on a branch</title>
 <metadata id="metadata7">image/svg+xml</metadata>
 <g>
  <title>Layer 1</title>
  <defs>
   <filter id="svg_682">
    <feGaussianBlur stdDeviation="0.028007" id="svg_683"/>
   </filter>
   <pattern xlink:href="#svg_511" id="svg_482" patternTransform="translate(-84.1377, 510.395)"/>
   <pattern xlink:href="#svg_511" id="svg_676" patternTransform="matrix(0.880062, 0, 0, 0.880062, -58.8481, 577.678)"/>
   <pattern xlink:href="#svg_511" id="svg_674" patternTransform="matrix(0.880062, 0, 0, 0.880062, -58.8481, 577.678)"/>
   <pattern xlink:href="#svg_511" id="svg_672" patternTransform="matrix(0.880062, 0, 0, 0.880062, -58.8481, 577.678)"/>
   <pattern xlink:href="#svg_511" id="svg_670" patternTransform="matrix(0.880062, 0, 0, 0.880062, -58.8481, 577.678)"/>
   <pattern xlink:href="#svg_511" id="svg_668" patternTransform="matrix(0.880062, 0, 0, 0.880062, -58.8481, 577.678)"/>
   <pattern xlink:href="#svg_736" id="svg_681" patternTransform="translate(0.0672191, 0.0671756)"/>
   <pattern xlink:href="#svg_684" id="svg_736" patternTransform="translate(-79.9494, 517.532)"/>
   <pattern xlink:href="#svg_712" id="svg_507" patternTransform="translate(-212.763, 474.817)"/>
   <pattern xlink:href="#svg_735" id="svg_509" patternTransform="matrix(0.893653, 0, 0, 0.815661, -53.4473, 517.427)"/>
   <pattern xlink:href="#svg_723" id="svg_735" patternTransform="matrix(0.893653, 0, 0, 0.815661, -50.3653, 517.419)"/>
   <pattern xlink:href="#svg_724" id="svg_723" patternTransform="matrix(0.692326, 0, 0, 0.69244, 3.54248e-07, -1.90234e-05)"/>
   <pattern xlink:href="#svg_727" id="svg_726" patternTransform="matrix(0.73209, 0, 0, 0.714954, -6.45752e-07, 1.75391e-05)"/>
   <pattern patternUnits="userSpaceOnUse" width="3.551382" height="3.635903" patternTransform="matrix(0.73209, 0, 0, 0.714954, -50.3262, 517.536)" id="svg_727">
    <path id="svg_734" d="m2.19847,0.29226c0.28594,0.31889 0.36332,0.78009 0.17283,1.03011c-0.19049,0.25002 -0.57671,0.19418 -0.86265,-0.12472c-0.28594,-0.31889 -0.36332,-0.78008 -0.17283,-1.0301c0.19049,-0.25002 0.57671,-0.19419 0.86265,0.12471z" fill="#800000"/>
    <path d="m1.25987,2.07843c-0.26906,0.3736 -0.68656,0.53954 -0.93251,0.37063c-0.24595,-0.16892 -0.22721,-0.60871 0.04186,-0.98231c0.26907,-0.3736 0.68656,-0.53954 0.93251,-0.37063c0.24595,0.16891 0.22721,0.6087 -0.04186,0.98231z" id="svg_733" fill="#800000"/>
    <path id="svg_732" d="m2.09614,3.11828c-0.37625,0.13239 -0.73541,-0.03663 -0.80221,-0.37752c-0.06679,-0.3409 0.18409,-0.72455 0.56035,-0.85694c0.37626,-0.13238 0.73541,0.03664 0.80221,0.37753c0.06678,0.34089 -0.18409,0.72455 -0.56035,0.85693z" fill="#800000"/>
    <path id="svg_731" d="m0.90538,0.59997c-0.07413,0.34353 -0.33108,0.63208 -0.57393,0.64449c-0.24285,0.01241 -0.37962,-0.25602 -0.3055,-0.59955c0.07413,-0.34354 0.33108,-0.63209 0.57393,-0.6445c0.24285,-0.01241 0.37962,0.25602 0.3055,0.59956z" fill="#800000"/>
    <path d="m3.12962,1.48654c-0.27786,0.13239 -0.5431,-0.03663 -0.59243,-0.37753c-0.04932,-0.34089 0.13595,-0.72454 0.41381,-0.85693c0.27787,-0.13238 0.54311,0.03664 0.59243,0.37753c0.04932,0.34089 -0.13594,0.72455 -0.41381,0.85693z" id="svg_730" fill="#800000"/>
    <path d="m3.51902,2.71922c0.03585,0.35104 -0.117,0.72001 -0.3414,0.8241c-0.2244,0.10409 -0.43537,-0.0961 -0.47122,-0.44715c-0.03585,-0.35104 0.117,-0.72 0.3414,-0.8241c0.2244,-0.10409 0.43537,0.0961 0.47122,0.44715z" id="svg_729" fill="#800000"/>
    <path d="m0.48139,3.62673c-0.32262,-0.05105 -0.53317,-0.30081 -0.47028,-0.55787c0.06288,-0.25705 0.37539,-0.42406 0.69801,-0.37302c0.32262,0.05105 0.53317,0.30081 0.47028,0.55787c-0.06289,0.25706 -0.37539,0.42406 -0.69801,0.37302z" id="svg_728" fill="#800000"/>
   </pattern>
   <pattern patternUnits="userSpaceOnUse" width="2.599932" height="2.599502" patternTransform="matrix(0.692326, 0, 0, 0.69244, -50.3262, 517.536)" id="svg_724">
    <rect id="svg_725" y="0" x="0" height="2.599502" width="2.599932" fill="url(#svg_726)"/>
   </pattern>
   <pattern patternUnits="userSpaceOnUse" width="1.8" height="1.8" patternTransform="translate(-50.3262, 517.536)" id="svg_721">
    <rect id="svg_722" y="0" x="0" height="1.8" width="1.8" fill="url(#svg_723)"/>
   </pattern>
   <pattern patternUnits="userSpaceOnUse" width="2.341234" height="2.175213" patternTransform="translate(-50.4178, 517.402)" id="svg_712">
    <path d="m0.64745,0.54334c-0.08455,0.11809 -0.21624,0.19802 -0.34541,0.20961c-0.12916,0.01161 -0.23614,-0.04686 -0.28059,-0.15336c-0.04447,-0.10649 -0.01961,-0.24482 0.06516,-0.36279c0.08454,-0.11808 0.21624,-0.19802 0.3454,-0.2096c0.12916,-0.01162 0.23615,0.04686 0.28059,0.15336c0.04447,0.10649 0.01961,0.24482 -0.06515,0.36278z" id="svg_720" fill="#333333"/>
    <path id="svg_719" d="m0.80062,1.02685c0.08028,0.12676 0.09675,0.27154 0.04313,0.37971c-0.0536,0.10817 -0.16909,0.16329 -0.30292,0.14455c-0.13382,-0.01871 -0.26562,-0.10845 -0.34567,-0.23533c-0.08029,-0.12676 -0.09675,-0.27154 -0.04312,-0.37971c0.05359,-0.10818 0.16909,-0.16329 0.30291,-0.14455c0.13383,0.01871 0.26562,0.10845 0.34567,0.23533z" fill="#333333"/>
    <path d="m1.50426,0.31448c0.10504,0.15122 0.14242,0.33267 0.09799,0.47589c-0.04439,0.14323 -0.16382,0.22645 -0.31321,0.21827c-0.14939,-0.00815 -0.30602,-0.10649 -0.41081,-0.25788c-0.10504,-0.15121 -0.14242,-0.33266 -0.09799,-0.47588c0.0444,-0.14323 0.16382,-0.22646 0.31321,-0.21828c0.14939,0.00815 0.30602,0.1065 0.41081,0.25788z" id="svg_718" fill="#333333"/>
    <path id="svg_717" d="m0.41985,2.17521c-0.13756,0.00015 -0.26477,-0.05301 -0.3336,-0.13946c-0.06886,-0.08643 -0.0689,-0.19299 -0.00009,-0.27946c0.06878,-0.08649 0.19595,-0.13974 0.33351,-0.13967c0.13756,-0.00016 0.26477,0.05301 0.33361,0.13946c0.06886,0.08643 0.06889,0.19299 0.00009,0.27947c-0.06878,0.08649 -0.19596,0.13973 -0.33352,0.13966z" fill="#333333"/>
    <path id="svg_716" d="m1.53942,1.83097c-0.13687,0.10252 -0.30415,0.14336 -0.43873,0.10706c-0.13459,-0.03627 -0.21601,-0.14413 -0.21354,-0.28288c0.00244,-0.13876 0.08842,-0.2873 0.22546,-0.3896c0.13687,-0.10252 0.30416,-0.14335 0.43874,-0.10705c0.13459,0.03627 0.21601,0.14413 0.21353,0.28288c-0.00243,0.13875 -0.08842,0.28729 -0.22546,0.38959z" fill="#333333"/>
    <path id="svg_715" d="m2.21879,0.54951c-0.08196,0.11604 -0.20138,0.18919 -0.31323,0.19179c-0.11185,0.00263 -0.1991,-0.06564 -0.22884,-0.17907c-0.02977,-0.11342 0.00252,-0.25475 0.08466,-0.37064c0.08195,-0.11605 0.20139,-0.18919 0.31323,-0.19179c0.11185,-0.00263 0.19911,0.06564 0.22885,0.17907c0.02976,0.11342 -0.00253,0.25474 -0.08467,0.37064z" fill="#333333"/>
    <path d="m2.30187,1.87822c-0.05208,0.1289 -0.14818,0.22612 -0.25206,0.25494c-0.10388,0.02884 -0.19974,-0.01507 -0.25141,-0.11518c-0.05168,-0.10009 -0.05131,-0.24116 0.00097,-0.36996c0.05207,-0.12891 0.14818,-0.22612 0.25207,-0.25494c0.10388,-0.02884 0.19974,0.01507 0.2514,0.11518c0.05169,0.10009 0.0513,0.24115 -0.00097,0.36996z" id="svg_714" fill="#333333"/>
    <path d="m2.03204,0.80549c0.11235,0.007 0.21344,0.05793 0.26511,0.13362c0.05168,0.07568 0.04611,0.16458 -0.01463,0.23317c-0.06072,0.0686 -0.16738,0.10644 -0.27972,0.09926c-0.11234,-0.00699 -0.21343,-0.05793 -0.2651,-0.13362c-0.05169,-0.07567 -0.04611,-0.16458 0.01463,-0.23317c0.06072,-0.0686 0.16738,-0.10643 0.27971,-0.09926z" id="svg_713" fill="#333333"/>
   </pattern>
   <pattern patternUnits="userSpaceOnUse" width="4" height="4" patternTransform="translate(-50.3935, 512.782)" id="svg_497">
    <g id="svg_703" fill="#800000">
     <path id="svg_711" d="m1.120308,0.967728c-0.233903,0.330814 -0.635996,0.465096 -0.898111,0.300047c-0.262135,-0.16505 -0.285011,-0.566955 -0.051111,-0.897657c0.233887,-0.330702 0.63598,-0.464983 0.898118,-0.300046c0.262115,0.165049 0.285005,0.566955 0.051104,0.897656z" fill="#800000"/>
     <path d="m1.35977,1.871448c0.203268,0.369481 0.131783,0.781585 -0.159668,0.920427c-0.291451,0.138842 -0.692468,-0.048049 -0.895743,-0.41753c-0.203275,-0.369481 -0.131793,-0.781473 0.159668,-0.920427c0.291451,-0.138842 0.692468,0.048049 0.895743,0.41753z" id="svg_710" fill="#800000"/>
     <path id="svg_709" d="m2.604951,0.589577c0.267138,0.441494 0.23787,0.972913 -0.065369,1.186854c-0.303229,0.213828 -0.765581,0.029336 -1.0327,-0.412158c-0.267122,-0.441607 -0.237869,-0.972913 0.065382,-1.186854c0.303232,-0.213941 0.765565,-0.029449 1.032687,0.412157z" fill="#800000"/>
     <path d="m0.6482,3.978133c-0.365401,-0.011211 -0.655497,-0.251914 -0.647952,-0.537586c0.007546,-0.285672 0.309873,-0.50824 0.675281,-0.497029c0.365421,0.011212 0.655517,0.251915 0.647971,0.537587c-0.007546,0.285672 -0.309879,0.50824 -0.6753,0.497028z" id="svg_708" fill="#800000"/>
     <path d="m2.59038,3.400213c-0.371632,0.281742 -0.830919,0.270563 -1.025858,-0.024892c-0.194958,-0.295455 -0.051718,-0.763378 0.319914,-1.04512c0.371632,-0.281742 0.830913,-0.270563 1.025871,0.024893c0.194945,0.295455 0.051718,0.763377 -0.319927,1.04512z" id="svg_707" fill="#800000"/>
     <path d="m3.82198,1.062999c-0.22681,0.325038 -0.582764,0.434727 -0.795064,0.24486c-0.212323,-0.189755 -0.200557,-0.607105 0.026242,-0.932256c0.226816,-0.325038 0.582771,-0.434727 0.79509,-0.244859c0.212304,0.189754 0.200551,0.607105 -0.026269,0.932255z" id="svg_706" fill="#800000"/>
     <path id="svg_705" d="m3.899102,3.528344c-0.148438,0.364351 -0.459645,0.558359 -0.695121,0.433168c-0.235459,-0.125077 -0.306002,-0.521897 -0.157555,-0.88636c0.148444,-0.364351 0.459662,-0.558245 0.695121,-0.433168c0.235476,0.12519 0.306018,0.52201 0.157555,0.88636z" fill="#800000"/>
     <path id="svg_704" d="m3.488193,1.527165c0.297885,0.029484 0.522946,0.246222 0.502684,0.484207c-0.020262,0.237985 -0.278137,0.406945 -0.576019,0.377347c-0.297885,-0.029484 -0.522929,-0.246334 -0.502684,-0.484207c0.020262,-0.237985 0.278136,-0.406945 0.576019,-0.377348z" fill="#800000"/>
    </g>
   </pattern>
   <pattern patternUnits="userSpaceOnUse" width="4.531986" height="4.508552" patternTransform="translate(-50.6334, 507.297)" id="svg_494">
    <g id="svg_693">
     <path d="m0.79009,2.82555c-0.43626,0.00012 -0.78998,-0.23455 -0.79008,-0.52419c-0.00011,-0.28965 0.35345,-0.52451 0.7897,-0.52464c0.43626,-0.00012 0.78998,0.23455 0.79008,0.52419c0.00011,0.28965 -0.35345,0.52452 -0.7897,0.52464z" id="svg_702" fill="#800000"/>
     <path d="m3.82611,1.481c-0.45448,0.31616 -0.8984,0.29682 -0.99156,-0.04324c-0.09315,-0.34001 0.19974,-0.87197 0.65422,-1.18813c0.45447,-0.31616 0.89841,-0.29677 0.99156,0.04324c0.09316,0.34005 -0.19974,0.87197 -0.65422,1.18813z" id="svg_701" fill="#800000"/>
     <path id="svg_700" d="m2.31355,1.64747c0.32663,0.02919 0.57908,0.33114 0.56388,0.67444c-0.01519,0.34331 -0.29228,0.59792 -0.61891,0.56873c-0.32662,-0.02919 -0.57908,-0.33112 -0.56388,-0.67444c0.01519,-0.34329 0.29228,-0.59792 0.61891,-0.56873z" fill="#800000"/>
     <path id="svg_699" d="m3.74229,2.77869c-0.43626,0.00012 -0.78998,-0.23455 -0.79008,-0.52419c-0.0001,-0.28965 0.35345,-0.52451 0.7897,-0.52464c0.43626,-0.00012 0.78998,0.23455 0.79008,0.52419c0.00011,0.28965 -0.35345,0.52452 -0.7897,0.52464z" fill="#800000"/>
     <path d="m2.79041,0.7897c0.00012,0.43625 -0.23456,0.78997 -0.52419,0.79007c-0.28964,0.00011 -0.52452,-0.35345 -0.52464,-0.7897c-0.00012,-0.43626 0.23455,-0.78998 0.52419,-0.79008c0.28963,-0.0001 0.52451,0.35345 0.52464,0.78971z" id="svg_698" fill="#800000"/>
     <path id="svg_697" d="m2.81383,3.71846c0.00013,0.43626 -0.23455,0.78998 -0.52418,0.79008c-0.28964,0.0001 -0.52452,-0.35345 -0.52464,-0.78971c-0.00012,-0.43625 0.23455,-0.78997 0.52419,-0.79007c0.28964,-0.00011 0.52451,0.35345 0.52464,0.7897l-0.00001,0z" fill="#800000"/>
     <path id="svg_696" d="m1.04964,4.2809c-0.45448,0.31616 -0.8984,0.29682 -0.99157,-0.04324c-0.09315,-0.34001 0.19974,-0.87197 0.65422,-1.18813c0.45448,-0.31616 0.89842,-0.29677 0.99157,0.04324c0.09316,0.34005 -0.19974,0.87197 -0.65422,1.18813z" fill="#800000"/>
     <path d="m1.49665,0.72009c0.31616,0.45448 0.2968,0.89841 -0.04323,0.99157c-0.34006,0.09316 -0.87197,-0.19974 -1.18813,-0.65422c-0.31616,-0.45448 -0.29682,-0.89841 0.04323,-0.99157c0.34004,-0.09316 0.87197,0.19974 1.18813,0.65422z" id="svg_695" fill="#800000"/>
     <path id="svg_694" d="m4.24969,3.4497c0.31616,0.45448 0.2968,0.89841 -0.04323,0.99156c-0.34006,0.09317 -0.87197,-0.19973 -1.18813,-0.65421c-0.31616,-0.45448 -0.29682,-0.89841 0.04323,-0.99157c0.34004,-0.09316 0.87197,0.19974 1.18813,0.65422z" fill="#800000"/>
    </g>
   </pattern>
   <pattern patternUnits="userSpaceOnUse" width="5.599999" height="5.602892" patternTransform="translate(-82.2386, 518.899)" id="svg_684">
    <path d="m1.54863,1.40171c-0.20223,0.304 -0.51722,0.5098 -0.82617,0.53963c-0.30894,0.0299 -0.56484,-0.12065 -0.67114,-0.39483c-0.10637,-0.27416 -0.04692,-0.63028 0.15584,-0.93397c0.20222,-0.30401 0.51723,-0.50979 0.82617,-0.53962c0.30894,-0.0299 0.56484,0.12064 0.67115,0.39482c0.10636,0.27416 0.04689,0.63027 -0.15585,0.93397z" id="svg_692" fill="#800000"/>
    <path id="svg_691" d="m1.98906,2.64646c0.19203,0.32635 0.23141,0.69908 0.10315,0.97755c-0.12819,0.27849 -0.40445,0.42039 -0.72454,0.37215c-0.3201,-0.04817 -0.63535,-0.2792 -0.82681,-0.60585c-0.19206,-0.32634 -0.23142,-0.69908 -0.10316,-0.97755c0.12819,-0.2785 0.40445,-0.4204 0.72454,-0.37216c0.3201,0.04818 0.63533,0.27922 0.82682,0.60586z" fill="#800000"/>
    <path d="m3.59807,0.6644c0.25122,0.3893 0.34064,0.85643 0.23437,1.22515c-0.10619,0.36874 -0.39184,0.583 -0.74916,0.56193c-0.35732,-0.02098 -0.73199,-0.27415 -0.98262,-0.6639c-0.25125,-0.38929 -0.34065,-0.85644 -0.23438,-1.22515c0.1062,-0.36874 0.39184,-0.583 0.74916,-0.56193c0.35733,0.02098 0.73197,0.27417 0.98263,0.6639z" id="svg_690" fill="#740000"/>
    <path id="svg_689" d="m1.00426,5.60289c-0.32903,0.00038 -0.6333,-0.13648 -0.79795,-0.35904c-0.16471,-0.22251 -0.16479,-0.49684 -0.00022,-0.719471c0.16452,-0.22267 0.46871,-0.35975 0.79774,-0.35957c0.32903,-0.0004 0.6333,0.13648 0.79795,0.35904c0.16471,0.22252 0.16479,0.49685 0.00022,0.71947c-0.16452,0.22267 -0.46871,0.35973 -0.79774,0.35957z" fill="#7b0000"/>
    <path id="svg_688" d="m3.68215,4.71665c-0.3274,0.26392 -0.72752,0.36907 -1.04942,0.27561c-0.32191,-0.09337 -0.51666,-0.37105 -0.51075,-0.72826c0.00583,-0.35722 0.21149,-0.73965 0.53928,-1.00299c0.32738,-0.26395 0.72752,-0.36906 1.04942,-0.27561c0.32192,0.09337 0.51666,0.37105 0.51075,0.72827c-0.00583,0.35721 -0.2115,0.73961 -0.53928,1.00298z" fill="#800000"/>
    <path id="svg_687" d="m5.30715,1.41758c-0.19604,0.29874 -0.48169,0.48704 -0.74922,0.49375c-0.26753,0.00678 -0.47624,-0.169 -0.54737,-0.46102c-0.0712,-0.29199 0.00604,-0.65583 0.20251,-0.9542c0.19602,-0.29876 0.48169,-0.48705 0.74922,-0.49375c0.26753,-0.00678 0.47624,0.169 0.54738,0.46101c0.07119,0.29199 -0.00607,0.65582 -0.20252,0.95421z" fill="#800000"/>
    <path d="m5.50586,4.8383c-0.12457,0.33184 -0.35443,0.58212 -0.60292,0.65632c-0.24847,0.07426 -0.47775,-0.0388 -0.60133,-0.29651c-0.12363,-0.25768 -0.12273,-0.62086 0.00232,-0.95247c0.12455,-0.33185 0.35443,-0.58212 0.60292,-0.65631c0.24847,-0.07426 0.47775,0.03879 0.60133,0.29651c0.12363,0.25768 0.12271,0.62085 -0.00232,0.95246z" id="svg_686" fill="#800000"/>
    <path d="m4.86045,2.0766c0.26873,0.01801 0.51052,0.14914 0.63411,0.344c0.12363,0.19482 0.11029,0.42371 -0.03499,0.60028c-0.14524,0.17661 -0.40036,0.27404 -0.66905,0.25555c-0.26872,-0.01799 -0.51052,-0.14914 -0.63411,-0.34399c-0.12363,-0.19483 -0.11029,-0.42371 0.03499,-0.60029c0.14524,-0.17661 0.40036,-0.27401 0.66905,-0.25555z" id="svg_685" fill="#800000"/>
   </pattern>
   <pattern patternUnits="userSpaceOnUse" width="5.734434" height="5.737327" patternTransform="translate(-80.0166, 517.465)" id="svg_511">
    <rect id="svg_680" y="0.067217" x="0.067217" height="5.602892" width="5.599999" filter="url(#svg_682)" fill="url(#svg_681)"/>
   </pattern>
  </defs>
  <metadata id="svg_679">image/svg+xml</metadata>
  <g id="svg_981">
   <g id="svg_973">
    <path d="m187.14006,93.537476c0.649307,1.652168 1.821075,2.284676 1.520493,4.159615c-0.339981,2.12027 -0.713654,3.745583 -0.001862,5.903053c1.470352,4.456879 6.121735,6.348961 9.9646,8.532898c2.040146,1.159355 3.556747,2.818451 5.087021,4.501648c1.644485,1.808739 3.590912,3.468231 4.87558,5.530128c1.263321,2.027611 2.06868,4.317322 3.156921,6.430779c1.252487,2.432434 2.447861,4.824265 3.224258,7.434448c0.597,2.007065 0.827759,4.07074 0.802124,6.149536c0.654678,-2.281906 -1.070526,-5.611954 -1.653229,-7.786835c-0.89946,-3.358276 -1.799072,-6.716331 -2.698669,-10.074631c3.215942,4.648895 6.431885,9.297791 9.647781,13.946686c-1.312119,-3.240555 -3.913879,-5.70488 -5.820221,-8.612595c-2.033035,-3.101105 -3.382996,-6.611198 -5.19104,-9.836227c2.464188,2.91275 5.38237,5.290466 8.389282,7.6828c-0.018799,-0.588379 0.307419,-1.191002 0.052536,-1.712807c-0.272568,-0.557869 -1.090363,-0.86145 -1.415497,-1.468102c-1.098572,-2.049294 -1.893997,-3.576019 -3.503525,-5.399651c-3.402542,-3.85527 -6.916245,-7.233864 -9.158707,-11.838249c-1.11235,-2.284164 -2.196732,-4.579689 -3.487289,-6.780518c-1.272964,-2.1707 -2.859711,-3.917168 -4.247711,-5.979073c-1.138931,-1.691879 -1.749481,-2.800934 -3.539322,-3.91478c-1.251282,-0.77874 -4.191162,-0.453224 -5.269745,0.48941c-0.497253,0.43457 -0.58989,1.312416 -1.048691,1.663895c-0.664322,0.508957 -2.034912,0.10553 -2.674042,0.733871c0.93074,0.297905 2.014694,0.208389 2.988953,0.244698" id="svg_980" clip-rule="evenodd" fill-rule="evenodd" fill="#3f1f01"/>
    <path d="m187.14006,93.537476c0.649307,1.652168 1.821075,2.284676 1.520493,4.159615c-0.339981,2.12027 -0.713654,3.745583 -0.001862,5.903053c1.470352,4.456879 6.121735,6.348961 9.9646,8.532898c2.040146,1.159355 3.556747,2.818451 5.087021,4.501648c1.644485,1.808739 3.590912,3.468231 4.87558,5.530128c1.263321,2.027611 2.06868,4.317322 3.156921,6.430779c1.252487,2.432434 2.447861,4.824265 3.224258,7.434448c0.597,2.007065 0.827759,4.07074 0.802124,6.149536c0.654678,-2.281906 -1.070526,-5.611954 -1.653229,-7.786835c-0.89946,-3.358276 -1.799072,-6.716331 -2.698669,-10.074631c3.215942,4.648895 6.431885,9.297791 9.647781,13.946686c-1.312119,-3.240555 -3.913879,-5.70488 -5.820221,-8.612595c-2.033035,-3.101105 -3.382996,-6.611198 -5.19104,-9.836227c2.464188,2.91275 5.38237,5.290466 8.389282,7.6828c-0.018799,-0.588379 0.307419,-1.191002 0.052536,-1.712807c-0.272568,-0.557869 -1.090363,-0.86145 -1.415497,-1.468102c-1.098572,-2.049294 -1.893997,-3.576019 -3.503525,-5.399651c-3.402542,-3.85527 -6.916245,-7.233864 -9.158707,-11.838249c-1.11235,-2.284164 -2.196732,-4.579689 -3.487289,-6.780518c-1.272964,-2.1707 -2.859711,-3.917168 -4.247711,-5.979073c-1.138931,-1.691879 -1.749481,-2.800934 -3.539322,-3.91478c-1.300476,-0.80925 -4.129883,-0.409859 -5.269745,0.48941c-0.109131,0.086113 -0.219589,0.193649 -0.314514,0.293625" id="svg_979" stroke-miterlimit="10" stroke-linecap="square" stroke-width="0.3806" stroke="#000000" fill="#3f1f01"/>
    <path d="m187.559448,91.188637c-0.251633,0.392082 -0.489365,1.379349 -0.976852,1.444405c-0.785233,0.104897 -1.90889,0.146118 -2.431351,0.659737c0.930603,0.297783 2.014557,0.208389 2.988815,0.244576" id="svg_978" stroke-miterlimit="10" stroke-linecap="square" stroke-width="0.3806" stroke="#000000" fill="#3f1f01"/>
    <path d="m193.117294,114.726593c0.598633,-0.302452 1.196442,-0.610687 1.835312,-0.831825c-0.186249,0.045639 -0.547287,0.248238 -0.681778,0.293625c-0.054428,-0.019676 0.105789,-0.100861 0.052567,-0.097961c0.053619,0.204239 0.118652,0.468231 0.15741,0.783035c0.650482,-1.315186 0.540436,-1.314804 2.04483,-1.174362c1.2258,0.114349 1.568741,0.289207 2.621979,0.929779c-0.529694,-1.144478 -1.458389,-1.383385 -2.621979,-0.880989c0.35704,-1.100098 1.86705,-1.371033 2.936249,-1.467972c-1.276749,-0.568336 -2.353073,0.748611 -3.48674,1.100983c-1.046829,0.325508 -2.297028,0.311516 -2.857849,1.345688" id="svg_977" clip-rule="evenodd" fill-rule="evenodd" fill="#3f1f01"/>
    <path d="m193.117294,114.726593c0.598633,-0.302452 1.196442,-0.610687 1.835312,-0.831825c-0.186249,0.045639 -0.547287,0.248238 -0.681778,0.293625c-0.054428,-0.019676 0.105789,-0.100861 0.052567,-0.097961c0.053619,0.204239 0.118652,0.468231 0.15741,0.783035c0.650482,-1.315186 0.540436,-1.314804 2.04483,-1.174362c1.2258,0.114349 1.568741,0.289207 2.621979,0.929779c-0.529694,-1.144478 -1.458389,-1.383385 -2.621979,-0.880989c0.35704,-1.100098 1.86705,-1.371033 2.936249,-1.467972c-1.276749,-0.568336 -2.353073,0.748611 -3.48674,1.100983c-1.046829,0.325508 -2.297028,0.311516 -2.857849,1.345688" id="svg_976" stroke-miterlimit="10" stroke-linecap="square" stroke-width="0.3806" stroke="#000000" fill="#3f1f01"/>
    <path d="m193.117294,112.279922c0.60495,-0.305977 1.21788,-0.597588 1.835312,-0.880745c-0.181015,0.041733 -0.488159,0.261986 -0.681778,0.342537c0.353439,0.099976 0.070663,0.083458 0.209854,0.684944c0.662811,-1.339752 0.532242,-1.316055 2.044815,-1.174355c1.171082,0.109688 1.625336,0.20752 2.621994,0.880737c-0.527405,-1.194527 -1.486298,-1.24646 -2.621994,-0.880737c0.410782,-1.077522 1.852982,-1.321098 2.936249,-1.419182c-1.174026,-0.617882 -2.453613,0.647758 -3.486725,1.076645c-0.992661,0.41214 -2.35025,0.281647 -2.857727,1.370155" id="svg_975" clip-rule="evenodd" fill-rule="evenodd" fill="#3f1f01"/>
    <path d="m193.117294,112.279922c0.60495,-0.305977 1.21788,-0.597588 1.835312,-0.880745c-0.181015,0.041733 -0.488159,0.261986 -0.681778,0.342537c0.353439,0.099976 0.070663,0.083458 0.209854,0.684944c0.662811,-1.339752 0.532242,-1.316055 2.044815,-1.174355c1.171082,0.109688 1.625336,0.20752 2.621994,0.880737c-0.527405,-1.194527 -1.486298,-1.24646 -2.621994,-0.880737c0.410782,-1.077522 1.852982,-1.321098 2.936249,-1.419182c-1.174026,-0.617882 -2.453613,0.647758 -3.486725,1.076645c-0.992661,0.41214 -2.35025,0.281647 -2.857727,1.370155" id="svg_974" stroke-miterlimit="10" stroke-linecap="square" stroke-width="0.3806" stroke="#000000" fill="#3f1f01"/>
   </g>
  </g>
  <g id="svg_990">
   <g id="svg_982">
    <path d="m180.409225,101.544151c-0.502991,1.355209 -1.410736,1.874023 -1.177856,3.411964c0.263382,1.739182 0.552841,3.072365 0.00145,4.842056c-1.139053,3.655823 -4.742355,5.207817 -7.719315,6.999222c-1.580444,0.950966 -2.75531,2.311882 -3.940781,3.692528c-1.273941,1.483658 -2.781784,2.844864 -3.776978,4.536156c-0.978668,1.663177 -1.602554,3.541336 -2.445587,5.274933c-0.970261,1.995224 -1.896286,3.957169 -2.497742,6.098206c-0.462479,1.646317 -0.641235,3.33905 -0.621384,5.04422c-0.507156,-1.871765 0.8293,-4.603271 1.280701,-6.387222c0.696793,-2.7547 1.393692,-5.509186 2.090591,-8.263863c-2.491302,3.813316 -4.982605,7.626625 -7.473877,11.439934c1.016464,-2.658096 3.031982,-4.679489 4.508774,-7.064575c1.574936,-2.543732 2.620712,-5.422913 4.021362,-8.068291c-1.908936,2.389229 -4.169571,4.339569 -6.498947,6.301903c0.014526,-0.48262 -0.238159,-0.976929 -0.04071,-1.404938c0.211151,-0.457603 0.844681,-0.706619 1.096542,-1.204239c0.851044,-1.680954 1.467239,-2.933273 2.714096,-4.429131c2.635849,-3.162331 5.357819,-5.933662 7.095001,-9.710464c0.86171,-1.873619 1.701752,-3.756546 2.701508,-5.561806c0.986145,-1.780548 2.215317,-3.213104 3.290588,-4.904411c0.882309,-1.387772 1.355286,-2.297493 2.741821,-3.211128c0.96933,-0.638779 3.24678,-0.37178 4.082321,0.401436c0.385223,0.356453 0.456985,1.076515 0.812408,1.364838c0.514633,0.417473 1.576385,0.086548 2.071503,0.601952c-0.721024,0.244362 -1.56073,0.170944 -2.315491,0.200722" id="svg_989" clip-rule="evenodd" fill-rule="evenodd" fill="#3f1f01"/>
    <path d="m180.409225,101.544151c-0.502991,1.355209 -1.410736,1.874023 -1.177856,3.411964c0.263382,1.739182 0.552841,3.072365 0.00145,4.842056c-1.139053,3.655823 -4.742355,5.207817 -7.719315,6.999222c-1.580444,0.950966 -2.75531,2.311882 -3.940781,3.692528c-1.273941,1.483658 -2.781784,2.844864 -3.776978,4.536156c-0.978668,1.663177 -1.602554,3.541336 -2.445587,5.274933c-0.970261,1.995224 -1.896286,3.957169 -2.497742,6.098206c-0.462479,1.646317 -0.641235,3.33905 -0.621384,5.04422c-0.507156,-1.871765 0.8293,-4.603271 1.280701,-6.387222c0.696793,-2.7547 1.393692,-5.509186 2.090591,-8.263863c-2.491302,3.813316 -4.982605,7.626625 -7.473877,11.439934c1.016464,-2.658096 3.031982,-4.679489 4.508774,-7.064575c1.574936,-2.543732 2.620712,-5.422913 4.021362,-8.068291c-1.908936,2.389229 -4.169571,4.339569 -6.498947,6.301903c0.014526,-0.48262 -0.238159,-0.976929 -0.04071,-1.404938c0.211151,-0.457603 0.844681,-0.706619 1.096542,-1.204239c0.851044,-1.680954 1.467239,-2.933273 2.714096,-4.429131c2.635849,-3.162331 5.357819,-5.933662 7.095001,-9.710464c0.86171,-1.873619 1.701752,-3.756546 2.701508,-5.561806c0.986145,-1.780548 2.215317,-3.213104 3.290588,-4.904411c0.882309,-1.387772 1.355286,-2.297493 2.741821,-3.211128c1.007446,-0.663811 3.19931,-0.336205 4.082321,0.401436c0.084549,0.070633 0.17012,0.158844 0.243652,0.240845" id="svg_988" stroke-miterlimit="10" stroke-linecap="square" stroke-width="0.3806" stroke="#000000" fill="#3f1f01"/>
    <path d="m180.084366,99.617485c0.194931,0.321609 0.379105,1.131424 0.756729,1.184799c0.608307,0.086029 1.478745,0.119843 1.883514,0.541145c-0.720917,0.244263 -1.560623,0.170944 -2.315384,0.200623" id="svg_987" stroke-miterlimit="10" stroke-linecap="square" stroke-width="0.3806" stroke="#000000" fill="#3f1f01"/>
    <path d="m175.778824,118.924782c-0.463715,-0.248093 -0.926834,-0.500923 -1.421738,-0.682312c0.144272,0.037437 0.423965,0.203613 0.528152,0.240845c0.042145,-0.016136 -0.081955,-0.082726 -0.040726,-0.080353c-0.041565,0.167526 -0.091919,0.384071 -0.121933,0.642288c-0.503937,-1.078781 -0.418671,-1.078476 -1.584076,-0.96328c-0.9496,0.093796 -1.215271,0.237228 -2.031204,0.762665c0.41037,-0.938774 1.129807,-1.134743 2.031204,-0.722641c-0.276596,-0.902367 -1.446365,-1.124611 -2.274658,-1.204124c0.989075,-0.466187 1.822861,0.614059 2.701096,0.903099c0.810959,0.266998 1.779449,0.255524 2.213882,1.103813" id="svg_986" clip-rule="evenodd" fill-rule="evenodd" fill="#3f1f01"/>
    <path d="m175.778824,118.924782c-0.463715,-0.248093 -0.926834,-0.500923 -1.421738,-0.682312c0.144272,0.037437 0.423965,0.203613 0.528152,0.240845c0.042145,-0.016136 -0.081955,-0.082726 -0.040726,-0.080353c-0.041565,0.167526 -0.091919,0.384071 -0.121933,0.642288c-0.503937,-1.078781 -0.418671,-1.078476 -1.584076,-0.96328c-0.9496,0.093796 -1.215271,0.237228 -2.031204,0.762665c0.41037,-0.938774 1.129807,-1.134743 2.031204,-0.722641c-0.276596,-0.902367 -1.446365,-1.124611 -2.274658,-1.204124c0.989075,-0.466187 1.822861,0.614059 2.701096,0.903099c0.810959,0.266998 1.779449,0.255524 2.213882,1.103813" id="svg_985" stroke-miterlimit="10" stroke-linecap="square" stroke-width="0.3806" stroke="#000000" fill="#3f1f01"/>
    <path d="m175.778824,116.91787c-0.468613,-0.250977 -0.943466,-0.490181 -1.421738,-0.722427c0.140213,0.034218 0.378159,0.214874 0.528152,0.28096c-0.273804,0.082016 -0.054749,0.068459 -0.162567,0.561836c-0.513474,-1.098953 -0.412323,-1.079514 -1.584076,-0.96328c-0.907227,0.089973 -1.259094,0.170219 -2.031174,0.722435c0.408569,-0.979828 1.151382,-1.02243 2.031174,-0.722435c-0.318222,-0.883858 -1.435455,-1.083649 -2.274628,-1.164116c0.909485,-0.506805 1.900726,0.531342 2.70108,0.883141c0.768982,0.338058 1.820679,0.231026 2.213776,1.123886" id="svg_984" clip-rule="evenodd" fill-rule="evenodd" fill="#3f1f01"/>
    <path d="m175.778824,116.91787c-0.468613,-0.250977 -0.943466,-0.490181 -1.421738,-0.722427c0.140213,0.034218 0.378159,0.214874 0.528152,0.28096c-0.273804,0.082016 -0.054749,0.068459 -0.162567,0.561836c-0.513474,-1.098953 -0.412323,-1.079514 -1.584076,-0.96328c-0.907227,0.089973 -1.259094,0.170219 -2.031174,0.722435c0.408569,-0.979828 1.151382,-1.02243 2.031174,-0.722435c-0.318222,-0.883858 -1.435455,-1.083649 -2.274628,-1.164116c0.909485,-0.506805 1.900726,0.531342 2.70108,0.883141c0.768982,0.338058 1.820679,0.231026 2.213776,1.123886" id="svg_983" stroke-miterlimit="10" stroke-linecap="square" stroke-width="0.3806" stroke="#000000" fill="#3f1f01"/>
   </g>
  </g>
  <g transform="rotate(-98.29530334472656 128.5318603515625,157.4901580810547) matrix(0.463725,0,0,-1.43838,169.526,904.004) " id="svg_1004">
   <metadata fill="#3f1f01" id="svg_1006">image/svg+xml</metadata>
   <g id="svg_1007">
    <g id="svg_1008">
     <path d="m-112.408485,558.97113c-2.242043,-0.924927 -4.507118,-1.732483 -6.584999,-2.918518c-4.440407,-2.698669 -8.197258,-5.821228 -11.457642,-9.419312c-3.74118,-4.109253 -4.888199,-8.815247 -4.996109,-13.769348c0.630188,-5.185303 3.98555,-9.256226 8.441101,-12.89502c5.430107,-3.722961 11.819092,-6.319214 18.80262,-7.551758c7.7314,-1.161041 15.370636,-0.189087 22.83432,1.480164c6.897041,1.751892 12.60714,4.99054 17.008591,9.498901c4.076157,4.962952 2.984634,10.03302 0.404678,15.225342c-4.001503,6.167175 -10.003647,11.29126 -15.525925,16.601563c-6.0644,5.363708 -10.814507,11.447083 -14.75489,17.90509c-1.348831,4.064941 -4.316971,8.482971 -3.586578,12.622131c0.061821,0.350403 -0.563896,0.419312 -0.624817,0.068909l0,0c-0.892471,-5.138245 -2.706558,-8.930481 1.363113,-13.838257c4.321144,-6.453369 10.0382,-12.184875 15.214508,-18.210327c4.800606,-5.351196 9.797966,-10.676514 13.427452,-16.601074c2.119492,-3.955627 3.03627,-7.840698 0.566162,-11.876526c-3.278282,-4.507141 -8.162117,-7.490845 -14.294701,-9.356262c-6.957024,-1.901001 -14.189598,-2.649109 -21.504295,-1.641418c-6.696724,1.184692 -13.100311,2.570251 -17.956612,6.705994c-3.927933,3.374268 -6.967499,7.207153 -7.406937,11.906677c-0.39212,4.599792 1.150986,8.828552 4.367325,12.68927c3.160187,3.338379 6.924263,6.360596 11.226685,8.776917c1.777122,1.049255 3.503845,2.580688 5.702141,2.955505c1.502541,0.256287 0.698372,2.203735 -0.665192,1.641357z" stroke-width="1px" fill-rule="nonzero" fill="#3f1f01" id="svg_1009"/>
     <path d="m-48.801861,463.985168c2.195702,-0.88269 4.563778,-1.292816 6.958424,-1.677734c4.98296,-0.633118 10.011194,-0.441101 14.962135,0.226654c4.840124,1.053925 8.375452,3.570831 11.637988,6.451691c2.873438,3.110596 3.706404,6.236938 1.902975,9.829071c-2.397664,3.854767 -7.247006,5.981781 -11.645101,8.211426c-5.426605,2.573486 -11.011566,4.920074 -16.550232,7.3349c-6.377876,2.503387 -12.090309,5.784454 -17.644493,9.273987c-6.367207,4.182922 -11.496288,9.30069 -15.854443,14.836517c-4.323769,5.204773 -6.494637,11.089294 -7.789192,17.167175c-1.229332,4.567688 -0.067741,8.900391 1.921204,13.188293c0.153992,0.332092 -0.438629,0.504639 -0.59214,0.172546l0,0c-2.014923,-4.360229 -2.998695,-8.866516 -2.821548,-13.530945c0.95652,-6.349304 3.77832,-12.183533 8.105164,-17.593689c4.586685,-5.561157 9.397812,-11.054932 15.743244,-15.468353c5.439053,-3.759186 11.303112,-7.132599 17.520088,-10.042114c5.399071,-2.450867 10.880436,-4.82843 15.94721,-7.700653c3.523409,-2.004578 7.007799,-4.123749 9.107561,-7.213135c0.998974,-2.306061 1.277046,-4.50824 -0.369585,-6.713776c-2.08144,-2.94754 -5.440083,-4.962402 -9.345535,-6.269073c-4.478621,-1.590271 -9.135111,-2.11908 -13.975393,-1.232117c-2.254944,0.433411 -4.518021,0.940735 -6.598007,1.773499c-0.904324,0.362091 -1.523846,-0.66098 -0.620323,-1.02417z" stroke-width="1px" fill-rule="nonzero" fill="#3f1f01" id="svg_1010"/>
     <path d="m-61.819141,518.366516c0.733196,-0.846619 2.115074,-1.198486 3.279411,-1.61731c3.254723,-1.210632 6.032112,-2.998413 8.627266,-4.941101c3.536831,-2.729614 6.117001,-6.000763 8.434521,-9.420349c1.939415,-3.380096 2.75362,-7.094849 2.61208,-10.792297c-0.513985,-2.534332 -1.135342,-5.093811 -4.0602,-6.455963c-0.384571,-0.179199 -0.063007,-0.611328 0.320648,-0.430908l0,0c3.782242,1.779022 7.347691,2.881439 6.97282,6.992371c-0.513664,3.991577 -2.614502,7.522156 -4.84745,11.084351c-2.133236,3.609741 -4.891548,6.960236 -8.284573,9.912994c-2.51054,2.19989 -5.141964,4.305908 -7.999393,6.225159c-0.921574,0.631653 -1.996708,1.488831 -3.181686,1.582214c-2.310837,0.182129 -3.188267,-0.621033 -1.873444,-2.13916z" stroke-width="1px" fill-rule="nonzero" fill="#3f1f01" id="svg_1011"/>
     <path d="m-94.520271,563.325562c0.388832,-1.162964 1.790932,-1.996582 2.772171,-2.930725c2.450005,-2.58136 3.87355,-5.50293 5.044083,-8.566833c0.847679,-3.563599 0.777824,-7.142395 -0.50164,-10.620605c-1.042862,-2.903198 -3.09906,-5.466614 -5.850418,-7.530212c-2.941261,-2.105286 -6.435081,-2.372925 -10.211372,-2.009338c-2.602325,0.316345 -4.769897,1.220886 -6.978104,2.287903c-0.380905,0.184021 -0.70903,-0.243652 -0.327919,-0.42749l0,0c2.268944,-1.093872 4.47435,-2.300598 6.955406,-3.081665c4.611046,-1.190857 9.115578,-1.453125 13.207703,0.995178c3.425156,2.535706 5.633415,5.581177 6.541786,9.263367c0.508476,3.888306 0.209396,7.720886 -1.557159,11.41626c-1.107582,3.17865 -2.407906,6.393677 -4.401001,9.293091c-0.778152,1.145691 -1.501862,2.56543 -3.053253,3.029907c-1.431366,0.428467 -2.03244,0.053833 -1.640282,-1.118835z" stroke-width="1px" fill-rule="nonzero" fill="#3f1f01" id="svg_1012"/>
     <path d="m-74.243431,542.259705c1.088844,-0.700745 1.74868,-1.682434 2.470596,-2.616089c1.867798,-2.482178 4.092979,-4.770264 6.384148,-7.011536c3.288406,-3.251831 6.951149,-6.236572 10.724926,-9.130676c3.796089,-2.38269 6.73399,-5.251343 9.639553,-8.274231c2.659943,-3.271332 5.946842,-4.670593 10.661972,-3.345703c2.451572,0.989563 3.277309,2.83667 4.503738,4.640686c0.329542,0.210144 0.659027,0.420288 0.988573,0.630432c0.347593,0.221802 0.374115,0.307312 0.000326,0.500366l0,0c-0.407593,0.21051 -0.81518,0.420837 -1.222818,0.631287c-2.445265,1.1698 -5.312609,1.086731 -7.864431,0.031982c-0.832478,-1.501831 -2.953049,-1.042358 -4.855324,-0.752869c-4.562271,1.334961 -8.111397,3.450562 -11.41312,6.297607c-3.755608,2.880127 -7.400993,5.849976 -10.67345,9.086243c-2.273972,2.224182 -4.482933,4.494507 -6.33638,6.957886c-0.71093,0.919434 -1.555641,1.812378 -1.902489,2.867798c-0.228531,0.695251 -1.809242,-0.060547 -1.10582,-0.513184z" stroke-width="1px" fill-rule="nonzero" fill="#3f1f01" id="svg_1013"/>
     <path d="m-108.88723,514.480469c-1.049255,-0.072021 -2.106644,-0.173584 -3.16584,-0.232422c-3.276161,0.025146 -6.468307,0.796692 -9.569901,1.566833c-6.180336,1.997253 -11.658157,5.035034 -16.979599,8.176941c-7.234283,4.406921 -13.550552,9.648804 -18.349442,15.801453c-3.553436,4.365356 -0.208435,9.200073 -1.524612,13.624817c0.497925,0.582947 0.995804,1.165833 1.493729,1.748779c0.250137,0.292908 -0.274185,0.573486 -0.522934,0.279724l0,0c-0.516357,-0.609558 -1.032715,-1.218994 -1.549072,-1.828613c-6.211868,-3.775269 -2.535172,-9.904968 1.447632,-14.159546c5.115494,-6.053101 11.265167,-11.465149 18.628113,-15.867981c5.367249,-3.168213 10.893524,-6.229553 17.127594,-8.241882c3.108765,-1.151611 6.282478,-2.148865 9.666115,-2.663574c1.174469,-0.152039 2.423271,-0.311584 3.566635,-0.027893c1.562119,0.387512 1.362259,1.935547 -0.268417,1.823364z" stroke-width="1px" fill-rule="nonzero" fill="#3f1f01" id="svg_1014"/>
     <path d="m-80.875053,558.858398c1.092224,-0.936157 2.239853,-1.843079 3.448761,-2.689819c3.303398,-2.133545 6.151176,-4.601868 9.103905,-7.029846c3.0243,-3.146179 6.891323,-5.736755 10.536118,-8.427246c4.561787,-3.127197 8.615192,-3.944885 14.466042,-2.94458c0.825256,-0.49176 1.650513,-0.983521 2.475761,-1.475525c0.356606,-0.212524 0.735523,0.187622 0.378868,0.399963l0,0c-0.835445,0.49762 -1.670887,0.995239 -2.50639,1.492798c-1.402946,4.779907 -4.269001,7.150574 -10.054577,8.868408c-4.592724,1.183655 -8.987099,2.70636 -13.528511,3.99054c-3.774422,1.493835 -7.481094,3.030396 -10.426918,5.480652c-1.020805,0.906494 -2.022324,1.790894 -2.513618,2.962769c-0.354919,0.846436 -2.143372,0.026672 -1.37944,-0.628113z" stroke-width="1px" fill-rule="nonzero" fill="#3f1f01" id="svg_1015"/>
     <path d="m-21.045008,466.799927c-0.956766,-0.407654 -1.891226,-0.873962 -2.854839,-1.286224c-2.204979,-1.222626 -4.623289,-2.178162 -7.056963,-3.07605c-2.40839,-0.968201 -4.942913,-1.729309 -7.243828,-2.858124c-1.943718,-0.904327 -3.23645,-2.124573 -3.767036,-3.852661c0.35881,-2.614258 4.150372,-2.874359 6.789509,-3.25824c3.565401,-0.645782 7.206423,-0.591217 10.829496,-0.435547c2.525625,0.090485 4.837912,0.498138 6.732859,1.870026c1.881256,2.050842 -0.471025,3.332733 -2.866753,3.757141c-0.425159,0.134247 -0.850266,0.268372 -1.275425,0.402527c-0.414433,0.130829 -0.647282,-0.335236 -0.232416,-0.465118l0,0c0.404085,-0.126434 0.808172,-0.252899 1.212257,-0.379333c0.81814,-0.680847 1.533279,-1.259827 1.50913,-2.205872c-1.249931,-1.362762 -3.025759,-2.058014 -5.157595,-2.365143c-3.523895,-0.41568 -7.106976,-0.253235 -10.596918,0.306335c-1.964638,0.511047 -3.971584,0.984528 -4.913158,2.544769c0.300816,1.304047 1.159058,2.253662 2.555859,3.078033c2.187466,1.181763 4.503311,2.192871 6.919462,3.050842c2.400743,0.961426 4.818083,1.917969 7.345757,2.654114c1.079882,0.40329 2.262056,0.691956 3.184599,1.307373c1.022909,0.682251 0.063494,1.712677 -1.113997,1.211151z" stroke-width="1px" fill-rule="nonzero" fill="#3f1f01" id="svg_1016"/>
    </g>
   </g>
  </g>
 </g>
</svg>