<?xml version="1.0" encoding="UTF-8" standalone="no"?>
<svg
   xmlns:dc="http://purl.org/dc/elements/1.1/"
   xmlns:cc="http://creativecommons.org/ns#"
   xmlns:rdf="http://www.w3.org/1999/02/22-rdf-syntax-ns#"
   xmlns:svg="http://www.w3.org/2000/svg"
   xmlns="http://www.w3.org/2000/svg"
   xmlns:xlink="http://www.w3.org/1999/xlink"
   xmlns:sodipodi="http://sodipodi.sourceforge.net/DTD/sodipodi-0.dtd"
   xmlns:inkscape="http://www.inkscape.org/namespaces/inkscape"
   version="1.1"
   width="5662.5"
   height="3680.9"
   viewBox="-29668,-14192 56625,36809"
   id="svg2"
   sodipodi:version="0.32"
   inkscape:version="0.46"
   sodipodi:docname="Girl_Scout_Council_of_Hawaii_map.svg"
   inkscape:output_extension="org.inkscape.output.svg.inkscape">
  <metadata
     id="metadata41">
    <rdf:RDF>
      <cc:Work
         rdf:about="">
        <dc:format>image/svg+xml</dc:format>
        <dc:type
           rdf:resource="http://purl.org/dc/dcmitype/StillImage" />
      </cc:Work>
    </rdf:RDF>
  </metadata>
  <defs
     id="defs39">
    <inkscape:perspective
       sodipodi:type="inkscape:persp3d"
       inkscape:vp_x="0 : 1840.45 : 1"
       inkscape:vp_y="0 : 1000 : 0"
       inkscape:vp_z="5662.5 : 1840.45 : 1"
       inkscape:persp3d-origin="2831.25 : 1226.9666 : 1"
       id="perspective43" />
  </defs>
  <sodipodi:namedview
     inkscape:window-height="713"
     inkscape:window-width="640"
     inkscape:pageshadow="2"
     inkscape:pageopacity="0.0"
     guidetolerance="10.0"
     gridtolerance="10.0"
     objecttolerance="10.0"
     borderopacity="1.0"
     bordercolor="#666666"
     pagecolor="#ffffff"
     id="base"
     showgrid="false"
     inkscape:zoom="0.09589404"
     inkscape:cx="2831.25"
     inkscape:cy="1840.45"
     inkscape:window-x="59"
     inkscape:window-y="61"
     inkscape:current-layer="svg2" />
  <clipPath
     id="state_clip_path">
    <g
       id="state_outline">
      <path
         id="2841"
         d="M -24207,-13322 l 75,-10 107,-117 80,-5 46,-30 5,5 40,26 40,-5 127,-55 75,-56 71,-15 46,-67 156,-4 182,-152 136,-40 91,-92 86,-92 122,-81 176,-14 81,-66 125,93 60,97 50,42 80,67 115,36 116,6 41,-56 0,-51 -30,-11 21,-87 35,-10 91,-55 136,6 60,46 45,16 217,-25 70,57 35,0 30,-20 46,-51 35,5 121,-4 51,-77 75,52 5,41 35,0 25,31 40,-20 30,21 -25,51 146,11 35,36 40,31 60,-36 81,37 170,134 0,72 55,-10 100,67 85,129 -45,25 60,87 -11,41 30,67 -16,108 20,10 91,-15 30,46 29,175 -40,71 30,36 -21,82 -91,92 -5,25 -11,118 -153,286 15,41 -41,107 -90,5 -61,20 0,21 25,143 -22,231 29,184 -75,25 24,57 101,-46 11,11 -36,71 -16,46 25,139 -26,158 -26,16 -34,-52 -81,15 -25,-62 -30,5 -21,67 -10,15 -35,-20 -20,5 -41,56 25,36 66,5 30,-30 25,31 -35,30 9,36 15,21 -55,10 -30,25 4,36 -110,30 -36,72 -121,40 -11,72 -55,10 -21,25 30,72 -35,10 -75,-21 -36,5 -40,82 -46,5 -25,61 -71,5 -31,66 -80,20 -36,46 -45,0 -41,26 -20,66 -35,10 -50,-62 -126,-52 -136,-41 -40,-36 -40,-26 -101,30 -60,-52 -70,-26 -96,-5 -71,76 -146,-52 -45,36 -231,-109 -96,4 -20,-36 -30,5 -91,-31 6,-41 -61,-16 -15,10 -25,26 -21,82 -61,10 -19,-41 -80,-98 -66,-1 -75,-128 -80,-47 0,-36 -40,-15 -10,-36 -35,5 -20,-26 -19,-128 -46,-11 -85,-26 -55,-98 -40,-25 -126,-27 -131,10 -166,-37 -100,-124 -55,-21 -236,-42 -80,-88 -270,-350 -60,-77 -54,-160 76,-117 27,-185 31,-97 106,-56 66,-81 157,-112 91,-82 20,-51 26,-61 11,-103 61,-184 z" />
      <path
         id="2842"
         d="M -27998,-11973 l 20,-15 16,-21 20,5 0,31 -21,36 -35,41 -26,5 -30,-21 -4,-41 15,-46 z" />
      <path
         id="2843"
         d="M -27944,-11752 l 15,61 80,16 101,-76 45,46 95,134 -10,46 19,41 -10,46 -46,36 -45,-21 -40,30 -47,154 -81,61 -16,77 5,107 -26,67 -6,128 30,108 40,26 34,92 -81,92 -121,45 -26,41 -45,-10 -61,92 -86,-27 -131,31 -40,-31 -25,40 -81,15 -126,15 -132,148 -1,92 -66,92 -86,66 -113,179 -35,82 34,112 -26,52 -96,66 44,118 -81,66 -9,-51 -51,-1 -55,-21 -10,-56 -60,-31 -60,0 -80,-139 -95,-47 10,-51 10,-5 -80,-42 6,-97 31,-117 -24,-93 20,-66 87,-92 76,-123 11,-112 21,-51 31,-103 76,-30 101,-148 209,-209 136,-20 116,-45 25,-41 6,-15 -36,-26 106,-5 121,-40 218,-173 77,-112 11,-123 36,-123 46,-46 80,-5 66,-76 z" />
      <path
         id="2844"
         d="M -7133,-7451 l -40,-36 10,-107 76,-36 60,-51 96,-133 61,-41 61,-61 60,-92 126,-92 86,-10 15,-41 81,-20 -20,-41 131,-20 0,-41 91,5 40,46 86,-20 50,31 65,61 86,57 60,158 40,11 96,51 -45,15 5,16 25,56 40,16 15,41 55,102 86,11 -50,61 10,51 -36,97 -5,10 86,98 25,72 120,66 21,87 75,98 30,107 71,52 10,5 35,97 -5,87 20,26 10,15 75,-66 137,21 15,56 90,133 60,225 -20,149 -41,46 -90,0 -11,56 36,82 -21,41 15,41 46,0 0,123 30,41 -5,51 30,51 40,-31 86,47 0,51 86,5 10,56 60,77 -20,41 20,51 111,113 121,-15 15,56 50,92 96,-30 126,-200 -25,-41 -131,-41 -25,-51 25,-87 0,-5 91,-41 45,31 217,51 121,-97 41,36 -11,87 -131,61 -5,134 -15,92 -46,-6 0,57 61,92 60,61 20,6 162,30 90,180 -20,41 -26,163 21,97 90,185 141,118 91,10 55,51 101,46 35,87 81,-15 41,31 -41,123 -66,81 -338,245 -81,16 56,87 -132,25 -80,0 -10,-159 -56,-56 -35,-36 -45,41 -394,66 -86,51 -131,41 -71,92 -40,15 -46,-31 -141,5 -96,-46 -70,-174 -81,-56 -30,-46 -40,30 -41,-10 -20,-41 -40,-21 35,-56 -80,15 -121,-20 -5,-82 80,-61 -4,-92 -96,15 -66,-103 -60,41 -51,0 -30,-67 20,-35 5,-5 -35,-11 -101,46 -96,72 0,56 -51,56 -126,20 -55,-51 -222,-21 -30,-66 -35,-128 -36,-31 6,-82 25,-20 -10,-57 5,-20 41,-15 35,-52 50,-5 81,36 51,-25 -5,-61 -41,-16 15,-41 56,-56 -20,-77 -50,-10 -41,-72 -85,-31 -76,-5 -86,10 20,67 -5,66 -60,-36 -25,-25 -81,-57 -45,36 60,143 45,46 61,-15 70,144 -15,46 25,71 -15,5 -66,-87 -126,-41 0,-82 -25,0 -55,51 -76,-118 15,-20 -55,-21 -10,-76 -51,-6 -55,51 -10,26 25,36 10,36 -51,10 61,97 96,31 70,-30 56,25 40,51 91,16 85,123 35,128 5,46 -45,72 -308,91 -192,20 -368,86 -167,-15 -111,56 -187,4 -40,-5 -81,-87 -110,-215 -10,-143 -160,-405 -86,-77 -40,-107 -20,-16 -55,-46 -172,-77 -20,-36 -25,-154 -55,-128 -20,-36 -35,-66 10,-51 -106,-82 -20,-41 -65,-57 -71,20 -75,-199 -111,4 -9,-184 16,-430 -70,-123 -297,-256 -131,-134 212,-4 81,-26 136,-10 116,-25 136,5 31,-41 80,-30 131,57 136,-21 91,11 50,5 91,-5 81,11 141,-46 156,82 10,-76 91,-72 56,-36 -61,-56 26,-56 121,-62 101,-86 141,-113 z" />
      <path
         id="2845"
         d="M -6131,-4450 l 10,-30 31,-26 40,-15 51,-5 25,26 -16,30 -35,16 -25,15 -15,36 -36,25 -30,-36 z" />
      <path
         id="2846"
         d="M -5305,-3839 l -15,-31 5,-36 16,-10 30,21 75,46 16,25 -26,21 -30,5 -30,-5 -36,20 z" />
      <path
         id="2847"
         d="M 4722,-2275 l 44,12 41,41 131,36 35,-82 46,5 86,66 50,-30 81,-16 30,46 131,-10 91,-46 81,41 66,-21 60,-41 41,11 90,-67 86,-10 106,97 141,-82 116,-10 122,25 126,-36 66,72 -20,71 10,31 50,-10 101,0 187,-41 -61,209 -136,225 -60,0 -116,200 -137,102 -35,41 -91,92 -121,82 -85,82 -303,82 -76,61 -40,11 -81,56 -151,61 -41,-51 -45,16 -121,92 -142,-36 -121,-61 -409,-102 -166,-10 -182,-92 -344,-97 -156,0 -15,-62 -131,-112 -41,5 -45,-31 -91,-10 -51,-51 -181,-31 -46,26 -136,-15 -71,-82 -30,46 -363,112 -329,16 -90,-11 -81,16 -187,-21 -197,57 -86,-6 -302,41 -51,-41 -50,11 -384,-52 -40,11 -71,-133 40,-26 91,-225 21,-87 50,-46 30,-15 -5,-41 46,-92 86,-61 80,-6 31,-56 40,-10 86,-61 0,-82 50,-31 0,-92 36,-46 -36,-204 -101,-98 21,-46 40,-5 303,87 40,-35 56,10 40,-36 5,46 81,0 91,77 20,71 91,51 40,-15 81,15 136,-5 51,21 90,36 31,-41 90,20 81,-41 152,72 116,-16 20,-5 45,5 86,57 86,30 101,-5 80,31 228,10 141,26 66,5 55,5 101,36 81,-16 75,-77 6,-40 35,-92 0,-103 110,-102 46,15 81,82 111,220 25,143 51,41 171,71 41,-35 z" />
      <path
         id="2848"
         d="M 7530,-481 l 40,-20 70,-72 -45,-35 35,-108 56,10 96,-20 30,51 96,-46 -5,41 40,-5 96,-108 86,0 40,31 46,132 141,26 56,71 40,-35 56,30 25,164 15,0 26,-6 35,-51 61,128 65,71 81,16 46,102 -30,41 15,51 116,168 10,0 36,5 5,143 86,31 56,87 30,143 81,-5 40,30 31,123 56,87 45,0 25,-87 202,9 222,-102 182,-5 55,-47 152,-51 40,-36 81,-15 60,-82 91,-56 56,-1 15,-51 86,-10 35,25 15,-46 91,-66 81,5 45,25 40,-36 71,72 263,-57 146,117 86,-36 66,67 30,-46 56,10 101,35 101,36 5,51 -20,123 20,46 41,-36 90,15 31,87 167,122 5,41 -40,31 40,35 46,-15 45,36 76,25 61,46 86,30 5,92 101,41 121,-52 5,41 96,-20 71,76 5,26 26,86 -15,46 25,46 45,11 -4,81 35,0 30,31 41,-21 86,5 50,-56 56,20 40,-15 248,209 131,-11 46,41 146,20 81,56 96,25 81,82 36,10 5,61 40,-15 122,102 -5,46 35,56 41,-31 5,41 -40,30 -16,11 1,82 50,10 -25,46 26,40 -20,92 -66,82 36,41 0,46 -71,92 -5,87 -40,0 -70,189 -91,72 -167,31 -161,200 -126,133 -141,51 -86,-40 -172,163 -126,-10 -76,87 -45,1 -5,5 -116,102 -40,-10 -41,15 -96,6 -5,-41 -222,36 -91,-10 -81,-61 -5,-5 -81,-20 -212,51 -20,41 -31,15 -15,6 -76,51 -207,118 -45,-10 -146,112 -81,21 -41,-15 -91,25 -55,87 -187,26 -167,-30 -86,10 -81,36 -80,-15 -132,51 -86,51 -40,-5 -91,-61 -86,0 -91,21 -91,-36 -55,36 0,-76 -36,-97 -81,-62 -5,41 -46,26 -40,-20 -101,-143 15,-41 -5,-82 -122,-199 46,-15 40,-51 -1,-322 -45,-138 25,-87 -5,-15 -51,-138 5,-148 -71,-220 -6,-178 -5,-21 -51,-189 -76,-127 -217,-107 -106,-10 -40,25 -238,236 -40,0 -86,-41 -56,-97 -146,-61 -56,15 -182,-35 -81,-113 -151,-91 -66,-10 -157,30 -157,-296 -85,-20 -16,-21 -106,-142 -91,-51 -71,-154 -40,-10 -15,-56 -51,-102 35,-154 -20,-46 -76,-66 15,-87 -25,-87 5,-153 40,-158 10,-21 76,-179 101,-174 4,-61 36,-41 0,-56 91,5 25,-41 z" />
      <path
         id="2849"
         d="M 3728,401 l 116,0 81,-21 91,-5 212,61 80,-5 91,21 147,-11 101,11 126,66 177,51 116,92 56,92 96,56 50,82 101,25 76,92 167,143 182,255 86,174 5,148 -80,174 -76,71 -15,31 -71,153 -106,133 -81,-25 -86,20 -192,133 -85,21 -96,107 -36,-61 -121,51 -50,-15 -81,20 -51,-10 -35,41 -81,-36 -81,16 -35,40 -81,-40 -121,35 -76,-153 -71,-71 -10,-46 -61,-87 10,-46 0,-46 -60,-92 20,-41 20,-219 -35,-46 20,-67 0,-15 -5,-67 -81,-132 -20,-82 -81,-138 -127,-56 -70,-82 -91,-15 -41,20 -55,-41 -96,-112 -41,-102 21,-82 -11,-41 36,-133 50,-10 177,-123 91,-41 40,11 z" />
      <path
         id="2850"
         d="M 7803,4270 l 162,-71 90,-87 11,-5 151,-103 81,-15 40,5 61,10 212,122 1,41 80,87 26,132 -40,31 -41,-5 -25,97 -30,92 15,51 -25,41 20,41 91,-16 40,31 81,-5 -10,87 -126,173 -76,-56 -121,36 -91,-15 0,41 -40,20 -41,-15 -60,92 -51,-97 -46,-112 -40,30 -50,98 -97,-41 -136,46 -20,41 -40,-5 -81,51 5,-102 -41,-5 -15,-46 -40,112 -172,92 -46,-30 -40,15 -41,-41 -45,16 -15,-41 15,-46 -122,-56 -65,-82 60,-148 81,-51 35,-97 46,-5 20,-51 40,-21 217,-92 86,10 41,-87 86,-10 z" />
      <path
         id="2851"
         d="M 16056,7580 l 61,87 91,5 36,41 167,19 0,46 25,21 15,10 203,76 40,-36 142,81 101,20 16,97 20,10 35,21 122,20 20,56 -15,122 36,41 106,71 66,41 81,-11 158,153 101,-1 76,56 116,81 87,41 15,51 86,30 46,87 56,35 238,45 10,62 40,10 31,91 71,51 66,46 192,-88 96,-51 172,40 81,66 97,-5 96,51 96,71 20,-5 71,-11 46,36 40,-26 51,56 111,30 102,56 131,-26 137,81 86,-6 71,72 87,50 116,41 31,15 35,10 26,56 55,51 152,40 51,61 20,10 26,15 46,36 177,45 86,-5 56,50 5,5 35,16 157,40 67,117 75,-6 188,107 71,20 25,5 61,5 147,91 87,127 101,35 82,87 111,30 183,96 81,137 36,10 223,106 224,254 96,46 46,-26 56,178 41,10 96,92 51,153 0,10 92,40 50,66 87,25 15,87 66,66 26,92 -20,40 31,123 -45,97 10,56 0,5 -45,102 66,71 -19,128 25,96 -50,154 26,147 -5,41 47,265 16,46 91,-1 101,-77 15,-40 30,45 -5,56 76,-87 0,-46 40,-40 41,20 81,-26 91,35 91,-16 86,36 81,-1 5,-41 97,97 41,102 92,137 71,198 6,143 -50,117 41,194 -19,127 15,46 66,56 218,81 6,50 15,112 82,82 147,65 61,86 92,66 76,92 508,247 86,-1 168,127 142,60 173,157 -35,41 -91,6 10,86 -35,128 41,15 -85,184 -177,205 -424,318 -70,82 -137,97 -70,77 -41,10 -182,139 -80,137 -46,16 -156,174 -101,102 -167,118 -172,72 -106,62 -75,87 -208,87 -284,17 -81,41 -30,72 -70,86 -183,73 -80,76 -142,67 -40,66 -142,-29 -142,26 -30,86 -274,42 -51,-25 -50,51 -46,10 -40,-25 -107,36 -86,-15 -340,-136 -91,6 -82,-15 -55,31 -25,40 -56,-15 -187,37 -97,82 -45,56 -131,148 -192,118 -111,163 -142,108 -223,77 -91,92 -228,36 -81,87 -101,87 -126,138 -86,143 -91,51 -91,21 -96,-5 -51,31 -96,5 -173,103 16,96 -91,72 -46,0 -76,41 -55,102 -76,112 -66,11 -55,66 -29,418 -51,91 -177,133 -20,61 0,118 -86,61 10,41 -90,132 -15,87 -46,51 10,40 -55,26 -87,-25 -81,16 5,40 -40,158 -45,36 -41,-10 -5,96 -81,41 -91,57 -86,137 -61,-15 -60,67 -137,51 25,-51 -41,-92 5,-142 -132,-137 -127,-35 -153,-127 -162,-76 -127,-25 -102,-66 -56,-81 -249,-116 -137,-163 -127,-61 -40,26 -117,-45 -46,10 -101,-61 -82,10 -86,-40 -71,21 -40,-51 -122,-56 -16,-183 -71,-137 -46,0 -66,-158 -92,-25 -102,-376 25,-184 -15,-46 30,-45 0,-51 40,-21 0,-81 -46,15 25,-132 71,-138 -20,-51 30,-97 10,-188 40,-82 -11,-183 31,-87 -16,-101 10,-87 66,-132 4,-174 20,-40 0,-199 -26,-122 -5,-41 51,-92 5,-56 -11,-112 -138,-295 5,-91 -91,-51 5,-51 -36,-76 -66,-72 66,-96 -10,-56 -41,-5 -20,-46 -1,-92 -50,-20 -21,-148 -66,-198 50,-169 -10,-40 -92,-41 -91,6 -91,-51 5,-92 -51,-86 -21,-92 -66,-86 15,-62 46,-40 0,-123 -36,-51 15,-40 -91,-20 5,-87 45,-31 -15,-46 -51,-5 15,-81 -15,-77 -71,-106 -6,-123 -106,-157 -21,-107 -51,-133 -81,-15 -254,-101 -35,-138 40,-132 -51,-25 -15,-138 -46,15 -30,-61 -41,26 -36,-51 -41,-234 -96,-112 5,-61 91,-31 -10,-122 20,-97 -41,-174 35,-30 5,-66 96,-77 0,-61 45,-31 71,5 46,-72 91,-61 40,-102 71,-36 15,-56 86,-5 -10,-87 101,-112 75,-102 41,-11 50,-46 111,-41 127,-5 40,30 178,-26 -16,-127 10,-117 91,-36 15,-56 81,-42 0,-56 55,-71 61,-5 -15,-77 30,-66 50,-21 5,-112 41,-31 9,-66 71,-5 -5,-92 96,20 -10,-71 66,-67 25,-76 106,-108 101,-10 56,61 5,-5 15,-102 30,-102 35,-143 -6,-97 -5,-36 35,-87 -20,-96 -31,-46 -101,-168 -66,-107 -92,-61 -25,-112 -86,-41 -46,-117 -102,-173 -45,0 -46,-36 -16,-178 -112,-336 25,-103 -46,-239 -41,-20 -15,-41 15,-184 40,-133 19,-270 167,-164 126,-107 91,-47 86,-10 40,25 71,-25 z" />
    </g>
  </clipPath>
  <g
     stroke="black"
     fill="none"
     stroke-linejoin="round"
     stroke-width="90"
     clip-path="url(#state_clip_path)"
     id="g17">
    <use
       xlink:href="#state_outline"
       fill="white"
       stroke-width="396"
       id="use19" />
    <path
       id="Hawaii"
       d="M 16056,7580 l 61,87 91,5 36,41 167,19 0,46 25,21 15,10 203,76 40,-36 142,81 101,20 16,97 20,10 35,21 122,20 20,56 -15,122 36,41 106,71 66,41 81,-11 158,153 101,-1 76,56 116,81 87,41 15,51 86,30 46,87 56,35 238,45 10,62 40,10 31,91 71,51 66,46 192,-88 96,-51 172,40 81,66 97,-5 96,51 96,71 20,-5 71,-11 46,36 40,-26 51,56 111,30 102,56 131,-26 137,81 86,-6 71,72 87,50 116,41 31,15 35,10 26,56 55,51 152,40 51,61 20,10 26,15 46,36 177,45 86,-5 56,50 5,5 35,16 157,40 67,117 75,-6 188,107 71,20 25,5 61,5 147,91 87,127 101,35 82,87 111,30 183,96 81,137 36,10 223,106 224,254 96,46 46,-26 56,178 41,10 96,92 51,153 0,10 92,40 50,66 87,25 15,87 66,66 26,92 -20,40 31,123 -45,97 10,56 0,5 -45,102 66,71 -19,128 25,96 -50,154 26,147 -5,41 47,265 16,46 91,-1 101,-77 15,-40 30,45 -5,56 76,-87 0,-46 40,-40 41,20 81,-26 91,35 91,-16 86,36 81,-1 5,-41 97,97 41,102 92,137 71,198 6,143 -50,117 41,194 -19,127 15,46 66,56 218,81 6,50 15,112 82,82 147,65 61,86 92,66 76,92 508,247 86,-1 168,127 142,60 173,157 -35,41 -91,6 10,86 -35,128 41,15 -85,184 -177,205 -424,318 -70,82 -137,97 -70,77 -41,10 -182,139 -80,137 -46,16 -156,174 -101,102 -167,118 -172,72 -106,62 -75,87 -208,87 -284,17 -81,41 -30,72 -70,86 -183,73 -80,76 -142,67 -40,66 -142,-29 -142,26 -30,86 -274,42 -51,-25 -50,51 -46,10 -40,-25 -107,36 -86,-15 -340,-136 -91,6 -82,-15 -55,31 -25,40 -56,-15 -187,37 -97,82 -45,56 -131,148 -192,118 -111,163 -142,108 -223,77 -91,92 -228,36 -81,87 -101,87 -126,138 -86,143 -91,51 -91,21 -96,-5 -51,31 -96,5 -173,103 16,96 -91,72 -46,0 -76,41 -55,102 -76,112 -66,11 -55,66 -29,418 -51,91 -177,133 -20,61 0,118 -86,61 10,41 -90,132 -15,87 -46,51 10,40 -55,26 -87,-25 -81,16 5,40 -40,158 -45,36 -41,-10 -5,96 -81,41 -91,57 -86,137 -61,-15 -60,67 -137,51 25,-51 -41,-92 5,-142 -132,-137 -127,-35 -153,-127 -162,-76 -127,-25 -102,-66 -56,-81 -249,-116 -137,-163 -127,-61 -40,26 -117,-45 -46,10 -101,-61 -82,10 -86,-40 -71,21 -40,-51 -122,-56 -16,-183 -71,-137 -46,0 -66,-158 -92,-25 -102,-376 25,-184 -15,-46 30,-45 0,-51 40,-21 0,-81 -46,15 25,-132 71,-138 -20,-51 30,-97 10,-188 40,-82 -11,-183 31,-87 -16,-101 10,-87 66,-132 4,-174 20,-40 0,-199 -26,-122 -5,-41 51,-92 5,-56 -11,-112 -138,-295 5,-91 -91,-51 5,-51 -36,-76 -66,-72 66,-96 -10,-56 -41,-5 -20,-46 -1,-92 -50,-20 -21,-148 -66,-198 50,-169 -10,-40 -92,-41 -91,6 -91,-51 5,-92 -51,-86 -21,-92 -66,-86 15,-62 46,-40 0,-123 -36,-51 15,-40 -91,-20 5,-87 45,-31 -15,-46 -51,-5 15,-81 -15,-77 -71,-106 -6,-123 -106,-157 -21,-107 -51,-133 -81,-15 -254,-101 -35,-138 40,-132 -51,-25 -15,-138 -46,15 -30,-61 -41,26 -36,-51 -41,-234 -96,-112 5,-61 91,-31 -10,-122 20,-97 -41,-174 35,-30 5,-66 96,-77 0,-61 45,-31 71,5 46,-72 91,-61 40,-102 71,-36 15,-56 86,-5 -10,-87 101,-112 75,-102 41,-11 50,-46 111,-41 127,-5 40,30 178,-26 -16,-127 10,-117 91,-36 15,-56 81,-42 0,-56 55,-71 61,-5 -15,-77 30,-66 50,-21 5,-112 41,-31 9,-66 71,-5 -5,-92 96,20 -10,-71 66,-67 25,-76 106,-108 101,-10 56,61 5,-5 15,-102 30,-102 35,-143 -6,-97 -5,-36 35,-87 -20,-96 -31,-46 -101,-168 -66,-107 -92,-61 -25,-112 -86,-41 -46,-117 -102,-173 -45,0 -46,-36 -16,-178 -112,-336 25,-103 -46,-239 -41,-20 -15,-41 15,-184 40,-133 19,-270 167,-164 126,-107 91,-47 86,-10 40,25 71,-25 z" />
    <g
       id="Honolulu">
      <path
         id="6011"
         d="M -7133,-7451 l -40,-36 10,-107 76,-36 60,-51 96,-133 61,-41 61,-61 60,-92 126,-92 86,-10 15,-41 81,-20 -20,-41 131,-20 0,-41 91,5 40,46 86,-20 50,31 65,61 86,57 60,158 40,11 96,51 -45,15 5,16 25,56 40,16 15,41 55,102 86,11 -50,61 10,51 -36,97 -5,10 86,98 25,72 120,66 21,87 75,98 30,107 71,52 10,5 35,97 -5,87 20,26 10,15 75,-66 137,21 15,56 90,133 60,225 -20,149 -41,46 -90,0 -11,56 36,82 -21,41 15,41 46,0 0,123 30,41 -5,51 30,51 40,-31 86,47 0,51 86,5 10,56 60,77 -20,41 20,51 111,113 121,-15 15,56 50,92 96,-30 126,-200 -25,-41 -131,-41 -25,-51 25,-87 0,-5 91,-41 45,31 217,51 121,-97 41,36 -11,87 -131,61 -5,134 -15,92 -46,-6 0,57 61,92 60,61 20,6 162,30 90,180 -20,41 -26,163 21,97 90,185 141,118 91,10 55,51 101,46 35,87 81,-15 41,31 -41,123 -66,81 -338,245 -81,16 56,87 -132,25 -80,0 -10,-159 -56,-56 -35,-36 -45,41 -394,66 -86,51 -131,41 -71,92 -40,15 -46,-31 -141,5 -96,-46 -70,-174 -81,-56 -30,-46 -40,30 -41,-10 -20,-41 -40,-21 35,-56 -80,15 -121,-20 -5,-82 80,-61 -4,-92 -96,15 -66,-103 -60,41 -51,0 -30,-67 20,-35 5,-5 -35,-11 -101,46 -96,72 0,56 -51,56 -126,20 -55,-51 -222,-21 -30,-66 -35,-128 -36,-31 6,-82 25,-20 -10,-57 5,-20 41,-15 35,-52 50,-5 81,36 51,-25 -5,-61 -41,-16 15,-41 56,-56 -20,-77 -50,-10 -41,-72 -85,-31 -76,-5 -86,10 20,67 -5,66 -60,-36 -25,-25 -81,-57 -45,36 60,143 45,46 61,-15 70,144 -15,46 25,71 -15,5 -66,-87 -126,-41 0,-82 -25,0 -55,51 -76,-118 15,-20 -55,-21 -10,-76 -51,-6 -55,51 -10,26 25,36 10,36 -51,10 61,97 96,31 70,-30 56,25 40,51 91,16 85,123 35,128 5,46 -45,72 -308,91 -192,20 -368,86 -167,-15 -111,56 -187,4 -40,-5 -81,-87 -110,-215 -10,-143 -160,-405 -86,-77 -40,-107 -20,-16 -55,-46 -172,-77 -20,-36 -25,-154 -55,-128 -20,-36 -35,-66 10,-51 -106,-82 -20,-41 -65,-57 -71,20 -75,-199 -111,4 -9,-184 16,-430 -70,-123 -297,-256 -131,-134 212,-4 81,-26 136,-10 116,-25 136,5 31,-41 80,-30 131,57 136,-21 91,11 50,5 91,-5 81,11 141,-46 156,82 10,-76 91,-72 56,-36 -61,-56 26,-56 121,-62 101,-86 141,-113 z" />
      <path
         id="6012"
         d="M -6131,-4450 l 10,-30 31,-26 40,-15 51,-5 25,26 -16,30 -35,16 -25,15 -15,36 -36,25 -30,-36 z" />
      <path
         id="6013"
         d="M -5305,-3839 l -15,-31 5,-36 16,-10 30,21 75,46 16,25 -26,21 -30,5 -30,-5 -36,20 z" />
    </g>
    <path
       id="Kalawao"
       d="M 4722,-2275 l -56,135 40,-5 76,87 81,76 65,5 -45,31 0,26 10,15 5,15 -15,21 -10,51 5,26 -157,25 -65,-15 -76,-92 -96,-174 -30,-10 -5,-46 -61,66 -40,11 -51,-26 -65,-41 -21,0 -50,-51 -15,-10 -5,-41 -25,-67 -102,-35 -171,5 -35,15 -56,-25 0,-16 -70,-25 0,-92 55,5 101,36 81,-16 75,-77 6,-40 35,-92 0,-103 110,-102 46,15 81,82 111,220 25,143 51,41 171,71 41,-35 z" />
    <g
       id="Kauai">
      <path
         id="6008"
         d="M -24207,-13322 l 75,-10 107,-117 80,-5 46,-30 5,5 40,26 40,-5 127,-55 75,-56 71,-15 46,-67 156,-4 182,-152 136,-40 91,-92 86,-92 122,-81 176,-14 81,-66 125,93 60,97 50,42 80,67 115,36 116,6 41,-56 0,-51 -30,-11 21,-87 35,-10 91,-55 136,6 60,46 45,16 217,-25 70,57 35,0 30,-20 46,-51 35,5 121,-4 51,-77 75,52 5,41 35,0 25,31 40,-20 30,21 -25,51 146,11 35,36 40,31 60,-36 81,37 170,134 0,72 55,-10 100,67 85,129 -45,25 60,87 -11,41 30,67 -16,108 20,10 91,-15 30,46 29,175 -40,71 30,36 -21,82 -91,92 -5,25 -11,118 -153,286 15,41 -41,107 -90,5 -61,20 0,21 25,143 -22,231 29,184 -75,25 24,57 101,-46 11,11 -36,71 -16,46 25,139 -26,158 -26,16 -34,-52 -81,15 -25,-62 -30,5 -21,67 -10,15 -35,-20 -20,5 -41,56 25,36 66,5 30,-30 25,31 -35,30 9,36 15,21 -55,10 -30,25 4,36 -110,30 -36,72 -121,40 -11,72 -55,10 -21,25 30,72 -35,10 -75,-21 -36,5 -40,82 -46,5 -25,61 -71,5 -31,66 -80,20 -36,46 -45,0 -41,26 -20,66 -35,10 -50,-62 -126,-52 -136,-41 -40,-36 -40,-26 -101,30 -60,-52 -70,-26 -96,-5 -71,76 -146,-52 -45,36 -231,-109 -96,4 -20,-36 -30,5 -91,-31 6,-41 -61,-16 -15,10 -25,26 -21,82 -61,10 -19,-41 -80,-98 -66,-1 -75,-128 -80,-47 0,-36 -40,-15 -10,-36 -35,5 -20,-26 -19,-128 -46,-11 -85,-26 -55,-98 -40,-25 -126,-27 -131,10 -166,-37 -100,-124 -55,-21 -236,-42 -80,-88 -270,-350 -60,-77 -54,-160 76,-117 27,-185 31,-97 106,-56 66,-81 157,-112 91,-82 20,-51 26,-61 11,-103 61,-184 z" />
      <path
         id="6009"
         d="M -27998,-11973 l 20,-15 16,-21 20,5 0,31 -21,36 -35,41 -26,5 -30,-21 -4,-41 15,-46 z" />
      <path
         id="6010"
         d="M -27944,-11752 l 15,61 80,16 101,-76 45,46 95,134 -10,46 19,41 -10,46 -46,36 -45,-21 -40,30 -47,154 -81,61 -16,77 5,107 -26,67 -6,128 30,108 40,26 34,92 -81,92 -121,45 -26,41 -45,-10 -61,92 -86,-27 -131,31 -40,-31 -25,40 -81,15 -126,15 -132,148 -1,92 -66,92 -86,66 -113,179 -35,82 34,112 -26,52 -96,66 44,118 -81,66 -9,-51 -51,-1 -55,-21 -10,-56 -60,-31 -60,0 -80,-139 -95,-47 10,-51 10,-5 -80,-42 6,-97 31,-117 -24,-93 20,-66 87,-92 76,-123 11,-112 21,-51 31,-103 76,-30 101,-148 209,-209 136,-20 116,-45 25,-41 6,-15 -36,-26 106,-5 121,-40 218,-173 77,-112 11,-123 36,-123 46,-46 80,-5 66,-76 z" />
    </g>
    <g
       id="Maui">
      <path
         id="6014"
         d="M 3682,-2436 l 0,92 70,25 0,16 56,25 35,-15 171,-5 102,35 25,67 5,41 15,10 50,51 21,0 65,41 51,26 40,-11 61,-66 5,46 30,10 96,174 76,92 65,15 157,-25 -5,-26 10,-51 15,-21 -5,-15 -10,-15 0,-26 45,-31 -65,-5 -81,-76 -76,-87 -40,5 56,-135 44,12 41,41 131,36 35,-82 46,5 86,66 50,-30 81,-16 30,46 131,-10 91,-46 81,41 66,-21 60,-41 41,11 90,-67 86,-10 106,97 141,-82 116,-10 122,25 126,-36 66,72 -20,71 10,31 50,-10 101,0 187,-41 -61,209 -136,225 -60,0 -116,200 -137,102 -35,41 -91,92 -121,82 -85,82 -303,82 -76,61 -40,11 -81,56 -151,61 -41,-51 -45,16 -121,92 -142,-36 -121,-61 -409,-102 -166,-10 -182,-92 -344,-97 -156,0 -15,-62 -131,-112 -41,5 -45,-31 -91,-10 -51,-51 -181,-31 -46,26 -136,-15 -71,-82 -30,46 -363,112 -329,16 -90,-11 -81,16 -187,-21 -197,57 -86,-6 -302,41 -51,-41 -50,11 -384,-52 -40,11 -71,-133 40,-26 91,-225 21,-87 50,-46 30,-15 -5,-41 46,-92 86,-61 80,-6 31,-56 40,-10 86,-61 0,-82 50,-31 0,-92 36,-46 -36,-204 -101,-98 21,-46 40,-5 303,87 40,-35 56,10 40,-36 5,46 81,0 91,77 20,71 91,51 40,-15 81,15 136,-5 51,21 90,36 31,-41 90,20 81,-41 152,72 116,-16 20,-5 45,5 86,57 86,30 101,-5 80,31 228,10 141,26 z" />
      <path
         id="6016"
         d="M 7530,-481 l 40,-20 70,-72 -45,-35 35,-108 56,10 96,-20 30,51 96,-46 -5,41 40,-5 96,-108 86,0 40,31 46,132 141,26 56,71 40,-35 56,30 25,164 15,0 26,-6 35,-51 61,128 65,71 81,16 46,102 -30,41 15,51 116,168 10,0 36,5 5,143 86,31 56,87 30,143 81,-5 40,30 31,123 56,87 45,0 25,-87 202,9 222,-102 182,-5 55,-47 152,-51 40,-36 81,-15 60,-82 91,-56 56,-1 15,-51 86,-10 35,25 15,-46 91,-66 81,5 45,25 40,-36 71,72 263,-57 146,117 86,-36 66,67 30,-46 56,10 101,35 101,36 5,51 -20,123 20,46 41,-36 90,15 31,87 167,122 5,41 -40,31 40,35 46,-15 45,36 76,25 61,46 86,30 5,92 101,41 121,-52 5,41 96,-20 71,76 5,26 26,86 -15,46 25,46 45,11 -4,81 35,0 30,31 41,-21 86,5 50,-56 56,20 40,-15 248,209 131,-11 46,41 146,20 81,56 96,25 81,82 36,10 5,61 40,-15 122,102 -5,46 35,56 41,-31 5,41 -40,30 -16,11 1,82 50,10 -25,46 26,40 -20,92 -66,82 36,41 0,46 -71,92 -5,87 -40,0 -70,189 -91,72 -167,31 -161,200 -126,133 -141,51 -86,-40 -172,163 -126,-10 -76,87 -45,1 -5,5 -116,102 -40,-10 -41,15 -96,6 -5,-41 -222,36 -91,-10 -81,-61 -5,-5 -81,-20 -212,51 -20,41 -31,15 -15,6 -76,51 -207,118 -45,-10 -146,112 -81,21 -41,-15 -91,25 -55,87 -187,26 -167,-30 -86,10 -81,36 -80,-15 -132,51 -86,51 -40,-5 -91,-61 -86,0 -91,21 -91,-36 -55,36 0,-76 -36,-97 -81,-62 -5,41 -46,26 -40,-20 -101,-143 15,-41 -5,-82 -122,-199 46,-15 40,-51 -1,-322 -45,-138 25,-87 -5,-15 -51,-138 5,-148 -71,-220 -6,-178 -5,-21 -51,-189 -76,-127 -217,-107 -106,-10 -40,25 -238,236 -40,0 -86,-41 -56,-97 -146,-61 -56,15 -182,-35 -81,-113 -151,-91 -66,-10 -157,30 -157,-296 -85,-20 -16,-21 -106,-142 -91,-51 -71,-154 -40,-10 -15,-56 -51,-102 35,-154 -20,-46 -76,-66 15,-87 -25,-87 5,-153 40,-158 10,-21 76,-179 101,-174 4,-61 36,-41 0,-56 91,5 25,-41 z" />
      <path
         id="6017"
         d="M 3728,401 l 116,0 81,-21 91,-5 212,61 80,-5 91,21 147,-11 101,11 126,66 177,51 116,92 56,92 96,56 50,82 101,25 76,92 167,143 182,255 86,174 5,148 -80,174 -76,71 -15,31 -71,153 -106,133 -81,-25 -86,20 -192,133 -85,21 -96,107 -36,-61 -121,51 -50,-15 -81,20 -51,-10 -35,41 -81,-36 -81,16 -35,40 -81,-40 -121,35 -76,-153 -71,-71 -10,-46 -61,-87 10,-46 0,-46 -60,-92 20,-41 20,-219 -35,-46 20,-67 0,-15 -5,-67 -81,-132 -20,-82 -81,-138 -127,-56 -70,-82 -91,-15 -41,20 -55,-41 -96,-112 -41,-102 21,-82 -11,-41 36,-133 50,-10 177,-123 91,-41 40,11 z" />
      <path
         id="6018"
         d="M 7803,4270 l 162,-71 90,-87 11,-5 151,-103 81,-15 40,5 61,10 212,122 1,41 80,87 26,132 -40,31 -41,-5 -25,97 -30,92 15,51 -25,41 20,41 91,-16 40,31 81,-5 -10,87 -126,173 -76,-56 -121,36 -91,-15 0,41 -40,20 -41,-15 -60,92 -51,-97 -46,-112 -40,30 -50,98 -97,-41 -136,46 -20,41 -40,-5 -81,51 5,-102 -41,-5 -15,-46 -40,112 -172,92 -46,-30 -40,15 -41,-41 -45,16 -15,-41 15,-46 -122,-56 -65,-82 60,-148 81,-51 35,-97 46,-5 20,-51 40,-21 217,-92 86,10 41,-87 86,-10 z" />
    </g>
  </g>
  <g
     id="hawaiicouncil"
     style="fill:#ffff00;fill-opacity:0.5;stroke:none">
    <use
       xlink:href="#Hawaii"
       id="use2458"
       x="0"
       y="0"
       width="56625"
       height="36809" />
    <use
       xlink:href="#Maui"
       id="use2460"
       x="0"
       y="0"
       width="56625"
       height="36809" />
    <use
       xlink:href="#Kauai"
       id="use2462"
       x="0"
       y="0"
       width="56625"
       height="36809" />
    <use
       xlink:href="#Honolulu"
       id="use2464"
       x="0"
       y="0"
       width="56625"
       height="36809" />
    <use
       xlink:href="#Kalawao"
       id="use2466"
       x="0"
       y="0"
       width="56625"
       height="36809" />
  </g>
  <text
     xml:space="preserve"
     style="font-size:2440.00006473px;font-style:normal;font-variant:normal;font-weight:bold;font-stretch:normal;text-align:center;line-height:125%;writing-mode:lr;text-anchor:middle;fill:#000000;fill-opacity:1;stroke:none;stroke-width:1px;stroke-linecap:butt;stroke-linejoin:miter;stroke-opacity:1;font-family:Bitstream Vera Sans;-inkscape-font-specification:Bitstream Vera Sans Bold"
     x="-9228.7744"
     y="7496.1436"
     id="text2416"
     sodipodi:linespacing="125%"><tspan
       sodipodi:role="line"
       id="tspan3285">Girl Scout Council </tspan><tspan
       sodipodi:role="line"
       id="tspan3287">of Hawaii</tspan></text>
  <path
     sodipodi:type="arc"
     style="opacity:1;fill:#008000;fill-opacity:1;fill-rule:nonzero;stroke:none;stroke-width:7.64200020000000002;stroke-miterlimit:4;stroke-dasharray:none;stroke-dashoffset:0;stroke-opacity:1"
     id="path2473"
     sodipodi:cx="-5370.3481"
     sodipodi:cy="-15758.691"
     sodipodi:rx="729.97253"
     sodipodi:ry="938.53589"
     d="M -4640.3756,-15758.691 A 729.97253,938.53589 0 1 1 -6100.3207,-15758.691 A 729.97253,938.53589 0 1 1 -4640.3756,-15758.691 z"
     transform="matrix(0.6428572,0,0,0.6111111,12837.89,10087.436)" />
  <path
     sodipodi:type="arc"
     style="opacity:1;fill:#008000;fill-opacity:1;fill-rule:nonzero;stroke:none;stroke-width:7.64200020000000002;stroke-miterlimit:4;stroke-dasharray:none;stroke-dashoffset:0;stroke-opacity:1"
     id="path3245"
     sodipodi:cx="-5370.3481"
     sodipodi:cy="-15758.691"
     sodipodi:rx="729.97253"
     sodipodi:ry="938.53589"
     d="M -4640.3756,-15758.691 A 729.97253,938.53589 0 1 1 -6100.3207,-15758.691 A 729.97253,938.53589 0 1 1 -4640.3756,-15758.691 z"
     transform="matrix(0.6428572,0,0,0.6111111,-17351.683,-1644.2642)" />
  <text
     xml:space="preserve"
     style="font-size:2000px;font-style:normal;font-variant:normal;font-weight:normal;font-stretch:normal;text-align:center;line-height:125%;writing-mode:lr-tb;text-anchor:middle;fill:#000000;fill-opacity:1;stroke:none;stroke-width:1px;stroke-linecap:butt;stroke-linejoin:miter;stroke-opacity:1;font-family:Bitstream Vera Sans;-inkscape-font-specification:Bitstream Vera Sans"
     x="12684.729"
     y="-627.50574"
     id="text3247"
     sodipodi:linespacing="125%"><tspan
       sodipodi:role="line"
       id="tspan3253"
       x="12684.729"
       y="-627.50574">Wailuku</tspan></text>
  <text
     xml:space="preserve"
     style="font-size:2000px;font-style:normal;font-variant:normal;font-weight:normal;font-stretch:normal;text-align:center;line-height:125%;writing-mode:lr-tb;text-anchor:middle;fill:#000000;fill-opacity:1;stroke:none;stroke-width:1px;stroke-linecap:butt;stroke-linejoin:miter;stroke-opacity:1;font-family:Bitstream Vera Sans;-inkscape-font-specification:Bitstream Vera Sans"
     x="-16887.031"
     y="-10528.97"
     id="text3255"
     sodipodi:linespacing="125%"><tspan
       sodipodi:role="line"
       id="tspan3259"
       x="-16887.031"
       y="-10528.97">Lihue</tspan></text>
  <path
     sodipodi:type="arc"
     style="opacity:1;fill:#008000;fill-opacity:1;fill-rule:nonzero;stroke:none;stroke-width:7.64200020000000002;stroke-miterlimit:4;stroke-dasharray:none;stroke-dashoffset:0;stroke-opacity:1"
     id="path3261"
     sodipodi:cx="-5370.3481"
     sodipodi:cy="-15758.691"
     sodipodi:rx="729.97253"
     sodipodi:ry="938.53589"
     d="M -4640.3756,-15758.691 A 729.97253,938.53589 0 1 1 -6100.3207,-15758.691 A 729.97253,938.53589 0 1 1 -4640.3756,-15758.691 z"
     transform="matrix(0.6428572,0,0,0.6111111,27906.606,24530.46)" />
  <text
     xml:space="preserve"
     style="font-size:2000px;font-style:normal;font-variant:normal;font-weight:normal;font-stretch:normal;text-align:center;line-height:125%;writing-mode:lr-tb;text-anchor:middle;fill:#000000;fill-opacity:1;stroke:none;stroke-width:1px;stroke-linecap:butt;stroke-linejoin:miter;stroke-opacity:1;font-family:Bitstream Vera Sans;-inkscape-font-specification:Bitstream Vera Sans"
     x="23364.547"
     y="17209.982"
     id="text3263"
     sodipodi:linespacing="125%"><tspan
       sodipodi:role="line"
       id="tspan3267"
       x="23364.547"
       y="17209.982">Keaau</tspan></text>
  <path
     sodipodi:type="arc"
     style="opacity:1;fill:#008000;fill-opacity:1;fill-rule:nonzero;stroke:none;stroke-width:7.64200020000000002;stroke-miterlimit:4;stroke-dasharray:none;stroke-dashoffset:0;stroke-opacity:1"
     id="path3269"
     sodipodi:cx="-5370.3481"
     sodipodi:cy="-15758.691"
     sodipodi:rx="729.97253"
     sodipodi:ry="938.53589"
     d="M -4640.3756,-15758.691 A 729.97253,938.53589 0 1 1 -6100.3207,-15758.691 A 729.97253,938.53589 0 1 1 -4640.3756,-15758.691 z"
     transform="matrix(0.6428572,0,0,0.6111111,18104.119,24426.178)" />
  <text
     xml:space="preserve"
     style="font-size:2000px;font-style:normal;font-variant:normal;font-weight:normal;font-stretch:normal;text-align:center;line-height:125%;writing-mode:lr-tb;text-anchor:middle;fill:#000000;fill-opacity:1;stroke:none;stroke-width:1px;stroke-linecap:butt;stroke-linejoin:miter;stroke-opacity:1;font-family:Bitstream Vera Sans;-inkscape-font-specification:Bitstream Vera Sans"
     x="8075.6533"
     y="15823.556"
     id="text3271"
     sodipodi:linespacing="125%"><tspan
       sodipodi:role="line"
       id="tspan3275"
       x="8075.6533"
       y="15823.556">Kailua-Kona</tspan></text>
  <path
     sodipodi:type="star"
     style="opacity:1;fill:#009004;fill-opacity:1;fill-rule:nonzero;stroke:none;stroke-width:7.6420002;stroke-miterlimit:4;stroke-dasharray:none;stroke-dashoffset:0;stroke-opacity:1"
     id="path3289"
     sodipodi:sides="5"
     sodipodi:cx="-1511.9227"
     sodipodi:cy="-18157.172"
     sodipodi:r1="1306.6469"
     sodipodi:r2="653.32343"
     sodipodi:arg1="1.0714496"
     sodipodi:arg2="1.6997681"
     inkscape:flatsided="false"
     inkscape:rounded="0"
     inkscape:randomized="0"
     d="M -886.2321,-17010.072 L -1595.9496,-17509.275 L -2409.5301,-17207.631 L -2154.0755,-18036.875 L -2692.3652,-18717.423 L -1824.7681,-18730.722 L -1343.8689,-19452.967 L -1063.119,-18631.942 L -227.61725,-18397.766 L -921.70146,-17877.046 L -886.2321,-17010.072 z"
     transform="translate(-4692.6797,13869.476)" />
  <text
     xml:space="preserve"
     style="font-size:2000px;font-style:normal;font-variant:normal;font-weight:normal;font-stretch:normal;text-align:center;line-height:125%;writing-mode:lr-tb;text-anchor:middle;fill:#000000;fill-opacity:1;stroke:none;stroke-width:1px;stroke-linecap:butt;stroke-linejoin:miter;stroke-opacity:1;font-family:Bitstream Vera Sans;-inkscape-font-specification:Bitstream Vera Sans"
     x="-8023.0811"
     y="-1560.7373"
     id="text3293"
     sodipodi:linespacing="125%"><tspan
       sodipodi:role="line"
       id="tspan3297"
       x="-8023.0811"
       y="-1560.7373">Honolulu</tspan></text>
  <path
     sodipodi:type="star"
     style="opacity:1;fill:#008000;fill-opacity:1;fill-rule:nonzero;stroke:#da00d1;stroke-width:17;stroke-miterlimit:4;stroke-dasharray:none;stroke-dashoffset:0;stroke-opacity:1"
     id="path2432"
     sodipodi:sides="3"
     sodipodi:cx="3702.166"
     sodipodi:cy="-9710.3486"
     sodipodi:r1="1306.6469"
     sodipodi:r2="653.32343"
     sodipodi:arg1="0.49934672"
     sodipodi:arg2="1.5465443"
     inkscape:flatsided="true"
     inkscape:rounded="0"
     inkscape:randomized="0"
     d="M 4849.2655,-9084.658 L 2586.7523,-9029.7767 L 3670.4802,-11016.611 L 4849.2655,-9084.658 z"
     transform="translate(6674.0333,11158.149)" />
  <text
     xml:space="preserve"
     style="font-size:2000px;font-style:normal;font-variant:normal;font-weight:normal;font-stretch:normal;text-align:center;line-height:125%;writing-mode:lr-tb;text-anchor:middle;fill:#000000;fill-opacity:1;stroke:none;stroke-width:1px;stroke-linecap:butt;stroke-linejoin:miter;stroke-opacity:1;font-family:Bitstream Vera Sans;-inkscape-font-specification:Bitstream Vera Sans"
     x="18360.207"
     y="2401.9695"
     id="text2434"
     sodipodi:linespacing="125%"><tspan
       sodipodi:role="line"
       id="tspan2438"
       x="18360.207"
       y="2401.9695">Camp Piiholo</tspan></text>
  <path
     sodipodi:type="star"
     style="opacity:1;fill:#008000;fill-opacity:1;fill-rule:nonzero;stroke:#da00d1;stroke-width:17;stroke-miterlimit:4;stroke-dasharray:none;stroke-dashoffset:0;stroke-opacity:1"
     id="path2444"
     sodipodi:sides="3"
     sodipodi:cx="3702.166"
     sodipodi:cy="-9710.3486"
     sodipodi:r1="1306.6469"
     sodipodi:r2="653.32343"
     sodipodi:arg1="0.49934672"
     sodipodi:arg2="1.5465443"
     inkscape:flatsided="true"
     inkscape:rounded="0"
     inkscape:randomized="0"
     d="M 4849.2655,-9084.658 L 2586.7523,-9029.7767 L 3670.4802,-11016.611 L 4849.2655,-9084.658 z"
     transform="translate(15730.704,22629.144)" />
  <text
     xml:space="preserve"
     style="font-size:2000px;font-style:normal;font-variant:normal;font-weight:normal;font-stretch:normal;text-align:center;line-height:125%;writing-mode:lr-tb;text-anchor:middle;fill:#000000;fill-opacity:1;stroke:none;stroke-width:1px;stroke-linecap:butt;stroke-linejoin:miter;stroke-opacity:1;font-family:Bitstream Vera Sans;-inkscape-font-specification:Bitstream Vera Sans"
     x="18612.506"
     y="11072.072"
     id="text2446"
     sodipodi:linespacing="125%"><tspan
       sodipodi:role="line"
       id="tspan2450"
       x="18612.506"
       y="11072.072">Camp Kilohana</tspan></text>
  <path
     sodipodi:type="star"
     style="opacity:1;fill:#008000;fill-opacity:1;fill-rule:nonzero;stroke:#da00d1;stroke-width:17;stroke-miterlimit:4;stroke-dasharray:none;stroke-dashoffset:0;stroke-opacity:1"
     id="path2452"
     sodipodi:sides="3"
     sodipodi:cx="3702.166"
     sodipodi:cy="-9710.3486"
     sodipodi:r1="1306.6469"
     sodipodi:r2="653.32343"
     sodipodi:arg1="0.49934672"
     sodipodi:arg2="1.5465443"
     inkscape:flatsided="true"
     inkscape:rounded="0"
     inkscape:randomized="0"
     d="M 4849.2655,-9084.658 L 2586.7523,-9029.7767 L 3670.4802,-11016.611 L 4849.2655,-9084.658 z"
     transform="translate(-11382.556,3128.4528)" />
  <text
     xml:space="preserve"
     style="font-size:2000px;font-style:normal;font-variant:normal;font-weight:normal;font-stretch:normal;text-align:center;line-height:125%;writing-mode:lr-tb;text-anchor:middle;fill:#000000;fill-opacity:1;stroke:none;stroke-width:1px;stroke-linecap:butt;stroke-linejoin:miter;stroke-opacity:1;font-family:Bitstream Vera Sans;-inkscape-font-specification:Bitstream Vera Sans"
     x="-2452.4116"
     y="-8011.4917"
     id="text2454"
     sodipodi:linespacing="125%"><tspan
       sodipodi:role="line"
       id="tspan2458"
       x="-2452.4116"
       y="-8011.4917">Camp Paumalu</tspan></text>
</svg>
