<?xml version="1.0" standalone="no"?>
<!DOCTYPE svg PUBLIC "-//W3C//DTD SVG 20010904//EN"
 "http://www.w3.org/TR/2001/REC-SVG-20010904/DTD/svg10.dtd">
<svg version="1.0" xmlns="http://www.w3.org/2000/svg"
 width="1666.000000pt" height="1666.000000pt" viewBox="0 0 1666.000000 1666.000000"
 preserveAspectRatio="xMidYMid meet">
<metadata>
Created by potrace 1.12, written by Peter Selinger 2001-2015
</metadata>
<g transform="translate(0.000000,1666.000000) scale(0.100000,-0.100000)"
fill="#000000" stroke="none">
<path d="M9985 14539 c-77 -15 -160 -35 -185 -43 -25 -8 -64 -17 -88 -21 -23
-4 -48 -12 -55 -18 -6 -7 -28 -13 -47 -15 -47 -3 -143 -27 -210 -53 -30 -11
-82 -27 -115 -35 -33 -8 -76 -19 -95 -24 -64 -16 -204 -48 -345 -80 -77 -17
-153 -35 -170 -39 -16 -5 -57 -14 -90 -20 -33 -6 -94 -18 -135 -27 -192 -40
-305 -60 -440 -75 -111 -12 -295 -41 -370 -58 -25 -6 -74 -15 -110 -20 -36 -6
-132 -22 -215 -36 -82 -15 -202 -35 -265 -45 -63 -10 -128 -23 -145 -28 -16
-6 -62 -13 -102 -16 -81 -7 -104 -13 -102 -30 4 -33 -6 -52 -51 -98 -27 -28
-50 -54 -50 -58 0 -4 -9 -10 -20 -13 -11 -3 -20 -12 -20 -20 0 -8 -10 -17 -22
-21 -13 -3 -46 -27 -73 -53 -44 -42 -131 -117 -188 -163 -27 -22 -225 -219
-278 -277 -25 -27 -53 -52 -62 -56 -9 -3 -17 -13 -17 -22 0 -8 -3 -15 -7 -15
-8 0 -44 -31 -133 -113 -79 -74 -142 -113 -400 -250 -63 -33 -144 -91 -359
-256 -18 -14 -66 -52 -106 -83 -40 -32 -77 -58 -83 -58 -5 0 -12 -8 -14 -18
-3 -9 -29 -30 -59 -46 -30 -16 -80 -49 -111 -73 -31 -24 -61 -43 -67 -43 -6 0
-11 -3 -11 -7 0 -5 -20 -16 -44 -26 -25 -10 -55 -28 -69 -40 -45 -41 -180
-162 -201 -180 -11 -10 -33 -21 -49 -24 -15 -3 -30 -10 -33 -14 -3 -5 -18 -9
-34 -9 -38 0 -46 -29 -31 -113 6 -34 16 -147 21 -252 6 -104 14 -230 20 -280
5 -49 14 -146 20 -215 5 -69 15 -159 20 -200 12 -93 53 -591 49 -605 -2 -6 0
-41 4 -80 4 -38 9 -133 12 -210 3 -77 10 -210 15 -295 6 -85 13 -200 16 -255
3 -55 10 -138 15 -185 18 -160 41 -435 43 -505 1 -39 6 -77 11 -85 5 -8 9 -55
9 -105 l1 -92 60 -58 c55 -54 114 -130 115 -147 0 -9 28 -45 53 -67 9 -8 17
-21 17 -28 0 -7 4 -13 10 -13 5 0 32 -28 60 -62 28 -35 70 -85 93 -112 23 -27
45 -56 49 -65 3 -9 30 -43 58 -76 29 -33 69 -83 91 -112 21 -29 49 -62 62 -75
12 -13 34 -39 47 -58 27 -39 56 -74 83 -102 10 -10 25 -31 35 -47 9 -15 37
-51 62 -80 116 -136 154 -183 165 -202 16 -29 138 -184 147 -187 4 -2 8 -8 8
-12 0 -5 15 -24 34 -42 18 -18 39 -44 46 -57 15 -29 17 -32 70 -91 22 -25 40
-48 40 -52 0 -4 6 -13 13 -20 6 -7 32 -40 56 -73 25 -33 49 -62 53 -63 5 -2
24 -27 42 -55 19 -29 46 -64 60 -79 14 -15 26 -29 26 -32 0 -3 10 -16 23 -28
12 -13 50 -55 85 -93 35 -39 87 -95 116 -126 30 -31 55 -60 57 -65 5 -11 86
-64 98 -64 5 0 23 -8 39 -17 27 -15 36 -16 78 -5 27 7 179 19 339 27 159 8
380 21 490 30 110 8 238 17 285 20 123 8 392 35 410 41 8 3 76 10 150 15 74 5
160 12 191 15 l56 6 11 -44 c14 -53 23 -255 42 -908 14 -518 13 -667 -6 -674
-8 -3 -61 -8 -117 -11 -60 -4 -107 -11 -114 -18 -7 -7 -17 -34 -22 -60 -7 -37
-6 -47 5 -47 8 0 14 -4 14 -10 0 -14 47 -58 82 -76 20 -10 43 -14 64 -10 19 3
50 9 69 12 l36 6 -3 -468 c-1 -258 -5 -604 -9 -769 -7 -292 -6 -301 14 -338
12 -22 26 -36 34 -33 7 3 13 1 13 -4 0 -4 14 -11 31 -15 38 -8 104 20 117 50
40 88 40 84 53 366 13 264 13 265 11 324 -4 97 6 906 10 910 14 14 395 65 485
65 l50 0 7 -46 c3 -26 6 -80 6 -121 0 -41 4 -138 10 -216 5 -78 11 -187 14
-242 8 -156 36 -527 41 -555 2 -14 9 -153 15 -310 12 -296 17 -330 57 -330 9
0 24 -6 32 -14 22 -18 96 -27 114 -12 36 28 46 118 29 251 -7 50 -17 158 -22
240 -11 161 -15 205 -30 360 -5 55 -12 156 -15 225 -2 69 -7 186 -10 260 -5
109 -8 474 -6 528 1 8 21 12 66 12 37 0 65 4 65 10 0 6 5 10 11 10 7 0 23 12
36 28 20 22 23 35 20 70 -7 68 -78 122 -162 122 -45 0 -47 13 -40 243 8 291
14 446 30 792 4 101 24 311 33 349 10 41 36 55 60 33 43 -39 102 -13 137 61
15 31 33 61 40 66 8 6 27 28 42 48 172 227 302 366 673 718 84 80 179 170 210
200 32 30 122 116 201 190 79 74 256 245 393 380 136 135 290 286 340 335 50
50 141 135 201 190 154 141 246 228 259 243 6 7 20 21 30 30 63 54 146 144
146 157 0 9 -5 26 -12 38 -19 36 -20 121 -3 230 15 103 25 188 70 622 13 132
29 278 35 325 6 47 15 126 20 175 5 50 14 133 21 185 6 52 12 115 14 140 3 25
9 81 15 125 6 44 19 168 30 275 11 107 24 222 30 255 5 33 17 116 25 185 8 69
22 166 30 215 24 150 34 259 24 270 -5 5 -9 27 -9 50 -1 22 -7 51 -15 65 -8
14 -15 36 -15 50 0 15 -17 42 -43 70 -24 25 -48 52 -53 62 -5 9 -28 37 -51 62
-24 24 -43 47 -43 50 0 4 -27 34 -60 67 -32 34 -60 65 -62 69 -4 9 -174 195
-245 267 -29 29 -53 55 -53 59 0 3 -24 29 -52 57 -65 63 -134 138 -224 243
-38 43 -74 85 -81 92 -7 7 -13 16 -13 20 0 4 -21 30 -46 57 -25 28 -59 69 -75
93 -16 23 -34 42 -39 42 -6 0 -10 6 -10 13 0 7 -10 22 -22 33 -13 11 -32 33
-43 48 -11 16 -24 33 -30 40 -5 6 -25 29 -44 51 -41 48 -167 190 -198 222 -12
12 -26 29 -30 37 -4 8 -58 67 -119 133 -160 170 -184 197 -184 211 0 6 -5 12
-11 12 -12 0 -39 25 -39 36 0 3 -30 38 -67 77 -38 39 -78 81 -90 94 -13 13
-23 27 -23 31 0 4 -14 16 -30 27 -16 11 -30 23 -30 27 0 4 -18 24 -41 45 -35
32 -71 70 -114 117 -14 15 -107 126 -125 149 -31 39 -61 67 -73 66 -7 -1 -75
-14 -152 -30z m246 -471 c13 -17 29 -36 34 -42 6 -6 29 -34 50 -61 22 -28 57
-68 77 -90 82 -89 118 -130 118 -137 0 -5 7 -8 15 -8 8 0 15 -3 15 -7 0 -5 14
-24 30 -43 43 -49 130 -147 165 -185 17 -17 39 -43 49 -56 18 -23 135 -158
146 -169 3 -3 17 -21 31 -40 15 -19 35 -45 45 -56 11 -12 30 -36 44 -55 39
-52 132 -162 160 -189 14 -14 41 -45 60 -70 19 -24 42 -52 50 -61 14 -15 65
-73 175 -198 23 -25 61 -71 85 -101 25 -30 65 -77 91 -105 63 -67 88 -95 129
-146 38 -47 77 -86 220 -224 87 -84 91 -90 68 -96 -13 -3 -134 -7 -268 -8
-134 -1 -247 -4 -251 -7 -4 -2 -50 -9 -101 -14 -101 -10 -430 -43 -598 -60
-58 -6 -163 -17 -235 -25 -71 -8 -161 -17 -200 -20 -38 -4 -119 -13 -180 -20
-60 -8 -137 -15 -169 -16 l-59 -3 3 70 c1 38 4 83 5 99 8 110 16 261 20 390
13 361 18 444 51 855 8 102 19 226 24 275 6 50 12 126 15 170 10 147 36 427
42 456 7 37 14 36 44 -3z m-651 -100 c0 -5 -15 -23 -32 -42 -30 -29 -123 -129
-184 -198 -13 -14 -24 -28 -24 -31 0 -3 -30 -34 -67 -69 -113 -107 -706 -700
-756 -755 -26 -28 -53 -56 -62 -60 -8 -5 -43 -35 -78 -68 -34 -33 -92 -85
-127 -115 -35 -30 -78 -67 -94 -82 -29 -27 -66 -37 -66 -19 0 4 -32 41 -70 81
-39 40 -70 77 -70 81 0 5 -4 9 -9 9 -4 0 -48 41 -97 91 -49 50 -114 109 -144
132 -30 22 -59 46 -65 52 -5 6 -32 28 -60 50 -27 22 -59 48 -69 58 -11 9 -23
17 -28 17 -4 0 -24 16 -44 35 -19 19 -38 35 -41 35 -3 0 -23 14 -45 31 -22 18
-63 48 -92 68 -45 31 -136 105 -182 149 -36 34 -24 40 171 92 44 12 103 28
130 36 128 39 180 53 350 95 22 5 69 18 105 29 108 31 190 52 280 70 47 10
150 32 230 49 80 18 211 42 292 55 81 12 153 27 160 33 7 6 40 13 73 16 33 2
112 12 175 20 63 9 178 24 255 33 77 9 163 19 190 23 72 10 95 10 95 -1z m296
-180 c-4 -57 -11 -134 -16 -173 -10 -72 -12 -88 -30 -260 -5 -55 -14 -140 -20
-190 -6 -49 -13 -119 -15 -155 -3 -36 -10 -130 -17 -210 -9 -118 -13 -352 -18
-1051 0 -13 -18 -19 -92 -28 -139 -17 -312 -25 -513 -25 l-180 0 -65 62 c-36
34 -69 62 -75 62 -5 0 -26 17 -46 38 -20 20 -53 51 -73 67 -19 17 -36 36 -36
43 0 6 -7 12 -15 12 -8 0 -37 21 -64 48 -27 26 -56 52 -63 58 -7 6 -28 27 -46
47 -18 21 -36 37 -41 37 -5 0 -29 20 -54 45 -26 25 -42 45 -38 45 4 0 19 15
32 34 28 39 106 130 164 191 22 23 96 102 165 176 69 73 139 148 156 166 17
17 39 44 48 58 10 15 46 56 80 93 35 37 78 85 97 107 18 22 66 74 105 115 40
41 94 101 120 132 26 32 105 114 176 183 70 69 134 137 142 152 16 32 213 223
228 223 7 0 8 -35 4 -102z m844 -148 c0 -5 -5 -10 -11 -10 -5 0 -7 5 -4 10 3
6 8 10 11 10 2 0 4 -4 4 -10z m-3713 -484 c18 -17 33 -37 33 -44 0 -7 8 -16
17 -19 9 -4 59 -47 110 -97 50 -50 124 -120 163 -156 39 -36 88 -81 108 -100
21 -19 71 -64 112 -100 41 -36 89 -78 106 -95 17 -16 53 -48 79 -70 26 -22 67
-59 91 -82 24 -24 48 -43 53 -43 16 0 33 -39 24 -54 -24 -40 -186 -211 -274
-289 -30 -26 -95 -88 -146 -137 -50 -50 -96 -90 -102 -90 -6 0 -19 -4 -29 -9
-18 -10 -499 -37 -507 -29 -5 5 3 116 30 428 8 91 19 228 25 305 6 77 15 187
20 245 5 58 12 164 16 235 4 72 8 141 9 155 1 14 3 40 3 58 2 38 9 36 59 -12z
m-386 -108 c1 -128 -2 -305 -6 -368 -10 -144 -24 -567 -26 -758 -1 -111 -6
-205 -11 -208 -7 -5 -153 -14 -433 -29 -33 -2 -141 -6 -240 -9 -178 -6 -362
-18 -605 -37 -465 -37 -680 -45 -680 -27 0 15 118 128 176 168 12 8 42 33 67
55 77 68 201 167 294 235 65 47 182 141 274 220 42 36 90 77 108 91 17 15 51
44 74 66 23 21 74 63 112 93 75 58 75 58 120 95 17 14 33 25 37 25 4 0 13 6
20 13 16 16 123 87 159 105 14 8 41 27 60 43 19 16 40 29 47 29 6 0 12 4 12 8
0 4 12 13 28 20 33 14 153 80 202 110 19 12 49 29 65 36 17 8 53 31 80 50 28
19 53 35 58 35 4 1 7 -27 8 -61z m1644 -1043 c33 -30 80 -74 105 -97 81 -76
216 -197 246 -220 16 -12 32 -27 36 -33 3 -5 25 -29 48 -52 28 -29 39 -47 33
-56 -12 -21 -72 -87 -78 -87 -9 0 -74 -60 -211 -195 -67 -66 -134 -127 -148
-135 -26 -13 -28 -12 -144 102 -148 148 -234 228 -241 228 -10 0 -161 160
-161 171 0 10 4 15 162 159 56 52 141 134 188 182 47 48 90 88 95 88 6 0 37
-25 70 -55z m3853 -373 c39 -1 72 -6 72 -10 0 -10 -225 -237 -330 -332 -45
-41 -103 -97 -129 -124 -25 -27 -61 -63 -80 -80 -42 -38 -38 -35 -141 -147
-179 -195 -539 -543 -601 -581 -16 -10 -32 -25 -35 -33 -4 -8 -10 -15 -16 -15
-8 0 -59 -44 -141 -122 -16 -16 -30 -28 -32 -28 -2 0 -19 -13 -37 -30 -39 -36
-41 -36 -71 -7 -13 12 -41 37 -63 56 -21 18 -75 66 -119 106 -136 123 -198
176 -257 216 -31 21 -72 58 -92 82 -31 37 -36 52 -43 122 -7 68 -6 472 1 600
2 22 3 75 4 117 l2 77 33 5 c31 5 97 11 227 22 36 3 81 9 100 14 19 5 42 8 50
7 19 -2 151 10 330 28 74 8 207 19 295 25 88 5 189 12 225 15 36 2 169 7 295
11 127 4 231 7 232 9 3 2 200 0 321 -3z m-4748 -109 c1 -16 4 -145 7 -288 3
-143 7 -280 7 -305 l1 -45 -265 -1 c-146 0 -273 3 -283 8 -16 8 -17 19 -12 96
3 48 7 185 9 305 2 119 5 220 8 222 6 6 330 30 451 33 l77 2 0 -27z m-788
-278 l-4 -250 -34 -70 c-70 -143 -101 -188 -198 -295 -28 -31 -71 -82 -96
-113 -71 -92 -161 -187 -176 -187 -8 0 -14 -6 -14 -12 0 -14 -198 -208 -212
-208 -8 0 -108 98 -108 107 0 2 -31 39 -69 81 -38 42 -113 127 -166 187 -52
61 -138 155 -189 210 -92 98 -126 137 -236 265 -30 36 -71 83 -90 105 -20 22
-65 78 -100 125 -36 47 -76 97 -89 112 -41 47 -63 88 -49 93 7 2 76 6 153 9
77 3 156 8 175 11 19 3 87 7 150 9 63 2 192 10 285 19 94 9 289 21 435 27 146
7 317 15 380 20 63 4 147 7 185 6 l70 -1 -3 -250z m3194 105 c2 -235 -11 -491
-26 -500 -22 -14 -470 -3 -627 15 l-51 6 -8 107 c-13 192 -11 303 8 342 9 19
18 53 20 75 l3 40 135 6 c162 8 413 29 420 35 2 3 31 4 65 2 l60 -3 1 -125z
m-2002 -147 c30 -32 69 -76 86 -98 17 -22 68 -77 112 -123 52 -54 77 -87 71
-93 -14 -14 -320 -16 -333 -3 -7 7 -10 70 -10 165 1 85 1 166 1 182 -1 15 3
27 9 27 5 0 34 -26 64 -57z m4546 -2 c0 -102 -86 -741 -104 -770 -4 -5 -11
-38 -15 -73 -13 -90 -41 -251 -46 -258 -2 -4 -7 -29 -10 -56 -3 -27 -10 -62
-15 -79 -4 -16 -11 -55 -14 -85 -4 -30 -14 -91 -22 -135 -8 -44 -21 -111 -29
-150 -7 -38 -13 -81 -14 -95 0 -14 -8 -61 -16 -105 -16 -85 -42 -257 -43 -290
-1 -21 -6 -71 -17 -167 -4 -32 -11 -58 -17 -58 -5 0 -21 14 -35 30 -13 17 -28
30 -33 30 -5 0 -24 15 -42 33 -19 17 -75 69 -124 114 -49 44 -118 109 -154
143 -36 34 -91 85 -124 114 -32 28 -124 116 -205 196 -81 80 -179 174 -219
210 -40 36 -90 81 -112 102 -21 20 -53 44 -70 54 -16 10 -30 24 -30 30 0 10
55 62 215 203 17 15 40 33 51 41 12 8 46 38 77 65 30 28 87 79 126 114 39 36
71 71 71 78 0 7 5 13 10 13 6 0 48 37 94 83 98 96 149 143 191 175 17 13 68
58 115 101 164 150 226 205 309 269 9 7 50 39 91 72 41 33 87 65 103 72 15 7
27 16 27 20 0 5 7 8 15 8 11 0 15 -12 15 -49z m-7727 -41 c12 -14 79 -97 149
-185 164 -205 213 -261 396 -452 23 -25 45 -51 50 -58 4 -7 48 -58 98 -112 50
-54 133 -147 184 -208 52 -60 115 -132 142 -160 42 -44 62 -84 41 -85 -8 -1
-28 -18 -194 -174 -42 -39 -123 -114 -180 -166 -57 -52 -216 -207 -352 -343
-137 -137 -250 -247 -253 -245 -3 4 -18 129 -29 253 -2 22 -6 65 -9 95 -24
229 -39 583 -51 1150 -5 262 -20 518 -40 705 -6 47 -5 49 10 30 9 -11 26 -31
38 -45z m4219 -105 c0 -41 -1 -97 -1 -125 l-1 -50 -105 0 c-118 0 -129 8 -72
55 17 15 42 43 53 62 27 43 116 144 122 138 3 -3 5 -38 4 -80z m-1436 -423
c15 -10 35 -345 21 -354 -12 -7 -58 38 -178 173 -37 41 -84 93 -106 116 -75
80 -84 73 93 73 88 0 164 -4 170 -8z m399 -12 c6 -10 -58 -80 -74 -80 -12 0
-15 72 -4 83 10 11 71 8 78 -3z m-1004 -47 c47 -42 150 -149 243 -253 27 -30
83 -91 126 -135 42 -44 80 -85 83 -92 4 -7 -18 -29 -55 -56 -35 -25 -74 -55
-88 -67 -60 -51 -70 -59 -97 -77 -28 -18 -55 -39 -77 -58 -6 -6 -32 -26 -58
-43 -27 -18 -48 -37 -48 -42 0 -6 -6 -10 -13 -10 -7 0 -22 -8 -33 -18 -16 -16
-99 -82 -213 -171 -18 -14 -42 -34 -54 -43 -11 -10 -23 -18 -27 -18 -8 0 -166
157 -323 319 -49 50 -87 95 -85 100 1 5 98 106 213 223 189 192 352 365 417
440 29 35 50 35 89 1z m1630 -75 c52 -55 114 -123 139 -151 25 -27 96 -100
158 -162 l113 -112 6 -228 5 -227 -54 -50 c-29 -28 -107 -104 -173 -169 -112
-111 -156 -139 -167 -110 -16 42 -663 690 -724 724 -18 10 -19 97 -1 119 6 8
21 21 33 29 12 8 61 50 110 95 92 84 202 180 284 249 152 128 146 128 271 -7z
m829 32 c88 -12 125 -16 280 -30 125 -11 153 -17 148 -31 -8 -23 -437 -469
-452 -469 -10 0 -12 2 -73 81 l-41 54 -7 190 c-4 104 -8 192 -11 194 -12 13
22 31 50 26 17 -2 65 -9 106 -15z m765 -211 c50 -40 108 -89 130 -110 22 -22
43 -39 47 -39 5 0 8 -6 8 -12 0 -7 14 -22 30 -34 16 -11 52 -42 79 -67 27 -26
52 -47 54 -47 2 0 24 -17 47 -39 44 -40 45 -52 8 -79 -10 -7 -16 -18 -13 -23
4 -5 1 -9 -6 -9 -15 0 -401 -380 -527 -519 -46 -50 -48 -50 -107 18 -16 19
-40 45 -52 57 -13 13 -23 28 -23 34 0 5 -4 10 -9 10 -4 0 -26 26 -49 58 -22
31 -75 98 -118 147 -43 50 -83 96 -89 103 -5 7 -16 19 -23 27 -8 8 -12 22 -10
29 2 8 46 59 98 113 52 54 113 121 135 148 40 51 286 304 295 304 3 1 46 -31
95 -70z m-2582 -532 c4 -62 5 -157 2 -212 -2 -55 -4 -132 -4 -172 l-1 -72 -32
-3 c-18 -2 -78 0 -133 3 -55 4 -157 9 -226 13 -142 7 -219 16 -219 25 0 4 15
19 32 35 18 16 80 72 136 125 133 123 152 140 193 175 60 50 183 160 203 182
35 37 43 20 49 -99z m3232 -54 c17 -15 77 -70 135 -123 114 -104 161 -147 200
-179 60 -50 145 -127 295 -266 33 -30 63 -55 68 -55 4 0 54 -46 111 -102 57
-57 127 -123 156 -148 103 -90 221 -208 213 -212 -4 -3 -57 -6 -118 -7 -60 -2
-123 -5 -140 -7 -16 -2 -181 -6 -365 -9 -315 -6 -665 -27 -805 -49 -16 -3 -57
-8 -90 -11 -33 -3 -94 -10 -135 -15 -41 -5 -113 -12 -160 -15 l-85 -6 0 220 0
220 33 29 c25 23 32 37 32 66 0 39 9 60 55 121 29 39 192 213 229 244 10 9 88
87 174 174 85 86 158 157 161 157 4 0 20 -12 36 -27z m-4691 -106 c139 -142
280 -296 294 -323 7 -13 23 -35 37 -50 14 -15 25 -30 25 -34 0 -4 16 -15 35
-24 19 -9 35 -22 35 -28 0 -6 7 -16 15 -22 12 -9 15 -53 17 -251 l3 -240 -260
1 c-143 0 -483 1 -755 2 -272 1 -521 -1 -552 -4 -36 -4 -58 -3 -58 3 0 6 26
39 58 74 32 35 69 77 83 93 13 16 34 38 47 50 27 25 79 80 187 195 70 76 243
248 277 277 40 33 255 228 326 295 46 43 86 79 89 79 3 0 46 -42 97 -93z
m3310 -74 c42 -49 92 -104 111 -123 19 -19 45 -49 57 -66 13 -17 42 -55 66
-84 23 -28 42 -56 42 -62 0 -7 -51 -9 -157 -4 -202 8 -266 15 -275 30 -4 6 -8
81 -8 166 l1 155 32 38 c17 20 37 37 44 37 6 0 46 -39 87 -87z m-1423 -76 c64
-61 128 -122 143 -134 14 -13 26 -26 26 -31 0 -8 -124 -6 -227 4 l-62 5 -5 62
c-16 184 -16 207 -4 207 7 0 65 -51 129 -113z m962 -212 c-3 -9 -8 -14 -10
-11 -3 3 -2 9 2 15 9 16 15 13 8 -4z m-1918 -144 c50 -5 184 -13 298 -16 177
-6 209 -10 216 -24 5 -9 11 -123 14 -255 l4 -238 -106 7 c-58 4 -162 15 -231
26 -69 10 -163 21 -210 24 -118 8 -150 14 -151 28 -10 92 -18 398 -12 427 5
28 9 30 47 30 22 0 82 -4 131 -9z m1342 -57 c13 -4 23 -11 23 -16 0 -15 -159
-167 -315 -303 -38 -33 -90 -82 -116 -108 -32 -33 -49 -45 -54 -37 -7 12 -25
272 -28 419 l-2 64 234 -7 c129 -3 245 -9 258 -12z m586 -51 c3 -5 8 -32 12
-60 5 -41 4 -53 -7 -53 -11 0 -128 105 -128 116 0 7 119 4 123 -3z m521 -33
c93 -5 173 -7 178 -4 5 3 27 3 49 -1 l41 -7 -7 -102 c-6 -97 -13 -260 -14
-337 l-1 -36 -107 -11 c-191 -20 -233 -19 -240 7 -3 11 -22 31 -43 45 -43 28
-45 37 -55 221 -3 55 -8 133 -11 173 -6 73 -6 73 17 68 13 -3 100 -10 193 -16z
m-814 -147 c132 -119 216 -197 260 -242 l45 -46 -3 -87 -4 -86 -71 -75 c-60
-61 -186 -177 -282 -258 -11 -10 -50 -42 -86 -73 -36 -31 -70 -56 -75 -56 -5
1 -18 12 -29 27 -31 40 -67 81 -106 121 -40 41 -126 144 -179 212 -19 25 -45
56 -57 70 -13 14 -23 32 -23 41 0 14 153 164 225 221 42 33 125 110 219 204
44 45 86 82 92 83 6 0 39 -25 74 -56z m-2390 -388 c157 -4 288 -10 292 -14 15
-13 27 -1681 14 -1891 -4 -63 -9 -116 -11 -118 -5 -5 -93 109 -120 154 -11 18
-47 72 -80 119 -33 47 -65 94 -70 104 -14 24 -101 143 -140 190 -17 20 -37 45
-45 57 -8 12 -37 50 -63 85 -27 35 -58 77 -70 93 -12 16 -38 48 -57 71 -19 22
-46 56 -60 74 -14 18 -30 38 -35 44 -6 7 -20 24 -31 39 -12 15 -41 51 -66 80
-69 81 -147 174 -205 246 -29 36 -62 74 -73 84 -11 10 -20 23 -20 28 0 6 -30
42 -67 82 -38 39 -77 81 -88 93 -11 12 -32 37 -46 56 -15 19 -44 52 -65 75
-22 22 -56 61 -76 85 -21 24 -58 66 -83 93 -25 27 -45 52 -45 57 0 7 81 16
195 22 91 5 825 -1 1115 -8z m795 -16 c55 -5 129 -13 165 -18 36 -5 126 -16
200 -25 74 -9 150 -19 168 -22 49 -8 146 -97 530 -486 61 -63 112 -120 112
-126 0 -23 -147 -157 -243 -221 -29 -19 -59 -42 -67 -51 -8 -9 -25 -23 -38
-32 -12 -8 -55 -44 -94 -79 -89 -79 -215 -179 -226 -179 -5 0 -24 -17 -43 -38
-19 -21 -59 -58 -89 -83 -30 -24 -82 -69 -115 -101 -33 -31 -105 -96 -160
-144 -55 -49 -141 -130 -190 -181 -50 -51 -94 -93 -98 -93 -4 0 -8 136 -8 303
0 166 -1 593 -2 948 l-2 646 50 -4 c28 -2 95 -8 150 -14z m4743 -7 c-7 -9 -29
-30 -48 -47 -19 -16 -63 -57 -98 -90 -36 -33 -74 -67 -87 -75 -12 -8 -44 -34
-71 -58 -139 -121 -172 -151 -211 -189 -24 -24 -46 -43 -49 -43 -9 0 -423
-419 -559 -565 -66 -71 -130 -139 -142 -152 -13 -13 -23 -28 -23 -33 0 -6 -4
-10 -9 -10 -8 0 -46 -37 -158 -156 -361 -380 -391 -409 -378 -351 11 50 26
300 35 602 6 176 12 352 15 390 12 173 23 383 30 574 2 71 7 106 16 112 7 4
47 10 89 14 41 3 158 15 260 25 102 11 228 24 280 29 225 23 415 33 652 33
139 0 298 3 353 7 55 4 104 5 108 3 4 -2 2 -11 -5 -20z m-2095 -509 c-3 -208
-8 -575 -11 -817 l-7 -439 -165 169 c-90 93 -213 216 -273 274 -60 58 -222
217 -359 354 l-251 249 24 19 c82 63 123 95 140 111 10 9 24 17 29 17 6 0 10
4 10 9 0 5 9 13 20 16 11 3 26 12 32 18 7 7 36 29 63 50 28 20 62 48 76 61 14
12 52 40 83 61 31 20 59 41 62 46 3 5 23 9 44 9 63 0 120 45 120 94 0 7 13 22
29 33 29 22 140 39 277 42 l61 1 -4 -377z m-998 -650 c143 -146 368 -375 500
-509 293 -296 325 -330 325 -342 0 -16 -82 -19 -570 -21 -571 -2 -908 -21
-1415 -81 -110 -13 -331 -45 -445 -65 -93 -17 -120 -18 -120 -8 0 6 120 131
258 269 34 35 88 85 120 111 31 26 66 57 77 68 11 11 56 52 100 90 44 39 93
84 110 100 45 43 133 115 141 115 3 0 23 17 43 38 21 20 62 57 92 82 30 25 62
52 72 60 10 8 33 28 50 44 18 15 61 52 97 82 36 29 76 63 90 74 133 109 197
159 205 159 6 0 127 -119 270 -266z m846 -1180 c4 -71 -6 -180 -36 -433 -4
-36 -18 -169 -35 -345 -13 -129 -28 -392 -36 -618 -4 -119 -10 -180 -18 -183
-6 -2 -58 -8 -116 -13 -153 -13 -215 -20 -313 -34 -48 -7 -91 -10 -96 -7 -6 3
-12 137 -16 300 -10 478 -30 760 -72 1005 -14 83 -28 182 -31 221 -4 64 -2 73
14 77 50 14 229 30 544 46 233 13 210 15 211 -16z"/>
<path d="M586 6415 c-18 -13 -18 -19 -7 -87 19 -116 23 -169 14 -227 l-8 -54
-55 -12 c-30 -6 -83 -17 -118 -24 -34 -6 -84 -18 -110 -26 -72 -21 -192 -38
-246 -36 l-49 3 5 -106 c6 -109 22 -156 53 -156 8 0 15 -5 15 -10 0 -6 16 -18
35 -27 28 -14 41 -14 72 -5 21 6 79 24 128 38 50 14 95 30 100 34 11 8 118 30
145 30 20 0 20 -3 0 -345 -5 -99 -10 -237 -10 -306 0 -145 -2 -148 -77 -154
-137 -11 -417 -49 -447 -61 -13 -5 -16 -28 -16 -135 0 -85 4 -129 11 -129 12
0 52 20 59 30 5 7 85 30 175 51 53 13 158 29 223 35 l52 5 0 -53 c-1 -98 -19
-298 -30 -318 -8 -15 -8 -20 1 -20 8 0 9 -19 6 -62 -4 -35 -11 -133 -17 -218
-14 -206 -19 -271 -24 -279 -2 -3 -7 -44 -10 -91 -4 -47 -9 -100 -11 -119 -2
-18 -11 -88 -20 -155 -8 -66 -22 -168 -30 -226 -8 -58 -24 -175 -35 -260 -12
-85 -25 -184 -30 -220 -16 -107 -23 -198 -16 -223 6 -26 78 -67 118 -67 37 0
96 27 108 50 6 11 17 84 26 162 8 79 19 159 24 178 5 19 16 91 25 160 9 69 29
224 46 344 35 264 43 332 41 371 -1 17 3 55 8 85 6 30 13 105 15 165 6 139 13
244 21 318 4 32 7 77 8 100 5 110 7 127 16 127 5 0 16 -12 24 -27 15 -31 83
-260 84 -283 0 -14 16 -87 44 -200 6 -25 14 -63 19 -85 32 -149 45 -204 51
-211 5 -4 8 -19 8 -32 0 -26 26 -125 40 -153 5 -9 12 -34 15 -55 4 -22 10 -48
15 -59 5 -11 18 -58 30 -104 11 -46 25 -92 30 -101 5 -9 6 -27 3 -39 -3 -13
-2 -26 3 -30 13 -9 52 -92 60 -126 15 -70 46 -160 60 -176 8 -9 14 -23 13 -31
-2 -7 7 -35 19 -61 12 -27 24 -71 28 -98 4 -27 11 -52 15 -55 5 -3 9 -20 9
-37 1 -64 35 -176 60 -199 35 -33 107 -31 144 3 38 35 50 157 29 279 -8 47
-18 119 -23 160 -10 95 -29 182 -41 195 -5 5 -9 21 -9 36 0 15 -7 34 -15 43
-8 8 -15 24 -15 35 0 11 -5 23 -10 26 -6 4 -8 11 -4 16 3 5 1 15 -4 22 -14 16
-68 184 -128 397 -15 52 -33 104 -40 115 -8 11 -14 29 -14 42 0 12 -5 25 -11
28 -6 4 -8 13 -5 21 3 8 1 14 -4 14 -6 0 -10 9 -10 19 0 11 -4 23 -10 26 -5 3
-10 12 -10 20 0 8 -5 26 -11 42 -7 15 -13 37 -15 48 -1 11 -11 49 -22 85 -11
36 -23 84 -26 107 -3 24 -13 64 -22 90 -9 26 -20 73 -24 105 -5 32 -15 72 -24
89 -8 17 -18 46 -22 65 -3 19 -10 34 -15 34 -5 0 -9 5 -9 11 0 7 -20 51 -45
100 -52 102 -73 178 -53 191 7 4 26 8 41 8 16 0 37 4 47 10 10 5 35 12 56 15
22 3 71 10 109 15 106 15 184 29 250 44 79 18 262 65 302 77 18 6 42 12 55 14
94 18 134 29 139 36 3 5 28 17 55 27 27 9 55 21 62 26 7 4 63 33 125 64 197
98 309 209 323 318 9 72 -11 173 -49 243 -44 82 -106 167 -133 182 -13 7 -26
20 -30 31 -3 10 -11 18 -19 18 -7 0 -35 17 -62 38 -26 20 -59 42 -73 48 -14 6
-45 21 -70 32 -161 72 -391 109 -615 98 -286 -14 -472 -27 -518 -36 -84 -17
-97 -14 -97 20 0 17 -7 66 -16 108 -9 42 -17 89 -18 104 -2 26 -40 67 -62 68
-6 0 -17 7 -24 15 -16 19 -98 19 -124 0z m1184 -505 c83 -13 213 -42 220 -50
4 -4 61 -30 120 -55 55 -22 119 -78 156 -136 23 -38 24 -44 14 -93 -13 -66
-64 -122 -170 -191 -41 -26 -87 -56 -101 -65 -41 -29 -152 -78 -203 -91 -25
-6 -49 -15 -52 -20 -3 -5 -13 -9 -22 -9 -9 0 -28 -6 -42 -13 -14 -7 -45 -19
-70 -26 -25 -7 -67 -22 -95 -32 -27 -10 -70 -21 -94 -24 -23 -3 -47 -8 -52
-11 -11 -6 -272 -61 -334 -70 -22 -3 -78 -12 -124 -20 -134 -22 -125 -28 -117
69 3 45 8 105 11 132 24 256 34 404 35 540 l0 81 108 21 c59 12 125 24 147 27
22 3 69 10 105 15 36 6 101 13 145 17 44 3 82 8 84 10 9 8 269 3 331 -6z"/>
<path d="M16065 5679 c-11 -11 -32 -23 -47 -26 -45 -9 -50 -24 -53 -168 -2
-74 -8 -149 -14 -167 -5 -18 -17 -89 -26 -158 -8 -69 -22 -174 -30 -235 -8
-60 -15 -140 -15 -177 0 -66 -6 -83 -27 -70 -9 6 -24 40 -22 52 0 3 -11 28
-25 56 -14 29 -26 57 -26 64 0 7 -6 26 -14 43 -69 157 -78 180 -83 212 -3 17
-10 37 -17 45 -20 25 -76 207 -84 273 -8 62 -33 107 -59 107 -7 0 -13 9 -13
20 0 15 -9 22 -30 27 -17 3 -33 10 -36 14 -9 16 -81 10 -95 -7 -14 -17 -14
-75 0 -84 5 -3 15 -33 22 -66 12 -61 12 -62 -14 -94 -30 -36 -33 -51 -13 -83
13 -22 31 -184 41 -377 9 -187 24 -511 30 -665 3 -82 10 -253 16 -380 6 -126
12 -335 13 -463 2 -183 5 -235 15 -242 14 -8 31 -150 32 -253 0 -58 25 -89 87
-107 40 -13 43 -12 67 14 14 15 28 39 32 54 14 56 8 382 -17 917 -5 110 -12
281 -15 380 -7 208 -22 484 -31 568 -10 92 10 68 51 -60 20 -65 41 -127 45
-138 15 -39 28 -81 40 -130 7 -27 16 -59 20 -70 5 -11 11 -45 14 -75 3 -30 6
-56 6 -56 0 -1 9 -4 20 -7 11 -3 20 -12 20 -21 0 -9 7 -16 15 -16 8 0 15 -4
15 -10 0 -5 6 -10 14 -10 8 0 21 -6 28 -13 26 -26 75 -39 97 -28 30 16 41 42
45 108 3 48 17 171 41 353 3 19 10 84 16 145 11 118 23 158 33 115 3 -14 13
-72 22 -130 15 -102 25 -163 44 -265 5 -27 14 -86 19 -130 5 -44 17 -116 25
-160 9 -44 16 -93 16 -110 0 -16 6 -59 14 -95 20 -94 43 -236 61 -385 20 -169
40 -271 58 -293 6 -7 12 -28 14 -45 2 -18 8 -45 14 -62 7 -16 15 -52 20 -80
16 -95 22 -118 38 -136 22 -27 51 -24 90 9 33 27 33 28 42 145 6 82 5 125 -3
145 -12 29 -17 56 -47 237 -11 66 -29 170 -41 230 -20 106 -39 219 -45 260 -3
21 -21 114 -36 180 -4 22 -11 76 -14 120 -4 44 -10 94 -15 110 -5 17 -12 64
-15 105 -3 41 -10 104 -16 140 -13 87 -17 121 -24 210 -4 41 -8 89 -11 105 -2
17 -8 71 -14 120 -5 50 -14 119 -20 155 -20 134 -40 297 -44 356 -2 49 -8 68
-31 97 -16 20 -40 41 -55 48 -14 6 -33 15 -42 20 -27 14 -51 10 -73 -12z"/>
<path d="M14720 5357 c0 -5 -7 -15 -15 -23 -8 -9 -15 -26 -15 -40 0 -13 -8
-32 -18 -42 -24 -24 -39 -171 -20 -201 9 -15 9 -48 0 -153 -7 -73 -15 -272
-18 -443 -3 -170 -8 -312 -10 -315 -3 -2 -41 -5 -84 -6 -89 -1 -120 -17 -120
-63 0 -49 91 -117 166 -125 l29 -3 -1 -154 c-2 -243 -23 -650 -35 -694 -13
-43 -5 -115 12 -115 6 0 8 -57 5 -164 -6 -181 -4 -189 61 -212 28 -10 34 -9
61 16 38 35 47 69 67 255 22 210 46 329 76 387 5 10 9 47 9 82 0 36 5 77 10
91 6 15 13 81 15 148 16 371 16 369 93 381 50 7 44 20 67 -139 57 -396 76
-495 121 -645 20 -63 39 -128 44 -145 18 -65 65 -190 73 -196 4 -3 7 -10 5
-15 -2 -5 2 -27 9 -49 7 -22 14 -52 18 -67 8 -43 31 -58 85 -58 47 0 49 1 61
37 15 46 7 131 -24 248 -13 50 -27 97 -30 105 -3 8 -10 42 -16 75 -5 33 -13
74 -16 90 -4 17 -10 55 -15 85 -4 30 -19 96 -33 145 -22 80 -39 165 -52 260
-2 17 -9 62 -15 100 -20 127 -24 185 -12 185 19 0 49 40 56 72 6 32 -14 68
-38 68 -7 0 -18 9 -26 20 -8 11 -20 20 -27 20 -7 0 -15 17 -18 38 -11 62 -26
145 -36 187 -7 33 -21 107 -54 285 -2 14 -9 48 -16 75 -41 189 -52 232 -60
250 -12 26 -49 203 -49 235 0 60 -138 143 -227 138 -24 -2 -43 -7 -43 -11z
m258 -1106 c14 -60 5 -82 -28 -74 -22 6 -23 12 -14 102 6 51 9 58 19 44 6 -10
17 -42 23 -72z"/>
<path d="M13850 5248 c-47 -4 -112 -10 -144 -13 -33 -3 -74 -14 -90 -23 -29
-18 -31 -22 -30 -76 1 -32 7 -61 13 -65 8 -5 4 -21 -13 -54 -21 -42 -22 -50
-9 -73 7 -15 20 -32 28 -38 17 -13 35 -150 35 -266 0 -42 4 -111 10 -155 11
-92 18 -184 22 -270 l3 -59 -37 -11 c-59 -16 -64 -27 -39 -80 12 -26 31 -49
44 -54 13 -5 28 -15 35 -23 12 -16 21 -212 23 -543 1 -110 5 -216 10 -236 5
-20 11 -78 14 -130 6 -103 21 -210 36 -249 6 -14 26 -32 45 -42 30 -14 39 -14
61 -3 38 20 52 47 66 130 9 53 11 97 5 148 -5 39 -7 86 -5 102 3 17 1 53 -4
80 -4 28 -11 171 -13 319 -3 148 -9 291 -12 319 -9 66 13 61 39 -9 31 -83 54
-147 71 -199 10 -27 23 -61 30 -75 7 -14 18 -45 25 -70 7 -25 17 -53 22 -62 5
-10 19 -48 30 -85 25 -80 28 -88 68 -185 14 -33 45 -140 47 -161 1 -10 15 -33
32 -50 38 -39 62 -94 62 -141 0 -66 78 -124 130 -96 48 26 61 129 27 210 -6
14 -11 27 -12 30 -1 3 -4 12 -8 20 -3 8 -8 33 -12 55 -4 22 -18 63 -32 92 -13
28 -27 71 -31 95 -3 24 -14 56 -24 73 -10 16 -18 41 -18 55 0 14 -14 52 -30
85 -16 33 -30 72 -30 86 0 14 -13 56 -30 91 -16 36 -35 88 -41 114 -7 27 -27
81 -44 119 -18 39 -35 88 -38 110 -6 38 -5 41 31 58 20 10 49 33 64 50 16 18
44 51 64 75 35 41 134 230 134 256 0 6 4 16 8 21 29 36 57 182 57 305 0 121
-12 181 -49 235 -35 52 -130 155 -144 155 -7 0 -15 7 -19 16 -6 16 -73 50
-153 77 -56 19 -169 25 -280 15z m283 -189 c29 -7 57 -17 64 -21 6 -5 16 -38
22 -73 10 -54 8 -91 -9 -223 -11 -86 -27 -184 -35 -215 -8 -32 -15 -67 -15
-77 0 -11 -4 -20 -8 -20 -4 0 -14 -17 -22 -37 -20 -57 -73 -133 -92 -133 -9 0
-19 8 -22 18 -2 9 -21 69 -40 133 -20 63 -36 122 -36 130 0 9 -9 33 -19 55
-11 22 -24 69 -30 105 -16 105 -21 133 -31 154 -15 35 -31 143 -25 167 4 16
17 27 38 34 51 15 204 17 260 3z"/>
<path d="M6202 5208 c-7 -7 -12 -17 -12 -24 0 -6 -7 -25 -15 -40 -8 -16 -15
-39 -15 -51 0 -12 -4 -24 -9 -27 -4 -3 -11 -19 -14 -35 -5 -25 -48 -141 -107
-286 -21 -55 -40 -107 -60 -173 -12 -40 -27 -71 -32 -70 -9 3 -42 83 -55 133
-3 11 -24 74 -48 140 -61 175 -65 188 -65 228 0 23 -5 37 -12 37 -14 0 -68 71
-68 89 0 6 -11 17 -25 23 -14 6 -25 14 -25 18 0 4 -17 11 -37 15 -21 4 -44 12
-51 17 -9 8 -20 8 -37 0 -20 -10 -25 -19 -25 -51 0 -22 7 -46 15 -55 8 -8 15
-19 15 -24 0 -9 16 -59 80 -247 11 -33 24 -69 29 -80 5 -11 13 -38 16 -60 4
-22 11 -45 15 -50 5 -6 23 -60 40 -120 17 -61 40 -141 52 -180 11 -38 23 -95
27 -126 3 -31 11 -63 17 -70 6 -8 17 -40 24 -72 11 -48 11 -100 2 -295 -7
-130 -12 -295 -12 -367 0 -71 -5 -209 -10 -305 -6 -96 -12 -277 -15 -401 -4
-189 -2 -229 10 -239 8 -6 23 -31 35 -55 26 -53 39 -65 82 -71 50 -8 89 28 91
84 1 23 5 42 8 42 4 0 15 42 24 92 9 51 22 107 29 123 8 20 11 88 10 200 -1
104 2 175 8 182 7 9 7 55 -1 145 -13 158 -8 626 7 718 6 36 21 101 33 145 12
44 23 94 26 110 2 17 8 39 13 50 10 23 18 58 32 140 11 66 85 323 109 380 5
11 10 36 13 55 2 19 6 42 9 50 12 35 47 228 47 258 0 69 -125 143 -168 100z"/>
<path d="M6836 5205 c-17 -13 -19 -31 -21 -172 -2 -147 -11 -266 -35 -453 -5
-41 -9 -111 -10 -155 0 -50 -6 -91 -15 -108 -8 -16 -17 -69 -20 -123 l-5 -94
37 -35 c22 -21 47 -35 63 -35 34 0 81 44 109 103 21 44 23 62 23 193 0 79 4
161 9 181 5 21 14 106 19 188 5 83 14 191 19 241 16 143 11 179 -34 220 -21
19 -43 34 -50 34 -8 0 -15 4 -17 8 -6 17 -53 21 -72 7z"/>
<path d="M7360 5149 c-72 -25 -92 -37 -133 -80 -77 -83 -91 -118 -92 -230 0
-92 1 -97 30 -132 49 -58 117 -87 221 -93 208 -11 230 -19 244 -92 13 -76 -33
-168 -100 -199 -43 -19 -53 -21 -120 -14 -43 4 -90 1 -140 -10 -92 -19 -102
-39 -46 -94 43 -42 103 -61 216 -70 113 -10 130 -8 182 15 25 11 55 21 67 23
29 4 74 39 107 82 52 68 71 253 34 330 -37 77 -109 135 -189 151 -7 1 -18 7
-24 13 -6 6 -18 11 -27 11 -10 0 -30 6 -46 14 -21 11 -190 36 -240 36 -9 0 -3
33 11 60 15 29 61 80 72 80 3 0 16 11 28 24 47 51 98 60 133 23 12 -13 22 -27
22 -32 0 -17 64 -65 86 -65 12 0 27 7 34 15 17 21 26 115 11 115 -6 0 -11 9
-11 20 0 11 -7 20 -15 20 -8 0 -15 5 -15 11 0 6 -21 31 -47 55 -46 42 -51 44
-108 43 -38 -1 -91 -11 -145 -30z"/>
<path d="M2732 5154 c-30 -7 -45 -40 -38 -83 6 -33 -32 -447 -55 -606 -12 -81
-15 -112 -24 -255 -8 -124 -23 -220 -37 -237 -5 -7 -26 -15 -47 -18 -86 -15
-89 -16 -100 -46 -7 -19 -7 -38 0 -56 10 -29 86 -93 109 -93 9 0 11 -14 7 -52
-6 -64 -26 -190 -37 -238 -5 -19 -14 -73 -21 -120 -6 -47 -29 -166 -51 -265
-22 -99 -41 -189 -43 -200 -13 -62 -19 -82 -32 -96 -17 -21 -7 -99 13 -99 17
0 17 -10 3 -47 -6 -15 -15 -53 -19 -83 -5 -30 -15 -86 -24 -124 -18 -79 -14
-90 43 -106 55 -15 88 -12 109 10 23 25 62 98 62 116 0 8 4 22 9 32 29 56 44
105 57 176 7 44 17 82 22 85 5 3 19 41 33 83 13 43 27 78 32 78 4 0 7 15 7 33
0 18 5 38 10 43 6 6 12 40 14 75 2 61 14 171 37 344 8 62 23 256 28 363 1 8
15 12 39 12 20 0 56 2 78 6 23 3 44 2 47 -3 6 -10 16 -221 18 -398 3 -300 26
-582 49 -610 5 -6 10 -40 11 -75 2 -60 32 -239 63 -370 10 -44 18 -56 37 -61
49 -14 76 -9 110 20 32 28 33 33 34 98 0 37 -8 135 -18 216 -10 81 -15 152
-12 157 9 15 25 12 25 -4 0 -13 84 -95 99 -97 56 -7 94 -3 133 14 39 16 58 18
105 12 32 -5 72 -9 88 -10 17 -2 49 -7 73 -13 23 -5 53 -8 65 -4 37 9 77 42
77 64 0 29 -30 88 -45 88 -7 0 -25 15 -41 33 -51 57 -94 70 -194 55 -101 -15
-120 -15 -130 -3 -17 20 -11 1119 6 1146 2 4 11 119 19 256 17 270 14 427 -12
651 -18 151 -29 177 -81 187 -12 2 -28 7 -34 11 -15 10 -77 5 -99 -7 -20 -10
-31 -59 -18 -75 12 -15 16 -253 7 -494 -4 -107 -8 -256 -8 -330 -1 -74 -5
-187 -10 -250 -5 -63 -10 -239 -11 -390 -3 -279 -5 -320 -19 -320 -13 0 -19
52 -35 292 l-16 231 27 28 c44 46 41 85 -14 147 -22 25 -27 52 -42 240 -6 67
-14 142 -19 165 -5 23 -13 78 -17 122 -7 83 -36 201 -54 219 -5 5 -10 22 -10
38 0 28 -38 120 -53 126 -4 2 -5 7 -3 11 2 3 -7 29 -21 56 -99 193 -101 195
-178 200 -33 2 -70 1 -83 -1z m173 -898 c14 -120 27 -221 30 -225 2 -5 -1 -15
-8 -23 -15 -19 -102 -33 -112 -18 -8 13 11 243 31 370 16 101 22 126 29 118 3
-2 16 -102 30 -222z"/>
<path d="M4110 5135 c-49 -17 -59 -50 -33 -106 39 -85 48 -168 47 -464 -1
-420 -13 -617 -64 -1045 -5 -47 -15 -125 -20 -175 -6 -49 -18 -128 -27 -175
-18 -100 -31 -331 -22 -410 21 -180 29 -233 33 -237 10 -10 98 -16 105 -7 3 5
15 14 26 20 11 5 31 32 44 58 20 40 25 67 28 159 4 116 20 340 28 392 2 17 14
75 25 130 25 114 42 247 65 500 3 33 7 238 9 455 4 354 -3 589 -19 660 -3 14
-10 56 -16 94 -6 38 -17 76 -25 83 -7 8 -17 20 -21 27 -11 17 -81 48 -94 41
-5 -4 -15 -2 -22 3 -8 6 -24 5 -47 -3z"/>
<path d="M13085 5140 c-53 -9 -125 -50 -135 -75 -4 -12 -25 -37 -46 -56 -70
-63 -100 -142 -124 -324 -12 -88 -22 -169 -22 -180 1 -11 1 -62 2 -113 0 -51
6 -127 12 -170 6 -42 12 -98 13 -124 1 -25 10 -95 19 -155 8 -59 24 -187 35
-283 11 -96 30 -213 42 -260 35 -140 61 -220 70 -220 5 0 6 -6 3 -14 -3 -8 -1
-17 5 -21 6 -3 11 -13 11 -22 0 -42 65 -129 167 -224 51 -49 171 -56 278 -18
19 7 35 16 35 19 0 3 11 17 24 31 37 40 56 84 72 167 7 42 17 95 22 117 4 22
6 92 5 155 -2 63 -3 130 -4 148 0 17 -3 32 -8 32 -8 0 -24 117 -25 183 0 31 6
43 37 68 20 17 37 39 37 49 0 10 6 20 13 23 10 4 10 7 0 18 -7 7 -13 23 -13
34 0 37 -82 87 -130 80 -47 -6 -132 -25 -141 -31 -6 -3 -34 -10 -62 -15 -29
-4 -68 -11 -87 -14 -72 -12 -81 -16 -90 -40 -16 -43 -1 -81 44 -113 22 -16 56
-33 74 -37 24 -5 37 -16 51 -43 35 -69 91 -313 91 -394 -1 -99 -58 -218 -105
-218 -8 0 -15 -6 -15 -12 0 -7 -5 -5 -11 5 -6 9 -15 14 -21 11 -6 -4 -8 -3 -5
3 4 6 0 16 -8 23 -8 7 -15 17 -15 22 0 5 -14 40 -31 76 -18 39 -37 103 -45
152 -7 47 -21 123 -29 170 -9 47 -21 114 -26 150 -6 36 -15 92 -20 125 -5 33
-11 78 -14 100 -3 22 -9 74 -15 115 -13 93 -14 494 -1 538 5 18 10 35 10 37
-2 26 16 95 29 115 9 14 25 42 34 63 22 47 56 97 68 97 11 0 40 -87 40 -122 0
-16 -5 -38 -11 -50 -6 -11 -11 -41 -12 -66 0 -36 4 -49 24 -64 13 -10 36 -30
52 -43 50 -45 149 -22 163 37 12 53 13 58 3 64 -5 3 -9 58 -9 123 0 149 -14
192 -87 272 -30 32 -61 59 -69 59 -8 0 -14 5 -14 11 0 11 -62 40 -82 38 -7 -1
-31 -5 -53 -9z"/>
<path d="M5320 5106 c-3 -3 -66 -10 -140 -16 -85 -7 -157 -19 -195 -33 -53
-18 -82 -21 -247 -20 -117 0 -193 5 -201 11 -24 20 -110 25 -150 9 -38 -16
-58 -56 -39 -80 5 -6 12 -24 15 -38 8 -33 93 -87 150 -95 23 -3 69 -12 102
-19 33 -8 106 -17 163 -21 l102 -7 0 -151 c0 -83 -5 -223 -10 -311 -6 -88 -11
-180 -12 -205 0 -25 -4 -106 -9 -180 -12 -198 -20 -334 -24 -435 -12 -271 -36
-647 -44 -695 -5 -30 -17 -74 -26 -98 -18 -45 -15 -126 5 -146 6 -6 10 -19 10
-29 0 -17 53 -77 67 -77 3 0 16 -10 28 -23 39 -38 53 -47 74 -47 79 0 104 55
98 211 -6 163 8 402 37 639 14 113 30 266 36 340 12 158 31 669 31 820 0 150
15 359 30 409 7 23 22 47 33 53 12 7 68 11 131 11 142 -1 178 13 183 72 5 58
-20 98 -77 123 -51 22 -113 37 -121 28z"/>
<path d="M10760 5060 c-11 -11 -20 -33 -20 -48 0 -15 -5 -33 -11 -39 -8 -8 -6
-33 5 -89 9 -44 18 -124 21 -179 3 -55 7 -145 10 -200 7 -146 23 -344 45 -560
10 -104 24 -255 30 -335 6 -80 13 -163 16 -185 3 -22 8 -141 12 -264 8 -221 1
-363 -18 -386 -6 -7 -6 -24 0 -46 6 -18 7 -41 4 -51 -9 -30 25 -85 67 -107 42
-22 98 -27 127 -12 54 29 98 41 179 51 50 6 97 10 105 9 7 -2 45 2 83 9 79 13
124 11 211 -8 36 -8 69 -10 80 -5 10 5 21 9 24 9 3 1 16 9 29 18 20 14 23 23
18 57 -6 44 -61 111 -91 111 -9 0 -16 3 -16 8 0 4 -14 13 -31 21 -34 15 -201
10 -324 -9 -33 -5 -87 -10 -120 -12 l-60 -3 -2 105 c-7 265 -24 642 -33 715
-6 44 -10 127 -10 185 0 106 -21 434 -39 610 -18 174 -40 295 -73 412 -6 20
-8 49 -5 64 3 15 1 38 -4 50 -11 32 -78 104 -95 104 -8 0 -14 5 -14 10 0 19
-79 11 -100 -10z"/>
<path d="M2228 4985 c-3 -3 -63 -17 -134 -31 -104 -20 -147 -24 -221 -20 -93
5 -144 -4 -172 -31 -11 -11 -8 -24 15 -81 l29 -67 -2 -320 c-2 -303 -6 -407
-17 -465 -9 -48 -21 -345 -31 -795 -8 -320 -12 -405 -18 -412 -3 -3 -1 -16 4
-30 6 -16 5 -38 -2 -63 -13 -44 3 -110 27 -110 8 0 14 -4 14 -8 0 -11 82 -32
123 -32 37 0 76 23 107 63 12 15 27 27 33 27 7 0 17 8 24 18 11 19 31 26 173
58 114 26 148 74 96 137 -39 49 -162 63 -229 27 -53 -28 -99 -31 -103 -5 -2
11 -4 166 -3 345 0 179 0 350 -1 380 -1 30 2 81 5 113 l7 59 44 -7 c27 -4 59
-1 82 6 21 7 79 12 132 12 86 -1 99 1 137 25 73 46 69 132 -6 151 -87 22 -165
31 -267 31 l-109 0 2 352 c2 194 3 358 3 363 1 24 130 64 206 65 23 0 61 7 85
16 26 10 71 16 111 15 37 -1 70 3 73 9 3 5 16 10 27 10 28 0 47 28 48 67 0 78
-49 114 -158 115 -34 0 -65 4 -68 9 -6 10 -57 12 -66 4z"/>
<path d="M12078 4972 c-14 -2 -39 -16 -55 -31 -36 -36 -83 -94 -83 -104 0 -4
-9 -18 -21 -30 -30 -32 -91 -164 -104 -222 -67 -316 -85 -846 -36 -1095 42
-211 137 -460 221 -574 47 -64 178 -170 225 -182 13 -3 26 -11 28 -18 3 -8 32
-16 69 -20 58 -6 68 -4 118 24 30 16 61 33 69 37 19 9 70 65 71 77 0 5 6 17
13 25 39 48 82 209 128 481 28 160 14 662 -22 805 -5 22 -14 69 -18 105 -21
155 -91 379 -132 423 -10 12 -19 24 -19 29 0 25 -186 209 -234 232 -21 10 -70
22 -108 27 -38 5 -72 10 -76 12 -4 1 -19 1 -34 -1z m185 -273 c21 -34 37 -66
37 -71 0 -5 7 -23 16 -40 20 -39 65 -188 109 -362 17 -67 56 -287 86 -486 24
-158 21 -362 -7 -476 -26 -108 -66 -234 -74 -234 -4 0 -11 -11 -14 -25 -11
-41 -49 -74 -92 -78 -32 -3 -44 2 -67 25 -15 15 -32 28 -37 28 -6 0 -10 5 -10
10 0 6 -13 29 -30 52 -16 22 -30 46 -30 53 0 6 -13 24 -29 41 -36 37 -67 98
-76 149 -4 22 -12 49 -17 59 -19 35 -30 160 -29 321 1 198 11 417 22 510 5 39
16 135 24 215 18 160 35 234 71 296 21 37 70 73 100 74 6 0 27 -28 47 -61z"/>
<path d="M10092 4440 c-23 -17 -42 -33 -42 -38 0 -4 -24 -32 -53 -62 -109
-114 -137 -163 -163 -281 -9 -41 -20 -83 -25 -94 -32 -77 -58 -268 -66 -475
-8 -236 28 -460 98 -607 18 -37 36 -72 40 -77 42 -54 73 -86 84 -86 7 0 15 -4
17 -8 2 -5 31 -25 66 -45 54 -32 72 -37 123 -37 85 0 253 36 307 66 67 37 113
70 107 76 -6 5 52 170 83 238 31 69 62 320 62 505 0 127 -16 254 -44 345 -7
25 -19 65 -27 90 -7 25 -21 61 -31 80 -10 19 -18 40 -18 47 0 14 -20 54 -31
63 -4 3 -43 59 -87 125 -116 174 -135 187 -257 190 -33 1 -69 4 -81 8 -15 5
-32 -1 -62 -23z m218 -260 c8 -9 23 -19 32 -23 36 -13 68 -83 102 -222 40
-166 43 -181 57 -310 24 -229 22 -291 -13 -450 -18 -84 -94 -232 -142 -279
-55 -53 -121 -72 -187 -53 -40 12 -45 17 -59 62 -8 28 -19 57 -25 65 -24 38
-42 699 -22 815 3 17 11 62 17 100 19 122 53 218 85 245 8 7 15 17 15 21 0 5
14 25 31 43 30 33 31 34 62 18 18 -8 39 -23 47 -32z"/>
<path d="M7148 4089 c-10 -5 -18 -21 -18 -34 0 -13 -6 -30 -14 -37 -9 -9 -15
-53 -18 -138 -6 -119 -44 -374 -72 -470 -11 -39 -17 -46 -47 -52 -19 -4 -72
-5 -119 -2 -77 6 -87 5 -103 -14 -15 -16 -18 -29 -12 -61 13 -75 63 -111 157
-111 46 0 68 -4 68 -12 0 -6 -7 -41 -15 -77 -9 -36 -20 -85 -25 -108 -23 -99
-33 -133 -41 -133 -5 0 -9 -26 -9 -58 0 -33 -5 -96 -11 -141 -10 -76 -10 -83
7 -97 11 -8 36 -13 59 -11 38 2 41 5 75 68 19 36 42 76 51 90 10 13 20 56 24
94 3 39 10 84 15 100 5 17 19 64 31 105 12 41 26 79 31 85 4 5 8 21 8 36 0 14
5 40 10 56 10 28 15 31 72 37 33 3 80 6 103 6 49 0 50 -3 84 -125 37 -134 41
-151 41 -189 0 -20 4 -36 8 -36 10 0 47 -78 99 -210 34 -85 42 -97 75 -113 35
-17 39 -17 54 -2 22 22 21 101 -1 185 -10 36 -21 83 -25 105 -4 22 -15 60 -24
85 -10 25 -26 94 -37 153 -10 60 -21 113 -24 117 -3 5 -2 15 1 24 5 13 22 16
83 16 68 0 180 17 222 34 9 4 22 18 29 31 11 20 10 29 -7 57 -10 18 -34 41
-53 50 -35 18 -135 25 -143 11 -7 -11 -197 -3 -197 8 0 5 -8 28 -19 52 -10 23
-24 62 -31 87 -6 25 -16 53 -21 62 -5 10 -9 24 -9 32 0 23 -55 182 -73 209 -9
15 -17 35 -17 45 0 26 -20 82 -30 82 -4 0 -25 22 -45 49 -51 66 -101 87 -147
60z m138 -516 c4 -21 13 -51 20 -68 6 -16 15 -50 19 -75 l6 -45 -38 -2 c-69
-5 -69 -4 -37 195 7 43 21 41 30 -5z"/>
</g>
</svg>
