<?xml version="1.0"?><svg width="265.66891" height="287.93268" xmlns="http://www.w3.org/2000/svg" xmlns:xlink="http://www.w3.org/1999/xlink">
 <title>love birds on a branch</title>
 <metadata id="metadata7">image/svg+xml</metadata>
 <g>
  <title>Layer 1</title>
  <defs>
   <filter id="svg_682">
    <feGaussianBlur id="svg_683" stdDeviation="0.028007"/>
   </filter>
   <pattern patternTransform="translate(-84.1377, 510.395)" id="svg_482" xlink:href="#svg_511"/>
   <pattern patternTransform="matrix(0.880062, 0, 0, 0.880062, -58.8481, 577.678)" id="svg_676" xlink:href="#svg_511"/>
   <pattern patternTransform="matrix(0.880062, 0, 0, 0.880062, -58.8481, 577.678)" id="svg_674" xlink:href="#svg_511"/>
   <pattern patternTransform="matrix(0.880062, 0, 0, 0.880062, -58.8481, 577.678)" id="svg_672" xlink:href="#svg_511"/>
   <pattern patternTransform="matrix(0.880062, 0, 0, 0.880062, -58.8481, 577.678)" id="svg_670" xlink:href="#svg_511"/>
   <pattern patternTransform="matrix(0.880062, 0, 0, 0.880062, -58.8481, 577.678)" id="svg_668" xlink:href="#svg_511"/>
   <pattern patternTransform="translate(0.0672191, 0.0671756)" id="svg_681" xlink:href="#svg_736"/>
   <pattern patternTransform="translate(-79.9494, 517.532)" id="svg_736" xlink:href="#svg_684"/>
   <pattern patternTransform="translate(-212.763, 474.817)" id="svg_507" xlink:href="#svg_712"/>
   <pattern patternTransform="matrix(0.893653, 0, 0, 0.815661, -53.4473, 517.427)" id="svg_509" xlink:href="#svg_735"/>
   <pattern patternTransform="matrix(0.893653, 0, 0, 0.815661, -50.3653, 517.419)" id="svg_735" xlink:href="#svg_723"/>
   <pattern patternTransform="matrix(0.692326, 0, 0, 0.69244, 3.54248e-07, -1.90234e-05)" id="svg_723" xlink:href="#svg_724"/>
   <pattern patternTransform="matrix(0.73209, 0, 0, 0.714954, -6.45752e-07, 1.75391e-05)" id="svg_726" xlink:href="#svg_727"/>
   <pattern id="svg_727" patternTransform="matrix(0.73209, 0, 0, 0.714954, -50.3262, 517.536)" height="3.635903" width="3.551382" patternUnits="userSpaceOnUse">
    <path fill="#800000" d="m2.19847,0.29226c0.28594,0.31889 0.36332,0.78009 0.17283,1.03011c-0.19049,0.25002 -0.57671,0.19418 -0.86265,-0.12472c-0.28594,-0.31889 -0.36332,-0.78008 -0.17283,-1.0301c0.19049,-0.25002 0.57671,-0.19419 0.86265,0.12471z" id="svg_734"/>
    <path fill="#800000" id="svg_733" d="m1.25987,2.07843c-0.26906,0.3736 -0.68656,0.53954 -0.93251,0.37063c-0.24595,-0.16892 -0.22721,-0.60871 0.04186,-0.98231c0.26907,-0.3736 0.68656,-0.53954 0.93251,-0.37063c0.24595,0.16891 0.22721,0.6087 -0.04186,0.98231z"/>
    <path fill="#800000" d="m2.09614,3.11828c-0.37625,0.13239 -0.73541,-0.03663 -0.80221,-0.37752c-0.06679,-0.3409 0.18409,-0.72455 0.56035,-0.85694c0.37626,-0.13238 0.73541,0.03664 0.80221,0.37753c0.06678,0.34089 -0.18409,0.72455 -0.56035,0.85693z" id="svg_732"/>
    <path fill="#800000" d="m0.90538,0.59997c-0.07413,0.34353 -0.33108,0.63208 -0.57393,0.64449c-0.24285,0.01241 -0.37962,-0.25602 -0.3055,-0.59955c0.07413,-0.34354 0.33108,-0.63209 0.57393,-0.6445c0.24285,-0.01241 0.37962,0.25602 0.3055,0.59956z" id="svg_731"/>
    <path fill="#800000" id="svg_730" d="m3.12962,1.48654c-0.27786,0.13239 -0.5431,-0.03663 -0.59243,-0.37753c-0.04932,-0.34089 0.13595,-0.72454 0.41381,-0.85693c0.27787,-0.13238 0.54311,0.03664 0.59243,0.37753c0.04932,0.34089 -0.13594,0.72455 -0.41381,0.85693z"/>
    <path fill="#800000" id="svg_729" d="m3.51902,2.71922c0.03585,0.35104 -0.117,0.72001 -0.3414,0.8241c-0.2244,0.10409 -0.43537,-0.0961 -0.47122,-0.44715c-0.03585,-0.35104 0.117,-0.72 0.3414,-0.8241c0.2244,-0.10409 0.43537,0.0961 0.47122,0.44715z"/>
    <path fill="#800000" id="svg_728" d="m0.48139,3.62673c-0.32262,-0.05105 -0.53317,-0.30081 -0.47028,-0.55787c0.06288,-0.25705 0.37539,-0.42406 0.69801,-0.37302c0.32262,0.05105 0.53317,0.30081 0.47028,0.55787c-0.06289,0.25706 -0.37539,0.42406 -0.69801,0.37302z"/>
   </pattern>
   <pattern id="svg_724" patternTransform="matrix(0.692326, 0, 0, 0.69244, -50.3262, 517.536)" height="2.599502" width="2.599932" patternUnits="userSpaceOnUse">
    <rect fill="url(#svg_726)" width="2.599932" height="2.599502" x="0" y="0" id="svg_725"/>
   </pattern>
   <pattern id="svg_721" patternTransform="translate(-50.3262, 517.536)" height="1.8" width="1.8" patternUnits="userSpaceOnUse">
    <rect fill="url(#svg_723)" width="1.8" height="1.8" x="0" y="0" id="svg_722"/>
   </pattern>
   <pattern id="svg_712" patternTransform="translate(-50.4178, 517.402)" height="2.175213" width="2.341234" patternUnits="userSpaceOnUse">
    <path fill="#333333" id="svg_720" d="m0.64745,0.54334c-0.08455,0.11809 -0.21624,0.19802 -0.34541,0.20961c-0.12916,0.01161 -0.23614,-0.04686 -0.28059,-0.15336c-0.04447,-0.10649 -0.01961,-0.24482 0.06516,-0.36279c0.08454,-0.11808 0.21624,-0.19802 0.3454,-0.2096c0.12916,-0.01162 0.23615,0.04686 0.28059,0.15336c0.04447,0.10649 0.01961,0.24482 -0.06515,0.36278z"/>
    <path fill="#333333" d="m0.80062,1.02685c0.08028,0.12676 0.09675,0.27154 0.04313,0.37971c-0.0536,0.10817 -0.16909,0.16329 -0.30292,0.14455c-0.13382,-0.01871 -0.26562,-0.10845 -0.34567,-0.23533c-0.08029,-0.12676 -0.09675,-0.27154 -0.04312,-0.37971c0.05359,-0.10818 0.16909,-0.16329 0.30291,-0.14455c0.13383,0.01871 0.26562,0.10845 0.34567,0.23533z" id="svg_719"/>
    <path fill="#333333" id="svg_718" d="m1.50426,0.31448c0.10504,0.15122 0.14242,0.33267 0.09799,0.47589c-0.04439,0.14323 -0.16382,0.22645 -0.31321,0.21827c-0.14939,-0.00815 -0.30602,-0.10649 -0.41081,-0.25788c-0.10504,-0.15121 -0.14242,-0.33266 -0.09799,-0.47588c0.0444,-0.14323 0.16382,-0.22646 0.31321,-0.21828c0.14939,0.00815 0.30602,0.1065 0.41081,0.25788z"/>
    <path fill="#333333" d="m0.41985,2.17521c-0.13756,0.00015 -0.26477,-0.05301 -0.3336,-0.13946c-0.06886,-0.08643 -0.0689,-0.19299 -0.00009,-0.27946c0.06878,-0.08649 0.19595,-0.13974 0.33351,-0.13967c0.13756,-0.00016 0.26477,0.05301 0.33361,0.13946c0.06886,0.08643 0.06889,0.19299 0.00009,0.27947c-0.06878,0.08649 -0.19596,0.13973 -0.33352,0.13966z" id="svg_717"/>
    <path fill="#333333" d="m1.53942,1.83097c-0.13687,0.10252 -0.30415,0.14336 -0.43873,0.10706c-0.13459,-0.03627 -0.21601,-0.14413 -0.21354,-0.28288c0.00244,-0.13876 0.08842,-0.2873 0.22546,-0.3896c0.13687,-0.10252 0.30416,-0.14335 0.43874,-0.10705c0.13459,0.03627 0.21601,0.14413 0.21353,0.28288c-0.00243,0.13875 -0.08842,0.28729 -0.22546,0.38959z" id="svg_716"/>
    <path fill="#333333" d="m2.21879,0.54951c-0.08196,0.11604 -0.20138,0.18919 -0.31323,0.19179c-0.11185,0.00263 -0.1991,-0.06564 -0.22884,-0.17907c-0.02977,-0.11342 0.00252,-0.25475 0.08466,-0.37064c0.08195,-0.11605 0.20139,-0.18919 0.31323,-0.19179c0.11185,-0.00263 0.19911,0.06564 0.22885,0.17907c0.02976,0.11342 -0.00253,0.25474 -0.08467,0.37064z" id="svg_715"/>
    <path fill="#333333" id="svg_714" d="m2.30187,1.87822c-0.05208,0.1289 -0.14818,0.22612 -0.25206,0.25494c-0.10388,0.02884 -0.19974,-0.01507 -0.25141,-0.11518c-0.05168,-0.10009 -0.05131,-0.24116 0.00097,-0.36996c0.05207,-0.12891 0.14818,-0.22612 0.25207,-0.25494c0.10388,-0.02884 0.19974,0.01507 0.2514,0.11518c0.05169,0.10009 0.0513,0.24115 -0.00097,0.36996z"/>
    <path fill="#333333" id="svg_713" d="m2.03204,0.80549c0.11235,0.007 0.21344,0.05793 0.26511,0.13362c0.05168,0.07568 0.04611,0.16458 -0.01463,0.23317c-0.06072,0.0686 -0.16738,0.10644 -0.27972,0.09926c-0.11234,-0.00699 -0.21343,-0.05793 -0.2651,-0.13362c-0.05169,-0.07567 -0.04611,-0.16458 0.01463,-0.23317c0.06072,-0.0686 0.16738,-0.10643 0.27971,-0.09926z"/>
   </pattern>
   <pattern id="svg_497" patternTransform="translate(-50.3935, 512.782)" height="4" width="4" patternUnits="userSpaceOnUse">
    <g fill="#800000" id="svg_703" transform="matrix(1.71954,0.0532923,-0.0494765,1.85216,117.386,-950.24) ">
     <path fill="#800000" d="m-52.7938,515.085754c-0.130779,0.182373 -0.362339,0.261536 -0.517208,0.17688c-0.154881,-0.084656 -0.174412,-0.301086 -0.043633,-0.483398c0.130772,-0.182312 0.362331,-0.261475 0.517212,-0.17688c0.154869,0.084656 0.174408,0.301086 0.043629,0.483398z" id="svg_711"/>
     <path fill="#800000" id="svg_710" d="m-52.640629,515.569275c0.123848,0.195923 0.088707,0.419434 -0.078491,0.499207c-0.167198,0.079773 -0.403118,-0.014343 -0.52697,-0.210266c-0.123852,-0.195923 -0.088711,-0.419373 0.078491,-0.499207c0.167198,-0.079773 0.403118,0.014343 0.52697,0.210266z"/>
     <path fill="#800000" d="m-51.936989,514.856934c0.162079,0.233704 0.15332,0.520874 -0.019562,0.641357c-0.172878,0.120422 -0.444401,0.028625 -0.606468,-0.205078c-0.162071,-0.233765 -0.15332,-0.520874 0.019569,-0.641357c0.172878,-0.120483 0.444389,-0.028687 0.606461,0.205078z" id="svg_709"/>
     <path fill="#800000" id="svg_708" d="m-53.0214,516.717651c-0.212498,0.000061 -0.3848,-0.124939 -0.38485,-0.279175c-0.00005,-0.154236 0.172169,-0.279358 0.38467,-0.279419c0.212509,-0.000061 0.384811,0.124939 0.384861,0.279175c0.00005,0.154236 -0.172173,0.279358 -0.384682,0.279419z"/>
     <path fill="#800000" id="svg_707" d="m-51.901829,516.373413c-0.211571,0.158203 -0.478622,0.159851 -0.596481,0.003723c-0.11787,-0.156128 -0.041901,-0.41095 0.16967,-0.569153c0.211571,-0.158203 0.478619,-0.159851 0.596489,-0.003723c0.117863,0.156128 0.041901,0.41095 -0.169678,0.569153z"/>
     <path fill="#800000" id="svg_706" d="m-51.222462,515.09198c-0.126747,0.179138 -0.331879,0.244263 -0.458187,0.145386c-0.12632,-0.098816 -0.125961,-0.324158 0.000778,-0.503357c0.126751,-0.179138 0.331882,-0.244263 0.458202,-0.145386c0.126308,0.098816 0.125957,0.324158 -0.000793,0.503357z"/>
     <path fill="#800000" d="m-51.139381,516.420654c-0.080597,0.199036 -0.258419,0.308899 -0.39719,0.2453c-0.13876,-0.063538 -0.185909,-0.276428 -0.105309,-0.475525c0.080601,-0.199036 0.25843,-0.308838 0.39719,-0.2453c0.138771,0.063599 0.185921,0.276489 0.105309,0.475525z" id="svg_705"/>
     <path fill="#800000" d="m-51.40921,515.347961c0.17355,0.010925 0.30769,0.124084 0.29961,0.252808c-0.00808,0.128723 -0.1553,0.224182 -0.32885,0.213196c-0.17355,-0.010925 -0.307682,-0.124146 -0.29961,-0.252808c0.00808,-0.128723 0.1553,-0.224182 0.32885,-0.213196z" id="svg_704"/>
    </g>
   </pattern>
   <pattern id="svg_494" patternTransform="translate(-50.6334, 507.297)" height="4.508552" width="4.531986" patternUnits="userSpaceOnUse">
    <g id="svg_693">
     <path fill="#800000" id="svg_702" d="m0.79009,2.82555c-0.43626,0.00012 -0.78998,-0.23455 -0.79008,-0.52419c-0.00011,-0.28965 0.35345,-0.52451 0.7897,-0.52464c0.43626,-0.00012 0.78998,0.23455 0.79008,0.52419c0.00011,0.28965 -0.35345,0.52452 -0.7897,0.52464z"/>
     <path fill="#800000" id="svg_701" d="m3.82611,1.481c-0.45448,0.31616 -0.8984,0.29682 -0.99156,-0.04324c-0.09315,-0.34001 0.19974,-0.87197 0.65422,-1.18813c0.45447,-0.31616 0.89841,-0.29677 0.99156,0.04324c0.09316,0.34005 -0.19974,0.87197 -0.65422,1.18813z"/>
     <path fill="#800000" d="m2.31355,1.64747c0.32663,0.02919 0.57908,0.33114 0.56388,0.67444c-0.01519,0.34331 -0.29228,0.59792 -0.61891,0.56873c-0.32662,-0.02919 -0.57908,-0.33112 -0.56388,-0.67444c0.01519,-0.34329 0.29228,-0.59792 0.61891,-0.56873z" id="svg_700"/>
     <path fill="#800000" d="m3.74229,2.77869c-0.43626,0.00012 -0.78998,-0.23455 -0.79008,-0.52419c-0.0001,-0.28965 0.35345,-0.52451 0.7897,-0.52464c0.43626,-0.00012 0.78998,0.23455 0.79008,0.52419c0.00011,0.28965 -0.35345,0.52452 -0.7897,0.52464z" id="svg_699"/>
     <path fill="#800000" id="svg_698" d="m2.79041,0.7897c0.00012,0.43625 -0.23456,0.78997 -0.52419,0.79007c-0.28964,0.00011 -0.52452,-0.35345 -0.52464,-0.7897c-0.00012,-0.43626 0.23455,-0.78998 0.52419,-0.79008c0.28963,-0.0001 0.52451,0.35345 0.52464,0.78971z"/>
     <path fill="#800000" d="m2.81383,3.71846c0.00013,0.43626 -0.23455,0.78998 -0.52418,0.79008c-0.28964,0.0001 -0.52452,-0.35345 -0.52464,-0.78971c-0.00012,-0.43625 0.23455,-0.78997 0.52419,-0.79007c0.28964,-0.00011 0.52451,0.35345 0.52464,0.7897l-0.00001,0z" id="svg_697"/>
     <path fill="#800000" d="m1.04964,4.2809c-0.45448,0.31616 -0.8984,0.29682 -0.99157,-0.04324c-0.09315,-0.34001 0.19974,-0.87197 0.65422,-1.18813c0.45448,-0.31616 0.89842,-0.29677 0.99157,0.04324c0.09316,0.34005 -0.19974,0.87197 -0.65422,1.18813z" id="svg_696"/>
     <path fill="#800000" id="svg_695" d="m1.49665,0.72009c0.31616,0.45448 0.2968,0.89841 -0.04323,0.99157c-0.34006,0.09316 -0.87197,-0.19974 -1.18813,-0.65422c-0.31616,-0.45448 -0.29682,-0.89841 0.04323,-0.99157c0.34004,-0.09316 0.87197,0.19974 1.18813,0.65422z"/>
     <path fill="#800000" d="m4.24969,3.4497c0.31616,0.45448 0.2968,0.89841 -0.04323,0.99156c-0.34006,0.09317 -0.87197,-0.19973 -1.18813,-0.65421c-0.31616,-0.45448 -0.29682,-0.89841 0.04323,-0.99157c0.34004,-0.09316 0.87197,0.19974 1.18813,0.65422z" id="svg_694"/>
    </g>
   </pattern>
   <pattern id="svg_684" patternTransform="translate(-82.2386, 518.899)" height="5.602892" width="5.599999" patternUnits="userSpaceOnUse">
    <path fill="#800000" id="svg_692" d="m1.54863,1.40171c-0.20223,0.304 -0.51722,0.5098 -0.82617,0.53963c-0.30894,0.0299 -0.56484,-0.12065 -0.67114,-0.39483c-0.10637,-0.27416 -0.04692,-0.63028 0.15584,-0.93397c0.20222,-0.30401 0.51723,-0.50979 0.82617,-0.53962c0.30894,-0.0299 0.56484,0.12064 0.67115,0.39482c0.10636,0.27416 0.04689,0.63027 -0.15585,0.93397z"/>
    <path fill="#800000" d="m1.98906,2.64646c0.19203,0.32635 0.23141,0.69908 0.10315,0.97755c-0.12819,0.27849 -0.40445,0.42039 -0.72454,0.37215c-0.3201,-0.04817 -0.63535,-0.2792 -0.82681,-0.60585c-0.19206,-0.32634 -0.23142,-0.69908 -0.10316,-0.97755c0.12819,-0.2785 0.40445,-0.4204 0.72454,-0.37216c0.3201,0.04818 0.63533,0.27922 0.82682,0.60586z" id="svg_691"/>
    <path fill="#740000" id="svg_690" d="m3.59807,0.6644c0.25122,0.3893 0.34064,0.85643 0.23437,1.22515c-0.10619,0.36874 -0.39184,0.583 -0.74916,0.56193c-0.35732,-0.02098 -0.73199,-0.27415 -0.98262,-0.6639c-0.25125,-0.38929 -0.34065,-0.85644 -0.23438,-1.22515c0.1062,-0.36874 0.39184,-0.583 0.74916,-0.56193c0.35733,0.02098 0.73197,0.27417 0.98263,0.6639z"/>
    <path fill="#7b0000" d="m1.00426,5.60289c-0.32903,0.00038 -0.6333,-0.13648 -0.79795,-0.35904c-0.16471,-0.22251 -0.16479,-0.49684 -0.00022,-0.71947c0.16452,-0.22267 0.46871,-0.35975 0.79774,-0.35957c0.32903,-0.0004 0.6333,0.13648 0.79795,0.35904c0.16471,0.22252 0.16479,0.49685 0.00022,0.71947c-0.16452,0.22267 -0.46871,0.35973 -0.79774,0.35957z" id="svg_689"/>
    <path fill="#800000" d="m3.68215,4.71665c-0.3274,0.26392 -0.72752,0.36907 -1.04942,0.27561c-0.32191,-0.09337 -0.51666,-0.37105 -0.51075,-0.72826c0.00583,-0.35722 0.21149,-0.73965 0.53928,-1.00299c0.32738,-0.26395 0.72752,-0.36906 1.04942,-0.27561c0.32192,0.09337 0.51666,0.37105 0.51075,0.72827c-0.00583,0.35721 -0.2115,0.73961 -0.53928,1.00298z" id="svg_688"/>
    <path fill="#800000" d="m5.30715,1.41758c-0.19604,0.29874 -0.48169,0.48704 -0.74922,0.49375c-0.26753,0.00678 -0.47624,-0.169 -0.54737,-0.46102c-0.0712,-0.29199 0.00604,-0.65583 0.20251,-0.9542c0.19602,-0.29876 0.48169,-0.48705 0.74922,-0.49375c0.26753,-0.00678 0.47624,0.169 0.54738,0.46101c0.07119,0.29199 -0.00607,0.65582 -0.20252,0.95421z" id="svg_687"/>
    <path fill="#800000" id="svg_686" d="m5.50586,4.8383c-0.12457,0.33184 -0.35443,0.58212 -0.60292,0.65632c-0.24847,0.07426 -0.47775,-0.0388 -0.60133,-0.29651c-0.12363,-0.25768 -0.12273,-0.62086 0.00232,-0.95247c0.12455,-0.33185 0.35443,-0.58212 0.60292,-0.65631c0.24847,-0.07426 0.47775,0.03879 0.60133,0.29651c0.12363,0.25768 0.12271,0.62085 -0.00232,0.95246z"/>
    <path fill="#800000" id="svg_685" d="m4.86045,2.0766c0.26873,0.01801 0.51052,0.14914 0.63411,0.344c0.12363,0.19482 0.11029,0.42371 -0.03499,0.60028c-0.14524,0.17661 -0.40036,0.27404 -0.66905,0.25555c-0.26872,-0.01799 -0.51052,-0.14914 -0.63411,-0.34399c-0.12363,-0.19483 -0.11029,-0.42371 0.03499,-0.60029c0.14524,-0.17661 0.40036,-0.27401 0.66905,-0.25555z"/>
   </pattern>
   <pattern id="svg_511" patternTransform="translate(-80.0166, 517.465)" height="5.737327" width="5.734434" patternUnits="userSpaceOnUse">
    <rect fill="url(#svg_681)" filter="url(#svg_682)" width="5.599999" height="5.602892" x="0.067217" y="0.067217" id="svg_680"/>
   </pattern>
  </defs>
  <metadata id="svg_679">image/svg+xml</metadata>
  <g transform="matrix(0.580874,0,0,0.546221,113.568,39.5637) " id="svg_981">
   <g transform="matrix(0.230807,0,0,0.230807,156,56) " id="svg_973">
    <path fill="#005b7c" fill-rule="evenodd" clip-rule="evenodd" id="svg_980" d="m-127.129936,185.492981c4.84301,13.10498 13.582993,18.122009 11.341057,32.994019c-2.535889,16.817993 -5.322998,29.709961 -0.013924,46.822998c10.967056,35.35199 45.660896,50.359985 74.323982,67.682983c15.217041,9.195984 26.529051,22.355957 37.943111,35.707031c12.26587,14.346924 26.78394,27.51001 36.365971,43.86499c9.422848,16.083008 15.429928,34.244995 23.546879,51.008972c9.342037,19.294006 18.258053,38.265991 24.049068,58.970032c4.452881,15.919983 6.174072,32.289001 5.98291,48.778015c4.883064,-18.099976 -7.984856,-44.513977 -12.331062,-61.765076c-6.708977,-26.637939 -13.418938,-53.273987 -20.128895,-79.911987c23.987057,36.875 47.974117,73.75 71.960941,110.625061c-9.786873,-25.704041 -29.192902,-45.251038 -43.411873,-68.315063c-15.16407,-24.597961 -25.23315,-52.440002 -38.71899,-78.020935c18.379871,23.103943 40.145992,41.963989 62.573971,60.939941c-0.140137,-4.666992 2.292969,-9.447021 0.391853,-13.585999c-2.032974,-4.424988 -8.13282,-6.833008 -10.557861,-11.644958c-8.194099,-16.255005 -14.126961,-28.36499 -26.13208,-42.830017c-25.378922,-30.580017 -51.586922,-57.378967 -68.312992,-93.901001c-8.29688,-18.117981 -16.38501,-36.32605 -26.01099,-53.78302c-9.494869,-17.218018 -21.330082,-31.070984 -31.682861,-47.426025c-8.495117,-13.419983 -13.049072,-22.21698 -26.39917,-31.052002c-9.333008,-6.176941 -31.260986,-3.594971 -39.305908,3.882019c-3.708984,3.447021 -4.399902,10.410034 -7.822021,13.197998c-4.955078,4.037048 -15.177979,0.837036 -19.945068,5.821045c6.942139,2.362976 15.0271,1.652954 22.293953,1.940979"/>
    <path fill="#005b7c" stroke="#000000" stroke-width="0.3806" stroke-linecap="square" stroke-miterlimit="10" id="svg_979" d="m-127.129936,185.492981c4.84301,13.10498 13.582993,18.122009 11.341057,32.994019c-2.535889,16.817993 -5.322998,29.709961 -0.013924,46.822998c10.967056,35.35199 45.660896,50.359985 74.323982,67.682983c15.217041,9.195984 26.529051,22.355957 37.943111,35.707031c12.26587,14.346924 26.78394,27.51001 36.365971,43.86499c9.422848,16.083008 15.429928,34.244995 23.546879,51.008972c9.342037,19.294006 18.258053,38.265991 24.049068,58.970032c4.452881,15.919983 6.174072,32.289001 5.98291,48.778015c4.883064,-18.099976 -7.984856,-44.513977 -12.331062,-61.765076c-6.708977,-26.637939 -13.418938,-53.273987 -20.128895,-79.911987c23.987057,36.875 47.974117,73.75 71.960941,110.625061c-9.786873,-25.704041 -29.192902,-45.251038 -43.411873,-68.315063c-15.16407,-24.597961 -25.23315,-52.440002 -38.71899,-78.020935c18.379871,23.103943 40.145992,41.963989 62.573971,60.939941c-0.140137,-4.666992 2.292969,-9.447021 0.391853,-13.585999c-2.032974,-4.424988 -8.13282,-6.833008 -10.557861,-11.644958c-8.194099,-16.255005 -14.126961,-28.36499 -26.13208,-42.830017c-25.378922,-30.580017 -51.586922,-57.378967 -68.312992,-93.901001c-8.29688,-18.117981 -16.38501,-36.32605 -26.01099,-53.78302c-9.494869,-17.218018 -21.330082,-31.070984 -31.682861,-47.426025c-8.495117,-13.419983 -13.049072,-22.21698 -26.39917,-31.052002c-9.699951,-6.418945 -30.803947,-3.250977 -39.305908,3.882019c-0.813957,0.683044 -1.637939,1.536011 -2.34594,2.329041"/>
    <path fill="#005b7c" stroke="#000000" stroke-width="0.3806" stroke-linecap="square" stroke-miterlimit="10" id="svg_978" d="m-124.00177,166.862c-1.876953,3.109985 -3.650146,10.940979 -7.286133,11.45697c-5.856934,0.832031 -14.238037,1.158997 -18.13501,5.233032c6.941162,2.362 15.026123,1.652954 22.292976,1.940002"/>
    <path fill="#005b7c" fill-rule="evenodd" clip-rule="evenodd" id="svg_977" d="m-82.546944,353.565002c4.465096,-2.399048 8.92408,-4.843994 13.689217,-6.598022c-1.38916,0.362 -4.082031,1.968994 -5.085205,2.329041c-0.406006,-0.156067 0.789063,-0.800049 0.39209,-0.777039c0.399902,1.619995 0.88501,3.713989 1.174072,6.210999c4.851807,-10.432007 4.031013,-10.429016 15.251949,-9.315002c9.14307,0.906982 11.700932,2.294006 19.556892,7.375c-3.950932,-9.078003 -10.877934,-10.973022 -19.556892,-6.988037c2.66309,-8.725952 13.926029,-10.875 21.900879,-11.643921c-9.522949,-4.508057 -17.551018,5.937988 -26.006828,8.732971c-7.808109,2.58197 -17.13306,2.470947 -21.316174,10.674011"/>
    <path fill="#005b7c" stroke="#000000" stroke-width="0.3806" stroke-linecap="square" stroke-miterlimit="10" id="svg_976" d="m-82.546944,353.565002c4.465096,-2.399048 8.92408,-4.843994 13.689217,-6.598022c-1.38916,0.362 -4.082031,1.968994 -5.085205,2.329041c-0.406006,-0.156067 0.789063,-0.800049 0.39209,-0.777039c0.399902,1.619995 0.88501,3.713989 1.174072,6.210999c4.851807,-10.432007 4.031013,-10.429016 15.251949,-9.315002c9.14307,0.906982 11.700932,2.294006 19.556892,7.375c-3.950932,-9.078003 -10.877934,-10.973022 -19.556892,-6.988037c2.66309,-8.725952 13.926029,-10.875 21.900879,-11.643921c-9.522949,-4.508057 -17.551018,5.937988 -26.006828,8.732971c-7.808109,2.58197 -17.13306,2.470947 -21.316174,10.674011"/>
    <path fill="#005b7c" fill-rule="evenodd" clip-rule="evenodd" id="svg_975" d="m-82.546944,334.15802c4.512215,-2.427002 9.083992,-4.740051 13.689217,-6.986084c-1.350105,0.331055 -3.641113,2.078064 -5.085205,2.717041c2.63623,0.792969 0.5271,0.661987 1.565186,5.432983c4.943848,-10.626953 3.969963,-10.438965 15.251957,-9.315002c8.734859,0.870056 12.123039,1.646057 19.556881,6.986023c-3.933842,-9.474976 -11.085941,-9.886963 -19.556881,-6.986023c3.063961,-8.546936 13.821041,-10.478943 21.900879,-11.256958c-8.75684,-4.901062 -18.301029,5.138 -26.00684,8.539978c-7.404053,3.269043 -17.530029,2.234009 -21.315193,10.868042"/>
    <path fill="#005b7c" stroke="#000000" stroke-width="0.3806" stroke-linecap="square" stroke-miterlimit="10" id="svg_974" d="m-82.546944,334.15802c4.512215,-2.427002 9.083992,-4.740051 13.689217,-6.986084c-1.350105,0.331055 -3.641113,2.078064 -5.085205,2.717041c2.63623,0.792969 0.5271,0.661987 1.565186,5.432983c4.943848,-10.626953 3.969963,-10.438965 15.251957,-9.315002c8.734859,0.870056 12.123039,1.646057 19.556881,6.986023c-3.933842,-9.474976 -11.085941,-9.886963 -19.556881,-6.986023c3.063961,-8.546936 13.821041,-10.478943 21.900879,-11.256958c-8.75684,-4.901062 -18.301029,5.138 -26.00684,8.539978c-7.404053,3.269043 -17.530029,2.234009 -21.315193,10.868042"/>
   </g>
  </g>
  <g transform="matrix(0.532311,0,0,0.545191,69.8601,12.2802) " id="svg_990">
   <g transform="matrix(-0.195112,0,0,0.18968,167.008,63.8603) " id="svg_982">
    <path fill="#005b7c" fill-rule="evenodd" clip-rule="evenodd" id="svg_989" d="m-208.442871,526.515137c4.843018,13.104919 13.583008,18.121887 11.34082,32.993958c-2.535889,16.817993 -5.322998,29.709961 -0.013916,46.822998c10.967041,35.352051 45.660889,50.359985 74.323975,67.682983c15.217041,9.195923 26.529053,22.356079 37.943115,35.707031c12.265869,14.347046 26.783936,27.51001 36.365967,43.86499c9.422859,16.083008 15.429939,34.244995 23.546881,51.008911c9.342039,19.294067 18.25806,38.266113 24.049069,58.970093c4.45288,15.920044 6.17407,32.28894 5.98291,48.777954c4.88306,-18.099976 -7.98486,-44.513916 -12.33105,-61.764893c-6.70899,-26.638062 -13.418951,-53.27417 -20.12891,-79.912109c23.98706,36.875 47.974119,73.75 71.960941,110.625c-9.78688,-25.703979 -29.192871,-45.250977 -43.411881,-68.314941c-15.16406,-24.598022 -25.23315,-52.439941 -38.718989,-78.020996c18.379869,23.104004 40.145999,41.963989 62.573969,60.939941c-0.139879,-4.666992 2.29298,-9.447021 0.391861,-13.585938c-2.03297,-4.425049 -8.13282,-6.833008 -10.557871,-11.64502c-8.194079,-16.255005 -14.12695,-28.36499 -26.13208,-42.830078c-25.378899,-30.579956 -51.586918,-57.378906 -68.312977,-93.900879c-8.29689,-18.118042 -16.38501,-36.32605 -26.011009,-53.783081c-9.49485,-17.218018 -21.329811,-31.070923 -31.682846,-47.426025c-8.495132,-13.419861 -13.049072,-22.216888 -26.39917,-31.051849c-9.333023,-6.177002 -31.260971,-3.595093 -39.305923,3.881958c-3.708969,3.446899 -4.399887,10.409943 -7.822021,13.198029c-4.955078,4.036987 -15.177979,0.836914 -19.945068,5.820923c6.942139,2.363037 15.0271,1.653076 22.294189,1.94104"/>
    <path fill="#005b7c" stroke="#000000" stroke-width="0.3806" stroke-linecap="square" stroke-miterlimit="10" id="svg_988" d="m-208.442871,526.515137c4.843018,13.104919 13.583008,18.121887 11.34082,32.993958c-2.535889,16.817993 -5.322998,29.709961 -0.013916,46.822998c10.967041,35.352051 45.660889,50.359985 74.323975,67.682983c15.217041,9.195923 26.529053,22.356079 37.943115,35.707031c12.265869,14.347046 26.783936,27.51001 36.365967,43.86499c9.422859,16.083008 15.429939,34.244995 23.546881,51.008911c9.342039,19.294067 18.25806,38.266113 24.049069,58.970093c4.45288,15.920044 6.17407,32.28894 5.98291,48.777954c4.88306,-18.099976 -7.98486,-44.513916 -12.33105,-61.764893c-6.70899,-26.638062 -13.418951,-53.27417 -20.12891,-79.912109c23.98706,36.875 47.974119,73.75 71.960941,110.625c-9.78688,-25.703979 -29.192871,-45.250977 -43.411881,-68.314941c-15.16406,-24.598022 -25.23315,-52.439941 -38.718989,-78.020996c18.379869,23.104004 40.145999,41.963989 62.573969,60.939941c-0.139879,-4.666992 2.29298,-9.447021 0.391861,-13.585938c-2.03297,-4.425049 -8.13282,-6.833008 -10.557871,-11.64502c-8.194079,-16.255005 -14.12695,-28.36499 -26.13208,-42.830078c-25.378899,-30.579956 -51.586918,-57.378906 -68.312977,-93.900879c-8.29689,-18.118042 -16.38501,-36.32605 -26.011009,-53.783081c-9.49485,-17.218018 -21.329811,-31.070923 -31.682846,-47.426025c-8.495132,-13.419861 -13.049072,-22.216888 -26.39917,-31.051849c-9.699951,-6.419067 -30.803955,-3.251099 -39.305923,3.881958c-0.81395,0.682983 -1.637939,1.536011 -2.345917,2.328979"/>
    <path fill="#005b7c" stroke="#000000" stroke-width="0.3806" stroke-linecap="square" stroke-miterlimit="10" id="svg_987" d="m-205.314941,507.884125c-1.876953,3.109985 -3.650146,10.940948 -7.286133,11.457062c-5.856934,0.831909 -14.237793,1.158936 -18.13501,5.23291c6.941162,2.362061 15.026123,1.653076 22.293213,1.940063"/>
    <path fill="#005b7c" fill-rule="evenodd" clip-rule="evenodd" id="svg_986" d="m-163.859863,694.587097c4.464844,-2.399048 8.923828,-4.843994 13.688965,-6.598022c-1.38916,0.362061 -4.082031,1.968994 -5.085205,2.328979c-0.405762,-0.156006 0.789063,-0.799927 0.39209,-0.776978c0.400146,1.619995 0.88501,3.713989 1.174072,6.210938c4.852051,-10.431885 4.031006,-10.428955 15.251953,-9.314941c9.143066,0.906982 11.700928,2.293945 19.557129,7.375c-3.951172,-9.078003 -10.878174,-10.973022 -19.557129,-6.988037c2.663086,-8.725952 13.926025,-10.875 21.901115,-11.643921c-9.523186,-4.508057 -17.551018,5.937988 -26.007072,8.733032c-7.808105,2.581909 -17.133057,2.470947 -21.315918,10.67395"/>
    <path fill="#005b7c" stroke="#000000" stroke-width="0.3806" stroke-linecap="square" stroke-miterlimit="10" id="svg_985" d="m-163.859863,694.587097c4.464844,-2.399048 8.923828,-4.843994 13.688965,-6.598022c-1.38916,0.362061 -4.082031,1.968994 -5.085205,2.328979c-0.405762,-0.156006 0.789063,-0.799927 0.39209,-0.776978c0.400146,1.619995 0.88501,3.713989 1.174072,6.210938c4.852051,-10.431885 4.031006,-10.428955 15.251953,-9.314941c9.143066,0.906982 11.700928,2.293945 19.557129,7.375c-3.951172,-9.078003 -10.878174,-10.973022 -19.557129,-6.988037c2.663086,-8.725952 13.926025,-10.875 21.901115,-11.643921c-9.523186,-4.508057 -17.551018,5.937988 -26.007072,8.733032c-7.808105,2.581909 -17.133057,2.470947 -21.315918,10.67395"/>
    <path fill="#005b7c" fill-rule="evenodd" clip-rule="evenodd" id="svg_984" d="m-163.859863,675.180115c4.511963,-2.427002 9.083984,-4.740112 13.688965,-6.985962c-1.350098,0.330933 -3.641113,2.077881 -5.085205,2.716919c2.63623,0.793091 0.5271,0.661987 1.565186,5.432983c4.943848,-10.626953 3.969971,-10.438965 15.251953,-9.314941c8.735107,0.869995 12.123047,1.645996 19.556885,6.985962c-3.933838,-9.474976 -11.085938,-9.886963 -19.556885,-6.985962c3.063965,-8.546997 13.821045,-10.479004 21.900871,-11.25708c-8.756828,-4.900879 -18.300774,5.138062 -26.006828,8.540039c-7.404053,3.269043 -17.530029,2.234009 -21.314941,10.868042"/>
    <path fill="#005b7c" stroke="#000000" stroke-width="0.3806" stroke-linecap="square" stroke-miterlimit="10" id="svg_983" d="m-163.859863,675.180115c4.511963,-2.427002 9.083984,-4.740112 13.688965,-6.985962c-1.350098,0.330933 -3.641113,2.077881 -5.085205,2.716919c2.63623,0.793091 0.5271,0.661987 1.565186,5.432983c4.943848,-10.626953 3.969971,-10.438965 15.251953,-9.314941c8.735107,0.869995 12.123047,1.645996 19.556885,6.985962c-3.933838,-9.474976 -11.085938,-9.886963 -19.556885,-6.985962c3.063965,-8.546997 13.821045,-10.479004 21.900871,-11.25708c-8.756828,-4.900879 -18.300774,5.138062 -26.006828,8.540039c-7.404053,3.269043 -17.530029,2.234009 -21.314941,10.868042"/>
   </g>
  </g>
  <g id="svg_1004" transform="rotate(-98.29530334472656 128.53207397460935,157.49014282226562) matrix(0.463725,0,0,-1.43838,169.526,904.004) ">
   <metadata id="svg_1006">image/svg+xml</metadata>
   <g id="svg_1007" transform="matrix(0.441545,0,0,0.350201,2.01049,0.428472) ">
    <g id="svg_1008">
     <path id="svg_1009" fill="#4c4c4c" fill-rule="nonzero" stroke-width="1px" d="m-259.133209,1594.920166c-5.077728,-2.641113 -10.207611,-4.947021 -14.913544,-8.33374c-10.056519,-7.706055 -18.564941,-16.622559 -25.948975,-26.896973c-8.472931,-11.733887 -11.070679,-25.171875 -11.315063,-39.318359c1.427246,-14.806641 9.026367,-26.431152 19.117188,-36.821777c12.297974,-10.630859 26.767578,-18.044434 42.583694,-21.563965c17.509888,-3.31543 34.811035,-0.540039 51.7146,4.226563c15.620239,5.002441 28.552338,14.250488 38.52063,27.124023c9.231567,14.171875 6.759521,28.649414 0.916504,43.476074c-9.0625,17.610352 -22.656006,32.242188 -35.16272,47.405762c-13.734497,15.316162 -24.492432,32.687256 -33.416504,51.128174c-3.05481,11.607422 -9.776978,24.223145 -8.122803,36.04248c0.140015,1.000488 -1.2771,1.197266 -1.41507,0.196777l0,0c-2.02124,-14.672363 -6.12973,-25.500977 3.087158,-39.515137c9.786407,-18.427734 22.734253,-34.793945 34.457428,-51.999756c10.872284,-15.280273 22.190186,-30.486816 30.410156,-47.404297c4.800171,-11.29541 6.876465,-22.38916 1.282227,-33.913574c-7.424561,-12.870117 -18.485352,-21.390137 -32.374268,-26.716797c-15.756104,-5.428223 -32.136261,-7.564453 -48.702393,-4.687012c-15.16658,3.382813 -29.669266,7.339355 -40.667679,19.148926c-8.895874,9.635254 -15.779816,20.580078 -16.775055,33.999512c-0.888062,13.134766 2.60672,25.209961 9.891022,36.234375c7.157104,9.532715 15.681885,18.162598 25.425903,25.0625c4.02478,2.996094 7.935425,7.369141 12.914063,8.439453c3.402924,0.731689 1.581665,6.292725 -1.5065,4.686768z"/>
     <path id="svg_1010" fill="#4c4c4c" fill-rule="nonzero" stroke-width="1px" d="m-115.078537,1323.6875c4.972771,-2.520508 10.33593,-3.69165 15.75927,-4.790771c11.285278,-1.807861 22.673096,-1.259521 33.885864,0.647217c10.961792,3.009521 18.968513,10.196533 26.357422,18.422852c6.50769,8.882324 8.394171,17.80957 4.309811,28.066895c-5.430168,11.007324 -16.412838,17.081055 -26.373531,23.447754c-12.290039,7.348633 -24.938721,14.049316 -37.482552,20.944824c-14.44445,7.148438 -27.381828,16.517578 -39.9608,26.481934c-14.420288,11.944336 -26.036499,26.558105 -35.906738,42.365723c-9.792358,14.862305 -14.708893,31.665527 -17.640778,49.020996c-2.784149,13.042969 -0.153412,25.415039 4.351105,37.65918c0.348755,0.948242 -0.993408,1.440918 -1.341064,0.492676l0,0c-4.563354,-12.450684 -6.791382,-25.318359 -6.390167,-38.637695c2.16629,-18.130371 8.557037,-34.790039 18.356354,-50.23877c10.387817,-15.879883 21.283936,-31.567383 35.654907,-44.169922c12.318237,-10.734375 25.598999,-20.367188 39.679062,-28.675293c12.227676,-6.998535 24.641731,-13.787598 36.116837,-21.989258c7.979729,-5.724121 15.871086,-11.775391 20.626575,-20.597168c2.262451,-6.584961 2.892223,-12.873291 -0.837029,-19.171143c-4.713989,-8.416748 -12.32056,-14.170166 -21.165531,-17.901367c-10.143066,-4.541016 -20.688972,-6.051025 -31.651115,-3.518311c-5.106941,1.237549 -10.2323,2.686279 -14.943001,5.064209c-2.048096,1.033936 -3.451172,-1.887451 -1.4049,-2.924561z"/>
     <path id="svg_1011" fill="#4c4c4c" fill-rule="nonzero" stroke-width="1px" d="m-144.559738,1478.973633c1.660522,-2.41748 4.790161,-3.422363 7.427124,-4.618164c7.371216,-3.457031 13.661377,-8.562012 19.538811,-14.109375c8.010132,-7.794434 13.85363,-17.135254 19.102295,-26.899902c4.392342,-9.651855 6.236328,-20.259277 5.915771,-30.817383c-1.164063,-7.236816 -2.571297,-14.54541 -9.195435,-18.435059c-0.870972,-0.511719 -0.1427,-1.745605 0.726189,-1.230469l0,0c8.565926,5.080078 16.640869,8.228027 15.79187,19.966797c-1.16333,11.397949 -5.921257,21.479492 -10.978386,31.651367c-4.831299,10.307617 -11.078255,19.875 -18.762688,28.306641c-5.685806,6.281738 -11.645393,12.29541 -18.116821,17.775879c-2.087158,1.803711 -4.522095,4.251465 -7.205811,4.518066c-5.233521,0.52002 -7.220703,-1.773438 -4.24292,-6.108398z"/>
     <path id="svg_1012" fill="#4c4c4c" fill-rule="nonzero" stroke-width="1px" d="m-218.620438,1607.354248c0.880615,-3.320801 4.056061,-5.701172 6.278351,-8.368652c5.548706,-7.371094 8.772705,-15.713623 11.423706,-24.462646c1.9198,-10.175781 1.761597,-20.39502 -1.136108,-30.327148c-2.361847,-8.290039 -7.018677,-15.609863 -13.249878,-21.502441c-6.661285,-6.011719 -14.574005,-6.775879 -23.126465,-5.737793c-5.893677,0.90332 -10.802734,3.486328 -15.803818,6.533203c-0.862671,0.525391 -1.605804,-0.695801 -0.742676,-1.220703l0,0c5.138657,-3.123535 10.133408,-6.569336 15.752426,-8.799805c10.442993,-3.400391 20.644745,-4.149414 29.912476,2.841797c7.757202,7.240723 12.758423,15.937012 14.815674,26.45166c1.151581,11.103027 0.474243,22.046875 -3.526611,32.599121c-2.508423,9.07666 -5.453369,18.25708 -9.967285,26.536377c-1.762329,3.271484 -3.401367,7.325684 -6.914917,8.651855c-3.24173,1.223633 -4.603027,0.153809 -3.714874,-3.194824z"/>
     <path id="svg_1013" fill="#4c4c4c" fill-rule="nonzero" stroke-width="1px" d="m-172.697952,1547.200684c2.465973,-2.000977 3.960358,-4.804199 5.595337,-7.470215c4.230133,-7.087891 9.269684,-13.621582 14.458649,-20.021484c7.44751,-9.285645 15.742798,-17.808594 24.289551,-26.072754c8.597282,-6.803711 15.250969,-14.995117 21.831413,-23.626953c6.02417,-9.341309 13.468262,-13.336914 24.146973,-9.553711c5.552254,2.825684 7.422363,8.100098 10.199951,13.251465c0.746338,0.600098 1.492546,1.200195 2.238892,1.800293c0.787224,0.633301 0.84729,0.877441 0.00074,1.428711l0,0c-0.923103,0.601074 -1.846207,1.20166 -2.769409,1.802734c-5.537971,3.340332 -12.03186,3.103027 -17.811165,0.091309c-1.885376,-4.288574 -6.687988,-2.976563 -10.996216,-2.149902c-10.33252,3.812012 -18.370483,9.853027 -25.848145,17.98291c-8.505608,8.224121 -16.761589,16.70459 -24.172966,25.945801c-5.150024,6.351074 -10.152832,12.833984 -14.350464,19.868164c-1.610107,2.625488 -3.523193,5.175293 -4.308716,8.188965c-0.517578,1.985352 -4.097534,-0.172852 -2.504425,-1.465332z"/>
     <path id="svg_1014" fill="#4c4c4c" fill-rule="nonzero" stroke-width="1px" d="m-251.158356,1467.876953c-2.376343,-0.205566 -4.771088,-0.495605 -7.169922,-0.663574c-7.419769,0.071777 -14.649261,2.274902 -21.673676,4.474121c-13.99707,5.703125 -26.403107,14.377441 -38.454956,23.349121c-16.384033,12.583984 -30.688965,27.552246 -41.557373,45.121094c-8.047729,12.465332 -0.472046,26.270996 -3.452881,38.905762c1.127686,1.664551 2.255249,3.329102 3.382935,4.993652c0.566528,0.836426 -0.620972,1.637695 -1.184326,0.798828l0,0c-1.169434,-1.740723 -2.338867,-3.480957 -3.508301,-5.22168c-14.068481,-10.780273 -5.741577,-28.283691 3.278564,-40.432617c11.585449,-17.284668 25.513062,-32.73877 42.188477,-45.311035c12.155609,-9.046875 24.671387,-17.788574 38.790161,-23.534668c7.040649,-3.288574 14.228394,-6.13623 21.891571,-7.605957c2.659912,-0.434082 5.488159,-0.889648 8.077621,-0.07959c3.537842,1.106445 3.085205,5.526855 -0.607895,5.206543z"/>
     <path id="svg_1015" fill="#4c4c4c" fill-rule="nonzero" stroke-width="1px" d="m-187.717087,1594.598389c2.473633,-2.67334 5.072754,-5.262939 7.810669,-7.680908c7.481445,-6.092285 13.93103,-13.140625 20.618286,-20.07373c6.849365,-8.983887 15.6073,-16.381348 23.861938,-24.063965c10.331413,-8.929688 19.511467,-11.264648 32.762321,-8.408203c1.869019,-1.404297 3.738045,-2.808594 5.607048,-4.213379c0.807625,-0.606934 1.665787,0.535645 0.858047,1.14209l0,0c-1.892097,1.420898 -3.784187,2.841797 -5.676407,4.262695c-3.177361,13.648926 -9.668327,20.418457 -22.771355,25.32373c-10.401482,3.379883 -20.353752,7.728027 -30.63903,11.39502c-8.548218,4.265625 -16.942993,8.65332 -23.614624,15.649902c-2.31189,2.588623 -4.580109,5.114014 -5.69278,8.460205c-0.803802,2.416992 -4.854248,0.076172 -3.124115,-1.793457z"/>
     <path id="svg_1016" fill="#4c4c4c" fill-rule="nonzero" stroke-width="1px" d="m-52.215511,1331.725098c-2.166859,-1.164063 -4.283199,-2.495605 -6.465569,-3.672852c-4.993778,-3.491211 -10.470707,-6.219727 -15.982433,-8.783691c-5.45446,-2.764648 -11.19458,-4.937988 -16.40564,-8.161377c-4.402084,-2.582275 -7.329826,-6.06665 -8.531487,-11.001221c0.812622,-7.465088 9.399658,-8.207764 15.376709,-9.303955c8.074829,-1.843994 16.320923,-1.688232 24.526371,-1.243652c5.719971,0.258301 10.956779,1.422363 15.248409,5.339844c4.26062,5.856201 -1.066769,9.516602 -6.49255,10.728516c-0.962891,0.383301 -1.925659,0.766357 -2.88855,1.149414c-0.938599,0.373535 -1.46595,-0.957275 -0.526371,-1.328125l0,0c0.915161,-0.361084 1.83033,-0.722168 2.745491,-1.083252c1.852901,-1.944092 3.47253,-3.597412 3.417839,-6.298828c-2.830811,-3.891357 -6.852661,-5.876709 -11.68079,-6.753662c-7.980831,-1.187012 -16.095699,-0.723145 -23.99963,0.874756c-4.449463,1.459229 -8.994751,2.811279 -11.127197,7.266602c0.681274,3.723633 2.625,6.435303 5.788445,8.789307c4.954117,3.374512 10.198982,6.261719 15.671021,8.71167c5.437141,2.745361 10.911873,5.476807 16.636482,7.578857c2.44569,1.151611 5.123051,1.97583 7.212402,3.733154c2.316658,1.948242 0.143799,4.890625 -2.522953,3.458496z"/>
    </g>
   </g>
  </g>
 </g>
</svg>