<?xml version="1.0" encoding="utf-8"?>
<!-- Generator: Adobe Illustrator 19.2.1, SVG Export Plug-In . SVG Version: 6.00 Build 0)  -->
<svg version="1.1" id="Layer_1" xmlns="http://www.w3.org/2000/svg" xmlns:xlink="http://www.w3.org/1999/xlink" x="0px" y="0px"
	 viewBox="0 0 740.229 147.641" style="enable-background:new 0 0 740.229 147.641;" xml:space="preserve">
<style type="text/css">
	.Arched_x0020_Green{fill:url(#SVGID_1_);stroke:#FFFFFF;stroke-width:0.25;stroke-miterlimit:1;}
	.st0{fill:#004B82;}
</style>
<linearGradient id="SVGID_1_" gradientUnits="userSpaceOnUse" x1="66.6885" y1="474.8599" x2="67.3956" y2="474.1528">
	<stop  offset="0" style="stop-color:#20AC4B"/>
	<stop  offset="0.9831" style="stop-color:#19361A"/>
</linearGradient>
<g>
	<g>
		<polygon class="st0" points="264.235,16.735 200.963,0.489 176.499,41.424 182.019,124.043 		"/>
		<polygon class="st0" points="300.461,47.374 296.648,25.077 266.333,17.286 192.939,132.247 335.83,90.581 335.83,90.35 		"/>
		<polygon class="st0" points="279.605,140.723 333.421,92.817 209.618,140.723 		"/>
		<polygon class="st0" points="173.29,42.931 145.723,55.3 113.778,55.353 168.585,124.043 		"/>
		<polygon class="st0" points="112.074,57.723 95.813,78.272 61.747,78.336 44.786,100.53 157.691,132.247 		"/>
		<polygon class="st0" points="0,147.641 61.724,147.641 61.747,140.723 141.113,140.723 35.663,100.321 		"/>
	</g>
	<g>
		<g>
			<path class="st0" d="M396.409,54.148c0.188,0,0.375-0.125,0.375-0.439v-1.322c0-9.562,0-11.322-0.127-13.335
				c-0.121-2.139-0.627-3.145-2.703-3.586c-0.504-0.126-1.572-0.189-2.453-0.189c-0.693,0-1.068-0.125-1.068-0.565
				c0-0.439,0.44-0.565,1.322-0.565c3.395,0,7.357,0.187,9.059,0.187c1.508,0,5.471-0.187,7.924-0.187
				c0.883,0,1.322,0.126,1.322,0.565c0,0.44-0.379,0.565-1.133,0.565c-0.502,0-1.068,0.063-1.824,0.189
				c-1.699,0.314-2.201,1.384-2.328,3.586c-0.125,2.013-0.125,3.773-0.125,13.335v11.071c0,5.788,0,10.758,0.315,13.463
				c0.188,1.762,0.566,3.146,2.453,3.398c0.881,0.125,2.264,0.25,3.209,0.25c0.69,0,1.008,0.189,1.008,0.504
				c0,0.439-0.506,0.629-1.262,0.629c-4.088,0-8.051-0.189-9.812-0.189c-1.447,0-5.41,0.189-7.863,0.189
				c-0.881,0-1.32-0.189-1.32-0.629c0-0.314,0.25-0.504,1.006-0.504c0.945,0,1.699-0.125,2.266-0.25
				c1.256-0.252,1.57-1.636,1.824-3.461c0.312-2.642,0.312-7.611,0.312-13.399v-5.533c0-0.254-0.188-0.378-0.375-0.378h-24.03
				c-0.191,0-0.379,0.061-0.379,0.378v5.533c0,5.788,0,10.758,0.315,13.463c0.188,1.762,0.566,3.146,2.454,3.398
				c0.881,0.125,2.264,0.25,3.209,0.25c0.689,0,1.008,0.189,1.008,0.504c0,0.439-0.506,0.629-1.262,0.629
				c-4.088,0-8.051-0.189-9.812-0.189c-1.447,0-5.41,0.189-7.926,0.189c-0.818,0-1.259-0.189-1.259-0.629
				c0-0.314,0.252-0.504,1.006-0.504c0.946,0,1.7-0.125,2.267-0.25c1.256-0.252,1.57-1.636,1.823-3.461
				c0.314-2.642,0.314-7.611,0.314-13.399V52.387c0-9.562,0-11.322-0.126-13.335c-0.126-2.139-0.628-3.145-2.704-3.586
				c-0.504-0.126-1.573-0.189-2.453-0.189c-0.693,0-1.068-0.125-1.068-0.565c0-0.439,0.44-0.565,1.321-0.565
				c3.396,0,7.358,0.187,9.059,0.187c1.509,0,5.471-0.187,7.925-0.187c0.883,0,1.322,0.126,1.322,0.565
				c0,0.44-0.379,0.565-1.133,0.565c-0.502,0-1.068,0.063-1.824,0.189c-1.7,0.314-2.202,1.384-2.329,3.586
				C372,41.064,372,42.825,372,52.387v1.322c0,0.314,0.188,0.439,0.379,0.439H396.409z"/>
			<path class="st0" d="M422.771,52.387c0-9.562,0-11.322-0.127-13.335c-0.125-2.139-0.629-3.145-2.703-3.586
				c-0.504-0.126-1.574-0.189-2.453-0.189c-0.693,0-1.068-0.125-1.068-0.565c0-0.439,0.439-0.565,1.383-0.565
				c1.699,0,3.522,0.063,5.096,0.063c1.635,0.062,3.08,0.123,3.963,0.123c2.014,0,14.529,0,15.727-0.061
				c1.195-0.126,2.203-0.252,2.705-0.379c0.312-0.062,0.691-0.251,1.006-0.251c0.314,0,0.377,0.251,0.377,0.567
				c0,0.439-0.314,1.194-0.502,4.088c-0.062,0.629-0.189,3.397-0.314,4.151c-0.064,0.315-0.188,0.693-0.629,0.693
				c-0.439,0-0.566-0.316-0.566-0.882c0-0.44-0.064-1.51-0.379-2.265c-0.441-1.133-1.068-1.888-4.215-2.264
				c-1.068-0.127-7.674-0.253-8.934-0.253c-0.315,0-0.44,0.189-0.44,0.629v15.916c0,0.439,0.065,0.691,0.44,0.691
				c1.387,0,8.619,0,10.066-0.126c1.51-0.126,2.455-0.314,3.02-0.943c0.441-0.504,0.69-0.818,1.008-0.818
				c0.25,0,0.441,0.127,0.441,0.504c0,0.378-0.254,1.384-0.506,4.594c-0.061,1.257-0.254,3.773-0.254,4.213
				c0,0.504,0,1.197-0.562,1.197c-0.44,0-0.566-0.254-0.566-0.567c-0.064-0.63-0.064-1.448-0.252-2.265
				c-0.315-1.258-1.195-2.202-3.522-2.454c-1.195-0.124-7.424-0.188-8.934-0.188c-0.314,0-0.379,0.251-0.379,0.629v4.969
				c0,2.141-0.062,7.928,0,9.752c0.125,4.341,1.133,5.284,7.551,5.284c1.633,0,4.275,0,5.91-0.756
				c1.637-0.754,2.395-2.075,2.834-4.654c0.127-0.693,0.248-0.944,0.69-0.944c0.506,0,0.506,0.504,0.506,1.133
				c0,1.446-0.506,5.726-0.82,6.984c-0.441,1.635-1.006,1.635-3.396,1.635c-4.717,0-8.178-0.127-10.881-0.189
				c-2.707-0.125-4.656-0.189-6.543-0.189c-0.693,0-2.076,0-3.584,0.064c-1.447,0-3.086,0.125-4.344,0.125
				c-0.816,0-1.258-0.189-1.258-0.629c0-0.314,0.252-0.504,1.006-0.504c0.945,0,1.701-0.125,2.268-0.25
				c1.256-0.252,1.57-1.636,1.822-3.461c0.314-2.642,0.314-7.611,0.314-13.399V52.387z"/>
			<path class="st0" d="M465.048,65.283c-0.314,0-0.441,0.126-0.564,0.503l-3.398,8.996c-0.629,1.573-0.943,3.082-0.943,3.837
				c0,1.133,0.568,1.95,2.518,1.95h0.943c0.756,0,0.943,0.127,0.943,0.504c0,0.504-0.379,0.629-1.068,0.629
				c-2.014,0-4.721-0.189-6.67-0.189c-0.693,0-4.15,0.189-7.424,0.189c-0.814,0-1.193-0.125-1.193-0.629
				c0-0.377,0.252-0.504,0.752-0.504c0.568,0,1.447-0.062,1.953-0.125c2.891-0.377,4.09-2.516,5.346-5.662l15.791-39.506
				c0.754-1.824,1.133-2.516,1.762-2.516c0.564,0,0.943,0.566,1.572,2.013c1.51,3.46,11.574,29.126,15.6,38.688
				c2.393,5.661,4.215,6.54,5.535,6.857c0.945,0.188,1.889,0.25,2.643,0.25c0.504,0,0.818,0.064,0.818,0.504
				c0,0.504-0.564,0.629-2.895,0.629c-2.262,0-6.857,0-11.889-0.125c-1.133-0.064-1.887-0.064-1.887-0.504
				c0-0.377,0.252-0.504,0.881-0.566c0.441-0.125,0.879-0.692,0.566-1.447l-5.031-13.336c-0.127-0.315-0.318-0.441-0.631-0.441
				H465.048z M477.882,62.138c0.314,0,0.379-0.188,0.314-0.378l-5.66-15.536c-0.065-0.253-0.125-0.567-0.316-0.567
				c-0.188,0-0.314,0.314-0.377,0.567l-5.787,15.474c-0.062,0.252,0,0.44,0.252,0.44H477.882z"/>
			<path class="st0" d="M514.435,63.458c0,8.053,0,12.395,1.32,13.526c1.072,0.943,2.709,1.384,7.613,1.384
				c3.334,0,5.789-0.063,7.361-1.762c0.756-0.816,1.51-2.578,1.635-3.774c0.062-0.564,0.189-0.942,0.693-0.942
				c0.441,0,0.502,0.314,0.502,1.068c0,0.693-0.439,5.41-0.941,7.234c-0.379,1.385-0.693,1.699-3.963,1.699
				c-4.529,0-7.803-0.127-10.633-0.189c-2.83-0.125-5.096-0.189-7.676-0.189c-0.689,0-2.076,0-3.586,0.064
				c-1.447,0-3.082,0.125-4.342,0.125c-0.814,0-1.254-0.189-1.254-0.629c0-0.314,0.248-0.504,1.006-0.504
				c0.941,0,1.697-0.125,2.262-0.25c1.26-0.252,1.574-1.636,1.828-3.461c0.314-2.642,0.314-7.611,0.314-13.399V52.387
				c0-9.562,0-11.322-0.127-13.335c-0.127-2.139-0.629-3.145-2.707-3.586c-0.502-0.126-1.256-0.189-2.076-0.189
				c-0.693,0-1.066-0.125-1.066-0.565c0-0.439,0.438-0.565,1.381-0.565c2.961,0,6.922,0.187,8.619,0.187
				c1.512,0,6.104-0.187,8.557-0.187c0.881,0,1.32,0.126,1.32,0.565c0,0.44-0.379,0.565-1.133,0.565
				c-0.691,0-1.699,0.063-2.455,0.189c-1.695,0.314-2.199,1.384-2.326,3.586c-0.127,2.013-0.127,3.773-0.127,13.335V63.458z"/>
			<path class="st0" d="M547.97,37.668l-9.373,0.25c-3.646,0.126-5.156,0.44-6.102,1.824c-0.629,0.944-0.943,1.701-1.068,2.202
				c-0.127,0.504-0.314,0.756-0.693,0.756c-0.439,0-0.566-0.315-0.566-1.007c0-1.007,1.193-6.731,1.32-7.234
				c0.191-0.817,0.379-1.194,0.756-1.194c0.504,0,1.133,0.628,2.707,0.755c1.822,0.189,4.213,0.312,6.289,0.312h24.91
				c2.014,0,3.396-0.187,4.342-0.312c0.943-0.188,1.447-0.314,1.697-0.314c0.44,0,0.506,0.377,0.506,1.32
				c0,1.321-0.191,5.661-0.191,7.298c-0.062,0.629-0.188,1.005-0.565,1.005c-0.504,0-0.631-0.313-0.693-1.258l-0.064-0.69
				c-0.121-1.638-1.822-3.398-7.42-3.522l-7.926-0.189v25.79c0,5.788,0,10.758,0.314,13.463c0.188,1.762,0.566,3.146,2.451,3.398
				c0.881,0.125,2.266,0.25,3.207,0.25c0.693,0,1.008,0.189,1.008,0.504c0,0.439-0.502,0.629-1.195,0.629
				c-4.15,0-8.113-0.189-9.875-0.189c-1.447,0-5.41,0.189-7.926,0.189c-0.818,0-1.26-0.189-1.26-0.629
				c0-0.314,0.254-0.504,1.008-0.504c0.941,0,1.695-0.125,2.264-0.25c1.26-0.252,1.635-1.636,1.826-3.461
				c0.312-2.642,0.312-7.611,0.312-13.399V37.668z"/>
			<path class="st0" d="M615.286,54.148c0.185,0,0.377-0.125,0.377-0.439v-1.322c0-9.562,0-11.322-0.125-13.335
				c-0.127-2.139-0.629-3.145-2.707-3.586c-0.502-0.126-1.57-0.189-2.451-0.189c-0.693,0-1.072-0.125-1.072-0.565
				c0-0.439,0.441-0.565,1.322-0.565c3.398,0,7.361,0.187,9.059,0.187c1.512,0,5.475-0.187,7.926-0.187
				c0.881,0,1.32,0.126,1.32,0.565c0,0.44-0.375,0.565-1.131,0.565c-0.504,0-1.07,0.063-1.824,0.189
				c-1.697,0.314-2.203,1.384-2.328,3.586c-0.127,2.013-0.127,3.773-0.127,13.335v11.071c0,5.788,0,10.758,0.316,13.463
				c0.19,1.762,0.565,3.146,2.453,3.398c0.879,0.125,2.266,0.25,3.207,0.25c0.693,0,1.006,0.189,1.006,0.504
				c0,0.439-0.5,0.629-1.256,0.629c-4.088,0-8.051-0.189-9.812-0.189c-1.447,0-5.41,0.189-7.863,0.189
				c-0.881,0-1.322-0.189-1.322-0.629c0-0.314,0.25-0.504,1.008-0.504c0.941,0,1.695-0.125,2.264-0.25
				c1.258-0.252,1.572-1.636,1.826-3.461c0.312-2.642,0.312-7.611,0.312-13.399v-5.533c0-0.254-0.191-0.378-0.377-0.378h-24.031
				c-0.188,0-0.379,0.061-0.379,0.378v5.533c0,5.788,0,10.758,0.316,13.463c0.19,1.762,0.565,3.146,2.453,3.398
				c0.879,0.125,2.266,0.25,3.207,0.25c0.693,0,1.006,0.189,1.006,0.504c0,0.439-0.5,0.629-1.256,0.629
				c-4.088,0-8.051-0.189-9.816-0.189c-1.443,0-5.406,0.189-7.924,0.189c-0.816,0-1.258-0.189-1.258-0.629
				c0-0.314,0.25-0.504,1.008-0.504c0.943,0,1.695-0.125,2.264-0.25c1.258-0.252,1.572-1.636,1.826-3.461
				c0.312-2.642,0.312-7.611,0.312-13.399V52.387c0-9.562,0-11.322-0.125-13.335c-0.127-2.139-0.629-3.145-2.707-3.586
				c-0.502-0.126-1.57-0.189-2.451-0.189c-0.693,0-1.072-0.125-1.072-0.565c0-0.439,0.441-0.565,1.322-0.565
				c3.398,0,7.361,0.187,9.059,0.187c1.512,0,5.475-0.187,7.926-0.187c0.881,0,1.32,0.126,1.32,0.565
				c0,0.44-0.375,0.565-1.131,0.565c-0.504,0-1.07,0.063-1.824,0.189c-1.697,0.314-2.203,1.384-2.328,3.586
				c-0.127,2.013-0.127,3.773-0.127,13.335v1.322c0,0.314,0.191,0.439,0.379,0.439H615.286z"/>
			<path class="st0" d="M651.21,65.409c0-3.396-0.629-4.78-1.447-6.604c-0.439-1.008-8.867-14.847-11.068-18.118
				c-1.574-2.328-3.148-3.9-4.342-4.591c-0.816-0.44-1.889-0.819-2.645-0.819c-0.5,0-0.941-0.125-0.941-0.565
				c0-0.379,0.441-0.565,1.195-0.565c1.133,0,5.85,0.187,7.926,0.187c1.32,0,3.902-0.187,6.73-0.187
				c0.629,0,0.943,0.187,0.943,0.565c0,0.378-0.441,0.44-1.383,0.692c-0.566,0.126-0.881,0.63-0.881,1.133
				c0,0.502,0.314,1.258,0.756,2.139c0.879,1.887,9.686,17.048,10.693,18.809c0.627-1.511,8.557-15.35,9.438-17.3
				c0.627-1.385,0.881-2.452,0.881-3.271c0-0.63-0.254-1.32-1.322-1.573c-0.566-0.126-1.133-0.251-1.133-0.629
				c0-0.439,0.314-0.565,1.068-0.565c2.074,0,4.09,0.187,5.916,0.187c1.383,0,5.533-0.187,6.73-0.187
				c0.69,0,1.129,0.126,1.129,0.503c0,0.44-0.5,0.628-1.193,0.628c-0.629,0-1.822,0.253-2.77,0.757
				c-1.32,0.627-2.014,1.384-3.396,3.082c-2.074,2.515-10.879,17.298-12.014,20.004c-0.945,2.265-0.945,4.216-0.945,6.29v5.157
				c0,1.008,0,3.649,0.191,6.291c0.125,1.825,0.689,3.209,2.576,3.461c0.881,0.125,2.268,0.25,3.147,0.25
				c0.693,0,1.008,0.189,1.008,0.504c0,0.439-0.504,0.629-1.322,0.629c-3.961,0-7.924-0.189-9.623-0.189
				c-1.574,0-5.537,0.189-7.865,0.189c-0.881,0-1.383-0.125-1.383-0.629c0-0.314,0.314-0.504,1.006-0.504
				c0.883,0,1.637-0.125,2.203-0.25c1.256-0.252,1.822-1.636,1.949-3.461c0.187-2.642,0.187-5.283,0.187-6.291V65.409z"/>
			<path class="st0" d="M371.813,114.323h0.312c2.137-2.328,11.323-11.701,13.149-13.84c1.762-2.074,3.145-3.648,3.145-4.719
				c0-0.691-0.254-1.131-0.881-1.258c-0.566-0.127-0.818-0.25-0.818-0.629c0-0.439,0.316-0.566,1.006-0.566
				c1.322,0,4.781,0.188,6.482,0.188c1.949,0,5.41-0.188,7.359-0.188c0.629,0,1.066,0.127,1.066,0.566
				c0,0.441-0.312,0.566-0.941,0.566c-0.879,0-2.453,0.252-3.648,0.691c-1.951,0.756-4.09,2.076-6.797,4.719
				c-1.947,1.887-11.447,11.322-13.584,13.588c2.264,2.955,14.592,16.231,17.047,18.557c2.768,2.641,5.598,5.473,8.992,6.793
				c1.889,0.758,3.148,0.945,3.902,0.945c0.441,0,0.82,0.125,0.82,0.502c0,0.441-0.314,0.631-1.514,0.631h-5.471
				c-1.887,0-3.02,0-4.342-0.127c-3.397-0.314-5.094-1.697-7.799-4.09c-2.77-2.453-15.16-16.982-16.481-18.809l-0.693-0.943h-0.312
				v5.725c0,5.787,0,10.756,0.188,13.463c0.125,1.76,0.693,3.145,2.262,3.396c0.881,0.125,2.268,0.252,3.082,0.252
				c0.506,0,0.82,0.189,0.82,0.502c0,0.441-0.502,0.631-1.193,0.631c-3.524,0-7.487-0.189-9.06-0.189
				c-1.447,0-5.41,0.189-7.926,0.189c-0.818,0-1.259-0.189-1.259-0.631c0-0.312,0.252-0.502,1.006-0.502
				c0.946,0,1.7-0.127,2.267-0.252c1.256-0.252,1.57-1.637,1.823-3.461c0.314-2.643,0.314-7.611,0.314-13.399v-11.072
				c0-9.562,0-11.322-0.126-13.334c-0.126-2.139-0.628-3.146-2.704-3.586c-0.504-0.127-1.573-0.189-2.453-0.189
				c-0.693,0-1.068-0.125-1.068-0.566c0-0.439,0.44-0.566,1.383-0.566c3.334,0,7.297,0.188,8.807,0.188
				c1.511,0,5.474-0.188,7.611-0.188c0.881,0,1.322,0.127,1.322,0.566c0,0.441-0.377,0.566-0.883,0.566
				c-0.627,0-1.004,0.063-1.762,0.189c-1.696,0.312-2.202,1.383-2.327,3.586c-0.123,2.012-0.123,3.771-0.123,13.334V114.323z"/>
			<path class="st0" d="M412.456,111.553c0-9.562,0-11.322-0.127-13.334c-0.127-2.139-0.629-3.146-2.707-3.586
				c-0.502-0.127-1.568-0.189-2.451-0.189c-0.691,0-1.07-0.125-1.07-0.566c0-0.439,0.44-0.566,1.385-0.566
				c1.695,0,3.523,0.062,5.096,0.062c1.635,0.064,3.082,0.125,3.963,0.125c2.01,0,14.531,0,15.727-0.061
				c1.193-0.127,2.201-0.254,2.707-0.379c0.312-0.061,0.689-0.25,1.002-0.25c0.318,0,0.379,0.25,0.379,0.564
				c0,0.441-0.312,1.195-0.502,4.09c-0.065,0.627-0.19,3.396-0.316,4.152c-0.062,0.314-0.188,0.691-0.629,0.691
				c-0.44,0-0.566-0.316-0.566-0.881c0-0.439-0.061-1.51-0.375-2.264c-0.441-1.133-1.072-1.889-4.217-2.266
				c-1.066-0.127-7.676-0.252-8.932-0.252c-0.314,0-0.441,0.189-0.441,0.629v15.914c0,0.441,0.062,0.693,0.441,0.693
				c1.383,0,8.617,0,10.066-0.125c1.508-0.127,2.449-0.315,3.018-0.945c0.439-0.502,0.693-0.816,1.006-0.816
				c0.252,0,0.441,0.127,0.441,0.504c0,0.375-0.254,1.383-0.502,4.592c-0.066,1.258-0.252,3.773-0.252,4.215
				c0,0.502,0,1.195-0.568,1.195c-0.44,0-0.566-0.252-0.566-0.566c-0.061-0.629-0.061-1.447-0.248-2.264
				c-0.318-1.26-1.199-2.203-3.527-2.455c-1.193-0.125-7.42-0.188-8.932-0.188c-0.315,0-0.377,0.25-0.377,0.627v4.971
				c0,2.141-0.064,7.928,0,9.752c0.127,4.34,1.135,5.283,7.549,5.283c1.639,0,4.279,0,5.914-0.756
				c1.635-0.756,2.391-2.076,2.83-4.654c0.125-0.693,0.252-0.943,0.693-0.943c0.5,0,0.5,0.504,0.5,1.131
				c0,1.447-0.5,5.727-0.814,6.984c-0.439,1.635-1.006,1.635-3.396,1.635c-4.721,0-8.178-0.127-10.885-0.188
				c-2.703-0.127-4.656-0.189-6.543-0.189c-0.69,0-2.076,0-3.584,0.062c-1.449,0-3.084,0.127-4.342,0.127
				c-0.816,0-1.256-0.189-1.256-0.631c0-0.312,0.248-0.502,1.008-0.502c0.941,0,1.695-0.127,2.262-0.252
				c1.258-0.252,1.572-1.637,1.826-3.461c0.314-2.643,0.314-7.611,0.314-13.399V111.553z"/>
			<path class="st0" d="M455.739,132.313c0.127,4.908,0.941,6.543,2.203,6.982c1.068,0.377,2.262,0.441,3.268,0.441
				c0.693,0,1.07,0.125,1.07,0.502c0,0.504-0.565,0.631-1.445,0.631c-4.088,0-6.607-0.189-7.803-0.189
				c-0.566,0-3.521,0.189-6.791,0.189c-0.82,0-1.387-0.064-1.387-0.631c0-0.377,0.379-0.502,1.008-0.502
				c0.818,0,1.951-0.064,2.832-0.314c1.635-0.504,1.889-2.328,1.949-7.801l0.566-37.242c0-1.258,0.188-2.139,0.814-2.139
				c0.693,0,1.262,0.818,2.33,1.951c0.754,0.816,10.318,11.072,19.504,20.193c4.275,4.277,12.768,13.336,13.836,14.344h0.314
				l-0.627-28.246c-0.066-3.838-0.629-5.033-2.141-5.66c-0.941-0.379-2.451-0.379-3.332-0.379c-0.758,0-1.006-0.187-1.006-0.566
				c0-0.504,0.69-0.566,1.635-0.566c3.27,0,6.289,0.188,7.611,0.188c0.693,0,3.082-0.188,6.164-0.188
				c0.818,0,1.447,0.062,1.447,0.566c0,0.379-0.379,0.566-1.133,0.566c-0.629,0-1.135,0-1.887,0.189
				c-1.762,0.502-2.266,1.824-2.33,5.346l-0.688,39.693c0,1.385-0.254,1.951-0.82,1.951c-0.693,0-1.447-0.693-2.141-1.385
				c-3.963-3.775-12.014-12.014-18.555-18.494c-6.855-6.793-13.84-14.656-14.973-15.852h-0.189L455.739,132.313z"/>
			<path class="st0" d="M518.901,96.834l-9.371,0.25c-3.648,0.127-5.158,0.441-6.1,1.824c-0.633,0.945-0.945,1.699-1.072,2.203
				c-0.125,0.504-0.314,0.756-0.689,0.756c-0.439,0-0.566-0.316-0.566-1.008c0-1.006,1.195-6.73,1.32-7.234
				c0.188-0.816,0.375-1.195,0.756-1.195c0.5,0,1.133,0.629,2.703,0.754c1.826,0.189,4.215,0.314,6.289,0.314h24.914
				c2.012,0,3.397-0.188,4.338-0.314c0.947-0.186,1.447-0.312,1.701-0.312c0.44,0,0.502,0.377,0.502,1.32
				c0,1.32-0.188,5.662-0.188,7.299c-0.062,0.627-0.19,1.004-0.568,1.004c-0.5,0-0.627-0.314-0.691-1.258l-0.062-0.691
				c-0.125-1.637-1.824-3.396-7.424-3.521l-7.926-0.189v25.791c0,5.787,0,10.756,0.315,13.463c0.191,1.76,0.566,3.145,2.455,3.396
				c0.879,0.125,2.262,0.252,3.207,0.252c0.693,0,1.008,0.189,1.008,0.502c0,0.441-0.504,0.631-1.195,0.631
				c-4.154,0-8.115-0.189-9.877-0.189c-1.447,0-5.41,0.189-7.926,0.189c-0.82,0-1.26-0.189-1.26-0.631
				c0-0.312,0.252-0.502,1.006-0.502c0.947,0,1.699-0.127,2.268-0.252c1.256-0.252,1.635-1.637,1.822-3.461
				c0.312-2.643,0.312-7.611,0.312-13.399V96.834z"/>
			<path class="st0" d="M553.759,111.553c0-9.562,0-11.322-0.125-13.334c-0.127-2.139-0.629-3.146-2.707-3.586
				c-0.502-0.127-1.57-0.189-2.451-0.189c-0.691,0-1.07-0.125-1.07-0.566c0-0.439,0.44-0.566,1.385-0.566
				c3.334,0,7.297,0.188,9.185,0.188c1.508,0,5.471-0.188,7.734-0.188c0.945,0,1.387,0.127,1.387,0.566
				c0,0.441-0.379,0.566-1.008,0.566c-0.693,0-1.068,0.063-1.826,0.189c-1.697,0.312-2.201,1.383-2.324,3.586
				c-0.127,2.012-0.127,3.771-0.127,13.334v8.807c0,9.123,1.824,12.959,4.906,15.477c2.832,2.328,5.723,2.578,7.863,2.578
				c2.768,0,6.164-0.881,8.68-3.396c3.461-3.461,3.648-9.121,3.648-15.6v-7.865c0-9.562,0-11.322-0.125-13.334
				c-0.127-2.139-0.629-3.146-2.705-3.586c-0.504-0.127-1.572-0.189-2.266-0.189c-0.69,0-1.068-0.125-1.068-0.566
				c0-0.439,0.441-0.566,1.32-0.566c3.209,0,7.174,0.188,7.238,0.188c0.752,0,4.717-0.188,7.166-0.188
				c0.885,0,1.324,0.127,1.324,0.566c0,0.441-0.379,0.566-1.131,0.566c-0.693,0-1.072,0.063-1.828,0.189
				c-1.697,0.312-2.201,1.383-2.326,3.586c-0.123,2.012-0.123,3.771-0.123,13.334v6.73c0,6.982-0.693,14.406-5.979,18.937
				c-4.467,3.836-8.996,4.527-13.086,4.527c-3.332,0-9.373-0.189-13.963-4.34c-3.209-2.895-5.6-7.549-5.6-16.67V111.553z"/>
			<path class="st0" d="M608.493,134.893c-6.166-5.41-7.801-12.455-7.801-18.559c0-4.277,1.32-11.699,7.359-17.236
				c4.531-4.152,10.506-6.668,19.879-6.668c3.902,0,6.227,0.252,9.121,0.629c2.393,0.314,4.402,0.881,6.291,1.07
				c0.693,0.062,0.945,0.377,0.945,0.754c0,0.504-0.191,1.26-0.314,3.461c-0.127,2.074-0.065,5.535-0.191,6.793
				c-0.061,0.943-0.188,1.447-0.754,1.447c-0.502,0-0.629-0.504-0.629-1.385c-0.064-1.949-0.879-4.15-2.453-5.787
				c-2.074-2.201-6.984-3.9-12.77-3.9c-5.475,0-9.059,1.385-11.826,3.9c-4.592,4.217-5.789,10.191-5.789,16.293
				c0,14.973,11.387,22.396,19.816,22.396c5.598,0,8.994-0.631,11.51-3.523c1.072-1.197,1.889-3.021,2.141-4.152
				c0.188-1.008,0.315-1.258,0.818-1.258c0.441,0,0.566,0.439,0.566,0.943c0,0.756-0.756,6.227-1.385,8.365
				c-0.314,1.072-0.566,1.385-1.637,1.826c-2.514,1.006-7.295,1.445-11.32,1.445C621.452,141.749,614.216,139.862,608.493,134.893z"
				/>
			<path class="st0" d="M664.298,114.323h0.312c2.141-2.328,11.326-11.701,13.148-13.84c1.76-2.074,3.146-3.648,3.146-4.719
				c0-0.691-0.252-1.131-0.881-1.258c-0.564-0.127-0.818-0.25-0.818-0.629c0-0.439,0.312-0.566,1.006-0.566
				c1.322,0,4.783,0.188,6.479,0.188c1.949,0,5.41-0.188,7.359-0.188c0.631,0,1.072,0.127,1.072,0.566
				c0,0.441-0.315,0.566-0.945,0.566c-0.881,0-2.455,0.252-3.648,0.691c-1.949,0.756-4.09,2.076-6.793,4.719
				c-1.949,1.887-11.447,11.322-13.588,13.588c2.266,2.955,14.596,16.231,17.049,18.557c2.764,2.641,5.598,5.473,8.994,6.793
				c1.887,0.758,3.144,0.945,3.902,0.945c0.44,0,0.815,0.125,0.815,0.502c0,0.441-0.312,0.631-1.508,0.631h-5.471
				c-1.889,0-3.021,0-4.342-0.127c-3.396-0.314-5.098-1.697-7.801-4.09c-2.768-2.453-15.162-16.982-16.482-18.809l-0.693-0.943
				h-0.312v5.725c0,5.787,0,10.756,0.188,13.463c0.125,1.76,0.691,3.145,2.266,3.396c0.881,0.125,2.262,0.252,3.082,0.252
				c0.502,0,0.82,0.189,0.82,0.502c0,0.441-0.506,0.631-1.199,0.631c-3.522,0-7.486-0.189-9.059-0.189
				c-1.443,0-5.408,0.189-7.926,0.189c-0.817,0-1.256-0.189-1.256-0.631c0-0.312,0.248-0.502,1.006-0.502
				c0.943,0,1.697-0.127,2.264-0.252c1.26-0.252,1.572-1.637,1.826-3.461c0.314-2.643,0.314-7.611,0.314-13.399v-11.072
				c0-9.562,0-11.322-0.127-13.334c-0.127-2.139-0.627-3.146-2.705-3.586c-0.504-0.127-1.572-0.189-2.453-0.189
				c-0.693,0-1.072-0.125-1.072-0.566c0-0.439,0.441-0.566,1.387-0.566c3.334,0,7.299,0.188,8.807,0.188
				c1.508,0,5.473-0.188,7.611-0.188c0.881,0,1.32,0.127,1.32,0.566c0,0.441-0.379,0.566-0.881,0.566
				c-0.627,0-1.006,0.063-1.76,0.189c-1.701,0.312-2.201,1.383-2.328,3.586c-0.125,2.012-0.125,3.771-0.125,13.334V114.323z"/>
			<path class="st0" d="M711.983,124.577c0-3.396-0.627-4.781-1.447-6.605c-0.44-1.008-8.867-14.846-11.068-18.117
				c-1.574-2.328-3.146-3.9-4.342-4.592c-0.816-0.439-1.889-0.818-2.643-0.818c-0.5,0-0.941-0.125-0.941-0.566
				c0-0.379,0.441-0.566,1.193-0.566c1.135,0,5.852,0.188,7.928,0.188c1.32,0,3.9-0.188,6.73-0.188c0.627,0,0.941,0.188,0.941,0.566
				c0,0.379-0.439,0.441-1.383,0.691c-0.566,0.127-0.879,0.629-0.879,1.133s0.312,1.258,0.754,2.139
				c0.881,1.889,9.688,17.049,10.693,18.809c0.629-1.51,8.557-15.348,9.438-17.299c0.629-1.385,0.881-2.453,0.881-3.27
				c0-0.631-0.252-1.322-1.32-1.574c-0.566-0.127-1.135-0.25-1.135-0.629c0-0.439,0.315-0.566,1.068-0.566
				c2.076,0,4.09,0.188,5.916,0.188c1.383,0,5.533-0.188,6.731-0.188c0.691,0,1.131,0.127,1.131,0.504
				c0,0.441-0.502,0.629-1.195,0.629c-0.627,0-1.822,0.252-2.768,0.754c-1.322,0.629-2.014,1.387-3.397,3.082
				c-2.074,2.518-10.881,17.301-12.016,20.004c-0.943,2.266-0.943,4.217-0.943,6.293v5.156c0,1.006,0,3.648,0.189,6.291
				c0.127,1.824,0.69,3.209,2.578,3.461c0.881,0.125,2.266,0.252,3.146,0.252c0.693,0,1.006,0.189,1.006,0.502
				c0,0.441-0.504,0.631-1.32,0.631c-3.963,0-7.926-0.189-9.625-0.189c-1.574,0-5.537,0.189-7.865,0.189
				c-0.881,0-1.383-0.127-1.383-0.631c0-0.312,0.315-0.502,1.008-0.502c0.881,0,1.635-0.127,2.203-0.252
				c1.256-0.252,1.82-1.637,1.947-3.461c0.188-2.643,0.188-5.285,0.188-6.291V124.577z"/>
		</g>
		<g>
			<g>
				<g>
					<path class="st0" d="M366.679,22.113c-1.075,0-2.15-0.033-2.989-0.056c-0.536-0.017-0.978-0.029-1.261-0.029
						c-0.326,0-0.866,0.017-1.457,0.036c-0.721,0.021-1.512,0.049-2.096,0.049c-0.249,0-0.764,0-0.764-0.456
						c0-0.182,0.104-0.399,0.597-0.399c0.425,0,0.758-0.06,0.97-0.106c0.419-0.085,0.557-0.535,0.674-1.393
						c0.138-1.16,0.138-3.268,0.138-5.934V8.902c0-4.262,0-5.03-0.054-5.92c-0.059-0.96-0.287-1.27-1.068-1.435
						c-0.19-0.047-0.619-0.079-1.052-0.079c-0.537,0-0.65-0.217-0.65-0.398c0-0.455,0.554-0.455,0.817-0.455
						c0.365,0,0.751,0.007,1.137,0.014c0.382,0.007,0.767,0.014,1.131,0.014l0.193,0.008c0.645,0.026,1.212,0.048,1.566,0.048
						c4.346,0,6.967-0.009,7.378-0.026l0.277-0.014c0.36-0.017,0.619-0.03,0.827-0.092c0.26-0.12,0.371-0.175,0.5-0.175
						c0.207,0,0.369,0.187,0.369,0.426c0,0.103-0.027,0.221-0.064,0.383c-0.047,0.203-0.113,0.486-0.16,0.896
						c-0.012,0.103-0.025,0.41-0.043,0.764c-0.027,0.584-0.062,1.302-0.1,1.511c-0.016,0.143-0.066,0.538-0.451,0.538
						c-0.4,0-0.436-0.394-0.453-0.606c-0.002-0.222-0.002-0.652-0.154-1.01c-0.166-0.332-0.703-0.708-1.692-0.734l-4.304-0.083
						c-0.045,0.006-0.076,0.039-0.076,0.216v6.994l3.602,0.049c0.514,0.015,0.86,0.001,1.249-0.027
						c0.556-0.031,0.856-0.152,1.076-0.436c0.166-0.211,0.276-0.349,0.501-0.349c0.078,0,0.343,0.031,0.343,0.427
						c0,0.075-0.027,0.25-0.064,0.496c-0.047,0.316-0.113,0.758-0.16,1.256c-0.057,0.554-0.112,1.83-0.112,2.024
						c0,0.247,0,0.707-0.454,0.707c-0.195,0-0.4-0.149-0.4-0.567c0-0.165-0.048-0.48-0.157-0.812
						c-0.064-0.174-0.347-0.768-1.283-0.888c-0.622-0.074-3.087-0.082-4.12-0.082l-0.021,2.343c0,2.666,0,4.773,0.139,5.936
						c0.088,0.849,0.258,1.295,0.94,1.387c0.386,0.055,0.993,0.109,1.376,0.109c0.162,0,0.651,0,0.651,0.399
						C367.471,22.113,366.876,22.113,366.679,22.113L366.679,22.113z"/>
				</g>
				<g>
					<path class="st0" d="M385.526,22.505c-7.863,0-11.447-5.774-11.447-11.141s3.67-11.142,11.728-11.142
						c7.078,0,11.477,4.075,11.477,10.637C397.284,17.716,392.45,22.505,385.526,22.505L385.526,22.505z M384.995,1.916
						c-2.504,0-6.705,1.114-6.705,8.579c0,6.041,3.459,10.261,8.412,10.261c1.898,0,6.316-0.863,6.316-8.86
						C393.019,6.02,389.72,1.916,384.995,1.916L384.995,1.916z"/>
				</g>
				<g>
					<path class="st0" d="M409.968,22.505c-1.24,0-4.141,0-6.33-1.976c-1.736-1.568-2.547-3.964-2.547-7.543V8.902
						c0-4.262,0-5.03-0.057-5.92c-0.055-0.96-0.283-1.269-1.064-1.435c-0.189-0.047-0.619-0.079-1.055-0.079
						c-0.162,0-0.648,0-0.648-0.429c0-0.425,0.514-0.425,0.787-0.425c0.852,0,1.791,0.027,2.596,0.051
						c0.604,0.018,1.133,0.032,1.49,0.032c0.301,0,0.82-0.016,1.393-0.034c0.707-0.023,1.492-0.049,2.049-0.049
						c0.275,0,0.791,0,0.791,0.425c0,0.284-0.211,0.429-0.623,0.429c-0.297,0-0.459,0.025-0.783,0.081
						c-0.617,0.114-0.832,0.462-0.891,1.432c-0.055,0.891-0.055,1.659-0.055,5.921v3.916c0,4.407,1.018,5.847,2.119,6.746
						c1.186,0.976,2.377,1.107,3.389,1.107c0.68,0,2.414-0.142,3.733-1.459c1.457-1.455,1.572-3.844,1.572-6.813V8.902
						c0-4.262,0-5.03-0.057-5.92c-0.055-0.96-0.283-1.269-1.062-1.435c-0.203-0.05-0.65-0.079-0.973-0.079
						c-0.16,0-0.648,0-0.648-0.429c0-0.425,0.512-0.425,0.762-0.425c1.256,0,2.771,0.064,3.141,0.08
						c0.191,0.009,0.496-0.007,0.879-0.02c0.701-0.025,1.682-0.06,2.385-0.06c0.248,0,0.764,0,0.764,0.425
						c0,0.429-0.492,0.429-0.678,0.429c-0.297,0-0.459,0.025-0.783,0.081c-0.617,0.114-0.832,0.462-0.891,1.432
						c-0.055,0.891-0.055,1.659-0.055,5.921v2.993c0,3.232-0.33,6.504-2.719,8.553C413.774,22.271,411.612,22.505,409.968,22.505
						L409.968,22.505z"/>
				</g>
				<g>
					<path class="st0" d="M442.183,22.448c-0.379,0-0.754-0.345-1.076-0.668c-1.057-1.005-2.774-2.731-4.606-4.574
						c-1.219-1.223-2.484-2.499-3.644-3.649c-2.424-2.399-4.867-5.085-6.041-6.376c-0.158-0.17-0.287-0.314-0.393-0.43l0.297,11.379
						c0.061,2.363,0.49,2.814,0.861,2.943c0.467,0.164,0.992,0.185,1.398,0.185c0.16,0,0.648,0,0.648,0.399
						c0,0.456-0.572,0.456-0.816,0.456c-1.184,0-2.07-0.037-2.695-0.062c-0.332-0.013-0.59-0.023-0.775-0.023
						c-0.072,0-0.236,0.007-0.465,0.017c-0.562,0.024-1.525,0.067-2.557,0.067c-0.295,0-0.791,0-0.791-0.456
						c0-0.264,0.211-0.399,0.623-0.399c0.281,0,0.81-0.017,1.211-0.133c0.609-0.187,0.715-0.949,0.74-3.302l0.254-16.561
						c0-0.306,0-1.124,0.537-1.124c0.324,0,0.568,0.269,0.904,0.642l0.258,0.28c0.043,0.046,4.435,4.772,8.668,8.976
						c1.1,1.099,2.826,2.909,4.178,4.327c0.81,0.849,1.486,1.558,1.812,1.887L440.44,3.983c-0.027-1.721-0.295-2.133-0.844-2.36
						c-0.387-0.154-1.031-0.154-1.416-0.154c-0.152,0-0.621,0-0.621-0.429c0-0.425,0.543-0.425,0.902-0.425
						c0.891,0,1.74,0.031,2.4,0.056c0.416,0.015,0.756,0.027,0.984,0.027c0.096,0,0.272-0.008,0.506-0.02
						c0.51-0.025,1.301-0.063,2.236-0.063c0.283,0,0.816,0,0.816,0.425c0,0.195-0.117,0.429-0.678,0.429
						c-0.279,0-0.483,0-0.799,0.078c-0.672,0.191-0.873,0.689-0.9,2.211L442.72,21.41C442.72,21.718,442.72,22.448,442.183,22.448
						L442.183,22.448z"/>
				</g>
				<g>
					<path class="st0" d="M458.341,22.364c-1.031,0-2.209-0.087-3.228-0.169l-0.311-0.024c-0.936-0.074-1.793-0.142-2.42-0.142l0,0
						c-0.309,0-0.92,0-1.588,0.028c-0.336,0-0.689,0.014-1.031,0.028c-0.32,0.014-0.633,0.028-0.904,0.028
						c-0.607,0-0.736-0.249-0.736-0.456c0-0.264,0.211-0.399,0.623-0.399c0.426,0,0.758-0.06,0.973-0.106
						c0.42-0.085,0.557-0.535,0.672-1.393c0.139-1.16,0.139-3.372,0.139-5.934V8.902c0-4.262,0-5.03-0.057-5.92
						c-0.053-0.96-0.283-1.269-1.064-1.435c-0.189-0.047-0.621-0.079-1.053-0.079c-0.162,0-0.65,0-0.65-0.429
						c0-0.425,0.514-0.425,0.789-0.425c0.861,0,1.814,0.027,2.621,0.052c0.58,0.018,1.078,0.031,1.406,0.031
						c0.361,0,0.881-0.014,1.484-0.031c0.84-0.024,1.846-0.052,2.826-0.052c3.479,0,8.244,0,11.342,3.242
						c1.26,1.309,2.762,3.628,2.762,7.227c0,4.303-2.166,6.977-3.098,7.926C466.851,20.02,463.948,22.364,458.341,22.364
						L458.341,22.364z M456.38,2.279c-0.633,0-1.574,0.097-1.736,0.178c-0.184,0.083-0.24,0.147-0.24,0.403
						c-0.027,0.955-0.027,3.386-0.027,5.595v3.523c0,3.03,0.029,5.132,0.057,5.642c0.016,0.434,0.066,1.749,0.273,2.034
						c0.17,0.247,0.916,1.045,3.522,1.045c2.875,0,4.707-0.571,6.322-1.972c1.539-1.323,2.289-3.558,2.289-6.832
						c0-3.933-1.842-6.113-2.633-6.868C462.272,3.178,459.712,2.279,456.38,2.279L456.38,2.279z"/>
				</g>
				<g>
					<path class="st0" d="M490.36,22.113c-1.01,0-3.053,0-5.291-0.057c-0.619-0.033-1.012-0.053-1.012-0.399
						c0-0.371,0.371-0.406,0.549-0.425c0.014-0.007,0.078-0.049,0.115-0.126c0.037-0.078,0.037-0.174-0.006-0.276l-2.24-5.936
						l-6.355-0.082l-1.598,4.11c-0.283,0.702-0.41,1.345-0.41,1.646c0,0.342,0.113,0.691,0.947,0.691h0.42
						c0.207,0,0.594,0,0.594,0.399c0,0.456-0.473,0.456-0.652,0.456c-0.453,0-0.986-0.022-1.512-0.043
						c-0.516-0.021-1.023-0.042-1.451-0.042c-0.098,0-0.314,0.008-0.611,0.019c-0.656,0.025-1.693,0.065-2.693,0.065
						c-0.228,0-0.705,0-0.705-0.456c0-0.182,0.09-0.399,0.512-0.399c0.246,0,0.627-0.026,0.846-0.054
						c1.135-0.148,1.643-0.928,2.236-2.41l7.02-17.566C479.39,0.443,479.595,0,480.009,0c0.395,0,0.605,0.414,0.859,1
						c0.293,0.674,1.318,3.238,2.523,6.268c1.553,3.89,3.408,8.547,4.416,10.939c0.986,2.34,1.738,2.803,2.34,2.946
						c0.4,0.08,0.809,0.106,1.135,0.106c0.146,0,0.537,0,0.537,0.399C491.819,22.092,491.319,22.113,490.36,22.113L490.36,22.113z
						 M479.296,6.252l-2.564,6.852l5.096-0.04L479.296,6.252L479.296,6.252z"/>
				</g>
				<g>
					<path class="st0" d="M502.491,22.113c-1.119,0-2.207-0.031-3.068-0.056c-0.555-0.017-1.016-0.029-1.324-0.029
						c-0.275,0-0.758,0.016-1.307,0.033c-0.73,0.023-1.578,0.052-2.215,0.052c-0.607,0-0.736-0.249-0.736-0.456
						c0-0.264,0.211-0.399,0.623-0.399c0.428,0,0.758-0.06,0.971-0.106c0.391-0.078,0.58-0.468,0.674-1.387
						c0.139-1.166,0.139-3.378,0.139-5.939V2.536l-3.988,0.106c-1.666,0.057-2.219,0.216-2.574,0.736
						c-0.303,0.456-0.412,0.774-0.449,0.922c-0.029,0.115-0.115,0.469-0.478,0.469c-0.428,0-0.428-0.453-0.428-0.622
						c0-0.491,0.549-3.085,0.596-3.26c0.057-0.247,0.152-0.665,0.504-0.665c0.123,0,0.238,0.051,0.371,0.11
						c0.19,0.082,0.445,0.194,0.844,0.227c0.838,0.086,1.902,0.139,2.785,0.139h11.076c0.879,0,1.492-0.082,1.898-0.136l0.318-0.066
						c0.242-0.05,0.373-0.077,0.471-0.077c0.398,0,0.398,0.423,0.398,0.763c0,0.279-0.02,0.86-0.039,1.472
						c-0.021,0.677-0.045,1.391-0.045,1.773c-0.02,0.198-0.061,0.622-0.428,0.622c-0.434,0-0.461-0.418-0.48-0.723l-0.027-0.303
						c-0.068-0.853-1.209-1.364-3.133-1.408l-3.344-0.079v11.29c0,2.561,0,4.773,0.137,5.965c0.09,0.829,0.26,1.267,0.941,1.358
						c0.385,0.055,0.992,0.109,1.404,0.109c0.539,0,0.621,0.25,0.621,0.399C503.198,21.794,503.13,22.113,502.491,22.113
						L502.491,22.113z"/>
				</g>
				<g>
					<path class="st0" d="M518.401,22.113c-1.127,0-2.225-0.033-3.08-0.056c-0.545-0.017-0.992-0.029-1.285-0.029
						c-0.275,0-0.758,0.016-1.309,0.033c-0.729,0.023-1.576,0.052-2.215,0.052c-0.607,0-0.734-0.249-0.734-0.456
						c0-0.264,0.209-0.399,0.623-0.399c0.426,0,0.758-0.06,0.971-0.106c0.416-0.084,0.584-0.399,0.674-1.247
						c0.137-1.166,0.137-3.334,0.137-6.079V8.902c0-4.262,0-5.03-0.055-5.92c-0.051-0.88-0.287-1.288-0.814-1.407
						c-0.262-0.071-0.586-0.106-0.967-0.106c-0.154,0-0.625,0-0.625-0.455c0-0.398,0.553-0.398,0.846-0.398
						c0.57,0,1.338,0.024,2.055,0.046c0.625,0.02,1.207,0.037,1.584,0.037c0.31,0,0.812-0.016,1.369-0.034
						c0.686-0.023,1.453-0.049,2.041-0.049c0.209,0,0.764,0,0.764,0.398c0,0.455-0.469,0.455-0.623,0.455
						c-0.27,0-0.486,0.025-0.809,0.081c-0.619,0.114-0.834,0.462-0.893,1.432c-0.053,0.891-0.053,1.659-0.053,5.921v4.924
						c0,2.746,0,4.916,0.111,6.107c0.08,0.73,0.252,1.12,0.967,1.216c0.387,0.055,0.992,0.109,1.406,0.109
						c0.539,0,0.621,0.25,0.621,0.399C519.108,21.794,519.04,22.113,518.401,22.113L518.401,22.113z"/>
				</g>
				<g>
					<path class="st0" d="M533.026,22.505c-7.867,0-11.449-5.774-11.449-11.141s3.672-11.142,11.728-11.142
						c7.08,0,11.477,4.075,11.477,10.637C544.782,17.716,539.95,22.505,533.026,22.505L533.026,22.505z M532.495,1.916
						c-2.506,0-6.707,1.114-6.707,8.579c0,6.041,3.459,10.261,8.414,10.261c1.898,0,6.312-0.863,6.312-8.86
						C540.515,6.02,537.218,1.916,532.495,1.916L532.495,1.916z"/>
				</g>
				<g>
					<path class="st0" d="M567.171,22.448c-0.379,0-0.752-0.345-1.074-0.668c-1.057-1.005-2.773-2.731-4.605-4.574
						c-1.217-1.223-2.486-2.499-3.645-3.649c-2.424-2.399-4.867-5.085-6.043-6.376c-0.154-0.17-0.287-0.314-0.393-0.43l0.299,11.379
						c0.061,2.363,0.494,2.814,0.861,2.943c0.465,0.164,0.99,0.185,1.396,0.185c0.162,0,0.652,0,0.652,0.399
						c0,0.456-0.574,0.456-0.818,0.456c-1.184,0-2.07-0.037-2.695-0.062c-0.334-0.013-0.59-0.023-0.773-0.023
						c-0.074,0-0.236,0.007-0.467,0.017c-0.564,0.024-1.525,0.067-2.555,0.067c-0.297,0-0.791,0-0.791-0.456
						c0-0.264,0.209-0.399,0.623-0.399c0.279,0,0.807-0.017,1.209-0.133c0.607-0.187,0.715-0.949,0.74-3.302l0.254-16.561
						c0-0.306,0-1.124,0.539-1.124c0.322,0,0.566,0.269,0.904,0.642l0.256,0.28c0.043,0.046,4.434,4.772,8.666,8.976
						c1.104,1.099,2.826,2.909,4.182,4.327c0.809,0.849,1.484,1.558,1.809,1.887l-0.272-12.269c-0.027-1.721-0.293-2.133-0.844-2.36
						c-0.387-0.154-1.031-0.154-1.416-0.154c-0.154,0-0.621,0-0.621-0.429c0-0.425,0.543-0.425,0.9-0.425
						c0.895,0,1.742,0.031,2.402,0.056c0.416,0.015,0.758,0.027,0.984,0.027c0.098,0,0.271-0.008,0.508-0.02
						c0.508-0.025,1.301-0.063,2.232-0.063c0.287,0,0.818,0,0.818,0.425c0,0.195-0.117,0.429-0.68,0.429
						c-0.279,0-0.48,0-0.795,0.078c-0.672,0.191-0.877,0.689-0.902,2.211L567.71,21.41C567.71,21.718,567.71,22.448,567.171,22.448
						L567.171,22.448z"/>
				</g>
				<path class="st0" d="M585.538,8.902c0-4.365,0-5.149-0.059-6.042c-0.055-0.952-0.279-1.399-1.201-1.594
					c-0.225-0.057-0.699-0.085-0.953-0.085c-0.111,0-0.221-0.056-0.221-0.168c0-0.167,0.135-0.224,0.447-0.224
					c0.641,0,1.397,0,2.014,0.027l1.146,0.057c0.561,0.026,6.236,0,6.883-0.027c0.527-0.029,0.979-0.029,1.227-0.112
					c0.172-0.057,0.279-0.168,0.393-0.168c0.113,0,0.168,0.111,0.168,0.251c0,0.196-0.141,0.532-0.221,1.316
					c-0.029,0.279-0.086,1.51-0.143,1.845c-0.025,0.14-0.084,0.309-0.223,0.309c-0.141,0-0.195-0.14-0.195-0.337
					c0-0.223-0.086-0.698-0.254-1.062c-0.166-0.364-0.812-0.867-1.9-0.894l-4.309-0.085c-0.166,0-0.252,0.085-0.252,0.309v7.721
					c0,0.167,0.027,0.252,0.195,0.252l3.58-0.028c0.479,0,0.867,0,1.26-0.028c0.674-0.055,1.033-0.14,1.287-0.504
					c0.113-0.14,0.195-0.279,0.307-0.279c0.113,0,0.141,0.085,0.141,0.225c0,0.168-0.141,0.642-0.223,1.564
					c-0.059,0.561-0.111,1.68-0.111,1.876c0,0.251,0,0.53-0.199,0.53c-0.141,0-0.195-0.111-0.195-0.252
					c-0.027-0.278-0.053-0.671-0.166-1.007c-0.141-0.391-0.588-0.895-1.453-1.007c-0.701-0.084-3.748-0.084-4.227-0.084
					c-0.141,0-0.195,0.057-0.195,0.253v2.378c0,2.684,0,4.894,0.139,6.069c0.084,0.812,0.254,1.427,1.094,1.538
					c0.389,0.057,1.008,0.113,1.256,0.113c0.168,0,0.225,0.083,0.225,0.167c0,0.141-0.139,0.224-0.447,0.224
					c-1.537,0-3.301-0.083-3.439-0.083c-0.141,0-1.904,0.083-2.742,0.083c-0.309,0-0.449-0.057-0.449-0.224
					c0-0.084,0.059-0.167,0.227-0.167c0.25,0,0.586-0.057,0.838-0.113c0.561-0.111,0.699-0.726,0.813-1.538
					c0.141-1.176,0.141-3.386,0.141-6.069V8.902z"/>
				<path class="st0" d="M608.048,0.398c6.295,0,10.992,3.973,10.992,10.489c0,6.266-4.418,11.442-11.158,11.442
					c-7.668,0-10.856-5.96-10.856-10.995C597.026,6.804,600.327,0.398,608.048,0.398z M608.636,21.268
					c2.516,0,7.721-1.457,7.721-9.597c0-6.713-4.086-10.321-8.506-10.321c-4.67,0-8.168,3.077-8.168,9.202
					C599.683,17.07,603.601,21.268,608.636,21.268z"/>
				<path class="st0" d="M623.927,8.902c0-4.365,0-5.149-0.057-6.042c-0.055-0.952-0.281-1.399-1.203-1.594
					c-0.225-0.057-0.699-0.085-0.951-0.085c-0.113,0-0.223-0.056-0.223-0.168c0-0.167,0.137-0.224,0.447-0.224
					c1.256,0,3.021,0.084,3.162,0.084c0.305,0,2.432-0.084,3.301-0.084c1.76,0,3.633,0.167,5.119,1.23
					c0.695,0.503,1.928,1.873,1.928,3.804c0,2.07-0.867,4.141-3.385,6.462c2.293,2.938,4.197,5.428,5.818,7.161
					c1.512,1.596,2.715,1.903,3.414,2.016c0.533,0.084,0.922,0.084,1.088,0.084c0.141,0,0.254,0.083,0.254,0.167
					c0,0.167-0.168,0.224-0.674,0.224h-1.982c-1.566,0-2.268-0.14-2.994-0.53c-1.205-0.644-2.184-2.014-3.779-4.114
					c-1.174-1.538-2.486-3.411-3.047-4.139c-0.111-0.111-0.193-0.168-0.361-0.168l-3.441-0.057c-0.139,0-0.197,0.085-0.197,0.225
					v0.672c0,2.684,0,4.894,0.141,6.069c0.084,0.812,0.252,1.427,1.092,1.538c0.389,0.057,1.008,0.113,1.26,0.113
					c0.166,0,0.221,0.083,0.221,0.167c0,0.141-0.139,0.224-0.447,0.224c-1.539,0-3.301-0.083-3.439-0.083
					c-0.027,0-1.793,0.083-2.629,0.083c-0.311,0-0.451-0.057-0.451-0.224c0-0.084,0.059-0.167,0.227-0.167
					c0.252,0,0.586-0.057,0.84-0.113c0.559-0.111,0.699-0.726,0.812-1.538c0.139-1.176,0.139-3.386,0.139-6.069V8.902z
					 M626.163,11.335c0,0.14,0.059,0.253,0.197,0.336c0.416,0.252,1.703,0.447,2.935,0.447c0.674,0,1.455-0.083,2.1-0.53
					c0.977-0.672,1.707-2.182,1.707-4.309c0-3.496-1.846-5.596-4.842-5.596c-0.838,0-1.592,0.086-1.873,0.17
					c-0.141,0.055-0.225,0.167-0.225,0.334V11.335z"/>
				<path class="st0" d="M658.292,1.49c0.336-0.924,0.449-1.092,0.615-1.092c0.17,0,0.279,0.14,0.617,1.006
					c0.42,1.064,4.811,12.618,6.516,16.868c1.008,2.491,1.82,2.938,2.406,3.106c0.422,0.14,0.84,0.169,1.121,0.169
					c0.166,0,0.279,0.026,0.279,0.167c0,0.167-0.252,0.224-0.56,0.224c-0.418,0-2.461,0-4.393-0.057
					c-0.529-0.026-0.84-0.026-0.84-0.194c0-0.113,0.086-0.169,0.199-0.196c0.166-0.057,0.334-0.308,0.166-0.756l-2.602-6.882
					c-0.057-0.111-0.111-0.166-0.252-0.166h-6.014c-0.141,0-0.225,0.083-0.279,0.223l-1.68,4.951
					c-0.25,0.699-0.391,1.37-0.391,1.874c0,0.56,0.59,0.812,1.062,0.812h0.279c0.195,0,0.281,0.054,0.281,0.167
					c0,0.167-0.168,0.224-0.42,0.224c-0.674,0-1.875-0.083-2.182-0.083c-0.307,0-1.846,0.083-3.16,0.083
					c-0.365,0-0.533-0.057-0.533-0.224c0-0.113,0.113-0.167,0.252-0.167c0.195,0,0.588-0.029,0.808-0.057
					c1.287-0.168,1.848-1.23,2.354-2.63L658.292,1.49z M661.2,12.679c0.141,0,0.141-0.083,0.113-0.196l-2.656-7.552
					c-0.139-0.42-0.279-0.42-0.42,0l-2.461,7.552c-0.057,0.14,0,0.196,0.082,0.196H661.2z"/>
			</g>
		</g>
	</g>
</g>
</svg>
