<?xml version="1.0" encoding="UTF-8" standalone="no"?>
<svg
   xmlns:dc="http://purl.org/dc/elements/1.1/"
   xmlns:cc="http://creativecommons.org/ns#"
   xmlns:rdf="http://www.w3.org/1999/02/22-rdf-syntax-ns#"
   xmlns:svg="http://www.w3.org/2000/svg"
   xmlns="http://www.w3.org/2000/svg"
   version="1.1"
   id="svg10991"
   viewBox="0 0 5000.0001 4350.0001"
   height="4350"
   width="5000">
  <title
     id="title14874">STS-127</title>
  <metadata
     id="metadata10996">
    <rdf:RDF>
      <cc:Work
         rdf:about="">
        <dc:format>image/svg+xml</dc:format>
        <dc:type
           rdf:resource="http://purl.org/dc/dcmitype/StillImage" />
        <dc:title>STS-127</dc:title>
      </cc:Work>
    </rdf:RDF>
  </metadata>
  <g
     id="layer1"
     transform="translate(0,3297.6379)">
    <g
       id="g4462"
       transform="matrix(78.945671,0,0,-78.945671,-29202.845,49016.429)">
      <g
         id="g4464"
         clip-path="url(#clipPath4466)">
        <g
           id="g4470"
           transform="translate(401.578,608.8323)">
          <path
             d="m 0,0 c -16.765,0 -30.403,11.788 -30.403,26.277 0,14.488 13.638,26.276 30.403,26.276 16.764,0 30.403,-11.788 30.403,-26.276 C 30.403,11.788 16.764,0 0,0"
             style="fill:#000000;fill-opacity:1;fill-rule:nonzero;stroke:none"
             id="path4472" />
        </g>
        <g
           id="g4474"
           transform="translate(401.578,662.48)">
          <path
             d="m 0,0 c -8.352,0 -16.219,-2.807 -22.151,-7.904 -2.917,-2.507 -5.211,-5.433 -6.819,-8.698 -1.677,-3.408 -2.528,-7.031 -2.528,-10.769 0,-3.738 0.851,-7.361 2.528,-10.769 1.608,-3.265 3.902,-6.192 6.819,-8.698 5.932,-5.097 13.799,-7.905 22.151,-7.905 8.352,0 16.218,2.808 22.151,7.905 2.917,2.506 5.211,5.433 6.818,8.698 1.678,3.408 2.529,7.031 2.529,10.769 0,3.738 -0.851,7.361 -2.529,10.769 -1.607,3.265 -3.901,6.191 -6.818,8.698 C 16.218,-2.807 8.352,0 0,0 m 0,-2.19 c 16.186,0 29.308,-11.274 29.308,-25.181 0,-13.908 -13.122,-25.182 -29.308,-25.182 -16.187,0 -29.308,11.274 -29.308,25.182 0,13.907 13.121,25.181 29.308,25.181"
             style="fill:#000000;fill-opacity:1;fill-rule:nonzero;stroke:none"
             id="path4476" />
        </g>
        <g
           id="g4478"
           transform="translate(401.578,609.6747)">
          <path
             d="m 0,0 c -16.3,0 -29.561,11.41 -29.561,25.434 0,14.025 13.261,25.434 29.561,25.434 16.3,0 29.561,-11.409 29.561,-25.434 C 29.561,11.41 16.3,0 0,0"
             style="fill:#000000;fill-opacity:1;fill-rule:nonzero;stroke:none"
             id="path4480" />
        </g>
        <g
           id="g4482"
           transform="translate(401.578,660.7956)">
          <path
             d="m 0,0 c -7.949,0 -15.426,-2.663 -21.053,-7.497 -5.65,-4.854 -8.761,-11.314 -8.761,-18.19 0,-6.876 3.111,-13.336 8.761,-18.189 5.627,-4.835 13.104,-7.498 21.053,-7.498 7.949,0 15.426,2.663 21.053,7.498 5.65,4.853 8.76,11.313 8.76,18.189 0,6.876 -3.11,13.336 -8.76,18.19 C 15.426,-2.663 7.949,0 0,0 m 0,-0.505 c 16.186,0 29.308,-11.275 29.308,-25.182 0,-13.907 -13.122,-25.182 -29.308,-25.182 -16.187,0 -29.308,11.275 -29.308,25.182 0,13.907 13.121,25.182 29.308,25.182"
             style="fill:#86b7e2;fill-opacity:1;fill-rule:nonzero;stroke:none"
             id="path4484" />
        </g>
        <g
           id="g4486"
           transform="translate(381.7333,638.5576)">
          <path
             d="m 0,0 c 0,0 -2.864,-7.159 -1.937,-10.191 0.926,-3.031 2.358,-5.305 7.411,-3.79 5.053,1.516 12.38,6.149 12.38,6.149 l 3.874,-6.626 c 0,0 -4.666,-3.316 -10.106,-3.818 -2.737,-0.253 -7.664,0.337 -9.938,1.6 -2.274,1.264 -4.211,3.117 -4.379,7.159 C -2.864,-5.474 0,0 0,0"
             style="fill:#d9ab00;fill-opacity:1;fill-rule:nonzero;stroke:none"
             id="path4488" />
        </g>
        <g
           id="g4490"
           transform="translate(399.5878,630.7252)">
          <path
             d="M 0,0 18.191,8.927 0.618,-1.404 0,0 Z"
             style="fill:#d9ab00;fill-opacity:1;fill-rule:nonzero;stroke:none"
             id="path4492" />
        </g>
        <g
           id="g4494"
           transform="translate(417.7789,639.6523)">
          <path
             d="m 0,0 -16.792,-11.351 0.83,-1.248 L 0,0 Z"
             style="fill:#d9ab00;fill-opacity:1;fill-rule:nonzero;stroke:none"
             id="path4496" />
        </g>
        <g
           id="g4498"
           transform="translate(403.4618,624.0999)">
          <path
             d="M 0,0 14.317,15.552 -1.011,1.404 0,0 Z"
             style="fill:#d9ab00;fill-opacity:1;fill-rule:nonzero;stroke:none"
             id="path4500" />
        </g>
        <g
           id="g4502"
           transform="translate(404.3117,624.1655)">
          <path
             d="M 0,0 C 0.109,0.246 0.481,2.844 0.573,3.186 0.666,3.527 1.568,4.433 1.868,4.77 2.167,5.106 4.863,7.94 5.356,8.534 5.849,9.127 5.877,9.528 5.731,9.719 5.585,9.91 5.191,9.99 4.488,9.671 3.786,9.352 0.341,7.501 -0.064,7.302 -0.467,7.102 -1.579,6.47 -1.934,6.472 -2.287,6.474 -4.891,6.801 -5.157,6.761 -5.423,6.721 -5.783,6.609 -6.018,6.43 -6.252,6.252 -6.416,6.126 -6.416,6.126 L -4.992,3.216 -5.321,2.965 -5.539,2.618 -4.984,1.891 -5.406,1.497 c 0,0 -0.405,-0.47 -0.351,-0.541 0.055,-0.072 0.615,0.196 0.615,0.196 l 0.492,0.303 0.554,-0.728 0.392,0.118 0.329,0.25 2.431,-2.142 c 0,0 0.163,0.125 0.398,0.305 C -0.312,-0.564 -0.109,-0.246 0,0"
             style="fill:#000000;fill-opacity:1;fill-rule:nonzero;stroke:none"
             id="path4504" />
        </g>
        <g
           id="g4506"
           transform="translate(404.3117,624.1655)">
          <path
             d="M 0,0 C 0.109,0.246 0.481,2.844 0.573,3.186 0.666,3.527 1.568,4.433 1.868,4.77 2.167,5.106 4.863,7.94 5.356,8.534 5.849,9.127 5.877,9.528 5.731,9.719 5.585,9.91 5.191,9.99 4.488,9.671 3.786,9.352 0.341,7.501 -0.064,7.302 -0.467,7.102 -1.579,6.47 -1.934,6.472 -2.287,6.474 -4.891,6.801 -5.157,6.761 -5.423,6.721 -5.783,6.609 -6.018,6.43 -6.252,6.252 -6.416,6.126 -6.416,6.126 L -4.992,3.216 -5.321,2.965 -5.539,2.618 -4.984,1.891 -5.406,1.497 c 0,0 -0.405,-0.47 -0.351,-0.541 0.055,-0.072 0.615,0.196 0.615,0.196 l 0.492,0.303 0.554,-0.728 0.392,0.118 0.329,0.25 2.431,-2.142 c 0,0 0.163,0.125 0.398,0.305 C -0.312,-0.564 -0.109,-0.246 0,0 Z"
             style="fill:none;stroke:#ffffff;stroke-width:0.25299999;stroke-linecap:butt;stroke-linejoin:round;stroke-miterlimit:4;stroke-dasharray:none;stroke-opacity:1"
             id="path4508" />
        </g>
        <g
           id="g4510"
           transform="translate(399.9937,637.9767)">
          <path
             d="m 0,0 c -1.457,-5.473 -7.06,-8.733 -12.513,-7.281 -5.453,1.452 -8.693,7.066 -7.236,12.539 1.458,5.473 7.06,8.733 12.513,7.281 C -1.782,11.088 1.457,5.473 0,0"
             style="fill:#000000;fill-opacity:1;fill-rule:nonzero;stroke:none"
             id="path4512" />
        </g>
        <g
           id="g4514"
           transform="translate(394.0078,650.0933)">
          <path
             d="m 0,0 c 2.026,-3.576 3.418,-6.409 2.177,-11.069 -1.284,-4.823 -3.782,-6.341 -7.866,-8.466 5.496,-0.872 10.408,2.188 11.797,7.407 C 7.457,-7.066 4.757,-1.879 0,0"
             style="fill:#003180;fill-opacity:1;fill-rule:nonzero;stroke:none"
             id="path4516" />
        </g>
        <g
           id="g4518"
           transform="translate(393.9973,650.0828)">
          <path
             d="m 0,0 c 2.666,-2.719 4.426,-6.678 3.185,-11.337 -1.284,-4.823 -4.358,-6.959 -8.874,-8.198 5.496,-0.872 10.408,2.188 11.798,7.407 C 7.457,-7.065 4.757,-1.879 0,0"
             style="fill:#006bbb;fill-opacity:1;fill-rule:nonzero;stroke:none"
             id="path4520" />
        </g>
        <g
           id="g4522"
           transform="translate(394.0184,650.0776)">
          <path
             d="m 0,0 c 3.43,-2.357 5.385,-6.984 4.144,-11.643 -1.284,-4.824 -4.933,-7.526 -9.833,-7.892 5.222,-1.006 10.408,2.188 11.798,7.407 C 7.456,-7.065 4.757,-1.879 0,0"
             style="fill:#3382c5;fill-opacity:1;fill-rule:nonzero;stroke:none"
             id="path4524" />
        </g>
        <g
           id="g4526"
           transform="translate(394.0184,650.0776)">
          <path
             d="m 0,0 c 3.977,-2.04 6.357,-7.192 5.117,-11.851 -1.285,-4.823 -5.954,-8.077 -10.806,-7.684 5.222,-1.006 10.408,2.188 11.798,7.407 C 7.456,-7.065 4.757,-1.879 0,0"
             style="fill:#86b7e2;fill-opacity:1;fill-rule:nonzero;stroke:none"
             id="path4528" />
        </g>
        <g
           id="WOLF">
          <g
             transform="translate(373.5119,639.8679)"
             id="g4530">
            <path
               id="path4532"
               style="fill:#d9ab00;fill-opacity:1;fill-rule:nonzero;stroke:none"
               d="M 0,0 0.105,0.349 2.552,0.082 2.554,0.09 0.359,1.19 0.486,1.61 2.923,1.311 2.925,1.319 0.74,2.451 0.845,2.8 3.501,1.362 3.373,0.937 0.963,1.241 0.961,1.233 3.13,0.132 3.001,-0.292 0,0 Z" />
          </g>
          <g
             transform="translate(376.1215,642.9713)"
             id="g4534">
            <path
               id="path4536"
               style="fill:#d9ab00;fill-opacity:1;fill-rule:nonzero;stroke:none"
               d="M 0,0 C 0.619,-0.288 1.15,-0.462 1.363,-0.004 1.577,0.453 1.102,0.748 0.482,1.036 -0.137,1.324 -0.668,1.498 -0.881,1.04 -1.094,0.582 -0.619,0.288 0,0 M 0.643,1.381 C 1.319,1.067 1.978,0.609 1.634,-0.13 1.29,-0.87 0.515,-0.66 -0.161,-0.345 c -0.676,0.314 -1.335,0.772 -0.991,1.511 0.345,0.74 1.119,0.53 1.795,0.215" />
          </g>
          <g
             transform="translate(375.7789,645.6166)"
             id="g4538">
            <path
               id="path4540"
               style="fill:#d9ab00;fill-opacity:1;fill-rule:nonzero;stroke:none"
               d="M 0,0 0.188,0.312 2.447,-1.044 3.065,-0.014 3.342,-0.18 2.536,-1.523 0,0 Z" />
          </g>
          <g
             transform="translate(376.8842,647.3912)"
             id="g4542">
            <path
               id="path4544"
               style="fill:#d9ab00;fill-opacity:1;fill-rule:nonzero;stroke:none"
               d="M 0,0 0.901,1.235 1.162,1.044 0.476,0.104 1.225,-0.443 1.873,0.444 2.134,0.253 1.487,-0.634 2.604,-1.449 2.389,-1.744 0,0 Z" />
          </g>
        </g>
        <g
           id="POLANSKY">
          <g
             transform="translate(380.8719,649.9502)"
             id="g4546">
            <path
               id="path4548"
               style="fill:#d9ab00;fill-opacity:1;fill-rule:nonzero;stroke:none"
               d="M 0,0 0.314,0.301 C 0.506,0.484 0.541,0.77 0.269,1.054 0.046,1.288 -0.211,1.334 -0.471,1.085 L -0.767,0.802 0,0 Z m -1.237,0.765 0.545,0.521 c 0.185,0.178 0.661,0.633 1.248,0.02 C 0.937,0.908 0.894,0.443 0.532,0.097 L 0.206,-0.216 1.071,-1.119 0.807,-1.371 -1.237,0.765 Z" />
          </g>
          <g
             transform="translate(382.4586,651.3013)"
             id="g4550">
            <path
               id="path4552"
               style="fill:#d9ab00;fill-opacity:1;fill-rule:nonzero;stroke:none"
               d="M 0,0 C 0.427,-0.534 0.825,-0.926 1.219,-0.611 1.614,-0.295 1.32,0.179 0.893,0.713 0.467,1.247 0.068,1.639 -0.326,1.324 -0.721,1.009 -0.426,0.534 0,0 M 1.191,0.951 C 1.656,0.369 2.043,-0.335 1.405,-0.844 0.768,-1.353 0.168,-0.82 -0.298,-0.238 -0.763,0.345 -1.15,1.048 -0.512,1.557 0.125,2.066 0.725,1.534 1.191,0.951" />
          </g>
          <g
             transform="translate(383.2779,653.7945)"
             id="g4554">
            <path
               id="path4556"
               style="fill:#d9ab00;fill-opacity:1;fill-rule:nonzero;stroke:none"
               d="M 0,0 0.303,0.203 1.77,-1.983 2.767,-1.315 2.946,-1.583 1.647,-2.455 0,0 Z" />
          </g>
          <g
             transform="translate(386.252,653.5106)"
             id="g4558">
            <path
               id="path4560"
               style="fill:#d9ab00;fill-opacity:1;fill-rule:nonzero;stroke:none"
               d="M 0,0 0.692,0.393 -0.341,1.449 -0.349,1.445 0,0 Z M -0.757,1.695 -0.332,1.936 1.82,-0.244 1.488,-0.432 0.904,0.17 0.082,-0.296 0.292,-1.111 -0.039,-1.299 -0.757,1.695 Z" />
          </g>
          <g
             transform="translate(386.9977,656.0285)"
             id="g4562">
            <path
               id="path4564"
               style="fill:#d9ab00;fill-opacity:1;fill-rule:nonzero;stroke:none"
               d="M 0,0 0.428,0.199 2.355,-1.626 2.363,-1.622 1.321,0.615 1.652,0.769 2.899,-1.911 2.445,-2.123 0.576,-0.353 0.568,-0.357 1.578,-2.527 1.248,-2.68 0,0 Z" />
          </g>
          <g
             transform="translate(390.7429,656.7866)"
             id="g4566">
            <path
               id="path4568"
               style="fill:#d9ab00;fill-opacity:1;fill-rule:nonzero;stroke:none"
               d="m 0,0 c -0.109,0.291 -0.289,0.454 -0.615,0.332 -0.287,-0.107 -0.4,-0.327 -0.29,-0.621 0.292,-0.78 1.425,0.174 1.804,-0.839 0.239,-0.64 -0.162,-0.998 -0.554,-1.144 -0.648,-0.242 -0.963,0.02 -1.183,0.61 l 0.341,0.128 c 0.116,-0.311 0.261,-0.637 0.761,-0.45 0.272,0.101 0.409,0.374 0.298,0.669 -0.292,0.783 -1.43,-0.159 -1.811,0.857 -0.095,0.256 -0.177,0.805 0.526,1.068 0.527,0.197 0.867,0.023 1.065,-0.482 L 0,0 Z" />
          </g>
          <g
             transform="translate(391.4338,657.8368)"
             id="g4570">
            <path
               id="path4572"
               style="fill:#d9ab00;fill-opacity:1;fill-rule:nonzero;stroke:none"
               d="M 0,0 0.35,0.103 0.754,-1.273 0.762,-1.27 1.34,0.394 1.729,0.508 1.219,-0.929 2.635,-2.309 2.246,-2.423 1.076,-1.281 0.9,-1.769 1.185,-2.735 0.835,-2.838 0,0 Z" />
          </g>
          <g
             transform="translate(393.3663,658.3953)"
             id="g4574">
            <path
               id="path4576"
               style="fill:#d9ab00;fill-opacity:1;fill-rule:nonzero;stroke:none"
               d="M 0,0 0.392,0.087 1.242,-1.142 1.513,0.336 1.885,0.418 1.51,-1.507 1.761,-2.639 1.405,-2.718 1.154,-1.586 0,0 Z" />
          </g>
        </g>
        <g
           transform="translate(0,-0.02533388)"
           id="HURLEY">
          <g
             transform="translate(399.8009,656.4001)"
             id="g4578">
            <path
               id="path4580"
               style="fill:#d9ab00;fill-opacity:1;fill-rule:nonzero;stroke:none"
               d="m 0,0 -0.363,-0.031 -0.122,1.419 -1.011,-0.086 0.122,-1.42 -0.363,-0.031 -0.253,2.946 0.363,0.032 0.104,-1.205 1.01,0.086 -0.103,1.205 0.363,0.032 L 0,0 Z" />
          </g>
          <g
             transform="translate(400.1918,659.3801)"
             id="g4582">
            <path
               id="path4584"
               style="fill:#d9ab00;fill-opacity:1;fill-rule:nonzero;stroke:none"
               d="m 0,0 0.364,0.006 0.034,-2.08 c 0.007,-0.435 0.151,-0.635 0.511,-0.63 0.39,0.007 0.502,0.232 0.495,0.646 l -0.033,2.08 0.365,0.006 0.033,-2.08 C 1.778,-2.619 1.494,-2.993 0.914,-3.002 0.322,-3.011 0.043,-2.688 0.033,-2.079 L 0,0 Z" />
          </g>
          <g
             transform="translate(402.8588,658.0353)"
             id="g4586">
            <path
               id="path4588"
               style="fill:#d9ab00;fill-opacity:1;fill-rule:nonzero;stroke:none"
               d="M 0,0 0.36,-0.019 C 0.575,-0.03 0.968,-0.05 0.997,0.521 1.012,0.81 0.828,1.002 0.488,1.02 L 0.054,1.042 0,0 Z M -0.294,1.359 0.661,1.309 C 1.124,1.285 1.404,0.997 1.38,0.53 1.363,0.207 1.234,-0.126 0.886,-0.191 L 0.885,-0.199 C 1.14,-0.242 1.274,-0.46 1.277,-0.713 L 1.276,-1.219 c 0,-0.328 0.049,-0.413 0.133,-0.472 l -0.438,0.023 c -0.059,0.065 -0.077,0.286 -0.077,0.431 l -0.001,0.461 c -0.008,0.406 -0.23,0.443 -0.417,0.453 l -0.492,0.025 -0.068,-1.315 -0.364,0.019 0.154,2.953 z" />
          </g>
          <g
             transform="translate(404.8865,659.2473)"
             id="g4590">
            <path
               id="path4592"
               style="fill:#d9ab00;fill-opacity:1;fill-rule:nonzero;stroke:none"
               d="M 0,0 0.362,-0.042 0.056,-2.659 1.25,-2.798 1.212,-3.119 -0.343,-2.937 0,0 Z" />
          </g>
          <g
             transform="translate(406.8828,658.9951)"
             id="g4594">
            <path
               id="path4596"
               style="fill:#d9ab00;fill-opacity:1;fill-rule:nonzero;stroke:none"
               d="M 0,0 1.504,-0.271 1.447,-0.588 0.302,-0.383 0.137,-1.296 1.218,-1.49 1.16,-1.808 0.08,-1.613 -0.107,-2.657 1.087,-2.872 1.03,-3.19 -0.523,-2.91 0,0 Z" />
          </g>
          <g
             transform="translate(408.6974,658.6649)"
             id="g4598">
            <path
               id="path4600"
               style="fill:#d9ab00;fill-opacity:1;fill-rule:nonzero;stroke:none"
               d="M 0,0 0.39,-0.096 0.607,-1.574 1.504,-0.37 1.874,-0.461 0.685,-2.02 0.408,-3.146 0.054,-3.059 0.331,-1.933 0,0 Z" />
          </g>
        </g>
        <g
           id="PAYETTE">
          <g
             transform="translate(415.7267,654.6884)"
             id="g4602">
            <path
               id="path4604"
               style="fill:#d9ab00;fill-opacity:1;fill-rule:nonzero;stroke:none"
               d="M 0,0 0.385,-0.203 C 0.619,-0.326 0.902,-0.269 1.086,0.079 1.236,0.365 1.199,0.623 0.88,0.791 L 0.517,0.982 0,0 Z M 0.334,1.416 1.001,1.065 C 1.228,0.945 1.811,0.638 1.415,-0.113 1.158,-0.601 0.704,-0.708 0.261,-0.474 l -0.4,0.21 -0.583,-1.107 -0.323,0.17 1.379,2.617 z" />
          </g>
          <g
             transform="translate(417.221,653.3575)"
             id="g4606">
            <path
               id="path4608"
               style="fill:#d9ab00;fill-opacity:1;fill-rule:nonzero;stroke:none"
               d="M 0,0 0.675,-0.42 1.11,0.992 1.103,0.997 0,0 Z m 1.126,1.474 0.416,-0.258 -0.887,-2.93 -0.323,0.201 0.249,0.801 -0.802,0.498 -0.615,-0.573 -0.323,0.201 2.285,2.06 z" />
          </g>
          <g
             transform="translate(419.3738,654.1949)"
             id="g4610">
            <path
               id="path4612"
               style="fill:#d9ab00;fill-opacity:1;fill-rule:nonzero;stroke:none"
               d="m 0,0 0.326,-0.235 -0.353,-1.452 1.283,0.781 0.309,-0.223 -1.687,-1 -0.678,-0.941 -0.296,0.214 0.679,0.94 L 0,0 Z" />
          </g>
          <g
             transform="translate(421.2887,652.7806)"
             id="g4614">
            <path
               id="path4616"
               style="fill:#d9ab00;fill-opacity:1;fill-rule:nonzero;stroke:none"
               d="M 0,0 1.166,-0.988 0.957,-1.234 0.069,-0.482 -0.53,-1.19 0.307,-1.899 0.098,-2.145 -0.739,-1.436 -1.424,-2.245 -0.498,-3.029 -0.707,-3.276 -1.911,-2.256 0,0 Z" />
          </g>
          <g
             transform="translate(421.4536,648.6476)"
             id="g4618">
            <path
               id="path4620"
               style="fill:#d9ab00;fill-opacity:1;fill-rule:nonzero;stroke:none"
               d="M 0,0 -0.258,0.257 1.601,2.122 1.076,2.645 1.304,2.874 2.615,1.568 2.387,1.339 1.859,1.865 0,0 Z" />
          </g>
          <g
             transform="translate(422.7296,647.2402)"
             id="g4622">
            <path
               id="path4624"
               style="fill:#d9ab00;fill-opacity:1;fill-rule:nonzero;stroke:none"
               d="M 0,0 -0.235,0.278 1.776,1.978 1.298,2.545 1.545,2.753 2.739,1.339 2.493,1.131 2.012,1.7 0,0 Z" />
          </g>
          <g
             transform="translate(425.7844,648.1544)"
             id="g4626">
            <path
               id="path4628"
               style="fill:#d9ab00;fill-opacity:1;fill-rule:nonzero;stroke:none"
               d="M 0,0 0.877,-1.251 0.612,-1.436 -0.056,-0.484 -0.815,-1.016 -0.185,-1.914 -0.45,-2.1 -1.079,-1.201 -1.947,-1.81 -1.251,-2.803 -1.516,-2.988 -2.421,-1.697 0,0 Z" />
          </g>
        </g>
        <g
           transform="translate(0,-0.05066776)"
           id="CASSIDY">
          <g
             transform="translate(383.1508,617.9935)"
             id="g4630">
            <path
               id="path4632"
               style="fill:#d9ab00;fill-opacity:1;fill-rule:nonzero;stroke:none"
               d="m 0,0 c -0.378,-0.413 -0.872,-0.673 -1.373,-0.266 -0.653,0.53 -0.241,1.214 0.229,1.792 0.47,0.579 1.074,1.107 1.707,0.592 C 1.032,1.737 1.014,1.315 0.662,0.854 L 0.366,1.094 C 0.571,1.36 0.668,1.65 0.375,1.887 -0.017,2.205 -0.418,1.817 -0.849,1.286 c -0.43,-0.53 -0.728,-1.002 -0.336,-1.321 0.343,-0.279 0.653,0.003 0.889,0.275 L 0,0 Z" />
          </g>
          <g
             transform="translate(383.9406,617.5563)"
             id="g4634">
            <path
               id="path4636"
               style="fill:#d9ab00;fill-opacity:1;fill-rule:nonzero;stroke:none"
               d="M 0,0 0.658,-0.447 1.149,0.946 1.142,0.951 0,0 Z M 1.186,1.428 1.59,1.153 0.585,-1.74 0.27,-1.526 l 0.282,0.79 -0.781,0.531 -0.638,-0.548 -0.315,0.215 2.368,1.966 z" />
          </g>
          <g
             transform="translate(387.0734,616.879)"
             id="g4638">
            <path
               id="path4640"
               style="fill:#d9ab00;fill-opacity:1;fill-rule:nonzero;stroke:none"
               d="m 0,0 c 0.154,0.27 0.163,0.512 -0.139,0.685 -0.266,0.151 -0.507,0.098 -0.663,-0.176 -0.412,-0.723 1.047,-0.982 0.512,-1.922 -0.338,-0.594 -0.87,-0.515 -1.234,-0.308 -0.601,0.343 -0.601,0.753 -0.289,1.3 l 0.317,-0.181 c -0.164,-0.287 -0.323,-0.607 0.142,-0.872 0.251,-0.143 0.548,-0.074 0.704,0.199 0.414,0.728 -1.038,0.998 -0.501,1.941 0.135,0.237 0.505,0.651 1.156,0.28 C 0.494,0.667 0.578,0.295 0.317,-0.181 L 0,0 Z" />
          </g>
          <g
             transform="translate(388.976,615.928)"
             id="g4642">
            <path
               id="path4644"
               style="fill:#d9ab00;fill-opacity:1;fill-rule:nonzero;stroke:none"
               d="M 0,0 C 0.133,0.281 0.124,0.523 -0.191,0.672 -0.468,0.803 -0.704,0.731 -0.838,0.446 -1.194,-0.306 0.28,-0.453 -0.181,-1.43 -0.473,-2.049 -1.01,-2.01 -1.388,-1.831 c -0.625,0.295 -0.656,0.704 -0.387,1.273 l 0.329,-0.156 c -0.141,-0.3 -0.275,-0.63 0.208,-0.859 0.262,-0.123 0.553,-0.032 0.687,0.253 0.358,0.756 -1.111,0.914 -0.647,1.896 0.116,0.247 0.453,0.687 1.131,0.367 C 0.442,0.702 0.554,0.338 0.33,-0.156 L 0,0 Z" />
          </g>
          <g
             transform="translate(390.047,616.3014)"
             id="g4646">
            <path
               id="path4648"
               style="fill:#d9ab00;fill-opacity:1;fill-rule:nonzero;stroke:none"
               d="M 0,0 0.337,-0.138 -0.784,-2.875 -1.121,-2.737 0,0 Z" />
          </g>
          <g
             transform="translate(390.3266,613.3323)"
             id="g4650">
            <path
               id="path4652"
               style="fill:#d9ab00;fill-opacity:1;fill-rule:nonzero;stroke:none"
               d="M 0,0 0.36,-0.125 C 0.955,-0.331 1.233,0.255 1.407,0.756 1.594,1.296 1.76,1.888 1.135,2.105 L 0.774,2.23 0,0 Z M 0.528,2.631 1.275,2.372 C 2.144,2.07 2.036,1.406 1.768,0.635 1.524,-0.069 1.107,-0.7 0.34,-0.434 l -0.782,0.272 0.97,2.793 z" />
          </g>
          <g
             transform="translate(392.6802,615.3339)"
             id="g4654">
            <path
               id="path4656"
               style="fill:#d9ab00;fill-opacity:1;fill-rule:nonzero;stroke:none"
               d="m 0,0 0.388,-0.105 0.181,-1.482 0.926,1.182 0.368,-0.1 L 0.637,-2.035 0.333,-3.154 -0.018,-3.059 0.285,-1.94 0,0 Z" />
          </g>
        </g>
        <g
           id="MARSHBURN">
          <g
             transform="translate(396.7141,614.3936)"
             id="g4658">
            <path
               id="path4660"
               style="fill:#d9ab00;fill-opacity:1;fill-rule:nonzero;stroke:none"
               d="M 0,0 0.609,-0.073 0.92,-2.471 0.928,-2.472 1.794,-0.214 2.403,-0.286 2.053,-3.224 1.691,-3.18 1.996,-0.613 1.988,-0.612 1.033,-3.102 0.671,-3.059 0.326,-0.414 0.318,-0.413 0.012,-2.981 -0.35,-2.937 0,0 Z" />
          </g>
          <g
             transform="translate(399.9295,612.2244)"
             id="g4662">
            <path
               id="path4664"
               style="fill:#d9ab00;fill-opacity:1;fill-rule:nonzero;stroke:none"
               d="M 0,0 0.795,-0.03 0.473,1.412 0.464,1.412 0,0 Z m 0.249,1.839 0.488,-0.018 0.682,-2.986 -0.381,0.014 -0.18,0.82 -0.944,0.036 -0.25,-0.803 -0.381,0.015 0.966,2.922 z" />
          </g>
          <g
             transform="translate(402.0665,612.6887)"
             id="g4666">
            <path
               id="path4668"
               style="fill:#d9ab00;fill-opacity:1;fill-rule:nonzero;stroke:none"
               d="M 0,0 0.36,0.011 C 0.575,0.017 0.969,0.028 0.952,0.599 0.944,0.889 0.744,1.065 0.405,1.056 L -0.029,1.043 0,0 Z M -0.402,1.331 0.554,1.358 C 1.018,1.371 1.319,1.106 1.332,0.639 1.342,0.316 1.239,-0.027 0.898,-0.119 l 0,-0.009 C 1.156,-0.15 1.307,-0.356 1.33,-0.609 L 1.37,-1.113 C 1.395,-1.439 1.451,-1.521 1.54,-1.572 L 1.101,-1.584 c -0.064,0.06 -0.099,0.279 -0.111,0.423 l -0.038,0.459 c -0.04,0.405 -0.265,0.423 -0.451,0.418 l -0.493,-0.014 0.038,-1.316 -0.365,-0.01 -0.083,2.955 z" />
          </g>
          <g
             transform="translate(405.1307,613.4551)"
             id="g4670">
            <path
               id="path4672"
               style="fill:#d9ab00;fill-opacity:1;fill-rule:nonzero;stroke:none"
               d="M 0,0 C -0.03,0.31 -0.161,0.513 -0.508,0.48 -0.813,0.451 -0.979,0.268 -0.949,-0.045 -0.869,-0.874 0.473,-0.246 0.576,-1.322 0.641,-2.003 0.161,-2.244 -0.256,-2.284 -0.944,-2.35 -1.18,-2.015 -1.24,-1.388 l 0.363,0.035 c 0.031,-0.33 0.086,-0.683 0.618,-0.632 0.288,0.028 0.491,0.256 0.461,0.569 -0.08,0.833 -1.423,0.217 -1.526,1.298 C -1.35,0.154 -1.287,0.705 -0.54,0.777 0.021,0.83 0.303,0.574 0.363,0.035 L 0,0 Z" />
          </g>
          <g
             transform="translate(408.0652,611.6788)"
             id="g4674">
            <path
               id="path4676"
               style="fill:#d9ab00;fill-opacity:1;fill-rule:nonzero;stroke:none"
               d="m 0,0 -0.359,-0.06 -0.235,1.405 -1.001,-0.167 0.235,-1.405 -0.36,-0.06 -0.487,2.917 0.359,0.06 0.199,-1.193 1.001,0.167 -0.199,1.193 0.36,0.06 L 0,0 Z" />
          </g>
          <g
             transform="translate(409.0275,612.1944)"
             id="g4678">
            <path
               id="path4680"
               style="fill:#d9ab00;fill-opacity:1;fill-rule:nonzero;stroke:none"
               d="M 0,0 0.483,0.117 C 0.857,0.208 0.925,0.493 0.857,0.771 0.761,1.165 0.471,1.257 0.161,1.182 L -0.262,1.079 0,0 Z M -0.326,1.345 0.08,1.443 C 0.229,1.479 0.559,1.598 0.451,2.041 0.379,2.338 0.188,2.475 -0.158,2.391 L -0.557,2.295 -0.326,1.345 Z M -0.981,2.498 -0.1,2.712 C 0.275,2.803 0.68,2.714 0.816,2.154 0.879,1.893 0.786,1.593 0.543,1.453 L 0.544,1.445 C 0.919,1.446 1.142,1.215 1.228,0.86 1.369,0.277 1.097,-0.041 0.497,-0.186 l -0.781,-0.19 -0.697,2.874 z" />
          </g>
          <g
             transform="translate(410.0931,615.2059)"
             id="g4682">
            <path
               id="path4684"
               style="fill:#d9ab00;fill-opacity:1;fill-rule:nonzero;stroke:none"
               d="m 0,0 0.347,0.112 0.638,-1.98 c 0.133,-0.414 0.33,-0.564 0.672,-0.453 0.371,0.119 0.413,0.368 0.286,0.762 L 1.305,0.42 1.652,0.532 2.29,-1.447 C 2.464,-1.988 2.301,-2.427 1.749,-2.605 1.185,-2.787 0.825,-2.559 0.638,-1.98 L 0,0 Z" />
          </g>
          <g
             transform="translate(413.001,614.7827)"
             id="g4686">
            <path
               id="path4688"
               style="fill:#d9ab00;fill-opacity:1;fill-rule:nonzero;stroke:none"
               d="M 0,0 0.334,0.135 C 0.533,0.217 0.898,0.365 0.682,0.895 0.573,1.163 0.324,1.258 0.01,1.13 L -0.393,0.966 0,0 Z M -0.843,1.105 0.043,1.466 C 0.472,1.641 0.848,1.498 1.024,1.065 1.146,0.766 1.17,0.409 0.883,0.203 L 0.886,0.195 c 0.249,0.07 0.463,-0.071 0.573,-0.299 l 0.214,-0.458 c 0.139,-0.297 0.22,-0.354 0.321,-0.371 L 1.587,-1.098 C 1.506,-1.064 1.396,-0.872 1.334,-0.741 L 1.138,-0.324 C 0.958,0.041 0.742,-0.02 0.569,-0.091 L 0.112,-0.276 0.609,-1.496 0.271,-1.634 -0.843,1.105 Z" />
          </g>
          <g
             transform="translate(414.1364,616.7094)"
             id="g4690">
            <path
               id="path4692"
               style="fill:#d9ab00;fill-opacity:1;fill-rule:nonzero;stroke:none"
               d="M 0,0 0.422,0.212 2.405,-1.551 2.412,-1.547 1.301,0.656 1.627,0.82 2.958,-1.819 2.511,-2.045 0.586,-0.335 0.579,-0.339 1.657,-2.476 1.331,-2.639 0,0 Z" />
          </g>
        </g>
        <g
           id="KOPRA">
          <g
             transform="translate(417.8545,618.8079)"
             id="g4694">
            <path
               id="path4696"
               style="fill:#d9ab00;fill-opacity:1;fill-rule:nonzero;stroke:none"
               d="M 0,0 0.295,0.214 1.135,-0.948 1.142,-0.943 1.131,0.818 1.46,1.055 1.458,-0.469 3.253,-1.297 2.924,-1.535 1.442,-0.849 1.438,-1.367 2.028,-2.183 1.733,-2.396 0,0 Z" />
          </g>
          <g
             transform="translate(420.7462,619.1378)"
             id="g4698">
            <path
               id="path4700"
               style="fill:#d9ab00;fill-opacity:1;fill-rule:nonzero;stroke:none"
               d="M 0,0 C 0.448,-0.516 0.862,-0.891 1.244,-0.559 1.625,-0.228 1.311,0.234 0.862,0.75 0.414,1.266 0,1.641 -0.381,1.31 -0.762,0.978 -0.448,0.516 0,0 M 1.15,1 C 1.639,0.438 2.055,-0.249 1.44,-0.784 0.824,-1.32 0.202,-0.813 -0.287,-0.25 -0.777,0.313 -1.192,0.999 -0.577,1.534 0.039,2.07 0.661,1.563 1.15,1" />
          </g>
          <g
             transform="translate(422.5026,620.8464)"
             id="g4702">
            <path
               id="path4704"
               style="fill:#d9ab00;fill-opacity:1;fill-rule:nonzero;stroke:none"
               d="M 0,0 0.3,0.314 C 0.484,0.506 0.507,0.793 0.222,1.065 -0.011,1.288 -0.27,1.324 -0.519,1.063 L -0.802,0.767 0,0 Z m -1.269,0.71 0.521,0.544 C -0.571,1.44 -0.116,1.916 0.498,1.329 0.896,0.948 0.874,0.482 0.527,0.12 L 0.215,-0.206 1.119,-1.071 0.867,-1.334 -1.269,0.71 Z" />
          </g>
          <g
             transform="translate(423.8691,622.4548)"
             id="g4706">
            <path
               id="path4708"
               style="fill:#d9ab00;fill-opacity:1;fill-rule:nonzero;stroke:none"
               d="M 0,0 0.223,0.283 C 0.357,0.452 0.601,0.76 0.153,1.115 -0.075,1.294 -0.338,1.255 -0.549,0.988 L -0.819,0.647 0,0 Z m -1.279,0.547 0.594,0.75 C -0.397,1.661 -0.001,1.722 0.366,1.431 0.62,1.231 0.817,0.933 0.668,0.612 L 0.675,0.607 C 0.857,0.79 1.113,0.773 1.321,0.629 L 1.733,0.335 C 2,0.145 2.098,0.136 2.194,0.171 L 1.922,-0.174 C 1.835,-0.184 1.644,-0.07 1.526,0.013 L 1.149,0.279 C 0.813,0.508 0.655,0.348 0.539,0.202 L 0.234,-0.185 1.267,-1.002 1.041,-1.288 -1.279,0.547 Z" />
          </g>
          <g
             transform="translate(425.6726,624.041)"
             id="g4710">
            <path
               id="path4712"
               style="fill:#d9ab00;fill-opacity:1;fill-rule:nonzero;stroke:none"
               d="M 0,0 0.428,0.67 -0.979,1.121 -0.984,1.114 0,0 Z M -1.461,1.143 -1.199,1.556 1.722,0.636 1.517,0.314 0.719,0.573 0.211,-0.223 0.778,-0.845 0.573,-1.166 -1.461,1.143 Z" />
          </g>
        </g>
        <g
           id="STS-127">
          <g
             transform="translate(381.8225,641.8355)"
             id="g4714">
            <path
               id="path4716"
               style="fill:#d9ab00;fill-opacity:1;fill-rule:nonzero;stroke:none"
               d="m 0,0 -0.272,0.307 1.637,1.277 0.609,0 0,-3.943 -0.466,0 0,3.565 L 0,0 Z" />
          </g>
          <g
             transform="translate(389.6725,639.8849)"
             id="g4718">
            <path
               id="path4720"
               style="fill:#d9ab00;fill-opacity:1;fill-rule:nonzero;stroke:none"
               d="m 0,0 0,-0.408 -4.357,0 0,0.166 c 0,1.034 0.059,1.596 1.23,1.673 l 0.881,0.053 c 0.384,0.024 0.774,0.041 1.152,0.1 0.515,0.077 0.609,0.272 0.609,0.763 0,0.573 -0.207,0.739 -0.804,0.78 -0.319,0.024 -0.644,0.03 -0.969,0.03 -0.254,0 -0.502,-0.012 -0.757,-0.024 -0.591,-0.03 -0.833,-0.165 -0.833,-0.857 0,-0.065 -0.006,-0.136 -0.006,-0.201 l -0.461,0 c 0.041,0.881 0.053,1.33 1.04,1.454 0.337,0.036 0.68,0.041 1.017,0.041 l 0.461,0 c 1.005,0 1.803,0 1.803,-1.223 0,-0.839 -0.313,-1.165 -1.2,-1.212 L -2.205,1.064 -3.039,0.999 C -3.825,0.94 -3.866,0.727 -3.884,0 L 0,0 Z" />
          </g>
          <g
             transform="translate(390.003,643.012)"
             id="g4722">
            <path
               id="path4724"
               style="fill:#d9ab00;fill-opacity:1;fill-rule:nonzero;stroke:none"
               d="m 0,0 0,0.408 4.446,0 0,-0.58 -2.939,-3.363 -0.638,0 L 3.978,0 0,0 Z" />
          </g>
        </g>
        <g
           id="g4726"
           transform="translate(398.8058,617.4888)">
          <path
             d="M 0,0 0.159,0.861 0.251,0.001 0.703,-0.119 0.241,-0.25 0.083,-1.111 -0.01,-0.251 -0.442,-0.115 0,0 Z"
             style="fill:#ffffff;fill-opacity:1;fill-rule:evenodd;stroke:none"
             id="path4728" />
        </g>
        <g
           id="g4730"
           transform="translate(411.9995,620.4927)">
          <path
             d="M 0,0 0.159,0.861 0.251,0.001 0.703,-0.119 0.241,-0.25 0.083,-1.111 -0.01,-0.251 -0.442,-0.115 0,0 Z"
             style="fill:#ffffff;fill-opacity:1;fill-rule:evenodd;stroke:none"
             id="path4732" />
        </g>
        <g
           id="g4734"
           transform="translate(413.9227,623.9083)">
          <path
             d="M 0,0 0.159,0.861 0.251,0.001 0.703,-0.119 0.241,-0.25 0.083,-1.111 -0.01,-0.251 -0.442,-0.115 0,0 Z"
             style="fill:#ffffff;fill-opacity:1;fill-rule:evenodd;stroke:none"
             id="path4736" />
        </g>
        <g
           id="g4738"
           transform="translate(424.8385,634.16)">
          <path
             d="M 0,0 0.159,0.861 0.251,0.001 0.703,-0.119 0.241,-0.25 0.083,-1.111 -0.01,-0.251 -0.442,-0.115 0,0 Z"
             style="fill:#ffffff;fill-opacity:1;fill-rule:evenodd;stroke:none"
             id="path4740" />
        </g>
        <g
           id="g4742"
           transform="translate(421.0174,631.2012)">
          <path
             d="M 0,0 0.159,0.861 0.251,0.001 0.703,-0.119 0.241,-0.25 0.083,-1.111 -0.01,-0.251 -0.442,-0.115 0,0 Z"
             style="fill:#ffffff;fill-opacity:1;fill-rule:evenodd;stroke:none"
             id="path4744" />
        </g>
        <g
           id="g4746"
           transform="translate(405.3829,638.3457)">
          <path
             d="M 0,0 0.159,0.861 0.251,0.001 0.703,-0.12 0.241,-0.25 0.083,-1.111 -0.01,-0.251 -0.442,-0.115 0,0 Z"
             style="fill:#ffffff;fill-opacity:1;fill-rule:evenodd;stroke:none"
             id="path4748" />
        </g>
        <g
           id="g4750"
           transform="translate(408.065,643.1679)">
          <path
             d="M 0,0 0.159,0.861 0.251,0.001 0.703,-0.119 0.241,-0.25 0.083,-1.111 -0.01,-0.251 -0.442,-0.114 0,0 Z"
             style="fill:#ffffff;fill-opacity:1;fill-rule:evenodd;stroke:none"
             id="path4752" />
        </g>
        <g
           id="g4754"
           transform="translate(412.4238,650.3562)">
          <path
             d="M 0,0 0.159,0.861 0.251,0.001 0.703,-0.119 0.241,-0.25 0.083,-1.111 -0.01,-0.251 -0.442,-0.115 0,0 Z"
             style="fill:#ffffff;fill-opacity:1;fill-rule:evenodd;stroke:none"
             id="path4756" />
        </g>
        <g
           id="g4758"
           transform="translate(402.8979,648.6997)">
          <path
             d="M 0,0 0.159,0.861 0.251,0.001 0.703,-0.119 0.241,-0.25 0.083,-1.111 -0.01,-0.251 -0.442,-0.115 0,0 Z"
             style="fill:#ffffff;fill-opacity:1;fill-rule:evenodd;stroke:none"
             id="path4760" />
        </g>
        <g
           id="g4762"
           transform="translate(399.8854,653.5219)">
          <path
             d="M 0,0 0.159,0.861 0.251,0.001 0.703,-0.119 0.241,-0.25 0.083,-1.111 -0.01,-0.251 -0.442,-0.115 0,0 Z"
             style="fill:#ffffff;fill-opacity:1;fill-rule:evenodd;stroke:none"
             id="path4764" />
        </g>
        <g
           id="g4766"
           transform="translate(412.9407,655.1982)">
          <path
             d="m 0,0 c -0.091,0.014 -0.372,0.365 -0.425,0.418 -0.015,0.09 -0.062,0.361 -0.169,0.466 0.075,0.077 0.182,-0.028 0.235,-0.08 -0.122,0.194 -0.19,0.337 -0.184,0.556 0.053,-0.052 0.053,-0.052 0.106,-0.104 -0.016,0.09 -0.084,0.233 -0.009,0.309 0,0 0.113,0.114 0.187,0.191 C -0.227,1.575 -0.197,1.394 -0.053,1.328 -0.015,1.366 0.038,1.314 0.023,1.404 0.129,1.299 0.122,1.081 0.191,0.938 0.197,1.157 0.167,1.338 0.226,1.505 0.279,1.452 0.429,1.605 0.504,1.681 0.52,1.591 0.573,1.538 0.573,1.538 0.648,1.615 0.723,1.691 0.798,1.767 0.76,1.729 1.123,1.673 1.289,1.735 1.214,1.658 1.116,1.454 1.26,1.388 1.185,1.311 1.147,1.274 1.11,1.235 1.201,1.221 1.269,1.079 1.36,1.064 1.323,1.026 1.248,0.95 1.248,0.95 1.172,0.874 1.15,0.745 1.241,0.731 1.166,0.654 1.075,0.669 1,0.593 1.053,0.54 1.362,0.536 1.469,0.432 c 0,0 0.106,-0.105 0.197,-0.119 C 1.628,0.275 1.409,0.265 1.569,0.108 1.531,0.07 1.403,0.046 1.312,0.06 1.365,0.008 1.418,-0.044 1.418,-0.044 1.381,-0.083 1.049,-0.207 0.906,-0.141 1.049,-0.207 1.027,-0.335 1.006,-0.464 0.899,-0.359 0.59,-0.355 0.643,-0.408 0.59,-0.355 0.212,-0.209 0.106,-0.104 0.015,-0.091 -0.045,-0.257 -0.104,-0.424 -0.179,-0.5 -0.291,-0.615 -0.42,-0.638 -0.473,-0.586 -0.526,-0.534 -0.526,-0.534 -0.36,-0.471 0.015,-0.091 0,0"
             style="fill:#eb1105;fill-opacity:1;fill-rule:evenodd;stroke:none"
             id="path4768" />
        </g>
        <g
           id="g4770"
           transform="translate(421.1407,642.0677)">
          <path
             d="M 0,0 0.284,0.607 2.114,0.091 C 1.4,0.134 0.693,0.102 0,0 m -1.278,-1.331 c -0.04,0.142 -0.108,0.335 -0.215,0.557 0.18,0.048 0.363,0.094 0.548,0.138 -0.192,-0.402 -0.332,-0.695 -0.333,-0.695 m -0.84,1.477 1.191,0.802 0.653,-0.184 C -0.409,0.483 -0.559,0.17 -0.701,-0.127 -1.04,-0.201 -1.374,-0.292 -1.702,-0.399 c -0.112,0.178 -0.249,0.363 -0.416,0.545 m 1.92,0.776 -0.549,0.147 0.913,0.615 c 0,0 -0.155,-0.325 -0.364,-0.762 M 2.79,-0.185 c 0.469,0.001 0.92,-0.02 1.348,-0.062 l 0.089,-0.012 -0.022,0.005 c 0.003,0 0.005,0 0.008,0 -0.064,0.017 -0.129,0.034 -0.193,0.05 L 3.112,0.038 1.789,0.392 0.362,0.773 1.362,2.908 -0.976,1.13 -1.734,1.332 -1.839,1.205 -1.137,1.007 -2.181,0.214 c -0.13,0.138 -0.785,0.708 -1.021,0.868 -0.495,0.335 -1.112,0.649 -1.901,0.907 L -5.131,1.967 C -4.723,1.788 -4,1.438 -3.348,0.956 -2.717,0.415 -2.603,0.297 -2.514,0.191 -2.475,0.144 -2.437,0.096 -2.4,0.047 l -0.511,-0.388 0.022,-0.007 0.017,0.013 -0.017,-0.013 0.022,-0.008 0.512,0.343 c 0.118,-0.161 0.225,-0.33 0.321,-0.5 -1.144,-0.416 -2.211,-1.03 -3.146,-1.815 l 0.03,-0.011 c 0.884,0.577 2.015,1.085 3.304,1.465 0.443,-0.923 0.596,-1.793 0.596,-1.793 l 1.023,2.183 c 0.056,0.011 0.112,0.021 0.168,0.032 0.415,0.074 0.825,0.132 1.227,0.176 l 1.622,0.091 z"
             style="fill:#d9ab00;fill-opacity:1;fill-rule:nonzero;stroke:none"
             id="path4772" />
        </g>
      </g>
    </g>
  </g>
</svg>
