<?xml version="1.0" encoding="UTF-8" standalone="no"?>
<svg
   xmlns:dc="http://purl.org/dc/elements/1.1/"
   xmlns:cc="http://creativecommons.org/ns#"
   xmlns:rdf="http://www.w3.org/1999/02/22-rdf-syntax-ns#"
   xmlns:svg="http://www.w3.org/2000/svg"
   xmlns="http://www.w3.org/2000/svg"
   version="1.1"
   id="svg11020"
   viewBox="0 0 5000 5000"
   height="5000"
   width="5000">
  <defs
     id="defs192" />
  <title
     id="title6654">STS-121 Insignia</title>
  <metadata
     id="metadata11025">
    <rdf:RDF>
      <cc:Work
         rdf:about="">
        <dc:format>image/svg+xml</dc:format>
        <dc:type
           rdf:resource="http://purl.org/dc/dcmitype/StillImage" />
        <dc:title>STS-121 Insignia</dc:title>
      </cc:Work>
    </rdf:RDF>
  </metadata>
  <g
     transform="matrix(1.0064605,0,0,1.0064605,-16.180886,3956.9902)"
     id="layer1">
    <g
       style="stroke:#000000;stroke-width:0.27153152;stroke-miterlimit:0;stroke-dasharray:none;stroke-opacity:1"
       transform="matrix(73.656273,0,0,-73.656273,-8594.5056,33958.918)"
       id="g12435">
      <g
         style="stroke:#000000;stroke-width:0.27153152;stroke-miterlimit:0;stroke-dasharray:none;stroke-opacity:1"
         id="g12437">
        <g
           style="stroke:#000000;stroke-width:0.27153152;stroke-miterlimit:0;stroke-dasharray:none;stroke-opacity:1"
           id="g12595"
           transform="translate(163.8993,512.6978)">
          <path
             id="path12597"
             d="m 0.516,1.244 c 6.4894016,-6.4952648 12.976765,-12.992571 19.467,-19.487 -0.0047,-9.181667 -0.01034,-18.363333 -0.015,-27.545 -6.495612,-6.488721 -12.990555,-12.978114 -19.487,-19.466 -9.1816667,0.0044 -18.363333,0.0096 -27.545,0.014 -6.4889,6.495433 -12.9771,12.991567 -19.466,19.487 0.0044,9.181667 0.0096,18.363333 0.014,27.545 6.496443,6.487888 12.991389,12.9772779 19.487,19.466 9.568114,-0.00454 19.3424204,-0.010013 27.545,-0.014 z"
             style="fill:#ffffff;fill-opacity:1;fill-rule:evenodd;stroke:#000000;stroke-width:0.40468283;stroke-miterlimit:10;stroke-dasharray:none;stroke-opacity:1;stroke-linecap:butt" />
        </g>
      </g>
    </g>
    <g
       transform="matrix(73.656273,0,0,-73.656273,1494.9453,-3889.4017)"
       id="g2686">
      <path
         id="path2688"
         style="fill:#f8c700;fill-opacity:1;fill-rule:evenodd;stroke:none"
         d="m 0,0 27.426,-0.014 19.384,-19.404 -0.015,-27.427 -19.404,-19.383 -27.426,0.015 -19.383,19.404 0.014,27.426 L 0,0 Z" />
    </g>
    <g
       transform="matrix(73.656273,0,0,-73.656273,1494.9453,-3889.4017)"
       id="g2690">
      <path
         id="path2692"
         style="fill:none;stroke:#f8c700;stroke-width:0.007;stroke-linecap:butt;stroke-linejoin:miter;stroke-miterlimit:14.30000019;stroke-dasharray:none;stroke-opacity:1"
         d="m 0,0 27.426,-0.014 19.384,-19.404 -0.015,-27.427 -19.404,-19.383 -27.426,0.015 -19.383,19.404 0.014,27.426 L 0,0 Z" />
    </g>
    <g
       transform="matrix(73.656273,0,0,-73.656273,3501.4966,-3851.077)"
       id="g2694">
      <path
         id="path2696"
         style="fill:#000000;fill-opacity:1;fill-rule:evenodd;stroke:none"
         d="m 0,0 19.077,-19.124 -0.033,-27.403 -19.298,-19.063 -26.988,0 -18.927,18.92 0.033,27.626 L -27.012,0.033 0,0 Z" />
    </g>
    <g
       id="g2698"
       transform="matrix(73.656273,0,0,-73.656273,-8594.5056,33958.918)">
      <g
         id="g2700">
        <g
           transform="translate(164.3102,448.1635)"
           id="g2706">
          <path
             id="path2708"
             style="fill:#01499e;fill-opacity:1;fill-rule:evenodd;stroke:none"
             d="m 0,0 -28.171,0 -18.246,19.335 c 0,0 15.839,3.309 32.85,3.309 19.5,0 32.378,-3.368 32.378,-3.368 L 0,0 Z" />
        </g>
        <g
           transform="translate(183.376,467.2213)"
           id="g2710">
          <path
             id="path2712"
             style="fill:#0049a0;fill-opacity:1;fill-rule:evenodd;stroke:none"
             d="m 0,0 c -9.796,4.417 -18.753,6.742 -32.692,6.742 -13.939,0 -22.853,-2.461 -32.816,-6.723 10.272,3.542 20.402,5.702 32.64,5.702 12.24,0 22.513,-2.125 32.71,-5.658" />
        </g>
        <g
           transform="translate(183.0311,467.3911)"
           id="g2714">
          <path
             id="path2716"
             style="fill:#ffffff;fill-opacity:1;fill-rule:evenodd;stroke:none"
             d="m 0,0 c -10.333,2.292 -21.202,3.519 -32.347,3.519 -11.243,0 -22.231,-1.248 -32.771,-3.607 10.42,2.993 20.674,4.738 32.771,4.738 12.097,0 22.207,-1.687 32.549,-4.632" />
        </g>
        <g
           transform="translate(183.4071,467.3408)"
           id="g2718">
          <path
             id="path2720"
             style="fill:#0088d2;fill-opacity:1;fill-rule:evenodd;stroke:none"
             d="m 0,0 c -10.125,3.503 -20.564,5.707 -32.692,5.707 -12.128,0 -22.638,-2.219 -32.786,-5.74 10.419,2.993 21.419,4.734 32.786,4.734 11.271,0 22.191,-1.718 32.533,-4.663" />
        </g>
        <g
           transform="translate(118.23,467.3532)"
           id="g2722">
          <path
             id="path2724"
             style="fill:#8d4841;fill-opacity:1;fill-rule:evenodd;stroke:none"
             d="m 0,0 c 0,0 1.815,0.368 2.725,0.542 1.738,0.324 4.231,0.953 7.252,1.385 6.041,0.865 13.961,1.704 22.408,1.704 9.681,0 17.952,-0.983 23.571,-1.894 2.81,-0.456 5.015,-0.863 6.518,-1.205 0.111,-0.026 2.498,-0.604 2.498,-0.604 0,0 -6.401,1.051 -9.096,1.461 C 49.823,2.153 42.034,3.083 32.385,3.083 23.968,3.083 16.09,2.26 10.048,1.529 6.688,1.089 0,0 0,0" />
        </g>
        <g
           transform="translate(150.6254,508.5045)"
           id="g2726">
          <path
             id="path2728"
             style="fill:#f8c700;fill-opacity:1;fill-rule:evenodd;stroke:none"
             d="M 0,0 1.443,-4.36 6.035,-4.385 2.334,-7.104 3.73,-11.479 0,-8.8 l -3.73,-2.679 1.396,4.375 -3.701,2.719 4.592,0.025 L 0,0 Z" />
        </g>
        <g
           transform="translate(150.6254,508.5045)"
           id="g2730">
          <path
             id="path2732"
             style="fill:none;stroke:#000000;stroke-width:0.498;stroke-linecap:butt;stroke-linejoin:miter;stroke-miterlimit:14.30000019;stroke-dasharray:none;stroke-opacity:1"
             d="M 0,0 1.443,-4.36 6.035,-4.385 2.334,-7.104 3.73,-11.479 0,-8.8 l -3.73,-2.679 1.396,4.375 -3.701,2.719 4.592,0.025 L 0,0 Z" />
        </g>
        <g
           transform="translate(145.5198,453.6862)"
           id="g2734">
          <path
             id="path2736"
             style="fill:#f8c700;fill-opacity:1;fill-rule:evenodd;stroke:none"
             d="M 0,0 10.166,0 5.96,44.751 5.121,45.271 4.244,44.732 0,0 Z" />
        </g>
        <g
           transform="translate(145.5198,453.6862)"
           id="g2738">
          <path
             id="path2740"
             style="fill:none;stroke:#000000;stroke-width:0.498;stroke-linecap:butt;stroke-linejoin:miter;stroke-miterlimit:14.30000019;stroke-dasharray:none;stroke-opacity:1"
             d="M 0,0 10.166,0 5.96,44.751 5.121,45.271 4.244,44.732 0,0 Z" />
        </g>
        <g
           transform="translate(164.2791,456.3439)"
           id="g2742">
          <path
             id="path2744"
             style="fill:#f8c700;fill-opacity:1;fill-rule:evenodd;stroke:none"
             d="M 0,0 6.684,6.617 -10.744,40.839 -12.346,41.793 0,0 Z" />
        </g>
        <g
           transform="translate(164.2791,456.3439)"
           id="g2746">
          <path
             id="path2748"
             style="fill:none;stroke:#000000;stroke-width:0.498;stroke-linecap:butt;stroke-linejoin:miter;stroke-miterlimit:14.30000019;stroke-dasharray:none;stroke-opacity:1"
             d="M 0,0 6.684,6.617 -10.744,40.839 -12.346,41.793 0,0 Z" />
        </g>
        <g
           transform="translate(131.2152,487.619)"
           id="g2750">
          <path
             id="path2752"
             style="fill:#ffffff;fill-opacity:1;fill-rule:evenodd;stroke:none"
             d="M 0,0 0.171,-0.259 0.48,-0.231 0.384,-0.526 0.599,-0.751 0.308,-0.86 0.266,-1.167 0,-1.009 -0.266,-1.167 -0.308,-0.86 -0.599,-0.751 -0.384,-0.526 -0.48,-0.231 -0.171,-0.259 0,0 Z" />
        </g>
        <g
           transform="translate(141.9157,503.8224)"
           id="g2754">
          <path
             id="path2756"
             style="fill:#ffffff;fill-opacity:1;fill-rule:evenodd;stroke:none"
             d="M 0,0 0.178,-0.245 0.48,-0.231 0.399,-0.523 0.599,-0.751 0.32,-0.869 0.266,-1.167 0,-1.024 l -0.266,-0.143 -0.054,0.298 -0.279,0.118 0.2,0.228 -0.081,0.292 0.302,-0.014 L 0,0 Z" />
        </g>
        <g
           transform="translate(138.8051,510.5414)"
           id="g2758">
          <path
             id="path2760"
             style="fill:#ffffff;fill-opacity:1;fill-rule:evenodd;stroke:none"
             d="M 0,0 0.17,-0.26 0.48,-0.231 0.383,-0.527 0.599,-0.751 0.307,-0.859 0.266,-1.167 0,-1.007 l -0.266,-0.16 -0.041,0.308 -0.292,0.108 0.216,0.224 L -0.48,-0.231 -0.171,-0.26 0,0 Z" />
        </g>
        <g
           transform="translate(136.1916,480.3439)"
           id="g2762">
          <path
             id="path2764"
             style="fill:#ffffff;fill-opacity:1;fill-rule:evenodd;stroke:none"
             d="M 0,0 0.166,-0.269 0.48,-0.231 0.373,-0.529 0.599,-0.751 0.3,-0.853 0.266,-1.168 0,-0.997 -0.266,-1.168 -0.3,-0.853 -0.599,-0.751 -0.373,-0.529 -0.48,-0.231 -0.166,-0.269 0,0 Z" />
        </g>
        <g
           transform="translate(121.5101,493.433)"
           id="g2766">
          <path
             id="path2768"
             style="fill:#ffffff;fill-opacity:1;fill-rule:evenodd;stroke:none"
             d="M 0,0 0.167,-0.267 0.48,-0.231 0.376,-0.528 0.599,-0.751 0.301,-0.854 0.266,-1.167 0,-0.999 l -0.266,-0.168 -0.035,0.313 -0.298,0.103 0.223,0.223 -0.104,0.297 0.313,-0.036 L 0,0 Z" />
        </g>
        <g
           transform="translate(162.1347,510.728)"
           id="g2770">
          <path
             id="path2772"
             style="fill:#ffffff;fill-opacity:1;fill-rule:evenodd;stroke:none"
             d="M 0,0 0.164,-0.273 0.48,-0.231 0.37,-0.53 0.599,-0.751 0.296,-0.85 0.267,-1.167 0,-0.993 -0.267,-1.167 -0.296,-0.85 -0.599,-0.751 -0.369,-0.53 -0.48,-0.231 -0.164,-0.273 0,0 Z" />
        </g>
        <g
           transform="translate(179.7408,493.3328)"
           id="g2774">
          <path
             id="path2776"
             style="fill:#ffffff;fill-opacity:1;fill-rule:evenodd;stroke:none"
             d="M 0,0 0.17,-0.26 0.48,-0.231 0.383,-0.527 0.599,-0.751 0.307,-0.859 0.267,-1.167 0,-1.007 l -0.267,-0.16 -0.04,0.308 -0.292,0.108 0.216,0.224 L -0.48,-0.231 -0.17,-0.26 0,0 Z" />
        </g>
        <g
           transform="translate(163.8674,500.9176)"
           id="g2778">
          <path
             id="path2780"
             style="fill:#ffffff;fill-opacity:1;fill-rule:evenodd;stroke:none"
             d="M 0,0 0.172,-0.256 0.48,-0.231 0.387,-0.526 0.599,-0.751 0.311,-0.862 0.266,-1.167 0,-1.012 l -0.267,-0.155 -0.044,0.305 -0.288,0.111 0.211,0.225 -0.092,0.295 0.308,-0.025 L 0,0 Z" />
        </g>
        <g
           transform="translate(165.5989,481.0758)"
           id="g2782">
          <path
             id="path2784"
             style="fill:#ffffff;fill-opacity:1;fill-rule:evenodd;stroke:none"
             d="M 0,0 0.165,-0.272 0.48,-0.231 0.37,-0.53 0.599,-0.751 0.297,-0.851 0.267,-1.168 0,-0.994 l -0.266,-0.174 -0.031,0.317 -0.301,0.1 0.228,0.221 -0.11,0.299 0.315,-0.041 L 0,0 Z" />
        </g>
        <g
           transform="translate(171.1961,490.2418)"
           id="g2786">
          <path
             id="path2788"
             style="fill:#ffffff;fill-opacity:1;fill-rule:evenodd;stroke:none"
             d="M 0,0 0.165,-0.271 0.48,-0.231 0.371,-0.529 0.599,-0.751 0.298,-0.852 0.267,-1.168 0,-0.995 l -0.266,-0.173 -0.032,0.316 -0.301,0.101 0.228,0.222 -0.109,0.298 0.315,-0.04 L 0,0 Z" />
        </g>
        <g
           transform="translate(173.8946,473.8594)"
           id="g2790">
          <path
             id="path2792"
             style="fill:#ffffff;fill-opacity:1;fill-rule:evenodd;stroke:none"
             d="M 0,0 0.164,-0.274 0.48,-0.231 0.368,-0.53 0.599,-0.751 0.295,-0.85 0.267,-1.168 0,-0.991 -0.266,-1.168 -0.295,-0.85 -0.598,-0.751 -0.368,-0.53 -0.48,-0.231 -0.163,-0.274 0,0 Z" />
        </g>
        <g
           transform="translate(127.9872,475.5446)"
           id="g2794">
          <path
             id="path2796"
             style="fill:#ffffff;fill-opacity:1;fill-rule:evenodd;stroke:none"
             d="M 0,0 0.177,-0.247 0.48,-0.231 0.397,-0.524 0.599,-0.751 0.319,-0.868 0.266,-1.168 0,-1.022 l -0.266,-0.146 -0.053,0.3 -0.28,0.117 0.202,0.227 -0.083,0.293 0.303,-0.016 L 0,0 Z" />
        </g>
        <g
           transform="translate(158.2596,493.5909)"
           id="g2798">
          <path
             id="path2800"
             style="fill:#ffffff;fill-opacity:1;fill-rule:evenodd;stroke:none"
             d="M 0,0 0.157,-0.288 0.48,-0.231 0.353,-0.534 0.599,-0.751 0.283,-0.84 0.267,-1.168 0,-0.976 -0.266,-1.168 -0.283,-0.84 -0.599,-0.751 -0.353,-0.534 -0.48,-0.231 -0.157,-0.288 0,0 Z" />
        </g>
        <g
           transform="translate(136.1545,498.218)"
           id="g2802">
          <path
             id="path2804"
             style="fill:#ffffff;fill-opacity:1;fill-rule:evenodd;stroke:none"
             d="M 0,0 0.172,-0.258 0.48,-0.231 0.386,-0.526 0.599,-0.751 0.309,-0.861 0.266,-1.167 0,-1.01 l -0.266,-0.157 -0.043,0.306 -0.29,0.11 0.213,0.225 -0.094,0.295 0.308,-0.027 L 0,0 Z" />
        </g>
        <g
           transform="translate(153.6027,507.3352)"
           id="g2806">
          <path
             id="path2808"
             style="fill:#ffffff;fill-opacity:1;fill-rule:evenodd;stroke:none"
             d="M 0,0 0.169,-0.263 0.48,-0.231 0.38,-0.527 0.599,-0.751 0.305,-0.857 0.267,-1.167 0,-1.004 l -0.266,-0.163 -0.039,0.31 -0.294,0.106 0.219,0.224 -0.1,0.296 0.311,-0.032 L 0,0 Z" />
        </g>
        <g
           transform="translate(136.9489,456.3439)"
           id="g2810">
          <path
             id="path2812"
             style="fill:#f8c700;fill-opacity:1;fill-rule:evenodd;stroke:none"
             d="M 0,0 -6.684,6.617 10.743,40.839 12.345,41.793 0,0 Z" />
        </g>
        <g
           transform="translate(136.9489,456.3439)"
           id="g2814">
          <path
             id="path2816"
             style="fill:none;stroke:#000000;stroke-width:0.498;stroke-linecap:butt;stroke-linejoin:miter;stroke-miterlimit:14.30000019;stroke-dasharray:none;stroke-opacity:1"
             d="M 0,0 -6.684,6.617 10.743,40.839 12.345,41.793 0,0 Z" />
        </g>
        <g
           transform="translate(127.5153,491.9538)"
           id="g2818">
          <path
             id="path2820"
             style="fill:#ffffff;fill-opacity:1;fill-rule:evenodd;stroke:none"
             d="m 0,0 -2.142,-1.468 23.716,0.04 0.672,0.083 0.577,-0.412 -0.371,-0.082 -0.041,-3.378 -0.289,0 c 0,0 -0.37,-0.824 -0.082,-0.906 0.289,-0.083 0.412,-0.083 0.412,-0.083 l 0,-0.165 -8.816,-0.041 -0.082,-2.142 8.363,10e-4 c 0,0 0.433,-0.287 0.429,-0.279 -0.004,0.007 -12.953,-0.01 -12.953,-0.01 0,0 -0.3,-0.687 -0.3,-1.394 0,-0.708 0.325,-1.573 0.325,-1.573 l 10.81,-0.029 -0.042,-0.671 -2.018,0 0,-1.854 0.691,-0.082 9.031,0.035 -0.247,0.982 -2.142,-0.014 0.002,1.348 11.533,0.079 c 0,0 0.412,1.045 0.329,1.779 -0.082,0.734 -0.371,1.476 -0.371,1.476 l -13.049,-0.002 -0.022,6.882 -0.4,0.082 0.618,0.412 L 48.009,-1.428 46.181,0 24.003,0.023 24.02,-0.932 22.411,-0.933 22.408,0.023 0,0 Z" />
        </g>
        <g
           transform="translate(127.5153,491.9538)"
           id="g2822">
          <path
             id="path2824"
             style="fill:none;stroke:#000000;stroke-width:0.498;stroke-linecap:butt;stroke-linejoin:miter;stroke-miterlimit:14.30000019;stroke-dasharray:none;stroke-opacity:1"
             d="m 0,0 -2.142,-1.468 23.716,0.04 0.672,0.083 0.577,-0.412 -0.371,-0.082 -0.041,-3.378 -0.289,0 c 0,0 -0.37,-0.824 -0.082,-0.906 0.289,-0.083 0.412,-0.083 0.412,-0.083 l 0,-0.165 -8.816,-0.041 -0.082,-2.142 8.363,10e-4 c 0,0 0,0 0.429,-0.279 0.198286,-0.00236 -12.953,-0.01 -12.953,-0.01 0,0 -0.3,-0.687 -0.3,-1.394 0,-0.708 0.325,-1.573 0.325,-1.573 l 10.81,-0.029 -0.042,-0.671 -2.018,0 0,-1.854 0.691,-0.082 9.031,0.035 -0.247,0.982 -2.142,-0.014 0.002,1.348 11.533,0.079 c 0,0 0.412,1.045 0.329,1.779 -0.082,0.734 -0.371,1.476 -0.371,1.476 l -13.049,-0.002 -0.022,6.882 -0.4,0.082 0.618,0.412 L 48.009,-1.428 46.181,0 24.003,0.023 24.02,-0.932 22.411,-0.933 22.408,0.023 Z" />
        </g>
        <g
           transform="translate(150.715,462.3384)"
           id="g2826">
          <path
             id="path2828"
             style="fill:#ffffff;fill-opacity:1;fill-rule:evenodd;stroke:none"
             d="m 0,0 c -0.125,0 -0.131,0.277 -0.175,0.698 l -0.079,0.777 -1.395,0 -0.199,0.518 0,0.558 -4.405,0.857 0,0.678 c 0,0.398 0.18,0.877 0.359,1.195 0.179,0.319 2.73,2.85 3.029,3.229 0.299,0.378 0.538,2.092 0.658,2.69 0.119,0.598 0.976,5.82 1.215,6.836 0.239,1.016 0.658,1.375 0.992,1.375 0.333,0 0.752,-0.359 0.991,-1.375 C 1.23,17.02 2.087,11.798 2.207,11.2 2.326,10.602 2.566,8.888 2.865,8.51 3.163,8.131 5.714,5.6 5.894,5.281 6.073,4.963 6.252,4.484 6.252,4.086 l 0,-0.678 -4.404,-0.857 0,-0.558 -0.199,-0.518 -1.395,0 c 0,0 -0.03,0 -0.08,-0.777 C 0.147,0.276 0.124,0 0,0" />
        </g>
        <g
           transform="translate(150.715,462.3384)"
           id="g2830">
          <path
             id="path2832"
             style="fill:none;stroke:#000000;stroke-width:0.498;stroke-linecap:butt;stroke-linejoin:miter;stroke-miterlimit:14.30000019;stroke-dasharray:none;stroke-opacity:1"
             d="m 0,0 c -0.125,0 -0.131,0.277 -0.175,0.698 l -0.079,0.777 -1.395,0 -0.199,0.518 0,0.558 -4.405,0.857 0,0.678 c 0,0.398 0.18,0.877 0.359,1.195 0.179,0.319 2.73,2.85 3.029,3.229 0.299,0.378 0.538,2.092 0.658,2.69 0.119,0.598 0.976,5.82 1.215,6.836 0.239,1.016 0.658,1.375 0.992,1.375 0.333,0 0.752,-0.359 0.991,-1.375 C 1.23,17.02 2.087,11.798 2.207,11.2 2.326,10.602 2.566,8.888 2.865,8.51 3.163,8.131 5.714,5.6 5.894,5.281 6.073,4.963 6.252,4.484 6.252,4.086 l 0,-0.678 -4.404,-0.857 0,-0.558 -0.199,-0.518 -1.395,0 c 0,0 -0.03,0 -0.08,-0.777 C 0.147,0.276 0.124,0 0,0 Z" />
        </g>
        <g
           id="STS-121">
          <g
             id="g2834"
             transform="translate(144.6468,511.7462)">
            <path
               d="m 0,0 c -0.255,0.103 -0.538,0.139 -0.811,0.138 -0.6,0 -1.164,-0.287 -1.164,-0.946 0.001,-0.833 1.067,-0.743 1.067,-1.307 0.001,-0.336 -0.295,-0.488 -0.595,-0.489 -0.269,0 -0.524,0.103 -0.766,0.215 L -2.43,-2.923 c 0.283,-0.102 0.592,-0.174 0.892,-0.173 0.685,0 1.285,0.278 1.284,1.044 0,0.869 -1.066,0.837 -1.067,1.339 0,0.269 0.3,0.358 0.524,0.358 0.229,0.001 0.466,-0.066 0.65,-0.16 L 0,0 Z"
               style="fill:#ffffff;fill-opacity:1;fill-rule:evenodd;stroke:none"
               id="path2836" />
          </g>
          <g
             id="g2838"
             transform="translate(145.036,511.3391)">
            <path
               d="M 0,0 0.882,0.001 0.316,-2.634 0.97,-2.633 1.536,0.001 2.419,0.002 2.521,0.495 0.107,0.493 0,0 Z"
               style="fill:#ffffff;fill-opacity:1;fill-rule:evenodd;stroke:none"
               id="path2840" />
          </g>
          <g
             id="g2842"
             transform="translate(149.6263,511.7506)">
            <path
               d="m 0,0 c -0.256,0.103 -0.538,0.138 -0.811,0.138 -0.6,0 -1.164,-0.287 -1.164,-0.946 0.001,-0.833 1.067,-0.743 1.067,-1.307 0.001,-0.336 -0.295,-0.488 -0.595,-0.489 -0.269,0 -0.524,0.103 -0.766,0.215 L -2.43,-2.923 c 0.282,-0.102 0.591,-0.174 0.892,-0.174 0.685,10e-4 1.285,0.279 1.284,1.045 0,0.869 -1.066,0.837 -1.067,1.339 0,0.268 0.3,0.358 0.524,0.358 0.228,0.001 0.466,-0.066 0.65,-0.16 L 0,0 Z"
               style="fill:#ffffff;fill-opacity:1;fill-rule:evenodd;stroke:none"
               id="path2844" />
          </g>
          <g
             id="g2846"
             transform="translate(149.905,509.668)">
            <path
               d="M 0,0 1.178,0.001 1.281,0.494 0.103,0.493 0,0 Z"
               style="fill:#ffffff;fill-opacity:1;fill-rule:evenodd;stroke:none"
               id="path2848" />
          </g>
          <g
             id="g2850"
             transform="translate(152.2101,510.7271)">
            <path
               d="M 0,0 0.573,0.399 0.042,-2.016 0.669,-2.015 1.343,1.112 0.774,1.111 -0.273,0.425 0,0 Z"
               style="fill:#ffffff;fill-opacity:1;fill-rule:evenodd;stroke:none"
               id="path2852" />
          </g>
          <g
             id="g2854"
             transform="translate(155.9822,509.2074)">
            <path
               d="m 0,0 -1.218,-0.001 0,0.009 c 0.532,0.403 1.504,1.072 1.503,1.833 0,0.591 -0.48,0.846 -1.017,0.846 -0.292,0 -0.574,-0.099 -0.842,-0.202 l 0.014,-0.56 c 0.21,0.148 0.461,0.269 0.721,0.269 0.259,0 0.47,-0.156 0.47,-0.438 0.001,-0.511 -1.123,-1.22 -1.683,-1.735 L -2.15,-0.495 -0.093,-0.493 0,0 Z"
               style="fill:#ffffff;fill-opacity:1;fill-rule:evenodd;stroke:none"
               id="path2856" />
          </g>
          <g
             id="g2858"
             transform="translate(157.1896,510.7314)">
            <path
               d="m 0,0 0.573,0.399 -0.531,-2.415 0.627,10e-4 0.674,3.127 -0.569,0 L -0.274,0.425 0,0 Z"
               style="fill:#ffffff;fill-opacity:1;fill-rule:evenodd;stroke:none"
               id="path2860" />
          </g>
        </g>
        <g
           transform="translate(163.8993,512.6978)"
           id="g2862">
          <path
             id="path2864"
             style="fill:#ffffff;fill-opacity:1;fill-rule:evenodd;stroke:#000000;stroke-width:0.00678829;stroke-miterlimit:14.30000019;stroke-dasharray:none;stroke-opacity:1"
             d="m 0,0 -26.514,0.014 -18.758,-18.738 -0.014,-26.514 18.738,-18.758 26.514,-0.014 18.758,18.738 0.014,26.514 L 0,0 Z m -26.771,1.258 27.029,-0.014 0.258,0 0.182,-0.182 19.102,-19.123 0.183,-0.182 0,-0.258 -0.015,-27.029 0,-0.258 -0.182,-0.182 -19.123,-19.103 -0.182,-0.181 -0.258,0 -27.029,0.014 -0.258,0 -0.182,0.182 -19.102,19.123 -0.182,0.182 0,0.258 0.014,27.029 0,0.258 0.183,0.182 19.122,19.102 0.182,0.182 0.258,0 z" />
        </g>
      </g>
    </g>
    <g
       id="g2878"
       transform="matrix(73.656273,0,0,-73.656273,-8594.5056,33958.918)">
      <g
         id="g2880">
        <g
           id="NOWAK">
          <g
             id="g2886"
             transform="translate(122.758,471.57)">
            <path
               d="m 0,0 0,0.634 -2.468,0 0,0.009 2.468,1.262 0,0.809 -3.3,0 0,-0.634 2.468,0 0,-0.009 L -3.3,0.813 -3.3,0 0,0 Z"
               style="fill:#ffffff;fill-opacity:1;fill-rule:evenodd;stroke:none"
               id="path2888" />
          </g>
          <g
             id="g2890"
             transform="translate(121.0984,475.6698)">
            <path
               d="m 0,0 c -0.582,0 -1.177,0.27 -1.177,0.927 0,0.657 0.595,0.927 1.177,0.927 0.596,0 1.196,-0.251 1.196,-0.927 C 1.196,0.251 0.596,0 0,0 m 0,-0.69 c 1.012,0 1.716,0.558 1.716,1.617 0,1.045 -0.718,1.617 -1.716,1.617 -0.998,0 -1.697,-0.582 -1.697,-1.617 0,-1.05 0.685,-1.617 1.697,-1.617"
               style="fill:#ffffff;fill-opacity:1;fill-rule:evenodd;stroke:none"
               id="path2892" />
          </g>
          <g
             id="g2894"
             transform="translate(122.758,479.4809)">
            <path
               d="m 0,0 0,0.856 -2.638,0.586 0,0.01 2.638,0.595 0,0.851 -3.3,0.861 0,-0.643 2.638,-0.62 0,-0.009 -2.638,-0.582 0,-0.898 2.638,-0.563 0,-0.009 L -3.3,-0.18 -3.3,-0.875 0,0 Z"
               style="fill:#ffffff;fill-opacity:1;fill-rule:evenodd;stroke:none"
               id="path2896" />
          </g>
          <g
             id="g2898"
             transform="translate(122.758,483.4533)">
            <path
               d="m 0,0 0,0.686 -0.757,0.288 0,1.338 L 0,2.596 0,3.329 -3.3,2.033 -3.3,1.286 0,0 Z m -1.277,2.128 0,-0.965 -1.361,0.478 0,0.009 1.361,0.478 z"
               style="fill:#ffffff;fill-opacity:1;fill-rule:evenodd;stroke:none"
               id="path2900" />
          </g>
          <g
             id="g2902"
             transform="translate(122.758,487.3311)">
            <path
               d="m 0,0 0,0.662 -1.532,0 0,0.009 L 0,1.858 0,2.723 -1.745,1.309 -3.3,2.667 -3.3,1.853 -1.882,0.662 -3.3,0.662 -3.3,0 0,0 Z"
               style="fill:#ffffff;fill-opacity:1;fill-rule:evenodd;stroke:none"
               id="path2904" />
          </g>
        </g>
        <g
           id="WILSON">
          <g
             id="g2906"
             transform="translate(178.5563,489.5353)">
            <path
               d="m 0,0 0,-0.856 2.639,-0.586 0,-0.009 L 0,-2.047 l 0,-0.851 3.301,-0.861 0,0.643 -2.639,0.619 0,0.01 2.639,0.581 0,0.899 -2.639,0.563 0,0.009 2.639,0.615 0,0.695 L 0,0 Z"
               style="fill:#ffffff;fill-opacity:1;fill-rule:evenodd;stroke:none"
               id="path2908" />
          </g>
          <path
             d="m 178.556,484.617 3.301,0 0,0.662 -3.301,0 0,-0.662 z"
             style="fill:#ffffff;fill-opacity:1;fill-rule:evenodd;stroke:none"
             id="path2910" />
          <g
             id="g2912"
             transform="translate(178.5563,483.7847)">
            <path
               d="m 0,0 0,-1.943 0.52,0 0,1.281 2.781,0 L 3.301,0 0,0 Z"
               style="fill:#ffffff;fill-opacity:1;fill-rule:evenodd;stroke:none"
               id="path2914" />
          </g>
          <g
             id="g2916"
             transform="translate(181.7953,479.462)">
            <path
               d="m 0,0 c 0.08,0.241 0.118,0.506 0.118,0.79 0,0.581 -0.269,1.153 -1.007,1.153 -1.092,0 -0.832,-1.447 -1.461,-1.447 -0.298,0 -0.425,0.336 -0.425,0.587 0,0.26 0.08,0.52 0.203,0.747 l -0.596,0.061 c -0.08,-0.326 -0.128,-0.487 -0.128,-0.846 0,-0.667 0.274,-1.239 0.998,-1.239 1.107,0 0.865,1.447 1.437,1.447 0.36,0 0.459,-0.293 0.459,-0.52 0,-0.232 -0.052,-0.463 -0.142,-0.672 L 0,0 Z"
               style="fill:#ffffff;fill-opacity:1;fill-rule:evenodd;stroke:none"
               id="path2918" />
          </g>
          <g
             id="g2920"
             transform="translate(180.2161,478.0144)">
            <path
               d="m 0,0 c 0.582,0 1.177,-0.269 1.177,-0.926 0,-0.658 -0.595,-0.927 -1.177,-0.927 -0.596,0 -1.196,0.25 -1.196,0.927 C -1.196,-0.251 -0.596,0 0,0 m 0,0.69 c -1.012,0 -1.716,-0.557 -1.716,-1.616 0,-1.046 0.718,-1.617 1.716,-1.617 0.998,0 1.697,0.581 1.697,1.617 C 1.697,0.123 1.012,0.69 0,0.69"
               style="fill:#ffffff;fill-opacity:1;fill-rule:evenodd;stroke:none"
               id="path2922" />
          </g>
          <g
             id="g2924"
             transform="translate(178.5563,474.7756)">
            <path
               d="m 0,0 0,-0.634 2.468,0 0,-0.009 L 0,-1.905 l 0,-0.809 3.301,0 0,0.634 -2.469,0 0,0.009 2.469,1.258 L 3.301,0 0,0 Z"
               style="fill:#ffffff;fill-opacity:1;fill-rule:evenodd;stroke:none"
               id="path2926" />
          </g>
        </g>
        <g
           id="SELLERS">
          <g
             id="g2928"
             transform="translate(164.8325,455.188)">
            <path
               d="m 0,0 c -0.227,-0.114 -0.441,-0.274 -0.642,-0.475 -0.411,-0.411 -0.625,-1.006 -0.104,-1.528 0.773,-0.772 1.612,0.435 2.057,-0.01 0.21,-0.21 0.063,-0.538 -0.114,-0.715 C 1.013,-2.912 0.772,-3.039 0.525,-3.113 l 0.378,-0.464 c 0.287,0.173 0.434,0.254 0.689,0.508 0.471,0.471 0.681,1.07 0.17,1.581 -0.782,0.783 -1.635,-0.411 -2.039,-0.007 -0.255,0.254 -0.117,0.532 0.043,0.692 0.164,0.164 0.364,0.291 0.575,0.375 L 0,0 Z"
               style="fill:#ffffff;fill-opacity:1;fill-rule:evenodd;stroke:none"
               id="path2930" />
          </g>
          <g
             id="g2932"
             transform="translate(167.8597,453.6349)">
            <path
               d="M 0,0 1.384,1.384 1.016,1.752 0.1,0.836 -0.555,1.491 0.277,2.323 -0.09,2.691 -0.923,1.859 -1.498,2.434 -0.588,3.343 -0.956,3.711 -2.334,2.333 0,0 Z"
               style="fill:#ffffff;fill-opacity:1;fill-rule:evenodd;stroke:none"
               id="path2934" />
          </g>
          <g
             id="g2936"
             transform="translate(169.8941,455.669)">
            <path
               d="M 0,0 1.374,1.374 1.006,1.742 0.1,0.836 -1.866,2.802 -2.334,2.333 0,0 Z"
               style="fill:#ffffff;fill-opacity:1;fill-rule:evenodd;stroke:none"
               id="path2938" />
          </g>
          <g
             id="g2940"
             transform="translate(171.7415,457.5162)">
            <path
               d="M 0,0 1.374,1.374 1.006,1.742 0.1,0.836 -1.866,2.802 -2.334,2.334 0,0 Z"
               style="fill:#ffffff;fill-opacity:1;fill-rule:evenodd;stroke:none"
               id="path2942" />
          </g>
          <g
             id="g2944"
             transform="translate(173.5887,459.3637)">
            <path
               d="M 0,0 1.384,1.384 1.016,1.752 0.1,0.836 -0.555,1.491 0.277,2.323 -0.09,2.691 -0.923,1.859 -1.498,2.434 -0.589,3.343 -0.956,3.711 -2.333,2.334 0,0 Z"
               style="fill:#ffffff;fill-opacity:1;fill-rule:evenodd;stroke:none"
               id="path2946" />
          </g>
          <g
             id="g2948"
             transform="translate(175.5828,461.3577)">
            <path
               d="m 0,0 0.468,0.468 -0.969,0.97 0.15,0.15 c 0.197,0.197 0.324,0.191 0.565,0.084 L 1.224,1.224 1.745,1.745 0.458,2.284 C 0.308,2.34 0.107,2.394 -0.03,2.277 L -0.037,2.284 C 0.221,2.621 0.177,3.032 -0.097,3.307 -0.746,3.955 -1.327,3.34 -1.829,2.839 L -2.334,2.334 0,0 Z m -1.498,2.434 0.154,0.154 c 0.234,0.234 0.518,0.471 0.799,0.19 0.291,-0.291 0.06,-0.588 -0.17,-0.819 L -0.869,1.805 -1.498,2.434 Z"
               style="fill:#ffffff;fill-opacity:1;fill-rule:evenodd;stroke:none"
               id="path2950" />
          </g>
          <g
             id="g2952"
             transform="translate(176.8477,467.2032)">
            <path
               d="m 0,0 c -0.227,-0.114 -0.441,-0.274 -0.642,-0.475 -0.411,-0.411 -0.625,-1.006 -0.103,-1.528 0.772,-0.772 1.611,0.435 2.056,-0.01 0.21,-0.21 0.063,-0.538 -0.114,-0.715 C 1.013,-2.912 0.772,-3.039 0.525,-3.113 l 0.378,-0.464 c 0.287,0.173 0.434,0.254 0.689,0.508 0.471,0.471 0.682,1.07 0.17,1.581 -0.782,0.783 -1.635,-0.411 -2.039,-0.006 -0.255,0.254 -0.117,0.531 0.043,0.691 0.164,0.164 0.365,0.291 0.575,0.375 L 0,0 Z"
               style="fill:#ffffff;fill-opacity:1;fill-rule:evenodd;stroke:none"
               id="path2954" />
          </g>
        </g>
        <g
           id="REITER">
          <g
             id="g2956"
             transform="translate(142.7745,449.4129)">
            <path
               d="m 0,0 0.662,0 0,1.371 0.213,0 c 0.279,0 0.364,-0.094 0.458,-0.34 L 1.73,0 2.468,0 1.939,1.291 C 1.872,1.437 1.768,1.617 1.589,1.631 l 0,0.01 C 2.009,1.697 2.27,2.019 2.27,2.407 2.27,3.324 1.423,3.3 0.714,3.3 L 0,3.3 0,0 Z m 0.662,2.78 0.217,0 c 0.331,0 0.7,-0.033 0.7,-0.43 0,-0.411 -0.373,-0.459 -0.7,-0.459 l -0.217,0 0,0.889 z"
               style="fill:#ffffff;fill-opacity:1;fill-rule:evenodd;stroke:none"
               id="path2958" />
          </g>
          <g
             id="g2960"
             transform="translate(145.9677,449.4129)">
            <path
               d="m 0,0 1.957,0 0,0.52 -1.295,0 0,0.927 1.177,0 0,0.52 -1.177,0 0,0.813 1.286,0 0,0.52 L 0,3.3 0,0 Z"
               style="fill:#ffffff;fill-opacity:1;fill-rule:evenodd;stroke:none"
               id="path2962" />
          </g>
          <path
             d="m 148.788,449.413 0.662,0 0,3.3 -0.662,0 0,-3.3 z"
             style="fill:#ffffff;fill-opacity:1;fill-rule:evenodd;stroke:none"
             id="path2964" />
          <g
             id="g2966"
             transform="translate(151.0074,449.4129)">
            <path
               d="m 0,0 0.662,0 0,2.78 0.946,0 0,0.52 -2.554,0 0,-0.52 L 0,2.78 0,0 Z"
               style="fill:#ffffff;fill-opacity:1;fill-rule:evenodd;stroke:none"
               id="path2968" />
          </g>
          <g
             id="g2970"
             transform="translate(153.2839,449.4129)">
            <path
               d="m 0,0 1.957,0 0,0.52 -1.295,0 0,0.927 1.177,0 0,0.52 -1.177,0 0,0.813 1.286,0 0,0.52 L 0,3.3 0,0 Z"
               style="fill:#ffffff;fill-opacity:1;fill-rule:evenodd;stroke:none"
               id="path2972" />
          </g>
          <g
             id="g2974"
             transform="translate(156.1039,449.4129)">
            <path
               d="m 0,0 0.662,0 0,1.371 0.213,0 c 0.279,0 0.364,-0.094 0.458,-0.34 L 1.73,0 2.468,0 1.939,1.291 C 1.872,1.437 1.768,1.617 1.589,1.631 l 0,0.01 C 2.009,1.697 2.27,2.019 2.27,2.407 2.27,3.324 1.423,3.3 0.714,3.3 L 0,3.3 0,0 Z m 0.662,2.78 0.217,0 c 0.331,0 0.7,-0.033 0.7,-0.43 0,-0.411 -0.373,-0.459 -0.7,-0.459 l -0.217,0 0,0.889 z"
               style="fill:#ffffff;fill-opacity:1;fill-rule:evenodd;stroke:none"
               id="path2976" />
          </g>
        </g>
        <g
           id="FOSSUM">
          <g
             id="g2978"
             transform="translate(122.0887,465.1815)">
            <path
               d="M 0,0 0.468,-0.468 1.491,0.555 2.28,-0.234 2.648,0.134 1.859,0.923 2.434,1.498 3.263,0.669 3.631,1.036 2.334,2.333 0,0 Z"
               style="fill:#ffffff;fill-opacity:1;fill-rule:evenodd;stroke:none"
               id="path2980" />
          </g>
          <g
             id="g2982"
             transform="translate(125.3961,464.2212)">
            <path
               d="M 0,0 C 0.411,0.411 1.023,0.642 1.488,0.177 1.952,-0.288 1.722,-0.899 1.311,-1.311 0.889,-1.732 0.287,-1.979 -0.191,-1.501 -0.669,-1.023 -0.421,-0.421 0,0 m -0.488,0.488 c -0.716,-0.715 -0.819,-1.608 -0.07,-2.357 0.739,-0.739 1.651,-0.635 2.357,0.07 0.705,0.706 0.789,1.612 0.057,2.344 C 1.113,1.287 0.227,1.204 -0.488,0.488"
               style="fill:#ffffff;fill-opacity:1;fill-rule:evenodd;stroke:none"
               id="path2984" />
          </g>
          <g
             id="g2986"
             transform="translate(130.1236,461.727)">
            <path
               d="m 0,0 c -0.114,0.227 -0.274,0.441 -0.475,0.642 -0.411,0.411 -1.006,0.625 -1.528,0.104 -0.772,-0.773 0.435,-1.612 -0.01,-2.056 -0.21,-0.211 -0.538,-0.064 -0.715,0.113 -0.184,0.184 -0.311,0.425 -0.385,0.672 l -0.464,-0.378 c 0.174,-0.287 0.254,-0.434 0.508,-0.688 0.471,-0.472 1.07,-0.682 1.581,-0.171 0.783,0.783 -0.411,1.635 -0.006,2.039 0.254,0.255 0.531,0.117 0.692,-0.043 0.163,-0.164 0.29,-0.364 0.374,-0.575 L 0,0 Z"
               style="fill:#ffffff;fill-opacity:1;fill-rule:evenodd;stroke:none"
               id="path2988" />
          </g>
          <g
             id="g2990"
             transform="translate(132.0698,459.7808)">
            <path
               d="m 0,0 c -0.114,0.227 -0.274,0.441 -0.475,0.642 -0.411,0.411 -1.006,0.625 -1.528,0.104 -0.772,-0.773 0.435,-1.612 -0.01,-2.057 -0.21,-0.21 -0.538,-0.063 -0.715,0.114 -0.184,0.184 -0.311,0.425 -0.385,0.672 l -0.464,-0.378 c 0.174,-0.287 0.254,-0.434 0.508,-0.689 0.471,-0.471 1.07,-0.681 1.581,-0.17 0.783,0.782 -0.411,1.635 -0.006,2.039 0.254,0.255 0.531,0.117 0.692,-0.043 0.163,-0.164 0.291,-0.365 0.374,-0.575 L 0,0 Z"
               style="fill:#ffffff;fill-opacity:1;fill-rule:evenodd;stroke:none"
               id="path2992" />
          </g>
          <g
             id="g2994"
             transform="translate(131.2546,457.7006)">
            <path
               d="M 0,0 C -0.625,-0.625 -0.528,-1.237 0.07,-1.835 0.669,-2.434 1.28,-2.531 1.906,-1.906 L 3.397,-0.415 2.929,0.054 1.581,-1.294 C 1.184,-1.691 0.796,-1.825 0.438,-1.468 0.08,-1.11 0.214,-0.722 0.612,-0.324 L 1.959,1.023 1.491,1.491 0,0 Z"
               style="fill:#ffffff;fill-opacity:1;fill-rule:evenodd;stroke:none"
               id="path2996" />
          </g>
          <g
             id="g2998"
             transform="translate(132.93,454.3404)">
            <path
               d="m 0,0 0.448,-0.448 1.919,1.919 0.013,0 L 1.083,-1.083 1.531,-1.531 4.085,-0.234 4.092,-0.241 2.166,-2.167 2.614,-2.614 4.948,-0.281 4.199,0.468 1.876,-0.746 1.869,-0.739 3.083,1.585 2.334,2.333 0,0 Z"
               style="fill:#ffffff;fill-opacity:1;fill-rule:evenodd;stroke:none"
               id="path3000" />
          </g>
        </g>
        <g
           id="KELLY">
          <g
             id="g3002"
             transform="translate(165.199,505.4333)">
            <path
               d="M 0,0 0.468,-0.468 1.551,0.615 1.558,0.608 1.314,-1.314 1.926,-1.926 2.16,0.308 4.219,0.448 3.644,1.023 1.799,0.863 2.802,1.866 2.334,2.334 0,0 Z"
               style="fill:#ffffff;fill-opacity:1;fill-rule:evenodd;stroke:none"
               id="path3004" />
          </g>
          <g
             id="g3006"
             transform="translate(167.5166,503.1156)">
            <path
               d="M 0,0 1.384,-1.384 1.752,-1.016 0.836,-0.1 1.491,0.555 2.324,-0.277 2.691,0.09 1.859,0.923 2.434,1.498 3.344,0.588 3.711,0.956 2.334,2.334 0,0 Z"
               style="fill:#ffffff;fill-opacity:1;fill-rule:evenodd;stroke:none"
               id="path3008" />
          </g>
          <g
             id="g3010"
             transform="translate(169.4628,501.1694)">
            <path
               d="M 0,0 1.374,-1.374 1.742,-1.006 0.836,-0.1 2.802,1.866 2.334,2.334 0,0 Z"
               style="fill:#ffffff;fill-opacity:1;fill-rule:evenodd;stroke:none"
               id="path3012" />
          </g>
          <g
             id="g3014"
             transform="translate(171.2224,499.41)">
            <path
               d="M 0,0 1.374,-1.374 1.742,-1.006 0.836,-0.1 2.801,1.866 2.333,2.334 0,0 Z"
               style="fill:#ffffff;fill-opacity:1;fill-rule:evenodd;stroke:none"
               id="path3016" />
          </g>
          <g
             id="g3018"
             transform="translate(173.5999,497.0322)">
            <path
               d="M 0,0 0.468,-0.468 1.391,0.455 3.638,1.03 3.143,1.525 1.602,1.107 2.03,2.638 1.481,3.186 0.923,0.923 0,0 Z"
               style="fill:#ffffff;fill-opacity:1;fill-rule:evenodd;stroke:none"
               id="path3020" />
          </g>
        </g>
        <g
           id="LINDSEY">
          <g
             id="g3022"
             transform="translate(124.742,493.8511)">
            <path
               d="M 0,0 1.374,1.374 1.006,1.742 0.1,0.836 -1.866,2.802 -2.334,2.334 0,0 Z"
               style="fill:#ffffff;fill-opacity:1;fill-rule:evenodd;stroke:none"
               id="path3024" />
          </g>
          <g
             id="g3026"
             transform="translate(126.4612,495.5703)">
            <path
               d="M 0,0 0.468,0.468 -1.866,2.802 -2.334,2.334 0,0 Z"
               style="fill:#ffffff;fill-opacity:1;fill-rule:evenodd;stroke:none"
               id="path3028" />
          </g>
          <g
             id="g3030"
             transform="translate(127.4946,496.6037)">
            <path
               d="M 0,0 0.448,0.448 -1.297,2.193 -1.291,2.2 1.347,1.347 1.919,1.919 -0.415,4.253 -0.863,3.805 0.883,2.059 0.876,2.053 -1.759,2.909 -2.334,2.334 0,0 Z"
               style="fill:#ffffff;fill-opacity:1;fill-rule:evenodd;stroke:none"
               id="path3032" />
          </g>
          <g
             id="g3034"
             transform="translate(128.5214,501.5622)">
            <path
               d="m 0,0 0.261,0.261 c 0.391,0.391 1.06,0.478 1.568,-0.03 0.508,-0.508 0.421,-1.177 0.03,-1.568 L 1.598,-1.598 0,0 Z m 1.498,-2.434 0.638,0.639 C 2.852,-1.08 3.243,-0.207 2.317,0.719 1.391,1.645 0.518,1.254 -0.197,0.538 L -0.836,-0.1 1.498,-2.434 Z"
               style="fill:#ffffff;fill-opacity:1;fill-rule:evenodd;stroke:none"
               id="path3036" />
          </g>
          <g
             id="g3038"
             transform="translate(131.5275,505.2169)">
            <path
               d="m 0,0 c -0.227,-0.114 -0.441,-0.274 -0.642,-0.475 -0.411,-0.411 -0.625,-1.006 -0.104,-1.528 0.773,-0.772 1.612,0.435 2.057,-0.01 0.21,-0.21 0.063,-0.538 -0.114,-0.715 C 1.013,-2.912 0.772,-3.039 0.525,-3.113 l 0.378,-0.464 c 0.287,0.174 0.434,0.254 0.688,0.508 0.472,0.471 0.682,1.07 0.171,1.581 -0.782,0.783 -1.635,-0.411 -2.04,-0.006 -0.254,0.254 -0.117,0.531 0.044,0.692 0.164,0.163 0.364,0.291 0.575,0.374 L 0,0 Z"
               style="fill:#ffffff;fill-opacity:1;fill-rule:evenodd;stroke:none"
               id="path3040" />
          </g>
          <g
             id="g3042"
             transform="translate(134.4667,503.5757)">
            <path
               d="M 0,0 1.384,1.384 1.016,1.752 0.1,0.836 -0.555,1.491 0.278,2.324 -0.09,2.691 -0.923,1.859 -1.498,2.434 -0.588,3.343 -0.956,3.711 -2.334,2.334 0,0 Z"
               style="fill:#ffffff;fill-opacity:1;fill-rule:evenodd;stroke:none"
               id="path3044" />
          </g>
          <g
             id="g3046"
             transform="translate(137.0315,506.1406)">
            <path
               d="M 0,0 0.468,0.468 -0.455,1.391 -1.03,3.637 -1.525,3.143 -1.107,1.601 -2.638,2.029 -3.186,1.481 -0.923,0.923 0,0 Z"
               style="fill:#ffffff;fill-opacity:1;fill-rule:evenodd;stroke:none"
               id="path3048" />
          </g>
        </g>
      </g>
    </g>
  </g>
</svg>
