<svg id="Calque_1" data-name="Calque 1" xmlns="http://www.w3.org/2000/svg" viewBox="0 0 116.82 152.19" preserveAspectRatio="xMidYMid meet"><title>logo</title><path d="M31.68,150.36a0.71,0.71,0,1,1,.71.7A0.7,0.7,0,0,1,31.68,150.36Z" style="fill:#231f20"/><path d="M37.63,147.2h4.19l0.32,1.11h0a3.58,3.58,0,0,0-1.72-.31H38.84v1.2h2.59l-0.57,1h0a2.08,2.08,0,0,0-1-.2H38.84v0.64a2.91,2.91,0,0,0,.24,1.44v0H37.63v0a2.78,2.78,0,0,0,.26-1.44v-2.45a1.26,1.26,0,0,0-.26-0.94v0Z" style="fill:#231f20"/><path d="M46.28,149.22h0a1,1,0,0,0,.45.07h0.72a0.68,0.68,0,1,0,0-1.3H45.43v2.64a2.77,2.77,0,0,0,.24,1.44v0H44.2v0a2.71,2.71,0,0,0,.26-1.44v-2.45a1.26,1.26,0,0,0-.26-0.94v0h3.31a1.56,1.56,0,0,1,1.82,1.47A1.39,1.39,0,0,1,48,150.09l0.39,0.54a7.38,7.38,0,0,0,1.22,1.44v0a2.69,2.69,0,0,1-.57.07,1.52,1.52,0,0,1-1.32-.76l-0.95-1.34h-1Z" style="fill:#231f20"/><path d="M51.61,152.12v0a5.47,5.47,0,0,0,.83-1.44l1.09-2.45a1,1,0,0,0,.12-0.94v0h1.48v0a1,1,0,0,0,.14.67l1.27,2.72a7.44,7.44,0,0,0,.81,1.44v0H55.92v0a1.1,1.1,0,0,0-.16-0.91l-0.16-.34H53.27l-0.16.34a1.13,1.13,0,0,0-.17.91v0H51.61Zm3.59-2.07-0.81-1.77-0.8,1.77H55.2Z" style="fill:#231f20"/><path d="M64.66,150.63a2.85,2.85,0,0,0,.25,1.44v0H63.53v0a1.45,1.45,0,0,0-.51-0.91l-2.45-2.64v2.11a2.85,2.85,0,0,0,.25,1.44v0H59.48v0a3.06,3.06,0,0,0,.23-1.44v-2.45a1.37,1.37,0,0,0-.23-0.94v0H61v0a1.56,1.56,0,0,0,.55.94l2.27,2.41v-2.41a1.31,1.31,0,0,0-.24-0.94v0h1.35v0a1.29,1.29,0,0,0-.25.94v2.45Z" style="fill:#231f20"/><path d="M70.23,147.13a4.09,4.09,0,0,1,2.08.57L72,148.75h0a2.4,2.4,0,0,0-1.85-.81,1.73,1.73,0,1,0,0,3.41,2.71,2.71,0,0,0,2.09-.92h0l-0.37,1.32a3.51,3.51,0,0,1-1.74.44c-1.6,0-3-.84-3-2.5S68.55,147.13,70.23,147.13Z" style="fill:#231f20"/><path d="M78.83,152.12H74.78v0a2.91,2.91,0,0,0,.24-1.44v-2.45a1.31,1.31,0,0,0-.24-0.94v0h4.05l0.32,1.11h0a3.48,3.48,0,0,0-1.72-.31H76v1.2h2.74l-0.57,1H78.1a2,2,0,0,0-1-.2H76v1.33h1a8.59,8.59,0,0,0,2.41-.29h0Z" style="fill:#231f20"/><path d="M83.87,150.36a0.71,0.71,0,1,1,.71.7A0.7,0.7,0,0,1,83.87,150.36Z" style="fill:#231f20"/><path d="M40.82,138.47l-0.66-3.72h0.79a5.69,5.69,0,0,0,2,2.71,5.06,5.06,0,0,0,3.06,1,5.37,5.37,0,0,0,3.26-.92,2.85,2.85,0,0,0,1.25-2.41q0-1.9-4.11-3.71L45.59,131a12.24,12.24,0,0,1-3.78-2.33,3.73,3.73,0,0,1-1-2.63,4.12,4.12,0,0,1,1.91-3.55,8.8,8.8,0,0,1,5.11-1.33q0.74,0,1.73.09t2.28,0.27l0.49,3.17H51.57a3.08,3.08,0,0,0-1.38-2,4.94,4.94,0,0,0-2.76-.72,4.55,4.55,0,0,0-2.79.82,2.47,2.47,0,0,0-1.11,2,3,3,0,0,0,.86,2.17A10.83,10.83,0,0,0,47.84,129l0.69,0.27a14.19,14.19,0,0,1,3.17,1.61A4.49,4.49,0,0,1,53,132.35a3.79,3.79,0,0,1,.44,1.8,4.4,4.4,0,0,1-2.14,3.76,9.6,9.6,0,0,1-5.54,1.47,14.37,14.37,0,0,1-2.64-.23A11.25,11.25,0,0,1,40.82,138.47Z" style="fill:#231f20"/><path d="M62.11,139.07v-0.63h0.4a4,4,0,0,0,2.12-.37,2,2,0,0,0,.52-1.64V122.52H61.88a7.17,7.17,0,0,0-3.28.5,2.51,2.51,0,0,0-1.08,1.86H56.73l0.34-4.05h0.67a1.5,1.5,0,0,0,.86.55,10.66,10.66,0,0,0,2.33.16H71.82a20.82,20.82,0,0,0,3.19-.17,1.09,1.09,0,0,0,1-.54h0.67l-0.26,3.88H75.65v-0.18A1.73,1.73,0,0,0,75,123a7.94,7.94,0,0,0-3.31-.44H68.23v12.76q0,2.24.51,2.7a3.3,3.3,0,0,0,2.1.47h0.42l0,0.63L69.4,139l-2.93,0-1.8,0Z" style="fill:#231f20"/><path d="M79.9,139.07v-0.63a4.14,4.14,0,0,0,2.16-.37,1.94,1.94,0,0,0,.53-1.64v-12.6a1.47,1.47,0,0,0-.48-1.34,5.56,5.56,0,0,0-2.2-.37v-0.64l1.88,0q2.73,0,4.13,0,2.38,0,5.36,0l3.59,0v3.88H94.22A2.67,2.67,0,0,0,92.93,123a8.93,8.93,0,0,0-4.11-.68H85.57v7h4a3.31,3.31,0,0,0,2-.47,2.1,2.1,0,0,0,.6-1.64H93c-0.06.48-.1,0.9-0.14,1.28s0,0.73,0,1q0,1,.17,3.14c0,0.11,0,.18,0,0.22H92.27v-0.2a2,2,0,0,0-.68-1.8,6.79,6.79,0,0,0-3.18-.46H85.57v5.26a2.28,2.28,0,0,0,.72,2,8.29,8.29,0,0,0,3.6.47,10,10,0,0,0,4.29-.65,5,5,0,0,0,2.07-2.46L97,135.33a14.61,14.61,0,0,0-.72,1.75q-0.34,1-.61,2.09L89,139.06l-4.94,0H82.47Z" style="fill:#231f20"/><path d="M99.81,139.07l0-.63h0.32a3.63,3.63,0,0,0,2-.39q0.51-.39.51-2.2v-12a1.48,1.48,0,0,0-.48-1.34,5.56,5.56,0,0,0-2.2-.37V121.5l2.47,0.06,2.37,0,1.88,0,1.6-.06v0.64a4,4,0,0,0-2.16.46q-0.53.41-.53,2.2v10.63a2.5,2.5,0,0,0,.78,2.17,5.87,5.87,0,0,0,3.05.54,12,12,0,0,0,4.85-.64,4,4,0,0,0,1.82-2.43l0.71,0.14-1.14,3.94q-3-.09-5.52-0.13t-4.21,0l-2.63,0Z" style="fill:#231f20"/><path d="M23.23,135.2l-0.82,4.59a21.81,21.81,0,0,1-4.17,1.27,22.56,22.56,0,0,1-4.37.42,18.38,18.38,0,0,1-5.42-.76,13.05,13.05,0,0,1-4.34-2.26,10.77,10.77,0,0,1-3-3.73,10.25,10.25,0,0,1-1.1-4.6,9.82,9.82,0,0,1,1.11-4.57,11.82,11.82,0,0,1,3.26-3.84,13.32,13.32,0,0,1,4.4-2.31,18.45,18.45,0,0,1,5.48-.76,22.66,22.66,0,0,1,4.16.39,28.48,28.48,0,0,1,4.32,1.18q0.15,0.94.24,2t0.15,2.43H22.37a6.42,6.42,0,0,0-2.61-3.85,9.52,9.52,0,0,0-5.21-1.22,12.5,12.5,0,0,0-3.46.46,9.83,9.83,0,0,0-2.9,1.34,10,10,0,0,0-3.13,3.45A9.12,9.12,0,0,0,4,129.28a10.89,10.89,0,0,0,1.72,5.92A10.7,10.7,0,0,0,9.57,139a10.51,10.51,0,0,0,5.22,1.31,8.65,8.65,0,0,0,5-1.38A6.32,6.32,0,0,0,22.4,135Z" style="fill:#231f20"/><path d="M31.58,138.2a5.57,5.57,0,0,1-1.72.24v0.63l2.28-.06L34,139,36,139l1.82,0.06v-0.63A4,4,0,0,1,36,138a3.07,3.07,0,0,1-1.08-1.41l-7-15.72H27.33a8.07,8.07,0,0,1-.84.62,5.6,5.6,0,0,1-.87.46v0.31a5.4,5.4,0,0,1-.21,1.44,15.68,15.68,0,0,1-.8,2.06l-3.86,8.82h1.37L23,132.48h7.1l1.55,3.81q0.21,0.55.29,0.82a1.74,1.74,0,0,1,.08.45A0.66,0.66,0,0,1,31.58,138.2Zm-8.14-6.76,2.86-7.39,3.27,7.39H23.44Z" style="fill:#231f20"/><path d="M30.81,104.51v0.08a0.94,0.94,0,0,0-.26.36,2.17,2.17,0,0,0-.13.44,2.9,2.9,0,0,0,0,.46q0,0.23,0,.41v4.35q0,0.18,0,.55t0,0.76a5.28,5.28,0,0,0,.13.75,1,1,0,0,0,.26.5v0.08H28.25v-0.08a1,1,0,0,0,.24-0.5,5.3,5.3,0,0,0,.12-0.75c0-.26,0-0.52,0-0.76s0-.43,0-0.55v-3.28h0l-2.48,4.72H24.75l-2.45-4.78h0v3.34q0,0.18,0,.55a7.26,7.26,0,0,0,.05.76,5.26,5.26,0,0,0,.14.75,0.94,0.94,0,0,0,.28.5v0.08H20.38v-0.08a1,1,0,0,0,.25-0.5,5.35,5.35,0,0,0,.13-0.75q0-.4,0-0.76t0-.55v-4.35q0-.18,0-0.41a3,3,0,0,0,0-.46,2.21,2.21,0,0,0-.13-0.44,1,1,0,0,0-.25-0.36v-0.08h2.79v0.08a0.56,0.56,0,0,0-.1.36,1.63,1.63,0,0,0,.08.44,3.66,3.66,0,0,0,.18.46l0.2,0.41,2,3.85,2.08-3.85,0.21-.41A3.68,3.68,0,0,0,28,105.4a1.66,1.66,0,0,0,.09-0.44,0.57,0.57,0,0,0-.08-0.36v-0.08h2.78Z" style="fill:#231f20"/><path d="M35.35,113.25v-0.08a2,2,0,0,0,.42-0.5q0.23-.35.43-0.75t0.37-.76l0.25-.55,1.94-4.35q0.08-.18.17-0.41a3.24,3.24,0,0,0,.14-0.46,1.44,1.44,0,0,0,0-.44,0.59,0.59,0,0,0-.15-0.35v-0.08H41.6v0.08a0.63,0.63,0,0,0,0,.48,4.14,4.14,0,0,0,.26.71l2.26,4.83,0.26,0.55q0.17,0.37.38,0.76t0.42,0.75a2.05,2.05,0,0,0,.38.5v0.08H43v-0.08a0.57,0.57,0,0,0,.11-0.35,1.64,1.64,0,0,0-.06-0.43A3.28,3.28,0,0,0,42.9,112l-0.18-.4-0.29-.6H38.31l-0.28.6-0.18.4a3.28,3.28,0,0,0-.16.44,1.84,1.84,0,0,0-.07.43,0.53,0.53,0,0,0,.1.35v0.08H35.35Zm6.38-3.68-1.44-3.15-1.42,3.15h2.86Z" style="fill:#231f20"/><path d="M52.58,110.61q0,0.18,0,.55a6.49,6.49,0,0,0,.06.76,4.31,4.31,0,0,0,.17.75,0.94,0.94,0,0,0,.32.5v0.08H50.33v-0.08a0.94,0.94,0,0,0,.32-0.5,4.36,4.36,0,0,0,.17-0.75,6.49,6.49,0,0,0,.06-0.76q0-.37,0-0.55v-4.35q0-.18,0-0.41a2.26,2.26,0,0,0-.06-0.46,1.88,1.88,0,0,0-.17-0.44,1,1,0,0,0-.32-0.36v-0.08h2.81v0.08a1,1,0,0,0-.32.36,1.86,1.86,0,0,0-.17.44,2.26,2.26,0,0,0-.06.46q0,0.23,0,.41v4.35Z" style="fill:#231f20"/><path d="M66,107H65.95a1.79,1.79,0,0,0-.49-0.47,3.43,3.43,0,0,0-.74-0.37,5.33,5.33,0,0,0-.93-0.25,6.12,6.12,0,0,0-1.06-.09,6.24,6.24,0,0,0-1.21.1,2.89,2.89,0,0,0-.83.28,1.31,1.31,0,0,0-.48.42,0.93,0.93,0,0,0-.16.52,0.56,0.56,0,0,0,.31.53,2.3,2.3,0,0,0,.8.22,8.68,8.68,0,0,0,1.13.05l1.3,0a10.62,10.62,0,0,1,1.3.13,3.31,3.31,0,0,1,1.13.38,2.24,2.24,0,0,1,.8.78,2.49,2.49,0,0,1,.31,1.32,2.22,2.22,0,0,1-.29,1.11,2.6,2.6,0,0,1-.87.89,4.69,4.69,0,0,1-1.44.59,8.39,8.39,0,0,1-2,.22,9.84,9.84,0,0,1-1.81-.14,7.61,7.61,0,0,1-1.26-.34,4.48,4.48,0,0,1-.79-0.37l-0.4-.25,0.82-1.66h0.08a2.14,2.14,0,0,0,1.21,1,5.67,5.67,0,0,0,2,.33,7.48,7.48,0,0,0,1.38-.11,3.31,3.31,0,0,0,.91-0.29,1.29,1.29,0,0,0,.49-0.41,0.87,0.87,0,0,0,.15-0.48A0.76,0.76,0,0,0,65,110a1.94,1.94,0,0,0-.79-0.31,7,7,0,0,0-1.12-.1l-1.28,0a11.06,11.06,0,0,1-1.28-.11,3.75,3.75,0,0,1-1.12-.33,2,2,0,0,1-.79-0.69,2.12,2.12,0,0,1-.3-1.2,2.26,2.26,0,0,1,.37-1.3,2.87,2.87,0,0,1,1-.89,4.83,4.83,0,0,1,1.42-.51,8.49,8.49,0,0,1,1.68-.16,6.76,6.76,0,0,1,1.44.14,9.28,9.28,0,0,1,1.18.33,8.61,8.61,0,0,1,.87.36,5.5,5.5,0,0,0,.52.23Z" style="fill:#231f20"/><path d="M76.87,104.39a6.36,6.36,0,0,1,2,.29,4.68,4.68,0,0,1,1.59.87A4.06,4.06,0,0,1,81.49,107a5,5,0,0,1,0,3.86,4.06,4.06,0,0,1-1.07,1.41,4.67,4.67,0,0,1-1.59.87,6.66,6.66,0,0,1-3.92,0,4.66,4.66,0,0,1-1.59-.87,4,4,0,0,1-1.07-1.41,5,5,0,0,1,0-3.86,4.05,4.05,0,0,1,1.07-1.41,4.67,4.67,0,0,1,1.59-.87A6.36,6.36,0,0,1,76.87,104.39Zm0,1.42a4.07,4.07,0,0,0-1.29.2,3,3,0,0,0-1.05.59,2.75,2.75,0,0,0-.71,1,3.55,3.55,0,0,0,0,2.66,2.75,2.75,0,0,0,.71,1,3,3,0,0,0,1.05.59,4.27,4.27,0,0,0,2.57,0,3.05,3.05,0,0,0,1.05-.59,2.76,2.76,0,0,0,.71-1,3.54,3.54,0,0,0,0-2.66,2.76,2.76,0,0,0-.71-1,3,3,0,0,0-1.05-.59A4.07,4.07,0,0,0,76.87,105.8Z" style="fill:#231f20"/><path d="M96.16,110.61q0,0.18,0,.55c0,0.24,0,.5,0,0.76a5.28,5.28,0,0,0,.13.75,1,1,0,0,0,.26.5v0.08H94.14v-0.08a1.35,1.35,0,0,0-.08-0.46,2,2,0,0,0-.21-0.41,3.71,3.71,0,0,0-.29-0.38l-0.33-.37-4.36-4.69v3.75c0,0.12,0,.3,0,0.55s0,0.5,0,.76a5.28,5.28,0,0,0,.13.75,1,1,0,0,0,.26.5v0.08H86.94v-0.08a1,1,0,0,0,.24-0.5,5.45,5.45,0,0,0,.12-0.75q0-.4,0-0.76t0-.55v-4.35q0-.18,0-0.41a3.8,3.8,0,0,0,0-.46,2.2,2.2,0,0,0-.12-0.44,1,1,0,0,0-.24-0.36v-0.08h2.68v0.08a1.21,1.21,0,0,0,.09.46,2.06,2.06,0,0,0,.23.43,4.75,4.75,0,0,0,.32.4l0.34,0.38,4,4.29v-4.29c0-.12,0-0.26,0-0.41a2.9,2.9,0,0,0,0-.46,2.24,2.24,0,0,0-.13-0.44,1,1,0,0,0-.25-0.36v-0.08H96.6v0.08a0.94,0.94,0,0,0-.26.36,2.18,2.18,0,0,0-.13.44,3,3,0,0,0,0,.46q0,0.23,0,.41v4.35Z" style="fill:#231f20"/><path d="M57.5,0C34.7,0,16.84,20.22,16.84,46s17.86,46,40.66,46S98.16,71.86,98.16,46,80.3,0,57.5,0Zm0,91.59C35,91.59,17.32,71.58,17.32,46S35,0.49,57.5.49,97.67,20.5,97.67,46,80,91.59,57.5,91.59Z" style="fill:#231f20"/><path d="M57.5,1.94C35.78,1.94,18.77,21.31,18.77,46s17,44.1,38.72,44.1S96.22,70.77,96.22,46,79.21,1.94,57.5,1.94Zm0,87C36.47,88.92,20,70.08,20,46S36.47,3.16,57.5,3.16,95,22,95,46,78.53,88.92,57.5,88.92Z" style="fill:#231f20"/><path d="M29.88,47.16a0.84,0.84,0,1,0,.87.8A0.83,0.83,0,0,0,29.88,47.16Z" style="fill:#231f20"/><path d="M30.54,43.42L31,43.52a3.56,3.56,0,0,1,.48.16,0.66,0.66,0,0,1,.3.21h0.06l0.23-1.56H32a0.62,0.62,0,0,1-.35.13,3.48,3.48,0,0,1-.51,0l-0.51,0-0.36,0-2.19-.32v0l3.37-1.15L31.64,40l-2.86-2.08v0l2.15,0.32,0.36,0.06,0.5,0.1a3.65,3.65,0,0,1,.48.15,0.65,0.65,0,0,1,.3.21h0.06l0.25-1.68H32.83a0.63,0.63,0,0,1-.35.12,3.49,3.49,0,0,1-.51,0l-0.51,0-0.36,0-2.85-.42-0.27,0-0.29-.08a1.42,1.42,0,0,1-.28-0.13,0.63,0.63,0,0,1-.21-0.2H27.14L26.87,38h0.06a0.38,0.38,0,0,1,.24,0,1.09,1.09,0,0,1,.28.1l0.28,0.17L28,38.47l2.32,1.73-2.72,1-0.29.09L27,41.33a1.09,1.09,0,0,1-.3,0,0.37,0.37,0,0,1-.23-0.1H26.41l-0.27,1.83h0.06a0.67,0.67,0,0,1,.26-0.13,1.43,1.43,0,0,1,.3,0h0.3l0.27,0,2.85,0.42Z" style="fill:#231f20"/><path d="M28.83,31.85a1,1,0,0,1,.27.13,2.12,2.12,0,0,1,.25.2l0.21,0.2,2.25,2.21,0.28,0.28,0.39,0.41q0.2,0.22.37,0.44a1.31,1.31,0,0,1,.21.38l0.05,0,0.55-1.48-0.05,0a0.35,0.35,0,0,1-.24,0,1.19,1.19,0,0,1-.25-0.14,2.11,2.11,0,0,1-.24-0.2l-0.21-.21-0.31-.31,1-2.56,0.44,0,0.29,0h0.31a1.08,1.08,0,0,1,.28.06,0.37,0.37,0,0,1,.19.15l0.05,0,0.59-1.58-0.05,0a1.37,1.37,0,0,1-.4.12L34.47,30,33.91,30l-0.4,0L30,30.34a2.74,2.74,0,0,1-.5,0,0.42,0.42,0,0,1-.3-0.12l-0.05,0-0.61,1.63,0.05,0A0.39,0.39,0,0,1,28.83,31.85Zm3.48-.55-0.66,1.78L30,31.46Z" style="fill:#231f20"/><path d="M31.36,26.11a1.26,1.26,0,0,1,.31,0,1.47,1.47,0,0,1,.28.11l0.24,0.13,2.51,1.41L35,28a4.2,4.2,0,0,1,.42.28,2.88,2.88,0,0,1,.38.34A0.62,0.62,0,0,1,36,29l0,0L37,27.36l0,0a0.63,0.63,0,0,1-.39,0A3,3,0,0,1,36,27.21,4.2,4.2,0,0,1,35.58,27l-0.32-.17-2.51-1.41-0.23-.14a1.49,1.49,0,0,1-.24-0.18,1.26,1.26,0,0,1-.2-0.24,0.67,0.67,0,0,1-.1-0.3l0,0L31,26.15l0,0A0.68,0.68,0,0,1,31.36,26.11Z" style="fill:#231f20"/><path d="M34.34,23.87a1.4,1.4,0,0,0,.74.34,1.3,1.3,0,0,0,.69-0.13,2.48,2.48,0,0,0,.63-0.44A7.29,7.29,0,0,0,37,23l0.54-.65A4.69,4.69,0,0,1,38,21.82a1.29,1.29,0,0,1,.49-0.29,0.5,0.5,0,0,1,.47.12,0.57,0.57,0,0,1,.19.28,0.86,0.86,0,0,1,0,.42,2.2,2.2,0,0,1-.22.59,5,5,0,0,1-.51.76,3.77,3.77,0,0,1-1,.92,1.42,1.42,0,0,1-1,.21l0,0L36.91,26l0.3-.11a2.94,2.94,0,0,0,.52-0.26,5,5,0,0,0,.69-0.52,6.54,6.54,0,0,0,.82-0.88A5.54,5.54,0,0,0,40,23.09a3.11,3.11,0,0,0,.29-1,1.73,1.73,0,0,0-.11-0.82,1.47,1.47,0,0,0-.46-0.61,1.65,1.65,0,0,0-.81-0.38,1.48,1.48,0,0,0-.73.09,2.18,2.18,0,0,0-.67.43,7.12,7.12,0,0,0-.6.62q-0.29.34-.55,0.67a5.78,5.78,0,0,1-.49.56,1.54,1.54,0,0,1-.44.32,0.37,0.37,0,0,1-.4-0.06,0.61,0.61,0,0,1-.2-0.29,0.87,0.87,0,0,1,0-.42,1.93,1.93,0,0,1,.2-0.55A4.16,4.16,0,0,1,35.4,21a4,4,0,0,1,.49-0.51,3.55,3.55,0,0,1,.51-0.38,2.32,2.32,0,0,1,.5-0.23,1.17,1.17,0,0,1,.44-0.06l0,0-0.47-1-0.34.18a5.84,5.84,0,0,0-.55.3,6.31,6.31,0,0,0-.66.48,4.48,4.48,0,0,0-.67.69,5.65,5.65,0,0,0-.61.94,3.2,3.2,0,0,0-.32.95,1.9,1.9,0,0,0,.06.88A1.5,1.5,0,0,0,34.34,23.87Z" style="fill:#231f20"/><path d="M40.13,18.61a3,3,0,0,0,1,.89,2.69,2.69,0,0,0,1.12.34,3.09,3.09,0,0,0,1.19-.15,4.42,4.42,0,0,0,2.11-1.52A3.1,3.1,0,0,0,46,17.08a2.69,2.69,0,0,0,0-1.17,3.29,3.29,0,0,0-1.5-2.07,2.69,2.69,0,0,0-1.12-.34,3.11,3.11,0,0,0-1.19.15,4.42,4.42,0,0,0-2.11,1.52,3.1,3.1,0,0,0-.52,1.08,2.69,2.69,0,0,0,0,1.17A3,3,0,0,0,40.13,18.61Zm0.55-2.27A2,2,0,0,1,41,15.62a2.83,2.83,0,0,1,1.38-1,2,2,0,0,1,.79-0.09,1.83,1.83,0,0,1,.75.24,2.34,2.34,0,0,1,1,1.43A1.83,1.83,0,0,1,45,17a2,2,0,0,1-.34.72,2.84,2.84,0,0,1-1.38,1,2,2,0,0,1-.79.09,1.83,1.83,0,0,1-.75-0.24,2.35,2.35,0,0,1-1-1.43A1.83,1.83,0,0,1,40.68,16.34Z" style="fill:#231f20"/><path d="M47.1,11.13a1.43,1.43,0,0,1,.16.26,2.34,2.34,0,0,1,.11.28l0.08,0.26,0.78,2.78,0.09,0.35q0.06,0.23.11,0.49a3.54,3.54,0,0,1,.06.5,0.65,0.65,0,0,1-.06.36l0,0.05L50,16V16a0.63,0.63,0,0,1-.25-0.27,3.57,3.57,0,0,1-.22-0.46c-0.07-.16-0.12-0.32-0.17-0.48l-0.1-.35L48.52,12l3.63,2.2,0.28,0.17,0.26,0.19a1.3,1.3,0,0,1,.21.23,0.89,0.89,0,0,1,.13.28l0,0.05,1.57-.44V14.67a0.63,0.63,0,0,1-.25-0.27,3.49,3.49,0,0,1-.22-0.46q-0.1-.25-0.17-0.48l-0.1-.35-0.78-2.78L53,10.08a1.92,1.92,0,0,1-.05-0.3,1.43,1.43,0,0,1,0-.31A0.63,0.63,0,0,1,53,9.2V9.14l-1.53.43V9.63a0.68,0.68,0,0,1,.22.19,1.41,1.41,0,0,1,.16.26,2,2,0,0,1,.11.28l0.08,0.26,0.77,2.74-3.35-2-0.29-.18L49,11a1.4,1.4,0,0,1-.23-0.23,0.81,0.81,0,0,1-.14-0.28V10.4l-1.71.48v0.05A0.64,0.64,0,0,1,47.1,11.13Z" style="fill:#231f20"/><path d="M85.15,47.59a0.83,0.83,0,1,0-.86.81A0.83,0.83,0,0,0,85.15,47.59Z" style="fill:#231f20"/><path d="M49.62,22.54a0.06,0.06,0,0,0,0,0c-6.78,4-11.52,13-11.52,23.44,0,14.16,8.73,25.68,19.47,25.68S77,60.17,77,46,68.26,20.33,57.53,20.33a15.49,15.49,0,0,0-7.89,2.21h0ZM41.09,34.59h4.69v2.33H40.29Q40.65,35.73,41.09,34.59Zm-1,2.88h5.65V39.8H39.59Q39.82,38.61,40.14,37.47Zm-0.65,2.88h6.3v2.33H39.17Q39.29,41.5,39.49,40.35Zm-0.37,2.88h6.67v2.33H39Q39,44.38,39.12,43.23Zm0,5.75h8.56a2.89,2.89,0,0,0-.55,2.33H39.43Q39.24,50.16,39.13,49ZM50,48.64a2.12,2.12,0,1,1-2.12,2.12A2.12,2.12,0,0,1,50,48.64Zm-9.81,6.1h7.65a2.9,2.9,0,0,0-1,2.24s0,0.06,0,.09H41Q40.53,55.93,40.19,54.74ZM51.82,57a2.12,2.12,0,1,1-2.12-2.12A2.12,2.12,0,0,1,51.82,57Zm-9.3,3.52h8.62a2.85,2.85,0,0,0,.71,2.33h-7.9A24.86,24.86,0,0,1,42.51,60.49Zm9.38,0.39a2.12,2.12,0,1,1,3,1.94H53.15A2.12,2.12,0,0,1,51.89,60.88Zm5.64,9.87a14.43,14.43,0,0,1-6.62-1.63H64.14A14.43,14.43,0,0,1,57.53,70.76Zm7.6-2.18H49.92a18.09,18.09,0,0,1-3-2.33H68.18A18.1,18.1,0,0,1,65.13,68.58Zm3.61-2.88H46.32a21.75,21.75,0,0,1-2-2.33H52.5a2.91,2.91,0,1,0-1.24-3.43h-9q-0.57-1.12-1.06-2.33h5.7a2.91,2.91,0,1,0,2-3.43H40q-0.3-1.14-.52-2.33h7.79a2.91,2.91,0,1,0,3.87-3.76,2.91,2.91,0,1,0-.65-0.2,2.87,2.87,0,0,0-2.27.54H39.09Q39,47.28,39,46.1h6.79v1.35H47V33.72h3.19v5.81h5.68V33.72h3.19v5.81h5.68V33.72h3.3v11.7a43.35,43.35,0,0,1-10.8-2.3c2,2.54,6.94,3.84,10.8,4.49v6.9c0,0.59-.9,9.37-10.42,10.29H57.48l0,0.27,0.27,0a14.09,14.09,0,0,0,6-1.72h6.93A21.75,21.75,0,0,1,68.74,65.7ZM49.58,45.24a2.12,2.12,0,1,1,2.12,2.12A2.12,2.12,0,0,1,49.58,45.24Zm1.88-7.77h3.19v0.82H51.46V37.47Zm3.19-.55H51.46V34.59h3.19v2.33Zm5.68-2.33h3.19v2.33H60.33V34.59Zm0,2.88h3.19v0.82H60.33V37.47ZM71.11,62.82H64.66a10.57,10.57,0,0,0,2.4-2.33h5.49A24.86,24.86,0,0,1,71.11,62.82Zm1.72-2.88h-5.4a11.71,11.71,0,0,0,1.17-2.33h5.28Q73.41,58.82,72.83,59.94Zm1.27-2.88H68.8a11.41,11.41,0,0,0,.5-2.33h5.57Q74.53,55.93,74.1,57.07ZM75,54.19H69.31V51.86h6.22Q75.32,53,75,54.19Zm0.61-2.88H69.31V49h6.61Q75.82,50.16,75.63,51.31ZM76,48.43H69.31V47.81c2.27,0.33,3.92.42,3.92,0.42l0-2.12h2.78Q76.05,47.28,76,48.43Zm0.08-2.88H73.29V45.48a34.56,34.56,0,0,1-4,0V43.23h6.63Q76,44.38,76.05,45.56Zm-0.16-2.88H69.31V40.35h6.26Q75.77,41.49,75.89,42.68ZM75.47,39.8H69.31V37.47h5.61Q75.23,38.61,75.47,39.8Zm-0.7-2.88H69.31V34.59H74Q74.41,35.73,74.76,36.92Zm-1-2.88H69.31V32.48H63.52V34H60.33V32.48H54.65V34H51.46V32.48H45.78V34H41.31q0.5-1.21,1.1-2.33H72.64Q73.24,32.84,73.74,34Zm-1.4-2.88H42.71a24.49,24.49,0,0,1,1.49-2.33H70.85A24.5,24.5,0,0,1,72.34,31.17Zm-1.9-2.88H44.61A21.32,21.32,0,0,1,46.68,26H68.37A21.32,21.32,0,0,1,70.45,28.29Zm-12.92-7a14.31,14.31,0,0,1,5.85,1.27H51.67A14.31,14.31,0,0,1,57.53,21.27Zm7,1.81a17.59,17.59,0,0,1,3.29,2.33H47.27a17.59,17.59,0,0,1,3.29-2.33H64.49Z" style="fill:#231f20"/><path d="M57.22,50.86a2.91,2.91,0,1,0-2.91-2.91A2.91,2.91,0,0,0,57.22,50.86Zm0-5a2.12,2.12,0,1,1-2.12,2.12A2.12,2.12,0,0,1,57.22,45.83Z" style="fill:#231f20"/><path d="M62.83,55.27a2.91,2.91,0,1,0-2.91-2.91A2.91,2.91,0,0,0,62.83,55.27Zm0-5a2.12,2.12,0,1,1-2.12,2.12A2.12,2.12,0,0,1,62.83,50.24Z" style="fill:#231f20"/><path d="M58.22,53.56a2.91,2.91,0,1,0-2.91,2.91A2.91,2.91,0,0,0,58.22,53.56Zm-2.91,2.12a2.12,2.12,0,1,1,2.12-2.12A2.12,2.12,0,0,1,55.31,55.68Z" style="fill:#231f20"/><path d="M62,58.08A2.91,2.91,0,1,0,59.12,61,2.91,2.91,0,0,0,62,58.08Zm-5,0a2.12,2.12,0,1,1,2.12,2.12A2.12,2.12,0,0,1,57,58.08Z" style="fill:#231f20"/><path d="M38.43,76.63a0.39,0.39,0,0,1,0,.17,0.77,0.77,0,0,1-.07.17l-0.1.15-0.1.12-1.05,1.31L37,78.72l-0.2.22a1.56,1.56,0,0,1-.22.19,0.38,0.38,0,0,1-.2.09l0,0,0.78,0.63,0,0a0.36,0.36,0,0,1,0-.21,2.64,2.64,0,0,1,.14-0.26l0.17-.24L37.62,79l0.27-.34L38.4,79l0.15,0.13,0.14,0.14,0.11,0.14a0.45,0.45,0,0,1,.06.13l0,0,0.73-.29L38.24,78.2l0.52-.65,0.82,0.66,0.26,0.23,0.23,0.23a1.94,1.94,0,0,1,.18.23,0.81,0.81,0,0,1,.11.21l0,0,0.31-.73L38.45,76.6Z" style="fill:#231f20"/><path d="M46.57,81.85a1.8,1.8,0,0,0-.43-0.28l-2.06-1v0a0.39,0.39,0,0,1,0,.17,0.77,0.77,0,0,1,0,.18,1.16,1.16,0,0,1-.06.17L44,81.3l-0.71,1.52L43.15,83,43,83.27a2.11,2.11,0,0,1-.17.24,0.34,0.34,0,0,1-.18.13v0l0.92,0.43v0a0.36,0.36,0,0,1,0-.22,1.72,1.72,0,0,1,.08-0.28c0-.1.07-0.19,0.11-0.27l0.09-.19,0.77-1.64,1.28,0.6a0.73,0.73,0,0,1,.34.29,0.38,0.38,0,0,1,0,.37A0.39,0.39,0,0,1,46,83a0.76,0.76,0,0,1-.44-0.08l-0.45-.21-0.15-.08a0.33,0.33,0,0,1-.11-0.1h0l-0.57.4,0.64,0.3,0.2,1.11,0,0.2a1,1,0,0,0,.09.23,0.94,0.94,0,0,0,.17.23,1,1,0,0,0,.29.19,1.78,1.78,0,0,0,.38.13v0a1.74,1.74,0,0,1-.13-0.3c0-.12-0.07-0.24-0.1-0.36s-0.05-.24-0.07-0.34l0-.24-0.08-.45a1.07,1.07,0,0,0,.73,0A0.94,0.94,0,0,0,46.84,83a1,1,0,0,0,.1-0.43,0.9,0.9,0,0,0-.1-0.4A1.16,1.16,0,0,0,46.57,81.85Z" style="fill:#231f20"/><path d="M55,86.83c0-.11-0.08-0.21-0.11-0.31l-0.07-.22-0.62-2A1.61,1.61,0,0,1,54.16,84a0.25,0.25,0,0,1,0-.18v0l-1-.14v0a0.23,0.23,0,0,1,0,.14,0.6,0.6,0,0,1,0,.17,1.52,1.52,0,0,1-.08.17L53,84.36l-1,1.57-0.13.19-0.18.27-0.2.27a0.77,0.77,0,0,1-.19.17v0L52.26,87v0a0.2,0.2,0,0,1,0-.14,0.74,0.74,0,0,1,0-.16l0.08-.16,0.09-.15,0.14-.22,1.58,0.21,0.08,0.24,0,0.17a1.33,1.33,0,0,1,0,.18,0.73,0.73,0,0,1,0,.17,0.21,0.21,0,0,1-.06.13v0l1,0.13v0a0.77,0.77,0,0,1-.12-0.21C55.1,87,55.06,86.94,55,86.83Zm-2.13-1.2,0.71-1.13L54,85.78Z" style="fill:#231f20"/><path d="M64.61,86.37a1.87,1.87,0,0,1-.1-0.28q0-.15-0.07-0.29l0-.21-0.3-1.66,0-.16a1.25,1.25,0,0,1,0-.18,0.85,0.85,0,0,1,0-.18,0.36,0.36,0,0,1,.07-0.16v0l-0.91.16v0a0.41,0.41,0,0,1,.12.12,0.78,0.78,0,0,1,.08.16,1.28,1.28,0,0,1,0,.17l0,0.16,0.29,1.63L62,84.33l-0.16-.12-0.15-.13a0.89,0.89,0,0,1-.12-0.15,0.47,0.47,0,0,1-.06-0.17v0l-1,.18v0a0.35,0.35,0,0,1,.12.12,0.77,0.77,0,0,1,.08.16,1.26,1.26,0,0,1,0,.17l0,0.16L61,86.21l0,0.21c0,0.09,0,.19,0,0.29a2.07,2.07,0,0,1,0,.29,0.39,0.39,0,0,1-.06.21v0l0.9-.16v0a0.38,0.38,0,0,1-.13-0.17,1.87,1.87,0,0,1-.1-0.28c0-.1-0.05-0.19-0.07-0.29l0-.21-0.26-1.43,2,1.48,0.15,0.12,0.14,0.13a0.74,0.74,0,0,1,.11.14,0.49,0.49,0,0,1,.06.17v0l0.94-.17v0A0.36,0.36,0,0,1,64.61,86.37Z" style="fill:#231f20"/><path d="M72.64,82.1a1.47,1.47,0,0,1-.13.37,1.79,1.79,0,0,1-.22.34,2,2,0,0,1-.29.29,2.16,2.16,0,0,1-.34.23,1.88,1.88,0,0,1-.5.17,1.39,1.39,0,0,1-.49,0,1.12,1.12,0,0,1-.44-0.18,1,1,0,0,1-.33-0.4,1.15,1.15,0,0,1-.13-0.52,1.1,1.1,0,0,1,.1-0.47,1.27,1.27,0,0,1,.28-0.39,1.7,1.7,0,0,1,.41-0.3,1.61,1.61,0,0,1,.34-0.13,1.71,1.71,0,0,1,.36-0.06,1.52,1.52,0,0,1,.36,0,1.3,1.3,0,0,1,.34.1h0l-0.15-.74H71.58l-0.34,0-0.41.09a2.6,2.6,0,0,0-.46.19,2.8,2.8,0,0,0-.67.48,2.07,2.07,0,0,0-.44.61,1.59,1.59,0,0,0,0,1.44,1.56,1.56,0,0,0,1.15.86,2,2,0,0,0,.73,0,2.83,2.83,0,0,0,.75-0.27,2.69,2.69,0,0,0,.53-0.36A1.93,1.93,0,0,0,72.86,83l-0.19-.92Z" style="fill:#231f20"/><path d="M79.21,77.62a1.93,1.93,0,0,1-.22.32l-0.3.35-0.32.32-0.27.25-0.53.46L77,78.64l0.57-.5L77.69,78l0.17-.11L78,77.82l0.14,0,0,0L78,77l-1.41,1.24-0.55-.62L76.79,77l0.27-.23,0.27-.19,0.26-.14a0.7,0.7,0,0,1,.22-0.06l0,0-0.67-.43-2.09,1.83,0,0a0.43,0.43,0,0,1,.16,0l0.15,0.1L75.55,78l0.11,0.12,1.11,1.27,0.14,0.16,0.18,0.23a1.81,1.81,0,0,1,.15.25,0.39,0.39,0,0,1,.06.21l0,0,2.09-1.83-0.17-.85Z" style="fill:#231f20"/><path d="M86.65,61.12a1.2,1.2,0,0,1,0-.2,0.88,0.88,0,0,0,0-.56,2.2,2.2,0,0,0-.3-0.51,0.68,0.68,0,0,0,0-.32A1.14,1.14,0,0,0,86,58.76a3.89,3.89,0,0,0-.7-0.29,0.88,0.88,0,0,0,.42-0.27,0.23,0.23,0,0,0,0-.23l0-.07c-0.06-.09-0.28-0.51-0.37-0.7L85.24,57a1.43,1.43,0,0,0-2-.59,4.41,4.41,0,0,1,.63-0.82A0.21,0.21,0,0,0,84,55.37a0.23,0.23,0,0,0-.21-0.2h0L83,55a2.46,2.46,0,0,0-2.88,1.52,1.47,1.47,0,0,0,.32,1.23H80.34l-0.08,0-0.4.16a1.87,1.87,0,0,0-1.45,1.33,0.94,0.94,0,0,0,.16.63,0.46,0.46,0,0,1,.1.32,1.09,1.09,0,0,1-.13.3,0.91,0.91,0,0,0-.13.78,1.2,1.2,0,0,0,0,.13,0.31,0.31,0,0,0-.14.14c-0.4.86-.83,1.69-1.28,2.48l-0.21,0a1.74,1.74,0,0,0-1.61,1.84s0,0.06,0,.09a1.39,1.39,0,0,0-.36,0,1.74,1.74,0,0,0-1.61,1.84,2,2,0,0,0,.33,1.12L73.68,69a1.9,1.9,0,0,0-.58,1.09,32.28,32.28,0,0,1-3,2.77l0,0a1.52,1.52,0,0,0-1.71.06A4.85,4.85,0,0,1,69,72a0.23,0.23,0,0,0,.15-0.26A0.26,0.26,0,0,0,69,71.56h0L68,71.46a2.71,2.71,0,0,0-3,1.87,1.61,1.61,0,0,0,.44,1.33H65.37l-0.08,0-0.43.21a2.26,2.26,0,0,0-1.44,1.29h0l-0.82.26a2.06,2.06,0,0,0,.19-0.86,1.74,1.74,0,0,0-1.61-1.84,1.55,1.55,0,0,0-1.31.77,1.48,1.48,0,0,0-2.44.07,1.48,1.48,0,0,0-1-.42,1.5,1.5,0,0,0-1.12.53,1.07,1.07,0,0,0-.75-0.34,1.74,1.74,0,0,0-1.61,1.84,2.08,2.08,0,0,0,.05.45c-0.47-.11-0.93-0.22-1.39-0.36a2.17,2.17,0,0,0-1.47-1.39l-0.43-.21-0.08,0H49.5a1.61,1.61,0,0,0,.44-1.33,2.71,2.71,0,0,0-3-1.87l-0.9.09h0a0.26,0.26,0,0,0-.24.21,0.23,0.23,0,0,0,.15.26,4.85,4.85,0,0,1,.63.94,1.52,1.52,0,0,0-1.72-.05l0,0a32.24,32.24,0,0,1-3-2.77A1.9,1.9,0,0,0,41.23,69l0.08-.12a2,2,0,0,0,.33-1.12A1.74,1.74,0,0,0,40,65.94a1.39,1.39,0,0,0-.36,0s0-.06,0-0.09a1.74,1.74,0,0,0-1.61-1.84l-0.21,0c-0.45-.79-0.88-1.62-1.28-2.48a0.31,0.31,0,0,0-.14-0.14,1.2,1.2,0,0,0,0-.13,0.91,0.91,0,0,0-.13-0.78,1.09,1.09,0,0,1-.13-0.3,0.46,0.46,0,0,1,.1-0.32,0.94,0.94,0,0,0,.16-0.63A1.87,1.87,0,0,0,35.05,58l-0.4-.16-0.08,0H34.51a1.47,1.47,0,0,0,.32-1.23A2.46,2.46,0,0,0,32,55l-0.81.14h0a0.23,0.23,0,0,0-.21.2,0.21,0.21,0,0,0,.15.23,4.41,4.41,0,0,1,.63.82,1.43,1.43,0,0,0-2,.59l-0.11.2c-0.1.18-.31,0.61-0.37,0.7l0,0.07a0.23,0.23,0,0,0,0,.23,0.88,0.88,0,0,0,.42.27,3.89,3.89,0,0,0-.7.29,1.14,1.14,0,0,0-.47.76,0.68,0.68,0,0,0,0,.32,2.2,2.2,0,0,0-.3.51,0.88,0.88,0,0,0,0,.56,1.2,1.2,0,0,1,0,.2,1.6,1.6,0,0,1-.09.54,1.61,1.61,0,0,0-.05,1h0a0.22,0.22,0,0,0,.29.14,0.24,0.24,0,0,0,.11-0.08,4,4,0,0,1,.56-0.21,0.28,0.28,0,0,1,.15.1,0.55,0.55,0,0,0,.7.08,0.71,0.71,0,0,0,.17-0.14,0.38,0.38,0,0,0,.07.14,0.83,0.83,0,0,0,.86.3,2,2,0,0,0,.36-0.09A0.88,0.88,0,0,0,32,62.28a1.37,1.37,0,0,0,.06-0.21,0.44,0.44,0,0,1,.36-0.38h0a0.12,0.12,0,0,1,0,.08,1.64,1.64,0,0,1-.11.45l0,0.1c0,0.1-.06.21-0.08,0.33a1.73,1.73,0,0,1-.16.51,0.23,0.23,0,0,0,0,.29,0.22,0.22,0,0,0,.29,0,0.93,0.93,0,0,1,.41-0.15h0a0.42,0.42,0,0,1,.2,0,0.75,0.75,0,0,0,.31.05h0a3.93,3.93,0,0,0,1.43-1.81,1.35,1.35,0,0,1,.1.34c0,0.05,0,.1,0,0.16a1.49,1.49,0,0,0,0,.29,0.22,0.22,0,0,0,.13.15,0.21,0.21,0,0,0,.2,0A3.63,3.63,0,0,0,36.08,62c0.37,0.8.77,1.57,1.19,2.31a1.69,1.69,0,0,0-.44.43,1.48,1.48,0,0,0-1-.42,1.5,1.5,0,0,0-1.12.53,1.07,1.07,0,0,0-.75-0.34,1.74,1.74,0,0,0-1.61,1.84A1.89,1.89,0,0,0,33.22,68l0.31,0.15a2,2,0,0,0-.62,1.44,1.75,1.75,0,0,0,1.53,1.84A1.88,1.88,0,0,0,35.32,73a2,2,0,0,0-.46,1.28,1.62,1.62,0,1,0,3.21,0c0-.06,0-0.12,0-0.18a1.42,1.42,0,0,0,.59.13,1.74,1.74,0,0,0,1.61-1.84s0-.06,0-0.09A1.71,1.71,0,0,0,41.75,71a32.57,32.57,0,0,0,2.59,2.38l-0.09.13-0.13.21c-0.12.19-.39,0.64-0.46,0.74l-0.05.07a0.25,0.25,0,0,0,0,.25,1,1,0,0,0,.44.33,4.28,4.28,0,0,0-.79.27,1.25,1.25,0,0,0-.57.8,0.74,0.74,0,0,0,0,.36,2.42,2.42,0,0,0-.37.54,1,1,0,0,0,0,.62,1.32,1.32,0,0,1,0,.22,1.76,1.76,0,0,1-.13.58,1.77,1.77,0,0,0-.13,1.05h0a0.24,0.24,0,0,0,.31.18,0.26,0.26,0,0,0,.12-0.08,4.35,4.35,0,0,1,.63-0.19,0.31,0.31,0,0,1,.16.12,0.6,0.6,0,0,0,.76.13,0.78,0.78,0,0,0,.19-0.14,0.41,0.41,0,0,0,.06.16,0.92,0.92,0,0,0,.93.39A2.22,2.22,0,0,0,45.71,80a1,1,0,0,0,.74-0.58,1.51,1.51,0,0,0,.09-0.23A0.48,0.48,0,0,1,47,78.8h0a0.13,0.13,0,0,1,0,.09,1.8,1.8,0,0,1-.15.48l0,0.11c0,0.1-.08.22-0.12,0.35a1.9,1.9,0,0,1-.21.54,0.25,0.25,0,0,0,0,.32,0.25,0.25,0,0,0,.32,0,1,1,0,0,1,.46-0.13h0a0.47,0.47,0,0,1,.22.05,0.83,0.83,0,0,0,.33.08h0c0.47,0,1.37-1.24,1.71-1.88a1.49,1.49,0,0,1,.08.38c0,0.06,0,.12,0,0.17a1.64,1.64,0,0,0,0,.32,0.25,0.25,0,0,0,.13.17,0.24,0.24,0,0,0,.22,0,2.18,2.18,0,0,0,1.4-1.22,1,1,0,0,0-.08-0.86,1.2,1.2,0,0,1-.12-0.34,0.51,0.51,0,0,1,.14-0.34,2.32,2.32,0,0,0,.13-0.22c0.58,0.17,1.17.32,1.77,0.44a1.65,1.65,0,0,0,.52.48L54.08,78a2,2,0,0,0-.62,1.44A1.75,1.75,0,0,0,55,81.29a1.88,1.88,0,0,0,.88,1.59,2,2,0,0,0-.46,1.28,1.62,1.62,0,1,0,3.21,0c0-.06,0-0.12,0-0.18a1.42,1.42,0,0,0,.59.13,1.74,1.74,0,0,0,1.61-1.84,2.12,2.12,0,0,0,0-.22,2,2,0,0,0,1.07-3,2,2,0,0,0,.28-1A2.06,2.06,0,0,0,62,77.27c0.47-.12.94-0.26,1.41-0.42a1.78,1.78,0,0,0,.16.3,0.51,0.51,0,0,1,.14.34,1.2,1.2,0,0,1-.12.34,1,1,0,0,0-.08.86,2.18,2.18,0,0,0,1.4,1.22,0.24,0.24,0,0,0,.22,0,0.25,0.25,0,0,0,.13-0.17,1.64,1.64,0,0,0,0-.32c0-.06,0-0.12,0-0.17a1.49,1.49,0,0,1,.08-0.38c0.34,0.65,1.24,1.85,1.71,1.88h0a0.83,0.83,0,0,0,.33-0.08,0.47,0.47,0,0,1,.22-0.05h0a1,1,0,0,1,.46.13,0.25,0.25,0,0,0,.32,0,0.25,0.25,0,0,0,0-.32,1.9,1.9,0,0,1-.21-0.54c0-.13-0.07-0.25-0.12-0.35l0-.11a1.8,1.8,0,0,1-.15-0.48,0.13,0.13,0,0,1,0-.09h0a0.48,0.48,0,0,1,.43.39,1.51,1.51,0,0,0,.09.23,1,1,0,0,0,.74.58,2.22,2.22,0,0,0,.41.08,0.92,0.92,0,0,0,.93-0.39,0.41,0.41,0,0,0,.06-0.16,0.78,0.78,0,0,0,.19.14,0.6,0.6,0,0,0,.76-0.13,0.31,0.31,0,0,1,.16-0.12,4.35,4.35,0,0,1,.63.19,0.26,0.26,0,0,0,.12.08,0.24,0.24,0,0,0,.31-0.18h0a1.77,1.77,0,0,0-.13-1.05,1.76,1.76,0,0,1-.13-0.58,1.32,1.32,0,0,1,0-.22,1,1,0,0,0,0-.62,2.42,2.42,0,0,0-.37-0.54,0.74,0.74,0,0,0,0-.36,1.25,1.25,0,0,0-.57-0.8,4.28,4.28,0,0,0-.79-0.27,1,1,0,0,0,.44-0.33,0.25,0.25,0,0,0,0-.25l-0.05-.07c-0.07-.09-0.34-0.54-0.46-0.74l-0.13-.21-0.1-.14A32.74,32.74,0,0,0,73.16,71a1.71,1.71,0,0,0,1.49,1.35s0,0.06,0,.09a1.74,1.74,0,0,0,1.61,1.84,1.42,1.42,0,0,0,.59-0.13c0,0.06,0,.12,0,0.18a1.62,1.62,0,1,0,3.21,0A2,2,0,0,0,79.59,73a1.88,1.88,0,0,0,.88-1.59A1.75,1.75,0,0,0,82,69.58a2,2,0,0,0-.62-1.44L81.69,68a1.89,1.89,0,0,0,.89-1.65A1.74,1.74,0,0,0,81,64.5a1.07,1.07,0,0,0-.75.34,1.5,1.5,0,0,0-1.12-.53,1.48,1.48,0,0,0-1,.42,1.69,1.69,0,0,0-.44-0.43c0.42-.74.82-1.51,1.19-2.31a3.63,3.63,0,0,0,.79.51,0.21,0.21,0,0,0,.2,0,0.22,0.22,0,0,0,.13-0.15,1.5,1.5,0,0,0,0-.29c0-.05,0-0.11,0-0.16a1.35,1.35,0,0,1,.1-0.34,3.93,3.93,0,0,0,1.43,1.81h0a0.75,0.75,0,0,0,.31-0.05,0.42,0.42,0,0,1,.2,0h0a0.93,0.93,0,0,1,.41.15,0.22,0.22,0,0,0,.29,0,0.23,0.23,0,0,0,0-.29,1.73,1.73,0,0,1-.16-0.51c0-.12-0.05-0.23-0.08-0.33l0-.1a1.64,1.64,0,0,1-.11-0.45,0.12,0.12,0,0,1,0-.08h0a0.44,0.44,0,0,1,.36.38,1.37,1.37,0,0,0,.06.21,0.88,0.88,0,0,0,.64.57,2,2,0,0,0,.36.09,0.83,0.83,0,0,0,.86-0.3,0.38,0.38,0,0,0,.07-0.14,0.71,0.71,0,0,0,.17.14,0.55,0.55,0,0,0,.7-0.08,0.28,0.28,0,0,1,.15-0.1,4,4,0,0,1,.56.21,0.24,0.24,0,0,0,.11.08,0.22,0.22,0,0,0,.29-0.14h0a1.61,1.61,0,0,0-.05-1A1.6,1.6,0,0,1,86.65,61.12Zm-50.6.09a1.26,1.26,0,0,1-.69.74,1,1,0,0,0,0-.12A0.92,0.92,0,0,0,34.76,61h0a0.23,0.23,0,0,0-.3.11,0.22,0.22,0,0,0,0,.16,5.25,5.25,0,0,1-1.15,1.68l-0.12,0a0.84,0.84,0,0,0-.44,0H32.68l0-.13c0-.1,0-0.2.07-0.29l0-.09a1.44,1.44,0,0,0,.13-0.68,0.49,0.49,0,0,0-.57-0.44,1,1,0,0,0-.55.33,0.9,0.9,0,0,0-.18.39,0.94,0.94,0,0,1,0,.14,0.45,0.45,0,0,1-.37.31,1.35,1.35,0,0,1-.28.07,0.34,0.34,0,0,1-.43-0.15A0.37,0.37,0,0,0,30.17,62H30.1a0.6,0.6,0,0,0-.33.22l-0.05.05-0.12,0-0.06-.05A0.74,0.74,0,0,0,29.17,62H29a3.68,3.68,0,0,0-.52.16,2.32,2.32,0,0,1,.09-0.41,1.92,1.92,0,0,0,.1-0.7,1.27,1.27,0,0,0-.07-0.29,0.45,0.45,0,0,1,0-.29,2.38,2.38,0,0,1,.22-0.36,0.21,0.21,0,0,0,.11-0.06,0.23,0.23,0,0,0,0-.32,0.23,0.23,0,0,1-.07-0.19,0.72,0.72,0,0,1,.29-0.44,7,7,0,0,1,1.11-.38,0.22,0.22,0,0,0,.2-0.06,0.23,0.23,0,0,0,0-.32h0a1.17,1.17,0,0,0-.56-0.27L29.66,58,30,57.42l0.1-.18a1,1,0,0,1,1.75-.16,0.22,0.22,0,0,0,.28,0L32.26,57a0.3,0.3,0,0,0,.11-0.26,4.45,4.45,0,0,0-.72-1.18L32,55.48a2,2,0,0,1,2.37,1.19,1.42,1.42,0,0,1-.62,1.22H33.67l0-.08a3.46,3.46,0,0,0-.27-1.25A1.36,1.36,0,0,0,32.84,56a0.17,0.17,0,0,0-.11.17s0.95,1,.2,1.85L32.74,58a4.67,4.67,0,0,0-1.7-.52H31a0.23,0.23,0,0,0-.16.22c0,0.1,1.53.15,1.75,0.73a3,3,0,0,0-.83.48,2.08,2.08,0,0,0-1.84.48l0.32-.07a1.27,1.27,0,0,1,.9-0.19l0.08,0.09-0.08.07A2.88,2.88,0,0,0,30,61.11a2.39,2.39,0,0,1,.78-0.88,1.43,1.43,0,0,1,.8-0.65,7.54,7.54,0,0,1,.23,1.19A1,1,0,0,0,32,60.31a2.85,2.85,0,0,1,0-.86,1.75,1.75,0,0,1,1-.58c1,0.4.33,2,.42,2.11a0.23,0.23,0,0,0,.19.11,2.51,2.51,0,0,0,.08-1.94L33.61,59c0.41-.38,1,0.65,1.06.61s0.33,0.06.32,0a3.49,3.49,0,0,0-1-1.09,2.17,2.17,0,0,1,.22-0.2,0.31,0.31,0,0,0,.29,0l0.36,0.14a1.47,1.47,0,0,1,1.16,1,0.53,0.53,0,0,1-.11.33,0.87,0.87,0,0,0-.15.64,1.46,1.46,0,0,0,.18.42A0.48,0.48,0,0,1,36.05,61.21ZM37,68.73a0.82,0.82,0,1,1-.8-1A0.89,0.89,0,0,1,37,68.73Zm-4-2.33a0.89,0.89,0,0,1,.8-1,0.72,0.72,0,0,1,.47.18,2.09,2.09,0,0,0-.07.55,2.51,2.51,0,0,0,.22.86,0.76,0.76,0,0,1-.61.34A0.89,0.89,0,0,1,33,66.39Zm2.07,3.51a1.81,1.81,0,0,0-.47.65,0.68,0.68,0,0,1-.22,0,1,1,0,0,1,0-1.92,0.69,0.69,0,0,1,.33.09,2,2,0,0,0,.39,1.12Zm-0.2-3.7a0.82,0.82,0,1,1,.8,1A0.89,0.89,0,0,1,34.88,66.21Zm0.24,5.22a0.89,0.89,0,0,1,.8-1H36l0.15,0a0.94,0.94,0,0,1,.6.92A0.82,0.82,0,1,1,35.12,71.43Zm1.23,3.88a1,1,0,1,1,.8-1A0.89,0.89,0,0,1,36.34,75.31Zm3.57-8.44a0.89,0.89,0,0,1,.8,1,1,1,0,0,1-.35.79H40.23a1.38,1.38,0,0,0-.54.1l0,0-0.07,0a1.89,1.89,0,0,0-.4-0.75l-0.08-.08s0,0,0-.06A0.89,0.89,0,0,1,39.91,66.87Zm-2.63-1.46A0.78,0.78,0,0,1,37.95,65a1,1,0,0,1,0,1.92,0.74,0.74,0,0,1-.57-0.29,2.85,2.85,0,0,0,0-.46A2.06,2.06,0,0,0,37.28,65.41Zm0.46,2.28,0,0,0-.06Zm-0.36,2.36a2,2,0,0,0,.55-1.38,2.1,2.1,0,0,0,0-.34,1.42,1.42,0,0,1,.29.08,1,1,0,0,1,.53.9,0.89,0.89,0,0,1-.8,1A1,1,0,0,1,37.38,70.06Zm1.14,3.35a1,1,0,1,1,.8-1A0.89,0.89,0,0,1,38.53,73.41Zm1.57-1.94H40a1.71,1.71,0,0,0-.72-0.74,1.13,1.13,0,0,1,0-.22s0-.06,0-0.09a1.94,1.94,0,0,0,.3-0.66,0.72,0.72,0,0,1,.5-0.22A1,1,0,0,1,40.1,71.47Zm10.83,5.42a1,1,0,0,0-.21.69,1.61,1.61,0,0,0,.16.48,0.52,0.52,0,0,1,.06.49,1.39,1.39,0,0,1-.81.76,1.08,1.08,0,0,0,0-.13,1,1,0,0,0-.58-1h0a0.26,0.26,0,0,0-.34.1,0.24,0.24,0,0,0,0,.18,5.78,5.78,0,0,1-1.38,1.76l-0.13,0a0.92,0.92,0,0,0-.48-0.08H47.12l0-.14c0-.11.06-0.22,0.1-0.31l0-.1a1.59,1.59,0,0,0,.19-0.74,0.54,0.54,0,0,0-.59-0.53,1,1,0,0,0-.62.32,1,1,0,0,0-.22.42,1,1,0,0,1-.05.16,0.49,0.49,0,0,1-.43.32,1.49,1.49,0,0,1-.31.06,0.37,0.37,0,0,1-.46-0.2A0.41,0.41,0,0,0,44.43,79H44.35a0.66,0.66,0,0,0-.38.22l-0.06.06-0.13,0-0.06-.06a0.81,0.81,0,0,0-.39-0.26H43.19a4,4,0,0,0-.58.13,2.55,2.55,0,0,1,.13-0.45,2.12,2.12,0,0,0,.16-0.76,1.39,1.39,0,0,0-.05-0.33,0.5,0.5,0,0,1,0-.32,2.62,2.62,0,0,1,.27-0.38,0.24,0.24,0,0,0,.12-0.05,0.25,0.25,0,0,0,0-.35,0.26,0.26,0,0,1-.06-0.21,0.79,0.79,0,0,1,.35-0.46,7.7,7.7,0,0,1,1.25-.34A0.24,0.24,0,0,0,45,75.37,0.26,0.26,0,0,0,45,75h0a1.29,1.29,0,0,0-.59-0.34,1.79,1.79,0,0,1-.28-0.11l0.38-.62,0.12-.2a1.13,1.13,0,0,1,1.93-.05,0.25,0.25,0,0,0,.31.05l0.19-.11a0.32,0.32,0,0,0,.14-0.28A4.9,4.9,0,0,0,46.52,72l0.42,0a2.21,2.21,0,0,1,2.52,1.48,1.56,1.56,0,0,1-.77,1.29H48.56V74.63a3.8,3.8,0,0,0-.2-1.39,1.5,1.5,0,0,0-.55-0.62,0.19,0.19,0,0,0-.14.18s1,1.19.09,2l-0.2-.1a5.14,5.14,0,0,0-1.83-.69H45.65a0.25,0.25,0,0,0-.19.23c0,0.11,1.66.27,1.87,0.93a3.3,3.3,0,0,0-.94.47c-0.1-.09-1.61-0.25-2.06.39L44.68,76a1.4,1.4,0,0,1,1-.14L45.75,76l-0.09.07c-0.55.41-1.43,1.32-1.37,1.92a2.62,2.62,0,0,1,.91-0.91,1.58,1.58,0,0,1,.92-0.65,8.29,8.29,0,0,1,.17,1.32,1.07,1.07,0,0,0,.31-0.48,3.14,3.14,0,0,1,0-.95,1.92,1.92,0,0,1,1.15-.56c1,0.51.22,2.18,0.31,2.34a0.25,0.25,0,0,0,.2.13,2.76,2.76,0,0,0,.23-2.13l-0.1-.18c0.47-.39,1,0.78,1.12.74s0.36,0.09.35,0a3.84,3.84,0,0,0-1-1.27,2.39,2.39,0,0,1,.26-0.2,0.35,0.35,0,0,0,.32,0l0.38,0.18a1.61,1.61,0,0,1,1.21,1.17A0.58,0.58,0,0,1,50.93,76.89Zm9.48,0.24a0.89,0.89,0,0,1,.8,1,1.12,1.12,0,0,1-.07.38,1.42,1.42,0,0,0-.55-0.12,1.39,1.39,0,0,0-.51.1,1.87,1.87,0,0,0-.35-0.61l-0.07-.07A0.83,0.83,0,0,1,60.42,77.12ZM57.55,78.6a0.82,0.82,0,1,1-.8-1A0.89,0.89,0,0,1,57.55,78.6Zm-4-2.33a0.89,0.89,0,0,1,.8-1,0.72,0.72,0,0,1,.47.18,2.09,2.09,0,0,0-.07.55,2.51,2.51,0,0,0,.22.86,0.76,0.76,0,0,1-.61.34A0.89,0.89,0,0,1,53.55,76.27Zm2.07,3.51a1.81,1.81,0,0,0-.47.65,0.68,0.68,0,0,1-.22,0,1,1,0,0,1,0-1.92,0.69,0.69,0,0,1,.33.09,2,2,0,0,0,.39,1.12Zm-0.2-3.7a0.82,0.82,0,1,1,.8,1A0.89,0.89,0,0,1,55.42,76.08Zm0.24,5.22a0.89,0.89,0,0,1,.8-1h0.06l0.15,0a0.94,0.94,0,0,1,.6.92A0.82,0.82,0,1,1,55.66,81.3Zm1.23,3.88a1,1,0,1,1,.8-1A0.89,0.89,0,0,1,56.89,85.18Zm0.94-9.9a0.78,0.78,0,0,1,.67-0.43,1,1,0,0,1,0,1.92,0.74,0.74,0,0,1-.57-0.29A2.85,2.85,0,0,0,58,76,2.06,2.06,0,0,0,57.83,75.28Zm0.46,2.28,0,0,0-.06Zm-0.36,2.36a2,2,0,0,0,.55-1.38,2.1,2.1,0,0,0,0-.34,1.42,1.42,0,0,1,.29.08,1,1,0,0,1,.53.9,0.89,0.89,0,0,1-.8,1A1,1,0,0,1,57.93,79.93Zm1.14,3.35a1,1,0,1,1,.8-1A0.89,0.89,0,0,1,59.07,83.29Zm1.43-2.09a1.64,1.64,0,0,0-.8-0.67v0a1.94,1.94,0,0,0,.5-1.14,0.69,0.69,0,0,1,.28-0.06A1,1,0,0,1,60.51,81.2Zm0.9-4.72a1.45,1.45,0,0,0-.86-0.29l-0.21,0a1,1,0,0,1-.11-0.29s0-.1,0-0.15a2.11,2.11,0,0,0,0-.3A0.86,0.86,0,0,1,61,74.7a0.89,0.89,0,0,1,.8,1A1,1,0,0,1,61.41,76.48Zm9.37-1.92a1.79,1.79,0,0,1-.28.11,1.29,1.29,0,0,0-.59.34h0a0.26,0.26,0,0,0,0,.36,0.24,0.24,0,0,0,.22.05,7.7,7.7,0,0,1,1.25.34,0.79,0.79,0,0,1,.35.46,0.26,0.26,0,0,1-.06.21,0.25,0.25,0,0,0,0,.35,0.24,0.24,0,0,0,.12.05,2.62,2.62,0,0,1,.27.38,0.5,0.5,0,0,1,0,.32,1.39,1.39,0,0,0-.05.33,2.12,2.12,0,0,0,.16.76,2.55,2.55,0,0,1,.13.45,4,4,0,0,0-.58-0.13H71.61a0.81,0.81,0,0,0-.39.26l-0.06.06-0.13,0L71,79.17A0.66,0.66,0,0,0,70.58,79H70.51a0.41,0.41,0,0,0-.37.43,0.37,0.37,0,0,1-.46.2,1.49,1.49,0,0,1-.31-0.06,0.49,0.49,0,0,1-.43-0.32A1,1,0,0,1,68.88,79a1,1,0,0,0-.22-0.42A1,1,0,0,0,68,78.3a0.54,0.54,0,0,0-.59.53,1.59,1.59,0,0,0,.19.74l0,0.1c0,0.09.07,0.2,0.1,0.31l0,0.14H67.74a0.92,0.92,0,0,0-.48.08l-0.13,0a5.78,5.78,0,0,1-1.38-1.76,0.24,0.24,0,0,0,0-.18,0.26,0.26,0,0,0-.34-0.1h0a1,1,0,0,0-.58,1,1.07,1.07,0,0,0,0,.13A1.39,1.39,0,0,1,64,78.55,0.52,0.52,0,0,1,64,78.06a1.61,1.61,0,0,0,.16-0.48A1,1,0,0,0,64,76.89a0.58,0.58,0,0,1-.14-0.36,1.61,1.61,0,0,1,1.21-1.17l0.38-.18a0.35,0.35,0,0,0,.32,0,2.39,2.39,0,0,1,.26.2,3.84,3.84,0,0,0-1,1.27c0,0.11.25,0,.35,0s0.64-1.13,1.12-.74l-0.1.18a2.76,2.76,0,0,0,.23,2.13,0.25,0.25,0,0,0,.2-0.13c0.09-.17-0.72-1.84.31-2.34a1.92,1.92,0,0,1,1.15.56,3.14,3.14,0,0,1,0,.95,1.07,1.07,0,0,0,.31.48,8.29,8.29,0,0,1,.17-1.32,1.58,1.58,0,0,1,.92.65,2.62,2.62,0,0,1,.91.91c0.05-.6-0.82-1.51-1.37-1.92L69.18,76l0.08-.1a1.4,1.4,0,0,1,1,.14l0.35,0.05c-0.44-.64-2-0.48-2.06-0.39a3.3,3.3,0,0,0-.94-0.47c0.2-.66,1.87-0.82,1.87-0.93a0.25,0.25,0,0,0-.19-0.23H69.22a5.14,5.14,0,0,0-1.83.69l-0.2.1c-0.88-.85.09-2,0.09-2a0.19,0.19,0,0,0-.14-0.18,1.5,1.5,0,0,0-.55.62,3.8,3.8,0,0,0-.2,1.39v0.09H66.25a1.56,1.56,0,0,1-.77-1.29A2.21,2.21,0,0,1,68,72l0.42,0a4.9,4.9,0,0,0-.71,1.35,0.32,0.32,0,0,0,.14.28L68,73.74a0.25,0.25,0,0,0,.31-0.05,1.13,1.13,0,0,1,1.93.05l0.12,0.2ZM79,72.39a0.89,0.89,0,0,1-.8-1,0.94,0.94,0,0,1,.6-0.92l0.15,0H79A1,1,0,0,1,79,72.39Zm1.64-6.77a0.72,0.72,0,0,1,.47-0.18,1,1,0,0,1,0,1.92A0.76,0.76,0,0,1,80.49,67a2.51,2.51,0,0,0,.22-0.86A2.09,2.09,0,0,0,80.63,65.61Zm-0.45,3.15a0.69,0.69,0,0,1,.33-0.09,1,1,0,0,1,0,1.92,0.68,0.68,0,0,1-.22,0,1.81,1.81,0,0,0-.47-0.65l0,0A2,2,0,0,0,80.19,68.76Zm-1-3.51a1,1,0,1,1-.8,1A0.89,0.89,0,0,1,79.23,65.25Zm-0.51,2.52a1,1,0,1,1-.8,1A0.89,0.89,0,0,1,78.71,67.76Zm-0.14,5.62a1,1,0,1,1-.8,1A0.89,0.89,0,0,1,78.57,73.39ZM75,66.87a0.89,0.89,0,0,1,.8,1s0,0,0,.06L75.72,68a1.89,1.89,0,0,0-.4.75l-0.07,0,0,0a1.38,1.38,0,0,0-.54-0.1H74.55a1,1,0,0,1-.35-0.79A0.89,0.89,0,0,1,75,66.87Zm-0.13,4.59H74.81a1,1,0,0,1,0-1.92,0.72,0.72,0,0,1,.5.22,1.94,1.94,0,0,0,.3.66s0,0.06,0,.09a1.13,1.13,0,0,1,0,.22A1.71,1.71,0,0,0,74.87,71.46Zm1.51,2a1,1,0,1,1,.8-1A0.89,0.89,0,0,1,76.38,73.41ZM77,70.28a0.89,0.89,0,0,1-.8-1,1,1,0,0,1,.53-0.9A1.42,1.42,0,0,1,77,68.34a2.1,2.1,0,0,0,0,.34,2,2,0,0,0,.55,1.38A1,1,0,0,1,77,70.28Zm0.18-2.58,0.07,0,0,0.06Zm0.36-1.07a0.74,0.74,0,0,1-.57.29A1,1,0,0,1,77,65a0.78,0.78,0,0,1,.67.43,2.06,2.06,0,0,0-.14.75A2.85,2.85,0,0,0,77.54,66.62ZM85.87,62H85.74a0.74,0.74,0,0,0-.37.21l-0.06.05-0.12,0-0.05-.05A0.6,0.6,0,0,0,84.81,62H84.75a0.37,0.37,0,0,0-.36.37,0.34,0.34,0,0,1-.43.15,1.35,1.35,0,0,1-.28-0.07,0.45,0.45,0,0,1-.37-0.31,0.94,0.94,0,0,1,0-.14,0.9,0.9,0,0,0-.18-0.39,1,1,0,0,0-.55-0.33,0.49,0.49,0,0,0-.57.44,1.44,1.44,0,0,0,.13.68l0,0.09c0,0.09,0,.18.07,0.29l0,0.13H82.17a0.84,0.84,0,0,0-.44,0l-0.12,0a5.25,5.25,0,0,1-1.15-1.68,0.22,0.22,0,0,0,0-.16,0.23,0.23,0,0,0-.3-0.11h0a0.92,0.92,0,0,0-.59.84,1,1,0,0,0,0,.12,1.26,1.26,0,0,1-.69-0.74,0.48,0.48,0,0,1,.08-0.44,1.46,1.46,0,0,0,.18-0.42A0.87,0.87,0,0,0,79,59.71a0.53,0.53,0,0,1-.11-0.33,1.47,1.47,0,0,1,1.16-1l0.36-.14a0.31,0.31,0,0,0,.29,0,2.17,2.17,0,0,1,.22.2,3.49,3.49,0,0,0-1,1.09c0,0.1.22,0,.32,0s0.65-1,1.06-.61l-0.1.16a2.51,2.51,0,0,0,.08,1.94A0.23,0.23,0,0,0,81.47,61c0.09-.15-0.55-1.71.42-2.11a1.75,1.75,0,0,1,1,.58,2.85,2.85,0,0,1,0,.86,1,1,0,0,0,.26.46,7.54,7.54,0,0,1,.23-1.19,1.43,1.43,0,0,1,.8.65,2.39,2.39,0,0,1,.78.88,2.88,2.88,0,0,0-1.13-1.82l-0.08-.07,0.08-.09a1.27,1.27,0,0,1,.9.19L85,59.38a2.08,2.08,0,0,0-1.84-.48,3,3,0,0,0-.83-0.48c0.22-.58,1.75-0.63,1.75-0.73a0.23,0.23,0,0,0-.16-0.22H83.87a4.67,4.67,0,0,0-1.7.52L82,58.05c-0.75-.83.2-1.85,0.2-1.85A0.17,0.17,0,0,0,82.07,56a1.36,1.36,0,0,0-.54.53,3.46,3.46,0,0,0-.27,1.25l0,0.08H81.14a1.42,1.42,0,0,1-.62-1.22,2,2,0,0,1,2.37-1.19l0.38,0.06a4.45,4.45,0,0,0-.72,1.18,0.3,0.3,0,0,0,.11.26l0.16,0.11a0.22,0.22,0,0,0,.28,0,1,1,0,0,1,1.75.16l0.1,0.18L85.25,58,85,58.09a1.17,1.17,0,0,0-.56.27h0a0.23,0.23,0,0,0,0,.32,0.22,0.22,0,0,0,.2.06,7,7,0,0,1,1.11.38,0.72,0.72,0,0,1,.29.44,0.23,0.23,0,0,1-.07.19,0.23,0.23,0,0,0,0,.32,0.22,0.22,0,0,0,.11.06,2.38,2.38,0,0,1,.22.36,0.45,0.45,0,0,1,0,.29,1.27,1.27,0,0,0-.07.29,1.92,1.92,0,0,0,.1.7,2.32,2.32,0,0,1,.09.41A3.68,3.68,0,0,0,85.87,62Z" style="fill:#231f20"/><path d="M72.19,21.23A3.53,3.53,0,0,0,74,22.37,1.62,1.62,0,0,0,75.52,22a1.39,1.39,0,0,0,.38-0.57A1.65,1.65,0,0,0,76,20.73a5.21,5.21,0,0,0-.35-1.26l-0.1-.26a4,4,0,0,1-.33-1.41A1.1,1.1,0,0,1,75.57,17a0.91,0.91,0,0,1,.83-0.21,1.67,1.67,0,0,1,.92.55,1.81,1.81,0,0,1,.49.93,1.13,1.13,0,0,1-.19.87l0.19,0.21,0.74-.92q-0.27-.4-0.49-0.68t-0.41-.49A3.23,3.23,0,0,0,76,16.23a1.51,1.51,0,0,0-1.44.36,1.37,1.37,0,0,0-.47.92,4.5,4.5,0,0,0,.31,1.6l0.1,0.3q0.53,1.56,0,2a1,1,0,0,1-1,.26,2,2,0,0,1-1.06-.65A1.86,1.86,0,0,1,72,20a2.09,2.09,0,0,1,.24-1.21l-0.2-.21-0.84,1.1a4.13,4.13,0,0,0,.39.79A5.28,5.28,0,0,0,72.19,21.23Z" style="fill:#231f20"/><path d="M80,21a2.63,2.63,0,0,1,.82.9l0.67,1-4.25,2.83a0.72,0.72,0,0,1-.61.17,1.48,1.48,0,0,1-.55-0.57L76,25.19l-0.19.13,0.54,0.77,0.37,0.55,0.59,0.9,0.36,0.58L77.83,28l0-.05-0.05-.08a1.21,1.21,0,0,1-.29-0.74,1.56,1.56,0,0,1,.72-0.71l3.9-2.6,0.71,1.06a2.92,2.92,0,0,1,.54,1.1,0.64,0.64,0,0,1-.35.52l-0.06,0,0.16,0.24,1.24-.71-0.14-.2a0.4,0.4,0,0,1-.37-0.2,7.65,7.65,0,0,1-.7-0.94L80.9,21.38a3.92,3.92,0,0,1-.42-0.74,0.55,0.55,0,0,1,0-.38l-0.14-.2L79,20.78,79.18,21A0.92,0.92,0,0,1,80,21Z" style="fill:#231f20"/><path d="M79.69,30.94a1.52,1.52,0,0,1-.38-0.71l-0.22.07,0.31,0.89,0.18,0.55q0.21,0.65.55,1.73t0.72,2.34q0.42,0,.8,0a5.37,5.37,0,0,1,.69.05l0-.28a1.82,1.82,0,0,1-1.09-.44,3.68,3.68,0,0,1-.72-1.42,3,3,0,0,1-.25-1.31,0.84,0.84,0,0,1,.63-0.48l1.84-.6,0.32,1a2.5,2.5,0,0,1,.2,1.16,0.75,0.75,0,0,1-.55.44l-0.07,0,0.09,0.27,0.08,0q0.74-.31,1.08-0.42l0.37-.1,0.46-.1-0.1-.29a0.77,0.77,0,0,1-.64,0,1.22,1.22,0,0,1-.4-0.66l-0.46-1.4,2.46-.8L86,31.51A3.28,3.28,0,0,1,86.19,33a1,1,0,0,1-.67.72L85.59,34l1.36-.44-0.42-1.25q-0.35-1-.63-1.87-0.16-.49-0.45-1.45l-0.2-.66L85,28.37a2,2,0,0,1,.12.81,0.54,0.54,0,0,1-.41.32l-4.4,1.44A0.71,0.71,0,0,1,79.69,30.94Z" style="fill:#231f20"/><path d="M88.19,39q-0.05-.33-0.1-0.68T88,37.5q-0.05-.44-0.1-0.9l-0.23,0a2,2,0,0,1,0,.82,0.54,0.54,0,0,1-.46.24l-4.33.57h0A1.11,1.11,0,0,1,82,38.19a1.33,1.33,0,0,1-.24-0.72l0-.12-0.23,0q0.12,0.77.2,1.27t0.13,1q0.08,0.6.19,1.53t0.22,2l1.49,0.23,0-.26a1.48,1.48,0,0,1-1-.55,4.4,4.4,0,0,1-.47-1.74,2.16,2.16,0,0,1,.05-1.14,0.92,0.92,0,0,1,.75-0.39L87,38.81a1.09,1.09,0,0,1,.83.09,1.48,1.48,0,0,1,.27.76l0.23,0Q88.25,39.37,88.19,39Z" style="fill:#231f20"/><path d="M60.5,14.67a6.75,6.75,0,0,0,1.61,1.21,8.29,8.29,0,0,0,1.48.64,8,8,0,0,0,1.57.33l1.08-1.33L66,15.32a2.32,2.32,0,0,1-1.53.79,3.18,3.18,0,0,1-1.86-.45,3.86,3.86,0,0,1-1.45-1.35,3.93,3.93,0,0,1-.58-1.91,4,4,0,0,1,.5-2.21A3.35,3.35,0,0,1,62.22,9a3.68,3.68,0,0,1,1.62-.55A3.61,3.61,0,0,1,65,8.5,4.6,4.6,0,0,1,66.2,9a3.5,3.5,0,0,1,1.46,1.32,2.36,2.36,0,0,1,.16,1.7l0.24,0.13q0.22-.44.38-0.81t0.29-.7a10.46,10.46,0,0,0-1.18-1.15,8.33,8.33,0,0,0-1.27-.86,6.78,6.78,0,0,0-1.9-.73,4.9,4.9,0,0,0-1.83,0,4.35,4.35,0,0,0-1.73.66,3.61,3.61,0,0,0-1.17,1.27,3.77,3.77,0,0,0-.46,1.67,4,4,0,0,0,.31,1.74A4.8,4.8,0,0,0,60.5,14.67Z" style="fill:#231f20"/><path d="M65.55,14.87L66,15.13l0.68-.51L68.9,16l-0.23,1.49c0,0.14,0,.25-0.06.31a0.64,0.64,0,0,1-.06.16,0.24,0.24,0,0,1-.26.12,2,2,0,0,1-.59-0.25l-0.12.2,0.73,0.41,0.58,0.34,0.65,0.4L70.1,19.5l0.12-.2a1.47,1.47,0,0,1-.51-0.48,1.13,1.13,0,0,1-.07-0.65L70.4,11.9l-0.19-.12-0.38,0a2.06,2.06,0,0,1-.36,0l-0.06.1a2,2,0,0,1-.34.41,5.76,5.76,0,0,1-.64.5Zm3.74-2.29-0.36,2.95L67,14.38Z" style="fill:#231f20"/></svg>