<svg xmlns="http://www.w3.org/2000/svg" width="7425.39" height="4037.88" viewBox="0 0 7425.39 4037.88"><defs><style>.f43e14cb-776f-4e25-afcd-4ff481f82359{fill:#fff;}.\35 6f98e29-80f4-4fdb-af24-5243c2d97dd3{opacity:0.5;}.\30 c8fea84-61b4-4193-b1bb-9cc7c6459bf3{opacity:0.8;}.\35 7668594-dc73-4ac0-aea8-38159f17fff5{fill:none;}</style></defs><title>tcg-logo</title><g id="ab6a0b8a-5c47-4399-86f4-b429684dca9b" data-name="Layer 2"><g id="0c7555c2-f51c-4f6a-ab9e-8735064e654a" data-name="Layer 1"><polygon class="f43e14cb-776f-4e25-afcd-4ff481f82359" points="5647.74 1515.72 5647.74 2040.1 6349.8 2040.1 6065.77 1827.96 6034.22 1851.18 6046.31 1813.42 5647.74 1515.72"/><path class="f43e14cb-776f-4e25-afcd-4ff481f82359" d="M6834.17,2046.1V3931H4617.1V2040.1h1004V1462.46l436,323.19,7.36-28.72,11.58-36-30.26-22.26-79.08-58.28,97.76,0,37.4,0,11.53-36.06,30.24-94.24,30.23,94.24,11.54,36.06,37.39,0,97.76,0-79.07,58.28-30.27,22.26,11.58,36,30.18,94.26L6173.8,1793l-30.23-22.3-30.24,22.3-25.21,16.92,284,210.61L6863.23,1178V63.85H4580.15V3959H6863.23V1996m-329.6-611.12,30.18,94.26-79.11-58.23-30.23-22.3-30.24,22.3-79.11,58.23,30.18-94.26,11.58-36-30.26-22.26-79.08-58.28,97.76,0,37.4,0,11.53-36.06,30.24-94.24,30.23,94.24,11.54,36.06,37.39,0,97.76,0-79.07,58.28L6522,1348.82ZM6388.11,813.42l168.8-278.08V736.77L6407.68,983.86,6298.4,895,6295.14,740ZM6069.88,305.86h101.6q30.15,0,45,2.51A66.2,66.2,0,0,1,6243,318.87a65.33,65.33,0,0,1,19.52,21.23,57.67,57.67,0,0,1,7.8,29.74,59.15,59.15,0,0,1-9.61,32.78,59.81,59.81,0,0,1-26,22.38q23.14,6.74,35.62,23t12.44,38.25a75.33,75.33,0,0,1-8.07,33.67,68,68,0,0,1-22,26.13q-14,9.75-34.41,12-12.81,1.42-61.87,1.75h-86.49Zm-411.33-34.58q32.71-35.07,86.08-35.09,46.6,0,75.7,27.49,17.34,16.27,26,46.71l-50.85,12.12q-4.47-19.73-18.77-31.16T5742,279.94q-28.2,0-45.76,20.31T5678.71,366q0,48.24,17.29,68.73t45,20.48q20.4,0,35.12-13t21.11-41.06l49.66,15.37q-11.44,41.85-38,62.17T5741.46,499q-50.55,0-83.12-34.58t-32.55-94.57Q5625.79,306.38,5658.55,271.28Zm-287,1531.51,30.18,94.26-79.11-58.23-30.23-22.3-30.24,22.3-79.11,58.23,30.18-94.26,11.58-36-30.27-22.26-79.07-58.28,97.76,0,37.4,0,11.53-36.06,30.24-94.24,30.23,94.24,11.53,36.06,37.4,0,97.76,0-79.07,58.28L5360,1766.75ZM5341.81,479.08q-5.28-6.33-18.42-11-9-3.15-41-11.12-41.14-10.29-57.73-25.18-23.37-21-23.35-51.2a65.78,65.78,0,0,1,11-36.37q10.95-16.89,31.6-25.78t49.84-8.84q47.67,0,71.78,21.11t25.3,56.34l-51.14,1.77q-3.28-19.54-14-28.08t-32.31-8.57q-22.26,0-34.82,9.16a18.52,18.52,0,0,0-8.1,15.76q0,9,7.59,15.43,9.68,8.12,47,17t55.16,18.29a71.35,71.35,0,0,1,28,25.84q10.11,16.41,10.11,40.5A75,75,0,0,1,5386.09,535q-12.11,19.06-34.26,28.35t-55.22,9.28q-48.15,0-73.93-22.29t-30.8-64.91l49.95-4.73q4.49,25.19,18.27,37t37.13,11.79q24.75,0,37.28-10.49t12.56-24.57A23.2,23.2,0,0,0,5341.81,479.08Zm-341,191h54.87L5157.31,924H5101.5l-22.14-57.64H4977.64L4956.59,924H4902.2Zm-88.29,562.48,37.39,0,11.53-36.06,30.24-94.24,30.24,94.24,11.53,36.06,37.39,0,97.76,0-79.07,58.27-30.27,22.26,11.58,36,30.18,94.26-79.1-58.22-30.24-22.3-30.24,22.3-79.11,58.22,30.19-94.26,11.57-36-30.26-22.26-79.07-58.27Z"/><polygon class="f43e14cb-776f-4e25-afcd-4ff481f82359" points="6863.23 1225.13 6388.16 2040.1 6808.57 2040.1 6863.23 1949.62 6863.23 1225.13"/><path class="f43e14cb-776f-4e25-afcd-4ff481f82359" d="M6192,406.1c8.78-1.06,15.7-4.08,20.72-9.13s7.57-11.65,7.57-19.87q0-11.79-6.5-19.15c-4.35-4.94-10.82-7.89-19.36-9q-7.68-.84-43.93-.86H6121V407h33.7Q6184.73,407,6192,406.1Z"/><path class="f43e14cb-776f-4e25-afcd-4ff481f82359" d="M6203.91,515.36a31.83,31.83,0,0,0,18.68-10.08c4.82-5.35,7.21-12.54,7.21-21.52q0-11.4-5.56-19.34c-3.72-5.29-9.07-9.16-16.08-11.55s-22.2-3.64-45.61-3.64H6121v67.69h47.62Q6196.43,516.92,6203.91,515.36Z"/><polygon class="f43e14cb-776f-4e25-afcd-4ff481f82359" points="5027.68 729.23 4993.28 823.53 5063.1 823.53 5027.68 729.23"/><path class="f43e14cb-776f-4e25-afcd-4ff481f82359" d="M6931.15,4028H4508.65V0h2422.5Zm-2401.83-20.67H6910.48V20.67H4529.32Z"/><path class="f43e14cb-776f-4e25-afcd-4ff481f82359" d="M7425.39,246.17l-9.06,801.88L6455.88,2638.23,5640.41,2053.8V1501.09l733.92,548.18Z"/><path class="f43e14cb-776f-4e25-afcd-4ff481f82359" d="M5643.18,2045.7l809.1,579.75L6809,2039.32Z"/><path class="f43e14cb-776f-4e25-afcd-4ff481f82359" d="M6293.51,2795.84l3.26,154.94L6406,3039.67l149.23-247.09V2591.16l-168.8,278.07Z"/><path class="f43e14cb-776f-4e25-afcd-4ff481f82359" d="M5291.09,3007.7h-68.43L5195.52,2937H5070.8L5045,3007.7h-66.69l120.94-311.33h67.27Zm-115.51-123.23-43.42-115.61L5090,2884.47Z"/><path class="f43e14cb-776f-4e25-afcd-4ff481f82359" d="M5307.83,2906.58l61.25-5.8q5.49,30.88,22.4,45.34t45.52,14.46q30.34,0,45.71-12.86t15.4-30.12q0-11.1-6.45-18.85t-22.58-13.52q-11-3.86-50.23-13.62-50.46-12.61-70.79-30.88-28.65-25.77-28.63-62.78a80.68,80.68,0,0,1,13.45-44.58q13.42-20.71,38.74-31.6t61.11-10.84q58.44,0,88,25.88t31,69.08l-62.7,2.17q-4-24-17.22-34.43t-39.61-10.51q-27.28,0-42.69,11.24a22.69,22.69,0,0,0-9.93,19.32q0,11,9.31,18.92,11.85,9.94,57.59,20.84t67.63,22.43a87.44,87.44,0,0,1,34.29,31.68q12.39,20.11,12.39,49.65a91.84,91.84,0,0,1-14.86,50.16q-14.84,23.37-42,34.76t-67.71,11.38q-59,0-90.64-27.33T5307.83,2906.58Z"/><path class="f43e14cb-776f-4e25-afcd-4ff481f82359" d="M5813.43,2893.17l60.89,18.85q-14,51.31-46.61,76.22t-82.67,24.9q-62,0-101.92-42.41t-39.9-115.94q0-77.81,40.15-120.84t105.54-43q57.15,0,92.82,33.71,21.26,20,31.86,57.26l-62.34,14.86q-5.49-24.18-23-38.2t-42.52-14q-34.58,0-56.1,24.9t-21.53,80.64q0,59.16,21.2,84.27t55.2,25.12q25,0,43.06-16T5813.43,2893.17Z"/><path class="f43e14cb-776f-4e25-afcd-4ff481f82359" d="M5928.75,2696.37h124.57q37,0,55.16,3.08a81.07,81.07,0,0,1,32.51,12.87,79.83,79.83,0,0,1,23.92,26,70.65,70.65,0,0,1,9.57,36.46A72.51,72.51,0,0,1,6162.7,2815a73.31,73.31,0,0,1-31.93,27.44q28.38,8.27,43.68,28.2t15.25,46.9a92.32,92.32,0,0,1-9.89,41.28,83.42,83.42,0,0,1-27,32q-17.12,12-42.18,14.71-15.72,1.74-75.86,2.14H5928.75Zm62.7,51.83v72.12h41.32q36.81,0,45.78-1.05c10.76-1.3,19.24-5,25.4-11.2s9.28-14.28,9.28-24.35q0-14.46-8-23.49c-5.33-6.05-13.27-9.68-23.74-11q-9.41-1-53.86-1.05Zm0,123.95v83h58.39q34.09,0,43.24-1.93a39,39,0,0,0,22.91-12.35q8.85-9.84,8.84-26.39,0-14-6.81-23.7c-4.57-6.49-11.13-11.24-19.72-14.17s-27.22-4.46-55.92-4.46Z"/><path class="f43e14cb-776f-4e25-afcd-4ff481f82359" d="M5155.92,3304.65h-36.13L5105.47,3271h-65.8L5026,3304.65h-35.23l63.9-148.36h35.46Zm-61.14-58.72-22.71-55.1-22.28,55.1Z"/><path class="f43e14cb-776f-4e25-afcd-4ff481f82359" d="M5277,3228.83l-31.08,5q-1.59-8.33-7.16-12.54t-14.45-4.22q-11.82,0-18.86,7.34t-7,24.56q0,19.16,7.15,27.05t19.21,7.89q9,0,14.74-4.59t8.12-15.79l30.92,4.84q-4.83,19.14-18.52,28.91t-36.7,9.77q-26.13,0-41.67-14.87T5166.11,3251q0-26.61,15.59-41.42t42.19-14.81q21.79,0,34.63,8.41T5277,3228.83Z"/><path class="f43e14cb-776f-4e25-afcd-4ff481f82359" d="M5404.64,3228.83l-31.08,5q-1.59-8.33-7.15-12.54c-3.72-2.82-8.53-4.22-14.46-4.22q-11.81,0-18.86,7.34t-7,24.56q0,19.16,7.15,27.05t19.21,7.89q9,0,14.75-4.59t8.11-15.79l30.92,4.84q-4.81,19.14-18.52,28.91t-36.7,9.77q-26.13,0-41.67-14.87T5293.77,3251q0-26.61,15.59-41.42t42.2-14.81q21.78,0,34.62,8.41T5404.64,3228.83Z"/><path class="f43e14cb-776f-4e25-afcd-4ff481f82359" d="M5458.74,3304.65h-31.61v-107.6h29.36v15.29q7.51-10.83,13.51-14.18a27.39,27.39,0,0,1,13.6-3.35,43.18,43.18,0,0,1,20.73,5.37l-9.76,24.85q-8-4.67-14.78-4.66a18.61,18.61,0,0,0-11.19,3.28c-3.08,2.19-5.48,6.15-7.24,11.88s-2.62,17.72-2.62,36Z"/><path class="f43e14cb-776f-4e25-afcd-4ff481f82359" d="M5586.95,3270.45l31.43,4.84q-6.06,15.54-19.13,23.66t-32.73,8.11q-31.08,0-46-18.3-11.79-14.67-11.79-37,0-26.72,15.49-41.83t39.18-15.11q26.64,0,42,15.8t14.72,48.44H5541q.34,12.67,7.63,19.73a25.22,25.22,0,0,0,18.21,7,20.77,20.77,0,0,0,12.47-3.64Q5584.36,3278.55,5586.95,3270.45Zm1.9-28.84q-.34-12.28-7.1-18.65a23,23,0,0,0-16.42-6.39q-10.37,0-17.12,6.73c-4.51,4.49-6.72,10.61-6.63,18.31Z"/><path class="f43e14cb-776f-4e25-afcd-4ff481f82359" d="M5755,3304.65h-29.35v-15.79a46.28,46.28,0,0,1-17.22,13.71,48.27,48.27,0,0,1-20,4.49q-20.53,0-35.16-14.92t-14.65-41.6q0-27.33,14.25-41.52t36-14.21q19.95,0,34.54,15v-53.49H5755Zm-84.1-56q0,17.18,5.27,24.87,7.61,11.11,21.29,11.12a24.14,24.14,0,0,0,18.5-8.34q7.61-8.34,7.61-24.92,0-18.5-7.39-26.65a24.47,24.47,0,0,0-18.94-8.13,24.74,24.74,0,0,0-18.78,8Q5670.92,3232.66,5670.92,3248.62Z"/><path class="f43e14cb-776f-4e25-afcd-4ff481f82359" d="M5786.08,3182.54v-26.25h31.6v26.25Zm0,122.11v-107.6h31.6v107.6Z"/><path class="f43e14cb-776f-4e25-afcd-4ff481f82359" d="M5904.76,3197.05v22.63h-21.59V3263c0,8.78.21,13.89.62,15.36a6.32,6.32,0,0,0,2.82,3.59,9.61,9.61,0,0,0,5.33,1.41c2.94,0,7.17-.91,12.73-2.73l2.68,22.13a68.44,68.44,0,0,1-24.92,4.26,43.09,43.09,0,0,1-15.37-2.59c-4.56-1.71-7.91-3.95-10-6.68a25.06,25.06,0,0,1-4.44-11.11q-1-5-1-20.06v-46.94h-14.51v-22.63h14.51v-21.41l31.6-16.76v38.17Z"/><path class="f43e14cb-776f-4e25-afcd-4ff481f82359" d="M5949.59,3230.21l-28.32-4.66q4.81-15.67,16.63-23.21t35-7.53q21.15,0,31.47,4.5t14.54,11.42q4.23,6.94,4.21,25.44l-.51,33.17q0,14.17,1.53,20.88a56.51,56.51,0,0,0,5.72,14.43h-31.26c-.83-1.89-1.83-4.7-3-8.41-.54-1.68-.9-2.8-1.12-3.34a57.4,57.4,0,0,1-17.29,10.62,53.88,53.88,0,0,1-19.62,3.54q-18.39,0-29-9a28.51,28.51,0,0,1-10.6-22.71,28.1,28.1,0,0,1,4.83-16.2,30.52,30.52,0,0,1,13.53-10.89q8.7-3.8,25.07-6.62,22.13-3.73,30.66-7v-2.85c0-5.51-1.5-9.43-4.53-11.76s-8.7-3.52-17.06-3.52q-8.47,0-13.21,3C5954.12,3221.61,5951.54,3225.15,5949.59,3230.21Zm42.49,23q-6.06,1.81-19.17,4.34t-17.15,4.93c-4.11,2.61-6.17,5.95-6.17,10a13.23,13.23,0,0,0,4.94,10.28q4.92,4.32,12.56,4.33a29.28,29.28,0,0,0,16.25-5,18,18,0,0,0,7.51-9.36c.81-2.42,1.23-7,1.23-13.8Z"/><path class="f43e14cb-776f-4e25-afcd-4ff481f82359" d="M6108.69,3197.05v22.63H6087.1V3263c0,8.78.21,13.89.62,15.36a6.29,6.29,0,0,0,2.82,3.59,9.57,9.57,0,0,0,5.33,1.41c2.94,0,7.17-.91,12.73-2.73l2.68,22.13a68.44,68.44,0,0,1-24.92,4.26,43.11,43.11,0,0,1-15.38-2.59c-4.55-1.71-7.9-3.95-10-6.68a25.05,25.05,0,0,1-4.43-11.11q-1-5-1-20.06v-46.94H6041v-22.63h14.5v-21.41l31.61-16.76v38.17Z"/><path class="f43e14cb-776f-4e25-afcd-4ff481f82359" d="M6130.38,3182.54v-26.25H6162v26.25Zm0,122.11v-107.6H6162v107.6Z"/><path class="f43e14cb-776f-4e25-afcd-4ff481f82359" d="M6187.06,3249.42a53.7,53.7,0,0,1,7.75-27.41,50.72,50.72,0,0,1,22-20.23,71.16,71.16,0,0,1,31.73-7q27.09,0,44.38,15.82t17.31,40q0,24.39-17.48,40.42t-44,16a75.68,75.68,0,0,1-31.29-6.66q-14.91-6.69-22.65-19.59T6187.06,3249.42Zm32.29,1.52q0,16,8.43,24.48a29.66,29.66,0,0,0,41.57,0q8.37-8.49,8.38-24.69,0-15.78-8.38-24.28a29.66,29.66,0,0,0-41.57,0Q6219.36,3234.94,6219.35,3250.94Z"/><path class="f43e14cb-776f-4e25-afcd-4ff481f82359" d="M6443.14,3304.65h-31.6v-54.82q0-17.39-2-22.49a15.93,15.93,0,0,0-6.55-7.94,20.15,20.15,0,0,0-10.89-2.83,27.19,27.19,0,0,0-14.67,4,20.74,20.74,0,0,0-8.89,10.72q-2.41,6.69-2.4,24.68v48.64h-31.61v-107.6h29.36v15.79q15.6-18,39.24-18a51.72,51.72,0,0,1,19.07,3.38q8.63,3.39,13,8.65a30,30,0,0,1,6.17,11.94q1.74,6.67,1.74,19.12Z"/><path class="f43e14cb-776f-4e25-afcd-4ff481f82359" d="M5260.33,3494.1l32.3-2.76q2.92,14.72,11.86,21.6t24.13,6.89q16.08,0,24.25-6.13t8.15-14.35a12.76,12.76,0,0,0-3.42-9q-3.42-3.71-11.94-6.44-5.82-1.84-26.56-6.49-26.66-6-37.42-14.72-15.13-12.27-15.13-29.91a35.68,35.68,0,0,1,7.11-21.24q7.13-9.87,20.52-15.06t32.33-5.17q31,0,46.58,12.33t16.42,32.92l-33.15,1q-2.13-11.43-9.14-16.41t-21-5q-14.46,0-22.63,5.36c-3.5,2.29-5.26,5.37-5.26,9.2q0,5.27,4.92,9,6.27,4.74,30.46,9.93t35.77,10.69a44.73,44.73,0,0,1,18.15,15.09q6.55,9.59,6.55,23.66a40.71,40.71,0,0,1-7.86,23.9q-7.87,11.14-22.23,16.57t-35.83,5.42q-31.2,0-48-13T5260.33,3494.1Z"/><path class="f43e14cb-776f-4e25-afcd-4ff481f82359" d="M5490.79,3508.09l31.43,4.84q-6.06,15.54-19.14,23.66t-32.72,8.11q-31.09,0-46-18.3-11.79-14.67-11.8-37,0-26.72,15.49-41.83t39.19-15.11q26.63,0,42,15.8t14.72,48.44h-79.1q.33,12.68,7.63,19.73a25.2,25.2,0,0,0,18.2,7,20.74,20.74,0,0,0,12.47-3.64Q5488.2,3516.19,5490.79,3508.09Zm1.9-28.84q-.34-12.28-7.1-18.65a23,23,0,0,0-16.43-6.39q-10.35,0-17.11,6.73c-4.51,4.49-6.72,10.61-6.63,18.31Z"/><path class="f43e14cb-776f-4e25-afcd-4ff481f82359" d="M5579.76,3542.29h-31.6v-107.6h29.36V3450q7.52-10.83,13.5-14.18a27.46,27.46,0,0,1,13.61-3.35,43.17,43.17,0,0,1,20.73,5.37l-9.76,24.85q-7.95-4.66-14.78-4.66a18.61,18.61,0,0,0-11.19,3.28c-3.08,2.19-5.48,6.15-7.24,11.88s-2.63,17.72-2.63,36Z"/><path class="f43e14cb-776f-4e25-afcd-4ff481f82359" d="M5671.76,3542.29l-48-107.6h33.16l22.36,54.92,6.48,18.33q2.56-7,3.24-9.23,1.56-4.56,3.35-9.1l22.59-54.92h32.47l-47.3,107.6Z"/><path class="f43e14cb-776f-4e25-afcd-4ff481f82359" d="M5766.73,3420.18v-26.25h31.61v26.25Zm0,122.11v-107.6h31.61v107.6Z"/><path class="f43e14cb-776f-4e25-afcd-4ff481f82359" d="M5934.64,3466.47l-31.09,5q-1.58-8.32-7.15-12.54t-14.46-4.22q-11.8,0-18.86,7.34t-7,24.56q0,19.16,7.15,27t19.2,7.89q9,0,14.75-4.59t8.12-15.79l30.91,4.84q-4.81,19.14-18.51,28.91t-36.7,9.77q-26.14,0-41.68-14.87t-15.54-41.15q0-26.61,15.6-41.42t42.19-14.81q21.78,0,34.62,8.41T5934.64,3466.47Z"/><path class="f43e14cb-776f-4e25-afcd-4ff481f82359" d="M6027.41,3508.09l31.43,4.84q-6.06,15.54-19.13,23.66T6007,3544.7q-31.08,0-46-18.3-11.78-14.67-11.79-37,0-26.72,15.49-41.83t39.19-15.11q26.63,0,42,15.8t14.71,48.44h-79.1q.34,12.68,7.64,19.73a25.2,25.2,0,0,0,18.2,7,20.76,20.76,0,0,0,12.47-3.64Q6024.83,3516.19,6027.41,3508.09Zm1.9-28.84q-.33-12.28-7.1-18.65a23,23,0,0,0-16.42-6.39q-10.36,0-17.11,6.73c-4.51,4.49-6.72,10.61-6.64,18.31Z"/><path class="f43e14cb-776f-4e25-afcd-4ff481f82359" d="M6074.94,3511.72l31.61-4.32a20.42,20.42,0,0,0,8.22,12.49q6.18,4.27,17.34,4.26c8.16,0,14.33-1.35,18.46-4a8.77,8.77,0,0,0,4.16-7.6,7,7,0,0,0-2.25-5.35c-1.57-1.35-5.11-2.61-10.56-3.75q-38.26-7.59-48.48-13.85-14.17-8.7-14.18-24.16,0-13.94,12.26-23.46t38-9.49q24.5,0,36.42,7.15t16.42,21.17l-29.7,5a16.7,16.7,0,0,0-7.27-9.62c-3.56-2.23-8.66-3.33-15.25-3.33q-12.51,0-17.91,3.14c-2.4,1.47-3.61,3.4-3.61,5.75,0,2,1,3.75,3.14,5.16q4.28,2.85,29.48,8t35.22,12.64q9.87,7.59,9.87,21.16,0,14.76-13.69,25.4t-40.53,10.62q-24.39,0-38.59-8.87T6074.94,3511.72Z"/><path class="f43e14cb-776f-4e25-afcd-4ff481f82359" d="M5185.69,3779.93l-39-148.36h34.09l24.72,101.9,30.07-101.9h39.58l28.79,103.63,25-103.63h33.44l-39.55,148.36h-35.52L5254.72,3669,5222,3779.93Z"/><path class="f43e14cb-776f-4e25-afcd-4ff481f82359" d="M5367.75,3724.7a53.62,53.62,0,0,1,7.76-27.41,50.64,50.64,0,0,1,22-20.23,71.19,71.19,0,0,1,31.73-7q27.09,0,44.38,15.82t17.31,40q0,24.39-17.48,40.42t-44,16a75.68,75.68,0,0,1-31.29-6.66q-14.9-6.69-22.64-19.59T5367.75,3724.7Zm32.3,1.52q0,16,8.43,24.48a29.66,29.66,0,0,0,41.57,0q8.35-8.49,8.37-24.69,0-15.78-8.37-24.28a29.66,29.66,0,0,0-41.57,0Q5400,3710.22,5400,3726.22Z"/><path class="f43e14cb-776f-4e25-afcd-4ff481f82359" d="M5545.78,3779.93h-31.61v-107.6h29.36v15.29q7.51-10.83,13.51-14.18a27.39,27.39,0,0,1,13.6-3.35,43.17,43.17,0,0,1,20.73,5.37l-9.76,24.85q-8-4.66-14.78-4.66a18.61,18.61,0,0,0-11.19,3.28c-3.08,2.19-5.48,6.15-7.24,11.88s-2.62,17.72-2.62,36Z"/><path class="f43e14cb-776f-4e25-afcd-4ff481f82359" d="M5605.08,3779.93V3631.57h31.61v148.36Z"/><path class="f43e14cb-776f-4e25-afcd-4ff481f82359" d="M5778.51,3779.93h-29.36v-15.79a46.13,46.13,0,0,1-17.22,13.71,48.23,48.23,0,0,1-20,4.49q-20.55,0-35.17-14.92t-14.64-41.6q0-27.33,14.25-41.52t36-14.21q19.95,0,34.55,15v-53.49h31.6Zm-84.11-56q0,17.18,5.27,24.87,7.62,11.12,21.3,11.12a24.12,24.12,0,0,0,18.49-8.34q7.62-8.34,7.62-24.92,0-18.5-7.39-26.65a26.05,26.05,0,0,0-37.72-.1Q5694.41,3707.94,5694.4,3723.9Z"/><path class="f43e14cb-776f-4e25-afcd-4ff481f82359" d="M5831.7,3779.93,5794,3672.33h30.62l22.31,70.52,20.54-70.52h30.41l19.86,70.52,22.75-70.52h31l-38.22,107.6h-30.28l-20.53-69.21-20.21,69.21Z"/><path class="f43e14cb-776f-4e25-afcd-4ff481f82359" d="M5988.07,3657.82v-26.25h31.6v26.25Zm0,122.11v-107.6h31.6v107.6Z"/><path class="f43e14cb-776f-4e25-afcd-4ff481f82359" d="M6161.5,3779.93h-29.36v-15.79a46.13,46.13,0,0,1-17.22,13.71,48.24,48.24,0,0,1-20,4.49q-20.54,0-35.16-14.92t-14.64-41.6q0-27.33,14.24-41.52t36-14.21q20,0,34.54,15v-53.49h31.61Zm-84.11-56q0,17.18,5.27,24.87,7.62,11.12,21.29,11.12a24.13,24.13,0,0,0,18.5-8.34q7.62-8.34,7.62-24.92,0-18.5-7.39-26.65a26.05,26.05,0,0,0-37.72-.1Q6077.38,3707.94,6077.39,3723.9Z"/><path class="f43e14cb-776f-4e25-afcd-4ff481f82359" d="M6261.46,3745.73l31.43,4.84q-6.06,15.54-19.13,23.66t-32.73,8.11q-31.09,0-46-18.3-11.79-14.67-11.8-37,0-26.71,15.5-41.83t39.18-15.11q26.64,0,42,15.8t14.72,48.44h-79.1q.33,12.67,7.63,19.73a25.22,25.22,0,0,0,18.21,7,20.76,20.76,0,0,0,12.47-3.64Q6258.87,3753.83,6261.46,3745.73Zm1.9-28.84q-.34-12.28-7.1-18.65a23,23,0,0,0-16.42-6.39q-10.37,0-17.12,6.73c-4.51,4.49-6.72,10.61-6.63,18.31Z"/><g class="56f98e29-80f4-4fdb-af24-5243c2d97dd3"><path class="f43e14cb-776f-4e25-afcd-4ff481f82359" d="M1968.05,3094.78,2970.85,911.34q-37.55-29-76.81-55.59a1480,1480,0,0,0-129.73-78.24l-966.56,1544L1270,1247.83,831.08,2201.47l651.7,892.08"/><path class="f43e14cb-776f-4e25-afcd-4ff481f82359" d="M3155.29,469.06q7.14,4.82,14.23,9.72L3303.3,187.48,3225.53,40.77,3012.38,381.26Q3085.7,422.07,3155.29,469.06Z"/></g><g class="0c8fea84-61b4-4193-b1bb-9cc7c6459bf3"><path class="57668594-dc73-4ac0-aea8-38159f17fff5" d="M2472.54,502.75l27.67,7.19q30.38,7.89,38.77-24.44l15.53-59.75q8.4-32.34-22-40.22l-27.68-7.19q-30.36-7.91-38.77,24.43l-15.53,59.76Q2442.17,494.85,2472.54,502.75Zm9.07-24.84,19.15-73.71a5.1,5.1,0,0,1,2.24-3.08,4.44,4.44,0,0,1,3.69-.61l13.47,3.5a4.41,4.41,0,0,1,2.92,2.33,5,5,0,0,1,.46,3.78l-19.16,73.71a5.08,5.08,0,0,1-2.23,3.08,4.45,4.45,0,0,1-3.69.61L2485,484a4.48,4.48,0,0,1-2.93-2.33A5.09,5.09,0,0,1,2481.61,477.91Z"/><path class="57668594-dc73-4ac0-aea8-38159f17fff5" d="M2403.26,484.45,2420,401.86q1.75-8.69,10.18-7l16.37,3.31,6.52-32.24-6.45-1.3q-14.14-2.86-24.19,9.83l2.36-11.65-30.26-6.11-24.46,121Z"/><polygon class="57668594-dc73-4ac0-aea8-38159f17fff5" points="2894.07 637.03 2860.01 618.62 2923.64 500.86 2892.49 484.02 2814.64 628.05 2879.88 663.3 2894.07 637.03"/><path class="57668594-dc73-4ac0-aea8-38159f17fff5" d="M2289.22,467.87l31.57,4.44q31.08,4.36,35.73-28.71l8.39-59.63-46.36-6.52-3.63,25.8,13,1.84-5.32,37.83a5.12,5.12,0,0,1-1.87,3.32,4.51,4.51,0,0,1-3.6,1L2301.37,445a4.48,4.48,0,0,1-3.17-2,5.13,5.13,0,0,1-.88-3.71l15.37-109.24a5.08,5.08,0,0,1,1.87-3.31,4.45,4.45,0,0,1,3.59-1l15.79,2.22a4.45,4.45,0,0,1,3.17,2,5.11,5.11,0,0,1,.89,3.7l-2.75,19.54,33.32,4.69,2.15-15.29q4.65-33.07-26.42-37.45l-31.57-4.44q-31.06-4.37-35.72,28.7l-14.21,101Q2258.15,463.49,2289.22,467.87Z"/><path class="57668594-dc73-4ac0-aea8-38159f17fff5" d="M2677.8,609.84l16.89-40.38q4.89,8.63,16.8,13.61l4.9,2q28.95,12.12,41.84-18.7l23.82-57q12.89-30.82-16.06-42.92l-4.9-2q-16.81-7-28.54.68l3.52-8.41-26.38-11-63.17,151ZM2703.67,548l27-64.43a5,5,0,0,1,2.65-2.73,4.45,4.45,0,0,1,3.74-.09l12.84,5.38a4.43,4.43,0,0,1,2.56,2.71,5.07,5.07,0,0,1-.08,3.81l-26.95,64.43a5.09,5.09,0,0,1-2.65,2.73,4.45,4.45,0,0,1-3.74.08l-12.83-5.37a4.42,4.42,0,0,1-2.57-2.71A5.07,5.07,0,0,1,2703.67,548Z"/><path class="57668594-dc73-4ac0-aea8-38159f17fff5" d="M2582.55,534.54l5,1.7q15.11,5.1,25.37-.78l-2,6,29.24,9.88,39.51-117-32.13-10.84-30.92,91.58a5.07,5.07,0,0,1-2.45,2.91,4.47,4.47,0,0,1-3.72.34l-13.19-4.45a4.42,4.42,0,0,1-2.75-2.53,5.06,5.06,0,0,1-.19-3.8L2625.26,416l-32.13-10.85-29.63,87.74Q2552.83,524.5,2582.55,534.54Z"/><rect class="57668594-dc73-4ac0-aea8-38159f17fff5" x="1914.17" y="334.27" width="33.91" height="123.49" transform="translate(-26.86 167.21) rotate(-4.92)"/><path class="57668594-dc73-4ac0-aea8-38159f17fff5" d="M1911.37,320.13a18.21,18.21,0,0,0,13.58,4.29,18,18,0,0,0,12.53-6.41,17.69,17.69,0,0,0,4.29-13.58,18.09,18.09,0,0,0-6.56-12.77,17.79,17.79,0,0,0-13.46-4.3,18.2,18.2,0,0,0-12.64,6.55,18.35,18.35,0,0,0,2.26,26.22Z"/><path class="57668594-dc73-4ac0-aea8-38159f17fff5" d="M1975.86,423.09q1.08,33.38,32.44,32.36l28.58-.92q31.35-1,30.27-34.4l-2-61.71Q2064.07,325,2032.71,326l-28.58.93q-31.37,1-30.28,34.4Zm32.92-73.73a4.46,4.46,0,0,1,3.37-1.63l13.9-.45a4.46,4.46,0,0,1,3.47,1.41,5.06,5.06,0,0,1,1.5,3.49l2.47,76.13a5,5,0,0,1-1.27,3.58,4.47,4.47,0,0,1-3.37,1.63l-13.91.45a4.42,4.42,0,0,1-3.46-1.4,5.14,5.14,0,0,1-1.51-3.5l-2.47-76.12A5.12,5.12,0,0,1,2008.78,349.36Z"/><path class="57668594-dc73-4ac0-aea8-38159f17fff5" d="M2129,355.66a5.09,5.09,0,0,1,1.52-3.49,4.47,4.47,0,0,1,3.47-1.39l13.91.52a4.46,4.46,0,0,1,3.36,1.65,5.08,5.08,0,0,1,1.26,3.59l-3.61,96.6,33.88,1.26,3.46-92.54q1.25-33.38-30.11-34.55l-5.31-.2q-15.93-.6-24.1,8l.24-6.32-30.85-1.15L2091.55,451l33.88,1.27Z"/><polygon class="57668594-dc73-4ac0-aea8-38159f17fff5" points="2926.32 691.17 2989.91 585.32 2960.86 567.86 2897.26 673.7 2926.32 691.17"/><path class="57668594-dc73-4ac0-aea8-38159f17fff5" d="M3152.7,862.42l17.82,15.75,14.58-16.49-7.59-6.7q-4.17-3.69-4.58-7.43t4.29-9.05l44.57-50.43,15.93,14.08L3254,783.76,3238,769.68l17.76-20.09-25.4-22.46-79.1,89.48Q3129.18,841.64,3152.7,862.42Z"/><path class="57668594-dc73-4ac0-aea8-38159f17fff5" d="M1874.08,466.6l23.6-3-2.79-21.84-10,1.28c-3.68.47-6.55,0-8.6-1.45s-3.38-4.51-4-9.19l-8.51-66.77,21.09-2.69-3.1-24.35-21.09,2.69-3.39-26.61L1823.64,319l15.1,118.48Q1843,470.57,1874.08,466.6Z"/><path class="57668594-dc73-4ac0-aea8-38159f17fff5" d="M3282.24,990.9l3.53,4q12.07,13.63,26,11.79l-6.82,6,19,21.4,122.53-108.57L3424,900.16l-32.76,29q-.66-9.9-9.21-19.56l-3.53-4q-20.81-23.49-45.81-1.34l-46.21,40.95Q3261.45,967.42,3282.24,990.9Zm21.92-14.18a5.09,5.09,0,0,1,1.73-3.39L3358.16,927a5.06,5.06,0,0,1,3.57-1.31,4.46,4.46,0,0,1,3.41,1.55l9.23,10.42a4.42,4.42,0,0,1,1.12,3.56,5,5,0,0,1-1.72,3.39l-52.28,46.32a5,5,0,0,1-3.57,1.3,4.43,4.43,0,0,1-3.4-1.55l-9.23-10.41A4.46,4.46,0,0,1,3304.16,976.72Z"/><path class="57668594-dc73-4ac0-aea8-38159f17fff5" d="M3207.19,866q-23.46,23.78-1.13,45.81l20.35,20.09q22.33,22,45.79-1.74l6.76-6.84-24.14-23.82-9.6,9.73a5,5,0,0,1-3.47,1.54,4.45,4.45,0,0,1-3.5-1.32l-9.91-9.77a4.46,4.46,0,0,1-1.36-3.48,5.07,5.07,0,0,1,1.5-3.5l18.13-18.37,40.88,40.35,28.08-28.46q23.46-23.77,1.13-45.81l-20.35-20.09q-22.33-22-45.79,1.74Zm71-23.73a5.09,5.09,0,0,1,3.48-1.54,4.44,4.44,0,0,1,3.5,1.32l9.91,9.77a4.46,4.46,0,0,1,1.36,3.48,5.05,5.05,0,0,1-1.5,3.5L3279,875l-16.75-16.53Z"/><path class="57668594-dc73-4ac0-aea8-38159f17fff5" d="M2980.59,567.92a18,18,0,0,0,13.91,2.15,17.68,17.68,0,0,0,11.44-8.47,18.1,18.1,0,0,0,2.18-14.19,17.78,17.78,0,0,0-8.37-11.38,18.21,18.21,0,0,0-14.08-2.11,18.34,18.34,0,0,0-13.56,22.56A18.23,18.23,0,0,0,2980.59,567.92Z"/><path class="57668594-dc73-4ac0-aea8-38159f17fff5" d="M2975,721.86l55.35-79.24a5.14,5.14,0,0,1,3.17-2.11,4.46,4.46,0,0,1,3.67.72l8.92,6.23a4.44,4.44,0,0,1,1.93,3.2,5.05,5.05,0,0,1-.89,3.7l-55.35,79.24L3019.57,753l55.36-79.24a5.07,5.07,0,0,1,3.17-2.11,4.46,4.46,0,0,1,3.67.71l8.92,6.23a4.45,4.45,0,0,1,1.93,3.2,5.07,5.07,0,0,1-.89,3.71l-55.35,79.24,27.79,19.41,53-75.92q19.13-27.37-6.59-45.35l-1.87-1.3q-14.94-10.44-28-5.39.64-13.74-14.7-24.46l-1.87-1.31q-13.06-9.12-24.57-6.36l3.62-5.19-25.3-17.67-70.72,101.22Z"/><path class="57668594-dc73-4ac0-aea8-38159f17fff5" d="M3183.73,710.27a18,18,0,0,0,13.47,4.08,17.62,17.62,0,0,0,12.51-6.78,18.06,18.06,0,0,0,4.15-13.74,17.82,17.82,0,0,0-6.68-12.44,18.19,18.19,0,0,0-13.65-4.07,18.34,18.34,0,0,0-16.59,20.43A18.25,18.25,0,0,0,3183.73,710.27Z"/><polygon class="57668594-dc73-4ac0-aea8-38159f17fff5" points="3112.68 824.67 3190.51 728.81 3164.18 707.44 3086.34 803.3 3112.68 824.67"/><path class="57668594-dc73-4ac0-aea8-38159f17fff5" d="M1194.36,674.21q17,28.74,44,12.75L1263,672.4q27-16,10-44.73l-4.9-8.27-29.17,17.27,7,11.76a5.08,5.08,0,0,1,.6,3.76,4.44,4.44,0,0,1-2.16,3l-12,7.09a4.47,4.47,0,0,1-3.71.44,5.07,5.07,0,0,1-3-2.34l-13.15-22.21,49.42-29.27-20.36-34.4q-17-28.74-44-12.75l-24.6,14.56q-27,16-10,44.73Zm-5.47-78.52a4.46,4.46,0,0,1,2.17-3l12-7.09a4.43,4.43,0,0,1,3.71-.44,5.1,5.1,0,0,1,3,2.34l11.6,19.6-20.25,12-11.6-19.6A5.08,5.08,0,0,1,1188.9,595.69Z"/><path class="57668594-dc73-4ac0-aea8-38159f17fff5" d="M1335.36,630l-38.66-74.86q-4.06-7.87,3.58-11.82l14.84-7.66L1300,506.45l-5.85,3q-12.81,6.62-12.71,22.8L1276,521.7l-27.43,14.16,56.66,109.72Z"/><path class="57668594-dc73-4ac0-aea8-38159f17fff5" d="M1097.65,740q19,27.49,44.79,9.68l26.25-18.1q25.83-17.8,6.87-45.3l-12.06-17.5-27.71,19.1,14.37,20.83a5.11,5.11,0,0,1,.86,3.71,4.47,4.47,0,0,1-1.95,3.19l-13.12,9a4.51,4.51,0,0,1-3.68.69,5.07,5.07,0,0,1-3.15-2.13l-62.63-90.83a5.09,5.09,0,0,1-.87-3.7,4.43,4.43,0,0,1,2-3.19l13.12-9.05a4.42,4.42,0,0,1,3.67-.69,5.08,5.08,0,0,1,3.16,2.13l11.2,16.24,27.71-19.1-8.76-12.71q-19-27.5-44.79-9.68l-26.25,18.09q-25.83,17.82-6.87,45.31Z"/><path class="57668594-dc73-4ac0-aea8-38159f17fff5" d="M1400.91,601l21.59-10-9.23-20-9.19,4.25q-5.06,2.33-8.64,1.2t-6.56-7.56l-28.22-61.11,19.3-8.91-10.29-22.28-19.3,8.91-11.24-24.35-30.79,14.21,50.08,108.43Q1372.41,614.16,1400.91,601Z"/><path class="57668594-dc73-4ac0-aea8-38159f17fff5" d="M930.86,924l-68-69.37Q860,851,863.07,848l9.93-9.74a4.42,4.42,0,0,1,3.5-1.31,5.1,5.1,0,0,1,3.48,1.55l67.68,69,24.21-23.74L907,817.68q-23.39-23.85-45.79-1.88l-3.79,3.73q-9.41,9.21-10.56,18.86l-30.66-31.25L792,830.88,906.66,947.76Z"/><polygon class="57668594-dc73-4ac0-aea8-38159f17fff5" points="755.6 915.38 855.1 1004.54 878.74 978.15 779.24 889 796.97 869.21 774.53 849.11 715.43 915.07 737.87 935.17 755.6 915.38"/><path class="57668594-dc73-4ac0-aea8-38159f17fff5" d="M1392.5,450a18.24,18.24,0,0,0,14.24,0,18,18,0,0,0,10-9.88,17.69,17.69,0,0,0,0-14.24,18.06,18.06,0,0,0-10.09-10.21,17.82,17.82,0,0,0-14.12-.07,18.26,18.26,0,0,0-10.1,10,18.36,18.36,0,0,0,10,24.34Z"/><path class="57668594-dc73-4ac0-aea8-38159f17fff5" d="M969.17,844.56q21.66,25.42,45.54,5.08l21.77-18.54q23.88-20.35,2.23-45.78l-6.24-7.32-25.81,22,8.86,10.4a5.11,5.11,0,0,1,1.24,3.6,4.44,4.44,0,0,1-1.62,3.37l-10.59,9a4.49,4.49,0,0,1-3.59,1.06,5.1,5.1,0,0,1-3.36-1.8L980.86,806l43.72-37.25-25.92-30.44q-21.66-25.43-45.55-5.08l-21.76,18.54q-23.9,20.35-2.23,45.78ZM952,764.75l10.59-9a4.49,4.49,0,0,1,3.59-1.06,5.1,5.1,0,0,1,3.36,1.8l14.76,17.33L966.42,789l-14.77-17.33a5.11,5.11,0,0,1-1.24-3.6A4.44,4.44,0,0,1,952,764.75Z"/><path class="57668594-dc73-4ac0-aea8-38159f17fff5" d="M3626.77,2082.44c0-853.74-692.09-1545.83-1545.83-1545.83S535.11,1228.7,535.11,2082.44"/><path class="57668594-dc73-4ac0-aea8-38159f17fff5" d="M1527.11,399.73a18.18,18.18,0,0,0,14.19,1.19,18,18,0,0,0,10.81-9,17.65,17.65,0,0,0,1.19-14.19,18,18,0,0,0-9.21-11,17.78,17.78,0,0,0-14.07-1.23,18.22,18.22,0,0,0-10.89,9.17,18.35,18.35,0,0,0,8,25.08Z"/><rect class="57668594-dc73-4ac0-aea8-38159f17fff5" x="1546.14" y="407.66" width="33.92" height="123.48" transform="translate(-68.75 495.88) rotate(-17.64)"/><path class="57668594-dc73-4ac0-aea8-38159f17fff5" d="M1724,457.71q6.2,32.82,37,27l5.22-1q17.9-3.37,23.45-16.27l1.69,9,28.09-5.3-22.9-121.34-28.1,5.31,1.69,8.95q-9.87-10-27.77-6.6l-5.22,1q-30.84,5.82-24.64,38.64ZM1745.78,383a4.43,4.43,0,0,1,3.08-2.12l13.67-2.59a4.47,4.47,0,0,1,3.64.86,5.07,5.07,0,0,1,2,3.22l13,68.63a5.1,5.1,0,0,1-.71,3.74,4.4,4.4,0,0,1-3.07,2.12l-13.68,2.59a4.47,4.47,0,0,1-3.64-.86,5.07,5.07,0,0,1-2-3.22l-13-68.63A5.1,5.1,0,0,1,1745.78,383Z"/><polygon class="57668594-dc73-4ac0-aea8-38159f17fff5" points="1441.93 580.02 1473.3 567.11 1426.28 452.93 1394.92 465.84 1441.93 580.02"/><path class="57668594-dc73-4ac0-aea8-38159f17fff5" d="M1612.64,485.93q8.46,32.31,38.81,24.36l27.66-7.24q30.36-8,21.9-40.26l-4.49-17.14-32.8,8.59,5.51,21a5.09,5.09,0,0,1-.45,3.78,4.46,4.46,0,0,1-2.92,2.34l-13.46,3.52a4.47,4.47,0,0,1-3.69-.6,5.1,5.1,0,0,1-2.24-3.08l-17.7-67.56a5.1,5.1,0,0,1,.45-3.78,4.47,4.47,0,0,1,2.92-2.33l13.47-3.53a4.45,4.45,0,0,1,3.69.61,5.07,5.07,0,0,1,2.24,3.07l5.51,21,32.8-8.59-4.48-17.13q-8.46-32.31-38.82-24.36l-27.66,7.24q-30.34,7.95-21.89,40.26Z"/><path class="57668594-dc73-4ac0-aea8-38159f17fff5" d="M1495.22,558.35l31.87-11.57-33.43-92,20-7.25-8.73-24-20,7.25-2.51-6.89q-2.41-6.66-.67-10t7-5.23l9.51-3.46-7.95-21.88L1468,391.38q-29.49,10.72-18.09,42.11Z"/><path class="f43e14cb-776f-4e25-afcd-4ff481f82359" d="M3295,858.83a5.05,5.05,0,0,0,1.5-3.5,4.46,4.46,0,0,0-1.36-3.48l-9.91-9.77a4.44,4.44,0,0,0-3.5-1.32,5.09,5.09,0,0,0-3.48,1.54l-16,16.21L3279,875Z"/><path class="f43e14cb-776f-4e25-afcd-4ff481f82359" d="M2485,484l13.47,3.5a4.45,4.45,0,0,0,3.69-.61,5.08,5.08,0,0,0,2.23-3.08l19.16-73.71a5,5,0,0,0-.46-3.78,4.41,4.41,0,0,0-2.92-2.33l-13.47-3.5a4.44,4.44,0,0,0-3.69.61,5.1,5.1,0,0,0-2.24,3.08l-19.15,73.71a5.09,5.09,0,0,0,.45,3.78A4.48,4.48,0,0,0,2485,484Z"/><path class="f43e14cb-776f-4e25-afcd-4ff481f82359" d="M3314.53,990.7a4.43,4.43,0,0,0,3.4,1.55,5,5,0,0,0,3.57-1.3l52.28-46.32a5,5,0,0,0,1.72-3.39,4.42,4.42,0,0,0-1.12-3.56l-9.23-10.42a4.46,4.46,0,0,0-3.41-1.55,5.06,5.06,0,0,0-3.57,1.31l-52.27,46.31a5.09,5.09,0,0,0-1.73,3.39,4.46,4.46,0,0,0,1.13,3.57Z"/><path class="f43e14cb-776f-4e25-afcd-4ff481f82359" d="M2706.16,554.5l12.83,5.37a4.45,4.45,0,0,0,3.74-.08,5.09,5.09,0,0,0,2.65-2.73l26.95-64.43a5.07,5.07,0,0,0,.08-3.81,4.43,4.43,0,0,0-2.56-2.71L2737,480.73a4.45,4.45,0,0,0-3.74.09,5,5,0,0,0-2.65,2.73l-27,64.43a5.07,5.07,0,0,0-.08,3.81A4.42,4.42,0,0,0,2706.16,554.5Z"/><path class="f43e14cb-776f-4e25-afcd-4ff481f82359" d="M1201.11,619l20.25-12-11.6-19.6a5.1,5.1,0,0,0-3-2.34,4.43,4.43,0,0,0-3.71.44l-12,7.09a4.46,4.46,0,0,0-2.17,3,5.08,5.08,0,0,0,.61,3.76Z"/><path class="f43e14cb-776f-4e25-afcd-4ff481f82359" d="M966.42,789l17.91-15.26-14.76-17.33a5.1,5.1,0,0,0-3.36-1.8,4.49,4.49,0,0,0-3.59,1.06l-10.59,9a4.44,4.44,0,0,0-1.62,3.37,5.11,5.11,0,0,0,1.24,3.6Z"/><path class="f43e14cb-776f-4e25-afcd-4ff481f82359" d="M1758,455.4a5.07,5.07,0,0,0,2,3.22,4.47,4.47,0,0,0,3.64.86l13.68-2.59a4.4,4.4,0,0,0,3.07-2.12,5.1,5.1,0,0,0,.71-3.74l-13-68.63a5.07,5.07,0,0,0-2-3.22,4.47,4.47,0,0,0-3.64-.86l-13.67,2.59a4.43,4.43,0,0,0-3.08,2.12,5.1,5.1,0,0,0-.71,3.74Z"/><path class="f43e14cb-776f-4e25-afcd-4ff481f82359" d="M3378.45,905.66l3.53,4q8.55,9.66,9.21,19.56l32.76-29,22.49,25.38-122.53,108.57-19-21.4,6.82-6q-13.91,1.84-26-11.79l-3.53-4q-20.81-23.48,4.19-45.63l46.21-40.95Q3357.65,882.18,3378.45,905.66Zm-82.11-85.31,20.35,20.09q22.33,22-1.13,45.81l-28.08,28.46-40.88-40.35-18.13,18.37a5.07,5.07,0,0,0-1.5,3.5,4.46,4.46,0,0,0,1.36,3.48l9.91,9.77a4.45,4.45,0,0,0,3.5,1.32,5,5,0,0,0,3.47-1.54l9.6-9.73L3279,923.35l-6.76,6.84q-23.46,23.77-45.79,1.74l-20.35-20.09q-22.33-22,1.13-45.81l43.37-43.94Q3274,798.31,3296.34,820.35Zm-40.54-70.76L3238,769.68,3254,783.76l-16.25,18.39-15.93-14.08-44.57,50.43q-4.69,5.31-4.29,9.05t4.58,7.43l7.59,6.7-14.58,16.49-17.82-15.75q-23.52-20.78-1.39-45.81l79.1-89.48ZM3180.91,684a17.7,17.7,0,0,1,12.61-6.7,18.19,18.19,0,0,1,13.65,4.07,17.82,17.82,0,0,1,6.68,12.44,18.06,18.06,0,0,1-4.15,13.74,17.62,17.62,0,0,1-12.51,6.78,18,18,0,0,1-13.47-4.08,18.25,18.25,0,0,1-6.79-12.52A17.73,17.73,0,0,1,3180.91,684Zm9.59,44.79-77.83,95.86-26.33-21.37,77.84-95.86ZM3043.2,618.89l-3.62,5.19q11.5-2.76,24.57,6.36l1.87,1.31q15.34,10.73,14.7,24.46,13.09-5,28,5.39l1.87,1.3q25.71,18,6.59,45.35l-53,75.92-27.79-19.41,55.35-79.24a5.07,5.07,0,0,0,.89-3.71,4.45,4.45,0,0,0-1.93-3.2l-8.92-6.23a4.46,4.46,0,0,0-3.67-.71,5.07,5.07,0,0,0-3.17,2.11L3019.57,753l-27.79-19.42,55.35-79.24a5.05,5.05,0,0,0,.89-3.7,4.44,4.44,0,0,0-1.93-3.2l-8.92-6.23a4.46,4.46,0,0,0-3.67-.72,5.14,5.14,0,0,0-3.17,2.11L2975,721.86l-27.8-19.42,70.72-101.22Zm-69.08-76.56a17.73,17.73,0,0,1,11.55-8.41,18.21,18.21,0,0,1,14.08,2.11,17.78,17.78,0,0,1,8.37,11.38,18.1,18.1,0,0,1-2.18,14.19,17.68,17.68,0,0,1-11.44,8.47,18,18,0,0,1-13.91-2.15,18.23,18.23,0,0,1-8.48-11.44A17.74,17.74,0,0,1,2974.12,542.33Zm15.79,43-63.6,105.85-29.06-17.47,63.6-105.84ZM2892.49,484l31.16,16.84L2860,618.62,2894.07,637l-14.19,26.27L2814.65,628Zm-156.41-27.27-3.52,8.41q11.73-7.71,28.54-.68l4.9,2q28.95,12.1,16.06,42.92l-23.82,57q-12.9,30.81-41.84,18.7l-4.9-2q-11.91-5-16.8-13.61l-16.89,40.38-31.28-13.08,63.17-151Zm-172.57,36.1,29.63-87.74L2625.26,416l-30.93,91.58a5.06,5.06,0,0,0,.19,3.8,4.42,4.42,0,0,0,2.75,2.53l13.19,4.45a4.47,4.47,0,0,0,3.72-.34,5.07,5.07,0,0,0,2.45-2.91l30.92-91.58,32.13,10.84-39.51,117-29.24-9.88,2-6q-10.26,5.88-25.37.78l-5-1.7Q2552.83,524.5,2563.5,492.85Zm-58.63-114.51,27.68,7.19q30.36,7.89,22,40.22L2539,485.5q-8.4,32.33-38.77,24.44l-27.67-7.19q-30.37-7.89-22-40.22l15.53-59.76Q2474.5,370.44,2504.87,378.34Zm-80.13-15.52-2.36,11.65q10-12.68,24.19-9.83l6.45,1.3-6.52,32.24-16.37-3.31q-8.43-1.7-10.18,7l-16.69,82.59L2370,477.74l24.46-121Zm-161.94,67.6,14.21-101q4.65-33.07,35.72-28.7l31.57,4.44q31.08,4.37,26.42,37.45l-2.15,15.29-33.32-4.69,2.75-19.54a5.11,5.11,0,0,0-.89-3.7,4.45,4.45,0,0,0-3.17-2l-15.79-2.22a4.45,4.45,0,0,0-3.59,1,5.08,5.08,0,0,0-1.87,3.31l-15.37,109.24a5.13,5.13,0,0,0,.88,3.71,4.48,4.48,0,0,0,3.17,2l15.79,2.22a4.51,4.51,0,0,0,3.6-1,5.12,5.12,0,0,0,1.87-3.32l5.32-37.83-13-1.84,3.63-25.8,46.36,6.52-8.39,59.63q-4.67,33.08-35.73,28.71l-31.57-4.44Q2258.16,463.49,2262.8,430.42ZM2096.16,327.59l30.85,1.15-.24,6.32q8.17-8.56,24.1-8l5.31.2q31.37,1.17,30.11,34.55l-3.46,92.54L2149,453.14l3.61-96.6a5.08,5.08,0,0,0-1.26-3.59,4.46,4.46,0,0,0-3.36-1.65l-13.91-.52a4.47,4.47,0,0,0-3.47,1.39,5.09,5.09,0,0,0-1.52,3.49l-3.61,96.6L2091.55,451Zm-92-.62,28.58-.93q31.35-1,32.44,32.37l2,61.71q1.09,33.38-30.27,34.4l-28.58.92q-31.36,1-32.44-32.36l-2-61.71Q1972.77,328,2004.14,327Zm-50.82,129.1L1919.53,459l-10.6-123,33.78-2.91Zm-44.2-162.17a18.2,18.2,0,0,1,12.64-6.55,17.79,17.79,0,0,1,13.46,4.3,18.09,18.09,0,0,1,6.56,12.77,17.69,17.69,0,0,1-4.29,13.58,18,18,0,0,1-12.53,6.41,18.21,18.21,0,0,1-13.58-4.29,18.35,18.35,0,0,1-2.26-26.22Zm-51.84,20.76,3.39,26.61,21.09-2.69,3.1,24.35-21.09,2.69,8.51,66.77q.9,7,4,9.19c2.05,1.43,4.92,1.92,8.6,1.45l10-1.28,2.79,21.84-23.6,3q-31.12,4-35.35-29.16L1823.64,319Zm-120.13,43.72,5.22-1q17.89-3.38,27.77,6.6l-1.69-8.95,28.1-5.31,22.9,121.34-28.09,5.3-1.69-9q-5.55,12.9-23.45,16.27l-5.22,1q-30.84,5.82-37-27L1712.5,397Q1706.31,364.22,1737.15,358.39Zm-118.26,27.54,27.66-7.24q30.36-7.95,38.82,24.36l4.48,17.13-32.8,8.59-5.51-21a5.07,5.07,0,0,0-2.24-3.07,4.45,4.45,0,0,0-3.69-.61l-13.47,3.53a4.47,4.47,0,0,0-2.92,2.33,5.1,5.1,0,0,0-.45,3.78l17.7,67.56a5.1,5.1,0,0,0,2.24,3.08,4.47,4.47,0,0,0,3.69.6l13.46-3.52a4.46,4.46,0,0,0,2.92-2.34,5.09,5.09,0,0,0,.45-3.78l-5.51-21,32.8-8.59,4.49,17.14q8.46,32.31-21.9,40.26l-27.66,7.24q-30.35,8-38.81-24.36L1597,426.2Q1588.54,393.89,1618.89,385.94ZM1598,523.1l-32.32,10.28-37.44-117.67,32.32-10.28Zm-78.84-148.45a18.22,18.22,0,0,1,10.89-9.17,17.78,17.78,0,0,1,14.07,1.23,18,18,0,0,1,9.21,11,17.65,17.65,0,0,1-1.19,14.19,18,18,0,0,1-10.81,9,18.18,18.18,0,0,1-14.19-1.19,18.35,18.35,0,0,1-8-25.08ZM1468,391.38l22.35-8.12,7.95,21.88-9.51,3.46q-5.23,1.91-7,5.23t.67,10l2.51,6.89,20-7.25,8.73,24-20,7.25,33.43,92-31.87,11.57-45.35-124.86Q1438.48,402.09,1468,391.38Zm5.33,175.73L1441.93,580l-47-114.18,31.35-12.91Zm-90.81-141.44a18.26,18.26,0,0,1,10.1-10,17.82,17.82,0,0,1,14.12.07,18.06,18.06,0,0,1,10.09,10.21,17.69,17.69,0,0,1,0,14.24,18,18,0,0,1-10,9.88,18.24,18.24,0,0,1-14.24,0,18.36,18.36,0,0,1-10-24.34Zm-43.36,35.52,11.24,24.35,19.3-8.91L1380,498.91l-19.3,8.91,28.22,61.11q3,6.44,6.56,7.56t8.64-1.2l9.19-4.25,9.23,20-21.59,10q-28.49,13.16-42.49-17.17L1308.33,475.4ZM1276,521.7l5.46,10.57q-.1-16.19,12.71-22.8l5.85-3,15.09,29.23-14.84,7.66q-7.64,3.94-3.58,11.82L1335.36,630l-30.12,15.56-56.66-109.72ZM1172.9,576.35l24.6-14.56q27-16,44,12.75l20.36,34.4-49.42,29.27,13.15,22.21a5.07,5.07,0,0,0,3,2.34,4.47,4.47,0,0,0,3.71-.44l12-7.09a4.44,4.44,0,0,0,2.16-3,5.08,5.08,0,0,0-.6-3.76l-7-11.76,29.17-17.27,4.9,8.27q17,28.74-10,44.73L1238.37,687q-27,16-44-12.75l-31.46-53.13Q1145.9,592.34,1172.9,576.35Zm-126.26,34.34,26.25-18.09q25.83-17.82,44.79,9.68l8.76,12.71-27.71,19.1-11.2-16.24a5.08,5.08,0,0,0-3.16-2.13,4.42,4.42,0,0,0-3.67.69l-13.12,9.05a4.43,4.43,0,0,0-2,3.19,5.09,5.09,0,0,0,.87,3.7l62.63,90.83a5.07,5.07,0,0,0,3.15,2.13,4.51,4.51,0,0,0,3.68-.69l13.12-9a4.47,4.47,0,0,0,1.95-3.19,5.11,5.11,0,0,0-.86-3.71l-14.37-20.83,27.71-19.1,12.06,17.5q19,27.5-6.87,45.3l-26.25,18.1q-25.83,17.82-44.79-9.68l-57.88-84Q1020.81,628.5,1046.64,610.69ZM931.35,751.78l21.76-18.54q23.89-20.34,45.55,5.08l25.92,30.44L980.86,806l16.73,19.64a5.1,5.1,0,0,0,3.36,1.8,4.49,4.49,0,0,0,3.59-1.06l10.59-9a4.44,4.44,0,0,0,1.62-3.37,5.11,5.11,0,0,0-1.24-3.6l-8.86-10.4,25.81-22,6.24,7.32q21.65,25.42-2.23,45.78l-21.77,18.54q-23.88,20.34-45.54-5.08l-40-47Q907.46,772.13,931.35,751.78ZM816.22,807.14l30.66,31.25q1.16-9.64,10.56-18.86l3.79-3.73q22.41-22,45.79,1.88l64.85,66.12-24.21,23.74-67.68-69A5.1,5.1,0,0,0,876.5,837a4.42,4.42,0,0,0-3.5,1.31L863.07,848q-3.08,3-.25,6.62l68,69.37-24.21,23.74L792,830.88Zm-41.69,42L797,869.21,779.23,889l99.5,89.15-23.64,26.39-99.5-89.16-17.73,19.79-22.43-20.1Zm2911.4,2211.22c173.94-284.88,274.17-619.68,274.17-977.89,0-1037.83-841.33-1879.17-1879.17-1879.17S201.77,1044.6,201.77,2082.44c0,358.21,100.23,693,274.17,977.89l412.15,5.4c-220.52-267.21-353-609.78-353-983.29,0-853.74,692.09-1545.83,1545.83-1545.83S3626.77,1228.7,3626.77,2082.44c0,371-130.7,711.47-348.56,977.89Z"/><path class="f43e14cb-776f-4e25-afcd-4ff481f82359" d="M2011.49,432.57a4.42,4.42,0,0,0,3.46,1.4l13.91-.45a4.47,4.47,0,0,0,3.37-1.63,5,5,0,0,0,1.27-3.58L2031,352.18a5.06,5.06,0,0,0-1.5-3.49,4.46,4.46,0,0,0-3.47-1.41l-13.9.45a4.46,4.46,0,0,0-3.37,1.63,5.12,5.12,0,0,0-1.28,3.59l2.47,76.12A5.14,5.14,0,0,0,2011.49,432.57Z"/></g><path class="f43e14cb-776f-4e25-afcd-4ff481f82359" d="M359.4,1739.74V1479.48h954.85v260.26H1027.74V2894.52h-382V1739.74Z"/><path class="f43e14cb-776f-4e25-afcd-4ff481f82359" d="M2144.24,2662.69V2444h362.88V2627.7q0,288.69-338.27,288.69H1825.11q-338.45,0-338.45-288.69V1746.3q0-288.69,338.45-288.69h343.74q338.44,0,338.27,288.69v133.42H2144.24v-170.6c0-11.66-4.92-21.87-14.94-30.62s-22.24-13.12-36.82-13.12H1920.61c-14.58,0-27,4.38-36.81,13.12-10,8.75-15.13,19-15.13,30.62v953.57c0,11.67,5.1,21.87,15.13,30.62,9.84,8.75,22.23,13.12,36.81,13.12h171.87c14.58,0,26.79-4.37,36.82-13.12S2144.24,2674.36,2144.24,2662.69Z"/><path class="f43e14cb-776f-4e25-afcd-4ff481f82359" d="M3250.54,2332.44V2107.17h504.67V2627.7q0,288.69-338.26,288.69H3073.21q-338.46,0-338.45-288.69V1746.3q0-288.69,338.45-288.69H3417q338.44,0,338.26,288.69v133.42H3392.34v-170.6c0-11.66-4.92-21.87-14.95-30.62s-22.23-13.12-36.81-13.12H3168.71c-14.58,0-27,4.38-36.82,13.12-10,8.75-15.12,19-15.12,30.62v953.57c0,11.67,5.1,21.87,15.12,30.62,9.85,8.75,22.24,13.12,36.82,13.12h171.87c14.58,0,26.79-4.37,36.81-13.12s14.95-18.95,14.95-30.62V2332.44Z"/><g id="acc43ad2-b888-4cf7-a705-b8c56559d204" data-name="ISO Box"><g id="de3e8a6d-1758-4994-8124-7290b056cc9b" data-name="dp path055"><path class="f43e14cb-776f-4e25-afcd-4ff481f82359" d="M4183.11,4037.88H0V3060.33H4183.11ZM72,3965.88H4111.11V3132.33H72Z"/></g></g><g id="240cec46-96fd-4a2e-b3ca-9a601d8a99d4" data-name="22301"><g id="d7795c2f-7ae1-450e-afe1-ba5a92795e79" data-name="22000"><g id="13fc65f7-8eb1-42d6-ac88-7f2afb53a0d5" data-name="13485"><g id="df07c531-26a5-4704-8179-e1dff350df67" data-name="27001"><g id="5058bc16-893f-4db8-8c61-8a3547794a21" data-name="dp path087"><path class="f43e14cb-776f-4e25-afcd-4ff481f82359" d="M415.63,3780.92l-.68-429.5,57-.09.68,429.5Z"/></g><g id="7309ef5d-cab7-4429-b05c-34345b1de4d5" data-name="dp path088"><path class="f43e14cb-776f-4e25-afcd-4ff481f82359" d="M641.35,3642.06l53.5-4.58q3.87,32.38,17.73,53.12t43.1,33.48q29.2,12.78,65.62,12.7,32.4,0,57.19-9.79t36.86-26.71q12-17,12-36.82,0-20.1-11.71-35.13t-38.54-25.19Q860,3596.42,801,3582.31t-82.74-26.72q-30.78-16.08-46-40t-15.19-53.52q0-32.55,18.31-60.93t53.78-43.09q35.3-14.67,78.62-14.77,47.64-.08,84.08,15.27t56.07,45.26q19.62,29.89,21.16,67.72l-54.5,4.08q-4.41-40.56-29.69-61.25t-74.59-20.58q-51.37.08-74.82,19t-23.42,45.59q0,23.1,16.71,38,16.29,15,85.39,30.51t94.8,27.2q37.52,17.19,55.47,43.62t17.94,60.92q.06,34.2-19.5,64.48t-56.17,47.19q-36.66,16.86-82.48,16.93-58.2.09-97.47-16.85T665,3719.33Q642.57,3685.16,641.35,3642.06Z"/></g><g id="ce288939-8a78-4583-a7aa-dab6a1179f02" data-name="dp path089"><path class="f43e14cb-776f-4e25-afcd-4ff481f82359" d="M1130.79,3570.49q-.18-106.8,57.13-167.34T1336,3342.47q59.4-.09,107.19,28.23t72.88,79q25.13,50.73,25.23,115.16.11,65.25-26.17,116.79t-74.53,78.12a213.45,213.45,0,0,1-104.2,26.66q-60.6.09-108.4-29.08a188.77,188.77,0,0,1-72.43-79.78A242.42,242.42,0,0,1,1130.79,3570.49Zm58.5.91q.12,77.55,41.94,122.09T1336,3738q64.13-.09,105.53-45.21t41.25-128q-.09-52.42-17.85-91.42T1413,3412.85q-34.16-21.47-76.63-21.38-60.37.09-103.79,41.56T1189.29,3571.4Z"/></g><g id="d7580971-95bc-4e79-bf5c-913c6fb9775a" data-name="dp path090"><path class="f43e14cb-776f-4e25-afcd-4ff481f82359" d="M2213.72,3727.59l.08,50.5-284.5.45a93.12,93.12,0,0,1,6.14-36.66q10.91-29,35-57.2t69-64.86q69.81-57.5,94.66-91.1t24.75-63.59q0-31.35-22.63-52.86t-58.84-21.46q-38.4.06-61.31,22.89t-23.2,63.24l-54-5.41q5.46-60.54,41.86-92.32t97.74-31.9q62-.11,98.16,34.09t36.23,84.89a128.42,128.42,0,0,1-10.52,50.67q-10.53,24.91-35,52.51T2086,3645.14q-47.49,40-61.06,54.2a173.76,173.76,0,0,0-22.46,28.59Z"/></g><g id="d25ca9d4-3b81-492c-8c97-c83a3bfe75de" data-name="dp path091"><path class="f43e14cb-776f-4e25-afcd-4ff481f82359" d="M2362.16,3404.36l-.08-50.5,278-.44.06,40.85q-41,43.72-81.21,116.18a706.15,706.15,0,0,0-62.12,149.05q-15.73,54-20.06,118.18l-54,.09q.81-50.72,19.75-122.59A642.18,642.18,0,0,1,2497,3516.6q35.52-66.81,75.67-112.57Z"/></g><g id="73af901b-47fc-42a5-987d-b2a74c0ef078" data-name="dp path092"><path class="f43e14cb-776f-4e25-afcd-4ff481f82359" d="M2781.36,3565.35q-.12-76,15.45-122.62t46.49-71.58q30.87-25.1,77.71-25.17,34.57,0,60.77,13.81t43.12,40q16.91,26.14,26.65,63.71t9.81,101.38q.12,75.45-15.31,122t-46.34,71.72q-30.85,25.25-78,25.32-62.1.1-97.62-44.1Q2781.54,3686.18,2781.36,3565.35Zm54-.23q.17,105.83,25,140.61t61.25,34.75q36.38-.06,61.15-35.09t24.58-140.54q-.18-105.9-25-140.66t-61.9-34.71q-36.37.06-58.2,30.79Q2835.19,3459.54,2835.36,3565.12Z"/></g><g id="6f1f6879-d8a3-4918-b29f-af2e3093cdb5" data-name="dp path093"><path class="f43e14cb-776f-4e25-afcd-4ff481f82359" d="M3203.8,3564.69q-.12-76.05,15.46-122.63t46.48-71.57q30.87-25.09,77.72-25.17,34.56-.06,60.77,13.8t43.11,40q16.92,26.16,26.65,63.71t9.81,101.39q.12,75.45-15.31,122T3422.15,3758q-30.85,25.26-78,25.33-62.1.09-97.62-44.1Q3204,3685.52,3203.8,3564.69Zm54-.24q.16,105.83,25,140.61t61.26,34.76q36.36-.06,61.14-35.1t24.58-140.54q-.16-105.9-25-140.66t-61.91-34.7q-36.37.06-58.2,30.79Q3257.63,3458.88,3257.8,3564.45Z"/></g><g id="94626b43-00e5-40d1-a63d-a73d2193bfff" data-name="dp path094"><path class="f43e14cb-776f-4e25-afcd-4ff481f82359" d="M3825.08,3775.56l-52.5.09-.53-335.86q-19,18.18-49.89,36.38t-55.51,27.34l-.08-50.95q44.22-20.85,77.22-50.47t46.76-57.47l33.85-.06Z"/></g></g></g></g></g></g></g></svg>