<svg xmlns="http://www.w3.org/2000/svg" width="249.08" height="249.08" viewBox="0 0 249.08 249.08">
  <title>icons</title>
  <g>
    <circle cx="134.53" cy="158.51" r="80.54" style="fill: #e597c6"/>
    <g>
      <path d="M42.52,171.95s8.79-19.08,35.39-12.49a144.16,144.16,0,0,1,28.68,10.66s-3.52-22.19-2.53-25.88,5.46-19.61,7.83-21.18-16,1.32-26.27,6-34.92,20.74-40,31S42.52,171.95,42.52,171.95Z" style="fill: #411b6b"/>
      <path d="M42.65,172.55l-0.37-.33c-0.22-.2-2-2.21,3-12.39,3-6.1,12.69-13.71,18.17-17.7a145.27,145.27,0,0,1,22-13.43c7-3.2,26-7.79,26.95-6.1a0.55,0.55,0,0,1-.32.76c-2,1.29-5.87,14.28-7.67,21-1,3.58,2.5,25.5,2.54,25.73l0.11,0.71-0.64-.32a145.12,145.12,0,0,0-28.6-10.63c-26-6.44-34.89,12.09-35,12.28ZM111.24,123c-3.22,0-17.16,2.61-25.47,6.39C76.09,133.79,51,150,46,160.17c-3.41,6.87-3.57,9.81-3.39,10.91,2-3.43,11.82-17.83,35.43-12a145.8,145.8,0,0,1,28.12,10.37c-0.6-3.88-3.32-21.93-2.41-25.33,0.85-3.16,5.09-18.53,7.7-21.15h-0.16Z"/>
    </g>
    <g>
      <path d="M141,151.33l-5.82-1.26,1.19,5.32A6.82,6.82,0,0,0,137.7,157c0.32,0,3-.13,3-0.13l0.43-5.64" style="fill: #898989"/>
      <path d="M137.91,157.42h-0.26c-0.13,0-.49-0.07-1.6-1.84l0-.12-1.31-5.88,6.38,1.38-0.07.3,0.54,0-0.46,6-0.32,0C140.22,157.32,138.59,157.42,137.91,157.42Zm-1.2-2.18a7.6,7.6,0,0,0,1.1,1.46c0.13,0,1.37-.06,2.59-0.13l0.38-4.91-5.12-1.11Z"/>
    </g>
    <g>
      <path d="M106.81,197.76s-2,9.51,3.5,14.08,11.28,0.89,11.28.89,2.2-3.67-3.57-5.92S109.92,203.53,106.81,197.76Z" style="fill: #fff"/>
      <path d="M116.38,214.49a9.63,9.63,0,0,1-6.31-2.36c-5.58-4.66-3.7-14-3.62-14.44l0.21-1,0.48,0.89c3,5.54,5,6.54,11,8.88,2.18,0.85,3.53,2,4,3.43a3.83,3.83,0,0,1-.27,3l-0.12.12A11.18,11.18,0,0,1,116.38,214.49ZM107,198.88c-0.31,2.56-.65,9.18,3.53,12.68a9.34,9.34,0,0,0,10.77.91,3.13,3.13,0,0,0,.16-2.34c-0.42-1.21-1.62-2.21-3.59-3C112.19,204.93,109.86,203.82,107,198.88Z"/>
    </g>
    <g>
      <path d="M106.81,197.76s1.47,11.06,5.9,12.92,8.07,0.64,8.32.33,0.83-1,.67-1.32a6.66,6.66,0,0,0-4.65-3.27C113.65,205.63,106.91,200.13,106.81,197.76Z" style="fill: #eec1c1"/>
      <path d="M117.6,212.06a13,13,0,0,1-5-1c-4.22-1.77-5.82-11.13-6.08-12.93a1.75,1.75,0,0,1,0-.32l0.74-.06,0,0.31c0.58,2.26,6.69,7.29,9.9,8a7.13,7.13,0,0,1,4.89,3.44c0.26,0.49-.18,1.09-0.65,1.67C121.1,211.51,119.66,212.06,117.6,212.06Zm-10-11.94c0.7,3.31,2.3,9,5.24,10.22,4.29,1.8,7.66.6,7.91,0.41a2.33,2.33,0,0,0,.59-0.92,6.44,6.44,0,0,0-4.4-3C114.37,206.18,109.77,202.84,107.62,200.12Z"/>
    </g>
    <g>
      <path d="M141.12,208.25s2.36,4.49,3.61,4.67,6.25-3.07,6.59-3.58,8.35-4.65,8.29-6.64-1.3-6.8-9.63-3S141.12,208.25,141.12,208.25Z" style="fill: #fff"/>
      <path d="M144.82,213.3h-0.14c-1.36-.21-3.47-4.09-3.88-4.87l-0.05-.1v-0.11c0-.2.65-5.06,9.07-8.87,3.56-1.61,6.27-1.87,8.06-.76a5,5,0,0,1,2.09,4.11c0,1.52-3.16,3.62-6.73,5.82a18.26,18.26,0,0,0-1.63,1.06C151.2,210.2,146.41,213.3,144.82,213.3Zm-3.31-5.11c1,1.79,2.56,4.26,3.28,4.37,1.06,0.16,5.86-2.93,6.23-3.42a8.27,8.27,0,0,1,1.84-1.25c1.92-1.18,6.42-3.95,6.38-5.17a4.27,4.27,0,0,0-1.74-3.5c-1.56-1-4-.7-7.36.8C142.8,203.33,141.65,207.48,141.51,208.19Z"/>
    </g>
    <g>
      <path d="M143.33,211.75s6.18-2.43,9.14-6.14a43.57,43.57,0,0,1,5.64-5.91l-2.75-1.46a14.63,14.63,0,0,0-5.76,1.62c-2.31,1.41-5.64,3.74-5.64,3.74l-2.85,4.66Z" style="fill: #eec1c1"/>
      <path d="M143.18,212.2l-2.49-3.95,3.07-5s3.37-2.35,5.66-3.75a14.84,14.84,0,0,1,5.93-1.67h0.1l3.32,1.77-0.43.35a43.81,43.81,0,0,0-5.59,5.86c-3,3.74-9,6.15-9.29,6.25Zm-1.62-4,1.92,3c1.23-.52,6.2-2.77,8.71-5.91a46.6,46.6,0,0,1,5.28-5.61l-2.18-1.16a14.08,14.08,0,0,0-5.49,1.56c-2.1,1.29-5.09,3.36-5.56,3.68Z"/>
    </g>
    <g>
      <path d="M173.83,177.46S146.22,162.89,138.4,162s0.3,3.88.3,3.88,28.07,10.17,31.57,13.14S173.83,177.46,173.83,177.46Z" style="fill: #898989"/>
      <path d="M172.29,180.4a3.77,3.77,0,0,1-2.26-1.09c-3.41-2.89-31.18-13-31.46-13.07-1.35-.79-4.31-2.68-3.9-3.92,0.24-.73,1.41-0.94,3.77-0.68,7.8,0.88,34.43,14.9,35.56,15.5l0.2,0.11v0.23c0,0.23-.06,2.24-1.28,2.8A1.5,1.5,0,0,1,172.29,180.4Zm-35.55-18.13c-1.26,0-1.37.28-1.37,0.28-0.14.42,1.53,1.86,3.51,3C140,166,167,175.77,170.51,178.74c0.91,0.77,1.63,1.07,2.1.85a2.44,2.44,0,0,0,.84-1.92c-2.56-1.34-27.78-14.48-35.09-15.31A14.56,14.56,0,0,0,136.74,162.27Z"/>
    </g>
    <g>
      <path d="M169,178.17l-15.93.69,0.42,3.2,16.94,0s2.76-2.26.81-3S169,178.17,169,178.17Z" style="fill: #898989"/>
      <path d="M170.52,182.48l-17.4,0-0.52-3.93,16.44-.72,0.09,0.05s0.39,0.2,2.19.9a1.29,1.29,0,0,1,.92,1c0.18,1.14-1.44,2.51-1.62,2.66Zm-16.75-.78,16.48,0c0.6-.52,1.34-1.4,1.26-1.89a0.56,0.56,0,0,0-.45-0.41c-1.43-.55-2-0.8-2.19-0.89l-15.43.67Z"/>
    </g>
    <g>
      <path d="M168,150.62l9.31,40.94,4.44-.45-9.1-40.48S169.22,149.58,168,150.62Z" style="fill: #898989"/>
      <path d="M177,192l-9.43-41.48,0.17-.15c1.33-1.14,4.63-.18,5-0.06l0.21,0.06,0,0.21,9.19,40.89Zm-8.61-41.19,9.19,40.38,3.7-.38-9-39.86C171.37,150.66,169.34,150.26,168.41,150.78Z"/>
    </g>
    <g>
      <path d="M167.51,177.41s0.84,6.29,1.52,6.73,12.11-.77,12.74-1.32-0.83-7-1.26-7.15S168.58,176.54,167.51,177.41Z" style="fill: #898989"/>
      <path d="M170.08,184.58a3.44,3.44,0,0,1-1.25-.13c-0.71-.46-1.36-4.58-1.69-7l0-.21,0.16-.13c1.2-1,12.87-2,13.38-1.8,0.7,0.3,1.45,4.86,1.46,4.91,0.38,2.44.05,2.72-.1,2.86C181.36,183.66,173.29,184.58,170.08,184.58Zm-2.18-7c0.38,2.78,1,5.88,1.34,6.24,0.85,0.29,11.47-.81,12.3-1.32,0.29-.56-0.76-5.7-1.23-6.52C179.17,175.91,169.49,176.92,167.91,177.6Z"/>
    </g>
    <g>
      <path d="M172.45,180.14a1.13,1.13,0,0,1-1.94.8c-0.61-1.18-.24-1.55.87-1.91,0.37,0,.37.37,0.72,0.36A1,1,0,0,1,172.45,180.14Z" style="fill: #898989"/>
      <path d="M171.32,181.65h0a1.5,1.5,0,0,1-1.06-.44l-0.07-.09a1.78,1.78,0,0,1-.26-1.5,1.93,1.93,0,0,1,1.34-.93l0.12,0a0.84,0.84,0,0,1,.63.29l0.07,0.07h0.14l0.12,0.09a1.36,1.36,0,0,1,.48,1h0A1.5,1.5,0,0,1,171.32,181.65Zm-0.51-.93a0.76,0.76,0,0,0,.5.19h0a0.76,0.76,0,0,0,.76-0.76h0a0.62,0.62,0,0,0-.14-0.4,0.83,0.83,0,0,1-.45-0.27l-0.07-.07a1.3,1.3,0,0,0-.8.48A1.18,1.18,0,0,0,170.81,180.72Z"/>
    </g>
    <g>
      <path d="M128.48,189.55s5.21,16.46,10.25,19.15c0,0,11.05-.91,11.26-10.47,0,0-9.2-18.08-10.7-28.9,0,0-4.81-5.58-5.3-6.17s-3.88.51-4.91,3.65-2.7,8.6-2.7,8.6Z" style="fill: #639"/>
      <path d="M138.65,209.08l-0.1-.05c-5.11-2.73-10.21-18.69-10.43-19.37v-0.06L126,175.4l0-.08c0-.05,1.69-5.5,2.7-8.61a6.12,6.12,0,0,1,4.32-4,1.24,1.24,0,0,1,1.23.24c0.48,0.58,5.25,6.11,5.29,6.17l0.07,0.08,0,0.11c1.47,10.63,10.57,28.6,10.66,28.78l0,0.08v0.09c-0.21,9.78-11.49,10.82-11.6,10.83h-0.11Zm-9.81-19.61c0.24,0.76,5.24,16.16,10,18.86,1.19-.12,10.56-1.37,10.81-10-0.68-1.35-9.19-18.43-10.67-28.82-0.62-.72-4.77-5.54-5.23-6.1a1.84,1.84,0,0,0-1,.15,5.44,5.44,0,0,0-3.27,3.38c-0.94,2.9-2.46,7.83-2.67,8.52Z"/>
    </g>
    <g>
      <path d="M91.34,186s-0.92-1.85,1.36-3.14l20.23-11.47s2.49,0.08,1.77,1.61a14.08,14.08,0,0,1-2.73,3.34s-13.67,8.32-14.35,8.75S92.63,188.21,91.34,186Z" style="fill: #898989"/>
      <path d="M93,187.22a3,3,0,0,1-.7-0.08,2,2,0,0,1-1.31-1v0s-1-2.18,1.51-3.62l20.23-11.47,0.09-.05h0.1a2.82,2.82,0,0,1,2.1.88,1.26,1.26,0,0,1,0,1.26,14.26,14.26,0,0,1-2.81,3.46c-0.19.13-13.73,8.37-14.4,8.79A10.48,10.48,0,0,1,93,187.22Zm-1.36-1.41a1.28,1.28,0,0,0,.84.61c1,0.26,2.88-.37,4.92-1.66,0.67-.43,13.79-8.41,14.36-8.75h0a14,14,0,0,0,2.58-3.18,0.54,0.54,0,0,0,0-.56,2.08,2.08,0,0,0-1.39-.52L92.88,183.17C91,184.22,91.57,185.61,91.66,185.81Z"/>
    </g>
    <g>
      <path d="M112.2,176.62s4.28,7.39-5.82,18.58c0,0,.22,6.13,4.9,8.82s6.81,2.51,7.36,2.42,16-21.88,11.81-32.09l-1.66-2.94s-16.16,2.3-16.82,3.22A1.76,1.76,0,0,0,112.2,176.62Z" style="fill: #639"/>
      <path d="M118.08,206.85c-1.19,0-3.38-.43-7-2.51-4.81-2.76-5.08-8.87-5.08-9.13v-0.15l0.1-.11c5.12-5.67,6.41-10.31,6.6-13.2a9.64,9.64,0,0,0-.81-4.92,2.08,2.08,0,0,1-.21-2.41c0.68-.95,12.16-2.68,17.07-3.38l0.25,0,1.78,3.16c2.56,6.17-1.69,16-5.71,23.2-2.46,4.41-5.8,9.35-6.37,9.44A4,4,0,0,1,118.08,206.85Zm-11.32-11.52c0.07,0.93.65,6,4.7,8.37s6.26,2.48,7,2.39c1.19-1.19,15.69-21.74,11.62-31.6l-1.51-2.68c-7.48,1.07-15.69,2.5-16.34,3.06a1.39,1.39,0,0,0,.22,1.52l0,0C112.7,176.75,116.79,184.14,106.76,195.33Z"/>
    </g>
    <g>
      <path d="M91.67,184.2s-2.59,1.33-.52,4c0,0,31.42-1.47,36.87-1.24s23.62,0.55,23.62.55,2.26-3.94-.47-3.94S94.86,183.1,91.67,184.2Z" style="fill: #898989"/>
      <path d="M91,188.55l-0.12-.15a3.21,3.21,0,0,1-.83-2.67,3,3,0,0,1,1.47-1.85l0,0c2.46-.85,32.83-0.84,57.86-0.69h1.77a1.59,1.59,0,0,1,1.5.72c0.71,1.23-.56,3.52-0.71,3.78l-0.11.19h-0.22c-0.18,0-18.24-.32-23.63-0.55s-36.53,1.22-36.84,1.24H91Zm0.84-4a2.26,2.26,0,0,0-1.07,1.35,2.41,2.41,0,0,0,.57,1.9c2.66-.12,31.54-1.44,36.71-1.23s21.29,0.51,23.39.54c0.45-.86,1-2.25.61-2.85a0.84,0.84,0,0,0-.86-0.35H149.4C102.15,183.61,93,184.17,91.82,184.54Z"/>
    </g>
    <g>
      <path d="M102.22,156.36s-3.29,1.3-3.63,11.65c-0.41,12.62-.14,32.77-0.14,32.77s0.3,2.4-.75,2.46-2.53.73-3-.25-0.21-39.06.41-42.51-0.15-5.28,4.45-7.26,3.51-1.53,3.51-1.53S104.11,155,102.22,156.36Z" style="fill: #898989"/>
      <path d="M95.7,203.9a1.36,1.36,0,0,1-1.35-.74c-0.55-1.12-.22-39.46.38-42.74,0.11-.63.18-1.2,0.24-1.73,0.28-2.38.48-4.1,4.43-5.8l3.21-1.39v0l0.31-.13c0.3-.12.5-0.07,0.59,0.16a0.22,0.22,0,0,1,0,.3c0.21,0.82.76,3.57-1,4.85l-0.07,0c-0.07,0-3.08,1.52-3.4,11.32-0.41,12.47-.14,32.56-0.14,32.76a4,4,0,0,1-.39,2.48,1,1,0,0,1-.7.36,6.74,6.74,0,0,0-.85.13A6.39,6.39,0,0,1,95.7,203.9Zm7.1-51.69c-0.56.27-1.51,0.68-3.11,1.37-3.56,1.53-3.71,2.84-4,5.21-0.06.54-.13,1.13-0.25,1.78-0.55,3.06-.94,40.62-0.43,42.3,0.21,0.41.78,0.34,1.71,0.16a7.58,7.58,0,0,1,.95-0.14,0.23,0.23,0,0,0,.18-0.09,3.48,3.48,0,0,0,.22-2c0-.24-0.27-20.34.14-32.83,0.32-9.9,3.36-11.74,3.81-12C103.29,155.11,103,153.06,102.81,152.2Z"/>
    </g>
    <g>
      <path d="M102.38,151.65s0.72,21.85,2.2,23.34,25.51-.22,26.62-1.6,2.7-9.63,2.7-9.63,5.89,8.36,8.29,9.57c0,0-5.79-13.23-5.4-22.84,0,0-.51-4.81,1.09-7s5.22-5.9,10.76-5c0,0-3.58-7.2-4.36-10.17,0,0-10.4-.77-11.69-1.79s-13.38-8.31-13.75-9.12,0.3-.15-4.66,2.88-11.09,4.32-15.22,16A35.77,35.77,0,0,0,97.17,143S95.67,147.28,102.38,151.65Z" style="fill: #e597c6"/>
      <path d="M110,175.93c-2.73,0-5.14-.16-5.67-0.68-1.48-1.48-2.16-19.32-2.3-23.39-6.69-4.44-5.26-8.8-5.2-9a36.07,36.07,0,0,1,1.81-6.66c3.47-9.84,8.4-12.46,12.76-14.77,0.91-.48,1.77-0.94,2.61-1.45a26.11,26.11,0,0,0,4.07-2.91,0.76,0.76,0,0,1,.69-0.34,0.57,0.57,0,0,1,.38.4l0.05,0.12c0.36,0.52,5.45,3.73,8.82,5.86,2.41,1.52,4.32,2.73,4.82,3.12,0.88,0.69,7.51,1.42,11.48,1.71l0.26,0,0.07,0.25c0.76,2.9,4.3,10,4.34,10.1l0.32,0.65-0.72-.12c-5.36-.9-8.81,2.63-10.4,4.82s-1,6.72-1,6.76c-0.38,9.47,5.31,22.6,5.37,22.73l0.41,0.94-0.92-.46c-2.06-1-6.44-6.93-7.93-9-0.45,2.22-1.65,7.76-2.61,9-1.09,1.35-15.24,2.12-15.38,2.13C114.36,175.84,112.08,175.93,110,175.93Zm8.57-58.29a26.88,26.88,0,0,1-4.17,3c-0.86.53-1.73,1-2.65,1.48-4.44,2.35-9,4.79-12.41,14.37a35.7,35.7,0,0,0-1.79,6.58c-0.07.23-1.3,4.15,5,8.29l0.16,0.11v0.19c0.28,8.39,1.09,22.08,2.09,23.09,1.26,1.24,24.66-.17,26.07-1.58,0.86-1.07,2.19-7.2,2.62-9.47l0.16-.85,0.5,0.71c0.05,0.07,4.51,6.37,7.15,8.72-1.4-3.5-5.25-13.9-4.93-21.79,0-.15-0.51-4.92,1.16-7.22s5.08-5.77,10.42-5.21a81,81,0,0,1-4-9.36c-1.86-.14-10.36-0.85-11.63-1.85-0.47-.37-2.45-1.62-4.75-3.08C121.64,120,119,118.23,118.56,117.64Z"/>
    </g>
    <g>
      <path d="M113.49,157.76s-2.36,0-5.64,2.36-8.93,6.72-9.81,7.79,2.47,1.76,3.4,1.72,7.41-6,10.74-7.78S113.49,157.76,113.49,157.76Z" style="fill: #898989"/>
      <path d="M101.36,170c-0.87,0-3.28-.43-3.75-1.37a0.83,0.83,0,0,1,.14-1c1-1.16,6.91-5.68,9.88-7.85,3.35-2.44,5.76-2.46,5.87-2.43h0.16l0.11,0.13a3,3,0,0,1,.66,2.31,3.53,3.53,0,0,1-2.08,2.34,54.17,54.17,0,0,0-6.63,4.82c-2.69,2.16-3.76,3-4.27,3h-0.1Zm12-11.85a10.9,10.9,0,0,0-5.25,2.28c-3.53,2.57-8.94,6.75-9.75,7.72-0.08.09-.06,0.13-0.05,0.15,0.24,0.49,2.27,1,3.15,1a27.71,27.71,0,0,0,3.84-2.83,53.53,53.53,0,0,1,6.75-4.9,2.86,2.86,0,0,0,1.69-1.82A2.17,2.17,0,0,0,113.31,158.14Z"/>
    </g>
    <g>
      <path d="M91.95,188.79s-0.47,2.43,1,2.93a3.11,3.11,0,0,0,3.36-1.07,1.39,1.39,0,0,0-.92-2.1C94.07,188.24,92.72,187.87,91.95,188.79Z" style="fill: #898989"/>
      <path d="M93.81,192.22a3.07,3.07,0,0,1-1-.16c-1.76-.59-1.28-3.24-1.25-3.35l0-.09,0.06-.07c0.88-1.06,2.35-.71,3.64-0.4l0.18,0a1.7,1.7,0,0,1,1.22.88,2.12,2.12,0,0,1,0,1.73A3.39,3.39,0,0,1,93.81,192.22ZM92.29,189c-0.06.42-.23,2.07,0.78,2.41a2.79,2.79,0,0,0,2.91-.87A1.38,1.38,0,0,0,96,189.4a1,1,0,0,0-.72-0.49l-0.18,0C94,188.6,92.9,188.34,92.29,189Z"/>
    </g>
    <g>
      <path d="M151.66,181.69s-55-12.55-57.69-14.4c0,0-3.42.55-1.86,3.32,0,0,39.71,12.39,56.34,12.92Z" style="fill: #898989"/>
      <path d="M148.54,183.91h-0.1c-16.49-.53-56-12.81-56.44-12.93l-0.14,0-0.07-.13a2.48,2.48,0,0,1-.27-2.36,3.47,3.47,0,0,1,2.39-1.51l0.15,0L94.18,167c2.07,1.43,38.56,10,57.56,14.34l0.92,0.21Zm-56.18-13.6c2.63,0.81,40,12.3,56,12.85l2.3-1.32c-7.35-1.68-52.94-12.16-56.75-14.16a2.61,2.61,0,0,0-1.72,1.08A1.72,1.72,0,0,0,92.37,170.31Z"/>
    </g>
    <circle cx="96.73" cy="209.93" r="5.52" transform="translate(-113.43 306.15) rotate(-89.86)"/>
    <path d="M169.34,207.77a9.14,9.14,0,0,1-1.58,5.13,8.72,8.72,0,0,1-1.13,1.35c-3.85,3.94-10.87,2.45-14.1-1.39a9,9,0,0,1-.84-1.56A9.18,9.18,0,1,1,169.34,207.77Z"/>
    <path d="M191,202a8.64,8.64,0,0,1-1.5,4.85c-3.38,5.49-12.25,5.09-15.56-.46-1.84-3-.72-6.66,1.17-9.28a7.93,7.93,0,0,1,1.25-1.34c3.21-2.71,8.48-2.64,12.11.08A8.65,8.65,0,0,1,191,202Z"/>
    <g>
      <path d="M177.57,192.84l4.54,10.94a0.39,0.39,0,0,0,.71,0l5.91-11.62S179.48,191.68,177.57,192.84Z" style="fill: #898989"/>
      <path d="M182.46,204.39h0a0.75,0.75,0,0,1-.67-0.47l-4.66-11.23,0.27-.16c2-1.19,10.41-.76,11.37-0.7l0.57,0L183.14,204A0.75,0.75,0,0,1,182.46,204.39ZM178,193l4.4,10.62,5.69-11.11C185.42,192.41,179.84,192.32,178,193Z"/>
    </g>
    <g>
      <path d="M154.29,197.56s3.72,10.87,4.27,11.52,1.06,0.37,2-2.72,4.22-8.21,4.36-8.77S154.29,197.56,154.29,197.56Z" style="fill: #898989"/>
      <path d="M159,209.73a1,1,0,0,1-.73-0.42c-0.57-.67-3.71-9.81-4.34-11.63l-0.16-.46,0.49,0c10.45-.51,10.84,0,11,0.12l0.12,0.14,0,0.22a13.43,13.43,0,0,1-1,1.82,45.43,45.43,0,0,0-3.41,7c-0.81,2.57-1.29,3.15-1.8,3.25H159Zm-4.21-11.83c1.43,4.16,3.66,10.44,4,10.93a0.47,0.47,0,0,0,.18.15c0.08,0,.45-0.3,1.23-2.75a45,45,0,0,1,3.48-7.11c0.29-.51.58-1,0.75-1.35C163.19,197.62,158.38,197.74,154.79,197.91Z"/>
    </g>
    <g>
      <path d="M174.21,153.9s2.16,0.1,2.46,1.55a2.88,2.88,0,0,1-1.24,3c-1.08.46-10.41-.83-10.41-0.83s1.18-3.69,1.24-4.43Z" style="fill: #898989"/>
      <path d="M174.39,158.92c-2.57,0-8.12-.74-9.42-0.92l-0.44-.06,0.13-.42a44.34,44.34,0,0,0,1.23-4.35l0-.37,8.31,0.73c0.18,0,2.44.16,2.8,1.84a3.23,3.23,0,0,1-1.46,3.43A3.71,3.71,0,0,1,174.39,158.92Zm-8.88-1.59c4.36,0.59,9.16,1.06,9.78.79a2.54,2.54,0,0,0,1-2.6c-0.24-1.15-2.1-1.25-2.12-1.25h0l-7.61-.67C166.38,154.53,165.78,156.45,165.51,157.33Z"/>
    </g>
    <g>
      <path d="M165.82,147.87s-1.39-.1-2,1.94-1.41,8.45-.49,10.16,1.72,0,1.72,0,2.15-5.67,1.68-10.13C166.7,149.85,166.65,148.11,165.82,147.87Z" style="fill: #411b6b"/>
      <path d="M164.15,161.1a1.46,1.46,0,0,1-1.18-1c-1-1.87-.18-8.45.46-10.45,0.73-2.28,2.34-2.19,2.42-2.19h0.07c1.06,0.3,1.15,2.11,1.15,2.32,0.47,4.47-1.62,10-1.71,10.27a1.64,1.64,0,0,1-1.19,1h0Zm1.61-12.86c-0.21,0-1.13.14-1.62,1.68-0.68,2.13-1.34,8.33-.51,9.88a0.83,0.83,0,0,0,.54.57,1,1,0,0,0,.53-0.55s2.11-5.61,1.65-9.93A2.2,2.2,0,0,0,165.76,148.24Z"/>
    </g>
    <g>
      <path d="M163.25,152.32l-22.07-1s-1,3.32-.36,4.25,19.52,1.85,19.7,1.85h2.34A31.79,31.79,0,0,0,163.25,152.32Z" style="fill: #411b6b"/>
      <path d="M163.19,157.76h-2.67c-0.18,0-19.16-.84-20-2s0.12-4,.31-4.58l0.08-.27L163.53,152l0.08,0.25c0.23,0.75-.27,4.48-0.37,5.22Zm-21.74-6.09c-0.37,1.31-.69,3.15-0.33,3.65,1,0.72,18,1.66,19.41,1.7h2a36.18,36.18,0,0,0,.38-4.34Z"/>
    </g>
    <g>
      <path d="M113.58,157.27c-0.31.12-4.63,2.88-.26,5.42,0,0,9.79,1.38,25.08-.68l1.42-.1-1-5.93Z" style="fill: #411b6b"/>
      <path d="M122.17,163.5a72.21,72.21,0,0,1-8.9-.45l-0.13,0c-1.49-.86-2.2-1.87-2.12-3,0.13-1.73,2.16-3,2.43-3.1l0.12,0,25.6-1.31,1.08,6.66-1.82.13A122.38,122.38,0,0,1,122.17,163.5Zm-8.72-1.17c0.92,0.12,10.53,1.25,24.9-.69l1-.07-0.85-5.21-24.86,1.27c-0.35.19-1.87,1.26-1.93,2.49C111.71,160.9,112.28,161.64,113.45,162.33Z"/>
    </g>
    <g>
      <path d="M144.27,153.09L153,196a0.91,0.91,0,0,0,.43.65,40,40,0,0,0,4.71,0l-8.49-43.54S146.4,150.78,144.27,153.09Z" style="fill: #898989"/>
      <path d="M155,197.09a6.86,6.86,0,0,1-1.8-.13,1.27,1.27,0,0,1-.63-0.93L143.87,153l0.13-.14c1.86-2,4.64-.9,5.85,0l0.12,0.08,0,0.14,8.57,44-0.43,0C157.11,197.06,156,197.09,155,197.09Zm-10.37-43.89,8.67,42.71a0.57,0.57,0,0,0,.23.39,37.38,37.38,0,0,0,4.1,0l-8.38-43C148.74,153,146.36,151.59,144.67,153.21Z"/>
    </g>
    <g>
      <path d="M144.2,181.74s0.23,5.61,1.15,6.56,12,0.06,12.78-.68,0.41-5.79-.45-6.38S146.73,180,144.2,181.74Z" style="fill: #898989"/>
      <path d="M148.65,189.06c-1.79,0-3.21-.14-3.56-0.51-1-1-1.22-5.85-1.26-6.8v-0.2l0.17-.12c2.66-1.84,12.87-1.21,13.91-.49,0.69,0.47.92,2.42,1,3.24s0.19,3.06-.49,3.71S152.42,189.06,148.65,189.06Zm-4.07-7.13c0.1,2.13.46,5.51,1,6.11,0.89,0.79,11.51-.12,12.27-0.69a6,6,0,0,0,.26-3.11,5.28,5.28,0,0,0-.66-2.69C156.87,181.15,147.3,180.37,144.58,181.94Z"/>
    </g>
    <g>
      <path d="M149.37,184.66a5.9,5.9,0,0,1-.56,1.34c-0.74.37-2.22,0.36-2.59-.75a3.75,3.75,0,0,1,.66-1.27,1.85,1.85,0,0,1,1.23-.55,1.23,1.23,0,0,1,1.14.66A1.44,1.44,0,0,1,149.37,184.66Z" style="fill: #898989"/>
      <path d="M147.8,186.59a2.43,2.43,0,0,1-.94-0.18,1.68,1.68,0,0,1-1-1l0-.12a1.86,1.86,0,0,1,.42-1c0.09-.14.2-0.29,0.29-0.46l0.06-.08a2.23,2.23,0,0,1,1.48-.66,1.53,1.53,0,0,1,1.46.84,1.81,1.81,0,0,1,.16.76v0.13l-0.08.1a1.91,1.91,0,0,0-.1.33,2.16,2.16,0,0,1-.48,1l-0.1.07A2.76,2.76,0,0,1,147.8,186.59Zm-1.19-1.38a1,1,0,0,0,.54.52,2,2,0,0,0,1.45,0,1.89,1.89,0,0,0,.25-0.66,2.32,2.32,0,0,1,.16-0.48,1,1,0,0,0-.08-0.33,0.85,0.85,0,0,0-.79-0.43,1.47,1.47,0,0,0-.94.41c-0.1.17-.2,0.33-0.29,0.47A2,2,0,0,0,146.6,185.2Z"/>
    </g>
    <g>
      <path d="M97.17,143s7.66-12.12,17-6.86c0,0,3.36,1.24,3.47,6.17,0,0-7.38-5.13-13.13,2.86a5.22,5.22,0,0,0,.42,6.49c2.83,3.19-1.58,1.43-1.62,1.14S95.69,148.75,97.17,143Z" style="fill: #e597c6"/>
      <path d="M105.35,153.91a2.52,2.52,0,0,1-.45,0A4.48,4.48,0,0,1,103,153c-0.07-.06-0.24-0.17-0.47-0.33-1.74-1.17-7-4.73-5.71-9.78l0-.11a23.8,23.8,0,0,1,5.08-5.5c4.16-3.2,8.44-3.72,12.4-1.49,0.09,0,3.54,1.36,3.66,6.48l0,0.73-0.6-.41c-0.29-.2-7.16-4.82-12.62,2.78a4.81,4.81,0,0,0,.39,6c0.92,1,1.21,1.68,1,2.13A0.83,0.83,0,0,1,105.35,153.91Zm-1.74-1.3a3.71,3.71,0,0,0,1.9.55,4.29,4.29,0,0,0-.88-1.25,5.63,5.63,0,0,1-.44-7c4.92-6.84,11.07-4.35,13-3.31-0.37-4.07-3.16-5.14-3.19-5.15-8.67-4.88-16,5.85-16.52,6.66-1.11,4.52,3.81,7.84,5.43,8.93A2.27,2.27,0,0,1,103.61,152.61Z"/>
    </g>
    <g>
      <path d="M105.26,152.07s8.56,5.57,17,4.76c0.23,0.42,1.89,5,4.7,6s3.14-.08,2.41-1.43c0,0,3.78,5.51,5.4.52,0,0,2.61,2.78,3.11-.32s-0.55-7.27-6.88-9.45a15.09,15.09,0,0,0-4.34-.18s-7.48-8.84-9-9.64-6.55-3.51-11,.49S103.06,150,105.26,152.07Z" style="fill: #a97152"/>
      <path d="M132.76,164.35a4.33,4.33,0,0,1-2.77-1.59,1,1,0,0,1-.2.37c-0.46.55-1.44,0.55-3,0-2.62-.91-4.24-4.62-4.77-5.84l0-.09c-8.36.68-16.59-4.61-16.94-4.84l-0.05,0a5.41,5.41,0,0,1-1.9-4c0-1.88,1.13-3.84,3.3-5.81,4.56-4.13,9.66-1.45,11.34-.57,1.52,0.8,7.8,8.15,9,9.59a16,16,0,0,1,4.26.22c7.5,2.58,7.51,7.76,7.17,9.87a1.89,1.89,0,0,1-1.12,1.72,2.64,2.64,0,0,1-2.21-.81,2.55,2.55,0,0,1-1.86,1.79Zm-3.13-3.19c0.51,0.74,2.09,2.62,3.29,2.44,0.6-.09,1.09-0.7,1.46-1.82l0.19-.59,0.43,0.45c0.45,0.47,1.35,1.17,1.88,1a1.37,1.37,0,0,0,.6-1.13c0.39-2.39,0-6.74-6.63-9h0a15,15,0,0,0-4.16-.17l-0.21,0-0.14-.16c-2.07-2.44-7.69-8.92-8.89-9.55-1.61-.85-6.37-3.35-10.55.44-2,1.83-3,3.6-3.06,5.27a4.74,4.74,0,0,0,1.64,3.43c0.53,0.34,8.75,5.46,16.7,4.68l0.24,0,0.12,0.21c0,0.06.09,0.18,0.17,0.37,0.5,1.15,2,4.63,4.33,5.44,1.74,0.6,2.13.28,2.19,0.21a1.23,1.23,0,0,0-.23-1.11Z"/>
    </g>
    <path d="M129,161.57s-0.4-.8-0.75-1.63a10.2,10.2,0,0,1-.42-1.16,1.65,1.65,0,0,1-.08-0.55,1.61,1.61,0,0,0,.19.51,10,10,0,0,0,.64,1c0.5,0.72,1,1.41,1,1.41Z" style="fill: #000201"/>
    <path d="M134.36,161.9a7.37,7.37,0,0,0,0-1,8.68,8.68,0,0,0-.42-2.09,6.26,6.26,0,0,0-.48-1,3.75,3.75,0,0,0-.29-0.45,3.46,3.46,0,0,0-.3-0.37,5.31,5.31,0,0,0-.74-0.67,5.36,5.36,0,0,1,.82.59,3.58,3.58,0,0,1,.35.35,3.93,3.93,0,0,1,.35.43,6.56,6.56,0,0,1,.62,1,9.18,9.18,0,0,1,.7,2.15,8.15,8.15,0,0,1,.14,1h-0.74Z" style="fill: #000201"/>
    <g>
      <path d="M152.68,143.39s0.3,1.52,3.38,3,6,1.62,7.25,4.79l-0.18,1.09-6.09-.53s0.34,3.37-1.44,4.46-4-.1-3.48-3.75a3.45,3.45,0,0,1,.21-1c0.14-.18-11.25-0.32-11.61-0.48s0-1,0-1.59,1.64-4.2,3.58-5.21,2.92-2.53,4.81-2.07S152.2,142.51,152.68,143.39Z" style="fill: #a97152"/>
      <path d="M154.3,157a2.32,2.32,0,0,1-1.28-.38c-1.07-.7-1.54-2.22-1.27-4.17a5.64,5.64,0,0,1,.09-0.64c-1-.07-3.57-0.14-5.72-0.19a45.46,45.46,0,0,1-5.55-.24,1.09,1.09,0,0,1-.3-1.34,3.84,3.84,0,0,0,.08-0.59c0-.73,1.7-4.45,3.78-5.53a12.71,12.71,0,0,0,1.55-1c1.06-.75,2.05-1.46,3.52-1.1,0.53,0.13,1,.22,1.43.29,1.13,0.2,1.95.35,2.37,1.13l0,0.1s0.39,1.41,3.18,2.79a25.21,25.21,0,0,0,2.4,1c2.1,0.78,4.09,1.52,5,4l0,0.09-0.25,1.53-6-.52c0,1-.08,3.41-1.64,4.37A2.87,2.87,0,0,1,154.3,157Zm-13.38-6.31c0.48,0,3,.11,5.21.17,6.38,0.17,6.38.17,6.52,0.47l0.1,0.2-0.14.19a3.93,3.93,0,0,0-.14.8c-0.23,1.67.12,2.94,0.94,3.47a1.82,1.82,0,0,0,2-.07c1.56-.95,1.27-4.07,1.27-4.1l0-.44,6.2,0.54,0.11-.66c-0.83-2.08-2.48-2.7-4.56-3.47a25.69,25.69,0,0,1-2.47-1c-2.87-1.42-3.46-2.89-3.56-3.23-0.26-.42-0.78-0.54-1.84-0.72-0.44-.08-0.93-0.17-1.48-0.3-1.14-.28-1.88.25-2.91,1a13.57,13.57,0,0,1-1.64,1c-1.8.94-3.37,4.42-3.38,4.89a4.63,4.63,0,0,1-.09.71A3.46,3.46,0,0,0,140.92,150.68Z"/>
    </g>
    <path d="M136.7,145.36s0.46-3.44,1.1-6.85c0.32-1.7.69-3.4,1-4.65a11.35,11.35,0,0,1,.73-2,11.32,11.32,0,0,0-.61,2.07c-0.28,1.26-.56,3-0.79,4.68-0.45,3.43-.73,6.87-0.73,6.87Z"/>
    <path d="M131.6,152.51a63.64,63.64,0,0,1,2.65-24.3l0.58,0.21a63,63,0,0,0-2.62,24Z"/>
    <path d="M116.91,139.88s0-.13.09-0.33a8.5,8.5,0,0,1,.29-0.81,14.14,14.14,0,0,1,1.21-2.24,19.56,19.56,0,0,1,1.51-2c0.44-.52.76-0.85,0.76-0.85s-0.28.36-.66,0.92a19.32,19.32,0,0,0-1.28,2.13,13.64,13.64,0,0,0-.94,2.27,7.84,7.84,0,0,0-.19.77c0,0.19,0,.27,0,0.28Z"/>
    <path d="M117.2,140.95a8.54,8.54,0,0,0-1.64-1.25,9.34,9.34,0,0,0-.89-0.49c-0.32-.17-0.68-0.3-1-0.45a9.88,9.88,0,0,0-1.16-.34l-0.61-.13-0.63-.07a8.62,8.62,0,0,0-1.26,0c-0.42,0-.82.09-1.22,0.13s-0.76.19-1.12,0.27a7,7,0,0,0-1,.35,5.89,5.89,0,0,0-.8.35l-0.59.32-0.52.28,0.5-.31,0.58-.36a6,6,0,0,1,.79-0.4,7.1,7.1,0,0,1,1-.41c0.36-.1.72-0.25,1.12-0.34s0.81-.18,1.24-0.2a9,9,0,0,1,1.3,0l0.66,0,0.64,0.1a10.34,10.34,0,0,1,1.24.29c0.39,0.13.77,0.25,1.12,0.41a9.94,9.94,0,0,1,1,.46,9.29,9.29,0,0,1,1.84,1.25Z"/>
    <path d="M116.11,141.75l-0.14-.12-0.4-.3a8.15,8.15,0,0,0-1.62-.87,8.62,8.62,0,0,0-1.17-.38,7.83,7.83,0,0,0-1.37-.19,8.13,8.13,0,0,0-1.48,0,10.41,10.41,0,0,0-1.49.36,10.89,10.89,0,0,0-2.71,1.4c-0.39.3-.79,0.56-1.12,0.86l-0.93.87a18.88,18.88,0,0,0-1.28,1.42l-0.47.55,0.45-.57a19,19,0,0,1,1.22-1.48l0.9-.92c0.32-.32.72-0.6,1.1-0.92a11.19,11.19,0,0,1,2.72-1.56,10.79,10.79,0,0,1,1.55-.44,8.61,8.61,0,0,1,1.56-.12,8.36,8.36,0,0,1,1.47.14,9.22,9.22,0,0,1,1.27.35,8.82,8.82,0,0,1,1.79.86c0.2,0.13.36,0.24,0.47,0.32l0.16,0.12Z"/>
    <g>
      <path d="M152.32,151.49a3.22,3.22,0,0,1,1.55-2.45" style="fill: #a97152"/>
      <path d="M151.95,151.47a2.67,2.67,0,0,1,.15-0.52,3.53,3.53,0,0,1,.55-1,3.2,3.2,0,0,1,.8-0.71,2.89,2.89,0,0,1,.42-0.23,3.18,3.18,0,0,0-.91,1.14,3,3,0,0,0-.26.92,1.83,1.83,0,0,0,0,.41Z"/>
    </g>
    <g>
      <path d="M94.13,201.27c1.07,0,3.58.1,4.65,0.14a0.47,0.47,0,0,1,.44.51c-0.19,1.81-.87,8-1.38,9-0.6,1.18-2.45.16-2.52,0s-1.39,0-1.67-9.19A0.47,0.47,0,0,1,94.13,201.27Z" style="fill: #898989"/>
      <path d="M96.86,211.87H96.78a3,3,0,0,1-1.73-.68c-0.41-.27-1.52-1.15-1.77-9.43a0.84,0.84,0,0,1,.24-0.62,0.77,0.77,0,0,1,.61-0.25h0c1.07,0,3.58.1,4.65,0.14a0.84,0.84,0,0,1,.8.92c-0.25,2.41-.89,8.13-1.42,9.15A1.39,1.39,0,0,1,96.86,211.87ZM95.6,210.7a2.34,2.34,0,0,0,1.44.41,0.6,0.6,0,0,0,.46-0.34c0.38-.75.95-5.08,1.34-8.89l-0.09-.11c-1.07,0-3.58-.11-4.64-0.14a0.52,0.52,0,0,1-.07,0c0.2,7.34,1.06,8.68,1.42,8.92l0.09,0.06,0.1,0.15A0.25,0.25,0,0,0,95.6,210.7Z"/>
    </g>
    <circle cx="96.33" cy="208.99" r="1.02" transform="translate(-112.89 304.82) rotate(-89.86)"/>
    <circle cx="159.06" cy="205.86" r="1.11" transform="translate(-47.18 364.42) rotate(-89.86)"/>
    <circle cx="182.66" cy="200.77" r="0.92" transform="translate(-18.55 382.95) rotate(-89.86)"/>
    <g>
      <path d="M136.79,150.48l3.81,0.79s4-10.76,11.37-8c0,0,2.61.56,1.26-1.29a8,8,0,0,0-1.08-.86,0.71,0.71,0,0,0,.28-0.62,7.32,7.32,0,0,0-3.65-2,9.67,9.67,0,0,0-7.93,1.71C137.76,142.63,136.63,143.58,136.79,150.48Z" style="fill: #e597c6"/>
      <path d="M140.84,151.71l-4.41-.92v-0.29c-0.17-7.16,1.11-8.15,4.21-10.55a10.08,10.08,0,0,1,8.22-1.79c1.59,0.28,3.78,1.72,3.94,2.28a0.83,0.83,0,0,1-.09.64c0.18,0.14.43,0.35,0.78,0.67a1.49,1.49,0,0,1,.38,1.57c-0.41.63-1.61,0.43-2,.36a6,6,0,0,0-4.73.08c-4,1.8-6.19,7.6-6.21,7.65Zm-3.68-1.52,3.22,0.67c0.52-1.26,2.71-6.06,6.48-7.77a6.61,6.61,0,0,1,5.25-.11,1.76,1.76,0,0,0,1.14-.05,1,1,0,0,0-.31-0.68,9.4,9.4,0,0,0-.9-0.73l-0.72-.18,0.61-.45a0.42,0.42,0,0,0,.16-0.24,7.82,7.82,0,0,0-3.35-1.75,9.38,9.38,0,0,0-7.64,1.64C138.15,142.79,137,143.66,137.16,150.18Z"/>
    </g>
    <path d="M152,141.52a10.51,10.51,0,0,0-2-.46c-0.31,0-.65-0.09-1-0.11s-0.75,0-1.14,0-0.81,0-1.22.08a10.09,10.09,0,0,0-1.25.21,8.31,8.31,0,0,0-1.22.34A8.69,8.69,0,0,0,143,142a8,8,0,0,0-1,.55,5.92,5.92,0,0,0-.86.58c-0.25.2-.5,0.36-0.69,0.54l-0.49.47-0.43.41,0.41-.43,0.47-.5c0.18-.2.42-0.37,0.67-0.59a6,6,0,0,1,.84-0.64,8.2,8.2,0,0,1,1-.62,9,9,0,0,1,1.14-.54,8.63,8.63,0,0,1,1.24-.42,10.48,10.48,0,0,1,1.28-.29c0.42-.08.85-0.11,1.26-0.15s0.81,0,1.19,0,0.74,0,1.07.06a11.28,11.28,0,0,1,2.19.38Z"/>
    <path d="M139.15,148.87a1.86,1.86,0,0,1,0-.4,4,4,0,0,1,.14-1.05,6.27,6.27,0,0,1,1.67-2.73,8.33,8.33,0,0,1,1.32-1.09,9.56,9.56,0,0,1,1.28-.74c0.38-.2.73-0.3,1-0.4l0.37-.13-0.32.24c-0.2.15-.5,0.35-0.84,0.6l-0.55.41c-0.2.14-.38,0.31-0.59,0.47s-0.41.34-.61,0.52a6.35,6.35,0,0,0-.6.57,8.65,8.65,0,0,0-1.77,2.42A4.44,4.44,0,0,0,139.15,148.87Z"/>
    <g>
      <path d="M186.26,190.4s-10.41.5-10.72,1.16-0.86,1.42,1.84,1.71,10.6-.28,11.46-0.65,1.11-2.22.31-2.22h-2.9Z" style="fill: #898989"/>
      <path d="M179.36,193.72c-0.81,0-1.52,0-2-.08-1.35-.14-2.07-0.42-2.33-0.9a1.3,1.3,0,0,1,.14-1.23l0.05-.11c0.1-.21.4-0.86,11-1.37h2.91a0.84,0.84,0,0,1,.82.76,2.07,2.07,0,0,1-1,2.17C188.19,193.3,182.79,193.72,179.36,193.72Zm-3.52-1.94,0,0.06a0.85,0.85,0,0,0-.15.55c0,0.08.31,0.36,1.76,0.52a57.94,57.94,0,0,0,11.28-.62,1.38,1.38,0,0,0,.56-1.34c0-.11-0.06-0.17-0.1-0.17h-2.89C181.62,191,176.52,191.43,175.84,191.78Z"/>
    </g>
    <g>
      <path d="M160.19,195.33h4.56a1.4,1.4,0,0,1,1.4,1.11,1.18,1.18,0,0,1-.17.86c-0.54.85-10.09,0.93-12.63,0.93a1.31,1.31,0,0,1-1.06-.53c-0.39-.54-0.81-1.34-0.1-1.73C153.29,195.37,160.19,195.33,160.19,195.33Z" style="fill: #898989"/>
      <path d="M153.34,198.62a1.69,1.69,0,0,1-1.36-.68,2,2,0,0,1-.53-1.57,1,1,0,0,1,.55-0.7c1.16-.64,7.47-0.7,8.19-0.71h4.56a1.77,1.77,0,0,1,1.76,1.42,1.54,1.54,0,0,1-.22,1.12c-0.17.27-.68,1.08-12.94,1.11h0Zm6.85-2.92c-2.63,0-7.08.2-7.83,0.61a0.31,0.31,0,0,0-.18.21,1.5,1.5,0,0,0,.4,1,1,1,0,0,0,.76.38h0c6.75,0,11.83-.34,12.34-0.79a0.81,0.81,0,0,0,.1-0.57,1,1,0,0,0-1-.81h-4.55Z"/>
    </g>
    <g>
      <path d="M142.68,162.1l9.1-.39s4.12-3.55-.17-6l-9.52.21s0,5.36-.11,5.82S142.68,162.1,142.68,162.1Z" style="fill: #898989"/>
      <path d="M142.43,162.49a0.9,0.9,0,0,1-.69-0.24,0.59,0.59,0,0,1-.11-0.58c0.08-.32.11-3.18,0.09-5.71v-0.36l10-.22,0.09,0a3.64,3.64,0,0,1,2.13,2.73c0.2,2-1.81,3.76-1.9,3.83l-0.1.08-9.21.4Zm-0.06-.74h0.3l9-.39c0.36-.35,1.69-1.71,1.55-3.12a2.9,2.9,0,0,0-1.67-2.11l-9.05.2C142.47,157.77,142.47,161,142.37,161.74Z"/>
    </g>
    <g>
      <path d="M141.66,153s-1.07-2.47-2.28.3,0,8.84.53,9.67,2.27,2.72,2.62.62S143.1,155.06,141.66,153Z" style="fill: #411b6b"/>
      <path d="M141.81,164.91c-1,0-2.17-1.67-2.22-1.74-0.67-1-1.81-7.17-.56-10,0.45-1,1-1.54,1.55-1.54h0a1.89,1.89,0,0,1,1.4,1.2c1.5,2.21,1.26,8.72.91,10.84a1.3,1.3,0,0,1-.88,1.24Zm-1.23-12.57h0c-0.09,0-.43.08-0.87,1.09-1.16,2.66,0,8.58.5,9.32a3,3,0,0,0,1.64,1.41,0.79,0.79,0,0,0,.3-0.64c0.36-2.22.53-8.41-.81-10.33l0-.06A1.31,1.31,0,0,0,140.58,152.35Z"/>
    </g>
    <path d="M150.35,155.94a7.13,7.13,0,0,1,.66,5.7l0.77,0.06s4.1-3.29-.17-6l-1.32.07Z"/>
    <path d="M174.67,154s1.59,1.21.08,4.55a2.13,2.13,0,0,0,1.88-1.8,2.08,2.08,0,0,0-1.06-2.56Z"/>
    <g>
      <path d="M117.08,112.24s1.88,11.52,12.84,14.94c0,0,5.11,2,8,.7,0,0-6.36-3-8.49-5.07-2-1.93-9-9-11.09-13.91Z" style="fill: #639"/>
      <path d="M135.5,128.68a18.21,18.21,0,0,1-5.71-1.16c-11-3.43-13.05-15.11-13.07-15.22l0-.1,1.64-4.3,0.36,0.86c1.33,3.2,5.24,8.09,11,13.79,2.06,2,8.32,5,8.39,5l0.74,0.34-0.74.33A6.42,6.42,0,0,1,135.5,128.68Zm-18-16.41c0.21,1.1,2.48,11.41,12.57,14.55,0.07,0,4.11,1.57,6.9,1-1.82-.89-6-3.06-7.75-4.74-3.87-3.82-8.75-9.1-10.79-13.21Z"/>
    </g>
    <g>
      <path d="M117.08,112.24s1.16,4.56,1.77,5.18c0,0-6.21,8.24-25.26,12.91s-64.49,35.42-52,72.79c0,0-18.66-27.4,3.82-52.73s45.78-29.09,55.77-32.15A114.58,114.58,0,0,0,117.08,112.24Z" style="fill: #639"/>
      <path d="M42.77,205.52l-1.5-2.2c-0.19-.28-18.57-27.93,3.85-53.18C65,127.72,85.84,122.06,97,119c1.54-.42,2.88-0.78,4-1.14a115.53,115.53,0,0,0,15.85-6l0.41-.2,0.11,0.44a22.8,22.8,0,0,0,1.68,5l0.23,0.23-0.19.26c-0.26.34-6.51,8.4-25.47,13-13.1,3.21-37,18.16-47.92,37.89-6.33,11.48-7.62,23.06-3.83,34.42Zm74.06-92.76a121.91,121.91,0,0,1-15.56,5.83c-1.18.36-2.52,0.73-4.07,1.15-11.1,3-31.77,8.63-51.53,30.89-18,20.29-9.24,42.15-5.33,49.61-2.71-10.6-1.12-21.35,4.77-32,11-19.92,35.16-35,48.4-38.26,17-4.17,23.77-11.28,24.88-12.57A26.76,26.76,0,0,1,116.83,112.77Z"/>
    </g>
    <g>
      <path d="M116.65,94.16s-1,9.63,2.17,15.66,14.79,21,28.93,19.44,15.62-3.29,21-8.73,5.56-12.75,5.76-13.39,1.4-5.82,5.2-9.32,7.07-17.54,4.31-24.39-7-.66-10.35-1.5-3.42.82-8.77-3.72S147.18,58,144.32,57s-9.7-.39-11,0.62-8.9,10.61-9.09,13.47a60.64,60.64,0,0,1-1.31,7.57s-6.64-4.45-7.75-4.18-5,.45-5.28,6.09,2.37,13.22,3.11,13.31S116.65,94.16,116.65,94.16Z" style="fill: #a97152"/>
      <path d="M117,94.19A36.25,36.25,0,0,0,118.07,107c0.14,0.52.35,1,.52,1.51s0.42,1,.68,1.43c0.52,1,1.08,1.86,1.68,2.75a45.82,45.82,0,0,0,4,5.08,39.21,39.21,0,0,0,9.9,8.18,21.59,21.59,0,0,0,12.25,3c2.14-.15,4.31-0.46,6.43-0.78a37,37,0,0,0,6.27-1.47c4.11-1.3,7.12-4.67,10-7.82a19.26,19.26,0,0,0,3.12-5.56,24.08,24.08,0,0,0,.92-3.09c0.26-1.06.34-2.09,0.56-3.22a24,24,0,0,1,2.52-6,16.35,16.35,0,0,1,2-2.65l0.58-.59c0.16-.16.36-0.39,0.53-0.59a9.88,9.88,0,0,0,.91-1.28,27.18,27.18,0,0,0,2.39-5.95,38.2,38.2,0,0,0,1.24-6.33,29.1,29.1,0,0,0,.05-6.42l-0.09-.8-0.16-.78c-0.06-.26-0.1-0.52-0.17-0.78l-0.25-.75-0.12-.38,0-.09v0l0,0-0.09-.18-0.35-.74a5.58,5.58,0,0,0-.4-0.65,2.42,2.42,0,0,0-.47-0.58,2.63,2.63,0,0,0-2.66-.76,20,20,0,0,0-3,1.14,8.83,8.83,0,0,1-1.61.52,5.52,5.52,0,0,1-.88.08,7.45,7.45,0,0,1-.87-0.13c-1-.28-2.06-0.19-3.22-0.38a8.21,8.21,0,0,1-3-1.45c-0.91-.62-1.75-1.34-2.58-2a44,44,0,0,0-5.33-3.64,119,119,0,0,0-11.53-5.94c-1-.44-2-0.88-3-1.27a9.58,9.58,0,0,0-3.07-.64,25.17,25.17,0,0,0-6.38.42,7.53,7.53,0,0,0-1.47.46c-0.08.06-.2,0.11-0.26,0.17l-0.3.28c-0.17.19-.35,0.36-0.53,0.57-0.71.8-1.4,1.64-2.06,2.49-1.33,1.7-2.61,3.44-3.78,5.25a27.34,27.34,0,0,0-1.61,2.78,7.42,7.42,0,0,0-.56,1.43c-0.12.43-.11,1-0.19,1.58-0.28,2.18-.71,4.31-1.2,6.44h0l-0.12.52L122.71,79c-1.22-.81-2.46-1.6-3.72-2.34-0.63-.37-1.26-0.73-1.91-1.07-0.32-.17-0.65-0.32-1-0.46-0.16-.06-0.33-0.13-0.48-0.18l-0.23-.06c-0.07,0-.09,0-0.14,0a9.51,9.51,0,0,0-2.05.54,4.45,4.45,0,0,0-1.63,1.19,6.62,6.62,0,0,0-1.32,3.89,21.75,21.75,0,0,0,.22,4.33,35.28,35.28,0,0,0,.89,4.28c0.19,0.7.4,1.4,0.64,2.09a14.23,14.23,0,0,0,.83,2,2.26,2.26,0,0,0,.25.38s0,0,0,0l-0.07,0h0.07l0.28,0,1.1,0.09,2.56,0.2Zm-0.75.31-1.85-.15-1.1-.09-0.28,0H113a0.73,0.73,0,0,1-.2-0.07,0.92,0.92,0,0,1-.2-0.16,2.81,2.81,0,0,1-.36-0.53,14.85,14.85,0,0,1-.88-2.09c-0.25-.7-0.46-1.42-0.66-2.13a36,36,0,0,1-.91-4.37,22.47,22.47,0,0,1-.23-4.48,7.33,7.33,0,0,1,1.5-4.32,5.19,5.19,0,0,1,1.9-1.39,10.17,10.17,0,0,1,2.2-.59,1.78,1.78,0,0,1,.41,0l0.31,0.08c0.2,0.06.37,0.14,0.56,0.2,0.35,0.15.69,0.31,1,.49,0.66,0.34,1.31.71,1.95,1.09,1.28,0.76,2.52,1.55,3.75,2.37l-0.57.22h0c0.48-2.1.92-4.23,1.19-6.36,0.08-.54.06-1,0.21-1.65a8,8,0,0,1,.62-1.59,28,28,0,0,1,1.66-2.85c1.19-1.84,2.48-3.59,3.83-5.31,0.67-.86,1.36-1.7,2.09-2.52,0.17-.2.39-0.42,0.58-0.62l0.3-.28a3.19,3.19,0,0,1,.42-0.27,8.09,8.09,0,0,1,1.63-.51,25.84,25.84,0,0,1,6.58-.43,10.31,10.31,0,0,1,3.27.69c1,0.4,2,.84,3,1.29a119.68,119.68,0,0,1,11.6,6,44.76,44.76,0,0,1,5.41,3.7c0.85,0.69,1.66,1.39,2.54,2a7.57,7.57,0,0,0,2.78,1.34c1,0.18,2.15.1,3.24,0.39a4.42,4.42,0,0,0,3-.43,20.16,20.16,0,0,1,3.09-1.17,6.82,6.82,0,0,1,.87-0.11,3.33,3.33,0,0,1,.89.12,2.43,2.43,0,0,1,.83.37l0.38,0.25,0.31,0.32a3,3,0,0,1,.55.68,6.6,6.6,0,0,1,.45.73L184.2,73l0.09,0.18,0,0,0,0.07,0,0.1,0.13,0.4,0.26,0.8c0.08,0.27.12,0.54,0.18,0.81l0.17,0.81,0.1,0.82a29.74,29.74,0,0,1-.06,6.57,38.85,38.85,0,0,1-1.26,6.43,25.09,25.09,0,0,1-2.5,6.08,10.71,10.71,0,0,1-1,1.35c-0.19.2-.35,0.39-0.57,0.61l-0.57.56a16.79,16.79,0,0,0-2,2.52,20.82,20.82,0,0,0-2.53,5.91,32,32,0,0,1-1.35,6.37,19.84,19.84,0,0,1-3.1,5.81,27,27,0,0,1-2.22,2.42c-0.77.77-1.53,1.55-2.37,2.27a16.21,16.21,0,0,1-5.68,3.35,37.69,37.69,0,0,1-6.39,1.5c-2.16.34-4.3,0.64-6.49,0.8a22.3,22.3,0,0,1-12.65-3.11,39.92,39.92,0,0,1-10.09-8.32,46.53,46.53,0,0,1-4-5.16c-0.61-.9-1.2-1.86-1.72-2.8-0.27-.49-0.48-1-0.72-1.51s-0.41-1-.55-1.57a29.58,29.58,0,0,1-1.13-6.48A43.81,43.81,0,0,1,116.26,94.5Z"/>
    </g>
    <path d="M117.61,92.74s-1.54,7.72-.54,11.74c0,0-7.38-5.1-9.62-13.93s-1.54-11.88-1.54-11.88-7.11-4.27-3.39-12.16c0,0-4.94-.43-3.12-7.4,0,0-7.67-.71-4.51-8.51,0,0-1,4.43,2.3,3.89,0,0,1.25-.51,1.58-5.12s3-8.77,7.74-8.21c0,0,.06-5,2.93-6.83s6.05,0.89,6.37,1.22c0,0,3.11-7.43,8.11-9.82S136,24,138.27,27.88s2.57,6.15.67,9.52c0,0,5.59-.13,6.37,3s-1,3.79-1,3.79S161,44.54,171.61,55.65s11.75,15.29,12,17.39-11.79,7.93-29.2-3.2-20.06-10.89-20.06-10.89-0.88,6.22-6.56,14.22-6.56,12.31-6.5,12.49-0.48-7.33-4.42-7.28-4.88,4.49-4.39,8.24,1.78,5,3.42,5.55S117.61,92.74,117.61,92.74Z"/>
    <path d="M144.58,44.14s-0.88,0-2.4.19c-0.76.08-1.68,0.22-2.72,0.42s-2.21.49-3.47,0.81a41.13,41.13,0,0,0-8.23,3.28,36.13,36.13,0,0,0-8.23,5.88A40.27,40.27,0,0,0,116,58.46l-1.55,2-1.39,2-1.23,2.05-1.09,2c-0.37.65-.64,1.33-0.94,2s-0.59,1.25-.82,1.86c-0.48,1.21-.94,2.32-1.27,3.33s-0.67,1.88-.86,2.62l-0.69,2.31,0.48-2.36c0.14-.76.39-1.65,0.68-2.69a35.61,35.61,0,0,1,1.08-3.43c0.2-.63.47-1.26,0.74-1.92s0.52-1.35.87-2l1-2.1L112.24,62l1.39-2.11,1.56-2.08a40.63,40.63,0,0,1,3.59-3.89A37.16,37.16,0,0,1,127.32,48a32.83,32.83,0,0,1,4.41-1.86A42.28,42.28,0,0,1,135.84,45a35.87,35.87,0,0,1,6.32-.84A19,19,0,0,1,144.58,44.14Z" style="fill: #4b565d"/>
    <path d="M116.88,92.61s0.35-.74.73-1.47c0.19-.36.39-0.72,0.55-1a2.24,2.24,0,0,1,.3-0.42,2.2,2.2,0,0,0-.2.46c-0.1.29-.2,0.68-0.31,1.07-0.2.79-.38,1.58-0.38,1.58Z" style="fill: #000201"/>
    <path d="M150.13,81.9s-0.2-.11-0.55-0.26a15.26,15.26,0,0,0-1.45-.57c-0.3-.11-0.63-0.2-1-0.29s-0.72-.15-1.1-0.23a11.26,11.26,0,0,0-1.18-.11l-0.61,0-0.61,0a7.92,7.92,0,0,0-1.2.17c-0.39.09-.77,0.21-1.14,0.31l-1,.42c-0.34.13-.62,0.33-0.91,0.46a6.94,6.94,0,0,0-.76.43l-0.58.37-0.52.31s0.13-.18.38-0.47A7,7,0,0,1,139,81.31a6.55,6.55,0,0,1,.87-0.66c0.34-.19.69-0.42,1.08-0.6a11.27,11.27,0,0,1,1.25-.45,8.76,8.76,0,0,1,1.36-.23l0.69,0,0.69,0a7.94,7.94,0,0,1,1.31.22,8.48,8.48,0,0,1,1.16.41,6.73,6.73,0,0,1,1,.5,7.23,7.23,0,0,1,1.3,1A3.93,3.93,0,0,1,150.13,81.9Z" style="fill: #000201"/>
    <path d="M178.21,99.45a13.42,13.42,0,0,0-.54-1.55,12.43,12.43,0,0,0-.7-1.45,9.54,9.54,0,0,0-1-1.47,10.65,10.65,0,0,0-1.27-1.27L174,93.2c-0.21-.17-0.44-0.29-0.64-0.43-0.39-.28-0.76-0.46-1-0.62L172,91.89l0.46,0a5.29,5.29,0,0,1,1.21.26,5,5,0,0,1,.78.29c0.26,0.14.55,0.27,0.83,0.44s0.56,0.37.81,0.6a9.51,9.51,0,0,1,.74.75A6.83,6.83,0,0,1,177.85,96a6.22,6.22,0,0,1,.44,1.72A4.48,4.48,0,0,1,178.21,99.45Z" style="fill: #000201"/>
    <g>
      <path d="M146.16,100.14s4-6.55-2.36-10-10.47.53-10.47,0.53-1.58,5.14,4.14,8.14S146.16,100.14,146.16,100.14Z" style="fill: #fff"/>
      <path d="M146.16,100.14a8.93,8.93,0,0,0,.56-1.31,8.81,8.81,0,0,0,.38-1.36,5.27,5.27,0,0,0,.11-0.69,4.16,4.16,0,0,0,0-.7,6.57,6.57,0,0,0-.11-1.38L147,94l-0.26-.64a4.16,4.16,0,0,0-.34-0.59,2.45,2.45,0,0,0-.4-0.55l-0.45-.51L145,91.3a7.58,7.58,0,0,0-1.15-.75c-0.37-.22-0.84-0.41-1.26-0.61s-0.86-.32-1.29-0.46a10,10,0,0,0-1.35-.28,7.84,7.84,0,0,0-2.73.05,7.25,7.25,0,0,0-1.31.36,8.92,8.92,0,0,0-1.24.57,6.81,6.81,0,0,0-1.09.76l0.09-.15a5.6,5.6,0,0,0-.18,1.09,6.44,6.44,0,0,0,.22,2.23,6.27,6.27,0,0,0,.4,1,7,7,0,0,0,.57,1,7.56,7.56,0,0,0,.75.85l0.4,0.4,0.45,0.35a7.21,7.21,0,0,0,1,.65,10.49,10.49,0,0,0,1,.56c0.35,0.19.71,0.33,1.06,0.49a15.08,15.08,0,0,0,2.21.75,9.61,9.61,0,0,0,2.31.33A5.82,5.82,0,0,0,146.16,100.14Zm0,0a5.47,5.47,0,0,1-2.3.56,9.86,9.86,0,0,1-2.39-.19,13.07,13.07,0,0,1-2.3-.67c-0.37-.15-0.76-0.29-1.11-0.46a11,11,0,0,1-1.07-.54,7.73,7.73,0,0,1-1-.64l-0.5-.36L135,97.43a8.16,8.16,0,0,1-.82-0.92,7.64,7.64,0,0,1-.64-1.06,6.94,6.94,0,0,1-.46-1.15,7.13,7.13,0,0,1-.27-2.46,6.19,6.19,0,0,1,.19-1.25l0-.09,0.07-.06a7.37,7.37,0,0,1,1.23-.89,8.69,8.69,0,0,1,2.79-1,8.52,8.52,0,0,1,2.95,0,10.61,10.61,0,0,1,1.44.32c0.47,0.15.94,0.33,1.39,0.51a13.6,13.6,0,0,1,1.29.66,8.14,8.14,0,0,1,1.2.86l0.55,0.49,0.47,0.57a2.78,2.78,0,0,1,.41.62,4.59,4.59,0,0,1,.34.66l0.25,0.7,0.14,0.72a6.15,6.15,0,0,1,0,1.46,4.38,4.38,0,0,1-.09.72,5.46,5.46,0,0,1-.16.71,9,9,0,0,1-.47,1.36A8.73,8.73,0,0,1,146.16,100.14Z" style="fill: #000201"/>
    </g>
    <g>
      <path d="M173.65,106.71s0.08-7.08-6.58-6.67-8.39,5.09-8.39,5.09a8.8,8.8,0,0,0,8.37,5.5C173,109.85,173.65,106.71,173.65,106.71Z" style="fill: #fff"/>
      <path d="M173.28,106.67a8.77,8.77,0,0,0-.12-1.2,7.79,7.79,0,0,0-.28-1.23,6,6,0,0,0-.47-1.16,5.3,5.3,0,0,0-.68-1c-0.14-.15-0.27-0.31-0.42-0.45l-0.48-.39a4.81,4.81,0,0,0-.53-0.32,2.18,2.18,0,0,0-.57-0.25c-0.2-.06-0.39-0.15-0.59-0.2l-0.62-.11a7.63,7.63,0,0,0-1.27-.07c-0.41,0-.86.07-1.29,0.1s-0.84.13-1.26,0.24a10.73,10.73,0,0,0-2.41.91,9.73,9.73,0,0,0-1.09.7,7.41,7.41,0,0,0-1,.85,7.27,7.27,0,0,0-1.5,2.11h0v0a9.43,9.43,0,0,0,1.39,2.24,10.36,10.36,0,0,0,.92.95,8.24,8.24,0,0,0,1,.8,4.2,4.2,0,0,0,.56.34c0.2,0.1.38,0.21,0.58,0.29l0.61,0.23a10.42,10.42,0,0,0,1.26.32l0.65,0.08a4.29,4.29,0,0,0,.65,0H167A18,18,0,0,0,169,110c0.31-.11.63-0.2,0.93-0.32a8.48,8.48,0,0,0,.89-0.41,7.28,7.28,0,0,0,.83-0.5,6.6,6.6,0,0,0,.73-0.61,4.74,4.74,0,0,0,.59-0.73,3.39,3.39,0,0,0,.23-0.4A2.53,2.53,0,0,0,173.28,106.67Zm0.72,0.12a2.82,2.82,0,0,1-.22.55,4.09,4.09,0,0,1-.29.47,5.41,5.41,0,0,1-.71.81,7.23,7.23,0,0,1-.84.65,7.88,7.88,0,0,1-.91.51,9.05,9.05,0,0,1-1,.4c-0.32.12-.66,0.2-1,0.3a18.48,18.48,0,0,1-2,.37h0l-0.68,0a4.58,4.58,0,0,1-.68-0.06l-0.67-.11a10.75,10.75,0,0,1-1.3-.38l-0.63-.26a8.6,8.6,0,0,1-1.16-.69,8.48,8.48,0,0,1-1-.86,10.55,10.55,0,0,1-.9-1,9.55,9.55,0,0,1-1.33-2.32h0a7.38,7.38,0,0,1,1.45-2.2,7.59,7.59,0,0,1,1-.9,10,10,0,0,1,1.09-.75,11,11,0,0,1,2.45-1c0.43-.12.87-0.2,1.31-0.29s0.85-.12,1.32-0.14a8.08,8.08,0,0,1,1.35,0l0.67,0.1c0.22,0,.44.13,0.66,0.19a2.55,2.55,0,0,1,.64.26,5.37,5.37,0,0,1,.6.33l0.55,0.42c0.17,0.15.32,0.33,0.49,0.49a5.92,5.92,0,0,1,.79,1.13,6.7,6.7,0,0,1,.55,1.25,8.48,8.48,0,0,1,.48,2.68v0.08Z" style="fill: #000201"/>
    </g>
    <path d="M171,101s0.85,3.77-2.44,5.57-6.83-.89-7.33-4.5c0,0,3.06-2,5.36-2A6.5,6.5,0,0,1,171,101Z" style="fill: #000201"/>
    <path d="M135.42,89.41s-1.19,4.09,3.5,5.27,5.48-4.18,5.48-4.18a12.6,12.6,0,0,0-5-1.72A9.51,9.51,0,0,0,135.42,89.41Z" style="fill: #000201"/>
    <path d="M155.41,108.82a4.39,4.39,0,0,1,.37.47,5.41,5.41,0,0,1,.72,1.44,3.4,3.4,0,0,1,.19,1.12,2.34,2.34,0,0,1-.37,1.3,2.63,2.63,0,0,1-1.11,1,5.62,5.62,0,0,1-.67.25,5.55,5.55,0,0,1-.67.15,5.64,5.64,0,0,1-1.4,0,5.1,5.1,0,0,1-1.3-.31,6.39,6.39,0,0,1-2-1.18,6,6,0,0,1-1.41-1.68,11.56,11.56,0,0,0,1.74,1.22,8.25,8.25,0,0,0,1.92.81,5.63,5.63,0,0,0,1.12.19,6,6,0,0,0,1.73-.15,4.88,4.88,0,0,0,.53-0.18,2,2,0,0,0,.79-0.58,1.79,1.79,0,0,0,.36-0.86,3.67,3.67,0,0,0,0-.95,8.12,8.12,0,0,0-.35-1.47C155.49,109,155.41,108.82,155.41,108.82Z" style="fill: #000201"/>
    <g>
      <path d="M138.29,105.26s3.61,11.47,13.34,12.24a53.48,53.48,0,0,0-7.31,4.17C140,124.56,135.11,120.28,138.29,105.26Z" style="fill: #611e0c"/>
      <path d="M141.81,122.88a3.6,3.6,0,0,1-2-.63c-3-2.06-3.7-8.28-1.84-17.06l0.29-1.38,0.42,1.34c0,0.11,3.65,11.25,13,12l1.48,0.12-1.36.59a53.69,53.69,0,0,0-7.25,4.14A5,5,0,0,1,141.81,122.88Zm-3.41-16.29c-1.45,7.71-.81,13.29,1.78,15.05a3.39,3.39,0,0,0,3.94-.28,62.32,62.32,0,0,1,6.23-3.66C143.23,116.43,139.6,109.44,138.4,106.59Z"/>
    </g>
    <g>
      <path d="M141.47,122.5s0.92-5.77-4.17-7.36a11.66,11.66,0,0,0,1.24,5.16C139.82,122.49,141.47,122.5,141.47,122.5Z" style="fill: #932b12"/>
      <path d="M141.78,122.87h-0.32c-0.08,0-1.88,0-3.24-2.38a11.92,11.92,0,0,1-1.29-5.35v-0.5l0.48,0.15c5.33,1.66,4.43,7.71,4.42,7.77Zm-4.09-7.2a10.75,10.75,0,0,0,1.18,4.45,3.8,3.8,0,0,0,2.28,2C141.24,120.88,141.25,117.1,137.69,115.67Z"/>
    </g>
    <g>
      <path d="M138,106.5s0.6,5.55,2.81,8,5,5.3,9.76,2.92c0,0-4.34-.31-8.77-5.57,0,0-3-4-3.55-6.54Z" style="fill: #fff"/>
      <path d="M147.26,118.63c-3.07,0-5.16-2.27-6.67-3.92-2.27-2.47-2.88-7.93-2.91-8.17v-0.06l0.61-3,0.38,1.72c0.53,2.4,3.46,6.36,3.49,6.4,4.25,5,8.46,5.42,8.5,5.42l1.33,0.1-1.19.6A7.83,7.83,0,0,1,147.26,118.63Zm-8.79-11.71c0.2,1.36.91,5.39,2.66,7.29,1.94,2.11,4.31,4.68,8.25,3.3a16.15,16.15,0,0,1-7.82-5.46A31.53,31.53,0,0,1,138.47,106.92Z"/>
    </g>
    <polygon points="151.6 117.13 155.14 117.11 151.65 117.87 151.6 117.13" style="fill: #000201"/>
    <path d="M142.11,92s1-.77.34-1.45-1.76.46-1.76,0.72S140.54,92.49,142.11,92Z" style="fill: #fff"/>
    <path d="M168.58,102.14s-1.14.24-.8,1.11,1.48,0.32,1.48.32a1,1,0,0,0,.56-1.21A0.86,0.86,0,0,0,168.58,102.14Z" style="fill: #fff"/>
    <path d="M107.78,194.92s0.05,0.25.19,0.68a13.22,13.22,0,0,0,.67,1.72,13,13,0,0,0,1.3,2.22,11.17,11.17,0,0,0,2,2.15c0.36,0.34.79,0.61,1.18,0.91s0.85,0.49,1.25.73l1.24,0.56c0.39,0.18.8,0.27,1.16,0.4a9.13,9.13,0,0,0,1,.3l0.79,0.18,0.69,0.17-0.7-.05-0.81-.08a5.51,5.51,0,0,1-1-.19c-0.38-.1-0.8-0.16-1.22-0.31s-0.87-.3-1.32-0.5-0.89-.46-1.33-0.72-0.88-.57-1.27-0.92a11.75,11.75,0,0,1-2-2.31,9.83,9.83,0,0,1-.7-1.23,12.54,12.54,0,0,1-.48-1.17,9.75,9.75,0,0,1-.46-1.82A4.93,4.93,0,0,1,107.78,194.92Z"/>
    <path d="M138.18,207.25a19,19,0,0,0,2.14-.83,22.71,22.71,0,0,0,2.08-1.06c0.37-.2.73-0.46,1.11-0.69s0.74-.51,1.08-0.81a10.5,10.5,0,0,0,1-.89l0.47-.46,0.42-.49a7.58,7.58,0,0,0,.74-1,6.85,6.85,0,0,0,.59-0.93l0.45-.82,0.28-.67,0.26-.58-0.14.62-0.18.72c-0.09.27-.21,0.57-0.35,0.89a5.59,5.59,0,0,1-.51,1l-0.31.54c-0.12.18-.26,0.34-0.39,0.52a7.44,7.44,0,0,1-.89,1,10.87,10.87,0,0,1-1,1c-0.36.31-.76,0.55-1.14,0.83s-0.79.48-1.18,0.67a14.5,14.5,0,0,1-2.21.92A11.56,11.56,0,0,1,138.18,207.25Z"/>
  </g>
</svg>
