<?xml version="1.0" encoding="utf-8"?>
<!-- Generator: Adobe Illustrator 18.1.1, SVG Export Plug-In . SVG Version: 6.00 Build 0)  -->
<svg version="1.1" id="Layer_1" xmlns="http://www.w3.org/2000/svg" xmlns:xlink="http://www.w3.org/1999/xlink" x="0px" y="0px"
	 viewBox="0 0 276 137" enable-background="new 0 0 276 137" xml:space="preserve">
<g>
	<defs>
		<path id="SVGID_529_" d="M78.5-363.6c-21.5,0-38.9-17.4-38.9-38.9s17.4-38.9,38.9-38.9c21.5,0,38.9,17.4,38.9,38.9
			S100-363.6,78.5-363.6z M78.5-360.6c23.2,0,41.9-18.8,41.9-41.9s-18.8-41.9-41.9-41.9c-23.2,0-41.9,18.8-41.9,41.9
			S55.3-360.6,78.5-360.6z M16.5-464.4h123.9v123.9H16.5V-464.4z"/>
	</defs>
	<clipPath id="SVGID_2_">
		<use xlink:href="#SVGID_529_"  overflow="visible"/>
	</clipPath>
	<g clip-path="url(#SVGID_2_)">
		<defs>
			<circle id="SVGID_531_" cx="78.5" cy="-402.5" r="40.4"/>
		</defs>
		<clipPath id="SVGID_4_">
			<use xlink:href="#SVGID_531_"  overflow="visible"/>
		</clipPath>
		<g clip-path="url(#SVGID_4_)">
			<defs>
				<rect id="SVGID_533_" x="-554.8" y="-947.8" width="1121" height="1030"/>
			</defs>
			<clipPath id="SVGID_6_">
				<use xlink:href="#SVGID_533_"  overflow="visible"/>
			</clipPath>
		</g>
	</g>
</g>
<g>
	<defs>
		<circle id="SVGID_535_" cx="78.5" cy="-402.5" r="40.4"/>
	</defs>
	<clipPath id="SVGID_8_">
		<use xlink:href="#SVGID_535_"  overflow="visible"/>
	</clipPath>
	<g clip-path="url(#SVGID_8_)">
		<defs>
			<rect id="SVGID_537_" x="-554.8" y="-947.8" width="1121" height="1030"/>
		</defs>
		<clipPath id="SVGID_10_">
			<use xlink:href="#SVGID_537_"  overflow="visible"/>
		</clipPath>
	</g>
</g>
<g>
	<defs>
		<path id="SVGID_539_" d="M191.5-363.6c-21.5,0-38.9-17.4-38.9-38.9s17.4-38.9,38.9-38.9c21.5,0,38.9,17.4,38.9,38.9
			S213-363.6,191.5-363.6z M191.5-360.6c23.2,0,41.9-18.8,41.9-41.9s-18.8-41.9-41.9-41.9c-23.2,0-41.9,18.8-41.9,41.9
			S168.3-360.6,191.5-360.6z M129.5-464.4h123.9v123.9H129.5V-464.4z"/>
	</defs>
	<clipPath id="SVGID_12_">
		<use xlink:href="#SVGID_539_"  overflow="visible"/>
	</clipPath>
	<g clip-path="url(#SVGID_12_)">
		<defs>
			<circle id="SVGID_541_" cx="191.5" cy="-402.5" r="40.4"/>
		</defs>
		<clipPath id="SVGID_14_">
			<use xlink:href="#SVGID_541_"  overflow="visible"/>
		</clipPath>
		<g clip-path="url(#SVGID_14_)">
			<defs>
				<rect id="SVGID_543_" x="-554.8" y="-947.8" width="1121" height="1030"/>
			</defs>
			<clipPath id="SVGID_16_">
				<use xlink:href="#SVGID_543_"  overflow="visible"/>
			</clipPath>
		</g>
	</g>
</g>
<g>
	<defs>
		<circle id="SVGID_545_" cx="191.5" cy="-402.5" r="40.4"/>
	</defs>
	<clipPath id="SVGID_18_">
		<use xlink:href="#SVGID_545_"  overflow="visible"/>
	</clipPath>
	<g clip-path="url(#SVGID_18_)">
		<defs>
			<rect id="SVGID_547_" x="-554.8" y="-947.8" width="1121" height="1030"/>
		</defs>
		<clipPath id="SVGID_20_">
			<use xlink:href="#SVGID_547_"  overflow="visible"/>
		</clipPath>
	</g>
</g>
<g>
	<defs>
		<path id="SVGID_895_" d="M379.8-438.1h-1.5v1.5v81v1.5h1.5h105h1.5v-1.5v-81v-1.5h-1.5H379.8z M379.8-435.1h105l-1.5-1.5v81
			l1.5-1.5h-105l1.5,1.5v-81L379.8-435.1z M358.3-458.1h148v124h-148V-458.1z"/>
	</defs>
	<clipPath id="SVGID_22_">
		<use xlink:href="#SVGID_895_"  overflow="visible"/>
	</clipPath>
	<g clip-path="url(#SVGID_22_)">
		<defs>
			<rect id="SVGID_897_" x="379.8" y="-436.6" width="105" height="81"/>
		</defs>
		<clipPath id="SVGID_24_">
			<use xlink:href="#SVGID_897_"  overflow="visible"/>
		</clipPath>
		<g clip-path="url(#SVGID_24_)">
			<defs>
				<rect id="SVGID_899_" x="-501.2" y="-935.6" width="1121" height="1030"/>
			</defs>
			<clipPath id="SVGID_26_">
				<use xlink:href="#SVGID_899_"  overflow="visible"/>
			</clipPath>
		</g>
	</g>
</g>
<g>
	<defs>
		<rect id="SVGID_901_" x="379.8" y="-436.6" width="105" height="81"/>
	</defs>
	<clipPath id="SVGID_28_">
		<use xlink:href="#SVGID_901_"  overflow="visible"/>
	</clipPath>
	<g clip-path="url(#SVGID_28_)">
		<defs>
			<rect id="SVGID_903_" x="-501.2" y="-935.6" width="1121" height="1030"/>
		</defs>
		<clipPath id="SVGID_30_">
			<use xlink:href="#SVGID_903_"  overflow="visible"/>
		</clipPath>
	</g>
</g>
<g>
	<defs>
		<path id="SVGID_905_" d="M373.8-421.1h-2.2l0.9-2.1l9.1-22l0.4-0.9h1h98.9h1l0.4,0.9l9.1,22l0.9,2.1h-2.2H373.8z M373.8-424.1h117
			l-1.4,2.1l-9.1-22l1.4,0.9h-98.9l1.4-0.9l-9.1,22L373.8-424.1z M351.6-401.1H513v-65H351.6V-401.1z"/>
	</defs>
	<clipPath id="SVGID_32_">
		<use xlink:href="#SVGID_905_"  overflow="visible"/>
	</clipPath>
	<g clip-path="url(#SVGID_32_)">
		<defs>
			<polygon id="SVGID_907_" points="373.8,-422.6 490.8,-422.6 481.7,-444.6 382.9,-444.6 			"/>
		</defs>
		<clipPath id="SVGID_34_">
			<use xlink:href="#SVGID_907_"  overflow="visible"/>
		</clipPath>
		<g clip-path="url(#SVGID_34_)">
			<defs>
				<rect id="SVGID_909_" x="-501.2" y="-935.6" width="1121" height="1030"/>
			</defs>
			<clipPath id="SVGID_36_">
				<use xlink:href="#SVGID_909_"  overflow="visible"/>
			</clipPath>
		</g>
	</g>
</g>
<g>
	<defs>
		<polygon id="SVGID_911_" points="373.8,-422.6 490.8,-422.6 481.7,-444.6 382.9,-444.6 		"/>
	</defs>
	<clipPath id="SVGID_38_">
		<use xlink:href="#SVGID_911_"  overflow="visible"/>
	</clipPath>
	<g clip-path="url(#SVGID_38_)">
		<defs>
			<rect id="SVGID_913_" x="-501.2" y="-935.6" width="1121" height="1030"/>
		</defs>
		<clipPath id="SVGID_40_">
			<use xlink:href="#SVGID_913_"  overflow="visible"/>
		</clipPath>
	</g>
</g>
<g>
	<defs>
		<path id="SVGID_915_" d="M458.8-454.1h-1.5v1.5v16v1.5h1.5h12h1.5v-1.5v-16v-1.5h-1.5H458.8z M458.8-451.1h12l-1.5-1.5v16l1.5-1.5
			h-12l1.5,1.5v-16L458.8-451.1z M437.3-474.1h55v59h-55V-474.1z"/>
	</defs>
	<clipPath id="SVGID_42_">
		<use xlink:href="#SVGID_915_"  overflow="visible"/>
	</clipPath>
	<g clip-path="url(#SVGID_42_)">
		<defs>
			<rect id="SVGID_917_" x="458.8" y="-452.6" width="12" height="16"/>
		</defs>
		<clipPath id="SVGID_44_">
			<use xlink:href="#SVGID_917_"  overflow="visible"/>
		</clipPath>
		<g clip-path="url(#SVGID_44_)">
			<defs>
				<rect id="SVGID_919_" x="-501.2" y="-935.6" width="1121" height="1030"/>
			</defs>
			<clipPath id="SVGID_46_">
				<use xlink:href="#SVGID_919_"  overflow="visible"/>
			</clipPath>
		</g>
	</g>
</g>
<g>
	<defs>
		<rect id="SVGID_921_" x="458.8" y="-452.6" width="12" height="16"/>
	</defs>
	<clipPath id="SVGID_48_">
		<use xlink:href="#SVGID_921_"  overflow="visible"/>
	</clipPath>
	<g clip-path="url(#SVGID_48_)">
		<defs>
			<rect id="SVGID_923_" x="-501.2" y="-935.6" width="1121" height="1030"/>
		</defs>
		<clipPath id="SVGID_50_">
			<use xlink:href="#SVGID_923_"  overflow="visible"/>
		</clipPath>
	</g>
</g>
<g>
	<defs>
		<path id="SVGID_925_" d="M392.8-388.1h-1.5v1.5v31v1.5h1.5h21h1.5v-1.5v-31v-1.5h-1.5H392.8z M392.8-385.1h21l-1.5-1.5v31l1.5-1.5
			h-21l1.5,1.5v-31L392.8-385.1z M371.3-408.1h64v74h-64V-408.1z"/>
	</defs>
	<clipPath id="SVGID_52_">
		<use xlink:href="#SVGID_925_"  overflow="visible"/>
	</clipPath>
	<g clip-path="url(#SVGID_52_)">
		<defs>
			<rect id="SVGID_927_" x="392.8" y="-386.6" width="21" height="31"/>
		</defs>
		<clipPath id="SVGID_54_">
			<use xlink:href="#SVGID_927_"  overflow="visible"/>
		</clipPath>
		<g clip-path="url(#SVGID_54_)">
			<defs>
				<rect id="SVGID_929_" x="-501.2" y="-935.6" width="1121" height="1030"/>
			</defs>
			<clipPath id="SVGID_56_">
				<use xlink:href="#SVGID_929_"  overflow="visible"/>
			</clipPath>
		</g>
	</g>
</g>
<g>
	<defs>
		<rect id="SVGID_931_" x="392.8" y="-386.6" width="21" height="31"/>
	</defs>
	<clipPath id="SVGID_58_">
		<use xlink:href="#SVGID_931_"  overflow="visible"/>
	</clipPath>
	<g clip-path="url(#SVGID_58_)">
		<defs>
			<rect id="SVGID_933_" x="-501.2" y="-935.6" width="1121" height="1030"/>
		</defs>
		<clipPath id="SVGID_60_">
			<use xlink:href="#SVGID_933_"  overflow="visible"/>
		</clipPath>
	</g>
</g>
<g>
	<defs>
		<path id="SVGID_935_" d="M393.8-416.1h-1.5v1.5v19v1.5h1.5h19h1.5v-1.5v-19v-1.5h-1.5H393.8z M393.8-413.1h19l-1.5-1.5v19l1.5-1.5
			h-19l1.5,1.5v-19L393.8-413.1z M372.3-436.1h62v62h-62V-436.1z"/>
	</defs>
	<clipPath id="SVGID_62_">
		<use xlink:href="#SVGID_935_"  overflow="visible"/>
	</clipPath>
	<g clip-path="url(#SVGID_62_)">
		<defs>
			<rect id="SVGID_937_" x="393.8" y="-414.6" width="19" height="19"/>
		</defs>
		<clipPath id="SVGID_64_">
			<use xlink:href="#SVGID_937_"  overflow="visible"/>
		</clipPath>
		<g clip-path="url(#SVGID_64_)">
			<defs>
				<rect id="SVGID_939_" x="-501.2" y="-935.6" width="1121" height="1030"/>
			</defs>
			<clipPath id="SVGID_66_">
				<use xlink:href="#SVGID_939_"  overflow="visible"/>
			</clipPath>
		</g>
	</g>
</g>
<g>
	<defs>
		<rect id="SVGID_941_" x="393.8" y="-414.6" width="19" height="19"/>
	</defs>
	<clipPath id="SVGID_68_">
		<use xlink:href="#SVGID_941_"  overflow="visible"/>
	</clipPath>
	<g clip-path="url(#SVGID_68_)">
		<defs>
			<rect id="SVGID_943_" x="-501.2" y="-935.6" width="1121" height="1030"/>
		</defs>
		<clipPath id="SVGID_70_">
			<use xlink:href="#SVGID_943_"  overflow="visible"/>
		</clipPath>
	</g>
</g>
<g>
	<defs>
		<path id="SVGID_945_" d="M398.8-411.1h-1.5v1.5v9v1.5h1.5h9h1.5v-1.5v-9v-1.5h-1.5H398.8z M398.8-408.1h9l-1.5-1.5v9l1.5-1.5h-9
			l1.5,1.5v-9L398.8-408.1z M377.3-431.1h52v52h-52V-431.1z"/>
	</defs>
	<clipPath id="SVGID_72_">
		<use xlink:href="#SVGID_945_"  overflow="visible"/>
	</clipPath>
	<g clip-path="url(#SVGID_72_)">
		<defs>
			<rect id="SVGID_947_" x="398.8" y="-409.6" width="9" height="9"/>
		</defs>
		<clipPath id="SVGID_74_">
			<use xlink:href="#SVGID_947_"  overflow="visible"/>
		</clipPath>
		<g clip-path="url(#SVGID_74_)">
			<defs>
				<rect id="SVGID_949_" x="-501.2" y="-935.6" width="1121" height="1030"/>
			</defs>
			<clipPath id="SVGID_76_">
				<use xlink:href="#SVGID_949_"  overflow="visible"/>
			</clipPath>
		</g>
	</g>
</g>
<g>
	<defs>
		<rect id="SVGID_951_" x="398.8" y="-409.6" width="9" height="9"/>
	</defs>
	<clipPath id="SVGID_78_">
		<use xlink:href="#SVGID_951_"  overflow="visible"/>
	</clipPath>
	<g clip-path="url(#SVGID_78_)">
		<defs>
			<rect id="SVGID_953_" x="-501.2" y="-935.6" width="1121" height="1030"/>
		</defs>
		<clipPath id="SVGID_80_">
			<use xlink:href="#SVGID_953_"  overflow="visible"/>
		</clipPath>
	</g>
</g>
<g>
	<defs>
		<path id="SVGID_955_" d="M423.8-416.1h-1.5v1.5v19v1.5h1.5h19h1.5v-1.5v-19v-1.5h-1.5H423.8z M423.8-413.1h19l-1.5-1.5v19l1.5-1.5
			h-19l1.5,1.5v-19L423.8-413.1z M402.3-436.1h62v62h-62V-436.1z"/>
	</defs>
	<clipPath id="SVGID_82_">
		<use xlink:href="#SVGID_955_"  overflow="visible"/>
	</clipPath>
	<g clip-path="url(#SVGID_82_)">
		<defs>
			<rect id="SVGID_957_" x="423.8" y="-414.6" width="19" height="19"/>
		</defs>
		<clipPath id="SVGID_84_">
			<use xlink:href="#SVGID_957_"  overflow="visible"/>
		</clipPath>
		<g clip-path="url(#SVGID_84_)">
			<defs>
				<rect id="SVGID_959_" x="-501.2" y="-935.6" width="1121" height="1030"/>
			</defs>
			<clipPath id="SVGID_86_">
				<use xlink:href="#SVGID_959_"  overflow="visible"/>
			</clipPath>
		</g>
	</g>
</g>
<g>
	<defs>
		<rect id="SVGID_961_" x="423.8" y="-414.6" width="19" height="19"/>
	</defs>
	<clipPath id="SVGID_88_">
		<use xlink:href="#SVGID_961_"  overflow="visible"/>
	</clipPath>
	<g clip-path="url(#SVGID_88_)">
		<defs>
			<rect id="SVGID_963_" x="-501.2" y="-935.6" width="1121" height="1030"/>
		</defs>
		<clipPath id="SVGID_90_">
			<use xlink:href="#SVGID_963_"  overflow="visible"/>
		</clipPath>
	</g>
</g>
<g>
	<defs>
		<path id="SVGID_965_" d="M452.8-416.1h-1.5v1.5v19v1.5h1.5h19h1.5v-1.5v-19v-1.5h-1.5H452.8z M452.8-413.1h19l-1.5-1.5v19l1.5-1.5
			h-19l1.5,1.5v-19L452.8-413.1z M431.3-436.1h62v62h-62V-436.1z"/>
	</defs>
	<clipPath id="SVGID_92_">
		<use xlink:href="#SVGID_965_"  overflow="visible"/>
	</clipPath>
	<g clip-path="url(#SVGID_92_)">
		<defs>
			<rect id="SVGID_967_" x="452.8" y="-414.6" width="19" height="19"/>
		</defs>
		<clipPath id="SVGID_94_">
			<use xlink:href="#SVGID_967_"  overflow="visible"/>
		</clipPath>
		<g clip-path="url(#SVGID_94_)">
			<defs>
				<rect id="SVGID_969_" x="-501.2" y="-935.6" width="1121" height="1030"/>
			</defs>
			<clipPath id="SVGID_96_">
				<use xlink:href="#SVGID_969_"  overflow="visible"/>
			</clipPath>
		</g>
	</g>
</g>
<g>
	<defs>
		<rect id="SVGID_971_" x="452.8" y="-414.6" width="19" height="19"/>
	</defs>
	<clipPath id="SVGID_98_">
		<use xlink:href="#SVGID_971_"  overflow="visible"/>
	</clipPath>
	<g clip-path="url(#SVGID_98_)">
		<defs>
			<rect id="SVGID_973_" x="-501.2" y="-935.6" width="1121" height="1030"/>
		</defs>
		<clipPath id="SVGID_100_">
			<use xlink:href="#SVGID_973_"  overflow="visible"/>
		</clipPath>
	</g>
</g>
<g>
	<defs>
		<path id="SVGID_975_" d="M423.8-388.1h-1.5v1.5v19v1.5h1.5h19h1.5v-1.5v-19v-1.5h-1.5H423.8z M423.8-385.1h19l-1.5-1.5v19l1.5-1.5
			h-19l1.5,1.5v-19L423.8-385.1z M402.3-408.1h62v62h-62V-408.1z"/>
	</defs>
	<clipPath id="SVGID_102_">
		<use xlink:href="#SVGID_975_"  overflow="visible"/>
	</clipPath>
	<g clip-path="url(#SVGID_102_)">
		<defs>
			<rect id="SVGID_977_" x="423.8" y="-386.6" width="19" height="19"/>
		</defs>
		<clipPath id="SVGID_104_">
			<use xlink:href="#SVGID_977_"  overflow="visible"/>
		</clipPath>
		<g clip-path="url(#SVGID_104_)">
			<defs>
				<rect id="SVGID_979_" x="-501.2" y="-935.6" width="1121" height="1030"/>
			</defs>
			<clipPath id="SVGID_106_">
				<use xlink:href="#SVGID_979_"  overflow="visible"/>
			</clipPath>
		</g>
	</g>
</g>
<g>
	<defs>
		<rect id="SVGID_981_" x="423.8" y="-386.6" width="19" height="19"/>
	</defs>
	<clipPath id="SVGID_108_">
		<use xlink:href="#SVGID_981_"  overflow="visible"/>
	</clipPath>
	<g clip-path="url(#SVGID_108_)">
		<defs>
			<rect id="SVGID_983_" x="-501.2" y="-935.6" width="1121" height="1030"/>
		</defs>
		<clipPath id="SVGID_110_">
			<use xlink:href="#SVGID_983_"  overflow="visible"/>
		</clipPath>
	</g>
</g>
<g>
	<defs>
		<path id="SVGID_985_" d="M452.8-388.1h-1.5v1.5v19v1.5h1.5h19h1.5v-1.5v-19v-1.5h-1.5H452.8z M452.8-385.1h19l-1.5-1.5v19l1.5-1.5
			h-19l1.5,1.5v-19L452.8-385.1z M431.3-408.1h62v62h-62V-408.1z"/>
	</defs>
	<clipPath id="SVGID_112_">
		<use xlink:href="#SVGID_985_"  overflow="visible"/>
	</clipPath>
	<g clip-path="url(#SVGID_112_)">
		<defs>
			<rect id="SVGID_987_" x="452.8" y="-386.6" width="19" height="19"/>
		</defs>
		<clipPath id="SVGID_114_">
			<use xlink:href="#SVGID_987_"  overflow="visible"/>
		</clipPath>
		<g clip-path="url(#SVGID_114_)">
			<defs>
				<rect id="SVGID_989_" x="-501.2" y="-935.6" width="1121" height="1030"/>
			</defs>
			<clipPath id="SVGID_116_">
				<use xlink:href="#SVGID_989_"  overflow="visible"/>
			</clipPath>
		</g>
	</g>
</g>
<g>
	<defs>
		<rect id="SVGID_991_" x="452.8" y="-386.6" width="19" height="19"/>
	</defs>
	<clipPath id="SVGID_118_">
		<use xlink:href="#SVGID_991_"  overflow="visible"/>
	</clipPath>
	<g clip-path="url(#SVGID_118_)">
		<defs>
			<rect id="SVGID_993_" x="-501.2" y="-935.6" width="1121" height="1030"/>
		</defs>
		<clipPath id="SVGID_120_">
			<use xlink:href="#SVGID_993_"  overflow="visible"/>
		</clipPath>
	</g>
</g>
<g>
	<defs>
		<path id="SVGID_995_" d="M428.8-411.1h-1.5v1.5v9v1.5h1.5h9h1.5v-1.5v-9v-1.5h-1.5H428.8z M428.8-408.1h9l-1.5-1.5v9l1.5-1.5h-9
			l1.5,1.5v-9L428.8-408.1z M407.3-431.1h52v52h-52V-431.1z"/>
	</defs>
	<clipPath id="SVGID_122_">
		<use xlink:href="#SVGID_995_"  overflow="visible"/>
	</clipPath>
	<g clip-path="url(#SVGID_122_)">
		<defs>
			<rect id="SVGID_997_" x="428.8" y="-409.6" width="9" height="9"/>
		</defs>
		<clipPath id="SVGID_124_">
			<use xlink:href="#SVGID_997_"  overflow="visible"/>
		</clipPath>
		<g clip-path="url(#SVGID_124_)">
			<defs>
				<rect id="SVGID_999_" x="-501.2" y="-935.6" width="1121" height="1030"/>
			</defs>
			<clipPath id="SVGID_126_">
				<use xlink:href="#SVGID_999_"  overflow="visible"/>
			</clipPath>
		</g>
	</g>
</g>
<g>
	<defs>
		<rect id="SVGID_1001_" x="428.8" y="-409.6" width="9" height="9"/>
	</defs>
	<clipPath id="SVGID_128_">
		<use xlink:href="#SVGID_1001_"  overflow="visible"/>
	</clipPath>
	<g clip-path="url(#SVGID_128_)">
		<defs>
			<rect id="SVGID_1003_" x="-501.2" y="-935.6" width="1121" height="1030"/>
		</defs>
		<clipPath id="SVGID_130_">
			<use xlink:href="#SVGID_1003_"  overflow="visible"/>
		</clipPath>
	</g>
</g>
<g>
	<defs>
		<path id="SVGID_1005_" d="M457.8-411.1h-1.5v1.5v9v1.5h1.5h9h1.5v-1.5v-9v-1.5h-1.5H457.8z M457.8-408.1h9l-1.5-1.5v9l1.5-1.5h-9
			l1.5,1.5v-9L457.8-408.1z M436.3-431.1h52v52h-52V-431.1z"/>
	</defs>
	<clipPath id="SVGID_132_">
		<use xlink:href="#SVGID_1005_"  overflow="visible"/>
	</clipPath>
	<g clip-path="url(#SVGID_132_)">
		<defs>
			<rect id="SVGID_1007_" x="457.8" y="-409.6" width="9" height="9"/>
		</defs>
		<clipPath id="SVGID_134_">
			<use xlink:href="#SVGID_1007_"  overflow="visible"/>
		</clipPath>
		<g clip-path="url(#SVGID_134_)">
			<defs>
				<rect id="SVGID_1009_" x="-501.2" y="-935.6" width="1121" height="1030"/>
			</defs>
			<clipPath id="SVGID_136_">
				<use xlink:href="#SVGID_1009_"  overflow="visible"/>
			</clipPath>
		</g>
	</g>
</g>
<g>
	<defs>
		<rect id="SVGID_1011_" x="457.8" y="-409.6" width="9" height="9"/>
	</defs>
	<clipPath id="SVGID_138_">
		<use xlink:href="#SVGID_1011_"  overflow="visible"/>
	</clipPath>
	<g clip-path="url(#SVGID_138_)">
		<defs>
			<rect id="SVGID_1013_" x="-501.2" y="-935.6" width="1121" height="1030"/>
		</defs>
		<clipPath id="SVGID_140_">
			<use xlink:href="#SVGID_1013_"  overflow="visible"/>
		</clipPath>
	</g>
</g>
<g>
	<defs>
		<path id="SVGID_1015_" d="M428.8-383.1h-1.5v1.5v9v1.5h1.5h9h1.5v-1.5v-9v-1.5h-1.5H428.8z M428.8-380.1h9l-1.5-1.5v9l1.5-1.5h-9
			l1.5,1.5v-9L428.8-380.1z M407.3-403.1h52v52h-52V-403.1z"/>
	</defs>
	<clipPath id="SVGID_142_">
		<use xlink:href="#SVGID_1015_"  overflow="visible"/>
	</clipPath>
	<g clip-path="url(#SVGID_142_)">
		<defs>
			<rect id="SVGID_1017_" x="428.8" y="-381.6" width="9" height="9"/>
		</defs>
		<clipPath id="SVGID_144_">
			<use xlink:href="#SVGID_1017_"  overflow="visible"/>
		</clipPath>
		<g clip-path="url(#SVGID_144_)">
			<defs>
				<rect id="SVGID_1019_" x="-501.2" y="-935.6" width="1121" height="1030"/>
			</defs>
			<clipPath id="SVGID_146_">
				<use xlink:href="#SVGID_1019_"  overflow="visible"/>
			</clipPath>
		</g>
	</g>
</g>
<g>
	<defs>
		<rect id="SVGID_1021_" x="428.8" y="-381.6" width="9" height="9"/>
	</defs>
	<clipPath id="SVGID_148_">
		<use xlink:href="#SVGID_1021_"  overflow="visible"/>
	</clipPath>
	<g clip-path="url(#SVGID_148_)">
		<defs>
			<rect id="SVGID_1023_" x="-501.2" y="-935.6" width="1121" height="1030"/>
		</defs>
		<clipPath id="SVGID_150_">
			<use xlink:href="#SVGID_1023_"  overflow="visible"/>
		</clipPath>
	</g>
</g>
<g>
	<defs>
		<path id="SVGID_1025_" d="M457.8-383.1h-1.5v1.5v9v1.5h1.5h9h1.5v-1.5v-9v-1.5h-1.5H457.8z M457.8-380.1h9l-1.5-1.5v9l1.5-1.5h-9
			l1.5,1.5v-9L457.8-380.1z M436.3-403.1h52v52h-52V-403.1z"/>
	</defs>
	<clipPath id="SVGID_152_">
		<use xlink:href="#SVGID_1025_"  overflow="visible"/>
	</clipPath>
	<g clip-path="url(#SVGID_152_)">
		<defs>
			<rect id="SVGID_1027_" x="457.8" y="-381.6" width="9" height="9"/>
		</defs>
		<clipPath id="SVGID_154_">
			<use xlink:href="#SVGID_1027_"  overflow="visible"/>
		</clipPath>
		<g clip-path="url(#SVGID_154_)">
			<defs>
				<rect id="SVGID_1029_" x="-501.2" y="-935.6" width="1121" height="1030"/>
			</defs>
			<clipPath id="SVGID_156_">
				<use xlink:href="#SVGID_1029_"  overflow="visible"/>
			</clipPath>
		</g>
	</g>
</g>
<g>
	<defs>
		<rect id="SVGID_1031_" x="457.8" y="-381.6" width="9" height="9"/>
	</defs>
	<clipPath id="SVGID_158_">
		<use xlink:href="#SVGID_1031_"  overflow="visible"/>
	</clipPath>
	<g clip-path="url(#SVGID_158_)">
		<defs>
			<rect id="SVGID_1033_" x="-501.2" y="-935.6" width="1121" height="1030"/>
		</defs>
		<clipPath id="SVGID_160_">
			<use xlink:href="#SVGID_1033_"  overflow="visible"/>
		</clipPath>
	</g>
</g>
<g>
	<defs>
		<path id="SVGID_1049_" d="M434-199.7c-27.1,0-49-21.9-49-49c0-27.1,21.9-49,49-49c27.1,0,49,21.9,49,49
			C483-221.7,461.1-199.7,434-199.7z M434-196.7c28.7,0,52-23.3,52-52c0-28.7-23.3-52-52-52s-52,23.3-52,52
			C382-220,405.3-196.7,434-196.7z M362-320.7h144v144H362V-320.7z"/>
	</defs>
	<clipPath id="SVGID_162_">
		<use xlink:href="#SVGID_1049_"  overflow="visible"/>
	</clipPath>
	<g clip-path="url(#SVGID_162_)">
		<defs>
			<circle id="SVGID_1051_" cx="434" cy="-248.7" r="50.5"/>
		</defs>
		<clipPath id="SVGID_164_">
			<use xlink:href="#SVGID_1051_"  overflow="visible"/>
		</clipPath>
		<g clip-path="url(#SVGID_164_)">
			<defs>
				<rect id="SVGID_1053_" x="259.5" y="-984.7" width="1121" height="1030"/>
			</defs>
			<clipPath id="SVGID_166_">
				<use xlink:href="#SVGID_1053_"  overflow="visible"/>
			</clipPath>
		</g>
	</g>
</g>
<g>
	<defs>
		<circle id="SVGID_1055_" cx="434" cy="-248.7" r="50.5"/>
	</defs>
	<clipPath id="SVGID_168_">
		<use xlink:href="#SVGID_1055_"  overflow="visible"/>
	</clipPath>
	<g clip-path="url(#SVGID_168_)">
		<defs>
			<rect id="SVGID_1057_" x="259.5" y="-984.7" width="1121" height="1030"/>
		</defs>
		<clipPath id="SVGID_170_">
			<use xlink:href="#SVGID_1057_"  overflow="visible"/>
		</clipPath>
	</g>
</g>
<g>
	<defs>
		<circle id="SVGID_1059_" cx="434" cy="-248.7" r="43.5"/>
	</defs>
	<clipPath id="SVGID_172_">
		<use xlink:href="#SVGID_1059_"  overflow="visible"/>
	</clipPath>
	<g clip-path="url(#SVGID_172_)">
		<defs>
			<rect id="SVGID_1061_" x="259.5" y="-984.7" width="1121" height="1030"/>
		</defs>
		<clipPath id="SVGID_174_">
			<use xlink:href="#SVGID_1061_"  overflow="visible"/>
		</clipPath>
	</g>
</g>
<g>
	<defs>
		<path id="SVGID_1063_" d="M434.7-32.5c-24.6,0-44.6-20-44.6-44.6s20-44.6,44.6-44.6c24.6,0,44.6,20,44.6,44.6
			S459.3-32.5,434.7-32.5z M434.7-29.8c26.1,0,47.3-21.2,47.3-47.3s-21.2-47.3-47.3-47.3s-47.3,21.2-47.3,47.3
			S408.6-29.8,434.7-29.8z M369.2-142.6h131v131h-131V-142.6z"/>
	</defs>
	<clipPath id="SVGID_176_">
		<use xlink:href="#SVGID_1063_"  overflow="visible"/>
	</clipPath>
	<g clip-path="url(#SVGID_176_)">
		<defs>
			<circle id="SVGID_1065_" cx="434.7" cy="-77.1" r="45.9"/>
		</defs>
		<clipPath id="SVGID_178_">
			<use xlink:href="#SVGID_1065_"  overflow="visible"/>
		</clipPath>
		<g clip-path="url(#SVGID_178_)">
			<defs>
				<rect id="SVGID_1067_" x="276" y="-746.7" width="1019.8" height="937"/>
			</defs>
			<clipPath id="SVGID_180_">
				<use xlink:href="#SVGID_1067_"  overflow="visible"/>
			</clipPath>
		</g>
	</g>
</g>
<g>
	<defs>
		<circle id="SVGID_1069_" cx="434.7" cy="-77.1" r="45.9"/>
	</defs>
	<clipPath id="SVGID_182_">
		<use xlink:href="#SVGID_1069_"  overflow="visible"/>
	</clipPath>
	<g clip-path="url(#SVGID_182_)">
		<defs>
			<rect id="SVGID_1071_" x="276" y="-746.7" width="1019.8" height="937"/>
		</defs>
		<clipPath id="SVGID_184_">
			<use xlink:href="#SVGID_1071_"  overflow="visible"/>
		</clipPath>
	</g>
</g>
<g>
	<defs>
		<circle id="SVGID_1073_" cx="434.7" cy="-77.1" r="39.6"/>
	</defs>
	<clipPath id="SVGID_186_">
		<use xlink:href="#SVGID_1073_"  overflow="visible"/>
	</clipPath>
	<g clip-path="url(#SVGID_186_)">
		<defs>
			<rect id="SVGID_1075_" x="276" y="-746.7" width="1019.8" height="937"/>
		</defs>
		<clipPath id="SVGID_188_">
			<use xlink:href="#SVGID_1075_"  overflow="visible"/>
		</clipPath>
	</g>
</g>
<g>
	<defs>
		<path id="SVGID_1077_" d="M973.5,34.2H972v1.5v81v1.5h1.5h105h1.5v-1.5v-81v-1.5h-1.5H973.5z M973.5,37.2h105l-1.5-1.5v81l1.5-1.5
			h-105l1.5,1.5v-81L973.5,37.2z M952,14.2h148v124H952V14.2z"/>
	</defs>
	<clipPath id="SVGID_190_">
		<use xlink:href="#SVGID_1077_"  overflow="visible"/>
	</clipPath>
	<g clip-path="url(#SVGID_190_)">
		<defs>
			<rect id="SVGID_1079_" x="973.5" y="35.7" width="105" height="81"/>
		</defs>
		<clipPath id="SVGID_192_">
			<use xlink:href="#SVGID_1079_"  overflow="visible"/>
		</clipPath>
		<g clip-path="url(#SVGID_192_)">
			<defs>
				<rect id="SVGID_1081_" x="92.5" y="-463.3" width="1121" height="1030"/>
			</defs>
			<clipPath id="SVGID_194_">
				<use xlink:href="#SVGID_1081_"  overflow="visible"/>
			</clipPath>
		</g>
	</g>
</g>
<g>
	<defs>
		<rect id="SVGID_1083_" x="973.5" y="35.7" width="105" height="81"/>
	</defs>
	<clipPath id="SVGID_196_">
		<use xlink:href="#SVGID_1083_"  overflow="visible"/>
	</clipPath>
	<g clip-path="url(#SVGID_196_)">
		<defs>
			<rect id="SVGID_1085_" x="92.5" y="-463.3" width="1121" height="1030"/>
		</defs>
		<clipPath id="SVGID_198_">
			<use xlink:href="#SVGID_1085_"  overflow="visible"/>
		</clipPath>
	</g>
</g>
<g>
	<defs>
		<path id="SVGID_1087_" d="M967.5,51.2h-2.2l0.9-2.1l9.1-22l0.4-0.9h1h98.9h1l0.4,0.9l9.1,22l0.9,2.1h-2.2H967.5z M967.5,48.2h117
			l-1.4,2.1l-9.1-22l1.4,0.9h-98.9l1.4-0.9l-9.1,22L967.5,48.2z M945.3,71.2h161.5v-65H945.3V71.2z"/>
	</defs>
	<clipPath id="SVGID_200_">
		<use xlink:href="#SVGID_1087_"  overflow="visible"/>
	</clipPath>
	<g clip-path="url(#SVGID_200_)">
		<defs>
			<polygon id="SVGID_1089_" points="967.5,49.7 1084.5,49.7 1075.4,27.7 976.6,27.7 			"/>
		</defs>
		<clipPath id="SVGID_202_">
			<use xlink:href="#SVGID_1089_"  overflow="visible"/>
		</clipPath>
		<g clip-path="url(#SVGID_202_)">
			<defs>
				<rect id="SVGID_1091_" x="92.5" y="-463.3" width="1121" height="1030"/>
			</defs>
			<clipPath id="SVGID_204_">
				<use xlink:href="#SVGID_1091_"  overflow="visible"/>
			</clipPath>
		</g>
	</g>
</g>
<g>
	<defs>
		<polygon id="SVGID_1093_" points="967.5,49.7 1084.5,49.7 1075.4,27.7 976.6,27.7 		"/>
	</defs>
	<clipPath id="SVGID_206_">
		<use xlink:href="#SVGID_1093_"  overflow="visible"/>
	</clipPath>
	<g clip-path="url(#SVGID_206_)">
		<defs>
			<rect id="SVGID_1095_" x="92.5" y="-463.3" width="1121" height="1030"/>
		</defs>
		<clipPath id="SVGID_208_">
			<use xlink:href="#SVGID_1095_"  overflow="visible"/>
		</clipPath>
	</g>
</g>
<g>
	<defs>
		<path id="SVGID_1097_" d="M1052.5,18.2h-1.5v1.5v16v1.5h1.5h12h1.5v-1.5v-16v-1.5h-1.5H1052.5z M1052.5,21.2h12l-1.5-1.5v16
			l1.5-1.5h-12l1.5,1.5v-16L1052.5,21.2z M1031-1.8h55v59h-55V-1.8z"/>
	</defs>
	<clipPath id="SVGID_210_">
		<use xlink:href="#SVGID_1097_"  overflow="visible"/>
	</clipPath>
	<g clip-path="url(#SVGID_210_)">
		<defs>
			<rect id="SVGID_1099_" x="1052.5" y="19.7" width="12" height="16"/>
		</defs>
		<clipPath id="SVGID_212_">
			<use xlink:href="#SVGID_1099_"  overflow="visible"/>
		</clipPath>
		<g clip-path="url(#SVGID_212_)">
			<defs>
				<rect id="SVGID_1101_" x="92.5" y="-463.3" width="1121" height="1030"/>
			</defs>
			<clipPath id="SVGID_214_">
				<use xlink:href="#SVGID_1101_"  overflow="visible"/>
			</clipPath>
		</g>
	</g>
</g>
<g>
	<defs>
		<rect id="SVGID_1103_" x="1052.5" y="19.7" width="12" height="16"/>
	</defs>
	<clipPath id="SVGID_216_">
		<use xlink:href="#SVGID_1103_"  overflow="visible"/>
	</clipPath>
	<g clip-path="url(#SVGID_216_)">
		<defs>
			<rect id="SVGID_1105_" x="92.5" y="-463.3" width="1121" height="1030"/>
		</defs>
		<clipPath id="SVGID_218_">
			<use xlink:href="#SVGID_1105_"  overflow="visible"/>
		</clipPath>
	</g>
</g>
<g>
	<defs>
		<path id="SVGID_1107_" d="M986.5,84.2H985v1.5v31v1.5h1.5h21h1.5v-1.5v-31v-1.5h-1.5H986.5z M986.5,87.2h21l-1.5-1.5v31l1.5-1.5
			h-21l1.5,1.5v-31L986.5,87.2z M965,64.2h64v74h-64V64.2z"/>
	</defs>
	<clipPath id="SVGID_220_">
		<use xlink:href="#SVGID_1107_"  overflow="visible"/>
	</clipPath>
	<g clip-path="url(#SVGID_220_)">
		<defs>
			<rect id="SVGID_1109_" x="986.5" y="85.7" width="21" height="31"/>
		</defs>
		<clipPath id="SVGID_222_">
			<use xlink:href="#SVGID_1109_"  overflow="visible"/>
		</clipPath>
		<g clip-path="url(#SVGID_222_)">
			<defs>
				<rect id="SVGID_1111_" x="92.5" y="-463.3" width="1121" height="1030"/>
			</defs>
			<clipPath id="SVGID_224_">
				<use xlink:href="#SVGID_1111_"  overflow="visible"/>
			</clipPath>
		</g>
	</g>
</g>
<g>
	<defs>
		<rect id="SVGID_1113_" x="986.5" y="85.7" width="21" height="31"/>
	</defs>
	<clipPath id="SVGID_226_">
		<use xlink:href="#SVGID_1113_"  overflow="visible"/>
	</clipPath>
	<g clip-path="url(#SVGID_226_)">
		<defs>
			<rect id="SVGID_1115_" x="92.5" y="-463.3" width="1121" height="1030"/>
		</defs>
		<clipPath id="SVGID_228_">
			<use xlink:href="#SVGID_1115_"  overflow="visible"/>
		</clipPath>
	</g>
</g>
<g>
	<defs>
		<path id="SVGID_1117_" d="M987.5,56.2H986v1.5v19v1.5h1.5h19h1.5v-1.5v-19v-1.5h-1.5H987.5z M987.5,59.2h19l-1.5-1.5v19l1.5-1.5
			h-19l1.5,1.5v-19L987.5,59.2z M966,36.2h62v62h-62V36.2z"/>
	</defs>
	<clipPath id="SVGID_230_">
		<use xlink:href="#SVGID_1117_"  overflow="visible"/>
	</clipPath>
	<g clip-path="url(#SVGID_230_)">
		<defs>
			<rect id="SVGID_1119_" x="987.5" y="57.7" width="19" height="19"/>
		</defs>
		<clipPath id="SVGID_232_">
			<use xlink:href="#SVGID_1119_"  overflow="visible"/>
		</clipPath>
		<g clip-path="url(#SVGID_232_)">
			<defs>
				<rect id="SVGID_1121_" x="92.5" y="-463.3" width="1121" height="1030"/>
			</defs>
			<clipPath id="SVGID_234_">
				<use xlink:href="#SVGID_1121_"  overflow="visible"/>
			</clipPath>
		</g>
	</g>
</g>
<g>
	<defs>
		<rect id="SVGID_1123_" x="987.5" y="57.7" width="19" height="19"/>
	</defs>
	<clipPath id="SVGID_236_">
		<use xlink:href="#SVGID_1123_"  overflow="visible"/>
	</clipPath>
	<g clip-path="url(#SVGID_236_)">
		<defs>
			<rect id="SVGID_1125_" x="92.5" y="-463.3" width="1121" height="1030"/>
		</defs>
		<clipPath id="SVGID_238_">
			<use xlink:href="#SVGID_1125_"  overflow="visible"/>
		</clipPath>
	</g>
</g>
<g>
	<defs>
		<path id="SVGID_1127_" d="M992.5,61.2H991v1.5v9v1.5h1.5h9h1.5v-1.5v-9v-1.5h-1.5H992.5z M992.5,64.2h9l-1.5-1.5v9l1.5-1.5h-9
			l1.5,1.5v-9L992.5,64.2z M971,41.2h52v52h-52V41.2z"/>
	</defs>
	<clipPath id="SVGID_240_">
		<use xlink:href="#SVGID_1127_"  overflow="visible"/>
	</clipPath>
	<g clip-path="url(#SVGID_240_)">
		<defs>
			<rect id="SVGID_1129_" x="992.5" y="62.7" width="9" height="9"/>
		</defs>
		<clipPath id="SVGID_242_">
			<use xlink:href="#SVGID_1129_"  overflow="visible"/>
		</clipPath>
		<g clip-path="url(#SVGID_242_)">
			<defs>
				<rect id="SVGID_1131_" x="92.5" y="-463.3" width="1121" height="1030"/>
			</defs>
			<clipPath id="SVGID_244_">
				<use xlink:href="#SVGID_1131_"  overflow="visible"/>
			</clipPath>
		</g>
	</g>
</g>
<g>
	<defs>
		<rect id="SVGID_1133_" x="992.5" y="62.7" width="9" height="9"/>
	</defs>
	<clipPath id="SVGID_246_">
		<use xlink:href="#SVGID_1133_"  overflow="visible"/>
	</clipPath>
	<g clip-path="url(#SVGID_246_)">
		<defs>
			<rect id="SVGID_1135_" x="92.5" y="-463.3" width="1121" height="1030"/>
		</defs>
		<clipPath id="SVGID_248_">
			<use xlink:href="#SVGID_1135_"  overflow="visible"/>
		</clipPath>
	</g>
</g>
<g>
	<defs>
		<path id="SVGID_1137_" d="M1017.5,56.2h-1.5v1.5v19v1.5h1.5h19h1.5v-1.5v-19v-1.5h-1.5H1017.5z M1017.5,59.2h19l-1.5-1.5v19
			l1.5-1.5h-19l1.5,1.5v-19L1017.5,59.2z M996,36.2h62v62h-62V36.2z"/>
	</defs>
	<clipPath id="SVGID_250_">
		<use xlink:href="#SVGID_1137_"  overflow="visible"/>
	</clipPath>
	<g clip-path="url(#SVGID_250_)">
		<defs>
			<rect id="SVGID_1139_" x="1017.5" y="57.7" width="19" height="19"/>
		</defs>
		<clipPath id="SVGID_252_">
			<use xlink:href="#SVGID_1139_"  overflow="visible"/>
		</clipPath>
		<g clip-path="url(#SVGID_252_)">
			<defs>
				<rect id="SVGID_1141_" x="92.5" y="-463.3" width="1121" height="1030"/>
			</defs>
			<clipPath id="SVGID_254_">
				<use xlink:href="#SVGID_1141_"  overflow="visible"/>
			</clipPath>
		</g>
	</g>
</g>
<g>
	<defs>
		<rect id="SVGID_1143_" x="1017.5" y="57.7" width="19" height="19"/>
	</defs>
	<clipPath id="SVGID_256_">
		<use xlink:href="#SVGID_1143_"  overflow="visible"/>
	</clipPath>
	<g clip-path="url(#SVGID_256_)">
		<defs>
			<rect id="SVGID_1145_" x="92.5" y="-463.3" width="1121" height="1030"/>
		</defs>
		<clipPath id="SVGID_258_">
			<use xlink:href="#SVGID_1145_"  overflow="visible"/>
		</clipPath>
	</g>
</g>
<g>
	<defs>
		<path id="SVGID_1147_" d="M1046.5,56.2h-1.5v1.5v19v1.5h1.5h19h1.5v-1.5v-19v-1.5h-1.5H1046.5z M1046.5,59.2h19l-1.5-1.5v19
			l1.5-1.5h-19l1.5,1.5v-19L1046.5,59.2z M1025,36.2h62v62h-62V36.2z"/>
	</defs>
	<clipPath id="SVGID_260_">
		<use xlink:href="#SVGID_1147_"  overflow="visible"/>
	</clipPath>
	<g clip-path="url(#SVGID_260_)">
		<defs>
			<rect id="SVGID_1149_" x="1046.5" y="57.7" width="19" height="19"/>
		</defs>
		<clipPath id="SVGID_262_">
			<use xlink:href="#SVGID_1149_"  overflow="visible"/>
		</clipPath>
		<g clip-path="url(#SVGID_262_)">
			<defs>
				<rect id="SVGID_1151_" x="92.5" y="-463.3" width="1121" height="1030"/>
			</defs>
			<clipPath id="SVGID_264_">
				<use xlink:href="#SVGID_1151_"  overflow="visible"/>
			</clipPath>
		</g>
	</g>
</g>
<g>
	<defs>
		<rect id="SVGID_1153_" x="1046.5" y="57.7" width="19" height="19"/>
	</defs>
	<clipPath id="SVGID_266_">
		<use xlink:href="#SVGID_1153_"  overflow="visible"/>
	</clipPath>
	<g clip-path="url(#SVGID_266_)">
		<defs>
			<rect id="SVGID_1155_" x="92.5" y="-463.3" width="1121" height="1030"/>
		</defs>
		<clipPath id="SVGID_268_">
			<use xlink:href="#SVGID_1155_"  overflow="visible"/>
		</clipPath>
	</g>
</g>
<g>
	<defs>
		<path id="SVGID_1157_" d="M1017.5,84.2h-1.5v1.5v19v1.5h1.5h19h1.5v-1.5v-19v-1.5h-1.5H1017.5z M1017.5,87.2h19l-1.5-1.5v19
			l1.5-1.5h-19l1.5,1.5v-19L1017.5,87.2z M996,64.2h62v62h-62V64.2z"/>
	</defs>
	<clipPath id="SVGID_270_">
		<use xlink:href="#SVGID_1157_"  overflow="visible"/>
	</clipPath>
	<g clip-path="url(#SVGID_270_)">
		<defs>
			<rect id="SVGID_1159_" x="1017.5" y="85.7" width="19" height="19"/>
		</defs>
		<clipPath id="SVGID_272_">
			<use xlink:href="#SVGID_1159_"  overflow="visible"/>
		</clipPath>
		<g clip-path="url(#SVGID_272_)">
			<defs>
				<rect id="SVGID_1161_" x="92.5" y="-463.3" width="1121" height="1030"/>
			</defs>
			<clipPath id="SVGID_274_">
				<use xlink:href="#SVGID_1161_"  overflow="visible"/>
			</clipPath>
		</g>
	</g>
</g>
<g>
	<defs>
		<rect id="SVGID_1163_" x="1017.5" y="85.7" width="19" height="19"/>
	</defs>
	<clipPath id="SVGID_276_">
		<use xlink:href="#SVGID_1163_"  overflow="visible"/>
	</clipPath>
	<g clip-path="url(#SVGID_276_)">
		<defs>
			<rect id="SVGID_1165_" x="92.5" y="-463.3" width="1121" height="1030"/>
		</defs>
		<clipPath id="SVGID_278_">
			<use xlink:href="#SVGID_1165_"  overflow="visible"/>
		</clipPath>
	</g>
</g>
<g>
	<defs>
		<path id="SVGID_1167_" d="M1046.5,84.2h-1.5v1.5v19v1.5h1.5h19h1.5v-1.5v-19v-1.5h-1.5H1046.5z M1046.5,87.2h19l-1.5-1.5v19
			l1.5-1.5h-19l1.5,1.5v-19L1046.5,87.2z M1025,64.2h62v62h-62V64.2z"/>
	</defs>
	<clipPath id="SVGID_280_">
		<use xlink:href="#SVGID_1167_"  overflow="visible"/>
	</clipPath>
	<g clip-path="url(#SVGID_280_)">
		<defs>
			<rect id="SVGID_1169_" x="1046.5" y="85.7" width="19" height="19"/>
		</defs>
		<clipPath id="SVGID_282_">
			<use xlink:href="#SVGID_1169_"  overflow="visible"/>
		</clipPath>
		<g clip-path="url(#SVGID_282_)">
			<defs>
				<rect id="SVGID_1171_" x="92.5" y="-463.3" width="1121" height="1030"/>
			</defs>
			<clipPath id="SVGID_284_">
				<use xlink:href="#SVGID_1171_"  overflow="visible"/>
			</clipPath>
		</g>
	</g>
</g>
<g>
	<defs>
		<rect id="SVGID_1173_" x="1046.5" y="85.7" width="19" height="19"/>
	</defs>
	<clipPath id="SVGID_286_">
		<use xlink:href="#SVGID_1173_"  overflow="visible"/>
	</clipPath>
	<g clip-path="url(#SVGID_286_)">
		<defs>
			<rect id="SVGID_1175_" x="92.5" y="-463.3" width="1121" height="1030"/>
		</defs>
		<clipPath id="SVGID_288_">
			<use xlink:href="#SVGID_1175_"  overflow="visible"/>
		</clipPath>
	</g>
</g>
<g>
	<defs>
		<path id="SVGID_1177_" d="M1022.5,61.2h-1.5v1.5v9v1.5h1.5h9h1.5v-1.5v-9v-1.5h-1.5H1022.5z M1022.5,64.2h9l-1.5-1.5v9l1.5-1.5h-9
			l1.5,1.5v-9L1022.5,64.2z M1001,41.2h52v52h-52V41.2z"/>
	</defs>
	<clipPath id="SVGID_290_">
		<use xlink:href="#SVGID_1177_"  overflow="visible"/>
	</clipPath>
	<g clip-path="url(#SVGID_290_)">
		<defs>
			<rect id="SVGID_1179_" x="1022.5" y="62.7" width="9" height="9"/>
		</defs>
		<clipPath id="SVGID_292_">
			<use xlink:href="#SVGID_1179_"  overflow="visible"/>
		</clipPath>
		<g clip-path="url(#SVGID_292_)">
			<defs>
				<rect id="SVGID_1181_" x="92.5" y="-463.3" width="1121" height="1030"/>
			</defs>
			<clipPath id="SVGID_294_">
				<use xlink:href="#SVGID_1181_"  overflow="visible"/>
			</clipPath>
		</g>
	</g>
</g>
<g>
	<defs>
		<rect id="SVGID_1183_" x="1022.5" y="62.7" width="9" height="9"/>
	</defs>
	<clipPath id="SVGID_296_">
		<use xlink:href="#SVGID_1183_"  overflow="visible"/>
	</clipPath>
	<g clip-path="url(#SVGID_296_)">
		<defs>
			<rect id="SVGID_1185_" x="92.5" y="-463.3" width="1121" height="1030"/>
		</defs>
		<clipPath id="SVGID_298_">
			<use xlink:href="#SVGID_1185_"  overflow="visible"/>
		</clipPath>
	</g>
</g>
<g>
	<defs>
		<path id="SVGID_1187_" d="M1051.5,61.2h-1.5v1.5v9v1.5h1.5h9h1.5v-1.5v-9v-1.5h-1.5H1051.5z M1051.5,64.2h9l-1.5-1.5v9l1.5-1.5h-9
			l1.5,1.5v-9L1051.5,64.2z M1030,41.2h52v52h-52V41.2z"/>
	</defs>
	<clipPath id="SVGID_300_">
		<use xlink:href="#SVGID_1187_"  overflow="visible"/>
	</clipPath>
	<g clip-path="url(#SVGID_300_)">
		<defs>
			<rect id="SVGID_1189_" x="1051.5" y="62.7" width="9" height="9"/>
		</defs>
		<clipPath id="SVGID_302_">
			<use xlink:href="#SVGID_1189_"  overflow="visible"/>
		</clipPath>
		<g clip-path="url(#SVGID_302_)">
			<defs>
				<rect id="SVGID_1191_" x="92.5" y="-463.3" width="1121" height="1030"/>
			</defs>
			<clipPath id="SVGID_304_">
				<use xlink:href="#SVGID_1191_"  overflow="visible"/>
			</clipPath>
		</g>
	</g>
</g>
<g>
	<defs>
		<rect id="SVGID_1193_" x="1051.5" y="62.7" width="9" height="9"/>
	</defs>
	<clipPath id="SVGID_306_">
		<use xlink:href="#SVGID_1193_"  overflow="visible"/>
	</clipPath>
	<g clip-path="url(#SVGID_306_)">
		<defs>
			<rect id="SVGID_1195_" x="92.5" y="-463.3" width="1121" height="1030"/>
		</defs>
		<clipPath id="SVGID_308_">
			<use xlink:href="#SVGID_1195_"  overflow="visible"/>
		</clipPath>
	</g>
</g>
<g>
	<defs>
		<path id="SVGID_1197_" d="M1022.5,89.2h-1.5v1.5v9v1.5h1.5h9h1.5v-1.5v-9v-1.5h-1.5H1022.5z M1022.5,92.2h9l-1.5-1.5v9l1.5-1.5h-9
			l1.5,1.5v-9L1022.5,92.2z M1001,69.2h52v52h-52V69.2z"/>
	</defs>
	<clipPath id="SVGID_310_">
		<use xlink:href="#SVGID_1197_"  overflow="visible"/>
	</clipPath>
	<g clip-path="url(#SVGID_310_)">
		<defs>
			<rect id="SVGID_1199_" x="1022.5" y="90.7" width="9" height="9"/>
		</defs>
		<clipPath id="SVGID_312_">
			<use xlink:href="#SVGID_1199_"  overflow="visible"/>
		</clipPath>
		<g clip-path="url(#SVGID_312_)">
			<defs>
				<rect id="SVGID_1201_" x="92.5" y="-463.3" width="1121" height="1030"/>
			</defs>
			<clipPath id="SVGID_314_">
				<use xlink:href="#SVGID_1201_"  overflow="visible"/>
			</clipPath>
		</g>
	</g>
</g>
<g>
	<defs>
		<rect id="SVGID_1203_" x="1022.5" y="90.7" width="9" height="9"/>
	</defs>
	<clipPath id="SVGID_316_">
		<use xlink:href="#SVGID_1203_"  overflow="visible"/>
	</clipPath>
	<g clip-path="url(#SVGID_316_)">
		<defs>
			<rect id="SVGID_1205_" x="92.5" y="-463.3" width="1121" height="1030"/>
		</defs>
		<clipPath id="SVGID_318_">
			<use xlink:href="#SVGID_1205_"  overflow="visible"/>
		</clipPath>
	</g>
</g>
<g>
	<defs>
		<path id="SVGID_1207_" d="M1051.5,89.2h-1.5v1.5v9v1.5h1.5h9h1.5v-1.5v-9v-1.5h-1.5H1051.5z M1051.5,92.2h9l-1.5-1.5v9l1.5-1.5h-9
			l1.5,1.5v-9L1051.5,92.2z M1030,69.2h52v52h-52V69.2z"/>
	</defs>
	<clipPath id="SVGID_320_">
		<use xlink:href="#SVGID_1207_"  overflow="visible"/>
	</clipPath>
	<g clip-path="url(#SVGID_320_)">
		<defs>
			<rect id="SVGID_1209_" x="1051.5" y="90.7" width="9" height="9"/>
		</defs>
		<clipPath id="SVGID_322_">
			<use xlink:href="#SVGID_1209_"  overflow="visible"/>
		</clipPath>
		<g clip-path="url(#SVGID_322_)">
			<defs>
				<rect id="SVGID_1211_" x="92.5" y="-463.3" width="1121" height="1030"/>
			</defs>
			<clipPath id="SVGID_324_">
				<use xlink:href="#SVGID_1211_"  overflow="visible"/>
			</clipPath>
		</g>
	</g>
</g>
<g>
	<defs>
		<rect id="SVGID_1213_" x="1051.5" y="90.7" width="9" height="9"/>
	</defs>
	<clipPath id="SVGID_326_">
		<use xlink:href="#SVGID_1213_"  overflow="visible"/>
	</clipPath>
	<g clip-path="url(#SVGID_326_)">
		<defs>
			<rect id="SVGID_1215_" x="92.5" y="-463.3" width="1121" height="1030"/>
		</defs>
		<clipPath id="SVGID_328_">
			<use xlink:href="#SVGID_1215_"  overflow="visible"/>
		</clipPath>
	</g>
</g>
<g>
	
		<rect x="74.8" y="37.8" transform="matrix(0.6795 -0.7337 0.7337 0.6795 -4.2867 108.7151)" fill="#FFFFFF" stroke="#0C1F2E" stroke-width="3" stroke-linecap="round" stroke-miterlimit="10" width="94.9" height="42.8"/>
</g>
<circle fill="#FFFFFF" stroke="#0C1F2E" stroke-width="3" stroke-linecap="round" stroke-miterlimit="10" cx="122.5" cy="59.3" r="14.5"/>
<g>
	
		<rect x="90" y="48.8" transform="matrix(0.8777 -0.4792 0.4792 0.8777 -16.8483 74.4541)" fill="#FFFFFF" stroke="#0C1F2E" stroke-width="3" stroke-linecap="round" stroke-miterlimit="10" width="94.9" height="42.8"/>
</g>
<circle fill="#FFFFFF" stroke="#0C1F2E" stroke-width="3" stroke-linecap="round" stroke-miterlimit="10" cx="137.5" cy="71.3" r="14.5"/>
<rect x="101.3" y="64.9" transform="matrix(0.9838 -0.1793 0.1793 0.9838 -13.0624 28.0654)" fill="#FFFFFF" stroke="#0C1F2E" stroke-width="3" stroke-linecap="round" stroke-miterlimit="10" width="94.9" height="42.8"/>
<circle fill="#FFFFFF" stroke="#0C1F2E" stroke-width="3" stroke-linecap="round" stroke-miterlimit="10" cx="147.5" cy="86.3" r="14.5"/>
<g>
	<path fill="#231F20" d="M147.9,95.5l-0.4-2.1c-1.5,0.2-2.9,0.1-3.8-0.3l0.2-2.7c1,0.3,2.4,0.6,3.8,0.3c1.2-0.2,2-0.9,1.8-1.7
		c-0.1-0.8-0.9-1.2-2.6-1.5c-2.5-0.4-4.2-1.2-4.6-3.2c-0.3-1.9,0.7-3.6,3-4.5l-0.4-2.1l2.1-0.4l0.3,1.9c1.5-0.2,2.5-0.1,3.3,0.1
		l-0.2,2.6c-0.6-0.1-1.7-0.5-3.3-0.2c-1.4,0.3-1.8,0.9-1.6,1.6c0.1,0.7,1,1,2.9,1.4c2.7,0.4,4,1.4,4.4,3.4c0.4,1.9-0.7,3.8-3.1,4.7
		l0.4,2.2L147.9,95.5z"/>
</g>
</svg>
