<svg id="7426167b-8ad6-4866-9d4c-5e1555345814" data-name="Layer 2" xmlns="http://www.w3.org/2000/svg" viewBox="0 0 426.94 484.53"><defs><style>.\38 da43053-3ad6-4362-b24b-3378329e3706{fill:#dad7c5;}.\33 61ba551-f900-4807-a19e-786de312fbeb{fill:#6d6e71;}.b0b5dc57-0c33-42c9-b66c-c9dbf06d8425{fill:#ecc19c;}.a2be3878-eba6-4726-87c8-96c09e58541e{fill:#cf9e76;}.f7192f01-6e2a-49f9-ab64-1d76320e3679{fill:#dfb28b;}.aa549578-fe74-40d6-852f-b9803d72a166{fill:#c4c0b0;}.\30 69aa4f1-1d7e-4b6b-a04e-aa4783852563{fill:#babcbe;}.f7834c8b-8046-4213-90ca-3205440d8b77{fill:#fff;}.c69a63e2-e465-4751-9075-ce6fa36dc2da{fill:#3989c9;}.\34 bc67716-895c-4fb8-bc86-300a7c912f44{fill:#00b3be;}.b103ffd5-bf58-4bfb-b705-0a569d24bd56{fill:#6154a4;}.\36 fe2af6c-0d62-4506-a0f2-8efd42c6141d{fill:#c1bfb0;}.\39 05df6d3-7de1-4928-9ef9-e6547cc0dec7{fill:#feea3f;}.f284fd09-11e3-465a-bf01-2e59cdd5119f{fill:#ef3c39;}.\33 4984484-ea91-4d34-9266-578cdd52d218{fill:#a22421;}.\30 e3a1a48-008b-4dfc-8f54-07775aa7ca85{fill:#e6e7e8;}.b4628f15-d4a8-4919-b37d-12b6a4b5e041{fill:#620300;}.e9842f95-bacb-4f1d-aa5b-ad2bb7f6ca79{fill:#bcbec0;}.\37 808c95b-5ba0-4ab0-85dd-9d37fde02b21{fill:#c9312f;}.c7b816e8-a84b-41f5-adbe-f7bf27e3b754{fill:#414042;}.\32 5e89654-cfe9-474a-884c-616118fe9a6b{fill:#605744;}.\32 af782bb-f233-4ea2-9575-48f3c38b4914{fill:#7e725b;}.\38 5d32793-8450-4346-9ae0-b0b4ae98526a{fill:#98896d;}.d53eca45-27f3-4c4e-a39b-9582f1cce283{fill:#58595b;}.\34 594ffc1-77be-4e87-a308-066dc750a069{fill:#737577;}.\38 8b09277-d111-473f-a0c3-20ddfe2bcea8{fill:#ede9d4;}.\38 e857b37-5569-47e8-8393-c86007d6f7ab{fill:#f5e0cd;}.\38 e3bdc43-0056-4543-a725-d4fccb6dbbd9{fill:#f26755;}.dc82a698-9d59-4719-b945-70821847acaf{fill:#808285;}.\36 2e62176-c265-4293-bf73-31174030b94c{fill:#0088cd;}.\34 94a9333-dd6f-4b6b-addd-cf27789a1efa{fill:#d1d3d4;}.ddf41df6-bf3b-49fb-b81e-331a497529f9{fill:#f1f2f2;}.\33 259f6ca-7c3b-47b7-8e83-04d7a196e6d8{fill:#504488;}.cfe97d30-08dd-4a51-8371-a74ad6d535a3{fill:#4d4535;}</style></defs><title>mastering-being-a-technician-manager-and-operator</title><path class="8da43053-3ad6-4362-b24b-3378329e3706" d="M439,483.82c0-2.13-36.38-3.85-81.25-3.85h-4.5c-14.8-.95-38.57-1.57-65.37-1.57-44.87,0-81.25,1.72-81.25,3.85a0.24,0.24,0,0,0,0,.06c-37.93.33-66.71,1.9-66.71,3.79,0,2.13,36.38,3.85,81.25,3.85,15.83,0,30.6-.22,43.09-0.59,13.28,1.27,40.9,2.15,72.84,2.15,44.87,0,81.25-1.72,81.25-3.85,0-.39-1.22-0.76-3.47-1.12C429.79,485.86,439,484.9,439,483.82Z" transform="translate(-79.12 -7)"/><polygon class="361ba551-f900-4807-a19e-786de312fbeb" points="41.91 249.77 77.67 304.14 69.58 310.44 33.89 253.96 41.91 249.77"/><path class="b0b5dc57-0c33-42c9-b66c-c9dbf06d8425" d="M151.31,265.19L159,278.7a56.52,56.52,0,0,0-3.46,11.44c-0.41,2.72-2.95,4.25-5.29,5.09a18.8,18.8,0,0,1-4.13,1l-3.34-5.45-5.06-5.89s-5.67-7.16-6-7.79,0.07-4.69.33-6.56a5.9,5.9,0,0,1,.14-0.85c0.2-.67,10.88-2.81,11.29-2.93S151.31,265.19,151.31,265.19Z" transform="translate(-79.12 -7)"/><path class="a2be3878-eba6-4726-87c8-96c09e58541e" d="M138.64,271.7c1.55,1.53,4,5.41,4,7.5,1.93,0.39,2,1.91,3,3.26,1.47,2.06,3.08,3.31,2.51,6.21a5.37,5.37,0,0,1,2.14,6.57,18.8,18.8,0,0,1-4.13,1l-3.34-5.45-5.06-5.89s-5.67-7.16-6-7.79,0.07-4.69.33-6.56A7,7,0,0,1,138.64,271.7Z" transform="translate(-79.12 -7)"/><path class="b0b5dc57-0c33-42c9-b66c-c9dbf06d8425" d="M144.38,289.69a6.41,6.41,0,0,1,2,.89c3.24,2.29.7,6.94-3.95,10.73-5.37,4.38-9.89,3.67-11,1.26A4.51,4.51,0,0,1,131,301a5.31,5.31,0,0,1,.63-3.06Z" transform="translate(-79.12 -7)"/><path class="f7192f01-6e2a-49f9-ab64-1d76320e3679" d="M144.38,289.69a6.41,6.41,0,0,1,2,.89c-0.31,1.39-1.67,2.33-2.36,3.15a20.62,20.62,0,0,1-7.85,5.5c-0.91.38-3.15,2.09-5.19,1.8a5.31,5.31,0,0,1,.63-3.06Z" transform="translate(-79.12 -7)"/><path class="b0b5dc57-0c33-42c9-b66c-c9dbf06d8425" d="M141.91,282.73a6.54,6.54,0,0,1,1.76,1.83,15.87,15.87,0,0,1,1.43,2.6c1.39,3.2-1.23,5.53-3.93,7.24s-9.91,7.28-12.62,3.83a9.79,9.79,0,0,1-1.48-2.45,4.17,4.17,0,0,1-.33-1.52,2.09,2.09,0,0,1,1-1.88s9.94-8.57,11.88-9.78A2.06,2.06,0,0,1,141.91,282.73Z" transform="translate(-79.12 -7)"/><path class="f7192f01-6e2a-49f9-ab64-1d76320e3679" d="M141.91,282.73c0.24,2.57-2.41,5.25-7.65,8.83-3,2-5.48,2.84-7.52,2.7a2.09,2.09,0,0,1,1-1.88s9.94-8.57,11.88-9.78A2.06,2.06,0,0,1,141.91,282.73Z" transform="translate(-79.12 -7)"/><path class="b0b5dc57-0c33-42c9-b66c-c9dbf06d8425" d="M140.53,280.45c1.24,2.92-1.37,5.84-7.37,10S123,293.63,120.77,290a3.61,3.61,0,0,1,.92-5.45s8-4.93,11.34-7l1-.64C136.21,275.37,139.28,277.53,140.53,280.45Z" transform="translate(-79.12 -7)"/><path class="f7192f01-6e2a-49f9-ab64-1d76320e3679" d="M133,277.47c0.72,1.75-1.42,3.85-2.89,5.21-1.93,1.78-4.52,4.07-7.25,4.37a9.49,9.49,0,0,1-2.92-.12,4.3,4.3,0,0,1,1.71-2.42S129.71,279.59,133,277.47Z" transform="translate(-79.12 -7)"/><path class="b0b5dc57-0c33-42c9-b66c-c9dbf06d8425" d="M123.58,274.4s-12.05,4.44-10.41,8.49,7.81,5.27,15.4-2.53Z" transform="translate(-79.12 -7)"/><path class="a2be3878-eba6-4726-87c8-96c09e58541e" d="M131.53,288c2.07-1.3,3.66-1.73,4.7-4.34a15.68,15.68,0,0,0,.55-8.33c-0.46-2.72-2.79-1.89-4.63-.46-3.77,2.93-1.3,8-2.22,11.84Z" transform="translate(-79.12 -7)"/><path class="b0b5dc57-0c33-42c9-b66c-c9dbf06d8425" d="M148.29,264.75s-5.09-1.92-8.19-1.86-16.81,1.71-17.22,3.57-2.54,8.75-1.63,9.68,9.64,12.15,9.64,12.15,8.18-6.74,3-14.37C133.94,273.92,151.6,279.51,148.29,264.75Z" transform="translate(-79.12 -7)"/><polygon class="8da43053-3ad6-4362-b24b-3378329e3706" points="186.63 214.17 91.29 267.38 89.51 263.78 79.89 244.24 161.04 205 164.99 203.09 176.63 196.94 186.63 214.17"/><path class="aa549578-fe74-40d6-852f-b9803d72a166" d="M265.75,221.17l-95.34,53.21-1.78-3.6c3.24-3.26,8.45-3.5,12.44-5.64,6.49-3.49,12.21-8.33,18.46-12.24C207.31,248,214.6,243,222.91,239c6-2.89,12.28-5,18.39-7.72-5.61,0-11.17.57-16.79,0.65,8.38-2.9,16-6.12,24.78-7.78-5.64-2.19-14.78-.25-19.28-3.25,7.28-1.27,15.21-3.47,22.65-3.12-4.15-2.23-8.49-3.59-12.5-5.78l3.95-1.91,11.64-6.15Z" transform="translate(-79.12 -7)"/><path class="069aa4f1-1d7e-4b6b-a04e-aa4783852563" d="M159.78,248l-16.13,11s15.19,27.91,15.75,27.53L175,275.89Z" transform="translate(-79.12 -7)"/><circle class="f7834c8b-8046-4213-90ca-3205440d8b77" cx="166.17" cy="274.55" r="2.69" transform="translate(-204.78 134.04) rotate(-34.23)"/><path class="361ba551-f900-4807-a19e-786de312fbeb" d="M125.46,250.33a13.88,13.88,0,1,1-24.84-8.52l8.14,12.53,8.11-5.27-8-12.35a13.61,13.61,0,0,1,2.73-.27A13.89,13.89,0,0,1,125.46,250.33Z" transform="translate(-79.12 -7)"/><path class="361ba551-f900-4807-a19e-786de312fbeb" d="M172.85,321.59a13.74,13.74,0,0,1-2.93,8.51l-8.13-12.52-8.12,5.27,8,12.35a13.59,13.59,0,0,1-2.72.27A13.88,13.88,0,1,1,172.85,321.59Z" transform="translate(-79.12 -7)"/><polygon class="8da43053-3ad6-4362-b24b-3378329e3706" points="179.96 193.42 179.96 206.2 71.2 196.56 71.55 194.05 74.79 171.01 162.14 183.96 168.3 184.87 179.96 193.42"/><path class="aa549578-fe74-40d6-852f-b9803d72a166" d="M259.08,200.42V213.2l-108.76-9.64,0.35-2.51c6.69-2.39,16.7-.93,23.34-0.72,6.24,0.19,12.48.45,18.67,1.09,10.62,1.09,21.18,2.79,31.66,4-2.2-2.7-5.53-4.28-7.83-7,7.75,0.88,14.63,4.59,22,6.16-3.16-3.6-7.81-6.36-10.29-10.46,5.88,0.74,11,6.62,16.79,6.7,0.13-3.14-2.17-6.84-3.75-9.87l6.16,0.91Z" transform="translate(-79.12 -7)"/><rect class="c69a63e2-e465-4751-9075-ce6fa36dc2da" x="89.04" y="54.47" width="140.77" height="15.72" transform="translate(-76.5 123.98) rotate(-45)"/><rect class="4bc67716-895c-4fb8-bc86-300a7c912f44" x="85.46" y="55.95" width="140.77" height="5.61" transform="translate(-75.02 120.41) rotate(-45)"/><rect class="c69a63e2-e465-4751-9075-ce6fa36dc2da" x="106.85" y="104.05" width="1" height="3.68" transform="translate(-122.55 99.91) rotate(-45)"/><rect class="c69a63e2-e465-4751-9075-ce6fa36dc2da" x="108.56" y="102.34" width="1" height="3.68" transform="translate(-120.85 100.63) rotate(-45)"/><rect class="c69a63e2-e465-4751-9075-ce6fa36dc2da" x="110.27" y="100.63" width="1" height="3.68" transform="translate(-119.14 101.34) rotate(-45)"/><rect class="c69a63e2-e465-4751-9075-ce6fa36dc2da" x="111.97" y="98.92" width="1" height="3.68" transform="translate(-117.43 102.04) rotate(-45)"/><rect class="c69a63e2-e465-4751-9075-ce6fa36dc2da" x="113.68" y="97.22" width="1" height="3.68" transform="translate(-115.72 102.75) rotate(-45)"/><rect class="c69a63e2-e465-4751-9075-ce6fa36dc2da" x="115.39" y="95.51" width="1" height="3.68" transform="translate(-114.01 103.47) rotate(-45)"/><rect class="c69a63e2-e465-4751-9075-ce6fa36dc2da" x="117.1" y="93.8" width="1" height="3.68" transform="translate(-112.31 104.15) rotate(-45)"/><rect class="c69a63e2-e465-4751-9075-ce6fa36dc2da" x="118.8" y="92.09" width="1" height="3.68" transform="translate(-110.6 104.86) rotate(-45)"/><rect class="c69a63e2-e465-4751-9075-ce6fa36dc2da" x="120.51" y="90.39" width="1" height="3.68" transform="translate(-108.89 105.58) rotate(-45)"/><rect class="c69a63e2-e465-4751-9075-ce6fa36dc2da" x="122.22" y="88.68" width="1" height="3.68" transform="translate(-107.19 106.29) rotate(-45)"/><rect class="c69a63e2-e465-4751-9075-ce6fa36dc2da" x="123.93" y="86.97" width="1" height="3.68" transform="translate(-105.48 106.99) rotate(-45)"/><rect class="c69a63e2-e465-4751-9075-ce6fa36dc2da" x="125.63" y="85.26" width="1" height="3.68" transform="translate(-103.77 107.71) rotate(-45)"/><rect class="c69a63e2-e465-4751-9075-ce6fa36dc2da" x="127.34" y="83.56" width="1" height="3.68" transform="translate(-102.06 108.41) rotate(-45)"/><rect class="c69a63e2-e465-4751-9075-ce6fa36dc2da" x="129.05" y="81.85" width="1" height="3.68" transform="translate(-100.36 109.11) rotate(-45)"/><rect class="c69a63e2-e465-4751-9075-ce6fa36dc2da" x="130.76" y="80.14" width="1" height="3.68" transform="translate(-98.65 109.82) rotate(-45)"/><rect class="c69a63e2-e465-4751-9075-ce6fa36dc2da" x="132.47" y="78.43" width="1" height="3.68" transform="translate(-96.94 110.53) rotate(-45)"/><rect class="c69a63e2-e465-4751-9075-ce6fa36dc2da" x="134.17" y="76.72" width="1" height="3.68" transform="translate(-95.23 111.24) rotate(-45)"/><rect class="c69a63e2-e465-4751-9075-ce6fa36dc2da" x="135.88" y="75.02" width="1" height="3.68" transform="translate(-93.52 111.95) rotate(-45)"/><rect class="c69a63e2-e465-4751-9075-ce6fa36dc2da" x="137.59" y="73.31" width="1" height="3.68" transform="translate(-91.81 112.66) rotate(-45)"/><rect class="c69a63e2-e465-4751-9075-ce6fa36dc2da" x="139.3" y="71.6" width="1" height="3.68" transform="translate(-90.11 113.36) rotate(-45)"/><rect class="c69a63e2-e465-4751-9075-ce6fa36dc2da" x="141" y="69.89" width="1" height="3.68" transform="translate(-88.4 114.06) rotate(-45)"/><rect class="c69a63e2-e465-4751-9075-ce6fa36dc2da" x="142.71" y="68.19" width="1" height="3.68" transform="translate(-86.69 114.77) rotate(-45)"/><rect class="c69a63e2-e465-4751-9075-ce6fa36dc2da" x="144.42" y="66.48" width="1" height="3.68" transform="translate(-84.99 115.48) rotate(-45)"/><rect class="c69a63e2-e465-4751-9075-ce6fa36dc2da" x="146.13" y="64.77" width="1" height="3.68" transform="translate(-83.28 116.19) rotate(-45)"/><rect class="c69a63e2-e465-4751-9075-ce6fa36dc2da" x="147.83" y="63.06" width="1" height="3.68" transform="translate(-81.57 116.91) rotate(-45)"/><rect class="c69a63e2-e465-4751-9075-ce6fa36dc2da" x="149.54" y="61.36" width="1" height="3.68" transform="translate(-79.86 117.6) rotate(-45)"/><rect class="c69a63e2-e465-4751-9075-ce6fa36dc2da" x="151.25" y="59.65" width="1" height="3.68" transform="translate(-78.16 118.3) rotate(-45)"/><rect class="c69a63e2-e465-4751-9075-ce6fa36dc2da" x="152.96" y="57.94" width="1" height="3.68" transform="translate(-76.45 119.02) rotate(-45)"/><rect class="c69a63e2-e465-4751-9075-ce6fa36dc2da" x="154.67" y="56.23" width="1" height="3.68" transform="translate(-74.74 119.73) rotate(-45)"/><rect class="c69a63e2-e465-4751-9075-ce6fa36dc2da" x="156.37" y="54.52" width="1" height="3.68" transform="translate(-73.03 120.43) rotate(-45)"/><rect class="c69a63e2-e465-4751-9075-ce6fa36dc2da" x="158.08" y="52.82" width="1" height="3.68" transform="translate(-71.32 121.14) rotate(-45)"/><rect class="c69a63e2-e465-4751-9075-ce6fa36dc2da" x="159.79" y="51.11" width="1" height="3.68" transform="translate(-69.61 121.86) rotate(-45)"/><rect class="c69a63e2-e465-4751-9075-ce6fa36dc2da" x="161.5" y="49.4" width="1" height="3.68" transform="translate(-67.94 122.49) rotate(-44.98)"/><rect class="c69a63e2-e465-4751-9075-ce6fa36dc2da" x="163.2" y="47.69" width="1" height="3.68" transform="translate(-66.21 123.25) rotate(-45)"/><rect class="c69a63e2-e465-4751-9075-ce6fa36dc2da" x="164.91" y="45.99" width="1" height="3.68" transform="translate(-64.49 123.97) rotate(-45)"/><rect class="c69a63e2-e465-4751-9075-ce6fa36dc2da" x="166.62" y="44.28" width="1" height="3.68" transform="translate(-62.79 124.68) rotate(-45)"/><rect class="c69a63e2-e465-4751-9075-ce6fa36dc2da" x="168.33" y="42.57" width="1" height="3.68" transform="translate(-61.08 125.39) rotate(-45)"/><rect class="c69a63e2-e465-4751-9075-ce6fa36dc2da" x="170.03" y="40.86" width="1" height="3.68" transform="translate(-59.36 126.1) rotate(-45)"/><rect class="c69a63e2-e465-4751-9075-ce6fa36dc2da" x="171.74" y="39.16" width="1" height="3.68" transform="translate(-57.66 126.81) rotate(-45)"/><rect class="c69a63e2-e465-4751-9075-ce6fa36dc2da" x="173.45" y="37.45" width="1" height="3.68" transform="translate(-55.96 127.5) rotate(-45)"/><rect class="c69a63e2-e465-4751-9075-ce6fa36dc2da" x="175.16" y="35.74" width="1" height="3.68" transform="translate(-54.25 128.21) rotate(-45)"/><rect class="c69a63e2-e465-4751-9075-ce6fa36dc2da" x="176.87" y="34.03" width="1" height="3.68" transform="translate(-52.54 128.92) rotate(-45)"/><rect class="c69a63e2-e465-4751-9075-ce6fa36dc2da" x="178.57" y="32.32" width="1" height="3.68" transform="translate(-50.83 129.63) rotate(-45)"/><rect class="c69a63e2-e465-4751-9075-ce6fa36dc2da" x="180.28" y="30.62" width="1" height="3.68" transform="translate(-49.12 130.35) rotate(-45)"/><rect class="c69a63e2-e465-4751-9075-ce6fa36dc2da" x="181.99" y="28.91" width="1" height="3.68" transform="translate(-47.41 131.05) rotate(-45)"/><rect class="c69a63e2-e465-4751-9075-ce6fa36dc2da" x="183.7" y="27.2" width="1" height="3.68" transform="translate(-45.71 131.75) rotate(-45)"/><rect class="c69a63e2-e465-4751-9075-ce6fa36dc2da" x="185.4" y="25.49" width="1" height="3.68" transform="translate(-44 132.46) rotate(-45)"/><rect class="c69a63e2-e465-4751-9075-ce6fa36dc2da" x="187.11" y="23.79" width="1" height="3.68" transform="translate(-42.29 133.17) rotate(-45)"/><rect class="c69a63e2-e465-4751-9075-ce6fa36dc2da" x="188.82" y="22.08" width="1" height="3.68" transform="translate(-40.59 133.87) rotate(-45)"/><rect class="c69a63e2-e465-4751-9075-ce6fa36dc2da" x="190.53" y="20.37" width="1" height="3.68" transform="translate(-38.88 134.58) rotate(-45)"/><rect class="c69a63e2-e465-4751-9075-ce6fa36dc2da" x="192.23" y="18.66" width="1" height="3.68" transform="translate(-37.16 135.3) rotate(-45)"/><rect class="c69a63e2-e465-4751-9075-ce6fa36dc2da" x="193.94" y="16.96" width="1" height="3.68" transform="translate(-35.46 136) rotate(-45)"/><rect class="c69a63e2-e465-4751-9075-ce6fa36dc2da" x="195.65" y="15.25" width="1" height="3.68" transform="translate(-33.72 136.75) rotate(-45.02)"/><rect class="c69a63e2-e465-4751-9075-ce6fa36dc2da" x="197.36" y="13.54" width="1" height="3.68" transform="translate(-32.05 137.41) rotate(-45)"/><rect class="c69a63e2-e465-4751-9075-ce6fa36dc2da" x="199.07" y="11.83" width="1" height="3.68" transform="translate(-30.34 138.12) rotate(-45)"/><rect class="c69a63e2-e465-4751-9075-ce6fa36dc2da" x="200.77" y="10.12" width="1" height="3.68" transform="translate(-28.63 138.82) rotate(-45)"/><rect class="c69a63e2-e465-4751-9075-ce6fa36dc2da" x="202.48" y="8.42" width="1" height="3.68" transform="translate(-26.92 139.53) rotate(-45)"/><path class="b0b5dc57-0c33-42c9-b66c-c9dbf06d8425" d="M165.69,94.75l-12,9.79A56.54,56.54,0,0,0,141.78,103c-2.75.05-4.68-2.2-5.9-4.37a18.77,18.77,0,0,1-1.63-3.91l4.82-4.2,5-6s6.12-6.78,6.68-7.24,4.64-.71,6.52-0.76a5.78,5.78,0,0,1,.86,0c0.7,0.09,4.58,10.26,4.76,10.65S165.69,94.75,165.69,94.75Z" transform="translate(-79.12 -7)"/><path class="a2be3878-eba6-4726-87c8-96c09e58541e" d="M157.17,83.33c-1.25,1.78-4.66,4.88-6.74,5.15-0.06,2-1.55,2.31-2.72,3.47-1.79,1.79-2.75,3.59-5.71,3.51a5.37,5.37,0,0,1-6.12,3.2,18.77,18.77,0,0,1-1.63-3.91l4.82-4.2,5-6s6.12-6.78,6.68-7.24,4.64-.71,6.52-0.76A7,7,0,0,1,157.17,83.33Z" transform="translate(-79.12 -7)"/><path class="b0b5dc57-0c33-42c9-b66c-c9dbf06d8425" d="M140.38,92a6.41,6.41,0,0,1-.55,2.11c-1.72,3.58-6.73,1.84-11.24-2.11-5.21-4.57-5.26-9.14-3.07-10.67a4.52,4.52,0,0,1,1.45-.68,5.31,5.31,0,0,1,3.12.11Z" transform="translate(-79.12 -7)"/><path class="f7192f01-6e2a-49f9-ab64-1d76320e3679" d="M140.38,92a6.41,6.41,0,0,1-.55,2.11c-1.42-.07-2.57-1.26-3.5-1.81a20.63,20.63,0,0,1-6.73-6.83c-0.53-.83-2.58-2.76-2.63-4.82a5.31,5.31,0,0,1,3.12.11Z" transform="translate(-79.12 -7)"/><path class="b0b5dc57-0c33-42c9-b66c-c9dbf06d8425" d="M146.83,88.39a6.54,6.54,0,0,1-1.51,2A15.89,15.89,0,0,1,143,92.27c-2.92,1.9-5.66-.29-7.79-2.67s-8.82-8.57-5.87-11.81a9.78,9.78,0,0,1,2.17-1.87,4.16,4.16,0,0,1,1.44-.58,2.09,2.09,0,0,1,2,.64s10.1,8.38,11.62,10.09A2.06,2.06,0,0,1,146.83,88.39Z" transform="translate(-79.12 -7)"/><path class="f7192f01-6e2a-49f9-ab64-1d76320e3679" d="M146.83,88.39c-2.49.66-5.58-1.51-10-6.08-2.49-2.59-3.71-4.93-3.91-7a2.09,2.09,0,0,1,2,.64s10.1,8.38,11.62,10.09A2.06,2.06,0,0,1,146.83,88.39Z" transform="translate(-79.12 -7)"/><path class="b0b5dc57-0c33-42c9-b66c-c9dbf06d8425" d="M148.85,86.65c-2.67,1.71-6-.38-11-5.62s-4.86-9.44-1.62-12.29a3.61,3.61,0,0,1,5.53,0s6.19,7.1,8.83,10l0.79,0.87C153.15,81.55,151.53,84.93,148.85,86.65Z" transform="translate(-79.12 -7)"/><path class="f7192f01-6e2a-49f9-ab64-1d76320e3679" d="M150.55,78.75c-1.61,1-4-.76-5.62-2-2.08-1.61-4.76-3.78-5.51-6.42a9.49,9.49,0,0,1-.37-2.9,4.31,4.31,0,0,1,2.67,1.29S147.91,75.84,150.55,78.75Z" transform="translate(-79.12 -7)"/><path class="b0b5dc57-0c33-42c9-b66c-c9dbf06d8425" d="M152,68.92s-6.38-11.15-10.1-8.86-3.91,8.57,5,14.77Z" transform="translate(-79.12 -7)"/><path class="a2be3878-eba6-4726-87c8-96c09e58541e" d="M140,79c1.62,1.83,2.31,3.32,5.06,3.91a15.69,15.69,0,0,0,8.31-.84c2.61-.91,1.4-3.07-0.31-4.64-3.52-3.23-8.08,0-12-.23Z" transform="translate(-79.12 -7)"/><path class="b0b5dc57-0c33-42c9-b66c-c9dbf06d8425" d="M165.63,91.69s1-5.34.48-8.38S161.63,67,159.72,66.92s-9.05-1-9.81,0-10.38,11.53-10.38,11.53,8,6.94,14.67.61C154.2,79.06,151.62,97.41,165.63,91.69Z" transform="translate(-79.12 -7)"/><path class="b0b5dc57-0c33-42c9-b66c-c9dbf06d8425" d="M460,280.72c-0.8,1.18-6,10.71-6,10.71l-5.51-13.48s6.74-8.83,0-13.32-15.23-2.45-15.23-2.45h0a7.45,7.45,0,0,0-1.25,2.29c-0.62,1.79,1.56,4.38,4.46,7.16,4.07,3.9,9.56,8.17,10.63,11.08a5.58,5.58,0,0,1-2.32,7.13c-0.51-1.13-6.89-4.65-13.19-7.84-5.69-2.9-11.32-5.54-12.49-5.93-1.56-.52-3.3-8.53-4.36-14.33-0.62-3.36-1-6-1-6l5.2-16.34,8.68,4.45,1,0.53,2.83,5.12,0.25-1.27s19.5,5.78,22.29,7.06,5.72,9.16,8.59,13.17S460.83,279.55,460,280.72Z" transform="translate(-79.12 -7)"/><path class="f7192f01-6e2a-49f9-ab64-1d76320e3679" d="M427.58,243.87c-4.26,6-8.46,12-12.87,17.86-0.62-3.36-1-6-1-6l5.2-16.34Z" transform="translate(-79.12 -7)"/><path class="b103ffd5-bf58-4bfb-b705-0a569d24bd56" d="M458.3,294.39v11.94l-8.63-6.47-20.43-48.39-1.9-4.5-0.86-2-2-4.77c4-4,7.43-3.48,7.43-3.48l2.5,5.47L435,243.5l1.89,4.13Z" transform="translate(-79.12 -7)"/><path class="b0b5dc57-0c33-42c9-b66c-c9dbf06d8425" d="M444.75,289.83c-0.51-1.13-6.89-4.65-13.19-7.84a35,35,0,0,1,4.79-10.23,0.84,0.84,0,0,0,.09-0.14c4.07,3.9,9.56,8.17,10.63,11.08A5.58,5.58,0,0,1,444.75,289.83Z" transform="translate(-79.12 -7)"/><polygon class="8da43053-3ad6-4362-b24b-3378329e3706" points="328.42 227.13 320.34 248.19 319.18 251.22 316.19 249.89 219.37 206.97 220.28 205.32 225.56 195.79 239.9 193.96 326.33 226.35 328.42 227.13"/><path class="6fe2af6c-0d62-4506-a0f2-8efd42c6141d" d="M399.46,255.19l-1.16,3-3-1.33L298.49,214l0.91-1.65,11.84-4c5.34-4.32,11.52-1.51,18-2.82-2.46,3.92-7.2,6.18-10.56,9.16,6,0.19,12.14,1.29,18.19,1.18-3.26,2.23-7.94,1.91-11.62,3.49,6,1,20.22-1.81,24.11,3-2.78,1-6,.64-8.93,1.68,6.19,3.85,13.11,6.42,19.35,10.75,7.41,5.15,16.13,7.95,24.12,12.1,4.18,2.17,9.19,3.35,13,6.1A14.63,14.63,0,0,1,399.46,255.19Z" transform="translate(-79.12 -7)"/><path class="069aa4f1-1d7e-4b6b-a04e-aa4783852563" d="M423.54,240.41S411,269.59,410.39,269.26l-11-6.09-5.46-3,1.4-3.25L397,253l8.46-19.64,1-2.39Z" transform="translate(-79.12 -7)"/><circle class="f7834c8b-8046-4213-90ca-3205440d8b77" cx="402.55" cy="258" r="2.69" transform="translate(-97.26 478.23) rotate(-61.03)"/><path class="905df6d3-7de1-4928-9ef9-e6547cc0dec7" d="M436.9,247.63a28.66,28.66,0,0,0-7.66,3.84l-1.9-4.5-0.86-2,5.42-3.28,2.5,0.5L435,243.5Z" transform="translate(-79.12 -7)"/><path class="f284fd09-11e3-465a-bf01-2e59cdd5119f" d="M435,243.5a25.54,25.54,0,0,0-7.67,3.47l-2.87-6.8c4-4,7.43-3.48,7.43-3.48Z" transform="translate(-79.12 -7)"/><path class="34984484-ea91-4d34-9266-578cdd52d218" d="M445.07,150.23s-0.18-2,4.71-2.23,44.86,2.23,44.86,2.23l-5.34,74.59-9.27-1S448.38,161,448.15,161s-3.45-6.89-3.45-6.89Z" transform="translate(-79.12 -7)"/><path class="0e3a1a48-008b-4dfc-8f54-07775aa7ca85" d="M491.08,152.76l-5.26,68.18-5.45,2.39L476,215.21c-8-15.1-24.51-46-24.57-46s-5.44-13.1-5.44-13.1a3.27,3.27,0,0,1,0-.59,5.06,5.06,0,0,1,4.28-4.58l0.65,0Z" transform="translate(-79.12 -7)"/><path class="b4628f15-d4a8-4919-b37d-12b6a4b5e041" d="M450.15,153.32a9.35,9.35,0,0,1-4.06,2.19h0a5.06,5.06,0,0,1,4.28-4.58l0.65,0a0.56,0.56,0,0,1,0,.11C451.28,152,450.81,152.61,450.15,153.32Z" transform="translate(-79.12 -7)"/><path class="e9842f95-bacb-4f1d-aa5b-ad2bb7f6ca79" d="M491.08,152.76l-5.26,68.18-5.45,2.39L476,215.21c-1.33-10.9-2.9-23.26-3.13-22.79-0.41.84,5.06-27.29,5.06-27.29l6.42-5.86Z" transform="translate(-79.12 -7)"/><path class="b0b5dc57-0c33-42c9-b66c-c9dbf06d8425" d="M450.72,190.44c-1.1,3.59-3,9.14-3,9.14s-4.5,11.38-10,12c-1.8.2-3.94-.64-6-1.87a44.4,44.4,0,0,1-8.15-6.67l-0.44-.37-5-4.19,4.34-7.93H423c1.87-.05,8.15-0.23,8.27-0.44a2.35,2.35,0,0,1,.51-0.32c1.74-1,7.41-3.81,8.27-4.33s11.11,1.68,11.42,2A12.6,12.6,0,0,1,450.72,190.44Z" transform="translate(-79.12 -7)"/><path class="f284fd09-11e3-465a-bf01-2e59cdd5119f" d="M486.61,157.19l-4.91,68.13-43.17-5.94,2.19-23.2,1-10.92,3.31-35s-0.47,5,6.35,5.11C459.19,155.44,486.61,157.19,486.61,157.19Z" transform="translate(-79.12 -7)"/><path class="7808c95b-5ba0-4ab0-85dd-9d37fde02b21" d="M463.53,192.58c-0.88,5.52-14.08,2.37-16.82.74a10.81,10.81,0,0,1-6,2.86l1-10.92a14.11,14.11,0,0,1,11.75-1.54C455.93,184.53,464.1,189,463.53,192.58Z" transform="translate(-79.12 -7)"/><path class="b0b5dc57-0c33-42c9-b66c-c9dbf06d8425" d="M463.94,189.38c-1.14,3.23-8,3.47-13.22,1.06a12.73,12.73,0,0,1-3.6-2.4,22,22,0,0,1-15,5.2,22.56,22.56,0,0,1-9.13-2.45l-0.52-.26,0.53-.43c1.32-1.07,4.94-4,8.37-7.1,3.18-2.83,6.2-5.75,7.08-7.32l10.73,0S465.36,185.33,463.94,189.38Z" transform="translate(-79.12 -7)"/><polygon class="8da43053-3ad6-4362-b24b-3378329e3706" points="334.74 200.61 331.46 200.59 225.56 199.93 226.03 195.03 226.77 187.21 230.92 184.74 239.19 179.8 255.77 178.93 331.35 174.96 333.59 174.84 334.52 195.62 334.74 200.61"/><path class="6fe2af6c-0d62-4506-a0f2-8efd42c6141d" d="M413.86,207.61l-3.28,0-105.9-.66,0.47-4.9A41.63,41.63,0,0,1,310,191.74l8.27-4.94,16.58-.87c-4,3.73-7.51,10-9.89,13.43,7.84-2.65,14.81-7,23-9-4.87,4-10.31,7.47-15.37,11.2,8.63-1.55,17-4.85,25.83-6.12a52.21,52.21,0,0,1-8.33,5c4,1.1,8.85-.09,13-0.22,5.61-.18,11.22.45,16.82,0.57,8.32,0.17,16.58.55,25,.91,1.24,0,3.33.14,5.64,0.41,1,0.12,2.05.28,3.08,0.48Z" transform="translate(-79.12 -7)"/><path class="f7192f01-6e2a-49f9-ab64-1d76320e3679" d="M431.69,209.69a44.4,44.4,0,0,1-8.15-6.67l-0.44-.37c-0.19-3.73-.15-7.45-0.12-10.89,0-.33,0-0.65,0-1v-0.27c0-.14,0-0.28,0-0.42,1.32-1.07,4.94-4,8.37-7.1a57.87,57.87,0,0,0,.4,6.76c0.14,1.3.27,2.5,0.35,3.48,0,0.48,0,.91,0,1.27A118,118,0,0,1,431.69,209.69Z" transform="translate(-79.12 -7)"/><path class="069aa4f1-1d7e-4b6b-a04e-aa4783852563" d="M429.35,212.9l-9.48-.9h0l-9.26-.87,0-3.54,0-5.45L410.47,182v-2.61l19.42,1.85S430,213,429.35,212.9Z" transform="translate(-79.12 -7)"/><circle class="f7834c8b-8046-4213-90ca-3205440d8b77" cx="417.67" cy="205.71" r="2.69" transform="translate(94.33 595.09) rotate(-84.58)"/><rect class="f7192f01-6e2a-49f9-ab64-1d76320e3679" x="50.32" y="171.86" width="11.16" height="11.67"/><path class="c7b816e8-a84b-41f5-adbe-f7bf27e3b754" d="M329.67,471.42s-2.65,9.93-1.51,16.19c0,0,71.66.82,77.1-3.26s-13.83-30.95-40.59-26.93c0,0-18.6-1.66-19.28-.41S329.67,471.42,329.67,471.42Z" transform="translate(-79.12 -7)"/><path class="c7b816e8-a84b-41f5-adbe-f7bf27e3b754" d="M231.21,460.73a46.56,46.56,0,0,0-22.27,1.83c-12.36,4-21.54,19-16,24.38l74.32,0.67s3.05-12.05.69-18.3l-10.38-9.92-19.21-3Z" transform="translate(-79.12 -7)"/><polygon class="25e89654-cfe9-474a-884c-616118fe9a6b" points="285.55 450.42 262.11 459.8 250.55 464.42 216.58 299.5 216.72 299.17 220.88 289.33 233.21 283.42 242.67 289.33 285.55 450.42"/><path class="2af782bb-f233-4ea2-9575-48f3c38b4914" d="M321.79,296.33L290.58,308.5,278.7,368.36l-10.78,101c-2.79-4-18.13-6.47-28.08-7.68-5-.61-8.63-0.9-8.63-0.9s26.34-140.85,27.94-155.62c0.9-8.4,1.68-15.57,2.19-20.19,0.38-3.5.6-5.54,0.6-5.54l8.39-.89,48.27-5.1,0.68,4.88Z" transform="translate(-79.12 -7)"/><path class="85d32793-8450-4346-9ae0-b0b4ae98526a" d="M270.33,278.49c-6.27,31-13.87,61.69-16.93,92.88-2.93,29.79-6.74,58.4-13,87.48-0.18.83-.36,1.77-0.55,2.78-5-.61-8.63-0.9-8.63-0.9s26.34-140.85,27.94-155.62c0.9-8.4,1.68-15.57,2.19-20.19,0.38-3.5.6-5.54,0.6-5.54Z" transform="translate(-79.12 -7)"/><path class="c7b816e8-a84b-41f5-adbe-f7bf27e3b754" d="M319.28,278.27l-20.79,2.39L286.71,282l-25.37,2.91c0.38-3.5.6-5.54,0.6-5.54l24.46-2.59,11.24-1.18,21-2.22Z" transform="translate(-79.12 -7)"/><path class="069aa4f1-1d7e-4b6b-a04e-aa4783852563" d="M298.49,280.66L286.71,282a36,36,0,0,1-.31-5.22l11.24-1.18Z" transform="translate(-79.12 -7)"/><path class="b0b5dc57-0c33-42c9-b66c-c9dbf06d8425" d="M442.89,107.82s-2.92,15.35-7.45,18.56a13.6,13.6,0,0,1-7.22,2.15,21.53,21.53,0,0,1-4.33-.25L417.76,127l-1.32-14.76h0c0.1-.06,1.78-1,3.52-2.11a30.66,30.66,0,0,0,3.92-2.56c0-.29,4.82-7.3,5.41-8.33s10.52-3.94,11-3.8a12.22,12.22,0,0,1,.82,3C441.86,102,442.89,107.82,442.89,107.82Z" transform="translate(-79.12 -7)"/><path class="c7b816e8-a84b-41f5-adbe-f7bf27e3b754" d="M447.64,43.65A1.42,1.42,0,0,0,446,44.76l-16,82.39a1.46,1.46,0,0,0,1.11,1.69l56.4,12.22a1.4,1.4,0,0,0,1.67-1.09L506,56.6a1.41,1.41,0,0,0-1.11-1.66Z" transform="translate(-79.12 -7)"/><path class="d53eca45-27f3-4c4e-a39b-9582f1cce283" d="M498.56,60.78a1.42,1.42,0,0,1,1.11,1.66l-1.53,7.68-0.28,1.4-0.18.94-0.46,2.33-2.34,11.79-0.41,2-0.41,2L486,131.35a1.4,1.4,0,0,1-1.66,1.1l-46.65-9.87-1.53-.32a3.68,3.68,0,0,1,.13-1.42L438,112l0.54-2.78,3.26-16.76,0.54-2.78,1.82-9.34,0.54-2.78,4.86-24.95a1.42,1.42,0,0,1,1.66-1.12l21,4.14,2.78,0.55L489.53,59l2.78,0.55Z" transform="translate(-79.12 -7)"/><path class="4594ffc1-77be-4e87-a308-066dc750a069" d="M491.08,61.29C474.61,70.36,458.75,81,443.38,92l2.31-11.73c4-3.48,8.05-6.78,12.18-10C463.25,66,468.69,61.94,474.21,58Z" transform="translate(-79.12 -7)"/><path class="b0b5dc57-0c33-42c9-b66c-c9dbf06d8425" d="M441.08,98.37a13,13,0,0,1-4.33-.34A21.75,21.75,0,0,1,421,111.67a24.93,24.93,0,0,1-4.59.54h0c0.06-.17.84-2.08,1.84-4.7,2-5.22,4.87-13.27,4.87-16l9.35-5.26S451.37,86.78,452.1,91C452.68,94.38,446.82,97.93,441.08,98.37Z" transform="translate(-79.12 -7)"/><path class="8da43053-3ad6-4362-b24b-3378329e3706" d="M417.76,134.47s-33.33,23-52,34.32c-15.68,9.52-36.91,16.9-45.37,33.8a34.38,34.38,0,0,0-3.3,10.69h0c-1,24.89,3.21,62,3.21,62l-42.94,4.4-19,2s2.33-37.6-1.36-60.34c-0.24-1.49-.51-2.92-0.81-4.27-0.46-2.1-1-4.35-1.48-6.7-0.2-.89-0.4-1.79-0.61-2.7s-0.44-2-.66-3a41.85,41.85,0,0,0-3-5.34c-11.27-17.43-37.29-34.62-49.87-46.15-14-12.87-37.19-35.81-37.19-35.81l0.16-.24L173.7,102s19.65,16.29,29.24,26.5,38.86,29.31,38.86,29.31C260.32,168.75,272,171.32,287,171.32s41.76-7.85,49.72-12.76c14.28-8.79,64.7-36.92,71-41.18l7.77,13.21Z" transform="translate(-79.12 -7)"/><path class="88b09277-d111-473f-a0c3-20ddfe2bcea8" d="M258.35,281.65s2.33-37.6-1.36-60.34c-0.24-1.49-.51-2.92-0.81-4.27-0.46-2.1-1-4.35-1.48-6.7-0.2-.89-0.4-1.79-0.61-2.7s-0.44-2-.66-3a41.85,41.85,0,0,0-3-5.34c0-5.73-.72-11.16-2.88-14.59l0.3-8.81c8.57,3,9.21,14.33,10.34,21.87,0.79,5.23.87,13.25,3.42,17.86,2.32,4.2,7.38,5.16,11.74,6.2-3.24,1.83-7.77,1.59-11.13,3.66,2.68,1,5.85,1.66,8.34,3-6,2.71-5.87,1.84-4.25,8.74,1.43,6.14,1.78,12.57,2.21,18.84,0.33,5-.19,10,0,14.93s1.32,3.75,5.76,6.38a14.11,14.11,0,0,1,3.05,2.32Z" transform="translate(-79.12 -7)"/><path class="aa549578-fe74-40d6-852f-b9803d72a166" d="M302.47,185.28c0.2,2.29-3,4.32-3.29,6.71-0.44,3.7,1.7,8.38,2.27,12.08,1.62,10.41,1,21.41,3.18,31.66a90.63,90.63,0,0,1,1.89,28.47c-0.36,3.22-.37,4-2.69,6-2.72,2.36-5.32,5.07-8.08,7.28-2.69-3.37-8.72-5.95-8.7-10.2,0-6.21,1.4-13.09,1.93-19.36,0.75-9,1.29-17.88,2.23-26.82a84,84,0,0,0,.47-15c-0.25-3.64-1-7.73-.44-11.37,0.64-4.55,4.25-9,8.71-10.23Z" transform="translate(-79.12 -7)"/><path class="6fe2af6c-0d62-4506-a0f2-8efd42c6141d" d="M417.76,134.47s-33.33,23-52,34.32c-15.68,9.52-36.91,16.9-45.37,33.8C321,189.68,326.07,174,335,164.86c0.31,5.84-3.76,12-4.23,17.8,5.79-6.77,13.7-18.28,21.92-21.53-1.63,3.66-4,7.33-5.94,10.84,10-6.34,21.13-10.75,30.89-17.62,8.56-6,17-12.13,26-17.58,2.77-1.68,8-6.74,11.89-6.18Z" transform="translate(-79.12 -7)"/><path class="8da43053-3ad6-4362-b24b-3378329e3706" d="M264.93,160.81h37.61s0.42,8.2,0,8.48-4.15,3.18-4.9,3.23-9.52,0-9.52,0-13.37,1.27-14.38,1.41-6.92-3.09-6.92-3.09L264.93,164v-3.14Z" transform="translate(-79.12 -7)"/><path class="b0b5dc57-0c33-42c9-b66c-c9dbf06d8425" d="M314.63,90.66l-6.39,68.54-3.12-.19-6-.36V180l-10.27,7.22-11.51-5.35-4.59-2.14-11.1-78.54V87.33l2.66-1.84,9-6.21a101.61,101.61,0,0,1,10-2.16c5.36-1,11-2,11.39-2C295.48,75.12,314.63,90.66,314.63,90.66Z" transform="translate(-79.12 -7)"/><path class="8e857b37-5569-47e8-8393-c86007d6f7ab" d="M277.32,180.59c0,0.46,0,.89,0,1.29l-4.59-2.14-11.1-78.54V87.33l2.66-1.84,3.73,8.6C269,94.34,276.88,163.34,277.32,180.59Z" transform="translate(-79.12 -7)"/><path class="a2be3878-eba6-4726-87c8-96c09e58541e" d="M314.63,90.66l-6.39,68.54-3.12-.19-0.48-24.54-7-2.46V99.7a12.29,12.29,0,0,1-7-1.38l1.24,3.83c-14.41,3.62-28.21-5.42-28.18-5.31l8.25-14,6.26-3.83s2.14-.89,5.08-1.94c5.36-1,11-2,11.39-2C295.48,75.12,314.63,90.66,314.63,90.66Z" transform="translate(-79.12 -7)"/><path class="b0b5dc57-0c33-42c9-b66c-c9dbf06d8425" d="M314.63,124.54s-1.87,1.37-4.5,2.95c-3.71,2.22-8.94,4.84-12.49,4.52l-3-17.39,3-8.7S304.08,121.52,314.63,124.54Z" transform="translate(-79.12 -7)"/><path class="f284fd09-11e3-465a-bf01-2e59cdd5119f" d="M286.39,92.94l3.79,6.53c-10.11,2.74-26.54-2.74-26.54-2.74,5.69,14.11-2.77,23.17-2.77,23.17a15,15,0,0,1-1.8-.55c-13.14-4.75-17-23.88-10.8-33.36,6.53-9.9,12.6-5.06,12.6-5.06,4.6-21.06,39.21-18.74,50.79-10.74s29.69,15.17,29.69,15.17C318.82,100.1,286.39,92.94,286.39,92.94Z" transform="translate(-79.12 -7)"/><path class="8e3bdc43-0056-4543-a725-d4fccb6dbbd9" d="M341.35,85.36C337.42,86.53,318,80,310.28,75.12S286.9,66.67,275,71.95s-11.38,13.54-11.38,13.54-10.42-2.7-13.2,8.42,7.27,23.89,8.61,25.43h0c-13.14-4.75-17-23.88-10.8-33.36,6.53-9.9,12.6-5.06,12.6-5.06,4.6-21.06,39.21-18.74,50.79-10.74S341.35,85.36,341.35,85.36Z" transform="translate(-79.12 -7)"/><path class="8e857b37-5569-47e8-8393-c86007d6f7ab" d="M265.66,116.85s-6.25-5.94-10.69-.67,3.88,22.76,13,17.2Z" transform="translate(-79.12 -7)"/><path class="a2be3878-eba6-4726-87c8-96c09e58541e" d="M273.84,131.13s0.32,0.4.9,1.08,1.4,1.61,2.41,2.65c0.51,0.52,1.09,1.06,1.68,1.62s1.28,1.09,2,1.64,1.44,1,2.2,1.51a17.82,17.82,0,0,0,2.39,1.28,16.3,16.3,0,0,0,2.52,1,21,21,0,0,0,2.56.62c0.85,0.13,1.69.27,2.5,0.31,0.4,0,.8.05,1.19,0.06s0.76,0,1.13,0c0.72,0,1.4,0,2-.05s1.14,0,1.58-.09c0.88-.07,1.41-0.08,1.41-0.08l0.06,0.19-1.32.41c-0.42.15-.94,0.26-1.54,0.41s-1.28.26-2,.4a21.5,21.5,0,0,1-2.43.22,18.51,18.51,0,0,1-2.73-.08,17.31,17.31,0,0,1-2.88-.52,18.28,18.28,0,0,1-2.85-1,20.25,20.25,0,0,1-4.93-3.29,24.28,24.28,0,0,1-3.44-3.86,22.45,22.45,0,0,1-2.52-4.36Z" transform="translate(-79.12 -7)"/><path class="a2be3878-eba6-4726-87c8-96c09e58541e" d="M271.33,133.21v-0.12a0.26,0.26,0,0,0-.08-0.11,0.15,0.15,0,0,1-.09-0.12,2.32,2.32,0,0,1-.15-1,2.71,2.71,0,0,1,.4-1.3,2.8,2.8,0,0,1,.51-0.6,3,3,0,0,1,.68-0.47,3.17,3.17,0,0,1,1.55-.34,3.47,3.47,0,0,1,.7.14,2.07,2.07,0,0,1,.58.27,2.4,2.4,0,0,1,.74.67,2.5,2.5,0,0,1,.23.36l0,0.2a8.39,8.39,0,0,0-.93,0,5.09,5.09,0,0,0-.93.11,4.11,4.11,0,0,0-1,.37,4,4,0,0,0-1.49,1.29l-0.39.56a1.55,1.55,0,0,1-.14.19l-0.05,0Z" transform="translate(-79.12 -7)"/><path class="f284fd09-11e3-465a-bf01-2e59cdd5119f" d="M275,105.86l0-.18a3.37,3.37,0,0,1,.14-0.52,5.2,5.2,0,0,1,.32-0.75,7.12,7.12,0,0,1,1.38-1.82,7.84,7.84,0,0,1,1.09-.89,7.63,7.63,0,0,1,1.35-.7c0.24-.09.49-0.19,0.74-0.27l0.78-.17a7.74,7.74,0,0,1,1.59-.13,8.37,8.37,0,0,1,1.52.18,8.47,8.47,0,0,1,1.34.45,4.82,4.82,0,0,1,1.09.6,5.53,5.53,0,0,1,1.38,1.22,5.93,5.93,0,0,1,.43.56l-0.09.18-0.57-.24-0.65-.27a16.83,16.83,0,0,0-1.9-.56c-0.38-.05-0.77-0.15-1.18-0.18a12.3,12.3,0,0,0-1.28,0,8.58,8.58,0,0,0-1.31.17l-0.65.13-0.63.19a10.45,10.45,0,0,0-1.19.46c-0.37.2-.73,0.37-1.05,0.58a9.45,9.45,0,0,0-.89.61,9.91,9.91,0,0,0-1.65,1.49Z" transform="translate(-79.12 -7)"/><path class="f284fd09-11e3-465a-bf01-2e59cdd5119f" d="M300.27,100.89l0.14-.14a3,3,0,0,1,.29-0.4,6.73,6.73,0,0,1,1.42-1.2,6.11,6.11,0,0,1,1.11-.58l0.65-.26c0.23-.08.47-0.12,0.71-0.18a7.73,7.73,0,0,1,1.56-.17,7.63,7.63,0,0,1,1.65.2l0.82,0.23c0.26,0.11.51,0.24,0.77,0.35a6.42,6.42,0,0,1,2.35,2,4.37,4.37,0,0,1,.66,1.11,3.9,3.9,0,0,1,.38,1,7.14,7.14,0,0,1,.16.81,5.77,5.77,0,0,1,.06.71l-0.17.1-0.36-.51-0.41-.59a6.46,6.46,0,0,0-.59-0.71,5.63,5.63,0,0,0-.76-0.78,7.19,7.19,0,0,0-1-.74,6.37,6.37,0,0,0-1.14-.6l-0.61-.25-0.65-.16A8.23,8.23,0,0,0,306,99.9a10.44,10.44,0,0,0-1.29,0,8.55,8.55,0,0,0-1.21.16c-0.38.06-.73,0.18-1.06,0.25-0.65.2-1.19,0.38-1.56,0.53l-0.45.18-0.16.05Z" transform="translate(-79.12 -7)"/><ellipse class="c69a63e2-e465-4751-9075-ce6fa36dc2da" cx="202.05" cy="106.24" rx="2.99" ry="5.73"/><ellipse class="c69a63e2-e465-4751-9075-ce6fa36dc2da" cx="225.51" cy="104.65" rx="2.99" ry="5.73"/><circle class="f7834c8b-8046-4213-90ca-3205440d8b77" cx="199.94" cy="102.58" r="1.75"/><circle class="f7834c8b-8046-4213-90ca-3205440d8b77" cx="223.77" cy="100.84" r="1.75"/><polygon class="f7192f01-6e2a-49f9-ab64-1d76320e3679" points="209 151.9 219.97 151.65 219.97 158.8 209 151.9"/><path class="b0b5dc57-0c33-42c9-b66c-c9dbf06d8425" d="M266.83,130.25L265.38,119s-3.36-6.16-7.64-1.23S258.5,135.26,266.83,130.25Z" transform="translate(-79.12 -7)"/><path class="8e857b37-5569-47e8-8393-c86007d6f7ab" d="M310.13,127.49l1.37-3.25c-12.5-3.73-13.86-18.32-13.86-18.32s6.44,15.6,17,18.62C314.63,124.54,312.76,125.91,310.13,127.49Z" transform="translate(-79.12 -7)"/><path class="b103ffd5-bf58-4bfb-b705-0a569d24bd56" d="M304.51,263.63L291.86,275.3l-6.61-5.46-4.38-3.61s0.4-6.28.45-20.45c0-13.87,2.7-46.41,3.36-54.33,0.1-1.13.15-1.76,0.15-1.76l2.18-.12,10.63-.59c0,0.4,0,.88.06,1.43C298.43,204.32,304.51,263.63,304.51,263.63Z" transform="translate(-79.12 -7)"/><path class="b103ffd5-bf58-4bfb-b705-0a569d24bd56" d="M300.86,188c0,1-1.26,1.85-3.16,2.41a28,28,0,0,1-5.33.94,47.61,47.61,0,0,1-7.69.1c-0.73,0-1.39-.13-2-0.22-5.2-.84-3.93-6.89-3.79-9.35,0.11-2,1.72-2,6.15-2.21,1.16-.06,2.51-0.13,4.07-0.25,7.56-.56,8.49,2.46,8.49,2.46S300.86,184.62,300.86,188Z" transform="translate(-79.12 -7)"/><polygon class="069aa4f1-1d7e-4b6b-a04e-aa4783852563" points="214.48 172.42 223.42 153.81 231.15 168.91 222.82 184.23 214.48 172.42"/><path class="069aa4f1-1d7e-4b6b-a04e-aa4783852563" d="M166.58,89.88c0,0.29,11.15,13.15,11.15,13.15L165,122.27s-16.48-14.58-16.1-14.39S166.58,89.88,166.58,89.88Z" transform="translate(-79.12 -7)"/><ellipse class="f7834c8b-8046-4213-90ca-3205440d8b77" cx="81.36" cy="103.65" rx="2.38" ry="2.29"/><path class="f7192f01-6e2a-49f9-ab64-1d76320e3679" d="M428.22,128.53a21.53,21.53,0,0,1-4.33-.25L417.76,127l-1.32-14.76h0c0.06-.17.84-2.08,1.84-4.7,0.51,0.86,1.09,1.72,1.68,2.59,0.34,0.52.7,1,1.06,1.58a35.48,35.48,0,0,1,3.38,6A82.29,82.29,0,0,1,428.22,128.53Z" transform="translate(-79.12 -7)"/><path class="069aa4f1-1d7e-4b6b-a04e-aa4783852563" d="M400.95,117l15.93-8.48s8.91,20.31,9.65,24.11l-12.79,7.89Z" transform="translate(-79.12 -7)"/><circle class="dc82a698-9d59-4719-b945-70821847acaf" cx="380.14" cy="123.78" r="1.95"/><path class="4594ffc1-77be-4e87-a308-066dc750a069" d="M497.5,73.41L494.61,88l-0.26,1.31c-15.76,10-31.55,20.9-48.28,29.22-2.64,1.31-5.48,2.52-8.35,3.77l-0.28-.06,2.22-11.27c9.56-6.64,19.41-12.79,28.86-19.56C477.63,84.87,488.29,79.85,497.5,73.41Z" transform="translate(-79.12 -7)"/><path class="dc82a698-9d59-4719-b945-70821847acaf" d="M502.18,68.24c-0.29.24-.58,0.48-0.88,0.7,0-.24,0-0.47,0-0.7A4,4,0,0,0,502.18,68.24Z" transform="translate(-79.12 -7)"/><path class="069aa4f1-1d7e-4b6b-a04e-aa4783852563" d="M156.38,175.11H136.87s-3.14,31.62-2.47,31.62h18.84Z" transform="translate(-79.12 -7)"/><circle class="f7834c8b-8046-4213-90ca-3205440d8b77" cx="67.59" cy="193.67" r="2.69"/><circle class="f7834c8b-8046-4213-90ca-3205440d8b77" cx="339.01" cy="123.15" r="2.58"/><path class="b103ffd5-bf58-4bfb-b705-0a569d24bd56" d="M126,170.15l-1.5-2.4L112,147.84a1.63,1.63,0,0,0-2-.59l-30.16,14.4a1.21,1.21,0,0,0-.5,1.8l31.32,47.93a1.51,1.51,0,0,0,2,.47l27.6-16.16a1.38,1.38,0,0,0,.47-1.92Z" transform="translate(-79.12 -7)"/><path class="62e62176-c265-4293-bf73-31174030b94c" d="M102.53,176.4a1.26,1.26,0,0,1-.4,1.86l-2.84,1.53a1.62,1.62,0,0,1-2-.54l-2-2.87a1.26,1.26,0,0,1,.4-1.86L98.52,173a1.62,1.62,0,0,1,2,.54Z" transform="translate(-79.12 -7)"/><path class="62e62176-c265-4293-bf73-31174030b94c" d="M110.41,172.15A1.26,1.26,0,0,1,110,174l-2.84,1.53a1.62,1.62,0,0,1-2-.54l-2-2.87a1.26,1.26,0,0,1,.4-1.86l2.84-1.53a1.62,1.62,0,0,1,2,.54Z" transform="translate(-79.12 -7)"/><path class="62e62176-c265-4293-bf73-31174030b94c" d="M118.28,167.9a1.26,1.26,0,0,1-.4,1.86L115,171.29a1.62,1.62,0,0,1-2-.54l-2-2.87a1.26,1.26,0,0,1,.4-1.86l2.84-1.53a1.62,1.62,0,0,1,2,.54Z" transform="translate(-79.12 -7)"/><path class="62e62176-c265-4293-bf73-31174030b94c" d="M107.72,184.22a1.26,1.26,0,0,1-.4,1.86l-2.84,1.53a1.62,1.62,0,0,1-2-.54l-2-2.87a1.26,1.26,0,0,1,.4-1.86l2.84-1.53a1.62,1.62,0,0,1,2,.54Z" transform="translate(-79.12 -7)"/><path class="62e62176-c265-4293-bf73-31174030b94c" d="M115.6,180a1.26,1.26,0,0,1-.4,1.86l-2.84,1.53a1.62,1.62,0,0,1-2-.54l-2-2.87a1.26,1.26,0,0,1,.4-1.86l2.84-1.53a1.62,1.62,0,0,1,2,.54Z" transform="translate(-79.12 -7)"/><path class="62e62176-c265-4293-bf73-31174030b94c" d="M123.47,175.72a1.26,1.26,0,0,1-.4,1.86l-2.84,1.53a1.62,1.62,0,0,1-2-.54l-2-2.87a1.26,1.26,0,0,1,.4-1.86l2.84-1.53a1.62,1.62,0,0,1,2,.54Z" transform="translate(-79.12 -7)"/><path class="62e62176-c265-4293-bf73-31174030b94c" d="M113,192a1.26,1.26,0,0,1-.4,1.86l-2.84,1.53a1.62,1.62,0,0,1-2-.54l-2-2.87a1.26,1.26,0,0,1,.4-1.86l2.84-1.53a1.62,1.62,0,0,1,2,.54Z" transform="translate(-79.12 -7)"/><path class="62e62176-c265-4293-bf73-31174030b94c" d="M120.84,187.79a1.26,1.26,0,0,1-.4,1.86l-2.84,1.53a1.62,1.62,0,0,1-2-.54l-2-2.87a1.26,1.26,0,0,1,.4-1.86l2.84-1.53a1.62,1.62,0,0,1,2,.54Z" transform="translate(-79.12 -7)"/><path class="62e62176-c265-4293-bf73-31174030b94c" d="M128.72,183.54a1.26,1.26,0,0,1-.4,1.86l-2.84,1.53a1.62,1.62,0,0,1-2-.54l-2-2.87a1.26,1.26,0,0,1,.4-1.86l2.84-1.53a1.62,1.62,0,0,1,2,.54Z" transform="translate(-79.12 -7)"/><path class="62e62176-c265-4293-bf73-31174030b94c" d="M118.35,199.86a1.26,1.26,0,0,1-.4,1.86l-2.84,1.53a1.62,1.62,0,0,1-2-.54l-2-2.87a1.26,1.26,0,0,1,.4-1.86l2.84-1.53a1.62,1.62,0,0,1,2,.54Z" transform="translate(-79.12 -7)"/><path class="62e62176-c265-4293-bf73-31174030b94c" d="M126.22,195.61a1.26,1.26,0,0,1-.4,1.86L123,199a1.62,1.62,0,0,1-2-.54l-2-2.87a1.26,1.26,0,0,1,.4-1.86l2.84-1.53a1.62,1.62,0,0,1,2,.54Z" transform="translate(-79.12 -7)"/><path class="62e62176-c265-4293-bf73-31174030b94c" d="M134.09,191.36a1.26,1.26,0,0,1-.4,1.86l-2.84,1.53a1.62,1.62,0,0,1-2-.54l-2-2.87a1.26,1.26,0,0,1,.4-1.86l2.84-1.53a1.62,1.62,0,0,1,2,.54Z" transform="translate(-79.12 -7)"/><path class="b0b5dc57-0c33-42c9-b66c-c9dbf06d8425" d="M136.84,175.37c-0.11,1.2-.24,2.2-0.78,8.08-5.78-2.51-8.71-8.34-8.71-8.34-6,.52-11.6-3.19-10.86-7.35s15.17,0,15.17,0Z" transform="translate(-79.12 -7)"/><polygon class="494a9333-dd6f-4b6b-addd-cf27789a1efa" points="35.06 151.7 27.52 155.65 27.44 155.69 23.4 157.81 23.38 157.82 17.28 161.02 17.27 161.02 14.44 162.51 10.9 164.37 5.98 156.89 13.49 153.3 16.55 151.84 23.23 148.66 25.87 147.39 30.59 145.14 35.06 151.7"/><path class="ddf41df6-bf3b-49fb-b81e-331a497529f9" d="M93.56,169.51c0-1-.06-2-0.15-3.07-0.16-1.9-.57-3.77-0.8-5.67l3.06-1.39c0,0.53-.12,1.16-0.11,1.61,0,1.69.41,3.33,0.6,5,0.08,0.68.14,1.36,0.23,2Z" transform="translate(-79.12 -7)"/><path class="ddf41df6-bf3b-49fb-b81e-331a497529f9" d="M102.52,164.81c0.19-2.8.52-5.83-.17-8.45l2.64-1.2c0.09,0.33.17,0.64,0.21,0.88,0.38,2.23.8,4.46,1.36,6.65Z" transform="translate(-79.12 -7)"/><path class="b0b5dc57-0c33-42c9-b66c-c9dbf06d8425" d="M458.3,294.39v11.94l-4.58-3.44-4-3S451.56,294.71,458.3,294.39Z" transform="translate(-79.12 -7)"/><path class="d53eca45-27f3-4c4e-a39b-9582f1cce283" d="M458.3,300.18v6.15l-4.58-3.44A5.82,5.82,0,0,1,458.3,300.18Z" transform="translate(-79.12 -7)"/><path class="aa549578-fe74-40d6-852f-b9803d72a166" d="M247.58,175.69c5.85,9.55,5.47,21.18,6.51,31.95-0.21-1-.44-2-0.66-3-8.77-19.2-39-38.78-52.83-51.49-14-12.87-37.19-35.81-37.19-35.81l0.16-.24a13.08,13.08,0,0,1,4,1.26c5.32,2.51,8.72,7.45,12.84,11.47,5.94,5.82,12.72,10.85,19.21,15.91,12.35,9.64,24.49,19.67,35.58,31.3-1.11-3.3-2.26-6.74-2.14-10.27,5.21,7,11.29,13.72,14.82,21.65C246.81,184.67,247.35,179.64,247.58,175.69Z" transform="translate(-79.12 -7)"/><path class="3259f6ca-7c3b-47b7-8e83-04d7a196e6d8" d="M289.14,230.66c0,5.49-1.4,10.85-1.7,16.34-0.26,4.74-.28,9.51-0.44,14.25-0.1,3.27.06,6.36-1.75,8.59l-4.38-3.61s0.4-6.28.45-20.45c0-13.87,2.7-46.41,3.36-54.33-0.73,0-1.39-.13-2-0.22-5.2-.84-3.93-6.89-3.79-9.35,0.11-2,1.72-2,6.15-2.21-1.53,2.34-2.34,6.37-.77,8a10.16,10.16,0,0,0,2.7,1.92,23.93,23.93,0,0,0,5.36,1.78l1.73,0.36c-1.56.84-4.09,0.9-5.39,2-1.77,1.53-1.23,4.26-1.31,6.62C287,210.52,289.19,220.49,289.14,230.66Z" transform="translate(-79.12 -7)"/><polygon class="069aa4f1-1d7e-4b6b-a04e-aa4783852563" points="181.75 167.1 185.81 153.81 202.47 172.98 198.21 186.93 181.75 167.1"/><path class="cfe97d30-08dd-4a51-8371-a74ad6d535a3" d="M341.23,466.8l-11.56,4.62-34-164.92,0.14-.33c7.27-.8,15-4.83,22.19-6.58a115.49,115.49,0,0,0-14,12.71c3.73-1.34,7.6-3.41,11.71-3.16-1.45,3.25-6,5.68-8.85,7.84,0.61,0.14,1.18,0,1.78.16-4.94,9.43,1.39,27.3,3.49,37.26,1.54,7.27,2.46,14.64,4.11,21.93,1.79,7.88,2,4.8,8.35,8.1-1.76.65-3.61,2-5.38,2.85,2-.11,4,0.84,5.59,1.39-8.8,3.17,1.42,22.72,3.35,28.64,3.9,11.94,8.65,23.62,10.71,36.07C339.56,457.4,340.75,462.12,341.23,466.8Z" transform="translate(-79.12 -7)"/></svg>