<?xml version="1.0" encoding="UTF-8" standalone="no"?>
<!-- Created with Inkscape (http://www.inkscape.org/) -->

<svg
   xmlns:svg="http://www.w3.org/2000/svg"
   xmlns="http://www.w3.org/2000/svg"
   version="1.1"
   width="371.42856"
   height="289.01785"
   id="svg2">
  <defs
     id="defs4" />
  <g
     transform="translate(545.71428,-506.21932)"
     id="layer1">
    <g
       transform="matrix(0.58035714,0,0,0.58035714,-600.43367,376.58948)"
       id="g2830">
      <path
         d="m 94.285713,472.36218 0,-249 319.999997,0 320,0 0,249 0,249 -320,0 -319.999997,0 0,-249 z m 146.999997,161.03571 0.5,-37.46429 12.5,14.70861 12.5,14.7086 7.48368,-0.24432 7.48369,-0.24431 12.01631,-14.16191 c 6.60898,-7.78905 12.35382,-14.20155 12.76632,-14.25 0.4125,-0.0485 0.75,16.78883 0.75,37.41618 l 0,37.50428 113.25,-0.25428 113.25,-0.25427 0.5,-38.64264 0.5,-38.64265 25.63132,29.64265 c 14.09723,16.30345 29.17011,33.80514 33.49528,38.89264 l 7.86395,9.25 22.25473,0 22.25472,0 0,-83 0,-83 -27.5,0 -27.5,0 0,36.58333 c 0,20.12084 -0.36957,36.43334 -0.82126,36.25 -0.45169,-0.18333 -4.38919,-4.38333 -8.75,-9.33333 -4.36081,-4.95 -9.11769,-10.35 -10.57085,-12 -1.45316,-1.65 -4.4614,-5.025 -6.68499,-7.5 l -4.04288,-4.5 5.18499,-0.53086 c 2.85175,-0.29198 6.15727,-1.07379 7.34561,-1.73735 3.00459,-1.67776 6.33938,-7.39695 6.33938,-10.87208 0,-1.59733 1.12543,-8.29421 2.50096,-14.88197 2.01485,-9.64962 4.44597,-28.72172 4.49049,-35.22774 0.006,-0.83998 1.73061,-1.25051 5.25855,-1.25155 6.46764,-0.002 11.46395,-2.38148 14.48007,-6.89633 6.64299,-9.94395 -2.55755,-23.23656 -14.98007,-21.64269 l -4.75,0.60946 0.0136,-3.28445 c 0.032,-7.6995 -0.35407,-7.50624 13.96258,-6.98927 7.4828,0.2702 16.29862,-0.0439 21.15311,-0.75375 41.91708,-6.12909 71.93521,-35.49871 76.86265,-75.2021 2.80372,-22.59139 -5.95503,-47.86911 -22.6637,-65.40732 -23.37491,-24.53545 -60.74864,-33.99873 -98.15934,-24.85463 -6.99802,1.71049 -23.10489,8.81674 -28.18849,12.43658 -1.63922,1.16723 -2.98041,1.91372 -2.98041,1.65885 0,-0.25486 1.35,-3.63584 3,-7.51328 1.65,-3.87744 3,-7.29956 3,-7.60471 0,-0.30514 -13.23707,-0.55481 -29.41571,-0.55481 l -29.4157,0 -14.26563,33.51866 c -7.8461,18.43527 -14.58848,33.17277 -14.98308,32.75 -0.3946,-0.42276 -7.46138,-15.39366 -15.70397,-33.26866 l -14.98652,-32.5 -20.95904,-0.26944 -20.95904,-0.26943 -15.40566,33.50463 c -8.47311,18.42754 -15.63065,33.50252 -15.90565,33.49995 -0.275,-0.003 -6.87791,-14.9584 -14.67312,-33.23519 l -14.17313,-33.23052 -100.82687,0 -100.82688,0 0,22.5 0,22.5 26.75,0.26633 26.75,0.26634 0,59.98366 0,59.98367 27.5,0 27.5,0 0,-60 0,-60 26.75323,0 26.75322,0 7.41672,17.25 c 4.07919,9.4875 11.53917,26.7 16.57773,38.25 5.03857,11.55 13.62256,31.2375 19.07554,43.75 8.71942,20.00774 10.18626,22.75 12.16903,22.75 1.81259,0 2.25453,0.55929 2.25453,2.85321 0,2.81273 -0.0694,2.84654 -4.89057,2.38328 -6.55918,-0.63025 -13.75458,1.87206 -20.88576,7.26337 -5.80314,4.38728 -7.21926,4.71855 -7.22925,1.69112 -0.0134,-4.05846 -2.38987,-9.62293 -5.65178,-13.23348 -4.68343,-5.184 -8.79447,-5.96721 -15.88836,-3.02695 -5.06989,2.10135 -5.44728,2.12443 -8.54482,0.52263 -4.31839,-2.23313 -12.13793,-1.52662 -15.22744,1.37582 l -2.25272,2.11632 -4.96465,-2.55549 c -4.22451,-2.17451 -5.93608,-2.491 -11.48076,-2.12291 -11.44407,0.75971 -20.64677,6.53814 -23.01819,14.45323 -1.52029,5.07428 -0.75092,8.36948 2.91102,12.46791 l 2.83475,3.17263 -3.34658,4.38426 c -6.17042,8.08369 -7.7726,18.72231 -3.96811,26.3486 0.88177,1.76755 1.60322,3.59459 1.60322,4.06009 0,0.4655 -9.9,0.84636 -22,0.84636 l -22,0 0,82.33333 c 0,45.28334 0.30709,82.64042 0.68241,83.01574 0.37532,0.37533 12.86282,0.56283 27.75,0.41667 l 27.06759,-0.26574 0.5,-37.46429 z m 173.20956,-16.28571 0.29044,-8.25 31.75,-0.26405 31.75,-0.26404 0,8.51404 0,8.51405 -32.04044,0 -32.04044,0 0.29044,-8.25 z m 0.19924,-55.12706 c -0.29063,-0.75738 -0.38901,-3.56988 -0.21861,-6.25 l 0.30981,-4.87294 31.75,-0.26405 31.75,-0.26404 0,6.51404 0,6.51405 -31.53138,0 c -25.85428,0 -31.62653,-0.24793 -32.05982,-1.37706 z m -142.53683,-9.55543 c -0.75458,-1.06287 -9.67237,-11.49475 -19.81731,-23.18195 -10.14494,-11.6872 -17.56994,-20.83555 -16.5,-20.32967 2.40348,1.1364 13.02556,1.04636 24.94534,-0.21146 6.93822,-0.73215 9.57272,-0.65271 11.5,0.34677 5.41253,2.80689 12.7953,0.92709 16.9117,-4.30608 1.14857,-1.46016 2.0883,-2.17868 2.0883,-1.5967 0,1.71742 5.01213,7.16649 8.02485,8.72443 1.53264,0.79256 4.18449,1.54753 5.89301,1.67771 1.70851,0.13019 2.95634,0.70307 2.77294,1.27307 -0.43922,1.36512 -33.00511,39.36472 -33.81883,39.4616 -0.34541,0.0411 -1.24541,-0.79485 -2,-1.85772 z m 289.46597,-18.06614 c -3.28326,-1.32399 -3.67881,-4.34716 -1.40408,-10.73133 1.13076,-3.17352 2.75698,-9.82004 3.61382,-14.77004 1.70535,-9.85179 3.17377,-34.5 2.05535,-34.5 -0.38443,0 -1.72526,1.19314 -2.97962,2.65142 -1.82782,2.12497 -2.81782,2.5166 -4.98604,1.97241 -1.48796,-0.37345 -3.20392,-1.77316 -3.81323,-3.11045 -1.56992,-3.44561 1.11593,-7.16442 7.12751,-9.86873 l 4.76749,-2.14465 0.63181,-10.2647 c 1.21132,-19.67969 5.64682,-31.19708 13.63345,-35.40115 3.99283,-2.10178 12.57706,-2.44672 16.49252,-0.66271 2.66027,1.2121 4.16808,4.70534 3.16231,7.32632 -0.69029,1.79888 -3.82032,1.92782 -8.21567,0.33844 -9.32294,-3.37122 -15.00482,6.67376 -15.64785,27.6638 l -0.27571,9 6,-0.14415 c 3.3,-0.0793 7.36681,-0.4539 9.03737,-0.83248 4.23683,-0.96014 8.03115,2.07532 7.12202,5.69761 -0.82285,3.27846 -2.3139,3.80457 -12.71998,4.48816 l -8.56059,0.56236 -1.14959,15.61425 c -0.63228,8.58784 -2.29251,21.00423 -3.68941,27.59199 -1.3969,6.58776 -2.53982,13.19974 -2.53982,14.6933 0,1.67256 -0.85362,3.31345 -2.22251,4.27226 -2.50493,1.75452 -2.47913,1.75187 -5.43955,0.55807 z m -17.33794,-8.23117 c -2.475,-2.87585 -7.12669,-8.27471 -10.33708,-11.99748 -4.81628,-5.58493 -5.54251,-6.8817 -4.15266,-7.41503 1.12243,-0.43072 2.40263,0.22943 3.83708,1.97863 2.34052,2.85409 8.23768,5.66589 11.87054,5.65994 1.25517,-0.002 3.74462,-0.89544 5.53212,-1.9853 l 3.25,-1.98156 0,2.47457 c 0,1.36102 -0.89977,4.8419 -1.9995,7.7353 -1.09972,2.8934 -1.99972,6.49823 -2,8.01073 -2.7e-4,1.5125 -0.338,2.74978 -0.7505,2.74951 -0.4125,-2.7e-4 -2.775,-2.35346 -5.25,-5.22931 z m -196.5,-21.7702 c 0.33992,-0.55 1.26648,-1 2.05902,-1 0.79254,0 1.44098,0.45 1.44098,1 0,0.55 -0.92656,1 -2.05902,1 -1.13246,0 -1.7809,-0.45 -1.44098,-1 z m 18.5,0.5 c 0,-0.275 0.87626,-1.37626 1.94725,-2.44725 1.07099,-1.07099 2.46,-3.88349 3.0867,-6.25 0.62669,-2.36651 2.23429,-5.46162 3.57244,-6.87803 4.62894,-4.89962 5.10862,-14.26719 0.96504,-18.8458 -1.47283,-1.62745 -1.47869,-3.03903 -0.0692,-16.67842 0.84691,-8.19528 1.95331,-17.1505 2.45866,-19.9005 0.80431,-4.37681 31.71895,-71.50858 34.00875,-73.85066 0.45741,-0.46787 1.14582,0.13914 1.52978,1.34891 0.38397,1.20977 6.94515,15.2516 14.5804,31.20408 13.41687,28.0321 13.85193,29.14351 12.97687,33.15108 -1.86073,8.52178 -6.33876,61.67171 -6.26812,74.39659 l 0.0292,5.25 -4.51586,0 c -3.92381,0 -4.41617,-0.22943 -3.7555,-1.75 4.65052,-10.70346 6.93745,-23.45032 6.14483,-34.25 -0.81589,-11.11668 -3.08256,-16.53855 -9.67165,-23.13454 -4.7333,-4.73827 -6.52109,-5.83427 -11.23912,-6.89011 -6.29674,-1.40915 -11.86441,-0.49722 -19.6203,3.21363 -9.90018,4.7368 -13.34825,16.11037 -7.05655,23.27622 l 3.10359,3.5348 -2.99291,3.40874 c -6.43459,7.32859 -8.19056,22.07434 -3.40026,28.55357 1.2023,1.62619 2.18599,3.19993 2.18599,3.4972 0,0.29727 -4.05,0.54049 -9,0.54049 -4.95,0 -9,-0.225 -9,-0.5 z m 97.73513,-8.75 c 0.51212,-9.78682 2.47594,-14.95981 7.30834,-19.25122 l 2.25076,-1.99878 -0.61225,8.94566 c -0.64227,9.38444 0.4954,16.62673 2.92912,18.64655 2.66177,2.20906 1.34362,2.90779 -5.48555,2.90779 l -6.87445,0 0.48403,-9.25 z m -162.28058,5.79545 c -1.99727,-1.99726 -2.47906,-3.53423 -2.58611,-8.25 -0.36189,-15.9418 -1.45252,-28.66397 -2.48653,-29.0052 -1.52683,-0.50386 -8.40167,13.14226 -12.44865,24.70975 -1.828,5.225 -3.79831,9.83061 -4.37845,10.23469 -2.40939,1.67816 -5.36494,0.7486 -6.31029,-1.98469 -1.22086,-3.52987 0.31252,-44.55381 1.7669,-47.27133 1.2955,-2.42068 5.23489,-2.5895 7.50286,-0.32153 1.36326,1.36326 1.54746,2.91499 1.03867,8.75 -0.69977,8.02528 -1.3855,8.34746 7.20438,-3.38479 11.19508,-15.2905 16.23168,-8.85221 16.25349,20.77687 0.007,9.38325 0.49716,16.32851 1.35534,19.20078 1.38027,4.61968 1.16387,6.94573 -0.7661,8.23469 -1.93553,1.29266 -3.62915,0.82713 -6.14551,-1.68924 z m 238.96741,0.73366 c -1.5688,-1.56881 -1.66532,-3.84454 -1.0921,-25.75 0.56811,-21.70983 2.50091,-47.77967 4.22289,-56.95857 0.81524,-4.34562 2.68145,-5.97956 5.9054,-5.1704 4.64439,1.16567 4.78924,3.0184 1.94106,24.8277 -1.69761,12.99904 -2.87199,27.80641 -3.27332,41.27216 -0.34424,11.55 -0.98995,21.5625 -1.43491,22.25 -1.15126,1.7788 -4.25226,1.54587 -6.26902,-0.47089 z m -95.29602,-0.90345 c -2.00222,-1.40241 -2.22695,-2.1741 -1.67392,-5.74778 0.35135,-2.27033 1.02457,-11.77788 1.49605,-21.12788 1.47846,-29.31931 4.2324,-51.57497 6.62797,-53.56311 1.10112,-0.91385 1.99455,-0.79305 4.03819,0.546 2.55947,1.67703 2.60605,1.89595 1.88716,8.86829 -1.59149,15.43556 -3.19461,35.16848 -2.88687,35.53487 0.17834,0.21233 3.07316,-2.15894 6.43293,-5.2695 10.96562,-10.15222 19.39018,-12.45046 24.29068,-6.62655 4.02914,4.78836 6.32198,21.63044 4.90233,36.01 -0.67524,6.83942 -0.9459,7.5291 -3.07293,7.83036 -1.28285,0.18169 -3.19535,-0.45055 -4.25,-1.40499 -1.73202,-1.56746 -1.91753,-3.22625 -1.91753,-17.1461 0,-15.73133 -0.69731,-19.28226 -3.78518,-19.27553 -4.2793,0.009 -15.24641,9.78128 -19.91145,17.74157 -2.13305,3.63977 -2.80672,6.36928 -3.31656,13.43762 -0.3519,4.87854 -1.05538,9.25756 -1.56331,9.73117 -1.96825,1.83527 -5.05736,2.03065 -7.29756,0.46156 z m -204.83113,-1.57368 c -13.02953,-3.39821 -3.65306,-28.80198 10.63074,-28.80198 0.98745,0 3.45314,1.125 5.47931,2.5 4.43176,3.00747 4.59514,3.027 4.59514,0.54922 0,-4.68283 -2.37667,-12.34341 -4.67802,-15.07841 -3.12864,-3.71818 -6.47084,-3.83265 -11.43614,-0.39169 -3.06728,2.12562 -4.08776,2.38318 -5.80375,1.46481 -6.62042,-3.54314 3.20164,-12.04393 13.9159,-12.04393 13.9196,0 20.28059,21.0345 13.45808,44.50312 -1.45775,5.01447 -1.84986,5.49688 -4.46801,5.49688 -1.57851,0 -3.14712,-0.44835 -3.48579,-0.99633 -0.38752,-0.62701 -1.71186,-0.42953 -3.57272,0.53276 -4.25738,2.20158 -10.92335,3.23351 -14.63474,2.26555 z m 9.57768,-9.23604 c 4.72771,-2.4448 5.48011,-3.98341 3.66466,-7.49411 -1.66661,-3.22285 -3.38932,-3.7565 -6.59254,-2.04219 -2.27843,1.21938 -4.94461,6.02951 -4.94461,8.9207 0,2.49827 3.67595,2.78571 7.87249,0.6156 z m 71.57241,8.36337 c -8.12593,-2.3552 -10.78561,-12.13678 -6.08931,-22.39484 4.62899,-10.11105 17.56901,-20.53447 25.49225,-20.53447 4.08767,0 9.10623,2.11126 11.55715,4.86198 1.04774,1.17591 2.21776,2.13802 2.60005,2.13802 0.91872,0 4.12494,-31.06948 3.8799,-37.5976 -0.10525,-2.80368 0.12915,-5.61618 0.52087,-6.25 1.1484,-1.85815 5.42072,-1.32587 7.70676,0.96017 1.68303,1.68303 1.98634,2.85218 1.49171,5.75 -1.12843,6.61103 -3.45603,27.47564 -4.1772,37.44439 -0.67286,9.30106 -0.599,9.88432 1.43173,11.3067 3.28111,2.29818 2.87896,6.83811 -0.73845,8.33648 -2.51157,1.04033 -2.94089,1.83025 -3.35886,6.18019 -0.26358,2.74307 -0.95979,5.46796 -1.54715,6.05532 -1.70927,1.70927 -6.18706,0.0163 -7.23296,-2.73459 l -0.94787,-2.49309 -6.76676,3.38289 c -10.73821,5.36833 -18.38889,7.16312 -23.82186,5.58845 z m 14.83834,-10.56383 c 4.09194,-2.06648 11.8777,-6.85852 14.57923,-8.97334 0.83679,-0.65505 -3.0438,-9.95626 -5.04075,-12.08191 -2.92399,-3.11244 -6.56937,-2.91263 -11.95603,0.65535 -8.39184,5.55852 -14.3447,17.34248 -10.87363,21.52485 1.89716,2.28594 7.47132,1.81414 13.29118,-1.12495 z m 56.13696,10.48997 c -3.61284,-1.75307 -5.73034,-6.51438 -4.98116,-11.2004 2.15175,-13.45901 15.12237,-21.1022 23.64332,-13.93229 l 3.23582,2.72275 -0.54956,-6.0606 c -0.99287,-10.94956 -5.70688,-16.55048 -12.14217,-14.42664 -1.89728,0.62616 -3.70026,1.7917 -4.00664,2.5901 -0.73378,1.9122 -5.03458,1.86172 -6.64439,-0.078 -3.44951,-4.15641 5.47004,-10.76986 14.69859,-10.89835 6.5136,-0.0907 9.74553,2.13142 13.82599,9.50605 2.85349,5.15711 2.994,5.95913 2.87721,16.42191 -0.19113,17.12258 -4.129,27.00963 -9.43721,23.6946 -1.74392,-1.08909 -2.92237,-0.97075 -7.54097,0.75729 -5.93273,2.21972 -9.72265,2.48357 -12.97883,0.90356 z m 12.0798,-9.761 c 3.67273,-2.07598 4.24161,-4.96818 1.608,-8.17517 -1.88363,-2.29373 -2.13259,-2.33986 -4.79737,-0.88881 -1.54584,0.84175 -3.69028,3.15962 -4.7654,5.1508 -1.65836,3.07136 -1.75068,3.86626 -0.60882,5.24211 1.47839,1.78135 3.65997,1.4428 8.56359,-1.32893 z m 93.95455,7.451 c -4.86388,-4.86387 -2.14313,-17.6375 4.89782,-22.99478 6.02216,-4.58211 11.90607,-4.53289 16.23286,0.1358 l 2.41477,2.60558 -0.022,-5.39603 c -0.0519,-12.76002 -8.39721,-20.04589 -15.46162,-13.49882 -1.58735,1.47111 -3.33305,2.20201 -4.51876,1.89194 -9.11195,-2.38283 0.81392,-12.21513 12.38392,-12.26718 4.42391,-0.0199 5.28076,0.37722 9.13931,4.23578 4.87069,4.87069 7.47911,11.96301 7.47911,20.33579 0,5.66065 -2.15909,18.15719 -3.93363,22.7674 -1.03773,2.69598 -1.34826,2.82388 -5.38601,2.21839 -2.88166,-0.43213 -5.48518,-0.14099 -7.95046,0.88907 -5.77121,2.41136 -12.33781,2.01461 -15.27535,-0.92294 z m 13.51744,-7.53116 c 2.14077,-1.09214 4.17383,-2.44122 4.51791,-2.99795 1.09106,-1.76537 -2.73817,-7.01634 -5.11661,-7.01634 -2.97241,0 -7.37329,5.4176 -7.37329,9.07673 0,3.58992 2.25345,3.85494 7.97199,0.93756 z m -21.79335,-44.01563 c -1.27674,-1.06415 -3.86424,-2.22425 -5.75,-2.57802 -1.88575,-0.35377 -3.42864,-1.1713 -3.42864,-1.81673 0,-0.64543 4.98004,-12.63285 11.06676,-26.63871 6.08672,-14.00586 12.92313,-29.84129 15.19203,-35.18984 2.2689,-5.34855 4.26282,-9.58708 4.43094,-9.41897 0.16811,0.16812 1.21085,3.84491 2.31719,8.17066 2.46476,9.63711 8.5399,22.28039 13.92162,28.97295 7.85224,9.76484 7.37775,8.15735 6.11328,20.711 -0.6254,6.20895 -1.35713,12.73062 -1.62606,14.49259 l -0.48897,3.20359 -4.54876,-3.20359 c -4.23229,-2.98071 -5.1168,-3.20156 -12.7134,-3.17444 -6.84786,0.0245 -8.98115,0.45538 -13.22744,2.67199 -2.78455,1.45356 -5.65215,3.35295 -6.37245,4.22085 -1.64694,1.98445 -2.03791,1.95058 -4.8861,-0.42333 z m -23.96983,-1.14372 c 0.24498,-0.74522 1.76072,-1.50207 3.36831,-1.68189 3.33225,-0.37274 2.3758,1.16209 -1.44543,2.31949 -1.75861,0.53266 -2.25364,0.36852 -1.92288,-0.6376 z m 129.06089,-51.909 c -10.58614,-2.08936 -19.1578,-8.42299 -23.80081,-17.5865 -2.75689,-5.44104 -2.96887,-6.64491 -2.96857,-16.85944 4e-4,-13.66162 2.0608,-19.07031 10.04412,-26.36662 7.50097,-6.85547 16.05302,-9.52519 28.6888,-8.9559 15.65085,0.70514 25.75899,6.88055 31.42141,19.19641 2.4895,5.41472 2.81762,7.28736 2.8256,16.12611 0.008,8.70449 -0.32981,10.72404 -2.60648,15.5888 -7.07734,15.12274 -24.45281,22.63699 -43.60407,18.85714 z"
         id="path2836"
         style="fill:#fcfcfc" />
      <path
         d="m 600.15815,669.61218 c -1.24387,-1.58606 -1.2085,-1.62143 0.37756,-0.37756 0.9625,0.75485 1.75,1.54235 1.75,1.75 0,0.82304 -0.82119,0.29331 -2.12756,-1.37244 z m -66.41879,-37.75 c 3e-4,-20.9 0.13317,-29.30788 0.29527,-18.68418 0.1621,10.6237 0.16186,27.7237 -5.4e-4,38 -0.16239,10.2763 -0.29502,1.58418 -0.29473,-19.31582 z m -339.45365,-43.92733 0,-73.47245 15.25,-0.30011 c 8.3875,-0.16506 15.78045,-0.0751 16.42878,0.19989 1.04108,0.44159 11.49477,12.30834 38.57723,43.79184 4.39612,5.11051 8.49943,9.12623 9.11847,8.92381 0.61904,-0.20241 4.2245,-3.93374 8.01213,-8.29184 20.57785,-23.6771 36.24333,-41.7824 37.22363,-43.02101 0.87304,-1.10309 4.66678,-1.4028 17.75649,-1.4028 l 16.64625,0 -0.25649,73.25 -0.25649,73.25 -18.5,0 -18.5,0 -0.5,-45.04738 -0.5,-45.04739 -19,22.28809 c -18.41154,21.5978 -19.10679,22.28064 -22.44812,22.04739 -3.15706,-0.22039 -5.00783,-2.05551 -21.92604,-21.74071 -10.16286,-11.825 -18.84405,-21.64845 -19.29153,-21.82988 -0.44749,-0.18144 -0.93077,19.84356 -1.07396,44.5 l -0.26035,44.82988 -18.25,0.27256 -18.25,0.27256 0,-73.47245 z m 173.66667,72.76066 c -0.36667,-0.36666 -0.66667,-33.44166 -0.66667,-73.5 l 0,-72.83333 54.02903,0 54.02902,0 -0.27902,13.25 -0.27903,13.25 -35.25,0.26279 -35.25,0.2628 0,14.9872 0,14.98721 33.5,0 33.5,0 0,14 0,14 -33.52361,0 -33.52362,0 0.27362,17.25 0.27361,17.25 35.75,0.26263 35.75,0.26263 0,13.48737 0,13.48737 -53.83333,0 c -29.60834,0 -54.13334,-0.3 -54.5,-0.66667 z m 119.33333,-72.76413 0,-73.47591 16.60029,-0.29664 c 9.13015,-0.16316 16.90184,-0.0716 17.27042,0.20335 0.36858,0.275 8.33038,9.275 17.6929,20 50.57894,57.93944 58.46966,66.90253 59.4095,67.48338 0.69659,0.43051 1.02689,-13.53717 1.02689,-43.42436 l 0,-44.05902 18.5,0 18.5,0 0,73.5 0,73.5 -15.29705,0 -15.29705,0 -3.54192,-3.75 c -1.94805,-2.0625 -9.14661,-10.275 -15.99678,-18.25 -6.85018,-7.975 -19.65307,-22.825 -28.45086,-33 -8.7978,-10.175 -19.80308,-22.9364 -24.45617,-28.35867 l -8.46017,-9.85867 -0.5,46.35867 -0.5,46.35867 -18.25,0.27256 -18.25,0.27256 0,-73.47592 z m 86,-45.82431 c 0,-0.275 0.675,-1.0602 1.5,-1.74489 0.825,-0.68469 1.5,-1.01989 1.5,-0.74489 0,0.275 -0.675,1.0602 -1.5,1.74489 -0.825,0.68469 -1.5,1.01989 -1.5,0.74489 z M 244.55654,500.75801 c 0.33229,-0.33229 1.19479,-0.36781 1.91667,-0.0789 0.79773,0.31922 0.56078,0.55618 -0.60417,0.60416 -1.05416,0.0434 -1.64479,-0.19293 -1.3125,-0.52522 z m 260,-1 c 0.33229,-0.33229 1.19479,-0.36781 1.91667,-0.0789 0.79773,0.31922 0.56078,0.55618 -0.60417,0.60416 -1.05416,0.0434 -1.64479,-0.19293 -1.3125,-0.52522 z m -13.98482,-8.89583 c 0.008,-2.75 0.20172,-3.75631 0.43157,-2.23625 0.22986,1.52006 0.22371,3.77006 -0.0136,5 -0.23736,1.22994 -0.42542,-0.0138 -0.41792,-2.76375 z m 48.03406,-2.5 c 0,-3.575 0.1815,-5.0375 0.40333,-3.25 0.22182,1.7875 0.22182,4.7125 0,6.5 -0.22183,1.7875 -0.40333,0.325 -0.40333,-3.25 z m -94.24112,1.58333 c -0.0434,-1.05416 0.19293,-1.64479 0.52522,-1.3125 0.33229,0.33229 0.36781,1.19479 0.0789,1.91667 -0.31922,0.79773 -0.55618,0.56078 -0.60416,-0.60417 z m 51.07894,-0.58333 c 0,-1.375 0.22698,-1.9375 0.50439,-1.25 0.27741,0.6875 0.27741,1.8125 0,2.5 -0.27741,0.6875 -0.50439,0.125 -0.50439,-1.25 z m -187.78382,-9.5 c -0.002,-6.05 0.1606,-8.65393 0.36191,-5.78651 0.2013,2.86742 0.20315,7.81742 0.004,11 -0.19905,3.18258 -0.36376,0.83651 -0.36601,-5.21349 z m 267.70488,7.08333 c -0.0434,-1.05416 0.19293,-1.64479 0.52522,-1.3125 0.33229,0.33229 0.36781,1.19479 0.0789,1.91667 -0.31922,0.79773 -0.55618,0.56078 -0.60416,-0.60417 z m -197,-7 c -0.0434,-1.05416 0.19293,-1.64479 0.52522,-1.3125 0.33229,0.33229 0.36781,1.19479 0.0789,1.91667 -0.31922,0.79773 -0.55618,0.56078 -0.60416,-0.60417 z m 58.15305,-5.58333 c 0,-1.925 0.2058,-2.7125 0.45733,-1.75 0.25152,0.9625 0.25152,2.5375 0,3.5 -0.25153,0.9625 -0.45733,0.175 -0.45733,-1.75 z m 53.92589,0 c 0,-1.375 0.22698,-1.9375 0.50439,-1.25 0.27741,0.6875 0.27741,1.8125 0,2.5 -0.27741,0.6875 -0.50439,0.125 -0.50439,-1.25 z m 99.11294,-3.60417 c 0.33229,-0.33229 1.19479,-0.36781 1.91667,-0.0789 0.79773,0.31922 0.56078,0.55618 -0.60417,0.60416 -1.05416,0.0434 -1.64479,-0.19293 -1.3125,-0.52522 z m -126.27083,-0.65094 c 0,-0.275 0.675,-1.0602 1.5,-1.74489 0.825,-0.68469 1.5,-1.01989 1.5,-0.74489 0,0.275 -0.675,1.0602 -1.5,1.74489 -0.825,0.68469 -1.5,1.01989 -1.5,0.74489 z m 76.15789,-6.74489 c 0,-1.375 0.22698,-1.9375 0.50439,-1.25 0.27741,0.6875 0.27741,1.8125 0,2.5 -0.27741,0.6875 -0.50439,0.125 -0.50439,-1.25 z m -165.07894,-0.41667 c -0.0434,-1.05416 0.19293,-1.64479 0.52522,-1.3125 0.33229,0.33229 0.36781,1.19479 0.0789,1.91667 -0.31922,0.79773 -0.55618,0.56078 -0.60416,-0.60417 z m 71,0 c -0.0434,-1.05416 0.19293,-1.64479 0.52522,-1.3125 0.33229,0.33229 0.36781,1.19479 0.0789,1.91667 -0.31922,0.79773 -0.55618,0.56078 -0.60416,-0.60417 z m -162,-3 c -0.0434,-1.05416 0.19292,-1.64479 0.52522,-1.3125 0.33229,0.33229 0.36781,1.19479 0.0789,1.91667 -0.31922,0.79773 -0.55618,0.56078 -0.60416,-0.60417 z m 292.07894,-0.58333 c 0,-1.375 0.22698,-1.9375 0.50439,-1.25 0.27741,0.6875 0.27741,1.8125 0,2.5 -0.27741,0.6875 -0.50439,0.125 -0.50439,-1.25 z m -0.0789,-4.41667 c -0.0434,-1.05416 0.19293,-1.64479 0.52522,-1.3125 0.33229,0.33229 0.36781,1.19479 0.0789,1.91667 -0.31922,0.79773 -0.55618,0.56078 -0.60416,-0.60417 z m -120,-2 c -0.0434,-1.05416 0.19293,-1.64479 0.52522,-1.3125 0.33229,0.33229 0.36781,1.19479 0.0789,1.91667 -0.31922,0.79773 -0.55618,0.56078 -0.60416,-0.60417 z m 68.79345,-1.33333 c -1.24387,-1.58606 -1.2085,-1.62143 0.37756,-0.37756 1.66575,1.30637 2.19548,2.12756 1.37244,2.12756 -0.20765,0 -0.99515,-0.7875 -1.75,-1.75 z m -292.87244,-2.50511 c 0,-0.275 0.675,-1.0602 1.5,-1.74489 0.825,-0.68469 1.5,-1.01989 1.5,-0.74489 0,0.275 -0.675,1.0602 -1.5,1.74489 -0.825,0.68469 -1.5,1.01989 -1.5,0.74489 z m 155,-2 c 0,-0.275 0.675,-1.0602 1.5,-1.74489 0.825,-0.68469 1.5,-1.01989 1.5,-0.74489 0,0.275 -0.675,1.0602 -1.5,1.74489 -0.825,0.68469 -1.5,1.01989 -1.5,0.74489 z m 146.07895,-3.16156 c -0.0434,-1.05416 0.19293,-1.64479 0.52522,-1.3125 0.33229,0.33229 0.36781,1.19479 0.0789,1.91667 -0.31922,0.79773 -0.55618,0.56078 -0.60416,-0.60417 z m -243.07895,-0.97634 c 0,-0.21616 0.69837,-0.661 1.55194,-0.98855 0.88992,-0.34149 1.29132,-0.17385 0.94098,0.39301 -0.58726,0.95021 -2.49292,1.40545 -2.49292,0.59554 z m 114.27083,-4.21116 c 0.33229,-0.33229 1.19479,-0.36781 1.91667,-0.0789 0.79773,0.31922 0.56078,0.55618 -0.60417,0.60416 -1.05416,0.0434 -1.64479,-0.19293 -1.3125,-0.52522 z m 64.72917,-10.86153 c 0,-5.21589 -1.83191,-10.25441 -4.61198,-12.68491 -2.65215,-2.31866 -8.29803,-3.61573 -12.15492,-2.79243 -2.06016,0.43976 -3.52448,0.281 -3.96421,-0.4298 -0.88978,-1.4383 -16.9686,-34.92928 -27.54544,-57.37513 -4.47013,-9.48638 -8.4298,-16.91138 -8.79925,-16.5 -0.36946,0.41139 -8.41997,17.17297 -17.89003,37.24797 -9.47006,20.075 -17.56678,36.86742 -17.99272,37.31649 -0.42594,0.44907 -2.29701,-0.11174 -4.15794,-1.24626 -2.16399,-1.31928 -5.10084,-2.0641 -8.1482,-2.06649 -4.03357,-0.003 -5.33784,0.52153 -8.5,3.41942 -3.68389,3.37604 -3.73531,3.52746 -3.73531,11 0,4.16726 -0.27605,7.57684 -0.61344,7.57684 -0.69519,0 -0.81506,-0.26537 -19.19773,-42.5 -31.72089,-72.87954 -44.68883,-103.14767 -44.68883,-104.30706 0,-0.94792 4.46464,-1.1728 19.14909,-0.96453 l 19.14908,0.27159 17.02158,39.75 c 9.36187,21.8625 17.28228,39.74942 17.60092,39.7487 0.31863,-7.1e-4 8.87803,-18.00071 19.0209,-40 l 18.44156,-39.9987 14.86769,0 14.8677,0 6.26701,13.25 c 3.44686,7.2875 11.80306,25.2875 18.56932,40 6.76627,14.7125 12.58195,26.74778 12.92373,26.74506 0.34178,-0.003 8.23921,-18.00272 17.54985,-40 l 16.92844,-39.99506 19.32156,0 c 10.62686,0 19.32157,0.27087 19.32157,0.60194 0,0.73434 -25.10128,59.08191 -54.80699,127.39806 -8.13476,18.70806 -9.14468,20.52766 -11.55348,20.81642 -2.51592,0.30161 -2.63953,0.10107 -2.63953,-4.28212 z m 140.3309,2.40366 c 2.46162,-3.51445 2.17393,-10.89308 -0.5843,-14.98601 -3.83969,-5.69771 -8.02227,-7.45195 -17.7675,-7.45195 -10.65574,0 -16.68787,2.68945 -21.97746,9.79873 l -3.49835,4.70185 -1.20487,-4.75029 c -1.33872,-5.27802 -6.34215,-10.72119 -10.90854,-11.86728 -1.4893,-0.37379 -4.95265,-0.10429 -7.69633,0.59889 -4.79423,1.22873 -5.06207,1.18582 -6.8773,-1.10169 -13.26886,-16.72117 -18.37153,-31.67864 -17.52812,-51.38021 1.16625,-27.24301 16.72346,-50.48957 42.21187,-63.07564 21.65208,-10.6917 48.95024,-12.30447 73,-4.31283 12.25784,4.07323 21.56288,9.79547 30.58689,18.80976 25.33336,25.30605 29.59991,61.85603 10.61531,90.93752 -13.49302,20.66923 -36.35878,33.96784 -61.6213,35.83865 l -8.4191,0.62347 1.6691,-2.38297 z m 12.94098,-30.94022 c 17.84537,-5.51187 28.8581,-21.49885 28.93042,-41.99774 0.0805,-22.8229 -12.10117,-38.47557 -33.94337,-43.615 -8.00386,-1.8833 -20.98948,-1.40531 -28.99567,1.0673 -7.5686,2.33747 -17.10236,9.23415 -21.55412,15.59215 -5.80222,8.28673 -8.01544,16.86809 -7.54455,29.25256 0.33897,8.91512 0.78873,11.05609 3.56313,16.96152 8.12533,17.29515 24.62194,26.42307 45.48176,25.16602 4.24021,-0.25552 10.5683,-1.34759 14.0624,-2.42681 z m -429.60521,31.33559 c -0.36667,-0.36666 -0.66667,-27.59166 -0.66667,-60.5 l 0,-59.83333 -26.5,0 -26.5,0 0,-13.5 0,-13.5 71.5,0 71.5,0 0,13.5 0,13.5 -26.5,0 -26.5,0 0,60.5 0,60.5 -17.83333,0 c -9.80834,0 -18.13333,-0.3 -18.5,-0.66667 z M 534.85,415.65531 c -0.54268,-1.4252 -0.42782,-1.54006 0.5598,-0.5598 0.68342,0.67834 0.99067,1.48524 0.68278,1.79313 -0.30789,0.30789 -0.86705,-0.24711 -1.24258,-1.23333 z m 163.72172,-57.79313 c 0.008,-2.75 0.20172,-3.75631 0.43157,-2.23625 0.22986,1.52006 0.22371,3.77006 -0.0136,5 -0.23736,1.22994 -0.42542,-0.0137 -0.41792,-2.76375 z m -568.8585,-60.5 c 0,-12.375 0.14355,-17.4375 0.319,-11.25 0.17545,6.1875 0.17545,16.3125 0,22.5 -0.17545,6.1875 -0.319,1.125 -0.319,-11.25 z m 543.44493,1.25 c -1.24387,-1.58606 -1.2085,-1.62143 0.37756,-0.37756 1.66575,1.30637 2.19548,2.12756 1.37244,2.12756 -0.20765,0 -0.99515,-0.7875 -1.75,-1.75 z m -76.60161,-25.85417 c 0.33229,-0.33229 1.19479,-0.36782 1.91667,-0.079 0.79773,0.31923 0.56078,0.55619 -0.60417,0.60417 -1.05416,0.0434 -1.64479,-0.19293 -1.3125,-0.52522 z m 15,0 c 0.33229,-0.33229 1.1948,-0.36782 1.91667,-0.079 0.79773,0.31923 0.56078,0.55619 -0.60417,0.60417 -1.05416,0.0434 -1.64479,-0.19293 -1.3125,-0.52522 z"
         id="path2834"
         style="fill:#fcb001" />
      <path
         d="m 185.75219,670.1283 c -0.26571,-0.69637 -0.36687,-37.94112 -0.2248,-82.76612 l 0.25832,-81.5 22.25,-0.26913 c 12.2375,-0.14802 22.25,-0.4598 22.25,-0.69284 0,-0.23304 -0.98332,-2.09031 -2.18515,-4.12727 -4.37801,-7.42016 -1.77229,-21.43731 5.41751,-29.14291 l 2.08274,-2.23216 -2.58516,-2.03348 c -3.19509,-2.51326 -5.10882,-8.00068 -4.21286,-12.07995 0.94538,-4.30431 5.90032,-9.58528 11.8929,-12.67545 7.03579,-3.62812 18.31501,-3.85057 23.75388,-0.46849 l 3.66386,2.27832 3.72568,-2.52832 c 4.56752,-3.0996 9.59417,-3.26906 14.76482,-0.49775 3.76756,2.01929 3.80245,2.01967 6.28215,0.0691 5.3689,-4.22318 12.70307,-3.52375 17.69584,1.68758 2.81139,2.93446 5.70379,9.95194 5.70379,13.83844 0,3.12674 0.95203,2.99766 5.6125,-0.76099 2.13812,-1.7244 6.73596,-4.48364 10.21742,-6.13166 5.41343,-2.56255 7.11467,-2.9154 11.75,-2.43699 l 5.42008,0.5594 0,-2.92774 c 0,-2.36578 -0.43188,-2.93017 -2.25,-2.94037 -2.4331,-0.0136 0.14541,5.60596 -40.02821,-87.23738 l -15.03644,-34.74996 -26.84267,0 -26.84268,0 0,60 0,60 -27.5,0 -27.5,0 0,-60 0,-60 -26.5,0 -26.5,0 0,-23 0,-23 100.39437,0 100.39436,0 14.34517,33.5 c 7.88983,18.425 14.59819,33.5 14.90746,33.5 0.30927,0 7.01442,-14.0625 14.90034,-31.25 7.88592,-17.1875 14.96047,-32.2625 15.72122,-33.5 1.35993,-2.21218 1.71925,-2.25 21.37483,-2.25 l 19.99165,0 1.7353,2.87063 c 0.95441,1.57884 8.0353,16.63805 15.7353,33.4649 7.7,16.82685 14.29765,30.61007 14.66144,30.62937 0.36379,0.0193 5.47579,-11.3274 11.35999,-25.2149 5.88421,-13.8875 12.29947,-28.9625 14.25614,-33.5 l 3.55758,-8.25 28.77341,0 c 15.82537,0 28.98061,0.3375 29.23387,0.75 0.25325,0.4125 -0.84519,3.62364 -2.44099,7.13586 -3.67901,8.09724 -3.63883,8.80441 0.34856,6.13386 5.82788,-3.90322 19.08671,-9.83244 26.70245,-11.94108 23.04902,-6.38179 51.89428,-4.21639 72.85795,5.46942 21.7771,10.06164 39.03982,29.96781 46.35378,53.45194 2.02992,6.5178 2.33327,9.52987 2.31636,23 -0.0185,14.7222 -0.17293,15.93135 -3.07775,24.09589 -10.25612,28.82673 -31.52268,48.22632 -61.95837,56.51913 -8.95176,2.43909 -11.69128,2.71831 -27.44442,2.79727 -10.40412,0.0521 -17.7979,0.49319 -18.23469,1.08771 -0.40408,0.55 -0.74158,3.09011 -0.75,5.64469 l -0.0153,4.64469 3.75,-0.85574 c 10.82644,-2.47055 20.7294,8.02367 17.32004,18.35413 -2.1197,6.42276 -7.58457,9.71223 -16.13514,9.71223 -2.71419,0 -4.93875,0.3375 -4.94345,0.75 -0.0678,5.94522 -2.4475,25.19085 -4.0613,32.84535 -1.1485,5.44756 -2.46769,12.78721 -2.93153,16.31035 -0.71082,5.39903 -1.3878,6.95015 -4.30785,9.87019 -2.83544,2.83545 -4.46606,3.57885 -8.98061,4.09431 l -5.51612,0.6298 15.15298,17.34742 15.15298,17.34742 0.26217,-37.09742 0.26217,-37.09742 27.49361,0 27.49361,0 -0.25578,82.75 -0.25578,82.75 -21.66931,0.26928 -21.66931,0.26928 -6.00214,-6.76928 c -6.29074,-7.09476 -24.0935,-27.66401 -47.5844,-54.97885 -7.65884,-8.90558 -14.30629,-15.9564 -14.77212,-15.6685 -0.46583,0.2879 -0.81617,17.70324 -0.77853,38.70076 l 0.0684,38.17731 -112.79631,0 -112.79632,0 -0.26225,-37.32925 c -0.14424,-20.53109 -0.64734,-37.18109 -1.11799,-37 -0.47066,0.18109 -6.36742,6.76041 -13.10391,14.62071 l -12.24817,14.29147 -7.07488,-0.29147 -7.07487,-0.29146 -12.05897,-14.15892 c -6.63243,-7.7874 -12.39098,-14.1999 -12.79679,-14.25 -0.4058,-0.0501 -0.8558,16.67142 -1,37.15892 l -0.26214,37.25 -27.2752,0.26612 c -21.28058,0.20763 -27.38138,-0.0122 -27.75832,-1 z m 45.29387,-54.096 c 0.14319,-24.65644 0.62647,-44.68144 1.07396,-44.5 0.44748,0.18143 9.12867,10.00488 19.29153,21.82988 16.91821,19.6852 18.76898,21.52032 21.92604,21.74071 3.34133,0.23325 4.03658,-0.44959 22.44812,-22.04739 l 19,-22.28809 0.5,45.04739 0.5,45.04738 18.5,0 18.5,0 0.25649,-73.25 0.25649,-73.25 -16.64625,0 c -13.08971,0 -16.88345,0.29971 -17.75649,1.4028 -0.9803,1.23861 -16.64578,19.34391 -37.22363,43.02101 -3.78763,4.3581 -7.39309,8.08943 -8.01213,8.29184 -0.61904,0.20242 -4.72235,-3.8133 -9.11847,-8.92381 -27.08246,-31.4835 -37.53615,-43.35025 -38.57723,-43.79184 -0.64833,-0.275 -8.04128,-0.36495 -16.42878,-0.19989 l -15.25,0.30011 0,73.47245 0,73.47245 18.25,-0.27256 18.25,-0.27256 0.26035,-44.82988 z m 245.23965,31.84251 0,-13.48737 -35.75,-0.26263 -35.75,-0.26263 -0.27361,-17.25 -0.27362,-17.25 33.52362,0 33.52361,0 0,-14 0,-14 -33.5,0 -33.5,0 0,-14.98721 0,-14.9872 35.25,-0.2628 35.25,-0.26279 0.27903,-13.25 0.27902,-13.25 -54.02902,0 -54.02903,0 0,72.83333 c 0,40.05834 0.3,73.13334 0.66667,73.5 0.36666,0.36667 24.89166,0.66667 54.5,0.66667 l 53.83333,0 0,-13.48737 z m 48,-33.3713 0.5,-46.35867 8.46017,9.85867 c 4.65309,5.42227 15.65837,18.18367 24.45617,28.35867 8.79779,10.175 21.60068,25.025 28.45086,33 6.85017,7.975 14.04873,16.1875 15.99678,18.25 l 3.54192,3.75 15.29705,0 15.29705,0 0,-73.5 0,-73.5 -18.5,0 -18.5,0 0,44.05902 c 0,29.88719 -0.3303,43.85487 -1.02689,43.42436 -0.93984,-0.58085 -8.83056,-9.54394 -59.4095,-67.48338 -9.36252,-10.725 -17.32432,-19.725 -17.6929,-20 -0.36858,-0.275 -8.14027,-0.36651 -17.27042,-0.20335 l -16.60029,0.29664 0,73.47591 0,73.47592 18.25,-0.27256 18.25,-0.27256 0.5,-46.35867 z m -46,2.35867 0,-8.5 -32,0 -32,0 0,8.5 0,8.5 32,0 32,0 0,-8.5 z m 0,-60 0,-6.5 -32,0 -32,0 0,6.5 0,6.5 32,0 32,0 0,-6.5 z m -185.93182,-22.9971 17.29957,-19.99711 -4.74657,-0.67896 c -5.81993,-0.83251 -9.15365,-2.9201 -11.78494,-7.37981 l -2.00945,-3.40577 -3.20119,3.39425 c -3.82761,4.05845 -9.45861,5.49808 -14.06664,3.59628 -3.88092,-1.60171 -14.97579,-1.61106 -21.61549,-0.0182 -5.10578,1.22486 -12.68689,0.95268 -16.42895,-0.58983 -2.36951,-0.97673 -2.68007,-1.36087 20.98388,25.95539 9.34911,10.79207 17.28455,19.50921 17.6343,19.37141 0.34974,-0.13779 8.42071,-9.24923 17.93548,-20.24763 z M 568.5204,532.9774 c 0.40408,-0.61337 0.74389,-2.24022 0.75514,-3.61522 0.0112,-1.375 1.11231,-7.675 2.44682,-14 2.74949,-13.03147 4.56335,-27.87405 4.56335,-37.34131 l 0,-6.42013 9.39654,-0.41097 c 5.7904,-0.25326 10.01191,-0.92168 11,-1.74173 2.16123,-1.79366 2.025,-5.39439 -0.28311,-7.48321 -1.69269,-1.53186 -2.77836,-1.58865 -10.56423,-0.55254 -4.7727,0.63513 -8.92148,0.91094 -9.2195,0.61293 -1.0345,-1.03451 -0.27832,-18.19456 1.05207,-23.87455 1.53542,-6.55534 3.5603,-10.0492 7.20997,-12.44055 2.37212,-1.55428 2.93723,-1.56053 7.55573,-0.0836 4.72147,1.50986 5.09239,1.49579 6.84798,-0.2598 2.29919,-2.29919 1.6169,-5.55722 -1.60601,-7.66895 -3.05325,-2.00056 -13.17295,-2.01879 -16.99572,-0.0306 -8.80139,4.57748 -12.97366,15.17917 -14.10075,35.82979 l -0.58044,10.63477 -3.64779,1.09291 c -2.00629,0.60109 -4.95276,2.45499 -6.54771,4.11976 -2.49078,2.59982 -2.76458,3.41169 -1.94066,5.75451 0.5696,1.61964 2.11139,3.13282 3.79554,3.7251 2.4848,0.87386 3.12722,0.65921 5.18421,-1.73218 1.29137,-1.50131 2.59453,-2.72965 2.89591,-2.72965 1.02564,0 0.55224,13.54161 -0.87585,25.05371 -1.60494,12.93775 -4.11486,24.68551 -5.67595,26.56651 -1.80166,2.17086 -0.61915,6.72387 2.09977,8.08472 2.6203,1.3115 5.98687,0.80441 7.23469,-1.08972 z m -18.23469,-4.68096 c 0,-1.68616 0.53109,-4.04866 1.1802,-5.25 2.78237,-5.14947 4.0547,-16.10942 1.36489,-11.75722 -0.31512,0.50988 -2.11239,1.43511 -3.99393,2.05608 -4.63484,1.52963 -10.59173,-0.14622 -14.23304,-4.0042 -2.63844,-2.79543 -6.88556,-4.16885 -6.15145,-1.98923 0.57428,1.70509 20.04986,24.01031 20.96435,24.01031 0.47794,0 0.86898,-1.37958 0.86898,-3.06574 z m -198.5,-23.93426 c -0.33992,-0.55 -1.23992,-1 -2,-1 -0.76008,0 -1.66008,0.45 -2,1 -0.35191,0.5694 0.50929,1 2,1 1.49071,0 2.35191,-0.4306 2,-1 z m 32.5,0.45951 c 0,-0.29727 -1.0125,-1.9116 -2.25,-3.5874 -1.88183,-2.54835 -2.24463,-4.30073 -2.21716,-10.70951 0.0354,-8.26619 2.14689,-13.9498 7.17857,-19.32315 2.49053,-2.65965 2.49067,-2.66093 0.40033,-3.77965 -4.28957,-2.29571 -6.31458,-9.76589 -4.17373,-15.39675 2.56657,-6.75059 13.56357,-12.79251 23.38703,-12.84918 13.06256,-0.0754 22.42323,8.92135 25.68482,24.68613 2.13939,10.34064 -0.29609,28.59817 -5.03569,37.75 l -1.94207,3.75 4.95611,0 4.95611,0 -0.0954,-5.25 c -0.15859,-8.72706 4.59719,-65.31011 6.22335,-74.04375 0.88967,-4.77823 0.84518,-4.89324 -13.73277,-35.5 -8.04393,-16.88844 -14.78408,-30.89182 -14.97811,-31.11862 -0.36563,-0.42739 -8.83404,16.95162 -25.05211,51.41237 l -9.41249,20 -2.07864,18.34588 -2.07864,18.34589 2.13025,3.79027 c 3.61791,6.43721 2.75785,13.33635 -2.37082,19.01796 -1.24119,1.375 -2.545,4.12572 -2.89737,6.11271 -0.35237,1.98699 -1.53187,4.41924 -2.62112,5.40499 -1.08924,0.98575 -1.98044,2.17253 -1.98044,2.63729 0,0.46475 4.05,0.84501 9,0.84501 4.95,0 9,-0.24322 9,-0.54049 z m 93,0.0976 c 0,-0.24356 -0.99478,-2.12887 -2.21063,-4.18957 -1.97084,-3.34033 -2.18474,-4.94252 -1.97198,-14.7711 l 0.23865,-11.02436 -2.98189,2.85683 c -4.36057,4.17769 -5.95717,8.31815 -6.42145,16.65269 -0.22728,4.08009 -0.74027,8.20585 -1.13996,9.16835 -0.65487,1.57699 0.0253,1.75 6.88027,1.75 4.18385,0 7.60699,-0.19928 7.60699,-0.44284 z m -167.97379,-2.60613 c 0.77028,-1.43928 0.79033,-3.00146 0.0674,-5.25 -0.56605,-1.76057 -1.22839,-10.62603 -1.47186,-19.70103 -0.59872,-22.31587 -2.57099,-30 -7.70001,-30 -2.7639,0 -7.50754,4.55867 -12.04584,11.57615 -2.28491,3.53312 -4.29055,6.42385 -4.45696,6.42385 -0.16642,0 -0.0329,-3.21672 0.29671,-7.14827 0.52131,-6.21819 0.35876,-7.32415 -1.24931,-8.5 -2.70531,-1.97818 -6.23343,-1.65545 -7.48586,0.68475 -1.52693,2.85309 -3.18777,45.70768 -1.86705,48.17546 0.73977,1.38227 1.88734,1.82026 4.1829,1.59646 3.05122,-0.29746 3.29694,-0.68094 6.92564,-10.8084 4.29573,-11.9891 10.44395,-25 11.8136,-25 1.41059,0 1.79301,3.14794 2.42968,20 0.56587,14.97804 0.6708,15.57577 3.11593,17.75 3.15007,2.80106 6.01217,2.87834 7.44503,0.20103 z m 237.82058,0.29902 c 0.50443,-0.9625 1.14959,-10.75 1.43367,-21.75 0.33343,-12.91057 1.46312,-27.38021 3.18696,-40.82032 2.49338,-19.43985 2.56227,-20.98543 1.0389,-23.31038 -2.17284,-3.31618 -6.48684,-2.92747 -8.23711,0.74219 -1.49476,3.13394 -3.84955,27.1829 -5.25538,53.67206 -1.02168,19.25094 -0.61847,29.60451 1.24491,31.96645 1.44628,1.83324 5.52756,1.52349 6.58805,-0.5 z m -95.3121,-0.65171 c 1.5448,-1.12958 2.0409,-3.15454 2.55542,-10.43057 0.78049,-11.0371 2.87784,-15.10207 12.37664,-23.98773 6.79878,-6.35993 10.80217,-8.30907 12.85647,-6.25946 0.76697,0.76523 1.3509,7.09136 1.67678,18.16583 0.53234,18.09079 0.76619,18.86411 5.71482,18.89833 3.36677,0.0233 4.28705,-2.92588 4.26537,-13.66895 -0.039,-19.34846 -2.93766,-30.56437 -8.49958,-32.88829 -5.8525,-2.44533 -12.17971,0.30544 -21.84346,9.49648 l -5.86285,5.57607 0.68414,-11 c 0.37627,-6.05 1.08816,-14.15 1.58197,-18 1.32329,-10.31702 1.16444,-14.15229 -0.66179,-15.97852 -2.18905,-2.18905 -4.59871,-1.54927 -6.12005,1.62491 -1.64635,3.43498 -4.12891,26.66647 -5.32746,49.85361 -0.52595,10.175 -1.23036,20.491 -1.56536,22.92445 -0.49228,3.57588 -0.26142,4.67867 1.20371,5.75 2.33157,1.70489 4.56287,1.68049 6.96523,-0.0762 z m -199.96535,-2.71012 c 4.4716,-1.67304 6.13915,-1.88639 8.02567,-1.02684 3.61745,1.64822 5.23965,0.42846 6.93603,-5.2153 5.61072,-18.66654 2.94183,-36.01185 -6.53104,-42.44583 -2.91483,-1.97976 -4.44622,-2.31103 -9.15957,-1.98143 -9.72821,0.68028 -16.93682,7.28484 -12.64043,11.58123 1.81217,1.81217 3.7019,1.46033 6.98237,-1.3 7.17319,-6.03584 13.512,-0.78327 15.38672,12.75 0.7158,5.16728 -0.16115,5.96324 -3.05139,2.76956 -7.37876,-8.15344 -23.47976,2.66548 -23.50832,15.79618 -0.012,5.50681 1.35192,8.00069 5.31936,9.7265 4.3008,1.87082 5.69074,1.79655 12.2406,-0.65407 z m -9.21461,-8.40613 c -0.80446,-2.0964 1.48718,-7.2579 4.00559,-9.02187 3.2133,-2.25068 5.43786,-1.75112 7.17683,1.61166 1.85798,3.59294 1.14767,4.90079 -3.98428,7.33606 -4.21057,1.99804 -6.45101,2.02112 -7.19814,0.0741 z m 99.14184,4.89755 c 10.88636,-4.82193 10.85535,-4.8163 12.00343,-2.17779 1.27294,2.92548 5.42631,3.61946 7.19397,1.20204 0.71832,-0.98235 1.30603,-3.67631 1.30603,-5.98656 0,-3.63342 0.33359,-4.28419 2.47114,-4.82068 1.35912,-0.34112 2.93418,-1.48544 3.50014,-2.54293 1.27704,-2.38618 -0.12801,-6.5161 -2.53051,-7.43803 -1.50883,-0.57899 -1.63361,-1.69504 -1.0494,-9.38638 0.36467,-4.80109 1.57817,-16.07897 2.69666,-25.06195 1.82065,-14.62218 1.87655,-16.57242 0.53377,-18.62177 -1.59595,-2.43573 -5.67961,-3.74588 -7.72858,-2.47954 -0.67985,0.42016 -1.21134,2.4897 -1.1811,4.59897 0.10338,7.21116 -3.0392,40.33503 -3.82673,40.33503 -0.43231,0 -1.14587,-0.62055 -1.5857,-1.37899 -1.5177,-2.61713 -7.77687,-5.61351 -11.73397,-5.61727 -5.47829,-0.005 -12.15266,3.48702 -18.21457,9.53041 -10.22839,10.19714 -13.46374,22.6133 -7.68271,29.48366 1.46764,1.74419 3.60514,3.57575 4.75,4.07012 3.65036,1.57631 12.76904,-0.028 21.07813,-3.70834 z m -17.92009,-5.94597 c -2.47151,-2.47151 -1.49292,-7.53526 2.63986,-13.6601 3.58267,-5.30957 10.84539,-10.77352 14.32025,-10.77352 3.69199,0 7.30574,3.72996 8.93759,9.225 0.83546,2.81332 1.40806,5.19702 1.27242,5.29711 -0.13563,0.10009 -4.12798,2.53385 -8.87189,5.40836 -9.78392,5.92845 -15.47289,7.32849 -18.29823,4.50315 z m 82.54188,8.42012 c 3.75048,-1.61342 5.2737,-1.86168 6.13538,-1 2.11776,2.11776 5.43389,1.31602 6.63327,-1.60374 1.86373,-4.53703 4.07709,-16.3997 4.09563,-21.95078 0.0391,-11.70551 -4.2697,-21.32782 -11.14168,-24.88146 -8.34767,-4.31675 -25.75529,4.16083 -20.80113,10.13023 1.54906,1.8665 5.85838,1.88086 6.57173,0.0219 0.30183,-0.78657 1.92065,-1.90836 3.59736,-2.49286 6.4439,-2.24636 11.73896,4.01033 12.60078,14.8892 l 0.43838,5.53378 -2.46391,-2.27388 c -6.57765,-6.07034 -15.71567,-3.91745 -21.14702,4.98218 -8.82581,14.46167 0.13084,25.24899 15.48121,18.64544 z m -10.59116,-7.80972 c -1.63259,-2.64159 4.58296,-11.04402 8.16963,-11.04402 1.21748,0 4.30317,4.92542 4.30317,6.86878 0,2.93072 -10.97201,6.60357 -12.4728,4.17524 z m 119.11302,7.28577 c 3.19404,-1.17082 4.62239,-1.25961 6.25,-0.38854 5.87758,3.14558 9.54568,-6.01681 9.58473,-23.94125 0.022,-10.09022 -0.26389,-12.08679 -2.33188,-16.28661 -3.13668,-6.37018 -8.09813,-9.71339 -14.41504,-9.71339 -5.53156,0 -11.94064,2.86865 -14.23609,6.37196 -1.47615,2.25289 -1.15636,5.62804 0.53326,5.62804 0.44617,0 1.43591,0.23971 2.19942,0.5327 0.7635,0.29298 2.71281,-0.60647 4.33179,-1.99878 3.32634,-2.86064 6.99147,-3.23933 10.12299,-1.04592 2.55209,1.78755 5.3206,9.4157 5.3206,14.66 l 0,3.79173 -3.63955,-2.46987 c -2.00211,-1.35867 -5.08488,-2.46986 -6.85211,-2.46986 -10.84974,0 -20.59055,18.96133 -13.57637,26.42758 3.59108,3.82253 8.08025,4.06494 16.70825,0.90221 z m -10.64022,-9.25306 c 0,-3.46143 4.35045,-9.07673 7.03219,-9.07673 2.04872,0 4.96781,3.54815 4.96781,6.03837 0,1.85852 -6.80416,5.96163 -9.88615,5.96163 -1.66973,0 -2.11385,-0.61419 -2.11385,-2.92327 z m -6.17465,-44.4592 c 9.75679,-6.56583 20.49828,-7.20184 29.29344,-1.73447 2.75776,1.71432 5.2092,3.11694 5.44766,3.11694 0.23845,0 0.46347,-2.3625 0.50005,-5.25 0.0366,-2.8875 0.63684,-9.525 1.33394,-14.75 l 1.26745,-9.5 -4.37842,-4.90762 c -7.8734,-8.82502 -14.87852,-22.6681 -17.37396,-34.33328 -0.6776,-3.16751 -1.51848,-6.09429 -1.86863,-6.50397 -0.46151,-0.53998 -27.22154,59.24767 -31.7762,70.99487 -0.30292,0.78127 0.39918,1.25617 1.87233,1.26645 1.86835,0.013 5.31975,1.61918 10.5065,4.88929 0.0822,0.0518 2.41136,-1.42785 5.17584,-3.28821 z m -26.82535,-0.16345 2.5,-1.47504 -3.42299,0.26048 c -1.88264,0.14326 -3.60764,0.82298 -3.83333,1.51048 -0.54619,1.66381 1.66837,1.52603 4.75632,-0.29592 z m 11.19301,-32.45408 c 29.70571,-68.31615 54.80699,-126.66372 54.80699,-127.39806 0,-0.33107 -8.69471,-0.60194 -19.32157,-0.60194 l -19.32156,0 -16.92844,39.99506 c -9.31064,21.99728 -17.20807,39.99728 -17.54985,40 -0.34178,0.003 -6.15746,-12.03256 -12.92373,-26.74506 -6.76626,-14.7125 -15.12246,-32.7125 -18.56932,-40 l -6.26701,-13.25 -14.8677,0 -14.86769,0 -18.44156,39.9987 c -10.14287,21.99929 -18.70227,39.99929 -19.0209,40 -0.31864,7.2e-4 -8.23905,-17.8862 -17.60092,-39.7487 l -17.02158,-39.75 -19.14908,-0.27159 c -14.68445,-0.20827 -19.14909,0.0166 -19.14909,0.96453 0,1.15939 12.96794,31.42752 44.68883,104.30706 18.38267,42.23463 18.50254,42.5 19.19773,42.5 0.33739,0 0.61344,-3.40958 0.61344,-7.57684 0,-7.47254 0.0514,-7.62396 3.73531,-11 3.16216,-2.89789 4.46643,-3.42259 8.5,-3.41942 3.04736,0.002 5.98421,0.74721 8.1482,2.06649 1.86093,1.13452 3.732,1.69533 4.15794,1.24626 0.42594,-0.44907 8.52266,-17.24149 17.99272,-37.31649 9.47006,-20.075 17.52057,-36.83658 17.89003,-37.24797 0.36945,-0.41138 4.32912,7.01362 8.79925,16.5 10.57684,22.44585 26.65566,55.93683 27.54544,57.37513 0.43973,0.7108 1.90405,0.86956 3.96421,0.4298 9.55777,-2.04021 16.7669,4.61446 16.7669,15.47734 0,4.38319 0.12361,4.58373 2.63953,4.28212 2.4088,-0.28876 3.41872,-2.10836 11.55348,-20.81642 z M 631.115,429.37369 c 19.31372,-5.43491 35.33916,-17.01662 45.87291,-33.1527 15.2387,-23.34335 15.69008,-51.62766 1.21548,-76.16466 -5.38895,-9.13522 -17.38334,-21.15417 -26.41768,-26.47177 -14.66729,-8.63314 -34.27242,-12.98872 -53.5,-11.88584 -36.57822,2.0981 -64.34357,22.42504 -75.20902,55.06034 -2.83067,8.50214 -3.50027,25.61931 -1.39138,35.56794 2.28959,10.80104 8.0785,22.40781 16.41665,32.91539 1.81523,2.28751 2.08307,2.33042 6.8773,1.10169 2.74368,-0.70318 6.20703,-0.97268 7.69633,-0.59889 4.56639,1.14609 9.56982,6.58926 10.90854,11.86728 l 1.20487,4.75029 3.49835,-4.70185 c 5.28959,-7.10928 11.32172,-9.79873 21.97746,-9.79873 9.74523,0 13.92781,1.75424 17.7675,7.45195 2.75823,4.09293 3.04592,11.47156 0.5843,14.98601 l -1.6691,2.38297 8.4191,-0.62347 c 4.63051,-0.34291 11.71728,-1.55159 15.74839,-2.68595 z m -36.80087,-28.09061 c -14.24094,-2.52002 -26.18118,-11.63669 -32.3007,-24.66237 -2.7744,-5.90543 -3.22416,-8.0464 -3.56313,-16.96152 -0.47089,-12.38447 1.74233,-20.96583 7.54455,-29.25256 4.45176,-6.358 13.98552,-13.25468 21.55412,-15.59215 8.00619,-2.47261 20.99181,-2.9506 28.99567,-1.0673 21.8422,5.13943 34.02389,20.7921 33.94337,43.615 -0.0914,25.91039 -16.46159,42.82573 -42.99282,44.42455 -4.24021,0.25552 -10.17169,0.0289 -13.18106,-0.50365 z m 26.77708,-10.72895 c 8.00975,-3.08279 13.57359,-8.18472 17.39471,-15.9506 3.10713,-6.3148 3.29824,-7.3204 3.27318,-17.22385 -0.0239,-9.42755 -0.31404,-11.10845 -2.80009,-16.21986 -6.44173,-13.24444 -18.70231,-19.47447 -36.52644,-18.56036 -12.09188,0.62013 -18.66289,3.33013 -25.2504,10.41369 -6.88258,7.40085 -9.18728,14.39359 -8.68422,26.34903 0.74089,17.60772 8.62462,27.92179 24.812,32.4609 7.36257,2.06453 20.70342,1.45517 27.78126,-1.26895 z m -392.8055,-19.69195 0,-60.5 26.5,0 26.5,0 0,-13.5 0,-13.5 -71.5,0 -71.5,0 0,13.5 0,13.5 26.5,0 26.5,0 0,59.83333 c 0,32.90834 0.3,60.13334 0.66667,60.5 0.36667,0.36667 8.69166,0.66667 18.5,0.66667 l 17.83333,0 0,-60.5 z"
         id="path2832"
         style="fill:#0b0907" />
    </g>
  </g>
</svg>
