<?xml version="1.0" standalone="no"?>
<!DOCTYPE svg PUBLIC "-//W3C//DTD SVG 20010904//EN"
 "http://www.w3.org/TR/2001/REC-SVG-20010904/DTD/svg10.dtd">
<svg version="1.0" xmlns="http://www.w3.org/2000/svg"
 width="1816.000000pt" height="1829.000000pt" viewBox="0 0 1816.000000 1829.000000"
 preserveAspectRatio="xMidYMid meet">
<metadata>
Created by potrace 1.13, written by Peter Selinger 2001-2015
</metadata>
<g transform="translate(0.000000,1829.000000) scale(0.100000,-0.100000)"
fill="#000000" stroke="none">
<path d="M343 18078 c35 -40 434 -498 886 -1018 452 -520 839 -964 862 -987
24 -25 74 -60 125 -85 79 -39 93 -42 180 -46 131 -6 261 24 344 79 66 45 142
147 172 234 22 63 23 167 2 231 -8 27 -17 59 -19 71 -2 16 -657 1103 -753
1251 l-14 22 665 0 665 0 828 -1065 c479 -617 834 -1065 843 -1065 9 0 499 40
1090 90 l1073 89 52 45 c28 24 524 463 1101 975 l1050 931 694 0 c400 0 691
-4 685 -9 -5 -5 -178 -160 -384 -345 -206 -186 -392 -360 -413 -388 -120 -163
-78 -397 93 -517 32 -23 60 -44 62 -49 10 -23 178 -136 258 -174 97 -46 294
-27 410 39 28 16 321 301 755 734 l710 709 1699 -2 1699 -3 -383 -255 c-211
-140 -409 -276 -442 -301 -117 -90 -164 -190 -156 -334 4 -71 10 -93 46 -167
23 -47 75 -136 117 -198 41 -62 75 -116 75 -121 0 -5 24 -41 53 -80 60 -82
141 -141 217 -159 80 -19 187 -9 257 25 32 16 520 296 1086 622 565 326 1029
593 1032 593 3 0 5 -254 5 -564 l0 -563 -2608 -1523 c-1434 -837 -2631 -1538
-2659 -1557 -65 -43 -127 -133 -143 -206 -7 -32 -11 -101 -8 -172 4 -108 7
-128 37 -196 41 -95 182 -280 253 -332 72 -52 142 -71 243 -64 45 2 92 10 103
16 l22 12 -2 -602 -3 -601 -165 -61 c-91 -33 -167 -63 -170 -66 -3 -3 -27 -17
-54 -31 -28 -14 -71 -46 -97 -72 -109 -109 -133 -232 -81 -423 68 -253 89
-308 152 -402 90 -135 186 -193 320 -193 40 0 636 133 1934 430 1032 237 1885
430 1895 430 28 0 132 56 178 95 60 51 99 138 113 250 8 60 10 261 8 610 l-3
520 -26 55 c-37 79 -81 125 -156 162 -56 27 -75 32 -141 31 -69 0 -95 -7 -247
-63 -93 -34 -187 -68 -208 -76 l-37 -13 2 789 3 790 770 374 770 373 3 -2496
c1 -1372 -1 -2498 -5 -2502 -5 -3 -332 -54 -728 -113 -808 -121 -946 -148
-1036 -208 -70 -47 -133 -135 -149 -211 -8 -36 -10 -206 -8 -557 l3 -505 28
-57 c36 -74 101 -139 175 -175 l57 -28 833 -3 832 -2 0 -771 0 -770 -32 6
c-18 3 -940 121 -2048 262 -1382 176 -2046 257 -2115 257 -90 1 -106 -2 -157
-27 -74 -36 -139 -101 -175 -175 l-28 -57 0 -315 0 -315 28 -57 c53 -107 161
-187 332 -244 66 -22 4503 -1134 4525 -1134 7 0 10 2281 10 6870 l0 6870
-8866 0 -8866 0 65 -72z m5338 -638 c183 -214 338 -390 344 -390 6 0 186 34
399 75 l388 74 61 55 c34 30 190 171 347 315 l285 260 192 1 192 0 -501 -687
c-275 -379 -501 -689 -502 -690 -1 -1 -227 -9 -501 -18 l-499 -15 -201 198
c-110 109 -431 426 -714 705 l-514 507 446 0 445 0 333 -390z m874 305 c-59
-47 -113 -85 -119 -85 -6 0 -99 32 -206 70 -107 39 -195 70 -196 70 -1 0 -4 7
-8 15 -5 13 34 15 316 15 l321 0 -108 -85z m7616 -3885 c20 -6 44 -18 53 -29
15 -16 15 -20 1 -31 -12 -10 -22 -9 -55 4 -29 11 -46 13 -65 6 -46 -17 -27
-42 47 -60 64 -17 98 -49 98 -95 0 -58 -35 -85 -109 -85 -49 0 -65 4 -90 26
l-31 26 22 17 c20 17 22 17 40 -1 21 -21 87 -25 106 -6 22 22 13 45 -20 58
-115 41 -123 46 -133 73 -11 34 8 75 45 94 30 15 44 16 91 3z m1119 -25 c0
-25 -1 -25 -80 -25 l-80 0 0 -30 c0 -29 2 -30 45 -30 41 0 45 -2 45 -25 0 -23
-4 -25 -45 -25 l-45 0 0 -65 0 -65 -30 0 -30 0 0 145 0 145 110 0 110 0 0 -25z
m-839 -64 c20 -16 21 -21 10 -34 -10 -13 -17 -14 -37 -5 -54 25 -103 -37 -69
-88 16 -25 62 -33 81 -14 7 7 16 4 28 -9 17 -19 17 -20 -8 -36 -32 -21 -89
-22 -121 -1 -34 22 -51 83 -35 130 22 69 100 99 151 57z m210 -10 c27 -28 29
-34 29 -109 l0 -80 -75 -1 c-66 -1 -76 2 -90 21 -40 58 -4 118 71 118 41 0 45
2 33 16 -9 12 -23 14 -50 10 -28 -5 -38 -2 -43 10 -9 23 -8 24 17 34 43 17 77
11 108 -19z m220 0 c27 -28 29 -34 29 -110 0 -80 0 -81 -25 -81 -24 0 -25 2
-25 69 0 50 -4 74 -16 85 -18 19 -20 19 -45 6 -16 -9 -19 -22 -19 -85 0 -73
-1 -75 -25 -75 l-25 0 0 105 0 106 35 -3 c19 -1 37 1 41 5 15 15 47 6 75 -22z
m590 19 c27 -15 49 -63 49 -109 0 -74 -66 -121 -135 -95 -25 10 -45 58 -45
109 0 78 69 128 131 95z m225 -1 c11 -19 -6 -47 -26 -42 -37 10 -50 -14 -50
-93 0 -72 -1 -74 -25 -74 l-25 0 0 109 0 109 60 0 c33 0 63 -4 66 -9z m114
-1599 l0 -1280 -1280 0 -1280 0 0 1280 0 1280 1280 0 1280 0 0 -1280z m-1910
-1505 l0 -165 -30 0 -30 0 0 150 0 149 28 15 c15 8 28 15 30 16 1 0 2 -74 2
-165z m416 65 c19 0 24 -5 24 -25 0 -20 -5 -25 -25 -25 -24 0 -25 -2 -25 -66
0 -62 1 -66 21 -61 18 5 20 2 14 -21 -8 -34 -9 -34 -41 -34 -41 0 -54 26 -54
109 0 66 -2 73 -20 73 -15 0 -20 7 -20 25 0 18 5 25 20 25 16 0 20 7 20 35 0
27 6 37 28 49 l27 14 3 -49 c3 -45 5 -49 28 -49z m113 86 c15 -18 3 -46 -20
-46 -25 0 -35 26 -19 45 15 19 24 19 39 1z m-922 -28 c25 -25 25 -26 5 -37
-15 -8 -30 -6 -61 6 -33 13 -46 14 -66 5 -49 -22 -33 -40 65 -71 80 -26 109
-68 89 -128 -22 -68 -145 -90 -208 -37 -36 30 -38 39 -11 54 16 9 26 7 47 -9
44 -36 123 -20 123 23 0 21 -22 34 -92 56 -73 22 -85 32 -94 78 -5 26 -1 36
25 63 30 30 35 31 92 27 48 -3 65 -10 86 -30z m231 -64 c75 -52 67 -186 -14
-220 -32 -14 -39 -13 -72 3 -45 22 -62 53 -62 117 0 41 5 53 34 82 38 38 77
44 114 18z m900 0 c75 -52 67 -186 -14 -220 -32 -14 -39 -13 -72 3 -45 22 -62
53 -62 117 0 41 5 53 34 82 38 38 77 44 114 18z m236 6 c40 -15 56 -58 56
-150 l0 -80 -30 0 -30 0 0 78 c0 83 -9 102 -47 102 -32 0 -43 -28 -43 -109 0
-69 -1 -71 -25 -71 l-25 0 0 116 0 117 33 -6 c19 -3 40 -1 48 4 18 11 32 11
63 -1z m-862 -81 c2 -65 7 -84 21 -93 12 -8 22 -8 35 0 13 9 18 28 20 93 l3
81 29 0 30 0 0 -114 0 -114 -75 0 c-110 -1 -119 9 -123 132 l-4 96 31 0 30 0
3 -81z m428 -34 l0 -115 -30 0 -30 0 0 115 0 115 30 0 30 0 0 -115z"/>
<path d="M14578 13662 c-22 -4 -24 -40 -3 -48 26 -10 65 5 65 25 0 19 -29 30
-62 23z"/>
<path d="M15406 13727 c-23 -17 -19 -85 7 -101 42 -26 79 60 42 98 -20 19 -26
20 -49 3z"/>
<path d="M13400 13040 l0 -270 270 0 270 0 0 270 0 270 -270 0 -270 0 0 -270z
m460 0 l0 -190 -190 0 -190 0 0 190 0 190 190 0 190 0 0 -190z"/>
<path d="M13560 13035 l0 -115 115 0 115 0 0 115 0 115 -115 0 -115 0 0 -115z"/>
<path d="M14020 13195 l0 -115 155 0 155 0 0 35 c0 34 -1 35 -40 35 l-40 0 0
40 0 40 115 0 115 0 0 -75 0 -75 -40 0 -40 0 0 -40 0 -40 -155 0 -155 0 0 -40
c0 -39 -1 -40 -35 -40 l-35 0 0 -150 0 -150 35 0 c34 0 35 -1 35 -40 l0 -40
40 0 40 0 0 -40 0 -40 -115 0 -115 0 0 40 0 40 -40 0 -40 0 0 -40 0 -40 -75 0
-75 0 0 -40 0 -40 -155 0 -155 0 0 -35 c0 -34 1 -35 40 -35 l40 0 0 -40 0 -40
75 0 75 0 0 40 0 40 40 0 40 0 0 -40 0 -40 75 0 75 0 0 -40 0 -40 80 0 80 0 0
-35 0 -35 -80 0 -80 0 0 -40 0 -40 40 0 40 0 0 -40 0 -40 -40 0 c-39 0 -40 -1
-40 -35 0 -34 1 -35 40 -35 l40 0 0 -40 0 -40 -40 0 -40 0 0 -40 0 -40 40 0
40 0 0 40 0 40 40 0 40 0 0 -75 0 -75 35 0 35 0 0 115 0 115 -35 0 -35 0 0
115 0 115 35 0 35 0 0 -80 0 -80 80 0 80 0 0 -35 c0 -34 -1 -35 -40 -35 l-40
0 0 -80 0 -80 40 0 40 0 0 40 0 40 40 0 40 0 0 -155 0 -155 -155 0 -155 0 0
-115 0 -115 35 0 35 0 0 -75 0 -75 195 0 195 0 0 40 0 40 40 0 c39 0 40 1 40
35 0 33 2 35 35 35 l35 0 0 -75 0 -75 80 0 80 0 0 40 c0 39 1 40 35 40 33 0
35 2 35 35 0 34 1 35 40 35 l40 0 0 40 0 40 40 0 40 0 0 -75 0 -75 35 0 c34 0
35 -1 35 -40 l0 -40 40 0 40 0 0 115 0 115 40 0 40 0 0 -115 0 -115 115 0 115
0 0 40 c0 39 1 40 35 40 l35 0 0 75 0 75 -35 0 -35 0 0 75 0 75 -40 0 -40 0 0
40 0 40 -40 0 -40 0 0 40 0 40 40 0 c39 0 40 1 40 35 0 34 1 35 40 35 39 0 40
-1 40 -35 l0 -35 75 0 75 0 0 35 0 35 -75 0 -75 0 0 40 c0 39 1 40 35 40 34 0
35 1 35 40 0 39 -1 40 -35 40 -34 0 -35 -1 -35 -40 l0 -40 -40 0 -40 0 0 75 0
75 115 0 115 0 0 80 0 80 -40 0 -40 0 0 75 0 75 40 0 40 0 0 75 0 75 -40 0
-40 0 0 40 c0 39 -1 40 -35 40 l-35 0 0 80 0 80 35 0 c34 0 35 -1 35 -40 l0
-40 40 0 40 0 0 75 0 75 -115 0 -115 0 0 -35 0 -35 -75 0 -75 0 0 35 0 35
-115 0 -115 0 0 115 0 115 -40 0 -40 0 0 80 0 80 40 0 c39 0 40 1 40 35 0 34
-1 35 -40 35 l-40 0 0 40 0 40 40 0 40 0 0 40 0 40 -40 0 -40 0 0 -40 0 -40
-40 0 -40 0 0 40 0 40 -115 0 -115 0 0 -40 0 -40 -75 0 -75 0 0 40 0 40 -155
0 -155 0 0 -80 0 -80 -40 0 -40 0 0 80 0 80 -35 0 -35 0 0 -115z m840 -5 c0
-39 -1 -40 -35 -40 -33 0 -35 -2 -35 -35 0 -33 2 -35 35 -35 34 0 35 -1 35
-40 0 -39 -1 -40 -35 -40 l-35 0 0 -115 0 -115 35 0 35 0 0 75 0 75 40 0 40 0
0 -75 0 -75 -40 0 -40 0 0 -40 c0 -39 -1 -40 -35 -40 -33 0 -35 -2 -35 -35 l0
-35 150 0 150 0 0 -120 0 -120 115 0 115 0 0 -35 c0 -33 -2 -35 -35 -35 -34 0
-35 -1 -35 -40 l0 -40 75 0 75 0 0 40 0 40 40 0 40 0 0 -115 0 -115 35 0 c34
0 35 -1 35 -40 0 -39 -1 -40 -35 -40 -34 0 -35 1 -35 40 l0 40 -40 0 c-39 0
-40 1 -40 35 0 34 -1 35 -40 35 -39 0 -40 -1 -40 -35 0 -33 -2 -35 -35 -35
-34 0 -35 -1 -35 -40 l0 -40 -40 0 -40 0 0 -40 0 -40 -40 0 -40 0 0 -75 0 -75
-35 0 c-34 0 -35 1 -35 40 l0 40 -40 0 c-39 0 -40 1 -40 35 0 34 -1 35 -40 35
l-40 0 0 40 0 40 40 0 40 0 0 40 0 40 115 0 115 0 0 35 0 35 -75 0 -75 0 0 40
0 40 75 0 75 0 0 40 0 40 -40 0 c-39 0 -40 1 -40 35 0 33 -2 35 -35 35 -33 0
-35 -2 -35 -35 l0 -35 -80 0 -80 0 0 -40 0 -40 40 0 40 0 0 -40 0 -40 -40 0
c-39 0 -40 -1 -40 -35 0 -33 -2 -35 -35 -35 -33 0 -35 2 -35 35 0 33 2 35 35
35 34 0 35 1 35 40 l0 40 -75 0 -75 0 0 -75 0 -75 -40 0 -40 0 0 -40 0 -40 40
0 40 0 0 -40 0 -40 40 0 c39 0 40 -1 40 -35 0 -33 2 -35 35 -35 l35 0 0 -80 0
-80 40 0 c39 0 40 -1 40 -35 0 -34 -1 -35 -40 -35 l-40 0 0 -40 c0 -39 -1 -40
-35 -40 l-35 0 0 155 0 155 -40 0 -40 0 0 -195 0 -195 -40 0 -40 0 0 -75 0
-75 -35 0 c-34 0 -35 -1 -35 -40 l0 -40 -40 0 c-39 0 -40 -1 -40 -35 0 -34 -1
-35 -40 -35 l-40 0 0 75 0 75 -75 0 -75 0 0 -40 0 -40 40 0 c39 0 40 -1 40
-35 l0 -35 -80 0 -80 0 0 75 0 75 -40 0 -40 0 0 40 0 40 120 0 120 0 0 35 0
35 150 0 150 0 0 80 0 80 -35 0 c-34 0 -35 -1 -35 -40 l0 -40 -40 0 -40 0 0
40 0 40 -40 0 c-39 0 -40 1 -40 35 0 34 1 35 40 35 l40 0 0 40 0 40 -40 0 -40
0 0 40 0 40 80 0 80 0 0 75 0 75 -40 0 -40 0 0 -40 0 -40 -115 0 -115 0 0 80
0 80 75 0 75 0 0 -40 0 -40 40 0 40 0 0 40 0 40 40 0 c39 0 40 1 40 35 0 33 2
35 35 35 l35 0 0 80 0 80 -115 0 -115 0 0 -40 c0 -39 -1 -40 -35 -40 -34 0
-35 -1 -35 -40 l0 -40 -80 0 -80 0 0 80 0 80 115 0 115 0 0 35 0 35 -75 0 -75
0 0 40 0 40 75 0 75 0 0 80 0 80 80 0 80 0 0 35 c0 34 -1 35 -40 35 l-40 0 0
40 0 40 -40 0 -40 0 0 40 c0 39 -1 40 -35 40 -34 0 -35 -1 -35 -40 l0 -40 -40
0 -40 0 0 -40 0 -40 40 0 c39 0 40 -1 40 -35 0 -34 -1 -35 -40 -35 l-40 0 0
-40 0 -40 -40 0 -40 0 0 40 0 40 -40 0 c-39 0 -40 1 -40 35 0 34 1 35 40 35
l40 0 0 40 0 40 -40 0 -40 0 0 40 0 40 40 0 40 0 0 -40 0 -40 40 0 40 0 0 75
0 75 115 0 115 0 0 80 0 80 40 0 c39 0 40 1 40 35 0 33 2 35 35 35 33 0 35 -2
35 -35 0 -34 1 -35 40 -35 39 0 40 1 40 35 0 34 1 35 40 35 l40 0 0 40 c0 39
1 40 35 40 34 0 35 -1 35 -40z m390 -610 l0 -40 -40 0 -40 0 0 40 0 40 40 0
40 0 0 -40z m-1310 -160 l0 -40 40 0 40 0 0 -75 0 -75 35 0 c34 0 35 -1 35
-40 0 -39 -1 -40 -35 -40 -34 0 -35 1 -35 40 l0 40 -80 0 -80 0 0 40 0 40 -75
0 -75 0 0 35 0 35 75 0 75 0 0 40 0 40 40 0 40 0 0 -40z m1540 0 l0 -40 -40 0
-40 0 0 40 0 40 40 0 40 0 0 -40z m-80 -460 l0 -40 -40 0 -40 0 0 40 0 40 40
0 40 0 0 -40z m-150 -150 l0 -40 -40 0 -40 0 0 40 0 40 40 0 40 0 0 -40z m150
-80 l0 -40 -40 0 -40 0 0 40 0 40 40 0 40 0 0 -40z m-150 -155 l0 -115 -115 0
-115 0 0 115 0 115 115 0 115 0 0 -115z m-310 -150 c0 -34 -1 -35 -40 -35
l-40 0 0 -80 0 -80 -35 0 c-34 0 -35 1 -35 40 l0 40 -40 0 -40 0 0 40 0 40 75
0 75 0 0 35 c0 34 1 35 40 35 39 0 40 -1 40 -35z m230 -75 l0 -40 -75 0 -75 0
0 40 0 40 75 0 75 0 0 -40z m230 0 l0 -40 40 0 40 0 0 -75 0 -75 -80 0 -80 0
0 35 c0 34 1 35 40 35 l40 0 0 40 0 40 -75 0 -75 0 0 40 0 40 75 0 75 0 0 -40z"/>
<path d="M14560 13040 c0 -39 1 -40 35 -40 34 0 35 -1 35 -40 0 -39 -1 -40
-35 -40 -33 0 -35 -2 -35 -35 0 -34 -1 -35 -40 -35 l-40 0 0 -40 0 -40 40 0
40 0 0 40 c0 39 1 40 35 40 34 0 35 -1 35 -40 l0 -40 40 0 40 0 0 40 0 40 -40
0 c-39 0 -40 1 -40 35 0 34 1 35 40 35 l40 0 0 40 0 40 40 0 40 0 0 40 0 40
-40 0 -40 0 0 -40 0 -40 -40 0 -40 0 0 40 c0 39 -1 40 -35 40 -34 0 -35 -1
-35 -40z"/>
<path d="M14170 12655 c0 -34 1 -35 40 -35 39 0 40 1 40 35 0 34 -1 35 -40 35
-39 0 -40 -1 -40 -35z"/>
<path d="M14630 12655 c0 -33 -2 -35 -35 -35 l-35 0 0 -120 0 -120 35 0 c33 0
35 -2 35 -35 l0 -35 115 0 115 0 0 115 0 115 -115 0 -115 0 0 40 0 40 40 0
c39 0 40 1 40 35 0 34 -1 35 -40 35 -39 0 -40 -1 -40 -35z"/>
<path d="M14940 12500 l0 -40 40 0 40 0 0 40 0 40 -40 0 -40 0 0 -40z"/>
<path d="M14940 11960 l0 -40 75 0 75 0 0 40 0 40 -75 0 -75 0 0 -40z"/>
<path d="M14630 11885 c0 -34 1 -35 40 -35 39 0 40 1 40 35 0 34 -1 35 -40 35
-39 0 -40 -1 -40 -35z"/>
<path d="M14560 11730 l0 -40 -40 0 c-39 0 -40 -1 -40 -35 0 -34 1 -35 40 -35
39 0 40 1 40 35 0 33 2 35 35 35 34 0 35 1 35 40 0 39 -1 40 -35 40 -34 0 -35
-1 -35 -40z"/>
<path d="M14480 11350 l0 -40 40 0 40 0 0 40 0 40 -40 0 -40 0 0 -40z"/>
<path d="M13860 12345 c0 -34 1 -35 40 -35 39 0 40 1 40 35 0 34 -1 35 -40 35
-39 0 -40 -1 -40 -35z"/>
<path d="M15090 11580 l0 -40 40 0 40 0 0 40 0 40 -40 0 -40 0 0 -40z"/>
<path d="M15090 13040 l0 -270 270 0 270 0 0 270 0 270 -270 0 -270 0 0 -270z
m460 0 l0 -190 -190 0 -190 0 0 190 0 190 190 0 190 0 0 -190z"/>
<path d="M15250 13035 l0 -115 115 0 115 0 0 115 0 115 -115 0 -115 0 0 -115z"/>
<path d="M13560 12615 l0 -75 35 0 c34 0 35 1 35 40 l0 40 40 0 40 0 0 -40 0
-40 40 0 40 0 0 75 0 75 -115 0 -115 0 0 -75z"/>
<path d="M13860 12655 c0 -34 1 -35 40 -35 39 0 40 1 40 35 0 34 -1 35 -40 35
-39 0 -40 -1 -40 -35z"/>
<path d="M13400 12115 c0 -34 1 -35 40 -35 l40 0 0 -40 0 -40 -40 0 -40 0 0
-155 0 -155 40 0 40 0 0 155 0 155 75 0 75 0 0 40 0 40 40 0 40 0 0 -80 0 -80
40 0 40 0 0 80 0 80 -40 0 c-39 0 -40 1 -40 35 0 34 -1 35 -40 35 -39 0 -40
-1 -40 -35 l0 -35 -75 0 -75 0 0 35 c0 34 -1 35 -40 35 -39 0 -40 -1 -40 -35z"/>
<path d="M13560 11845 l0 -75 115 0 115 0 0 40 0 40 -80 0 -80 0 0 35 c0 33
-2 35 -35 35 l-35 0 0 -75z"/>
<path d="M13400 11350 l0 -270 270 0 270 0 0 270 0 270 -270 0 -270 0 0 -270z
m460 0 l0 -190 -190 0 -190 0 0 190 0 190 190 0 190 0 0 -190z"/>
<path d="M13560 11345 l0 -115 115 0 115 0 0 115 0 115 -115 0 -115 0 0 -115z"/>
<path d="M15550 11500 l0 -40 40 0 40 0 0 40 0 40 -40 0 -40 0 0 -40z"/>
<path d="M13656 10668 c-9 -12 -16 -32 -16 -43 0 -29 28 -65 49 -65 27 0 45
27 45 65 0 61 -48 87 -78 43z"/>
<path d="M14556 10668 c-9 -12 -16 -32 -16 -43 0 -29 28 -65 49 -65 27 0 45
27 45 65 0 61 -48 87 -78 43z"/>
<path d="M473 16639 l-252 -309 217 -177 c119 -97 224 -182 233 -190 14 -12
21 -7 59 42 24 31 41 57 39 59 -2 2 -80 65 -174 141 -93 76 -172 140 -174 141
-3 3 69 96 129 167 4 4 49 -27 100 -69 l92 -77 27 34 c14 18 36 45 47 58 l21
25 -93 77 -93 76 41 49 c22 27 43 53 48 57 4 5 83 -52 174 -127 91 -75 169
-136 174 -136 7 1 82 94 82 103 0 4 -384 320 -435 358 -6 4 -116 -123 -262
-302z"/>
<path d="M13785 16492 c-28 -11 -886 -578 -1975 -1305 l-1925 -1287 -916 0
-917 0 -30 54 c-33 57 -149 186 -384 429 l-143 147 785 0 786 0 420 423 c493
495 479 475 479 647 0 95 -3 111 -28 162 -33 67 -120 158 -233 243 -43 33 -93
74 -110 91 -43 42 -145 103 -201 120 -115 35 -253 6 -368 -75 -39 -27 -340
-293 -670 -590 l-600 -541 -550 0 c-525 0 -553 1 -608 20 -49 17 -347 67 -592
99 -189 25 -483 32 -690 16 -240 -18 -268 -23 -452 -86 l-144 -49 -437 0 -437
1 -64 107 c-123 205 -227 323 -319 364 -64 29 -167 28 -243 -1 -151 -57 -248
-225 -219 -379 14 -80 50 -131 255 -366 l179 -206 162 0 162 0 -44 -87 c-37
-73 -48 -111 -69 -228 -14 -77 -37 -179 -52 -227 l-26 -88 -145 0 -146 0 -135
78 c-191 110 -230 125 -323 125 -66 1 -85 -4 -141 -31 -80 -40 -127 -89 -201
-217 -33 -55 -72 -120 -87 -145 -52 -85 -58 -214 -13 -302 59 -117 117 -152
360 -217 l189 -51 229 0 228 0 -6 -32 c-3 -18 -12 -90 -20 -160 -8 -70 -19
-135 -25 -145 -18 -35 -54 -59 -243 -163 -108 -59 -200 -116 -210 -131 -25
-34 -16 -85 22 -130 l28 -34 2142 -3 c1414 -1 2155 1 2180 8 55 15 115 63 147
117 l28 48 0 235 0 235 -28 48 c-16 26 -46 61 -69 77 -88 64 42 60 -2033 60
l-1887 0 6 28 c3 15 10 59 16 97 27 180 55 298 102 431 l50 144 752 0 c601 1
758 4 789 14 55 20 103 61 134 114 27 45 28 55 31 193 2 84 -1 162 -7 186 -16
57 -63 117 -118 150 l-48 28 -642 5 -642 5 117 94 c138 111 234 160 383 196
57 13 166 47 241 75 l137 50 971 0 970 0 173 -86 c249 -124 499 -262 543 -300
l39 -33 -710 -1 c-566 -1 -718 -4 -748 -14 -55 -20 -103 -61 -134 -114 -28
-46 -28 -49 -28 -217 0 -168 0 -171 28 -217 31 -53 79 -94 134 -114 31 -11
233 -13 1064 -14 l1025 0 27 -88 c32 -107 61 -153 107 -168 20 -7 152 -24 295
-38 380 -38 380 -38 645 -138 126 -48 467 -200 530 -237 l45 -26 -795 -5 -795
-5 -48 -28 c-55 -33 -102 -93 -118 -150 -6 -24 -9 -123 -7 -256 3 -215 3 -216
31 -263 31 -53 79 -94 134 -114 31 -11 249 -13 1159 -14 l1121 0 46 -107 c106
-251 167 -502 167 -685 l0 -48 -1090 0 c-599 0 -1090 4 -1090 8 0 19 -144 227
-187 270 -47 47 -202 134 -321 181 -94 37 -393 108 -567 135 -180 28 -316 33
-450 16 -44 -5 -143 -17 -220 -25 -346 -39 -673 -103 -935 -182 -225 -67 -921
-308 -1021 -353 l-113 -50 -690 0 c-551 -1 -699 -4 -729 -14 -55 -20 -103 -61
-134 -114 l-28 -47 -3 -310 c-4 -341 2 -396 49 -470 60 -95 148 -125 367 -125
l142 0 0 -64 c0 -35 9 -178 20 -317 16 -198 28 -286 54 -401 l33 -148 -708 0
-708 0 -56 67 c-99 117 -135 183 -230 432 -57 150 -135 393 -135 422 0 5 82 9
192 9 223 0 299 11 363 51 46 29 105 108 105 141 0 10 5 18 10 18 14 0 13 545
-1 630 -18 114 -73 181 -181 221 -45 16 -79 19 -230 19 -98 0 -178 3 -178 6 0
3 17 38 37 78 52 99 259 374 359 476 113 116 124 151 79 240 -16 31 -37 56
-56 66 -23 11 -270 42 -886 109 -470 51 -856 95 -859 97 -2 3 -3 273 -2 600
l3 595 290 -78 c347 -93 409 -105 487 -90 117 21 221 99 298 224 299 485 312
509 313 634 0 64 -4 81 -36 145 -20 40 -53 90 -74 110 -22 21 -398 248 -876
527 -461 270 -840 491 -843 491 -2 0 -4 -3505 -4 -7790 l0 -7790 8935 0 8935
0 0 1375 0 1374 -97 31 c-54 17 -705 230 -1448 473 l-1350 442 -140 0 c-133 0
-143 -1 -197 -28 -32 -16 -77 -48 -100 -71 -39 -39 -120 -168 -171 -271 -11
-22 -44 -77 -75 -123 -51 -77 -89 -146 -150 -267 -13 -27 -35 -64 -48 -82 -13
-17 -24 -36 -24 -41 0 -5 -18 -36 -40 -68 -58 -85 -80 -164 -80 -288 0 -61 6
-122 15 -152 18 -62 72 -139 128 -182 23 -18 508 -355 1077 -749 569 -394
1042 -722 1050 -730 12 -11 -155 -13 -1025 -13 l-1040 0 -1130 980 c-857 744
-1136 980 -1155 980 -14 0 -250 -11 -525 -24 -275 -14 -501 -23 -503 -21 -2 1
84 77 191 169 107 91 209 182 227 202 18 21 54 82 81 137 41 84 49 109 49 157
0 59 -9 74 -56 98 -20 11 -217 37 -459 62 -60 6 -164 18 -230 25 -66 8 -169
19 -230 25 -60 6 -144 15 -185 20 -41 5 -142 16 -225 25 -295 30 -351 36 -427
47 -133 18 -104 28 147 48 161 13 2202 53 2218 43 7 -4 208 -142 447 -308 239
-166 461 -314 493 -330 160 -78 396 -20 497 122 19 26 38 49 42 51 4 2 23 25
43 52 33 45 61 94 151 268 18 35 38 69 43 76 6 7 27 53 47 102 63 155 58 281
-17 393 -72 107 -70 107 -821 351 l-677 221 -683 -29 c-376 -15 -684 -28 -686
-27 -1 1 53 143 121 316 69 173 166 421 217 551 l93 237 361 3 361 3 57 28
c74 36 139 101 175 175 l28 57 0 260 0 260 -28 57 c-36 74 -101 139 -175 175
l-57 28 -822 3 -822 2 -65 71 c-36 39 -97 117 -136 175 -100 147 -202 266
-263 308 -53 36 -128 59 -229 71 -69 8 -109 33 -160 100 -42 56 -88 140 -88
161 0 12 380 14 2608 16 l2607 3 57 28 c74 36 139 101 175 175 l28 57 0 430 0
430 -28 57 c-60 122 -186 207 -320 216 -46 3 -100 -2 -147 -12 -41 -9 -768
-121 -1615 -249 l-1540 -232 -1085 -5 -1085 -5 -56 -26 c-79 -37 -133 -90
-171 -167 l-33 -67 0 -185 0 -185 33 -67 c38 -77 92 -130 171 -167 50 -23 71
-26 189 -29 l132 -4 0 -28 c0 -15 -7 -33 -15 -40 -8 -6 -23 -36 -35 -66 -11
-30 -29 -73 -41 -95 -11 -23 -154 -178 -327 -355 l-306 -314 -2287 0 -2286 0
-394 -672 c-216 -370 -406 -692 -422 -716 -52 -78 -70 -131 -70 -209 0 -61 5
-82 32 -137 17 -35 47 -78 67 -95 89 -79 251 -130 351 -111 114 21 203 77 250
159 15 25 30 48 33 51 3 3 50 154 104 335 54 182 102 333 105 338 4 4 733 6
1621 5 l1613 -3 -129 -90 c-188 -130 -463 -339 -589 -447 -62 -54 -171 -165
-250 -255 -77 -88 -153 -168 -168 -178 -26 -15 -30 -15 -52 -1 -13 9 -91 105
-174 213 -82 109 -181 234 -219 278 -97 110 -268 262 -309 276 -78 25 -113
-12 -123 -132 -9 -99 -25 -124 -107 -164 -80 -39 -90 -48 -192 -185 -48 -63
-107 -142 -133 -175 -25 -33 -70 -103 -98 -155 -59 -107 -246 -398 -326 -506
-91 -124 -146 -174 -456 -412 -148 -114 -278 -196 -451 -286 -111 -58 -148
-73 -143 -59 3 10 21 73 42 141 33 113 36 131 32 220 -4 116 -32 185 -104 256
-58 59 -120 88 -289 136 -119 34 -154 40 -236 40 -162 0 -322 -62 -387 -150
-24 -32 -1373 -2329 -1405 -2393 -64 -126 0 -274 141 -326 50 -18 81 -21 204
-21 120 0 154 3 207 21 122 41 206 120 236 222 123 420 160 537 177 571 22 43
226 373 288 466 91 135 383 361 746 577 233 139 288 167 282 146 -3 -10 -182
-609 -399 -1330 l-394 -1313 -912 0 c-910 0 -912 0 -970 22 -77 29 -152 104
-181 181 l-22 58 0 1187 0 1187 733 1105 c404 608 755 1134 780 1169 68 92
101 202 95 319 -7 148 -18 164 -322 468 -296 296 -320 313 -451 322 -159 10
-235 -33 -410 -235 -66 -76 -189 -216 -272 -311 l-153 -173 0 1315 0 1315 658
375 657 376 175 0 175 0 130 -131 c160 -161 434 -371 718 -549 l199 -125 -231
-5 -232 -5 -385 -440 c-261 -299 -393 -458 -412 -495 -24 -49 -27 -66 -27
-155 0 -152 14 -175 254 -417 107 -109 199 -198 204 -198 6 0 34 -12 64 -27
66 -32 175 -42 253 -23 28 7 78 30 110 52 50 33 72 59 136 156 42 64 155 237
252 384 l177 268 805 0 805 0 0 -117 c0 -98 4 -126 21 -164 30 -64 81 -119
134 -142 99 -44 298 -29 399 30 66 38 408 298 461 349 l45 44 900 2 900 3 56
26 c79 37 133 90 171 167 l33 67 0 185 0 185 -33 67 c-38 77 -92 130 -171 167
l-56 26 -2022 3 -2023 2 -4 23 c-3 12 -15 74 -26 137 -12 63 -48 225 -81 360
-32 135 -61 255 -64 268 l-5 22 320 0 320 0 -26 -39 c-28 -43 -40 -104 -30
-146 9 -37 64 -58 130 -50 125 16 285 73 331 119 27 27 34 83 13 104 -9 9 721
12 3288 12 l3299 0 85 30 c151 54 218 115 283 262 32 73 32 73 30 227 -3 185
-14 228 -83 333 -58 88 -136 148 -221 168 -64 16 -199 8 -251 -14 -31 -13 -89
-16 -343 -16 -168 0 -305 3 -305 8 0 4 17 70 37 147 l37 140 3 255 c2 140 0
303 -4 363 l-9 107 297 0 297 0 216 106 c240 118 283 150 333 252 25 50 28 71
32 169 4 145 -15 230 -73 316 -57 86 -145 170 -213 204 -52 25 -68 28 -158 28
-85 0 -108 -4 -150 -24 -27 -13 -55 -25 -61 -26 -6 -2 -58 -30 -115 -64 l-105
-61 -262 0 -262 0 -26 53 c-45 89 -175 309 -222 376 -61 86 -220 250 -288 297
l-57 39 209 5 209 5 2025 1170 c1114 643 2051 1190 2084 1217 117 94 162 191
154 329 -5 91 -34 156 -135 306 -34 51 -70 107 -79 125 -35 68 -121 150 -193
185 -73 36 -201 43 -276 15z m-6460 -4947 c33 -7 76 -21 95 -29 32 -14 13 -15
-260 -15 -269 1 -291 2 -250 15 139 44 304 56 415 29z m-5481 -112 c-8 -21
-32 -108 -52 -193 -35 -150 -36 -161 -36 -350 0 -184 5 -238 40 -412 l6 -28
-250 0 c-247 0 -381 -12 -944 -83 l-28 -4 0 554 0 553 640 0 640 0 -16 -37z
m4757 -13 c-111 -54 -309 -168 -406 -234 -83 -56 -143 -113 -167 -159 -58
-115 -16 -316 76 -361 63 -31 118 -12 256 89 63 46 151 106 195 132 132 79
359 188 463 224 86 29 110 33 207 33 133 1 204 -19 359 -101 215 -114 247
-127 304 -127 66 0 92 24 92 86 0 98 -158 285 -375 445 l-30 22 407 1 408 0
31 -62 c69 -136 142 -410 189 -708 12 -74 28 -161 35 -192 l13 -58 -1832 0
-1833 0 1 58 c1 143 -114 241 -325 278 -164 28 -403 -7 -551 -82 -95 -47 -187
-113 -269 -191 l-66 -63 -102 0 -103 0 7 33 c16 78 67 227 97 279 75 130 234
304 370 404 94 69 218 143 381 227 l147 77 1062 0 1061 0 -102 -50z m3076
-525 c60 -30 103 -80 151 -180 30 -62 96 -255 89 -261 -2 -3 -178 -3 -391 -2
l-387 3 58 115 c98 193 177 292 268 337 63 30 133 26 212 -12z m-5372 -498
c-80 -30 -141 -73 -210 -149 -45 -50 -77 -104 -152 -255 -91 -185 -131 -243
-168 -243 -72 0 -91 78 -76 320 9 163 21 211 77 306 l26 44 281 -1 282 0 -60
-22z m580 8 c-32 -10 -57 -10 -125 0 l-85 12 125 1 c115 0 122 -1 85 -13z
m4168 -112 c-46 -136 -72 -173 -120 -173 -84 0 -172 97 -224 247 l-18 53 203
0 202 0 -43 -127z m1421 60 c-97 -260 -312 -668 -398 -758 -45 -48 -73 -56
-99 -27 -27 30 -29 63 -13 277 19 246 19 380 2 493 l-12 82 273 0 273 0 -26
-67z m-3110 25 c85 -23 126 -52 126 -88 0 -29 -86 -111 -169 -160 -143 -85
-291 -117 -469 -99 -287 27 -319 97 -103 223 103 61 141 68 175 31 13 -14 28
-40 31 -56 4 -15 19 -42 35 -59 23 -25 36 -30 75 -30 25 0 55 5 67 11 28 15
50 73 48 128 -3 73 -1 79 22 101 28 26 62 25 162 -2z m-2348 -647 c50 -5 106
-16 123 -25 69 -36 24 -101 -121 -175 -88 -46 -117 -50 -142 -22 -20 22 -41
138 -32 174 5 20 54 57 76 57 3 -1 46 -5 96 -9z m-421 -143 c9 -13 27 -40 40
-60 l24 -38 -131 0 -132 0 39 41 c76 79 131 98 160 57z m-731 -984 c9 -24 7
-93 -4 -114 -15 -28 -61 -40 -113 -28 -24 5 -112 42 -193 83 l-149 73 226 1
c198 1 228 -1 233 -15z m3400 -115 c59 -65 86 -125 99 -215 13 -89 -1 -212
-32 -272 -47 -93 -176 -172 -321 -198 -75 -13 -426 -20 -825 -15 -27 0 -178
-2 -334 -5 l-284 -5 94 102 c144 157 208 189 330 169 37 -6 77 -9 89 -5 11 4
45 28 76 55 89 78 112 86 234 81 58 -3 213 -5 345 -5 l240 -1 47 27 c58 35 85
87 93 183 9 89 21 131 46 149 30 20 54 10 103 -45z m-2054 -569 c11 -11 33
-47 50 -80 l30 -60 -95 0 c-106 0 -103 -2 -84 75 12 47 41 85 64 85 8 0 24 -9
35 -20z m256 -186 c-18 -10 -40 -14 -62 -10 -61 12 -48 26 23 26 67 -1 68 -1
39 -16z m4316 -575 c29 -29 30 -33 25 -90 -4 -42 -17 -83 -44 -137 l-39 -77
-92 -3 -92 -3 19 43 c85 198 146 298 183 298 5 0 23 -14 40 -31z m-298 -361
c-16 -53 -119 -247 -157 -297 -38 -49 -147 -151 -566 -525 l-163 -146 -527 1
c-498 0 -525 1 -502 17 469 326 756 559 1051 856 l115 116 378 0 378 0 -7 -22z
m1125 -99 c354 -317 728 -675 757 -725 24 -40 29 -78 18 -121 l-6 -23 -1214 0
c-668 0 -1214 3 -1214 6 0 7 53 74 320 399 232 282 363 447 417 523 l45 62
371 0 372 -1 134 -120z m-1729 -904 c0 -2 -62 -93 -138 -202 -178 -254 -526
-755 -626 -901 -43 -63 -83 -115 -90 -117 -15 -5 -837 -37 -841 -33 -1 2 -23
27 -49 56 -38 43 -44 56 -36 72 10 18 111 90 495 348 408 275 592 414 850 641
l160 140 138 1 c75 0 137 -2 137 -5z m2030 -1143 c0 -13 -234 -591 -258 -638
-43 -84 -92 -107 -307 -144 -496 -86 -660 -113 -725 -121 -69 -8 -2159 -53
-2166 -46 -2 1 25 41 59 87 35 47 166 231 291 410 126 179 233 329 238 334 4
6 607 35 1365 67 1492 62 1503 63 1503 51z m-3689 -267 c66 -168 74 -222 55
-381 -9 -70 -25 -167 -37 -215 l-22 -88 -41 -5 c-23 -3 -320 -10 -660 -16
-341 -5 -621 -12 -624 -14 -2 -3 5 -93 17 -202 11 -109 19 -199 18 -201 -2 -1
-36 23 -77 54 -59 45 -83 57 -120 61 -56 5 -79 -6 -203 -95 -187 -136 -201
-140 -302 -102 -100 37 -140 85 -184 221 -40 121 -82 143 -95 50 -7 -52 7
-182 43 -421 24 -150 28 -414 11 -605 -9 -109 -24 -357 -40 -686 -21 -426 -30
-583 -39 -680 -6 -58 -10 -144 -11 -192 l0 -88 -290 0 c-159 0 -290 3 -290 8
1 19 718 3623 722 3627 5 6 2040 94 2092 91 28 -1 32 -7 77 -121z m80 -832
c-535 -696 -582 -757 -956 -1237 -137 -176 -250 -315 -252 -310 -4 12 -123
1168 -123 1193 0 16 12 21 68 30 104 18 169 39 275 88 134 62 151 58 327 -67
119 -84 150 -100 195 -100 51 0 80 18 162 102 102 104 145 172 193 303 l42
115 80 0 79 0 -90 -117z m3559 -913 c0 -13 -133 -124 -200 -167 -30 -19 -217
-129 -414 -245 l-359 -211 -401 12 c-221 6 -479 14 -575 18 -170 6 -174 6
-169 -14 3 -11 71 -124 152 -251 81 -128 149 -238 151 -245 3 -7 -58 -49 -158
-106 -519 -302 -706 -420 -834 -524 l-82 -67 -10 37 c-49 178 -411 1616 -408
1619 6 6 3051 151 3200 153 62 0 107 -3 107 -9z m150 -686 c486 -13 887 -28
891 -32 28 -33 859 -1132 859 -1136 0 -4 -222 -6 -493 -6 l-494 0 -78 140
c-42 77 -82 140 -89 140 -6 0 -247 14 -536 30 -289 16 -533 30 -544 30 -26 0
-20 -19 57 -193 l66 -147 -541 2 -541 3 -234 369 -233 370 72 42 c40 24 219
128 397 233 l325 191 115 -6 c64 -3 514 -16 1001 -30z m-4881 -624 l56 -545
-444 -3 c-244 -1 -446 0 -449 2 -4 4 110 197 276 466 89 144 496 667 501 643
2 -10 29 -263 60 -563z m-5859 -714 c0 -60 -11 -96 -30 -96 -18 0 -30 41 -30
103 0 23 4 27 30 27 27 0 30 -3 30 -34z m100 -31 c0 -63 -1 -65 -25 -65 -21 0
-25 5 -25 28 0 15 -3 44 -6 65 -6 36 -6 37 25 37 l31 0 0 -65z m140 0 l0 -65
75 0 75 0 0 65 0 65 30 0 30 0 0 -165 0 -165 -30 0 -30 0 0 70 0 70 -75 0 -75
0 0 -70 0 -70 -30 0 -30 0 0 165 0 165 30 0 30 0 0 -65z m1790 43 c43 -30 46
-42 14 -57 -22 -10 -30 -9 -44 4 -9 8 -33 15 -53 15 -45 0 -68 -30 -74 -98 -4
-54 11 -90 48 -111 22 -12 29 -12 54 0 41 20 44 39 6 39 -28 0 -31 3 -31 30
l0 30 66 0 67 0 -6 -46 c-13 -122 -174 -163 -236 -60 -46 76 -34 194 25 246
45 39 113 42 164 8z m820 -143 l0 -165 -43 1 c-24 1 -49 -1 -55 -5 -21 -13
-78 20 -92 53 -19 48 -9 135 21 167 20 21 31 25 67 22 l42 -3 0 36 c0 34 20
55 53 58 4 1 7 -73 7 -164z m319 68 l49 -98 48 98 c44 88 51 97 76 97 l28 0 0
-165 0 -165 -30 0 -30 0 -1 98 0 97 -48 -95 -48 -95 -46 90 -46 90 0 -92 -1
-93 -30 0 -30 0 0 165 0 165 30 0 c28 0 33 -7 79 -97z m1470 83 c15 -8 34 -22
41 -31 12 -15 12 -19 -4 -31 -16 -11 -23 -11 -47 1 -36 19 -83 19 -99 0 -18
-22 -5 -33 70 -55 79 -23 110 -54 110 -106 0 -68 -72 -110 -160 -94 -38 7 -90
43 -90 61 0 5 9 13 21 19 16 9 24 8 39 -5 24 -21 82 -30 109 -15 16 8 21 19
19 38 -3 24 -11 30 -73 49 -101 33 -133 75 -101 132 27 48 107 66 165 37z
m196 -11 c0 -22 -31 -33 -47 -17 -17 17 -1 44 24 40 15 -2 23 -10 23 -23z
m345 -9 c0 -60 -11 -96 -30 -96 -18 0 -30 41 -30 103 0 23 4 27 30 27 27 0 30
-3 30 -34z m100 -31 c0 -63 -1 -65 -25 -65 -21 0 -25 5 -25 28 0 15 -3 44 -6
65 -6 36 -6 37 25 37 l31 0 0 -65z m314 -27 c37 3 46 0 68 -27 56 -65 40 -179
-29 -207 -19 -8 -39 -12 -45 -8 -6 4 -28 6 -50 6 l-38 -2 0 154 c0 149 1 153
23 163 21 10 22 8 25 -36 l3 -46 43 3z m705 -5 l49 -98 48 98 c44 88 51 97 76
97 l28 0 0 -165 0 -165 -30 0 -30 0 -1 98 0 97 -48 -95 -48 -95 -46 90 -46 90
0 -92 -1 -93 -30 0 -30 0 0 165 0 165 30 0 c28 0 33 -7 79 -97z m1561 52 c0
-41 2 -45 25 -45 21 0 25 -5 25 -30 0 -25 -4 -30 -25 -30 -24 0 -25 -2 -25
-66 0 -65 1 -66 24 -62 22 5 24 3 15 -21 -13 -32 -28 -42 -54 -34 -34 10 -44
35 -45 111 0 65 -2 72 -20 72 -16 0 -20 7 -20 30 0 23 4 30 20 30 16 0 20 7
20 33 0 25 6 37 23 45 35 17 37 15 37 -33z m200 0 c0 -41 2 -45 25 -45 21 0
25 -5 25 -30 0 -25 -4 -30 -25 -30 -24 0 -25 -2 -25 -66 0 -65 1 -66 24 -62
22 5 24 3 15 -21 -13 -32 -28 -42 -54 -34 -34 10 -44 35 -45 111 0 65 -2 72
-20 72 -16 0 -20 7 -20 30 0 23 4 30 20 30 16 0 20 7 20 33 0 25 6 37 23 45
35 17 37 15 37 -33z m165 20 c0 -22 -31 -33 -47 -17 -17 17 -1 44 24 40 15 -2
23 -10 23 -23z m614 -72 l49 -98 48 98 c44 88 51 97 76 97 l28 0 0 -165 0
-165 -30 0 -30 0 -1 98 0 97 -48 -95 -48 -95 -46 90 -46 90 0 -92 -1 -93 -30
0 -30 0 0 165 0 165 30 0 c28 0 33 -7 79 -97z m1162 68 c31 -31 40 -86 17
-109 -9 -9 -8 -16 4 -29 40 -44 27 -114 -27 -149 -48 -31 -175 -14 -201 27 -3
6 3 20 14 31 19 19 21 19 46 3 31 -21 99 -23 121 -5 8 7 15 21 15 31 0 21 -36
49 -62 49 -13 0 -18 8 -18 29 0 25 4 30 28 33 21 2 27 8 27 27 0 32 -39 43
-91 25 -35 -12 -41 -12 -58 6 -19 18 -18 19 15 39 23 14 51 21 87 21 46 0 58
-4 83 -29z m509 -136 l0 -165 -43 1 c-24 1 -49 -1 -55 -5 -21 -13 -78 20 -92
53 -19 48 -9 135 21 167 20 21 31 25 67 22 l42 -3 0 36 c0 34 20 55 53 58 4 1
7 -73 7 -164z m426 131 c55 -55 41 -107 -39 -147 -52 -27 -107 -67 -107 -80 0
-5 40 -9 90 -9 l90 0 0 -30 0 -30 -135 0 -135 0 6 28 c18 74 61 122 142 158
56 25 72 45 52 69 -16 20 -83 19 -121 0 -22 -12 -34 -13 -49 -5 -25 13 -25 22
-2 43 28 25 63 36 121 36 47 1 57 -3 87 -33z m300 15 c42 -25 64 -77 64 -148
0 -104 -51 -167 -135 -165 -25 0 -57 8 -71 17 -57 37 -83 168 -47 242 21 45
67 73 118 73 22 0 54 -9 71 -19z m244 -146 l0 -165 -30 0 -30 0 0 125 c0 118
-1 125 -20 125 -14 0 -20 7 -20 23 0 25 41 55 78 56 22 1 22 1 22 -164z m278
139 c-2 -20 -12 -29 -42 -39 -22 -8 -53 -28 -70 -44 l-31 -31 59 0 c68 0 110
-20 127 -62 46 -111 -132 -182 -225 -89 -26 27 -30 37 -30 84 1 29 8 67 17 84
34 65 113 122 170 123 25 0 28 -3 25 -26z m664 -80 l73 -106 3 106 3 106 29 0
30 0 0 -165 0 -165 -27 0 c-24 1 -39 16 -105 112 l-78 111 0 -111 0 -112 -30
0 -30 0 0 165 0 165 30 0 c26 0 37 -12 102 -106z m414 87 c42 -25 64 -77 64
-148 0 -104 -51 -167 -135 -165 -25 0 -57 8 -71 17 -57 37 -83 168 -47 242 21
45 67 73 118 73 22 0 54 -9 71 -19z m505 -19 c37 -42 39 -89 4 -130 l-25 -30
30 -66 29 -66 -33 0 c-31 0 -35 4 -61 65 l-27 65 -44 0 -44 0 0 -65 0 -65 -30
0 -30 0 0 166 0 166 101 -4 c99 -3 101 -3 130 -36z m179 -127 l0 -165 -30 0
-30 0 0 165 0 165 30 0 30 0 0 -165z m300 143 c43 -30 46 -42 14 -57 -22 -10
-30 -9 -44 4 -9 8 -33 15 -53 15 -45 0 -68 -30 -74 -98 -4 -54 11 -90 48 -111
22 -12 29 -12 54 0 41 20 44 39 6 39 -28 0 -31 3 -31 30 l0 30 66 0 67 0 -6
-46 c-13 -122 -174 -163 -236 -60 -46 76 -34 194 25 246 45 39 113 42 164 8z
m180 -43 l0 -65 75 0 75 0 0 65 0 65 30 0 30 0 0 -165 0 -165 -30 0 -30 0 0
70 0 70 -75 0 -75 0 0 -70 0 -70 -30 0 -30 0 0 165 0 165 30 0 30 0 0 -65z
m520 35 c0 -29 -1 -30 -50 -30 l-50 0 0 -135 0 -135 -25 0 -25 0 0 135 0 135
-50 0 c-49 0 -50 1 -50 30 l0 30 125 0 125 0 0 -30z m239 16 c15 -8 34 -22 41
-31 12 -15 12 -19 -4 -31 -16 -11 -23 -11 -47 1 -36 19 -83 19 -99 0 -18 -22
-5 -33 70 -55 79 -23 110 -54 110 -106 0 -68 -72 -110 -160 -94 -38 7 -90 43
-90 61 0 5 9 13 21 19 16 9 24 8 39 -5 24 -21 82 -30 109 -15 16 8 21 19 19
38 -3 24 -11 30 -73 49 -101 33 -133 75 -101 132 27 48 107 66 165 37z m512
-24 c37 -42 39 -89 4 -130 l-25 -30 30 -66 29 -66 -33 0 c-31 0 -35 4 -61 65
l-27 65 -44 0 -44 0 0 -65 0 -65 -30 0 -30 0 0 166 0 166 101 -4 c99 -3 101
-3 130 -36z m359 8 l0 -30 -90 0 -90 0 0 -30 c0 -29 2 -30 45 -30 43 0 45 -1
45 -30 0 -29 -2 -30 -45 -30 l-45 0 0 -45 0 -45 90 0 90 0 0 -30 0 -30 -120 0
-120 0 0 165 0 165 120 0 120 0 0 -30z m259 16 c15 -8 34 -22 41 -31 12 -15
12 -19 -4 -31 -16 -11 -23 -11 -47 1 -36 19 -83 19 -99 0 -18 -22 -5 -33 70
-55 79 -23 110 -54 110 -106 0 -68 -72 -110 -160 -94 -38 7 -90 43 -90 61 0 5
9 13 21 19 16 9 24 8 39 -5 24 -21 82 -30 109 -15 16 8 21 19 19 38 -3 24 -11
30 -73 49 -101 33 -133 75 -101 132 27 48 107 66 165 37z m391 -16 l0 -30 -90
0 -90 0 0 -30 c0 -29 2 -30 45 -30 43 0 45 -1 45 -30 0 -29 -2 -30 -45 -30
l-45 0 0 -45 0 -45 90 0 90 0 0 -30 0 -30 -120 0 -120 0 0 165 0 165 120 0
120 0 0 -30z m311 -8 c37 -42 39 -89 4 -130 l-25 -30 30 -66 29 -66 -33 0
c-31 0 -35 4 -61 65 l-27 65 -44 0 -44 0 0 -65 0 -65 -30 0 -30 0 0 166 0 166
101 -4 c99 -3 101 -3 130 -36z m199 -77 c25 -67 47 -110 51 -103 4 6 25 58 46
115 37 102 38 103 70 103 l33 0 -15 -37 c-8 -21 -37 -94 -63 -163 -46 -119
-49 -125 -78 -128 l-31 -3 -58 153 c-32 84 -60 159 -63 166 -3 8 7 12 30 12
l34 0 44 -115z m500 85 l0 -30 -90 0 -90 0 0 -30 c0 -29 2 -30 45 -30 43 0 45
-1 45 -30 0 -29 -2 -30 -45 -30 l-45 0 0 -45 0 -45 90 0 90 0 0 -30 0 -30
-120 0 -120 0 0 165 0 165 120 0 120 0 0 -30z m260 8 c59 -30 85 -76 85 -150
0 -62 -17 -94 -69 -132 -21 -16 -46 -22 -112 -25 l-84 -3 0 166 0 166 68 0
c50 0 79 -6 112 -22z m-16873 -78 c1 0 9 -13 18 -30 10 -19 15 -57 15 -114 l0
-84 -79 -1 c-75 -1 -81 1 -100 25 -23 29 -27 64 -11 94 13 25 73 43 111 35 29
-7 30 -6 19 15 -11 20 -18 22 -56 16 -37 -5 -45 -2 -54 14 -9 17 -7 22 12 29
40 15 62 17 93 9 16 -4 31 -8 32 -8z m900 0 c1 0 9 -13 18 -30 10 -19 15 -57
15 -114 l0 -84 -79 -1 c-75 -1 -81 1 -100 25 -23 29 -27 64 -11 94 13 25 73
43 111 35 29 -7 30 -6 19 15 -11 20 -18 22 -56 16 -37 -5 -45 -2 -54 14 -9 17
-7 22 12 29 40 15 62 17 93 9 16 -4 31 -8 32 -8z m736 -17 c26 -25 40 -86 27
-131 -18 -69 -76 -102 -136 -77 -90 37 -84 208 8 233 36 10 72 1 101 -25z
m250 0 c26 -25 40 -86 27 -131 -18 -69 -76 -102 -136 -77 -90 37 -84 208 8
233 36 10 72 1 101 -25z m1044 17 c1 0 9 -13 18 -30 10 -19 15 -57 15 -114 l0
-84 -79 -1 c-75 -1 -81 1 -100 25 -23 29 -27 64 -11 94 13 25 73 43 111 35 29
-7 30 -6 19 15 -11 20 -18 22 -56 16 -37 -5 -45 -2 -54 14 -9 17 -7 22 12 29
40 15 62 17 93 9 16 -4 31 -8 32 -8z m1448 -1 c3 -4 3 -19 -1 -33 -5 -22 -8
-23 -25 -13 -14 9 -24 9 -37 1 -14 -9 -18 -28 -20 -98 l-3 -86 -29 0 -30 0 0
120 0 120 45 -2 c25 0 48 1 51 4 7 7 43 -2 49 -13z m1682 1 c1 0 9 -13 18 -30
10 -19 15 -57 15 -114 l0 -84 -79 -1 c-75 -1 -81 1 -100 25 -23 29 -27 64 -11
94 13 25 73 43 111 35 29 -7 30 -6 19 15 -11 20 -18 22 -56 16 -37 -5 -45 -2
-54 14 -9 17 -7 22 12 29 40 15 62 17 93 9 16 -4 31 -8 32 -8z m728 -1 c3 -4
3 -19 -1 -33 -5 -22 -8 -23 -25 -13 -14 9 -24 9 -37 1 -14 -9 -18 -28 -20 -98
l-3 -86 -29 0 -30 0 0 120 0 120 45 -2 c25 0 48 1 51 4 7 7 43 -2 49 -13z
m212 1 c1 0 9 -13 18 -30 10 -19 15 -57 15 -114 l0 -84 -79 -1 c-75 -1 -81 1
-100 25 -23 29 -27 64 -11 94 13 25 73 43 111 35 29 -7 30 -6 19 15 -11 20
-18 22 -56 16 -37 -5 -45 -2 -54 14 -9 17 -7 22 12 29 40 15 62 17 93 9 16 -4
31 -8 32 -8z m1600 0 c1 0 9 -13 18 -30 10 -19 15 -57 15 -114 l0 -84 -79 -1
c-75 -1 -81 1 -100 25 -23 29 -27 64 -11 94 13 25 73 43 111 35 29 -7 30 -6
19 15 -11 20 -18 22 -56 16 -37 -5 -45 -2 -54 14 -9 17 -7 22 12 29 40 15 62
17 93 9 16 -4 31 -8 32 -8z m978 -1 c3 -4 3 -19 -1 -33 -5 -22 -8 -23 -25 -13
-14 9 -24 9 -37 1 -14 -9 -18 -28 -20 -98 l-3 -86 -29 0 -30 0 0 120 0 120 45
-2 c25 0 48 1 51 4 7 7 43 -2 49 -13z m-9419 -70 l28 -80 29 80 c28 76 32 81
58 81 l29 0 -34 -92 c-57 -156 -52 -148 -85 -148 -28 0 -30 4 -70 113 -23 61
-41 115 -41 120 0 4 13 7 29 7 27 0 30 -5 57 -81z m335 71 c25 -14 49 -62 49
-100 l0 -30 -70 0 c-51 0 -70 -4 -70 -13 0 -31 53 -50 76 -27 7 7 17 4 30 -11
18 -20 18 -21 -1 -32 -58 -35 -117 -21 -147 33 -57 104 37 231 133 180z m2719
-17 c0 -20 -17 -44 -62 -90 l-62 -63 62 0 62 0 0 -30 0 -30 -105 0 -105 0 0
27 c0 20 17 44 62 90 l62 63 -57 0 c-57 0 -57 0 -57 30 l0 30 100 0 100 0 0
-27z m191 17 c25 -14 49 -62 49 -100 l0 -30 -70 0 c-51 0 -70 -4 -70 -13 0
-31 53 -50 76 -27 7 7 17 4 30 -11 18 -20 18 -21 -1 -32 -58 -35 -117 -21
-147 33 -57 104 37 231 133 180z m759 -110 l0 -120 -30 0 -30 0 0 120 0 120
30 0 30 0 0 -120z m991 40 c18 -44 35 -77 38 -74 3 3 18 38 32 77 24 67 29 72
58 75 l31 3 -29 -78 c-110 -296 -104 -283 -133 -283 -33 0 -34 3 -8 67 l21 49
-51 118 c-27 65 -50 120 -50 122 0 2 13 4 29 4 26 0 31 -6 62 -80z m1189 53
c0 -20 -17 -44 -62 -90 l-62 -63 62 0 62 0 0 -30 0 -30 -105 0 -105 0 0 27 c0
20 17 44 62 90 l62 63 -57 0 c-57 0 -57 0 -57 30 l0 30 100 0 100 0 0 -27z
m191 17 c25 -14 49 -62 49 -100 l0 -30 -70 0 c-51 0 -70 -4 -70 -13 0 -31 53
-50 76 -27 7 7 17 4 30 -11 18 -20 18 -21 -1 -32 -58 -35 -117 -21 -147 33
-57 104 37 231 133 180z m1019 -110 l0 -120 -30 0 -30 0 0 120 0 120 30 0 30
0 0 -120z m1211 40 c18 -44 35 -77 38 -74 3 3 18 38 32 77 24 67 29 72 58 75
l31 3 -29 -78 c-110 -296 -104 -283 -133 -283 -33 0 -34 3 -8 67 l21 49 -51
118 c-27 65 -50 120 -50 122 0 2 13 4 29 4 26 0 31 -6 62 -80z m-911 10 c0
-30 -1 -30 -55 -30 -54 0 -55 0 -55 30 0 30 1 30 55 30 54 0 55 0 55 -30z
m3570 0 c0 -30 -1 -30 -55 -30 -54 0 -55 0 -55 30 0 30 1 30 55 30 54 0 55 0
55 -30z m-7860 -125 c14 -17 7 -57 -16 -79 -22 -22 -41 -20 -21 2 15 17 15 19
-4 35 -16 14 -17 21 -9 37 13 24 33 26 50 5z"/>
<path d="M2992 494 c-34 -23 -28 -92 10 -113 39 -22 58 -2 58 60 0 38 -4 51
-19 59 -25 13 -22 13 -49 -6z"/>
<path d="M5838 499 c-13 -7 -18 -23 -18 -60 0 -43 3 -51 25 -61 21 -9 28 -8
45 7 29 26 27 89 -2 109 -26 19 -27 19 -50 5z"/>
<path d="M10652 494 c-34 -23 -28 -92 10 -113 39 -22 58 -2 58 60 0 38 -4 51
-19 59 -25 13 -22 13 -49 -6z"/>
<path d="M11414 589 c-35 -12 -54 -49 -54 -101 0 -58 15 -92 47 -107 36 -16
51 -14 78 14 21 20 25 34 25 79 0 30 -5 66 -11 80 -14 29 -55 47 -85 35z"/>
<path d="M11900 442 c-20 -17 -23 -24 -14 -38 22 -37 105 -37 128 -1 26 41
-71 74 -114 39z"/>
<path d="M13014 589 c-35 -12 -54 -49 -54 -101 0 -58 15 -92 47 -107 36 -16
51 -14 78 14 21 20 25 34 25 79 0 30 -5 66 -11 80 -14 29 -55 47 -85 35z"/>
<path d="M13440 550 l0 -41 61 3 c46 2 65 8 73 21 21 33 -4 52 -73 55 l-61 3
0 -41z"/>
<path d="M15370 550 l0 -41 61 3 c46 2 65 8 73 21 21 33 -4 52 -73 55 l-61 3
0 -41z"/>
<path d="M16690 550 l0 -41 61 3 c46 2 65 8 73 21 21 33 -4 52 -73 55 l-61 3
0 -41z"/>
<path d="M17700 485 l0 -105 35 0 c83 0 129 62 106 141 -14 45 -51 69 -106 69
l-35 0 0 -105z"/>
<path d="M853 420 c-25 -10 -27 -18 -14 -38 5 -8 23 -12 47 -10 32 2 40 7 42
26 2 14 -2 22 -11 22 -9 0 -21 2 -29 4 -7 3 -23 1 -35 -4z"/>
<path d="M1753 420 c-25 -10 -27 -18 -14 -38 5 -8 23 -12 47 -10 32 2 40 7 42
26 2 14 -2 22 -11 22 -9 0 -21 2 -29 4 -7 3 -23 1 -35 -4z"/>
<path d="M2498 503 c-22 -5 -41 -54 -32 -87 13 -54 76 -55 90 -1 13 52 -16 97
-58 88z"/>
<path d="M2748 503 c-22 -5 -41 -54 -32 -87 13 -54 76 -55 90 -1 13 52 -16 97
-58 88z"/>
<path d="M3783 420 c-25 -10 -27 -18 -14 -38 5 -8 23 -12 47 -10 32 2 40 7 42
26 2 14 -2 22 -11 22 -9 0 -21 2 -29 4 -7 3 -23 1 -35 -4z"/>
<path d="M6913 420 c-25 -10 -27 -18 -14 -38 5 -8 23 -12 47 -10 32 2 40 7 42
26 2 14 -2 22 -11 22 -9 0 -21 2 -29 4 -7 3 -23 1 -35 -4z"/>
<path d="M7853 420 c-25 -10 -27 -18 -14 -38 5 -8 23 -12 47 -10 32 2 40 7 42
26 2 14 -2 22 -11 22 -9 0 -21 2 -29 4 -7 3 -23 1 -35 -4z"/>
<path d="M9453 420 c-25 -10 -27 -18 -14 -38 5 -8 23 -12 47 -10 32 2 40 7 42
26 2 14 -2 22 -11 22 -9 0 -21 2 -29 4 -7 3 -23 1 -35 -4z"/>
<path d="M1362 498 c-21 -21 -13 -28 28 -28 28 0 40 4 40 14 0 25 -47 35 -68
14z"/>
<path d="M4272 498 c-21 -21 -13 -28 28 -28 28 0 40 4 40 14 0 25 -47 35 -68
14z"/>
<path d="M7402 498 c-21 -21 -13 -28 28 -28 28 0 40 4 40 14 0 25 -47 35 -68
14z"/>
<path d="M974 16099 c-98 -121 -179 -224 -179 -230 0 -5 23 -27 50 -49 39 -31
52 -37 60 -27 73 95 231 279 245 287 55 29 131 -9 151 -75 11 -35 -18 -82
-132 -221 l-112 -136 39 -34 c72 -63 59 -70 200 104 141 174 164 217 153 290
-11 73 -12 75 -49 116 -37 41 -100 75 -139 76 -19 0 -21 3 -12 14 9 11 0 23
-42 59 l-54 46 -179 -220z"/>
<path d="M1739 15945 l-52 -64 -39 31 -38 32 -30 -35 c-53 -61 -54 -64 -14
-97 20 -17 33 -35 30 -41 -4 -6 -52 -65 -106 -132 -112 -136 -130 -176 -111
-239 12 -39 65 -92 99 -96 18 -3 132 64 132 78 0 5 -6 8 -12 7 -32 -4 -49 3
-63 25 -21 32 -16 41 93 173 l84 103 30 -23 c70 -52 62 -52 107 1 l41 50 -45
33 c-24 19 -45 37 -45 41 0 4 32 45 71 93 39 47 69 88 67 90 -2 2 -19 7 -38
10 -19 3 -43 8 -52 11 -52 15 -57 13 -109 -51z"/>
<path d="M1970 15551 c-63 -12 -139 -62 -188 -123 -26 -32 -47 -61 -48 -65 0
-5 -6 -20 -12 -35 -19 -47 -24 -128 -10 -181 24 -93 143 -178 236 -169 l39 4
-4 41 c-6 76 -11 87 -39 87 -33 0 -81 25 -94 49 -18 35 -20 92 -4 122 8 17 18
28 22 25 4 -2 68 -54 142 -115 l135 -110 22 27 c12 15 22 32 23 38 0 6 7 17
15 24 9 7 13 15 10 18 -3 3 1 12 7 20 7 8 14 24 15 36 2 11 7 45 11 74 5 29 5
52 0 52 -5 0 -6 4 -3 10 17 28 -84 146 -140 163 -35 11 -99 14 -135 8z m102
-132 c16 -6 28 -17 28 -24 0 -8 4 -15 10 -17 16 -5 19 -82 4 -102 -12 -17 -19
-14 -94 49 -44 37 -80 71 -80 76 0 6 5 7 10 4 6 -3 12 0 15 7 7 17 73 21 107
7z"/>
<path d="M2260 15049 c-99 -121 -180 -224 -180 -229 0 -10 95 -90 106 -90 5 0
63 67 129 149 101 126 126 151 157 159 47 12 91 -12 115 -63 12 -24 20 -32 28
-25 7 5 15 7 18 3 4 -3 7 -2 7 3 0 6 18 20 40 33 22 12 40 24 40 27 0 3 -9 22
-20 44 -28 55 -79 89 -137 93 -16 1 -19 4 -12 13 7 8 -6 25 -44 58 -30 25 -57
46 -60 46 -4 0 -88 -99 -187 -221z"/>
<path d="M16005 4193 c-54 -208 -99 -382 -99 -387 -1 -10 540 -157 563 -153 8
1 21 29 31 64 l17 63 -36 9 c-176 46 -388 102 -398 106 -8 3 -4 31 14 102 14
54 29 101 32 105 3 3 55 -7 115 -23 61 -15 111 -27 113 -25 9 9 41 136 35 140
-4 2 -55 16 -114 31 -60 16 -108 32 -108 37 0 5 7 38 16 74 13 51 20 64 33 60
189 -55 405 -105 411 -96 10 16 34 119 29 123 -2 2 -121 34 -264 72 -143 37
-267 70 -276 72 -12 4 -33 -65 -114 -374z"/>
<path d="M17423 4218 c-13 -6 -24 -18 -25 -27 -6 -65 -4 -72 21 -90 31 -22 69
-21 86 2 7 9 15 14 18 10 7 -6 11 26 7 62 -2 25 -38 55 -65 54 -11 0 -30 -5
-42 -11z"/>
<path d="M16762 4158 c6 -13 14 -30 15 -38 4 -18 8 -30 16 -50 3 -8 16 -46 28
-85 12 -38 26 -75 31 -81 9 -13 -11 -35 -97 -109 -32 -27 -74 -65 -94 -84 -20
-18 -49 -44 -66 -57 -16 -12 -27 -26 -23 -29 3 -4 37 -15 76 -24 l69 -18 44
39 c24 21 61 54 81 73 39 37 61 47 63 30 1 -5 4 -17 8 -25 6 -15 30 -91 32
-100 1 -3 7 -23 14 -45 13 -40 14 -41 92 -61 48 -12 79 -16 79 -10 0 9 -14 51
-38 116 -3 8 -6 17 -7 20 -1 3 -4 12 -8 20 -3 8 -20 59 -38 113 l-33 98 30 27
c17 15 57 50 89 77 58 50 106 97 102 101 -1 1 -35 11 -74 22 l-73 20 -40 -38
c-22 -21 -40 -35 -40 -32 0 4 -9 -4 -20 -18 -11 -14 -20 -20 -20 -13 0 6 -5
24 -12 40 -13 32 -15 39 -22 72 -7 32 -4 30 -88 52 -92 24 -91 24 -76 -3z"/>
<path d="M17800 4093 c-19 -6 -40 -10 -46 -8 -6 2 -18 -29 -29 -73 -9 -43 -19
-80 -21 -84 -2 -3 -25 0 -51 8 -25 8 -47 13 -48 12 -1 -2 -9 -31 -17 -65 l-15
-62 49 -11 c38 -10 48 -16 44 -29 -37 -118 -83 -317 -80 -343 6 -45 14 -68 25
-68 5 0 9 -6 9 -14 0 -14 29 -29 89 -46 44 -12 64 -1 92 55 12 25 26 45 31 45
4 0 8 7 8 16 0 12 -5 14 -17 9 -39 -17 -84 -1 -90 33 -3 11 65 283 72 290 2 2
28 -3 59 -11 l55 -15 16 53 c8 29 15 58 15 63 0 6 -23 15 -50 22 -28 7 -52 16
-55 20 -3 5 6 50 20 102 14 51 25 99 25 106 0 15 -40 13 -90 -5z"/>
<path d="M17281 3739 c-40 -154 -71 -282 -70 -284 10 -9 125 -33 130 -27 9 10
150 554 145 559 -5 5 -107 33 -121 33 -5 0 -43 -126 -84 -281z"/>
</g>
</svg>
