<?xml version="1.0" encoding="utf-8"?>
<!-- Generator: Adobe Illustrator 12.0.0, SVG Export Plug-In . SVG Version: 6.00 Build 51448)  -->
<!DOCTYPE svg PUBLIC "-//W3C//DTD SVG 1.1//EN" "http://www.w3.org/Graphics/SVG/1.1/DTD/svg11.dtd" [
	<!ENTITY ns_svg "http://www.w3.org/2000/svg">
	<!ENTITY ns_xlink "http://www.w3.org/1999/xlink">
]>
<svg  version="1.1" id="Ebene_1" xmlns="&ns_svg;" xmlns:xlink="&ns_xlink;" width="5670.216" height="5668.291"
	 viewBox="0 0 5670.216 5668.291" overflow="visible" enable-background="new 0 0 5670.216 5668.291" xml:space="preserve">
<g>
	<g>
		<path fill-rule="evenodd" clip-rule="evenodd" fill="#FFFFFF" d="M2.756,0c1889.085,0,3778.206,0,5667.291,0
			c-0.666,1889.1,1.334,3780.857-1,5668.291c-1888.429,0-3776.862,0-5665.291,0c-3.697-1.415-1.896-6.92-2-9.999
			c-3.952-117.323,0-235.975,0-353.955c0-1764.587,0-3536.334,0-5301.337C1.67,1.581,1.591,0.168,2.756,0z M2676.422,63.992
			c-269.478,16.335-505.771,71.68-721.91,143.981c-86.225,28.844-169.609,61.295-248.969,97.988
			c-474.484,219.384-849.739,540.364-1132.858,949.881c-189.536,274.153-335.699,586.494-421.947,966.879
			c-63.875,281.711-86.745,621.723-46.994,934.883c39.257,309.273,119.634,573.065,227.972,812.898
			c144.264,319.363,338.707,587.676,569.929,818.897c114.361,114.361,242.147,220.791,379.952,313.96
			c138.379,93.559,283.376,180.023,443.944,250.969c159.583,70.511,333.812,130.074,521.935,171.979
			c189.992,42.32,397.993,64.096,618.922,65.992c213.253,1.83,427.521-29.888,611.924-71.991
			c189.062-43.167,361.174-104.047,517.935-175.978c476.96-218.857,848.319-540.031,1132.858-949.882
			c95.23-137.169,177.552-283.857,249.969-444.944c71.059-158.064,128.304-331.126,172.979-520.935
			c66.166-281.116,81.218-628.987,46.994-928.884c-17.569-153.959-47.718-300.43-86.989-432.946
			c-53.466-180.415-116.565-346.679-195.975-497.938c-80.332-153.013-167.738-295.327-267.967-425.947
			c-75.734-98.698-157.463-190.058-243.97-277.965c-56.973-57.894-119.03-111.884-181.978-164.979
			c-62.687-52.875-128.877-102.967-196.975-149.981c-204.982-141.517-433.568-263.022-693.914-347.957
			c-175.026-57.1-357.845-102.485-567.929-125.984c-98.74-11.044-213.756-19.986-320.96-16.998
			C2784.966,60.594,2729.913,60.75,2676.422,63.992z"/>
		<path fill-rule="evenodd" clip-rule="evenodd" d="M2842.401,58.993c107.204-2.989,222.22,5.953,320.96,16.998
			c210.084,23.5,392.902,68.884,567.929,125.984c260.346,84.935,488.932,206.439,693.914,347.957
			c68.098,47.014,134.288,97.106,196.975,149.981c62.947,53.096,125.005,107.086,181.978,164.979
			c86.507,87.907,168.235,179.267,243.97,277.965c100.229,130.62,187.635,272.934,267.967,425.947
			c79.409,151.259,142.509,317.523,195.975,497.938c39.271,132.516,69.42,278.987,86.989,432.946
			c34.224,299.896,19.172,647.768-46.994,928.884c-44.675,189.809-101.92,362.87-172.979,520.935
			c-72.417,161.087-154.738,307.775-249.969,444.944c-284.539,409.851-655.898,731.024-1132.858,949.882
			c-156.761,71.931-328.873,132.811-517.935,175.978c-184.403,42.104-398.671,73.821-611.924,71.991
			c-220.93-1.896-428.93-23.672-618.922-65.992c-188.124-41.904-362.352-101.468-521.935-171.979
			c-160.568-70.945-305.565-157.41-443.944-250.969c-137.805-93.169-265.591-199.599-379.952-313.96
			c-231.222-231.222-425.665-499.534-569.929-818.897C223.377,3730.671,143,3466.879,103.744,3157.605
			c-39.75-313.16-16.881-653.172,46.994-934.883c86.248-380.385,232.412-692.726,421.947-966.879
			c283.12-409.517,658.374-730.497,1132.858-949.881c79.36-36.693,162.744-69.145,248.969-97.988
			c216.138-72.301,452.432-127.646,721.91-143.981C2729.913,60.75,2784.966,60.594,2842.401,58.993z M5384.083,3766.529
			c46.922-123.24,82.048-254.787,112.985-394.951c31.344-142,44.898-293.095,53.993-449.943
			c4.369-75.335,2.898-155.024-1.999-231.971c-5.042-79.205-10.189-157.525-20.998-232.971
			c-63.597-443.924-214.193-802.767-414.947-1108.861c-234.158-357.025-540.734-647.256-913.887-863.892
			c-53.501-31.061-108.951-59.831-165.979-87.989c-338.52-167.146-746.785-279.374-1246.844-271.966
			c-32.389,0.48-67.424,3.269-99.988,5c-99.792,5.304-194.673,15.878-285.964,31.996c-361.664,63.854-660.956,181.8-928.884,340.958
			c-352.171,209.2-640.239,488.555-868.892,823.896c-28.318,41.532-54.194,86.081-80.99,129.984
			c-26.883,44.047-51.506,90.414-74.991,136.983c-70.446,139.692-136.543,290.328-182.977,450.943
			c-15.827,54.744-29.969,110.513-43.995,167.979c-54.893,224.904-81.091,493.393-65.992,758.905
			c30.33,533.318,191.691,938.272,405.949,1287.839c26.379,43.037,55.931,84.757,84.989,125.983
			c87.704,124.431,184.245,239.944,289.964,344.957c213.1,211.677,455.783,391.273,741.907,528.934
			c288.085,138.604,612.006,239.067,1006.874,262.968c261.486,15.827,521.722-6.313,755.906-57.993
			c116.364-25.679,227.284-58.614,327.959-95.988c207.219-76.926,395.849-169.04,564.929-281.964
			c169.187-112.995,322.608-238.107,462.942-383.952C5046.204,4441.826,5243.945,4134.598,5384.083,3766.529z"/>
		<path fill-rule="evenodd" clip-rule="evenodd" fill="#FFFFFF" d="M4795.157,4701.412
			c-140.334,145.845-293.756,270.957-462.942,383.952c-169.08,112.924-357.71,205.038-564.929,281.964
			c-100.675,37.374-211.595,70.31-327.959,95.988c-234.184,51.68-494.42,73.82-755.906,57.993
			c-394.868-23.9-718.789-124.363-1006.874-262.968c-286.124-137.66-528.808-317.257-741.907-528.934
			c-105.719-105.013-202.26-220.526-289.964-344.957c-29.058-41.227-58.61-82.946-84.989-125.983
			c-214.258-349.566-375.619-754.521-405.949-1287.839c-15.1-265.513,11.099-534.001,65.992-758.905
			c14.026-57.466,28.168-113.235,43.995-167.979c46.434-160.615,112.531-311.251,182.977-450.943
			c23.484-46.569,48.107-92.936,74.991-136.983c26.795-43.903,52.671-88.452,80.99-129.984
			c228.652-335.342,516.72-614.697,868.892-823.896c267.928-159.157,567.22-277.103,928.884-340.958
			c91.291-16.118,186.172-26.692,285.964-31.996c32.564-1.731,67.599-4.52,99.988-5c500.059-7.408,908.325,104.82,1246.844,271.966
			c57.027,28.158,112.478,56.929,165.979,87.989c373.152,216.636,679.729,506.867,913.887,863.892
			c200.754,306.094,351.351,664.937,414.947,1108.861c10.809,75.446,15.956,153.766,20.998,232.971
			c4.897,76.947,6.368,156.636,1.999,231.971c-9.095,156.849-22.649,307.943-53.993,449.943
			c-30.938,140.164-66.063,271.711-112.985,394.951C5243.945,4134.598,5046.204,4441.826,4795.157,4701.412z M2488.445,224.972
			c-478.88,67.993-852.682,244.513-1172.853,473.941c-191.846,137.472-360.472,300.373-506.937,480.94
			c-49.371,60.866-95.758,123.659-139.982,189.976c-217.784,326.582-383.424,716.626-432.946,1213.848
			c-20.167,202.493-11.377,436.167,14.998,621.922c67.706,476.844,243.476,855.178,473.941,1172.854
			c138.472,190.872,299.229,361.534,480.94,506.937c303.977,243.239,664.146,435.365,1117.86,529.934
			c184.473,38.45,386.726,61.14,603.924,52.994c106.778-4.005,207.1-10.904,303.962-24.997
			c286.993-41.757,537.304-120.858,759.905-227.972c371.149-178.593,675.534-421.96,919.885-726.909
			c243.865-304.342,436.711-666.282,529.935-1117.86c37.691-182.586,59.097-384.914,52.992-603.924
			c-11.691-419.506-111.502-765.341-252.968-1063.867c-70.737-149.272-154.43-285.38-245.97-412.948
			c-91.319-127.262-193.287-246.007-305.961-352.956c-224.963-213.533-481.627-392.875-791.901-525.935
			c-227.947-97.753-487.853-170.706-786.901-200.975c-101.288-10.252-209.189-15.178-317.96-9.999
			C2685.183,205.081,2585.037,211.258,2488.445,224.972z"/>
		<path fill-rule="evenodd" clip-rule="evenodd" fill="#FFFFFF" d="M3994.257,2055.743c0.743,10.588,1.229,21.434,2.999,30.996
			c-24.322,40.461-57.46,90.548-106.986,110.986c-75.898,31.321-130.085-26.847-131.983-96.988
			c-30.824,29.991-61.473,63.119-101.987,87.989c-18.886,11.593-43.161,22.918-69.991,25.997c-27.051,3.104-59.521,6.292-90.988,4
			c-33.248-2.421-60.271-21.233-80.99-38.995c-22.165-19.001-38.533-41.579-47.994-70.991
			c-72.978,27.307-153.632,64.903-237.97,87.989c-12.485,3.417-29.063,8.09-38.995,7c-11.627-1.277-29.258-12.598-40.995-19.998
			c-37.071-23.373-60.664-61.232-63.992-116.985c-29.784,36.235-76.637,100.633-147.981,93.988
			c-41.272-3.844-58.193-40.904-70.991-76.99c-7.235,1.375-12.518-2.534-18.998-1c-6.706,1.588-19.571,18.571-24.997,23.997
			c-24.091,24.092-58.241,39.332-107.986,35.996c-78.004-5.231-117.325-77.554-105.987-164.979
			c-61.84,4.422-83.166-40.084-121.985-61.993c-16.699,83.111-20.582,178.237-15.998,277.965
			c-24.554,10.108-49.792,19.533-74.991,28.997c-8.224-22.106-17.311-43.349-24.997-65.992
			c-17.498,36.577-36.248,71.334-67.991,93.988c-35.313,25.2-88.246,22.74-116.985-6c-17.997-17.997-23.813-47.243-32.996-74.991
			c-9.513-28.743-18.971-53.443-23.997-82.989c-8.7-51.145-14.283-112.582-18.998-169.979c-0.711-8.661,0.517-18.621-2-23.997
			c-6.497-13.878-36.941-10.347-50.993-17.998c-5.536-6.462-6.547-17.45-9.999-25.997c0-0.666,0-1.333,0-2
			c41.011-12.611,58.106-47.665,53.993-106.987c-3.19-46.015-6.998-119.127,41.995-109.986
			c26.514,4.947,36.635,36.717,39.995,65.992c2.27,19.771-1.852,41.145,1,61.992c2.163,15.809,10.898,26.276,12.999,39.995
			c29.501-9.827,58.289-20.368,88.989-28.997c4.049,9.949,6.532,21.464,10.999,30.996c-15.036,12.493-29.483,19.779-48.994,26.997
			c-16.973,6.279-44.419,9.769-49.994,25.997c-4.015,11.688-0.275,35.692,1,51.993c6.782,86.678,15.823,158.88,35.996,234.971
			c6.497,24.506,14.859,67.285,37.995,69.991c28.503,3.334,44.98-36.5,53.993-57.993c5.492-13.095,9.46-27.218,13.999-41.995
			c4.353-14.174,11.137-30.707,10.999-43.995c-0.156-14.989-7.569-32.455-11.999-50.994c-10.418-43.606-30.747-114.326-4-155.98
			c4.826-7.515,16.438-20.771,29.996-21.997c19.194-1.736,30.583,12.395,44.995,19.997c6.071,41.59,0.485,94.837,16.998,125.984
			c22.324-35.812,31.056-82.862,41.995-132.983c4.79-21.946,13.991-42.617,29.996-57.993c14.577-14.003,61.917-41.664,76.99-10.999
			c20.79,42.292-31.85,161.722,41.995,154.98c17.769-37.037,44.154-72.221,80.99-100.987c33.088-25.84,74.946-55.722,124.984-55.993
			c42.861-0.232,77.426,26.774,95.988,55.993c13.69-7.557,24.176-17.899,39.995-25.997c10.679-5.466,40.219-16.547,49.994-3
			c13.602,18.851-8.621,62.761-12.999,76.99c-8.213,26.694-15.85,49.519-22.997,71.991
			c-16.225,51.013-25.702,106.751-26.996,163.979c80.55,4.56,90.026-61.955,138.982-88.989
			c17.514-85.473,47.932-158.042,105.986-202.975c18.52,3.145,36.519,6.809,55.993,8.999c-2.464,35.628-17.183,62.036-28.996,90.988
			c-7.367,18.057-15.438,36.453-21.997,55.993c-6.815,20.3-9.333,43.543-12.999,65.992c-3.756,23.001-9.802,46.079-10.998,66.992
			c-1.931,33.728,28.81,52.313,61.992,49.994c45.929-3.209,77.139-39.469,104.986-59.992
			c-24.188-26.507-45.882-67.119-42.994-115.986c3.313-56.054,20.545-125.557,73.99-130.983
			c30.25-3.072,60.675,12.228,70.991,31.996c13.83,26.5,4.179,69.247-2.999,96.988c-4.222,16.316-8.741,29.981-14.998,40.995
			c-10.161,17.885-27.323,23.452-27.997,48.994c15.672,10.991,41.848,11.479,65.992,13.998c-0.234-13.975-3.681-18.185-2-30.996
			c7.961-60.672,45.298-114.018,81.99-149.981c38.625-37.857,91.825-67.65,163.979-67.991c60.215-0.285,99.758,23.932,98.988,86.989
			c-0.774,63.453-51.563,100.192-93.988,123.984c-33.262,18.653-72.578,34.169-107.986,54.993
			c-11.818,6.951-27.093,16.16-27.997,25.997c-1.692,18.408,23.112,34.775,38.995,40.995
			c42.068,16.475,106.453-3.387,132.983-19.998c19.462-12.186,36.613-30.47,54.993-45.994c8.049-6.798,17.472-14.084,27.997-22.997
			c7.61-6.445,24.447-18.167,25.996-23.997c2.336-8.792-1.825-27.542-2.999-40.995c-8.529-97.7,3.713-188.758,20.997-275.965
			c13.808-69.668,32.104-142.394,64.992-195.976c11.956-19.479,32.868-49.91,60.992-50.994
			c20.784-0.801,42.404,15.599,48.994,32.996c7.732,20.416,5.867,55.081,7.999,79.99c2.514,29.373,5.946,56.592,3.999,80.99
			c-4.194,52.542-23.644,98.07-39.995,133.983c-19.144,42.045-36.844,79.363-53.993,120.985
			c-15.901,38.595-34.603,91.952-28.996,144.982c1.44,13.628,7.064,32.859,11.998,45.994c4.726,12.58,13.043,30.595,24.997,31.996
			c26.948,3.159,54.646-37.482,65.992-52.993C3957.63,2093.991,3973.227,2071.187,3994.257,2055.743z M3900.269,1539.808
			c-18.664,6.409-28.255,59.505-31.996,78.99c-18.211,94.827-22.501,207.716-23.997,307.961
			c29.855-73.92,53.739-158.299,76.99-239.97c3.183-11.178,10.888-25.317,11.998-33.996c1.002-7.818-2.138-18.556-2.999-27.997
			c-2.549-27.925-3.498-65.312-7.999-86.989C3918.082,1541.802,3906.766,1537.576,3900.269,1539.808z M2695.419,1849.769
			c-36.554,33.331-60.657,93.373-78.99,147.981c-4.863,14.486-18.279,45.633-16.998,58.993c1.039,10.831,9.348,19.848,15.998,26.997
			c6.748,7.254,15.357,17.383,24.997,18.998c14.335,2.401,36.348-6.562,47.994-13.999c39.87-25.459,77.843-88.468,94.988-141.982
			c5.975-18.648,12.752-42.528,11.998-66.992c-1.091-35.414-28.339-54.591-63.992-48.994
			C2716.086,1833.178,2705.257,1840.799,2695.419,1849.769z M3613.305,1939.757c2.492-32.857-5.439-56.287-38.996-53.993
			c-42.313,2.892-56.781,39.754-72.99,71.991c-7.053,14.027-23.169,39.451-24.997,52.994c-2.443,18.098,4.33,42.968,3,59.993
			C3532.917,2048.361,3607.819,2012.051,3613.305,1939.757z M3286.345,2001.75c5.57-26.48,9.771-94.663-26.996-77.99
			c-21.66,9.822-34.268,35.283-33.996,64.992c0.307,33.457,17.298,48.605,30.996,67.992c7.049-0.366,14.854,3.788,19.998,2
			C3265.829,2037.412,3281.862,2023.064,3286.345,2001.75z"/>
		<path fill-rule="evenodd" clip-rule="evenodd" d="M3922.266,1537.808c4.501,21.678,5.45,59.064,7.999,86.989
			c0.861,9.44,4.001,20.179,2.999,27.997c-1.11,8.678-8.815,22.817-11.998,33.996c-23.251,81.67-47.135,166.05-76.99,239.97
			c1.496-100.245,5.786-213.135,23.997-307.961c3.741-19.484,13.332-72.581,31.996-78.99
			C3906.766,1537.576,3918.082,1541.802,3922.266,1537.808z"/>
		<path fill-rule="evenodd" clip-rule="evenodd" d="M2731.415,1830.771c35.653-5.598,62.9,13.58,63.992,48.994
			c0.754,24.464-6.023,48.344-11.998,66.992c-17.146,53.515-55.118,116.523-94.988,141.982c-11.646,7.437-33.659,16.4-47.994,13.999
			c-9.639-1.615-18.249-11.744-24.997-18.998c-6.65-7.148-14.959-16.166-15.998-26.997c-1.282-13.36,12.135-44.507,16.998-58.993
			c18.333-54.608,42.437-114.651,78.99-147.981C2705.257,1840.799,2716.086,1833.178,2731.415,1830.771z"/>
		<path fill-rule="evenodd" clip-rule="evenodd" d="M3479.322,2070.741c1.33-17.024-5.443-41.895-3-59.993
			c1.828-13.542,17.944-38.967,24.997-52.994c16.209-32.237,30.677-69.099,72.99-71.991c33.557-2.293,41.488,21.136,38.996,53.993
			C3607.819,2012.051,3532.917,2048.361,3479.322,2070.741z"/>
		<path fill-rule="evenodd" clip-rule="evenodd" d="M3276.347,2058.743c-5.144,1.788-12.949-2.366-19.998-2
			c-13.698-19.386-30.689-34.535-30.996-67.992c-0.271-29.709,12.336-55.169,33.996-64.992c36.767-16.672,32.566,51.51,26.996,77.99
			C3281.862,2023.064,3265.829,2037.412,3276.347,2058.743z"/>
		<path fill-rule="evenodd" clip-rule="evenodd" d="M1647.55,2018.748c49.946,142.363,99.604,285.016,147.981,428.946
			c-100.026,11.663-193.582,35.008-306.961,29.996C1541.381,2324.527,1595.059,2172.23,1647.55,2018.748z"/>
		<path fill-rule="evenodd" clip-rule="evenodd" fill="#FFFFFF" d="M1444.576,3020.622c80.506-5.182,155.94,27.02,206.974,63.992
			c37.484,27.155,70.212,63.51,92.989,109.986c7.181,14.653,18.618,34.438,12.998,49.993c-3.421,9.472-11.369,14.956-21.997,14.999
			c-20.557,0.082-26.123-22.75-35.996-38.995c-28.763-47.329-67.845-83.016-119.985-104.987
			c-84.201-35.481-201.837-27.222-238.97,42.994c-12.01,22.71-16.604,47.163-13.998,80.99
			c4.986,64.724,57.701,106.304,100.987,133.983c55.552,35.523,102.095,48.274,153.98,80.99
			c45.368,28.604,89.442,62.838,124.984,109.986c32.544,43.17,58.248,106.837,48.994,180.977
			c-8.174,65.489-39.262,119.429-86.989,147.981c-51.529,30.827-115.663,47.792-192.976,33.996
			c-111.422-19.882-190.413-85.195-234.97-175.978c-5.543-11.294-16.999-29.128-11.999-43.995
			c2.706-8.046,10.137-14.998,22.997-14.998c23.001,0.001,27.333,25.844,36.995,41.995c29.2,48.807,72.651,84.033,128.984,105.986
			c80.834,31.501,195.866,18.841,229.971-48.994c9.479-18.854,15.817-48.955,12.999-80.989
			c-4.124-46.873-34.972-79.74-62.992-103.987c-60.253-52.139-143.282-75.926-210.974-122.984
			c-64.532-44.862-126.686-97.452-148.981-183.978c-11.764-45.653-9.248-100.44,5.999-144.981
			c19.683-57.5,66.298-103.075,127.984-121.984C1392.262,3026.282,1418.053,3022.329,1444.576,3020.622z"/>
		<path fill-rule="evenodd" clip-rule="evenodd" fill="#FFFFFF" d="M2406.456,3069.616c-72.658,0-145.315,0-217.973,0
			c-2.333,268.299-0.333,540.934-1,810.898c14.766,4.636,22.133,14.133,32.996,24.997c5.781,5.781,11.519,11.027,8.999,18.997
			c-3.402,10.76-30.439,6.999-47.994,6.999c-38.021,0.001-68.182,0-109.986,0c-15.266,0-45.883,3.746-48.994-5.999
			c-3.569-11.181,19.614-32.203,25.997-36.995c4.782-3.59,9.606-4.46,16.998-6.999c0-270.632,0-541.267,0-811.898
			c-72.991,0-145.981,0-218.972,0c4.927,28.117-6.019,38.014-18.998,50.993c-5.608,5.609-12.678,17.466-22.997,13.999
			c-11.319-3.804-6.999-30.116-6.999-45.995c0-19.519-0.811-36.136,1-50.993c9.433-27.4,59.274-17.998,100.987-17.998
			c157.596,0,318.825,0,481.939,0c21.314,0,60.99-3.481,69.992,9.999c7.275,10.896,3.999,32.731,4,53.993
			c0,19.563,3.288,46.888-6,50.994c-13.83,6.113-39.225-25.397-41.995-35.996C2405.286,3090.311,2407,3081.078,2406.456,3069.616z"
			/>
		<path fill-rule="evenodd" clip-rule="evenodd" fill="#FFFFFF" d="M2772.41,3020.622c122.868-5.847,202.502,44.138,251.969,116.985
			c23.943,35.261,43.997,83.042,43.994,140.982c-0.005,124.437,0.005,244.446,0,368.954
			c-0.002,63.521-10.812,108.638-33.995,149.981c-44.264,78.932-122.187,130.844-234.971,133.982
			c-124.983,3.479-201.78-42.66-251.968-116.984c-24.702-36.582-44.999-83.097-44.995-139.983
			c0.008-120.228-0.008-250.504,0-368.953c0.002-32.397,1.551-59.069,7.999-83.99c6.302-24.355,14.068-44.875,25.997-65.991
			C2582.007,3074.938,2651.641,3026.369,2772.41,3020.622z M2659.424,3139.607c-28.449,36.23-35.995,79.576-35.996,141.982
			c0,111.836,0.001,243.579,0,356.955c0,33.716-0.469,61.8,2,86.989c2.555,26.072,10.572,47.112,21.997,66.991
			c20.633,35.899,52.708,65.642,97.988,79.99c56.541,17.918,102.095-5.992,133.983-29.996
			c33.241-25.022,58.957-59.551,65.992-112.986c4.158-31.582,1.001-67.381,1-101.987c-0.005-106.251,0.005-203.82,0-311.961
			c-0.002-35.706,2.547-73.447-2-100.987c-4.501-27.26-17.236-52.809-31.996-71.99c-26.912-34.978-76.546-75.664-138.982-68.992
			C2722.564,3079.049,2683.318,3109.179,2659.424,3139.607z"/>
		<path fill-rule="evenodd" clip-rule="evenodd" fill="#FFFFFF" d="M3523.316,3519.56c21.271,19.624,42.815,38.448,61.992,61.992
			c17.062,20.947,39.118,51.247,48.994,78.99c6.632,18.63,8.612,40.389,12.998,59.993c8.416,37.621,18.92,76.577,34.996,109.985
			c8.012,16.65,16.646,37.399,33.995,37.996c21.379,0.733,23.663-23.88,42.995-24.997c14.698-0.85,24.48,9.43,25.997,19.997
			c3.035,21.165-16.201,41.782-27.997,50.994c-14.979,11.698-37.334,19.173-60.992,16.997
			c-51.539-4.739-87.804-58.015-109.986-94.987c-13.144-21.907-25.049-44.219-35.995-65.992
			c-11.026-21.932-24.277-47.361-31.996-69.991c-7.504-21.996-11.738-42.884-19.998-61.992
			c-24.053-55.644-61.466-100.729-126.984-118.985c-2.332,118.319-0.333,240.97-0.999,360.955
			c5.759,4.026,11.419,4.457,15.998,7.999c8.421,6.515,28.526,24.655,25.996,34.996c-2.998,12.253-30.225,7.998-47.994,7.998
			c-40.326,0.001-72.096,0-111.985,0c-15.727,0-46.077,3.352-48.994-5.999c-3.903-12.511,18.273-29.633,26.996-35.995
			c4.926-3.593,10.976-5.53,16.998-7.999c0-270.3,0-540.6,0-810.898c-5.91-1.792-11.635-4.83-15.998-7.999
			c-10.12-7.353-31.028-22.369-26.996-34.996c3.009-9.423,19.1-7,33.996-6.999c94.719,0.005,194.541,4.251,285.964,0
			c100.613-4.678,170.49,53.112,208.974,115.985c12.718,20.777,27.422,48.507,32.996,73.991c8.351,38.18,8.088,82.514-1,119.984
			c-12.521,51.629-45.854,98.947-83.989,132.983C3642.061,3498.585,3589.343,3523.078,3523.316,3519.56z M3370.335,3072.615
			c0,132.317,0,264.634,0,396.951c58.383-3.799,103.547,5.648,148.981-1c86.146-12.606,127.088-86.521,133.982-172.979
			c5.914-74.153-11.116-145.607-55.992-187.977c-18.824-17.772-48.907-34.914-78.99-37.995c-45.769-4.688-96.367,3.509-146.982,0
			C3370.17,3069.784,3370.25,3071.196,3370.335,3072.615z"/>
		<path fill-rule="evenodd" clip-rule="evenodd" fill="#FFFFFF" d="M3985.258,3068.616
			c62.682,140.627,129.027,277.588,191.976,417.947c65.858-137.783,128.908-278.373,193.976-416.947
			c-19.382-0.286-24.186-9.024-35.995-19.998c-6.608-6.14-15.253-12.255-13.998-20.997c1.756-12.233,23.134-8.999,36.995-8.999
			c32.574,0,58.616,0,91.988,0c16.746,0,35.78-1.937,38.995,6.999c4.229,11.756-24.387,37.043-34.995,40.995
			c-7.8,2.906-17.815,1.62-27.997,2c-72.245,152.161-141.694,305.062-213.973,459.942c-4.74,10.156-12.39,21.878-13.998,29.996
			c-4.3,21.688-0.001,57.436,0,80.99c0.003,79.628-0.003,159.785,0,239.97c15.152,4.575,20.386,12.313,30.996,23.997
			c5.709,6.287,15.294,10.673,11.998,20.997c-3.106,9.731-33.385,5.999-48.994,5.999c-40.239,0.001-70.75,0-109.986,0
			c-16.14,0.001-46.005,3.362-48.993-5.999c-3.703-11.599,21.559-33.678,27.996-37.995c4.348-2.915,9.559-4.13,14.998-5.999
			c-0.002-80.464,0.004-159.665,0-240.97c-0.001-26.184,4.077-55.572,0-79.99c-1.474-8.827-8.897-20.15-13.998-30.996
			c-72.051-153.209-140.66-306.586-211.974-459.942c-16.228,0.32-25.393-9.107-35.995-18.998c-8.707-8.121-24.342-26.083-5-30.996
			c13.474-3.422,38.291,0,57.993,0c37.213,0,73.484,0,113.985,0c18.073,0,46.417-4.19,48.994,7.999
			c1.901,8.995-7.179,15.648-12.998,20.998C4006.45,3058.55,4003.384,3068.125,3985.258,3068.616z"/>
		<path fill-rule="evenodd" clip-rule="evenodd" d="M3371.334,3069.616c50.615,3.509,101.214-4.688,146.982,0
			c30.083,3.081,60.166,20.223,78.99,37.995c44.876,42.369,61.906,113.823,55.992,187.977
			c-6.895,86.458-47.837,160.372-133.982,172.979c-45.435,6.648-90.599-2.799-148.981,1c0-132.317,0-264.634,0-396.951
			C3370.25,3071.196,3370.17,3069.784,3371.334,3069.616z"/>
		<path fill-rule="evenodd" clip-rule="evenodd" d="M2773.41,3073.615c62.437-6.672,112.07,34.015,138.982,68.992
			c14.76,19.182,27.495,44.73,31.996,71.99c4.547,27.54,1.998,65.281,2,100.987c0.005,108.141-0.005,205.71,0,311.961
			c0.001,34.606,3.158,70.405-1,101.987c-7.035,53.436-32.751,87.964-65.992,112.986c-31.888,24.004-77.442,47.914-133.983,29.996
			c-45.279-14.349-77.354-44.091-97.988-79.99c-11.425-19.879-19.442-40.919-21.997-66.991c-2.469-25.189-2-53.273-2-86.989
			c0.001-113.376,0-245.119,0-356.955c0.001-62.406,7.546-105.752,35.996-141.982
			C2683.318,3109.179,2722.564,3079.049,2773.41,3073.615z"/>
		<path fill-rule="evenodd" clip-rule="evenodd" fill="#FFFFFF" d="M3056.375,2743.657
			c-61.868,49.603-132.347,89.022-222.972,104.987c-53.48,9.421-86.673,8.14-124.984,2c-15.94-2.555-34.207-5.182-52.994-10.999
			c-19.301-5.976-39.841-12.813-58.993-18.997c-3.275-1.058-7.56-5.169-11.999-7c-1.61-0.664-5.215-0.266-6.999-1
			c-0.402-0.166-3.249-3.932-4-4c-1.815-0.165-0.99,1.277-4.999-1c-4.967-2.821-11.042-4.195-15.998-6.999
			c-20.504-11.602-47.085-28.778-67.992-47.994c-17.771-16.333-35.211-35.574-51.994-54.993
			c-16.746-19.377-33.563-37.949-49.994-55.993c-49.536-54.399-112.73-98.034-175.978-143.982
			c-19.307-14.026-45.969-34.295-68.991-36.995c-13.933-1.634-31.244,2.828-45.994,4.999
			c-43.177,6.357-88.659,14.975-131.983,19.998c29.025,93.293,65.001,188.299,95.988,282.965
			c27.327-2.75,35.892,7.982,49.994,20.998c7.289,6.726,17.86,15.171,15.998,25.997c-2.686,15.622-41.13,9.999-61.992,9.999
			c-51.953,0-92.895,0-143.982,0c-20.327,0-60.878,4.795-63.992-7.999c-2.77-11.377,9.358-18.356,15.998-24.997
			c11.801-11.801,17.031-23.402,37.995-23.997c-29.554-89.432-60.383-177.586-90.988-265.967
			c-104.836,8.934-228.821,20.644-335.958,5.999c-30.479,85.84-59.624,173.014-89.989,258.968
			c17.777,5.067,23.963,12.963,36.995,25.997c6.083,6.083,15.898,12.868,12.999,23.997c-2.901,11.135-26.12,7.999-40.995,7.999
			c-34.391,0-59.694,0-95.988,0c-16.506,0-38.251,1.995-40.995-6.999c-3.647-11.957,9.445-20.856,16.998-27.997
			c13.101-12.385,22.672-24.874,49.994-21.997c31.528-88.79,62.126-178.51,92.989-267.966
			c-111.019-20.298-208.74-53.895-294.963-98.988c91.332,29.986,191.718,59.584,303.962,71.991
			c77.452-220.978,154.946-446.317,232.971-669.916c6.209-17.794,11.996-31.957,31.996-29.996
			c27.782,2.723,33.134,46.035,41.995,70.991c67.781,190.894,135.965,394.331,201.975,583.927
			c64.657-8.612,139.141-16.345,209.974-21.997c10.211-0.815,22.123,0.296,30.996-2c12.331-3.19,27.099-14.938,41.995-21.997
			c107.799-51.085,230.93-81.387,392.951-82.99c188.549-1.865,381.28,6.982,548.931,21.997
			c79.463,7.117,144.564,13.684,223.972,20.998c83.009,7.646,163.174,16.45,250.969,16.998c36.607,0.228,64.636-2.003,91.988-5
			c38.097-4.173,78.817-11.211,117.985-21.998c77.274-21.278,135.871-51.427,200.976-87.989
			c29.299-16.454,60.152-35.778,88.988-55.993c27.81-19.495,56.796-40.592,77.99-65.992c9.087-10.889,13.168-26.22,29.996-24.997
			c7.88,0.573,10.238,4.606,15.998,8.999c-4.926,204.08-72.373,360.567-206.974,435.946
			c-118.868,66.568-274.172,104.855-442.944,120.985c-23.951,2.289-49.983,0.58-73.991,5.999c-22.153,5-43.738,14.58-64.992,21.998
			c-21.226,7.407-42.599,14.598-64.991,20.997c-44.484,12.713-93.599,19.658-147.981,23.997
			c-104.531,8.341-225.48,12.248-324.96-7.999c-43.812-8.917-91.398-23.875-120.984-39.995
			c-13.856-7.549-24.375-12.865-33.996-18.998c-14.64-9.332-27.396-15.789-47.994-28.996
			c-52.379-33.588-99.135-73.268-150.981-107.987c-16.898-11.316-35.398-18.947-50.994-30.996
			c-17.538-6.458-36.354-11.64-54.993-16.998c35.931,1.436,67.704,15.378,97.988,27.996c26.631,11.096,48.134,22.41,70.991,37.996
			c64.134,43.73,131.904,94.237,211.973,121.984c126.352,43.787,323.641,46.486,483.939,29.997
			c39.27-4.04,74.592-15.964,111.986-20.998c-1.402,1.597-3.445,2.554-5.999,3c22.992-1.34,47.775-9.549,69.991-14.998
			c-100.488,0.823-213.06-6.838-297.963-30.996c-5.338-0.92,2.302-0.572-3-3c-7.676-3.516-18.506-4.203-27.996-6.999
			c-134.439-39.617-267.048-84.452-381.952-142.982c114.318,52.397,250.313,96.85,392.951,129.984
			c110.376,25.64,234.374,39.104,345.956,28.997c33.783-3.061,67.638-6.827,101.987-10.999
			c153.382-18.63,295.038-56.358,401.95-121.984c109.6-67.277,159.621-189.574,177.978-345.957
			c-5.165-1.349-11.728,6.444-16.998,10.999c-38.43,33.209-82.669,63.293-128.983,89.989
			c-106.355,61.303-220.293,113.25-378.953,122.985c-76.286,4.681-157.095-1.271-235.971-9.999
			c-254.979-28.213-524.218-59.992-814.897-59.992c-20.137,0-40.594-0.398-59.993-1c-18.171-0.563-35.308-2.843-50.994-3
			c-67.419-0.671-137.692,12.164-193.976,26.997c-58.093,15.31-112.453,34.934-158.98,60.992c145.465-7.356,292.861-9.688,434.946,0
			c70.247,4.79,140.435,6.804,209.974,9.999c70.472,3.237,140.246,6.728,208.974,9.999c139.005,6.617,280.805,18.272,421.947,24.997
			c69.577,3.315,142.104,9.872,213.973,6.999c69.743-2.788,136.413-11.233,197.976-24.997c6.066,1.23-4.066,1.77,2,3
			c94.982-22.336,177.061-57.576,243.969-107.987c-28.951,30.179-72.685,50.655-112.985,72.991
			c-42.829,23.737-112.852,48.253-173.979,60.992c-100.765,21-227.988,21.401-344.956,15.998c-2.014-0.093-1.552,1.969-2,2
			c-0.648,0.045-15.646-1.747-20.998-2c-4.267-0.202-7.645-1.058-11.998-1c-2.021,0.027-6.29,2.876-7.999-1
			c-12.426,0.712-24.445-0.307-36.995-1c-85.758-4.735-172.946-7.358-268.967-12.999c-110.982-6.519-219.396-10.334-336.958-13.998
			c-71.43-2.226-149.719-4.629-240.97-6c-22.764-0.342-44.201-0.008-62.992,0c-110.392,0.048-238.477,8.778-351.956,18.998
			c15.073,3.79,28.929,9.693,42.995,15.998c13.785,6.179,26.608,14.282,38.995,18.998c3.646,1.388,7.982,0.524,11.999,2
			c11.599,4.263,30.609,19.103,41.995,26.997c67.777,46.99,127.916,101.322,181.977,161.979
			c21.992,24.675,44.304,47.214,71.991,64.992c52.92,33.98,125.647,67.907,198.975,75.99c86.359,9.52,158.496-15.345,227.972-39.995
			c-9.531,7.467-22.771,11.226-34.996,15.998C2973.654,2788.92,3016.804,2765.413,3056.375,2743.657z M1488.57,2477.69
			c113.379,5.012,206.936-18.333,306.961-29.996c-48.378-143.931-98.035-286.583-147.981-428.946
			C1595.059,2172.23,1541.381,2324.527,1488.57,2477.69z"/>
		<path fill-rule="evenodd" clip-rule="evenodd" d="M2792.407,199.975c108.771-5.18,216.672-0.253,317.96,9.999
			c299.049,30.269,558.954,103.221,786.901,200.975c310.274,133.06,566.938,312.401,791.901,525.935
			c112.674,106.949,214.642,225.694,305.961,352.956c91.54,127.568,175.232,263.676,245.97,412.948
			c141.466,298.525,241.276,644.361,252.968,1063.867c6.104,219.01-15.301,421.338-52.992,603.924
			c-93.224,451.578-286.069,813.519-529.935,1117.86c-244.351,304.949-548.735,548.316-919.885,726.909
			c-222.602,107.113-472.912,186.215-759.905,227.972c-96.862,14.093-197.184,20.992-303.962,24.997
			c-217.199,8.146-419.452-14.544-603.924-52.994c-453.713-94.568-813.883-286.694-1117.86-529.934
			c-181.711-145.402-342.468-316.064-480.94-506.937c-230.465-317.676-406.235-696.01-473.941-1172.854
			c-26.375-185.755-35.166-419.429-14.998-621.922c49.521-497.222,215.162-887.266,432.946-1213.848
			c44.224-66.317,90.611-129.11,139.982-189.976c146.465-180.567,315.091-343.468,506.937-480.94
			c320.171-229.428,693.973-405.948,1172.853-473.941C2585.037,211.258,2685.183,205.081,2792.407,199.975z M3940.264,2117.735
			c-11.346,15.511-39.044,56.152-65.992,52.993c-11.954-1.401-20.271-19.417-24.997-31.996
			c-4.934-13.135-10.558-32.366-11.998-45.994c-5.606-53.03,13.095-106.387,28.996-144.982
			c17.149-41.622,34.85-78.94,53.993-120.985c16.352-35.913,35.801-81.441,39.995-133.983c1.947-24.397-1.485-51.617-3.999-80.99
			c-2.132-24.909-0.267-59.574-7.999-79.99c-6.59-17.397-28.21-33.797-48.994-32.996c-28.124,1.083-49.036,31.515-60.992,50.994
			c-32.889,53.582-51.185,126.308-64.992,195.976c-17.284,87.207-29.526,178.265-20.997,275.965
			c1.174,13.454,5.335,32.204,2.999,40.995c-1.549,5.831-18.386,17.552-25.996,23.997c-10.525,8.913-19.948,16.199-27.997,22.997
			c-18.38,15.524-35.531,33.809-54.993,45.994c-26.53,16.611-90.915,36.472-132.983,19.998
			c-15.883-6.22-40.688-22.587-38.995-40.995c0.904-9.837,16.179-19.046,27.997-25.997c35.408-20.824,74.725-36.34,107.986-54.993
			c42.425-23.792,93.214-60.531,93.988-123.984c0.77-63.058-38.773-87.274-98.988-86.989
			c-72.153,0.341-125.354,30.134-163.979,67.991c-36.692,35.963-74.029,89.31-81.99,149.981c-1.681,12.812,1.766,17.021,2,30.996
			c-24.145-2.519-50.32-3.007-65.992-13.998c0.674-25.542,17.836-31.109,27.997-48.994c6.257-11.014,10.776-24.678,14.998-40.995
			c7.178-27.741,16.829-70.487,2.999-96.988c-10.316-19.769-40.741-35.068-70.991-31.996c-53.445,5.427-70.678,74.93-73.99,130.983
			c-2.888,48.867,18.806,89.479,42.994,115.986c-27.848,20.523-59.058,56.783-104.986,59.992
			c-33.183,2.319-63.923-16.266-61.992-49.994c1.196-20.913,7.242-43.991,10.998-66.992c3.666-22.448,6.184-45.692,12.999-65.992
			c6.56-19.541,14.63-37.937,21.997-55.993c11.813-28.953,26.532-55.36,28.996-90.988c-19.475-2.19-37.474-5.854-55.993-8.999
			c-58.055,44.933-88.473,117.502-105.986,202.975c-48.956,27.034-58.433,93.549-138.982,88.989
			c1.294-57.229,10.771-112.966,26.996-163.979c7.147-22.472,14.784-45.296,22.997-71.991c4.378-14.229,26.601-58.14,12.999-76.99
			c-9.775-13.547-39.315-2.467-49.994,3c-15.819,8.097-26.305,18.44-39.995,25.997c-18.562-29.219-53.127-56.226-95.988-55.993
			c-50.038,0.271-91.896,30.153-124.984,55.993c-36.836,28.767-63.221,63.951-80.99,100.987
			c-73.845,6.742-21.206-112.688-41.995-154.98c-15.074-30.666-62.414-3.005-76.99,10.999
			c-16.005,15.376-25.207,36.046-29.996,57.993c-10.939,50.122-19.67,97.171-41.995,132.983
			c-16.513-31.147-10.927-84.395-16.998-125.984c-14.412-7.602-25.801-21.733-44.995-19.997
			c-13.558,1.226-25.17,14.482-29.996,21.997c-26.748,41.654-6.418,112.374,4,155.98c4.429,18.539,11.842,36.005,11.999,50.994
			c0.139,13.288-6.646,29.821-10.999,43.995c-4.539,14.776-8.507,28.899-13.999,41.995c-9.013,21.492-25.49,61.327-53.993,57.993
			c-23.136-2.707-31.498-45.485-37.995-69.991c-20.173-76.091-29.214-148.292-35.996-234.971c-1.275-16.301-5.015-40.305-1-51.993
			c5.575-16.228,33.021-19.718,49.994-25.997c19.51-7.218,33.958-14.504,48.994-26.997c-4.466-9.532-6.949-21.047-10.999-30.996
			c-30.7,8.629-59.487,19.169-88.989,28.997c-2.101-13.719-10.836-24.186-12.999-39.995c-2.852-20.848,1.27-42.221-1-61.992
			c-3.36-29.275-13.48-61.045-39.995-65.992c-48.993-9.141-45.186,63.972-41.995,109.986c4.113,59.322-12.982,94.376-53.993,106.987
			c0,0.667,0,1.333,0,2c3.452,8.547,4.463,19.535,9.999,25.997c14.052,7.651,44.497,4.119,50.993,17.998
			c2.517,5.376,1.289,15.336,2,23.997c4.715,57.397,10.297,118.834,18.998,169.979c5.026,29.546,14.484,54.246,23.997,82.989
			c9.184,27.748,14.999,56.994,32.996,74.991c28.739,28.739,81.672,31.2,116.985,6c31.744-22.654,50.494-57.412,67.991-93.988
			c7.687,22.643,16.773,43.886,24.997,65.992c25.199-9.463,50.437-18.888,74.991-28.997c-4.584-99.729-0.701-194.854,15.998-277.965
			c38.819,21.908,60.145,66.415,121.985,61.993c-11.338,87.425,27.983,159.748,105.987,164.979
			c49.745,3.336,83.895-11.904,107.986-35.996c5.426-5.426,18.292-22.409,24.997-23.997c6.48-1.534,11.762,2.375,18.998,1
			c12.798,36.086,29.719,73.146,70.991,76.99c71.345,6.646,118.197-57.752,147.981-93.988
			c3.328,55.753,26.921,93.613,63.992,116.985c11.737,7.4,29.368,18.72,40.995,19.998c9.932,1.09,26.51-3.582,38.995-7
			c84.338-23.085,164.992-60.682,237.97-87.989c9.461,29.413,25.829,51.99,47.994,70.991c20.719,17.762,47.742,36.574,80.99,38.995
			c31.468,2.292,63.938-0.896,90.988-4c26.83-3.079,51.105-14.404,69.991-25.997c40.515-24.87,71.163-57.998,101.987-87.989
			c1.898,70.141,56.085,128.309,131.983,96.988c49.526-20.438,82.664-70.524,106.986-110.986c-1.77-9.562-2.256-20.408-2.999-30.996
			C3973.227,2071.187,3957.63,2093.991,3940.264,2117.735z M2928.39,2801.649c12.226-4.772,25.465-8.531,34.996-15.998
			c-69.476,24.65-141.613,49.515-227.972,39.995c-73.328-8.083-146.055-42.01-198.975-75.99c-27.687-17.778-50-40.317-71.991-64.992
			c-54.062-60.657-114.2-114.99-181.977-161.979c-11.386-7.894-30.396-22.733-41.995-26.997c-4.016-1.476-8.352-0.612-11.999-2
			c-12.387-4.715-25.21-12.819-38.995-18.998c-14.065-6.305-27.922-12.208-42.995-15.998
			c113.479-10.219,241.564-18.95,351.956-18.998c18.791-0.008,40.228-0.342,62.992,0c91.251,1.37,169.54,3.773,240.97,6
			c117.561,3.664,225.975,7.479,336.958,13.998c96.021,5.64,183.209,8.264,268.967,12.999c12.55,0.693,24.569,1.712,36.995,1
			c1.709,3.876,5.978,1.027,7.999,1c4.354-0.058,7.731,0.798,11.998,1c5.352,0.253,20.35,2.044,20.998,2
			c0.448-0.031-0.014-2.093,2-2c116.968,5.403,244.191,5.002,344.956-15.998c61.127-12.739,131.149-37.255,173.979-60.992
			c40.301-22.336,84.034-42.812,112.985-72.991c-66.908,50.411-148.986,85.65-243.969,107.987c-6.066-1.23,4.066-1.77-2-3
			c-61.563,13.764-128.232,22.209-197.976,24.997c-71.869,2.873-144.396-3.684-213.973-6.999
			c-141.143-6.725-282.942-18.38-421.947-24.997c-68.729-3.271-138.502-6.761-208.974-9.999
			c-69.539-3.195-139.727-5.209-209.974-9.999c-142.084-9.688-289.481-7.356-434.946,0c46.528-26.059,100.887-45.683,158.98-60.992
			c56.283-14.833,126.557-27.668,193.976-26.997c15.686,0.156,32.822,2.436,50.994,3c19.399,0.602,39.856,1,59.993,1
			c290.68,0,559.918,31.779,814.897,59.992c78.876,8.728,159.685,14.68,235.971,9.999c158.66-9.735,272.598-61.682,378.953-122.985
			c46.314-26.695,90.554-56.78,128.983-89.989c5.271-4.554,11.833-12.348,16.998-10.999
			c-18.356,156.383-68.378,278.68-177.978,345.957c-106.912,65.626-248.568,103.354-401.95,121.984
			c-34.35,4.172-68.204,7.938-101.987,10.999c-111.582,10.107-235.58-3.357-345.956-28.997
			c-142.639-33.134-278.633-77.586-392.951-129.984c114.904,58.531,247.513,103.366,381.952,142.982
			c9.49,2.796,20.32,3.483,27.996,6.999c5.302,2.428-2.338,2.079,3,3c84.903,24.158,197.475,31.819,297.963,30.996
			c-22.216,5.449-46.999,13.658-69.991,14.998c2.554-0.445,4.597-1.402,5.999-3c-37.395,5.033-72.717,16.958-111.986,20.998
			c-160.299,16.49-357.588,13.791-483.939-29.997c-80.069-27.748-147.839-78.254-211.973-121.984
			c-22.857-15.585-44.36-26.899-70.991-37.996c-30.284-12.618-62.057-26.561-97.988-27.996
			c18.639,5.358,37.455,10.539,54.993,16.998c15.595,12.049,34.096,19.68,50.994,30.996
			c51.847,34.719,98.602,74.399,150.981,107.987c20.597,13.208,33.354,19.665,47.994,28.996c9.621,6.133,20.14,11.448,33.996,18.998
			c29.586,16.12,77.173,31.078,120.984,39.995c99.479,20.247,220.429,16.34,324.96,7.999
			c54.383-4.339,103.497-11.284,147.981-23.997c22.393-6.399,43.766-13.59,64.991-20.997c21.254-7.417,42.839-16.997,64.992-21.998
			c24.008-5.419,50.04-3.71,73.991-5.999c168.772-16.13,324.076-54.417,442.944-120.985
			c134.601-75.379,202.048-231.866,206.974-435.946c-5.76-4.392-8.118-8.426-15.998-8.999
			c-16.828-1.224-20.909,14.107-29.996,24.997c-21.194,25.399-50.181,46.497-77.99,65.992
			c-28.836,20.215-59.689,39.539-88.988,55.993c-65.104,36.562-123.701,66.71-200.976,87.989
			c-39.168,10.786-79.889,17.825-117.985,21.998c-27.353,2.996-55.381,5.228-91.988,5c-87.795-0.548-167.96-9.353-250.969-16.998
			c-79.407-7.314-144.509-13.88-223.972-20.998c-167.651-15.015-360.382-23.862-548.931-21.997
			c-162.021,1.603-285.152,31.905-392.951,82.99c-14.896,7.059-29.664,18.807-41.995,21.997c-8.874,2.296-20.785,1.185-30.996,2
			c-70.833,5.652-145.316,13.385-209.974,21.997c-66.009-189.596-134.194-393.033-201.975-583.927
			c-8.861-24.956-14.213-68.268-41.995-70.991c-20-1.96-25.786,12.202-31.996,29.996
			c-78.025,223.599-155.52,448.938-232.971,669.916c-112.244-12.407-212.63-42.005-303.962-71.991
			c86.224,45.093,183.944,78.689,294.963,98.988c-30.862,89.456-61.46,179.176-92.989,267.966
			c-27.321-2.877-36.893,9.612-49.994,21.997c-7.552,7.14-20.645,16.04-16.998,27.997c2.743,8.994,24.488,7,40.995,6.999
			c36.293,0,61.597,0,95.988,0c14.875,0,38.094,3.136,40.995-7.999c2.899-11.129-6.916-17.914-12.999-23.997
			c-13.032-13.033-19.218-20.93-36.995-25.997c30.365-85.954,59.51-173.127,89.989-258.968
			c107.137,14.645,231.122,2.935,335.958-5.999c30.605,88.38,61.435,176.535,90.988,265.967
			c-20.964,0.595-26.194,12.196-37.995,23.997c-6.64,6.64-18.768,13.619-15.998,24.997c3.114,12.794,43.665,8,63.992,7.999
			c51.087,0,92.029,0,143.982,0c20.862,0,59.306,5.623,61.992-9.999c1.862-10.825-8.709-19.271-15.998-25.997
			c-14.102-13.015-22.667-23.747-49.994-20.998c-30.986-94.666-66.962-189.671-95.988-282.965
			c43.324-5.022,88.806-13.641,131.983-19.998c14.75-2.171,32.061-6.633,45.994-4.999c23.022,2.7,49.685,22.969,68.991,36.995
			c63.248,45.948,126.442,89.583,175.978,143.982c16.431,18.044,33.248,36.616,49.994,55.993
			c16.783,19.419,34.223,38.66,51.994,54.993c20.907,19.216,47.487,36.392,67.992,47.994c4.957,2.804,11.031,4.178,15.998,6.999
			c4.009,2.277,3.184,0.835,4.999,1c0.75,0.068,3.597,3.833,4,4c1.784,0.734,5.389,0.336,6.999,1c4.439,1.83,8.724,5.941,11.999,7
			c19.151,6.185,39.692,13.021,58.993,18.997c18.787,5.817,37.054,8.444,52.994,10.999c38.311,6.14,71.504,7.421,124.984-2
			c90.625-15.965,161.104-55.384,222.972-104.987C3016.804,2765.413,2973.654,2788.92,2928.39,2801.649z M1371.585,3032.621
			c-61.686,18.909-108.301,64.484-127.984,121.984c-15.247,44.541-17.763,99.328-5.999,144.981
			c22.295,86.525,84.449,139.115,148.981,183.978c67.691,47.059,150.721,70.846,210.974,122.984
			c28.021,24.247,58.868,57.114,62.992,103.987c2.819,32.034-3.519,62.136-12.999,80.989
			c-34.105,67.835-149.137,80.495-229.971,48.994c-56.333-21.953-99.784-57.18-128.984-105.986
			c-9.663-16.151-13.994-41.994-36.995-41.995c-12.86,0-20.291,6.952-22.997,14.998c-5,14.867,6.456,32.701,11.999,43.995
			c44.558,90.782,123.548,156.096,234.97,175.978c77.313,13.796,141.447-3.169,192.976-33.996
			c47.728-28.553,78.815-82.492,86.989-147.981c9.253-74.14-16.45-137.807-48.994-180.977
			c-35.542-47.148-79.617-81.382-124.984-109.986c-51.885-32.716-98.428-45.467-153.98-80.99
			c-43.287-27.68-96.001-69.26-100.987-133.983c-2.606-33.827,1.988-58.28,13.998-80.99c37.133-70.216,154.77-78.476,238.97-42.994
			c52.14,21.972,91.222,57.658,119.985,104.987c9.873,16.245,15.438,39.077,35.996,38.995c10.628-0.043,18.576-5.527,21.997-14.999
			c5.62-15.555-5.817-35.34-12.998-49.993c-22.776-46.477-55.505-82.831-92.989-109.986
			c-51.034-36.973-126.468-69.174-206.974-63.992C1418.053,3022.329,1392.262,3026.282,1371.585,3032.621z M2407.456,3098.612
			c2.77,10.599,28.165,42.109,41.995,35.996c9.288-4.106,6-31.431,6-50.994c0-21.262,3.275-43.098-4-53.993
			c-9.001-13.48-48.678-9.999-69.992-9.999c-163.115,0-324.343,0-481.939,0c-41.713,0-91.554-9.402-100.987,17.998
			c-1.811,14.857-1,31.475-1,50.993c0,15.879-4.32,42.191,6.999,45.995c10.319,3.467,17.389-8.39,22.997-13.999
			c12.979-12.979,23.925-22.876,18.998-50.993c72.991,0,145.981,0,218.972,0c0,270.632,0,541.267,0,811.898
			c-7.391,2.539-12.216,3.409-16.998,6.999c-6.383,4.792-29.566,25.814-25.997,36.995c3.111,9.745,33.728,5.999,48.994,5.999
			c41.805,0,71.965,0.001,109.986,0c17.555,0,44.591,3.761,47.994-6.999c2.521-7.97-3.218-13.216-8.999-18.997
			c-10.863-10.864-18.23-20.361-32.996-24.997c0.667-269.965-1.333-542.6,1-810.898c72.658,0,145.315,0,217.973,0
			C2407,3081.078,2405.286,3090.311,2407.456,3098.612z M2536.439,3155.605c-11.929,21.116-19.695,41.636-25.997,65.991
			c-6.448,24.921-7.997,51.593-7.999,83.99c-0.008,118.449,0.008,248.726,0,368.953c-0.004,56.887,20.293,103.401,44.995,139.983
			c50.188,74.324,126.985,120.463,251.968,116.984c112.785-3.139,190.708-55.051,234.971-133.982
			c23.184-41.344,33.993-86.46,33.995-149.981c0.005-124.508-0.005-244.518,0-368.954c0.003-57.94-20.051-105.722-43.994-140.982
			c-49.467-72.848-129.101-122.832-251.969-116.985C2651.641,3026.369,2582.007,3074.938,2536.439,3155.605z M3681.296,3463.566
			c38.136-34.036,71.469-81.354,83.989-132.983c9.088-37.471,9.351-81.805,1-119.984c-5.574-25.484-20.278-53.214-32.996-73.991
			c-38.483-62.873-108.36-120.663-208.974-115.985c-91.423,4.251-191.245,0.005-285.964,0c-14.896-0.001-30.987-2.424-33.996,6.999
			c-4.032,12.627,16.876,27.644,26.996,34.996c4.363,3.169,10.088,6.207,15.998,7.999c0,270.299,0,540.599,0,810.898
			c-6.022,2.469-12.072,4.406-16.998,7.999c-8.723,6.362-30.899,23.484-26.996,35.995c2.917,9.351,33.268,5.999,48.994,5.999
			c39.89,0,71.659,0.001,111.985,0c17.77,0,44.996,4.255,47.994-7.998c2.53-10.341-17.575-28.481-25.996-34.996
			c-4.579-3.542-10.239-3.973-15.998-7.999c0.666-119.985-1.333-242.636,0.999-360.955
			c65.519,18.256,102.932,63.342,126.984,118.985c8.26,19.108,12.494,39.996,19.998,61.992c7.719,22.63,20.97,48.06,31.996,69.991
			c10.946,21.773,22.852,44.085,35.995,65.992c22.183,36.973,58.447,90.248,109.986,94.987c23.658,2.176,46.013-5.299,60.992-16.997
			c11.796-9.212,31.032-29.829,27.997-50.994c-1.517-10.567-11.299-20.847-25.997-19.997c-19.332,1.117-21.616,25.73-42.995,24.997
			c-17.349-0.597-25.983-21.346-33.995-37.996c-16.076-33.408-26.58-72.364-34.996-109.985
			c-4.386-19.604-6.366-41.363-12.998-59.993c-9.876-27.743-31.933-58.043-48.994-78.99c-19.177-23.544-40.722-42.368-61.992-61.992
			C3589.343,3523.078,3642.061,3498.585,3681.296,3463.566z M4017.254,3048.619c5.819-5.35,14.899-12.003,12.998-20.998
			c-2.577-12.189-30.921-7.999-48.994-7.999c-40.501,0-76.772,0-113.985,0c-19.702,0-44.52-3.422-57.993,0
			c-19.342,4.913-3.707,22.875,5,30.996c10.603,9.891,19.768,19.318,35.995,18.998c71.313,153.356,139.923,306.733,211.974,459.942
			c5.101,10.846,12.524,22.169,13.998,30.996c4.077,24.418-0.001,53.807,0,79.99c0.004,81.305-0.002,160.506,0,240.97
			c-5.439,1.869-10.65,3.084-14.998,5.999c-6.438,4.317-31.699,26.396-27.996,37.995c2.988,9.361,32.854,6,48.993,5.999
			c39.236,0,69.747,0.001,109.986,0c15.609,0,45.888,3.732,48.994-5.999c3.296-10.324-6.289-14.71-11.998-20.997
			c-10.61-11.684-15.844-19.422-30.996-23.997c-0.003-80.185,0.003-160.342,0-239.97c-0.001-23.555-4.3-59.303,0-80.99
			c1.608-8.118,9.258-19.84,13.998-29.996c72.278-154.881,141.728-307.781,213.973-459.942c10.182-0.38,20.197,0.906,27.997-2
			c10.608-3.952,39.225-29.239,34.995-40.995c-3.215-8.936-22.249-6.999-38.995-6.999c-33.372,0-59.414,0-91.988,0
			c-13.861,0-35.239-3.234-36.995,8.999c-1.255,8.742,7.39,14.857,13.998,20.997c11.81,10.974,16.613,19.712,35.995,19.998
			c-65.067,138.574-128.117,279.164-193.976,416.947c-62.948-140.359-129.294-277.32-191.976-417.947
			C4003.384,3068.125,4006.45,3058.55,4017.254,3048.619z"/>
	</g>
</g>
</svg>
