<?xml version="1.0" standalone="no"?>
<!DOCTYPE svg PUBLIC "-//W3C//DTD SVG 20010904//EN"
 "http://www.w3.org/TR/2001/REC-SVG-20010904/DTD/svg10.dtd">
<svg version="1.0" xmlns="http://www.w3.org/2000/svg"
 width="4961.000000pt" height="3508.000000pt" viewBox="0 0 4961.000000 3508.000000"
 preserveAspectRatio="xMidYMid meet">
<metadata>
Created by potrace 1.13, written by Peter Selinger 2001-2015
</metadata>
<g transform="translate(0.000000,3508.000000) scale(0.100000,-0.100000)"
fill="black" stroke="thick">
<path d="M25850 27591 c-41 -4 -102 -15 -135 -24 -33 -9 -89 -19 -125 -22 -36
-4 -90 -18 -120 -32 -30 -14 -69 -32 -86 -39 -96 -45 -269 -233 -342 -373 -22
-42 -47 -89 -55 -106 -27 -53 -65 -149 -72 -185 -4 -19 -16 -51 -26 -71 -10
-20 -23 -58 -30 -85 -7 -27 -20 -65 -29 -84 -10 -19 -21 -51 -25 -70 -4 -19
-18 -59 -31 -88 -13 -28 -27 -70 -30 -91 -9 -59 3 -62 202 -51 285 16 271 12
367 93 34 29 73 60 87 69 14 10 48 34 75 53 28 20 66 47 85 61 19 13 49 34 67
46 79 57 240 165 263 176 14 7 50 28 80 47 94 58 201 115 226 121 13 3 26 10
29 14 10 16 300 150 325 150 6 0 29 9 52 21 23 12 64 28 92 36 28 8 56 19 62
24 6 5 42 16 80 24 38 9 92 23 119 32 28 9 77 21 109 27 70 13 87 32 63 70
-10 14 -34 34 -55 44 -20 11 -69 37 -108 60 -38 22 -90 46 -115 52 -24 7 -60
20 -79 30 -19 9 -59 20 -89 24 -30 4 -91 16 -135 27 -68 17 -123 21 -351 24
-148 2 -304 0 -345 -4z"/>
<path d="M21864 27530 c-12 -4 -24 -15 -27 -24 -4 -10 -19 -16 -39 -16 -18 0
-44 -7 -58 -15 -14 -8 -41 -21 -60 -30 -19 -9 -42 -20 -50 -25 -8 -6 -42 -24
-75 -40 -33 -16 -67 -34 -75 -40 -8 -5 -31 -17 -50 -25 -19 -9 -62 -31 -95
-50 -33 -18 -71 -38 -85 -44 -14 -6 -36 -17 -50 -25 -14 -8 -52 -28 -85 -45
-68 -34 -180 -101 -311 -186 -120 -78 -201 -130 -312 -201 -89 -56 -258 -179
-474 -345 -53 -41 -148 -113 -212 -162 -194 -147 -698 -619 -916 -857 -107
-117 -221 -240 -252 -274 -32 -33 -84 -94 -115 -134 -32 -41 -80 -102 -108
-137 -27 -34 -67 -84 -87 -111 -21 -27 -84 -107 -139 -179 -89 -114 -195 -268
-357 -520 -96 -150 -155 -241 -172 -265 -15 -22 -59 -102 -140 -255 -30 -57
-118 -220 -167 -310 -30 -56 -95 -187 -149 -299 -13 -28 -24 -56 -24 -64 0 -8
-8 -29 -19 -46 -10 -17 -24 -49 -31 -71 -7 -22 -16 -45 -21 -51 -10 -12 -63
-138 -89 -211 -10 -28 -25 -62 -33 -75 -8 -12 -20 -41 -27 -63 -7 -22 -19 -49
-26 -60 -7 -11 -19 -47 -28 -80 -15 -61 -43 -149 -78 -242 -11 -29 -26 -76
-33 -105 -14 -54 -40 -133 -81 -248 -13 -36 -30 -94 -38 -130 -7 -36 -21 -94
-30 -130 -23 -96 -44 -185 -62 -270 -8 -41 -26 -118 -39 -170 -35 -139 -73
-343 -80 -435 -3 -44 -17 -147 -30 -230 -64 -410 -80 -687 -79 -1335 1 -477 3
-539 22 -675 12 -82 26 -217 32 -300 6 -82 18 -181 26 -220 8 -38 20 -106 25
-150 6 -44 21 -135 35 -201 13 -67 24 -135 24 -151 0 -16 7 -53 15 -83 8 -30
26 -104 40 -163 13 -59 32 -129 40 -155 27 -79 0 -148 -32 -81 -52 109 -108
229 -143 309 -22 52 -48 111 -57 130 -9 19 -26 62 -39 95 -51 138 -72 192 -88
220 -9 17 -16 36 -16 44 0 8 -9 33 -19 55 -29 60 -70 171 -92 250 -11 38 -26
80 -33 95 -8 14 -19 50 -25 79 -6 30 -16 63 -23 75 -6 12 -22 58 -34 102 -22
78 -33 115 -74 240 -11 34 -27 94 -34 135 -8 41 -23 113 -35 160 -31 126 -49
206 -66 290 -9 41 -24 107 -35 145 -10 39 -24 120 -30 180 -7 61 -18 141 -26
180 -8 38 -21 129 -29 202 -8 72 -22 162 -30 200 -9 38 -19 168 -25 298 -5
127 -17 334 -26 460 -14 209 -14 256 0 520 8 160 18 378 21 485 5 130 15 242
30 335 13 77 26 176 30 220 4 44 15 127 25 185 11 58 24 157 30 220 6 63 20
147 30 185 10 39 21 88 24 110 4 22 17 87 31 145 42 180 74 324 80 360 6 33
28 131 76 335 11 50 27 122 34 160 12 62 47 185 77 270 6 17 21 67 33 112 13
45 27 88 31 95 4 7 18 48 30 93 12 44 30 103 39 130 8 28 29 93 45 145 59 188
99 306 119 345 12 21 21 46 21 55 0 8 8 29 19 45 10 17 24 48 31 70 7 22 18
50 26 61 7 12 22 46 32 75 25 69 60 154 82 199 10 19 21 46 25 60 15 53 80
179 176 345 12 22 35 63 50 90 25 47 33 62 73 143 23 47 20 59 -7 31 -13 -13
-32 -31 -43 -40 -10 -9 -34 -36 -52 -60 -18 -24 -76 -100 -128 -167 -85 -112
-144 -197 -211 -304 -13 -21 -34 -55 -47 -75 -33 -54 -161 -258 -228 -366 -32
-51 -68 -112 -81 -137 -281 -541 -469 -917 -501 -1005 -8 -22 -24 -58 -35 -80
-12 -21 -21 -46 -21 -55 0 -8 -12 -33 -25 -55 -14 -22 -25 -47 -25 -56 0 -9
-11 -36 -23 -60 -13 -24 -29 -60 -35 -79 -7 -19 -23 -57 -37 -84 -14 -27 -25
-57 -25 -66 0 -9 -4 -20 -10 -26 -5 -5 -21 -37 -34 -69 -13 -33 -41 -98 -61
-145 -42 -96 -90 -223 -109 -290 -7 -25 -20 -58 -28 -75 -9 -16 -21 -50 -27
-75 -7 -25 -20 -65 -30 -90 -26 -60 -59 -162 -78 -235 -9 -33 -26 -91 -39
-128 -13 -38 -24 -78 -24 -90 -1 -12 -8 -40 -16 -62 -27 -71 -78 -265 -124
-480 -17 -77 -42 -189 -55 -250 -14 -60 -31 -155 -40 -210 -8 -55 -21 -140
-29 -190 -39 -240 -56 -372 -66 -505 -5 -80 -14 -183 -20 -230 -32 -284 -36
-642 -10 -1118 5 -103 14 -276 20 -385 6 -109 21 -264 35 -345 13 -81 26 -181
30 -222 3 -41 13 -114 21 -161 8 -47 21 -136 29 -198 8 -61 23 -142 34 -179
10 -37 26 -103 35 -147 9 -44 23 -109 31 -145 8 -36 26 -112 40 -170 13 -58
27 -123 31 -145 5 -36 15 -69 70 -240 9 -27 26 -86 39 -130 13 -44 31 -102 40
-130 9 -27 30 -95 47 -150 17 -55 43 -135 59 -177 16 -42 29 -82 29 -88 0 -6
8 -25 17 -43 9 -18 27 -59 39 -92 47 -128 72 -191 88 -220 33 -62 8 -107 -39
-69 -13 11 -85 69 -161 129 -75 61 -178 144 -228 186 -151 126 -508 482 -625
622 -223 268 -299 364 -344 432 -26 39 -56 84 -67 100 -69 98 -234 356 -250
390 -11 22 -58 112 -105 200 -47 88 -94 180 -105 205 -11 25 -29 61 -40 81
-11 20 -20 43 -20 50 0 8 -14 41 -30 74 -16 33 -30 66 -30 74 0 7 -9 30 -19
50 -29 53 -70 158 -90 226 -10 33 -23 70 -29 82 -7 12 -18 48 -26 80 -8 32
-23 83 -34 113 -34 95 -70 223 -77 270 -3 25 -15 72 -25 105 -11 33 -24 89
-30 125 -7 36 -18 90 -26 120 -8 30 -21 109 -30 175 -9 66 -22 147 -29 180 -8
33 -19 128 -25 210 -5 83 -12 166 -15 185 -3 19 -10 183 -15 363 -9 277 -8
354 5 500 8 95 17 181 20 193 5 25 -13 94 -25 94 -4 0 -17 -26 -28 -57 -11
-32 -37 -103 -57 -158 -55 -150 -81 -225 -98 -275 -24 -72 -77 -271 -114 -425
-8 -33 -25 -98 -38 -145 -23 -85 -42 -191 -70 -395 -9 -60 -23 -155 -31 -210
-9 -55 -21 -174 -26 -265 -11 -191 -4 -658 11 -775 6 -44 18 -138 27 -210 8
-71 24 -161 34 -200 10 -38 24 -106 30 -149 6 -44 22 -115 35 -158 14 -44 25
-86 25 -94 0 -8 7 -28 15 -45 9 -16 24 -62 35 -102 27 -100 58 -195 80 -242
10 -22 35 -78 55 -125 20 -47 47 -107 59 -135 13 -27 27 -61 31 -75 4 -14 15
-36 24 -50 9 -14 24 -41 34 -60 9 -19 31 -60 49 -91 18 -31 57 -99 86 -150 67
-118 102 -172 199 -306 21 -29 56 -79 77 -110 22 -32 72 -96 111 -143 39 -47
104 -125 145 -175 40 -49 139 -159 219 -243 132 -138 248 -242 751 -668 76
-65 538 -382 611 -419 33 -17 39 -51 11 -59 -10 -4 -54 3 -98 15 -43 12 -124
32 -179 44 -118 26 -215 49 -305 71 -36 9 -103 25 -149 36 -45 10 -95 25 -110
32 -14 8 -42 17 -61 20 -38 8 -208 57 -280 82 -25 9 -76 24 -115 34 -38 10
-96 27 -127 39 -32 12 -63 21 -70 21 -7 0 -26 7 -43 16 -27 15 -55 25 -210 79
-27 10 -70 27 -95 38 -25 11 -65 25 -90 33 -25 7 -74 25 -110 39 -61 25 -92
39 -235 105 -33 15 -87 39 -120 54 -33 15 -80 38 -105 51 -25 12 -56 26 -70
30 -14 4 -101 51 -195 103 -93 52 -192 106 -218 121 -27 14 -65 35 -85 46 -21
11 -97 61 -170 110 -73 50 -150 101 -171 115 -74 48 -97 66 -251 189 -408 326
-706 664 -903 1024 -48 87 -87 161 -87 165 0 4 -10 23 -22 42 -24 38 -55 120
-92 243 -25 81 -40 107 -62 107 -54 0 -83 -266 -56 -520 13 -117 66 -323 91
-354 5 -6 16 -36 24 -66 20 -72 72 -201 97 -240 5 -8 60 -100 121 -205 148
-251 165 -278 279 -430 443 -590 1174 -1280 1799 -1699 218 -146 283 -186 416
-255 22 -12 67 -37 100 -55 82 -47 217 -113 385 -189 169 -78 216 -96 345
-139 33 -11 74 -26 90 -34 60 -28 217 -77 410 -128 33 -9 89 -25 125 -36 36
-11 110 -26 165 -34 55 -8 147 -24 205 -35 58 -11 161 -30 229 -43 68 -12 130
-28 139 -34 24 -18 8 -39 -69 -91 -39 -26 -91 -61 -115 -78 -114 -81 -220
-148 -265 -170 -19 -9 -60 -30 -92 -48 -79 -44 -194 -102 -242 -123 -185 -78
-343 -135 -428 -154 -43 -10 -95 -25 -115 -33 -21 -8 -60 -18 -87 -22 -28 -3
-113 -18 -190 -33 -133 -25 -155 -26 -460 -25 -287 0 -330 2 -421 22 -56 11
-136 26 -178 31 -41 6 -95 19 -118 30 -24 10 -70 24 -103 30 -33 7 -71 18 -85
25 -14 7 -52 18 -85 25 -62 13 -170 53 -253 95 -28 14 -54 25 -60 25 -5 0 -34
13 -64 28 -29 16 -62 31 -73 35 -11 4 -42 20 -70 36 -27 16 -70 41 -95 55
-103 59 -228 141 -281 185 -32 25 -122 97 -201 158 -190 149 -886 695 -1066
836 -78 62 -204 160 -280 220 -75 59 -171 134 -212 167 -41 33 -133 106 -205
163 -141 112 -191 145 -201 134 -13 -12 18 -57 125 -181 57 -67 131 -155 164
-196 33 -41 93 -113 133 -160 68 -80 188 -223 383 -459 47 -57 205 -246 351
-421 146 -175 362 -434 480 -575 306 -368 542 -607 766 -777 27 -21 94 -73
149 -115 200 -156 347 -239 690 -392 141 -63 476 -153 680 -183 60 -9 193 -13
395 -12 298 0 309 1 485 32 99 18 218 43 265 56 47 13 108 28 135 34 28 6 88
25 135 42 143 54 242 91 298 110 29 11 65 26 80 34 15 8 119 60 232 116 195
96 230 114 310 165 51 32 123 76 171 105 131 78 186 117 392 272 165 126 207
152 219 140 14 -14 3 -31 -105 -163 -45 -55 -91 -114 -102 -129 -62 -87 -490
-722 -752 -1115 -157 -237 -187 -278 -308 -430 -27 -34 -106 -134 -175 -221
-155 -197 -173 -217 -443 -497 -216 -224 -388 -380 -517 -467 -36 -24 -94 -64
-130 -88 -36 -25 -78 -49 -95 -55 -16 -5 -41 -18 -55 -27 -14 -10 -36 -21 -50
-25 -14 -4 -43 -18 -65 -30 -22 -13 -58 -26 -80 -30 -48 -8 -185 -54 -203 -68
-7 -6 -12 -24 -10 -41 3 -28 9 -33 63 -52 33 -12 85 -32 115 -44 127 -53 152
-60 218 -70 38 -5 96 -16 128 -25 35 -9 128 -18 229 -21 151 -5 190 -3 348 20
97 14 210 37 250 50 39 13 92 27 117 31 42 7 173 54 213 75 35 20 53 29 107
53 141 62 230 107 284 143 32 21 76 50 97 64 278 182 302 202 610 492 217 205
455 457 654 693 290 343 382 472 729 1017 200 315 368 555 407 583 22 17 54
39 69 50 146 106 223 149 298 165 29 6 74 21 99 32 40 17 58 19 151 13 111 -7
197 -29 287 -72 79 -39 80 -39 168 -108 97 -74 204 -197 267 -305 24 -41 54
-91 67 -111 12 -19 23 -39 23 -43 0 -4 9 -20 20 -36 22 -32 56 -183 64 -288 3
-41 -1 -111 -9 -160 -7 -48 -16 -114 -20 -147 -4 -33 -15 -86 -26 -117 -11
-32 -24 -82 -30 -110 -6 -29 -19 -66 -29 -83 -10 -16 -25 -54 -35 -82 -9 -29
-20 -55 -25 -58 -5 -3 -14 -22 -20 -43 -7 -20 -23 -54 -36 -74 -13 -21 -35
-55 -48 -75 -81 -131 -119 -181 -218 -291 -65 -73 -152 -156 -212 -203 -55
-43 -117 -92 -136 -107 -19 -16 -87 -57 -150 -91 -63 -34 -124 -67 -135 -73
-112 -64 -174 -91 -305 -135 -25 -8 -74 -25 -110 -39 -36 -13 -119 -35 -185
-49 -66 -14 -130 -28 -143 -31 -13 -2 -105 -9 -205 -15 -225 -12 -427 2 -572
38 -163 42 -191 41 -166 -6 15 -28 264 -181 295 -181 6 0 38 -13 71 -29 33
-15 83 -31 110 -35 28 -4 84 -17 125 -29 67 -20 99 -22 290 -22 181 0 221 3
253 17 21 10 75 24 120 33 45 9 111 25 147 36 69 21 88 30 302 133 75 36 139
66 142 66 2 0 31 17 63 37 57 36 95 62 173 118 19 14 53 37 75 52 22 14 105
92 185 172 161 162 267 300 349 456 29 55 57 105 61 110 18 22 105 256 126
335 8 30 23 84 34 120 11 36 22 90 25 120 2 30 10 111 16 180 6 69 15 133 21
143 18 34 48 17 151 -85 152 -152 427 -489 427 -524 0 -4 10 -21 23 -38 13
-17 40 -67 61 -111 20 -44 44 -93 53 -110 24 -48 70 -193 87 -275 17 -82 53
-180 67 -180 26 0 38 107 50 446 9 263 9 320 -5 440 -9 77 -24 163 -33 192
-12 38 -13 56 -5 64 8 8 17 1 32 -26 12 -20 26 -36 31 -36 5 0 27 -39 50 -87
22 -49 51 -110 64 -138 13 -27 27 -70 31 -95 3 -25 13 -63 21 -85 8 -22 21
-74 29 -115 30 -152 49 -109 64 137 6 98 12 232 13 298 2 116 3 120 24 123 23
3 172 -83 389 -225 19 -13 74 -44 122 -70 177 -95 198 -106 247 -133 52 -29
301 -153 395 -197 30 -14 75 -36 100 -48 25 -13 56 -26 70 -30 14 -4 36 -15
50 -25 14 -10 36 -20 50 -24 14 -4 50 -17 80 -30 75 -32 153 -63 228 -92 34
-13 92 -36 130 -50 37 -15 94 -35 127 -46 33 -11 83 -28 110 -38 94 -33 180
-62 245 -80 36 -10 81 -25 100 -33 19 -8 73 -25 120 -36 137 -33 200 -50 290
-75 106 -31 290 -73 350 -81 25 -3 92 -16 150 -30 136 -30 396 -72 533 -85
135 -13 199 -25 234 -44 33 -16 300 -302 370 -395 26 -34 71 -94 98 -131 28
-37 70 -94 95 -126 56 -74 83 -114 152 -234 55 -94 128 -240 128 -255 0 -4 11
-31 24 -59 28 -59 86 -238 86 -266 0 -33 41 -130 55 -130 14 0 55 97 55 130 0
30 59 211 86 261 13 26 24 51 24 57 0 12 72 164 109 227 15 28 41 73 57 100
41 73 88 137 318 440 62 82 318 354 352 375 37 24 95 36 241 50 137 13 397 55
533 85 58 14 125 27 150 30 60 8 244 50 350 81 90 25 153 42 290 75 47 11 101
28 120 36 19 8 64 23 100 33 66 19 153 47 245 80 28 10 77 27 110 38 33 11 92
32 130 47 39 15 97 37 130 49 33 13 76 30 95 38 57 25 142 59 190 75 25 9 56
24 70 33 14 10 36 21 50 25 14 4 45 18 70 31 25 12 77 37 115 55 82 36 308
149 380 189 71 39 163 89 215 116 52 28 116 65 192 112 79 48 90 55 123 77
100 68 207 126 227 123 22 -3 23 -7 25 -118 3 -152 22 -469 29 -497 10 -36 32
-27 39 15 7 40 23 102 59 232 27 97 119 308 145 330 9 8 25 28 35 44 29 46 43
18 23 -46 -9 -29 -24 -118 -33 -197 -14 -126 -14 -184 -5 -440 13 -335 25
-441 51 -441 12 0 56 117 65 170 18 119 138 420 202 506 13 17 23 34 23 38 0
12 81 129 129 186 26 30 84 100 130 155 107 128 267 285 292 285 34 0 40 -28
59 -263 5 -64 18 -148 29 -185 11 -37 27 -94 35 -127 21 -89 107 -317 130
-345 6 -8 32 -55 56 -103 67 -132 237 -352 378 -489 66 -64 138 -128 159 -142
21 -14 52 -36 69 -48 18 -13 65 -45 105 -72 41 -27 86 -57 101 -68 15 -10 31
-18 35 -18 4 0 69 -30 143 -66 251 -123 297 -141 447 -169 45 -9 99 -23 120
-32 32 -15 74 -17 253 -18 191 0 223 2 290 21 41 12 95 25 120 28 122 18 485
213 485 261 0 27 -42 26 -170 -7 -146 -38 -347 -51 -572 -39 -101 6 -193 13
-205 15 -13 3 -77 17 -143 31 -66 14 -149 36 -185 49 -36 14 -85 31 -110 39
-139 46 -157 55 -345 156 -27 15 -86 46 -129 70 -44 24 -96 56 -115 72 -20 16
-85 69 -146 118 -60 48 -156 140 -212 202 -90 101 -131 156 -208 279 -12 19
-33 53 -47 75 -14 22 -30 57 -37 77 -7 21 -16 40 -21 43 -5 3 -16 29 -25 58
-10 28 -25 66 -35 82 -10 17 -21 46 -25 65 -3 19 -17 71 -30 115 -30 97 -55
290 -55 417 0 109 31 267 60 309 11 15 20 31 20 35 0 4 11 24 23 43 13 20 43
70 67 111 66 114 171 232 274 309 158 119 275 165 443 176 99 6 115 5 156 -13
25 -11 70 -26 99 -32 75 -16 144 -54 299 -165 115 -82 150 -129 477 -635 30
-47 70 -107 87 -135 18 -27 70 -108 116 -180 85 -132 110 -167 278 -393 225
-303 588 -706 903 -1002 306 -289 330 -308 607 -490 21 -14 65 -43 97 -64 54
-36 139 -79 284 -143 30 -14 71 -33 90 -43 64 -33 185 -77 230 -85 25 -4 77
-18 116 -31 38 -12 135 -33 215 -46 185 -30 504 -32 609 -4 35 9 95 21 133 26
65 10 90 17 217 70 30 12 82 32 115 44 54 19 60 24 63 52 2 17 -3 35 -10 41
-19 14 -156 61 -203 69 -34 6 -103 36 -180 77 -11 6 -40 21 -66 33 -70 35
-295 189 -389 267 -138 115 -157 134 -401 389 -193 202 -367 405 -531 618 -15
19 -54 69 -87 110 -56 70 -124 170 -626 915 -161 240 -282 417 -385 568 -8 12
-46 60 -85 107 -109 130 -141 178 -127 192 12 12 52 -13 219 -140 206 -155
261 -194 392 -272 48 -29 120 -73 171 -105 78 -50 115 -69 339 -180 129 -65
257 -125 285 -135 28 -10 89 -33 136 -50 47 -17 115 -42 151 -55 36 -12 75
-27 86 -33 11 -6 49 -16 85 -22 36 -5 92 -18 125 -29 32 -10 144 -34 249 -52
188 -33 191 -34 499 -33 323 0 366 4 595 53 140 30 388 106 475 146 17 7 62
28 100 45 217 99 411 210 542 312 23 18 86 67 140 108 311 237 539 475 1043
1090 52 64 187 225 300 360 113 134 239 285 280 335 88 109 301 364 404 485
40 47 104 123 141 170 38 47 110 133 161 192 125 144 157 208 81 163 -18 -11
-90 -66 -162 -122 -71 -57 -164 -130 -205 -163 -66 -53 -163 -129 -428 -337
-41 -32 -102 -80 -137 -108 -35 -27 -129 -102 -210 -165 -81 -63 -176 -137
-210 -165 -35 -27 -92 -72 -127 -99 -35 -28 -92 -73 -128 -101 -36 -28 -94
-73 -129 -101 -34 -27 -103 -80 -151 -119 -48 -38 -111 -88 -140 -110 -29 -22
-79 -61 -112 -87 -33 -26 -94 -68 -136 -93 -43 -26 -105 -63 -138 -84 -34 -21
-75 -45 -90 -53 -16 -8 -38 -19 -49 -25 -28 -16 -142 -67 -185 -83 -19 -7 -40
-17 -46 -21 -24 -19 -164 -71 -229 -85 -38 -9 -81 -22 -95 -29 -14 -7 -52 -18
-85 -25 -33 -6 -79 -20 -103 -30 -23 -11 -77 -24 -118 -30 -42 -5 -122 -20
-178 -32 -92 -19 -131 -21 -431 -21 -296 0 -340 2 -425 21 -52 11 -132 25
-177 32 -46 6 -98 17 -117 25 -19 8 -72 23 -118 34 -45 10 -119 32 -163 49
-191 72 -220 84 -230 91 -5 5 -27 14 -48 20 -33 11 -82 36 -227 115 -25 13
-65 35 -90 48 -88 47 -156 90 -240 149 -47 33 -116 80 -153 105 -114 76 -106
89 75 122 67 13 170 32 228 43 58 11 150 27 205 35 55 8 129 23 165 34 36 11
92 27 125 36 193 51 350 100 410 128 17 8 57 23 90 34 129 43 176 61 345 139
168 76 303 142 385 189 33 18 78 43 100 55 133 69 198 109 415 254 220 148
220 148 460 340 479 385 1013 926 1344 1365 111 147 132 180 211 320 14 25 59
99 100 165 41 66 74 123 74 127 1 4 12 24 26 44 14 20 25 43 25 52 0 8 11 40
24 71 13 31 31 76 39 101 9 25 33 97 55 160 26 76 41 142 46 195 3 44 11 114
17 155 8 58 7 108 -4 218 -16 149 -31 192 -67 192 -24 0 -29 -8 -56 -99 -37
-122 -68 -203 -92 -241 -12 -19 -22 -38 -22 -42 0 -4 -39 -78 -87 -165 -147
-269 -346 -520 -604 -764 -150 -142 -404 -351 -524 -432 -38 -25 -131 -87
-205 -138 -74 -50 -148 -97 -165 -105 -16 -8 -52 -28 -80 -43 -205 -117 -394
-219 -415 -226 -14 -4 -45 -18 -70 -30 -25 -13 -72 -36 -105 -51 -33 -15 -87
-39 -120 -54 -143 -66 -174 -80 -235 -105 -36 -14 -85 -32 -110 -39 -25 -8
-65 -23 -90 -34 -25 -11 -65 -27 -90 -36 -106 -35 -167 -57 -190 -70 -14 -8
-50 -21 -80 -30 -30 -8 -84 -25 -120 -36 -66 -21 -146 -45 -325 -99 -55 -16
-116 -33 -135 -37 -19 -3 -47 -12 -61 -20 -15 -7 -67 -22 -115 -33 -49 -11
-101 -24 -117 -30 -15 -6 -58 -15 -95 -21 -37 -6 -94 -19 -127 -30 -33 -10
-82 -22 -110 -26 -27 -3 -85 -17 -128 -31 -79 -25 -150 -33 -164 -20 -13 14
12 40 85 86 321 205 467 313 807 602 358 304 569 508 729 708 38 47 99 122
136 166 55 66 145 189 255 349 45 65 77 116 127 205 29 51 68 119 86 150 18
31 40 72 49 91 10 19 25 46 34 60 9 14 20 36 24 50 7 25 44 107 91 206 13 28
24 55 24 59 0 4 11 31 24 59 13 28 39 98 56 156 18 58 41 130 52 160 11 30 26
80 33 110 8 30 21 74 29 97 8 24 20 80 26 125 6 46 20 115 30 153 11 39 26
126 34 195 8 69 21 170 28 225 20 156 16 855 -5 960 -9 44 -21 125 -27 180 -6
55 -19 147 -29 205 -11 58 -22 128 -26 155 -3 28 -17 88 -30 135 -13 47 -30
112 -38 145 -37 154 -90 353 -114 425 -17 50 -43 125 -98 275 -20 55 -46 126
-57 158 -11 31 -24 57 -28 57 -12 0 -30 -69 -25 -94 3 -12 12 -98 20 -193 13
-146 14 -223 5 -500 -5 -180 -12 -344 -15 -363 -3 -19 -9 -102 -15 -184 -6
-82 -17 -176 -24 -210 -8 -33 -21 -115 -30 -181 -9 -66 -22 -145 -30 -175 -8
-30 -19 -84 -26 -120 -6 -36 -19 -92 -30 -125 -10 -33 -22 -80 -25 -105 -7
-47 -43 -175 -77 -270 -11 -30 -26 -81 -34 -113 -8 -32 -19 -68 -26 -80 -6
-12 -19 -49 -29 -82 -20 -68 -61 -173 -90 -226 -10 -20 -19 -43 -19 -50 0 -8
-14 -41 -30 -74 -16 -33 -30 -66 -30 -74 0 -7 -9 -30 -20 -50 -11 -20 -29 -56
-40 -81 -11 -25 -46 -94 -78 -153 -31 -59 -77 -147 -102 -195 -43 -83 -140
-238 -313 -497 -44 -66 -123 -172 -174 -235 -52 -63 -133 -162 -181 -220 -201
-246 -535 -563 -901 -855 -62 -49 -123 -98 -136 -109 -47 -38 -72 7 -39 69 16
29 41 92 88 220 12 33 30 74 39 92 9 18 17 37 17 43 0 6 13 46 29 88 16 42 44
124 61 182 17 58 38 125 47 150 8 25 25 81 38 125 13 44 30 103 39 130 55 171
65 204 70 240 4 22 18 87 31 145 14 58 32 134 40 170 8 36 22 101 31 145 9 44
25 110 35 147 11 37 26 118 34 179 8 62 21 151 29 198 8 47 18 120 21 161 4
41 17 141 31 223 13 81 28 238 34 350 6 111 15 283 21 382 26 482 22 737 -21
1240 -24 276 -28 309 -75 605 -8 52 -22 140 -30 195 -9 55 -26 150 -40 210
-13 61 -38 173 -55 250 -16 77 -38 169 -46 205 -9 36 -23 92 -31 125 -8 33
-23 83 -33 110 -11 28 -22 66 -26 85 -3 19 -16 69 -30 110 -13 41 -30 100 -38
130 -20 76 -54 175 -82 241 -13 31 -24 65 -24 75 0 11 -10 39 -21 64 -12 25
-27 65 -35 90 -21 70 -68 197 -109 290 -20 47 -45 105 -55 130 -44 110 -81
195 -89 204 -5 6 -12 22 -16 36 -8 27 -55 141 -86 205 -10 22 -25 60 -34 84
-8 24 -20 50 -25 56 -6 7 -19 38 -30 70 -11 32 -24 63 -29 69 -4 6 -14 29 -21
51 -7 22 -16 45 -21 51 -5 6 -46 84 -92 175 -74 144 -269 523 -334 649 -13 25
-49 86 -81 137 -67 108 -195 312 -228 366 -13 20 -35 54 -47 75 -62 98 -155
233 -223 320 -41 53 -92 119 -112 146 -20 27 -46 56 -56 65 -11 9 -30 27 -43
40 -26 27 -30 16 -9 -26 8 -15 19 -39 26 -53 6 -14 26 -51 43 -82 37 -66 130
-231 151 -268 25 -43 63 -124 76 -165 7 -22 24 -60 37 -84 12 -24 23 -51 23
-60 0 -9 8 -29 18 -46 10 -16 26 -50 35 -75 27 -77 67 -173 88 -211 10 -20 19
-43 19 -51 0 -7 9 -32 21 -53 20 -40 60 -155 117 -340 17 -55 39 -122 47 -150
9 -27 27 -86 39 -130 12 -45 26 -86 30 -93 4 -7 18 -50 31 -95 12 -45 27 -95
33 -112 31 -86 65 -208 77 -270 7 -38 22 -110 34 -160 30 -127 69 -298 86
-380 43 -202 57 -267 74 -335 11 -41 22 -95 26 -120 4 -25 15 -76 25 -115 10
-38 24 -122 30 -185 6 -63 19 -164 30 -225 10 -60 22 -144 25 -185 4 -41 17
-138 30 -215 15 -94 25 -205 30 -335 3 -107 13 -325 21 -485 14 -264 14 -311
0 -520 -9 -126 -21 -333 -26 -460 -5 -126 -17 -264 -25 -305 -8 -41 -22 -134
-30 -205 -8 -72 -21 -162 -29 -200 -8 -39 -20 -121 -26 -184 -7 -63 -18 -132
-26 -153 -7 -22 -19 -70 -25 -106 -6 -37 -19 -96 -30 -130 -10 -35 -24 -94
-29 -130 -6 -37 -19 -94 -30 -127 -10 -33 -21 -80 -25 -105 -5 -41 -30 -129
-70 -255 -49 -153 -78 -247 -94 -305 -10 -36 -23 -75 -29 -86 -6 -12 -20 -52
-31 -90 -22 -79 -63 -190 -92 -250 -10 -22 -19 -47 -19 -55 0 -8 -10 -32 -21
-54 -12 -22 -28 -62 -36 -90 -8 -27 -19 -55 -24 -61 -5 -6 -18 -35 -28 -65
-39 -109 -166 -393 -201 -451 -11 -18 -20 -40 -20 -49 0 -9 -9 -27 -19 -40
l-19 -24 -13 28 c-11 24 -10 38 9 95 11 37 28 101 36 142 8 41 22 95 31 119 8
24 20 84 26 135 6 50 19 129 29 176 10 47 22 114 26 150 3 36 15 106 25 156
10 49 23 157 29 240 6 82 20 217 32 299 19 136 21 198 22 675 1 646 -16 933
-79 1335 -13 83 -27 186 -30 230 -7 92 -45 296 -80 435 -13 52 -31 129 -39
170 -18 85 -39 174 -62 270 -9 36 -23 94 -30 130 -8 36 -25 94 -38 130 -41
115 -67 194 -81 248 -7 29 -22 76 -33 105 -35 93 -63 181 -78 242 -9 33 -21
69 -28 80 -7 11 -19 38 -26 60 -7 22 -20 54 -29 70 -10 17 -25 50 -34 75 -23
67 -76 192 -86 204 -5 6 -14 29 -21 51 -7 22 -21 54 -31 71 -11 17 -19 38 -19
46 0 8 -11 36 -24 64 -54 112 -119 243 -149 299 -49 90 -137 253 -167 310 -82
154 -125 233 -140 255 -10 14 -44 66 -75 115 -32 50 -77 119 -100 155 -23 36
-68 106 -100 155 -115 178 -145 222 -195 286 -28 35 -75 96 -105 134 -30 39
-92 117 -137 175 -46 58 -102 131 -126 162 -55 72 -120 144 -393 439 -242 260
-729 715 -924 864 -55 41 -145 110 -200 152 -215 165 -387 291 -477 347 -95
61 -199 127 -323 208 -120 79 -238 148 -302 179 -34 16 -65 34 -68 39 -3 5
-22 14 -43 21 -20 6 -46 19 -57 29 -11 10 -37 23 -57 29 -20 7 -42 18 -48 26
-6 8 -28 19 -48 26 -20 7 -47 20 -60 30 -13 10 -40 23 -60 30 -20 6 -46 19
-57 29 -11 9 -35 22 -54 29 -19 6 -43 18 -52 27 -10 9 -39 19 -64 22 l-46 5
12 -27 c8 -18 25 -29 50 -36 21 -6 41 -15 45 -21 4 -6 30 -22 58 -35 28 -14
62 -31 76 -40 14 -8 36 -19 50 -25 14 -6 52 -26 85 -44 33 -19 85 -47 115 -63
159 -84 157 -83 266 -156 16 -11 67 -44 114 -74 358 -229 416 -270 695 -485
320 -247 393 -311 785 -683 163 -155 519 -543 651 -709 147 -185 417 -544 453
-603 33 -53 112 -176 191 -297 28 -44 66 -102 83 -130 17 -27 39 -61 49 -75
10 -13 27 -43 39 -65 29 -55 120 -228 190 -360 115 -219 182 -353 194 -390 7
-21 21 -52 30 -69 10 -17 23 -49 30 -71 7 -22 19 -49 25 -60 7 -11 18 -38 25
-59 7 -22 21 -53 30 -70 10 -17 23 -49 30 -71 7 -22 21 -53 31 -70 11 -16 19
-37 19 -45 0 -8 11 -37 24 -65 13 -27 40 -104 61 -170 20 -66 45 -142 55 -170
11 -27 24 -72 31 -100 7 -27 18 -62 25 -77 8 -15 21 -53 29 -85 8 -32 23 -85
34 -118 23 -66 43 -149 67 -270 9 -44 24 -109 34 -145 10 -36 26 -104 34 -152
9 -47 23 -104 30 -126 8 -22 19 -82 25 -133 7 -52 18 -130 26 -174 8 -44 21
-141 30 -215 8 -74 21 -171 30 -215 9 -44 20 -179 25 -300 5 -121 14 -322 21
-447 10 -180 10 -269 1 -425 -7 -109 -17 -317 -22 -463 -7 -190 -16 -293 -30
-365 -11 -55 -24 -141 -30 -192 -6 -51 -17 -123 -25 -161 -7 -37 -21 -124 -29
-193 -16 -129 -55 -321 -81 -399 -8 -25 -23 -83 -34 -130 -19 -82 -28 -119
-73 -280 -11 -41 -27 -106 -34 -145 -8 -38 -23 -92 -33 -120 -11 -27 -26 -70
-35 -95 -8 -25 -28 -83 -46 -130 -57 -155 -78 -214 -103 -286 -13 -39 -30 -81
-37 -94 -7 -13 -19 -45 -26 -70 -17 -61 -55 -152 -121 -290 -52 -110 -61 -128
-82 -167 -5 -10 -37 -76 -71 -148 -103 -216 -164 -337 -188 -373 -12 -18 -31
-50 -42 -70 -11 -20 -47 -80 -80 -132 -32 -52 -83 -134 -112 -183 -29 -48 -67
-111 -85 -140 -18 -28 -39 -65 -49 -81 -18 -33 -81 -121 -199 -278 -44 -59
-136 -183 -205 -275 -205 -274 -626 -736 -901 -989 -459 -422 -414 -384 -876
-729 -37 -27 -98 -74 -137 -103 -79 -60 -187 -132 -286 -190 -61 -35 -201
-121 -300 -182 -52 -33 -115 -71 -140 -86 -25 -14 -67 -39 -95 -55 -27 -16
-66 -36 -85 -44 -48 -22 -72 -33 -90 -44 -8 -5 -71 -36 -140 -69 -69 -33 -182
-87 -251 -121 -69 -34 -129 -61 -133 -61 -4 0 -20 -8 -34 -19 -15 -10 -47 -25
-72 -34 -45 -16 -145 -53 -295 -109 -44 -16 -100 -36 -125 -45 -25 -8 -65 -23
-90 -34 -44 -18 -122 -46 -210 -75 -25 -9 -67 -24 -95 -34 -27 -11 -84 -26
-125 -34 -41 -8 -93 -21 -115 -30 -22 -8 -69 -20 -105 -26 -36 -7 -79 -18 -96
-25 -18 -7 -58 -18 -91 -25 -32 -6 -94 -22 -138 -34 -121 -36 -270 -65 -409
-81 -69 -9 -154 -22 -188 -29 -35 -8 -108 -20 -163 -26 -55 -5 -145 -19 -200
-30 -72 -14 -180 -22 -382 -30 -155 -5 -359 -15 -454 -22 -132 -9 -211 -9
-350 0 -98 7 -304 17 -456 23 -198 7 -306 15 -373 29 -52 10 -142 24 -200 30
-58 6 -133 18 -168 26 -34 7 -119 20 -187 28 -129 16 -341 57 -410 81 -22 8
-74 21 -115 30 -41 8 -91 22 -111 29 -20 8 -65 20 -100 26 -35 6 -82 18 -104
26 -22 9 -74 22 -115 30 -41 8 -97 23 -125 34 -27 10 -70 25 -95 34 -88 29
-166 57 -210 75 -25 11 -65 26 -90 34 -25 9 -81 29 -125 45 -150 56 -250 93
-295 109 -25 9 -57 24 -72 34 -14 11 -30 19 -34 19 -7 0 -127 57 -379 181 -66
33 -125 59 -131 59 -6 0 -17 7 -24 14 -6 8 -28 20 -48 27 -36 12 -102 47 -209
112 -29 18 -92 56 -140 85 -49 29 -131 80 -183 112 -52 33 -113 69 -135 81
-22 12 -51 29 -65 39 -14 10 -50 33 -80 53 -30 19 -87 59 -126 89 -39 29 -101
76 -137 103 -430 320 -443 331 -861 715 -187 171 -278 265 -561 580 -203 224
-237 265 -385 465 -73 99 -145 195 -159 214 -150 197 -193 259 -277 399 -43
73 -105 174 -136 225 -32 50 -67 110 -79 132 -12 22 -29 51 -39 65 -64 94 -85
133 -185 345 -63 132 -72 150 -94 193 -5 9 -37 76 -71 147 -33 72 -69 146 -79
165 -20 39 -60 136 -90 220 -11 30 -34 93 -51 140 -17 47 -38 105 -47 130 -8
25 -26 70 -39 101 -13 31 -24 62 -24 69 0 7 -11 38 -24 69 -35 83 -65 176 -86
266 -17 75 -29 121 -81 313 -12 42 -28 106 -35 142 -8 36 -21 85 -29 110 -27
81 -65 273 -81 405 -8 72 -21 157 -29 190 -7 33 -18 105 -24 160 -6 55 -20
145 -31 200 -14 72 -22 177 -29 370 -6 149 -16 354 -23 456 -9 148 -9 234 1
415 6 126 16 328 21 449 5 121 16 256 25 300 9 44 22 143 31 220 8 77 21 174
29 215 8 41 20 117 26 169 6 51 17 111 25 133 7 22 21 79 30 126 8 48 24 116
34 152 10 36 25 101 34 145 24 121 44 204 67 270 11 33 26 86 34 118 8 32 21
70 29 85 7 15 18 50 25 77 7 28 20 73 31 100 10 28 35 104 55 170 21 66 48
143 61 170 13 28 24 55 24 62 0 10 40 105 80 188 11 22 26 60 35 84 8 24 19
49 24 55 5 6 14 29 21 51 7 22 20 54 30 71 9 17 23 48 30 69 12 37 81 175 192
385 31 58 77 146 103 195 90 172 97 183 223 380 25 39 70 108 100 155 30 47
65 101 77 120 80 129 116 178 369 510 150 196 223 285 396 475 94 105 177 195
183 200 7 6 44 44 82 84 116 122 513 491 655 607 184 151 578 446 692 519 100
64 310 200 422 273 74 49 143 88 215 122 23 11 54 29 68 40 14 11 34 20 44 20
9 0 30 11 46 24 15 13 45 28 65 35 20 7 42 18 48 26 6 8 28 19 48 26 20 6 46
19 57 29 11 10 37 23 58 30 23 7 43 21 49 36 9 19 19 24 48 24 43 0 84 33 55
44 -21 8 -35 7 -61 -4z"/>
<path d="M24465 27530 c-33 -3 -70 -12 -83 -19 -13 -7 -42 -18 -66 -25 -39
-12 -106 -56 -178 -118 -88 -75 -199 -282 -246 -458 -49 -183 -48 -423 3 -545
13 -33 25 -66 25 -73 0 -11 21 -54 101 -206 37 -69 338 -376 369 -376 11 0 44
39 99 115 27 39 70 98 95 132 49 67 54 88 32 151 -8 23 -24 93 -35 156 -27
149 -27 313 -1 466 18 109 66 267 89 294 6 7 17 31 25 54 8 23 24 54 34 69 11
15 41 61 67 101 26 41 85 113 131 162 84 88 98 113 68 124 -21 8 -453 5 -529
-4z"/>
<path d="M23492 26682 c-57 -56 -140 -104 -222 -130 -19 -6 -100 -16 -180 -22
-79 -6 -148 -14 -153 -17 -23 -14 29 -194 92 -324 33 -68 80 -141 135 -211
177 -221 327 -286 648 -276 165 4 176 25 56 105 -85 56 -122 91 -178 172 -72
103 -101 183 -125 344 -14 97 -14 117 0 211 31 211 18 237 -73 148z"/>
<path d="M27555 26719 c-278 -7 -378 -14 -529 -39 -39 -6 -118 -17 -177 -25
-59 -8 -140 -23 -180 -34 -41 -11 -110 -27 -154 -36 -190 -36 -246 -49 -340
-76 -55 -16 -120 -37 -145 -45 -25 -9 -70 -22 -100 -29 -30 -8 -84 -23 -120
-34 -36 -12 -85 -26 -110 -33 -51 -15 -63 -39 -27 -55 14 -6 67 -21 118 -33
52 -12 119 -28 149 -36 30 -9 82 -22 115 -30 33 -9 70 -22 83 -30 13 -9 41
-22 63 -29 81 -29 188 -125 230 -207 25 -51 28 -63 22 -121 -5 -61 -4 -65 16
-72 25 -8 111 10 154 32 15 8 65 22 110 32 45 10 111 26 147 34 157 37 273 58
375 67 61 6 160 18 221 26 127 16 643 19 709 4 22 -5 94 -14 160 -20 66 -6
170 -20 230 -30 61 -10 137 -22 169 -25 32 -4 91 -17 130 -30 39 -12 94 -26
121 -30 28 -4 70 -15 95 -25 59 -23 192 -67 255 -84 28 -7 68 -22 90 -34 22
-12 44 -22 50 -22 5 0 32 -11 60 -24 27 -14 88 -41 135 -61 47 -20 92 -40 100
-46 8 -5 38 -21 65 -35 28 -14 71 -37 96 -52 96 -56 111 -63 125 -58 26 10 15
44 -56 171 -84 152 -84 153 -231 335 -169 209 -374 384 -579 493 -128 68 -156
83 -170 92 -8 5 -35 17 -60 26 -170 64 -220 82 -255 94 -78 25 -231 65 -251
65 -11 0 -54 9 -95 19 -91 23 -125 28 -309 41 -80 6 -161 12 -180 14 -19 1
-165 -1 -325 -5z"/>
<path d="M22485 26487 c-8 -20 -4 -43 20 -107 20 -51 23 -199 5 -245 -6 -14
-29 -51 -53 -81 -73 -95 -211 -144 -404 -144 -24 0 -43 -4 -43 -8 0 -12 100
-77 139 -90 51 -18 187 -113 269 -188 83 -76 124 -128 236 -295 27 -41 53 -77
59 -80 13 -9 67 7 97 29 22 17 156 93 259 147 43 23 83 54 95 73 5 9 -22 58
-81 144 -48 71 -99 147 -113 168 -14 21 -88 131 -165 245 -77 113 -162 241
-190 284 -27 42 -58 86 -68 97 -10 10 -26 30 -37 44 -17 22 -19 23 -25 7z"/>
<path d="M25260 26061 c-30 -10 -73 -23 -95 -29 -44 -13 -161 -86 -214 -136
-63 -59 -137 -161 -175 -241 -21 -44 -46 -98 -57 -120 -62 -132 -85 -230 -55
-241 17 -7 226 22 237 33 4 4 14 26 22 48 55 148 68 174 106 217 51 58 95 72
188 62 69 -7 139 -45 175 -94 10 -14 28 -77 40 -140 20 -110 21 -124 10 -330
-7 -118 -17 -372 -22 -565 -6 -192 -12 -367 -14 -388 -5 -49 -36 -82 -95 -102
-66 -22 -121 -75 -121 -117 0 -75 57 -111 176 -110 68 0 92 5 152 31 39 17 79
31 89 31 24 0 88 40 199 123 100 74 137 115 184 202 28 52 33 74 45 201 8 79
19 169 24 201 6 32 18 137 26 233 8 96 22 216 31 265 18 105 14 175 -21 345
-40 193 -97 302 -217 415 -104 100 -197 165 -278 193 -84 31 -268 38 -340 13z"/>
<path d="M23705 25490 c-66 -10 -142 -27 -170 -38 -27 -10 -67 -22 -87 -26
-92 -17 -453 -194 -612 -301 -161 -109 -189 -130 -275 -205 -153 -135 -223
-226 -469 -605 -36 -55 -76 -117 -89 -137 -31 -46 -28 -63 19 -101 30 -24 47
-30 90 -30 56 -2 61 1 180 87 45 32 156 155 179 197 15 29 49 25 49 -6 0 -32
-112 -246 -166 -316 -78 -101 -237 -234 -304 -254 -14 -4 -37 -16 -51 -26 -14
-10 -70 -27 -123 -38 -138 -28 -163 -58 -112 -134 14 -20 34 -55 45 -79 63
-129 137 -208 224 -238 54 -19 61 -19 129 -5 94 19 213 82 334 175 88 67 101
74 139 72 24 -1 68 -11 98 -22 94 -35 101 -67 20 -95 -26 -9 -75 -32 -108 -51
-33 -18 -79 -42 -103 -53 -93 -44 -205 -149 -247 -230 -29 -58 -33 -132 -10
-188 34 -81 11 -93 -68 -35 -29 21 -70 50 -93 65 -23 14 -101 81 -174 149
-117 107 -202 205 -290 333 -60 86 -103 135 -119 135 -10 0 -67 -38 -127 -85
-60 -47 -136 -106 -169 -132 -33 -26 -85 -66 -115 -90 -154 -119 -200 -158
-380 -316 -515 -452 -798 -820 -800 -1038 0 -61 27 -83 122 -103 189 -38 249
-46 373 -52 240 -11 417 39 537 154 33 31 63 52 71 49 27 -10 36 -190 16 -289
-50 -244 -173 -385 -459 -523 -100 -48 -110 -58 -110 -113 0 -64 29 -202 50
-237 10 -16 23 -47 30 -68 7 -23 22 -43 38 -51 32 -17 265 -66 313 -66 101 -2
485 -96 584 -144 28 -14 91 -43 140 -66 79 -37 102 -55 191 -144 157 -158 217
-301 147 -355 -14 -12 -34 -19 -43 -16 -9 3 -102 88 -206 190 -142 139 -196
186 -219 189 -16 3 -244 9 -505 15 -363 8 -478 7 -488 -2 -22 -18 -8 -233 18
-296 11 -25 24 -68 30 -96 16 -71 108 -251 175 -340 80 -106 274 -278 308
-273 19 3 23 12 29 63 3 33 18 89 31 125 20 54 29 66 50 68 18 2 31 -5 48 -28
88 -115 126 -154 164 -167 55 -20 121 -11 152 19 26 26 31 51 54 264 13 118
18 129 52 120 18 -4 36 -26 66 -81 23 -41 56 -88 74 -104 162 -146 278 -189
464 -170 126 13 233 79 304 190 26 41 29 55 31 135 2 81 0 95 -24 134 -14 25
-29 55 -32 68 -4 12 -25 50 -47 85 -21 34 -46 78 -55 97 -9 19 -26 55 -37 80
-16 35 -22 71 -25 161 -4 108 -2 121 21 175 14 33 29 70 33 84 17 63 202 305
269 352 118 83 158 108 192 119 21 6 47 18 58 25 11 7 43 19 71 27 28 8 66 23
83 32 40 20 95 17 99 -7 2 -11 -8 -20 -35 -28 -21 -7 -47 -20 -58 -30 -11 -10
-35 -25 -54 -35 -54 -27 -131 -104 -131 -131 0 -35 23 -42 125 -36 168 9 416
-34 541 -93 96 -45 202 -144 237 -222 32 -72 52 -204 43 -293 l-6 -67 61 -49
c34 -27 84 -79 112 -116 27 -38 53 -68 56 -68 3 0 42 31 86 68 139 118 319
344 401 502 32 62 74 158 74 171 0 8 9 34 20 58 24 53 60 273 60 369 0 100
-35 307 -65 382 -112 284 -306 479 -544 546 -132 37 -184 39 -297 14 -102 -22
-117 -28 -317 -125 -65 -31 -144 -64 -175 -72 -224 -58 -280 -58 -448 1 -105
36 -170 72 -254 139 -81 64 -98 82 -164 167 -51 67 -61 90 -40 90 13 0 98 -62
124 -90 20 -22 90 -69 110 -74 14 -4 52 -19 85 -34 57 -26 66 -27 204 -24 114
2 153 6 190 22 25 10 66 24 91 31 25 6 57 20 71 30 15 10 31 19 36 19 11 0
135 78 143 89 6 9 211 175 263 214 126 95 362 175 572 196 92 9 235 -5 315
-30 46 -15 177 -86 213 -116 51 -42 118 -127 152 -194 35 -70 89 -271 100
-374 4 -33 13 -85 21 -116 7 -31 20 -90 28 -132 8 -41 22 -90 31 -107 9 -18
22 -51 29 -75 16 -51 65 -125 122 -182 53 -52 131 -78 209 -69 125 14 143 38
127 168 -6 46 -14 117 -17 158 -4 41 -13 109 -21 150 -8 41 -21 142 -29 225
-8 82 -22 185 -30 230 -8 44 -19 130 -25 190 -6 61 -19 175 -30 255 -11 80
-24 210 -30 290 -14 199 -35 328 -56 351 -9 11 -49 29 -88 40 -99 29 -163 75
-257 184 -60 69 -96 124 -137 207 -49 97 -61 113 -83 116 -16 2 -37 -6 -55
-21 -16 -13 -56 -43 -89 -65 -33 -23 -85 -59 -115 -81 -56 -38 -115 -70 -245
-131 -38 -18 -90 -42 -115 -55 -25 -12 -63 -26 -85 -29 -22 -4 -74 -18 -115
-31 -118 -36 -326 -49 -490 -30 -128 15 -241 45 -269 70 -20 19 -7 43 26 50
15 3 66 16 113 29 128 35 206 55 298 77 46 11 98 25 115 33 18 7 55 18 82 25
73 18 157 70 178 111 35 68 0 174 -102 303 -100 128 -145 188 -182 242 -39 56
-79 161 -79 205 0 43 38 167 65 207 82 126 186 250 289 344 63 57 119 116 126
131 17 37 -10 83 -73 124 -65 43 -87 74 -94 136 -9 72 -32 94 -114 103 -35 3
-71 8 -79 9 -8 2 -69 -5 -135 -14z"/>
<path d="M26908 25489 c-16 -6 -28 -15 -28 -21 0 -14 126 -148 164 -174 34
-24 142 -65 246 -94 36 -10 85 -25 110 -34 74 -26 140 -46 228 -71 46 -13 89
-28 95 -34 7 -5 32 -14 57 -21 25 -6 63 -20 85 -30 22 -10 60 -25 85 -33 42
-14 111 -40 270 -100 36 -14 84 -34 107 -46 23 -12 47 -21 53 -21 5 0 31 -11
57 -24 27 -14 75 -37 108 -52 107 -48 189 -85 251 -115 34 -16 64 -29 68 -29
4 0 37 -14 74 -31 37 -17 85 -39 107 -49 131 -60 199 -94 363 -185 101 -55
204 -112 230 -127 26 -15 65 -36 87 -48 22 -11 67 -36 100 -55 33 -19 76 -42
95 -52 54 -28 155 -90 297 -184 51 -34 311 -207 337 -224 16 -11 45 -31 66
-45 75 -50 97 -66 195 -143 55 -42 122 -94 148 -115 279 -214 591 -489 737
-651 54 -59 80 -81 98 -81 24 0 25 2 19 51 -4 27 -17 92 -31 142 -14 51 -32
121 -40 157 -34 143 -48 187 -71 235 -41 85 -85 183 -85 190 0 7 -45 106 -88
195 -15 30 -50 89 -78 130 -28 41 -81 120 -118 174 -37 55 -87 125 -111 155
-61 78 -376 385 -460 448 -211 158 -290 215 -323 233 -20 12 -62 34 -92 51
-30 17 -75 42 -100 56 -25 13 -72 39 -105 58 -33 19 -71 40 -85 46 -14 6 -47
21 -75 34 -27 13 -61 26 -74 30 -14 4 -45 18 -69 31 -25 13 -52 24 -61 24 -9
0 -30 8 -46 19 -17 10 -48 24 -70 31 -22 7 -59 21 -82 31 -23 11 -66 24 -95
30 -29 6 -65 18 -80 25 -15 8 -53 21 -85 29 -32 8 -85 23 -118 34 -66 23 -149
43 -270 67 -44 9 -111 25 -148 35 -37 11 -107 25 -155 30 -48 6 -127 19 -175
30 -49 11 -148 24 -220 30 -73 5 -181 16 -242 24 -244 31 -1000 55 -1057 34z"/>
<path d="M26657 25123 c-17 -17 5 -539 24 -576 18 -32 54 -46 167 -61 63 -9
124 -23 135 -31 12 -9 40 -20 62 -26 52 -14 139 -55 190 -89 22 -15 60 -40 85
-56 91 -58 221 -178 323 -297 106 -125 127 -154 127 -181 0 -12 -6 -13 -31 -6
-17 5 -43 17 -58 27 -64 42 -150 86 -201 103 -55 19 -181 65 -255 94 -22 8
-49 15 -60 16 -11 0 -54 11 -95 24 -41 13 -110 31 -152 41 -88 21 -102 16
-113 -38 -14 -66 -68 -148 -143 -218 -42 -39 -88 -77 -102 -84 -57 -29 -47
-64 33 -123 29 -22 84 -66 123 -98 39 -32 106 -86 149 -119 43 -33 105 -82
136 -110 96 -83 410 -434 472 -528 60 -92 143 -219 195 -301 18 -27 32 -54 32
-59 0 -6 11 -33 24 -61 28 -60 74 -166 109 -251 13 -33 30 -88 36 -122 7 -35
19 -79 27 -99 31 -74 67 -435 45 -449 -21 -12 -58 34 -75 93 -15 56 -33 87
-131 227 -67 97 -81 113 -218 254 -143 148 -340 315 -492 417 -60 40 -168 113
-239 161 -70 49 -135 93 -144 98 -111 70 -142 80 -142 47 0 -10 55 -79 123
-153 67 -74 134 -153 148 -174 56 -88 103 -162 124 -195 37 -60 77 -123 105
-165 28 -43 53 -95 198 -405 26 -58 54 -121 62 -140 7 -19 17 -40 22 -46 5 -7
17 -40 28 -75 28 -95 60 -188 80 -239 27 -67 59 -165 85 -260 12 -47 27 -97
33 -112 6 -14 16 -55 22 -90 6 -34 19 -85 29 -113 10 -27 22 -72 25 -98 4 -26
16 -73 27 -104 10 -31 26 -103 35 -161 8 -57 20 -115 25 -130 6 -14 17 -73 25
-131 8 -58 21 -128 30 -156 8 -27 21 -109 29 -182 8 -73 19 -152 25 -177 9
-42 28 -195 64 -511 8 -71 20 -197 26 -280 6 -82 15 -199 20 -260 13 -157 29
-564 32 -815 l3 -215 -275 -7 c-151 -4 -278 -4 -281 0 -4 4 -11 267 -16 584
-5 317 -11 579 -13 582 -6 6 -344 -43 -575 -84 -191 -33 -567 -109 -574 -116
-2 -2 18 -29 45 -60 165 -193 287 -344 304 -379 10 -22 28 -92 39 -155 20
-111 52 -392 46 -398 -1 -2 -160 -12 -351 -22 -192 -11 -442 -25 -556 -31
-115 -7 -210 -10 -212 -8 -2 2 -9 285 -15 628 -6 343 -12 625 -14 627 -4 5
-432 -61 -630 -96 -241 -43 -518 -103 -515 -111 2 -4 67 -75 145 -158 124
-132 148 -163 188 -244 65 -132 82 -214 100 -481 8 -126 13 -231 11 -234 -3
-2 -112 -17 -243 -34 -131 -16 -240 -32 -242 -34 -5 -5 27 -34 154 -138 95
-77 234 -171 298 -202 l37 -18 0 -250 c0 -398 -25 -737 -74 -1022 l-22 -131
48 13 c76 20 207 32 403 39 181 6 287 17 359 36 l38 10 -6 337 c-3 185 -9 482
-12 659 l-6 321 139 46 c258 84 745 216 959 261 l32 6 7 -276 c8 -298 -5 -704
-31 -959 -13 -137 -55 -417 -70 -474 -6 -21 2 -19 162 37 187 65 526 188 619
224 l60 23 -3 305 c-2 167 -7 518 -11 779 -5 261 -5 478 -2 483 10 10 559 112
566 105 8 -8 -13 -1347 -24 -1523 -26 -407 -26 -375 -4 -375 63 0 393 245 533
396 30 32 107 114 172 182 72 76 144 163 185 225 200 307 221 342 260 431 19
45 48 113 64 151 94 217 118 283 134 367 8 40 21 92 29 116 8 23 20 70 26 105
6 34 18 80 26 101 8 22 22 112 30 200 8 89 21 199 29 246 21 126 23 661 2 845
-9 77 -21 199 -27 270 -6 72 -20 173 -30 225 -10 52 -24 136 -29 185 -6 50
-19 120 -30 156 -10 36 -22 90 -25 120 -4 30 -16 86 -26 124 -11 39 -29 106
-40 150 -38 144 -68 249 -84 290 -8 22 -15 48 -16 57 0 9 -14 61 -30 115 -17
54 -45 143 -62 198 -16 55 -41 125 -54 156 -13 31 -24 62 -24 70 0 7 -9 31
-19 53 -19 39 -32 75 -84 222 -12 33 -29 71 -38 85 -34 53 -29 106 9 91 9 -3
80 -59 157 -124 126 -107 429 -418 474 -488 9 -14 59 -86 111 -160 53 -74 112
-164 132 -200 111 -201 190 -357 202 -400 4 -14 17 -50 30 -80 54 -127 69
-168 86 -230 10 -36 25 -83 33 -105 8 -22 18 -60 22 -85 4 -25 15 -65 25 -90
10 -25 23 -85 29 -134 7 -49 21 -126 31 -170 31 -138 45 -368 45 -746 0 -510
-22 -731 -107 -1089 -41 -171 -28 -206 49 -138 21 19 108 88 193 154 193 151
193 151 391 361 105 112 195 220 255 305 51 73 103 147 116 165 13 18 33 45
44 60 12 15 45 72 75 127 29 55 65 123 80 150 16 28 36 66 44 85 9 19 27 57
41 84 13 28 24 56 24 63 0 7 11 36 24 65 43 95 68 162 82 218 7 30 22 79 33
110 10 30 27 95 36 145 9 49 22 101 28 115 22 45 54 38 240 -54 154 -76 332
-146 376 -146 9 0 47 -11 84 -25 85 -29 320 -44 433 -26 138 21 259 71 370
152 105 77 131 135 73 167 -17 9 -46 28 -64 42 -18 14 -61 43 -95 65 -35 22
-79 51 -100 65 -20 14 -52 35 -71 47 -53 34 -84 55 -249 177 -210 155 -218
161 -353 293 -202 198 -332 405 -491 783 -15 36 -39 86 -52 113 -13 26 -24 52
-24 58 0 5 -16 45 -36 87 -103 221 -134 290 -134 298 0 7 -62 140 -89 192 -5
9 -64 130 -131 267 -67 138 -127 259 -133 270 -6 11 -19 38 -29 60 -10 22 -23
47 -28 55 -6 8 -22 37 -37 63 -16 27 -35 61 -43 75 -9 15 -28 50 -44 77 -16
28 -39 66 -51 85 -12 19 -39 64 -60 100 -22 36 -58 90 -80 120 -205 275 -272
357 -417 514 -177 192 -444 440 -593 551 -49 38 -102 77 -117 89 -147 116
-408 284 -633 406 -71 39 -141 77 -155 85 -45 26 -286 141 -474 224 -37 17
-75 31 -83 31 -8 0 -45 14 -83 30 -38 17 -76 30 -85 30 -10 0 -43 11 -74 24
-31 13 -76 31 -101 39 -25 9 -83 30 -130 47 -47 18 -112 39 -145 47 -33 9 -96
26 -140 38 -44 13 -109 30 -145 38 -36 9 -92 23 -125 31 -130 32 -255 57 -367
71 -64 8 -129 20 -143 25 -30 11 -78 13 -88 3z"/>
<path d="M20855 21661 c-20 -18 -185 -61 -267 -70 -63 -6 -96 -15 -130 -35
-68 -39 -101 -35 -177 24 -35 28 -73 53 -85 56 -11 2 -68 4 -126 2 -98 -3
-105 -4 -108 -24 -2 -13 12 -38 34 -65 20 -24 60 -75 90 -114 29 -38 99 -117
156 -175 121 -124 210 -177 274 -166 87 17 226 167 298 321 21 44 50 106 66
137 16 31 30 69 32 85 3 23 -1 28 -22 31 -14 2 -30 -1 -35 -7z"/>
<path d="M23883 19027 c-76 -58 -122 -112 -189 -223 -29 -48 -304 -335 -351
-365 -230 -152 -285 -184 -333 -194 -19 -4 -48 -14 -63 -22 -42 -21 -183 -60
-264 -72 -107 -16 -330 -14 -389 4 -71 22 -94 20 -94 -7 1 -58 140 -186 270
-248 47 -23 108 -52 135 -66 28 -13 91 -31 140 -39 173 -29 196 -38 179 -74
-13 -28 -165 -162 -259 -230 -44 -31 -125 -80 -180 -108 -55 -27 -131 -67
-170 -87 -78 -41 -247 -106 -276 -106 -10 0 -51 -11 -91 -25 -99 -34 -297 -71
-447 -85 -281 -26 -797 -12 -916 25 -105 31 -133 16 -116 -65 34 -160 196
-343 381 -431 150 -72 164 -77 220 -87 31 -6 79 -20 107 -31 29 -11 86 -25
128 -30 42 -5 82 -15 90 -21 23 -19 18 -83 -10 -150 -14 -33 -25 -67 -25 -77
-1 -10 -8 -36 -16 -58 -25 -66 -123 -383 -137 -445 -3 -14 -11 -65 -17 -115
-6 -49 -18 -116 -26 -148 -42 -163 -80 -795 -55 -909 6 -24 17 -109 25 -190
17 -160 56 -364 81 -424 9 -21 23 -70 32 -109 8 -38 21 -81 28 -95 7 -14 16
-44 20 -65 4 -22 21 -69 37 -105 58 -126 86 -186 112 -240 14 -30 26 -59 26
-64 0 -8 20 -43 85 -146 12 -19 35 -56 51 -83 131 -214 328 -468 524 -670 121
-126 375 -348 496 -435 216 -153 467 -321 544 -364 76 -42 208 -113 266 -143
23 -12 52 -29 65 -38 27 -19 65 -22 75 -6 9 14 6 18 -249 293 -185 199 -334
380 -505 614 -10 12 -40 53 -67 90 -28 37 -68 96 -90 132 -21 36 -48 81 -61
100 -12 19 -38 64 -58 100 -20 36 -54 94 -76 130 -35 58 -72 131 -146 285 -13
28 -24 57 -24 65 0 8 -8 29 -19 45 -10 17 -24 48 -31 70 -7 22 -21 56 -31 75
-21 41 -70 188 -93 280 -9 36 -32 124 -51 195 -24 90 -39 179 -50 290 -8 88
-18 167 -21 175 -4 8 -6 103 -5 210 3 390 63 716 191 1035 15 39 38 94 49 123
12 29 40 86 63 125 22 40 46 81 52 92 65 118 202 334 246 390 96 122 203 250
214 257 45 31 54 -20 22 -129 -14 -48 -28 -106 -31 -128 -6 -38 -27 -133 -76
-340 -53 -228 -79 -396 -104 -699 -27 -318 -30 -419 -15 -612 6 -71 14 -219
19 -329 7 -157 15 -221 34 -300 14 -55 33 -138 42 -185 9 -47 23 -116 31 -155
20 -98 28 -129 62 -220 61 -162 84 -220 92 -230 4 -5 15 -32 23 -60 30 -101
74 -183 260 -488 77 -126 284 -383 409 -508 187 -187 376 -336 680 -537 84
-55 466 -253 518 -267 14 -4 45 -18 70 -31 25 -13 50 -24 57 -24 6 0 40 -13
75 -30 34 -16 71 -30 81 -30 10 0 32 -7 50 -17 18 -9 61 -24 97 -34 36 -10 92
-27 125 -37 76 -25 168 -48 270 -68 44 -9 110 -25 146 -36 75 -22 144 -21 144
2 0 10 -18 19 -55 26 -30 6 -77 23 -104 38 -27 14 -55 26 -62 26 -27 0 -168
63 -384 173 -246 124 -286 146 -405 224 -120 78 -141 94 -208 148 -34 28 -82
66 -107 85 -179 137 -439 421 -576 629 -42 64 -84 127 -93 141 -44 66 -195
389 -206 441 -4 19 -17 59 -30 89 -33 80 -72 223 -85 310 -6 41 -17 99 -26
129 -45 159 -48 857 -3 1071 11 52 24 135 29 185 11 91 41 231 85 385 13 47
31 113 40 148 33 136 48 190 70 267 13 44 30 107 38 140 33 139 51 204 73 275
12 41 28 101 34 133 7 33 18 74 26 92 8 19 21 78 29 133 8 54 21 128 29 163 8
35 17 93 21 129 3 36 17 121 30 190 24 124 55 426 75 735 11 176 -2 706 -19
785 -6 25 -17 113 -25 196 -9 84 -24 185 -35 225 -11 41 -23 99 -26 129 -5 42
-48 195 -59 207 0 1 -38 -26 -83 -60z"/>
<path d="M25270 15114 c-77 -78 -125 -113 -240 -174 l-85 -45 -3 -169 c-2
-122 1 -172 10 -183 13 -16 48 -14 151 8 50 12 59 11 67 -1 13 -21 13 -368 -1
-787 -10 -284 -9 -355 1 -368 10 -13 47 -15 232 -15 228 0 267 6 282 45 3 9 6
339 7 733 0 394 4 766 8 826 5 61 7 115 4 122 -2 7 -42 17 -91 24 -48 7 -127
20 -177 31 -49 10 -92 19 -95 19 -3 0 -35 -30 -70 -66z"/>
<path d="M26875 15149 c-175 -23 -385 -103 -524 -202 -160 -113 -302 -293
-361 -456 -43 -119 -63 -260 -56 -396 18 -366 215 -629 535 -717 109 -31 351
-30 465 1 129 35 220 85 307 171 87 85 129 160 160 278 26 101 26 262 0 354
-74 270 -359 424 -673 364 -40 -8 -92 -22 -116 -31 -24 -10 -46 -15 -49 -11
-12 12 30 77 72 112 84 68 246 120 410 130 121 7 134 11 146 38 9 19 7 38 -11
92 -41 123 -100 268 -112 276 -16 10 -101 8 -193 -3z m-69 -928 c56 -25 110
-92 124 -153 32 -131 -40 -277 -150 -308 -56 -16 -151 -12 -195 9 -104 47
-158 188 -121 314 12 43 26 64 61 95 24 21 59 44 77 49 55 18 158 15 204 -6z"/>
</g>
</svg>
