<?xml version="1.0" encoding="UTF-8" standalone="no"?>
<!-- Created with Inkscape (http://www.inkscape.org/) -->

<svg
   xmlns:dc="http://purl.org/dc/elements/1.1/"
   xmlns:cc="http://creativecommons.org/ns#"
   xmlns:rdf="http://www.w3.org/1999/02/22-rdf-syntax-ns#"
   xmlns:svg="http://www.w3.org/2000/svg"
   xmlns="http://www.w3.org/2000/svg"
   xmlns:xlink="http://www.w3.org/1999/xlink"
   xmlns:inkscape="http://www.inkscape.org/namespaces/inkscape"
   version="1.0"
   width="516"
   height="862"
   id="svg2178">
  <metadata
     id="metadata123">
    <rdf:RDF>
      <cc:Work
         rdf:about="">
        <dc:format>image/svg+xml</dc:format>
        <dc:type
           rdf:resource="http://purl.org/dc/dcmitype/StillImage" />
      </cc:Work>
    </rdf:RDF>
  </metadata>
  <defs
     id="defs2181">
    <linearGradient
       id="linearGradient3226">
      <stop
         id="stop3228"
         style="stop-color:#b0b0b0;stop-opacity:1"
         offset="0" />
      <stop
         id="stop3230"
         style="stop-color:#4a4a4a;stop-opacity:1"
         offset="1" />
    </linearGradient>
    <linearGradient
       x1="393.5"
       y1="544.5"
       x2="393.5"
       y2="547.5"
       id="linearGradient3232"
       xlink:href="#linearGradient3226"
       gradientUnits="userSpaceOnUse" />
    <linearGradient
       x1="408.33017"
       y1="542.98352"
       x2="408.33017"
       y2="547.08051"
       id="linearGradient3240"
       xlink:href="#linearGradient3226"
       gradientUnits="userSpaceOnUse" />
  </defs>
  <g
     id="layer1"
     style="display:inline">
    <path
       d="m 112.78936,687.60139 c 1.34508,1.59072 2.19018,7.37692 0.38626,13.13301 -1.80392,5.75609 -5.49533,9.37912 -7.4356,9.27035 -1.94027,-0.10878 -4.11514,-1.43159 -3.95922,-4.53861 0.15576,-3.10368 3.53741,-13.7753 5.40771,-16.03 1.87031,-2.2547 4.30399,-3.36845 5.60085,-1.83475 z"
       inkscape:connector-curvature="0"
       id="path2208"
       style="color:#000000;fill:#006d09;fill-opacity:0.75;fill-rule:evenodd;stroke:#000000;stroke-width:1px;stroke-linecap:butt;stroke-linejoin:miter;stroke-miterlimit:4;stroke-opacity:1;stroke-dasharray:none;stroke-dashoffset:0;marker:none;visibility:visible;display:inline;overflow:visible;enable-background:accumulate" />
    <path
       d="m 70,747 c 20,0 26.9737,-12.92768 35,-35 l 20,-55 85,75 0,25 -140,-10 z"
       inkscape:connector-curvature="0"
       id="path2199"
       style="color:#000000;fill:#006408;fill-opacity:1;fill-rule:evenodd;stroke:#000000;stroke-width:1px;stroke-linecap:butt;stroke-linejoin:miter;stroke-miterlimit:4;stroke-opacity:1;stroke-dasharray:none;stroke-dashoffset:0;marker:none;visibility:visible;display:inline;overflow:visible;enable-background:accumulate" />
    <path
       d="m 300.76972,673.66076 4.24119,0.11129 71.58479,75.44281 -0.11129,4.24118 -7.25412,6.88315 -4.24118,-0.11129 -71.58479,-75.4428 0.11129,-4.24118 7.25411,-6.88316 z"
       inkscape:connector-curvature="0"
       id="path4128"
       style="fill:#929292;fill-opacity:1;fill-rule:evenodd;stroke:#000000;stroke-width:1px;stroke-linecap:butt;stroke-linejoin:miter;stroke-opacity:1" />
    <path
       d="m 369.23029,760.33919 -75.71468,-79.79527 7.25411,-6.88316 75.71469,79.79528 -7.25412,6.88315 z"
       inkscape:connector-curvature="0"
       id="path4126"
       style="fill:#6b6b6b;fill-opacity:1;fill-rule:evenodd;stroke:#000000;stroke-width:1px;stroke-linecap:butt;stroke-linejoin:miter;stroke-opacity:1" />
    <path
       d="m 10,757 0,40 45,0 c 0,-5 5,-10 10,-10 l 150,0 5,5 35,0 5,-5 155,0 c 5,0 10,5 10,10 l 35,0 0,-40 c 0,-5 -5,-10 -10,-10 l -430,0 c -5,0 -10,5 -10,10 z"
       inkscape:connector-curvature="0"
       id="path2193"
       style="fill:#006d09;fill-opacity:1;fill-rule:evenodd;stroke:#000000;stroke-width:1px;stroke-linecap:butt;stroke-linejoin:miter;stroke-opacity:1" />
    <path
       d="m 295,622 a 35,35 0 1 1 -70,0 35,35 0 1 1 70,0 z"
       inkscape:connector-curvature="0"
       id="path2181"
       style="color:#000000;fill:#9f9f9f;fill-opacity:1;fill-rule:evenodd;stroke:#000000;stroke-width:3;stroke-linecap:round;stroke-linejoin:miter;stroke-miterlimit:4;stroke-opacity:1;stroke-dasharray:none;stroke-dashoffset:0;marker:none;visibility:visible;display:inline;overflow:visible;enable-background:accumulate" />
    <path
       d="m 250,497 145,0 0,59 -89,0 -1,-9 -55,0 0,-50 z"
       inkscape:connector-curvature="0"
       id="path3241"
       style="fill:#dfdfdf;fill-opacity:1;fill-rule:evenodd;stroke:#000000;stroke-width:1px;stroke-linecap:butt;stroke-linejoin:miter;stroke-opacity:1" />
    <path
       d="m 210,517 0,-13 119,-7 c -2,3.33333 -6,6 -6,10 l 0,10 -17,0 0,13 -45,0 0,-13 -51,0 z"
       inkscape:connector-curvature="0"
       id="path2211"
       style="color:#000000;fill:#676767;fill-opacity:1;fill-rule:evenodd;stroke:#000000;stroke-width:1px;stroke-linecap:butt;stroke-linejoin:miter;stroke-miterlimit:4;stroke-opacity:1;stroke-dasharray:none;stroke-dashoffset:0;marker:none;visibility:visible;display:inline;overflow:visible;enable-background:accumulate" />
    <path
       d="m 210,497 -5,6 0,10 5,4 0,-13 50,0 0,13 16,0 0,9 -9,0 0,4 22,0 0,-16 12,-13 25,0 3,-4 -119,0 z"
       inkscape:connector-curvature="0"
       id="path2217"
       style="color:#000000;fill:#b8b8b8;fill-opacity:1;fill-rule:evenodd;stroke:#000000;stroke-width:1px;stroke-linecap:butt;stroke-linejoin:miter;stroke-miterlimit:4;stroke-opacity:1;stroke-dasharray:none;stroke-dashoffset:0;marker:none;visibility:visible;display:inline;overflow:visible;enable-background:accumulate" />
    <path
       d="m 290,222 a 40,40 0 1 1 -80,0 40,40 0 1 1 80,0 z"
       inkscape:connector-curvature="0"
       id="path2282"
       style="color:#000000;fill:#727272;fill-opacity:1;fill-rule:evenodd;stroke:#000000;stroke-width:1px;stroke-linecap:butt;stroke-linejoin:miter;stroke-miterlimit:4;stroke-opacity:1;stroke-dasharray:none;stroke-dashoffset:0;marker:none;visibility:visible;display:inline;overflow:visible;enable-background:accumulate" />
    <rect
       width="115"
       height="190"
       x="285"
       y="167"
       id="rect3274"
       style="color:#000000;fill:#727272;fill-opacity:1;fill-rule:evenodd;stroke:#000000;stroke-width:1px;stroke-linecap:butt;stroke-linejoin:miter;stroke-miterlimit:4;stroke-opacity:1;stroke-dasharray:none;stroke-dashoffset:0;marker:none;visibility:visible;display:inline;overflow:visible;enable-background:accumulate" />
    <path
       d="m 318,334 0,-27 -13,0 0,-180 -3,0 0,-3 7,0 9,-9 49,0 9,9 7,0 0,3 -3,0 0,180 -13,0 0,27 -49,0 z"
       inkscape:connector-curvature="0"
       id="path3270"
       style="fill:#cccccc;fill-opacity:1;fill-rule:evenodd;stroke:#000000;stroke-width:1px;stroke-linecap:butt;stroke-linejoin:miter;stroke-opacity:1" />
    <path
       d="m 365,47 -45,0 0,125 45,0 0,-125 z"
       inkscape:connector-curvature="0"
       id="path3262"
       style="fill:#bebebe;fill-opacity:1;fill-rule:evenodd;stroke:#000000;stroke-width:1px;stroke-linecap:butt;stroke-linejoin:miter;stroke-opacity:1" />
    <path
       d="m 195,202 -5,10 C 100,277 65,397 65,467 65,627 170,717 200,737 l 65,0 0,-100 c 6.90419,-2.47939 10,-5 10,-15 l 0,-40 -10,0 0,-20 -45,-27 -15,0 c -5,10 -5,27 -40,27 -30,0 -40,-45 -40,-95 0,-55 10,-100 40,-100 15,0 15,5 25,15 -5,0 -5,10 0,10 l 90,0 5,-5 0,-30 -15,-155 -75,0 z m -15,110 c 11.04,0 20,8.96 20,20 0,11.04 -8.96,20 -20,20 -11.04,0 -20,-8.96 -20,-20 0,-11.04 8.96,-20 20,-20 z"
       inkscape:connector-curvature="0"
       id="path2195"
       style="color:#000000;fill:#006d09;fill-opacity:1;fill-rule:evenodd;stroke:#000000;stroke-width:1px;stroke-linecap:butt;stroke-linejoin:miter;stroke-miterlimit:4;stroke-opacity:1;stroke-dasharray:none;stroke-dashoffset:0;marker:none;visibility:visible;display:inline;overflow:visible;enable-background:accumulate" />
    <path
       d="m 205,737 0,10 55,0 0,-10 -55,0 z"
       inkscape:connector-curvature="0"
       id="path2197"
       style="color:#000000;fill:#004b06;fill-opacity:1;fill-rule:evenodd;stroke:#000000;stroke-width:1px;stroke-linecap:butt;stroke-linejoin:miter;stroke-miterlimit:4;stroke-opacity:1;stroke-dasharray:none;stroke-dashoffset:0;marker:none;visibility:visible;display:inline;overflow:visible;enable-background:accumulate" />
    <path
       d="m 205,617 a 30,30 0 1 1 -60,0 30,30 0 1 1 60,0 z"
       inkscape:connector-curvature="0"
       id="path2216"
       style="color:#000000;fill:#aaaaaa;fill-opacity:1;fill-rule:evenodd;stroke:#000000;stroke-width:3;stroke-linecap:round;stroke-linejoin:miter;stroke-miterlimit:4;stroke-opacity:1;stroke-dasharray:none;stroke-dashoffset:0;marker:none;visibility:visible;display:inline;overflow:visible;enable-background:accumulate" />
    <path
       d="m 200,617 a 25,25 0 1 1 -50,0 25,25 0 1 1 50,0 z"
       inkscape:connector-curvature="0"
       id="path2214"
       style="color:#000000;fill:#898989;fill-opacity:1;fill-rule:evenodd;stroke:#000000;stroke-width:1;stroke-linecap:round;stroke-linejoin:miter;stroke-miterlimit:4;stroke-opacity:1;stroke-dasharray:none;stroke-dashoffset:0;marker:none;visibility:visible;display:inline;overflow:visible;enable-background:accumulate" />
    <path
       d="m 185,617 a 10,10 0 1 1 -20,0 10,10 0 1 1 20,0 z"
       inkscape:connector-curvature="0"
       id="path2212"
       style="color:#000000;fill:#b4b4b4;fill-opacity:1;fill-rule:evenodd;stroke:#000000;stroke-width:1;stroke-linecap:round;stroke-linejoin:miter;stroke-miterlimit:4;stroke-opacity:1;stroke-dasharray:none;stroke-dashoffset:0;marker:none;visibility:visible;display:inline;overflow:visible;enable-background:accumulate" />
    <path
       d="m 270,622 a 10,10 0 1 1 -20,0 10,10 0 1 1 20,0 z"
       inkscape:connector-curvature="0"
       transform="matrix(0.7984705,0,0,0.7984705,52.397675,125.35136)"
       id="path2179"
       style="color:#000000;fill:none;stroke:#000000;stroke-width:3;stroke-linecap:round;stroke-linejoin:miter;stroke-miterlimit:4;stroke-opacity:1;stroke-dasharray:none;stroke-dashoffset:0;marker:none;visibility:visible;display:inline;overflow:visible;enable-background:accumulate" />
    <path
       d="m 265,582 0,25 10,0 0.0206,-0.70737 L 275,582 l -10,0 z"
       inkscape:connector-curvature="0"
       id="path2183"
       style="fill:none;stroke:#000000;stroke-width:1px;stroke-linecap:butt;stroke-linejoin:miter;stroke-opacity:1" />
    <path
       d="m 220,535 0,37 20,-26 -20,-11 z"
       inkscape:connector-curvature="0"
       id="path2201"
       style="color:#000000;fill:#004e06;fill-opacity:1;fill-rule:evenodd;stroke:#000000;stroke-width:1px;stroke-linecap:butt;stroke-linejoin:miter;stroke-miterlimit:4;stroke-opacity:1;stroke-dasharray:none;stroke-dashoffset:0;marker:none;visibility:visible;display:inline;overflow:visible;enable-background:accumulate" />
    <path
       d="m 220,737 20,0 0,-165 c 0,-5 6.66667,-13.33333 10,-20 l -15,-10 c -5,8.33333 -15,25 -15,30 l 0,165 z"
       inkscape:connector-curvature="0"
       id="path2185"
       style="color:#000000;fill:#00890b;fill-opacity:1;fill-rule:evenodd;stroke:#000000;stroke-width:1px;stroke-linecap:butt;stroke-linejoin:miter;stroke-miterlimit:4;stroke-opacity:1;stroke-dasharray:none;stroke-dashoffset:0;marker:none;visibility:visible;display:inline;overflow:visible;enable-background:accumulate" />
    <path
       d="m 265,727 5,0 0,-20 -5,0 0,20 z"
       inkscape:connector-curvature="0"
       id="path2187"
       style="fill:#4b4b4b;fill-opacity:1;fill-rule:evenodd;stroke:#000000;stroke-width:1px;stroke-linecap:butt;stroke-linejoin:miter;stroke-opacity:1" />
    <path
       d="m 335,710 -65,-8 0,30 65,-8 c 3,0 6,-3 6,-7 0,-4 -3,-7 -6,-7 z"
       inkscape:connector-curvature="0"
       id="path2189"
       style="fill:#9f9f9f;fill-opacity:1;fill-rule:evenodd;stroke:#000000;stroke-width:1px;stroke-linecap:butt;stroke-linejoin:miter;stroke-opacity:1" />
    <path
       d="m 338,717 a 3,3 0 1 1 -6,0 3,3 0 1 1 6,0 z"
       inkscape:connector-curvature="0"
       id="path2182"
       style="color:#000000;fill:none;stroke:#000000;stroke-width:1;stroke-linecap:round;stroke-linejoin:miter;stroke-miterlimit:4;stroke-opacity:1;stroke-dasharray:none;stroke-dashoffset:0;marker:none;visibility:visible;display:inline;overflow:visible;enable-background:accumulate" />
    <path
       d="m 190,382 c -5,0 -5,10 0,10 l 90,0 5,-5 0,-5 -95,0 z"
       inkscape:connector-curvature="0"
       id="rect4134"
       style="opacity:0.6;color:#000000;fill:none;stroke:#000000;stroke-width:1;stroke-linecap:round;stroke-linejoin:miter;stroke-miterlimit:4;stroke-opacity:1;stroke-dasharray:none;stroke-dashoffset:0;marker:none;visibility:visible;display:inline;overflow:visible;enable-background:accumulate" />
    <path
       d="m 255,202 0,190 25,0 5,-5 0,-30 -15,-155 -15,0 z"
       inkscape:connector-curvature="0"
       id="rect3242"
       style="color:#000000;fill:#767676;fill-opacity:1;fill-rule:evenodd;stroke:#000000;stroke-width:1px;stroke-linecap:butt;stroke-linejoin:miter;stroke-miterlimit:4;stroke-opacity:1;stroke-dasharray:none;stroke-dashoffset:0;marker:none;visibility:visible;display:inline;overflow:visible;enable-background:accumulate" />
    <path
       d="m 300,562 85,0 0,40 -85,0 0,-40 z"
       inkscape:connector-curvature="0"
       id="path3243"
       style="fill:#dfdfdf;fill-opacity:1;fill-rule:evenodd;stroke:#000000;stroke-width:1px;stroke-linecap:butt;stroke-linejoin:miter;stroke-opacity:1" />
    <path
       d="m 290,592 12,0 0,-25 -7,0 0,5 -5,0 0,20 z"
       inkscape:connector-curvature="0"
       id="path2196"
       style="color:#000000;fill:#b8b8b8;fill-opacity:1;fill-rule:evenodd;stroke:#000000;stroke-width:1px;stroke-linecap:butt;stroke-linejoin:miter;stroke-miterlimit:4;stroke-opacity:1;stroke-dasharray:none;stroke-dashoffset:0;marker:none;visibility:visible;display:inline;overflow:visible;enable-background:accumulate" />
    <path
       d="m 308,579 0,22 -12,0 9,-22 3,0 z"
       inkscape:connector-curvature="0"
       id="path2192"
       style="fill:#b8b8b8;fill-opacity:1;fill-rule:evenodd;stroke:#000000;stroke-width:1px;stroke-linecap:butt;stroke-linejoin:miter;stroke-opacity:1" />
    <path
       d="m 376,578 0,23 13,0 -7,-23 -6,0 z"
       inkscape:connector-curvature="0"
       id="path2194"
       style="color:#000000;fill:#b8b8b8;fill-opacity:1;fill-rule:evenodd;stroke:#000000;stroke-width:1px;stroke-linecap:butt;stroke-linejoin:miter;stroke-miterlimit:4;stroke-opacity:1;stroke-dasharray:none;stroke-dashoffset:0;marker:none;visibility:visible;display:inline;overflow:visible;enable-background:accumulate" />
    <path
       d="m 390,568 0,7 5,0 0,17 -10,0 -3,-9.27598 0,-14.72402 8,0 z"
       inkscape:connector-curvature="0"
       id="path2198"
       style="color:#000000;fill:#b8b8b8;fill-opacity:1;fill-rule:evenodd;stroke:#000000;stroke-width:1px;stroke-linecap:butt;stroke-linejoin:miter;stroke-miterlimit:4;stroke-opacity:1;stroke-dasharray:none;stroke-dashoffset:0;marker:none;visibility:visible;display:inline;overflow:visible;enable-background:accumulate" />
    <path
       d="m 301,577 0,8 -7,1 0,6 -19,0 0,10 18,0 0,6 4,0 0,-7 3,0 0,-6 2,0 0,-7 4,0 0,-9 74,0 0,10 3,0 0,8 3,0 0,7 1,4 4,0 0,-22 -8,0 0,-9 -82,0 z"
       inkscape:connector-curvature="0"
       id="path2188"
       style="fill:#7c7c7c;fill-opacity:1;fill-rule:evenodd;stroke:#000000;stroke-width:1px;stroke-linecap:butt;stroke-linejoin:miter;stroke-opacity:1" />
    <path
       d="m 297,601 0,7 90,0 0,-7 -90,0 z"
       inkscape:connector-curvature="0"
       id="path2190"
       style="fill:#82d8ff;fill-opacity:1;fill-rule:evenodd;stroke:#000000;stroke-width:1px;stroke-linecap:butt;stroke-linejoin:miter;stroke-opacity:1" />
    <path
       d="m 272,572 0,4 125,0 0,-4 -125,0 z"
       inkscape:connector-curvature="0"
       id="path2200"
       style="fill:#dfdfdf;fill-opacity:1;fill-rule:evenodd;stroke:#000000;stroke-width:1px;stroke-linecap:butt;stroke-linejoin:miter;stroke-opacity:1" />
    <path
       d="m 286,567 114,0 0,-7 -114,0 0,7 z"
       inkscape:connector-curvature="0"
       id="path2202"
       style="fill:#8d8d8d;fill-opacity:1;fill-rule:evenodd;stroke:#000000;stroke-width:1px;stroke-linecap:butt;stroke-linejoin:miter;stroke-opacity:1" />
    <path
       d="m 286,562 0,4 136,0 0,-4 -136,0 z"
       inkscape:connector-curvature="0"
       id="path2204"
       style="fill:#b0b0b0;fill-opacity:1;fill-rule:evenodd;stroke:#000000;stroke-width:1px;stroke-linecap:butt;stroke-linejoin:miter;stroke-opacity:1" />
    <path
       d="m 315,519 3,6 -6,3 0,8 -4,3 0,15 69,0 0,-17 -4,-2 0,-7 -5,-3 3,-6 5,0 0,13 4,0 0,20 17,0 0,4 -110,0 0,-4 17,0 0,-20 5,0 0,-13 6,0 z"
       inkscape:connector-curvature="0"
       id="path2206"
       style="color:#000000;fill:#b8b8b8;fill-opacity:1;fill-rule:evenodd;stroke:#000000;stroke-width:1px;stroke-linecap:butt;stroke-linejoin:miter;stroke-miterlimit:4;stroke-opacity:1;stroke-dasharray:none;stroke-dashoffset:0;marker:none;visibility:visible;display:inline;overflow:visible;enable-background:accumulate" />
    <path
       d="m 310,377 4,6 12,1 0,43 36,0 0,-50 -52,0 z"
       inkscape:connector-curvature="0"
       id="path3232"
       style="fill:#8d8d8d;fill-opacity:1;fill-rule:evenodd;stroke:#000000;stroke-width:1px;stroke-linecap:butt;stroke-linejoin:miter;stroke-opacity:1" />
    <path
       d="m 312,528 c 23,-6 38,-6 61,0 l 0,7 c -18,17 -43,17 -61,1 l 0,-8 z"
       inkscape:connector-curvature="0"
       id="path2215"
       style="color:#000000;fill:#82d8ff;fill-opacity:1;fill-rule:evenodd;stroke:#000000;stroke-width:1px;stroke-linecap:butt;stroke-linejoin:miter;stroke-miterlimit:4;stroke-opacity:1;stroke-dasharray:none;stroke-dashoffset:0;marker:none;visibility:visible;display:inline;overflow:visible;enable-background:accumulate" />
    <path
       d="m 265,562 c 0,-5 5,-13 10,-13 l 26,0 0,-10 -42,0 0,23 6,0 z"
       inkscape:connector-curvature="0"
       id="path2203"
       style="color:#000000;fill:#b8b8b8;fill-opacity:1;fill-rule:evenodd;stroke:#000000;stroke-width:1px;stroke-linecap:butt;stroke-linejoin:miter;stroke-miterlimit:4;stroke-opacity:1;stroke-dasharray:none;stroke-dashoffset:0;marker:none;visibility:visible;display:inline;overflow:visible;enable-background:accumulate" />
    <path
       d="m 259,562 -4,0 c -5,0 -12,-5 -17,-8 l 21,-15 0,23 z"
       inkscape:connector-curvature="0"
       id="path2205"
       style="fill:#bebebe;fill-opacity:1;fill-rule:evenodd;stroke:#000000;stroke-width:1px;stroke-linecap:butt;stroke-linejoin:miter;stroke-opacity:1" />
    <path
       d="m 220,535 38,0 0,2 1,2 -16,11 c -1,1 -1,4.33333 -1,6 -7,-2 -6,-5 -9,-8 -6,-3 -8,-6 -13,-13 z"
       inkscape:connector-curvature="0"
       id="path2207"
       style="color:#000000;fill:#bebebe;fill-opacity:1;fill-rule:evenodd;stroke:#000000;stroke-width:1px;stroke-linecap:butt;stroke-linejoin:miter;stroke-miterlimit:4;stroke-opacity:1;stroke-dasharray:none;stroke-dashoffset:0;marker:none;visibility:visible;display:inline;overflow:visible;enable-background:accumulate" />
    <path
       d="m 215,517 37,0 0,13 37,0 0,5 -74,0 c 0,0 -4,-5.5 -4,-10 0,-4.5 4,-8 4,-8 z"
       inkscape:connector-curvature="0"
       id="path2209"
       style="color:#000000;fill:#898989;fill-opacity:1;fill-rule:evenodd;stroke:#000000;stroke-width:1px;stroke-linecap:butt;stroke-linejoin:miter;stroke-miterlimit:4;stroke-opacity:1;stroke-dasharray:none;stroke-dashoffset:0;marker:none;visibility:visible;display:inline;overflow:visible;enable-background:accumulate" />
    <path
       d="m 313,492 57,0 0,5 -57,0 0,-5 z"
       inkscape:connector-curvature="0"
       id="path2219"
       style="color:#000000;fill:#3730ff;fill-opacity:0.55191255;fill-rule:evenodd;stroke:#000000;stroke-width:1px;stroke-linecap:butt;stroke-linejoin:miter;stroke-miterlimit:4;stroke-opacity:1;stroke-dasharray:none;stroke-dashoffset:0;marker:none;visibility:visible;display:inline;overflow:visible;enable-background:accumulate" />
    <path
       d="m 356,497 119,7 0,12 -80,14 -17,0 0,-14 -16,0 0,-9 -6,-10 z"
       inkscape:connector-curvature="0"
       id="path2221"
       style="color:#000000;fill:#676767;fill-opacity:1;fill-rule:evenodd;stroke:#000000;stroke-width:1px;stroke-linecap:butt;stroke-linejoin:miter;stroke-miterlimit:4;stroke-opacity:1;stroke-dasharray:none;stroke-dashoffset:0;marker:none;visibility:visible;display:inline;overflow:visible;enable-background:accumulate" />
    <path
       d="m 470,516 0,21 -75,0 0,-21 75,0 z"
       inkscape:connector-curvature="0"
       id="path2225"
       style="color:#000000;fill:#8a8a8a;fill-opacity:1;fill-rule:evenodd;stroke:#000000;stroke-width:1px;stroke-linecap:butt;stroke-linejoin:miter;stroke-miterlimit:4;stroke-opacity:1;stroke-dasharray:none;stroke-dashoffset:0;marker:none;visibility:visible;display:inline;overflow:visible;enable-background:accumulate" />
    <path
       d="m 356,497 119,0 5,5 0,10 -5,5 0,-13 -50,0 0,14 -18,0 0,10 -12,0 0,-13 -12,-14 -25,0 -2,-4 z"
       inkscape:connector-curvature="0"
       id="path2223"
       style="color:#000000;fill:#b8b8b8;fill-opacity:1;fill-rule:evenodd;stroke:#000000;stroke-width:1px;stroke-linecap:butt;stroke-linejoin:miter;stroke-miterlimit:4;stroke-opacity:1;stroke-dashoffset:0;marker:none;visibility:visible;display:inline;overflow:visible;enable-background:accumulate" />
    <path
       d="m 477,520 -45,0 0,13 45,0 0,-13 z"
       inkscape:connector-curvature="0"
       id="path2227"
       style="fill:#b0b0b0;fill-opacity:1;fill-rule:evenodd;stroke:#000000;stroke-width:1px;stroke-linecap:butt;stroke-linejoin:miter;stroke-opacity:1" />
    <path
       d="m 477,527 -2,-3 -5,7 -5,-7 -5,6 -5,-6 -5,5 -5,-5 -5,5 -5,-5 -3,5"
       inkscape:connector-curvature="0"
       id="path2229"
       style="fill:none;stroke:#000000;stroke-width:1px;stroke-linecap:butt;stroke-linejoin:miter;stroke-opacity:1" />
    <path
       d="m 407,528 21,0"
       inkscape:connector-curvature="0"
       id="path2233"
       style="fill:none;stroke:#000000;stroke-width:1px;stroke-linecap:butt;stroke-linejoin:miter;stroke-opacity:1" />
    <path
       d="m 421,519 11,0 0,14 c -4,0 -11,-8 -11,-14 z"
       inkscape:connector-curvature="0"
       id="path2231"
       style="fill:#4e4e4e;fill-opacity:1;fill-rule:evenodd;stroke:#000000;stroke-width:1px;stroke-linecap:butt;stroke-linejoin:miter;stroke-opacity:1" />
    <path
       d="m 380,538 16,0 0,12 -16,0 0,-12 z"
       inkscape:connector-curvature="0"
       id="path2235"
       style="color:#000000;fill:#868686;fill-opacity:1;fill-rule:evenodd;stroke:#000000;stroke-width:1px;stroke-linecap:butt;stroke-linejoin:miter;stroke-miterlimit:4;stroke-opacity:1;stroke-dasharray:none;stroke-dashoffset:0;marker:none;visibility:visible;display:inline;overflow:visible;enable-background:accumulate" />
    <path
       d="m 385,542 17,0 0,5 -17,0 0,-5 z"
       inkscape:connector-curvature="0"
       id="path2237"
       style="fill:url(#linearGradient3232);fill-opacity:1;fill-rule:evenodd;stroke:#000000;stroke-width:1px;stroke-linecap:butt;stroke-linejoin:miter;stroke-opacity:1" />
    <path
       d="m 402,542 1,-1 16,0 c 1.20025,2.42566 1.16678,4.75642 0,7 l -16,0 -1,-1 0,-5 z"
       inkscape:connector-curvature="0"
       id="path2241"
       style="fill:url(#linearGradient3240);fill-opacity:1;fill-rule:evenodd;stroke:#000000;stroke-width:1px;stroke-linecap:butt;stroke-linejoin:miter;stroke-opacity:1" />
    <path
       d="m 355,497 c 5,10 5,25 -12.5606,25.03414 C 325,522 323,507 330,497 l 25,0 z"
       inkscape:connector-curvature="0"
       id="path2243"
       style="color:#000000;fill:#82d8ff;fill-opacity:1;fill-rule:evenodd;stroke:#000000;stroke-width:1px;stroke-linecap:butt;stroke-linejoin:miter;stroke-miterlimit:4;stroke-opacity:1;stroke-dasharray:none;stroke-dashoffset:0;marker:none;visibility:visible;display:inline;overflow:visible;enable-background:accumulate" />
    <path
       d="m 285,357 -14,0 -2,-2 0,-188 16,0 0,190 z"
       inkscape:connector-curvature="0"
       id="path2245"
       style="fill:#949494;fill-opacity:1;fill-rule:evenodd;stroke:#000000;stroke-width:1px;stroke-linecap:butt;stroke-linejoin:miter;stroke-opacity:1" />
    <path
       d="m 269,355 0,-188 -10,0 -2,2 3,3 -3,3 3,3 -3,3 3,3 -3,3 3,3 -3,3 3,3 -3,3 3,3 -3,3 3,3 -3,3 3,3 -3,3 3,3 -3,3 3,3 -3,3 3,3 -3,3 3,3 -3,3 3,3 -3,3 3,3 -3,3 3,3 -3,3 3,3 -3,3 3,3 -3,3 3,3 -3,3 3,3 -3,3 3,3 -3,3 3,3 -3,3 3,3 -3,3 3,3 -3,3 3,3 -3,3 3,3 -3,3 3,3 -3,3 3,3 -3,3 3,3 -3,3 3,3 -3,3 12,12 z"
       inkscape:connector-curvature="0"
       id="path2247"
       style="fill:#b0b0b0;fill-opacity:1;fill-rule:evenodd;stroke:#000000;stroke-width:1px;stroke-linecap:butt;stroke-linejoin:miter;stroke-opacity:1" />
    <path
       d="m 241,202 14,0 0,190 -13,0 0,-3 c 0.12708,-0.31568 0.25415,-0.63136 0.38123,-0.94705 0.34904,-0.86708 0.19313,-1.9524 0.19313,-2.89698 0,-0.89421 -0.52433,-2.09735 -0.77253,-3.09012 -0.342,-1.36804 -0.57939,-2.6321 -0.57939,-4.05578 0,-1.22318 0,-2.44635 0,-3.66952 0,-1.24173 0.0894,-2.53938 -0.19314,-3.66952 -0.43519,-1.74076 -0.53627,-3.49703 -0.96566,-5.21457 -0.32559,-1.30238 -0.33254,-2.9558 -0.77253,-4.05578 -0.36942,-0.92357 -0.19313,-2.6177 -0.19313,-3.66952 0,-1.1588 0,-2.31759 0,-3.47638 0,-2.01912 0.1664,-4.0528 -0.38627,-5.98711 -0.34631,-1.21211 -0.57939,-2.4362 -0.57939,-3.66952 0,-0.83263 1.05235,-2.34117 1.35192,-3.09012 0.53574,-1.33932 1.39221,-2.67185 1.7382,-4.05578 0.39711,-1.58846 0.67622,-3.09063 1.35192,-4.44205 0.58319,-1.16636 0.77253,-3.28379 0.77253,-4.63517 0,-1.46866 -0.23972,-2.69709 -0.57939,-4.05579 -0.37428,-1.49711 -0.8604,-2.95005 -1.1588,-4.44204 -0.2739,-1.36951 -0.2334,-2.67181 -0.5794,-4.05578 -0.2354,-0.94164 -0.19313,-1.89669 -0.19313,-2.89699 0,-1.09442 0,-2.18883 0,-3.28325 0,-0.95938 -0.19313,-1.86304 -0.19313,-2.89699 0,-0.25751 0,-0.51502 0,-0.77253 0,-1.33104 0.39508,-2.33523 0.96566,-3.47638 0.53798,-1.07596 0.74002,-2.34815 0.96566,-3.47639 0.51074,-2.5537 -1.15879,-4.85101 -1.15879,-7.33903 0,-3.07725 -0.0343,-7.28313 -0.77253,-10.23602 -0.14395,-0.57581 -0.25751,-1.1588 -0.38627,-1.73819 -0.27213,-1.22459 -0.29157,-2.69637 0,-3.86265 0.31243,-1.24969 0.46304,-2.62469 0.77253,-3.86265 0.35575,-1.42298 0.19314,-3.10534 0.19314,-4.63518 0,-1.29499 0.10009,-2.68975 -0.19314,-3.86265 -0.31226,-1.24907 0,-2.94756 0,-4.24891 0,-1.48037 0.25561,-2.18124 0.5794,-3.47639 0.71562,-2.86246 1.54506,-5.55617 1.54506,-8.49783 0,-1.53055 -0.11714,-2.90327 -0.38626,-4.24891 -0.31254,-1.56266 -0.38627,-3.4146 -0.38627,-5.02144 0,-1.80257 0,-3.60514 0,-5.40771 0,-1.86695 0,-3.7339 0,-5.60084 0,-1.43411 -0.50353,-3.09705 -0.77253,-4.44205 -0.24561,-1.22804 -0.38626,-2.15055 -0.38626,-3.47638 0,-1.47878 0.27695,-3.50921 0.57939,-5.02145 0.19816,-0.99078 0.14066,-2.10766 0.38627,-3.09012 0.28245,-1.12981 0.0261,-2.98582 -0.19313,-3.86265 -0.27367,-1.09466 -0.35572,-2.19541 -0.5794,-3.09012 C 241.25437,203.35294 241.19055,202.71868 241,202 z"
       inkscape:connector-curvature="0"
       id="path2278"
       style="fill:#b0b0b0;fill-opacity:1;fill-rule:evenodd;stroke:#000000;stroke-width:1px;stroke-linecap:butt;stroke-linejoin:miter;stroke-opacity:1" />
    <path
       d="m 242.3125,210 c -0.0123,0.34658 -0.0544,0.65505 -0.125,0.9375 -0.24561,0.98246 -0.17684,2.10298 -0.375,3.09375 -0.30244,1.51224 -0.59375,3.55247 -0.59375,5.03125 0,1.32583 0.12939,2.24071 0.375,3.46875 0.269,1.345 0.78125,3.0034 0.78125,4.4375 0,1.86694 0,3.75805 0,5.625 0,1.80257 0,3.60368 0,5.40625 0,1.60684 0.0937,3.43734 0.40625,5 0.13054,0.65273 0.21825,1.31961 0.28125,2 l 6.9375,0 0,-9 5,0 0,-26 -12.6875,0 z"
       inkscape:connector-curvature="0"
       id="path3257"
       style="fill:#848484;fill-opacity:1;fill-rule:evenodd;stroke:#000000;stroke-width:1px;stroke-linecap:butt;stroke-linejoin:miter;stroke-opacity:1" />
    <path
       d="m 257.74626,220.74587 2.64053,2.30983 -3.05126,1.73132 1.13185,3.32064 -3.50814,-0.0263 -0.6801,3.44169 -3.02501,-1.77682 -2.30983,2.64053 -1.73132,-3.05126 -3.32064,1.13185 0.0263,-3.50814 -3.44169,-0.6801 1.77682,-3.02501 -2.64053,-2.30983 3.05126,-1.73132 -1.13185,-3.32064 3.50814,0.0263 0.6801,-3.44169 3.02501,1.77682 2.30983,-2.64053 1.73132,3.05126 3.32064,-1.13185 -0.0263,3.50814 3.44169,0.6801 -1.77682,3.02501 z"
       inkscape:connector-curvature="0"
       id="path3255"
       style="color:#000000;fill:#6f6f6f;fill-opacity:1;fill-rule:evenodd;stroke:#000000;stroke-width:1px;stroke-linecap:butt;stroke-linejoin:miter;stroke-miterlimit:4;stroke-opacity:1;stroke-dasharray:none;stroke-dashoffset:0;marker:none;visibility:visible;display:inline;overflow:visible;enable-background:accumulate" />
    <path
       d="m 255,222 a 5,5 0 1 1 -10,0 5,5 0 1 1 10,0 z"
       inkscape:connector-curvature="0"
       id="path2280"
       style="color:#000000;fill:#8d8d8d;fill-opacity:1;fill-rule:evenodd;stroke:#000000;stroke-width:1px;stroke-linecap:butt;stroke-linejoin:miter;stroke-miterlimit:4;stroke-opacity:1;stroke-dasharray:none;stroke-dashoffset:0;marker:none;visibility:visible;display:inline;overflow:visible;enable-background:accumulate" />
    <path
       d="m 370,47 c 0.98602,1.81457 0.83212,3.458151 0,5 l -55,0 c -0.63999,-1.741959 -0.89845,-3.439033 0,-5 l 55,0 z"
       inkscape:connector-curvature="0"
       id="path3264"
       style="fill:#808080;fill-opacity:1;fill-rule:evenodd;stroke:#000000;stroke-width:1px;stroke-linecap:butt;stroke-linejoin:miter;stroke-opacity:1" />
    <path
       d="m 328,47 29,0 c 0,3 -7.17253,7.253243 -14.42248,7.253486 C 335.32757,54.25373 328,50 328,47 z"
       inkscape:connector-curvature="0"
       id="path3266"
       style="color:#000000;fill:#82d8ff;fill-opacity:1;fill-rule:evenodd;stroke:#000000;stroke-width:1px;stroke-linecap:butt;stroke-linejoin:miter;stroke-miterlimit:4;stroke-opacity:1;stroke-dasharray:none;stroke-dashoffset:0;marker:none;visibility:visible;display:inline;overflow:visible;enable-background:accumulate" />
    <path
       d="m 318,334 0,6 49,0 0,-6 -49,0 z"
       inkscape:connector-curvature="0"
       id="path3268"
       style="color:#000000;fill:#82d8ff;fill-opacity:1;fill-rule:evenodd;stroke:#000000;stroke-width:1px;stroke-linecap:butt;stroke-linejoin:miter;stroke-miterlimit:4;stroke-opacity:1;stroke-dasharray:none;stroke-dashoffset:0;marker:none;visibility:visible;display:inline;overflow:visible;enable-background:accumulate" />
    <path
       d="m 304,152 -2,0 -12,10 -10,0 0,4 9,0 0,18 15,0 0,-32 z"
       inkscape:connector-curvature="0"
       id="path3276"
       style="fill:#b5b5b5;fill-opacity:1;fill-rule:evenodd;stroke:#000000;stroke-width:1px;stroke-linecap:butt;stroke-linejoin:miter;stroke-opacity:1" />
    <path
       d="m 381,152 2,0 12,10 10,0 0,4 -9,0 0,18 -15,0 0,-32 z"
       inkscape:connector-curvature="0"
       id="path3278"
       style="color:#000000;fill:#b5b5b5;fill-opacity:1;fill-rule:evenodd;stroke:#000000;stroke-width:1px;stroke-linecap:butt;stroke-linejoin:miter;stroke-miterlimit:4;stroke-opacity:1;stroke-dasharray:none;stroke-dashoffset:0;marker:none;visibility:visible;display:inline;overflow:visible;enable-background:accumulate" />
    <path
       d="m 319,137 -9,0 0,-12 9,-9 0,21 z"
       inkscape:connector-curvature="0"
       id="path3280"
       style="fill:#808080;fill-opacity:1;fill-rule:evenodd;stroke:#000000;stroke-width:1px;stroke-linecap:butt;stroke-linejoin:miter;stroke-opacity:1" />
    <path
       d="m 366,137 9,0 0,-12 -9,-9 0,21 z"
       inkscape:connector-curvature="0"
       id="path3282"
       style="color:#000000;fill:#808080;fill-opacity:1;fill-rule:evenodd;stroke:#000000;stroke-width:1px;stroke-linecap:butt;stroke-linejoin:miter;stroke-miterlimit:4;stroke-opacity:1;stroke-dasharray:none;stroke-dashoffset:0;marker:none;visibility:visible;display:inline;overflow:visible;enable-background:accumulate" />
    <path
       d="m 320,157 45,0 c 0,3 -11.23189,12.00499 -22.48283,12 C 331.26623,168.99501 320,160 320,157 z"
       inkscape:connector-curvature="0"
       id="path3284"
       style="color:#000000;fill:#82d8ff;fill-opacity:1;fill-rule:evenodd;stroke:#000000;stroke-width:1px;stroke-linecap:butt;stroke-linejoin:miter;stroke-miterlimit:4;stroke-opacity:1;stroke-dasharray:none;stroke-dashoffset:0;marker:none;visibility:visible;display:inline;overflow:visible;enable-background:accumulate" />
    <path
       d="m 290,347 105,0 0,12 -20,18 -65,0 -20,-18 0,-12 z"
       inkscape:connector-curvature="0"
       id="path3288"
       style="fill:#a5a5a5;fill-opacity:1;fill-rule:evenodd;stroke:#000000;stroke-width:1px;stroke-linecap:butt;stroke-linejoin:miter;stroke-opacity:1" />
    <rect
       width="31"
       height="50"
       x="327"
       y="427"
       id="rect3292"
       style="color:#000000;fill:#b8b8b8;fill-opacity:1;fill-rule:evenodd;stroke:#000000;stroke-width:1px;stroke-linecap:butt;stroke-linejoin:miter;stroke-miterlimit:4;stroke-opacity:1;stroke-dasharray:none;stroke-dashoffset:0;marker:none;visibility:visible;display:inline;overflow:visible;enable-background:accumulate" />
    <path
       d="m 327,427 c 0,-1 7.47076,-5.98677 15.47076,-5.98793 C 350.47134,421.01092 358,426 358,427 c 0,1 -9.48087,5.03642 -15.48096,5.03621 C 336.43628,432.036 327,428 327,427 z"
       inkscape:connector-curvature="0"
       id="path3294"
       style="color:#000000;fill:#82d8ff;fill-opacity:1;fill-rule:evenodd;stroke:#000000;stroke-width:1px;stroke-linecap:butt;stroke-linejoin:miter;stroke-miterlimit:4;stroke-opacity:1;stroke-dasharray:none;stroke-dashoffset:0;marker:none;visibility:visible;display:inline;overflow:visible;enable-background:accumulate" />
    <path
       d="m 327,468.96379 c 0,-1 7.37419,-4.34515 15.37419,-4.3463 8.00058,-0.001 15.62502,3.35974 15.62581,4.3463 0,1 -9.19117,2.236 -15.19126,2.23579 C 336.72598,471.19937 327,469.96379 327,468.96379 z"
       inkscape:connector-curvature="0"
       id="path3296"
       style="color:#000000;fill:#82d8ff;fill-opacity:1;fill-rule:evenodd;stroke:#000000;stroke-width:1px;stroke-linecap:butt;stroke-linejoin:miter;stroke-miterlimit:4;stroke-opacity:1;stroke-dasharray:none;stroke-dashoffset:0;marker:none;visibility:visible;display:inline;overflow:visible;enable-background:accumulate" />
    <path
       d="m 327,477 c 0,-1 7.37419,-4.99885 15.37419,-5 8.00058,-0.001 15.62502,4.01344 15.62581,5 l -31,0 z"
       inkscape:connector-curvature="0"
       id="path3298"
       style="color:#000000;fill:#82d8ff;fill-opacity:1;fill-rule:evenodd;stroke:#000000;stroke-width:1px;stroke-linecap:butt;stroke-linejoin:miter;stroke-miterlimit:4;stroke-opacity:1;stroke-dasharray:none;stroke-dashoffset:0;marker:none;visibility:visible;display:inline;overflow:visible;enable-background:accumulate" />
    <path
       d="m 365,416 0,-21 67,-53 16,14 0,4 -31,38 c -14.79034,9.63284 -36,16 -52,18 z"
       inkscape:connector-curvature="0"
       id="path2331"
       style="color:#000000;fill:#dedede;fill-opacity:1;fill-rule:evenodd;stroke:#000000;stroke-width:1px;stroke-linecap:butt;stroke-linejoin:miter;stroke-miterlimit:4;stroke-opacity:1;stroke-dasharray:none;stroke-dashoffset:0;marker:none;visibility:visible;display:inline;overflow:visible;enable-background:accumulate" />
    <rect
       width="40"
       height="50.000004"
       x="-19.375145"
       y="587.17267"
       transform="matrix(0.6616229,-0.7498368,0.7498368,0.6616229,0,0)"
       id="rect2321"
       style="color:#000000;fill:#d4d4d4;fill-opacity:1;fill-rule:evenodd;stroke:#000000;stroke-width:1px;stroke-linecap:butt;stroke-linejoin:miter;stroke-miterlimit:4;stroke-opacity:1;stroke-dasharray:none;stroke-dashoffset:0;marker:none;visibility:visible;display:inline;overflow:visible;enable-background:accumulate" />
    <path
       d="m 466.9413,433.84668 22.49518,-25.49445 c 1.49968,1.32324 2.02896,9.792 -5.24889,18.04021 -7.27785,8.2482 -15.74661,8.77748 -17.24629,7.45424 z"
       inkscape:connector-curvature="0"
       id="path2323"
       style="color:#000000;fill:#82d8ff;fill-opacity:1;fill-rule:evenodd;stroke:#000000;stroke-width:1px;stroke-linecap:butt;stroke-linejoin:miter;stroke-miterlimit:4;stroke-opacity:1;stroke-dasharray:none;stroke-dashoffset:0;marker:none;visibility:visible;display:inline;overflow:visible;enable-background:accumulate" />
    <path
       d="m 427.4646,403.01504 -5.73406,-1.0586 30.43466,-34.49249 1.76431,5.55762 -26.46491,29.99347 z"
       inkscape:connector-curvature="0"
       id="path2325"
       style="fill:#d4d4d4;fill-opacity:1;fill-rule:evenodd;stroke:#000000;stroke-width:1px;stroke-linecap:butt;stroke-linejoin:miter;stroke-opacity:1" />
    <path
       d="m 421.73054,401.95644 -4.49902,-3.96974 30.43466,-34.49249 4.49902,3.96974 -30.43466,34.49249 z"
       inkscape:connector-curvature="0"
       id="path2327"
       style="fill:#adadad;fill-opacity:1;fill-rule:evenodd;stroke:#000000;stroke-width:1px;stroke-linecap:butt;stroke-linejoin:miter;stroke-opacity:1" />
    <path
       d="m 419.21639,395.73719 -4.49902,-3.96974 26.46492,-29.99347 4.49902,3.96974 -26.46492,29.99347 z"
       inkscape:connector-curvature="0"
       id="path2329"
       style="fill:#909090;fill-opacity:1;fill-rule:evenodd;stroke:#000000;stroke-width:1px;stroke-linecap:butt;stroke-linejoin:miter;stroke-opacity:1" />
    <path
       d="m 443,359 -8,-7 -34,37 c -0.38793,5.53304 5.0539,5.5602 9,7 l 33,-37 z"
       inkscape:connector-curvature="0"
       id="path2333"
       style="fill:#b4b4b4;fill-opacity:1;fill-rule:evenodd;stroke:#000000;stroke-width:1px;stroke-linecap:butt;stroke-linejoin:miter;stroke-opacity:1" />
    <path
       d="m 374,401 8,14 15,-4 -2,-16 7,-5 38,-41 -8,-7 -66,52 8,7 z"
       inkscape:connector-curvature="0"
       id="path2335"
       style="fill:#838383;fill-opacity:1;fill-rule:evenodd;stroke:#000000;stroke-width:1px;stroke-linecap:butt;stroke-linejoin:miter;stroke-opacity:1" />
    <path
       d="m 382,400 5,-3 5,14 5,-1 2,4 -15,6 -3,-5 6,-2 -5,-13 z"
       inkscape:connector-curvature="0"
       id="path2337"
       style="fill:#b4b4b4;fill-opacity:1;fill-rule:evenodd;stroke:#000000;stroke-width:1px;stroke-linecap:butt;stroke-linejoin:miter;stroke-opacity:1" />
    <path
       d="m 395,359 37,-17 1,2 c -17,21 -32.73842,45.4103 -62,52 l 0,-13 -9,0 0,-6 13,0 20,-18 z"
       inkscape:connector-curvature="0"
       id="path2339"
       style="fill:#b4b4b4;fill-opacity:1;fill-rule:evenodd;stroke:#000000;stroke-width:1px;stroke-linecap:butt;stroke-linejoin:miter;stroke-opacity:1" />
    <path
       d="m 359,384 0,49 5,0 7,-7 0,-10 -6,0 0,-20 6,0 0,-13 -9,0 -3,1 z"
       inkscape:connector-curvature="0"
       id="path2341"
       style="color:#000000;fill:#c1c1c1;fill-opacity:1;fill-rule:evenodd;stroke:#000000;stroke-width:1px;stroke-linecap:butt;stroke-linejoin:miter;stroke-miterlimit:4;stroke-opacity:1;stroke-dasharray:none;stroke-dashoffset:0;marker:none;visibility:visible;display:inline;overflow:visible;enable-background:accumulate" />
    <path
       d="m 326,384 0,49 -5,0 -7,-7 0,-10 6,0 0,-20 -6,0 0,-13 9,0 3,1 z"
       inkscape:connector-curvature="0"
       id="path2343"
       style="fill:#c1c1c1;fill-opacity:1;fill-rule:evenodd;stroke:#000000;stroke-width:1px;stroke-linecap:butt;stroke-linejoin:miter;stroke-opacity:1" />
    <path
       d="m 315,398 55,0 0,10 -4,0 0,-4 -47,0 0,4 -4,0 0,-10 z"
       inkscape:connector-curvature="0"
       id="path2345"
       style="fill:#8d8d8d;fill-opacity:1;fill-rule:evenodd;stroke:#000000;stroke-width:1px;stroke-linecap:butt;stroke-linejoin:miter;stroke-opacity:1" />
    <path
       d="m 320,408 -5,0 c -3.79955,2.16814 -2.00024,4.5797 0,7 l 5,0 0,-7 z"
       inkscape:connector-curvature="0"
       id="path2347"
       style="fill:#dedede;fill-opacity:1;fill-rule:evenodd;stroke:#000000;stroke-width:1px;stroke-linecap:butt;stroke-linejoin:miter;stroke-opacity:1" />
    <path
       d="m 507,696 -172,9 15,16 157,8 0,-33 z"
       inkscape:connector-curvature="0"
       id="path3245"
       style="color:#000000;fill:#f5ff82;fill-opacity:0.32786883;fill-rule:evenodd;stroke:#000000;stroke-width:1px;stroke-linecap:butt;stroke-linejoin:miter;stroke-miterlimit:4;stroke-opacity:1;stroke-dasharray:none;stroke-dashoffset:0;marker:none;visibility:visible;display:inline;overflow:visible;enable-background:accumulate" />
    <path
       d="m 335,705 15,16 -12,-244 9,0 -12,228 z"
       inkscape:connector-curvature="0"
       id="path3247"
       style="fill:#f5ff82;fill-opacity:0.32786883;fill-rule:nonzero;stroke:#000000;stroke-width:1px;stroke-linecap:butt;stroke-linejoin:miter;stroke-opacity:1" />
    <path
       d="m 338,477 9,0 -27,-320 27,-150 -9,0 27,150 -27,320 z"
       inkscape:connector-curvature="0"
       id="path3256"
       style="fill:#f5ff82;fill-opacity:0.32786883;fill-rule:evenodd;stroke:#000000;stroke-width:1px;stroke-linecap:butt;stroke-linejoin:miter;stroke-opacity:1" />
    <path
       d="m 335,705 172,-9"
       inkscape:connector-curvature="0"
       id="path3258"
       style="fill:none;stroke:#000000;stroke-width:1px;stroke-linecap:butt;stroke-linejoin:miter;stroke-opacity:1" />
    <path
       d="M 360,102 390,87"
       inkscape:connector-curvature="0"
       id="path2266"
       style="fill:none;stroke:#000000;stroke-width:1px;stroke-linecap:butt;stroke-linejoin:miter;stroke-opacity:1" />
    <path
       d="m 350,447 20,-5"
       inkscape:connector-curvature="0"
       id="path2268"
       style="fill:none;stroke:#000000;stroke-width:1px;stroke-linecap:butt;stroke-linejoin:miter;stroke-opacity:1" />
    <path
       d="m 360,497 30,-15"
       inkscape:connector-curvature="0"
       id="path2270"
       style="fill:none;stroke:#000000;stroke-width:1px;stroke-linecap:butt;stroke-linejoin:miter;stroke-opacity:1" />
    <path
       d="m 345,727 55,-40"
       inkscape:connector-curvature="0"
       id="path2272"
       style="fill:none;stroke:#000000;stroke-width:1px;stroke-linecap:butt;stroke-linejoin:miter;stroke-opacity:1" />
    <path
       d="M 230,502 205,482"
       inkscape:connector-curvature="0"
       id="path2274"
       style="fill:none;stroke:#000000;stroke-width:1px;stroke-linecap:butt;stroke-linejoin:miter;stroke-opacity:1" />
    <path
       d="M 335,507 300,482"
       inkscape:connector-curvature="0"
       id="path2276"
       style="fill:none;stroke:#000000;stroke-width:1px;stroke-linecap:butt;stroke-linejoin:miter;stroke-opacity:1" />
    <text
       x="390"
       y="92"
       id="text2282"
       xml:space="preserve"
       style="font-size:22px;font-style:normal;font-variant:normal;font-weight:normal;font-stretch:normal;text-align:start;line-height:125%;writing-mode:lr-tb;text-anchor:start;fill:#000000;fill-opacity:1;stroke:none;font-family:Sans"><tspan
         x="390"
         y="92"
         id="tspan2284"
         style="font-size:22px;font-style:normal;font-variant:normal;font-weight:normal;font-stretch:normal;text-align:start;line-height:125%;writing-mode:lr-tb;text-anchor:start;font-family:Sans">A</tspan></text>
    <text
       x="370"
       y="447"
       id="text2286"
       xml:space="preserve"
       style="font-size:22px;font-style:normal;font-variant:normal;font-weight:normal;font-stretch:normal;text-align:start;line-height:125%;writing-mode:lr-tb;text-anchor:start;fill:#000000;fill-opacity:1;stroke:none;font-family:Sans"><tspan
         x="370"
         y="447"
         id="tspan2288">B</tspan></text>
    <text
       x="390"
       y="487"
       id="text2290"
       xml:space="preserve"
       style="font-size:22px;font-style:normal;font-variant:normal;font-weight:normal;font-stretch:normal;text-align:start;line-height:125%;writing-mode:lr-tb;text-anchor:start;fill:#000000;fill-opacity:1;stroke:none;font-family:Sans"><tspan
         x="390"
         y="487"
         id="tspan2292">C</tspan></text>
    <text
       x="285"
       y="482"
       id="text2294"
       xml:space="preserve"
       style="font-size:22px;font-style:normal;font-variant:normal;font-weight:normal;font-stretch:normal;text-align:start;line-height:125%;writing-mode:lr-tb;text-anchor:start;fill:#000000;fill-opacity:1;stroke:none;font-family:Sans"><tspan
         x="285"
         y="482"
         id="tspan2296">D</tspan></text>
    <text
       x="190"
       y="487"
       id="text2298"
       xml:space="preserve"
       style="font-size:22px;font-style:normal;font-variant:normal;font-weight:normal;font-stretch:normal;text-align:start;line-height:125%;writing-mode:lr-tb;text-anchor:start;fill:#000000;fill-opacity:1;stroke:none;font-family:Sans"><tspan
         x="190"
         y="487"
         id="tspan2300">E</tspan></text>
    <text
       x="400"
       y="687"
       id="text2302"
       xml:space="preserve"
       style="font-size:22px;font-style:normal;font-variant:normal;font-weight:normal;font-stretch:normal;text-align:start;line-height:125%;writing-mode:lr-tb;text-anchor:start;fill:#000000;fill-opacity:1;stroke:none;font-family:Sans"><tspan
         x="400"
         y="687"
         id="tspan2304">F</tspan></text>
  </g>
</svg>
