<svg width="4160pt" height="3720pt" viewBox="0 0 4160 3720" version="1.1" xmlns="http://www.w3.org/2000/svg">
<path fill="#ffffff" opacity="1.00" d=" M 660.00 0.00 L 860.00 0.00 C 859.99 66.66 860.02 133.33 859.99 199.99 C 793.33 200.01 726.67 200.00 660.01 200.00 C 659.98 133.33 660.01 66.67 660.00 0.00 Z" />
<path fill="#ffffff" opacity="1.00" d=" M 880.00 0.00 L 1080.00 0.00 C 1079.99 66.66 1080.02 133.33 1079.99 199.99 C 1013.33 200.01 946.67 200.00 880.01 200.00 C 879.98 133.33 880.01 66.67 880.00 0.00 Z" />
<path fill="#ffffff" opacity="0.90" d=" M 440.01 220.01 C 506.67 219.99 573.33 219.99 639.99 220.01 C 640.01 286.67 640.01 353.33 639.99 419.99 C 573.33 420.01 506.67 420.01 440.01 419.99 C 439.99 353.33 439.99 286.67 440.01 220.01 Z" />
<path fill="#ffffff" opacity="0.90" d=" M 660.01 220.01 C 726.67 219.99 793.33 219.99 859.99 220.01 C 860.01 286.67 860.01 353.33 859.99 419.99 C 793.33 420.01 726.67 420.01 660.01 419.99 C 659.99 353.33 659.99 286.67 660.01 220.01 Z" />
<path fill="#ffffff" opacity="0.90" d=" M 880.01 220.01 C 946.67 219.99 1013.33 219.99 1079.99 220.01 C 1080.01 286.67 1080.01 353.33 1079.99 419.99 C 1013.33 420.01 946.67 420.01 880.01 419.99 C 879.99 353.33 879.99 286.67 880.01 220.01 Z" />
<path fill="#ffffff" opacity="0.90" d=" M 1100.01 220.01 C 1166.67 219.99 1233.33 219.99 1299.99 220.01 C 1300.01 286.67 1300.01 353.33 1299.99 419.99 C 1233.33 420.01 1166.67 420.01 1100.01 419.99 C 1099.99 353.33 1099.99 286.67 1100.01 220.01 Z" />
<path fill="#ffffff" opacity="0.90" d=" M 1320.01 220.01 C 1386.67 219.99 1453.33 219.99 1519.99 220.01 C 1520.00 286.67 1520.00 353.33 1519.99 419.99 C 1453.33 420.01 1386.67 420.01 1320.01 419.99 C 1319.99 353.33 1319.99 286.67 1320.01 220.01 Z" />
<path fill="#ffffff" opacity="0.80" d=" M 220.01 440.01 C 286.67 439.99 353.33 439.99 419.99 440.01 C 420.01 506.67 420.01 573.33 419.99 639.99 C 353.33 640.01 286.67 640.01 220.01 639.99 C 219.99 573.33 219.99 506.67 220.01 440.01 Z" />
<path fill="#ffffff" opacity="0.80" d=" M 440.01 440.01 C 506.67 439.99 573.33 439.99 639.99 440.01 C 640.01 506.67 640.01 573.33 639.99 639.99 C 573.33 640.01 506.67 640.01 440.01 639.99 C 439.99 573.33 439.99 506.67 440.01 440.01 Z" />
<path fill="#ffffff" opacity="0.80" d=" M 660.01 440.01 C 726.67 439.99 793.33 439.99 859.99 440.01 C 860.01 506.67 860.01 573.33 859.99 639.99 C 793.33 640.01 726.67 640.01 660.01 639.99 C 659.99 573.33 659.99 506.67 660.01 440.01 Z" />
<path fill="#ffffff" opacity="0.80" d=" M 880.01 440.01 C 946.67 439.99 1013.33 439.99 1079.99 440.01 C 1080.01 506.67 1080.01 573.33 1079.99 639.99 C 1013.33 640.01 946.67 640.01 880.01 639.99 C 879.99 573.33 879.99 506.67 880.01 440.01 Z" />
<path fill="#ffffff" opacity="0.80" d=" M 1100.01 440.01 C 1166.67 439.99 1233.33 439.99 1299.99 440.01 C 1300.01 506.67 1300.01 573.33 1299.99 639.99 C 1233.33 640.01 1166.67 640.01 1100.01 639.99 C 1099.99 573.33 1099.99 506.67 1100.01 440.01 Z" />
<path fill="#ffffff" opacity="0.80" d=" M 1320.01 440.01 C 1386.67 439.99 1453.33 439.99 1519.99 440.01 C 1520.00 506.67 1520.00 573.33 1519.99 639.99 C 1453.33 640.01 1386.67 640.01 1320.01 639.99 C 1319.99 573.33 1319.99 506.67 1320.01 440.01 Z" />
<path fill="#ffffff" opacity="0.80" d=" M 1540.01 440.01 C 1606.67 439.99 1673.33 439.99 1739.99 440.01 C 1740.00 506.67 1740.00 573.33 1739.99 639.99 C 1673.33 640.01 1606.67 640.01 1540.01 639.99 C 1539.99 573.33 1539.99 506.67 1540.01 440.01 Z" />
<path fill="#ffffff" opacity="0.70" d=" M 0.00 660.00 C 66.66 660.01 133.33 659.97 199.99 660.01 C 200.01 726.67 200.00 793.33 200.00 859.99 C 133.33 860.02 66.67 859.99 0.00 860.00 L 0.00 660.00 Z" />
<path fill="#ffffff" opacity="0.70" d=" M 220.01 660.01 C 286.67 659.99 353.33 659.99 419.99 660.01 C 420.01 726.67 420.01 793.33 419.99 859.99 C 353.33 860.01 286.67 860.01 220.01 859.99 C 219.99 793.33 219.99 726.67 220.01 660.01 Z" />
<path fill="#ffffff" opacity="0.70" d=" M 440.01 660.01 C 506.67 659.99 573.33 659.99 639.99 660.01 C 640.01 726.67 640.01 793.33 639.99 859.99 C 573.33 860.01 506.67 860.01 440.01 859.99 C 439.99 793.33 439.99 726.67 440.01 660.01 Z" />
<path fill="#ffffff" opacity="0.70" d=" M 660.01 660.01 C 726.67 659.99 793.33 659.99 859.99 660.01 C 860.01 726.67 860.01 793.33 859.99 859.99 C 793.33 860.01 726.67 860.01 660.01 859.99 C 659.99 793.33 659.99 726.67 660.01 660.01 Z" />
<path fill="#ffffff" opacity="0.70" d=" M 880.01 660.01 C 946.67 659.99 1013.33 659.99 1079.99 660.01 C 1080.01 726.67 1080.01 793.33 1079.99 859.99 C 1013.33 860.01 946.67 860.01 880.01 859.99 C 879.99 793.33 879.99 726.67 880.01 660.01 Z" />
<path fill="#ffffff" opacity="0.70" d=" M 1100.01 660.01 C 1166.67 659.99 1233.33 659.99 1299.99 660.01 C 1300.01 726.67 1300.01 793.33 1299.99 859.99 C 1233.33 860.01 1166.67 860.01 1100.01 859.99 C 1099.99 793.33 1099.99 726.67 1100.01 660.01 Z" />
<path fill="#ffffff" opacity="0.70" d=" M 1320.01 660.01 C 1386.67 659.99 1453.33 659.99 1519.99 660.01 C 1520.00 726.67 1520.00 793.33 1519.99 859.99 C 1453.33 860.01 1386.67 860.01 1320.01 859.99 C 1319.99 793.33 1319.99 726.67 1320.01 660.01 Z" />
<path fill="#ffffff" opacity="0.70" d=" M 1540.01 660.01 C 1606.67 659.99 1673.33 659.99 1739.99 660.01 C 1740.00 726.67 1740.00 793.33 1739.99 859.99 C 1673.33 860.01 1606.67 860.01 1540.01 859.99 C 1539.99 793.33 1539.99 726.67 1540.01 660.01 Z" />
<path fill="#ffffff" opacity="0.70" d=" M 1760.01 660.01 C 1826.67 659.99 1893.33 659.99 1959.99 660.01 C 1960.00 726.67 1960.00 793.33 1959.99 859.99 C 1893.33 860.01 1826.67 860.01 1760.01 859.99 C 1759.99 793.33 1759.99 726.67 1760.01 660.01 Z" />
<path fill="#ffffff" opacity="0.70" d=" M 1980.01 660.01 C 2046.67 659.99 2113.33 659.99 2179.99 660.01 C 2180.00 726.67 2180.00 793.33 2179.99 859.99 C 2113.33 860.01 2046.67 860.01 1980.01 859.99 C 1979.99 793.33 1979.99 726.67 1980.01 660.01 Z" />
<path fill="#ffffff" opacity="0.70" d=" M 2200.01 660.01 C 2266.67 659.99 2333.33 659.99 2399.99 660.01 C 2400.00 726.67 2400.00 793.33 2399.99 859.99 C 2333.33 860.01 2266.67 860.01 2200.01 859.99 C 2199.99 793.33 2199.99 726.67 2200.01 660.01 Z" />
<path fill="#ffffff" opacity="0.70" d=" M 2420.01 660.01 C 2486.67 659.99 2553.33 659.99 2619.99 660.01 C 2620.00 726.67 2620.00 793.33 2619.99 859.99 C 2553.33 860.01 2486.67 860.01 2420.01 859.99 C 2419.99 793.33 2419.99 726.67 2420.01 660.01 Z" />
<path fill="#ffffff" opacity="0.60" d=" M 0.00 880.00 C 66.66 880.01 133.33 879.97 199.99 880.01 C 200.01 946.67 200.00 1013.33 200.00 1079.99 C 133.33 1080.02 66.67 1079.99 0.00 1080.00 L 0.00 880.00 Z" />
<path fill="#ffffff" opacity="0.60" d=" M 220.01 880.01 C 286.67 879.99 353.33 879.99 419.99 880.01 C 420.01 946.67 420.01 1013.33 419.99 1079.99 C 353.33 1080.01 286.67 1080.01 220.01 1079.99 C 219.99 1013.33 219.99 946.67 220.01 880.01 Z" />
<path fill="#ffffff" opacity="0.60" d=" M 440.01 880.01 C 506.67 879.99 573.33 879.99 639.99 880.01 C 640.01 946.67 640.01 1013.33 639.99 1079.99 C 573.33 1080.01 506.67 1080.01 440.01 1079.99 C 439.99 1013.33 439.99 946.67 440.01 880.01 Z" />
<path fill="#ffffff" opacity="0.60" d=" M 660.01 880.01 C 726.67 879.99 793.33 879.99 859.99 880.01 C 860.01 946.67 860.01 1013.33 859.99 1079.99 C 793.33 1080.01 726.67 1080.01 660.01 1079.99 C 659.99 1013.33 659.99 946.67 660.01 880.01 Z" />
<path fill="#ffffff" opacity="0.60" d=" M 880.01 880.01 C 946.67 879.99 1013.33 879.99 1079.99 880.01 C 1080.01 946.67 1080.01 1013.33 1079.99 1079.99 C 1013.33 1080.01 946.67 1080.01 880.01 1079.99 C 879.99 1013.33 879.99 946.67 880.01 880.01 Z" />
<path fill="#ffffff" opacity="0.60" d=" M 1100.01 880.01 C 1166.67 879.99 1233.33 879.99 1299.99 880.01 C 1300.01 946.67 1300.01 1013.33 1299.99 1079.99 C 1233.33 1080.01 1166.67 1080.01 1100.01 1079.99 C 1099.99 1013.33 1099.99 946.67 1100.01 880.01 Z" />
<path fill="#ffffff" opacity="0.60" d=" M 1320.01 880.01 C 1386.67 879.99 1453.33 879.99 1519.99 880.01 C 1520.00 946.67 1520.00 1013.33 1519.99 1079.99 C 1453.33 1080.01 1386.67 1080.01 1320.01 1079.99 C 1319.99 1013.33 1319.99 946.67 1320.01 880.01 Z" />
<path fill="#ffffff" opacity="0.60" d=" M 1540.01 880.01 C 1606.67 879.99 1673.33 879.99 1739.99 880.01 C 1740.00 946.67 1740.00 1013.33 1739.99 1079.99 C 1673.33 1080.01 1606.67 1080.01 1540.01 1079.99 C 1539.99 1013.33 1539.99 946.67 1540.01 880.01 Z" />
<path fill="#ffffff" opacity="0.60" d=" M 1760.01 880.01 C 1826.67 879.99 1893.33 879.99 1959.99 880.01 C 1960.00 946.67 1960.00 1013.33 1959.99 1079.99 C 1893.33 1080.01 1826.67 1080.01 1760.01 1079.99 C 1759.99 1013.33 1759.99 946.67 1760.01 880.01 Z" />
<path fill="#ffffff" opacity="0.60" d=" M 1980.01 880.01 C 2046.67 879.99 2113.33 879.99 2179.99 880.01 C 2180.00 946.67 2180.00 1013.33 2179.99 1079.99 C 2113.33 1080.01 2046.67 1080.01 1980.01 1079.99 C 1979.99 1013.33 1979.99 946.67 1980.01 880.01 Z" />
<path fill="#ffffff" opacity="0.60" d=" M 2200.01 880.01 C 2266.67 879.99 2333.33 879.99 2399.99 880.01 C 2400.00 946.67 2400.00 1013.33 2399.99 1079.99 C 2333.33 1080.01 2266.67 1080.01 2200.01 1079.99 C 2199.99 1013.33 2199.99 946.67 2200.01 880.01 Z" />
<path fill="#ffffff" opacity="0.60" d=" M 2420.01 880.01 C 2486.67 879.99 2553.33 879.99 2619.99 880.01 C 2620.00 946.67 2620.00 1013.33 2619.99 1079.99 C 2553.33 1080.01 2486.67 1080.01 2420.01 1079.99 C 2419.99 1013.33 2419.99 946.67 2420.01 880.01 Z" />
<path fill="#ffffff" opacity="0.60" d=" M 2640.01 880.01 C 2706.67 879.99 2773.33 879.99 2839.99 880.01 C 2840.00 946.67 2840.00 1013.33 2839.99 1079.99 C 2773.33 1080.01 2706.67 1080.01 2640.01 1079.99 C 2639.99 1013.33 2639.99 946.67 2640.01 880.01 Z" />
<path fill="#ffffff" opacity="0.50" d=" M 220.01 1100.01 C 286.67 1099.99 353.33 1099.99 419.99 1100.01 C 420.01 1166.67 420.01 1233.33 419.99 1299.99 C 353.33 1300.01 286.67 1300.01 220.01 1299.99 C 219.99 1233.33 219.99 1166.67 220.01 1100.01 Z" />
<path fill="#ffffff" opacity="0.50" d=" M 440.01 1100.01 C 506.67 1099.99 573.33 1099.99 639.99 1100.01 C 640.01 1166.67 640.01 1233.33 639.99 1299.99 C 573.33 1300.01 506.67 1300.01 440.01 1299.99 C 439.99 1233.33 439.99 1166.67 440.01 1100.01 Z" />
<path fill="#ffffff" opacity="0.50" d=" M 660.01 1100.01 C 726.67 1099.99 793.33 1099.99 859.99 1100.01 C 860.01 1166.67 860.01 1233.33 859.99 1299.99 C 793.33 1300.01 726.67 1300.01 660.01 1299.99 C 659.99 1233.33 659.99 1166.67 660.01 1100.01 Z" />
<path fill="#ffffff" opacity="0.50" d=" M 880.01 1100.01 C 946.67 1099.99 1013.33 1099.99 1079.99 1100.01 C 1080.01 1166.67 1080.01 1233.33 1079.99 1299.99 C 1013.33 1300.01 946.67 1300.01 880.01 1299.99 C 879.99 1233.33 879.99 1166.67 880.01 1100.01 Z" />
<path fill="#ffffff" opacity="0.50" d=" M 1100.01 1100.01 C 1166.67 1099.99 1233.33 1099.99 1299.99 1100.01 C 1300.01 1166.67 1300.01 1233.33 1299.99 1299.99 C 1233.33 1300.01 1166.67 1300.01 1100.01 1299.99 C 1099.99 1233.33 1099.99 1166.67 1100.01 1100.01 Z" />
<path fill="#ffffff" opacity="0.50" d=" M 1320.01 1100.01 C 1386.67 1099.99 1453.33 1099.99 1519.99 1100.01 C 1520.00 1166.67 1520.00 1233.33 1519.99 1299.99 C 1453.33 1300.01 1386.67 1300.01 1320.01 1299.99 C 1319.99 1233.33 1319.99 1166.67 1320.01 1100.01 Z" />
<path fill="#ffffff" opacity="0.50" d=" M 2640.01 1100.01 C 2706.67 1099.99 2773.33 1099.99 2839.99 1100.01 C 2840.00 1166.67 2840.00 1233.33 2839.99 1299.99 C 2773.33 1300.01 2706.67 1300.01 2640.01 1299.99 C 2639.99 1233.33 2639.99 1166.67 2640.01 1100.01 Z" />
<path fill="#ffffff" opacity="0.50" d=" M 2860.01 1100.01 C 2926.66 1099.99 2993.33 1099.99 3059.99 1100.01 C 3060.00 1166.67 3060.00 1233.33 3059.99 1299.99 C 2993.33 1300.01 2926.66 1300.01 2860.01 1299.99 C 2859.99 1233.33 2859.99 1166.67 2860.01 1100.01 Z" />
<path fill="#ffffff" opacity="1.00" d=" M 1741.03 1163.08 C 1759.15 1156.67 1779.14 1159.34 1796.67 1166.33 C 1805.02 1169.84 1813.48 1173.63 1820.44 1179.57 C 1823.02 1181.40 1821.63 1184.95 1820.42 1187.35 C 1815.28 1195.76 1809.50 1203.76 1803.67 1211.71 C 1791.79 1205.08 1780.34 1196.52 1766.57 1194.49 C 1761.07 1193.26 1755.06 1194.45 1750.30 1197.31 C 1746.65 1201.61 1745.16 1207.96 1747.90 1213.11 C 1751.69 1222.00 1761.00 1225.80 1769.01 1229.96 C 1784.42 1237.09 1800.60 1243.97 1812.72 1256.27 C 1826.92 1270.64 1830.15 1294.15 1821.03 1312.03 C 1816.71 1320.80 1809.82 1328.27 1801.71 1333.68 C 1791.62 1340.76 1779.02 1342.77 1767.00 1343.59 C 1750.32 1342.64 1733.14 1339.80 1718.37 1331.61 C 1714.38 1328.15 1707.57 1325.68 1706.37 1320.05 C 1709.11 1309.73 1716.66 1301.36 1721.42 1291.96 C 1736.54 1298.89 1751.15 1310.07 1768.84 1307.77 C 1774.88 1307.42 1780.79 1302.73 1781.55 1296.57 C 1783.67 1288.64 1778.61 1281.04 1772.77 1276.23 C 1760.80 1266.82 1745.25 1263.95 1732.98 1255.02 C 1718.47 1245.97 1706.26 1230.74 1706.10 1212.96 C 1704.23 1190.71 1720.30 1169.81 1741.03 1163.08 Z" />
<path fill="#ffffff" opacity="1.00" d=" M 1922.62 1160.59 C 1925.52 1158.02 1930.80 1159.05 1932.19 1162.78 C 1952.66 1206.10 1972.59 1249.68 1992.86 1293.10 C 1999.75 1308.57 2008.10 1323.45 2013.62 1339.50 C 2002.49 1341.22 1991.16 1341.74 1979.95 1340.99 C 1977.02 1340.55 1973.73 1339.62 1972.14 1336.99 C 1967.87 1329.60 1964.79 1321.61 1961.09 1313.96 C 1939.03 1314.21 1916.98 1313.67 1894.94 1313.98 C 1889.66 1313.80 1889.07 1320.59 1886.94 1324.00 C 1883.74 1330.05 1882.80 1339.16 1874.82 1340.62 C 1863.01 1341.65 1851.13 1341.28 1839.36 1340.23 C 1844.47 1324.59 1852.55 1310.12 1859.16 1295.08 C 1879.43 1251.98 1899.16 1208.63 1919.45 1165.54 C 1920.32 1163.79 1921.22 1161.99 1922.62 1160.59 M 1907.01 1279.66 C 1919.96 1280.18 1932.93 1280.12 1945.91 1279.55 C 1939.97 1265.34 1933.26 1251.47 1926.39 1237.70 C 1919.44 1251.45 1913.07 1265.50 1907.01 1279.66 Z" />
<path fill="#ffffff" opacity="1.00" d=" M 2030.80 1162.77 C 2043.43 1161.95 2056.11 1161.77 2068.79 1162.06 C 2069.46 1162.79 2070.15 1163.52 2070.87 1164.27 C 2071.26 1199.18 2070.77 1234.11 2071.01 1269.03 C 2071.23 1279.57 2075.77 1290.18 2084.34 1296.61 C 2097.91 1308.31 2121.10 1303.10 2129.98 1287.99 C 2133.27 1283.72 2134.84 1278.35 2134.77 1272.99 C 2135.92 1236.26 2133.73 1199.46 2135.78 1162.77 C 2148.41 1161.93 2161.10 1161.78 2173.79 1162.06 C 2174.46 1162.79 2175.15 1163.52 2175.87 1164.27 C 2176.17 1199.18 2175.88 1234.09 2176.08 1269.01 C 2178.06 1296.02 2161.58 1322.53 2137.98 1334.95 C 2114.83 1347.02 2085.11 1346.34 2063.18 1331.84 C 2050.68 1323.28 2040.22 1311.39 2034.81 1297.14 C 2028.26 1278.85 2030.36 1259.02 2029.97 1240.00 C 2030.59 1214.26 2028.81 1188.44 2030.80 1162.77 Z" />
<path fill="#ffffff" opacity="1.00" d=" M 2223.69 1162.76 C 2247.75 1161.47 2271.88 1161.81 2295.97 1162.24 C 2323.68 1163.58 2349.16 1179.60 2365.08 1201.88 C 2381.50 1225.70 2385.03 1257.97 2373.65 1284.65 C 2364.35 1306.55 2346.71 1325.33 2324.63 1334.58 C 2311.97 1339.16 2298.45 1341.26 2285.01 1341.03 C 2264.71 1340.89 2244.39 1341.59 2224.13 1340.43 C 2222.31 1302.31 2223.16 1264.14 2223.01 1226.00 C 2223.14 1204.92 2222.39 1183.81 2223.69 1162.76 M 2263.00 1198.91 C 2263.15 1233.87 2262.61 1268.84 2263.32 1303.80 C 2277.12 1303.97 2291.36 1305.26 2304.70 1300.71 C 2317.45 1296.52 2327.76 1286.36 2333.27 1274.24 C 2343.52 1251.97 2337.26 1222.55 2316.75 1208.26 C 2301.55 1196.50 2280.84 1199.67 2263.00 1198.91 Z" />
<path fill="#ffffff" opacity="1.00" d=" M 2417.93 1162.77 C 2430.99 1161.77 2444.14 1161.66 2457.24 1162.78 C 2458.92 1198.49 2457.57 1234.26 2458.00 1270.00 C 2457.98 1293.41 2458.41 1316.85 2456.90 1340.24 C 2443.92 1341.27 2430.89 1341.25 2417.94 1340.23 C 2415.88 1303.86 2417.50 1267.40 2417.00 1231.00 C 2417.56 1208.27 2415.71 1185.42 2417.93 1162.77 Z" />
<path fill="#ffffff" opacity="0.40" d=" M 220.01 1320.01 C 286.67 1319.99 353.33 1319.99 419.99 1320.01 C 420.01 1386.67 420.01 1453.33 419.99 1519.99 C 353.33 1520.00 286.67 1520.00 220.01 1519.99 C 219.99 1453.33 219.99 1386.67 220.01 1320.01 Z" />
<path fill="#ffffff" opacity="1.00" d=" M 539.07 1544.18 C 564.64 1535.36 592.22 1536.12 618.87 1537.24 C 646.70 1540.21 676.12 1549.01 694.67 1571.31 C 704.84 1584.06 711.65 1599.26 716.03 1614.91 C 720.81 1635.56 723.09 1656.79 723.03 1678.00 C 722.97 1729.00 723.02 1780.00 723.00 1831.00 C 698.66 1831.00 674.33 1831.01 650.00 1831.00 C 649.98 1784.33 650.01 1737.66 650.02 1690.99 C 650.10 1672.62 648.24 1653.69 639.94 1637.03 C 636.80 1630.27 631.06 1625.00 624.71 1621.29 C 613.34 1615.84 600.32 1615.52 587.97 1615.99 C 576.08 1617.26 563.86 1621.61 555.68 1630.66 C 544.73 1642.90 541.50 1660.05 541.96 1675.99 C 542.10 1724.33 541.83 1772.67 542.09 1821.02 C 541.93 1838.23 549.10 1854.83 560.10 1867.87 C 579.59 1892.18 600.04 1915.89 623.20 1936.80 C 642.64 1956.04 662.33 1975.09 680.07 1995.94 C 694.35 2011.64 707.40 2029.06 714.85 2049.12 C 722.92 2072.48 724.82 2097.46 725.91 2121.99 C 726.16 2170.32 725.89 2218.66 726.04 2267.01 C 726.50 2289.80 722.34 2312.52 715.07 2334.08 C 709.88 2346.43 703.78 2358.70 694.63 2368.67 C 678.30 2387.47 653.80 2397.29 629.55 2400.51 C 596.80 2404.96 562.24 2405.07 531.02 2392.97 C 505.15 2383.40 484.80 2361.72 474.73 2336.29 C 464.03 2310.30 462.44 2281.75 461.98 2254.00 C 462.01 2197.00 461.99 2140.00 462.01 2083.01 C 487.00 2082.97 511.99 2082.98 536.99 2083.00 C 537.00 2131.33 537.02 2179.66 536.97 2228.00 C 537.19 2252.67 536.19 2278.74 547.40 2301.48 C 551.70 2310.41 558.94 2318.08 568.24 2321.82 C 579.35 2326.59 591.88 2326.34 603.72 2325.76 C 616.36 2323.51 630.08 2318.64 636.95 2306.95 C 647.64 2291.20 647.36 2271.25 647.98 2253.01 C 647.91 2211.01 648.27 2169.01 647.79 2127.03 C 646.67 2113.16 646.91 2098.77 641.32 2085.75 C 633.76 2066.81 619.33 2051.97 606.10 2036.89 C 589.74 2018.29 571.59 2001.40 554.25 1983.75 C 529.61 1959.63 506.19 1934.21 484.90 1907.08 C 478.56 1899.25 473.54 1890.35 470.12 1880.89 C 464.10 1862.61 463.70 1843.15 462.67 1824.14 C 461.18 1775.44 462.35 1726.70 462.02 1677.99 C 462.25 1642.93 467.68 1605.45 490.24 1577.24 C 502.25 1561.04 520.27 1550.60 539.07 1544.18 Z" />
<path fill="#ffffff" opacity="1.00" d=" M 1570.72 1545.63 C 1593.00 1536.90 1617.36 1536.16 1640.99 1536.84 C 1659.45 1536.90 1677.72 1541.72 1694.30 1549.74 C 1713.21 1560.09 1729.17 1576.22 1738.03 1596.01 C 1751.11 1624.38 1753.74 1656.15 1754.02 1687.00 C 1754.00 1734.99 1754.00 1782.99 1754.00 1831.00 C 1730.33 1831.01 1706.66 1831.01 1683.01 1830.99 C 1682.95 1782.65 1683.04 1734.32 1683.00 1685.99 C 1683.02 1667.92 1681.54 1648.86 1671.91 1633.07 C 1660.34 1615.93 1637.02 1614.39 1618.40 1616.51 C 1602.98 1618.17 1588.20 1627.09 1581.40 1641.34 C 1573.55 1656.55 1573.49 1674.28 1573.02 1690.99 C 1572.99 1881.00 1572.98 2071.01 1573.02 2261.01 C 1572.97 2276.28 1576.46 2291.66 1584.00 2305.01 C 1591.75 2317.02 1605.50 2323.88 1619.43 2325.47 C 1632.38 2326.63 1646.37 2326.62 1658.05 2320.06 C 1667.15 2315.74 1673.49 2307.10 1676.64 2297.71 C 1682.44 2282.91 1682.44 2266.65 1682.98 2251.01 C 1683.07 2195.00 1682.95 2139.00 1683.00 2083.00 C 1706.66 2082.98 1730.32 2082.98 1753.99 2083.01 C 1753.92 2144.67 1754.17 2206.34 1753.88 2268.01 C 1752.57 2299.77 1747.59 2332.92 1730.15 2360.18 C 1714.45 2384.56 1686.22 2398.13 1658.02 2401.18 C 1623.12 2405.46 1585.66 2403.87 1554.03 2386.95 C 1531.04 2375.12 1514.03 2353.48 1505.68 2329.24 C 1496.18 2305.04 1495.65 2278.63 1494.98 2253.00 C 1495.00 2068.00 1495.03 1883.00 1494.97 1698.00 C 1494.78 1672.16 1495.09 1645.75 1502.72 1620.82 C 1508.13 1603.58 1515.81 1586.61 1528.30 1573.29 C 1539.51 1560.33 1554.74 1551.42 1570.72 1545.63 Z" />
<path fill="#ffffff" opacity="1.00" d=" M 3511.44 1537.61 C 3537.34 1535.99 3563.97 1535.14 3589.10 1542.77 C 3602.49 1546.75 3615.52 1552.69 3626.40 1561.59 C 3642.25 1575.66 3651.78 1595.32 3657.50 1615.42 C 3666.28 1651.60 3663.68 1689.11 3664.00 1726.00 C 3663.98 1760.99 3664.01 1795.99 3663.99 1831.00 C 3639.65 1831.00 3615.32 1831.01 3591.00 1831.00 C 3590.99 1790.99 3590.97 1750.99 3591.02 1711.00 C 3590.91 1691.85 3592.15 1672.39 3587.44 1653.64 C 3584.27 1640.84 3577.88 1627.66 3565.68 1621.34 C 3554.37 1615.75 3541.26 1615.57 3528.97 1616.02 C 3514.52 1617.37 3499.83 1624.45 3492.17 1637.18 C 3483.72 1650.39 3483.34 1666.84 3483.00 1681.99 C 3482.91 1721.99 3483.07 1761.99 3482.95 1802.00 C 3482.81 1814.70 3483.19 1827.56 3486.16 1839.98 C 3488.78 1850.85 3495.54 1860.02 3502.11 1868.86 C 3517.41 1888.39 3534.01 1906.89 3551.39 1924.60 C 3570.67 1942.65 3589.75 1960.93 3607.50 1980.52 C 3623.46 1997.47 3639.28 2015.07 3650.16 2035.83 C 3660.80 2055.50 3663.71 2078.09 3665.79 2100.04 C 3668.84 2146.96 3667.82 2194.01 3668.03 2241.00 C 3667.82 2268.45 3667.52 2296.39 3659.96 2323.00 C 3652.89 2346.98 3639.41 2370.22 3617.96 2383.96 C 3597.78 2396.96 3573.54 2401.27 3549.97 2402.69 C 3523.76 2404.09 3496.68 2402.75 3472.02 2392.97 C 3450.47 2384.95 3432.38 2368.57 3421.70 2348.27 C 3404.59 2317.87 3403.62 2281.97 3403.00 2248.00 C 3402.98 2193.00 3402.99 2138.00 3403.01 2083.00 C 3428.32 2082.98 3453.65 2082.97 3478.99 2083.01 C 3479.01 2139.67 3479.01 2196.34 3478.95 2253.01 C 3479.04 2273.37 3482.29 2295.29 3495.28 2311.73 C 3507.30 2325.62 3527.61 2327.24 3544.70 2325.69 C 3559.25 2323.95 3574.25 2316.53 3580.81 2302.81 C 3589.37 2287.04 3588.64 2268.37 3589.03 2251.00 C 3588.95 2210.99 3589.06 2170.99 3588.97 2130.99 C 3588.59 2115.16 3588.44 2098.77 3581.90 2084.05 C 3571.95 2061.85 3554.24 2044.59 3538.16 2026.84 C 3506.92 1994.74 3473.94 1964.26 3445.00 1930.00 C 3435.45 1918.44 3425.22 1907.34 3417.56 1894.41 C 3409.92 1881.44 3407.04 1866.34 3405.58 1851.55 C 3402.00 1812.80 3403.17 1773.85 3403.00 1735.00 C 3403.78 1693.94 3399.44 1651.52 3412.83 1611.88 C 3420.22 1589.85 3433.97 1569.41 3453.82 1556.83 C 3471.07 1545.81 3491.17 1539.75 3511.44 1537.61 Z" />
<path fill="#ffffff" opacity="1.00" d=" M 818.00 1546.00 C 866.34 1546.04 914.68 1545.91 963.01 1546.04 C 999.73 1546.93 1038.86 1557.59 1064.07 1585.94 C 1088.27 1614.64 1095.42 1653.44 1096.02 1689.99 C 1095.92 1744.99 1096.14 1800.00 1095.91 1855.02 C 1094.61 1888.99 1087.20 1925.00 1064.42 1951.40 C 1047.71 1970.75 1023.10 1981.61 998.40 1986.44 C 964.73 1993.52 930.12 1990.29 896.01 1991.00 C 895.99 2125.34 896.01 2259.67 896.00 2394.00 C 869.99 2394.00 844.00 2394.00 818.00 2394.00 C 818.00 2111.33 817.99 1828.67 818.00 1546.00 M 896.00 1625.01 C 896.20 1721.58 895.58 1818.16 896.32 1914.73 C 915.19 1915.03 934.09 1915.39 952.97 1914.70 C 967.79 1914.08 983.22 1911.41 995.49 1902.54 C 1012.37 1889.66 1017.96 1867.31 1017.95 1847.02 C 1018.17 1800.34 1017.83 1753.67 1018.08 1707.00 C 1018.22 1691.65 1018.11 1675.87 1012.81 1661.27 C 1008.90 1650.39 1002.15 1639.99 991.89 1634.20 C 982.56 1628.60 971.72 1626.11 960.98 1625.22 C 939.32 1624.54 917.66 1625.18 896.00 1625.01 Z" />
<path fill="#ffffff" opacity="1.00" d=" M 1230.87 1546.02 C 1261.49 1545.97 1292.11 1545.97 1322.74 1546.03 C 1324.94 1569.04 1329.08 1591.82 1331.36 1614.82 C 1335.29 1647.91 1340.60 1680.82 1344.15 1713.96 C 1355.56 1797.91 1365.89 1881.99 1377.11 1965.96 C 1380.65 1990.07 1382.97 2014.34 1386.45 2038.46 C 1392.72 2083.49 1397.78 2128.68 1404.29 2173.68 C 1407.84 2205.00 1412.23 2236.22 1416.45 2267.46 C 1421.21 2309.71 1427.71 2351.75 1432.80 2393.97 C 1406.71 2393.92 1380.62 2394.25 1354.54 2393.77 C 1348.29 2346.53 1342.86 2299.18 1335.87 2252.04 C 1293.60 2251.96 1251.33 2251.97 1209.07 2252.03 C 1203.31 2299.38 1196.38 2346.59 1190.86 2393.97 C 1165.25 2394.01 1139.64 2394.02 1114.04 2393.98 C 1139.16 2212.01 1164.12 2030.00 1189.07 1848.01 C 1195.46 1804.15 1200.81 1760.16 1207.32 1716.32 C 1212.04 1676.64 1218.66 1637.21 1223.46 1597.54 C 1225.98 1580.37 1227.87 1563.12 1230.87 1546.02 M 1272.01 1758.99 C 1255.13 1899.37 1236.59 2039.54 1218.19 2179.73 C 1254.32 2180.15 1290.48 2180.27 1326.62 2179.64 C 1323.04 2153.80 1320.60 2127.83 1317.05 2102.00 C 1312.03 2065.20 1308.19 2028.27 1303.38 1991.46 C 1299.14 1961.53 1296.36 1931.42 1292.41 1901.46 C 1285.51 1850.25 1280.98 1798.77 1274.05 1747.57 C 1273.23 1751.33 1272.53 1755.14 1272.01 1758.99 Z" />
<path fill="#ffffff" opacity="1.00" d=" M 1846.00 1546.00 C 1920.67 1545.99 1995.33 1545.99 2070.00 1546.00 C 2070.00 1572.33 2070.00 1598.66 2070.00 1624.99 C 2021.33 1625.02 1972.67 1624.97 1924.01 1625.01 C 1923.99 1724.00 1923.99 1823.00 1924.01 1922.00 C 1958.33 1922.02 1992.66 1921.97 2027.00 1922.00 C 2027.00 1948.33 2027.00 1974.66 2027.00 2001.00 C 1992.66 2001.02 1958.33 2000.97 1924.00 2001.00 C 1924.00 2106.33 1923.99 2211.66 1924.01 2316.99 C 1974.67 2317.03 2025.33 2316.97 2076.00 2317.01 C 2076.00 2342.66 2076.00 2368.32 2076.00 2394.00 C 1999.33 2394.00 1922.67 2394.01 1846.01 2393.99 C 1845.99 2111.33 1846.00 1828.67 1846.00 1546.00 Z" />
<path fill="#ffffff" opacity="1.00" d=" M 2417.09 1546.04 C 2447.69 1545.96 2478.30 1545.98 2508.91 1546.02 C 2512.78 1578.27 2517.69 1610.39 2521.31 1642.68 C 2533.62 1733.69 2544.79 1824.86 2557.13 1915.87 C 2560.51 1946.64 2565.09 1977.27 2569.10 2007.97 C 2572.73 2041.38 2577.89 2074.61 2582.09 2107.97 C 2585.46 2139.01 2590.23 2169.88 2594.21 2200.86 C 2597.80 2234.82 2603.25 2268.55 2607.39 2302.46 C 2610.63 2333.04 2615.66 2363.41 2619.15 2393.97 C 2593.11 2394.01 2567.09 2394.02 2541.07 2393.98 C 2534.97 2346.75 2528.75 2299.54 2522.60 2252.32 C 2480.24 2251.75 2437.87 2251.83 2395.53 2252.28 C 2392.40 2278.91 2388.41 2305.43 2385.01 2332.04 C 2382.07 2352.65 2380.28 2373.41 2376.87 2393.96 C 2351.49 2394.02 2326.11 2394.02 2300.75 2393.97 C 2303.54 2367.60 2308.36 2341.50 2311.24 2315.14 C 2315.10 2286.25 2319.43 2257.42 2323.37 2228.54 C 2327.00 2196.65 2332.61 2165.03 2336.26 2133.15 C 2340.10 2104.79 2344.18 2076.46 2348.16 2048.13 C 2352.15 2013.37 2358.23 1978.89 2362.25 1944.14 C 2380.72 1811.46 2398.62 1678.71 2417.09 1546.04 M 2455.38 1785.33 C 2451.60 1815.87 2447.37 1846.36 2443.99 1876.96 C 2440.10 1907.99 2435.47 1938.94 2432.09 1970.03 C 2427.82 2003.70 2422.76 2037.27 2419.02 2071.00 C 2414.21 2107.31 2408.82 2143.55 2404.93 2179.98 C 2440.91 2179.82 2476.90 2180.42 2512.89 2179.64 C 2511.33 2165.76 2509.76 2151.88 2507.98 2138.04 C 2500.76 2083.01 2494.69 2027.85 2487.24 1972.86 C 2484.95 1949.85 2481.88 1926.94 2479.03 1904.00 C 2472.61 1851.58 2466.88 1799.07 2460.37 1746.66 C 2457.83 1759.41 2457.34 1772.47 2455.38 1785.33 Z" />
<path fill="#ffffff" opacity="1.00" d=" M 2698.00 1546.00 C 2744.67 1545.99 2791.33 1546.00 2838.01 1545.98 C 2870.21 1546.31 2903.86 1553.17 2929.91 1573.13 C 2949.46 1587.56 2961.57 1609.93 2968.05 1632.97 C 2980.38 1678.60 2974.75 1726.34 2976.00 1773.00 C 2974.81 1813.58 2979.58 1854.84 2970.70 1894.85 C 2965.69 1919.46 2954.37 1943.50 2935.24 1960.26 C 2917.53 1975.17 2895.26 1983.80 2872.58 1987.49 C 2840.71 1993.26 2808.17 1990.29 2776.00 1991.01 C 2775.99 2125.34 2776.01 2259.67 2776.00 2394.00 C 2749.99 2394.00 2723.99 2394.00 2698.00 2394.00 C 2698.00 2111.33 2697.99 1828.67 2698.00 1546.00 M 2776.00 1625.01 C 2776.20 1721.56 2775.58 1818.12 2776.32 1914.68 C 2796.67 1914.98 2817.07 1915.61 2837.43 1914.49 C 2853.89 1913.40 2871.51 1908.67 2882.68 1895.70 C 2894.67 1880.31 2898.33 1860.08 2898.05 1841.01 C 2897.92 1794.33 2898.06 1747.66 2898.00 1700.99 C 2897.81 1681.23 2895.65 1659.99 2883.22 1643.77 C 2873.27 1631.84 2857.52 1627.19 2842.70 1625.31 C 2820.47 1624.45 2798.22 1625.23 2776.00 1625.01 Z" />
<path fill="#ffffff" opacity="1.00" d=" M 3056.00 1546.00 C 3099.33 1545.95 3142.66 1546.06 3186.00 1545.95 C 3213.86 1545.31 3242.65 1548.77 3267.99 1561.04 C 3286.18 1569.59 3302.02 1583.38 3312.31 1600.72 C 3327.14 1625.04 3331.85 1654.02 3333.72 1682.03 C 3334.43 1723.67 3333.77 1765.34 3334.00 1807.00 C 3333.70 1834.61 3335.66 1862.65 3329.77 1889.86 C 3325.69 1908.90 3319.88 1928.22 3307.88 1943.90 C 3293.28 1964.56 3270.27 1978.12 3245.95 1984.08 C 3209.50 1994.12 3171.31 1990.28 3134.00 1991.01 C 3133.99 2125.34 3134.01 2259.67 3134.00 2394.00 C 3107.98 2394.00 3081.99 2394.00 3056.00 2394.00 C 3056.00 2111.33 3055.99 1828.67 3056.00 1546.00 M 3134.01 1625.01 C 3133.99 1721.67 3133.99 1818.32 3134.01 1914.99 C 3152.65 1914.85 3171.31 1915.39 3189.98 1914.79 C 3202.92 1914.14 3216.48 1912.50 3227.87 1905.80 C 3238.29 1900.51 3245.67 1890.54 3249.72 1879.78 C 3253.98 1868.02 3256.11 1855.51 3256.01 1843.01 C 3256.06 1801.34 3255.90 1759.67 3256.05 1718.00 C 3256.02 1701.49 3256.25 1684.78 3252.55 1668.60 C 3249.80 1658.71 3246.08 1648.69 3238.73 1641.27 C 3228.64 1630.83 3213.88 1626.76 3199.88 1625.26 C 3177.92 1624.50 3155.95 1625.21 3134.01 1625.01 Z" />
<path fill="#ffffff" opacity="0.50" d=" M 3743.01 2420.01 C 3808.66 2419.99 3874.33 2419.99 3940.00 2420.01 C 3940.00 2486.66 3940.00 2553.33 3939.99 2619.99 C 3874.32 2620.00 3808.66 2620.00 3743.00 2619.99 C 3742.99 2553.33 3742.98 2486.67 3743.01 2420.01 Z" />
<path fill="#ffffff" opacity="0.50" d=" M 3960.00 2420.01 C 4026.66 2419.98 4093.33 2420.01 4160.00 2420.00 L 4160.00 2620.00 C 4093.33 2619.98 4026.67 2620.02 3960.01 2619.99 C 3959.98 2553.32 3959.99 2486.66 3960.00 2420.01 Z" />
<path fill="#ffffff" opacity="1.00" d=" M 1445.43 2611.50 C 1468.84 2607.85 1493.15 2615.68 1510.73 2631.29 C 1512.02 2632.79 1513.87 2635.28 1512.21 2637.18 C 1506.53 2644.42 1500.08 2651.10 1493.13 2657.14 C 1491.78 2658.81 1489.68 2657.49 1488.22 2656.74 C 1480.93 2652.25 1473.66 2647.11 1464.89 2646.12 C 1447.90 2642.23 1429.90 2651.28 1420.30 2665.28 C 1408.56 2682.83 1409.76 2708.16 1423.99 2724.00 C 1437.01 2739.71 1461.09 2742.58 1478.84 2733.78 C 1483.29 2731.69 1486.99 2727.99 1491.85 2726.90 C 1499.06 2732.72 1505.27 2739.71 1511.29 2746.75 C 1512.86 2748.51 1514.04 2751.77 1511.33 2753.30 C 1492.02 2772.43 1462.26 2779.96 1436.05 2773.05 C 1410.58 2767.24 1388.30 2748.45 1379.15 2723.84 C 1372.68 2706.43 1370.63 2686.74 1376.97 2668.99 C 1386.12 2638.63 1413.88 2615.12 1445.43 2611.50 Z" />
<path fill="#ffffff" opacity="1.00" d=" M 1790.84 2610.92 C 1792.66 2610.94 1796.31 2610.97 1798.13 2610.98 C 1813.71 2642.63 1828.14 2674.84 1843.22 2706.74 C 1852.74 2727.74 1862.93 2748.44 1872.02 2769.65 C 1871.26 2770.70 1870.54 2771.80 1869.82 2772.93 C 1859.86 2773.01 1849.90 2773.37 1839.98 2772.91 C 1837.55 2773.10 1836.20 2770.60 1835.15 2768.91 C 1831.39 2762.60 1828.47 2755.90 1825.74 2749.12 C 1804.94 2748.90 1784.14 2748.90 1763.36 2749.10 C 1759.64 2757.14 1757.23 2766.30 1750.76 2772.70 C 1739.77 2773.45 1728.77 2773.06 1717.81 2772.68 C 1719.91 2759.04 1727.76 2747.49 1732.94 2734.98 C 1752.49 2693.74 1771.37 2652.20 1790.84 2610.92 M 1794.61 2680.67 C 1788.46 2693.32 1782.86 2706.23 1777.07 2719.05 C 1788.78 2718.99 1800.50 2718.99 1812.25 2718.90 C 1806.54 2706.07 1800.55 2693.37 1794.61 2680.67 Z" />
<path fill="#ffffff" opacity="1.00" d=" M 2304.08 2614.98 C 2304.29 2609.58 2311.40 2609.85 2314.91 2612.10 C 2324.45 2619.81 2332.23 2629.47 2341.52 2637.51 C 2362.69 2657.68 2383.57 2678.18 2404.88 2698.21 C 2405.12 2676.46 2404.99 2654.72 2404.86 2632.99 C 2405.01 2626.18 2404.36 2619.02 2407.51 2612.80 C 2418.14 2612.99 2428.81 2613.01 2439.49 2612.84 C 2442.13 2619.19 2441.98 2626.16 2442.12 2632.99 C 2441.90 2676.33 2441.99 2719.67 2442.09 2763.02 C 2441.76 2766.94 2442.97 2774.45 2437.43 2775.57 C 2433.23 2777.31 2429.98 2773.15 2427.23 2770.79 C 2398.21 2741.76 2369.28 2712.64 2340.14 2683.75 C 2339.77 2712.75 2340.17 2741.77 2339.93 2770.79 C 2339.17 2771.45 2338.43 2772.14 2337.72 2772.86 C 2326.38 2773.17 2314.98 2773.61 2303.78 2771.80 C 2304.38 2719.53 2303.67 2667.24 2304.08 2614.98 Z" />
<path fill="#ffffff" opacity="1.00" d=" M 2520.14 2623.21 C 2540.81 2610.07 2567.91 2607.15 2590.72 2616.33 C 2599.46 2619.12 2607.29 2623.97 2614.78 2629.23 C 2617.27 2631.46 2621.76 2633.17 2619.85 2637.73 C 2613.69 2645.17 2607.22 2652.69 2599.66 2658.69 C 2594.46 2659.35 2590.53 2654.01 2585.89 2652.21 C 2570.53 2643.34 2549.90 2646.07 2536.76 2657.75 C 2523.75 2668.39 2516.82 2686.48 2521.02 2703.01 C 2523.35 2714.62 2531.07 2724.63 2540.59 2731.45 C 2553.74 2740.42 2570.88 2740.05 2585.59 2735.49 C 2585.66 2731.03 2585.91 2726.76 2586.06 2722.42 C 2579.54 2721.91 2573.13 2721.69 2566.72 2720.81 C 2566.60 2710.75 2566.69 2700.71 2568.19 2690.79 C 2581.78 2691.01 2595.39 2690.86 2609.03 2690.91 C 2612.45 2691.85 2618.42 2689.18 2620.64 2693.32 C 2621.71 2715.54 2620.64 2737.82 2621.02 2760.08 C 2600.64 2771.15 2577.17 2776.38 2554.02 2774.89 C 2531.12 2772.25 2509.34 2759.92 2495.96 2741.06 C 2484.25 2725.79 2480.30 2705.87 2481.02 2686.99 C 2483.23 2661.27 2497.47 2636.16 2520.14 2623.21 Z" />
<path fill="#ffffff" opacity="1.00" d=" M 1552.55 2612.78 C 1562.95 2612.95 1573.37 2613.02 1583.80 2613.09 C 1584.47 2613.78 1585.17 2614.51 1585.88 2615.27 C 1586.04 2635.16 1586.03 2655.07 1585.99 2674.99 C 1607.99 2675.00 1629.99 2675.01 1652.00 2674.99 C 1652.07 2658.30 1651.84 2641.63 1651.92 2624.97 C 1652.93 2621.30 1650.16 2615.56 1654.33 2613.35 C 1664.69 2612.59 1675.09 2612.91 1685.50 2612.80 C 1688.12 2618.82 1687.97 2625.48 1688.12 2631.99 C 1687.95 2671.98 1687.91 2711.99 1688.12 2752.00 C 1687.95 2758.84 1687.99 2765.86 1687.02 2772.71 C 1675.26 2773.13 1663.41 2773.71 1651.77 2771.80 C 1652.18 2750.86 1651.92 2729.93 1652.00 2709.01 C 1629.99 2708.96 1607.99 2708.97 1586.00 2709.01 C 1586.01 2729.59 1586.03 2750.18 1585.93 2770.79 C 1585.18 2771.46 1584.44 2772.15 1583.73 2772.88 C 1573.30 2772.92 1562.89 2772.96 1552.50 2773.21 C 1549.25 2765.61 1550.04 2757.01 1549.87 2749.00 C 1550.21 2707.31 1549.84 2665.63 1549.99 2623.96 C 1549.54 2619.91 1550.95 2616.30 1552.55 2612.78 Z" />
<path fill="#ffffff" opacity="1.00" d=" M 1903.55 2612.78 C 1913.95 2612.95 1924.36 2613.02 1934.80 2613.08 C 1935.47 2613.78 1936.16 2614.51 1936.87 2615.27 C 1937.18 2656.84 1936.89 2698.42 1937.01 2740.01 C 1955.92 2739.93 1974.85 2739.98 1993.79 2740.07 C 1994.47 2740.77 1995.16 2741.50 1995.88 2742.28 C 1995.94 2751.15 1996.47 2760.09 1995.95 2769.02 C 1995.95 2772.26 1991.87 2774.19 1989.02 2772.95 C 1960.05 2773.12 1931.08 2773.14 1902.13 2772.74 C 1899.47 2728.23 1901.85 2683.56 1900.88 2639.00 C 1901.34 2630.27 1899.30 2620.81 1903.55 2612.78 Z" />
<path fill="#ffffff" opacity="1.00" d=" M 2030.76 2613.75 C 2042.22 2612.82 2053.75 2612.82 2065.24 2613.75 C 2066.96 2655.79 2065.53 2697.91 2066.00 2740.00 C 2084.65 2740.20 2103.32 2739.52 2121.98 2740.12 C 2123.57 2740.09 2124.07 2742.13 2124.55 2743.39 C 2125.75 2753.08 2124.99 2762.98 2123.89 2772.70 C 2093.32 2773.28 2062.75 2772.97 2032.20 2772.91 C 2031.49 2772.15 2030.80 2771.42 2030.13 2770.73 C 2030.30 2718.40 2029.10 2666.04 2030.76 2613.75 Z" />
<path fill="#ffffff" opacity="1.00" d=" M 2159.01 2613.75 C 2191.32 2612.26 2223.71 2613.16 2256.06 2613.01 C 2260.08 2612.70 2263.21 2617.04 2262.01 2620.99 C 2261.49 2628.90 2264.10 2637.95 2260.41 2645.40 C 2238.30 2646.90 2216.11 2645.57 2193.98 2646.01 C 2193.98 2655.63 2194.04 2665.32 2193.98 2675.00 C 2210.66 2675.11 2227.35 2674.72 2244.06 2674.92 C 2246.14 2674.86 2248.56 2675.25 2249.68 2677.30 C 2250.46 2687.08 2250.41 2696.96 2249.78 2706.80 C 2246.43 2710.05 2241.04 2708.21 2237.03 2709.03 C 2222.66 2709.18 2208.31 2708.94 2193.98 2708.99 C 2194.00 2719.30 2194.00 2729.63 2193.99 2739.99 C 2215.93 2740.28 2237.89 2739.42 2259.84 2740.22 C 2262.99 2743.64 2261.43 2748.71 2262.20 2752.97 C 2261.57 2759.24 2263.67 2766.55 2260.41 2772.40 C 2226.75 2773.75 2192.99 2772.90 2159.32 2772.68 C 2158.59 2719.70 2159.18 2666.72 2159.01 2613.75 Z" />
<path fill="#ffffff" opacity="1.00" d=" M 2664.64 2613.76 C 2698.80 2612.51 2733.06 2612.52 2767.23 2613.63 C 2768.08 2624.36 2768.19 2635.21 2767.43 2646.00 C 2744.93 2646.00 2722.44 2645.98 2699.97 2646.00 C 2699.97 2655.63 2700.03 2665.32 2699.98 2675.00 C 2716.99 2675.15 2734.02 2674.64 2751.06 2674.98 C 2753.71 2674.75 2756.15 2676.72 2756.53 2679.39 C 2757.45 2687.48 2757.41 2695.71 2756.79 2703.89 C 2756.54 2706.10 2754.95 2708.27 2752.61 2708.50 C 2735.08 2709.71 2717.50 2708.75 2699.98 2708.99 C 2699.99 2719.30 2700.00 2729.63 2699.99 2740.00 C 2721.91 2740.00 2743.84 2739.91 2765.79 2740.09 C 2766.46 2740.78 2767.17 2741.51 2767.91 2742.27 C 2766.89 2752.07 2770.53 2763.08 2766.40 2772.40 C 2734.63 2773.82 2702.76 2772.68 2670.97 2773.00 C 2665.10 2775.82 2663.66 2768.55 2664.12 2765.01 C 2663.65 2735.00 2664.18 2704.99 2664.01 2675.00 C 2664.28 2654.58 2663.19 2634.13 2664.64 2613.76 Z" />
<path fill="#ffffff" opacity="0.60" d=" M 1100.01 2640.01 C 1166.67 2639.99 1233.33 2639.99 1299.99 2640.01 C 1300.01 2706.67 1300.01 2773.33 1299.99 2839.99 C 1233.33 2840.00 1166.67 2840.00 1100.01 2839.99 C 1099.99 2773.33 1099.99 2706.67 1100.01 2640.01 Z" />
<path fill="#ffffff" opacity="0.60" d=" M 2860.01 2640.01 C 2926.66 2639.99 2993.33 2639.99 3059.99 2640.01 C 3060.00 2706.67 3060.00 2773.33 3059.99 2839.99 C 2993.33 2840.00 2926.66 2840.00 2860.01 2839.99 C 2859.99 2773.33 2859.99 2706.67 2860.01 2640.01 Z" />
<path fill="#ffffff" opacity="0.60" d=" M 3080.01 2640.01 C 3146.66 2639.99 3213.32 2639.99 3279.99 2640.01 C 3280.00 2706.67 3280.00 2773.33 3279.99 2839.99 C 3213.32 2840.00 3146.66 2840.00 3080.01 2839.99 C 3079.99 2773.33 3079.99 2706.67 3080.01 2640.01 Z" />
<path fill="#ffffff" opacity="0.60" d=" M 3300.01 2640.01 C 3366.66 2639.99 3433.32 2639.99 3499.99 2640.01 C 3500.00 2706.67 3500.00 2773.33 3499.99 2839.99 C 3433.32 2840.00 3366.66 2840.00 3300.01 2839.99 C 3299.99 2773.33 3299.99 2706.67 3300.01 2640.01 Z" />
<path fill="#ffffff" opacity="0.60" d=" M 3520.01 2640.01 C 3586.66 2639.99 3653.32 2639.99 3719.99 2640.01 C 3720.00 2706.67 3720.00 2773.33 3719.99 2839.99 C 3653.32 2840.00 3586.66 2840.00 3520.01 2839.99 C 3519.99 2773.33 3519.99 2706.67 3520.01 2640.01 Z" />
<path fill="#ffffff" opacity="0.60" d=" M 3740.01 2640.01 C 3806.66 2639.99 3873.32 2639.99 3939.99 2640.01 C 3940.00 2706.67 3940.00 2773.33 3939.99 2839.99 C 3873.32 2840.00 3806.66 2840.00 3740.01 2839.99 C 3739.99 2773.33 3739.99 2706.67 3740.01 2640.01 Z" />
<path fill="#ffffff" opacity="0.60" d=" M 3960.00 2640.01 C 4026.66 2639.98 4093.33 2640.01 4160.00 2640.00 L 4160.00 2840.00 C 4093.33 2839.98 4026.67 2840.02 3960.01 2839.99 C 3959.98 2773.32 3959.99 2706.66 3960.00 2640.01 Z" />
<path fill="#ffffff" opacity="0.70" d=" M 1100.01 2860.01 C 1166.67 2859.99 1233.33 2859.99 1299.99 2860.01 C 1300.01 2926.66 1300.01 2993.33 1299.99 3059.99 C 1233.33 3060.00 1166.67 3060.00 1100.01 3059.99 C 1099.99 2993.33 1099.99 2926.66 1100.01 2860.01 Z" />
<path fill="#ffffff" opacity="0.70" d=" M 1320.01 2860.01 C 1386.67 2859.99 1453.33 2859.99 1519.99 2860.01 C 1520.00 2926.66 1520.00 2993.33 1519.99 3059.99 C 1453.33 3060.00 1386.67 3060.00 1320.01 3059.99 C 1319.99 2993.33 1319.99 2926.66 1320.01 2860.01 Z" />
<path fill="#ffffff" opacity="0.70" d=" M 1540.01 2860.01 C 1606.67 2859.99 1673.33 2859.99 1739.99 2860.01 C 1740.00 2926.66 1740.00 2993.33 1739.99 3059.99 C 1673.33 3060.00 1606.67 3060.00 1540.01 3059.99 C 1539.99 2993.33 1539.99 2926.66 1540.01 2860.01 Z" />
<path fill="#ffffff" opacity="0.70" d=" M 1760.01 2860.01 C 1826.67 2859.99 1893.33 2859.99 1959.99 2860.01 C 1960.00 2926.66 1960.00 2993.33 1959.99 3059.99 C 1893.33 3060.00 1826.67 3060.00 1760.01 3059.99 C 1759.99 2993.33 1759.99 2926.66 1760.01 2860.01 Z" />
<path fill="#ffffff" opacity="0.70" d=" M 1980.01 2860.01 C 2046.67 2859.99 2113.33 2859.99 2179.99 2860.01 C 2180.00 2926.66 2180.00 2993.33 2179.99 3059.99 C 2113.33 3060.00 2046.67 3060.00 1980.01 3059.99 C 1979.99 2993.33 1979.99 2926.66 1980.01 2860.01 Z" />
<path fill="#ffffff" opacity="0.70" d=" M 2200.01 2860.01 C 2266.67 2859.99 2333.33 2859.99 2399.99 2860.01 C 2400.00 2926.66 2400.00 2993.33 2399.99 3059.99 C 2333.33 3060.00 2266.67 3060.00 2200.01 3059.99 C 2199.99 2993.33 2199.99 2926.66 2200.01 2860.01 Z" />
<path fill="#ffffff" opacity="0.70" d=" M 2420.01 2860.01 C 2486.67 2859.99 2553.33 2859.99 2619.99 2860.01 C 2620.00 2926.66 2620.00 2993.33 2619.99 3059.99 C 2553.33 3060.00 2486.67 3060.00 2420.01 3059.99 C 2419.99 2993.33 2419.99 2926.66 2420.01 2860.01 Z" />
<path fill="#ffffff" opacity="0.70" d=" M 2640.01 2860.01 C 2706.67 2859.99 2773.33 2859.99 2839.99 2860.01 C 2840.00 2926.66 2840.00 2993.33 2839.99 3059.99 C 2773.33 3060.00 2706.67 3060.00 2640.01 3059.99 C 2639.99 2993.33 2639.99 2926.66 2640.01 2860.01 Z" />
<path fill="#ffffff" opacity="0.70" d=" M 2860.01 2860.01 C 2926.66 2859.99 2993.33 2859.99 3059.99 2860.01 C 3060.00 2926.66 3060.00 2993.33 3059.99 3059.99 C 2993.33 3060.00 2926.66 3060.00 2860.01 3059.99 C 2859.99 2993.33 2859.99 2926.66 2860.01 2860.01 Z" />
<path fill="#ffffff" opacity="0.70" d=" M 3080.01 2860.01 C 3146.66 2859.99 3213.32 2859.99 3279.99 2860.01 C 3280.00 2926.66 3280.00 2993.33 3279.99 3059.99 C 3213.32 3060.00 3146.66 3060.00 3080.01 3059.99 C 3079.99 2993.33 3079.99 2926.66 3080.01 2860.01 Z" />
<path fill="#ffffff" opacity="0.70" d=" M 3300.01 2860.01 C 3366.66 2859.99 3433.32 2859.99 3499.99 2860.01 C 3500.00 2926.66 3500.00 2993.33 3499.99 3059.99 C 3433.32 3060.00 3366.66 3060.00 3300.01 3059.99 C 3299.99 2993.33 3299.99 2926.66 3300.01 2860.01 Z" />
<path fill="#ffffff" opacity="0.70" d=" M 3520.01 2860.01 C 3586.66 2859.99 3653.32 2859.99 3719.99 2860.01 C 3720.00 2926.66 3720.00 2993.33 3719.99 3059.99 C 3653.32 3060.00 3586.66 3060.00 3520.01 3059.99 C 3519.99 2993.33 3519.99 2926.66 3520.01 2860.01 Z" />
<path fill="#ffffff" opacity="0.70" d=" M 3740.01 2860.01 C 3806.66 2859.99 3873.32 2859.99 3939.99 2860.01 C 3940.00 2926.66 3940.00 2993.33 3939.99 3059.99 C 3873.32 3060.00 3806.66 3060.00 3740.01 3059.99 C 3739.99 2993.33 3739.99 2926.66 3740.01 2860.01 Z" />
<path fill="#ffffff" opacity="0.80" d=" M 1320.01 3080.01 C 1386.67 3079.99 1453.33 3079.99 1519.99 3080.01 C 1520.00 3146.66 1520.00 3213.32 1519.99 3279.99 C 1453.33 3280.00 1386.67 3280.00 1320.01 3279.99 C 1319.99 3213.32 1319.99 3146.66 1320.01 3080.01 Z" />
<path fill="#ffffff" opacity="0.80" d=" M 1540.01 3080.01 C 1606.67 3079.99 1673.33 3079.99 1739.99 3080.01 C 1740.00 3146.66 1740.00 3213.32 1739.99 3279.99 C 1673.33 3280.00 1606.67 3280.00 1540.01 3279.99 C 1539.99 3213.32 1539.99 3146.66 1540.01 3080.01 Z" />
<path fill="#ffffff" opacity="0.80" d=" M 1760.01 3080.01 C 1826.67 3079.99 1893.33 3079.99 1959.99 3080.01 C 1960.00 3146.66 1960.00 3213.32 1959.99 3279.99 C 1893.33 3280.00 1826.67 3280.00 1760.01 3279.99 C 1759.99 3213.32 1759.99 3146.66 1760.01 3080.01 Z" />
<path fill="#ffffff" opacity="0.80" d=" M 1980.01 3080.01 C 2046.67 3079.99 2113.33 3079.99 2179.99 3080.01 C 2180.00 3146.66 2180.00 3213.32 2179.99 3279.99 C 2113.33 3280.00 2046.67 3280.00 1980.01 3279.99 C 1979.99 3213.32 1979.99 3146.66 1980.01 3080.01 Z" />
<path fill="#ffffff" opacity="0.80" d=" M 2200.01 3080.01 C 2266.67 3079.99 2333.33 3079.99 2399.99 3080.01 C 2400.00 3146.66 2400.00 3213.32 2399.99 3279.99 C 2333.33 3280.00 2266.67 3280.00 2200.01 3279.99 C 2199.99 3213.32 2199.99 3146.66 2200.01 3080.01 Z" />
<path fill="#ffffff" opacity="0.80" d=" M 2420.01 3080.01 C 2486.67 3079.99 2553.33 3079.99 2619.99 3080.01 C 2620.00 3146.66 2620.00 3213.32 2619.99 3279.99 C 2553.33 3280.00 2486.67 3280.00 2420.01 3279.99 C 2419.99 3213.32 2419.99 3146.66 2420.01 3080.01 Z" />
<path fill="#ffffff" opacity="0.80" d=" M 2640.01 3080.01 C 2706.67 3079.99 2773.33 3079.99 2839.99 3080.01 C 2840.00 3146.66 2840.00 3213.32 2839.99 3279.99 C 2773.33 3280.00 2706.67 3280.00 2640.01 3279.99 C 2639.99 3213.32 2639.99 3146.66 2640.01 3080.01 Z" />
<path fill="#ffffff" opacity="0.80" d=" M 2860.01 3080.01 C 2926.66 3079.99 2993.33 3079.99 3059.99 3080.01 C 3060.00 3146.66 3060.00 3213.32 3059.99 3279.99 C 2993.33 3280.00 2926.66 3280.00 2860.01 3279.99 C 2859.99 3213.32 2859.99 3146.66 2860.01 3080.01 Z" />
<path fill="#ffffff" opacity="0.90" d=" M 1540.01 3300.01 C 1606.67 3299.99 1673.33 3299.99 1739.99 3300.01 C 1740.00 3366.66 1740.00 3433.32 1739.99 3499.99 C 1673.33 3500.00 1606.67 3500.00 1540.01 3499.99 C 1539.99 3433.32 1539.99 3366.66 1540.01 3300.01 Z" />
<path fill="#ffffff" opacity="0.90" d=" M 1760.01 3300.01 C 1826.67 3299.99 1893.33 3299.99 1959.99 3300.01 C 1960.00 3366.66 1960.00 3433.32 1959.99 3499.99 C 1893.33 3500.00 1826.67 3500.00 1760.01 3499.99 C 1759.99 3433.32 1759.99 3366.66 1760.01 3300.01 Z" />
<path fill="#ffffff" opacity="0.90" d=" M 1980.01 3300.01 C 2046.67 3299.99 2113.33 3299.99 2179.99 3300.01 C 2180.00 3366.66 2180.00 3433.32 2179.99 3499.99 C 2113.33 3500.00 2046.67 3500.00 1980.01 3499.99 C 1979.99 3433.32 1979.99 3366.66 1980.01 3300.01 Z" />
<path fill="#ffffff" opacity="0.90" d=" M 2200.01 3300.01 C 2266.67 3299.99 2333.33 3299.99 2399.99 3300.01 C 2400.00 3366.66 2400.00 3433.32 2399.99 3499.99 C 2333.33 3500.00 2266.67 3500.00 2200.01 3499.99 C 2199.99 3433.32 2199.99 3366.66 2200.01 3300.01 Z" />
<path fill="#ffffff" opacity="0.90" d=" M 2420.01 3300.01 C 2486.67 3299.99 2553.33 3299.99 2619.99 3300.01 C 2620.00 3366.66 2620.00 3433.32 2619.99 3499.99 C 2553.33 3500.00 2486.67 3500.00 2420.01 3499.99 C 2419.99 3433.32 2419.99 3366.66 2420.01 3300.01 Z" />
<path fill="#ffffff" opacity="0.90" d=" M 2640.01 3300.01 C 2706.67 3299.99 2773.33 3299.99 2839.99 3300.01 C 2840.00 3366.66 2840.00 3433.32 2839.99 3499.99 C 2773.33 3500.00 2706.67 3500.00 2640.01 3499.99 C 2639.99 3433.32 2639.99 3366.66 2640.01 3300.01 Z" />
<path fill="#ffffff" opacity="1.00" d=" M 1540.01 3520.01 C 1606.67 3519.98 1673.33 3519.99 1739.99 3520.00 C 1740.02 3586.66 1739.99 3653.33 1740.00 3720.00 L 1540.00 3720.00 C 1540.01 3653.33 1539.97 3586.67 1540.01 3520.01 Z" />
</svg>