<svg xmlns="http://www.w3.org/2000/svg" width="3123.992" height="6490.496" viewBox="0 0 3123.992 6490.496"><g fill="#030303" font-family="'MyriadPro-Regular'"><text transform="translate(428.92 4077.555)" font-size="180">Length: 1,500mm</text><text transform="translate(428.92 4293.555)" font-size="180">Height: 750mmeight</text><text transform="translate(428.92 4509.555)" font-size="180">Width: 750mm</text><text transform="translate(428.92 4725.555)" font-size="180">Seats: 1 person</text><text transform="translate(2212.89 4209.166)" font-size="144">bottom top</text></g><path fill="#AE7F2D" stroke="#4A99C3" d="M2668.04 5824.122h-397.844c-3.116 0-5.646 2.504-5.646 5.62v569.98l.004 39.47c0 6.233 5.05 11.267 11.305 11.27l102.673.042c2.9 0 5.684 1.125 7.77 3.115l35.77 34.048a8.47 8.47 0 0 0 5.84 2.328h82.395c2.17 0 4.263-.812 5.84-2.328l35.744-34.05a11.335 11.335 0 0 1 7.79-3.114l102.624.04c6.257 0 11.306-5.028 11.306-11.27l.07-39.55v-569.98a5.648 5.648 0 0 0-5.64-5.622zm-25.345 534.114c0 9.97-8.094 18.05-18.077 18.05h-311c-9.983 0-18.077-8.08-18.077-18.05v-495.03c0-9.97 8.095-18.052 18.078-18.052h311c9.983 0 18.077 8.082 18.077 18.052v495.03z"/><path fill="none" d="M1947.237 916.58a8.48 8.48 0 0 0 8.48-8.48c0-4.652-3.806-8.44-8.48-8.44-4.677 0-8.464 3.788-8.464 8.44 0 4.69 3.788 8.48 8.464 8.48zM59.147 682.385c-4.655 0-8.462 3.79-8.462 8.464 0 4.672 3.807 8.48 8.462 8.48 4.675 0 8.482-3.804 8.482-8.48 0-4.677-3.808-8.465-8.483-8.465zM1267.242 1193.086c4.654 0 8.463-3.768 8.463-8.463 0-4.673-3.81-8.462-8.463-8.462-4.676 0-8.443 3.788-8.443 8.463a8.43 8.43 0 0 0 8.442 8.463zM1837.202 744.938c-4.677 0-8.463 3.81-8.463 8.48 0 4.674 3.792 8.463 8.462 8.463s8.48-3.787 8.48-8.462c.002-4.67-3.806-8.48-8.48-8.48zM169.182 979.152c4.675 0 8.482-3.81 8.482-8.482 0-4.656-3.807-8.462-8.482-8.462-4.655 0-8.462 3.806-8.462 8.462 0 4.672 3.807 8.482 8.462 8.482zM1377.275 975.838c4.656 0 8.464-3.787 8.464-8.462s-3.813-8.463-8.465-8.463c-4.674 0-8.442 3.788-8.442 8.463s3.767 8.462 8.442 8.462zM1837.202 1133.847c4.67 0 8.48-3.786 8.48-8.462 0-4.675-3.81-8.463-8.48-8.463a8.463 8.463 0 0 0 0 16.925zM739.162 919.895c4.654 0 8.44-3.787 8.443-8.465 0-4.673-3.79-8.46-8.443-8.46-4.694 0-8.482 3.786-8.482 8.46 0 4.675 3.787 8.465 8.482 8.465zM1267.242 685.7c-4.676 0-8.443 3.787-8.443 8.462 0 4.674 3.767 8.46 8.442 8.46 4.654 0 8.463-3.786 8.463-8.46 0-4.675-3.81-8.463-8.463-8.463zM1377.275 336.177c4.656 0 8.464-3.806 8.464-8.46 0-4.676-3.813-8.484-8.465-8.484-4.674 0-8.442 3.806-8.442 8.483 0 4.655 3.767 8.46 8.442 8.46zM739.162 280.233c4.654 0 8.44-3.808 8.443-8.48a8.442 8.442 0 0 0-8.443-8.444c-4.694 0-8.482 3.767-8.482 8.442 0 4.672 3.787 8.48 8.482 8.48zM169.182 339.47c4.675 0 8.482-3.787 8.482-8.46 0-4.676-3.807-8.462-8.482-8.462-4.655 0-8.462 3.786-8.462 8.46 0 4.675 3.807 8.463 8.462 8.463zM1947.237 276.918c4.674 0 8.48-3.786 8.48-8.462 0-4.673-3.806-8.48-8.48-8.48-4.677 0-8.464 3.806-8.464 8.48s3.788 8.462 8.464 8.462zM1837.202 452.992c-4.677 0-8.463 3.808-8.463 8.48 0 4.654 3.792 8.46 8.462 8.46s8.48-3.806 8.48-8.46c.002-4.672-3.806-8.48-8.48-8.48zM59.147 515.564c-4.655 0-8.462 3.79-8.462 8.464s3.807 8.462 8.462 8.462c4.675 0 8.482-3.788 8.482-8.462 0-4.674-3.808-8.464-8.483-8.464zM1267.242 512.25c-4.676 0-8.443 3.79-8.443 8.463s3.767 8.482 8.442 8.482c4.654 0 8.463-3.81 8.463-8.482s-3.81-8.463-8.463-8.463zM629.127 456.306c-4.695 0-8.482 3.788-8.482 8.462 0 4.68 3.787 8.467 8.482 8.467 4.655 0 8.443-3.787 8.443-8.467 0-4.673-3.788-8.462-8.443-8.462zM1859.55 6153.287c.017-.02.038-.04.038-.04 4.42-4.458 4.4-11.6-.04-15.98-4.417-4.395-11.56-4.378-15.958.04h-18.855c-4.4-4.34-11.5-4.34-15.88 0-4.44 4.38-4.46 11.54-.08 15.98v18.857c-4.356 4.397-4.356 11.5 0 15.88 4.382 4.436 11.542 4.475 15.96.077h18.855l.062.062c4.418 4.378 11.56 4.378 15.938-.06a11.24 11.24 0 0 0-.04-15.958v-18.857zM1859.55 6254.86c.017-.022.038-.022.038-.062 4.42-4.418 4.4-11.562-.04-15.938-4.417-4.398-11.56-4.398-15.958.04h-18.855c-4.4-4.355-11.5-4.355-15.88 0-4.44 4.38-4.46 11.54-.08 15.958v18.857c-4.356 4.396-4.356 11.5 0 15.896 4.382 4.42 11.542 4.478 15.96.08h18.855c.023 0 .062.02.062.06 4.418 4.378 11.56 4.357 15.938-.06 4.42-4.44 4.4-11.58-.04-15.977v-18.854zM1859.555 2469.232c-4.396-4.4-11.54-4.4-15.96 0h-18.853-.02c-4.42-4.418-11.563-4.4-15.96 0-4.396 4.418-4.396 11.582.02 15.978v18.858c-4.358 4.396-4.358 11.48 0 15.896 4.38 4.42 11.542 4.458 15.96.062h18.854c4.418 4.38 11.52 4.38 15.897 0 4.437-4.4 4.476-11.54.062-15.96v-18.856a11.288 11.288 0 0 0 0-15.978zM629.127 1137.16c4.655 0 8.443-3.807 8.443-8.482 0-4.654-3.788-8.462-8.443-8.462-4.695 0-8.482 3.808-8.482 8.462 0 4.674 3.787 8.482 8.482 8.482zM307.683 2469.232c-4.417-4.4-11.56-4.4-15.958 0h-18.858c-4.42-4.4-11.56-4.4-15.98 0-4.378 4.418-4.378 11.56 0 15.978v18.858c-4.36 4.396-4.36 11.48 0 15.896 4.38 4.42 11.542 4.458 15.98.062h18.858c4.396 4.396 11.54 4.396 15.958 0 4.42-4.4 4.42-11.54 0-15.96v-18.856a11.286 11.286 0 0 0 0-15.978zM307.683 6137.307c-4.417-4.38-11.56-4.38-15.958 0h-18.858c-4.42-4.357-11.52-4.357-15.9 0-4.42 4.38-4.458 11.54-.08 15.98v18.857c-4.36 4.396-4.36 11.5 0 15.896 4.38 4.42 11.542 4.46 15.98.062h18.858c4.396 4.42 11.54 4.42 15.958 0a11.26 11.26 0 0 0 0-15.957v-18.858a11.288 11.288 0 0 0 0-15.98zM1961.143 6238.938c-4.396-4.396-11.54-4.418-15.96-.04h-18.88c-4.398-4.378-11.5-4.378-15.92 0-4.396 4.38-4.436 11.54-.038 15.96v18.856c-4.358 4.418-4.358 11.522 0 15.92 4.38 4.42 11.54 4.457 15.96.06h18.88c4.398 4.34 11.5 4.34 15.88 0 4.438-4.397 4.457-11.54.078-15.98v-18.854a11.333 11.333 0 0 0 0-15.922zM1961.143 6153.282a11.3 11.3 0 0 0 0-15.897c-4.396-4.42-11.54-4.457-15.96-.078h-18.878c-4.396-4.357-11.5-4.357-15.92 0-4.396 4.38-4.436 11.54-.04 15.98v18.857c-.02.04-.02.04-.06.06-4.377 4.397-4.36 11.562.06 15.96 4.398 4.377 11.563 4.377 15.96-.063h18.88c.02.02.02.06.06.08 4.418 4.38 11.583 4.358 15.98-.08 4.38-4.437 4.338-11.56-.08-15.964v-18.854h-.002zM1837.202 105.297c-4.677 0-8.463 3.768-8.463 8.443 0 4.672 3.792 8.48 8.462 8.48s8.48-3.807 8.48-8.48c.002-4.675-3.806-8.443-8.48-8.443zM1843.592 2367.678h-18.854c-.02-.04-.06-.057-.078-.078-4.42-4.397-11.562-4.357-15.96.078-4.378 4.42-4.36 11.562.08 15.96v18.857c-4.36 4.397-4.36 11.48 0 15.88 4.378 4.436 11.54 4.457 15.958.078h18.854c4.418 4.355 11.52 4.355 15.898 0 4.438-4.378 4.48-11.54.06-15.958v-18.858c.022-.02.04-.04.04-.058a11.244 11.244 0 0 0-.04-15.96 11.265 11.265 0 0 0-15.958.058zM307.683 2367.682c-4.417-4.418-11.56-4.418-15.958 0h-18.858c-4.42-4.38-11.52-4.38-15.9 0-4.42 4.377-4.458 11.52-.08 15.957v18.856c-.02.02-.02.04-.04.06-4.397 4.437-4.378 11.58.04 15.958 4.44 4.4 11.604 4.36 15.98-.06h18.858c4.396 4.397 11.54 4.397 15.958 0 4.42-4.418 4.42-11.56 0-15.958v-18.857c4.42-4.42 4.42-11.56 0-15.958zM1910.286 2402.534c-4.376 4.438-4.358 11.58.062 15.96 4.396 4.395 11.562 4.377 15.957-.04h18.88c4.4 4.353 11.5 4.353 15.88 0 4.438-4.38 4.46-11.54.08-15.96v-18.857c4.357-4.42 4.357-11.5 0-15.896-4.396-4.417-11.54-4.457-15.96-.06h-18.88c-4.396-4.38-11.5-4.38-15.918 0-4.397 4.38-4.438 11.54-.04 15.957v18.858c-.023 0-.023.018-.06.04zM307.683 6238.9c-4.417-4.418-11.56-4.418-15.958 0h-18.858c-4.42-4.354-11.52-4.354-15.9 0-4.42 4.38-4.458 11.54-.08 15.96v18.856c-4.36 4.396-4.36 11.5 0 15.896 4.38 4.418 11.542 4.477 15.98.078h18.858c4.396 4.396 11.54 4.396 15.958 0 4.42-4.418 4.42-11.562 0-15.976v-18.858c4.42-4.415 4.42-11.575 0-15.956zM59.147 1196.42c4.675 0 8.482-3.806 8.482-8.482 0-4.675-3.808-8.463-8.483-8.463-4.655 0-8.462 3.787-8.462 8.463 0 4.674 3.807 8.48 8.462 8.48zM206.11 6238.94c-4.38-4.397-11.54-4.42-15.978-.04h-18.858c-4.38-4.357-11.48-4.357-15.88 0-4.438 4.38-4.458 11.54-.08 15.96v18.853c-.018.02-.038.062-.058.08-4.4 4.396-4.38 11.562.06 15.96 4.418 4.376 11.58 4.355 15.958-.063h18.858c4.42 4.34 11.52 4.34 15.9 0 4.418-4.398 4.477-11.54.08-15.98v-18.854a11.282 11.282 0 0 0 0-15.915zM1961.146 2469.27c-4.42-4.418-11.54-4.438-15.96-.04h-18.878c-4.396-4.396-11.562-4.396-15.96 0a11.282 11.282 0 0 0 0 15.98v18.858c-.02.02-.02.04-.06.04-4.38 4.437-4.36 11.58.06 15.977 4.397 4.377 11.563 4.356 15.96-.062h18.88c4.397 4.357 11.5 4.357 15.878 0 4.438-4.377 4.46-11.54.08-15.96v-18.855c4.38-4.418 4.38-11.542 0-15.938zM206.112 2383.64c4.38-4.42 4.38-11.503 0-15.897-4.38-4.438-11.54-4.457-15.98-.06h-18.857c-.02-.044-.04-.062-.04-.083-4.458-4.377-11.6-4.354-15.98.082-4.398 4.416-4.378 11.562.06 15.957v18.856c-4.36 4.398-4.36 11.503 0 15.88 4.4 4.438 11.54 4.458 15.96.08h18.857c.04.02.06.038.08.058 4.417 4.4 11.558 4.36 15.957-.06 4.38-4.418 4.36-11.58-.058-15.96v-18.855zM155.314 6188.04c4.4 4.418 11.54 4.457 15.96.06h18.857c4.42 4.358 11.522 4.358 15.9 0 4.42-4.396 4.48-11.54.08-15.957v-18.855a11.262 11.262 0 0 0 0-15.9c-4.38-4.42-11.54-4.457-15.98-.078h-18.857c-4.38-4.354-11.48-4.354-15.88 0-4.438 4.38-4.458 11.54-.08 15.98v18.854c-4.358 4.394-4.358 11.5 0 15.896zM206.11 2485.21c4.4-4.42 4.4-11.56 0-15.978-4.418-4.4-11.56-4.4-15.978 0h-18.858c-4.42-4.4-11.54-4.4-15.96 0-4.398 4.418-4.398 11.56 0 15.978v18.858c-4.358 4.396-4.358 11.48 0 15.896 4.4 4.42 11.54 4.458 15.96.062h18.858c.04.02.06.04.08.06 4.417 4.397 11.558 4.38 15.957-.06 4.38-4.42 4.36-11.58-.06-15.96v-18.856zM2597.615 3677.367c4.437-4.396 4.456-11.54.076-15.96-.036-.018-.057-.06-.075-.076v-66.81c4.377-4.44 4.354-11.583-.062-15.98-4.396-4.358-11.48-4.358-15.896 0h-8.582v-26.354c4.38-4.438 4.358-11.58-.077-15.96-4.38-4.353-11.482-4.353-15.882 0h-20.558c-4.438-4.395-11.58-4.353-15.96.063-4.354 4.395-4.354 11.478 0 15.895v109.146c-4.435 4.397-4.454 11.542-.074 15.96 4.396 4.438 11.54 4.46 15.96.08.017-.04.06-.062.074-.08h45.1c4.395 4.437 11.537 4.456 15.957.077zM2749.653 2906.3c-4.656 0-8.463 3.806-8.463 8.482 0 4.674 3.807 8.46 8.463 8.46 4.694 0 8.48-3.786 8.48-8.46 0-4.677-3.785-8.482-8.48-8.482zM2808.555 414.913V305.746c4.4-4.417 4.38-11.58-.078-15.96-4.38-4.357-11.477-4.357-15.855 0h-45.135c-4.38-4.398-11.54-4.398-15.96 0-4.395 4.42-4.395 11.562 0 15.96v66.833c-4.395 4.4-4.395 11.56 0 15.96 4.42 4.416 11.58 4.416 15.96 0h8.58v26.372c-4.418 4.396-4.438 11.52-.078 15.96 4.397 4.42 11.54 4.457 15.978.078.02-.038.06-.062.077-.08h20.574c4.357 4.42 11.5 4.46 15.937.08 4.42-4.4 4.46-11.562.074-15.98a.202.202 0 0 0-.075-.057zM2807.646 2982.562c-4.38-4.44-11.54-4.457-15.96-.062h-20.56c-.018-.04-.055-.06-.075-.08-4.42-4.378-11.56-4.355-15.958.08-4.382 4.418-4.36 11.562.075 15.938v379.48c-4.354 4.395-4.354 11.478 0 15.895 4.38 4.418 11.52 4.457 15.96.062h20.56l.06.062c4.44 4.396 11.583 4.356 15.98-.062 4.38-4.418 4.342-11.58-.08-15.957V2998.44c4.355-4.398 4.355-11.48 0-15.878zM2820.627 3453.14c-4.69 0-8.48 3.786-8.48 8.462s3.784 8.463 8.48 8.463c4.657 0 8.443-3.787 8.443-8.463s-3.787-8.463-8.443-8.463zM2221.05 2246.952a11.334 11.334 0 0 0 15.897 0h8.582v26.354c-4.38 4.418-4.36 11.58.077 15.98 4.398 4.34 11.5 4.34 15.88 0h20.556c4.46 4.378 11.602 4.338 15.98-.08 4.38-4.4 4.38-11.5 0-15.9V2164.14c4.396-4.42 4.38-11.56-.04-15.96-4.417-4.354-11.52-4.354-15.938 0h-45.096c-4.42-4.396-11.558-4.354-15.94.062a11.23 11.23 0 0 0 0 15.896v66.833c-4.4 4.442-4.38 11.583.04 15.982zM2220.928 364.1c4.377 4.437 11.542 4.457 15.938.058.04-.02.06-.04.08-.06h8.58v26.376c-4.38 4.417-4.357 11.56.08 15.958 4.398 4.356 11.5 4.356 15.88 0h20.556c4.402 4.418 11.562 4.457 15.98.062 4.42-4.378 4.458-11.52.06-15.96-.02-.018-.02-.038-.06-.058v-109.17c4.42-4.377 4.458-11.52.06-15.957-4.396-4.42-11.52-4.44-15.958-.06a.253.253 0 0 1-.078.06h-45.102c-4.377-4.42-11.542-4.44-15.938-.06-4.46 4.377-4.477 11.52-.078 15.957.018.02.04.04.078.06v66.834c-4.46 4.38-4.477 11.54-.078 15.96zM2282.104 1540.77c4.44 4.4 11.584 4.358 15.98-.06 4.398-4.418 4.36-11.56-.063-15.958v-109.167a11.24 11.24 0 0 0 0-15.88c-4.378-4.44-11.522-4.458-15.98-.08h-20.554c-4.38-4.36-11.485-4.36-15.88 0-4.44 4.398-4.458 11.54-.08 15.96v26.374h-8.58a11.302 11.302 0 0 0-15.9 0c-4.417 4.378-4.434 11.54-.038 15.958v66.833a11.232 11.232 0 0 0 0 15.9c4.377 4.438 11.52 4.46 15.94.06h45.095c.04.02.06.038.06.06zM2520.64 426.826a11.334 11.334 0 0 0 15.92 0h20.56c4.42 4.378 11.58 4.355 15.96-.08 4.354-4.38 4.354-11.483 0-15.88v-26.374h8.58c4.42 4.418 11.562 4.418 15.96 0 4.418-4.398 4.418-11.56 0-15.958V301.7c4.434-4.378 4.455-11.54.075-15.958-4.396-4.417-11.562-4.457-15.96-.06-.018.02-.057.04-.074.06h-45.1c-4.437-4.4-11.58-4.36-15.958.06-4.356 4.418-4.356 11.5 0 15.898v109.167c-4.38 4.42-4.358 11.56.04 15.96zM2808.553 3665.377v-109.145c4.4-4.44 4.38-11.58-.078-15.96-4.38-4.358-11.477-4.358-15.855 0h-20.574c-4.4-4.437-11.54-4.478-15.98-.08-4.423 4.397-4.437 11.542-.08 15.96.02.018.06.04.08.08v26.354h-8.58c-4.42-4.398-11.563-4.398-15.96.02-4.38 4.42-4.38 11.54 0 15.96v66.81c-4.397 4.42-4.375 11.58.02 15.96 4.4 4.38 11.563 4.38 15.94 0h45.134c4.357 4.438 11.5 4.457 15.938.078 4.42-4.4 4.46-11.54.075-15.96-.018-.015-.04-.056-.08-.077zM2984.383 1485.53c-4.672 0-8.438 3.786-8.438 8.46 0 4.675 3.764 8.463 8.438 8.463a8.46 8.46 0 0 0 8.463-8.463 8.46 8.46 0 0 0-8.463-8.46zM3043.643 2055.488c-4.674 0-8.48 3.806-8.48 8.462 0 4.674 3.804 8.462 8.48 8.462 4.654 0 8.46-3.787 8.46-8.462 0-4.655-3.808-8.462-8.46-8.462zM2986.11 2234.334a8.46 8.46 0 0 0 8.464-8.462 8.462 8.462 0 0 0-8.463-8.463c-4.67 0-8.48 3.788-8.48 8.462 0 4.675 3.808 8.462 8.48 8.462zM3048.81 855.855c0-4.676-3.81-8.48-8.464-8.48-4.69 0-8.48 3.805-8.48 8.48 0 4.675 3.788 8.463 8.48 8.463 4.653 0 8.463-3.788 8.463-8.463zM2989.548 285.896c0-4.673-3.803-8.46-8.48-8.46-4.652 0-8.462 3.785-8.462 8.46s3.81 8.464 8.463 8.464c4.67 0 8.478-3.79 8.478-8.464zM59.147 2022.33c-4.655 0-8.462 3.79-8.462 8.463s3.807 8.482 8.462 8.482c4.675 0 8.482-3.81 8.482-8.482s-3.808-8.462-8.483-8.462zM3040.188 4003.925c0 4.677 3.806 8.463 8.48 8.463a8.46 8.46 0 0 0 8.46-8.463c0-4.653-3.79-8.465-8.46-8.465s-8.48 3.81-8.48 8.465zM2980.947 3433.964c0 4.68 3.785 8.463 8.48 8.463 4.656 0 8.464-3.784 8.464-8.463 0-4.676-3.808-8.463-8.464-8.463-4.692 0-8.48 3.788-8.48 8.464zM3045.352 2804.294c4.67 0 8.482-3.787 8.482-8.462 0-4.67-3.807-8.48-8.482-8.48-4.65 0-8.463 3.81-8.463 8.48 0 4.675 3.808 8.46 8.462 8.462zM1377.275 1627.623c4.656 0 8.464-3.788 8.464-8.463s-3.813-8.462-8.465-8.462c-4.674 0-8.442 3.787-8.442 8.462 0 4.676 3.767 8.463 8.442 8.463zM1947.237 1568.364c4.674 0 8.48-3.788 8.48-8.462 0-4.68-3.806-8.463-8.48-8.463a8.457 8.457 0 0 0-8.464 8.462 8.462 8.462 0 0 0 8.464 8.462zM629.127 2081.59c-4.695 0-8.482 3.786-8.482 8.462 0 4.673 3.787 8.46 8.482 8.46 4.655 0 8.443-3.785 8.443-8.46s-3.788-8.463-8.443-8.463zM1837.202 1384.6c-4.677 0-8.463 3.81-8.463 8.48s3.792 8.464 8.462 8.464 8.48-3.79 8.48-8.463c.002-4.672-3.806-8.48-8.48-8.48zM739.162 1571.678c4.654 0 8.443-3.788 8.443-8.46s-3.79-8.483-8.443-8.483c-4.694 0-8.482 3.81-8.482 8.482s3.787 8.46 8.482 8.46zM59.147 42.727c-4.655 0-8.462 3.785-8.462 8.46 0 4.674 3.807 8.48 8.462 8.48 4.675 0 8.482-3.805 8.482-8.48 0-4.675-3.808-8.46-8.483-8.46zM629.127 101.964a8.48 8.48 0 0 0-8.482 8.48c0 4.676 3.787 8.463 8.482 8.463 4.655 0 8.443-3.786 8.443-8.462 0-4.674-3.788-8.48-8.443-8.48zM169.182 1630.938c4.675 0 8.482-3.808 8.482-8.464 0-4.67-3.807-8.48-8.482-8.48-4.655 0-8.462 3.807-8.462 8.48 0 4.656 3.807 8.464 8.462 8.464zM1267.242 1325.36c-4.676 0-8.443 3.788-8.443 8.46s3.767 8.48 8.442 8.48c4.654 0 8.463-3.806 8.463-8.48s-3.81-8.46-8.463-8.46zM1267.242 46.04c-4.676 0-8.443 3.787-8.443 8.46 0 4.657 3.767 8.463 8.442 8.463 4.654 0 8.463-3.806 8.463-8.462 0-4.67-3.81-8.46-8.463-8.46zM1837.202 2084.904c-4.677 0-8.463 3.787-8.463 8.438 0 4.695 3.792 8.482 8.462 8.482s8.48-3.787 8.48-8.482c.002-4.65-3.806-8.438-8.48-8.438zM59.147 1855.51c-4.655 0-8.462 3.788-8.462 8.462 0 4.68 3.807 8.482 8.462 8.482 4.675 0 8.482-3.805 8.482-8.482 0-4.672-3.808-8.462-8.483-8.462zM1267.242 2025.645c-4.676 0-8.443 3.788-8.443 8.466 0 4.674 3.767 8.48 8.442 8.48 4.654 0 8.463-3.805 8.463-8.48 0-4.677-3.81-8.465-8.463-8.465zM629.127 1381.304c-4.695 0-8.482 3.788-8.482 8.462 0 4.68 3.787 8.463 8.482 8.463 4.655 0 8.443-3.784 8.443-8.464 0-4.673-3.788-8.462-8.443-8.462zM629.127 1796.25c-4.695 0-8.482 3.808-8.482 8.482 0 4.65 3.787 8.463 8.482 8.463 4.655 0 8.443-3.812 8.443-8.463 0-4.675-3.788-8.482-8.443-8.482zM59.147 1322.046c-4.655 0-8.462 3.808-8.462 8.482 0 4.673 3.807 8.462 8.462 8.462 4.675 0 8.482-3.788 8.482-8.462 0-4.674-3.808-8.482-8.483-8.482zM1837.202 1792.957c-4.677 0-8.463 3.788-8.463 8.463s3.792 8.463 8.462 8.463 8.48-3.788 8.48-8.463-3.806-8.463-8.48-8.463zM1267.242 1852.196c-4.676 0-8.443 3.787-8.443 8.46 0 4.695 3.767 8.48 8.442 8.48 4.654 0 8.463-3.78 8.463-8.48 0-4.673-3.81-8.46-8.463-8.46zM629.127 741.645c-4.695 0-8.482 3.786-8.482 8.463s3.787 8.465 8.482 8.465c4.655 0 8.443-3.788 8.443-8.465s-3.788-8.463-8.443-8.463zM2753.012 4280.716c.106-.052.21-.106.32-.153-.11.044-.214.1-.32.153zM2754.482 4280.197c.043-.01.084-.023.127-.03-.044.007-.085.02-.128.03zM2752.463 4281.016c.09-.056.18-.115.273-.166-.093.048-.182.11-.273.166zM2624.083 4807.723v-.002c-1.562 0-3.05.315-4.4.886 1.35-.57 2.838-.883 4.4-.883zM2751.77 4281.493c.135-.104.268-.21.406-.304-.14.094-.274.2-.406.303zM2808.86 4280.052c.07.005.14.004.208.01-.068-.005-.138-.005-.208-.01zM2749.177 4805.697V4286.83v518.867zM2814.498 4283.887zM2810.218 4280.287c.06.018.12.027.18.046-.06-.02-.123-.028-.18-.046zM2624.087 4830.29a11.29 11.29 0 0 0 0 0zM2297.965 3423.564c4.4-4.398 4.457-11.562.06-15.98V3298.44a11.305 11.305 0 0 0 0-15.96c-4.398-4.418-11.56-4.418-15.978 0h-20.557c-4.378-4.418-11.52-4.418-15.938 0-4.398 4.396-4.398 11.54-.02 15.96v26.353h-8.583a11.305 11.305 0 0 0-15.897 0c-4.423 4.396-4.438 11.54-.04 15.96v66.833a11.25 11.25 0 0 0 0 15.896c4.378 4.42 11.5 4.457 15.94.078h45.095a11.318 11.318 0 0 0 15.917.004zM2333.807 5172.777c-4.38-4.398-11.54-4.418-15.98-.04-.02 0-.02.04-.038.04h-21.147v-20.713c0-6.234-5.045-11.283-11.28-11.283s-11.267 5.052-11.267 11.284v435.918c0 6.215 5.035 11.278 11.266 11.278 6.23 0 11.28-5.065 11.28-11.278v-20.713h21.147c4.416 4.376 11.558 4.335 15.937-.105 4.38-4.396 4.38-11.5.004-15.878v-362.533c4.418-4.377 4.473-11.518.077-15.977zM2534.482 5551.288v-362.533c4.38-4.418 4.342-11.582-.076-15.98-4.42-4.34-11.502-4.34-15.9 0h-21.104v-20.712c-.158-6.19-5.312-11.164-11.54-11.047-6.038.158-10.91 5.014-11.05 11.047v435.918c.14 6.216 5.283 11.167 11.54 11.048 6.036-.154 10.892-5.012 11.05-11.047v-20.712h21.104c4.376 4.42 11.54 4.438 15.98.04 4.395-4.38 4.458-11.52.057-15.94a.27.27 0 0 0-.06-.08zM2469.168 5634.97c-4.674 0-8.46 3.81-8.46 8.462a8.46 8.46 0 0 0 8.46 8.463c4.676 0 8.485-3.787 8.482-8.463 0-4.655-3.806-8.463-8.482-8.463zM2339.39 5088.148c-4.69 0-8.48 3.79-8.48 8.463 0 4.677 3.785 8.464 8.48 8.464 4.653 0 8.462-3.787 8.462-8.463 0-4.672-3.81-8.462-8.463-8.462zM2268.413 5634.97c-4.653 0-8.463 3.81-8.463 8.462 0 4.676 3.81 8.463 8.463 8.463 4.694 0 8.48-3.787 8.48-8.463.002-4.655-3.786-8.463-8.48-8.463zM2540.107 5088.148c-4.655 0-8.463 3.79-8.463 8.463 0 4.677 3.808 8.464 8.463 8.464 4.675 0 8.48-3.787 8.48-8.463 0-4.672-3.805-8.462-8.48-8.462z"/><path fill="#AF7F2D" stroke="#030303" stroke-width=".25" d="M2565.492 5059.916h-121.73c-6.218 0-11.27 5.068-11.27 11.31v597.613c0 6.228 5.052 11.266 11.27 11.266h121.73c6.257-.002 11.305-5.03 11.305-11.267v-597.616c0-6.232-5.05-11.308-11.305-11.308zm-96.324 591.98a8.46 8.46 0 0 1-8.46-8.464c0-4.652 3.786-8.463 8.46-8.463 4.676 0 8.482 3.81 8.482 8.462.003 4.675-3.806 8.463-8.482 8.463zm65.317-84.59c-4.438 4.398-11.604 4.382-15.98-.038h-21.103v20.713c-.158 6.036-5.014 10.894-11.05 11.048-6.255.12-11.4-4.832-11.54-11.047v-435.917c.14-6.035 5.012-10.89 11.05-11.047 6.228-.117 11.382 4.854 11.54 11.047v20.713h21.104c4.398-4.34 11.48-4.34 15.9 0 4.418 4.397 4.457 11.562.076 15.98v362.532c.02.02.04.04.06.08 4.402 4.42 4.34 11.56-.057 15.94zm5.622-462.232c-4.655 0-8.463-3.787-8.463-8.463 0-4.673 3.808-8.462 8.463-8.462 4.675 0 8.48 3.79 8.48 8.463 0 4.677-3.805 8.464-8.48 8.464zM2364.754 5059.916h-121.712v.003c-6.23.02-11.302 5.064-11.302 11.305v597.614c0 6.228 5.07 11.266 11.303 11.266H2364.776c6.216 0 11.28-5.027 11.28-11.267v-597.616c.003-6.232-5.064-11.308-11.302-11.308zm-96.34 591.98c-4.655 0-8.464-3.788-8.464-8.464 0-4.652 3.81-8.463 8.463-8.463 4.695 0 8.48 3.81 8.48 8.462.002 4.675-3.786 8.463-8.48 8.463zm65.313-84.73c-4.38 4.44-11.52 4.48-15.938.104h-21.147v20.713c0 6.213-5.053 11.28-11.28 11.28-6.23 0-11.267-5.065-11.267-11.28v-435.918c0-6.23 5.027-11.283 11.268-11.283 6.234 0 11.28 5.05 11.28 11.283v20.713h21.145c.02 0 .02-.04.038-.04 4.438-4.378 11.6-4.356 15.98.04 4.395 4.46 4.343 11.602-.075 15.98v362.532c4.374 4.377 4.374 11.48-.006 15.877zm5.662-462.092c-4.694 0-8.48-3.787-8.48-8.463 0-4.673 3.787-8.462 8.48-8.462 4.653 0 8.462 3.79 8.462 8.463 0 4.677-3.81 8.464-8.463 8.464zM3050.277 5391.193l-17.95-17.975c-4.42-4.396-4.42-11.54 0-15.96 4.418-4.417 11.562-4.417 15.96 0l63.853-63.833-24.618-24.62c-6.252 0-11.304-5.065-11.304-11.278.002-6.24 5.054-11.29 11.304-11.29l24.618-24.64-63.854-63.855c-4.397 4.46-11.52 4.46-15.96.078-4.42-4.38-4.458-11.54-.08-15.938.04-.062.063-.062.08-.12l17.95-17.95-69.83-69.832-51.395 51.408a8.54 8.54 0 0 0-2.464 5.98v292.288c0 2.23.89 4.38 2.465 5.98l51.395 51.39 69.832-69.833zM2681.02 5268.805l-24.64 24.617 63.855 63.836c4.396-4.42 11.56-4.42 15.98 0 4.378 4.418 4.378 11.562 0 15.96l-17.976 17.974 69.83 69.832 51.37-51.393a8.408 8.408 0 0 0 2.506-5.976v-292.287a8.4 8.4 0 0 0-2.507-5.98l-51.367-51.404-69.832 69.832 17.976 17.95c4.396 4.397 4.438 11.563.04 15.98-4.38 4.46-11.503 4.46-15.96.08a.295.295 0 0 1-.06-.08l-63.855 63.854 24.64 24.64c6.22 0 11.27 5.05 11.27 11.283-.003 6.213-5.054 11.282-11.27 11.282zM3098.984 5684.15l24.64-24.642-63.835-63.854c-4.397 4.46-11.54 4.46-15.96.078-4.438-4.38-4.457-11.54-.078-15.938.04-.062.062-.062.078-.12l17.95-17.95-69.83-69.832-51.39 51.408a8.434 8.434 0 0 0-2.484 5.98v292.288c0 2.23.89 4.38 2.484 5.98l51.39 51.39 69.83-69.833-17.95-17.974c-4.418-4.395-4.418-11.538 0-15.958 4.398-4.418 11.54-4.418 15.96 0l63.835-63.834-24.64-24.62c-6.194 0-11.27-5.066-11.27-11.28.005-6.24 5.074-11.288 11.27-11.288zM2799.576 5491.895l-69.832 69.832 17.95 17.95c4.44 4.397 4.458 11.563.075 15.98-4.397 4.46-11.563 4.46-15.96.08-.02-.02-.06-.04-.074-.08l-63.836 63.854 24.6 24.64c6.232 0 11.305 5.052 11.305 11.284 0 6.215-5.068 11.283-11.305 11.283l-24.6 24.617 63.836 63.875c4.396-4.46 11.54-4.5 15.96-.118 4.437 4.397 4.456 11.562.07 15.98-.038.04-.058.06-.07.08l-17.952 17.95 69.832 69.832 51.39-51.393a8.615 8.615 0 0 0 2.483-5.978v-292.287a8.636 8.636 0 0 0-2.485-5.98l-51.39-51.4zM2110.69 2212.49H5.766c-3.117 0-5.642 2.504-5.642 5.622v4221.104c0 3.103 2.525 5.646 5.642 5.646H2110.69c3.098 0 5.643-2.545 5.622-5.646V2218.112a5.62 5.62 0 0 0-5.623-5.622zm-149.624 307.533c-4.38 4.356-11.48 4.356-15.88 0h-18.878c-4.396 4.418-11.562 4.438-15.96.06-4.423-4.395-4.44-11.537-.06-15.976.038 0 .038-.02.06-.04v-18.858a11.282 11.282 0 0 1 0-15.98c4.397-4.4 11.563-4.4 15.96 0h18.88c4.417-4.4 11.538-4.38 15.958.04 4.38 4.395 4.38 11.52 0 15.937v18.857c4.38 4.418 4.358 11.582-.08 15.96zm-50.68-152.345c4.42-4.378 11.522-4.378 15.92 0h18.88c4.418-4.396 11.562-4.354 15.96.062 4.356 4.396 4.356 11.48 0 15.896v18.858c4.378 4.418 4.356 11.58-.08 15.958-4.38 4.354-11.48 4.354-15.88 0h-18.88c-4.397 4.418-11.562 4.438-15.958.04-4.42-4.38-4.438-11.52-.062-15.96.038-.02.038-.04.062-.04v-18.857c-4.4-4.417-4.36-11.576.04-15.957zM206.033 6289.693c-4.38 4.34-11.48 4.34-15.9 0h-18.858c-4.38 4.42-11.54 4.438-15.96.062-4.437-4.397-4.457-11.562-.058-15.96.02-.02.04-.06.06-.08v-18.855c-4.38-4.418-4.36-11.578.078-15.96 4.4-4.354 11.5-4.354 15.88 0h18.858c4.438-4.378 11.6-4.354 15.98.042a11.286 11.286 0 0 1 0 15.918v18.856c4.397 4.438 4.338 11.578-.08 15.977zm-50.64-152.388c4.4-4.354 11.5-4.354 15.88 0h18.86c4.437-4.38 11.598-4.342 15.978.078a11.265 11.265 0 0 1 0 15.902v18.857c4.4 4.418 4.34 11.56-.08 15.957-4.378 4.355-11.48 4.355-15.9 0h-18.857c-4.42 4.395-11.56 4.355-15.96-.063-4.358-4.396-4.358-11.502 0-15.896v-18.856c-4.378-4.438-4.358-11.6.08-15.98zm50.777-3617.278c-4.4 4.438-11.54 4.458-15.96.06-.02-.02-.04-.04-.078-.06h-18.858c-4.42 4.396-11.56 4.355-15.96-.062-4.358-4.418-4.358-11.5 0-15.896v-18.86c-4.398-4.418-4.398-11.56 0-15.978 4.42-4.4 11.54-4.4 15.96 0h18.858c4.42-4.4 11.56-4.4 15.98 0 4.398 4.418 4.398 11.56 0 15.978v18.86c4.417 4.377 4.437 11.537.057 15.957zm0-101.572c-4.4 4.418-11.54 4.458-15.96.06a.283.283 0 0 0-.078-.06h-18.858c-4.42 4.38-11.56 4.36-15.96-.08-4.358-4.376-4.358-11.478 0-15.88v-18.856c-4.437-4.397-4.457-11.542-.058-15.958 4.38-4.438 11.52-4.46 15.98-.082 0 .02.02.04.04.082h18.857c4.438-4.396 11.6-4.38 15.98.06 4.378 4.397 4.378 11.48 0 15.897v18.855c4.416 4.38 4.436 11.54.056 15.96zm101.513 3871.238c-4.417 4.396-11.562 4.396-15.958 0h-18.858c-4.438 4.396-11.6 4.34-15.98-.078-4.36-4.396-4.36-11.5 0-15.896v-18.86c-4.378-4.418-4.34-11.578.08-15.96 4.38-4.353 11.48-4.353 15.9 0h18.858c4.4-4.417 11.54-4.417 15.958 0 4.42 4.382 4.42 11.542 0 15.96v18.86c4.42 4.412 4.42 11.555 0 15.973zm0-101.59c-4.417 4.42-11.562 4.42-15.958 0h-18.858c-4.438 4.396-11.6 4.357-15.98-.063-4.36-4.396-4.36-11.5 0-15.896v-18.86c-4.378-4.437-4.34-11.6.08-15.978 4.38-4.36 11.48-4.36 15.9 0h18.858c4.4-4.38 11.54-4.38 15.958 0a11.287 11.287 0 0 1 0 15.98v18.858a11.262 11.262 0 0 1 0 15.958zm0-3668.076c-4.417 4.396-11.562 4.396-15.958 0h-18.858c-4.438 4.396-11.6 4.355-15.98-.062-4.36-4.418-4.36-11.5 0-15.896v-18.86c-4.378-4.418-4.378-11.56 0-15.978 4.42-4.4 11.563-4.4 15.98 0h18.858c4.4-4.4 11.54-4.4 15.958 0a11.286 11.286 0 0 1 0 15.978v18.86c4.42 4.417 4.42 11.557 0 15.957zm0-101.572c-4.417 4.398-11.562 4.398-15.958 0h-18.858c-4.38 4.418-11.54 4.458-15.98.06-4.418-4.38-4.437-11.522-.04-15.96.02-.02.02-.04.04-.06v-18.856c-4.378-4.44-4.34-11.58.08-15.958 4.38-4.38 11.48-4.38 15.9 0h18.858c4.4-4.418 11.54-4.418 15.958 0 4.42 4.397 4.42 11.54 0 15.957v18.856c4.42 4.4 4.42 11.54 0 15.96zm1551.81 101.572c-4.38 4.38-11.48 4.38-15.897 0h-18.854c-4.418 4.396-11.58 4.355-15.96-.062-4.358-4.418-4.358-11.5 0-15.896v-18.86c-4.417-4.396-4.417-11.56-.02-15.978 4.396-4.4 11.54-4.418 15.96 0h18.874c4.42-4.4 11.562-4.4 15.96 0a11.288 11.288 0 0 1 0 15.978v18.86c4.413 4.417 4.374 11.557-.063 15.957zm.097 3769.666c-4.38 4.42-11.52 4.438-15.938.062 0-.04-.04-.062-.062-.062h-18.855c-4.418 4.396-11.578 4.34-15.96-.078-4.356-4.396-4.356-11.5 0-15.896v-18.86c-4.38-4.418-4.356-11.578.08-15.96 4.38-4.353 11.478-4.353 15.88 0h18.855c4.396-4.437 11.54-4.437 15.96-.038 4.438 4.38 4.458 11.52.038 15.94 0 .038-.02.038-.04.058v18.86c4.443 4.393 4.462 11.533.042 15.973zm0-101.59c-4.38 4.437-11.52 4.437-15.938.06l-.062-.06h-18.855c-4.418 4.396-11.578 4.357-15.96-.08-4.356-4.378-4.356-11.478 0-15.878v-18.855c-4.38-4.438-4.356-11.604.08-15.98 4.38-4.34 11.478-4.34 15.88 0h18.855c4.396-4.417 11.54-4.437 15.96-.038 4.438 4.38 4.458 11.52.038 15.98l-.04.038v18.855a11.24 11.24 0 0 1 .042 15.957zm0-3804.524c0 .018-.02.038-.04.057v18.858c4.42 4.418 4.38 11.58-.06 15.958-4.38 4.357-11.48 4.357-15.898 0h-18.854c-4.418 4.38-11.58 4.357-15.96-.08-4.358-4.396-4.358-11.478 0-15.878v-18.858c-4.437-4.396-4.456-11.54-.077-15.96 4.397-4.437 11.54-4.477 15.96-.075.02.02.06.04.078.076h18.854a11.265 11.265 0 0 1 15.96-.06c4.44 4.4 4.458 11.54.038 15.96zm101.474 3906.113c-4.38 4.34-11.48 4.34-15.88 0H1926.3c-4.417 4.396-11.576 4.358-15.958-.062-4.356-4.395-4.356-11.5 0-15.92v-18.853c-4.396-4.42-4.356-11.58.04-15.96 4.42-4.378 11.52-4.378 15.92 0h18.88c4.42-4.378 11.563-4.356 15.96.04a11.334 11.334 0 0 1 0 15.92v18.854c4.38 4.444 4.36 11.584-.078 15.983zm.16-101.59c-4.397 4.437-11.563 4.458-15.98.08-.04-.022-.04-.063-.06-.08H1926.3c-4.396 4.437-11.562 4.437-15.96.06-4.42-4.395-4.437-11.56-.06-15.958.037-.02.037-.02.06-.06v-18.858c-4.395-4.438-4.354-11.602.04-15.98 4.42-4.357 11.52-4.357 15.92 0h18.88c4.42-4.378 11.563-4.34 15.96.08a11.303 11.303 0 0 1 0 15.895v18.854c4.42 4.406 4.46 11.528.08 15.966zM2359.254 3637.994h-68.688c-4.418 4.38-11.562 4.355-15.96-.062-4.358-4.42-4.358-11.5 0-15.896v-18.88c-4.437-4.378-4.456-11.52-.077-15.978 4.395-4.396 11.538-4.418 15.958-.04.02.022.04.04.078.04h68.688V1984.53h-68.688c-4.398 4.44-11.54 4.46-15.96.06-4.417-4.395-4.437-11.52-.06-15.957.04-.02.04-.04.06-.06v-18.857a11.265 11.265 0 0 1 .08-15.96c4.38-4.357 11.48-4.357 15.88 0h68.688v-50.796H2189.96v1805.81h169.294v-50.776zM2221.01 2148.242c4.383-4.42 11.52-4.458 15.94-.062h45.095c4.418-4.354 11.52-4.354 15.94 0 4.417 4.4 4.437 11.54.038 15.96v109.166c4.38 4.4 4.38 11.5 0 15.9-4.38 4.418-11.52 4.458-15.98.08h-20.555c-4.38 4.34-11.48 4.34-15.88 0-4.44-4.4-4.458-11.563-.08-15.98v-26.354h-8.58a11.334 11.334 0 0 1-15.9 0c-4.417-4.4-4.437-11.54-.038-15.98v-66.832a11.23 11.23 0 0 1 0-15.898zm.002 1275.244c-4.383-4.398-4.383-11.502 0-15.898v-66.834c-4.396-4.42-4.383-11.56.04-15.96a11.305 11.305 0 0 1 15.895 0h8.582v-26.353c-4.38-4.417-4.38-11.56.02-15.958 4.418-4.418 11.562-4.418 15.938 0h20.557c4.418-4.418 11.58-4.418 15.98 0a11.305 11.305 0 0 1 0 15.96v109.145c4.397 4.416 4.342 11.58-.06 15.98a11.33 11.33 0 0 1-15.92 0h-45.096c-4.438 4.376-11.56 4.34-15.938-.08zM2359.256 1755.16h-68.688c-4.418 4.38-11.562 4.34-15.96-.08-4.358-4.398-4.358-11.5 0-15.898v-18.854c-4.437-4.378-4.456-11.54-.077-15.958a11.265 11.265 0 0 1 15.96-.062c.02.02.04.04.078.062h68.688V101.698h-68.688c-4.398 4.42-11.54 4.458-15.96.08-4.437-4.4-4.456-11.54-.077-15.98.022-.02.062-.04.08-.06V66.86c-4.44-4.378-4.458-11.52-.08-15.956 4.4-4.42 11.54-4.46 15.978-.062 0 .02.02.04.062.06h68.688V.124h-169.295v1805.81h169.293v-50.775zM2220.928 281.247c-4.396-4.436-4.38-11.58.078-15.958 4.396-4.38 11.56-4.36 15.938.06h45.104c.04-.022.062-.04.078-.06 4.438-4.38 11.562-4.36 15.96.06 4.395 4.437 4.354 11.58-.063 15.957v109.167c.04.02.04.04.062.06 4.396 4.437 4.355 11.58-.062 15.958-4.418 4.396-11.574 4.355-15.98-.062h-20.558c-4.38 4.356-11.48 4.356-15.88 0-4.437-4.396-4.458-11.54-.08-15.958v-26.375h-8.58c-.02.02-.038.04-.08.06-4.395 4.398-11.56 4.378-15.937-.06-4.398-4.418-4.38-11.58.078-15.958v-66.835a.197.197 0 0 1-.078-.058zm.08 1259.403a11.232 11.232 0 0 1 0-15.9v-66.832c-4.396-4.42-4.38-11.58.04-15.96a11.3 11.3 0 0 1 15.897 0h8.582v-26.374c-4.38-4.418-4.36-11.56.078-15.958 4.396-4.36 11.5-4.36 15.88 0h20.556c4.458-4.38 11.603-4.36 15.98.08a11.24 11.24 0 0 1 0 15.88v109.166c4.424 4.4 4.462 11.54.063 15.96-4.396 4.416-11.54 4.457-15.98.058 0-.02-.02-.037-.06-.06h-45.096c-4.42 4.4-11.562 4.38-15.94-.06zM2628.665 3891.738h-68.688c-4.42 4.418-11.562 4.396-15.98-.02-4.378-4.382-4.378-11.542 0-15.94V3856.9c-4.378-4.398-4.378-11.54.04-15.96 4.398-4.378 11.52-4.378 15.938 0h68.688V122.09h-68.688c-4.418 4.4-11.562 4.4-15.98 0-4.378-4.418-4.378-11.56 0-15.958V87.274c-4.378-4.418-4.378-11.562 0-15.98 4.42-4.396 11.563-4.396 15.98 0h68.688V20.52H2459.37v3922.013h169.293l.002-50.795zM2520.602 285.8c4.38-4.417 11.52-4.457 15.96-.058h45.1c.02-.02.058-.04.074-.06 4.396-4.397 11.562-4.357 15.96.06 4.378 4.42 4.355 11.58-.076 15.96v66.832c4.418 4.398 4.418 11.56 0 15.958-4.398 4.418-11.54 4.418-15.96 0h-8.58v26.374c4.354 4.396 4.354 11.5 0 15.88-4.38 4.438-11.54 4.458-15.96.08h-20.56a11.334 11.334 0 0 1-15.92 0c-4.395-4.4-4.417-11.54-.038-15.96V301.7c-4.36-4.398-4.36-11.48 0-15.9zm15.88 3391.57c-4.42 4.378-11.562 4.353-15.96-.08-4.378-4.42-4.357-11.563.076-15.96v-109.146c-4.355-4.418-4.355-11.5 0-15.896 4.38-4.418 11.52-4.46 15.96-.062h20.557c4.396-4.354 11.502-4.354 15.882 0 4.438 4.38 4.457 11.52.077 15.96v26.354h8.582c4.418-4.36 11.5-4.36 15.896 0 4.418 4.396 4.438 11.54.062 15.98v66.81c.02.02.04.062.076.078 4.38 4.42 4.36 11.562-.076 15.96-4.42 4.378-11.562 4.356-15.96-.078h-45.097c-.015.02-.057.04-.075.08zM2869.788 24.563h-169.293v50.775h68.688c4.38-4.42 11.54-4.438 15.96-.06 4.437 4.398 4.458 11.522.058 15.98-.02 0-.038.02-.058.06v18.858c4.396 4.398 4.396 11.54 0 15.958a11.3 11.3 0 0 1-15.96 0h-68.687v3718.854h68.688c4.42-4.38 11.56-4.36 15.96.08 4.353 4.38 4.353 11.48 0 15.88v18.878c4.378 4.418 4.353 11.58-.08 15.96-4.4 4.355-11.5 4.355-15.88 0h-68.688v50.794h169.293V24.563zm-61.233 3656.85c-4.438 4.38-11.578 4.36-15.938-.077h-45.135c-4.38 4.38-11.54 4.38-15.938 0-4.396-4.38-4.418-11.54-.02-15.96v-66.81c-4.38-4.42-4.38-11.54 0-15.96 4.395-4.42 11.54-4.42 15.958-.02h8.582v-26.354c-.02-.04-.062-.062-.08-.08-4.357-4.418-4.344-11.562.08-15.96 4.438-4.395 11.574-4.356 15.98.08h20.573c4.38-4.358 11.48-4.358 15.855 0 4.46 4.38 4.48 11.52.078 15.96v109.145c.04.02.062.062.078.078 4.386 4.42 4.347 11.56-.073 15.96zm-.828-287.535c-4.396 4.42-11.54 4.46-15.98.062l-.06-.062h-20.56c-4.44 4.396-11.58 4.356-15.96-.062-4.354-4.418-4.354-11.5 0-15.896v-379.48c-4.438-4.378-4.457-11.52-.075-15.938 4.396-4.438 11.54-4.458 15.96-.08.02.022.06.04.074.08h20.56c4.42-4.396 11.58-4.38 15.96.06 4.354 4.398 4.354 11.48 0 15.885v379.477c4.42 4.374 4.46 11.536.08 15.954zm-58.074-470.635c-4.656 0-8.463-3.787-8.463-8.46 0-4.678 3.807-8.483 8.463-8.483 4.694 0 8.48 3.806 8.48 8.482 0 4.674-3.785 8.46-8.48 8.46zm58.902-2492.293c-4.438 4.38-11.578 4.34-15.938-.08h-20.574c-.02.02-.06.042-.078.08-4.438 4.38-11.578 4.34-15.98-.08-4.356-4.437-4.34-11.56.08-15.958V388.54h-8.58c-4.38 4.416-11.542 4.416-15.96 0-4.396-4.4-4.396-11.56 0-15.96v-66.834c-4.396-4.398-4.396-11.54 0-15.96 4.418-4.398 11.58-4.398 15.96 0h45.134c4.38-4.357 11.478-4.357 15.854 0 4.46 4.38 4.48 11.543.078 15.96v109.167c.04.02.062.04.076.06 4.386 4.417 4.347 11.578-.073 15.977zm12.072 3039.114c-4.693 0-8.48-3.787-8.48-8.463s3.788-8.462 8.48-8.462c4.656 0 8.443 3.787 8.443 8.463s-3.786 8.464-8.443 8.464zM2941.216 4055.906h152.367V2173.893h-152.367v1882.013zm115.912-51.98a8.46 8.46 0 0 1-8.46 8.462c-4.677 0-8.48-3.787-8.48-8.463 0-4.653 3.81-8.465 8.48-8.465s8.46 3.81 8.46 8.465zm-11.776-1216.574c4.678 0 8.482 3.812 8.482 8.48 0 4.675-3.812 8.462-8.482 8.462-4.65 0-8.463-3.787-8.463-8.462 0-4.674 3.81-8.48 8.462-8.48zm-47.46 646.612c0 4.68-3.81 8.463-8.466 8.463-4.693 0-8.48-3.784-8.48-8.463 0-4.676 3.788-8.463 8.48-8.463 4.656 0 8.465 3.788 8.465 8.464zm-11.78-1216.555a8.462 8.462 0 0 1 8.462 8.462 8.46 8.46 0 0 1-8.463 8.462c-4.673 0-8.48-3.787-8.48-8.462 0-4.674 3.81-8.463 8.48-8.463zM1999.215 1015.588v-152.37H117.223v152.37h1881.992zm-51.978-115.93c4.674 0 8.48 3.787 8.48 8.438.002 4.693-3.806 8.48-8.48 8.48-4.677 0-8.464-3.788-8.464-8.48 0-4.65 3.788-8.438 8.464-8.438zm-569.962 59.255c4.654 0 8.464 3.788 8.464 8.463s-3.81 8.462-8.465 8.462c-4.676 0-8.442-3.787-8.442-8.462s3.77-8.463 8.442-8.463zM739.162 902.97c4.654 0 8.443 3.787 8.443 8.46-.002 4.678-3.79 8.465-8.443 8.465-4.695 0-8.482-3.787-8.482-8.465 0-4.674 3.788-8.46 8.482-8.46zm-569.98 59.238c4.675 0 8.482 3.806 8.482 8.462 0 4.674-3.807 8.482-8.482 8.482-4.655 0-8.462-3.812-8.462-8.482 0-4.656 3.807-8.462 8.462-8.462zM1999.215 1667.352v-152.348H117.223v152.348h1881.992zm-51.978-115.913c4.674 0 8.48 3.78 8.48 8.462.002 4.674-3.806 8.462-8.48 8.462a8.462 8.462 0 0 1-8.464-8.462 8.46 8.46 0 0 1 8.464-8.463zm-569.962 59.258c4.654 0 8.464 3.787 8.464 8.462s-3.81 8.463-8.465 8.463c-4.676 0-8.442-3.787-8.442-8.463 0-4.675 3.77-8.462 8.442-8.462zm-638.113-55.964c4.654 0 8.443 3.81 8.443 8.48s-3.79 8.46-8.443 8.46c-4.695 0-8.482-3.787-8.482-8.46s3.788-8.48 8.482-8.48zm-569.98 59.26c4.675 0 8.482 3.81 8.482 8.48 0 4.655-3.807 8.464-8.482 8.464-4.655 0-8.462-3.81-8.462-8.465 0-4.673 3.807-8.48 8.462-8.48zM1999.215 375.908v-152.35H117.223v152.35h1881.992zm-51.978-115.932c4.674 0 8.48 3.807 8.48 8.48 0 4.676-3.806 8.462-8.48 8.462-4.677 0-8.464-3.788-8.464-8.462s3.788-8.48 8.464-8.48zm-569.962 59.257c4.654 0 8.464 3.808 8.464 8.483 0 4.655-3.81 8.46-8.465 8.46-4.676 0-8.442-3.805-8.442-8.46 0-4.677 3.77-8.483 8.442-8.483zM739.162 263.31a8.442 8.442 0 0 1 8.443 8.442c-.002 4.673-3.79 8.48-8.443 8.48-4.695 0-8.482-3.808-8.482-8.48 0-4.675 3.788-8.443 8.482-8.443zm-569.98 59.238c4.675 0 8.482 3.786 8.482 8.46 0 4.675-3.807 8.463-8.482 8.463-4.655 0-8.462-3.787-8.462-8.46 0-4.676 3.807-8.462 8.462-8.462zM3088.54 13.847h-50.774v204.11c4.358 4.4 4.358 11.5 0 15.9-4.396 4.418-11.562 4.457-15.96.058h-18.876c-.02.02-.04.04-.062.08-4.42 4.378-11.58 4.36-15.96-.08-4.378-4.418-4.357-11.56.04-15.958V13.847h-50.756V2115.93h152.35l-.002-2102.083zm-115.935 272.05c0-4.676 3.81-8.462 8.463-8.462 4.677 0 8.48 3.788 8.48 8.46 0 4.676-3.808 8.465-8.48 8.465-4.653 0-8.463-3.79-8.463-8.464zm11.778 1216.556c-4.676 0-8.438-3.788-8.438-8.463 0-4.674 3.768-8.46 8.438-8.46a8.46 8.46 0 0 1 8.463 8.46 8.46 8.46 0 0 1-8.463 8.463zm47.483-646.598a8.478 8.478 0 0 1 8.48-8.48c4.653 0 8.462 3.807 8.462 8.48 0 4.675-3.81 8.463-8.463 8.463-4.692 0-8.48-3.787-8.48-8.463zm11.777 1216.557c-4.678 0-8.48-3.788-8.48-8.462 0-4.656 3.808-8.462 8.48-8.462 4.652 0 8.46 3.807 8.46 8.462 0 4.675-3.806 8.462-8.46 8.462zM1905.124 1807.3h204.13v-50.796H7.187v152.386H2109.25v-50.796h-204.13c-4.38 4.36-11.48 4.36-15.897 0-4.418-4.396-4.438-11.54-.037-15.958v-18.878a.28.28 0 0 1-.08-.06c-4.38-4.416-4.34-11.58.08-15.978 4.438-4.38 11.56-4.34 15.938.08zM59.147 1872.454c-4.655 0-8.462-3.806-8.462-8.482 0-4.674 3.807-8.462 8.462-8.462 4.675 0 8.482 3.79 8.482 8.462 0 4.677-3.808 8.482-8.483 8.482zm569.98-59.26c-4.695 0-8.482-3.81-8.482-8.462a8.48 8.48 0 0 1 8.482-8.482c4.655 0 8.443 3.807 8.443 8.482 0 4.654-3.788 8.463-8.443 8.463zm638.115 55.943c-4.676 0-8.443-3.785-8.443-8.48 0-4.673 3.767-8.46 8.442-8.46 4.654 0 8.463 3.787 8.463 8.46 0 4.697-3.81 8.48-8.463 8.48zm569.96-59.254c-4.67 0-8.463-3.788-8.463-8.463s3.785-8.463 8.462-8.463c4.674 0 8.48 3.788 8.48 8.463s-3.81 8.463-8.48 8.463zM2109.25 1232.834v-50.776h-204.13c-.02.02-.04.04-.04.062-4.437 4.396-11.6 4.355-15.978-.062-4.38-4.437-4.34-11.58.08-15.96v-18.877a.263.263 0 0 1-.08-.06c-4.38-4.437-4.34-11.577.08-15.978 4.438-4.38 11.562-4.34 15.938.08h204.13v-50.797H7.188v152.37H2109.25zm-272.048-115.912c4.674 0 8.48 3.788 8.48 8.463 0 4.676-3.81 8.462-8.48 8.462a8.463 8.463 0 0 1 0-16.925zm-569.96 59.24c4.654 0 8.463 3.788 8.463 8.46 0 4.696-3.81 8.464-8.463 8.464a8.43 8.43 0 0 1-8.443-8.463c0-4.675 3.766-8.462 8.442-8.462zm-638.115-55.946c4.655 0 8.443 3.808 8.443 8.462 0 4.676-3.788 8.482-8.443 8.482-4.695 0-8.482-3.81-8.482-8.482 0-4.655 3.787-8.462 8.482-8.462zm-569.98 59.26c4.675 0 8.482 3.787 8.482 8.462 0 4.68-3.808 8.48-8.483 8.48-4.655 0-8.462-3.806-8.462-8.48 0-4.676 3.807-8.463 8.462-8.463zM2109.25 518.15h-204.13c-4.38 4.354-11.48 4.354-15.857 0-4.46-4.4-4.48-11.54-.08-15.98v-18.855a.226.226 0 0 1-.077-.062c-4.38-4.418-4.34-11.58.078-15.958 4.438-4.396 11.562-4.378 15.938.06h204.13v-50.797H7.187v152.367H2109.25V518.15zM59.147 532.49c-4.655 0-8.462-3.788-8.462-8.462 0-4.675 3.807-8.464 8.462-8.464 4.675 0 8.482 3.79 8.482 8.464s-3.808 8.462-8.483 8.462zm569.98-59.258c-4.695 0-8.482-3.788-8.482-8.467 0-4.674 3.787-8.462 8.482-8.462 4.655 0 8.443 3.79 8.443 8.462 0 4.68-3.788 8.467-8.443 8.467zm638.115 55.963c-4.676 0-8.443-3.812-8.443-8.482s3.767-8.463 8.442-8.463c4.654 0 8.463 3.79 8.463 8.463s-3.81 8.482-8.463 8.482zm569.96-59.26c-4.67 0-8.463-3.808-8.463-8.463 0-4.672 3.785-8.48 8.462-8.48 4.674 0 8.48 3.81 8.48 8.48.002 4.655-3.81 8.462-8.48 8.462zM1905.122 2036.69h204.13v-50.794H7.187v152.364H2109.25v-50.774h-204.13c-4.38 4.357-11.48 4.357-15.857 0a11.242 11.242 0 0 1-.08-15.957v-18.88c-4.38-4.396-4.38-11.5 0-15.88 4.38-4.437 11.542-4.458 15.94-.08zm-1845.975 2.585c-4.655 0-8.462-3.812-8.462-8.482s3.807-8.462 8.462-8.462c4.675 0 8.482 3.79 8.482 8.463 0 4.676-3.808 8.482-8.483 8.482zm569.98 59.238c-4.695 0-8.482-3.788-8.482-8.46 0-4.677 3.787-8.464 8.482-8.464 4.655 0 8.443 3.787 8.443 8.462s-3.788 8.46-8.443 8.46zm638.115-55.926c-4.676 0-8.443-3.806-8.443-8.48 0-4.677 3.767-8.463 8.442-8.463 4.654 0 8.463 3.786 8.463 8.464 0 4.674-3.81 8.48-8.463 8.48zm569.96 59.24c-4.67 0-8.463-3.787-8.463-8.482 0-4.653 3.785-8.438 8.462-8.438 4.674 0 8.48 3.788 8.48 8.438.002 4.695-3.81 8.482-8.48 8.482zM1905.122 1336.41h204.13v-50.795H7.187v152.363H2109.25v-50.774h-204.13l-.04.04c-4.42 4.397-11.56 4.38-15.958-.04-4.38-4.438-4.356-11.58.062-15.98v-18.853c-4.38-4.398-4.38-11.5 0-15.898 4.38-4.422 11.54-4.46 15.938-.062zm-1845.975 2.58c-4.655 0-8.462-3.79-8.462-8.462 0-4.677 3.807-8.482 8.462-8.482 4.675 0 8.482 3.808 8.482 8.482 0 4.674-3.808 8.462-8.483 8.462zm569.98 59.24c-4.695 0-8.482-3.785-8.482-8.464 0-4.674 3.787-8.462 8.482-8.462 4.655 0 8.443 3.79 8.443 8.462 0 4.677-3.788 8.463-8.443 8.463zm638.115-55.93c-4.676 0-8.443-3.806-8.443-8.478s3.767-8.46 8.442-8.46c4.654 0 8.463 3.786 8.463 8.46 0 4.673-3.81 8.48-8.463 8.48zm569.96 59.244c-4.67 0-8.463-3.788-8.463-8.463s3.785-8.48 8.462-8.48c4.674 0 8.48 3.81 8.48 8.48.002 4.675-3.81 8.464-8.48 8.464zM2109.25 747.52h-204.13c0 .022-.02.038-.04.063-4.437 4.397-11.56 4.356-15.958-.062-4.38-4.42-4.356-11.56.062-15.958v-18.856c-.037-.02-.062-.04-.062-.062-4.38-4.438-4.356-11.56.062-15.98 4.42-4.378 11.562-4.36 15.938.08h204.13V645.95H7.187v152.368H2109.25V747.52zM59.147 699.33c-4.655 0-8.462-3.81-8.462-8.48 0-4.676 3.807-8.465 8.462-8.465 4.675 0 8.482 3.788 8.482 8.464s-3.808 8.48-8.483 8.48zm569.98 59.24c-4.695 0-8.482-3.788-8.482-8.465s3.787-8.463 8.482-8.463c4.655 0 8.443 3.786 8.443 8.463s-3.788 8.465-8.443 8.465zm638.115-55.947c-4.676 0-8.443-3.787-8.443-8.46 0-4.676 3.767-8.464 8.442-8.464 4.654 0 8.463 3.787 8.463 8.462 0 4.674-3.81 8.46-8.463 8.46zm569.96 59.258a8.466 8.466 0 0 1-8.463-8.462c0-4.673 3.785-8.48 8.462-8.48 4.674 0 8.48 3.812 8.48 8.48.002 4.675-3.81 8.463-8.48 8.463zM2109.25 107.86h-204.13c-4.38 4.36-11.48 4.36-15.857 0-4.46-4.378-4.48-11.54-.08-15.956v-18.86c-.036-.04-.06-.04-.077-.08-4.38-4.416-4.34-11.56.078-15.956 4.438-4.38 11.562-4.36 15.938.058h204.13V6.29H7.187V158.66H2109.25V107.86zM59.147 59.67c-4.655 0-8.462-3.807-8.462-8.48 0-4.676 3.807-8.46 8.462-8.46 4.675 0 8.482 3.784 8.482 8.46 0 4.674-3.808 8.48-8.483 8.48zm569.98 59.24c-4.695 0-8.482-3.788-8.482-8.463a8.48 8.48 0 0 1 8.482-8.48c4.655 0 8.443 3.806 8.443 8.48 0 4.676-3.788 8.462-8.443 8.462zm638.115-55.945c-4.676 0-8.443-3.806-8.443-8.462 0-4.673 3.767-8.46 8.442-8.46 4.654 0 8.463 3.79 8.463 8.46 0 4.657-3.81 8.463-8.463 8.463zm569.96 59.258c-4.67 0-8.463-3.808-8.463-8.48 0-4.674 3.785-8.442 8.462-8.442 4.674 0 8.48 3.768 8.48 8.443.002 4.675-3.81 8.48-8.48 8.48z"/><path fill="#AE7F2D" stroke="#030303" stroke-width=".25" d="M2612.784 4818.984c0-4.676 2.84-8.674 6.896-10.38a11.393 11.393 0 0 1 4.4-.886v-553.03h.005v-.002h-386.58v553.033c6.252 0 11.306 5.025 11.306 11.264a11.296 11.296 0 0 1-11.305 11.307h-11.268v50.774h409.132v-50.773h-11.28a11.292 11.292 0 0 1-11.304-11.306z"/><path fill="#231F20" stroke="#030303" stroke-width=".25" d="M2340.225 4881.064c2.897 0 5.68 1.125 7.77 3.115l35.768 34.048a8.472 8.472 0 0 0 5.842 2.328H2472c2.17 0 4.264-.812 5.842-2.328l35.743-34.05a11.337 11.337 0 0 1 7.79-3.114h-181.15zM2248.81 4818.984c0-6.23-5.054-11.267-11.308-11.267v-553.033h-5.62c-3.116 0-5.644 2.504-5.644 5.62v569.98h11.264a11.286 11.286 0 0 0 11.307-11.3zM2629.727 4254.688h-5.64v553.032h-.004v.003c-1.562 0-3.05.312-4.4.882a11.25 11.25 0 0 0-6.896 10.38 11.292 11.292 0 0 0 11.304 11.305h11.283v-569.98c-.023-3.117-2.548-5.622-5.646-5.622z"/><path fill="#231F20" stroke="#030303" stroke-width=".25" d="M2612.784 4818.984c0-4.672 2.84-8.672 6.896-10.38-4.055 1.707-6.896 5.705-6.896 10.38zM2624.083 4254.688h.004v553.032h-.004z"/><path fill="#609BD3" stroke="#030303" stroke-width=".25" d="M2815.175 4805.697V4286.83a6.746 6.746 0 0 0-.677-2.943 6.822 6.822 0 0 0-3.997-3.515l-.103-.04c-.06-.018-.118-.027-.18-.045a6.746 6.746 0 0 0-1.146-.225c-.067-.008-.14-.006-.207-.013a6.043 6.043 0 0 0-.488-.023h-52.394c-.47 0-.928.047-1.37.14-.043.007-.084.02-.125.03-.396.09-.783.21-1.15.362-.107.046-.214.103-.32.152-.092.045-.186.084-.273.133-.094.05-.185.11-.273.166-.097.06-.194.112-.288.175-.14.097-.27.2-.406.306-.037.03-.08.06-.115.09a6.786 6.786 0 0 0-2.477 5.248v518.867a6.805 6.805 0 0 0 6.804 6.805h52.394c3.75 0 6.795-3.047 6.795-6.803z"/><path fill="#AF7F2D" stroke="#030303" stroke-width=".25" d="M2986.167 4287.104v-.303.304zM3118.225 4259.186H2720.38c-3.116 0-5.644 2.504-5.644 5.62v569.98l.004 39.47c0 6.233 5.05 11.268 11.305 11.27l102.672.043c2.902 0 5.684 1.124 7.773 3.114l35.766 34.05a8.473 8.473 0 0 0 5.84 2.327h82.396a8.4 8.4 0 0 0 5.84-2.327l35.744-34.05a11.33 11.33 0 0 1 7.79-3.114l102.624.04c6.256-.002 11.305-5.03 11.305-11.27l.072-39.55v-569.98a5.648 5.648 0 0 0-5.642-5.624zm-303.05 546.51a6.803 6.803 0 0 1-6.802 6.804h-52.393a6.803 6.803 0 0 1-6.807-6.803V4286.83c0-2.113.965-4.002 2.48-5.25.036-.03.078-.057.116-.087.132-.104.265-.21.403-.304.094-.063.19-.118.287-.175.092-.058.182-.117.273-.168.09-.05.184-.088.273-.133.106-.05.21-.106.32-.153a6.87 6.87 0 0 1 1.15-.363c.043-.008.084-.02.127-.03.44-.09.9-.14 1.37-.14h52.393c.165 0 .327.015.488.024.07.006.14.005.208.012.395.04.777.12 1.147.227.06.017.118.026.178.045l.104.04a6.8 6.8 0 0 1 3.997 3.516c.43.893.677 1.89.677 2.942v518.866h.01zm164.507-474.555h-24.395c-.705 0-1.385.122-2.023.347-2.77.97-4.78 3.873-4.78 7.31v382.03c0 .262.015.52.036.77M2833.175 4286.8c0-3.758 3.106-6.804 6.938-6.804h139.115a6.957 6.957 0 0 1 5.89 3.22 6.664 6.664 0 0 1 1.05 3.585m-115.045 434.643a8.98 8.98 0 0 0 .027-.617V4338.79c0-4.228-3.05-7.65-6.805-7.65h-24.393 24.393l-24.23-.058c-3.438-.215-6.247-2.446-6.938-5.377m4.66 402.39l-.013-.007m2.29.39c-.015 0-.027-.003-.042-.003h-.12m24.462 0c-.023 0-.045.004-.068.004m56.35-.005h-.02m180.515 77.56c0 3.77-3.044 6.827-6.804 6.827h-255.062c-3.76 0-6.804-3.056-6.804-6.826v-54.57c0-3.77 3.045-6.827 6.804-6.827h169.2v-457.675c0-3.768 3.137-6.824 7.004-6.824h78.653c3.868 0 7.005 3.058 7.008 6.827v519.07h.003zM2986.293 4323.822c.11 3.922-2.766 7.22-6.625 7.312M2833.174 4721.37zM2809.068 4280.062z"/><path fill="#AF7F2D" stroke="#030303" stroke-width=".25" d="M2815.175 4286.83v518.867a6.803 6.803 0 0 0 0 0V4286.83zM2810.396 4280.333l.104.04-.104-.04zM2808.373 4280.027c.164 0 .326.013.487.022-.16-.01-.323-.023-.487-.023zM2753.332 4280.562zM2751.652 4281.58c.037-.03.08-.057.117-.087-.04.03-.08.057-.118.088zM2752.176 4281.19c.094-.063.19-.118.287-.175-.096.058-.193.112-.287.174zM2752.736 4280.85c.09-.05.184-.088.273-.133-.09.045-.184.083-.274.133zM2754.61 4280.166z"/><path fill="#609BD3" d="M3094.186 4280.14h-78.65c-3.87 0-7.006 3.06-7.006 6.825v457.674h-169.2c-3.758 0-6.804 3.058-6.804 6.825v54.57c0 3.772 3.046 6.827 6.803 6.827h255.06c3.76 0 6.806-3.058 6.806-6.826v-519.07c-.007-3.77-3.143-6.825-7.01-6.825z"/><path fill="#AF7F2D" stroke="#030303" stroke-width=".25" d="M2985.118 4283.217zM2927.482 4338.79v382.036c0 .246-.015.488-.033.73h.005c.02-.238.033-.48.033-.73V4338.79c0-4.224-3.046-7.65-6.805-7.65h-.007c3.762 0 6.806 3.424 6.806 7.65zM2871.127 4721.443a9.04 9.04 0 0 0 .027-.62V4338.79c0-4.226-3.046-7.65-6.803-7.65h-.007c3.758 0 6.807 3.425 6.807 7.65v382.036M2833.173 4721.37v.007-.008z"/><path fill="#AF7F2D" stroke="#030303" stroke-width=".25" d="M2927.482 4720.826V4338.79c0-4.226-3.045-7.65-6.806-7.65h-24.39c-3.757 0-6.803 3.425-6.803 7.65v382.034c0 .223.013.44.027.656"/><path fill="#AF7F2D" stroke="#030303" stroke-width=".25" d="M2889.486 4720.824V4338.79c0-4.228 3.046-7.65 6.803-7.65h-.006c-3.76 0-6.804 3.427-6.804 7.65v382.036c0 .22.014.438.03.654h.005a8.848 8.848 0 0 1-.03-.656z"/></svg>