<?xml version="1.0" encoding="UTF-8" standalone="no"?>
<svg height="5653.21" id="svg2" version="1.1" width="4062.9075" xmlns="http://www.w3.org/2000/svg" xmlns:cc="http://creativecommons.org/ns#" xmlns:dc="http://purl.org/dc/elements/1.1/" xmlns:rdf="http://www.w3.org/1999/02/22-rdf-syntax-ns#" xmlns:svg="http://www.w3.org/2000/svg">
  <g id="CAPRIVA_DEL_FRIULI" style="stroke-width:0.5;stroke-miterlimit:4;stroke-dasharray:none;stroke:#000000;stroke-opacity:1;stroke-linejoin:round;fill:#f8c300;fill-opacity:1" transform="matrix(32,0,0,32,-10953.988,-10230.457)">
    <path d="m 427.5976,375.39331 0.16741,-0.0327 1.06699,-0.4267 2.55609,-1.5954 0.1817,-0.15219 1.21112,-2.6304 0.2938,-0.7114 0.54718,-1.7438 0.22372,-0.84421 0.27188,-1.47031 -0.60949,-0.46899 -4.14771,-3.55389 -0.0359,-0.12662 -0.2211,-0.1604 -0.51419,-0.0854 -0.008,-10e-4 -0.2727,0.0182 -0.80802,0.36548 -6.1857,3.15622 -0.43619,0.4628 -0.0967,0.2352 0.17591,0.18088 0.39709,0.1365 0.2844,0.15552 0.4078,0.25318 0.54471,0.8352 0.0153,0.13812 -0.11078,3.0585 -0.0826,0.5167 -0.047,0.17459 -0.7601,2.01059 5.9914,2.30612 z" id="path82" style="stroke-width:0.0625;stroke-miterlimit:4;stroke-dasharray:none"/>
  </g>
  <g id="CORMONS" style="stroke-width:0.5;stroke-miterlimit:4;stroke-dasharray:none;stroke:#000000;stroke-opacity:1;stroke-linejoin:round;fill:#f8c300;fill-opacity:1" transform="matrix(32,0,0,32,-10953.988,-10230.457)">
    <path d="m 419.08691,377.0434 2.51929,-3.95621 0.7601,-2.01059 0.047,-0.17459 0.0826,-0.5167 0.11078,-3.0585 -0.0153,-0.13812 -0.54471,-0.8352 -0.4078,-0.25318 -0.2844,-0.15552 -0.39709,-0.1365 -0.17591,-0.18088 0.0967,-0.2352 0.43619,-0.4628 6.1857,-3.15622 0.80802,-0.36548 0.2727,-0.0182 0.008,0.001 0.51419,0.0854 0.2211,0.1604 0.0359,0.12662 2.8429,-4.82322 0.0284,-0.2749 -0.0455,-0.19259 -3.3194,-2.10831 -3.00101,-1.1843 -1.62118,-0.20199 -0.23001,-0.22681 -0.0267,-0.0263 -1.99499,-2.41381 -0.18161,0.61859 -0.0935,0.17203 -0.96209,1.11059 -0.19523,0.12189 -0.15518,0.0365 -0.26681,-0.36231 -0.3288,-0.49988 -0.22479,-0.34201 -0.0923,-0.2037 -0.9032,-0.4939 -2.5545,-0.65551 -3.5177,0.0544 -0.11139,0.0606 -0.1557,0.42569 0.0205,0.1936 0.0162,0.39139 -0.1502,0.2828 -0.41782,0.12632 -0.37839,-0.015 -0.4942,-0.14609 -0.28479,-0.16382 -0.3262,-0.35189 -1.85492,1.41751 -3.47699,2.88211 -0.39691,0.33859 -0.41278,0.36951 -0.5694,0.53579 -0.3443,0.42399 -0.10391,0.28121 0.9599,1.18729 0.12539,0.4039 0.10932,0.42832 0.75778,3.77218 0.0493,0.3743 -0.004,0.4642 -0.15161,0.40302 -1.42389,0.6188 -0.38901,0.0795 -2.6919,2.36319 -2.68389,4.22339 -0.0196,0.47812 0.087,0.81329 0.11478,3.88379 2.54202,1.00971 0.37579,0.11599 0.72119,0.17551 0.27002,0.0573 0.3266,-0.0239 0.38968,-0.0584 0.40982,-0.072 0.4053,-0.0744 0.78998,-0.1709 0.59781,-0.1311 0.76401,-0.20831 0.44611,-0.14801 0.79519,0.29162 0.0549,0.0411 1.97748,2.3378 0.2334,0.4165 0.32962,0.73072 1.04468,-0.84952 0.53811,-0.3729 6.28031,-2.3406 1.6445,-0.26779 0.0596,0.0266 0.1748,0.14499 z" id="path148" style="stroke-width:0.0625;stroke-miterlimit:4;stroke-dasharray:none"/>
  </g>
  <g id="DOBERDO-_DEL_LAGO" style="stroke-width:0.5;stroke-miterlimit:4;stroke-dasharray:none;stroke:#000000;stroke-opacity:1;stroke-linejoin:round;fill:#f8c300;fill-opacity:1" transform="matrix(32,0,0,32,-10953.988,-10230.457)">
    <path d="m 453.09039,396.1965 -1.31628,3.06079 -0.10642,1.53852 0.0778,1.17028 -0.73492,2.12601 -0.47189,0.27741 -11.71412,1.97509 -0.93649,-0.54769 -2.35559,1.87429 -1.34051,0.0583 -3.95798,0.90711 -2.09412,1.0097 0.0342,3.20609 4.39829,4.64602 9.34591,10.0604 0.37439,0.31488 1.52451,1.62671 2.31479,4.6148 0.42142,0.15311 3.0625,1.69049 0.44348,0.24729 0.53442,0.3518 0.237,0.4021 0.0197,0.1637 4.18012,-3.2298 -0.0997,-1.71338 0.28949,-3.36261 -0.0165,-0.20141 -0.1492,-0.40339 -2.7883,-6.60189 -0.21128,-0.32261 -0.85812,-1.13681 -1.01578,-1.053 -0.3489,-0.29459 -0.35181,-0.2251 -0.50021,-0.34131 -0.2027,-0.15738 -0.19708,-0.1528 -0.65412,-0.51492 -0.1152,-1.50958 -0.0284,-1.73072 0.60269,-2.2846 0.3919,-1.2121 0.0653,-0.20309 -0.0379,2.134 0.48688,-0.6727 0.4562,-0.7757 0.1905,-0.36252 3.98422,-8.26498 0.0591,-0.20761 -0.0739,-0.6228 -0.20212,-0.79059 -0.1471,-0.96051 -0.1188,-0.76889 -0.10199,-0.82279 -0.24741,-2.16101 z" id="path160" style="stroke-width:0.0625;stroke-miterlimit:4;stroke-dasharray:none"/>
  </g>
  <g id="DOLEGNA_DEL_COLLIO" style="stroke-width:0.5;stroke-miterlimit:4;stroke-dasharray:none;stroke:#000000;stroke-opacity:1;stroke-linejoin:round;fill:#f8c300;fill-opacity:1" transform="matrix(32,0,0,32,-10953.988,-10230.457)">
    <path d="m 412.25,350.3541 0.1557,-0.42569 0.11139,-0.0606 3.5177,-0.0544 2.5545,0.65551 0.9032,0.4939 0.0923,0.2037 0.22479,0.34201 0.3288,0.49988 0.26681,0.36231 0.15518,-0.0365 0.19523,-0.12189 0.96209,-1.11059 0.0935,-0.17203 0.18161,-0.61859 -0.24921,-0.73401 -0.70499,-1.51959 -1.72549,-3.47519 -0.18732,-0.3462 -0.237,-0.30261 -0.2481,-0.24621 -0.8017,-0.60898 -0.1788,-0.1051 -0.224,-0.0718 -0.22049,-0.10959 -0.32871,-0.26132 -0.93918,-1.64469 0.0716,-0.2323 1.12598,-2.2265 0.13671,-0.0957 2.53241,-1.2327 0.2565,-0.0108 0.24109,0.077 0.74829,0.0192 0.77842,-0.18799 0.6401,-0.84381 0.17478,-0.32358 2.21362,-4.3616 1.16318,-3.01761 0.12402,-0.3327 0.0651,-0.3425 0.7522,-4.3074 -0.014,-1.20609 -0.002,-0.13101 -1.53241,-0.30038 -0.86081,-0.13553 -1.10508,-0.1558 -0.38412,-0.0661 -0.17029,-0.13638 -0.3154,-0.43161 0.121,-1.1709 -2.0509,1.45181 -1.93521,1.98209 -1.88959,3.02951 -0.1907,0.3671 -2.17301,9.52749 -0.20929,2.24039 -2.15759,2.33301 -0.43512,0.3385 -0.42138,0.15979 -0.4849,0.1015 0.13919,1.37952 2.21161,2.01178 0.22928,0.35061 -0.0319,0.52799 -1.0589,4.82001 z" id="path168" style="stroke-width:0.0625;stroke-miterlimit:4;stroke-dasharray:none"/>
  </g>
  <g id="FARRA_D-ISONZO" style="stroke-width:0.5;stroke-miterlimit:4;stroke-dasharray:none;stroke:#000000;stroke-opacity:1;stroke-linejoin:round;fill:#f8c300;fill-opacity:1" transform="matrix(32,0,0,32,-10953.988,-10230.457)">
    <path d="m 441.00909,391.2135 1.20169,-4.5329 0.66861,-1.82049 -1.8479,1.81418 -0.97018,-0.5496 -0.58832,-0.6669 -0.0124,-0.0159 -0.10031,-0.44128 0.87262,-2.14612 0.3187,-0.73309 0.294,-0.66699 0.0367,-0.0569 0.0993,-0.15369 0.0598,-0.0927 -4.5393,0.1929 -1.45752,-0.64068 -0.5409,-0.23151 -0.37558,-0.0848 -2.00442,0.0837 -3.32678,0.52539 -0.69541,0.26642 -0.82519,0.32019 -0.44571,0.1731 -2.99121,1.41061 1.6687,6.00089 2.27932,4.84121 0.7074,1.49888 0.3573,-0.43338 0.259,-0.2681 0.4224,-0.2988 3.99628,-2.33612 0.48062,-0.10968 1.61239,-0.3635 0.50199,-0.0895 0.53521,-0.0938 0.47739,-0.0598 0.20471,-0.0256 3.66699,-0.21561 z" id="path194" style="stroke-width:0.0625;stroke-miterlimit:4;stroke-dasharray:none"/>
  </g>
  <g id="FOGLIANO_REDIPUGLIA" style="stroke-width:0.5;stroke-miterlimit:4;stroke-dasharray:none;stroke:#000000;stroke-opacity:1;stroke-linejoin:round;fill:#f8c300;fill-opacity:1" transform="matrix(32,0,0,32,-10953.988,-10230.457)">
    <path d="m 428.13989,409.6463 -0.0883,-0.10449 -0.0446,-0.053 -1.14859,-1.35941 -1.45261,-1.6827 -0.4281,-0.4824 -0.36819,-0.4009 -0.33341,-0.32709 -0.083,0.0269 -1.09043,0.65348 -0.3764,0.2763 -0.45798,0.15342 -0.4267,0.0665 -0.4776,0.0172 -0.2984,-0.0486 -0.31231,-0.10431 -1.85849,-0.7323 -0.65561,-0.29678 -0.27509,-0.138 -0.60672,-0.45862 -0.26999,-0.22009 -0.9562,-0.89841 -0.5904,-0.62228 -1.66321,2.71759 -0.93429,1.15881 1.24469,1.28818 0.67541,1.34692 0.0973,2.22598 -0.27469,2.10791 0.007,0.13761 0.9325,3.21679 0.3197,0.27979 1.15152,-0.0551 3.04999,0.83139 2.99121,-1.38999 4.05048,-3.05591 0.98571,-0.86831 -0.0342,-3.20609 z" id="path206" style="stroke-width:0.0625;stroke-miterlimit:4;stroke-dasharray:none"/>
  </g>
  <g id="GORIZIA" style="stroke-width:0.5;stroke-miterlimit:4;stroke-dasharray:none;stroke:#000000;stroke-opacity:1;stroke-linejoin:round;fill:#f8c300;fill-opacity:1" transform="matrix(32,0,0,32,-10953.988,-10230.457)">
    <path d="m 442.21078,386.6806 4.27472,-2.5823 1.0604,-0.62171 0.013,-0.008 4.1232,-1.2706 0.78021,0.24881 -0.24451,0.4007 -1.0426,2.0419 -0.1896,0.41541 -0.005,0.17489 0.87961,0.68851 0.0247,0.006 0.30511,0.0742 1.70398,0.41519 3.46701,0.594 2.17398,0.37271 0.14191,0.0243 0.9885,-0.43848 1.33862,-3.67071 0.18878,-0.47659 0.053,-0.11081 0.0547,-0.11301 0.0665,-0.13748 1.20022,-1.9415 0.20349,0.10059 0.46329,0.33941 0.6131,-0.69021 0.2503,-0.35901 3.26612,-5.8562 0.0936,-0.1803 0.021,-0.9697 -0.0273,-0.12188 -0.62839,-2.07801 -0.18851,-0.54709 -0.27469,-0.83511 -0.0846,-0.28781 -0.12921,-0.4382 -0.10749,-0.6269 -0.006,-0.2557 -0.0108,-0.48398 0.0195,-0.3197 1.40219,-6.18692 0.80392,-5.59918 -0.1553,-2.1959 -3.1164,-3.39511 -3.2254,1.7977 -0.26761,0.073 -0.6604,-0.047 -2.8648,-0.44769 -0.4664,-0.2551 -0.26841,-0.20562 -0.61209,-0.6478 -1.0339,0.95102 0.3053,4.97168 -1.89429,6.47552 -0.41742,0.151 -1.63529,-0.10342 -0.18579,-0.0466 -3.37341,-1.00809 -2.703,-1.09131 -3.39398,1.84742 -0.52353,0.3265 -0.0937,0.39279 -0.009,0.0385 -0.0192,0.0805 -0.3678,0.39722 -0.7504,1.06708 -0.0458,0.067 0.10758,3.16181 0.21622,0.5823 0.1896,0.4859 0.73728,1.55799 0.1181,3.34949 -1.38129,0.358 -0.34591,0.0819 -0.0909,0.0216 0.30249,3.6735 0.3512,1.5675 -0.004,0.0119 -0.0831,0.23001 -0.54398,1.50528 -0.0598,0.0927 -0.0993,0.15369 -0.0367,0.0569 -0.294,0.66699 -0.3187,0.73309 -0.87262,2.14612 0.10031,0.44128 0.0124,0.0159 0.58832,0.6669 0.97018,0.5496 1.8479,-1.81418 -0.66861,1.82049 z" id="path233" style="stroke-width:0.0625;stroke-miterlimit:4;stroke-dasharray:none"/>
  </g>
  <g id="GRADISCA_D-ISONZO" style="stroke-width:0.5;stroke-miterlimit:4;stroke-dasharray:none;stroke:#000000;stroke-opacity:1;stroke-linejoin:round;fill:#f8c300;fill-opacity:1" transform="matrix(32,0,0,32,-10953.988,-10230.457)">
    <path d="m 428.49481,395.50739 -0.7074,-1.49888 -2.27932,-4.84121 -1.6687,-6.00089 -3.64069,2.7757 -1.39099,0.5502 -0.85651,0.2153 -0.71951,0.30328 -1.52948,0.75992 -0.0594,0.39341 -0.0495,0.95547 -0.1589,1.33771 -2.64649,1.36819 -0.50589,0.2157 -0.17852,0.0761 -0.0887,0.0378 0.1261,0.28409 0.3638,1.09189 0.18411,0.68902 0.0587,0.2302 0.0141,0.0568 0.024,0.14539 0.01,0.0593 0.0212,0.13028 0.1651,2.7074 -1.0076,1.06561 -0.0859,-0.042 -0.011,-0.005 -0.1112,-0.0455 -0.18649,-0.0605 -0.43903,0.9708 -0.0298,0.0701 -0.0809,0.1896 -0.008,0.0628 -0.0216,0.16711 -0.003,0.0217 -0.0235,0.5126 0.0689,0.32578 0.0644,0.2738 2.77069,4.57221 1.66321,-2.71759 -0.22079,-0.14762 -0.0636,-0.0785 -0.15122,-0.18689 0.13971,-0.15042 1.11609,-0.62918 1.56162,-0.7981 0.26358,-0.0625 0.12451,-0.0295 0.061,-0.0141 0.3862,-0.0891 0.008,-0.002 0.0566,-0.0122 0.009,-0.002 0.20581,-0.0444 0.16279,-0.0351 0.4476,-0.059 0.2034,-0.0284 0.22021,-0.0307 0.0284,-0.004 0.10971,-0.0288 0.41169,-0.1083 0.4465,-0.12668 2.3919,-1.02921 0.25242,-0.182 4.7828,-3.52481 z" id="path236" style="stroke-width:0.0625;stroke-miterlimit:4;stroke-dasharray:none"/>
  </g>
  <g id="GRADO" style="stroke-width:0.5;stroke-miterlimit:4;stroke-dasharray:none;stroke:#000000;stroke-opacity:1;stroke-linejoin:round;fill:#f8c300;fill-opacity:1" transform="matrix(4,0,0,4,-2553.988,-2105.396)">
    <path d="m 969.85162,1744.497 1.96501,-3.4567 3.1931,0 0.49125,4.7862 2.21069,2.659 1.96501,2.1272 0.24558,1.8613 -2.21059,1.8613 -0.73693,-3.9885 -0.73683,-1.0636 -2.21069,1.5954 -2.94752,0.5318 c 0,0 -0.49125,-1.5954 -1.47376,-2.1272 -0.98251,-0.5318 -2.21059,-2.3931 -2.21059,-2.3931 z" id="path4567" style="stroke-width:0.5;stroke-miterlimit:4;stroke-dasharray:none"/>
    <path d="m 867.4791,1868.1052 4.51579,-5.2646 3.12638,2.6323 3.12628,8.6488 8.33678,3.7605 5.55795,-3.0084 0.69471,-4.5124 1.38951,6.0166 -1.38951,4.8885 -5.2105,1.5042 -5.2105,1.8801 -4.16844,-4.1364 c 0,0 -2.77892,-4.8885 -4.16844,-5.2645 -1.38951,-0.3761 -5.55785,-2.6323 -5.55785,-2.6323 z" id="path4565" style="stroke-width:0.5;stroke-miterlimit:4;stroke-dasharray:none"/>
    <path d="m 701.13618,1755.6648 3.43877,0 5.89504,2.1272 0.9825,4.2543 -4.91253,-1.5953 c 0,0 -0.98251,-2.659 -2.94752,-2.659 -1.96501,0 -2.94752,-1.5954 -2.45626,-2.1272 z" id="path4563" style="stroke-width:0.5;stroke-miterlimit:4;stroke-dasharray:none"/>
    <path d="m 663.80093,1753.5376 3.43877,-1.0636 2.45627,-2.659 2.45626,-1.0636 2.45627,5.8498 2.45626,4.2544 4.42128,3.7225 3.43878,0 3.93002,-3.1907 5.40379,-1.0636 0.98251,1.0636 -4.42128,3.7225 -1.96502,1.5954 -3.93002,3.7226 -2.94752,-0.5318 -1.96502,-4.7862 -5.40378,-2.1271 -3.43877,-2.659 -1.96502,-2.1272 -4.42128,0 -2.94752,0 z" id="path4561" style="stroke-width:0.5;stroke-miterlimit:4;stroke-dasharray:none"/>
    <path d="m 729.13761,1686.5309 3.93003,-2.1272 3.93002,0 0,5.8498 -1.47376,2.659 -2.94752,1.5954 -2.94752,0 -1.96501,-4.2544 z" id="path4559" style="stroke-width:0.5;stroke-miterlimit:4;stroke-dasharray:none"/>
    <path d="m 867.67094,1712.5891 -2.94752,-6.3816 3.93002,-0.5318 4.91254,2.659 1.96501,5.8498 -4.91253,-1.0636 z" id="path4557" style="stroke-width:0.5;stroke-miterlimit:4;stroke-dasharray:none"/>
    <path d="m 638.74701,1763.6417 0,4.7862 2.45627,5.8498 3.43877,5.318 2.45627,5.318 2.94752,4.7862 0,6.3816 -0.49126,5.8498 9.82507,2.659 24.07141,1.0636 7.86005,3.1908 8.35131,5.8498 8.3513,4.2544 14.7376,3.1908 17.19386,4.7862 7.86006,2.659 8.84255,2.1272 -2.45626,-2.1272 -10.80757,-3.1908 -17.19387,-5.8498 -13.26384,-5.318 -8.3513,-2.659 -5.40379,-2.1272 -0.9825,-2.659 5.89503,0 10.31632,2.659 8.84256,2.1272 12.28133,3.1908 4.91254,3.7226 5.89504,-4.2544 c 0,0 0,-2.1272 -2.45627,-2.1272 -2.45627,0 -6.38629,-0.5318 -6.38629,-0.5318 l -0.98251,-4.2544 -4.91253,-2.659 -6.38629,2.1272 -4.91254,-1.0636 -0.49125,-7.4452 c 0,0 4.91253,0.5318 6.87755,1.0636 1.96501,0.5318 6.38629,3.1908 8.3513,4.2544 1.96501,1.0636 5.89504,2.659 7.86005,3.7226 1.96502,1.0636 4.42128,2.1272 7.3688,2.1272 2.94752,0 10.31632,-1.0636 10.31632,-1.0636 0,0 4.42128,-0.5318 6.38629,-0.5318 1.96502,0 6.87755,2.659 6.87755,2.659 l 3.43877,6.3816 4.42118,4.2544 5.40379,1.5954 6.38629,3.7226 7.86006,4.2544 8.84255,5.8498 10.80758,3.7225 c 0,0 6.38629,5.318 8.84255,6.3816 2.45627,1.0636 5.89504,3.1908 7.86006,4.7862 1.96501,1.5954 7.3688,6.9134 7.3688,6.9134 0,0 5.40378,5.8498 7.3688,5.8498 1.96501,0 5.89503,2.1272 5.89503,2.1272 0,0 2.94752,3.1908 2.94752,1.0636 0,-2.1272 2.94752,-5.8498 0.49126,-5.8498 -2.45627,0 -4.42128,0 -4.42128,0 0,0 -3.43878,-0.5318 -4.42128,-3.1908 -0.98251,-2.659 -4.42128,-7.4452 -4.42128,-7.4452 l -4.42128,-0.5318 -6.38629,-1.5954 -4.42128,-3.7226 c 0,0 0.9825,-5.318 -0.98251,-5.318 -1.96501,0 -4.91253,-4.2543 -4.91253,-4.2543 l -4.42128,-6.3816 -2.45627,-2.659 -0.49125,-7.977 -2.45627,-10.1042 c 0,0 0.49126,-3.7226 0.49126,-6.3816 0,-2.659 4.91253,-1.0636 4.91253,-1.0636 l 1.47376,-10.1042 0,-4.2544 -5.89504,-1.0636 -8.35131,4.7862 -7.3688,1.5954 -6.38629,-2.659 c 0,0 -5.89504,0.5318 -5.89504,-1.5954 0,-2.1272 -0.49125,-4.2544 -0.49125,-4.2544 l -4.42128,0 -4.91253,2.1272 -2.94742,5.318 4.91243,3.1908 2.94752,3.1908 -0.49125,1.5954 -5.89504,3.1908 -3.43868,0 -3.43877,-4.2544 -2.94752,-4.2544 -3.93003,-5.8498 -2.45626,-0.5318 -5.89504,-2.1272 -1.47376,2.659 -5.89504,-3.1908 -2.94752,-2.659 0,-4.7862 4.42128,-0.5318 3.43877,-1.5954 6.38629,-2.659 4.42128,-2.1272 1.47376,-1.5954 5.89504,3.1908 3.93003,1.5954 2.45617,-1.5954 -1.47366,-3.7226 -4.42128,-2.659 0.49125,-4.2544 6.38619,-2.1271 4.42128,-1.5954 13.26384,-1.0636 7.86005,0 3.43878,4.7861 1.96501,9.0406 -1.47376,2.659 -6.87755,1.5954 -3.43877,1.5954 -2.45626,4.7862 2.45626,3.1908 3.43877,1.5954 1.47376,2.659 3.43878,0 1.96501,-1.5954 1.96501,-3.7226 -1.96501,-1.5954 0,-4.2544 2.94752,1.0636 4.91253,-1.5954 2.94752,-3.1908 1.96502,-4.2544 7.86005,-3.7226 0.9825,-5.3179 4.42128,-6.3816 -1.47376,-2.659 -11.79007,-3.7226 -4.91254,1.0636 -11.79008,-0.5318 -5.89503,1.0636 c 0,0 -4.91254,-2.659 -7.3688,-4.2544 -2.45627,-1.5954 -3.93003,-2.659 -3.93003,-2.659 l -5.40379,2.659 -5.89494,-1.0636 3.92993,-5.8498 c 0,0 1.47376,-3.7225 3.43877,-3.7225 1.96502,0 8.35131,-3.7226 8.35131,-3.7226 l 2.45627,-3.7226 2.45626,-5.8498 2.94752,-2.659 2.45627,-1.0636 3.93002,-7.977 2.45627,-2.1272 1.96501,-7.4452 -0.49125,-4.7862 -1.96501,-6.9134 -4.42128,-5.318 -5.40379,5.8498 -0.9825,5.8498 -2.45627,3.7226 -3.43877,2.659 1.47376,4.2544 -4.42128,3.1908 -3.93003,1.0636 0.98251,4.2544 -0.49126,7.4452 -0.49125,2.1272 -3.93003,-2.1272 -3.43877,-2.1272 -0.98241,2.659 -3.43877,2.1272 -6.87755,-2.659 -2.45626,-2.659 -1.96502,-3.7226 -3.93002,-2.1272 -3.43878,2.1272 -1.96501,-3.1908 -2.45626,-3.1908 -2.94752,-1.5954 -2.94752,3.1908 -5.40379,0.5318 -3.43877,1.5954 -4.91254,0.5318 -0.9825,-4.2544 -1.96502,-3.1908 1.96502,-5.318 -0.49126,-2.1272 -1.96501,-1.5954 -1.96501,-1.0636 -1.96501,3.7226 c 0,0 1.47376,4.7862 -1.47376,2.1272 -2.94752,-2.659 -3.93003,-5.318 -3.93003,-5.318 l -2.45627,-0.5318 0.49126,3.1908 0,1.5954 -1.96502,1.0636 -2.94752,1.5954 -0.49125,2.1272 -2.45627,0 0.98251,3.1908 0,6.3816 0,2.1272 -5.89504,3.1908 -1.96501,-3.1908 0.9825,3.1908 1.47376,4.2544 0.98251,3.7226 1.47376,4.7862 1.47376,5.318 6.38629,1.5953 4.91254,1.0636 2.45626,4.2544 2.45627,8.5088 0,4.2544 1.96501,5.8497 -7.3688,2.1272 -11.29882,5.8498 -7.3688,2.1272 -9.33381,2.1272 -7.3688,2.659 -1.47376,1.5954 -2.94752,1.0636 -1.96502,-3.7226 -3.43877,1.5954 -5.89504,0 -5.40378,-3.1908 -5.40379,-4.2544 -4.91253,-5.318 -3.43877,-1.0636 -1.47376,-6.9133 -2.45627,-0.5318 -4.42128,0 -0.98251,2.1272 z" id="path4555" style="stroke-width:0.5;stroke-miterlimit:4;stroke-dasharray:none"/>
    <path d="m 937.18323,1846.3366 7.36879,-0.7978 3.93003,0 1.22818,2.1272 0,3.1908 c 0,0 -1.71943,5.318 -0.9825,6.3816 0.73683,1.0636 1.47376,2.3932 1.47376,3.4568 0,1.0636 0,4.2544 0,4.2544 l -3.1932,2.659 -1.22808,3.1908 0,3.7226 -1.47376,3.1908 -2.45627,1.0636 c 0,0 -2.21069,-2.1272 -3.19319,-2.659 -0.98251,-0.5318 -4.66686,-3.7226 -4.66686,-3.7226 l -3.68445,-2.659 -5.89504,-5.0522 -4.1756,-3.1908 -1.22819,-1.8612 2.94752,-2.925 4.42128,-1.8612 4.1757,-2.3932 2.94752,-3.4566 z" id="path4553" style="stroke-width:0.5;stroke-miterlimit:4;stroke-dasharray:none"/>
    <path d="m 936.20072,1829.8508 6.38629,-2.1272 2.45627,3.7226 -3.1931,3.4567 c 0,0 -4.66695,2.659 -4.66695,1.5954 0,-1.0636 -0.73684,-7.7111 -0.98251,-6.6475 z" id="path4551" style="stroke-width:0.5;stroke-miterlimit:4;stroke-dasharray:none"/>
    <path d="m 1020.8422,1866.789 2.779,-0.7521 2.0843,0.7521 2.0841,0.188 0.8684,1.1282 -0.521,2.0681 -1.3895,2.0682 -1.042,0.7522 -0.6948,2.8202 -1.7369,0.5641 -3.1263,0.188 -1.5631,1.1281 -0.1738,2.2562 c 0,0 -0.8684,0.1881 -1.042,-0.752 -0.1737,-0.9401 -0.1737,-2.6323 -0.1737,-2.6323 l -2.779,0.564 -2.6052,-1.8801 c 0,0 -0.3474,-0.3761 -1.2159,-1.1282 -0.8683,-0.752 -2.0841,-2.4442 -2.0841,-2.4442 l -1.9106,-0.188 -2.6052,-2.0682 -2.2579,-0.5641 c 0,0 -2.08423,-0.752 -2.43159,-1.5042 -0.34735,-0.752 -0.69471,-2.2561 -0.69471,-2.2561 l -0.17372,-3.5724 c 0,0 0,-2.0683 0,-2.8203 0,-0.7521 0.34735,-3.9484 0.34735,-3.9484 l 0.17373,-2.4443 1.04204,-0.7521 4.8632,0.1881 1.7368,-1.3162 1.5632,-1.8802 1.2158,-1.6921 0.1737,-2.8204 -0.1737,-2.0681 -0.6948,-3.0083 0.5211,-2.4443 2.2579,-1.5042 1.5632,-0.188 1.3894,2.0682 0.6947,2.0683 -0.1736,1.5041 -1.0422,1.6921 -1.2157,1.3161 0,1.6923 0,1.6922 -0.521,2.4442 c 0,0 0,0.376 -0.6948,0 -0.6947,-0.3761 -1.5632,-0.9401 -1.5632,-0.9401 l -0.6947,1.3161 0.6947,1.8802 1.0422,0.376 0.3473,1.8802 0.1737,2.8204 0,3.3843 0.1737,3.3843 1.3895,1.1282 2.0841,1.3161 1.3895,2.0682 1.0421,0 0.6948,-0.7521 1.2158,-0.564 z" id="path4549" style="stroke-width:0.5;stroke-miterlimit:4;stroke-dasharray:none"/>
    <path d="m 1030.2212,1871.4895 1.5632,-2.8204 2.2578,-0.376 2.9527,3.5724 1.2158,1.8802 -1.0421,4.8885 c 0,0 -1.9106,1.3161 -2.779,1.8802 -0.8684,0.564 -2.9526,2.0682 -2.9526,2.0682 l -3.4737,0.376 -3.1263,-1.6921 -0.1737,-1.3162 c 0,0 0,-0.752 0.8684,-1.3161 0.8685,-0.5641 2.4316,-2.0682 2.4316,-2.0682 l 0.8684,-2.4443 z" id="path4547" style="stroke-width:0.5;stroke-miterlimit:4;stroke-dasharray:none"/>
    <path d="m 1030.3949,1890.4794 1.5631,-2.6323 c 0,0 2.0842,-1.3161 2.7789,-1.8802 0.6948,-0.564 4.1685,-2.6322 4.1685,-2.6322 l 2.2579,-0.188 1.2158,1.5041 c 0,0 2.6052,0.9401 3.3,0.9401 0.6947,0 2.7789,-0.376 2.7789,-0.376 l 2.4316,1.1282 c 0,0 0.3474,-1.3162 1.7369,-1.3162 1.3894,0 1.9105,-1.5042 1.9105,-1.5042 l 2.2579,0.7521 3.3,0.188 2.779,1.6922 2.2578,2.4442 1.2158,2.4443 -2.0842,-0.376 -0.8685,1.128 -1.7367,1.3162 -0.3474,1.3161 -0.5211,2.4443 -1.7368,2.4442 -1.7369,0.5641 -1.7368,0.1881 -1.3895,0.752 -2.6053,1.3162 -0.6947,0.9401 -2.2578,0.9401 -1.0422,0.752 -1.3895,0.7521 -0.6947,0.188 -2.4316,-0.752 -1.9105,-0.5641 -1.3895,0.5641 -2.4316,0.94 -0.6947,-1.8801 c 0,0 -0.1737,-2.0683 -0.3473,-2.8204 -0.1737,-0.752 -0.1737,-2.2562 -0.1737,-2.2562 0,0 -1.2158,-2.8202 -1.9105,-3.0083 -0.6948,-0.1881 -1.9106,-2.2562 -1.9106,-2.2562 l -1.0421,-1.5042 z" id="path4545" style="stroke-width:0.5;stroke-miterlimit:4;stroke-dasharray:none"/>
    <path d="m 969.25801,1783.1204 2.77902,-1.5042 4.16834,-3.3843 3.47373,0.752 4.86315,0 -2.08422,3.7604 -3.12628,4.5124 -1.73687,4.5125 6.60001,0.3761 2.77893,1.1281 -0.69471,6.7686 -2.43157,3.0084 -3.82108,-1.5042 -4.16844,-2.2562 0.34735,1.5042 1.04216,6.7686 -2.08422,4.1365 -4.51579,0.752 -3.47364,6.0167 -8.33687,1.1281 -4.16844,0.7521 -3.82109,-0.3761 c 0,0 0.34745,-1.5041 -0.34735,-3.7603 -0.69471,-2.2563 -1.73677,-5.6406 -1.73677,-5.6406 0,0 0.69471,-4.1364 -0.6948,-4.5125 -1.38942,-0.376 -3.82099,-1.8802 -3.82099,-1.8802 l -3.12638,-3.3843 c 0,0 1.73687,-2.6323 3.12638,-2.2562 1.38941,0.376 6.94736,-0.7522 6.94736,-0.7522 l 4.86315,-1.8801 2.77893,-3.0083 2.08422,-2.6324 -0.34736,-4.5123 1.73677,-2.6323 3.82109,0 z" id="path4543" style="stroke-width:0.5;stroke-miterlimit:4;stroke-dasharray:none"/>
    <path d="m 932.27069,1734.9247 6.14072,2.1272 3.68435,3.7225 2.21069,6.1157 -6.14072,4.5203 -2.21059,5.318 c 0,0 -3.19319,3.1908 -4.1757,2.659 -0.98251,-0.5318 -3.68435,-5.5839 -4.66686,-6.1157 -0.9825,-0.5318 -4.1757,-3.4567 -4.1757,-3.4567 l -2.45627,-5.8498 5.15821,0.5318 3.93003,-0.5318 2.45626,-5.318 z" id="path4541" style="stroke-width:0.5;stroke-miterlimit:4;stroke-dasharray:none"/>
    <path d="m 1056.0665,1844.3423 1.2281,-1.4625 2.2107,-1.7283 1.8422,-1.4625 2.7019,-1.1965 2.0878,-0.5318 1.965,-0.6647 0.4912,1.0636 -2.4562,1.3294 -1.7194,0.7978 -2.7019,0.9306 -1.1053,0.9306 -1.351,1.0636 -1.3509,0.6648 -1.2281,0.9306 z" id="path4539" style="stroke-width:0.5;stroke-miterlimit:4;stroke-dasharray:none"/>
    <path d="m 1080.015,1821.342 1.4738,-0.5318 1.2282,0.3989 0.2456,1.7283 -0.8597,1.0636 -1.5966,1.5954 -1.5966,2.2601 -0.8597,1.0636 -0.9825,1.4625 -1.8421,1.8613 -1.2282,0.9306 -1.351,1.5954 -1.3508,1.4625 -1.7195,0.2659 -0.614,-1.1966 1.1053,-1.0636 1.2282,-0.9306 1.3508,-1.3295 1.2282,-1.1966 1.4738,-0.9306 c 0,0 0.7368,-0.7977 0.7368,-1.3295 0,-0.5318 0.1229,-2.1272 0.1229,-2.1272 l 0.614,-2.1272 1.5966,-1.8613 z" id="path4537" style="stroke-width:0.5;stroke-miterlimit:4;stroke-dasharray:none"/>
    <path d="m 1090.1422,1796.6577 3.4738,0.3761 c 0,0 1.2158,-0.3761 1.2158,0.564 0,0.9402 0,2.8204 0,2.8204 l 1.042,2.6322 0.6947,0.7521 0.3475,2.6323 -3.3,-0.7521 -2.0843,-0.9401 -0.8684,0.9401 -0.3473,1.8801 -1.9106,0.7522 -1.0421,-2.2563 0,-3.3844 1.2158,-1.1281 2.0842,-0.752 1.2158,-1.5042 -1.2158,-1.1281 -1.9106,0.3761 -0.1736,-2.0683 z" id="path4535" style="stroke-width:0.5;stroke-miterlimit:4;stroke-dasharray:none"/>
    <path d="m 1087.8844,1816.0237 2.6052,1.8802 0.3473,2.0682 -1.7367,0.7522 -2.6053,0 -2.0842,-1.1282 -0.3474,-1.3161 1.7369,-1.1281 z" id="path4533" style="stroke-width:0.5;stroke-miterlimit:4;stroke-dasharray:none"/>
    <path d="m 1092.2265,1820.9122 1.5631,-0.564 1.9106,1.8802 1.2158,3.7604 -1.7369,2.0682 -2.4316,0.9401 -1.5631,-3.1964 -1.7369,-2.2562 -2.2579,-0.7521 1.3895,-0.188 z" id="path4531" style="stroke-width:0.5;stroke-miterlimit:4;stroke-dasharray:none"/>
    <path d="m 1057.049,1744.2311 6.3863,-3.4567 4.9125,1.0636 1.2281,3.7226 c 0,0 -0.2455,2.9249 -1.2281,3.4567 -0.9825,0.5318 -4.1757,2.1272 -4.1757,3.4567 0,1.3295 -2.9475,7.1793 -2.9475,7.1793 0,0 -2.9475,0.5318 -4.4213,-0.5318 -1.4737,-1.0636 -2.7018,-1.5954 -3.193,-2.9249 -0.4913,-1.3295 -0.9826,-4.7862 -0.9826,-4.7862 l 0.9826,-3.1908 1.4737,-0.2659 c 0,0 0,-1.5954 0,-2.659 0,-1.0636 -0.7369,-2.9249 0.2456,-2.3931 0.9825,0.5318 2.2107,1.8613 1.7194,1.3295 z" id="path4529" style="stroke-width:0.5;stroke-miterlimit:4;stroke-dasharray:none"/>
    <path d="m 1226.8657,1829.7744 2.2273,0.098 1.9465,-0.04 21.1279,-1.5942 4.6321,-1.0376 41.4063,-23.1792 3.6104,-2.0576 7.5048,-4.6721 9.4256,-7.6697 6.048,-5.7847 6.2361,-4.6089 4.2056,-2.4448 13.2735,-7.6504 20.6264,-11.8567 3.8872,-1.364 26.1096,0.7712 21.836,1.2544 2.7016,-0.5536 1.6897,-0.8144 1.7671,-2.1951 0.908,-1.6359 0.7496,-5.6817 -63.365,-26.5864 -1.4072,1.6079 -0.508,0.412 -0.2504,0.2032 -2.804,2.221 -1.8337,0.4688 -2.1431,-0.1896 -3.2775,-1.4543 -3.376,-1.9656 -3.0154,-1.9121 -3.1968,-2.6648 -6.636,-4.5503 -6.5879,-3.2129 -3.3679,-1.1887 -3.3584,-0.6808 -12.3208,-2.2223 -3.4184,-0.2792 -3.148,-0.048 -6.3074,2.748 -2.1992,2.273 -18.019,-4.4185 -7.8218,-13.9033 -19.7,-22.6814 -2.7016,-2.9905 -2.6902,-2.4824 -2.8257,-2.6089 -6.3479,-4.6486 -6.4954,-3.6265 -4.2214,-2.1472 -22.9409,-9.2832 -3.1233,-0.7168 -2.7136,0.1 -2.7984,0.5176 -2.507,1.9016 -2.7625,2.799 -1.1648,2.1128 0.7984,0.2608 1.8296,0.5968 -1.2248,7.8 -0.5008,1.8296 -2.3377,1.8944 -2.779,1.6162 -22.1184,7.3718 -63.9378,16.5705 -19.2776,-0.082 -14.3496,2.1714 -2.1894,0.9927 -22.5496,10.4121 5.4702,16.0935 1.4561,2.4448 2.0327,1.3465 1.8298,1.1823 0.8799,2.3792 0.3592,2.7217 -0.016,4.5246 -0.14,2.9473 0.8225,0.591 7.7384,0.2342 9.7263,2.2562 3.4736,2.2563 0,8.2728 4.1685,7.5208 6.2526,2.2562 4.1685,7.5208 -1.3896,12.0332 0,6.0166 0.6948,6.7687 9.0315,3.7604 2.0843,10.5291 2.0842,7.5208 5.5579,3.7604 4.8632,5.2645 2.7789,9.025 0,4.5124 -2.0842,6.0166 -2.0842,7.5208 3.4737,1.5042 2.7789,1.5041 0,6.0167 -4.8631,1.5041 -4.1685,1.5042 -3.4737,-3.0083 0,6.0165 2.0842,0 5.558,-3.7603 4.8631,3.0083 0,6.0166 -3.4737,5.2645 -6.9474,0.7522 -6.9473,0 -8.3368,-2.2563 -8.3369,0 -6.9474,-0.752 -2.0842,0 1.3895,9.7769 -1.3895,5.2646 -2.0842,7.5208 -4.8632,9.777 -3.314,2.7757 -3.6844,-1.5954 -3.4388,-0.7978 -4.4213,3.1908 -3.93,2.1272 -4.4213,4.2544 -4.9125,2.925 -5.8951,2.393 c 0,0 -5.4038,1.0636 -6.6318,0.266 -1.2282,-0.7978 -5.6495,-3.4568 -6.632,-3.9886 -0.9825,-0.5318 -3.6844,-3.4566 -3.6844,-3.4566 l -3.6844,-1.5954 -6.3862,0.2658 -5.40379,0.5318 -7.12322,-2.393 -4.17561,-0.5318 -5.40379,0.2658 -7.36879,-0.5318 -1.22819,-2.659 -3.43877,1.5954 -3.93002,5.8498 -3.43878,4.7862 0.73693,2.925 5.64936,1.0636 c 0,0 2.70195,0 3.93003,0.7976 1.22818,0.7978 5.89504,2.3932 7.3688,2.3932 1.47376,0 4.66695,3.1908 4.66695,3.1908 l 2.45627,7.711 1.47376,3.4568 7.3688,1.3294 5.15816,0.5318 3.2145,-2.3771 1.2081,-0.7531 31.1272,-4.9899 18.7244,-1.7695 36.0078,0.587 1.5339,0.3355 21.3738,-16.5379 2.6727,-2.1217 27.3235,-18.6177 16.3306,-8.5793 3.2847,-1.4005 1.9057,-0.7548 3.765,-0.1677 1.4022,0.5871 10.7993,-10.1391 2.2776,-2.1805 2.7811,-3.5977 20.452,-33.5874 1.0845,-1.8785 -0.8676,-3.8326 -7.5378,-8.2438 -7.8012,-5.6524 -2.0452,-7.12 -1.0458,-3.8325 1.0768,0.025 3.1375,0.5032 2.7037,0.5032 1.1931,0.3354 2.6572,1.7444 5.051,4.0338 1.3712,1.3083 1.96,2.2224 2.3783,2.7255 1.3324,1.7947 0.6198,1.3754 1.2318,2.7088 3.6023,6.0549 0.909,0.932 z" id="Go" style="stroke-width:0.5;stroke-miterlimit:4;stroke-dasharray:none"/>
  </g>
  <g id="MARIANO_DEL_FRIULI" style="stroke-width:0.5;stroke-miterlimit:4;stroke-dasharray:none;stroke:#000000;stroke-opacity:1;stroke-linejoin:round;fill:#f8c300;fill-opacity:1" transform="matrix(32,0,0,32,-10953.988,-10230.457)">
    <path d="m 412.0148,392.15521 0.0887,-0.0378 0.17852,-0.0761 0.50589,-0.2157 2.64649,-1.36819 0.1589,-1.33771 0.0495,-0.95547 0.0594,-0.39341 1.52948,-0.75992 0.71951,-0.30328 0.85651,-0.2153 1.39099,-0.5502 3.64069,-2.7757 -1.1012,-0.10061 -3.04779,-2.28171 -0.17911,-0.37949 -0.7402,-1.8699 0.009,-0.15149 0.18719,-1.0004 0.11932,-0.33941 -0.1748,-0.14499 -0.0596,-0.0266 -1.6445,0.26779 -6.28031,2.3406 -0.53811,0.3729 -1.04468,0.84952 -4.3739,2.98068 0.0743,0.002 0.20471,0.14872 0.72839,0.7839 0.5423,0.70169 0.0953,0.1575 0.0608,0.10031 0.6113,1.01358 0.14151,0.86362 0.0499,0.84699 -0.15219,0.0773 0.0388,0.32321 0.2355,1.10449 0.10291,0.31821 0.0872,0.17169 0.23742,0.1315 0.72489,0.3743 3.0856,1.43399 0.1752,-0.0812 z" id="path283" style="stroke-width:0.0625;stroke-miterlimit:4;stroke-dasharray:none"/>
  </g>
  <g id="MEDEA" style="stroke-width:0.5;stroke-miterlimit:4;stroke-dasharray:none;stroke:#000000;stroke-opacity:1;stroke-linejoin:round;fill:#f8c300;fill-opacity:1" transform="matrix(32,0,0,32,-10953.988,-10230.457)">
    <path d="m 386.81079,384.63751 3.25742,2.06 2.80938,-2.32672 1.65812,-0.6084 0.57659,0.30231 0.21851,0.21899 1.14508,2.1304 0.0215,0.44232 -0.2345,1.0719 -0.20661,0.3895 -0.0916,0.22919 0.2168,0.34979 0.21841,0.22751 0.22351,0.08 1.82639,-0.35602 1.33749,-0.26721 1.78061,-0.5589 0.36469,-0.2392 1.24762,-1.19019 1.60089,-2.04 0.18991,-0.86951 4.3739,-2.98068 -0.32962,-0.73072 -0.2334,-0.4165 -1.97748,-2.3378 -0.0549,-0.0411 -0.79519,-0.29162 -0.44611,0.14801 -0.76401,0.20831 -0.59781,0.1311 -0.78998,0.1709 -0.4053,0.0744 -0.40982,0.072 -0.38968,0.0584 -0.3266,0.0239 -0.27002,-0.0573 -0.72119,-0.17551 -0.37579,-0.11599 -2.54202,-1.00971 -0.0705,0.26001 -0.1987,0.58621 -0.14789,0.3696 -2.90039,3.3674 -0.7652,0.7974 -1.9779,1.4075 -0.95932,0.50818 -0.72788,0.29721 -1.56021,0.46219 -1.79721,0.16842 z" id="path289" style="stroke-width:0.0625;stroke-miterlimit:4;stroke-dasharray:none"/>
  </g>
  <g id="MONFALCONE" style="stroke-width:1;stroke-miterlimit:4;stroke-dasharray:none;stroke:#000000;stroke-opacity:1;stroke-linejoin:round;fill:#da271d;fill-opacity:1" transform="matrix(32,0,0,32,-10953.988,-10230.457)">
    <path d="m 450.01981,446.17099 -0.0845,-0.38058 -0.0641,-0.31101 -0.1373,-0.6611 -0.4076,-3.4198 0.89551,-2.12021 0.0822,0.002 0.04,8.9e-4 0.33811,-0.0437 0.2832,-0.10181 0.015,-0.0183 0.15332,-0.1872 0.15539,-0.20211 -0.13779,-0.95581 -0.24731,-0.53348 -0.0534,-0.11502 -0.0197,-0.1637 -0.237,-0.4021 -0.53442,-0.3518 -0.44348,-0.24729 -3.0625,-1.69049 -0.42142,-0.15311 -2.31479,-4.6148 -1.52451,-1.62671 -1.3143,0.0658 -4.2268,0.23829 -10.29239,0.9566 -3.1e-4,0.15399 -0.1217,1.591 -0.0816,0.56742 -0.0377,0.22369 -0.16279,0.26511 -0.26501,0.38379 -0.32761,0.39929 -0.10528,0.19241 -0.007,0.0207 -0.0921,0.27982 -0.0236,0.32159 0.21881,0.94959 0.1149,0.3316 0.22092,0.1604 0.36499,0.0398 0.41488,0.009 0.27692,-0.0156 0.0577,-0.003 0.76312,-0.18238 0.3291,-0.15002 0.26929,-0.1113 0.3302,-0.0487 0.42319,0.0262 0.43252,0.0733 0.0434,0.07 0.007,0.17349 -0.0444,2.8154 -0.0685,0.1586 -0.0988,0.0893 -0.63419,0.35431 -0.971,0.47448 -0.40451,0.10141 -0.0676,0.0475 -0.0602,0.0423 0.48572,1.596 2.28988,7.2674 0.39771,1.14142 0.11331,0.2471 0.2652,0.29379 1.33529,1.17819 0.18161,0.0737 0.0507,0.0198 0.5224,0.0615 1.29999,-2.06488 0.12601,-4.49072 -0.75061,-1.06818 0.19552,-0.34653 0.5206,-0.62438 3.03559,-1.20099 0.21609,-0.0446 0.19342,0.2327 0.22998,0.30661 0.30512,0.40799 0.0963,0.13861 0.10562,0.14111 0.25458,0.3334 0.12952,0.14878 0.4385,-0.3357 0.1738,-0.15679 -1.10602,-2.53321 -0.0387,-0.074 -0.8964,-1.42768 -0.78131,-1.12552 -0.0676,-0.0926 -0.13349,-0.16589 -0.0731,-0.0781 -0.0672,-0.0714 -0.0834,-0.0618 -0.1471,-0.1055 -0.0658,-0.046 -0.10471,-0.0736 -0.0552,-0.0369 -0.18658,-0.10781 -0.133,-0.0604 -0.25659,-0.1012 -0.0652,-0.0228 -0.0922,-0.003 -0.0433,0.006 -0.0434,-0.005 -0.0983,-0.0394 -0.2305,-0.1272 -0.0954,-0.0624 -0.11261,-0.074 0.19461,-0.30341 1.3706,0.85752 0.33539,0.2261 0.1276,0.1001 0.51339,0.41998 0.0692,0.0715 0.0891,0.11072 0.19891,0.24988 0.0888,0.11841 0.0171,0.0228 0.0773,0.11841 0.082,0.12931 0.073,0.11599 0.69171,1.16809 0.22009,0.37452 0.65491,1.11419 0.0357,0.23001 0.94396,1.5951 1.90213,2.89999 7.15928,1.53421 0.11422,-0.002 0.13138,-0.0325 0.17652,-0.0488 0.0578,-0.022 0.0633,-0.0322 0.0794,-0.0524 0.0492,-0.0415 0.0435,-0.0524 0.0141,-0.0498 0.0185,-0.0813 0.0398,-0.27213 z" id="path304" style="stroke-width:0.0625;stroke-miterlimit:4;stroke-dasharray:none"/>
  </g>
  <g id="MORARO" style="fill:#f8c300;fill-opacity:1;stroke:#000000;stroke-width:0.125;stroke-linejoin:round;stroke-miterlimit:4;stroke-opacity:1;stroke-dasharray:none" transform="matrix(32,0,0,32,-10953.988,-10230.457)">
    <path d="m 426.8306,381.7558 -0.53171,-3.09311 1.06091,-0.26038 1.13639,-0.2919 0.1155,-0.0989 0.025,-0.0851 0.0227,-0.0768 0.013,-0.185 -0.0582,-0.2102 -0.0755,-0.20911 -0.11319,-0.23019 -0.82791,-1.6218 -5.9914,-2.30612 -2.51929,3.95621 -0.11932,0.33941 -0.18719,1.0004 -0.009,0.15149 0.7402,1.8699 0.17911,0.37949 3.04779,2.28171 1.1012,0.10061 2.99121,-1.41061 z" id="path316" style="stroke-width:0.125;stroke-miterlimit:4;stroke-dasharray:none"/>
  </g>
  <g id="MOSSA" style="fill:#f8c300;fill-opacity:1;stroke:#000000;stroke-width:0.0625;stroke-linejoin:round;stroke-miterlimit:4;stroke-opacity:1;stroke-dasharray:none" transform="matrix(32,0,0,32,-10953.988,-10230.457)">
    <path d="m 436.50211,381.34399 4.5393,-0.1929 0.54398,-1.50528 0.0831,-0.23001 0.004,-0.0119 -0.3512,-1.5675 -0.30249,-3.6735 0.0909,-0.0216 0.34591,-0.0819 1.38129,-0.358 -0.1181,-3.34949 -0.73728,-1.55799 -0.1896,-0.4859 -0.21622,-0.5823 -0.10758,-3.16181 0.0458,-0.067 0.7504,-1.06708 0.3678,-0.39722 -9.12439,2.28461 0.60949,0.46899 0.95441,-0.0156 0.1712,0.003 0.062,0.002 0.0737,0.0941 0.4329,0.55441 0.2322,0.43088 0.1651,0.75821 0.1211,1.94559 -0.0167,0.51471 -0.016,0.1412 -0.12878,0.68631 -0.0993,-0.004 -0.2638,-0.0556 -0.16122,-0.002 -0.12519,0.0647 -0.0463,0.0463 -1.4668,1.85602 0.008,0.0987 0.155,0.5026 1.5882,4.8674 0.74472,3.06869 z" id="path328" style="stroke-width:0.0625;stroke-miterlimit:4;stroke-dasharray:none"/>
  </g>
  <g id="ROMANS_D-ISONZO" style="fill:#f8c300;fill-opacity:1;stroke:#000000;stroke-width:0.0625;stroke-linejoin:round;stroke-miterlimit:4;stroke-opacity:1;stroke-dasharray:none" transform="matrix(32,0,0,32,-10953.988,-10230.457)">
    <path d="m 411.1069,401.05609 -0.0644,-0.2738 -0.0689,-0.32578 0.0235,-0.5126 0.003,-0.0217 0.0216,-0.16711 0.008,-0.0628 0.0809,-0.1896 0.0298,-0.0701 0.43903,-0.9708 0.18649,0.0605 0.1112,0.0455 0.011,0.005 0.0859,0.042 1.0076,-1.06561 -0.1651,-2.7074 -0.0212,-0.13028 -0.01,-0.0593 -0.024,-0.14539 -0.0141,-0.0568 -0.0587,-0.2302 -0.18411,-0.68902 -0.3638,-1.09189 -0.1261,-0.28409 -0.1752,0.0812 -3.0856,-1.43399 -0.72489,-0.3743 -0.23742,-0.1315 -0.0872,-0.17169 -0.10291,-0.31821 -0.2355,-1.10449 -0.0388,-0.32321 0.15219,-0.0773 -0.0499,-0.84699 -0.14151,-0.86362 -0.6113,-1.01358 -0.0608,-0.10031 -0.0953,-0.1575 -0.5423,-0.70169 -0.72839,-0.7839 -0.20471,-0.14872 -0.0743,-0.002 -0.18991,0.86951 -1.60089,2.04 -1.24762,1.19019 -0.36469,0.2392 -1.78061,0.5589 -1.33749,0.26721 -1.82639,0.35602 -0.22351,-0.08 -0.21841,-0.22751 -0.2168,-0.34979 0.0916,-0.22919 0.20661,-0.3895 0.2345,-1.0719 -0.0215,-0.44232 -1.14508,-2.1304 -0.21851,-0.21899 -0.57659,-0.30231 -1.65812,0.6084 -2.80938,2.32672 0.98398,6.08868 3.40872,1.61661 0.1828,0.32889 1.8743,4.0285 0.39968,3.87451 1.2641,1.17881 0.50901,0.3937 2.3974,-0.79901 3.46389,-0.84008 0.0477,-0.0535 0.19052,-0.2139 2.35328,-2.3374 0.65692,-0.5055 0.15738,-0.10089 0.14102,-0.0659 0.26639,-0.12009 2.7416,1.88519 z" id="path454" style="stroke-width:0.0625;stroke-miterlimit:4;stroke-dasharray:none"/>
  </g>
  <g id="RONCHI_DEI_LEGIONARI" style="fill:#f8c300;fill-opacity:1;stroke:#000000;stroke-width:0.0625;stroke-linejoin:round;stroke-miterlimit:4;stroke-opacity:1;stroke-dasharray:none" transform="matrix(32,0,0,32,-10953.988,-10230.457)">
    <path d="m 413.629,425.6076 1.52691,3.41919 0.5037,0.4802 6.77758,3.371 0.35822,0.11542 0.27228,0.0837 0.0226,0.007 0.0528,0.0157 0.32599,0.0924 1.2958,-0.1564 0.254,-0.0763 0.4436,-0.24072 0.32761,-0.39929 0.26501,-0.38379 0.16279,-0.26511 0.0377,-0.22369 0.0816,-0.56742 0.1217,-1.591 3.1e-4,-0.15399 10.29239,-0.9566 4.2268,-0.23829 1.3143,-0.0658 -0.37439,-0.31488 -9.34591,-10.0604 -4.39829,-4.64602 -0.98571,0.86831 -4.05048,3.05591 -2.99121,1.38999 -3.04999,-0.83139 -1.15152,0.0551 0.0489,0.37222 0.1452,5.00229 -0.015,0.0558 -0.0398,0.14801 -0.86581,2.07239 -1.58969,0.56661 z" id="path457" style="stroke-width:0.0625;stroke-miterlimit:4;stroke-dasharray:none"/>
  </g>
  <g id="SAGRADO" style="fill:#f8c300;fill-opacity:1;stroke:#000000;stroke-width:0.0625;stroke-linejoin:round;stroke-miterlimit:4;stroke-opacity:1;stroke-dasharray:none" transform="matrix(32,0,0,32,-10953.988,-10230.457)">
    <path d="m 428.13989,409.6463 2.09412,-1.0097 3.95798,-0.90711 1.34051,-0.0583 2.35559,-1.87429 0.21671,-2.38541 -0.38269,-4.4588 -0.31992,-1.43259 2.57611,-2.29001 1.87879,-1.63751 0.1286,-0.1087 0.0882,-0.2081 0.14859,-0.83359 -0.0663,-0.18961 -1.1471,-1.03909 -3.66699,0.21561 -0.20471,0.0256 -0.47739,0.0598 -0.53521,0.0938 -0.50199,0.0895 -1.61239,0.3635 -0.48062,0.10968 -3.99628,2.33612 -0.4224,0.2988 -0.259,0.2681 -0.3573,0.43338 -4.7828,3.52481 -0.25242,0.182 -2.3919,1.02921 -0.4465,0.12668 -0.41169,0.1083 -0.10971,0.0288 -0.0284,0.004 -0.22021,0.0307 -0.2034,0.0284 -0.4476,0.059 -0.16279,0.0351 -0.20581,0.0444 -0.009,0.002 -0.0566,0.0122 -0.008,0.002 -0.3862,0.0891 -0.061,0.0141 -0.12451,0.0295 -0.26358,0.0625 -1.56162,0.7981 -1.11609,0.62918 -0.13971,0.15042 0.15122,0.18689 0.0636,0.0785 0.22079,0.14762 0.5904,0.62228 0.9562,0.89841 0.26999,0.22009 0.60672,0.45862 0.27509,0.138 0.65561,0.29678 1.85849,0.7323 0.31231,0.10431 0.2984,0.0486 0.4776,-0.0172 0.4267,-0.0665 0.45798,-0.15342 0.3764,-0.2763 1.09043,-0.65348 0.083,-0.0269 0.33341,0.32709 0.36819,0.4009 0.4281,0.4824 1.45261,1.6827 1.14859,1.35941 0.0446,0.053 0.0883,0.10449 z" id="path472" style="stroke-width:0.0625;stroke-miterlimit:4;stroke-dasharray:none"/>
  </g>
  <g id="SAN_CANZIAN_D-ISONZO" style="fill:#f8c300;fill-opacity:1;stroke:#000000;stroke-width:0.0625;stroke-linejoin:round;stroke-miterlimit:4;stroke-opacity:1;stroke-dasharray:none" transform="matrix(32,0,0,32,-10953.988,-10230.457)">
    <path d="m 410.9288,459.90329 0.1456,-0.2641 0.34531,-0.34988 0.31338,-0.2377 0.3498,-0.0647 0.3392,-0.0125 0.39041,0.0896 2.86761,1.1604 0.52768,0.2684 0.81192,0.45331 0.79349,0.58108 0.35321,0.32611 0.33628,0.3103 0.3377,0.37381 2.4625,2.83518 0.97772,1.73791 2.25238,0.55231 0.2749,-0.28412 0.78842,-0.3435 0.3935,0.006 0.4273,0.0349 1.5401,0.27778 0.4198,0.0851 0.42099,0.14859 0.82349,0.40161 0.8295,0.56879 0.3996,0.3331 0.37692,0.23901 0.422,0.2457 0.40969,0.18179 0.26789,0.0237 0.22921,-0.0586 0.3505,-0.27762 0.0313,-0.0254 0.0635,-0.0515 0.1759,-0.20099 -0.5549,-0.38211 -0.7518,-0.64878 -0.41709,-0.37222 -0.7102,-0.659 -6.03079,-5.57669 -0.32431,-0.32238 -0.55741,-0.73252 -0.67178,-1.02609 -3.6673,-6.79392 -1.43521,-3.34259 -0.009,-0.24319 0.0871,-1.8252 0.31378,-2.02121 0.0174,-0.39581 -0.0762,-4.05078 -0.1868,-2.12772 -0.42709,-2.22988 -0.0551,-0.0369 -0.1481,-0.1044 -0.3017,-0.2124 -0.2427,-0.2016 -0.30841,-0.36151 -0.46079,-0.6973 -0.4639,-0.81781 -1.3609,-4.6131 0.7218,-0.1449 -1.52691,-3.41919 -2.3631,-0.009 0.41269,0.41642 -0.1908,1.60199 -9.13009,5.21429 -2.01099,0.70172 0.34348,0.66019 0.55871,1.21591 0.90851,2.1796 2.10648,6.74188 -1.52439,2.35251 -1.9772,2.27859 -1.6731,3.06842 -1.5285,5.5018 0.0936,0.3071 0.15921,0.24008 0.0951,0.1435 0.2814,0.2521 0.4773,0.2251 0.4321,0.06 0.55761,-0.13758 0.60318,-0.40112 0.57712,-0.4595 0.6376,-0.55109 4.3339,1.8895 0.3757,0.17309 0.25088,0.20621 0.22532,0.39679 0.0308,0.3078 0.022,0.2609 0.0497,0.63391 1.9e-4,0.22799 0.0591,0.2461 0.16489,0.3005 0.3125,0.14212 0.4093,-0.0149 0.3923,-0.0962 1.23609,-0.52771 0.9667,-0.4332 0.22211,-0.22391 0.4024,-0.79629 z" id="path475" style="stroke-width:0.0625;stroke-miterlimit:4;stroke-dasharray:none"/>
  </g>
  <g id="SAN_FLORIANO_DEL_COLLIO" style="fill:#f8c300;fill-opacity:1;stroke:#000000;stroke-width:0.0625;stroke-linejoin:round;stroke-miterlimit:4;stroke-opacity:1;stroke-dasharray:none" transform="matrix(32,0,0,32,-10953.988,-10230.457)">
    <path d="m 433.508,365.3172 9.12439,-2.28461 0.0192,-0.0805 0.009,-0.0385 0.0937,-0.39279 0.52353,-0.3265 3.39398,-1.84742 2.703,1.09131 3.37341,1.00809 0.18579,0.0466 1.63529,0.10342 0.41742,-0.151 1.89429,-6.47552 -0.3053,-4.97168 1.0339,-0.95102 -0.12021,-0.1463 -0.24588,-0.11768 -3.12741,-1.03662 -0.6235,-0.0869 -0.33261,-0.0446 -0.20508,0.0493 -1.7124,0.57199 -2.17841,2.5123 -0.14191,0.28521 -0.2868,0.65049 -0.0761,0.1961 -0.008,0.2612 0.0352,0.32919 0.0302,0.26142 -0.45459,1.1431 -0.1954,0.3496 -2.06189,3.56629 -0.14231,0.0235 -0.89929,-0.48249 -1.05771,-0.4241 -3.26251,0.0655 -1.43838,0.10929 -0.17762,0.19039 -0.0977,0.38913 -0.0308,0.4014 -0.006,0.35849 -0.1409,0.357 -0.28561,0.23059 -0.34919,0.1994 -0.4216,0.14261 -0.5639,-0.0556 -2.44971,-0.51191 -0.93588,-0.20349 -0.56552,-0.16751 -0.3346,-0.14578 -0.19308,-0.22421 -0.13291,-0.35169 -0.0666,-0.4238 -0.1503,-1.32782 -2.8429,4.82322 4.14771,3.55389 z" id="path484" style="stroke-width:0.0625;stroke-miterlimit:4;stroke-dasharray:none"/>
  </g>
  <g id="SAN_LORENZO_ISONTINO" style="fill:#f8c300;fill-opacity:1;stroke:#000000;stroke-width:0.0625;stroke-linejoin:round;stroke-miterlimit:4;stroke-opacity:1;stroke-dasharray:none" transform="matrix(32,0,0,32,-10953.988,-10230.457)">
    <path d="m 426.8306,381.7558 0.44571,-0.1731 0.82519,-0.32019 0.69541,-0.26642 3.32678,-0.52539 2.00442,-0.0837 0.37558,0.0848 0.5409,0.23151 1.45752,0.64068 -0.74472,-3.06869 -1.5882,-4.8674 -0.155,-0.5026 -0.008,-0.0987 1.4668,-1.85602 0.0463,-0.0463 0.12519,-0.0647 0.16122,0.002 0.2638,0.0556 0.0993,0.004 0.12878,-0.68631 0.016,-0.1412 0.0167,-0.51471 -0.1211,-1.94559 -0.1651,-0.75821 -0.2322,-0.43088 -0.4329,-0.55441 -0.0737,-0.0941 -0.062,-0.002 -0.1712,-0.003 -0.95441,0.0156 -0.27188,1.47031 -0.22372,0.84421 -0.54718,1.7438 -0.2938,0.7114 -1.21112,2.6304 -0.1817,0.15219 -2.55609,1.5954 -1.06699,0.4267 -0.16741,0.0327 0.82791,1.6218 0.11319,0.23019 0.0755,0.20911 0.0582,0.2102 -0.013,0.185 -0.0227,0.0768 -0.025,0.0851 -0.1155,0.0989 -1.13639,0.2919 -1.06091,0.26038 0.53171,3.09311 z" id="path499" style="stroke-width:0.0625;stroke-miterlimit:4;stroke-dasharray:none"/>
  </g>
  <g id="SAN_PIER_D-ISONZO" style="fill:#f8c300;fill-opacity:1;stroke:#000000;stroke-width:0.0625;stroke-linejoin:round;stroke-miterlimit:4;stroke-opacity:1;stroke-dasharray:none" transform="matrix(32,0,0,32,-10953.988,-10230.457)">
    <path d="m 413.629,425.6076 1.58969,-0.56661 0.86581,-2.07239 0.0398,-0.14801 0.015,-0.0558 -0.1452,-5.00229 -0.0489,-0.37222 -0.3197,-0.27979 -0.9325,-3.21679 -0.007,-0.13761 0.27469,-2.10791 -0.0973,-2.22598 -0.67541,-1.34692 -1.24469,-1.28818 -1.15421,0.3591 -0.1987,0.10278 -0.12509,0.0647 -0.2185,0.18402 -0.0351,0.0442 -0.01,0.0125 -0.1394,0.1756 -0.112,0.28079 -0.12302,0.35611 -0.0337,0.10388 -0.0853,0.26301 -0.1105,0.3526 -0.0372,0.2221 0.053,0.3804 0.0306,0.2215 0.0277,0.20029 0.0288,0.6308 3.9e-4,0.22512 -0.125,0.25888 -0.54629,1.02881 -0.12281,0.14511 -0.50351,0.4191 -3.82928,2.9086 -0.285,0.21198 -0.9928,0.45932 -2.582,1.92379 -1.1503,0.9614 -0.2525,2.103 4.60629,0.0598 0.1138,0.0211 0.0124,0.003 1.6907,0.7557 2.88752,1.9946 0.9862,0.74579 0.65729,0.63229 2.3631,0.009 z" id="path505" style="stroke-width:0.0625;stroke-miterlimit:4;stroke-dasharray:none"/>
  </g>
  <g id="SAVOGNA_D-ISONZO" style="fill:#f8c300;fill-opacity:1;stroke:#000000;stroke-width:0.0625;stroke-linejoin:round;stroke-miterlimit:4;stroke-opacity:1;stroke-dasharray:none" transform="matrix(32,0,0,32,-10953.988,-10230.457)">
    <path d="m 437.88809,405.79691 0.93649,0.54769 11.71412,-1.97509 0.47189,-0.27741 0.73492,-2.12601 -0.0778,-1.17028 0.10642,-1.53852 1.31628,-3.06079 1.30341,0.67301 0.0334,0.006 0.29461,0.0531 0.34281,-0.0708 0.1448,-0.11609 4.0329,-5.67139 0.20929,-0.51132 0.16891,-0.42068 1.04438,-2.9217 -0.9885,0.43848 -0.14191,-0.0243 -2.17398,-0.37271 -3.46701,-0.594 -1.70398,-0.41519 -0.30511,-0.0742 -0.0247,-0.006 -0.87961,-0.68851 0.005,-0.17489 0.1896,-0.41541 1.0426,-2.0419 0.24451,-0.4007 -0.78021,-0.24881 -4.1232,1.2706 -0.013,0.008 -1.0604,0.62171 -4.27472,2.5823 -1.20169,4.5329 1.1471,1.03909 0.0663,0.18961 -0.14859,0.83359 -0.0882,0.2081 -0.1286,0.1087 -1.87879,1.63751 -2.57611,2.29001 0.31992,1.43259 0.38269,4.4588 -0.21671,2.38541 z" id="path532" style="stroke-width:0.0625;stroke-miterlimit:4;stroke-dasharray:none"/>
  </g>
  <g id="STARANZANO" style="fill:#f8c300;fill-opacity:1;stroke:#000000;stroke-width:0.0625;stroke-linejoin:round;stroke-miterlimit:4;stroke-opacity:1;stroke-dasharray:none" transform="matrix(32,0,0,32,-10953.988,-10230.457)">
    <path d="m 415.15591,429.02679 -0.7218,0.1449 1.3609,4.6131 0.4639,0.81781 0.46079,0.6973 0.30841,0.36151 0.2427,0.2016 0.3017,0.2124 0.1481,0.1044 0.0551,0.0369 0.42709,2.22988 0.1868,2.12772 0.0762,4.05078 -0.0174,0.39581 -0.31378,2.02121 -0.0871,1.8252 0.009,0.24319 1.43521,3.34259 3.6673,6.79392 0.67178,1.02609 0.55741,0.73252 0.32431,0.32238 6.03079,5.57669 0.7102,0.659 0.41709,0.37222 0.7518,0.64878 0.5549,0.38211 7.92062,3.3233 0.12229,0.0366 0.25259,-0.91208 -0.0224,-0.09 -0.30639,-0.52627 -5.83841,-4.7934 -3.74509,-5.07571 -0.92001,-0.5444 -0.1966,-2.64341 -0.0197,-2.2153 0.005,-0.0842 0.008,-0.084 0.0377,-0.42001 0.20819,-0.66989 1.2945,-2.7439 0.0849,-0.1745 0.1492,-0.2258 0.0515,-0.0604 0.0697,-0.034 0.4617,-0.2121 -0.5224,-0.0615 -0.0507,-0.0198 -0.18161,-0.0737 -1.33529,-1.17819 -0.2652,-0.29379 -0.11331,-0.2471 -0.39771,-1.14142 -2.28988,-7.2674 -0.48572,-1.596 0.0602,-0.0423 0.0676,-0.0475 0.40451,-0.10141 0.971,-0.47448 0.63419,-0.35431 0.0988,-0.0893 0.0685,-0.1586 0.0444,-2.8154 -0.007,-0.17349 -0.0434,-0.07 -0.43252,-0.0733 -0.42319,-0.0262 -0.3302,0.0487 -0.26929,0.1113 -0.3291,0.15002 -0.76312,0.18238 -0.0577,0.003 -0.27692,0.0156 -0.41488,-0.009 -0.36499,-0.0398 -0.22092,-0.1604 -0.1149,-0.3316 -0.21881,-0.94959 0.0236,-0.32159 0.0921,-0.27982 0.007,-0.0207 0.10528,-0.19241 -0.4436,0.24072 -0.254,0.0763 -1.2958,0.1564 -0.32599,-0.0924 -0.0528,-0.0157 -0.0226,-0.007 -0.27228,-0.0837 -0.35822,-0.11542 -6.77758,-3.371 -0.5037,-0.4802 z" id="path553" style="stroke-width:0.0625;stroke-miterlimit:4;stroke-dasharray:none"/>
  </g>
  <g id="TURRIACO" style="fill:#f8c300;fill-opacity:1;stroke:#000000;stroke-width:0.0625;stroke-linejoin:round;stroke-miterlimit:4;stroke-opacity:1;stroke-dasharray:none" transform="matrix(32,0,0,32,-10953.988,-10230.457)">
    <path d="m 411.2659,425.59869 -0.65729,-0.63229 -0.9862,-0.74579 -2.88752,-1.9946 -1.6907,-0.7557 -0.0124,-0.003 -0.1138,-0.0211 -4.60629,-0.0598 -0.51541,0.23059 -0.15329,0.0697 -0.0116,0.4722 0.0932,9.25461 0.6221,2.11941 2.01099,-0.70172 9.13009,-5.21429 0.1908,-1.60199 -0.41269,-0.41642 z" id="path624" style="stroke-width:0.0625;stroke-miterlimit:4;stroke-dasharray:none"/>
  </g>
  <g id="VILLESSE" style="fill:#f8c300;fill-opacity:1;stroke:#000000;stroke-width:0.0625;stroke-linejoin:round;stroke-miterlimit:4;stroke-opacity:1;stroke-dasharray:none" transform="matrix(32,0,0,32,-10953.988,-10230.457)">
    <path d="m 396.3663,414.44958 0.30509,0.38642 -0.0856,0.54611 -0.11648,0.4664 -0.17111,0.2479 -0.18308,0.27688 -0.10501,0.40781 -0.005,0.60339 1.17862,1.33652 0.64038,-0.0339 0.97641,-0.007 0.45679,1.8e-4 1.23471,0.5651 0.0721,0.0378 1.1503,-0.9614 2.582,-1.92379 0.9928,-0.45932 0.285,-0.21198 3.82928,-2.9086 0.50351,-0.4191 0.12281,-0.14511 0.54629,-1.02881 0.125,-0.25888 -3.9e-4,-0.22512 -0.0288,-0.6308 -0.0277,-0.20029 -0.0306,-0.2215 -0.053,-0.3804 0.0372,-0.2221 0.1105,-0.3526 0.0853,-0.26301 0.0337,-0.10388 0.12302,-0.35611 0.112,-0.28079 0.1394,-0.1756 0.01,-0.0125 0.0351,-0.0442 0.2185,-0.18402 0.12509,-0.0647 0.1987,-0.10278 1.15421,-0.3591 0.93429,-1.15881 -2.77069,-4.57221 -2.7416,-1.88519 -0.26639,0.12009 -0.14102,0.0659 -0.15738,0.10089 -0.65692,0.5055 -2.35328,2.3374 -0.19052,0.2139 -0.0477,0.0535 -3.46389,0.84008 -2.3974,0.79901 0.32489,2.13938 -5.37799,4.93252 2.7286,3.17047 z" id="path651" style="stroke-width:0.0625;stroke-miterlimit:4;stroke-dasharray:none"/>
  </g>
</svg>
