<?xml version="1.0"?>
<svg xmlns="http://www.w3.org/2000/svg" xmlns:xlink="http://www.w3.org/1999/xlink" id="L5" style="enable-background:new 0 0 5500 5500;" version="1.1" viewBox="0 0 5500 5500" x="0px" xml:space="preserve" y="0px" width="5500" height="5500">
  <style type="text/css">.LBox{fill:none;}.Obstacles{opacity:0.1;}.Escalators{fill:#F7E7D0;}.Elevators{fill:#F7E7D0;}.Units{fill:#F7E7D0;}.Streets-Major{fill:none;stroke:#FCFCFC;stroke-width:86;stroke-linejoin:round;stroke-miterlimit:10;}.Streets-Minor{fill:none;stroke:#EAEAEA;stroke-width:34;stroke-linejoin:round;stroke-miterlimit:10;}.Streets-SmallAlleys{fill:none;stroke:#A0A0A0;stroke-width:10;stroke-linejoin:round;stroke-miterlimit:10;}.Mall-Boundary{fill:#678592;}.Background{fill:#C0CECE;}.Interior-ParkingLots{fill:#526B72;}</style>
  <g id="Background_18_" class="Background-Layer">
    <rect class="Background" height="5500" width="5500" stroke="" stroke-linejoin="" stroke-miterlimit="" stroke-width="" style="fill: rgb(206, 219, 219); pointer-events: none;" vector-effect="none"/>
  </g>
  <g id="Parking-Lots_6_" class="Parking-Lots-Layer"/>
  <g id="Interior-ParkingLots_4_" class="Interior-ParkingLots-Layer">
    <polygon class="Interior-ParkingLots" points="2730.372,3301.789 2839.519,3410.542 3436.076,2812.072 3329.581,2702.577     " stroke="" stroke-linejoin="" stroke-miterlimit="" stroke-width="" style="fill: rgb(219, 226, 222); pointer-events: none;" vector-effect="none"/>
  </g>
  <g id="Mall-Boundary_6_" class="Mall-Boundary-Layer">
    <polygon class="Mall-Boundary" points="2210.927,2832.136 2434.44,2614.263 2662.041,2392.753 2662.787,2393.518    2664.07,2392.266 2668.126,2396.427 2666.603,2397.913 2979.963,2719.403 3020.794,2679.628 3144.236,2806.265 2792.39,3150.977    2765.784,3123.682 2762.808,3120.628 2763.632,3119.824 2762.024,3118.175 2756.733,3123.333 2663.597,3027.786 2673.171,3018.454    2574.842,2917.58 2430.275,3059.705 2430.121,3059.856 2429.032,3058.739 2428.758,3059.007 2210.885,2835.495 2211.434,2834.959    2210.312,2833.808 2211.463,2832.686  " stroke="" stroke-linejoin="" stroke-miterlimit="" stroke-width="" style="fill: rgb(168, 187, 191); pointer-events: none;" vector-effect="none"/>
  </g>
  <g id="Streets-SmallAlleys_6_" class="Streets-SmallAlleys-Layer">
    <line class="Streets-SmallAlleys" x1="814.828" x2="3549.164" y1="5516" y2="2774.142" stroke="#BFC9CF" stroke-linejoin="round" stroke-miterlimit="round" stroke-width="10" style="stroke-width: 10px; fill: none; stroke: rgb(191, 201, 207); pointer-events: none;" vector-effect="none"/>
    <line class="Streets-SmallAlleys" x1="1078.775" x2="2978.624" y1="5556" y2="3641.918" stroke="#BFC9CF" stroke-linejoin="round" stroke-miterlimit="round" stroke-width="10" style="stroke-width: 10px; fill: none; stroke: rgb(191, 201, 207); pointer-events: none;" vector-effect="none"/>
    <line class="Streets-SmallAlleys" x1="-14" x2="1006.595" y1="4120.026" y2="3945.866" stroke="#BFC9CF" stroke-linejoin="round" stroke-miterlimit="round" stroke-width="10" style="stroke-width: 10px; fill: none; stroke: rgb(191, 201, 207); pointer-events: none;" vector-effect="none"/>
    <line class="Streets-SmallAlleys" x1="745.52" x2="1042.782" y1="5244.48" y2="5547.741" stroke="#BFC9CF" stroke-linejoin="round" stroke-miterlimit="round" stroke-width="10" style="stroke-width: 10px; fill: none; stroke: rgb(191, 201, 207); pointer-events: none;" vector-effect="none"/>
    <polyline class="Streets-SmallAlleys" points="769.515,5220.485 442.902,4887.873 2344.576,3004.196  " stroke="#BFC9CF" stroke-linejoin="round" stroke-miterlimit="round" stroke-width="10" style="stroke-width: 10px; fill: none; stroke: rgb(191, 201, 207); pointer-events: none;" vector-effect="none"/>
    <polyline class="Streets-SmallAlleys" points="1486.693,4145.071 2272.536,3364.177 2445.497,3532.144  " stroke="#BFC9CF" stroke-linejoin="round" stroke-miterlimit="round" stroke-width="10" style="stroke-width: 10px; fill: none; stroke: rgb(191, 201, 207); pointer-events: none;" vector-effect="none"/>
    <line class="Streets-SmallAlleys" x1="2401.189" x2="2902.424" y1="3588.811" y2="4096.045" stroke="#BFC9CF" stroke-linejoin="round" stroke-miterlimit="round" stroke-width="10" style="stroke-width: 10px; fill: none; stroke: rgb(191, 201, 207); pointer-events: none;" vector-effect="none"/>
    <line class="Streets-SmallAlleys" x1="2264.666" x2="2753.094" y1="4730.021" y2="5220.485" stroke="#BFC9CF" stroke-linejoin="round" stroke-miterlimit="round" stroke-width="10" style="stroke-width: 10px; fill: none; stroke: rgb(191, 201, 207); pointer-events: none;" vector-effect="none"/>
    <line class="Streets-SmallAlleys" x1="2565.994" x2="1894.305" y1="5414.96" y2="4730.021" stroke="#BFC9CF" stroke-linejoin="round" stroke-miterlimit="round" stroke-width="10" style="stroke-width: 10px; fill: none; stroke: rgb(191, 201, 207); pointer-events: none;" vector-effect="none"/>
    <line class="Streets-SmallAlleys" x1="2386.117" x2="1888.621" y1="5613.728" y2="5103.837" stroke="#BFC9CF" stroke-linejoin="round" stroke-miterlimit="round" stroke-width="10" style="stroke-width: 10px; fill: none; stroke: rgb(191, 201, 207); pointer-events: none;" vector-effect="none"/>
    <polyline class="Streets-SmallAlleys" points="2603.554,4719.906 3673.031,3654.881 3784.234,3544.142  " stroke="#BFC9CF" stroke-linejoin="round" stroke-miterlimit="round" stroke-width="10" style="stroke-width: 10px; fill: none; stroke: rgb(191, 201, 207); pointer-events: none;" vector-effect="none"/>
    <line class="Streets-SmallAlleys" x1="2761.811" x2="4196.83" y1="4867.812" y2="3432.649" stroke="#BFC9CF" stroke-linejoin="round" stroke-miterlimit="round" stroke-width="10" style="stroke-width: 10px; fill: none; stroke: rgb(191, 201, 207); pointer-events: none;" vector-effect="none"/>
    <line class="Streets-SmallAlleys" x1="3814.829" x2="3661.009" y1="3814.689" y2="3666.854" stroke="#BFC9CF" stroke-linejoin="round" stroke-miterlimit="round" stroke-width="10" style="stroke-width: 10px; fill: none; stroke: rgb(191, 201, 207); pointer-events: none;" vector-effect="none"/>
    <path class="Streets-SmallAlleys" d="M3268.056,5374.056l1297.902-1284.024c0,0,88.102-78.374,118.096-144.166" stroke="#BFC9CF" stroke-linejoin="round" stroke-miterlimit="round" stroke-width="10" style="stroke-width: 10px; fill: none; stroke: rgb(191, 201, 207); pointer-events: none;" vector-effect="none"/>
    <line class="Streets-SmallAlleys" x1="3124.085" x2="4534.084" y1="5230.085" y2="3790.092" stroke="#BFC9CF" stroke-linejoin="round" stroke-miterlimit="round" stroke-width="10" style="stroke-width: 10px; fill: none; stroke: rgb(191, 201, 207); pointer-events: none;" vector-effect="none"/>
    <line class="Streets-SmallAlleys" x1="3312.384" x2="3498" y1="4672" y2="4867.812" stroke="#BFC9CF" stroke-linejoin="round" stroke-miterlimit="round" stroke-width="10" style="stroke-width: 10px; fill: none; stroke: rgb(191, 201, 207); pointer-events: none;" vector-effect="none"/>
    <line class="Streets-SmallAlleys" x1="2789.674" x2="3289.984" y1="5192.308" y2="5691.712" stroke="#BFC9CF" stroke-linejoin="round" stroke-miterlimit="round" stroke-width="10" style="stroke-width: 10px; fill: none; stroke: rgb(191, 201, 207); pointer-events: none;" vector-effect="none"/>
    <line class="Streets-SmallAlleys" x1="2664.803" x2="2968.397" y1="5316.604" y2="5613.728" stroke="#BFC9CF" stroke-linejoin="round" stroke-miterlimit="round" stroke-width="10" style="stroke-width: 10px; fill: none; stroke: rgb(191, 201, 207); pointer-events: none;" vector-effect="none"/>
    <line class="Streets-SmallAlleys" x1="1186.753" x2="1006.595" y1="1456.559" y2="1480.554" stroke="#BFC9CF" stroke-linejoin="round" stroke-miterlimit="round" stroke-width="10" style="stroke-width: 10px; fill: none; stroke: rgb(191, 201, 207); pointer-events: none;" vector-effect="none"/>
    <line class="Streets-SmallAlleys" x1="1366.717" x2="1546.682" y1="1432.564" y2="1408.569" stroke="#BFC9CF" stroke-linejoin="round" stroke-miterlimit="round" stroke-width="10" style="stroke-width: 10px; fill: none; stroke: rgb(191, 201, 207); pointer-events: none;" vector-effect="none"/>
    <line class="Streets-SmallAlleys" x1="814.828" x2="988.793" y1="1372.576" y2="1348.581" stroke="#BFC9CF" stroke-linejoin="round" stroke-miterlimit="round" stroke-width="10" style="stroke-width: 10px; fill: none; stroke: rgb(191, 201, 207); pointer-events: none;" vector-effect="none"/>
    <line class="Streets-SmallAlleys" x1="598.871" x2="460.899" y1="1402.57" y2="1420.566" stroke="#BFC9CF" stroke-linejoin="round" stroke-miterlimit="round" stroke-width="10" style="stroke-width: 10px; fill: none; stroke: rgb(191, 201, 207); pointer-events: none;" vector-effect="none"/>
    <line class="Streets-SmallAlleys" x1="412.908" x2="959.177" y1="1198.611" y2="1126.625" stroke="#BFC9CF" stroke-linejoin="round" stroke-miterlimit="round" stroke-width="10" style="stroke-width: 10px; fill: none; stroke: rgb(191, 201, 207); pointer-events: none;" vector-effect="none"/>
    <line class="Streets-SmallAlleys" x1="940.803" x2="1018.787" y1="976.655" y2="964.657" stroke="#BFC9CF" stroke-linejoin="round" stroke-miterlimit="round" stroke-width="10" style="stroke-width: 10px; fill: none; stroke: rgb(191, 201, 207); pointer-events: none;" vector-effect="none"/>
    <line class="Streets-SmallAlleys" x1="623.168" x2="634.864" y1="1170.903" y2="1276.595" stroke="#BFC9CF" stroke-linejoin="round" stroke-miterlimit="round" stroke-width="10" style="stroke-width: 10px; fill: none; stroke: rgb(191, 201, 207); pointer-events: none;" vector-effect="none"/>
    <line class="Streets-SmallAlleys" x1="761.116" x2="772.836" y1="1152.725" y2="1252.6" stroke="#BFC9CF" stroke-linejoin="round" stroke-miterlimit="round" stroke-width="10" style="stroke-width: 10px; fill: none; stroke: rgb(191, 201, 207); pointer-events: none;" vector-effect="none"/>
    <line class="Streets-SmallAlleys" x1="3538.283" x2="4000.191" y1="1822.486" y2="1336.583" stroke="#BFC9CF" stroke-linejoin="round" stroke-miterlimit="round" stroke-width="10" style="stroke-width: 10px; fill: none; stroke: rgb(191, 201, 207); pointer-events: none;" vector-effect="none"/>
    <path class="Streets-SmallAlleys" d="M3853.455,1105.872c0,0-39.227,68.744,32.759,128.732   c71.986,59.988,347.93,311.938,347.93,311.938" stroke="#BFC9CF" stroke-linejoin="round" stroke-miterlimit="round" stroke-width="10" style="stroke-width: 10px; fill: none; stroke: rgb(191, 201, 207); pointer-events: none;" vector-effect="none"/>
    <line class="Streets-SmallAlleys" x1="3913.428" x2="4615.497" y1="1717.252" y2="1003.272" stroke="#BFC9CF" stroke-linejoin="round" stroke-miterlimit="round" stroke-width="10" style="stroke-width: 10px; fill: none; stroke: rgb(191, 201, 207); pointer-events: none;" vector-effect="none"/>
    <line class="Streets-SmallAlleys" x1="4636.063" x2="4792.032" y1="3376.175" y2="3544.142" stroke="#BFC9CF" stroke-linejoin="round" stroke-miterlimit="round" stroke-width="10" style="stroke-width: 10px; fill: none; stroke: rgb(191, 201, 207); pointer-events: none;" vector-effect="none"/>
    <path class="Streets-SmallAlleys" d="M5272.089,3712.304l-246.104-279.655c0,0-40.01-63.502-115.986,0   c-75.976,63.502-225.946,225.469-225.946,225.469s-41.992,11.998,17.996,71.986c59.988,59.988,77.984,73.896,77.984,73.896   s5.999,58.078,83.983-19.906s250.583-250.747,250.583-250.747" stroke="#BFC9CF" stroke-linejoin="round" stroke-miterlimit="round" stroke-width="10" style="stroke-width: 10px; fill: none; stroke: rgb(191, 201, 207); pointer-events: none;" vector-effect="none"/>
    <polyline class="Streets-SmallAlleys" points="4977.995,2344.382 5139.963,2506.296 4924.006,2726.969  " stroke="#BFC9CF" stroke-linejoin="round" stroke-miterlimit="round" stroke-width="10" style="stroke-width: 10px; fill: none; stroke: rgb(191, 201, 207); pointer-events: none;" vector-effect="none"/>
    <line class="Streets-SmallAlleys" x1="4954" x2="5949.801" y1="2044.442" y2="3034.244" stroke="#BFC9CF" stroke-linejoin="round" stroke-miterlimit="round" stroke-width="10" style="stroke-width: 10px; fill: none; stroke: rgb(191, 201, 207); pointer-events: none;" vector-effect="none"/>
    <polyline class="Streets-SmallAlleys" points="3202.771,2421.952 3028.385,2612.616 3193.894,2777.01  " stroke="#BFC9CF" stroke-linejoin="round" stroke-miterlimit="round" stroke-width="10" style="stroke-width: 10px; fill: none; stroke: rgb(191, 201, 207); pointer-events: none;" vector-effect="none"/>
    <polyline class="Streets-SmallAlleys" points="2497.406,3142.222 2620.88,3022.34 2794.11,3195.89  " stroke="#BFC9CF" stroke-linejoin="round" stroke-miterlimit="round" stroke-width="10" style="stroke-width: 10px; fill: none; stroke: rgb(191, 201, 207); pointer-events: none;" vector-effect="none"/>
    <line class="Streets-SmallAlleys" x1="3850.59" x2="3904.21" y1="-22.84" y2="388.773" stroke="#BFC9CF" stroke-linejoin="round" stroke-miterlimit="round" stroke-width="10" style="stroke-width: 10px; fill: none; stroke: rgb(191, 201, 207); pointer-events: none;" vector-effect="none"/>
    <polyline class="Streets-SmallAlleys" points="3238.343,226.805 3238.343,268.797 2799.084,340.782  " stroke="#BFC9CF" stroke-linejoin="round" stroke-miterlimit="round" stroke-width="10" style="stroke-width: 10px; fill: none; stroke: rgb(191, 201, 207); pointer-events: none;" vector-effect="none"/>
    <polyline class="Streets-SmallAlleys" points="1570.677,1717.252 1696.651,1696.511 1720.647,1892  " stroke="#BFC9CF" stroke-linejoin="round" stroke-miterlimit="round" stroke-width="10" style="stroke-width: 10px; fill: none; stroke: rgb(191, 201, 207); pointer-events: none;" vector-effect="none"/>
    <line class="Streets-SmallAlleys" x1="1918.607" x2="2116.567" y1="424.765" y2="400.77" stroke="#BFC9CF" stroke-linejoin="round" stroke-miterlimit="round" stroke-width="10" style="stroke-width: 10px; fill: none; stroke: rgb(191, 201, 207); pointer-events: none;" vector-effect="none"/>
    <line class="Streets-SmallAlleys" x1="2164.924" x2="2199.625" y1="247.087" y2="424.765" stroke="#BFC9CF" stroke-linejoin="round" stroke-miterlimit="round" stroke-width="10" style="stroke-width: 10px; fill: none; stroke: rgb(191, 201, 207); pointer-events: none;" vector-effect="none"/>
    <line class="Streets-SmallAlleys" x1="2318.333" x2="2344.576" y1="222.522" y2="400.77" stroke="#BFC9CF" stroke-linejoin="round" stroke-miterlimit="round" stroke-width="10" style="stroke-width: 10px; fill: none; stroke: rgb(191, 201, 207); pointer-events: none;" vector-effect="none"/>
    <line class="Streets-SmallAlleys" x1="2978.624" x2="2998.391" y1="1510.548" y2="1690.512" stroke="#BFC9CF" stroke-linejoin="round" stroke-miterlimit="round" stroke-width="10" style="stroke-width: 10px; fill: none; stroke: rgb(191, 201, 207); pointer-events: none;" vector-effect="none"/>
    <line class="Streets-SmallAlleys" x1="2590.589" x2="3590.098" y1="1170.903" y2="995.005" stroke="#BFC9CF" stroke-linejoin="round" stroke-miterlimit="round" stroke-width="10" style="stroke-width: 10px; fill: none; stroke: rgb(191, 201, 207); pointer-events: none;" vector-effect="none"/>
    <line class="Streets-SmallAlleys" x1="2536.043" x2="3018.713" y1="790.763" y2="712.708" stroke="#BFC9CF" stroke-linejoin="round" stroke-miterlimit="round" stroke-width="10" style="stroke-width: 10px; fill: none; stroke: rgb(191, 201, 207); pointer-events: none;" vector-effect="none"/>
    <line class="Streets-SmallAlleys" x1="3328.325" x2="3334.515" y1="692" y2="851.874" stroke="#BFC9CF" stroke-linejoin="round" stroke-miterlimit="round" stroke-width="10" style="stroke-width: 10px; fill: none; stroke: rgb(191, 201, 207); pointer-events: none;" vector-effect="none"/>
    <line class="Streets-SmallAlleys" x1="3322.326" x2="3382.314" y1="70.836" y2="454.759" stroke="#BFC9CF" stroke-linejoin="round" stroke-miterlimit="round" stroke-width="10" style="stroke-width: 10px; fill: none; stroke: rgb(191, 201, 207); pointer-events: none;" vector-effect="none"/>
    <line class="Streets-SmallAlleys" x1="3470.901" x2="3639.716" y1="262.798" y2="226.805" stroke="#BFC9CF" stroke-linejoin="round" stroke-miterlimit="round" stroke-width="10" style="stroke-width: 10px; fill: none; stroke: rgb(191, 201, 207); pointer-events: none;" vector-effect="none"/>
    <path class="Streets-SmallAlleys" d="M4636.063,2116.427c0,0-71.985-47.99,0-119.976   c71.986-71.986,885.937-863.827,885.937-863.827" stroke="#BFC9CF" stroke-linejoin="round" stroke-miterlimit="round" stroke-width="10" style="stroke-width: 10px; fill: none; stroke: rgb(191, 201, 207); pointer-events: none;" vector-effect="none"/>
    <line class="Streets-SmallAlleys" x1="253.94" x2="585.434" y1="2334.156" y2="2278.624" stroke="#BFC9CF" stroke-linejoin="round" stroke-miterlimit="round" stroke-width="10" style="stroke-width: 10px; fill: none; stroke: rgb(191, 201, 207); pointer-events: none;" vector-effect="none"/>
    <line class="Streets-SmallAlleys" x1="706.849" x2="826.481" y1="1276.595" y2="2030.341" stroke="#BFC9CF" stroke-linejoin="round" stroke-miterlimit="round" stroke-width="10" style="stroke-width: 10px; fill: none; stroke: rgb(191, 201, 207); pointer-events: none;" vector-effect="none"/>
    <line class="Streets-SmallAlleys" x1="748.841" x2="580.625" y1="2224.406" y2="2248.44" stroke="#BFC9CF" stroke-linejoin="round" stroke-miterlimit="round" stroke-width="10" style="stroke-width: 10px; fill: none; stroke: rgb(191, 201, 207); pointer-events: none;" vector-effect="none"/>
    <path class="Streets-SmallAlleys" d="M1276.707,3513.54c0,0,48.019,9.119,36.021-109.114S778.336-13.147,778.336-13.147" stroke="#BFC9CF" stroke-linejoin="round" stroke-miterlimit="round" stroke-width="10" style="stroke-width: 10px; fill: none; stroke: rgb(191, 201, 207); pointer-events: none;" vector-effect="none"/>
    <line class="Streets-SmallAlleys" x1="4222.146" x2="4090.173" y1="4701.91" y2="4569.937" stroke="#BFC9CF" stroke-linejoin="round" stroke-miterlimit="round" stroke-width="10" style="stroke-width: 10px; fill: none; stroke: rgb(191, 201, 207); pointer-events: none;" vector-effect="none"/>
    <line class="Streets-SmallAlleys" x1="3869.855" x2="4078.175" y1="4538.314" y2="4335.983" stroke="#BFC9CF" stroke-linejoin="round" stroke-miterlimit="round" stroke-width="10" style="stroke-width: 10px; fill: none; stroke: rgb(191, 201, 207); pointer-events: none;" vector-effect="none"/>
    <line class="Streets-SmallAlleys" x1="3922" x2="4126.166" y1="4605.929" y2="4413.968" stroke="#BFC9CF" stroke-linejoin="round" stroke-miterlimit="round" stroke-width="10" style="stroke-width: 10px; fill: none; stroke: rgb(191, 201, 207); pointer-events: none;" vector-effect="none"/>
    <line class="Streets-SmallAlleys" x1="4163.115" x2="4298" y1="4168.953" y2="4299.99" stroke="#BFC9CF" stroke-linejoin="round" stroke-miterlimit="round" stroke-width="10" style="stroke-width: 10px; fill: none; stroke: rgb(191, 201, 207); pointer-events: none;" vector-effect="none"/>
    <line class="Streets-SmallAlleys" x1="5343.922" x2="5522" y1="1990.452" y2="1822.486" stroke="#BFC9CF" stroke-linejoin="round" stroke-miterlimit="round" stroke-width="10" style="stroke-width: 10px; fill: none; stroke: rgb(191, 201, 207); pointer-events: none;" vector-effect="none"/>
  </g>
  <g id="Streets-Minor_6_" class="Streets-Minor-Layer">
    <line class="Streets-Minor" x1="-14" x2="4962" y1="4964" y2="0" stroke="#fcfcfc" stroke-linejoin="round" stroke-miterlimit="round" stroke-width="34" style="stroke-width: 34px; fill: none; stroke: rgb(252, 252, 252); pointer-events: none;" vector-effect="none"/>
    <line class="Streets-Minor" x1="5522" x2="2871.66" y1="4780" y2="2085.299" stroke="#fcfcfc" stroke-linejoin="round" stroke-miterlimit="round" stroke-width="34" style="stroke-width: 34px; fill: none; stroke: rgb(252, 252, 252); pointer-events: none;" vector-effect="none"/>
    <path class="Streets-Minor" d="M-38,2172l1904-312c0,0,96,624,112,719.669s64,119.481,64,119.481l120,121.412L4826,5500" stroke="#fcfcfc" stroke-linejoin="round" stroke-miterlimit="round" stroke-width="34" style="stroke-width: 34px; fill: none; stroke: rgb(252, 252, 252); pointer-events: none;" vector-effect="none"/>
    <path class="Streets-Minor" d="M1866,1860l1240-200c0,0,111.968-16.032,183.984,7.984" stroke="#fcfcfc" stroke-linejoin="round" stroke-miterlimit="round" stroke-width="34" style="stroke-width: 34px; fill: none; stroke: rgb(252, 252, 252); pointer-events: none;" vector-effect="none"/>
    <line class="Streets-Minor" x1="-14" x2="3802.611" y1="1780" y2="1156.593" stroke="#fcfcfc" stroke-linejoin="round" stroke-miterlimit="round" stroke-width="34" style="stroke-width: 34px; fill: none; stroke: rgb(252, 252, 252); pointer-events: none;" vector-effect="none"/>
    <path class="Streets-Minor" d="M3394,5500L1434,3540c0,0-80-48-240-16S-38,3724-38,3724" stroke="#fcfcfc" stroke-linejoin="round" stroke-miterlimit="round" stroke-width="34" style="stroke-width: 34px; fill: none; stroke: rgb(252, 252, 252); pointer-events: none;" vector-effect="none"/>
    <line class="Streets-Minor" x1="-14" x2="1932.354" y1="3356" y2="3022.34" stroke="#fcfcfc" stroke-linejoin="round" stroke-miterlimit="round" stroke-width="34" style="stroke-width: 34px; fill: none; stroke: rgb(252, 252, 252); pointer-events: none;" vector-effect="none"/>
    <line class="Streets-Minor" x1="1474" x2="5522" y1="5516" y2="1492" stroke="#fcfcfc" stroke-linejoin="round" stroke-miterlimit="round" stroke-width="34" style="stroke-width: 34px; fill: none; stroke: rgb(252, 252, 252); pointer-events: none;" vector-effect="none"/>
    <line class="Streets-Minor" x1="5522" x2="4298" y1="1892" y2="692" stroke="#fcfcfc" stroke-linejoin="round" stroke-miterlimit="round" stroke-width="34" style="stroke-width: 34px; fill: none; stroke: rgb(252, 252, 252); pointer-events: none;" vector-effect="none"/>
    <polyline class="Streets-Minor" points="-14,596 4882,-188 5538,452 450,5540  " stroke="#fcfcfc" stroke-linejoin="round" stroke-miterlimit="round" stroke-width="34" style="stroke-width: 34px; fill: none; stroke: rgb(252, 252, 252); pointer-events: none;" vector-effect="none"/>
    <line class="Streets-Minor" x1="3442" x2="5594" y1="5556" y2="3388" stroke="#fcfcfc" stroke-linejoin="round" stroke-miterlimit="round" stroke-width="34" style="stroke-width: 34px; fill: none; stroke: rgb(252, 252, 252); pointer-events: none;" vector-effect="none"/>
    <line class="Streets-Minor" x1="2464.488" x2="5505.89" y1="5516" y2="2488.575" stroke="#fcfcfc" stroke-linejoin="round" stroke-miterlimit="round" stroke-width="34" style="stroke-width: 34px; fill: none; stroke: rgb(252, 252, 252); pointer-events: none;" vector-effect="none"/>
    <line class="Streets-Minor" x1="-38" x2="1594.672" y1="226.805" y2="-37.142" stroke="#fcfcfc" stroke-linejoin="round" stroke-miterlimit="round" stroke-width="34" style="stroke-width: 34px; fill: none; stroke: rgb(252, 252, 252); pointer-events: none;" vector-effect="none"/>
    <polyline class="Streets-Minor" points="184.954,-235.103 856.819,3982.054 910.498,4041.731  " stroke="#fcfcfc" stroke-linejoin="round" stroke-miterlimit="round" stroke-width="34" style="stroke-width: 34px; fill: none; stroke: rgb(252, 252, 252); pointer-events: none;" vector-effect="none"/>
    <line class="Streets-Minor" x1="334.924" x2="28.985" y1="4060" y2="2152.42" stroke="#fcfcfc" stroke-linejoin="round" stroke-miterlimit="round" stroke-width="34" style="stroke-width: 34px; fill: none; stroke: rgb(252, 252, 252); pointer-events: none;" vector-effect="none"/>
    <line class="Streets-Minor" x1="484.894" x2="1966.095" y1="4032.946" y2="5516" stroke="#fcfcfc" stroke-linejoin="round" stroke-miterlimit="round" stroke-width="34" style="stroke-width: 34px; fill: none; stroke: rgb(252, 252, 252); pointer-events: none;" vector-effect="none"/>
    <line class="Streets-Minor" x1="-25.004" x2="4738.94" y1="988.653" y2="222.522" stroke="#fcfcfc" stroke-linejoin="round" stroke-miterlimit="round" stroke-width="34" style="stroke-width: 34px; fill: none; stroke: rgb(252, 252, 252); pointer-events: none;" vector-effect="none"/>
    <line class="Streets-Minor" x1="-25.004" x2="4090.173" y1="1390.572" y2="730.704" stroke="#fcfcfc" stroke-linejoin="round" stroke-miterlimit="round" stroke-width="34" style="stroke-width: 34px; fill: none; stroke: rgb(252, 252, 252); pointer-events: none;" vector-effect="none"/>
    <polyline class="Streets-Minor" points="3940.203,-181.113 4099.702,860.218 5085.974,1912.468  " stroke="#fcfcfc" stroke-linejoin="round" stroke-miterlimit="round" stroke-width="34" style="stroke-width: 34px; fill: none; stroke: rgb(252, 252, 252); pointer-events: none;" vector-effect="none"/>
    <line class="Streets-Minor" x1="2401.189" x2="2686.47" y1="-49.14" y2="1727.666" stroke="#fcfcfc" stroke-linejoin="round" stroke-miterlimit="round" stroke-width="34" style="stroke-width: 34px; fill: none; stroke: rgb(252, 252, 252); pointer-events: none;" vector-effect="none"/>
    <path class="Streets-Minor" d="M3412.308-97.13l230.11,1413.53C3586.836,1476.799,3770,1572,3770,1572l1730,1752" stroke="#fcfcfc" stroke-linejoin="round" stroke-miterlimit="round" stroke-width="34" style="stroke-width: 34px; fill: none; stroke: rgb(252, 252, 252); pointer-events: none;" vector-effect="none"/>
    <line class="Streets-Minor" x1="-84.992" x2="592.872" y1="4887.873" y2="5577.735" stroke="#fcfcfc" stroke-linejoin="round" stroke-miterlimit="round" stroke-width="34" style="stroke-width: 34px; fill: none; stroke: rgb(252, 252, 252); pointer-events: none;" vector-effect="none"/>
    <line class="Streets-Minor" x1="4450.101" x2="5522" y1="5529.745" y2="4472" stroke="#fcfcfc" stroke-linejoin="round" stroke-miterlimit="round" stroke-width="34" style="stroke-width: 34px; fill: none; stroke: rgb(252, 252, 252); pointer-events: none;" vector-effect="none"/>
    <line class="Streets-Minor" x1="2925.125" x2="3150.25" y1="-7.148" y2="1654.759" stroke="#fcfcfc" stroke-linejoin="round" stroke-miterlimit="round" stroke-width="34" style="stroke-width: 34px; fill: none; stroke: rgb(252, 252, 252); pointer-events: none;" vector-effect="none"/>
    <line class="Streets-Minor" x1="4262.183" x2="5529.885" y1="2070.442" y2="814.687" stroke="#fcfcfc" stroke-linejoin="round" stroke-miterlimit="round" stroke-width="34" style="stroke-width: 34px; fill: none; stroke: rgb(252, 252, 252); pointer-events: none;" vector-effect="none"/>
    <line class="Streets-Minor" x1="-31.003" x2="2852.159" y1="2563.559" y2="2104.752" stroke="#fcfcfc" stroke-linejoin="round" stroke-miterlimit="round" stroke-width="34" style="stroke-width: 34px; fill: none; stroke: rgb(252, 252, 252); pointer-events: none;" vector-effect="none"/>
    <line class="Streets-Minor" x1="-48.999" x2="1988.159" y1="2961.953" y2="2621.303" stroke="#fcfcfc" stroke-linejoin="round" stroke-miterlimit="round" stroke-width="34" style="stroke-width: 34px; fill: none; stroke: rgb(252, 252, 252); pointer-events: none;" vector-effect="none"/>
    <polyline class="Streets-Minor" points="1312.728,-61.137 1420.935,756.119 1493.097,1147.145 1557.816,1523.259    1601.672,1903.314 1790,3058.239  " stroke="#fcfcfc" stroke-linejoin="round" stroke-miterlimit="round" stroke-width="34" style="stroke-width: 34px; fill: none; stroke: rgb(252, 252, 252); pointer-events: none;" vector-effect="none"/>
  </g>
  <g id="Streets-Major_6_" class="Streets-Major-Layer">
    <path class="Streets-Major" d="M3754,5540c0,0,512-488,856-808s760-760,952-928" stroke="#eaeaea" stroke-linejoin="round" stroke-miterlimit="round" stroke-width="86" style="stroke-width: 86px; fill: none; stroke: rgb(234, 234, 234); pointer-events: none;" vector-effect="none"/>
    <path class="Streets-Major" d="M3922,5540c0,0,648-408,904-736s608-632,712-744" stroke="#eaeaea" stroke-linejoin="round" stroke-miterlimit="round" stroke-width="86" style="stroke-width: 86px; fill: none; stroke: rgb(234, 234, 234); pointer-events: none;" vector-effect="none"/>
  </g>
  <g id="Obstacles" class="Obstacles-Layer">
    <path class="Obstacles" d="M2584.932,2575.772l-0.069,0.067l5.265,5.401l0.756-0.737l35.781,36.703   c-17.156,36.08-1.815,79.237,34.265,96.394c10.175,4.838,21.339,7.233,32.603,6.993l90.957,93.312l23.202-22.616l19.468,19.972   l-6.021,5.87l16.705,17.137l35.442-34.548l0.049-0.121L2756.948,2680.2c17.661-35.84,2.924-79.211-32.916-96.873   c-19.58-9.648-42.469-9.94-62.289-0.795l-35.536-36.46l0.756-0.737l-5.265-5.401l-0.069,0.067l0.067,0.069l-36.697,35.771   L2584.932,2575.772z" stroke="" stroke-linejoin="" stroke-miterlimit="" stroke-width="0.5" style="stroke-width: 0.5px; fill: rgb(138, 158, 163); opacity: 1; pointer-events: none;" vector-effect="none"/>
  </g>
  <g id="#shadowGroup-126139" x="0" y="0" width="5500" height="5500" fill="rgba(0,0,0,0.1)" transform="translate(-1 1)">
    <polygon points="2228.926,2817.552 2229.93,2818.583 2234.878,2813.76 2233.874,2812.729 2245.865,2801.04     2246.87,2802.071 2251.818,2797.248 2250.813,2796.217 2262.805,2784.528 2263.81,2785.559 2268.757,2780.736 2267.752,2779.705     2279.744,2768.016 2280.749,2769.047 2285.697,2764.224 2284.692,2763.193 2296.684,2751.504 2297.688,2752.534     2302.636,2747.711 2301.632,2746.681 2311.321,2737.236 2312.326,2738.266 2315.625,2735.051 2314.62,2734.02 2324.639,2724.253     2334.514,2714.628 2335.519,2715.658 2338.817,2712.443 2337.813,2711.412 2347.502,2701.967 2348.507,2702.998     2353.455,2698.175 2352.45,2697.144 2364.442,2685.455 2365.447,2686.486 2370.394,2681.663 2369.39,2680.632 2381.381,2668.943     2382.386,2669.974 2387.334,2665.151 2386.329,2664.12 2398.321,2652.431 2399.325,2653.462 2404.273,2648.639 2403.269,2647.608     2415.054,2636.12 2415.26,2635.919 2416.265,2636.95 2421.213,2632.127 2420.208,2631.096 2432.2,2619.407 2433.205,2620.438     2437.654,2616.1 2466.257,2645.444 2509.999,2690.318 2559.971,2741.583 2654.991,2839.063 2603.846,2888.917 2602.373,2887.405     2599.074,2890.621 2600.548,2892.133 2586.907,2905.429 2585.433,2903.917 2582.135,2907.133 2583.608,2908.645     2569.967,2921.941 2568.493,2920.429 2565.195,2923.645 2566.669,2925.157 2553.028,2938.453 2551.554,2936.942     2548.255,2940.157 2549.729,2941.669 2536.088,2954.966 2534.615,2953.454 2531.316,2956.669 2532.79,2958.181 2519.149,2971.478     2517.675,2969.966 2514.376,2973.181 2515.85,2974.693 2502.209,2987.99 2500.736,2986.478 2497.437,2989.693 2498.911,2991.205     2485.27,3004.502 2483.796,3002.99 2480.497,3006.205 2481.971,3007.717 2468.33,3021.014 2466.856,3019.502 2463.558,3022.718     2465.031,3024.229 2451.391,3037.526 2449.917,3036.014 2446.618,3039.23 2448.092,3040.741 2432.201,3056.232 2427.696,3051.611     2426.665,3052.615 2414.976,3040.624 2416.007,3039.619 2411.184,3034.671 2410.153,3035.676 2398.464,3023.684     2399.495,3022.679 2394.672,3017.732 2393.641,3018.736 2381.952,3006.745 2382.982,3005.74 2378.159,3000.792 2377.129,3001.797     2365.64,2990.011 2365.439,2989.805 2366.47,2988.801 2361.647,2983.853 2360.616,2984.857 2348.927,2972.866 2349.958,2971.861     2345.135,2966.913 2344.104,2967.918 2332.415,2955.926 2333.446,2954.921 2328.623,2949.974 2327.592,2950.979     2315.903,2938.987 2316.934,2937.982 2312.111,2933.034 2311.08,2934.039 2299.391,2922.047 2300.422,2921.042 2295.599,2916.095     2294.568,2917.099 2282.879,2905.108 2283.91,2904.103 2279.087,2899.155 2278.056,2900.16 2266.367,2888.168 2267.398,2887.163     2262.574,2882.216 2261.544,2883.22 2249.855,2871.229 2250.885,2870.224 2246.063,2865.276 2245.032,2866.281 2233.343,2854.289     2234.373,2853.284 2229.55,2848.337 2228.52,2849.341 2216.83,2837.35 2217.861,2836.345 2214.864,2833.27 2217.939,2830.272     2216.934,2829.241   " class="Units-Shadow"/>
    <path d="M2585.229,2575.234l-66.423,64.806l-0.758-0.778l-11.579,11.287l1.689,1.738l-15.541,15.149l-2.523,2.46    l93.228,95.641l18.052,18.519l53.623,55.01l44.51,46.224l70.97-69.18l7.953-7.754l-7.556-7.752l-77.339-80.011    c-11.486,0.249-22.865-2.24-33.198-7.261c-35.949-17.468-50.931-60.772-33.463-96.721l-35.606-36.696l-0.756,0.737    L2585.229,2575.234z" class="Units-Shadow"/>
    <path d="M2662.199,2581.042l-34.339-35.077l0.498-0.486l-0.11-0.113l0.115-0.113l-6.022-6.188l65.194-63.558    l0.361,0.371l28.454-27.736l156.514,160.579l100.001,102.592l-39.358,38.365l-0.658-0.675l-21.727,21.357l-2.508-2.573    l-31.701,30.892l-1.322-1.356l-1.092,1.064l-0.908-0.932l-0.231,0.225l-115.3-118.3c17.568-36.307,2.377-79.98-33.93-97.548    C2704.625,2572.396,2681.938,2572.106,2662.199,2581.042z" class="Units-Shadow"/>
    <polygon points="3006.541,2935.474 2981.198,2909.465 2928.462,2961.259 2831.984,2861.648 2884.626,2810.201     2884.558,2810.132 2885.486,2809.262 2887.717,2811.551 2893.362,2806.048 2881.689,2794.03 2908.618,2767.791 2911.123,2770.36     2932.847,2749.006 2933.508,2749.678 2972.866,2711.315 2980.174,2718.812 3020.993,2679.024 3144.448,2805.676     3019.116,2928.466 3010.586,2936.824 2850.367,3093.793 2792.603,3150.386 2763.02,3120.038 2763.841,3119.245 2762.237,3117.585     2756.944,3122.742 2663.809,3027.196 2673.383,3017.864 2575.05,2916.987 2654.991,2839.063 2699.517,2885.27 2770.471,2816.106     2938.454,2988.438 2961.064,2966.401 2967.763,2973.273   " class="Units-Shadow"/>
    <polygon points="2445.734,2607.431 2449.626,2603.637 2450.85,2604.893 2665.356,2395.807 2716.35,2448.143     2687.9,2475.875 2687.535,2475.508 2622.342,2539.066 2574.92,2585.282 2518.806,2640.041 2518.048,2639.263 2506.469,2650.55     2508.16,2652.285 2490.093,2669.896 2438.485,2616.953 2446.958,2608.687   " class="Units-Shadow"/>
  </g>
  <g id="Units_24_" class="Units-Layer">
    <g stroke="#a8bbbf" stroke-linejoin="" stroke-miterlimit="" stroke-width="1.5" style="stroke-width: 1.5px; fill: rgb(255, 242, 224); stroke: rgb(168, 187, 191);" vector-effect="none">
      <polygon class="Units" data-unit="4510045" points="2228.926,2817.552 2229.93,2818.583 2234.878,2813.76 2233.874,2812.729 2245.865,2801.04     2246.87,2802.071 2251.818,2797.248 2250.813,2796.217 2262.805,2784.528 2263.81,2785.559 2268.757,2780.736 2267.752,2779.705     2279.744,2768.016 2280.749,2769.047 2285.697,2764.224 2284.692,2763.193 2296.684,2751.504 2297.688,2752.534     2302.636,2747.711 2301.632,2746.681 2311.321,2737.236 2312.326,2738.266 2315.625,2735.051 2314.62,2734.02 2324.639,2724.253     2334.514,2714.628 2335.519,2715.658 2338.817,2712.443 2337.813,2711.412 2347.502,2701.967 2348.507,2702.998     2353.455,2698.175 2352.45,2697.144 2364.442,2685.455 2365.447,2686.486 2370.394,2681.663 2369.39,2680.632 2381.381,2668.943     2382.386,2669.974 2387.334,2665.151 2386.329,2664.12 2398.321,2652.431 2399.325,2653.462 2404.273,2648.639 2403.269,2647.608     2415.054,2636.12 2415.26,2635.919 2416.265,2636.95 2421.213,2632.127 2420.208,2631.096 2432.2,2619.407 2433.205,2620.438     2437.654,2616.1 2466.257,2645.444 2509.999,2690.318 2559.971,2741.583 2654.991,2839.063 2603.846,2888.917 2602.373,2887.405     2599.074,2890.621 2600.548,2892.133 2586.907,2905.429 2585.433,2903.917 2582.135,2907.133 2583.608,2908.645     2569.967,2921.941 2568.493,2920.429 2565.195,2923.645 2566.669,2925.157 2553.028,2938.453 2551.554,2936.942     2548.255,2940.157 2549.729,2941.669 2536.088,2954.966 2534.615,2953.454 2531.316,2956.669 2532.79,2958.181 2519.149,2971.478     2517.675,2969.966 2514.376,2973.181 2515.85,2974.693 2502.209,2987.99 2500.736,2986.478 2497.437,2989.693 2498.911,2991.205     2485.27,3004.502 2483.796,3002.99 2480.497,3006.205 2481.971,3007.717 2468.33,3021.014 2466.856,3019.502 2463.558,3022.718     2465.031,3024.229 2451.391,3037.526 2449.917,3036.014 2446.618,3039.23 2448.092,3040.741 2432.201,3056.232 2427.696,3051.611     2426.665,3052.615 2414.976,3040.624 2416.007,3039.619 2411.184,3034.671 2410.153,3035.676 2398.464,3023.684     2399.495,3022.679 2394.672,3017.732 2393.641,3018.736 2381.952,3006.745 2382.982,3005.74 2378.159,3000.792 2377.129,3001.797     2365.64,2990.011 2365.439,2989.805 2366.47,2988.801 2361.647,2983.853 2360.616,2984.857 2348.927,2972.866 2349.958,2971.861     2345.135,2966.913 2344.104,2967.918 2332.415,2955.926 2333.446,2954.921 2328.623,2949.974 2327.592,2950.979     2315.903,2938.987 2316.934,2937.982 2312.111,2933.034 2311.08,2934.039 2299.391,2922.047 2300.422,2921.042 2295.599,2916.095     2294.568,2917.099 2282.879,2905.108 2283.91,2904.103 2279.087,2899.155 2278.056,2900.16 2266.367,2888.168 2267.398,2887.163     2262.574,2882.216 2261.544,2883.22 2249.855,2871.229 2250.885,2870.224 2246.063,2865.276 2245.032,2866.281 2233.343,2854.289     2234.373,2853.284 2229.55,2848.337 2228.52,2849.341 2216.83,2837.35 2217.861,2836.345 2214.864,2833.27 2217.939,2830.272     2216.934,2829.241   " waypoint-unit="52713" stroke="#a8bbbf" stroke-linejoin="" stroke-miterlimit="" stroke-width="1.5" style="stroke-width: 1.5px; fill: rgb(255, 242, 224); stroke: rgb(168, 187, 191);" vector-effect="none"/>
    </g>
    <g stroke="#a8bbbf" stroke-linejoin="" stroke-miterlimit="" stroke-width="1.5" style="stroke-width: 1.5px; fill: rgb(255, 242, 224); stroke: rgb(168, 187, 191);" vector-effect="none">
      <path class="Units" d="M2585.229,2575.234l-66.423,64.806l-0.758-0.778l-11.579,11.287l1.689,1.738l-15.541,15.149l-2.523,2.46    l93.228,95.641l18.052,18.519l53.623,55.01l44.51,46.224l70.97-69.18l7.953-7.754l-7.556-7.752l-77.339-80.011    c-11.486,0.249-22.865-2.24-33.198-7.261c-35.949-17.468-50.931-60.772-33.463-96.721l-35.606-36.696l-0.756,0.737    L2585.229,2575.234z" data-unit="4509964" waypoint-unit="45822" stroke="#a8bbbf" stroke-linejoin="" stroke-miterlimit="" stroke-width="1.5" style="stroke-width: 1.5px; fill: rgb(255, 242, 224); stroke: rgb(168, 187, 191);" vector-effect="none"/>
    </g>
    <g stroke="#a8bbbf" stroke-linejoin="" stroke-miterlimit="" stroke-width="1.5" style="stroke-width: 1.5px; fill: rgb(255, 242, 224); stroke: rgb(168, 187, 191);" vector-effect="none">
      <path class="Units JMap-empty-unit" d="M2662.199,2581.042l-34.339-35.077l0.498-0.486l-0.11-0.113l0.115-0.113l-6.022-6.188l65.194-63.558    l0.361,0.371l28.454-27.736l156.514,160.579l100.001,102.592l-39.358,38.365l-0.658-0.675l-21.727,21.357l-2.508-2.573    l-31.701,30.892l-1.322-1.356l-1.092,1.064l-0.908-0.932l-0.231,0.225l-115.3-118.3c17.568-36.307,2.377-79.98-33.93-97.548    C2704.625,2572.396,2681.938,2572.106,2662.199,2581.042z" stroke="#a8bbbf" stroke-linejoin="" stroke-miterlimit="" stroke-width="1.5" style="stroke-width: 1.5px; fill: rgb(255, 242, 224); stroke: rgb(168, 187, 191);" vector-effect="none"/>
    </g>
    <g stroke="#a8bbbf" stroke-linejoin="" stroke-miterlimit="" stroke-width="1.5" style="stroke-width: 1.5px; fill: rgb(255, 242, 224); stroke: rgb(168, 187, 191);" vector-effect="none">
      <polygon class="Units" data-unit="4509971" points="3006.541,2935.474 2981.198,2909.465 2928.462,2961.259 2831.984,2861.648 2884.626,2810.201     2884.558,2810.132 2885.486,2809.262 2887.717,2811.551 2893.362,2806.048 2881.689,2794.03 2908.618,2767.791 2911.123,2770.36     2932.847,2749.006 2933.508,2749.678 2972.866,2711.315 2980.174,2718.812 3020.993,2679.024 3144.448,2805.676     3019.116,2928.466 3010.586,2936.824 2850.367,3093.793 2792.603,3150.386 2763.02,3120.038 2763.841,3119.245 2762.237,3117.585     2756.944,3122.742 2663.809,3027.196 2673.383,3017.864 2575.05,2916.987 2654.991,2839.063 2699.517,2885.27 2770.471,2816.106     2938.454,2988.438 2961.064,2966.401 2967.763,2973.273   " waypoint-unit="45829" stroke="#a8bbbf" stroke-linejoin="" stroke-miterlimit="" stroke-width="1.5" style="stroke-width: 1.5px; fill: rgb(255, 242, 224); stroke: rgb(168, 187, 191);" vector-effect="none"/>
    </g>
    <g stroke="#a8bbbf" stroke-linejoin="" stroke-miterlimit="" stroke-width="1.5" style="stroke-width: 1.5px; fill: rgb(255, 242, 224); stroke: rgb(168, 187, 191);" vector-effect="none">
      <polygon class="Units JMap-empty-unit" points="2445.734,2607.431 2449.626,2603.637 2450.85,2604.893 2665.356,2395.807 2716.35,2448.143     2687.9,2475.875 2687.535,2475.508 2622.342,2539.066 2574.92,2585.282 2518.806,2640.041 2518.048,2639.263 2506.469,2650.55     2508.16,2652.285 2490.093,2669.896 2438.485,2616.953 2446.958,2608.687   " stroke="#a8bbbf" stroke-linejoin="" stroke-miterlimit="" stroke-width="1.5" style="stroke-width: 1.5px; fill: rgb(255, 242, 224); stroke: rgb(168, 187, 191);" vector-effect="none"/>
    </g>
  </g>
  <g id="Elevators_2_" class="Elevators-Layer">
    <g stroke="#202020" stroke-linejoin="" stroke-miterlimit="" stroke-width="1" style="stroke-width: 1px; fill: rgb(247, 231, 208); stroke: rgb(32, 32, 32); display: none; pointer-events: none;" vector-effect="none">
      <polygon class="Elevators" points="2951.854,2941.82 2957.366,2947.387 2950.838,2953.886 2945.077,2948.049   " stroke="#202020" stroke-linejoin="" stroke-miterlimit="" stroke-width="1" style="stroke-width: 1px; fill: rgb(247, 231, 208); stroke: rgb(32, 32, 32); display: none; pointer-events: none;" vector-effect="none"/>
    </g>
    <g stroke="#202020" stroke-linejoin="" stroke-miterlimit="" stroke-width="1" style="stroke-width: 1px; fill: rgb(247, 231, 208); stroke: rgb(32, 32, 32); display: none; pointer-events: none;" vector-effect="none">
      <polygon class="Elevators" points="2961.424,2932.461 2966.936,2938.028 2960.409,2944.527 2954.648,2938.69   " stroke="#202020" stroke-linejoin="" stroke-miterlimit="" stroke-width="1" style="stroke-width: 1px; fill: rgb(247, 231, 208); stroke: rgb(32, 32, 32); display: none; pointer-events: none;" vector-effect="none"/>
    </g>
    <g stroke="#202020" stroke-linejoin="" stroke-miterlimit="" stroke-width="1" style="stroke-width: 1px; fill: rgb(247, 231, 208); stroke: rgb(32, 32, 32); display: none; pointer-events: none;" vector-effect="none">
      <polygon class="Elevators" points="2970.889,2923.141 2976.401,2928.708 2969.874,2935.207 2964.113,2929.37   " stroke="#202020" stroke-linejoin="" stroke-miterlimit="" stroke-width="1" style="stroke-width: 1px; fill: rgb(247, 231, 208); stroke: rgb(32, 32, 32); display: none; pointer-events: none;" vector-effect="none"/>
    </g>
    <g stroke="#202020" stroke-linejoin="" stroke-miterlimit="" stroke-width="1" style="stroke-width: 1px; fill: rgb(247, 231, 208); stroke: rgb(32, 32, 32); display: none; pointer-events: none;" vector-effect="none">
      <polygon class="Elevators" points="2980.144,2913.93 2985.656,2919.497 2979.128,2925.996 2973.367,2920.159   " stroke="#202020" stroke-linejoin="" stroke-miterlimit="" stroke-width="1" style="stroke-width: 1px; fill: rgb(247, 231, 208); stroke: rgb(32, 32, 32); display: none; pointer-events: none;" vector-effect="none"/>
    </g>
    <g stroke="#202020" stroke-linejoin="" stroke-miterlimit="" stroke-width="1" style="stroke-width: 1px; fill: rgb(247, 231, 208); stroke: rgb(32, 32, 32); display: none; pointer-events: none;" vector-effect="none">
      <polygon class="Elevators" points="2968.755,2959.195 2974.267,2964.762 2967.74,2971.261 2961.979,2965.424   " stroke="#202020" stroke-linejoin="" stroke-miterlimit="" stroke-width="1" style="stroke-width: 1px; fill: rgb(247, 231, 208); stroke: rgb(32, 32, 32); display: none; pointer-events: none;" vector-effect="none"/>
    </g>
    <g stroke="#202020" stroke-linejoin="" stroke-miterlimit="" stroke-width="1" style="stroke-width: 1px; fill: rgb(247, 231, 208); stroke: rgb(32, 32, 32); display: none; pointer-events: none;" vector-effect="none">
      <polygon class="Elevators" points="2978.421,2949.842 2983.933,2955.409 2977.405,2961.908 2971.644,2956.071   " stroke="#202020" stroke-linejoin="" stroke-miterlimit="" stroke-width="1" style="stroke-width: 1px; fill: rgb(247, 231, 208); stroke: rgb(32, 32, 32); display: none; pointer-events: none;" vector-effect="none"/>
    </g>
    <g stroke="#202020" stroke-linejoin="" stroke-miterlimit="" stroke-width="1" style="stroke-width: 1px; fill: rgb(247, 231, 208); stroke: rgb(32, 32, 32); display: none; pointer-events: none;" vector-effect="none">
      <polygon class="Elevators" points="2987.755,2940.53 2993.267,2946.096 2986.74,2952.596 2980.979,2946.758   " stroke="#202020" stroke-linejoin="" stroke-miterlimit="" stroke-width="1" style="stroke-width: 1px; fill: rgb(247, 231, 208); stroke: rgb(32, 32, 32); display: none; pointer-events: none;" vector-effect="none"/>
    </g>
    <g stroke="#202020" stroke-linejoin="" stroke-miterlimit="" stroke-width="1" style="stroke-width: 1px; fill: rgb(247, 231, 208); stroke: rgb(32, 32, 32); display: none; pointer-events: none;" vector-effect="none">
      <polygon class="Elevators" points="2997.319,2931.68 3002.831,2937.247 2996.304,2943.746 2990.543,2937.909   " stroke="#202020" stroke-linejoin="" stroke-miterlimit="" stroke-width="1" style="stroke-width: 1px; fill: rgb(247, 231, 208); stroke: rgb(32, 32, 32); display: none; pointer-events: none;" vector-effect="none"/>
    </g>
    <g stroke="#202020" stroke-linejoin="" stroke-miterlimit="" stroke-width="1" style="stroke-width: 1px; fill: rgb(247, 231, 208); stroke: rgb(32, 32, 32); display: none; pointer-events: none;" vector-effect="none">
      <rect class="Elevators" height="6.718" transform="matrix(-0.7192 0.6948 -0.6948 -0.7192 6835.4883 2939.9143)" width="9.405" x="2819.02" y="2847.737" stroke="#202020" stroke-linejoin="" stroke-miterlimit="" stroke-width="1" style="stroke-width: 1px; fill: rgb(247, 231, 208); stroke: rgb(32, 32, 32); display: none; pointer-events: none;" vector-effect="none"/>
    </g>
  </g>
  <g id="Escalators_2_" class="Escalators-Layer">
    <g stroke="#202020" stroke-linejoin="" stroke-miterlimit="" stroke-width="5" style="stroke-width: 5px; fill: rgb(247, 231, 208); stroke: rgb(32, 32, 32); display: none; pointer-events: none;" vector-effect="none">
      <rect class="Escalators" height="5.854" transform="matrix(-0.698 -0.7161 0.7161 -0.698 2730.0886 6721.6016)" width="54.71" x="2754.997" y="2782.211" stroke="#202020" stroke-linejoin="" stroke-miterlimit="" stroke-width="5" style="stroke-width: 5px; fill: rgb(247, 231, 208); stroke: rgb(32, 32, 32); display: none; pointer-events: none;" vector-effect="none"/>
    </g>
    <g stroke="#202020" stroke-linejoin="" stroke-miterlimit="" stroke-width="5" style="stroke-width: 5px; fill: rgb(247, 231, 208); stroke: rgb(32, 32, 32); display: none; pointer-events: none;" vector-effect="none">
      <rect class="Escalators" height="5.699" transform="matrix(-0.698 -0.7161 0.7161 -0.698 2745.7178 6714.8467)" width="54.075" x="2761.705" y="2775.616" stroke="#202020" stroke-linejoin="" stroke-miterlimit="" stroke-width="5" style="stroke-width: 5px; fill: rgb(247, 231, 208); stroke: rgb(32, 32, 32); display: none; pointer-events: none;" vector-effect="none"/>
    </g>
  </g>
  <g id="Stairs_5_" class="Stairs-Layer"/>
  <g id="LBox_6_" class="LBox-Layer">
    <rect class="LBox" data-lbox="4510045" height="297.338" transform="matrix(0.7071 -0.7071 0.7071 0.7071 -1295.0474 2550.229)" waypoint-lbox="52713" width="289.207" x="2286.272" y="2689.706"/>
    <rect class="LBox" height="299.027" transform="matrix(0.7071 0.7071 -0.7071 0.7071 2540.2849 -1083.2344)" width="51.321" x="2552.062" y="2375.264"/>
    <rect class="LBox" data-lbox="4509964" height="59.534" transform="matrix(0.7071 0.7071 -0.7071 0.7071 2692.3447 -1053.9342)" waypoint-lbox="45822" width="135.25" x="2550.759" y="2693.213"/>
    <rect class="LBox" height="65.741" transform="matrix(0.7071 0.7071 -0.7071 0.7071 2676.0151 -1226.4858)" width="278.896" x="2679.059" y="2584.122"/>
    <rect class="LBox" data-lbox="4509971" height="189.124" transform="matrix(0.7071 0.7071 -0.7071 0.7071 2875.2312 -1254.0895)" waypoint-lbox="45829" width="127.423" x="2887.724" y="2749.104"/>
  </g>
  <g id="CustomArtLayer-1_11_" class="CustomArtLayer-1-Layer"/>
  <g id="CustomArtLayer-2_11_" class="CustomArtLayer-2-Layer"/>
  <g id="CustomArtLayer-3_11_" class="CustomArtLayer-3-Layer"/>
  <g id="CustomArtLayer-4_11_" class="CustomArtLayer-4-Layer"/>
  <g id="CustomArtLayer-5_11_" class="CustomArtLayer-5-Layer"/>
  <g id="Pattern-1_1_" class="Pattern-1-Layer"/>
  <g id="Pattern-2_1_" class="Pattern-2-Layer"/>
  <g id="Pattern-3_1_" class="Pattern-3-Layer"/>
  <g id="Pattern-Pavement_1_" class="Pattern-Pavement-Layer"/>
  <g id="Pattern-Grass_1_" class="Pattern-Grass-Layer"/>
  <g id="Pattern-Trees_1_" class="Pattern-Trees-Layer"/>
  <g id="Pattern-Water_1_" class="Pattern-Water-Layer"/>
  <g id="Pattern-OutdoorTerrace_1_" class="Pattern-OutdoorTerrace-Layer"/>
  <g id="Pattern-IndoorFoodCourt-Seating_1_" class="Pattern-IndoorFoodCourt-Seating-Layer"/>
  <g id="Pattern-Lounge_1_" class="Pattern-Lounge-Layer"/>
  <g/>
  <defs/>
  <rect id="overlay-126139" x="0" y="0" width="5500" height="5500" fill="#000000" style="opacity: 0; display: none;"/>
  <g id="spotlightContainer-126139"/>
</svg>
