<?xml version="1.0" standalone="no"?>
<!DOCTYPE svg PUBLIC "-//W3C//DTD SVG 20010904//EN"
 "http://www.w3.org/TR/2001/REC-SVG-20010904/DTD/svg10.dtd">
<svg version="1.0" xmlns="http://www.w3.org/2000/svg"
 width="6000.000000pt" height="3300.000000pt" viewBox="0 0 6000.000000 3300.000000"
 preserveAspectRatio="xMidYMid meet">
<metadata>
Created by potrace 1.13, written by Peter Selinger 2001-2015
</metadata>
<g transform="translate(0.000000,3300.000000) scale(0.100000,-0.100000)"
fill="#000000" stroke="none">
<path d="M28840 31714 c-25 -3 -146 -13 -270 -24 -124 -11 -266 -27 -315 -35
-139 -24 -539 -107 -547 -114 -23 -20 -162 -607 -217 -916 -82 -458 -181
-1282 -197 -1640 -6 -130 -4 -165 15 -261 11 -61 29 -136 39 -167 l19 -56 -36
-30 -36 -30 119 0 c122 -1 289 21 596 77 l145 27 32 65 c18 36 48 113 67 173
29 91 32 114 25 148 -9 37 -7 46 22 91 18 27 42 56 53 63 12 8 79 30 150 50
l129 35 312 0 312 0 49 -52 c42 -45 56 -70 88 -163 39 -113 92 -222 127 -264
18 -22 33 -25 147 -37 70 -7 267 -19 437 -25 426 -16 400 -32 411 251 l6 155
-51 109 c-29 61 -67 166 -86 237 -27 98 -54 167 -125 309 l-90 182 0 81 c0 77
-3 89 -54 207 -37 86 -67 178 -95 295 -48 194 -62 241 -178 565 -60 168 -114
298 -192 456 l-109 221 -68 6 c-88 8 -574 16 -634 11z m-335 -413 c95 -32 162
-45 320 -66 165 -22 206 -30 235 -50 52 -34 186 -162 178 -170 -5 -5 -157 -19
-270 -25 -11 0 -10 -256 2 -430 9 -140 53 -355 130 -639 11 -41 20 -105 20
-142 0 -67 0 -67 -37 -89 -42 -24 -232 -50 -373 -50 -85 0 -148 24 -212 82
l-38 33 19 250 c19 259 17 402 -9 532 l-12 62 -50 17 c-27 9 -52 23 -56 32 -3
9 11 82 31 162 39 152 46 227 26 305 -10 41 -15 45 -61 61 -73 24 -238 5 -363
-42 -49 -19 -93 -34 -96 -34 -4 0 -12 39 -19 88 -6 48 -14 94 -16 104 -5 18
28 23 262 38 243 15 257 14 389 -29z m-558 -773 c118 -20 122 -22 132 -50 6
-16 7 -36 4 -45 -8 -20 -74 -14 -273 27 -115 23 -149 33 -162 51 -10 11 -18
25 -18 29 0 25 137 19 317 -12z"/>
<path d="M32397 31460 c-195 -23 -256 -38 -381 -100 -180 -88 -211 -115 -271
-236 -28 -55 -59 -126 -70 -157 l-19 -57 34 -152 c34 -153 38 -192 25 -275 -6
-39 -12 -47 -60 -80 -43 -28 -56 -42 -59 -67 -3 -17 -7 -47 -10 -66 -3 -19
-10 -147 -15 -285 -6 -137 -17 -428 -26 -645 -9 -217 -14 -408 -11 -424 4 -16
16 -56 28 -89 23 -64 36 -76 213 -194 158 -105 288 -171 408 -207 274 -83 629
-166 1247 -292 419 -85 454 -88 678 -50 197 34 215 45 334 204 52 70 99 133
103 141 4 8 45 113 91 235 l82 221 -39 41 c-56 58 -267 164 -399 203 -233 67
-654 161 -666 149 -2 -3 -40 -135 -84 -293 -45 -159 -83 -292 -86 -295 -3 -3
-92 -5 -197 -5 l-192 0 -104 54 c-57 30 -120 70 -141 90 -33 31 -40 48 -59
129 -20 89 -20 97 -6 245 8 83 24 249 35 367 11 118 27 262 35 320 17 121 146
753 173 850 17 61 21 66 57 78 121 40 339 53 449 27 67 -16 205 -79 272 -126
27 -19 63 -58 89 -98 l43 -67 6 -194 6 -195 353 -108 c502 -153 545 -165 633
-172 l79 -6 43 103 c23 57 56 146 73 198 28 91 29 100 23 215 -5 108 -9 127
-37 184 -42 84 -156 191 -330 309 -297 202 -509 275 -1292 446 -480 105 -620
128 -810 131 -93 2 -205 0 -248 -5z m281 -596 c23 -4 44 -10 47 -13 6 -10 -39
-104 -57 -119 -27 -22 -120 -36 -167 -26 l-41 9 67 83 c53 64 73 81 88 78 11
-3 39 -8 63 -12z m1420 -1948 c50 -50 92 -94 92 -99 0 -4 -28 -21 -62 -37 -80
-36 -252 -67 -294 -53 -30 11 -26 16 28 27 22 5 30 18 56 88 16 46 35 107 42
136 14 63 6 66 138 -62z"/>
<path d="M25430 30706 c-63 -19 -135 -42 -160 -52 -63 -25 -211 -114 -205
-124 3 -4 59 -31 125 -59 118 -50 203 -71 287 -71 23 0 44 -4 48 -9 3 -5 -11
-23 -32 -40 l-36 -30 30 -78 c17 -43 40 -117 53 -165 21 -80 22 -96 13 -204
l-10 -117 -44 -38 c-24 -21 -64 -45 -88 -54 l-44 -15 -75 68 c-42 37 -80 80
-86 96 -11 27 -13 28 -61 22 -159 -21 -161 -21 -172 10 -6 16 -49 68 -96 117
l-85 87 -59 0 c-55 0 -61 -2 -96 -38 l-38 -39 54 -124 c30 -68 80 -194 112
-279 l57 -155 -12 -114 -12 -114 106 -211 c58 -116 106 -214 106 -218 0 -10
-268 -137 -293 -139 -68 -6 -83 1 -177 82 -161 138 -401 319 -480 362 l-76 41
-49 108 c-50 108 -50 109 -115 147 -36 21 -105 59 -155 84 -49 26 -126 74
-170 107 l-80 61 -66 -3 c-54 -3 -76 -9 -118 -36 -29 -17 -57 -32 -62 -32 -5
0 -9 23 -9 50 l0 50 -55 0 c-30 0 -55 4 -55 8 0 5 14 21 30 37 17 16 30 33 30
38 0 6 -25 7 -62 3 -53 -5 -89 -20 -243 -102 -212 -113 -285 -160 -302 -194
-18 -35 -17 -141 1 -166 14 -20 12 -22 -22 -42 -20 -11 -55 -23 -77 -27 -22
-4 -48 -9 -58 -12 -11 -3 -37 14 -75 50 l-57 55 -130 -79 c-71 -44 -205 -127
-297 -186 -137 -88 -168 -112 -173 -135 -8 -35 3 -133 20 -173 7 -16 95 -151
195 -300 130 -192 224 -345 325 -530 270 -495 333 -601 522 -895 222 -345 403
-622 459 -702 l40 -56 88 60 c129 89 477 306 642 401 79 45 144 86 144 90 0
15 -404 719 -414 722 -74 18 -126 38 -126 48 1 20 40 101 61 123 19 20 18 22
-151 322 -94 165 -170 307 -170 315 0 18 97 110 140 132 28 14 40 15 70 6 58
-17 537 -346 799 -548 131 -101 134 -103 187 -103 30 0 54 3 54 8 0 4 5 39 10
77 14 95 45 185 82 236 l31 42 13 -24 c13 -25 64 -293 64 -336 0 -12 -14 -38
-31 -58 l-32 -36 19 -40 c11 -25 87 -112 194 -222 l176 -181 65 0 c57 0 81 7
224 67 212 90 532 210 784 293 l203 67 -5 36 c-8 57 -127 695 -131 707 -5 13
-112 34 -172 34 -22 0 -100 -20 -174 -45 -94 -32 -159 -47 -215 -51 l-81 -7
-14 42 c-7 23 -17 44 -20 46 -6 4 -266 35 -291 35 -15 0 -10 29 15 78 13 26
31 81 41 122 10 41 21 78 24 82 4 4 27 4 51 0 41 -7 46 -11 61 -52 16 -43 19
-45 65 -53 66 -10 121 7 174 52 l44 38 -13 54 c-12 51 -12 59 9 107 l22 51 62
-6 c70 -6 256 32 256 52 0 30 -40 44 -190 65 -85 12 -161 25 -170 30 -8 5 -28
22 -44 39 -21 21 -36 29 -50 25 -18 -4 -38 16 -115 112 l-94 118 41 36 c46 42
183 93 242 91 80 -2 87 -7 109 -80 22 -74 31 -81 100 -81 l33 0 -5 193 c-4
176 -9 221 -65 555 -43 253 -72 398 -97 480 -20 64 -40 120 -43 124 -4 3 -32
9 -62 12 -45 5 -77 0 -170 -28z m-2826 -1678 c112 -94 125 -101 198 -112 26
-4 50 -11 52 -15 3 -4 -8 -26 -24 -48 -29 -40 -128 -107 -202 -138 -45 -18
-118 -20 -141 -2 -16 11 -13 15 31 41 71 41 64 57 -77 165 -105 82 -150 126
-138 137 8 9 172 63 184 61 6 -1 59 -41 117 -89z m2104 -572 c3 -4 -2 -31 -12
-61 -17 -55 -35 -74 -103 -109 l-31 -16 -11 52 c-12 56 -9 66 43 122 24 25 33
28 67 23 23 -3 43 -8 47 -11z m1032 -380 c7 -20 -1 -47 -40 -138 -55 -127 -55
-127 -165 -113 -79 9 -83 15 -57 77 12 29 22 56 22 60 0 3 -25 16 -55 29 -30
12 -55 27 -55 31 0 17 34 60 54 68 12 5 81 9 154 9 131 1 133 1 142 -23z
m-358 -331 c9 -4 19 -13 22 -20 7 -19 -48 -126 -84 -165 -26 -28 -33 -30 -97
-30 -84 0 -119 16 -115 50 6 40 53 119 91 152 33 29 38 30 100 25 36 -3 74 -8
83 -12z m-1780 -1023 l18 -30 -69 -41 c-38 -23 -72 -41 -74 -41 -3 0 -15 16
-28 36 -18 30 -20 38 -8 45 8 4 39 23 69 42 58 36 65 35 92 -11z"/>
<path d="M35775 28839 c-346 -753 -631 -1373 -633 -1377 -1 -4 42 -27 95 -51
236 -107 678 -334 939 -482 l50 -28 101 187 c110 203 141 270 300 642 57 135
143 317 190 405 105 195 432 766 598 1045 l122 205 12 123 c7 68 11 125 9 127
-15 13 -412 222 -608 319 -216 107 -533 257 -542 256 -2 -1 -286 -617 -633
-1371z"/>
<path d="M38740 28944 c-55 -31 -127 -88 -157 -123 -19 -22 -23 -38 -23 -98 0
-39 3 -79 6 -88 8 -21 266 -250 369 -328 301 -228 387 -300 407 -342 12 -24
18 -49 15 -56 -3 -8 -359 -452 -791 -988 -433 -536 -785 -977 -784 -981 2 -4
48 -44 103 -90 151 -126 341 -297 523 -469 l164 -154 28 29 c15 16 377 394
804 839 426 446 790 818 807 827 18 9 56 20 85 24 52 6 56 5 221 -81 92 -47
225 -124 295 -170 l127 -84 17 -58 c11 -40 36 -84 82 -145 37 -49 70 -88 73
-88 8 0 363 319 367 329 5 14 -347 401 -588 645 -469 475 -860 823 -1367 1213
-258 199 -667 463 -717 463 -11 0 -41 -12 -66 -26z m594 -2006 c14 -6 32 -31
45 -61 15 -38 41 -71 98 -123 58 -53 82 -83 95 -118 9 -25 13 -46 9 -46 -44 0
-289 149 -406 247 l-45 37 37 30 c69 59 101 65 167 34z m-823 -861 c45 -56 47
-66 33 -152 -8 -44 -19 -90 -26 -103 l-12 -22 -37 36 c-35 34 -69 105 -69 144
0 17 68 130 78 130 4 0 19 -15 33 -33z"/>
<path d="M20080 28049 c-495 -425 -1023 -953 -1455 -1455 -180 -211 -407 -493
-403 -503 2 -7 1110 -930 1422 -1185 l48 -40 95 48 c90 44 95 46 89 24 -23
-85 -22 -88 53 -177 155 -183 303 -340 450 -477 85 -79 157 -144 162 -144 4 0
42 44 85 98 412 514 913 1035 1394 1451 216 186 227 197 240 237 11 33 10 37
-31 92 -76 104 -108 131 -177 152 -35 11 -72 20 -82 20 -18 0 -223 -175 -510
-434 -193 -175 -517 -446 -533 -446 -11 0 -124 137 -386 467 -66 83 -125 160
-132 171 -10 17 -7 30 25 88 21 38 67 113 102 166 68 102 118 147 309 281 45
31 164 128 265 216 166 144 229 212 230 248 0 9 -257 207 -307 237 -25 14
-225 -172 -428 -399 -78 -88 -196 -212 -261 -276 -117 -114 -121 -116 -212
-149 -83 -29 -100 -32 -165 -27 -46 4 -80 13 -97 25 -34 26 -122 140 -237 309
-76 112 -94 146 -90 165 10 38 254 401 350 519 56 70 144 158 256 259 112 99
190 178 225 226 61 83 60 77 30 219 -21 99 -30 109 -112 113 l-69 4 -143 -123z
m-750 -1619 c25 -16 26 -135 1 -200 -27 -70 -26 -82 4 -130 14 -22 25 -44 25
-49 0 -16 -82 -50 -137 -57 -60 -8 -57 -12 -95 126 -24 88 -39 114 -90 150
l-38 28 37 29 c67 52 134 95 161 103 37 11 114 12 132 0z m17 -732 l32 -33
-66 -80 c-36 -44 -71 -80 -77 -80 -16 0 -19 46 -7 92 11 42 65 133 79 133 4 0
22 -15 39 -32z m1230 -424 c83 -108 79 -120 -102 -353 -107 -138 -120 -151
-132 -135 -7 10 -13 27 -13 39 0 26 51 232 85 345 25 85 81 183 100 177 6 -2
34 -34 62 -73z"/>
<path d="M29278 27399 c-2 -7 -80 -13 -233 -17 -173 -4 -233 -8 -243 -19 -10
-9 -52 -13 -160 -14 -81 -1 -151 -1 -156 0 -5 1 -12 -2 -15 -6 -12 -18 -90
-33 -167 -33 -54 -1 -85 -5 -98 -15 -14 -10 -45 -15 -103 -15 -70 0 -86 -3
-103 -20 -17 -17 -35 -20 -110 -21 -118 -2 -114 -2 -121 -18 -4 -11 -20 -14
-62 -12 -64 3 -127 -14 -127 -33 0 -9 -22 -14 -72 -15 -40 -1 -74 -6 -76 -12
-2 -5 -31 -9 -64 -9 -50 0 -65 -4 -90 -25 -28 -24 -60 -31 -130 -28 -16 1 -28
-3 -28 -8 0 -5 -20 -9 -45 -9 -39 0 -47 -4 -54 -23 -9 -22 -17 -24 -107 -31
-78 -5 -103 -11 -119 -26 -13 -12 -35 -20 -58 -20 -20 0 -39 -4 -42 -10 -3 -5
-24 -14 -45 -20 -24 -6 -40 -17 -40 -25 0 -10 -11 -15 -35 -15 -21 0 -37 -6
-43 -16 -5 -9 -24 -16 -43 -17 -21 -1 -41 -10 -51 -23 -12 -14 -25 -20 -40
-17 -15 3 -30 -3 -42 -16 -11 -12 -27 -21 -36 -21 -10 0 -23 -7 -30 -15 -7 -8
-16 -12 -21 -9 -16 9 -48 -6 -54 -27 -4 -12 -19 -22 -36 -26 -16 -3 -29 -9
-29 -14 0 -5 -9 -9 -19 -9 -11 0 -28 -11 -39 -25 -11 -14 -27 -25 -36 -25 -9
0 -24 -4 -34 -9 -9 -5 -29 -14 -44 -22 -16 -7 -28 -18 -28 -26 0 -7 -6 -14
-12 -15 -46 -5 -76 -19 -86 -41 -7 -14 -11 -17 -11 -7 -1 10 -8 7 -24 -11 -12
-14 -38 -30 -57 -35 -22 -6 -42 -21 -55 -41 -22 -35 -45 -49 -55 -34 -7 13
-40 -23 -40 -45 0 -8 -4 -13 -9 -9 -11 6 -65 -43 -74 -67 -3 -10 -13 -15 -24
-12 -12 3 -38 -16 -83 -61 -36 -37 -73 -74 -84 -83 -10 -9 -24 -23 -30 -30
-14 -17 -31 -34 -110 -111 -36 -36 -66 -71 -66 -79 0 -7 -25 -38 -55 -67 -30
-29 -55 -59 -55 -67 0 -9 -7 -21 -15 -28 -10 -9 -15 -9 -15 -1 0 6 -4 11 -10
11 -5 0 -10 -11 -10 -25 0 -16 -6 -25 -16 -25 -12 0 -15 -6 -10 -25 5 -19 2
-25 -9 -25 -9 0 -18 -12 -22 -30 -4 -25 -9 -29 -25 -24 -16 5 -19 2 -16 -13 2
-10 -6 -28 -19 -40 -13 -12 -23 -29 -23 -38 0 -8 -7 -15 -15 -15 -8 0 -15 -9
-15 -20 0 -12 -5 -26 -10 -33 -22 -26 -60 -88 -60 -98 0 -19 -41 -69 -56 -69
-9 0 -14 -11 -14 -34 0 -19 -3 -36 -7 -38 -11 -4 -53 -109 -53 -129 0 -9 -7
-22 -15 -29 -8 -7 -15 -21 -15 -31 0 -11 -5 -19 -11 -19 -13 0 -39 -62 -39
-94 0 -13 -5 -26 -11 -28 -7 -2 -13 -16 -15 -31 -1 -15 -12 -39 -23 -53 -12
-15 -21 -37 -21 -49 0 -13 -7 -26 -16 -29 -13 -5 -15 -16 -11 -51 4 -38 1 -47
-14 -56 -15 -8 -19 -21 -19 -64 0 -45 -3 -55 -20 -60 -17 -5 -20 -15 -20 -66
0 -46 -4 -63 -21 -80 -15 -15 -20 -31 -18 -59 2 -22 0 -42 -4 -46 -4 -4 -7
-20 -7 -36 0 -15 -5 -28 -11 -28 -9 0 -10 -22 -6 -75 3 -41 2 -75 -2 -75 -4 0
-14 -19 -22 -42 -11 -35 -14 -129 -13 -478 0 -444 5 -554 25 -625 6 -22 10
-83 9 -136 -1 -80 1 -97 14 -102 13 -5 16 -22 16 -84 0 -65 4 -86 26 -126 22
-42 24 -56 18 -103 -5 -43 -3 -54 8 -54 10 0 15 -15 17 -52 1 -38 9 -64 28
-90 21 -32 25 -45 19 -79 -6 -35 -3 -44 14 -56 15 -11 20 -25 20 -63 0 -40 4
-51 21 -61 18 -9 20 -16 14 -56 -6 -39 -4 -47 14 -60 14 -9 21 -25 21 -47 0
-19 6 -39 14 -45 8 -7 18 -27 22 -44 3 -18 13 -41 20 -52 8 -11 14 -34 14 -51
0 -17 7 -37 15 -44 8 -7 15 -25 15 -41 0 -15 7 -34 15 -43 8 -8 15 -28 15 -44
0 -17 5 -32 12 -34 22 -8 16 -52 -11 -79 -14 -14 -44 -46 -67 -70 -22 -24 -57
-57 -76 -74 -19 -16 -46 -48 -61 -70 -14 -22 -50 -66 -81 -98 -31 -31 -56 -61
-56 -65 0 -4 -18 -25 -39 -47 -21 -22 -46 -55 -55 -73 -9 -17 -20 -32 -24 -32
-5 0 -21 -20 -36 -45 -16 -25 -35 -50 -42 -56 -8 -6 -39 -48 -69 -93 -31 -44
-72 -101 -90 -126 -19 -25 -41 -59 -49 -77 -8 -17 -24 -36 -35 -43 -12 -6 -21
-19 -21 -29 0 -11 -7 -22 -15 -25 -9 -3 -15 -11 -14 -18 3 -21 -12 -48 -27
-48 -8 0 -14 -10 -14 -24 0 -13 -7 -26 -15 -30 -8 -3 -15 -14 -15 -24 0 -24
-19 -42 -46 -42 -17 0 -23 -7 -26 -30 -3 -17 0 -34 5 -37 5 -3 2 -10 -7 -15
-9 -5 -16 -16 -16 -23 0 -8 -5 -15 -11 -15 -6 0 -9 -7 -6 -14 3 -8 -22 -73
-57 -143 -35 -70 -82 -167 -106 -215 -23 -49 -46 -88 -50 -88 -9 0 -21 -35
-25 -75 -2 -16 -8 -31 -14 -33 -6 -2 -11 -12 -11 -23 0 -10 -7 -19 -15 -19 -9
0 -15 -9 -15 -25 0 -14 -4 -25 -8 -25 -4 0 -8 -19 -9 -42 -1 -22 -7 -46 -13
-52 -5 -5 -10 -20 -10 -33 0 -13 -7 -26 -16 -30 -10 -4 -14 -13 -10 -29 4 -13
0 -29 -9 -38 -8 -8 -15 -27 -15 -43 0 -15 -9 -43 -20 -61 -11 -18 -20 -43 -20
-55 0 -13 -9 -66 -20 -117 -11 -51 -20 -111 -20 -132 0 -27 -4 -38 -15 -38
-17 0 -21 -45 -5 -55 6 -3 10 -15 10 -26 0 -10 -4 -19 -10 -19 -13 0 -14
-1137 -1 -1142 5 -1 14 -75 21 -163 19 -241 26 -314 39 -383 6 -35 9 -73 6
-83 -4 -11 -2 -25 3 -32 13 -17 32 -122 32 -178 0 -26 5 -51 10 -54 6 -3 10
-37 10 -75 0 -43 4 -70 12 -72 7 -3 10 -27 9 -66 -1 -37 3 -62 9 -62 5 0 10
-10 10 -23 0 -13 4 -27 9 -33 5 -5 11 -31 14 -59 3 -27 10 -72 17 -100 6 -27
16 -86 21 -130 6 -44 14 -84 20 -89 5 -6 9 -23 9 -39 0 -15 4 -36 10 -46 5
-10 14 -45 20 -77 6 -33 15 -79 21 -104 6 -25 13 -67 18 -95 4 -27 12 -60 19
-72 7 -12 12 -35 12 -52 0 -16 5 -33 10 -36 6 -3 10 -28 10 -54 0 -26 5 -52
11 -58 6 -6 12 -27 14 -46 2 -19 8 -44 14 -55 6 -12 11 -34 11 -51 0 -16 5
-33 10 -36 6 -3 10 -24 10 -46 0 -21 4 -47 10 -57 13 -24 60 -220 60 -252 0
-15 7 -41 15 -56 8 -16 15 -37 15 -46 0 -9 7 -45 16 -80 9 -35 16 -74 16 -88
0 -14 6 -36 14 -50 7 -14 18 -47 24 -75 6 -27 16 -70 22 -95 5 -25 11 -65 12
-90 0 -25 7 -55 14 -68 7 -12 17 -59 23 -105 6 -45 15 -102 20 -127 6 -25 14
-67 19 -95 5 -27 13 -66 19 -85 7 -22 7 -38 1 -44 -12 -12 -13 -46 -1 -46 19
0 23 -56 26 -338 3 -277 2 -295 -16 -313 -10 -10 -16 -25 -13 -34 4 -10 0 -15
-10 -15 -19 0 -21 -16 -3 -23 8 -3 6 -13 -10 -35 -13 -17 -23 -38 -23 -46 0
-7 -7 -17 -16 -20 -9 -3 -14 -13 -10 -21 3 -8 -1 -18 -8 -22 -37 -22 -36 -329
2 -399 6 -10 34 -68 63 -129 29 -60 62 -123 73 -140 12 -16 20 -31 18 -32 -7
-9 0 -33 11 -33 12 -1 87 -103 87 -120 0 -9 26 -40 148 -176 45 -51 82 -97 82
-102 0 -13 36 -43 43 -36 4 4 11 -4 16 -17 9 -25 51 -69 51 -54 0 4 26 -16 58
-46 139 -133 331 -255 547 -349 62 -28 162 -42 263 -38 95 3 113 7 160 32 57
32 92 72 110 125 17 48 15 202 -3 291 -30 144 -37 226 -33 370 5 139 6 148 38
213 45 94 115 167 199 210 110 56 198 72 396 71 265 -1 432 -32 590 -109 207
-100 333 -257 393 -490 6 -22 16 -60 22 -84 6 -23 8 -61 5 -82 -4 -23 -3 -39
3 -39 5 0 12 -37 16 -82 6 -81 14 -137 35 -266 6 -34 10 -66 9 -70 -1 -4 4
-20 10 -35 7 -16 12 -43 12 -62 0 -19 5 -37 10 -40 6 -3 10 -24 10 -46 0 -21
4 -47 9 -57 5 -9 21 -71 36 -137 15 -66 33 -131 40 -146 8 -14 17 -48 21 -77
3 -29 10 -52 15 -52 4 0 11 -17 14 -37 4 -21 11 -47 15 -58 5 -11 18 -53 29
-92 11 -40 22 -77 26 -83 3 -5 2 -10 -3 -10 -5 0 -7 -12 -4 -26 2 -14 10 -23
16 -21 11 5 25 -31 42 -108 4 -16 11 -36 17 -42 6 -9 6 -13 0 -13 -14 0 -3
-53 13 -63 9 -5 13 -20 10 -44 -4 -25 1 -41 15 -56 10 -11 19 -29 19 -40 0
-10 4 -26 9 -36 5 -9 12 -38 15 -64 3 -26 10 -56 16 -67 5 -10 10 -43 10 -72
0 -52 18 -120 36 -138 5 -4 45 -23 89 -40 97 -37 125 -50 237 -106 162 -80
192 -96 198 -103 3 -4 30 -19 60 -35 30 -16 126 -77 213 -135 87 -58 166 -110
175 -116 9 -5 19 -12 22 -15 36 -36 154 -120 168 -120 18 0 20 6 16 82 -2 46
-6 288 -8 538 -3 250 -9 505 -15 565 -6 61 -15 163 -21 228 -6 64 -23 161 -37
215 -14 53 -25 109 -26 125 0 15 -5 27 -12 27 -7 0 -25 19 -39 43 -14 23 -44
62 -68 87 -62 66 -108 138 -108 170 0 37 35 62 138 100 138 50 248 51 297 3
22 -23 25 -34 24 -82 -1 -31 3 -74 9 -96 7 -24 9 -78 5 -137 -4 -66 -3 -98 5
-98 13 0 17 -67 26 -414 4 -153 10 -284 13 -290 4 -6 6 -111 4 -234 -2 -135 1
-228 7 -235 6 -7 11 -167 13 -402 2 -243 7 -398 14 -410 5 -11 48 -60 95 -110
47 -49 108 -117 135 -149 28 -33 67 -78 88 -101 20 -23 37 -45 37 -49 0 -4 16
-24 35 -44 19 -20 35 -41 35 -46 0 -7 14 -27 99 -137 11 -14 23 -38 27 -54 4
-15 14 -30 23 -32 10 -2 22 -16 29 -31 6 -15 21 -40 32 -57 11 -16 24 -39 30
-50 5 -11 21 -38 34 -60 39 -62 56 -97 56 -111 0 -15 34 -36 43 -27 4 3 7 449
7 992 2 1365 21 1838 85 2038 40 129 93 174 142 120 51 -56 83 -159 90 -292 3
-60 9 -114 14 -120 5 -5 9 -95 9 -200 0 -105 4 -195 9 -200 14 -16 21 -85 8
-85 -8 0 -8 -3 1 -12 9 -9 12 -258 12 -1061 0 -985 1 -1048 17 -1045 18 3 30
20 93 125 130 217 379 533 566 720 l132 131 6 214 c3 117 11 398 16 623 16
598 17 651 29 865 13 239 37 541 48 594 13 62 47 81 146 81 65 -1 99 -7 162
-29 138 -49 171 -91 127 -157 -33 -50 -100 -134 -146 -183 -25 -28 -46 -53
-46 -58 0 -4 -4 -8 -10 -8 -5 0 -10 -11 -10 -24 0 -13 -6 -27 -12 -30 -9 -4
-10 -8 -2 -11 8 -4 9 -17 2 -43 -5 -20 -16 -64 -25 -97 -15 -60 -27 -154 -39
-317 -4 -49 -10 -88 -15 -88 -12 0 -12 -67 0 -72 5 -2 6 -36 1 -83 -5 -44 -9
-196 -9 -337 -1 -160 -5 -259 -11 -263 -6 -4 -10 -77 -10 -186 0 -176 0 -179
21 -179 12 0 53 24 93 53 279 210 627 408 921 525 146 58 169 68 176 82 4 8
20 80 34 160 15 80 33 165 40 190 8 25 30 104 50 175 20 72 59 195 85 275 56
169 80 250 90 305 4 22 19 78 33 125 65 219 135 575 151 775 27 313 120 551
269 681 120 105 289 173 509 205 135 20 408 17 503 -5 99 -23 203 -74 255
-126 44 -44 90 -112 90 -133 0 -8 6 -27 14 -43 21 -43 39 -198 32 -263 -4 -31
-11 -94 -16 -139 -5 -46 -15 -91 -22 -99 -9 -11 -13 -62 -13 -184 l0 -168 55
-53 c79 -76 129 -91 273 -86 87 3 130 11 193 31 94 32 232 101 312 157 32 22
77 54 102 71 125 88 330 285 465 448 142 171 273 396 331 569 23 67 27 95 28
213 1 135 -4 162 -39 209 -6 8 -26 48 -43 88 -38 86 -62 230 -61 364 1 225 55
601 144 1003 3 17 12 59 20 95 24 119 39 186 70 315 9 39 21 92 26 120 4 27
13 61 19 75 5 14 23 81 39 150 17 69 48 199 70 290 22 91 49 208 61 260 12 52
28 123 36 158 20 85 43 195 53 265 5 31 14 72 19 90 6 17 16 64 22 102 7 39
18 97 26 131 16 71 41 218 54 324 5 41 18 124 29 184 12 61 21 134 21 164 0
30 6 80 14 111 8 31 23 135 33 231 15 151 18 265 18 825 0 684 -3 732 -50 900
-89 318 -98 346 -166 489 -11 22 -19 43 -19 48 0 4 -11 32 -25 62 -14 30 -25
57 -25 60 0 10 -187 387 -221 446 -17 30 -44 78 -58 105 -14 28 -41 71 -59 97
-17 26 -32 50 -32 54 0 4 -6 15 -14 23 -13 15 -23 32 -81 130 -11 18 -59 89
-107 157 -49 67 -88 129 -88 138 0 8 -8 17 -18 20 -10 4 -43 38 -73 77 -30 40
-65 86 -79 104 -78 103 -206 243 -383 422 -180 181 -200 205 -199 234 0 17 6
37 11 42 6 6 11 21 11 33 0 12 11 36 25 52 14 17 25 39 25 49 0 11 7 28 15 39
8 10 15 33 15 50 0 18 8 39 20 49 11 10 20 28 20 40 0 13 7 36 15 51 8 16 15
41 15 57 0 15 4 27 8 27 13 0 32 47 32 78 0 15 7 36 15 46 8 11 15 36 15 57 0
21 8 47 20 62 11 14 20 40 20 59 0 18 7 42 15 52 8 11 15 34 15 50 0 17 7 56
15 86 8 30 15 69 15 86 0 17 6 47 14 65 7 19 16 65 20 104 4 38 12 75 18 83 7
7 15 62 19 121 4 60 13 119 20 132 19 33 20 903 1 936 -6 12 -16 69 -21 128
-5 58 -14 112 -20 119 -7 8 -14 43 -18 80 -3 36 -12 71 -19 77 -8 6 -14 30
-14 54 0 23 -7 62 -15 85 -8 23 -15 55 -15 70 0 15 -7 33 -15 40 -8 7 -15 26
-15 42 0 16 -9 41 -20 55 -11 14 -20 40 -20 58 0 18 -7 38 -15 45 -8 7 -15 20
-15 30 0 9 -9 29 -20 43 -11 14 -20 34 -20 44 0 11 -7 28 -15 39 -8 10 -15 34
-15 52 0 21 -5 32 -14 32 -18 0 -56 77 -56 112 0 17 -7 27 -20 31 -11 3 -23
13 -26 24 -12 36 -29 68 -51 96 -13 16 -23 35 -23 43 0 8 -4 14 -9 14 -5 0
-12 11 -15 25 -4 14 -10 25 -15 25 -5 0 -24 25 -41 55 -17 30 -35 55 -40 55
-10 0 -40 57 -40 75 0 7 -21 34 -47 62 -27 27 -52 56 -58 65 -58 89 -63 95
-181 199 -16 14 -38 38 -48 53 -10 14 -23 26 -28 26 -5 0 -57 50 -116 110 -59
61 -113 110 -119 110 -6 0 -23 14 -36 30 -14 17 -30 30 -35 30 -5 0 -17 11
-25 24 -9 13 -36 33 -60 44 -25 12 -56 35 -69 51 -14 19 -34 32 -51 33 -15 1
-27 8 -27 15 0 7 -11 13 -24 13 -13 0 -26 7 -30 15 -3 8 -13 15 -23 15 -21 1
-63 33 -63 49 0 6 -7 12 -15 12 -8 1 -21 2 -27 3 -7 0 -17 11 -23 24 -7 16
-18 22 -41 22 -21 0 -44 12 -73 36 -28 24 -48 34 -61 31 -12 -3 -23 1 -28 9
-4 8 -19 16 -31 19 -13 2 -31 11 -41 20 -9 8 -23 15 -31 15 -8 0 -25 9 -39 20
-14 11 -33 20 -42 20 -28 0 -48 11 -48 27 0 11 -7 14 -21 10 -13 -4 -27 2 -40
17 -13 15 -29 21 -49 20 -21 -1 -34 4 -41 17 -7 14 -21 19 -48 19 -24 0 -47 8
-61 20 -13 12 -37 20 -57 20 -21 0 -36 6 -40 16 -4 10 -16 14 -39 12 -23 -2
-40 4 -56 20 -19 17 -41 23 -113 28 -78 6 -92 10 -109 31 -16 21 -26 24 -73
22 -32 -2 -57 2 -61 9 -4 6 -31 12 -59 13 -41 2 -57 8 -73 26 -17 20 -29 23
-84 23 -35 0 -66 4 -68 9 -1 6 -31 11 -66 12 -51 2 -66 6 -78 23 -13 18 -26
21 -106 23 -72 1 -93 5 -100 17 -7 13 -26 16 -90 16 -64 0 -86 4 -101 18 -15
13 -40 17 -121 19 -62 1 -116 7 -137 16 -20 8 -87 16 -164 20 -86 3 -140 11
-159 20 -22 12 -69 16 -203 17 -195 1 -194 1 -208 16 -7 8 -95 14 -269 17
-162 4 -263 10 -269 16 -16 16 -1084 15 -1089 0z m1390 -2008 c10 -5 118 -13
240 -17 194 -6 224 -9 232 -24 7 -14 28 -17 127 -19 70 -1 135 -8 161 -17 23
-8 77 -14 118 -14 75 0 153 -13 186 -31 10 -5 73 -9 142 -9 98 0 126 -3 136
-15 9 -11 33 -15 84 -15 41 -1 88 -8 111 -17 22 -9 67 -18 100 -20 33 -3 68
-11 79 -19 11 -8 35 -14 53 -14 26 0 34 -5 39 -24 5 -21 10 -23 43 -19 26 4
41 0 50 -11 7 -9 24 -16 37 -16 14 0 24 -6 24 -15 0 -8 16 -19 40 -25 21 -6
42 -15 45 -20 3 -6 17 -10 30 -10 15 0 26 -7 30 -20 3 -11 11 -20 16 -20 22 0
90 -36 94 -51 3 -8 21 -23 40 -32 38 -18 47 -26 198 -171 53 -51 97 -98 97
-104 0 -6 8 -13 18 -17 16 -5 62 -67 62 -84 0 -4 9 -16 20 -26 11 -10 20 -22
20 -26 0 -5 16 -33 35 -63 19 -30 35 -66 35 -79 0 -14 7 -27 15 -31 9 -3 15
-18 15 -40 0 -26 5 -35 21 -39 17 -5 19 -10 13 -42 -5 -30 -3 -39 15 -51 16
-12 21 -26 21 -63 0 -26 7 -70 15 -97 8 -27 15 -83 15 -126 0 -47 4 -78 11
-80 8 -3 11 -81 11 -265 -1 -217 -4 -267 -16 -292 -12 -22 -16 -61 -16 -150 0
-69 -4 -122 -10 -126 -5 -3 -10 -34 -10 -68 -1 -39 -6 -69 -15 -81 -8 -11 -15
-30 -15 -42 0 -28 -23 -37 -47 -19 -10 8 -24 15 -31 15 -7 0 -30 11 -52 25
-22 14 -46 25 -53 25 -7 0 -23 9 -35 20 -12 11 -30 20 -42 20 -11 0 -20 5 -20
10 0 6 -11 10 -25 10 -14 0 -25 5 -25 10 0 6 -7 10 -16 10 -9 0 -58 20 -108
45 -51 25 -100 45 -109 45 -9 0 -19 5 -22 10 -3 6 -15 10 -25 10 -10 0 -26 10
-34 21 -10 15 -21 20 -36 16 -13 -3 -23 0 -27 9 -3 8 -16 14 -28 14 -13 0 -27
5 -30 10 -3 6 -17 10 -29 10 -13 0 -29 7 -36 15 -7 8 -22 15 -34 15 -12 0 -31
7 -42 15 -10 8 -29 15 -41 15 -12 0 -24 4 -27 9 -3 5 -22 12 -41 15 -19 4 -35
11 -35 16 0 6 -13 10 -30 10 -16 0 -54 11 -84 25 -30 14 -61 25 -70 25 -8 0
-18 5 -21 10 -3 6 -19 10 -35 10 -16 0 -32 5 -35 10 -3 6 -16 10 -29 10 -12 0
-31 7 -42 15 -10 8 -29 15 -41 15 -12 0 -24 4 -28 9 -5 9 -91 27 -107 23 -5
-1 -8 5 -8 14 0 12 -9 15 -35 12 -20 -1 -39 3 -43 9 -4 6 -20 13 -35 15 -16 3
-32 10 -37 17 -5 9 -17 11 -32 8 -15 -4 -33 0 -46 8 -11 9 -34 15 -49 14 -15
-1 -41 4 -58 10 -16 6 -47 13 -67 16 -21 3 -38 10 -38 15 0 6 -24 10 -54 10
-30 0 -56 4 -58 9 -1 5 -33 11 -70 13 -38 1 -68 7 -68 12 0 5 -18 6 -40 3 -22
-3 -43 -1 -46 4 -3 5 -25 9 -50 9 -24 0 -44 4 -44 8 0 5 -80 12 -177 16 -98 4
-203 11 -233 16 -75 12 -1009 12 -1090 0 -36 -6 -141 -13 -235 -16 -93 -4
-172 -10 -175 -14 -5 -7 -148 -28 -250 -36 -36 -3 -69 -10 -75 -15 -5 -5 -31
-9 -57 -9 -26 0 -48 -4 -48 -10 0 -5 -9 -10 -19 -10 -11 0 -23 -4 -26 -10 -3
-5 -19 -10 -35 -10 -16 0 -31 -4 -34 -8 -3 -5 -19 -7 -35 -4 -19 3 -36 -2 -46
-12 -11 -10 -25 -13 -45 -10 -21 5 -35 1 -51 -15 -13 -12 -35 -21 -50 -21 -15
0 -30 -4 -33 -9 -3 -4 -17 -6 -32 -3 -14 2 -29 1 -33 -4 -11 -15 -50 -34 -71
-34 -11 0 -28 -4 -38 -9 -9 -5 -43 -17 -74 -26 -32 -9 -60 -21 -64 -26 -3 -5
-18 -9 -34 -9 -16 0 -32 -4 -35 -10 -3 -5 -15 -10 -26 -10 -10 0 -27 -4 -37
-9 -23 -13 -117 -41 -136 -41 -8 0 -16 -4 -18 -8 -3 -9 -133 -59 -178 -70 -13
-3 -31 -11 -38 -19 -7 -7 -22 -13 -32 -13 -10 0 -22 -4 -25 -10 -3 -5 -17 -10
-30 -10 -13 0 -27 -4 -30 -10 -3 -5 -17 -10 -30 -10 -13 0 -25 -5 -27 -12 -3
-9 -51 -26 -115 -41 -7 -2 -16 -6 -19 -10 -4 -4 -15 -7 -25 -7 -9 0 -19 -7
-23 -15 -3 -8 -15 -15 -26 -15 -11 0 -20 -4 -20 -10 0 -5 -8 -10 -18 -10 -10
0 -22 -3 -26 -7 -4 -4 -19 -9 -34 -10 -15 -2 -32 -10 -38 -18 -6 -8 -16 -15
-22 -15 -6 0 -31 -11 -54 -25 -24 -13 -116 -61 -205 -105 -90 -45 -165 -86
-168 -91 -4 -5 -15 -9 -25 -9 -10 0 -23 -7 -28 -16 -14 -25 -45 -13 -52 21 -4
17 -12 40 -18 52 -7 12 -12 36 -12 53 0 18 -9 43 -20 57 -14 18 -20 41 -20 75
0 27 -7 65 -15 85 -9 22 -15 67 -15 120 0 52 -6 97 -15 120 -22 52 -22 490 0
519 10 13 14 46 15 110 0 61 5 101 15 120 8 16 15 48 15 70 0 26 7 51 20 67
11 14 20 40 20 59 0 18 7 42 15 52 8 11 15 27 15 36 0 9 9 25 20 35 11 10 20
27 20 37 0 10 7 21 15 24 8 3 17 15 20 26 4 10 25 46 48 80 23 33 48 72 55 85
8 14 58 68 111 121 101 101 125 122 137 122 4 0 17 9 28 19 27 25 136 81 157
81 9 0 19 7 23 15 3 8 15 15 26 15 11 0 28 9 37 20 10 11 27 20 39 20 11 0 29
9 39 20 10 11 28 20 39 20 12 0 30 7 40 15 11 8 34 15 51 15 19 0 39 8 50 20
12 13 31 20 55 20 21 0 43 6 49 14 7 8 38 16 72 18 44 3 64 9 71 21 6 12 22
17 57 17 26 0 56 7 67 15 11 8 42 15 74 15 37 0 66 7 88 20 23 14 50 20 91 20
38 0 63 5 70 14 8 10 41 15 105 18 69 2 99 7 112 19 14 12 47 18 127 22 60 3
114 10 120 16 6 6 47 11 94 11 58 0 101 6 140 20 39 13 83 20 136 20 56 0 83
4 93 15 12 11 41 15 124 15 80 0 125 5 172 20 34 11 88 20 118 21 30 0 96 7
145 14 108 15 1076 20 1103 6z m-2043 -2964 c-22 -34 -161 -148 -205 -168 -72
-34 -93 -68 -119 -195 -10 -54 -25 -80 -106 -197 -51 -73 -110 -121 -226 -184
-166 -90 -209 -120 -209 -145 0 -39 -32 -151 -56 -196 -13 -25 -24 -50 -24
-56 -1 -6 -19 -27 -42 -46 -118 -100 -163 -155 -195 -236 -18 -43 -38 -115
-47 -159 -13 -74 -17 -83 -58 -118 -56 -49 -121 -87 -148 -87 -28 0 -161 -67
-237 -119 -33 -23 -63 -41 -67 -41 -30 0 113 126 152 133 15 3 54 15 86 27 74
27 213 139 222 178 3 15 14 54 24 87 10 33 21 74 25 90 13 56 110 189 161 221
56 35 131 133 140 183 4 20 10 41 14 46 4 6 11 35 15 65 9 68 25 83 176 172
208 123 213 126 257 191 46 70 132 238 132 260 0 8 7 20 15 27 8 7 15 27 15
45 0 35 11 48 48 60 38 11 102 58 182 134 72 67 110 81 75 28z m540 -328 c4
-6 -2 -20 -13 -32 -27 -28 -42 -70 -42 -112 0 -38 -30 -66 -96 -87 -28 -10
-40 -21 -46 -43 -16 -50 -30 -74 -50 -81 -24 -7 -184 -248 -209 -315 -11 -28
-26 -80 -33 -115 -18 -86 -36 -109 -110 -143 -35 -16 -69 -37 -74 -47 -15 -31
-26 -96 -23 -146 3 -45 0 -50 -47 -97 -55 -57 -148 -116 -204 -132 -28 -7 -60
-6 -125 7 -153 28 -308 -6 -357 -80 -9 -14 -33 -33 -54 -41 -52 -22 -97 -69
-117 -122 -15 -37 -16 -65 -11 -162 3 -64 6 -124 7 -133 0 -10 -13 -37 -30
-62 -17 -24 -33 -63 -37 -87 -4 -26 -24 -67 -51 -106 -25 -35 -41 -63 -36 -63
4 0 -4 -11 -19 -24 -30 -29 -40 -90 -34 -218 2 -43 -1 -78 -5 -78 -5 0 -9 21
-9 48 0 50 -21 92 -46 92 -10 0 -14 -12 -14 -38 0 -21 -3 -42 -7 -46 -15 -15
-14 -173 1 -210 25 -60 98 -147 121 -144 18 3 20 11 20 73 0 39 -5 88 -12 110
-25 79 -13 97 25 38 15 -23 21 -45 18 -59 -4 -13 -1 -46 5 -74 10 -47 9 -53
-17 -98 -15 -26 -38 -61 -51 -79 -24 -32 -24 -32 -9 -112 13 -71 13 -86 1
-115 -10 -24 -11 -36 -4 -38 17 -6 40 -80 33 -110 -3 -14 0 -29 5 -33 8 -4 8
-12 1 -25 -5 -10 -10 -30 -10 -44 0 -14 -4 -28 -10 -31 -5 -3 -10 -18 -10 -33
0 -17 -11 -38 -30 -55 -20 -19 -30 -38 -30 -57 0 -18 -9 -35 -23 -47 -31 -24
-47 -55 -47 -88 0 -17 -12 -39 -35 -62 -30 -30 -38 -33 -68 -28 -56 11 -87
-13 -135 -102 -24 -43 -46 -90 -49 -106 -3 -15 -10 -30 -14 -33 -5 -3 -9 -16
-9 -29 0 -15 -11 -32 -30 -45 -16 -12 -41 -40 -55 -64 -20 -34 -44 -53 -126
-99 -91 -51 -107 -57 -159 -57 -67 0 -90 -15 -90 -60 0 -16 11 -46 25 -66 30
-44 29 -56 -17 -165 -24 -59 -31 -89 -31 -149 -1 -68 4 -86 47 -190 26 -63 70
-160 98 -215 48 -96 50 -102 43 -159 -5 -43 -2 -68 8 -90 8 -17 34 -71 57
-120 22 -49 60 -116 83 -150 38 -57 42 -67 50 -156 10 -121 10 -170 -2 -184
-6 -6 -11 -41 -13 -76 l-3 -64 80 -52 c44 -29 85 -57 92 -63 7 -6 15 -11 19
-11 3 0 27 -15 53 -34 52 -38 276 -176 286 -176 3 0 31 -16 61 -35 30 -19 57
-35 61 -35 3 0 20 -10 37 -23 17 -13 47 -31 66 -40 37 -19 72 -39 80 -47 6 -6
36 -23 91 -52 21 -11 39 -24 39 -29 0 -5 6 -9 13 -9 6 0 37 -15 67 -33 30 -18
84 -48 120 -67 36 -19 76 -42 90 -51 14 -10 80 -45 145 -79 66 -35 174 -91
240 -125 66 -34 138 -72 160 -85 22 -13 100 -54 174 -91 73 -38 138 -72 145
-77 6 -5 111 -60 233 -122 122 -62 220 -117 217 -121 -3 -5 -22 -16 -42 -25
-20 -8 -52 -22 -70 -30 -18 -8 -42 -14 -52 -14 -11 0 -20 -4 -20 -10 0 -5 -16
-10 -35 -10 -19 0 -35 -4 -35 -10 0 -5 -16 -10 -35 -10 -22 0 -35 -5 -35 -13
0 -8 -15 -14 -37 -15 -21 -2 -39 -7 -41 -12 -2 -6 -12 -10 -23 -10 -10 0 -19
-4 -19 -8 0 -5 -14 -9 -32 -10 -17 0 -34 -6 -38 -12 -4 -6 -11 -10 -16 -9 -16
2 -54 -13 -54 -22 0 -5 -15 -9 -34 -9 -19 0 -37 -6 -39 -12 -4 -10 -8 -10 -15
1 -8 11 -11 10 -20 -4 -6 -12 -21 -18 -41 -18 -17 0 -31 -4 -31 -9 0 -4 -5 -8
-11 -8 -6 0 -16 -6 -24 -13 -7 -7 -39 -19 -71 -26 -33 -7 -67 -17 -76 -22 -10
-5 -31 -9 -47 -9 -16 0 -31 -6 -33 -12 -3 -8 -22 -12 -51 -10 -26 1 -47 -3
-47 -8 0 -6 -9 -10 -19 -10 -11 0 -23 -5 -27 -11 -3 -6 -16 -8 -28 -5 -12 3
-39 -1 -61 -8 -22 -8 -54 -12 -72 -9 -20 3 -33 1 -33 -5 0 -11 -29 -15 -263
-32 -122 -9 -194 -9 -325 0 -255 19 -272 21 -272 31 0 5 -9 9 -20 9 -11 0 -20
-4 -20 -10 0 -6 -9 -6 -26 0 -14 6 -38 10 -54 10 -16 0 -32 5 -35 10 -4 6 -23
10 -43 10 -20 -1 -64 4 -97 10 -33 5 -82 14 -110 19 -139 23 -192 34 -210 41
-11 5 -36 11 -55 14 -95 16 -110 19 -110 27 0 5 -15 9 -32 9 -50 -1 -117 11
-124 21 -3 5 -16 9 -30 9 -13 0 -24 5 -24 11 0 7 -12 9 -32 7 -20 -3 -42 1
-55 9 -13 9 -33 13 -46 9 -16 -4 -31 1 -46 15 -16 15 -32 20 -63 17 -26 -1
-43 2 -46 10 -2 7 -21 12 -43 12 -21 0 -39 5 -39 10 0 6 -13 10 -29 10 -16 0
-36 7 -45 15 -9 9 -34 15 -66 15 -65 0 -98 -30 -92 -83 2 -19 -1 -44 -7 -56
-14 -26 -79 -68 -112 -73 -16 -2 -26 -12 -33 -33 -16 -53 -30 -77 -51 -85 -11
-4 -54 -60 -95 -123 -41 -64 -81 -118 -88 -121 -23 -10 -25 25 -5 62 12 20 24
47 28 60 6 22 29 60 130 215 41 63 57 80 92 93 47 18 63 39 91 112 16 42 17
52 5 68 -8 10 -17 19 -21 20 -15 2 -91 33 -134 55 -10 5 -23 9 -30 9 -7 0 -35
11 -63 24 -27 13 -74 34 -102 46 -29 13 -53 27 -53 32 0 4 -11 8 -25 8 -14 0
-25 5 -25 10 0 6 -18 17 -40 26 -22 9 -40 20 -40 25 0 5 -4 9 -10 9 -36 0
-195 172 -279 301 -41 63 -82 126 -92 140 -29 43 -104 198 -144 299 -21 52
-43 109 -50 125 -7 17 -22 59 -34 95 -12 36 -26 79 -32 95 -12 33 -46 160 -58
215 -5 19 -13 53 -18 75 -6 22 -15 72 -21 110 -6 39 -17 106 -24 150 -8 47
-13 165 -12 285 0 167 3 216 18 262 35 115 108 144 336 135 97 -4 163 -13 234
-31 122 -32 317 -93 373 -117 24 -11 46 -19 50 -19 5 -1 26 -9 48 -20 22 -11
45 -19 51 -20 5 0 32 -11 60 -24 27 -13 101 -47 164 -76 120 -55 468 -226 485
-240 6 -4 37 -22 70 -39 54 -29 483 -285 539 -321 12 -8 42 -28 65 -43 54 -36
75 -33 78 13 1 19 9 55 17 79 17 47 22 156 7 165 -5 3 -12 23 -16 43 -9 50
-48 128 -85 170 -17 19 -30 42 -30 52 0 9 -14 43 -30 74 -32 59 -55 155 -52
220 1 25 -7 54 -22 80 -62 110 -94 176 -106 222 -7 28 -24 73 -37 100 -16 33
-27 74 -30 121 -6 73 4 106 48 163 26 32 25 101 -2 153 -26 51 -19 95 21 138
28 30 33 31 77 26 44 -6 56 -2 158 50 60 31 115 63 122 72 28 36 122 240 134
291 11 45 21 59 58 87 33 25 54 34 83 34 55 0 98 43 98 98 0 45 -20 69 -66 78
-37 7 -76 -15 -122 -67 -33 -38 -95 -59 -177 -59 -35 0 -51 -7 -91 -40 -27
-22 -51 -40 -55 -40 -3 0 -11 -12 -18 -26 -6 -15 -33 -52 -60 -83 -27 -31 -70
-96 -96 -145 -45 -85 -46 -91 -40 -146 6 -54 5 -59 -20 -78 -14 -11 -52 -27
-83 -33 -37 -9 -67 -23 -85 -41 -16 -15 -32 -28 -36 -28 -5 0 -19 -15 -31 -33
-28 -41 -72 -67 -112 -67 -33 0 -58 -23 -127 -118 -24 -33 -54 -66 -67 -73
-13 -6 -26 -20 -29 -30 -3 -9 -20 -28 -38 -42 -66 -51 -77 -66 -77 -106 0 -22
6 -44 15 -51 23 -19 19 -26 -40 -85 -59 -59 -63 -71 -41 -114 14 -26 13 -30
-15 -72 -27 -39 -30 -50 -26 -101 3 -32 2 -58 -2 -58 -35 0 -42 97 -11 145 24
37 26 84 3 100 -16 12 -15 16 12 55 16 23 45 54 63 68 32 24 34 29 28 71 -8
60 -21 73 -65 65 -43 -7 -99 -31 -124 -52 -18 -16 -34 -11 -23 6 9 15 162 92
181 92 36 0 148 106 286 270 34 40 49 50 105 65 51 14 68 23 79 44 14 29 80
92 112 109 10 5 38 13 63 17 66 11 73 19 65 86 -6 54 -4 62 34 136 23 44 64
106 92 139 28 32 66 82 85 109 18 28 50 63 70 79 36 28 56 35 173 56 51 9 121
50 121 71 0 21 66 49 118 49 57 0 78 14 107 70 18 35 13 79 -17 147 -14 31
-16 48 -9 61 20 37 24 118 8 153 -17 36 -17 93 0 110 7 7 12 -4 16 -34 9 -66
24 -97 46 -97 30 0 44 35 36 89 -4 25 -8 80 -9 121 l-1 75 -55 67 c-59 72 -84
82 -115 48 -17 -19 -17 -23 -2 -54 9 -19 29 -40 44 -48 29 -14 66 -78 61 -106
-2 -12 -10 -5 -25 20 -19 32 -106 107 -125 108 -3 0 -14 -20 -25 -45 -10 -25
-21 -45 -25 -45 -14 0 -8 60 8 91 23 45 51 77 116 132 16 14 31 40 37 66 10
47 7 64 -21 100 -27 35 -22 70 16 124 46 64 56 120 27 151 -16 17 -21 35 -21
72 1 64 21 90 85 107 52 13 179 102 169 118 -3 5 -1 9 4 9 10 0 19 35 28 105
3 22 -2 71 -10 108 l-16 68 65 100 c36 54 70 99 75 99 5 0 23 12 39 28 62 56
107 84 181 109 46 16 68 17 130 10 131 -14 247 -5 311 26 48 22 64 37 100 94
42 65 44 71 44 143 0 74 1 77 40 123 22 26 62 70 88 98 69 72 217 302 217 337
0 12 58 106 124 202 38 55 63 80 94 95 48 24 68 48 91 114 17 45 23 49 83 60
4 0 10 -4 13 -10z m-2482 -1888 c14 -54 4 -65 -53 -58 -45 5 -51 4 -70 -20
-11 -14 -20 -40 -20 -57 0 -39 -8 -51 -40 -60 -25 -7 -90 -95 -90 -122 0 -8
11 -20 25 -26 26 -12 31 -23 16 -32 -4 -3 -30 -37 -56 -76 -26 -38 -51 -70
-56 -70 -15 0 -10 13 17 53 40 60 31 79 -46 93 -132 25 -272 -26 -342 -126
-21 -29 -52 -62 -70 -73 -18 -11 -50 -35 -71 -53 -29 -26 -46 -34 -76 -34 -25
0 -41 -5 -45 -15 -3 -8 -25 -18 -48 -21 -31 -5 -52 -17 -74 -41 -17 -18 -36
-33 -42 -33 -19 0 -14 34 11 71 19 28 31 35 67 40 25 3 60 13 79 23 18 10 54
24 80 32 49 14 166 104 176 133 9 31 100 100 143 110 23 5 52 18 67 29 17 14
49 23 93 27 80 9 157 48 188 97 11 18 26 58 33 88 7 30 15 63 17 72 4 12 24
21 66 30 44 9 65 19 76 36 19 29 34 24 45 -17z m9088 -3261 c98 -18 132 -63
149 -192 13 -106 12 -275 -2 -403 -6 -55 -12 -125 -14 -155 -6 -86 -15 -144
-25 -155 -5 -5 -9 -22 -9 -38 0 -15 -4 -36 -10 -46 -5 -10 -14 -43 -19 -72 -5
-30 -17 -79 -26 -109 -9 -30 -19 -68 -22 -83 -3 -16 -12 -31 -19 -34 -8 -3
-14 -12 -14 -20 0 -9 -8 -22 -17 -29 -13 -10 -15 -16 -6 -21 16 -11 5 -63 -13
-56 -9 3 -14 -2 -14 -15 0 -11 -6 -23 -12 -25 -10 -4 -10 -8 -2 -14 15 -10 0
-51 -21 -60 -9 -3 -14 -12 -11 -20 3 -7 -1 -16 -10 -20 -8 -3 -13 -12 -10 -19
8 -20 -26 -104 -41 -104 -7 0 -13 -7 -13 -15 0 -8 -4 -23 -9 -33 -42 -87 -56
-111 -59 -102 -7 20 -22 10 -22 -15 0 -16 -6 -25 -16 -25 -11 0 -14 -6 -9 -20
4 -11 2 -20 -4 -20 -6 0 -11 -9 -11 -20 0 -13 -5 -18 -15 -14 -10 4 -15 0 -15
-14 0 -12 -5 -24 -10 -27 -6 -4 -9 -12 -8 -18 6 -27 -183 -237 -214 -237 -7 0
-22 -10 -33 -22 -24 -28 -72 -56 -185 -109 -47 -22 -93 -45 -102 -50 -12 -6
-18 -6 -18 1 0 11 -40 -8 -52 -25 -5 -6 -12 -5 -17 5 -9 13 -11 12 -16 -1 -3
-9 -29 -26 -58 -39 -29 -12 -64 -29 -79 -36 -14 -8 -38 -14 -52 -14 -14 0 -26
-4 -26 -10 0 -5 -16 -10 -35 -10 -19 0 -35 -4 -35 -10 0 -5 -15 -10 -34 -10
-19 0 -36 -6 -39 -13 -2 -7 -20 -14 -38 -15 -18 -1 -37 -8 -41 -15 -4 -6 -23
-10 -43 -9 -20 2 -35 -1 -35 -7 0 -6 -21 -11 -50 -11 -27 0 -50 -4 -50 -9 0
-18 -97 -45 -149 -42 -18 2 -37 -3 -41 -9 -4 -7 -29 -15 -56 -17 -27 -3 -55
-10 -62 -16 -8 -6 -32 -10 -53 -8 -23 1 -39 -2 -39 -8 0 -6 -13 -11 -29 -11
-17 0 -33 -4 -36 -10 -3 -5 -24 -10 -45 -10 -21 0 -42 -5 -45 -10 -3 -6 -17
-7 -30 -4 -13 3 -33 1 -44 -6 -31 -16 -171 -39 -203 -33 -16 3 -28 1 -28 -5 0
-11 -56 -23 -104 -23 -17 0 -48 -6 -71 -14 -24 -8 -59 -11 -83 -8 -26 3 -42 2
-42 -5 0 -5 -30 -12 -67 -15 -298 -24 -383 -28 -488 -23 -155 8 -315 28 -315
39 0 5 -12 7 -27 4 -31 -5 -157 14 -169 26 -4 4 -16 7 -26 7 -10 0 -18 5 -18
11 0 7 -11 9 -27 6 -16 -3 -53 2 -83 10 -30 8 -67 18 -83 20 -15 3 -30 9 -33
14 -3 5 -18 9 -34 9 -16 0 -32 5 -35 10 -3 6 -15 10 -26 10 -10 0 -36 9 -56
20 -21 11 -50 20 -66 20 -16 0 -30 7 -34 16 -4 10 -13 14 -29 10 -13 -4 -29 0
-38 9 -8 8 -26 15 -40 15 -17 0 -26 5 -26 16 0 13 -7 15 -35 11 -25 -4 -35 -2
-35 7 0 8 -19 15 -52 19 -36 4 -58 13 -70 27 -12 15 -23 19 -42 14 -20 -5 -26
-2 -26 11 0 14 -7 16 -31 13 -20 -3 -33 0 -36 9 -3 7 -15 13 -27 14 -35 1
-161 54 -161 68 0 7 68 48 150 90 299 154 491 254 555 289 35 19 103 55 150
80 47 24 90 48 95 52 6 4 57 31 115 60 124 63 399 215 593 328 49 29 91 52 93
52 4 0 49 27 130 77 10 7 60 36 109 65 156 90 410 252 608 387 140 95 444 283
647 399 180 103 665 337 865 416 39 16 79 32 90 37 80 36 396 125 490 139 76
11 256 11 316 0z m-5941 -3317 c0 -54 4 -114 9 -133 5 -19 14 -87 21 -150 11
-100 10 -128 -5 -220 -10 -58 -18 -130 -19 -160 -3 -56 -7 -78 -31 -165 -8
-27 -19 -70 -25 -95 -7 -25 -18 -57 -26 -72 -8 -14 -14 -36 -14 -47 0 -12 -7
-24 -15 -27 -9 -4 -15 -19 -15 -35 0 -16 -4 -29 -10 -29 -5 0 -10 -11 -10 -25
0 -14 -4 -25 -10 -25 -5 0 -10 -8 -10 -17 0 -10 -26 -70 -57 -135 -41 -82 -63
-118 -75 -118 -11 0 -15 -5 -12 -14 3 -7 -2 -16 -10 -19 -9 -4 -16 -14 -16
-24 -1 -20 -43 -73 -59 -73 -5 0 -11 -5 -13 -12 -3 -8 -17 -6 -47 8 -36 16
-54 35 -105 114 -114 174 -155 297 -141 424 5 49 21 93 70 194 80 166 197 366
289 496 39 56 85 121 101 146 16 25 33 47 36 50 3 3 31 43 63 90 103 156 114
170 128 170 4 0 8 -44 8 -97z m567 25 c26 -40 50 -77 53 -83 8 -15 64 -99 70
-105 12 -11 240 -340 240 -346 0 -4 7 -15 16 -25 15 -17 22 -37 23 -71 1 -10
7 -18 14 -18 18 -1 103 -155 159 -290 6 -14 17 -37 24 -52 20 -38 19 -247 -1
-274 -8 -10 -15 -28 -15 -39 -1 -54 -153 -285 -187 -285 -7 0 -13 -4 -13 -10
0 -5 -7 -10 -15 -10 -8 0 -15 -4 -15 -10 0 -19 -30 -10 -65 21 -19 17 -56 70
-82 118 -25 47 -51 93 -58 101 -18 24 -112 241 -125 289 -6 24 -15 51 -20 60
-12 24 -58 181 -64 216 -2 17 -11 62 -20 100 -27 117 -31 326 -11 556 9 112
19 210 21 217 7 24 23 11 71 -60z"/>
<path d="M41880 25573 c-29 -27 -30 -32 -55 -233 -15 -113 -33 -236 -41 -275
-70 -331 -67 -304 -51 -367 l15 -58 -43 -83 c-56 -108 -96 -220 -144 -402 -53
-197 -200 -663 -236 -745 -15 -36 -61 -115 -102 -177 -73 -110 -78 -115 -256
-256 -100 -79 -252 -196 -338 -260 l-156 -116 -33 -76 -33 -76 121 -242 c110
-221 212 -439 290 -622 16 -38 34 -69 40 -68 6 1 240 113 522 248 573 274 514
255 721 235 228 -23 385 -52 568 -104 217 -62 451 -127 604 -167 60 -16 159
-49 220 -73 391 -155 394 -156 454 -156 32 0 64 4 72 9 25 16 -218 710 -421
1201 -75 183 -95 221 -131 257 -38 38 -49 43 -112 52 -93 14 -387 31 -518 31
-73 0 -113 -4 -133 -15 -16 -8 -49 -15 -74 -15 -25 0 -85 -5 -134 -10 l-88
-10 -44 36 c-25 20 -55 57 -69 84 -24 47 -45 168 -45 258 0 59 51 179 117 272
80 113 111 168 134 240 12 36 45 110 74 165 29 55 69 141 88 191 l35 90 -13
75 c-44 246 -201 508 -613 1022 -74 92 -140 167 -148 167 -7 0 -27 -12 -44
-27z m187 -710 c106 -119 133 -152 133 -168 0 -15 -84 -79 -124 -95 -26 -10
-32 -6 -97 56 -38 37 -71 75 -75 86 -11 36 51 208 75 208 5 0 44 -39 88 -87z
m-244 -595 c90 -144 144 -242 156 -286 13 -43 26 -192 18 -192 -6 0 -112 180
-144 245 -43 85 -117 335 -100 335 3 0 34 -46 70 -102z m-194 -1143 c42 -49
142 -199 175 -262 l26 -53 -39 -77 c-21 -43 -44 -105 -51 -138 -7 -33 -15 -66
-19 -73 -11 -19 -263 197 -286 244 -21 44 -15 108 22 234 29 102 41 122 85
143 46 23 52 22 87 -18z m463 -372 c40 -41 53 -67 99 -190 l52 -142 108 55
c60 30 111 54 114 54 3 0 5 -27 5 -60 0 -59 0 -60 -42 -87 -69 -43 -156 -75
-176 -64 -29 16 -73 67 -137 159 l-61 87 -67 3 c-78 3 -77 2 -51 112 15 66 34
96 69 111 33 13 39 11 87 -38z"/>
<path d="M17374 25089 c-484 -746 -997 -1786 -1319 -2674 -58 -160 -193 -629
-201 -699 -6 -49 -4 -54 34 -102 22 -28 68 -72 102 -97 74 -56 110 -60 188
-21 57 28 51 19 170 284 35 80 104 249 152 375 147 385 149 390 194 434 l41
40 1120 -534 c616 -294 1124 -533 1129 -532 5 2 41 77 80 167 97 223 250 543
345 725 l79 150 -1000 598 -1000 599 -29 61 c-16 34 -29 75 -29 90 0 42 76
371 116 502 52 174 66 201 120 233 31 18 67 56 114 121 l69 94 -22 17 c-30 22
-359 254 -374 264 -9 5 -34 -26 -79 -95z m526 -2070 c-54 -170 -107 -309 -120
-309 -10 0 -80 56 -96 78 -7 9 -14 41 -14 71 0 51 2 55 46 95 33 29 60 70 96
141 34 68 63 112 91 136 l42 37 3 -42 c2 -29 -13 -93 -48 -207z m1039 -648
c13 -8 12 -15 -5 -46 -21 -41 -109 -125 -129 -125 -7 0 -43 9 -79 21 l-67 20
22 39 c13 22 33 49 45 61 32 30 180 51 213 30z"/>
<path d="M19749 11758 c-574 -400 -782 -551 -1319 -957 -407 -307 -865 -656
-1015 -773 -64 -50 -193 -147 -287 -214 l-56 -40 130 -185 c216 -306 621 -839
638 -839 4 0 61 48 127 108 65 59 161 145 213 192 52 46 206 198 341 337 266
273 282 293 404 543 41 85 46 101 43 154 l-3 59 60 33 c33 19 63 34 67 34 4 0
15 -25 23 -55 17 -57 37 -85 60 -85 27 0 220 -21 223 -25 9 -9 19 -74 12 -85
-4 -6 -49 -21 -101 -32 -73 -16 -109 -30 -161 -64 -38 -24 -68 -46 -68 -50 0
-3 47 -63 105 -133 l105 -128 56 28 55 28 47 -17 c44 -16 47 -20 54 -62 6 -36
4 -50 -10 -70 l-19 -24 76 -46 c64 -38 86 -60 149 -143 57 -76 72 -101 62
-110 -9 -9 -24 1 -65 46 -30 31 -57 57 -60 57 -13 0 8 -86 28 -115 11 -16 50
-65 85 -107 l64 -78 169 162 c93 89 169 168 169 175 0 21 -66 147 -95 181 -14
17 -60 49 -103 72 -90 49 -118 74 -222 198 -62 74 -84 109 -110 178 -32 84
-33 86 -123 158 -51 40 -125 95 -166 122 l-74 49 62 7 c55 6 76 15 162 72 54
35 110 73 125 83 l25 19 -41 71 c-52 91 -61 123 -48 170 18 69 21 69 163 24
70 -23 137 -41 149 -41 13 0 41 19 66 45 25 25 61 57 81 71 l36 25 171 -74
c236 -103 277 -129 347 -212 107 -129 155 -173 195 -180 35 -6 38 -9 43 -47 6
-47 51 -115 137 -208 l60 -65 24 29 c13 15 45 64 71 108 l47 80 -12 111 c-7
62 -17 128 -24 147 -16 47 -242 371 -375 540 -206 260 -441 581 -599 818 -46
67 -86 122 -91 122 -4 0 -131 -86 -282 -192z m-11 -451 c30 -18 79 -55 110
-83 l56 -50 -49 -37 c-27 -21 -52 -34 -55 -30 -11 12 -133 183 -155 217 l-19
29 29 -7 c17 -4 54 -22 83 -39z m-2006 -1949 c92 -56 138 -91 195 -152 74 -79
74 -79 51 -92 -30 -17 -58 -17 -101 1 -19 8 -71 17 -116 21 l-81 7 -19 66
c-21 71 -61 214 -61 218 0 9 24 -4 132 -69z"/>
<path d="M40100 11696 c-272 -95 -337 -123 -401 -169 -127 -92 -276 -239 -410
-407 -134 -168 -156 -194 -340 -406 -87 -99 -115 -140 -162 -235 -67 -135
-115 -304 -123 -434 -6 -84 -4 -99 32 -225 l38 -135 80 -90 c44 -49 161 -171
261 -271 178 -178 181 -181 255 -206 133 -46 216 -60 350 -60 171 0 272 23
591 132 145 50 343 115 439 144 96 30 263 81 371 115 193 60 253 70 304 51 34
-13 155 -103 226 -168 53 -49 58 -56 77 -134 30 -121 36 -182 21 -209 -26 -49
-118 -134 -214 -199 -247 -165 -277 -175 -476 -160 -166 12 -190 7 -328 -69
-95 -52 -108 -66 -328 -341 -176 -221 -200 -272 -150 -317 50 -46 312 -215
404 -261 155 -78 162 -79 267 -42 113 40 351 149 439 201 194 115 529 450 774
775 176 233 471 733 502 850 6 22 15 104 21 183 9 128 8 152 -10 240 -27 134
-42 172 -102 260 -83 124 -124 167 -221 234 -94 65 -146 87 -307 128 -80 20
-93 20 -230 9 -130 -11 -168 -19 -380 -81 -267 -77 -392 -121 -602 -208 -169
-71 -485 -187 -613 -226 -101 -31 -150 -29 -303 11 -86 22 -99 29 -175 93 -45
38 -104 91 -130 118 l-48 50 11 89 c21 173 66 268 189 399 34 36 52 46 123 65
l83 22 156 -77 c136 -68 161 -77 193 -72 21 3 45 12 53 19 29 24 238 308 425
579 l67 96 -274 187 c-151 102 -280 188 -287 191 -7 2 -69 -15 -138 -39z m316
-421 l15 -55 -41 -92 c-23 -51 -58 -119 -77 -150 -31 -52 -36 -56 -54 -45 -15
9 -19 23 -19 69 0 31 5 60 10 63 18 11 68 116 121 253 13 33 26 19 45 -43z"/>
<path d="M22272 9337 c-45 -51 -2292 -2798 -2295 -2806 -2 -10 247 -212 482
-390 180 -136 550 -401 560 -401 6 1 81 114 226 345 45 72 137 229 205 350
227 405 312 549 455 760 159 236 642 928 835 1195 115 160 130 187 178 309 43
109 50 137 40 147 -7 7 -85 65 -173 130 -88 64 -235 177 -326 250 l-167 132
-20 -21z"/>
<path d="M36895 8778 c-154 -42 -314 -118 -513 -242 -108 -68 -273 -167 -367
-221 -142 -81 -184 -111 -253 -179 -91 -89 -194 -236 -246 -350 -32 -69 -34
-81 -41 -227 l-7 -155 76 -168 c42 -92 116 -244 164 -338 83 -162 90 -172 152
-222 244 -194 439 -246 929 -246 124 0 327 -7 451 -14 124 -8 286 -18 360 -21
108 -5 149 -11 205 -31 63 -23 74 -31 111 -82 23 -31 64 -96 93 -143 49 -83
51 -89 51 -159 0 -115 -18 -199 -49 -228 -46 -43 -132 -79 -266 -110 -268 -64
-284 -63 -474 22 -140 63 -172 67 -318 42 -92 -17 -131 -35 -253 -115 -47 -31
-144 -94 -215 -139 -109 -69 -135 -90 -155 -126 l-23 -44 22 -38 c51 -86 221
-296 319 -393 l105 -104 171 6 c208 7 399 30 486 58 193 63 412 166 659 312
334 197 841 618 911 757 119 236 148 442 90 637 -42 142 -61 181 -135 280 -50
67 -90 106 -168 166 -125 94 -151 107 -302 151 -191 54 -426 69 -1120 70
l-560 1 -71 37 c-135 70 -198 121 -252 206 -77 120 -124 220 -116 245 20 63
89 188 129 234 27 30 82 74 131 104 l86 51 89 -4 89 -4 133 -132 c176 -174
154 -174 393 -9 140 96 430 303 453 323 2 2 -87 125 -199 273 -178 238 -206
271 -233 275 -18 3 -128 7 -245 8 -179 3 -224 1 -277 -14z m585 -470 c0 -20
-4 -47 -9 -61 -12 -31 -196 -217 -215 -217 -50 0 -29 111 29 148 19 12 67 60
107 107 76 90 88 93 88 23z"/>
<path d="M24293 8094 c-65 -67 -160 -198 -171 -236 -16 -51 -24 -123 -16 -152
4 -18 41 -52 118 -110 86 -65 148 -101 276 -162 163 -76 194 -98 206 -141 4
-16 -170 -406 -625 -1398 -347 -756 -632 -1380 -634 -1386 -6 -26 984 -434
1002 -413 4 5 231 602 504 1327 473 1254 499 1321 542 1372 25 29 58 58 73 64
39 15 324 68 409 76 l72 6 26 -41 c20 -32 42 -49 91 -72 36 -17 67 -28 69 -26
6 6 175 548 175 561 0 7 -134 56 -298 110 -447 148 -936 337 -1317 509 -103
47 -415 158 -443 158 -8 0 -35 -21 -59 -46z m497 -1869 c23 -37 66 -64 136
-85 31 -9 46 -22 66 -55 l26 -42 -49 -11 c-68 -16 -260 9 -350 45 l-37 14 26
47 c40 72 71 110 95 115 54 11 65 7 87 -28z m-612 -1292 c33 -28 33 -28 38
-138 3 -61 1 -116 -4 -123 -15 -23 -86 20 -123 75 l-32 47 18 70 c28 110 32
118 52 107 10 -5 33 -22 51 -38z"/>
<path d="M33680 7289 c-93 -34 -555 -165 -750 -213 -244 -60 -513 -118 -737
-158 -166 -30 -183 -35 -183 -53 1 -11 87 -524 193 -1140 l193 -1120 88 -43
89 -43 -33 -34 -33 -34 7 -173 c3 -95 13 -257 21 -359 15 -200 65 -633 74
-648 10 -15 480 72 896 165 412 92 927 232 1310 354 172 55 196 66 221 106 21
31 12 76 -42 218 -34 88 -41 100 -104 155 l-67 60 -211 -69 c-396 -131 -672
-193 -993 -225 l-66 -7 -42 264 c-23 144 -60 370 -82 501 -21 131 -37 243 -34
248 10 15 228 157 266 173 20 8 99 20 175 26 149 12 228 29 424 92 101 32 130
45 153 71 15 17 27 37 27 43 0 9 -204 400 -215 412 -11 12 -282 -91 -414 -158
-93 -46 -255 -104 -340 -121 -56 -11 -67 -10 -124 11 -92 33 -122 55 -172 125
-37 51 -49 78 -60 138 -18 95 -73 497 -77 561 l-3 49 125 89 c216 153 295 195
458 244 95 29 157 53 180 71 82 66 75 46 70 189 -5 146 -13 171 -76 222 -47
37 -41 36 -112 11z m-1068 -904 c62 -13 79 -22 115 -57 64 -63 70 -86 43 -161
-12 -34 -38 -79 -57 -100 -33 -37 -34 -41 -31 -108 2 -52 0 -69 -10 -69 -22 0
-55 20 -94 58 -44 42 -47 66 -24 197 14 80 11 135 -12 219 -6 20 -9 36 -7 36
2 0 37 -7 77 -15z m-73 -782 c6 -31 9 -58 7 -60 -6 -6 -159 -33 -164 -29 -9
10 20 74 46 98 22 21 67 44 93 47 3 1 11 -25 18 -56z m705 -1238 c3 -9 9 -64
12 -123 7 -106 6 -108 -20 -139 -21 -25 -47 -39 -107 -58 -84 -26 -271 -75
-288 -75 -6 0 -11 14 -11 32 0 27 20 52 155 188 113 114 167 160 198 172 54
21 54 21 61 3z"/>
<path d="M27718 6597 c-68 -102 -79 -141 -163 -582 -80 -419 -95 -480 -310
-1305 -89 -337 -385 -1693 -373 -1705 20 -20 1082 -185 1096 -170 3 3 34 229
68 502 l62 496 -34 44 c-47 61 -44 84 13 128 25 19 56 38 69 41 26 7 19 -33
79 461 l48 391 56 18 c76 24 129 24 147 -1 18 -24 44 -110 119 -390 51 -189
146 -516 225 -776 29 -95 43 -115 106 -152 7 -4 28 21 54 66 60 101 141 199
189 225 l41 23 0 -28 c0 -28 -79 -343 -99 -396 -7 -17 -27 -35 -55 -49 l-44
-21 -4 -61 c-3 -48 7 -106 48 -271 81 -334 87 -349 139 -385 l45 -31 372 -9
c354 -9 979 -2 993 11 3 4 20 208 36 454 35 513 42 460 -72 520 l-69 36 -137
-7 c-131 -6 -142 -5 -220 20 l-83 27 0 58 0 59 -125 83 c-69 45 -125 86 -125
89 0 4 24 38 53 76 28 38 65 98 81 132 16 34 34 62 39 62 6 0 25 -11 44 -26
31 -23 33 -29 33 -84 l0 -59 43 -26 c60 -34 107 -33 163 5 44 31 44 31 44 91
0 51 5 66 36 113 l36 54 46 -29 c42 -27 53 -29 139 -29 51 0 93 2 93 4 0 1 -5
17 -11 33 -8 24 -33 44 -114 92 -135 79 -170 110 -186 166 -9 31 -19 45 -31
45 -19 0 -21 8 -77 219 -29 109 -30 116 -13 134 31 35 69 47 144 47 61 0 79
-4 109 -24 39 -27 49 -56 49 -153 0 -50 2 -54 40 -79 22 -15 42 -25 45 -23 15
16 56 386 65 594 14 314 17 856 7 968 -9 88 -9 88 -48 114 -38 25 -42 25 -145
18 -86 -6 -120 -13 -170 -36 -35 -15 -64 -32 -64 -36 0 -12 36 -70 98 -156 40
-56 74 -90 123 -124 l69 -46 -35 -31 -34 -31 9 -110 c16 -201 13 -274 -22
-426 l-31 -140 -43 -30 c-27 -18 -55 -29 -77 -29 -34 0 -34 0 -71 98 -21 53
-40 118 -43 143 l-6 47 -73 21 c-72 21 -74 23 -74 53 0 51 -71 311 -89 326
-57 46 -57 46 -96 15 l-35 -28 -1 -295 c-1 -383 -6 -440 -54 -560 l-37 -95 6
-230 c3 -126 9 -262 12 -301 l7 -72 -109 -7 c-167 -12 -179 -11 -215 18 -31
24 -39 46 -139 379 -59 194 -122 388 -139 431 l-33 77 10 148 10 147 -63 170
c-35 94 -75 223 -89 287 -25 107 -30 119 -61 142 -26 20 -45 26 -84 26 l-50 0
22 60 22 59 -33 34 -33 34 35 21 c40 24 39 38 -2 69 -27 20 -118 34 -308 49
l-81 7 -26 -34 c-34 -45 -67 -118 -67 -150 0 -14 -3 -28 -6 -31 -11 -11 -68
12 -96 39 -27 25 -28 31 -28 114 l0 88 -32 5 c-198 33 -407 66 -420 66 -9 0
-22 -10 -30 -23z m476 -362 l62 -35 13 -171 c11 -159 14 -175 41 -223 17 -29
30 -58 30 -64 0 -7 -15 -21 -32 -32 -87 -53 -242 3 -264 93 l-7 29 46 -7 46
-7 6 35 c4 19 2 83 -4 142 -12 117 -15 275 -5 275 3 0 34 -16 68 -35z m1180
-2016 c34 -27 33 -37 -9 -92 -35 -46 -77 -67 -134 -67 -21 0 -23 3 -17 38 13
69 26 97 59 119 41 28 68 28 101 2z m673 -834 c151 -64 151 -67 31 -221 -49
-63 -92 -114 -95 -114 -14 0 -120 64 -145 88 l-27 25 38 46 c55 67 54 65 11
117 -22 27 -40 54 -40 61 0 6 12 21 27 33 36 28 59 24 200 -35z m-2557 -200
c77 -11 80 -13 74 -48 -14 -82 -4 -76 -95 -61 -45 7 -83 15 -86 18 -3 2 -2 28
2 56 7 49 8 51 34 46 14 -3 46 -8 71 -11z m2174 -74 c54 -38 59 -50 36 -89
-23 -37 -125 -120 -159 -129 -44 -11 -181 76 -181 115 0 21 107 123 150 144
29 14 38 14 72 2 21 -7 58 -27 82 -43z"/>
</g>
</svg>
