<svg xmlns="http://www.w3.org/2000/svg" width="1080" height="1080" viewBox="0 0 1080 1080" preserveAspectRatio="xMidYMid meet"><defs><clipPath id="animationMask_S7mpzxEFO8"><rect width="1080" height="1080" x="0" y="0"></rect></clipPath></defs><g clip-path="url(#animationMask_S7mpzxEFO8)"><g opacity="1" style="-webkit-user-select: none;"><g transform="matrix(0.4131,0,0,0.4131,-707.428911,133.8872907999999)" style="-webkit-user-select: none;"><path d=" M3308.045,1621.126 C3308.045,1634.114 3177.9139999999998,1644.625 3017.403,1644.625 C2856.906,1644.625 2726.7749999999996,1634.114 2726.7749999999996,1621.126 C2726.7749999999996,1608.151 2856.906,1597.6390000000001 3017.403,1597.6390000000001 C3177.9139999999998,1597.6390000000001 3308.045,1608.151 3308.045,1621.126z" style="fill: rgb(238, 238, 238); fill-opacity: 1;"></path></g><g transform="matrix(0.9315000000000002,0,0,0.9315000000000002,4.186787999999865,398.08014699999995)" style="-webkit-user-select: none;"><path d=" M238.668,148.40800000000002 C236.909,157.559 231.988,164.75900000000001 223.85399999999998,164.75900000000001 C223.85399999999998,164.75900000000001 223.85399999999998,160.736 223.85399999999998,160.736 C231.988,160.736 235.034,155.616 235.034,143.42000000000002 C235.034,143.42000000000002 235.248,143.42000000000002 235.248,143.42000000000002 C234.715,131.221 223.133,117.956 208.931,117.956 C199.327,117.96000000000001 190.477,123.152 185.833,131.574 C185.833,131.574 184.88400000000001,133.27100000000002 184.88400000000001,133.27100000000002 C184.88400000000001,133.27100000000002 183.138,132.349 183.138,132.349 C179.978,130.705 176.58100000000002,129.863 173.038,129.863 C167.58,129.863 162.64600000000002,131.939 158.804,135.249 C158.804,135.249 158.804,49.912000000000006 158.804,49.912000000000006 C158.804,49.912000000000006 81.56,49.912000000000006 81.56,49.912000000000006 C81.56,49.912000000000006 81.56,74.306 81.56,74.306 C81.56,74.306 44.97,74.306 44.97,74.306 C44.97,74.306 44.97,94.632 44.97,94.632 C44.97,94.632 0.25200000000000955,94.632 0.25200000000000955,94.632 C0.25200000000000955,94.632 0.25200000000000955,106.831 0.25200000000000955,106.831 C0.25200000000000955,106.831 73.43,106.831 73.43,106.831 C73.43,106.831 73.43,123.09100000000001 73.43,123.09100000000001 C73.43,123.09100000000001 0.25200000000000955,123.09100000000001 0.25200000000000955,123.09100000000001 C0.25200000000000955,123.09100000000001 0.25200000000000955,131.221 0.25200000000000955,131.221 C0.25200000000000955,131.221 73.43,131.221 73.43,131.221 C73.43,131.221 73.43,147.485 73.43,147.485 C73.43,147.485 0.25200000000000955,147.485 0.25200000000000955,147.485 C0.25200000000000955,147.485 0.25200000000000955,155.616 0.25200000000000955,155.616 C0.25200000000000955,155.616 73.43,155.616 73.43,155.616 C73.43,155.616 73.43,171.876 73.43,171.876 C73.43,171.876 0.25200000000000955,171.876 0.25200000000000955,171.876 C0.25200000000000955,171.876 0.25200000000000955,180.01 0.25200000000000955,180.01 C0.25200000000000955,180.01 73.43,180.01 73.43,180.01 C73.43,180.01 73.43,196.27100000000002 73.43,196.27100000000002 C73.43,196.27100000000002 0.25200000000000955,196.27100000000002 0.25200000000000955,196.27100000000002 C0.25200000000000955,196.27100000000002 0.25200000000000955,208.466 0.25200000000000955,208.466 C0.25200000000000955,208.466 36.842,208.466 36.842,208.466 C36.842,208.466 36.842,232.86 36.842,232.86 C36.842,232.86 0.25200000000000955,232.86 0.25200000000000955,232.86 C0.25200000000000955,232.86 0.25200000000000955,240.994 0.25200000000000955,240.994 C0.25200000000000955,240.994 82.647,240.994 82.647,240.994 C82.647,240.994 114.08800000000001,240.994 114.08800000000001,240.994 C114.08800000000001,240.994 114.08800000000001,94.632 114.08800000000001,94.632 C114.08800000000001,94.632 117.053,94.632 117.053,94.632 C117.053,94.632 118.152,94.632 118.152,94.632 C118.152,94.632 118.152,240.994 118.152,240.994 C118.152,240.994 158.804,240.994 158.804,240.994 C158.804,240.994 158.804,193.079 158.804,193.079 C159.974,192.999 161.15,192.828 162.308,192.49 C162.308,192.49 165.853,191.45 165.853,191.45 C165.853,191.45 164.80200000000002,194.988 164.80200000000002,194.988 C164.458,196.15699999999998 164.297,197.14 164.297,198.08100000000002 C164.297,204.11599999999999 169.208,209.02800000000002 175.247,209.02800000000002 C178.794,209.02800000000002 181.979,207.327 183.988,204.583 C183.43,203.02700000000002 182.774,201.406 181.901,199.615 C181.901,199.615 181.322,198.43 181.322,198.43 C181.322,198.43 187.803,190.77100000000002 187.803,190.77100000000002 C187.803,190.77100000000002 189.247,193.196 189.247,193.196 C191.24400000000003,196.551 193.185,198.392 194.43400000000003,198.02800000000002 C197.19,197.303 200.059,188.638 200.23000000000002,180.526 C200.23000000000002,180.526 204.25900000000001,180.614 204.25900000000001,180.614 C204.196,183.476 203.549,189.522 201.704,194.479 C201.704,194.479 201.72500000000002,194.475 201.72500000000002,194.475 C200.37400000000002,198.10399999999998 198.372,201.155 195.461,201.922 C193.732,202.374 191.997,201.858 190.282,200.579 C189.818,200.233 189.357,199.835 188.89600000000002,199.387 C188.37,198.844 187.839,198.29000000000002 187.317,197.58 C187.317,197.58 186.084,199.038 186.084,199.038 C190.33100000000002,208.223 190.264,214.118 190.16,222.847 C190.147,224.24 190.132,226.096 190.132,227.675 C190.132,233.688 189.16,240.994 188.31900000000002,240.994 C188.31900000000002,240.994 205.823,240.994 205.823,240.994 C204.973,240.994 203.999,233.68 204.018,227.668 C204.103,200.207 209.728,184.842 210.952,181.851 C210.952,181.851 210.882,181.84 210.882,181.84 C211.04700000000003,181.426 211.163,181.16 211.195,181.092 C211.195,181.092 214.86599999999999,182.747 214.86599999999999,182.747 C214.839,182.804 213.848,185.08100000000002 212.63,189.488 C212.63,189.488 213.613,188.96800000000002 213.613,188.96800000000002 C213.613,188.96800000000002 212.07999999999998,191.541 212.07999999999998,191.541 C211.25,194.836 210.368,199.049 209.639,204.162 C211.20100000000002,207.251 214.372,209.4 218.066,209.4 C223.29000000000002,209.4 227.53500000000003,205.148 227.53500000000003,199.926 C227.53500000000003,198.472 227.177,197.03 226.461,195.64 C226.461,195.64 224.833,192.479 224.833,192.479 C224.833,192.479 228.38400000000001,192.71 228.38400000000001,192.71 C229.09199999999998,192.76 229.47899999999998,192.79000000000002 229.872,192.79000000000002 C242.596,192.79000000000002 253.006,182.436 253.006,169.713 C253.006,160.197 247.335,151.915 238.668,148.40800000000002z" style="fill: rgb(238, 238, 238); fill-opacity: 1;"></path><path d=" M130.34699999999998,30.968 C130.34699999999998,30.968 81.56099999999999,0.2510000000000012 81.56099999999999,0.2510000000000012 C81.56099999999999,0.2510000000000012 81.56099999999999,45.846999999999994 81.56099999999999,45.846999999999994 C81.56099999999999,45.846999999999994 130.34699999999998,45.846999999999994 130.34699999999998,45.846999999999994 C130.34699999999998,45.846999999999994 130.34699999999998,30.968 130.34699999999998,30.968z" style="fill: rgb(238, 238, 238); fill-opacity: 1;"></path><path d=" M69.363,110.896 C69.363,110.896 0.2510000000000048,110.896 0.2510000000000048,110.896 C0.2510000000000048,110.896 0.2510000000000048,119.026 0.2510000000000048,119.026 C0.2510000000000048,119.026 69.363,119.026 69.363,119.026 C69.363,119.026 69.363,110.896 69.363,110.896z" style="fill: rgb(238, 238, 238); fill-opacity: 1;"></path><path d=" M69.363,184.076 C69.363,184.076 0.2510000000000048,184.076 0.2510000000000048,184.076 C0.2510000000000048,184.076 0.2510000000000048,192.206 0.2510000000000048,192.206 C0.2510000000000048,192.206 69.363,192.206 69.363,192.206 C69.363,192.206 69.363,184.076 69.363,184.076z" style="fill: rgb(238, 238, 238); fill-opacity: 1;"></path><path d=" M32.772999999999996,212.535 C32.772999999999996,212.535 0.24899999999999878,212.535 0.24899999999999878,212.535 C0.24899999999999878,212.535 0.24899999999999878,228.795 0.24899999999999878,228.795 C0.24899999999999878,228.795 32.772999999999996,228.795 32.772999999999996,228.795 C32.772999999999996,228.795 32.772999999999996,212.535 32.772999999999996,212.535z" style="fill: rgb(238, 238, 238); fill-opacity: 1;"></path><path d=" M69.363,135.291 C69.363,135.291 0.2510000000000048,135.291 0.2510000000000048,135.291 C0.2510000000000048,135.291 0.2510000000000048,143.421 0.2510000000000048,143.421 C0.2510000000000048,143.421 69.363,143.421 69.363,143.421 C69.363,143.421 69.363,135.291 69.363,135.291z" style="fill: rgb(238, 238, 238); fill-opacity: 1;"></path><path d=" M69.363,159.68099999999998 C69.363,159.68099999999998 0.2510000000000048,159.68099999999998 0.2510000000000048,159.68099999999998 C0.2510000000000048,159.68099999999998 0.2510000000000048,167.815 0.2510000000000048,167.815 C0.2510000000000048,167.815 69.363,167.815 69.363,167.815 C69.363,167.815 69.363,159.68099999999998 69.363,159.68099999999998z" style="fill: rgb(238, 238, 238); fill-opacity: 1;"></path></g><g transform="matrix(1.4823000000000002,0,0,1.4823000000000002,-1715.4187500000003,-385.6804700000001)" style="-webkit-user-select: none;"><path d=" M613.2389999999999,739.543 C613.2389999999999,767.918 590.237,790.92 561.862,790.92 C533.487,790.92 510.48499999999996,767.918 510.48499999999996,739.543 C510.48499999999996,711.168 533.487,688.166 561.862,688.166 C590.237,688.166 613.2389999999999,711.168 613.2389999999999,739.543z" style="fill: rgb(214, 214, 214); fill-opacity: 1;"></path><path d=" M715.9929999999999,739.543 C715.9929999999999,767.918 692.991,790.92 664.616,790.92 C636.241,790.92 613.239,767.918 613.239,739.543 C613.239,711.168 636.241,688.166 664.616,688.166 C692.991,688.166 715.9929999999999,711.168 715.9929999999999,739.543z" style="fill: rgb(214, 214, 214); fill-opacity: 1;"></path><path d=" M818.747,739.543 C818.747,767.918 795.745,790.92 767.37,790.92 C738.995,790.92 715.993,767.918 715.993,739.543 C715.993,711.168 738.995,688.166 767.37,688.166 C795.745,688.166 818.747,711.168 818.747,739.543z" style="fill: rgb(214, 214, 214); fill-opacity: 1;"></path><path d=" M1113.308,739.543 C1113.308,767.918 1090.306,790.92 1061.931,790.92 C1033.556,790.92 1010.5540000000001,767.918 1010.5540000000001,739.543 C1010.5540000000001,711.168 1033.556,688.166 1061.931,688.166 C1090.306,688.166 1113.308,711.168 1113.308,739.543z" style="fill: rgb(214, 214, 214); fill-opacity: 1;"></path><path d=" M1216.062,739.543 C1216.062,767.918 1193.06,790.92 1164.685,790.92 C1136.31,790.92 1113.308,767.918 1113.308,739.543 C1113.308,711.168 1136.31,688.166 1164.685,688.166 C1193.06,688.166 1216.062,711.168 1216.062,739.543z" style="fill: rgb(214, 214, 214); fill-opacity: 1;"></path><path d=" M1318.815,739.543 C1318.815,767.918 1295.813,790.92 1267.438,790.92 C1239.063,790.92 1216.0610000000001,767.918 1216.0610000000001,739.543 C1216.0610000000001,711.168 1239.063,688.166 1267.438,688.166 C1295.813,688.166 1318.815,711.168 1318.815,739.543z" style="fill: rgb(214, 214, 214); fill-opacity: 1;"></path><path d=" M1242.383,739.543 C1242.383,725.705 1253.601,714.488 1267.438,714.488 C1281.276,714.488 1292.4930000000002,725.705 1292.4930000000002,739.543 C1292.4930000000002,753.381 1281.276,764.598 1267.438,764.598 C1253.601,764.598 1242.383,753.381 1242.383,739.543z" style="fill: rgb(224, 224, 224); fill-opacity: 1;"></path><path d=" M1139.6299999999999,739.543 C1139.6299999999999,725.705 1150.848,714.488 1164.685,714.488 C1178.523,714.488 1189.74,725.705 1189.74,739.543 C1189.74,753.381 1178.523,764.598 1164.685,764.598 C1150.848,764.598 1139.6299999999999,753.381 1139.6299999999999,739.543z" style="fill: rgb(224, 224, 224); fill-opacity: 1;"></path><path d=" M1036.876,739.543 C1036.876,725.705 1048.094,714.488 1061.931,714.488 C1075.769,714.488 1086.986,725.705 1086.986,739.543 C1086.986,753.381 1075.769,764.598 1061.931,764.598 C1048.094,764.598 1036.876,753.381 1036.876,739.543z" style="fill: rgb(224, 224, 224); fill-opacity: 1;"></path><path d=" M742.941,739.543 C742.941,725.705 754.159,714.488 767.996,714.488 C781.834,714.488 793.0509999999999,725.705 793.0509999999999,739.543 C793.0509999999999,753.381 781.834,764.598 767.996,764.598 C754.159,764.598 742.941,753.381 742.941,739.543z" style="fill: rgb(224, 224, 224); fill-opacity: 1;"></path><path d=" M640.1880000000001,739.543 C640.1880000000001,725.705 651.4060000000001,714.488 665.243,714.488 C679.081,714.488 690.298,725.705 690.298,739.543 C690.298,753.381 679.081,764.598 665.243,764.598 C651.4060000000001,764.598 640.1880000000001,753.381 640.1880000000001,739.543z" style="fill: rgb(224, 224, 224); fill-opacity: 1;"></path><path d=" M537.4340000000001,739.543 C537.4340000000001,725.705 548.652,714.488 562.489,714.488 C576.327,714.488 587.544,725.705 587.544,739.543 C587.544,753.381 576.327,764.598 562.489,764.598 C548.652,764.598 537.4340000000001,753.381 537.4340000000001,739.543z" style="fill: rgb(224, 224, 224); fill-opacity: 1;"></path><path d=" M1396.951,755.936 C1396.951,755.936 1382.822,755.936 1382.822,755.936 C1382.822,755.936 1382.822,410.55100000000004 1382.822,410.55100000000004 C1382.822,410.55100000000004 1396.951,410.55100000000004 1396.951,410.55100000000004 C1396.951,410.55100000000004 1396.951,755.936 1396.951,755.936z" style="fill: rgb(224, 224, 224); fill-opacity: 1;"></path><path d=" M1404.99,607.9240000000001 C1404.99,607.9240000000001 1332.516,607.9240000000001 1332.516,607.9240000000001 C1332.516,607.9240000000001 1332.516,589.514 1332.516,589.514 C1332.516,589.514 1404.99,589.514 1404.99,589.514 C1410.023,589.514 1414.1019999999999,593.594 1414.1019999999999,598.6270000000001 C1414.1019999999999,598.6270000000001 1414.1019999999999,598.811 1414.1019999999999,598.811 C1414.1019999999999,603.844 1410.023,607.9240000000001 1404.99,607.9240000000001z" style="fill: rgb(221, 221, 221); fill-opacity: 1;"></path><path d=" M1461.744,773.423 C1461.744,773.423 1362.5629999999999,773.2909999999999 1362.5629999999999,773.2909999999999 C1362.5629999999999,773.2909999999999 1332.508,739.411 1332.508,739.411 C1332.508,739.411 1318.815,739.543 1318.815,739.543 C1318.815,739.543 1318.815,721.679 1318.815,721.679 C1318.815,721.679 1345.623,721.679 1345.623,721.679 C1345.623,721.679 1375.6779999999999,755.05 1375.6779999999999,755.05 C1375.6779999999999,755.05 1461.744,755.0129999999999 1461.744,755.0129999999999 C1466.777,755.0129999999999 1470.857,759.093 1470.857,764.126 C1470.857,764.126 1470.857,764.31 1470.857,764.31 C1470.857,769.343 1466.777,773.423 1461.744,773.423z" style="fill: rgb(221, 221, 221); fill-opacity: 1;"></path><path d=" M1346.217,716.4240000000001 C1346.217,716.4240000000001 1330.805,739.5440000000001 1330.805,739.5440000000001 C1330.805,739.5440000000001 479.659,739.5440000000001 479.659,739.5440000000001 C479.659,739.5440000000001 479.659,388.28800000000007 479.659,388.28800000000007 C479.659,388.28800000000007 1346.217,388.28800000000007 1346.217,388.28800000000007 C1346.217,388.28800000000007 1346.217,716.4240000000001 1346.217,716.4240000000001z" style="fill: rgb(238, 238, 238); fill-opacity: 1;"></path><path d=" M505.64000000000004,613.0630000000001 C505.64000000000004,613.0630000000001 505.64000000000004,503.03000000000003 505.64000000000004,503.03000000000003 C505.64000000000004,470.21600000000007 532.337,443.51900000000006 565.1510000000001,443.51900000000006 C597.966,443.51900000000006 624.663,470.21600000000007 624.663,503.03000000000003 C624.663,503.03000000000003 624.663,613.0630000000001 624.663,613.0630000000001 C624.663,613.0630000000001 505.64000000000004,613.0630000000001 505.64000000000004,613.0630000000001z" style="fill: rgb(241, 242, 242); fill-opacity: 1;"></path><path d=" M565.151,448.65599999999995 C595.1809999999999,448.65599999999995 619.525,472.99999999999994 619.525,503.03 C619.525,503.03 619.525,607.925 619.525,607.925 C619.525,607.925 510.77699999999993,607.925 510.77699999999993,607.925 C510.77699999999993,607.925 510.77699999999993,503.03 510.77699999999993,503.03 C510.77699999999993,472.99999999999994 535.121,448.65599999999995 565.151,448.65599999999995z M565.151,438.381 C529.5029999999999,438.381 500.50199999999995,467.38199999999995 500.50199999999995,503.03 C500.50199999999995,503.03 500.50199999999995,607.925 500.50199999999995,607.925 C500.50199999999995,607.925 500.50199999999995,618.1999999999999 500.50199999999995,618.1999999999999 C500.50199999999995,618.1999999999999 510.77699999999993,618.1999999999999 510.77699999999993,618.1999999999999 C510.77699999999993,618.1999999999999 619.525,618.1999999999999 619.525,618.1999999999999 C619.525,618.1999999999999 629.8,618.1999999999999 629.8,618.1999999999999 C629.8,618.1999999999999 629.8,607.925 629.8,607.925 C629.8,607.925 629.8,503.03 629.8,503.03 C629.8,467.38199999999995 600.799,438.381 565.151,438.381z" style="fill: rgb(211, 211, 211); fill-opacity: 1;"></path><path d=" M678.5310000000001,613.0630000000001 C678.5310000000001,613.0630000000001 678.5310000000001,503.03000000000003 678.5310000000001,503.03000000000003 C678.5310000000001,470.21600000000007 705.2270000000001,443.51900000000006 738.042,443.51900000000006 C770.857,443.51900000000006 797.553,470.21600000000007 797.553,503.03000000000003 C797.553,503.03000000000003 797.553,613.0630000000001 797.553,613.0630000000001 C797.553,613.0630000000001 678.5310000000001,613.0630000000001 678.5310000000001,613.0630000000001z" style="fill: rgb(241, 242, 242); fill-opacity: 1;"></path><path d=" M738.042,448.65599999999995 C768.072,448.65599999999995 792.416,472.99999999999994 792.416,503.03 C792.416,503.03 792.416,607.925 792.416,607.925 C792.416,607.925 683.668,607.925 683.668,607.925 C683.668,607.925 683.668,503.03 683.668,503.03 C683.668,472.99999999999994 708.0120000000001,448.65599999999995 738.042,448.65599999999995z M738.042,438.381 C702.394,438.381 673.393,467.38199999999995 673.393,503.03 C673.393,503.03 673.393,607.925 673.393,607.925 C673.393,607.925 673.393,618.1999999999999 673.393,618.1999999999999 C673.393,618.1999999999999 683.668,618.1999999999999 683.668,618.1999999999999 C683.668,618.1999999999999 792.416,618.1999999999999 792.416,618.1999999999999 C792.416,618.1999999999999 802.691,618.1999999999999 802.691,618.1999999999999 C802.691,618.1999999999999 802.691,607.925 802.691,607.925 C802.691,607.925 802.691,503.03 802.691,503.03 C802.691,467.38199999999995 773.69,438.381 738.042,438.381z" style="fill: rgb(211, 211, 211); fill-opacity: 1;"></path><path d=" M853.427,613.0630000000001 C853.427,613.0630000000001 853.427,503.03000000000003 853.427,503.03000000000003 C853.427,470.21600000000007 880.123,443.51900000000006 912.938,443.51900000000006 C945.752,443.51900000000006 972.449,470.21600000000007 972.449,503.03000000000003 C972.449,503.03000000000003 972.449,613.0630000000001 972.449,613.0630000000001 C972.449,613.0630000000001 853.427,613.0630000000001 853.427,613.0630000000001z" style="fill: rgb(241, 242, 242); fill-opacity: 1;"></path><path d=" M912.938,448.65599999999995 C942.968,448.65599999999995 967.312,472.99999999999994 967.312,503.03 C967.312,503.03 967.312,607.925 967.312,607.925 C967.312,607.925 858.564,607.925 858.564,607.925 C858.564,607.925 858.564,503.03 858.564,503.03 C858.564,472.99999999999994 882.908,448.65599999999995 912.938,448.65599999999995z M912.938,438.381 C877.29,438.381 848.289,467.38199999999995 848.289,503.03 C848.289,503.03 848.289,607.925 848.289,607.925 C848.289,607.925 848.289,618.1999999999999 848.289,618.1999999999999 C848.289,618.1999999999999 858.564,618.1999999999999 858.564,618.1999999999999 C858.564,618.1999999999999 967.312,618.1999999999999 967.312,618.1999999999999 C967.312,618.1999999999999 977.587,618.1999999999999 977.587,618.1999999999999 C977.587,618.1999999999999 977.587,607.925 977.587,607.925 C977.587,607.925 977.587,503.03 977.587,503.03 C977.587,467.38199999999995 948.586,438.381 912.938,438.381z" style="fill: rgb(211, 211, 211); fill-opacity: 1;"></path><path d=" M1381.385,366.024 C1381.385,366.024 912.938,366.024 912.938,366.024 C912.938,366.024 489.93499999999995,366.024 489.93499999999995,366.024 C489.93499999999995,366.024 457.39599999999996,410.552 457.39599999999996,410.552 C457.39599999999996,410.552 912.938,410.552 912.938,410.552 C912.938,410.552 1413.924,410.552 1413.924,410.552 C1413.924,410.552 1381.385,366.024 1381.385,366.024z" style="fill: rgb(221, 221, 221); fill-opacity: 1;"></path><path d=" M1226.337,298.37899999999996 C1226.337,298.37899999999996 1208.9969999999998,298.37899999999996 1208.9969999999998,298.37899999999996 C1208.9969999999998,298.37899999999996 1208.9969999999998,328.257 1208.9969999999998,328.257 C1208.9969999999998,328.257 1226.337,328.257 1226.337,328.257 C1226.337,328.257 1226.337,298.37899999999996 1226.337,298.37899999999996z" style="fill: rgb(238, 238, 238); fill-opacity: 1;"></path><path d=" M1308.9679999999998,340.337 C1308.9679999999998,340.337 516.908,340.337 516.908,340.337 C516.908,340.337 516.908,366.025 516.908,366.025 C516.908,366.025 1308.9679999999998,366.025 1308.9679999999998,366.025 C1308.9679999999998,366.025 1308.9679999999998,340.337 1308.9679999999998,340.337z" style="fill: rgb(238, 238, 238); fill-opacity: 1;"></path><path d=" M1311.452,322.476 C1311.452,322.476 1111.281,322.476 1111.281,322.476 C1111.281,322.476 914.766,322.476 914.766,322.476 C914.766,322.476 911.11,322.476 911.11,322.476 C911.11,322.476 714.595,322.476 714.595,322.476 C714.595,322.476 514.423,322.476 514.423,322.476 C514.423,322.476 499.026,343.548 499.026,343.548 C499.026,343.548 714.595,343.548 714.595,343.548 C714.595,343.548 895.712,343.548 895.712,343.548 C895.712,343.548 930.164,343.548 930.164,343.548 C930.164,343.548 1111.281,343.548 1111.281,343.548 C1111.281,343.548 1326.85,343.548 1326.85,343.548 C1326.85,343.548 1311.452,322.476 1311.452,322.476z" style="fill: rgb(221, 221, 221); fill-opacity: 1;"></path><path d=" M1233.4009999999998,308.654 C1233.4009999999998,308.654 1201.933,308.654 1201.933,308.654 C1201.933,308.654 1201.933,303.68 1201.933,303.68 C1201.933,295.077 1208.907,288.10400000000004 1217.51,288.10400000000004 C1217.51,288.10400000000004 1217.8239999999998,288.10400000000004 1217.8239999999998,288.10400000000004 C1226.427,288.10400000000004 1233.4009999999998,295.077 1233.4009999999998,303.68 C1233.4009999999998,303.68 1233.4009999999998,308.654 1233.4009999999998,308.654z" style="fill: rgb(211, 211, 211); fill-opacity: 1;"></path><path d=" M1318.8139999999999,739.543 C1318.8139999999999,739.543 1010.554,739.543 1010.554,739.543 C1010.554,739.543 1010.554,410.55100000000004 1010.554,410.55100000000004 C1010.554,410.55100000000004 1318.8139999999999,410.55100000000004 1318.8139999999999,410.55100000000004 C1318.8139999999999,410.55100000000004 1318.8139999999999,739.543 1318.8139999999999,739.543z" style="fill: rgb(250, 250, 250); fill-opacity: 1;"></path><path d=" M1318.8139999999999,739.542 C1318.8139999999999,739.542 1010.554,739.542 1010.554,739.542 C1010.554,739.542 1010.554,674.286 1010.554,674.286 C1010.554,674.286 1318.8139999999999,674.286 1318.8139999999999,674.286 C1318.8139999999999,674.286 1318.8139999999999,739.542 1318.8139999999999,739.542z" style="fill: rgb(221, 221, 221); fill-opacity: 1;"></path><path d=" M1318.8139999999999,634.896 C1318.8139999999999,634.896 1010.554,634.896 1010.554,634.896 C1010.554,634.896 1010.554,674.2860000000001 1010.554,674.2860000000001 C1010.554,674.2860000000001 1318.8139999999999,674.2860000000001 1318.8139999999999,674.2860000000001 C1318.8139999999999,674.2860000000001 1318.8139999999999,634.896 1318.8139999999999,634.896z" style="fill: rgb(211, 211, 211); fill-opacity: 1;"></path><path d=" M1318.8139999999999,634.897 C1318.8139999999999,634.897 1010.554,634.897 1010.554,634.897 C1010.554,634.897 1010.554,647.313 1010.554,647.313 C1010.554,647.313 1318.8139999999999,647.313 1318.8139999999999,647.313 C1318.8139999999999,647.313 1318.8139999999999,634.897 1318.8139999999999,634.897z" style="fill: rgb(211, 211, 211); fill-opacity: 1;"></path><path d=" M1318.8139999999999,563.916 C1318.8139999999999,563.916 1010.554,563.916 1010.554,563.916 C1010.554,563.916 1010.554,634.898 1010.554,634.898 C1010.554,634.898 1318.8139999999999,634.898 1318.8139999999999,634.898 C1318.8139999999999,634.898 1318.8139999999999,563.916 1318.8139999999999,563.916z" style="fill: rgb(221, 221, 221); fill-opacity: 1;"></path><path d=" M1120.372,739.543 C1120.372,739.543 1106.243,739.543 1106.243,739.543 C1106.243,739.543 1106.243,410.55100000000004 1106.243,410.55100000000004 C1106.243,410.55100000000004 1120.372,410.55100000000004 1120.372,410.55100000000004 C1120.372,410.55100000000004 1120.372,739.543 1120.372,739.543z" style="fill: rgb(224, 224, 224); fill-opacity: 1;"></path><path d=" M1224.731,739.543 C1224.731,739.543 1210.6019999999999,739.543 1210.6019999999999,739.543 C1210.6019999999999,739.543 1210.6019999999999,410.55100000000004 1210.6019999999999,410.55100000000004 C1210.6019999999999,410.55100000000004 1224.731,410.55100000000004 1224.731,410.55100000000004 C1224.731,410.55100000000004 1224.731,739.543 1224.731,739.543z" style="fill: rgb(224, 224, 224); fill-opacity: 1;"></path><path d=" M974.59,721.133 C974.59,721.133 499.02599999999995,721.133 499.02599999999995,721.133 C499.02599999999995,721.133 499.02599999999995,641.105 499.02599999999995,641.105 C499.02599999999995,641.105 974.59,641.105 974.59,641.105 C974.59,641.105 974.59,721.133 974.59,721.133z" style="fill: rgb(211, 211, 211); fill-opacity: 1;"></path></g><g transform="matrix(0.7744537584457899,-0.23732125069026191,0.23732125069026191,0.7744537584457899,-348.5172796409862,240.21907654540897)" style="-webkit-user-select: none;"><g style="stroke-linecap: round; stroke-linejoin: round; fill-opacity: 0; stroke: rgb(182, 32, 37); stroke-opacity: 1; stroke-width: 33;"><path d=" M960,609.167 C960,609.167 960,683.194 960,683.194"></path></g></g><g transform="matrix(0.7874808131673744,0.18966804921559907,-0.18966804921559907,0.7874808131673744,-69.3895603380042,-178.58812973905975)" style="-webkit-user-select: none;"><g style="stroke-linecap: butt; stroke-linejoin: miter; fill-opacity: 0; stroke-miterlimit: 10; stroke: rgb(182, 32, 37); stroke-opacity: 1; stroke-width: 33;"><path d=" M960,683.194 C960,683.194 960,768.221 960,768.221"></path></g></g><g transform="matrix(0.8095922808795932,-0.025697057033400535,0.025697057033400535,0.8095922808795932,-260.34203762025396,15.747166470010491)" style="-webkit-user-select: none;"><path d=" M1017,727.692 C1017.05,726.875 1017.082,726.054 1017.082,725.2249999999999 C1017.082,703.059 999.114,685.0889999999999 976.947,685.0889999999999 C954.781,685.0889999999999 936.812,703.059 936.812,725.2249999999999 C936.812,753 942.592,774.434 950.216,838 C950.216,838 950.293,838 950.293,838 C950.293,851.7339999999999 961.427,862.867 975.1610000000001,862.867 C988.895,862.867 1000.028,851.7339999999999 1000.028,838 C1000.028,837.856 1000.02,837.7139999999999 1000.017,837.5699999999999 C1001.041,776.7969999999999 1017.002,754.832 1017.002,727.692 C1017.002,727.692 1017,727.692 1017,727.692z" style="fill: rgb(55, 71, 79); fill-opacity: 1;"></path></g><g transform="matrix(0.8091396608915763,0.037323038089965226,-0.037323038089965226,0.8091396608915763,-206.9829890512549,-44.19287943876624)" style="-webkit-user-select: none;"><path d=" M1002.344,965.897 C1002.344,975.471 994.583,983.2320000000001 985.009,983.2320000000001 C975.4350000000001,983.2320000000001 967.674,975.471 967.674,965.897 C967.674,956.3230000000001 975.4350000000001,948.562 985.009,948.562 C994.583,948.562 1002.344,956.3230000000001 1002.344,965.897z" style="fill: rgb(144, 164, 174); fill-opacity: 1;"></path><path d=" M967.618,965.9540000000001 C967.618,965.9540000000001 1002.3430000000001,965.48 1002.3430000000001,965.48 C1002.3430000000001,965.48 1002.024,941.776 1002.024,941.776 C1002.024,941.776 967.298,942.253 967.298,942.253 C967.298,942.253 967.618,965.9540000000001 967.618,965.9540000000001z" style="fill: rgb(144, 164, 174); fill-opacity: 1;"></path><path d=" M955.916,957.0300000000001 C955.916,957.0300000000001 1002.659,957.4490000000001 1002.659,957.4490000000001 C1002.659,957.4490000000001 999.969,866.4380000000001 999.969,842.7070000000001 C999.969,841.5020000000001 999.984,840.33 999.999,839.1560000000001 C1000.016,838.773 1000.028,838.388 1000.028,838.0010000000001 C1000.028,824.267 988.895,813.134 975.1610000000001,813.134 C961.427,813.134 950.293,824.267 950.293,838.0010000000001 C950.293,838.0010000000001 950.215,838.0010000000001 950.215,838.0010000000001 C950.239,838.2650000000001 950.263,838.524 950.287,838.7890000000001 C950.299,838.9250000000001 950.312,839.072 950.3240000000001,839.2120000000001 C950.352,839.797 950.4060000000001,840.375 950.473,840.9490000000001 C952.825,869.2360000000001 955.916,957.0300000000001 955.916,957.0300000000001z" style="fill: rgb(55, 71, 79); fill-opacity: 1;"></path></g><g transform="matrix(0.8095635360861011,0.02658723452651755,-0.02658723452651755,0.8095635360861011,-217.72816660026825,-32.74201158100621)" style="-webkit-user-select: none;"><path d=" M1004.749,1000.228 C1004.561,986.3499999999999 1002.716,966.0229999999999 1002.716,966.0229999999999 C986.9929999999999,966.2389999999999 967.663,965.708 967.663,965.708 C967.663,965.708 961.213,972.757 955.737,976.083 C949.425,979.9169999999999 938.06,982.631 924.885,984.9409999999999 C914.286,986.8019999999999 913.5699999999999,1000.303 913.5699999999999,1000.303 C956.607,1000.303 960.874,1001.1899999999999 982.172,996.0809999999999 C982.172,996.0809999999999 983.154,1000.3539999999999 983.154,1000.3539999999999 C983.154,1000.3539999999999 1004.749,1000.228 1004.749,1000.228z" style="fill: rgb(0, 0, 0); fill-opacity: 1;"></path></g><g transform="matrix(0.8077987651379385,-0.05967541404650576,0.05967541404650576,0.8077987651379385,-283.3038957204536,50.184646175533246)" style="-webkit-user-select: none;"><path d=" M1017,727.692 C1017.05,726.875 1017.082,726.054 1017.082,725.2249999999999 C1017.082,703.059 999.114,685.0889999999999 976.947,685.0889999999999 C954.781,685.0889999999999 936.812,703.059 936.812,725.2249999999999 C936.812,753 942.592,774.434 950.216,838 C950.216,838 950.293,838 950.293,838 C950.293,851.7339999999999 961.427,862.867 975.1610000000001,862.867 C988.895,862.867 1000.028,851.7339999999999 1000.028,838 C1000.028,837.856 1000.02,837.7139999999999 1000.017,837.5699999999999 C1001.041,776.7969999999999 1017.002,754.832 1017.002,727.692 C1017.002,727.692 1017,727.692 1017,727.692z" style="fill: rgb(84, 110, 122); fill-opacity: 1;"></path></g><g transform="matrix(0.8099866463385669,0.0046511023641105445,-0.0046511023641105445,0.8099866463385669,-231.3755213364228,-13.2426966868275)" style="-webkit-user-select: none;"><path d=" M1002.344,965.897 C1002.344,975.471 994.583,983.2320000000001 985.009,983.2320000000001 C975.4350000000001,983.2320000000001 967.674,975.471 967.674,965.897 C967.674,956.3230000000001 975.4350000000001,948.562 985.009,948.562 C994.583,948.562 1002.344,956.3230000000001 1002.344,965.897z" style="fill: rgb(144, 164, 174); fill-opacity: 1;"></path><path d=" M967.618,965.9540000000001 C967.618,965.9540000000001 1002.3430000000001,965.48 1002.3430000000001,965.48 C1002.3430000000001,965.48 1002.024,941.776 1002.024,941.776 C1002.024,941.776 967.298,942.253 967.298,942.253 C967.298,942.253 967.618,965.9540000000001 967.618,965.9540000000001z" style="fill: rgb(144, 164, 174); fill-opacity: 1;"></path><path d=" M955.916,957.0300000000001 C955.916,957.0300000000001 1002.659,957.4490000000001 1002.659,957.4490000000001 C1002.659,957.4490000000001 999.969,866.4380000000001 999.969,842.7070000000001 C999.969,841.5020000000001 999.984,840.33 999.999,839.1560000000001 C1000.016,838.773 1000.028,838.388 1000.028,838.0010000000001 C1000.028,824.267 988.895,813.134 975.1610000000001,813.134 C961.427,813.134 950.293,824.267 950.293,838.0010000000001 C950.293,838.0010000000001 950.215,838.0010000000001 950.215,838.0010000000001 C950.239,838.2650000000001 950.263,838.524 950.287,838.7890000000001 C950.299,838.9250000000001 950.312,839.072 950.3240000000001,839.2120000000001 C950.352,839.797 950.4060000000001,840.375 950.473,840.9490000000001 C952.825,869.2360000000001 955.916,957.0300000000001 955.916,957.0300000000001z" style="fill: rgb(84, 110, 122); fill-opacity: 1;"></path></g><g transform="matrix(0.8095323726869708,0.027519766928583936,-0.027519766928583936,0.8095323726869708,-208.7356559410533,-34.04177715556355)" style="-webkit-user-select: none;"><path d=" M1004.749,1000.228 C1004.561,986.3499999999999 1002.716,966.0229999999999 1002.716,966.0229999999999 C986.9929999999999,966.2389999999999 967.663,965.708 967.663,965.708 C967.663,965.708 961.213,972.757 955.737,976.083 C949.425,979.9169999999999 938.06,982.631 924.885,984.9409999999999 C914.286,986.8019999999999 913.5699999999999,1000.303 913.5699999999999,1000.303 C956.607,1000.303 960.874,1001.1899999999999 982.172,996.0809999999999 C982.172,996.0809999999999 983.154,1000.3539999999999 983.154,1000.3539999999999 C983.154,1000.3539999999999 1004.749,1000.228 1004.749,1000.228z" style="fill: rgb(0, 0, 0); fill-opacity: 1;"></path></g><g transform="matrix(0.8069410716571875,-0.07032856370458432,0.07032856370458432,0.8069410716571875,-290.21504045387405,61.19655631974315)" style="-webkit-user-select: none;"><path d=" M1017.083,725.2249999999999 C1017.083,692.333 1017.482,676.1429999999999 1017.482,629.935 C1017.482,611.579 1020.41,589.559 1000.634,585.183 C988.734,582.548 973.447,584.674 965.124,605.842 C955.091,631.361 936.812,685.0889999999999 936.812,725.2249999999999 C936.812,725.2249999999999 1017.083,725.2249999999999 1017.083,725.2249999999999z" style="fill: rgb(234, 67, 53); fill-opacity: 1;"></path><path d=" M976.947,685.089 C954.781,685.089 936.812,703.0590000000001 936.812,725.225 C936.812,725.225 1017.082,725.225 1017.082,725.225 C1017.082,703.0590000000001 999.113,685.089 976.947,685.089z" style="fill: rgb(234, 67, 53); fill-opacity: 1;"></path></g><g transform="matrix(0.7999611000146185,0.1271307927427561,-0.1271307927427561,0.7999611000146185,-169.54643533790664,-130.70192413967777)" style="-webkit-user-select: none;"><path d=" M0,0 C0,0 1920,0 1920,0 C1920,0 1920,1080 1920,1080 C1920,1080 0,1080 0,1080 C0,1080 0,0 0,0z M0,1080 C0,1080 1920,1080 1920,1080 C1920,1080 1920,0 1920,0 C1920,0 0,0 0,0 C0,0 0,1080 0,1080z M994.968,602.3249999999999 C994.968,603.107 979.947,593.6229999999999 979.947,593.6229999999999 C979.947,593.6229999999999 979.947,555.637 979.947,555.637 C979.947,547.3449999999999 986.669,540.626 994.968,540.626 C1003.254,540.626 1009.9789999999999,547.3449999999999 1009.9789999999999,555.637 C1009.9789999999999,555.637 1009.9789999999999,593.6229999999999 1009.9789999999999,593.6229999999999 C1009.9789999999999,593.6229999999999 995.351,602.7139999999999 994.968,602.3249999999999z" style="fill: rgb(237, 161, 41); fill-opacity: 1;"></path></g><g transform="matrix(0.7748832542667136,0.23591511663525916,-0.23591511663525916,0.7748832542667136,-78.91128457236275,-222.49452069263782)" style="-webkit-user-select: none;"><path d=" M1045.817,494.491 C1045.817,511.429 1013.395,525.159 973.4029999999999,525.159 C933.41,525.159 900.9949999999999,511.429 900.9949999999999,494.491 C900.9949999999999,477.553 933.41,463.823 973.4029999999999,463.823 C1013.395,463.823 1045.817,477.553 1045.817,494.491z" style="fill: rgb(84, 110, 122); fill-opacity: 1;"></path><path d=" M1021.278,534.277 C1021.1179999999999,550.929 1012.699,565.564 999.954,574.329 C991.904,579.853 982.151,583.048 971.6419999999999,582.948 C944.4979999999999,582.682 922.708,560.459 922.971,533.312 C922.971,533.312 922.977,507.596 922.977,507.596 C923.25,480.455 945.463,458.665 972.607,458.931 C999.771,459.197 1021.554,481.42 1021.278,508.567 C1021.278,508.567 1021.278,534.277 1021.278,534.277z" style="fill: rgb(241, 177, 59); fill-opacity: 1;"></path><path d=" M925.697,481.729 C933.281,445.76 935.813,432.872 976.528,432.872 C1018.766,432.872 1013.488,444.456 1020.942,481.729 C1020.942,481.729 925.414,483.08 925.697,481.729z" style="fill: rgb(7, 9, 9); fill-opacity: 1;"></path><path d=" M1001.545,480.881 C1001.545,480.881 1001.545,530.2909999999999 1001.545,530.2909999999999 C1001.545,530.2909999999999 1021.423,530.7139999999999 1021.423,530.7139999999999 C1021.423,530.7139999999999 1021.423,479.59999999999997 1021.423,479.59999999999997 C1021.423,479.59999999999997 1001.545,480.881 1001.545,480.881z" style="fill: rgb(183, 28, 28); fill-opacity: 1;"></path><path d=" M940.076,470.76399999999995 C940.076,470.76399999999995 934.326,494.26099999999997 950.299,511.36899999999997 C959.004,520.6959999999999 949.241,530.766 943.973,536.573 C940.888,539.9799999999999 941.88,543.481 946.286,544.1329999999999 C952.745,545.092 957.889,545.944 957.889,545.944 C952.727,552.2099999999999 946.207,565.467 949.56,577.2149999999999 C949.893,578.381 948.125,576.9799999999999 948.125,576.9799999999999 C948.125,576.9799999999999 922.593,563.9509999999999 922.593,534.704 C922.593,501.19399999999996 916.499,477.0129999999999 940.076,470.76399999999995z" style="fill: rgb(237, 161, 41); fill-opacity: 1;"></path><path d=" M921.441,512.95 C921.441,512.95 922.572,500.172 922.572,500.172 C922.572,500.172 935.6370000000001,485.403 975.676,485.403 C1015.715,485.403 1022.244,501.023 1022.244,501.023 C1022.244,501.023 1022.8130000000001,512.95 1022.8130000000001,512.95 C1022.8130000000001,512.95 1043.258,513.249 1043.258,491.084 C1043.258,476.319 1000.664,465.244 974.258,464.675 C949.493,464.14300000000003 901.844,474.898 902.6990000000001,492.78700000000003 C903.548,510.677 921.441,512.95 921.441,512.95z" style="fill: rgb(84, 110, 122); fill-opacity: 1;"></path><path d=" M1033.631,529.279 C1033.561,536.094 1027.97,541.572 1021.155,541.505 C1014.33,541.439 1008.856,535.8480000000001 1008.926,529.033 C1008.996,522.211 1014.58,516.734 1021.395,516.8000000000001 C1028.21,516.8670000000001 1033.701,522.451 1033.631,529.279z" style="fill: rgb(241, 177, 59); fill-opacity: 1;"></path></g><g transform="matrix(0.7748832542667136,0.23591511663525916,-0.23591511663525916,0.7748832542667136,-89.9969247923494,-225.60201139167634)" style="-webkit-user-select: none;"><path d=" M971.568,558.376 C966.54,558.376 961.864,556.313 958.41,552.559 C957.9309999999999,552.0400000000001 957.9639999999999,551.235 958.483,550.756 C959.0029999999999,550.2760000000001 959.814,550.306 960.2869999999999,550.8290000000001 C963.255,554.047 967.262,555.82 971.568,555.82 C975.89,555.82 979.904,554.0500000000001 982.865,550.8290000000001 C983.345,550.3100000000001 984.153,550.2760000000001 984.672,550.756 C985.191,551.231 985.225,552.0400000000001 984.749,552.559 C981.295,556.3100000000001 976.6129999999999,558.376 971.568,558.376z" style="fill: rgb(240, 91, 91); fill-opacity: 1;"></path></g><g transform="matrix(0.7748832542667136,0.23591511663525916,-0.23591511663525916,0.7748832542667136,-89.9969247923494,-225.60201139167634)" style="-webkit-user-select: none;"><path d=" M960.204,523.975 C959.665,523.975 959.165,523.632 958.9889999999999,523.09 C958.2099999999999,520.701 956.011,519.083 953.512,519.0600000000001 C950.9559999999999,519.15 948.79,520.614 947.9549999999999,522.99 C947.722,523.655 947.0029999999999,524.008 946.327,523.775 C945.6619999999999,523.539 945.308,522.8100000000001 945.544,522.145 C946.7389999999999,518.73 949.9549999999999,516.434 953.535,516.504 C957.132,516.534 960.3,518.864 961.418,522.305 C961.6379999999999,522.973 961.269,523.696 960.5999999999999,523.912 C960.467,523.955 960.334,523.975 960.204,523.975z" style="fill: rgb(68, 69, 69); fill-opacity: 1;"></path></g><g transform="matrix(0.7748832542667136,0.23591511663525916,-0.23591511663525916,0.7748832542667136,-89.9969247923494,-225.60201139167634)" style="-webkit-user-select: none;"><path d=" M995.7710000000001,524.327 C995.2320000000001,524.327 994.729,523.984 994.557,523.442 C993.7810000000001,521.0590000000001 991.578,519.4350000000001 989.0790000000001,519.408 C989.0790000000001,519.408 989.0160000000001,519.408 989.0160000000001,519.408 C986.547,519.408 984.347,520.979 983.525,523.335 C983.292,524.004 982.557,524.354 981.898,524.121 C981.229,523.888 980.88,523.162 981.109,522.4970000000001 C982.301,519.082 985.6610000000001,516.816 989.105,516.8530000000001 C992.706,516.893 995.871,519.222 996.985,522.657 C997.205,523.325 996.836,524.048 996.167,524.264 C996.034,524.307 995.9010000000001,524.327 995.7710000000001,524.327z" style="fill: rgb(68, 69, 69); fill-opacity: 1;"></path></g><g transform="matrix(0.7748832542667136,0.23591511663525916,-0.23591511663525916,0.7748832542667136,557.1284292017676,427.0246493092543)" style="-webkit-user-select: none;"><path d=" M-15.942,-35.952 C-15.942,-35.952 -3.385,-36.08 -1.506,-26.674" style="fill: rgb(68, 69, 69); fill-opacity: 1;"></path><g style="stroke-linecap: round; stroke-linejoin: miter; fill-opacity: 0; stroke-miterlimit: 4; stroke: rgb(182, 27, 27); stroke-opacity: 1; stroke-width: 5;"><path d=" M-15.942,-35.952 C-15.942,-35.952 -3.385,-36.08 -1.506,-26.674"></path></g></g><g transform="matrix(0.7506476504800599,-0.30434865668960326,0.30434865668960326,0.7506476504800599,544.2786953213293,413.7028041009785)" style="-webkit-user-select: none;"><path d=" M-16.509,-33.019 C-6.562000000000001,-38.286 1.111,-30.747 1.111,-30.747" style="fill: rgb(68, 69, 69); fill-opacity: 1;"></path><g style="stroke-linecap: round; stroke-linejoin: miter; fill-opacity: 0; stroke-miterlimit: 4; stroke: rgb(182, 27, 27); stroke-opacity: 1; stroke-width: 5;"><path d=" M-16.509,-33.019 C-6.562000000000001,-38.286 1.111,-30.747 1.111,-30.747"></path></g></g><g transform="matrix(0.8091738394330567,0.03657454821547482,-0.03657454821547482,0.8091738394330567,-227.43790891206478,-48.34788042202082)" style="-webkit-user-select: none;"><path d=" M1090.713,678.1239999999999 C1090.713,678.1239999999999 1053.237,674.716 1019.1610000000001,674.716 C983.3810000000001,674.716 944.187,678.1239999999999 944.187,678.1239999999999 C944.187,678.1239999999999 944.187,646.322 944.187,646.322 C944.187,646.322 985.085,649.7289999999999 1018.0360000000001,649.7289999999999 C1054.368,649.7289999999999 1090.713,646.322 1090.713,646.322 C1090.713,646.322 1090.713,678.1239999999999 1090.713,678.1239999999999z" style="fill: rgb(207, 216, 220); fill-opacity: 1;"></path><path d=" M948.0210000000001,662.22 C948.0210000000001,671.038 946.21,678.193 943.9730000000001,678.193 C941.7370000000001,678.193 939.927,671.038 939.927,662.22 C939.927,653.4019999999999 941.7370000000001,646.251 943.9730000000001,646.251 C946.21,646.251 948.0210000000001,653.4019999999999 948.0210000000001,662.22z" style="fill: rgb(176, 190, 197); fill-opacity: 1;"></path><path d=" M1094.547,662.22 C1094.547,671.038 1092.736,678.193 1090.499,678.193 C1088.263,678.193 1086.453,671.038 1086.453,662.22 C1086.453,653.4019999999999 1088.263,646.251 1090.499,646.251 C1092.736,646.251 1094.547,653.4019999999999 1094.547,662.22z" style="fill: rgb(207, 216, 220); fill-opacity: 1;"></path></g><g transform="matrix(0.7508493370455586,-0.303850741414671,0.303850741414671,0.7508493370455586,-336.4750943649106,315.84557065313777)" style="-webkit-user-select: none;"><g style="stroke-linecap: round; stroke-linejoin: round; fill-opacity: 0; stroke: rgb(182, 32, 37); stroke-opacity: 1; stroke-width: 33;"><path d=" M960,609.167 C960,609.167 960,683.194 960,683.194"></path></g></g><g transform="matrix(0.6150925522872888,0.5270305039755376,-0.5270305039755376,0.6150925522872888,361.3433096045411,-389.0785409315641)" style="-webkit-user-select: none;"><g style="stroke-linecap: butt; stroke-linejoin: miter; fill-opacity: 0; stroke-miterlimit: 10; stroke: rgb(182, 32, 37); stroke-opacity: 1; stroke-width: 33;"><path d=" M960,683.194 C960,683.194 960,768.221 960,768.221"></path></g></g><g transform="matrix(1.5390000000000001,0,0,1.5390000000000001,257.52433199999996,619.3668009999999)" style="-webkit-user-select: none;"><path d=" M105.594,14.563999999999993 C105.594,14.563999999999993 106.174,8.272999999999996 106.174,8.272999999999996 C106.174,8.272999999999996 9.086000000000006,8.272999999999996 9.086000000000006,8.272999999999996 C9.086000000000006,8.272999999999996 15.653000000000006,136.939 15.653000000000006,136.939 C15.653000000000006,136.939 100.201,136.73 100.201,136.73 C100.201,136.73 105.594,14.563999999999993 105.594,14.563999999999993z" style="fill: rgb(238, 238, 238); fill-opacity: 1;"></path><g style="stroke-linecap: round; stroke-linejoin: miter; fill-opacity: 0; stroke-miterlimit: 10; stroke: rgb(238, 238, 238); stroke-opacity: 1; stroke-width: 3.309;"><path d=" M10.203000000000001,14.564999999999998 C10.203000000000001,14.564999999999998 15.717,134.499 15.717,134.499"></path></g><g style="stroke-linecap: round; stroke-linejoin: miter; fill-opacity: 0; stroke-miterlimit: 10; stroke: rgb(238, 238, 238); stroke-opacity: 1; stroke-width: 3.309;"><path d=" M10.203000000000003,8.271999999999998 C10.203000000000003,8.271999999999998 107.291,8.271999999999998 107.291,8.271999999999998 C107.291,8.271999999999998 101.196,134.5 101.196,134.5 C101.196,134.5 106.711,14.564999999999998 106.711,14.564999999999998"></path></g><g style="stroke-linecap: round; stroke-linejoin: miter; fill-opacity: 0; stroke-miterlimit: 10; stroke: rgb(255, 255, 255); stroke-opacity: 1; stroke-width: 3.309;"><path d=" M32.262,14.564999999999998 C32.262,14.564999999999998 34.998000000000005,134.499 34.998000000000005,134.499"></path></g><g style="stroke-linecap: round; stroke-linejoin: miter; fill-opacity: 0; stroke-miterlimit: 10; stroke: rgb(255, 255, 255); stroke-opacity: 1; stroke-width: 3.309;"><path d=" M82.976,14.564999999999998 C82.976,14.564999999999998 80.24000000000001,134.499 80.24000000000001,134.499"></path></g><g style="stroke-linecap: round; stroke-linejoin: miter; fill-opacity: 0; stroke-miterlimit: 10; stroke: rgb(255, 255, 255); stroke-opacity: 1; stroke-width: 3.309;"><path d=" M57.63,14.565 C57.63,14.565 57.63,136.129 57.63,136.129"></path></g><path d=" M7.275000000000006,15.997 C4.017000000000003,15.997 1.3670000000000044,13.347000000000001 1.3670000000000044,10.089 C1.3670000000000044,6.831 4.017000000000003,4.181 7.275000000000006,4.181 C7.275000000000006,4.181 107.985,4.181 107.985,4.181 C111.243,4.181 113.893,6.831 113.893,10.089 C113.893,13.347000000000001 111.243,15.997 107.985,15.997 C107.985,15.997 7.275000000000006,15.997 7.275000000000006,15.997z" style="fill: rgb(238, 238, 238); fill-opacity: 1;"></path><path d=" M107.985,5.297000000000001 C110.62100000000001,5.297000000000001 112.777,7.453 112.777,10.089 C112.777,12.725000000000001 110.62100000000001,14.881 107.985,14.881 C107.985,14.881 7.274000000000001,14.881 7.274000000000001,14.881 C4.639000000000003,14.881 2.4809999999999945,12.725000000000001 2.4809999999999945,10.089 C2.4809999999999945,7.453 4.639000000000003,5.297000000000001 7.274000000000001,5.297000000000001 C7.274000000000001,5.297000000000001 107.985,5.297000000000001 107.985,5.297000000000001z M107.985,3.0650000000000004 C107.985,3.0650000000000004 7.274000000000001,3.0650000000000004 7.274000000000001,3.0650000000000004 C3.4010000000000034,3.0650000000000004 0.24899999999999523,6.216 0.24899999999999523,10.089 C0.24899999999999523,13.962 3.4010000000000034,17.113 7.274000000000001,17.113 C7.274000000000001,17.113 107.985,17.113 107.985,17.113 C111.858,17.113 115.009,13.962 115.009,10.089 C115.009,6.216 111.858,3.0650000000000004 107.985,3.0650000000000004z" style="fill: rgb(255, 255, 255); fill-opacity: 1;"></path><path d=" M13.487000000000002,140.529 C11.061,140.529 9.087000000000003,138.55499999999998 9.087000000000003,136.13 C9.087000000000003,133.70399999999998 11.061,131.72899999999998 13.487000000000002,131.72899999999998 C13.487000000000002,131.72899999999998 104.00800000000001,131.72899999999998 104.00800000000001,131.72899999999998 C106.434,131.72899999999998 108.407,133.70399999999998 108.407,136.13 C108.407,138.55499999999998 106.434,140.529 104.00800000000001,140.529 C104.00800000000001,140.529 13.487000000000002,140.529 13.487000000000002,140.529z" style="fill: rgb(238, 238, 238); fill-opacity: 1;"></path><path d=" M104.007,132.846 C105.81299999999999,132.846 107.291,134.32299999999998 107.291,136.13 C107.291,137.93599999999998 105.81299999999999,139.414 104.007,139.414 C104.007,139.414 13.487000000000002,139.414 13.487000000000002,139.414 C11.681000000000004,139.414 10.203000000000003,137.93599999999998 10.203000000000003,136.13 C10.203000000000003,134.32299999999998 11.681000000000004,132.846 13.487000000000002,132.846 C13.487000000000002,132.846 104.007,132.846 104.007,132.846z M104.007,130.613 C104.007,130.613 13.487000000000002,130.613 13.487000000000002,130.613 C10.445,130.613 7.9709999999999965,133.088 7.9709999999999965,136.13 C7.9709999999999965,139.171 10.445,141.64499999999998 13.487000000000002,141.64499999999998 C13.487000000000002,141.64499999999998 104.007,141.64499999999998 104.007,141.64499999999998 C107.048,141.64499999999998 109.523,139.171 109.523,136.13 C109.523,133.088 107.048,130.613 104.007,130.613z" style="fill: rgb(255, 255, 255); fill-opacity: 1;"></path></g></g></g></svg>