<?xml version="1.0" encoding="UTF-8" standalone="no"?>
<svg
   xmlns:dc="http://purl.org/dc/elements/1.1/"
   xmlns:cc="http://creativecommons.org/ns#"
   xmlns:rdf="http://www.w3.org/1999/02/22-rdf-syntax-ns#"
   xmlns:svg="http://www.w3.org/2000/svg"
   xmlns="http://www.w3.org/2000/svg"
   version="1.1"
   id="svg5144"
   viewBox="0 0 5000.0001 4450.0001"
   height="4450"
   width="5000">
  <title
     id="title8979">ISS Expedition 46 Patch</title>
  <defs
     id="defs5146">
    <clipPath
       clipPathUnits="userSpaceOnUse"
       id="clipPath766">
      <path
         d="M 0,0 612,0 612,792 0,792 0,0 Z"
         id="path768" />
    </clipPath>
    <clipPath
       clipPathUnits="userSpaceOnUse"
       id="clipPath554">
      <path
         d="M 0,0 612,0 612,792 0,792 0,0 Z"
         id="path556" />
    </clipPath>
    <clipPath
       clipPathUnits="userSpaceOnUse"
       id="clipPath518">
      <path
         d="M 0,0 612,0 612,792 0,792 0,0 Z"
         id="path520" />
    </clipPath>
    <clipPath
       clipPathUnits="userSpaceOnUse"
       id="clipPath474">
      <path
         d="M 0,0 612,0 612,792 0,792 0,0 Z"
         id="path476" />
    </clipPath>
    <clipPath
       clipPathUnits="userSpaceOnUse"
       id="clipPath454">
      <path
         d="M 0,0 612,0 612,792 0,792 0,0 Z"
         id="path456" />
    </clipPath>
    <clipPath
       clipPathUnits="userSpaceOnUse"
       id="clipPath434">
      <path
         d="M 0,0 612,0 612,792 0,792 0,0 Z"
         id="path436" />
    </clipPath>
    <clipPath
       clipPathUnits="userSpaceOnUse"
       id="clipPath402">
      <path
         d="M 0,0 612,0 612,792 0,792 0,0 Z"
         id="path404" />
    </clipPath>
    <clipPath
       clipPathUnits="userSpaceOnUse"
       id="clipPath358">
      <path
         d="M 0,0 612,0 612,792 0,792 0,0 Z"
         id="path360" />
    </clipPath>
  </defs>
  <metadata
     id="metadata5149">
    <rdf:RDF>
      <cc:Work
         rdf:about="">
        <dc:format>image/svg+xml</dc:format>
        <dc:type
           rdf:resource="http://purl.org/dc/dcmitype/StillImage" />
        <dc:title>ISS Expedition 46 Patch</dc:title>
      </cc:Work>
    </rdf:RDF>
  </metadata>
  <g
     id="layer1"
     transform="translate(0,3397.6378)">
    <g
       transform="matrix(1.0011594,0,0,1.0011594,-2.8984819,6.3653407)"
       id="g8559">
      <g
         transform="matrix(25.362748,0,0,-25.362748,2866.6377,-2193.6869)"
         id="g350">
        <path
           id="path352"
           style="fill:#ffc700;fill-opacity:1;fill-rule:nonzero;stroke:none"
           d="m 0,0 12.03,-20.518 -15.688,19.647 14.155,-35.49 -17.64,35.142 11.635,-45.619 -15.294,45.27 4.985,-63.587 -8.295,62.89 -14.459,-48.779 8.884,48.605 -12.368,-38.849 9.929,39.546 -13.936,-32.23 10.453,32.578 -19.729,-33.562 17.29,33.562 -20.627,-19.987 17.665,20.51 -22.292,-11.969 18.982,13.014 -24.32,-4.125 19.442,4.822 9.233,-1.045 8.188,-0.871 6.272,0.174 7.317,0.174 6.446,0.871 L 1.916,0.697 9.059,1.742 24.39,-2.613 5.771,0.523 25.997,-12.84 0,0 Z" />
      </g>
      <g
         id="g354"
         transform="matrix(25.362748,0,0,-25.362748,-8731.7465,3845.4367)">
        <g
           clip-path="url(#clipPath358)"
           id="g356">
          <g
             transform="translate(347.8846,259.7238)"
             id="g362">
            <path
               id="path364"
               style="fill:#0082ca;fill-opacity:1;fill-rule:nonzero;stroke:none"
               d="m 0,0 c 0,-0.001 80.711,-139.801 80.711,-139.801 2.929,-5.073 8.388,-8.224 14.248,-8.224 5.856,0 11.315,3.15 14.246,8.219 l 80.713,139.805 c 2.93,5.074 2.93,11.378 -0.001,16.451 -2.926,5.073 -8.384,8.226 -14.245,8.226 l -161.425,0 c -5.86,0 -11.319,-3.153 -14.248,-8.23 C -2.928,11.376 -2.928,5.073 0,0" />
          </g>
          <g
             transform="translate(454.0029,121.3473)"
             id="g366">
            <path
               id="path368"
               style="fill:#ffffff;fill-opacity:1;fill-rule:nonzero;stroke:none"
               d="m 0,0 c 0.001,0.002 80.712,139.802 80.712,139.802 2.295,3.975 2.295,8.912 0,12.885 -2.292,3.974 -6.569,6.444 -11.158,6.444 l -161.425,0 c -4.59,0 -8.866,-2.47 -11.16,-6.446 -2.292,-3.971 -2.293,-8.908 0.001,-12.882 L -22.319,0.002 c 2.294,-3.973 6.57,-6.441 11.159,-6.441 4.588,0 8.863,2.467 11.16,6.439" />
          </g>
          <g
             transform="translate(354.0366,262.9594)"
             id="g370">
            <path
               id="path372"
               style="fill:#000000;fill-opacity:1;fill-rule:nonzero;stroke:none"
               d="m 0,0 80.711,-139.8 c 1.664,-2.883 4.743,-4.658 8.071,-4.658 3.33,0 6.407,1.775 8.072,4.658 L 177.566,0 c 1.665,2.883 1.665,6.436 0,9.318 -1.664,2.885 -4.739,4.662 -8.07,4.662 L 8.07,13.98 C 4.743,13.98 1.664,12.203 0,9.318 -1.664,6.436 -1.664,2.883 0,0" />
          </g>
        </g>
      </g>
      <g
         transform="matrix(25.362748,0,0,-25.362748,960.96211,-1760.5075)"
         id="g382">
        <path
           id="path384"
           style="fill:#ffffff;fill-opacity:1;fill-rule:nonzero;stroke:none"
           d="M 0,0 -0.954,1.655 -2.379,1.14 -3.236,2.629 5.61,5.367 6.526,3.777 -0.275,-2.507 -1.156,-0.981 0,0 Z M 1.517,1.278 4.03,3.42 0.92,2.314 1.517,1.278 Z" />
      </g>
      <g
         id="g8535">
        <g
           id="g374"
           transform="matrix(25.362748,0,0,-25.362748,944.93064,-2171.1879)">
          <path
             d="m 0,0 1.397,-2.423 c 0.304,-0.528 0.324,-1.043 0.059,-1.546 -0.264,-0.503 -0.781,-0.976 -1.549,-1.419 -0.79,-0.455 -1.49,-0.668 -2.1,-0.638 -0.61,0.03 -1.084,0.339 -1.423,0.927 l -0.46,0.798 -2.903,-1.674 -0.845,1.464 L 0,0 Z m -2.491,-3.387 0.206,-0.358 c 0.162,-0.281 0.356,-0.431 0.584,-0.452 0.227,-0.02 0.467,0.043 0.72,0.188 0.246,0.142 0.425,0.311 0.539,0.508 0.114,0.198 0.092,0.432 -0.065,0.705 l -0.239,0.415 -1.745,-1.006 z"
             style="fill:#ffffff;fill-opacity:1;fill-rule:nonzero;stroke:none"
             id="path376" />
        </g>
        <g
           id="g378"
           transform="matrix(25.362748,0,0,-25.362748,1014.5739,-2050.3955)">
          <path
             d="M 0,0 2.253,-3.906 0.582,-4.87 -0.828,-2.424 -2.072,-3.141 -0.763,-5.41 -2.359,-6.33 -3.667,-4.061 -5.21,-4.95 -3.759,-7.467 -5.53,-8.488 -7.824,-4.511 0,0 Z"
             style="fill:#ffffff;fill-opacity:1;fill-rule:nonzero;stroke:none"
             id="path380" />
        </g>
        <g
           id="g386"
           transform="matrix(25.362748,0,0,-25.362748,1159.2886,-1799.4157)">
          <path
             d="m 0,0 0.841,-1.458 -2.957,-1.705 3.837,0.178 1.118,-1.939 -3.946,0.019 -3.834,-4.607 -1.035,1.795 2.644,2.85 -1.742,-0.001 -1.909,-1.101 -0.841,1.458 L 0,0 Z"
             style="fill:#ffffff;fill-opacity:1;fill-rule:nonzero;stroke:none"
             id="path388" />
        </g>
        <g
           id="g390"
           transform="matrix(25.362748,0,0,-25.362748,1239.4272,-1660.4179)">
          <path
             d="M 0,0 2.252,-3.907 0.582,-4.87 -0.828,-2.424 -2.072,-3.141 -0.763,-5.41 -2.359,-6.33 -3.668,-4.061 -5.21,-4.95 -3.759,-7.467 -5.531,-8.488 -7.824,-4.511 0,0 Z"
             style="fill:#ffffff;fill-opacity:1;fill-rule:nonzero;stroke:none"
             id="path392" />
        </g>
      </g>
      <g
         transform="matrix(25.362748,0,0,-25.362748,1887.699,-536.03852)"
         id="g394" />
      <g
         id="g8513">
        <path
           d="m 0,0 0.84,-1.458 -2.956,-1.705 3.837,0.178 1.118,-1.938 -3.946,0.018 -3.834,-4.607 -1.035,1.795 2.644,2.851 -1.742,-0.002 -1.91,-1.101 -0.84,1.458 L 0,0 Z"
           style="fill:#ffffff;fill-opacity:1;fill-rule:nonzero;stroke:none"
           id="path396"
           transform="matrix(25.362748,0,0,-25.362748,1887.699,-536.0385)" />
        <g
           clip-path="url(#clipPath402)"
           id="g400"
           transform="matrix(25.362748,0,0,-25.362748,-8731.7465,3845.4367)">
          <g
             transform="translate(417.711,165.4193)"
             id="g406">
            <path
               id="path408"
               style="fill:#ffffff;fill-opacity:1;fill-rule:nonzero;stroke:none"
               d="M 0,0 C 1.277,0.736 2.395,1.095 3.355,1.076 4.314,1.057 5.014,0.666 5.456,-0.1 5.908,-0.886 5.907,-1.692 5.453,-2.52 4.999,-3.348 4.142,-4.125 2.883,-4.851 1.968,-5.379 1.165,-5.718 0.473,-5.87 c -0.693,-0.151 -1.302,-0.146 -1.83,0.017 -0.528,0.163 -0.943,0.506 -1.245,1.03 -0.307,0.532 -0.42,1.053 -0.34,1.564 0.08,0.511 0.362,1.05 0.846,1.617 C -1.613,-1.075 -0.914,-0.527 0,0 m 0.83,-1.464 c -0.79,-0.455 -1.306,-0.871 -1.549,-1.247 -0.243,-0.376 -0.277,-0.716 -0.102,-1.021 0.181,-0.313 0.49,-0.458 0.927,-0.435 0.437,0.023 1.093,0.287 1.968,0.792 0.737,0.424 1.223,0.824 1.46,1.199 0.236,0.375 0.266,0.717 0.089,1.023 -0.169,0.294 -0.478,0.431 -0.926,0.41 C 2.249,-0.764 1.627,-1.004 0.83,-1.464" />
          </g>
          <g
             transform="translate(424.8959,162.0106)"
             id="g410">
            <path
               id="path412"
               style="fill:#ffffff;fill-opacity:1;fill-rule:nonzero;stroke:none"
               d="m 0,0 1.397,-2.423 c 0.304,-0.528 0.324,-1.043 0.059,-1.546 -0.264,-0.503 -0.781,-0.975 -1.549,-1.419 -0.79,-0.455 -1.49,-0.668 -2.1,-0.638 -0.61,0.03 -1.084,0.339 -1.423,0.927 L -4.076,-4.301 -6.98,-5.975 -7.824,-4.511 0,0 Z m -2.491,-3.387 0.206,-0.357 c 0.161,-0.281 0.356,-0.432 0.584,-0.452 0.227,-0.021 0.467,0.042 0.72,0.187 0.246,0.142 0.425,0.312 0.539,0.508 0.114,0.198 0.092,0.433 -0.065,0.705 l -0.239,0.415 -1.745,-1.006 z" />
          </g>
          <g
             transform="translate(419.8307,152.7148)"
             id="g414">
            <path
               id="path416"
               style="fill:#ffffff;fill-opacity:1;fill-rule:nonzero;stroke:none"
               d="M 0,0 7.824,4.511 9.225,2.082 C 9.485,1.63 9.619,1.249 9.628,0.937 9.638,0.625 9.511,0.297 9.248,-0.049 8.985,-0.395 8.605,-0.712 8.107,-0.999 7.673,-1.249 7.266,-1.409 6.887,-1.479 6.508,-1.549 6.164,-1.543 5.855,-1.461 5.659,-1.408 5.458,-1.297 5.251,-1.127 5.255,-1.356 5.231,-1.538 5.181,-1.673 5.148,-1.764 5.056,-1.92 4.904,-2.143 4.753,-2.366 4.63,-2.527 4.536,-2.627 l -1.86,-2.014 -0.95,1.648 1.942,2.157 c 0.252,0.278 0.402,0.481 0.451,0.612 0.06,0.175 0.052,0.329 -0.025,0.462 L 4.02,0.366 0.845,-1.464 0,0 Z M 5.498,1.219 5.852,0.604 C 5.891,0.538 6.001,0.43 6.182,0.279 6.27,0.202 6.397,0.17 6.564,0.185 6.731,0.2 6.9,0.256 7.07,0.354 7.323,0.5 7.489,0.66 7.568,0.834 7.648,1.009 7.611,1.229 7.458,1.495 L 7.089,2.136 5.498,1.219 Z" />
          </g>
        </g>
        <g
           id="g418"
           transform="matrix(25.362748,0,0,-25.362748,2066.1742,156.38698)">
          <path
             d="M 0,0 -0.954,1.655 -2.378,1.14 -3.236,2.629 5.609,5.367 6.526,3.776 -0.275,-2.507 -1.156,-0.98 0,0 Z M 1.517,1.278 4.03,3.42 0.92,2.314 1.517,1.278 Z"
             style="fill:#ffffff;fill-opacity:1;fill-rule:nonzero;stroke:none"
             id="path420" />
        </g>
      </g>
      <g
         id="g470"
         transform="matrix(25.362748,0,0,-25.362748,-8731.7465,3845.4367)">
        <g
           id="g478"
           transform="translate(477.3411,173.2276)" />
        <g
           id="g8487">
          <g
             id="g422"
             transform="translate(442.58089,130.96982)">
            <path
               d="M 0,0 1.104,1.917 6.292,-0.085 1.953,3.391 3.057,5.308 10.883,0.801 10.195,-0.393 4.227,3.044 9.665,-1.314 9.043,-2.395 2.546,0.124 8.514,-3.313 7.826,-4.507 0,0 Z"
               style="fill:#ffffff;fill-opacity:1;fill-rule:nonzero;stroke:none"
               id="path424" />
          </g>
          <g
             id="g426"
             transform="translate(454.37887,136.34583)">
            <path
               d="M 0,0 -0.953,-1.655 0.206,-2.629 -0.652,-4.118 -7.456,2.163 -6.54,3.753 2.307,1.019 1.428,-0.508 0,0 Z m -1.866,0.672 -3.114,1.1 2.517,-2.136 0.597,1.036 z"
               style="fill:#ffffff;fill-opacity:1;fill-rule:nonzero;stroke:none"
               id="path428" />
          </g>
          <g
             id="g430">
            <g
               id="g432"
               clip-path="url(#clipPath434)">
              <g
                 id="g438"
                 transform="translate(459.4507,142.1648)">
                <path
                   d="m 0,0 -0.84,-1.458 -5.904,3.4 -0.656,-1.14 2.407,-1.386 c 0.99,-0.57 1.698,-1.02 2.126,-1.351 0.428,-0.331 0.684,-0.675 0.767,-1.033 0.082,-0.358 -0.025,-0.796 -0.325,-1.316 -0.091,-0.158 -0.225,-0.325 -0.4,-0.498 l -1.586,0.913 0.127,0.219 c 0.113,0.198 0.121,0.379 0.024,0.543 -0.097,0.165 -0.338,0.358 -0.722,0.579 L -10.16,0.455 -7.826,4.507 0,0 Z"
                   style="fill:#ffffff;fill-opacity:1;fill-rule:nonzero;stroke:none"
                   id="path440" />
              </g>
            </g>
          </g>
          <g
             id="g442"
             transform="translate(452.17909,147.63471)">
            <path
               d="M 0,0 2.251,3.908 3.922,2.945 2.513,0.499 3.756,-0.218 5.063,2.052 6.66,1.132 5.353,-1.137 6.895,-2.025 8.345,0.492 10.117,-0.529 7.826,-4.507 0,0 Z"
               style="fill:#ffffff;fill-opacity:1;fill-rule:nonzero;stroke:none"
               id="path444" />
          </g>
          <g
             id="g446"
             transform="translate(454.92658,152.40511)">
            <path
               d="M 0,0 0.84,1.458 3.578,-0.119 4.496,1.474 1.757,3.051 2.601,4.516 10.427,0.009 9.583,-1.456 6.418,0.367 5.5,-1.226 8.666,-3.049 7.826,-4.507 0,0 Z"
               style="fill:#ffffff;fill-opacity:1;fill-rule:nonzero;stroke:none"
               id="path448" />
          </g>
          <g
             id="g450">
            <g
               id="g452"
               clip-path="url(#clipPath454)">
              <g
                 id="g458"
                 transform="translate(468.4089,157.7188)">
                <path
                   d="m 0,0 -0.84,-1.458 -2.909,1.675 c 0.152,-0.682 0.112,-1.223 -0.119,-1.625 -0.276,-0.48 -0.74,-0.741 -1.391,-0.78 -0.651,-0.04 -1.387,0.177 -2.209,0.651 l -2.883,1.66 0.84,1.458 2.402,-1.383 c 0.381,-0.22 0.706,-0.334 0.975,-0.344 0.27,-0.009 0.464,0.089 0.583,0.295 0.219,0.382 0.191,0.767 -0.088,1.157 L -8.666,3.049 -7.826,4.507 0,0 Z"
                   style="fill:#ffffff;fill-opacity:1;fill-rule:nonzero;stroke:none"
                   id="path460" />
              </g>
            </g>
          </g>
          <g
             id="g462"
             transform="translate(461.13718,163.18854)">
            <path
               d="M 0,0 2.251,3.908 3.922,2.945 2.513,0.499 3.756,-0.217 5.063,2.051 6.66,1.132 5.353,-1.137 6.895,-2.025 8.345,0.492 10.117,-0.529 7.826,-4.507 0,0 Z"
               style="fill:#ffffff;fill-opacity:1;fill-rule:nonzero;stroke:none"
               id="path464" />
          </g>
          <g
             id="g466"
             transform="translate(463.88489,167.95911)">
            <path
               d="M 0,0 0.84,1.458 3.578,-0.119 4.496,1.474 1.757,3.051 2.601,4.516 10.427,0.009 9.583,-1.456 6.418,0.367 5.5,-1.226 8.666,-3.049 7.826,-4.507 0,0 Z"
               style="fill:#ffffff;fill-opacity:1;fill-rule:nonzero;stroke:none"
               id="path468" />
          </g>
          <path
             id="path480"
             style="fill:#ffffff;fill-opacity:1;fill-rule:nonzero;stroke:none"
             d="m 0,0 -0.946,-1.642 -2.348,0.595 c -0.556,0.14 -0.915,0.208 -1.077,0.202 -0.163,-0.006 -0.282,-0.075 -0.358,-0.208 l 3.096,-1.783 -0.838,-1.455 -7.826,4.507 0.838,1.455 3.005,-1.731 c 0.063,0.133 0.045,0.275 -0.053,0.426 -0.098,0.15 -0.433,0.49 -1.005,1.02 -0.425,0.39 -0.71,0.702 -0.858,0.936 -0.148,0.233 -0.196,0.502 -0.143,0.806 0.052,0.305 0.233,0.725 0.541,1.262 L -6.317,3.437 -6.359,3.363 c -0.144,-0.25 -0.172,-0.479 -0.084,-0.69 0.087,-0.21 0.284,-0.455 0.59,-0.734 0.306,-0.279 0.519,-0.513 0.641,-0.701 0.121,-0.189 0.189,-0.39 0.203,-0.604 0.235,0.145 0.537,0.215 0.907,0.211 0.37,-0.005 0.901,-0.089 1.592,-0.253 L 0,0 Z"
             transform="translate(477.3411,173.2276)" />
          <g
             transform="translate(473.6284,175.8157)"
             id="g482">
            <path
               id="path484"
               style="fill:#ffffff;fill-opacity:1;fill-rule:nonzero;stroke:none"
               d="M 0,0 C -1.278,0.736 -2.149,1.523 -2.613,2.363 -3.078,3.202 -3.09,4.004 -2.648,4.77 -2.196,5.556 -1.498,5.96 -0.554,5.982 0.39,6.004 1.492,5.652 2.752,4.927 3.667,4.4 4.363,3.875 4.842,3.352 5.32,2.83 5.621,2.299 5.745,1.76 5.868,1.222 5.779,0.691 5.477,0.167 5.171,-0.365 4.777,-0.724 4.295,-0.911 3.813,-1.098 3.205,-1.125 2.472,-0.99 1.738,-0.857 0.915,-0.527 0,0 M 0.85,1.452 C 1.64,0.997 2.259,0.759 2.706,0.737 3.154,0.715 3.465,0.856 3.64,1.161 3.821,1.475 3.791,1.815 3.552,2.181 3.313,2.548 2.756,2.983 1.88,3.487 1.143,3.911 0.554,4.132 0.11,4.148 -0.333,4.165 -0.643,4.02 -0.819,3.712 -0.988,3.418 -0.952,3.083 -0.709,2.707 -0.467,2.329 0.053,1.911 0.85,1.452" />
          </g>
        </g>
        <g
           id="g486"
           transform="translate(495.986,205.5996)" />
      </g>
      <g
         id="g8445">
        <path
           id="path488"
           style="fill:#ffffff;fill-opacity:1;fill-rule:nonzero;stroke:none"
           d="m 0,0 -0.962,-1.67 -2.354,0.585 c -0.557,0.138 -0.917,0.203 -1.08,0.196 -0.164,-0.007 -0.284,-0.078 -0.362,-0.213 l 3.096,-1.783 -0.852,-1.48 -7.826,4.507 0.853,1.48 3.005,-1.731 c 0.064,0.135 0.047,0.279 -0.051,0.431 -0.097,0.152 -0.431,0.493 -1.001,1.026 -0.424,0.392 -0.709,0.706 -0.855,0.941 -0.146,0.235 -0.192,0.508 -0.138,0.816 0.055,0.309 0.239,0.736 0.554,1.282 L -6.318,3.434 -6.362,3.359 C -6.508,3.105 -6.537,2.873 -6.451,2.66 c 0.086,-0.212 0.282,-0.459 0.587,-0.739 0.305,-0.28 0.518,-0.516 0.638,-0.706 0.121,-0.19 0.187,-0.393 0.2,-0.61 0.237,0.148 0.541,0.222 0.913,0.22 0.371,-0.001 0.903,-0.083 1.597,-0.244 L 0,0 Z"
           transform="matrix(25.362748,0,0,-25.362748,3847.8214,-1369.1341)" />
        <g
           transform="matrix(25.362748,0,0,-25.362748,3753.7358,-1434.9276)"
           id="g490">
          <path
             id="path492"
             style="fill:#ffffff;fill-opacity:1;fill-rule:nonzero;stroke:none"
             d="m 0,0 c -1.278,0.736 -2.146,1.527 -2.607,2.374 -0.46,0.846 -0.466,1.66 -0.017,2.439 0.46,0.799 1.164,1.213 2.113,1.242 C 0.437,6.085 1.541,5.737 2.801,5.011 3.716,4.485 4.411,3.958 4.888,3.432 5.365,2.907 5.663,2.371 5.783,1.826 5.903,1.282 5.81,0.743 5.503,0.21 5.191,-0.331 4.793,-0.698 4.307,-0.891 3.822,-1.084 3.211,-1.115 2.475,-0.985 1.74,-0.855 0.915,-0.526 0,0 M 0.865,1.478 C 1.655,1.023 2.275,0.786 2.723,0.767 3.172,0.748 3.486,0.894 3.665,1.204 3.848,1.523 3.822,1.867 3.584,2.236 3.347,2.606 2.79,3.043 1.915,3.547 1.178,3.971 0.587,4.189 0.142,4.203 -0.303,4.217 -0.615,4.067 -0.795,3.755 -0.967,3.456 -0.933,3.116 -0.692,2.736 -0.451,2.356 0.068,1.937 0.865,1.478" />
        </g>
        <g
           transform="matrix(25.362748,0,0,-25.362748,3738.5942,-1638.4333)"
           id="g494">
          <path
             id="path496"
             style="fill:#ffffff;fill-opacity:1;fill-rule:nonzero;stroke:none"
             d="M 0,0 1.42,2.466 C 1.73,3.003 2.169,3.285 2.74,3.313 3.31,3.341 3.98,3.133 4.748,2.69 5.538,2.235 6.072,1.734 6.349,1.186 6.626,0.638 6.593,0.065 6.248,-0.533 L 5.78,-1.345 8.684,-3.017 7.826,-4.507 0,0 Z m 4.195,-0.432 0.209,0.364 C 4.569,0.218 4.604,0.465 4.508,0.674 4.413,0.883 4.239,1.06 3.986,1.206 3.74,1.347 3.503,1.417 3.275,1.415 3.046,1.413 2.852,1.273 2.692,0.996 L 2.449,0.574 4.195,-0.432 Z" />
        </g>
        <g
           id="g498"
           transform="matrix(25.362748,0,0,-25.362748,3809.5408,-1761.6051)">
          <path
             d="M 0,0 0.854,1.483 3.593,-0.094 4.526,1.527 1.788,3.104 2.646,4.594 10.472,0.087 9.614,-1.403 6.448,0.42 5.515,-1.201 8.68,-3.024 7.826,-4.507 0,0 Z"
             style="fill:#ffffff;fill-opacity:1;fill-rule:nonzero;stroke:none"
             id="path500" />
        </g>
        <g
           id="g502"
           transform="matrix(25.362748,0,0,-25.362748,3958.1667,-2019.6558)">
          <path
             d="m 0,0 7.826,-4.507 -0.804,-1.395 -4.297,2.475 3.263,-4.271 -0.806,-1.4 -7.827,4.507 0.806,1.398 L 2.49,-5.686 -0.799,-1.387 0,0 Z"
             style="fill:#ffffff;fill-opacity:1;fill-rule:nonzero;stroke:none"
             id="path504" />
        </g>
        <g
           id="g506"
           transform="matrix(25.362748,0,0,-25.362748,3972.6031,-2044.7365)">
          <path
             d="M 0,0 2.29,3.976 3.96,3.013 2.527,0.524 3.771,-0.192 5.101,2.116 6.697,1.197 5.367,-1.111 6.91,-2 8.385,0.561 10.157,-0.46 7.826,-4.507 0,0 Z"
             style="fill:#ffffff;fill-opacity:1;fill-rule:nonzero;stroke:none"
             id="path508" />
        </g>
        <g
           id="g510"
           transform="matrix(25.362748,0,0,-25.362748,4043.4996,-2167.8227)">
          <path
             d="M 0,0 0.854,1.484 3.593,-0.094 4.526,1.527 1.788,3.105 2.646,4.595 10.472,0.087 9.614,-1.403 6.448,0.421 5.515,-1.2 8.68,-3.024 7.826,-4.507 0,0 Z"
             style="fill:#ffffff;fill-opacity:1;fill-rule:nonzero;stroke:none"
             id="path512" />
        </g>
        <g
           transform="matrix(25.362748,0,0,-25.362748,-8731.7465,3845.4367)"
           id="g514">
          <g
             id="g516"
             clip-path="url(#clipPath518)">
            <g
               id="g522"
               transform="translate(517.2551,242.5285)">
              <path
                 d="m 0,0 -0.962,-1.671 -2.354,0.585 c -0.557,0.139 -0.917,0.204 -1.081,0.197 -0.163,-0.008 -0.283,-0.079 -0.361,-0.213 l 3.096,-1.783 -0.852,-1.48 -7.826,4.507 0.852,1.48 3.006,-1.731 c 0.064,0.135 0.046,0.278 -0.051,0.43 -0.097,0.153 -0.431,0.494 -1.001,1.026 -0.424,0.393 -0.709,0.706 -0.855,0.942 -0.146,0.235 -0.192,0.507 -0.138,0.816 0.055,0.309 0.239,0.736 0.554,1.282 L -6.318,3.434 -6.362,3.358 C -6.508,3.105 -6.537,2.873 -6.451,2.66 -6.365,2.447 -6.169,2.201 -5.864,1.921 -5.559,1.64 -5.346,1.405 -5.226,1.215 c 0.121,-0.19 0.187,-0.393 0.2,-0.61 0.237,0.148 0.541,0.222 0.912,0.22 0.372,-0.002 0.904,-0.083 1.598,-0.244 L 0,0 Z"
                 style="fill:#ffffff;fill-opacity:1;fill-rule:nonzero;stroke:none"
                 id="path524" />
            </g>
            <g
               id="g526"
               transform="translate(513.5454,245.1223)">
              <path
                 d="m 0,0 c -1.278,0.736 -2.146,1.527 -2.607,2.374 -0.46,0.847 -0.466,1.66 -0.017,2.439 0.461,0.799 1.165,1.213 2.113,1.242 C 0.437,6.085 1.541,5.737 2.801,5.011 3.716,4.485 4.411,3.958 4.888,3.433 5.365,2.906 5.663,2.371 5.783,1.826 5.903,1.282 5.81,0.743 5.503,0.211 5.191,-0.331 4.792,-0.698 4.307,-0.891 3.822,-1.084 3.211,-1.115 2.475,-0.985 1.74,-0.855 0.915,-0.527 0,0 M 0.865,1.478 C 1.655,1.022 2.275,0.786 2.724,0.767 3.173,0.748 3.486,0.894 3.665,1.204 3.849,1.523 3.822,1.867 3.584,2.236 3.347,2.605 2.79,3.042 1.915,3.547 1.178,3.971 0.587,4.19 0.142,4.203 -0.303,4.216 -0.615,4.067 -0.794,3.755 -0.967,3.456 -0.933,3.116 -0.692,2.736 -0.451,2.356 0.068,1.937 0.865,1.478"
                 style="fill:#ffffff;fill-opacity:1;fill-rule:nonzero;stroke:none"
                 id="path528" />
            </g>
          </g>
        </g>
      </g>
      <g
         id="g8545">
        <g
           id="g530"
           transform="matrix(25.362748,0,0,-25.362748,856.82784,-3118.3982)">
          <path
             d="m 0,0 1.712,0 0,-3.413 L 3.505,0 5.782,0 3.76,-3.409 l 2.113,-5.622 -2.109,0 -1.168,3.714 -0.884,-1.51 0,-2.204 L 0,-9.031 0,0 Z"
             style="fill:#ffffff;fill-opacity:1;fill-rule:nonzero;stroke:none"
             id="path532" />
        </g>
        <g
           id="g534"
           transform="matrix(25.362748,0,0,-25.362748,1020.055,-3118.3982)">
          <path
             d="m 0,0 4.588,0 0,-1.928 -2.872,0 0,-1.435 2.664,0 0,-1.842 -2.664,0 0,-1.781 2.955,0 0,-2.045 L 0,-9.031 0,0 Z"
             style="fill:#ffffff;fill-opacity:1;fill-rule:nonzero;stroke:none"
             id="path536" />
        </g>
        <g
           id="g538"
           transform="matrix(25.362748,0,0,-25.362748,1161.9084,-3118.3982)">
          <path
             d="m 0,0 1.712,0 0,-6.807 2.672,0 0,-2.224 L 0,-9.031 0,0 Z"
             style="fill:#ffffff;fill-opacity:1;fill-rule:nonzero;stroke:none"
             id="path540" />
        </g>
        <g
           id="g542"
           transform="matrix(25.362748,0,0,-25.362748,1292.8359,-3118.3982)">
          <path
             d="m 0,0 1.712,0 0,-6.807 2.672,0 0,-2.224 L 0,-9.031 0,0 Z"
             style="fill:#ffffff;fill-opacity:1;fill-rule:nonzero;stroke:none"
             id="path544" />
        </g>
        <g
           id="g546"
           transform="matrix(25.362748,0,0,-25.362748,1394.4368,-3118.3982)">
          <path
             d="M 0,0 1.902,0 3.018,-3.047 4.136,0 6.028,0 3.874,-5.249 l 0,-3.782 -1.716,0 0,3.782 L 0,0 Z"
             style="fill:#ffffff;fill-opacity:1;fill-rule:nonzero;stroke:none"
             id="path548" />
        </g>
      </g>
      <g
         id="g550"
         transform="matrix(25.362748,0,0,-25.362748,-8731.7465,3845.4367)">
        <g
           clip-path="url(#clipPath554)"
           id="g552">
          <g
             transform="translate(475.5164,274.5694)"
             id="g558">
            <path
               id="path560"
               style="fill:#ffffff;fill-opacity:1;fill-rule:nonzero;stroke:none"
               d="M 0,0 3.15,0 C 3.675,0 4.078,-0.216 4.36,-0.647 4.64,-1.078 4.781,-1.612 4.781,-2.249 4.781,-2.782 4.681,-3.24 4.48,-3.622 4.346,-3.877 4.151,-4.078 3.893,-4.226 4.285,-4.382 4.572,-4.65 4.757,-5.03 4.941,-5.41 5.034,-5.887 5.034,-6.462 5.034,-6.93 4.968,-7.351 4.837,-7.725 4.706,-8.099 4.526,-8.395 4.298,-8.612 4.157,-8.748 3.944,-8.846 3.659,-8.908 3.28,-8.99 3.029,-9.031 2.905,-9.031 L 0,-9.031 0,0 Z m 1.698,-3.542 0.731,0 c 0.263,0 0.446,0.075 0.548,0.225 0.103,0.149 0.155,0.366 0.155,0.65 0,0.262 -0.052,0.468 -0.155,0.616 -0.102,0.147 -0.281,0.221 -0.536,0.221 l -0.743,0 0,-1.712 z m 0,-3.549 0.858,0 c 0.29,0 0.494,0.086 0.613,0.256 0.119,0.17 0.178,0.399 0.178,0.687 0,0.267 -0.059,0.481 -0.176,0.644 -0.118,0.162 -0.324,0.243 -0.619,0.243 l -0.854,0 0,-1.83 z" />
          </g>
          <g
             transform="translate(481.2187,270.0478)"
             id="g562">
            <path
               id="path564"
               style="fill:#ffffff;fill-opacity:1;fill-rule:nonzero;stroke:none"
               d="M 0,0 C 0,1.474 0.248,2.622 0.743,3.444 1.238,4.265 1.928,4.676 2.812,4.676 3.718,4.676 4.417,4.272 4.907,3.465 5.398,2.658 5.643,1.528 5.643,0.074 5.643,-0.982 5.535,-1.847 5.321,-2.523 5.107,-3.198 4.797,-3.724 4.393,-4.1 3.988,-4.476 3.483,-4.663 2.879,-4.663 c -0.614,0 -1.123,0.162 -1.525,0.486 -0.402,0.325 -0.729,0.838 -0.979,1.54 C 0.125,-1.934 0,-1.056 0,0 m 1.683,-0.012 c 0,-0.912 0.102,-1.567 0.306,-1.966 0.204,-0.398 0.482,-0.597 0.834,-0.597 0.361,0 0.642,0.195 0.84,0.585 C 3.861,-1.6 3.96,-0.9 3.96,0.111 3.96,0.961 3.857,1.582 3.649,1.974 3.443,2.367 3.162,2.563 2.808,2.563 2.469,2.563 2.197,2.363 1.991,1.965 1.785,1.567 1.683,0.908 1.683,-0.012" />
          </g>
          <g
             transform="translate(492.7712,265.5383)"
             id="g566">
            <path
               id="path568"
               style="fill:#ffffff;fill-opacity:1;fill-rule:nonzero;stroke:none"
               d="m 0,0 -1.683,0 0,6.813 -1.315,0 0,-2.778 c 0,-1.142 -0.036,-1.98 -0.109,-2.516 -0.073,-0.536 -0.244,-0.93 -0.513,-1.18 -0.269,-0.251 -0.703,-0.376 -1.302,-0.376 -0.183,0 -0.394,0.033 -0.631,0.099 l 0,1.829 0.252,0 c 0.228,0 0.389,0.083 0.483,0.25 0.094,0.166 0.141,0.471 0.141,0.915 l 0,5.975 L 0,9.031 0,0 Z" />
          </g>
          <g
             transform="translate(498.8372,265.5383)"
             id="g570">
            <path
               id="path572"
               style="fill:#ffffff;fill-opacity:1;fill-rule:nonzero;stroke:none"
               d="M 0,0 -1.895,0 -2.551,2.332 C -2.707,2.884 -2.827,3.228 -2.914,3.366 -3,3.504 -3.119,3.573 -3.272,3.573 l 0,-3.573 -1.679,0 0,9.031 1.679,0 0,-3.468 c 0.146,0.012 0.26,0.098 0.342,0.258 0.081,0.161 0.209,0.62 0.382,1.38 0.126,0.563 0.254,0.967 0.382,1.211 0.129,0.244 0.339,0.42 0.629,0.527 0.289,0.106 0.743,0.16 1.363,0.16 l 0,-1.91 -0.086,0 c -0.287,0 -0.5,-0.09 -0.639,-0.271 C -1.038,6.737 -1.151,6.445 -1.241,6.04 -1.33,5.636 -1.426,5.334 -1.528,5.135 -1.631,4.935 -1.772,4.776 -1.95,4.657 -1.707,4.526 -1.496,4.299 -1.315,3.977 -1.134,3.654 -0.942,3.152 -0.739,2.47 L 0,0 Z" />
          </g>
          <g
             transform="translate(499.2272,270.0478)"
             id="g574">
            <path
               id="path576"
               style="fill:#ffffff;fill-opacity:1;fill-rule:nonzero;stroke:none"
               d="M 0,0 C 0,1.474 0.248,2.622 0.743,3.444 1.239,4.265 1.928,4.676 2.812,4.676 3.719,4.676 4.417,4.272 4.907,3.465 5.398,2.658 5.643,1.528 5.643,0.074 5.643,-0.982 5.536,-1.847 5.322,-2.523 5.107,-3.198 4.797,-3.724 4.393,-4.1 3.988,-4.476 3.483,-4.663 2.879,-4.663 c -0.614,0 -1.123,0.162 -1.525,0.486 -0.402,0.325 -0.728,0.838 -0.979,1.54 C 0.125,-1.934 0,-1.056 0,0 m 1.683,-0.012 c 0,-0.912 0.102,-1.567 0.306,-1.966 0.205,-0.398 0.483,-0.597 0.834,-0.597 0.362,0 0.642,0.195 0.84,0.585 C 3.861,-1.6 3.96,-0.9 3.96,0.111 3.96,0.961 3.857,1.582 3.65,1.974 3.443,2.367 3.163,2.563 2.809,2.563 2.469,2.563 2.197,2.363 1.991,1.965 1.786,1.567 1.683,0.908 1.683,-0.012" />
          </g>
          <g
             transform="translate(505.7801,274.5694)"
             id="g578">
            <path
               id="path580"
               style="fill:#ffffff;fill-opacity:1;fill-rule:nonzero;stroke:none"
               d="M 0,0 3.15,0 C 3.675,0 4.078,-0.216 4.359,-0.647 4.64,-1.078 4.781,-1.612 4.781,-2.249 4.781,-2.782 4.68,-3.24 4.48,-3.622 4.346,-3.877 4.151,-4.078 3.893,-4.226 4.284,-4.382 4.572,-4.65 4.757,-5.03 4.941,-5.41 5.033,-5.887 5.033,-6.462 5.033,-6.93 4.968,-7.351 4.837,-7.725 4.706,-8.099 4.526,-8.395 4.298,-8.612 4.157,-8.748 3.944,-8.846 3.659,-8.908 3.28,-8.99 3.029,-9.031 2.905,-9.031 L 0,-9.031 0,0 Z m 1.698,-3.542 0.731,0 c 0.263,0 0.446,0.075 0.548,0.225 0.103,0.149 0.155,0.366 0.155,0.65 0,0.262 -0.052,0.468 -0.155,0.616 -0.102,0.147 -0.281,0.221 -0.536,0.221 l -0.743,0 0,-1.712 z m 0,-3.549 0.858,0 c 0.289,0 0.494,0.086 0.613,0.256 0.118,0.17 0.178,0.399 0.178,0.687 0,0.267 -0.059,0.481 -0.176,0.644 -0.118,0.162 -0.324,0.243 -0.619,0.243 l -0.854,0 0,-1.83 z" />
          </g>
        </g>
      </g>
      <g
         transform="matrix(25.362748,0,0,-25.362748,1812.6076,-2297.9988)"
         id="g582">
        <path
           id="path584"
           style="fill:#ffffff;fill-opacity:1;fill-rule:nonzero;stroke:none"
           d="m 0,0 -30.725,9.016 c -5.569493,1.492154 -2.309084,12.374109 -2.309084,12.374109 L 0.053,21.41 l 0,-21.933 z" />
      </g>
      <path
         id="path586"
         style="fill:#fc391d;fill-opacity:1;fill-rule:nonzero;stroke:none"
         d="m 981.98278,-2793.2644 831.46692,0 0,-47.8584 -831.46692,0 0,47.8584 z" />
      <path
         id="path588"
         style="fill:#fc391d;fill-opacity:1;fill-rule:nonzero;stroke:none"
         d="m 981.98278,-2709.9466 831.46692,0 0,-43.8777 -831.46692,0 0,43.8777 z" />
      <g
         transform="matrix(25.362748,0,0,-25.362748,981.90426,-2623.9954)"
         id="g590">
        <path
           id="path592"
           style="fill:#fc391d;fill-opacity:1;fill-rule:nonzero;stroke:none"
           d="m 0,0 32.79,0.005 0,1.732 -32.786,0 L 0,0 Z" />
      </g>
      <g
         transform="matrix(25.362748,0,0,-25.362748,981.90426,-2543.7455)"
         id="g594">
        <path
           id="path596"
           style="fill:#fc391d;fill-opacity:1;fill-rule:nonzero;stroke:none"
           d="m 0,0 32.793,-0.007 0,1.653 L 0,1.644 0,0 Z" />
      </g>
      <g
         transform="matrix(25.362748,0,0,-25.362748,1183.7788,-2456.4328)"
         id="g598">
        <path
           id="path600"
           style="fill:#fc391d;fill-opacity:1;fill-rule:nonzero;stroke:none"
           d="m 0,0 24.819,0 0,1.709 -28.141,0 L 0.119,0 0,0 Z" />
      </g>
      <g
         transform="matrix(25.362748,0,0,-25.362748,1475.6254,-2376.2237)"
         id="g602">
        <path
           id="path604"
           style="fill:#fc391d;fill-opacity:1;fill-rule:nonzero;stroke:none"
           d="m 0,0 13.313,-0.217 0,1.693 L -4.033,1.542 -2.372,0.712 0,0 Z" />
      </g>
      <g
         transform="matrix(25.362748,0,0,-25.362748,711.41038,-2665.0625)"
         id="g606">
        <path
           id="path608"
           style="fill:#031b71;fill-opacity:1;fill-rule:nonzero;stroke:none"
           d="m 0,0 10.666,-4.79 0,11.732 -21.816,0 L -10.202,6.05 0,0 Z" />
      </g>
      <g
         transform="matrix(25.362748,0,0,-25.362748,523.38377,-2786.8181)"
         id="g610">
        <path
           id="path612"
           style="fill:#ffffff;fill-opacity:1;fill-rule:nonzero;stroke:none"
           d="m 0,0 -0.501,-0.003 0.39,-0.225 -0.146,-0.356 0.411,0.225 0.435,-0.225 -0.162,0.361 0.392,0.22 -0.509,0 L 0.15,0.332 0,0 Z" />
      </g>
      <g
         transform="matrix(25.362748,0,0,-25.362748,614.25583,-2786.8181)"
         id="g614">
        <path
           id="path616"
           style="fill:#ffffff;fill-opacity:1;fill-rule:nonzero;stroke:none"
           d="m 0,0 -0.501,-0.003 0.39,-0.225 -0.146,-0.356 0.411,0.225 0.435,-0.225 -0.161,0.361 0.391,0.22 -0.508,0 L 0.15,0.332 0,0 Z" />
      </g>
      <g
         transform="matrix(25.362748,0,0,-25.362748,707.6847,-2786.8181)"
         id="g618">
        <path
           id="path620"
           style="fill:#ffffff;fill-opacity:1;fill-rule:nonzero;stroke:none"
           d="m 0,0 -0.502,-0.003 0.391,-0.225 -0.147,-0.356 0.412,0.225 0.434,-0.225 -0.161,0.361 0.392,0.22 -0.509,0 L 0.15,0.332 0,0 Z" />
      </g>
      <g
         transform="matrix(25.362748,0,0,-25.362748,799.81233,-2786.8181)"
         id="g622">
        <path
           id="path624"
           style="fill:#ffffff;fill-opacity:1;fill-rule:nonzero;stroke:none"
           d="m 0,0 -0.501,-0.003 0.391,-0.225 -0.147,-0.356 0.411,0.225 0.435,-0.225 -0.161,0.361 0.392,0.22 -0.509,0 L 0.151,0.332 0,0 Z" />
      </g>
      <g
         transform="matrix(25.362748,0,0,-25.362748,891.96287,-2786.8181)"
         id="g626">
        <path
           id="path628"
           style="fill:#ffffff;fill-opacity:1;fill-rule:nonzero;stroke:none"
           d="m 0,0 -0.501,-0.003 0.391,-0.225 -0.147,-0.356 0.411,0.225 0.435,-0.225 -0.161,0.361 0.392,0.22 -0.509,0 L 0.151,0.332 0,0 Z" />
      </g>
      <g
         transform="matrix(25.362748,0,0,-25.362748,707.6847,-2725.8948)"
         id="g630">
        <path
           id="path632"
           style="fill:#ffffff;fill-opacity:1;fill-rule:nonzero;stroke:none"
           d="M 0,0 -0.502,0 -0.111,-0.226 -0.258,-0.582 0.154,-0.356 0.588,-0.584 0.427,-0.223 0.819,0 0.31,0 0.15,0.335 0,0 Z" />
      </g>
      <g
         transform="matrix(25.362748,0,0,-25.362748,799.81233,-2725.8948)"
         id="g634">
        <path
           id="path636"
           style="fill:#ffffff;fill-opacity:1;fill-rule:nonzero;stroke:none"
           d="M 0,0 -0.501,0 -0.11,-0.226 -0.257,-0.582 0.154,-0.356 0.589,-0.584 0.428,-0.223 0.82,0 0.311,0 0.151,0.335 0,0 Z" />
      </g>
      <g
         transform="matrix(25.362748,0,0,-25.362748,891.96287,-2725.8948)"
         id="g638">
        <path
           id="path640"
           style="fill:#ffffff;fill-opacity:1;fill-rule:nonzero;stroke:none"
           d="M 0,0 -0.501,0 -0.11,-0.226 -0.257,-0.582 0.154,-0.356 0.589,-0.584 0.428,-0.223 0.82,0 0.311,0 0.151,0.335 0,0 Z" />
      </g>
      <g
         transform="matrix(25.362748,0,0,-25.362748,799.81233,-2664.0583)"
         id="g642">
        <path
           id="path644"
           style="fill:#ffffff;fill-opacity:1;fill-rule:nonzero;stroke:none"
           d="M 0,0 -0.501,0 -0.11,-0.225 -0.257,-0.581 0.154,-0.356 0.589,-0.583 0.428,-0.222 0.82,0 0.311,0 0.151,0.336 0,0 Z" />
      </g>
      <g
         transform="matrix(25.362748,0,0,-25.362748,891.96287,-2664.0583)"
         id="g646">
        <path
           id="path648"
           style="fill:#ffffff;fill-opacity:1;fill-rule:nonzero;stroke:none"
           d="M 0,0 -0.501,0 -0.11,-0.225 -0.257,-0.581 0.154,-0.356 0.589,-0.583 0.428,-0.222 0.82,0 0.311,0 0.151,0.336 0,0 Z" />
      </g>
      <g
         transform="matrix(25.362748,0,0,-25.362748,891.96287,-2604.0924)"
         id="g650">
        <path
           id="path652"
           style="fill:#ffffff;fill-opacity:1;fill-rule:nonzero;stroke:none"
           d="M 0,0 -0.501,0 -0.11,-0.225 -0.257,-0.581 0.154,-0.356 0.589,-0.584 0.428,-0.223 0.82,0 0.311,0 0.151,0.336 0,0 Z" />
      </g>
      <g
         transform="matrix(25.362748,0,0,-25.362748,479.96782,-2815.8775)"
         id="g654">
        <path
           id="path656"
           style="fill:#ffffff;fill-opacity:1;fill-rule:nonzero;stroke:none"
           d="m 0,0 -0.501,-0.003 0.391,-0.222 -0.147,-0.359 0.411,0.228 0.435,-0.228 -0.161,0.361 0.392,0.22 -0.509,0 L 0.151,0.333 0,0 Z" />
      </g>
      <g
         transform="matrix(25.362748,0,0,-25.362748,572.11837,-2815.8775)"
         id="g658">
        <path
           id="path660"
           style="fill:#ffffff;fill-opacity:1;fill-rule:nonzero;stroke:none"
           d="m 0,0 -0.501,-0.003 0.391,-0.222 -0.147,-0.359 0.412,0.228 0.434,-0.228 -0.161,0.361 0.392,0.22 -0.509,0 L 0.151,0.333 0,0 Z" />
      </g>
      <g
         transform="matrix(25.362748,0,0,-25.362748,664.26874,-2815.8775)"
         id="g662">
        <path
           id="path664"
           style="fill:#ffffff;fill-opacity:1;fill-rule:nonzero;stroke:none"
           d="m 0,0 -0.501,-0.003 0.39,-0.222 -0.146,-0.359 0.411,0.228 0.435,-0.228 -0.161,0.361 0.391,0.22 -0.508,0 L 0.151,0.333 0,0 Z" />
      </g>
      <g
         transform="matrix(25.362748,0,0,-25.362748,757.69759,-2815.8775)"
         id="g666">
        <path
           id="path668"
           style="fill:#ffffff;fill-opacity:1;fill-rule:nonzero;stroke:none"
           d="m 0,0 -0.502,-0.003 0.391,-0.222 -0.146,-0.359 0.411,0.228 0.435,-0.228 -0.162,0.361 0.392,0.22 -0.509,0 L 0.15,0.333 0,0 Z" />
      </g>
      <g
         transform="matrix(25.362748,0,0,-25.362748,848.63823,-2815.8775)"
         id="g670">
        <path
           id="path672"
           style="fill:#ffffff;fill-opacity:1;fill-rule:nonzero;stroke:none"
           d="m 0,0 -0.501,-0.003 0.391,-0.222 -0.147,-0.359 0.412,0.228 0.434,-0.228 -0.161,0.361 0.392,0.22 -0.512,0 L 0.15,0.333 0,0 Z" />
      </g>
      <g
         transform="matrix(25.362748,0,0,-25.362748,941.97562,-2815.8775)"
         id="g674">
        <path
           id="path676"
           style="fill:#ffffff;fill-opacity:1;fill-rule:nonzero;stroke:none"
           d="m 0,0 -0.501,-0.003 0.391,-0.222 -0.147,-0.359 0.411,0.228 0.438,-0.228 -0.164,0.361 0.392,0.22 -0.509,0 L 0.151,0.333 0,0 Z" />
      </g>
      <g
         transform="matrix(25.362748,0,0,-25.362748,941.97562,-2568.4143)"
         id="g678">
        <path
           id="path680"
           style="fill:#ffffff;fill-opacity:1;fill-rule:nonzero;stroke:none"
           d="M 0,0 -0.501,0 -0.11,-0.222 -0.257,-0.579 0.154,-0.354 0.592,-0.581 0.428,-0.22 0.82,0 0.311,0 0.151,0.336 0,0 Z" />
      </g>
      <g
         transform="matrix(25.362748,0,0,-25.362748,572.11837,-2754.9523)"
         id="g682">
        <path
           id="path684"
           style="fill:#ffffff;fill-opacity:1;fill-rule:nonzero;stroke:none"
           d="M 0,0 -0.501,0 -0.11,-0.225 -0.257,-0.582 0.155,-0.356 0.589,-0.584 0.428,-0.223 0.82,0 0.311,0 0.151,0.335 0,0 Z" />
      </g>
      <g
         transform="matrix(25.362748,0,0,-25.362748,664.26874,-2754.9523)"
         id="g686">
        <path
           id="path688"
           style="fill:#ffffff;fill-opacity:1;fill-rule:nonzero;stroke:none"
           d="m 0,0 -0.501,0 0.39,-0.225 -0.146,-0.357 0.411,0.226 L 0.589,-0.584 0.428,-0.223 0.819,0 0.311,0 0.151,0.335 0,0 Z" />
      </g>
      <g
         transform="matrix(25.362748,0,0,-25.362748,757.69759,-2754.9523)"
         id="g690">
        <path
           id="path692"
           style="fill:#ffffff;fill-opacity:1;fill-rule:nonzero;stroke:none"
           d="M 0,0 -0.502,0 -0.111,-0.225 -0.257,-0.582 0.154,-0.356 0.589,-0.584 0.427,-0.223 0.819,0 0.31,0 0.15,0.335 0,0 Z" />
      </g>
      <g
         transform="matrix(25.362748,0,0,-25.362748,848.63823,-2754.9523)"
         id="g694">
        <path
           id="path696"
           style="fill:#ffffff;fill-opacity:1;fill-rule:nonzero;stroke:none"
           d="M 0,0 -0.501,0 -0.11,-0.225 -0.257,-0.582 0.155,-0.356 0.589,-0.584 0.428,-0.223 0.82,0 0.308,0 0.15,0.335 0,0 Z" />
      </g>
      <g
         transform="matrix(25.362748,0,0,-25.362748,941.97562,-2754.9523)"
         id="g698">
        <path
           id="path700"
           style="fill:#ffffff;fill-opacity:1;fill-rule:nonzero;stroke:none"
           d="M 0,0 -0.501,0 -0.11,-0.225 -0.257,-0.582 0.154,-0.356 0.592,-0.584 0.428,-0.223 0.82,0 0.311,0 0.151,0.335 0,0 Z" />
      </g>
      <g
         transform="matrix(25.362748,0,0,-25.362748,757.69759,-2693.116)"
         id="g702">
        <path
           id="path704"
           style="fill:#ffffff;fill-opacity:1;fill-rule:nonzero;stroke:none"
           d="M 0,0 -0.502,0 -0.111,-0.224 -0.257,-0.581 0.154,-0.356 0.589,-0.583 0.427,-0.222 0.819,0 0.31,0 0.15,0.336 0,0 Z" />
      </g>
      <g
         transform="matrix(25.362748,0,0,-25.362748,848.63823,-2693.116)"
         id="g706">
        <path
           id="path708"
           style="fill:#ffffff;fill-opacity:1;fill-rule:nonzero;stroke:none"
           d="M 0,0 -0.501,0 -0.11,-0.224 -0.257,-0.581 0.155,-0.356 0.589,-0.583 0.428,-0.222 0.82,0 0.308,0 0.15,0.336 0,0 Z" />
      </g>
      <g
         transform="matrix(25.362748,0,0,-25.362748,941.97562,-2693.116)"
         id="g710">
        <path
           id="path712"
           style="fill:#ffffff;fill-opacity:1;fill-rule:nonzero;stroke:none"
           d="M 0,0 -0.501,0 -0.11,-0.224 -0.257,-0.581 0.154,-0.356 0.592,-0.583 0.428,-0.222 0.82,0 0.311,0 0.151,0.336 0,0 Z" />
      </g>
      <g
         transform="matrix(25.362748,0,0,-25.362748,848.63823,-2633.1501)"
         id="g714">
        <path
           id="path716"
           style="fill:#ffffff;fill-opacity:1;fill-rule:nonzero;stroke:none"
           d="M 0,0 -0.501,0 -0.11,-0.225 -0.257,-0.581 0.155,-0.356 0.589,-0.584 0.428,-0.222 0.82,0 0.308,0 0.15,0.336 0,0 Z" />
      </g>
      <g
         transform="matrix(25.362748,0,0,-25.362748,941.97562,-2633.1501)"
         id="g718">
        <path
           id="path720"
           style="fill:#ffffff;fill-opacity:1;fill-rule:nonzero;stroke:none"
           d="M 0,0 -0.501,0 -0.11,-0.225 -0.257,-0.581 0.154,-0.356 0.592,-0.584 0.428,-0.222 0.82,0 0.311,0 0.151,0.336 0,0 Z" />
      </g>
      <g
         transform="matrix(25.362748,0,0,-25.362748,3161.1424,-2651.4196)"
         id="g722">
        <path
           id="path724"
           style="fill:#ffffff;fill-opacity:1;fill-rule:nonzero;stroke:none"
           d="M 0,0 42.168,0 53.912,7.456 0,7.456 0,0 Z" />
      </g>
      <g
         transform="matrix(25.362748,0,0,-25.362748,3160.6324,-2468.8625)"
         id="g726">
        <path
           id="path728"
           style="fill:#013ba6;fill-opacity:1;fill-rule:nonzero;stroke:none"
           d="M 0,0 24.038,0 41.12,7.198 0,7.198 0,0 Z" />
      </g>
      <g
         transform="matrix(25.362748,0,0,-25.362748,3170.0929,-2300.8374)"
         id="g730">
        <path
           id="path732"
           style="fill:#fc391d;fill-opacity:1;fill-rule:nonzero;stroke:none"
           d="m 0,0 -0.099,0.356 23.844,6.287 -24.101,0 L -0.318,0.184 0,0 Z" />
      </g>
      <g
         transform="matrix(25.362748,0,0,-25.362748,3165.8191,-2312.279)"
         id="g734">
        <path
           id="path736"
           style="fill:#031b71;fill-opacity:1;fill-rule:nonzero;stroke:none"
           d="m 0,0 0,20.703 -53.393,0 0,-21.771 L 0,-0.356 0,0 Z" />
      </g>
      <g
         transform="matrix(25.362748,0,0,-25.362748,1811.6183,-2656.7681)"
         id="g738">
        <path
           id="path740"
           style="fill:#ffffff;fill-opacity:1;fill-rule:nonzero;stroke:none"
           d="M 0,0 11.277,0 0,4.609 l 0,2.646 6.452,0 15.775,-6.405 0,6.405 8.883,0 0,-6.405 15.775,6.405 6.508,0 0,-2.646 L 42.06,0 l 11.333,0 0,-7.26 -11.333,0 11.333,-4.609 -0.624,-1.802 -5.884,-0.845 -15.775,6.405 0,-6.405 -8.883,0 0,6.405 -15.775,-6.405 -6.452,0 0,2.647 L 11.277,-7.26 0,-7.26 0,0 Z" />
      </g>
      <g
         transform="matrix(25.362748,0,0,-25.362748,3059.354,-2840.7696)"
         id="g742">
        <path
           id="path744"
           style="fill:#fc391d;fill-opacity:1;fill-rule:nonzero;stroke:none"
           d="m 0,0 -17.821,-7.26 4.266,0 L 4.197,0 0,0 Z" />
      </g>
      <g
         transform="matrix(25.362748,0,0,-25.362748,3149.9929,-2296.4851)"
         id="g746">
        <path
           id="path748"
           style="fill:#fc391d;fill-opacity:1;fill-rule:nonzero;stroke:none"
           d="m 0,0 -17.148,6.945 4.285,0 L 0.623,1.419 0.119,-0.059 0,0 Z" />
      </g>
      <g
         transform="matrix(25.362748,0,0,-25.362748,2264.488,-2656.6482)"
         id="g750">
        <path
           id="path752"
           style="fill:#fc391d;fill-opacity:1;fill-rule:nonzero;stroke:none"
           d="m 0,0 -17.856,7.26 0,-1.734 L -4.304,0 0,0 Z" />
      </g>
      <g
         transform="matrix(25.362748,0,0,-25.362748,2263.5444,-2472.6343)"
         id="g754">
        <path
           id="path756"
           style="fill:#fc391d;fill-opacity:1;fill-rule:nonzero;stroke:none"
           d="m 0,0 -17.819,-7.255 4.264,0 L 4.266,0 0,0 Z" />
      </g>
      <g
         transform="matrix(25.362748,0,0,-25.362748,1811.6183,-2618.5677)"
         id="g758">
        <path
           id="path760"
           style="fill:#fc391d;fill-opacity:1;fill-rule:nonzero;stroke:none"
           d="m 0,0 24.119,0 0,8.761 5.22,0 0,-8.761 24.054,0 0,-4.251 -24.054,0 0,-8.758 -5.22,0 0,8.758 L 0,-4.251 0,0 Z" />
      </g>
      <g
         transform="matrix(25.362748,0,0,-25.362748,2483.2574,-2310.0769)"
         id="g770">
        <path
           id="path772"
           style="fill:#1782c5;fill-opacity:1;fill-rule:nonzero;stroke:none"
           d="M 0,0 C -35.156,0 -66.525,9.884 -87.061,25.342 -67.367,8.249 -35.699,-2.847 0.027,-2.847 c 36.064,0 68.001,11.301 87.651,28.67 C 67.157,10.092 35.516,0 0,0" />
      </g>
      <g
         style="stroke-width:1.56812489;stroke-miterlimit:4;stroke-dasharray:none"
         transform="matrix(25.362748,0,0,-25.362748,2303.4279,-2066.1659)"
         id="g782" />
      <g
         transform="translate(-4.0406102,4.0406102)"
         id="g6179">
        <g
           transform="matrix(0.99758082,0,0,0.99758082,7.5372742,-14.109775)"
           id="g6203">
          <g
             id="g778"
             transform="matrix(25.063832,0,0,-25.063832,3384.4202,-2046.7273)"
             style="fill:#b7c7d6;fill-opacity:1;stroke-width:1.56812489;stroke-miterlimit:4;stroke-dasharray:none">
            <g
               id="g6173"
               style="fill:#b7c7d6;fill-opacity:1">
              <path
                 id="path780"
                 style="fill:#b7c7d6;fill-opacity:1;stroke:#ffffff;stroke-width:1.56812489;stroke-linecap:butt;stroke-linejoin:miter;stroke-miterlimit:4;stroke-dasharray:none;stroke-opacity:1"
                 d="m 0,0 0,-7.114 c -4.474,0 -8.835,0.08 -13.193,-0.032 -2.276,-0.059 -4.623,-0.096 -6.801,-0.779 -4.129,-1.294 -6.197,-5.177 -6.047,-10.842 4.163,0 8.345,0.129 12.518,-0.046 2.774,-0.116 5.634,-0.234 8.279,-1.115 4.584,-1.526 6.638,-5.83 7.016,-11.298 0.405,-5.839 -1.091,-11.11 -5.543,-13.692 -7.457,-4.325 -16.283,-4.152 -22.796,0.058 -5.446,3.155 -7.219,9.677 -7.784,16.467 -0.703,8.429 -0.297,16.848 5.154,23.09 2.228,2.551 5.572,4.735 8.564,5.068 C -13.911,0.514 -7.092,0 0,0 Z m -26.305,-26.609 c -0.19,-4.851 0.298,-9.475 4.098,-11.96 4.309,-2.818 9,-3.111 13.466,-0.324 2.489,1.554 2.75,4.597 2.255,7.569 -0.453,2.719 -1.976,4.587 -4.329,4.664 -5.052,0.166 -10.11,0.051 -15.49,0.051 z" />
            </g>
          </g>
          <g
             transform="matrix(25.344245,0,0,-25.344245,2304.8271,-2063.2463)"
             id="g786"
             style="fill:#b7c7d6;fill-opacity:1">
            <path
               id="path788"
               style="fill:#b7c7d6;fill-opacity:1;stroke:#ffffff;stroke-width:1.55383933;stroke-linecap:butt;stroke-linejoin:miter;stroke-miterlimit:4;stroke-dasharray:none;stroke-opacity:1"
               d="m -0.3081956,-0.44036823 0,-29.99820377 c 2.2443659,-0.05747 3.4988326,-0.0218 5.5598839,-0.05747 l 0,-7.485183 c -1.6706406,-0.09909 -3.081668,0.04162 -5.52718453,0.02774 l 0,-9.608661 -7.24142417,0 0,9.662169 -25.2974216,0 c -0.535081,4.772126 -0.428065,8.558317 2.656576,12.210737 5.982994,7.084864 11.52306,14.723635 17.086907,22.300971 1.58146,2.1541949 3.1272489,3.07473169 5.5598839,3.00140583 2.2691381,-0.0693623 4.5035951,-0.0535081 7.2027795,-0.0535081 z M -24.660309,-30.381101 l 16.8560305,0 0,22.0591936 C -13.568286,-15.864562 -18.922064,-22.871145 -24.660309,-30.381101 Z" />
          </g>
        </g>
      </g>
    </g>
  </g>
</svg>
