<?xml version="1.0" encoding="UTF-8"?>
<svg width="413pt" version="1.1" xmlns="http://www.w3.org/2000/svg" height="348pt" viewBox="0 0 413 348" xmlns:xlink="http://www.w3.org/1999/xlink">
 <defs>
  <clipPath id="Clip0">
   <path d="M0 0 L413 0 L413 348 L0 348 L0 0 Z" transform="translate(0, 0)"/>
  </clipPath>
 </defs>
 <g id="Background">
  <g id="Group1" clip-path="url(#Clip0)">
   <path style="fill:#000000; fill-rule:evenodd;stroke:none;" d="M4.65625 3.9453 L4.65625 7.2422 L5.58203 7.2422 L5.58203 0 L4.65625 0 L4.65625 3.1289 L0.92578 3.1289 L0.92578 0 L0 0 L0 7.2422 L0.9375 7.2422 L0.9375 3.9453 L4.65625 3.9453 Z" transform="translate(3.23047, 47.3574)"/>
   <path style="fill:#000000; fill-rule:evenodd;stroke:none;" d="M5.668 0 L4.793 0 L4.793 5.9219 L1.0039 0 L0 0 L0 7.2422 L0.875 7.2422 L0.875 1.3711 L4.625 7.2422 L5.668 7.2422 L5.668 0 Z" transform="translate(10.3838, 47.3574)"/>
   <path style="fill:#000000; fill-rule:nonzero;stroke:none;" d="M1.5996 24.4004 L0 24.4004 L0 0 L1.5996 0 L1.5996 24.4004 Z" transform="translate(13.2002, 21)"/>
   <path style="fill:#000000; fill-rule:nonzero;stroke:none;" d="M1.6006 24.4004 L0 24.4004 L0 0 L1.6006 0 L1.6006 24.4004 Z" transform="translate(17.0996, 21)"/>
   <path style="fill:#000000; fill-rule:nonzero;stroke:none;" d="M30.45 0 L30.45 1.5996 L0 1.5996 L0.9 0 L30.45 0 Z" transform="translate(109.55, 36.2002)"/>
   <path style="fill:#000000; fill-rule:evenodd;stroke:none;" d="M3.4921 0 C1.4101 0 0 1.5274 0 3.793 C0 6.0664 1.4021 7.586 3.5001 7.586 C4.3871 7.586 5.1641 7.3203 5.7501 6.8242 C6.5351 6.1563 7.0041 5.0352 7.0041 3.8516 C7.0041 1.5196 5.6211 0 3.4921 0 Z M3.4921 0.8125 C5.0621 0.8125 6.0781 1.9961 6.0781 3.8321 C6.0781 5.5821 5.0351 6.7735 3.5001 6.7735 C1.9491 6.7735 0.9261 5.5821 0.9261 3.793 C0.9261 2.0039 1.9491 0.8125 3.4921 0.8125 Z" transform="translate(99.1289, 62.1904)"/>
   <path style="fill:#000000; fill-rule:nonzero;stroke:none;" d="M1.5 24.2002 L0 23.7998 L6.35 0 L7.85 0.4004 L1.5 24.2002 Z" transform="translate(104.9, 36.7998)"/>
   <path style="fill:#000000; fill-rule:nonzero;stroke:none;" d="M1.55 25.5996 L0 25.1992 L6.75 0 L8.25 0.3994 L1.55 25.5996 Z" transform="translate(101.1, 34.4004)"/>
   <path style="fill:#000000; fill-rule:evenodd;stroke:none;" d="M3.4922 0 C1.4102 0 0 1.52735 0 3.79297 C0 6.06637 1.4024 7.58597 3.5 7.58597 C4.3867 7.58597 5.1641 7.32027 5.75 6.82427 C6.5352 6.15627 7.0039 5.03517 7.0039 3.85157 C7.0039 1.51954 5.6211 0 3.4922 0 Z M3.4922 0.8125 C5.0625 0.8125 6.0781 1.9961 6.0781 3.83207 C6.0781 5.58207 5.0352 6.77347 3.5 6.77347 C1.9492 6.77347 0.9258 5.58207 0.9258 3.79297 C0.9258 2.00391 1.9492 0.8125 3.4922 0.8125 Z" transform="translate(91.8789, 7.24023)"/>
   <path style="fill:#000000; fill-rule:nonzero;stroke:none;" d="M0 0.75 L1.3496 0 L13.2498 20.6006 L12.3498 22.2002 L0 0.75 Z" transform="translate(97.2002, 15.5996)"/>
   <path style="fill:#000000; fill-rule:evenodd;stroke:none;" d="M3.4922 0 C1.4102 0 0 1.52735 0 3.79297 C0 6.06637 1.4024 7.58597 3.5 7.58597 C4.3867 7.58597 5.1641 7.32027 5.75 6.82427 C6.5352 6.15627 7.0039 5.03517 7.0039 3.85157 C7.0039 1.51954 5.6211 0 3.4922 0 Z M3.4922 0.8125 C5.0625 0.8125 6.0781 1.9961 6.0781 3.83207 C6.0781 5.58207 5.0352 6.77347 3.5 6.77347 C1.9492 6.77347 0.9258 5.58207 0.9258 3.79297 C0.9258 2.00391 1.9492 0.8125 3.4922 0.8125 Z" transform="translate(61.8789, 7.24023)"/>
   <path style="fill:#000000; fill-rule:nonzero;stroke:none;" d="M0 1.5498 L0 0 L19.0498 0 L19.0498 1.5498 L0 1.5498 Z" transform="translate(70.4502, 10.25)"/>
   <path style="fill:#000000; fill-rule:evenodd;stroke:none;" d="M4.6563 3.9453 L4.6563 7.2422 L5.582 7.2422 L5.582 0 L4.6563 0 L4.6563 3.1289 L0.9258 3.1289 L0.9258 0 L0 0 L0 7.2422 L0.9375 7.2422 L0.9375 3.9453 L4.6563 3.9453 Z" transform="translate(47.9746, 33.3574)"/>
   <path style="fill:#000000; fill-rule:nonzero;stroke:none;" d="M1.3506 16.0996 L0 15.3496 L8.9004 0 L10.25 0.75 L1.3506 16.0996 Z" transform="translate(52.5498, 15.6504)"/>
   <path style="fill:none;stroke:#000000; stroke-width:1.55; stroke-linecap:butt; stroke-linejoin:miter; stroke-dasharray:none;" d="M65.4 0 L0 0 " transform="translate(155, 48)"/>
   <path style="fill:#000000; fill-rule:nonzero;stroke:none;" d="M15.6 4 L0 0 C0 0 1.95 2.25 1.95 4 C1.95 5.75 0 7.9502 0 7.9502 L15.6 4 L15.6 4 " transform="translate(218.4, 44)"/>
   <path style="fill:#000000; fill-rule:evenodd;stroke:none;" d="M4.657 3.9453 L4.657 7.2422 L5.583 7.2422 L5.583 0 L4.657 0 L4.657 3.1289 L0.926 3.1289 L0.926 0 L0 0 L0 7.2422 L0.938 7.2422 L0.938 3.9453 L4.657 3.9453 Z" transform="translate(252.23, 55.3574)"/>
   <path style="fill:#000000; fill-rule:evenodd;stroke:none;" d="M5.668 0 L4.793 0 L4.793 5.9219 L1.004 0 L0 0 L0 7.2422 L0.875 7.2422 L0.875 1.3711 L4.625 7.2422 L5.668 7.2422 L5.668 0 Z" transform="translate(259.384, 55.3574)"/>
   <path style="fill:#000000; fill-rule:nonzero;stroke:none;" d="M1.6 24.4004 L0 24.4004 L0 0 L1.6 0 L1.6 24.4004 Z" transform="translate(262.2, 29)"/>
   <path style="fill:#000000; fill-rule:nonzero;stroke:none;" d="M1.6 24.4004 L0 24.4004 L0 0 L1.6 0 L1.6 24.4004 Z" transform="translate(266.1, 29)"/>
   <path style="fill:#000000; fill-rule:nonzero;stroke:none;" d="M30.45 0 L30.45 1.5996 L0 1.5996 L0.9 0 L30.45 0 Z" transform="translate(358.55, 44.2002)"/>
   <path style="fill:#000000; fill-rule:evenodd;stroke:none;" d="M3.492 0 C1.41 0 0 1.5274 0 3.793 C0 6.0664 1.402 7.586 3.5 7.586 C4.387 7.586 5.164 7.3203 5.75 6.8242 C6.535 6.1563 7.004 5.0352 7.004 3.8516 C7.004 1.5196 5.621 0 3.492 0 Z M3.492 0.8125 C5.062 0.8125 6.078 1.9961 6.078 3.8321 C6.078 5.5821 5.035 6.7735 3.5 6.7735 C1.949 6.7735 0.926 5.5821 0.926 3.793 C0.926 2.0039 1.949 0.8125 3.492 0.8125 Z" transform="translate(348.129, 70.1904)"/>
   <path style="fill:#000000; fill-rule:nonzero;stroke:none;" d="M1.5 24.2002 L0 23.7998 L6.35 0 L7.85 0.4004 L1.5 24.2002 Z" transform="translate(353.9, 44.7998)"/>
   <path style="fill:#000000; fill-rule:nonzero;stroke:none;" d="M1.55 25.5996 L0 25.1992 L6.75 0 L8.25 0.3994 L1.55 25.5996 Z" transform="translate(350.1, 42.4004)"/>
   <path style="fill:#000000; fill-rule:evenodd;stroke:none;" d="M3.492 0 C1.41 0 0 1.5274 0 3.793 C0 6.0664 1.402 7.586 3.5 7.586 C4.387 7.586 5.164 7.3203 5.75 6.8243 C6.535 6.1563 7.004 5.0352 7.004 3.8516 C7.004 1.5196 5.621 0 3.492 0 Z M3.492 0.8125 C5.062 0.8125 6.078 1.9961 6.078 3.8321 C6.078 5.5821 5.035 6.7735 3.5 6.7735 C1.949 6.7735 0.926 5.5821 0.926 3.793 C0.926 2.0039 1.949 0.8125 3.492 0.8125 Z" transform="translate(340.879, 15.2402)"/>
   <path style="fill:#000000; fill-rule:nonzero;stroke:none;" d="M0 0.75 L1.35 0 L13.25 20.6006 L12.35 22.2002 L0 0.75 Z" transform="translate(346.2, 23.5996)"/>
   <path style="fill:#000000; fill-rule:evenodd;stroke:none;" d="M3.492 0 C1.41 0 0 1.5274 0 3.793 C0 6.0664 1.402 7.586 3.5 7.586 C4.387 7.586 5.164 7.3203 5.75 6.8243 C6.535 6.1563 7.004 5.0352 7.004 3.8516 C7.004 1.5196 5.621 0 3.492 0 Z M3.492 0.8125 C5.062 0.8125 6.078 1.9961 6.078 3.8321 C6.078 5.5821 5.035 6.7735 3.5 6.7735 C1.949 6.7735 0.926 5.5821 0.926 3.793 C0.926 2.0039 1.949 0.8125 3.492 0.8125 Z" transform="translate(310.879, 15.2402)"/>
   <path style="fill:#000000; fill-rule:nonzero;stroke:none;" d="M0 1.5498 L0 0 L19.05 0 L19.05 1.5498 L0 1.5498 Z" transform="translate(319.45, 18.25)"/>
   <path style="fill:#000000; fill-rule:evenodd;stroke:none;" d="M4.656 3.9453 L4.656 7.2422 L5.582 7.2422 L5.582 0 L4.656 0 L4.656 3.1289 L0.926 3.1289 L0.926 0 L0 0 L0 7.2422 L0.937 7.2422 L0.937 3.9453 L4.656 3.9453 Z" transform="translate(282.174, 76.5576)"/>
   <path style="fill:#000000; fill-rule:nonzero;stroke:none;" d="M13.85 12.75 L12.75 13.8496 L0 1.0996 L1.1 0 L13.85 12.75 Z" transform="translate(266.25, 62.25)"/>
   <path style="fill:none;stroke:#000000; stroke-width:1.25; stroke-linecap:butt; stroke-linejoin:miter; stroke-dasharray:none;" d="M6.7 3.3506 C6.7 5.2002 5.199 6.7002 3.35 6.7002 C1.5 6.7002 0 5.2002 0 3.3506 C0 1.501 1.5 0 3.35 0 C5.199 0 6.7 1.501 6.7 3.3506 Z" transform="translate(271.2, 52.2998)"/>
   <path style="fill:none;stroke:#000000; stroke-width:1.25; stroke-linecap:butt; stroke-linejoin:miter; stroke-dasharray:none;" d="M0 0 L3.35 0 " transform="translate(272.9, 55.6504)"/>
   <path style="fill:none;stroke:#000000; stroke-width:1.25; stroke-linecap:butt; stroke-linejoin:miter; stroke-dasharray:none;" d="M0 0 L0 3.3496 " transform="translate(274.55, 54)"/>
   <path style="fill:none;stroke:#000000; stroke-width:1.25; stroke-linecap:butt; stroke-linejoin:miter; stroke-dasharray:none;" d="M6.7 3.34961 C6.7 5.19922 5.2 6.69921 3.35 6.69921 C1.501 6.69921 0 5.19922 0 3.34961 C0 1.5 1.501 0 3.35 0 C5.2 0 6.7 1.5 6.7 3.34961 Z" transform="translate(314.6, 4.15039)"/>
   <path style="fill:none;stroke:#000000; stroke-width:1.25; stroke-linecap:butt; stroke-linejoin:miter; stroke-dasharray:none;" d="M0 0 L3.35 0 " transform="translate(316.25, 7.5)"/>
   <path style="fill:none;stroke:#000000; stroke-width:1.55; stroke-linecap:butt; stroke-linejoin:miter; stroke-dasharray:none;" d="M0 53.4 L0 0 " transform="translate(320, 124)"/>
   <path style="fill:#000000; fill-rule:nonzero;stroke:none;" d="M4 15.6 L7.95 0 C7.95 0 5.75 1.95 4 1.95 C2.25 1.95 0 0 0 0 L4 15.6 L4 15.6 " transform="translate(316, 175.4)"/>
   <path style="fill:#000000; fill-rule:evenodd;stroke:none;" d="M4.657 3.946 L4.657 7.243 L5.583 7.243 L5.583 0 L4.657 0 L4.657 3.129 L0.926 3.129 L0.926 0 L0 0 L0 7.243 L0.938 7.243 L0.938 3.946 L4.657 3.946 Z" transform="translate(265.23, 274.357)"/>
   <path style="fill:#000000; fill-rule:evenodd;stroke:none;" d="M5.668 0 L4.793 0 L4.793 5.922 L1.004 0 L0 0 L0 7.243 L0.875 7.243 L0.875 1.372 L4.625 7.243 L5.668 7.243 L5.668 0 Z" transform="translate(272.384, 274.357)"/>
   <path style="fill:#000000; fill-rule:nonzero;stroke:none;" d="M1.6 25.05 L0 25.05 L0 0 L1.6 1.3 L1.6 25.05 Z" transform="translate(275.2, 247.35)"/>
   <path style="fill:#000000; fill-rule:nonzero;stroke:none;" d="M30.45 0 L30.45 1.6 L0 1.6 L0.9 0 L30.45 0 Z" transform="translate(371.55, 263.2)"/>
   <path style="fill:#000000; fill-rule:evenodd;stroke:none;" d="M3.492 0 C1.41 0 0 1.528 0 3.793 C0 6.067 1.402 7.586 3.5 7.586 C4.387 7.586 5.164 7.321 5.75 6.825 C6.535 6.157 7.004 5.036 7.004 3.852 C7.004 1.52 5.621 0 3.492 0 Z M3.492 0.813 C5.062 0.813 6.078 1.997 6.078 3.832 C6.078 5.582 5.035 6.774 3.5 6.774 C1.949 6.774 0.926 5.582 0.926 3.793 C0.926 2.004 1.949 0.813 3.492 0.813 Z" transform="translate(361.129, 289.19)"/>
   <path style="fill:#000000; fill-rule:nonzero;stroke:none;" d="M1.5 24.2 L0 23.8 L6.35 0 L7.85 0.4 L1.5 24.2 Z" transform="translate(366.9, 263.8)"/>
   <path style="fill:#000000; fill-rule:nonzero;stroke:none;" d="M1.55 25.6 L0 25.2 L6.75 0 L8.25 0.4 L1.55 25.6 Z" transform="translate(363.1, 261.4)"/>
   <path style="fill:#000000; fill-rule:evenodd;stroke:none;" d="M3.492 0 C1.41 0 0 1.528 0 3.793 C0 6.067 1.402 7.586 3.5 7.586 C4.387 7.586 5.164 7.321 5.75 6.824 C6.535 6.156 7.004 5.035 7.004 3.852 C7.004 1.52 5.621 0 3.492 0 Z M3.492 0.813 C5.062 0.813 6.078 1.996 6.078 3.832 C6.078 5.582 5.035 6.774 3.5 6.774 C1.949 6.774 0.926 5.582 0.926 3.793 C0.926 2.004 1.949 0.813 3.492 0.813 Z" transform="translate(353.879, 234.24)"/>
   <path style="fill:#000000; fill-rule:nonzero;stroke:none;" d="M0 0.75 L1.35 0 L13.25 20.6 L12.35 22.2 L0 0.75 Z" transform="translate(359.2, 242.6)"/>
   <path style="fill:#000000; fill-rule:evenodd;stroke:none;" d="M3.492 0 C1.41 0 0 1.528 0 3.793 C0 6.067 1.402 7.586 3.5 7.586 C4.387 7.586 5.164 7.321 5.75 6.824 C6.535 6.156 7.004 5.035 7.004 3.852 C7.004 1.52 5.621 0 3.492 0 Z M3.492 0.813 C5.062 0.813 6.078 1.996 6.078 3.832 C6.078 5.582 5.035 6.774 3.5 6.774 C1.949 6.774 0.926 5.582 0.926 3.793 C0.926 2.004 1.949 0.813 3.492 0.813 Z" transform="translate(323.879, 234.24)"/>
   <path style="fill:#000000; fill-rule:nonzero;stroke:none;" d="M0 1.55 L0 0 L19.05 0 L19.05 1.55 L0 1.55 Z" transform="translate(332.45, 237.25)"/>
   <path style="fill:#000000; fill-rule:evenodd;stroke:none;" d="M4.656 3.945 L4.656 7.242 L5.582 7.242 L5.582 0 L4.656 0 L4.656 3.129 L0.926 3.129 L0.926 0 L0 0 L0 7.242 L0.937 7.242 L0.937 3.945 L4.656 3.945 Z" transform="translate(295.174, 295.558)"/>
   <path style="fill:#000000; fill-rule:nonzero;stroke:none;" d="M13.85 12.75 L12.75 13.85 L0 1.1 L1.1 0 L13.85 12.75 Z" transform="translate(279.25, 281.25)"/>
   <path style="fill:#000000; fill-rule:nonzero;stroke:none;" d="M1.6 10.35 L0 9.05 L46.2 0 L46.5 1.55 L1.6 10.35 Z" transform="translate(275.2, 238.3)"/>
   <path style="fill:#000000; fill-rule:evenodd;stroke:none;" d="M0.097 9.5039 L3.976 9.5039 L3.976 9.293 C2.867 9.2773 2.64 9.1367 2.64 8.4648 L2.64 0.0273 L2.527 0 L0 1.2773 L0 1.4766 C0.167 1.4062 0.32 1.3477 0.378 1.3203 C0.632 1.2227 0.871 1.168 1.011 1.168 C1.304 1.168 1.433 1.3789 1.433 1.8281 L1.433 8.1953 C1.433 8.6602 1.32 8.9844 1.093 9.1094 C0.882 9.2383 0.687 9.2773 0.097 9.293 L0.097 9.5039 Z" transform="translate(129.563, 14.9961)"/>
   <path style="fill:#000000; fill-rule:evenodd;stroke:none;" d="M6.258 7.5781 L6.074 7.5078 C5.555 8.3086 5.371 8.4336 4.738 8.4336 L1.379 8.4336 L3.738 5.9609 C4.992 4.6523 5.539 3.5859 5.539 2.4727 C5.539 1.082 4.402 0 2.937 0 C2.164 0 1.433 0.3086 0.914 0.8711 C0.465 1.3477 0.254 1.8008 0.016 2.7969 L0.308 2.8672 C0.871 1.4883 1.363 1.0391 2.348 1.0391 C3.543 1.0391 4.332 1.8398 4.332 3.0234 C4.332 4.1328 3.683 5.4258 2.504 6.6797 L0 9.3359 L0 9.5039 L5.484 9.5039 L6.258 7.5781 Z" transform="translate(194.422, 15.0459)"/>
   <path style="fill:#000000; fill-rule:evenodd;stroke:none;" d="M3.472 0 C2.429 0.6758 2.008 1.0391 1.488 1.6875 C0.492 2.9102 0 4.3164 0 5.9609 C0 7.7617 0.519 9.125 1.758 10.5586 C2.332 11.2344 2.699 11.543 3.429 11.9922 L3.597 11.7656 C2.472 10.8828 2.078 10.375 1.699 9.3359 C1.363 8.3945 1.207 7.3398 1.207 5.918 C1.207 4.4414 1.39 3.2734 1.769 2.418 C2.164 1.5469 2.586 1.0391 3.597 0.2227 L3.472 0 Z" transform="translate(205.176, 15.0459)"/>
   <path style="fill:#000000; fill-rule:evenodd;stroke:none;" d="M6.118 9.043 C4.965 8.9844 4.766 8.8008 4.766 7.7774 L4.766 0.5899 L5.528 0.5899 C7.129 0.5899 7.438 0.8438 7.762 2.3906 L8.098 2.3906 L8.016 0 L0.086 0 L0 2.3906 L0.34 2.3906 C0.676 0.8594 1 0.5899 2.575 0.5899 L3.332 0.5899 L3.332 7.6211 C3.332 8.8164 3.18 8.9727 2.012 9.043 L2.012 9.3086 L6.118 9.3086 L6.118 9.043 Z" transform="translate(209.399, 15.2412)"/>
   <path style="fill:#000000; fill-rule:evenodd;stroke:none;" d="M5.695 0 L5.398 0 C5.343 0.3086 5.187 0.4766 4.949 0.4766 C4.808 0.4766 4.57 0.4219 4.332 0.3086 C3.812 0.1133 3.289 0 2.828 0 C2.234 0 1.617 0.2383 1.152 0.6445 C0.66 1.082 0.41 1.6719 0.41 2.4023 C0.41 3.5273 1.027 4.3164 2.601 5.1445 C3.613 5.6953 4.343 6.2578 4.695 6.7891 C4.824 6.9727 4.894 7.2695 4.894 7.6211 C4.894 8.5469 4.191 9.1953 3.164 9.1953 C1.898 9.1953 1.027 8.4219 0.324 6.707 L0 6.707 L0.422 9.6875 L0.73 9.6875 C0.746 9.418 0.914 9.2227 1.125 9.2227 C1.281 9.2227 1.519 9.2773 1.785 9.3789 C2.32 9.5898 2.898 9.6992 3.445 9.6992 C5.078 9.6992 6.312 8.5898 6.312 7.1406 C6.312 5.9883 5.539 5.0742 3.683 4.0625 C2.207 3.2617 1.617 2.6445 1.617 1.8711 C1.617 1.0977 2.207 0.5742 3.078 0.5742 C3.711 0.5742 4.304 0.8437 4.797 1.3477 C5.23 1.8008 5.429 2.1641 5.652 2.9922 L6.004 2.9922 L5.695 0 Z" transform="translate(218.305, 15.0459)"/>
   <path style="fill:#000000; fill-rule:evenodd;stroke:none;" d="M0.129 11.9922 C1.168 11.3047 1.59 10.9531 2.11 10.3047 C3.11 9.082 3.602 7.6758 3.602 6.0312 C3.602 4.2305 3.082 2.8672 1.844 1.4336 C1.266 0.7578 0.903 0.4492 0.172 0 L0 0.2227 C1.125 1.1094 1.508 1.6016 1.899 2.6562 C2.239 3.5977 2.391 4.6523 2.391 6.0742 C2.391 7.5508 2.207 8.7031 1.828 9.5586 C1.45 10.4336 1.016 10.9531 0 11.7656 L0.129 11.9922 Z" transform="translate(225.904, 15.0459)"/>
   <path style="fill:#000000; fill-rule:evenodd;stroke:none;" d="M1.547 4.8633 C2.375 4.8633 2.699 4.8906 3.023 5.0195 C3.906 5.3437 4.441 6.1289 4.441 7.1016 C4.441 8.293 3.656 9.1953 2.613 9.1953 C2.219 9.1953 1.937 9.0976 1.418 8.7578 C1.012 8.5039 0.773 8.4062 0.535 8.4062 C0.211 8.4062 0 8.6055 0 8.8984 C0 9.3906 0.605 9.6992 1.59 9.6992 C2.656 9.6992 3.765 9.3359 4.441 8.7578 C5.101 8.1836 5.453 7.3672 5.453 6.4258 C5.453 5.6953 5.23 5.0469 4.836 4.6094 C4.539 4.3008 4.273 4.1328 3.668 3.8672 C4.625 3.2031 4.976 2.6836 4.976 1.9258 C4.976 0.7734 4.09 0 2.781 0 C2.078 0 1.461 0.2383 0.957 0.6875 C0.535 1.082 0.324 1.4336 0.027 2.2773 L0.238 2.332 C0.801 1.293 1.433 0.8437 2.32 0.8437 C3.246 0.8437 3.867 1.4492 3.867 2.3476 C3.867 2.8555 3.656 3.3437 3.305 3.7109 C2.883 4.1328 2.488 4.3437 1.531 4.6797 L1.547 4.8633 Z" transform="translate(398.256, 14.9463)"/>
   <path style="fill:#000000; fill-rule:evenodd;stroke:none;" d="M6.469 6.258 L5.035 6.258 L5.035 0 L4.414 0 L0 6.258 L0 7.156 L3.953 7.156 L3.953 9.504 L5.035 9.504 L5.035 7.156 L6.469 7.156 L6.469 6.258 Z M3.937 6.258 L0.562 6.258 L3.937 1.434 L3.937 6.258 Z" transform="translate(372.168, 153.496)"/>
   <path style="fill:#000000; fill-rule:evenodd;stroke:none;" d="M3.472 0 C2.429 0.676 2.008 1.039 1.488 1.688 C0.492 2.91 0 4.317 0 5.961 C0 7.762 0.519 9.125 1.758 10.559 C2.332 11.234 2.699 11.543 3.429 11.992 L3.597 11.766 C2.472 10.883 2.078 10.375 1.699 9.336 C1.363 8.395 1.207 7.34 1.207 5.918 C1.207 4.442 1.39 3.274 1.769 2.418 C2.164 1.547 2.586 1.039 3.597 0.223 L3.472 0 Z" transform="translate(383.176, 153.496)"/>
   <path style="fill:#000000; fill-rule:evenodd;stroke:none;" d="M6.118 9.043 C4.965 8.985 4.766 8.801 4.766 7.778 L4.766 0.59 L5.528 0.59 C7.129 0.59 7.438 0.844 7.762 2.391 L8.098 2.391 L8.016 0 L0.086 0 L0 2.391 L0.34 2.391 C0.676 0.86 1 0.59 2.575 0.59 L3.332 0.59 L3.332 7.622 C3.332 8.817 3.18 8.973 2.012 9.043 L2.012 9.309 L6.118 9.309 L6.118 9.043 Z" transform="translate(387.399, 153.691)"/>
   <path style="fill:#000000; fill-rule:evenodd;stroke:none;" d="M5.695 0 L5.398 0 C5.343 0.309 5.187 0.477 4.949 0.477 C4.808 0.477 4.57 0.422 4.332 0.309 C3.812 0.113 3.289 0 2.828 0 C2.234 0 1.617 0.238 1.152 0.645 C0.66 1.082 0.41 1.672 0.41 2.402 C0.41 3.527 1.027 4.317 2.601 5.145 C3.613 5.695 4.343 6.258 4.695 6.789 C4.824 6.973 4.894 7.27 4.894 7.621 C4.894 8.547 4.191 9.195 3.164 9.195 C1.898 9.195 1.027 8.422 0.324 6.707 L0 6.707 L0.422 9.688 L0.73 9.688 C0.746 9.418 0.914 9.223 1.125 9.223 C1.281 9.223 1.519 9.277 1.785 9.379 C2.32 9.59 2.898 9.699 3.445 9.699 C5.078 9.699 6.312 8.59 6.312 7.141 C6.312 5.988 5.539 5.074 3.683 4.063 C2.207 3.262 1.617 2.645 1.617 1.871 C1.617 1.098 2.207 0.574 3.078 0.574 C3.711 0.574 4.304 0.844 4.797 1.348 C5.23 1.801 5.429 2.164 5.652 2.992 L6.004 2.992 L5.695 0 Z" transform="translate(396.305, 153.496)"/>
   <path style="fill:#000000; fill-rule:evenodd;stroke:none;" d="M0.129 11.992 C1.168 11.305 1.59 10.953 2.11 10.305 C3.11 9.082 3.602 7.676 3.602 6.031 C3.602 4.231 3.082 2.867 1.844 1.434 C1.266 0.758 0.903 0.449 0.172 0 L0 0.223 C1.125 1.109 1.508 1.602 1.899 2.656 C2.239 3.598 2.391 4.652 2.391 6.074 C2.391 7.551 2.207 8.703 1.828 9.559 C1.45 10.434 1.016 10.953 0 11.766 L0.129 11.992 Z" transform="translate(403.904, 153.496)"/>
   <path style="fill:none;stroke:#000000; stroke-width:1.55; stroke-linecap:butt; stroke-linejoin:miter; stroke-dasharray:none;" d="M0 0 L65.4 0 " transform="translate(189.6, 263)"/>
   <path style="fill:#000000; fill-rule:nonzero;stroke:none;" d="M0 4 L15.6 7.95 C15.6 7.95 13.65 5.75 13.65 4 C13.65 2.25 15.6 0 15.6 0 L0 4 L0 4 " transform="translate(176, 259)"/>
   <path style="fill:#000000; fill-rule:evenodd;stroke:none;" d="M5.793 0 C4.191 0.141 3.375 0.407 2.347 1.125 C0.832 2.207 0 3.809 0 5.696 C0 6.918 0.382 8.157 0.984 8.86 C1.519 9.477 2.277 9.813 3.152 9.813 C4.894 9.813 6.105 8.477 6.105 6.539 C6.105 4.723 5.089 3.598 3.445 3.598 C2.828 3.598 2.546 3.7 1.66 4.231 C2.039 2.11 3.613 0.59 5.824 0.227 L5.793 0 Z M2.925 4.247 C4.148 4.247 4.839 5.258 4.839 7.016 C4.839 8.563 4.289 9.422 3.304 9.422 C2.066 9.422 1.308 8.098 1.308 5.918 C1.308 5.204 1.421 4.809 1.703 4.598 C1.996 4.372 2.433 4.247 2.925 4.247 Z" transform="translate(194.477, 230.482)"/>
   <path style="fill:#000000; fill-rule:evenodd;stroke:none;" d="M3.472 0 C2.429 0.675 2.008 1.039 1.488 1.687 C0.492 2.91 0 4.316 0 5.961 C0 7.761 0.519 9.125 1.758 10.558 C2.332 11.234 2.699 11.543 3.429 11.992 L3.597 11.765 C2.472 10.883 2.078 10.375 1.699 9.336 C1.363 8.394 1.207 7.34 1.207 5.918 C1.207 4.441 1.39 3.273 1.769 2.418 C2.164 1.547 2.586 1.039 3.597 0.222 L3.472 0 Z" transform="translate(205.176, 230.596)"/>
   <path style="fill:#000000; fill-rule:evenodd;stroke:none;" d="M6.118 9.043 C4.965 8.984 4.766 8.801 4.766 7.777 L4.766 0.59 L5.528 0.59 C7.129 0.59 7.438 0.844 7.762 2.391 L8.098 2.391 L8.016 0 L0.086 0 L0 2.391 L0.34 2.391 C0.676 0.859 1 0.59 2.575 0.59 L3.332 0.59 L3.332 7.621 C3.332 8.816 3.18 8.973 2.012 9.043 L2.012 9.309 L6.118 9.309 L6.118 9.043 Z" transform="translate(209.399, 230.791)"/>
   <path style="fill:#000000; fill-rule:evenodd;stroke:none;" d="M5.695 0 L5.398 0 C5.343 0.308 5.187 0.476 4.949 0.476 C4.808 0.476 4.57 0.422 4.332 0.308 C3.812 0.113 3.289 0 2.828 0 C2.234 0 1.617 0.238 1.152 0.644 C0.66 1.082 0.41 1.672 0.41 2.402 C0.41 3.527 1.027 4.316 2.601 5.144 C3.613 5.695 4.343 6.258 4.695 6.789 C4.824 6.972 4.894 7.269 4.894 7.621 C4.894 8.547 4.191 9.195 3.164 9.195 C1.898 9.195 1.027 8.422 0.324 6.707 L0 6.707 L0.422 9.687 L0.73 9.687 C0.746 9.418 0.914 9.222 1.125 9.222 C1.281 9.222 1.519 9.277 1.785 9.379 C2.32 9.59 2.898 9.699 3.445 9.699 C5.078 9.699 6.312 8.59 6.312 7.14 C6.312 5.988 5.539 5.074 3.683 4.062 C2.207 3.261 1.617 2.644 1.617 1.871 C1.617 1.097 2.207 0.574 3.078 0.574 C3.711 0.574 4.304 0.843 4.797 1.347 C5.23 1.8 5.429 2.164 5.652 2.992 L6.004 2.992 L5.695 0 Z" transform="translate(218.305, 230.596)"/>
   <path style="fill:#000000; fill-rule:evenodd;stroke:none;" d="M0.129 11.992 C1.168 11.304 1.59 10.953 2.11 10.304 C3.11 9.082 3.602 7.675 3.602 6.031 C3.602 4.23 3.082 2.867 1.844 1.433 C1.266 0.758 0.903 0.449 0.172 0 L0 0.222 C1.125 1.109 1.508 1.601 1.899 2.656 C2.239 3.597 2.391 4.652 2.391 6.074 C2.391 7.55 2.207 8.703 1.828 9.558 C1.45 10.433 1.016 10.953 0 11.765 L0.129 11.992 Z" transform="translate(225.904, 230.596)"/>
   <path style="fill:#000000; fill-rule:evenodd;stroke:none;" d="M2.093 1.476 L4.851 1.476 C5.078 1.476 5.132 1.445 5.175 1.347 L5.711 0.097 L5.582 0 C5.359 0.292 5.23 0.363 4.937 0.363 L1.996 0.363 L0.464 3.695 C0.449 3.722 0.449 3.738 0.449 3.765 C0.449 3.851 0.507 3.878 0.621 3.878 C1.07 3.878 1.617 3.976 2.207 4.16 C3.824 4.679 4.554 5.539 4.554 6.945 C4.554 8.292 3.711 9.347 2.601 9.347 C2.32 9.347 2.093 9.25 1.675 8.941 C1.222 8.601 0.914 8.476 0.589 8.476 C0.199 8.476 0 8.644 0 8.996 C0 9.531 0.648 9.867 1.714 9.867 C2.882 9.867 3.894 9.488 4.613 8.773 C5.246 8.14 5.539 7.339 5.539 6.269 C5.539 5.257 5.273 4.609 4.586 3.906 C3.964 3.289 3.164 2.964 1.504 2.671 L2.093 1.476 Z" transform="translate(398.1, 230.229)"/>
   <path style="fill:#000000; fill-rule:evenodd;stroke:none;" d="M4.6562 3.946 L4.6562 7.243 L5.582 7.243 L5.582 0 L4.6562 0 L4.6562 3.129 L0.9258 3.129 L0.9258 0 L0 0 L0 7.243 L0.9375 7.243 L0.9375 3.946 L4.6562 3.946 Z" transform="translate(15.2305, 264.357)"/>
   <path style="fill:#000000; fill-rule:evenodd;stroke:none;" d="M5.668 0 L4.793 0 L4.793 5.922 L1.0039 0 L0 0 L0 7.243 L0.875 7.243 L0.875 1.372 L4.625 7.243 L5.668 7.243 L5.668 0 Z" transform="translate(22.3838, 264.357)"/>
   <path style="fill:#000000; fill-rule:evenodd;stroke:none;" d="M3.4922 0 C1.4102 0 0 1.528 0 3.793 C0 6.067 1.4024 7.586 3.5 7.586 C4.3867 7.586 5.1641 7.321 5.75 6.824 C6.5352 6.156 7.0039 5.035 7.0039 3.852 C7.0039 1.52 5.6211 0 3.4922 0 Z M3.4922 0.813 C5.0625 0.813 6.0781 1.996 6.0781 3.832 C6.0781 5.582 5.0352 6.774 3.5 6.774 C1.9492 6.774 0.9258 5.582 0.9258 3.793 C0.9258 2.004 1.9492 0.813 3.4922 0.813 Z" transform="translate(48.8789, 249.24)"/>
   <path style="fill:#000000; fill-rule:nonzero;stroke:none;" d="M1.5996 25.75 L0 25.75 L0 0 L1.5996 2.7 L1.5996 25.75 Z" transform="translate(25.2002, 236.65)"/>
   <path style="fill:#000000; fill-rule:nonzero;stroke:none;" d="M16.8506 0 L17.6006 1.35 L0.75 11.1 L0 9.75 L16.8506 0 Z" transform="translate(29.8496, 255.15)"/>
   <path style="fill:#000000; fill-rule:nonzero;stroke:none;" d="M1.5996 2.7 L0 0 L22.25 12.85 L21.4502 14.2 L1.5996 2.7 Z" transform="translate(25.2002, 236.65)"/>
   <path style="fill:#000000; fill-rule:nonzero;stroke:none;" d="M30 0 L30 1.6 L0.6 1.6 L0 0.8 L0.45 0 L30 0 Z" transform="translate(124, 254.2)"/>
   <path style="fill:#000000; fill-rule:evenodd;stroke:none;" d="M3.492 0 C1.41 0 0 1.528 0 3.793 C0 6.067 1.402 7.586 3.5 7.586 C4.387 7.586 5.164 7.321 5.75 6.825 C6.535 6.157 7.004 5.036 7.004 3.852 C7.004 1.52 5.621 0 3.492 0 Z M3.492 0.813 C5.062 0.813 6.078 1.997 6.078 3.832 C6.078 5.582 5.035 6.774 3.5 6.774 C1.949 6.774 0.926 5.582 0.926 3.793 C0.926 2.004 1.949 0.813 3.492 0.813 Z" transform="translate(113.129, 280.19)"/>
   <path style="fill:#000000; fill-rule:nonzero;stroke:none;" d="M1.5 23.5 L0 23.1 L6.15 0.1 L7 0 L7.6 0.8 L1.5 23.5 Z" transform="translate(117, 255)"/>
   <path style="fill:#000000; fill-rule:nonzero;stroke:none;" d="M1.5 22.15 L0 21.75 L5.8 0 L7.3 0.4 L1.5 22.15 Z" transform="translate(113.25, 255.35)"/>
   <path style="fill:#000000; fill-rule:evenodd;stroke:none;" d="M3.492 0 C1.41 0 0 1.528 0 3.793 C0 6.067 1.402 7.586 3.5 7.586 C4.387 7.586 5.164 7.321 5.75 6.824 C6.535 6.156 7.004 5.035 7.004 3.852 C7.004 1.52 5.621 0 3.492 0 Z M3.492 0.813 C5.062 0.813 6.078 1.996 6.078 3.832 C6.078 5.582 5.035 6.774 3.5 6.774 C1.949 6.774 0.926 5.582 0.926 3.793 C0.926 2.004 1.949 0.813 3.492 0.813 Z" transform="translate(105.879, 225.24)"/>
   <path style="fill:#000000; fill-rule:nonzero;stroke:none;" d="M0 0.75 L1.35 0 L13.25 20.6 L12.8 21.4 L11.95 21.5 L0 0.75 Z" transform="translate(111.2, 233.6)"/>
   <path style="fill:#000000; fill-rule:evenodd;stroke:none;" d="M4.6563 3.946 L4.6563 7.243 L5.582 7.243 L5.582 0 L4.6563 0 L4.6563 3.129 L0.9258 3.129 L0.9258 0 L0 0 L0 7.243 L0.9375 7.243 L0.9375 3.946 L4.6563 3.946 Z" transform="translate(76.9746, 225.357)"/>
   <path style="fill:#000000; fill-rule:nonzero;stroke:none;" d="M0 1.55 L0 0 L19.75 0 L19.75 1.55 L0 1.55 Z" transform="translate(83.75, 228.25)"/>
   <path style="fill:#000000; fill-rule:evenodd;stroke:none;" d="M3.4922 0 C1.4102 0 0 1.5274 0 3.793 C0 6.0664 1.4024 7.586 3.5 7.586 C4.3867 7.586 5.1641 7.3203 5.75 6.8243 C6.5352 6.1563 7.0039 5.0352 7.0039 3.8516 C7.0039 1.5196 5.6211 0 3.4922 0 Z M3.4922 0.8125 C5.0625 0.8125 6.0781 1.9961 6.0781 3.8321 C6.0781 5.5821 5.0352 6.7735 3.5 6.7735 C1.9492 6.7735 0.9258 5.5821 0.9258 3.793 C0.9258 2.0039 1.9492 0.8125 3.4922 0.8125 Z" transform="translate(46.8789, 63.2402)"/>
   <path style="fill:#000000; fill-rule:nonzero;stroke:none;" d="M1.5996 2.6504 L0 2.6504 L0 0 L1.5996 0 L1.5996 2.6504 Z" transform="translate(49.2002, 58.5)"/>
   <path style="fill:#000000; fill-rule:nonzero;stroke:none;" d="M1.5996 2.6494 L0 2.6494 L0 0 L1.5996 0 L1.5996 2.6494 Z" transform="translate(49.2002, 53.2002)"/>
   <path style="fill:#000000; fill-rule:nonzero;stroke:none;" d="M1.5996 2.6504 L0 2.6504 L0 0 L1.5996 0 L1.5996 2.6504 Z" transform="translate(49.2002, 47.8496)"/>
   <path style="fill:#000000; fill-rule:nonzero;stroke:none;" d="M1.5996 2.6504 L0 2.6504 L0 0 L1.5996 0 L1.5996 2.6504 Z" transform="translate(49.2002, 42.5498)"/>
   <path style="fill:#000000; fill-rule:evenodd;stroke:none;" d="M4.6563 3.9453 L4.6563 7.2422 L5.582 7.2422 L5.582 0 L4.6563 0 L4.6563 3.1289 L0.9258 3.1289 L0.9258 0 L0 0 L0 7.2422 L0.9375 7.2422 L0.9375 3.9453 L4.6563 3.9453 Z" transform="translate(19.0244, 71.1074)"/>
   <path style="fill:#000000; fill-rule:nonzero;stroke:none;" d="M0.4502 6.3496 L0 4.8496 L18.2002 0 L18.5996 1.5 L0.4502 6.3496 Z" transform="translate(26.2002, 67.7002)"/>
   <path style="fill:#000000; fill-rule:evenodd;stroke:none;" d="M4.6563 3.9453 L4.6563 7.2422 L5.5821 7.2422 L5.5821 0 L4.6563 0 L4.6563 3.1289 L0.9258 3.1289 L0.9258 0 L0 0 L0 7.2422 L0.9375 7.2422 L0.9375 3.9453 L4.6563 3.9453 Z" transform="translate(69.1738, 84.5576)"/>
   <path style="fill:#000000; fill-rule:nonzero;stroke:none;" d="M13.6494 12.5498 L12.5498 13.6494 L0 1.0996 L1.0996 0 L13.6494 12.5498 Z" transform="translate(53.4502, 70.4502)"/>
   <path style="fill:#000000; fill-rule:nonzero;stroke:none;" d="M0 0.4502 L1.5 0 L2.1992 2.4502 L0.6992 2.9004 L0 0.4502 Z" transform="translate(14.9004, 56.2998)"/>
   <path style="fill:#000000; fill-rule:nonzero;stroke:none;" d="M0 0.4502 L1.4502 0 L2.2002 2.4502 L0.7002 2.8994 L0 0.4502 Z" transform="translate(16.3496, 61.2002)"/>
   <path style="fill:#000000; fill-rule:nonzero;stroke:none;" d="M0 0.4502 L1.4502 0 L2.2002 2.4502 L0.7002 2.9004 L0 0.4502 Z" transform="translate(17.7998, 66.0996)"/>
   <path style="fill:#000000; fill-rule:evenodd;stroke:none;" d="M6.032 0 L0.828 0 L0 2.066 L0.239 2.179 C0.844 1.222 1.098 1.043 1.871 1.043 L4.922 1.043 L2.137 9.422 L3.051 9.422 L6.032 0.226 L6.032 0 Z" transform="translate(128.281, 230.592)"/>
   <path style="fill:#000000; fill-rule:evenodd;stroke:none;" d="M4.656 3.9453 L4.656 7.2422 L5.582 7.2422 L5.582 0 L4.656 0 L4.656 3.1289 L0.925 3.1289 L0.925 0 L0 0 L0 7.2422 L0.937 7.2422 L0.937 3.9453 L4.656 3.9453 Z" transform="translate(311.975, 45.3574)"/>
   <path style="fill:#000000; fill-rule:nonzero;stroke:none;" d="M1.6 2.6504 L0 2.6504 L0 0 L1.6 0 L1.6 2.6504 Z" transform="translate(313.2, 40.75)"/>
   <path style="fill:#000000; fill-rule:nonzero;stroke:none;" d="M1.6 2.6992 L0 2.6992 L0 0 L1.6 0 L1.6 2.6992 Z" transform="translate(313.2, 35.4004)"/>
   <path style="fill:#000000; fill-rule:nonzero;stroke:none;" d="M1.6 2.7002 L0 2.7002 L0 0 L1.6 0 L1.6 2.7002 Z" transform="translate(313.2, 30.0498)"/>
   <path style="fill:#000000; fill-rule:nonzero;stroke:none;" d="M1.6 2.6504 L0 2.6504 L0 0 L1.6 0 L1.6 2.6504 Z" transform="translate(313.2, 24.75)"/>
   <path style="fill:#000000; fill-rule:evenodd;stroke:none;" d="M3.492 0 C1.41 0 0 1.5274 0 3.793 C0 6.0664 1.402 7.586 3.5 7.586 C4.387 7.586 5.164 7.3203 5.75 6.8243 C6.535 6.1563 7.004 5.0352 7.004 3.8516 C7.004 1.5196 5.621 0 3.492 0 Z M3.492 0.8125 C5.062 0.8125 6.078 1.9961 6.078 3.8321 C6.078 5.5821 5.035 6.7735 3.5 6.7735 C1.949 6.7735 0.926 5.5821 0.926 3.793 C0.926 2.0039 1.949 0.8125 3.492 0.8125 Z" transform="translate(310.879, 75.2402)"/>
   <path style="fill:#000000; fill-rule:nonzero;stroke:none;" d="M1.6 18.6504 L0 18.6504 L0 0 L1.6 0 L1.6 18.6504 Z" transform="translate(313.2, 54.5498)"/>
   <path style="fill:#000000; fill-rule:evenodd;stroke:none;" d="M4.656 3.9453 L4.656 7.2422 L5.582 7.2422 L5.582 0 L4.656 0 L4.656 3.1289 L0.925 3.1289 L0.925 0 L0 0 L0 7.2422 L0.937 7.2422 L0.937 3.9453 L4.656 3.9453 Z" transform="translate(335.975, 92.3574)"/>
   <path style="fill:#000000; fill-rule:nonzero;stroke:none;" d="M0 1.3008 L0.9 0 L15.1 10.0508 L14.2 11.3506 L0 1.3008 Z" transform="translate(318.1, 81.5996)"/>
   <path style="fill:#000000; fill-rule:nonzero;stroke:none;" d="M0.05 1.6494 L0 0.0996 L2.75 0 L2.85 1.5498 L0.05 1.6494 Z" transform="translate(288.95, 79.1504)"/>
   <path style="fill:#000000; fill-rule:nonzero;stroke:none;" d="M0.1 1.6992 L0 0.0996 L2.8 0 L2.85 1.5498 L0.1 1.6992 Z" transform="translate(294.5, 78.9004)"/>
   <path style="fill:#000000; fill-rule:nonzero;stroke:none;" d="M0.05 1.6494 L0 0.0996 L2.8 0 L2.85 1.5498 L0.05 1.6494 Z" transform="translate(300.1, 78.7002)"/>
   <path style="fill:#000000; fill-rule:nonzero;stroke:none;" d="M0.05 1.7002 L0 0.0996 L2.8 0 L2.85 1.5498 L0.05 1.7002 Z" transform="translate(305.7, 78.4502)"/>
   <path style="fill:#000000; fill-rule:evenodd;stroke:none;" d="M3.492 0 C1.41 0 0 1.528 0 3.793 C0 6.067 1.402 7.586 3.5 7.586 C4.387 7.586 5.164 7.321 5.75 6.825 C6.535 6.157 7.004 5.036 7.004 3.852 C7.004 1.52 5.621 0 3.492 0 Z M3.492 0.813 C5.063 0.813 6.078 1.997 6.078 3.832 C6.078 5.582 5.035 6.774 3.5 6.774 C1.949 6.774 0.926 5.582 0.926 3.793 C0.926 2.004 1.949 0.813 3.492 0.813 Z" transform="translate(326.829, 326.19)"/>
   <path style="fill:#000000; fill-rule:evenodd;stroke:none;" d="M4.657 3.946 L4.657 7.243 L5.582 7.243 L5.582 0 L4.657 0 L4.657 3.129 L0.926 3.129 L0.926 0 L0 0 L0 7.243 L0.938 7.243 L0.938 3.946 L4.657 3.946 Z" transform="translate(327.274, 336.357)"/>
   <path style="fill:#000000; fill-rule:nonzero;stroke:none;" d="M2.9 1.7 L1.8 2.85 L0 1.1 L1.05 0 L2.9 1.7 Z" transform="translate(323.35, 323.7)"/>
   <path style="fill:#000000; fill-rule:nonzero;stroke:none;" d="M2.9 1.7 L1.8 2.85 L0 1.15 L1.05 0 L2.9 1.7 Z" transform="translate(319.7, 320.25)"/>
   <path style="fill:#000000; fill-rule:nonzero;stroke:none;" d="M2.9 1.75 L1.85 2.85 L0 1.15 L1.1 0 L2.9 1.75 Z" transform="translate(316, 316.8)"/>
   <path style="fill:#000000; fill-rule:nonzero;stroke:none;" d="M2.9 1.75 L1.85 2.85 L0 1.15 L1.05 0 L2.9 1.75 Z" transform="translate(312.35, 313.35)"/>
   <path style="fill:#000000; fill-rule:nonzero;stroke:none;" d="M2.9 1.7 L1.8 2.85 L0 1.1 L1.05 0 L2.9 1.7 Z" transform="translate(308.7, 309.95)"/>
   <path style="fill:#000000; fill-rule:nonzero;stroke:none;" d="M2.9 1.7 L1.8 2.85 L0 1.15 L1.05 0 L2.9 1.7 Z" transform="translate(305.05, 306.5)"/>
   <path style="fill:#000000; fill-rule:nonzero;stroke:none;" d="M2.9 1.7 L1.85 2.85 L0 1.15 L1.1 0 L2.9 1.7 Z" transform="translate(301.35, 303.05)"/>
   <path style="fill:#000000; fill-rule:evenodd;stroke:none;" d="M4.656 3.945 L4.656 7.242 L5.582 7.242 L5.582 0 L4.656 0 L4.656 3.129 L0.926 3.129 L0.926 0 L0 0 L0 7.242 L0.938 7.242 L0.938 3.945 L4.656 3.945 Z" transform="translate(356.874, 318.508)"/>
   <path style="fill:#000000; fill-rule:nonzero;stroke:none;" d="M18.1 0 L18.5 1.5 L0.4 6.35 L0 4.85 L18.1 0 Z" transform="translate(335.15, 322.9)"/>
   <path style="fill:#000000; fill-rule:nonzero;stroke:none;" d="M1.5 2.8 L0 2.5 L0.45 0 L1.95 0.25 L1.5 2.8 Z" transform="translate(359.25, 313.6)"/>
   <path style="fill:#000000; fill-rule:nonzero;stroke:none;" d="M1.55 2.8 L0 2.5 L0.45 0 L2 0.3 L1.55 2.8 Z" transform="translate(360.15, 308.55)"/>
   <path style="fill:#000000; fill-rule:nonzero;stroke:none;" d="M1.55 2.75 L0 2.5 L0.45 0 L2 0.25 L1.55 2.75 Z" transform="translate(361.05, 303.55)"/>
   <path style="fill:#000000; fill-rule:nonzero;stroke:none;" d="M1.5 2.8 L0 2.5 L0.45 0 L1.95 0.3 L1.5 2.8 Z" transform="translate(362, 298.5)"/>
   <path style="fill:#ff0000; fill-rule:evenodd;stroke:none;" d="M3.234 0 C2.461 0 1.871 0.2227 1.352 0.7305 C0.535 1.5195 0 3.1328 0 4.7813 C0 6.3281 0.465 7.957 1.125 8.7461 C1.648 9.3633 2.363 9.6992 3.18 9.6992 C3.894 9.6992 4.5 9.4609 5.008 8.9688 C5.824 8.1953 6.355 6.5664 6.355 4.8633 C6.355 1.9805 5.078 0 3.234 0 Z M3.191 0.3633 C4.375 0.3633 5.008 1.9531 5.008 4.8906 C5.008 7.832 4.387 9.3359 3.18 9.3359 C1.969 9.3359 1.352 7.832 1.352 4.9063 C1.352 1.9102 1.984 0.3633 3.191 0.3633 Z" transform="translate(124.336, 60.3457)"/>
   <path style="fill:#ff0000; fill-rule:evenodd;stroke:none;" d="M0.774 0 C0.352 0 0 0.3515 0 0.8007 C0 1.2109 0.352 1.5625 0.758 1.5625 C1.196 1.5625 1.559 1.2226 1.559 0.8007 C1.559 0.3671 1.196 0 0.774 0 Z" transform="translate(131.984, 68.4434)"/>
   <path style="fill:#ff0000; fill-rule:evenodd;stroke:none;" d="M3.234 0 C2.461 0 1.871 0.2227 1.352 0.7305 C0.535 1.5195 0 3.1328 0 4.7813 C0 6.3281 0.465 7.957 1.125 8.7461 C1.648 9.3633 2.363 9.6992 3.18 9.6992 C3.894 9.6992 4.5 9.4609 5.008 8.9688 C5.824 8.1953 6.355 6.5664 6.355 4.8633 C6.355 1.9805 5.078 0 3.234 0 Z M3.191 0.3633 C4.375 0.3633 5.008 1.9531 5.008 4.8906 C5.008 7.832 4.387 9.3359 3.18 9.3359 C1.969 9.3359 1.352 7.832 1.352 4.9063 C1.352 1.9102 1.984 0.3633 3.191 0.3633 Z" transform="translate(134.836, 60.3457)"/>
   <path style="fill:#ff0000; fill-rule:evenodd;stroke:none;" d="M0.097 9.5039 L3.976 9.5039 L3.976 9.293 C2.867 9.2773 2.64 9.1367 2.64 8.4648 L2.64 0.0273 L2.527 0 L0 1.2773 L0 1.4766 C0.167 1.4062 0.32 1.3477 0.378 1.3203 C0.632 1.2227 0.871 1.168 1.011 1.168 C1.304 1.168 1.433 1.3789 1.433 1.8281 L1.433 8.1953 C1.433 8.6602 1.32 8.9844 1.093 9.1094 C0.882 9.2383 0.687 9.2773 0.097 9.293 L0.097 9.5039 Z" transform="translate(194.563, 60.4961)"/>
   <path style="fill:#ff0000; fill-rule:evenodd;stroke:none;" d="M1.547 4.8633 C2.375 4.8633 2.7 4.8906 3.024 5.0195 C3.907 5.3437 4.442 6.1289 4.442 7.1016 C4.442 8.293 3.657 9.1953 2.614 9.1953 C2.219 9.1953 1.938 9.0977 1.418 8.7578 C1.012 8.5039 0.774 8.4062 0.536 8.4062 C0.211 8.4062 0 8.6055 0 8.8984 C0 9.3906 0.606 9.6992 1.59 9.6992 C2.657 9.6992 3.766 9.3359 4.442 8.7578 C5.102 8.1836 5.454 7.3672 5.454 6.4258 C5.454 5.6953 5.231 5.0469 4.836 4.6094 C4.54 4.3008 4.274 4.1328 3.668 3.8672 C4.625 3.2031 4.977 2.6836 4.977 1.9258 C4.977 0.7734 4.09 0 2.782 0 C2.079 0 1.461 0.2383 0.958 0.6875 C0.536 1.082 0.325 1.4336 0.028 2.2773 L0.239 2.332 C0.801 1.293 1.434 0.8437 2.321 0.8437 C3.247 0.8437 3.868 1.4492 3.868 2.3477 C3.868 2.8555 3.657 3.3437 3.305 3.7109 C2.883 4.1328 2.489 4.3437 1.532 4.6797 L1.547 4.8633 Z" transform="translate(200.605, 60.4961)"/>
   <path style="fill:#ff0000; fill-rule:evenodd;stroke:none;" d="M0.774 0 C0.352 0 0 0.3515 0 0.8007 C0 1.2109 0.352 1.5625 0.758 1.5625 C1.196 1.5625 1.559 1.2226 1.559 0.8007 C1.559 0.3671 1.196 0 0.774 0 Z" transform="translate(207.984, 68.5938)"/>
   <path style="fill:#ff0000; fill-rule:evenodd;stroke:none;" d="M2.094 1.4766 L4.852 1.4766 C5.078 1.4766 5.133 1.4453 5.176 1.3477 L5.711 0.0977 L5.582 0 C5.36 0.293 5.231 0.3633 4.938 0.3633 L1.996 0.3633 L0.465 3.6953 C0.449 3.7227 0.449 3.7383 0.449 3.7657 C0.449 3.8516 0.508 3.8789 0.621 3.8789 C1.071 3.8789 1.617 3.9766 2.207 4.1602 C3.824 4.6797 4.555 5.5391 4.555 6.9453 C4.555 8.293 3.711 9.3477 2.602 9.3477 C2.321 9.3477 2.094 9.25 1.676 8.9414 C1.223 8.6016 0.914 8.4766 0.59 8.4766 C0.199 8.4766 0 8.6446 0 8.9961 C0 9.5313 0.649 9.8672 1.715 9.8672 C2.883 9.8672 3.895 9.4883 4.614 8.7735 C5.246 8.1407 5.539 7.3399 5.539 6.2696 C5.539 5.2578 5.274 4.6094 4.586 3.9063 C3.965 3.2891 3.164 2.9649 1.504 2.6719 L2.094 1.4766 Z" transform="translate(210.949, 60.3281)"/>
   <path style="fill:#ff0000; fill-rule:evenodd;stroke:none;" d="M0.097 9.5039 L3.976 9.5039 L3.976 9.293 C2.867 9.2773 2.64 9.1367 2.64 8.4648 L2.64 0.0273 L2.527 0 L0 1.2773 L0 1.4766 C0.167 1.4062 0.32 1.3477 0.378 1.3203 C0.632 1.2227 0.871 1.168 1.011 1.168 C1.304 1.168 1.433 1.3789 1.433 1.8281 L1.433 8.1953 C1.433 8.6602 1.32 8.9844 1.093 9.1094 C0.882 9.2383 0.687 9.2773 0.097 9.293 L0.097 9.5039 Z" transform="translate(387.563, 60.4961)"/>
   <path style="fill:#ff0000; fill-rule:evenodd;stroke:none;" d="M2.094 1.4766 L4.852 1.4766 C5.078 1.4766 5.133 1.4453 5.176 1.3477 L5.711 0.0977 L5.582 0 C5.36 0.293 5.231 0.3633 4.938 0.3633 L1.996 0.3633 L0.465 3.6953 C0.449 3.7227 0.449 3.7383 0.449 3.7657 C0.449 3.8516 0.508 3.8789 0.621 3.8789 C1.071 3.8789 1.617 3.9766 2.207 4.1602 C3.824 4.6797 4.555 5.5391 4.555 6.9453 C4.555 8.293 3.711 9.3477 2.602 9.3477 C2.321 9.3477 2.094 9.25 1.676 8.9414 C1.223 8.6016 0.914 8.4766 0.59 8.4766 C0.199 8.4766 0 8.6446 0 8.9961 C0 9.5313 0.649 9.8672 1.715 9.8672 C2.883 9.8672 3.895 9.4883 4.614 8.7735 C5.246 8.1407 5.539 7.3399 5.539 6.2696 C5.539 5.2578 5.274 4.6094 4.586 3.9063 C3.965 3.2891 3.164 2.9649 1.504 2.6719 L2.094 1.4766 Z" transform="translate(393.449, 60.3281)"/>
   <path style="fill:#ff0000; fill-rule:evenodd;stroke:none;" d="M0.774 0 C0.352 0 0 0.3515 0 0.8007 C0 1.2109 0.352 1.5625 0.758 1.5625 C1.196 1.5625 1.559 1.2226 1.559 0.8007 C1.559 0.3671 1.196 0 0.774 0 Z" transform="translate(400.984, 68.5938)"/>
   <path style="fill:#ff0000; fill-rule:evenodd;stroke:none;" d="M0.406 9.8125 C1.98 9.6289 2.754 9.3633 3.711 8.6758 C5.176 7.6055 6.031 5.8633 6.031 3.9648 C6.031 1.6445 4.754 0 2.926 0 C1.25 0 0 1.418 0 3.3164 C0 5.0312 1.012 6.1719 2.531 6.1719 C3.305 6.1719 3.894 5.9453 4.641 5.3711 C4.062 7.6602 2.504 9.168 0.367 9.5312 L0.406 9.8125 Z M4.668 4.5117 C4.668 4.793 4.613 4.9219 4.457 5.0469 C4.078 5.3711 3.543 5.5664 3.035 5.5664 C1.969 5.5664 1.293 4.5117 1.293 2.8398 C1.293 2.0391 1.519 1.1953 1.812 0.8281 C2.051 0.5469 2.402 0.3945 2.812 0.3945 C4.035 0.3945 4.668 1.6016 4.668 3.9648 L4.668 4.5117 Z" transform="translate(403.922, 60.4961)"/>
   <path style="fill:#ff0000; fill-rule:evenodd;stroke:none;" d="M0.097 9.504 L3.976 9.504 L3.976 9.293 C2.867 9.277 2.64 9.137 2.64 8.465 L2.64 0.027 L2.527 0 L0 1.277 L0 1.477 C0.167 1.406 0.32 1.348 0.378 1.32 C0.632 1.223 0.871 1.168 1.011 1.168 C1.304 1.168 1.433 1.379 1.433 1.828 L1.433 8.195 C1.433 8.66 1.32 8.984 1.093 9.109 C0.882 9.238 0.687 9.277 0.097 9.293 L0.097 9.504 Z" transform="translate(387.563, 176.496)"/>
   <path style="fill:#ff0000; fill-rule:evenodd;stroke:none;" d="M6.032 0 L0.828 0 L0 2.067 L0.239 2.18 C0.844 1.223 1.098 1.043 1.871 1.043 L4.922 1.043 L2.137 9.422 L3.051 9.422 L6.032 0.227 L6.032 0 Z" transform="translate(393.281, 176.691)"/>
   <path style="fill:#ff0000; fill-rule:evenodd;stroke:none;" d="M0.774 0 C0.352 0 0 0.351 0 0.801 C0 1.211 0.352 1.562 0.758 1.562 C1.196 1.562 1.559 1.222 1.559 0.801 C1.559 0.367 1.196 0 0.774 0 Z" transform="translate(400.984, 184.594)"/>
   <path style="fill:#ff0000; fill-rule:evenodd;stroke:none;" d="M1.547 4.863 C2.375 4.863 2.7 4.891 3.024 5.02 C3.907 5.344 4.442 6.129 4.442 7.102 C4.442 8.293 3.657 9.195 2.614 9.195 C2.219 9.195 1.938 9.098 1.418 8.758 C1.012 8.504 0.774 8.406 0.536 8.406 C0.211 8.406 0 8.606 0 8.899 C0 9.391 0.606 9.699 1.59 9.699 C2.657 9.699 3.766 9.336 4.442 8.758 C5.102 8.184 5.454 7.367 5.454 6.426 C5.454 5.695 5.231 5.047 4.836 4.609 C4.54 4.301 4.274 4.133 3.668 3.867 C4.625 3.203 4.977 2.684 4.977 1.926 C4.977 0.774 4.09 0 2.782 0 C2.079 0 1.461 0.238 0.958 0.688 C0.536 1.082 0.325 1.434 0.028 2.277 L0.239 2.332 C0.801 1.293 1.434 0.844 2.321 0.844 C3.247 0.844 3.868 1.449 3.868 2.348 C3.868 2.856 3.657 3.344 3.305 3.711 C2.883 4.133 2.489 4.344 1.532 4.68 L1.547 4.863 Z" transform="translate(404.105, 176.496)"/>
   <path style="fill:#ff0000; fill-rule:evenodd;stroke:none;" d="M0 0 L0 0.886 L3.461 0.886 L3.461 0 L0 0 Z" transform="translate(388.547, 288.387)"/>
   <path style="fill:#ff0000; fill-rule:evenodd;stroke:none;" d="M6.032 0 L0.829 0 L0 2.067 L0.239 2.18 C0.844 1.223 1.098 1.043 1.871 1.043 L4.922 1.043 L2.137 9.422 L3.051 9.422 L6.032 0.227 L6.032 0 Z" transform="translate(392.942, 282.691)"/>
   <path style="fill:#ff0000; fill-rule:evenodd;stroke:none;" d="M0.773 0 C0.351 0 0 0.351 0 0.801 C0 1.211 0.351 1.562 0.757 1.562 C1.195 1.562 1.558 1.222 1.558 0.801 C1.558 0.367 1.195 0 0.773 0 Z" transform="translate(400.646, 290.594)"/>
   <path style="fill:#ff0000; fill-rule:evenodd;stroke:none;" d="M0.406 9.813 C1.98 9.629 2.754 9.363 3.711 8.676 C5.176 7.606 6.031 5.863 6.031 3.965 C6.031 1.645 4.754 0 2.926 0 C1.25 0 0 1.418 0 3.317 C0 5.031 1.012 6.172 2.531 6.172 C3.305 6.172 3.895 5.945 4.641 5.371 C4.063 7.66 2.504 9.168 0.367 9.531 L0.406 9.813 Z M4.668 4.512 C4.668 4.793 4.613 4.922 4.457 5.047 C4.078 5.371 3.543 5.567 3.035 5.567 C1.969 5.567 1.293 4.512 1.293 2.84 C1.293 2.039 1.52 1.195 1.813 0.828 C2.051 0.547 2.402 0.395 2.813 0.395 C4.035 0.395 4.668 1.602 4.668 3.965 L4.668 4.512 Z" transform="translate(403.583, 282.496)"/>
   <path style="fill:#ff0000; fill-rule:evenodd;stroke:none;" d="M6.258 7.578 L6.074 7.508 C5.555 8.309 5.371 8.434 4.738 8.434 L1.379 8.434 L3.738 5.961 C4.992 4.652 5.539 3.586 5.539 2.473 C5.539 1.082 4.402 0 2.937 0 C2.164 0 1.433 0.309 0.914 0.871 C0.465 1.348 0.254 1.801 0.016 2.797 L0.308 2.867 C0.871 1.488 1.363 1.039 2.348 1.039 C3.543 1.039 4.332 1.84 4.332 3.024 C4.332 4.133 3.683 5.426 2.504 6.68 L0 9.336 L0 9.504 L5.484 9.504 L6.258 7.578 Z" transform="translate(193.422, 282.496)"/>
   <path style="fill:#ff0000; fill-rule:evenodd;stroke:none;" d="M3.234 0 C2.461 0 1.871 0.223 1.352 0.731 C0.535 1.52 0 3.133 0 4.781 C0 6.328 0.465 7.957 1.125 8.746 C1.648 9.363 2.363 9.699 3.18 9.699 C3.894 9.699 4.5 9.461 5.008 8.969 C5.824 8.195 6.355 6.567 6.355 4.863 C6.355 1.981 5.078 0 3.234 0 Z M3.191 0.363 C4.375 0.363 5.008 1.953 5.008 4.891 C5.008 7.832 4.387 9.336 3.18 9.336 C1.969 9.336 1.352 7.832 1.352 4.906 C1.352 1.91 1.984 0.363 3.191 0.363 Z" transform="translate(200.336, 282.496)"/>
   <path style="fill:#ff0000; fill-rule:evenodd;stroke:none;" d="M0.774 0 C0.352 0 0 0.351 0 0.801 C0 1.211 0.352 1.562 0.758 1.562 C1.196 1.562 1.559 1.222 1.559 0.801 C1.559 0.367 1.196 0 0.774 0 Z" transform="translate(207.984, 290.594)"/>
   <path style="fill:#ff0000; fill-rule:evenodd;stroke:none;" d="M3.289 4.289 C4.695 3.543 5.172 2.953 5.172 1.996 C5.172 0.828 4.176 0 2.754 0 C1.223 0 0.082 0.942 0.082 2.223 C0.082 3.133 0.352 3.543 1.824 4.836 C0.293 6.004 0 6.41 0 7.379 C0 8.758 1.094 9.699 2.699 9.699 C4.387 9.699 5.469 8.774 5.469 7.324 C5.469 6.227 4.988 5.567 3.289 4.289 Z M3.035 5.734 C4.063 6.469 4.399 6.973 4.399 7.762 C4.399 8.676 3.766 9.309 2.852 9.309 C1.785 9.309 1.066 8.492 1.066 7.281 C1.066 6.367 1.363 5.793 2.191 5.117 L3.035 5.734 Z M2.879 4.035 C1.629 3.219 1.125 2.574 1.125 1.785 C1.125 0.969 1.754 0.395 2.641 0.395 C3.598 0.395 4.203 1.012 4.203 1.981 C4.203 2.84 3.836 3.402 2.879 4.035 Z" transform="translate(211.289, 282.496)"/>
   <path style="fill:#ff0000; fill-rule:evenodd;stroke:none;" d="M0 0 L0 0.886 L3.461 0.886 L3.461 0 L0 0 Z" transform="translate(124.547, 288.387)"/>
   <path style="fill:#ff0000; fill-rule:evenodd;stroke:none;" d="M6.258 7.578 L6.074 7.508 C5.555 8.309 5.371 8.434 4.738 8.434 L1.379 8.434 L3.738 5.961 C4.992 4.652 5.539 3.586 5.539 2.473 C5.539 1.082 4.402 0 2.938 0 C2.164 0 1.434 0.309 0.914 0.871 C0.465 1.348 0.254 1.801 0.016 2.797 L0.309 2.867 C0.871 1.488 1.363 1.039 2.348 1.039 C3.543 1.039 4.332 1.84 4.332 3.024 C4.332 4.133 3.684 5.426 2.504 6.68 L0 9.336 L0 9.504 L5.484 9.504 L6.258 7.578 Z" transform="translate(129.083, 282.496)"/>
   <path style="fill:#ff0000; fill-rule:evenodd;stroke:none;" d="M3.234 0 C2.461 0 1.871 0.223 1.352 0.731 C0.535 1.52 0 3.133 0 4.781 C0 6.328 0.465 7.957 1.125 8.746 C1.649 9.363 2.363 9.699 3.18 9.699 C3.895 9.699 4.5 9.461 5.008 8.969 C5.824 8.195 6.356 6.567 6.356 4.863 C6.356 1.981 5.078 0 3.234 0 Z M3.191 0.363 C4.375 0.363 5.008 1.953 5.008 4.891 C5.008 7.832 4.387 9.336 3.18 9.336 C1.969 9.336 1.352 7.832 1.352 4.906 C1.352 1.91 1.984 0.363 3.191 0.363 Z" transform="translate(135.997, 282.496)"/>
   <path style="fill:#ff0000; fill-rule:evenodd;stroke:none;" d="M0.773 0 C0.351 0 0 0.351 0 0.801 C0 1.211 0.351 1.562 0.757 1.562 C1.195 1.562 1.558 1.222 1.558 0.801 C1.558 0.367 1.195 0 0.773 0 Z" transform="translate(143.646, 290.594)"/>
   <path style="fill:#ff0000; fill-rule:evenodd;stroke:none;" d="M6.258 7.578 L6.074 7.508 C5.555 8.309 5.371 8.434 4.738 8.434 L1.379 8.434 L3.738 5.961 C4.992 4.652 5.539 3.586 5.539 2.473 C5.539 1.082 4.402 0 2.938 0 C2.164 0 1.434 0.309 0.914 0.871 C0.465 1.348 0.254 1.801 0.016 2.797 L0.309 2.867 C0.871 1.488 1.363 1.039 2.348 1.039 C3.543 1.039 4.332 1.84 4.332 3.024 C4.332 4.133 3.684 5.426 2.504 6.68 L0 9.336 L0 9.504 L5.484 9.504 L6.258 7.578 Z" transform="translate(146.583, 282.496)"/>
   <path style="fill:#000000; fill-rule:evenodd;stroke:none;" d="M3.4922 0 C1.4102 0 0 1.528 0 3.793 C0 6.067 1.4023 7.586 3.5 7.586 C4.3867 7.586 5.1641 7.321 5.75 6.825 C6.5352 6.157 7.0039 5.036 7.0039 3.852 C7.0039 1.52 5.6211 0 3.4922 0 Z M3.4922 0.813 C5.0625 0.813 6.0781 1.997 6.0781 3.832 C6.0781 5.582 5.0352 6.774 3.5 6.774 C1.9492 6.774 0.9258 5.582 0.9258 3.793 C0.9258 2.004 1.9492 0.813 3.4922 0.813 Z" transform="translate(52.8291, 304.19)"/>
   <path style="fill:#000000; fill-rule:evenodd;stroke:none;" d="M4.6563 3.945 L4.6563 7.242 L5.5821 7.242 L5.5821 0 L4.6563 0 L4.6563 3.129 L0.9258 3.129 L0.9258 0 L0 0 L0 7.242 L0.9375 7.242 L0.9375 3.945 L4.6563 3.945 Z" transform="translate(83.9238, 304.308)"/>
   <path style="fill:#000000; fill-rule:nonzero;stroke:none;" d="M19.6992 0 L19.6992 1.55 L0 1.55 L0 0 L19.6992 0 Z" transform="translate(61.4004, 307.15)"/>
   <path style="fill:#000000; fill-rule:evenodd;stroke:none;" d="M4.6563 3.945 L4.6563 7.242 L5.5821 7.242 L5.5821 0 L4.6563 0 L4.6563 3.129 L0.9258 3.129 L0.9258 0 L0 0 L0 7.242 L0.9375 7.242 L0.9375 3.945 L4.6563 3.945 Z" transform="translate(27.9238, 289.308)"/>
   <path style="fill:#000000; fill-rule:nonzero;stroke:none;" d="M0 1.35 L0.75 0 L16.5 9.05 L15.6992 10.4 L0 1.35 Z" transform="translate(34.9004, 295.35)"/>
   <path style="fill:#000000; fill-rule:nonzero;stroke:none;" d="M0 0.3 L1.5498 0 L2.0498 2.65 L0.5 2.95 L0 0.3 Z" transform="translate(25.5498, 273.6)"/>
   <path style="fill:#000000; fill-rule:nonzero;stroke:none;" d="M0 0.3 L1.5498 0 L2.0498 2.65 L0.5 2.95 L0 0.3 Z" transform="translate(26.5498, 278.9)"/>
   <path style="fill:#000000; fill-rule:nonzero;stroke:none;" d="M0 0.3 L1.5498 0 L2.0498 2.65 L0.5 2.9 L0 0.3 Z" transform="translate(27.5498, 284.2)"/>
   <path style="fill:#000000; fill-rule:nonzero;stroke:none;" d="M1 3.05 L0 1.8 L2.2998 0 L3.2998 1.2 L1 3.05 Z" transform="translate(90.4502, 301.55)"/>
   <path style="fill:#000000; fill-rule:nonzero;stroke:none;" d="M0.9502 3.05 L0 1.8 L2.3008 0 L3.25 1.2 L0.9502 3.05 Z" transform="translate(95.0996, 297.9)"/>
   <path style="fill:#000000; fill-rule:nonzero;stroke:none;" d="M0.9498 3.05 L0 1.8 L2.2998 0 L3.2998 1.2 L0.9498 3.05 Z" transform="translate(99.7002, 294.25)"/>
   <path style="fill:#000000; fill-rule:nonzero;stroke:none;" d="M1 3.05 L0 1.8 L2.35 0 L3.3 1.2 L1 3.05 Z" transform="translate(104.3, 290.6)"/>
   <path style="fill:#000000; fill-rule:nonzero;stroke:none;" d="M0.95 3.05 L0 1.85 L2.3 0 L3.25 1.25 L0.95 3.05 Z" transform="translate(108.95, 286.9)"/>
  </g>
 </g>
</svg>
