<?xml version="1.0" encoding="UTF-8"?>
<svg width="351pt" version="1.1" xmlns="http://www.w3.org/2000/svg" height="315pt" viewBox="0 0 351 315" xmlns:xlink="http://www.w3.org/1999/xlink">
 <defs>
  <clipPath id="Clip0">
   <path d="M0 0 L351 0 L351 315 L0 315 L0 0 Z" transform="translate(0, 0)"/>
  </clipPath>
 </defs>
 <g id="Background">
  <g id="Group1" clip-path="url(#Clip0)">
   <path style="fill:#000000; fill-rule:evenodd;stroke:none;" d="M0.9258 4.121 L3.3125 4.121 C4.1368 4.121 4.5078 4.52 4.5078 5.414 L4.4961 6.059 C4.4961 6.508 4.5743 6.945 4.7071 7.242 L5.8282 7.242 L5.8282 7.016 C5.4805 6.773 5.4102 6.516 5.3907 5.555 C5.3828 4.363 5.1914 4.004 4.4063 3.668 C5.2227 3.258 5.5508 2.773 5.5508 1.938 C5.5508 0.688 4.7735 0 3.3438 0 L0 0 L0 7.242 L0.9258 7.242 L0.9258 4.121 Z M0.9258 3.309 L0.9258 0.816 L3.1641 0.816 C3.6797 0.816 3.9805 0.895 4.2071 1.094 C4.4571 1.301 4.586 1.629 4.586 2.059 C4.586 2.922 4.1485 3.309 3.1641 3.309 L0.9258 3.309 Z" transform="translate(11.1611, 139.208)"/>
   <path style="fill:#000000; fill-rule:evenodd;stroke:none;" d="M3.543 4.656 L0.7422 4.656 C0.8125 4.222 1.0508 3.945 1.7031 3.562 L2.4531 3.16 C3.1953 2.754 3.5781 2.207 3.5781 1.558 C3.5781 1.113 3.3984 0.703 3.082 0.41 C2.7695 0.132 2.3867 0 1.875 0 C1.1992 0 0.6992 0.23 0.4062 0.687 C0.2187 0.972 0.1367 1.3 0.1211 1.839 L0.7812 1.839 C0.8047 1.48 0.8476 1.265 0.9375 1.093 C1.1094 0.769 1.457 0.574 1.8555 0.574 C2.4531 0.574 2.9023 1.004 2.9023 1.57 C2.9023 1.992 2.6562 2.351 2.1836 2.621 L1.4922 3.007 C0.3828 3.636 0.0625 4.14 0 5.308 L3.543 5.308 L3.543 4.656 Z" transform="translate(17.709, 143.017)"/>
   <path style="fill:#000000; fill-rule:evenodd;stroke:none;" d="M5.668 0 L4.793 0 L4.793 5.922 L1.0039 0 L0 0 L0 7.242 L0.875 7.242 L0.875 1.371 L4.625 7.242 L5.668 7.242 L5.668 0 Z" transform="translate(22.3828, 139.208)"/>
   <path style="fill:#000000; fill-rule:nonzero;stroke:none;" d="M19 17.9 L16.7998 17.9 L0 1.1 L1.1006 0 L19 17.9 Z" transform="translate(29.2998, 146.15)"/>
   <path style="fill:#000000; fill-rule:evenodd;stroke:none;" d="M0.9258 4.122 L3.3125 4.122 C4.1368 4.122 4.5078 4.52 4.5078 5.414 L4.4961 6.059 C4.4961 6.508 4.5743 6.946 4.7071 7.243 L5.8282 7.243 L5.8282 7.016 C5.4805 6.774 5.4102 6.516 5.3907 5.555 C5.3828 4.364 5.1914 4.004 4.4063 3.668 C5.2227 3.258 5.5508 2.774 5.5508 1.938 C5.5508 0.688 4.7735 0 3.3438 0 L0 0 L0 7.243 L0.9258 7.243 L0.9258 4.122 Z M0.9258 3.309 L0.9258 0.817 L3.1641 0.817 C3.6797 0.817 3.9805 0.895 4.2071 1.094 C4.4571 1.301 4.586 1.629 4.586 2.059 C4.586 2.922 4.1485 3.309 3.1641 3.309 L0.9258 3.309 Z" transform="translate(11.1611, 181.607)"/>
   <path style="fill:#000000; fill-rule:evenodd;stroke:none;" d="M3.543 4.656 L0.7422 4.656 C0.8125 4.223 1.0508 3.945 1.7031 3.563 L2.4531 3.16 C3.1953 2.754 3.5781 2.207 3.5781 1.559 C3.5781 1.113 3.3984 0.703 3.082 0.41 C2.7695 0.133 2.3867 0 1.875 0 C1.1992 0 0.6992 0.23 0.4062 0.688 C0.2187 0.973 0.1367 1.301 0.1211 1.84 L0.7812 1.84 C0.8047 1.48 0.8476 1.266 0.9375 1.094 C1.1094 0.77 1.457 0.574 1.8555 0.574 C2.4531 0.574 2.9023 1.004 2.9023 1.57 C2.9023 1.992 2.6562 2.352 2.1836 2.621 L1.4922 3.008 C0.3828 3.637 0.0625 4.141 0 5.309 L3.543 5.309 L3.543 4.656 Z" transform="translate(17.709, 185.416)"/>
   <path style="fill:#000000; fill-rule:evenodd;stroke:none;" d="M5.668 0 L4.793 0 L4.793 5.922 L1.0039 0 L0 0 L0 7.243 L0.875 7.243 L0.875 1.372 L4.625 7.243 L5.668 7.243 L5.668 0 Z" transform="translate(22.3828, 181.607)"/>
   <path style="fill:#000000; fill-rule:nonzero;stroke:none;" d="M1.1006 17.9 L0 16.8 L16.7998 0 L19 0 L1.1006 17.9 Z" transform="translate(29.2998, 164.05)"/>
   <path style="fill:#000000; fill-rule:evenodd;stroke:none;" d="M0.92578 4.1211 L3.31248 4.1211 C4.13668 4.1211 4.50778 4.51953 4.50778 5.41407 L4.49608 6.05859 C4.49608 6.50779 4.57418 6.94529 4.70708 7.24219 L5.82808 7.24219 L5.82808 7.01559 C5.48048 6.77349 5.41018 6.51559 5.39058 5.55469 C5.38278 4.36328 5.19138 4.00391 4.40628 3.66797 C5.22268 3.25782 5.55078 2.77344 5.55078 1.9375 C5.55078 0.6875 4.77348 0 3.34378 0 L0 0 L0 7.24219 L0.92578 7.24219 L0.92578 4.1211 Z M0.92578 3.3086 L0.92578 0.81641 L3.16408 0.81641 C3.67968 0.81641 3.98048 0.89453 4.20708 1.09375 C4.45708 1.30078 4.58598 1.62891 4.58598 2.0586 C4.58598 2.92188 4.14848 3.3086 3.16408 3.3086 L0.92578 3.3086 Z" transform="translate(7.51172, 4.00781)"/>
   <path style="fill:#000000; fill-rule:evenodd;stroke:none;" d="M1.418 2.87499 L1.5 2.87499 L1.7774 2.86719 C2.5079 2.86719 2.8829 3.19529 2.8829 3.83199 C2.8829 4.49999 2.4688 4.89839 1.7774 4.89839 C1.0586 4.89839 0.7071 4.53909 0.6602 3.76559 L0 3.76559 C0.0313 4.19139 0.1055 4.46879 0.2344 4.71089 C0.504 5.21879 1.0274 5.48049 1.7579 5.48049 C2.8516 5.48049 3.5586 4.82809 3.5586 3.82419 C3.5586 3.15239 3.293 2.77739 2.6563 2.55859 C3.1524 2.35939 3.3985 1.99218 3.3985 1.46093 C3.3985 0.54687 2.793 0 1.7774 0 C0.7071 0 0.1368 0.58203 0.1133 1.71484 L0.7735 1.71484 C0.7813 1.39062 0.8125 1.21093 0.8946 1.04687 C1.043 0.7539 1.375 0.57422 1.7852 0.57422 C2.3711 0.57422 2.7227 0.91406 2.7227 1.48047 C2.7227 1.85547 2.5899 2.08203 2.2969 2.19919 C2.1172 2.27739 1.8829 2.30469 1.418 2.31249 L1.418 2.87499 Z" transform="translate(14.0439, 7.81641)"/>
   <path style="fill:#000000; fill-rule:evenodd;stroke:none;" d="M6.1094 2.36328 C5.8204 0.77343 4.9063 0 3.3125 0 C2.3399 0 1.5547 0.30468 1.0157 0.90234 C0.3594 1.61718 0 2.65234 0 3.82421 C0 5.01562 0.3672 6.03906 1.0469 6.74217 C1.6133 7.32027 2.3282 7.58597 3.2735 7.58597 C5.0469 7.58597 6.0391 6.63277 6.2579 4.71875 L5.3047 4.71875 C5.2227 5.21484 5.125 5.55078 4.9766 5.83984 C4.6758 6.43357 4.0586 6.77347 3.2852 6.77347 C1.8399 6.77347 0.9258 5.62109 0.9258 3.8125 C0.9258 1.95703 1.793 0.8125 3.2032 0.8125 C3.793 0.8125 4.3399 0.98046 4.6368 1.26953 C4.9063 1.51953 5.0547 1.8164 5.1641 2.36328 L6.1094 2.36328 Z" transform="translate(18.4521, 3.89063)"/>
   <path style="fill:#000000; fill-rule:nonzero;stroke:none;" d="M19.3496 18.25 L17.1494 18.25 L0 1.1006 L1.0996 0 L19.3496 18.25 Z" transform="translate(24.9502, 10.5996)"/>
   <path style="fill:#000000; fill-rule:evenodd;stroke:none;" d="M0.92578 4.1211 L3.31248 4.1211 C4.13668 4.1211 4.50778 4.5195 4.50778 5.4141 L4.49608 6.0586 C4.49608 6.5078 4.57418 6.9453 4.70708 7.2422 L5.82808 7.2422 L5.82808 7.0156 C5.48048 6.7734 5.41018 6.5156 5.39058 5.5547 C5.38278 4.3633 5.19138 4.0039 4.40628 3.668 C5.22268 3.2578 5.55078 2.7734 5.55078 1.9375 C5.55078 0.6875 4.77348 0 3.34378 0 L0 0 L0 7.2422 L0.92578 7.2422 L0.92578 4.1211 Z M0.92578 3.3086 L0.92578 0.8164 L3.16408 0.8164 C3.67968 0.8164 3.98048 0.8945 4.20708 1.0938 C4.45708 1.3008 4.58598 1.6289 4.58598 2.0586 C4.58598 2.9219 4.14848 3.3086 3.16408 3.3086 L0.92578 3.3086 Z" transform="translate(7.51172, 46.4082)"/>
   <path style="fill:#000000; fill-rule:evenodd;stroke:none;" d="M1.418 2.875 L1.5 2.875 L1.7774 2.8672 C2.5079 2.8672 2.8829 3.1953 2.8829 3.832 C2.8829 4.5 2.4688 4.8984 1.7774 4.8984 C1.0586 4.8984 0.7071 4.5391 0.6602 3.7656 L0 3.7656 C0.0313 4.1914 0.1055 4.4687 0.2344 4.7109 C0.504 5.2187 1.0274 5.4805 1.7579 5.4805 C2.8516 5.4805 3.5586 4.8281 3.5586 3.8242 C3.5586 3.1523 3.293 2.7773 2.6563 2.5586 C3.1524 2.3594 3.3985 1.9922 3.3985 1.4609 C3.3985 0.5469 2.793 0 1.7774 0 C0.7071 0 0.1368 0.582 0.1133 1.7148 L0.7735 1.7148 C0.7813 1.3906 0.8125 1.2109 0.8946 1.0469 C1.043 0.7539 1.375 0.5742 1.7852 0.5742 C2.3711 0.5742 2.7227 0.9141 2.7227 1.4805 C2.7227 1.8555 2.5899 2.082 2.2969 2.1992 C2.1172 2.2773 1.8829 2.3047 1.418 2.3125 L1.418 2.875 Z" transform="translate(14.0439, 50.2168)"/>
   <path style="fill:#000000; fill-rule:evenodd;stroke:none;" d="M6.1094 2.3633 C5.8204 0.7735 4.9063 0 3.3125 0 C2.3399 0 1.5547 0.3047 1.0157 0.9024 C0.3594 1.6172 0 2.6524 0 3.8242 C0 5.0156 0.3672 6.0391 1.0469 6.7422 C1.6133 7.3203 2.3282 7.586 3.2735 7.586 C5.0469 7.586 6.0391 6.6328 6.2579 4.7188 L5.3047 4.7188 C5.2227 5.2149 5.125 5.5508 4.9766 5.8399 C4.6758 6.4336 4.0586 6.7735 3.2852 6.7735 C1.8399 6.7735 0.9258 5.6211 0.9258 3.8125 C0.9258 1.957 1.793 0.8125 3.2032 0.8125 C3.793 0.8125 4.3399 0.9805 4.6368 1.2695 C4.9063 1.5195 5.0547 1.8164 5.1641 2.3633 L6.1094 2.3633 Z" transform="translate(18.4521, 46.291)"/>
   <path style="fill:#000000; fill-rule:nonzero;stroke:none;" d="M1.1006 18.1504 L0 17.0508 L17 0 L19.2002 0 L1.1006 18.1504 Z" transform="translate(25.0996, 28.8496)"/>
   <path style="fill:#000000; fill-rule:evenodd;stroke:none;" d="M0.926 4.1211 L3.312 4.1211 C4.137 4.1211 4.508 4.51953 4.508 5.41409 L4.496 6.05859 C4.496 6.50779 4.574 6.94529 4.707 7.24219 L5.828 7.24219 L5.828 7.01559 C5.48 6.77349 5.41 6.51559 5.39 5.55469 C5.383 4.36328 5.191 4.00391 4.406 3.66797 C5.223 3.25782 5.551 2.77344 5.551 1.9375 C5.551 0.6875 4.773 0 3.344 0 L0 0 L0 7.24219 L0.926 7.24219 L0.926 4.1211 Z M0.926 3.3086 L0.926 0.81641 L3.164 0.81641 C3.68 0.81641 3.98 0.89453 4.207 1.09375 C4.457 1.30078 4.586 1.62891 4.586 2.0586 C4.586 2.92188 4.148 3.3086 3.164 3.3086 L0.926 3.3086 Z" transform="translate(246.423, 5.00781)"/>
   <path style="fill:#000000; fill-rule:evenodd;stroke:none;" d="M4.524 1.83594 C4.356 0.6836 3.602 0 2.524 0 C1.75 0 1.055 0.36719 0.637 1.00391 C0.196 1.6875 0 2.55469 0 3.83594 C0 5.02737 0.176 5.76957 0.594 6.39847 C0.973 6.96487 1.59 7.26957 2.368 7.26957 C3.711 7.26957 4.676 6.27737 4.676 4.89847 C4.676 3.58594 3.778 2.66406 2.516 2.66406 C1.821 2.66406 1.274 2.92969 0.895 3.44531 C0.903 1.72656 1.461 0.77344 2.465 0.77344 C3.083 0.77344 3.512 1.16406 3.649 1.83594 L4.524 1.83594 Z M2.407 3.4375 C3.25 3.4375 3.778 4.02344 3.778 4.96877 C3.778 5.85157 3.184 6.49607 2.375 6.49607 C1.559 6.49607 0.942 5.82027 0.942 4.91797 C0.942 4.04297 1.54 3.4375 2.407 3.4375 Z" transform="translate(253.146, 5.20703)"/>
   <path style="fill:#000000; fill-rule:evenodd;stroke:none;" d="M4.547 5.06639 L5.293 7.24219 L6.328 7.24219 L3.782 0 L2.59 0 L0 7.24219 L0.985 7.24219 L1.754 5.06639 L4.547 5.06639 Z M4.289 4.29297 L1.981 4.29297 L3.176 0.99219 L4.289 4.29297 Z" transform="translate(258.444, 5.00781)"/>
   <path style="fill:#000000; fill-rule:nonzero;stroke:none;" d="M18.65 17.5 L16.45 17.5 L0 1.1006 L1.1 0 L18.65 17.5 Z" transform="translate(265.4, 12.3496)"/>
   <path style="fill:#000000; fill-rule:evenodd;stroke:none;" d="M0.926 4.1211 L3.312 4.1211 C4.137 4.1211 4.508 4.5195 4.508 5.4141 L4.496 6.0586 C4.496 6.5078 4.574 6.9453 4.707 7.2422 L5.828 7.2422 L5.828 7.0156 C5.48 6.7734 5.41 6.5156 5.39 5.5547 C5.383 4.3633 5.191 4.0039 4.406 3.668 C5.223 3.2578 5.551 2.7734 5.551 1.9375 C5.551 0.6875 4.773 0 3.344 0 L0 0 L0 7.2422 L0.926 7.2422 L0.926 4.1211 Z M0.926 3.3086 L0.926 0.8164 L3.164 0.8164 C3.68 0.8164 3.98 0.8945 4.207 1.0938 C4.457 1.3008 4.586 1.6289 4.586 2.0586 C4.586 2.9219 4.148 3.3086 3.164 3.3086 L0.926 3.3086 Z" transform="translate(246.423, 47.4082)"/>
   <path style="fill:#000000; fill-rule:evenodd;stroke:none;" d="M4.524 1.836 C4.356 0.6836 3.602 0 2.524 0 C1.75 0 1.055 0.3672 0.637 1.0039 C0.196 1.6875 0 2.5547 0 3.836 C0 5.0274 0.176 5.7696 0.594 6.3985 C0.973 6.9649 1.59 7.2696 2.368 7.2696 C3.711 7.2696 4.676 6.2774 4.676 4.8985 C4.676 3.586 3.778 2.6641 2.516 2.6641 C1.821 2.6641 1.274 2.9297 0.895 3.4453 C0.903 1.7266 1.461 0.7735 2.465 0.7735 C3.083 0.7735 3.512 1.1641 3.649 1.836 L4.524 1.836 Z M2.407 3.4375 C3.25 3.4375 3.778 4.0235 3.778 4.9688 C3.778 5.8516 3.184 6.4961 2.375 6.4961 C1.559 6.4961 0.942 5.8203 0.942 4.918 C0.942 4.043 1.54 3.4375 2.407 3.4375 Z" transform="translate(253.146, 47.6074)"/>
   <path style="fill:#000000; fill-rule:evenodd;stroke:none;" d="M4.547 5.0664 L5.293 7.2422 L6.328 7.2422 L3.782 0 L2.59 0 L0 7.2422 L0.985 7.2422 L1.754 5.0664 L4.547 5.0664 Z M4.289 4.293 L1.981 4.293 L3.176 0.9922 L4.289 4.293 Z" transform="translate(258.444, 47.4082)"/>
   <path style="fill:#000000; fill-rule:nonzero;stroke:none;" d="M1.1 18.8008 L0 17.7002 L17.7 0 L19.9 0 L1.1 18.8008 Z" transform="translate(264.15, 29.8496)"/>
   <path style="fill:#000000; fill-rule:evenodd;stroke:none;" d="M0.926 4.1211 L3.312 4.1211 C4.137 4.1211 4.508 4.51953 4.508 5.41408 L4.496 6.05858 C4.496 6.50778 4.574 6.94528 4.707 7.24218 L5.828 7.24218 L5.828 7.01558 C5.48 6.77348 5.41 6.51558 5.391 5.55468 C5.383 4.36328 5.191 4.00391 4.406 3.66797 C5.223 3.25781 5.551 2.77344 5.551 1.9375 C5.551 0.6875 4.773 0 3.344 0 L0 0 L0 7.24218 L0.926 7.24218 L0.926 4.1211 Z M0.926 3.3086 L0.926 0.81641 L3.164 0.81641 C3.68 0.81641 3.98 0.89453 4.207 1.09375 C4.457 1.30078 4.586 1.62891 4.586 2.0586 C4.586 2.92188 4.148 3.3086 3.164 3.3086 L0.926 3.3086 Z" transform="translate(168.711, 5.10742)"/>
   <path style="fill:#000000; fill-rule:evenodd;stroke:none;" d="M1.418 2.87498 L1.5 2.87498 L1.778 2.86718 C2.508 2.86718 2.883 3.19528 2.883 3.83198 C2.883 4.49998 2.469 4.89848 1.778 4.89848 C1.059 4.89848 0.707 4.53908 0.66 3.76558 L0 3.76558 C0.031 4.19138 0.106 4.46878 0.235 4.71098 C0.504 5.21878 1.028 5.48048 1.758 5.48048 C2.852 5.48048 3.559 4.82808 3.559 3.82418 C3.559 3.15238 3.293 2.77738 2.656 2.55858 C3.153 2.35938 3.399 1.99218 3.399 1.46098 C3.399 0.54687 2.793 0 1.778 0 C0.707 0 0.137 0.58203 0.113 1.71488 L0.774 1.71488 C0.781 1.39058 0.813 1.21098 0.895 1.04687 C1.043 0.7539 1.375 0.57421 1.785 0.57421 C2.371 0.57421 2.723 0.91406 2.723 1.48048 C2.723 1.85548 2.59 2.08198 2.297 2.19918 C2.117 2.27738 1.883 2.30468 1.418 2.31248 L1.418 2.87498 Z" transform="translate(175.243, 8.91602)"/>
   <path style="fill:#000000; fill-rule:evenodd;stroke:none;" d="M6.11 2.36329 C5.821 0.77344 4.907 0 3.313 0 C2.34 0 1.555 0.30469 1.016 0.90235 C0.36 1.61719 0 2.65235 0 3.82422 C0 5.01567 0.368 6.03907 1.047 6.74217 C1.614 7.32027 2.328 7.58597 3.274 7.58597 C5.047 7.58597 6.039 6.63277 6.258 4.71875 L5.305 4.71875 C5.223 5.21487 5.125 5.55077 4.977 5.83987 C4.676 6.43357 4.059 6.77347 3.286 6.77347 C1.84 6.77347 0.926 5.62107 0.926 3.8125 C0.926 1.95704 1.793 0.8125 3.203 0.8125 C3.793 0.8125 4.34 0.98047 4.637 1.26954 C4.907 1.51954 5.055 1.81641 5.164 2.36329 L6.11 2.36329 Z" transform="translate(179.651, 4.99023)"/>
   <path style="fill:#000000; fill-rule:nonzero;stroke:none;" d="M19.4 18.25 L17.15 18.25 L0 1.0996 L1.1 0 L19.4 18.25 Z" transform="translate(186.15, 11.75)"/>
   <path style="fill:#000000; fill-rule:evenodd;stroke:none;" d="M0.926 4.1211 L3.313 4.1211 C4.137 4.1211 4.508 4.5195 4.508 5.4141 L4.496 6.0586 C4.496 6.5078 4.574 6.9453 4.707 7.2422 L5.828 7.2422 L5.828 7.0156 C5.481 6.7735 5.41 6.5156 5.391 5.5547 C5.383 4.3633 5.191 4.0039 4.406 3.668 C5.223 3.2578 5.551 2.7735 5.551 1.9375 C5.551 0.6875 4.773 0 3.344 0 L0 0 L0 7.2422 L0.926 7.2422 L0.926 4.1211 Z M0.926 3.3086 L0.926 0.8164 L3.164 0.8164 C3.68 0.8164 3.981 0.8945 4.207 1.0938 C4.457 1.3008 4.586 1.6289 4.586 2.0586 C4.586 2.9219 4.148 3.3086 3.164 3.3086 L0.926 3.3086 Z" transform="translate(167.873, 47.5576)"/>
   <path style="fill:#000000; fill-rule:evenodd;stroke:none;" d="M4.523 1.836 C4.355 0.6836 3.601 0 2.523 0 C1.75 0 1.054 0.3672 0.636 1.0039 C0.195 1.6875 0 2.5547 0 3.836 C0 5.0274 0.175 5.7696 0.593 6.3985 C0.972 6.9649 1.59 7.2696 2.367 7.2696 C3.711 7.2696 4.675 6.2774 4.675 4.8985 C4.675 3.586 3.777 2.6641 2.515 2.6641 C1.82 2.6641 1.273 2.9297 0.894 3.4453 C0.902 1.7266 1.461 0.7735 2.465 0.7735 C3.082 0.7735 3.511 1.1641 3.648 1.836 L4.523 1.836 Z M2.406 3.4375 C3.25 3.4375 3.777 4.0235 3.777 4.9688 C3.777 5.8516 3.183 6.4961 2.375 6.4961 C1.558 6.4961 0.941 5.8203 0.941 4.918 C0.941 4.043 1.539 3.4375 2.406 3.4375 Z" transform="translate(174.597, 47.7568)"/>
   <path style="fill:#000000; fill-rule:evenodd;stroke:none;" d="M4.546 5.0664 L5.293 7.2422 L6.328 7.2422 L3.781 0 L2.589 0 L0 7.2422 L0.984 7.2422 L1.753 5.0664 L4.546 5.0664 Z M4.289 4.293 L1.98 4.293 L3.175 0.9922 L4.289 4.293 Z" transform="translate(179.895, 47.5576)"/>
   <path style="fill:#000000; fill-rule:nonzero;stroke:none;" d="M1.1 18.7998 L0 17.7002 L17.65 0 L19.9 0 L1.1 18.7998 Z" transform="translate(185.65, 30)"/>
   <path style="fill:#000000; fill-rule:evenodd;stroke:none;" d="M0.92578 4.121 L3.3125 4.121 C4.13672 4.121 4.50781 4.52 4.50781 5.414 L4.49609 6.059 C4.49609 6.508 4.57422 6.946 4.70703 7.242 L5.82812 7.242 L5.82812 7.016 C5.48047 6.774 5.41015 6.516 5.39062 5.555 C5.38281 4.363 5.1914 4.004 4.40625 3.668 C5.22265 3.258 5.55078 2.774 5.55078 1.938 C5.55078 0.688 4.77343 0 3.34375 0 L0 0 L0 7.242 L0.92578 7.242 L0.92578 4.121 Z M0.92578 3.309 L0.92578 0.817 L3.16406 0.817 C3.67968 0.817 3.98047 0.895 4.20703 1.094 C4.45703 1.301 4.58593 1.629 4.58593 2.059 C4.58593 2.922 4.14843 3.309 3.16406 3.309 L0.92578 3.309 Z" transform="translate(3.0918, 260.408)"/>
   <path style="fill:#000000; fill-rule:evenodd;stroke:none;" d="M1.41798 2.875 L1.49998 2.875 L1.77738 2.867 C2.50778 2.867 2.88278 3.195 2.88278 3.832 C2.88278 4.5 2.46878 4.898 1.77738 4.898 C1.05858 4.898 0.70708 4.539 0.66018 3.765 L0 3.765 C0.03125 4.191 0.10547 4.469 0.23438 4.711 C0.50388 5.219 1.02738 5.48 1.75778 5.48 C2.85158 5.48 3.55858 4.828 3.55858 3.824 C3.55858 3.152 3.29298 2.777 2.65628 2.558 C3.15238 2.359 3.39848 1.992 3.39848 1.461 C3.39848 0.547 2.79298 0 1.77738 0 C0.70708 0 0.13672 0.582 0.11328 1.715 L0.77348 1.715 C0.78128 1.39 0.81248 1.211 0.89458 1.047 C1.04298 0.754 1.37498 0.574 1.78518 0.574 C2.37108 0.574 2.72268 0.914 2.72268 1.48 C2.72268 1.855 2.58988 2.082 2.29688 2.199 C2.11718 2.277 1.88278 2.304 1.41798 2.312 L1.41798 2.875 Z" transform="translate(9.62402, 264.217)"/>
   <path style="fill:#000000; fill-rule:evenodd;stroke:none;" d="M5.4532 2.242 L5.4532 2.113 C5.4532 1.688 5.3242 1.289 5.0547 0.934 C4.6094 0.316 3.8399 0 2.7969 0 C1.2032 0 0.2188 0.813 0.2188 2.125 C0.2188 3.008 0.6875 3.566 1.6446 3.813 L3.4453 4.289 C4.3672 4.527 4.7774 4.895 4.7774 5.461 C4.7774 5.848 4.5664 6.246 4.2578 6.465 C3.9727 6.676 3.5117 6.773 2.9258 6.773 C2.1289 6.773 1.6016 6.586 1.2539 6.168 C0.9844 5.848 0.8672 5.5 0.875 5.055 L0 5.055 C0.0117 5.719 0.1407 6.156 0.4297 6.555 C0.9258 7.238 1.7617 7.586 2.8672 7.586 C3.7305 7.586 4.4375 7.391 4.9063 7.031 C5.3946 6.645 5.7032 6 5.7032 5.371 C5.7032 4.48 5.1446 3.824 4.1602 3.555 L2.3399 3.066 C1.4649 2.828 1.1446 2.551 1.1446 1.996 C1.1446 1.262 1.793 0.773 2.7657 0.773 C3.9219 0.773 4.5664 1.289 4.5782 2.242 L5.4532 2.242 Z" transform="translate(14.0322, 260.291)"/>
   <path style="fill:#000000; fill-rule:evenodd;stroke:none;" d="M0.836 2.035 L0.0118 2.035 L0.0118 7.242 L0.836 7.242 L0.836 2.035 Z M0.836 0 L0 0 L0 1.043 L0.836 1.043 L0.836 0 Z" transform="translate(20.8818, 260.408)"/>
   <path style="fill:#000000; fill-rule:nonzero;stroke:none;" d="M20.25 19.15 L18.0498 19.15 L0 1.1 L1.1504 0 L20.25 19.15 Z" transform="translate(24.0498, 266.1)"/>
   <path style="fill:#000000; fill-rule:evenodd;stroke:none;" d="M0.92578 4.121 L3.31252 4.121 C4.13672 4.121 4.50782 4.519 4.50782 5.414 L4.49612 6.058 C4.49612 6.507 4.57422 6.945 4.70702 7.242 L5.82812 7.242 L5.82812 7.015 C5.48042 6.773 5.41012 6.515 5.39062 5.554 C5.38282 4.363 5.19142 4.004 4.40622 3.668 C5.22262 3.257 5.55082 2.773 5.55082 1.937 C5.55082 0.687 4.77342 0 3.34372 0 L0 0 L0 7.242 L0.92578 7.242 L0.92578 4.121 Z M0.92578 3.308 L0.92578 0.816 L3.16402 0.816 C3.67972 0.816 3.98042 0.894 4.20702 1.093 C4.45702 1.3 4.58592 1.629 4.58592 2.058 C4.58592 2.921 4.14842 3.308 3.16402 3.308 L0.92578 3.308 Z" transform="translate(7.56348, 302.808)"/>
   <path style="fill:#000000; fill-rule:evenodd;stroke:none;" d="M3.543 4.656 L0.7422 4.656 C0.8125 4.223 1.0508 3.946 1.7032 3.563 L2.4532 3.16 C3.1953 2.754 3.5782 2.207 3.5782 1.559 C3.5782 1.113 3.3985 0.703 3.0821 0.41 C2.7696 0.133 2.3867 0 1.875 0 C1.1992 0 0.6992 0.231 0.4063 0.688 C0.2188 0.973 0.1367 1.301 0.1211 1.84 L0.7813 1.84 C0.8047 1.481 0.8477 1.266 0.9375 1.094 C1.1094 0.77 1.4571 0.574 1.8555 0.574 C2.4532 0.574 2.9024 1.004 2.9024 1.571 C2.9024 1.992 2.6563 2.352 2.1836 2.621 L1.4922 3.008 C0.3828 3.637 0.0625 4.141 0 5.309 L3.543 5.309 L3.543 4.656 Z" transform="translate(14.1113, 306.616)"/>
   <path style="fill:#000000; fill-rule:evenodd;stroke:none;" d="M0.9258 4.171 L3.2031 4.171 C3.7695 4.171 4.2187 4.004 4.6055 3.656 C5.043 3.257 5.2305 2.793 5.2305 2.125 C5.2305 0.765 4.4258 0 2.9922 0 L0 0 L0 7.242 L0.9258 7.242 L0.9258 4.171 Z M0.9258 3.359 L0.9258 0.816 L2.8555 0.816 C3.7383 0.816 4.2656 1.293 4.2656 2.086 C4.2656 2.882 3.7383 3.359 2.8555 3.359 L0.9258 3.359 Z" transform="translate(18.9336, 302.808)"/>
   <path style="fill:#000000; fill-rule:nonzero;stroke:none;" d="M1.0996 18.45 L0 17.35 L17.3496 0 L19.5498 0 L1.0996 18.45 Z" transform="translate(24.75, 285.25)"/>
   <path style="fill:#000000; fill-rule:evenodd;stroke:none;" d="M0.926 4.121 L3.312 4.121 C4.136 4.121 4.508 4.519 4.508 5.414 L4.496 6.058 C4.496 6.507 4.574 6.945 4.707 7.242 L5.828 7.242 L5.828 7.015 C5.48 6.773 5.41 6.515 5.39 5.554 C5.383 4.363 5.191 4.004 4.406 3.668 C5.222 3.257 5.551 2.773 5.551 1.937 C5.551 0.687 4.773 0 3.343 0 L0 0 L0 7.242 L0.926 7.242 L0.926 4.121 Z M0.926 3.308 L0.926 0.816 L3.164 0.816 C3.679 0.816 3.98 0.894 4.207 1.093 C4.457 1.3 4.586 1.629 4.586 2.058 C4.586 2.921 4.148 3.308 3.164 3.308 L0.926 3.308 Z" transform="translate(104.262, 261.308)"/>
   <path style="fill:#000000; fill-rule:evenodd;stroke:none;" d="M3.543 4.656 L0.742 4.656 C0.812 4.223 1.05 3.946 1.703 3.563 L2.453 3.16 C3.195 2.754 3.578 2.207 3.578 1.559 C3.578 1.113 3.398 0.703 3.082 0.41 C2.769 0.133 2.386 0 1.875 0 C1.199 0 0.699 0.231 0.406 0.688 C0.218 0.973 0.136 1.301 0.121 1.84 L0.781 1.84 C0.804 1.481 0.847 1.266 0.937 1.094 C1.109 0.77 1.457 0.574 1.855 0.574 C2.453 0.574 2.902 1.004 2.902 1.571 C2.902 1.992 2.656 2.352 2.183 2.621 L1.492 3.008 C0.382 3.637 0.062 4.141 0 5.309 L3.543 5.309 L3.543 4.656 Z" transform="translate(110.81, 265.116)"/>
   <path style="fill:#000000; fill-rule:evenodd;stroke:none;" d="M5.668 0 L4.793 0 L4.793 5.921 L1.004 0 L0 0 L0 7.242 L0.875 7.242 L0.875 1.371 L4.625 7.242 L5.668 7.242 L5.668 0 Z" transform="translate(115.483, 261.308)"/>
   <path style="fill:#000000; fill-rule:nonzero;stroke:none;" d="M19.05 17.9 L16.85 17.9 L0 1.1 L1.1 0 L19.05 17.9 Z" transform="translate(122.35, 268.25)"/>
   <path style="fill:#000000; fill-rule:evenodd;stroke:none;" d="M0.926 4.121 L3.313 4.121 C4.137 4.121 4.508 4.52 4.508 5.414 L4.496 6.059 C4.496 6.508 4.575 6.945 4.707 7.242 L5.829 7.242 L5.829 7.016 C5.481 6.773 5.411 6.516 5.391 5.555 C5.383 4.363 5.192 4.004 4.407 3.668 C5.223 3.258 5.551 2.773 5.551 1.938 C5.551 0.688 4.774 0 3.344 0 L0 0 L0 7.242 L0.926 7.242 L0.926 4.121 Z M0.926 3.309 L0.926 0.816 L3.164 0.816 C3.68 0.816 3.981 0.895 4.207 1.094 C4.457 1.301 4.586 1.629 4.586 2.059 C4.586 2.922 4.149 3.309 3.164 3.309 L0.926 3.309 Z" transform="translate(108.984, 303.708)"/>
   <path style="fill:#000000; fill-rule:evenodd;stroke:none;" d="M5.453 2.242 L5.453 2.113 C5.453 1.687 5.324 1.289 5.055 0.933 C4.609 0.316 3.84 0 2.797 0 C1.203 0 0.219 0.812 0.219 2.125 C0.219 3.008 0.687 3.566 1.644 3.812 L3.445 4.289 C4.367 4.527 4.777 4.894 4.777 5.461 C4.777 5.847 4.566 6.246 4.258 6.465 C3.973 6.676 3.512 6.773 2.926 6.773 C2.129 6.773 1.601 6.586 1.254 6.168 C0.984 5.847 0.867 5.5 0.875 5.055 L0 5.055 C0.012 5.719 0.141 6.156 0.43 6.555 C0.926 7.238 1.762 7.586 2.867 7.586 C3.73 7.586 4.437 7.39 4.906 7.031 C5.394 6.644 5.703 6 5.703 5.371 C5.703 4.48 5.144 3.824 4.16 3.555 L2.34 3.066 C1.465 2.828 1.144 2.551 1.144 1.996 C1.144 1.262 1.793 0.773 2.766 0.773 C3.922 0.773 4.566 1.289 4.578 2.242 L5.453 2.242 Z" transform="translate(115.755, 303.591)"/>
   <path style="fill:#000000; fill-rule:nonzero;stroke:none;" d="M1.15 18.55 L0 17.45 L17.45 0 L19.65 0 L1.15 18.55 Z" transform="translate(121.75, 286.15)"/>
   <path style="fill:#000000; fill-rule:evenodd;stroke:none;" d="M0.926 4.121 L3.312 4.121 C4.137 4.121 4.508 4.52 4.508 5.414 L4.496 6.059 C4.496 6.508 4.574 6.945 4.707 7.242 L5.828 7.242 L5.828 7.016 C5.48 6.773 5.41 6.516 5.391 5.555 C5.383 4.363 5.191 4.004 4.406 3.668 C5.223 3.258 5.551 2.773 5.551 1.938 C5.551 0.688 4.773 0 3.344 0 L0 0 L0 7.242 L0.926 7.242 L0.926 4.121 Z M0.926 3.309 L0.926 0.816 L3.164 0.816 C3.68 0.816 3.98 0.895 4.207 1.094 C4.457 1.301 4.586 1.629 4.586 2.059 C4.586 2.922 4.148 3.309 3.164 3.309 L0.926 3.309 Z" transform="translate(263.463, 139.208)"/>
   <path style="fill:#000000; fill-rule:evenodd;stroke:none;" d="M3.543 4.656 L0.742 4.656 C0.812 4.222 1.051 3.945 1.703 3.562 L2.453 3.16 C3.195 2.754 3.578 2.207 3.578 1.558 C3.578 1.113 3.398 0.703 3.082 0.41 C2.769 0.132 2.386 0 1.875 0 C1.199 0 0.699 0.23 0.406 0.687 C0.218 0.972 0.136 1.3 0.121 1.839 L0.781 1.839 C0.804 1.48 0.847 1.265 0.937 1.093 C1.109 0.769 1.457 0.574 1.855 0.574 C2.453 0.574 2.902 1.004 2.902 1.57 C2.902 1.992 2.656 2.351 2.183 2.621 L1.492 3.007 C0.383 3.636 0.062 4.14 0 5.308 L3.543 5.308 L3.543 4.656 Z" transform="translate(270.011, 143.017)"/>
   <path style="fill:#000000; fill-rule:evenodd;stroke:none;" d="M0.926 4.172 L3.203 4.172 C3.77 4.172 4.219 4.004 4.605 3.656 C5.043 3.258 5.23 2.793 5.23 2.125 C5.23 0.766 4.426 0 2.992 0 L0 0 L0 7.242 L0.926 7.242 L0.926 4.172 Z M0.926 3.359 L0.926 0.816 L2.855 0.816 C3.738 0.816 4.266 1.293 4.266 2.086 C4.266 2.883 3.738 3.359 2.855 3.359 L0.926 3.359 Z" transform="translate(274.833, 139.208)"/>
   <path style="fill:#000000; fill-rule:nonzero;stroke:none;" d="M21.1 20 L18.9 20 L0 1.1 L1.1 0 L21.1 20 Z" transform="translate(279.15, 144.05)"/>
   <path style="fill:#000000; fill-rule:evenodd;stroke:none;" d="M0.926 4.122 L3.312 4.122 C4.137 4.122 4.508 4.52 4.508 5.414 L4.496 6.059 C4.496 6.508 4.574 6.946 4.707 7.243 L5.828 7.243 L5.828 7.016 C5.48 6.774 5.41 6.516 5.391 5.555 C5.383 4.364 5.191 4.004 4.406 3.668 C5.223 3.258 5.551 2.774 5.551 1.938 C5.551 0.688 4.773 0 3.344 0 L0 0 L0 7.243 L0.926 7.243 L0.926 4.122 Z M0.926 3.309 L0.926 0.817 L3.164 0.817 C3.68 0.817 3.98 0.895 4.207 1.094 C4.457 1.301 4.586 1.629 4.586 2.059 C4.586 2.922 4.148 3.309 3.164 3.309 L0.926 3.309 Z" transform="translate(263.463, 181.607)"/>
   <path style="fill:#000000; fill-rule:evenodd;stroke:none;" d="M3.543 4.656 L0.742 4.656 C0.812 4.223 1.051 3.945 1.703 3.563 L2.453 3.16 C3.195 2.754 3.578 2.207 3.578 1.559 C3.578 1.113 3.398 0.703 3.082 0.41 C2.769 0.133 2.386 0 1.875 0 C1.199 0 0.699 0.23 0.406 0.688 C0.218 0.973 0.136 1.301 0.121 1.84 L0.781 1.84 C0.804 1.48 0.847 1.266 0.937 1.094 C1.109 0.77 1.457 0.574 1.855 0.574 C2.453 0.574 2.902 1.004 2.902 1.57 C2.902 1.992 2.656 2.352 2.183 2.621 L1.492 3.008 C0.383 3.637 0.062 4.141 0 5.309 L3.543 5.309 L3.543 4.656 Z" transform="translate(270.011, 185.416)"/>
   <path style="fill:#000000; fill-rule:evenodd;stroke:none;" d="M0.926 4.172 L3.203 4.172 C3.77 4.172 4.219 4.004 4.605 3.657 C5.043 3.258 5.23 2.793 5.23 2.125 C5.23 0.766 4.426 0 2.992 0 L0 0 L0 7.243 L0.926 7.243 L0.926 4.172 Z M0.926 3.36 L0.926 0.817 L2.855 0.817 C3.738 0.817 4.266 1.293 4.266 2.086 C4.266 2.883 3.738 3.36 2.855 3.36 L0.926 3.36 Z" transform="translate(274.833, 181.607)"/>
   <path style="fill:#000000; fill-rule:nonzero;stroke:none;" d="M1.1 18.5 L0 17.4 L17.35 0 L19.55 0 L1.1 18.5 Z" transform="translate(280.7, 164.05)"/>
   <path style="fill:#000000; fill-rule:evenodd;stroke:none;" d="M0.9258 4.1211 L3.3125 4.1211 C4.1367 4.1211 4.5078 4.51953 4.5078 5.41406 L4.4961 6.0586 C4.4961 6.50778 4.5742 6.94528 4.707 7.24218 L5.8281 7.24218 L5.8281 7.01558 C5.4804 6.77348 5.4101 6.51558 5.3906 5.55469 C5.3828 4.36328 5.1914 4.00391 4.4062 3.66797 C5.2226 3.25781 5.5508 2.77344 5.5508 1.9375 C5.5508 0.6875 4.7734 0 3.3437 0 L0 0 L0 7.24218 L0.9258 7.24218 L0.9258 4.1211 Z M0.9258 3.3086 L0.9258 0.81641 L3.164 0.81641 C3.6797 0.81641 3.9804 0.89453 4.207 1.09375 C4.457 1.30078 4.5859 1.62891 4.5859 2.0586 C4.5859 2.92188 4.1484 3.3086 3.164 3.3086 L0.9258 3.3086 Z" transform="translate(85.2012, 3.85742)"/>
   <path style="fill:#000000; fill-rule:evenodd;stroke:none;" d="M1.418 2.87498 L1.5 2.87498 L1.7773 2.86718 C2.5078 2.86718 2.8828 3.19528 2.8828 3.83198 C2.8828 4.49998 2.4687 4.89848 1.7773 4.89848 C1.0586 4.89848 0.707 4.53908 0.6602 3.76558 L0 3.76558 C0.0312 4.19138 0.1055 4.46878 0.2344 4.71098 C0.5039 5.21878 1.0273 5.48048 1.7578 5.48048 C2.8516 5.48048 3.5586 4.82808 3.5586 3.82418 C3.5586 3.15238 3.293 2.77738 2.6562 2.55858 C3.1523 2.35938 3.3984 1.99218 3.3984 1.46093 C3.3984 0.54687 2.793 0 1.7773 0 C0.707 0 0.1367 0.58203 0.1133 1.71484 L0.7734 1.71484 C0.7812 1.39062 0.8125 1.21093 0.8945 1.04687 C1.043 0.7539 1.375 0.57421 1.7852 0.57421 C2.3711 0.57421 2.7227 0.91406 2.7227 1.48046 C2.7227 1.85546 2.5898 2.08203 2.2969 2.19921 C2.1172 2.27734 1.8828 2.30468 1.418 2.3125 L1.418 2.87498 Z" transform="translate(91.7334, 7.66602)"/>
   <path style="fill:#000000; fill-rule:evenodd;stroke:none;" d="M2.9765 5.35547 L2.9765 7.04296 L3.8515 7.04296 L3.8515 5.35547 L4.8946 5.35547 L4.8946 4.57031 L3.8515 4.57031 L3.8515 0 L3.2031 0 L0 4.42969 L0 5.35547 L2.9765 5.35547 Z M2.9765 4.57031 L0.7656 4.57031 L2.9765 1.48828 L2.9765 4.57031 Z" transform="translate(95.9424, 4.05664)"/>
   <path style="fill:#000000; fill-rule:evenodd;stroke:none;" d="M4.546 5.06641 L5.293 7.24218 L6.328 7.24218 L3.781 0 L2.589 0 L0 7.24218 L0.984 7.24218 L1.753 5.06641 L4.546 5.06641 Z M4.289 4.29297 L1.98 4.29297 L3.175 0.99219 L4.289 4.29297 Z" transform="translate(101.393, 3.85742)"/>
   <path style="fill:#000000; fill-rule:nonzero;stroke:none;" d="M18.3 17.2002 L16.1 17.2002 L0 1.1006 L1.1 0 L18.3 17.2002 Z" transform="translate(108.7, 11.5498)"/>
   <path style="fill:#000000; fill-rule:evenodd;stroke:none;" d="M0.9258 4.1211 L3.3125 4.1211 C4.1367 4.1211 4.5078 4.5195 4.5078 5.4141 L4.4961 6.0586 C4.4961 6.5078 4.5742 6.9453 4.707 7.2422 L5.8281 7.2422 L5.8281 7.0156 C5.4804 6.7735 5.4101 6.5156 5.3906 5.5547 C5.3828 4.3633 5.1914 4.0039 4.4062 3.668 C5.2226 3.2578 5.5508 2.7735 5.5508 1.9375 C5.5508 0.6875 4.7734 0 3.3437 0 L0 0 L0 7.2422 L0.9258 7.2422 L0.9258 4.1211 Z M0.9258 3.3086 L0.9258 0.8164 L3.164 0.8164 C3.6797 0.8164 3.9804 0.8945 4.207 1.0938 C4.457 1.3008 4.5859 1.6289 4.5859 2.0586 C4.5859 2.9219 4.1484 3.3086 3.164 3.3086 L0.9258 3.3086 Z" transform="translate(85.2012, 46.3076)"/>
   <path style="fill:#000000; fill-rule:evenodd;stroke:none;" d="M1.418 2.875 L1.5 2.875 L1.7773 2.8672 C2.5078 2.8672 2.8828 3.1953 2.8828 3.832 C2.8828 4.5 2.4687 4.8984 1.7773 4.8984 C1.0586 4.8984 0.707 4.5391 0.6602 3.7656 L0 3.7656 C0.0312 4.1914 0.1055 4.4688 0.2344 4.7109 C0.5039 5.2188 1.0273 5.4805 1.7578 5.4805 C2.8516 5.4805 3.5586 4.8281 3.5586 3.8242 C3.5586 3.1524 3.293 2.7774 2.6562 2.5586 C3.1523 2.3594 3.3984 1.9922 3.3984 1.4609 C3.3984 0.5469 2.793 0 1.7773 0 C0.707 0 0.1367 0.582 0.1133 1.7149 L0.7734 1.7149 C0.7812 1.3906 0.8125 1.2109 0.8945 1.0469 C1.043 0.7539 1.375 0.5742 1.7852 0.5742 C2.3711 0.5742 2.7227 0.9141 2.7227 1.4805 C2.7227 1.8555 2.5898 2.082 2.2969 2.1992 C2.1172 2.2774 1.8828 2.3047 1.418 2.3125 L1.418 2.875 Z" transform="translate(91.7334, 50.1162)"/>
   <path style="fill:#000000; fill-rule:evenodd;stroke:none;" d="M2.9765 5.3555 L2.9765 7.043 L3.8515 7.043 L3.8515 5.3555 L4.8946 5.3555 L4.8946 4.5703 L3.8515 4.5703 L3.8515 0 L3.2031 0 L0 4.4297 L0 5.3555 L2.9765 5.3555 Z M2.9765 4.5703 L0.7656 4.5703 L2.9765 1.4883 L2.9765 4.5703 Z" transform="translate(95.9424, 46.5068)"/>
   <path style="fill:#000000; fill-rule:evenodd;stroke:none;" d="M4.546 5.0664 L5.293 7.2422 L6.328 7.2422 L3.781 0 L2.589 0 L0 7.2422 L0.984 7.2422 L1.753 5.0664 L4.546 5.0664 Z M4.289 4.293 L1.98 4.293 L3.175 0.9922 L4.289 4.293 Z" transform="translate(101.393, 46.3076)"/>
   <path style="fill:#000000; fill-rule:nonzero;stroke:none;" d="M1.1 18.4502 L0 17.3496 L17.35 0 L19.55 0 L1.1 18.4502 Z" transform="translate(107.45, 28.75)"/>
   <path style="fill:#000000; fill-rule:evenodd;stroke:none;" d="M0.925 4.121 L3.312 4.121 C4.136 4.121 4.507 4.519 4.507 5.414 L4.496 6.058 C4.496 6.507 4.574 6.945 4.707 7.242 L5.828 7.242 L5.828 7.015 C5.48 6.773 5.41 6.515 5.39 5.554 C5.382 4.363 5.191 4.004 4.406 3.668 C5.222 3.257 5.55 2.773 5.55 1.937 C5.55 0.687 4.773 0 3.343 0 L0 0 L0 7.242 L0.925 7.242 L0.925 4.121 Z M0.925 3.308 L0.925 0.816 L3.164 0.816 C3.679 0.816 3.98 0.894 4.207 1.093 C4.457 1.3 4.585 1.629 4.585 2.058 C4.585 2.921 4.148 3.308 3.164 3.308 L0.925 3.308 Z" transform="translate(143.312, 139.308)"/>
   <path style="fill:#000000; fill-rule:evenodd;stroke:none;" d="M1.418 2.875 L1.5 2.875 L1.777 2.867 C2.508 2.867 2.883 3.196 2.883 3.832 C2.883 4.5 2.469 4.899 1.777 4.899 C1.058 4.899 0.707 4.539 0.66 3.766 L0 3.766 C0.031 4.192 0.105 4.469 0.234 4.711 C0.504 5.219 1.027 5.481 1.758 5.481 C2.851 5.481 3.558 4.828 3.558 3.824 C3.558 3.153 3.293 2.778 2.656 2.559 C3.152 2.36 3.398 1.992 3.398 1.461 C3.398 0.547 2.793 0 1.777 0 C0.707 0 0.136 0.582 0.113 1.715 L0.773 1.715 C0.781 1.391 0.812 1.211 0.894 1.047 C1.043 0.754 1.375 0.574 1.785 0.574 C2.371 0.574 2.722 0.914 2.722 1.481 C2.722 1.856 2.59 2.082 2.297 2.199 C2.117 2.278 1.883 2.305 1.418 2.313 L1.418 2.875 Z" transform="translate(149.844, 143.116)"/>
   <path style="fill:#000000; fill-rule:evenodd;stroke:none;" d="M6.109 2.364 C5.82 0.774 4.906 0 3.312 0 C2.34 0 1.555 0.305 1.016 0.903 C0.359 1.618 0 2.653 0 3.825 C0 5.016 0.367 6.039 1.047 6.743 C1.613 7.321 2.328 7.586 3.273 7.586 C5.047 7.586 6.039 6.633 6.258 4.719 L5.305 4.719 C5.223 5.215 5.125 5.551 4.977 5.84 C4.676 6.434 4.059 6.774 3.285 6.774 C1.84 6.774 0.926 5.622 0.926 3.813 C0.926 1.957 1.793 0.813 3.203 0.813 C3.793 0.813 4.34 0.981 4.637 1.27 C4.906 1.52 5.055 1.817 5.164 2.364 L6.109 2.364 Z" transform="translate(154.252, 139.19)"/>
   <path style="fill:#000000; fill-rule:nonzero;stroke:none;" d="M19.35 18.3 L17.15 18.3 L0 1.1 L1.1 0 L19.35 18.3 Z" transform="translate(160.8, 145.9)"/>
   <path style="fill:#000000; fill-rule:evenodd;stroke:none;" d="M0.926 4.121 L3.312 4.121 C4.136 4.121 4.508 4.519 4.508 5.414 L4.496 6.058 C4.496 6.508 4.574 6.945 4.707 7.242 L5.828 7.242 L5.828 7.015 C5.48 6.773 5.41 6.515 5.39 5.555 C5.383 4.363 5.191 4.004 4.406 3.668 C5.222 3.258 5.551 2.773 5.551 1.937 C5.551 0.687 4.773 0 3.343 0 L0 0 L0 7.242 L0.926 7.242 L0.926 4.121 Z M0.926 3.308 L0.926 0.816 L3.164 0.816 C3.679 0.816 3.98 0.894 4.207 1.094 C4.457 1.301 4.586 1.629 4.586 2.058 C4.586 2.922 4.148 3.308 3.164 3.308 L0.926 3.308 Z" transform="translate(143.012, 181.758)"/>
   <path style="fill:#000000; fill-rule:evenodd;stroke:none;" d="M3.543 4.657 L0.742 4.657 C0.812 4.223 1.05 3.946 1.703 3.563 L2.453 3.161 C3.195 2.754 3.578 2.207 3.578 1.559 C3.578 1.114 3.398 0.704 3.082 0.411 C2.769 0.133 2.386 0 1.875 0 C1.199 0 0.699 0.231 0.406 0.688 C0.218 0.973 0.136 1.301 0.121 1.84 L0.781 1.84 C0.804 1.481 0.847 1.266 0.937 1.094 C1.109 0.77 1.457 0.575 1.855 0.575 C2.453 0.575 2.902 1.004 2.902 1.571 C2.902 1.993 2.656 2.352 2.183 2.622 L1.492 3.008 C0.382 3.637 0.062 4.141 0 5.309 L3.543 5.309 L3.543 4.657 Z" transform="translate(149.56, 185.566)"/>
   <path style="fill:#000000; fill-rule:evenodd;stroke:none;" d="M5.668 0 L4.793 0 L4.793 5.922 L1.004 0 L0 0 L0 7.242 L0.875 7.242 L0.875 1.371 L4.625 7.242 L5.668 7.242 L5.668 0 Z" transform="translate(154.233, 181.758)"/>
   <path style="fill:#000000; fill-rule:nonzero;stroke:none;" d="M1.1 17.9 L0 16.8 L16.8 0 L19 0 L1.1 17.9 Z" transform="translate(161.15, 164.2)"/>
   <path style="fill:#000000; fill-rule:evenodd;stroke:none;" d="M0.0821 8.059 L3.3711 8.059 L3.3711 7.879 C2.4297 7.867 2.2383 7.75 2.2383 7.176 L2.2383 0.024 L2.1446 0 L0 1.086 L0 1.254 L0.3203 1.121 C0.5352 1.039 0.7383 0.988 0.8555 0.988 C1.1094 0.988 1.2149 1.156 1.2149 1.551 L1.2149 6.949 C1.2149 7.676 1.0117 7.844 0.0821 7.879 L0.0821 8.059 Z" transform="translate(76.1738, 280.991)"/>
   <path style="fill:#000000; fill-rule:evenodd;stroke:none;" d="M0.082 8.059 L3.371 8.059 L3.371 7.879 C2.429 7.867 2.238 7.75 2.238 7.176 L2.238 0.024 L2.144 0 L0 1.086 L0 1.254 L0.32 1.121 C0.535 1.039 0.738 0.988 0.855 0.988 C1.109 0.988 1.214 1.156 1.214 1.551 L1.214 6.949 C1.214 7.676 1.011 7.844 0.082 7.879 L0.082 8.059 Z" transform="translate(173.225, 280.991)"/>
   <path style="fill:#000000; fill-rule:evenodd;stroke:none;" d="M0.082 8.058 L3.371 8.058 L3.371 7.879 C2.43 7.867 2.239 7.75 2.239 7.175 L2.239 0.023 L2.145 0 L0 1.086 L0 1.254 L0.321 1.121 C0.535 1.039 0.739 0.988 0.856 0.988 C1.11 0.988 1.215 1.156 1.215 1.55 L1.215 6.949 C1.215 7.675 1.012 7.843 0.082 7.879 L0.082 8.058 Z" transform="translate(344.324, 159.892)"/>
   <path style="fill:#000000; fill-rule:evenodd;stroke:none;" d="M1.313 4.125 C2.016 4.125 2.266 4.149 2.527 4.231 C3.289 4.496 3.77 5.188 3.77 6.02 C3.77 7.035 3.102 7.797 2.219 7.797 C1.883 7.797 1.645 7.715 1.203 7.426 C0.859 7.211 0.656 7.129 0.453 7.129 C0.18 7.129 0 7.297 0 7.547 C0 7.965 0.512 8.227 1.348 8.227 C2.219 8.227 3.125 7.938 3.695 7.488 C4.293 6.996 4.625 6.281 4.625 5.449 C4.625 4.828 4.434 4.281 4.102 3.91 C3.852 3.649 3.625 3.504 3.113 3.278 C3.922 2.719 4.219 2.278 4.219 1.633 C4.219 0.656 3.469 0 2.359 0 C1.766 0 1.242 0.192 0.813 0.586 C0.453 0.906 0.274 1.215 0.024 1.93 L0.203 1.981 C0.68 1.098 1.215 0.715 1.969 0.715 C2.754 0.715 3.277 1.227 3.277 1.992 C3.277 2.422 3.102 2.836 2.801 3.149 C2.445 3.504 2.109 3.684 1.301 3.969 L1.313 4.125 Z" transform="translate(223.412, 159.991)"/>
   <path style="fill:#000000; fill-rule:evenodd;stroke:none;" d="M0.0234 8.14 L2.8359 8.14 L2.8359 7.961 C2.0742 7.914 1.9414 7.797 1.9414 7.14 L1.9414 0.023 L1.8945 0 C1.2773 0.203 0.8242 0.32 0 0.523 L0 0.715 L0.0703 0.715 C0.2031 0.703 0.3437 0.691 0.4414 0.691 C0.8242 0.691 0.9414 0.855 0.9414 1.418 L0.9414 7.105 C0.9414 7.746 0.7734 7.902 0.0234 7.961 L0.0234 8.14 Z" transform="translate(91.2764, 160.01)"/>
   <path style="fill:#000000; fill-rule:evenodd;stroke:none;" d="M2.6367 0 C1.0742 0 0 1.145 0 2.789 C0 4.41 1.1094 5.605 2.6133 5.605 C4.1133 5.605 5.2578 4.352 5.2578 2.695 C5.2578 1.121 4.1641 0 2.6367 0 Z M2.4805 0.336 C3.4844 0.336 4.1875 1.48 4.1875 3.113 C4.1875 4.473 3.6484 5.27 2.7539 5.27 C2.2891 5.27 1.8516 4.984 1.5976 4.508 C1.2656 3.887 1.0742 3.051 1.0742 2.207 C1.0742 1.074 1.625 0.336 2.4805 0.336 Z" transform="translate(94.7295, 162.666)"/>
   <path style="fill:#000000; fill-rule:evenodd;stroke:none;" d="M2.883 1.539 L1.68 1.539 L1.68 0.156 C1.68 0.035 1.668 0 1.598 0 L1.359 0.336 C1.156 0.656 0.918 0.953 0.641 1.238 C0.367 1.551 0.523 1.418 0.203 1.609 C0.07 1.691 0 1.766 0 1.836 C0 1.871 0.012 1.895 0.047 1.918 L0.68 1.918 L0.68 5.508 C0.68 6.508 1.035 7.023 1.738 7.023 C2.324 7.023 2.777 6.734 3.168 6.117 L3.016 5.984 C2.754 6.293 2.562 6.402 2.301 6.402 C1.859 6.402 1.68 6.09 1.68 5.328 L1.68 1.918 L2.883 1.918 L2.883 1.539 Z" transform="translate(100.542, 161.248)"/>
   <path style="fill:#000000; fill-rule:evenodd;stroke:none;" d="M3.145 1.742 L3.098 0.109 L2.965 0.109 C2.906 0.191 2.836 0.238 2.777 0.238 C2.691 0.238 2.586 0.215 2.453 0.156 C2.191 0.047 1.906 0 1.621 0 C0.68 0 0 0.621 0 1.48 C0 2.148 0.379 2.625 1.395 3.195 L2.086 3.59 C2.5 3.828 2.703 4.113 2.703 4.484 C2.703 5.008 2.324 5.34 1.715 5.34 C0.895 5.34 0.477 4.887 0.203 3.672 L0.012 3.672 L0.012 5.531 L0.164 5.531 C0.25 5.414 0.297 5.391 0.441 5.391 C0.57 5.391 0.715 5.414 0.988 5.484 C1.309 5.555 1.621 5.605 1.859 5.605 C2.789 5.605 3.539 4.914 3.539 4.078 C3.539 3.48 3.266 3.09 2.539 2.66 L1.25 1.895 C0.918 1.695 0.738 1.406 0.738 1.086 C0.738 0.598 1.106 0.273 1.656 0.273 C2.336 0.273 2.691 0.668 2.965 1.742 L3.145 1.742 Z" transform="translate(104.331, 162.666)"/>
   <path style="fill:#000000; fill-rule:evenodd;stroke:none;" d="M0.024 5.4844 L2.551 5.4844 L2.551 5.3047 C1.942 5.2578 1.762 5.1133 1.762 4.6875 L1.762 1.336 C2.336 0.8008 2.598 0.6563 2.993 0.6563 C3.586 0.6563 3.864 1.0274 3.864 1.8125 L3.864 4.3047 C3.864 5.0547 3.707 5.2578 3.11 5.3047 L3.11 5.4844 L5.59 5.4844 L5.59 5.3047 C5.008 5.2461 4.864 5.1016 4.864 4.5196 L4.864 1.7891 C4.864 0.668 4.34 0 3.457 0 C2.895 0 2.551 0.2032 1.727 0.9649 L1.727 0.0235 L1.645 0 C1.059 0.2149 0.657 0.3477 0 0.5391 L0 0.7383 C0.071 0.7032 0.192 0.6914 0.321 0.6914 C0.668 0.6914 0.762 0.8594 0.762 1.4571 L0.762 4.4102 C0.762 5.0899 0.633 5.2578 0.024 5.3047 L0.024 5.4844 Z" transform="translate(324.191, 26.8652)"/>
   <path style="fill:#000000; fill-rule:evenodd;stroke:none;" d="M2.636 0 C1.074 0 0 1.1446 0 2.7891 C0 4.4102 1.109 5.6055 2.613 5.6055 C4.113 5.6055 5.258 4.3516 5.258 2.6953 C5.258 1.1211 4.164 0 2.636 0 Z M2.48 0.336 C3.484 0.336 4.187 1.4805 4.187 3.1133 C4.187 4.4727 3.648 5.2696 2.754 5.2696 C2.289 5.2696 1.851 4.9844 1.597 4.5078 C1.265 3.8868 1.074 3.0508 1.074 2.2071 C1.074 1.0743 1.625 0.336 2.48 0.336 Z" transform="translate(330.344, 26.8652)"/>
   <path style="fill:#000000; fill-rule:evenodd;stroke:none;" d="M0.024 5.4844 L2.551 5.4844 L2.551 5.3047 C1.942 5.2578 1.762 5.1133 1.762 4.6875 L1.762 1.336 C2.336 0.8008 2.598 0.6563 2.993 0.6563 C3.586 0.6563 3.864 1.0274 3.864 1.8125 L3.864 4.3047 C3.864 5.0547 3.707 5.2578 3.11 5.3047 L3.11 5.4844 L5.59 5.4844 L5.59 5.3047 C5.008 5.2461 4.864 5.1016 4.864 4.5196 L4.864 1.7891 C4.864 0.668 4.34 0 3.457 0 C2.895 0 2.551 0.2032 1.727 0.9649 L1.727 0.0235 L1.645 0 C1.059 0.2149 0.657 0.3477 0 0.5391 L0 0.7383 C0.071 0.7032 0.192 0.6914 0.321 0.6914 C0.668 0.6914 0.762 0.8594 0.762 1.4571 L0.762 4.4102 C0.762 5.0899 0.633 5.2578 0.024 5.3047 L0.024 5.4844 Z" transform="translate(336.191, 26.8652)"/>
   <path style="fill:#000000; fill-rule:evenodd;stroke:none;" d="M4.566 3.5313 C3.996 4.4336 3.48 4.7813 2.719 4.7813 C2.062 4.7813 1.562 4.4727 1.219 3.8282 C0.98 3.3633 0.883 2.9453 0.859 2.1836 L4.531 2.1836 C4.433 1.4063 4.316 1.0625 4.019 0.6797 C3.66 0.25 3.113 0 2.492 0 C1.016 0 0 1.1914 0 2.9336 C0 4.5782 0.859 5.6055 2.23 5.6055 C3.375 5.6055 4.258 4.8985 4.758 3.6133 L4.566 3.5313 Z M0.883 1.8008 C1.016 0.8594 1.418 0.4297 2.148 0.4297 C2.875 0.4297 3.16 0.7657 3.316 1.8008 L0.883 1.8008 Z" transform="translate(342.297, 26.8652)"/>
   <path style="fill:#000000; fill-rule:evenodd;stroke:none;" d="M0.925 4.121 L3.312 4.121 C4.136 4.121 4.507 4.519 4.507 5.414 L4.496 6.058 C4.496 6.507 4.574 6.945 4.707 7.242 L5.828 7.242 L5.828 7.015 C5.48 6.773 5.41 6.515 5.39 5.554 C5.382 4.363 5.191 4.004 4.406 3.668 C5.222 3.257 5.55 2.773 5.55 1.937 C5.55 0.687 4.773 0 3.343 0 L0 0 L0 7.242 L0.925 7.242 L0.925 4.121 Z M0.925 3.308 L0.925 0.816 L3.164 0.816 C3.679 0.816 3.98 0.894 4.207 1.093 C4.457 1.3 4.585 1.629 4.585 2.058 C4.585 2.921 4.148 3.308 3.164 3.308 L0.925 3.308 Z" transform="translate(201.312, 261.308)"/>
   <path style="fill:#000000; fill-rule:evenodd;stroke:none;" d="M3.543 4.656 L0.743 4.656 C0.813 4.223 1.051 3.946 1.704 3.563 L2.454 3.16 C3.196 2.754 3.579 2.207 3.579 1.559 C3.579 1.113 3.399 0.703 3.082 0.41 C2.77 0.133 2.387 0 1.875 0 C1.2 0 0.7 0.231 0.407 0.688 C0.219 0.973 0.137 1.301 0.121 1.84 L0.782 1.84 C0.805 1.481 0.848 1.266 0.938 1.094 C1.11 0.77 1.457 0.574 1.856 0.574 C2.454 0.574 2.903 1.004 2.903 1.571 C2.903 1.992 2.657 2.352 2.184 2.621 L1.493 3.008 C0.383 3.637 0.063 4.141 0 5.309 L3.543 5.309 L3.543 4.656 Z" transform="translate(207.859, 265.116)"/>
   <path style="fill:#000000; fill-rule:evenodd;stroke:none;" d="M5.668 0 L4.793 0 L4.793 5.921 L1.004 0 L0 0 L0 7.242 L0.875 7.242 L0.875 1.371 L4.625 7.242 L5.668 7.242 L5.668 0 Z" transform="translate(212.533, 261.308)"/>
   <path style="fill:#000000; fill-rule:nonzero;stroke:none;" d="M19 17.9 L16.8 17.9 L0 1.1 L1.1 0 L19 17.9 Z" transform="translate(219.45, 268.25)"/>
   <path style="fill:#000000; fill-rule:evenodd;stroke:none;" d="M0.926 4.121 L3.313 4.121 C4.137 4.121 4.508 4.52 4.508 5.414 L4.496 6.059 C4.496 6.508 4.574 6.945 4.707 7.242 L5.828 7.242 L5.828 7.016 C5.481 6.773 5.41 6.516 5.391 5.555 C5.383 4.363 5.192 4.004 4.406 3.668 C5.223 3.258 5.551 2.773 5.551 1.938 C5.551 0.688 4.774 0 3.344 0 L0 0 L0 7.242 L0.926 7.242 L0.926 4.121 Z M0.926 3.309 L0.926 0.816 L3.164 0.816 C3.68 0.816 3.981 0.895 4.207 1.094 C4.457 1.301 4.586 1.629 4.586 2.059 C4.586 2.922 4.149 3.309 3.164 3.309 L0.926 3.309 Z" transform="translate(205.576, 303.708)"/>
   <path style="fill:#000000; fill-rule:evenodd;stroke:none;" d="M3.492 0 C1.41 0 0 1.527 0 3.793 C0 6.066 1.402 7.586 3.5 7.586 C4.387 7.586 5.164 7.32 5.75 6.824 C6.535 6.156 7.004 5.035 7.004 3.851 C7.004 1.519 5.621 0 3.492 0 Z M3.492 0.812 C5.063 0.812 6.078 1.996 6.078 3.832 C6.078 5.582 5.035 6.773 3.5 6.773 C1.949 6.773 0.926 5.582 0.926 3.793 C0.926 2.004 1.949 0.812 3.492 0.812 Z" transform="translate(212.249, 303.591)"/>
   <path style="fill:#000000; fill-rule:nonzero;stroke:none;" d="M1.1 18.25 L0 17.15 L17.15 0 L19.35 0 L1.1 18.25 Z" transform="translate(219.1, 286.15)"/>
   <path style="fill:#000000; fill-rule:evenodd;stroke:none;" d="M0.082 8.059 L3.371 8.059 L3.371 7.879 C2.43 7.867 2.239 7.75 2.239 7.176 L2.239 0.024 L2.145 0 L0 1.086 L0 1.254 L0.321 1.121 C0.535 1.039 0.739 0.988 0.856 0.988 C1.11 0.988 1.215 1.156 1.215 1.551 L1.215 6.949 C1.215 7.676 1.012 7.844 0.082 7.879 L0.082 8.059 Z" transform="translate(270.324, 280.991)"/>
   <path style="fill:#000000; fill-rule:nonzero;stroke:none;" d="M1.7002 0.8496 C1.7002 1.3184 1.3193 1.6992 0.8506 1.6992 C0.3818 1.6992 0 1.3184 0 0.8496 C0 0.3809 0.3818 0 0.8506 0 C1.3193 0 1.7002 0.3809 1.7002 0.8496 Z" transform="translate(50.7998, 29.9004)"/>
   <path style="fill:#000000; fill-rule:nonzero;stroke:none;" d="M1.7002 0.8496 C1.7002 1.3184 1.3193 1.6992 0.8506 1.6992 C0.3818 1.6992 0 1.3184 0 0.8496 C0 0.3809 0.3818 0 0.8506 0 C1.3193 0 1.7002 0.3809 1.7002 0.8496 Z" transform="translate(50.7998, 26.1504)"/>
   <path style="fill:#000000; fill-rule:nonzero;stroke:none;" d="M1.7 0.8496 C1.7 1.3184 1.318 1.7002 0.85 1.7002 C0.381 1.7002 0 1.3184 0 0.8496 C0 0.3809 0.381 0 0.85 0 C1.318 0 1.7 0.3809 1.7 0.8496 Z" transform="translate(133.5, 29.75)"/>
   <path style="fill:#000000; fill-rule:nonzero;stroke:none;" d="M1.7 0.8496 C1.7 1.3184 1.318 1.7002 0.85 1.7002 C0.381 1.7002 0 1.3184 0 0.8496 C0 0.3809 0.381 0 0.85 0 C1.318 0 1.7 0.3809 1.7 0.8496 Z" transform="translate(133.5, 26)"/>
   <path style="fill:#000000; fill-rule:nonzero;stroke:none;" d="M1.7 0.8496 C1.7 1.3184 1.318 1.7002 0.85 1.7002 C0.381 1.7002 0 1.3184 0 0.8496 C0 0.3809 0.381 0 0.85 0 C1.318 0 1.7 0.3809 1.7 0.8496 Z" transform="translate(212, 31)"/>
   <path style="fill:#000000; fill-rule:nonzero;stroke:none;" d="M1.7 0.8496 C1.7 1.3184 1.318 1.7002 0.85 1.7002 C0.381 1.7002 0 1.3184 0 0.8496 C0 0.3809 0.381 0 0.85 0 C1.318 0 1.7 0.3809 1.7 0.8496 Z" transform="translate(212, 27.25)"/>
   <path style="fill:#000000; fill-rule:nonzero;stroke:none;" d="M1.7 0.8496 C1.7 1.3184 1.318 1.6992 0.85 1.6992 C0.381 1.6992 0 1.3184 0 0.8496 C0 0.3809 0.381 0 0.85 0 C1.318 0 1.7 0.3809 1.7 0.8496 Z" transform="translate(290.5, 30.9004)"/>
   <path style="fill:#000000; fill-rule:nonzero;stroke:none;" d="M1.7 0.8496 C1.7 1.3184 1.318 1.6992 0.85 1.6992 C0.381 1.6992 0 1.3184 0 0.8496 C0 0.3809 0.381 0 0.85 0 C1.318 0 1.7 0.3809 1.7 0.8496 Z" transform="translate(290.5, 27.1504)"/>
   <path style="fill:#000000; fill-rule:nonzero;stroke:none;" d="M1.7002 0.85 C1.7002 1.319 1.3193 1.7 0.8506 1.7 C0.3818 1.7 0 1.319 0 0.85 C0 0.381 0.3818 0 0.8506 0 C1.3193 0 1.7002 0.381 1.7002 0.85 Z" transform="translate(54.7998, 165.1)"/>
   <path style="fill:#000000; fill-rule:nonzero;stroke:none;" d="M1.7002 0.85 C1.7002 1.319 1.3193 1.7 0.8506 1.7 C0.3818 1.7 0 1.319 0 0.85 C0 0.381 0.3818 0 0.8506 0 C1.3193 0 1.7002 0.381 1.7002 0.85 Z" transform="translate(54.7998, 161.35)"/>
   <path style="fill:#000000; fill-rule:nonzero;stroke:none;" d="M1.7 0.85 C1.7 1.319 1.319 1.7 0.85 1.7 C0.381 1.7 0 1.319 0 0.85 C0 0.381 0.381 0 0.85 0 C1.319 0 1.7 0.381 1.7 0.85 Z" transform="translate(186.6, 165.2)"/>
   <path style="fill:#000000; fill-rule:nonzero;stroke:none;" d="M1.7 0.85 C1.7 1.319 1.319 1.7 0.85 1.7 C0.381 1.7 0 1.319 0 0.85 C0 0.381 0.381 0 0.85 0 C1.319 0 1.7 0.381 1.7 0.85 Z" transform="translate(186.6, 161.45)"/>
   <path style="fill:#000000; fill-rule:nonzero;stroke:none;" d="M1.7 0.85 C1.7 1.319 1.318 1.7 0.85 1.7 C0.381 1.7 0 1.319 0 0.85 C0 0.381 0.381 0 0.85 0 C1.318 0 1.7 0.381 1.7 0.85 Z" transform="translate(306.75, 165.1)"/>
   <path style="fill:#000000; fill-rule:nonzero;stroke:none;" d="M1.7 0.85 C1.7 1.319 1.318 1.7 0.85 1.7 C0.381 1.7 0 1.319 0 0.85 C0 0.381 0.381 0 0.85 0 C1.318 0 1.7 0.381 1.7 0.85 Z" transform="translate(306.75, 161.35)"/>
   <path style="fill:#000000; fill-rule:nonzero;stroke:none;" d="M1.7002 0.85 C1.7002 1.319 1.3193 1.7 0.8506 1.7 C0.3818 1.7 0 1.319 0 0.85 C0 0.382 0.3818 0 0.8506 0 C1.3193 0 1.7002 0.382 1.7002 0.85 Z" transform="translate(50.7998, 286.3)"/>
   <path style="fill:#000000; fill-rule:nonzero;stroke:none;" d="M1.7002 0.85 C1.7002 1.319 1.3193 1.7 0.8506 1.7 C0.3818 1.7 0 1.319 0 0.85 C0 0.382 0.3818 0 0.8506 0 C1.3193 0 1.7002 0.382 1.7002 0.85 Z" transform="translate(50.7998, 282.55)"/>
   <path style="fill:#000000; fill-rule:nonzero;stroke:none;" d="M1.7 0.85 C1.7 1.319 1.319 1.7 0.85 1.7 C0.381 1.7 0 1.319 0 0.85 C0 0.381 0.381 0 0.85 0 C1.319 0 1.7 0.381 1.7 0.85 Z" transform="translate(244.95, 287.2)"/>
   <path style="fill:#000000; fill-rule:nonzero;stroke:none;" d="M1.7 0.85 C1.7 1.319 1.319 1.7 0.85 1.7 C0.381 1.7 0 1.319 0 0.85 C0 0.381 0.381 0 0.85 0 C1.319 0 1.7 0.381 1.7 0.85 Z" transform="translate(244.95, 283.45)"/>
   <path style="fill:#000000; fill-rule:nonzero;stroke:none;" d="M1.7 0.85 C1.7 1.319 1.319 1.7 0.85 1.7 C0.381 1.7 0 1.319 0 0.85 C0 0.381 0.381 0 0.85 0 C1.319 0 1.7 0.381 1.7 0.85 Z" transform="translate(147.85, 287.2)"/>
   <path style="fill:#000000; fill-rule:nonzero;stroke:none;" d="M1.7 0.85 C1.7 1.319 1.319 1.7 0.85 1.7 C0.381 1.7 0 1.319 0 0.85 C0 0.381 0.381 0 0.85 0 C1.319 0 1.7 0.381 1.7 0.85 Z" transform="translate(147.85, 283.45)"/>
  </g>
 </g>
</svg>
