<?xml version="1.0" standalone="no"?>
<!DOCTYPE svg PUBLIC "-//W3C//DTD SVG 20010904//EN"
 "http://www.w3.org/TR/2001/REC-SVG-20010904/DTD/svg10.dtd">
<svg version="1.0" xmlns="http://www.w3.org/2000/svg"
 width="1800.000000pt" height="1800.000000pt" viewBox="0 0 1800.000000 1800.000000"
 preserveAspectRatio="xMidYMid meet">
<metadata>
Created by potrace 1.12, written by Peter Selinger 2001-2015
</metadata>
<g transform="translate(0.000000,1800.000000) scale(0.100000,-0.100000)"
fill="#000000" stroke="none">
<path d="M0 9274 l0 -8729 266 -272 266 -273 8734 0 8734 0 0 1295 c0 903 -3
1310 -11 1345 -14 63 -57 116 -107 130 -21 5 -188 14 -372 20 -489 16 -891 44
-1359 96 -222 25 -235 25 -277 9 -52 -20 -101 -72 -110 -119 -7 -39 11 -118
61 -271 18 -55 44 -136 58 -180 91 -289 110 -345 121 -361 11 -14 33 -19 104
-23 72 -5 96 -10 121 -29 38 -28 49 -28 91 3 19 14 44 25 57 25 13 0 88 11
166 24 398 68 414 69 438 52 33 -22 81 -20 114 6 24 18 46 23 159 29 72 4 183
13 246 18 63 6 125 11 138 11 l22 0 0 -393 0 -394 -107 4 c-761 24 -1390 77
-2078 173 -127 18 -235 28 -255 25 -43 -8 -204 -161 -220 -210 -13 -38 10
-277 35 -365 8 -30 20 -120 25 -200 6 -80 15 -181 20 -225 6 -44 10 -83 10
-87 0 -10 -1737 -10 -1744 0 -9 15 -55 308 -61 392 -4 47 -18 132 -31 190 -17
70 -28 159 -34 265 -7 122 -14 174 -31 220 -16 44 -23 97 -29 201 -6 111 -13
152 -30 193 -13 28 -20 54 -17 58 3 3 41 -4 84 -15 89 -22 164 -27 210 -11 39
13 123 103 123 133 0 11 6 41 14 66 8 25 22 74 31 110 9 36 22 88 30 115 7 28
21 79 30 115 9 36 27 101 40 145 13 44 30 108 39 143 28 110 63 241 97 368 26
94 21 138 -18 185 -35 41 -60 51 -277 110 -100 27 -294 84 -432 125 l-252 76
-6 44 c-3 24 -16 70 -30 101 -13 32 -27 87 -30 123 -4 36 -16 90 -27 120 -11
30 -31 102 -45 160 -15 58 -35 119 -45 135 -10 17 -22 59 -28 94 -11 70 -28
102 -66 127 -34 23 -105 14 -153 -19 -20 -14 -57 -31 -82 -37 -24 -7 -57 -23
-73 -36 -20 -17 -41 -24 -70 -24 -63 -1 -114 -15 -156 -44 -21 -15 -56 -37
-79 -49 -22 -12 -63 -34 -90 -49 -51 -28 -92 -70 -92 -94 0 -7 -13 -29 -30
-47 -16 -19 -30 -43 -30 -52 0 -10 18 -33 39 -52 22 -18 42 -42 46 -52 3 -10
13 -21 23 -24 9 -3 103 -38 207 -78 105 -40 325 -118 490 -175 l300 -102 5
-38 c3 -22 17 -61 30 -88 18 -38 25 -76 31 -156 5 -70 15 -126 29 -161 12 -30
26 -97 31 -149 6 -52 18 -126 29 -165 17 -64 31 -142 61 -355 6 -41 21 -133
34 -205 24 -129 37 -275 24 -275 -13 0 -451 130 -654 195 -273 87 -618 207
-880 308 -149 57 -221 79 -249 78 -21 -1 -54 3 -72 9 -28 9 -39 8 -63 -6 -28
-16 -30 -21 -24 -60 4 -32 0 -54 -17 -89 -22 -45 -22 -50 -11 -178 6 -73 18
-159 25 -192 20 -85 35 -294 29 -398 -7 -99 11 -329 33 -425 13 -61 20 -192 9
-192 -21 0 -657 250 -921 362 -122 52 -156 63 -175 55 -13 -5 -44 -6 -68 -3
-62 8 -126 -28 -135 -78 -4 -19 -15 -45 -25 -58 -17 -21 -17 -27 -5 -48 22
-40 17 -76 -12 -99 -15 -12 -32 -21 -38 -21 -7 0 -25 -13 -41 -30 -27 -28 -31
-29 -105 -26 -51 3 -90 11 -116 24 -62 31 -197 55 -286 50 -62 -4 -91 -11
-138 -35 -58 -31 -60 -31 -83 -13 -12 10 -44 21 -70 25 -26 4 -59 17 -74 29
-24 19 -43 21 -162 24 l-135 4 -64 -33 c-82 -41 -141 -81 -236 -158 -119 -97
-87 -101 -358 48 -238 131 -578 328 -741 428 -77 48 -87 57 -81 76 8 26 39 94
101 227 50 105 100 213 143 305 16 33 46 98 68 145 22 47 56 121 77 165 20 44
53 114 72 155 19 41 44 94 55 117 l19 41 222 -132 c451 -270 869 -497 1357
-738 296 -146 307 -151 371 -152 42 -1 74 -7 90 -17 23 -16 26 -15 61 5 22 12
42 33 48 51 6 16 19 38 30 50 18 20 19 30 10 314 -8 216 -14 307 -26 345 -11
36 -18 126 -25 306 -5 140 -13 305 -18 365 -5 61 -8 111 -7 112 2 2 121 -54
267 -124 145 -70 367 -172 494 -229 203 -90 232 -100 258 -92 15 6 46 8 67 4
50 -8 124 33 140 78 6 17 20 40 32 53 l21 23 -21 112 c-12 62 -26 186 -31 275
-10 182 -17 201 -93 249 -44 28 -73 81 -56 102 17 20 43 14 66 -18 20 -27 28
-30 76 -30 71 0 143 41 244 140 56 54 81 87 90 116 6 22 21 49 32 59 27 24 28
123 2 163 -10 15 -22 36 -28 46 -6 12 -90 55 -215 111 -430 193 -1059 504
-1059 525 0 4 29 32 65 60 36 29 79 64 94 79 28 26 95 75 134 97 10 7 32 25
48 40 15 16 45 44 66 62 21 18 51 44 66 57 15 14 42 32 60 41 18 9 43 27 57
41 35 34 109 92 169 133 80 54 162 127 184 162 10 18 31 44 46 58 14 15 42 45
61 69 19 23 47 54 63 69 15 14 27 30 27 35 0 11 86 109 105 119 7 5 70 -20
149 -57 315 -150 949 -415 992 -415 76 0 133 56 157 156 10 38 24 92 32 119 7
28 21 79 30 115 9 36 22 88 30 115 7 28 21 79 30 115 9 36 27 101 40 145 13
44 30 107 38 140 9 33 23 89 33 125 9 36 23 90 31 120 8 30 25 91 38 135 76
264 78 286 29 345 -31 37 -65 53 -348 170 -334 138 -549 237 -917 422 l-337
169 8 34 c7 29 36 91 109 230 12 21 21 47 21 56 0 9 12 34 26 55 15 21 31 52
37 69 6 16 24 46 41 66 77 90 140 202 162 288 8 30 28 78 43 105 16 28 32 61
36 73 12 41 76 127 108 146 18 11 55 28 82 37 28 9 68 29 89 44 21 14 44 26
51 26 17 0 197 116 250 161 16 14 48 32 69 39 24 8 60 34 92 68 l53 55 198
-90 198 -91 3 -71 c2 -61 6 -71 21 -71 13 0 21 13 30 55 7 30 14 55 15 55 2 0
100 -39 217 -86 693 -280 1377 -489 2109 -644 129 -28 210 -40 239 -37 78 9
132 66 139 150 3 44 0 62 -22 103 -30 55 -64 107 -96 144 -11 14 -31 42 -43
62 -12 21 -42 63 -66 94 -43 54 -45 58 -51 145 -6 77 -10 93 -32 117 -45 46
-95 144 -108 207 -6 33 -24 87 -40 120 -16 33 -32 83 -36 110 -4 28 -20 74
-35 104 -16 30 -29 61 -29 71 0 23 -68 126 -117 176 -22 22 -60 51 -85 63
l-45 22 -254 -16 c-141 -9 -275 -23 -300 -31 -85 -25 -201 -32 -415 -22 -115
5 -233 6 -262 2 -66 -7 -114 -37 -207 -127 -39 -37 -82 -74 -96 -82 -49 -26
-119 -144 -119 -199 0 -32 -76 -153 -128 -206 -39 -39 -73 -97 -96 -163 -3 -9
-13 -20 -21 -24 -29 -10 -35 10 -20 62 7 28 21 79 30 115 20 79 28 90 71 90
30 0 34 3 34 26 0 23 -86 182 -131 242 -17 22 -16 24 8 62 15 22 35 42 45 46
11 3 27 18 36 33 16 25 91 94 218 199 29 23 71 49 95 57 57 20 65 28 78 79 8
35 21 51 65 85 59 46 126 117 166 175 60 88 34 87 229 12 830 -319 1724 -540
2631 -650 356 -44 538 -58 576 -46 42 14 91 70 99 112 3 18 5 353 3 745 -3
701 -3 712 -24 739 -42 57 -66 67 -181 75 -325 25 -856 120 -1278 229 -1006
259 -1927 686 -2756 1280 -119 85 -158 100 -218 82 -45 -14 -80 -50 -117 -122
-15 -30 -59 -106 -96 -168 -37 -62 -68 -115 -68 -119 0 -3 -34 -61 -75 -130
-41 -68 -75 -127 -75 -130 0 -3 -34 -61 -75 -130 -41 -68 -75 -127 -75 -130 0
-3 -40 -72 -90 -155 -49 -82 -90 -152 -90 -155 0 -3 -16 -31 -34 -62 -72 -118
-71 -193 4 -266 22 -22 107 -81 187 -131 139 -86 148 -93 155 -129 13 -60 0
-95 -87 -240 -39 -64 -28 -153 32 -259 11 -20 15 -50 14 -95 -1 -42 4 -80 14
-105 9 -21 19 -70 22 -108 7 -79 17 -90 129 -146 33 -17 66 -37 73 -46 7 -8
29 -18 50 -22 54 -10 69 -21 86 -62 13 -29 14 -46 6 -82 -13 -55 -12 -204 0
-246 6 -19 27 -43 55 -62 24 -18 47 -38 49 -45 8 -18 -28 -119 -45 -128 -8 -4
-39 -18 -68 -30 -35 -15 -60 -34 -75 -57 -12 -20 -29 -45 -37 -58 l-14 -22
-171 85 c-197 99 -457 240 -598 325 -108 65 -147 76 -200 59 -90 -30 -119
-111 -141 -396 -14 -194 -16 -200 -70 -285 -53 -82 -189 -236 -221 -251 -19
-9 -33 -17 -85 -50 -72 -46 -145 -79 -235 -104 -98 -27 -103 -28 -290 -22
l-190 7 -130 65 c-120 60 -137 73 -233 168 -57 56 -109 116 -116 132 -48 106
-81 346 -72 525 6 112 4 142 -23 290 -17 91 -65 301 -108 467 l-78 303 -30 0
c-25 0 -33 -7 -47 -38 -39 -86 -102 -222 -133 -287 -18 -38 -47 -101 -65 -140
-17 -38 -45 -98 -61 -132 -16 -35 -42 -91 -58 -125 -16 -35 -44 -94 -61 -133
-18 -38 -49 -106 -70 -150 -21 -44 -47 -100 -58 -125 -11 -25 -33 -73 -49
-106 l-28 -61 -140 125 c-281 250 -465 432 -465 458 0 19 -5 24 -24 24 -17 0
-59 37 -152 133 -670 689 -1268 1470 -1724 2252 -99 170 -145 229 -197 251
-48 21 -85 17 -144 -15 -129 -69 -160 -86 -260 -147 -59 -35 -109 -64 -112
-64 -3 0 -62 -34 -130 -75 -69 -41 -127 -75 -130 -75 -3 0 -62 -34 -130 -75
-69 -41 -127 -75 -130 -75 -11 0 -212 -123 -236 -144 -28 -25 -51 -75 -51
-112 0 -37 54 -147 167 -344 436 -751 989 -1519 1559 -2163 82 -93 168 -190
191 -216 l42 -47 -193 -374 c-143 -275 -195 -385 -199 -419 -3 -26 -22 -84
-42 -129 -20 -45 -56 -144 -81 -220 -25 -75 -58 -168 -74 -207 -16 -38 -39
-96 -51 -127 -13 -32 -26 -58 -30 -58 -12 0 -362 363 -534 555 -241 269 -254
282 -299 290 -88 17 -85 19 -563 -458 -475 -476 -475 -476 -459 -561 7 -39 35
-74 231 -291 639 -710 1439 -1456 2181 -2032 94 -73 121 -99 115 -112 -4 -9
-22 -47 -40 -86 -18 -38 -46 -99 -63 -135 -16 -36 -40 -87 -53 -115 -180 -380
-168 -332 -112 -446 52 -106 65 -153 73 -277 6 -79 4 -93 -20 -152 -25 -62
-163 -280 -177 -280 -4 0 -86 58 -184 130 -114 84 -189 132 -212 136 -80 15
-152 -36 -215 -156 -20 -36 -61 -107 -92 -158 -31 -51 -56 -95 -56 -98 0 -4
-34 -62 -75 -131 -41 -68 -75 -127 -75 -130 0 -3 -41 -73 -91 -155 -50 -83
-93 -165 -96 -183 -8 -48 12 -98 56 -138 144 -133 988 -719 1438 -998 128 -79
151 -97 146 -114 -6 -22 -71 -180 -109 -263 -13 -29 -24 -56 -24 -59 0 -4 -9
-25 -19 -47 -10 -23 -38 -86 -61 -141 -23 -55 -53 -124 -66 -153 -13 -29 -24
-55 -24 -57 0 -2 -13 -34 -30 -70 -17 -36 -30 -68 -30 -70 0 -5 -81 -197 -85
-203 -3 -4 -447 276 -665 419 -1054 694 -2004 1448 -2956 2345 -121 114 -180
164 -203 169 -50 11 -126 -4 -149 -28 -28 -31 -99 -178 -132 -272 -15 -44 -42
-120 -59 -170 -45 -128 -128 -290 -176 -343 l-41 -45 -294 291 c-317 314 -321
317 -398 294 -29 -9 -107 -81 -344 -319 -328 -329 -331 -333 -313 -413 7 -33
104 -137 518 -555 l207 -210 88 -28 c102 -32 123 -33 160 -9 15 10 36 22 46
28 23 12 23 12 76 128 36 79 44 110 66 260 29 205 33 223 73 306 56 114 65
130 93 157 l27 26 75 -69 c876 -809 1471 -1301 2274 -1883 78 -57 142 -105
142 -107 0 -2 -402 -4 -892 -4 l-893 0 -185 161 c-102 89 -277 245 -389 348
-283 259 -281 257 -323 265 -21 4 -51 18 -67 31 -26 23 -38 25 -119 25 -71 0
-92 -3 -103 -16 -8 -9 -32 -24 -54 -34 -36 -15 -46 -29 -94 -121 -30 -57 -70
-133 -89 -169 -66 -123 -145 -275 -184 -353 -22 -42 -43 -77 -47 -77 -10 0
-650 646 -794 801 l-107 116 2 760 3 759 75 -85 c85 -97 127 -119 195 -107 36
7 74 41 338 304 230 229 300 305 309 334 22 74 11 93 -185 311 -231 256 -393
444 -585 675 l-152 182 0 812 0 812 32 -45 c502 -695 1082 -1396 1705 -2061
107 -115 198 -208 202 -208 4 0 45 -29 90 -65 46 -35 99 -69 118 -76 88 -29
213 61 245 176 9 33 42 150 73 260 31 110 63 223 70 250 79 294 111 405 116
405 3 0 85 -82 182 -183 178 -186 612 -604 857 -827 398 -361 906 -785 961
-801 50 -16 103 -4 143 31 31 28 103 139 173 270 17 30 56 97 87 148 31 51 56
95 56 98 0 4 33 61 73 128 40 66 76 130 80 140 4 11 29 51 55 90 41 62 47 78
47 123 0 37 -6 60 -21 80 -11 15 -131 120 -266 233 -501 419 -818 709 -1273
1165 -279 278 -577 593 -762 805 -28 32 -35 34 -89 35 -54 0 -59 -2 -80 -33
-15 -22 -25 -55 -29 -100 -16 -172 -68 -573 -95 -722 -16 -91 -40 -235 -55
-320 -14 -85 -33 -189 -42 -230 l-15 -75 -27 31 c-14 17 -100 111 -191 210
-846 916 -1639 1971 -2297 3052 l-123 202 0 1313 0 1312 64 -140 c611 -1349
1393 -2628 2324 -3800 262 -329 316 -385 371 -385 12 0 39 18 61 41 33 34 40
49 40 80 0 21 9 61 20 89 13 33 20 75 20 118 0 45 7 81 20 111 17 36 20 65 20
170 l0 128 -38 34 c-45 41 -84 99 -102 154 -7 22 -21 56 -31 75 -10 19 -22 62
-28 95 -5 33 -23 92 -39 130 -17 39 -40 103 -52 144 -12 41 -35 98 -50 125
-36 64 -86 191 -95 240 -4 21 -18 49 -30 64 -12 15 -33 47 -45 72 -13 25 -57
79 -99 121 -213 211 -357 443 -405 650 -8 37 -22 84 -30 105 -8 22 -22 64 -30
95 -19 69 -68 165 -96 187 -26 21 -42 86 -29 120 5 14 20 37 33 52 22 27 23
37 29 258 5 197 9 240 27 293 12 35 27 71 34 81 12 17 16 12 46 -44 72 -138
269 -484 383 -673 360 -601 743 -1157 1189 -1727 152 -194 182 -224 234 -234
85 -16 85 -16 567 464 352 352 450 455 459 484 17 59 3 102 -58 170 -31 34
-135 168 -233 298 -612 811 -1082 1576 -1537 2504 -162 331 -181 359 -250 372
-70 13 -102 -6 -230 -143 -195 -207 -322 -352 -395 -448 -61 -81 -69 -97 -79
-159 -14 -88 -59 -176 -110 -217 -22 -18 -47 -46 -55 -62 -16 -32 -20 -151 -7
-222 4 -22 5 -58 2 -80 -5 -38 -9 -30 -128 213 -695 1425 -1159 2846 -1426
4372 -130 738 -203 1474 -231 2325 -7 198 -19 256 -63 298 -42 40 -77 49 -219
54 l-133 6 0 -8729z m168 5276 c7 -25 22 -79 33 -120 35 -129 54 -201 209
-780 83 -311 160 -596 170 -635 10 -38 28 -104 39 -145 21 -81 235 -881 252
-942 10 -40 33 -51 41 -20 3 9 38 141 78 292 40 151 77 281 83 288 13 17 56
15 64 -4 3 -8 -11 -77 -32 -152 -20 -75 -45 -168 -55 -207 -52 -198 -121 -448
-126 -456 -19 -32 -58 0 -332 274 -235 236 -283 288 -280 308 2 17 10 25 28
27 21 2 61 -33 235 -208 174 -174 236 -229 235 -207 0 1 -7 27 -16 57 -16 57
-35 128 -78 290 -14 52 -91 340 -171 640 -81 300 -155 577 -165 615 -10 39
-79 298 -154 578 -75 279 -136 515 -136 525 0 26 10 33 39 30 20 -2 28 -12 39
-48z m13117 -2990 c51 -7 185 -60 262 -103 37 -21 220 -235 243 -285 80 -169
78 -165 85 -267 6 -88 4 -112 -18 -199 -14 -54 -30 -103 -35 -108 -16 -16
-448 177 -806 360 -187 96 -502 269 -564 310 -16 11 -1 51 38 99 14 17 33 43
42 56 10 14 56 45 104 69 47 23 96 48 108 55 53 29 368 37 541 13z m-6776
-522 c5 -13 18 -31 29 -42 12 -10 24 -31 27 -46 3 -16 13 -34 21 -41 8 -6 14
-24 14 -40 0 -16 8 -37 19 -48 10 -10 20 -39 23 -65 4 -30 13 -52 24 -61 27
-19 28 -142 2 -156 -10 -6 -18 -21 -18 -34 0 -13 -11 -37 -25 -53 -14 -17 -25
-35 -25 -42 0 -6 -14 -24 -32 -40 -30 -28 -33 -28 -50 -13 -10 9 -26 21 -36
27 -10 6 -33 20 -51 31 -19 11 -45 30 -59 43 -14 12 -31 22 -39 22 -7 0 -23
11 -35 25 -12 14 -28 25 -36 25 -19 0 -92 76 -92 96 0 8 6 27 14 42 8 15 17
48 21 74 4 26 16 54 26 64 10 9 19 22 19 28 1 6 19 27 42 46 23 19 54 47 69
63 15 15 31 27 36 27 4 1 26 21 48 45 22 25 43 45 48 45 4 0 11 -10 16 -22z
m897 -1105 c4 -19 13 -37 21 -40 8 -3 18 -15 23 -27 6 -17 25 -26 89 -40 50
-12 97 -16 124 -13 23 4 86 13 140 20 60 9 104 20 115 30 10 9 41 20 68 23 29
4 60 17 77 31 20 16 41 23 71 23 29 0 52 7 71 22 30 24 128 38 139 20 7 -11
-8 -47 -77 -192 -24 -52 -59 -126 -77 -165 -37 -82 -71 -155 -130 -279 -23
-49 -53 -115 -67 -145 -14 -31 -47 -102 -74 -159 -27 -56 -49 -104 -49 -107 0
-2 -27 -61 -61 -132 -85 -179 -96 -204 -110 -238 l-12 -30 -12 45 c-7 25 -33
135 -59 245 -26 110 -67 284 -91 388 -25 103 -66 274 -91 380 -25 105 -56 236
-68 289 -21 87 -22 97 -7 101 24 5 40 -11 47 -50z m1818 -746 c552 -455 1179
-886 1813 -1247 125 -71 234 -133 242 -138 13 -7 12 -12 -2 -32 -9 -14 -17
-32 -17 -41 0 -9 -13 -33 -30 -54 -16 -20 -32 -46 -36 -58 -9 -30 -61 -89 -94
-107 -14 -8 -35 -23 -46 -33 -26 -24 -101 -84 -164 -132 -61 -45 -125 -111
-170 -173 -27 -38 -77 -79 -194 -160 -21 -15 -57 -44 -78 -64 -21 -21 -42 -38
-47 -38 -4 0 -28 -16 -52 -35 -24 -19 -49 -35 -56 -35 -6 0 -26 -12 -43 -26
-32 -27 -81 -56 -160 -95 -25 -12 -54 -30 -65 -39 -20 -18 -25 -15 -253 130
-335 215 -622 414 -942 656 -207 156 -514 401 -518 414 -4 10 3 26 85 198 29
62 53 115 53 117 0 3 29 66 65 140 36 75 65 138 65 140 0 2 24 55 53 117 30
62 61 129 70 148 15 34 77 168 137 295 15 33 40 87 55 120 16 33 43 93 61 133
19 39 34 77 34 83 0 6 23 -9 51 -33 28 -23 110 -92 183 -151z m-2109 -27 c18
-74 36 -153 39 -175 l6 -40 -94 99 -94 100 51 100 c41 81 52 96 55 76 1 -14
18 -86 37 -160z m700 -910 c83 -75 215 -191 295 -259 80 -69 146 -128 148
-133 2 -4 -9 -34 -23 -65 -15 -32 -44 -94 -65 -138 -21 -44 -49 -106 -64 -137
-14 -32 -38 -84 -52 -115 -15 -32 -45 -98 -69 -148 -23 -49 -55 -117 -70 -150
-15 -33 -42 -91 -60 -130 -18 -38 -47 -101 -65 -140 -17 -38 -42 -92 -55 -120
-102 -216 -135 -287 -135 -295 0 -29 -35 -9 -158 91 -165 135 -469 396 -477
409 -3 5 19 58 48 117 30 59 114 237 187 396 117 253 150 314 150 277 0 -5 13
-10 29 -10 20 0 37 9 55 31 14 17 26 35 26 40 0 5 -11 56 -24 112 -14 56 -39
162 -55 235 -17 72 -44 191 -61 262 -16 72 -44 190 -61 263 -17 72 -33 143
-35 157 -4 17 60 -39 218 -195 123 -121 291 -281 373 -355z m-1381 -897 c89
-87 232 -223 319 -302 86 -79 157 -147 157 -152 0 -14 -204 -419 -211 -419 -9
0 -16 29 -34 129 -23 126 -27 130 -213 190 -86 28 -162 51 -168 51 -5 0 -35
26 -66 58 l-56 57 -5 82 c-6 76 -3 94 33 215 21 73 43 147 49 163 6 17 13 42
16 58 3 15 8 27 12 27 3 0 78 -71 167 -157z m5640 -9 c9 -9 16 -34 17 -57 4
-169 20 -522 25 -565 6 -52 5 -54 -32 -90 -20 -20 -50 -45 -66 -57 -15 -11
-62 -47 -103 -80 -42 -33 -95 -75 -118 -93 -23 -18 -71 -59 -107 -92 -36 -32
-101 -90 -145 -128 -44 -38 -96 -88 -115 -111 -19 -23 -52 -60 -73 -84 l-38
-42 -294 149 c-287 146 -293 150 -272 166 12 10 41 27 64 39 23 11 46 27 50
34 4 8 44 37 88 65 44 29 92 62 106 75 14 12 46 37 70 55 24 18 84 64 133 103
48 38 91 69 95 69 4 0 23 15 43 33 20 17 55 48 77 67 22 19 82 75 133 125 51
49 141 133 201 186 103 93 180 178 206 227 14 26 33 28 55 6z m-1903 -827 c96
-57 245 -143 331 -191 146 -81 156 -89 145 -107 -7 -11 -30 -25 -52 -31 -22
-7 -55 -24 -73 -40 -18 -15 -39 -28 -46 -28 -14 0 -181 -128 -227 -174 -15
-14 -31 -26 -37 -26 -6 0 -48 -31 -93 -70 -64 -54 -90 -70 -114 -70 -36 0
-118 50 -142 87 -37 56 -135 72 -178 29 -13 -13 -27 -37 -30 -53 -20 -90 -31
-108 -77 -132 -41 -22 -50 -24 -84 -13 -43 12 -160 85 -184 114 -8 9 -31 28
-50 40 -32 22 -34 27 -32 68 2 25 -4 65 -12 89 -22 61 -20 82 14 132 19 28 30
57 30 80 0 19 6 42 13 50 27 33 87 69 115 69 15 0 48 6 73 14 24 8 75 20 112
26 48 9 85 24 125 50 31 20 78 49 105 64 26 15 47 31 47 35 0 5 14 14 30 21
17 7 47 26 67 41 20 16 39 29 43 29 4 0 86 -46 181 -103z m-2374 -340 c609
-469 1337 -945 2026 -1326 92 -51 164 -97 161 -102 -3 -5 -29 -27 -57 -48 -29
-21 -84 -70 -123 -107 -65 -62 -74 -76 -92 -139 -35 -116 -36 -142 -12 -256
20 -93 23 -145 30 -504 4 -220 11 -408 15 -419 9 -19 -86 27 -445 222 -744
403 -1511 894 -2186 1401 -135 102 -140 107 -130 131 5 14 31 70 57 125 26 55
58 125 72 155 27 60 70 154 122 265 82 176 109 234 132 285 14 30 43 93 64
138 22 46 54 114 70 150 64 142 84 182 91 182 4 0 96 -69 205 -153z m-1045
-2875 c54 -37 98 -71 98 -75 0 -4 -17 4 -37 18 -21 14 -48 25 -61 25 -13 0
-33 5 -45 12 -29 15 -151 38 -205 38 -24 0 -42 3 -40 8 2 4 21 33 43 63 l40
56 55 -39 c30 -22 99 -70 152 -106z m393 23 c39 -15 90 -35 115 -44 25 -9 67
-27 93 -39 26 -11 76 -31 110 -43 34 -13 76 -34 94 -48 18 -14 46 -37 64 -50
40 -31 55 -68 64 -158 5 -56 3 -85 -10 -128 -10 -31 -22 -58 -26 -61 -10 -6
-195 110 -517 323 -264 175 -257 165 -174 241 55 50 76 51 187 7z m10067 -722
c93 -93 148 -155 148 -168 0 -13 -55 -75 -149 -169 -120 -120 -153 -147 -172
-144 -16 2 -25 11 -27 27 -3 19 19 47 109 137 l114 114 -550 2 -550 3 0 30 0
30 548 5 547 5 -110 110 c-103 102 -125 137 -103 158 22 23 57 -2 195 -140z
m-5708 -1717 c449 -156 980 -317 1461 -445 l150 -40 -912 0 c-502 -1 -913 0
-913 2 0 1 7 24 15 51 24 80 19 113 -34 218 -26 54 -51 112 -55 130 -7 34 3
178 12 178 3 0 127 -42 276 -94z m-2832 -251 l470 -235 -673 0 -673 0 35 38
c20 20 43 48 52 62 9 14 29 43 44 65 36 51 53 90 53 119 0 24 69 96 93 96 6 1
37 21 67 45 30 25 57 45 59 45 2 0 215 -106 473 -235z"/>
<path d="M1955 17985 c-67 -18 -109 -65 -125 -138 -18 -90 12 -743 55 -1187
139 -1419 467 -2758 1001 -4080 81 -200 109 -242 175 -262 48 -14 101 -4 137
27 35 29 179 269 262 435 35 69 111 229 170 355 98 212 107 237 114 310 9 100
18 121 107 241 41 55 99 142 129 192 30 51 57 92 60 92 3 0 19 -39 34 -87 132
-412 579 -1475 654 -1555 31 -34 83 -52 128 -45 18 3 78 33 132 66 54 34 102
61 105 61 3 0 62 34 130 75 69 41 127 75 130 75 3 0 62 34 130 75 69 41 127
75 131 75 3 0 47 25 98 56 51 31 122 73 158 92 201 108 251 170 221 275 -7 23
-52 128 -101 233 -341 731 -606 1492 -774 2217 l-34 148 47 30 c58 36 103 37
167 3 59 -31 101 -69 162 -149 75 -97 196 -226 210 -223 15 4 142 283 142 312
0 23 302 324 402 402 104 81 199 105 251 64 14 -11 30 -20 37 -20 6 0 39 21
73 47 48 37 79 52 146 70 134 36 135 36 151 -44 25 -130 111 -469 165 -653
106 -364 262 -789 414 -1132 34 -75 61 -139 61 -141 0 -3 -43 -8 -95 -12 -70
-5 -102 -12 -119 -26 -15 -12 -52 -22 -105 -28 -54 -6 -89 -15 -102 -27 -13
-12 -44 -19 -103 -24 -64 -5 -90 -12 -111 -28 -19 -15 -42 -22 -73 -22 -32 0
-52 -6 -67 -20 -13 -12 -44 -23 -85 -28 -54 -8 -67 -14 -92 -43 -16 -19 -37
-51 -48 -71 -11 -20 -24 -39 -30 -43 -5 -3 -10 -17 -10 -29 0 -13 -7 -29 -15
-36 -28 -23 -18 -73 23 -112 20 -20 47 -39 59 -42 12 -4 25 -16 28 -26 4 -11
17 -23 30 -26 12 -3 32 -15 43 -27 11 -12 27 -27 34 -34 7 -6 22 -23 33 -38
11 -14 28 -35 38 -46 10 -11 20 -33 23 -49 4 -16 15 -37 25 -46 11 -9 19 -23
19 -31 0 -7 9 -21 20 -30 27 -23 27 -79 1 -93 -30 -15 -49 -12 -56 9 -3 11
-15 23 -26 26 -10 4 -19 12 -19 19 0 20 -66 86 -87 86 -36 0 -43 -20 -43 -126
0 -120 8 -134 74 -134 36 0 47 -5 70 -32 14 -17 26 -37 26 -43 0 -7 9 -20 20
-30 11 -10 20 -27 20 -38 0 -18 31 -65 65 -97 9 -8 29 -27 45 -42 15 -16 33
-28 38 -28 6 0 13 -24 17 -52 9 -67 57 -144 94 -151 31 -7 111 -77 111 -99 0
-9 -7 -33 -16 -54 -22 -52 -22 -148 -1 -172 9 -10 20 -34 23 -53 4 -19 13 -45
21 -58 9 -13 21 -52 28 -86 16 -73 50 -145 69 -145 7 0 166 279 356 628 420
767 384 702 392 699 4 -1 74 -103 156 -227 82 -124 190 -281 240 -349 l90
-124 -40 -82 -41 -82 37 -209 c21 -115 50 -283 66 -374 70 -406 104 -594 127
-720 14 -74 28 -155 32 -180 5 -36 10 -45 26 -45 16 0 36 33 100 162 164 332
345 711 345 724 0 5 2 9 4 9 3 0 125 -121 273 -268 344 -344 638 -605 996
-884 317 -247 729 -534 783 -544 46 -8 89 3 126 34 55 46 56 57 58 432 2 392
-8 496 -58 577 -15 24 -32 53 -38 64 -6 11 -24 34 -40 50 -24 25 -28 36 -25
75 5 81 -8 120 -55 173 -24 27 -44 58 -44 68 0 36 -22 87 -57 130 -27 34 -43
44 -88 54 -60 13 -81 31 -87 69 -3 21 -8 25 -39 25 l-35 0 73 159 c41 87 76
162 78 167 3 4 109 -75 235 -176 246 -197 267 -208 340 -186 44 13 105 78 141
150 12 25 60 108 106 184 46 76 83 141 83 144 0 3 34 61 75 130 41 68 75 127
75 130 0 3 34 61 75 130 41 68 75 127 75 130 0 3 34 61 75 130 41 68 75 127
75 130 0 3 24 44 53 92 45 74 52 93 52 138 0 62 -37 122 -104 167 -57 38 -431
412 -564 563 -124 143 -315 381 -405 505 l-62 87 26 58 c14 32 44 96 66 142
22 47 51 110 65 140 14 31 44 97 68 146 23 50 55 117 70 150 15 33 42 92 60
130 18 39 47 102 65 140 17 39 49 106 70 150 39 82 83 177 127 275 14 30 47
100 73 155 26 55 55 119 65 142 l19 42 46 -107 c661 -1522 2122 -2707 3935
-3192 428 -114 803 -176 1373 -226 l62 -6 0 -2284 0 -2284 -65 0 c-202 0 -765
47 -1110 93 -292 38 -421 42 -461 11 -44 -32 -66 -68 -71 -115 -5 -44 -3 -48
63 -169 17 -31 58 -133 91 -225 14 -38 31 -77 39 -86 8 -9 22 -38 31 -65 9
-27 26 -61 39 -76 12 -15 28 -44 35 -65 7 -21 22 -54 35 -73 13 -19 26 -48 30
-65 8 -38 146 -287 179 -325 7 -8 16 -26 20 -40 4 -14 20 -45 35 -70 16 -25
32 -58 35 -75 4 -16 17 -48 30 -70 12 -22 28 -58 35 -80 7 -22 23 -52 36 -67
12 -15 28 -44 35 -65 6 -21 22 -50 34 -65 12 -15 26 -48 30 -75 4 -26 16 -66
28 -88 12 -22 31 -64 43 -93 l22 -53 -66 6 c-445 43 -948 109 -969 126 -6 6
-19 34 -29 62 -9 29 -25 66 -34 82 -10 17 -26 58 -35 93 -9 35 -27 87 -39 117
-13 29 -27 72 -31 96 -4 24 -15 59 -26 77 -10 18 -26 56 -34 86 -9 29 -27 68
-40 86 -14 19 -25 39 -25 45 0 14 -86 184 -104 205 -7 8 -40 69 -73 135 -76
151 -110 212 -140 248 -13 16 -23 34 -23 41 0 7 -13 30 -30 51 -16 21 -51 73
-77 117 -54 92 -83 118 -129 118 -45 0 -64 -31 -71 -112 -3 -42 -13 -75 -28
-98 -13 -19 -31 -60 -40 -90 -10 -30 -26 -66 -36 -79 -28 -36 -31 -70 -21
-286 7 -160 12 -207 26 -234 10 -19 26 -79 37 -135 10 -56 25 -132 32 -171 18
-86 42 -274 36 -279 -6 -6 -597 144 -814 207 -104 31 -290 87 -413 126 -122
39 -233 71 -246 71 -66 0 -128 -50 -149 -119 -23 -76 -65 -222 -83 -291 -9
-36 -22 -87 -30 -115 -7 -27 -20 -79 -29 -115 -9 -36 -27 -101 -40 -145 -13
-44 -31 -109 -40 -145 -9 -36 -22 -87 -30 -115 -7 -27 -21 -79 -30 -115 -23
-94 -40 -155 -64 -235 -41 -141 -38 -196 17 -248 60 -57 938 -319 1527 -456
120 -28 220 -52 222 -55 11 -11 -26 -402 -41 -438 -22 -51 -20 -90 7 -151 21
-50 22 -64 22 -327 l0 -275 -30 -65 c-24 -54 -29 -78 -28 -140 0 -77 9 -107
42 -150 10 -14 22 -37 25 -52 8 -36 8 -36 -189 9 -189 43 -242 46 -282 17 -56
-42 -78 -90 -129 -284 -9 -36 -22 -87 -30 -115 -7 -27 -20 -79 -29 -115 -9
-36 -27 -101 -40 -145 -13 -44 -31 -109 -40 -145 -9 -36 -22 -87 -30 -115 -7
-27 -21 -79 -30 -115 -9 -36 -22 -86 -30 -111 -18 -56 -19 -91 -4 -161 9 -43
20 -62 58 -98 l47 -46 219 -46 c494 -104 594 -121 638 -108 50 15 133 91 148
137 18 56 7 219 -18 269 -20 37 -22 62 -28 270 -7 265 -10 296 -35 384 -11 36
-29 114 -40 175 -12 60 -34 141 -50 179 -16 38 -28 72 -25 74 2 2 105 -14 229
-37 352 -63 451 -76 495 -62 53 15 147 115 157 166 7 38 4 49 -106 385 -16 47
-56 173 -90 280 -34 107 -75 233 -90 280 -15 47 -40 123 -54 170 -15 47 -50
156 -78 242 -28 87 -49 160 -47 162 2 3 108 -13 234 -34 581 -98 1229 -170
1815 -199 393 -20 625 -24 663 -12 50 17 93 69 106 131 8 37 11 1919 11 6760
l0 6710 -7997 -1 c-6629 0 -8006 -3 -8048 -14z m16025 -765 l0 -770 -37 0
c-44 0 -246 26 -274 35 -19 6 -19 -14 -19 -924 0 -614 -3 -931 -10 -931 -6 0
-10 -127 -10 -360 0 -300 -2 -360 -14 -360 -38 0 -332 43 -444 66 -541 107
-1085 322 -1520 601 l-83 53 -459 0 -460 0 0 408 0 407 -56 70 c-371 462 -634
986 -779 1550 l-33 130 434 3 434 2 0 215 0 215 903 0 904 0 -18 93 c-10 50
-21 131 -25 180 l-7 87 787 0 786 0 0 -770z m-14438 483 l3 -108 19 53 c16 42
24 52 43 52 23 0 23 0 7 -37 -34 -80 -34 -83 -19 -106 7 -12 21 -39 30 -59 15
-37 15 -38 -7 -38 -18 1 -29 13 -50 58 l-26 57 -1 -57 c-1 -51 -3 -58 -21 -58
-19 0 -20 7 -20 168 0 93 3 172 7 175 3 4 12 7 19 7 10 0 14 -27 16 -107z
m728 -67 c0 -192 2 -186 -66 -186 -67 0 -103 66 -91 168 6 58 44 96 89 90 27
-4 28 -3 28 42 0 49 5 60 27 60 10 0 13 -36 13 -174z m860 0 c0 -192 2 -186
-66 -186 -67 0 -103 66 -91 168 6 58 44 96 89 90 27 -4 28 -3 28 42 0 49 5 60
27 60 10 0 13 -36 13 -174z m180 0 c0 -192 2 -186 -66 -186 -67 0 -103 66 -91
168 6 58 44 96 89 90 27 -4 28 -3 28 42 0 49 5 60 27 60 10 0 13 -36 13 -174z
m1390 120 c0 -51 1 -53 24 -49 34 7 66 -13 82 -52 28 -67 10 -171 -34 -194
-23 -12 -71 -14 -96 -5 -14 5 -16 30 -16 173 0 92 3 171 7 174 3 4 12 7 20 7
9 0 13 -16 13 -54z m2630 1 l0 -53 33 4 c57 6 71 -22 75 -144 4 -100 3 -104
-17 -104 -20 0 -21 5 -21 91 0 102 -9 129 -45 129 l-25 0 0 -110 c0 -103 -1
-110 -20 -110 -19 0 -20 7 -20 168 0 93 3 172 7 175 3 4 12 7 20 7 9 0 13 -15
13 -53z m330 -162 c0 -208 -1 -215 -20 -215 -19 0 -20 7 -20 215 0 208 1 215
20 215 19 0 20 -7 20 -215z m1230 41 c0 -192 2 -186 -66 -186 -67 0 -103 66
-91 168 6 58 44 96 89 90 27 -4 28 -3 28 42 0 49 5 60 27 60 10 0 13 -36 13
-174z m840 -41 c0 -208 -1 -215 -20 -215 -19 0 -20 7 -20 215 0 208 1 215 20
215 19 0 20 -7 20 -215z m1080 162 l0 -53 33 4 c57 6 71 -22 75 -144 4 -100 3
-104 -17 -104 -20 0 -21 5 -21 91 0 102 -9 129 -45 129 l-25 0 0 -110 c0 -103
-1 -110 -20 -110 -19 0 -20 7 -20 168 0 93 3 172 7 175 3 4 12 7 20 7 9 0 13
-15 13 -53z m1690 -121 c0 -192 2 -186 -66 -186 -67 0 -103 66 -91 168 6 58
44 96 89 90 27 -4 28 -3 28 42 0 49 5 60 27 60 10 0 13 -36 13 -174z m-3999
123 c31 -31 21 -90 -30 -174 -22 -38 -41 -75 -41 -82 0 -9 15 -13 50 -13 38 0
50 -4 50 -15 0 -12 -15 -15 -71 -15 l-72 0 6 40 c3 23 24 71 46 109 59 96 51
151 -18 136 -34 -7 -50 9 -24 24 31 18 81 13 104 -10z m590 0 c31 -31 21 -90
-30 -174 -22 -38 -41 -75 -41 -82 0 -9 15 -13 50 -13 38 0 50 -4 50 -15 0 -12
-15 -15 -71 -15 l-72 0 6 40 c3 23 24 71 46 109 59 96 51 151 -18 136 -34 -7
-50 9 -24 24 31 18 81 13 104 -10z m149 11 c25 -14 40 -70 40 -155 0 -93 -15
-143 -46 -157 -38 -18 -77 0 -91 42 -15 44 -16 173 -3 222 15 53 55 72 100 48z
m-8969 -26 c66 -58 65 -200 -1 -259 -17 -15 -36 -20 -83 -20 l-62 0 -3 144
c-2 109 1 147 10 153 22 15 116 3 139 -18z m539 -9 c0 -32 2 -35 30 -35 20 0
30 -5 30 -15 0 -10 -10 -15 -30 -15 l-30 0 0 -83 c0 -89 8 -107 48 -107 35 0
22 -24 -16 -28 -21 -2 -37 3 -51 17 -19 19 -21 33 -21 154 0 74 3 137 7 140
17 18 33 5 33 -28z m174 -92 c9 -70 18 -128 20 -130 3 -3 23 60 51 160 10 36
22 57 31 57 17 0 16 4 46 -125 l23 -100 11 75 c6 41 15 101 18 133 6 47 11 57
27 57 23 0 22 8 4 -110 -26 -173 -34 -200 -59 -200 -20 0 -25 10 -44 94 -12
52 -22 103 -23 113 0 10 -11 -20 -24 -67 -34 -122 -42 -140 -64 -140 -22 0
-33 36 -56 195 -18 123 -19 115 3 115 17 0 21 -16 36 -127z m776 6 c0 -131 8
-159 45 -159 37 0 45 28 45 159 0 116 1 121 21 121 20 0 20 -4 17 -141 -3
-134 -4 -142 -27 -160 -13 -10 -38 -19 -56 -19 -18 0 -43 9 -56 19 -23 18 -24
26 -27 160 -3 137 -3 141 17 141 20 0 21 -5 21 -121z m940 -14 l0 -135 50 0
c49 0 50 1 50 29 0 36 40 71 81 71 25 0 29 4 29 29 0 35 -22 55 -55 49 -29 -6
-45 10 -24 23 26 17 69 9 94 -16 23 -22 25 -31 25 -123 0 -110 -1 -112 -64
-112 -19 0 -45 9 -60 21 -21 17 -26 18 -26 5 0 -13 -13 -16 -70 -16 l-70 0 0
155 c0 148 1 155 20 155 19 0 20 -7 20 -135z m1086 31 l39 -104 36 101 c28 81
40 103 57 105 27 4 29 -6 37 -170 7 -136 7 -138 -14 -138 -19 0 -21 6 -22 78
0 42 -3 95 -8 117 l-7 40 -33 -97 c-18 -54 -38 -98 -44 -98 -7 0 -28 44 -46
98 -41 113 -48 106 -50 -45 -1 -88 -2 -93 -22 -93 -21 0 -21 2 -14 148 4 81 9
150 12 155 2 4 12 7 23 7 14 0 27 -24 56 -104z m1295 57 c39 -96 34 -95 68
-20 23 50 36 67 51 67 20 0 20 0 1 -47 -11 -27 -29 -70 -40 -96 -14 -31 -21
-70 -21 -108 0 -52 -2 -59 -20 -59 -18 0 -20 7 -20 60 0 36 -7 74 -16 92 -9
17 -27 59 -40 94 -23 63 -24 64 -4 64 15 0 26 -13 41 -47z m599 12 c0 -32 2
-35 30 -35 20 0 30 -5 30 -15 0 -10 -10 -15 -30 -15 l-30 0 0 -83 c0 -89 8
-107 48 -107 35 0 22 -24 -16 -28 -21 -2 -37 3 -51 17 -19 19 -21 33 -21 154
0 74 3 137 7 140 17 18 33 5 33 -28z m460 15 c0 -17 -7 -20 -50 -20 l-50 0 0
-45 0 -45 45 0 c33 0 45 -4 45 -15 0 -11 -12 -15 -45 -15 l-45 0 0 -75 c0 -68
-2 -75 -20 -75 -19 0 -20 7 -20 155 l0 155 70 0 c63 0 70 -2 70 -20z m1730
-115 c0 -131 -1 -137 -25 -160 -39 -40 -119 -28 -108 16 4 14 9 17 16 10 15
-15 50 -14 65 1 8 8 12 54 12 140 0 121 1 128 20 128 19 0 20 -7 20 -135z
m1710 120 c0 -10 -11 -15 -35 -15 -35 0 -35 0 -35 -44 0 -39 3 -45 29 -55 33
-14 51 -48 51 -97 0 -65 -79 -117 -129 -85 -21 13 -5 29 24 23 34 -6 65 23 65
60 0 43 -16 65 -51 73 -31 7 -32 7 -25 59 3 28 6 61 6 74 0 20 5 22 50 22 38
0 50 -4 50 -15z m337 -67 c22 -46 44 -94 50 -108 10 -20 12 -5 12 83 1 100 2
107 21 107 19 0 20 -7 20 -155 0 -131 -2 -155 -15 -155 -8 0 -23 18 -32 41 -9
23 -33 76 -54 118 l-38 76 0 -117 c-1 -111 -2 -118 -21 -118 -19 0 -20 7 -20
155 0 145 1 155 19 155 13 0 29 -22 58 -82z m524 53 c36 -37 40 -94 8 -135
l-21 -26 21 -33 c11 -18 24 -45 30 -60 10 -24 8 -27 -12 -27 -17 1 -28 14 -47
53 -18 37 -32 53 -47 55 -22 3 -23 0 -23 -52 0 -49 -2 -56 -20 -56 -19 0 -20
7 -20 148 0 82 3 152 7 155 3 4 26 7 50 7 36 0 50 -6 74 -29z m549 -6 c0 -32
2 -35 30 -35 20 0 30 -5 30 -15 0 -10 -10 -15 -30 -15 l-30 0 0 -84 c0 -55 4
-87 13 -94 17 -14 110 -13 119 1 16 25 7 47 -32 83 -29 27 -40 45 -40 66 0 40
33 70 73 66 42 -4 44 -32 2 -33 -24 0 -31 -5 -33 -24 -3 -18 7 -34 37 -62 31
-29 41 -46 41 -69 0 -51 -28 -68 -110 -68 -107 0 -110 5 -110 171 0 74 3 137
7 140 17 18 33 5 33 -28z m391 6 c36 -37 40 -94 8 -135 l-21 -26 21 -33 c11
-18 24 -45 30 -60 10 -24 8 -27 -12 -27 -17 1 -28 14 -47 53 -18 37 -32 53
-47 55 -22 3 -23 0 -23 -52 0 -49 -2 -56 -20 -56 -19 0 -20 7 -20 148 0 82 3
152 7 155 3 4 26 7 50 7 36 0 50 -6 74 -29z m-10929 -42 c66 -35 61 -210 -7
-241 -59 -27 -115 32 -115 120 0 99 57 156 122 121z m199 -8 c22 -18 24 -28
27 -125 4 -102 3 -106 -17 -106 -20 0 -21 5 -21 91 0 102 -9 129 -45 129 l-25
0 0 -110 c0 -103 -1 -110 -20 -110 -19 0 -20 7 -20 119 0 105 2 120 18 124 40
11 81 6 103 -12z m704 -6 c23 -22 25 -31 25 -123 0 -110 -1 -112 -64 -112 -78
0 -116 85 -60 129 15 12 40 21 55 21 25 0 29 4 29 29 0 35 -22 55 -55 49 -29
-6 -45 10 -24 23 26 17 69 9 94 -16z m706 6 c22 -18 24 -28 27 -125 4 -102 3
-106 -17 -106 -20 0 -21 5 -21 91 0 102 -9 129 -45 129 l-25 0 0 -110 c0 -103
-1 -110 -20 -110 -19 0 -20 7 -20 119 0 105 2 120 18 124 40 11 81 6 103 -12z
m349 9 c21 -11 40 -60 40 -101 0 -29 -1 -29 -61 -29 l-61 0 6 -32 c9 -45 25
-60 62 -56 18 1 36 -1 41 -5 12 -12 -18 -27 -55 -27 -65 0 -101 67 -89 168 8
71 64 110 117 82z m1040 0 c21 -11 40 -60 40 -101 0 -29 -1 -29 -61 -29 l-61
0 6 -32 c9 -45 25 -60 62 -56 18 1 36 -1 41 -5 12 -12 -18 -27 -55 -27 -65 0
-101 67 -89 168 8 71 64 110 117 82z m655 -15 c23 -22 25 -31 25 -123 0 -110
-1 -112 -64 -112 -19 0 -45 9 -60 21 -55 43 -18 129 55 129 25 0 29 4 29 29 0
35 -22 55 -55 49 -29 -6 -45 10 -24 23 26 17 69 9 94 -16z m295 15 c21 -11 40
-60 40 -101 0 -29 -1 -29 -61 -29 l-61 0 6 -32 c9 -45 25 -60 62 -56 18 1 36
-1 41 -5 12 -12 -18 -27 -55 -27 -65 0 -101 67 -89 168 8 71 64 110 117 82z
m915 -15 c23 -22 25 -31 25 -123 0 -110 -1 -112 -64 -112 -19 0 -45 9 -60 21
-55 43 -18 129 55 129 25 0 29 4 29 29 0 35 -22 55 -55 49 -29 -6 -45 10 -24
23 26 17 69 9 94 -16z m186 6 c22 -18 24 -28 27 -125 4 -102 3 -106 -17 -106
-20 0 -21 5 -21 91 0 102 -9 129 -45 129 l-25 0 0 -110 c0 -103 -1 -110 -20
-110 -19 0 -20 7 -20 119 0 105 2 120 18 124 40 11 81 6 103 -12z m361 8 c66
-35 61 -210 -7 -241 -59 -27 -115 32 -115 120 0 99 57 156 122 121z m508 1
c21 -11 40 -60 40 -101 0 -29 -1 -29 -61 -29 l-61 0 6 -32 c9 -45 25 -60 62
-56 18 1 36 -1 41 -5 12 -12 -18 -27 -55 -27 -65 0 -101 67 -89 168 8 71 64
110 117 82z m175 0 c4 -7 12 -7 25 0 33 18 67 11 89 -16 18 -23 21 -41 21
-125 0 -92 -1 -99 -20 -99 -19 0 -20 7 -20 99 0 103 -9 127 -46 119 -14 -3
-16 -17 -15 -110 2 -103 1 -108 -18 -108 -20 0 -21 6 -21 98 0 101 -7 122 -42
122 -16 0 -18 -11 -18 -110 0 -103 -1 -110 -20 -110 -19 0 -20 7 -20 119 0
105 2 120 18 124 32 9 81 7 87 -3z m376 -9 c22 -18 24 -28 27 -125 4 -102 3
-106 -17 -106 -20 0 -21 5 -21 91 0 102 -9 129 -45 129 l-25 0 0 -110 c0 -103
-1 -110 -20 -110 -19 0 -20 7 -20 119 0 105 2 120 18 124 40 11 81 6 103 -12z
m171 8 c66 -35 61 -210 -7 -241 -59 -27 -115 32 -115 120 0 99 57 156 122 121z
m1589 -8 c22 -18 24 -28 27 -125 4 -102 3 -106 -17 -106 -20 0 -21 5 -21 91 0
102 -9 129 -45 129 l-25 0 0 -110 c0 -103 -1 -110 -20 -110 -19 0 -20 7 -20
119 0 105 2 120 18 124 40 11 81 6 103 -12z m1491 8 c66 -35 61 -210 -7 -241
-59 -27 -115 32 -115 120 0 99 57 156 122 121z m542 5 c14 -5 16 -27 16 -141
0 -129 -1 -135 -25 -158 -25 -26 -76 -33 -104 -16 -21 14 -5 28 27 23 34 -5
62 19 62 53 0 18 -4 22 -20 18 -64 -17 -105 36 -98 125 4 45 10 60 32 79 27
23 76 30 110 17z m826 -4 c21 -11 40 -60 40 -101 0 -29 -1 -29 -61 -29 l-61 0
6 -32 c9 -45 25 -60 62 -56 18 1 36 -1 41 -5 12 -12 -18 -27 -55 -27 -65 0
-101 67 -89 168 8 71 64 110 117 82z m155 -10 c0 -9 -10 -14 -30 -15 -24 0
-31 -5 -33 -24 -3 -18 7 -34 37 -62 l41 -38 0 42 c0 52 17 87 51 106 56 31
109 -17 109 -99 l0 -30 -61 0 -61 0 6 -32 c9 -45 25 -60 62 -56 18 1 36 -1 41
-5 12 -12 -18 -27 -55 -27 -36 0 -82 37 -83 67 0 10 -5 2 -12 -17 -14 -39 -48
-57 -91 -46 -36 9 -28 32 9 28 29 -4 45 10 45 40 0 10 -18 34 -40 54 -46 43
-53 81 -19 115 24 24 84 24 84 -1z m595 10 c21 -11 40 -60 40 -101 0 -29 -1
-29 -61 -29 l-61 0 6 -32 c9 -45 25 -60 62 -56 18 1 36 -1 41 -5 12 -12 -18
-27 -55 -27 -65 0 -101 67 -89 168 8 71 64 110 117 82z m-8020 -12 c0 -7 -18
-50 -40 -96 -22 -46 -40 -87 -40 -92 0 -6 18 -10 40 -10 29 0 40 -4 40 -15 0
-12 -14 -15 -65 -15 -79 0 -80 1 -25 117 22 47 40 87 40 89 0 2 -16 4 -35 4
-24 0 -35 5 -35 15 0 12 13 15 60 15 41 0 60 -4 60 -12z m598 -35 c6 -27 14
-65 17 -85 4 -21 10 -38 14 -38 4 0 13 30 20 68 18 97 20 102 42 102 10 0 19
-2 19 -5 0 -3 -11 -56 -24 -119 -26 -122 -45 -170 -75 -186 -30 -15 -71 -13
-71 5 0 9 9 15 23 15 45 0 48 34 16 161 -34 136 -34 129 -10 129 15 0 22 -11
29 -47z m3082 -44 c0 -106 9 -129 50 -129 l30 0 0 110 c0 103 1 110 20 110 19
0 20 -7 20 -119 0 -115 -1 -119 -22 -125 -49 -13 -89 -6 -113 19 -23 22 -25
31 -25 125 0 93 1 100 20 100 19 0 20 -7 20 -91z m258 44 c6 -27 14 -65 17
-85 4 -21 10 -38 14 -38 4 0 13 30 20 68 18 97 20 102 42 102 10 0 19 -2 19
-5 0 -3 -11 -56 -24 -119 -26 -122 -45 -170 -75 -186 -30 -15 -71 -13 -71 5 0
9 9 15 23 15 45 0 48 34 16 161 -34 136 -34 129 -10 129 15 0 22 -11 29 -47z
m3850 0 c6 -27 14 -65 17 -86 11 -59 21 -52 34 26 17 101 20 107 42 107 22 0
21 -13 -10 -159 l-16 -76 -34 0 -35 0 -16 76 c-32 143 -33 159 -11 159 15 0
22 -11 29 -47z m-9124 -495 c3 -24 10 -97 16 -163 32 -347 101 -803 186 -1221
l6 -32 -140 -67 c-162 -78 -164 -80 -267 -284 -48 -98 -132 -230 -240 -381
-18 -25 -67 -113 -109 -197 -42 -84 -120 -232 -174 -330 -88 -162 -100 -190
-127 -302 l-29 -123 -19 54 c-10 29 -47 148 -82 263 -266 882 -433 1776 -510
2743 l-7 82 745 0 746 0 5 -42z m3386 32 c0 -30 55 -375 81 -510 73 -376 159
-685 301 -1083 l59 -168 -59 -67 c-56 -63 -110 -101 -257 -182 -111 -61 -95
-58 -360 -68 -236 -10 -548 0 -567 17 -4 3 0 33 7 66 21 86 19 170 -6 240 -30
87 -31 206 -1 263 16 30 25 68 29 128 10 143 -26 188 -136 170 -44 -7 -64 10
-100 81 -50 101 -218 233 -295 233 -15 0 -29 6 -31 13 -18 49 -100 579 -128
835 l-5 42 734 0 c498 0 734 -3 734 -10z m2050 7 c0 -1 11 -68 25 -147 70
-398 179 -784 329 -1163 l64 -162 26 -271 c14 -149 26 -281 26 -292 0 -59 50
9 107 146 15 35 16 36 30 17 8 -11 28 -46 44 -78 51 -100 197 -344 287 -481
48 -72 90 -136 94 -142 4 -5 -2 -28 -12 -50 -19 -39 -92 -194 -145 -309 -15
-33 -44 -96 -65 -140 -21 -44 -48 -102 -60 -130 -12 -27 -42 -90 -65 -140 -23
-49 -54 -115 -68 -146 -14 -30 -44 -96 -67 -145 -43 -90 -97 -207 -130 -279
-10 -22 -43 -92 -73 -155 -30 -63 -67 -144 -82 -179 l-29 -64 18 -104 c9 -58
16 -107 13 -109 -12 -12 -483 498 -591 638 l-28 38 17 37 c23 49 319 652 394
803 43 87 62 115 77 115 13 0 20 -9 24 -30 5 -27 9 -30 49 -33 l44 -3 -7 68
c-6 59 -58 497 -166 1388 -38 316 -39 325 -54 325 -6 0 -19 -15 -27 -32 -9
-18 -42 -82 -74 -143 -32 -60 -87 -165 -121 -232 -35 -68 -94 -180 -130 -250
-37 -71 -87 -167 -111 -214 l-44 -87 25 -49 c29 -54 51 -153 42 -189 -3 -12
-17 -36 -31 -53 -24 -27 -25 -35 -19 -95 8 -78 -8 -145 -42 -177 -19 -18 -31
-21 -68 -16 -42 6 -45 5 -70 -31 -14 -21 -26 -50 -26 -65 0 -14 23 -189 51
-388 27 -199 49 -363 47 -365 -6 -5 -203 276 -307 438 -157 244 -282 464 -420
738 -116 232 -252 536 -266 592 -10 44 175 209 295 264 25 12 93 39 152 60
122 44 125 49 89 141 -11 29 -20 82 -22 133 -4 73 -2 85 13 88 22 4 58 -65 58
-111 0 -19 6 -40 14 -47 8 -6 16 -28 18 -48 6 -72 29 -50 104 100 39 79 175
350 302 602 128 252 232 467 232 477 0 28 -67 42 -200 43 -115 1 -132 -2 -227
-46 -22 -11 -46 6 -162 109 l-36 32 468 1 c257 0 467 -1 467 -3z m1030 -25 c0
-16 9 -62 20 -103 16 -59 21 -119 26 -304 3 -126 12 -288 20 -360 8 -71 14
-159 13 -195 l0 -65 -18 45 c-17 42 -21 45 -56 45 -23 0 -41 -6 -46 -15 -5 -8
-49 -98 -98 -200 -134 -280 -230 -478 -264 -548 l-31 -64 -17 34 c-9 18 -46
98 -82 178 l-65 145 -35 435 c-22 281 -31 442 -25 455 5 11 14 29 21 40 7 11
26 42 42 70 17 27 35 57 40 66 6 9 20 34 33 55 12 22 31 53 42 69 10 17 27 45
36 63 16 32 16 32 93 32 42 0 81 4 87 8 5 5 25 15 44 22 65 26 148 79 153 100
4 15 13 20 36 20 27 0 31 -3 31 -28z m1202 11 c-5 -10 -22 -45 -37 -78 -15
-33 -42 -91 -60 -130 -18 -38 -50 -106 -70 -150 -21 -44 -52 -111 -70 -150
-37 -77 -90 -194 -125 -269 -16 -36 -24 -46 -30 -35 -38 69 -182 544 -215 709
-9 47 -19 93 -21 103 -5 16 15 17 316 17 302 0 320 -1 312 -17z m-9934 -486
c68 -254 132 -493 142 -532 10 -38 28 -104 39 -145 11 -41 86 -320 166 -620
81 -300 155 -576 165 -615 10 -38 25 -92 33 -120 l14 -50 11 40 c6 22 25 92
42 155 39 141 61 226 94 352 13 53 29 105 35 117 14 25 59 29 67 6 6 -14 -194
-789 -216 -842 -22 -52 -45 -34 -358 280 -252 253 -303 308 -300 328 2 16 11
25 27 27 20 3 67 -39 273 -245 136 -136 248 -244 248 -240 0 4 -32 126 -71
270 -70 260 -85 314 -133 497 -14 52 -91 340 -171 640 -81 300 -155 577 -165
615 -10 39 -47 177 -82 308 l-65 237 41 0 41 0 123 -463z m10966 -1626 c27
-11 66 -46 66 -60 0 -3 -9 -12 -20 -18 -15 -10 -22 -10 -32 0 -27 26 -65 36
-83 23 -15 -11 -16 -16 -5 -36 7 -12 23 -32 37 -44 30 -26 44 -81 29 -116 -11
-27 -36 -57 -36 -44 0 5 -5 3 -12 -4 -7 -7 -22 -12 -34 -12 -32 0 -106 34
-128 59 -20 21 -20 22 0 41 19 19 20 19 62 -9 56 -38 89 -31 83 17 -1 7 -20
31 -42 54 -43 44 -48 71 -24 118 23 44 75 55 139 31z m278 -121 c21 -9 35 -20
31 -23 -3 -4 -1 -7 6 -7 7 0 19 -6 26 -14 12 -11 10 -16 -9 -34 l-24 -20 -27
24 c-16 13 -33 24 -39 25 -6 0 -18 2 -27 4 -29 5 -75 -25 -92 -61 -20 -40 -22
-94 -5 -94 6 0 9 -3 5 -6 -13 -13 52 -52 76 -46 19 5 44 -19 42 -40 -5 -63
-166 1 -196 79 -22 59 1 138 58 190 49 45 107 53 175 23z m242 -116 l34 -17
-4 -91 c-5 -126 -13 -228 -18 -233 -2 -3 -18 3 -35 11 -25 13 -30 21 -27 45 4
39 -1 44 -56 69 l-47 21 -24 -28 c-22 -27 -25 -28 -55 -15 -37 15 -40 24 -12
44 11 8 20 18 20 23 0 8 177 187 185 187 2 0 20 -7 39 -16z m243 -125 c6 -13
14 -40 16 -59 3 -19 6 -36 7 -37 2 -2 4 -12 5 -23 1 -11 3 -21 5 -22 1 -2 3
-11 5 -21 6 -33 11 -28 44 52 l33 80 32 -16 33 -15 -61 -140 c-58 -133 -62
-139 -86 -133 -32 8 -31 7 -36 52 -8 79 -13 118 -14 118 -2 0 -10 37 -12 58
-1 9 -4 17 -6 17 -3 0 -57 -115 -73 -157 -7 -20 -11 -21 -39 -12 -16 6 -30 15
-30 21 0 9 81 200 106 250 12 22 18 26 37 19 12 -4 27 -19 34 -32z m384 -150
c18 -9 44 -55 41 -71 -1 -4 6 -39 16 -79 l18 -72 35 80 35 81 31 -17 31 -16
-62 -141 -62 -142 -27 14 c-15 8 -27 20 -28 27 -2 34 -17 142 -19 142 -2 0
-10 37 -12 58 -3 25 -7 22 -24 -18 -8 -20 -25 -60 -38 -90 l-24 -54 -31 12
c-17 6 -31 14 -31 18 0 3 20 51 44 106 24 55 51 116 60 136 17 41 18 42 47 26z
m-6237 -160 c20 -15 34 -19 54 -15 50 13 66 11 70 -6 2 -9 -93 -202 -211 -430
-118 -227 -233 -450 -257 -496 l-42 -83 -51 83 c-129 215 -437 793 -437 821 0
18 66 36 150 42 56 4 112 15 136 26 25 11 83 21 157 27 82 6 122 13 134 24 24
21 48 25 169 27 89 1 105 -2 128 -20z m6818 -84 c46 -20 68 -39 68 -58 0 -24
-46 -33 -65 -13 -9 9 -19 16 -23 17 -43 5 -52 4 -57 -9 -3 -9 0 -19 7 -24 7
-4 9 -8 4 -8 -6 0 4 -15 21 -32 49 -53 57 -75 43 -119 -14 -41 -60 -72 -96
-65 -59 12 -134 60 -134 86 0 19 58 28 70 10 3 -4 15 -12 27 -19 73 -38 96 24
28 77 -13 11 -21 22 -18 26 3 3 1 6 -5 6 -18 0 -24 54 -9 88 7 18 16 29 20 25
4 -3 7 -1 7 5 0 21 69 26 112 7z m277 -119 c52 -27 87 -80 90 -136 2 -58 -17
-101 -68 -148 -31 -29 -41 -32 -89 -31 -93 3 -171 74 -166 151 4 63 24 106 64
141 32 27 49 34 89 36 30 1 62 -4 80 -13z m251 -128 c0 -6 -20 -57 -45 -114
-25 -56 -45 -105 -45 -108 0 -2 25 -16 56 -30 49 -23 55 -28 48 -48 -3 -13 -8
-25 -10 -27 -2 -2 -44 13 -94 34 -71 30 -90 42 -85 54 3 9 31 73 62 143 l55
126 29 -10 c16 -5 29 -15 29 -20z m164 -94 c-1 -16 -5 -71 -8 -122 -6 -84 -5
-92 9 -79 8 9 15 21 15 27 0 6 5 8 10 5 6 -3 10 -1 10 4 0 6 26 37 58 70 l58
59 32 -17 32 -17 -86 -84 c-162 -160 -146 -148 -174 -136 -36 15 -38 21 -33
105 2 42 6 108 7 146 2 39 4 76 5 83 1 9 8 9 34 -1 26 -11 32 -19 31 -43z
m-6639 -430 c30 -220 62 -448 70 -509 8 -60 31 -225 50 -366 l35 -256 -43 -89
c-47 -94 -120 -246 -182 -379 -21 -44 -39 -82 -41 -84 -11 -12 -536 610 -609
723 -16 23 -6 45 320 696 185 370 339 670 341 667 3 -3 30 -184 59 -403z
m7001 300 c44 -20 80 -37 82 -39 1 -1 -2 -14 -9 -28 l-11 -25 -59 25 c-33 14
-61 24 -63 22 -3 -2 -7 -15 -11 -29 -5 -22 -1 -27 40 -43 47 -20 51 -26 35
-57 -10 -19 -11 -19 -56 0 -25 11 -47 20 -50 20 -2 0 -10 -13 -19 -30 l-15
-29 46 -21 c26 -11 49 -20 53 -20 24 -1 32 -18 20 -44 -7 -14 -16 -25 -19 -24
-4 2 -48 20 -97 42 l-90 39 61 138 c34 77 66 139 72 139 6 0 47 -16 90 -36z
m-6497 -418 c33 -43 61 -81 61 -85 0 -9 -90 -187 -90 -179 0 3 -11 83 -25 178
-14 95 -25 175 -25 178 0 8 7 -1 79 -92z m1310 -705 c12 -8 12 -25 2 -113 -17
-138 -27 -177 -78 -287 -40 -86 -45 -93 -60 -78 -15 14 -12 26 31 135 53 135
68 218 43 228 -8 3 -30 -2 -47 -11 -44 -23 -50 -11 -12 28 17 18 36 47 42 64
14 38 49 53 79 34z m-247 -417 c31 -27 57 -55 57 -62 1 -14 -195 -452 -208
-465 -5 -5 -11 16 -15 45 -4 29 -29 175 -56 323 -26 149 -54 307 -62 351 l-14
82 120 -113 c67 -62 147 -134 178 -161z m-464 -126 c29 -200 52 -366 52 -369
0 -4 -19 0 -42 9 -49 18 -167 19 -313 3 -49 -6 -90 -9 -92 -7 -5 5 329 726
336 726 4 0 30 -163 59 -362z m4627 -5778 c110 -22 304 -59 430 -80 240 -42
255 -47 255 -95 0 -12 12 -44 26 -71 16 -29 30 -78 35 -119 5 -38 20 -95 33
-125 13 -30 32 -102 42 -160 15 -91 22 -111 51 -147 19 -24 40 -43 46 -43 16
0 84 -56 97 -80 8 -14 4 -25 -15 -48 -28 -34 -31 -54 -11 -72 8 -6 20 -28 27
-48 6 -20 28 -55 48 -77 49 -54 69 -101 50 -120 -32 -30 -132 -44 -274 -38
-129 6 -137 5 -166 -16 -16 -12 -54 -26 -84 -32 -31 -5 -79 -21 -108 -34 -28
-14 -59 -25 -68 -25 -8 0 -40 -12 -69 -27 -30 -15 -89 -39 -130 -54 -217 -77
-240 -92 -240 -155 0 -20 -5 -34 -12 -34 -31 0 -378 75 -378 82 0 23 76 89
114 98 72 19 207 83 227 108 24 31 24 70 0 214 -27 161 -30 186 -46 448 -9
144 -20 254 -30 285 -8 28 -22 111 -30 185 -8 74 -23 160 -33 191 -11 30 -23
75 -27 98 -7 42 -6 44 16 38 13 -3 114 -24 224 -47z m2115 -270 c85 -5 203
-10 263 -10 l107 0 0 -540 0 -540 -131 0 c-74 0 -139 5 -151 11 -37 20 -77 74
-88 121 -6 25 -27 70 -46 99 -34 53 -34 54 -32 161 l3 107 -37 34 c-37 34 -38
37 -38 103 0 60 -4 75 -30 114 -16 25 -30 50 -30 56 0 6 -31 73 -70 149 -38
76 -70 142 -70 148 0 6 36 7 98 3 53 -4 167 -11 252 -16z m-488 -1067 c107
-107 168 -175 168 -188 0 -13 -60 -80 -164 -184 -133 -133 -167 -162 -187
-159 -16 2 -25 11 -27 27 -3 19 21 49 124 152 l129 129 -575 2 -575 3 0 30 0
30 573 5 572 5 -130 130 c-122 122 -146 156 -123 178 23 23 58 -3 215 -160z"/>
<path d="M14830 17135 l0 -315 315 0 315 0 0 315 0 315 -315 0 -315 0 0 -315z
m540 0 l0 -225 -225 0 -225 0 0 225 0 225 225 0 225 0 0 -225z"/>
<path d="M15010 17135 l0 -135 135 0 135 0 0 135 0 135 -135 0 -135 0 0 -135z"/>
<path d="M15640 17405 l0 -45 -45 0 -45 0 0 -45 0 -45 45 0 45 0 0 -45 0 -45
45 0 45 0 0 -45 0 -45 -45 0 -45 0 0 -45 0 -45 -45 0 -45 0 0 -135 0 -135
-180 0 -180 0 0 -45 0 -45 -135 0 -135 0 0 -45 0 -45 -45 0 -45 0 0 -180 0
-180 45 0 45 0 0 -45 0 -45 45 0 45 0 0 45 0 45 -45 0 -45 0 0 180 0 180 45 0
45 0 0 -135 0 -135 45 0 45 0 0 -45 0 -45 90 0 90 0 0 -45 0 -45 135 0 135 0
0 -45 0 -45 45 0 45 0 0 -45 0 -45 -45 0 -45 0 0 -45 0 -45 -90 0 -90 0 0 45
0 45 45 0 45 0 0 45 0 45 -45 0 -45 0 0 -45 0 -45 -90 0 -90 0 0 -90 0 -90 45
0 45 0 0 -45 0 -45 45 0 45 0 0 -45 0 -45 90 0 90 0 0 -180 0 -180 45 0 45 0
0 -135 0 -135 45 0 45 0 0 -45 0 -45 135 0 135 0 0 45 0 45 -45 0 -45 0 0 45
0 45 45 0 45 0 0 45 0 45 45 0 45 0 0 45 0 45 90 0 90 0 0 45 0 45 45 0 45 0
0 -45 0 -45 45 0 45 0 0 -90 0 -90 90 0 90 0 0 45 0 45 -45 0 -45 0 0 45 0 45
90 0 90 0 0 -135 0 -135 -90 0 -90 0 0 -45 0 -45 135 0 135 0 0 180 0 180 45
0 45 0 0 -135 0 -135 45 0 45 0 0 -45 0 -45 180 0 180 0 0 45 0 45 45 0 45 0
0 90 0 90 -45 0 -45 0 0 90 0 90 -45 0 -45 0 0 -45 0 -45 -90 0 -90 0 0 45 0
45 45 0 45 0 0 45 0 45 -45 0 -45 0 0 90 0 90 45 0 45 0 0 -45 0 -45 45 0 45
0 0 45 0 45 45 0 45 0 0 -90 0 -90 45 0 45 0 0 90 0 90 -45 0 -45 0 0 45 0 45
45 0 45 0 0 495 0 495 -45 0 -45 0 0 45 0 45 -45 0 -45 0 0 -90 0 -90 -90 0
-90 0 0 45 0 45 -45 0 -45 0 0 45 0 45 -90 0 -90 0 0 -45 0 -45 -135 0 -135 0
0 45 0 45 90 0 90 0 0 90 0 90 -45 0 -45 0 0 45 0 45 45 0 45 0 0 45 0 45 -45
0 -45 0 0 45 0 45 45 0 45 0 0 90 0 90 -45 0 -45 0 0 45 0 45 -180 0 -180 0 0
-45 0 -45 45 0 45 0 0 -45 0 -45 -135 0 -135 0 0 45 0 45 45 0 45 0 0 45 0 45
-45 0 -45 0 0 -45 0 -45 -45 0 -45 0 0 -45 0 -45 -45 0 -45 0 0 -90 0 -90 -45
0 -45 0 0 45 0 45 -45 0 -45 0 0 45 0 45 45 0 45 0 0 45 0 45 -45 0 -45 0 0
45 0 45 -45 0 -45 0 0 -45z m990 -90 l0 -45 -45 0 -45 0 0 -45 0 -45 -45 0
-45 0 0 -180 0 -180 -45 0 -45 0 0 45 0 45 -45 0 -45 0 0 -90 0 -90 90 0 90 0
0 -45 0 -45 45 0 45 0 0 -45 0 -45 45 0 45 0 0 -45 0 -45 45 0 45 0 0 45 0 45
45 0 45 0 0 45 0 45 45 0 45 0 0 -45 0 -45 45 0 45 0 0 -45 0 -45 -45 0 -45 0
0 -45 0 -45 135 0 135 0 0 45 0 45 45 0 45 0 0 45 0 45 45 0 45 0 0 -45 0 -45
-45 0 -45 0 0 -45 0 -45 45 0 45 0 0 -90 0 -90 -45 0 -45 0 0 -135 0 -135 45
0 45 0 0 -90 0 -90 -45 0 -45 0 0 -90 0 -90 -45 0 -45 0 0 90 0 90 -45 0 -45
0 0 -45 0 -45 -45 0 -45 0 0 45 0 45 -45 0 -45 0 0 -45 0 -45 -90 0 -90 0 0
45 0 45 -45 0 -45 0 0 90 0 90 -180 0 -180 0 0 -45 0 -45 45 0 45 0 0 -45 0
-45 45 0 45 0 0 45 0 45 45 0 45 0 0 -45 0 -45 -45 0 -45 0 0 -45 0 -45 90 0
90 0 0 -45 0 -45 -45 0 -45 0 0 -45 0 -45 -135 0 -135 0 0 90 0 90 -90 0 -90
0 0 -45 0 -45 45 0 45 0 0 -45 0 -45 -90 0 -90 0 0 -135 0 -135 -45 0 -45 0 0
135 0 135 -135 0 -135 0 0 45 0 45 -45 0 -45 0 0 45 0 45 -90 0 -90 0 0 45 0
45 90 0 90 0 0 45 0 45 45 0 45 0 0 45 0 45 45 0 45 0 0 45 0 45 -45 0 -45 0
0 45 0 45 -45 0 -45 0 0 135 0 135 -90 0 -90 0 0 -45 0 -45 45 0 45 0 0 -45 0
-45 -45 0 -45 0 0 45 0 45 -135 0 -135 0 0 135 0 135 45 0 45 0 0 -45 0 -45
180 0 180 0 0 -45 0 -45 90 0 90 0 0 45 0 45 -45 0 -45 0 0 90 0 90 -45 0 -45
0 0 -45 0 -45 -135 0 -135 0 0 45 0 45 135 0 135 0 0 45 0 45 45 0 45 0 0 90
0 90 45 0 45 0 0 45 0 45 135 0 135 0 0 -45 0 -45 45 0 45 0 0 -45 0 -45 -45
0 -45 0 0 -45 0 -45 -45 0 -45 0 0 -45 0 -45 -45 0 -45 0 0 45 0 45 -90 0 -90
0 0 -45 0 -45 45 0 45 0 0 -45 0 -45 45 0 45 0 0 -45 0 -45 90 0 90 0 0 45 0
45 90 0 90 0 0 45 0 45 -45 0 -45 0 0 45 0 45 45 0 45 0 0 135 0 135 90 0 90
0 0 90 0 90 45 0 45 0 0 90 0 90 90 0 90 0 0 -45z m-540 -90 l0 -45 45 0 45 0
0 -45 0 -45 -45 0 -45 0 0 45 0 45 -45 0 -45 0 0 45 0 45 45 0 45 0 0 -45z
m900 -1800 l0 -135 -135 0 -135 0 0 135 0 135 135 0 135 0 0 -135z m-1170
-180 l0 -135 -45 0 -45 0 0 45 0 45 -45 0 -45 0 0 90 0 90 90 0 90 0 0 -135z
m720 45 l0 -90 -45 0 -45 0 0 90 0 90 45 0 45 0 0 -90z m540 -135 l0 -45 45 0
45 0 0 -45 0 -45 45 0 45 0 0 -45 0 -45 -45 0 -45 0 0 45 0 45 -45 0 -45 0 0
-45 0 -45 -45 0 -45 0 0 135 0 135 45 0 45 0 0 -45z"/>
<path d="M16180 16685 l0 -45 45 0 45 0 0 -90 0 -90 -45 0 -45 0 0 -45 0 -45
-225 0 -225 0 0 -45 0 -45 135 0 135 0 0 -45 0 -45 45 0 45 0 0 -45 0 -45 -45
0 -45 0 0 -45 0 -45 -45 0 -45 0 0 -90 0 -90 45 0 45 0 0 -45 0 -45 90 0 90 0
0 90 0 90 45 0 45 0 0 45 0 45 180 0 180 0 0 -45 0 -45 45 0 45 0 0 -45 0 -45
180 0 180 0 0 45 0 45 -180 0 -180 0 0 45 0 45 45 0 45 0 0 90 0 90 45 0 45 0
0 -90 0 -90 135 0 135 0 0 45 0 45 -45 0 -45 0 0 90 0 90 -45 0 -45 0 0 -45 0
-45 -45 0 -45 0 0 45 0 45 -45 0 -45 0 0 -45 0 -45 -90 0 -90 0 0 -45 0 -45
-45 0 -45 0 0 45 0 45 -45 0 -45 0 0 45 0 45 135 0 135 0 0 45 0 45 -225 0
-225 0 0 45 0 45 45 0 45 0 0 90 0 90 -45 0 -45 0 0 45 0 45 -45 0 -45 0 0
-45z m90 -360 l0 -45 45 0 45 0 0 -45 0 -45 -135 0 -135 0 0 45 0 45 45 0 45
0 0 45 0 45 45 0 45 0 0 -45z m0 -270 l0 -45 -45 0 -45 0 0 -45 0 -45 -45 0
-45 0 0 90 0 90 90 0 90 0 0 -45z"/>
<path d="M15730 15830 l0 -90 45 0 45 0 0 -45 0 -45 -90 0 -90 0 0 45 0 45
-45 0 -45 0 0 -45 0 -45 45 0 45 0 0 -45 0 -45 90 0 90 0 0 45 0 45 45 0 45 0
0 -90 0 -90 45 0 45 0 0 90 0 90 -45 0 -45 0 0 45 0 45 -45 0 -45 0 0 90 0 90
-45 0 -45 0 0 -90z"/>
<path d="M17170 15830 l0 -90 45 0 45 0 0 90 0 90 -45 0 -45 0 0 -90z"/>
<path d="M16270 15695 l0 -45 45 0 45 0 0 -45 0 -45 45 0 45 0 0 45 0 45 -45
0 -45 0 0 45 0 45 -45 0 -45 0 0 -45z"/>
<path d="M16810 17135 l0 -315 315 0 315 0 0 315 0 315 -315 0 -315 0 0 -315z
m540 0 l0 -225 -225 0 -225 0 0 225 0 225 225 0 225 0 0 -225z"/>
<path d="M16990 17135 l0 -135 135 0 135 0 0 135 0 135 -135 0 -135 0 0 -135z"/>
<path d="M14920 15965 l0 -45 -45 0 -45 0 0 -45 0 -45 45 0 45 0 0 45 0 45 45
0 45 0 0 -90 0 -90 45 0 45 0 0 90 0 90 -45 0 -45 0 0 45 0 45 -45 0 -45 0 0
-45z"/>
<path d="M14830 15605 l0 -45 180 0 180 0 0 45 0 45 -180 0 -180 0 0 -45z"/>
<path d="M14830 15155 l0 -315 315 0 315 0 0 315 0 315 -315 0 -315 0 0 -315z
m540 0 l0 -225 -225 0 -225 0 0 225 0 225 225 0 225 0 0 -225z"/>
<path d="M15010 15155 l0 -135 135 0 135 0 0 135 0 135 -135 0 -135 0 0 -135z"/>
<path d="M16180 15065 l0 -45 -45 0 -45 0 0 -90 0 -90 180 0 180 0 0 45 0 45
-45 0 -45 0 0 45 0 45 -45 0 -45 0 0 45 0 45 -45 0 -45 0 0 -45z"/>
<path d="M11180 17724 c-13 -33 -13 -185 0 -219 12 -33 41 -30 51 5 11 38 10
186 -1 214 -5 14 -16 26 -25 26 -9 0 -20 -12 -25 -26z"/>
<path d="M2160 17615 c0 -113 0 -115 23 -115 67 1 97 36 97 115 0 79 -30 114
-97 115 -23 0 -23 -2 -23 -115z"/>
<path d="M15545 14144 c-11 -3 -31 -20 -44 -40 -58 -84 -10 -176 84 -158 61
11 98 124 58 173 -18 21 -62 32 -98 25z"/>
<path d="M587 17744 c-4 -4 -7 -16 -7 -26 0 -10 61 -246 136 -525 75 -280 144
-539 154 -578 10 -38 84 -315 165 -615 80 -300 157 -588 171 -640 42 -160 58
-220 178 -667 64 -237 116 -438 116 -445 0 -7 -87 74 -193 180 -159 159 -198
193 -218 190 -16 -2 -25 -11 -27 -27 -3 -20 40 -68 250 -278 209 -210 257
-253 278 -251 26 3 30 13 71 166 21 80 36 136 104 387 25 94 44 184 43 200 -3
26 -7 30 -33 30 l-30 0 -75 -283 c-41 -156 -79 -283 -85 -282 -8 0 -62 187
-145 505 -10 39 -84 315 -165 615 -80 300 -155 579 -166 620 -11 41 -29 107
-39 145 -10 39 -87 324 -170 635 -155 579 -174 651 -209 780 -41 156 -45 165
-72 168 -14 2 -28 0 -32 -4z"/>
<path d="M8010 11320 c-220 -441 -253 -512 -242 -528 7 -9 20 -29 30 -44 16
-27 20 -28 106 -28 76 0 93 3 111 20 14 13 42 22 83 26 42 5 72 15 94 30 18
13 46 24 63 24 18 0 54 11 80 26 54 28 75 26 75 -9 0 -13 7 -37 15 -53 8 -17
18 -73 23 -127 5 -53 15 -103 21 -111 7 -8 15 -56 18 -108 3 -57 11 -102 20
-117 9 -14 17 -59 21 -110 5 -99 14 -121 46 -121 38 0 49 22 41 82 -4 29 -72
408 -150 842 -146 807 -148 816 -189 816 -6 0 -126 -230 -266 -510z"/>
<path d="M17197 4113 c-24 -23 3 -58 163 -218 l170 -170 -837 -5 -838 -5 0
-30 0 -30 840 -3 840 -2 -179 -179 c-145 -146 -177 -182 -174 -202 2 -16 11
-25 27 -27 20 -3 62 34 238 210 136 136 213 220 213 233 0 13 -75 95 -208 228
-196 196 -232 224 -255 200z"/>
</g>
</svg>
