<?xml version="1.0" encoding="utf-8"?>
<!-- Generator: Adobe Illustrator 16.0.1, SVG Export Plug-In . SVG Version: 6.00 Build 0)  -->
<!DOCTYPE svg PUBLIC "-//W3C//DTD SVG 1.1//EN" "http://www.w3.org/Graphics/SVG/1.1/DTD/svg11.dtd">
<svg version="1.1" id="Layer_1" xmlns="http://www.w3.org/2000/svg" xmlns:xlink="http://www.w3.org/1999/xlink" x="0px" y="0px"
	 width="627.672px" height="899.43px" viewBox="0 0 627.672 899.43" enable-background="new 0 0 627.672 899.43"
	 xml:space="preserve">
<g id="BACKGROUND">
</g>
<g enable-background="new    ">
	<path d="M15.417,864.196c-3.079,0-5.44-2.731-5.44-8.356c0-5.602,2.361-8.356,5.44-8.356s5.439,2.755,5.439,8.356
		C20.856,861.465,18.495,864.196,15.417,864.196z M15.393,848.941c-2.06,0-3.727,2.13-3.727,6.875s1.689,6.921,3.773,6.921
		c2.037,0,3.704-2.129,3.704-6.874C19.143,851.117,17.477,848.941,15.393,848.941z"/>
</g>
<g enable-background="new    ">
	<path d="M11.411,758.407l-0.301-1.227l5.902-6.875c1.227-1.366,1.991-2.593,1.991-4.005c0-1.504-0.972-2.731-2.708-2.731
		c-1.458,0-2.708,0.764-3.958,2.106l-0.879-1.227c1.25-1.365,2.847-2.431,5.023-2.431c2.754,0,4.259,1.806,4.259,4.098
		c0,1.944-0.88,3.402-2.593,5.231l-4.699,5.555h7.639v1.505H11.411z"/>
</g>
<g enable-background="new    ">
	<path d="M19.421,648.986v3.889h-1.644v-3.889H10.44l-0.023-1.343l6.921-11.088h2.083v11.042h2.014v1.389H19.421z M17.801,638.5
		l-5.787,9.12h5.787V638.5z"/>
</g>
<g enable-background="new    ">
	<path d="M13.102,538.151c0.949-0.51,2.176-0.949,3.449-0.949c2.616,0,4.444,1.736,4.444,4.931c0,3.24-1.968,5.463-4.838,5.463
		c-3.079,0-5-2.5-5-6.505c0-4.514,2.199-8.009,7.037-10.37l0.833,1.319C15.648,533.73,13.796,535.721,13.102,538.151z
		 M16.204,546.16c1.782,0,3.171-1.551,3.171-3.912c0-2.477-1.342-3.703-3.333-3.703c-1.088,0-2.338,0.439-3.148,0.949
		c-0.07,0.532-0.093,1.11-0.093,1.759C12.801,544.17,14.051,546.16,16.204,546.16z"/>
</g>
<g enable-background="new    ">
	<path d="M15.833,442.016c-3.079,0-5.162-1.944-5.162-4.514c0-2.222,1.181-3.472,3.009-4.166c-1.458-0.625-2.592-1.736-2.592-3.797
		c0-2.269,1.852-4.144,4.745-4.144c2.917,0,4.769,1.875,4.769,4.144c0,2.061-1.158,3.172-2.593,3.797
		c1.829,0.694,2.986,1.944,2.986,4.166C20.995,440.071,18.888,442.016,15.833,442.016z M15.833,433.938
		c-2.014,0-3.542,1.412-3.542,3.356c0,1.99,1.458,3.38,3.542,3.38c2.083,0,3.542-1.39,3.542-3.38
		C19.375,435.35,17.87,433.938,15.833,433.938z M15.833,426.738c-1.921,0-3.171,1.297-3.171,2.986c0,1.829,1.435,3.009,3.171,3.009
		c1.736,0,3.171-1.18,3.171-3.009C19.004,428.035,17.777,426.738,15.833,426.738z"/>
</g>
<g enable-background="new    ">
	<path d="M0.926,336.273v-1.436h2.917v-13.102l-2.523,0.996l-0.37-1.412l3.356-1.366h1.227v14.884h2.754v1.436H0.926z"/>
	<path d="M15.416,336.528c-3.079,0-5.44-2.731-5.44-8.356c0-5.602,2.361-8.356,5.44-8.356s5.439,2.755,5.439,8.356
		C20.855,333.797,18.495,336.528,15.416,336.528z M15.393,321.273c-2.06,0-3.727,2.13-3.727,6.875s1.689,6.921,3.773,6.921
		c2.037,0,3.704-2.129,3.704-6.874C19.143,323.449,17.476,321.273,15.393,321.273z"/>
</g>
<g enable-background="new    ">
	<path d="M2.431,230.741v-1.436h2.917v-13.102L2.824,217.2l-0.37-1.412l3.356-1.366h1.227v14.884h2.754v1.436H2.431z"/>
	<path d="M11.412,230.741l-0.301-1.227l5.902-6.875c1.227-1.366,1.991-2.593,1.991-4.005c0-1.504-0.972-2.731-2.708-2.731
		c-1.458,0-2.708,0.764-3.958,2.106l-0.879-1.227c1.25-1.365,2.847-2.431,5.023-2.431c2.754,0,4.259,1.806,4.259,4.098
		c0,1.944-0.88,3.402-2.593,5.231l-4.699,5.555h7.639v1.505H11.412z"/>
</g>
<g enable-background="new    ">
	<path d="M1.898,125.207v-1.436h2.917V110.67l-2.523,0.996l-0.37-1.412l3.356-1.366h1.227v14.884h2.754v1.436H1.898z"/>
	<path d="M19.421,121.318v3.889h-1.644v-3.889h-7.338l-0.023-1.343l6.921-11.088h2.083v11.042h2.014v1.389H19.421z M17.8,110.832
		l-5.787,9.12H17.8V110.832z"/>
</g>
<g enable-background="new    ">
	<path d="M1.899,19.675v-1.436h2.917V5.138L2.293,6.134l-0.37-1.412l3.356-1.366h1.227v14.884H9.26v1.436H1.899z"/>
	<path d="M12.894,10.485c0.949-0.51,2.176-0.949,3.449-0.949c2.616,0,4.444,1.736,4.444,4.931c0,3.24-1.968,5.463-4.838,5.463
		c-3.079,0-5-2.5-5-6.505c0-4.514,2.199-8.009,7.037-10.37l0.833,1.319C15.44,6.064,13.588,8.055,12.894,10.485z M15.996,18.494
		c1.782,0,3.171-1.551,3.171-3.912c0-2.477-1.342-3.703-3.333-3.703c-1.088,0-2.338,0.439-3.148,0.949
		c-0.07,0.532-0.093,1.11-0.093,1.759C12.593,16.504,13.843,18.494,15.996,18.494z"/>
	<path d="M25.533,11.504c-1.621,0-2.894-1.574-2.894-4.074s1.273-4.097,2.894-4.097c1.597,0,2.893,1.597,2.893,4.097
		S27.13,11.504,25.533,11.504z M25.533,4.352c-1.019,0-1.759,1.18-1.759,3.078c0,1.875,0.741,3.056,1.759,3.056
		c1.018,0,1.759-1.181,1.759-3.056C27.292,5.531,26.551,4.352,25.533,4.352z M29.468,11.735l-4.398,8.171l-0.926-0.439l4.699-8.079
		l4.398-8.147l0.926,0.439L29.468,11.735z M32.778,19.813c-1.621,0-2.894-1.597-2.894-4.097s1.273-4.074,2.894-4.074
		c1.597,0,2.894,1.574,2.894,4.074S34.375,19.813,32.778,19.813z M32.778,12.661c-1.019,0-1.759,1.181-1.759,3.056
		c0,1.897,0.741,3.078,1.759,3.078s1.759-1.181,1.759-3.078C34.537,13.842,33.796,12.661,32.778,12.661z"/>
</g>
<g enable-background="new    ">
	<path d="M408.623,888.323l-0.301-1.227l5.902-6.875c1.227-1.366,1.99-2.593,1.99-4.005c0-1.504-0.972-2.731-2.707-2.731
		c-1.459,0-2.709,0.764-3.959,2.106l-0.879-1.227c1.25-1.365,2.847-2.431,5.022-2.431c2.755,0,4.259,1.806,4.259,4.098
		c0,1.944-0.879,3.402-2.592,5.231l-4.699,5.555h7.639v1.505H408.623z"/>
	<path d="M425.683,888.578c-3.079,0-5.44-2.731-5.44-8.356c0-5.602,2.361-8.356,5.44-8.356s5.439,2.755,5.439,8.356
		C431.122,885.847,428.762,888.578,425.683,888.578z M425.659,873.323c-2.06,0-3.727,2.13-3.727,6.875s1.689,6.921,3.772,6.921
		c2.037,0,3.704-2.129,3.704-6.874C429.409,875.499,427.742,873.323,425.659,873.323z"/>
	<path d="M433.136,888.323v-1.436h2.917v-13.102l-2.523,0.996l-0.37-1.412l3.356-1.366h1.227v14.884h2.754v1.436H433.136z"/>
	<path d="M442.464,888.624l-0.231-1.458c5.186-0.648,7.754-2.361,7.754-5c0-1.551-1.018-2.5-2.73-2.5
		c-1.204,0-2.292,0.463-3.496,1.181l-1.18-0.486l0.463-8.24h8.494v1.435h-7.082l-0.324,5.672c1.064-0.579,2.222-0.949,3.564-0.949
		c2.43,0,3.981,1.389,3.981,3.796C451.677,885.823,448.344,887.906,442.464,888.624z"/>
</g>
<g enable-background="new    ">
	<path d="M30.503,888.323l-0.301-1.227l5.902-6.875c1.227-1.366,1.991-2.593,1.991-4.005c0-1.504-0.972-2.731-2.708-2.731
		c-1.458,0-2.708,0.764-3.958,2.106l-0.879-1.227c1.25-1.365,2.847-2.431,5.023-2.431c2.754,0,4.259,1.806,4.259,4.098
		c0,1.944-0.88,3.402-2.593,5.231l-4.699,5.555h7.639v1.505H30.503z"/>
	<path d="M47.562,888.578c-3.079,0-5.44-2.731-5.44-8.356c0-5.602,2.361-8.356,5.44-8.356s5.439,2.755,5.439,8.356
		C53.002,885.847,50.641,888.578,47.562,888.578z M47.539,873.323c-2.06,0-3.727,2.13-3.727,6.875s1.689,6.921,3.773,6.921
		c2.037,0,3.704-2.129,3.704-6.874C51.289,875.499,49.623,873.323,47.539,873.323z"/>
	<path d="M55.016,888.323v-1.436h2.917v-13.102l-2.523,0.996l-0.37-1.412l3.356-1.366h1.227v14.884h2.754v1.436H55.016z"/>
	<path d="M72.538,884.435v3.889h-1.644v-3.889h-7.338l-0.023-1.343l6.921-11.088h2.083v11.042h2.014v1.389H72.538z M70.917,873.948
		l-5.787,9.12h5.787V873.948z"/>
</g>
<g>
	<g enable-background="new    ">
		<path fill="#0073A2" d="M443.672,589.733c-4.699,0-7.454-2.801-7.454-8.264c0-5.579,3.31-8.334,7.661-8.334
			c1.853,0,3.403,0.394,4.815,1.065l-1.088,3.147c-1.088-0.509-2.222-0.879-3.657-0.879c-2.547,0-3.912,1.782-3.912,5.046
			c0,3.542,1.319,5.139,3.889,5.139c0.672,0,1.25-0.139,1.689-0.324v-3.264h-2.754v-2.916h6.296v8.217
			C447.723,589.131,445.731,589.733,443.672,589.733z"/>
		<path fill="#0073A2" d="M456.009,589.779c-3.056,0-5.417-2.245-5.417-6.273c0-4.051,2.385-6.318,5.439-6.318
			c3.057,0,5.395,2.245,5.395,6.296C461.426,587.511,459.064,589.779,456.009,589.779z M456.009,580.104
			c-1.319,0-2.153,1.204-2.153,3.38c0,2.152,0.857,3.379,2.176,3.379c1.297,0,2.153-1.203,2.153-3.356
			C458.185,581.33,457.328,580.104,456.009,580.104z"/>
		<path fill="#0073A2" d="M462.93,589.548v-16.735h3.518v16.735H462.93z"/>
		<path fill="#0073A2" d="M472.628,577.257c0.972,0,1.735,0.254,2.522,0.671v-5.115h3.496v16.735h-2.755l-0.509-1.088
			c-0.764,0.671-1.667,1.273-3.056,1.273c-2.5,0-4.353-2.106-4.353-6.228C467.975,579.386,469.92,577.257,472.628,577.257z
			 M473.461,586.862c0.672,0,1.25-0.301,1.689-0.647v-5.579c-0.463-0.301-1.041-0.532-1.643-0.532c-1.366,0-2.176,1.064-2.176,3.402
			C471.332,585.774,472.142,586.862,473.461,586.862z"/>
		<path fill="#0073A2" d="M483.368,584.687c0.139,1.644,1.204,2.478,2.87,2.478c0.973,0,2.061-0.278,3.056-0.811l0.856,2.314
			c-1.273,0.694-2.824,1.088-4.26,1.088c-3.379,0-5.786-1.806-5.786-6.203c0-4.098,2.292-6.365,5.255-6.365
			c3.102,0,5.185,2.314,5.185,6.48v1.019H483.368z M483.368,582.604h3.935c-0.092-1.736-0.764-2.801-1.943-2.801
			C484.178,579.803,483.484,580.891,483.368,582.604z"/>
		<path fill="#0073A2" d="M498.715,589.548v-7.685c0-1.019-0.463-1.528-1.389-1.528c-0.625,0-1.344,0.301-1.898,0.718v8.495h-3.496
			v-12.129h2.778l0.509,1.18c0.996-0.74,2.084-1.342,3.542-1.342c2.222,0,3.448,1.319,3.448,3.772v8.519H498.715z"/>
		<path fill="#0073A2" d="M513.69,589.548h-4.468v-16.203h4.561c4.861,0,8.355,2.407,8.355,8.078
			C522.139,587.117,518.621,589.548,513.69,589.548z M513.945,576.562h-1.02v9.768h1.02c2.685,0,4.375-1.319,4.375-4.86
			C518.32,577.904,516.653,576.562,513.945,576.562z"/>
		<path fill="#0073A2" d="M530.634,589.548l-0.463-1.111c-0.995,0.811-2.037,1.273-3.356,1.273c-2.176,0-3.611-1.227-3.611-3.773
			c0-1.134,0.348-2.06,0.973-2.685c0.74-0.741,1.828-1.111,3.611-1.111c0.693,0,1.597,0.093,2.152,0.208v-0.625
			c0-1.088-0.486-1.689-1.922-1.689c-1.134,0-2.222,0.277-3.286,0.741l-0.787-2.57c1.319-0.532,2.985-0.948,4.652-0.948
			c3.287,0,4.792,1.319,4.792,4.189v5.764l0.277,2.338H530.634z M529.939,586.793v-2.639c-0.371-0.046-0.949-0.115-1.389-0.115
			c-0.926,0-1.389,0.162-1.713,0.485c-0.232,0.255-0.394,0.672-0.394,1.204c0,1.157,0.671,1.667,1.667,1.667
			C528.713,587.396,529.384,587.164,529.939,586.793z"/>
		<path fill="#0073A2" d="M548.504,589.617h-3.635l-2.014-7.477l-1.944,7.477h-3.657l-2.939-12.198h3.449l1.504,7.592l1.898-7.592
			h3.495l1.875,7.546l1.551-7.546h3.38L548.504,589.617z"/>
		<path fill="#0073A2" d="M559.406,589.548v-7.685c0-1.019-0.463-1.528-1.389-1.528c-0.625,0-1.344,0.301-1.898,0.718v8.495h-3.496
			v-12.129h2.778l0.509,1.18c0.996-0.74,2.084-1.342,3.542-1.342c2.222,0,3.448,1.319,3.448,3.772v8.519H559.406z"/>
		<path fill="#0073A2" d="M580.682,586.126v3.422h-3.939v-3.422h-7.545l-0.129-3.293l6.325-11.536h5.288v11.588h1.842v3.241H580.682
			z M576.846,575.159l-4.33,7.804h4.33V575.159z"/>
		<path fill="#0073A2" d="M583.583,589.548v-4.329h3.915v4.329H583.583z"/>
		<path fill="#0073A2" d="M595.3,589.807c-4.019,0-6.429-2.203-6.429-5.263c0-2.255,1.037-3.604,3.033-4.407
			c-1.634-0.803-2.645-1.97-2.645-4.147c0-2.645,2.151-4.848,6.04-4.848s6.04,2.203,6.04,4.848c0,2.178-1.036,3.345-2.644,4.147
			c2.022,0.804,3.033,2.152,3.033,4.407C601.729,587.604,599.24,589.807,595.3,589.807z M595.3,581.459
			c-1.556,0-2.593,1.037-2.593,2.696c0,1.634,1.063,2.645,2.593,2.645c1.53,0,2.593-1.011,2.593-2.645
			C597.893,582.496,596.855,581.459,595.3,581.459z M595.3,574.148c-1.399,0-2.308,0.907-2.308,2.281c0,1.53,0.96,2.411,2.308,2.411
			c1.349,0,2.308-0.881,2.308-2.411C597.607,575.056,596.699,574.148,595.3,574.148z"/>
		<path fill="#0073A2" d="M606.574,580.526c-2.074,0-3.732-1.686-3.732-4.641c0-2.956,1.658-4.667,3.732-4.667
			c2.049,0,3.733,1.711,3.733,4.667C610.308,578.841,608.623,580.526,606.574,580.526z M611.293,580.785l-5.107,9.074l-1.686-0.855
			l5.73-8.867l5.106-9.047l1.685,0.855L611.293,580.785z M606.574,573.268c-0.83,0-1.374,0.829-1.374,2.618s0.544,2.592,1.374,2.592
			s1.374-0.803,1.374-2.592S607.404,573.268,606.574,573.268z M614.975,589.729c-2.074,0-3.734-1.711-3.734-4.667
			c0-2.955,1.66-4.64,3.734-4.64c2.047,0,3.732,1.685,3.732,4.64C618.707,588.019,617.021,589.729,614.975,589.729z
			 M614.975,582.471c-0.83,0-1.375,0.829-1.375,2.592c0,1.789,0.545,2.619,1.375,2.619c0.829,0,1.373-0.83,1.373-2.619
			C616.348,583.3,615.804,582.471,614.975,582.471z"/>
	</g>
</g>
<g>
	<g enable-background="new    ">
		<path fill="#D5C073" d="M441.75,625.865h-1.297v4.63h-3.703v-16.203h4.977c4.306,0,6.598,1.852,6.598,5.625
			C448.324,624.061,445.686,625.865,441.75,625.865z M441.727,617.37h-1.273v5.51h1.228c1.968,0,2.917-0.949,2.917-2.824
			C444.598,618.157,443.694,617.37,441.727,617.37z"/>
		<path fill="#D5C073" d="M456.031,630.495l-0.463-1.111c-0.994,0.811-2.037,1.273-3.355,1.273c-2.176,0-3.611-1.227-3.611-3.773
			c0-1.134,0.348-2.06,0.973-2.685c0.74-0.741,1.828-1.111,3.61-1.111c0.694,0,1.597,0.093,2.153,0.208v-0.625
			c0-1.088-0.486-1.689-1.922-1.689c-1.135,0-2.223,0.277-3.287,0.741l-0.787-2.57c1.32-0.532,2.986-0.948,4.652-0.948
			c3.287,0,4.792,1.319,4.792,4.189v5.764l0.278,2.338H456.031z M455.338,627.74v-2.639c-0.371-0.046-0.949-0.115-1.389-0.115
			c-0.927,0-1.39,0.162-1.714,0.485c-0.231,0.255-0.394,0.672-0.394,1.204c0,1.157,0.672,1.667,1.667,1.667
			C454.11,628.343,454.781,628.111,455.338,627.74z"/>
		<path fill="#D5C073" d="M465.175,630.703c-1.897,0-3.796-0.439-5.231-1.157l0.902-2.731c1.32,0.648,3.01,1.135,4.283,1.135
			c0.949,0,1.48-0.324,1.48-0.88s-0.347-0.787-2.152-1.343c-2.615-0.764-3.936-1.527-3.936-3.772c0-2.269,1.621-3.797,4.561-3.797
			c1.621,0,3.148,0.37,4.398,0.973l-0.857,2.685c-1.156-0.532-2.43-0.902-3.564-0.902c-0.855,0-1.272,0.324-1.272,0.787
			c0,0.532,0.347,0.764,2.083,1.296c3.032,0.88,3.981,1.806,3.981,3.866C469.851,629.431,468.068,630.703,465.175,630.703z"/>
		<path fill="#D5C073" d="M476.193,630.727c-3.057,0-5.417-2.245-5.417-6.273c0-4.051,2.384-6.318,5.439-6.318
			s5.394,2.245,5.394,6.296C481.609,628.458,479.248,630.727,476.193,630.727z M476.193,621.051c-1.32,0-2.153,1.204-2.153,3.38
			c0,2.152,0.856,3.379,2.176,3.379c1.296,0,2.153-1.203,2.153-3.356C478.369,622.277,477.512,621.051,476.193,621.051z"/>
		<path fill="#D5C073" d="M489.919,630.495l-3.264-5.578h-0.069v5.578h-3.496V613.76h3.496v9.676h0.069l3.194-5.069h3.958v0.022
			l-3.912,5.787l4.052,6.296v0.023H489.919z"/>
	</g>
	<g enable-background="new    ">
		<path fill="#D5C073" d="M511.289,627.073v3.422h-3.941v-3.422h-7.543l-0.131-3.293L506,612.244h5.289v11.588h1.84v3.241H511.289z
			 M507.451,616.106l-4.328,7.804h4.328V616.106z"/>
		<path fill="#D5C073" d="M514.192,630.495v-4.329h3.915v4.329H514.192z"/>
		<path fill="#D5C073" d="M519.611,630.495v-3.345h2.955v-10.732l-2.385,0.648l-0.675-3.475l4.459-1.348h2.722v14.906h2.748v3.345
			H519.611z"/>
		<path fill="#D5C073" d="M534.128,621.474c-2.073,0-3.733-1.686-3.733-4.641c0-2.956,1.66-4.667,3.733-4.667
			c2.048,0,3.733,1.711,3.733,4.667C537.861,619.788,536.176,621.474,534.128,621.474z M538.846,621.732l-5.106,9.074l-1.685-0.855
			l5.729-8.867l5.107-9.047l1.686,0.855L538.846,621.732z M534.128,614.215c-0.829,0-1.374,0.829-1.374,2.618
			s0.545,2.592,1.374,2.592s1.374-0.803,1.374-2.592S534.957,614.215,534.128,614.215z M542.527,630.677
			c-2.074,0-3.732-1.711-3.732-4.667c0-2.955,1.658-4.64,3.732-4.64c2.049,0,3.733,1.685,3.733,4.64
			C546.261,628.966,544.576,630.677,542.527,630.677z M542.527,623.418c-0.829,0-1.373,0.829-1.373,2.592
			c0,1.789,0.544,2.619,1.373,2.619c0.83,0,1.375-0.83,1.375-2.619C543.902,624.247,543.357,623.418,542.527,623.418z"/>
	</g>
</g>
<g>
	<g enable-background="new    ">
		<path fill="#D77464" d="M443.74,673.008c-4.56,0-7.522-2.823-7.522-8.286c0-5.278,3.056-8.334,7.522-8.334
			c1.713,0,3.033,0.324,4.19,0.765l-0.648,3.379c-0.949-0.394-2.014-0.74-3.264-0.74c-2.478,0-3.981,1.806-3.981,4.884
			c0,3.172,1.481,4.931,4.098,4.931c1.11,0,2.176-0.301,3.193-0.694l0.672,3.24C446.75,672.684,445.291,673.008,443.74,673.008z"/>
		<path fill="#D77464" d="M454.157,673.031c-3.056,0-5.417-2.245-5.417-6.273c0-4.051,2.385-6.318,5.439-6.318
			c3.057,0,5.395,2.245,5.395,6.296C459.574,670.763,457.213,673.031,454.157,673.031z M454.157,663.355
			c-1.319,0-2.153,1.204-2.153,3.38c0,2.152,0.857,3.379,2.176,3.379c1.297,0,2.153-1.203,2.153-3.356
			C456.333,664.582,455.477,663.355,454.157,663.355z"/>
		<path fill="#D77464" d="M474.41,672.8v-7.708c0-1.019-0.486-1.505-1.342-1.505c-0.603,0-1.297,0.301-1.898,0.741
			c0.046,0.092,0.046,0.208,0.046,0.323v8.148h-3.495v-7.708c0-1.019-0.463-1.505-1.319-1.505c-0.603,0-1.296,0.301-1.853,0.718
			v8.495h-3.494v-12.129h2.777l0.51,1.18c0.994-0.74,2.082-1.342,3.472-1.342c1.343,0,2.314,0.485,2.87,1.412
			c1.088-0.811,2.314-1.412,3.75-1.412c2.199,0,3.473,1.25,3.473,3.75v8.541H474.41z"/>
		<path fill="#D77464" d="M493.137,672.8v-7.708c0-1.019-0.486-1.505-1.343-1.505c-0.603,0-1.296,0.301-1.897,0.741
			c0.045,0.092,0.045,0.208,0.045,0.323v8.148h-3.494v-7.708c0-1.019-0.463-1.505-1.32-1.505c-0.602,0-1.296,0.301-1.852,0.718
			v8.495h-3.495v-12.129h2.778l0.509,1.18c0.995-0.74,2.083-1.342,3.472-1.342c1.343,0,2.314,0.485,2.871,1.412
			c1.088-0.811,2.314-1.412,3.75-1.412c2.198,0,3.472,1.25,3.472,3.75v8.541H493.137z"/>
		<path fill="#D77464" d="M501.932,660.671v7.685c0,1.019,0.463,1.551,1.39,1.551c0.647,0,1.343-0.324,1.897-0.718v-8.518h3.496
			V672.8h-2.778l-0.509-1.181c-0.996,0.741-2.084,1.343-3.519,1.343c-2.245,0-3.472-1.296-3.472-3.75v-8.541H501.932z"/>
		<path fill="#D77464" d="M517.441,672.8v-7.685c0-1.019-0.463-1.528-1.389-1.528c-0.625,0-1.344,0.301-1.898,0.718v8.495h-3.496
			v-12.129h2.778l0.509,1.18c0.996-0.74,2.084-1.342,3.542-1.342c2.222,0,3.448,1.319,3.448,3.772v8.519H517.441z"/>
		<path fill="#D77464" d="M522.764,659.49v-2.616h3.658v2.616H522.764z M522.834,672.8v-12.129h3.518V672.8H522.834z"/>
		<path fill="#D77464" d="M532.811,673.008c-1.898,0-3.797-0.439-5.232-1.157l0.903-2.731c1.319,0.648,3.009,1.135,4.282,1.135
			c0.949,0,1.481-0.324,1.481-0.88s-0.347-0.787-2.153-1.343c-2.615-0.764-3.935-1.527-3.935-3.772c0-2.269,1.62-3.797,4.56-3.797
			c1.621,0,3.148,0.37,4.398,0.973l-0.856,2.685c-1.157-0.532-2.431-0.902-3.564-0.902c-0.856,0-1.273,0.324-1.273,0.787
			c0,0.532,0.348,0.764,2.083,1.296c3.033,0.88,3.982,1.806,3.982,3.866C537.486,671.735,535.703,673.008,532.811,673.008z"/>
		<path fill="#D77464" d="M543.527,672.962c-2.639,0-4.005-1.088-4.005-3.912v-5.578h-1.528v-2.801h1.528v-3.194h3.495v3.194h2.894
			v2.801h-2.894v5.092c0,1.065,0.556,1.481,1.505,1.481c0.486,0,0.926-0.069,1.389-0.208v2.801
			C545.286,672.823,544.477,672.962,543.527,672.962z"/>
	</g>
	<g enable-background="new    ">
		<path fill="#D77464" d="M441.75,694.712h-1.297v4.63h-3.703v-16.203h4.977c4.306,0,6.598,1.852,6.598,5.625
			C448.324,692.907,445.686,694.712,441.75,694.712z M441.727,686.217h-1.273v5.51h1.228c1.968,0,2.917-0.949,2.917-2.824
			C444.598,687.004,443.694,686.217,441.727,686.217z"/>
		<path fill="#D77464" d="M456.031,699.342l-0.463-1.111c-0.994,0.811-2.037,1.273-3.355,1.273c-2.176,0-3.611-1.227-3.611-3.773
			c0-1.134,0.348-2.06,0.973-2.685c0.74-0.741,1.828-1.111,3.61-1.111c0.694,0,1.597,0.093,2.153,0.208v-0.625
			c0-1.088-0.486-1.689-1.922-1.689c-1.135,0-2.223,0.277-3.287,0.741l-0.787-2.57c1.32-0.532,2.986-0.948,4.652-0.948
			c3.287,0,4.792,1.319,4.792,4.189v5.764l0.278,2.338H456.031z M455.338,696.587v-2.639c-0.371-0.046-0.949-0.115-1.389-0.115
			c-0.927,0-1.39,0.162-1.714,0.485c-0.231,0.255-0.394,0.672-0.394,1.204c0,1.157,0.672,1.667,1.667,1.667
			C454.11,697.189,454.781,696.958,455.338,696.587z"/>
		<path fill="#D77464" d="M464.18,691.865v7.477h-3.496v-12.129h2.709l0.602,1.967c0.926-1.342,2.084-2.176,3.727-2.152v3.634
			C466.332,690.685,465.151,691.124,464.18,691.865z"/>
		<path fill="#D77464" d="M473.809,699.504c-2.639,0-4.004-1.088-4.004-3.912v-5.578h-1.528v-2.801h1.528v-3.194h3.495v3.194h2.894
			v2.801H473.3v5.092c0,1.065,0.556,1.481,1.505,1.481c0.486,0,0.926-0.069,1.389-0.208v2.801
			C475.568,699.365,474.758,699.504,473.809,699.504z"/>
		<path fill="#D77464" d="M485.082,697.05c-1.227,3.866-2.477,4.931-6.922,5.949l-0.833-2.87c1.273-0.324,2.315-0.811,3.125-1.527
			l-3.61-11.389h3.564l2.152,8.124l2.084-8.124h3.494L485.082,697.05z"/>
	</g>
	<g enable-background="new    ">
		<path fill="#D77464" d="M505.686,695.92v3.422h-3.939v-3.422h-7.545l-0.129-3.293l6.325-11.536h5.288v11.588h1.842v3.241H505.686z
			 M501.85,684.953l-4.33,7.804h4.33V684.953z"/>
		<path fill="#D77464" d="M508.59,699.342v-4.329h3.914v4.329H508.59z"/>
		<path fill="#D77464" d="M514.008,699.342v-3.345h2.955v-10.732l-2.385,0.648l-0.674-3.475l4.459-1.348h2.723v14.906h2.748v3.345
			H514.008z"/>
		<path fill="#D77464" d="M528.525,690.32c-2.074,0-3.732-1.686-3.732-4.641c0-2.956,1.658-4.667,3.732-4.667
			c2.049,0,3.733,1.711,3.733,4.667C532.259,688.635,530.574,690.32,528.525,690.32z M533.244,690.579l-5.107,9.074l-1.686-0.855
			l5.73-8.867l5.106-9.047l1.685,0.855L533.244,690.579z M528.525,683.062c-0.83,0-1.374,0.829-1.374,2.618s0.544,2.592,1.374,2.592
			s1.374-0.803,1.374-2.592S529.355,683.062,528.525,683.062z M536.926,699.523c-2.074,0-3.734-1.711-3.734-4.667
			c0-2.955,1.66-4.64,3.734-4.64c2.047,0,3.732,1.685,3.732,4.64C540.658,697.812,538.973,699.523,536.926,699.523z
			 M536.926,692.265c-0.83,0-1.375,0.829-1.375,2.592c0,1.789,0.545,2.619,1.375,2.619c0.829,0,1.373-0.83,1.373-2.619
			C538.299,693.094,537.755,692.265,536.926,692.265z"/>
	</g>
</g>
<g>
	<g enable-background="new    ">
		<path fill="#D5C073" d="M450.546,808.479l-0.463-11.111l-3.125,11.111h-3.564l-3.125-11.181l-0.463,11.181h-3.449l0.787-16.203
			h5.139l2.917,10.509l2.916-10.509h5.324l0.787,16.203H450.546z"/>
		<path fill="#D5C073" d="M460.893,808.711c-3.055,0-5.416-2.245-5.416-6.273c0-4.051,2.384-6.318,5.439-6.318
			s5.394,2.245,5.394,6.296C466.31,806.442,463.948,808.711,460.893,808.711z M460.893,799.035c-1.319,0-2.152,1.204-2.152,3.38
			c0,2.152,0.856,3.379,2.176,3.379c1.297,0,2.152-1.203,2.152-3.356C463.068,800.262,462.213,799.035,460.893,799.035z"/>
		<path fill="#D5C073" d="M474.295,808.596h-3.819l-3.796-12.245h3.564l2.176,8.217l2.176-8.217h3.473L474.295,808.596z"/>
		<path fill="#D5C073" d="M481.702,803.618c0.139,1.644,1.204,2.478,2.87,2.478c0.973,0,2.061-0.278,3.056-0.811l0.856,2.314
			c-1.273,0.694-2.824,1.088-4.26,1.088c-3.379,0-5.786-1.806-5.786-6.203c0-4.098,2.292-6.365,5.255-6.365
			c3.102,0,5.185,2.314,5.185,6.48v1.019H481.702z M481.702,801.535h3.935c-0.092-1.736-0.764-2.801-1.943-2.801
			C482.512,798.734,481.818,799.822,481.702,801.535z"/>
		<path fill="#D5C073" d="M503.622,808.479v-7.708c0-1.019-0.485-1.505-1.343-1.505c-0.602,0-1.296,0.301-1.897,0.741
			c0.046,0.092,0.046,0.208,0.046,0.323v8.148h-3.495v-7.708c0-1.019-0.463-1.505-1.319-1.505c-0.602,0-1.297,0.301-1.852,0.718
			v8.495h-3.496v-12.129h2.778l0.509,1.18c0.996-0.74,2.084-1.342,3.473-1.342c1.342,0,2.314,0.485,2.87,1.412
			c1.088-0.811,2.315-1.412,3.75-1.412c2.198,0,3.472,1.25,3.472,3.75v8.541H503.622z"/>
		<path fill="#D5C073" d="M511.77,803.618c0.139,1.644,1.204,2.478,2.871,2.478c0.972,0,2.06-0.278,3.055-0.811l0.857,2.314
			c-1.273,0.694-2.824,1.088-4.26,1.088c-3.379,0-5.787-1.806-5.787-6.203c0-4.098,2.292-6.365,5.255-6.365
			c3.102,0,5.185,2.314,5.185,6.48v1.019H511.77z M511.77,801.535h3.936c-0.093-1.736-0.764-2.801-1.944-2.801
			S511.886,799.822,511.77,801.535z"/>
		<path fill="#D5C073" d="M527.116,808.479v-7.685c0-1.019-0.463-1.528-1.389-1.528c-0.625,0-1.343,0.301-1.898,0.718v8.495h-3.495
			v-12.129h2.777l0.51,1.18c0.995-0.74,2.083-1.342,3.541-1.342c2.223,0,3.449,1.319,3.449,3.772v8.519H527.116z"/>
		<path fill="#D5C073" d="M537.232,808.642c-2.64,0-4.006-1.088-4.006-3.912v-5.578h-1.527v-2.801h1.527v-3.194h3.496v3.194h2.893
			v2.801h-2.893v5.092c0,1.065,0.555,1.481,1.504,1.481c0.486,0,0.926-0.069,1.389-0.208v2.801
			C538.99,808.503,538.181,808.642,537.232,808.642z"/>
		<path fill="#D5C073" d="M550.98,808.711c-3.055,0-5.416-2.245-5.416-6.273c0-4.051,2.384-6.318,5.439-6.318
			s5.394,2.245,5.394,6.296C556.397,806.442,554.036,808.711,550.98,808.711z M550.98,799.035c-1.319,0-2.152,1.204-2.152,3.38
			c0,2.152,0.856,3.379,2.176,3.379c1.297,0,2.152-1.203,2.152-3.356C553.156,800.262,552.301,799.035,550.98,799.035z"/>
		<path fill="#D5C073" d="M565.818,792.021l-0.463,2.546c-0.556-0.139-1.111-0.254-1.667-0.254c-1.019,0-1.458,0.578-1.458,1.527
			v0.741h2.708v2.777h-2.685v9.12h-3.473v-9.12h-1.621v-2.777h1.621v-0.88c0-2.569,1.25-4.074,4.189-4.074
			C564.059,791.628,565.077,791.79,565.818,792.021z"/>
	</g>
	<g enable-background="new    ">
		<path fill="#D5C073" d="M441.218,833.17h-4.468v-16.203h4.561c4.861,0,8.355,2.407,8.355,8.078
			C449.666,830.739,446.148,833.17,441.218,833.17z M441.473,820.185h-1.02v9.768h1.02c2.685,0,4.375-1.319,4.375-4.86
			C445.848,821.526,444.181,820.185,441.473,820.185z"/>
		<path fill="#D5C073" d="M454.041,828.309c0.139,1.644,1.203,2.478,2.87,2.478c0.972,0,2.06-0.278,3.056-0.811l0.856,2.314
			c-1.273,0.694-2.824,1.088-4.259,1.088c-3.38,0-5.787-1.806-5.787-6.203c0-4.098,2.291-6.365,5.254-6.365
			c3.102,0,5.186,2.314,5.186,6.48v1.019H454.041z M454.041,826.226h3.936c-0.094-1.736-0.765-2.801-1.945-2.801
			C454.852,823.425,454.156,824.513,454.041,826.226z"/>
		<path fill="#D5C073" d="M475.961,833.17v-7.708c0-1.019-0.485-1.505-1.342-1.505c-0.602,0-1.297,0.301-1.898,0.741
			c0.047,0.092,0.047,0.208,0.047,0.323v8.148h-3.496v-7.708c0-1.019-0.463-1.505-1.318-1.505c-0.603,0-1.297,0.301-1.853,0.718
			v8.495h-3.495v-12.129h2.777l0.51,1.18c0.995-0.74,2.083-1.342,3.473-1.342c1.342,0,2.314,0.485,2.869,1.412
			c1.088-0.811,2.315-1.412,3.75-1.412c2.199,0,3.473,1.25,3.473,3.75v8.541H475.961z"/>
		<path fill="#D5C073" d="M486.262,833.401c-3.056,0-5.416-2.245-5.416-6.273c0-4.051,2.383-6.318,5.439-6.318
			c3.055,0,5.393,2.245,5.393,6.296C491.678,831.133,489.316,833.401,486.262,833.401z M486.262,823.726
			c-1.32,0-2.152,1.204-2.152,3.38c0,2.152,0.855,3.379,2.176,3.379c1.296,0,2.152-1.203,2.152-3.356
			C488.438,824.952,487.581,823.726,486.262,823.726z"/>
		<path fill="#D5C073" d="M498.229,833.378c-3.426,0-5.555-2.384-5.555-6.25c0-3.819,2.198-6.296,5.764-6.296
			c1.295,0,2.314,0.255,3.286,0.648l-0.647,3.009c-0.741-0.324-1.551-0.602-2.454-0.602c-1.69,0-2.662,1.343-2.662,3.194
			c0,2.014,0.949,3.241,2.708,3.241c0.834,0,1.667-0.255,2.477-0.625l0.648,2.87C500.798,833.031,499.548,833.378,498.229,833.378z"
			/>
		<path fill="#D5C073" d="M506.607,825.693v7.477h-3.495v-12.129h2.708l0.602,1.967c0.926-1.342,2.084-2.176,3.728-2.152v3.634
			C508.76,824.513,507.58,824.952,506.607,825.693z"/>
		<path fill="#D5C073" d="M517.719,833.17l-0.463-1.111c-0.995,0.811-2.037,1.273-3.356,1.273c-2.176,0-3.61-1.227-3.61-3.773
			c0-1.134,0.347-2.06,0.972-2.685c0.741-0.741,1.829-1.111,3.61-1.111c0.695,0,1.598,0.093,2.153,0.208v-0.625
			c0-1.088-0.486-1.689-1.921-1.689c-1.135,0-2.223,0.277-3.287,0.741l-0.787-2.57c1.319-0.532,2.986-0.948,4.652-0.948
			c3.287,0,4.791,1.319,4.791,4.189v5.764l0.278,2.338H517.719z M517.024,830.415v-2.639c-0.37-0.046-0.949-0.115-1.389-0.115
			c-0.927,0-1.39,0.162-1.713,0.485c-0.231,0.255-0.394,0.672-0.394,1.204c0,1.157,0.671,1.667,1.666,1.667
			C515.797,831.018,516.469,830.786,517.024,830.415z"/>
		<path fill="#D5C073" d="M527.117,833.332c-2.64,0-4.006-1.088-4.006-3.912v-5.578h-1.527v-2.801h1.527v-3.194h3.496v3.194h2.893
			v2.801h-2.893v5.092c0,1.065,0.555,1.481,1.504,1.481c0.486,0,0.926-0.069,1.389-0.208v2.801
			C528.875,833.193,528.065,833.332,527.117,833.332z"/>
		<path fill="#D5C073" d="M530.936,819.86v-2.616h3.657v2.616H530.936z M531.005,833.17v-12.129h3.519v12.129H531.005z"/>
		<path fill="#D5C073" d="M541.561,833.378c-3.426,0-5.556-2.384-5.556-6.25c0-3.819,2.198-6.296,5.764-6.296
			c1.296,0,2.314,0.255,3.286,0.648l-0.647,3.009c-0.741-0.324-1.551-0.602-2.454-0.602c-1.689,0-2.662,1.343-2.662,3.194
			c0,2.014,0.949,3.241,2.709,3.241c0.833,0,1.666-0.255,2.477-0.625l0.648,2.87C544.129,833.031,542.879,833.378,541.561,833.378z"
			/>
	</g>
	<g enable-background="new    ">
		<path fill="#D5C073" d="M442.005,858.092c-2.222,0-4.421-0.602-6.088-1.389l0.995-3.079c1.459,0.741,3.402,1.297,5.231,1.297
			c1.62,0,2.36-0.603,2.36-1.551c0-0.903-0.578-1.412-2.847-2.269c-3.495-1.111-5.022-2.246-5.022-4.861
			c0-2.917,2.105-4.792,5.74-4.792c1.968,0,3.773,0.486,5.139,1.111l-0.995,3.079c-1.181-0.579-2.801-1.042-4.329-1.042
			c-1.342,0-1.943,0.556-1.943,1.343c0,0.764,0.439,1.181,2.777,2.014c3.634,1.157,5.115,2.361,5.115,5.046
			C448.139,856.333,445.848,858.092,442.005,858.092z"/>
		<path fill="#D5C073" d="M454.551,858.092c-3.056,0-5.416-2.245-5.416-6.273c0-4.051,2.383-6.318,5.439-6.318
			c3.055,0,5.393,2.245,5.393,6.296C459.967,855.823,457.605,858.092,454.551,858.092z M454.551,848.416
			c-1.32,0-2.152,1.204-2.152,3.38c0,2.152,0.855,3.379,2.176,3.379c1.296,0,2.152-1.203,2.152-3.356
			C456.727,849.643,455.87,848.416,454.551,848.416z"/>
		<path fill="#D5C073" d="M466.518,858.068c-3.426,0-5.556-2.384-5.556-6.25c0-3.819,2.198-6.296,5.764-6.296
			c1.296,0,2.314,0.255,3.286,0.648l-0.647,3.009c-0.741-0.324-1.551-0.602-2.454-0.602c-1.689,0-2.662,1.343-2.662,3.194
			c0,2.014,0.949,3.241,2.709,3.241c0.833,0,1.666-0.255,2.477-0.625l0.648,2.87C469.086,857.722,467.836,858.068,466.518,858.068z"
			/>
		<path fill="#D5C073" d="M471.354,844.551v-2.616h3.657v2.616H471.354z M471.424,857.86v-12.129h3.519v12.129H471.424z"/>
		<path fill="#D5C073" d="M483.808,857.86l-0.463-1.111c-0.995,0.811-2.037,1.273-3.356,1.273c-2.176,0-3.611-1.227-3.611-3.773
			c0-1.134,0.348-2.06,0.973-2.685c0.74-0.741,1.828-1.111,3.611-1.111c0.693,0,1.597,0.093,2.152,0.208v-0.625
			c0-1.088-0.486-1.689-1.922-1.689c-1.134,0-2.222,0.277-3.286,0.741l-0.787-2.57c1.319-0.532,2.985-0.948,4.652-0.948
			c3.287,0,4.792,1.319,4.792,4.189v5.764l0.277,2.338H483.808z M483.113,855.105v-2.639c-0.371-0.046-0.949-0.115-1.389-0.115
			c-0.926,0-1.389,0.162-1.713,0.485c-0.232,0.255-0.394,0.672-0.394,1.204c0,1.157,0.671,1.667,1.667,1.667
			C481.887,855.708,482.558,855.477,483.113,855.105z"/>
		<path fill="#D5C073" d="M488.483,857.86v-16.735h3.519v16.735H488.483z"/>
		<path fill="#D5C073" d="M493.923,844.551v-2.616h3.657v2.616H493.923z M493.992,857.86v-12.129h3.519v12.129H493.992z"/>
		<path fill="#D5C073" d="M503.969,858.068c-1.898,0-3.797-0.439-5.231-1.157l0.903-2.731c1.318,0.648,3.009,1.135,4.281,1.135
			c0.949,0,1.482-0.324,1.482-0.88s-0.348-0.787-2.153-1.343c-2.616-0.764-3.935-1.527-3.935-3.772c0-2.269,1.62-3.797,4.56-3.797
			c1.62,0,3.148,0.37,4.397,0.973l-0.855,2.685c-1.158-0.532-2.431-0.902-3.564-0.902c-0.857,0-1.273,0.324-1.273,0.787
			c0,0.532,0.348,0.764,2.083,1.296c3.032,0.88,3.981,1.806,3.981,3.866C508.645,856.796,506.862,858.068,503.969,858.068z"/>
		<path fill="#D5C073" d="M514.686,858.022c-2.639,0-4.005-1.088-4.005-3.912v-5.578h-1.528v-2.801h1.528v-3.194h3.495v3.194h2.894
			v2.801h-2.894v5.092c0,1.065,0.556,1.481,1.505,1.481c0.486,0,0.926-0.069,1.389-0.208v2.801
			C516.444,857.884,515.635,858.022,514.686,858.022z"/>
		<path fill="#D5C073" d="M523.042,858.068c-1.897,0-3.796-0.439-5.231-1.157l0.902-2.731c1.32,0.648,3.01,1.135,4.283,1.135
			c0.949,0,1.48-0.324,1.48-0.88s-0.347-0.787-2.152-1.343c-2.615-0.764-3.936-1.527-3.936-3.772c0-2.269,1.621-3.797,4.561-3.797
			c1.621,0,3.148,0.37,4.398,0.973l-0.857,2.685c-1.156-0.532-2.43-0.902-3.564-0.902c-0.855,0-1.272,0.324-1.272,0.787
			c0,0.532,0.347,0.764,2.083,1.296c3.032,0.88,3.981,1.806,3.981,3.866C527.718,856.796,525.936,858.068,523.042,858.068z"/>
	</g>
	<g enable-background="new    ">
		<path fill="#D5C073" d="M534.229,857.86l-0.57-2.981l6.273-6.974c1.012-1.062,1.556-1.944,1.556-2.93
			c0-1.011-0.648-1.789-1.841-1.789c-1.219,0-2.463,0.675-4.045,2.074l-1.814-3.162c1.479-1.4,3.604-2.619,6.404-2.619
			c3.525,0,5.521,1.996,5.521,4.978c0,2.229-0.934,3.837-3.163,5.989l-3.37,3.837h6.793v3.577H534.229z"/>
		<path fill="#D5C073" d="M547.268,857.86v-4.329h3.915v4.329H547.268z"/>
		<path fill="#D5C073" d="M552.894,857.86l-0.57-2.981l6.274-6.974c1.011-1.062,1.555-1.944,1.555-2.93
			c0-1.011-0.648-1.789-1.84-1.789c-1.219,0-2.463,0.675-4.045,2.074l-1.814-3.162c1.478-1.4,3.604-2.619,6.403-2.619
			c3.526,0,5.522,1.996,5.522,4.978c0,2.229-0.934,3.837-3.164,5.989l-3.369,3.837h6.792v3.577H552.894z"/>
		<path fill="#D5C073" d="M569.408,848.839c-2.074,0-3.733-1.686-3.733-4.641c0-2.956,1.659-4.667,3.733-4.667
			c2.048,0,3.732,1.711,3.732,4.667C573.141,847.153,571.456,848.839,569.408,848.839z M574.126,849.098l-5.106,9.074l-1.686-0.855
			l5.729-8.867l5.106-9.047l1.686,0.855L574.126,849.098z M569.408,841.58c-0.83,0-1.375,0.829-1.375,2.618s0.545,2.592,1.375,2.592
			c0.829,0,1.373-0.803,1.373-2.592S570.237,841.58,569.408,841.58z M577.808,858.042c-2.074,0-3.733-1.711-3.733-4.667
			c0-2.955,1.659-4.64,3.733-4.64c2.048,0,3.733,1.685,3.733,4.64C581.541,856.331,579.855,858.042,577.808,858.042z
			 M577.808,850.783c-0.829,0-1.374,0.829-1.374,2.592c0,1.789,0.545,2.619,1.374,2.619s1.374-0.83,1.374-2.619
			C579.182,851.612,578.637,850.783,577.808,850.783z"/>
	</g>
</g>
<g>
	<g enable-background="new    ">
		<path fill="#5C94BA" d="M436.797,740.645v-16.203h3.75v16.203H436.797z"/>
		<path fill="#5C94BA" d="M449.504,740.645v-7.686c0-1.018-0.463-1.527-1.389-1.527c-0.625,0-1.343,0.301-1.898,0.717v8.496h-3.495
			v-12.129h2.778l0.509,1.18c0.995-0.74,2.083-1.342,3.542-1.342c2.222,0,3.448,1.318,3.448,3.771v8.52H449.504z"/>
		<path fill="#5C94BA" d="M459.087,728.354c0.972,0,1.735,0.254,2.522,0.67v-5.115h3.496v16.736h-2.755l-0.509-1.088
			c-0.764,0.67-1.667,1.273-3.056,1.273c-2.5,0-4.353-2.107-4.353-6.229C454.434,730.482,456.379,728.354,459.087,728.354z
			 M459.92,737.959c0.672,0,1.25-0.301,1.689-0.648v-5.578c-0.463-0.301-1.041-0.533-1.643-0.533c-1.366,0-2.176,1.064-2.176,3.402
			C457.791,736.871,458.601,737.959,459.92,737.959z"/>
		<path fill="#5C94BA" d="M469.827,735.783c0.139,1.643,1.204,2.477,2.87,2.477c0.973,0,2.061-0.277,3.056-0.811l0.856,2.314
			c-1.273,0.695-2.824,1.088-4.26,1.088c-3.379,0-5.786-1.805-5.786-6.203c0-4.098,2.292-6.365,5.255-6.365
			c3.102,0,5.185,2.314,5.185,6.48v1.02H469.827z M469.827,733.699h3.935c-0.092-1.736-0.764-2.801-1.943-2.801
			C470.637,730.898,469.943,731.986,469.827,733.699z"/>
		<path fill="#5C94BA" d="M484.41,740.807c-0.973,0-1.76-0.232-2.523-0.672v4.098h-3.496v-15.717h2.755l0.509,1.109
			c0.765-0.693,1.668-1.271,3.057-1.271c2.477,0,4.352,2.082,4.352,6.203C489.062,738.699,487.117,740.807,484.41,740.807z
			 M483.576,731.199c-0.672,0-1.25,0.301-1.689,0.648v5.578c0.463,0.324,1.041,0.533,1.643,0.533c1.344,0,2.176-1.064,2.176-3.379
			C485.705,732.287,484.896,731.199,483.576,731.199z"/>
		<path fill="#5C94BA" d="M493.344,735.783c0.139,1.643,1.204,2.477,2.871,2.477c0.972,0,2.06-0.277,3.055-0.811l0.857,2.314
			c-1.273,0.695-2.824,1.088-4.26,1.088c-3.379,0-5.787-1.805-5.787-6.203c0-4.098,2.292-6.365,5.255-6.365
			c3.102,0,5.185,2.314,5.185,6.48v1.02H493.344z M493.344,733.699h3.936c-0.093-1.736-0.764-2.801-1.944-2.801
			S493.46,731.986,493.344,733.699z"/>
		<path fill="#5C94BA" d="M508.69,740.645v-7.686c0-1.018-0.463-1.527-1.389-1.527c-0.625,0-1.343,0.301-1.898,0.717v8.496h-3.495
			v-12.129h2.777l0.51,1.18c0.995-0.74,2.083-1.342,3.541-1.342c2.223,0,3.449,1.318,3.449,3.771v8.52H508.69z"/>
		<path fill="#5C94BA" d="M518.273,728.354c0.973,0,1.736,0.254,2.523,0.67v-5.115h3.495v16.736h-2.755l-0.51-1.088
			c-0.764,0.67-1.666,1.273-3.055,1.273c-2.5,0-4.352-2.107-4.352-6.229C513.621,730.482,515.564,728.354,518.273,728.354z
			 M519.107,737.959c0.67,0,1.25-0.301,1.689-0.648v-5.578c-0.463-0.301-1.042-0.533-1.645-0.533c-1.365,0-2.176,1.064-2.176,3.402
			C516.977,736.871,517.787,737.959,519.107,737.959z"/>
		<path fill="#5C94BA" d="M529.014,735.783c0.139,1.643,1.203,2.477,2.87,2.477c0.972,0,2.06-0.277,3.056-0.811l0.856,2.314
			c-1.273,0.695-2.824,1.088-4.259,1.088c-3.38,0-5.787-1.805-5.787-6.203c0-4.098,2.291-6.365,5.254-6.365
			c3.102,0,5.186,2.314,5.186,6.48v1.02H529.014z M529.014,733.699h3.936c-0.094-1.736-0.765-2.801-1.945-2.801
			C529.824,730.898,529.129,731.986,529.014,733.699z"/>
		<path fill="#5C94BA" d="M544.359,740.645v-7.686c0-1.018-0.463-1.527-1.389-1.527c-0.625,0-1.342,0.301-1.898,0.717v8.496h-3.494
			v-12.129h2.777l0.51,1.18c0.994-0.74,2.082-1.342,3.541-1.342c2.223,0,3.449,1.318,3.449,3.771v8.52H544.359z"/>
		<path fill="#5C94BA" d="M554.476,740.807c-2.64,0-4.005-1.088-4.005-3.912v-5.578h-1.527v-2.801h1.527v-3.195h3.496v3.195h2.893
			v2.801h-2.893v5.092c0,1.064,0.555,1.48,1.504,1.48c0.486,0,0.926-0.068,1.389-0.207v2.801
			C556.234,740.668,555.424,740.807,554.476,740.807z"/>
	</g>
	<g enable-background="new    ">
		<path fill="#5C94BA" d="M443.672,767.371c-4.699,0-7.454-2.801-7.454-8.264c0-5.578,3.31-8.334,7.661-8.334
			c1.853,0,3.403,0.395,4.815,1.066l-1.088,3.146c-1.088-0.508-2.222-0.879-3.657-0.879c-2.547,0-3.912,1.783-3.912,5.047
			c0,3.541,1.319,5.139,3.889,5.139c0.672,0,1.25-0.139,1.689-0.324v-3.264h-2.754v-2.916h6.296v8.217
			C447.723,766.77,445.731,767.371,443.672,767.371z"/>
		<path fill="#5C94BA" d="M454.573,759.709v7.477h-3.495v-12.129h2.709l0.602,1.967c0.926-1.342,2.083-2.176,3.727-2.152v3.635
			C456.727,758.529,455.545,758.969,454.573,759.709z"/>
		<path fill="#5C94BA" d="M461.935,762.324c0.139,1.645,1.204,2.479,2.87,2.479c0.973,0,2.061-0.279,3.056-0.811l0.856,2.314
			c-1.273,0.693-2.824,1.088-4.26,1.088c-3.379,0-5.786-1.807-5.786-6.203c0-4.098,2.292-6.365,5.255-6.365
			c3.102,0,5.185,2.314,5.185,6.48v1.018H461.935z M461.935,760.242h3.935c-0.092-1.736-0.764-2.801-1.943-2.801
			C462.744,757.441,462.051,758.529,461.935,760.242z"/>
		<path fill="#5C94BA" d="M473.276,762.324c0.139,1.645,1.204,2.479,2.87,2.479c0.973,0,2.061-0.279,3.056-0.811l0.856,2.314
			c-1.273,0.693-2.824,1.088-4.26,1.088c-3.379,0-5.786-1.807-5.786-6.203c0-4.098,2.292-6.365,5.255-6.365
			c3.102,0,5.185,2.314,5.185,6.48v1.018H473.276z M473.276,760.242h3.935c-0.092-1.736-0.764-2.801-1.943-2.801
			C474.086,757.441,473.393,758.529,473.276,760.242z"/>
		<path fill="#5C94BA" d="M488.669,767.186l-3.264-5.578h-0.069v5.578h-3.496v-16.734h3.496v9.676h0.069l3.194-5.07h3.958v0.023
			l-3.912,5.787l4.052,6.295v0.023H488.669z"/>
		<path fill="#5C94BA" d="M497.882,767.395c-1.897,0-3.796-0.439-5.231-1.158l0.902-2.73c1.32,0.648,3.01,1.135,4.283,1.135
			c0.949,0,1.48-0.324,1.48-0.881c0-0.555-0.347-0.787-2.152-1.342c-2.615-0.764-3.936-1.527-3.936-3.773
			c0-2.268,1.621-3.797,4.561-3.797c1.621,0,3.148,0.371,4.398,0.973l-0.857,2.686c-1.156-0.533-2.43-0.902-3.564-0.902
			c-0.855,0-1.272,0.324-1.272,0.787c0,0.531,0.347,0.764,2.083,1.295c3.032,0.881,3.981,1.807,3.981,3.867
			C502.558,766.121,500.775,767.395,497.882,767.395z"/>
	</g>
	<g enable-background="new    ">
		<path fill="#5C94BA" d="M508.934,767.367v-3.369c5.678-0.312,7.57-1.168,7.57-2.748c0-1.193-1.115-1.816-4.978-1.867l-0.362-2.619
			c3.939-1.244,5.211-2.1,5.211-3.291c0-0.855-0.675-1.35-1.867-1.35c-1.166,0-2.877,0.467-4.562,1.297l-1.115-3.008
			c1.996-0.984,3.992-1.607,6.481-1.607c3.345,0,5.288,1.504,5.288,3.992c0,2.309-1.477,3.631-4.199,4.668
			c3.059,0.467,4.355,1.658,4.355,3.992C520.756,765.5,516.037,767.107,508.934,767.367z"/>
		<path fill="#5C94BA" d="M522.053,767.186v-4.328h3.914v4.328H522.053z"/>
		<path fill="#5C94BA" d="M527.678,767.186l-0.57-2.98l6.273-6.975c1.012-1.062,1.556-1.943,1.556-2.93
			c0-1.01-0.648-1.789-1.841-1.789c-1.219,0-2.463,0.676-4.045,2.074l-1.814-3.162c1.479-1.4,3.604-2.619,6.404-2.619
			c3.525,0,5.521,1.996,5.521,4.979c0,2.229-0.934,3.836-3.163,5.988l-3.37,3.838h6.793v3.576H527.678z"/>
		<path fill="#5C94BA" d="M544.191,758.164c-2.074,0-3.732-1.686-3.732-4.641s1.658-4.666,3.732-4.666
			c2.049,0,3.733,1.711,3.733,4.666S546.24,758.164,544.191,758.164z M548.91,758.424l-5.107,9.074l-1.686-0.855l5.73-8.867
			l5.106-9.047l1.685,0.855L548.91,758.424z M544.191,750.906c-0.83,0-1.374,0.828-1.374,2.617s0.544,2.592,1.374,2.592
			s1.374-0.803,1.374-2.592S545.021,750.906,544.191,750.906z M552.592,767.367c-2.074,0-3.734-1.711-3.734-4.666
			s1.66-4.641,3.734-4.641c2.047,0,3.732,1.686,3.732,4.641S554.639,767.367,552.592,767.367z M552.592,760.109
			c-0.83,0-1.375,0.828-1.375,2.592c0,1.789,0.545,2.619,1.375,2.619c0.829,0,1.373-0.83,1.373-2.619
			C553.965,760.938,553.421,760.109,552.592,760.109z"/>
	</g>
</g>
<g>
	<g enable-background="new    ">
		<path fill="#C3A831" d="M444.041,536.212v12.87h-3.75v-12.87h-4.397v-3.333h12.546v3.333H444.041z"/>
		<path fill="#C3A831" d="M452.953,549.313c-3.055,0-5.416-2.245-5.416-6.273c0-4.051,2.384-6.318,5.439-6.318
			s5.394,2.245,5.394,6.296C458.37,547.045,456.009,549.313,452.953,549.313z M452.953,539.638c-1.319,0-2.152,1.204-2.152,3.38
			c0,2.152,0.856,3.379,2.176,3.379c1.297,0,2.152-1.203,2.152-3.356C455.129,540.864,454.273,539.638,452.953,539.638z"/>
		<path fill="#C3A831" d="M469.989,544.452h-1.296v4.63h-3.704v-16.203h4.978c4.305,0,6.596,1.852,6.596,5.625
			C476.562,542.647,473.924,544.452,469.989,544.452z M469.967,535.957h-1.273v5.51h1.227c1.967,0,2.916-0.949,2.916-2.824
			C472.836,536.744,471.934,535.957,469.967,535.957z"/>
		<path fill="#C3A831" d="M482.535,549.313c-3.056,0-5.416-2.245-5.416-6.273c0-4.051,2.383-6.318,5.439-6.318
			c3.055,0,5.393,2.245,5.393,6.296C487.951,547.045,485.59,549.313,482.535,549.313z M482.535,539.638
			c-1.32,0-2.152,1.204-2.152,3.38c0,2.152,0.855,3.379,2.176,3.379c1.296,0,2.152-1.203,2.152-3.356
			C484.711,540.864,483.854,539.638,482.535,539.638z"/>
		<path fill="#C3A831" d="M494.178,549.244c-2.639,0-4.004-1.088-4.004-3.912v-5.578h-1.528v-2.801h1.528v-3.194h3.495v3.194h2.894
			v2.801h-2.894v5.092c0,1.065,0.556,1.481,1.505,1.481c0.486,0,0.926-0.069,1.389-0.208v2.801
			C495.938,549.105,495.127,549.244,494.178,549.244z"/>
		<path fill="#C3A831" d="M504.941,549.082l-0.463-1.111c-0.995,0.811-2.037,1.273-3.356,1.273c-2.176,0-3.61-1.227-3.61-3.773
			c0-1.134,0.347-2.06,0.972-2.685c0.741-0.741,1.829-1.111,3.61-1.111c0.695,0,1.598,0.093,2.153,0.208v-0.625
			c0-1.088-0.486-1.689-1.921-1.689c-1.135,0-2.223,0.277-3.287,0.741l-0.787-2.57c1.319-0.532,2.986-0.948,4.652-0.948
			c3.287,0,4.791,1.319,4.791,4.189v5.764l0.278,2.338H504.941z M504.247,546.327v-2.639c-0.37-0.046-0.949-0.115-1.389-0.115
			c-0.927,0-1.39,0.162-1.713,0.485c-0.231,0.255-0.394,0.672-0.394,1.204c0,1.157,0.671,1.667,1.666,1.667
			C503.02,546.93,503.691,546.698,504.247,546.327z"/>
		<path fill="#C3A831" d="M522.949,549.082v-7.708c0-1.019-0.485-1.505-1.342-1.505c-0.602,0-1.297,0.301-1.898,0.741
			c0.047,0.092,0.047,0.208,0.047,0.323v8.148h-3.496v-7.708c0-1.019-0.463-1.505-1.318-1.505c-0.603,0-1.297,0.301-1.853,0.718
			v8.495h-3.495v-12.129h2.777l0.51,1.18c0.995-0.74,2.083-1.342,3.473-1.342c1.342,0,2.314,0.485,2.869,1.412
			c1.088-0.811,2.315-1.412,3.75-1.412c2.199,0,3.473,1.25,3.473,3.75v8.541H522.949z"/>
		<path fill="#C3A831" d="M528.273,535.772v-2.616h3.657v2.616H528.273z M528.343,549.082v-12.129h3.519v12.129H528.343z"/>
	</g>
	<g enable-background="new    ">
		<path fill="#C3A831" d="M541.14,549.394l-0.493-3.396c6.016-0.597,7.777-1.971,7.777-3.837c0-1.089-0.699-1.686-1.789-1.686
			c-1.01,0-1.84,0.415-2.877,1.141l-2.877-1.114l0.518-9.566h10.863v3.37h-7.519l-0.259,3.812c0.984-0.545,2.047-0.855,3.422-0.855
			c2.773,0,4.588,1.633,4.588,4.718C552.494,546.723,548.605,548.745,541.14,549.394z"/>
		<path fill="#C3A831" d="M553.92,549.082v-4.329h3.915v4.329H553.92z"/>
		<path fill="#C3A831" d="M559.339,549.082v-3.345h2.955v-10.732l-2.385,0.648l-0.675-3.475l4.459-1.348h2.723v14.906h2.748v3.345
			H559.339z"/>
		<path fill="#C3A831" d="M573.856,540.061c-2.073,0-3.733-1.686-3.733-4.641c0-2.956,1.66-4.667,3.733-4.667
			c2.048,0,3.733,1.711,3.733,4.667C577.59,538.375,575.904,540.061,573.856,540.061z M578.574,540.319l-5.106,9.074l-1.685-0.855
			l5.729-8.867l5.107-9.047l1.686,0.855L578.574,540.319z M573.856,532.802c-0.829,0-1.374,0.829-1.374,2.618
			s0.545,2.592,1.374,2.592s1.374-0.803,1.374-2.592S574.686,532.802,573.856,532.802z M582.256,549.264
			c-2.074,0-3.732-1.711-3.732-4.667c0-2.955,1.658-4.64,3.732-4.64c2.049,0,3.733,1.685,3.733,4.64
			C585.989,547.553,584.305,549.264,582.256,549.264z M582.256,542.005c-0.829,0-1.373,0.829-1.373,2.592
			c0,1.789,0.544,2.619,1.373,2.619c0.83,0,1.375-0.83,1.375-2.619C583.631,542.834,583.086,542.005,582.256,542.005z"/>
	</g>
</g>
<g>
	<line id="line_9_" fill="none" stroke="#BCBEC0" stroke-miterlimit="10" x1="32.732" y1="752.064" x2="417.777" y2="752.064"/>
	<line id="line_13_" fill="none" stroke="#BCBEC0" stroke-miterlimit="10" x1="32.732" y1="646.52" x2="417.777" y2="646.52"/>
	<line id="line_14_" fill="none" stroke="#BCBEC0" stroke-miterlimit="10" x1="32.732" y1="540.98" x2="417.777" y2="540.98"/>
	<line id="line_15_" fill="none" stroke="#BCBEC0" stroke-miterlimit="10" x1="32.732" y1="435.435" x2="417.777" y2="435.435"/>
	<line id="line_16_" fill="none" stroke="#BCBEC0" stroke-miterlimit="10" x1="32.732" y1="329.895" x2="417.777" y2="329.895"/>
	<line id="line_17_" fill="none" stroke="#BCBEC0" stroke-miterlimit="10" x1="32.732" y1="224.35" x2="417.777" y2="224.35"/>
	<line id="line_18_" fill="none" stroke="#BCBEC0" stroke-miterlimit="10" x1="32.732" y1="118.811" x2="417.777" y2="118.811"/>
	<line id="line_19_" fill="none" stroke="#BCBEC0" stroke-miterlimit="10" x1="32.732" y1="13.267" x2="417.777" y2="13.267"/>
	<g id="Date_Ticks_1_">
		<line fill="none" stroke="#000000" stroke-miterlimit="10" x1="398.418" y1="857.604" x2="398.418" y2="888.4"/>
		<line fill="none" stroke="#000000" stroke-miterlimit="10" x1="39.187" y1="857.604" x2="39.187" y2="863.764"/>
		<line fill="none" stroke="#000000" stroke-miterlimit="10" x1="69.3" y1="857.604" x2="69.3" y2="863.764"/>
		<line fill="none" stroke="#000000" stroke-miterlimit="10" x1="102.596" y1="857.604" x2="102.596" y2="863.764"/>
		<line fill="none" stroke="#000000" stroke-miterlimit="10" x1="134.864" y1="857.604" x2="134.864" y2="863.764"/>
		<line fill="none" stroke="#000000" stroke-miterlimit="10" x1="168.205" y1="857.604" x2="168.205" y2="863.764"/>
		<line fill="none" stroke="#000000" stroke-miterlimit="10" x1="200.472" y1="857.604" x2="200.472" y2="863.764"/>
		<line fill="none" stroke="#000000" stroke-miterlimit="10" x1="233.814" y1="857.604" x2="233.814" y2="863.764"/>
		<line fill="none" stroke="#000000" stroke-miterlimit="10" x1="267.155" y1="857.604" x2="267.155" y2="863.764"/>
		<line fill="none" stroke="#000000" stroke-miterlimit="10" x1="299.422" y1="857.604" x2="299.422" y2="863.764"/>
		<line fill="none" stroke="#000000" stroke-miterlimit="10" x1="332.809" y1="857.604" x2="332.809" y2="863.764"/>
		<line fill="none" stroke="#000000" stroke-miterlimit="10" x1="365.076" y1="857.604" x2="365.076" y2="863.764"/>
		<line fill="none" stroke="#000000" stroke-miterlimit="10" x1="398.418" y1="857.604" x2="398.418" y2="863.764"/>
	</g>
	<polyline id="River_2_" fill="none" stroke="#C3A831" stroke-width="5" stroke-linejoin="round" stroke-miterlimit="10" points="
		289.742,630.688 394.113,625.412 405.945,620.137 417.777,588.475 	"/>
	
		<polyline id="Golden_Dawn_2_" fill="none" stroke="#0073A2" stroke-width="5" stroke-linejoin="round" stroke-miterlimit="10" points="
		32.732,451.266 289.742,530.424 394.113,583.193 405.945,635.969 417.777,604.307 	"/>
	<polyline id="Pasok_2_" fill="none" stroke="#D5C073" stroke-width="5" stroke-linejoin="round" stroke-miterlimit="10" points="
		32.732,609.58 289.742,630.688 394.113,614.855 405.945,646.52 417.777,641.244 	"/>
	<polyline id="KKE_2_" fill="none" stroke="#D77464" stroke-width="5" stroke-linejoin="round" stroke-miterlimit="10" points="
		32.732,614.855 289.742,625.412 394.113,635.969 405.945,662.35 417.777,641.244 	"/>
	
		<line id="Democrats_Socialist_Movement_2_" fill="none" stroke="#D5C073" stroke-width="5" stroke-linejoin="round" stroke-miterlimit="10" x1="405.945" y1="730.951" x2="417.777" y2="741.508"/>
	
		<polyline id="Independent_Greeks_2_" fill="none" stroke="#5C94BA" stroke-width="5" stroke-linejoin="round" stroke-miterlimit="10" points="
		32.732,630.688 289.742,694.014 394.113,699.289 405.945,741.508 417.777,688.738 	"/>
	
		<line id="Zero_baseline_1_" fill="none" stroke="#000000" stroke-miterlimit="10" x1="32.732" y1="857.604" x2="417.777" y2="857.604"/>
	
		<circle id="River:_9_x2F_22_x2F_14_x2C__4.30_1_" fill="#FFFFFF" stroke="#C3A831" stroke-width="3" stroke-miterlimit="10" cx="289.741" cy="630.688" r="4.62"/>
	<path id="River:_12_x2F_28_x2F_14_x2C__4.40_1_" fill="#FFFFFF" stroke="#C3A831" stroke-width="3" stroke-miterlimit="10" d="
		M389.494,625.412c0-2.551,2.068-4.619,4.619-4.619c2.555,0,4.619,2.068,4.619,4.619s-2.064,4.619-4.619,4.619
		C391.562,630.031,389.494,627.963,389.494,625.412z"/>
	<path id="River:_1_x2F_8_x2F_15_x2C__4.50_1_" fill="#FFFFFF" stroke="#C3A831" stroke-width="3" stroke-miterlimit="10" d="
		M401.326,620.137c0-2.557,2.068-4.619,4.619-4.619s4.619,2.062,4.619,4.619c0,2.551-2.068,4.619-4.619,4.619
		S401.326,622.688,401.326,620.137z"/>
	<path id="River:_1_x2F_19_x2F_15_x2C__5.1" fill="#FFFFFF" stroke="#C3A831" stroke-width="3" stroke-miterlimit="10" d="
		M413.156,588.475c0-2.551,2.07-4.619,4.621-4.619c2.549,0,4.619,2.068,4.619,4.619s-2.07,4.619-4.619,4.619
		C415.227,593.094,413.156,591.025,413.156,588.475z"/>
	
		<circle id="Golden_Dawn:_1_x2F_26_x2F_14_x2C__7.70_1_" fill="#FFFFFF" stroke="#0073A2" stroke-width="3" stroke-miterlimit="10" cx="32.732" cy="451.266" r="4.62"/>
	
		<circle id="Golden_Dawn:_9_x2F_22_x2F_14_x2C__6.20_1_" fill="#FFFFFF" stroke="#0073A2" stroke-width="3" stroke-miterlimit="10" cx="289.741" cy="530.424" r="4.62"/>
	
		<path id="Golden_Dawn:_12_x2F_28_x2F_14_x2C__5.20_1_" fill="#FFFFFF" stroke="#0073A2" stroke-width="3" stroke-miterlimit="10" d="
		M389.494,583.193c0-2.551,2.068-4.619,4.619-4.619c2.555,0,4.619,2.068,4.619,4.619s-2.064,4.619-4.619,4.619
		C391.562,587.812,389.494,585.744,389.494,583.193z"/>
	<path id="Golden_Dawn:_1_x2F_8_x2F_15_x2C__4.20_1_" fill="#FFFFFF" stroke="#0073A2" stroke-width="3" stroke-miterlimit="10" d="
		M401.326,635.969c0-2.557,2.068-4.619,4.619-4.619s4.619,2.062,4.619,4.619c0,2.551-2.068,4.619-4.619,4.619
		S401.326,638.52,401.326,635.969z"/>
	<path id="Golden_Dawn:_1_x2F_19_x2F_15_x2C__4.8" fill="#FFFFFF" stroke="#0073A2" stroke-width="3" stroke-miterlimit="10" d="
		M413.156,604.307c0-2.557,2.07-4.621,4.621-4.621c2.549,0,4.619,2.064,4.619,4.621c0,2.549-2.07,4.619-4.619,4.619
		C415.227,608.926,413.156,606.855,413.156,604.307z"/>
	
		<circle id="Pasok:_1_x2F_26_x2F_14_x2C__4.70_1_" fill="#FFFFFF" stroke="#D5C073" stroke-width="3" stroke-miterlimit="10" cx="32.732" cy="609.58" r="4.62"/>
	
		<circle id="Pasok:_9_x2F_22_x2F_14_x2C__4.30_1_" fill="#FFFFFF" stroke="#D5C073" stroke-width="3" stroke-miterlimit="10" cx="289.741" cy="630.688" r="4.62"/>
	<path id="Pasok:_12_x2F_28_x2F_14_x2C__4.60_1_" fill="#FFFFFF" stroke="#D5C073" stroke-width="3" stroke-miterlimit="10" d="
		M389.494,614.855c0-2.549,2.068-4.619,4.619-4.619c2.555,0,4.619,2.07,4.619,4.619c0,2.551-2.064,4.621-4.619,4.621
		C391.562,619.477,389.494,617.406,389.494,614.855z"/>
	
		<circle id="Pasok:_1_x2F_8_x2F_15_x2C__4_1_" fill="#FFFFFF" stroke="#D5C073" stroke-width="3" stroke-miterlimit="10" cx="405.945" cy="646.52" r="4.619"/>
	<path id="Pasok:_1_x2F_19_x2F_15_x2C__4.1" fill="#FFFFFF" stroke="#D5C073" stroke-width="3" stroke-miterlimit="10" d="
		M413.156,641.244c0-2.551,2.07-4.619,4.621-4.619c2.549,0,4.619,2.068,4.619,4.619s-2.07,4.619-4.619,4.619
		C415.227,645.863,413.156,643.795,413.156,641.244z"/>
	
		<circle id="KKE:_1_x2F_26_x2F_14_x2C__4.60_1_" fill="#FFFFFF" stroke="#D77464" stroke-width="3" stroke-miterlimit="10" cx="32.732" cy="614.855" r="4.62"/>
	
		<circle id="KKE:_9_x2F_22_x2F_14_x2C__4.40_1_" fill="#FFFFFF" stroke="#D77464" stroke-width="3" stroke-miterlimit="10" cx="289.741" cy="625.412" r="4.62"/>
	<path id="KKE:_12_x2F_28_x2F_14_x2C__4.20_1_" fill="#FFFFFF" stroke="#D77464" stroke-width="3" stroke-miterlimit="10" d="
		M389.494,635.969c0-2.557,2.068-4.619,4.619-4.619c2.555,0,4.619,2.062,4.619,4.619c0,2.551-2.064,4.619-4.619,4.619
		C391.562,640.588,389.494,638.52,389.494,635.969z"/>
	
		<circle id="KKE:_1_x2F_8_x2F_15_x2C__3.70_1_" fill="#FFFFFF" stroke="#D77464" stroke-width="3" stroke-miterlimit="10" cx="405.945" cy="662.35" r="4.619"/>
	<path id="KKE:_1_x2F_19_x2F_15_x2C__4.1" fill="#FFFFFF" stroke="#D77464" stroke-width="3" stroke-miterlimit="10" d="
		M413.156,641.244c0-2.551,2.07-4.619,4.621-4.619c2.549,0,4.619,2.068,4.619,4.619s-2.07,4.619-4.619,4.619
		C415.227,645.863,413.156,643.795,413.156,641.244z"/>
	
		<path id="Democrats_Socialist_Movement:_1_x2F_8_x2F_15_x2C__2.40_1_" fill="#FFFFFF" stroke="#D5C073" stroke-width="3" stroke-miterlimit="10" d="
		M401.326,730.951c0-2.551,2.068-4.619,4.619-4.619s4.619,2.068,4.619,4.619c0,2.557-2.068,4.619-4.619,4.619
		S401.326,733.508,401.326,730.951z"/>
	
		<path id="Democrats_Socialist_Movement:_1_x2F_19_x2F_15_x2C__2.2" fill="#FFFFFF" stroke="#D5C073" stroke-width="3" stroke-miterlimit="10" d="
		M413.156,741.508c0-2.551,2.07-4.619,4.621-4.619c2.549,0,4.619,2.068,4.619,4.619s-2.07,4.619-4.619,4.619
		C415.227,746.127,413.156,744.059,413.156,741.508z"/>
	
		<circle id="Independent_Greeks:_1_x2F_26_x2F_14_x2C__4.30_1_" fill="#FFFFFF" stroke="#5C94BA" stroke-width="3" stroke-miterlimit="10" cx="32.732" cy="630.688" r="4.62"/>
	
		<circle id="Independent_Greeks:_9_x2F_22_x2F_14_x2C__3.10_1_" fill="#FFFFFF" stroke="#5C94BA" stroke-width="3" stroke-miterlimit="10" cx="289.741" cy="694.014" r="4.62"/>
	
		<path id="Independent_Greeks:_12_x2F_28_x2F_14_x2C__3_1_" fill="#FFFFFF" stroke="#5C94BA" stroke-width="3" stroke-miterlimit="10" d="
		M389.494,699.289c0-2.551,2.068-4.619,4.619-4.619c2.555,0,4.619,2.068,4.619,4.619c0,2.557-2.064,4.619-4.619,4.619
		C391.562,703.908,389.494,701.846,389.494,699.289z"/>
	
		<circle id="Independent_Greeks:_1_x2F_8_x2F_15_x2C__2.20_1_" fill="#FFFFFF" stroke="#5C94BA" stroke-width="3" stroke-miterlimit="10" cx="405.945" cy="741.508" r="4.619"/>
	
		<path id="Independent_Greeks:_1_x2F_19_x2F_15_x2C__3.2" fill="#FFFFFF" stroke="#5C94BA" stroke-width="3" stroke-miterlimit="10" d="
		M413.156,688.738c0-2.551,2.07-4.619,4.621-4.619c2.549,0,4.619,2.068,4.619,4.619s-2.07,4.619-4.619,4.619
		C415.227,693.357,413.156,691.289,413.156,688.738z"/>
</g>
</svg>
