<?xml version="1.0" encoding="UTF-8" standalone="no"?>
<svg
   xmlns:dc="http://purl.org/dc/elements/1.1/"
   xmlns:cc="http://creativecommons.org/ns#"
   xmlns:rdf="http://www.w3.org/1999/02/22-rdf-syntax-ns#"
   xmlns:svg="http://www.w3.org/2000/svg"
   xmlns="http://www.w3.org/2000/svg"
   version="1.1"
   id="svg13905"
   viewBox="0 0 4870.0001 5000.0001"
   height="5000"
   width="4870">
  <title
     id="title8927">STS-112 Insignia</title>
  <defs
     id="defs173" />
  <metadata
     id="metadata13910">
    <rdf:RDF>
      <cc:Work
         rdf:about="">
        <dc:format>image/svg+xml</dc:format>
        <dc:type
           rdf:resource="http://purl.org/dc/dcmitype/StillImage" />
        <dc:title>STS-112 Insignia</dc:title>
      </cc:Work>
    </rdf:RDF>
  </metadata>
  <g
     transform="translate(0,3947.6378)"
     id="layer1">
    <g
       id="g5510"
       transform="matrix(87.414906,0,0,-87.414906,-33062.689,26882.742)">
      <g
         id="g5512">
        <g
           id="g15043">
          <g
             id="g8764">
            <g
               transform="translate(394.09061,351.90097)"
               id="g5308">
              <path
                 id="path5310"
                 style="fill:#b9b9b9;fill-opacity:1;fill-rule:evenodd;stroke:none"
                 d="M 0,0 23.987,0 39.073,-14.359 39.053,-40.095 25,-55.62 l -25.082,0.02 -15.007,15.272 0,26.161 L 0,0 Z" />
            </g>
            <g
               id="g5312"
               transform="translate(-0.05719848,-2.2879394e-6)">
              <g
                 id="g5314">
                <g
                   transform="translate(394.1478,351.9009)"
                   id="g5320">
                  <path
                     id="path5322"
                     style="fill:none;stroke:#0c7ed4;stroke-width:1.07799995;stroke-linecap:butt;stroke-linejoin:miter;stroke-miterlimit:14.30000019;stroke-dasharray:none;stroke-opacity:1"
                     d="M 0,0 23.987,0 39.073,-14.359 39.053,-40.095 25,-55.62 l -25.082,0.02 -15.007,15.272 0,26.161 L 0,0 Z" />
                </g>
              </g>
            </g>
            <g
               transform="translate(396.63661,345.0076)"
               id="g5324">
              <path
                 id="path5326"
                 style="fill:#0f3a7e;fill-opacity:1;fill-rule:evenodd;stroke:none"
                 d="m 0,0 18.859,0 11.583,-10.994 0,-19.705 -10.494,-11.885 -19.825,0.014 -11.698,11.693 0,20.03 L 0,0 Z" />
            </g>
            <g
               transform="translate(396.63661,345.0076)"
               id="g5328">
              <path
                 id="path5330"
                 style="fill:none;stroke:#0c7ed4;stroke-width:0.89899999;stroke-linecap:butt;stroke-linejoin:miter;stroke-miterlimit:14.30000019;stroke-dasharray:none;stroke-opacity:1"
                 d="m 0,0 18.859,0 11.583,-10.994 0,-19.705 -10.494,-11.885 -19.825,0.014 -11.698,11.693 0,20.03 L 0,0 Z" />
            </g>
            <g
               id="g5332"
               transform="translate(-0.05719848,-2.2879394e-6)">
              <g
                 id="g5334">
                <g
                   transform="translate(405.1013,319.842)"
                   id="g5340">
                  <path
                     id="path5342"
                     style="fill:#d3d3d3;fill-opacity:1;fill-rule:evenodd;stroke:none"
                     d="m 0,0 c 0,0 -0.643,-1.085 0,-3.063 0.011,-0.033 2.052,0 2.052,0 0,0 0.688,1.062 0.109,3.063 C 2.157,0.015 -0.011,0.011 0,0" />
                </g>
                <g
                   transform="translate(405.1013,319.842)"
                   id="g5344">
                  <path
                     id="path5346"
                     style="fill:none;stroke:#000000;stroke-width:0.18000001;stroke-linecap:butt;stroke-linejoin:miter;stroke-miterlimit:11.5;stroke-dasharray:none;stroke-opacity:1"
                     d="m 0,0 c 0,0 -0.643,-1.085 0,-3.063 0.011,-0.033 2.052,0 2.052,0 0,0 0.688,1.062 0.109,3.063 C 2.157,0.015 -0.011,0.011 0,0 Z" />
                </g>
                <path
                   id="path5348"
                   style="fill:#dfdfdf;fill-opacity:1;fill-rule:evenodd;stroke:#000000;stroke-width:0.18000001;stroke-linecap:butt;stroke-linejoin:miter;stroke-miterlimit:11.5;stroke-dasharray:none;stroke-opacity:1"
                   d="m 404.752,334.166 1.156,0 0,-0.818 -1.156,0 0,0.818 z" />
                <path
                   id="path5350"
                   style="fill:#dfdfdf;fill-opacity:1;fill-rule:evenodd;stroke:#000000;stroke-width:0.18000001;stroke-linecap:butt;stroke-linejoin:miter;stroke-miterlimit:11.5;stroke-dasharray:none;stroke-opacity:1"
                   d="m 406.547,334.114 1.208,0 0,-0.855 -1.208,0 0,0.855 z" />
                <g
                   transform="translate(407.2023,334.3763)"
                   id="g5352">
                  <path
                     id="path5354"
                     style="fill:#dfdfdf;fill-opacity:1;fill-rule:evenodd;stroke:none"
                     d="m 0,0 0.741,-1.368 22.895,0 L 19.601,0 0,0 Z" />
                </g>
                <g
                   transform="translate(407.2023,334.3763)"
                   id="g5356">
                  <path
                     id="path5358"
                     style="fill:none;stroke:#000000;stroke-width:0.18000001;stroke-linecap:butt;stroke-linejoin:miter;stroke-miterlimit:11.5;stroke-dasharray:none;stroke-opacity:1"
                     d="m 0,0 0.741,-1.368 22.895,0 L 19.601,0 0,0 Z" />
                </g>
                <path
                   id="path5360"
                   style="fill:#dfdfdf;fill-opacity:1;fill-rule:evenodd;stroke:#000000;stroke-width:0.18000001;stroke-linecap:butt;stroke-linejoin:miter;stroke-miterlimit:11.5;stroke-dasharray:none;stroke-opacity:1"
                   d="m 405.71,333.839 0.917,0 0,-0.859 -0.917,0 0,0.859 z" />
                <path
                   id="path5362"
                   style="fill:#dfdfdf;fill-opacity:1;fill-rule:evenodd;stroke:#000000;stroke-width:0.18000001;stroke-linecap:butt;stroke-linejoin:miter;stroke-miterlimit:11.5;stroke-dasharray:none;stroke-opacity:1"
                   d="m 405.39,332.979 1.595,0 0,-7.409 -1.595,0 0,7.409 z" />
                <path
                   id="path5364"
                   style="fill:#d3d3d3;fill-opacity:1;fill-rule:evenodd;stroke:#000000;stroke-width:0.18000001;stroke-linecap:butt;stroke-linejoin:miter;stroke-miterlimit:11.5;stroke-dasharray:none;stroke-opacity:1"
                   d="m 405.191,325.569 1.994,0 0,-2.701 -1.994,0 0,2.701 z" />
                <path
                   id="path5366"
                   style="fill:#c8c7c5;fill-opacity:1;fill-rule:evenodd;stroke:#000000;stroke-width:0.18000001;stroke-linecap:butt;stroke-linejoin:miter;stroke-miterlimit:11.5;stroke-dasharray:none;stroke-opacity:1"
                   d="m 402.866,321.576 1.196,0 0,-0.818 -1.196,0 0,0.818 z" />
                <path
                   id="path5368"
                   style="fill:#c8c7c5;fill-opacity:1;fill-rule:evenodd;stroke:#000000;stroke-width:0.18000001;stroke-linecap:butt;stroke-linejoin:miter;stroke-miterlimit:11.5;stroke-dasharray:none;stroke-opacity:1"
                   d="m 402.347,321.822 0.518,0 0,-1.268 -0.518,0 0,1.268 z" />
                <g
                   transform="translate(402.1867,321.6577)"
                   id="g5370">
                  <path
                     id="path5372"
                     style="fill:#dfdfdf;fill-opacity:1;fill-rule:evenodd;stroke:none"
                     d="m 0,0 -0.319,-0.941 -8.297,0 L -7.499,0 0,0 Z" />
                </g>
                <g
                   transform="translate(402.1867,321.6577)"
                   id="g5374">
                  <path
                     id="path5376"
                     style="fill:none;stroke:#000000;stroke-width:0.18000001;stroke-linecap:butt;stroke-linejoin:miter;stroke-miterlimit:11.5;stroke-dasharray:none;stroke-opacity:1"
                     d="m 0,0 -0.319,-0.941 -8.297,0 L -7.499,0 0,0 Z" />
                </g>
                <path
                   id="path5378"
                   style="fill:#dfdfdf;fill-opacity:1;fill-rule:evenodd;stroke:#000000;stroke-width:0.18000001;stroke-linecap:butt;stroke-linejoin:miter;stroke-miterlimit:11.5;stroke-dasharray:none;stroke-opacity:1"
                   d="m 409.57,321.512 -1.197,0 0,-0.819 1.197,0 0,0.819 z" />
                <path
                   id="path5380"
                   style="fill:#dfdfdf;fill-opacity:1;fill-rule:evenodd;stroke:#000000;stroke-width:0.18000001;stroke-linecap:butt;stroke-linejoin:miter;stroke-miterlimit:11.5;stroke-dasharray:none;stroke-opacity:1"
                   d="m 410.088,321.757 -0.518,0 0,-1.269 0.518,0 0,1.269 z" />
                <g
                   transform="translate(410.0539,321.5941)"
                   id="g5382">
                  <path
                     id="path5384"
                     style="fill:#dfdfdf;fill-opacity:1;fill-rule:evenodd;stroke:none"
                     d="m 0,0 0.319,-0.941 8.297,0 L 7.499,0 0,0 Z" />
                </g>
                <g
                   transform="translate(410.3135,321.0914)"
                   id="g5386">
                  <path
                     id="path5388"
                     style="fill:none;stroke:#000000;stroke-width:0.18000001;stroke-linecap:butt;stroke-linejoin:miter;stroke-miterlimit:11.5;stroke-dasharray:none;stroke-opacity:1"
                     d="m 0,0 7.761,0.001 m -8.021,0.502 0.319,-0.942 8.297,0 -1.116,0.942 -7.5,0 z" />
                </g>
                <path
                   id="path5390"
                   style="fill:#d3d3d3;fill-opacity:1;fill-rule:evenodd;stroke:none"
                   d="m 401.565,326.368 10.658,0 0,-2.564 -10.658,0 0,2.564 z" />
                <g
                   transform="translate(401.5646,324.6827)"
                   id="g5392">
                  <path
                     id="path5394"
                     style="fill:none;stroke:#000000;stroke-width:0.18000001;stroke-linecap:butt;stroke-linejoin:miter;stroke-miterlimit:11.5;stroke-dasharray:none;stroke-opacity:1"
                     d="M 0,0 10.658,0 M 0,0.879 l 10.658,0 M 0,1.685 l 10.658,0 0,-2.564 -10.658,0 0,2.564 z" />
                </g>
                <g
                   transform="translate(401.8272,324.0156)"
                   id="g5396">
                  <path
                     id="path5398"
                     style="fill:#dfdfdf;fill-opacity:1;fill-rule:evenodd;stroke:none"
                     d="M 0,0 0.004,1.173 0.609,1.171 0.605,-0.002 0,0 Z" />
                </g>
                <g
                   transform="translate(401.8272,324.0156)"
                   id="g5400">
                  <path
                     id="path5402"
                     style="fill:none;stroke:#000000;stroke-width:0.18000001;stroke-linecap:butt;stroke-linejoin:miter;stroke-miterlimit:11.5;stroke-dasharray:none;stroke-opacity:1"
                     d="M 0,0 0.004,1.173 0.609,1.171 0.605,-0.002 0,0 Z" />
                </g>
                <g
                   transform="translate(402.6572,323.7756)"
                   id="g5404">
                  <path
                     id="path5406"
                     style="fill:#dfdfdf;fill-opacity:1;fill-rule:evenodd;stroke:none"
                     d="m 0,0 0.269,-0.379 -0.672,-0.242 -4.508,-0.924 -5.354,1.595 0.22,0.193 5.102,-1.24 4.338,0.618 C -0.603,-0.448 0.002,-0.069 0,0" />
                </g>
                <g
                   transform="translate(402.6572,323.7756)"
                   id="g5408">
                  <path
                     id="path5410"
                     style="fill:none;stroke:#000000;stroke-width:0.18000001;stroke-linecap:butt;stroke-linejoin:miter;stroke-miterlimit:11.5;stroke-dasharray:none;stroke-opacity:1"
                     d="m 0,0 0.269,-0.379 -0.672,-0.242 -4.508,-0.924 -5.354,1.595 0.22,0.193 5.102,-1.24 4.338,0.618 C -0.603,-0.448 0.002,-0.069 0,0 Z" />
                </g>
                <g
                   transform="translate(392.3755,323.6295)"
                   id="g5412">
                  <path
                     id="path5414"
                     style="fill:#c8c7c5;fill-opacity:1;fill-rule:evenodd;stroke:none"
                     d="M 0,0 0.004,1.173 0.609,1.171 0.605,-0.002 0,0 Z" />
                </g>
                <g
                   transform="translate(392.3755,323.6295)"
                   id="g5416">
                  <path
                     id="path5418"
                     style="fill:none;stroke:#000000;stroke-width:0.18000001;stroke-linecap:butt;stroke-linejoin:miter;stroke-miterlimit:11.5;stroke-dasharray:none;stroke-opacity:1"
                     d="M 0,0 0.004,1.173 0.609,1.171 0.605,-0.002 0,0 Z" />
                </g>
                <g
                   transform="translate(402.0562,323.9889)"
                   id="g5420">
                  <path
                     id="path5422"
                     style="fill:#dfdfdf;fill-opacity:1;fill-rule:evenodd;stroke:none"
                     d="m 0,0 0.244,0.237 0.37,-0.4 L 0.37,-0.401 0,0 Z" />
                </g>
                <g
                   transform="translate(397.6601,322.7073)"
                   id="g5424">
                  <path
                     id="path5426"
                     style="fill:none;stroke:#000000;stroke-width:0.18000001;stroke-linecap:butt;stroke-linejoin:miter;stroke-miterlimit:11.5;stroke-dasharray:none;stroke-opacity:1"
                     d="M 0,0 -0.001,-0.455 M 4.396,1.282 4.64,1.519 5.01,1.118 4.766,0.881 4.396,1.282 Z" />
                </g>
                <g
                   transform="translate(405.31,329.5403)"
                   id="g5428">
                  <path
                     id="path5430"
                     style="fill:#d3d3d3;fill-opacity:1;fill-rule:evenodd;stroke:none"
                     d="M 0,0 -1.396,0.245 -2.473,0.041 -3.749,0.204 -4.906,-0.041 -5.864,0.123 -7.02,-0.041 -8.177,0.204 -9.055,0 l 0,-2.087 0.798,0.04 1.077,-0.122 1.117,0.122 1.117,-0.122 1.037,0.204 1.157,-0.122 1.077,0.204 L 0,-2.169 0,0 Z" />
                </g>
                <g
                   transform="translate(405.31,329.5403)"
                   id="g5432">
                  <path
                     id="path5434"
                     style="fill:none;stroke:#000000;stroke-width:0.18000001;stroke-linecap:butt;stroke-linejoin:miter;stroke-miterlimit:11.5;stroke-dasharray:none;stroke-opacity:1"
                     d="M 0,0 -1.396,0.245 -2.473,0.041 -3.749,0.204 -4.906,-0.041 -5.864,0.123 -7.02,-0.041 -8.177,0.204 -9.055,0 l 0,-2.087 0.798,0.04 1.077,-0.122 1.117,0.122 1.117,-0.122 1.037,0.204 1.157,-0.122 1.077,0.204 L 0,-2.169 0,0 Z" />
                </g>
                <g
                   transform="translate(413.6868,338.9558)"
                   id="g5436">
                  <path
                     id="path5438"
                     style="fill:#fcfe1f;fill-opacity:1;fill-rule:nonzero;stroke:none"
                     d="m 0,0 c 0,0 -8.935,5.568 -18.748,-2.538 -6.377,-5.268 -8.456,-17.849 -1.123,-25.199 10.963,-10.986 22.636,-1.915 22.899,-1.652 1.458,1.456 6.944,6.218 6.506,15.694 -0.116,2.523 -2.123,2.61 -2.394,0.035 -0.054,0.312 -0.064,-6.643 2.888,-9.672 l 0,0.967 c 0,0 -3.072,5.115 -2.339,8.874 0.113,0.582 0.785,2.176 1.256,0.458 0.342,-1.251 0.421,-4.386 -0.416,-6.911 0.302,0.942 -1.362,-7.151 -8.61,-10.567 -6.348,-2.992 -13.675,-2.095 -19.074,3.513 -4.046,4.203 -4.632,9.657 -4.149,13.406 0.095,0.734 1.109,6.346 4.438,9.844 3.105,3.262 9.378,6.46 16.951,4.239 C -0.417,0.052 -0.216,0.074 0,0" />
                </g>
                <g
                   transform="translate(422.3334,319.3778)"
                   id="g5440" />
                <g
                   transform="translate(422.3334,319.3778)"
                   id="g5444" />
                <g
                   transform="translate(416.3669,342.5145)"
                   id="g5448">
                  <path
                     id="path5450"
                     style="fill:#fcfe1f;fill-opacity:1;fill-rule:evenodd;stroke:none"
                     d="m 0,0 -3.277,-2.932 4.528,-3.167 -4.869,2.722 -0.343,-4.968 -0.042,4.938 -6.525,-4.938 6.357,5.358 -4.69,2.773 4.813,-2.382 0.399,4.843 0.031,-4.809 L 0,0 Z" />
                </g>
                <g
                   transform="translate(380.3003,325.0756)"
                   id="g5452">
                  <path
                     id="path5454"
                     style="fill:#fcfe1f;fill-opacity:1;fill-rule:evenodd;stroke:none"
                     d="M 0,0 7.125,0.646 1.147,5.67 7.712,1.203 8.444,11.769 8.958,1.259 16.68,6.312 9.711,0.583 46.727,0.193 9.727,-0.56 15.116,-6.954 8.99,-1.381 8.027,-12.197 7.861,-1.316 1.981,-8.88 7.233,-0.801 0.417,-4.814 6.981,-0.021 0,0 Z" />
                </g>
                <g
                   transform="translate(385.5963,321.4059)"
                   id="g5456">
                  <path
                     id="path5458"
                     style="fill:none;stroke:#000000;stroke-width:0.106;stroke-linecap:butt;stroke-linejoin:miter;stroke-miterlimit:14.30000019;stroke-dasharray:none;stroke-opacity:1"
                     d="M 0,0 -3.314,-5.224 0,-1.033 m 0.015,3.519 -4.799,-3.62 4.799,2.826 M -0.004,4.198 -5.198,3.692 -0.004,3.599 M 0.042,6.542 -4.003,9.299 0,5.766" />
                </g>
                <g
                   transform="translate(389.1119,325.8448)"
                   id="g5460">
                  <path
                     id="path5462"
                     style="fill:#fcfe1f;fill-opacity:1;fill-rule:evenodd;stroke:none"
                     d="m 0,0 2.066,0.937 -1.489,-1.529 0.864,-0.148 0,-0.592 -0.672,0 L 1.345,-2.416 1.441,-2.959 -0.24,-2.367 0,0 Z" />
                </g>
                <path
                   id="path5464"
                   style="fill:#d3d3d3;fill-opacity:1;fill-rule:evenodd;stroke:#fc122b;stroke-width:0.42300001;stroke-linecap:butt;stroke-linejoin:miter;stroke-miterlimit:14.30000019;stroke-dasharray:none;stroke-opacity:1"
                   d="m 390.543,326.368 10.658,0 0,-2.564 -10.658,0 0,2.564 z" />
                <g
                   transform="translate(390.7625,324.6827)"
                   id="g5466">
                  <path
                     id="path5468"
                     style="fill:none;stroke:#000000;stroke-width:0.42300001;stroke-linecap:butt;stroke-linejoin:miter;stroke-miterlimit:14.30000019;stroke-dasharray:none;stroke-opacity:1"
                     d="M 0,0 10.203,0 M 0,0.879 l 10.203,0" />
                </g>
                <path
                   id="path5470"
                   style="fill:none;stroke:#000000;stroke-width:0.18000001;stroke-linecap:butt;stroke-linejoin:miter;stroke-miterlimit:14.30000019;stroke-dasharray:none;stroke-opacity:1"
                   d="m 390.359,326.567 11.073,0 0,-2.995 -11.073,0 0,2.995 z" />
                <g
                   transform="translate(394.1397,321.1768)"
                   id="g5472">
                  <path
                     id="path5474"
                     style="fill:none;stroke:#000000;stroke-width:0.18000001;stroke-linecap:butt;stroke-linejoin:miter;stroke-miterlimit:11.5;stroke-dasharray:none;stroke-opacity:1"
                     d="m 0,0 6.033,0 m 7.376669,12.583 21.073331,0" />
                </g>
                <g
                   transform="translate(397.847,298.22)"
                   id="g5476" />
                <g
                   transform="translate(399.342,299.3821)"
                   id="g5480" />
                <g
                   transform="translate(402.0607,300.2525)"
                   id="g5484" />
                <g
                   transform="translate(407.8265,298.3109)"
                   id="g5488" />
                <g
                   transform="translate(408.0849,298.3122)"
                   id="g5492" />
                <g
                   transform="translate(412.3644,298.352)"
                   id="g5496" />
                <g
                   transform="translate(412.8622,298.3553)"
                   id="g5500" />
              </g>
            </g>
            <g
               transform="matrix(0.0114397,0,0,-0.0114397,378.16993,307.53041)"
               id="g14920">
              <path
                 style="fill:#0f3a7e;fill-opacity:1;fill-rule:evenodd;stroke:none"
                 d="m 1901.1758,4551.0898 c -16.7837,0.088 -31.2081,2.9724 -43.9707,8.6543 -9.6157,4.2834 -18.2684,10.4905 -26.3106,19.1446 -8.0421,8.654 -14.1619,18.0941 -18.7949,28.9336 -3.2,7.6801 -5.507,16.1836 -6.9629,25.6269 l -49.8574,0.4317 -0.6992,-82.6075 -41.3477,0.4375 1.836,209.795 41.2597,-0.3497 -0.7851,-91.7851 47.9316,-0.4141 c 1.4334,30.1466 10.4698,53.5381 27.332,71.211 18.2698,18.969 42.1333,28.1489 72.7286,27.8867 30.3329,-0.2623 53.8475,-9.8795 71.7675,-29.3731 17.9201,-19.4061 26.4864,-45.6288 26.1368,-79.7207 -0.2623,-34.4414 -9.3524,-60.5792 -27.7969,-79.8105 -18.3572,-19.1439 -42.1338,-28.3228 -72.4668,-28.0606 z m 0.6992,36.1895 c 17.1333,-0.1748 30.5942,5.5081 41.084,17.3965 10.4898,11.801 15.6474,29.4579 15.8222,53.6719 0.2623,24.4761 -4.807,42.4835 -15.2968,54.8964 -10.5772,12.3255 -23.7779,18.4444 -40.3867,18.6192 -16.6089,0.087 -29.9829,-5.7683 -40.8223,-18.0938 -10.9269,-12.2381 -16.3467,-29.8959 -16.5215,-53.8476 -0.1748,-24.3014 4.7207,-42.1345 15.1231,-54.2852 10.4023,-12.2381 23.8647,-18.1826 40.998,-18.3574 z"
                 transform="translate(1.5599778e-5,-3947.6378)"
                 id="path5478" />
              <path
                 transform="matrix(87.414906,0,0,-87.414906,2083.4093,636.1979)"
                 d="m 0,0 0.006,-0.681 0.258,0.002 c 0.188,0.002 0.31,0.015 0.373,0.041 0.063,0.026 0.111,0.065 0.147,0.119 0.035,0.055 0.052,0.116 0.051,0.187 0,0.088 -0.026,0.159 -0.076,0.216 C 0.708,-0.059 0.645,-0.025 0.568,-0.011 0.511,-0.001 0.4,0.004 0.228,0.002 L 0,0 Z M -0.455,-1.999 -0.476,0.402 0.282,0.409 C 0.571,0.411 0.756,0.401 0.844,0.378 0.979,0.343 1.09,0.266 1.182,0.146 1.274,0.025 1.32,-0.128 1.322,-0.321 1.323,-0.469 1.299,-0.591 1.247,-0.693 1.195,-0.795 1.131,-0.873 1.05,-0.931 0.97,-0.99 0.89,-1.028 0.806,-1.047 0.693,-1.071 0.533,-1.084 0.317,-1.086 L 0.009,-1.089 0.017,-1.994 -0.455,-1.999 Z"
                 style="fill:#0f3a7e;fill-opacity:1;fill-rule:evenodd;stroke:none"
                 id="path5486" />
              <g
                 transform="matrix(0.98690171,-0.00887352,0.00872413,1.0131937,0,0)"
                 style="font-variant:normal;font-weight:bold;font-stretch:normal;font-size:292.58123779px;font-family:Arial;-inkscape-font-specification:Arial-BoldMT;writing-mode:lr-tb;fill:#0f3a7e;fill-opacity:1;fill-rule:nonzero;stroke:none"
                 id="text5504">
                <path
                   d="m 2372.9961,4541.918 -41.7344,0.375 0.012,1.2715 -3.1875,0.029 0.5567,64.8457 c 0.1894,22.0015 -0.6767,35.8572 -2.6016,41.5683 -1.9257,5.6146 -5.5506,10.3771 -10.875,14.2852 -5.3253,3.8116 -11.3731,5.7477 -18.1406,5.8086 -5.9216,0.053 -10.8213,-1.3027 -14.6992,-4.0664 -3.8787,-2.8603 -6.5893,-6.6965 -8.1348,-11.5079 -1.4523,-4.9087 -2.2729,-18.1696 -2.459,-39.7851 l -0.6074,-70.6367 -39.6191,0.3554 0.8379,97.2696 c 0.1246,14.4747 2.008,25.7985 5.6503,33.9687 3.6425,8.1702 9.4774,14.4857 17.5059,18.9492 8.0286,4.4636 17.0716,6.651 27.1289,6.5606 9.8694,-0.089 19.2014,-2.5379 27.9961,-7.3457 8.8887,-4.8087 16.0252,-11.3385 21.4062,-19.5899 l 0.1973,23.0157 0.3692,-0 0.4921,57.207 41.7325,-0.377 -1.8262,-212.1972 z"
                   transform="matrix(1.0131934,0.00887352,-0.00872413,0.98690141,39.505781,-3895.885)"
                   id="path15212" />
              </g>
              <path
                 transform="matrix(87.414906,0,0,-87.414906,2587.4262,805.9227)"
                 d="M 0,0 -0.021,2.4 -0.48,2.396 -1.423,0.785 -1.437,2.388 -1.876,2.384 l 0.021,-2.401 0.474,0.005 0.929,1.573 0.013,-1.565 L 0,0 Z"
                 style="fill:#0f3a7e;fill-opacity:1;fill-rule:evenodd;stroke:none"
                 id="path5490" />
              <path
                 transform="matrix(87.414906,0,0,-87.414906,2610.0142,805.8091)"
                 d="M 0,0 0.788,1.26 0.054,2.401 0.606,2.406 1.082,1.639 1.534,2.415 2.082,2.419 1.364,1.247 2.174,0.02 1.604,0.015 1.079,0.84 0.566,0.005 0,0 Z"
                 style="fill:#0f3a7e;fill-opacity:1;fill-rule:evenodd;stroke:none"
                 id="path5494" />
              <path
                 transform="matrix(87.414906,0,0,-87.414906,2984.1063,802.33)"
                 d="M 0,0 -0.021,2.4 -0.48,2.396 -1.423,0.785 -1.437,2.388 -1.876,2.384 l 0.021,-2.401 0.474,0.005 0.929,1.573 0.013,-1.565 L 0,0 Z"
                 style="fill:#0f3a7e;fill-opacity:1;fill-rule:evenodd;stroke:none"
                 id="path5498" />
              <path
                 transform="matrix(87.414906,0,0,-87.414906,3027.6214,802.0415)"
                 d="M 0,0 -0.021,2.4 0.451,2.405 0.459,1.46 1.385,1.468 1.377,2.413 1.849,2.417 1.869,0.017 1.397,0.013 1.388,1.062 0.463,1.054 0.472,0.004 0,0 Z"
                 style="fill:#0f3a7e;fill-opacity:1;fill-rule:evenodd;stroke:none"
                 id="path5502" />
            </g>
            <g
               transform="translate(404.9331,334.2479)"
               id="g5518">
              <path
                 id="path5520"
                 style="fill:#dfdfdf;fill-opacity:1;fill-rule:evenodd;stroke:none"
                 d="m 0,0 -0.749,-1.309 -23.13,0 L -19.802,0 0,0 Z" />
            </g>
            <g
               transform="translate(383.4547,333.6761)"
               id="g5522">
              <path
                 id="path5524"
                 style="fill:none;stroke:#000000;stroke-width:0.18000001;stroke-linecap:butt;stroke-linejoin:miter;stroke-miterlimit:11.5;stroke-dasharray:none;stroke-opacity:1"
                 d="m 0,0 21.132,0 m 0.346,0.572 -0.749,-1.31 -23.129,0 4.077,1.31 19.801,0 z" />
            </g>
            <g
               transform="translate(401.4833,329.6458)"
               id="g5526">
              <path
                 id="path5528"
                 style="fill:none;stroke:#000000;stroke-width:0.053;stroke-linecap:butt;stroke-linejoin:miter;stroke-miterlimit:11.5;stroke-dasharray:none;stroke-opacity:1"
                 d="m 0,0 0,-2.045 m -2.206,1.999 0,-2.045 M -4.458,0 l 0,-2.045 m 6.802,2.091 0,-1.999 m -1.241,1.861 0,-2.091 m -2.206,1.953 0,-1.953 m -2.206,1.999 0,-2.045" />
            </g>
            <path
               id="path5530"
               style="fill:#dfdfdf;fill-opacity:1;fill-rule:evenodd;stroke:#000000;stroke-width:0.211;stroke-linecap:butt;stroke-linejoin:miter;stroke-miterlimit:11.5;stroke-dasharray:none;stroke-opacity:1"
               d="m 402.2648,322.935 2.114,0 0,-4.045 -2.114,0 0,4.045 z" />
            <path
               id="path5532"
               style="fill:#dfdfdf;fill-opacity:1;fill-rule:evenodd;stroke:#000000;stroke-width:0.211;stroke-linecap:butt;stroke-linejoin:miter;stroke-miterlimit:11.5;stroke-dasharray:none;stroke-opacity:1"
               d="m 400.1508,321.648 2.114,0 0,-1.287 -2.114,0 0,1.287 z" />
            <g
               transform="translate(408.2977,321.0324)"
               id="g5534">
              <path
                 id="path5536"
                 style="fill:#dfdfdf;fill-opacity:1;fill-rule:evenodd;stroke:none"
                 d="m 0,0 0,0 c 0,-1.211 -0.958,-2.194 -2.138,-2.194 -1.18,0 -2.138,0.983 -2.138,2.194 0,1.211 0.958,2.194 2.138,2.194 C -0.958,2.194 0,1.211 0,0" />
            </g>
            <g
               transform="translate(408.2977,321.0324)"
               id="g5538">
              <path
                 id="path5540"
                 style="fill:#d3d3d3;stroke:#000000;stroke-width:0.18000001;stroke-linecap:butt;stroke-linejoin:miter;stroke-miterlimit:11.5;stroke-dasharray:none;stroke-opacity:1;fill-opacity:1"
                 d="m 0,0 0,0 c 0,-1.211 -0.958,-2.194 -2.138,-2.194 -1.18,0 -2.138,0.983 -2.138,2.194 0,1.211 0.958,2.194 2.138,2.194 C -0.958,2.194 0,1.211 0,0 Z" />
            </g>
            <g
               transform="translate(406.8516,320.4192)"
               id="g5542">
              <path
                 id="path5544"
                 style="fill:#d3d3d3;fill-opacity:1;fill-rule:evenodd;stroke:none"
                 d="m 0,0 0,0 c 0,-0.41 -0.324,-0.742 -0.723,-0.742 -0.399,0 -0.723,0.332 -0.723,0.742 0,0.41 0.324,0.742 0.723,0.742 C -0.324,0.742 0,0.41 0,0" />
            </g>
            <g
               transform="translate(406.8516,320.4192)"
               id="g5546">
              <path
                 id="path5548"
                 style="fill:none;stroke:#000000;stroke-width:0.18000001;stroke-linecap:butt;stroke-linejoin:miter;stroke-miterlimit:11.5;stroke-dasharray:none;stroke-opacity:1"
                 d="m 0,0 0,0 c 0,-0.41 -0.324,-0.742 -0.723,-0.742 -0.399,0 -0.723,0.332 -0.723,0.742 0,0.41 0.324,0.742 0.723,0.742 C -0.324,0.742 0,0.41 0,0 Z" />
            </g>
            <g
               transform="translate(431.2013,326.9236)"
               id="g5562">
              <g
                 id="g14889">
                <path
                   transform="translate(-4.4844757e-7,-7.5779005)"
                   d="m 0,0 -2.368,-0.58 0,0.502 1.627,0.366 -1.627,0.445 0,0.583 1.654,0.426 -1.654,0.373 0,0.494 L 0,2.019 0,1.499 -1.77,1.015 0,0.532 0,0 Z"
                   style="fill:#0f3a7e;fill-opacity:1;fill-rule:evenodd;stroke:none"
                   id="path5552" />
                <path
                   transform="translate(-1.1856998,-4.3121005)"
                   d="M 0,0 C 0.27,0 0.47,0.063 0.61,0.191 0.749,0.319 0.817,0.478 0.817,0.675 0.817,0.872 0.75,1.03 0.611,1.156 0.473,1.283 0.27,1.345 -0.007,1.345 c -0.273,0 -0.472,-0.06 -0.607,-0.184 -0.135,-0.123 -0.2,-0.282 -0.2,-0.486 0,-0.204 0.066,-0.365 0.202,-0.489 C -0.475,0.061 -0.275,0 0,0 m 0.016,-0.506 c -0.243,0 -0.442,0.037 -0.607,0.111 -0.122,0.056 -0.228,0.13 -0.325,0.227 -0.096,0.096 -0.166,0.199 -0.213,0.314 -0.063,0.153 -0.094,0.324 -0.094,0.524 0,0.361 0.107,0.643 0.325,0.859 0.218,0.217 0.514,0.323 0.903,0.323 0.385,0 0.679,-0.105 0.897,-0.32 C 1.12,1.317 1.226,1.036 1.226,0.676 1.226,0.312 1.12,0.029 0.904,-0.186 0.687,-0.4 0.396,-0.506 0.016,-0.506"
                   style="fill:#0f3a7e;fill-opacity:1;fill-rule:evenodd;stroke:none"
                   id="path5556" />
                <path
                   transform="translate(-4.4844757e-7,-2.0639004)"
                   d="m 0,0 -2.349,0 0,0.491 1.95,0 0,1.22 L 0,1.711 0,0 Z"
                   style="fill:#0f3a7e;fill-opacity:1;fill-rule:evenodd;stroke:none"
                   id="path5560" />
                <path
                   d="m 0,0 -2.368,0 0,1.666 0.4,0 0,-1.175 0.561,0 0,1.014 0.401,0 0,-1.014 L 0,0.491 0,0 Z"
                   style="fill:#0f3a7e;fill-opacity:1;fill-rule:evenodd;stroke:none"
                   id="path5564" />
              </g>
            </g>
            <g
               transform="translate(392.7277,344.2318)"
               id="g5582">
              <g
                 id="g14851">
                <path
                   transform="translate(-7.0082,-5.4459)"
                   d="M 0,0 -0.84,0.427 -0.471,-0.454 0,0 Z m 1.283,-0.081 -0.379,-0.366 -0.519,0.257 -0.689,-0.666 0.226,-0.54 -0.37,-0.356 -0.95,2.419 0.368,0.355 2.313,-1.103 z"
                   style="fill:#0f3a7e;fill-opacity:1;fill-rule:evenodd;stroke:none"
                   id="path5568" />
                <path
                   transform="translate(-6.1565,-4.8580003)"
                   d="M 0,0 0.308,0.361 C 0.436,0.263 0.554,0.218 0.668,0.224 0.781,0.229 0.889,0.282 0.995,0.385 1.108,0.494 1.17,0.599 1.182,0.703 1.194,0.807 1.171,0.89 1.111,0.956 1.072,0.998 1.028,1.022 0.977,1.028 0.926,1.035 0.861,1.02 0.781,0.984 0.727,0.959 0.612,0.896 0.432,0.792 0.199,0.658 0.018,0.591 -0.122,0.588 -0.319,0.583 -0.478,0.65 -0.607,0.791 -0.691,0.882 -0.742,0.988 -0.764,1.116 -0.787,1.243 -0.77,1.37 -0.713,1.503 c 0.056,0.133 0.149,0.26 0.283,0.389 0.218,0.211 0.422,0.318 0.622,0.326 0.201,0.008 0.374,-0.065 0.53,-0.223 L 0.388,1.643 C 0.289,1.72 0.199,1.754 0.113,1.746 0.026,1.739 -0.064,1.688 -0.163,1.593 -0.265,1.495 -0.324,1.398 -0.342,1.3 -0.354,1.236 -0.339,1.183 -0.296,1.136 -0.258,1.094 -0.208,1.075 -0.146,1.079 -0.067,1.083 0.074,1.146 0.282,1.269 0.491,1.393 0.653,1.47 0.775,1.505 0.897,1.54 1.014,1.541 1.131,1.509 1.247,1.477 1.354,1.406 1.458,1.294 1.551,1.191 1.61,1.072 1.637,0.929 1.663,0.786 1.646,0.648 1.585,0.507 1.523,0.366 1.419,0.226 1.268,0.08 1.049,-0.132 0.837,-0.241 0.624,-0.25 0.411,-0.26 0.206,-0.177 0,0"
                   style="fill:#0f3a7e;fill-opacity:1;fill-rule:evenodd;stroke:none"
                   id="path5572" />
                <path
                   transform="translate(-3.932,-3.7961002)"
                   d="M 0,0 -1.622,1.77 -1.274,2.106 -0.636,1.41 0.047,2.068 -0.592,2.765 -0.244,3.101 1.379,1.331 1.031,0.995 0.321,1.769 -0.361,1.11 0.348,0.336 0,0 Z"
                   style="fill:#0f3a7e;fill-opacity:1;fill-rule:evenodd;stroke:none"
                   id="path5576" />
                <path
                   transform="translate(-2.5507997,-1.0084)"
                   d="m 0,0 0.434,-0.473 0.322,0.311 C 0.883,-0.04 0.958,0.039 0.985,0.079 1.028,0.139 1.049,0.203 1.047,0.272 1.045,0.341 1.016,0.406 0.958,0.47 0.909,0.523 0.856,0.556 0.796,0.568 0.737,0.581 0.677,0.573 0.613,0.544 0.55,0.515 0.441,0.426 0.281,0.271 L 0,0 Z m -0.645,0.704 0.375,-0.409 0.228,0.22 C 0.095,0.647 0.176,0.729 0.206,0.765 0.259,0.831 0.286,0.896 0.288,0.964 0.29,1.033 0.265,1.094 0.213,1.152 0.162,1.207 0.107,1.237 0.046,1.243 -0.015,1.249 -0.077,1.228 -0.142,1.178 -0.181,1.149 -0.28,1.057 -0.445,0.897 l -0.2,-0.193 z m -0.619,-0.042 0.69,0.666 c 0.137,0.133 0.243,0.224 0.321,0.277 0.079,0.054 0.16,0.087 0.247,0.101 C 0.082,1.72 0.17,1.714 0.262,1.686 0.355,1.658 0.434,1.607 0.505,1.53 0.582,1.446 0.629,1.351 0.649,1.239 0.669,1.126 0.658,1.019 0.615,0.912 0.749,0.983 0.877,1.007 1.004,0.985 1.131,0.964 1.239,0.903 1.333,0.8 1.408,0.719 1.46,0.625 1.494,0.513 1.527,0.4 1.533,0.293 1.512,0.186 1.49,0.079 1.439,-0.023 1.355,-0.123 1.302,-0.186 1.168,-0.323 0.946,-0.541 l -0.587,-0.567 -1.623,1.77 z"
                   style="fill:#0f3a7e;fill-opacity:1;fill-rule:evenodd;stroke:none"
                   id="path5580" />
                <path
                   d="M 0,0 -0.683,0.745 -2.254,1.16 -1.846,1.554 -0.798,1.246 -1.042,2.33 -0.641,2.717 -0.334,1.078 0.347,0.335 0,0 Z"
                   style="fill:#0f3a7e;fill-opacity:1;fill-rule:evenodd;stroke:none"
                   id="path5584" />
              </g>
            </g>
            <g
               transform="translate(427.4303,336.1458)"
               id="g5606">
              <g
                 id="g14878">
                <path
                   transform="translate(-9.0900004,8.9262999)"
                   d="M 0,0 1.636,1.755 2.154,1.247 1.348,-0.255 2.771,0.64 3.29,0.131 1.654,-1.624 1.333,-1.308 2.62,0.073 0.993,-0.975 0.66,-0.648 1.609,1.066 0.321,-0.315 0,0 Z"
                   style="fill:#0f3a7e;fill-opacity:1;fill-rule:evenodd;stroke:none"
                   id="path5588" />
                <path
                   transform="translate(-7.0930995,6.9653)"
                   d="M 0,0 1.636,1.755 2.906,0.508 2.629,0.212 1.705,1.119 1.342,0.73 2.202,-0.114 1.926,-0.41 1.067,0.434 0.621,-0.044 1.578,-0.983 1.302,-1.279 0,0 Z"
                   style="fill:#0f3a7e;fill-opacity:1;fill-rule:evenodd;stroke:none"
                   id="path5592" />
                <path
                   transform="translate(-5.4885997,5.3897)"
                   d="M 0,0 1.623,1.741 1.968,1.401 0.621,-0.044 1.481,-0.888 1.205,-1.183 0,0 Z"
                   style="fill:#0f3a7e;fill-opacity:1;fill-rule:evenodd;stroke:none"
                   id="path5596" />
                <path
                   transform="translate(-2.7460995,4.6364998)"
                   d="m 0,0 0.256,-0.251 c 0.167,-0.164 0.275,-0.257 0.331,-0.284 0.055,-0.026 0.109,-0.033 0.166,-0.021 0.056,0.013 0.108,0.045 0.157,0.098 0.056,0.059 0.085,0.121 0.088,0.188 0.003,0.067 -0.019,0.132 -0.066,0.197 C 0.907,-0.042 0.826,0.042 0.685,0.18 L 0.415,0.445 0,0 Z M -1.29,-0.673 0.346,1.082 1.074,0.367 C 1.258,0.186 1.375,0.042 1.429,-0.072 1.482,-0.185 1.496,-0.305 1.471,-0.435 1.445,-0.566 1.385,-0.681 1.288,-0.785 1.164,-0.918 1.027,-0.989 0.871,-1 0.714,-1.012 0.553,-0.956 0.381,-0.83 0.414,-0.949 0.43,-1.057 0.428,-1.159 0.427,-1.261 0.405,-1.418 0.359,-1.637 l -0.11,-0.548 -0.413,0.406 0.106,0.627 C -0.019,-0.926 0,-0.783 0,-0.715 c 0.001,0.069 -0.011,0.126 -0.035,0.175 -0.025,0.05 -0.076,0.113 -0.156,0.191 l -0.07,0.069 -0.683,-0.733 -0.346,0.34 z"
                   style="fill:#0f3a7e;fill-opacity:1;fill-rule:evenodd;stroke:none"
                   id="path5600" />
                <path
                   transform="translate(-1.2046999,2.8659997)"
                   d="m 0,0 c -0.187,-0.2 -0.281,-0.392 -0.287,-0.584 -0.006,-0.192 0.059,-0.352 0.198,-0.488 0.138,-0.137 0.296,-0.196 0.481,-0.181 0.185,0.015 0.368,0.123 0.56,0.328 0.189,0.202 0.284,0.392 0.29,0.577 C 1.248,-0.164 1.181,-0.004 1.038,0.137 0.894,0.278 0.735,0.339 0.553,0.325 0.371,0.31 0.19,0.203 0,0 M -0.367,0.338 C -0.199,0.518 -0.036,0.64 0.131,0.711 0.254,0.763 0.38,0.79 0.514,0.795 0.649,0.8 0.77,0.781 0.883,0.736 1.034,0.677 1.176,0.581 1.317,0.443 1.571,0.193 1.696,-0.081 1.698,-0.392 1.7,-0.704 1.57,-0.997 1.301,-1.285 1.035,-1.57 0.757,-1.716 0.456,-1.728 c -0.302,-0.013 -0.573,0.103 -0.827,0.352 -0.256,0.251 -0.382,0.525 -0.384,0.835 -0.002,0.309 0.125,0.597 0.388,0.879"
                   style="fill:#0f3a7e;fill-opacity:1;fill-rule:evenodd;stroke:none"
                   id="path5604" />
                <path
                   d="M 0,0 0.688,0.739 1.009,2.371 1.414,1.973 1.17,0.883 2.212,1.19 2.61,0.799 1.031,0.398 0.344,-0.338 0,0 Z"
                   style="fill:#0f3a7e;fill-opacity:1;fill-rule:evenodd;stroke:none"
                   id="path5608" />
              </g>
            </g>
            <g
               transform="translate(392.2459,302.147)"
               id="g5630">
              <g
                 id="g14905">
                <path
                   transform="translate(-9.3933,8.3211998)"
                   d="M 0,0 1.655,1.737 2.167,1.224 1.345,-0.27 2.778,0.61 3.291,0.096 1.636,-1.641 1.318,-1.323 2.621,0.045 0.982,-0.985 0.653,-0.655 1.621,1.049 0.318,-0.319 0,0 Z"
                   style="fill:#0f3a7e;fill-opacity:1;fill-rule:evenodd;stroke:none"
                   id="path5612" />
                <path
                   transform="translate(-5.8655,6.1252997)"
                   d="M 0,0 0.381,0.879 -0.462,0.464 0,0 Z m -0.025,-1.319 -0.372,0.373 0.228,0.543 -0.677,0.68 L -1.362,0.022 -1.725,0.386 0.59,1.461 0.952,1.098 -0.025,-1.319 Z"
                   style="fill:#0f3a7e;fill-opacity:1;fill-rule:evenodd;stroke:none"
                   id="path5616" />
                <path
                   transform="translate(-4.3129,4.4721995)"
                   d="m 0,0 0.279,0.293 0.737,-0.74 -0.659,-0.692 c -0.141,0.001 -0.302,0.042 -0.491,0.125 -0.189,0.083 -0.35,0.192 -0.49,0.333 -0.179,0.179 -0.295,0.369 -0.354,0.579 -0.06,0.21 -0.055,0.415 0.014,0.625 0.07,0.21 0.182,0.394 0.342,0.563 0.174,0.182 0.361,0.304 0.57,0.37 C 0.158,1.523 0.365,1.523 0.581,1.454 0.746,1.403 0.906,1.297 1.069,1.134 1.281,0.921 1.4,0.714 1.432,0.504 1.465,0.293 1.422,0.095 1.303,-0.1 L 0.902,0.175 C 0.959,0.285 0.978,0.396 0.959,0.512 0.94,0.629 0.883,0.734 0.783,0.834 0.633,0.985 0.47,1.055 0.288,1.046 0.106,1.037 -0.073,0.939 -0.256,0.746 -0.454,0.538 -0.555,0.342 -0.564,0.148 c -0.009,-0.195 0.058,-0.361 0.204,-0.507 0.072,-0.073 0.156,-0.129 0.256,-0.173 0.101,-0.044 0.194,-0.071 0.286,-0.081 l 0.21,0.22 L 0,0 Z"
                   style="fill:#0f3a7e;fill-opacity:1;fill-rule:evenodd;stroke:none"
                   id="path5620" />
                <path
                   transform="translate(-3.8656,2.7738003)"
                   d="M 0,0 1.655,1.737 1.988,1.403 1.576,-0.452 2.681,0.708 2.999,0.389 1.344,-1.348 1,-1.004 1.397,0.814 0.318,-0.319 0,0 Z"
                   style="fill:#0f3a7e;fill-opacity:1;fill-rule:evenodd;stroke:none"
                   id="path5624" />
                <path
                   transform="translate(-0.50769957,2.8020003)"
                   d="m 0,0 0.342,-0.343 -0.896,-0.941 c -0.144,-0.15 -0.23,-0.25 -0.264,-0.303 -0.054,-0.086 -0.073,-0.177 -0.059,-0.276 0.014,-0.099 0.068,-0.195 0.164,-0.291 0.098,-0.099 0.189,-0.151 0.278,-0.16 0.089,-0.008 0.165,0.012 0.232,0.061 0.067,0.05 0.164,0.141 0.296,0.28 L 1.008,-1.012 1.35,-1.355 0.481,-2.268 c -0.2,-0.21 -0.347,-0.346 -0.449,-0.414 -0.101,-0.068 -0.203,-0.106 -0.31,-0.115 -0.107,-0.01 -0.216,0.009 -0.334,0.058 -0.117,0.049 -0.241,0.139 -0.376,0.274 -0.163,0.164 -0.266,0.304 -0.313,0.427 -0.047,0.123 -0.066,0.237 -0.056,0.348 0.01,0.111 0.039,0.206 0.088,0.289 0.073,0.123 0.2,0.279 0.386,0.474 L 0,0 Z"
                   style="fill:#0f3a7e;fill-opacity:1;fill-rule:evenodd;stroke:none"
                   id="path5628" />
                <path
                   d="M 0,0 0.364,-0.301 C 0.275,-0.436 0.236,-0.559 0.246,-0.675 c 0.01,-0.116 0.066,-0.224 0.171,-0.33 0.111,-0.111 0.215,-0.169 0.317,-0.178 0.102,-0.008 0.182,0.019 0.244,0.084 0.039,0.041 0.06,0.087 0.064,0.14 C 1.046,-0.906 1.029,-0.841 0.991,-0.76 0.964,-0.705 0.898,-0.59 0.789,-0.41 0.649,-0.177 0.576,0.006 0.567,0.15 0.554,0.351 0.612,0.517 0.744,0.656 0.829,0.745 0.931,0.802 1.054,0.83 1.177,0.858 1.302,0.846 1.433,0.794 1.565,0.742 1.693,0.651 1.824,0.52 2.038,0.305 2.151,0.1 2.167,-0.105 2.184,-0.31 2.12,-0.491 1.972,-0.658 L 1.615,-0.33 c 0.071,0.105 0.101,0.199 0.09,0.287 C 1.694,0.045 1.641,0.136 1.544,0.233 1.444,0.333 1.348,0.39 1.251,0.405 1.189,0.414 1.137,0.396 1.094,0.351 1.054,0.31 1.038,0.258 1.044,0.195 1.052,0.114 1.119,-0.028 1.248,-0.237 1.377,-0.446 1.459,-0.608 1.498,-0.732 1.537,-0.856 1.543,-0.976 1.517,-1.097 1.49,-1.217 1.426,-1.33 1.321,-1.441 1.225,-1.541 1.111,-1.607 0.973,-1.64 0.836,-1.673 0.7,-1.661 0.56,-1.604 0.42,-1.547 0.279,-1.446 0.131,-1.297 -0.085,-1.081 -0.199,-0.868 -0.217,-0.65 -0.235,-0.432 -0.164,-0.218 0,0"
                   style="fill:#0f3a7e;fill-opacity:1;fill-rule:evenodd;stroke:none"
                   id="path5632" />
              </g>
            </g>
            <g
               transform="translate(412.9762,348.9948)"
               id="g5658">
              <g
                 id="g14864">
                <path
                   transform="translate(-13.838999,-1.2292)"
                   d="M 0,0 0.536,0.035 C 0.497,-0.148 0.486,-0.272 0.501,-0.343 0.516,-0.414 0.556,-0.469 0.623,-0.51 c 0.066,-0.041 0.164,-0.061 0.296,-0.061 0.172,0 0.308,0.038 0.414,0.115 0.106,0.078 0.173,0.177 0.205,0.302 C 1.56,-0.066 1.555,0.008 1.521,0.071 1.487,0.133 1.383,0.219 1.203,0.331 0.975,0.475 0.832,0.584 0.765,0.664 0.699,0.744 0.657,0.839 0.639,0.955 0.621,1.071 0.63,1.2 0.668,1.349 0.744,1.652 0.888,1.888 1.107,2.069 1.326,2.25 1.58,2.339 1.88,2.339 2.183,2.339 2.397,2.251 2.534,2.072 2.67,1.892 2.705,1.645 2.641,1.319 L 2.102,1.289 C 2.159,1.625 2.04,1.789 1.739,1.789 1.59,1.789 1.475,1.757 1.388,1.693 1.302,1.629 1.246,1.543 1.218,1.432 1.192,1.33 1.204,1.249 1.255,1.185 1.303,1.121 1.41,1.036 1.58,0.928 1.805,0.787 1.948,0.68 2.014,0.602 2.08,0.524 2.121,0.43 2.138,0.317 2.155,0.203 2.146,0.077 2.11,-0.067 2.029,-0.388 1.868,-0.645 1.619,-0.848 1.37,-1.052 1.09,-1.151 0.766,-1.151 c -0.244,0 -0.434,0.052 -0.58,0.159 -0.146,0.107 -0.225,0.246 -0.243,0.423 C -0.075,-0.391 -0.056,-0.204 0,0"
                   style="fill:#000000;fill-opacity:1;fill-rule:evenodd;stroke:none"
                   id="path5636" />
                <path
                   transform="translate(-10.5122,-2.3226)"
                   d="m 0,0 -0.554,0 1.18,2.811 -0.792,0 0.236,0.564 2.125,0 L 1.958,2.811 1.18,2.811 0,0 Z"
                   style="fill:#000000;fill-opacity:1;fill-rule:evenodd;stroke:none"
                   id="path5640" />
                <path
                   transform="translate(-9.0250996,-1.2292)"
                   d="M 0,0 0.536,0.035 C 0.497,-0.148 0.486,-0.272 0.501,-0.343 0.517,-0.414 0.556,-0.469 0.623,-0.51 0.69,-0.551 0.787,-0.571 0.919,-0.571 c 0.172,0 0.308,0.038 0.414,0.115 0.106,0.078 0.174,0.177 0.205,0.302 C 1.56,-0.066 1.555,0.008 1.521,0.071 1.487,0.133 1.382,0.219 1.203,0.331 0.976,0.475 0.832,0.584 0.765,0.664 0.699,0.744 0.657,0.839 0.639,0.955 0.621,1.071 0.63,1.2 0.668,1.349 0.744,1.652 0.889,1.888 1.107,2.069 1.326,2.25 1.58,2.339 1.88,2.339 2.183,2.339 2.397,2.251 2.534,2.072 2.67,1.892 2.705,1.645 2.641,1.319 L 2.102,1.289 C 2.159,1.625 2.04,1.789 1.739,1.789 1.589,1.789 1.475,1.757 1.388,1.693 1.302,1.629 1.246,1.543 1.218,1.432 1.192,1.33 1.204,1.249 1.255,1.185 1.303,1.121 1.41,1.036 1.58,0.928 1.805,0.787 1.947,0.68 2.014,0.602 2.08,0.524 2.121,0.43 2.138,0.317 2.155,0.203 2.146,0.077 2.11,-0.067 2.029,-0.388 1.868,-0.645 1.619,-0.848 1.37,-1.052 1.09,-1.151 0.766,-1.151 c -0.244,0 -0.434,0.052 -0.58,0.159 -0.146,0.107 -0.225,0.246 -0.243,0.423 C -0.075,-0.391 -0.056,-0.204 0,0"
                   style="fill:#000000;fill-opacity:1;fill-rule:evenodd;stroke:none"
                   id="path5644" />
                <path
                   transform="translate(-6.3853004,-0.78720003)"
                   d="m 0,0 1.023,0 -0.266,-0.638 -1.026,0 L 0,0 Z"
                   style="fill:#000000;fill-opacity:1;fill-rule:evenodd;stroke:none"
                   id="path5648" />
                <path
                   transform="translate(-4.8368997,-0.38439996)"
                   d="M 0,0 0.247,0.589 C 0.77,0.84 1.189,1.125 1.523,1.457 l 0.32,0 -1.423,-3.395 -0.532,0 0.982,2.339 C 0.74,0.312 0.596,0.233 0.431,0.159 0.267,0.085 0.126,0.032 0,0"
                   style="fill:#000000;fill-opacity:1;fill-rule:evenodd;stroke:none"
                   id="path5652" />
                <path
                   transform="translate(-2.7418005,-0.38439996)"
                   d="M 0,0 0.247,0.589 C 0.77,0.84 1.189,1.125 1.523,1.457 l 0.321,0 -1.424,-3.395 -0.532,0 0.983,2.339 C 0.74,0.312 0.596,0.233 0.432,0.159 0.267,0.085 0.126,0.032 0,0"
                   style="fill:#000000;fill-opacity:1;fill-rule:evenodd;stroke:none"
                   id="path5656" />
                <path
                   d="M 0,0 -0.494,0.097 C -0.367,0.421 -0.209,0.66 -0.012,0.823 0.184,0.986 0.39,1.066 0.616,1.066 0.861,1.066 1.032,0.985 1.14,0.819 1.247,0.654 1.266,0.437 1.195,0.159 1.141,-0.058 1.035,-0.264 0.873,-0.47 0.753,-0.621 0.537,-0.838 0.213,-1.13 -0.081,-1.393 -0.281,-1.586 -0.398,-1.719 l 0.936,0 -0.253,-0.604 -1.638,0 c 0.091,0.253 0.226,0.487 0.414,0.716 0.126,0.155 0.392,0.417 0.809,0.799 0.304,0.278 0.497,0.467 0.589,0.576 0.122,0.145 0.196,0.275 0.226,0.395 C 0.715,0.284 0.712,0.377 0.674,0.445 0.637,0.514 0.579,0.548 0.499,0.548 0.314,0.548 0.15,0.368 0,0"
                   style="fill:#000000;fill-opacity:1;fill-rule:evenodd;stroke:none"
                   id="path5660" />
              </g>
            </g>
            <g
               transform="translate(428.0475,310.3386)"
               id="g5686">
              <g
                 id="g14937">
                <path
                   transform="translate(-8.8719996,-9.8038994)"
                   d="M 0,0 0.283,0.381 C 0.418,0.292 0.538,0.255 0.651,0.269 0.764,0.282 0.868,0.342 0.967,0.452 1.073,0.569 1.127,0.677 1.132,0.782 1.138,0.887 1.109,0.968 1.044,1.03 1.003,1.069 0.958,1.09 0.906,1.093 0.854,1.096 0.791,1.077 0.714,1.035 0.661,1.007 0.551,0.936 0.378,0.82 0.155,0.671 -0.022,0.591 -0.161,0.578 -0.357,0.56 -0.52,0.616 -0.658,0.748 c -0.09,0.085 -0.148,0.187 -0.179,0.313 -0.031,0.126 -0.023,0.254 0.025,0.39 0.048,0.136 0.132,0.27 0.257,0.408 0.203,0.225 0.4,0.345 0.599,0.367 C 0.243,2.248 0.422,2.187 0.588,2.039 L 0.278,1.665 C 0.174,1.736 0.081,1.763 -0.004,1.75 -0.089,1.737 -0.176,1.68 -0.269,1.578 -0.364,1.473 -0.416,1.373 -0.428,1.273 -0.435,1.209 -0.417,1.157 -0.372,1.114 -0.33,1.074 -0.28,1.059 -0.218,1.067 c 0.079,0.01 0.215,0.082 0.415,0.219 0.2,0.137 0.356,0.225 0.476,0.268 0.12,0.044 0.236,0.053 0.354,0.029 C 1.146,1.559 1.257,1.496 1.368,1.39 1.469,1.294 1.535,1.179 1.571,1.039 1.607,0.898 1.599,0.759 1.547,0.614 1.495,0.469 1.401,0.322 1.26,0.166 1.055,-0.06 0.851,-0.183 0.639,-0.207 0.427,-0.231 0.217,-0.163 0,0"
                   style="fill:#0f3a7e;fill-opacity:1;fill-rule:evenodd;stroke:none"
                   id="path5664" />
                <path
                   transform="translate(-6.7244997,-8.5936997)"
                   d="M 0,0 -1.737,1.655 -0.543,2.974 -0.249,2.694 -1.118,1.735 -0.733,1.367 0.076,2.261 0.368,1.982 -0.44,1.089 0.032,0.638 0.932,1.632 1.225,1.353 0,0 Z"
                   style="fill:#0f3a7e;fill-opacity:1;fill-rule:evenodd;stroke:none"
                   id="path5668" />
                <path
                   transform="translate(-5.2156003,-6.9265)"
                   d="M 0,0 -1.722,1.642 -1.397,2.001 0.032,0.638 0.841,1.531 1.133,1.252 0,0 Z"
                   style="fill:#0f3a7e;fill-opacity:1;fill-rule:evenodd;stroke:none"
                   id="path5672" />
                <path
                   transform="translate(-3.8418998,-5.4085003)"
                   d="M 0,0 -1.722,1.642 -1.397,2.001 0.033,0.638 0.841,1.531 1.133,1.252 0,0 Z"
                   style="fill:#0f3a7e;fill-opacity:1;fill-rule:evenodd;stroke:none"
                   id="path5676" />
                <path
                   transform="translate(-2.4767001,-3.9002004)"
                   d="M 0,0 -1.737,1.656 -0.543,2.975 -0.249,2.694 -1.118,1.735 -0.733,1.368 0.076,2.261 0.368,1.982 -0.44,1.089 0.032,0.638 0.932,1.632 1.224,1.353 0,0 Z"
                   style="fill:#0f3a7e;fill-opacity:1;fill-rule:evenodd;stroke:none"
                   id="path5680" />
                <path
                   transform="translate(-1.6526999,-0.92680014)"
                   d="M 0,0 0.24,0.266 C 0.398,0.439 0.487,0.552 0.511,0.609 0.536,0.666 0.542,0.722 0.529,0.78 0.516,0.838 0.484,0.89 0.432,0.94 0.373,0.996 0.312,1.025 0.247,1.027 0.181,1.03 0.119,1.007 0.056,0.957 0.026,0.931 -0.054,0.847 -0.187,0.701 L -0.441,0.42 0,0 Z M 0.677,-1.315 -1.06,0.341 -0.375,1.097 C -0.202,1.289 -0.063,1.41 0.047,1.467 0.156,1.524 0.273,1.54 0.4,1.515 0.528,1.491 0.641,1.43 0.744,1.332 0.875,1.207 0.946,1.067 0.96,0.906 0.974,0.746 0.923,0.58 0.802,0.402 c 0.116,0.035 0.221,0.053 0.32,0.053 0.1,0 0.253,-0.021 0.467,-0.064 L 2.124,0.285 1.736,-0.145 1.123,-0.044 C 0.903,-0.007 0.763,0.01 0.696,0.01 0.63,0.01 0.574,-0.003 0.526,-0.029 0.479,-0.055 0.418,-0.108 0.343,-0.191 L 0.277,-0.264 1.002,-0.955 0.677,-1.315 Z"
                   style="fill:#0f3a7e;fill-opacity:1;fill-rule:evenodd;stroke:none"
                   id="path5684" />
                <path
                   d="M 0,0 0.283,0.381 C 0.418,0.292 0.539,0.255 0.651,0.269 0.764,0.282 0.868,0.342 0.967,0.452 1.073,0.569 1.127,0.677 1.133,0.782 1.138,0.887 1.109,0.968 1.045,1.03 1.003,1.069 0.958,1.09 0.906,1.093 0.855,1.095 0.791,1.077 0.714,1.035 0.661,1.006 0.551,0.936 0.378,0.82 0.155,0.67 -0.021,0.591 -0.161,0.578 -0.357,0.56 -0.52,0.615 -0.658,0.747 c -0.089,0.085 -0.148,0.188 -0.179,0.314 -0.031,0.126 -0.022,0.254 0.025,0.39 0.048,0.136 0.132,0.27 0.257,0.407 0.203,0.226 0.4,0.346 0.599,0.368 0.2,0.022 0.378,-0.039 0.544,-0.187 L 0.278,1.665 C 0.174,1.735 0.082,1.763 -0.004,1.75 -0.089,1.736 -0.176,1.68 -0.268,1.578 -0.364,1.473 -0.416,1.373 -0.428,1.273 -0.435,1.209 -0.417,1.157 -0.371,1.113 -0.33,1.074 -0.28,1.059 -0.218,1.066 c 0.079,0.01 0.215,0.082 0.415,0.22 0.2,0.137 0.356,0.225 0.476,0.268 0.12,0.043 0.236,0.053 0.354,0.029 C 1.146,1.559 1.258,1.495 1.368,1.39 1.469,1.294 1.535,1.179 1.571,1.038 1.607,0.898 1.599,0.758 1.547,0.614 1.495,0.469 1.401,0.322 1.26,0.166 1.055,-0.061 0.852,-0.183 0.639,-0.207 0.427,-0.231 0.217,-0.163 0,0"
                   style="fill:#0f3a7e;fill-opacity:1;fill-rule:evenodd;stroke:none"
                   id="path5688" />
              </g>
            </g>
            <g
               transform="translate(408.0429,311.2726)"
               id="g5694">
              <g
                 id="g14896">
                <path
                   transform="translate(-2.0907999,1.0311998)"
                   d="m 0,0 c 0.045,0.179 0.05,0.308 0.015,0.392 -0.036,0.085 -0.094,0.126 -0.178,0.126 -0.104,0 -0.207,-0.06 -0.313,-0.182 -0.139,-0.162 -0.24,-0.375 -0.309,-0.647 -0.045,-0.176 -0.05,-0.303 -0.016,-0.388 0.034,-0.084 0.089,-0.125 0.169,-0.125 0.065,0 0.136,0.028 0.216,0.085 0.08,0.057 0.157,0.151 0.235,0.285 C -0.102,-0.319 -0.043,-0.17 0,0 m -1.749,-1.561 0.507,0.051 c -0.024,-0.135 -0.021,-0.226 0.006,-0.28 0.028,-0.053 0.077,-0.079 0.148,-0.079 0.107,0 0.214,0.061 0.326,0.187 0.113,0.127 0.224,0.31 0.34,0.561 -0.139,-0.093 -0.269,-0.138 -0.396,-0.138 -0.206,0 -0.353,0.085 -0.446,0.261 -0.094,0.176 -0.101,0.415 -0.021,0.731 0.088,0.353 0.251,0.655 0.494,0.921 C -0.547,0.92 -0.29,1.05 -0.007,1.05 0.141,1.05 0.259,1.006 0.355,0.917 0.45,0.828 0.508,0.695 0.531,0.51 0.555,0.325 0.527,0.081 0.448,-0.233 0.286,-0.876 0.047,-1.388 -0.28,-1.793 c -0.326,-0.405 -0.649,-0.603 -0.984,-0.603 -0.199,0 -0.34,0.071 -0.43,0.216 -0.09,0.145 -0.108,0.349 -0.055,0.619"
                   style="fill:#b9b9b9;fill-opacity:1;fill-rule:evenodd;stroke:none"
                   id="path5692" />
                <path
                   d="M 0,0 0.188,1.358 -0.749,0 0,0 Z m -0.072,-0.562 -1.07,0 -0.511,-0.745 -0.57,0 2.376,3.374 0.615,0 -0.414,-3.374 -0.525,0 0.099,0.745 z"
                   style="fill:#b9b9b9;fill-opacity:1;fill-rule:evenodd;stroke:none"
                   id="path5696" />
              </g>
            </g>
          </g>
        </g>
      </g>
    </g>
  </g>
</svg>
