<?xml version="1.0" encoding="UTF-8" standalone="no"?>
<svg
   xmlns:dc="http://purl.org/dc/elements/1.1/"
   xmlns:cc="http://creativecommons.org/ns#"
   xmlns:rdf="http://www.w3.org/1999/02/22-rdf-syntax-ns#"
   xmlns:svg="http://www.w3.org/2000/svg"
   xmlns="http://www.w3.org/2000/svg"
   version="1.1"
   id="svg5645"
   viewBox="0 0 6000 6834.0001"
   height="6834"
   width="6000">
  <defs
     id="defs5647">
    <clipPath
       id="clipPath4612"
       clipPathUnits="userSpaceOnUse">
      <path
         id="path4614"
         d="M 0,0 612,0 612,792 0,792 0,0 Z" />
    </clipPath>
    <clipPath
       id="clipPath4628"
       clipPathUnits="userSpaceOnUse">
      <path
         id="path4630"
         d="M 0,0 612,0 612,792 0,792 0,0 Z" />
    </clipPath>
    <clipPath
       id="clipPath4696"
       clipPathUnits="userSpaceOnUse">
      <path
         id="path4698"
         d="M 0,0 612,0 612,792 0,792 0,0 Z" />
    </clipPath>
    <clipPath
       id="clipPath4752"
       clipPathUnits="userSpaceOnUse">
      <path
         id="path4754"
         d="M 0,0 612,0 612,792 0,792 0,0 Z" />
    </clipPath>
    <clipPath
       id="clipPath4776"
       clipPathUnits="userSpaceOnUse">
      <path
         id="path4778"
         d="M 0,0 612,0 612,792 0,792 0,0 Z" />
    </clipPath>
    <clipPath
       id="clipPath4792"
       clipPathUnits="userSpaceOnUse">
      <path
         id="path4794"
         d="M 0,0 612,0 612,792 0,792 0,0 Z" />
    </clipPath>
    <clipPath
       id="clipPath4808"
       clipPathUnits="userSpaceOnUse">
      <path
         id="path4810"
         d="M 0,0 612,0 612,792 0,792 0,0 Z" />
    </clipPath>
    <clipPath
       id="clipPath4852"
       clipPathUnits="userSpaceOnUse">
      <path
         id="path4854"
         d="M 0,0 612,0 612,792 0,792 0,0 Z" />
    </clipPath>
    <clipPath
       id="clipPath4880"
       clipPathUnits="userSpaceOnUse">
      <path
         id="path4882"
         d="M 0,0 612,0 612,792 0,792 0,0 Z" />
    </clipPath>
    <clipPath
       id="clipPath4896"
       clipPathUnits="userSpaceOnUse">
      <path
         id="path4898"
         d="M 0,0 612,0 612,792 0,792 0,0 Z" />
    </clipPath>
    <clipPath
       id="clipPath4932"
       clipPathUnits="userSpaceOnUse">
      <path
         id="path4934"
         d="M 0,0 612,0 612,792 0,792 0,0 Z" />
    </clipPath>
    <clipPath
       id="clipPath4960"
       clipPathUnits="userSpaceOnUse">
      <path
         id="path4962"
         d="M 0,0 612,0 612,792 0,792 0,0 Z" />
    </clipPath>
    <clipPath
       id="clipPath4976"
       clipPathUnits="userSpaceOnUse">
      <path
         id="path4978"
         d="M 0,0 612,0 612,792 0,792 0,0 Z" />
    </clipPath>
    <clipPath
       id="clipPath4992"
       clipPathUnits="userSpaceOnUse">
      <path
         id="path4994"
         d="M 0,0 612,0 612,792 0,792 0,0 Z" />
    </clipPath>
    <clipPath
       id="clipPath5032"
       clipPathUnits="userSpaceOnUse">
      <path
         id="path5034"
         d="M 0,0 612,0 612,792 0,792 0,0 Z" />
    </clipPath>
    <clipPath
       id="clipPath5080"
       clipPathUnits="userSpaceOnUse">
      <path
         id="path5082"
         d="M 0,0 612,0 612,792 0,792 0,0 Z" />
    </clipPath>
    <clipPath
       id="clipPath5112"
       clipPathUnits="userSpaceOnUse">
      <path
         id="path5114"
         d="M 0,0 612,0 612,792 0,792 0,0 Z" />
    </clipPath>
  </defs>
  <metadata
     id="metadata5650">
    <rdf:RDF>
      <cc:Work
         rdf:about="">
        <dc:format>image/svg+xml</dc:format>
        <dc:type
           rdf:resource="http://purl.org/dc/dcmitype/StillImage" />
        <dc:title></dc:title>
      </cc:Work>
    </rdf:RDF>
  </metadata>
  <g
     transform="translate(0,5781.6382)"
     id="layer1">
    <g
       id="g5148"
       transform="matrix(54.22958,0,0,-54.22958,-21129.972,7774.6935)">
      <g
         id="g4608">
        <g
           id="g4610"
           clip-path="url(#clipPath4612)">
          <g
             id="g4616"
             transform="translate(393.1686,153.5705)">
            <path
               d="m 0,0 c -1.61,0.933 -2.929,3.223 -2.929,5.09 l 0,56.62 c 0,1.867 1.319,4.157 2.929,5.091 l 48.863,28.31 c 1.611,0.933 4.246,0.933 5.857,0 l 48.862,-28.31 c 1.611,-0.934 2.929,-3.224 2.929,-5.091 l 0,-56.62 c 0,-1.867 -1.318,-4.157 -2.929,-5.09 L 54.72,-28.311 c -1.611,-0.933 -4.246,-0.933 -5.857,0 L 0,0 Z"
               style="fill:#009ac7;fill-opacity:1;fill-rule:nonzero;stroke:none"
               id="path4618" />
          </g>
        </g>
      </g>
      <g
         id="g4620"
         transform="translate(401.2294,212.3075)">
        <path
           d="M 0,0 43.731,25.337 87.462,0 l 0,-50.674 L 43.731,-76.011 0,-50.674 0,0 Z"
           style="fill:#003a63;fill-opacity:1;fill-rule:nonzero;stroke:none"
           id="path4622" />
      </g>
      <g
         id="g4624">
        <g
           id="g4626"
           clip-path="url(#clipPath4628)">
          <g
             id="g4632"
             transform="translate(481.9955,208.5882)">
            <path
               d="m 0,0 c 1.057,-2.245 0.101,-4.926 -2.137,-5.987 -2.236,-1.06 -4.909,-0.101 -5.967,2.145 -1.056,2.245 -0.099,4.926 2.138,5.987 C -3.728,3.206 -1.058,2.246 0,0"
               style="fill:#f15d22;fill-opacity:1;fill-rule:nonzero;stroke:none"
               id="path4634" />
          </g>
          <g
             id="g4636"
             transform="translate(476.0294,210.7332)">
            <path
               d="M 0,0 C -0.253,-0.12 -0.485,-0.263 -0.702,-0.42 1.346,0.126 3.554,-0.851 4.492,-2.843 5.43,-4.836 4.78,-7.169 3.059,-8.41 c 0.26,0.069 0.517,0.159 0.77,0.278 2.238,1.061 3.194,3.742 2.137,5.987 C 4.908,0.101 2.238,1.061 0,0"
               style="fill:#b5121b;fill-opacity:1;fill-rule:nonzero;stroke:none"
               id="path4638" />
          </g>
          <g
             id="g4640"
             transform="translate(456.847,221.2667)">
            <path
               d="m 0,0 c 0,0.061 -0.048,0.066 -0.273,0.075 l -3.891,0.149 c -0.348,0 -0.594,0.104 -0.675,0.287 -0.065,0.14 -0.021,0.315 0.113,0.468 l 1.838,2.089 c 0.158,0.179 0.158,0.203 0.142,0.237 -0.008,0.019 -0.031,0.034 -0.052,0.034 -0.022,0 -0.045,0 -0.212,-0.148 L -5.091,1.345 C -5.178,1.271 -5.273,1.231 -5.364,1.231 c -0.22,0 -0.379,0.226 -0.418,0.591 -0.063,0.616 -0.39,4.461 -0.393,4.5 -0.021,0.229 -0.029,0.269 -0.087,0.269 -0.01,0 -0.018,-0.002 -0.026,-0.005 -0.007,0.003 -0.017,0.005 -0.026,0.005 -0.058,0 -0.067,-0.04 -0.088,-0.269 -10e-4,-0.039 -0.329,-3.884 -0.392,-4.5 -0.039,-0.365 -0.199,-0.591 -0.418,-0.591 -0.09,0 -0.186,0.04 -0.274,0.114 L -9.565,3.191 C -9.733,3.339 -9.757,3.339 -9.778,3.339 -9.799,3.339 -9.821,3.324 -9.831,3.305 -9.846,3.271 -9.846,3.247 -9.689,3.068 L -7.85,0.979 C -7.715,0.826 -7.673,0.651 -7.736,0.511 -7.818,0.328 -8.064,0.224 -8.412,0.224 L -12.303,0.075 C -12.529,0.066 -12.576,0.061 -12.576,0 l 0,-0.004 0,-0.003 c 0,-0.062 0.047,-0.066 0.273,-0.075 l 3.891,-0.15 c 0.348,0 0.594,-0.104 0.676,-0.287 0.063,-0.14 0.021,-0.315 -0.114,-0.469 l -1.839,-2.088 c -0.157,-0.179 -0.157,-0.203 -0.142,-0.237 0.01,-0.019 0.032,-0.034 0.053,-0.034 0.021,0 0.045,0 0.213,0.148 l 2.079,1.846 c 0.088,0.074 0.184,0.114 0.274,0.114 0.219,0 0.379,-0.226 0.418,-0.59 0.063,-0.618 0.391,-4.462 0.392,-4.5 0.021,-0.23 0.03,-0.271 0.088,-0.271 0.009,0 0.019,0.003 0.026,0.006 0.008,-0.003 0.016,-0.006 0.026,-0.006 0.058,0 0.066,0.041 0.087,0.271 0.003,0.038 0.33,3.882 0.393,4.5 0.039,0.364 0.198,0.59 0.418,0.59 0.091,0 0.186,-0.04 0.273,-0.114 l 2.081,-1.846 c 0.167,-0.148 0.19,-0.148 0.212,-0.148 0.021,0 0.044,0.015 0.052,0.034 0.016,0.034 0.016,0.058 -0.142,0.237 l -1.838,2.088 c -0.134,0.154 -0.178,0.329 -0.113,0.469 0.081,0.183 0.327,0.287 0.675,0.287 l 3.891,0.15 C -0.048,-0.073 0,-0.069 0,-0.007 0,-0.006 -0.001,-0.005 -0.001,-0.004 -0.001,-0.003 0,-0.001 0,0"
               style="fill:#ffffff;fill-opacity:1;fill-rule:nonzero;stroke:none"
               id="path4642" />
          </g>
          <g
             id="g4644"
             transform="translate(413.1238,205.8142)">
            <path
               d="m 0,0 c -0.02,0 -0.037,0.012 -0.044,0.029 -0.144,0.312 -0.3,1.448 -0.435,1.711 -0.358,0.185 -1.452,0.318 -1.704,0.43 -0.019,0.008 -0.029,0.026 -0.029,0.046 0,0.019 0.01,0.037 0.029,0.044 0.253,0.114 1.349,0.247 1.704,0.43 0.135,0.263 0.291,1.4 0.435,1.711 C -0.037,4.419 -0.02,4.43 0,4.431 0.019,4.431 0.037,4.42 0.045,4.402 0.173,4.137 0.483,2.701 0.483,2.701 c 0,0 1.483,-0.333 1.706,-0.441 C 2.206,2.252 2.217,2.235 2.217,2.216 2.217,2.196 2.206,2.179 2.189,2.171 1.965,2.062 0.483,1.729 0.483,1.729 0.483,1.729 0.172,0.292 0.045,0.028 0.037,0.011 0.019,0 0.001,0 L 0,0 Z"
               style="fill:#ffffff;fill-opacity:1;fill-rule:nonzero;stroke:none"
               id="path4646" />
          </g>
          <g
             id="g4648"
             transform="translate(434.2264,151.5382)">
            <path
               d="m 0,0 c -0.739,-1.205 -2.312,-1.581 -3.514,-0.838 -1.202,0.742 -1.576,2.32 -0.837,3.525 0.739,1.205 2.313,1.582 3.513,0.84 C 0.366,2.784 0.739,1.206 0,0"
               style="fill:#adafb2;fill-opacity:1;fill-rule:nonzero;stroke:none"
               id="path4650" />
          </g>
          <g
             id="g4652"
             transform="translate(431.4076,151.5398)">
            <path
               d="M 0,0 C -1.148,0.709 -1.539,2.181 -0.926,3.362 -1.16,3.179 -1.368,2.955 -1.532,2.686 -2.272,1.48 -1.897,-0.098 -0.695,-0.84 0.507,-1.583 2.08,-1.207 2.819,-0.002 2.852,0.051 2.879,0.107 2.907,0.162 2.091,-0.477 0.935,-0.577 0,0"
               style="fill:#009ac7;fill-opacity:1;fill-rule:nonzero;stroke:none"
               id="path4654" />
          </g>
          <g
             id="g4656"
             transform="translate(462.5052,206.6525)">
            <path
               d="M 0,0 C -0.022,0 -0.042,0.013 -0.051,0.033 -0.214,0.39 -0.393,2.63 -0.548,2.93 -0.955,3.14 -2.206,3.291 -2.493,3.421 -2.514,3.43 -2.526,3.45 -2.526,3.472 c 0,0.022 0.012,0.042 0.033,0.051 0.289,0.13 1.541,0.282 1.945,0.491 0.155,0.3 0.333,2.54 0.497,2.897 0.009,0.02 0.029,0.032 0.051,0.033 0.021,0 0.042,-0.013 0.051,-0.033 0.145,-0.302 0.501,-2.884 0.501,-2.884 0,0 1.693,-0.38 1.947,-0.504 C 2.519,3.513 2.531,3.494 2.531,3.472 2.531,3.45 2.519,3.431 2.499,3.421 2.244,3.297 0.552,2.917 0.552,2.917 0.552,2.917 0.196,0.334 0.051,0.032 0.042,0.012 0.021,0 0,0"
               style="fill:#ffffff;fill-opacity:1;fill-rule:nonzero;stroke:none"
               id="path4658" />
          </g>
          <g
             id="g4660"
             transform="translate(417.2802,185.0012)">
            <path
               d="m 0,0 c -0.029,0 -0.055,0.017 -0.068,0.044 -0.217,0.473 -0.454,2.522 -0.659,2.922 -0.543,0.279 -2.528,0.481 -2.909,0.652 -0.027,0.012 -0.045,0.039 -0.045,0.069 0,0.029 0.018,0.056 0.045,0.068 0.383,0.173 2.37,0.374 2.909,0.652 0.205,0.399 0.442,2.447 0.659,2.922 0.013,0.026 0.039,0.044 0.068,0.044 l 0.001,0 c 0.028,0 0.055,-0.017 0.067,-0.042 0.195,-0.404 0.666,-2.907 0.666,-2.907 0,0 2.573,-0.506 2.912,-0.67 C 3.672,3.742 3.688,3.715 3.688,3.687 3.688,3.657 3.672,3.631 3.646,3.618 3.306,3.454 0.734,2.948 0.734,2.948 0.734,2.948 0.261,0.443 0.068,0.042 0.056,0.017 0.03,0 0.001,0 L 0,0 Z"
               style="fill:#ffffff;fill-opacity:1;fill-rule:nonzero;stroke:none"
               id="path4662" />
          </g>
          <g
             id="g4664"
             transform="translate(483.0552,168.6101)">
            <path
               d="m 0,0 c 0,0.047 -0.037,0.051 -0.209,0.057 l -2.998,0.115 c -0.267,0 -0.457,0.081 -0.519,0.221 -0.049,0.108 -0.016,0.243 0.086,0.361 l 1.417,1.608 c 0.121,0.138 0.121,0.157 0.11,0.183 -0.007,0.015 -0.025,0.026 -0.041,0.026 -0.017,0 -0.035,0 -0.163,-0.114 L -3.92,1.036 C -3.987,0.978 -4.06,0.948 -4.13,0.948 c -0.17,0 -0.292,0.174 -0.322,0.454 -0.049,0.475 -0.3,3.436 -0.303,3.465 -0.015,0.177 -0.021,0.209 -0.067,0.209 -0.008,0 -0.014,-0.003 -0.02,-0.005 -0.005,0.002 -0.012,0.005 -0.02,0.005 -0.045,0 -0.051,-0.032 -0.067,-0.209 C -4.93,4.838 -5.183,1.877 -5.232,1.402 -5.261,1.122 -5.384,0.948 -5.553,0.948 c -0.069,0 -0.143,0.03 -0.211,0.088 L -7.365,2.457 C -7.494,2.571 -7.513,2.571 -7.528,2.571 -7.546,2.571 -7.563,2.56 -7.569,2.545 -7.581,2.519 -7.581,2.5 -7.46,2.362 L -6.045,0.754 C -5.94,0.636 -5.908,0.501 -5.957,0.393 -6.02,0.253 -6.209,0.172 -6.477,0.172 L -9.473,0.057 C -9.647,0.051 -9.684,0.047 -9.684,0 l 0,-0.004 0,-0.003 c 0,-0.047 0.037,-0.05 0.211,-0.056 l 2.996,-0.116 c 0.268,0 0.457,-0.081 0.52,-0.221 0.049,-0.107 0.017,-0.242 -0.088,-0.36 L -7.46,-2.369 c -0.121,-0.138 -0.121,-0.157 -0.109,-0.182 0.006,-0.016 0.023,-0.026 0.041,-0.026 0.015,0 0.034,0 0.163,0.114 l 1.601,1.421 c 0.068,0.057 0.142,0.088 0.211,0.088 0.169,0 0.292,-0.174 0.321,-0.455 0.049,-0.475 0.302,-3.436 0.303,-3.466 0.016,-0.176 0.022,-0.207 0.067,-0.207 0.008,0 0.015,0.002 0.02,0.004 0.006,-0.002 0.012,-0.004 0.02,-0.004 0.046,0 0.052,0.031 0.067,0.207 0.003,0.03 0.254,2.991 0.303,3.466 0.03,0.281 0.152,0.455 0.322,0.455 0.07,0 0.143,-0.031 0.21,-0.088 l 1.603,-1.421 c 0.128,-0.114 0.146,-0.114 0.163,-0.114 0.016,0 0.034,0.01 0.041,0.026 0.011,0.025 0.011,0.044 -0.11,0.182 L -3.64,-0.76 c -0.102,0.118 -0.135,0.253 -0.086,0.36 0.062,0.14 0.252,0.221 0.519,0.221 l 2.998,0.116 C -0.037,-0.057 0,-0.054 0,-0.007 0,-0.005 0,-0.005 0,-0.004 0,-0.002 0,-0.002 0,0"
               style="fill:#ffffff;fill-opacity:1;fill-rule:nonzero;stroke:none"
               id="path4666" />
          </g>
          <g
             id="g4668"
             transform="translate(412.4241,175.1185)">
            <path
               d="m 0,0 c -4.096,-1.021 -7.243,-2.551 -7.028,-3.417 0.214,-0.866 3.709,-0.74 7.804,0.281 4.095,1.022 7.241,2.551 7.026,3.418 C 7.588,1.147 4.094,1.022 0,0 m 0.654,-2.644 c -3.334,-0.832 -6.157,-1.024 -6.305,-0.429 -0.148,0.594 2.437,1.751 5.772,2.583 3.335,0.831 6.157,1.023 6.304,0.428 0.148,-0.594 -2.436,-1.751 -5.771,-2.582"
               style="fill:#ffffff;fill-opacity:1;fill-rule:nonzero;stroke:none"
               id="path4670" />
          </g>
          <g
             id="g4672"
             transform="translate(416.0705,173.5307)">
            <path
               d="m 0,0 c 0,-1.701 -1.375,-3.079 -3.069,-3.079 -1.696,0 -3.07,1.378 -3.07,3.079 0,1.701 1.374,3.08 3.07,3.08 C -1.375,3.08 0,1.701 0,0"
               style="fill:#dbc500;fill-opacity:1;fill-rule:nonzero;stroke:none"
               id="path4674" />
          </g>
          <g
             id="g4676"
             transform="translate(414.3239,170.8928)">
            <path
               d="m 0,0 c -1.696,0 -3.071,1.379 -3.071,3.081 0,1.111 0.589,2.082 1.468,2.623 -1.564,-0.142 -2.79,-1.46 -2.79,-3.066 0,-1.701 1.375,-3.079 3.07,-3.079 0.588,0 1.135,0.167 1.602,0.456 C 0.187,0.006 0.094,0 0,0"
               style="fill:#009ac7;fill-opacity:1;fill-rule:nonzero;stroke:none"
               id="path4678" />
          </g>
          <g
             id="g4680"
             transform="translate(420.2265,175.4004)">
            <path
               d="m 0,0 c -0.148,0.6 -1.876,0.723 -4.286,0.402 l 0.372,-0.478 c 1.463,0.156 2.451,0.077 2.537,-0.267 0.147,-0.595 -2.436,-1.752 -5.771,-2.583 -3.335,-0.832 -6.157,-1.024 -6.305,-0.429 -0.094,0.38 0.931,0.99 2.552,1.598 l 0.049,0.563 c -2.492,-0.885 -4.135,-1.871 -3.978,-2.505 0.214,-0.866 3.709,-0.74 7.803,0.282 C -2.932,-2.396 0.215,-0.867 0,0"
               style="fill:#ffffff;fill-opacity:1;fill-rule:nonzero;stroke:none"
               id="path4682" />
          </g>
        </g>
      </g>
      <g
         id="g4684"
         transform="translate(470.0098,188.3584)">
        <path
           d="M 0,0 -0.128,0.645 13.736,3.401 13.864,2.757 0,0 Z"
           style="fill:#adafb2;fill-opacity:1;fill-rule:nonzero;stroke:none"
           id="path4686" />
      </g>
      <g
         id="g4688"
         transform="translate(477.8748,187.3041)">
        <path
           d="M 0,0 -0.643,-0.129 -1.789,5.652 -1.148,5.779 0,0 Z"
           style="fill:#adafb2;fill-opacity:1;fill-rule:nonzero;stroke:none"
           id="path4690" />
      </g>
      <g
         id="g4692">
        <g
           id="g4694"
           clip-path="url(#clipPath4696)">
          <g
             id="g4700"
             transform="translate(479.7039,188.0327)">
            <path
               d="M 0,0 C 0.061,-0.298 -0.132,-0.588 -0.43,-0.647 L -3.795,-1.32 c -0.298,-0.059 -0.586,0.134 -0.647,0.432 -0.059,0.298 0.134,0.59 0.431,0.648 l 3.366,0.673 C -0.346,0.493 -0.059,0.299 0,0"
               style="fill:#adafb2;fill-opacity:1;fill-rule:nonzero;stroke:none"
               id="path4702" />
          </g>
          <g
             id="g4704"
             transform="translate(476.2098,194.0063)">
            <path
               d="m 0,0 c 0.298,0.06 0.587,-0.134 0.645,-0.433 l 0.27,-1.351 C 0.973,-2.082 0.781,-2.373 0.482,-2.432 0.185,-2.491 -0.104,-2.298 -0.162,-1.999 l -0.269,1.351 C -0.491,-0.349 -0.298,-0.059 0,0"
               style="fill:#adafb2;fill-opacity:1;fill-rule:nonzero;stroke:none"
               id="path4706" />
          </g>
        </g>
      </g>
      <g
         id="g4708"
         transform="translate(470.6854,189.8686)">
        <path
           d="M 0,0 -1.722,-0.337 -2.519,3.761 -0.797,4.098 0,0 Z"
           style="fill:#adafb2;fill-opacity:1;fill-rule:nonzero;stroke:none"
           id="path4710" />
      </g>
      <g
         id="g4712"
         transform="translate(473.0473,190.3312)">
        <path
           d="M 0,0 -1.722,-0.338 -2.519,3.761 -0.797,4.098 0,0 Z"
           style="fill:#adafb2;fill-opacity:1;fill-rule:nonzero;stroke:none"
           id="path4714" />
      </g>
      <g
         id="g4716"
         transform="translate(471.8645,183.8018)">
        <path
           d="M 0,0 -1.722,-0.338 -2.518,3.761 -0.797,4.098 0,0 Z"
           style="fill:#adafb2;fill-opacity:1;fill-rule:nonzero;stroke:none"
           id="path4718" />
      </g>
      <g
         id="g4720"
         transform="translate(474.2272,184.2636)">
        <path
           d="M 0,0 -1.722,-0.336 -2.519,3.761 -0.797,4.1 0,0 Z"
           style="fill:#adafb2;fill-opacity:1;fill-rule:nonzero;stroke:none"
           id="path4722" />
      </g>
      <g
         id="g4724"
         transform="translate(482.1361,192.1108)">
        <path
           d="M 0,0 -1.722,-0.337 -2.518,3.761 -0.797,4.098 0,0 Z"
           style="fill:#adafb2;fill-opacity:1;fill-rule:nonzero;stroke:none"
           id="path4726" />
      </g>
      <g
         id="g4728"
         transform="translate(484.498,192.573)">
        <path
           d="M 0,0 -1.722,-0.337 -2.519,3.762 -0.797,4.099 0,0 Z"
           style="fill:#adafb2;fill-opacity:1;fill-rule:nonzero;stroke:none"
           id="path4730" />
      </g>
      <g
         id="g4732"
         transform="translate(483.3157,186.043)">
        <path
           d="M 0,0 -1.722,-0.337 -2.518,3.762 -0.797,4.099 0,0 Z"
           style="fill:#adafb2;fill-opacity:1;fill-rule:nonzero;stroke:none"
           id="path4734" />
      </g>
      <g
         id="g4736"
         transform="translate(485.6772,186.5058)">
        <path
           d="M 0,0 -1.721,-0.336 -2.518,3.761 -0.796,4.099 0,0 Z"
           style="fill:#adafb2;fill-opacity:1;fill-rule:nonzero;stroke:none"
           id="path4738" />
      </g>
      <g
         id="g4740"
         transform="translate(413.1106,225.457)">
        <path
           d="M 0,0 0.031,0.018 -0.393,3.046 0.67,3.661 0.766,3.494 1.36,-1.791 0.891,-2.063 -3.392,1.085 -3.488,1.252 -2.425,1.868 0,0 Z"
           style="fill:#ffffff;fill-opacity:1;fill-rule:nonzero;stroke:none"
           id="path4742" />
      </g>
      <g
         id="g4744"
         transform="translate(418.4272,227.3221)">
        <path
           d="m 0,0 0.56,-0.973 -2.193,-1.271 -0.56,0.973 0.55,0.319 L -3.024,1.447 -3.53,1.154 -4.087,2.121 -1.98,3.341 -1.423,2.374 -1.93,2.081 -0.55,-0.319 0,0 Z"
           style="fill:#ffffff;fill-opacity:1;fill-rule:nonzero;stroke:none"
           id="path4746" />
      </g>
      <g
         id="g4748">
        <g
           id="g4750"
           clip-path="url(#clipPath4752)">
          <g
             id="g4756"
             transform="translate(423.4525,229.1512)">
            <path
               d="m 0,0 0.093,-0.161 -1.236,-0.716 -1.476,0.847 -0.574,-0.333 0.734,-1.277 c -0.37,-0.214 -0.747,-0.433 -1.105,-0.64 -0.832,1.444 -1.663,2.889 -2.497,4.339 0.624,0.362 1.266,0.734 1.897,1.099 1.702,0.978 3.191,-0.895 2.526,-2.272 L 0,0 Z M -3.594,2.166 C -3.857,2.022 -4.125,1.858 -4.385,1.708 -4.181,1.355 -3.96,0.97 -3.76,0.623 l 0.79,0.458 c 0.6,0.348 0.01,1.444 -0.624,1.085"
               style="fill:#ffffff;fill-opacity:1;fill-rule:nonzero;stroke:none"
               id="path4758" />
          </g>
          <g
             id="g4760"
             transform="translate(422.0438,232.5833)">
            <path
               d="M 0,0 C -0.193,0.335 -0.382,0.663 -0.571,0.992 L 2.642,2.853 C 2.831,2.525 3.02,2.196 3.212,1.861 L 2.156,1.249 4.082,-2.098 C 3.718,-2.31 3.353,-2.521 2.988,-2.732 L 1.063,0.616 0,0 Z"
               style="fill:#ffffff;fill-opacity:1;fill-rule:nonzero;stroke:none"
               id="path4762" />
          </g>
          <g
             id="g4764"
             transform="translate(429.4363,234.1054)">
            <path
               d="m 0,0 c -0.175,0.304 -0.573,0.165 -1.019,-0.061 -0.978,-0.476 -1.782,-0.511 -2.336,0.424 -1.114,1.85 2.247,3.798 3.299,1.911 C -0.445,2.048 -0.729,1.884 -1.106,1.665 -1.438,2.242 -2.571,1.52 -2.312,0.984 -2.148,0.64 -1.787,0.759 -1.373,0.94 -0.461,1.345 0.455,1.702 1.078,0.617 2.127,-1.206 -1.377,-3.277 -2.45,-1.354 c 0.371,0.215 0.692,0.401 1.069,0.62 C -1.064,-1.286 0.293,-0.508 0,0"
               style="fill:#ffffff;fill-opacity:1;fill-rule:nonzero;stroke:none"
               id="path4766" />
          </g>
        </g>
      </g>
      <g
         id="g4768"
         transform="translate(449.8488,244.1256)">
        <path
           d="M 0,0 1.131,-0.655 -0.777,-3.972 0.266,-4.577 2.175,-1.26 3.306,-1.915 1.397,-5.232 2.441,-5.837 4.349,-2.52 5.48,-3.175 2.983,-7.515 -2.497,-4.34 0,0 Z"
           style="fill:#ffffff;fill-opacity:1;fill-rule:nonzero;stroke:none"
           id="path4770" />
      </g>
      <g
         id="g4772">
        <g
           id="g4774"
           clip-path="url(#clipPath4776)">
          <g
             id="g4780"
             transform="translate(454.1201,235.8643)">
            <path
               d="M 0,0 2.497,4.34 C 2.868,4.125 3.238,3.91 3.621,3.688 L 2.676,2.046 2.757,1.999 C 3.863,1.358 4.285,2.221 4.752,3.033 5.129,2.815 5.506,2.596 5.889,2.375 5.379,1.488 4.932,0.656 3.756,0.601 l 0.076,-2.589 -0.1,-0.174 -1.23,0.713 0.015,2.231 C 2.355,0.843 2.219,0.922 2.077,1.004 L 1.125,-0.651 C 0.742,-0.43 0.371,-0.215 0,0"
               style="fill:#ffffff;fill-opacity:1;fill-rule:nonzero;stroke:none"
               id="path4782" />
          </g>
        </g>
      </g>
      <g
         id="g4784"
         transform="translate(461.6733,232.2157)">
        <path
           d="M 0,0 -1.705,0.988 -2.273,0.589 -3.353,1.215 -3.261,1.377 1.122,4.484 1.597,4.208 1.113,-1.158 1.02,-1.319 -0.061,-0.692 0,0 Z M 0.343,2.587 -0.801,1.729 0.187,1.156 0.343,2.587 Z"
           style="fill:#ffffff;fill-opacity:1;fill-rule:nonzero;stroke:none"
           id="path4786" />
      </g>
      <g
         id="g4788">
        <g
           id="g4790"
           clip-path="url(#clipPath4792)">
          <g
             id="g4796"
             transform="translate(467.047,228.3748)">
            <path
               d="M 0,0 C -0.377,0.218 -0.753,0.436 -1.13,0.655 L 0.778,3.972 -0.557,4.745 -2.465,1.428 c -0.377,0.218 -0.76,0.44 -1.131,0.655 l 2.497,4.34 C -0.728,6.208 -0.345,5.986 2.497,4.34 L 0,0 Z"
               style="fill:#ffffff;fill-opacity:1;fill-rule:nonzero;stroke:none"
               id="path4798" />
          </g>
        </g>
      </g>
      <g
         id="g4800"
         transform="translate(468.8737,227.3165)">
        <path
           d="M 0,0 -1.081,0.626 -0.988,0.787 3.394,3.894 3.87,3.619 3.386,-1.747 3.293,-1.908 2.212,-1.282 2.562,1.905 0,0 Z"
           style="fill:#ffffff;fill-opacity:1;fill-rule:nonzero;stroke:none"
           id="path4802" />
      </g>
      <g
         id="g4804">
        <g
           id="g4806"
           clip-path="url(#clipPath4808)">
          <g
             id="g4812"
             transform="translate(477.5441,226.7567)">
            <path
               d="m 0,0 c -0.642,0.372 -0.963,0.558 -1.6,0.927 l -0.353,-0.614 1.47,-0.852 C -0.672,-0.867 -0.861,-1.196 -1.05,-1.525 l -1.47,0.853 c -0.147,-0.255 -0.289,-0.502 -0.439,-0.763 0.636,-0.369 1.007,-0.583 1.656,-0.959 -0.186,-0.323 -0.378,-0.657 -0.567,-0.986 -1.014,0.587 -1.755,1.017 -2.756,1.596 0.835,1.451 1.67,2.902 2.497,4.34 1.001,-0.58 1.687,-0.977 2.7,-1.564 C 0.385,0.67 0.193,0.335 0,0"
               style="fill:#ffffff;fill-opacity:1;fill-rule:nonzero;stroke:none"
               id="path4814" />
          </g>
          <g
             id="g4816"
             transform="translate(476.8094,222.7188)">
            <path
               d="M 0,0 C 0.831,1.444 1.662,2.889 2.497,4.34 3.121,3.978 3.763,3.606 4.399,3.237 6.466,2.032 4.611,-1.192 2.541,0.007 L 1.744,0.469 1.106,-0.641 C 0.735,-0.426 0.364,-0.211 0,0 M 3.823,2.249 C 3.567,2.406 3.285,2.56 3.032,2.707 2.829,2.354 2.522,1.821 2.318,1.467 L 3.109,1.009 c 0.606,-0.351 1.352,0.862 0.714,1.24"
               style="fill:#ffffff;fill-opacity:1;fill-rule:nonzero;stroke:none"
               id="path4818" />
          </g>
          <g
             id="g4820"
             transform="translate(482.2591,222.4462)">
            <path
               d="M 0,0 C 1.726,3.001 6.162,0.431 4.436,-2.57 2.706,-5.577 -1.73,-3.007 0,0 M 3.306,-1.915 C 4.204,-0.353 2.036,0.904 1.137,-0.659 0.231,-2.233 2.399,-3.49 3.306,-1.915"
               style="fill:#ffffff;fill-opacity:1;fill-rule:nonzero;stroke:none"
               id="path4822" />
          </g>
          <g
             id="g4824"
             transform="translate(490.6201,217.7262)">
            <path
               d="m 0,0 c 0.248,-0.384 0.23,-0.803 0.009,-1.187 -0.441,-0.753 -1.252,-1.102 -2.135,-0.59 l -2.027,1.174 2.497,4.34 1.847,-1.071 C 0.939,2.233 1.202,1.304 0.771,0.553 0.621,0.293 0.31,0.052 0,0 m -2.092,0.501 -0.425,-0.738 0.884,-0.512 c 0.444,-0.257 0.863,0.484 0.418,0.742 l -0.877,0.508 z m 0.934,1.624 -0.403,-0.7 0.698,-0.405 c 0.439,-0.254 0.842,0.447 0.397,0.705 l -0.692,0.4 z"
               style="fill:#ffffff;fill-opacity:1;fill-rule:nonzero;stroke:none"
               id="path4826" />
          </g>
          <g
             id="g4828"
             transform="translate(461.3582,136.6085)">
            <path
               d="m 0,0 -2.494,4.336 c 0.37,0.215 0.74,0.429 1.123,0.651 l 0.945,-1.642 0.08,0.047 C 0.759,4.032 0.225,4.83 -0.241,5.642 0.135,5.86 0.512,6.077 0.894,6.299 1.404,5.414 1.899,4.61 1.358,3.562 L 3.629,2.334 3.728,2.16 2.5,1.448 0.584,2.576 C 0.45,2.466 0.314,2.387 0.172,2.305 L 1.124,0.651 C 0.741,0.429 0.371,0.215 0,0"
               style="fill:#ffffff;fill-opacity:1;fill-rule:nonzero;stroke:none"
               id="path4830" />
          </g>
          <g
             id="g4832"
             transform="translate(466.6817,144.1528)">
            <path
               d="m 0,0 c -0.642,-0.372 -0.963,-0.558 -1.599,-0.926 l 0.353,-0.613 1.469,0.851 C 0.412,-1.017 0.601,-1.345 0.79,-1.673 l -1.469,-0.851 c 0.146,-0.254 0.288,-0.502 0.438,-0.762 0.636,0.368 1.006,0.583 1.654,0.958 0.186,-0.322 0.378,-0.656 0.567,-0.985 -1.012,-0.586 -1.753,-1.015 -2.753,-1.595 -0.834,1.45 -1.668,2.899 -2.494,4.336 1,0.58 1.685,0.977 2.697,1.563 C -0.385,0.669 -0.192,0.334 0,0"
               style="fill:#ffffff;fill-opacity:1;fill-rule:nonzero;stroke:none"
               id="path4834" />
          </g>
          <g
             id="g4836"
             transform="translate(470.3301,143.1364)">
            <path
               d="M 0,0 1.568,0.908 C 1.782,0.536 1.927,0.283 2.141,-0.089 1.253,-0.604 0.339,-1.133 -0.537,-1.641 L -3.032,2.695 C -2.661,2.909 -2.297,3.12 -1.921,3.339 -0.631,1.096 -1.062,1.846 0,0"
               style="fill:#ffffff;fill-opacity:1;fill-rule:nonzero;stroke:none"
               id="path4838" />
          </g>
          <g
             id="g4840"
             transform="translate(473.9479,145.2325)">
            <path
               d="M 0,0 1.568,0.909 C 1.782,0.537 1.928,0.283 2.142,-0.089 1.253,-0.604 0.34,-1.133 -0.537,-1.641 l -2.495,4.336 c 0.371,0.214 0.735,0.426 1.111,0.644 C -0.631,1.096 -1.062,1.846 0,0"
               style="fill:#ffffff;fill-opacity:1;fill-rule:nonzero;stroke:none"
               id="path4842" />
          </g>
        </g>
      </g>
      <g
         id="g4844"
         transform="translate(478.7449,146.6819)">
        <path
           d="M 0,0 -1.092,-0.633 -2.14,1.189 -4.941,2.695 -5.037,2.863 -3.846,3.553 -2.232,2.564 -2.189,2.589 -2.235,4.486 -1.038,5.18 -0.942,5.013 -1.048,1.821 0,0 Z"
           style="fill:#ffffff;fill-opacity:1;fill-rule:nonzero;stroke:none"
           id="path4846" />
      </g>
      <g
         id="g4848">
        <g
           id="g4850"
           clip-path="url(#clipPath4852)">
          <g
             id="g4856"
             transform="translate(407.3313,149.5354)">
            <path
               d="M 0,0 C -0.377,0.218 -0.754,0.436 -1.13,0.655 L 0.778,3.972 -0.557,4.745 -2.465,1.428 c -0.377,0.218 -0.76,0.44 -1.131,0.655 l 2.497,4.34 C -0.728,6.208 -0.345,5.986 2.497,4.34 L 0,0 Z"
               style="fill:#ffffff;fill-opacity:1;fill-rule:nonzero;stroke:none"
               id="path4858" />
          </g>
        </g>
      </g>
      <g
         id="g4860"
         transform="translate(411.245,147.9951)">
        <path
           d="M 0,0 -1.705,0.988 -2.272,0.589 -3.353,1.216 -3.261,1.376 1.121,4.484 1.597,4.208 1.113,-1.158 1.02,-1.319 -0.061,-0.692 0,0 Z M 0.343,2.587 -0.801,1.729 0.187,1.156 0.343,2.587 Z"
           style="fill:#ffffff;fill-opacity:1;fill-rule:nonzero;stroke:none"
           id="path4862" />
      </g>
      <g
         id="g4864"
         transform="translate(413.248,145.4543)">
        <path
           d="M 0,0 -0.914,0.53 -0.08,1.98 0.359,1.726 3.818,4.302 4.293,4.026 3.849,-0.296 4.3,-0.557 3.466,-2.008 2.558,-1.482 2.832,-1.005 0.275,0.477 0,0 Z M 1.484,1.091 2.708,0.382 2.986,2.312 1.484,1.091 Z"
           style="fill:#ffffff;fill-opacity:1;fill-rule:nonzero;stroke:none"
           id="path4866" />
      </g>
      <g
         id="g4868"
         transform="translate(420.7425,142.4924)">
        <path
           d="M 0,0 -1.705,0.988 -2.272,0.589 -3.353,1.216 -3.26,1.376 1.121,4.484 1.597,4.208 1.114,-1.158 1.021,-1.319 -0.06,-0.693 0,0 Z M 0.343,2.587 -0.801,1.729 0.187,1.156 0.343,2.587 Z"
           style="fill:#ffffff;fill-opacity:1;fill-rule:nonzero;stroke:none"
           id="path4870" />
      </g>
      <g
         id="g4872"
         transform="translate(423.1205,140.3871)">
        <path
           d="M 0,0 -1.081,0.626 -0.989,0.788 3.394,3.895 3.869,3.619 3.386,-1.747 3.293,-1.908 2.212,-1.281 2.563,1.905 0,0 Z"
           style="fill:#ffffff;fill-opacity:1;fill-rule:nonzero;stroke:none"
           id="path4874" />
      </g>
      <g
         id="g4876">
        <g
           id="g4878"
           clip-path="url(#clipPath4880)">
          <g
             id="g4884"
             transform="translate(426.9859,138.1475)">
            <path
               d="M 0,0 2.497,4.34 C 2.868,4.125 3.238,3.91 3.621,3.688 L 2.676,2.046 2.756,1.999 C 3.862,1.358 4.285,2.221 4.752,3.033 5.129,2.815 5.506,2.597 5.889,2.375 5.379,1.488 4.932,0.655 3.756,0.601 l 0.076,-2.589 -0.1,-0.174 -1.23,0.713 0.015,2.231 C 2.355,0.843 2.219,0.922 2.077,1.004 L 1.125,-0.651 C 0.742,-0.43 0.371,-0.215 0,0"
               style="fill:#ffffff;fill-opacity:1;fill-rule:nonzero;stroke:none"
               id="path4886" />
          </g>
        </g>
      </g>
      <g
         id="g4888"
         transform="translate(434.353,134.6064)">
        <path
           d="M 0,0 -1.705,0.988 -2.272,0.589 -3.353,1.216 -3.261,1.377 1.121,4.484 1.597,4.208 1.114,-1.158 1.021,-1.318 -0.061,-0.692 0,0 Z M 0.344,2.587 -0.801,1.729 0.187,1.156 0.344,2.587 Z"
           style="fill:#ffffff;fill-opacity:1;fill-rule:nonzero;stroke:none"
           id="path4890" />
      </g>
      <g
         id="g4892">
        <g
           id="g4894"
           clip-path="url(#clipPath4896)">
          <g
             id="g4900"
             transform="translate(491.9415,209.9383)">
            <path
               d="m 0,0 4.994,0 0,-1.303 -1.891,0 0,-0.093 c 0,-1.281 0.956,-1.217 1.891,-1.217 l 0,-1.317 c -1.02,0 -1.962,-0.029 -2.597,0.966 l -2.197,-1.36 -0.2,0 0,1.425 1.933,1.102 C 1.905,-1.625 1.905,-1.468 1.905,-1.303 L 0,-1.303 0,0 Z"
               style="fill:#ffffff;fill-opacity:1;fill-rule:nonzero;stroke:none"
               id="path4902" />
          </g>
          <g
             id="g4904"
             transform="translate(494.4313,205.1869)">
            <path
               d="M 0,0 C 3.453,0 3.453,-5.14 0,-5.14 -3.46,-5.14 -3.46,0 0,0 m 0,-3.83 c 1.798,0 1.798,2.513 0,2.513 -1.812,0 -1.812,-2.513 0,-2.513"
               style="fill:#ffffff;fill-opacity:1;fill-rule:nonzero;stroke:none"
               id="path4906" />
          </g>
          <g
             id="g4908"
             transform="translate(491.9415,199.083)">
            <path
               d="m 0,0 4.994,0 0,-2.205 c -0.008,-2.398 -3.717,-2.398 -3.717,0 l 0,0.923 L 0,-1.282 0,0 Z m 3.852,-2.198 c 0.007,0.301 0,0.623 0,0.916 l -1.427,0 0,-0.916 c 0,-0.701 1.42,-0.744 1.427,0"
               style="fill:#ffffff;fill-opacity:1;fill-rule:nonzero;stroke:none"
               id="path4910" />
          </g>
        </g>
      </g>
      <g
         id="g4912"
         transform="translate(491.9415,189.9432)">
        <path
           d="m 0,0 0,1.31 2.005,0 0,1.546 -2.005,0 0,1.31 4.994,0 0,-1.31 -1.812,0 0,-1.546 1.812,0 L 4.994,0 0,0 Z"
           style="fill:#ffffff;fill-opacity:1;fill-rule:nonzero;stroke:none"
           id="path4914" />
      </g>
      <g
         id="g4916"
         transform="translate(491.9343,188.1987)">
        <path
           d="m 0,0 0,0.458 5.001,0 0,-1.31 -2.447,0 2.468,-2.534 0,-0.465 -5.015,0 0,1.324 2.454,0 L 0,0 Z"
           style="fill:#ffffff;fill-opacity:1;fill-rule:nonzero;stroke:none"
           id="path4918" />
      </g>
      <g
         id="g4920"
         transform="translate(495.7936,179.9399)">
        <path
           d="m 0,0 0,1.854 -0.706,0 0,-1.704 -1.135,0 0,1.704 -0.877,0 0,-1.918 -1.134,0 0,3.192 4.993,0 L 1.141,0 0,0 Z"
           style="fill:#ffffff;fill-opacity:1;fill-rule:nonzero;stroke:none"
           id="path4922" />
      </g>
      <g
         id="g4924"
         transform="translate(491.9415,174.6013)">
        <path
           d="m 0,0 0,1.31 2.005,0 0,1.546 -2.005,0 0,1.31 4.994,0 0,-1.31 -1.812,0 0,-1.546 1.812,0 L 4.994,0 0,0 Z"
           style="fill:#ffffff;fill-opacity:1;fill-rule:nonzero;stroke:none"
           id="path4926" />
      </g>
      <g
         id="g4928">
        <g
           id="g4930"
           clip-path="url(#clipPath4932)">
          <g
             id="g4936"
             transform="translate(491.9415,173.3149)">
            <path
               d="m 0,0 4.994,0 0,-1.303 -1.891,0 0,-0.093 c 0,-1.281 0.956,-1.217 1.891,-1.217 l 0,-1.317 c -1.02,0 -1.962,-0.029 -2.597,0.966 l -2.197,-1.36 -0.2,0 0,1.425 1.933,1.102 C 1.905,-1.625 1.905,-1.468 1.905,-1.303 L 0,-1.303 0,0 Z"
               style="fill:#ffffff;fill-opacity:1;fill-rule:nonzero;stroke:none"
               id="path4938" />
          </g>
          <g
             id="g4940"
             transform="translate(494.4313,168.5635)">
            <path
               d="M 0,0 C 3.453,0 3.453,-5.14 0,-5.14 -3.46,-5.14 -3.46,0 0,0 m 0,-3.83 c 1.798,0 1.798,2.513 0,2.513 -1.812,0 -1.812,-2.513 0,-2.513"
               style="fill:#ffffff;fill-opacity:1;fill-rule:nonzero;stroke:none"
               id="path4942" />
          </g>
          <g
             id="g4944"
             transform="translate(393.3386,161.3838)">
            <path
               d="m 0,0 c 0,1.038 0.563,2.162 1.897,2.355 l 0,-1.26 C 1.391,0.916 1.163,0.537 1.163,0 c 0,-0.752 0.563,-1.246 1.391,-1.246 0.735,0 1.377,0.487 1.384,1.246 0,0.544 -0.272,0.981 -0.806,1.117 l 0,1.26 C 4.544,2.191 5.1,1.067 5.1,0 5.108,-1.274 4.252,-2.563 2.554,-2.57 0.856,-2.563 0,-1.274 0,0"
               style="fill:#ffffff;fill-opacity:1;fill-rule:nonzero;stroke:none"
               id="path4946" />
          </g>
          <g
             id="g4948"
             transform="translate(398.2035,168.8767)">
            <path
               d="m 0,0 0.186,0 0,-1.432 -1.47,-0.859 0,-0.665 1.47,0 0,-1.282 -4.994,0 0,2.198 c 0.007,1.968 2.369,2.326 3.225,1.059 L 0,0 Z m -3.666,-2.04 c -0.008,-0.301 0,-0.616 0,-0.916 l 1.248,0 0,0.916 c 0,0.694 -1.241,0.73 -1.248,0"
               style="fill:#ffffff;fill-opacity:1;fill-rule:nonzero;stroke:none"
               id="path4950" />
          </g>
        </g>
      </g>
      <g
         id="g4952"
         transform="translate(397.2691,171.6807)">
        <path
           d="m 0,0 1.12,0 0,-2.541 -1.12,0 0,0.637 -2.761,0 0,-0.587 -1.112,0 0,2.441 1.112,0 0,-0.587 2.761,0 L 0,0 Z"
           style="fill:#ffffff;fill-opacity:1;fill-rule:nonzero;stroke:none"
           id="path4954" />
      </g>
      <g
         id="g4956">
        <g
           id="g4958"
           clip-path="url(#clipPath4960)">
          <g
             id="g4964"
             transform="translate(396.9199,174.8795)">
            <path
               d="m 0,0 c -0.35,0 -0.428,-0.415 -0.457,-0.916 -0.078,-1.088 -0.449,-1.804 -1.534,-1.819 -2.154,-0.043 -2.154,3.852 0,3.823 l 0,-1.217 c -0.663,0 -0.606,-1.346 -0.014,-1.389 0.378,-0.028 0.457,0.344 0.507,0.795 0.107,0.995 0.257,1.969 1.505,1.969 2.097,0 2.133,-4.081 -0.064,-4.052 l 0,1.238 C 0.578,-1.568 0.585,0 0,0"
               style="fill:#ffffff;fill-opacity:1;fill-rule:nonzero;stroke:none"
               id="path4966" />
          </g>
        </g>
      </g>
      <g
         id="g4968"
         transform="translate(394.5371,176.4742)">
        <path
           d="m 0,0 -1.141,0 0,3.723 1.141,0 0,-1.225 3.852,0 0,-1.267 L 0,1.231 0,0 Z"
           style="fill:#ffffff;fill-opacity:1;fill-rule:nonzero;stroke:none"
           id="path4970" />
      </g>
      <g
         id="g4972">
        <g
           id="g4974"
           clip-path="url(#clipPath4976)">
          <g
             id="g4980"
             transform="translate(395.8995,180.5888)">
            <path
               d="M 0,0 C -3.453,0 -3.453,5.14 0,5.14 3.46,5.14 3.46,0 0,0 m 0,3.83 c -1.798,0 -1.798,-2.513 0,-2.513 1.812,0 1.812,2.513 0,2.513"
               style="fill:#ffffff;fill-opacity:1;fill-rule:nonzero;stroke:none"
               id="path4982" />
          </g>
        </g>
      </g>
      <g
         id="g4984"
         transform="translate(396.77,187.9028)">
        <path
           d="m 0,0 1.619,0 0,-1.303 -4.993,0 0,3.121 1.141,0 0,-1.818 1.092,0 0,1.611 L 0,1.611 0,0 Z"
           style="fill:#ffffff;fill-opacity:1;fill-rule:nonzero;stroke:none"
           id="path4986" />
      </g>
      <g
         id="g4988">
        <g
           id="g4990"
           clip-path="url(#clipPath4992)">
          <g
             id="g4996"
             transform="translate(395.8995,190.3065)">
            <path
               d="M 0,0 C -3.453,0 -3.453,5.14 0,5.14 3.46,5.14 3.46,0 0,0 m 0,3.83 c -1.798,0 -1.798,-2.513 0,-2.513 1.812,0 1.812,2.513 0,2.513"
               style="fill:#ffffff;fill-opacity:1;fill-rule:nonzero;stroke:none"
               id="path4998" />
          </g>
          <g
             id="g5000"
             transform="translate(398.2035,200.5486)">
            <path
               d="m 0,0 0.186,0 0,-1.432 -1.47,-0.859 0,-0.666 1.47,0 0,-1.281 -4.994,0 0,2.198 c 0.007,1.968 2.369,2.326 3.225,1.059 L 0,0 Z m -3.666,-2.04 c -0.008,-0.301 0,-0.616 0,-0.917 l 1.248,0 0,0.917 c 0,0.694 -1.241,0.73 -1.248,0"
               style="fill:#ffffff;fill-opacity:1;fill-rule:nonzero;stroke:none"
               id="path5002" />
          </g>
        </g>
      </g>
      <g
         id="g5004"
         transform="translate(394.5371,204.3549)">
        <path
           d="m 0,0 0,-1.854 0.706,0 0,1.704 1.134,0 0,-1.704 0.878,0 0,1.918 1.134,0 0,-3.192 -4.993,0 0,3.128 L 0,0 Z"
           style="fill:#ffffff;fill-opacity:1;fill-rule:nonzero;stroke:none"
           id="path5006" />
      </g>
      <g
         id="g5008"
         transform="translate(394.5371,204.9328)">
        <path
           d="m 0,0 -1.141,0 0,3.723 1.141,0 0,-1.224 3.852,0 0,-1.268 L 0,1.231 0,0 Z"
           style="fill:#ffffff;fill-opacity:1;fill-rule:nonzero;stroke:none"
           id="path5010" />
      </g>
      <g
         id="g5012"
         transform="translate(394.5371,209.0331)">
        <path
           d="m 0,0 -1.141,0 0,3.723 1.141,0 0,-1.225 3.852,0 0,-1.267 L 0,1.231 0,0 Z"
           style="fill:#ffffff;fill-opacity:1;fill-rule:nonzero;stroke:none"
           id="path5014" />
      </g>
      <g
         id="g5016"
         transform="translate(397.2691,215.5814)">
        <path
           d="m 0,0 1.12,0 0,-2.541 -1.12,0 0,0.637 -2.761,0 0,-0.587 -1.112,0 0,2.441 1.112,0 0,-0.587 2.761,0 L 0,0 Z"
           style="fill:#ffffff;fill-opacity:1;fill-rule:nonzero;stroke:none"
           id="path5018" />
      </g>
      <g
         id="g5020"
         transform="translate(462.928,199.088)">
        <path
           d="m 0,0 -24.729,0 -0.029,-0.029 2.357,-2.366 0,0.002 16.704,0 5.643,2.339 L 0,0 Z"
           style="fill:#dbc500;fill-opacity:1;fill-rule:nonzero;stroke:none"
           id="path5022" />
      </g>
      <g
         id="g5024"
         transform="translate(438.1695,217.7271)">
        <path
           d="M 0,0 0,-0.006 0.004,0.004 0,0 Z"
           style="fill:#ffffff;fill-opacity:1;fill-rule:nonzero;stroke:none"
           id="path5026" />
      </g>
      <g
         id="g5028">
        <g
           id="g5030"
           clip-path="url(#clipPath5032)">
          <g
             id="g5036"
             transform="translate(438.1696,199.0586)">
            <path
               d="M 0,0 Z"
               style="fill:#dbc500;fill-opacity:1;fill-rule:nonzero;stroke:none"
               id="path5038" />
          </g>
        </g>
      </g>
      <g
         id="g5040"
         transform="translate(462.928,199.088)">
        <path
           d="m 0,0 -5.697,-2.393 -13.923,-13.949 0.019,0 5.808,2.525 L 0,0 Z"
           style="fill:#ffffff;fill-opacity:1;fill-rule:nonzero;stroke:none"
           id="path5042" />
      </g>
      <g
         id="g5044"
         transform="translate(462.9276,199.0881)">
        <path
           d="M 0,0 -0.054,-0.054 0.076,0 0,0 Z"
           style="fill:#dbc500;fill-opacity:1;fill-rule:nonzero;stroke:none"
           id="path5046" />
      </g>
      <g
         id="g5048"
         transform="translate(438.1398,199.0881)">
        <path
           d="M 0,0 0.03,-0.03 0.03,0 0,0 Z"
           style="fill:#dbc500;fill-opacity:1;fill-rule:nonzero;stroke:none"
           id="path5050" />
      </g>
      <g
         id="g5052"
         transform="translate(413.891,196.6996)">
        <path
           d="m 0,0 5.649,2.345 0.043,0.043 18.587,18.645 0.007,0.008 2.345,5.684 L 0,0 Z"
           style="fill:#ffffff;fill-opacity:1;fill-rule:nonzero;stroke:none"
           id="path5054" />
      </g>
      <g
         id="g5056"
         transform="translate(440.5229,182.7421)">
        <path
           d="M 0,0 -2.352,2.374 0,0 l 0.004,0 0,13.951 -2.357,2.365 0,-13.942"
           style="fill:#adafb2;fill-opacity:1;fill-rule:nonzero;stroke:none"
           id="path5058" />
      </g>
      <g
         id="g5060"
         transform="translate(438.1696,199.0586)">
        <path
           d="m 0,0 0,0 -2.362,-2.37 0,-13.946 0.011,0 L 0,-13.942 0,0 Z"
           style="fill:#ffffff;fill-opacity:1;fill-rule:nonzero;stroke:none"
           id="path5062" />
      </g>
      <g
         id="g5064"
         transform="translate(438.1696,217.7211)">
        <path
           d="m 0,0 0,0.006 -0.158,-0.16 -18.427,-18.479 0.06,0 18.495,0 -2.333,2.342 -10.52,0 -0.008,0 L -2.37,-5.746 0,0 Z"
           style="fill:#adafb2;fill-opacity:1;fill-rule:nonzero;stroke:none"
           id="path5066" />
      </g>
      <g
         id="g5068"
         transform="translate(438.1695,199.0881)">
        <path
           d="M 0,0 0,-0.03 0.029,0 0,0 Z"
           style="fill:#dbc500;fill-opacity:1;fill-rule:nonzero;stroke:none"
           id="path5070" />
      </g>
      <g
         id="g5072"
         transform="translate(438.1696,185.1166)">
        <path
           d="m 0,0 -2.351,-2.374 2.351,0 2.353,0 L 0,0 Z"
           style="fill:#dbc500;fill-opacity:1;fill-rule:nonzero;stroke:none"
           id="path5074" />
      </g>
      <g
         id="g5076">
        <g
           id="g5078"
           clip-path="url(#clipPath5080)">
          <g
             id="g5084"
             transform="translate(452.8309,155.541)">
            <path
               d="m 0,0 c -4.163,0 -7.921,1.728 -10.613,4.505 l 0,-3.188 c 0.584,-0.466 1.195,-0.89 1.83,-1.273 2.646,-1.596 5.694,-2.458 8.809,-2.458 4.487,0 8.571,1.745 11.625,4.591 L 9.966,3.868 C 7.335,1.465 3.837,0 0,0"
               style="fill:#dbc500;fill-opacity:1;fill-rule:nonzero;stroke:none"
               id="path5086" />
          </g>
          <g
             id="g5088"
             transform="translate(467.6442,170.4066)">
            <path
               d="M 0,0 C 0,4.52 -2.013,8.566 -5.188,11.293 L -6.955,9.52 c 0.006,-0.005 0.012,-0.009 0.018,-0.014 2.763,-2.287 4.529,-5.754 4.529,-9.628 0,-0.008 -0.002,-0.015 -0.002,-0.021 -0.005,-3.644 -1.582,-6.923 -4.085,-9.193 -0.002,-10e-4 -0.003,-0.003 -0.004,-0.004 l 1.652,-1.658 C -1.869,-8.279 0,-4.358 0,0"
               style="fill:#ffffff;fill-opacity:1;fill-rule:nonzero;stroke:none"
               id="path5090" />
          </g>
          <g
             id="g5092"
             transform="translate(462.797,159.409)">
            <path
               d="m 0,0 -1.652,1.658 c -2.195,-1.991 -5.103,-3.205 -8.288,-3.205 -1.854,0 -3.674,0.425 -5.327,1.217 -0.917,0.438 -1.787,0.987 -2.578,1.646 -1.102,0.92 -2.02,2.008 -2.734,3.211 l 0,-3.89 c 2.692,-2.777 6.45,-4.505 10.613,-4.505 3.837,0 7.335,1.465 9.966,3.868"
               style="fill:#adafb2;fill-opacity:1;fill-rule:nonzero;stroke:none"
               id="path5094" />
          </g>
          <g
             id="g5096"
             transform="translate(443.0872,167.9961)">
            <path
               d="m 0,0 c -0.012,-0.032 -0.019,-0.087 -0.019,-0.184 l 0,-17.563 c 0,-0.695 -0.009,-0.877 -0.214,-0.877 -0.184,0 -0.211,0.13 -0.274,0.856 -0.01,0.121 -1.047,12.3 -1.247,14.254 -0.119,1.155 -0.626,1.871 -1.322,1.871 -0.287,0 -0.588,-0.125 -0.867,-0.361 l -6.59,-5.847 c -0.527,-0.468 -0.605,-0.468 -0.671,-0.468 -0.066,0 -0.14,0.045 -0.166,0.106 -0.048,0.107 -0.049,0.183 0.45,0.751 l 5.824,6.615 c 0.425,0.486 0.56,1.041 0.359,1.484 -0.26,0.579 -1.038,0.909 -2.139,0.909 L -19.203,2.02 c -0.714,0.028 -0.865,0.041 -0.865,0.236 0,0.005 0.003,0.009 0.003,0.012 0,0.005 -0.003,0.008 -0.003,0.012 0,0.196 0.151,0.209 0.865,0.237 l 12.327,0.474 c 1.101,0 1.879,0.331 2.139,0.909 0.201,0.443 0.066,0.998 -0.359,1.485 L -10.92,12 c -0.499,0.567 -0.498,0.644 -0.45,0.75 0.026,0.062 0.1,0.108 0.166,0.108 0.066,0 0.144,0 0.671,-0.469 l 6.59,-5.847 c 0.279,-0.236 0.58,-0.362 0.867,-0.362 0.696,0 1.203,0.718 1.322,1.871 0.2,1.954 1.237,14.133 1.247,14.255 0.063,0.725 0.09,0.855 0.274,0.855 0.205,0 0.214,-0.182 0.214,-0.875 l 0,-17.565 C -0.019,4.625 -0.012,4.569 0,4.538 L 0,0 Z"
               style="fill:#ffffff;fill-opacity:1;fill-rule:nonzero;stroke:none"
               id="path5098" />
          </g>
          <g
             id="g5100"
             transform="translate(462.3513,167.4105)">
            <path
               d="m 0,0 c -0.088,-0.09 -0.234,-0.235 -0.321,-0.323 l -1.151,-1.155 c -0.088,-0.089 -0.16,-0.264 -0.16,-0.39 l 0,-0.446 c 0,-0.126 -0.09,-0.278 -0.199,-0.34 l -2.076,-1.173 c -0.11,-0.062 -0.302,-0.114 -0.425,-0.114 l -0.421,0 c -0.125,0 -0.227,0.104 -0.227,0.23 l 0,0.399 c 0,0.125 -0.062,0.29 -0.139,0.367 -0.074,0.076 -0.137,0.241 -0.137,0.366 l 0,0.168 c 0,0.126 0.072,0.301 0.16,0.39 l 0.23,0.23 c 0.089,0.089 0.161,0.265 0.161,0.389 l 0,1.162 c 0,0.125 0.074,0.301 0.162,0.389 l 0.347,0.35 c 0.089,0.088 0.162,0.264 0.162,0.39 l 0,0.428 c 0,0.125 -0.065,0.292 -0.141,0.369 -0.079,0.079 -0.142,0.245 -0.142,0.37 l 0,0.835 c 0,0.126 -0.101,0.229 -0.227,0.229 l -1.127,0 c -0.126,0 -0.3,0.073 -0.389,0.161 l -1.353,1.358 c -0.088,0.089 -0.161,0.265 -0.161,0.39 l 0,0.887 c 0,0.127 0.073,0.302 0.161,0.391 l 0.595,0.596 c 0.087,0.089 0.263,0.162 0.388,0.162 l 0.285,0 c 0.126,0 0.301,0.073 0.39,0.162 l 0.594,0.597 c 0.089,0.089 0.264,0.161 0.389,0.161 l 0.884,0 c 0.124,0 0.299,-0.072 0.389,-0.161 l 0.278,-0.278 c 0.088,-0.09 0.263,-0.162 0.388,-0.162 l 0.709,0 c 0.124,0 0.227,0.102 0.227,0.227 l 0,0.039 c 0,0.126 -0.073,0.302 -0.16,0.39 L -2.46,8.443 c -0.088,0.089 -0.232,0.089 -0.321,0 L -2.794,8.43 C -2.884,8.34 -3.057,8.267 -3.182,8.267 l -0.039,0 -0.455,0 -0.215,0 c -0.126,0 -0.228,0.104 -0.228,0.23 l 0,0.162 c 0,0.125 -0.101,0.229 -0.227,0.229 l -0.003,0 -0.36,0 c -0.073,0 -0.205,-0.073 -0.294,-0.162 L -5.509,8.217 C -5.598,8.129 -5.772,8.056 -5.898,8.056 l -0.461,0 c -0.125,0 -0.301,0.073 -0.39,0.161 L -6.92,8.389 c -0.088,0.09 -0.16,0.264 -0.16,0.391 l 0,0.259 c 0,0.126 0.102,0.229 0.226,0.229 l 0.489,0 c 0.125,0 0.296,0.068 0.378,0.149 0.082,0.084 0.22,0.224 0.311,0.313 l 0.074,0.075 c 0.088,0.089 0.161,0.264 0.161,0.389 l 0,0.34 c 0,0.127 -0.073,0.302 -0.161,0.39 l -0.153,0.155 c -0.089,0.089 -0.234,0.089 -0.322,0 l -0.084,-0.084 c -0.089,-0.09 -0.234,-0.09 -0.322,0 l -0.506,0.509 c -0.09,0.089 -0.162,0.264 -0.162,0.39 l 0,0.003 c 0,0.125 0.102,0.228 0.227,0.228 l 0.85,0 c 0.125,0 0.327,-0.02 0.45,-0.045 l 1.412,-0.285 c -0.987,0.594 -2.082,1.027 -3.246,1.265 l 0,-0.195 c 0,-0.126 -0.104,-0.228 -0.227,-0.228 l -0.286,0 c -0.125,0 -0.301,-0.074 -0.389,-0.163 l -0.277,-0.278 c -0.089,-0.089 -0.264,-0.162 -0.389,-0.162 l -0.145,0 c -0.124,0 -0.228,0.103 -0.228,0.229 l 0,0.605 c 0,0.126 -0.052,0.28 -0.113,0.342 -0.015,0.017 -0.027,0.036 -0.031,0.057 -0.317,0 -0.627,-0.018 -0.935,-0.046 l 0,-0.107 c 0,-0.125 -0.071,-0.301 -0.16,-0.389 l -0.172,-0.172 c -0.09,-0.089 -0.264,-0.162 -0.39,-0.162 l -0.248,0 -0.455,0 -0.358,0 c -0.124,0 -0.299,-0.072 -0.387,-0.162 l -0.524,-0.526 c -0.09,-0.088 -0.09,-0.234 0,-0.323 l 0.259,-0.26 c 0.088,-0.089 0.233,-0.089 0.321,0 l 0.367,0.365 c 0.089,0.091 0.256,0.163 0.373,0.163 0.116,0 0.211,0.087 0.211,0.194 0,0.107 0.103,0.195 0.228,0.195 l 0.25,0 c 0.125,0 0.227,-0.103 0.227,-0.228 l 0,-0.747 c 0,-0.125 -0.102,-0.228 -0.227,-0.228 l -0.215,0 c -0.125,0 -0.3,-0.073 -0.389,-0.161 l -0.277,-0.28 c -0.088,-0.088 -0.264,-0.16 -0.388,-0.16 l -0.181,0 c -0.125,0 -0.299,-0.074 -0.388,-0.162 l -1.37,-1.375 c -0.089,-0.089 -0.161,-0.265 -0.161,-0.39 l 0,-0.322 c 0,-0.126 -0.102,-0.229 -0.228,-0.229 l -0.039,0 c -0.124,0 -0.3,0.073 -0.388,0.162 l -0.402,0.402 c -0.087,0.089 -0.263,0.162 -0.388,0.162 l -0.62,0 c -0.125,0 -0.299,-0.073 -0.389,-0.162 l -0.515,-0.517 c -0.089,-0.089 -0.089,-0.233 0,-0.323 l 0.41,-0.411 c 0.088,-0.09 0.233,-0.161 0.319,-0.161 0.088,0 0.159,-0.104 0.159,-0.229 l 0,-0.145 c 0,-0.126 -0.064,-0.291 -0.142,-0.369 -0.076,-0.079 -0.068,-0.215 0.021,-0.303 l 0.33,-0.332 c 0.089,-0.09 0.162,-0.254 0.162,-0.366 0,-0.111 0.072,-0.276 0.16,-0.365 l 0.233,-0.234 c 0.089,-0.089 0.233,-0.089 0.322,0 l 0.446,0.447 c 0.088,0.088 0.262,0.161 0.389,0.161 l 0.885,0 c 0.124,0 0.299,-0.073 0.387,-0.161 l 0.507,-0.508 c 0.088,-0.09 0.263,-0.162 0.387,-0.162 l 0.058,0 c 0.125,0 0.299,-0.074 0.387,-0.161 l 0.87,-0.872 c 0.088,-0.089 0.16,-0.264 0.16,-0.389 l 0,-0.42 c 0,-0.126 0.103,-0.228 0.228,-0.228 l 0.999,0 c 0.126,0 0.228,-0.103 0.228,-0.228 l 0,-1.206 c 0,-0.127 -0.072,-0.302 -0.16,-0.391 l -0.525,-0.525 c -0.089,-0.09 -0.161,-0.265 -0.161,-0.39 l 0,-0.394 c 0,-0.125 -0.072,-0.301 -0.162,-0.389 l -1.141,-1.145 c -0.088,-0.09 -0.233,-0.234 -0.321,-0.323 l -0.789,-0.792 c -0.088,-0.089 -0.162,-0.264 -0.162,-0.39 l 0,-0.605 c 0,-0.125 -0.102,-0.228 -0.228,-0.228 l -0.143,0 c -0.126,0 -0.3,0.072 -0.389,0.161 l -0.753,0.757 c -0.089,0.089 -0.162,0.264 -0.162,0.389 l 0,1.578 c 0,0.125 -0.072,0.302 -0.159,0.39 l -0.023,0.023 c -0.088,0.088 -0.161,0.264 -0.161,0.389 l 0,1.145 c 0,0.126 -0.072,0.301 -0.16,0.389 l -0.927,0.929 c -0.088,0.089 -0.16,0.265 -0.16,0.39 l 0,1.44 c 0,0.126 0.072,0.302 0.16,0.39 l 0.042,0.042 c 0.089,0.088 0.089,0.235 0,0.323 l -0.23,0.233 c -0.089,0.089 -0.265,0.161 -0.39,0.161 l -0.109,0 c -0.124,0 -0.227,0.102 -0.227,0.229 l 0,0.852 c 0,0.126 -0.073,0.301 -0.162,0.39 l -0.911,0.915 c -0.09,0.089 -0.162,0.264 -0.162,0.39 l 0,1.207 0,0.077 c -1.03,-1.618 -1.636,-3.536 -1.636,-5.599 0,-4.204 2.483,-7.823 6.055,-9.469 -0.042,0.075 -0.033,0.167 0.04,0.241 l 0.374,0.375 c 0.105,0.106 0.315,0.194 0.465,0.194 l 0.467,0 c 0.15,0 0.273,-0.115 0.273,-0.255 0,-0.139 0.121,-0.253 0.272,-0.253 l 1.31,0 c 0.151,0 0.361,-0.087 0.464,-0.193 l 0.355,-0.355 c 0.105,-0.106 0.314,-0.193 0.465,-0.193 l 0.109,0 c 0.149,0 0.358,0.087 0.464,0.193 l 0.301,0.302 c 0.105,0.105 0.315,0.192 0.465,0.192 l 1.3,0 c 0.149,0 0.36,-0.087 0.465,-0.192 l 0.2,-0.202 c 0.062,-0.063 0.071,-0.13 0.044,-0.185 3.315,1.196 5.847,4.038 6.618,7.545 L 0,0 Z m -7.32,10.923 c 0.075,0.077 0.203,0.076 0.28,-0.002 l 0.119,-0.12 c 0.078,-0.077 0.204,-0.204 0.281,-0.282 l 0.135,-0.136 c 0.078,-0.077 0.141,-0.231 0.141,-0.341 l 0,-0.126 c 0,-0.111 -0.09,-0.2 -0.198,-0.2 l -0.065,0 c -0.11,0 -0.234,0.083 -0.274,0.185 l -0.144,0.357 c -0.042,0.102 -0.138,0.249 -0.216,0.326 l -0.057,0.059 c -0.079,0.078 -0.079,0.204 -0.002,0.28 m -0.424,-0.747 -0.035,0.043 c -0.094,0.115 -0.049,0.21 0.1,0.21 l 0.13,0 c 0.149,0 0.27,-0.105 0.27,-0.232 0,-0.126 -0.067,-0.231 -0.147,-0.231 -0.08,0 -0.223,0.094 -0.318,0.21"
               style="fill:#009ac7;fill-opacity:1;fill-rule:nonzero;stroke:none"
               id="path5102" />
          </g>
        </g>
      </g>
      <g
         id="g5104"
         transform="translate(438.1696,217.7211)">
        <path
           d="m 0,0 -2.37,-5.746 0.008,0.008 0,-10.553 -10e-4,0 2.333,-2.342 0.03,0 L 0,0 Z"
           style="fill:#ffffff;fill-opacity:1;fill-rule:nonzero;stroke:none"
           id="path5106" />
      </g>
      <g
         id="g5108">
        <g
           id="g5110"
           clip-path="url(#clipPath5112)">
          <g
             id="g5116"
             transform="translate(464.0501,183.2676)">
            <path
               d="m 0,0 c -0.006,0.005 -0.012,0.009 -0.016,0.014 -2.533,2.205 -5.711,3.68 -9.209,4.085 -0.06,0.006 -0.117,0.015 -0.176,0.022 L -9.428,4.109 c 0.001,0.004 0.007,0.014 0.007,0.014 l 11.685,11.697 2.34,2.343 -0.001,0 -3.387,0 -24.734,0 -0.006,0 0,21.998 -0.004,-0.004 -2.345,-5.684 0.498,0.499 -0.502,-0.509 -0.003,-0.009 0,-18.634 0.029,0 24.729,0 -0.054,-0.053 -13.983,-14.007 0.825,0.244 3.05,-0.245 c 3.675,0 7.102,-1.103 9.69,-3.327 3.175,-2.727 5.188,-6.773 5.188,-11.293 0,-4.358 -1.869,-8.279 -4.847,-10.998 l 1.684,-1.69 c 0.003,0.002 0.004,0.003 0.006,0.004 3.354,3.131 5.461,7.592 5.466,12.541 0,0.006 0.002,0.013 0.002,0.021 C 5.905,-7.804 3.614,-3.154 0,0"
               style="fill:#adafb2;fill-opacity:1;fill-rule:nonzero;stroke:none"
               id="path5118" />
          </g>
          <g
             id="g5120"
             transform="translate(452.8309,185.2712)">
            <path
               d="m 0,0 -3.345,0 -0.351,0 -5.808,-2.525 9.53,0 c 2.97,0 5.698,-1.058 7.833,-2.82 l 1.766,1.774 C 7.037,-1.347 3.676,0 0,0"
               style="fill:#dbc500;fill-opacity:1;fill-rule:nonzero;stroke:none"
               id="path5122" />
          </g>
        </g>
      </g>
      <g
         id="g5124"
         transform="translate(438.1696,199.0586)">
        <path
           d="m 0,0 -0.03,0.029 -18.555,0 -5.694,-2.388 -0.004,-0.005 3.311,0 18.61,0 0,-0.006 L 0,0 Z"
           style="fill:#dbc500;fill-opacity:1;fill-rule:nonzero;stroke:none"
           id="path5126" />
      </g>
    </g>
  </g>
</svg>
