<svg xmlns="http://www.w3.org/2000/svg" viewBox="0 0 234 220"><defs><style>.cls-1{opacity:0.01;}.cls-2{fill:#fff;}.cls-3{fill:#e0d5c0;}.cls-4{fill:#91c020;}.cls-5{fill:#f49849;}.cls-6{fill:#c6c6c6;}.cls-7{fill:#ffd571;}.cls-8{fill:#ef7e70;}.cls-9{fill:#1a1a1a;}</style></defs><title>1</title><g id="Layer_2" data-name="Layer 2" class="cls-1"><rect class="cls-2" width="234" height="220"/></g><g id="_1_Choose" data-name="1 Choose"><path class="cls-3" d="M45.55,74.19c6.78,1.69,11.86.85,4.23,5.5C41.71,84.63,40,90.28,40,90.28l.42,42.34s-1,5.56,9.74,9.31,49.12,14.4,49.12,14.4c13.13,1.69,16.5-1.27,27.94-10.58,0,0,33.88-21.59,39.38-25s6.35-3.81,7.2-10.16S173.84,92,184,90.29s42.76-1.27,39,15.25c-1.34,5.73-14,14-25.42,21.59s-6,10.48,1.69,17.36c15.69,14-30,14.9-44.86,21.59-20.75,9.31-.18,16.95-18.63,22.44-17.63,5.25-41.72,3.18-58,.42-62.67-10.58-50.4-19.9-36.41-33.45,5.48-5.31-19.9-8.47-29.21-18.63s19.9-17.78,19.05-25c-.41-3.49-12.71-16.95-8-24.56C28.06,79.23,42,73.3,45.55,74.19Z"/><path class="cls-4" d="M81.3,40.06c-1,2-1.34.66-1.11,2.88s-.33,1.55.45,3.43.45,3.32,2.23,3.87,3.76,1.11,5.75-.33a27.34,27.34,0,0,0,4.54-5.09s-1.44-4.76-1.66-6.09-.78-1.22-1.55-1.88-4.09.55-4.09.55S82.31,38.07,81.3,40.06Z"/><path class="cls-4" d="M111.86,41.05c-1.78-.45-2.12-.72-3.12.51s-.82.72-2.23,1.74-1,1.05-1.83,1.59l-.85.53a6.53,6.53,0,0,0-1.72,1.16c-.72.72,0,1.34-.72,1.44a3.66,3.66,0,0,0-1.34.51l-1.23.82L99.94,51l2.87-.41,1.85.4,4.16-.64,3.42-1.18a30.41,30.41,0,0,0,3.08-1.74,17.71,17.71,0,0,0,2.26-2.56l1.13-1.34A3.74,3.74,0,0,0,116,42.38a4.62,4.62,0,0,1-2.36-.51Z"/><path class="cls-5" d="M107.26,46.77a1.82,1.82,0,0,0-1.28.5l.1,1.48a4.76,4.76,0,0,1,1.68-.79c1.08-.29,1.58.89,1.78-.59S107.26,46.77,107.26,46.77Z"/><path class="cls-5" d="M113.19,46.38c-1.28-.4-1-.89-1.48,0s-.4,1.19-.1,1.48-.69-.2.29.29,1,.59,1.48.29.59-1.19.59-1.19Z"/><path class="cls-5" d="M114.67,42.53c-1.28.2-1.28.1-1.48.59s.2.59.69.89a1.32,1.32,0,0,0,1.58.1,3.07,3.07,0,0,0,.59-.4c.5-.4.69-.69,0-.89A11.82,11.82,0,0,0,114.67,42.53Z"/><path class="cls-5" d="M111.22,40.35a1.84,1.84,0,0,0-.69,1.19,1.47,1.47,0,0,0,1.09.5c.69,0,1,0,1.19-.29a.6.6,0,0,0,0-.79,1.87,1.87,0,0,0-.79-.5l-1.19-.1"/><path class="cls-5" d="M104.3,46.18c-.89.2-1,.2-1.09,1.09s-.29,1.38.5.89.89-1,1.19-1.19S104.3,46.18,104.3,46.18Z"/><path class="cls-6" d="M98.57,45.78c.84,0-.1-1-.1-1s2-.1,2.37-.79a4.63,4.63,0,0,0,.4-1.88s-.79-2-.29-2.37.5-.89,1.09-.29a2,2,0,0,1,.89,1.68c.2,1.19.29,1.28.4,2.17s.2.79-.59,1.58a8.86,8.86,0,0,1-2,1.38S98.28,45.78,98.57,45.78Z"/><path class="cls-7" d="M89.58,61.39c.5-.5.5-.79,1.38-.79a17.91,17.91,0,0,0,2.17-.2s1.09.2,2.37-2,.89-2.27,1.88-2.47,5.93-.29,5.93-.29,9.88-2.37,12-3.16,4.94-3.16,2.77,1.28c-.62,1.25-1.09,2.68.5,2.47a4.35,4.35,0,0,0,2.57-1.38l2.68-3.16,2.07-2.57.89-.59,2.27.59s1.48.69,1.38,3.26,1.78,2.47-.1,4.15-1.38,1.88-5.83,3.76-29.05,9-30.73,8.59a4.14,4.14,0,0,1-3.16-3.16C90.37,64.36,89.58,61.39,89.58,61.39Z"/><path class="cls-6" d="M125.84,43.81c1-.29,2.27-.29,2.07.59s1.28,0-1.19,2-2.68,2.07-3.66,4-3.36,5.35-4,5.14-1.09-1.09.4-2.57a37.29,37.29,0,0,0,5-5.53C125.53,45.68,125.42,43.94,125.84,43.81Z"/><path class="cls-5" d="M134.63,82.63c-1.28-.2-1.48-.29-2.17.29a5,5,0,0,0-1.09,1.38s-1.09,1.48.4,1.58,1.58.5,2.37-.2,1.38-1.28,1.38-1.28Z"/><path class="cls-4" d="M126.72,87.28c-1.28-.69-2-.5-2.27-.2s-.69.5-.5,1.28,0,2,1.09,1.58a7.52,7.52,0,0,0,1.88-.79,5.22,5.22,0,0,0,.89-1.09Z"/><path class="cls-4" d="M64,88.16c.5-1.09,1.09-1.78,2.07-1.78a4.18,4.18,0,0,1,2.68.4c.89.59,1.78.4,1.88,1.68s1.68,2.27-.5,2.17A17.48,17.48,0,0,1,65.29,90C64.3,89.64,64,88.16,64,88.16Z"/><path class="cls-4" d="M67.85,81.33a2.94,2.94,0,0,1,2.47-1.38c1.38-.1,2-.4,2.47.69A23.14,23.14,0,0,1,73.68,83s-2-.1-3.36-.29A4.79,4.79,0,0,1,67.85,81.33Z"/><path class="cls-4" d="M71.8,76.42c.4-.29.5-1,1.78-1s1.38-.4,2.47.2,2.07,1.09,1.48,1.88-.89.69-2.68.4A6.62,6.62,0,0,1,71.8,76.42Z"/><path class="cls-4" d="M169.1,72.26c-.1-4.35-1.78-4.64-1.78-4.64s-2-1.38-3.26-1,.29,1.68,1.28,2.86,1.58,1,.89,1.78S112.52,101.7,108,104.47s-4,1.88-6.42,1.78S73.08,99.14,68.44,98s-20.65-7-21.34-8.89,2.47-1.88,4.54-3.26,4.84-3,7-4.64,1.38-2.37.59-3.26-13.73,9.19-14.42,10l.5,12.45S44.73,134,46,135.69s49,13.53,51.07,14.52S104.3,153,104.3,153s61.45-36.95,64.31-39.12S169.2,76.61,169.1,72.26ZM93.93,127.57a24.2,24.2,0,0,1-5.73,2.77A8.5,8.5,0,0,1,80.39,129c-2.57-1.68-7.41-2.37-10-1.09s-.89.69-2.68-1.28-7.1-2.94-9.29-3.36-2.07,0-3.36-3.16c-.89-2.2.1-2-.79-4.46s-3.06-2.27-3.06-3.16.5,0,2-.29,2.17-1.78,4.25-3.66,2.68-1.28,4.84-1.09,3.76,1,6.62.69l2.68-1a3.53,3.53,0,0,0,.4,1.68c.5,1.28,4.25,1.58,4.94,1.68s3.46.89,5.73,1.48,4,2.77,5.14,3.76,3.21,2.4,3.4,4.86S95,126,95,126Z"/><path class="cls-6" d="M76.93,119.88c-3.16-1-14.22-5.35-15.51-4.94s-2.57.5-2.37,1.58-.2,2.17,3.16,2.86,8.2.79,10.08,1.28,3.57.2,4.35,1.58.1,2.86,1.78,3.46,6.91,2.17,7.51,1.68.59-1-.2-1.09-4.15-.4-4-1.09-.2-1.48,1-1.38,4.94,1.19,5.24,1-1.09-1.28-1.09-1.28-3.26-.89-3.76-1.48a.94.94,0,0,1,0-1.19,14.72,14.72,0,0,0,3.06.59,10.16,10.16,0,0,1,2,.2s.2-.79-1.48-1.28-3.26-1.09-3.26-1.09.4-.29-1.68-.1a24.4,24.4,0,0,0-3.26.5Z"/><path class="cls-3" d="M121.82,28.28C119.14,29.18,99,34.53,99,34.53s-5.21.75-4.74,2.31,1.73,1.72,3.8,1.26,4.74-2.31,5.64-.37-.67,5.35,2,3.68,3.46-3.26,6.19-3,3.82,1.85,6.34,2.17,3,2.47,4.84,1,3.25-3.06,3-5.41-1.82-4.28-1.63-5.47C124.76,28.59,121.82,28.28,121.82,28.28Z"/><path class="cls-8" d="M89.79,122.36A6.36,6.36,0,0,0,88,118.51c-1.17-1.08-1.28-1.88-2.47-2.57l-3.06-1.78a31.29,31.29,0,0,0-3.36-1.28,20.25,20.25,0,0,1-3.85-1c-1-.49-2.27-1.09-2.57-1.28a9,9,0,0,1-1-1l-.79.4c-2,.59-6.42-1.48-9-1.19s-2.88,0-4.54,2c-2.41,2.89-4,1.57-2.09,4.33,1.3,1.9.12,2.23,1.62,4.73,1.06,1.78,1.16,1.42,3.63,2.31a39.08,39.08,0,0,0,4.94,1.38c1.87.49,2.37.26,3,1.74a1.29,1.29,0,0,0,1.34.72,8.66,8.66,0,0,1,3.6.12,46.66,46.66,0,0,1,8.26,2.75c1.68.89,5.35.5,5.35.5s5.15-2.33,5.35-3S90,123.63,89.79,122.36Zm-3.71,6c-1,.48-4.27-.92-4.27-.92a15.42,15.42,0,0,1-3.88-2c-1.37-1.16-.74-1.48-1.48-2.64s-2.23-.63-3.49-1.16-4.66-.21-7.52-.63-3.71-.21-5.93-2.23-1.16-2.23-.11-3.92,2.64-.53,5-.11,7.1,3.17,11.44,4.54,3.71-1,6.28-1a8.53,8.53,0,0,1,6.52,2.35s.58,1.34,0,1.69-2.39-.2-2.76-.24c-.73-.08.33.77,1,1s1.9,1.06,2,1.06c-.42-.07.18,1.15-1.62.92s-3.64-.93-3.64-.45c0,.66,3.07,1.2,3.51,1.53a1.64,1.64,0,0,1,.48,1.12c.11.13-.89.84-1.45,1.11Z"/><path class="cls-9" d="M104.36,149.57c0-.6,0-1.19,0-1.78s0-1.45,0-2.17v-1.08a11.57,11.57,0,0,1,.12-2.11,5.64,5.64,0,0,0,.07-.7c0-.51,0-1,.07-1.53a9.05,9.05,0,0,0,0-1.08c-.05-.66-.05-1.34-.11-2-.07-.83,0-1.66-.11-2.49s-.11-1.49-.17-2.23v-.25c0-.89-.06-1.78-.12-2.68,0-.7-.06-1.4-.09-2.11s-.07-1.4-.1-2.11v-.7c0-1.13.08-2.26.1-3.39s0-2.09-.05-3.12v-.25c0-1.45,0-2.9.16-4.34a6.3,6.3,0,0,1,.08-.63,4,4,0,0,0,.05-1.15,13.27,13.27,0,0,1,0-1.92.3.3,0,0,1,.05-.18.21.21,0,0,1,.16-.07.31.31,0,0,1,.27.24,4.3,4.3,0,0,1,.13.75c0,.7.05,1.4.06,2.11a11.46,11.46,0,0,1-.13,1.53,12.33,12.33,0,0,0-.09,2.68,3.32,3.32,0,0,1,0,.45,18.06,18.06,0,0,0,.12,2.61,4.94,4.94,0,0,1,0,.58c0,.64,0,1.28-.05,1.92a13.07,13.07,0,0,0,0,1.4c0,.45,0,.89,0,1.34,0,.28,0,.55,0,.83a2.79,2.79,0,0,1,0,.32c0,.64.08,1.28.08,1.91a6.11,6.11,0,0,0,.07.63c.09.85.12,1.7.18,2.55.08,1.15.08,2.3.2,3.44.06.57.09,1.15.1,1.72s.09,1.4.12,2.11a31.61,31.61,0,0,1,0,3.64c0,.58-.07,1.15-.11,1.72a3.23,3.23,0,0,1-.07.5,3.19,3.19,0,0,0-.06,1,15.35,15.35,0,0,1,0,2c0,.47,0,.94-.05,1.4q0,1-.06,2a5.56,5.56,0,0,0,0,1.21.13.13,0,0,0,.15.12h0l.33-.2c1-.68,2-1.34,3-2.06q1-.74,2.13-1.41a17.15,17.15,0,0,1,1.71-.89c.62-.29,1.23-.59,1.82-.94l2.39-1.34.49-.3a11.19,11.19,0,0,1,1-.59,3.71,3.71,0,0,0,.58-.39l3.3-2.42c.54-.39,1.06-.79,1.61-1.16s1.14-.74,1.72-1.11l.33-.2a17.3,17.3,0,0,1,2-1.34c.62-.38,1.25-.74,1.86-1.12s1.47-.95,2.19-1.44c2.13-1.46,4.27-2.89,6.45-4.27.89-.57,1.83-1.1,2.74-1.65s1.75-1.06,2.62-1.6l1.89-1.2,1.74-1.09a1.26,1.26,0,0,1,.28-.15,4.74,4.74,0,0,0,1-.54l1.82-1.07c.79-.45,1.58-.92,2.36-1.4,1.26-.77,2.55-1.47,3.86-2.14l.68-.36,2.1-1.09,2.48-1.34.68-.35L163,117a10.22,10.22,0,0,1,1.16-.66,7.83,7.83,0,0,0,1.14-.7,14.72,14.72,0,0,1,2.18-1.21,13.06,13.06,0,0,0,1.23-.68.62.62,0,0,0,.29-.4,1.52,1.52,0,0,0,0-.63,9.2,9.2,0,0,1,0-2c0-.25,0-.51,0-.77v-1.34c0-.85.07-1.7,0-2.56s0-1.83,0-2.75v-2.68a4.91,4.91,0,0,0,0-.64,1.25,1.25,0,0,0,0-.32c0-.79,0-1.57-.07-2.36s-.07-1.53-.1-2.3v-.13c0-.89,0-1.78-.08-2.68,0-1.3,0-2.6-.21-3.89-.07-.51-.17-1-.27-1.51A14,14,0,0,1,168,85c0-.19,0-.38,0-.58a4.74,4.74,0,0,1,0-.51c0-.38.08-.76.1-1.15.06-.94.1-1.87.16-2.81a4.6,4.6,0,0,1,0-.57,13.69,13.69,0,0,0,.14-1.72v-.45c0-.53,0-1.07-.07-1.6s0-.94,0-1.4,0-.85,0-1.28v-.7c0-.62,0-1.24.07-1.86a8.9,8.9,0,0,1,.13-1.08.45.45,0,0,0-.1-.36,10,10,0,0,0-1.13-1.21,1.07,1.07,0,0,0-.74-.33h-.19a1.39,1.39,0,0,1-.89-.45c-.1-.11-.21-.22-.29-.33s-.3-.41-.45-.62a.11.11,0,0,1,0-.09.49.49,0,0,1,.53.14.94.94,0,0,0,.79.34l.38,0a1.23,1.23,0,0,1,.64.28,18,18,0,0,1,1.65,1.5,3.5,3.5,0,0,1,.45.62,1.68,1.68,0,0,1,.19,1.29,5.15,5.15,0,0,0-.11,1c0,.62,0,1.24-.06,1.86v.32c0,.81.06,1.62.08,2.43v.64a11.22,11.22,0,0,0,0,1.34,7.14,7.14,0,0,1,0,1.08c-.07,1.56-.15,3.12-.22,4.67v.45a13.92,13.92,0,0,0,.33,4,9.06,9.06,0,0,1,.24,1.9A10.12,10.12,0,0,0,169.8,91c.05.45,0,.89.05,1.34,0,.62,0,1.24.08,1.85l.05,1.08c0,.62.07,1.24.1,1.85,0,.23,0,.45,0,.7a10.34,10.34,0,0,0,0,1.34,5.08,5.08,0,0,1,0,.51c0,.36,0,.72,0,1.08v2.87c0,2,.07,3.92,0,5.88a2.37,2.37,0,0,0,0,.38,12.25,12.25,0,0,1,0,1.73,9.51,9.51,0,0,0,0,1.66.5.5,0,0,1-.21.5,1.29,1.29,0,0,0-.38.5,2.08,2.08,0,0,1-.77.84,5.54,5.54,0,0,1-1.14.58.38.38,0,0,0-.24.19.94.94,0,0,1-.7.5,7.83,7.83,0,0,1-1,.31.6.6,0,0,0-.23.1c-.31.18-.63.36-.93.56a2.44,2.44,0,0,0-.68.57,1.78,1.78,0,0,1-.56.41l-1.63.89c-.66.33-1.34.65-2,1s-1.52.78-2.27,1.17l-.79.41a26.3,26.3,0,0,0-2.61,1.49,21.45,21.45,0,0,1-2.52,1.39,22.9,22.9,0,0,0-2.5,1.43l-1,.66L144.42,129c-.73.45-1.47.86-2.21,1.29-.29.17-.58.36-.87.54l-.49.31c-1.87,1.11-3.7,2.28-5.5,3.5L130.42,138c-.76.5-1.55,1-2.32,1.47a2.91,2.91,0,0,0-.64.52c-.33.37-.7.69-1,1a.93.93,0,0,1-.39.21,2.56,2.56,0,0,0-.53.22,2.4,2.4,0,0,1-.58.25,2.92,2.92,0,0,0-.84.45l-1,.66-1.53.94-.22.12a7.07,7.07,0,0,0-1.6,1A11.64,11.64,0,0,1,118,146l-3.5,2c-.28.16-.57.3-.86.45-.82.37-1.61.77-2.4,1.21-.54.3-1.1.56-1.63.89a13.93,13.93,0,0,0-2.16,1.69,6.66,6.66,0,0,1-1,.8,1.84,1.84,0,0,1-.89.34.41.41,0,0,0-.4.26.45.45,0,0,1-.28.25,2,2,0,0,1-1.13,0,1.27,1.27,0,0,1-.39-.21.89.89,0,0,0-.59-.19,1.34,1.34,0,0,1-.84-.25c-.45-.27-.93-.51-1.4-.77a2.23,2.23,0,0,0-.78-.28,2.19,2.19,0,0,1-.84-.29,9.81,9.81,0,0,0-1.46-.63c-.79-.31-1.61-.58-2.4-.89a22.77,22.77,0,0,0-3.06-.91c-1.24-.29-2.5-.55-3.75-.81a10.66,10.66,0,0,1-1.9-.57,16.5,16.5,0,0,0-2.23-.72c-.77-.19-1.53-.4-2.27-.66-1-.34-2-.61-3-.86-1.78-.45-3.57-.92-5.29-1.5-.54-.18-1.09-.38-1.62-.59a19.42,19.42,0,0,0-3.2-.89c-.94-.19-1.88-.4-2.8-.65a19.3,19.3,0,0,1-2.3-.78,2.43,2.43,0,0,0-.3-.12,27.79,27.79,0,0,0-3.21-.86,20.24,20.24,0,0,1-2.85-.71,19.66,19.66,0,0,0-2.36-.59c-.48-.1-1-.13-1.45-.21a6.45,6.45,0,0,1-.69-.16c-.76-.21-1.52-.41-2.27-.66a5,5,0,0,0-1.37-.28,4,4,0,0,1-1.3-.29L46.44,137a3.36,3.36,0,0,1-.83-.45,2.36,2.36,0,0,0-.91-.45.8.8,0,0,1-.58-.45c-.07-.13-.15-.26-.21-.39a1.05,1.05,0,0,1-.08-.84,7,7,0,0,0,.17-1.59c0-.38,0-.77,0-1.15a11.76,11.76,0,0,0,0-1.53c-.06-.57-.08-1.15-.11-1.72s0-1-.09-1.47a15.68,15.68,0,0,1,0-1.66c0-.45,0-.89,0-1.34s0-.85,0-1.28,0-.72,0-1.08v-.64c0-.3,0-.59,0-.89v-3.13q0-.87,0-1.73c0-1,.06-2,.05-3a18.56,18.56,0,0,1,.13-2.55c0-.36.05-.72.07-1.08,0-.77.08-1.53.11-2.3,0-.4,0-.81,0-1.21s0-.72,0-1.09v-1.21a18.49,18.49,0,0,1,.14-2.68,7.83,7.83,0,0,0,.06-1.59,16.28,16.28,0,0,1,0-1.92c0-.68-.06-1.36-.07-2a1.5,1.5,0,0,0,0-.32c-.14-.62-.19-1.26-.28-1.9a5,5,0,0,1,0-.77c0-.38,0-.77.05-1.15a4.78,4.78,0,0,0,0-1.08A2.92,2.92,0,0,1,44,87.91a1,1,0,0,1,.45-.6,10.37,10.37,0,0,0,1.78-1.46,7.28,7.28,0,0,1,1.2-1c.51-.32,6.61-4,7.07-4.33l1.14-.92a10.7,10.7,0,0,1,1.15-.81c.4-.24.8-.5,1.18-.77a13.08,13.08,0,0,1,1.85-1h.06l.17,0a.15.15,0,0,1,0,.12,2.53,2.53,0,0,1-.92.76l-.35.16a2.44,2.44,0,0,0-.7.45,4.76,4.76,0,0,1-1,.7,2,2,0,0,0-.72.62,3.9,3.9,0,0,1-.82.8c-.3.24-6.21,3.76-6.49,4a5.53,5.53,0,0,1-1,.79c-.24.15-.45.32-.69.45a8.81,8.81,0,0,0-1.4,1.2.54.54,0,0,0-.12.14,2,2,0,0,1-.82.78l-.16.11a1,1,0,0,0-.45.81,3.48,3.48,0,0,0,0,.7c0,.29.12.58.19.89a7.58,7.58,0,0,1,.24,2.4,14.49,14.49,0,0,0,.08,2.68,8.85,8.85,0,0,1,0,1c0,.36,0,.72,0,1.09a3.62,3.62,0,0,0,0,.51,10.74,10.74,0,0,1-.1,2.68,5.19,5.19,0,0,0,0,1c0,.28,0,.55,0,.83a11.69,11.69,0,0,0,0,1.78.66.66,0,0,1,0,.13,18.44,18.44,0,0,0,.13,2.17,6.21,6.21,0,0,1,0,1.34,19.6,19.6,0,0,0-.17,2c-.05,1-.08,2-.12,3,0,.6,0,1.19-.08,1.78a14.42,14.42,0,0,0,0,1.85,9.33,9.33,0,0,1,0,1v2c0,.55,0,1.11.05,1.66a5.07,5.07,0,0,1,0,.64c0,.36,0,.72,0,1.08v.45c0,.85-.06,1.7-.1,2.56a13.07,13.07,0,0,0,0,2.11,4.7,4.7,0,0,1,0,.77,11.6,11.6,0,0,0,0,1.4c0,.45,0,.94,0,1.4a4.87,4.87,0,0,0,.08.89A6,6,0,0,1,44.8,135a1.17,1.17,0,0,0,0,.12.33.33,0,0,0,.16.33,6.79,6.79,0,0,0,.78.45,6.86,6.86,0,0,0,2.33.65,8.8,8.8,0,0,1,2.06.45,18.09,18.09,0,0,0,2.79.66,25.24,25.24,0,0,1,4,.89,9,9,0,0,0,1.24.3,26.1,26.1,0,0,1,4.5,1.2c.38.14.76.29,1.14.41.55.17,1.1.33,1.66.45.83.19,1.67.36,2.5.54a19.3,19.3,0,0,1,2.94.85,32.6,32.6,0,0,0,3.88,1.29c1.12.29,2.23.55,3.35.82,1,.23,1.9.49,2.83.8a21.6,21.6,0,0,0,2.15.62,15.4,15.4,0,0,1,2.23.71,9.73,9.73,0,0,0,2.09.59c.36.05.71.14,1.07.21,1,.2,2.07.5,3.12.76a23.88,23.88,0,0,1,2.85.93c.83.33,1.68.61,2.53.89a13.49,13.49,0,0,1,2.78,1.28,2.39,2.39,0,0,1,.41.3,2.49,2.49,0,0,0,.69.45c.34.17.68.36,1,.54a.89.89,0,0,0,.41.14,2.16,2.16,0,0,1,1.16.28h.06a.16.16,0,0,0,.19-.11h0a13.78,13.78,0,0,1,.45-1.66,2,2,0,0,0,.07-.5c0-.36,0-.72,0-1.09h0Z"/><path class="cls-9" d="M61.75,77.55a7.1,7.1,0,0,1-.15,1.4,1.54,1.54,0,0,0,0,.32,6.47,6.47,0,0,1-.29,1.63.45.45,0,0,0,0,.19.29.29,0,0,0,.08.17.62.62,0,0,0,.22.12,25.12,25.12,0,0,0,3,.81c.78.14,1.54.34,2.31.5s1.46.28,2.19.42,1.38.25,2.07.41c1.41.31,2.82.65,4.24,1a28.72,28.72,0,0,1,3,.76c.65.2,1.34.34,2,.48,1.25.25,2.5.54,3.74.85s2.6.64,3.93.89c.69.14,1.37.3,2.07.45.48.09,1,.15,1.45.24.31.06.62.13.93.22l1.78.51A6.48,6.48,0,0,0,95,89l1.65.22,2,.3.38,0a4.52,4.52,0,0,1,1.19.22l.92.25.31.08c.76.27,1.53.54,2.28.83a2.49,2.49,0,0,1,.93.66.53.53,0,0,1,.16.53,7.76,7.76,0,0,0-.2,2.15c0,1.49-.11,3-.16,4.46,0,.3,0,.59,0,.89,0,.68,0,1.36,0,2a2,2,0,0,1-.11.5.82.82,0,0,1-.49.55l-.53.24a.23.23,0,0,1-.29-.24.41.41,0,0,1,0-.06,8.15,8.15,0,0,0,.16-1.52,19.37,19.37,0,0,1,.14-2.11,1.17,1.17,0,0,0,0-.25,10.76,10.76,0,0,1,.1-2,6.05,6.05,0,0,0,.06-.64c0-.49.05-1,.07-1.47a9.86,9.86,0,0,1,.4-2.45L104,92a.33.33,0,0,0-.18-.37.71.71,0,0,0-.23-.1,22,22,0,0,1-2.72-.7A28.49,28.49,0,0,0,98,90.2l-1.78-.29a6.17,6.17,0,0,0-.7-.07,6.54,6.54,0,0,1-1.45-.25c-.58-.16-1.14-.34-1.73-.45-.4-.07-.79-.17-1.2-.22-.74-.1-1.47-.25-2.2-.41a1.54,1.54,0,0,0-.31-.06,7.64,7.64,0,0,1-1.76-.31c-2.11-.52-4.22-1-6.35-1.48-.77-.17-1.52-.41-2.28-.61-.45-.12-.86-.24-1.3-.32-.65-.12-1.27-.35-1.91-.5-1.14-.26-2.28-.55-3.43-.79-.75-.16-1.51-.28-2.26-.41-1-.19-2.09-.41-3.12-.67L64.59,83A12.11,12.11,0,0,1,63,82.5,6.71,6.71,0,0,0,60.77,82a2.89,2.89,0,0,1-.89-.18,1.16,1.16,0,0,0-.31-.07.18.18,0,0,0-.14.1,2.81,2.81,0,0,0,0,.57c.06,1,.14,2,.19,3.06v1.21c0,.53,0,1.07,0,1.6v.38a.45.45,0,0,0,.3.45c.78.28,1.54.63,2.34.85q.92.25,1.84.54a28.18,28.18,0,0,0,2.8.67l1.07.2.25.06a17.94,17.94,0,0,0,2,.58,16.34,16.34,0,0,1,2.31.75c.66.27,1.34.45,2,.67a35.48,35.48,0,0,0,3.46.89q1.18.29,2.36.55c.35.08.71.13,1.07.19,1.12.19,2.2.49,3.31.74.29.07.58.12.89.17a24.86,24.86,0,0,1,2.42.6c.55.16,1.12.28,1.67.45s1,.24,1.41.4a16.69,16.69,0,0,0,2.23.6c.94.19,1.87.42,2.79.68.6.17,1.2.29,1.78.41l1.63.32.32,0a7.71,7.71,0,0,1,.95.15,1.52,1.52,0,0,1,1,.69,1.17,1.17,0,0,1,.22.78,13.38,13.38,0,0,1-.22,2,.26.26,0,0,1-.17.24.54.54,0,0,1-.52-.16.94.94,0,0,1-.25-.58v-.76a3.12,3.12,0,0,1,.06-.31c.08-.58,0-.61-.45-.71s-1-.21-1.44-.29a15.57,15.57,0,0,1-1.69-.35c-1.34-.4-2.68-.7-4-1A12.27,12.27,0,0,1,92,98.77a20.54,20.54,0,0,0-2.08-.61c-.7-.17-1.44-.38-2.16-.58a12,12,0,0,0-1.37-.29c-.36-.05-.71-.15-1.06-.23l-2.68-.62c-.31-.07-.63-.11-.95-.17-1.36-.25-2.7-.62-4-.92s-2.47-.66-3.69-1c-.24-.08-.48-.17-.72-.26a25.34,25.34,0,0,0-3.05-1c-1.2-.32-2.4-.56-3.62-.81a19.26,19.26,0,0,1-1.92-.5c-.63-.2-1.14-.35-1.72-.51a10.44,10.44,0,0,1-1.58-.54,5.86,5.86,0,0,0-2.16-.54,3.3,3.3,0,0,1-1.46-.41,2.19,2.19,0,0,0-.41-.18,10.37,10.37,0,0,1-1.61-.6l-.18,0a.21.21,0,0,0-.2.13,1.31,1.31,0,0,0,0,.19c0,.17,0,.34,0,.51a1.56,1.56,0,0,1-.21.73.26.26,0,0,1-.45,0,1.83,1.83,0,0,1-.22-.86,9.81,9.81,0,0,1,.06-1c0-.25.08-.5.12-.75s.14-.29.36-.2c.63.26,1.28.45,1.93.67.2.07.39.17.58.25a2.38,2.38,0,0,0,.73.23.22.22,0,0,0,.28-.25,4.34,4.34,0,0,1,.05-1.27,12.49,12.49,0,0,0,.08-2.81c0-.34-.08-.68-.1-1a4.08,4.08,0,0,1,0-.58,3.92,3.92,0,0,0,0-1,.51.51,0,0,1,.23-.61.24.24,0,0,0,.08-.22c0-.28.11-.34.35-.25l.29.14a1.34,1.34,0,0,0,.29.13c.81.16.89.25.92-.64,0-.45,0-.85.07-1.28a6.69,6.69,0,0,1,.08-.7,5.68,5.68,0,0,0,.08-1.72,2.26,2.26,0,0,1,.15-1,.45.45,0,0,1,.53-.34l.14.06a1.94,1.94,0,0,1,.39.21,2.46,2.46,0,0,0,1.13.41c.45.06.89.07,1.34.1l.19,0a.21.21,0,0,0,.16-.18.75.75,0,0,0,0-.25,4.91,4.91,0,0,1,0-1.15,4.43,4.43,0,0,1,.29-1.69.18.18,0,0,1,.21-.11c.25.08.49.15.72.25a1.47,1.47,0,0,0,.89.11,1.74,1.74,0,0,1,.57,0c.55.08,1.1.11,1.64.23a15,15,0,0,0,2.23.33c.68,0,1.36.06,2,.15s1.11.06,1.66.1a5.43,5.43,0,0,1,.76.1c.17,0,.34,0,.5.06a5.48,5.48,0,0,1,1.14.16l2,.52,3,.73,3.77,1q.83.22,1.65.49a19.72,19.72,0,0,0,2.6.65,46.58,46.58,0,0,1,4.91,1.16c.89.25,1.78.45,2.68.69,1.09.28,2.2.51,3.31.74.5.1,1,.17,1.5.29.8.21,1.61.45,2.42.61q1.65.37,3.31.7c.54.11,1.09.17,1.64.24l2.34.31.32,0,1.84.23a1.5,1.5,0,0,1,.37.1c.25.1.51.22.76.34a.33.33,0,0,1,.22.42l0,.06a3.26,3.26,0,0,0-.3,1.23c-.07.51-.17,1-.25,1.51a5.88,5.88,0,0,0-.07.63c0,.7-.06,1.4-.08,2.11a2,2,0,0,0,0,.38,6.9,6.9,0,0,1,0,1.34l-.12,3.19a3.12,3.12,0,0,1-.13.95.45.45,0,0,1-.29.31l-.62.17a.23.23,0,0,1-.26-.19v0a1.28,1.28,0,0,1,.06-.37,2.56,2.56,0,0,0,.17-.89c0-1.94.22-3.87.24-5.8a10.13,10.13,0,0,1,0-1.78,15.73,15.73,0,0,0,.15-1.72v-.64a.28.28,0,0,0-.21-.29,5.71,5.71,0,0,0-.69-.15c-.66-.08-1.32-.13-2-.24a33.3,33.3,0,0,1-3.57-.63c-.68-.18-1.37-.3-2.06-.45s-1.34-.31-2-.49c-.95-.25-1.9-.47-2.86-.66a30.43,30.43,0,0,1-3.35-.81c-.55-.17-1.11-.3-1.66-.45-1.19-.34-2.38-.66-3.57-.93l-1.75-.37c-.58-.12-1.2-.27-1.78-.45q-1.28-.39-2.56-.82L86.1,77c-1.82-.52-3.66-1-5.5-1.45-.64-.15-1.28-.33-1.91-.51a14.32,14.32,0,0,0-2.44-.49c-.68-.08-1.34-.12-2-.16l-2.11-.11c-.28,0-.55-.07-.83-.09A18.43,18.43,0,0,1,69,73.82a3.71,3.71,0,0,0-.76-.07A8.79,8.79,0,0,1,66,73.46a.21.21,0,0,0-.28.19,3.3,3.3,0,0,0,0,.57c0,.49.08,1,.08,1.47a1.49,1.49,0,0,0,0,.32.39.39,0,0,0,.34.33c.59.1,1.18.19,1.76.31s1.46.31,2.18.49q2.42.6,4.83,1.24c.64.17,1.27.36,1.91.53.47.13,1,.24,1.42.37s.86.25,1.28.4q1.14.41,2.32.71c1.17.31,2.34.65,3.51,1a23.52,23.52,0,0,0,2.73.64c.95.16,1.88.37,2.82.54.57.1,1.14.19,1.71.24a15,15,0,0,1,2,.33l.62.17a13.23,13.23,0,0,0,2.11.49,20.11,20.11,0,0,1,2.74.63,13.64,13.64,0,0,0,2.23.49c.72.09,1.43.23,2.14.38s1.55.27,2.33.41,1.26.23,1.88.37a4.79,4.79,0,0,1,1.51.68,2.52,2.52,0,0,1,.3.24.48.48,0,0,1,.17.52c-.06.23-.12.45-.17.68s-.08.42-.11.63a1.1,1.1,0,0,1,0,.38,7.38,7.38,0,0,0-.12,2.16,4.86,4.86,0,0,1-.06,1.28,5.8,5.8,0,0,0-.08.76,10.78,10.78,0,0,1-.18,1.71c-.1.45-.15.92-.21,1.39a2.92,2.92,0,0,1-.3,1,1.78,1.78,0,0,0-.15.35.53.53,0,0,1-.28.33l-.28.16c-.24.18-.36.06-.42-.15a1.75,1.75,0,0,1-.06-.38c0-.23,0-.45,0-.7a2.53,2.53,0,0,1,0-.5,12.93,12.93,0,0,0,.24-1.71c0-.42.14-.84.21-1.26,0-.25.08-.5.1-.76q.08-.76.15-1.53a3.12,3.12,0,0,0,0-.45,7.1,7.1,0,0,1,.08-1.46,19.15,19.15,0,0,1,.35-1.95.29.29,0,0,0-.17-.38l-.06,0a3.79,3.79,0,0,0-.56-.12c-.55-.08-1.1-.13-1.64-.23-.89-.17-1.78-.37-2.68-.54-.48-.09-1-.14-1.45-.23a9,9,0,0,1-1-.21c-.86-.25-1.71-.53-2.57-.77A9.25,9.25,0,0,0,98,84.72a11.07,11.07,0,0,1-2.28-.59,6.42,6.42,0,0,0-1.3-.33l-2.72-.39c-.48-.08-1-.2-1.44-.29l-2.07-.39A27.24,27.24,0,0,1,85.23,82c-1.24-.37-2.49-.74-3.76-1-.5-.12-1-.3-1.46-.45a15.21,15.21,0,0,0-2-.57c-.69-.14-1.36-.34-2-.53L74.46,79c-.68-.19-1.34-.41-2-.58-1.28-.33-2.56-.68-3.85-.89-.67-.12-1.34-.25-2-.33s-1.19-.11-1.78-.18a7.64,7.64,0,0,1-1.69-.34,8.29,8.29,0,0,0-1-.23.21.21,0,0,0-.24.16c0,.11,0,.21,0,.32A2.74,2.74,0,0,0,61.75,77.55Z"/><path class="cls-9" d="M163.45,70.25l-.14.82v.19a.17.17,0,0,0,.15.18h.05l.24-.1c.45-.28.86-.56,1.28-.84a.13.13,0,0,0,0-.18l0,0c-.14-.13-.29-.26-.45-.38a2.36,2.36,0,0,1-.61-.73.65.65,0,0,1-.08-.24.51.51,0,0,1,0-.24.18.18,0,0,1,.23,0l.3.23a7.93,7.93,0,0,0,1.14.83,3.12,3.12,0,0,1,.7.56.58.58,0,0,1,.16.34.34.34,0,0,1-.12.34c-.32.21-.65.41-1,.6a.54.54,0,0,1-.24.08,2.38,2.38,0,0,0-1,.34l-.34.18-2.48,1.46-.78.45-1.82.95-.32.21a7.73,7.73,0,0,1-1.15.7l-.28.16-2,1.22a8.91,8.91,0,0,1-.79.42,7.85,7.85,0,0,0-1.64,1,.87.87,0,0,1-.21.14c-.66.29-1.28.68-1.95,1L150,80l-.36.13a8.3,8.3,0,0,1-1.48.61,1.09,1.09,0,0,0-.29.14,17.14,17.14,0,0,1-2.06,1c-.45.2-.85.41-1.28.58a7.42,7.42,0,0,0-1.55.89,9,9,0,0,1-1.56.89c-1.28.59-2.52,1.26-3.76,1.92l-2.38,1.25c-.21.11-.41.21-.62.34-1.46.89-3,1.67-4.48,2.46-.19.1-.37.21-.55.32l-.93.56-1.1.65-.51.27a13,13,0,0,1-2,.74c-.37.11-.7.29-1.08.37a1.53,1.53,0,0,0-.45.22c-.53.32-1.06.63-1.57,1q-2.35,1.6-4.79,3.06c-.57.34-1.15.65-1.73,1s-1.34.84-2,1.26a1,1,0,0,0-.33.38,1.34,1.34,0,0,1-.48.5,3.64,3.64,0,0,0-.4.32l-.84.69a5.18,5.18,0,0,0-.49.41,3.68,3.68,0,0,1-1.16.78c-.19.09-.39.17-.59.25a10.81,10.81,0,0,0-1.78.87q-1.65,1-3.25,2c-.78.52-.7.48-1.54.25a17.4,17.4,0,0,0-2.13-.41,20.07,20.07,0,0,1-3.63-.74,11.73,11.73,0,0,0-1.74-.4,17.56,17.56,0,0,1-1.92-.5c-.86-.25-1.71-.53-2.57-.78s-1.63-.5-2.45-.71c-1.17-.31-2.35-.63-3.53-.89-1.4-.31-2.75-.78-4.13-1.15-.62-.17-1.22-.38-1.82-.59s-1-.29-1.54-.45l-3-.78a41,41,0,0,1-4.07-1.34,8.21,8.21,0,0,0-1.67-.45,15.33,15.33,0,0,1-1.81-.41c-1.2-.32-2.38-.66-3.57-1-.45-.13-.89-.28-1.34-.45A24.59,24.59,0,0,0,59,94.22c-.56-.14-1.11-.31-1.66-.45l-1.67-.42a10.29,10.29,0,0,1-1.94-.63,11.34,11.34,0,0,0-2.05-.7,10.33,10.33,0,0,1-1-.31,4.72,4.72,0,0,1-1.19-.62A5.8,5.8,0,0,0,47,90.19l-.45-.06a.39.39,0,0,1-.37-.41v-.36a.74.74,0,0,1,.27-.55,16.1,16.1,0,0,1,2.31-1.71c.41-.26.82-.54,1.23-.81l1.49-1c.29-.19.58-.37.85-.56a15.37,15.37,0,0,1,2-1.19,4.91,4.91,0,0,0,.51-.27,16,16,0,0,1,1.53-.8.14.14,0,0,1,.19.06v0a.47.47,0,0,1-.12.63,5.17,5.17,0,0,1-.62.45c-.79.45-1.57.94-2.4,1.34a3.63,3.63,0,0,0-1.2.93,1.9,1.9,0,0,1-.37.35c-.61.45-1.17.92-1.81,1.31-.4.24-.79.5-1.19.75l-.89.6a.4.4,0,0,0-.12.14.13.13,0,0,0,0,.12.37.37,0,0,0,.15.11A5.35,5.35,0,0,1,49.4,90a5.15,5.15,0,0,0,1.45.66l.62.17a10.15,10.15,0,0,1,1.87.64,14.39,14.39,0,0,0,2.49.81,10.18,10.18,0,0,1,1.28.38,7.69,7.69,0,0,0,.8.23c1.15.33,2.29.66,3.41,1.07.72.26,1.45.48,2.19.69l2.4.67c.7.18,1.4.35,2.11.51a21.1,21.1,0,0,1,2.51.75c.68.25,1.38.45,2.07.64l2.23.6c.75.21,1.61.45,2.42.61.23,0,.45.12.68.19,1.36.41,2.73.83,4.1,1.24.66.19,1.34.34,2,.51l1.48.41,2.11.53c.89.21,1.72.5,2.57.77l1.53.48c.45.14.89.28,1.34.45a15.42,15.42,0,0,0,1.92.5c.8.15,1.58.35,2.36.58a15,15,0,0,0,2.19.45c.76.1,1.53.15,2.27.33l.93.24a.5.5,0,0,0,.37,0,5.32,5.32,0,0,0,.83-.45,5.68,5.68,0,0,1,.61-.35c.45-.26.89-.51,1.34-.79a18.06,18.06,0,0,1,2.68-1.37l.53-.23a2.48,2.48,0,0,0,.8-.52,1.61,1.61,0,0,1,.64-.41,1.41,1.41,0,0,0,.34-.17L112,100a37.73,37.73,0,0,1,3.46-2.18c.53-.28,1.07-.54,1.57-.85,1.76-1.09,3.51-2.18,5.22-3.35.49-.34,1-.66,1.52-1s1.34-.76,2-1.19A30.78,30.78,0,0,1,128.48,90c1-.54,2-1.06,3.06-1.61,1.71-.92,3.4-1.86,5.14-2.73.5-.25,1-.52,1.47-.78,1.26-.66,2.56-1.26,3.86-1.86,1-.48,2-1,3.05-1.47l1.68-.78a4.25,4.25,0,0,0,.71-.42c.54-.39,1.07-.78,1.63-1.12s1-.55,1.52-.81c.13-.07.28-.11.41-.17l3.09-1.54c.25-.12.5-.24.75-.34a13.86,13.86,0,0,0,1.73-.82l2.31-1.36c.93-.56,1.85-1.15,2.83-1.62l.23-.12a.41.41,0,0,0,.26-.45c-.06-.51-.1-1-.15-1.53s-.1-1.1-.17-1.65a6.24,6.24,0,0,0-.12-.75,34.12,34.12,0,0,1-.55-3.41c-.08-.61.35-3.12.33-3.75,0-.38-.06-.76-.09-1.15a.34.34,0,0,0-.21-.29l-.12,0c-.89-.34-1.75-.66-2.62-1s-1.56-.69-2.32-1.06a10.36,10.36,0,0,0-1.36-.54l-1.1-.33a8.51,8.51,0,0,1-2.42-1.13c-.16-.1-.33-.19-.5-.29s-.36-.22-.53-.35a.21.21,0,0,1,0-.17.12.12,0,0,1,.11,0,4.36,4.36,0,0,1,1.44.48,16.72,16.72,0,0,0,1.95.8,19.09,19.09,0,0,1,3,1.24c.23.11.45.22.7.33l2.47,1.05c.29.12.6.23.89.34a2.68,2.68,0,0,0,.81.15c.91.06,1.2.31,1.43,1.25.12.52-.31,3.12-.28,3.65,0,.7.06,1.4.13,2.11.1,1,.24,2.07.39,3.12,0,.32.08.63.1,1a3.91,3.91,0,0,1,0,.45h0Z"/><path class="cls-9" d="M127.58,17.67l-.12,0a4.89,4.89,0,0,1-.54.21q-1.75.49-3.48,1.07a10.12,10.12,0,0,1-1.78.42,11.27,11.27,0,0,0-1.37.32l-1.72.49-1.11.29c-.54.15-1.07.29-1.6.45-1.19.4-2.4.75-3.6,1.11-1.78.52-3.57,1.08-5.33,1.61s-3.76,1.11-5.65,1.65c-1.34.38-2.72.74-4.07,1.11-1,.28-2,.56-3,.86s-1.95.62-2.93.89-2,.59-3,.89c-1.78.5-3.55,1.09-5.31,1.64-1,.32-2.09.61-3.12.91l-.25.05a8.31,8.31,0,0,0-1.36.33,10.11,10.11,0,0,1-1.17.31,9.2,9.2,0,0,0-1.48.4,8,8,0,0,1-.8.23,5.05,5.05,0,0,1-.57.07,4.1,4.1,0,0,0-.5.06c-.35.08-.37.15-.22.49s.33.65.45,1a6,6,0,0,1,.28.85c.2.81.48,1.59.62,2.41a.64.64,0,0,0,0,.12c.39,1,.66,2.07,1,3.09.1.26.21.52.29.78a4,4,0,0,1,.26.85,2.72,2.72,0,0,0,.19.61q.61,1.61,1.15,3.26c.33,1,.7,2,1.07,2.94.12.34.29.66.45,1a3.65,3.65,0,0,1,.25.72,19.62,19.62,0,0,0,.85,2.74c.19.5.33,1,.47,1.53s.37,1.22.61,1.82c.1.26.19.52.26.79.29,1,.58,2.05.87,3.08.23.8.45,1.6.68,2.4.16.53.34,1.05.51,1.58.28.85.56,1.7.84,2.55s.58,1.83.89,2.74A9.5,9.5,0,0,0,86.21,72a2.36,2.36,0,0,1,.14.29.83.83,0,0,1-.11.89,3.74,3.74,0,0,1-.25.28.12.12,0,0,1-.12,0,.39.39,0,0,1-.12-.14c-.31-.68-.63-1.34-.92-2-.18-.45-.33-.89-.48-1.34-.2-.61-.39-1.22-.57-1.83-.32-1.11-.7-2.19-1.06-3.28-.31-.93-.59-1.87-.86-2.81-.36-1.23-.68-2.47-1-3.69-.17-.57-.37-1.13-.56-1.7-.09-.26-.2-.52-.27-.78-.27-1.05-.66-2.07-1-3.1-.15-.45-.29-.89-.45-1.34l-.45-1.27c-.11-.32-.23-.64-.33-1q-.45-1.5-.87-3a13.23,13.23,0,0,0-.73-2,18.73,18.73,0,0,1-.83-2.23c-.27-.85-.58-1.69-.87-2.54-.08-.24-.17-.48-.24-.73q-.63-2.18-1.26-4.36c-.1-.35-.19-.7-.28-1.05a.72.72,0,0,1,.38-.74c.38-.14.76-.27,1.16-.37s.7-.19,1-.31.74-.22,1.1-.33l1.28-.41,1-.29.85-.29a11.47,11.47,0,0,1,1.48-.4,12.59,12.59,0,0,0,1.66-.45c1.69-.58,3.41-1.1,5.13-1.6,1.16-.34,2.32-.72,3.49-1.06l4.67-1.34,3.45-.95,4.05-1.16c.7-.2,1.4-.37,2.1-.58l2.81-.86c1.57-.47,3.12-1,4.72-1.4,1-.28,2-.64,3.05-1s1.78-.54,2.68-.8c.72-.2,1.44-.37,2.17-.56a4.81,4.81,0,0,1,.63-.12,11.49,11.49,0,0,0,2.29-.57c1-.31,1.9-.64,2.88-.86l.31-.07a.64.64,0,0,1,.25,0c.06,0,.1.08.16.1A2,2,0,0,1,128.49,18c.07.13.13.27.19.41l.69,1.51a9.43,9.43,0,0,1,.54,1.47,1.42,1.42,0,0,0,.08.24,36.39,36.39,0,0,1,1.4,3.5c.29.78.49,1.59.72,2.39.13.45.26.89.39,1.34.21.74.45,1.47.64,2.23a19.89,19.89,0,0,0,.89,2.6c.24.57.45,1.15.68,1.73l.36.89,1,2.44c.34.89.67,1.75,1,2.62a20.23,20.23,0,0,1,.71,2.12c.26,1,.59,2,.79,3,.17.82.32,1.63.5,2.44.41,1.81.74,3.63,1.2,5.43a21.85,21.85,0,0,1,.45,2.77c.09.74.23,1.48.36,2.21a38.77,38.77,0,0,0,1,4.16c.18.59.32,1.2.49,1.78s.32,1.11.45,1.66c.65,2.39,1.3,4.77,2,7.14.32,1,.63,2,1,3,.08.26.2.52.3.77s.21.47.31.7a.56.56,0,0,1-.06.7,1.26,1.26,0,0,0-.2.45.28.28,0,0,1-.13.12.18.18,0,0,1-.19-.13,2.57,2.57,0,0,1-.14-.42,5.49,5.49,0,0,0-.45-1.34,13.38,13.38,0,0,1-.63-1.67c-.53-1.71-1.08-3.41-1.6-5.12-.26-.86-.48-1.72-.72-2.59l-.59-2.16c-.19-.7-.37-1.4-.57-2.1-.13-.45-.28-.89-.41-1.34a39.25,39.25,0,0,1-1.2-5.28c-.17-1.18-.34-2.36-.62-3.52l-.41-1.74c-.12-.54-.25-1.08-.36-1.62-.37-1.78-.74-3.55-1.12-5.32-.07-.31-.15-.62-.23-.93-.15-.58-.32-1.15-.45-1.73a12.08,12.08,0,0,0-.53-1.57l-1.34-3.73c-.2-.56-.41-1.12-.62-1.68-.13-.34-.28-.67-.38-1-.17-.53-.41-1-.62-1.54a15.89,15.89,0,0,1-.65-1.85c-.42-1.5-.83-3-1.28-4.49-.41-1.34-.83-2.68-1.34-4-.29-.74-.53-1.49-.79-2.23a4.29,4.29,0,0,0-.19-.47c-.33-.67-.62-1.34-.89-2a3.14,3.14,0,0,0-.21-.4A.24.24,0,0,0,127.58,17.67Z"/><path class="cls-9" d="M72,127.55a8.1,8.1,0,0,0-1.38.05,1.06,1.06,0,0,0-.87.66c0,.08-.06.16-.1.23a.35.35,0,0,1-.49.07h0a1.78,1.78,0,0,1-.19-.25c-.11-.18-.21-.37-.33-.55a3,3,0,0,0-.39-.5,11,11,0,0,0-1.86-1.46,5.61,5.61,0,0,0-2-.74c-.61-.1-1.23-.14-1.84-.2a7.23,7.23,0,0,1-1.19-.22c-.89-.25-1.75-.53-2.65-.72a5.12,5.12,0,0,1-2.39-1.41A7.1,7.1,0,0,1,55.16,121a3.52,3.52,0,0,1-.52-1.76q0-.77-.08-1.53a4.06,4.06,0,0,0-.08-.5c-.09-.45-.19-.92-.27-1.38a2.77,2.77,0,0,0-1.46-1.94,1.78,1.78,0,0,0-.42-.15,1.26,1.26,0,0,1-.79-.6,2.8,2.8,0,0,0-.5-.65.13.13,0,0,1,0-.12.13.13,0,0,1,.09-.06.56.56,0,0,1,.19,0l.45.12a1.92,1.92,0,0,0,2-.45,9.59,9.59,0,0,0,1.69-1.65A6.22,6.22,0,0,1,57,109c.54-.38,1.1-.74,1.67-1.07a5.49,5.49,0,0,1,1.65-.66,3.23,3.23,0,0,1,1.27,0c.48.09,1,.08,1.45.21.31.08.62.15.92.25,1,.36,2.08.62,3.12.89a3.22,3.22,0,0,0,.5.08,6.43,6.43,0,0,0,1.84-.15,3,3,0,0,0,.84-.31,13.64,13.64,0,0,0,1.34-.71.36.36,0,0,1,.49.1l0,.07a1.39,1.39,0,0,1,.12.37,1.84,1.84,0,0,0,1,1.28,5.44,5.44,0,0,0,.75.35c.45.18.89.33,1.31.51a12.49,12.49,0,0,0,2.11.53c1.74.35,3.44.8,5.14,1.29a8.22,8.22,0,0,1,2.72,1.51c.25.2.51.38.78.56a12.61,12.61,0,0,1,1.82,1.51l.55.54.19.17c.38.45.77.85,1.15,1.28a7.3,7.3,0,0,1,1.38,3.19,10,10,0,0,0,.56,2,3.88,3.88,0,0,0,.78,1.16,17.71,17.71,0,0,0,1.94,1.85c.17.14.33.27.49.41a.89.89,0,0,1,.21.31.45.45,0,0,0,.25.26.54.54,0,0,1,.31.7l0,0a.33.33,0,0,1-.38.26h0l-.64,0a1.83,1.83,0,0,0-1,.24c-.37.2-.76.38-1.13.59a5.29,5.29,0,0,0-.54.35,6.64,6.64,0,0,1-1.3.81,1.72,1.72,0,0,0-.49.3,2.26,2.26,0,0,1-.72.41l-.89.32c-.29.11-.64.24-1,.33a5.87,5.87,0,0,1-1.76.29,14.22,14.22,0,0,1-3.16-.45,13.08,13.08,0,0,1-2.94-1.06,19,19,0,0,0-2.17-.93c-.48-.17-1-.37-1.43-.54a20.07,20.07,0,0,0-2.48-.62c-.25-.05-.5-.12-.75-.15S72.38,127.57,72,127.55Zm12.86,2.56h.5c.32,0,.64,0,1,0a3.4,3.4,0,0,0,.5-.06c.56-.12,1.12-.25,1.68-.4a5.44,5.44,0,0,0,1.64-.71l1.11-.75a8.64,8.64,0,0,1,1.49-.89,9.26,9.26,0,0,0,.84-.45.19.19,0,0,0,0-.32l-.09-.09c-.41-.45-.85-.84-1.24-1.28a6,6,0,0,1-1.22-2,15.1,15.1,0,0,1-.64-2.34,3.93,3.93,0,0,0-.41-1.27,7.68,7.68,0,0,0-.92-1.3c-.54-.61-1.11-1.18-1.68-1.75a7.89,7.89,0,0,0-1.29-1,10.14,10.14,0,0,1-1-.77,5.8,5.8,0,0,0-1.51-.95c-.53-.21-1.08-.39-1.62-.59a16.14,16.14,0,0,0-2.27-.65,1.64,1.64,0,0,1-.31-.09,8.58,8.58,0,0,0-1.67-.45,13.76,13.76,0,0,1-3-.89l-.24-.09a5.2,5.2,0,0,1-1.78-1.12,5.26,5.26,0,0,1-.93-1.14c-.14-.21-.25-.24-.41-.08s-.52.37-.77.57a1.78,1.78,0,0,1-.81.35l-1.26.23a1.25,1.25,0,0,1-.38,0,7.52,7.52,0,0,1-1.39-.2l-1-.33a16.16,16.16,0,0,1-1.7-.56,4.76,4.76,0,0,0-.67-.2,17.32,17.32,0,0,1-1.78-.4.69.69,0,0,0-.32,0,6.6,6.6,0,0,0-.89.15,7.53,7.53,0,0,0-2.49,1.28c-.5.37-1,.78-1.44,1.17a3.16,3.16,0,0,0-.35.37l-.36.45a3,3,0,0,1-.89.79,4,4,0,0,0-.72.53,2,2,0,0,1-.59.38.51.51,0,0,0-.16.1.11.11,0,0,0,0,.11,4.61,4.61,0,0,1,.42.39,5.24,5.24,0,0,1,1,1.73,12.93,12.93,0,0,1,.64,4,2.2,2.2,0,0,0,.64,1.61,4.65,4.65,0,0,0,2.23,1.42l.37.11c.49.14,1,.25,1.48.42a10.1,10.1,0,0,0,2.63.49,9,9,0,0,1,2.6.64,5.35,5.35,0,0,1,.81.46,10.34,10.34,0,0,1,2.73,2.29l.22.23a.27.27,0,0,0,.3,0,1.07,1.07,0,0,0,.2-.16,1.52,1.52,0,0,1,1.14-.5c.38,0,.77-.05,1.15-.05a6.24,6.24,0,0,1,1,0c.65.1,1.3.22,1.94.38A21.37,21.37,0,0,1,79,128.31a23.64,23.64,0,0,0,3.76,1.42c.73.2,1.43.22,2.09.38Z"/><path class="cls-9" d="M131.42,58.32a.31.31,0,0,1,0,.12,4,4,0,0,1-.3.49.74.74,0,0,1-.29.24,8.74,8.74,0,0,0-.89.45,4,4,0,0,1-.6.23,6.83,6.83,0,0,0-1,.45,5,5,0,0,1-1.61.6,20.64,20.64,0,0,0-2.86.66,5.89,5.89,0,0,1-.94.2,18.8,18.8,0,0,0-1.94.37l-.12,0a12.49,12.49,0,0,0-2.52.71,8.27,8.27,0,0,1-1.41.39,2.71,2.71,0,0,0-1.14.38,2,2,0,0,1-.54.2l-2.63.8c-.45.12-.86.24-1.3.33a16.06,16.06,0,0,0-1.71.51c-1.52.51-3.05,1-4.59,1.4l-.67.21a20.07,20.07,0,0,1-2.54.65l-.81.17a4.21,4.21,0,0,0-1.37.49,4.59,4.59,0,0,1-1.06.45c-1.41.45-2.78.95-4.16,1.45a9.06,9.06,0,0,1-1.66.45c-.45.08-.92.17-1.38.22a.22.22,0,0,1-.22-.08,2.4,2.4,0,0,1-.38-.72,4.71,4.71,0,0,0-.37-.89,8.77,8.77,0,0,1-.54-1.36Q89.28,66,88.71,64c-.21-.74-.45-1.47-.63-2.23-.09-.33-.18-.66-.26-1A14.43,14.43,0,0,0,87.28,59a12.25,12.25,0,0,1-.53-1.84q-.18-.84-.37-1.69a19.29,19.29,0,0,0-.65-2.21c-.12-.32-.21-.65-.3-1a.18.18,0,0,1,.06-.16.21.21,0,0,1,.18,0,1.49,1.49,0,0,1,.67.66,2.52,2.52,0,0,1,.18.41c.27.74.55,1.48.75,2.23.06.23.14.45.2.67.18.66.36,1.32.55,2,.09.33.18.66.3,1a23.89,23.89,0,0,1,.75,2.51,6.63,6.63,0,0,0,.33,1A9.11,9.11,0,0,1,89.9,64a9.87,9.87,0,0,0,.73,2.11,7.27,7.27,0,0,1,.48,1.25,14.66,14.66,0,0,0,.79,2.09.3.3,0,0,0,.36.24h0a6.85,6.85,0,0,0,1.74-.4c1.74-.7,3.54-1.23,5.32-1.84a14.72,14.72,0,0,1,1.86-.47c.71-.14,1.42-.27,2.12-.48l3.06-.94.92-.28,1.78-.57c.61-.18,1.3-.41,2-.59q2.16-.57,4.3-1.24c.59-.19,1.19-.33,1.78-.5l1.23-.35c.89-.25,1.76-.52,2.64-.74,1.24-.31,2.47-.66,3.68-1.07,1.39-.48,2.79-.94,4.2-1.34.78-.22,1.55-.45,2.33-.69a.39.39,0,0,1,.19,0A.23.23,0,0,1,131.42,58.32Z"/><path class="cls-9" d="M98.42,53.72a8.35,8.35,0,0,0,1.47,0,7.07,7.07,0,0,1,1,0,6.69,6.69,0,0,0,2-.21l1.61-.39c1-.23,2.06-.56,3.08-.84l3.12-.87c.66-.18,1.32-.37,2-.56a29.29,29.29,0,0,0,5.17-2.19,16.69,16.69,0,0,0,2.32-1.47,5.72,5.72,0,0,0,1.61-1.87.22.22,0,0,0-.12-.29h0a2.17,2.17,0,0,1-.76-.29,5.52,5.52,0,0,0-.65-.25.12.12,0,0,1-.06-.1.25.25,0,0,1,.08-.15,1.62,1.62,0,0,1,.68-.14,2.9,2.9,0,0,1,.51,0,.69.69,0,0,1,.3.08,2.18,2.18,0,0,1,.78.83,1.25,1.25,0,0,1,.08.94,2.5,2.5,0,0,1-.21.54,4.39,4.39,0,0,1-1.24,1.44A28.37,28.37,0,0,1,118,49.85c-.28.15-.55.32-.84.45s-.74.33-1.1.5c-.81.39-1.65.69-2.48,1a3.5,3.5,0,0,1-.36.14c-1.12.33-2.23.78-3.35,1-.81.19-1.6.45-2.4.68a20.4,20.4,0,0,1-2,.5,3,3,0,0,0-.89.29l-.17.08a9.7,9.7,0,0,1-2.77.45,8.18,8.18,0,0,0-1.6,0,2.06,2.06,0,0,1-.45,0L98,55a1.64,1.64,0,0,1-.45-.11c-.38-.14-.75-.3-1.13-.45a1.54,1.54,0,0,1-.72-.5.89.89,0,0,1-.17-.27c-.12-.41-.26-.81-.34-1.23a2.26,2.26,0,0,1,.12-1.26,1.2,1.2,0,0,1,.35-.53,4.23,4.23,0,0,1,1-.63.23.23,0,0,1,.12,0,.28.28,0,0,1,.17.07.21.21,0,0,1,0,.17.57.57,0,0,1-.12.14,9.67,9.67,0,0,0-.86,1,.86.86,0,0,0-.17.47c0,.32,0,.64,0,1a.4.4,0,0,0,.27.39c.34.12.68.26,1,.37a1.78,1.78,0,0,0,.45.06C97.83,53.68,98.12,53.71,98.42,53.72Z"/><path class="cls-9" d="M133.79,56.23a.48.48,0,0,1-.61.54.2.2,0,0,1-.17-.17,4.67,4.67,0,0,0-.35-1.42,7,7,0,0,1-.21-.8q-.32-1.53-.78-3c-.3-1-.58-2-.82-3-.16-.64-.39-1.26-.58-1.9-.25-.84-.48-1.68-.71-2.52-.06-.23-.13-.45-.2-.67q-.22-.8-.45-1.61c-.09-.35-.18-.7-.27-1.05-.26-1-.52-1.94-.79-2.9-.12-.45-.32-.89-.41-1.34s-.19-.91-.31-1.37a3.57,3.57,0,0,0-.27-.71,6.81,6.81,0,0,1-.5-1.38,14.36,14.36,0,0,1-.29-1.7c0-.27-.07-.55-.13-.82-.22-1-.39-2-.66-3-.09-.33-.14-.67-.21-1v-.06a.31.31,0,0,1,.16-.25.28.28,0,0,1,.3.05,1.39,1.39,0,0,1,.21.32q.21.54.39,1.08c.23.69.45,1.38.68,2.07a6,6,0,0,0,.24.59,6.2,6.2,0,0,1,.45,1.46c0,.12.06.25.08.37a18.83,18.83,0,0,0,.64,2.68c.06.21.11.41.16.62.16.77.37,1.53.57,2.29s.32,1.34.49,2q.06.25.13.5A10.54,10.54,0,0,1,130,42.3a2.8,2.8,0,0,0,.09.45c.33,1.26.67,2.51,1,3.76.15.55.35,1.1.5,1.65s.21.87.33,1.3.3,1.07.45,1.6c0,.17.11.32.15.49.26,1,.54,2,.73,3a6.86,6.86,0,0,0,.36,1.34A2.08,2.08,0,0,1,133.79,56.23Z"/><path class="cls-9" d="M128,63.49a1.14,1.14,0,0,0-.25-.2.45.45,0,0,0-.25,0,.82.82,0,0,0-.24.09,19.62,19.62,0,0,1-2.07.85c-1,.36-2,.74-3,1.11-1.28.47-2.56.93-3.84,1.42-2,.77-4.05,1.56-6.08,2.34l-1,.36c-.62.24-1.23.5-1.85.71s-1.54.5-2.3.78c-1,.34-1.92.71-2.88,1.06a10.63,10.63,0,0,0-1.53.65,2.94,2.94,0,0,1-.41.18l-1.45.52-1.82.62-1.76.58-.8.23A1,1,0,0,0,96,75a.38.38,0,0,0-.1.41.29.29,0,0,0,.38.15l1.44-.31a12.52,12.52,0,0,0,2.3-.77,10.77,10.77,0,0,1,1-.4,11.71,11.71,0,0,0,1.42-.56c.41-.19.83-.34,1.24-.5s.71-.28,1.07-.45a15,15,0,0,0,1.5-.64,2,2,0,0,1,1-.25,1.56,1.56,0,0,0,.45-.06c.33-.09.65-.2,1-.31a3.54,3.54,0,0,0,.87-.4,1.71,1.71,0,0,1,.53-.21,14.53,14.53,0,0,0,2.05-.7c.82-.36,1.66-.66,2.51-1a13,13,0,0,0,2.07-1,11,11,0,0,1,1.31-.67c.58-.23,1.14-.47,1.73-.66.85-.28,1.71-.52,2.56-.78h0a.17.17,0,0,1,.24,0l0,0h0a.65.65,0,0,0,.26-.15,1.31,1.31,0,0,1,.31,0l.25-.08.67-.22c.45-.15,2-.55,2.53-.65a1.44,1.44,0,0,0,.37-.11c.31-.15.61-.31.89-.48a.28.28,0,0,0,.12-.14A.56.56,0,0,0,128,63.49Z"/><path class="cls-9" d="M80.89,44.06a.79.79,0,0,0,.4-.19,5.21,5.21,0,0,1,1.15-.69c.52-.25,1-.52,1.56-.73a16.39,16.39,0,0,0,1.81-.94,9.53,9.53,0,0,0,1.84-1.36,4.06,4.06,0,0,0,.74-.89,4.51,4.51,0,0,1,.6-.74,4.46,4.46,0,0,0,.89-1.34l.1-.24a.76.76,0,0,1,.6-.52c.12,0,.25-.08.37-.09a.2.2,0,0,1,.16.08,1.65,1.65,0,0,1,.16.34,16.35,16.35,0,0,0,.86,2c.1.21.18.45.28.65a.71.71,0,0,1-.09.78l-.13.14a.12.12,0,0,1-.17,0,1.13,1.13,0,0,1-.23-.3,10.6,10.6,0,0,0-.67-1.16l-.45-.78a.15.15,0,0,0-.21,0h0a1.91,1.91,0,0,0-.21.24c-.23.36-.45.71-.67,1.08a2.9,2.9,0,0,1-.5.66,8.53,8.53,0,0,1-2.19,1.63,7.58,7.58,0,0,0-.77.45,4.4,4.4,0,0,1-1.15.54,7.32,7.32,0,0,0-1.12.45c-.4.2-.81.38-1.2.59a9.24,9.24,0,0,0-1.52,1.06,4.56,4.56,0,0,0-.68.84.25.25,0,0,0,0,.18,2.19,2.19,0,0,0,.13.56,23,23,0,0,1,.77,2.29.28.28,0,0,0,.06.11.12.12,0,0,0,.1,0,.53.53,0,0,0,.13-.13l.3-.41a4.15,4.15,0,0,1,1.08-1l1-.68A5.5,5.5,0,0,1,85,46l2.35-1a7.64,7.64,0,0,0,2-1.18,5.41,5.41,0,0,1,.45-.34,7.48,7.48,0,0,0,2.1-2.37c.15-.25.33-.5.5-.74a.23.23,0,0,1,.32,0l.06.06a.6.6,0,0,1,.08.61,2.76,2.76,0,0,1-.24.45c-.39.54-.78,1.07-1.19,1.59a3.12,3.12,0,0,1-.5.49c-.31.25-.64.49-1,.74a8.59,8.59,0,0,1-1.78,1l-2.59,1.1a6,6,0,0,0-1.17.64l-.85.57a7.58,7.58,0,0,0-.65.51,3,3,0,0,0-.84,1.26c-.07.18-.13.36-.21.54a.4.4,0,0,1-.45.25h-.06A.32.32,0,0,1,81,49.9c-.08-.29-.15-.58-.22-.87s-.1-.41-.17-.61l-.89-2.52a1.34,1.34,0,0,1,0-.57.37.37,0,0,1,.14-.27l.81-.72a3.26,3.26,0,0,0,.25-.29Z"/><path class="cls-9" d="M109.4,79.55a.41.41,0,0,1,.22-.47,5.67,5.67,0,0,1,.6-.21c.58-.16,1.16-.29,1.73-.45,1.27-.37,2.52-.77,3.78-1.17.77-.25,1.53-.53,2.32-.71a11,11,0,0,0,1.1-.35l1.74-.63a2.54,2.54,0,0,1,.87-.2,1.74,1.74,0,0,1,.73-.38,1.34,1.34,0,0,1,.37-.08,2.07,2.07,0,0,0,.74-.19c.67-.26,1.34-.53,2-.78q1.38-.5,2.77-1c.28-.09.58-.14.86-.23s.36-.14.53-.21a1,1,0,0,1,.66-.33,10.09,10.09,0,0,1,1.62-.35.12.12,0,0,1,.12.11h0a.56.56,0,0,1,0,.19,3.92,3.92,0,0,1-.26.45.45.45,0,0,1-.19.16c-.5.19-1,.45-1.45.66s-1.2.56-1.78.81a7,7,0,0,0-1.29.68.62.62,0,0,1-.29.1,3.57,3.57,0,0,0-.87.21c-.2.07-.41.09-.62.15s-.57.18-.85.27a2.12,2.12,0,0,1-.45.12,5.43,5.43,0,0,0-1.28.38c-.32.11-.65.19-1,.29l-1.09.36-2.07.67c-.69.23-1.39.41-2.08.61l-.86.26a5.8,5.8,0,0,1-.62.16,4.54,4.54,0,0,0-1.38.47l-.17.08-1.94.68c-.16.06-.31.13-.47.19l-.89.29a1.19,1.19,0,0,1-.38,0,.45.45,0,0,1-.42-.34A1.7,1.7,0,0,1,109.4,79.55Z"/><path class="cls-9" d="M102.23,78l-.35-.07a.54.54,0,0,1-.33-.29.37.37,0,0,1,.1-.45l.28-.16a6.2,6.2,0,0,1,1.34-.45c.56-.12,1.12-.28,1.66-.45.89-.28,1.78-.53,2.7-.78,1.25-.35,2.48-.79,3.7-1.22s2.29-.82,3.43-1.21c.87-.29,1.74-.56,2.61-.85l2.72-.95,4-1.43,1.38-.5.55-.18a.62.62,0,0,1,.45,0,.41.41,0,0,0,.51-.15.65.65,0,0,1,.36-.25l2.34-.64h.06l.09.06a.07.07,0,0,1,0,.06,6.77,6.77,0,0,1-.82.61.26.26,0,0,0-.11.07,2.55,2.55,0,0,1-.86.62,4.72,4.72,0,0,1-.67.37,12.37,12.37,0,0,1-1.93.67,13.83,13.83,0,0,0-1.72.5,7.31,7.31,0,0,1-.86.23c-.5.12-1,.3-1.46.47-1.15.41-2.28.83-3.43,1.22-.77.26-1.55.48-2.31.74-1,.35-2.05.72-3.07,1.09a22.63,22.63,0,0,1-2.23.6l-.93.23c-.8.21-1.61.45-2.41.64a6.88,6.88,0,0,0-1.88.78,3.84,3.84,0,0,1-.95.38,2.37,2.37,0,0,0-.7.31,4.11,4.11,0,0,1-1.14.41Z"/><path class="cls-9" d="M83.21,31.57l-.19,0a.3.3,0,0,1-.28-.21.33.33,0,0,1,.23-.2,8.8,8.8,0,0,1,1.58-.5A20.24,20.24,0,0,0,86.65,30c.51-.16,1-.3,1.54-.42a19.52,19.52,0,0,0,2.32-.69c.36-.13.72-.25,1.09-.37.71-.23,1.42-.45,2.12-.71s1.45-.5,2.19-.71c.94-.27,1.86-.6,2.8-.89q2.07-.67,4.09-1.46a6.45,6.45,0,0,1,.67-.21c1.2-.32,2.36-.74,3.51-1.16.14-.05.28-.12.42-.16a40.53,40.53,0,0,1,3.94-1.07,18.67,18.67,0,0,0,1.92-.47,7,7,0,0,1,1.19-.22,1.61,1.61,0,0,1,.38,0,.32.32,0,0,1,.26.25.31.31,0,0,1-.1.34,1.65,1.65,0,0,1-.45.23c-1.16.27-2.29.66-3.47.87a15.1,15.1,0,0,0-1.85.5c-1.2.37-2.39.77-3.57,1.16-.18.06-.36.12-.55.17-.93.25-1.83.55-2.73.89a7.8,7.8,0,0,1-1.54.42,3.78,3.78,0,0,0-.67.19c-1.37.48-2.77.84-4.16,1.24-.71.21-1.42.45-2.12.7l-1.75.6L90,29.8l-.12,0a3.19,3.19,0,0,1-1.34.45c-.31.06-.62.14-.93.23a3.12,3.12,0,0,0-.54.21,7.54,7.54,0,0,1-2.23.7C84.27,31.51,83.74,31.52,83.21,31.57Z"/><path class="cls-9" d="M102.84,63.42l-.45.05a33.36,33.36,0,0,0-3.78.94,4.19,4.19,0,0,1-.56.12.56.56,0,0,1-.45-.08A5,5,0,0,1,97,64a.22.22,0,0,1-.09-.22.14.14,0,0,1,.07-.09.32.32,0,0,1,.18,0,2.05,2.05,0,0,0,1.13-.07,5.14,5.14,0,0,0,.61-.2,21.16,21.16,0,0,1,2.31-.73c.87-.22,1.73-.45,2.59-.7s1.86-.45,2.8-.64c.45-.08.89-.17,1.31-.29,1.83-.49,3.64-1.07,5.42-1.69a8.28,8.28,0,0,1,.92-.26,18.22,18.22,0,0,0,2.09-.59L118,58c.57-.18,1.12-.39,1.68-.62.39-.17.8-.29,1.2-.42l.31-.06a.19.19,0,0,1,.21.25,7.52,7.52,0,0,1-.31.69.5.5,0,0,1-.24.2c-.2.08-.4.13-.61.2l-.73.22-3.64,1.19-.31.09a26.11,26.11,0,0,0-2.68.78c-.59.18-1.17.39-1.76.58l-1.7.54a5.64,5.64,0,0,1-1,.28c-.21,0-.41.13-.61.17a8.18,8.18,0,0,0-1.74.63,10.67,10.67,0,0,1-1.58.49l-.68.19A1.69,1.69,0,0,1,102.84,63.42Z"/><path class="cls-9" d="M156.18,62.69c0-.32,0-.64,0-1v-.38a.32.32,0,0,0-.17-.26l-.23-.12a2.35,2.35,0,0,1-.4-.2,3.34,3.34,0,0,0-1-.5A2.06,2.06,0,0,1,154,60a3.9,3.9,0,0,1-.45-.34,1.13,1.13,0,0,0-.58-.24,2.75,2.75,0,0,1-1.29-.53,5,5,0,0,0-1.42-.7c-.59-.19-4.91-1.59-5.46-1.86a14.37,14.37,0,0,0-1.53-.63l-1.5-.55-.06,0a.18.18,0,0,1-.09-.21.24.24,0,0,1,.14-.1,1.2,1.2,0,0,1,.45.05,13.28,13.28,0,0,0,1.53.45,9.6,9.6,0,0,1,1.26.45c.64.29,5,1.68,5.72,1.9a4,4,0,0,1,1.07.57,1.86,1.86,0,0,0,.89.37,2.74,2.74,0,0,1,1.45.62,2.19,2.19,0,0,0,.73.38,4.8,4.8,0,0,1,.8.39,1.24,1.24,0,0,0,.78.21.39.39,0,0,1,.39.27,11.86,11.86,0,0,1,.73,2.11,1.44,1.44,0,0,1,0,.32c0,.89.06,1.78.09,2.68a6.51,6.51,0,0,0,0,1.21c0,1,.12,2.08.2,3.12V70a24.6,24.6,0,0,0,.23,2.6,2,2,0,0,1-.12.94c-.07.2-.13.41-.21.6a1.11,1.11,0,0,1-.18.26.13.13,0,0,1-.11,0,.27.27,0,0,1-.14-.11.69.69,0,0,1-.07-.25c-.15-1.49-.39-3-.62-4.43-.15-.89-.25-1.82-.35-2.73v-.45c0-.28,0-.55-.05-.83v-.19l-.06-2.81h0Z"/><path class="cls-9" d="M147.54,67.6s-1-.37-.94-.4a.13.13,0,0,0,0-.12,1.48,1.48,0,0,0-.7-.45,11,11,0,0,1-1.4-.61,1.34,1.34,0,0,1-.38-.33.23.23,0,0,1,0-.17.21.21,0,0,1,.21-.11l.12,0a1.78,1.78,0,0,0,.59.22,1.41,1.41,0,0,1,.45.13,4.34,4.34,0,0,0,.89.34,1.86,1.86,0,0,1,.94.51l.1.08a.48.48,0,0,0,.17.08c.35,0,.59.33.95.37a2.62,2.62,0,0,1,1.31.7.7.7,0,0,1,.28.79c0,.19-.08.37-.13.56a12.63,12.63,0,0,0-.25,2.23c0,.45-.07.93-.11,1.4v1.79a3.26,3.26,0,0,0,0,.51,10.65,10.65,0,0,1,0,2.42,1.24,1.24,0,0,1-.53.89.33.33,0,0,1-.46,0l0-.05a2.2,2.2,0,0,1-.27-1v-.48a3.08,3.08,0,0,1,.06-.47,6.38,6.38,0,0,0,.08-1.72,4.76,4.76,0,0,1,0-.58c0-1.3.09-2.6.15-3.9a7.86,7.86,0,0,1,.11-.89c0-.3.07-.55.08-.83a.37.37,0,0,0-.31-.41h0a1.4,1.4,0,0,1-.89-.34"/><path class="cls-9" d="M152.49,68.74a13.14,13.14,0,0,1-.17,2.1,3.21,3.21,0,0,0,0,.7c0,.23,0,.45,0,.7q0,.64.05,1.28V74c0,.41,0,.81,0,1.21a3.17,3.17,0,0,1-.22,1.06,2.13,2.13,0,0,1-.39.57.22.22,0,0,1-.37-.06,2,2,0,0,1-.25-.85,1.37,1.37,0,0,1,0-.25c.06-.66,0-1.34,0-2a2.72,2.72,0,0,0,0-.32c-.09-.8-.12-1.61-.16-2.42,0-.58-.07-1.15-.05-1.72,0-.34,0-.68,0-1a2.77,2.77,0,0,0,0-.45,3.82,3.82,0,0,1,0-1.27.28.28,0,0,0-.09-.22,2.49,2.49,0,0,0-.48-.3c-.33-.15-.66-.29-1-.42a8,8,0,0,1-1.53-.78,4.15,4.15,0,0,0-1-.54.56.56,0,0,1-.2-.15.14.14,0,0,1,0-.12.12.12,0,0,1,.08-.08,2.44,2.44,0,0,1,1.12.16l.82.37,1,.45a12.29,12.29,0,0,1,1.78.86A3.26,3.26,0,0,0,152,66a.89.89,0,0,1,.58.89q0,.22,0,.45A12.87,12.87,0,0,0,152.49,68.74Z"/><path class="cls-9" d="M119,83.67a.59.59,0,0,1-.72-.43h0a.22.22,0,0,1,.11-.27l.41-.17a26.24,26.24,0,0,1,2.91-1l1.53-.45a18.17,18.17,0,0,0,2.11-.89,11.3,11.3,0,0,1,2-.69,24.79,24.79,0,0,0,3-1l1.26-.45a10.79,10.79,0,0,1,1.61-.41.64.64,0,0,1,.25,0,.12.12,0,0,1,0,.1,1.78,1.78,0,0,1-.19.25,3.21,3.21,0,0,1-1.38.89c-.63.21-1.24.45-1.86.68s-1,.32-1.46.47a4,4,0,0,0-.89.38,9.42,9.42,0,0,1-1,.47c-.17.08-.36.14-.53.23a5.71,5.71,0,0,1-1.74.59,8,8,0,0,0-1.42.37c-.26.1-.53.16-.79.24a2.71,2.71,0,0,0-.48.17,13.14,13.14,0,0,1-1.9.73A2.15,2.15,0,0,1,119,83.67Z"/><path class="cls-9" d="M80.9,44.05l-.45-.13a1.68,1.68,0,0,1-1-1.43,1.43,1.43,0,0,1,.45-1.23.89.89,0,0,0,.3-1,.81.81,0,0,1,.11-.61,2.73,2.73,0,0,1,1-1,3.12,3.12,0,0,1,1.47-.58.41.41,0,0,0,.37-.3c.06-.16.12-.32.18-.48a.74.74,0,0,1,.72-.54h.89a1.22,1.22,0,0,1,.55.16.45.45,0,0,0,.45,0l.11-.06a1.84,1.84,0,0,1,1.16-.25h.25a.61.61,0,0,0,.42-.11,3.06,3.06,0,0,1,1.12-.45.35.35,0,0,1,.3.06.16.16,0,0,1,.07.1.23.23,0,0,1-.07.16c-.15.07-.32.12-.48.18a3.15,3.15,0,0,0-.45.23.6.6,0,0,0-.31.59,1.2,1.2,0,0,1,0,.31.21.21,0,0,1-.26.13,1.65,1.65,0,0,1-.68-.45.18.18,0,0,0-.23-.06,2.71,2.71,0,0,0-.89.51.54.54,0,0,1-.59.09,1.06,1.06,0,0,1-.59-.45.47.47,0,0,0-.76,0,1.51,1.51,0,0,0-.25.65,4.49,4.49,0,0,1-.09.5.36.36,0,0,1-.43.26h0l-.49-.16a.5.5,0,0,0-.37,0,2.47,2.47,0,0,0-1.14,1,.63.63,0,0,0-.09.49c0,.25.11.5.15.75a.21.21,0,0,1-.11.21,1.41,1.41,0,0,1-.29.13.69.69,0,0,0-.45.49,5.48,5.48,0,0,0-.14.75.51.51,0,0,0,0,.25,2,2,0,0,0,.52.87.36.36,0,0,1,.07.36Z"/><path class="cls-9" d="M118.76,43.86a.8.8,0,0,0,0-.2.4.4,0,0,0-.11-.22,3.37,3.37,0,0,0-.76-.45,1,1,0,0,0-1.26.33,4.91,4.91,0,0,0-.27.45.22.22,0,0,1-.4,0,1.87,1.87,0,0,1-.18-.41.63.63,0,0,0-.35-.45c-.15-.08-.3-.17-.45-.22a.49.49,0,0,0-.62.19c-.08.1-.15.21-.23.31a1.12,1.12,0,0,1-.53.35,2,2,0,0,1-1.19.08,2.32,2.32,0,0,1-.78-.27,1,1,0,0,0-.66-.17,3.38,3.38,0,0,0-.69.12.57.57,0,0,0-.41.45,3,3,0,0,1-.08.37.79.79,0,0,1-.17.26.22.22,0,0,1-.17.06.63.63,0,0,1-.41-.28.13.13,0,0,1,0-.12,1.57,1.57,0,0,0,.25-.71.77.77,0,0,1,.45-.58,5.27,5.27,0,0,1,.72-.26,2.68,2.68,0,0,1,.57-.09,1.78,1.78,0,0,0,.73-.19.41.41,0,0,1,.56.41,2.32,2.32,0,0,1,0,.25.11.11,0,0,0,.1.12h0c.19,0,.38-.06.56-.11a1.11,1.11,0,0,0,.62-.42l.16-.21a.36.36,0,0,1,.33-.15,4,4,0,0,1,1.41.37l.35.17a.33.33,0,0,0,.36,0l.58-.39.76.1a2.08,2.08,0,0,1,1.1.48c.12.09.25.16.37.25a1.12,1.12,0,0,1,.5,1.1,4.46,4.46,0,0,1-.14.75,2.88,2.88,0,0,1-1.14,1.42.51.51,0,0,1-.45.07.32.32,0,0,1-.24-.2.2.2,0,0,1,0-.24c.23-.22.45-.45.7-.65a.89.89,0,0,0,.22-.3A2.26,2.26,0,0,0,118.76,43.86Z"/><path class="cls-9" d="M98.63,45.77l1.07-.14c.36-.05.59-.11.89-.14a1,1,0,0,1,.3,0,.12.12,0,0,1,0,.17,3.24,3.24,0,0,1-1.61.84,1.4,1.4,0,0,1-1-.17l-.27-.17a1.38,1.38,0,0,1-.77-1.11,2.77,2.77,0,0,0-.53-1.34,2.44,2.44,0,0,1-.37-.81c-.09-.31-.18-.62-.25-.92a2.4,2.4,0,0,0-.28-.78,1.49,1.49,0,0,1-.13-.36A.94.94,0,0,1,96,40a1.67,1.67,0,0,1,.28-.26l.79-.54a1.62,1.62,0,0,1,.79-.23A.21.21,0,0,1,98,39a.19.19,0,0,1-.1.25h0l-.29.13a2.15,2.15,0,0,0-1.09.85c0,.05-.08.09-.12.15s-.17.16-.09.27a.36.36,0,0,0,.28.12h.13a7.46,7.46,0,0,0,1.57-.28c.32-.12.65-.2,1-.3l.31-.09,1.6-.65c.14-.06.13-.06.12-.29a.19.19,0,0,1,.06-.16.64.64,0,0,1,.55,0,.75.75,0,0,1,.22.22.35.35,0,0,1-.08.45,2,2,0,0,1-.38.23c-.55.23-1.11.45-1.66.67a3.22,3.22,0,0,1-.37.1c-.33.09-.66.17-1,.29a7,7,0,0,1-1.55.37l-.37.08a.17.17,0,0,0-.12.2,5,5,0,0,0,.69,1.91,2.39,2.39,0,0,1,.38.94c0,.15.06.29.1.45a1.74,1.74,0,0,0,.1.3A.74.74,0,0,0,98.63,45.77Z"/><path class="cls-9" d="M118.2,54a.7.7,0,0,1,.07-.15,6.07,6.07,0,0,1,.89-1.15,1.06,1.06,0,0,1,.56-.29.17.17,0,0,1,.19.19.48.48,0,0,1-.33.45.89.89,0,0,0-.45.33c-.17.22-.34.45-.49.67a1.22,1.22,0,0,0-.12.36,5.77,5.77,0,0,0,.45.6.13.13,0,0,0,.12,0,2.73,2.73,0,0,0,.3-.23c.22-.2.45-.42.66-.6a11,11,0,0,0,1.63-1.78c.47-.55.89-1.22,1.34-1.78s.6-1.12,1-1.65c.29-.37.8-.87,1.12-1.21l.19-.17c.35-.31.25-.25.33.07a.27.27,0,0,1,0,.18,1.83,1.83,0,0,1-.22.31c-.57.63-1.08,1.32-1.61,2-.21.27-.2.59-.47.8s-.74,1.26-1,1.56c-.54.61-.53.71-1.09,1.3A2,2,0,0,1,121,54a12.84,12.84,0,0,0-1.42,1.38,1.27,1.27,0,0,1-.3.24c-.31.18-1.14-.51-1.21-.86A1.34,1.34,0,0,1,118.2,54Z"/><path class="cls-9" d="M83.72,50.94a2.31,2.31,0,0,1-.94-.36,1.44,1.44,0,0,1-.52-.93.21.21,0,0,1,.12-.21,1.3,1.3,0,0,1,.3-.11.48.48,0,0,1,.58.27c.06.13.1.28.16.41a1.17,1.17,0,0,0,.11.23.22.22,0,0,0,.22.09,1.14,1.14,0,0,0,.52-.22l.77-.58a1.37,1.37,0,0,1,.64-.26.45.45,0,0,1,.51.29,4.31,4.31,0,0,0,.3.7.58.58,0,0,0,.65.29l.12,0a.35.35,0,0,0,.23-.2,1.64,1.64,0,0,0,.06-.25.56.56,0,0,1,.36-.41l.24-.08a.61.61,0,0,0,.41-.29.47.47,0,0,1,.55-.21,1.67,1.67,0,0,1,.31.08.45.45,0,0,0,.47-.1,1,1,0,0,0,.36-.66.66.66,0,0,1,.1-.29.61.61,0,0,1,.54-.29.54.54,0,0,1,.28.54,1.14,1.14,0,0,1,0,.32,1.7,1.7,0,0,1-.59.89,1.16,1.16,0,0,1-1,.21.92.92,0,0,0-.45-.09,1,1,0,0,0-.34.36.51.51,0,0,0-.17.33.92.92,0,0,1,0,.19.72.72,0,0,1-.55.56,1.82,1.82,0,0,1-1.13,0,.94.94,0,0,0-.25-.06,1.44,1.44,0,0,1-1-.58l-.12-.15a.19.19,0,0,0-.23,0c-.17.1-.32.21-.48.32A2,2,0,0,1,83.72,50.94Z"/><path class="cls-9" d="M111.18,49.18v.18a.45.45,0,0,1-.07.37.7.7,0,0,1-.5.26,4.93,4.93,0,0,1-.7,0,1.4,1.4,0,0,0-1,.28l-.41.29a2.72,2.72,0,0,1-.79.4,1.24,1.24,0,0,1-1-.08,1,1,0,0,0-1.13.06c-.18.12-.34.25-.52.37a6.13,6.13,0,0,1-.69.45.83.83,0,0,1-1.13-.24,4.07,4.07,0,0,1-.65-1.17.13.13,0,0,1,.14-.16.86.86,0,0,1,.58.36c.33.5.41.47.83.1a3.32,3.32,0,0,1,1.3-.66,1,1,0,0,1,.69,0,.15.15,0,0,1,.12,0,1.23,1.23,0,0,0,1.21-.12c.29-.17.62-.29.91-.45a2.72,2.72,0,0,1,1.17-.28h.32a1.34,1.34,0,0,0,1-.31l.17-.08a.17.17,0,0,1,.2.12Z"/><path class="cls-9" d="M105.72,43.46a2.61,2.61,0,0,1,.25-.92,1.21,1.21,0,0,1,1.09-.76h.32a.51.51,0,0,0,.59-.37,1.64,1.64,0,0,1,.07-.18,1,1,0,0,1,.66-.55,1.58,1.58,0,0,1,.82,0,.57.57,0,0,0,.63-.17,1.28,1.28,0,0,1,.79-.39,1.14,1.14,0,0,1,.38,0,3.2,3.2,0,0,1,1.39.62.54.54,0,0,1,.15.2.21.21,0,0,1,0,.17.25.25,0,0,1-.45,0,.69.69,0,0,0-.45-.41,1.19,1.19,0,0,0-.81,0,.64.64,0,0,0-.24.19c-.11.13-.19.28-.31.4a.48.48,0,0,1-.45.13,5.35,5.35,0,0,0-.76-.09.41.41,0,0,0-.45.36c-.06.18-.1.37-.15.55a.4.4,0,0,1-.37.3,4.86,4.86,0,0,1-.64,0,.75.75,0,0,0-.82.5,2.12,2.12,0,0,0-.15.55,2.1,2.1,0,0,1-.36.81.24.24,0,0,1-.34,0,1.34,1.34,0,0,1-.35-.53A1.3,1.3,0,0,1,105.72,43.46Z"/><path class="cls-9" d="M101.07,48v.11a.47.47,0,0,1-.35.57h-.1a2.15,2.15,0,0,1-.76.08,1.14,1.14,0,0,0-.89.32,2.09,2.09,0,0,0-.55.7,1,1,0,0,0,0,1,1.84,1.84,0,0,1,.18.41.18.18,0,0,1,0,.17.19.19,0,0,1-.17,0,2.6,2.6,0,0,1-.65-.78.63.63,0,0,1,0-.55A3,3,0,0,1,99,48.44a.89.89,0,0,1,.67-.13l.5.07a.23.23,0,0,0,.19-.15,1.18,1.18,0,0,0,0-.19,3.71,3.71,0,0,1,.26-1.11,1.41,1.41,0,0,1,.58-.74c.18-.12.35-.24.52-.37a.45.45,0,0,1,.35-.11.47.47,0,0,0,.5-.18,3.51,3.51,0,0,1,1-.71.52.52,0,0,1,.65.08,2.11,2.11,0,0,1,.24.29.17.17,0,0,1,0,.23.22.22,0,0,1-.17,0,.45.45,0,0,0-.63.06h0a1.62,1.62,0,0,0-.6.64.31.31,0,0,1-.37.19l-.25-.07a.28.28,0,0,0-.25,0,1.78,1.78,0,0,1-.32.21,1.27,1.27,0,0,0-.76,1.16A3.13,3.13,0,0,0,101.07,48Z"/><path class="cls-9" d="M92.71,43a.84.84,0,0,1,.8.53.69.69,0,0,1,0,.5,1.82,1.82,0,0,1-.14.35.74.74,0,0,0,0,.85,2.54,2.54,0,0,1-.18,1.68,1.29,1.29,0,0,1-.58.58c-.32.17-.66.3-1,.45a.28.28,0,0,1-.18,0,1.28,1.28,0,0,1-.58-.38.26.26,0,0,1,0-.3,1.2,1.2,0,0,1,.25-.2l.68-.34a1.23,1.23,0,0,0,.67-1.21.58.58,0,0,0-.11-.29c-.05-.09-.15-.16-.21-.24a.31.31,0,0,1,0-.44h0c.09-.09.18-.18.26-.28a.74.74,0,0,0,.16-.41.24.24,0,0,0-.2-.27h0a1.77,1.77,0,0,1-.37,0,.17.17,0,0,1-.15-.18.24.24,0,0,1,.08-.15A1.36,1.36,0,0,1,92.71,43Z"/><path class="cls-9" d="M133.93,82.78a2.16,2.16,0,0,0-1.69.58,2.8,2.8,0,0,0-.93,1.78.62.62,0,0,1,0,.12.18.18,0,0,1-.22.06.75.75,0,0,1-.32-.84,3.8,3.8,0,0,1,1.68-2.39A2,2,0,0,1,134.2,82a.5.5,0,0,1,.21.67l-.06.09a.28.28,0,0,1-.17.08Z"/><path class="cls-9" d="M125.45,86l.3.06a5.76,5.76,0,0,0,.89.19,1.08,1.08,0,0,1,.86.69.27.27,0,0,1-.07.29l-.36.27a.23.23,0,0,1-.24,0l-.73-.37a1.92,1.92,0,0,0-1.25-.12.74.74,0,0,0-.48.81,2.43,2.43,0,0,0,.12.37c.05.14.12.27.17.41a.25.25,0,0,1,0,.17.17.17,0,0,1-.22,0l-.09-.09a3,3,0,0,1-.45-1,1,1,0,0,1,.06-.69c.06-.13.13-.27.21-.4a.89.89,0,0,1,.6-.45C124.94,86.07,125.22,86,125.45,86Z"/><path class="cls-9" d="M95.83,55.16a.18.18,0,0,0-.17,0,2.73,2.73,0,0,0-.41.4c-.24.3-.45.62-.68.93A3.4,3.4,0,0,0,94,57.56a6.69,6.69,0,0,1-.56,1.21.85.85,0,0,1-.19.25.49.49,0,0,1-.27.14h-.22l-.22,0c-1.88-.48,1.45-.34.08-.89l.17-.25q.45-.61.93-1.18a1.37,1.37,0,0,0,.29-.41,5.41,5.41,0,0,0,.16-.74.06.06,0,0,0,0-.05.17.17,0,0,0-.11,0,1.49,1.49,0,0,0-.25.19c-.3.3-.58.62-.89.89l-.25.24a3.45,3.45,0,0,0-.23.27c-.66.53-.79,2.48-2.29,2.09h0A5.07,5.07,0,0,1,90,57.86a3.4,3.4,0,0,1,0-.57,4.59,4.59,0,0,0-.22-2c-.09-.26-.19-.52-.27-.78a.5.5,0,0,1,.15-.58c.34-.29.67-.58,1-.85.69-.5,1.4-1,2.1-1.45l.25-.2a.23.23,0,0,0,.07-.11.15.15,0,0,0,0-.12.35.35,0,0,0-.16-.08.19.19,0,0,0-.12,0l-.37.25c-.75.52-1.5,1-2.23,1.57-.23.16-.45.34-.65.51a1,1,0,0,0-.41,1.12c.06.26.11.52.16.78a7.5,7.5,0,0,0,.08,1.25h0v.17a1.93,1.93,0,0,0-.06.45.35.35,0,0,0,0,.41v.11l0,.15-.06.25c0,.1,0,.2-.06.3a1.51,1.51,0,0,0,.12.45c0,.13.08.29.13.42a.86.86,0,0,0,1,.66,1,1,0,0,0,.31-.07c.56-.47.77-.25,1.62-.22l.29,0,.28,0a.94.94,0,0,0,.69-.41,1.57,1.57,0,0,0,.17-.27,8.06,8.06,0,0,0,.62-1.34,1.34,1.34,0,0,1,.16-.35c.39-.61.71-1.26,1.16-1.83a.35.35,0,0,0,.08-.17A.22.22,0,0,0,95.83,55.16Z"/><path class="cls-9" d="M112.48,45.34a.82.82,0,0,1,.89.73.59.59,0,0,0,.45.62.84.84,0,0,1,.49.63.58.58,0,0,1-.15.59,4.59,4.59,0,0,1-.48.41.51.51,0,0,1-.71-.13l0-.08a.23.23,0,0,1,0-.24c.1-.14.21-.27.31-.4l.1-.17a.17.17,0,0,0-.08-.23h0L112.9,47a.74.74,0,0,1-.45-.26.71.71,0,0,1-.16-.54.18.18,0,0,0,0-.12.15.15,0,0,0-.1-.06,1.86,1.86,0,0,0-.61.18.21.21,0,0,1-.22-.07.28.28,0,0,1,0-.18,1.28,1.28,0,0,1,.71-.51Z"/><path class="cls-9" d="M105.56,48.07a3.12,3.12,0,0,1,.34-.94.15.15,0,0,1,.11,0,.47.47,0,0,1,.35.12.3.3,0,0,1,0,.4l-.1.08a.34.34,0,0,0-.2.3,2.13,2.13,0,0,0,0,.25.27.27,0,0,0,.09.22.27.27,0,0,0,.29-.06l.23-.22c.06-.06.1-.14.16-.2a.69.69,0,0,1,.3-.38,1.44,1.44,0,0,1,.45.08,1,1,0,0,0,.5,0l.67-.21a.13.13,0,0,1,.11,0,.14.14,0,0,1,0,.12.47.47,0,0,1-.3.31,5,5,0,0,1-.8.22.83.83,0,0,0-.65.45c-.05.09-.1.19-.16.28a.77.77,0,0,1-.17.19.81.81,0,0,1-1.13-.2l0,0A1.25,1.25,0,0,1,105.56,48.07Z"/><path class="cls-9" d="M103,47.68a3.36,3.36,0,0,1,.13-.35.33.33,0,0,1,.25-.17.2.2,0,0,1,.22.24c0,.06-.07.11-.09.17-.1.23-.08.3.15.47a.84.84,0,0,1,.19.17.2.2,0,0,1,0,.18,1,1,0,0,0-.2.72.16.16,0,0,1-.2.12h0a.45.45,0,0,1-.37-.39,5.1,5.1,0,0,0-.12-1A.84.84,0,0,1,103,47.68Z"/><path class="cls-9" d="M122.63,66c-.13.09-.13.09-.26,0h.26Z"/><path class="cls-9" d="M68.78,120.76c-.36,0-.72,0-1.08,0a6.69,6.69,0,0,1-1.83-.25,1.37,1.37,0,0,0-.57,0,2.7,2.7,0,0,1-.76,0,10,10,0,0,1-2.41-.58c-.45-.19-.89-.32-1.31-.52a3.12,3.12,0,0,1-1.75-1.92,2.12,2.12,0,0,1-.1-.56c0-.3,0-.6,0-.89a1.05,1.05,0,0,1,.36-.73,1.85,1.85,0,0,1,.81-.49l.87-.21a1,1,0,0,1,.8.07,1.17,1.17,0,0,0,.49.12,13,13,0,0,1,3,.77,4.74,4.74,0,0,0,.49.16,4.91,4.91,0,0,1,1.3.51,3.68,3.68,0,0,0,.95.37c.84.22,1.68.49,2.52.73l.18.07a18,18,0,0,0,2,.76c.8.29,1.6.6,2.38.94a5.25,5.25,0,0,0,2.05.41A4.36,4.36,0,0,0,79,119c.39-.17.79-.3,1.2-.45a5.9,5.9,0,0,1,1.95-.29,3.43,3.43,0,0,1,.82.13c.33.08.65.2,1,.3s.89.26,1.34.41a7.68,7.68,0,0,1,.95.38c.59.29,1.18.6,1.75.92a6.57,6.57,0,0,1,.78.56c.22.17.17.22.12.5a2.37,2.37,0,0,1,0,.5c-.15.45-.34.45-.71.52a.33.33,0,0,1-.18,0,2.11,2.11,0,0,0-.87-.2,7.58,7.58,0,0,1-1.26-.19,2.6,2.6,0,0,1-.54-.19,3.65,3.65,0,0,0-.73-.24,5.94,5.94,0,0,1-.61-.21,1.86,1.86,0,0,0-.81-.12.07.07,0,0,0,0,0,.24.24,0,0,0,0,.12.23.23,0,0,0,.1.08,9.47,9.47,0,0,0,1.3.52,8.37,8.37,0,0,1,1,.35,8.76,8.76,0,0,0,1.2.45,1.59,1.59,0,0,1,.62.32l.7.56a1.41,1.41,0,0,1,.18.18.59.59,0,0,1,.08.76c0,.05-.06.11-.09.17a.36.36,0,0,1-.37.2c-.4-.05-.8-.09-1.2-.17a9.72,9.72,0,0,1-1-.26,5.1,5.1,0,0,0-.89-.18c-.45-.05-.92-.15-1.38-.24a3.43,3.43,0,0,0-.82-.09.21.21,0,0,0-.12,0,.37.37,0,0,0-.11.14.12.12,0,0,0,0,.11,1.58,1.58,0,0,0,.33.2c.58.22,1.15.45,1.74.65a8,8,0,0,0,1.55.39,1.09,1.09,0,0,1,.74.45A1.7,1.7,0,0,1,87,127a.89.89,0,0,1-.32.74,1.6,1.6,0,0,1-.49.29.84.84,0,0,1-.37,0,1.65,1.65,0,0,1-.37-.08,14.31,14.31,0,0,0-1.49-.33,9.45,9.45,0,0,1-1.6-.45,2.33,2.33,0,0,0-.55-.16,7.68,7.68,0,0,1-1.83-.56c-.22-.08-.45-.2-.64-.29a4.76,4.76,0,0,1-.93-.56,3.63,3.63,0,0,0-.45-.29,1.34,1.34,0,0,1-.7-1.08,4,4,0,0,0-.45-1.39,3.32,3.32,0,0,0-.69-.83,1.06,1.06,0,0,0-.58-.25,4.59,4.59,0,0,1-1-.31,4.2,4.2,0,0,0-1.43-.3,11.7,11.7,0,0,1-2-.29,4.93,4.93,0,0,0-.76-.09l-1.66-.07h0Zm-.09-.81h.25a13.72,13.72,0,0,1,2.6.22l.25,0c.53.06,1.06.13,1.59.18a4,4,0,0,1,1.17.3l1.34.57a2.83,2.83,0,0,1,.79.53,3.2,3.2,0,0,1,1.05,1.86c0,.21.08.42.13.62a.41.41,0,0,0,.12.22,4.4,4.4,0,0,0,1.1.75,15.45,15.45,0,0,0,2.49.8,5.11,5.11,0,0,1,.67.2c.16.05.32.12.48.17l2.58.73a2.23,2.23,0,0,0,.89.08.78.78,0,0,0,.24-.09.2.2,0,0,0,.06-.23,3.57,3.57,0,0,1-.24-.29.57.57,0,0,0-.47-.28,8.87,8.87,0,0,1-1.61-.41c-.35-.1-.69-.23-1-.34s-.49-.16-.72-.26a.89.89,0,0,1-.62-1.1h0a.56.56,0,0,1,0-.06.72.72,0,0,1,.8-.64l.15,0h.06l1.44.31a4.39,4.39,0,0,1,.67.2,10.84,10.84,0,0,0,2.34.62,2.29,2.29,0,0,0,.45,0,.14.14,0,0,0,.1-.06.12.12,0,0,0,0-.11,1.83,1.83,0,0,0-1.16-.73,5.11,5.11,0,0,1-1.39-.47,1.46,1.46,0,0,0-.36-.14c-.63-.13-1.19-.47-1.78-.64a.73.73,0,0,1-.52-.56,2.84,2.84,0,0,1,0-.89.45.45,0,0,1,.47-.42h0l.19,0a9.09,9.09,0,0,1,1.17.32,13.44,13.44,0,0,1,1.34.45l.12,0a12.46,12.46,0,0,0,2,.25h.19a.2.2,0,0,0,.2-.13.3.3,0,0,0-.08-.16,2.65,2.65,0,0,0-.37-.25c-.49-.27-1-.54-1.46-.79a3.42,3.42,0,0,0-1.38-.45,1.24,1.24,0,0,1-.31-.08c-.53-.17-1.06-.32-1.58-.5a2.76,2.76,0,0,0-1.26-.13,8.16,8.16,0,0,0-2.63.74,3.63,3.63,0,0,1-1,.35,5.17,5.17,0,0,1-2.81-.35l-1.07-.42-.54-.2c-.45-.17-.89-.36-1.38-.51a9.41,9.41,0,0,1-1.13-.45,4.69,4.69,0,0,0-.72-.26l-2.65-.73a1.92,1.92,0,0,1-.79-.4,2,2,0,0,0-.89-.45l-.56-.15a6.13,6.13,0,0,1-.89-.33,6.11,6.11,0,0,0-1.84-.52,5.54,5.54,0,0,1-1.13-.21,3,3,0,0,0-.89-.07.82.82,0,0,0-.42.13,6.4,6.4,0,0,0-.73.52.86.86,0,0,0-.22,1.09,5.1,5.1,0,0,0,.51.73,1.48,1.48,0,0,0,.69.54c.48.19,1,.38,1.42.58a5.28,5.28,0,0,0,1,.32l1.06.22c.58.12,1.17.21,1.75.34a6.57,6.57,0,0,0,1.26.17Z"/><path class="cls-9" d="M74.07,70.84c-.36.45-.85,1.12.08.81a18.64,18.64,0,0,0,4.11-2.36c.36-.45,2.11-1.06,2.12-1.4s-.2-.7-.89-.27a16.1,16.1,0,0,0-2.12,1.29c-.48.45-.59.32-1.18.75s-1,.89-1.3,1Z"/><path class="cls-9" d="M155.14,73.62a.69.69,0,0,1,0-.19c0-.68-.09-1.34-.15-2a16.21,16.21,0,0,1-.09-2.3c0-.45,0-.94.05-1.4a19.92,19.92,0,0,0,0-2.62,5.52,5.52,0,0,0-.18-1.26,2,2,0,0,1,0-1.32.37.37,0,0,0-.12-.4.63.63,0,0,0-.45-.2,3.54,3.54,0,0,1-.75-.12,3.35,3.35,0,0,0-.57-.07,51.54,51.54,0,0,1-6.13-1.9,1.49,1.49,0,0,0-.45-.24,16.06,16.06,0,0,1-1.61-.61,6.41,6.41,0,0,0-.66-.24,5.85,5.85,0,0,1-1.07-.39.19.19,0,0,0-.12,0,.34.34,0,0,0-.15.09.12.12,0,0,0,0,.12,2.11,2.11,0,0,0,1,.74,13.32,13.32,0,0,1,1.53.65c.21.1.45.17.65.26s.28.1.41.17a.53.53,0,0,1,.13.1c.78.15,6.72,1.78,7,2a.67.67,0,0,1,.27.3h0a.27.27,0,0,1,.23.19,2.14,2.14,0,0,1,.1.82q-.07,1.57-.13,3.12h0c0,.83-.07,1.66-.1,2.49v.89c.05.81.12,1.61.16,2.42s.11,1.49.17,2.23a.48.48,0,0,0,0,.18.22.22,0,0,0,.13.12,1.78,1.78,0,0,0,.45,0,.32.32,0,0,0,.25-.26A2.72,2.72,0,0,0,155.14,73.62Z"/><path class="cls-9" d="M76.7,72.51c0,.59.08.84.45.62a27.3,27.3,0,0,0,3.57-2.36c.15-.35-.21-.6-.83-.15a6.54,6.54,0,0,1-1.11.79c-.61.33-.86.56-1.22.78A3.1,3.1,0,0,1,76.7,72.51Z"/><path class="cls-9" d="M122.66,49.6Z"/><path class="cls-9" d="M127.68,45.15l-.13.12,0-.05a1,1,0,0,1,0-.35,3.35,3.35,0,0,1,.14-.39c.32-.29.23-.82-.1-.73h-.08a4.32,4.32,0,0,0-.87.66l-.08.07a1.55,1.55,0,0,1-.52.41c-.11,0,.05-.48.45-.87.66-.68.39-1.2-.17-.73l-.88,1-.12.13a.23.23,0,0,0-.12.06,1,1,0,0,0-.55,1.07,4.59,4.59,0,0,1-.24,1.31.62.62,0,0,1-.16.27c-.21.24-.41.49-.64.71-.58.59-1.17,1.18-1.75,1.78l-.17.19-.92,1.06a2.07,2.07,0,0,0-.41.55,1,1,0,0,0,.5-.35,5,5,0,0,1,.62-.55,6.31,6.31,0,0,0,1.2-1.14,6.07,6.07,0,0,1,.87-.94,5.51,5.51,0,0,0,.89-1,1.38,1.38,0,0,0,.28-.64,9.14,9.14,0,0,0,.19-1.34.54.54,0,0,1,.29-.47,3.22,3.22,0,0,1,.34-.45c.22-.25.23-.06.1.18s.22.59.22.59l.37,0a4.26,4.26,0,0,0,.32-.3c.15-.16.12-.11.23-.23.4-.41.32.08.32.08a5.89,5.89,0,0,0-.32.84c0,.18.25.25.45.12.66-.48.73-.45.73-.45a3,3,0,0,0-.3.39s-.53.57-.6.63c-.35.41.12.21.12.21a.78.78,0,0,0,.39-.35c.42-.5.33-.28.74-.8s.31-.45.35-.82S127.68,45.15,127.68,45.15Z"/></g></svg>