<?xml version="1.0" encoding="UTF-8" standalone="no"?>
<svg
   xmlns:dc="http://purl.org/dc/elements/1.1/"
   xmlns:cc="http://creativecommons.org/ns#"
   xmlns:rdf="http://www.w3.org/1999/02/22-rdf-syntax-ns#"
   xmlns:svg="http://www.w3.org/2000/svg"
   xmlns="http://www.w3.org/2000/svg"
   xmlns:xlink="http://www.w3.org/1999/xlink"
   xmlns:sodipodi="http://sodipodi.sourceforge.net/DTD/sodipodi-0.dtd"
   xmlns:inkscape="http://www.inkscape.org/namespaces/inkscape"
   version="1.0"
   width="6653.2002"
   height="3434"
   viewBox="-28565 -15756 66070 33878"
   id="svg2"
   sodipodi:version="0.32"
   inkscape:version="0.46"
   sodipodi:docname="Map_of_districts_in_the_Coronado_Area_Council_BSA.svg"
   inkscape:output_extension="org.inkscape.output.svg.inkscape">
  <metadata
     id="metadata121">
    <rdf:RDF>
      <cc:Work
         rdf:about="">
        <dc:format>image/svg+xml</dc:format>
        <dc:type
           rdf:resource="http://purl.org/dc/dcmitype/StillImage" />
      </cc:Work>
    </rdf:RDF>
  </metadata>
  <defs
     id="defs119">
    <inkscape:perspective
       sodipodi:type="inkscape:persp3d"
       inkscape:vp_x="0 : 1693.9 : 1"
       inkscape:vp_y="0 : 1000 : 0"
       inkscape:vp_z="6607 : 1693.9 : 1"
       inkscape:persp3d-origin="3303.5 : 1129.2667 : 1"
       id="perspective123" />
  </defs>
  <sodipodi:namedview
     inkscape:window-height="744"
     inkscape:window-width="1280"
     inkscape:pageshadow="2"
     inkscape:pageopacity="0.0"
     guidetolerance="10.0"
     gridtolerance="10.0"
     objecttolerance="10.0"
     borderopacity="1.0"
     bordercolor="#666666"
     pagecolor="#ffffff"
     id="base"
     showgrid="false"
     inkscape:zoom="0.15695981"
     inkscape:cx="3326.6001"
     inkscape:cy="1984.5664"
     inkscape:window-x="110"
     inkscape:window-y="145"
     inkscape:current-layer="svg2" />
  <clipPath
     id="state_clip_path">
    <g
       id="state_outline">
      <path
         id="Kansas"
         d="M -27452,-15703 L -25853,-15648 L -25149,-15625 L -23822,-15585 L -23156,-15567 L -22007,-15536 L -21654,-15524 L -21054,-15506 L -18506,-15435 L -16449,-15385 L -16425,-15384 L -16280,-15381 L -15815,-15371 L -11625,-15291 L -11602,-15291 L -11487,-15289 L -9926,-15269 L -6783,-15234 L -6770,-15234 L -3840,-15212 L -3129,-15208 L -2958,-15206 L -1996,-15201 L -1420,-15198 L 892,-15210 L 1141,-15211 L 2808,-15218 L 4764,-15230 L 6865,-15236 L 7168,-15238 L 7714,-15246 L 8640,-15261 L 8672,-15261 L 12486,-15313 L 12507,-15313 L 12804,-15317 L 15645,-15359 L 16352,-15371 L 17305,-15390 L 20204,-15465 L 20235,-15466 L 22160,-15505 L 24107,-15562 L 24194,-15565 L 26015,-15626 L 28071,-15699 L 28880,-15718 L 28978,-15724 L 29828,-15754 L 30099,-15756 L 30091,-15688 L 30121,-15625 L 30173,-15575 L 30224,-15535 L 30299,-15505 L 30368,-15474 L 30420,-15440 L 30477,-15396 L 30522,-15328 L 30559,-15285 L 30590,-15242 L 30644,-15200 L 30698,-15174 L 30739,-15160 L 30797,-15155 L 30858,-15159 L 30904,-15167 L 30961,-15156 L 30993,-15138 L 31017,-15094 L 31037,-15051 L 31047,-15016 L 31055,-14986 L 31053,-14945 L 31050,-14910 L 31033,-14885 L 31017,-14844 L 31007,-14809 L 31007,-14781 L 31036,-14747 L 31074,-14724 L 31122,-14693 L 31182,-14679 L 31241,-14681 L 31305,-14710 L 31350,-14738 L 31392,-14766 L 31434,-14780 L 31480,-14788 L 31528,-14766 L 31551,-14736 L 31559,-14682 L 31566,-14652 L 31569,-14612 L 31577,-14567 L 31596,-14523 L 31619,-14490 L 31660,-14455 L 31694,-14439 L 31737,-14425 L 31768,-14414 L 31804,-14396 L 31858,-14374 L 31902,-14361 L 31953,-14335 L 32009,-14326 L 32050,-14321 L 32139,-14318 L 32283,-14327 L 32378,-14344 L 32435,-14369 L 32498,-14413 L 32535,-14461 L 32543,-14497 L 32550,-14548 L 32552,-14593 L 32551,-14632 L 32577,-14671 L 32617,-14733 L 32679,-14763 L 32740,-14769 L 32797,-14754 L 32818,-14753 L 32869,-14749 L 32925,-14755 L 32977,-14763 L 33022,-14780 L 33079,-14791 L 33130,-14786 L 33191,-14781 L 33249,-14762 L 33320,-14722 L 33351,-14687 L 33382,-14634 L 33392,-14601 L 33393,-14556 L 33382,-14526 L 33367,-14485 L 33343,-14455 L 33322,-14410 L 33306,-14374 L 33296,-14334 L 33313,-14286 L 33333,-14249 L 33353,-14208 L 33393,-14171 L 33431,-14138 L 33477,-14118 L 33508,-14104 L 33549,-14094 L 33595,-14084 L 33672,-14084 L 33723,-14080 L 33749,-14065 L 33780,-14035 L 33806,-14007 L 33829,-13968 L 33842,-13934 L 33844,-13919 L 33852,-13864 L 33855,-13814 L 33843,-13768 L 33833,-13723 L 33812,-13677 L 33779,-13647 L 33760,-13630 L 33731,-13621 L 33680,-13600 L 33633,-13586 L 33584,-13573 L 33536,-13570 L 33500,-13570 L 33449,-13559 L 33423,-13539 L 33398,-13514 L 33384,-13484 L 33382,-13443 L 33390,-13403 L 33402,-13374 L 33431,-13330 L 33450,-13318 L 33481,-13298 L 33534,-13262 L 33614,-13258 L 33687,-13272 L 33737,-13294 L 33785,-13334 L 33814,-13365 L 33850,-13390 L 33891,-13391 L 33937,-13375 L 33973,-13336 L 33989,-13293 L 34004,-13228 L 34010,-13175 L 34010,-13119 L 33995,-13064 L 33967,-13009 L 33920,-12950 L 33872,-12901 L 33816,-12872 L 33772,-12859 L 33693,-12861 L 33616,-12875 L 33522,-12913 L 33419,-12986 L 33339,-13040 L 33295,-13064 L 33259,-13076 L 33208,-13058 L 33180,-13044 L 33150,-13013 L 33129,-12978 L 33119,-12918 L 33114,-12847 L 33119,-12724 L 33125,-12623 L 33131,-12550 L 33131,-12490 L 33116,-12429 L 33100,-12399 L 33067,-12362 L 33024,-12338 L 32982,-12321 L 32942,-12307 L 32891,-12304 L 32835,-12285 L 32758,-12256 L 32681,-12190 L 32620,-12114 L 32575,-12046 L 32530,-11952 L 32473,-11841 L 32446,-11754 L 32433,-11695 L 32433,-11670 L 32432,-11647 L 32459,-11589 L 32474,-11539 L 32495,-11494 L 32507,-11456 L 32520,-11416 L 32516,-11378 L 32505,-11344 L 32488,-11298 L 32460,-11256 L 32430,-11222 L 32392,-11195 L 32333,-11176 L 32286,-11158 L 32229,-11164 L 32194,-11175 L 32150,-11194 L 32109,-11196 L 32063,-11188 L 32035,-11179 L 31999,-11149 L 31969,-11103 L 31942,-11013 L 31941,-10948 L 31951,-10888 L 31994,-10775 L 32048,-10676 L 32080,-10643 L 32135,-10585 L 32212,-10522 L 32294,-10462 L 32363,-10421 L 32428,-10375 L 32475,-10336 L 32506,-10290 L 32527,-10240 L 32544,-10181 L 32549,-10116 L 32557,-10076 L 32576,-10012 L 32605,-9954 L 32636,-9914 L 32683,-9878 L 32770,-9844 L 32929,-9785 L 33001,-9760 L 33062,-9740 L 33096,-9714 L 33119,-9690 L 33136,-9651 L 33149,-9617 L 33162,-9567 L 33192,-9514 L 33218,-9474 L 33247,-9452 L 33274,-9429 L 33320,-9414 L 33359,-9399 L 33397,-9384 L 33440,-9344 L 33470,-9304 L 33471,-9260 L 33469,-9220 L 33477,-9185 L 33501,-9136 L 33542,-9103 L 33576,-9086 L 33584,-9081 L 33614,-9063 L 33670,-9067 L 33722,-9089 L 33760,-9108 L 33809,-9135 L 33859,-9150 L 33890,-9157 L 33931,-9150 L 33968,-9121 L 33998,-9079 L 34025,-9031 L 34035,-8991 L 34023,-8939 L 34005,-8905 L 33974,-8874 L 33942,-8848 L 33903,-8813 L 33869,-8783 L 33857,-8763 L 33842,-8723 L 33832,-8682 L 33824,-8628 L 33828,-8568 L 33837,-8503 L 33843,-8466 L 33855,-8393 L 33890,-8270 L 33947,-8159 L 34029,-8034 L 34143,-7944 L 34240,-7884 L 34356,-7837 L 34432,-7781 L 34483,-7719 L 34524,-7664 L 34564,-7588 L 34565,-7498 L 34550,-7433 L 34520,-7392 L 34495,-7316 L 34505,-7271 L 34558,-7225 L 34608,-7186 L 34681,-7157 L 34743,-7146 L 34805,-7151 L 34850,-7159 L 34902,-7152 L 34936,-7148 L 34956,-7126 L 34983,-7098 L 35003,-7063 L 35035,-7020 L 35059,-6966 L 35096,-6917 L 35137,-6875 L 35184,-6832 L 35230,-6801 L 35287,-6773 L 35356,-6759 L 35418,-6753 L 35492,-6754 L 35569,-6764 L 35632,-6778 L 35681,-6815 L 35710,-6844 L 35753,-6881 L 35789,-6901 L 35860,-6912 L 35897,-6912 L 35926,-6914 L 35969,-6897 L 36025,-6868 L 36040,-6842 L 36045,-6812 L 36041,-6777 L 36030,-6752 L 36031,-6727 L 36046,-6696 L 36072,-6666 L 36109,-6644 L 36142,-6626 L 36185,-6617 L 36241,-6617 L 36305,-6637 L 36339,-6653 L 36381,-6662 L 36420,-6679 L 36467,-6689 L 36518,-6691 L 36538,-6692 L 36559,-6690 L 36591,-6672 L 36614,-6638 L 36631,-6599 L 36641,-6574 L 36647,-6534 L 36639,-6488 L 36637,-6463 L 36612,-6403 L 36581,-6357 L 36568,-6332 L 36550,-6302 L 36525,-6251 L 36528,-6188 L 36571,-5401 L 36573,-5358 L 36667,-3210 L 36671,-3075 L 36705,-2003 L 36820,902 L 36823,997 L 36854,1863 L 36982,4917 L 37011,5520 L 37022,5778 L 37192,9804 L 37201,10023 L 37209,10216 L 37329,13035 L 37337,13237 L 37349,13523 L 37478,16628 L 37505,17278 L 35366,17375 L 33822,17445 L 33817,17452 L 33474,17465 L 30555,17558 L 30498,17560 L 29457,17593 L 29458,17600 L 27248,17675 L 27102,17680 L 26996,17683 L 25862,17719 L 25537,17730 L 25529,17730 L 25447,17733 L 25216,17742 L 24375,17766 L 24180,17767 L 23113,17797 L 23031,17802 L 22718,17810 L 22513,17815 L 20517,17865 L 20401,17868 L 20381,17869 L 18517,17924 L 16954,17959 L 16062,17978 L 15013,17999 L 15013,17991 L 14559,18006 L 13907,18015 L 12661,18031 L 12228,18036 L 12204,18036 L 11554,18045 L 9711,18068 L 9181,18074 L 8321,18083 L 6939,18096 L 6382,18101 L 4489,18113 L 4318,18114 L 2964,18121 L 2560,18122 L -1489,18119 L -5049,18112 L -5504,18111 L -6290,18107 L -10394,18080 L -10408,18080 L -11189,18071 L -11347,18069 L -16027,17988 L -18790,17928 L -18874,17927 L -19885,17913 L -21673,17881 L -24129,17830 L -24230,17827 L -27459,17752 L -28083,17734 L -28438,17723 L -28560,17721 L -28565,17721 L -28518,16413 L -28501,15904 L -28496,15743 L -28485,15416 L -28480,15275 L -28469,14928 L -28465,14792 L -28417,13327 L -28324,10502 L -28289,9442 L -28097,3624 L -28095,3569 L -27970,-273 L -27939,-1178 L -27808,-5066 L -27776,-6045 L -27615,-10873 L -27613,-10928 L -27452,-15703 z" />
    </g>
  </clipPath>
  <g
     id="g3707"
     transform="matrix(0.9923925,0,0,0.9905501,71.516434,60.062263)">
    <use
       xlink:href="#state_outline"
       id="use9"
       style="fill:#ffffff;stroke:#000000;stroke-width:462;stroke-linejoin:round"
       x="0"
       y="0"
       width="66070"
       height="33878" />
    <path
       id="Allen"
       d="M 29083,6082 L 32950,5941 L 33067,8341 L 32959,8347 L 33014,9318 L 33014,9328 L 29147,9469 L 29123,8498 L 29174,8498 L 29083,6082 z"
       style="fill:#ffffff;stroke:#000000;stroke-width:105;stroke-linejoin:round" />
    <path
       id="Anderson"
       d="M 29032,2177 L 32904,2020 L 32997,3520 L 32915,3551 L 32950,5941 L 29083,6082 L 29069,3732 L 29171,3722 L 29032,2177 z"
       style="fill:#ffffff;stroke:#000000;stroke-width:105;stroke-linejoin:round" />
    <path
       id="Atchison"
       d="M 28053,-11831 L 29976,-11882 L 31898,-11969 L 32069,-11693 L 32079,-11663 L 32433,-11670 L 32432,-11647 L 32459,-11589 L 32474,-11539 L 32495,-11494 L 32507,-11456 L 32520,-11416 L 32516,-11378 L 32505,-11344 L 32488,-11298 L 32460,-11256 L 32430,-11222 L 32392,-11195 L 32333,-11176 L 32286,-11158 L 32229,-11164 L 32194,-11175 L 32150,-11194 L 32109,-11196 L 32063,-11188 L 32035,-11179 L 31999,-11149 L 31969,-11103 L 31942,-11013 L 31941,-10948 L 31951,-10888 L 31994,-10775 L 32048,-10676 L 32080,-10643 L 32135,-10585 L 32212,-10522 L 32294,-10462 L 32363,-10421 L 32428,-10375 L 32475,-10336 L 32506,-10290 L 32527,-10240 L 32544,-10181 L 32549,-10116 L 32557,-10076 L 32576,-10012 L 32605,-9954 L 32636,-9914 L 32683,-9878 L 32770,-9844 L 32929,-9785 L 33001,-9760 L 33062,-9740 L 33096,-9714 L 33119,-9690 L 33136,-9651 L 33149,-9617 L 33162,-9567 L 33192,-9514 L 33218,-9474 L 33247,-9452 L 33274,-9429 L 31464,-9358 L 28091,-9233 L 28037,-10859 L 28088,-10860 L 28053,-11831 z"
       style="fill:#ffffff;stroke:#000000;stroke-width:105;stroke-linejoin:round" />
    <path
       id="Barber"
       d="M -1595,12900 L 3248,12888 L 3246,13849 L 4277,13840 L 4318,18114 L 2964,18121 L 2560,18122 L -1489,18119 L -1484,13855 L -1596,13856 L -1595,12900 z"
       style="fill:#ffffff;stroke:#000000;stroke-width:105;stroke-linejoin:round" />
    <path
       id="Barton"
       d="M 3014,-710 L 3066,-715 L 3068,1237 L 3078,4135 L -703,4128 L -1739,4121 L -1747,3160 L -1741,-709 L 2050,-692 L 2112,-702 L 3014,-710 z"
       style="fill:#ffffff;stroke:#000000;stroke-width:105;stroke-linejoin:round" />
    <path
       id="Bourbon"
       d="M 32950,5941 L 37022,5778 L 37192,9804 L 33037,9972 L 33014,9328 L 33014,9318 L 32959,8347 L 33067,8341 L 32950,5941 z"
       style="fill:#ffffff;stroke:#000000;stroke-width:105;stroke-linejoin:round" />
    <path
       id="Brown"
       d="M 29828,-15754 L 29835,-15507 L 29841,-15376 L 29976,-11882 L 28053,-11831 L 27545,-11813 L 26756,-11784 L 26130,-11765 L 26015,-15626 L 28071,-15699 L 28880,-15718 L 28978,-15724 L 29828,-15754 z"
       style="fill:#ffffff;stroke:#000000;stroke-width:105;stroke-linejoin:round" />
    <path
       id="Butler"
       d="M 20259,5809 L 20376,11127 L 20407,12581 L 14877,12706 L 14778,7861 L 14734,5919 L 17484,5882 L 20259,5809 z"
       style="fill:#ffffff;stroke:#000000;stroke-width:105;stroke-linejoin:round" />
    <path
       id="Chase"
       d="M 17548,1021 L 21620,937 L 21691,4806 L 21736,5772 L 20259,5809 L 17484,5882 L 17401,2969 L 17591,2963 L 17548,1021 z"
       style="fill:#ffffff;stroke:#000000;stroke-width:105;stroke-linejoin:round" />
    <path
       id="Chautauqua"
       d="M 20449,14508 L 25446,14409 L 25517,17308 L 25523,17469 L 25529,17730 L 25447,17733 L 25216,17742 L 24375,17766 L 24180,17767 L 23113,17797 L 23031,17802 L 22718,17810 L 22513,17815 L 20517,17865 L 20449,14508 z"
       style="fill:#ffffff;stroke:#000000;stroke-width:105;stroke-linejoin:round" />
    <path
       id="Cherokee"
       d="M 33307,13660 L 37349,13523 L 37478,16628 L 37505,17278 L 35366,17375 L 33822,17445 L 33817,17452 L 33474,17465 L 33473,17457 L 33307,13660 z"
       style="fill:#ffffff;stroke:#000000;stroke-width:105;stroke-linejoin:round" />
    <path
       id="Cheyenne"
       d="M -27452,-15703 L -25853,-15648 L -25149,-15625 L -23822,-15585 L -23156,-15567 L -22007,-15536 L -22036,-14542 L -22059,-13586 L -22092,-12614 L -22130,-11652 L -22164,-10696 L -22912,-10715 L -23123,-10724 L -23877,-10738 L -24087,-10753 L -24830,-10777 L -25051,-10781 L -25784,-10806 L -26025,-10815 L -26743,-10839 L -26984,-10844 L -27615,-10873 L -27613,-10928 L -27452,-15703 z"
       style="fill:#ffff00;stroke:#000000;stroke-width:105;stroke-linejoin:round" />
    <path
       id="Clark"
       d="M -11265,12779 L -6391,12900 L -6393,13851 L -6290,13856 L -6290,18107 L -10394,18080 L -10408,18080 L -11189,18071 L -11128,13774 L -11272,13765 L -11265,12779 z"
       style="fill:#ffffff;stroke:#000000;stroke-width:105;stroke-linejoin:round" />
    <path
       id="Clay"
       d="M 12588,-10476 L 16065,-10527 L 16149,-7658 L 16158,-6682 L 16153,-6505 L 16154,-6339 L 16154,-6284 L 16167,-5710 L 12638,-5654 L 12621,-7582 L 12588,-10476 z"
       style="fill:#ff00ff;stroke:#000000;stroke-width:105;stroke-linejoin:round" />
    <path
       id="Cloud"
       d="M 7749,-11376 L 12574,-11432 L 12610.772,-10476 L 12621,-7582 L 7800,-7521 L 7789,-10410 L 7758,-10410 L 7749,-11376 z"
       sodipodi:nodetypes="cccccccc"
       style="fill:#00ff00;stroke:#000000;stroke-width:105;stroke-linejoin:round" />
    <path
       id="Coffey"
       d="M 25163,1800 L 29009,1689 L 29032,2177 L 29171,3722 L 29069,3732 L 29083,6082 L 25221,6183 L 25179,4728 L 25150,3863 L 25211,3737 L 25211,3591 L 25200,3450 L 25189,3234 L 25188,2907 L 25182,2771 L 25163,1800 z"
       style="fill:#ffffff;stroke:#000000;stroke-width:105;stroke-linejoin:round" />
    <path
       id="Comanche"
       d="M -6290,13856 L -5428,13858 L -5321,13868 L -1596,13856 L -1484,13855 L -1489,18119 L -5049,18112 L -5504,18111 L -6290,18107 L -6290,13856 z"
       style="fill:#ffffff;stroke:#000000;stroke-width:105;stroke-linejoin:round" />
    <path
       id="Cowley"
       d="M 20407,12581 L 20449,14508 L 20517,17865 L 20401,17868 L 20381,17869 L 18517,17924 L 16954,17959 L 16062,17978 L 15013,17999 L 15013,17991 L 14877,12706 L 20407,12581 z"
       style="fill:#ffffff;stroke:#000000;stroke-width:105;stroke-linejoin:round" />
    <path
       id="Crawford"
       d="M 33037,9972 L 37192,9804 L 37201,10023 L 37209,10216 L 37329,13035 L 37337,13237 L 37349,13523 L 33307,13660 L 33295,13187 L 33172,13193 L 33037,9972 z"
       style="fill:#ffffff;stroke:#000000;stroke-width:105;stroke-linejoin:round" />
    <path
       id="Decatur"
       d="M -11602,-15291 L -11487,-15289 L -11509,-14308 L -11527,-13357 L -11549,-12380 L -11567,-11418 L -11584,-10457 L -12374,-10470 L -12538,-10475 L -13333,-10488 L -13497,-10488 L -14287,-10506 L -14461,-10515 L -15230,-10529 L -15425,-10533 L -16225,-10542 L -16395,-10551 L -16372,-11513 L -16349,-12464 L -16326,-13431 L -16308,-14392 L -16280,-15381 L -15815,-15371 L -11625,-15291 L -11602,-15291 z"
       style="fill:#0000ff;stroke:#000000;stroke-width:105;stroke-linejoin:round" />
    <path
       id="Dickinson"
       d="M 12638,-5654 L 16167,-5710 L 16174,-5217 L 16174,-5147 L 16189,-3994 L 16210,-3964 L 16282,-3970 L 16348,-3955 L 16425,-3965 L 16461,-3960 L 16502,-3951 L 16502,-3905 L 16537,-2818 L 16850,-2825 L 16853,-2176 L 16545,-2174 L 16586,-871 L 16550,-871 L 16569,95 L 12728,157 L 12651,-3722 L 12638,-5654 z"
       style="fill:#ff00ff;stroke:#000000;stroke-width:105;stroke-linejoin:round" />
    <path
       id="Doniphan"
       d="M 29828,-15754 L 30099,-15756 L 30091,-15688 L 30121,-15625 L 30173,-15575 L 30224,-15535 L 30299,-15505 L 30368,-15474 L 30420,-15440 L 30477,-15396 L 30522,-15328 L 30559,-15285 L 30590,-15242 L 30644,-15200 L 30698,-15174 L 30739,-15160 L 30797,-15155 L 30858,-15159 L 30904,-15167 L 30961,-15156 L 30993,-15138 L 31017,-15094 L 31037,-15051 L 31047,-15016 L 31055,-14986 L 31053,-14945 L 31050,-14910 L 31033,-14885 L 31017,-14844 L 31007,-14809 L 31007,-14781 L 31036,-14747 L 31074,-14724 L 31122,-14693 L 31182,-14679 L 31241,-14681 L 31305,-14710 L 31350,-14738 L 31392,-14766 L 31434,-14780 L 31480,-14788 L 31528,-14766 L 31551,-14736 L 31559,-14682 L 31566,-14652 L 31569,-14612 L 31577,-14567 L 31596,-14523 L 31619,-14490 L 31660,-14455 L 31694,-14439 L 31737,-14425 L 31768,-14414 L 31804,-14396 L 31858,-14374 L 31902,-14361 L 31953,-14335 L 32009,-14326 L 32050,-14321 L 32139,-14318 L 32283,-14327 L 32378,-14344 L 32435,-14369 L 32498,-14413 L 32535,-14461 L 32543,-14497 L 32550,-14548 L 32552,-14593 L 32551,-14632 L 32577,-14671 L 32617,-14733 L 32679,-14763 L 32740,-14769 L 32797,-14754 L 32818,-14753 L 32869,-14749 L 32925,-14755 L 32977,-14763 L 33022,-14780 L 33079,-14791 L 33130,-14786 L 33191,-14781 L 33249,-14762 L 33320,-14722 L 33351,-14687 L 33382,-14634 L 33392,-14601 L 33393,-14556 L 33382,-14526 L 33367,-14485 L 33343,-14455 L 33322,-14410 L 33306,-14374 L 33296,-14334 L 33313,-14286 L 33333,-14249 L 33353,-14208 L 33393,-14171 L 33431,-14138 L 33477,-14118 L 33508,-14104 L 33549,-14094 L 33595,-14084 L 33672,-14084 L 33723,-14080 L 33749,-14065 L 33780,-14035 L 33806,-14007 L 33829,-13968 L 33842,-13934 L 33844,-13919 L 33852,-13864 L 33855,-13814 L 33843,-13768 L 33833,-13723 L 33812,-13677 L 33779,-13647 L 33760,-13630 L 33731,-13621 L 33680,-13600 L 33633,-13586 L 33584,-13573 L 33536,-13570 L 33500,-13570 L 33449,-13559 L 33423,-13539 L 33398,-13514 L 33384,-13484 L 33382,-13443 L 33390,-13403 L 33402,-13374 L 33431,-13330 L 33450,-13318 L 33481,-13298 L 33534,-13262 L 33614,-13258 L 33687,-13272 L 33737,-13294 L 33785,-13334 L 33814,-13365 L 33850,-13390 L 33891,-13391 L 33937,-13375 L 33973,-13336 L 33989,-13293 L 34004,-13228 L 34010,-13175 L 34010,-13119 L 33995,-13064 L 33967,-13009 L 33920,-12950 L 33872,-12901 L 33816,-12872 L 33772,-12859 L 33693,-12861 L 33616,-12875 L 33522,-12913 L 33419,-12986 L 33339,-13040 L 33295,-13064 L 33259,-13076 L 33208,-13058 L 33180,-13044 L 33150,-13013 L 33129,-12978 L 33119,-12918 L 33114,-12847 L 33119,-12724 L 33125,-12623 L 33131,-12550 L 33131,-12490 L 33116,-12429 L 33100,-12399 L 33067,-12362 L 33024,-12338 L 32982,-12321 L 32942,-12307 L 32891,-12304 L 32835,-12285 L 32758,-12256 L 32681,-12190 L 32620,-12114 L 32575,-12046 L 32530,-11952 L 32473,-11841 L 32446,-11754 L 32433,-11695 L 32433,-11670 L 32079,-11663 L 32069,-11693 L 31898,-11969 L 29976,-11882 L 29841,-15376 L 29835,-15507 L 29828,-15754 z"
       style="fill:#ffffff;stroke:#000000;stroke-width:105;stroke-linejoin:round" />
    <path
       id="Douglas"
       d="M 28811,-5245 L 28990,-5277 L 29154,-5358 L 29287,-5389 L 29400,-5395 L 29590,-5320 L 29688,-5285 L 29857,-5231 L 29924,-5196 L 29960,-5156 L 30017,-5101 L 30084,-5061 L 30171,-5021 L 30269,-5017 L 30417,-5033 L 30545,-5119 L 30612,-5140 L 30663,-5110 L 30684,-5085 L 30710,-5024 L 30730,-5090 L 30730,-5105 L 30699,-5160 L 31083,-5167 L 31550,-5185 L 31590,-4294 L 31687,-4325 L 31707,-4350 L 31728,-4396 L 31784,-4502 L 31892,-4452 L 31933,-4422 L 31989,-4397 L 32082,-4368 L 32231,-4378 L 32282,-4328 L 32277,-4288 L 32329,-4273 L 32349,-4273 L 32462,-4259 L 32528,-4290 L 32528,-4380 L 32461,-4521 L 32522,-4556 L 32604,-4572 L 32650,-4577 L 32676,-4577 L 32691,-4562 L 32722,-4542 L 32821,-1855 L 28970,-1693 L 28907,-3157 L 28890,-3529 L 28884,-3680 L 28811,-5245 z"
       style="fill:#ffffff;stroke:#000000;stroke-width:105;stroke-linejoin:round" />
    <path
       id="Edwards"
       d="M -6451,6033 L -4528,6047 L -4535,7008 L -1662,7019 L -1665,8951 L -1588,8955 L -1595,9982 L -6392,9942 L -6385,8930 L -6472,8916 L -6460,7960 L -6451,6033 z"
       style="fill:#ffffff;stroke:#000000;stroke-width:105;stroke-linejoin:round" />
    <path
       id="Elk"
       d="M 20376,11127 L 25362,11038 L 25417,13438 L 25446,14409 L 20449,14508 L 20407,12581 L 20376,11127 z"
       style="fill:#ffffff;stroke:#000000;stroke-width:105;stroke-linejoin:round" />
    <path
       id="Ellis"
       d="M -1865,-5559 L -1763,-5554 L -1802,-709 L -6536,-724 L -6654,-728 L -6558,-5569 L -5702,-5562 L -5594,-5567 L -4737,-5565 L -4635,-5565 L -3778,-5563 L -3671,-5558 L -2804,-5561 L -2527,-5562 L -1865,-5559 z"
       style="fill:#ff6600;stroke:#000000;stroke-width:105;stroke-linejoin:round" />
    <path
       id="Ellsworth"
       d="M 3023,-2652 L 7854,-2681 L 7901,217 L 7910,1188 L 3068,1237 L 3066,-715 L 3014,-710 L 3023,-2652 z"
       style="fill:#00ff00;stroke:#000000;stroke-width:105;stroke-linejoin:round" />
    <path
       id="Finney"
       d="M -19868,3859 L -16200,3951 L -12352,4042 L -12193,4042 L -12240,6930 L -16077,6864 L -16117,8761 L -15999,8776 L -16036,9798 L -19894,9706 L -19862,8695 L -19980,8675 L -19868,3859 z"
       style="fill:#ffffff;stroke:#000000;stroke-width:105;stroke-linejoin:round" />
    <path
       id="Ford"
       d="M -12257,7881 L -7414,7953 L -6460,7960 L -6472,8916 L -6385,8930 L -6392,9942 L -6391,12900 L -11265,12779 L -12240,12756 L -12177,8847 L -12274,8842 L -12257,7881 z"
       style="fill:#ffffff;stroke:#000000;stroke-width:105;stroke-linejoin:round" />
    <path
       id="Franklin"
       d="M 28970,-1693 L 32821,-1855 L 32854,-1362 L 32767,-1356 L 32904,2020 L 29032,2177 L 29009,1689 L 28921,-1214 L 28977,-1220 L 28970,-1693 z"
       style="fill:#ffffff;stroke:#000000;stroke-width:105;stroke-linejoin:round" />
    <path
       id="Geary"
       d="M 16167,-5710 L 16154,-6284 L 16154,-6339 L 16153,-6505 L 16158,-6682 L 16486,-6683 L 16578,-6684 L 16712,-6684 L 17127,-6686 L 17141,-5730 L 17142,-5584 L 17143,-5217 L 18036,-5236 L 18097,-5156 L 18164,-5206 L 18231,-5227 L 18241,-5242 L 18256,-5267 L 18302,-5287 L 18343,-5288 L 18399,-5313 L 18405,-5087 L 20175,-5110 L 20161,-4798 L 20240,-2906 L 16850,-2825 L 16537,-2818 L 16502,-3905 L 16502,-3951 L 16461,-3960 L 16425,-3965 L 16348,-3955 L 16282,-3970 L 16210,-3964 L 16189,-3994 L 16174,-5147 L 16174,-5217 L 16167,-5710 z"
       style="fill:#ff00ff;stroke:#000000;stroke-width:105;stroke-linejoin:round" />
    <path
       id="Gove"
       d="M -17108,-5733 L -16313,-5725 L -16144,-5715 L -15349,-5702 L -15180,-5692 L -14385,-5679 L -14216,-5674 L -13431,-5656 L -13277,-5657 L -12472,-5633 L -12323,-5634 L -11507,-5621 L -11374,-5616 L -11492,-785 L -12307,-808 L -14226,-854 L -15170,-882 L -15344,-891 L -16134,-945 L -17252,-962 L -17108,-5733 z"
       style="fill:#ff6600;stroke:#000000;stroke-width:105;stroke-linejoin:round" />
    <path
       id="Graham"
       d="M -6831,-10400 L -6605,-10395 L -6617,-9434 L -6635,-8483 L -6647,-7511 L -6659,-6535 L -6676,-5574 L -7517,-5581 L -7630,-5576 L -8481,-5584 L -8599,-5583 L -9441,-5596 L -9559,-5601 L -10394,-5609 L -10538,-5613 L -11374,-5616 L -11507,-5621 L -11490,-6582 L -11473,-7553 L -11460,-8515 L -11448,-9476 L -11431,-10452 L -10702,-10444 L -10461,-10440 L -9718,-10427 L -9487,-10422 L -8754,-10409 L -8523,-10410 L -7790,-10407 L -7564,-10403 L -6831,-10400 z"
       style="fill:#0000ff;stroke:#000000;stroke-width:105;stroke-linejoin:round" />
    <path
       id="Grant"
       d="M -23742,9609 L -19894,9706 L -19968,13576 L -23831,13469 L -23742,9609 z"
       style="fill:#ffffff;stroke:#000000;stroke-width:105;stroke-linejoin:round" />
    <path
       id="Gray"
       d="M -12257,7881 L -12274,8842 L -12177,8847 L -12240,12756 L -16088,12691 L -16036,9798 L -15999,8776 L -16117,8761 L -16077,6864 L -12240,6930 L -12257,7881 z"
       style="fill:#ffffff;stroke:#000000;stroke-width:105;stroke-linejoin:round" />
    <path
       id="Greeley"
       d="M -27939,-1178 L -23798,-1100 L -23921,3752 L -28097,3624 L -28095,3569 L -27970,-273 L -27939,-1178 z"
       style="fill:#ffffff;stroke:#000000;stroke-width:105;stroke-linejoin:round" />
    <path
       id="Greenwood"
       d="M 25179,4728 L 25221,6183 L 25303,9015 L 25309,9201 L 25321,9584 L 25362,11038 L 20376,11127 L 20259,5809 L 21736,5772 L 21691,4806 L 25179,4728 z"
       style="fill:#ffffff;stroke:#000000;stroke-width:105;stroke-linejoin:round" />
    <path
       id="Hamilton"
       d="M -23921,3752 L -23690,3761 L -23828,8588 L -23699,8592 L -23742,9609 L -28289,9442 L -28097,3624 L -23921,3752 z"
       style="fill:#ffffff;stroke:#000000;stroke-width:105;stroke-linejoin:round" />
    <path
       id="Harper"
       d="M 4277,13840 L 9089,13787 L 9115,13786 L 9181,18074 L 8321,18083 L 6939,18096 L 6382,18101 L 4489,18113 L 4318,18114 L 4277,13840 z"
       style="fill:#ffffff;stroke:#000000;stroke-width:105;stroke-linejoin:round" />
    <path
       id="Harvey"
       d="M 9914,5039 L 12802,4992 L 14716,4959 L 14734,5919 L 14778,7861 L 9951,7942 L 9914,5039 z"
       style="fill:#ffffff;stroke:#000000;stroke-width:105;stroke-linejoin:round" />
    <path
       id="Haskell"
       d="M -19894,9706 L -16036,9798 L -16088,12691 L -16105,13667 L -19793,13580 L -19968,13576 L -19894,9706 z"
       style="fill:#ffffff;stroke:#000000;stroke-width:105;stroke-linejoin:round" />
    <path
       id="Hodgeman"
       d="M -12193,4042 L -6576,4101 L -6448,4106 L -6451,6033 L -6460,7960 L -7414,7953 L -12257,7881 L -12240,6930 L -12193,4042 z"
       style="fill:#ffffff;stroke:#000000;stroke-width:105;stroke-linejoin:round" />
    <path
       id="Jackson"
       d="M 26130,-11765 L 26756,-11784 L 27545,-11813 L 28053,-11831 L 28088,-10860 L 28037,-10859 L 28091,-9233 L 27926,-9232 L 28003,-6973 L 24173,-6867 L 24028,-10727 L 26155,-10799 L 26130,-11765 z"
       style="fill:#ffffff;stroke:#000000;stroke-width:105;stroke-linejoin:round" />
    <path
       id="Jefferson"
       d="M 28091,-9233 L 31464,-9358 L 31571,-6142 L 31500,-6131 L 31550,-5185 L 31083,-5167 L 30699,-5160 L 30730,-5105 L 30730,-5090 L 30710,-5024 L 30684,-5085 L 30663,-5110 L 30612,-5140 L 30545,-5119 L 30417,-5033 L 30269,-5017 L 30171,-5021 L 30084,-5061 L 30017,-5101 L 29960,-5156 L 29924,-5196 L 29857,-5231 L 29688,-5285 L 29590,-5320 L 29400,-5395 L 29287,-5389 L 29154,-5358 L 28990,-5277 L 28811,-5245 L 28801,-5306 L 28739,-5356 L 28672,-5370 L 28610,-5360 L 28493,-5289 L 28390,-5288 L 28339,-5278 L 28196,-5212 L 28103,-5196 L 28073,-5216 L 28000,-5296 L 27995,-5417 L 27988,-5694 L 27993,-5810 L 27988,-5875 L 27998,-5910 L 28008,-5951 L 28013,-5981 L 28038,-6016 L 28048,-6047 L 28058,-6142 L 28003,-6973 L 27926,-9232 L 28091,-9233 z"
       style="fill:#ffffff;stroke:#000000;stroke-width:105;stroke-linejoin:round" />
    <path
       id="Jewell"
       d="M 4764,-15230 L 6865,-15236 L 7168,-15238 L 7714,-15246 L 7749,-11376 L 7758,-10410 L 2979,-10372 L 2805,-10376 L 2806,-11347 L 2803,-12304 L 2810,-13275 L 2806,-14237 L 2808,-15218 L 4764,-15230 z"
       style="fill:#0000ff;stroke:#000000;stroke-width:105;stroke-linejoin:round" />
    <path
       id="Johnson"
       d="M 33998,-4716 L 34049,-4827 L 34070,-4862 L 34105,-4918 L 34126,-4978 L 34130,-5039 L 34155,-5155 L 34196,-5231 L 34242,-5301 L 34313,-5392 L 34354,-5443 L 34477,-5464 L 34626,-5434 L 34790,-5375 L 34873,-5345 L 35601,-5355 L 36037,-5372 L 36571,-5401 L 36573,-5358 L 36667,-3210 L 36671,-3075 L 36705,-2003 L 32821,-1855 L 32722,-4542 L 32794,-4503 L 32876,-4498 L 32938,-4503 L 32953,-4549 L 32968,-4624 L 32983,-4715 L 33034,-4746 L 33080,-4751 L 33132,-4741 L 33244,-4742 L 33286,-4737 L 33337,-4717 L 33383,-4692 L 33414,-4647 L 33460,-4612 L 33512,-4592 L 33573,-4582 L 33614,-4593 L 33655,-4613 L 33681,-4644 L 33701,-4674 L 33732,-4714 L 33747,-4750 L 33772,-4785 L 33834,-4790 L 33875,-4791 L 33911,-4771 L 33886,-4705 L 33871,-4635 L 33891,-4615 L 33927,-4640 L 33968,-4675 L 33998,-4716 z"
       style="fill:#ffffff;stroke:#000000;stroke-width:105;stroke-linejoin:round" />
    <path
       id="Kearny"
       d="M -20058,3849 L -19868,3859 L -19980,8675 L -19862,8695 L -19894,9706 L -23742,9609 L -23699,8592 L -23828,8588 L -23690,3761 L -20058,3849 z"
       style="fill:#ffffff;stroke:#000000;stroke-width:105;stroke-linejoin:round" />
    <path
       id="Kingman"
       d="M 3232,9970 L 8742,9939 L 9045,9938 L 9046,10189 L 9081,12810 L 9089,13787 L 4277,13840 L 3246,13849 L 3248,12888 L 3232,9970 z"
       style="fill:#ffffff;stroke:#000000;stroke-width:105;stroke-linejoin:round" />
    <path
       id="Kiowa"
       d="M -6392,9942 L -1595,9982 L -1595,12900 L -1596,13856 L -5321,13868 L -5428,13858 L -6290,13856 L -6393,13851 L -6391,12900 L -6392,9942 z"
       style="fill:#ffffff;stroke:#000000;stroke-width:105;stroke-linejoin:round" />
    <path
       id="Labette"
       d="M 33172,13193 L 33295,13187 L 33307,13660 L 33473,17457 L 33474,17465 L 30555,17558 L 30498,17560 L 29457,17593 L 29330,13338 L 33172,13193 z"
       style="fill:#ffffff;stroke:#000000;stroke-width:105;stroke-linejoin:round" />
    <path
       id="Lane"
       d="M -16134,-945 L -15344,-891 L -15170,-882 L -14226,-854 L -12307,-808 L -12352,4042 L -16200,3951 L -16134,-945 z"
       style="fill:#ffffff;stroke:#000000;stroke-width:105;stroke-linejoin:round" />
    <path
       id="Leavenworth"
       d="M 31464,-9358 L 33274,-9429 L 33320,-9414 L 33359,-9399 L 33397,-9384 L 33440,-9344 L 33470,-9304 L 33471,-9260 L 33469,-9220 L 33477,-9185 L 33501,-9136 L 33542,-9103 L 33576,-9086 L 33584,-9081 L 33614,-9063 L 33670,-9067 L 33722,-9089 L 33760,-9108 L 33809,-9135 L 33859,-9150 L 33890,-9157 L 33931,-9150 L 33968,-9121 L 33998,-9079 L 34025,-9031 L 34035,-8991 L 34023,-8939 L 34005,-8905 L 33974,-8874 L 33942,-8848 L 33903,-8813 L 33869,-8783 L 33857,-8763 L 33842,-8723 L 33832,-8682 L 33824,-8628 L 33828,-8568 L 33837,-8503 L 33843,-8466 L 33855,-8393 L 33890,-8270 L 33947,-8159 L 34029,-8034 L 34143,-7944 L 34240,-7884 L 34356,-7837 L 34432,-7781 L 34483,-7719 L 34524,-7664 L 34564,-7588 L 34565,-7498 L 34550,-7433 L 34520,-7392 L 34495,-7316 L 34505,-7271 L 34558,-7225 L 34608,-7186 L 34681,-7157 L 34743,-7146 L 34805,-7151 L 34850,-7159 L 34902,-7152 L 34936,-7148 L 34956,-7126 L 34983,-7098 L 35003,-7063 L 33962,-7042 L 33992,-6226 L 33925,-6221 L 33998,-4716 L 33968,-4675 L 33927,-4640 L 33891,-4615 L 33871,-4635 L 33886,-4705 L 33911,-4771 L 33875,-4791 L 33834,-4790 L 33772,-4785 L 33747,-4750 L 33732,-4714 L 33701,-4674 L 33681,-4644 L 33655,-4613 L 33614,-4593 L 33573,-4582 L 33512,-4592 L 33460,-4612 L 33414,-4647 L 33383,-4692 L 33337,-4717 L 33286,-4737 L 33244,-4742 L 33132,-4741 L 33080,-4751 L 33034,-4746 L 32983,-4715 L 32968,-4624 L 32953,-4549 L 32938,-4503 L 32876,-4498 L 32794,-4503 L 32722,-4542 L 32691,-4562 L 32676,-4577 L 32650,-4577 L 32604,-4572 L 32522,-4556 L 32461,-4521 L 32528,-4380 L 32528,-4290 L 32462,-4259 L 32349,-4273 L 32329,-4273 L 32277,-4288 L 32282,-4328 L 32231,-4378 L 32082,-4368 L 31989,-4397 L 31933,-4422 L 31892,-4452 L 31784,-4502 L 31728,-4396 L 31707,-4350 L 31687,-4325 L 31590,-4294 L 31550,-5185 L 31500,-6131 L 31571,-6142 L 31464,-9358 z"
       style="fill:#ffffff;stroke:#000000;stroke-width:105;stroke-linejoin:round" />
    <path
       id="Lincoln"
       d="M 2957,-6517 L 7804,-6540 L 7846,-3657 L 7854,-2681 L 3023,-2652 L 3022,-3020 L 3021,-3125 L 3012,-5556 L 2956,-5550 L 2957,-6517 z"
       style="fill:#00ff00;stroke:#000000;stroke-width:105;stroke-linejoin:round" />
    <path
       id="Linn"
       d="M 32904,2020 L 36854,1863 L 36982,4917 L 37011,5520 L 37022,5778 L 32950,5941 L 32915,3551 L 32997,3520 L 32904,2020 z"
       style="fill:#ffffff;stroke:#000000;stroke-width:105;stroke-linejoin:round" />
    <path
       id="Logan"
       d="M -22863,-5887 L -22114,-5874 L -21904,-5864 L -21145,-5845 L -20934,-5841 L -20170,-5822 L -19975,-5813 L -19211,-5799 L -19021,-5794 L -18252,-5771 L -17283,-5743 L -17108,-5733 L -17252,-962 L -19971,-991 L -23064,-1076 L -22863,-5887 z"
       style="fill:#ffff00;stroke:#000000;stroke-width:105;stroke-linejoin:round" />
    <path
       id="Lyon"
       d="M 25082,-1582 L 25100,-1104 L 25064,-1098 L 25163,1800 L 25182,2771 L 25188,2907 L 25189,3234 L 25200,3450 L 25211,3591 L 25211,3737 L 25150,3863 L 25179,4728 L 21691,4806 L 21620,937 L 21559,-1478 L 25082,-1582 z"
       style="fill:#ffffff;stroke:#000000;stroke-width:105;stroke-linejoin:round" />
    <path
       id="Marion"
       d="M 12728,157 L 16569,102.59076 L 16588,1041 L 17548,1021 L 17591,2963 L 17401,2969 L 17484,5882 L 14734,5919 L 14716,4959 L 12802,4992 L 12728,157 z"
       sodipodi:nodetypes="ccccccccccc"
       style="fill:#ffffff;stroke:#000000;stroke-width:105;stroke-linejoin:round" />
    <path
       id="Marshall"
       d="M 17305,-15390 L 20204,-15465 L 20235,-15466 L 22160,-15505 L 22284,-10668 L 19418,-10598 L 19357,-10598 L 19326,-10597 L 17419,-10558 L 17305,-15390 z"
       style="fill:#ffffff;stroke:#000000;stroke-width:105;stroke-linejoin:round" />
    <path
       id="McPherson"
       d="M 7901,217 L 12728,157 L 12802,4992 L 9914,5039 L 7986,5062 L 7982,4096 L 7956,4096 L 7910,1188 L 7901,217 z"
       style="fill:#ffffff;stroke:#000000;stroke-width:105;stroke-linejoin:round" />
    <path
       id="Meade"
       d="M -16088,12691 L -12240,12756 L -11265,12779 L -11272,13765 L -11128,13774 L -11189,18071 L -11347,18069 L -16027,17988 L -15956,13667 L -16105,13667 L -16088,12691 z"
       style="fill:#ffffff;stroke:#000000;stroke-width:105;stroke-linejoin:round" />
    <path
       id="Miami"
       d="M 32821,-1855 L 36705,-2003 L 36820,902 L 36823,997 L 36854,1863 L 32904,2020 L 32767,-1356 L 32854,-1362 L 32821,-1855 z"
       style="fill:#ffffff;stroke:#000000;stroke-width:105;stroke-linejoin:round" />
    <path
       id="Mitchell"
       d="M 2979,-10372 L 7758,-10410 L 7789,-10410 L 7800,-7521 L 7804,-6540 L 2957,-6517 L 2979,-10372 z"
       style="fill:#00ff00;stroke:#000000;stroke-width:105;stroke-linejoin:round" />
    <path
       id="Montgomery"
       d="M 29284,13338 L 29330,13338 L 29457,17593 L 29458,17600 L 27248,17675 L 27102,17680 L 26996,17683 L 25862,17719 L 25537,17730 L 25529,17730 L 25523,17469 L 25517,17308 L 25446,14409 L 25417,13438 L 29284,13338 z"
       style="fill:#ffffff;stroke:#000000;stroke-width:105;stroke-linejoin:round" />
    <path
       id="Morris"
       d="M 16850,-2825 L 20240,-2906 L 20247,-2413 L 21217,-2433 L 21236,-1472 L 21559,-1478 L 21620,937 L 17548,1021 L 16588,1041 L 16569,95 L 16550,-871 L 16586,-871 L 16545,-2174 L 16853,-2176 L 16850,-2825 z"
       style="fill:#ff00ff;stroke:#000000;stroke-width:105;stroke-linejoin:round" />
    <path
       id="Morton"
       d="M -28417,13327 L -24128,13459 L -24150,14421 L -24150,14582 L -24159,14904 L -24158,15009 L -24168,15231 L -24177,15583 L -24203,16685 L -24208,16852 L -24230,17827 L -27459,17752 L -28083,17734 L -28438,17723 L -28560,17721 L -28565,17721 L -28518,16413 L -28501,15904 L -28496,15743 L -28485,15416 L -28480,15275 L -28469,14928 L -28465,14792 L -28417,13327 z"
       style="fill:#ffffff;stroke:#000000;stroke-width:105;stroke-linejoin:round" />
    <path
       id="Nemaha"
       d="M 24107,-15562 L 24194,-15565 L 26015,-15626 L 26130,-11765 L 26155,-10799 L 24028,-10727 L 22284,-10668 L 22160,-15505 L 24107,-15562 z"
       style="fill:#ffffff;stroke:#000000;stroke-width:105;stroke-linejoin:round" />
    <path
       id="Neosho"
       d="M 29147,9469 L 33014,9328 L 33037,9972 L 33172,13193 L 29330,13338 L 29284,13338 L 29147,9469 z"
       style="fill:#ffffff;stroke:#000000;stroke-width:105;stroke-linejoin:round" />
    <path
       id="Norton"
       d="M -6783,-15234 L -6770,-15234 L -6782,-14256 L -6794,-13299 L -6806,-12333 L -6824,-11371 L -6831,-10400 L -7564,-10403 L -7790,-10407 L -8523,-10410 L -8754,-10409 L -9487,-10422 L -9718,-10427 L -10461,-10440 L -10702,-10444 L -11431,-10452 L -11584,-10457 L -11567,-11418 L -11549,-12380 L -11527,-13357 L -11509,-14308 L -11487,-15289 L -9926,-15269 L -6783,-15234 z"
       style="fill:#0000ff;stroke:#000000;stroke-width:105;stroke-linejoin:round" />
    <path
       id="Osage"
       d="M 25046,-3036 L 28907,-3157 L 28970,-1693 L 28977,-1220 L 28921,-1214 L 29009,1689 L 25163,1800 L 25064,-1098 L 25100,-1104 L 25082,-1582 L 25046,-3036 z"
       style="fill:#ffffff;stroke:#000000;stroke-width:105;stroke-linejoin:round" />
    <path
       id="Osborne"
       d="M -1810,-10385 L -1031,-10383 L -872,-10383 L -72,-10381 L 107,-10382 L 897,-10379 L 1056,-10380 L 1861,-10373 L 2015,-10373 L 2805,-10376 L 2979,-10372 L 2957,-6517 L 2956,-5550 L -1763,-5554 L -1865,-5559 L -1869,-6525 L -1857,-7481 L -1845,-8447 L -1833,-9414 L -1810,-10385 z"
       style="fill:#ff6600;stroke:#000000;stroke-width:105;stroke-linejoin:round" />
    <path
       id="Ottawa"
       d="M 7800,-7521 L 12621,-7582 L 12638,-5654 L 12651,-3722 L 9779,-3670 L 7846,-3657 L 7804,-6540 L 7800,-7521 z"
       style="fill:#00ff00;stroke:#000000;stroke-width:105;stroke-linejoin:round" />
    <path
       id="Pawnee"
       d="M -6574,3130 L -1747,3160 L -1739,4121 L -703,4128 L -713,7026 L -1662,7019 L -4535,7008 L -4528,6047 L -6451,6033 L -6448,4106 L -6576,4101 L -6574,3130 z"
       style="fill:#ffffff;stroke:#000000;stroke-width:105;stroke-linejoin:round" />
    <path
       id="Phillips"
       d="M -6770,-15234 L -3840,-15212 L -3129,-15208 L -2958,-15206 L -1996,-15201 L -2010,-10385 L -2774,-10387 L -2964,-10391 L -3723,-10394 L -3923,-10398 L -4677,-10396 L -4892,-10395 L -5631,-10393 L -5851,-10393 L -6605,-10395 L -6831,-10400 L -6824,-11371 L -6806,-12333 L -6794,-13299 L -6782,-14256 L -6770,-15234 z"
       style="fill:#0000ff;stroke:#000000;stroke-width:105;stroke-linejoin:round" />
    <path
       id="Pottawatomie"
       d="M 22284,-10668 L 24028,-10727 L 24173,-6867 L 24188,-5810 L 24141,-5840 L 24110,-5895 L 24074,-5975 L 24043,-6025 L 23935,-6005 L 23848,-6045 L 23756,-6110 L 23720,-6124 L 23683,-6165 L 23673,-6200 L 23668,-6235 L 23719,-6275 L 23827,-6256 L 23971,-6191 L 23991,-6237 L 23955,-6277 L 23924,-6317 L 23908,-6337 L 23883,-6387 L 23831,-6462 L 23769,-6563 L 23661,-6552 L 23605,-6582 L 23538,-6672 L 23481,-6667 L 23497,-6586 L 23487,-6511 L 23457,-6470 L 23426,-6470 L 23390,-6485 L 23369,-6490 L 23297,-6555 L 23189,-6570 L 23128,-6569 L 23087,-6574 L 23020,-6579 L 22964,-6609 L 22917,-6719 L 22804,-6734 L 22692,-6607 L 22532,-6722 L 22419,-6717 L 22333,-6651 L 22312,-6565 L 22282,-6500 L 22251,-6434 L 22231,-6394 L 22195,-6358 L 22149,-6343 L 22108,-6338 L 22052,-6363 L 21882,-6533 L 21825,-6543 L 21728,-6472 L 21677,-6411 L 21642,-6351 L 21576,-6184 L 21545,-6134 L 21509,-6098 L 21381,-6093 L 21376,-6183 L 21396,-6279 L 21360,-6284 L 21344,-6274 L 21288,-6223 L 21263,-6198 L 21217,-6172 L 21181,-6207 L 21114,-6262 L 21067,-6277 L 20990,-6337 L 20836,-6392 L 20739,-6411 L 20677,-6426 L 20585,-6441 L 20477,-6461 L 20467,-6380 L 20462,-6314 L 20483,-6264 L 20498,-6234 L 20524,-6214 L 20488,-6194 L 20412,-6163 L 20365,-6163 L 20339,-6213 L 20334,-6253 L 20313,-6324 L 20236,-6303 L 20196,-6207 L 20165,-6172 L 20129,-6167 L 20119,-6167 L 20088,-6182 L 20052,-6222 L 20032,-6257 L 20001,-6282 L 20016,-6358 L 20026,-6423 L 19959,-6403 L 19857,-6352 L 19790,-6331 L 19765,-6331 L 19739,-6336 L 19739,-6386 L 19733,-6427 L 19738,-6437 L 19836,-6488 L 19892,-6488 L 19964,-6539 L 19984,-6574 L 19943,-6634 L 19871,-6689 L 19809,-6654 L 19773,-6684 L 19737,-6704 L 19722,-6729 L 19696,-6784 L 19680,-6829 L 19665,-6859 L 19655,-6859 L 19582,-6985 L 19418,-6918 L 19382,-7034 L 19526,-7025 L 19515,-7040 L 19474,-7145 L 19433,-7155 L 19443,-7110 L 19469,-7090 L 19408,-7059 L 19376,-7155 L 19268,-7245 L 19171,-7295 L 19119,-7335 L 19052,-7415 L 19006,-7485 L 18949,-7565 L 18975,-7606 L 18810,-7771 L 18727,-7907 L 18670,-8002 L 18583,-8153 L 18525,-8349 L 18500,-8374 L 18463,-8439 L 18361,-8494 L 18268,-8579 L 18180,-8719 L 18139,-8795 L 18169,-8810 L 18190,-8891 L 18164,-8966 L 18138,-8986 L 18128,-8991 L 18122,-9026 L 18148,-9051 L 18168,-9062 L 18174,-9062 L 18194,-9082 L 18184,-9127 L 18168,-9182 L 18188,-9258 L 18208,-9318 L 18259,-9379 L 18341,-9400 L 18367,-9395 L 18418,-9400 L 18439,-9435 L 18423,-9501 L 18443,-9566 L 18489,-9622 L 18515,-9612 L 18541,-9587 L 18561,-9552 L 18592,-9537 L 18628,-9572 L 18648,-9653 L 18658,-9728 L 18704,-9844 L 18734,-9890 L 18785,-9895 L 18811,-9880 L 18816,-9946 L 18811,-9991 L 18826,-9991 L 18852,-9961 L 18872,-9946 L 18888,-9971 L 18893,-10021 L 18897,-10067 L 18897,-10097 L 18882,-10122 L 18902,-10157 L 18953,-10198 L 18979,-10223 L 19040,-10259 L 19081,-10239 L 19127,-10264 L 19173,-10300 L 19224,-10330 L 19260,-10416 L 19280,-10486 L 19331,-10532 L 19357,-10598 L 19418,-10598 L 22284,-10668 z"
       style="fill:#ffffff;stroke:#000000;stroke-width:105;stroke-linejoin:round" />
    <path
       id="Pratt"
       d="M -1588,8955 L 3183,8959 L 3229,8964 L 3232,9970 L 3248,12888 L -1595,12900 L -1595,9982 L -1588,8955 z"
       style="fill:#ffffff;stroke:#000000;stroke-width:105;stroke-linejoin:round" />
    <path
       id="Rawlins"
       d="M -22007,-15536 L -21654,-15524 L -21054,-15506 L -18506,-15435 L -16449,-15385 L -16425,-15384 L -16280,-15381 L -16308,-14392 L -16326,-13431 L -16349,-12464 L -16372,-11513 L -16395,-10551 L -17164,-10570 L -17348,-10574 L -18113,-10593 L -18302,-10597 L -18615,-10607 L -19082,-10616 L -19266,-10621 L -20036,-10639 L -20225,-10644 L -21000,-10663 L -21200,-10672 L -21969,-10691 L -22164,-10696 L -22130,-11652 L -22092,-12614 L -22059,-13586 L -22036,-14542 L -22007,-15536 z"
       style="fill:#ffff00;stroke:#000000;stroke-width:105;stroke-linejoin:round" />
    <path
       id="Reno"
       d="M 7986,5062 L 9914,5039 L 9951,7942 L 9959,8908 L 9990,8908 L 10009,9909 L 9358,9927 L 9045,9938 L 8742,9939 L 3232,9970 L 3229,8964 L 3183,8959 L 3158,6272 L 3156,5880 L 3156,5709 L 3148,5095 L 5395,5087 L 5401,5238 L 6057,5240 L 6052,5084 L 7986,5062 z"
       style="fill:#ffffff;stroke:#000000;stroke-width:105;stroke-linejoin:round" />
    <path
       id="Republic"
       d="M 12486,-15313 L 12507,-15313 L 12574,-11432 L 7749,-11376 L 7714,-15246 L 8640,-15261 L 8672,-15261 L 12486,-15313 z"
       style="fill:#00ff00;stroke:#000000;stroke-width:105;stroke-linejoin:round" />
    <path
       id="Rice"
       d="M 3068,1237 L 7910,1188 L 7956,4096 L 7982,4096 L 7986,5062 L 6052,5084 L 6057,5240 L 5401,5238 L 5395,5087 L 3148,5095 L 3147,4643 L 3141,4487 L 3150,4134 L 3078,4135 L 3068,1237 z"
       style="fill:#ffffff;stroke:#000000;stroke-width:105;stroke-linejoin:round" />
    <path
       id="Riley"
       d="M 16065,-10527 L 17419,-10558 L 19326,-10597 L 19357,-10598 L 19331,-10532 L 19280,-10486 L 19260,-10416 L 19224,-10330 L 19173,-10300 L 19127,-10264 L 19081,-10239 L 19040,-10259 L 18979,-10223 L 18953,-10198 L 18902,-10157 L 18882,-10122 L 18897,-10097 L 18897,-10067 L 18893,-10021 L 18888,-9971 L 18872,-9946 L 18852,-9961 L 18826,-9991 L 18811,-9991 L 18816,-9946 L 18811,-9880 L 18785,-9895 L 18734,-9890 L 18704,-9844 L 18658,-9728 L 18648,-9653 L 18628,-9572 L 18592,-9537 L 18561,-9552 L 18541,-9587 L 18515,-9612 L 18489,-9622 L 18443,-9566 L 18423,-9501 L 18439,-9435 L 18418,-9400 L 18367,-9395 L 18341,-9400 L 18259,-9379 L 18208,-9318 L 18188,-9258 L 18168,-9182 L 18184,-9127 L 18194,-9082 L 18174,-9062 L 18168,-9062 L 18148,-9051 L 18122,-9026 L 18128,-8991 L 18138,-8986 L 18164,-8966 L 18190,-8891 L 18169,-8810 L 18139,-8795 L 18180,-8719 L 18268,-8579 L 18361,-8494 L 18463,-8439 L 18500,-8374 L 18525,-8349 L 18583,-8153 L 18670,-8002 L 18727,-7907 L 18810,-7771 L 18975,-7606 L 18949,-7565 L 19006,-7485 L 19052,-7415 L 19119,-7335 L 19171,-7295 L 19268,-7245 L 19376,-7155 L 19408,-7059 L 19469,-7090 L 19443,-7110 L 19433,-7155 L 19474,-7145 L 19515,-7040 L 19526,-7025 L 19382,-7034 L 19418,-6918 L 19582,-6985 L 19655,-6859 L 19665,-6859 L 19680,-6829 L 19696,-6784 L 19722,-6729 L 19737,-6704 L 19773,-6684 L 19809,-6654 L 19871,-6689 L 19943,-6634 L 19984,-6574 L 19964,-6539 L 19892,-6488 L 19836,-6488 L 19738,-6437 L 19733,-6427 L 19739,-6386 L 19739,-6336 L 19765,-6331 L 19790,-6331 L 19857,-6352 L 19959,-6403 L 20026,-6423 L 20016,-6358 L 20001,-6282 L 20032,-6257 L 20052,-6222 L 20088,-6182 L 20119,-6167 L 20129,-6167 L 20165,-6172 L 20196,-6207 L 20236,-6303 L 20313,-6324 L 20334,-6253 L 20339,-6213 L 20365,-6163 L 20412,-6163 L 20488,-6194 L 20524,-6214 L 20498,-6234 L 20483,-6264 L 20462,-6314 L 20467,-6380 L 20477,-6461 L 20585,-6441 L 20677,-6426 L 20739,-6411 L 20836,-6392 L 20990,-6337 L 21067,-6277 L 21114,-6262 L 21135,-4838 L 20161,-4798 L 20175,-5110 L 18405,-5087 L 18399,-5313 L 18343,-5288 L 18302,-5287 L 18256,-5267 L 18241,-5242 L 18231,-5227 L 18164,-5206 L 18097,-5156 L 18036,-5236 L 17143,-5217 L 17142,-5584 L 17141,-5730 L 17127,-6686 L 16712,-6684 L 16578,-6684 L 16486,-6683 L 16158,-6682 L 16149,-7658 L 16065,-10527 z"
       style="fill:#ff00ff;stroke:#000000;stroke-width:105;stroke-linejoin:round" />
    <path
       id="Rooks"
       d="M -2010,-10385 L -1810,-10385 L -1833,-9414 L -1845,-8447 L -1857,-7481 L -1869,-6525 L -1865,-5559 L -2527,-5562 L -2804,-5561 L -3671,-5558 L -3778,-5563 L -4635,-5565 L -4737,-5565 L -5594,-5567 L -5702,-5562 L -6558,-5569 L -6676,-5558.8185 L -6659,-6535 L -6647,-7511 L -6635,-8483 L -6617,-9434 L -6612.5907,-10387.409 L -5851,-10393 L -5631,-10393 L -4892,-10395 L -4677,-10396 L -3923,-10398 L -3723,-10394 L -2964,-10391 L -2774,-10387 L -2010,-10385 z"
       style="fill:#ff6600;stroke:#000000;stroke-width:105;stroke-linejoin:round"
       sodipodi:nodetypes="ccccccccccccccccccccccccccccccc" />
    <path
       id="Rush"
       d="M -1802,-709 L -1741,-709 L -1747,3160 L -6574,3130 L -6536,-724 L -1802,-709 z"
       style="fill:#ffffff;stroke:#000000;stroke-width:105;stroke-linejoin:round" />
    <path
       id="Russell"
       d="M -1763,-5554 L 2956,-5550 L 3012,-5556 L 3021,-3125 L 3022,-3020 L 3023,-2652 L 3014,-710 L 2112,-702 L 2050,-692 L -1741,-709 L -1802,-709 L -1763,-5554 z"
       style="fill:#ff6600;stroke:#000000;stroke-width:105;stroke-linejoin:round" />
    <path
       id="Saline"
       d="M 7846,-3657 L 9779,-3670 L 12651,-3722 L 12728,157 L 7901,217 L 7854,-2681 L 7846,-3657 z"
       style="fill:#00ff00;stroke:#000000;stroke-width:105;stroke-linejoin:round" />
    <path
       id="Scott"
       d="M -17252,-962 L -16134,-945 L -16200,3951 L -19868,3859 L -20058,3849 L -19971,-991 L -17252,-962 z"
       style="fill:#ffffff;stroke:#000000;stroke-width:105;stroke-linejoin:round" />
    <path
       id="Sedgwick"
       d="M 9951,7942 L 14778,7861 L 14877,12706 L 9081,12810 L 9046,10189 L 9045,9938 L 9358,9927 L 10009,9909 L 9990,8908 L 9959,8908 L 9951,7942 z"
       style="fill:#ffffff;stroke:#000000;stroke-width:105;stroke-linejoin:round" />
    <path
       id="Seward"
       d="M -19793,13580 L -16105,13667 L -15956,13667 L -16027,17988 L -18790,17928 L -18874,17927 L -19885,17913 L -19793,13580 z"
       style="fill:#ffffff;stroke:#000000;stroke-width:105;stroke-linejoin:round" />
    <path
       id="Shawnee"
       d="M 24173,-6867 L 28003,-6973 L 28058,-6142 L 28048,-6047 L 28038,-6016 L 28013,-5981 L 28008,-5951 L 27998,-5910 L 27988,-5875 L 27993,-5810 L 27988,-5694 L 27995,-5417 L 28000,-5296 L 28073,-5216 L 28103,-5196 L 28196,-5212 L 28339,-5278 L 28390,-5288 L 28493,-5289 L 28610,-5360 L 28672,-5370 L 28739,-5356 L 28801,-5306 L 28811,-5245 L 28884,-3680 L 28890,-3529 L 28907,-3157 L 25046,-3036 L 25005,-5457 L 24979,-5492 L 24927,-5537 L 24881,-5567 L 24830,-5597 L 24788,-5632 L 24737,-5672 L 24701,-5671 L 24650,-5681 L 24588,-5691 L 24562,-5706 L 24542,-5751 L 24557,-5807 L 24562,-5822 L 24552,-5842 L 24552,-5852 L 24541,-5852 L 24511,-5847 L 24454,-5801 L 24388,-5750 L 24367,-5745 L 24331,-5740 L 24275,-5755 L 24260,-5760 L 24188,-5810 L 24173,-6867 z"
       style="fill:#ffffff;stroke:#000000;stroke-width:105;stroke-linejoin:round" />
    <path
       id="Sheridan"
       d="M -16225,-10542 L -15425,-10533 L -15230,-10529 L -14461,-10515 L -14287,-10506 L -13497,-10488 L -13333,-10488 L -12538,-10475 L -12374,-10470 L -11584,-10457 L -11431,-10452 L -11448,-9476 L -11460,-8515 L -11473,-7553 L -11490,-6582 L -11507,-5621 L -12323,-5634 L -12472,-5633 L -13277,-5657 L -13431,-5656 L -14216,-5674 L -14385,-5679 L -15180,-5692 L -15349,-5702 L -16144,-5715 L -16313,-5717.4093 L -16296,-6681 L -16273,-7647 L -16255,-8604 L -16238,-9585 L -16225,-10542 z"
       style="fill:#0000ff;stroke:#000000;stroke-width:105;stroke-linejoin:round"
       sodipodi:nodetypes="ccccccccccccccccccccccccccccccc" />
    <path
       id="Sherman"
       d="M -22164,-10696 L -21969,-10691 L -21997,-9735 L -22030,-8763 L -22058,-7802 L -22086,-6845 L -22114,-5874 L -22863,-5887 L -23078,-5902 L -24032,-5921 L -24771,-5934 L -25740,-5968 L -25981,-5988 L -26694,-6002 L -26930,-6006 L -27669,-6041 L -27776,-6045 L -27615,-10873 L -26984,-10844 L -26743,-10839 L -26025,-10815 L -25784,-10806 L -25051,-10781 L -24830,-10777 L -24087,-10753 L -23877,-10738 L -23123,-10724 L -22912,-10715 L -22164,-10696 z"
       style="fill:#ffff00;stroke:#000000;stroke-width:105;stroke-linejoin:round" />
    <path
       id="Smith"
       d="M 892,-15210 L 1141,-15211 L 2808,-15218 L 2806,-14237 L 2810,-13275 L 2803,-12304 L 2806,-11347 L 2805,-10376 L 2015,-10373 L 1861,-10373 L 1056,-10380 L 897,-10379 L 107,-10382 L -72,-10381 L -872,-10383 L -1031,-10383 L -1810,-10385 L -2010,-10385 L -1996,-15201 L -1420,-15198 L 892,-15210 z"
       style="fill:#0000ff;stroke:#000000;stroke-width:105;stroke-linejoin:round" />
    <path
       id="Stafford"
       d="M -703,4128 L 3078,4135 L 3150,4134 L 3141,4487 L 3147,4643 L 3148,5095 L 3156,5709 L 3156,5880 L 3158,6272 L 3183,8959 L -1588,8955 L -1665,8951 L -1662,7019 L -713,7026 L -703,4128 z"
       style="fill:#ffffff;stroke:#000000;stroke-width:105;stroke-linejoin:round" />
    <path
       id="Stanton"
       d="M -28289,9442 L -23742,9609 L -23831,13469 L -24128,13459 L -28417,13327 L -28324,10502 L -28289,9442 z"
       style="fill:#ffffff;stroke:#000000;stroke-width:105;stroke-linejoin:round" />
    <path
       id="Stevens"
       d="M -24128,13459 L -23831,13469 L -19968,13576 L -19793,13580 L -19885,17913 L -21673,17881 L -24129,17830 L -24230,17827 L -24208,16852 L -24203,16685 L -24177,15583 L -24168,15231 L -24158,15009 L -24159,14904 L -24150,14582 L -24150,14421 L -24128,13459 z"
       style="fill:#ffffff;stroke:#000000;stroke-width:105;stroke-linejoin:round" />
    <path
       id="Sumner"
       d="M 9081,12810 L 14877,12706 L 15013,17991 L 14559,18006 L 13907,18015 L 12661,18031 L 12228,18036 L 12204,18036 L 11554,18045 L 9711,18068 L 9181,18074 L 9115,13786 L 9089,13787 L 9081,12810 z"
       style="fill:#ffffff;stroke:#000000;stroke-width:105;stroke-linejoin:round" />
    <path
       id="Thomas"
       d="M -21969,-10691 L -21200,-10672 L -21000,-10663 L -20225,-10644 L -20036,-10639 L -19266,-10621 L -19082,-10616 L -18615,-10607 L -18302,-10597 L -18113,-10593 L -17348,-10574 L -17164,-10570 L -16395,-10551 L -16225,-10542 L -16238,-9585 L -16255,-8604 L -16273,-7647 L -16296,-6681 L -16313,-5725 L -17108,-5733 L -17283,-5743 L -18252,-5771 L -19021,-5794 L -19211,-5799 L -19975,-5813 L -20170,-5822 L -20934,-5841 L -21145,-5845 L -21904,-5864 L -22114,-5874 L -22086,-6845 L -22058,-7802 L -22030,-8763 L -21997,-9735 L -21969,-10691 z"
       style="fill:#ffff00;stroke:#000000;stroke-width:105;stroke-linejoin:round"
       sodipodi:nodetypes="ccccccccccccccccccccccccccccccccccc" />
    <path
       id="Trego"
       d="M -6683.5908,-5574 L -6558,-5561.4092 L -6654,-728 L -10384,-768 L -11492,-785 L -11374,-5616 L -10538,-5613 L -10394,-5609 L -9559,-5601 L -9441,-5596 L -8599,-5583 L -8481,-5584 L -7630,-5576 L -7517,-5581 L -6683.5908,-5574 z"
       style="fill:#ff6600;stroke:#000000;stroke-width:105;stroke-linejoin:round"
       sodipodi:nodetypes="ccccccccccccccc" />
    <path
       id="Wabaunsee"
       d="M 21114,-6262 L 21181,-6207 L 21217,-6172 L 21263,-6198 L 21288,-6223 L 21344,-6274 L 21360,-6284 L 21396,-6279 L 21376,-6183 L 21381,-6093 L 21509,-6098 L 21545,-6134 L 21576,-6184 L 21642,-6351 L 21677,-6411 L 21728,-6472 L 21825,-6543 L 21882,-6533 L 22052,-6363 L 22108,-6338 L 22149,-6343 L 22195,-6358 L 22231,-6394 L 22251,-6434 L 22282,-6500 L 22312,-6565 L 22333,-6651 L 22419,-6717 L 22532,-6722 L 22692,-6607 L 22804,-6734 L 22917,-6719 L 22964,-6609 L 23020,-6579 L 23087,-6574 L 23128,-6569 L 23189,-6570 L 23297,-6555 L 23369,-6490 L 23390,-6485 L 23426,-6470 L 23457,-6470 L 23487,-6511 L 23497,-6586 L 23481,-6667 L 23538,-6672 L 23605,-6582 L 23661,-6552 L 23769,-6563 L 23831,-6462 L 23883,-6387 L 23908,-6337 L 23924,-6317 L 23955,-6277 L 23991,-6237 L 23971,-6191 L 23827,-6256 L 23719,-6275 L 23668,-6235 L 23673,-6200 L 23683,-6165 L 23720,-6124 L 23756,-6110 L 23848,-6045 L 23935,-6005 L 24043,-6025 L 24074,-5975 L 24110,-5895 L 24141,-5840 L 24188,-5810 L 24260,-5760 L 24275,-5755 L 24331,-5740 L 24367,-5745 L 24388,-5750 L 24454,-5801 L 24511,-5847 L 24541,-5852 L 24552,-5852 L 24552,-5842 L 24562,-5822 L 24557,-5807 L 24542,-5751 L 24562,-5706 L 24588,-5691 L 24650,-5681 L 24701,-5671 L 24737,-5672 L 24788,-5632 L 24830,-5597 L 24881,-5567 L 24927,-5537 L 24979,-5492 L 25005,-5457 L 25046,-3036 L 25082,-1582 L 21559,-1478 L 21236,-1472 L 21217,-2433 L 20247,-2413 L 20240,-2906 L 20161,-4798 L 21135,-4838 L 21114,-6262 z"
       style="fill:#ffffff;stroke:#000000;stroke-width:105;stroke-linejoin:round" />
    <path
       id="Wallace"
       d="M -27776,-6045 L -27669,-6041 L -26930,-6006 L -26694,-6002 L -25981,-5988 L -25740,-5968 L -24771,-5934 L -24032,-5921 L -23078,-5902 L -22863,-5894.5908 L -23064,-1076 L -23798,-1100 L -27939,-1178 L -27808,-5066 L -27776,-6045 z"
       style="fill:#ffff00;stroke:#000000;stroke-width:105;stroke-linejoin:round"
       sodipodi:nodetypes="ccccccccccccccc" />
    <path
       id="Washington"
       d="M 12507,-15313 L 12804,-15317 L 15645,-15359 L 16352,-15371 L 17305,-15390 L 17419,-10558 L 16065,-10527 L 12588,-10476 L 12574,-11432 L 12507,-15313 z"
       style="fill:#ff00ff;stroke:#000000;stroke-width:105;stroke-linejoin:round"
       sodipodi:nodetypes="cccccccccc" />
    <path
       id="Wichita"
       d="M -23798,-1100 L -23064,-1076 L -19971,-991 L -20058,3849 L -23690,3761 L -23921,3752 L -23798,-1100 z"
       style="fill:#ffffff;stroke:#000000;stroke-width:105;stroke-linejoin:round" />
    <path
       id="Wilson"
       d="M 25321,9584 L 29147,9469 L 29284,13338 L 25417,13438 L 25362,11038 L 25321,9584 z"
       style="fill:#ffffff;stroke:#000000;stroke-width:105;stroke-linejoin:round" />
    <path
       id="Woodson"
       d="M 25221,6183 L 29083,6082 L 29174,8498 L 29123,8498 L 29147,9469 L 25321,9584 L 25309,9201 L 25303,9015 L 25221,6183 z"
       style="fill:#ffffff;stroke:#000000;stroke-width:105;stroke-linejoin:round" />
    <path
       id="Wyandotte"
       d="M 35003,-7063 L 35035,-7020 L 35059,-6966 L 35096,-6917 L 35137,-6875 L 35184,-6832 L 35230,-6801 L 35287,-6773 L 35356,-6759 L 35418,-6753 L 35492,-6754 L 35569,-6764 L 35632,-6778 L 35681,-6815 L 35710,-6844 L 35753,-6881 L 35789,-6901 L 35860,-6912 L 35897,-6912 L 35926,-6914 L 35969,-6897 L 36025,-6868 L 36040,-6842 L 36045,-6812 L 36041,-6777 L 36030,-6752 L 36031,-6727 L 36046,-6696 L 36072,-6666 L 36109,-6644 L 36142,-6626 L 36185,-6617 L 36241,-6617 L 36305,-6637 L 36339,-6653 L 36381,-6662 L 36420,-6679 L 36467,-6689 L 36518,-6691 L 36538,-6692 L 36559,-6690 L 36591,-6672 L 36614,-6638 L 36631,-6599 L 36641,-6574 L 36647,-6534 L 36639,-6488 L 36637,-6463 L 36612,-6403 L 36581,-6357 L 36568,-6332 L 36550,-6302 L 36525,-6251 L 36528,-6188 L 36571,-5401 L 36037,-5372 L 35601,-5355 L 34873,-5345 L 34790,-5375 L 34626,-5434 L 34477,-5464 L 34354,-5443 L 34313,-5392 L 34242,-5301 L 34196,-5231 L 34155,-5155 L 34130,-5039 L 34126,-4978 L 34105,-4918 L 34070,-4862 L 34049,-4827 L 33998,-4716 L 33925,-6221 L 33992,-6226 L 33962,-7042 L 35003,-7063 z"
       style="fill:#ffffff;stroke:#000000;stroke-width:105;stroke-linejoin:round" />
    <path
       d="M 14671.985,-3678.6707 A 425.08273,425.08273 0 1 1 13821.82,-3678.6707 A 425.08273,425.08273 0 1 1 14671.985,-3678.6707 z"
       sodipodi:ry="425.08273"
       sodipodi:rx="425.08273"
       sodipodi:cy="-3678.6707"
       sodipodi:cx="14246.902"
       id="path2560"
       style="fill:#00ff00"
       sodipodi:type="arc" />
    <path
       d="M 11149.871,-1431.8048 L 10538.395,-1759.6015 L 9921.709,-1441.7151 L 10044.506,-2124.5582 L 9551.6112,-2612.8294 L 10238.98,-2707.0529 L 10551.041,-3326.7076 L 10853.061,-2702.0978 L 11538.82,-2596.7942 L 11038.11,-2116.5406 L 11149.871,-1431.8048 z"
       inkscape:randomized="0"
       inkscape:rounded="0"
       inkscape:flatsided="false"
       sodipodi:arg2="1.5788654"
       sodipodi:arg1="0.95054684"
       sodipodi:r2="522.38568"
       sodipodi:r1="1044.7714"
       sodipodi:cy="-2281.9702"
       sodipodi:cx="10542.61"
       sodipodi:sides="5"
       id="path2562"
       style="fill:#ff0000"
       sodipodi:type="star" />
    <path
       id="Ness"
       d="M -12307,-808 L -11492,-785 L -10384,-768 L -6654,-728 L -6536,-724 L -6574,3130 L -6576,4101 L -12193,4042 L -12352,4042 L -12307,-808 z"
       style="fill:#ffffff;stroke:#000000;stroke-width:105;stroke-linejoin:round" />
  </g>
</svg>
