<?xml version="1.0" encoding="UTF-8" standalone="no"?>
<svg
   xmlns:dc="http://purl.org/dc/elements/1.1/"
   xmlns:cc="http://creativecommons.org/ns#"
   xmlns:rdf="http://www.w3.org/1999/02/22-rdf-syntax-ns#"
   xmlns:svg="http://www.w3.org/2000/svg"
   xmlns="http://www.w3.org/2000/svg"
   width="4866"
   height="5000"
   viewBox="0 0 4866 5000"
   id="svg7486"
   version="1.1">
  <title
     id="title12319">STS-120 Insignia</title>
  <metadata
     id="metadata7491">
    <rdf:RDF>
      <cc:Work
         rdf:about="">
        <dc:format>image/svg+xml</dc:format>
        <dc:type
           rdf:resource="http://purl.org/dc/dcmitype/StillImage" />
        <dc:title>STS-120 Insignia</dc:title>
      </cc:Work>
    </rdf:RDF>
  </metadata>
  <g
     id="layer1"
     transform="translate(0,3947.6378)">
    <g
       id="g12435">
      <g
         id="g4840"
         transform="matrix(78.114527,0,0,-78.114527,-29257.651,23679.649)">
        <g
           id="g4842">
          <g
             transform="translate(375.5277,315.4205)"
             id="g4848">
            <path
               id="path4850"
               style="fill:#000000;fill-opacity:1;fill-rule:nonzero;stroke:none"
               d="m 0,0 c -2.968,16.661 8.133,32.573 24.794,35.541 5.018,0.894 9.969,0.511 14.518,-0.915 0.338,0.489 0.667,0.938 0.982,1.33 0.436,0.543 0.882,1.023 1.32,1.346 0.388,0.288 1.038,0.65 1.743,0.382 0.706,-0.268 0.948,-0.974 1.045,-1.445 0.11,-0.532 0.123,-1.186 0.087,-1.882 C 44.461,33.817 44.4,33.21 44.315,32.556 52.451,28.314 58.601,20.479 60.334,10.747 63.302,-5.915 52.202,-21.826 35.541,-24.794 18.879,-27.762 2.968,-16.661 0,0" />
          </g>
          <g
             transform="translate(425.0872,298.6104)"
             id="g4852">
            <path
               id="path4854"
               style="fill:#0153a9;fill-opacity:1;fill-rule:nonzero;stroke:none"
               d="M 0,0 C -3.906,-3.405 -8.757,-5.827 -14.231,-6.801 -29.766,-9.569 -44.627,0.336 -48.202,15.51 -30.438,17.865 -12.752,11.944 0,0" />
          </g>
          <g
             transform="translate(425.0872,298.6104)"
             id="g4856">
            <path
               id="path4858"
               style="fill:#8fc5e9;fill-opacity:1;fill-rule:nonzero;stroke:none"
               d="m 0,0 c -0.255,-0.222 -9.661,7.949 -22.42,12.157 -15.828,5.22 -25.724,3.106 -25.782,3.353 8.977,1.19 17.935,0.267 26.246,-2.48 C -13.822,10.342 -6.308,5.908 0,0" />
          </g>
          <g
             transform="translate(396.2429,292.7603)"
             id="g4860">
            <path
               id="path4862"
               style="fill:#ffffff;fill-opacity:1;fill-rule:nonzero;stroke:none"
               d="M 0,0 C -0.158,0.053 -0.315,0.108 -0.472,0.164 L 11.626,31.878 11.916,31.743 0,0 Z" />
          </g>
          <g
             transform="translate(380.182,305.8129)"
             id="g4864">
            <path
               id="path4866"
               style="fill:#ffffff;fill-opacity:1;fill-rule:nonzero;stroke:none"
               d="m 0,0 c -0.083,0.141 -0.164,0.282 -0.245,0.425 4.923,3.421 7.923,6.369 11.95,11.57 2.88,3.72 5.69,9.117 7.432,12.736 l 0.309,-0.236 C 17.666,20.811 14.769,15.26 11.802,11.452 7.801,6.318 4.819,3.378 0,0" />
          </g>
          <g
             transform="translate(376.5747,315.6069)"
             id="g4868">
            <path
               id="path4870"
               style="fill:none;stroke:#ffffff;stroke-width:0.403;stroke-linecap:butt;stroke-linejoin:miter;stroke-miterlimit:3.86400008;stroke-dasharray:none;stroke-opacity:1"
               d="M 0,0 C -2.865,16.083 7.85,31.443 23.933,34.307 40.016,37.172 55.376,26.457 58.241,10.374 61.105,-5.709 50.39,-21.069 34.307,-23.933 18.224,-26.798 2.865,-16.083 0,0 Z" />
          </g>
          <g
             transform="translate(415.9887,292.9942)"
             id="g4872">
            <path
               id="path4874"
               style="fill:#ffffff;fill-opacity:1;fill-rule:nonzero;stroke:none"
               d="m 0,0 -0.41,-0.118 c -0.851,5.992 -0.953,9.479 -0.454,15.509 0.513,6.198 3.127,15.637 3.127,15.637 l 0.399,-0.013 c 0,0 -2.567,-9.226 -3.093,-15.285 C -0.962,9.616 -0.865,6.076 0,0" />
          </g>
          <g
             transform="translate(418.565,352.2645)"
             id="g4876">
            <path
               id="path4878"
               style="fill:#ffcc00;fill-opacity:1;fill-rule:evenodd;stroke:none"
               d="m 0,0 c 1.936,-0.737 -1.639,-13.195 -2.066,-17.542 -0.14,-1.439 1.608,-4.922 2.611,-7.311 0.618,-1.473 -0.12,-2.669 -0.669,-4.258 l -6.907,1.134 -0.462,-1.329 -0.777,0.115 -0.48,-1.139 -2.044,0.735 0.066,0.294 -0.148,0.062 c -0.214,-0.59 -0.58,-1.61 -0.58,-1.61 0,0 -0.215,-0.34 -0.38,-0.266 -0.158,0.07 -0.084,0.435 -0.084,0.435 l 0.561,1.595 -0.165,0.088 -0.146,-0.263 -2.014,0.814 0.401,1.169 -0.655,0.433 0.541,1.298 -5.904,3.759 c 0.65,1.55 0.897,2.934 2.339,3.62 2.34,1.113 5.965,2.543 6.82,3.71 C -7.566,-10.937 -1.945,0.74 0,0" />
          </g>
          <g
             transform="translate(412.9245,328.2066)"
             id="g4880">
            <path
               id="path4882"
               style="fill:#ffcc00;fill-opacity:1;fill-rule:nonzero;stroke:none"
               d="m 0,0 -0.273,-0.689 c -0.201,-0.506 -1.729,-0.375 -3.413,0.294 -1.685,0.668 -2.888,1.62 -2.687,2.126 L -6.1,2.419 -5.955,2.362 -5.227,4.199 -5.371,4.256 -3.823,8.229 2.276,5.81 0.729,1.837 0.572,1.899 -0.156,0.062 0,0 Z" />
          </g>
          <g
             transform="translate(412.9245,328.2066)"
             id="g4884">
            <path
               id="path4886"
               style="fill:none;stroke:#000000;stroke-width:0.20200001;stroke-linecap:butt;stroke-linejoin:miter;stroke-miterlimit:3.86400008;stroke-dasharray:none;stroke-opacity:1"
               d="m 0,0 -0.273,-0.689 c -0.201,-0.506 -1.729,-0.375 -3.413,0.294 -1.685,0.668 -2.888,1.62 -2.687,2.126 L -6.1,2.419 -5.955,2.362 -5.227,4.199 -5.371,4.256 -3.823,8.229 2.276,5.81 0.729,1.837 0.572,1.899 -0.156,0.062 0,0 Z" />
          </g>
          <g
             transform="translate(409.1012,336.436)"
             id="g4888">
            <path
               id="path4890"
               style="fill:#ffcc00;fill-opacity:1;fill-rule:nonzero;stroke:none"
               d="M 0,0 C 0.201,0.506 1.729,0.375 3.413,-0.294 5.097,-0.962 6.3,-1.914 6.1,-2.42 5.899,-2.926 4.371,-2.794 2.687,-2.126 1.002,-1.458 -0.201,-0.506 0,0" />
          </g>
          <g
             transform="translate(409.1012,336.436)"
             id="g4892">
            <path
               id="path4894"
               style="fill:none;stroke:#000000;stroke-width:0.20200001;stroke-linecap:butt;stroke-linejoin:miter;stroke-miterlimit:3.86400008;stroke-dasharray:none;stroke-opacity:1"
               d="M 0,0 C 0.201,0.506 1.729,0.375 3.413,-0.294 5.097,-0.962 6.3,-1.914 6.1,-2.42 5.899,-2.926 4.371,-2.794 2.687,-2.126 1.002,-1.458 -0.201,-0.506 0,0 Z" />
          </g>
          <g
             transform="translate(407.7081,332.818)"
             id="g4896">
            <path
               id="path4898"
               style="fill:none;stroke:#000000;stroke-width:0.20200001;stroke-linecap:butt;stroke-linejoin:miter;stroke-miterlimit:3.86400008;stroke-dasharray:none;stroke-opacity:1"
               d="m 0,0 0.006,-0.002 c 0.249,-0.099 0.216,-0.77 -0.074,-1.499 -0.289,-0.73 -0.725,-1.241 -0.973,-1.143 -0.006,0.003 -0.012,0.005 -0.018,0.008" />
          </g>
          <g
             transform="translate(412.7485,327.7625)"
             id="g4900">
            <path
               id="path4902"
               style="fill:none;stroke:#000000;stroke-width:0.20200001;stroke-linecap:butt;stroke-linejoin:miter;stroke-miterlimit:3.86400008;stroke-dasharray:none;stroke-opacity:1"
               d="m 0,0 -0.006,0.002 c -0.249,0.099 -0.216,0.77 0.073,1.5 0.29,0.729 0.726,1.241 0.974,1.142 L 1.047,2.641" />
          </g>
          <g
             transform="translate(408.4263,330.1433)"
             id="g4904">
            <path
               id="path4906"
               style="fill:#ffcc00;fill-opacity:1;fill-rule:nonzero;stroke:none"
               d="M 0,0 C 0.288,0.726 1.169,1.058 1.968,0.741 2.767,0.424 3.182,-0.422 2.893,-1.148 2.606,-1.874 1.725,-2.206 0.925,-1.888 0.126,-1.572 -0.288,-0.726 0,0" />
          </g>
          <g
             transform="translate(408.4263,330.1433)"
             id="g4908">
            <path
               id="path4910"
               style="fill:none;stroke:#000000;stroke-width:0.20200001;stroke-linecap:butt;stroke-linejoin:miter;stroke-miterlimit:3.86400008;stroke-dasharray:none;stroke-opacity:1"
               d="M 0,0 C 0.288,0.726 1.169,1.058 1.968,0.741 2.767,0.424 3.182,-0.422 2.893,-1.148 2.606,-1.874 1.725,-2.206 0.925,-1.888 0.126,-1.572 -0.288,-0.726 0,0 Z" />
          </g>
          <g
             transform="translate(414.1091,331.192)"
             id="g4912">
            <path
               id="path4914"
               style="fill:none;stroke:#000000;stroke-width:0.20200001;stroke-linecap:butt;stroke-linejoin:miter;stroke-miterlimit:3.86400008;stroke-dasharray:none;stroke-opacity:1"
               d="m 0,0 c -0.201,-0.506 -1.729,-0.375 -3.414,0.293 -1.685,0.668 -2.887,1.62 -2.687,2.126" />
          </g>
          <g
             transform="translate(409.5524,330.6346)"
             id="g4916">
            <path
               id="path4918"
               style="fill:#ffcc00;fill-opacity:1;fill-rule:nonzero;stroke:none"
               d="M 0,0 1.26,-0.5 C 1.393,-0.553 1.458,-0.703 1.405,-0.835 L 0.958,-1.964 C 0.905,-2.097 0.755,-2.161 0.622,-2.109 l -1.26,0.501 c -0.133,0.052 -0.198,0.202 -0.145,0.335 l 0.448,1.128 C -0.283,-0.012 -0.133,0.053 0,0" />
          </g>
          <g
             transform="translate(409.5524,330.6346)"
             id="g4920">
            <path
               id="path4922"
               style="fill:none;stroke:#000000;stroke-width:0.20200001;stroke-linecap:butt;stroke-linejoin:miter;stroke-miterlimit:3.86400008;stroke-dasharray:none;stroke-opacity:1"
               d="M 0,0 1.26,-0.5 C 1.393,-0.553 1.458,-0.703 1.405,-0.835 L 0.958,-1.964 C 0.905,-2.097 0.755,-2.161 0.622,-2.109 l -1.26,0.501 c -0.133,0.052 -0.198,0.202 -0.145,0.335 l 0.448,1.128 C -0.283,-0.012 -0.133,0.053 0,0 Z" />
          </g>
          <g
             transform="translate(413.7971,335.308)"
             id="g4924">
            <path
               id="path4926"
               style="fill:#ffcc00;fill-opacity:1;fill-rule:nonzero;stroke:none"
               d="m 0,0 c -0.088,-0.22 -0.793,-0.146 -1.576,0.165 -0.782,0.31 -1.346,0.739 -1.26,0.959 L -2.689,1.497 0.145,0.372 0,0 Z" />
          </g>
          <g
             transform="translate(413.7971,335.308)"
             id="g4928">
            <path
               id="path4930"
               style="fill:none;stroke:#000000;stroke-width:0.20200001;stroke-linecap:butt;stroke-linejoin:miter;stroke-miterlimit:3.86400008;stroke-dasharray:none;stroke-opacity:1"
               d="m 0,0 c -0.088,-0.22 -0.793,-0.146 -1.576,0.165 -0.782,0.31 -1.346,0.739 -1.26,0.959 L -2.689,1.497 0.145,0.372 0,0 Z" />
          </g>
          <g
             transform="translate(411.1079,336.805)"
             id="g4932">
            <path
               id="path4934"
               style="fill:#ffcc00;fill-opacity:1;fill-rule:nonzero;stroke:none"
               d="m 0,0 c 0.087,0.219 0.792,0.146 1.575,-0.165 0.783,-0.31 1.347,-0.74 1.26,-0.96 C 2.748,-1.344 2.043,-1.27 1.259,-0.96 0.477,-0.649 -0.087,-0.219 0,0" />
          </g>
          <g
             transform="translate(411.1079,336.805)"
             id="g4936">
            <path
               id="path4938"
               style="fill:none;stroke:#000000;stroke-width:0.20200001;stroke-linecap:butt;stroke-linejoin:miter;stroke-miterlimit:3.86400008;stroke-dasharray:none;stroke-opacity:1"
               d="m 0,0 c 0.087,0.219 0.792,0.146 1.575,-0.165 0.783,-0.31 1.347,-0.74 1.26,-0.96 C 2.748,-1.344 2.043,-1.27 1.259,-0.96 0.477,-0.649 -0.087,-0.219 0,0 Z" />
          </g>
          <g
             transform="translate(410.2316,333.4879)"
             id="g4940">
            <path
               id="path4942"
               style="fill:#ffcc00;fill-opacity:1;fill-rule:nonzero;stroke:none"
               d="M 0,0 C 0.102,0.257 0.405,0.378 0.676,0.27 0.947,0.162 1.085,-0.133 0.983,-0.39 0.881,-0.647 0.578,-0.768 0.307,-0.66 0.036,-0.552 -0.102,-0.257 0,0" />
          </g>
          <g
             transform="translate(410.2316,333.4879)"
             id="g4944">
            <path
               id="path4946"
               style="fill:none;stroke:#000000;stroke-width:0.20200001;stroke-linecap:butt;stroke-linejoin:miter;stroke-miterlimit:3.86400008;stroke-dasharray:none;stroke-opacity:1"
               d="M 0,0 C 0.102,0.257 0.405,0.378 0.676,0.27 0.947,0.162 1.085,-0.133 0.983,-0.39 0.881,-0.647 0.578,-0.768 0.307,-0.66 0.036,-0.552 -0.102,-0.257 0,0 Z" />
          </g>
          <g
             transform="translate(410.8712,332.9472)"
             id="g4948">
            <path
               id="path4950"
               style="fill:#000000;fill-opacity:1;fill-rule:nonzero;stroke:none"
               d="M 0,0 -0.269,-0.011 -0.14,0.348 0,0 Z" />
          </g>
          <g
             transform="translate(411.0344,333.5146)"
             id="g4952">
            <path
               id="path4954"
               style="fill:#000000;fill-opacity:1;fill-rule:nonzero;stroke:none"
               d="M 0,0 0.076,-0.258 -0.303,-0.22 0,0 Z" />
          </g>
          <g
             transform="translate(410.3693,333.3918)"
             id="g4956">
            <path
               id="path4958"
               style="fill:#000000;fill-opacity:1;fill-rule:nonzero;stroke:none"
               d="M 0,0 0.152,0.221 0.362,-0.097 0,0 Z" />
          </g>
        </g>
      </g>
      <g
         transform="matrix(78.114527,0,0,-78.114527,977.06101,279.41654)"
         id="TANI">
        <g
           id="g12324">
          <path
             d="M 0,0 -1.159,1.59 -1.571,1.29 -1.174,0.746 -3.252,-0.769 -2.886,-1.271 -0.808,0.244 -0.411,-0.3 0,0 Z"
             style="fill:#ffffff;fill-opacity:1;fill-rule:evenodd;stroke:none"
             id="path4962"
             transform="translate(-1.2586955,5.6811999)" />
          <path
             d="m 0,0 -1.766,-2.654 -0.429,0.485 0.393,0.539 -0.543,0.613 -0.582,-0.325 -0.43,0.485 2.848,1.432 L 0,0 Z m -1.492,-1.212 0.84,1.141 -0.006,0.007 -1.234,-0.696 0.4,-0.452 z"
             style="fill:#ffffff;fill-opacity:1;fill-rule:evenodd;stroke:none"
             id="path4966"
             transform="translate(-0.3020949,4.6405599)" />
          <path
             d="m 0,0 -0.516,0.498 -2.139,-2.218 0.41,-0.396 1.498,1.553 0.007,-0.006 -0.952,-2.08 0.509,-0.491 2.139,2.217 -0.41,0.396 L -0.918,-2.046 -0.925,-2.04 0,0 Z"
             style="fill:#ffffff;fill-opacity:1;fill-rule:evenodd;stroke:none"
             id="path4970"
             transform="translate(0.73329625,3.5451196)" />
          <path
             d="M 0,0 0.466,-0.411 2.504,1.9 2.038,2.311 0,0 Z"
             style="fill:#ffffff;fill-opacity:1;fill-rule:evenodd;stroke:none"
             id="path4974" />
        </g>
      </g>
      <g
         id="g4996"
         transform="matrix(78.114527,0,0,-78.114527,-29257.651,23679.649)">
        <g
           id="g4998">
          <g
             transform="translate(377.9164,326.3679)"
             id="WHEELOCK">
            <g
               id="g12337">
              <path
                 d="M 0,0 2.583,1.77 2.3,2.405 0.118,1.807 0.115,1.815 2.014,3.043 1.731,3.677 -1.311,2.931 -1.068,2.387 1.151,3.006 1.155,2.999 -0.777,1.737 -0.534,1.194 1.694,1.793 1.698,1.785 -0.243,0.544 0,0 Z"
                 style="fill:#ffffff;fill-opacity:1;fill-rule:evenodd;stroke:none"
                 id="path4978"
                 transform="translate(2.4134008,-18.192286)" />
              <path
                 d="M 0,0 2.945,0.906 2.762,1.5 1.455,1.098 1.241,1.791 2.549,2.193 2.366,2.787 -0.579,1.881 -0.396,1.287 0.73,1.633 0.943,0.941 -0.183,0.594 0,0 Z"
                 style="fill:#ffffff;fill-opacity:1;fill-rule:evenodd;stroke:none"
                 id="path4982"
                 transform="translate(0.98509677,-14.770606)" />
              <path
                 d="M 0,0 0.361,-1.684 3.374,-1.038 3.004,0.688 2.506,0.581 2.746,-0.537 1.935,-0.711 1.718,0.302 1.221,0.195 1.438,-0.817 0.729,-0.969 0.498,0.107 0,0 Z"
                 style="fill:#ffffff;fill-opacity:1;fill-rule:evenodd;stroke:none"
                 id="path4986"
                 transform="translate(-0.08989521,-10.597006)" />
              <path
                 d="M 0,0 0.243,-1.705 3.293,-1.271 3.044,0.477 2.54,0.405 2.701,-0.727 1.881,-0.844 1.735,0.182 1.231,0.11 1.377,-0.916 0.659,-1.018 0.504,0.072 0,0 Z"
                 style="fill:#ffffff;fill-opacity:1;fill-rule:evenodd;stroke:none"
                 id="path4990"
                 transform="translate(-0.41649515,-8.3932472)" />
              <path
                 d="M 0,0 -0.093,1.719 -0.601,1.692 -0.542,0.593 -3.11,0.454 -3.077,-0.167 0,0 Z"
                 style="fill:#ffffff;fill-opacity:1;fill-rule:evenodd;stroke:none"
                 id="path4994"
                 transform="translate(2.6311048,-7.6918873)" />
              <path
                 d="m 0,0 c 0.236,-0.008 0.452,-0.005 0.648,0.009 0.196,0.016 0.366,0.058 0.509,0.125 0.144,0.07 0.255,0.173 0.334,0.309 0.08,0.135 0.123,0.32 0.131,0.553 C 1.63,1.228 1.598,1.415 1.528,1.556 1.458,1.696 1.354,1.805 1.215,1.881 1.077,1.961 0.91,2.014 0.715,2.04 0.521,2.07 0.305,2.088 0.07,2.096 -0.163,2.104 -0.378,2.1 -0.574,2.083 -0.773,2.07 -0.945,2.028 -1.088,1.958 -1.231,1.89 -1.344,1.789 -1.426,1.654 -1.511,1.518 -1.558,1.334 -1.565,1.101 -1.573,0.868 -1.539,0.682 -1.463,0.541 -1.39,0.4 -1.284,0.29 -1.146,0.211 -1.008,0.134 -0.839,0.081 -0.642,0.051 -0.447,0.025 -0.233,0.008 0,0 m 0.021,0.621 c -0.208,0.007 -0.383,0.017 -0.526,0.03 -0.143,0.017 -0.261,0.041 -0.352,0.073 -0.091,0.034 -0.156,0.08 -0.194,0.135 -0.041,0.06 -0.06,0.135 -0.057,0.227 0.003,0.092 0.027,0.165 0.072,0.218 0.042,0.056 0.109,0.097 0.202,0.123 0.094,0.028 0.212,0.044 0.356,0.048 0.144,0.007 0.32,0.007 0.527,0 C 0.256,1.468 0.433,1.457 0.579,1.44 0.722,1.427 0.839,1.403 0.93,1.368 1.019,1.336 1.083,1.291 1.125,1.232 1.163,1.176 1.181,1.102 1.178,1.01 1.175,0.918 1.152,0.844 1.11,0.788 1.065,0.735 0.997,0.694 0.907,0.665 0.814,0.639 0.696,0.623 0.551,0.616 0.405,0.613 0.228,0.614 0.021,0.621"
                 style="fill:#ffffff;fill-opacity:1;fill-rule:evenodd;stroke:none"
                 id="path5006"
                 transform="translate(0.97079994,-5.7937999)" />
              <path
                 d="M 0,0 0.075,0.617 C -0.037,0.63 -0.156,0.636 -0.284,0.634 -0.414,0.636 -0.538,0.611 -0.654,0.562 -0.773,0.512 -0.876,0.428 -0.963,0.308 -1.049,0.191 -1.106,0.022 -1.132,-0.198 c -0.028,-0.231 -0.011,-0.42 0.053,-0.567 0.06,-0.146 0.156,-0.265 0.287,-0.356 0.131,-0.089 0.294,-0.156 0.488,-0.203 0.192,-0.043 0.404,-0.079 0.635,-0.107 0.234,-0.028 0.45,-0.044 0.646,-0.048 0.197,-10e-4 0.37,0.026 0.519,0.081 0.149,0.057 0.269,0.15 0.359,0.278 0.091,0.128 0.151,0.308 0.179,0.539 0.024,0.203 0.013,0.371 -0.035,0.504 C 1.952,0.059 1.876,0.168 1.773,0.25 1.671,0.335 1.546,0.4 1.401,0.443 1.256,0.487 1.1,0.519 0.935,0.539 L 0.86,-0.078 c 0.166,-0.02 0.299,-0.046 0.399,-0.079 0.098,-0.032 0.173,-0.069 0.226,-0.11 0.05,-0.041 0.082,-0.086 0.096,-0.137 C 1.593,-0.452 1.595,-0.503 1.589,-0.558 1.581,-0.623 1.561,-0.68 1.529,-0.728 1.494,-0.773 1.437,-0.808 1.355,-0.833 1.272,-0.855 1.157,-0.866 1.012,-0.866 0.868,-0.863 0.68,-0.847 0.449,-0.819 c -0.217,0.026 -0.4,0.054 -0.547,0.083 -0.15,0.03 -0.269,0.065 -0.357,0.104 -0.09,0.04 -0.153,0.087 -0.187,0.14 -0.037,0.057 -0.05,0.124 -0.041,0.201 0.017,0.14 0.08,0.229 0.189,0.268 C -0.387,0.02 -0.223,0.027 0,0"
                 style="fill:#ffffff;fill-opacity:1;fill-rule:evenodd;stroke:none"
                 id="path5010"
                 transform="translate(0.7461,-1.9180995)" />
              <path
                 d="M 0,0 -0.128,-0.608 2.887,-1.244 3.015,-0.635 2.12,-0.447 1.825,-0.151 3.193,0.209 3.337,0.893 1.422,0.344 0.303,1.436 0.164,0.777 1.209,-0.246 1.208,-0.255 0,0 Z"
                 style="fill:#ffffff;fill-opacity:1;fill-rule:evenodd;stroke:none"
                 id="path5014" />
            </g>
          </g>
          <g
             transform="translate(394.7754,343.5515)"
             id="PARAZYNSKI">
            <g
               id="g12356">
              <path
                 d="m 0,0 2.859,-1.149 0.232,0.576 -1.142,0.459 0.125,0.308 C 2.128,0.331 2.161,0.461 2.171,0.588 2.181,0.714 2.168,0.829 2.129,0.935 2.092,1.043 2.027,1.14 1.935,1.227 1.844,1.316 1.725,1.39 1.578,1.449 1.471,1.492 1.362,1.521 1.249,1.535 1.135,1.55 1.025,1.543 0.92,1.514 0.815,1.485 0.719,1.429 0.63,1.347 0.539,1.268 0.465,1.156 0.406,1.009 L 0,0 Z m 1.525,0.056 -0.869,0.35 0.097,0.24 C 0.811,0.79 0.89,0.878 0.989,0.909 1.088,0.941 1.21,0.927 1.354,0.87 1.501,0.81 1.595,0.731 1.635,0.631 1.677,0.534 1.674,0.428 1.628,0.313 L 1.525,0.056 Z"
                 style="fill:#ffffff;fill-opacity:1;fill-rule:evenodd;stroke:none"
                 id="path5018"
                 transform="translate(-15.7478,-13.1501)" />
              <path
                 d="M 0,0 3.117,-0.667 2.824,-1.244 2.178,-1.076 1.807,-1.807 2.324,-2.229 2.031,-2.806 -0.348,-0.685 0,0 Z m 1.676,-0.942 -1.371,0.361 -0.003,-0.007 1.1,-0.893 0.274,0.539 z"
                 style="fill:#ffffff;fill-opacity:1;fill-rule:evenodd;stroke:none"
                 id="path5022"
                 transform="translate(-14.3884,-9.8618996)" />
              <path
                 d="M 0,0 -0.755,0.47 -0.6,0.719 C -0.448,0.963 -0.251,1.01 -0.009,0.86 0.133,0.772 0.213,0.674 0.231,0.568 0.247,0.463 0.216,0.347 0.137,0.22 L 0,0 Z m -1.471,0.184 2.615,-1.628 0.329,0.527 -1.107,0.689 0.176,0.282 C 0.61,0.164 0.688,0.224 0.776,0.234 0.863,0.244 0.96,0.219 1.066,0.16 L 1.577,-0.138 C 1.629,-0.167 1.682,-0.193 1.736,-0.216 1.787,-0.238 1.839,-0.247 1.892,-0.243 L 2.248,0.329 2.226,0.343 C 2.169,0.31 2.099,0.31 2.017,0.341 1.937,0.377 1.826,0.436 1.684,0.517 1.612,0.559 1.547,0.596 1.489,0.629 1.429,0.663 1.373,0.692 1.321,0.718 1.165,0.795 1.036,0.823 0.932,0.803 0.828,0.783 0.725,0.713 0.623,0.593 L 0.616,0.598 C 0.677,0.766 0.674,0.92 0.609,1.06 0.541,1.201 0.418,1.326 0.243,1.435 0.015,1.577 -0.191,1.62 -0.377,1.567 -0.565,1.514 -0.728,1.378 -0.865,1.159 L -1.471,0.184 Z"
                 style="fill:#ffffff;fill-opacity:1;fill-rule:evenodd;stroke:none"
                 id="path5026"
                 transform="translate(-12.3523,-9.0155001)" />
              <path
                 d="M 0,0 2.954,-1.198 2.565,-1.715 1.958,-1.438 1.466,-2.094 1.901,-2.599 1.513,-3.117 -0.461,-0.614 0,0 Z M 1.486,-1.219 0.2,-0.625 0.195,-0.632 l 0.929,-1.07 0.362,0.483 z"
                 style="fill:#ffffff;fill-opacity:1;fill-rule:evenodd;stroke:none"
                 id="path5030"
                 transform="translate(-11.6459,-5.5843995)" />
              <path
                 d="M 0,0 0.342,-0.297 1.566,1.116 1.181,1.449 0.415,0.565 -0.419,2.812 -0.774,3.12 -1.936,1.779 -1.551,1.446 -0.858,2.245 0,0 Z"
                 style="fill:#ffffff;fill-opacity:1;fill-rule:evenodd;stroke:none"
                 id="path5034"
                 transform="translate(-8.8697,-6.3513003)" />
              <path
                 d="M 0,0 -0.511,-0.478 1.349,-1.297 2.178,-2.182 2.631,-1.757 1.803,-0.872 1.109,1.038 0.618,0.578 1.116,-0.587 1.11,-0.593 0,0 Z"
                 style="fill:#ffffff;fill-opacity:1;fill-rule:evenodd;stroke:none"
                 id="path5038"
                 transform="translate(-8.9164,-2.5355)" />
              <path
                 d="M 0,0 -0.564,-0.442 1.337,-2.867 1.786,-2.515 0.454,-0.817 0.461,-0.812 2.39,-2.041 2.947,-1.605 1.046,0.82 0.598,0.469 1.9,-1.192 1.893,-1.197 0,0 Z"
                 style="fill:#ffffff;fill-opacity:1;fill-rule:evenodd;stroke:none"
                 id="path5042"
                 transform="translate(-7.0238004,-0.78470004)" />
              <path
                 d="m 0,0 -0.515,-0.349 0.071,-0.103 c 0.159,-0.236 0.344,-0.375 0.553,-0.417 0.212,-0.041 0.463,0.037 0.754,0.234 0.278,0.188 0.454,0.396 0.527,0.622 0.073,0.23 0.019,0.48 -0.164,0.749 C 1.173,0.815 1.118,0.882 1.06,0.936 1.002,0.991 0.936,1.032 0.863,1.058 0.79,1.089 0.707,1.106 0.615,1.109 0.52,1.115 0.41,1.106 0.283,1.083 L -0.23,0.986 c -0.14,-0.029 -0.244,-0.029 -0.313,0.001 -0.071,0.032 -0.133,0.088 -0.186,0.166 -0.026,0.038 -0.047,0.078 -0.064,0.118 -0.015,0.042 -0.02,0.084 -0.016,0.125 0.004,0.044 0.02,0.088 0.046,0.13 0.027,0.043 0.069,0.084 0.127,0.122 0.099,0.068 0.193,0.083 0.282,0.045 0.086,-0.035 0.17,-0.113 0.253,-0.235 L 0.392,1.792 0.344,1.864 C 0.261,1.985 0.171,2.075 0.072,2.133 -0.026,2.196 -0.129,2.23 -0.237,2.236 -0.345,2.247 -0.456,2.231 -0.57,2.189 -0.683,2.15 -0.797,2.092 -0.911,2.015 -1.156,1.849 -1.307,1.656 -1.364,1.437 -1.421,1.218 -1.363,0.982 -1.192,0.73 -1.121,0.625 -1.045,0.541 -0.964,0.478 -0.885,0.417 -0.797,0.374 -0.7,0.349 -0.603,0.328 -0.497,0.323 -0.383,0.335 -0.269,0.346 -0.142,0.371 -0.002,0.41 0.103,0.44 0.194,0.46 0.271,0.47 0.348,0.484 0.416,0.487 0.474,0.477 0.533,0.468 0.583,0.447 0.627,0.414 0.671,0.384 0.712,0.341 0.751,0.284 0.824,0.177 0.845,0.075 0.816,-0.021 0.788,-0.113 0.735,-0.185 0.656,-0.238 0.59,-0.283 0.527,-0.312 0.469,-0.324 0.413,-0.333 0.361,-0.331 0.312,-0.315 0.264,-0.3 0.218,-0.271 0.177,-0.23 0.133,-0.186 0.091,-0.135 0.051,-0.075 L 0,0 Z"
                 style="fill:#ffffff;fill-opacity:1;fill-rule:evenodd;stroke:none"
                 id="path5046"
                 transform="translate(-3.8763,-1.1181)" />
              <path
                 d="M 0,0 -0.548,-0.293 0.903,-3.011 1.451,-2.718 1.02,-1.911 1.058,-1.495 2.213,-2.311 2.829,-1.982 1.178,-0.868 1.294,0.691 0.7,0.374 0.589,-1.085 0.581,-1.089 0,0 Z"
                 style="fill:#ffffff;fill-opacity:1;fill-rule:evenodd;stroke:none"
                 id="path5050"
                 transform="translate(-2.9088999,1.9686)" />
              <path
                 d="M 0,0 0.563,0.264 -0.744,3.054 -1.307,2.79 0,0 Z"
                 style="fill:#ffffff;fill-opacity:1;fill-rule:evenodd;stroke:none"
                 id="path5054" />
            </g>
          </g>
          <g
             transform="translate(410.6371,348.6801)"
             id="MELROY">
            <g
               id="g12373">
              <path
                 d="m 0,0 0.751,-2.988 0.552,0.138 -0.599,2.386 0.008,0.002 1.131,-2.252 0.469,0.118 -0.068,2.519 0.008,0.002 0.6,-2.385 0.552,0.138 L 2.654,0.667 1.762,0.443 1.861,-1.775 1.852,-1.777 0.896,0.225 0,0 Z"
                 style="fill:#ffffff;fill-opacity:1;fill-rule:evenodd;stroke:none"
                 id="path5058"
                 transform="translate(-13.0778,-0.75569997)" />
              <path
                 d="m 0,0 -1.705,-0.243 0.434,-3.05 1.748,0.249 -0.072,0.504 -1.132,-0.161 -0.117,0.82 1.026,0.146 -0.072,0.504 -1.025,-0.146 -0.103,0.718 1.09,0.155 L 0,0 Z"
                 style="fill:#ffffff;fill-opacity:1;fill-rule:evenodd;stroke:none"
                 id="path5062"
                 transform="translate(-8.1500005,0.27200004)" />
              <path
                 d="M 0,0 1.72,0.093 1.692,0.602 0.593,0.542 0.454,3.11 -0.166,3.077 0,0 Z"
                 style="fill:#ffffff;fill-opacity:1;fill-rule:evenodd;stroke:none"
                 id="path5066"
                 transform="translate(-7.4303994,-2.7658)" />
              <path
                 d="M 0,0 0.014,0.889 0.307,0.884 C 0.595,0.88 0.737,0.735 0.732,0.45 0.73,0.283 0.687,0.165 0.606,0.094 0.524,0.026 0.408,-0.006 0.259,-0.004 L 0,0 Z m -0.6,1.356 -0.049,-3.081 0.622,-0.01 0.02,1.304 0.333,-0.006 C 0.455,-0.439 0.546,-0.475 0.6,-0.544 0.654,-0.614 0.682,-0.71 0.686,-0.831 l 0.008,-0.591 c 0.002,-0.061 0.007,-0.12 0.015,-0.177 0.007,-0.055 0.027,-0.104 0.058,-0.148 l 0.673,-0.011 0,0.026 c -0.057,0.033 -0.093,0.092 -0.109,0.179 -0.01,0.086 -0.017,0.212 -0.02,0.376 -0.002,0.083 -0.004,0.158 -0.005,0.224 -0.002,0.069 -0.005,0.133 -0.01,0.19 -0.015,0.173 -0.058,0.299 -0.128,0.378 -0.071,0.079 -0.184,0.131 -0.339,0.156 L 0.83,-0.22 c 0.175,0.034 0.306,0.116 0.392,0.244 0.085,0.131 0.13,0.3 0.133,0.507 C 1.359,0.799 1.29,0.998 1.148,1.13 1.007,1.265 0.807,1.334 0.547,1.338 L -0.6,1.356 Z"
                 style="fill:#ffffff;fill-opacity:1;fill-rule:evenodd;stroke:none"
                 id="path5070"
                 transform="translate(-4.7923997,-0.93290005)" />
              <path
                 d="m 0,0 c -0.028,-0.234 -0.044,-0.45 -0.048,-0.646 0,-0.197 0.027,-0.37 0.081,-0.519 0.057,-0.149 0.15,-0.268 0.278,-0.359 0.128,-0.091 0.308,-0.15 0.539,-0.178 0.232,-0.029 0.42,-0.014 0.566,0.044 0.146,0.058 0.264,0.152 0.352,0.284 0.091,0.13 0.159,0.292 0.202,0.483 0.046,0.192 0.084,0.405 0.112,0.639 C 2.11,-0.021 2.125,0.194 2.125,0.391 2.129,0.59 2.102,0.764 2.045,0.913 1.991,1.062 1.899,1.183 1.771,1.277 1.644,1.373 1.465,1.436 1.233,1.463 1.002,1.491 0.813,1.474 0.666,1.41 0.52,1.35 0.401,1.254 0.31,1.123 0.221,0.992 0.154,0.829 0.107,0.635 0.064,0.443 0.028,0.231 0,0 M 0.617,-0.075 C 0.642,0.131 0.667,0.305 0.693,0.446 0.722,0.588 0.756,0.703 0.796,0.791 0.838,0.878 0.889,0.939 0.948,0.972 1.01,1.008 1.087,1.021 1.178,1.009 1.27,0.998 1.34,0.968 1.389,0.919 1.442,0.872 1.476,0.801 1.494,0.706 1.514,0.611 1.52,0.491 1.511,0.348 1.505,0.203 1.49,0.028 1.465,-0.177 1.44,-0.383 1.413,-0.558 1.384,-0.702 1.358,-0.844 1.324,-0.959 1.282,-1.046 1.243,-1.131 1.192,-1.192 1.13,-1.228 1.07,-1.261 0.995,-1.272 0.904,-1.261 0.812,-1.25 0.74,-1.221 0.688,-1.174 c -0.049,0.049 -0.084,0.12 -0.104,0.212 -0.018,0.095 -0.024,0.215 -0.018,0.359 0.009,0.147 0.026,0.323 0.051,0.528"
                 style="fill:#ffffff;fill-opacity:1;fill-rule:evenodd;stroke:none"
                 id="path5074"
                 transform="translate(-3.0680994,-1.1707)" />
              <path
                 d="m 0,0 -0.684,0.144 0.396,-1.993 -0.25,-1.186 0.608,-0.129 0.25,1.187 1.166,1.664 L 0.828,-0.174 0.16,-1.251 0.151,-1.249 0,0 Z"
                 style="fill:#ffffff;fill-opacity:1;fill-rule:evenodd;stroke:none"
                 id="path5078" />
            </g>
          </g>
          <g
             transform="translate(429.8716,335.411)"
             id="ZAMKA">
            <g
               id="g12385">
              <path
                 d="M 0,0 -0.265,-0.367 1.248,-1.463 1.547,-1.05 0.6,-0.365 2.765,0.662 3.041,1.043 1.604,2.083 1.306,1.671 2.162,1.051 0,0 Z"
                 style="fill:#ffffff;fill-opacity:1;fill-rule:evenodd;stroke:none"
                 id="path5082"
                 transform="translate(-10.3519,7.0739)" />
              <path
                 d="m 0,0 -1.35,-2.887 -0.497,0.415 0.309,0.592 -0.629,0.526 -0.528,-0.409 -0.496,0.415 2.602,1.841 L 0,0 Z m -1.295,-1.421 0.66,1.254 -0.006,0.006 -1.117,-0.872 0.463,-0.388 z"
                 style="fill:#ffffff;fill-opacity:1;fill-rule:evenodd;stroke:none"
                 id="path5086"
                 transform="translate(-5.7722004,6.8215)" />
              <path
                 d="m 0,0 -2.25,-2.105 0.389,-0.416 1.796,1.68 0.006,-0.006 -1.421,-2.081 0.33,-0.353 2.17,1.281 0.006,-0.006 -1.796,-1.681 0.389,-0.416 2.25,2.105 -0.628,0.671 -1.892,-1.161 -0.006,0.006 1.288,1.808 L 0,0 Z"
                 style="fill:#ffffff;fill-opacity:1;fill-rule:evenodd;stroke:none"
                 id="path5090"
                 transform="translate(-4.7494995,5.9532)" />
              <path
                 d="m 0,0 -0.383,0.489 -2.425,-1.901 0.384,-0.489 0.719,0.564 0.417,0.036 -0.604,-1.279 0.432,-0.55 0.81,1.82 1.556,0.155 -0.416,0.53 -1.456,-0.143 -0.005,0.007 L 0,0 Z"
                 style="fill:#ffffff;fill-opacity:1;fill-rule:evenodd;stroke:none"
                 id="path5094"
                 transform="translate(-2.0583995,2.9593994)" />
              <path
                 d="m 0,0 -2.177,-2.328 -0.344,0.548 0.476,0.467 -0.435,0.695 -0.628,-0.226 -0.344,0.548 3.044,0.947 L 0,0 Z m -1.671,-0.951 1.016,0.989 -0.005,0.007 -1.331,-0.484 0.32,-0.512 z"
                 style="fill:#ffffff;fill-opacity:1;fill-rule:evenodd;stroke:none"
                 id="path5098" />
            </g>
          </g>
          <g
             transform="translate(433.9046,320.5285)"
             id="WILSON">
            <g
               id="g12397">
              <path
                 d="m 0,0 -2.644,-1.679 0.262,-0.644 2.201,0.521 0.003,-0.008 -1.942,-1.161 0.262,-0.643 3.066,0.639 -0.224,0.552 -2.24,-0.541 -0.003,0.008 1.975,1.193 -0.224,0.551 -2.247,-0.521 -0.004,0.008 1.983,1.173 L 0,0 Z"
                 style="fill:#ffffff;fill-opacity:1;fill-rule:evenodd;stroke:none"
                 id="path5102"
                 transform="translate(-2.6795002,12.412599)" />
              <path
                 d="M 0,0 0.183,-0.594 3.128,0.312 2.945,0.906 0,0 Z"
                 style="fill:#ffffff;fill-opacity:1;fill-rule:evenodd;stroke:none"
                 id="path5106"
                 transform="translate(-4.3021997,8.0829003)" />
              <path
                 d="M 0,0 0.419,-1.67 0.913,-1.546 0.645,-0.479 3.139,0.148 2.988,0.751 0,0 Z"
                 style="fill:#ffffff;fill-opacity:1;fill-rule:evenodd;stroke:none"
                 id="path5110"
                 transform="translate(-3.9923994,7.0711)" />
              <path
                 d="M 0,0 -0.098,0.614 -0.222,0.594 C -0.503,0.549 -0.707,0.441 -0.834,0.269 -0.96,0.094 -0.996,-0.167 -0.94,-0.513 c 0.053,-0.333 0.167,-0.58 0.341,-0.741 0.178,-0.164 0.427,-0.22 0.748,-0.169 0.094,0.015 0.178,0.038 0.252,0.067 0.074,0.029 0.139,0.072 0.193,0.127 0.059,0.053 0.109,0.121 0.152,0.204 0.045,0.082 0.083,0.186 0.116,0.311 L 0.99,-0.208 C 1.024,-0.069 1.068,0.025 1.124,0.075 1.183,0.125 1.26,0.158 1.353,0.173 1.399,0.181 1.444,0.183 1.488,0.182 1.532,0.177 1.572,0.164 1.607,0.144 1.646,0.121 1.679,0.088 1.706,0.046 1.733,0.004 1.752,-0.051 1.763,-0.12 1.782,-0.239 1.756,-0.331 1.685,-0.395 1.616,-0.458 1.51,-0.501 1.365,-0.524 l 0.094,-0.588 0.085,0.013 c 0.145,0.023 0.265,0.068 0.359,0.132 0.098,0.063 0.173,0.142 0.225,0.237 0.054,0.093 0.087,0.201 0.097,0.322 0.013,0.118 0.008,0.246 -0.013,0.382 C 2.164,0.267 2.054,0.485 1.879,0.629 1.705,0.773 1.467,0.821 1.166,0.773 1.041,0.752 0.932,0.719 0.841,0.672 0.752,0.626 0.676,0.564 0.613,0.487 0.553,0.408 0.503,0.314 0.466,0.206 0.427,0.098 0.397,-0.028 0.373,-0.172 0.355,-0.28 0.335,-0.37 0.312,-0.444 0.292,-0.52 0.265,-0.583 0.232,-0.631 0.199,-0.68 0.159,-0.718 0.111,-0.743 0.065,-0.771 0.008,-0.79 -0.059,-0.8 c -0.128,-0.021 -0.23,0.002 -0.305,0.069 -0.071,0.064 -0.114,0.143 -0.129,0.237 -0.013,0.079 -0.012,0.148 0.002,0.206 0.014,0.054 0.039,0.1 0.074,0.138 0.035,0.038 0.079,0.067 0.134,0.087 0.058,0.021 0.123,0.037 0.194,0.049 L 0,0 Z"
                 style="fill:#ffffff;fill-opacity:1;fill-rule:evenodd;stroke:none"
                 id="path5114"
                 transform="translate(-2.5210995,4.8585999)" />
              <path
                 d="m 0,0 c -0.235,-0.013 -0.45,-0.034 -0.644,-0.065 -0.195,-0.034 -0.36,-0.09 -0.497,-0.17 -0.137,-0.082 -0.239,-0.194 -0.306,-0.336 -0.067,-0.142 -0.095,-0.329 -0.082,-0.562 0.013,-0.233 0.06,-0.416 0.142,-0.55 0.082,-0.134 0.196,-0.232 0.34,-0.297 0.145,-0.067 0.316,-0.105 0.512,-0.115 0.197,-0.012 0.413,-0.012 0.648,0.001 0.233,0.013 0.446,0.035 0.641,0.069 0.197,0.031 0.363,0.087 0.5,0.17 0.137,0.079 0.241,0.19 0.311,0.332 0.073,0.142 0.103,0.33 0.09,0.562 -0.012,0.233 -0.063,0.416 -0.15,0.55 C 1.42,-0.277 1.305,-0.177 1.16,-0.11 1.015,-0.046 0.843,-0.008 0.643,0.005 0.447,0.014 0.233,0.013 0,0 M 0.034,-0.62 C 0.24,-0.609 0.416,-0.604 0.56,-0.605 0.704,-0.609 0.823,-0.622 0.917,-0.646 1.01,-0.672 1.079,-0.712 1.122,-0.765 1.168,-0.82 1.194,-0.893 1.199,-0.985 1.204,-1.077 1.186,-1.152 1.146,-1.208 1.109,-1.268 1.045,-1.315 0.954,-1.348 0.864,-1.385 0.748,-1.412 0.604,-1.428 0.461,-1.447 0.287,-1.463 0.08,-1.474 c -0.207,-0.011 -0.384,-0.015 -0.531,-0.011 -0.144,0.001 -0.263,0.014 -0.357,0.041 -0.09,0.024 -0.159,0.063 -0.205,0.118 -0.043,0.053 -0.067,0.125 -0.072,0.217 -0.005,0.092 0.011,0.168 0.048,0.227 0.04,0.057 0.104,0.104 0.191,0.14 0.09,0.034 0.207,0.06 0.35,0.08 0.146,0.017 0.323,0.03 0.53,0.042"
                 style="fill:#ffffff;fill-opacity:1;fill-rule:evenodd;stroke:none"
                 id="path5118"
                 transform="translate(-1.6711999,3.2393006)" />
              <path
                 d="m 0,0 0.012,0.716 -3.081,0.049 -0.009,-0.57 2.157,-0.034 0,-0.008 -2.169,-0.726 -0.011,-0.708 3.08,-0.048 0.009,0.57 -2.11,0.033 0,0.008 L 0,0 Z"
                 style="fill:#ffffff;fill-opacity:1;fill-rule:evenodd;stroke:none"
                 id="path5122" />
            </g>
          </g>
          <g
             transform="translate(433.1923,314.6361)"
             id="NESPOLI">
            <g
               id="g12411">
              <path
                 d="m 0,0 -0.449,-0.558 2.4,-1.933 0.357,0.444 -1.681,1.354 0.006,0.006 2.156,-0.762 0.445,0.551 -2.4,1.933 L 0.477,0.592 2.12,-0.732 2.114,-0.739 0,0 Z"
                 style="fill:#ffffff;fill-opacity:1;fill-rule:evenodd;stroke:none"
                 id="path5126"
                 transform="translate(-8.3666002,-10.1425)" />
              <path
                 d="M 0,0 -0.972,-1.421 1.572,-3.16 2.568,-1.703 2.147,-1.415 1.502,-2.36 0.818,-1.892 1.402,-1.037 0.982,-0.75 0.398,-1.605 -0.201,-1.196 0.42,-0.287 0,0 Z"
                 style="fill:#ffffff;fill-opacity:1;fill-rule:evenodd;stroke:none"
                 id="path5130"
                 transform="translate(-6.2021001,-7.2847004)" />
              <path
                 d="m 0,0 -0.278,-0.555 0.112,-0.057 c 0.255,-0.127 0.483,-0.158 0.687,-0.093 0.205,0.069 0.385,0.26 0.542,0.574 0.151,0.301 0.202,0.568 0.155,0.8 C 1.169,0.906 0.999,1.097 0.709,1.243 0.623,1.285 0.542,1.316 0.465,1.336 0.388,1.355 0.311,1.358 0.233,1.345 0.155,1.336 0.074,1.311 -0.008,1.268 -0.093,1.227 -0.185,1.165 -0.284,1.083 L -0.683,0.747 C -0.791,0.653 -0.883,0.602 -0.957,0.595 -1.035,0.588 -1.116,0.606 -1.2,0.649 -1.242,0.669 -1.28,0.693 -1.315,0.72 -1.348,0.75 -1.373,0.783 -1.39,0.821 c -0.018,0.041 -0.026,0.086 -0.023,0.137 0.003,0.05 0.02,0.106 0.05,0.167 0.055,0.109 0.129,0.168 0.224,0.178 0.093,0.012 0.205,-0.015 0.336,-0.081 l 0.267,0.532 -0.078,0.039 C -0.745,1.859 -0.868,1.893 -0.982,1.895 -1.098,1.902 -1.205,1.882 -1.303,1.834 -1.402,1.79 -1.49,1.722 -1.569,1.629 -1.649,1.54 -1.72,1.434 -1.781,1.311 -1.914,1.046 -1.951,0.804 -1.893,0.585 -1.836,0.367 -1.67,0.189 -1.397,0.053 c 0.113,-0.057 0.22,-0.093 0.322,-0.109 0.099,-0.014 0.197,-0.008 0.293,0.018 0.096,0.029 0.19,0.077 0.284,0.142 0.094,0.066 0.192,0.15 0.295,0.253 0.078,0.077 0.147,0.139 0.208,0.185 C 0.066,0.593 0.124,0.628 0.18,0.648 0.235,0.669 0.289,0.676 0.343,0.668 0.396,0.664 0.453,0.646 0.515,0.616 0.631,0.558 0.7,0.48 0.721,0.382 0.742,0.288 0.731,0.199 0.689,0.114 0.653,0.042 0.612,-0.013 0.567,-0.052 0.523,-0.088 0.476,-0.111 0.426,-0.122 0.376,-0.132 0.323,-0.129 0.266,-0.114 0.207,-0.097 0.145,-0.073 0.081,-0.041 L 0,0 Z"
                 style="fill:#ffffff;fill-opacity:1;fill-rule:evenodd;stroke:none"
                 id="path5134"
                 transform="translate(-3.9680995,-7.6049994)" />
              <path
                 d="M 0,0 2.772,-1.346 3.043,-0.787 1.937,-0.25 2.082,0.049 C 2.146,0.181 2.188,0.31 2.207,0.435 2.226,0.56 2.22,0.676 2.189,0.784 2.16,0.894 2.102,0.996 2.016,1.089 1.931,1.184 1.818,1.267 1.675,1.336 1.572,1.386 1.465,1.422 1.354,1.444 1.24,1.467 1.13,1.468 1.024,1.446 0.917,1.424 0.816,1.375 0.722,1.3 0.627,1.228 0.544,1.12 0.475,0.978 L 0,0 Z M 1.525,-0.05 0.683,0.359 0.796,0.592 C 0.864,0.732 0.949,0.814 1.05,0.838 1.151,0.863 1.272,0.841 1.412,0.773 1.554,0.704 1.642,0.618 1.675,0.515 1.71,0.415 1.7,0.31 1.646,0.198 L 1.525,-0.05 Z"
                 style="fill:#ffffff;fill-opacity:1;fill-rule:evenodd;stroke:none"
                 id="path5138"
                 transform="translate(-5.0257005,-5.1591995)" />
              <path
                 d="M 0,0 C 0.222,-0.08 0.428,-0.144 0.619,-0.192 0.811,-0.237 0.985,-0.249 1.142,-0.229 1.3,-0.207 1.438,-0.143 1.555,-0.039 1.672,0.065 1.771,0.227 1.85,0.446 1.929,0.665 1.957,0.853 1.933,1.008 1.91,1.163 1.844,1.299 1.736,1.414 1.629,1.533 1.487,1.634 1.31,1.72 1.134,1.808 0.935,1.892 0.712,1.972 0.493,2.052 0.288,2.114 0.096,2.158 -0.097,2.207 -0.273,2.22 -0.431,2.197 -0.588,2.178 -0.727,2.116 -0.847,2.013 -0.97,1.91 -1.07,1.749 -1.149,1.53 -1.229,1.311 -1.254,1.123 -1.225,0.966 -1.199,0.809 -1.132,0.672 -1.025,0.554 -0.917,0.438 -0.773,0.336 -0.594,0.247 -0.418,0.162 -0.219,0.079 0,0 m 0.211,0.584 c -0.195,0.071 -0.358,0.135 -0.491,0.191 -0.131,0.06 -0.235,0.119 -0.312,0.178 -0.076,0.061 -0.123,0.124 -0.143,0.189 -0.02,0.068 -0.015,0.146 0.016,0.233 0.031,0.086 0.077,0.148 0.135,0.185 0.058,0.04 0.135,0.058 0.231,0.054 C -0.255,1.613 -0.138,1.591 0,1.551 0.139,1.513 0.307,1.458 0.501,1.388 0.696,1.317 0.861,1.252 0.995,1.191 1.127,1.134 1.232,1.075 1.307,1.014 1.381,0.957 1.429,0.894 1.45,0.825 1.469,0.76 1.463,0.684 1.432,0.597 1.4,0.511 1.356,0.447 1.298,0.407 1.24,0.37 1.162,0.352 1.068,0.353 0.972,0.357 0.854,0.378 0.715,0.416 0.574,0.458 0.406,0.514 0.211,0.584"
                 style="fill:#ffffff;fill-opacity:1;fill-rule:evenodd;stroke:none"
                 id="path5142"
                 transform="translate(-2.7316995,-3.8113004)" />
              <path
                 d="M 0,0 0.437,1.665 -0.055,1.795 -0.335,0.73 -2.822,1.383 -2.98,0.782 0,0 Z"
                 style="fill:#ffffff;fill-opacity:1;fill-rule:evenodd;stroke:none"
                 id="path5146"
                 transform="translate(-0.50010051,-1.9597997)" />
              <path
                 d="M 0,0 0.119,0.61 -2.905,1.199 -3.024,0.589 0,0 Z"
                 style="fill:#ffffff;fill-opacity:1;fill-rule:evenodd;stroke:none"
                 id="path5150" />
            </g>
          </g>
          <g
             transform="translate(401.7788,314.9424)"
             id="g5152">
            <path
               id="path5154"
               style="fill:#ffcc00;fill-opacity:1;fill-rule:evenodd;stroke:none"
               d="M 0,0 C 10.833,2.268 22.364,-0.087 22.641,-5.405 22.833,-9.087 8.753,-11.274 0.319,-9.036 -10.817,-6.08 -15.968,1.723 -14.404,10.482 -15.313,3.905 -11.01,-4.11 0.127,-7.065 8.56,-9.303 20.644,-7.67 20.374,-4.91 19.989,-0.969 9.288,0.777 0,0" />
          </g>
          <g
             transform="translate(423.8656,299.434)"
             id="ItalianFlag">
            <g
               id="g12674">
              <path
                 transform="translate(2.1925006,2.0430006)"
                 d="m 0,0 c -1.004,-1.041 -2.1,-2.016 -3.286,-2.912 l -1.601,2.115 c 1.075,0.811 2.067,1.694 2.975,2.636 L 0,0 Z"
                 style="fill:#e0001a;fill-opacity:1;fill-rule:nonzero;stroke:none"
                 id="path5158" />
              <path
                 transform="translate(1.1415002,1.0087)"
                 d="m 0,0 c -0.37,-0.345 -0.75,-0.681 -1.141,-1.009 l -1.704,2.033 c 0.354,0.297 0.698,0.601 1.033,0.913 L 0,0 Z"
                 style="fill:#ffffff;fill-opacity:1;fill-rule:nonzero;stroke:none"
                 id="path5162" />
              <path
                 d="m 0,0 c -0.369,-0.308 -0.748,-0.609 -1.136,-0.901 l -1.596,2.118 c 0.351,0.265 0.694,0.537 1.028,0.816 L 0,0 Z"
                 style="fill:#007423;fill-opacity:1;fill-rule:nonzero;stroke:none"
                 id="path5166" />
            </g>
          </g>
          <g
             transform="translate(412.5402,294.7351)"
             id="STS-120">
            <g
               id="g12426">
              <path
                 d="M 0,0 -0.608,0.128 -0.634,0.006 c -0.059,-0.279 -0.031,-0.508 0.084,-0.688 0.118,-0.181 0.349,-0.308 0.692,-0.38 0.33,-0.069 0.601,-0.052 0.814,0.053 0.217,0.108 0.359,0.321 0.426,0.638 0.019,0.094 0.029,0.18 0.028,0.259 C 1.409,-0.032 1.392,0.043 1.361,0.115 1.332,0.188 1.286,0.26 1.225,0.329 1.163,0.4 1.08,0.474 0.975,0.549 L 0.55,0.85 C 0.431,0.931 0.359,1.007 0.333,1.077 0.307,1.15 0.304,1.233 0.323,1.325 0.333,1.371 0.346,1.413 0.364,1.454 0.384,1.494 0.41,1.526 0.442,1.552 0.477,1.58 0.519,1.599 0.568,1.609 0.618,1.619 0.676,1.617 0.743,1.603 0.862,1.578 0.938,1.521 0.972,1.432 1.007,1.345 1.009,1.23 0.979,1.086 L 1.561,0.963 1.579,1.048 C 1.609,1.191 1.611,1.319 1.585,1.43 1.562,1.544 1.515,1.642 1.444,1.725 1.376,1.809 1.288,1.878 1.178,1.93 1.072,1.985 0.952,2.027 0.817,2.055 0.527,2.116 0.283,2.091 0.086,1.98 -0.111,1.868 -0.24,1.663 -0.303,1.365 -0.329,1.241 -0.337,1.128 -0.326,1.026 -0.315,0.926 -0.285,0.833 -0.235,0.747 -0.183,0.662 -0.113,0.583 -0.025,0.508 0.062,0.434 0.168,0.36 0.294,0.287 0.388,0.231 0.466,0.18 0.526,0.132 0.59,0.086 0.639,0.039 0.673,-0.009 0.707,-0.058 0.727,-0.109 0.733,-0.163 0.743,-0.215 0.74,-0.275 0.726,-0.343 0.699,-0.469 0.641,-0.555 0.552,-0.602 0.467,-0.645 0.377,-0.657 0.285,-0.638 c -0.079,0.017 -0.143,0.042 -0.192,0.076 -0.046,0.033 -0.08,0.073 -0.103,0.119 -0.023,0.046 -0.033,0.098 -0.033,0.157 10e-4,0.061 0.01,0.127 0.024,0.197 L 0,0 Z"
                 style="fill:#ffcc00;fill-opacity:1;fill-rule:evenodd;stroke:none"
                 id="path5170"
                 transform="translate(-13.1879,-0.3678999)" />
              <path
                 d="m 0,0 -1.954,0.236 -0.061,-0.505 0.669,-0.081 -0.309,-2.553 0.617,-0.075 0.308,2.553 0.669,-0.08 L 0,0 Z"
                 style="fill:#ffcc00;fill-opacity:1;fill-rule:evenodd;stroke:none"
                 id="path5174"
                 transform="translate(-9.2024994,1.1017)" />
              <path
                 d="m 0,0 -0.621,0.021 -0.004,-0.125 c -0.01,-0.285 0.058,-0.506 0.202,-0.663 0.148,-0.158 0.397,-0.242 0.748,-0.254 0.336,-0.011 0.6,0.054 0.792,0.194 0.194,0.143 0.297,0.377 0.308,0.702 C 1.428,-0.03 1.422,0.056 1.408,0.135 1.393,0.213 1.364,0.284 1.32,0.349 1.279,0.417 1.222,0.479 1.149,0.536 1.076,0.596 0.982,0.654 0.866,0.71 L 0.394,0.932 C 0.263,0.992 0.179,1.054 0.141,1.118 0.103,1.185 0.085,1.267 0.088,1.362 0.09,1.407 0.096,1.452 0.106,1.495 0.119,1.537 0.139,1.574 0.166,1.605 0.195,1.638 0.234,1.665 0.28,1.683 0.327,1.702 0.385,1.71 0.454,1.708 0.575,1.704 0.66,1.66 0.709,1.578 0.758,1.499 0.78,1.386 0.775,1.239 L 1.37,1.22 1.373,1.306 C 1.378,1.452 1.358,1.578 1.312,1.683 1.27,1.792 1.207,1.88 1.122,1.949 1.041,2.021 0.942,2.073 0.826,2.106 0.712,2.141 0.586,2.161 0.448,2.166 0.151,2.176 -0.084,2.108 -0.259,1.965 -0.433,1.821 -0.525,1.596 -0.536,1.292 -0.54,1.165 -0.528,1.052 -0.499,0.954 -0.471,0.857 -0.425,0.771 -0.361,0.694 -0.295,0.62 -0.212,0.554 -0.113,0.496 -0.014,0.438 0.103,0.384 0.24,0.333 0.342,0.295 0.427,0.258 0.495,0.221 0.566,0.187 0.622,0.149 0.664,0.108 0.706,0.066 0.735,0.019 0.75,-0.034 0.769,-0.083 0.777,-0.142 0.775,-0.211 0.77,-0.341 0.728,-0.436 0.648,-0.496 0.572,-0.554 0.486,-0.582 0.391,-0.578 c -0.08,0.002 -0.148,0.016 -0.202,0.04 -0.051,0.025 -0.091,0.058 -0.121,0.1 -0.031,0.041 -0.051,0.09 -0.06,0.148 -0.01,0.061 -0.013,0.128 -0.011,0.199 L 0,0 Z"
                 style="fill:#ffcc00;fill-opacity:1;fill-rule:evenodd;stroke:none"
                 id="path5178"
                 transform="translate(-8.4529999,-1.1415998)" />
              <path
                 d="M 0,0 -1.216,-0.045 -1.197,-0.553 0.019,-0.509 0,0 Z"
                 style="fill:#ffcc00;fill-opacity:1;fill-rule:evenodd;stroke:none"
                 id="path5182"
                 transform="translate(-5.2127,-0.60889989)" />
              <path
                 d="M 0,0 0.618,0.066 0.293,3.104 -0.162,3.055 C -0.175,2.881 -0.237,2.748 -0.349,2.658 -0.458,2.568 -0.616,2.512 -0.822,2.49 L -0.877,2.484 -0.834,2.081 -0.229,2.145 0,0 Z"
                 style="fill:#ffcc00;fill-opacity:1;fill-rule:evenodd;stroke:none"
                 id="path5186"
                 transform="translate(-4.2972006,-2.0334006)" />
              <path
                 d="M 0,0 -0.093,0.474 -1.224,0.252 c 0.003,0.06 0.023,0.132 0.059,0.219 0.035,0.089 0.09,0.183 0.164,0.282 l 0.277,0.38 c 0.07,0.093 0.128,0.181 0.173,0.263 0.045,0.085 0.078,0.169 0.1,0.252 0.022,0.084 0.033,0.168 0.034,0.253 0,0.088 -0.009,0.181 -0.028,0.277 C -0.496,2.44 -0.609,2.627 -0.784,2.74 -0.958,2.852 -1.198,2.879 -1.503,2.819 -1.825,2.756 -2.046,2.634 -2.166,2.456 -2.286,2.277 -2.319,2.047 -2.264,1.768 l 0.022,-0.115 0.585,0.115 c -0.016,0.079 -0.028,0.154 -0.036,0.226 -0.005,0.073 -0.002,0.137 0.01,0.196 0.015,0.058 0.041,0.107 0.077,0.147 0.039,0.04 0.096,0.067 0.173,0.082 0.197,0.039 0.321,-0.066 0.37,-0.315 C -1.049,2.028 -1.04,1.96 -1.036,1.899 -1.031,1.838 -1.034,1.781 -1.046,1.725 -1.059,1.67 -1.081,1.613 -1.114,1.554 -1.143,1.495 -1.186,1.429 -1.242,1.357 L -1.443,1.08 C -1.533,0.957 -1.611,0.836 -1.676,0.718 -1.738,0.603 -1.787,0.488 -1.823,0.372 -1.857,0.257 -1.876,0.139 -1.881,0.018 -1.884,-0.103 -1.872,-0.23 -1.846,-0.362 L 0,0 Z"
                 style="fill:#ffcc00;fill-opacity:1;fill-rule:evenodd;stroke:none"
                 id="path5190"
                 transform="translate(-0.92119986,-1.5008006)" />
              <path
                 d="m 0,0 -0.087,0.321 c -0.05,0.189 -0.089,0.348 -0.115,0.478 -0.024,0.131 -0.034,0.237 -0.032,0.318 0.004,0.085 0.022,0.148 0.056,0.189 0.032,0.045 0.082,0.076 0.149,0.094 0.064,0.018 0.12,0.019 0.168,0.005 C 0.188,1.392 0.234,1.354 0.278,1.291 0.32,1.231 0.362,1.142 0.403,1.025 0.445,0.911 0.492,0.761 0.542,0.575 L 0.629,0.255 C 0.68,0.066 0.717,-0.094 0.74,-0.225 0.766,-0.355 0.777,-0.462 0.773,-0.547 0.771,-0.628 0.754,-0.69 0.721,-0.735 0.688,-0.777 0.638,-0.807 0.571,-0.825 0.507,-0.842 0.451,-0.844 0.403,-0.83 0.354,-0.816 0.309,-0.779 0.266,-0.719 0.222,-0.657 0.179,-0.568 0.136,-0.455 0.096,-0.337 0.05,-0.186 0,0 m -0.635,-0.033 c 0.071,-0.261 0.144,-0.479 0.222,-0.655 0.079,-0.172 0.169,-0.306 0.269,-0.401 0.103,-0.095 0.22,-0.149 0.353,-0.164 0.132,-0.015 0.286,10e-4 0.464,0.049 0.22,0.06 0.379,0.147 0.479,0.264 0.103,0.116 0.165,0.256 0.187,0.416 C 1.361,-0.36 1.353,-0.182 1.315,0.011 1.279,0.204 1.232,0.403 1.177,0.608 1.106,0.869 1.032,1.086 0.952,1.258 0.875,1.434 0.785,1.569 0.682,1.664 0.582,1.759 0.465,1.815 0.332,1.833 0.202,1.854 0.046,1.841 -0.135,1.792 -0.354,1.733 -0.515,1.642 -0.615,1.519 -0.714,1.4 -0.775,1.259 -0.796,1.095 -0.818,0.934 -0.811,0.757 -0.774,0.565 -0.737,0.372 -0.69,0.173 -0.635,-0.033"
                 style="fill:#ffcc00;fill-opacity:1;fill-rule:evenodd;stroke:none"
                 id="path5194" />
            </g>
          </g>
          <g
             transform="translate(405.3357,316.984)"
             id="g5196">
            <path
               id="path5198"
               style="fill:#ffffff;fill-opacity:1;fill-rule:nonzero;stroke:none"
               d="m 0,0 -1.307,-3.481 -0.351,0.148 1.25,3.277 L 0,0 Z" />
          </g>
          <g
             transform="translate(416.7123,315.9584)"
             id="g5200">
            <path
               id="path5202"
               style="fill:#ffffff;fill-opacity:1;fill-rule:nonzero;stroke:none"
               d="m 0,0 c -0.259,-1.244 -0.505,-2.533 -0.709,-3.789 l -0.398,-0.03 c 0.215,1.319 0.473,2.668 0.744,3.963 L 0,0 Z" />
          </g>
          <g
             transform="translate(424.6338,323.6685)"
             id="Mars">
            <path
               id="path5206"
               style="fill:#e0001a;fill-opacity:1;fill-rule:nonzero;stroke:none"
               d="M 0,0 C -0.125,0.701 0.342,1.37 1.043,1.495 1.744,1.62 2.413,1.153 2.538,0.452 2.663,-0.249 2.196,-0.918 1.495,-1.043 0.794,-1.168 0.125,-0.701 0,0" />
          </g>
          <g
             transform="translate(424.0627,324.506)"
             id="Moon">
            <g
               id="g12680">
              <path
                 transform="translate(-2.0612994,-1.7359997)"
                 d="M 0,0 C 0.09,1.049 1.013,1.826 2.061,1.736 3.111,1.646 3.887,0.723 3.798,-0.325 3.708,-1.374 2.785,-2.152 1.736,-2.061 0.687,-1.972 -0.09,-1.049 0,0"
                 style="fill:#838e92;fill-opacity:1;fill-rule:nonzero;stroke:none"
                 id="path5210" />
              <path
                 d="m 0,0 c -0.583,0.05 -1.125,-0.168 -1.509,-0.551 0.364,0.278 0.827,0.429 1.32,0.387 C 0.86,-0.254 1.637,-1.177 1.547,-2.225 1.507,-2.692 1.302,-3.103 0.995,-3.41 1.406,-3.095 1.689,-2.618 1.736,-2.061 1.826,-1.013 1.049,-0.09 0,0"
                 style="fill:#ffffff;fill-opacity:1;fill-rule:nonzero;stroke:none"
                 id="path5214" />
            </g>
          </g>
          <g
             transform="translate(410.3716,313.9201)"
             id="g5216">
            <path
               id="path5218"
               style="fill:#ffffff;fill-opacity:1;fill-rule:nonzero;stroke:none"
               d="M 0,0 C -0.017,0.098 0.048,0.191 0.145,0.209 0.243,0.226 0.337,0.161 0.354,0.063 0.371,-0.034 0.306,-0.128 0.209,-0.145 0.111,-0.163 0.017,-0.098 0,0" />
          </g>
          <g
             transform="translate(389.3688,331.0914)"
             id="g5220">
            <path
               id="path5222"
               style="fill:#e0001a;fill-opacity:1;fill-rule:nonzero;stroke:none"
               d="m 0,0 0.744,-1.519 -0.8,-3.168 -0.672,2.731 -2.271,-1.666 1.401,2.913 L 0,0 Z" />
          </g>
          <g
             transform="translate(390.118,332.4269)"
             id="g5224">
            <path
               id="path5226"
               style="fill:#ffcc00;fill-opacity:1;fill-rule:nonzero;stroke:none"
               d="M 0,0 3.145,0.846 1.175,-1.059 3.693,-2.235 0.489,-2.424 -0.862,-1.47 0,0 Z" />
          </g>
          <g
             transform="translate(390.9066,335.5576)"
             id="g5228">
            <path
               id="path5230"
               style="fill:#ffffff;fill-opacity:1;fill-rule:nonzero;stroke:none"
               d="m 0,0 -0.731,-3.521 1.758,0.466 -1.303,-1.252 1.668,-0.794 -1.824,-0.102 1.814,-3.154 -2.509,2.568 -0.469,-1.829 -0.441,1.828 -1.514,-1.12 0.816,1.703 -3.243,-0.407 3.084,1.302 -1.342,1.248 1.795,-0.459 -0.205,1.798 1.059,-1.486 L 0,0 Z" />
          </g>
          <g
             transform="translate(421.75,304.8972)"
             id="g5232">
            <path
               id="path5234"
               style="fill:#ffffff;fill-opacity:1;fill-rule:nonzero;stroke:none"
               d="M 0,0 C -0.017,0.098 0.048,0.191 0.145,0.209 0.243,0.226 0.336,0.161 0.354,0.063 0.371,-0.035 0.306,-0.128 0.208,-0.145 0.111,-0.163 0.017,-0.098 0,0" />
          </g>
          <g
             transform="translate(425.7311,316.3821)"
             id="g5236">
            <path
               id="path5238"
               style="fill:#ffffff;fill-opacity:1;fill-rule:nonzero;stroke:none"
               d="M 0,0 C -0.017,0.098 0.048,0.191 0.146,0.209 0.243,0.226 0.337,0.161 0.354,0.063 0.372,-0.035 0.307,-0.128 0.209,-0.145 0.111,-0.163 0.018,-0.098 0,0" />
          </g>
          <g
             transform="translate(411.1258,311.2237)"
             id="g5240">
            <path
               id="path5242"
               style="fill:#ffffff;fill-opacity:1;fill-rule:nonzero;stroke:none"
               d="M 0,0 C -0.017,0.098 0.048,0.191 0.145,0.209 0.243,0.226 0.337,0.161 0.354,0.063 0.371,-0.035 0.306,-0.128 0.209,-0.145 0.111,-0.163 0.017,-0.098 0,0" />
          </g>
          <g
             transform="translate(409.8514,316.8411)"
             id="g5244">
            <path
               id="path5246"
               style="fill:#ffffff;fill-opacity:1;fill-rule:nonzero;stroke:none"
               d="M 0,0 C -0.017,0.098 0.048,0.191 0.145,0.209 0.243,0.226 0.337,0.161 0.354,0.063 0.371,-0.035 0.306,-0.128 0.209,-0.146 0.111,-0.163 0.017,-0.098 0,0" />
          </g>
          <g
             transform="translate(401.1852,326.5298)"
             id="g5248">
            <path
               id="path5250"
               style="fill:#ffffff;fill-opacity:1;fill-rule:nonzero;stroke:none"
               d="M 0,0 C -0.017,0.098 0.048,0.191 0.146,0.209 0.243,0.226 0.337,0.161 0.354,0.063 0.372,-0.035 0.306,-0.128 0.209,-0.146 0.111,-0.163 0.017,-0.098 0,0" />
          </g>
          <g
             transform="translate(394.8354,327.3164)"
             id="g5252">
            <path
               id="path5254"
               style="fill:#ffffff;fill-opacity:1;fill-rule:nonzero;stroke:none"
               d="M 0,0 C -0.017,0.098 0.048,0.191 0.145,0.209 0.243,0.226 0.337,0.161 0.354,0.063 0.371,-0.035 0.306,-0.128 0.209,-0.145 0.111,-0.163 0.017,-0.098 0,0" />
          </g>
          <g
             transform="translate(394.5593,317.5874)"
             id="g5256">
            <path
               id="path5258"
               style="fill:#ffffff;fill-opacity:1;fill-rule:nonzero;stroke:none"
               d="M 0,0 C -0.017,0.098 0.048,0.191 0.145,0.208 0.243,0.226 0.337,0.161 0.354,0.063 0.371,-0.034 0.306,-0.128 0.209,-0.146 0.111,-0.163 0.018,-0.098 0,0" />
          </g>
          <g
             transform="translate(403.8269,338.8717)"
             id="g5260">
            <path
               id="path5262"
               style="fill:#ffffff;fill-opacity:1;fill-rule:nonzero;stroke:none"
               d="M 0,0 C -0.018,0.098 0.048,0.191 0.145,0.209 0.243,0.226 0.337,0.161 0.354,0.063 0.371,-0.035 0.306,-0.128 0.209,-0.145 0.111,-0.163 0.017,-0.098 0,0" />
          </g>
          <g
             transform="translate(399.7055,339.9641)"
             id="g5264">
            <path
               id="path5266"
               style="fill:#ffffff;fill-opacity:1;fill-rule:nonzero;stroke:none"
               d="M 0,0 C -0.017,0.098 0.048,0.191 0.146,0.209 0.243,0.226 0.337,0.161 0.354,0.063 0.372,-0.035 0.306,-0.128 0.209,-0.145 0.111,-0.163 0.017,-0.098 0,0" />
          </g>
          <g
             transform="translate(383.7317,320.9553)"
             id="g5268">
            <path
               id="path5270"
               style="fill:#ffffff;fill-opacity:1;fill-rule:nonzero;stroke:none"
               d="M 0,0 C -0.018,0.098 0.048,0.191 0.146,0.209 0.243,0.226 0.336,0.161 0.354,0.063 0.372,-0.035 0.306,-0.128 0.209,-0.145 0.111,-0.163 0.017,-0.098 0,0" />
          </g>
          <g
             transform="translate(394.3948,339.0182)"
             id="g5272">
            <path
               id="path5274"
               style="fill:#ffffff;fill-opacity:1;fill-rule:nonzero;stroke:none"
               d="M 0,0 C -0.017,0.098 0.048,0.191 0.146,0.209 0.243,0.226 0.337,0.161 0.354,0.063 0.372,-0.035 0.306,-0.128 0.209,-0.145 0.111,-0.163 0.018,-0.098 0,0" />
          </g>
        </g>
      </g>
    </g>
  </g>
</svg>
