<svg xmlns="http://www.w3.org/2000/svg" width="1080" height="1080" viewBox="0 0 1080 1080" preserveAspectRatio="xMidYMid meet"><defs><clipPath id="animationMask_Ook5DJXDcE"><rect width="1080" height="1080" x="0" y="0"></rect></clipPath></defs><g clip-path="url(#animationMask_Ook5DJXDcE)" style="-webkit-user-select: none;"><g opacity="1" style="-webkit-user-select: none;"><g transform="matrix(0.43333,0,0,0.43333,-383.59288000000004,100.0036)" style="-webkit-user-select: none;"><path d=" M0,0 C0,0 3840,0 3840,0 C3840,0 3840,2160 3840,2160 C3840,2160 0,2160 0,2160 C0,2160 0,0 0,0z M0,2160 C0,2160 3840,2160 3840,2160 C3840,2160 3840,0 3840,0 C3840,0 0,0 0,0 C0,0 0,2160 0,2160z M1224.21,1621.459 C1224.21,1637.525 1535.653,1650.539 1919.8319999999999,1650.539 C2304.004,1650.539 2615.447,1637.525 2615.447,1621.459 C2615.447,1605.4 2304.004,1592.3780000000002 1919.8319999999999,1592.3780000000002 C1535.653,1592.3780000000002 1224.21,1605.394 1224.21,1621.459z" style="fill: rgb(238, 238, 238); fill-opacity: 1;"></path><path d=" M0,0 C0,0 3840,0 3840,0 C3840,0 3840,2160 3840,2160 C3840,2160 0,2160 0,2160 C0,2160 0,0 0,0z M0,2160 C0,2160 3840,2160 3840,2160 C3840,2160 3840,0 3840,0 C3840,0 0,0 0,0 C0,0 0,2160 0,2160z M1431.973,1366.232 C1431.973,1366.232 1431.973,1611.774 1431.973,1611.774" style="fill: rgb(68, 68, 68); fill-opacity: 1;"></path><g style="stroke-linecap: round; stroke-linejoin: round; fill-opacity: 0; stroke: rgb(84, 110, 122); stroke-opacity: 1; stroke-width: 34.103;"><path d=" M1431.973,1366.232 C1431.973,1366.232 1431.973,1611.774 1431.973,1611.774"></path></g><path d=" M0,0 C0,0 3840,0 3840,0 C3840,0 3840,2160 3840,2160 C3840,2160 0,2160 0,2160 C0,2160 0,0 0,0z M0,2160 C0,2160 3840,2160 3840,2160 C3840,2160 3840,0 3840,0 C3840,0 0,0 0,0 C0,0 0,2160 0,2160z M1800.286,1366.232 C1800.286,1366.232 1800.286,1611.774 1800.286,1611.774" style="fill: rgb(68, 68, 68); fill-opacity: 1;"></path><g style="stroke-linecap: round; stroke-linejoin: round; fill-opacity: 0; stroke: rgb(84, 110, 122); stroke-opacity: 1; stroke-width: 34.103;"><path d=" M1800.286,1366.232 C1800.286,1366.232 1800.286,1611.774 1800.286,1611.774"></path></g><path d=" M0,0 C0,0 3840,0 3840,0 C3840,0 3840,2160 3840,2160 C3840,2160 0,2160 0,2160 C0,2160 0,0 0,0z M0,2160 C0,2160 3840,2160 3840,2160 C3840,2160 3840,0 3840,0 C3840,0 0,0 0,0 C0,0 0,2160 0,2160z M2059.988,1366.232 C2059.988,1366.232 2059.988,1611.774 2059.988,1611.774" style="fill: rgb(68, 68, 68); fill-opacity: 1;"></path><g style="stroke-linecap: round; stroke-linejoin: round; fill-opacity: 0; stroke: rgb(84, 110, 122); stroke-opacity: 1; stroke-width: 34.103;"><path d=" M2059.988,1366.232 C2059.988,1366.232 2059.988,1611.774 2059.988,1611.774"></path></g><path d=" M0,0 C0,0 3840,0 3840,0 C3840,0 3840,2160 3840,2160 C3840,2160 0,2160 0,2160 C0,2160 0,0 0,0z M0,2160 C0,2160 3840,2160 3840,2160 C3840,2160 3840,0 3840,0 C3840,0 0,0 0,0 C0,0 0,2160 0,2160z M2428.3,1366.232 C2428.3,1366.232 2428.3,1611.774 2428.3,1611.774" style="fill: rgb(68, 68, 68); fill-opacity: 1;"></path><g style="stroke-linecap: round; stroke-linejoin: round; fill-opacity: 0; stroke: rgb(84, 110, 122); stroke-opacity: 1; stroke-width: 34.103;"><path d=" M2428.3,1366.232 C2428.3,1366.232 2428.3,1611.774 2428.3,1611.774"></path></g><path d=" M0,0 C0,0 3840,0 3840,0 C3840,0 3840,2160 3840,2160 C3840,2160 0,2160 0,2160 C0,2160 0,0 0,0z M0,2160 C0,2160 3840,2160 3840,2160 C3840,2160 3840,0 3840,0 C3840,0 0,0 0,0 C0,0 0,2160 0,2160z M1370.588,1427.618 C1370.588,1427.618 1247.817,936.534 1247.817,936.534 C1247.817,936.534 2059.988,936.534 2059.988,936.534 C2059.988,936.534 2182.759,1427.618 2182.759,1427.618 C2182.759,1427.618 1370.588,1427.618 1370.588,1427.618z" style="fill: rgb(176, 190, 197); fill-opacity: 1;"></path><g style="stroke-linecap: round; stroke-linejoin: round; fill-opacity: 0; stroke: rgb(176, 190, 197); stroke-opacity: 1; stroke-width: 163.695;"><path d=" M1370.588,1427.618 C1370.588,1427.618 1247.817,936.534 1247.817,936.534 C1247.817,936.534 2059.988,936.534 2059.988,936.534 C2059.988,936.534 2182.759,1427.618 2182.759,1427.618 C2182.759,1427.618 1370.588,1427.618 1370.588,1427.618z"></path></g><path d=" M0,0 C0,0 3840,0 3840,0 C3840,0 3840,2160 3840,2160 C3840,2160 0,2160 0,2160 C0,2160 0,0 0,0z M0,2160 C0,2160 3840,2160 3840,2160 C3840,2160 3840,0 3840,0 C3840,0 0,0 0,0 C0,0 0,2160 0,2160z M2489.686,1427.618 C2489.686,1427.618 2121.373,1427.618 2121.373,1427.618 C2121.373,1427.618 2182.759,1182.076 2182.759,1182.076 C2182.759,1182.076 2551.0710000000004,1182.076 2551.0710000000004,1182.076 C2551.0710000000004,1182.076 2489.686,1427.618 2489.686,1427.618z" style="fill: rgb(208, 216, 220); fill-opacity: 1;"></path><g style="stroke-linecap: round; stroke-linejoin: round; fill-opacity: 0; stroke: rgb(208, 216, 220); stroke-opacity: 1; stroke-width: 163.695;"><path d=" M2489.686,1427.618 C2489.686,1427.618 2121.373,1427.618 2121.373,1427.618 C2121.373,1427.618 2182.759,1182.076 2182.759,1182.076 C2182.759,1182.076 2551.0710000000004,1182.076 2551.0710000000004,1182.076 C2551.0710000000004,1182.076 2489.686,1427.618 2489.686,1427.618z"></path></g><path d=" M0,0 C0,0 3840,0 3840,0 C3840,0 3840,2160 3840,2160 C3840,2160 0,2160 0,2160 C0,2160 0,0 0,0z M0,2160 C0,2160 3840,2160 3840,2160 C3840,2160 3840,0 3840,0 C3840,0 0,0 0,0 C0,0 0,2160 0,2160z M2551.0710000000004,1182.076 C2551.0710000000004,1182.076 2489.686,1427.618 2489.686,1427.618" style="fill: rgb(72, 123, 250); fill-opacity: 1;"></path><g style="stroke-linecap: round; stroke-linejoin: round; fill-opacity: 0; stroke: rgb(244, 244, 245); stroke-opacity: 1; stroke-width: 163.695;"><path d=" M2551.0710000000004,1182.076 C2551.0710000000004,1182.076 2489.686,1427.618 2489.686,1427.618"></path></g></g><g transform="matrix(0.43333,0,0,0.43333,-435.59248,100.0036)" style="-webkit-user-select: none;"><path d=" M0,0 C0,0 3840,0 3840,0 C3840,0 3840,2160 3840,2160 C3840,2160 0,2160 0,2160 C0,2160 0,0 0,0z M0,2160 C0,2160 3840,2160 3840,2160 C3840,2160 3840,0 3840,0 C3840,0 0,0 0,0 C0,0 0,2160 0,2160z M3308.045,1621.126 C3308.045,1634.114 3177.9139999999998,1644.625 3017.403,1644.625 C2856.906,1644.625 2726.7749999999996,1634.114 2726.7749999999996,1621.126 C2726.7749999999996,1608.151 2856.906,1597.6390000000001 3017.403,1597.6390000000001 C3177.9139999999998,1597.6390000000001 3308.045,1608.151 3308.045,1621.126z" style="fill: rgb(238, 238, 238); fill-opacity: 1;"></path></g><g transform="matrix(0.4318335764236457,-0.03598126141706739,0.03598126141706739,0.4318335764236457,-468.2171845246055,209.86672297452378)" style="-webkit-user-select: none;"><path d=" M2794.0620000000004,842.019 C2800.916,833.58 2813.3450000000003,832.3140000000001 2821.791,839.155 C2821.791,839.155 2923.733,948.8040000000001 2923.733,948.8040000000001 C2935.33,958.182 2937.0750000000003,975.167 2927.663,986.764 C2918.2250000000004,998.306 2898.302,999.472 2887.8520000000003,988.842 C2863.021,963.6370000000001 2796.913,869.6940000000001 2796.913,869.6940000000001 C2788.487,862.84 2787.181,850.438 2794.0620000000004,842.019z" style="fill: rgb(92, 199, 140); fill-opacity: 1;"></path></g><g transform="matrix(0.43198348590837665,-0.03413439324855984,0.03413439324855984,0.43198348590837665,-466.8579871959805,204.33230045127345)" style="-webkit-user-select: none;"><path d=" M2892.674,992.8910000000001 C2882.636,985.2180000000001 2882.4570000000003,972.6030000000001 2890.116,962.566 C2890.116,962.566 3003.2360000000003,846.874 3003.2360000000003,846.874 C3013.8,833.0930000000001 3033.502,830.476 3047.2960000000003,841.0070000000001 C3061.0640000000003,851.5840000000001 3063.6820000000002,871.293 3053.1380000000004,885.0600000000001 C3053.1380000000004,885.0600000000001 2952.501,970.344 2927.8430000000003,989.88 C2917.945,997.734 2902.726,1000.5980000000001 2892.674,992.8910000000001z" style="fill: rgb(92, 199, 140); fill-opacity: 1;"></path></g><g transform="matrix(0.43333,0,0,0.43333,-435.59248,100.0036)" style="-webkit-user-select: none;"><path d=" M2965.903,1606.7250000000001 C2938.441,1615.95 2881.2309999999998,1602.4360000000001 2899.015,1591.778 C2965.756,1551.7730000000001 2956.711,1518.285 2969.2329999999997,1294.8700000000001 C2972.75,1284.692 2986.672,1273.5810000000001 3002.165,1275.3390000000002 C3017.6169999999997,1277.0970000000002 3022.353,1305.14 3020.601,1320.592 C2999.4069999999997,1562.837 2982.955,1492.48 3005.688,1576.0320000000002 C3009.478,1589.9930000000002 2980.037,1606.7250000000001 2965.903,1606.7250000000001z" style="fill: rgb(247, 193, 171); fill-opacity: 1;"></path><path d=" M3005.121,1574.328 C3004.815,1573.995 2986.458,1585.6309999999999 2967.608,1583.993 C2941.4640000000004,1581.722 2927.8230000000003,1566.375 2927.8230000000003,1566.375 C2901.1130000000003,1588.542 2882.71,1593.658 2860.19,1601.0439999999999 C2844.9030000000002,1606.06 2842.739,1623.071 2862.0220000000004,1623.071 C2862.0220000000004,1623.071 2894.326,1623.071 2894.326,1623.071 C2934.9030000000002,1623.071 2983.661,1622.845 2983.661,1622.845 C2983.661,1622.845 2996.5950000000003,1622.845 2996.5950000000003,1622.845 C3009.1040000000003,1622.845 3026.9150000000004,1598.28 3005.121,1574.328z" style="fill: rgb(16, 57, 71); fill-opacity: 1;"></path><path d=" M2986.7780000000002,1064.2069999999999 C2964.811,1067.31 2946.666,1096.606 2943.2560000000003,1140.94 C2940.3120000000004,1179.239 2933.918,1542.083 2933.918,1542.083 C2933.918,1542.083 3004.2760000000003,1541.564 3004.2760000000003,1541.564 C3014.02,1479.412 3009.438,1448.399 3019.9880000000003,1367.724 C3032.817,1269.504 3073.741,1064.2069999999999 3073.741,1064.2069999999999 C3073.741,1064.2069999999999 2986.7780000000002,1064.2069999999999 2986.7780000000002,1064.2069999999999z" style="fill: rgb(16, 57, 71); fill-opacity: 1;"></path><g style="stroke-linecap: round; stroke-linejoin: round; fill-opacity: 0; stroke: rgb(16, 57, 71); stroke-opacity: 1; stroke-width: 6.821;"><path d=" M2986.7780000000002,1064.2069999999999 C2964.811,1067.31 2946.666,1096.606 2943.2560000000003,1140.94 C2940.3120000000004,1179.239 2933.918,1542.083 2933.918,1542.083 C2933.918,1542.083 3004.2760000000003,1541.564 3004.2760000000003,1541.564 C3014.02,1479.412 3009.438,1448.399 3019.9880000000003,1367.724 C3032.817,1269.504 3073.741,1064.2069999999999 3073.741,1064.2069999999999 C3073.741,1064.2069999999999 2986.7780000000002,1064.2069999999999 2986.7780000000002,1064.2069999999999z"></path></g><path d=" M3004.275,1541.5639999999999 C3005.84,1531.579 3007.386,1521.695 3008.9249999999997,1511.811 C3008.9249999999997,1511.811 2934.464,1511.811 2934.464,1511.811 C2932.852,1530.76 2933.918,1542.0829999999999 2933.918,1542.0829999999999 C2933.918,1542.0829999999999 3004.275,1541.5639999999999 3004.275,1541.5639999999999z" style="fill: rgb(144, 164, 174); fill-opacity: 1;"></path><g style="stroke-linecap: round; stroke-linejoin: round; fill-opacity: 0; stroke: rgb(144, 164, 174); stroke-opacity: 1; stroke-width: 6.821;"><path d=" M3004.275,1541.5639999999999 C3005.84,1531.579 3007.386,1521.695 3008.9249999999997,1511.811 C3008.9249999999997,1511.811 2934.464,1511.811 2934.464,1511.811 C2932.852,1530.76 2933.918,1542.0829999999999 2933.918,1542.0829999999999 C2933.918,1542.0829999999999 3004.275,1541.5639999999999 3004.275,1541.5639999999999z"></path></g><path d=" M3097.192,1606.7259999999999 C3069.73,1615.951 3012.527,1602.436 3030.305,1591.778 C3097.0389999999998,1551.773 3081.1459999999997,1520.895 3043.2799999999997,1300.3509999999999 C3044.432,1289.6409999999998 3062.323,1275.706 3077.816,1273.942 C3093.269,1272.19 3097.345,1298.4669999999999 3099.104,1313.9189999999999 C3132.734,1554.745 3104.019,1492.481 3136.977,1576.033 C3142.285,1589.4879999999998 3111.333,1606.7259999999999 3097.192,1606.7259999999999z" style="fill: rgb(247, 193, 171); fill-opacity: 1;"></path><path d=" M3136.411,1574.328 C3136.098,1573.995 3117.7470000000003,1585.6309999999999 3098.904,1583.993 C3072.755,1581.722 3059.1130000000003,1566.375 3059.1130000000003,1566.375 C3032.4030000000002,1588.542 3013.9930000000004,1593.658 2991.4790000000003,1601.0439999999999 C2976.193,1606.06 2974.029,1623.071 2993.3050000000003,1623.071 C2993.3050000000003,1623.071 3025.623,1623.071 3025.623,1623.071 C3066.2000000000003,1623.071 3114.943,1622.845 3114.943,1622.845 C3114.943,1622.845 3127.885,1622.845 3127.885,1622.845 C3140.3940000000002,1622.845 3158.2050000000004,1598.28 3136.411,1574.328z" style="fill: rgb(29, 80, 103); fill-opacity: 1;"></path><path d=" M3078.2760000000003,1064.2069999999999 C3100.237,1067.31 3121.1510000000003,1096.4859999999999 3121.791,1140.94 C3124.482,1327.081 3131.136,1542.083 3131.136,1542.083 C3131.136,1542.083 3060.772,1541.564 3060.772,1541.564 C3051.027,1479.412 3041.962,1448.399 3031.418,1367.724 C3018.589,1269.504 2991.313,1064.2069999999999 2991.313,1064.2069999999999 C2991.313,1064.2069999999999 3078.2760000000003,1064.2069999999999 3078.2760000000003,1064.2069999999999z" style="fill: rgb(29, 80, 103); fill-opacity: 1;"></path><g style="stroke-linecap: round; stroke-linejoin: round; fill-opacity: 0; stroke: rgb(29, 80, 103); stroke-opacity: 1; stroke-width: 6.821;"><path d=" M3078.2760000000003,1064.2069999999999 C3100.237,1067.31 3121.1510000000003,1096.4859999999999 3121.791,1140.94 C3124.482,1327.081 3131.136,1542.083 3131.136,1542.083 C3131.136,1542.083 3060.772,1541.564 3060.772,1541.564 C3051.027,1479.412 3041.962,1448.399 3031.418,1367.724 C3018.589,1269.504 2991.313,1064.2069999999999 2991.313,1064.2069999999999 C2991.313,1064.2069999999999 3078.2760000000003,1064.2069999999999 3078.2760000000003,1064.2069999999999z"></path></g><path d=" M3060.7709999999997,1541.5639999999999 C3059.2059999999997,1531.579 3056.245,1521.695 3054.7129999999997,1511.811 C3054.7129999999997,1511.811 3130.234,1511.811 3130.234,1511.811 C3131.839,1530.76 3131.1349999999998,1542.0829999999999 3131.1349999999998,1542.0829999999999 C3131.1349999999998,1542.0829999999999 3060.7709999999997,1541.5639999999999 3060.7709999999997,1541.5639999999999z" style="fill: rgb(144, 164, 174); fill-opacity: 1;"></path><g style="stroke-linecap: round; stroke-linejoin: round; fill-opacity: 0; stroke: rgb(144, 164, 174); stroke-opacity: 1; stroke-width: 6.821;"><path d=" M3060.7709999999997,1541.5639999999999 C3059.2059999999997,1531.579 3056.245,1521.695 3054.7129999999997,1511.811 C3054.7129999999997,1511.811 3130.234,1511.811 3130.234,1511.811 C3131.839,1530.76 3131.1349999999998,1542.0829999999999 3131.1349999999998,1542.0829999999999 C3131.1349999999998,1542.0829999999999 3060.7709999999997,1541.5639999999999 3060.7709999999997,1541.5639999999999z"></path></g></g><g transform="matrix(0.4324311620721111,-0.02789585935158754,0.02789585935158754,0.4324311620721111,-473.68862091754784,186.10268959328624)" style="-webkit-user-select: none;"><path d=" M3153.722,800.5749999999999 C3130.509,719.634 3139.388,668.246 3139.388,668.246 C3139.388,612.6619999999999 3094.381,564.884 3038.797,564.884 C2983.207,564.884 2939.033,609.911 2939.033,665.495 C2939.033,665.495 2950.762,752.9639999999999 2929.948,804.7439999999999 C2929.948,804.7439999999999 2932.712,806.0699999999999 2937.634,808.035 C2940.205,798.976 2941.471,793.2479999999999 2944.847,779.314 C2942.856,793.355 2941.831,802.3199999999999 2940.751,809.241 C2957.889,815.8009999999999 2993.784,827.185 3035.873,826.765 C3096.5860000000002,826.172 3153.722,800.5749999999999 3153.722,800.5749999999999z" style="fill: rgb(68, 69, 69); fill-opacity: 1;"></path></g><g transform="matrix(0.43245149462081683,-0.027578863287336403,0.027578863287336403,0.43245149462081683,-462.8401525906148,184.07859377906644)" style="-webkit-user-select: none;"><path d=" M3101.875,1073.013 C3101.875,1073.013 3103.407,864.9789999999999 3103.407,864.9789999999999 C3101.955,850.518 3091.491,838.568 3077.35,835.211 C3077.35,835.211 3045.858,827.737 3045.858,827.737 C3033.203,824.747 3019.9680000000003,829.184 3011.695,839.202 C3011.695,839.202 2953.3340000000003,909.851 2953.3340000000003,909.851 C2948.445,915.766 2945.694,923.161 2945.527,930.834 C2945.527,930.834 2945.8540000000003,1112.233 2945.8540000000003,1112.233 C3043.047,1124.1689999999999 3101.875,1073.013 3101.875,1073.013z" style="fill: rgb(92, 199, 140); fill-opacity: 1;"></path></g><g transform="matrix(0.4168568666794971,-0.1183437434009586,0.1183437434009586,0.4168568666794971,-491.3431126798737,472.859408523194)" style="-webkit-user-select: none;"><path d=" M3012.794,850.2909999999999 C3012.794,851.823 3012.58,755.289 3012.58,755.289 C3012.58,739.03 3025.763,725.842 3042.028,725.842 C3058.281,725.842 3071.4759999999997,739.03 3071.4759999999997,755.289 C3071.4759999999997,755.289 3071.4759999999997,833.22 3071.4759999999997,833.22 C3071.4759999999997,833.22 3013.5539999999996,851.05 3012.794,850.2909999999999z" style="fill: rgb(247, 193, 171); fill-opacity: 1;"></path></g><g transform="matrix(0.4325551061281601,-0.025903070521776633,0.025903070521776633,0.4325551061281601,-461.71463535919213,179.20784580951036)" style="-webkit-user-select: none;"><path d=" M2840.987,835.737 C2848.2200000000003,827.6179999999999 2860.69,826.899 2868.822,834.106 C2868.822,834.106 2960.947,938.267 2960.947,938.267 C2972.091,948.158 2973.11,965.216 2963.178,976.366 C2953.221,987.49 2933.271,987.756 2923.306,976.679 C2899.627,950.39 2842.612,863.492 2842.612,863.492 C2834.4990000000003,856.292 2833.753,843.856 2840.987,835.737z" style="fill: rgb(120, 234, 169); fill-opacity: 1;"></path></g><g transform="matrix(0.4323280711613303,-0.029450429299480496,0.029450429299480496,0.4323280711613303,-464.45216291337476,189.86212890167178)" style="-webkit-user-select: none;"><path d=" M2925.712,978.884 C2916.426,970.298 2917.446,957.7090000000001 2926.025,948.425 C2926.025,948.425 3049.535,843.91 3049.535,843.91 C3061.351,831.189 3081.18,830.436 3093.929,842.232 C3106.651,854.035 3107.39,873.904 3095.614,886.606 C3095.614,886.606 2987.417,962.072 2961.007,979.183 C2950.41,986.071 2934.997,987.496 2925.712,978.884z" style="fill: rgb(120, 234, 169); fill-opacity: 1;"></path></g><g transform="matrix(-0.6231653277353079,0.6511944821982955,-0.6511944821982955,-0.6231653277353079,805.9122081270425,470.74200419479445)" style="-webkit-user-select: none;"><path d=" M18.808,10.095 C22.038999999999998,19.729 20.259999999999998,21.235 20.639999999999997,27.692 C20.799999999999997,30.41 13.950999999999999,36.293 5.659999999999998,35.846000000000004 C0.7789999999999999,35.583 -0.5890000000000022,31.554000000000002 -0.870000000000001,33.291 C-1.024000000000001,33.926 -1.3130000000000024,35.038 -3.088000000000001,36.858000000000004 C-5.7620000000000005,39.599000000000004 -9.000000000000004,38.189 -7.374000000000002,35.37 C-5.844000000000001,32.716 -5.059000000000001,30.999 -4.3820000000000014,26.084 C-3.357000000000003,18.641 -2.25,18.317999999999998 0.1819999999999986,10.529 C0.4569999999999972,9.647 10.526999999999997,9.433 10.526999999999997,9.433 C10.526999999999997,9.433 18.808,10.095 18.808,10.095z" style="fill: rgb(247, 193, 171); fill-opacity: 1;"></path><path d=" M13.071668539473048,25.65280471694168 C13.071668539473048,25.65280471694168 3.3397599307786514,23.456332069141272 4.322030256122261,26.255821427484285 C3.992727406498947,26.767556138080614 4.947696282779766,27.67193499982897 4.730574078117112,29.14373901106392 C4.382756422525645,31.496535329153396 4.960956518476355,30.498184771020185 4.540514337201522,35.28707850342175 C4.171553286432125,39.486530940327114 10.033201093512677,39.34465502668873 10.651913273984272,36.703484706100355 C11.993523737427045,30.975688688522894 11.386231576437243,31.694410677139082 11.894821961345997,29.01523307552589 C12.618289614962386,25.202463862552843 13.071668539473048,25.65280471694168 13.071668539473048,25.65280471694168z" style="fill: rgb(247, 193, 171); fill-opacity: 1;"></path><path d=" M16.730268706399638,25.211675567692886 C16.730268706399638,25.211675567692886 9.365670839541915,24.22674751982609 9.407767075902928,26.931269086921503 C9.310218225113964,27.656346477073587 10.35493477567476,28.28786237472332 10.370144871281926,29.63249639667562 C10.38260312176703,30.732015287825227 9.863500317206736,31.385049190695234 10.441359316154113,35.507368438077165 C10.94809378882334,39.12104802738896 16.232316487515767,38.420041272340406 16.26584970455139,36.10722901810202 C16.337204100853423,31.09460759312602 16.265758778379418,31.348135828036032 16.333322181930374,29.96826620140437 C16.42733839693726,28.053840451651773 16.730268706399638,25.211675567692886 16.730268706399638,25.211675567692886z" style="fill: rgb(247, 193, 171); fill-opacity: 1;"></path><path d=" M16.168,23.127000000000002 C16.168,23.127000000000002 11.939,23.576 13.181,25.731 C13.828,26.854 15.109,28.71 15.27,29.87 C15.491,31.461000000000002 15.997,30.85 16.081,34.335 C16.155,37.391 20.564999999999998,34.969 20.93,33.099000000000004 C21.508,30.139000000000003 20.921999999999997,29.024 20.646,27.195 C20.394,25.525000000000002 16.168,23.127000000000002 16.168,23.127000000000002z" style="fill: rgb(247, 193, 171); fill-opacity: 1;"></path></g><g transform="matrix(-0.7134776130216381,0.5507621764917283,-0.5507621764917283,-0.7134776130216381,822.7642370162546,460.05741303397696)" style="-webkit-user-select: none;"><path d=" M31.089000000000002,30.555 C29.588,29.016000000000002 28.735000000000003,29.813000000000002 28.14,30.289 C25.935000000000002,31.761000000000003 25.104000000000003,41.300000000000004 25.556,42.617000000000004 C26.722,46.017 27.416,47.156 29.124000000000002,49.965 C31.107000000000003,53.228 34.066,49.203 33.016000000000005,47.229 C30.488000000000003,42.475 31.200000000000003,43.709 30.691000000000003,41.528 C29.854000000000003,37.944 32.59,32.094 31.089000000000002,30.555z" style="fill: rgb(247, 193, 171); fill-opacity: 1;"></path></g><g transform="matrix(0.4332923789324247,-0.00570992636380533,0.00570992636380533,0.4332923789324247,-446.65711278413505,123.96163455379977)" style="-webkit-user-select: none;"><path d=" M2812.9759999999997,834.759 C2812.9759999999997,834.759 2787.9649999999997,842.2189999999999 2787.9649999999997,842.2189999999999 C2787.9649999999997,842.2189999999999 2763.022,757.28 2763.022,757.28 C2763.022,757.28 2788.02,749.8009999999999 2788.02,749.8009999999999 C2788.02,749.8009999999999 2812.9759999999997,834.759 2812.9759999999997,834.759z" style="fill: rgb(68, 69, 69); fill-opacity: 1;"></path><g style="stroke-linecap: round; stroke-linejoin: round; fill-opacity: 0; stroke: rgb(68, 69, 69); stroke-opacity: 1; stroke-width: 20.462;"><path d=" M2812.9759999999997,834.759 C2812.9759999999997,834.759 2787.9649999999997,842.2189999999999 2787.9649999999997,842.2189999999999 C2787.9649999999997,842.2189999999999 2763.022,757.28 2763.022,757.28 C2763.022,757.28 2788.02,749.8009999999999 2788.02,749.8009999999999 C2788.02,749.8009999999999 2812.9759999999997,834.759 2812.9759999999997,834.759z"></path></g></g><g transform="matrix(0.3804407140166955,-0.23339932037706737,0.23339932037706737,0.3804407140166955,753.042421144309,463.13390358972276)" style="-webkit-user-select: none;"><path d=" M1.5850000000000009,37.467999999999996 C-0.509999999999998,28.702999999999996 -4.415999999999997,18.268 -3.2369999999999983,11.808 C-2.058,5.347999999999999 12.96,-20.429000000000002 12.96,-20.429000000000002 C12.96,-20.429000000000002 16.623,-28.862000000000002 20.652,-26.004000000000005 C26.096,-22.691000000000003 19.577,-13.458000000000006 18.482,-12.444000000000003 C17.387,-11.43 11.427000000000001,7.382999999999999 11.427000000000001,7.382999999999999 C11.427000000000001,7.382999999999999 24.083000000000002,-6.567 24.083000000000002,-6.567 C24.083000000000002,-6.567 40.241,-16.969 40.241,-16.969 C40.241,-16.969 46.888999999999996,-18.487000000000002 44.747,-10.078000000000003 C43.876999999999995,-5.080000000000005 30.990000000000002,1.690999999999999 30.990000000000002,1.690999999999999 C30.990000000000002,1.690999999999999 22.936,13.523999999999997 22.936,13.523999999999997 C22.936,13.523999999999997 33.197,3.440999999999999 33.197,3.440999999999999 C33.197,3.440999999999999 47.306,-4.149999999999999 47.306,-4.149999999999999 C47.306,-4.149999999999999 56.838,-4.838999999999999 49.811,5.408999999999999 C49.811,5.408999999999999 37.474000000000004,12.305 37.474000000000004,12.305 C37.474000000000004,12.305 32.22,22.628999999999998 32.22,22.628999999999998 C32.22,22.628999999999998 44.518,14.641999999999996 51.164,14.802999999999997 C51.164,14.802999999999997 57.133,15.717999999999996 51.975,22.36 C50.362,24.436999999999998 47.364000000000004,23.798 45.586,25.067999999999998 C41.678,27.858999999999998 39.255,31.154 39.255,31.154 C39.255,31.154 40.426,42.296 33.138999999999996,51.275999999999996 C33.138999999999996,51.275999999999996 15.937000000000001,53.07899999999999 9.703000000000001,51.053 C3.469000000000001,49.027 3.059000000000001,43.635999999999996 1.5850000000000009,37.467999999999996z" style="fill: rgb(247, 193, 171); fill-opacity: 1;"></path></g><g transform="matrix(0.41472799425046714,-0.12560087453909094,0.12560087453909094,0.41472799425046714,-490.4037911400354,496.48097318007405)" style="-webkit-user-select: none;"><path d=" M3131.508,712.0269999999999 C3131.188,744.625 3114.703,773.274 3089.752,790.438 C3074.0190000000002,801.255 3054.91,807.5169999999999 3034.354,807.31 C2981.201,806.79 2938.539,763.2819999999999 2939.073,710.136 C2939.073,710.136 2939.073,659.787 2939.073,659.787 C2939.605,606.641 2983.1,563.986 3036.239,564.506 C3089.405,565.026 3132.054,608.534 3131.521,661.68 C3131.521,661.68 3131.508,712.0269999999999 3131.508,712.0269999999999z" style="fill: rgb(247, 193, 171); fill-opacity: 1;"></path><path d=" M3091.15,579.4380000000001 C3071.098,627.565 3023.385,661.176 2968.021,660.62 C2957.119,660.514 2946.539,659.089 2936.431,656.4960000000001 C2948.11,564.796 3034.501,543.6800000000001 3091.15,579.4380000000001z" style="fill: rgb(68, 69, 69); fill-opacity: 1;"></path><path d=" M3108.808,702.675 C3108.482,735.279 3092.004,763.9269999999999 3067.059,781.0849999999999 C3051.3070000000002,791.909 3032.203,798.163 3011.655,797.9639999999999 C3005.411,797.9029999999999 3001.375,798.6719999999999 2999.234,800.009 C3027.584,815.136 3077.366,811.915 3110.496,773.507 C3147.666,730.4159999999999 3130.582,647.87 3130.582,647.87 C3122.056,587.337 3056.408,574.122 3058.1130000000003,592.453 C3058.347,595.0369999999999 3109.3540000000003,599.18 3108.815,652.333 C3108.815,652.333 3108.808,702.675 3108.808,702.675z" style="fill: rgb(242, 152, 155); fill-opacity: 1;"></path><path d=" M3133.69,689.193 C3126.557,687.584 3119.647,685.391 3113.012,682.667 C3065.021,662.971 3032.309,617.88 3032.855,562.836 C3143.494,555.7339999999999 3137.495,674.3109999999999 3133.69,689.193z" style="fill: rgb(68, 69, 69); fill-opacity: 1;"></path><path d=" M3150.8250000000003,694.077 C3150.8250000000003,705.14 3141.86,714.106 3130.789,714.106 C3119.726,714.106 3110.761,705.14 3110.761,694.077 C3110.761,683.013 3119.726,674.048 3130.789,674.048 C3141.86,674.048 3150.8250000000003,683.013 3150.8250000000003,694.077z" style="fill: rgb(242, 152, 155); fill-opacity: 1;"></path></g><g opacity="1" style="-webkit-user-select: none;"><g transform="matrix(0.41472799425046714,-0.12560087453909094,0.12560087453909094,0.41472799425046714,-490.4037911400354,496.48097318007405)" style="-webkit-user-select: none;"><g style="stroke-linecap: round; stroke-linejoin: round; fill-opacity: 0; stroke: rgb(108, 29, 31); stroke-opacity: 1; stroke-width: 5.115;"><path d=" M2990.447,687.409 C2990.447,701.876 2978.718,713.606 2964.25,713.606 C2949.783,713.606 2938.053,701.876 2938.053,687.409 C2938.053,672.942 2949.783,661.212 2964.25,661.212 C2978.718,661.212 2990.447,672.942 2990.447,687.409z"></path></g><g style="stroke-linecap: round; stroke-linejoin: round; fill-opacity: 0; stroke: rgb(108, 29, 31); stroke-opacity: 1; stroke-width: 5.115;"><path d=" M3061.645,687.409 C3061.645,701.876 3049.9089999999997,713.606 3035.448,713.606 C3020.98,713.606 3009.2509999999997,701.876 3009.2509999999997,687.409 C3009.2509999999997,672.942 3020.98,661.212 3035.448,661.212 C3049.9089999999997,661.212 3061.645,672.942 3061.645,687.409z"></path></g><g style="stroke-linecap: round; stroke-linejoin: round; fill-opacity: 0; stroke: rgb(108, 29, 31); stroke-opacity: 1; stroke-width: 5.115;"><path d=" M3010.31,680.4290000000001 C3007.106,679.0300000000001 3003.576,678.231 2999.86,678.231 C2996.122,678.231 2992.592,679.0300000000001 2989.382,680.4290000000001"></path></g><g style="stroke-linecap: round; stroke-linejoin: round; fill-opacity: 0; stroke: rgb(108, 29, 31); stroke-opacity: 1; stroke-width: 5.115;"><path d=" M2937.8340000000003,689.647 C2937.8340000000003,689.647 2932.006,689.647 2932.006,689.647 C2932.006,689.647 2932.006,685.1709999999999 2932.006,685.1709999999999 C2932.006,685.1709999999999 2937.8340000000003,685.1709999999999 2937.8340000000003,685.1709999999999 C2937.8340000000003,685.1709999999999 2937.8340000000003,689.647 2937.8340000000003,689.647z"></path></g><g style="stroke-linecap: round; stroke-linejoin: round; fill-opacity: 0; stroke: rgb(108, 29, 31); stroke-opacity: 1; stroke-width: 5.115;"><path d=" M3113.505,689.647 C3113.505,689.647 3062.098,689.647 3062.098,689.647 C3062.098,689.647 3062.098,685.1709999999999 3062.098,685.1709999999999 C3062.098,685.1709999999999 3119.753,685.1709999999999 3119.753,685.1709999999999 C3119.753,685.1709999999999 3113.505,689.647 3113.505,689.647z"></path></g><g style="stroke-linecap: round; stroke-linejoin: round; fill-opacity: 0; stroke: rgb(240, 91, 91); stroke-opacity: 1; stroke-width: 5.115;"><path d=" M2980.8689999999997,743 C2987.989,748.501 2997.228,751.1859999999999 3006.819,749.554 C3012.9539999999997,748.501 3018.3759999999997,745.837 3022.758,742.068"></path></g></g><g transform="matrix(0.41472799425046714,-0.12560087453909094,0.12560087453909094,0.41472799425046714,-490.4037911400354,496.48097318007405)" style="-webkit-user-select: none;"><g style="stroke-linecap: round; stroke-linejoin: round; fill-opacity: 0; stroke: rgb(68, 69, 69); stroke-opacity: 0; stroke-width: 5.115;"><path d=" M3051.3869999999997,690.86 C3049.555,685.198 3044.2999999999997,681.068 3038.0249999999996,681.002 C3031.7509999999997,680.948 3026.4289999999996,684.972 3024.477,690.587"></path></g><g style="stroke-linecap: round; stroke-linejoin: round; fill-opacity: 0; stroke: rgb(68, 69, 69); stroke-opacity: 0; stroke-width: 5.115;"><path d=" M2980.197,690.154 C2978.358,684.492 2973.116,680.362 2966.835,680.309 C2960.567,680.242 2955.232,684.266 2953.294,689.887"></path></g></g><g transform="matrix(0.41472799425046714,-0.12560087453909094,0.12560087453909094,0.41472799425046714,752.8323717764425,477.5942352225794)" style="-webkit-user-select: none;"><path d=" M207.936,-109.90661452 C211.959690153588,-109.90661452 215.22661452,-106.63969015358799 215.22661452,-102.616 C215.22661452,-98.59230984641201 211.959690153588,-95.32538548 207.936,-95.32538548 C203.912309846412,-95.32538548 200.64538548000002,-98.59230984641201 200.64538548000002,-102.616 C200.64538548000002,-106.63969015358799 203.912309846412,-109.90661452 207.936,-109.90661452z M207.936,-109.90661452 C211.959690153588,-109.90661452 215.22661452,-106.63969015358799 215.22661452,-102.616 C215.22661452,-98.59230984641201 211.959690153588,-95.32538548 207.936,-95.32538548 C203.912309846412,-95.32538548 200.64538548000002,-98.59230984641201 200.64538548000002,-102.616 C200.64538548000002,-106.63969015358799 203.912309846412,-109.90661452 207.936,-109.90661452z M279.736,-109.90661452 C283.759690153588,-109.90661452 287.02661452,-106.63969015358799 287.02661452,-102.616 C287.02661452,-98.59230984641201 283.759690153588,-95.32538548 279.736,-95.32538548 C275.712309846412,-95.32538548 272.44538547999997,-98.59230984641201 272.44538547999997,-102.616 C272.44538547999997,-106.63969015358799 275.712309846412,-109.90661452 279.736,-109.90661452z M279.736,-109.90661452 C283.759690153588,-109.90661452 287.02661452,-106.63969015358799 287.02661452,-102.616 C287.02661452,-98.59230984641201 283.759690153588,-95.32538548 279.736,-95.32538548 C275.712309846412,-95.32538548 272.44538547999997,-98.59230984641201 272.44538547999997,-102.616 C272.44538547999997,-106.63969015358799 275.712309846412,-109.90661452 279.736,-109.90661452z" style="fill: rgb(68, 69, 69); fill-opacity: 1;"></path></g></g><g transform="matrix(0.41472799425046714,-0.12560087453909094,0.12560087453909094,0.41472799425046714,-490.4037911400354,496.48097318007405)" style="-webkit-user-select: none;"><path d=" M0,0 C0,0 3840,0 3840,0 C3840,0 3840,2160 3840,2160 C3840,2160 0,2160 0,2160 C0,2160 0,0 0,0z M0,2160 C0,2160 3840,2160 3840,2160 C3840,2160 3840,0 3840,0 C3840,0 0,0 0,0 C0,0 0,2160 0,2160z M3047.064,624.985 C3056.395,680.2420000000001 3110.4739999999997,703.509 3110.4739999999997,703.509 C3110.4739999999997,703.509 3075.8309999999997,668.133 3072.435,625.5980000000001 C3070.183,597.469 3043.114,601.5790000000001 3047.064,624.985z" style="fill: rgb(68, 69, 69); fill-opacity: 1;"></path></g><g transform="matrix(0.1145702364284469,-0.4179097388488689,0.4179097388488689,0.1145702364284469,-149.05227138183318,1374.0264910185351)" style="-webkit-user-select: none;"><path d=" M2289.216,1110.047 C2313.517,1110.047 2333.185,1123.699 2333.185,1148 C2333.185,1148 2285.987,1147.232 2285.987,1147.232 C2285.987,1147.232 2266.951,1130.062 2258.395,1122.679 C2265.599,1110.584 2283.959,1111.042 2289.216,1110.047z" style="fill: rgb(247, 193, 171); fill-opacity: 1;"></path></g><g transform="matrix(0.28754641196058695,-0.32417888559959057,0.32417888559959057,0.28754641196058695,-436.76066277737743,961.4876080606831)" style="-webkit-user-select: none;"><path d=" M2157.692,1104 C2157.692,1104 2221.684,1104 2221.684,1104 C2221.684,1104 2243.868,1106 2243.684,1126 C2243.5,1146 2221.684,1148 2221.684,1148 C2221.684,1148 2157.692,1148 2157.692,1148 C2145.542,1148 2135.692,1138.15 2135.692,1126 C2135.692,1113.85 2145.542,1104 2157.692,1104z" style="fill: rgb(205, 48, 32); fill-opacity: 1;"></path></g><g transform="matrix(0.28312384891588666,-0.32804843403841166,0.32804843403841166,0.28312384891588666,-431.29111343307477,975.0653107680731)" style="-webkit-user-select: none;"><path d=" M2225.192,1104 C2225.192,1104 2289.184,1104 2289.184,1104 C2289.184,1104 2289.184,1148 2289.184,1148 C2289.184,1148 2225.192,1148 2225.192,1148 C2213.042,1148 2203.192,1138.15 2203.192,1126 C2203.192,1113.85 2213.042,1104 2225.192,1104z" style="fill: rgb(205, 48, 32); fill-opacity: 1;"></path></g><g transform="matrix(0.4316810485240961,-0.03776719800484271,0.03776719800484271,0.4316810485240961,-427.0782406397584,182.25846761799312)" style="-webkit-user-select: none;"><path d=" M2187.594,1237.577 C2187.594,1237.577 2187.596,1237.577 2187.596,1237.577 C2187.596,1237.577 2177.9959999999996,1136.2369999999999 2177.9959999999996,1136.2369999999999 C2177.9959999999996,1099.8159999999998 2154.97,1086.788 2126.4089999999997,1085.695 C2113.634,1085.2089999999998 2083.354,1088.067 2075.6879999999996,1134.532 C2071.598,1159.31 2060.589,1234.3 2060.589,1234.3 C2060.589,1234.3 2060.591,1234.3 2060.591,1234.3 C2060.091,1237.5249999999999 2059.8289999999997,1240.827 2059.8289999999997,1244.192 C2059.8289999999997,1279.567 2088.507,1305.473 2123.881,1305.473 C2159.256,1305.473 2187.933,1279.567 2187.933,1244.192 C2187.933,1241.9579999999999 2187.817,1239.752 2187.594,1237.577z" style="fill: rgb(234, 67, 53); fill-opacity: 1;"></path></g><g transform="matrix(0.41439553990146216,-0.1266934308075035,0.1266934308075035,0.41439553990146216,-490.02693373843306,386.83599123832914)" style="-webkit-user-select: none;"><path d=" M2126.965,1143.515 C2126.965,1143.515 2126.965,1143.515 2126.965,1143.515 C2110.771,1143.515 2097.521,1130.266 2097.521,1114.072 C2097.521,1114.072 2097.521,1015.987 2097.521,1015.987 C2097.521,999.793 2110.771,986.543 2126.965,986.543 C2143.159,986.543 2156.409,999.793 2156.409,1015.987 C2156.409,1015.987 2156.409,1114.072 2156.409,1114.072 C2156.409,1130.266 2143.159,1143.515 2126.965,1143.515z" style="fill: rgb(247, 193, 171); fill-opacity: 1;"></path></g><g transform="matrix(0.4316810485240961,-0.03776719800484271,0.03776719800484271,0.4316810485240961,-427.0782406397584,182.25846761799312)" style="-webkit-user-select: none;"><path d=" M2170.482,1158.9099999999999 C2170.482,1158.9099999999999 2163.027,1116.946 2163.027,1116.946 C2163.027,1116.946 2094.2149999999997,1104.4489999999998 2094.2149999999997,1104.4489999999998 C2094.2149999999997,1104.4489999999998 2082.547,1150.317 2082.547,1150.317 C2082.547,1150.317 2170.482,1158.9099999999999 2170.482,1158.9099999999999z" style="fill: rgb(234, 67, 53); fill-opacity: 1;"></path></g><g transform="matrix(-0.43037063756451216,0.050556930507254044,-0.050556930507254044,-0.43037063756451216,1460.7536963692694,1012.9563212105473)" style="-webkit-user-select: none;"><path d=" M1963.701,1147.5 C1970,1147.75 1985.146,1150.946 1989.201,1132 C1993,1114.25 1974,1106.5 1974,1106.5 C1974,1106.5 1924.201,1104 1924.201,1104 C1924.201,1128.301 1939.419,1146.536 1963.701,1147.5z" style="fill: rgb(247, 193, 171); fill-opacity: 1;"></path></g><g transform="matrix(0.1503376258962389,0.40641541203537357,-0.40641541203537357,0.1503376258962389,656.3734188835964,-455.09883225654767)" style="-webkit-user-select: none;"><path d=" M2157.692,1104 C2157.692,1104 2221.684,1104 2221.684,1104 C2221.684,1104 2243.868,1106 2243.684,1126 C2243.5,1146 2221.684,1148 2221.684,1148 C2221.684,1148 2157.692,1148 2157.692,1148 C2145.542,1148 2135.692,1138.15 2135.692,1126 C2135.692,1113.85 2145.542,1104 2157.692,1104z" style="fill: rgb(205, 48, 32); fill-opacity: 1;"></path></g><g transform="matrix(0.39368384856765426,0.18107433909022067,-0.18107433909022067,0.39368384856765426,-138.06084856272537,-228.41278604695424)" style="-webkit-user-select: none;"><path d=" M2225.192,1104 C2225.192,1104 2289.184,1104 2289.184,1104 C2289.184,1104 2289.184,1148 2289.184,1148 C2289.184,1148 2225.192,1148 2225.192,1148 C2213.042,1148 2203.192,1138.15 2203.192,1126 C2203.192,1113.85 2213.042,1104 2225.192,1104z" style="fill: rgb(205, 48, 32); fill-opacity: 1;"></path></g><g transform="matrix(0.43273613629519947,-0.022678739918754843,0.022678739918754843,0.43273613629519947,-429.5962234225639,154.75334686968586)" style="-webkit-user-select: none;"><path d=" M1977.807,880.438 C1977.807,904.923 1997.6560000000002,924.7719999999999 2022.141,924.7719999999999 C2046.626,924.7719999999999 2066.475,904.923 2066.475,880.438 C2066.475,855.953 2046.626,836.104 2022.141,836.104 C1997.6560000000002,836.104 1977.807,855.953 1977.807,880.438z" style="fill: rgb(68, 69, 69); fill-opacity: 1;"></path></g><g transform="matrix(0.43273613629519947,-0.022678739918754843,0.022678739918754843,0.43273613629519947,-433.3352331348601,150.13028082498244)" style="-webkit-user-select: none;"><path d=" M2072.443,830.136 C2072.443,854.621 2092.292,874.47 2116.777,874.47 C2141.262,874.47 2161.111,854.621 2161.111,830.136 C2161.111,805.651 2141.262,785.8019999999999 2116.777,785.8019999999999 C2092.292,785.8019999999999 2072.443,805.651 2072.443,830.136z" style="fill: rgb(68, 69, 69); fill-opacity: 1;"></path></g><g transform="matrix(0.422223780173386,-0.09747804037882701,0.09747804037882701,0.422223780173386,-475.49387012059856,317.72364782846)" style="-webkit-user-select: none;"><path d=" M2018.165,988.881 C2018.165,999.9449999999999 2027.1309999999999,1008.91 2038.194,1008.91 C2049.2639999999997,1008.91 2058.229,999.9449999999999 2058.229,988.881 C2058.229,977.817 2049.2639999999997,968.852 2038.194,968.852 C2027.1309999999999,968.852 2018.165,977.817 2018.165,988.881z" style="fill: rgb(242, 152, 155); fill-opacity: 1;"></path><path d=" M2189.857,988.881 C2189.857,999.9449999999999 2198.8230000000003,1008.91 2209.886,1008.91 C2220.956,1008.91 2229.9210000000003,999.9449999999999 2229.9210000000003,988.881 C2229.9210000000003,977.817 2220.956,968.852 2209.886,968.852 C2198.8230000000003,968.852 2189.857,977.817 2189.857,988.881z" style="fill: rgb(247, 193, 171); fill-opacity: 1;"></path></g><g transform="matrix(0.422223780173386,-0.09747804037882701,0.09747804037882701,0.422223780173386,-475.49387012059856,317.72364782846)" style="-webkit-user-select: none;"><path d=" M2037.4810000000002,986.3689999999999 C2037.8010000000002,1018.967 2054.28,1047.616 2079.237,1064.78 C2094.983,1075.598 2114.08,1081.858 2134.635,1081.652 C2187.7870000000003,1081.133 2230.4370000000004,1037.624 2229.9170000000004,984.478 C2229.9170000000004,984.478 2229.9170000000004,954.592 2229.9170000000004,954.592 C2229.3900000000003,901.4459999999999 2185.876,858.7909999999999 2132.75,859.31 C2079.5840000000003,859.829 2036.9350000000002,903.337 2037.468,956.483 C2037.468,956.483 2037.4810000000002,986.3689999999999 2037.4810000000002,986.3689999999999z" style="fill: rgb(247, 193, 171); fill-opacity: 1;"></path><path d=" M2060.181,977.019 C2060.4939999999997,1009.623 2076.973,1038.271 2101.93,1055.429 C2117.67,1066.253 2136.772,1072.507 2157.334,1072.308 C2163.517,1072.248 2167.535,1073 2169.692,1074.313 C2162.171,1082.173 2109.2509999999997,1094.823 2065.526,1054.897 C2022.2939999999999,1015.421 2038.413,942.676 2038.413,942.676 C2046.9389999999999,882.143 2112.587,868.928 2110.882,887.259 C2110.636,889.8430000000001 2059.6349999999998,893.986 2060.16,947.139 C2060.16,947.139 2060.181,977.019 2060.181,977.019z" style="fill: rgb(242, 152, 155); fill-opacity: 1;"></path></g><g opacity="1" style="-webkit-user-select: none;"><g transform="matrix(0.422223780173386,-0.09747804037882701,0.09747804037882701,0.422223780173386,-475.1039579590833,319.4125429491536)" style="-webkit-user-select: none;"><g style="stroke-linecap: round; stroke-linejoin: round; fill-opacity: 0; stroke: rgb(240, 91, 91); stroke-opacity: 1; stroke-width: 5.115;"><path d=" M2185.3559999999998,1023.084 C2178.229,1028.5919999999999 2168.998,1031.277 2159.406,1029.639 C2153.264,1028.5929999999998 2147.8559999999998,1025.921 2143.46,1022.151"></path></g></g><g transform="matrix(0.422223780173386,-0.09747804037882701,0.09747804037882701,0.422223780173386,-475.1039579590833,319.4125429491536)" style="-webkit-user-select: none;"><g style="stroke-linecap: round; stroke-linejoin: round; fill-opacity: 0; stroke: rgb(68, 69, 69); stroke-opacity: 1; stroke-width: 5.115;"><path d=" M2111.982,980.6750000000001 C2114.14,974.0210000000001 2120.294,969.186 2127.688,969.106 C2135.041,969.033 2141.303,973.768 2143.594,980.3620000000001"></path></g><g style="stroke-linecap: round; stroke-linejoin: round; fill-opacity: 0; stroke: rgb(68, 69, 69); stroke-opacity: 1; stroke-width: 5.115;"><path d=" M2188.787,979.8430000000001 C2190.9519999999998,973.196 2197.1059999999998,968.347 2204.486,968.287 C2211.853,968.213 2218.12,972.936 2220.391,979.537"></path></g></g><g transform="matrix(0.422223780173386,-0.09747804037882701,0.09747804037882701,0.422223780173386,440.8216530251886,587.9275354188852)" style="-webkit-user-select: none;"><path d=" M207.936,-109.90661452 C211.959690153588,-109.90661452 215.22661452,-106.63969015358799 215.22661452,-102.616 C215.22661452,-98.59230984641201 211.959690153588,-95.32538548 207.936,-95.32538548 C203.912309846412,-95.32538548 200.64538548000002,-98.59230984641201 200.64538548000002,-102.616 C200.64538548000002,-106.63969015358799 203.912309846412,-109.90661452 207.936,-109.90661452z M207.936,-109.90661452 C211.959690153588,-109.90661452 215.22661452,-106.63969015358799 215.22661452,-102.616 C215.22661452,-98.59230984641201 211.959690153588,-95.32538548 207.936,-95.32538548 C203.912309846412,-95.32538548 200.64538548000002,-98.59230984641201 200.64538548000002,-102.616 C200.64538548000002,-106.63969015358799 203.912309846412,-109.90661452 207.936,-109.90661452z M284.736,-109.90661452 C288.759690153588,-109.90661452 292.02661452,-106.63969015358799 292.02661452,-102.616 C292.02661452,-98.59230984641201 288.759690153588,-95.32538548 284.736,-95.32538548 C280.712309846412,-95.32538548 277.44538547999997,-98.59230984641201 277.44538547999997,-102.616 C277.44538547999997,-106.63969015358799 280.712309846412,-109.90661452 284.736,-109.90661452z M284.736,-109.90661452 C288.759690153588,-109.90661452 292.02661452,-106.63969015358799 292.02661452,-102.616 C292.02661452,-98.59230984641201 288.759690153588,-95.32538548 284.736,-95.32538548 C280.712309846412,-95.32538548 277.44538547999997,-98.59230984641201 277.44538547999997,-102.616 C277.44538547999997,-106.63969015358799 280.712309846412,-109.90661452 284.736,-109.90661452z" style="fill: rgb(68, 69, 69); fill-opacity: 0;"></path></g></g><g transform="matrix(0.422223780173386,-0.09747804037882701,0.09747804037882701,0.422223780173386,-475.49387012059856,317.72364782846)" style="-webkit-user-select: none;"><path d=" M2121.926,919.789 C2112.594,975.047 2058.515,998.313 2058.515,998.313 C2058.515,998.313 2093.151,962.937 2096.555,920.402 C2098.806,892.273 2125.8759999999997,896.383 2121.926,919.789z" style="fill: rgb(68, 69, 69); fill-opacity: 1;"></path><path d=" M2079.141,875.442 C2099.0190000000002,923.954 2145.334,955.9839999999999 2200.983,955.424 C2211.266,955.324 2221.264,954.049 2230.849,951.728 C2225.255,841.259 2100.652,846.741 2079.141,875.442z" style="fill: rgb(68, 69, 69); fill-opacity: 1;"></path><path d=" M2036.892,983.6270000000001 C2043.462,982.058 2049.838,979.9920000000001 2055.978,977.471 C2103.969,957.7750000000001 2136.896,915.325 2136.356,860.2800000000001 C2034.263,842.864 2030.172,977.5360000000001 2036.892,983.6270000000001z" style="fill: rgb(68, 69, 69); fill-opacity: 1;"></path><path d="" style="fill: rgb(68, 69, 69); fill-opacity: 1;"></path></g><g transform="matrix(0.43333,0,0,0.43333,-383.59288000000004,100.0036)" style="-webkit-user-select: none;"><path d=" M2060.48,1231.5790000000002 C2060.48,1231.5790000000002 2283.282,1250.909 2291.8140000000003,1251.335 C2300.3340000000003,1251.761 2272.205,1305.473 2272.205,1305.473 C2272.205,1305.473 2124.71,1305.473 2124.71,1305.473 C2073.861,1305.473 2054.792,1275.633 2060.48,1231.5790000000002z" style="fill: rgb(92, 199, 140); fill-opacity: 1;"></path><path d=" M2336.276,1280.575 C2336.276,1294.3229999999999 2325.138,1305.473 2311.378,1305.473 C2311.378,1305.473 2271.992,1305.473 2271.992,1305.473 C2271.992,1249.203 2273.438,1237.493 2279.659,1220.781 C2287.765,1199.041 2297.629,1193.279 2311.378,1193.279 C2325.138,1193.279 2336.276,1204.423 2336.276,1218.171 C2336.276,1218.171 2336.276,1280.575 2336.276,1280.575z" style="fill: rgb(84, 110, 122); fill-opacity: 1;"></path><path d=" M2336.275,1280.575 C2336.275,1294.3229999999999 2325.138,1305.473 2311.378,1305.473 C2297.629,1305.473 2286.493,1294.3229999999999 2286.493,1280.575 C2286.493,1280.575 2286.493,1218.171 2286.493,1218.171 C2286.493,1204.423 2297.629,1193.279 2311.378,1193.279 C2325.138,1193.279 2336.275,1204.423 2336.275,1218.171 C2336.275,1218.171 2336.275,1280.575 2336.275,1280.575z" style="fill: rgb(55, 71, 79); fill-opacity: 1;"></path><path d=" M2261.249,1280.575 C2261.249,1294.3229999999999 2250.112,1305.473 2236.351,1305.473 C2236.351,1305.473 2196.965,1305.473 2196.965,1305.473 C2196.965,1249.203 2198.411,1237.493 2204.632,1220.781 C2212.738,1199.041 2222.602,1193.279 2236.351,1193.279 C2250.112,1193.279 2261.249,1204.423 2261.249,1218.171 C2261.249,1218.171 2261.249,1280.575 2261.249,1280.575z" style="fill: rgb(84, 110, 122); fill-opacity: 1;"></path><path d=" M2261.248,1280.575 C2261.248,1294.3229999999999 2250.112,1305.473 2236.351,1305.473 C2222.602,1305.473 2211.466,1294.3229999999999 2211.466,1280.575 C2211.466,1280.575 2211.466,1218.171 2211.466,1218.171 C2211.466,1204.423 2222.602,1193.279 2236.351,1193.279 C2250.112,1193.279 2261.248,1204.423 2261.248,1218.171 C2261.248,1218.171 2261.248,1280.575 2261.248,1280.575z" style="fill: rgb(55, 71, 79); fill-opacity: 1;"></path></g><g transform="matrix(0.43333,0,0,0.43333,-383.59288000000004,100.0036)" style="-webkit-user-select: none;"><path d=" M1370.587,1427.618 C1370.587,1427.618 1738.8999999999999,1427.618 1738.8999999999999,1427.618 C1738.8999999999999,1427.618 1677.5149999999999,1182.076 1677.5149999999999,1182.076 C1677.5149999999999,1182.076 1309.202,1182.076 1309.202,1182.076 C1309.202,1182.076 1370.587,1427.618 1370.587,1427.618z" style="fill: rgb(208, 216, 220); fill-opacity: 1;"></path><g style="stroke-linecap: round; stroke-linejoin: round; fill-opacity: 0; stroke: rgb(208, 216, 220); stroke-opacity: 1; stroke-width: 163.695;"><path d=" M1370.587,1427.618 C1370.587,1427.618 1738.8999999999999,1427.618 1738.8999999999999,1427.618 C1738.8999999999999,1427.618 1677.5149999999999,1182.076 1677.5149999999999,1182.076 C1677.5149999999999,1182.076 1309.202,1182.076 1309.202,1182.076 C1309.202,1182.076 1370.587,1427.618 1370.587,1427.618z"></path></g><path d=" M1247.817,936.534 C1247.817,936.534 1370.587,1427.618 1370.587,1427.618" style="fill: rgb(208, 216, 220); fill-opacity: 1;"></path><g style="stroke-linecap: round; stroke-linejoin: round; fill-opacity: 0; stroke: rgb(208, 216, 220); stroke-opacity: 1; stroke-width: 163.695;"><path d=" M1247.817,936.534 C1247.817,936.534 1370.587,1427.618 1370.587,1427.618"></path></g><g style="stroke-linecap: round; stroke-linejoin: round; fill-opacity: 0; stroke: rgb(244, 244, 245); stroke-opacity: 1; stroke-width: 204.618;"><path d=" M2465.813,1407.156 C2465.813,1407.156 1773.003,1407.156 1773.003,1407.156"></path></g><path d=" M1738.901,1427.618 C1738.901,1427.618 1677.515,1182.076 1677.515,1182.076" style="fill: rgb(72, 123, 250); fill-opacity: 1;"></path><g style="stroke-linecap: round; stroke-linejoin: round; fill-opacity: 0; stroke: rgb(244, 244, 245); stroke-opacity: 1; stroke-width: 163.695;"><path d=" M1738.901,1427.618 C1738.901,1427.618 1677.515,1182.076 1677.515,1182.076"></path></g></g><g transform="matrix(0.3999907122325849,-0.16668028985956765,0.16668028985956765,0.3999907122325849,-263.5131376188187,176.2341161160216)" style="-webkit-user-select: none;"><g style="stroke-linecap: round; stroke-linejoin: round; fill-opacity: 0; stroke: rgb(205, 48, 32); stroke-opacity: 1; stroke-width: 44;"><path d=" M975.033,1545.005 C975.033,1588.065 975.032,1607.409 988.851,1607.409"></path></g></g><g transform="matrix(0.385064505426369,0.19874661144468822,-0.19874661144468822,0.385064505426369,292.78511741557065,-157.92890307374563)" style="-webkit-user-select: none;"><g style="stroke-linecap: round; stroke-linejoin: round; fill-opacity: 0; stroke: rgb(205, 48, 32); stroke-opacity: 1; stroke-width: 44;"><path d=" M975.032,1482.603 C975.032,1482.603 975.032,1545.005 975.032,1545.005"></path></g></g><g transform="matrix(0.385064505426369,0.19874661144468822,-0.19874661144468822,0.385064505426369,292.78511741557065,-157.92890307374563)" style="-webkit-user-select: none;"><g style="stroke-linecap: round; stroke-linejoin: round; fill-opacity: 0; stroke: rgb(205, 48, 32); stroke-opacity: 1; stroke-width: 44;"><path d=" M975.032,1420.199 C975.032,1420.199 975.032,1482.602 975.032,1482.602"></path></g></g><g transform="matrix(0.314846602171853,-0.2977356310568806,0.2977356310568806,0.314846602171853,-343.8813318241293,425.8682604625102)" style="-webkit-user-select: none;"><g style="stroke-linecap: round; stroke-linejoin: round; fill-opacity: 0; stroke: rgb(253, 89, 89); stroke-opacity: 1; stroke-width: 130;"><path d=" M802.249,1432.199 C844.365,1387.516 913.178,1414.004 939.1389999999999,1434.974"></path></g></g><g transform="matrix(0.4319517259449974,-0.03453397389727713,0.03453397389727713,0.4319517259449974,-76.1633031635526,10.643151568035364)" style="-webkit-user-select: none;"><path d=" M1004.2470000000001,1434.974 C1004.2470000000001,1470.932 975.097,1500.0819999999999 939.139,1500.0819999999999 C903.181,1500.0819999999999 874.031,1470.932 874.031,1434.974 C874.031,1399.0159999999998 903.181,1369.866 939.139,1369.866 C975.097,1369.866 1004.2470000000001,1399.0159999999998 1004.2470000000001,1434.974z" style="fill: rgb(253, 89, 89); fill-opacity: 1;"></path><path d=" M1090.3500000000001,1327.103 C1090.3500000000001,1358.8690000000001 1064.5980000000002,1384.6200000000001 1032.832,1384.6200000000001 C1001.0660000000001,1384.6200000000001 975.315,1358.8690000000001 975.315,1327.103 C975.315,1295.337 1001.0660000000001,1269.586 1032.832,1269.586 C1064.5980000000002,1269.586 1090.3500000000001,1295.337 1090.3500000000001,1327.103z" style="fill: rgb(253, 89, 89); fill-opacity: 1;"></path><path d=" M920.7750000000001,1372.5 C940.951,1365.75 956.302,1341.72 968.557,1321.271 C980.811,1300.822 990.0440000000001,1284.384 1004.248,1277.192 C1018.451,1270 1040.701,1310.5 1040.701,1310.5 C1040.701,1310.5 1078.338,1366.695 1060.395,1377.597 C1042.451,1388.5 1027.659,1402.379 1016.272,1424.922 C1004.884,1447.465 996.462,1465.8719999999998 996.462,1465.8719999999998 C996.462,1465.8719999999998 943.313,1409.5 943.313,1409.5 C943.313,1409.5 920.7750000000001,1372.5 920.7750000000001,1372.5z" style="fill: rgb(253, 89, 89); fill-opacity: 1;"></path><path d=" M1022.401,1414.326 C1022.401,1414.326 1036.869,1395.788 1036.869,1395.788 C1036.869,1395.788 959.9449999999999,1334.6619999999998 959.9449999999999,1334.6619999999998 C959.9449999999999,1334.6619999999998 945.259,1354.443 945.259,1354.443 C945.259,1354.443 1022.401,1414.326 1022.401,1414.326z" style="fill: rgb(72, 123, 250); fill-opacity: 1;"></path></g><g transform="matrix(0.4016234104851924,0.16270686847900012,-0.16270686847900012,0.4016234104851924,217.59849303832505,-158.74346765557772)" style="-webkit-user-select: none;"><path d=" M1100.083,1284.508 C1094.489,1286.634 1092.027,1287.641 1085.871,1287.3380000000002 C1080.517,1287.075 1077.1180000000002,1284.8580000000002 1068.95,1279.5110000000002 C1067.708,1278.63 1066.431,1277.7930000000001 1065.1170000000002,1277.0120000000002 C1065.054,1276.971 1064.998,1276.9340000000002 1064.9340000000002,1276.893 C1064.9340000000002,1276.893 1064.933,1276.9060000000002 1064.933,1276.9060000000002 C1056.538,1271.96 1046.758,1269.111 1036.3100000000002,1269.111 C1005.1160000000001,1269.111 979.8300000000002,1294.3990000000001 979.8300000000002,1325.592 C979.8300000000002,1356.786 1005.1160000000001,1382.073 1036.3100000000002,1382.073 C1042.029,1382.073 1047.547,1381.2160000000001 1052.75,1379.635 C1052.75,1379.635 1052.748,1379.644 1052.748,1379.644 C1052.748,1379.644 1092.587,1367.864 1112.2730000000001,1352.603 C1131.96,1337.342 1136.67,1322.326 1138.4550000000002,1305.2740000000001 C1140.239,1288.221 1105.6770000000001,1282.382 1100.083,1284.508z" style="fill: rgb(253, 89, 89); fill-opacity: 1;"></path><path d=" M1126.578,1276.192 C1126.358,1276.2730000000001 1100.608,1286.077 1100.608,1286.077 C1100.608,1286.077 1108.7939999999999,1304.627 1137.322,1303.015 C1137.5539999999999,1302.9950000000001 1136.2359999999999,1272.982 1126.578,1276.192z" style="fill: rgb(67, 67, 67); fill-opacity: 1;"></path><path d=" M1133.8639999999998,1305.2730000000001 C1107.028,1305.2730000000001 1098.961,1287.6960000000001 1098.635,1286.9430000000002 C1098.395,1286.403 1098.3819999999998,1285.784 1098.615,1285.238 C1098.848,1284.691 1099.288,1284.265 1099.841,1284.0520000000001 C1109.466,1280.3890000000001 1125.658,1274.227 1125.877,1274.154 C1126.597,1273.9140000000002 1127.3029999999999,1273.795 1127.9889999999998,1273.795 C1138.174,1273.795 1139.385,1298.932 1139.492,1301.803 C1139.5249999999999,1302.8490000000002 1139.605,1305.0200000000002 1137.481,1305.1670000000001 C1136.215,1305.247 1135.023,1305.2730000000001 1133.8639999999998,1305.2730000000001z M1103.724,1287.1960000000001 C1106.588,1291.545 1115.434,1301.4560000000001 1135.136,1300.9440000000002 C1134.856,1295.8950000000002 1133.4109999999998,1282.96 1129.648,1278.997 C1128.801,1278.111 1128.1889999999999,1278.111 1127.9889999999998,1278.111 C1127.7559999999999,1278.111 1127.5159999999998,1278.1570000000002 1127.263,1278.2440000000001 C1126.817,1278.404 1110.012,1284.7990000000002 1103.724,1287.1960000000001z" style="fill: rgb(67, 67, 67); fill-opacity: 1;"></path><path d=" M1057.679,1312.134 C1056.646,1307.7240000000002 1058.232,1303.528 1061.216,1302.7620000000002 C1064.2,1301.9830000000002 1067.4569999999999,1304.94 1068.49,1309.363 C1069.528,1313.786 1067.93,1317.9950000000001 1064.959,1318.7610000000002 C1061.975,1319.527 1058.719,1316.556 1057.679,1312.134z" style="fill: rgb(67, 67, 67); fill-opacity: 1;"></path></g><g transform="matrix(0.40530782170813523,-0.1532985928252653,0.1532985928252653,0.40530782170813523,-225.77420353402044,156.09053148952856)" style="-webkit-user-select: none;"><g style="stroke-linecap: round; stroke-linejoin: round; fill-opacity: 0; stroke: rgb(253, 89, 89); stroke-opacity: 1; stroke-width: 44;"><path d=" M975.033,1545.005 C975.033,1588.065 975.032,1607.409 988.851,1607.409"></path></g></g><g transform="matrix(0.3976906119476396,-0.17209609544876947,0.17209609544876947,0.3976906119476396,-246.21469090810135,185.71050836054096)" style="-webkit-user-select: none;"><g style="stroke-linecap: round; stroke-linejoin: round; fill-opacity: 0; stroke: rgb(253, 89, 89); stroke-opacity: 1; stroke-width: 44;"><path d=" M975.032,1482.603 C975.032,1482.603 975.032,1545.005 975.032,1545.005"></path></g></g><g transform="matrix(0.3976906119476396,-0.17209609544876947,0.17209609544876947,0.3976906119476396,-246.21469090810135,185.71050836054096)" style="-webkit-user-select: none;"><g style="stroke-linecap: round; stroke-linejoin: round; fill-opacity: 0; stroke: rgb(253, 89, 89); stroke-opacity: 1; stroke-width: 44;"><path d=" M975.032,1420.199 C975.032,1420.199 975.032,1482.602 975.032,1482.602"></path></g></g><g transform="matrix(0.43333,2.4054647163040954e-17,-2.4054647163040954e-17,0.43333,-28.186107042617152,-35.38945505081398)" style="-webkit-user-select: none;"><path d=" M1037.35,1313.5059999999999 C1037.35,1300.5839999999998 1026.866,1290.127 1013.938,1290.154 C1001.002,1290.173 990.525,1300.664 990.525,1313.58 C990.525,1362.29 976.744,1390.3049999999998 976.744,1431.854 C976.744,1452.4099999999999 993.656,1468.935 1014.2239999999999,1468.768 C1034.786,1468.588 1051.211,1451.79 1051.211,1431.242 C1051.211,1389.485 1037.35,1361.524 1037.35,1313.5059999999999z" style="fill: rgb(126, 45, 43); fill-opacity: 1;"></path></g><g transform="matrix(0.43333,0,0,0.43333,-383.59288000000004,100.0036)" style="-webkit-user-select: none;"><path d=" M1370.587,1427.618 C1370.587,1427.618 1738.8999999999999,1427.618 1738.8999999999999,1427.618 C1738.8999999999999,1427.618 1677.5149999999999,1182.076 1677.5149999999999,1182.076 C1677.5149999999999,1182.076 1309.202,1182.076 1309.202,1182.076 C1309.202,1182.076 1370.587,1427.618 1370.587,1427.618z" style="fill: rgb(208, 216, 220); fill-opacity: 1;"></path><g style="stroke-linecap: round; stroke-linejoin: round; fill-opacity: 0; stroke: rgb(208, 216, 220); stroke-opacity: 1; stroke-width: 163.695;"><path d=" M1370.587,1427.618 C1370.587,1427.618 1738.8999999999999,1427.618 1738.8999999999999,1427.618 C1738.8999999999999,1427.618 1677.5149999999999,1182.076 1677.5149999999999,1182.076 C1677.5149999999999,1182.076 1309.202,1182.076 1309.202,1182.076 C1309.202,1182.076 1370.587,1427.618 1370.587,1427.618z"></path></g><path d=" M1247.817,936.534 C1247.817,936.534 1370.587,1427.618 1370.587,1427.618" style="fill: rgb(208, 216, 220); fill-opacity: 1;"></path><g style="stroke-linecap: round; stroke-linejoin: round; fill-opacity: 0; stroke: rgb(208, 216, 220); stroke-opacity: 1; stroke-width: 163.695;"><path d=" M1247.817,936.534 C1247.817,936.534 1370.587,1427.618 1370.587,1427.618"></path></g><g style="stroke-linecap: round; stroke-linejoin: round; fill-opacity: 0; stroke: rgb(244, 244, 245); stroke-opacity: 1; stroke-width: 204.618;"><path d=" M2465.813,1407.156 C2465.813,1407.156 1773.003,1407.156 1773.003,1407.156"></path></g><path d=" M1738.901,1427.618 C1738.901,1427.618 1677.515,1182.076 1677.515,1182.076" style="fill: rgb(72, 123, 250); fill-opacity: 1;"></path><g style="stroke-linecap: round; stroke-linejoin: round; fill-opacity: 0; stroke: rgb(244, 244, 245); stroke-opacity: 1; stroke-width: 163.695;"><path d=" M1738.901,1427.618 C1738.901,1427.618 1677.515,1182.076 1677.515,1182.076"></path></g></g><g transform="matrix(0.2912055223347286,-0.32089598417829707,0.32089598417829707,0.2912055223347286,743.052217604227,439.26283725621056)" style="-webkit-user-select: none;"><g style="stroke-linecap: round; stroke-linejoin: round; fill-opacity: 0; stroke: rgb(208, 216, 220); stroke-opacity: 1; stroke-width: 6;"><path d=""></path><path d=""></path><path d=""></path></g></g></g><g transform="matrix(0.78495,0,0,0.78495,542,548.817)" style="-webkit-user-select: none;"><path d=" M0,-666 C-367.822,-666 -666,-367.822 -666,0 C-666,367.822 -367.822,666 0,666 C367.822,666 666,367.822 666,0 C666,-367.822 367.822,-666 0,-666z M693.041,-704.274 C693.041,-704.274 693.041,681.808 693.041,681.808 C693.041,681.808 -693.041,681.808 -693.041,681.808 C-693.041,681.808 -693.041,-704.274 -693.041,-704.274 C-693.041,-704.274 693.041,-704.274 693.041,-704.274z" style="fill: rgb(255, 255, 255); fill-opacity: 1;"></path></g></g></svg>