<svg version="1.1"  xmlns="http://www.w3.org/2000/svg" xmlns:xlink="http://www.w3.org/1999/xlink" x="0px" y="0px" viewBox="0 0 792 612" enable-background="new 0 0 792 612" xml:space="preserve">
<path fill="#E5E6E6" d="M70.906,422.495v45.662c0,8.897,7.216,16.114,16.117,16.114H666.26c8.9,0,16.116-7.217,16.116-16.114
	v-45.662H70.906z"/>
<g>
	<path fill="#E5E6E6" d="M274.931,577.551c2.779,0,204.169,0,204.169,0s2.182-0.105,2.2-0.998c-0.418-2.073-2.445-3.298-2.445-3.298
		s-9.854-6.568-21.729-15.162c-11.876-8.59-12.129-75.718-12.129-75.718H371.71l0,0h-63.424c0,0-0.253,67.128-12.129,75.718
		c-11.876,8.594-21.731,15.162-21.731,15.162s-2.104,1.271-2.468,3.415C272.134,576.941,272.771,577.551,274.931,577.551z"/>
	<path fill="#EAEAEA" d="M271.898,579.824c0,0-0.252,8.725,2.274,8.725c2.526,0,97.521,0,97.537,0l0,0c0.016,0,104.873,0,107.398,0
		c2.526,0,2.272-8.725,2.272-8.725s0,0,0-2.526c0-0.261-0.032-0.508-0.08-0.745c-0.021,0.892-2.201,0.998-2.201,0.998
		s-201.393,0-204.168,0c-2.161,0-2.797-0.606-2.974-0.881c-0.034,0.202-0.059,0.409-0.059,0.628
		C271.898,579.824,271.898,579.824,271.898,579.824z"/>
	<path fill="#C9C9C9" d="M271.898,588.171c0,0-0.252,1.52,2.274,1.52c2.526,0,97.521,0,97.537,0l0,0c0.016,0,104.873,0,107.398,0
		c2.526,0,2.272-1.52,2.272-1.52s0-7.209,0-9.735c0-0.26-0.032-0.507-0.08-0.743c-0.021,0.891-2.201,1-2.201,1s-201.393,0-204.168,0
		c-2.161,0-2.797-0.61-2.974-0.884c-0.034,0.202-0.059,0.409-0.059,0.627C271.898,580.962,271.898,588.171,271.898,588.171z"/>
	<g>
		<path fill="#BFBFBF" d="M444.997,482.375H371.71l0,0h-63.424c0,0-0.061,15.414-1.426,32.415h139.562
			C445.056,497.789,444.997,482.375,444.997,482.375z"/>
	</g>
</g>
<g>
	<g>
		<g>
			<g>
				<defs>
					<rect id="SVGID_1_" x="97.626" y="6.006" width="560.685" height="390.146"/>
				</defs>
				<clipPath id="SVGID_2_">
					<use xlink:href="#SVGID_1_"  overflow="visible"/>
				</clipPath>
				<rect x="97.181" y="37.841" clip-path="url(#SVGID_2_)" fill="#FFFFFF" width="558.9" height="366.127"/>
			</g>
		</g>
	</g>
	<g>
		<g>
			<g>
				<defs>
					<rect id="SVGID_3_" x="97.626" y="6.006" width="560.685" height="390.146"/>
				</defs>
				<clipPath id="SVGID_4_">
					<use xlink:href="#SVGID_3_"  overflow="visible"/>
				</clipPath>
				<rect x="97.191" y="39.547" clip-path="url(#SVGID_4_)" fill="#742B6D" width="558.899" height="55.146"/>
			</g>
		</g>
	</g>
	<g>
		<g>
			<g>
				<defs>
					<rect id="SVGID_5_" x="97.626" y="6.006" width="560.685" height="390.146"/>
				</defs>
				<clipPath id="SVGID_6_">
					<use xlink:href="#SVGID_5_"  overflow="visible"/>
				</clipPath>
				<path clip-path="url(#SVGID_6_)" fill="#FCFCFC" d="M613.085,39.473v20.241c0,2.967-2.405,5.372-5.372,5.372H144.881
					c-2.967,0-5.372-2.405-5.372-5.372V39.473H613.085z"/>
			</g>
		</g>
	</g>
	<g>
		<g>
			<g>
				<defs>
					<rect id="SVGID_7_" x="97.626" y="6.006" width="560.685" height="390.146"/>
				</defs>
				<clipPath id="SVGID_8_">
					<use xlink:href="#SVGID_7_"  overflow="visible"/>
				</clipPath>
				<path clip-path="url(#SVGID_8_)" fill="#742B6D" d="M150.2,47.972c-2.962,0.624-5.293,4.024-3.725,7.566
					c0.943,1.997,2.905,2.978,4.293,3.05c0.552-0.601,2.28-2.437,2.854-3.06c-2.319,0-2.801,0.059-3.307-0.217
					c-1.773-0.968-1.798-3.515,0.329-4.282c1.23-0.386,2.995,0.374,2.995,2.379c0,0.729,0.018-0.014-0.012,2.12
					c0,0.96,0,1.89,0,2.851c1.056,0,2.048,0,3.103,0c0-0.09,0-4.345,0-5.224C156.73,50.229,154.017,47.274,150.2,47.972z"/>
			</g>
		</g>
	</g>
	<g>
		<g>
			<g>
				<defs>
					<rect id="SVGID_9_" x="97.626" y="6.006" width="560.685" height="390.146"/>
				</defs>
				<clipPath id="SVGID_10_">
					<use xlink:href="#SVGID_9_"  overflow="visible"/>
				</clipPath>
				<rect x="162.942" y="43.984" clip-path="url(#SVGID_10_)" width="3.22" height="14.438"/>
			</g>
		</g>
	</g>
	<g>
		<g>
			<g>
				<defs>
					<rect id="SVGID_11_" x="97.626" y="6.006" width="560.685" height="390.146"/>
				</defs>
				<clipPath id="SVGID_12_">
					<use xlink:href="#SVGID_11_"  overflow="visible"/>
				</clipPath>
				<rect x="158.165" y="43.984" clip-path="url(#SVGID_12_)" width="3.22" height="14.438"/>
			</g>
		</g>
	</g>
	<g>
		<g>
			<g>
				<defs>
					<rect id="SVGID_13_" x="97.626" y="6.006" width="560.685" height="390.146"/>
				</defs>
				<clipPath id="SVGID_14_">
					<use xlink:href="#SVGID_13_"  overflow="visible"/>
				</clipPath>
				<polygon clip-path="url(#SVGID_14_)" points="174.763,48.036 172.665,54.392 170.462,48.036 167.097,48.036 171.023,58.422 
					169.403,62.348 172.748,62.348 178.128,48.036 				"/>
			</g>
		</g>
	</g>
	<g>
		<g>
			<g>
				<defs>
					<rect id="SVGID_15_" x="97.626" y="6.006" width="560.685" height="390.146"/>
				</defs>
				<clipPath id="SVGID_16_">
					<use xlink:href="#SVGID_15_"  overflow="visible"/>
				</clipPath>
				<g clip-path="url(#SVGID_16_)">
					<text transform="matrix(1 0 0 1 145.9717 124.2432)" fill="#742B6D" font-family="'Arial-BoldMT'" font-size="15.3099">My Vehicles</text>
				</g>
			</g>
		</g>
	</g>
	<g>
		<g>
			<g>
				<defs>
					<rect id="SVGID_17_" x="97.626" y="6.006" width="560.685" height="390.146"/>
				</defs>
				<clipPath id="SVGID_18_">
					<use xlink:href="#SVGID_17_"  overflow="visible"/>
				</clipPath>
				<g clip-path="url(#SVGID_18_)">
					<text transform="matrix(1 0 0 1 145.9717 144.5986)" fill="#6B6B6B" font-family="'ArialMT'" font-size="7.5297">Welcvome to Ally Auto Services. You are on the My Vehicles page where you can manager your preferences or your</text>
					<text transform="matrix(1 0 0 1 145.9717 153.6348)" fill="#6B6B6B" font-family="'ArialMT'" font-size="7.5297">profile any time.</text>
				</g>
			</g>
		</g>
	</g>
	<g>
		<g>
			<g>
				<defs>
					<rect id="SVGID_19_" x="97.626" y="6.006" width="560.685" height="390.146"/>
				</defs>
				<clipPath id="SVGID_20_">
					<use xlink:href="#SVGID_19_"  overflow="visible"/>
				</clipPath>
				<g clip-path="url(#SVGID_20_)">
					<path fill="#E4F0F4" d="M145.973,313.011v50.099c0,3.273,2.654,5.93,5.928,5.93h419.412c3.274,0,5.931-2.653,5.931-5.93
						v-50.099H145.973z"/>
					<rect x="145.973" y="191.286" fill="#EDF5F7" width="431.268" height="120.469"/>
					<path fill="#EFEFEF" d="M577.24,173.555c0-3.273-2.653-5.929-5.931-5.929H151.9c-3.274,0-5.928,2.654-5.928,5.929v16.477
						H577.24V173.555z"/>
				</g>
			</g>
		</g>
	</g>
	<g>
		<g>
			<g>
				<defs>
					<rect id="SVGID_21_" x="97.626" y="6.006" width="560.685" height="390.146"/>
				</defs>
				<clipPath id="SVGID_22_">
					<use xlink:href="#SVGID_21_"  overflow="visible"/>
				</clipPath>
				<g clip-path="url(#SVGID_22_)">
					<text transform="matrix(1 0 0 1 155.8271 181.8721)" fill="#686868" font-family="'Arial-BoldMT'" font-size="7.5297">My New Ride</text>
				</g>
			</g>
		</g>
	</g>
	<g>
		<g>
			<g>
				<defs>
					<rect id="SVGID_23_" x="97.626" y="6.006" width="560.685" height="390.146"/>
				</defs>
				<clipPath id="SVGID_24_">
					<use xlink:href="#SVGID_23_"  overflow="visible"/>
				</clipPath>
				<g clip-path="url(#SVGID_24_)">
					<text transform="matrix(1 0 0 1 155.8818 207.1445)" fill="#686868" font-family="'ArialMT'" font-size="8.464">2015 Chevy Malibu  |  VIN: </text>
					<text transform="matrix(1 0 0 1 258.7559 207.1445)" fill="#686868" font-family="'Arial-BoldMT'" font-size="8.464">123456789012</text>
				</g>
			</g>
		</g>
	</g>
	<g>
		<g>
			<g>
				<defs>
					<rect id="SVGID_25_" x="97.626" y="6.006" width="560.685" height="390.146"/>
				</defs>
				<clipPath id="SVGID_26_">
					<use xlink:href="#SVGID_25_"  overflow="visible"/>
				</clipPath>
				<g clip-path="url(#SVGID_26_)">
					<text transform="matrix(1 0 0 1 155.8818 342.043)" fill="#3B79A8" font-family="'ArialMT'" font-size="8.464">Online statements  |  Online activity</text>
				</g>
			</g>
		</g>
	</g>
	<g>
		<g>
			<g>
				<defs>
					<rect id="SVGID_27_" x="97.626" y="6.006" width="560.685" height="390.146"/>
				</defs>
				<clipPath id="SVGID_28_">
					<use xlink:href="#SVGID_27_"  overflow="visible"/>
				</clipPath>
				<g clip-path="url(#SVGID_28_)">
					<text transform="matrix(1 0 0 1 155.8818 328.458)" fill="#686868" font-family="'Arial-BoldMT'" font-size="8.464">View:</text>
				</g>
			</g>
		</g>
	</g>
	<g>
		<g>
			<g>
				<defs>
					<rect id="SVGID_29_" x="97.626" y="6.006" width="560.685" height="390.146"/>
				</defs>
				<clipPath id="SVGID_30_">
					<use xlink:href="#SVGID_29_"  overflow="visible"/>
				</clipPath>
				<g clip-path="url(#SVGID_30_)">
					<text transform="matrix(1 0 0 1 335.9561 342.043)" fill="#3B79A8" font-family="'ArialMT'" font-size="8.464">Payment preferences  |  Account information</text>
				</g>
			</g>
		</g>
	</g>
	<g>
		<g>
			<g>
				<defs>
					<rect id="SVGID_31_" x="97.626" y="6.006" width="560.685" height="390.146"/>
				</defs>
				<clipPath id="SVGID_32_">
					<use xlink:href="#SVGID_31_"  overflow="visible"/>
				</clipPath>
				<g clip-path="url(#SVGID_32_)">
					<text transform="matrix(1 0 0 1 335.9561 328.458)" fill="#686868" font-family="'Arial-BoldMT'" font-size="8.464">Manage:</text>
				</g>
			</g>
		</g>
	</g>
	<g>
		<g>
			<g>
				<defs>
					<rect id="SVGID_33_" x="97.626" y="6.006" width="560.685" height="390.146"/>
				</defs>
				<clipPath id="SVGID_34_">
					<use xlink:href="#SVGID_33_"  overflow="visible"/>
				</clipPath>
				<g clip-path="url(#SVGID_34_)">
					<text transform="matrix(1 0 0 1 155.3936 221.9551)" fill="#686868" font-family="'Arial-BoldMT'" font-size="8.464">Most recent payment:</text>
					<text transform="matrix(1 0 0 1 190.1914 232.1123)" fill="#686868" font-family="'Arial-BoldMT'" font-size="8.464">Received on:</text>
					<text transform="matrix(1 0 0 1 185.0215 262.582)" fill="#686868" font-family="'Arial-BoldMT'" font-size="8.464">Total Balance:</text>
				</g>
			</g>
		</g>
	</g>
	<g>
		<g>
			<g>
				<defs>
					<rect id="SVGID_35_" x="97.626" y="6.006" width="560.685" height="390.146"/>
				</defs>
				<clipPath id="SVGID_36_">
					<use xlink:href="#SVGID_35_"  overflow="visible"/>
				</clipPath>
				<g clip-path="url(#SVGID_36_)">
					<text transform="matrix(1 0 0 1 248.5156 221.9551)" fill="#686868" font-family="'Arial-BoldMT'" font-size="8.464">$300.00</text>
					<text transform="matrix(1 0 0 1 248.5156 232.1123)" fill="#686868" font-family="'ArialMT'" font-size="8.464">4/15/2015</text>
					<text transform="matrix(1 0 0 1 248.5156 242.2676)" fill="#3B79A8" font-family="'ArialMT'" font-size="8.464">Pending history</text>
					<text transform="matrix(1 0 0 1 248.5156 252.4248)" fill="#3B79A8" font-family="'ArialMT'" font-size="8.464">Pending payments (1)</text>
					<text transform="matrix(1 0 0 1 248.5156 262.582)" fill="#686868" font-family="'Arial-BoldMT'" font-size="8.464">$20,000.00</text>
					<text transform="matrix(1 0 0 1 248.5156 272.7393)" fill="#3B79A8" font-family="'ArialMT'" font-size="8.464">Request quote</text>
				</g>
			</g>
		</g>
	</g>
	<g>
		<g>
			<g>
				<defs>
					<rect id="SVGID_37_" x="97.626" y="6.006" width="560.685" height="390.146"/>
				</defs>
				<clipPath id="SVGID_38_">
					<use xlink:href="#SVGID_37_"  overflow="visible"/>
				</clipPath>
				<g clip-path="url(#SVGID_38_)">
					<text transform="matrix(1 0 0 1 226.1006 181.8721)" fill="#686868" font-family="'ArialMT'" font-size="7.5297">Account:</text>
					<text transform="matrix(1 0 0 1 255.3994 181.8721)" fill="#686868" font-family="'Arial-BoldMT'" font-size="7.5297"> 12345678</text>
				</g>
			</g>
		</g>
	</g>
	<g>
		<g>
			<g>
				<defs>
					<rect id="SVGID_39_" x="97.626" y="6.006" width="560.685" height="390.146"/>
				</defs>
				<clipPath id="SVGID_40_">
					<use xlink:href="#SVGID_39_"  overflow="visible"/>
				</clipPath>
				<path clip-path="url(#SVGID_40_)" fill="#F7F7F7" d="M556.62,284.465c0,3.635-2.946,6.581-6.582,6.581H438.518
					c-3.636,0-6.582-2.946-6.582-6.581v-69.031c0-3.635,2.946-6.582,6.582-6.582h111.521c3.636,0,6.582,2.947,6.582,6.582
					L556.62,284.465L556.62,284.465z"/>
			</g>
		</g>
	</g>
	<g>
		<g>
			<g>
				<defs>
					<rect id="SVGID_41_" x="97.626" y="6.006" width="560.685" height="390.146"/>
				</defs>
				<clipPath id="SVGID_42_">
					<use xlink:href="#SVGID_41_"  overflow="visible"/>
				</clipPath>
				<g clip-path="url(#SVGID_42_)">
					<text transform="matrix(1 0 0 1 444.7568 236.8887)" fill="#686868" font-family="'Arial-BoldMT'" font-size="7.5297">Total Payment Due: $300.00</text>
				</g>
			</g>
		</g>
	</g>
	<g>
		<g>
			<g>
				<defs>
					<rect id="SVGID_43_" x="97.626" y="6.006" width="560.685" height="390.146"/>
				</defs>
				<clipPath id="SVGID_44_">
					<use xlink:href="#SVGID_43_"  overflow="visible"/>
				</clipPath>
				<path clip-path="url(#SVGID_44_)" fill="#742B6D" d="M537.885,260.764c0,3.035-2.46,5.495-5.494,5.495h-76.226
					c-3.034,0-5.494-2.46-5.494-5.495v-6.453c0-3.034,2.46-5.494,5.494-5.494h76.226c3.034,0,5.494,2.46,5.494,5.494V260.764z"/>
			</g>
		</g>
	</g>
	<g>
		<g>
			<g>
				<defs>
					<rect id="SVGID_45_" x="97.626" y="6.006" width="560.685" height="390.146"/>
				</defs>
				<clipPath id="SVGID_46_">
					<use xlink:href="#SVGID_45_"  overflow="visible"/>
				</clipPath>
				<g clip-path="url(#SVGID_46_)">
					<text transform="matrix(1 0 0 1 467.1289 259.8623)" fill="#FFFFFF" font-family="'Arial-BoldMT'" font-size="6.9775">Make a Payment</text>
				</g>
			</g>
		</g>
	</g>
</g>
<path fill="#444B4D" d="M666.26,10.129H87.023c-8.901,0-16.117,7.215-16.117,16.116v396.25h611.47V26.245
	C682.376,17.344,675.16,10.129,666.26,10.129z M655.275,396.152H98.764V40.557h556.512L655.275,396.152L655.275,396.152z"/>
<g>
	<g>
		<path fill="#444B4D" d="M731.803,560.732c0,15.959-12.171,28.89-27.186,28.89h-84.639c-15.006,0-27.172-12.931-27.172-28.89
			V333.605c0-15.963,12.166-28.892,27.172-28.892h84.639c15.015,0,27.186,12.929,27.186,28.892V560.732z"/>
		<path fill="#C2C1C1" d="M683.215,329.544c0,1.55-1.176,2.802-2.641,2.802h-31.146c-1.457,0-2.642-1.252-2.642-2.802l0,0
			c0-1.562,1.185-2.812,2.642-2.812h31.146C682.039,326.732,683.215,327.982,683.215,329.544L683.215,329.544z"/>
		<path fill="#C3C2C2" d="M668.211,318.105c0,1.885-1.438,3.41-3.21,3.41s-3.202-1.525-3.202-3.41c0-1.888,1.43-3.404,3.202-3.404
			C666.771,314.701,668.211,316.221,668.211,318.105z"/>
		<g>
			<path fill="#ABABAC" d="M649.429,328.134h31.146c1.228,0,2.263,0.899,2.55,2.11c0.057-0.23,0.091-0.46,0.091-0.7
				c0-1.562-1.176-2.812-2.641-2.812h-31.146c-1.457,0-2.642,1.25-2.642,2.812c0,0.24,0.043,0.47,0.095,0.7
				C647.176,329.033,648.201,328.134,649.429,328.134z"/>
		</g>
		<g>
			<path fill="#ABABAC" d="M665.001,316.898c1.415,0,2.589,0.971,3.028,2.311c0.109-0.346,0.182-0.708,0.182-1.104
				c0-1.888-1.438-3.404-3.21-3.404s-3.202,1.52-3.202,3.404c0,0.396,0.074,0.758,0.178,1.104
				C662.413,317.869,663.595,316.898,665.001,316.898z"/>
		</g>
		<rect x="602.005" y="343" fill="#F2F2F2" width="117.988" height="207"/>
		<rect x="602.502" y="343" fill="#F1F1F1" width="116.995" height="207.666"/>
		<rect x="602.502" y="343" fill="#F8F8F8" width="116.995" height="23.582"/>
		<path d="M637.051,345.575c0.709,0,1.355,0.265,1.853,0.698l0.345-0.387c-0.588-0.517-1.354-0.878-2.195-0.878
			s-1.604,0.36-2.19,0.875l0.344,0.388C635.697,345.838,636.342,345.575,637.051,345.575"/>
		<path d="M637.051,346.688c0.426,0,0.813,0.155,1.113,0.414l0.363-0.408c-0.396-0.346-0.911-0.569-1.479-0.569
			c-0.562,0-1.08,0.228-1.476,0.567l0.362,0.408C636.238,346.842,636.626,346.688,637.051,346.688"/>
		<path d="M637.799,347.508c-0.202-0.171-0.463-0.289-0.748-0.289s-0.546,0.117-0.748,0.287l0.748,0.84L637.799,347.508z"/>
		<path d="M714.013,346.107c0.354,0,0.55,0.285,0.55,0.641c0,0.354-0.194,0.641-0.55,0.641V346.107z"/>
		<path d="M713.281,345.193c0.202,0,0.365,0.164,0.365,0.365v2.377c0,0.2-0.163,0.364-0.365,0.364h-7.129
			c-0.202,0-0.365-0.164-0.365-0.364v-2.377c0-0.201,0.163-0.365,0.365-0.365H713.281 M713.281,345.011h-7.129
			c-0.305,0-0.55,0.246-0.55,0.55v2.375c0,0.305,0.245,0.551,0.55,0.551h7.129c0.303,0,0.549-0.246,0.549-0.551v-2.375
			C713.83,345.257,713.584,345.011,713.281,345.011"/>
		<path d="M706.335,345.377h6.764c0.202,0,0.365,0.163,0.365,0.365v2.011c0,0.202-0.163,0.365-0.365,0.365h-6.764
			c-0.202,0-0.365-0.163-0.365-0.365v-2.011C705.97,345.54,706.133,345.377,706.335,345.377"/>
		<path d="M605.884,345.742c0.557,0,1.006,0.449,1.006,1.006c0,0.555-0.45,1.005-1.006,1.005c-0.555,0-1.005-0.45-1.005-1.005
			C604.879,346.191,605.329,345.742,605.884,345.742"/>
		<path d="M608.443,345.742c0.555,0,1.005,0.449,1.005,1.006c0,0.555-0.45,1.005-1.005,1.005c-0.558,0-1.006-0.45-1.006-1.005
			C607.438,346.191,607.888,345.742,608.443,345.742"/>
		<path d="M611.003,345.742c0.555,0,1.005,0.449,1.005,1.006c0,0.555-0.45,1.005-1.005,1.005c-0.556,0-1.006-0.45-1.006-1.005
			C609.997,346.191,610.447,345.742,611.003,345.742"/>
		<path d="M613.562,345.742c-0.557,0-1.008,0.449-1.008,1.006c0,0.555,0.451,1.005,1.008,1.005c0.556,0,1.006-0.45,1.006-1.005
			C614.567,346.191,614.117,345.742,613.562,345.742"/>
		<path d="M616.121,345.742c-0.557,0-1.005,0.449-1.005,1.006c0,0.555,0.448,1.005,1.005,1.005c0.556,0,1.005-0.45,1.005-1.005
			C617.126,346.191,616.677,345.742,616.121,345.742"/>
		<path d="M620.823,345.57c-0.158-0.111-0.351-0.188-0.567-0.188c-0.188,0-0.348,0.026-0.479,0.098
			c-0.135,0.068-0.243,0.16-0.329,0.277c-0.087,0.118-0.149,0.251-0.191,0.403c-0.04,0.149-0.062,0.31-0.062,0.472
			c0,0.18,0.021,0.348,0.062,0.508c0.042,0.158,0.104,0.299,0.191,0.416c0.086,0.118,0.194,0.213,0.331,0.282
			c0.135,0.07,0.295,0.104,0.48,0.104c0.14,0,0.26-0.021,0.366-0.067c0.107-0.045,0.199-0.106,0.276-0.188
			c0.078-0.08,0.139-0.188,0.183-0.299c0.044-0.109,0.07-0.188,0.079-0.369h0.417c-0.041,0.365-0.178,0.713-0.408,0.933
			c-0.229,0.22-0.548,0.334-0.947,0.334c-0.242,0-0.456-0.038-0.637-0.122c-0.182-0.083-0.332-0.197-0.452-0.344
			c-0.119-0.146-0.21-0.317-0.27-0.519c-0.062-0.198-0.09-0.411-0.09-0.64s0.03-0.441,0.097-0.645
			c0.062-0.199,0.158-0.375,0.282-0.522c0.125-0.149,0.277-0.269,0.466-0.354c0.186-0.086,0.396-0.13,0.638-0.13
			c0.164,0,0.319,0.022,0.466,0.066c0.147,0.044,0.276,0.108,0.393,0.192c0.111,0.086,0.208,0.229,0.284,0.354
			c0.074,0.127,0.125,0.295,0.148,0.479h-0.418C621.087,345.742,620.982,345.682,620.823,345.57z"/>
		<path d="M623.944,348.271c-0.098,0-0.194-0.027-0.251-0.082c-0.06-0.055-0.099-0.144-0.099-0.267
			c-0.103,0.123-0.227,0.212-0.361,0.267c-0.138,0.055-0.285,0.082-0.443,0.082c-0.104,0-0.2-0.013-0.291-0.033
			c-0.091-0.021-0.171-0.059-0.239-0.109c-0.067-0.052-0.123-0.115-0.163-0.197c-0.04-0.08-0.06-0.178-0.06-0.291
			c0-0.129,0.021-0.232,0.063-0.314c0.045-0.082,0.104-0.148,0.176-0.199c0.069-0.052,0.151-0.091,0.244-0.115
			c0.093-0.027,0.188-0.05,0.282-0.066c0.104-0.021,0.199-0.035,0.292-0.045c0.092-0.012,0.174-0.024,0.243-0.045
			c0.07-0.02,0.126-0.047,0.167-0.084c0.041-0.035,0.062-0.09,0.062-0.16c0-0.08-0.017-0.146-0.047-0.196
			c-0.029-0.049-0.069-0.088-0.116-0.113c-0.05-0.026-0.104-0.044-0.163-0.054c-0.062-0.008-0.119-0.014-0.18-0.014
			c-0.156,0-0.289,0.027-0.395,0.088s-0.162,0.154-0.172,0.339h-0.372c0.006-0.185,0.035-0.257,0.087-0.354
			c0.054-0.096,0.123-0.173,0.211-0.231c0.088-0.062,0.188-0.104,0.303-0.13s0.234-0.038,0.359-0.038
			c0.104,0,0.204,0.007,0.306,0.021c0.103,0.014,0.192,0.045,0.274,0.09c0.081,0.045,0.124,0.108,0.174,0.19
			s0.052,0.188,0.052,0.319v1.168c0,0.088,0.028,0.15,0.038,0.191s0.1,0.062,0.158,0.062c0.032,0-0.014-0.01,0.169-0.022v0.289
			C624.073,348.252,624.059,348.271,623.944,348.271z M623.36,347.128c-0.076,0.017-0.146,0.029-0.229,0.04
			c-0.084,0.01-0.163,0.021-0.248,0.034s-0.158,0.034-0.226,0.062c-0.067,0.029-0.121,0.071-0.163,0.127
			c-0.043,0.055-0.062,0.127-0.062,0.221c0,0.062,0.014,0.115,0.037,0.156c0.024,0.043,0.06,0.075,0.099,0.104
			c0.038,0.027,0.086,0.046,0.141,0.059c0.054,0.012,0.109,0.019,0.165,0.019c0.122,0,0.228-0.019,0.313-0.052
			c0.09-0.032,0.159-0.075,0.217-0.129c0.056-0.051,0.075-0.104,0.104-0.166c0.025-0.06,0.021-0.114,0.021-0.168v-0.383
			C623.523,347.087,623.436,347.111,623.36,347.128z"/>
		<path d="M624.986,345.925v0.548h-0.001c0.09-0.183,0.241-0.34,0.374-0.428c0.132-0.088,0.176-0.148,0.542-0.145v0.396
			c-0.186,0-0.318,0.021-0.423,0.062c-0.105,0.043-0.211,0.103-0.275,0.182s-0.128,0.174-0.156,0.287
			c-0.029,0.111-0.061,0.24-0.061,0.388v1.089h-0.364v-2.377L624.986,345.925L624.986,345.925z"/>
		<path d="M626.632,345.925v0.548h-0.062c0.092-0.183,0.183-0.34,0.312-0.428s0.298-0.148,0.48-0.145v0.396
			c-0.185,0-0.256,0.021-0.362,0.062c-0.104,0.043-0.181,0.103-0.244,0.182c-0.062,0.079-0.081,0.174-0.11,0.287
			c-0.027,0.111-0.015,0.24-0.015,0.388v1.089h-0.364v-2.377L626.632,345.925L626.632,345.925z"/>
		<path d="M627.911,345.561v-0.549h0.366v0.549H627.911z M628.277,345.925v2.377h-0.366v-2.377H628.277z"/>
		<path d="M630.504,348.111c-0.169,0.129-0.383,0.176-0.641,0.176c-0.183,0-0.338-0.037-0.472-0.096
			c-0.135-0.061-0.245-0.146-0.337-0.25c-0.091-0.105-0.158-0.233-0.203-0.381c-0.047-0.146-0.07-0.308-0.076-0.479
			c0-0.172,0.024-0.33,0.078-0.476c0.054-0.144,0.127-0.268,0.223-0.373c0.095-0.104,0.207-0.188,0.338-0.244
			c0.13-0.061,0.271-0.09,0.428-0.09c0.202,0,0.369,0.043,0.502,0.127c0.136,0.082,0.24,0.188,0.32,0.316
			c0.081,0.129,0.137,0.271,0.167,0.424c0.03,0.151,0.043,0.254,0.037,0.438h-1.697c-0.004,0.184,0.008,0.189,0.035,0.279
			c0.026,0.091,0.067,0.168,0.127,0.235c0.06,0.069,0.133,0.123,0.224,0.164c0.093,0.041,0.197,0.062,0.32,0.062
			c0.157,0,0.287-0.002,0.388-0.075c0.104-0.073,0.167-0.3,0.2-0.3h0.368C630.783,347.753,630.674,347.982,630.504,348.111z
			 M630.414,346.605c-0.033-0.08-0.079-0.142-0.136-0.196c-0.059-0.058-0.124-0.099-0.202-0.134
			c-0.077-0.032-0.163-0.047-0.256-0.047c-0.1,0-0.187,0.019-0.264,0.051c-0.076,0.035-0.145,0.08-0.197,0.14
			c-0.058,0.058-0.102,0.11-0.134,0.188c-0.03,0.076-0.051,0.229-0.057,0.229h1.303
			C630.468,346.839,630.448,346.686,630.414,346.605z"/>
		<path d="M631.751,345.925v0.548h-0.027c0.092-0.183,0.164-0.34,0.296-0.428c0.134-0.088,0.279-0.148,0.465-0.145v0.396
			c0,0-0.239,0.021-0.347,0.062c-0.104,0.043-0.171,0.103-0.233,0.182c-0.064,0.079-0.096,0.174-0.124,0.287
			c-0.029,0.111-0.027,0.24-0.027,0.388v1.089h-0.366v-2.377L631.751,345.925L631.751,345.925z"/>
		<polygon points="715.477,346.656 716.572,344.828 716.389,346.29 717.303,346.29 716.023,348.118 716.206,346.656 		"/>
		<path d="M693.904,348.302v-2.377h-0.914v-0.229c0.183,0,0.242-0.008,0.343-0.023c0.099-0.016,0.207-0.046,0.287-0.09
			c0.08-0.043,0.157-0.062,0.213-0.139c0.056-0.077,0.103-0.25,0.123-0.25h0.312v3.107L693.904,348.302L693.904,348.302z"/>
		<path d="M695.312,346.34c0.006-0.123,0.021-0.242,0.043-0.359c0.022-0.115,0.058-0.229,0.102-0.334
			c0.044-0.104,0.104-0.195,0.18-0.273c0.076-0.079,0.174-0.145,0.288-0.188c0.115-0.047,0.254-0.069,0.414-0.069
			c0.161,0,0.3,0.022,0.415,0.069s0.211,0.108,0.287,0.188c0.076,0.078,0.137,0.171,0.181,0.273
			c0.044,0.105,0.077,0.219,0.103,0.334c0.022,0.117,0.038,0.236,0.044,0.359s0.008,0.242,0.008,0.355s-0.002,0.23-0.008,0.354
			s-0.021,0.243-0.044,0.36c-0.023,0.117-0.059,0.229-0.103,0.331s-0.104,0.194-0.181,0.272c-0.076,0.078-0.171,0.144-0.285,0.188
			c-0.113,0.045-0.253,0.067-0.417,0.067c-0.16,0-0.299-0.022-0.414-0.067c-0.114-0.046-0.212-0.108-0.288-0.188
			c-0.073-0.078-0.136-0.171-0.18-0.272c-0.044-0.104-0.077-0.214-0.102-0.331c-0.023-0.117-0.037-0.237-0.043-0.36
			c-0.008-0.123-0.011-0.241-0.011-0.354C695.303,346.582,695.306,346.463,695.312,346.34z M695.709,347.084
			c0.007,0.146,0.03,0.281,0.069,0.408c0.04,0.127,0.104,0.234,0.189,0.322s0.211,0.131,0.368,0.131
			c0.158,0,0.281-0.043,0.369-0.131s0.148-0.195,0.189-0.322c0.039-0.127,0.062-0.264,0.069-0.408s0.011-0.275,0.011-0.393
			c0-0.076,0-0.16-0.002-0.252c-0.002-0.094-0.009-0.187-0.021-0.276c-0.016-0.093-0.033-0.183-0.059-0.271
			c-0.024-0.09-0.062-0.164-0.108-0.23c-0.049-0.064-0.109-0.119-0.183-0.16c-0.072-0.041-0.164-0.062-0.27-0.062
			c-0.106,0-0.194,0.021-0.269,0.062c-0.071,0.041-0.134,0.096-0.183,0.16c-0.049,0.066-0.085,0.143-0.11,0.23
			c-0.022,0.088-0.043,0.178-0.057,0.271c-0.013,0.092-0.021,0.185-0.021,0.276c-0.001,0.092-0.003,0.176-0.003,0.252
			C695.697,346.809,695.701,346.939,695.709,347.084z"/>
		<path d="M697.751,346.34c0.006-0.123,0.021-0.242,0.044-0.359c0.023-0.115,0.057-0.229,0.102-0.334
			c0.044-0.104,0.104-0.195,0.182-0.273c0.075-0.079,0.172-0.145,0.287-0.188c0.113-0.047,0.253-0.069,0.414-0.069
			s0.299,0.022,0.415,0.069c0.113,0.047,0.211,0.108,0.286,0.188c0.074,0.078,0.137,0.171,0.181,0.273
			c0.044,0.105,0.078,0.219,0.102,0.334c0.022,0.117,0.038,0.236,0.044,0.359c0.008,0.123,0.01,0.242,0.01,0.355
			s-0.003,0.23-0.01,0.354c-0.006,0.123-0.021,0.243-0.044,0.36c-0.021,0.117-0.058,0.229-0.102,0.331s-0.104,0.194-0.181,0.272
			c-0.075,0.078-0.172,0.144-0.284,0.188c-0.114,0.045-0.253,0.067-0.417,0.067c-0.161,0-0.301-0.022-0.414-0.067
			c-0.115-0.046-0.212-0.108-0.287-0.188c-0.076-0.078-0.138-0.171-0.182-0.272c-0.045-0.104-0.076-0.214-0.102-0.331
			c-0.023-0.117-0.038-0.237-0.044-0.36s-0.009-0.241-0.009-0.354S697.745,346.463,697.751,346.34z M698.146,347.084
			c0.009,0.146,0.03,0.281,0.07,0.408c0.039,0.127,0.104,0.234,0.19,0.322s0.211,0.131,0.367,0.131c0.157,0,0.28-0.043,0.368-0.131
			c0.089-0.088,0.151-0.195,0.19-0.322c0.04-0.127,0.062-0.264,0.07-0.408c0.007-0.145,0.011-0.275,0.011-0.393
			c0-0.076-0.001-0.16-0.002-0.252c-0.002-0.094-0.009-0.187-0.021-0.276c-0.014-0.093-0.032-0.183-0.058-0.271
			c-0.025-0.09-0.062-0.164-0.109-0.23c-0.049-0.064-0.107-0.119-0.183-0.16s-0.162-0.062-0.268-0.062
			c-0.106,0-0.194,0.021-0.27,0.062s-0.134,0.096-0.182,0.16c-0.05,0.066-0.085,0.143-0.109,0.23
			c-0.023,0.086-0.044,0.178-0.058,0.271c-0.015,0.092-0.021,0.185-0.022,0.276s-0.002,0.176-0.002,0.252
			C698.137,346.809,698.141,346.939,698.146,347.084z"/>
		<path d="M700.438,345.662c0.022-0.105,0.062-0.201,0.117-0.283c0.058-0.081,0.129-0.146,0.22-0.193
			c0.092-0.049,0.202-0.071,0.339-0.071c0.138,0,0.251,0.022,0.341,0.067c0.089,0.047,0.161,0.11,0.214,0.189
			c0.055,0.078,0.093,0.171,0.115,0.277c0.021,0.105,0.031,0.221,0.031,0.341c0,0.114-0.014,0.225-0.036,0.331
			c-0.024,0.104-0.065,0.199-0.123,0.281c-0.059,0.078-0.131,0.146-0.218,0.193c-0.089,0.051-0.195,0.074-0.324,0.074
			c-0.133,0-0.243-0.021-0.333-0.066c-0.093-0.047-0.163-0.106-0.222-0.188c-0.055-0.079-0.096-0.172-0.119-0.277
			c-0.024-0.104-0.037-0.218-0.037-0.338C700.4,345.883,700.412,345.77,700.438,345.662z M700.741,346.202
			c0.007,0.073,0.022,0.144,0.05,0.206c0.026,0.062,0.064,0.115,0.112,0.156c0.048,0.043,0.111,0.063,0.193,0.063
			c0.086,0,0.151-0.021,0.201-0.062s0.089-0.092,0.117-0.154c0.027-0.062,0.046-0.133,0.055-0.209
			c0.011-0.076,0.015-0.146,0.015-0.215c0-0.064-0.005-0.135-0.013-0.209c-0.007-0.074-0.022-0.145-0.051-0.207
			c-0.025-0.062-0.062-0.114-0.111-0.156c-0.049-0.043-0.112-0.062-0.198-0.062c-0.082,0-0.147,0.021-0.197,0.062
			s-0.088,0.095-0.116,0.156c-0.026,0.062-0.046,0.133-0.055,0.207s-0.016,0.146-0.016,0.213
			C700.729,346.059,700.732,346.128,700.741,346.202z M703.556,345.011l-2.354,3.291h-0.377l2.358-3.291H703.556z M702.604,347.066
			c0.023-0.106,0.062-0.201,0.118-0.283c0.058-0.082,0.13-0.146,0.221-0.195c0.092-0.048,0.202-0.072,0.339-0.072
			c0.138,0,0.25,0.023,0.34,0.07c0.089,0.047,0.161,0.109,0.215,0.188c0.055,0.08,0.092,0.174,0.114,0.279
			c0.021,0.106,0.033,0.221,0.033,0.34c0,0.113-0.015,0.226-0.038,0.332c-0.024,0.105-0.065,0.199-0.123,0.28
			c-0.059,0.08-0.129,0.146-0.219,0.192c-0.088,0.049-0.194,0.072-0.322,0.072c-0.132,0-0.243-0.022-0.334-0.067
			s-0.164-0.106-0.221-0.185c-0.056-0.08-0.096-0.17-0.119-0.274c-0.024-0.104-0.037-0.218-0.037-0.338
			S702.58,347.173,702.604,347.066z M702.908,347.605c0.008,0.074,0.022,0.145,0.051,0.207c0.027,0.062,0.062,0.113,0.111,0.155
			c0.049,0.044,0.112,0.063,0.194,0.063c0.084,0,0.151-0.021,0.201-0.062c0.052-0.039,0.088-0.092,0.116-0.154
			c0.027-0.062,0.046-0.131,0.055-0.207c0.01-0.076,0.016-0.147,0.016-0.215c0-0.064-0.004-0.136-0.014-0.209
			c-0.007-0.074-0.021-0.146-0.05-0.207c-0.026-0.062-0.062-0.115-0.11-0.156c-0.05-0.043-0.115-0.064-0.199-0.064
			c-0.082,0-0.147,0.021-0.197,0.064c-0.05,0.041-0.089,0.095-0.117,0.156c-0.026,0.062-0.046,0.133-0.055,0.207
			c-0.008,0.073-0.014,0.146-0.014,0.213C702.896,347.462,702.901,347.531,702.908,347.605z"/>
		<path d="M653.847,348.284c-0.154,0-0.299-0.022-0.432-0.066c-0.134-0.044-0.248-0.106-0.345-0.188
			c-0.098-0.084-0.172-0.188-0.228-0.307c-0.054-0.119-0.081-0.255-0.081-0.402c0-0.192,0.051-0.354,0.149-0.486
			c0.102-0.132,0.226-0.221,0.408-0.264v-0.01c-0.185-0.054-0.245-0.135-0.32-0.244c-0.074-0.108-0.111-0.237-0.111-0.389
			c0-0.264,0.083-0.469,0.249-0.615c0.165-0.146,0.401-0.223,0.708-0.223c0.31,0,0.544,0.074,0.709,0.223
			c0.165,0.147,0.248,0.354,0.248,0.615c0,0.149-0.013,0.278-0.087,0.389c-0.073,0.109-0.299,0.19-0.299,0.244v0.01
			c0.185,0.043,0.285,0.132,0.387,0.264c0.103,0.132,0.141,0.294,0.141,0.486c0,0.147-0.033,0.283-0.088,0.402
			c-0.056,0.119-0.134,0.223-0.229,0.307c-0.096,0.082-0.213,0.146-0.346,0.188C654.146,348.262,654.003,348.284,653.847,348.284z
			 M653.847,347.889c0.168,0,0.309-0.05,0.417-0.146c0.111-0.102,0.167-0.24,0.167-0.422c0-0.17-0.056-0.303-0.167-0.396
			c-0.108-0.095-0.249-0.143-0.417-0.143c-0.166,0-0.306,0.048-0.417,0.143c-0.108,0.096-0.166,0.229-0.166,0.396
			c0,0.182,0.058,0.32,0.166,0.422C653.541,347.839,653.681,347.889,653.847,347.889z M653.847,345.484
			c-0.134,0-0.248,0.041-0.342,0.121s-0.141,0.194-0.141,0.349c0,0.146,0.046,0.258,0.136,0.336
			c0.091,0.077,0.207,0.116,0.347,0.116c0.143,0,0.257-0.039,0.35-0.116c0.09-0.078,0.135-0.188,0.135-0.336
			c0-0.152-0.046-0.269-0.141-0.349S653.98,345.484,653.847,345.484z"/>
		<path d="M655.333,345.925h0.731v0.731h-0.731V345.925z M655.333,347.57h0.731v0.729h-0.731V347.57z"/>
		<path d="M657.561,345.09c0.22,0,0.396,0.051,0.535,0.151c0.142,0.101,0.248,0.229,0.325,0.386c0.077,0.157,0.13,0.329,0.158,0.516
			c0.026,0.188,0.042,0.369,0.042,0.545c0,0.178-0.016,0.356-0.042,0.545c-0.028,0.188-0.081,0.357-0.158,0.516
			s-0.186,0.285-0.325,0.386c-0.139,0.103-0.315,0.152-0.535,0.152c-0.221,0-0.398-0.052-0.539-0.152
			c-0.14-0.101-0.245-0.229-0.323-0.386c-0.077-0.156-0.131-0.328-0.157-0.516c-0.028-0.188-0.042-0.367-0.042-0.545
			c0-0.176,0.014-0.355,0.042-0.545c0.026-0.187,0.08-0.357,0.157-0.516c0.078-0.156,0.186-0.285,0.323-0.386
			C657.16,345.141,657.34,345.09,657.561,345.09z M657.561,347.867c0.106,0,0.197-0.031,0.271-0.096
			c0.073-0.062,0.131-0.146,0.173-0.254c0.043-0.106,0.072-0.231,0.09-0.375c0.02-0.145,0.026-0.297,0.026-0.457
			s-0.009-0.312-0.026-0.453c-0.018-0.144-0.047-0.269-0.09-0.375c-0.042-0.107-0.1-0.193-0.173-0.256
			c-0.073-0.063-0.164-0.097-0.271-0.097c-0.111,0-0.202,0.031-0.274,0.097c-0.071,0.062-0.129,0.146-0.171,0.256
			c-0.042,0.106-0.072,0.231-0.092,0.375c-0.018,0.143-0.024,0.293-0.024,0.453s0.009,0.312,0.024,0.457
			c0.02,0.144,0.05,0.269,0.092,0.375c0.042,0.105,0.1,0.19,0.171,0.254C657.355,347.836,657.447,347.867,657.561,347.867z"/>
		<path d="M660.021,348.284c-0.155,0-0.302-0.022-0.435-0.066s-0.248-0.106-0.345-0.188c-0.098-0.084-0.171-0.188-0.227-0.307
			s-0.082-0.255-0.082-0.402c0-0.192,0.07-0.354,0.173-0.486c0.101-0.132,0.245-0.221,0.43-0.264v-0.01
			c-0.185-0.054-0.269-0.135-0.342-0.244c-0.075-0.108-0.121-0.237-0.121-0.389c0-0.264,0.077-0.469,0.242-0.615
			s0.397-0.223,0.706-0.223c0.308,0,0.542,0.074,0.708,0.223c0.163,0.146,0.245,0.354,0.245,0.615c0,0.149-0.082,0.278-0.156,0.389
			c-0.074,0.109-0.188,0.19-0.368,0.244v0.01c0.183,0.043,0.354,0.132,0.456,0.264c0.1,0.132,0.174,0.294,0.174,0.486
			c0,0.147-0.016,0.283-0.069,0.402c-0.055,0.119-0.123,0.223-0.221,0.307c-0.097,0.082-0.209,0.146-0.342,0.188
			S660.176,348.284,660.021,348.284z M660.021,347.889c0.166,0,0.306-0.05,0.416-0.146c0.109-0.102,0.166-0.24,0.166-0.422
			c0-0.17-0.057-0.303-0.166-0.396c-0.11-0.094-0.25-0.143-0.416-0.143c-0.169,0-0.309,0.048-0.419,0.143
			c-0.109,0.096-0.166,0.229-0.166,0.396c0,0.182,0.057,0.32,0.166,0.422C659.714,347.839,659.854,347.889,660.021,347.889z
			 M660.021,345.484c-0.137,0-0.25,0.041-0.345,0.121c-0.094,0.08-0.14,0.194-0.14,0.349c0,0.146,0.045,0.258,0.136,0.336
			c0.09,0.077,0.206,0.116,0.349,0.116c0.14,0,0.256-0.039,0.347-0.116c0.09-0.078,0.136-0.188,0.136-0.336
			c0-0.152-0.047-0.269-0.141-0.349C660.269,345.525,660.154,345.484,660.021,345.484z"/>
		<path d="M663.679,345.011h0.584l1.206,3.291h-0.588l-0.293-0.913h-1.251l-0.294,0.913h-0.566L663.679,345.011z M663.486,347.021
			h0.956l-0.471-1.463h-0.014L663.486,347.021z"/>
		<path d="M665.752,345.011h0.807l0.863,2.562h0.008l0.845-2.562h0.771v3.291h-0.548v-2.56h0.01l-0.867,2.56h-0.452l-0.868-2.56
			h-0.017v2.56h-0.549L665.752,345.011L665.752,345.011z"/>
		<g>
			<path fill="#505050" d="M634.979,355.432h1.096l1.037,1.752l1.03-1.752h1.087l-1.628,2.733v1.653h-0.913v-1.678L634.979,355.432z
				"/>
			<path fill="#505050" d="M638.838,357.564c0.078-0.209,0.19-0.388,0.336-0.533c0.146-0.147,0.318-0.262,0.521-0.342
				c0.203-0.082,0.431-0.121,0.684-0.121s0.482,0.039,0.688,0.121c0.205,0.08,0.381,0.192,0.524,0.342
				c0.146,0.146,0.256,0.324,0.335,0.533s0.118,0.441,0.118,0.699s-0.039,0.488-0.118,0.695s-0.188,0.384-0.335,0.531
				c-0.146,0.146-0.319,0.261-0.524,0.339c-0.204,0.078-0.436,0.118-0.688,0.118s-0.479-0.04-0.684-0.118s-0.377-0.19-0.521-0.339
				c-0.146-0.147-0.258-0.324-0.336-0.531c-0.079-0.207-0.118-0.438-0.118-0.695C638.72,358.007,638.759,357.773,638.838,357.564z
				 M639.64,358.641c0.024,0.123,0.066,0.232,0.128,0.33s0.141,0.176,0.238,0.232c0.1,0.059,0.225,0.087,0.373,0.087
				c0.149,0,0.274-0.028,0.376-0.087c0.104-0.059,0.183-0.137,0.243-0.232c0.06-0.098,0.104-0.207,0.127-0.33
				c0.025-0.121,0.037-0.246,0.037-0.375s-0.012-0.256-0.037-0.38c-0.023-0.124-0.067-0.233-0.127-0.329
				c-0.062-0.096-0.141-0.173-0.243-0.231c-0.102-0.062-0.227-0.091-0.376-0.091c-0.148,0-0.273,0.029-0.373,0.091
				c-0.1,0.061-0.179,0.138-0.238,0.231c-0.062,0.096-0.104,0.205-0.128,0.329c-0.022,0.124-0.036,0.251-0.036,0.38
				S639.615,358.52,639.64,358.641z"/>
			<path fill="#505050" d="M644.729,359.818v-0.366h0.046c-0.112,0.183-0.259,0.306-0.438,0.389
				c-0.178,0.082-0.36,0.116-0.547,0.116c-0.236,0-0.43-0.035-0.581-0.098c-0.15-0.062-0.271-0.152-0.357-0.268
				s-0.188-0.254-0.224-0.417c-0.035-0.163-0.093-0.347-0.093-0.545v-1.922h0.914v1.76c0,0.267,0.064,0.466,0.146,0.595
				c0.083,0.131,0.243,0.195,0.454,0.195c0.24,0,0.411-0.07,0.521-0.215c0.105-0.145,0.157-0.378,0.157-0.706v-1.629h0.914v3.108
				L644.729,359.818L644.729,359.818z"/>
			<path fill="#505050" d="M647.105,356.71v0.549h0.048c0.042-0.183,0.098-0.194,0.168-0.28c0.068-0.084,0.149-0.158,0.243-0.219
				c0.091-0.061,0.188-0.107,0.291-0.142c0.104-0.032,0.219-0.05,0.329-0.05c0.06,0,0.199,0.01,0.199,0.029v0.82
				c0-0.009-0.099-0.016-0.156-0.021c-0.058-0.008-0.115-0.01-0.171-0.01c-0.161,0-0.3,0.026-0.411,0.08
				c-0.11,0.055-0.202,0.127-0.271,0.221c-0.068,0.095-0.157,0.201-0.186,0.326c-0.029,0.125-0.084,0.26-0.084,0.403v1.397h-0.73
				v-3.107L647.105,356.71L647.105,356.71z"/>
			<path fill="#505050" d="M653.688,355.432v0.73h-2.192v1.097h1.828v0.731h-1.828v1.828h-0.914v-4.39L653.688,355.432
				L653.688,355.432z"/>
			<path fill="#505050" d="M655.148,355.432v4.389h-0.913v-4.389H655.148z"/>
			<path fill="#505050" d="M658.906,356.602c-0.06-0.095-0.13-0.168-0.217-0.238c-0.089-0.07-0.188-0.121-0.298-0.161
				c-0.107-0.039-0.225-0.058-0.345-0.058c-0.22,0-0.405,0.043-0.559,0.127c-0.154,0.086-0.278,0.201-0.374,0.345
				c-0.097,0.143-0.164,0.306-0.208,0.487c-0.044,0.183-0.065,0.371-0.065,0.564c0,0.188,0.021,0.368,0.065,0.544
				c0.044,0.177,0.111,0.335,0.208,0.476c0.096,0.143,0.22,0.254,0.374,0.34c0.15,0.086,0.339,0.128,0.559,0.128
				c0.299,0,0.531-0.085,0.699-0.269c0.168-0.182,0.271-0.348,0.308-0.714H660c-0.025,0.183-0.09,0.521-0.193,0.745
				c-0.103,0.225-0.238,0.411-0.409,0.568c-0.171,0.158-0.367,0.275-0.598,0.357c-0.228,0.082-0.479,0.123-0.752,0.123
				c-0.34,0-0.646-0.06-0.917-0.178c-0.271-0.118-0.5-0.281-0.687-0.487c-0.188-0.208-0.329-0.45-0.431-0.729
				c-0.1-0.279-0.147-0.581-0.147-0.904c0-0.331,0.05-0.639,0.147-0.923c0.102-0.283,0.242-0.531,0.431-0.743
				c0.187-0.211,0.415-0.376,0.687-0.497c0.271-0.12,0.577-0.18,0.917-0.18c0.245,0,0.478,0.034,0.693,0.104
				c0.217,0.069,0.412,0.174,0.584,0.309s0.312,0.287,0.426,0.484c0.112,0.198,0.183,0.485,0.212,0.67h-0.945
				C659.002,356.895,658.965,356.693,658.906,356.602z"/>
			<path fill="#505050" d="M660.622,356.745c0.1-0.283,0.242-0.531,0.429-0.743c0.188-0.211,0.416-0.376,0.688-0.497
				c0.271-0.12,0.575-0.18,0.916-0.18c0.344,0,0.648,0.06,0.92,0.18c0.27,0.121,0.497,0.286,0.684,0.497
				c0.188,0.212,0.33,0.46,0.43,0.743c0.101,0.284,0.148,0.592,0.148,0.923c0,0.323-0.05,0.625-0.148,0.904
				c-0.1,0.279-0.241,0.521-0.43,0.729c-0.187,0.207-0.414,0.37-0.684,0.488c-0.271,0.118-0.576,0.177-0.92,0.177
				c-0.341,0-0.646-0.059-0.916-0.177c-0.271-0.118-0.501-0.281-0.688-0.488c-0.187-0.207-0.329-0.449-0.429-0.729
				c-0.101-0.279-0.149-0.581-0.149-0.904C660.473,357.337,660.521,357.029,660.622,356.745z M661.514,358.212
				c0.044,0.177,0.113,0.335,0.209,0.476c0.097,0.143,0.22,0.254,0.372,0.34c0.154,0.086,0.341,0.128,0.562,0.128
				c0.22,0,0.404-0.042,0.56-0.128c0.154-0.086,0.277-0.197,0.373-0.34c0.096-0.141,0.165-0.299,0.208-0.476
				c0.044-0.176,0.065-0.356,0.065-0.544c0-0.193-0.021-0.383-0.065-0.564c-0.043-0.184-0.112-0.346-0.208-0.487
				c-0.096-0.144-0.22-0.259-0.373-0.343c-0.151-0.084-0.34-0.127-0.56-0.127c-0.221,0-0.405,0.043-0.562,0.127
				c-0.152,0.084-0.275,0.199-0.372,0.343c-0.096,0.144-0.165,0.306-0.209,0.487c-0.043,0.184-0.062,0.371-0.062,0.564
				C661.449,357.854,661.471,358.036,661.514,358.212z"/>
			<path fill="#505050" d="M665.244,355.943c0.076-0.168,0.179-0.311,0.307-0.426c0.128-0.117,0.275-0.209,0.443-0.271
				s0.344-0.096,0.527-0.096c0.183,0,0.357,0.031,0.525,0.096s0.315,0.154,0.444,0.271c0.128,0.115,0.229,0.258,0.306,0.426
				c0.077,0.166,0.114,0.353,0.114,0.558c0,0.208-0.038,0.396-0.114,0.562s-0.178,0.312-0.306,0.43
				c-0.129,0.117-0.276,0.208-0.444,0.271c-0.168,0.062-0.344,0.094-0.525,0.094c-0.185,0-0.359-0.03-0.527-0.094
				c-0.168-0.062-0.315-0.152-0.443-0.271s-0.229-0.262-0.307-0.43c-0.077-0.166-0.113-0.354-0.113-0.562
				C665.131,356.296,665.168,356.109,665.244,355.943z M665.58,356.93c0.053,0.131,0.125,0.243,0.218,0.338
				c0.091,0.098,0.199,0.17,0.323,0.226c0.125,0.053,0.259,0.079,0.4,0.079c0.141,0,0.271-0.026,0.396-0.079
				c0.125-0.056,0.233-0.128,0.325-0.226c0.091-0.095,0.165-0.207,0.219-0.338c0.055-0.132,0.082-0.271,0.082-0.429
				c0-0.153-0.027-0.296-0.082-0.426c-0.054-0.128-0.128-0.24-0.219-0.335c-0.092-0.094-0.2-0.168-0.325-0.221
				c-0.124-0.055-0.256-0.08-0.396-0.08c-0.144,0-0.275,0.025-0.4,0.08c-0.124,0.053-0.232,0.127-0.323,0.221
				c-0.093,0.095-0.165,0.207-0.218,0.335c-0.054,0.13-0.08,0.271-0.08,0.426S665.526,356.798,665.58,356.93z M666.555,355.796
				c0.19,0,0.338,0.006,0.439,0.073c0.103,0.068,0.154,0.171,0.154,0.335c0,0.069-0.012,0.123-0.03,0.173
				c-0.021,0.049-0.049,0.086-0.085,0.117c-0.037,0.031-0.079,0.054-0.127,0.07c-0.049,0.018-0.103,0.025-0.156,0.031l0.406,0.661
				h-0.315l-0.37-0.729h-0.17v0.729h-0.366v-1.463L666.555,355.796L666.555,355.796z M666.551,356.346
				c0.087,0,0.158,0.002,0.214-0.021c0.058-0.024,0.083-0.074,0.083-0.167c0-0.04-0.01-0.069-0.026-0.093
				c-0.021-0.024-0.045-0.043-0.075-0.057c-0.029-0.014-0.063-0.021-0.102-0.023c-0.038-0.006-0.072-0.006-0.106-0.006h-0.235v0.365
				h0.248V356.346z"/>
			<path fill="#505050" d="M670.873,358.755c0.055,0.103,0.126,0.197,0.215,0.263c0.089,0.062,0.193,0.115,0.314,0.146
				c0.119,0.031,0.244,0.049,0.373,0.049c0.086,0,0.18-0.006,0.277-0.021c0.102-0.014,0.193-0.039,0.28-0.082
				s0.158-0.098,0.217-0.17c0.061-0.072,0.087-0.166,0.087-0.276c0-0.119-0.038-0.218-0.113-0.291
				c-0.076-0.075-0.179-0.138-0.303-0.188c-0.124-0.05-0.266-0.094-0.422-0.131c-0.159-0.037-0.316-0.078-0.479-0.125
				c-0.166-0.041-0.327-0.092-0.485-0.152c-0.156-0.06-0.298-0.137-0.422-0.23c-0.125-0.096-0.228-0.215-0.302-0.355
				c-0.077-0.145-0.114-0.316-0.114-0.521c0-0.229,0.048-0.426,0.146-0.595c0.099-0.167,0.226-0.309,0.383-0.419
				c0.156-0.111,0.336-0.195,0.533-0.248c0.199-0.056,0.397-0.081,0.599-0.081c0.23,0,0.454,0.023,0.668,0.076
				s0.401,0.138,0.567,0.253c0.166,0.114,0.298,0.241,0.396,0.423c0.098,0.18,0.146,0.45,0.146,0.633h-0.943
				c-0.008,0-0.036-0.22-0.083-0.309c-0.048-0.086-0.111-0.145-0.19-0.192c-0.078-0.05-0.168-0.079-0.27-0.101
				c-0.104-0.021-0.213-0.028-0.333-0.028c-0.078,0-0.157,0.01-0.236,0.026c-0.078,0.017-0.147,0.046-0.215,0.088
				c-0.063,0.042-0.116,0.094-0.158,0.154c-0.041,0.062-0.062,0.143-0.062,0.235c0,0.088,0.018,0.158,0.051,0.212
				c0.031,0.055,0.098,0.104,0.195,0.149c0.098,0.045,0.23,0.091,0.402,0.137c0.172,0.045,0.396,0.104,0.674,0.174
				c0.083,0.017,0.198,0.048,0.348,0.091c0.146,0.043,0.293,0.112,0.438,0.209c0.146,0.094,0.271,0.224,0.375,0.381
				c0.106,0.16,0.159,0.363,0.159,0.612c0,0.203-0.04,0.392-0.118,0.565c-0.079,0.174-0.194,0.324-0.352,0.449
				c-0.155,0.127-0.35,0.227-0.577,0.297c-0.23,0.068-0.497,0.104-0.8,0.104c-0.244,0-0.481-0.029-0.713-0.09
				c-0.229-0.062-0.434-0.154-0.607-0.283c-0.176-0.128-0.314-0.312-0.419-0.511c-0.104-0.198-0.154-0.362-0.149-0.729h0.944
				C670.793,358.539,670.82,358.65,670.873,358.755z"/>
			<path fill="#505050" d="M675.604,357.244c-0.141,0-0.259,0.025-0.354,0.091c-0.095,0.063-0.173,0.146-0.232,0.245
				c-0.061,0.102-0.104,0.213-0.128,0.335c-0.023,0.122-0.036,0.243-0.036,0.362c0,0.117,0.013,0.232,0.036,0.354
				c0.024,0.121,0.065,0.229,0.122,0.326c0.058,0.097,0.131,0.177,0.228,0.238c0.096,0.062,0.212,0.094,0.349,0.094
				c0.212,0,0.374-0.018,0.487-0.135c0.112-0.118,0.186-0.252,0.215-0.437h0.852c-0.058,0.366-0.224,0.711-0.495,0.937
				c-0.273,0.224-0.625,0.313-1.053,0.313c-0.238,0-0.461-0.052-0.661-0.133c-0.2-0.08-0.372-0.198-0.514-0.344
				c-0.141-0.146-0.251-0.32-0.329-0.521c-0.079-0.198-0.118-0.423-0.118-0.661c0-0.248,0.036-0.48,0.109-0.693
				c0.072-0.215,0.179-0.398,0.319-0.555c0.142-0.154,0.312-0.275,0.516-0.362s0.438-0.132,0.696-0.132
				c0.189,0,0.374,0.023,0.551,0.074c0.176,0.051,0.334,0.127,0.473,0.228c0.141,0.103,0.251,0.237,0.339,0.39
				c0.088,0.151,0.138,0.365,0.148,0.549h-0.864C676.198,357.441,675.98,357.244,675.604,357.244z"/>
			<path fill="#505050" d="M677.654,357.564c0.078-0.209,0.188-0.388,0.336-0.533c0.146-0.147,0.317-0.262,0.521-0.342
				c0.204-0.082,0.434-0.121,0.687-0.121c0.252,0,0.479,0.039,0.687,0.121c0.206,0.08,0.38,0.192,0.525,0.342
				c0.145,0.146,0.257,0.324,0.336,0.533c0.078,0.209,0.118,0.441,0.118,0.699s-0.04,0.488-0.118,0.695
				c-0.079,0.207-0.191,0.384-0.336,0.531c-0.146,0.146-0.32,0.261-0.525,0.339s-0.435,0.118-0.687,0.118
				c-0.253,0-0.48-0.04-0.687-0.118c-0.202-0.078-0.376-0.19-0.521-0.339c-0.146-0.148-0.258-0.324-0.336-0.531
				c-0.079-0.207-0.118-0.438-0.118-0.695C677.536,358.007,677.575,357.773,677.654,357.564z M678.456,358.641
				c0.024,0.123,0.067,0.232,0.128,0.33s0.14,0.176,0.239,0.232c0.1,0.059,0.224,0.087,0.373,0.087c0.147,0,0.272-0.028,0.375-0.087
				s0.183-0.137,0.243-0.232c0.06-0.098,0.103-0.207,0.127-0.33c0.023-0.121,0.036-0.246,0.036-0.375s-0.013-0.256-0.036-0.38
				c-0.024-0.124-0.067-0.233-0.127-0.329c-0.062-0.096-0.143-0.173-0.243-0.231c-0.103-0.062-0.228-0.091-0.375-0.091
				c-0.149,0-0.273,0.029-0.373,0.091c-0.102,0.061-0.18,0.138-0.239,0.231c-0.061,0.096-0.104,0.205-0.128,0.329
				s-0.037,0.251-0.037,0.38S678.432,358.52,678.456,358.641z"/>
			<path fill="#505050" d="M682.205,356.71v0.549h0.079c0.042-0.183,0.098-0.194,0.169-0.28c0.07-0.084,0.15-0.158,0.242-0.219
				c0.091-0.061,0.188-0.107,0.292-0.142c0.104-0.032,0.202-0.05,0.312-0.05c0.061,0,0.186,0.01,0.186,0.029v0.82
				c0-0.009-0.081-0.016-0.143-0.021c-0.058-0.008-0.106-0.01-0.162-0.01c-0.161,0-0.296,0.026-0.406,0.08
				c-0.111,0.055-0.2,0.127-0.271,0.221c-0.067,0.095-0.08,0.201-0.107,0.326c-0.029,0.125-0.009,0.26-0.009,0.403v1.397h-0.914
				v-3.107L682.205,356.71L682.205,356.71z"/>
			<path fill="#505050" d="M684.686,359.129c0.134,0.129,0.322,0.178,0.57,0.178c0.178,0,0.332-0.037,0.46-0.127
				c0.129-0.089,0.207-0.275,0.236-0.275h0.776c-0.125,0.365-0.314,0.646-0.571,0.812s-0.567,0.241-0.934,0.241
				c-0.254,0-0.479-0.044-0.685-0.125s-0.375-0.198-0.516-0.347c-0.143-0.149-0.25-0.328-0.326-0.536
				c-0.077-0.207-0.115-0.437-0.115-0.685c0-0.24,0.039-0.466,0.118-0.673c0.079-0.206,0.188-0.387,0.335-0.538
				c0.146-0.148,0.317-0.27,0.521-0.354c0.201-0.086,0.425-0.132,0.669-0.132c0.271,0,0.512,0.054,0.715,0.158
				s0.369,0.248,0.501,0.426c0.13,0.18,0.225,0.412,0.281,0.641c0.059,0.229,0.078,0.381,0.062,0.747h-2.318
				C684.479,358.721,684.552,359,684.686,359.129z M685.682,357.443c-0.104-0.116-0.267-0.191-0.479-0.191
				c-0.144,0-0.259,0.014-0.354,0.062c-0.093,0.047-0.168,0.103-0.224,0.172c-0.056,0.07-0.095,0.181-0.118,0.259
				c-0.021,0.079-0.036,0.063-0.04,0.246h1.438C685.861,357.624,685.787,357.561,685.682,357.443z"/>
		</g>
		<rect x="602.502" y="366.582" fill="#B1B1B1" width="116.995" height="0.184"/>
		<rect x="602.502" y="474.071" fill="#B1B1B1" width="116.995" height="0.183"/>
		<rect x="602.502" y="522.496" fill="#B1B1B1" width="116.995" height="0.184"/>
		<g>
			<path fill="#650360" d="M610.2,355.979c0.084,0,0.174,0.002,0.271,0.004c0.099,0.002,0.192,0.009,0.287,0.018
				c0.096,0.01,0.187,0.021,0.269,0.042c0.082,0.019,0.15,0.045,0.211,0.081c0.128,0.077,0.234,0.184,0.325,0.316
				c0.091,0.138,0.136,0.304,0.136,0.5c0,0.207-0.062,0.39-0.162,0.541c-0.103,0.15-0.259,0.265-0.441,0.336v0.013
				c0.185,0.051,0.438,0.161,0.564,0.329c0.129,0.168,0.198,0.373,0.198,0.613c0,0.144-0.023,0.28-0.074,0.416
				c-0.051,0.138-0.126,0.256-0.229,0.359c-0.101,0.104-0.224,0.148-0.371,0.214c-0.147,0.063-0.317,0.058-0.513,0.058h-1.955v-3.84
				H610.2L610.2,355.979z M610.343,357.624c0.296,0,0.509-0.032,0.639-0.138c0.132-0.104,0.194-0.25,0.194-0.459
				c0-0.139-0.021-0.243-0.063-0.324c-0.044-0.08-0.104-0.141-0.183-0.184c-0.076-0.045-0.166-0.107-0.267-0.121
				c-0.102-0.014-0.207-0.056-0.32-0.056h-1.077v1.279L610.343,357.624L610.343,357.624z M610.605,359.452
				c0.229,0,0.409-0.06,0.538-0.185c0.132-0.125,0.195-0.297,0.195-0.517c0-0.128-0.022-0.231-0.07-0.315
				c-0.049-0.084-0.109-0.15-0.188-0.199c-0.079-0.051-0.169-0.049-0.271-0.069c-0.102-0.021-0.208,0.006-0.316,0.006h-1.227v1.279
				H610.605z"/>
			<path fill="#650360" d="M614.617,359.955c-0.12,0-0.207-0.034-0.278-0.102c-0.071-0.068-0.103-0.18-0.103-0.332
				c-0.129,0.152-0.274,0.265-0.444,0.332c-0.169,0.065-0.353,0.102-0.55,0.102c-0.128,0-0.248-0.014-0.361-0.041
				s-0.213-0.073-0.299-0.139c-0.086-0.062-0.153-0.146-0.202-0.246c-0.05-0.102-0.074-0.223-0.074-0.364
				c0-0.161,0.028-0.292,0.082-0.396c0.057-0.104,0.127-0.187,0.218-0.248c0.091-0.064,0.191-0.113,0.309-0.146
				c0.114-0.033,0.23-0.061,0.354-0.083c0.128-0.024,0.249-0.045,0.365-0.058c0.115-0.014,0.216-0.031,0.304-0.057
				c0.089-0.023,0.157-0.058,0.208-0.104c0.054-0.047,0.077-0.112,0.077-0.2c0-0.104-0.019-0.187-0.058-0.247
				c-0.038-0.062-0.088-0.107-0.148-0.145c-0.06-0.032-0.127-0.056-0.201-0.063c-0.074-0.012-0.148-0.017-0.224-0.017
				c-0.197,0-0.361,0.061-0.493,0.136s-0.202,0.267-0.214,0.448h-0.467c0.008-0.184,0.044-0.348,0.11-0.469
				c0.063-0.121,0.151-0.229,0.263-0.306c0.109-0.075,0.236-0.135,0.379-0.168c0.144-0.033,0.292-0.053,0.45-0.053
				c0.127,0,0.254,0.008,0.38,0.026c0.127,0.019,0.241,0.055,0.343,0.109c0.104,0.059,0.221,0.136,0.281,0.239
				c0.062,0.102,0.129,0.233,0.129,0.397v1.459c0,0.109-0.028,0.19-0.016,0.241c0.012,0.052,0.02,0.076,0.093,0.076
				c0.039,0,0.104-0.009,0.104-0.026v0.361C614.933,359.932,614.76,359.955,614.617,359.955z M613.979,358.525
				c-0.096,0.021-0.19,0.037-0.297,0.051c-0.104,0.013-0.207,0.027-0.312,0.044c-0.106,0.016-0.2,0.042-0.284,0.079
				c-0.085,0.035-0.151,0.089-0.206,0.156c-0.053,0.065-0.079,0.16-0.079,0.275c0,0.076,0.018,0.143,0.047,0.194
				c0.031,0.053,0.071,0.096,0.121,0.129c0.05,0.032,0.107,0.058,0.175,0.071c0.068,0.015,0.139,0.021,0.206,0.021
				c0.154,0,0.285-0.021,0.396-0.062c0.109-0.043,0.199-0.098,0.269-0.159c0.07-0.063,0.115-0.134,0.147-0.208
				c0.033-0.075,0.043-0.146,0.043-0.213v-0.479C614.201,358.475,614.072,358.507,613.979,358.525z"/>
			<path fill="#650360" d="M617.099,357.562c-0.115-0.101-0.271-0.152-0.472-0.152c-0.168,0-0.309,0.027-0.422,0.091
				c-0.113,0.062-0.204,0.144-0.271,0.245c-0.066,0.104-0.115,0.22-0.146,0.354c-0.029,0.133-0.044,0.271-0.044,0.414
				c0,0.131,0.016,0.26,0.047,0.385c0.031,0.123,0.08,0.233,0.145,0.33c0.066,0.099,0.152,0.176,0.26,0.233
				c0.104,0.058,0.23,0.087,0.379,0.087c0.229,0,0.41-0.037,0.54-0.158c0.13-0.119,0.21-0.304,0.237-0.485h0.479
				c-0.051,0.364-0.183,0.6-0.393,0.788c-0.211,0.189-0.497,0.273-0.858,0.273c-0.215,0-0.406-0.041-0.572-0.109
				s-0.306-0.172-0.417-0.299c-0.109-0.129-0.193-0.283-0.252-0.461c-0.058-0.177-0.086-0.371-0.086-0.584
				c0-0.212,0.028-0.41,0.083-0.596s0.138-0.346,0.249-0.482c0.112-0.138,0.252-0.244,0.42-0.322s0.363-0.117,0.587-0.117
				c0.161,0,0.312,0.02,0.452,0.059c0.141,0.037,0.266,0.098,0.373,0.178s0.196,0.191,0.267,0.313
				c0.069,0.122,0.112,0.265,0.132,0.446h-0.481C617.293,357.809,617.216,357.662,617.099,357.562z"/>
			<path fill="#650360" d="M618.771,355.979v2.32l1.363-1.223h0.625l-1.124,0.984l1.207,1.758h-0.593l-1.007-1.442l-0.476,0.444
				v0.998h-0.364v-3.84H618.771L618.771,355.979z"/>
		</g>
		<g>
			<path fill="#505050" d="M684.663,405.109c-0.003-2.636-2.636-2.697-2.636-2.697h-42.816c-2.634,0-2.632,2.697-2.632,2.697
				l0.021,26.873c0.005,2.633,2.638,2.603,2.638,2.603h42.815c2.636,0,2.633-2.603,2.633-2.603L684.663,405.109z M653.139,412.972
				l-6.588,13.389h-4.801l6.636-12.438v-0.177h-7.312v-3.656h12.063L653.139,412.972L653.139,412.972z M666.666,426.359h-12.064
				v-2.66l2.275-1.978c3.303-2.851,5.002-4.551,5.027-6.2c0-1.178-0.775-2.024-2.427-2.024c-1.352,0-2.575,0.675-3.477,1.325
				l-1.227-3.228c1.25-0.926,3.298-1.698,5.599-1.698c3.776,0,6.021,2.049,6.021,5.25c0,2.601-1.856,4.7-3.781,6.275l-1.616,1.25
				v0.029h5.667L666.666,426.359L666.666,426.359z M673.333,426.7c-2.226,0-4.075-0.525-5.103-1.15l0.852-3.384
				c0.7,0.35,2.326,0.968,3.875,0.968c1.602,0,2.651-0.59,2.651-1.739c0-1.324-1.375-1.98-2.876-1.98h-1.681v-3.29h1.604
				c1.124,0,2.549-0.275,2.549-1.398c0-0.825-0.776-1.303-2.177-1.303c-1.376,0-2.829,0.576-3.479,0.925l-0.854-3.224
				c1.023-0.626,3.089-1.228,5.341-1.228c3.601,0,5.704,1.802,5.704,4.128c0,1.726-1.009,3.051-3.021,3.75v0.05
				c2.013,0.325,3.521,1.773,3.521,3.852C680.24,424.674,677.534,426.7,673.333,426.7z"/>
			<polygon fill="#505050" points="695.915,392.175 695.915,391.991 696.829,391.991 696.829,392.175 696.464,392.175 
				696.464,393.089 696.281,393.089 696.281,392.175 			"/>
			<polygon fill="#505050" points="697.278,391.991 697.547,392.723 697.55,392.723 697.805,391.991 698.107,391.991 
				698.107,393.089 697.926,393.089 697.926,392.357 697.92,392.357 697.639,393.089 697.444,393.089 697.162,392.357 
				697.194,392.357 697.194,393.089 697.013,393.089 697.013,391.991 			"/>
			<path fill="#505050" d="M625.354,397.109h1.278v-4.569h1.463v-1.097h-4.204v1.097h1.464L625.354,397.109L625.354,397.109z
				 M628.277,397.109h1.277v-2.381c0-0.092,0.022-0.196,0.058-0.279c0.09-0.223,0.271-0.438,0.6-0.438
				c0.468,0,0.624,0.361,0.624,0.889v2.21h1.28v-2.351c0-1.208-0.592-1.758-1.391-1.758c-0.229,0-0.45-0.001-0.642,0.098
				c-0.197,0.1-0.354,0.17-0.485,0.354h-0.044v-2.193h-1.277V397.109L628.277,397.109z M636.416,395.465
				c0.018-0.183,0.041-0.261,0.041-0.475c0-0.995-0.493-1.997-1.792-1.997c-1.397,0-2.03,1.131-2.03,2.149
				c0,1.258,0.781,2.059,2.146,2.059c0.543,0,1.045-0.09,1.455-0.254l-0.164-0.849c-0.337,0.107-0.685,0.146-1.109,0.146
				c-0.584,0-1.093-0.233-1.135-0.782L636.416,395.465L636.416,395.465z M633.818,394.551c0.03-0.365,0.246-0.812,0.771-0.812
				c0.576,0,0.707,0.447,0.707,0.812H633.818z M638.061,396.915c0.306,0.164,0.772,0.288,1.3,0.288c1.149,0,1.741-0.562,1.741-1.309
				c-0.009-0.592-0.327-0.979-1.094-1.24c-0.494-0.174-0.647-0.271-0.647-0.461c0-0.205,0.173-0.328,0.477-0.328
				c0.346,0,0.69,0.132,0.871,0.23l0.222-0.863c-0.246-0.123-0.665-0.229-1.134-0.229c-0.995,0-1.636,0.565-1.636,1.322
				c-0.009,0.468,0.312,0.921,1.143,1.198c0.471,0.156,0.594,0.256,0.594,0.461c0,0.206-0.156,0.338-0.534,0.338
				c-0.37,0-0.849-0.164-1.077-0.305L638.061,396.915z M644.438,396.085c-0.188,0.082-0.418,0.131-0.714,0.131
				c-0.607,0-1.102-0.385-1.102-1.125c-0.009-0.657,0.419-1.127,1.076-1.127c0.329,0,0.551,0.058,0.698,0.124l0.195-0.929
				c-0.263-0.099-0.624-0.155-0.952-0.155c-1.496,0-2.302,0.96-2.302,2.137c0,1.268,0.829,2.062,2.129,2.062
				c0.478,0,0.896-0.091,1.117-0.189L644.438,396.085z M646.812,393.004c-1.289,0-2.146,0.829-2.146,2.129
				c0,1.298,0.904,2.07,2.079,2.07c1.077,0,2.12-0.675,2.12-2.146C648.868,393.85,648.047,393.004,646.812,393.004 M646.78,393.891
				c0.566,0,0.798,0.608,0.798,1.209c0,0.725-0.312,1.207-0.798,1.207c-0.533,0-0.821-0.517-0.821-1.207
				C645.959,394.507,646.181,393.891,646.78,393.891 M649.3,397.109h1.279v-2.035c0-0.1,0.021-0.197,0.037-0.28
				c0.082-0.385,0.42-0.632,0.88-0.632c0.14,0,0.181,0.016,0.363,0.041v-1.184c-0.185-0.018-0.168-0.023-0.283-0.023
				c-0.388,0-0.898,0.093-1.104,0.822h-0.032l-0.041-0.729h-1.075c0.016,0.183-0.021,0.735-0.021,1.327L649.3,397.109L649.3,397.109
				z M655.675,395.465c0.019-0.183,0.041-0.261,0.041-0.475c0-0.995-0.493-1.997-1.792-1.997c-1.396,0-2.029,1.131-2.029,2.149
				c0,1.258,0.78,2.059,2.146,2.059c0.543,0,1.044-0.09,1.455-0.254l-0.165-0.849c-0.337,0.107-0.682,0.146-1.109,0.146
				c-0.583,0-1.093-0.233-1.134-0.782L655.675,395.465L655.675,395.465z M653.078,394.551c0.031-0.365,0.246-0.812,0.771-0.812
				c0.575,0,0.706,0.447,0.706,0.812H653.078z M657.526,397.109h1.277v-5.851h-1.277V397.109z M663.072,395.465
				c0.017-0.183,0.041-0.261,0.041-0.475c0-0.995-0.492-1.997-1.791-1.997c-1.398,0-2.03,1.131-2.03,2.149
				c0,1.258,0.78,2.059,2.146,2.059c0.544,0,1.044-0.09,1.454-0.254l-0.163-0.849c-0.338,0.107-0.684,0.146-1.108,0.146
				c-0.584,0-1.094-0.233-1.135-0.782L663.072,395.465L663.072,395.465z M660.477,394.551c0.031-0.365,0.245-0.812,0.771-0.812
				c0.575,0,0.707,0.447,0.707,0.812H660.477z M663.559,397.109h1.28v-2.315c0-0.114,0.009-0.229,0.042-0.312
				c0.082-0.229,0.273-0.469,0.618-0.469c0.453,0,0.619,0.354,0.619,0.87v2.228h1.278v-2.383c0-1.185-0.62-1.729-1.442-1.729
				c-0.665,0-1.081,0.271-1.245,0.637h-0.023l-0.06-0.548h-1.085c0.018,0.365,0.018,0.785,0.018,1.286V397.109z M670.688,391.261
				v2.193h0.046c-0.182-0.365-0.566-0.451-1.061-0.451c-0.963,0-1.809,0.78-1.801,2.138c0,1.248,0.765,1.992,1.718,1.992
				c0.521,0,1.003-0.206,1.259-0.754h0.018l0.058,0.73h1.109c-0.019-0.365-0.064-0.745-0.064-1.196v-4.652H670.688z M670.688,395.32
				c0,0.105,0.022,0.197-0.002,0.287c-0.072,0.354-0.346,0.601-0.707,0.601c-0.519,0-0.849-0.428-0.849-1.108
				c0-0.633,0.301-1.144,0.867-1.144c0.387,0,0.629,0.278,0.702,0.616c0.009,0.064-0.012,0.156-0.012,0.222V395.32L670.688,395.32z
				 M676.266,395.465c0.019-0.183,0.041-0.261,0.041-0.475c0-0.995-0.491-1.997-1.792-1.997c-1.396,0-2.028,1.131-2.028,2.149
				c0,1.258,0.779,2.059,2.146,2.059c0.543,0,1.044-0.09,1.455-0.254l-0.164-0.849c-0.338,0.107-0.683,0.146-1.108,0.146
				c-0.584,0-1.095-0.233-1.136-0.782L676.266,395.465L676.266,395.465z M673.669,394.551c0.032-0.365,0.246-0.812,0.772-0.812
				c0.573,0,0.705,0.447,0.705,0.812H673.669z M676.721,397.109h1.28v-2.035c0-0.1,0.017-0.197,0.032-0.28
				c0.082-0.385,0.422-0.632,0.883-0.632c0.139,0,0.181,0.016,0.364,0.041v-1.184c-0.186-0.018-0.172-0.023-0.287-0.023
				c-0.386,0-0.903,0.093-1.107,0.822h-0.034l-0.038-0.729h-1.077c0.017,0.183-0.016,0.735-0.016,1.327V397.109L676.721,397.109z
				 M679.373,396.915c0.304,0.164,0.771,0.288,1.299,0.288c1.15,0,1.742-0.562,1.742-1.309c-0.008-0.592-0.328-0.979-1.093-1.24
				c-0.493-0.174-0.649-0.271-0.649-0.461c0-0.205,0.173-0.328,0.478-0.328c0.346,0,0.689,0.132,0.87,0.23l0.224-0.863
				c-0.246-0.123-0.666-0.229-1.135-0.229c-0.993,0-1.637,0.565-1.637,1.322c-0.008,0.468,0.312,0.921,1.145,1.198
				c0.468,0.156,0.591,0.256,0.591,0.461c0,0.206-0.155,0.338-0.533,0.338c-0.37,0-0.848-0.164-1.077-0.305L679.373,396.915z
				 M688.055,393.089h-1.277v2.396c0,0.101-0.003,0.197-0.035,0.271c-0.083,0.198-0.277,0.437-0.622,0.437
				c-0.438,0-0.623-0.354-0.623-0.938v-2.166h-1.28v2.363c0,1.241,0.612,1.668,1.427,1.668c0.725,0,1.112-0.376,1.271-0.741h0.025
				l0.057,0.73h1.086c-0.018-0.365-0.023-0.763-0.023-1.287v-2.733H688.055L688.055,393.089z M688.53,396.915
				c0.304,0.164,0.771,0.288,1.298,0.288c1.15,0,1.743-0.562,1.743-1.309c-0.009-0.592-0.329-0.979-1.096-1.24
				c-0.491-0.174-0.647-0.271-0.647-0.461c0-0.205,0.174-0.328,0.477-0.328c0.348,0,0.691,0.132,0.872,0.23l0.225-0.863
				c-0.247-0.123-0.667-0.229-1.138-0.229c-0.994,0-1.635,0.565-1.635,1.322c-0.009,0.468,0.312,0.921,1.143,1.198
				c0.47,0.156,0.594,0.256,0.594,0.461c0,0.206-0.156,0.338-0.535,0.338c-0.369,0-0.846-0.164-1.076-0.305L688.53,396.915z
				 M695.59,395.465c0.019-0.183,0.042-0.261,0.042-0.475c0-0.995-0.493-1.997-1.792-1.997c-1.396,0-2.029,1.131-2.029,2.149
				c0,1.258,0.779,2.059,2.146,2.059c0.542,0,1.044-0.09,1.455-0.254l-0.165-0.849c-0.336,0.107-0.682,0.146-1.109,0.146
				c-0.584,0-1.094-0.233-1.134-0.782L695.59,395.465L695.59,395.465z M692.993,394.551c0.032-0.365,0.247-0.812,0.771-0.812
				c0.575,0,0.707,0.447,0.707,0.812H692.993z M696.602,397.109c0.444,0,0.739-0.273,0.739-0.711c0-0.45-0.295-0.739-0.729-0.739
				c-0.437,0-0.74,0.284-0.74,0.729c0,0.437,0.305,0.723,0.723,0.723L696.602,397.109L696.602,397.109z"/>
			<polygon fill="#505050" points="632.116,380.658 632.116,378.281 624.438,378.281 624.438,389.066 626.814,389.066 
				626.814,385.229 631.385,385.229 631.385,382.852 626.814,382.852 626.814,380.658 			"/>
			<rect x="632.848" y="378.281" fill="#505050" width="2.376" height="10.785"/>
			<path fill="#505050" d="M643.817,386.036c-0.592,0.562-1.391,0.905-2.27,0.905c-1.817,0-3.294-1.476-3.294-3.295
				s1.477-3.295,3.294-3.295c0.867,0,1.655,0.336,2.244,0.885c0.275-0.726,0.673-1.387,1.168-1.963
				c-0.938-0.734-2.125-1.176-3.412-1.176c-3.063,0-5.549,2.483-5.549,5.549c0,3.064,2.483,5.549,5.549,5.549
				c1.31,0,2.508-0.453,3.456-1.207C644.505,387.415,644.102,386.756,643.817,386.036"/>
			<path fill="#505050" d="M650,386.947c-1.82,0-3.296-1.477-3.296-3.295c0-1.819,1.476-3.295,3.296-3.295
				c1.819,0,3.295,1.476,3.295,3.295C653.295,385.471,651.819,386.947,650,386.947 M650,378.104c-3.064,0-5.549,2.485-5.549,5.551
				c0,3.062,2.481,5.55,5.549,5.55s5.549-2.485,5.549-5.55C655.549,380.589,653.066,378.104,650,378.104"/>
			<path fill="#505050" d="M657.941,387.964c0.604,0.413,1.445,0.7,2.339,0.7c1.606,0,2.594-0.907,2.594-2.229
				c0-1.209-0.62-1.908-2.18-2.515c-1.721-0.604-2.753-1.496-2.753-2.96c0-1.575,1.289-2.721,3.118-2.721
				c1.003,0,1.767,0.255,2.133,0.509l-0.286,0.637c-0.287-0.206-0.972-0.509-1.896-0.509c-1.732,0-2.321,1.113-2.321,1.957
				c0,1.193,0.684,1.798,2.228,2.402c1.767,0.716,2.706,1.511,2.706,3.117c0,1.561-1.115,2.959-3.406,2.959
				c-0.923,0-2.005-0.301-2.562-0.73L657.941,387.964z"/>
			<path fill="#505050" d="M672.134,388.76c-0.54,0.271-1.575,0.54-2.896,0.54c-2.595,0-5.076-1.653-5.076-5.457
				c0-3.183,2.053-5.601,5.44-5.601c1.368,0,2.164,0.303,2.481,0.477l-0.238,0.639c-0.541-0.271-1.318-0.463-2.228-0.463
				c-2.896,0-4.662,1.877-4.662,4.965c0,2.912,1.655,4.789,4.535,4.789c0.905,0,1.798-0.189,2.418-0.491L672.134,388.76z"/>
			<path fill="#505050" d="M673.375,383.857c0,2.42,1.4,4.82,3.946,4.82s3.961-2.307,3.961-4.964c0-2.274-1.24-4.854-3.932-4.854
				C674.631,378.861,673.375,381.346,673.375,383.857 M682.078,383.668c0,3.786-2.322,5.648-4.805,5.648
				c-2.645,0-4.694-2.084-4.694-5.442c0-3.517,2.132-5.647,4.821-5.647C680.105,378.227,682.078,380.342,682.078,383.668"/>
			<path fill="#505050" d="M684.215,383.583h1.729c1.654,0,2.734-0.913,2.734-2.328c0-1.639-1.222-2.302-2.907-2.302
				c-0.73,0-1.189,0.085-1.559,0.148L684.215,383.583L684.215,383.583z M683.484,378.576c0.729-0.159,1.57-0.238,2.318-0.238
				c1.399,0,2.29,0.303,2.896,0.906c0.462,0.431,0.734,1.146,0.734,1.895c0,1.447-0.832,2.37-2.109,2.799v0.033
				c0.914,0.271,1.411,1.045,1.665,2.238c0.364,1.669,0.584,2.492,0.807,2.857h-0.779c-0.175-0.365-0.396-1.269-0.685-2.619
				c-0.334-1.543-1.003-2.315-2.419-2.315h-1.697v4.935h-0.729L683.484,378.576L683.484,378.576z"/>
			<polygon fill="#505050" points="696.098,383.766 691.895,383.766 691.895,388.336 696.646,388.336 696.646,389.066 
				691.162,389.066 691.162,378.281 696.464,378.281 696.464,379.014 691.895,379.014 691.895,383.034 696.098,383.034 			"/>
			<path fill="#505050" d="M655.516,379.093h0.045c0.137,0,0.265-0.032,0.265-0.147c0-0.098-0.026-0.166-0.203-0.166
				c-0.074,0-0.104,0.013-0.104,0.019L655.516,379.093L655.516,379.093z M655.516,379.561h-0.183v-0.893
				c0-0.02,0.169-0.031,0.31-0.031c0.17,0,0.233,0.031,0.295,0.079c0.062,0.043,0.121,0.123,0.121,0.222
				c0,0.123-0.178,0.201-0.178,0.237v0.013c0,0.037,0.105,0.055,0.136,0.188c0.031,0.153,0.026,0.188,0.054,0.188h-0.196
				c-0.031,0-0.057-0.099-0.086-0.231c-0.024-0.117-0.091-0.134-0.233-0.134h-0.036v0.363h-0.003V379.561z M654.826,379.15
				c0,0.453,0.335,0.809,0.789,0.809c0.434,0.006,0.765-0.355,0.765-0.803c0-0.446-0.331-0.809-0.776-0.809
				C655.161,378.35,654.826,378.71,654.826,379.15 M656.595,379.15c0,0.557-0.429,0.983-0.984,0.983
				c-0.559,0-0.997-0.429-0.997-0.983c0-0.545,0.438-0.975,1.004-0.975C656.166,378.178,656.595,378.605,656.595,379.15"/>
		</g>
		<g>
			<path fill="#006899" d="M708.887,356.738c0.059-0.146,0.138-0.293,0.237-0.399c0.103-0.106,0.225-0.2,0.369-0.26
				c0.144-0.06,0.305-0.095,0.482-0.095c0.229,0,0.421,0.027,0.574,0.092c0.153,0.062,0.277,0.141,0.371,0.234
				c0.094,0.092,0.161,0.192,0.202,0.303c0.04,0.107,0.062,0.209,0.062,0.304c0,0.155-0.021,0.283-0.062,0.383
				c-0.041,0.103-0.092,0.187-0.15,0.259c-0.061,0.069-0.127,0.131-0.197,0.183c-0.072,0.05-0.145,0.101-0.206,0.149
				c-0.065,0.049-0.098,0.106-0.146,0.172c-0.05,0.064-0.067,0.146-0.067,0.242v0.234h-0.729v-0.27c0-0.14,0.047-0.256,0.091-0.351
				c0.044-0.093,0.102-0.174,0.158-0.239c0.058-0.065,0.122-0.123,0.188-0.173c0.064-0.049,0.127-0.097,0.183-0.146
				s0.101-0.104,0.134-0.16c0.034-0.059,0.05-0.131,0.047-0.219c0-0.147-0.037-0.26-0.108-0.33s-0.175-0.106-0.304-0.106
				c-0.088,0-0.163,0.019-0.227,0.054c-0.062,0.031-0.114,0.078-0.155,0.135c-0.04,0.057-0.069,0.164-0.089,0.24
				c-0.02,0.074-0.029,0.103-0.029,0.283H708.8C708.8,357.076,708.83,356.884,708.887,356.738z"/>
			<rect x="709.625" y="358.902" fill="#006899" width="0.73" height="0.73"/>
			<g>
				<path fill="#006899" d="M709.991,354.883c1.606,0,2.925,1.316,2.925,2.926c0,1.608-1.316,2.924-2.925,2.924
					c-1.609,0-2.925-1.314-2.925-2.924S708.383,354.883,709.991,354.883 M709.991,354.518c-1.814,0-3.29,1.478-3.29,3.291
					s1.476,3.289,3.29,3.289c1.812,0,3.29-1.476,3.29-3.289C713.281,355.994,711.806,354.518,709.991,354.518L709.991,354.518z"/>
			</g>
		</g>
	</g>
	<path opacity="0.2" fill="#FFFFFF" enable-background="new    " d="M657.095,565.025c0-3.445,2.796-6.234,6.239-6.234
		c3.445,0,6.239,2.789,6.239,6.234c0,3.438-2.794,6.233-6.239,6.233C659.891,571.262,657.095,568.467,657.095,565.025"/>
</g>
<rect x="612.167" y="445.995" fill="#BFBFBF" width="96.666" height="4.602"/>
<rect x="629.917" y="459.169" fill="#BFBFBF" width="62.446" height="4.603"/>
<rect x="612.167" y="530.837" fill="#BFBFBF" width="96.666" height="4.603"/>
<rect x="612.167" y="544.011" fill="#BFBFBF" width="85.201" height="4.603"/>
<rect x="612.167" y="482.522" fill="#BFBFBF" width="96.666" height="4.602"/>
<rect x="612.167" y="495.696" fill="#BFBFBF" width="63.731" height="4.602"/>
<rect x="612.167" y="508.87" fill="#BFBFBF" width="63.731" height="4.602"/>
</svg>
