<?xml version="1.0"?><svg width="265.66891" height="287.93268" xmlns="http://www.w3.org/2000/svg" xmlns:xlink="http://www.w3.org/1999/xlink">
 <title>Birds on a branch Black/Grey</title>
 <metadata id="metadata7">image/svg+xml</metadata>
 <g>
  <title>Layer 1</title>
  <path d="m50.709229,283.387512c-2.130329,-2.47168 -5.249729,-3.609772 -7.709808,-5.687073c-5.655361,-3.932861 -8.953709,-10.860596 -11.971281,-17.373901c-4.21912,-10.095169 -4.429409,-20.345047 -2.489288,-31.087296c2.752258,-13.504013 10.078077,-23.894028 19.06111,-32.679153c10.330231,-9.190628 22.854851,-12.825867 35.422188,-15.744034c12.829735,-2.260193 25.440552,-5.552902 37.622192,-10.685089c10.672386,-4.590042 19.452263,-12.26561 25.94088,-22.936264c3.723358,-7.282654 4.651855,-14.65242 0.648575,-21.90126c-5.897614,-8.385208 -14.861176,-10.341805 -23.721703,-11.012413c-9.850166,0.287125 -18.882042,3.77401 -25.257706,12.540558c-1.434219,2.540688 -2.395439,4.77198 -2.996635,7.704674c-0.155762,0.759796 -0.539139,0.946411 -0.924904,0.301239l0,0c-2.849815,-4.766449 -3.839645,-7.97084 -0.641487,-13.095078c8.127228,-8.615883 19.158669,-10.772354 29.979202,-10.934624c10.262222,0.547279 20.946198,2.037651 28.229828,11.305038c4.864578,9.72924 3.722275,18.998909 -2.326294,27.7967c-7.729874,10.125153 -17.215881,17.673401 -28.313377,22.266785c-12.419792,4.599167 -25.178558,7.245697 -38.044518,9.73262c-12.407364,2.878906 -24.783073,6.443634 -34.991013,15.503601c-8.865448,8.652847 -15.964729,18.62793 -18.323559,32.085724c-0.88858,9.985611 -0.124811,19.789261 4.691441,28.5009c2.940018,5.432526 6.392178,10.251923 11.095039,13.791412c2.406979,0.570923 3.319099,0.344299 4.842949,-1.905029c5.100742,-7.529053 6.042912,20.316528 0.178169,13.511963z" id="path2202" stroke-width="1px" fill-rule="nonzero" fill="#3f3f3f"/>
  <path d="m50.905201,258.030029c-2.572102,0.301453 -4.503952,-1.443024 -6.443401,-3.230011c-4.438091,-5.617355 -5.61692,-12.864349 -5.629898,-20.186676c0.912067,-11.387451 7.142918,-20.11319 13.214268,-28.624313c0.430359,-0.603302 1.1759,0.09906 0.745239,0.702072l0,0c-5.78265,8.096451 -10.195747,16.770416 -9.744247,27.669815c0.61644,5.774658 2.093658,10.735855 6.12838,14.555206c1.186211,1.543762 2.69286,2.89621 3.341869,4.835831c1.03215,3.084686 1.246738,3.942963 -1.612209,4.278076z" id="path2242" stroke-width="1px" fill-rule="nonzero" fill="#3f3f3f"/>
  <path d="m171.402344,104.506447c-0.077682,-1.43441 0.264267,-2.88015 0.520218,-4.277885c0.537567,-2.388954 1.479095,-4.644333 2.336472,-6.910805c0.758118,-2.688576 1.761414,-5.233116 2.871475,-7.74794c1.197357,-2.227806 2.928635,-3.906799 4.671646,-5.539116c1.625244,-1.297348 3.377136,-2.050697 5.275635,-2.618759c1.681015,-0.40406 3.08139,0.100922 4.597687,0.866875c1.27507,1.140244 1.901184,2.563354 2.485565,4.195572c0.518555,1.88282 0.79158,3.853828 1.133911,5.790024c0.689758,2.171806 1.772232,3.750542 3.199463,5.327026c2.121872,1.903305 3.170685,4.098221 4.097031,6.912025c0.489349,2.535423 1.319199,4.819679 1.739334,7.37999c0.372543,3.500679 0.616684,6.729713 -0.787186,9.932533c-2.675507,3.987152 -6.885315,5.261276 -9.993912,8.70343c-0.488892,0.541283 -0.451035,0.550034 -0.961838,0.031807l0,0c-3.280228,-3.32814 -7.633362,-4.601746 -10.274323,-8.768181c-1.127075,-2.725906 -1.191437,-5.264664 -1.033478,-8.228333c0.103394,-3.066803 0.398987,-6.050713 1.258057,-8.978302c1.023254,-2.216057 2.551422,-4.008545 3.487839,-6.33477c1.207016,-2.30204 2.141312,-4.828957 3.634277,-6.875175c0.579453,-1.20401 1.264206,-2.359283 1.402008,-3.764023c-0.299835,-0.843033 -0.480988,-1.808807 -1.105545,-2.41507c-0.776566,-0.469803 -1.386261,-1.141312 -2.455765,-0.894913c-1.519714,0.393654 -3.081589,0.649681 -4.314636,1.911423c-1.561966,1.353249 -2.836563,2.730247 -3.617081,4.864227c-1.022018,2.378242 -1.938614,4.8004 -2.63002,7.340309c-0.524765,2.159172 -1.10553,4.302795 -1.310425,6.528404c-0.011673,1.15802 -0.023941,2.298149 0.112671,3.431877c0.420883,3.492531 -4.148621,3.65583 -4.339081,0.137749z" id="path2262" stroke-width="1px" fill-rule="nonzero" fill="#7f7f7f"/>
  <path d="m150.251633,87.00666c-0.774887,-0.426338 -1.524353,-0.898903 -2.294113,-1.398621c-1.511047,-0.84993 -2.316162,-2.371567 -3.216232,-3.910477c-0.949509,-2.031982 -2.043655,-3.96006 -2.937622,-6.031166c-1.182373,-2.074364 -2.442017,-4.064369 -3.83812,-5.951988c-1.327042,-1.669815 -2.884048,-2.94381 -4.5047,-4.177216c-1.565536,-1.234467 -3.403519,-1.724575 -5.218002,-2.215874c-2.244125,-0.067188 -3.526527,1.271027 -5.041275,2.93676c-1.192566,3.498512 -3.299858,6.274231 -5.231949,9.237518c-2.961296,6.2808 -7.479599,4.60498 -12.30175,6.849724c-0.629791,0.293167 -0.9506,-0.105904 -0.657333,-0.809593l0,0c2.096321,-5.030167 0.618935,-10.166107 5.443947,-13.694931c3.114586,-3.491661 6.038185,-6.853657 10.717979,-6.794487c2.491631,-0.344601 4.945274,-0.344479 7.36129,0.567261c1.999832,0.571629 3.92395,1.266079 5.722412,2.476082c1.719299,1.339897 3.413956,2.756081 4.688797,4.671074c1.3871,1.978127 2.853409,3.91272 3.914169,6.162735c1.177139,1.855064 2.109299,3.853004 3.380188,5.623817c0.777725,1.28157 1.538498,2.583221 2.37384,3.809372c0.734314,0.25293 1.477753,0.648476 2.269043,0.591652c1.342529,-0.096443 0.584457,2.726845 -0.630569,2.058357z" id="path2266" stroke-width="1px" fill-rule="nonzero" fill="#3f3f3f"/>
  <path d="m166.084351,148.383499c-0.198868,1.198334 -0.174103,2.418701 -0.206345,3.628113c-0.086487,1.598434 -0.037125,3.156616 0.076874,4.751312c0.891678,2.514557 2.866226,3.44754 4.83374,4.662491c3.264236,1.095474 2.210495,4.099136 1.495407,7.391296c-1.733124,5.491486 -6.589447,4.757782 -10.93129,5.218643c-0.677322,0.071899 -0.386658,0.134018 -0.9077,-0.370636l0,0c-3.011139,-2.916306 -6.003418,-4.834473 -7.078064,-9.057251c0.264435,-2.319717 0.586807,-4.036407 2.650467,-5.210281c2.184906,-0.447433 4.186066,-0.68309 5.434509,-2.999878c0.287781,-1.49379 0.527756,-2.941772 0.462036,-4.484116c0.009186,-1.271027 0.051865,-2.549026 -0.037308,-3.823441c-0.238678,-3.411194 4.765015,-3.064728 4.207672,0.293747z" id="path2274" stroke-width="1px" fill-rule="nonzero" fill="#3f3f3f"/>
  <g id="svg_201" transform="rotate(-90.6478, 113.897, 189.318) matrix(-0.407456, 0, 0, -0.572501, 174.161, 483.941)">
   <metadata fill="#ffff56" id="svg_200">image/svg+xml</metadata>
   <g id="svg_190" transform="matrix(0.441545, 0, 0, 0.350201, 2.01049, 0.428472)">
    <g id="svg_191">
     <path d="m273.737061,1582.4552c-5.077759,-2.640869 -10.207642,-4.946777 -14.913574,-8.333252c-10.05658,-7.706055 -18.565002,-16.622559 -25.948975,-26.897217c-8.472961,-11.733643 -11.070679,-25.171631 -11.315125,-39.318359c1.427307,-14.806641 9.026367,-26.431152 19.117249,-36.821777c12.297974,-10.630615 26.767578,-18.044189 42.58374,-21.563965c17.509888,-3.31543 34.810974,-0.540039 51.7146,4.226563c15.620239,5.002686 28.552368,14.250732 38.52063,27.124023c9.231567,14.171875 6.759521,28.649658 0.916504,43.476318c-9.0625,17.610352 -22.656006,32.241943 -35.16272,47.405762c-13.734497,15.315674 -24.492432,32.687012 -33.416504,51.12793c-3.05481,11.607422 -9.776978,24.2229 -8.122803,36.04248c0.140015,1.000488 -1.2771,1.197266 -1.415039,0.196533l0,0c-2.02124,-14.672119 -6.129761,-25.500732 3.087158,-39.514893c9.786377,-18.427734 22.734253,-34.794189 34.457397,-51.999512c10.872314,-15.280518 22.190186,-30.487061 30.410156,-47.404297c4.800171,-11.295654 6.876465,-22.389404 1.282227,-33.913574c-7.424561,-12.870361 -18.485352,-21.390381 -32.374268,-26.717041c-15.756104,-5.427979 -32.13623,-7.564209 -48.702454,-4.687012c-15.166565,3.383057 -29.66925,7.339355 -40.667664,19.14917c-8.895935,9.635254 -15.779846,20.580078 -16.775085,33.999512c-0.888,13.134521 2.606689,25.209961 9.890991,36.234375c7.157166,9.532715 15.681885,18.162354 25.425964,25.062256c4.024719,2.996094 7.935364,7.369141 12.914063,8.439697c3.402954,0.731445 1.581665,6.292236 -1.50647,4.686279z" id="svg_199" stroke-width="1px" fill-rule="nonzero" fill="#ffff56"/>
     <path d="m417.791748,1311.223022c4.972778,-2.520508 10.335938,-3.69165 15.759277,-4.790771c11.285278,-1.808105 22.673065,-1.259521 33.885834,0.647217c10.961792,3.009521 18.968506,10.196533 26.357422,18.422852c6.50769,8.88208 8.394165,17.809326 4.309814,28.06665c-5.430176,11.007568 -16.412842,17.081055 -26.373535,23.447754c-12.290039,7.348633 -24.93869,14.049561 -37.482513,20.944824c-14.444458,7.148682 -27.381836,16.517578 -39.960815,26.481934c-14.420288,11.944336 -26.036499,26.558105 -35.906738,42.365967c-9.792358,14.862061 -14.708862,31.665527 -17.640747,49.020752c-2.78418,13.042969 -0.153442,25.415039 4.351074,37.659424c0.348755,0.947998 -0.993408,1.440918 -1.341064,0.492432l0,0c-4.563354,-12.450684 -6.791382,-25.318115 -6.390137,-38.637451c2.16626,-18.130371 8.557007,-34.790283 18.356323,-50.23877c10.387817,-15.879883 21.283936,-31.567383 35.654907,-44.169922c12.318237,-10.734619 25.598999,-20.367188 39.679077,-28.675293c12.227661,-6.998535 24.641693,-13.787842 36.116791,-21.989502c7.979736,-5.724121 15.871094,-11.775146 20.626587,-20.597168c2.262451,-6.584717 2.892212,-12.873047 -0.837036,-19.170898c-4.713989,-8.416992 -12.320557,-14.17041 -21.165527,-17.901367c-10.143066,-4.541016 -20.688934,-6.051025 -31.651093,-3.518555c-5.106934,1.237793 -10.2323,2.686523 -14.942993,5.064453c-2.048096,1.033691 -3.451172,-1.887451 -1.404907,-2.924561z" id="svg_198" stroke-width="1px" fill-rule="nonzero" fill="#ffff56"/>
     <path d="m388.310547,1466.508911c1.660522,-2.41748 4.790161,-3.422119 7.427124,-4.618164c7.371216,-3.456787 13.661377,-8.562012 19.538818,-14.109375c8.010132,-7.794189 13.853638,-17.13501 19.102295,-26.899658c4.392334,-9.6521 6.236328,-20.259277 5.915771,-30.817383c-1.164063,-7.237061 -2.571289,-14.545654 -9.195435,-18.435303c-0.870972,-0.511475 -0.1427,-1.745605 0.726196,-1.230225l0,0c8.565918,5.079834 16.640869,8.228027 15.79187,19.966797c-1.16333,11.397705 -5.921265,21.479248 -10.978394,31.651123c-4.831299,10.307617 -11.078247,19.875 -18.762695,28.306885c-5.685791,6.281494 -11.645386,12.295166 -18.116821,17.775879c-2.087158,1.803711 -4.522095,4.251465 -7.205811,4.518066c-5.233521,0.519775 -7.220703,-1.773682 -4.24292,-6.108643z" id="svg_197" stroke-width="1px" fill-rule="nonzero" fill="#ffff56"/>
     <path d="m314.249878,1594.889282c0.880615,-3.320557 4.05603,-5.700928 6.27832,-8.368408c5.548706,-7.371338 8.772705,-15.713623 11.423706,-24.462402c1.9198,-10.176025 1.761597,-20.39502 -1.136108,-30.327393c-2.361816,-8.290039 -7.018677,-15.609619 -13.249878,-21.502197c-6.661255,-6.011963 -14.573975,-6.776123 -23.126465,-5.737793c-5.893677,0.903076 -10.802795,3.486084 -15.803833,6.532959c-0.862671,0.525635 -1.605835,-0.695557 -0.742676,-1.220459l0,0c5.138672,-3.123535 10.133423,-6.569336 15.752441,-8.800049c10.442932,-3.400146 20.644775,-4.149414 29.912476,2.842041c7.757202,7.240479 12.758423,15.936768 14.815674,26.451416c1.151611,11.103027 0.474243,22.047119 -3.526611,32.599365c-2.508423,9.07666 -5.453369,18.256836 -9.967285,26.536133c-1.762329,3.271484 -3.401367,7.325684 -6.914978,8.651855c-3.241577,1.223633 -4.602966,0.153809 -3.714783,-3.195068z" id="svg_196" stroke-width="1px" fill-rule="nonzero" fill="#ffff56"/>
     <path d="m360.172363,1534.735962c2.465942,-2.000732 3.960327,-4.804199 5.595337,-7.470215c4.230103,-7.087891 9.269653,-13.621338 14.458618,-20.021484c7.44751,-9.285645 15.742798,-17.80835 24.289551,-26.07251c8.59729,-6.803955 15.250977,-14.995117 21.831421,-23.626953c6.02417,-9.341309 13.468262,-13.336914 24.146973,-9.553955c5.552216,2.825928 7.422333,8.100098 10.199921,13.251709c0.746338,0.600098 1.492554,1.200195 2.238892,1.800293c0.787231,0.633057 0.84729,0.877441 0.000732,1.428467l0,0c-0.923096,0.601074 -1.846191,1.201904 -2.769409,1.802979c-5.537964,3.340332 -12.03183,3.103027 -17.811127,0.091064c-1.885376,-4.288574 -6.687988,-2.976318 -10.996216,-2.149658c-10.33252,3.812012 -18.370483,9.852783 -25.848145,17.98291c-8.505615,8.223877 -16.761597,16.704346 -24.172974,25.945557c-5.150024,6.351074 -10.152832,12.833984 -14.350464,19.868408c-1.610107,2.625488 -3.523193,5.175293 -4.308716,8.188721c-0.517578,1.985352 -4.097534,-0.172607 -2.504395,-1.465332z" id="svg_195" stroke-width="1px" fill-rule="nonzero" fill="#ffff56"/>
     <path d="m281.711914,1455.412476c-2.376343,-0.205811 -4.771179,-0.495605 -7.169922,-0.663574c-7.4198,0.071533 -14.649292,2.274902 -21.673706,4.474121c-13.99707,5.703125 -26.403137,14.377441 -38.454987,23.348877c-16.384033,12.584229 -30.689011,27.552246 -41.557419,45.121338c-8.047668,12.465332 -0.472046,26.270996 -3.452881,38.905518c1.127686,1.664795 2.25531,3.329346 3.382996,4.993896c0.566528,0.836182 -0.621033,1.637451 -1.184326,0.798828l0,0c-1.169434,-1.740723 -2.338867,-3.481201 -3.508301,-5.221924c-14.068542,-10.780273 -5.741577,-28.283447 3.278503,-40.432617c11.58551,-17.284668 25.513046,-32.73877 42.188461,-45.311035c12.155731,-9.046631 24.671417,-17.78833 38.790253,-23.534424c7.040649,-3.288818 14.228394,-6.136475 21.891602,-7.605957c2.659912,-0.434082 5.488159,-0.889893 8.077637,-0.079834c3.537842,1.106689 3.085144,5.526855 -0.60791,5.206787z" id="svg_194" stroke-width="1px" fill-rule="nonzero" fill="#ffff56"/>
     <path d="m345.153198,1582.133423c2.473633,-2.673096 5.072754,-5.262695 7.810669,-7.68042c7.481445,-6.092285 13.93103,-13.140869 20.618286,-20.07373c6.849365,-8.984131 15.6073,-16.381592 23.861938,-24.064209c10.331421,-8.929443 19.511475,-11.264648 32.762329,-8.407959c1.869019,-1.404541 3.738037,-2.808838 5.607056,-4.213379c0.807617,-0.606934 1.665771,0.535645 0.858032,1.14209l0,0c-1.89209,1.420898 -3.78418,2.841553 -5.676392,4.262451c-3.177368,13.648926 -9.668335,20.418457 -22.771362,25.32373c-10.401489,3.379883 -20.35376,7.728271 -30.639038,11.39502c-8.548218,4.265625 -16.942993,8.653564 -23.614624,15.650146c-2.31189,2.588379 -4.580078,5.11377 -5.692749,8.459717c-0.803833,2.417236 -4.854248,0.076172 -3.124146,-1.793457z" id="svg_193" stroke-width="1px" fill-rule="nonzero" fill="#ffff56"/>
     <path d="m480.654755,1319.260376c-2.16687,-1.163818 -4.283203,-2.495361 -6.465576,-3.672607c-4.993774,-3.491211 -10.470703,-6.219971 -15.982422,-8.783691c-5.454437,-2.764648 -11.19455,-4.937988 -16.405609,-8.161377c-4.4021,-2.582275 -7.329834,-6.06665 -8.531494,-11.001221c0.812622,-7.465088 9.399658,-8.207764 15.376709,-9.303955c8.074799,-1.843994 16.320892,-1.688232 24.526337,-1.243652c5.719971,0.258301 10.956787,1.422363 15.248413,5.339844c4.26062,5.856201 -1.066772,9.516602 -6.492554,10.728516c-0.962891,0.383301 -1.925659,0.766357 -2.88855,1.149414c-0.938599,0.373535 -1.465942,-0.957275 -0.526367,-1.328125l0,0c0.915161,-0.361084 1.830322,-0.722168 2.745483,-1.083252c1.852905,-1.944092 3.472534,-3.597412 3.417847,-6.298828c-2.830811,-3.891357 -6.852661,-5.876709 -11.680786,-6.753662c-7.980835,-1.187012 -16.095703,-0.723145 -23.999603,0.874756c-4.449463,1.459229 -8.994751,2.811279 -11.127197,7.266602c0.681274,3.723633 2.625,6.435303 5.788452,8.789307c4.954102,3.374512 10.198975,6.261719 15.67099,8.71167c5.437134,2.745361 10.911865,5.476807 16.636475,7.578857c2.445679,1.151611 5.123047,1.97583 7.212402,3.73291c2.31665,1.948242 0.143799,4.890869 -2.522949,3.458496z" id="svg_192" stroke-width="1px" fill-rule="nonzero" fill="#ffff56"/>
    </g>
   </g>
  </g>
  <defs>
   <filter id="svg_682">
    <feGaussianBlur stdDeviation="0.028007" id="svg_683"/>
   </filter>
   <pattern xlink:href="#svg_511" id="svg_482" patternTransform="translate(-84.137687,510.39526)"/>
   <pattern xlink:href="#svg_511" id="svg_676" patternTransform="matrix(0.88006212,0,0,0.88006212,-58.848069,577.67804)"/>
   <pattern xlink:href="#svg_511" id="svg_674" patternTransform="matrix(0.88006212,0,0,0.88006212,-58.848069,577.67804)"/>
   <pattern xlink:href="#svg_511" id="svg_672" patternTransform="matrix(0.88006212,0,0,0.88006212,-58.848069,577.67804)"/>
   <pattern xlink:href="#svg_511" id="svg_670" patternTransform="matrix(0.88006212,0,0,0.88006212,-58.848069,577.67804)"/>
   <pattern xlink:href="#svg_511" id="svg_668" patternTransform="matrix(0.88006212,0,0,0.88006212,-58.848069,577.67804)"/>
   <pattern xlink:href="#svg_736" id="svg_681" patternTransform="translate(0.06721909,0.06717561)"/>
   <pattern xlink:href="#svg_684" id="svg_736" patternTransform="translate(-79.949423,517.53249)"/>
   <pattern xlink:href="#svg_712" id="svg_507" patternTransform="translate(-212.76306,474.817)"/>
   <pattern xlink:href="#svg_735" id="svg_509" patternTransform="matrix(0.8936531,0,0,0.81566101,-53.447338,517.4271)"/>
   <pattern xlink:href="#svg_723" id="svg_735" patternTransform="matrix(0.8936531,0,0,0.81566101,-50.365307,517.41929)"/>
   <pattern xlink:href="#svg_724" id="svg_723" patternTransform="matrix(0.69232574,0,0,0.69244029,3.5424804e-7,-1.9023438e-5)"/>
   <pattern xlink:href="#svg_727" id="svg_726" patternTransform="matrix(0.73209023,0,0,0.71495365,-6.4575195e-7,1.7539062e-5)"/>
   <pattern patternUnits="userSpaceOnUse" width="3.551382" height="3.635903" patternTransform="matrix(0.73209023,0,0,0.71495365,-50.326245,517.53554)" id="svg_727">
    <path id="svg_734" d="m2.19847,0.29226c0.28594,0.31889 0.36332,0.78009 0.17283,1.03011c-0.19049,0.25002 -0.57671,0.19418 -0.86265,-0.12472c-0.28594,-0.31889 -0.36332,-0.78008 -0.17283,-1.0301c0.19049,-0.25002 0.57671,-0.19419 0.86265,0.12471z" fill="#800000"/>
    <path d="m1.25987,2.07843c-0.26906,0.3736 -0.68656,0.53954 -0.93251,0.37063c-0.24595,-0.16892 -0.22721,-0.60871 0.04186,-0.98231c0.26907,-0.37361 0.68656,-0.53954 0.93251,-0.37063c0.24595,0.16891 0.22721,0.6087 -0.04186,0.98231z" id="svg_733" fill="#800000"/>
    <path id="svg_732" d="m2.09614,3.11828c-0.37625,0.13239 -0.73542,-0.03664 -0.8022,-0.37753c-0.06679,-0.34089 0.18408,-0.72454 0.56034,-0.85693c0.37626,-0.13238 0.73542,0.03664 0.80221,0.37753c0.06679,0.34089 -0.18409,0.72455 -0.56035,0.85693z" fill="#800000"/>
    <path id="svg_731" d="m0.90538,0.59997c-0.07413,0.34353 -0.33108,0.63208 -0.57393,0.64449c-0.24285,0.01241 -0.37962,-0.25602 -0.3055,-0.59955c0.07413,-0.34354 0.33108,-0.63209 0.57393,-0.6445c0.24285,-0.01241 0.37962,0.25602 0.3055,0.59956z" fill="#800000"/>
    <path d="m3.12962,1.48654c-0.27786,0.13239 -0.5431,-0.03663 -0.59243,-0.37752c-0.04932,-0.3409 0.13595,-0.72455 0.41381,-0.85694c0.27787,-0.13238 0.54311,0.03664 0.59243,0.37753c0.04932,0.34089 -0.13594,0.72455 -0.41381,0.85693z" id="svg_730" fill="#800000"/>
    <path d="m3.51902,2.71922c0.03585,0.35104 -0.117,0.72001 -0.3414,0.8241c-0.2244,0.10409 -0.43537,-0.0961 -0.47122,-0.44715c-0.03585,-0.35104 0.117,-0.72 0.3414,-0.8241c0.2244,-0.10409 0.43537,0.0961 0.47122,0.44715z" id="svg_729" fill="#800000"/>
    <path d="m0.48139,3.62673c-0.32262,-0.05105 -0.53317,-0.30081 -0.47029,-0.55787c0.06289,-0.25705 0.3754,-0.42406 0.69802,-0.37302c0.32262,0.05105 0.53317,0.30081 0.47028,0.55787c-0.06289,0.25706 -0.37539,0.42406 -0.69801,0.37302z" id="svg_728" fill="#800000"/>
   </pattern>
   <pattern patternUnits="userSpaceOnUse" width="2.599932" height="2.599502" patternTransform="matrix(0.69232574,0,0,0.69244029,-50.326244,517.53648)" id="svg_724">
    <rect id="svg_725" y="0" x="0" height="2.599502" width="2.599932" fill="url(#svg_726)"/>
   </pattern>
   <pattern patternUnits="userSpaceOnUse" width="1.8" height="1.8" patternTransform="translate(-50.326244,517.5365)" id="svg_721">
    <rect id="svg_722" y="0" x="0" height="1.8" width="1.8" fill="url(#svg_723)"/>
   </pattern>
   <pattern patternUnits="userSpaceOnUse" width="2.341234" height="2.175213" patternTransform="translate(-50.417812,517.40181)" id="svg_712">
    <path d="m0.64745,0.54334c-0.08455,0.11809 -0.21624,0.19802 -0.34541,0.20961c-0.12916,0.01161 -0.23614,-0.04686 -0.28059,-0.15336c-0.04447,-0.10649 -0.01961,-0.24482 0.06516,-0.36279c0.08454,-0.11809 0.21624,-0.19802 0.3454,-0.2096c0.12916,-0.01162 0.23615,0.04686 0.28059,0.15336c0.04447,0.10649 0.01961,0.24481 -0.06515,0.36278z" id="svg_720" fill="#333333"/>
    <path id="svg_719" d="m0.80062,1.02685c0.08029,0.12676 0.09675,0.27154 0.04313,0.37971c-0.0536,0.10818 -0.16909,0.16329 -0.30292,0.14455c-0.13382,-0.01871 -0.26562,-0.10845 -0.34567,-0.23533c-0.08029,-0.12676 -0.09675,-0.27154 -0.04312,-0.37971c0.05359,-0.10818 0.16909,-0.16329 0.30291,-0.14455c0.13383,0.01871 0.26562,0.10845 0.34567,0.23533z" fill="#333333"/>
    <path d="m1.50427,0.31448c0.10503,0.15122 0.14241,0.33267 0.09798,0.47589c-0.04439,0.14323 -0.16382,0.22645 -0.31321,0.21827c-0.14938,-0.00815 -0.30602,-0.10649 -0.41081,-0.25788c-0.10504,-0.15121 -0.14241,-0.33266 -0.09799,-0.47588c0.0444,-0.14323 0.16382,-0.22646 0.31321,-0.21828c0.14939,0.00815 0.30602,0.1065 0.41082,0.25788z" id="svg_718" fill="#333333"/>
    <path id="svg_717" d="m0.41985,2.17521c-0.13756,0.00015 -0.26476,-0.05301 -0.3336,-0.13946c-0.06886,-0.08643 -0.0689,-0.19299 -0.00009,-0.27946c0.06878,-0.08649 0.19595,-0.13974 0.33351,-0.13967c0.13756,-0.00016 0.26477,0.05301 0.33361,0.13946c0.06886,0.08643 0.06889,0.19299 0.00009,0.27947c-0.06878,0.08649 -0.19596,0.13973 -0.33352,0.13966z" fill="#333333"/>
    <path id="svg_716" d="m1.53942,1.83097c-0.13687,0.10252 -0.30416,0.14336 -0.43873,0.10706c-0.13459,-0.03627 -0.21601,-0.14413 -0.21354,-0.28288c0.00244,-0.13876 0.08842,-0.28731 0.22546,-0.3896c0.13687,-0.10252 0.30416,-0.14335 0.43874,-0.10705c0.13459,0.03627 0.21601,0.14413 0.21353,0.28288c-0.00243,0.13875 -0.08842,0.28729 -0.22546,0.38959z" fill="#333333"/>
    <path id="svg_715" d="m2.21879,0.54951c-0.08196,0.11604 -0.20138,0.18919 -0.31323,0.19179c-0.11185,0.00263 -0.1991,-0.06564 -0.22885,-0.17907c-0.02976,-0.11342 0.00253,-0.25475 0.08467,-0.37064c0.08195,-0.11605 0.20139,-0.18919 0.31323,-0.19179c0.11185,-0.00263 0.19911,0.06564 0.22885,0.17907c0.02976,0.11342 -0.00254,0.25474 -0.08467,0.37064z" fill="#333333"/>
    <path d="m2.30187,1.87822c-0.05208,0.1289 -0.14818,0.22612 -0.25206,0.25494c-0.10388,0.02884 -0.19974,-0.01507 -0.25141,-0.11518c-0.05168,-0.10009 -0.05131,-0.24116 0.00097,-0.36996c0.05207,-0.12891 0.14818,-0.22612 0.25207,-0.25494c0.10388,-0.02884 0.19974,0.01507 0.2514,0.11518c0.05169,0.10009 0.0513,0.24115 -0.00097,0.36996z" id="svg_714" fill="#333333"/>
    <path d="m2.03204,0.80549c0.11235,0.007 0.21344,0.05793 0.26511,0.13362c0.05168,0.07568 0.04611,0.16458 -0.01463,0.23317c-0.06072,0.0686 -0.16738,0.10644 -0.27972,0.09926c-0.11234,-0.00698 -0.21343,-0.05793 -0.2651,-0.13362c-0.05169,-0.07567 -0.04611,-0.16458 0.01463,-0.23316c0.06072,-0.06861 0.16738,-0.10644 0.27971,-0.09927z" id="svg_713" fill="#333333"/>
   </pattern>
   <pattern patternUnits="userSpaceOnUse" width="4" height="4" patternTransform="translate(-50.393454,512.78181)" id="svg_497">
    <g transform="matrix(1.7195441,0.05329233,-0.04947654,1.852161,117.38614,-950.24007) " id="svg_703" fill="#800000">
     <path id="svg_711" d="m-52.7938,515.085754c-0.130779,0.182373 -0.362339,0.261536 -0.517208,0.17688c-0.154881,-0.084656 -0.174412,-0.301086 -0.043633,-0.483398c0.130772,-0.182312 0.362331,-0.261475 0.517212,-0.17688c0.154869,0.084656 0.1744,0.301086 0.043629,0.483398z" fill="#800000"/>
     <path d="m-52.640629,515.569275c0.123848,0.195923 0.088707,0.419434 -0.078491,0.499207c-0.167198,0.079773 -0.403118,-0.014343 -0.52697,-0.210266c-0.123852,-0.195923 -0.088711,-0.419373 0.078491,-0.499207c0.167198,-0.079773 0.403118,0.014343 0.52697,0.210266z" id="svg_710" fill="#800000"/>
     <path id="svg_709" d="m-51.936989,514.856934c0.162079,0.233704 0.15332,0.520874 -0.019562,0.641357c-0.172878,0.120422 -0.444401,0.028625 -0.606468,-0.205078c-0.162071,-0.233765 -0.15332,-0.520874 0.019569,-0.641357c0.172871,-0.120483 0.444389,-0.028687 0.606461,0.205078z" fill="#800000"/>
     <path d="m-53.0214,516.717651c-0.212498,0.000061 -0.3848,-0.124939 -0.38485,-0.279175c-0.00005,-0.154236 0.172169,-0.279358 0.38467,-0.279419c0.212509,-0.000061 0.384811,0.124939 0.384861,0.279175c0.00005,0.154236 -0.172173,0.279358 -0.384682,0.279419z" id="svg_708" fill="#800000"/>
     <path d="m-51.901829,516.373413c-0.211571,0.158203 -0.478622,0.159851 -0.596481,0.003723c-0.11787,-0.156128 -0.041901,-0.41095 0.16967,-0.569153c0.211578,-0.158203 0.478619,-0.159851 0.596489,-0.003723c0.117863,0.156128 0.041901,0.41095 -0.169678,0.569153z" id="svg_707" fill="#800000"/>
     <path d="m-51.222462,515.09198c-0.12674,0.179138 -0.331879,0.244263 -0.458187,0.145386c-0.12632,-0.098816 -0.125961,-0.324158 0.000778,-0.503357c0.126751,-0.179138 0.331882,-0.244263 0.458202,-0.145386c0.126308,0.098816 0.125957,0.324158 -0.000793,0.503357z" id="svg_706" fill="#800000"/>
     <path id="svg_705" d="m-51.139381,516.420654c-0.080597,0.199036 -0.258419,0.308899 -0.39719,0.2453c-0.13876,-0.063538 -0.185909,-0.276428 -0.105309,-0.475525c0.080601,-0.199036 0.25843,-0.308838 0.39719,-0.2453c0.138771,0.063599 0.185921,0.276489 0.105309,0.475525z" fill="#800000"/>
     <path id="svg_704" d="m-51.40921,515.347961c0.17355,0.010925 0.30769,0.124084 0.29961,0.252808c-0.00808,0.128723 -0.1553,0.224182 -0.32885,0.213196c-0.17355,-0.010925 -0.307682,-0.124146 -0.29961,-0.252808c0.00808,-0.128723 0.1553,-0.224182 0.32885,-0.213196z" fill="#800000"/>
    </g>
   </pattern>
   <pattern patternUnits="userSpaceOnUse" width="4.531986" height="4.508552" patternTransform="translate(-50.633428,507.29656)" id="svg_494">
    <g id="svg_693">
     <path d="m0.79009,2.82555c-0.43626,0.00012 -0.78998,-0.23455 -0.79008,-0.52419c-0.0001,-0.28965 0.35345,-0.52451 0.7897,-0.52464c0.43626,-0.00012 0.78998,0.23455 0.79008,0.52419c0.0001,0.28965 -0.35345,0.52452 -0.7897,0.52464z" id="svg_702" fill="#800000"/>
     <path d="m3.82611,1.481c-0.45448,0.31616 -0.8984,0.29682 -0.99156,-0.04324c-0.09315,-0.34001 0.19973,-0.87197 0.65421,-1.18813c0.45448,-0.31616 0.89842,-0.29677 0.99157,0.04324c0.09316,0.34005 -0.19974,0.87197 -0.65422,1.18813z" id="svg_701" fill="#800000"/>
     <path id="svg_700" d="m2.31355,1.64747c0.32663,0.02919 0.57908,0.33114 0.56388,0.67444c-0.01519,0.34331 -0.29228,0.59792 -0.61891,0.56873c-0.32663,-0.02919 -0.57908,-0.33112 -0.56388,-0.67444c0.01519,-0.34329 0.29228,-0.59792 0.61891,-0.56873z" fill="#800000"/>
     <path id="svg_699" d="m3.74229,2.77869c-0.43626,0.00012 -0.78998,-0.23455 -0.79008,-0.52419c-0.0001,-0.28965 0.35345,-0.52451 0.7897,-0.52464c0.43626,-0.00012 0.78998,0.23455 0.79008,0.52419c0.00011,0.28965 -0.35345,0.52452 -0.7897,0.52464z" fill="#800000"/>
     <path d="m2.79041,0.7897c0.00012,0.43625 -0.23456,0.78997 -0.52419,0.79007c-0.28964,0.00011 -0.52452,-0.35345 -0.52464,-0.7897c-0.00012,-0.43626 0.23455,-0.78998 0.52419,-0.79008c0.28964,-0.0001 0.52451,0.35345 0.52464,0.78971z" id="svg_698" fill="#800000"/>
     <path id="svg_697" d="m2.81384,3.71846c0.00012,0.43626 -0.23456,0.78998 -0.52419,0.79008c-0.28964,0.0001 -0.52452,-0.35345 -0.52464,-0.78971c-0.00012,-0.43625 0.23455,-0.78997 0.52419,-0.79008c0.28964,-0.0001 0.52451,0.35346 0.52464,0.78971z" fill="#800000"/>
     <path id="svg_696" d="m1.04964,4.2809c-0.45448,0.31616 -0.8984,0.29682 -0.99157,-0.04324c-0.09315,-0.34001 0.19974,-0.87197 0.65422,-1.18813c0.45448,-0.31616 0.89842,-0.29677 0.99157,0.04324c0.09316,0.34005 -0.19974,0.87197 -0.65422,1.18813z" fill="#800000"/>
     <path d="m1.49665,0.72009c0.31616,0.45448 0.2968,0.89841 -0.04323,0.99157c-0.34006,0.09316 -0.87197,-0.19974 -1.18813,-0.65422c-0.31616,-0.45448 -0.29682,-0.89841 0.04323,-0.99157c0.34004,-0.09316 0.87197,0.19974 1.18813,0.65422z" id="svg_695" fill="#800000"/>
     <path id="svg_694" d="m4.24969,3.4497c0.31616,0.45448 0.2968,0.89841 -0.04323,0.99156c-0.34006,0.09317 -0.87197,-0.19973 -1.18813,-0.65421c-0.31616,-0.45448 -0.29682,-0.89841 0.04323,-0.99157c0.34004,-0.09316 0.87197,0.19974 1.18813,0.65422z" fill="#800000"/>
    </g>
   </pattern>
   <pattern patternUnits="userSpaceOnUse" width="5.599999" height="5.602892" patternTransform="translate(-82.238578,518.8986)" id="svg_684">
    <path d="m1.54863,1.40171c-0.20223,0.30401 -0.51722,0.5098 -0.82617,0.53963c-0.30894,0.0299 -0.56484,-0.12065 -0.67114,-0.39483c-0.10637,-0.27416 -0.04692,-0.63028 0.15584,-0.93397c0.20222,-0.30401 0.51723,-0.50979 0.82617,-0.53962c0.30894,-0.0299 0.56484,0.12064 0.67114,0.39482c0.10637,0.27416 0.0469,0.63027 -0.15584,0.93397z" id="svg_692" fill="#800000"/>
    <path id="svg_691" d="m1.98906,2.64646c0.19203,0.32635 0.23141,0.69908 0.10315,0.97755c-0.12819,0.27849 -0.40445,0.42039 -0.72454,0.37215c-0.3201,-0.04817 -0.63535,-0.2792 -0.82681,-0.60585c-0.19206,-0.32634 -0.23142,-0.69908 -0.10316,-0.97755c0.12819,-0.2785 0.40445,-0.4204 0.72454,-0.37216c0.3201,0.04818 0.63533,0.27922 0.82682,0.60586z" fill="#800000"/>
    <path d="m3.59807,0.6644c0.25122,0.3893 0.34064,0.85643 0.23437,1.22515c-0.10619,0.36874 -0.39184,0.583 -0.74916,0.56193c-0.35732,-0.02098 -0.73199,-0.27415 -0.98262,-0.6639c-0.25125,-0.38929 -0.34065,-0.85644 -0.23438,-1.22515c0.1062,-0.36874 0.39184,-0.583 0.74917,-0.56193c0.35732,0.02098 0.73196,0.27417 0.98262,0.6639z" id="svg_690" fill="#740000"/>
    <path id="svg_689" d="m1.00426,5.60289c-0.32903,0.00038 -0.6333,-0.13648 -0.79795,-0.35904c-0.16471,-0.22251 -0.16479,-0.49684 -0.00022,-0.71947c0.16452,-0.22267 0.46871,-0.35976 0.79774,-0.35957c0.32903,-0.0004 0.6333,0.13648 0.79795,0.35904c0.16471,0.22252 0.16479,0.49685 0.00022,0.71947c-0.16452,0.22267 -0.46871,0.35973 -0.79774,0.35957z" fill="#7b0000"/>
    <path id="svg_688" d="m3.68215,4.71665c-0.3274,0.26392 -0.72752,0.36907 -1.04942,0.27561c-0.32192,-0.09337 -0.51666,-0.37105 -0.51075,-0.72826c0.00583,-0.35722 0.21148,-0.73965 0.53928,-1.00299c0.32738,-0.26395 0.72752,-0.36906 1.04942,-0.27561c0.32191,0.09337 0.51666,0.37105 0.51075,0.72826c-0.00583,0.35722 -0.2115,0.73962 -0.53928,1.00299z" fill="#800000"/>
    <path id="svg_687" d="m5.30715,1.41758c-0.19604,0.29874 -0.48169,0.48704 -0.74922,0.49375c-0.26753,0.00678 -0.47624,-0.169 -0.54737,-0.46102c-0.0712,-0.29199 0.00604,-0.65583 0.20251,-0.9542c0.19602,-0.29876 0.48169,-0.48705 0.74922,-0.49375c0.26753,-0.00678 0.47624,0.169 0.54738,0.46101c0.07119,0.29199 -0.00607,0.65582 -0.20252,0.95421z" fill="#800000"/>
    <path d="m5.50586,4.8383c-0.12457,0.33184 -0.35443,0.58212 -0.60292,0.65632c-0.24847,0.07426 -0.47775,-0.0388 -0.60133,-0.29651c-0.12363,-0.25768 -0.12273,-0.62086 0.00232,-0.95247c0.12455,-0.33185 0.35444,-0.58212 0.60292,-0.65631c0.24847,-0.07426 0.47775,0.03879 0.60133,0.29651c0.12363,0.25768 0.12271,0.62085 -0.00232,0.95246z" id="svg_686" fill="#800000"/>
    <path d="m4.86045,2.0766c0.26873,0.01801 0.51052,0.14914 0.63411,0.344c0.12363,0.19482 0.11029,0.42371 -0.03499,0.60028c-0.14524,0.17661 -0.40036,0.27404 -0.66905,0.25555c-0.26872,-0.01799 -0.51052,-0.14914 -0.63411,-0.34399c-0.12363,-0.19483 -0.11029,-0.42371 0.03499,-0.60029c0.14524,-0.17661 0.40036,-0.27401 0.66905,-0.25555z" id="svg_685" fill="#800000"/>
   </pattern>
   <pattern patternUnits="userSpaceOnUse" width="5.734434" height="5.737327" patternTransform="translate(-80.016642,517.46531)" id="svg_511">
    <rect id="svg_680" y="0.067217" x="0.067217" height="5.602892" width="5.599999" filter="url(#svg_682)" fill="url(#svg_681)"/>
   </pattern>
   <pattern height="100" width="100" y="0" x="0" patternUnits="userSpaceOnUse" id="gridpattern">
    <image height="100" width="100" y="0" x="0"/>
   </pattern>
  </defs>
  <metadata id="svg_679">image/svg+xml</metadata>
  <g id="svg_981" transform="matrix(0.580874, 0, 0, 0.546221, 113.568, 39.5637)">
   <g id="svg_973" transform="matrix(0.230807 0 0 0.230807 156 56)">
    <path d="m-171.882416,-100.058968c4.843033,13.105011 13.583023,18.121994 11.341019,32.994011c-2.536026,16.817997 -5.322998,29.709988 -0.013977,46.822987c10.96698,35.35202 45.660973,50.36001 74.323967,67.68301c15.21701,9.19598 26.529007,22.35598 37.943016,35.707001c12.265972,14.346992 26.783991,27.51001 36.365991,43.86499c9.423001,16.083008 15.429991,34.244995 23.547001,51.009003c9.342,19.294006 18.258,38.265991 24.048999,58.970001c4.452999,15.919968 6.174011,32.289001 5.983002,48.777985c4.883011,-18.100006 -7.985001,-44.513977 -12.330992,-61.764984c-6.709,-26.638 -13.419009,-53.274033 -20.129009,-79.912018c23.987009,36.875 47.974009,73.75 71.961008,110.625c-9.786987,-25.703995 -29.193008,-45.250977 -43.412006,-68.315002c-15.164001,-24.597992 -25.233002,-52.439972 -38.718982,-78.020966c18.379981,23.103973 40.145991,41.963989 62.573989,60.939972c-0.139999,-4.666992 2.292999,-9.446991 0.392002,-13.585999c-2.03299,-4.424988 -8.132992,-6.833008 -10.55801,-11.644989c-8.194,-16.255005 -14.126991,-28.36499 -26.13199,-42.829994c-25.37901,-30.580009 -51.587011,-57.37899 -68.313002,-93.90101c-8.296997,-18.118 -16.385017,-36.325999 -26.010986,-53.783c-9.495033,-17.217991 -21.330032,-31.071011 -31.683022,-47.425999c-8.494987,-13.419998 -13.048988,-22.21701 -26.399002,-31.052002c-9.333,-6.177002 -31.260994,-3.594986 -39.305977,3.882004c-3.709,3.447006 -4.400024,10.409996 -7.822021,13.198006c-4.955002,4.03698 -15.177979,0.83699 -19.944992,5.820992c6.942001,2.362999 15.027008,1.653 22.293976,1.941002" id="svg_980" clip-rule="evenodd" fill-rule="evenodd" fill="#ffff56"/>
    <path d="m-171.882416,-100.058968c4.843033,13.105011 13.583023,18.121994 11.341019,32.994011c-2.536026,16.817997 -5.322998,29.709988 -0.013977,46.822987c10.96698,35.35202 45.660973,50.36001 74.323967,67.68301c15.21701,9.19598 26.529007,22.35598 37.943016,35.707001c12.265972,14.346992 26.783991,27.51001 36.365991,43.86499c9.423001,16.083008 15.429991,34.244995 23.547001,51.009003c9.342,19.294006 18.258,38.265991 24.048999,58.970001c4.452999,15.919968 6.174011,32.289001 5.983002,48.777985c4.883011,-18.100006 -7.985001,-44.513977 -12.330992,-61.764984c-6.709,-26.638 -13.419009,-53.274033 -20.129009,-79.912018c23.987009,36.875 47.974009,73.75 71.961008,110.625c-9.786987,-25.703995 -29.193008,-45.250977 -43.412006,-68.315002c-15.164001,-24.597992 -25.233002,-52.439972 -38.718982,-78.020966c18.379981,23.103973 40.145991,41.963989 62.573989,60.939972c-0.139999,-4.666992 2.292999,-9.446991 0.392002,-13.585999c-2.03299,-4.424988 -8.132992,-6.833008 -10.55801,-11.644989c-8.194,-16.255005 -14.126991,-28.36499 -26.13199,-42.829994c-25.37901,-30.580009 -51.587011,-57.37899 -68.313002,-93.90101c-8.296997,-18.118 -16.385017,-36.325999 -26.010986,-53.783c-9.495033,-17.217991 -21.330032,-31.071011 -31.683022,-47.425999c-8.494987,-13.419998 -13.048988,-22.21701 -26.399002,-31.052002c-9.699989,-6.419006 -30.804008,-3.251007 -39.305977,3.882004c-0.814026,0.682999 -1.638016,1.535988 -2.346008,2.328987" id="svg_979" stroke-miterlimit="10" stroke-linecap="square" stroke-width="0.3806" stroke="#000000" fill="#ffff56"/>
    <path d="m-168.754425,-118.689972c-1.876968,3.110001 -3.649963,10.94101 -7.285965,11.457001c-5.857025,0.832001 -14.237991,1.159004 -18.13501,5.233009c6.94101,2.362 15.026016,1.653 22.292984,1.939995" id="svg_978" stroke-miterlimit="10" stroke-linecap="square" stroke-width="0.3806" stroke="#000000" fill="#ffff56"/>
    <path d="m-127.2994,68.013031c4.465004,-2.398994 8.924004,-4.84399 13.689003,-6.59798c-1.389,0.362 -4.081993,1.968979 -5.085014,2.32901c-0.405991,-0.156021 0.789001,-0.80003 0.392014,-0.77702c0.400002,1.620003 0.884995,3.713989 1.173996,6.210999c4.85199,-10.432011 4.031006,-10.42902 15.251999,-9.31501c9.143005,0.907021 11.701004,2.29401 19.557007,7.375c-3.951004,-9.077999 -10.878006,-10.97298 -19.557007,-6.987999c2.66301,-8.72599 13.925995,-10.875 21.901001,-11.64397c-9.52301,-4.508041 -17.55101,5.937981 -26.007011,8.73299c-7.807999,2.58197 -17.132988,2.470989 -21.315987,10.673981" id="svg_977" clip-rule="evenodd" fill-rule="evenodd" fill="#ffff56"/>
    <path d="m-127.2994,68.013031c4.465004,-2.398994 8.924004,-4.84399 13.689003,-6.59798c-1.389,0.362 -4.081993,1.968979 -5.085014,2.32901c-0.405991,-0.156021 0.789001,-0.80003 0.392014,-0.77702c0.400002,1.620003 0.884995,3.713989 1.173996,6.210999c4.85199,-10.432011 4.031006,-10.42902 15.251999,-9.31501c9.143005,0.907021 11.701004,2.29401 19.557007,7.375c-3.951004,-9.077999 -10.878006,-10.97298 -19.557007,-6.987999c2.66301,-8.72599 13.925995,-10.875 21.901001,-11.64397c-9.52301,-4.508041 -17.55101,5.937981 -26.007011,8.73299c-7.807999,2.58197 -17.132988,2.470989 -21.315987,10.673981" id="svg_976" stroke-miterlimit="10" stroke-linecap="square" stroke-width="0.3806" stroke="#000000" fill="#ffff56"/>
    <path d="m-127.2994,48.60606c4.512009,-2.42701 9.084,-4.74004 13.689003,-6.986031c-1.350006,0.33102 -3.641014,2.078011 -5.085014,2.71701c2.636009,0.792992 0.527008,0.66198 1.565002,5.43301c4.944,-10.627022 3.970001,-10.43903 15.252007,-9.31501c8.735001,0.869999 12.123016,1.646 19.556999,6.986c-3.933983,-9.47501 -11.085999,-9.88699 -19.556999,-6.986c3.064003,-8.546989 13.820999,-10.479 21.900993,-11.257019c-8.756989,-4.901001 -18.301003,5.138 -26.006989,8.540009c-7.404015,3.26902 -17.530014,2.234009 -21.315002,10.868011" id="svg_975" clip-rule="evenodd" fill-rule="evenodd" fill="#ffff56"/>
    <path d="m-127.2994,48.60606c4.512009,-2.42701 9.084,-4.74004 13.689003,-6.986031c-1.350006,0.33102 -3.641014,2.078011 -5.085014,2.71701c2.636009,0.792992 0.527008,0.66198 1.565002,5.43301c4.944,-10.627022 3.970001,-10.43903 15.252007,-9.31501c8.735001,0.869999 12.123016,1.646 19.556999,6.986c-3.933983,-9.47501 -11.085999,-9.88699 -19.556999,-6.986c3.064003,-8.546989 13.820999,-10.479 21.900993,-11.257019c-8.756989,-4.901001 -18.301003,5.138 -26.006989,8.540009c-7.404015,3.26902 -17.530014,2.234009 -21.315002,10.868011" id="svg_974" stroke-miterlimit="10" stroke-linecap="square" stroke-width="0.3806" stroke="#000000" fill="#ffff56"/>
   </g>
  </g>
  <g transform="rotate(-14.3306, 24.6057, 126.059) matrix(1.02529, 0, 0, 1.21319, -62.4519, -353.172)" id="svg_991">
   <metadata id="svg_993">image/svg+xml</metadata>
   <g transform="matrix(0.441545, 0, 0, 0.350201, 2.01049, 0.428472)" id="svg_994">
    <g id="svg_995">
     <path d="m131.075546,1240.913208c-5.077744,-2.640869 -10.207649,-4.946777 -14.913589,-8.333252c-10.05658,-7.706055 -18.564987,-16.622559 -25.948959,-26.897217c-8.472954,-11.733643 -11.070679,-25.171631 -11.315125,-39.318359c1.427307,-14.806641 9.026367,-26.431152 19.117249,-36.821777c12.297981,-10.630615 26.767586,-18.044189 42.58374,-21.563965c17.509888,-3.31543 34.810974,-0.540039 51.7146,4.226563c15.620239,5.002686 28.552368,14.250732 38.52063,27.124023c9.231567,14.171875 6.759521,28.649658 0.916504,43.476318c-9.0625,17.610352 -22.656006,32.241943 -35.16272,47.405762c-13.734497,15.315674 -24.492432,32.687012 -33.416504,51.12793c-3.05481,11.607422 -9.776978,24.2229 -8.122803,36.04248c0.140015,1.000488 -1.2771,1.197266 -1.415039,0.196533l0,0c-2.02124,-14.672119 -6.129761,-25.500732 3.087158,-39.514893c9.786377,-18.427734 22.734253,-34.794189 34.457397,-51.999512c10.872314,-15.280518 22.190186,-30.487061 30.410156,-47.404297c4.800171,-11.295654 6.876465,-22.389404 1.282227,-33.913574c-7.424561,-12.870361 -18.485352,-21.390381 -32.374268,-26.717041c-15.756104,-5.427979 -32.13623,-7.564209 -48.702454,-4.687012c-15.166557,3.383057 -29.66925,7.339355 -40.667656,19.14917c-8.895943,9.635254 -15.779854,20.580078 -16.775093,33.999512c-0.888,13.134521 2.606689,25.209961 9.890991,36.234375c7.157173,9.532715 15.681892,18.162354 25.425972,25.062256c4.024719,2.996094 7.935371,7.369141 12.914055,8.439697c3.402954,0.731445 1.581665,6.292236 -1.50647,4.686279z" stroke-width="1px" fill-rule="nonzero" fill="#000000" id="svg_996"/>
     <path d="m275.130219,969.680725c4.972778,-2.520386 10.335938,-3.69165 15.759277,-4.790771c11.285278,-1.807983 22.673065,-1.259399 33.885834,0.647217c10.961792,3.009521 18.968506,10.196533 26.357422,18.422974c6.50769,8.88208 8.394165,17.809326 4.309814,28.06665c-5.430176,11.00769 -16.412842,17.081238 -26.373535,23.447937c-12.290039,7.348633 -24.93869,14.049561 -37.482513,20.944824c-14.444458,7.148682 -27.381836,16.517578 -39.960815,26.481934c-14.420273,11.944336 -26.036484,26.558105 -35.906723,42.365967c-9.792358,14.862061 -14.708862,31.665527 -17.640747,49.020752c-2.78418,13.042969 -0.153442,25.415039 4.351074,37.659424c0.348755,0.947998 -0.993408,1.440918 -1.341064,0.492432l0,0c-4.563354,-12.450684 -6.791382,-25.318115 -6.390137,-38.637451c2.16626,-18.130371 8.557007,-34.790283 18.356323,-50.23877c10.387817,-15.879883 21.283936,-31.567383 35.654907,-44.169922c12.318222,-10.734619 25.598984,-20.367188 39.679062,-28.675293c12.227661,-6.998535 24.641693,-13.787842 36.116791,-21.989502c7.979736,-5.724182 15.871094,-11.775208 20.626587,-20.597351c2.262451,-6.584839 2.892212,-12.873169 -0.837036,-19.171021c-4.713989,-8.41687 -12.320557,-14.170288 -21.165527,-17.901367c-10.143066,-4.541016 -20.688934,-6.051025 -31.651093,-3.518433c-5.106934,1.237671 -10.2323,2.686401 -14.942993,5.064331c-2.048096,1.033813 -3.451172,-1.887451 -1.404907,-2.924561z" stroke-width="1px" fill-rule="nonzero" fill="#000000" id="svg_997"/>
     <path d="m245.649033,1124.966919c1.660522,-2.41748 4.790146,-3.422119 7.427109,-4.618164c7.371216,-3.456787 13.661377,-8.562012 19.538818,-14.109375c8.010132,-7.794189 13.853638,-17.13501 19.102295,-26.899658c4.392334,-9.6521 6.236328,-20.259277 5.915771,-30.817383c-1.164063,-7.237061 -2.571289,-14.545654 -9.195435,-18.435303c-0.870972,-0.511475 -0.1427,-1.745605 0.726196,-1.230225l0,0c8.565918,5.079834 16.640869,8.228027 15.79187,19.966797c-1.16333,11.397705 -5.921265,21.479248 -10.978394,31.651123c-4.831299,10.307617 -11.078247,19.875 -18.762695,28.306885c-5.685791,6.281494 -11.645386,12.295166 -18.116821,17.775879c-2.087158,1.803711 -4.522095,4.251465 -7.205811,4.518066c-5.233505,0.519775 -7.220688,-1.773682 -4.242905,-6.108643z" stroke-width="1px" fill-rule="nonzero" fill="#000000" id="svg_998"/>
     <path d="m171.588364,1253.34729c0.880615,-3.320557 4.05603,-5.700928 6.27832,-8.368408c5.548706,-7.371338 8.772705,-15.713623 11.423706,-24.462402c1.9198,-10.176025 1.761597,-20.39502 -1.136108,-30.327393c-2.361816,-8.290039 -7.018677,-15.609619 -13.249878,-21.502197c-6.661255,-6.011963 -14.573975,-6.776123 -23.126465,-5.737793c-5.893677,0.903076 -10.802795,3.486084 -15.803833,6.532959c-0.862671,0.525635 -1.605835,-0.695557 -0.742676,-1.220459l0,0c5.138672,-3.123535 10.133423,-6.569336 15.752441,-8.800049c10.442932,-3.400146 20.644775,-4.149414 29.912476,2.842041c7.757202,7.240479 12.758423,15.936768 14.815674,26.451416c1.151611,11.103027 0.474243,22.047119 -3.526611,32.599365c-2.508423,9.07666 -5.453369,18.256836 -9.967285,26.536133c-1.762329,3.271484 -3.401367,7.325684 -6.914978,8.651855c-3.241577,1.223633 -4.602966,0.153809 -3.714783,-3.195068z" stroke-width="1px" fill-rule="nonzero" fill="#000000" id="svg_999"/>
     <path d="m217.510849,1193.19397c2.465942,-2.000732 3.960327,-4.804199 5.595337,-7.470215c4.230103,-7.087891 9.269653,-13.621338 14.458618,-20.021484c7.44751,-9.285645 15.742783,-17.80835 24.289536,-26.07251c8.59729,-6.803955 15.250977,-14.995117 21.831421,-23.626953c6.02417,-9.341309 13.468262,-13.336914 24.146973,-9.553955c5.552216,2.825928 7.422333,8.100098 10.199921,13.251709c0.746338,0.600098 1.492554,1.200195 2.238892,1.800293c0.787231,0.633057 0.84729,0.877441 0.000732,1.428467l0,0c-0.923096,0.601074 -1.846191,1.201904 -2.769409,1.802979c-5.537964,3.340332 -12.03183,3.103027 -17.811127,0.091064c-1.885376,-4.288574 -6.687988,-2.976318 -10.996216,-2.149658c-10.33252,3.812012 -18.370483,9.852783 -25.848145,17.98291c-8.505615,8.223877 -16.761581,16.704346 -24.172958,25.945557c-5.150024,6.351074 -10.152832,12.833984 -14.350464,19.868408c-1.610107,2.625488 -3.523193,5.175293 -4.308716,8.188721c-0.517578,1.985352 -4.097534,-0.172607 -2.504395,-1.465332z" stroke-width="1px" fill-rule="nonzero" fill="#000000" id="svg_1000"/>
     <path d="m139.0504,1113.870483c-2.376343,-0.205811 -4.771179,-0.495605 -7.169922,-0.663574c-7.419785,0.071533 -14.649284,2.274902 -21.673706,4.474121c-13.99707,5.703125 -26.403145,14.377441 -38.454948,23.348877c-16.384052,12.584229 -30.689014,27.552246 -41.557434,45.121338c-8.047668,12.465332 -0.47205,26.270996 -3.452869,38.905518c1.12767,1.664795 2.25531,3.329346 3.38298,4.993896c0.56653,0.836182 -0.621019,1.637451 -1.184311,0.798828l0,0c-1.169449,-1.740723 -2.338879,-3.481201 -3.508308,-5.221924c-14.068541,-10.780273 -5.741581,-28.283447 3.2785,-40.432617c11.585518,-17.284668 25.51305,-32.73877 42.188469,-45.311035c12.155701,-9.046631 24.671379,-17.78833 38.790222,-23.534424c7.040649,-3.288818 14.228401,-6.136475 21.891602,-7.605957c2.659912,-0.434082 5.488159,-0.889893 8.077637,-0.079834c3.537842,1.106689 3.085144,5.526855 -0.60791,5.206787z" stroke-width="1px" fill-rule="nonzero" fill="#000000" id="svg_1001"/>
     <path d="m202.491684,1240.591431c2.473633,-2.673096 5.072754,-5.262695 7.810669,-7.68042c7.481445,-6.092285 13.93103,-13.140869 20.618286,-20.07373c6.849365,-8.984131 15.6073,-16.381592 23.861923,-24.064209c10.331421,-8.929443 19.511475,-11.264648 32.762329,-8.407959c1.869019,-1.404541 3.738037,-2.808838 5.607056,-4.213379c0.807617,-0.606934 1.665771,0.535645 0.858032,1.14209l0,0c-1.89209,1.420898 -3.78418,2.841553 -5.676392,4.262451c-3.177368,13.648926 -9.668335,20.418457 -22.771362,25.32373c-10.401489,3.379883 -20.353745,7.728271 -30.639023,11.39502c-8.548218,4.265625 -16.942993,8.653564 -23.614624,15.650146c-2.31189,2.588379 -4.580078,5.11377 -5.692749,8.459717c-0.803833,2.417236 -4.854248,0.076172 -3.124146,-1.793457z" stroke-width="1px" fill-rule="nonzero" fill="#000000" id="svg_1002"/>
     <path d="m337.993225,977.718201c-2.16687,-1.16394 -4.283203,-2.495483 -6.465576,-3.672607c-4.993774,-3.491333 -10.470703,-6.219971 -15.982422,-8.783691c-5.454437,-2.764771 -11.19455,-4.937988 -16.405609,-8.161377c-4.4021,-2.582275 -7.329834,-6.06665 -8.531494,-11.001343c0.812622,-7.465027 9.399658,-8.207703 15.376709,-9.303894c8.074799,-1.844116 16.320892,-1.688354 24.526337,-1.243774c5.719971,0.258301 10.956787,1.422363 15.248413,5.339966c4.26062,5.85614 -1.066772,9.516541 -6.492554,10.728577c-0.962891,0.383179 -1.925659,0.766235 -2.88855,1.149414c-0.938599,0.373535 -1.465942,-0.957275 -0.526367,-1.328125l0,0c0.915161,-0.361084 1.830322,-0.722168 2.745483,-1.083374c1.852905,-1.944092 3.472534,-3.597412 3.417847,-6.298767c-2.830811,-3.891357 -6.852661,-5.876709 -11.680786,-6.753662c-7.980835,-1.187134 -16.095703,-0.723267 -23.999603,0.874756c-4.449463,1.459106 -8.994751,2.811157 -11.127197,7.266541c0.681274,3.723755 2.625,6.435425 5.788452,8.789429c4.954102,3.37439 10.198975,6.261719 15.67099,8.71167c5.437134,2.745239 10.911865,5.476685 16.636475,7.578735c2.445679,1.151733 5.123047,1.975952 7.212402,3.733032c2.31665,1.948242 0.143799,4.890869 -2.522949,3.458496z" stroke-width="1px" fill-rule="nonzero" fill="#000000" id="svg_1003"/>
    </g>
   </g>
  </g>
  <path d="m94.903122,142.349976c0.958549,-1.061508 2.432808,-0.871109 3.748055,-1.139923c4.294777,-1.064178 7.680573,-4.406708 10.7173,-7.860611c4.547012,-4.856339 8.10714,-10.762772 11.75148,-16.497543c3.894012,-6.382896 7.668221,-12.892555 12.072243,-18.830666c4.06572,-5.437981 9.292786,-9.123566 15.103714,-11.568382c5.83905,-2.295914 11.461639,-1.72039 16.989319,1.247192c5.799332,3.90036 8.222687,10.476776 10.093063,17.526443c1.77478,7.492584 1.676651,15.159363 0.865387,22.781693c-1.240662,7.840271 -4.676559,14.415909 -9.331467,20.160553c-5.250443,5.952103 -11.735275,9.205063 -18.656342,11.702759c-8.7771,2.378113 -17.723389,3.849136 -26.716743,4.598907c-9.918335,0.817383 -19.852844,1.069214 -29.778168,1.754715c-9.28212,0.783691 -18.546562,2.141876 -27.690834,4.115982c-6.734509,1.310013 -13.122608,3.898499 -18.9716,7.908325c-4.9035,3.648651 -8.792679,8.483749 -11.235569,14.566635c-2.509411,6.585617 -1.72916,13.374313 -0.209652,20.116531c1.781792,7.898926 6.005779,14.30658 10.6553,20.294632c0.453602,0.584183 -0.264259,1.317688 -0.717529,0.73317l0,0c-4.763611,-6.142838 -8.711021,-12.979553 -12.167139,-20.177307c-2.67169,-7.512024 -3.35288,-15.030487 -0.49369,-22.661926c3.069571,-6.562744 6.78475,-12.389832 12.54616,-16.152939c6.319649,-3.893494 13.168819,-5.76265 20.272758,-6.835846c9.27523,-1.478989 18.564064,-2.706787 27.900803,-3.583008c9.876862,-0.959641 19.783112,-1.530594 29.650322,-2.607651c8.690186,-1.373367 17.530746,-2.415207 25.824509,-5.864471c6.113205,-2.567017 12.110046,-5.787857 16.77121,-11.136017c4.129654,-5.080536 7.394485,-10.667694 8.516586,-17.64566c1.203156,-6.942535 1.165085,-13.993561 -0.437653,-20.880081c-1.556076,-5.743622 -3.849243,-11.215569 -8.398666,-14.6017c-4.477203,-2.546478 -9.177048,-3.090439 -14.015305,-1.465454c-5.248962,2.249451 -9.915192,5.564621 -13.822891,10.229553c-4.462952,5.705399 -8.428856,11.831406 -12.000191,18.322449c-3.462509,6.287369 -6.928749,12.600754 -11.331184,18.10025c-3.689468,3.912003 -7.505646,7.629074 -12.104469,10.080627c-2.414902,1.200226 -4.698341,2.301437 -6.966148,0.428665c-2.740204,-2.262833 -0.853798,-2.479172 1.567032,-5.159897z" id="path2258" stroke-width="1px" fill-rule="nonzero" fill="#7f7f7f"/>
  <path d="m65.644676,199.647385c-0.54525,1.585663 -0.612885,1.363449 -2.217926,1.825806c-0.51292,0.073181 -1.025841,0.146362 -1.538731,0.219589c-0.67498,0.096283 -0.320511,0.166901 -0.95797,-0.10907l0,0c-0.489189,-0.211823 -0.978378,-0.423615 -1.467571,-0.635391c-1.430058,-1.060211 -1.609848,-0.863068 -1.679577,-2.70842c-0.243721,-6.450455 9.923885,-4.589615 7.861767,1.407486l0.000008,0z" id="path2286" stroke-width="1px" fill-rule="nonzero" fill="#7f7f7f"/>
  <path d="m63.81559,208.974442c-0.341679,1.951172 -2.99049,2.010269 -4.463551,2.658005c-0.634659,0.279083 -0.29813,0.361084 -0.95327,0.147247l0,0c-2.462898,-0.804108 -4.886829,-1.062317 -4.527878,-4.435181c0.860668,-8.086761 11.342968,-6.355072 9.944698,1.629929z" id="path2300" stroke-width="1px" fill-rule="nonzero" fill="#7f7f7f"/>
  <path d="m75.280853,203.680878c0.064484,2.861115 -2.566452,3.288177 -4.332825,4.315964c-0.616989,0.359055 -0.356712,0.364868 -0.96209,-0.02977l0,0c-1.857986,-1.211212 -4.406097,-1.673096 -4.20668,-4.701645c0.556145,-8.446106 9.310539,-8.059769 9.501595,0.415451z" id="path2302" stroke-width="1px" fill-rule="nonzero" fill="#7f7f7f"/>
  <path d="m70.967873,215.660156c-0.741753,2.498489 -2.150261,3.252594 -3.735451,4.524582c-0.550461,0.441711 -0.323555,0.407257 -0.880005,-0.022659l0,0c-1.562065,-1.206879 -2.987156,-1.931976 -3.754128,-4.354691c-2.586658,-8.170609 10.81675,-8.390167 8.369583,-0.147232z" id="path2304" stroke-width="1px" fill-rule="nonzero" fill="#7f7f7f"/>
  <g transform="matrix(0.532311, 0, 0, 0.545191, 69.8601, 12.2802)" id="svg_990">
   <g transform="matrix(-0.195112, 0, 0, 0.18968, 167.008, 63.8603)" id="svg_6">
    <path d="m-101.600533,223.465332c4.842979,13.105011 13.58297,18.122009 11.341003,32.994019c-2.536011,16.817993 -5.322998,29.709991 -0.014008,46.822998c10.96698,35.35199 45.660976,50.359985 74.323977,67.682983c15.21701,9.195984 26.52902,22.356018 37.94302,35.707001c12.265989,14.347015 26.783998,27.51001 36.365969,43.865021c9.423035,16.083008 15.430023,34.244995 23.547035,51.008972c9.34198,19.294006 18.257957,38.266174 24.048973,58.970215c4.453003,15.919983 6.174011,32.289001 5.982971,48.777954c4.883049,-18.099976 -7.984985,-44.513977 -12.33094,-61.764954c-6.709007,-26.638184 -13.419029,-53.274231 -20.129021,-79.912231c23.987,36.875 47.974007,73.750183 71.961006,110.625183c-9.786987,-25.703979 -29.193001,-45.251038 -43.411995,-68.315186c-15.164001,-24.597961 -25.233002,-52.439941 -38.719002,-78.020966c18.379982,23.103973 40.146004,41.96402 62.57399,60.939972c-0.139954,-4.666992 2.29303,-9.44696 0.392029,-13.585999c-2.03302,-4.424988 -8.133064,-6.833008 -10.557999,-11.644958c-8.194023,-16.255005 -14.127068,-28.365021 -26.132019,-42.830017c-25.379021,-30.580017 -51.587029,-57.378998 -68.312977,-93.901001c-8.297031,-18.118011 -16.38502,-36.325989 -26.011021,-53.78302c-9.495,-17.217987 -21.330019,-31.070984 -31.68298,-47.42598c-8.495029,-13.419998 -13.049019,-22.21701 -26.399021,-31.052002c-9.333008,-6.177002 -31.261017,-3.595001 -39.306,3.882004c-3.70903,3.446991 -4.40004,10.409988 -7.821999,13.197998c-4.955009,4.037003 -15.178009,0.83699 -19.945,5.820999c6.941971,2.362991 15.02697,1.653 22.293999,1.940994" clip-rule="evenodd" fill-rule="evenodd" fill="#ffff56" id="svg_7"/>
    <path d="m-101.600533,223.465332c4.842979,13.105011 13.58297,18.122009 11.341003,32.994019c-2.536011,16.817993 -5.322998,29.709991 -0.014008,46.822998c10.96698,35.35199 45.660976,50.359985 74.323977,67.682983c15.21701,9.195984 26.52902,22.356018 37.94302,35.707001c12.265989,14.347015 26.783998,27.51001 36.365969,43.865021c9.423035,16.083008 15.430023,34.244995 23.547035,51.008972c9.34198,19.294006 18.257957,38.266174 24.048973,58.970215c4.453003,15.919983 6.174011,32.289001 5.982971,48.777954c4.883049,-18.099976 -7.984985,-44.513977 -12.33094,-61.764954c-6.709007,-26.638184 -13.419029,-53.274231 -20.129021,-79.912231c23.987,36.875 47.974007,73.750183 71.961006,110.625183c-9.786987,-25.703979 -29.193001,-45.251038 -43.411995,-68.315186c-15.164001,-24.597961 -25.233002,-52.439941 -38.719002,-78.020966c18.379982,23.103973 40.146004,41.96402 62.57399,60.939972c-0.139954,-4.666992 2.29303,-9.44696 0.392029,-13.585999c-2.03302,-4.424988 -8.133064,-6.833008 -10.557999,-11.644958c-8.194023,-16.255005 -14.127068,-28.365021 -26.132019,-42.830017c-25.379021,-30.580017 -51.587029,-57.378998 -68.312977,-93.901001c-8.297031,-18.118011 -16.38502,-36.325989 -26.011021,-53.78302c-9.495,-17.217987 -21.330019,-31.070984 -31.68298,-47.42598c-8.495029,-13.419998 -13.049019,-22.21701 -26.399021,-31.052002c-9.70002,-6.419006 -30.804016,-3.251007 -39.306,3.882004c-0.814018,0.682999 -1.638,1.535995 -2.346008,2.328995" stroke-miterlimit="10" stroke-linecap="square" stroke-width="0.3806" stroke="#000000" fill="#ffff56" id="svg_8"/>
    <path d="m-98.472542,204.834335c-1.877022,3.110001 -3.650024,10.940994 -7.286011,11.457001c-5.856995,0.832001 -14.238007,1.158997 -18.13501,5.233002c6.94101,2.362 15.026001,1.653 22.29303,1.940002" stroke-miterlimit="10" stroke-linecap="square" stroke-width="0.3806" stroke="#000000" fill="#ffff56" id="svg_9"/>
    <path d="m-57.017559,391.537354c4.465,-2.399017 8.924019,-4.844025 13.688999,-6.598022c-1.389011,0.362 -4.082001,1.968994 -5.084991,2.32901c-0.40601,-0.156006 0.789001,-0.800018 0.392002,-0.777008c0.39999,1.619995 0.88501,3.713989 1.174007,6.210999c4.851994,-10.432007 4.031002,-10.429016 15.251982,-9.315002c9.143009,0.907013 11.701019,2.294006 19.55701,7.375c-3.95099,-9.078003 -10.87799,-10.972992 -19.55701,-6.987976c2.663031,-8.726013 13.926029,-10.875 21.901,-11.644012c-9.523009,-4.508026 -17.55099,5.937988 -26.006989,8.733002c-7.80801,2.58197 -17.132992,2.471008 -21.31601,10.674011" clip-rule="evenodd" fill-rule="evenodd" fill="#ffff56" id="svg_10"/>
    <path d="m-57.017559,391.537354c4.465,-2.399017 8.924019,-4.844025 13.688999,-6.598022c-1.389011,0.362 -4.082001,1.968994 -5.084991,2.32901c-0.40601,-0.156006 0.789001,-0.800018 0.392002,-0.777008c0.39999,1.619995 0.88501,3.713989 1.174007,6.210999c4.851994,-10.432007 4.031002,-10.429016 15.251982,-9.315002c9.143009,0.907013 11.701019,2.294006 19.55701,7.375c-3.95099,-9.078003 -10.87799,-10.972992 -19.55701,-6.987976c2.663031,-8.726013 13.926029,-10.875 21.901,-11.644012c-9.523009,-4.508026 -17.55099,5.937988 -26.006989,8.733002c-7.80801,2.58197 -17.132992,2.471008 -21.31601,10.674011" stroke-miterlimit="10" stroke-linecap="square" stroke-width="0.3806" stroke="#000000" fill="#ffff56" id="svg_11"/>
    <path d="m-57.017559,372.130341c4.511997,-2.427002 9.084019,-4.740021 13.688999,-6.985992c-1.349979,0.330994 -3.640991,2.078003 -5.084991,2.71698c2.636021,0.79303 0.527012,0.661987 1.565002,5.433014c4.944,-10.627014 3.969997,-10.438995 15.252018,-9.315002c8.734982,0.869995 12.12298,1.645996 19.556971,6.985992c-3.93399,-9.474976 -11.086,-9.886993 -19.556971,-6.985992c3.063992,-8.546997 13.82098,-10.479004 21.901001,-11.256989c-8.757021,-4.901001 -18.301029,5.138 -26.007019,8.539978c-7.403992,3.269012 -17.530003,2.234009 -21.314972,10.868011" clip-rule="evenodd" fill-rule="evenodd" fill="#ffff56" id="svg_12"/>
    <path d="m-57.017559,372.130341c4.511997,-2.427002 9.084019,-4.740021 13.688999,-6.985992c-1.349979,0.330994 -3.640991,2.078003 -5.084991,2.71698c2.636021,0.79303 0.527012,0.661987 1.565002,5.433014c4.944,-10.627014 3.969997,-10.438995 15.252018,-9.315002c8.734982,0.869995 12.12298,1.645996 19.556971,6.985992c-3.93399,-9.474976 -11.086,-9.886993 -19.556971,-6.985992c3.063992,-8.546997 13.82098,-10.479004 21.901001,-11.256989c-8.757021,-4.901001 -18.301029,5.138 -26.007019,8.539978c-7.403992,3.269012 -17.530003,2.234009 -21.314972,10.868011" stroke-miterlimit="10" stroke-linecap="square" stroke-width="0.3806" stroke="#000000" fill="#ffff56" id="svg_13"/>
   </g>
  </g>
  <path d="m11.03922,155.949249c-0.52268,1.687744 -1.51518,2.197144 -2.63219,3.056381c-0.38787,0.298386 -0.22798,0.275101 -0.62009,-0.015289l0,0c-1.10071,-0.815262 -2.10489,-1.305084 -2.64535,-2.941605c-1.82268,-5.519257 7.62201,-5.667557 5.89763,-0.099487z" stroke-width="1px" fill-rule="nonzero" fill="#ffff56" id="svg_1"/>
  <g id="svg_1004" transform="rotate(-147.179, -475.622, -4205.21) matrix(0.463725, 0, 0, -0.572501, 169.526, 483.941)">
   <metadata id="svg_3">image/svg+xml</metadata>
   <g id="svg_4" transform="matrix(0.441545, 0, 0, 0.350201, 2.01049, 0.428472)">
    <g id="svg_5">
     <path id="svg_14" d="m-16721.71875,40071.992188c-5.078125,-2.644531 -10.208984,-4.949219 -14.914063,-8.335938c-10.056641,-7.707031 -18.564453,-16.621094 -25.949219,-26.898438c-8.472656,-11.730469 -11.070313,-25.171875 -11.314453,-39.316406c1.427734,-14.808594 9.025391,-26.429688 19.117188,-36.820313c12.296875,-10.632813 26.767578,-18.046875 42.583984,-21.566406c17.509766,-3.3125 34.810547,-0.539063 51.714844,4.226563c15.619141,5.003906 28.550781,14.25 38.519531,27.125c9.232422,14.171875 6.759766,28.648438 0.916016,43.476563c-9.0625,17.609375 -22.65625,32.242188 -35.162109,47.40625c-13.734375,15.3125 -24.492188,32.6875 -33.416016,51.125c-3.054688,11.609375 -9.777344,24.226563 -8.123047,36.042969c0.140625,1.003906 -1.277344,1.199219 -1.416016,0.199219l0,0c-2.019531,-14.671875 -6.128906,-25.5 3.087891,-39.515625c9.787109,-18.429688 22.734375,-34.796875 34.457031,-52c10.873047,-15.28125 22.191406,-30.484375 30.410156,-47.40625c4.800781,-11.292969 6.876953,-22.386719 1.283203,-33.910156c-7.425781,-12.871094 -18.486328,-21.390625 -32.375,-26.71875c-15.755859,-5.425781 -32.136719,-7.5625 -48.703125,-4.6875c-15.166016,3.382813 -29.667969,7.339844 -40.666016,19.152344c-8.896484,9.632813 -15.78125,20.578125 -16.775391,34c-0.888672,13.132813 2.605469,25.207031 9.890625,36.234375c7.15625,9.53125 15.681641,18.160156 25.425781,25.058594c4.025391,2.996094 7.935547,7.371094 12.914063,8.441406c3.402344,0.730469 1.582031,6.289063 -1.505859,4.6875z" stroke-width="1px" fill-rule="nonzero" fill="#7f7f7f"/>
     <path id="svg_15" d="m-16577.664063,39800.757813c4.972656,-2.519531 10.335938,-3.691406 15.757813,-4.789063c11.287109,-1.808594 22.673828,-1.261719 33.886719,0.644531c10.962891,3.011719 18.96875,10.199219 26.357422,18.421875c6.507813,8.882813 8.394531,17.8125 4.310547,28.070313c-5.431641,11.003906 -16.414063,17.078125 -26.375,23.445313c-12.289063,7.347656 -24.9375,14.050781 -37.482422,20.945313c-14.443359,7.148438 -27.380859,16.519531 -39.960938,26.480469c-14.419922,11.945313 -26.035156,26.5625 -35.90625,42.367188c-9.792969,14.863281 -14.708984,31.664063 -17.640625,49.023438c-2.783203,13.039063 -0.152344,25.414063 4.351563,37.65625c0.347656,0.949219 -0.994141,1.441406 -1.341797,0.492188l0,0c-4.5625,-12.449219 -6.791016,-25.316406 -6.390625,-38.636719c2.167969,-18.128906 8.558594,-34.789063 18.357422,-50.238281c10.386719,-15.878906 21.283203,-31.566406 35.654297,-44.171875c12.318359,-10.734375 25.599609,-20.367188 39.679688,-28.671875c12.226563,-7 24.640625,-13.789063 36.117188,-21.992188c7.978516,-5.722656 15.871094,-11.773438 20.626953,-20.597656c2.261719,-6.582031 2.890625,-12.871094 -0.837891,-19.167969c-4.714844,-8.417969 -12.320313,-14.171875 -21.166016,-17.902344c-10.142578,-4.542969 -20.689453,-6.050781 -31.650391,-3.519531c-5.107422,1.238281 -10.232422,2.6875 -14.943359,5.066406c-2.048828,1.03125 -3.451172,-1.890625 -1.404297,-2.925781z" stroke-width="1px" fill-rule="nonzero" fill="#7f7f7f"/>
     <path id="svg_16" d="m-16607.146484,39956.042969c1.662109,-2.417969 4.791016,-3.421875 7.427734,-4.617188c7.371094,-3.457031 13.662109,-8.5625 19.539063,-14.109375c8.009766,-7.792969 13.853516,-17.136719 19.101563,-26.898438c4.392578,-9.652344 6.236328,-20.261719 5.916016,-30.820313c-1.164063,-7.234375 -2.570313,-14.542969 -9.195313,-18.433594c-0.871094,-0.511719 -0.142578,-1.746094 0.726563,-1.230469l0,0c8.566406,5.078125 16.640625,8.226563 15.791016,19.964844c-1.162109,11.398438 -5.919922,21.480469 -10.978516,31.652344c-4.830078,10.308594 -11.078125,19.875 -18.761719,28.308594c-5.685547,6.28125 -11.646484,12.296875 -18.117188,17.773438c-2.087891,1.804688 -4.521484,4.253906 -7.205078,4.519531c-5.234375,0.519531 -7.220703,-1.773438 -4.244141,-6.109375z" stroke-width="1px" fill-rule="nonzero" fill="#7f7f7f"/>
     <path id="svg_17" d="m-16681.207031,40084.421875c0.880859,-3.320313 4.056641,-5.699219 6.279297,-8.367188c5.548828,-7.371094 8.771484,-15.710938 11.423828,-24.460938c1.919922,-10.175781 1.761719,-20.394531 -1.136719,-30.328125c-2.361328,-8.289063 -7.019531,-15.609375 -13.25,-21.5c-6.660156,-6.015625 -14.574219,-6.777344 -23.126953,-5.738281c-5.892578,0.902344 -10.802734,3.484375 -15.802734,6.53125c-0.863281,0.527344 -1.605469,-0.695313 -0.742188,-1.21875l0,0c5.138672,-3.125 10.132813,-6.570313 15.751953,-8.800781c10.443359,-3.398438 20.644531,-4.148438 29.912109,2.84375c7.757813,7.238281 12.757813,15.9375 14.816406,26.449219c1.150391,11.105469 0.472656,22.046875 -3.527344,32.597656c-2.507813,9.078125 -5.453125,18.257813 -9.966797,26.539063c-1.763672,3.269531 -3.402344,7.324219 -6.916016,8.648438c-3.240234,1.226563 -4.601563,0.15625 -3.714844,-3.195313z" stroke-width="1px" fill-rule="nonzero" fill="#7f7f7f"/>
     <path id="svg_18" d="m-16635.283203,40024.273438c2.464844,-2.003906 3.958984,-4.804688 5.59375,-7.472656c4.230469,-7.089844 9.269531,-13.621094 14.458984,-20.019531c7.447266,-9.289063 15.744141,-17.8125 24.289063,-26.074219c8.597656,-6.804688 15.251953,-14.996094 21.832031,-23.628906c6.025391,-9.339844 13.46875,-13.335938 24.146484,-9.550781c5.552734,2.824219 7.423828,8.097656 10.201172,13.25c0.746094,0.601563 1.492188,1.199219 2.238281,1.800781c0.787109,0.632813 0.847656,0.875 0.001953,1.429688l0,0c-0.923828,0.601563 -1.847656,1.199219 -2.769531,1.800781c-5.539063,3.339844 -12.033203,3.105469 -17.8125,0.089844c-1.884766,-4.285156 -6.6875,-2.976563 -10.996094,-2.148438c-10.332031,3.8125 -18.371094,9.851563 -25.847656,17.984375c-8.505859,8.222656 -16.761719,16.703125 -24.173828,25.945313c-5.148438,6.351563 -10.152344,12.835938 -14.349609,19.867188c-1.609375,2.625 -3.523438,5.175781 -4.308594,8.1875c-0.517578,1.988281 -4.097656,-0.171875 -2.503906,-1.460938z" stroke-width="1px" fill-rule="nonzero" fill="#7f7f7f"/>
     <path id="svg_19" d="m-16713.744141,39944.945313c-2.376953,-0.203125 -4.771484,-0.492188 -7.169922,-0.660156c-7.419922,0.070313 -14.650391,2.273438 -21.673828,4.472656c-13.998047,5.703125 -26.402344,14.378906 -38.455078,23.351563c-16.384766,12.582031 -30.689453,27.550781 -41.556641,45.117188c-8.048828,12.46875 -0.472656,26.273438 -3.453125,38.90625c1.126953,1.664063 2.253906,3.328125 3.382813,4.992188c0.566406,0.835938 -0.621094,1.640625 -1.185547,0.800781l0,0c-1.167969,-1.738281 -2.337891,-3.480469 -3.507813,-5.222656c-14.068359,-10.777344 -5.742188,-28.28125 3.279297,-40.429688c11.585938,-17.285156 25.511719,-32.742188 42.1875,-45.3125c12.15625,-9.046875 24.671875,-17.789063 38.791016,-23.535156c7.041016,-3.289063 14.228516,-6.136719 21.890625,-7.605469c2.660156,-0.433594 5.488281,-0.890625 8.078125,-0.078125c3.537109,1.105469 3.085938,5.523438 -0.607422,5.203125z" stroke-width="1px" fill-rule="nonzero" fill="#7f7f7f"/>
     <path id="svg_20" d="m-16650.302734,40071.667969c2.472656,-2.671875 5.072266,-5.261719 7.810547,-7.679688c7.480469,-6.09375 13.931641,-13.140625 20.617188,-20.074219c6.849609,-8.984375 15.607422,-16.382813 23.863281,-24.0625c10.330078,-8.929688 19.511719,-11.265625 32.761719,-8.410156c1.869141,-1.402344 3.738281,-2.808594 5.607422,-4.214844c0.806641,-0.605469 1.666016,0.539063 0.857422,1.144531l0,0c-1.892578,1.421875 -3.783203,2.839844 -5.675781,4.261719c-3.177734,13.648438 -9.667969,20.421875 -22.771484,25.324219c-10.402344,3.378906 -20.353516,7.730469 -30.638672,11.394531c-8.548828,4.265625 -16.943359,8.652344 -23.615234,15.648438c-2.3125,2.589844 -4.580078,5.117188 -5.693359,8.460938c-0.802734,2.417969 -4.853516,0.078125 -3.123047,-1.792969z" stroke-width="1px" fill-rule="nonzero" fill="#7f7f7f"/>
     <path id="svg_21" d="m-16514.800781,39808.796875c-2.167969,-1.164063 -4.283203,-2.496094 -6.466797,-3.675781c-4.994141,-3.488281 -10.470703,-6.21875 -15.982422,-8.78125c-5.453125,-2.765625 -11.193359,-4.9375 -16.404297,-8.164063c-4.402344,-2.582031 -7.330078,-6.066406 -8.533203,-11c0.8125,-7.464844 9.400391,-8.207031 15.376953,-9.304688c8.076172,-1.84375 16.322266,-1.6875 24.527344,-1.242188c5.71875,0.257813 10.957031,1.421875 15.248047,5.339844c4.259766,5.855469 -1.066406,9.515625 -6.492188,10.726563c-0.962891,0.386719 -1.925781,0.769531 -2.888672,1.152344c-0.939453,0.371094 -1.466797,-0.957031 -0.527344,-1.328125l0,0c0.916016,-0.363281 1.832031,-0.722656 2.746094,-1.085938c1.853516,-1.941406 3.472656,-3.597656 3.417969,-6.296875c-2.830078,-3.890625 -6.853516,-5.878906 -11.681641,-6.753906c-7.980469,-1.1875 -16.095703,-0.722656 -23.998047,0.875c-4.451172,1.457031 -8.996094,2.8125 -11.128906,7.265625c0.681641,3.722656 2.625,6.4375 5.789063,8.789063c4.955078,3.375 10.199219,6.261719 15.671875,8.710938c5.4375,2.746094 10.912109,5.476563 16.636719,7.582031c2.445313,1.148438 5.123047,1.972656 7.210938,3.730469c2.318359,1.949219 0.144531,4.890625 -2.521484,3.460938z" stroke-width="1px" fill-rule="nonzero" fill="#7f7f7f"/>
    </g>
   </g>
  </g>
 </g>
</svg>