<?xml version="1.0" encoding="UTF-8" standalone="no"?>
<svg
   xmlns:dc="http://purl.org/dc/elements/1.1/"
   xmlns:cc="http://creativecommons.org/ns#"
   xmlns:rdf="http://www.w3.org/1999/02/22-rdf-syntax-ns#"
   xmlns:svg="http://www.w3.org/2000/svg"
   xmlns="http://www.w3.org/2000/svg"
   version="1.1"
   id="svg15227"
   viewBox="0 0 5000.0001 4760.0001"
   height="4760"
   width="5000">
  <title
     id="title19252">STS-132 Patch</title>
  <defs
     id="defs15229">
    <clipPath
       clipPathUnits="userSpaceOnUse"
       id="clipPath4222">
      <path
         d="m 117.365,445.667 66.52,0 0,62.293 -66.52,0 0,-62.293 z"
         id="path4224" />
    </clipPath>
    <clipPath
       clipPathUnits="userSpaceOnUse"
       id="clipPath4066">
      <path
         d="m 117.365,445.667 66.52,0 0,62.293 -66.52,0 0,-62.293 z"
         id="path4068" />
    </clipPath>
    <clipPath
       clipPathUnits="userSpaceOnUse"
       id="clipPath3890">
      <path
         d="m 117.365,445.667 66.52,0 0,62.293 -66.52,0 0,-62.293 z"
         id="path3892" />
    </clipPath>
  </defs>
  <metadata
     id="metadata15232">
    <rdf:RDF>
      <cc:Work
         rdf:about="">
        <dc:format>image/svg+xml</dc:format>
        <dc:type
           rdf:resource="http://purl.org/dc/dcmitype/StillImage" />
        <dc:title>STS-132 Patch</dc:title>
      </cc:Work>
    </rdf:RDF>
  </metadata>
  <g
     id="layer1"
     transform="translate(0,3707.6378)">
    <g
       id="g16269"
       transform="matrix(1.0034568,0,0,1.0034568,-16.510679,2.1205737)">
      <g
         id="g3886"
         transform="matrix(76.898516,0,0,-76.898516,-9075.5857,35338.946)">
        <g
           clip-path="url(#clipPath3890)"
           id="g3888">
          <g
             transform="translate(180.4952,477.19)"
             id="g3894">
            <path
               id="path3896"
               style="fill:#000000;fill-opacity:1;fill-rule:evenodd;stroke:#fff001;stroke-width:0.824;stroke-linecap:butt;stroke-linejoin:miter;stroke-miterlimit:14.33500004;stroke-dasharray:none;stroke-opacity:1"
               d="m 0,0 c 0,-16.4 -13.495,-29.895 -29.895,-29.895 -16.4,0 -29.895,13.495 -29.895,29.895 0,16.4 13.495,29.895 29.895,29.895 C -13.495,29.895 0,16.4 0,0" />
          </g>
          <g
             transform="translate(161.8478,485.0219)"
             id="g3898">
            <path
               id="path3900"
               style="fill:#005bae;fill-opacity:1;fill-rule:nonzero;stroke:none"
               d="m 0,0 c 6.309,-2.938 10.858,-8.119 13.14,-14.152 0.029,0.11 0.055,0.222 0.083,0.333 0.416,5.1 3.088,15.952 -9.864,26.667 -12.197,10.09 -41.154,4.595 -38.957,-24.239 0.08,-1.049 0.736,-2.317 0.417,-3.292 0.034,-0.119 0.07,-0.238 0.106,-0.356 0.3,0.887 0.65,1.767 1.055,2.635 C -28.051,0.417 -12.82,5.97 0,0" />
          </g>
          <g
             transform="translate(175.8551,477.4383)"
             id="g3902">
            <path
               id="path3904"
               style="fill:none;stroke:#fff001;stroke-width:0.61799997;stroke-linecap:butt;stroke-linejoin:miter;stroke-miterlimit:14.33500004;stroke-dasharray:none;stroke-opacity:1"
               d="m 0,0 c 0,-13.729 -11.297,-25.026 -25.026,-25.026 -13.729,0 -25.026,11.297 -25.026,25.026 0,13.729 11.297,25.026 25.026,25.026 C -11.297,25.026 0,13.729 0,0 Z" />
          </g>
          <g
             transform="translate(158.035,487.1353)"
             id="g3906">
            <path
               id="path3908"
               style="fill:#fff001;fill-opacity:1;fill-rule:nonzero;stroke:none"
               d="m 0,0 c 0.068,-0.277 -0.367,0.495 -0.331,0.207 0.038,-0.306 -0.449,-0.1 -0.748,0.003 -0.801,0.275 -1.795,0.703 -5.926,0.703 -4.071,0 -6.384,-0.083 -7.047,-1.153 -0.03,-0.048 -0.079,0.518 -0.189,0.115 -0.077,-0.284 -0.263,-0.585 -0.231,-0.3 0.023,0.192 -0.173,-0.106 -0.137,0.081 C -13.939,3.1 -10.907,5.7 -7.267,5.7 -3.749,5.7 -0.799,3.272 0,0" />
          </g>
          <g
             transform="translate(158.035,487.1353)"
             id="g3910">
            <path
               id="path3912"
               style="fill:none;stroke:#fff001;stroke-width:0.103;stroke-linecap:butt;stroke-linejoin:miter;stroke-miterlimit:4;stroke-dasharray:none;stroke-opacity:1"
               d="m 0,0 c 0.068,-0.277 -0.367,0.495 -0.331,0.207 0.038,-0.306 -0.449,-0.1 -0.748,0.003 -0.801,0.275 -1.795,0.703 -5.926,0.703 -4.071,0 -6.384,-0.083 -7.047,-1.153 -0.03,-0.048 -0.079,0.518 -0.189,0.115 -0.077,-0.284 -0.263,-0.585 -0.231,-0.3 0.023,0.192 -0.173,-0.106 -0.137,0.081 C -13.939,3.1 -10.907,5.7 -7.267,5.7 -3.749,5.7 -0.799,3.272 0,0 Z" />
          </g>
          <g
             transform="translate(149.5669,490.9828)"
             id="g3914">
            <path
               id="path3916"
               style="fill:#fff001;fill-opacity:1;fill-rule:nonzero;stroke:none"
               d="M 0,0 1.304,15.03 2.745,0.549 6.245,9.608 3.912,0.412 12.941,12.802 5.422,-0.549 5.902,-0.892 22.236,5.833 7.275,-3.157 27.864,-6.314 7.206,-4.186 2.484,-2.966 -3.44,-3.976 -27.177,-6.039 -4.164,-2.946 -20.246,5.01 -2.814,-0.618 -8.304,7.343 -6.657,5.971 -10.226,12.353 -1.373,0.618 -2.059,6.108 0,0 Z" />
          </g>
          <g
             transform="translate(161.8478,485.0219)"
             id="g3918">
            <path
               id="path3920"
               style="fill:#fff001;fill-opacity:1;fill-rule:nonzero;stroke:none"
               d="m 0,0 c 6.309,-2.938 10.858,-8.119 13.14,-14.152 0.029,0.11 0.055,0.222 0.083,0.333 -2.246,6.153 -6.835,11.451 -13.242,14.434 -12.82,5.97 -28.051,0.416 -34.021,-12.403 -0.443,-0.953 -0.822,-1.92 -1.141,-2.895 0.034,-0.119 0.07,-0.238 0.106,-0.356 0.3,0.887 0.65,1.767 1.055,2.635 C -28.051,0.417 -12.82,5.97 0,0" />
          </g>
        </g>
      </g>
      <g
         id="g4062"
         transform="matrix(76.898516,0,0,-76.898516,-9075.5857,35338.946)">
        <g
           clip-path="url(#clipPath4066)"
           id="g4064">
          <g
             transform="translate(125.0703,471.7191)"
             id="g4070" />
          <g
             transform="translate(124.1126,473.7237)"
             id="g4074" />
          <g
             transform="translate(122.8795,475.287)"
             id="g4078" />
          <g
             transform="translate(122.8229,478.4636)"
             id="g4082" />
          <g
             transform="translate(122.9689,480.6416)"
             id="g4086">
            <g
               id="BOWEN">
              <path
                 d="M 0,0 -0.068,0.312 C -0.091,0.418 -0.126,0.488 -0.173,0.523 -0.219,0.558 -0.274,0.569 -0.337,0.556 -0.396,0.543 -0.438,0.511 -0.465,0.461 -0.491,0.41 -0.493,0.331 -0.469,0.224 L -0.402,-0.087 0,0 Z M -0.779,-0.169 -0.837,0.097 C -0.858,0.193 -0.889,0.256 -0.93,0.286 -0.971,0.316 -1.022,0.324 -1.084,0.311 -1.142,0.299 -1.183,0.27 -1.208,0.225 -1.232,0.181 -1.234,0.112 -1.214,0.02 l 0.059,-0.271 0.376,0.082 z M -1.422,-0.956 -1.671,0.19 c -0.042,0.192 -0.027,0.349 0.046,0.472 0.072,0.122 0.178,0.199 0.318,0.23 0.117,0.025 0.226,0.01 0.326,-0.045 0.066,-0.036 0.126,-0.098 0.178,-0.184 0.004,0.149 0.04,0.267 0.109,0.352 0.069,0.086 0.166,0.142 0.292,0.169 0.103,0.023 0.2,0.019 0.293,-0.011 C -0.017,1.143 0.063,1.092 0.128,1.019 0.169,0.974 0.208,0.901 0.244,0.801 0.292,0.667 0.321,0.577 0.33,0.532 l 0.23,-1.057 -1.982,-0.431 z"
                 style="fill:#ffffff;fill-opacity:1;fill-rule:nonzero;stroke:none"
                 id="path4072"
                 transform="translate(2.1014,-8.9225001)" />
              <path
                 d="M 0,0 C 0.203,0.026 0.344,0.082 0.423,0.169 0.502,0.256 0.534,0.365 0.517,0.494 0.5,0.628 0.443,0.726 0.347,0.788 0.251,0.85 0.09,0.867 -0.135,0.838 -0.324,0.814 -0.458,0.758 -0.536,0.67 -0.613,0.583 -0.644,0.473 -0.627,0.343 -0.611,0.217 -0.554,0.122 -0.455,0.058 -0.357,-0.007 -0.205,-0.026 0,0 m 0.077,-0.622 c -0.329,-0.042 -0.596,0.017 -0.803,0.176 -0.206,0.16 -0.33,0.403 -0.372,0.73 -0.043,0.334 0.014,0.604 0.171,0.808 0.156,0.204 0.397,0.327 0.72,0.369 C 0.029,1.491 0.227,1.476 0.387,1.416 0.548,1.356 0.68,1.257 0.783,1.118 0.886,0.979 0.951,0.798 0.98,0.575 1.009,0.348 0.997,0.155 0.943,-0.003 0.89,-0.161 0.791,-0.296 0.646,-0.408 0.502,-0.521 0.312,-0.592 0.077,-0.622"
                 style="fill:#ffffff;fill-opacity:1;fill-rule:nonzero;stroke:none"
                 id="path4076"
                 transform="translate(1.1437,-6.9179005)" />
              <path
                 d="M 0,0 -0.019,0.595 1.11,0.845 -0.035,1.123 -0.054,1.716 1.07,2.066 -0.07,2.245 -0.089,2.837 1.953,2.453 1.972,1.839 0.707,1.443 1.994,1.129 2.014,0.515 0,0 Z"
                 style="fill:#ffffff;fill-opacity:1;fill-rule:nonzero;stroke:none"
                 id="path4080"
                 transform="translate(-0.08940006,-5.3546006)" />
              <path
                 d="M 0,0 0.1,1.677 0.532,1.651 0.47,0.601 0.792,0.582 0.85,1.556 1.263,1.532 1.205,0.558 1.604,0.534 1.668,1.614 2.127,1.587 2.025,-0.121 0,0 Z"
                 style="fill:#ffffff;fill-opacity:1;fill-rule:nonzero;stroke:none"
                 id="path4084"
                 transform="translate(-0.14600004,-2.1779998)" />
              <path
                 d="M 0,0 0.083,0.58 1.303,1.176 0.192,1.336 0.276,1.921 2.284,1.632 2.2,1.047 0.99,0.453 2.092,0.295 2.008,-0.289 0,0 Z"
                 style="fill:#ffffff;fill-opacity:1;fill-rule:nonzero;stroke:none"
                 id="path4088" />
            </g>
          </g>
          <g
             transform="translate(125.4135,487.2523)"
             id="g4090" />
          <g
             transform="translate(125.2874,489.1136)"
             id="g4094" />
          <g
             transform="translate(126.2672,491.0471)"
             id="g4098" />
          <g
             transform="translate(127.9233,491.2338)"
             id="g4102" />
          <g
             transform="translate(128.0348,493.8867)"
             id="g4106" />
          <g
             transform="translate(131.4826,496.0422)"
             id="g4110" />
          <g
             transform="translate(131.4216,497.7785)"
             id="g4114">
            <g
               id="REISMAN">
              <path
                 d="m 0,0 0.097,0.246 c 0.01,0.027 0.022,0.082 0.034,0.165 0.008,0.041 0,0.081 -0.022,0.118 C 0.087,0.566 0.055,0.592 0.014,0.608 -0.047,0.632 -0.101,0.631 -0.149,0.605 -0.197,0.58 -0.242,0.513 -0.283,0.407 L -0.384,0.151 0,0 Z m 0.893,-1.027 -1.888,0.741 0.381,0.973 c 0.071,0.18 0.141,0.312 0.209,0.395 0.068,0.083 0.156,0.137 0.263,0.163 C -0.036,1.271 0.077,1.26 0.198,1.213 0.302,1.172 0.384,1.114 0.443,1.039 0.501,0.965 0.539,0.879 0.555,0.782 0.566,0.721 0.564,0.643 0.55,0.548 0.6,0.609 0.643,0.65 0.679,0.673 0.703,0.688 0.748,0.706 0.814,0.727 0.881,0.748 0.931,0.76 0.964,0.763 L 1.622,0.831 1.363,0.171 0.664,0.086 C 0.574,0.076 0.511,0.059 0.477,0.037 0.431,0.007 0.398,-0.035 0.377,-0.089 L 0.357,-0.14 1.123,-0.441 0.893,-1.027 Z"
                 style="fill:#ffffff;fill-opacity:1;fill-rule:nonzero;stroke:none"
                 id="path4092"
                 transform="translate(-6.0081,-10.5262)" />
              <path
                 d="M 0,0 0.738,1.509 1.127,1.319 0.665,0.374 0.955,0.232 1.383,1.109 1.755,0.927 1.326,0.051 1.686,-0.125 2.161,0.847 2.574,0.646 1.823,-0.891 0,0 Z"
                 style="fill:#ffffff;fill-opacity:1;fill-rule:nonzero;stroke:none"
                 id="path4096"
                 transform="translate(-6.1341999,-8.6648999)" />
              <path
                 d="M 0,0 0.309,0.547 2.075,-0.452 1.766,-0.999 0,0 Z"
                 style="fill:#ffffff;fill-opacity:1;fill-rule:nonzero;stroke:none"
                 id="path4100"
                 transform="translate(-5.1543999,-6.7314006)" />
              <path
                 d="M 0,0 0.293,0.521 C 0.381,0.479 0.457,0.461 0.521,0.467 0.625,0.477 0.71,0.532 0.775,0.632 0.824,0.708 0.844,0.777 0.835,0.84 0.826,0.904 0.798,0.951 0.751,0.981 0.707,1.009 0.655,1.015 0.595,0.999 0.536,0.983 0.445,0.915 0.322,0.793 0.121,0.596 -0.055,0.476 -0.204,0.434 -0.354,0.39 -0.496,0.412 -0.629,0.498 c -0.087,0.056 -0.154,0.135 -0.199,0.236 -0.045,0.101 -0.057,0.217 -0.035,0.348 0.021,0.13 0.089,0.285 0.204,0.462 0.141,0.218 0.288,0.357 0.443,0.419 0.155,0.062 0.328,0.047 0.518,-0.046 L 0.01,1.402 C -0.075,1.439 -0.148,1.447 -0.21,1.428 -0.273,1.408 -0.328,1.361 -0.376,1.287 -0.415,1.225 -0.432,1.171 -0.426,1.123 -0.42,1.075 -0.399,1.039 -0.362,1.015 c 0.027,-0.017 0.06,-0.02 0.098,-0.009 0.039,0.01 0.098,0.056 0.177,0.136 C 0.112,1.34 0.268,1.473 0.384,1.539 0.499,1.606 0.609,1.638 0.713,1.635 0.817,1.631 0.916,1.6 1.009,1.539 1.118,1.469 1.199,1.373 1.253,1.253 1.306,1.133 1.321,1.004 1.298,0.864 1.276,0.725 1.211,0.573 1.104,0.408 0.917,0.118 0.732,-0.046 0.548,-0.086 0.364,-0.125 0.181,-0.097 0,0"
                 style="fill:#ffffff;fill-opacity:1;fill-rule:nonzero;stroke:none"
                 id="path4104"
                 transform="translate(-3.4983,-6.5447003)" />
              <path
                 d="M 0,0 0.508,0.65 1.676,0.14 0.898,1.149 1.405,1.798 3.004,0.548 2.687,0.144 1.469,1.097 2.444,-0.168 2.158,-0.534 0.695,0.108 1.915,-0.845 1.598,-1.249 0,0 Z"
                 style="fill:#ffffff;fill-opacity:1;fill-rule:nonzero;stroke:none"
                 id="path4108"
                 transform="translate(-3.3868,-3.8918)" />
              <path
                 d="M 0,0 -0.684,0.337 -0.305,-0.324 0,0 Z m 0.408,-0.206 -0.487,-0.518 0.176,-0.302 -0.439,-0.466 -0.954,1.946 0.468,0.498 2,-0.836 -0.45,-0.478 -0.314,0.156 z"
                 style="fill:#ffffff;fill-opacity:1;fill-rule:nonzero;stroke:none"
                 id="path4112"
                 transform="translate(0.06099964,-1.7363)" />
              <path
                 d="M 0,0 0.436,0.39 1.754,0.063 1.006,0.899 1.446,1.293 2.799,-0.219 2.358,-0.613 1.049,-0.289 1.792,-1.119 1.352,-1.512 0,0 Z"
                 style="fill:#ffffff;fill-opacity:1;fill-rule:nonzero;stroke:none"
                 id="path4116" />
            </g>
          </g>
          <g
             transform="translate(138.3509,502.6471)"
             id="g4118" />
          <g
             transform="translate(142.1042,502.8389)"
             id="g4122" />
          <g
             transform="translate(142.8458,504.4151)"
             id="g4126">
            <g
               id="HAM">
              <path
                 d="M 0,0 0.571,0.259 0.864,-0.388 1.488,-0.105 1.195,0.541 1.768,0.802 2.606,-1.046 2.032,-1.306 1.694,-0.559 1.07,-0.841 1.408,-1.589 0.838,-1.848 0,0 Z"
                 style="fill:#ffffff;fill-opacity:1;fill-rule:nonzero;stroke:none"
                 id="path4120"
                 transform="translate(-4.4948994,-1.7680001)" />
              <path
                 d="M 0,0 -0.453,0.614 -0.42,-0.148 0,0 Z m 0.268,-0.371 -0.671,-0.236 0.018,-0.349 -0.604,-0.212 0.046,2.167 0.645,0.227 1.392,-1.661 -0.619,-0.218 -0.207,0.282 z"
                 style="fill:#ffffff;fill-opacity:1;fill-rule:nonzero;stroke:none"
                 id="path4124"
                 transform="translate(-0.74159959,-1.5762001)" />
              <path
                 d="m 0,0 0.8,0.2 0.608,-1.12 0.006,1.274 0.8,0.2 L 2.706,-1.413 2.208,-1.538 1.832,-0.037 1.825,-1.634 1.374,-1.747 0.615,-0.342 0.991,-1.843 0.493,-1.968 0,0 Z"
                 style="fill:#ffffff;fill-opacity:1;fill-rule:nonzero;stroke:none"
                 id="path4128" />
            </g>
          </g>
          <g
             transform="translate(152.6049,504.2096)"
             id="g4130" />
          <g
             transform="translate(153.902,505.3684)"
             id="g4134" />
          <g
             transform="translate(156.2184,505.0094)"
             id="g4138" />
          <g
             transform="translate(158.5858,503.3549)"
             id="g4142" />
          <g
             transform="translate(160.7518,503.7027)"
             id="g4146" />
          <g
             transform="translate(163.027,502.7069)"
             id="g4150" />
          <g
             transform="translate(164.9299,501.6795)"
             id="g4154" />
          <g
             transform="translate(166.6126,500.6046)"
             id="g4158" />
          <g
             transform="translate(168.2173,499.3998)"
             id="g4162">
            <g
               id="ANTONELLI">
              <path
                 d="M 0,0 -0.18,0.741 -0.445,0.027 0,0 Z m 0.103,-0.446 -0.71,0.043 -0.119,-0.328 -0.639,0.038 0.883,1.979 0.683,-0.041 0.639,-2.071 -0.655,0.04 -0.082,0.34 z"
                 style="fill:#ffffff;fill-opacity:1;fill-rule:nonzero;stroke:none"
                 id="path4132"
                 transform="translate(-15.612401,4.8098)" />
              <path
                 d="M 0,0 0.579,-0.085 1.171,-1.307 1.335,-0.197 1.919,-0.283 1.624,-2.29 1.039,-2.204 0.45,-0.991 0.287,-2.093 -0.296,-2.007 0,0 Z"
                 style="fill:#ffffff;fill-opacity:1;fill-rule:nonzero;stroke:none"
                 id="path4136"
                 transform="translate(-14.3153,5.9686)" />
              <path
                 d="M 0,0 1.855,-0.435 1.741,-0.922 1.119,-0.777 0.77,-2.264 0.16,-2.121 0.508,-0.634 -0.114,-0.488 0,0 Z"
                 style="fill:#ffffff;fill-opacity:1;fill-rule:nonzero;stroke:none"
                 id="path4140"
                 transform="translate(-11.9989,5.6096)" />
              <path
                 d="m 0,0 c -0.063,-0.195 -0.071,-0.347 -0.026,-0.455 0.045,-0.109 0.13,-0.183 0.255,-0.223 0.128,-0.041 0.24,-0.031 0.337,0.03 0.098,0.06 0.181,0.199 0.25,0.415 C 0.874,-0.051 0.88,0.094 0.834,0.201 0.788,0.308 0.702,0.382 0.576,0.422 0.456,0.461 0.345,0.45 0.245,0.388 0.145,0.326 0.063,0.197 0,0 m -0.596,0.194 c 0.101,0.316 0.268,0.533 0.5,0.652 C 0.136,0.965 0.409,0.975 0.722,0.874 1.044,0.771 1.264,0.605 1.383,0.377 1.501,0.148 1.51,-0.121 1.411,-0.433 1.338,-0.658 1.24,-0.831 1.118,-0.951 0.996,-1.071 0.85,-1.149 0.681,-1.183 0.511,-1.217 0.319,-1.2 0.105,-1.131 c -0.218,0.07 -0.387,0.162 -0.507,0.278 -0.121,0.115 -0.202,0.262 -0.242,0.441 -0.041,0.178 -0.025,0.381 0.048,0.606"
                 style="fill:#ffffff;fill-opacity:1;fill-rule:nonzero;stroke:none"
                 id="path4144"
                 transform="translate(-9.6315005,3.9551)" />
              <path
                 d="M 0,0 0.539,-0.228 0.804,-1.56 1.242,-0.526 1.786,-0.757 0.995,-2.625 0.451,-2.394 0.186,-1.072 -0.249,-2.098 -0.791,-1.868 0,0 Z"
                 style="fill:#ffffff;fill-opacity:1;fill-rule:nonzero;stroke:none"
                 id="path4148"
                 transform="translate(-7.4654999,4.3029)" />
              <path
                 d="M 0,0 1.487,-0.783 1.285,-1.166 0.354,-0.676 0.204,-0.961 1.068,-1.416 0.875,-1.782 0.011,-1.327 -0.175,-1.681 0.783,-2.186 0.569,-2.592 -0.945,-1.795 0,0 Z"
                 style="fill:#ffffff;fill-opacity:1;fill-rule:nonzero;stroke:none"
                 id="path4152"
                 transform="translate(-5.1903,3.3071)" />
              <path
                 d="M 0,0 0.531,-0.333 -0.28,-1.629 0.55,-2.148 0.285,-2.571 -1.076,-1.72 0,0 Z"
                 style="fill:#ffffff;fill-opacity:1;fill-rule:nonzero;stroke:none"
                 id="path4156"
                 transform="translate(-3.2874002,2.2797)" />
              <path
                 d="M 0,0 0.506,-0.37 -0.395,-1.605 0.395,-2.182 0.1,-2.585 -1.196,-1.639 0,0 Z"
                 style="fill:#ffffff;fill-opacity:1;fill-rule:nonzero;stroke:none"
                 id="path4160"
                 transform="translate(-1.6047006,1.2048)" />
              <path
                 d="M 0,0 0.486,-0.398 -0.801,-1.967 -1.287,-1.568 0,0 Z"
                 style="fill:#ffffff;fill-opacity:1;fill-rule:nonzero;stroke:none"
                 id="path4164" />
            </g>
          </g>
          <g
             transform="translate(171.5405,494.2584)"
             id="g4166" />
          <g
             transform="translate(172.9135,492.8823)"
             id="g4170" />
          <g
             transform="translate(174.1937,490.8409)"
             id="g4174" />
          <g
             transform="translate(175.8296,488.8424)"
             id="g4178">
            <g
               id="GOOD">
              <path
                 d="M 0,0 0.329,0.265 0.936,-0.49 0.263,-1.032 c -0.215,0.065 -0.385,0.139 -0.51,0.221 -0.125,0.082 -0.249,0.2 -0.371,0.352 -0.151,0.187 -0.243,0.366 -0.274,0.536 -0.031,0.169 -0.01,0.338 0.064,0.505 0.074,0.167 0.193,0.316 0.357,0.448 0.173,0.139 0.351,0.224 0.536,0.256 C 0.25,1.317 0.431,1.291 0.607,1.207 0.744,1.141 0.886,1.018 1.032,0.837 1.173,0.662 1.262,0.519 1.3,0.407 1.338,0.295 1.347,0.183 1.327,0.073 1.306,-0.038 1.257,-0.149 1.178,-0.26 L 0.714,0.143 C 0.758,0.211 0.777,0.281 0.772,0.352 0.766,0.424 0.734,0.496 0.676,0.568 0.59,0.675 0.484,0.73 0.358,0.734 0.233,0.738 0.09,0.675 -0.071,0.545 -0.242,0.407 -0.338,0.277 -0.36,0.153 c -0.022,-0.123 0.014,-0.242 0.107,-0.357 0.044,-0.055 0.094,-0.1 0.149,-0.137 0.056,-0.037 0.129,-0.072 0.218,-0.105 L 0.263,-0.327 0,0 Z"
                 style="fill:#ffffff;fill-opacity:1;fill-rule:nonzero;stroke:none"
                 id="path4168"
                 transform="translate(-4.2890999,5.4160002)" />
              <path
                 d="m 0,0 c -0.17,-0.114 -0.271,-0.227 -0.304,-0.34 -0.032,-0.113 -0.011,-0.224 0.061,-0.333 0.075,-0.112 0.17,-0.174 0.284,-0.187 0.113,-0.013 0.265,0.044 0.453,0.17 0.159,0.106 0.254,0.216 0.284,0.329 0.031,0.113 0.009,0.224 -0.064,0.334 C 0.644,0.078 0.55,0.137 0.433,0.151 0.316,0.165 0.172,0.115 0,0 M -0.346,0.523 C -0.071,0.707 0.195,0.773 0.451,0.722 0.707,0.672 0.926,0.509 1.11,0.235 1.297,-0.046 1.366,-0.312 1.317,-0.565 1.268,-0.817 1.107,-1.034 0.836,-1.216 0.639,-1.348 0.455,-1.422 0.284,-1.44 c -0.17,-0.018 -0.332,0.012 -0.486,0.09 -0.154,0.079 -0.294,0.212 -0.419,0.399 -0.127,0.19 -0.202,0.368 -0.225,0.533 -0.022,0.165 0.006,0.33 0.085,0.495 0.079,0.166 0.218,0.314 0.415,0.446"
                 style="fill:#ffffff;fill-opacity:1;fill-rule:nonzero;stroke:none"
                 id="path4172"
                 transform="translate(-2.9161004,4.0398995)" />
              <path
                 d="m 0,0 c -0.18,-0.098 -0.291,-0.202 -0.333,-0.312 -0.042,-0.109 -0.032,-0.222 0.031,-0.337 0.065,-0.118 0.153,-0.188 0.265,-0.211 0.113,-0.023 0.268,0.02 0.467,0.129 0.168,0.091 0.272,0.192 0.313,0.302 0.04,0.109 0.029,0.222 -0.035,0.338 C 0.648,0.02 0.56,0.088 0.445,0.112 0.33,0.136 0.181,0.099 0,0 M -0.298,0.552 C -0.007,0.71 0.263,0.753 0.514,0.679 0.764,0.606 0.968,0.424 1.126,0.135 1.288,-0.161 1.333,-0.433 1.261,-0.68 1.189,-0.927 1.01,-1.129 0.724,-1.286 0.515,-1.399 0.326,-1.457 0.154,-1.46 c -0.171,-0.003 -0.33,0.042 -0.476,0.134 -0.147,0.092 -0.274,0.237 -0.382,0.434 -0.109,0.201 -0.168,0.385 -0.176,0.551 -0.008,0.167 0.035,0.329 0.129,0.486 0.094,0.158 0.245,0.293 0.453,0.407"
                 style="fill:#ffffff;fill-opacity:1;fill-rule:nonzero;stroke:none"
                 id="path4176"
                 transform="translate(-1.6359002,1.9985006)" />
              <path
                 d="m 0,0 -1.015,-0.445 0.061,-0.14 c 0.053,-0.12 0.103,-0.2 0.152,-0.239 0.049,-0.039 0.113,-0.058 0.192,-0.058 0.079,0 0.193,0.033 0.341,0.098 0.197,0.086 0.318,0.177 0.362,0.274 0.045,0.096 0.035,0.218 -0.03,0.367 L 0,0 Z m 0.169,0.758 0.374,-0.853 c 0.074,-0.168 0.11,-0.313 0.11,-0.437 0,-0.124 -0.028,-0.238 -0.084,-0.343 C 0.513,-0.98 0.435,-1.072 0.335,-1.152 0.235,-1.232 0.122,-1.3 -0.005,-1.356 -0.203,-1.443 -0.367,-1.488 -0.496,-1.49 c -0.13,-0.003 -0.249,0.02 -0.358,0.068 -0.109,0.047 -0.196,0.112 -0.261,0.193 -0.089,0.112 -0.156,0.218 -0.2,0.321 l -0.374,0.853 1.858,0.813 z"
                 style="fill:#ffffff;fill-opacity:1;fill-rule:nonzero;stroke:none"
                 id="path4180" />
            </g>
          </g>
          <g
             transform="translate(176.4657,484.411)"
             id="g4182" />
          <g
             transform="translate(178.2733,482.4904)"
             id="g4186" />
          <g
             transform="translate(178.5648,480.3483)"
             id="g4190" />
          <g
             transform="translate(178.6768,478.3896)"
             id="g4194" />
          <g
             transform="translate(178.6742,476.3496)"
             id="g4198" />
          <g
             transform="translate(177.5874,473.6772)"
             id="g4202" />
          <g
             transform="translate(176.8232,472.311)"
             id="g4206">
            <g
               id="SELLERS">
              <path
                 d="M 0,0 0.169,-0.573 C 0.077,-0.607 0.011,-0.649 -0.03,-0.699 -0.096,-0.781 -0.115,-0.88 -0.089,-0.997 c 0.02,-0.087 0.056,-0.149 0.108,-0.187 0.052,-0.038 0.104,-0.051 0.158,-0.039 0.052,0.012 0.093,0.045 0.123,0.099 0.03,0.054 0.044,0.167 0.043,0.339 -0.001,0.282 0.036,0.491 0.11,0.628 0.074,0.138 0.188,0.225 0.343,0.26 C 0.897,0.126 1,0.118 1.104,0.08 1.208,0.042 1.299,-0.031 1.377,-0.137 1.456,-0.244 1.519,-0.4 1.566,-0.606 1.623,-0.859 1.62,-1.063 1.556,-1.217 1.492,-1.371 1.361,-1.484 1.161,-1.556 l -0.164,0.569 c 0.085,0.036 0.142,0.083 0.172,0.141 0.029,0.058 0.034,0.13 0.014,0.217 C 1.167,-0.558 1.14,-0.508 1.102,-0.479 1.063,-0.45 1.023,-0.44 0.979,-0.45 0.948,-0.457 0.923,-0.479 0.905,-0.514 0.885,-0.548 0.876,-0.622 0.878,-0.736 0.881,-1.016 0.867,-1.221 0.834,-1.349 0.802,-1.479 0.748,-1.579 0.672,-1.652 0.597,-1.724 0.505,-1.773 0.397,-1.797 0.27,-1.826 0.146,-1.818 0.022,-1.772 c -0.122,0.046 -0.226,0.126 -0.31,0.239 -0.084,0.114 -0.148,0.266 -0.191,0.458 -0.077,0.336 -0.065,0.584 0.035,0.743 0.1,0.159 0.248,0.27 0.444,0.332"
                 style="fill:#ffffff;fill-opacity:1;fill-rule:nonzero;stroke:none"
                 id="path4184"
                 transform="translate(-0.35749995,12.1)" />
              <path
                 d="m 0,0 0.244,-1.662 -0.429,-0.063 -0.152,1.04 -0.319,-0.046 0.141,-0.966 -0.409,-0.06 -0.142,0.966 -0.395,-0.059 0.157,-1.07 -0.455,-0.067 -0.248,1.692 L 0,0 Z"
                 style="fill:#ffffff;fill-opacity:1;fill-rule:nonzero;stroke:none"
                 id="path4188"
                 transform="translate(1.4501006,10.179399)" />
              <path
                 d="M 0,0 0.045,-0.625 -1.481,-0.734 -1.411,-1.71 -1.909,-1.746 -2.023,-0.145 0,0 Z"
                 style="fill:#ffffff;fill-opacity:1;fill-rule:nonzero;stroke:none"
                 id="path4192"
                 transform="translate(1.7416005,8.0372998)" />
              <path
                 d="M 0,0 0.01,-0.627 -1.519,-0.652 -1.503,-1.63 -2.002,-1.638 -2.028,-0.033 0,0 Z"
                 style="fill:#ffffff;fill-opacity:1;fill-rule:nonzero;stroke:none"
                 id="path4196"
                 transform="translate(1.8536004,6.0785997)" />
              <path
                 d="m 0,0 -0.122,-1.676 -0.432,0.032 0.076,1.049 -0.321,0.023 -0.071,-0.973 -0.413,0.03 0.071,0.973 -0.399,0.03 -0.079,-1.08 -0.458,0.034 0.125,1.705 L 0,0 Z"
                 style="fill:#ffffff;fill-opacity:1;fill-rule:nonzero;stroke:none"
                 id="path4200"
                 transform="translate(1.8509995,4.0386003)" />
              <path
                 d="m 0,0 -0.04,-0.261 c -0.005,-0.028 -0.004,-0.084 0.002,-0.168 0.001,-0.043 0.017,-0.08 0.047,-0.111 0.03,-0.031 0.066,-0.05 0.11,-0.057 0.065,-0.01 0.118,0.003 0.159,0.039 0.041,0.035 0.07,0.11 0.087,0.223 L 0.407,-0.063 0,0 Z M -1.097,0.806 0.908,0.497 0.749,-0.536 C 0.719,-0.727 0.68,-0.871 0.632,-0.967 0.583,-1.063 0.51,-1.135 0.412,-1.184 0.313,-1.232 0.2,-1.246 0.072,-1.227 c -0.111,0.018 -0.203,0.056 -0.276,0.116 -0.074,0.06 -0.129,0.135 -0.167,0.226 -0.023,0.058 -0.039,0.134 -0.045,0.23 -0.036,-0.07 -0.069,-0.12 -0.099,-0.15 -0.02,-0.02 -0.06,-0.048 -0.121,-0.083 -0.06,-0.035 -0.106,-0.057 -0.138,-0.067 l -0.627,-0.211 0.108,0.7 0.664,0.237 c 0.086,0.03 0.143,0.059 0.172,0.088 0.038,0.04 0.061,0.088 0.07,0.145 l 0.008,0.054 -0.814,0.126 0.096,0.622 z"
                 style="fill:#ffffff;fill-opacity:1;fill-rule:nonzero;stroke:none"
                 id="path4204"
                 transform="translate(0.76419955,1.3662001)" />
              <path
                 d="m 0,0 -0.102,-0.589 c -0.097,0.01 -0.175,0.002 -0.234,-0.025 -0.095,-0.044 -0.156,-0.124 -0.183,-0.241 -0.021,-0.087 -0.017,-0.159 0.013,-0.216 0.029,-0.057 0.071,-0.091 0.125,-0.104 0.051,-0.013 0.102,-10e-4 0.153,0.034 0.052,0.036 0.114,0.13 0.189,0.285 0.124,0.253 0.249,0.425 0.376,0.515 0.127,0.091 0.268,0.119 0.422,0.082 0.102,-0.024 0.19,-0.076 0.266,-0.157 0.077,-0.08 0.127,-0.185 0.15,-0.316 C 1.198,-0.862 1.186,-1.03 1.137,-1.235 1.077,-1.488 0.984,-1.669 0.859,-1.779 0.733,-1.889 0.565,-1.932 0.355,-1.908 l 0.103,0.582 c 0.093,-0.005 0.165,0.011 0.217,0.05 0.052,0.04 0.088,0.103 0.109,0.189 0.017,0.071 0.014,0.128 -0.007,0.171 C 0.755,-0.873 0.723,-0.847 0.68,-0.836 0.648,-0.829 0.617,-0.837 0.585,-0.861 0.552,-0.883 0.511,-0.945 0.463,-1.048 0.342,-1.301 0.238,-1.478 0.152,-1.579 c -0.086,-0.101 -0.179,-0.168 -0.278,-0.2 -0.1,-0.031 -0.204,-0.034 -0.311,-0.009 -0.127,0.03 -0.235,0.093 -0.325,0.189 -0.091,0.095 -0.148,0.212 -0.173,0.351 -0.026,0.139 -0.015,0.304 0.03,0.495 0.08,0.335 0.2,0.552 0.36,0.651 C -0.385,-0.004 -0.203,0.03 0,0"
                 style="fill:#ffffff;fill-opacity:1;fill-rule:nonzero;stroke:none"
                 id="path4208" />
            </g>
          </g>
          <g
             transform="translate(119.1981,456.3134)"
             id="g4210">
            <path
               id="path4212"
               style="fill:#fff001;fill-opacity:1;fill-rule:nonzero;stroke:#fff001;stroke-width:1.64699996;stroke-linecap:butt;stroke-linejoin:miter;stroke-miterlimit:4;stroke-dasharray:none;stroke-opacity:1"
               d="m 0,0 0.506,2.785 c 0,0 3.108,2.82 3.763,3.168 0,0 12.919,4.869 13.02,4.944 0.1,0.075 2.519,1.065 2.872,1.389 0.354,0.325 5.766,7.656 6.122,8.433 l 0.201,6.452 0.459,1.002 c 0,0 1.239,1.374 1.391,1.499 0.151,0.124 0.455,0.525 0.556,0.599 0.101,0.075 0.303,0.275 0.429,0.375 0.127,0.099 0.506,0.423 0.506,0.423 0,0 0.176,0.125 0.277,0.175 0.101,0.049 1.488,0.845 3.291,-0.046 l 1.075,-0.911 c 0,0 0.599,-0.632 0.648,-0.733 0.05,-0.101 1.073,-1.313 1.073,-1.313 l 0.522,-0.883 0.22,-6.738 c 0,0 4.32,-6.655 5.843,-8.248 L 45.603,10.797 58.56,5.642 c 0,0 1.201,-0.811 1.451,-1.013 0.25,-0.203 1.849,-1.57 1.849,-1.57 0,0 0.475,-0.505 0.648,-0.958 l 0.357,-2.373" />
          </g>
        </g>
      </g>
      <g
         transform="matrix(76.898516,0,0,-76.898516,1816.3508,806.59057)"
         id="g4214">
        <path
           id="path4216"
           style="fill:#fff001;fill-opacity:1;fill-rule:nonzero;stroke:none"
           d="M 0,0 0.618,-2.162 17.398,-2.059 18.015,0" />
      </g>
      <g
         id="g4218"
         transform="matrix(76.898516,0,0,-76.898516,-9075.5857,35338.946)">
        <g
           clip-path="url(#clipPath4222)"
           id="g4220">
          <g
             transform="translate(141.6404,449.064)"
             id="g4226">
            <path
               id="path4228"
               style="fill:none;stroke:#fff001;stroke-width:1.64699996;stroke-linecap:butt;stroke-linejoin:miter;stroke-miterlimit:4;stroke-dasharray:none;stroke-opacity:1"
               d="M 0,0 0.618,-2.162 17.398,-2.059 18.015,0" />
          </g>
          <g
             transform="translate(118.8064,456.6604)"
             id="g4230">
            <path
               id="path4232"
               style="fill:#c4c8cb;fill-opacity:1;fill-rule:nonzero;stroke:none"
               d="m 0,0 0.871,2.682 c 0,0 3.107,2.821 3.763,3.168 0,0 12.919,4.87 13.02,4.945 0.1,0.074 2.518,1.064 2.872,1.389 0.354,0.324 5.148,7.656 5.504,8.432 l 0.819,6.452 0.459,1.002 c 0,0 1.239,1.375 1.39,1.499 0.152,0.125 0.456,0.525 0.557,0.6 0.101,0.075 0.303,0.274 0.429,0.374 0.127,0.1 0.505,0.424 0.505,0.424 0,0 0.177,0.125 0.278,0.174 0.101,0.05 1.488,0.845 3.291,-0.045 l 1.075,-0.912 c 0,0 0.599,-0.631 0.648,-0.732 0.05,-0.101 1.072,-1.313 1.072,-1.313 l 0.523,-0.883 0.838,-6.738 c 0,0 3.702,-6.656 5.225,-8.248 L 45.968,10.695 58.925,5.54 c 0,0 1.201,-0.811 1.451,-1.014 0.25,-0.202 1.849,-1.569 1.849,-1.569 0,0 0.475,-0.505 0.648,-0.959 l 0.765,-2.291 -22.533,-3.478 -0.032,-1.13 -1.075,-4.47 -16.431,-0.024 -0.986,4.382 0.059,1.381 L 0,0 Z" />
          </g>
          <g
             transform="translate(118.8064,456.6604)"
             id="g4234">
            <path
               id="path4236"
               style="fill:none;stroke:#000000;stroke-width:0.206;stroke-linecap:butt;stroke-linejoin:miter;stroke-miterlimit:4;stroke-dasharray:none;stroke-opacity:1"
               d="m 0,0 0.871,2.682 c 0,0 3.107,2.821 3.763,3.168 0,0 12.919,4.87 13.02,4.945 0.1,0.074 2.518,1.064 2.872,1.389 0.354,0.324 5.148,7.656 5.504,8.432 l 0.819,6.452 0.459,1.002 c 0,0 1.239,1.375 1.39,1.499 0.152,0.125 0.456,0.525 0.557,0.6 0.101,0.075 0.303,0.274 0.429,0.374 0.127,0.1 0.505,0.424 0.505,0.424 0,0 0.177,0.125 0.278,0.174 0.101,0.05 1.488,0.845 3.291,-0.045 l 1.075,-0.912 c 0,0 0.599,-0.631 0.648,-0.732 0.05,-0.101 1.072,-1.313 1.072,-1.313 l 0.523,-0.883 0.838,-6.738 c 0,0 3.702,-6.656 5.225,-8.248 L 45.968,10.695 58.925,5.54 c 0,0 1.201,-0.811 1.451,-1.014 0.25,-0.202 1.849,-1.569 1.849,-1.569 0,0 0.475,-0.505 0.648,-0.959 l 0.765,-2.291 -22.533,-3.478 -0.032,-1.13 -1.075,-4.47 -16.431,-0.024 -0.986,4.382 0.059,1.381 L 0,0 Z" />
          </g>
          <g
             transform="translate(146.4922,485.2525)"
             id="g4238">
            <path
               id="path4240"
               style="fill:#4f5354;fill-opacity:1;fill-rule:nonzero;stroke:none"
               d="m 0,0 -1.007,-13.45 c 0,0 -0.925,-0.216 -1.148,-0.713 -0.223,-0.497 1.221,12.507 1.221,12.507 0,0 0.844,1.38 0.934,1.656" />
          </g>
          <g
             transform="translate(155.0678,485.2627)"
             id="g4242">
            <path
               id="path4244"
               style="fill:#4f5354;fill-opacity:1;fill-rule:nonzero;stroke:none"
               d="m 0,0 0.841,-13.462 c 0,0 0.923,-0.228 1.139,-0.727 0.217,-0.5 -1.066,12.522 -1.066,12.522 0,0 -0.828,1.389 -0.914,1.667" />
          </g>
          <g
             transform="translate(148.2703,467.2939)"
             id="g4246">
            <path
               id="path4248"
               style="fill:#fff001;fill-opacity:1;fill-rule:nonzero;stroke:#fff001;stroke-width:0.206;stroke-linecap:butt;stroke-linejoin:miter;stroke-miterlimit:4;stroke-dasharray:none;stroke-opacity:1"
               d="m 0,0 c 0.001,0.086 0.878,2.533 0.771,3.85 l -1.655,1.425 c 0,0 -1.026,0.693 -2.464,-0.243 0,0 -1.985,-1.449 -2.909,-2.731 0,0 -1.037,-0.996 -1.475,-2.253 0,0 -1.104,-2.657 -1.237,-5.606 0,0 0.023,-0.887 1.197,-0.98 0,0 1.886,-0.642 1.972,-0.643 0.086,0 1.058,-0.236 1.259,-0.151 0.201,0.085 4.512,7.246 4.512,7.246" />
          </g>
          <g
             transform="translate(153.5385,467.2126)"
             id="g4250">
            <path
               id="path4252"
               style="fill:#fff001;fill-opacity:1;fill-rule:nonzero;stroke:#fff001;stroke-width:0.206;stroke-linecap:butt;stroke-linejoin:miter;stroke-miterlimit:4;stroke-dasharray:none;stroke-opacity:1"
               d="m 0,0 c -0.001,0.086 -0.878,2.533 -0.771,3.85 l 1.655,1.425 c 0,0 1.026,0.693 2.464,-0.243 0,0 1.985,-1.449 2.909,-2.731 0,0 1.037,-0.996 1.475,-2.253 0,0 1.104,-2.657 1.237,-5.606 0,0 -0.023,-0.887 -1.197,-0.98 0,0 -1.886,-0.642 -1.972,-0.643 -0.086,0 -1.058,-0.236 -1.259,-0.151 -0.201,0.085 -4.512,7.246 -4.512,7.246" />
          </g>
          <g
             transform="translate(148.0998,466.9926)"
             id="g4254">
            <path
               id="path4256"
               style="fill:#c4c8cb;fill-opacity:1;fill-rule:nonzero;stroke:#000000;stroke-width:0.206;stroke-linecap:butt;stroke-linejoin:miter;stroke-miterlimit:4;stroke-dasharray:none;stroke-opacity:1"
               d="m 0,0 c 0.001,0.086 0.878,2.944 0.771,4.262 l -1.655,1.013 c 0,0 -1.026,0.693 -2.464,-0.243 0,0 -1.985,-1.449 -2.909,-2.731 0,0 -1.037,-0.996 -1.475,-2.253 0,0 -1.104,-2.657 -1.237,-5.606 0,0 0.023,-0.887 1.197,-0.98 0,0 1.886,-0.642 1.972,-0.643 0.086,0 1.058,-0.235 1.259,-0.151 0.201,0.085 4.512,7.246 4.512,7.246" />
          </g>
          <g
             transform="translate(148.1584,467.2213)"
             id="g4258">
            <path
               id="path4260"
               style="fill:#4f5354;fill-opacity:1;fill-rule:nonzero;stroke:none"
               d="m 0,0 c 0,0 -2.365,1.876 -3.799,1.512 0,0 -2.15,-0.33 -4.227,-2.78 0,0 -0.74,-1.539 -0.966,-4.318 -0.002,-0.029 -0.004,-0.057 -0.006,-0.086 0,0 -0.09,-0.601 0.395,-0.861 0.486,-0.261 1.201,-0.352 1.201,-0.352 l 2.286,-0.701 0.688,-0.004 c 0,0 4.429,7.676 4.428,7.59" />
          </g>
          <g
             transform="translate(148.1584,467.2213)"
             id="g4262">
            <path
               id="path4264"
               style="fill:none;stroke:#000000;stroke-width:0.206;stroke-linecap:butt;stroke-linejoin:miter;stroke-miterlimit:4;stroke-dasharray:none;stroke-opacity:1"
               d="m 0,0 c 0,0 -2.365,1.876 -3.799,1.512 0,0 -2.15,-0.33 -4.227,-2.78 0,0 -0.74,-1.539 -0.966,-4.318 -0.002,-0.029 -0.004,-0.057 -0.006,-0.086 0,0 -0.09,-0.601 0.395,-0.861 0.486,-0.261 1.201,-0.352 1.201,-0.352 l 2.286,-0.701 0.688,-0.004 c 0,0 4.429,7.676 4.428,7.59 z" />
          </g>
          <g
             transform="translate(144.1758,471.4842)"
             id="g4266">
            <path
               id="path4268"
               style="fill:#4f5354;fill-opacity:1;fill-rule:nonzero;stroke:none"
               d="m 0,0 c 0,0 -0.727,-1.742 -0.735,-3.031 0,0 -2.067,-0.875 -3.308,-2.5 l 0.498,1.801 1.212,1.539 0.836,0.969 0.691,0.597 L 0,0 Z" />
          </g>
          <g
             transform="translate(148.0737,466.9957)"
             id="g4270">
            <path
               id="path4272"
               style="fill:none;stroke:#000000;stroke-width:0.206;stroke-linecap:butt;stroke-linejoin:miter;stroke-miterlimit:4;stroke-dasharray:none;stroke-opacity:1"
               d="m 0,0 c 0.001,0.086 0.878,2.944 0.771,4.262 l -1.655,1.012 c 0,0 -1.026,0.694 -2.464,-0.242 0,0 -1.985,-1.448 -2.909,-2.731 0,0 -1.037,-0.996 -1.475,-2.253 0,0 -1.104,-2.657 -1.237,-5.606 0,0 0.023,-0.887 1.197,-0.981 0,0 1.886,-0.641 1.972,-0.642 0.086,0 1.058,-0.235 1.259,-0.151 0.201,0.085 4.512,7.246 4.512,7.246" />
          </g>
          <g
             transform="translate(148.1218,467.2395)"
             id="g4274">
            <path
               id="path4276"
               style="fill:none;stroke:#000000;stroke-width:0.206;stroke-linecap:butt;stroke-linejoin:miter;stroke-miterlimit:4;stroke-dasharray:none;stroke-opacity:1"
               d="m 0,0 c 0,0 -2.365,1.876 -3.799,1.512 0,0 -2.15,-0.33 -4.227,-2.78 0,0 -0.74,-1.539 -0.966,-4.318 -0.002,-0.029 -0.004,-0.057 -0.006,-0.086 0,0 -0.09,-0.601 0.395,-0.861 0.485,-0.261 1.201,-0.351 1.201,-0.351 l 2.286,-0.702 0.688,-0.004 C -4.428,-7.59 0,0.086 0,0 Z" />
          </g>
          <g
             transform="translate(153.6537,466.9583)"
             id="g4278">
            <path
               id="path4280"
               style="fill:#c4c8cb;fill-opacity:1;fill-rule:nonzero;stroke:#000000;stroke-width:0.206;stroke-linecap:butt;stroke-linejoin:miter;stroke-miterlimit:4;stroke-dasharray:none;stroke-opacity:1"
               d="m 0,0 c 0,0.086 -0.841,2.955 -0.718,4.271 l 1.667,0.992 c 0,0 1.035,0.681 2.461,-0.273 0,0 1.966,-1.473 2.875,-2.767 0,0 1.025,-1.008 1.447,-2.271 0,0 1.071,-2.67 1.168,-5.62 0,0 -0.034,-0.887 -1.209,-0.966 0,0 -1.894,-0.618 -1.98,-0.618 C 5.625,-7.251 4.65,-7.474 4.45,-7.387 4.251,-7.3 0.028,-0.086 0.028,-0.086" />
          </g>
          <g
             transform="translate(153.5978,467.1877)"
             id="g4282">
            <path
               id="path4284"
               style="fill:#4f5354;fill-opacity:1;fill-rule:nonzero;stroke:none"
               d="m 0,0 c 0,0 2.388,1.846 3.818,1.465 0,0 2.145,-0.356 4.192,-2.832 0,0 0.72,-1.548 0.912,-4.33 0.002,-0.028 0.004,-0.057 0.006,-0.086 0,0 0.082,-0.602 -0.406,-0.856 C 8.033,-6.894 7.317,-6.976 7.317,-6.976 L 5.022,-7.648 4.334,-7.644 c 0,0 -4.333,7.73 -4.334,7.644" />
          </g>
          <g
             transform="translate(153.5978,467.1877)"
             id="g4286">
            <path
               id="path4288"
               style="fill:none;stroke:#000000;stroke-width:0.206;stroke-linecap:butt;stroke-linejoin:miter;stroke-miterlimit:4;stroke-dasharray:none;stroke-opacity:1"
               d="m 0,0 c 0,0 2.388,1.846 3.818,1.465 0,0 2.145,-0.356 4.192,-2.832 0,0 0.72,-1.548 0.912,-4.33 0.002,-0.028 0.004,-0.057 0.006,-0.086 0,0 0.082,-0.602 -0.406,-0.856 C 8.033,-6.894 7.317,-6.976 7.317,-6.976 L 5.022,-7.648 4.334,-7.644 c 0,0 -4.333,7.73 -4.334,7.644 z" />
          </g>
          <g
             transform="translate(157.6329,471.401)"
             id="g4290">
            <path
               id="path4292"
               style="fill:#4f5354;fill-opacity:1;fill-rule:nonzero;stroke:none"
               d="m 0,0 c 0,0 0.705,-1.751 0.697,-3.04 0,0 2.056,-0.9 3.278,-2.54 L 3.499,-3.773 2.306,-2.219 1.482,-1.241 0.798,-0.635 0,0 Z" />
          </g>
          <g
             transform="translate(153.6798,466.9611)"
             id="g4294">
            <path
               id="path4296"
               style="fill:none;stroke:#000000;stroke-width:0.206;stroke-linecap:butt;stroke-linejoin:miter;stroke-miterlimit:4;stroke-dasharray:none;stroke-opacity:1"
               d="m 0,0 c 0,0.086 -0.841,2.955 -0.718,4.271 l 1.667,0.992 c 0,0 1.035,0.681 2.461,-0.273 0,0 1.967,-1.473 2.875,-2.767 0,0 1.025,-1.008 1.447,-2.271 0,0 1.071,-2.67 1.168,-5.62 0,0 -0.034,-0.887 -1.209,-0.966 0,0 -1.894,-0.618 -1.98,-0.618 C 5.625,-7.251 4.65,-7.474 4.45,-7.387 4.251,-7.3 0.028,-0.086 0.028,-0.086" />
          </g>
          <g
             transform="translate(153.6346,467.2055)"
             id="g4298">
            <path
               id="path4300"
               style="fill:none;stroke:#000000;stroke-width:0.206;stroke-linecap:butt;stroke-linejoin:miter;stroke-miterlimit:4;stroke-dasharray:none;stroke-opacity:1"
               d="m 0,0 c 0,0 2.388,1.846 3.818,1.465 0,0 2.146,-0.357 4.192,-2.832 0,0 0.72,-1.548 0.912,-4.33 0.002,-0.028 0.004,-0.057 0.006,-0.086 0,0 0.082,-0.602 -0.406,-0.856 C 8.033,-6.894 7.317,-6.975 7.317,-6.975 L 5.022,-7.649 4.334,-7.644 c 0,0 -4.333,7.73 -4.334,7.644 z" />
          </g>
          <g
             transform="translate(119.3087,458.061)"
             id="g4302">
            <path
               id="path4304"
               style="fill:#000000;fill-opacity:1;fill-rule:nonzero;stroke:none"
               d="m 0,0 9.471,-0.67 -1.158,-2.056 0.992,-0.121 1.235,2.056 11.877,-1.029 -0.296,-4.583 1.012,-4.413 16.391,-0.063 1.013,4.439 -0.24,4.51 11.965,0.881 1.171,-2.109 1.032,0.147 -1.248,1.994 9.441,0.63 -0.224,0.804 -22.203,-0.666 -0.209,3.326 -5.999,6.074 c 0,0 -2.585,2.155 -5.465,-0.272 L 22.753,3.185 22.504,-0.101 0.427,1.029 0,0 Z" />
          </g>
          <g
             transform="translate(119.3087,458.061)"
             id="g4306">
            <path
               id="path4308"
               style="fill:none;stroke:#000000;stroke-width:0.206;stroke-linecap:butt;stroke-linejoin:miter;stroke-miterlimit:4;stroke-dasharray:none;stroke-opacity:1"
               d="m 0,0 9.471,-0.67 -1.158,-2.056 0.992,-0.121 1.235,2.056 11.877,-1.029 -0.296,-4.583 1.012,-4.413 16.391,-0.063 1.013,4.439 -0.24,4.51 11.965,0.881 1.171,-2.109 1.032,0.147 -1.248,1.994 9.441,0.63 -0.224,0.804 -22.203,-0.666 -0.209,3.326 -5.999,6.074 c 0,0 -2.585,2.155 -5.465,-0.272 L 22.753,3.185 22.504,-0.101 0.427,1.029 0,0 Z" />
          </g>
          <g
             transform="translate(159.9114,452.8893)"
             id="g4310">
            <path
               id="path4312"
               style="fill:#4f5354;fill-opacity:1;fill-rule:nonzero;stroke:#000000;stroke-width:0.206;stroke-linecap:butt;stroke-linejoin:miter;stroke-miterlimit:4;stroke-dasharray:none;stroke-opacity:1"
               d="m 0,0 -0.581,8.165 -5.999,6.073 c 0,0 -2.585,2.155 -5.466,-0.272 L -17.85,8.273 -18.465,0.14" />
          </g>
          <g
             transform="translate(120.5331,460.0549)"
             id="g4314">
            <path
               id="path4316"
               style="fill:none;stroke:#000000;stroke-width:0.206;stroke-linecap:butt;stroke-linejoin:miter;stroke-miterlimit:4;stroke-dasharray:none;stroke-opacity:1"
               d="M 0,0 0.052,0.017" />
          </g>
          <g
             transform="translate(149.5077,468.7888)"
             id="g4318">
            <path
               id="path4320"
               style="fill:#4f5354;fill-opacity:1;fill-rule:evenodd;stroke:none"
               d="m 0,0 0.813,16.195 0.504,1.549 c 0,0 0.11,0.094 0.15,-0.03 0.04,-0.122 0.439,-1.53 0.439,-1.53 L 2.543,0.095 2.113,-0.994 0.476,-0.984 0,0 Z" />
          </g>
          <g
             transform="translate(149.5077,468.7888)"
             id="g4322">
            <path
               id="path4324"
               style="fill:none;stroke:#000000;stroke-width:0.206;stroke-linecap:butt;stroke-linejoin:miter;stroke-miterlimit:4;stroke-dasharray:none;stroke-opacity:1"
               d="m 0,0 0.813,16.195 0.504,1.549 c 0,0 0.11,0.094 0.15,-0.03 0.04,-0.122 0.439,-1.53 0.439,-1.53 L 2.543,0.095 2.113,-0.994 0.476,-0.984 0,0 Z" />
          </g>
          <g
             transform="translate(150.3299,484.3929)"
             id="g4326">
            <path
               id="path4328"
               style="fill:#000000;fill-opacity:1;fill-rule:evenodd;stroke:#000000;stroke-width:0.206;stroke-linecap:butt;stroke-linejoin:miter;stroke-miterlimit:4;stroke-dasharray:none;stroke-opacity:1"
               d="M 0,0 0.506,-1.009 0.433,-15.78 0.662,-1.011 1.043,-0.034 0.974,0.625 0.562,1.898 0.105,0.585 -0.018,0.064" />
          </g>
          <g
             transform="translate(158.2966,455.6657)"
             id="g4330">
            <path
               id="path4332"
               style="fill:#000000;fill-opacity:1;fill-rule:nonzero;stroke:none"
               d="m 0,0 c -0.012,-1.875 -1.541,-3.385 -3.416,-3.374 -1.875,0.012 -3.385,1.541 -3.374,3.416 0.012,1.875 1.541,3.385 3.416,3.374 C -1.499,3.404 0.012,1.875 0,0" />
          </g>
          <g
             transform="translate(158.2966,455.6657)"
             id="g4334">
            <path
               id="path4336"
               style="fill:none;stroke:#000000;stroke-width:0.206;stroke-linecap:butt;stroke-linejoin:miter;stroke-miterlimit:4;stroke-dasharray:none;stroke-opacity:1"
               d="m 0,0 c -0.012,-1.875 -1.541,-3.385 -3.416,-3.374 -1.875,0.012 -3.385,1.541 -3.374,3.416 0.012,1.875 1.541,3.385 3.416,3.374 C -1.499,3.404 0.012,1.875 0,0 Z" />
          </g>
          <g
             transform="translate(150.1653,455.7162)"
             id="g4338">
            <path
               id="path4340"
               style="fill:#000000;fill-opacity:1;fill-rule:nonzero;stroke:none"
               d="m 0,0 c -0.012,-1.875 -1.541,-3.385 -3.416,-3.374 -1.875,0.012 -3.385,1.541 -3.374,3.416 0.012,1.875 1.541,3.385 3.416,3.374 C -1.499,3.404 0.011,1.875 0,0" />
          </g>
          <g
             transform="translate(150.1653,455.7162)"
             id="g4342">
            <path
               id="path4344"
               style="fill:none;stroke:#000000;stroke-width:0.206;stroke-linecap:butt;stroke-linejoin:miter;stroke-miterlimit:4;stroke-dasharray:none;stroke-opacity:1"
               d="m 0,0 c -0.012,-1.875 -1.541,-3.385 -3.416,-3.374 -1.875,0.012 -3.385,1.541 -3.374,3.416 0.012,1.875 1.541,3.385 3.416,3.374 C -1.499,3.404 0.011,1.875 0,0 Z" />
          </g>
          <g
             transform="translate(154.0832,464.1962)"
             id="g4346">
            <path
               id="path4348"
               style="fill:#000000;fill-opacity:1;fill-rule:nonzero;stroke:none"
               d="m 0,0 c -0.011,-1.875 -1.54,-3.386 -3.416,-3.374 -1.875,0.012 -3.385,1.541 -3.373,3.416 0.011,1.875 1.54,3.385 3.415,3.374 C -1.498,3.404 0.012,1.875 0,0" />
          </g>
          <g
             transform="translate(154.0832,464.1962)"
             id="g4350">
            <path
               id="path4352"
               style="fill:none;stroke:#000000;stroke-width:0.206;stroke-linecap:butt;stroke-linejoin:miter;stroke-miterlimit:4;stroke-dasharray:none;stroke-opacity:1"
               d="m 0,0 c -0.011,-1.875 -1.54,-3.386 -3.416,-3.374 -1.875,0.012 -3.385,1.541 -3.373,3.416 0.011,1.875 1.54,3.385 3.415,3.374 C -1.498,3.404 0.012,1.875 0,0 Z" />
          </g>
          <g
             transform="translate(158.8254,454.6155)"
             id="g4354">
            <path
               id="path4356"
               style="fill:#000000;fill-opacity:1;fill-rule:nonzero;stroke:none"
               d="m 0,0 c -0.012,-1.999 -1.643,-3.609 -3.641,-3.596 -1.999,0.012 -3.609,1.642 -3.596,3.641 0.012,1.998 1.642,3.608 3.641,3.596 C -1.598,3.629 0.012,1.999 0,0" />
          </g>
          <g
             transform="translate(158.8254,454.6155)"
             id="g4358">
            <path
               id="path4360"
               style="fill:none;stroke:#c4c8cb;stroke-width:0.206;stroke-linecap:butt;stroke-linejoin:miter;stroke-miterlimit:4;stroke-dasharray:none;stroke-opacity:1"
               d="m 0,0 c -0.012,-1.999 -1.643,-3.609 -3.641,-3.596 -1.999,0.012 -3.609,1.642 -3.596,3.641 0.012,1.998 1.642,3.608 3.641,3.596 C -1.598,3.629 0.012,1.999 0,0 Z" />
          </g>
          <g
             transform="translate(150.1577,454.6693)"
             id="g4362">
            <path
               id="path4364"
               style="fill:#000000;fill-opacity:1;fill-rule:nonzero;stroke:none"
               d="m 0,0 c -0.013,-1.999 -1.643,-3.609 -3.642,-3.596 -1.998,0.012 -3.608,1.642 -3.596,3.641 0.013,1.998 1.643,3.608 3.641,3.596 C -1.598,3.629 0.012,1.999 0,0" />
          </g>
          <g
             transform="translate(150.1577,454.6693)"
             id="g4366">
            <path
               id="path4368"
               style="fill:none;stroke:#c4c8cb;stroke-width:0.206;stroke-linecap:butt;stroke-linejoin:miter;stroke-miterlimit:4;stroke-dasharray:none;stroke-opacity:1"
               d="m 0,0 c -0.013,-1.999 -1.643,-3.609 -3.642,-3.596 -1.998,0.012 -3.608,1.642 -3.596,3.641 0.013,1.998 1.643,3.608 3.641,3.596 C -1.598,3.629 0.012,1.999 0,0 Z" />
          </g>
          <g
             transform="translate(154.3341,463.2697)"
             id="g4370">
            <path
               id="path4372"
               style="fill:#000000;fill-opacity:1;fill-rule:nonzero;stroke:none"
               d="m 0,0 c -0.012,-1.999 -1.642,-3.609 -3.641,-3.597 -1.999,0.013 -3.609,1.643 -3.596,3.642 0.012,1.998 1.642,3.608 3.641,3.596 C -1.597,3.629 0.013,1.999 0,0" />
          </g>
          <g
             transform="translate(154.3341,463.2697)"
             id="g4374">
            <path
               id="path4376"
               style="fill:none;stroke:#c4c8cb;stroke-width:0.206;stroke-linecap:butt;stroke-linejoin:miter;stroke-miterlimit:4;stroke-dasharray:none;stroke-opacity:1"
               d="m 0,0 c -0.012,-1.999 -1.642,-3.609 -3.641,-3.597 -1.999,0.013 -3.609,1.643 -3.596,3.642 0.012,1.998 1.642,3.608 3.641,3.596 C -1.597,3.629 0.013,1.999 0,0 Z" />
          </g>
          <g
             transform="translate(158.7959,466.1964)"
             id="g4378">
            <path
               id="path4380"
               style="fill:#000000;fill-opacity:1;fill-rule:nonzero;stroke:none"
               d="m 0,0 c -0.006,-0.898 -0.739,-1.621 -1.636,-1.616 -0.898,0.006 -1.621,0.738 -1.616,1.636 0.006,0.898 0.738,1.622 1.636,1.616 C -0.718,1.63 0.005,0.898 0,0" />
          </g>
          <g
             transform="translate(158.7959,466.1964)"
             id="g4382">
            <path
               id="path4384"
               style="fill:none;stroke:#000000;stroke-width:0.206;stroke-linecap:butt;stroke-linejoin:miter;stroke-miterlimit:4;stroke-dasharray:none;stroke-opacity:1"
               d="m 0,0 c -0.006,-0.898 -0.739,-1.621 -1.636,-1.616 -0.898,0.006 -1.621,0.738 -1.616,1.636 0.006,0.898 0.738,1.622 1.636,1.616 C -0.718,1.63 0.005,0.898 0,0 Z" />
          </g>
          <g
             transform="translate(145.9821,466.2755)"
             id="g4386">
            <path
               id="path4388"
               style="fill:#000000;fill-opacity:1;fill-rule:nonzero;stroke:none"
               d="m 0,0 c -0.006,-0.898 -0.738,-1.621 -1.636,-1.616 -0.898,0.006 -1.621,0.738 -1.615,1.636 0.005,0.898 0.737,1.622 1.635,1.616 C -0.718,1.63 0.006,0.898 0,0" />
          </g>
          <g
             transform="translate(145.9821,466.2755)"
             id="g4390">
            <path
               id="path4392"
               style="fill:none;stroke:#000000;stroke-width:0.206;stroke-linecap:butt;stroke-linejoin:miter;stroke-miterlimit:4;stroke-dasharray:none;stroke-opacity:1"
               d="m 0,0 c -0.006,-0.898 -0.738,-1.621 -1.636,-1.616 -0.898,0.006 -1.621,0.738 -1.615,1.636 0.005,0.898 0.737,1.622 1.635,1.616 C -0.718,1.63 0.006,0.898 0,0 Z" />
          </g>
          <g
             transform="translate(159.197,465.7555)"
             id="g4394">
            <path
               id="path4396"
               style="fill:#000000;fill-opacity:1;fill-rule:nonzero;stroke:none"
               d="m 0,0 c -0.006,-0.944 -0.776,-1.704 -1.719,-1.698 -0.944,0.006 -1.704,0.775 -1.698,1.719 0.006,0.944 0.775,1.704 1.719,1.698 C -0.755,1.713 0.006,0.943 0,0" />
          </g>
          <g
             transform="translate(159.197,465.7555)"
             id="g4398">
            <path
               id="path4400"
               style="fill:none;stroke:#c4c8cb;stroke-width:0.206;stroke-linecap:butt;stroke-linejoin:miter;stroke-miterlimit:4;stroke-dasharray:none;stroke-opacity:1"
               d="m 0,0 c -0.006,-0.944 -0.776,-1.704 -1.719,-1.698 -0.944,0.006 -1.704,0.775 -1.698,1.719 0.006,0.944 0.775,1.704 1.719,1.698 C -0.755,1.713 0.006,0.943 0,0 Z" />
          </g>
          <g
             transform="translate(145.7317,465.8386)"
             id="g4402">
            <path
               id="path4404"
               style="fill:#000000;fill-opacity:1;fill-rule:nonzero;stroke:none"
               d="m 0,0 c -0.006,-0.944 -0.776,-1.704 -1.719,-1.698 -0.944,0.006 -1.704,0.775 -1.698,1.719 0.006,0.944 0.775,1.704 1.719,1.698 C -0.755,1.713 0.006,0.943 0,0" />
          </g>
          <g
             transform="translate(145.7317,465.8386)"
             id="g4406">
            <path
               id="path4408"
               style="fill:none;stroke:#c4c8cb;stroke-width:0.206;stroke-linecap:butt;stroke-linejoin:miter;stroke-miterlimit:4;stroke-dasharray:none;stroke-opacity:1"
               d="m 0,0 c -0.006,-0.944 -0.776,-1.704 -1.719,-1.698 -0.944,0.006 -1.704,0.775 -1.698,1.719 0.006,0.944 0.775,1.704 1.719,1.698 C -0.755,1.713 0.006,0.943 0,0 Z" />
          </g>
          <g
             transform="translate(147.9362,456.1135)"
             id="g4410">
            <path
               id="path4412"
               style="fill:#c4c8cb;fill-opacity:1;fill-rule:nonzero;stroke:none"
               d="m 0,0 c -0.004,-0.651 -0.535,-1.175 -1.186,-1.171 -0.65,0.004 -1.175,0.535 -1.17,1.185 0.004,0.651 0.534,1.175 1.185,1.172 C -0.52,1.181 0.004,0.651 0,0" />
          </g>
          <g
             transform="translate(155.9731,456.0638)"
             id="g4414">
            <path
               id="path4416"
               style="fill:#c4c8cb;fill-opacity:1;fill-rule:nonzero;stroke:none"
               d="m 0,0 c -0.004,-0.651 -0.535,-1.175 -1.186,-1.171 -0.65,0.004 -1.175,0.535 -1.17,1.186 0.004,0.65 0.534,1.175 1.185,1.171 C -0.52,1.182 0.004,0.651 0,0" />
          </g>
          <g
             transform="translate(151.9431,464.3783)"
             id="g4418">
            <path
               id="path4420"
               style="fill:#c4c8cb;fill-opacity:1;fill-rule:nonzero;stroke:none"
               d="m 0,0 c -0.004,-0.651 -0.535,-1.175 -1.186,-1.171 -0.65,0.004 -1.175,0.535 -1.171,1.186 0.004,0.65 0.535,1.174 1.186,1.17 C -0.52,1.181 0.004,0.651 0,0" />
          </g>
          <g
             transform="translate(144.7479,466.2429)"
             id="g4422">
            <path
               id="path4424"
               style="fill:#c4c8cb;fill-opacity:1;fill-rule:nonzero;stroke:none"
               d="m 0,0 c -0.002,-0.297 -0.243,-0.535 -0.54,-0.533 -0.296,0.002 -0.535,0.243 -0.533,0.54 0.002,0.296 0.244,0.534 0.54,0.533 C -0.237,0.538 0.002,0.296 0,0" />
          </g>
          <g
             transform="translate(144.2013,466.3832)"
             id="g4426">
            <path
               id="path4428"
               style="fill:#000000;fill-opacity:1;fill-rule:nonzero;stroke:none"
               d="m 0,0 c 0.213,-0.001 0.394,-0.127 0.48,-0.308 0.014,0.047 0.024,0.096 0.024,0.147 C 0.506,0.135 0.267,0.377 -0.029,0.379 -0.326,0.381 -0.567,0.142 -0.569,-0.154 -0.57,-0.238 -0.55,-0.316 -0.516,-0.386 -0.45,-0.162 -0.245,0.002 0,0" />
          </g>
          <g
             transform="translate(157.8338,466.162)"
             id="g4430">
            <path
               id="path4432"
               style="fill:#c4c8cb;fill-opacity:1;fill-rule:nonzero;stroke:none"
               d="m 0,0 c -0.002,-0.296 -0.243,-0.535 -0.539,-0.533 -0.297,0.002 -0.536,0.243 -0.534,0.54 0.002,0.296 0.244,0.534 0.54,0.533 C -0.237,0.538 0.002,0.296 0,0" />
          </g>
          <g
             transform="translate(157.3609,466.3018)"
             id="g4434">
            <path
               id="path4436"
               style="fill:#000000;fill-opacity:1;fill-rule:nonzero;stroke:none"
               d="m 0,0 c 0.213,-0.001 0.395,-0.127 0.48,-0.308 0.014,0.047 0.024,0.096 0.024,0.147 0.002,0.296 -0.237,0.538 -0.533,0.54 -0.296,0.002 -0.538,-0.237 -0.54,-0.533 0,-0.084 0.02,-0.162 0.053,-0.232 C -0.45,-0.162 -0.245,0.002 0,0" />
          </g>
          <g
             transform="translate(150.679,487.2775)"
             id="g4438">
            <path
               id="path4440"
               style="fill:#ffffff;fill-opacity:1;fill-rule:nonzero;stroke:#000000;stroke-width:0.103;stroke-linecap:butt;stroke-linejoin:miter;stroke-miterlimit:4;stroke-dasharray:none;stroke-opacity:1"
               d="m 0,0 0.012,0.358 c 0,0 -0.801,0.024 -1.05,-0.131 l -0.02,-0.322" />
          </g>
          <g
             transform="translate(151.0374,487.2932)"
             id="g4442">
            <path
               id="path4444"
               style="fill:#ffffff;fill-opacity:1;fill-rule:nonzero;stroke:#000000;stroke-width:0.103;stroke-linecap:butt;stroke-linejoin:miter;stroke-miterlimit:4;stroke-dasharray:none;stroke-opacity:1"
               d="m 0,0 -0.007,0.358 c 0,0 0.8,0.014 1.048,-0.144 l 0.016,-0.322" />
          </g>
          <g
             transform="translate(118.8064,456.6604)"
             id="g4446">
            <path
               id="path4448"
               style="fill:none;stroke:#000000;stroke-width:0.61799997;stroke-linecap:butt;stroke-linejoin:miter;stroke-miterlimit:4;stroke-dasharray:none;stroke-opacity:1"
               d="m 0,0 0.871,2.682 c 0,0 3.107,2.821 3.763,3.168 0,0 12.919,4.87 13.02,4.945 0.1,0.074 2.518,1.064 2.872,1.389 0.354,0.324 5.148,7.656 5.504,8.432 l 0.819,6.452 0.459,1.002 c 0,0 1.239,1.375 1.39,1.499 0.152,0.125 0.456,0.525 0.557,0.6 0.101,0.075 0.303,0.274 0.429,0.374 0.127,0.1 0.505,0.424 0.505,0.424 0,0 0.177,0.125 0.278,0.174 0.101,0.05 1.488,0.845 3.291,-0.045 l 1.075,-0.912 c 0,0 0.599,-0.631 0.648,-0.732 0.05,-0.101 1.072,-1.313 1.072,-1.313 l 0.523,-0.883 0.838,-6.738 c 0,0 3.702,-6.656 5.225,-8.248 L 45.968,10.695 58.925,5.54 c 0,0 1.201,-0.811 1.451,-1.014 0.25,-0.202 1.849,-1.569 1.849,-1.569 0,0 0.475,-0.505 0.648,-0.959 l 0.765,-2.291 -22.533,-3.478 -0.032,-1.13 -1.075,-4.47 -16.431,-0.024 -0.986,4.382 0.059,1.381 L 0,0 Z" />
          </g>
          <g
             transform="translate(148.8708,471.2547)"
             id="g4450">
            <path
               id="path4452"
               style="fill:none;stroke:#000000;stroke-width:0.206;stroke-linecap:butt;stroke-linejoin:miter;stroke-miterlimit:4;stroke-dasharray:none;stroke-opacity:1"
               d="M 0,0 0.743,0" />
          </g>
          <g
             transform="translate(152.0508,471.2483)"
             id="g4454">
            <path
               id="path4456"
               style="fill:none;stroke:#000000;stroke-width:0.206;stroke-linecap:butt;stroke-linejoin:miter;stroke-miterlimit:4;stroke-dasharray:none;stroke-opacity:1"
               d="M 0,0 0.884,-0.019" />
          </g>
          <g
             transform="translate(144.0855,448.305)"
             id="g4458" />
          <g
             transform="translate(146.1333,449.6857)"
             id="g4462" />
          <g
             transform="translate(148.2487,448.305)"
             id="g4466" />
          <g
             transform="translate(152.6076,449.7209)"
             id="g4472" />
          <g
             transform="translate(153.787,449.0889)"
             id="g4476" />
          <g
             transform="translate(156.8313,447.6224)"
             id="g4480">
            <g
               id="STS-132">
              <path
                 d="m 0,0 0.607,0.038 c 0.013,-0.099 0.039,-0.173 0.08,-0.225 0.066,-0.084 0.159,-0.125 0.281,-0.125 0.091,0 0.162,0.021 0.211,0.064 0.049,0.042 0.074,0.092 0.074,0.148 0,0.054 -0.024,0.101 -0.071,0.144 C 1.135,0.086 1.027,0.126 0.856,0.163 0.576,0.226 0.377,0.31 0.258,0.414 0.137,0.518 0.077,0.651 0.077,0.812 c 0,0.106 0.031,0.206 0.093,0.3 0.061,0.095 0.153,0.169 0.277,0.223 0.123,0.054 0.292,0.081 0.507,0.081 0.264,0 0.465,-0.049 0.603,-0.147 C 1.696,1.171 1.778,1.015 1.804,0.801 L 1.203,0.766 C 1.187,0.859 1.154,0.926 1.103,0.968 1.051,1.01 0.981,1.032 0.891,1.032 0.817,1.032 0.761,1.016 0.723,0.985 0.686,0.953 0.667,0.915 0.667,0.87 0.667,0.837 0.683,0.807 0.714,0.781 0.744,0.754 0.815,0.729 0.928,0.705 1.206,0.645 1.406,0.584 1.526,0.523 1.647,0.461 1.735,0.385 1.79,0.294 1.844,0.203 1.872,0.101 1.872,-0.011 1.872,-0.144 1.835,-0.266 1.762,-0.377 1.689,-0.489 1.587,-0.574 1.455,-0.631 1.324,-0.689 1.158,-0.718 0.958,-0.718 0.608,-0.718 0.365,-0.65 0.229,-0.515 0.094,-0.38 0.018,-0.208 0,0"
                 style="fill:#c4c8cb;fill-opacity:1;fill-rule:nonzero;stroke:none"
                 id="path4460"
                 transform="translate(-12.7458,0.68260053)" />
              <path
                 d="m 0,0 1.938,0 0,-0.51 -0.65,0 0,-1.553 -0.638,0 0,1.553 L 0,-0.51 0,0 Z"
                 style="fill:#c4c8cb;fill-opacity:1;fill-rule:nonzero;stroke:none"
                 id="path4464"
                 transform="translate(-10.698,2.0633005)" />
              <path
                 d="m 0,0 0.607,0.038 c 0.013,-0.099 0.039,-0.173 0.08,-0.225 0.066,-0.084 0.159,-0.125 0.281,-0.125 0.091,0 0.162,0.021 0.211,0.064 0.049,0.042 0.074,0.092 0.074,0.148 0,0.054 -0.024,0.101 -0.071,0.144 C 1.135,0.086 1.027,0.126 0.856,0.163 0.576,0.226 0.377,0.31 0.258,0.414 0.137,0.518 0.077,0.651 0.077,0.812 c 0,0.106 0.031,0.206 0.093,0.3 0.061,0.095 0.153,0.169 0.277,0.223 0.123,0.054 0.292,0.081 0.507,0.081 0.264,0 0.465,-0.049 0.603,-0.147 C 1.696,1.171 1.778,1.015 1.804,0.801 L 1.203,0.766 C 1.187,0.859 1.154,0.926 1.103,0.968 1.051,1.01 0.981,1.032 0.891,1.032 0.817,1.032 0.761,1.016 0.723,0.985 0.686,0.953 0.667,0.915 0.667,0.87 0.667,0.837 0.683,0.807 0.714,0.781 0.744,0.754 0.815,0.729 0.928,0.705 1.206,0.645 1.406,0.584 1.526,0.523 1.647,0.461 1.735,0.385 1.79,0.294 1.844,0.203 1.872,0.101 1.872,-0.011 1.872,-0.144 1.835,-0.266 1.762,-0.377 1.689,-0.489 1.587,-0.574 1.455,-0.631 1.324,-0.689 1.158,-0.718 0.958,-0.718 0.608,-0.718 0.364,-0.65 0.229,-0.515 0.094,-0.38 0.018,-0.208 0,0"
                 style="fill:#c4c8cb;fill-opacity:1;fill-rule:nonzero;stroke:none"
                 id="path4468"
                 transform="translate(-8.5826006,0.68260053)" />
              <path
                 d="m 150.294,448.596 0.833,0 0,-0.443 -0.833,0 0,0.443 z"
                 style="fill:#c4c8cb;fill-opacity:1;fill-rule:nonzero;stroke:none"
                 id="path4470"
                 transform="translate(-156.8313,-447.6224)" />
              <path
                 d="m 0,0 0,-2.098 -0.58,0 0,1.374 C -0.674,-0.795 -0.764,-0.853 -0.852,-0.897 -0.94,-0.94 -1.05,-0.983 -1.182,-1.023 l 0,0.47 c 0.195,0.063 0.347,0.138 0.454,0.226 0.108,0.089 0.193,0.197 0.254,0.327 L 0,0 Z"
                 style="fill:#c4c8cb;fill-opacity:1;fill-rule:nonzero;stroke:none"
                 id="path4474"
                 transform="translate(-4.2236998,2.0984994)" />
              <path
                 d="m 0,0 -0.542,0.097 c 0.045,0.173 0.132,0.305 0.26,0.397 0.128,0.092 0.309,0.138 0.544,0.138 0.269,0 0.464,-0.05 0.584,-0.151 0.12,-0.1 0.18,-0.226 0.18,-0.378 0,-0.089 -0.024,-0.17 -0.073,-0.242 -0.049,-0.072 -0.123,-0.136 -0.221,-0.19 0.08,-0.02 0.141,-0.043 0.183,-0.069 0.068,-0.043 0.121,-0.098 0.16,-0.167 0.037,-0.069 0.057,-0.151 0.057,-0.247 0,-0.12 -0.032,-0.235 -0.095,-0.346 -0.063,-0.11 -0.153,-0.195 -0.271,-0.254 -0.118,-0.06 -0.274,-0.09 -0.466,-0.09 -0.188,0 -0.336,0.022 -0.444,0.066 -0.109,0.044 -0.198,0.109 -0.268,0.194 -0.07,0.085 -0.123,0.192 -0.161,0.32 L 0,-0.846 c 0.022,-0.115 0.057,-0.195 0.105,-0.24 0.047,-0.044 0.107,-0.067 0.181,-0.067 0.077,0 0.141,0.028 0.192,0.085 0.051,0.056 0.076,0.131 0.076,0.225 0,0.096 -0.024,0.17 -0.073,0.222 -0.05,0.053 -0.116,0.079 -0.201,0.079 -0.045,0 -0.107,-0.011 -0.186,-0.034 l 0.03,0.41 c 0.032,-0.005 0.057,-0.007 0.074,-0.007 0.075,0 0.138,0.024 0.188,0.072 0.05,0.047 0.076,0.104 0.076,0.17 0,0.063 -0.019,0.113 -0.057,0.15 C 0.368,0.257 0.316,0.276 0.251,0.276 0.183,0.276 0.128,0.255 0.086,0.215 0.044,0.174 0.015,0.102 0,0"
                 style="fill:#c4c8cb;fill-opacity:1;fill-rule:nonzero;stroke:none"
                 id="path4478"
                 transform="translate(-3.0443001,1.4665002)" />
              <path
                 d="m 0,0 -1.72,0 c 0.02,0.17 0.08,0.33 0.18,0.479 0.1,0.15 0.287,0.326 0.562,0.53 0.168,0.125 0.275,0.22 0.322,0.284 0.047,0.065 0.07,0.127 0.07,0.185 0,0.063 -0.023,0.116 -0.069,0.161 C -0.702,1.684 -0.76,1.706 -0.83,1.706 -0.904,1.706 -0.964,1.683 -1.01,1.637 -1.056,1.591 -1.088,1.51 -1.103,1.393 L -1.678,1.44 c 0.023,0.161 0.064,0.287 0.124,0.378 0.06,0.09 0.145,0.16 0.254,0.208 0.11,0.048 0.261,0.072 0.454,0.072 0.202,0 0.359,-0.022 0.471,-0.069 0.112,-0.045 0.2,-0.116 0.264,-0.211 0.065,-0.096 0.097,-0.202 0.097,-0.321 0,-0.125 -0.037,-0.245 -0.111,-0.36 C -0.198,1.023 -0.332,0.897 -0.526,0.76 -0.642,0.68 -0.719,0.624 -0.758,0.593 -0.797,0.561 -0.843,0.519 -0.895,0.467 L 0,0.467 0,0 Z"
                 style="fill:#c4c8cb;fill-opacity:1;fill-rule:nonzero;stroke:none"
                 id="path4482" />
            </g>
          </g>
          <g
             transform="translate(164.4325,459.7645)"
             id="g4484" />
          <g
             transform="translate(164.7648,460.6476)"
             id="g4488" />
          <g
             transform="translate(166.5455,460.6476)"
             id="g4492" />
          <g
             transform="translate(169.2902,459.7645)"
             id="g4496" />
          <g
             transform="translate(169.8797,460.6476)"
             id="g4500" />
          <g
             transform="translate(171.6806,460.6476)"
             id="g4504" />
          <g
             transform="translate(173.4817,460.6476)"
             id="g4508" />
          <g
             transform="translate(174.6171,459.6925)"
             id="g4512">
            <g
               id="ATLANTIS">
              <path
                 d="M 0,0 -0.344,0.513 -0.364,0 0,0 Z m 0.203,-0.308 -0.582,0 -0.007,-0.236 -0.524,0 0.178,1.427 0.557,0 1.073,-1.427 -0.537,0 -0.158,0.236 z"
                 style="fill:#000000;fill-opacity:1;fill-rule:nonzero;stroke:none"
                 id="path4486"
                 transform="translate(-10.1846,0.07200001)" />
              <path
                 d="m 0,0 1.55,0 0.114,-0.352 -0.521,0 0.347,-1.075 -0.514,0 -0.344,1.075 -0.52,0 L 0,0 Z"
                 style="fill:#000000;fill-opacity:1;fill-rule:nonzero;stroke:none"
                 id="path4490"
                 transform="translate(-9.8522998,0.95509965)" />
              <path
                 d="m 0,0 0.51,0 0.353,-1.076 0.8,0 0.117,-0.351 -1.314,0 L 0,0 Z"
                 style="fill:#000000;fill-opacity:1;fill-rule:nonzero;stroke:none"
                 id="path4494"
                 transform="translate(-8.0716003,0.95509965)" />
              <path
                 d="M 0,0 -0.356,0.513 -0.364,0 0,0 Z m 0.211,-0.308 -0.582,0 -0.002,-0.236 -0.524,0 0.145,1.427 0.556,0 1.107,-1.427 -0.537,0 -0.163,0.236 z"
                 style="fill:#000000;fill-opacity:1;fill-rule:nonzero;stroke:none"
                 id="path4498"
                 transform="translate(-5.3268998,0.07200001)" />
              <path
                 d="M 0,0 0.476,0 1.372,-0.79 1.097,0 l 0.481,0 0.5,-1.427 -0.484,0 -0.893,0.783 0.27,-0.783 -0.482,0 L 0,0 Z"
                 style="fill:#000000;fill-opacity:1;fill-rule:nonzero;stroke:none"
                 id="path4502"
                 transform="translate(-4.7373995,0.95509965)" />
              <path
                 d="m 0,0 1.55,0 0.127,-0.352 -0.522,0 0.383,-1.075 -0.513,0 -0.38,1.075 -0.521,0 L 0,0 Z"
                 style="fill:#000000;fill-opacity:1;fill-rule:nonzero;stroke:none"
                 id="path4506"
                 transform="translate(-2.9365002,0.95509965)" />
              <path
                 d="m 0,0 0.511,0 0.517,-1.427 -0.515,0 L 0,0 Z"
                 style="fill:#000000;fill-opacity:1;fill-rule:nonzero;stroke:none"
                 id="path4510"
                 transform="translate(-1.1354001,0.95509965)" />
              <path
                 d="m 0,0 0.478,0.026 c 0.035,-0.068 0.076,-0.12 0.121,-0.156 0.074,-0.057 0.16,-0.086 0.259,-0.086 0.073,0 0.124,0.015 0.152,0.044 0.029,0.03 0.036,0.064 0.022,0.103 C 1.018,-0.032 0.987,0.001 0.939,0.03 0.89,0.06 0.793,0.087 0.646,0.113 0.406,0.156 0.224,0.214 0.103,0.286 -0.02,0.358 -0.102,0.45 -0.142,0.562 -0.169,0.635 -0.17,0.705 -0.144,0.77 c 0.025,0.065 0.08,0.116 0.166,0.153 0.085,0.038 0.213,0.056 0.385,0.056 0.21,0 0.384,-0.033 0.52,-0.101 C 1.063,0.81 1.168,0.702 1.244,0.554 L 0.772,0.53 C 0.735,0.594 0.691,0.641 0.639,0.67 0.588,0.699 0.526,0.714 0.454,0.714 0.394,0.714 0.354,0.703 0.332,0.681 0.309,0.659 0.304,0.633 0.315,0.602 0.324,0.579 0.344,0.559 0.375,0.54 0.406,0.522 0.47,0.504 0.566,0.488 0.805,0.446 0.98,0.404 1.093,0.362 1.205,0.319 1.295,0.266 1.363,0.203 1.43,0.141 1.478,0.07 1.507,-0.008 1.541,-0.099 1.543,-0.184 1.513,-0.261 1.482,-0.338 1.422,-0.397 1.331,-0.437 1.24,-0.477 1.113,-0.497 0.952,-0.497 0.67,-0.497 0.457,-0.45 0.314,-0.356 0.172,-0.263 0.067,-0.144 0,0"
                 style="fill:#000000;fill-opacity:1;fill-rule:nonzero;stroke:none"
                 id="path4514" />
            </g>
          </g>
        </g>
      </g>
    </g>
  </g>
</svg>
