<?xml version="1.0" encoding="UTF-8" standalone="no"?>
<svg
   xmlns:dc="http://purl.org/dc/elements/1.1/"
   xmlns:cc="http://creativecommons.org/ns#"
   xmlns:rdf="http://www.w3.org/1999/02/22-rdf-syntax-ns#"
   xmlns:svg="http://www.w3.org/2000/svg"
   xmlns="http://www.w3.org/2000/svg"
   version="1.1"
   id="svg14263"
   viewBox="0 0 5499.9999 4330"
   height="4330"
   width="5500">
  <title
     id="title17543">ISS Expedition 15 Patch</title>
  <defs
     id="defs14265">
    <clipPath
       id="clipPath14394"
       clipPathUnits="userSpaceOnUse">
      <path
         id="path14396"
         d="m 245.344,887.089 93.205,0 0,73.391 -93.205,0 0,-73.391 z" />
    </clipPath>
  </defs>
  <metadata
     id="metadata14268">
    <rdf:RDF>
      <cc:Work
         rdf:about="">
        <dc:format>image/svg+xml</dc:format>
        <dc:type
           rdf:resource="http://purl.org/dc/dcmitype/StillImage" />
        <dc:title>ISS Expedition 15 Patch</dc:title>
      </cc:Work>
    </rdf:RDF>
  </metadata>
  <g
     transform="translate(0,3277.6393)"
     id="layer1">
    <g
       id="g14390"
       transform="matrix(58.681252,0,0,-58.681252,-14381.798,53101.144)">
      <g
         clip-path="url(#clipPath14394)"
         id="g14392">
        <g
           transform="translate(338.54939,923.8689)"
           id="g14398">
          <path
             id="path14400"
             style="fill:#ffcc00;fill-opacity:1;fill-rule:nonzero;stroke:none"
             d="m 0,0 c 0,-20.219 -15.381,-36.61 -46.602,-36.61 -31.029,0 -46.603,16.391 -46.603,36.61 0,20.219 15.574,36.61 46.603,36.61 C -15.278,36.61 0,20.219 0,0" />
        </g>
        <g
           transform="translate(337.8597,923.8689)"
           id="g14402">
          <path
             id="path14404"
             style="fill:#000070;fill-opacity:1;fill-rule:nonzero;stroke:none"
             d="m 0,0 c 0,-19.92 -15.154,-36.068 -45.913,-36.068 -30.569,0 -45.912,16.148 -45.912,36.068 0,19.92 15.343,36.068 45.912,36.068 C -15.052,36.068 0,19.92 0,0" />
        </g>
        <g
           transform="translate(273.5919,924.5239)"
           id="g14406">
          <path
             id="path14408"
             style="fill:#007000;fill-opacity:1;fill-rule:evenodd;stroke:none"
             d="m 0,0 c 0.087,0.928 2.107,-0.415 2.475,-0.415 0.134,0 0.538,-0.107 0.709,-0.138 0.21,0 0.554,-0.096 0.554,-0.347 0,-0.177 -0.277,-0.504 -0.277,-0.225 0,-0.239 -0.804,-0.148 -0.969,0.018 C 2.401,-0.955 2.501,-0.822 2.63,-0.83 2.503,-0.643 2.398,-0.726 2.215,-0.692 1.99,-0.65 1.807,-0.696 1.592,-0.575 1.314,-0.419 1.189,-0.138 0.831,-0.138 0.729,-0.12 0.756,0.049 0.623,-0.017 0.465,-0.096 0.554,-0.138 0.346,-0.138 0.156,-0.138 0,-0.219 0,0 m 11.49,19.374 0.138,0 -0.138,0 M -0.83,19.235 c 0,1.14 1.782,1.213 2.568,1.374 1,0.205 1.887,0.298 2.9,0.27 1.777,-0.05 3.541,-0.122 5.321,-0.122 0.464,0 0.899,-0.186 1.331,-0.355 0.527,-0.206 1.193,-0.36 1.584,-0.751 -0.307,0 -0.505,-0.112 -0.795,-0.134 -0.333,-0.025 -0.021,-0.143 -0.312,-0.143 -0.275,0 -0.831,-0.172 -0.952,-0.415 -0.074,-0.149 -0.548,-0.692 -0.657,-0.692 l -1.16,0 C 8.988,17.917 9.481,18.035 9.188,17.644 8.934,17.304 8.846,17.304 8.461,17.388 8.268,17.43 7.793,17.59 7.614,17.575 7.247,17.543 7.28,17.241 7.06,17.021 7.06,16.716 6.967,16.606 6.645,16.606 6.107,16.606 5.683,16.053 5.122,16.053 5.089,16.026 4.983,16.105 4.983,16.035 4.983,15.892 5.03,15.776 4.845,15.776 4.734,15.708 4.43,15.899 4.43,15.637 3.636,15.637 3.328,14.579 2.56,14.414 1.616,14.211 1.6,15.109 1.412,15.783 1.238,16.406 1.088,17.633 0.599,18.104 0.225,18.466 -0.83,18.502 -0.83,19.235 m 2.215,-21.588 0,-0.121 0,0.121 m -5.953,16.745 0.139,0 -0.139,0 m 3.461,-0.415 0.138,0 -0.138,0 m -4.983,-1.107 0,-0.139 0,0.415 0,-0.276 m 0.83,-0.277 c 0.423,0.048 0.778,-0.415 1.229,-0.415 0.23,0 0.986,0.063 0.986,-0.277 0,0.232 0.522,0.83 0.121,0.83 -0.603,0 -0.689,0.506 -0.813,0.969 -0.268,0.268 -0.184,0.634 0.069,0.761 0.501,0.25 0.694,-0.346 1.038,-0.346 0,-0.232 0.317,-0.437 0.433,-0.207 0.088,0.177 0.756,-0.428 0.882,-0.554 0.118,-0.118 0.307,0.069 0.485,0.069 0.436,10e-4 0.709,-0.199 0.989,-0.487 0.566,-0.584 1.377,-0.77 1.917,-1.312 0.128,-0.064 0.216,0.088 0.295,-0.069 0.145,-0.29 0.495,-0.711 0.734,-0.968 0.258,-0.278 0.667,-0.433 0.904,-0.7 C 4.239,9.628 4.197,9.227 4.43,8.995 4.303,8.974 3.6,9.183 3.6,9.151 3.6,9.346 3.229,9.272 3.046,9.272 2.689,9.323 2.492,9.588 2.492,9.946 2.492,10.184 2.135,9.905 1.938,10.102 2.103,9.528 1.321,9.852 1.54,9.41 1.709,9.073 2.63,9.065 2.63,8.718 2.63,8.486 2.627,8.479 2.492,8.303 2.305,8.117 2.031,8.004 1.8,7.888 1.572,7.945 1.78,8.165 1.592,8.165 c -0.321,0 -0.389,-0.27 -0.623,0 C 0.931,7.883 1.387,7.058 0.762,7.058 0.582,7.058 0.212,6.366 0.554,6.366 0.128,6.418 0.903,5.674 0.277,5.674 0.482,5.667 0.554,5.549 0.675,5.38 0.947,4.999 0.692,4.966 0.692,4.722 0.692,4.812 0.557,4.574 0.554,4.567 0.449,4.368 0.288,4.13 0.175,3.9 0.057,3.661 -0.173,2.629 0.26,2.629 0.28,2.629 0.831,2.045 0.831,2.058 0.831,1.792 1.457,0.949 0.9,1.228 0.644,1.356 0.421,1.339 0.294,1.591 0.246,1.689 0,1.819 0,1.937 c -0.178,0.215 -0.189,0.57 -0.363,0.744 -0.174,0.174 -0.73,0.087 -0.952,0.087 -0.286,0 -0.476,0.015 -0.622,-0.277 -0.129,-0.052 -0.344,0 -0.485,0 -0.052,-0.023 -0.075,-0.017 -0.069,0.017 0,0.232 -0.232,0.121 -0.411,0.121 -0.153,0 -0.308,0.201 -0.42,0.139 -0.07,-0.04 -0.277,-0.487 -0.277,-0.554 -0.278,0 -0.277,-0.294 -0.277,-0.484 0,-0.371 0.277,-0.741 0.277,-1.107 0,-0.331 0.427,-0.965 0.744,-1.176 0.247,-0.165 0.323,-0.448 0.588,-0.537 0.109,-0.036 0.488,-0.068 0.606,-0.017 0.102,0 0.277,0.328 0.277,0.415 0.076,0.231 -0.012,0.412 0.242,0.571 0.169,0.106 0.589,0.047 0.589,0.259 0.517,-0.46 -0.069,-2.214 0.692,-2.214 0.204,-0.011 0.177,0.139 0.397,0.139 0.038,0 0.517,-0.148 0.571,-0.185 C 1.219,-2.196 1.457,-2.463 1.506,-2.56 1.565,-2.678 1.385,-2.756 1.385,-2.906 1.383,-3.109 1.661,-3.383 1.661,-3.598 l -0.138,0 c 0.192,-0.005 0.138,-0.109 0.138,-0.277 0,-0.165 0.287,-0.277 0.415,-0.277 0.066,-0.069 0.157,-0.414 0.277,-0.415 -0.003,0 0.277,0.375 0.277,0.294 0,0.134 0.185,0.205 0.277,0.26 0,0.162 0.439,0.277 0.571,0.277 l 0.26,0 c -0.023,-0.116 0.023,-0.162 0.138,-0.139 0.046,0.047 0.093,0.092 0.139,0.139 0.213,0 0.7,-0.131 0.761,-0.07 0.134,0.134 0.346,0.132 0.346,-0.069 0.138,0.23 1.075,0.034 1.246,-0.138 -0.029,0.413 0.643,-0.322 0.83,-0.416 0.25,-0.122 0.411,0.05 0.537,-0.327 0.045,-0.136 0.408,-0.159 0.571,-0.226 0.127,-0.052 0.386,-0.192 0.518,-0.276 0.241,-0.156 0.591,-0.555 0.866,-0.555 l 0,-0.137 c 0.122,0 0.3,0.021 0.419,-0.03 0.185,-0.08 0.369,-0.04 0.55,-0.109 0.312,-0.31 0.524,-0.22 0.961,-0.366 0.229,-0.077 0.463,-0.058 0.685,-0.168 0.392,-0.197 0.434,-0.395 0.671,-0.68 0.261,-0.314 0.04,-0.728 0.296,-0.983 0.099,-0.098 -0.023,-0.43 -0.085,-0.524 -0.034,-0.05 -0.174,-0.272 -0.174,-0.202 0,-0.329 -0.501,-0.719 -0.554,-0.951 -0.062,-0.273 0,-0.62 0,-0.9 0,-0.321 -0.331,-1.453 -0.692,-1.453 -0.458,0 -0.479,-0.415 -0.969,-0.415 0,-0.463 -0.055,-0.773 -0.156,-1.177 -0.049,-0.193 -0.256,-0.479 -0.398,-0.622 -0.099,-0.195 -0.088,-0.325 -0.173,-0.536 -0.089,-0.223 -0.676,-0.085 -0.502,-0.433 0.129,-0.258 0.063,-0.642 -0.221,-0.718 C 9.034,-16.3 8.936,-16.668 8.721,-16.883 8.6,-17.149 9.098,-16.852 8.79,-17.159 8.779,-17.17 8.583,-17.414 8.583,-17.437 l 0.138,0 c 0,-0.083 -0.332,-0.691 0,-0.691 0,-0.149 -0.028,-0.112 0.069,-0.208 0.153,-0.151 -0.055,-0.13 -0.069,-0.207 -0.024,-0.127 -0.137,-0.354 -0.138,-0.416 0,-0.266 0.163,-0.465 0.277,-0.691 0.072,-0.068 0.544,-0.164 0.553,-0.277 0.011,-0.129 -0.333,-0.268 -0.415,-0.277 -0.264,-0.028 -0.502,0.086 -0.692,0.277 -0.126,0.11 0.104,0.042 -0.182,0.244 -0.154,0.11 -0.233,0.257 -0.233,0.448 -0.026,0.042 -0.24,0.166 -0.26,0.224 -0.077,0.233 -0.055,0.232 -0.138,0.398 -0.119,0.239 -0.156,0.64 -0.156,0.917 0,0.174 0.072,0.398 -0.121,0.398 -0.117,0 -0.17,0.771 -0.197,0.866 -0.159,0.556 -0.236,0.954 -0.236,1.556 0,0.134 0.032,0.207 -0.138,0.207 0,0.252 -0.05,0.5 -0.09,0.748 -0.045,0.28 -0.075,0.501 -0.151,0.775 -0.077,0.278 -0.313,0.68 -0.313,0.968 -0.061,0.384 -0.204,1.246 -0.83,1.246 -0.111,0.078 -0.32,0.276 -0.416,0.276 -0.137,0.118 -0.295,0.226 -0.415,0.347 -0.137,0.136 -0.111,0.179 -0.259,0.328 -0.218,0.22 -0.424,0.512 -0.624,0.778 -0.141,0.19 -0.346,0.762 -0.657,0.762 -0.343,0 -0.906,1.66 -0.675,1.66 0.013,0.137 0,0.279 0,0.415 0,0.239 0.138,0.064 0.138,0.277 0.311,0 0.277,0.379 0.277,0.623 0,0.267 -0.121,0.346 -0.346,0.346 -0.059,0 -0.156,-0.02 -0.208,0 -0.226,0.088 -0.317,0.553 -0.553,0.553 -0.458,0.229 -0.802,0.796 -1.107,0.969 -0.264,0.264 -0.839,0.487 -1.177,0.571 -0.483,0.12 -0.647,0.674 -1.176,0.674 -0.358,0.046 -0.747,0 -1.108,0 -0.291,0.062 -0.79,0.395 -1.108,0.554 -0.197,0.099 -0.588,0.208 -0.744,0.363 -0.007,0.169 -0.082,0.233 -0.224,0.19 -0.142,-0.038 -0.229,0.024 -0.262,0.186 -0.171,0.211 -0.292,0.345 -0.292,0.627 0,0.242 -0.292,0.438 -0.415,0.623 -0.135,0.202 -0.693,0.514 -0.693,0.779 -0.293,0.293 -0.975,1.245 -1.384,1.245 -0.026,0.028 0.005,0.162 -0.017,0.208 -0.062,0.122 -0.279,0.364 -0.398,0.484 -0.231,0.231 -0.462,0.461 -0.693,0.692 0.126,-0.382 0.693,-0.849 0.693,-1.107 0.349,0 0.264,-0.692 0.622,-0.692 -0.006,0 0.28,-0.309 0.338,-0.372 0.162,-0.176 0.85,-0.858 0.701,-1.15 -0.2,-0.392 -1.067,1.067 -1.107,1.107 -0.426,0.425 -0.931,0.829 -1.211,1.389 -0.428,0.856 -1.097,1.321 -1.714,2.036 -0.92,1.065 -1.367,2.481 -1.367,3.909 0.457,0.008 -0.693,1.054 -0.825,1.287 -0.137,0.239 -0.132,0.456 -0.282,0.65 0,0.203 -0.415,0.184 -0.415,0.416 -0.164,0 -0.841,0.84 -0.97,0.968 -0.272,0.372 -0.358,0.778 -0.819,0.99 -0.209,0.097 -0.825,0.256 -1.05,0.256 -0.424,0 -0.752,-0.277 -1.176,-0.277 -0.343,0 -0.415,0.077 -0.415,-0.277 -0.016,-0.183 -0.018,-0.303 0.138,-0.415 -0.242,0.035 -0.831,-0.329 -0.831,0.138 -0.374,-0.374 -0.591,-0.645 -1.107,-0.789 -0.248,-0.069 -0.982,0.022 -0.969,-0.318 -0.028,0 -0.277,0.134 -0.277,0.156 0,0.324 0.063,-0.022 0.139,0.121 0.169,0.169 0.556,0.554 0.83,0.554 0.369,0.369 0.239,0.968 -0.346,0.968 -0.28,0 -0.748,0.277 -0.208,0.277 0.04,0.097 0.139,0.098 0.139,0.277 0,0.041 -0.022,0.225 0,0.277 0.172,0.172 0.275,0.257 0.415,0.467 0.169,0.253 0.294,-0.052 0.433,-0.052 0.403,0 -0.433,0.476 -0.433,0.692 0.035,0.403 0.663,0.277 0.969,0.277 -0.269,0.291 -0.201,0.692 0.208,0.692 0.36,0 0.046,0.162 0.207,0.276 0.18,0.127 1.014,0.415 1.247,0.415 0.363,0 0.628,-0.138 0.985,-0.138 0.533,0 1.268,-0.127 1.783,-0.277 0.271,-0.079 0.481,-0.138 0.813,-0.138 0.256,0 0.095,0.557 0.433,0.138 0.252,0.253 0.64,0.277 0.969,0.277 -0.005,0 -0.017,-0.163 0.138,-0.138 0.095,0.014 0.108,0.145 0.277,0.138 -0.2,0.218 -0.192,0.969 0.208,0.969 0.175,0 0.365,-0.085 0.346,0.138 0.204,-0.263 0.765,-0.428 1.107,-0.415 -0.057,0.178 -0.141,0.277 -0.346,0.277 -0.278,0 -0.182,0.277 -0.485,0.277 0.015,-0.243 -0.704,-0.079 -0.414,0.415 0.053,0.091 0.138,-0.094 0.138,0.069 0,0.076 0.172,0.278 0.259,0.19 0.099,-0.098 0.411,-0.259 0.554,-0.259 -0.374,0 0.619,0.824 0.83,0.19 -0.005,0.015 0,-0.306 0.018,-0.329 0.131,0 0.138,0.04 0.138,-0.069 0,0 0.348,-0.505 0.415,-0.623 -0.177,0.005 -0.321,0.154 -0.487,0.134 -0.169,-0.022 -0.176,-0.109 -0.343,-0.134 0.083,-0.082 0.177,-0.217 0.277,-0.277 0.169,-0.1 0.363,0.053 0.553,-0.138 10e-4,0 0.102,-0.114 0.139,-0.139 0.219,-0.218 0.468,-0.361 0.692,-0.138 -0.279,0.113 -0.823,0.285 -0.415,0.692 0.055,0.037 0.338,0.016 0.415,0 0.318,0 0.185,-0.138 0.416,-0.138 -0.131,0.175 -0.116,0.277 -0.347,0.277 -0.347,0 -0.413,0.223 -0.623,-0.139 -0.044,0.312 -0.449,0.364 -0.138,0.692 0.228,0.241 0.554,-0.005 0.554,-0.259 0,0.483 -0.076,0.536 -0.554,0.536 0.105,0.135 0.415,0.103 0.415,0.208 0,0.186 0.221,-0.046 0.277,-0.07 0.141,0 0.463,-0.276 0.433,-0.276 0.196,0 0.398,0.086 0.398,-0.139 0.05,0.146 0.061,0.144 0.139,0.277 -0.275,-0.042 -0.97,0.172 -0.97,0.415 -0.118,0.171 -0.138,-0.197 -0.138,0.121 0,0.064 0.012,0.235 -0.018,0.294 -0.132,0.265 -0.023,0.389 0.018,0.139 0.005,-0.015 0,0.199 0,0.121 0,-0.261 1.34,0.156 1.592,0.156 0.825,0 1.319,0.017 1.038,-0.969 -0.085,-0.295 -0.249,-0.706 0,-0.969 0.207,-0.207 0.735,-0.251 1.018,-0.346 0.481,-0.161 0.956,-0.335 1.431,-0.512 0.315,-0.118 0.971,-0.243 1.15,-0.526 -0.433,0 -0.717,0.195 -1.146,0.266 -0.615,0.103 0.469,-0.712 0.666,-0.8 0.113,-0.051 0.336,0.236 0.48,0.258 0.304,0.046 0.679,-0.316 0.927,-0.457 0.153,-0.087 0.331,-0.512 0.059,-0.512 -0.312,0 -0.441,0.237 -0.709,0.277 0.387,-0.388 1.246,-0.68 1.246,-1.384 -0.436,0.257 -1.152,0.433 -1.661,0.415 l 0.138,0 c -0.318,0.317 -0.636,0.277 -1.107,0.277 -0.176,0.035 0.328,0.138 -0.191,0.138 -0.194,0 0.014,-0.138 -0.155,-0.138 -0.098,0 -0.485,0.493 -0.485,0.692 0,0.31 0.516,0.088 0.692,0 0.03,0 1.039,-0.204 0.576,0.082 -0.531,0.326 -1.449,0.886 -2.099,0.886 0,-0.329 0.416,-0.246 0.416,-0.553 0.098,-0.289 0.004,-0.415 -0.26,-0.415 -0.133,0 0.419,-0.374 0.467,-0.398 0.203,-0.101 0.347,-0.554 0.07,-0.571 0.151,-0.154 0.235,-0.277 -0.07,-0.277 -0.25,0 -0.322,0.413 -0.069,0.415 -0.343,0.091 -0.282,-0.261 -0.554,-0.277 0.111,0.007 -0.276,0.238 -0.276,0.277 -0.169,0.169 -0.287,0.312 -0.277,0.554 0.051,-0.201 -0.067,-0.321 -0.138,-0.415 -0.347,0 -0.314,-0.556 -0.433,-0.675 -0.276,-0.276 0.514,-0.093 0.807,-0.37 0.228,-0.217 0.502,-0.714 0.456,-1.031" />
        </g>
        <g
           transform="translate(314.1039,942.9785)"
           id="g14410">
          <path
             id="path14412"
             style="fill:#007000;fill-opacity:1;fill-rule:evenodd;stroke:none"
             d="m 0,0 c 0.242,0 0.438,-0.139 0.682,-0.139 l 0.703,0 c 0.535,0 1.118,-0.01 1.523,-0.415 -0.064,0 -0.276,0.031 -0.276,-0.036 0,-0.213 0.053,-0.242 -0.175,-0.242 l -0.205,0 c -0.108,0 -0.215,0.129 -0.348,0.137 C 1.692,-0.682 1.718,-0.554 1.523,-0.554 1.401,-0.589 1.402,-0.69 1.247,-0.693 1.044,-0.696 0.903,-0.559 0.681,-0.555 0.501,-0.552 0.554,-0.43 0.554,-0.277 0.222,-0.277 0.055,0 -0.277,0 L 0.138,0 0,0 m -12.742,0.416 c 0,-0.157 0.098,-0.172 0.243,-0.117 0.262,0.098 0.443,0.117 0.727,0.117 0.429,0 0.82,-0.139 1.246,-0.139 -0.267,-0.089 -0.97,-0.316 -0.97,-0.657 0,-0.15 0.043,-0.174 -0.101,-0.174 l -0.729,0 c 0,-0.164 -0.2,-0.165 -0.299,-0.093 -0.14,0.1 -0.117,0.317 -0.117,0.467 0,0.083 -0.088,0.119 -0.138,0.18 -0.096,0.115 -0.096,0.331 -0.277,0.277 0.072,0.072 0.358,0.285 0.277,0 0.046,0.046 0.092,0.093 0.138,0.139 l -0.138,0 0.138,0 m 26.176,-4.574 c -0.12,-0.034 -0.174,0.018 -0.138,0.139 0.046,-0.046 0.092,-0.093 0.138,-0.139 m -28.807,1.109 0.138,0 -0.138,0 m 8.587,2.772 c 0.272,0 0.415,0.072 0.415,-0.236 l 0,-0.144 c 0,-0.072 -0.12,-0.051 -0.136,-0.153 -0.001,-0.007 -0.519,-0.149 -0.597,-0.225 -0.133,-0.129 -0.097,-0.322 -0.097,-0.49 0.146,0.013 0.544,0.265 0.553,0.416 0.117,-0.116 0.117,-0.138 0.277,-0.138 0.001,0 0,0.202 0,0.138 0.068,0 0.15,-0.005 0.218,0.002 0.112,0.013 0.018,0.137 0.203,0.137 0.263,0 0.316,0.077 0.538,0.208 0.21,0.124 0.376,0.296 0.548,0.468 0.115,0.115 0.433,0.268 0.433,0.391 0,0.371 0.69,0.043 0.83,-0.097 -0.012,0.043 0.007,0.095 0,0.138 0.266,0 0.314,-0.277 0.554,-0.277 0.153,-0.045 0.388,0 0.554,0 0.187,-0.187 0.532,-0.277 0.762,-0.404 0.322,-0.177 0.675,-0.27 1.041,-0.286 0.187,-0.008 0.354,0.044 0.495,-0.083 0.17,-0.152 0.279,0.006 0.351,0.15 0.086,0.172 0.552,0.028 0.657,-0.018 0.145,-0.062 0.24,-0.161 0.365,-0.249 0.143,-0.101 0.328,-0.14 0.484,-0.218 0.004,0.078 0.053,0.138 0.138,0.138 0.014,-0.3 0.687,-0.001 0.831,0.046 0.399,0.132 0.821,0.285 1.247,0.214 0.189,-0.031 0.316,-0.16 0.485,-0.238 0.209,-0.096 0.435,-0.135 0.664,-0.15 0.261,-0.017 0.528,0.014 0.784,-0.046 0.249,-0.059 0.441,-0.103 0.698,-0.103 0.235,0 0.451,-0.12 0.692,-0.133 0.263,-0.015 0.528,-0.006 0.791,-0.006 0.143,0 0.278,0.139 0.456,0.139 0.091,0.004 0.186,0 0.277,0 l 0.734,0 c 0.126,0 0.208,-0.183 0.318,-0.117 0.184,0.111 0.244,0.117 0.472,0.117 -0.165,0.047 -0.139,-0.018 -0.139,-0.139 -0.019,0.123 0.033,0.139 0.139,0.139 0,-0.125 0.054,-0.337 -0.139,-0.277 0.475,-0.237 0.992,-0.391 1.523,-0.413 0.187,-0.008 0.323,-0.121 0.518,-0.136 0.056,-0.004 0.175,0.029 0.175,-0.041 0,0.009 -0.006,-0.103 0.005,-0.103 0.787,0 1.572,-0.164 2.073,-0.831 -0.237,0 -0.57,-0.06 -0.785,0.046 -0.331,0.162 -0.65,0.231 -1.016,0.231 0.168,-0.085 0.336,-0.173 0.513,-0.236 0.121,-0.044 0.276,-0.011 0.374,-0.1 0.212,-0.191 0.484,-0.192 0.636,-0.496 -0.154,10e-4 -0.307,0.005 -0.456,-0.041 -0.123,-0.038 -0.224,-0.045 -0.238,-0.177 -0.012,-0.109 -0.136,0 -0.136,-0.095 0,-0.07 -0.044,-0.241 -0.144,-0.241 -0.177,0 -0.088,-0.077 -0.22,-0.121 -0.135,-0.045 -0.283,-0.008 -0.421,-0.054 -0.119,-0.039 -0.236,-0.093 -0.185,-0.241 0.04,-0.117 0.455,-0.1 0.53,-0.197 0.064,-0.082 0.026,-0.186 0.11,-0.271 0.094,-0.093 0.266,-0.148 0.381,-0.225 0.172,-0.114 0.123,-0.277 -0.051,-0.277 0.21,0 0.248,-0.087 0.276,-0.277 0,-0.291 0.076,-0.491 0.278,-0.693 -0.258,-0.257 -0.278,-0.479 -0.278,-0.832 -0.046,0.046 -0.092,0.093 -0.138,0.139 l 0,-0.139 c 0,0.207 0.016,0.262 -0.136,0.414 -0.074,0.074 -0.079,0.198 -0.187,0.279 -0.139,0.104 -0.297,0.171 -0.422,0.295 -0.039,0.039 -0.064,0.087 -0.075,0.142 -0.04,0.185 -0.056,0.089 -0.202,0.187 -0.111,0.074 -0.235,0.097 -0.339,0.186 -0.188,0.161 -0.44,0.423 -0.44,0.679 0,0.21 0.029,0.45 -0.025,0.655 -0.046,0.17 -0.528,0.572 -0.528,0.212 -0.09,-0.244 0.068,-0.415 -0.319,-0.415 -0.39,0 -0.768,-0.022 -1.066,0.277 0,-0.304 -0.217,-0.277 -0.452,-0.277 l -0.241,0 c -0.152,0 -0.264,0.138 -0.415,0.138 0.002,-0.235 -0.139,-0.343 -0.139,-0.554 -0.049,-0.379 0.26,-0.546 0.554,-0.693 0.378,0 0.743,-0.14 0.821,-0.565 0.078,-0.435 0.371,-0.71 0.602,-1.073 0.114,-0.179 0.204,-0.38 0.231,-0.593 0.027,-0.209 0.147,-0.223 0.147,-0.397 0,-0.107 0.038,-0.322 -0.059,-0.397 -0.098,-0.077 -0.051,-0.133 -0.149,-0.232 -0.107,-0.107 -0.065,-0.239 -0.137,-0.372 -0.081,-0.151 -0.238,-0.229 -0.404,-0.247 -0.15,-0.016 -0.221,0.063 -0.221,-0.102 0,-0.105 -0.115,-0.202 -0.138,-0.318 -0.057,-0.28 -0.015,-0.699 0.172,-0.918 0.213,-0.248 0.52,-0.083 0.52,-0.463 0,-0.125 0.277,-0.241 0.277,-0.421 -0.016,-0.143 -0.21,-0.364 -0.346,-0.398 -0.111,-0.028 -0.233,-0.017 -0.346,-0.017 -0.146,-0.052 0.156,-0.139 -0.139,-0.139 -0.194,-10e-4 -0.131,0.058 -0.151,0.241 -0.022,0.19 -0.075,0.377 -0.178,0.539 -0.143,0.224 -0.502,0.348 -0.502,0.606 -0.221,0 -0.575,0.655 -0.807,0.357 -0.21,-0.269 -0.476,0.058 -0.717,0.058 -0.045,-0.75 0.787,-0.382 1.153,-0.649 0.21,-0.152 -0.017,-0.205 -0.096,-0.338 -0.135,-0.223 -0.05,-0.359 0.076,-0.564 0.039,-0.064 0.391,-0.379 0.391,-0.394 0,-0.155 -0.042,-0.243 0.095,-0.324 0.336,-0.199 0.563,-0.527 0.664,-0.9 0.062,-0.229 0.075,-0.464 0.071,-0.7 -0.003,-0.201 -0.137,-0.349 -0.137,-0.524 0,-0.087 0.006,-0.176 -0.003,-0.262 -0.008,-0.083 -0.082,-0.141 -0.136,-0.195 0,-0.104 -0.02,-0.208 -0.059,-0.304 -0.083,-0.207 -0.278,-0.304 -0.378,-0.471 -0.112,-0.186 -0.219,-0.233 -0.428,-0.312 -0.226,-0.084 -0.415,0.027 -0.624,-0.104 -0.106,-0.066 -0.221,-0.104 -0.312,-0.195 0.055,0 -0.134,0.003 -0.138,0 -0.114,-0.074 -0.132,-0.213 -0.276,-0.069 -0.197,0.196 -0.693,0.083 -0.693,-0.208 -0.087,-0.129 -0.139,-0.099 -0.139,-0.272 0,-0.198 0.071,-0.234 0.163,-0.364 0.097,-0.139 0.291,-0.221 0.402,-0.363 0.131,-0.166 0.218,-0.359 0.25,-0.569 0.047,-0.309 0.041,-0.705 0.012,-1.013 -0.038,-0.42 -0.319,-0.96 -0.723,-1.137 -0.068,-0.029 -0.135,-0.023 -0.206,-0.023 -0.079,0 -0.032,-0.084 -0.106,-0.121 -0.086,-0.044 -0.133,-0.082 -0.207,-0.156 l 0,0.312 c 0,0.148 0.124,0.133 0.138,0.242 0.016,0.121 -0.4,0.331 -0.417,0.498 -0.011,0.106 -0.124,0.181 -0.196,0.253 -0.135,0.136 -0.315,0.633 -0.454,0.183 -0.067,-0.219 -0.041,-0.467 -0.041,-0.693 l 0,-0.898 c 0,-0.088 0.03,-0.175 0.139,-0.175 0.151,-0.151 0.28,-0.325 0.349,-0.529 0.118,-0.35 0.092,-0.803 -0.072,-1.134 -0.162,-0.078 -0.726,0.311 -0.831,0.416 -0.002,-0.145 -0.044,-0.277 0.138,-0.277 0.128,0 0.204,-0.216 0.277,-0.278 0.072,-0.072 0.195,-0.111 0.253,-0.194 0.058,-0.083 0.024,-0.264 0.024,-0.36 0.32,0 0,-0.396 0,-0.554 0.141,-0.041 0.139,0.019 0.139,0.133 0,0.021 0.211,-10e-4 0.23,-0.007 0.158,-0.048 0.405,-0.526 0.324,-0.681 l -0.042,0 c -0.127,0 -0.149,-0.052 -0.235,-0.138 -0.154,-0.154 -0.118,-0.289 -0.226,-0.468 -0.134,-0.224 -0.3,-0.197 -0.467,-0.364 -0.093,0.094 -0.109,0.128 -0.162,0.241 -0.045,0.095 -0.145,0.175 -0.253,0.175 -0.012,0.012 -0.051,0.163 -0.058,0.176 -0.074,0.121 -0.041,0.195 -0.098,0.309 -0.063,0.126 -0.122,-0.012 -0.122,0.167 l 0,0.139 c 0,0.193 -0.053,0.734 -0.24,0.734 -0.067,0 -0.036,0.223 -0.036,0.282 0,0.248 0.063,0.046 0.121,0.22 0.019,0.057 0.044,0.169 -0.007,0.212 -0.128,0.11 -0.26,0.119 -0.38,0.247 -0.11,0.118 -0.199,0.247 -0.242,0.404 -0.06,0.22 0,0.39 -0.168,0.558 -0.097,0.097 -0.038,0.294 0.081,0.294 0.12,0 0.212,-0.128 0.352,-0.137 0.136,-0.008 0.214,0.027 0.312,-0.071 0.114,-0.114 0.025,-0.249 0.11,-0.377 0.071,-0.106 0.228,-0.11 0.236,-0.246 0.06,0.119 0.312,0.831 0,0.831 0.139,0.138 0.139,0.373 0.139,0.555 -0.009,0.041 0.017,0.1 0,0.138 -0.085,0 -0.134,0.06 -0.139,0.139 -0.129,0 -0.179,-0.299 -0.294,-0.069 -0.025,0.047 -0.066,0.07 -0.121,0.069 -0.02,0.08 0.069,0.197 0.116,0.253 0.092,0.106 0.201,0.202 0.299,0.3 -0.213,-0.063 -0.139,0.274 -0.139,0.411 0,0.084 0.009,0.168 -0.021,0.248 -0.098,0.262 -0.116,0.443 -0.116,0.727 l 0,0.103 c 0,0.078 0.084,0.031 0.12,0.106 0.055,0.109 0.042,0.207 -0.08,0.207 -0.302,0 -0.342,-0.023 -0.571,-0.253 -0.272,-0.273 -0.3,0.569 -0.3,0.669 -10e-4,0.106 0.016,0.228 -0.018,0.329 0.007,-0.02 -0.122,0.173 -0.122,0.092 0,0.118 0.023,0.116 -0.082,0.179 -0.402,0.242 -0.492,0.572 -0.627,0.976 -0.034,0.102 -0.18,0.116 -0.238,0.029 -0.078,-0.117 -0.283,-0.182 -0.448,-0.209 -0.221,-0.036 -0.07,-0.054 -0.18,-0.247 -0.107,-0.187 -0.252,-0.344 -0.404,-0.496 -0.123,-0.125 -0.375,-0.15 -0.375,-0.376 -0.162,0 -0.353,-0.223 -0.415,-0.346 -0.034,-0.077 -0.08,-0.147 -0.139,-0.208 0,0.054 0.003,-0.134 0,-0.139 -0.08,-0.124 -0.18,-0.136 -0.288,-0.252 -0.311,-0.335 -0.265,-0.852 -0.265,-1.272 0.006,-0.152 0.021,-0.284 0.079,-0.427 C 0.027,-20.867 0,-21.082 0,-21.305 c 0,-0.108 0.138,-0.173 0.138,-0.314 0.02,-0.215 -0.097,-0.446 -0.239,-0.599 -0.071,-0.076 -0.591,-0.453 -0.591,-0.094 -0.046,0.137 0.133,0.554 0.277,0.554 -0.088,0.088 -0.191,0.14 -0.121,0.278 -0.004,-0.006 0.21,0.277 0.115,0.277 -0.235,0 -0.309,-0.277 -0.548,-0.277 -0.26,0 -0.342,0.26 -0.411,0.457 -0.088,0.253 -0.143,0.521 -0.143,0.79 0,0.192 0.138,0.362 0.138,0.554 -0.047,0.146 -0.231,0.231 -0.346,0.347 -0.204,0.203 -0.274,0.397 -0.336,0.682 -0.098,0.449 -0.215,0.874 -0.491,1.251 -0.281,0.384 -0.699,0.587 -0.962,0.987 -0.123,0.186 -0.196,0.426 -0.336,0.59 -0.108,0.126 -0.463,-0.115 -0.587,-0.115 l -1.235,0 c -0.224,0.062 -0.425,0.275 -0.658,0.349 -0.238,0.076 -0.481,0.067 -0.727,0.067 -0.268,0 -0.024,0.138 -0.242,0.138 -0.212,0 -0.395,0.038 -0.52,0.226 -0.048,0.072 -0.208,0.382 -0.208,0.467 -0.138,0 -0.337,0.2 -0.446,0.272 -0.088,0.059 -0.267,0.226 -0.344,0.072 -0.03,-0.061 -0.097,-0.329 0.017,-0.342 0.186,-0.02 0.116,-0.331 0.243,-0.44 0.15,-0.127 0.385,-0.138 0.506,-0.311 0.103,-0.146 -0.084,-0.221 0.158,-0.221 0.225,0 0.434,-0.277 0.698,-0.277 0.269,0.02 0.399,0.432 0.657,0.173 0.104,-0.104 0.208,-0.208 0.311,-0.312 0.123,0 0.23,-0.098 0.312,-0.175 0.149,-0.139 0.15,-0.366 0.046,-0.552 -0.027,-0.035 -0.053,-0.069 -0.08,-0.104 0.208,0.032 0.138,-0.282 0.138,-0.416 -0.131,-0.131 -0.252,-0.267 -0.346,-0.427 -0.052,-0.086 -0.077,-0.266 -0.208,-0.266 0.046,0.008 0.093,-0.002 0.138,0 -0.404,-0.403 -0.98,-0.794 -1.505,-1.015 -0.277,-0.117 -0.512,-0.307 -0.752,-0.482 -0.156,-0.114 -0.342,-0.34 -0.512,-0.425 -0.154,-0.078 -0.351,-0.112 -0.517,-0.178 -0.176,-0.07 -0.286,-0.191 -0.453,0.021 -0.045,0.134 -0.393,1.525 -0.282,1.525 -0.121,0 -0.133,-0.044 -0.133,0.097 0,0.087 -0.081,0.031 -0.121,0.111 -0.069,0.139 -0.144,0.303 -0.202,0.45 -0.089,0.221 -0.136,0.473 -0.37,0.589 -0.041,0.081 0,0.323 0,0.411 0,0.173 -0.138,0.224 -0.138,0.385 0,0.225 -0.272,0.615 -0.392,0.811 -0.276,0.451 -0.747,0.626 -1.27,0.61 0.12,-0.086 0.138,-0.183 0.138,-0.318 0,-0.137 0.139,-0.16 0.139,-0.272 0,-0.086 -0.013,-0.178 0.002,-0.263 0.012,-0.07 0.062,-0.117 0.137,-0.117 0,-0.079 -0.009,-0.166 0.024,-0.242 0.083,-0.192 0.278,-0.298 0.391,-0.468 0.115,-0.172 0.183,-0.379 0.256,-0.572 0.104,-0.277 0.163,-0.561 0.297,-0.831 0.03,-0.059 0.068,-0.104 0.14,-0.104 0,-0.075 0.002,-0.15 0.017,-0.225 0.03,-0.154 0.097,-0.368 0.179,-0.505 0.101,-0.168 0.08,-0.269 0.08,-0.476 0,-0.083 -0.003,-0.168 0.018,-0.249 0.048,-0.193 0.126,-0.158 0.259,-0.225 0.191,-0.096 0.135,-0.101 0.359,-0.124 0.084,-0.008 0.141,-0.082 0.195,-0.136 l 0.277,0 c 0.343,-0.171 0.991,-0.136 0.549,-0.688 -0.178,-0.222 -0.402,-0.298 -0.549,-0.559 -0.143,-0.357 -0.283,-0.637 -0.635,-0.804 -0.158,-0.075 -0.271,-0.255 -0.417,-0.354 -0.195,-0.134 -0.346,-0.329 -0.499,-0.507 -0.351,-0.409 -0.817,-0.745 -1.113,-1.198 -0.068,-0.105 -0.105,-0.318 -0.186,-0.327 -0.092,-0.01 -0.058,-0.211 -0.058,-0.275 0.375,0 -0.069,-1.178 -0.139,-1.386 -0.149,-0.149 -0.138,-0.358 -0.138,-0.554 -0.081,-0.201 -0.165,-0.402 -0.276,-0.59 -0.081,-0.139 -0.18,-0.266 -0.289,-0.385 -0.116,-0.127 -0.354,-0.262 -0.387,-0.428 -0.04,-0.194 0.004,-0.395 -0.035,-0.589 -0.031,-0.158 -0.12,-0.2 -0.12,-0.364 -0.095,-0.157 -0.236,-0.229 -0.381,-0.287 -0.135,-0.055 -0.211,-0.342 -0.299,-0.46 -0.171,-0.228 -0.368,-0.436 -0.567,-0.639 -0.119,-0.121 -0.238,-0.331 -0.364,-0.416 -0.007,-0.004 -0.213,-0.138 -0.196,-0.138 -0.187,0 -0.11,-0.052 -0.202,-0.19 -0.057,-0.085 -0.136,-0.154 -0.208,-0.226 -0.076,-0.034 -0.195,0.021 -0.277,0 -0.108,-0.054 -0.305,-0.258 -0.416,-0.277 -0.145,0 -0.326,0.122 -0.452,0.197 -0.252,0.152 -0.464,0.027 -0.609,0.372 -0.092,0.219 -0.293,0.371 -0.462,0.54 -0.116,0.116 -0.167,0.183 -0.236,0.338 -0.023,0.052 -0.038,0.1 -0.04,0.156 -0.004,0.1 -0.081,0.116 -0.122,0.199 -0.055,0.109 0.006,0.114 -0.098,0.219 0.016,-0.016 -0.055,0.051 -0.058,0.058 l 0,0.277 c -0.046,0.127 -0.183,0.242 -0.236,0.38 -0.133,0.347 -0.318,0.58 -0.318,1.005 0,0.239 0.031,0.478 0.139,0.694 0.013,0.075 -0.034,0.243 0.022,0.299 0.232,0.232 0.255,0.357 0.255,0.676 0,0.142 0.031,0.241 -0.07,0.341 -0.157,0.157 -0.072,0.54 -0.149,0.762 -0.05,0.144 -0.034,0.328 -0.104,0.462 -0.083,0.16 -0.246,0.246 -0.37,0.37 0,0.249 -0.309,0.368 -0.374,0.595 -0.067,0.235 -0.041,0.496 -0.041,0.739 0,0.252 0.029,0.407 0.117,0.641 0.084,0.226 -0.099,0.274 -0.119,0.461 -0.026,0.228 -0.829,-0.147 -0.829,0.197 -0.195,0.391 -0.711,0.512 -1.104,0.367 -0.172,-0.063 -0.149,-0.485 -0.42,-0.35 -0.164,0.082 -0.053,0.148 -0.242,0.041 -0.097,-0.054 -0.204,-0.058 -0.312,-0.058 l -0.553,0 c -0.251,0 -0.466,-0.025 -0.693,-0.138 -0.194,-0.026 -0.256,0.138 -0.415,0.138 -0.27,0.21 -0.731,0.406 -0.965,0.698 -0.15,0.188 -0.107,0.417 -0.271,0.594 -0.186,0.203 -0.45,0.262 -0.657,0.429 -0.297,0.24 -0.185,0.823 -0.185,1.153 0,0.161 0.054,0.244 0.117,0.393 0.111,0.263 0.145,0.551 0.156,0.834 0.017,0.471 0.03,0.927 0.21,1.367 0.192,0.468 0.676,0.731 0.902,1.184 0.239,0 0.421,0.56 0.554,0.693 0.08,0.043 0.314,0 0.416,0 0.055,0.017 0.116,0.093 0.175,0.117 0.2,0.08 0.024,0.015 0.102,0.16 0.187,0.375 0.382,0.777 0.732,1.028 0.168,0.12 0.445,0.151 0.535,0.301 0.043,0.072 0.117,0.1 0.117,0.195 0,0.137 0.089,0.078 0.139,0.139 0.149,0.298 0.37,0.277 0.657,0.277 0.166,0 0.288,-0.138 0.451,-0.138 0.034,0.009 0.092,0.092 0.117,0.116 0.066,0.066 0.23,0.099 0.318,0.124 0.53,0.156 1.084,0.174 1.633,0.175 0.15,0 0.644,0.281 0.563,0 0.075,0.004 0.124,0.045 0.136,0.118 0.012,0.074 0.218,-0.008 0.28,0.021 0.187,0.088 0.089,0.187 0.277,0 -0.198,0.054 -0.138,-0.12 -0.14,-0.258 -0.004,-0.177 -0.014,-0.356 -0.064,-0.526 -0.054,-0.184 -0.092,-0.168 0.043,-0.303 0.076,-0.076 0.384,-0.08 0.503,-0.137 0.275,-0.132 0.468,-0.577 0.765,-0.577 0.208,-0.032 0.251,0.025 0.416,-0.14 0,0.237 -0.071,0.694 0.277,0.694 0.123,0.067 0.213,0.202 0.335,0.08 0.149,-0.149 0.433,-0.08 0.635,-0.08 l -0.139,0 c 0.207,0.068 0.151,-0.178 0.314,-0.253 0.2,-0.094 0.441,-0.056 0.655,-0.163 0.2,0 0.382,-0.005 0.502,-0.186 0.077,-0.116 0.456,-0.155 0.606,-0.092 0.075,0 0.125,0.048 0.137,0.118 0.007,0.043 0.232,0.022 0.279,0.022 0.195,-0.002 0.274,0.003 0.415,-0.14 0.13,-0.04 0.271,0 0.36,0.081 0.183,0.166 0.283,-0.081 0.471,-0.081 0,0.235 0.139,0.453 0.139,0.694 0.155,0.155 0.289,0.399 0.276,0.623 -0.021,0.365 -0.494,0.12 -0.691,0.208 -0.073,0.032 -0.063,0.195 -0.208,0.122 -0.074,-0.038 -0.027,-0.122 -0.106,-0.122 l -0.236,0 c -0.059,0 -0.239,0.029 -0.282,0 -0.096,-0.066 0.044,-0.089 0,-0.138 -0.042,-0.049 -0.092,-0.093 -0.138,-0.139 l -0.139,0.139 c 0.019,-0.06 0.025,-0.139 -0.036,-0.139 -0.187,0 -0.023,0.037 -0.102,0.139 -0.11,0.142 -0.231,0.236 -0.266,0.427 -0.042,0.23 0.127,0.062 0.127,0.265 -0.042,-0.011 -0.095,0.012 -0.137,0 0.028,0.249 0.137,0.436 0.137,0.694 l 0,0.282 c 0,0.199 -0.088,0.133 -0.277,0.133 -0.227,-0.063 -0.49,-0.331 -0.313,-0.519 0.091,-0.098 0.344,-0.57 0.036,-0.59 0.092,0.306 -0.219,0.035 -0.277,-0.051 -0.151,-0.228 -0.251,0.026 -0.346,0.121 -0.101,0.101 -0.069,0.207 -0.069,0.346 -0.042,0.102 -0.189,0.171 -0.242,0.278 -0.042,0.084 -0.035,0.185 -0.035,0.276 -0.002,0.079 0,0.158 0,0.236 0,0.083 -0.088,0.053 -0.138,0.128 -0.14,0.211 -0.235,0.149 -0.394,0.308 -0.157,0.157 -0.635,0.499 -0.576,0.715 l 0,-0.694 c 0.056,-0.12 0.238,-0.237 0.336,-0.335 0.091,-0.092 0.092,-0.081 0.213,-0.081 0.065,0 -0.021,-0.108 0.005,-0.138 0.141,-0.141 0.277,-0.212 0.277,-0.415 -0.122,-0.019 -0.138,0.033 -0.138,0.138 -0.137,0 -0.139,0.04 -0.139,-0.097 0,-0.087 0.081,-0.031 0.121,-0.111 0.03,-0.059 0.018,-0.147 0.018,-0.208 -0.011,-0.058 0.048,-0.138 -0.036,-0.138 -0.126,0 -0.103,-0.006 -0.103,-0.134 0,-0.074 -0.111,0.025 -0.139,-0.005 0,-0.157 0.026,-0.139 -0.133,-0.139 -0.011,0 -0.01,0.273 0.017,0.299 0.206,0.207 0.012,0.361 -0.16,0.533 -0.224,0.224 -0.494,0.409 -0.704,0.645 -0.187,0.212 -0.266,0.325 -0.266,0.602 -0.108,-0.108 -0.207,-0.207 -0.346,-0.277 -0.109,-0.054 -0.326,-0.156 -0.368,-0.219 -0.049,-0.073 -0.182,-0.072 -0.255,-0.058 -0.026,0.005 -0.141,0 -0.138,0 0,-0.036 0.007,0.138 -0.006,0.138 l -0.369,0 c -0.08,0 -0.041,-0.169 -0.041,-0.235 0,-0.097 -0.139,-0.004 -0.139,-0.181 -0.025,-0.023 -0.113,0.023 -0.139,0 -0.099,-0.09 0.127,-0.126 -0.103,-0.14 -0.22,-0.014 -0.589,-0.314 -0.589,-0.557 0,-0.207 -0.103,-0.054 -0.151,-0.231 -0.061,-0.23 -0.328,-0.319 -0.541,-0.319 0.063,0.032 -0.016,-0.145 0,-0.138 l -0.277,0 -0.554,0 c -0.082,-0.004 -0.2,0.026 -0.255,-0.059 -0.079,-0.118 -0.142,-0.218 -0.294,-0.218 -0.125,0 -0.144,-0.028 -0.144,0.102 l 0,0.416 c 0,0.16 -0.022,0.331 0.041,0.483 0.035,0.083 0.088,0.177 0.168,0.225 0.042,0.025 0.185,-0.002 0.207,0.021 0,0.253 -0.068,0.642 0.058,0.866 0.087,0.153 1.156,0.595 1.186,0.323 0.014,-0.125 0.155,-0.08 0.274,-0.08 0.158,0 0.188,0.029 0.277,0.174 0.101,0.164 0.192,0.375 0.126,0.571 -0.034,0.102 -0.096,0.073 -0.142,0.188 -0.055,0.136 -0.098,0.131 -0.197,0.197 -0.079,0.053 -0.059,0.178 -0.059,0.255 -0.04,0.085 -0.177,0.098 -0.121,0.209 0.037,0.073 0.121,0.027 0.121,0.104 0,0.129 -0.03,0.103 0.139,0.103 0.091,0 0.208,-0.013 0.299,0.002 0.128,0.022 0.08,0.128 0.215,0.161 0.493,0.122 1.079,0.255 1.371,0.714 0.056,0.087 0.173,0.106 0.19,0.21 0.01,0.057 0.14,0.235 0.197,0.275 0.063,0.044 0.173,-0.012 0.22,0.024 0.029,0.021 -0.031,0.128 0.015,0.143 0.402,0.135 0.735,0.134 1.163,0.134 0.329,0 0.587,0.028 0.905,0.103 0.219,0.051 0.549,-0.081 0.549,0.174 0.157,-0.156 0.187,-0.138 0.415,-0.138 -0.199,-0.031 -0.155,0.207 -0.091,0.322 0.104,0.185 0.327,0.281 0.508,0.371 0,0.202 0.137,0.067 0.137,0.272 0,-0.006 0.19,0.048 0.139,-0.134 -0.056,0.325 0.28,0.894 0.467,1.144 0.098,0.129 0.085,0.275 -0.12,0.235 -0.25,-0.049 -0.487,-0.249 -0.63,-0.453 -0.075,-0.108 -0.133,-0.237 -0.133,-0.371 -0.091,-0.084 -0.239,0.037 -0.359,-0.083 -0.199,-0.199 -0.314,-0.413 -0.578,-0.509 -0.314,-0.114 -0.62,-0.255 -0.945,-0.333 -0.128,-0.031 -0.541,-0.149 -0.472,0.093 -0.046,-0.046 -0.092,-0.092 -0.138,-0.139 -0.026,0.051 -0.126,0.405 -0.139,0.416 -0.147,0.123 -0.277,-0.112 -0.277,0.18 0,0.162 -0.112,0.069 -0.136,0.214 -0.022,0.127 0.025,0.285 0.064,0.403 0.078,0.241 0.208,0.589 0.488,0.589 0.082,0.064 -0.097,0.123 0.082,0.141 0.119,0.012 0.168,0.116 0.212,0.206 0.042,0.084 0.146,0.069 0.223,0.069 0.124,0 0.299,0.12 0.409,0.175 0.123,0.062 0.246,0.131 0.346,0.228 0.063,0.062 0.104,0.28 0.171,0.287 0.146,0.017 0.313,0.409 0.444,0.54 0.089,0.089 0.199,0.156 0.328,0.156 0.088,0.058 0.138,0.105 0.219,0.16 0.132,0.088 -0.015,0.072 0.162,0.138 0.166,0.063 0.276,0.117 0.456,0.117 l 0.41,0 c 0.119,0.12 0.261,0.139 0.42,0.139 0.194,0 0.664,0.016 0.69,-0.219 0.013,-0.113 0.475,-0.058 0.551,-0.058 0.241,-0.241 0.532,-0.398 0.85,-0.513 0.213,-0.076 0.048,-0.319 0.356,-0.319 0.171,0 -0.097,0.232 -0.097,0.278 0.117,-0.04 0.111,0.014 0.162,0.08 0.076,0.097 0.344,0.074 0.444,0.041 0.058,-0.019 0.087,-0.059 0.086,-0.121 0.089,-0.011 0.191,0.063 0.254,0.116 0.111,0.096 0.149,0.161 0.3,0.161 0.22,0.034 0.452,-0.015 0.676,0.017 0.263,0.038 0.358,0.26 0.571,0.26 -0.07,0 -0.322,0.232 -0.256,0.299 0.199,0.198 0.041,0.457 0.256,0.671 0.12,0.184 0.173,0.379 0.381,0.496 0.155,0.087 0.727,-0.049 0.727,0.197 m -12.88,-6.929 c 0,-0.053 0.013,-0.129 -0.058,-0.137 -0.153,-0.017 -0.024,-0.042 -0.139,-0.119 -0.078,-0.052 -0.266,-0.022 -0.358,-0.022 0.111,-0.028 0.23,0.037 0.278,0.139 0.012,0.026 0,0.137 0,0.144 0,0.15 0.059,0.149 0.121,0.272 0.056,0.111 0.096,0.225 0.156,0.346 0.068,0.137 0.138,0.186 0.138,0.342 0,-0.106 0.285,0.151 0.277,0.143 -0.104,0.105 -0.12,0.139 -0.272,0.139 -0.009,0 -0.005,0.267 -0.005,0.277 0,0.182 -0.051,0.138 -0.121,0.277 -0.128,0.258 0.32,0.555 -0.017,0.555 0.207,-0.059 0.086,0.13 0.138,0.138 0.119,0.019 0.179,-0.004 0.139,-0.138 0.232,-0.035 0.317,0.277 0.554,0.277 0.004,-0.078 0.053,-0.139 0.138,-0.139 0.02,-0.044 0,-0.191 0,-0.236 0,-0.125 0.139,-0.153 0.139,-0.313 0,-0.016 -0.06,-0.066 -0.059,-0.064 -0.121,-0.12 -0.08,-0.262 -0.08,-0.426 0,-0.213 -0.041,-0.485 0.241,-0.485 0.134,0 0.175,0.039 0.175,-0.103 0,-0.057 -0.005,-0.117 -0.059,-0.153 -0.113,-0.076 -0.079,-0.147 -0.079,-0.298 -0.123,0 -0.139,-0.017 -0.139,-0.139 -0.138,0 -0.077,-0.091 -0.139,-0.139 -0.117,-0.117 -0.257,-0.138 -0.416,-0.138 l -0.553,0 M 5.263,-26.192 c 0.109,0.11 0.239,0.416 0.42,0.416 0.239,0 0.466,-0.15 0.7,-0.208 0.271,-0.067 0.541,-0.07 0.818,-0.07 0.084,-0.038 0.261,-0.272 0.277,0 0,-0.067 -0.004,-0.15 0.003,-0.218 0.013,-0.123 0.136,0.007 0.136,-0.161 0,-0.02 0.516,-0.175 0.59,-0.175 l 0.144,0 c 0.178,0 0.033,-0.139 0.236,-0.139 0.204,0.001 0.064,0.12 0.277,0.149 0.232,0.033 0.455,0.129 0.692,0.129 -0.08,-0.258 0.159,-0.105 0.242,-0.059 0.118,0.067 0.451,-0.007 0.451,0.197 -0.001,-0.046 0.003,-0.092 0,-0.138 -0.009,0.051 -0.008,0.129 0.058,0.136 0.13,0.014 0.108,0.151 0.197,0.255 0.084,0.099 0.252,-0.228 0.277,-0.29 0.131,-0.328 -0.391,-0.609 -0.595,-0.763 -0.259,-0.195 -0.565,-0.447 -0.907,-0.447 0.005,0.102 0.309,0.277 0,0.277 0.052,-0.008 0.129,-0.007 0.136,0.059 0.015,0.13 0.054,0.063 0.141,0.15 0.081,0.081 0.188,0.118 0.277,0.207 l -0.421,0 c -0.293,0 -0.427,-0.217 -0.721,-0.069 -0.21,0.105 -0.455,0.069 -0.694,0.069 l -0.519,0 -0.379,0 c -0.181,0 -0.259,0.064 -0.424,0.136 -0.318,0.141 -0.669,0.17 -0.997,0.28 -0.19,0 -0.415,0.037 -0.415,0.277 m 1.524,2.633 c 0.163,0.165 0.286,0.416 0.554,0.416 0.054,0.021 0.113,-0.03 0.16,0.024 0.039,0.045 0.071,0.096 0.095,0.151 0.065,0.166 0.026,0.052 0.159,0.119 0.227,0.114 0.414,0.263 0.602,0.444 0.213,0.204 0.538,0.306 0.714,0.526 0.045,0.056 0.28,0.465 0.368,0.377 0.069,-0.069 0.145,-0.136 0.199,-0.219 0.107,-0.16 0.218,-0.095 0.316,-0.193 0.123,-0.122 -0.039,-0.382 -0.177,-0.396 -0.199,-0.02 -0.498,-0.353 -0.498,-0.556 -0.059,-0.275 0.175,-0.442 0.136,-0.717 -0.016,-0.11 -0.1,-0.247 -0.157,-0.333 -0.062,-0.093 -0.173,-0.034 -0.256,-0.076 -0.113,-0.056 -0.116,-0.197 -0.208,-0.242 -0.095,-0.048 -0.147,-0.093 -0.219,-0.185 -0.085,-0.109 -0.155,-0.23 -0.199,-0.362 -0.059,-0.174 -0.012,-0.399 -0.149,-0.521 -0.224,-0.201 -0.417,0.08 -0.574,0.08 l -0.215,0 c -0.207,0 0.004,0.123 -0.18,0.143 -0.676,0.071 -0.471,1.064 -0.471,1.52 l 0,-0.139 0,0.139 m 2.769,-0.416 c 0.122,0 0.139,0.017 0.139,0.139 l 0,-0.139 0,0.139 c 0,-0.212 -0.047,-0.277 0.179,-0.277 0.143,0 0.113,0.138 0.272,0.138 0.101,0 0.241,-0.008 0.241,0.139 l 0,-0.277 c -0.009,-0.079 0.017,-0.195 -0.059,-0.253 -0.065,-0.052 -0.117,-0.042 -0.079,-0.163 -0.207,0.207 -0.277,0.151 -0.277,-0.139 0,-0.185 -0.038,-0.419 0.058,-0.589 0.128,-0.226 -0.021,-0.343 -0.197,-0.519 -0.323,-0.106 -0.229,0.25 -0.277,0.415 -0.019,0.066 0.044,0.139 -0.041,0.139 -0.157,0 -0.076,-0.139 -0.236,-0.139 0,-0.193 0.078,-0.416 -0.138,-0.415 -0.142,0 -0.139,-0.018 -0.139,0.133 l 0,0.241 c 0,0.569 0.143,1.015 0.554,1.427 m 2.077,0.693 c 0.139,0.139 0.277,0.277 0.416,0.416 0.225,-0.226 0.102,-0.297 -0.069,-0.555 -0.101,-0.151 -0.285,-0.306 -0.33,-0.484 -0.028,-0.115 0.009,-0.236 -0.017,-0.347 -0.083,-0.364 -0.531,-0.301 -0.346,0.07 0.064,0.126 0.035,0.298 0.128,0.402 0.132,0.147 0.062,0.343 0.218,0.498 m 0.693,-0.693 c 0.136,-0.035 0.19,0.052 0.277,0.139 0.192,0.191 0.246,0.108 0.467,-0.069 0.074,-0.06 0.416,-0.347 0.128,-0.347 -0.081,0 -0.041,-0.172 -0.041,-0.241 0,-0.149 0.095,-0.436 0.272,-0.236 0.126,0.142 0.138,0.299 0.143,0.477 0.001,0.015 -0.003,0.277 0.005,0.277 0.218,0 0.134,-0.217 0.134,-0.415 0.403,0.412 1.122,-0.202 1.488,-0.411 0.194,-0.112 0.462,-0.086 0.589,-0.283 0,-0.224 0.196,-0.415 0.416,-0.415 0.557,0 1.246,0.115 1.246,0.831 0.097,0.092 0.225,-0.208 0.26,-0.277 0.075,-0.15 0.031,-0.416 -0.163,-0.416 -0.215,0 -0.014,0.124 -0.097,0.139 -0.117,0.02 -0.138,0.028 -0.138,-0.098 0,-0.236 -0.158,-0.342 -0.322,-0.5 -0.166,-0.158 -0.275,-0.234 -0.504,-0.234 -0.052,0 0.092,0.278 -0.103,0.278 -0.101,0 -0.163,0.016 -0.238,-0.059 -0.103,-0.103 -0.075,-0.08 -0.218,-0.08 -0.012,-0.018 0,-0.14 0,-0.179 0,-0.199 0.041,-0.216 0.121,-0.375 0.017,-0.045 0.022,-0.091 0.017,-0.139 0.063,0 0.103,-0.028 0.121,-0.086 0.055,-0.165 -0.084,-0.468 0.156,-0.468 -0.16,-0.16 -0.165,-0.277 -0.41,-0.277 -0.05,0 -0.258,0.149 -0.323,0.174 -0.128,0.05 -0.234,0.125 -0.375,0.103 0.01,0.155 0.139,0.096 0.139,0.272 l 0,0.277 c 0,0.222 -0.551,0.157 -0.557,0.12 -0.022,-0.157 -0.402,-0.669 -0.516,-0.669 -0.285,0 -0.265,0.091 -0.45,0.277 0,0.304 -0.35,0.277 -0.554,0.277 0.086,0.169 0.276,0.334 0.276,0.518 l 0,0.175 0,0.277 c 0,0.218 -0.038,0.114 -0.207,0.156 -0.227,0.057 -0.413,0.26 -0.664,0.26 -0.287,0 -0.274,0.656 -0.098,0.832 -0.221,-0.066 -0.162,0.277 -0.416,0.277 0.12,-0.035 0.173,0.018 0.139,0.138 m 0.138,-3.742 c 0,0.086 0.061,0.134 0.139,0.139 -0.046,-0.046 -0.093,-0.092 -0.139,-0.139 0.197,0 0.275,0.065 0.278,-0.139 0,-0.24 -0.278,-0.313 -0.278,-0.548 0,-0.168 -0.016,-0.303 -0.219,-0.28 -0.05,0.005 -0.088,0.257 -0.196,0.136 -0.151,-0.169 0.385,-0.476 0.459,-0.571 0.129,-0.166 0.01,-0.261 0.234,-0.261 0.078,-0.053 0.197,0.051 0.138,-0.138 0.071,0.07 0.179,0.277 0.277,0.277 0.16,0.183 0.222,0.486 0.347,0.704 0.172,0.301 0.346,0.494 0.346,0.856 0,0.134 0.126,0.38 0.276,0.38 0,-0.143 -0.095,-0.655 0.117,-0.691 0.066,-0.011 0.019,-0.132 -0.037,-0.138 -0.093,-0.011 -0.124,-0.185 -0.219,-0.279 0.146,0 0.277,0.059 0.277,-0.103 0,-0.223 0.13,-0.112 0.14,-0.313 0,-0.17 -0.287,-0.407 -0.117,-0.576 0.158,-0.158 0.117,-0.312 0.117,-0.533 l 0,-0.313 c 0,-0.122 0.063,-0.164 0.097,-0.282 0.047,-0.165 0.04,-0.344 0.04,-0.514 0.12,-0.119 0.135,-0.315 0.139,-0.474 0.005,-0.255 0.042,-0.523 -0.08,-0.738 -0.075,-0.134 -0.051,-0.297 -0.084,-0.442 -0.047,-0.215 -0.122,-0.422 -0.217,-0.621 -0.312,-0.658 -0.804,-1.181 -1.249,-1.746 -0.177,-0.223 -0.313,-0.563 -0.53,-0.714 -0.286,-0.2 -0.254,-0.646 -0.646,-0.767 -0.198,-0.061 -0.397,-0.021 -0.597,-0.043 -0.138,-0.015 0.039,-0.136 -0.156,-0.136 -0.061,0 -0.12,-0.001 -0.181,0 -0.213,0 -0.414,-0.038 -0.414,0.236 l 0,0.698 0,-0.103 c 0.004,0.014 0,0.106 0,0.139 -0.101,0.015 -0.277,-0.002 -0.277,-0.139 l -0.313,0 c -0.19,0 -0.103,0.388 -0.103,0.554 -0.078,0.234 -0.096,0.577 -0.296,0.748 -0.139,0.119 -0.359,0.084 -0.53,0.084 -0.143,0 -0.282,0.044 -0.282,-0.139 -0.1,-0.036 -0.31,0 -0.41,0 -0.01,0 -0.186,-0.273 -0.216,-0.303 -0.09,-0.093 -0.197,-0.165 -0.314,-0.218 -0.242,-0.111 -0.457,-0.172 -0.722,-0.172 -0.352,0 -0.703,-0.572 -0.928,-0.03 -0.025,0.059 -0.107,0.43 0.017,0.444 0.118,0.013 0.08,0.005 0.08,0.141 -0.01,0.057 -0.138,-0.092 -0.138,0.097 0,0.193 0.222,0.374 0.069,0.527 -0.117,0.117 -0.069,0.322 -0.069,0.485 0,0.127 0.075,0.583 -0.018,0.675 -0.125,0.126 -0.321,-0.045 -0.398,-0.121 0,0.215 0.31,0.402 0.392,0.589 0.05,0.113 0.021,0.26 0.041,0.381 0.028,0.164 0.121,0.248 0.121,0.416 0,0.143 -0.033,0.244 0.069,0.346 0.064,0.065 0.036,0.141 0.087,0.191 0.038,0.019 0.078,0.024 0.121,0.017 -0.007,0.043 -0.001,0.083 0.018,0.121 0.041,0.041 0.234,0.114 0.3,0.151 0.116,0.066 0.244,0.113 0.376,0.133 0.235,0.036 0.069,0.064 0.196,0.205 0.033,0.037 0.096,0.172 0.138,0.2 0.067,0.044 0.198,0.031 0.275,0.055 0.245,0.074 0.468,0.229 0.643,0.414 0.162,0.17 0.284,0.661 0.547,0.661 0.034,0.018 0.109,-0.023 0.139,0 0.027,0.021 -0.017,0.122 0.021,0.16 0.155,0.155 0.336,0.302 0.446,0.492 0.13,0.224 0.311,0.332 0.571,0.317 0.244,-0.014 0.318,-0.418 0.485,-0.158 0.064,0.1 0.212,0.574 0.313,0.574 0.22,0 0.023,0.152 0.103,0.278 0.171,0.172 0.571,0.195 0.761,0.052 0.12,-0.09 0.159,-0.191 0.31,-0.191 l 0.313,0 m -1.384,-9.7 c 0.121,0 0.155,0.138 0.276,0.138 -0.043,-0.134 -0.623,-1.42 -0.813,-1.039 -0.081,0.162 0.121,0.324 0.121,0.485 0.004,0.151 -0.033,0.171 -0.138,0.277 0.129,0.009 0.126,0.143 0.225,0.208 0.162,0.108 0.21,0.049 0.329,-0.069 M 10.249,-17.6 c 0.418,0 0.576,-0.345 0.691,-0.693 0.004,-0.142 -0.112,-0.321 -0.207,-0.416 -0.203,-0.203 0.228,-0.297 0.347,-0.416 0.412,0 0.487,-0.233 0.675,-0.571 0.074,-0.134 0.337,-0.794 0.017,-0.815 0.23,-0.014 0.138,-0.557 0.138,-0.728 0,-0.083 -0.071,-0.367 -0.16,-0.382 -0.172,-0.029 -0.115,-0.307 -0.292,-0.39 -0.085,-0.04 -0.366,0.051 -0.381,0.136 -0.011,0.071 -0.062,0.117 -0.137,0.117 0,-0.063 0.002,0.139 0,0.139 -0.163,0 -0.137,0.026 -0.137,-0.139 -0.131,0 -0.277,-0.047 -0.277,0.103 0,0.111 -0.035,0.314 0.138,0.314 0.072,0.098 0.036,0.188 0.175,0.253 0.125,0.058 0.101,-0.005 0.101,0.126 0,0.137 0.034,0.175 -0.132,0.175 -0.011,0 -0.005,0.146 -0.005,0.179 0,0.168 -0.302,0.097 -0.452,0.097 -0.255,0 -0.217,-0.248 -0.401,-0.279 -0.053,-0.008 -0.671,-0.904 -0.671,-0.413 0.174,-0.056 0.473,0.525 0.566,0.695 0.09,0.163 0.183,0.33 0.235,0.51 0.035,0.119 -0.02,0.169 0.11,0.183 0.072,0.008 0.059,0.084 0.059,0.136 -0.284,-0.081 -0.072,0.249 -0.022,0.334 0.078,0.13 0.022,0.452 0.022,0.595 l 0,0.457 c -0.016,0.051 -0.124,0.274 -0.16,0.28 -0.341,0.056 0.128,0.413 0.298,0.413 -0.046,0 -0.092,0.001 -0.138,0 m 2.354,7.899 0.134,0 -0.134,0 m -2.631,3.742 -0.139,0 c 0.564,0 0.534,-0.915 1.05,-0.972 0.179,-0.02 -0.092,-0.275 0.192,-0.275 0.171,0 0.42,-0.408 0.42,-0.555 -0.134,0 -0.229,-0.114 -0.081,-0.144 0.192,-0.041 0.358,-0.208 0.358,-0.41 0,-0.227 0.046,-0.245 -0.16,-0.279 -0.151,-0.025 -0.133,-0.15 -0.013,-0.217 0.108,-0.061 0.228,-0.059 0.348,-0.059 0.164,0 0.368,-0.149 0.528,-0.217 0.148,-0.063 0.248,-0.059 0.405,-0.059 0.075,-0.09 -0.039,-0.277 -0.138,-0.277 0,-0.225 -0.327,-0.555 -0.555,-0.555 0.36,0.099 0.494,-0.724 0.624,-0.918 0.167,-0.25 0.317,-0.58 0.341,-0.889 0.016,-0.214 0.144,-0.074 0.144,-0.169 0,-0.102 0.017,-0.137 0.138,-0.103 0,-0.221 -0.264,-0.264 -0.394,-0.394 -0.047,-0.046 -0.134,-0.021 -0.196,-0.021 -0.245,0 0.001,-0.041 -0.102,-0.139 -0.073,-0.068 -0.196,-0.113 -0.254,-0.195 -0.082,-0.117 -0.055,-0.021 -0.162,-0.082 -0.253,-0.127 -0.554,-0.384 -0.554,-0.693 -0.165,0.082 -0.479,0.118 -0.542,0.324 -0.06,0.199 -0.216,0.011 -0.369,0.113 -0.167,0.112 0.032,0.199 0.079,0.256 0.08,0.095 -0.111,0.138 0.098,0.138 0.068,0 0.042,0.036 0.042,0.103 0,0.134 0.186,0.361 0.276,0.452 0.16,0.16 0.28,0.277 0.518,0.277 0.068,0 0.028,0.233 0.039,0.299 0.043,0.256 0.274,-0.037 0.274,0.291 l 0,0.277 c 0,0.169 -0.096,0.082 -0.19,0.207 -0.189,0.252 -0.02,0.527 -0.283,0.749 -0.061,0.05 -0.07,0.154 -0.075,0.225 -0.016,0.179 -0.062,0.281 -0.144,0.447 -0.162,0.323 -0.269,0.651 -0.421,0.975 -0.112,0.239 -0.205,0.486 -0.261,0.746 -0.026,0.12 -0.126,0.074 -0.147,0.197 -0.022,0.134 -0.141,0.301 -0.21,0.42 -0.028,0.049 -0.207,0.253 -0.207,0.3 0,0.105 0.01,0.191 -0.07,0.272 -0.151,0.151 -0.207,0.342 -0.207,0.554" />
        </g>
        <g
           transform="translate(337.57201,928.5596)"
           id="g14414">
          <path
             id="path14416"
             style="fill:#919191;fill-opacity:1;fill-rule:nonzero;stroke:none"
             d="m 0,0 c -3.209,4.858 -7.054,8.784 -13.121,8.784 -8.237,0 -12.378,-7.199 -16.383,-14.16 -3.933,-6.837 -8.001,-13.907 -15.924,-13.907 -7.924,0 -11.992,7.069 -15.927,13.907 -4.006,6.961 -8.148,14.16 -16.363,14.16 -6.378,0 -10.302,-4.332 -13.613,-9.524 0,0 -0.033,-0.235 -0.061,-0.532 -0.026,-0.297 -0.04,-0.581 -0.04,-0.581 3.352,5.438 7.251,10.132 13.708,10.132 7.929,0 11.998,-7.07 15.932,-13.907 4.006,-6.961 8.148,-14.16 16.364,-14.16 8.215,0 12.356,7.199 16.361,14.16 3.934,6.837 8.001,13.907 15.924,13.907 6.183,0 10.016,-4.28 13.266,-9.4" />
        </g>
        <g
           transform="translate(248.87869,909.8994)"
           id="g14418">
          <path
             id="path14420"
             style="fill:#919191;fill-opacity:1;fill-rule:nonzero;stroke:none"
             d="m 0,0 c 4.948,2.293 8.08,7.731 11.132,13.032 3.937,6.837 8.008,13.907 15.932,13.907 7.929,0 11.998,-7.07 15.932,-13.907 4.006,-6.961 8.148,-14.16 16.364,-14.16 8.215,0 12.36,7.199 16.368,14.16 3.071,5.334 6.224,10.809 11.224,12.96 l -0.178,0.481 C 81.622,24.279 78.415,18.71 75.291,13.284 71.354,6.447 67.283,-0.623 59.36,-0.623 c -7.924,0 -11.992,7.07 -15.927,13.907 -4.006,6.961 -8.148,14.16 -16.363,14.16 -8.222,0 -12.366,-7.199 -16.375,-14.16 C 7.691,8.067 4.609,2.715 -0.203,0.471" />
        </g>
        <g
           transform="translate(337.2114,930.83949)"
           id="g14422">
          <path
             id="path14424"
             style="fill:#919191;fill-opacity:1;fill-rule:nonzero;stroke:none"
             d="m 0,0 c -1.787,-2.311 -3.335,-5.001 -4.864,-7.656 -3.937,-6.837 -8.008,-13.907 -15.932,-13.907 -7.923,0 -11.992,7.07 -15.927,13.907 -4.005,6.961 -8.148,14.16 -16.363,14.16 -8.221,0 -12.366,-7.199 -16.374,-14.16 -3.937,-6.837 -8.008,-13.907 -15.932,-13.907 -0.991,0 -1.933,0.11 -2.81,0.317 l 0.262,-0.577 c 0.8,-0.16 1.657,-0.245 2.548,-0.245 8.215,0 12.36,7.199 16.369,14.16 3.937,6.837 8.007,13.907 15.931,13.907 7.93,0 11.998,-7.07 15.932,-13.907 4.006,-6.962 8.149,-14.16 16.364,-14.16 8.215,0 12.36,7.199 16.369,14.16 1.438,2.498 2.895,5.027 4.55,7.231" />
        </g>
        <g
           transform="translate(337.4631,918.3998)"
           id="g14426">
          <path
             id="path14428"
             style="fill:#919191;fill-opacity:1;fill-rule:nonzero;stroke:none"
             d="m 0,0 c -3.214,-4.997 -7.019,-9.123 -13.072,-9.123 -7.924,-0.001 -11.992,7.069 -15.927,13.907 -4.006,6.961 -8.148,14.16 -16.363,14.16 -8.221,0 -12.367,-7.199 -16.375,-14.16 -3.937,-6.837 -8.008,-13.907 -15.932,-13.907 -6.288,-0.001 -10.149,4.453 -13.441,9.71 0,0 0.018,-0.196 0.076,-0.623 0.058,-0.427 0.108,-0.604 0.108,-0.604 3.237,-4.951 7.105,-8.988 13.257,-8.988 8.216,0 12.361,7.198 16.369,14.16 3.937,6.837 8.008,13.907 15.932,13.907 7.929,0 11.997,-7.07 15.932,-13.907 4.006,-6.962 8.148,-14.16 16.364,-14.16 5.905,0 9.707,3.72 12.868,8.397" />
        </g>
        <g
           transform="translate(246.64,930.5567)"
           id="g14430">
          <path
             id="path14432"
             style="fill:#919191;fill-opacity:1;fill-rule:nonzero;stroke:none"
             d="m 0,0 c 1.78,-2.294 3.324,-4.977 4.848,-7.625 4.006,-6.962 8.149,-14.16 16.364,-14.16 8.215,0 12.36,7.199 16.369,14.16 3.936,6.837 8.008,13.907 15.931,13.907 7.93,0 11.998,-7.07 15.932,-13.907 4.006,-6.962 8.149,-14.16 16.364,-14.16 0.753,0 1.471,0.061 2.159,0.176 l 0.262,0.564 c -0.766,-0.154 -1.571,-0.235 -2.421,-0.235 -7.923,-10e-4 -11.992,7.069 -15.927,13.907 -4.005,6.961 -8.148,14.16 -16.363,14.16 -8.221,0 -12.366,-7.199 -16.374,-14.16 C 33.207,-14.21 29.135,-21.28 21.212,-21.28 13.288,-21.281 9.22,-14.211 5.286,-7.373 3.674,-4.574 2.041,-1.735 0.129,0.658" />
        </g>
        <g
           transform="translate(320.7238,936.5605)"
           id="g14434">
          <path
             id="path14436"
             style="fill:#fe0000;fill-opacity:1;fill-rule:nonzero;stroke:none"
             d="m 0,0 c -10.023,-3.023 -12.526,-18.757 -20.598,-25.264 -3.482,2.626 -6.59,7.097 -8.965,11.224 -3.345,5.812 -6.221,12.11 -11.901,13.861 0,0 0.234,0.112 0.398,0.173 l 0.004,0 c 9.619,-2.967 12.602,-17.482 20.088,-24.159 l 0,0 c 3.004,2.808 5.118,7.108 7.463,11.184 3.297,5.729 7.319,11.294 13.161,13.106 0,0 0.185,-0.064 0.336,-0.12 L 0,0 Z" />
        </g>
        <g
           transform="translate(320.7238,936.5605)"
           id="g14438">
          <path
             id="path14440"
             style="fill:#ffcc00;fill-opacity:1;fill-rule:nonzero;stroke:none"
             d="m 0,0 c -9.688,-2.905 -13.096,-17.467 -20.605,-24.165 -3.004,2.808 -4.717,7.108 -7.063,11.184 -3.285,5.71 -7.211,11.269 -13.02,13.099 0,0 -0.225,-0.066 -0.378,-0.124 l -0.004,0.003 c 9.624,-2.963 12.805,-18.436 20.296,-25.112 0.127,-0.113 0.176,-0.149 0.176,-0.149 l 0.37,0.285 c 0,0 0.345,0.308 0.47,0.407 3.3,2.63 5.853,6.553 8.143,10.532 3.358,5.836 6.303,12.152 12.029,13.873 L 0,0 Z" />
        </g>
        <g
           transform="translate(288.4512,909.5681)"
           id="g14442">
          <path
             id="path14444"
             style="fill:#fe0000;fill-opacity:1;fill-rule:nonzero;stroke:none"
             d="m 0,0 c -11.46,3.566 -13.491,23.54 -25.006,27.009 l 0.001,0 c -0.163,-0.061 -0.387,-0.161 -0.387,-0.161 5.719,-1.726 8.602,-8.063 11.959,-13.895 3.289,-5.717 7.235,-11.269 13.05,-13.089 0,0 0.218,0.075 0.382,0.137 L 0,0 Z" />
        </g>
        <g
           transform="translate(263.3968,909.5619)"
           id="g14446">
          <path
             id="path14448"
             style="fill:#ffcc00;fill-opacity:1;fill-rule:nonzero;stroke:none"
             d="m 0,0 c 11.46,3.566 13.586,23.546 25.101,27.015 l -10e-4,0 c 0.163,-0.061 0.4,-0.157 0.4,-0.157 C 19.782,25.132 16.76,18.791 13.404,12.959 10.114,7.242 6.261,1.681 0.447,-0.139 c 0,0 -0.282,0.078 -0.446,0.14 L 0,0 Z" />
        </g>
        <g
           transform="translate(263.0392,909.71249)"
           id="g14450">
          <path
             id="path14452"
             style="fill:#fe0000;fill-opacity:1;fill-rule:nonzero;stroke:none"
             d="m 0,0 c 5.701,1.717 8.507,8.031 11.865,13.867 3.297,5.73 7.364,11.323 13.207,13.133 0,0 0.232,-0.078 0.385,-0.136 l -0.001,0 C 13.941,23.392 11.816,3.408 0.352,-0.152 l 0.012,0 C 0.225,-0.1 0,0 0,0" />
        </g>
        <g
           transform="translate(288.841,909.7245)"
           id="g14454">
          <path
             id="path14456"
             style="fill:#ffcc00;fill-opacity:1;fill-rule:nonzero;stroke:none"
             d="m 0,0 c -5.701,1.717 -8.569,8.019 -11.927,13.855 -3.297,5.73 -7.237,11.325 -13.08,13.135 0,0 -0.234,-0.08 -0.388,-0.138 l 0.002,0 c 11.515,-3.472 13.545,-23.45 25.009,-27.01 l -0.012,0 C -0.257,-0.106 0,0 0,0" />
        </g>
        <g
           transform="translate(271.1736,927.0303)"
           id="g14458">
          <path
             id="path14460"
             style="fill:#ffcc00;fill-opacity:1;fill-rule:evenodd;stroke:none"
             d="m 0,0 c 0,-0.475 -0.385,-0.86 -0.86,-0.86 -0.475,0 -0.861,0.385 -0.861,0.86 0,0.475 0.386,0.86 0.861,0.86 C -0.385,0.86 0,0.475 0,0" />
        </g>
        <g
           transform="translate(302.9089,936.98)"
           id="g14462">
          <path
             id="path14464"
             style="fill:#ffcc00;fill-opacity:1;fill-rule:evenodd;stroke:none"
             d="m 0,0 c 0,-0.475 -0.385,-0.86 -0.86,-0.86 -0.475,0 -0.861,0.385 -0.861,0.86 0,0.475 0.386,0.86 0.861,0.86 C -0.385,0.86 0,0.475 0,0" />
        </g>
        <g
           transform="translate(337.44881,925.7594)"
           id="g14466">
          <path
             id="path14468"
             style="fill:#fe0000;fill-opacity:1;fill-rule:nonzero;stroke:none"
             d="m 0,0 -0.04,0.858 -1.978,7.03 0.842,-6.861 -2.201,3.614 1.481,-3.883 -3.619,3.932 2.893,-4.485 -6.472,3.997 6.028,-4.7 -7.373,2.023 7.353,-2.877 -6.292,-0.569 5.987,-0.28 -4.752,-1.886 5.16,1.022 -3.776,-2.908 4.191,2.328 -2.658,-3.93 3.212,3.205 -2.555,-5.644 3.553,5.621 -0.392,-4.695 1.397,4.957 0.088,1.44 L 0,0 Z" />
        </g>
        <g
           transform="translate(337.5332,924.20419)"
           id="g14470">
          <path
             id="path14472"
             style="fill:#ffcc00;fill-opacity:1;fill-rule:nonzero;stroke:none"
             d="m 0,0 c 0,-1.201 -0.056,-1.758 -0.056,-1.758 l -1.112,-3.625 0.36,3.271 -2.515,-3.934 1.805,4.092 -2.336,-2.369 1.919,2.806 -3.034,-1.641 2.616,2.079 -3.586,-0.773 3.456,1.346 -4.133,0.237 4.146,0.333 -4.806,1.963 4.962,-1.397 -4.068,3.087 4.366,-2.523 -2.071,3.041 2.505,-2.766 -0.932,2.872 1.509,-2.6 -0.591,5.287 1.502,-5.453 C -0.094,1.575 0,1.201 0,0" />
        </g>
        <g
           transform="translate(337.52049,923.87241)"
           id="g14474">
          <path
             id="path14476"
             style="fill:#ffffff;fill-opacity:1;fill-rule:evenodd;stroke:none"
             d="m 0,0 -0.024,-0.855 -0.801,-2.656 0.195,2.277 -1.628,-2.528 1.204,2.68 -1.748,-1.528 1.326,1.823 -1.877,-0.955 1.744,1.385 -2.01,-0.524 2.016,0.809 -2.421,0.199 1.861,0.242 -1.835,0.897 2.27,-0.622 L -3.685,2.4 -1.437,0.922 -2.538,2.658 -1.145,1.201 -1.676,2.924 -0.717,1.191 -1.111,4.905 0.008,0.776 0,0 Z" />
        </g>
        <g
           transform="translate(307.37331,956.3038)"
           id="g14478">
          <path
             id="path14480"
             style="fill:#ffffff;fill-opacity:1;fill-rule:nonzero;stroke:none"
             d="m 0,0 c 17.291,-3.632 30.371,-16.737 30.371,-32.44 l 0.115,0 c 0,15.744 -9.466,29.143 -28.619,34.065" />
        </g>
        <g
           transform="translate(305.356,954.73019)"
           id="g14482">
          <path
             id="path14484"
             style="fill:#0099ff;fill-opacity:1;fill-rule:nonzero;stroke:none"
             d="m 0,0 c 17.779,-3.275 32.286,-14.886 32.286,-30.854 l 0.102,0 c 0,15.696 -13.07,28.786 -30.352,32.424" />
        </g>
        <g
           transform="translate(303.1321,953.9185)"
           id="g14486">
          <path
             id="path14488"
             style="fill:#fe0000;fill-opacity:1;fill-rule:nonzero;stroke:none"
             d="M 0,0 0.172,-0.77 C 18.46,-3.736 34.379,-13.754 34.379,-30.049 l 0.131,-0.009 c 0,15.975 -14.521,27.605 -32.312,30.875 L 0,0 Z" />
        </g>
        <g
           transform="translate(269.82629,950.4635)"
           id="g14490">
          <path
             id="path14492"
             style="fill:#fe0000;fill-opacity:1;fill-rule:nonzero;stroke:none"
             d="m 0,0 c -13.34,-4.616 -23.443,-13.625 -23.443,-26.595 l -0.092,0.01 c 0,11.944 8.456,22.108 22.42,27.409 L 0,0 Z" />
        </g>
        <g
           transform="translate(268.7187,951.2908)"
           id="g14494">
          <path
             id="path14496"
             style="fill:#ffffff;fill-opacity:1;fill-rule:nonzero;stroke:none"
             d="m 0,0 c -13.968,-5.301 -22.427,-15.481 -22.427,-27.427 l -0.079,0.005 c 0,12.22 7.981,22.604 21.534,28.169 L 0,0 Z" />
        </g>
        <g
           transform="translate(267.7466,952.03709)"
           id="g14498">
          <path
             id="path14500"
             style="fill:#fe0000;fill-opacity:1;fill-rule:nonzero;stroke:none"
             d="m 0,0 c -13.553,-5.565 -21.534,-15.948 -21.534,-28.168 l -0.09,0 c 0,12.459 7.521,23.048 20.644,28.879" />
        </g>
        <g
           transform="translate(266.76711,952.74809)"
           id="g14502">
          <path
             id="path14504"
             style="fill:#ffffff;fill-opacity:1;fill-rule:nonzero;stroke:none"
             d="m 0,0 c -13.123,-5.83 -20.645,-16.42 -20.645,-28.879 l -0.088,0 c 0,12.676 7.027,23.497 19.776,29.594 L 0,0 Z" />
        </g>
        <g
           transform="translate(264.7822,954.2303)"
           id="g14506">
          <path
             id="path14508"
             style="fill:#fe0000;fill-opacity:1;fill-rule:nonzero;stroke:none"
             d="m 0,0 c -12.527,-6.415 -18.748,-17.615 -18.748,-30.361 0,12.673 7.024,23.492 19.767,29.589 L 0,0 Z" />
        </g>
        <g
           transform="translate(264.7822,954.2303)"
           id="g14510">
          <path
             id="path14512"
             style="fill:#1d1cfe;fill-opacity:1;fill-rule:nonzero;stroke:none"
             d="m 0,0 c 2.963,1.517 6.28,2.767 9.953,3.706 l 5.989,-4.628 C 12.217,-1.623 8.458,-2.585 5.044,-3.767 L 0,0 Z" />
        </g>
        <g
           transform="translate(268.86189,955.8131)"
           id="g14514">
          <path
             id="path14516"
             style="fill:#ffffff;fill-opacity:1;fill-rule:nonzero;stroke:none"
             d="M 0,0 0.404,-0.478 0.984,-0.241 0.655,-0.773 1.059,-1.251 0.451,-1.103 0.121,-1.635 0.075,-1.01 -0.533,-0.862 0.046,-0.625 0,0 Z" />
        </g>
        <g
           transform="translate(266.2915,954.8212)"
           id="g14518">
          <path
             id="path14520"
             style="fill:#ffffff;fill-opacity:1;fill-rule:nonzero;stroke:none"
             d="M 0,0 0.426,-0.459 0.994,-0.195 0.69,-0.742 1.116,-1.201 0.502,-1.081 0.197,-1.628 0.122,-1.006 -0.493,-0.885 0.075,-0.622 0,0 Z" />
        </g>
        <g
           transform="translate(271.60761,956.6691)"
           id="g14522">
          <path
             id="path14524"
             style="fill:#ffffff;fill-opacity:1;fill-rule:nonzero;stroke:none"
             d="m 0,0 0.366,-0.508 0.596,0.19 -0.37,-0.505 0.366,-0.508 -0.595,0.196 -0.37,-0.505 0.002,0.627 -0.594,0.196 0.596,0.191 L 0,0 Z" />
        </g>
        <g
           transform="translate(274.32941,957.4303)"
           id="g14526">
          <path
             id="path14528"
             style="fill:#ffffff;fill-opacity:1;fill-rule:nonzero;stroke:none"
             d="m 0,0 0.345,-0.523 0.604,0.167 -0.391,-0.49 0.345,-0.522 -0.586,0.22 -0.391,-0.49 0.028,0.626 -0.586,0.22 0.604,0.166 L 0,0 Z" />
        </g>
        <g
           transform="translate(270.84151,954.584)"
           id="g14530">
          <path
             id="path14532"
             style="fill:#ffffff;fill-opacity:1;fill-rule:nonzero;stroke:none"
             d="M 0,0 0.376,-0.501 0.968,-0.298 0.608,-0.811 0.984,-1.312 0.386,-1.127 0.025,-1.64 0.016,-1.013 -0.583,-0.829 0.01,-0.626 0,0 Z" />
        </g>
        <g
           transform="translate(268.0482,953.6212)"
           id="g14534">
          <path
             id="path14536"
             style="fill:#ffffff;fill-opacity:1;fill-rule:nonzero;stroke:none"
             d="M 0,0 0.426,-0.459 0.994,-0.195 0.69,-0.742 1.116,-1.201 0.501,-1.081 0.197,-1.628 0.122,-1.006 -0.493,-0.885 0.075,-0.622 0,0 Z" />
        </g>
        <g
           transform="translate(273.42799,955.535)"
           id="g14538">
          <path
             id="path14540"
             style="fill:#ffffff;fill-opacity:1;fill-rule:nonzero;stroke:none"
             d="m 0,0 0.34,-0.526 0.606,0.162 -0.395,-0.486 0.341,-0.526 -0.584,0.225 -0.395,-0.486 0.033,0.625 -0.584,0.225 0.605,0.161 L 0,0 Z" />
        </g>
        <g
           transform="translate(276.1917,956.18069)"
           id="g14542">
          <path
             id="path14544"
             style="fill:#ffffff;fill-opacity:1;fill-rule:nonzero;stroke:none"
             d="m 0,0 0.303,-0.548 0.615,0.119 -0.427,-0.457 0.303,-0.548 -0.567,0.265 -0.427,-0.458 0.076,0.621 -0.567,0.265 0.615,0.119 L 0,0 Z" />
        </g>
        <g
           transform="translate(272.5618,953.3967)"
           id="g14546">
          <path
             id="path14548"
             style="fill:#ffffff;fill-opacity:1;fill-rule:nonzero;stroke:none"
             d="m 0,0 0.354,-0.517 0.6,0.177 -0.382,-0.496 0.354,-0.517 -0.59,0.21 -0.382,-0.496 0.017,0.626 -0.589,0.21 0.6,0.177 L 0,0 Z" />
        </g>
        <g
           transform="translate(269.8208,952.5511)"
           id="g14550">
          <path
             id="path14552"
             style="fill:#ffffff;fill-opacity:1;fill-rule:nonzero;stroke:none"
             d="M 0,0 0.384,-0.495 0.973,-0.283 0.621,-0.801 1.005,-1.296 0.404,-1.121 0.052,-1.639 0.032,-1.013 -0.569,-0.838 0.02,-0.626 0,0 Z" />
        </g>
        <g
           transform="translate(275.239,954.22079)"
           id="g14554">
          <path
             id="path14556"
             style="fill:#ffffff;fill-opacity:1;fill-rule:nonzero;stroke:none"
             d="M 0,0 0.32,-0.538 0.931,-0.4 0.518,-0.871 0.839,-1.409 0.263,-1.162 -0.15,-1.633 l 0.057,0.624 -0.575,0.247 0.611,0.138 L 0,0 Z" />
        </g>
        <g
           transform="translate(277.8694,954.9409)"
           id="g14558">
          <path
             id="path14560"
             style="fill:#ffffff;fill-opacity:1;fill-rule:nonzero;stroke:none"
             d="M 0,0 0.304,-0.548 0.918,-0.429 0.491,-0.886 0.794,-1.434 0.227,-1.17 -0.2,-1.627 l 0.076,0.621 -0.567,0.265 0.615,0.119 L 0,0 Z" />
        </g>
        <g
           transform="translate(288.8335,952.71091)"
           id="g14562">
          <path
             id="path14564"
             style="fill:#ffffff;fill-opacity:1;fill-rule:evenodd;stroke:none"
             d="m 0,0 0.442,-0.122 0.15,0.109 0.11,0.64 -0.341,0.075 0,-0.157 L 0.416,0.504 0.402,0.368 0.347,0.368 0.292,0.123 0.012,0.009 0,0 Z m 4.298,-2.144 -0.212,0.034 -0.124,0.095 0.028,0.054 -0.055,0.218 0.014,0.136 -0.123,0.014 -0.069,0.232 -0.19,-0.101 0.204,-0.703 0.588,0 -0.068,0.014 0.007,0.007 z M 2.456,0.763 2.482,1.796 2.099,1.172 2.017,1.172 1.908,1.131 2.003,1.049 2.442,0.763 2.058,0.695 1.825,0.695 1.661,0.654 1.634,0.504 1.647,0.123 2.291,0.096 2.529,0.175 2.469,0.246 2.346,0.491 l 0,0.082 0.11,0.19 z M 2.168,2.207 2.054,2.37 0.566,2.37 0.416,2.22 0.416,2.07 0.457,1.853 0.566,1.689 0.551,1.616 0.565,1.676 2.482,1.798 2.483,1.853 2.414,1.921 2.305,2.139 2.168,2.207 Z M 4.849,1.219 4.792,1.2 5.064,1.018 5.145,1.232 4.849,1.219 Z M 4.285,2.407 4.184,2.382 4.182,2.37 4.182,2.261 4.168,2.07 4.099,1.785 3.98,1.626 4.205,1.713 5.817,1.726 5.978,1.806 5.964,1.873 5.951,2.273 5.8,2.416 4.401,2.416 4.285,2.407 Z m -6.274,-2.486 -0.002,0.003 -0.251,0.284 -0.011,0.254 0.032,0.114 0.062,0.135 -0.422,0 -0.11,0.032 0.407,-0.507 0.295,-0.315 z m -2.038,0.715 0.004,-0.023 0.228,-0.271 0,0.223 0,0.176 -0.232,-0.105 z m 3.096,1.037 0.004,0.002 0,10e-4 -0.041,0.122 0,0.177 0.055,0.354 -0.151,0.028 -0.068,0.095 -0.138,0.408 0.316,-0.013 0,0.068 0.054,0.054 0.042,1.743 0.086,-0.083 0.119,-0.121 0.288,-0.776 0.233,-0.885 2.309,0 L 2.36,2.983 2.346,3.16 2.327,3.372 2.344,3.531 1.702,2.996 1.675,3.282 2.319,3.868 2.401,4.045 2.456,4.209 2.414,4.345 l 0,0.122 0.042,0.137 0.123,0.177 0.096,0.095 0.013,0.068 0.069,0.068 0.151,0.055 0.205,0 L 3.278,5.026 3.456,4.903 4.113,5.461 4.264,5.448 4.291,5.298 3.483,4.604 3.497,4.481 3.483,4.29 3.456,4.032 3.497,4.099 3.675,4.072 3.62,3.991 3.606,3.868 3.689,3.786 3.812,3.732 3.962,3.636 4.168,3.432 4.25,3.255 4.291,2.874 4.288,2.861 6.489,2.875 7.092,4.824 7.241,2.888 7.456,2.888 7.321,2.394 7.2,2.354 7.2,1.726 7.791,1.699 7.697,1.793 7.63,1.966 l 0,0.174 0.014,0.254 0.147,0.12 0.148,0.013 0.215,-0.053 0.121,0 L 8.194,2.327 8.221,2.233 8.208,2.113 8.167,1.9 8.221,1.726 8.302,1.753 8.369,1.926 8.543,2.132 8.745,2.18 8.933,2.1 8.973,1.966 8.879,1.753 9.255,1.686 l 0.419,0 2.285,3.389 0,0.147 3.802,0 0.013,-0.187 -3.197,-3.429 0.712,-0.013 3.445,3.46 0,0.161 3.675,0.002 0.014,-0.2 -4.716,-3.717 -1.128,0 -0.027,-0.05 0.893,0.003 -0.074,-0.153 -1.504,-1.256 0,-1.882 -0.82,0 0,1.255 -0.215,-0.174 -2.203,0.013 1.787,1.816 -0.501,0.003 -1.581,-1.698 0,-1.229 -0.792,10e-4 0,1.094 -0.619,0 0.726,1.015 -0.094,0.013 -0.774,-1.028 -0.825,0 0.995,1.549 0.01,0.016 L 8.826,0.631 8.664,0.498 8.463,0.498 8.423,0.604 8.409,-0.063 7.872,-0.077 7.845,0.724 6.985,0.711 6.972,0.084 6.005,0.084 6.018,0.711 4.91,0.694 4.99,0.641 4.921,0.123 5.003,-0.19 5.017,-0.394 4.976,-0.667 4.839,-0.857 4.784,-0.885 4.305,-0.844 4.359,-1.007 4.291,-1.048 4.387,-1.293 4.346,-1.348 l 0.137,-0.054 0.068,-0.136 0,-0.164 0,-0.122 -0.068,-0.109 0.096,0.109 1.781,-0.409 0,0.082 0.164,-0.041 0.178,-0.095 0.261,0 0,-0.123 0.054,-0.014 -0.027,0.096 0.192,0 0,-0.109 0.109,-0.027 0,0.081 0.274,0 0.041,-0.149 0,0.068 0.206,-0.055 0,-0.082 0.671,-0.122 0,0.054 0.178,0 L 8.908,-2.723 9.031,-2.832 8.99,-3.036 8.921,-3.159 8.908,-3.417 8.634,-3.513 8.579,-3.513 7.798,-3.908 7.88,-3.949 7.976,-4.071 7.853,-4.139 7.785,-4.099 7.648,-4.017 7.62,-4.044 7.524,-4.031 7.483,-4.003 6.866,-4.33 l -0.082,0 0,-0.082 0,-0.095 -0.109,-0.068 0.109,0 0.179,-0.055 0.04,-0.122 -0.081,-0.15 -0.193,-0.15 -0.219,-0.082 -0.15,0.028 -0.137,0.218 -0.041,0.177 0,0.163 0.082,0.055 0,0.245 0.082,0.081 0.137,0.041 0.192,0.014 0.041,0.013 0.63,0.327 0,0.096 0.137,0.122 0.082,0 0.096,0.014 0.014,0.109 0.069,0.068 0.15,0.013 0.219,-0.081 0.247,0.299 0.082,0.055 L 8.429,-2.982 6.592,-2.628 6.565,-2.669 6.264,-2.628 6.278,-2.546 4.538,-2.2 4.537,-2.565 3.866,-2.56 4.305,-4.139 4.469,-4.739 4.593,-5.092 4.867,-5.406 5.318,-5.787 5.743,-6.155 6.031,-6.427 6.195,-6.618 6.264,-6.795 6.291,-7.517 4.086,-7.857 4.058,-8.443 3.346,-8.429 3.25,-9.301 3.168,-9.423 2.99,-9.314 2.908,-8.429 2.209,-8.443 l 0,0.6 -2.178,0.34 0.014,0.667 0.054,0.164 0.247,0.272 0.397,0.327 0.576,0.449 0.369,0.354 0.151,0.246 0.397,1.593 0.205,0.848 -0.67,-0.004 0.013,0.422 0.726,0 0.206,0.695 -0.014,0 -2.082,0.381 -0.726,0.014 -0.013,0.009 -0.452,-0.187 -0.015,0.031 0.031,0.311 -0.777,-0.005 -0.016,0.026 0.011,0.02 0.078,0.037 0.12,0.129 0.542,0 0,0.068 -0.161,0.264 -0.042,0 0,0.057 -0.162,0.275 -0.01,-0.047 0.021,-0.073 -0.031,-0.062 -0.032,-0.005 -0.005,-0.269 -0.073,0.005 -0.078,-0.047 -0.037,0.021 -0.021,0.031 0.042,0.119 0.042,-0.005 0.047,0.166 -0.063,0 0,0.083 0.063,0.005 0.041,0.103 -0.01,0.099 0.052,0.005 0,0.042 0.058,0 0.036,0.01 0.031,-0.052 0.005,-0.052 0.073,-0.119 0.047,0.01 0,-0.062 0.047,-0.031 0,-0.093 0.214,-0.321 0.037,0.026 0.046,-0.026 0.011,-0.161 -0.047,-0.016 0.12,-0.285 0.147,0.027 -0.123,0.089 -0.082,0.122 0,0.245 0.082,0.314 0.099,0.131 -0.097,0.018 -0.069,0.109 -0.11,0.082 -0.096,0.041 0.014,0.521 -0.415,0 0.005,-0.372 -0.02,-0.036 -0.136,0 -0.026,0.026 0.083,0.243 -0.004,0.139 -0.355,0 0.078,-0.217 -0.271,-0.813 -0.021,0 -0.17,0.058 0.401,-0.576 -0.012,-0.094 -1.582,-0.012 -0.047,-0.106 0,-0.716 -0.13,-0.269 -0.767,0 0.071,0.293 0.047,1.15 -1.248,1.219 -0.264,0.04 -0.051,0.017 -0.109,0.171 -0.473,-0.018 1.971,-1.761 -2.03,-0.023 -0.378,0.258 -0.012,-0.281 -0.082,-0.904 -0.095,-0.141 -0.815,0 0.095,0.282 0.13,1.584 -1.264,0.951 -0.106,0 0,0.153 0.898,0.035 0,0.281 -0.083,-0.011 -0.366,0.293 -1.134,0 -4.816,3.497 -0.012,0.224 3.671,0 0,-0.13 3.885,-3.497 0.615,0.012 -3.441,3.395 0,0.22 3.743,0 0,-0.174 2.562,-3.403 0.015,-0.042 -0.004,0.031 0.214,-0.047 0.307,0.088 0.73,-0.005 0.141,0.124 0.308,-0.124 0.406,0.01 0.003,-0.007 z" />
        </g>
        <g
           transform="translate(246.03439,923.8689)"
           id="g14566">
          <path
             id="path14568"
             style="fill:#fe0000;fill-opacity:1;fill-rule:nonzero;stroke:none"
             d="m 0,0 c 0,-16.87 10.882,-31.036 32.895,-34.977 3.415,-0.612 7.151,-1.034 9.143,2.613 -1.431,-0.864 -4.095,-1.291 -9.166,-0.498 -18.453,2.886 -32.757,16.437 -32.757,32.85 L 0,0 Z" />
        </g>
        <g
           transform="translate(289.47971,893.12131)"
           id="g14570">
          <path
             id="path14572"
             style="fill:#0099ff;fill-opacity:1;fill-rule:nonzero;stroke:none"
             d="m 0,0 c -1.328,-0.833 -3.963,-1.217 -9.436,-0.361 -18.453,2.886 -33.779,14.696 -33.779,31.109 l -0.115,-0.013 c 0,-16.413 14.303,-29.964 32.756,-32.85 7.754,-1.212 9.88,0.428 10.576,2.12" />
        </g>
        <g
           transform="translate(246.2644,923.8689)"
           id="g14574">
          <path
             id="path14576"
             style="fill:#ffffff;fill-opacity:1;fill-rule:nonzero;stroke:none"
             d="m 0,0 c 0,-16.413 15.326,-28.222 33.78,-31.109 8.366,-1.308 10.102,0.283 10.671,1.94 l -10e-4,-0.002 c -1.332,-0.724 -4.08,-1.046 -9.717,-0.165 C 16.28,-26.45 0.119,-16.413 0.119,0 L 0,0 Z" />
        </g>
        <g
           transform="translate(291.94701,890.90781)"
           id="g14578">
          <path
             id="path14580"
             style="fill:#919191;fill-opacity:1;fill-rule:nonzero;stroke:none"
             d="m 0,0 c -4.36,-3.82 -11.324,-2.284 -11.324,-2.284 l -1.694,0.268 c 3.979,-0.712 8.55,-1.091 9.977,4.767 L 0,0 Z" />
        </g>
        <g
           transform="translate(283.8531,888.4922)"
           id="g14582">
          <path
             id="path14584"
             style="fill:#000070;fill-opacity:1;fill-rule:nonzero;stroke:none"
             d="M 0,0 C 0,-0.097 0.009,-0.188 0.026,-0.289 3.254,-0.296 5.499,0.784 7.531,2.866 L 7.324,3.068 C 5.349,1.043 3.159,-0.009 0,0" />
        </g>
        <g
           transform="translate(280.3705,888.67261)"
           id="g14586">
          <path
             id="path14588"
             style="fill:#000070;fill-opacity:1;fill-rule:nonzero;stroke:none"
             d="m 0,0 c -0.374,0.059 -0.302,0.048 -0.302,0.048 0.001,0 0.002,0 0.003,-0.001 L 0.255,-0.04 c 0.027,-0.006 0.768,-0.193 3.307,-0.435 2.428,0.012 5.705,0.5 8.144,2.636 L 11.481,2.344 C 9.164,0.314 6.074,-0.21 3.725,-0.233 5.933,0.149 7.906,1.495 8.819,4.911 L 8.54,4.985 C 7.199,-0.035 3.736,-0.515 0,0" />
        </g>
        <g
           transform="translate(337.603,923.8627)"
           id="g14590">
          <path
             id="path14592"
             style="fill:#fe0000;fill-opacity:1;fill-rule:nonzero;stroke:none"
             d="m 0,0 c 0,-15.026 -13.361,-27.243 -34.271,-30.495 -3.583,-0.557 -8.798,-0.399 -12.014,2.862 l 0.629,0.645 c 2.006,-1.954 7.353,-2.897 10.95,-2.341 18.459,2.849 34.614,12.922 34.614,29.335" />
        </g>
        <g
           transform="translate(337.68179,923.8689)"
           id="g14594">
          <path
             id="path14596"
             style="fill:#ffffff;fill-opacity:1;fill-rule:nonzero;stroke:none"
             d="m 0,0 c 0,-15.585 -12.956,-28.184 -33.934,-31.608 -3.694,-0.603 -9.67,-0.323 -13.057,3.326 l 0.627,0.643 c 3.216,-3.261 8.431,-3.419 12.014,-2.862 20.911,3.252 34.271,15.475 34.271,30.501" />
        </g>
        <g
           transform="translate(337.7719,923.8689)"
           id="g14598">
          <path
             id="path14600"
             style="fill:#fe0000;fill-opacity:1;fill-rule:nonzero;stroke:none"
             d="m 0,0 c 0,-16.123 -12.569,-29.117 -33.613,-32.716 -3.802,-0.65 -9.948,-0.3 -14.098,3.788 l 0.629,0.646 c 3.388,-3.649 9.364,-3.929 13.058,-3.326 C -13.047,-28.184 -0.09,-15.585 -0.09,0" />
        </g>
        <g
           transform="translate(337.8597,923.8689)"
           id="g14602">
          <path
             id="path14604"
             style="fill:#ffffff;fill-opacity:1;fill-rule:nonzero;stroke:none"
             d="m 0,0 c 0,-16.62 -12.053,-30.054 -33.287,-33.827 -3.904,-0.693 -9.787,-1.032 -15.138,4.256 l 0.627,0.643 c 4.149,-4.088 10.295,-4.438 14.097,-3.788 21.044,3.599 33.613,16.593 33.613,32.716" />
        </g>
        <g
           transform="translate(337.8597,923.8689)"
           id="g14606">
          <path
             id="path14608"
             style="fill:#fe0000;fill-opacity:1;fill-rule:nonzero;stroke:none"
             d="m 0,0 c 0,-16.62 -12.053,-30.054 -33.287,-33.827 -3.904,-0.693 -9.787,-1.032 -15.138,4.256 l -0.532,-0.636 c 4.888,-5.884 12.096,-5.483 16.075,-4.77 C -10.87,-31.036 0,-16.87 0,0" />
        </g>
      </g>
    </g>
  </g>
</svg>
