<?xml version="1.0" encoding="UTF-8"?>
<svg width="267pt" version="1.1" xmlns="http://www.w3.org/2000/svg" height="234pt" viewBox="0 0 267 234" xmlns:xlink="http://www.w3.org/1999/xlink">
 <defs>
  <clipPath id="Clip0">
   <path d="M0 0 L267 0 L267 234 L0 234 L0 0 Z" transform="translate(0, 0)"/>
  </clipPath>
 </defs>
 <g id="Background">
  <g id="Group1" clip-path="url(#Clip0)">
   <path style="fill:#000000; fill-rule:evenodd;stroke:none;" d="M2.0849 0 C0.7802 1.365 0 3.075 0 4.598 C0 5.49 0.2177 6.42 0.5849 7.066 L0.997 7.066 C0.7197 6.346 0.5849 5.641 0.5849 4.875 C0.5849 3.21 1.2373 1.545 2.497 0 L2.0849 0 Z" transform="translate(56.0977, 170.032)"/>
   <path style="fill:#000000; fill-rule:evenodd;stroke:none;" d="M4.6269 1.696 C4.6718 1.486 4.6875 1.388 4.6875 1.276 C4.6875 0.953 4.5293 0.608 4.2822 0.39 C3.9746 0.12 3.5771 0 2.9922 0 C2.2197 0 1.6123 0.218 1.207 0.638 C0.8994 0.953 0.667 1.486 0.667 1.868 C0.667 2.34 0.997 2.738 1.5 2.88 L2.7822 3.241 C3.3818 3.413 3.6299 3.63 3.6299 3.991 C3.6299 4.223 3.4873 4.508 3.2773 4.703 C2.9697 4.981 2.5273 5.123 1.9267 5.123 C1.0791 5.123 0.6894 4.808 0.6894 4.125 C0.6894 4.028 0.6972 3.96 0.7197 3.818 L0.0674 3.818 C0.0146 4.013 0 4.133 0 4.29 C0 5.191 0.6748 5.731 1.8066 5.731 C2.5947 5.731 3.2549 5.513 3.6972 5.101 C4.0791 4.748 4.3496 4.201 4.3496 3.781 C4.3496 3.585 4.2822 3.375 4.1699 3.196 C4.0049 2.933 3.7871 2.783 3.4345 2.686 L2.1445 2.318 C1.5674 2.153 1.3867 2.003 1.3867 1.673 C1.3867 1.411 1.5 1.178 1.7168 0.976 C1.9941 0.728 2.3623 0.608 2.8574 0.608 C3.2773 0.608 3.5918 0.691 3.7568 0.84 C3.8994 0.968 3.997 1.208 3.997 1.425 C3.997 1.493 3.9892 1.545 3.9668 1.696 L4.6269 1.696 Z" transform="translate(58.418, 169.942)"/>
   <path style="fill:#000000; fill-rule:evenodd;stroke:none;" d="M0.4131 7.066 C0.8847 6.571 1.3281 5.978 1.6728 5.356 C2.2275 4.358 2.4902 3.406 2.4902 2.415 C2.4902 1.568 2.2656 0.623 1.9131 0 L1.5 0 C1.7851 0.728 1.9131 1.433 1.9131 2.236 C1.9131 3.856 1.2451 5.543 0 7.066 L0.4131 7.066 Z" transform="translate(62.6973, 170.032)"/>
   <path style="fill:#000000; fill-rule:evenodd;stroke:none;" d="M2.0849 0 C0.7802 1.365 0 3.075 0 4.598 C0 5.49 0.2177 6.42 0.5849 7.066 L0.997 7.066 C0.7197 6.346 0.5849 5.641 0.5849 4.875 C0.5849 3.21 1.2373 1.545 2.497 0 L2.0849 0 Z" transform="translate(56.0977, 170.032)"/>
   <path style="fill:#000000; fill-rule:evenodd;stroke:none;" d="M4.6269 1.696 C4.6718 1.486 4.6875 1.388 4.6875 1.276 C4.6875 0.953 4.5293 0.608 4.2822 0.39 C3.9746 0.12 3.5771 0 2.9922 0 C2.2197 0 1.6123 0.218 1.207 0.638 C0.8994 0.953 0.667 1.486 0.667 1.868 C0.667 2.34 0.997 2.738 1.5 2.88 L2.7822 3.241 C3.3818 3.413 3.6299 3.63 3.6299 3.991 C3.6299 4.223 3.4873 4.508 3.2773 4.703 C2.9697 4.981 2.5273 5.123 1.9267 5.123 C1.0791 5.123 0.6894 4.808 0.6894 4.125 C0.6894 4.028 0.6972 3.96 0.7197 3.818 L0.0674 3.818 C0.0146 4.013 0 4.133 0 4.29 C0 5.191 0.6748 5.731 1.8066 5.731 C2.5947 5.731 3.2549 5.513 3.6972 5.101 C4.0791 4.748 4.3496 4.201 4.3496 3.781 C4.3496 3.585 4.2822 3.375 4.1699 3.196 C4.0049 2.933 3.7871 2.783 3.4345 2.686 L2.1445 2.318 C1.5674 2.153 1.3867 2.003 1.3867 1.673 C1.3867 1.411 1.5 1.178 1.7168 0.976 C1.9941 0.728 2.3623 0.608 2.8574 0.608 C3.2773 0.608 3.5918 0.691 3.7568 0.84 C3.8994 0.968 3.997 1.208 3.997 1.425 C3.997 1.493 3.9892 1.545 3.9668 1.696 L4.6269 1.696 Z" transform="translate(58.418, 169.942)"/>
   <path style="fill:#000000; fill-rule:evenodd;stroke:none;" d="M0.4131 7.066 C0.8847 6.571 1.3281 5.978 1.6728 5.356 C2.2275 4.358 2.4902 3.406 2.4902 2.415 C2.4902 1.568 2.2656 0.623 1.9131 0 L1.5 0 C1.7851 0.728 1.9131 1.433 1.9131 2.236 C1.9131 3.856 1.2451 5.543 0 7.066 L0.4131 7.066 Z" transform="translate(62.6973, 170.032)"/>
   <path style="fill:#000000; fill-rule:evenodd;stroke:none;" d="M3.5097 0 C1.4199 0 0 1.54 0 3.82 C0 6.1 1.4199 7.64 3.5205 7.64 C4.4004 7.64 5.1904 7.37 5.7803 6.87 C6.5703 6.2 7.04 5.07 7.04 3.88 C7.04 1.53 5.6504 0 3.5097 0 Z M3.5097 0.82 C5.0898 0.82 6.1103 2.02 6.1103 3.86 C6.1103 5.62 5.0605 6.82 3.5205 6.82 C1.9697 6.82 0.9297 5.62 0.9297 3.82 C0.9297 2.02 1.9697 0.82 3.5097 0.82 Z" transform="translate(65.3799, 136.09)"/>
   <path style="fill:#000000; fill-rule:nonzero;stroke:none;" d="M2.25 0 L3.25 0 L5.7002 23.8 L2.75 24.3 L0 22.25 L2.25 0 Z" transform="translate(65.7998, 145.7)"/>
   <path style="fill:#000000; fill-rule:evenodd;stroke:none;" d="M2.0849 0 C0.7802 1.365 0 3.075 0 4.598 C0 5.49 0.2177 6.42 0.5849 7.066 L0.997 7.066 C0.7197 6.346 0.5849 5.641 0.5849 4.875 C0.5849 3.21 1.2373 1.545 2.497 0 L2.0849 0 Z" transform="translate(65.5977, 111.782)"/>
   <path style="fill:#000000; fill-rule:evenodd;stroke:none;" d="M1.208 3.113 L3 3.113 C3.4873 3.113 3.7578 3.308 3.7578 3.675 C3.7578 3.803 3.7353 3.96 3.6972 4.125 C3.5175 4.875 3.5175 4.875 3.5175 5.115 C3.5175 5.228 3.5254 5.311 3.5478 5.468 L4.3955 5.468 L4.4326 5.295 C4.3349 5.205 4.2754 5.063 4.2754 4.898 C4.2754 4.808 4.29 4.681 4.3203 4.523 C4.4179 4.013 4.4775 3.623 4.4775 3.488 C4.4775 3.158 4.3798 3 4.0273 2.768 C4.3203 2.603 4.4404 2.521 4.5752 2.401 C4.875 2.123 5.0781 1.62 5.0781 1.156 C5.0781 0.361 4.6425 0 3.6826 0 L1.1631 0 L0 5.468 L0.705 5.468 L1.208 3.113 Z M1.3349 2.498 L1.7402 0.615 L3.4648 0.615 C3.8623 0.615 4.0576 0.668 4.2002 0.825 C4.2978 0.931 4.3574 1.103 4.3574 1.283 C4.3574 1.561 4.2451 1.891 4.08 2.101 C3.8623 2.37 3.5478 2.498 3.0673 2.498 L1.3349 2.498 Z" transform="translate(67.9473, 111.782)"/>
   <path style="fill:#000000; fill-rule:evenodd;stroke:none;" d="M0.4131 7.066 C0.8847 6.571 1.3281 5.978 1.6728 5.356 C2.2275 4.358 2.4902 3.406 2.4902 2.415 C2.4902 1.568 2.2656 0.623 1.9131 0 L1.5 0 C1.7851 0.728 1.9131 1.433 1.9131 2.236 C1.9131 3.856 1.2451 5.543 0 7.066 L0.4131 7.066 Z" transform="translate(72.6973, 111.782)"/>
   <path style="fill:#000000; fill-rule:evenodd;stroke:none;" d="M2.0849 0 C0.7802 1.365 0 3.075 0 4.598 C0 5.49 0.2177 6.42 0.5849 7.066 L0.997 7.066 C0.7197 6.346 0.5849 5.641 0.5849 4.875 C0.5849 3.21 1.2373 1.545 2.497 0 L2.0849 0 Z" transform="translate(65.5977, 111.782)"/>
   <path style="fill:#000000; fill-rule:evenodd;stroke:none;" d="M1.208 3.113 L3 3.113 C3.4873 3.113 3.7578 3.308 3.7578 3.675 C3.7578 3.803 3.7353 3.96 3.6972 4.125 C3.5175 4.875 3.5175 4.875 3.5175 5.115 C3.5175 5.228 3.5254 5.311 3.5478 5.468 L4.3955 5.468 L4.4326 5.295 C4.3349 5.205 4.2754 5.063 4.2754 4.898 C4.2754 4.808 4.29 4.681 4.3203 4.523 C4.4179 4.013 4.4775 3.623 4.4775 3.488 C4.4775 3.158 4.3798 3 4.0273 2.768 C4.3203 2.603 4.4404 2.521 4.5752 2.401 C4.875 2.123 5.0781 1.62 5.0781 1.156 C5.0781 0.361 4.6425 0 3.6826 0 L1.1631 0 L0 5.468 L0.705 5.468 L1.208 3.113 Z M1.3349 2.498 L1.7402 0.615 L3.4648 0.615 C3.8623 0.615 4.0576 0.668 4.2002 0.825 C4.2978 0.931 4.3574 1.103 4.3574 1.283 C4.3574 1.561 4.2451 1.891 4.08 2.101 C3.8623 2.37 3.5478 2.498 3.0673 2.498 L1.3349 2.498 Z" transform="translate(67.9473, 111.782)"/>
   <path style="fill:#000000; fill-rule:evenodd;stroke:none;" d="M0.4131 7.066 C0.8847 6.571 1.3281 5.978 1.6728 5.356 C2.2275 4.358 2.4902 3.406 2.4902 2.415 C2.4902 1.568 2.2656 0.623 1.9131 0 L1.5 0 C1.7851 0.728 1.9131 1.433 1.9131 2.236 C1.9131 3.856 1.2451 5.543 0 7.066 L0.4131 7.066 Z" transform="translate(72.6973, 111.782)"/>
   <path style="fill:#000000; fill-rule:nonzero;stroke:none;" d="M0 0.3 L0.9502 0 L1.3994 0.9 L0.2002 1.3 L0 0.3 Z" transform="translate(60.7002, 117.2)"/>
   <path style="fill:#000000; fill-rule:nonzero;stroke:none;" d="M0 0.55 L1.7002 0 L2.1494 0.95 L0.2002 1.55 L0 0.55 Z" transform="translate(61.2002, 119.75)"/>
   <path style="fill:#000000; fill-rule:nonzero;stroke:none;" d="M0 0.8 L2.4502 0 L2.8994 0.9 L0.2002 1.75 L0 0.8 Z" transform="translate(61.7002, 122.35)"/>
   <path style="fill:#000000; fill-rule:nonzero;stroke:none;" d="M0 1.05 L3.2002 0 L3.6494 0.9 L0.2002 2.05 L0 1.05 Z" transform="translate(62.2002, 124.9)"/>
   <path style="fill:#000000; fill-rule:nonzero;stroke:none;" d="M0 1.3 L3.9502 0 L4.3994 0.9 L0.2002 2.3 L0 1.3 Z" transform="translate(62.7002, 127.45)"/>
   <path style="fill:#000000; fill-rule:nonzero;stroke:none;" d="M0 1.55 L4.7002 0 L5.1494 0.9 L0.2002 2.55 L0 1.55 Z" transform="translate(63.2002, 130)"/>
   <path style="fill:#000000; fill-rule:nonzero;stroke:none;" d="M0 1.8 L5.4502 0 L5.8994 0.95 L0.2002 2.8 L0 1.8 Z" transform="translate(63.7002, 132.55)"/>
   <path style="fill:#000000; fill-rule:evenodd;stroke:none;" d="M2.0849 0 C0.7802 1.3653 0 3.0752 0 4.5977 C0 5.4903 0.2177 6.4199 0.5849 7.0655 L0.997 7.0655 C0.7197 6.3457 0.5849 5.6407 0.5849 4.875 C0.5849 3.21 1.2373 1.5449 2.497 0 L2.0849 0 Z" transform="translate(72.3477, 85.7822)"/>
   <path style="fill:#000000; fill-rule:evenodd;stroke:none;" d="M1.208 3.1123 L3 3.1123 C3.4873 3.1123 3.7578 3.3076 3.7578 3.6748 C3.7578 3.8028 3.7353 3.96 3.6972 4.125 C3.5175 4.875 3.5175 4.875 3.5175 5.1153 C3.5175 5.2276 3.5254 5.3106 3.5478 5.4678 L4.3955 5.4678 L4.4326 5.2949 C4.3349 5.2051 4.2754 5.0625 4.2754 4.8975 C4.2754 4.8076 4.29 4.6807 4.3203 4.5225 C4.4179 4.0127 4.4775 3.6231 4.4775 3.4873 C4.4775 3.1582 4.3798 3 4.0273 2.7676 C4.3203 2.6026 4.4404 2.5205 4.5752 2.4004 C4.875 2.1231 5.0781 1.6201 5.0781 1.1553 C5.0781 0.3604 4.6425 0 3.6826 0 L1.1631 0 L0 5.4678 L0.705 5.4678 L1.208 3.1123 Z M1.3349 2.4981 L1.7402 0.6153 L3.4648 0.6153 C3.8623 0.6153 4.0576 0.668 4.2002 0.8252 C4.2978 0.9307 4.3574 1.1026 4.3574 1.2832 C4.3574 1.5606 4.2451 1.8907 4.08 2.1006 C3.8623 2.3701 3.5478 2.4981 3.0673 2.4981 L1.3349 2.4981 Z" transform="translate(74.6973, 85.7822)"/>
   <path style="fill:#000000; fill-rule:evenodd;stroke:none;" d="M0.4131 7.0655 C0.8847 6.5703 1.3281 5.9776 1.6728 5.3555 C2.2275 4.3574 2.4902 3.4053 2.4902 2.4151 C2.4902 1.5674 2.2656 0.6231 1.9131 0 L1.5 0 C1.7851 0.7276 1.9131 1.4326 1.9131 2.2354 C1.9131 3.8555 1.2451 5.543 0 7.0655 L0.4131 7.0655 Z" transform="translate(79.4473, 85.7822)"/>
   <path style="fill:#000000; fill-rule:evenodd;stroke:none;" d="M2.0849 0 C0.7802 1.3653 0 3.0752 0 4.5977 C0 5.4903 0.2177 6.4199 0.5849 7.0655 L0.997 7.0655 C0.7197 6.3457 0.5849 5.6407 0.5849 4.875 C0.5849 3.21 1.2373 1.5449 2.497 0 L2.0849 0 Z" transform="translate(72.3477, 85.7822)"/>
   <path style="fill:#000000; fill-rule:evenodd;stroke:none;" d="M1.208 3.1123 L3 3.1123 C3.4873 3.1123 3.7578 3.3076 3.7578 3.6748 C3.7578 3.8028 3.7353 3.96 3.6972 4.125 C3.5175 4.875 3.5175 4.875 3.5175 5.1153 C3.5175 5.2276 3.5254 5.3106 3.5478 5.4678 L4.3955 5.4678 L4.4326 5.2949 C4.3349 5.2051 4.2754 5.0625 4.2754 4.8975 C4.2754 4.8076 4.29 4.6807 4.3203 4.5225 C4.4179 4.0127 4.4775 3.6231 4.4775 3.4873 C4.4775 3.1582 4.3798 3 4.0273 2.7676 C4.3203 2.6026 4.4404 2.5205 4.5752 2.4004 C4.875 2.1231 5.0781 1.6201 5.0781 1.1553 C5.0781 0.3604 4.6425 0 3.6826 0 L1.1631 0 L0 5.4678 L0.705 5.4678 L1.208 3.1123 Z M1.3349 2.4981 L1.7402 0.6153 L3.4648 0.6153 C3.8623 0.6153 4.0576 0.668 4.2002 0.8252 C4.2978 0.9307 4.3574 1.1026 4.3574 1.2832 C4.3574 1.5606 4.2451 1.8907 4.08 2.1006 C3.8623 2.3701 3.5478 2.4981 3.0673 2.4981 L1.3349 2.4981 Z" transform="translate(74.6973, 85.7822)"/>
   <path style="fill:#000000; fill-rule:evenodd;stroke:none;" d="M0.4131 7.0655 C0.8847 6.5703 1.3281 5.9776 1.6728 5.3555 C2.2275 4.3574 2.4902 3.4053 2.4902 2.4151 C2.4902 1.5674 2.2656 0.6231 1.9131 0 L1.5 0 C1.7851 0.7276 1.9131 1.4326 1.9131 2.2354 C1.9131 3.8555 1.2451 5.543 0 7.0655 L0.4131 7.0655 Z" transform="translate(79.4473, 85.7822)"/>
   <path style="fill:#000000; fill-rule:evenodd;stroke:none;" d="M3.5097 0 C1.4199 0 0 1.5401 0 3.8204 C0 6.1006 1.4199 7.6407 3.5205 7.6407 C4.4004 7.6407 5.1904 7.3702 5.7803 6.8702 C6.5703 6.2002 7.04 5.0704 7.04 3.8799 C7.04 1.5303 5.6504 0 3.5097 0 Z M3.5097 0.8204 C5.0898 0.8204 6.1103 2.0206 6.1103 3.8604 C6.1103 5.6202 5.0605 6.8204 3.5205 6.8204 C1.9697 6.8204 0.9297 5.6202 0.9297 3.8204 C0.9297 2.0206 1.9697 0.8204 3.5097 0.8204 Z" transform="translate(39.8799, 65.5898)"/>
   <path style="fill:#000000; fill-rule:evenodd;stroke:none;" d="M2.08494 0 C0.78024 1.3653 0 3.0752 0 4.5977 C0 5.4903 0.21777 6.4199 0.58496 7.0655 L0.99704 7.0655 C0.71974 6.3457 0.58496 5.6407 0.58496 4.875 C0.58496 3.21 1.23734 1.5449 2.49704 0 L2.08494 0 Z" transform="translate(9.34766, 80.2822)"/>
   <path style="fill:#000000; fill-rule:evenodd;stroke:none;" d="M4.6269 1.6953 C4.6718 1.4853 4.6875 1.3877 4.6875 1.2754 C4.6875 0.9521 4.5293 0.6074 4.2822 0.3896 C3.9746 0.1201 3.5771 0 2.9922 0 C2.2197 0 1.6123 0.2178 1.207 0.6377 C0.8994 0.9521 0.667 1.4853 0.667 1.8672 C0.667 2.3398 0.997 2.7373 1.5 2.8799 L2.7822 3.2402 C3.3818 3.4131 3.6299 3.6299 3.6299 3.9902 C3.6299 4.2226 3.4873 4.5078 3.2773 4.7021 C2.9697 4.9805 2.5273 5.123 1.9267 5.123 C1.0791 5.123 0.6894 4.8076 0.6894 4.125 C0.6894 4.0273 0.6972 3.9599 0.7197 3.8174 L0.0674 3.8174 C0.0146 4.0127 0 4.1328 0 4.29 C0 5.1904 0.6748 5.7305 1.8066 5.7305 C2.5947 5.7305 3.2549 5.5127 3.6972 5.1006 C4.0791 4.748 4.3496 4.2002 4.3496 3.7803 C4.3496 3.5849 4.2822 3.375 4.1699 3.1953 C4.0049 2.9326 3.7871 2.7822 3.4345 2.6855 L2.1445 2.3174 C1.5674 2.1523 1.3867 2.0029 1.3867 1.6728 C1.3867 1.4101 1.5 1.1777 1.7168 0.9756 C1.9941 0.7275 2.3623 0.6074 2.8574 0.6074 C3.2773 0.6074 3.5918 0.6904 3.7568 0.8398 C3.8994 0.9678 3.997 1.208 3.997 1.4248 C3.997 1.4922 3.9892 1.5449 3.9668 1.6953 L4.6269 1.6953 Z" transform="translate(11.668, 80.1924)"/>
   <path style="fill:#000000; fill-rule:evenodd;stroke:none;" d="M0.4131 7.0655 C0.8847 6.5703 1.3281 5.9776 1.6728 5.3555 C2.2275 4.3574 2.4902 3.4053 2.4902 2.4151 C2.4902 1.5674 2.2656 0.6231 1.9131 0 L1.5 0 C1.7851 0.7276 1.9131 1.4326 1.9131 2.2354 C1.9131 3.8555 1.2451 5.543 0 7.0655 L0.4131 7.0655 Z" transform="translate(15.9473, 80.2822)"/>
   <path style="fill:#000000; fill-rule:evenodd;stroke:none;" d="M2.08494 0 C0.78024 1.3653 0 3.0752 0 4.5977 C0 5.4903 0.21777 6.4199 0.58496 7.0655 L0.99704 7.0655 C0.71974 6.3457 0.58496 5.6407 0.58496 4.875 C0.58496 3.21 1.23734 1.5449 2.49704 0 L2.08494 0 Z" transform="translate(9.34766, 80.2822)"/>
   <path style="fill:#000000; fill-rule:evenodd;stroke:none;" d="M4.6269 1.6953 C4.6718 1.4853 4.6875 1.3877 4.6875 1.2754 C4.6875 0.9521 4.5293 0.6074 4.2822 0.3896 C3.9746 0.1201 3.5771 0 2.9922 0 C2.2197 0 1.6123 0.2178 1.207 0.6377 C0.8994 0.9521 0.667 1.4853 0.667 1.8672 C0.667 2.3398 0.997 2.7373 1.5 2.8799 L2.7822 3.2402 C3.3818 3.4131 3.6299 3.6299 3.6299 3.9902 C3.6299 4.2226 3.4873 4.5078 3.2773 4.7021 C2.9697 4.9805 2.5273 5.123 1.9267 5.123 C1.0791 5.123 0.6894 4.8076 0.6894 4.125 C0.6894 4.0273 0.6972 3.9599 0.7197 3.8174 L0.0674 3.8174 C0.0146 4.0127 0 4.1328 0 4.29 C0 5.1904 0.6748 5.7305 1.8066 5.7305 C2.5947 5.7305 3.2549 5.5127 3.6972 5.1006 C4.0791 4.748 4.3496 4.2002 4.3496 3.7803 C4.3496 3.5849 4.2822 3.375 4.1699 3.1953 C4.0049 2.9326 3.7871 2.7822 3.4345 2.6855 L2.1445 2.3174 C1.5674 2.1523 1.3867 2.0029 1.3867 1.6728 C1.3867 1.4101 1.5 1.1777 1.7168 0.9756 C1.9941 0.7275 2.3623 0.6074 2.8574 0.6074 C3.2773 0.6074 3.5918 0.6904 3.7568 0.8398 C3.8994 0.9678 3.997 1.208 3.997 1.4248 C3.997 1.4922 3.9892 1.5449 3.9668 1.6953 L4.6269 1.6953 Z" transform="translate(11.668, 80.1924)"/>
   <path style="fill:#000000; fill-rule:evenodd;stroke:none;" d="M0.4131 7.0655 C0.8847 6.5703 1.3281 5.9776 1.6728 5.3555 C2.2275 4.3574 2.4902 3.4053 2.4902 2.4151 C2.4902 1.5674 2.2656 0.6231 1.9131 0 L1.5 0 C1.7851 0.7276 1.9131 1.4326 1.9131 2.2354 C1.9131 3.8555 1.2451 5.543 0 7.0655 L0.4131 7.0655 Z" transform="translate(15.9473, 80.2822)"/>
   <path style="fill:#000000; fill-rule:evenodd;stroke:none;" d="M2.0849 0 C0.7802 1.365 0 3.075 0 4.598 C0 5.49 0.2177 6.42 0.5849 7.066 L0.997 7.066 C0.7197 6.346 0.5849 5.641 0.5849 4.875 C0.5849 3.21 1.2373 1.545 2.497 0 L2.0849 0 Z" transform="translate(16.3477, 114.032)"/>
   <path style="fill:#000000; fill-rule:evenodd;stroke:none;" d="M1.208 3.113 L3 3.113 C3.4873 3.113 3.7578 3.308 3.7578 3.675 C3.7578 3.803 3.7353 3.96 3.6972 4.125 C3.5175 4.875 3.5175 4.875 3.5175 5.115 C3.5175 5.228 3.5254 5.311 3.5478 5.468 L4.3955 5.468 L4.4326 5.295 C4.3349 5.205 4.2754 5.063 4.2754 4.898 C4.2754 4.808 4.29 4.681 4.3203 4.523 C4.4179 4.013 4.4775 3.623 4.4775 3.488 C4.4775 3.158 4.3798 3 4.0273 2.768 C4.3203 2.603 4.4404 2.521 4.5752 2.401 C4.875 2.123 5.0781 1.62 5.0781 1.156 C5.0781 0.361 4.6425 0 3.6826 0 L1.1631 0 L0 5.468 L0.705 5.468 L1.208 3.113 Z M1.3349 2.498 L1.7402 0.615 L3.4648 0.615 C3.8623 0.615 4.0576 0.668 4.2002 0.825 C4.2978 0.931 4.3574 1.103 4.3574 1.283 C4.3574 1.561 4.2451 1.891 4.08 2.101 C3.8623 2.37 3.5478 2.498 3.0673 2.498 L1.3349 2.498 Z" transform="translate(18.6973, 114.032)"/>
   <path style="fill:#000000; fill-rule:evenodd;stroke:none;" d="M0.4131 7.066 C0.8847 6.571 1.3281 5.978 1.6728 5.356 C2.2275 4.358 2.4902 3.406 2.4902 2.415 C2.4902 1.568 2.2656 0.623 1.9131 0 L1.5 0 C1.7851 0.728 1.9131 1.433 1.9131 2.236 C1.9131 3.856 1.2451 5.543 0 7.066 L0.4131 7.066 Z" transform="translate(23.4473, 114.032)"/>
   <path style="fill:#000000; fill-rule:evenodd;stroke:none;" d="M2.0849 0 C0.7802 1.365 0 3.075 0 4.598 C0 5.49 0.2177 6.42 0.5849 7.066 L0.997 7.066 C0.7197 6.346 0.5849 5.641 0.5849 4.875 C0.5849 3.21 1.2373 1.545 2.497 0 L2.0849 0 Z" transform="translate(16.3477, 114.032)"/>
   <path style="fill:#000000; fill-rule:evenodd;stroke:none;" d="M1.208 3.113 L3 3.113 C3.4873 3.113 3.7578 3.308 3.7578 3.675 C3.7578 3.803 3.7353 3.96 3.6972 4.125 C3.5175 4.875 3.5175 4.875 3.5175 5.115 C3.5175 5.228 3.5254 5.311 3.5478 5.468 L4.3955 5.468 L4.4326 5.295 C4.3349 5.205 4.2754 5.063 4.2754 4.898 C4.2754 4.808 4.29 4.681 4.3203 4.523 C4.4179 4.013 4.4775 3.623 4.4775 3.488 C4.4775 3.158 4.3798 3 4.0273 2.768 C4.3203 2.603 4.4404 2.521 4.5752 2.401 C4.875 2.123 5.0781 1.62 5.0781 1.156 C5.0781 0.361 4.6425 0 3.6826 0 L1.1631 0 L0 5.468 L0.705 5.468 L1.208 3.113 Z M1.3349 2.498 L1.7402 0.615 L3.4648 0.615 C3.8623 0.615 4.0576 0.668 4.2002 0.825 C4.2978 0.931 4.3574 1.103 4.3574 1.283 C4.3574 1.561 4.2451 1.891 4.08 2.101 C3.8623 2.37 3.5478 2.498 3.0673 2.498 L1.3349 2.498 Z" transform="translate(18.6973, 114.032)"/>
   <path style="fill:#000000; fill-rule:evenodd;stroke:none;" d="M0.4131 7.066 C0.8847 6.571 1.3281 5.978 1.6728 5.356 C2.2275 4.358 2.4902 3.406 2.4902 2.415 C2.4902 1.568 2.2656 0.623 1.9131 0 L1.5 0 C1.7851 0.728 1.9131 1.433 1.9131 2.236 C1.9131 3.856 1.2451 5.543 0 7.066 L0.4131 7.066 Z" transform="translate(23.4473, 114.032)"/>
   <path style="fill:#000000; fill-rule:nonzero;stroke:none;" d="M7.5996 0.25 L8.1494 0 L8.6494 0.25 L0.7998 29.5002 L0 28.5002 L7.5996 0.25 Z" transform="translate(59.9502, 85.7998)"/>
   <path style="fill:#000000; fill-rule:nonzero;stroke:none;" d="M0 0.8506 L0.5508 0 L20.5508 13 L20.75 13.7002 L20.2002 13.9502 L0 0.8506 Z" transform="translate(47.3496, 72.0996)"/>
   <path style="fill:#000000; fill-rule:nonzero;stroke:none;" d="M1.2002 5.6504 L0 5.3506 L6.6504 0 L7.3506 0.7002 L1.2002 5.6504 Z" transform="translate(19.0498, 82.8496)"/>
   <path style="fill:#000000; fill-rule:nonzero;stroke:none;" d="M6.6006 0 L7.2002 0.7998 L0.75 6.0498 L0 5.2998 L6.6006 0 Z" transform="translate(31.5996, 72.7002)"/>
   <path style="fill:#000000; fill-rule:nonzero;stroke:none;" d="M11.1504 26.2998 L11.3506 28.1498 L10.7998 28.1998 L0 0 L1.2002 0.2998 L11.1504 26.2998 Z" transform="translate(19.0498, 88.2002)"/>
   <path style="fill:#000000; fill-rule:nonzero;stroke:none;" d="M29.5498 0 L30.3496 1 L0.3994 2.55 L0 2.05 L0.6992 1.55 L29.5498 0 Z" transform="translate(30.4004, 114.3)"/>
   <path style="fill:#000000; fill-rule:evenodd;stroke:none;" d="M3.5097 0 C1.4199 0 0 1.5401 0 3.8204 C0 6.1006 1.4199 7.6407 3.5205 7.6407 C4.4004 7.6407 5.1904 7.3702 5.7803 6.8702 C6.5703 6.2002 7.04 5.0704 7.04 3.8799 C7.04 1.5303 5.6504 0 3.5097 0 Z M3.5097 0.8204 C5.0898 0.8204 6.1103 2.0206 6.1103 3.8604 C6.1103 5.6202 5.0605 6.8204 3.5205 6.8204 C1.9697 6.8204 0.9297 5.6202 0.9297 3.8204 C0.9297 2.0206 1.9697 0.8204 3.5097 0.8204 Z" transform="translate(79.8799, 56.0898)"/>
   <path style="fill:#000000; fill-rule:nonzero;stroke:none;" d="M9.6992 0 L14.8994 3 L0.6992 22.7002 L0.1992 22.4502 L0 21.75 L9.6992 0 Z" transform="translate(67.9004, 63.3496)"/>
   <path style="fill:#000000; fill-rule:evenodd;stroke:none;" d="M2.0853 0 C0.7803 1.3653 0 3.0752 0 4.5977 C0 5.4903 0.2177 6.4199 0.5853 7.0655 L0.9973 7.0655 C0.7193 6.3457 0.5853 5.6407 0.5853 4.875 C0.5853 3.21 1.2373 1.5449 2.4973 0 L2.0853 0 Z" transform="translate(99.5977, 28.7822)"/>
   <path style="fill:#000000; fill-rule:evenodd;stroke:none;" d="M1.208 3.1123 L3 3.1123 C3.488 3.1123 3.758 3.3076 3.758 3.6748 C3.758 3.8028 3.736 3.96 3.698 4.125 C3.518 4.875 3.518 4.875 3.518 5.1153 C3.518 5.2276 3.526 5.3106 3.548 5.4678 L4.396 5.4678 L4.433 5.2949 C4.335 5.2051 4.276 5.0625 4.276 4.8975 C4.276 4.8076 4.29 4.6807 4.321 4.5225 C4.418 4.0127 4.478 3.6231 4.478 3.4873 C4.478 3.1582 4.38 3 4.028 2.7676 C4.321 2.6026 4.441 2.5205 4.575 2.4004 C4.875 2.1231 5.078 1.6201 5.078 1.1553 C5.078 0.3604 4.643 0 3.683 0 L1.163 0 L0 5.4678 L0.705 5.4678 L1.208 3.1123 Z M1.335 2.4981 L1.741 0.6153 L3.465 0.6153 C3.863 0.6153 4.058 0.668 4.2 0.8252 C4.298 0.9307 4.358 1.1026 4.358 1.2832 C4.358 1.5606 4.245 1.8907 4.08 2.1006 C3.863 2.3701 3.548 2.4981 3.068 2.4981 L1.335 2.4981 Z" transform="translate(101.947, 28.7822)"/>
   <path style="fill:#000000; fill-rule:evenodd;stroke:none;" d="M0.413 7.0655 C0.885 6.5703 1.328 5.9776 1.673 5.3555 C2.228 4.3574 2.491 3.4053 2.491 2.4151 C2.491 1.5674 2.266 0.6231 1.913 0 L1.5 0 C1.785 0.7276 1.913 1.4326 1.913 2.2354 C1.913 3.8555 1.245 5.543 0 7.0655 L0.413 7.0655 Z" transform="translate(106.697, 28.7822)"/>
   <path style="fill:#000000; fill-rule:evenodd;stroke:none;" d="M2.0853 0 C0.7803 1.3653 0 3.0752 0 4.5977 C0 5.4903 0.2177 6.4199 0.5853 7.0655 L0.9973 7.0655 C0.7193 6.3457 0.5853 5.6407 0.5853 4.875 C0.5853 3.21 1.2373 1.5449 2.4973 0 L2.0853 0 Z" transform="translate(99.5977, 28.7822)"/>
   <path style="fill:#000000; fill-rule:evenodd;stroke:none;" d="M1.208 3.1123 L3 3.1123 C3.488 3.1123 3.758 3.3076 3.758 3.6748 C3.758 3.8028 3.736 3.96 3.698 4.125 C3.518 4.875 3.518 4.875 3.518 5.1153 C3.518 5.2276 3.526 5.3106 3.548 5.4678 L4.396 5.4678 L4.433 5.2949 C4.335 5.2051 4.276 5.0625 4.276 4.8975 C4.276 4.8076 4.29 4.6807 4.321 4.5225 C4.418 4.0127 4.478 3.6231 4.478 3.4873 C4.478 3.1582 4.38 3 4.028 2.7676 C4.321 2.6026 4.441 2.5205 4.575 2.4004 C4.875 2.1231 5.078 1.6201 5.078 1.1553 C5.078 0.3604 4.643 0 3.683 0 L1.163 0 L0 5.4678 L0.705 5.4678 L1.208 3.1123 Z M1.335 2.4981 L1.741 0.6153 L3.465 0.6153 C3.863 0.6153 4.058 0.668 4.2 0.8252 C4.298 0.9307 4.358 1.1026 4.358 1.2832 C4.358 1.5606 4.245 1.8907 4.08 2.1006 C3.863 2.3701 3.548 2.4981 3.068 2.4981 L1.335 2.4981 Z" transform="translate(101.947, 28.7822)"/>
   <path style="fill:#000000; fill-rule:evenodd;stroke:none;" d="M0.413 7.0655 C0.885 6.5703 1.328 5.9776 1.673 5.3555 C2.228 4.3574 2.491 3.4053 2.491 2.4151 C2.491 1.5674 2.266 0.6231 1.913 0 L1.5 0 C1.785 0.7276 1.913 1.4326 1.913 2.2354 C1.913 3.8555 1.245 5.543 0 7.0655 L0.413 7.0655 Z" transform="translate(106.697, 28.7822)"/>
   <path style="fill:#000000; fill-rule:evenodd;stroke:none;" d="M2.085 0 C0.78 1.3653 0 3.0752 0 4.5977 C0 5.4903 0.217 6.4199 0.585 7.0655 L0.997 7.0655 C0.719 6.3457 0.585 5.6407 0.585 4.875 C0.585 3.21 1.237 1.5449 2.497 0 L2.085 0 Z" transform="translate(114.848, 67.2822)"/>
   <path style="fill:#000000; fill-rule:evenodd;stroke:none;" d="M1.208 3.1123 L3 3.1123 C3.488 3.1123 3.758 3.3076 3.758 3.6748 C3.758 3.8028 3.736 3.96 3.698 4.125 C3.518 4.875 3.518 4.875 3.518 5.1153 C3.518 5.2276 3.526 5.3106 3.548 5.4678 L4.396 5.4678 L4.433 5.2949 C4.335 5.2051 4.276 5.0625 4.276 4.8975 C4.276 4.8076 4.29 4.6807 4.321 4.5225 C4.418 4.0127 4.478 3.6231 4.478 3.4873 C4.478 3.1582 4.38 3 4.028 2.7676 C4.321 2.6026 4.441 2.5205 4.575 2.4004 C4.875 2.1231 5.078 1.6201 5.078 1.1553 C5.078 0.3604 4.643 0 3.683 0 L1.163 0 L0 5.4678 L0.705 5.4678 L1.208 3.1123 Z M1.335 2.4981 L1.741 0.6153 L3.465 0.6153 C3.863 0.6153 4.058 0.668 4.2 0.8252 C4.298 0.9307 4.358 1.1026 4.358 1.2832 C4.358 1.5606 4.245 1.8907 4.08 2.1006 C3.863 2.3701 3.548 2.4981 3.068 2.4981 L1.335 2.4981 Z" transform="translate(117.197, 67.2822)"/>
   <path style="fill:#000000; fill-rule:evenodd;stroke:none;" d="M0.413 7.0655 C0.885 6.5703 1.328 5.9776 1.673 5.3555 C2.228 4.3574 2.491 3.4053 2.491 2.4151 C2.491 1.5674 2.266 0.6231 1.913 0 L1.5 0 C1.785 0.7276 1.913 1.4326 1.913 2.2354 C1.913 3.8555 1.245 5.543 0 7.0655 L0.413 7.0655 Z" transform="translate(121.947, 67.2822)"/>
   <path style="fill:#000000; fill-rule:evenodd;stroke:none;" d="M2.085 0 C0.78 1.3653 0 3.0752 0 4.5977 C0 5.4903 0.217 6.4199 0.585 7.0655 L0.997 7.0655 C0.719 6.3457 0.585 5.6407 0.585 4.875 C0.585 3.21 1.237 1.5449 2.497 0 L2.085 0 Z" transform="translate(114.848, 67.2822)"/>
   <path style="fill:#000000; fill-rule:evenodd;stroke:none;" d="M1.208 3.1123 L3 3.1123 C3.488 3.1123 3.758 3.3076 3.758 3.6748 C3.758 3.8028 3.736 3.96 3.698 4.125 C3.518 4.875 3.518 4.875 3.518 5.1153 C3.518 5.2276 3.526 5.3106 3.548 5.4678 L4.396 5.4678 L4.433 5.2949 C4.335 5.2051 4.276 5.0625 4.276 4.8975 C4.276 4.8076 4.29 4.6807 4.321 4.5225 C4.418 4.0127 4.478 3.6231 4.478 3.4873 C4.478 3.1582 4.38 3 4.028 2.7676 C4.321 2.6026 4.441 2.5205 4.575 2.4004 C4.875 2.1231 5.078 1.6201 5.078 1.1553 C5.078 0.3604 4.643 0 3.683 0 L1.163 0 L0 5.4678 L0.705 5.4678 L1.208 3.1123 Z M1.335 2.4981 L1.741 0.6153 L3.465 0.6153 C3.863 0.6153 4.058 0.668 4.2 0.8252 C4.298 0.9307 4.358 1.1026 4.358 1.2832 C4.358 1.5606 4.245 1.8907 4.08 2.1006 C3.863 2.3701 3.548 2.4981 3.068 2.4981 L1.335 2.4981 Z" transform="translate(117.197, 67.2822)"/>
   <path style="fill:#000000; fill-rule:evenodd;stroke:none;" d="M0.413 7.0655 C0.885 6.5703 1.328 5.9776 1.673 5.3555 C2.228 4.3574 2.491 3.4053 2.491 2.4151 C2.491 1.5674 2.266 0.6231 1.913 0 L1.5 0 C1.785 0.7276 1.913 1.4326 1.913 2.2354 C1.913 3.8555 1.245 5.543 0 7.0655 L0.413 7.0655 Z" transform="translate(121.947, 67.2822)"/>
   <path style="fill:#000000; fill-rule:evenodd;stroke:none;" d="M2.085 0 C0.78 1.3653 0 3.0752 0 4.5977 C0 5.4903 0.217 6.4199 0.585 7.0655 L0.997 7.0655 C0.719 6.3457 0.585 5.6407 0.585 4.875 C0.585 3.21 1.237 1.5449 2.497 0 L2.085 0 Z" transform="translate(143.848, 47.2822)"/>
   <path style="fill:#000000; fill-rule:evenodd;stroke:none;" d="M4.627 1.6953 C4.672 1.4853 4.687 1.3877 4.687 1.2754 C4.687 0.9521 4.529 0.6074 4.282 0.3896 C3.975 0.1201 3.577 0 2.992 0 C2.22 0 1.612 0.2178 1.207 0.6377 C0.899 0.9521 0.667 1.4853 0.667 1.8672 C0.667 2.3398 0.997 2.7373 1.5 2.8799 L2.782 3.2402 C3.382 3.4131 3.63 3.6299 3.63 3.9902 C3.63 4.2226 3.487 4.5078 3.277 4.7021 C2.97 4.9805 2.527 5.123 1.927 5.123 C1.079 5.123 0.689 4.8076 0.689 4.125 C0.689 4.0273 0.697 3.9599 0.72 3.8174 L0.067 3.8174 C0.015 4.0127 0 4.1328 0 4.29 C0 5.1904 0.675 5.7305 1.807 5.7305 C2.595 5.7305 3.255 5.5127 3.697 5.1006 C4.079 4.748 4.35 4.2002 4.35 3.7803 C4.35 3.5849 4.282 3.375 4.17 3.1953 C4.005 2.9326 3.787 2.7822 3.435 2.6855 L2.144 2.3174 C1.567 2.1523 1.387 2.0029 1.387 1.6728 C1.387 1.4101 1.5 1.1777 1.717 0.9756 C1.994 0.7275 2.362 0.6074 2.857 0.6074 C3.277 0.6074 3.592 0.6904 3.757 0.8398 C3.899 0.9678 3.997 1.208 3.997 1.4248 C3.997 1.4922 3.989 1.5449 3.967 1.6953 L4.627 1.6953 Z" transform="translate(146.168, 47.1924)"/>
   <path style="fill:#000000; fill-rule:evenodd;stroke:none;" d="M0.413 7.0655 C0.885 6.5703 1.328 5.9776 1.673 5.3555 C2.228 4.3574 2.491 3.4053 2.491 2.4151 C2.491 1.5674 2.266 0.6231 1.913 0 L1.5 0 C1.785 0.7276 1.913 1.4326 1.913 2.2354 C1.913 3.8555 1.245 5.543 0 7.0655 L0.413 7.0655 Z" transform="translate(150.447, 47.2822)"/>
   <path style="fill:#000000; fill-rule:evenodd;stroke:none;" d="M2.085 0 C0.78 1.3653 0 3.0752 0 4.5977 C0 5.4903 0.217 6.4199 0.585 7.0655 L0.997 7.0655 C0.719 6.3457 0.585 5.6407 0.585 4.875 C0.585 3.21 1.237 1.5449 2.497 0 L2.085 0 Z" transform="translate(143.848, 47.2822)"/>
   <path style="fill:#000000; fill-rule:evenodd;stroke:none;" d="M4.627 1.6953 C4.672 1.4853 4.687 1.3877 4.687 1.2754 C4.687 0.9521 4.529 0.6074 4.282 0.3896 C3.975 0.1201 3.577 0 2.992 0 C2.22 0 1.612 0.2178 1.207 0.6377 C0.899 0.9521 0.667 1.4853 0.667 1.8672 C0.667 2.3398 0.997 2.7373 1.5 2.8799 L2.782 3.2402 C3.382 3.4131 3.63 3.6299 3.63 3.9902 C3.63 4.2226 3.487 4.5078 3.277 4.7021 C2.97 4.9805 2.527 5.123 1.927 5.123 C1.079 5.123 0.689 4.8076 0.689 4.125 C0.689 4.0273 0.697 3.9599 0.72 3.8174 L0.067 3.8174 C0.015 4.0127 0 4.1328 0 4.29 C0 5.1904 0.675 5.7305 1.807 5.7305 C2.595 5.7305 3.255 5.5127 3.697 5.1006 C4.079 4.748 4.35 4.2002 4.35 3.7803 C4.35 3.5849 4.282 3.375 4.17 3.1953 C4.005 2.9326 3.787 2.7822 3.435 2.6855 L2.144 2.3174 C1.567 2.1523 1.387 2.0029 1.387 1.6728 C1.387 1.4101 1.5 1.1777 1.717 0.9756 C1.994 0.7275 2.362 0.6074 2.857 0.6074 C3.277 0.6074 3.592 0.6904 3.757 0.8398 C3.899 0.9678 3.997 1.208 3.997 1.4248 C3.997 1.4922 3.989 1.5449 3.967 1.6953 L4.627 1.6953 Z" transform="translate(146.168, 47.1924)"/>
   <path style="fill:#000000; fill-rule:evenodd;stroke:none;" d="M0.413 7.0655 C0.885 6.5703 1.328 5.9776 1.673 5.3555 C2.228 4.3574 2.491 3.4053 2.491 2.4151 C2.491 1.5674 2.266 0.6231 1.913 0 L1.5 0 C1.785 0.7276 1.913 1.4326 1.913 2.2354 C1.913 3.8555 1.245 5.543 0 7.0655 L0.413 7.0655 Z" transform="translate(150.447, 47.2822)"/>
   <path style="fill:#000000; fill-rule:evenodd;stroke:none;" d="M2.085 0 C0.78 1.3653 0 3.0752 0 4.5977 C0 5.4903 0.217 6.4199 0.585 7.0655 L0.997 7.0655 C0.719 6.3457 0.585 5.6407 0.585 4.875 C0.585 3.21 1.237 1.5449 2.497 0 L2.085 0 Z" transform="translate(172.598, 67.2822)"/>
   <path style="fill:#000000; fill-rule:evenodd;stroke:none;" d="M1.208 3.1123 L3 3.1123 C3.488 3.1123 3.758 3.3076 3.758 3.6748 C3.758 3.8028 3.736 3.96 3.698 4.125 C3.518 4.875 3.518 4.875 3.518 5.1153 C3.518 5.2276 3.526 5.3106 3.548 5.4678 L4.396 5.4678 L4.433 5.2949 C4.335 5.2051 4.276 5.0625 4.276 4.8975 C4.276 4.8076 4.29 4.6807 4.321 4.5225 C4.418 4.0127 4.478 3.6231 4.478 3.4873 C4.478 3.1582 4.38 3 4.028 2.7676 C4.321 2.6026 4.441 2.5205 4.575 2.4004 C4.875 2.1231 5.078 1.6201 5.078 1.1553 C5.078 0.3604 4.643 0 3.683 0 L1.163 0 L0 5.4678 L0.705 5.4678 L1.208 3.1123 Z M1.335 2.4981 L1.741 0.6153 L3.465 0.6153 C3.863 0.6153 4.058 0.668 4.2 0.8252 C4.298 0.9307 4.358 1.1026 4.358 1.2832 C4.358 1.5606 4.245 1.8907 4.08 2.1006 C3.863 2.3701 3.548 2.4981 3.068 2.4981 L1.335 2.4981 Z" transform="translate(174.947, 67.2822)"/>
   <path style="fill:#000000; fill-rule:evenodd;stroke:none;" d="M0.413 7.0655 C0.885 6.5703 1.328 5.9776 1.673 5.3555 C2.228 4.3574 2.491 3.4053 2.491 2.4151 C2.491 1.5674 2.266 0.6231 1.913 0 L1.5 0 C1.785 0.7276 1.913 1.4326 1.913 2.2354 C1.913 3.8555 1.245 5.543 0 7.0655 L0.413 7.0655 Z" transform="translate(179.447, 67.2822)"/>
   <path style="fill:#000000; fill-rule:evenodd;stroke:none;" d="M2.085 0 C0.78 1.3653 0 3.0752 0 4.5977 C0 5.4903 0.217 6.4199 0.585 7.0655 L0.997 7.0655 C0.719 6.3457 0.585 5.6407 0.585 4.875 C0.585 3.21 1.237 1.5449 2.497 0 L2.085 0 Z" transform="translate(172.598, 67.2822)"/>
   <path style="fill:#000000; fill-rule:evenodd;stroke:none;" d="M1.208 3.1123 L3 3.1123 C3.488 3.1123 3.758 3.3076 3.758 3.6748 C3.758 3.8028 3.736 3.96 3.698 4.125 C3.518 4.875 3.518 4.875 3.518 5.1153 C3.518 5.2276 3.526 5.3106 3.548 5.4678 L4.396 5.4678 L4.433 5.2949 C4.335 5.2051 4.276 5.0625 4.276 4.8975 C4.276 4.8076 4.29 4.6807 4.321 4.5225 C4.418 4.0127 4.478 3.6231 4.478 3.4873 C4.478 3.1582 4.38 3 4.028 2.7676 C4.321 2.6026 4.441 2.5205 4.575 2.4004 C4.875 2.1231 5.078 1.6201 5.078 1.1553 C5.078 0.3604 4.643 0 3.683 0 L1.163 0 L0 5.4678 L0.705 5.4678 L1.208 3.1123 Z M1.335 2.4981 L1.741 0.6153 L3.465 0.6153 C3.863 0.6153 4.058 0.668 4.2 0.8252 C4.298 0.9307 4.358 1.1026 4.358 1.2832 C4.358 1.5606 4.245 1.8907 4.08 2.1006 C3.863 2.3701 3.548 2.4981 3.068 2.4981 L1.335 2.4981 Z" transform="translate(174.947, 67.2822)"/>
   <path style="fill:#000000; fill-rule:evenodd;stroke:none;" d="M0.413 7.0655 C0.885 6.5703 1.328 5.9776 1.673 5.3555 C2.228 4.3574 2.491 3.4053 2.491 2.4151 C2.491 1.5674 2.266 0.6231 1.913 0 L1.5 0 C1.785 0.7276 1.913 1.4326 1.913 2.2354 C1.913 3.8555 1.245 5.543 0 7.0655 L0.413 7.0655 Z" transform="translate(179.447, 67.2822)"/>
   <path style="fill:#000000; fill-rule:evenodd;stroke:none;" d="M2.085 0 C0.78 1.3653 0 3.0752 0 4.5977 C0 5.4903 0.217 6.4199 0.585 7.0655 L0.997 7.0655 C0.719 6.3457 0.585 5.6407 0.585 4.875 C0.585 3.21 1.237 1.5449 2.497 0 L2.085 0 Z" transform="translate(164.348, 29.2822)"/>
   <path style="fill:#000000; fill-rule:evenodd;stroke:none;" d="M1.208 3.1123 L3 3.1123 C3.488 3.1123 3.758 3.3076 3.758 3.6748 C3.758 3.8028 3.736 3.96 3.698 4.125 C3.518 4.875 3.518 4.875 3.518 5.1153 C3.518 5.2276 3.526 5.3106 3.548 5.4678 L4.396 5.4678 L4.433 5.2949 C4.335 5.2051 4.276 5.0625 4.276 4.8975 C4.276 4.8076 4.29 4.6807 4.321 4.5225 C4.418 4.0127 4.478 3.6231 4.478 3.4873 C4.478 3.1582 4.38 3 4.028 2.7676 C4.321 2.6026 4.441 2.5205 4.575 2.4004 C4.875 2.1231 5.078 1.6201 5.078 1.1553 C5.078 0.3604 4.643 0 3.683 0 L1.163 0 L0 5.4678 L0.705 5.4678 L1.208 3.1123 Z M1.335 2.4981 L1.741 0.6153 L3.465 0.6153 C3.863 0.6153 4.058 0.668 4.2 0.8252 C4.298 0.9307 4.358 1.1026 4.358 1.2832 C4.358 1.5606 4.245 1.8907 4.08 2.1006 C3.863 2.3701 3.548 2.4981 3.068 2.4981 L1.335 2.4981 Z" transform="translate(166.697, 29.2822)"/>
   <path style="fill:#000000; fill-rule:evenodd;stroke:none;" d="M0.413 7.0655 C0.885 6.5703 1.328 5.9776 1.673 5.3555 C2.228 4.3574 2.491 3.4053 2.491 2.4151 C2.491 1.5674 2.266 0.6231 1.913 0 L1.5 0 C1.785 0.7276 1.913 1.4326 1.913 2.2354 C1.913 3.8555 1.245 5.543 0 7.0655 L0.413 7.0655 Z" transform="translate(171.447, 29.2822)"/>
   <path style="fill:#000000; fill-rule:evenodd;stroke:none;" d="M2.085 0 C0.78 1.3653 0 3.0752 0 4.5977 C0 5.4903 0.217 6.4199 0.585 7.0655 L0.997 7.0655 C0.719 6.3457 0.585 5.6407 0.585 4.875 C0.585 3.21 1.237 1.5449 2.497 0 L2.085 0 Z" transform="translate(164.348, 29.2822)"/>
   <path style="fill:#000000; fill-rule:evenodd;stroke:none;" d="M1.208 3.1123 L3 3.1123 C3.488 3.1123 3.758 3.3076 3.758 3.6748 C3.758 3.8028 3.736 3.96 3.698 4.125 C3.518 4.875 3.518 4.875 3.518 5.1153 C3.518 5.2276 3.526 5.3106 3.548 5.4678 L4.396 5.4678 L4.433 5.2949 C4.335 5.2051 4.276 5.0625 4.276 4.8975 C4.276 4.8076 4.29 4.6807 4.321 4.5225 C4.418 4.0127 4.478 3.6231 4.478 3.4873 C4.478 3.1582 4.38 3 4.028 2.7676 C4.321 2.6026 4.441 2.5205 4.575 2.4004 C4.875 2.1231 5.078 1.6201 5.078 1.1553 C5.078 0.3604 4.643 0 3.683 0 L1.163 0 L0 5.4678 L0.705 5.4678 L1.208 3.1123 Z M1.335 2.4981 L1.741 0.6153 L3.465 0.6153 C3.863 0.6153 4.058 0.668 4.2 0.8252 C4.298 0.9307 4.358 1.1026 4.358 1.2832 C4.358 1.5606 4.245 1.8907 4.08 2.1006 C3.863 2.3701 3.548 2.4981 3.068 2.4981 L1.335 2.4981 Z" transform="translate(166.697, 29.2822)"/>
   <path style="fill:#000000; fill-rule:evenodd;stroke:none;" d="M0.413 7.0655 C0.885 6.5703 1.328 5.9776 1.673 5.3555 C2.228 4.3574 2.491 3.4053 2.491 2.4151 C2.491 1.5674 2.266 0.6231 1.913 0 L1.5 0 C1.785 0.7276 1.913 1.4326 1.913 2.2354 C1.913 3.8555 1.245 5.543 0 7.0655 L0.413 7.0655 Z" transform="translate(171.447, 29.2822)"/>
   <path style="fill:#000000; fill-rule:evenodd;stroke:none;" d="M2.085 0 C0.78 1.3653 0 3.0752 0 4.5977 C0 5.4903 0.217 6.4199 0.585 7.0655 L0.997 7.0655 C0.719 6.3457 0.585 5.6407 0.585 4.875 C0.585 3.21 1.237 1.5449 2.497 0 L2.085 0 Z" transform="translate(128.598, 49.0322)"/>
   <path style="fill:#000000; fill-rule:evenodd;stroke:none;" d="M4.627 1.6953 C4.672 1.4853 4.687 1.3877 4.687 1.2754 C4.687 0.9521 4.529 0.6074 4.282 0.3896 C3.975 0.1201 3.577 0 2.992 0 C2.22 0 1.612 0.2178 1.207 0.6377 C0.899 0.9521 0.667 1.4853 0.667 1.8672 C0.667 2.3398 0.997 2.7373 1.5 2.8799 L2.782 3.2402 C3.382 3.4131 3.63 3.6299 3.63 3.9902 C3.63 4.2226 3.487 4.5078 3.277 4.7021 C2.97 4.9805 2.527 5.123 1.927 5.123 C1.079 5.123 0.689 4.8076 0.689 4.125 C0.689 4.0273 0.697 3.9599 0.72 3.8174 L0.067 3.8174 C0.015 4.0127 0 4.1328 0 4.29 C0 5.1904 0.675 5.7305 1.807 5.7305 C2.595 5.7305 3.255 5.5127 3.697 5.1006 C4.079 4.748 4.35 4.2002 4.35 3.7803 C4.35 3.5849 4.282 3.375 4.17 3.1953 C4.005 2.9326 3.787 2.7822 3.435 2.6855 L2.144 2.3174 C1.567 2.1523 1.387 2.0029 1.387 1.6728 C1.387 1.4101 1.5 1.1777 1.717 0.9756 C1.994 0.7275 2.362 0.6074 2.857 0.6074 C3.277 0.6074 3.592 0.6904 3.757 0.8398 C3.899 0.9678 3.997 1.208 3.997 1.4248 C3.997 1.4922 3.989 1.5449 3.967 1.6953 L4.627 1.6953 Z" transform="translate(130.918, 48.9424)"/>
   <path style="fill:#000000; fill-rule:evenodd;stroke:none;" d="M0.413 7.0655 C0.885 6.5703 1.328 5.9776 1.673 5.3555 C2.228 4.3574 2.491 3.4053 2.491 2.4151 C2.491 1.5674 2.266 0.6231 1.913 0 L1.5 0 C1.785 0.7276 1.913 1.4326 1.913 2.2354 C1.913 3.8555 1.245 5.543 0 7.0655 L0.413 7.0655 Z" transform="translate(135.197, 49.0322)"/>
   <path style="fill:#000000; fill-rule:evenodd;stroke:none;" d="M2.085 0 C0.78 1.3653 0 3.0752 0 4.5977 C0 5.4903 0.217 6.4199 0.585 7.0655 L0.997 7.0655 C0.719 6.3457 0.585 5.6407 0.585 4.875 C0.585 3.21 1.237 1.5449 2.497 0 L2.085 0 Z" transform="translate(128.598, 49.0322)"/>
   <path style="fill:#000000; fill-rule:evenodd;stroke:none;" d="M4.627 1.6953 C4.672 1.4853 4.687 1.3877 4.687 1.2754 C4.687 0.9521 4.529 0.6074 4.282 0.3896 C3.975 0.1201 3.577 0 2.992 0 C2.22 0 1.612 0.2178 1.207 0.6377 C0.899 0.9521 0.667 1.4853 0.667 1.8672 C0.667 2.3398 0.997 2.7373 1.5 2.8799 L2.782 3.2402 C3.382 3.4131 3.63 3.6299 3.63 3.9902 C3.63 4.2226 3.487 4.5078 3.277 4.7021 C2.97 4.9805 2.527 5.123 1.927 5.123 C1.079 5.123 0.689 4.8076 0.689 4.125 C0.689 4.0273 0.697 3.9599 0.72 3.8174 L0.067 3.8174 C0.015 4.0127 0 4.1328 0 4.29 C0 5.1904 0.675 5.7305 1.807 5.7305 C2.595 5.7305 3.255 5.5127 3.697 5.1006 C4.079 4.748 4.35 4.2002 4.35 3.7803 C4.35 3.5849 4.282 3.375 4.17 3.1953 C4.005 2.9326 3.787 2.7822 3.435 2.6855 L2.144 2.3174 C1.567 2.1523 1.387 2.0029 1.387 1.6728 C1.387 1.4101 1.5 1.1777 1.717 0.9756 C1.994 0.7275 2.362 0.6074 2.857 0.6074 C3.277 0.6074 3.592 0.6904 3.757 0.8398 C3.899 0.9678 3.997 1.208 3.997 1.4248 C3.997 1.4922 3.989 1.5449 3.967 1.6953 L4.627 1.6953 Z" transform="translate(130.918, 48.9424)"/>
   <path style="fill:#000000; fill-rule:evenodd;stroke:none;" d="M0.413 7.0655 C0.885 6.5703 1.328 5.9776 1.673 5.3555 C2.228 4.3574 2.491 3.4053 2.491 2.4151 C2.491 1.5674 2.266 0.6231 1.913 0 L1.5 0 C1.785 0.7276 1.913 1.4326 1.913 2.2354 C1.913 3.8555 1.245 5.543 0 7.0655 L0.413 7.0655 Z" transform="translate(135.197, 49.0322)"/>
   <path style="fill:#000000; fill-rule:nonzero;stroke:none;" d="M15.5 25.4004 L15.25 26 L14.35 25.4004 L0 0.5996 L0.25 0 L1.3 0.7998 L15.5 25.4004 Z" transform="translate(103.75, 37)"/>
   <path style="fill:#000000; fill-rule:nonzero;stroke:none;" d="M29 0 L29 0.5508 L28.8 1.1006 L0.05 8.6504 L0 8.1504 L0.25 7.5508 L29 0 Z" transform="translate(119, 54.8496)"/>
   <path style="fill:#000000; fill-rule:nonzero;stroke:none;" d="M27.85 7.3506 L28.85 8.1504 L28.85 8.6504 L1.05 1.3008 L0 0.5508 L0 0 L27.85 7.3506 Z" transform="translate(148, 54.8496)"/>
   <path style="fill:#000000; fill-rule:nonzero;stroke:none;" d="M0 0.5996 L0.2 0 L1.25 0.7998 L15.45 25.4004 L15.2 26 L14.2 25.2002 L0 0.5996 Z" transform="translate(161.65, 37)"/>
   <path style="fill:#000000; fill-rule:nonzero;stroke:none;" d="M0 8.5 L0 8 L0.25 7.4004 L28.5 0 L29 0.4004 L28.8 1 L0 8.5 Z" transform="translate(132.85, 36.5996)"/>
   <path style="fill:#000000; fill-rule:nonzero;stroke:none;" d="M1.05 1.2998 L0 0.5 L0 0 L27.8 7.2998 L28.85 8.0996 L28.85 8.5996 L1.05 1.2998 Z" transform="translate(104, 36.5)"/>
   <path style="fill:#000000; fill-rule:nonzero;stroke:none;" d="M29.6 2.6006 L30.5 3.2002 L30.55 3.7002 L0 1 L0.0996 0 L29.6 2.6006 Z" transform="translate(88.5, 59.7998)"/>
   <path style="fill:#000000; fill-rule:evenodd;stroke:none;" d="M4.6797 3.9697 L4.6797 7.29 L5.6103 7.29 L5.6103 0 L4.6797 0 L4.6797 3.1504 L0.9297 3.1504 L0.9297 0 L0 0 L0 7.29 L0.9394 7.29 L0.9394 3.9697 L4.6797 3.9697 Z" transform="translate(73.0801, 40.96)"/>
   <path style="fill:#000000; fill-rule:evenodd;stroke:none;" d="M3.5097 0 C1.4199 0 0 1.5401 0 3.8204 C0 6.1006 1.4199 7.6407 3.5205 7.6407 C4.4004 7.6407 5.1904 7.3702 5.7803 6.8702 C6.5703 6.2002 7.04 5.0704 7.04 3.8799 C7.04 1.5303 5.6504 0 3.5097 0 Z M3.5097 0.8204 C5.0898 0.8204 6.1103 2.0206 6.1103 3.8604 C6.1103 5.6202 5.0605 6.8204 3.5205 6.8204 C1.9697 6.8204 0.9297 5.6202 0.9297 3.8204 C0.9297 2.0206 1.9697 0.8204 3.5097 0.8204 Z" transform="translate(79.8799, 40.8398)"/>
   <path style="fill:#000000; fill-rule:nonzero;stroke:none;" d="M0.25 5.4502 L0 4.4502 L16.7002 0 L16.7002 0.5 L16.4502 1.0996 L0.25 5.4502 Z" transform="translate(87.2998, 36.5)"/>
   <path style="fill:#000000; fill-rule:evenodd;stroke:none;" d="M4.68 3.9697 L4.68 7.29 L5.61 7.29 L5.61 0 L4.68 0 L4.68 3.1504 L0.93 3.1504 L0.93 0 L0 0 L0 7.29 L0.94 7.29 L0.94 3.9697 L4.68 3.9697 Z" transform="translate(107.08, 14.96)"/>
   <path style="fill:#000000; fill-rule:evenodd;stroke:none;" d="M3.51 0 C1.42 0 0 1.5401 0 3.8204 C0 6.1006 1.42 7.6407 3.52 7.6407 C4.4 7.6407 5.19 7.3702 5.78 6.8702 C6.57 6.2002 7.04 5.0704 7.04 3.8799 C7.04 1.5303 5.65 0 3.51 0 Z M3.51 0.8204 C5.09 0.8204 6.11 2.0206 6.11 3.8604 C6.11 5.6202 5.06 6.8204 3.52 6.8204 C1.97 6.8204 0.93 5.6202 0.93 3.8204 C0.93 2.0206 1.97 0.8204 3.51 0.8204 Z" transform="translate(113.88, 14.8398)"/>
   <path style="fill:#000000; fill-rule:nonzero;stroke:none;" d="M0 0.5 L0.85 0 L13.1 21.2002 L12.85 21.7998 L11.8 21 L0 0.5 Z" transform="translate(120, 22.7998)"/>
   <path style="fill:#000000; fill-rule:evenodd;stroke:none;" d="M5.7 0 L4.82 0 L4.82 5.9599 L1.01 0 L0 0 L0 7.29 L0.88 7.29 L0.88 1.3798 L4.65 7.29 L5.7 7.29 L5.7 0 Z" transform="translate(188.76, 40.96)"/>
   <path style="fill:#000000; fill-rule:evenodd;stroke:none;" d="M4.68 3.9697 L4.68 7.29 L5.61 7.29 L5.61 0 L4.68 0 L4.68 3.1504 L0.93 3.1504 L0.93 0 L0 0 L0 7.29 L0.94 7.29 L0.94 3.9697 L4.68 3.9697 Z" transform="translate(188.83, 49.46)"/>
   <path style="fill:#000000; fill-rule:nonzero;stroke:none;" d="M23.75 6.25 L23.5 7.2002 L1.05 1.2002 L0 0.4004 L0.5 0 L23.75 6.25 Z" transform="translate(161.85, 36.5996)"/>
   <path style="fill:#000000; fill-rule:evenodd;stroke:none;" d="M3.51 0 C1.42 0 0 1.5401 0 3.8204 C0 6.1006 1.42 7.6407 3.52 7.6407 C4.4 7.6407 5.19 7.3702 5.78 6.8702 C6.57 6.2002 7.04 5.0704 7.04 3.8799 C7.04 1.5303 5.65 0 3.51 0 Z M3.51 0.8204 C5.09 0.8204 6.11 2.0206 6.11 3.8604 C6.11 5.6202 5.06 6.8204 3.52 6.8204 C1.97 6.8204 0.93 5.6202 0.93 3.8204 C0.93 2.0206 1.97 0.8204 3.51 0.8204 Z" transform="translate(202.63, 51.3398)"/>
   <path style="fill:#000000; fill-rule:evenodd;stroke:none;" d="M4.68 3.9697 L4.68 7.29 L5.61 7.29 L5.61 0 L4.68 0 L4.68 3.1504 L0.93 3.1504 L0.93 0 L0 0 L0 7.29 L0.94 7.29 L0.94 3.9697 L4.68 3.9697 Z" transform="translate(211.08, 51.46)"/>
   <path style="fill:#000000; fill-rule:nonzero;stroke:none;" d="M23.5 0 L23.75 0.9502 L0 7.2998 L0 6.7998 L0.25 6.2002 L23.5 0 Z" transform="translate(176.85, 56.2002)"/>
   <path style="fill:#000000; fill-rule:nonzero;stroke:none;" d="M23.7 0 L23.7 1 L0.25 7.2998 L0 6.3496 L23.7 0 Z" transform="translate(196.1, 36.5)"/>
   <path style="fill:#000000; fill-rule:evenodd;stroke:none;" d="M5.7 0 L4.82 0 L4.82 5.9599 L1.01 0 L0 0 L0 7.29 L0.88 7.29 L0.88 1.3798 L4.65 7.29 L5.7 7.29 L5.7 0 Z" transform="translate(246.76, 40.96)"/>
   <path style="fill:#000000; fill-rule:evenodd;stroke:none;" d="M4.68 3.9697 L4.68 7.29 L5.61 7.29 L5.61 0 L4.68 0 L4.68 3.1504 L0.93 3.1504 L0.93 0 L0 0 L0 7.29 L0.94 7.29 L0.94 3.9697 L4.68 3.9697 Z" transform="translate(254.08, 40.96)"/>
   <path style="fill:#000000; fill-rule:evenodd;stroke:none;" d="M3.54 4.6651 L0.742 4.6651 C0.81 4.2295 1.05 3.9522 1.702 3.5703 L2.452 3.1651 C3.195 2.7598 3.577 2.2119 3.577 1.5596 C3.577 1.1172 3.397 0.7051 3.083 0.4199 C2.767 0.1348 2.378 0 1.875 0 C1.2 0 0.697 0.2403 0.405 0.6895 C0.218 0.9746 0.135 1.3047 0.12 1.8447 L0.78 1.8447 C0.803 1.4854 0.848 1.2676 0.937 1.0947 C1.11 0.7725 1.455 0.5772 1.852 0.5772 C2.452 0.5772 2.902 1.0049 2.902 1.5752 C2.902 1.9951 2.655 2.3545 2.183 2.625 L1.492 3.0147 C0.383 3.6445 0.06 4.1475 0 5.3174 L3.54 5.3174 L3.54 4.6651 Z" transform="translate(260.755, 44.9326)"/>
   <path style="fill:#000000; fill-rule:nonzero;stroke:none;" d="M23.75 6.3496 L23.5 7.2998 L0 1 L0 0 L23.75 6.3496 Z" transform="translate(219.8, 36.5)"/>
   <path style="fill:#000000; fill-rule:evenodd;stroke:none;" d="M5.7 0 L4.82 0 L4.82 5.95994 L1.01 0 L0 0 L0 7.29004 L0.88 7.29004 L0.88 1.37988 L4.65 7.29004 L5.7 7.29004 L5.7 0 Z" transform="translate(224.76, 7.20996)"/>
   <path style="fill:#000000; fill-rule:evenodd;stroke:none;" d="M4.68 3.96974 L4.68 7.29004 L5.61 7.29004 L5.61 0 L4.68 0 L4.68 3.15044 L0.93 3.15044 L0.93 0 L0 0 L0 7.29004 L0.94 7.29004 L0.94 3.96974 L4.68 3.96974 Z" transform="translate(232.08, 7.20996)"/>
   <path style="fill:#000000; fill-rule:nonzero;stroke:none;" d="M5.6 0 L6.6 0.25 L0.95 21.25 L0 21 L5.6 0 Z" transform="translate(217.55, 16.3496)"/>
   <path style="fill:#000000; fill-rule:nonzero;stroke:none;" d="M5.4 0 L6.35 0.2998 L0.95 20.3994 L0 20.1494 L5.4 0 Z" transform="translate(220.9, 17.1504)"/>
   <path style="fill:#000000; fill-rule:nonzero;stroke:none;" d="M5.2002 3.85 L0 0.85 L0.54981 0 L5.60059 2.95 L5.2002 3.85 Z" transform="translate(2.0498, 112)"/>
   <path style="fill:#000000; fill-rule:nonzero;stroke:none;" d="M4.7002 3.6 L0 0.85 L0.5498 0 L5.15039 2.65 L4.7002 3.6 Z" transform="translate(3.75, 109.6)"/>
   <path style="fill:#000000; fill-rule:nonzero;stroke:none;" d="M4.25 3.25 L0 0.8 L0.5498 0 L4.6494 2.35 L4.25 3.25 Z" transform="translate(5.4502, 107.25)"/>
   <path style="fill:#000000; fill-rule:nonzero;stroke:none;" d="M3.85059 3 L0 0.8 L0.60059 0 L4.24999 2.1 L3.85059 3 Z" transform="translate(7.09961, 104.85)"/>
   <path style="fill:#000000; fill-rule:nonzero;stroke:none;" d="M3.3506 2.75 L0 0.8 L0.60059 0 L3.7998 1.8 L3.3506 2.75 Z" transform="translate(8.7998, 102.45)"/>
   <path style="fill:#000000; fill-rule:nonzero;stroke:none;" d="M2.9004 2.45 L0 0.8 L0.5996 0 L3.2998 1.55 L2.9004 2.45 Z" transform="translate(10.5, 100.05)"/>
   <path style="fill:#000000; fill-rule:nonzero;stroke:none;" d="M2.3994 2.1992 L0 0.7998 L0.5996 0 L2.8496 1.2998 L2.3994 2.1992 Z" transform="translate(12.2002, 97.6504)"/>
   <path style="fill:#000000; fill-rule:nonzero;stroke:none;" d="M1.9492 1.9502 L0 0.7998 L0.5498 0 L2.3496 1.0498 L1.9492 1.9502 Z" transform="translate(13.9004, 95.25)"/>
   <path style="fill:#000000; fill-rule:nonzero;stroke:none;" d="M1.4502 1.7002 L0 0.8008 L0.5508 0 L1.9004 0.75 L1.4502 1.7002 Z" transform="translate(15.5996, 92.8496)"/>
   <path style="fill:#000000; fill-rule:nonzero;stroke:none;" d="M1 1.3994 L0 0.7998 L0.5498 0 L1.4004 0.5 L1 1.3994 Z" transform="translate(17.2998, 90.4502)"/>
   <path style="fill:#000000; fill-rule:evenodd;stroke:none;" d="M4.6797 3.97 L4.6797 7.29 L5.6103 7.29 L5.6103 0 L4.6797 0 L4.6797 3.15 L0.9297 3.15 L0.9297 0 L0 0 L0 7.29 L0.9394 7.29 L0.9394 3.97 L4.6797 3.97 Z" transform="translate(12.0801, 141.71)"/>
   <path style="fill:#000000; fill-rule:evenodd;stroke:none;" d="M3.5097 0 C1.4199 0 0 1.54 0 3.82 C0 6.1 1.4199 7.64 3.5205 7.64 C4.4004 7.64 5.1904 7.37 5.7803 6.87 C6.5703 6.2 7.04 5.07 7.04 3.88 C7.04 1.53 5.6504 0 3.5097 0 Z M3.5097 0.82 C5.0898 0.82 6.1103 2.02 6.1103 3.86 C6.1103 5.62 5.0605 6.82 3.5205 6.82 C1.9697 6.82 0.9297 5.62 0.9297 3.82 C0.9297 2.02 1.9697 0.82 3.5097 0.82 Z" transform="translate(18.6299, 141.59)"/>
   <path style="fill:#000000; fill-rule:nonzero;stroke:none;" d="M0.9502 23.75 L0 23.45 L6.25 0.05 L6.8008 0 L7.2002 0.5 L0.9502 23.75 Z" transform="translate(23.5996, 116.35)"/>
   <path style="fill:#000000; fill-rule:evenodd;stroke:none;" d="M5.7 0 L4.82 0 L4.82 5.9599 L1.01 0 L0 0 L0 7.29 L0.88 7.29 L0.88 1.3798 L4.65 7.29 L5.7 7.29 L5.7 0 Z" transform="translate(161.01, 77.71)"/>
   <path style="fill:#000000; fill-rule:evenodd;stroke:none;" d="M4.68 3.9697 L4.68 7.29 L5.61 7.29 L5.61 0 L4.68 0 L4.68 3.1504 L0.93 3.1504 L0.93 0 L0 0 L0 7.29 L0.94 7.29 L0.94 3.9697 L4.68 3.9697 Z" transform="translate(168.08, 77.71)"/>
   <path style="fill:#000000; fill-rule:nonzero;stroke:none;" d="M12.4 20.0498 L11.55 20.5498 L0 0.5498 L0.2 0 L1.25 0.75 L12.4 20.0498 Z" transform="translate(147.8, 55.4004)"/>
   <path style="fill:#000000; fill-rule:nonzero;stroke:none;" d="M1.15 15.0496 L0 15.7996 L2.85 0 L3.8 0.1992 L1.15 15.0496 Z" transform="translate(158.65, 87.1504)"/>
   <path style="fill:#000000; fill-rule:evenodd;stroke:none;" d="M4.68 3.97 L4.68 7.29 L5.61 7.29 L5.61 0 L4.68 0 L4.68 3.15 L0.93 3.15 L0.93 0 L0 0 L0 7.29 L0.94 7.29 L0.94 3.97 L4.68 3.97 Z" transform="translate(129.58, 109.71)"/>
   <path style="fill:#000000; fill-rule:evenodd;stroke:none;" d="M5.7 0 L4.82 0 L4.82 5.96 L1.01 0 L0 0 L0 7.29 L0.88 7.29 L0.88 1.38 L4.65 7.29 L5.7 7.29 L5.7 0 Z" transform="translate(136.76, 109.71)"/>
   <path style="fill:#000000; fill-rule:nonzero;stroke:none;" d="M0.5 10.05 L0 9.2 L15.9 0 L16.4 0.9 L0.5 10.05 Z" transform="translate(144.9, 102.6)"/>
   <path style="fill:#000000; fill-rule:nonzero;stroke:none;" d="M0.5 9.95 L0 9.05 L15.7 0 L16.2 0.85 L0.5 9.95 Z" transform="translate(143.6, 100.45)"/>
   <path style="fill:#000000; fill-rule:evenodd;stroke:none;" d="M5.7 0 L4.82 0 L4.82 5.96 L1.01 0 L0 0 L0 7.29 L0.88 7.29 L0.88 1.38 L4.65 7.29 L5.7 7.29 L5.7 0 Z" transform="translate(186.01, 106.71)"/>
   <path style="fill:#000000; fill-rule:evenodd;stroke:none;" d="M4.68 3.97 L4.68 7.29 L5.61 7.29 L5.61 0 L4.68 0 L4.68 3.15 L0.93 3.15 L0.93 0 L0 0 L0 7.29 L0.94 7.29 L0.94 3.97 L4.68 3.97 Z" transform="translate(193.33, 106.71)"/>
   <path style="fill:#000000; fill-rule:nonzero;stroke:none;" d="M24.3 6.2 L24.05 7.2 L0 0.75 L1.15 0 L24.3 6.2 Z" transform="translate(158.65, 102.2)"/>
   <path style="fill:#000000; fill-rule:nonzero;stroke:none;" d="M5.2998 0 L10.5 3.7998 L0.8994 30.4496 L0.2002 30.9496 L0 29.0996 L5.2998 0 Z" transform="translate(30.2002, 85.4004)"/>
   <path style="fill:#000000; fill-rule:evenodd;stroke:none;" d="M3.5097 0 C1.4199 0 0 1.5401 0 3.8204 C0 6.1006 1.4199 7.6407 3.5205 7.6407 C4.4004 7.6407 5.1904 7.3702 5.7803 6.8702 C6.5703 6.2002 7.04 5.0704 7.04 3.8799 C7.04 1.5303 5.6504 0 3.5097 0 Z M3.5097 0.8204 C5.0898 0.8204 6.1103 2.0206 6.1103 3.8604 C6.1103 5.6202 5.0605 6.8204 3.5205 6.8204 C1.9697 6.8204 0.9297 5.6202 0.9297 3.8204 C0.9297 2.0206 1.9697 0.8204 3.5097 0.8204 Z" transform="translate(12.6299, 63.5898)"/>
   <path style="fill:#000000; fill-rule:nonzero;stroke:none;" d="M0 0.75 L0.7002 0 L20.1006 19.4004 L14.9004 15.6006 L0 0.75 Z" transform="translate(20.5996, 69.7998)"/>
   <path style="fill:#000000; fill-rule:nonzero;stroke:none;" d="M0 0.7002 L0.7002 0 L16.4502 15.75 L15.75 16.4502 L0 0.7002 Z" transform="translate(18.0498, 72.3496)"/>
   <path style="fill:#000000; fill-rule:evenodd;stroke:none;" d="M4.68 3.96973 L4.68 7.29004 L5.61 7.29004 L5.61 0 L4.68 0 L4.68 3.15039 L0.93 3.15039 L0.93 0 L0 0 L0 7.29004 L0.94 7.29004 L0.94 3.96973 L4.68 3.96973 Z" transform="translate(159.83, 3.20996)"/>
   <path style="fill:#000000; fill-rule:nonzero;stroke:none;" d="M0 0 L1 0 L1 24.0498 L0.5 24.4502 L0 24.0498 L0 0 Z" transform="translate(161.35, 12.5498)"/>
   <path style="fill:#000000; fill-rule:evenodd;stroke:none;" d="M3.5097 0 C1.4199 0 0 1.54 0 3.82 C0 6.1 1.4199 7.64 3.5205 7.64 C4.4004 7.64 5.1904 7.37 5.7803 6.87 C6.5703 6.2 7.04 5.07 7.04 3.88 C7.04 1.53 5.6504 0 3.5097 0 Z M3.5097 0.82 C5.0898 0.82 6.1103 2.02 6.1103 3.86 C6.1103 5.62 5.0605 6.82 3.5205 6.82 C1.9697 6.82 0.9297 5.62 0.9297 3.82 C0.9297 2.02 1.9697 0.82 3.5097 0.82 Z" transform="translate(86.6299, 187.34)"/>
   <path style="fill:#000000; fill-rule:evenodd;stroke:none;" d="M2.085 0 C0.78 1.365 0 3.075 0 4.598 C0 5.49 0.217 6.42 0.585 7.066 L0.997 7.066 C0.719 6.346 0.585 5.641 0.585 4.875 C0.585 3.21 1.237 1.545 2.497 0 L2.085 0 Z" transform="translate(108.848, 168.282)"/>
   <path style="fill:#000000; fill-rule:evenodd;stroke:none;" d="M4.627 1.696 C4.672 1.486 4.687 1.388 4.687 1.276 C4.687 0.953 4.529 0.608 4.282 0.39 C3.975 0.12 3.577 0 2.992 0 C2.22 0 1.612 0.218 1.207 0.638 C0.899 0.953 0.667 1.486 0.667 1.868 C0.667 2.34 0.997 2.738 1.5 2.88 L2.782 3.241 C3.382 3.413 3.63 3.63 3.63 3.991 C3.63 4.223 3.487 4.508 3.277 4.703 C2.97 4.981 2.527 5.123 1.927 5.123 C1.079 5.123 0.689 4.808 0.689 4.125 C0.689 4.028 0.697 3.96 0.72 3.818 L0.067 3.818 C0.015 4.013 0 4.133 0 4.29 C0 5.191 0.675 5.731 1.807 5.731 C2.595 5.731 3.255 5.513 3.697 5.101 C4.079 4.748 4.35 4.201 4.35 3.781 C4.35 3.585 4.282 3.375 4.17 3.196 C4.005 2.933 3.787 2.783 3.435 2.686 L2.144 2.318 C1.567 2.153 1.387 2.003 1.387 1.673 C1.387 1.411 1.5 1.178 1.717 0.976 C1.994 0.728 2.362 0.608 2.857 0.608 C3.277 0.608 3.592 0.691 3.757 0.84 C3.899 0.968 3.997 1.208 3.997 1.425 C3.997 1.493 3.989 1.545 3.967 1.696 L4.627 1.696 Z" transform="translate(111.168, 168.192)"/>
   <path style="fill:#000000; fill-rule:evenodd;stroke:none;" d="M0.413 7.066 C0.885 6.571 1.328 5.978 1.673 5.356 C2.228 4.358 2.491 3.406 2.491 2.415 C2.491 1.568 2.266 0.623 1.913 0 L1.5 0 C1.785 0.728 1.913 1.433 1.913 2.236 C1.913 3.856 1.245 5.543 0 7.066 L0.413 7.066 Z" transform="translate(115.447, 168.282)"/>
   <path style="fill:#000000; fill-rule:evenodd;stroke:none;" d="M2.085 0 C0.78 1.365 0 3.075 0 4.598 C0 5.49 0.217 6.42 0.585 7.066 L0.997 7.066 C0.719 6.346 0.585 5.641 0.585 4.875 C0.585 3.21 1.237 1.545 2.497 0 L2.085 0 Z" transform="translate(108.848, 168.282)"/>
   <path style="fill:#000000; fill-rule:evenodd;stroke:none;" d="M4.627 1.696 C4.672 1.486 4.687 1.388 4.687 1.276 C4.687 0.953 4.529 0.608 4.282 0.39 C3.975 0.12 3.577 0 2.992 0 C2.22 0 1.612 0.218 1.207 0.638 C0.899 0.953 0.667 1.486 0.667 1.868 C0.667 2.34 0.997 2.738 1.5 2.88 L2.782 3.241 C3.382 3.413 3.63 3.63 3.63 3.991 C3.63 4.223 3.487 4.508 3.277 4.703 C2.97 4.981 2.527 5.123 1.927 5.123 C1.079 5.123 0.689 4.808 0.689 4.125 C0.689 4.028 0.697 3.96 0.72 3.818 L0.067 3.818 C0.015 4.013 0 4.133 0 4.29 C0 5.191 0.675 5.731 1.807 5.731 C2.595 5.731 3.255 5.513 3.697 5.101 C4.079 4.748 4.35 4.201 4.35 3.781 C4.35 3.585 4.282 3.375 4.17 3.196 C4.005 2.933 3.787 2.783 3.435 2.686 L2.144 2.318 C1.567 2.153 1.387 2.003 1.387 1.673 C1.387 1.411 1.5 1.178 1.717 0.976 C1.994 0.728 2.362 0.608 2.857 0.608 C3.277 0.608 3.592 0.691 3.757 0.84 C3.899 0.968 3.997 1.208 3.997 1.425 C3.997 1.493 3.989 1.545 3.967 1.696 L4.627 1.696 Z" transform="translate(111.168, 168.192)"/>
   <path style="fill:#000000; fill-rule:evenodd;stroke:none;" d="M0.413 7.066 C0.885 6.571 1.328 5.978 1.673 5.356 C2.228 4.358 2.491 3.406 2.491 2.415 C2.491 1.568 2.266 0.623 1.913 0 L1.5 0 C1.785 0.728 1.913 1.433 1.913 2.236 C1.913 3.856 1.245 5.543 0 7.066 L0.413 7.066 Z" transform="translate(115.447, 168.282)"/>
   <path style="fill:#000000; fill-rule:evenodd;stroke:none;" d="M2.085 0 C0.78 1.365 0 3.075 0 4.598 C0 5.49 0.217 6.42 0.585 7.066 L0.997 7.066 C0.719 6.346 0.585 5.641 0.585 4.875 C0.585 3.21 1.237 1.545 2.497 0 L2.085 0 Z" transform="translate(142.098, 180.782)"/>
   <path style="fill:#000000; fill-rule:evenodd;stroke:none;" d="M1.208 3.113 L3 3.113 C3.488 3.113 3.758 3.308 3.758 3.675 C3.758 3.803 3.736 3.96 3.698 4.125 C3.518 4.875 3.518 4.875 3.518 5.115 C3.518 5.228 3.526 5.311 3.548 5.468 L4.396 5.468 L4.433 5.295 C4.335 5.205 4.276 5.063 4.276 4.898 C4.276 4.808 4.29 4.681 4.321 4.523 C4.418 4.013 4.478 3.623 4.478 3.488 C4.478 3.158 4.38 3 4.028 2.768 C4.321 2.603 4.441 2.521 4.575 2.401 C4.875 2.123 5.078 1.62 5.078 1.156 C5.078 0.361 4.643 0 3.683 0 L1.163 0 L0 5.468 L0.705 5.468 L1.208 3.113 Z M1.335 2.498 L1.741 0.615 L3.465 0.615 C3.863 0.615 4.058 0.668 4.2 0.825 C4.298 0.931 4.358 1.103 4.358 1.283 C4.358 1.561 4.245 1.891 4.08 2.101 C3.863 2.37 3.548 2.498 3.068 2.498 L1.335 2.498 Z" transform="translate(144.447, 180.782)"/>
   <path style="fill:#000000; fill-rule:evenodd;stroke:none;" d="M0.413 7.066 C0.885 6.571 1.328 5.978 1.673 5.356 C2.228 4.358 2.491 3.406 2.491 2.415 C2.491 1.568 2.266 0.623 1.913 0 L1.5 0 C1.785 0.728 1.913 1.433 1.913 2.236 C1.913 3.856 1.245 5.543 0 7.066 L0.413 7.066 Z" transform="translate(148.947, 180.782)"/>
   <path style="fill:#000000; fill-rule:evenodd;stroke:none;" d="M2.085 0 C0.78 1.365 0 3.075 0 4.598 C0 5.49 0.217 6.42 0.585 7.066 L0.997 7.066 C0.719 6.346 0.585 5.641 0.585 4.875 C0.585 3.21 1.237 1.545 2.497 0 L2.085 0 Z" transform="translate(142.098, 180.782)"/>
   <path style="fill:#000000; fill-rule:evenodd;stroke:none;" d="M1.208 3.113 L3 3.113 C3.488 3.113 3.758 3.308 3.758 3.675 C3.758 3.803 3.736 3.96 3.698 4.125 C3.518 4.875 3.518 4.875 3.518 5.115 C3.518 5.228 3.526 5.311 3.548 5.468 L4.396 5.468 L4.433 5.295 C4.335 5.205 4.276 5.063 4.276 4.898 C4.276 4.808 4.29 4.681 4.321 4.523 C4.418 4.013 4.478 3.623 4.478 3.488 C4.478 3.158 4.38 3 4.028 2.768 C4.321 2.603 4.441 2.521 4.575 2.401 C4.875 2.123 5.078 1.62 5.078 1.156 C5.078 0.361 4.643 0 3.683 0 L1.163 0 L0 5.468 L0.705 5.468 L1.208 3.113 Z M1.335 2.498 L1.741 0.615 L3.465 0.615 C3.863 0.615 4.058 0.668 4.2 0.825 C4.298 0.931 4.358 1.103 4.358 1.283 C4.358 1.561 4.245 1.891 4.08 2.101 C3.863 2.37 3.548 2.498 3.068 2.498 L1.335 2.498 Z" transform="translate(144.447, 180.782)"/>
   <path style="fill:#000000; fill-rule:evenodd;stroke:none;" d="M0.413 7.066 C0.885 6.571 1.328 5.978 1.673 5.356 C2.228 4.358 2.491 3.406 2.491 2.415 C2.491 1.568 2.266 0.623 1.913 0 L1.5 0 C1.785 0.728 1.913 1.433 1.913 2.236 C1.913 3.856 1.245 5.543 0 7.066 L0.413 7.066 Z" transform="translate(148.947, 180.782)"/>
   <path style="fill:#000000; fill-rule:evenodd;stroke:none;" d="M2.085 0 C0.78 1.365 0 3.075 0 4.598 C0 5.49 0.217 6.42 0.585 7.066 L0.997 7.066 C0.719 6.346 0.585 5.641 0.585 4.875 C0.585 3.21 1.237 1.545 2.497 0 L2.085 0 Z" transform="translate(117.598, 147.032)"/>
   <path style="fill:#000000; fill-rule:evenodd;stroke:none;" d="M4.627 1.696 C4.672 1.486 4.687 1.388 4.687 1.276 C4.687 0.953 4.529 0.608 4.282 0.39 C3.975 0.12 3.577 0 2.992 0 C2.22 0 1.612 0.218 1.207 0.638 C0.899 0.953 0.667 1.486 0.667 1.868 C0.667 2.34 0.997 2.738 1.5 2.88 L2.782 3.241 C3.382 3.413 3.63 3.63 3.63 3.991 C3.63 4.223 3.487 4.508 3.277 4.703 C2.97 4.981 2.527 5.123 1.927 5.123 C1.079 5.123 0.689 4.808 0.689 4.125 C0.689 4.028 0.697 3.96 0.72 3.818 L0.067 3.818 C0.015 4.013 0 4.133 0 4.29 C0 5.191 0.675 5.731 1.807 5.731 C2.595 5.731 3.255 5.513 3.697 5.101 C4.079 4.748 4.35 4.201 4.35 3.781 C4.35 3.585 4.282 3.375 4.17 3.196 C4.005 2.933 3.787 2.783 3.435 2.686 L2.144 2.318 C1.567 2.153 1.387 2.003 1.387 1.673 C1.387 1.411 1.5 1.178 1.717 0.976 C1.994 0.728 2.362 0.608 2.857 0.608 C3.277 0.608 3.592 0.691 3.757 0.84 C3.899 0.968 3.997 1.208 3.997 1.425 C3.997 1.493 3.989 1.545 3.967 1.696 L4.627 1.696 Z" transform="translate(119.918, 146.942)"/>
   <path style="fill:#000000; fill-rule:evenodd;stroke:none;" d="M0.413 7.066 C0.885 6.571 1.328 5.978 1.673 5.356 C2.228 4.358 2.491 3.406 2.491 2.415 C2.491 1.568 2.266 0.623 1.913 0 L1.5 0 C1.785 0.728 1.913 1.433 1.913 2.236 C1.913 3.856 1.245 5.543 0 7.066 L0.413 7.066 Z" transform="translate(124.197, 147.032)"/>
   <path style="fill:#000000; fill-rule:evenodd;stroke:none;" d="M2.085 0 C0.78 1.365 0 3.075 0 4.598 C0 5.49 0.217 6.42 0.585 7.066 L0.997 7.066 C0.719 6.346 0.585 5.641 0.585 4.875 C0.585 3.21 1.237 1.545 2.497 0 L2.085 0 Z" transform="translate(117.598, 147.032)"/>
   <path style="fill:#000000; fill-rule:evenodd;stroke:none;" d="M4.627 1.696 C4.672 1.486 4.687 1.388 4.687 1.276 C4.687 0.953 4.529 0.608 4.282 0.39 C3.975 0.12 3.577 0 2.992 0 C2.22 0 1.612 0.218 1.207 0.638 C0.899 0.953 0.667 1.486 0.667 1.868 C0.667 2.34 0.997 2.738 1.5 2.88 L2.782 3.241 C3.382 3.413 3.63 3.63 3.63 3.991 C3.63 4.223 3.487 4.508 3.277 4.703 C2.97 4.981 2.527 5.123 1.927 5.123 C1.079 5.123 0.689 4.808 0.689 4.125 C0.689 4.028 0.697 3.96 0.72 3.818 L0.067 3.818 C0.015 4.013 0 4.133 0 4.29 C0 5.191 0.675 5.731 1.807 5.731 C2.595 5.731 3.255 5.513 3.697 5.101 C4.079 4.748 4.35 4.201 4.35 3.781 C4.35 3.585 4.282 3.375 4.17 3.196 C4.005 2.933 3.787 2.783 3.435 2.686 L2.144 2.318 C1.567 2.153 1.387 2.003 1.387 1.673 C1.387 1.411 1.5 1.178 1.717 0.976 C1.994 0.728 2.362 0.608 2.857 0.608 C3.277 0.608 3.592 0.691 3.757 0.84 C3.899 0.968 3.997 1.208 3.997 1.425 C3.997 1.493 3.989 1.545 3.967 1.696 L4.627 1.696 Z" transform="translate(119.918, 146.942)"/>
   <path style="fill:#000000; fill-rule:evenodd;stroke:none;" d="M0.413 7.066 C0.885 6.571 1.328 5.978 1.673 5.356 C2.228 4.358 2.491 3.406 2.491 2.415 C2.491 1.568 2.266 0.623 1.913 0 L1.5 0 C1.785 0.728 1.913 1.433 1.913 2.236 C1.913 3.856 1.245 5.543 0 7.066 L0.413 7.066 Z" transform="translate(124.197, 147.032)"/>
   <path style="fill:#000000; fill-rule:evenodd;stroke:none;" d="M2.0849 0 C0.7802 1.365 0 3.075 0 4.598 C0 5.49 0.2177 6.42 0.5849 7.066 L0.997 7.066 C0.7197 6.346 0.5849 5.641 0.5849 4.875 C0.5849 3.21 1.2373 1.545 2.497 0 L2.0849 0 Z" transform="translate(95.3477, 174.282)"/>
   <path style="fill:#000000; fill-rule:evenodd;stroke:none;" d="M4.627 1.696 C4.672 1.486 4.687 1.388 4.687 1.276 C4.687 0.953 4.529 0.608 4.282 0.39 C3.975 0.12 3.577 0 2.992 0 C2.2197 0 1.6123 0.218 1.207 0.638 C0.8994 0.953 0.667 1.486 0.667 1.868 C0.667 2.34 0.997 2.738 1.5 2.88 L2.782 3.241 C3.382 3.413 3.63 3.63 3.63 3.991 C3.63 4.223 3.487 4.508 3.277 4.703 C2.97 4.981 2.527 5.123 1.9267 5.123 C1.0791 5.123 0.6894 4.808 0.6894 4.125 C0.6894 4.028 0.6972 3.96 0.7197 3.818 L0.0674 3.818 C0.0146 4.013 0 4.133 0 4.29 C0 5.191 0.6748 5.731 1.8066 5.731 C2.595 5.731 3.255 5.513 3.697 5.101 C4.079 4.748 4.35 4.201 4.35 3.781 C4.35 3.585 4.282 3.375 4.17 3.196 C4.005 2.933 3.787 2.783 3.435 2.686 L2.1445 2.318 C1.5674 2.153 1.3867 2.003 1.3867 1.673 C1.3867 1.411 1.5 1.178 1.7168 0.976 C1.9941 0.728 2.362 0.608 2.857 0.608 C3.277 0.608 3.592 0.691 3.757 0.84 C3.899 0.968 3.997 1.208 3.997 1.425 C3.997 1.493 3.989 1.545 3.967 1.696 L4.627 1.696 Z" transform="translate(97.668, 174.192)"/>
   <path style="fill:#000000; fill-rule:evenodd;stroke:none;" d="M0.413 7.066 C0.885 6.571 1.328 5.978 1.673 5.356 C2.228 4.358 2.491 3.406 2.491 2.415 C2.491 1.568 2.266 0.623 1.913 0 L1.5 0 C1.785 0.728 1.913 1.433 1.913 2.236 C1.913 3.856 1.245 5.543 0 7.066 L0.413 7.066 Z" transform="translate(101.947, 174.282)"/>
   <path style="fill:#000000; fill-rule:evenodd;stroke:none;" d="M2.0849 0 C0.7802 1.365 0 3.075 0 4.598 C0 5.49 0.2177 6.42 0.5849 7.066 L0.997 7.066 C0.7197 6.346 0.5849 5.641 0.5849 4.875 C0.5849 3.21 1.2373 1.545 2.497 0 L2.0849 0 Z" transform="translate(95.3477, 174.282)"/>
   <path style="fill:#000000; fill-rule:evenodd;stroke:none;" d="M4.627 1.696 C4.672 1.486 4.687 1.388 4.687 1.276 C4.687 0.953 4.529 0.608 4.282 0.39 C3.975 0.12 3.577 0 2.992 0 C2.2197 0 1.6123 0.218 1.207 0.638 C0.8994 0.953 0.667 1.486 0.667 1.868 C0.667 2.34 0.997 2.738 1.5 2.88 L2.782 3.241 C3.382 3.413 3.63 3.63 3.63 3.991 C3.63 4.223 3.487 4.508 3.277 4.703 C2.97 4.981 2.527 5.123 1.9267 5.123 C1.0791 5.123 0.6894 4.808 0.6894 4.125 C0.6894 4.028 0.6972 3.96 0.7197 3.818 L0.0674 3.818 C0.0146 4.013 0 4.133 0 4.29 C0 5.191 0.6748 5.731 1.8066 5.731 C2.595 5.731 3.255 5.513 3.697 5.101 C4.079 4.748 4.35 4.201 4.35 3.781 C4.35 3.585 4.282 3.375 4.17 3.196 C4.005 2.933 3.787 2.783 3.435 2.686 L2.1445 2.318 C1.5674 2.153 1.3867 2.003 1.3867 1.673 C1.3867 1.411 1.5 1.178 1.7168 0.976 C1.9941 0.728 2.362 0.608 2.857 0.608 C3.277 0.608 3.592 0.691 3.757 0.84 C3.899 0.968 3.997 1.208 3.997 1.425 C3.997 1.493 3.989 1.545 3.967 1.696 L4.627 1.696 Z" transform="translate(97.668, 174.192)"/>
   <path style="fill:#000000; fill-rule:evenodd;stroke:none;" d="M0.413 7.066 C0.885 6.571 1.328 5.978 1.673 5.356 C2.228 4.358 2.491 3.406 2.491 2.415 C2.491 1.568 2.266 0.623 1.913 0 L1.5 0 C1.785 0.728 1.913 1.433 1.913 2.236 C1.913 3.856 1.245 5.543 0 7.066 L0.413 7.066 Z" transform="translate(101.947, 174.282)"/>
   <path style="fill:#000000; fill-rule:nonzero;stroke:none;" d="M20.25 18.8 L19.5 19.5 L0 0 L2.75 2.05 L3.9502 2.55 L20.25 18.8 Z" transform="translate(65.7998, 167.95)"/>
   <path style="fill:#000000; fill-rule:nonzero;stroke:none;" d="M21.2 0 L21.35 0.5 L21.25 1.15 L0.5 12.95 L0 12.1 L21.2 0 Z" transform="translate(94.5, 175.85)"/>
   <path style="fill:#000000; fill-rule:nonzero;stroke:none;" d="M28.95 0 L30.15 0.5 L30.2 1 L1.5 1 L0.15 0.5 L0 0 L28.95 0 Z" transform="translate(115.7, 175.85)"/>
   <path style="fill:#000000; fill-rule:nonzero;stroke:none;" d="M0 0.6 L0.1 0 L1.3 0.5 L21.4 20.65 L21.3 21.2 L20.1 20.7 L0 0.6 Z" transform="translate(124.55, 155.15)"/>
   <path style="fill:#000000; fill-rule:nonzero;stroke:none;" d="M0.1504 15.85 L0 15.35 L0.1504 14.7 L25.9502 0 L26.1002 0.5 L26.0002 1.1 L0.1504 15.85 Z" transform="translate(98.5498, 154.65)"/>
   <path style="fill:#000000; fill-rule:nonzero;stroke:none;" d="M1.2002 1 L0 0.5 L2.9502 0 L29.0498 0 L30 0.5 L30.1504 1 L1.2002 1 Z" transform="translate(68.5498, 169.5)"/>
   <path style="fill:#000000; fill-rule:nonzero;stroke:none;" d="M21.8 17.75 L20.8 25.25 L0 0.65 L0.1 0 L1.45 0.5 L21.8 17.75 Z" transform="translate(115.75, 176.35)"/>
   <path style="fill:#000000; fill-rule:evenodd;stroke:none;" d="M3.51 0 C1.42 0 0 1.54 0 3.82 C0 6.1 1.42 7.64 3.52 7.64 C4.4 7.64 5.19 7.37 5.78 6.87 C6.57 6.2 7.04 5.07 7.04 3.88 C7.04 1.53 5.65 0 3.51 0 Z M3.51 0.82 C5.09 0.82 6.11 2.02 6.11 3.86 C6.11 5.62 5.06 6.82 3.52 6.82 C1.97 6.82 0.93 5.62 0.93 3.82 C0.93 2.02 1.97 0.82 3.51 0.82 Z" transform="translate(133.88, 223.84)"/>
   <path style="fill:#000000; fill-rule:evenodd;stroke:none;" d="M4.68 3.97 L4.68 7.29 L5.61 7.29 L5.61 0 L4.68 0 L4.68 3.15 L0.93 3.15 L0.93 0 L0 0 L0 7.29 L0.94 7.29 L0.94 3.97 L4.68 3.97 Z" transform="translate(142.08, 223.96)"/>
   <path style="fill:#000000; fill-rule:nonzero;stroke:none;" d="M1 27.65 L0 27.65 L0 7.5 L1 0 L1 27.65 Z" transform="translate(136.55, 194.1)"/>
   <path style="fill:#000000; fill-rule:evenodd;stroke:none;" d="M3.51 0 C1.42 0 0 1.54 0 3.82 C0 6.1 1.42 7.64 3.52 7.64 C4.4 7.64 5.19 7.37 5.78 6.87 C6.57 6.2 7.04 5.07 7.04 3.88 C7.04 1.53 5.65 0 3.51 0 Z M3.51 0.82 C5.09 0.82 6.11 2.02 6.11 3.86 C6.11 5.62 5.06 6.82 3.52 6.82 C1.97 6.82 0.93 5.62 0.93 3.82 C0.93 2.02 1.97 0.82 3.51 0.82 Z" transform="translate(172.88, 162.09)"/>
   <path style="fill:#000000; fill-rule:nonzero;stroke:none;" d="M24.7 0 L25 0.95 L0.05 9.5 L0 9 L0.1 8.45 L24.7 0 Z" transform="translate(145.85, 167.35)"/>
   <path style="fill:#000000; fill-rule:evenodd;stroke:none;" d="M3.51 0 C1.42 0 0 1.54 0 3.82 C0 6.1 1.42 7.64 3.52 7.64 C4.4 7.64 5.19 7.37 5.78 6.87 C6.57 6.2 7.04 5.07 7.04 3.88 C7.04 1.53 5.65 0 3.51 0 Z M3.51 0.82 C5.09 0.82 6.11 2.02 6.11 3.86 C6.11 5.62 5.06 6.82 3.52 6.82 C1.97 6.82 0.93 5.62 0.93 3.82 C0.93 2.02 1.97 0.82 3.51 0.82 Z" transform="translate(151.63, 151.34)"/>
   <path style="fill:#000000; fill-rule:evenodd;stroke:none;" d="M4.68 3.97 L4.68 7.29 L5.61 7.29 L5.61 0 L4.68 0 L4.68 3.15 L0.93 3.15 L0.93 0 L0 0 L0 7.29 L0.94 7.29 L0.94 3.97 L4.68 3.97 Z" transform="translate(159.83, 151.46)"/>
   <path style="fill:#000000; fill-rule:nonzero;stroke:none;" d="M24.65 0 L24.65 1 L1.35 1 L0.15 0.5 L0 0 L24.65 0 Z" transform="translate(124.5, 154.65)"/>
   <path style="fill:#000000; fill-rule:evenodd;stroke:none;" d="M4.6797 3.97 L4.6797 7.29 L5.6103 7.29 L5.6103 0 L4.6797 0 L4.6797 3.15 L0.9297 3.15 L0.9297 0 L0 0 L0 7.29 L0.9394 7.29 L0.9394 3.97 L4.6797 3.97 Z" transform="translate(76.3301, 149.21)"/>
   <path style="fill:#000000; fill-rule:evenodd;stroke:none;" d="M5.7002 0 L4.8203 0 L4.8203 5.96 L1.0097 0 L0 0 L0 7.29 L0.8798 7.29 L0.8798 1.38 L4.6504 7.29 L5.7002 7.29 L5.7002 0 Z" transform="translate(83.5098, 149.21)"/>
   <path style="fill:#000000; fill-rule:nonzero;stroke:none;" d="M0 0.55 L0.8496 0 L8.9502 11.95 L8.7998 12.6 L7.8496 12.1 L0 0.55 Z" transform="translate(89.75, 157.4)"/>
   <path style="fill:#000000; fill-rule:nonzero;stroke:none;" d="M10.7498 0 L11.6498 0.5 L0.8496 19.15 L0 18.65 L10.7498 0 Z" transform="translate(89.4502, 129.1)"/>
   <path style="fill:#000000; fill-rule:evenodd;stroke:none;" d="M4.68 3.97 L4.68 7.29 L5.61 7.29 L5.61 0 L4.68 0 L4.68 3.15 L0.93 3.15 L0.93 0 L0 0 L0 7.29 L0.94 7.29 L0.94 3.97 L4.68 3.97 Z" transform="translate(194.58, 182.71)"/>
   <path style="fill:#000000; fill-rule:nonzero;stroke:none;" d="M12.55 11.85 L11.85 12.55 L0 0.7 L0.7 0 L12.55 11.85 Z" transform="translate(179.65, 169.65)"/>
   <path style="fill:#000000; fill-rule:evenodd;stroke:none;" d="M12.24 11.97 L12.168 11.97 C11.466 11.97 11.178 11.592 10.278 9.468 L6.264 0 L5.76 0 L1.764 9.864 C1.08 11.538 0.864 11.808 0 11.97 L0 12.42 L3.654 12.42 L3.654 11.97 C2.592 11.898 2.178 11.7 2.178 11.232 C2.178 10.998 2.322 10.548 2.7 9.576 L2.97 8.874 L7.02 8.874 C7.632 10.278 7.848 10.926 7.848 11.322 C7.848 11.7 7.614 11.88 6.984 11.916 C6.894 11.916 6.66 11.934 6.408 11.97 L6.408 12.42 L12.24 12.42 L12.24 11.97 Z M3.24 8.172 L4.932 3.798 L6.75 8.172 L3.24 8.172 Z" transform="translate(107.162, 189.58)"/>
   <path style="fill:#000000; fill-rule:evenodd;stroke:none;" d="M0 0 L0 0.4502 C1.2422 0.5225 1.584 0.8096 1.584 1.7276 L1.584 10.4405 C1.584 11.3584 1.3135 11.5742 0 11.7178 L0 12.168 L5.7959 12.168 C8.8379 12.168 10.8535 10.8184 10.8535 8.7842 C10.8535 7.9737 10.5117 7.2364 9.8818 6.6778 C9.2519 6.1377 8.6396 5.8682 7.3799 5.5977 C9.4678 4.9864 10.2422 4.2481 10.2422 2.8799 C10.2422 1.0264 8.5683 0 5.5615 0 L0 0 Z M4.4639 5.9942 L5.0039 5.9942 C6.8584 5.9942 7.7578 6.9659 7.7578 8.9463 C7.7578 10.6924 7.0195 11.5918 5.5615 11.5918 C4.7695 11.5918 4.4639 11.2862 4.4639 10.4942 L4.4639 5.9942 Z M4.4639 1.4219 C4.4639 0.7744 4.7344 0.5401 5.4355 0.5401 C6.6963 0.5401 7.2715 1.3145 7.2715 3.0059 C7.2715 4.8955 6.6777 5.4004 4.4639 5.4541 L4.4639 1.4219 Z" transform="translate(45.2881, 86.082)"/>
   <path style="fill:#000000; fill-rule:evenodd;stroke:none;" d="M10.944 9.7012 C9.882 10.8174 9.306 11.249 8.424 11.5918 C7.902 11.8076 7.308 11.915 6.804 11.915 C5.616 11.915 4.482 11.2852 3.96 10.3496 C3.438 9.3955 3.186 8.0996 3.186 6.2998 C3.186 2.5732 4.338 0.5937 6.498 0.5937 C7.344 0.5937 8.118 0.918 8.892 1.6016 C9.666 2.3037 10.08 2.8975 10.71 4.2656 L11.16 4.2656 L11.16 0.0537 L10.674 0.0537 C10.422 0.6836 10.224 0.8818 9.882 0.8818 C9.72 0.8818 9.45 0.8096 9.054 0.6299 C7.992 0.1973 7.128 0 6.264 0 C2.682 0 0 2.7715 0 6.4434 C0 10.1514 2.646 12.7793 6.372 12.7793 C7.65 12.7793 8.712 12.4736 9.702 11.8076 C10.278 11.4111 10.674 11.0518 11.484 10.1514 L10.944 9.7012 Z" transform="translate(137.882, 17.5625)"/>
   <path style="fill:#000000; fill-rule:evenodd;stroke:none;" d="M4.68 3.97 L4.68 7.29 L5.61 7.29 L5.61 0 L4.68 0 L4.68 3.15 L0.93 3.15 L0.93 0 L0 0 L0 7.29 L0.94 7.29 L0.94 3.97 L4.68 3.97 Z" transform="translate(186.08, 135.46)"/>
   <path style="fill:#000000; fill-rule:nonzero;stroke:none;" d="M1 17.65 L0 17.65 L0 0 L1 0 L1 17.65 Z" transform="translate(187.7, 115.9)"/>
   <path style="fill:#000000; fill-rule:nonzero;stroke:none;" d="M1 0 L1.9 0.4 L0.9 2.65 L0 2.25 L1 0 Z" transform="translate(184.1, 144.75)"/>
   <path style="fill:#000000; fill-rule:nonzero;stroke:none;" d="M1 0 L1.95 0.4 L0.9 2.65 L0 2.25 L1 0 Z" transform="translate(182.05, 149.25)"/>
   <path style="fill:#000000; fill-rule:nonzero;stroke:none;" d="M1.05 0 L1.95 0.45 L0.95 2.65 L0 2.25 L1.05 0 Z" transform="translate(180, 153.7)"/>
   <path style="fill:#000000; fill-rule:nonzero;stroke:none;" d="M1 0 L1.9 0.4 L0.9 2.65 L0 2.25 L1 0 Z" transform="translate(178, 158.2)"/>
  </g>
 </g>
</svg>
