<?xml version="1.0" encoding="UTF-8" standalone="no"?>
<!-- Created with Inkscape (http://www.inkscape.org/) -->

<svg
   xmlns:dc="http://purl.org/dc/elements/1.1/"
   xmlns:cc="http://creativecommons.org/ns#"
   xmlns:rdf="http://www.w3.org/1999/02/22-rdf-syntax-ns#"
   xmlns:svg="http://www.w3.org/2000/svg"
   xmlns="http://www.w3.org/2000/svg"
   xmlns:sodipodi="http://sodipodi.sourceforge.net/DTD/sodipodi-0.dtd"
   xmlns:inkscape="http://www.inkscape.org/namespaces/inkscape"
   width="6236.2212"
   height="4535.4302"
   id="svg2"
   version="1.1"
   inkscape:version="0.48.4 r9939"
   sodipodi:docname="New document 1">
  <defs
     id="defs4" />
  <sodipodi:namedview
     id="base"
     pagecolor="#ffffff"
     bordercolor="#666666"
     borderopacity="1.0"
     inkscape:pageopacity="0.0"
     inkscape:pageshadow="2"
     inkscape:zoom="0.10863826"
     inkscape:cx="3702.3145"
     inkscape:cy="1670.9357"
     inkscape:document-units="px"
     inkscape:current-layer="g3858"
     showgrid="false"
     fit-margin-top="0"
     fit-margin-left="0"
     fit-margin-right="0"
     fit-margin-bottom="0"
     inkscape:window-width="1920"
     inkscape:window-height="1096"
     inkscape:window-x="-8"
     inkscape:window-y="-8"
     inkscape:window-maximized="1" />
  <metadata
     id="metadata7">
    <rdf:RDF>
      <cc:Work
         rdf:about="">
        <dc:format>image/svg+xml</dc:format>
        <dc:type
           rdf:resource="http://purl.org/dc/dcmitype/StillImage" />
        <dc:title></dc:title>
      </cc:Work>
    </rdf:RDF>
  </metadata>
  <g
     inkscape:label="Layer 1"
     inkscape:groupmode="layer"
     id="layer1"
     transform="translate(2548.639,2047.0415)">
    <g
       id="g3858"
       transform="translate(-2548.639,-2273.8115)">
      <rect
         id="rect3454"
         height="4535.4302"
         width="6236.2212"
         y="226.77"
         x="0"
         style="fill:#6699ff" />
      <rect
         id="rect3456"
         height="2267.72"
         width="3118.1111"
         y="226.77"
         x="0"
         style="fill:#ffffff" />
      <rect
         id="rect3458"
         height="354.33099"
         width="3118.1069"
         y="439.367"
         x="3"
         style="fill:#29499d" />
      <rect
         id="rect3460"
         height="354.32999"
         width="3118.1069"
         y="1927.5551"
         x="3"
         style="fill:#29499d" />
      <path
         id="path3844"
         d="m 1136.431,1116.604 h 281.775 l 140.875,-244 140.85,244 h 281.75 l -140.875,244.025 140.875,244.024 h -281.75 l -140.85,244 -140.875,-244 h -281.775 l 140.9,-244.024 -140.9,-244.025 z m 368.375,0 h 108.525 l -54.25,-94 -54.275,94 z m 54.275,582.05 54.25,-94 h -108.525 l 54.275,94 z m 292.7,-169 -54.275,-94.024 -54.275,94.024 h 108.55 z m -476.875,0 -54.275,-94.024 -54.3,94.024 h 108.575 z m 0,-338.05 h -108.575 l 54.3,94.025 54.275,-94.025 z m 379.3,169.026 -97.575,-169.025 h -195.125 l -97.575,169.025 97.575,169.024 h 195.125 l 97.575,-169.024 z m 97.575,-169.026 H 1743.23 l 54.275,94.025 54.276,-94.025 z"
         clip-rule="evenodd"
         inkscape:connector-curvature="0"
         style="fill:#29499d;fill-rule:evenodd" />
      <g
         id="g3846">
	<path
   id="path3848"
   d="m 5685.863,3363.081 c -3.486,13.161 -10.361,28.063 -20.619,44.711 -12.189,18.384 -20.996,32.321 -26.418,41.808 -22.84,43.157 -36.771,70.354 -41.807,81.581 -14.125,31.742 -22.738,60.967 -25.834,87.675 -5.229,35.031 -3.103,71.322 6.384,108.871 0.386,1.746 0.874,3.488 1.452,5.229 4.645,17.226 10.74,34.261 18.292,51.096 6.578,14.9 14.318,29.713 23.226,44.422 0.387,0.578 12.289,20.611 35.707,60.095 14.324,24.003 23.714,45.192 28.165,63.581 1.741,20.709 -5.517,38.904 -21.774,54.583 -15.678,15.288 -33.971,23.13 -54.871,23.516 -1.939,0 -41.52,-1.741 -118.744,-5.229 -47.614,-2.126 -86.904,1.356 -117.871,10.452 -39.29,12.775 -74.905,35.422 -106.842,67.937 -28.84,29.616 -52.45,64.937 -70.84,105.968 -7.932,-17.035 -12.191,-38.321 -12.77,-63.871 0.771,-29.226 0.965,-51.096 0.578,-65.612 3.682,-6.97 9.289,-14.228 16.842,-21.774 9.096,-8.324 15.871,-14.612 20.322,-18.871 71.997,-56.517 140.416,-87.098 205.258,-91.741 23.61,-3.487 51.68,-4.065 84.193,-1.741 18.773,1.355 46.838,3.964 84.193,7.837 1.741,-9.096 -0.096,-19.257 -5.517,-30.484 -7.354,-12.39 -12.481,-21.677 -15.384,-27.869 -22.07,-42.386 -38.617,-78.099 -49.65,-107.131 -0.578,-1.355 -1.061,-2.71 -1.451,-4.065 -6.385,-17.42 -11.518,-34.453 -15.384,-51.096 -5.229,-20.516 -8.518,-40.356 -9.872,-59.517 -5.229,-55.354 7.449,-115.063 38.031,-179.128 5.421,-14.322 16.551,-34.94 33.387,-61.842 16.258,-26.32 27.002,-47.029 32.225,-62.13 -50.318,-0.385 -88.061,-1.06 -113.227,-2.029 -44.512,-1.741 -81.58,-8.034 -111.19,-18.871 -19.159,-8.323 -29.905,-12.968 -32.226,-13.938 -12.004,-5.607 -22.357,-11.029 -31.067,-16.256 -3.674,-6 -7.45,-15.68 -11.323,-29.033 -4.061,-13.552 -7.836,-23.322 -11.318,-29.322 -6.776,-14.714 -12.196,-25.55 -16.262,-32.52 -6.771,-12.576 -14.902,-21.189 -24.383,-25.834 -8.518,10.253 -18.872,25.16 -31.068,44.706 -15.679,-12.963 -26.805,-23.901 -33.387,-32.804 -1.935,-7.932 -3.969,-20.419 -6.097,-37.453 -1.933,-16.455 -3.968,-28.84 -6.096,-37.162 -11.612,-41.225 -30.87,-76.353 -57.776,-105.385 -9.672,6.969 -17.516,18.093 -23.514,33.387 -3.294,8.709 -7.65,21.87 -13.064,39.482 -4.065,10.451 -8.806,27.195 -14.227,50.229 -5.229,22.256 -10.162,39.002 -14.807,50.223 -8.709,-6.385 -31.646,-21.383 -68.811,-45 -7.932,15.101 -11.703,33.779 -11.317,56.035 0.194,5.222 2.223,24.479 6.097,57.775 -37.941,32.321 -81.195,55.932 -129.779,70.834 -48.578,15.1 -97.643,20.033 -147.191,14.812 -10.064,-0.386 -23.805,-2.229 -41.225,-5.518 -19.55,-3.681 -33.387,-5.902 -41.518,-6.68 -6,0.391 -9.48,3.192 -10.451,8.421 -0.775,5.035 0.777,9.48 4.645,13.354 11.613,16.064 30.291,45.97 56.034,89.711 15.095,33.291 26.708,68.033 34.839,104.228 12.385,40.646 16.059,78.772 11.029,114.389 -2.902,20.708 -6.192,38.32 -9.871,52.837 -0.579,1.74 -1.066,3.481 -1.452,5.228 -4.644,17.028 -10.452,32.321 -17.421,45.868 -1.74,2.902 -3.385,5.71 -4.932,8.42 -23.997,45.097 -53.518,88.646 -88.55,130.646 5.036,9.486 14.323,13.938 27.87,13.354 7.547,-0.193 18.871,-1.163 33.972,-2.902 36.188,1.547 64.739,3.486 85.646,5.805 31.352,3.488 59.414,9.097 84.193,16.843 88.061,21.483 147.771,60.382 179.128,116.706 4.259,6.192 6.385,15.871 6.385,29.033 0.192,13.938 1.747,23.81 4.649,29.617 2.904,4.258 7.156,8.709 12.77,13.354 3.098,2.71 7.746,6.674 13.938,11.901 -3.481,4.645 -9.288,11.421 -17.419,20.323 -6.385,8.323 -9.777,16.449 -10.162,24.388 1.742,12 6.097,22.353 13.064,31.062 7.746,10.066 17.229,15.197 28.455,15.391 14.323,0.771 34.157,1.162 59.516,1.162 28.063,0.193 47.904,0.482 59.516,0.868 -12.003,17.611 -23.033,31.067 -33.097,40.355 -14.518,13.161 -29.708,21.1 -45.585,23.805 -18.77,0.584 -35.803,-7.741 -51.096,-24.967 -15.293,-22.642 -26.514,-39.098 -33.676,-49.355 -16.065,-33.291 -28.16,-57.384 -36.291,-72.292 -14.518,-26.515 -28.936,-49.354 -43.26,-68.514 -19.932,-26.516 -47.614,-47.32 -83.031,-62.421 -29.803,-12.384 -63.871,-20.419 -102.191,-24.093 -20.13,-2.904 -50.717,-3.487 -91.746,-1.747 -40.646,1.747 -71.221,1.065 -91.742,-2.03 -11.613,-1.548 -22.064,-6.191 -31.352,-13.938 -9.095,-7.74 -15.486,-17.221 -19.166,-28.449 -5.223,-26.128 2.326,-53.42 22.648,-81.873 23.609,-33.093 42.193,-60.873 55.739,-83.32 3.487,-5.808 6.873,-11.518 10.161,-17.131 9.679,-17.612 18.1,-34.646 25.262,-51.096 3.097,-7.355 6,-14.613 8.71,-21.774 10.835,-22.647 14.901,-48.776 12.19,-78.388 -1.74,-20.901 -7.547,-47.132 -17.419,-78.676 -5.029,-16.064 -13.841,-35.129 -26.418,-57.197 -19.358,-34.063 -29.712,-52.35 -31.063,-54.867 -19.357,-33.297 -29.905,-51.873 -31.646,-55.746 -10.063,-22.256 -13.547,-42.963 -10.45,-62.13 0.771,-19.739 11.51,-34.062 32.226,-42.964 17.418,-7.354 36.483,-9.68 57.19,-6.97 57.486,6.577 102.584,8.999 135.289,7.259 50.325,-2.711 93.393,-14.324 129.194,-34.84 29.81,-18.967 56.999,-44.711 81.586,-77.225 20.321,-26.713 39.579,-59.034 57.771,-96.969 6.775,-10.258 16.744,-26.708 29.904,-49.355 12.969,-18.189 27.485,-29.906 43.549,-35.128 15.679,-3.103 31.262,-0.675 46.741,7.259 15.101,7.933 26.418,19.063 33.972,33.387 11.414,19.354 27.484,49.156 48.191,89.416 19.354,35.225 38.609,63.004 57.776,83.326 11.806,14.318 26.804,27.773 45,40.355 14.126,9.482 31.737,19.547 52.836,30.189 51.098,20.323 114.003,27.1 188.712,20.323 10.835,-0.579 27.291,-1.741 49.354,-3.481 19.16,-0.193 35.031,3.391 47.614,10.74 10.064,7.745 17.42,17.227 22.063,28.453 5.034,11.994 5.81,23.709 2.329,35.123 z m 278.709,542.905 c 1.549,11.613 3.58,28.937 6.097,51.97 0.579,13.739 2.319,34.356 5.224,61.841 1.938,24.581 1.649,45.193 -0.869,61.836 -1.355,5.999 -5.42,10.449 -12.196,13.353 -2.512,0.97 -8.71,2.422 -18.576,4.355 -14.13,2.903 -28.744,-0.192 -43.845,-9.288 -10.643,-6.584 -22.254,-16.744 -34.838,-30.483 -42,-53.807 -80.707,-105.776 -116.129,-155.901 9.293,-2.519 44.036,-8.807 104.228,-18.872 42.583,-7.354 76.357,-17.419 101.323,-30.194 3.872,13.93 7.066,31.061 9.581,51.383 z m -50.517,-54.577 c -15.1,4.06 -23.904,6.481 -26.416,7.258 -0.586,-16.841 -0.586,-33.779 0,-50.807 15.095,0 23.225,0.096 24.382,0.289 9.294,0.964 16.649,3.97 22.069,8.999 4.644,2.903 7.836,6.969 9.577,12.192 1.938,5.612 0.873,10.257 -3.192,13.937 -6.776,2.519 -15.582,5.228 -26.42,8.132 z M 5415.862,3479.5 c 0.964,27.876 1.06,47.614 0.288,59.227 -1.74,22.064 -6.68,40.845 -14.805,56.324 -7.553,17.419 -19.648,35.224 -36.291,53.421 -1.746,1.934 -17.033,17.221 -45.873,45.867 -0.777,-6.385 1.645,-13.155 7.26,-20.321 3.095,-4.061 7.835,-9.969 14.225,-17.71 23.612,-28.255 40.063,-51.287 49.355,-69.093 14.709,-28.262 20.034,-55.457 15.969,-81.586 -15.486,11.42 -30.484,25.84 -45,43.26 -17.228,21.1 -28.551,35.423 -33.972,42.97 -11.806,16.836 -20.612,32.712 -26.419,47.614 -2.318,5.613 -4.74,14.131 -7.258,25.545 -2.711,11.42 -5.126,19.841 -7.258,25.262 -3.097,-15.293 -2.415,-32.037 2.035,-50.228 3.482,-13.938 9.577,-29.714 18.287,-47.326 20.708,-41.609 57.199,-79.351 109.457,-113.226 z m 340.546,478.167 c 2.903,6.968 6.295,12.871 10.161,17.708 2.519,3.481 7.258,9.095 14.227,16.841 2.126,2.512 7.259,8.613 15.39,18.287 8.127,9.872 14.806,18.871 20.029,27.002 5.419,8.518 16.063,22.739 31.935,42.677 6.391,8.901 11.516,17.129 15.39,24.676 -0.386,0 -0.674,0.193 -0.874,0.584 -0.771,0.387 -1.252,0.965 -1.451,1.742 -0.192,0.77 0,1.547 0.585,2.318 0,0.199 0.191,0.488 0.578,0.874 0.191,0.577 0.584,1.452 1.162,2.614 0.191,0.964 0.578,2.221 1.162,3.77 l -0.289,-0.289 c 0,0.387 0.096,0.777 0.289,1.163 0.193,1.354 0.386,2.71 0.578,4.065 0,1.355 -0.097,2.613 -0.289,3.771 0,0.391 0.097,0.874 0.289,1.452 0.192,0.584 0.584,1.066 1.163,1.451 0.192,0.199 0.48,0.296 0.873,0.296 -51.487,66.773 -109.745,124.935 -174.778,174.483 -65.033,49.547 -136.934,92.223 -215.707,128.031 -58.457,22.646 -119.424,41.03 -182.904,55.161 -99.102,16.257 -189.873,21.774 -272.326,16.547 -33.098,-4.837 -57.969,-8.415 -74.61,-10.741 -29.616,-4.451 -54.295,-9.287 -74.032,-14.516 -0.777,-0.193 -20.709,-6.096 -59.812,-17.709 -23.997,-6.969 -43.446,-14.13 -58.354,-21.484 -7.354,-3.482 -25.647,-11.132 -54.872,-22.937 -22.643,-9.095 -40.453,-17.612 -53.416,-25.546 -21.877,-12.582 -38.23,-22.068 -49.066,-28.454 -19.159,-11.419 -34.838,-22.063 -47.035,-31.936 -36.58,-27.677 -63.679,-48.776 -81.291,-63.292 -30.381,-24.967 -54.865,-48.965 -73.447,-71.997 -15.295,-17.033 -26.805,-29.809 -34.551,-38.326 -13.744,-15.287 -24.189,-28.834 -31.357,-40.646 2.324,-5.607 3.488,-8.709 3.488,-9.287 -0.393,-0.971 -0.289,-1.741 0.288,-2.326 l 124.552,-198.871 c 0.385,-0.771 0.969,-1.156 1.74,-1.156 0.578,-0.199 1.162,-0.199 1.74,0 l 7.842,-18.583 c 9.674,10.837 17.125,19.836 22.354,26.997 3.867,4.258 5.807,9.775 5.807,16.552 -0.193,0.192 -0.289,0.481 -0.289,0.868 -3.488,7.744 -5.807,13.455 -6.97,17.129 -1.161,3.682 -1.741,6.192 -1.741,7.548 -0.197,0.97 -0.289,1.94 -0.289,2.903 v 0.295 c 0.193,9.096 1.838,17.516 4.934,25.256 3.096,7.74 7.836,15.191 14.227,22.353 6.192,7.162 10.939,12.005 14.229,14.516 1.349,0.97 1.837,1.163 1.451,0.585 12.384,14.324 22.641,26.226 30.773,35.706 22.834,26.13 41.807,45.001 56.9,56.613 13.746,13.552 30.87,27.581 51.386,42.098 6.192,4.45 24.587,16.744 55.161,36.874 20.516,12.969 45.584,26.322 75.195,40.062 16.643,7.746 41.712,18.871 75.195,33.387 0.771,0.199 1.547,0.488 2.325,0.873 l -0.873,1.163 c -8.903,28.839 -15.287,51.482 -19.161,67.938 33.291,10.257 54.385,16.545 63.287,18.87 -1.543,5.807 -3.48,14.71 -5.807,26.708 -2.517,10.836 -5.896,19.352 -10.16,25.551 -6.578,2.318 -14.415,1.837 -23.516,-1.452 -10.258,-4.258 -17.901,-7.065 -22.936,-8.421 -5.809,10.065 -10.253,20.322 -13.355,30.773 20.906,7.547 32.905,11.71 36.002,12.486 14.516,2.902 26.418,0.676 35.711,-6.68 13.74,-8.903 23.517,-23.901 29.322,-45 4.452,-24.773 8.421,-42.771 11.902,-54 -39.682,-12.775 -60.48,-19.454 -62.42,-20.032 l 10.45,-36.579 c 4.259,1.547 7.548,2.709 9.874,3.48 v -0.289 c 0.77,0.193 1.643,0.386 2.613,0.578 12.191,2.518 29.809,6.486 52.836,11.908 22.064,4.837 40.742,7.837 56.034,8.998 1.548,0.771 5.712,3.387 12.481,7.837 8.518,5.421 19.063,11.903 31.645,19.456 12.198,7.354 22.65,11.027 31.359,11.027 17.221,0 30.388,-2.126 39.482,-6.385 0,-0.191 0.098,-0.288 0.289,-0.288 12.197,-7.745 24.389,-15.197 36.58,-22.359 l 0.295,-0.288 c 17.027,-6.584 30.676,-10.836 40.934,-12.775 10.645,-1.934 25.545,-5.223 44.712,-9.871 41.609,-12 74.032,-22.162 97.259,-30.485 35.417,-12.577 66.478,-26.129 93.193,-40.646 45.674,-25.159 80.32,-46.06 103.932,-62.708 36.584,-25.744 66.195,-52.934 88.843,-81.58 45.675,-51.481 79.935,-97.741 102.771,-138.777 l 13.359,18.003 c -0.777,0.387 -1.258,0.868 -1.452,1.453 -0.391,0.77 -0.391,1.547 0,2.318 0.193,0.776 0.481,1.451 0.867,2.036 z m -353.905,-173.616 c 1.745,-2.903 3.487,-5.807 5.228,-8.71 5.998,-10.065 9.776,-24.19 11.324,-42.386 0.193,-1.549 0.289,-3.097 0.289,-4.645 -5.229,0.776 -10.451,2.318 -15.68,4.645 -4.064,1.74 -8.125,3.969 -12.19,6.679 -6.391,4.061 -14.323,10.354 -23.81,18.872 -11.415,10.064 -21.094,18.575 -29.033,25.545 -5.029,4.451 -9.384,8.228 -13.064,11.323 -16.835,14.902 -29.321,28.647 -37.447,41.225 -3.873,4.259 -4.842,11.419 -2.902,21.484 21.286,-28.839 47.999,-53.517 80.127,-74.032 4.838,-2.903 9.674,-5.807 14.516,-8.71 -1.74,2.903 -3.582,5.807 -5.517,8.71 -12.581,18.002 -29.417,36.001 -50.517,53.999 -3.481,2.903 -25.841,19.938 -67.064,51.101 l 13.065,7.548 c 60.191,-30.972 104.418,-68.515 132.675,-112.648 z m 30.194,-51.096 v 0.289 c -0.579,4.644 -2.711,15.39 -6.385,32.225 -1.94,6.583 -3.969,12.775 -6.096,18.582 -9.487,24.581 -21.293,43.162 -35.424,55.745 -19.352,17.805 -43.547,33.869 -72.58,48.192 -19.738,9.872 -46.74,20.998 -81.002,33.388 19.744,-40.646 37.357,-72.967 52.843,-96.97 9.288,-14.516 19.063,-27.966 29.321,-40.355 13.354,-16.449 27.388,-30.87 42.098,-43.26 3.096,-2.71 6.48,-5.318 10.16,-7.836 17.035,-12.385 38.418,-23.129 64.162,-32.225 3.487,9.289 4.451,20.034 2.903,32.225 z m 46.741,523.744 c -27.869,10.644 -50.902,21.485 -69.093,32.515 -6.583,9.68 -9.583,21.678 -8.999,36.001 9.288,-2.903 19.834,-7.161 31.641,-12.775 6.969,-3.288 17.227,-8.324 30.778,-15.095 2.904,4.837 10.162,17.71 21.774,38.609 8.709,15.872 16.258,28.551 22.643,38.038 l 18.581,-26.425 c -3.872,-6.962 -11.612,-22.16 -23.226,-45.578 -9.289,-19.16 -17.322,-34.26 -24.099,-45.29 z m 108.003,-48.776 c -17.419,-7.162 -30.58,-12.48 -39.482,-15.968 -3.873,6.969 -8.324,16.258 -13.359,27.87 5.035,3.68 11.227,7.354 18.582,11.034 1.355,0.579 7.843,3.482 19.455,8.71 -1.354,4.065 -3.969,10.354 -7.843,18.871 -2.317,7.548 -2.126,14.034 0.585,19.449 7.161,14.131 11.317,22.263 12.48,24.389 5.613,9.095 11.709,15.582 18.291,19.455 11.229,-6.198 25.451,-15.196 42.676,-27.003 -5.42,-13.938 -17.322,-17.901 -35.705,-11.901 -10.065,-17.805 -16.842,-30.581 -20.323,-38.327 11.612,3.488 25.737,8.422 42.386,14.812 9.481,3.675 23.516,9.095 42.098,16.258 1.548,-2.519 4.066,-6.584 7.547,-12.197 2.711,-5.224 3.482,-9.867 2.325,-13.933 -2.711,-4.064 -7.065,-7.746 -13.063,-11.035 -7.163,-3.288 -12.391,-5.902 -15.68,-7.835 1.934,-11.999 -0.873,-24.967 -8.42,-38.905 -10.066,-15.486 -17.131,-27.194 -21.197,-35.128 l -29.61,22.642 11.035,24.973 c 15.288,2.318 24.189,8.511 26.706,18.576 -10.836,-3.483 -24.003,-8.417 -39.484,-14.807 z m 196.258,-131.808 c -10.449,0 -22.448,-1.838 -36,-5.512 -15.287,-5.035 -26.805,-8.711 -34.551,-11.034 l -17.123,25.255 15.966,20.907 17.421,-11.902 c 15.479,8.71 36.771,13.45 63.871,14.222 -1.94,2.325 -7.553,8.612 -16.842,18.871 -6.969,7.745 -12.287,14.322 -15.969,19.743 -1.355,5.422 -0.775,11.228 1.742,17.42 1.162,2.903 3.872,8.133 8.131,15.679 18.191,-16.455 40.741,-42.097 67.641,-76.936 -10.063,-12.391 -21.868,-20.226 -35.416,-23.515 0.387,-6.392 0.579,-11.229 0.579,-14.517 0,-5.807 -1.646,-10.258 -4.934,-13.359 -17.42,-22.063 -30.676,-38.513 -39.772,-49.355 -9.486,13.553 -17.227,25.358 -23.226,35.423 l 12.771,18.287 20.033,-3.481 c 6,8.516 11.227,16.45 15.678,23.804 z m -145.161,82.163 c 5.613,8.325 8.421,12.584 8.421,12.775 l 29.322,-21.483 c 12.388,17.418 24.002,33.29 34.838,47.613 -5.999,5.421 -10.547,9.48 -13.643,12.191 -5.422,4.842 -9.68,9.096 -12.776,12.775 -3.681,4.451 -3.872,9.775 -0.584,15.967 1.938,3.681 4.938,8.902 9.005,15.679 26.9,-21.484 50.318,-42.481 70.256,-63.002 l -12.775,-25.257 -17.709,18.871 c -4.258,-12.775 -12.485,-26.805 -24.677,-42.097 -14.323,-16.451 -24.679,-29.032 -31.063,-37.743 -19.358,17.034 -33.388,30.291 -42.097,39.772 -1.355,4.067 -0.199,8.712 3.482,13.939 z m -216.002,194.517 c 10.649,23.42 16.841,36.677 18.581,39.773 4.837,1.547 9,0 12.486,-4.645 3.676,-5.998 6.579,-10.065 8.71,-12.191 l -19.454,-43.26 -20.323,20.323 z M 5099.698,3100.049 c 4.065,-5.035 9.095,-6.096 15.095,-3.192 0.775,72.19 0.97,180.675 0.584,325.452 -6.192,-2.132 -10.649,-3.867 -13.36,-5.229 -5.029,-2.711 -7.155,-6.577 -6.384,-11.613 0,-128.705 -0.098,-225.192 -0.289,-289.449 -0.778,-6.386 0.674,-11.709 4.354,-15.969 z m 267.677,460.742 c 7.547,-8.126 14.9,-14.415 22.063,-18.871 -12.191,38.127 -32.225,72.291 -60.094,102.486 -4.645,4.842 -8.133,8.222 -10.451,10.161 -4.066,3.289 -8.229,5.518 -12.486,6.681 2.133,-13.361 7.547,-27.293 16.257,-41.809 4.843,-8.324 13.456,-20.521 25.841,-36.58 10.449,-12.389 16.743,-19.743 18.87,-22.068 z m -307.16,160.262 17.999,5.222 c 0,0.777 0,3.006 0,6.681 0,8.71 0.096,25.743 0.288,51.096 0,1.355 0,2.807 0,4.354 0.199,24.774 -0.385,45.386 -1.74,61.841 l -16.841,-8.999 c 0,-21.099 0,-40.163 0,-57.196 0,-19.938 0.103,-36.965 0.294,-51.096 0,-4.26 0,-8.224 0,-11.903 z m 93.482,-126.58 c 0,7.349 -0.482,18.383 -1.451,33.093 l -14.805,-8.999 c -1.163,-21.486 -0.387,-38.031 2.318,-49.645 9.294,4.066 13.938,12.577 13.938,25.551 z m -164.033,12.191 c 9.096,18.191 24.189,35.031 45.289,50.518 6.391,4.838 25.841,17.027 58.354,36.58 7.361,4.644 21.004,10.547 40.94,17.708 17.999,6.583 31.257,13.263 39.772,20.033 -33.483,-6.577 -75.098,-21.967 -124.839,-46.162 -18.19,-8.318 -34.157,-20.901 -47.903,-37.742 -12.775,-16.064 -22.262,-34.256 -28.454,-54.577 41.423,2.318 80.712,9.865 117.877,22.642 39.675,13.547 74.995,32.326 105.968,56.324 5.029,3.866 11.516,11.228 19.448,22.063 7.741,10.258 14.421,17.419 20.034,21.484 5.613,2.903 9.578,1.354 11.902,-4.644 0.191,-0.777 1.162,-6.006 2.902,-15.679 1.163,-5.421 0.676,-15.678 -1.451,-30.773 -1.74,-12.775 -0.777,-22.744 2.903,-29.905 3.481,8.517 6.097,22.166 7.835,40.935 1.94,18.195 4.748,31.742 8.423,40.646 2.71,5.228 4.258,10.841 4.644,16.841 0.199,2.71 0.098,5.518 -0.289,8.42 -0.964,8.711 -4.065,16.739 -9.289,24.094 -3.289,3.873 -7.938,6.005 -13.938,6.391 -5.612,0.192 -10.547,-1.259 -14.805,-4.355 -3.482,-4.643 -6.191,-10.938 -8.131,-18.87 -1.158,-6.392 -2.224,-11.613 -3.193,-15.679 -0.385,-1.74 -0.771,-3.289 -1.162,-4.645 -29.611,-10.258 -51.675,-18.389 -66.19,-24.389 -24.967,-10.45 -44.712,-22.646 -59.228,-36.579 7.547,2.903 24.677,11.132 51.385,24.678 20.906,10.643 38.422,17.516 52.553,20.611 l 12.481,-1.451 c -10.065,-6.771 -24.189,-14.613 -42.386,-23.515 -21.871,-10.837 -36.387,-18.293 -43.549,-22.359 -9.871,-4.836 -28.353,-14.516 -55.451,-29.032 -23.033,-12.577 -41.711,-22.063 -56.033,-28.448 -3.483,-2.325 -7.838,-3.386 -13.066,-3.192 -1.546,0.19 -5.999,0.865 -13.353,2.028 z m 116.708,-50.518 c 4.265,2.127 7.161,4.746 8.71,7.842 1.355,15.287 0.584,30.966 -2.32,47.03 l -17.418,-8.421 0.289,-51.969 c 2.131,1.555 5.711,3.392 10.739,5.518 z m -46.157,-25.839 17.999,12.197 v 55.16 l -16.841,-1.739 c -1.158,-12.777 -1.543,-34.648 -1.158,-65.618 z m 15.096,-71.708 c 7.161,0.771 14.707,3.97 22.647,9.583 4.444,3.289 10.933,8.517 19.448,15.673 3.682,3.097 16.451,12.872 38.32,29.327 15.486,11.613 27.678,21.865 36.587,30.774 -7.94,-1.163 -15.101,-4.066 -21.486,-8.711 -22.063,-14.517 -38.808,-26.225 -50.228,-35.127 -18.197,-13.745 -33.29,-27.582 -45.288,-41.519 z m -20.035,10.161 c 11.228,13.744 18.679,22.354 22.358,25.841 11.42,11.998 27.773,24.966 49.061,38.904 30.388,19.739 47.711,31.255 51.969,34.544 -37.742,-13.156 -71.322,-33.869 -100.74,-62.125 -13.939,-13.938 -22.938,-23.328 -27.002,-28.164 -9.487,-11.415 -16.161,-22.552 -20.034,-33.389 7.167,5.229 15.293,13.356 24.388,24.389 z m 23.226,-63.871 -17.998,-6.096 c -0.97,-58.263 -1.162,-102.004 -0.583,-131.229 1.161,-50.897 7.552,-93.867 19.165,-128.898 0.386,32.513 0.386,76.936 0,133.253 -0.385,64.063 -0.584,108.389 -0.584,132.97 z m -58.354,-177.971 c 3.481,5.422 9.48,13.258 17.997,23.521 6.777,9.673 9.681,18.87 8.71,27.58 0.387,21.865 0,39.772 -1.156,53.71 -17.42,-16.841 -31.164,-35.52 -41.229,-56.034 -10.837,-22.263 -16.257,-44.614 -16.257,-67.063 5.614,6.776 11.228,14.317 16.841,22.641 l 15.094,-4.355 z m 128.032,-68.516 c 0,0.199 1.162,10.938 3.488,32.226 1.156,30.195 1.547,73.744 1.156,130.646 -0.193,59.425 0.096,102.974 0.873,130.646 2.711,3.873 12.872,16.354 30.483,37.453 12.391,15.101 21.292,28.454 26.709,40.067 2.323,4.065 5.323,10.45 9.003,19.16 3.867,7.354 8.416,12.577 13.645,15.678 0.191,-12.968 0.48,-22.744 0.871,-29.32 8.711,17.419 15.97,35.417 21.775,53.998 2.512,6.385 1.549,12.866 -2.902,19.449 -4.65,6.583 -10.36,9.486 -17.131,8.71 -4.451,-1.741 -9.197,-4.74 -14.227,-8.999 -5.422,-5.42 -9.582,-9.39 -12.486,-11.902 l 15.968,-8.998 c -2.705,-19.166 -12.866,-37.55 -30.485,-55.161 -1.932,-1.94 -18.479,-15.68 -49.644,-41.23 -15.872,-13.546 -37.645,-29.321 -65.322,-47.319 -36.58,-24.002 -58.933,-38.904 -67.063,-44.711 40.451,7.547 81.676,22.835 123.676,45.867 -0.191,-89.416 0.098,-156.479 0.875,-201.189 0.191,-7.934 -0.291,-27.1 -1.452,-57.487 -0.971,-23.804 -0.585,-43.066 1.161,-57.774 5.222,7.934 8.902,18 11.029,30.19 z m 106.841,267.388 c -0.386,-35.031 -0.682,-61.257 -0.874,-78.677 -0.386,-31.545 0.488,-57.865 2.614,-78.967 17.998,22.064 27.004,48.483 27.004,79.256 -0.199,31.358 -9.777,57.487 -28.744,78.388 z m -71.128,0.583 c -3.289,1.741 -6.486,0.777 -9.583,-2.902 -2.903,-3.873 -3.192,-7.259 -0.868,-10.16 3.289,-1.549 6.385,-0.483 9.288,3.191 3.095,3.675 3.481,6.969 1.163,9.871 z m 46.162,-181.74 c 4.837,8.125 7.451,12.576 7.837,13.354 2.518,5.223 3.386,10.16 2.613,14.805 -0.192,10.065 -0.192,37.839 0,83.321 0.192,33.875 -0.096,61.552 -0.873,83.037 -10.258,32.707 -15.19,59.999 -14.806,81.869 -4.258,-12.968 -10.162,-27.678 -17.708,-44.128 -0.97,-2.131 -7.746,-16.353 -20.323,-42.68 4.838,4.065 11.902,10.643 21.191,19.744 -4.451,-48.777 -6.771,-84.001 -6.965,-105.68 1.356,-32.707 11.03,-67.261 29.034,-103.642 z m -779.52,752.226 v 0.58 l -27.58,31.066 c 6.385,9.288 18.19,23.027 35.418,41.225 -15.68,14.131 -31.358,27.099 -47.03,38.904 l -22.938,-21.774 -24.965,14.227 c 5.42,4.645 12.961,13.739 22.641,27.286 9.487,10.457 19.455,13.938 29.906,10.457 13.354,-5.807 27.291,-15.583 41.808,-29.328 16.059,-16.643 28.159,-28.834 36.29,-36.58 -3.68,-6.576 -9.096,-14.323 -16.262,-23.225 -8.126,-9.482 -14.132,-16.738 -17.998,-21.774 l 20.901,-21.774 c -0.194,-0.193 -0.387,-0.386 -0.579,-0.578 l 5.229,-5.518 c -1.555,-4.258 -7.645,-9.775 -18.293,-16.547 -1.548,-0.199 -3,-0.391 -4.355,-0.584 l -12.193,13.937 z m -127.163,-189.294 c 4.643,8.908 4.933,19.744 0.873,32.52 -15.878,-2.518 -27.683,-10.649 -35.423,-24.388 10.449,-3.289 21.973,-6 34.55,-8.132 z m 52.257,56.036 c 33.875,-0.579 60.68,-0.386 80.418,0.578 -3.289,10.841 -8.8,23.226 -16.546,37.164 -4.259,7.933 -11.034,19.744 -20.323,35.417 l -91.451,141.969 c -34.261,-2.71 -58.065,-12.678 -71.418,-29.899 -7.355,-8.517 -10.939,-20.323 -10.746,-35.423 1.554,-17.419 2.229,-30.195 2.035,-38.32 -0.584,-13.161 0.387,-32.905 2.903,-59.228 2.513,-26.321 3.386,-46.162 2.614,-59.516 1.742,0.385 8.801,1.933 21.19,4.644 8.517,1.741 15.583,2.71 21.196,2.902 14.517,0.386 41.226,0.29 80.128,-0.288 z m 48.193,303.387 c 8.908,10.45 19.938,21.582 33.099,33.387 l 18.87,-6.384 c -2.131,-6.776 -3.674,-11.909 -4.644,-15.39 -1.548,-5.999 -1.935,-11.131 -1.163,-15.39 4.066,-4.837 12.102,-10.643 24.1,-17.42 0.386,10.065 0.482,27.581 0.289,52.554 0,22.256 0.385,39.676 1.162,52.258 13.74,-7.938 22.932,-14.131 27.582,-18.581 0.963,-3.096 1.644,-6.969 2.03,-11.613 0.385,-5.035 0.679,-8.902 0.872,-11.612 11.805,-0.193 22.84,-6.192 33.092,-18.003 10.65,-14.711 18.975,-25.064 24.973,-31.063 -5.42,-9.096 -11.611,-15.68 -18.58,-19.744 -8.518,-4.645 -17.324,-5.127 -26.42,-1.452 0.578,5.807 2.029,15.004 4.355,27.581 l -14.811,14.811 c -1.157,-11.811 -1.934,-27.483 -2.32,-47.036 -0.391,-24.188 -0.776,-39.964 -1.161,-47.318 l -9.288,-4.649 c -15.486,9.1 -23.811,21.195 -24.973,36.29 -12.964,-0.578 -25.545,5.132 -37.742,17.13 -6.77,6.582 -16.546,17.129 -29.322,31.644 z m 617.522,55.162 c -9.486,-3.68 -13.359,-11.035 -11.612,-22.064 1.741,-10.841 7.645,-16.841 17.708,-18.004 12.584,-0.77 28.358,-1.156 47.319,-1.156 l 47.325,0.29 c 7.934,-1.162 14.42,1.837 19.449,8.998 4.65,6.777 6.199,14.035 4.65,21.775 -1.747,6.583 -6.584,10.354 -14.516,11.323 -9.486,0.192 -16.264,0.386 -20.323,0.578 -6.005,-0.192 -21.003,-0.192 -45.001,0 -18.58,0.194 -33.577,-0.385 -44.999,-1.74 z m 112.064,-132.675 c -7.746,-1.355 -16.842,-0.295 -27.291,3.191 -11.42,4.258 -20.13,7.066 -26.129,8.421 25.936,-28.839 43.548,-49.745 52.836,-62.714 0,26.521 0.198,43.549 0.584,51.102 z m -24.677,58.354 c 11.028,-5.614 19.448,-10.451 25.255,-14.518 l -1.74,31.353 c -21.871,-0.771 -38.225,-1.838 -49.066,-3.192 4.644,-2.904 13.162,-7.451 25.551,-13.643 z m -75.485,1.161 c 2.706,-5.613 7.163,-9.583 13.354,-11.907 23.227,-11.223 45.098,-20.125 65.613,-26.707 6.191,2.518 7.161,6.872 2.902,13.064 -3.867,5.806 -8.518,9.191 -13.932,10.161 -15.68,4.451 -27.683,8.518 -36.002,12.19 -12.969,5.808 -23.617,12.776 -31.936,20.907 -3.1,-5.805 -3.1,-11.708 0,-17.708 z M 5156.6,3914.696 c -7.932,8.71 -21.1,16.063 -39.482,22.063 -22.647,7.355 -37.066,12.871 -43.258,16.553 -4.645,1.162 -7.26,4.161 -7.838,8.998 -0.386,2.711 -0.295,7.064 0.29,13.064 8.125,-1.74 20.9,-5.132 38.319,-10.161 16.457,-4.837 29.227,-8.132 38.326,-9.872 -5.034,8.518 -19.165,15.485 -42.393,20.906 -20.899,5.029 -32.705,14.125 -35.416,27.286 5.422,0.198 17.806,-0.192 37.164,-1.156 -11.42,10.835 -25.455,22.159 -42.098,33.965 -0.191,-27.485 -0.385,-48.096 -0.584,-61.841 0,-24.581 0.393,-45.289 1.163,-62.125 5.036,-4.259 11.517,-7.162 19.449,-8.709 4.649,-0.971 11.909,-1.65 21.773,-2.036 -1.933,5.613 -7.933,10.161 -17.997,13.649 -10.842,3.674 -17.708,7.835 -20.611,12.479 l 8.709,13.354 c 43.358,-14.316 71.517,-23.129 84.484,-26.417 z m -42.097,-176.223 c 0.579,15.871 0.971,31.061 1.163,45.578 0,24.002 -0.387,46.355 -1.163,67.063 h -18.581 c -0.387,-14.71 -0.578,-34.255 -0.578,-58.644 0,-2.903 0,-5.71 0,-8.42 0,-24.773 -0.098,-41.615 -0.289,-50.518 l 19.448,4.941 z m 25.257,6.095 13.064,12.19 c 0.198,6.198 0.295,15.293 0.295,27.292 -0.199,4.451 -0.295,9.197 -0.295,14.228 -0.193,17.804 -0.096,31.646 0.295,41.518 l -14.518,9.288 c -1.354,-23.227 -2.035,-40.645 -2.035,-52.259 0,-4.45 0,-8.709 0,-12.774 0.387,-14.518 1.453,-27.678 3.194,-39.483 z m 45,119.321 c 4.451,2.326 11.612,6.776 21.485,13.355 -39.099,6.196 -79.55,7.354 -121.353,3.486 -18.581,-0.583 -32.52,-1.163 -41.807,-1.74 -16.644,-0.584 -30.195,-3.197 -40.646,-7.842 11.807,-6.192 19.45,-10.065 22.938,-11.614 8.902,-3.673 17.033,-5.517 24.383,-5.517 6.582,0.392 16.262,1.746 29.031,4.065 12.975,2.325 22.648,3.584 29.033,3.776 6.582,0.578 15.389,-0.096 26.423,-2.036 13.354,-2.317 22.161,-3.577 26.419,-3.771 7.547,0.772 15.582,3.387 24.094,7.838 z m 19.744,33.388 c 1.549,8.902 0.578,15.582 -2.903,20.033 -39.289,68.129 -81.869,124.549 -127.741,169.261 -4.26,4.258 -10.547,11.029 -18.873,20.323 -7.547,7.74 -14.9,13.064 -22.063,15.967 -5.613,-2.518 -9.969,-5.613 -13.065,-9.293 -3.679,-4.452 -4.644,-9.288 -2.903,-14.516 3.682,-11.999 11.613,-23.228 23.805,-33.678 3.487,-2.902 14.908,-11.034 34.262,-24.389 18.773,-13.354 37.934,-33.001 57.479,-58.932 21.293,-30.388 37.549,-52.746 48.776,-67.069 2.519,-3.481 6.096,-6.867 10.74,-10.161 1.548,-1.155 5.711,-3.674 12.486,-7.546 z m 37.742,-106.257 9.584,7.836 c -3.104,8.518 -7.355,21.293 -12.777,38.326 -5.227,15.288 -10.744,27.678 -16.551,37.159 -3.674,-11.415 -2.223,-25.449 4.355,-42.097 9.872,-25.547 15.003,-39.291 15.389,-41.224 z m -666.004,403.838 33.676,23.226 c -12.962,15.293 -21.864,26.033 -26.707,32.226 -9.48,12.389 -17.13,24.099 -22.937,35.133 14.716,5.416 26.13,7.837 34.261,7.259 3.873,-2.518 7.837,-6.487 11.902,-11.908 4.258,-6.192 7.45,-10.739 9.584,-13.643 9.095,-12.582 15.773,-22.063 20.027,-28.454 7.552,-11.222 12.973,-21.384 16.262,-30.483 -16.647,-13.933 -35.135,-27.094 -55.456,-39.483 -11.227,14.129 -18.094,22.838 -20.612,26.127 z m 71.129,88.55 c -10.45,25.164 -15.871,40.259 -16.257,45.288 3.097,7.161 8.903,13.456 17.42,18.871 4.842,3.102 12.485,7.259 22.937,12.485 5.807,2.711 14.42,7.259 25.84,13.644 10.451,5.229 19.643,8.325 27.58,9.294 16.644,-3.487 27.195,-10.649 31.642,-21.485 4.264,-7.933 10.161,-20.13 17.716,-36.579 7.546,-16.455 13.449,-28.744 17.707,-36.873 -8.517,-10.452 -17.227,-15.873 -26.13,-16.258 -5.612,0.969 -10.064,3.68 -13.353,8.131 -3.488,4.451 -4.843,9.481 -4.066,15.095 0.193,9.486 -2.229,19.744 -7.258,30.772 -1.162,2.518 -6.391,11.812 -15.679,27.876 -18.968,-9.679 -33.097,-17.033 -42.386,-22.069 14.516,-3.482 26.906,-12.095 37.157,-25.834 6.97,-9.294 14.035,-22.937 21.196,-40.94 -15.479,-17.028 -27.869,-21.679 -37.164,-13.933 -2.127,4.066 -2.517,11.029 -1.156,20.902 1.156,9.293 0.092,16.16 -3.197,20.612 -2.518,5.419 -6.964,9.582 -13.354,12.485 -4.259,1.934 -10.354,3.578 -18.287,4.933 2.126,-8.71 9.095,-31.641 20.901,-68.805 -6.969,-8.131 -14.131,-15.094 -21.485,-20.901 l -19.739,17.71 c 6.963,12.384 6.771,27.58 -0.585,45.579 z m 157.649,39.778 c -3.486,11.028 -6.004,21.773 -7.547,32.224 13.738,1.163 23.901,-4.938 30.483,-18.292 3.674,-7.355 6.964,-19.836 9.866,-37.453 -15.287,-4.837 -31.158,-2.608 -47.608,6.68 l 14.806,16.841 z m 520.257,27.285 c 6.193,-2.126 15.678,-5.319 28.455,-9.577 5.222,8.902 11.419,22.063 18.581,39.483 7.74,18.581 13.739,31.839 17.998,39.771 l 21.485,-26.419 c -12.775,-29.61 -24.773,-61.16 -36.003,-94.645 -26.905,7.741 -46.258,14.228 -58.064,19.45 -7.161,2.711 -12.484,8.324 -15.968,16.841 -2.324,5.808 -4.065,13.644 -5.229,23.515 7.747,-1.932 17.325,-4.74 28.745,-8.419 z m -8.711,37.164 c 2.904,14.709 8.615,31.55 17.133,50.518 l 19.744,-22.358 c -6.392,-19.739 -12.873,-36.483 -19.455,-50.224 -1.936,2.519 -5.224,5.904 -9.873,10.162 -3.867,4.258 -6.386,8.221 -7.549,11.902 z m -92.318,-34.84 c -0.969,3.098 -2.132,7.645 -3.487,13.644 6.776,-0.193 16.841,-0.675 30.194,-1.451 1.355,5.036 3.681,12.583 6.97,22.647 2.517,8.902 4.161,16.546 4.933,22.936 -2.902,6.97 -8.71,12.096 -17.419,15.385 -10.45,2.902 -18.094,5.131 -22.937,6.68 -4.451,5.228 -5.223,11.613 -2.32,19.16 2.904,7.746 8.029,11.035 15.385,9.873 15.293,-1.356 27.484,-13.066 36.585,-35.129 7.163,11.228 13.933,19.643 20.323,25.256 l 13.354,-11.323 c -11.42,-38.128 -24.773,-75.189 -40.066,-111.19 -8.325,1.933 -14.518,3.48 -18.582,4.644 -7.354,1.74 -13.354,3.776 -17.998,6.095 -1.935,3.486 -3.579,7.744 -4.935,12.773 z m -59.227,-4.934 c -9.486,5.031 -15.196,12.674 -17.13,22.932 l 23.805,6.97 2.614,56.612 -29.033,7.26 -8.126,23.226 c 18.384,5.034 36.965,3.776 55.74,-3.771 8.324,-10.456 11.518,-21.292 9.583,-32.52 -4.259,-40.062 -7.456,-67.161 -9.583,-81.291 -9.095,-4.644 -18.389,-4.452 -27.87,0.582 z m -81.875,74.612 c 0,17.806 0.873,32.81 2.613,45.002 11.813,-6.971 20.714,-13.163 26.714,-18.582 0.964,-12.969 0.964,-29.516 0,-49.646 -1.747,-29.417 -2.614,-46.065 -2.614,-49.934 -10.064,-1.548 -21.582,-2.228 -34.549,-2.035 -6.771,0.193 -18.293,0.776 -34.551,1.741 -5.415,1.938 -10.644,5.903 -15.678,11.908 -0.771,0.771 -4.645,6.191 -11.613,16.256 9.486,1.162 21.1,1.549 34.84,1.162 7.745,-0.197 19.358,-0.583 34.838,-1.162 0.194,10.066 0.194,25.161 0,45.29 z m -65.611,19.744 c 0,6.192 0.289,15.578 0.871,28.16 l 25.841,-14.518 c 0.579,-19.744 0.579,-39.482 0,-59.227 -2.903,1.549 -7.554,3.874 -13.937,6.97 -5.422,3.097 -9.391,6.583 -11.904,10.451 -0.775,7.938 -1.064,17.323 -0.871,28.164 z"
   clip-rule="evenodd"
   inkscape:connector-curvature="0"
   style="fill:#ffcc00;fill-rule:evenodd" />

	<path
   id="path3850"
   d="m 5694.861,3435.084 c -24.581,41.03 -42.483,71.996 -53.709,92.903 -19.744,36.772 -32.521,70.063 -38.326,99.873 -4.258,28.646 -4.355,56.419 -0.289,83.32 1.162,7.354 2.613,14.612 4.354,21.774 4.451,18.195 11.034,35.224 19.744,51.096 0.964,1.939 2.03,3.873 3.192,5.806 17.42,29.032 37.838,65.034 61.258,108.004 4.644,8.903 7.746,19.836 9.293,32.803 0.385,3.097 1.061,14.517 2.031,34.261 7.354,-9.872 14.612,-22.261 21.773,-37.163 7.932,-17.419 13.841,-30.483 17.708,-39.193 16.257,-4.837 36.58,-9.191 60.969,-13.064 13.744,-2.319 34.356,-5.614 61.841,-9.872 -1.162,-16.643 -2.036,-29.129 -2.613,-37.447 -0.777,-14.715 -0.482,-27.195 0.873,-37.454 4.258,-2.709 8.613,-4.938 13.063,-6.679 14.126,-5.422 29.321,-5.422 45.578,0 3.29,1.161 6.681,2.518 10.162,4.065 23.226,10.45 40.452,26.906 51.68,49.354 9.866,39.677 15.19,79.357 15.968,119.033 0.193,10.064 1.451,32.609 3.771,67.647 1.74,27.678 2.421,50.126 2.035,67.354 -3.486,10.063 -8.42,18.485 -14.811,25.255 -7.354,7.939 -15.77,12.68 -25.256,14.229 -28.84,9.871 -55.548,8.227 -80.129,-4.934 -49.355,63.286 -105.1,120.098 -167.227,170.417 -63.099,50.903 -130.451,93.289 -202.068,127.164 -120.773,53.614 -241.161,82.646 -361.158,87.097 -9.1,-0.386 -27.973,0 -56.612,1.163 -23.42,0.771 -42.2,0.288 -56.324,-1.452 -98.518,-6.391 -194.518,-27.58 -288.005,-63.582 -93.481,-36.001 -178.935,-84.579 -256.352,-145.746 -52.65,-40.254 -108.583,-97.354 -167.809,-171.29 -15.68,3.102 -32.033,1.938 -49.066,-3.481 -15.096,-4.838 -29.516,-12.68 -43.255,-23.516 -4.065,-3.289 -7.167,-8.228 -9.294,-14.805 -0.385,-1.355 -1.645,-7.258 -3.771,-17.715 -3.096,-23.611 -4.161,-52.934 -3.197,-87.965 1.554,-39.098 2.323,-68.419 2.323,-87.97 0.965,-19.161 3.586,-44.32 7.838,-75.485 2.518,-15.871 17.328,-26.418 44.422,-31.646 8.324,-1.548 15.968,-2.608 22.938,-3.192 7.16,-0.771 13.449,-0.965 18.869,-0.578 2.127,0.191 4.158,0.385 6.097,0.578 13.161,1.74 23.997,6.391 32.513,13.938 6,4.645 9.681,11.806 11.035,21.485 0.771,5.607 1.355,13.932 1.74,24.967 7.163,0.771 23.709,0.867 49.645,0.288 20.323,-0.385 36.586,1.067 48.777,4.355 5.42,5.421 11.228,13.064 17.42,22.938 3.287,5.42 8.324,13.643 15.094,24.677 30.194,-35.224 56.228,-72.772 78.098,-112.647 8.908,-16.644 17.227,-33.678 24.967,-51.096 4.844,-11.229 9.391,-22.647 13.65,-34.262 5.606,-14.708 7.932,-31.832 6.967,-51.384 -0.584,-12.578 -3.197,-29.905 -7.842,-51.97 -5.806,-24.389 -17.612,-51.969 -35.416,-82.742 -21.293,-34.447 -36.772,-60.485 -46.453,-78.098 -13.16,-24.189 -21.195,-39.869 -24.099,-47.03 -7.933,-18.383 -11.71,-35.417 -11.323,-51.096 0.385,-16.643 5.131,-32.032 14.227,-46.163 9.486,-15.095 21.775,-25.063 36.875,-29.905 33.478,-6.192 69.768,-5.806 108.871,1.163 63.095,8.131 117.389,7.258 162.87,-2.614 30.001,-5.422 57.969,-19.836 83.905,-43.254 21.864,-19.744 41.416,-45 58.642,-75.778 17.807,-26.323 34.159,-56.318 49.066,-90.001 16.835,-28.063 27.189,-44.513 31.063,-49.355 13.74,-17.612 29.32,-28.256 46.74,-31.935 16.264,-1.935 32.616,-0.771 49.066,3.486 16.256,4.451 30.971,11.613 44.131,21.485 8.513,6.577 16.451,16.45 23.805,29.61 4.26,7.354 10.162,18.679 17.709,33.966 7.163,12.775 17.517,32.128 31.068,58.064 12.385,22.454 24.48,40.555 36.291,54.294 18.189,21.292 32.609,37.068 43.254,47.319 17.033,16.648 33.873,29.52 50.518,38.616 44.132,20.515 100.354,26.706 168.676,18.581 24.973,-3.102 42.586,-4.747 52.844,-4.938 20.129,-0.193 37.355,3.005 51.673,9.583 17.034,10.45 30.581,23.515 40.646,39.193 11.035,17.419 15.967,35.326 14.811,53.71 -2.708,19.937 -9.389,41.134 -20.033,63.583 z m -8.998,-72.003 c 3.48,-11.414 2.705,-23.129 -2.326,-35.128 -4.643,-11.227 -11.998,-20.708 -22.063,-28.453 -12.583,-7.35 -28.454,-10.934 -47.614,-10.74 -22.063,1.74 -38.52,2.902 -49.354,3.481 -74.709,6.776 -137.614,0 -188.712,-20.323 -21.099,-10.643 -38.71,-20.707 -52.836,-30.189 -18.196,-12.582 -33.194,-26.037 -45,-40.355 -19.167,-20.322 -38.423,-48.102 -57.776,-83.326 -20.707,-40.26 -36.777,-70.063 -48.191,-89.416 -7.554,-14.324 -18.871,-25.454 -33.972,-33.387 -15.479,-7.934 -31.063,-10.361 -46.741,-7.259 -16.063,5.222 -30.58,16.938 -43.549,35.128 -13.16,22.647 -23.129,39.098 -29.904,49.355 -18.191,37.935 -37.449,70.256 -57.771,96.969 -24.587,32.514 -51.776,58.258 -81.586,77.225 -35.802,20.516 -78.869,32.129 -129.194,34.84 -32.705,1.74 -77.803,-0.682 -135.289,-7.259 -20.707,-2.71 -39.772,-0.385 -57.19,6.97 -20.716,8.902 -31.454,23.225 -32.226,42.964 -3.097,19.167 0.387,39.874 10.45,62.13 1.74,3.873 12.288,22.449 31.646,55.746 1.352,2.518 11.705,20.805 31.063,54.867 12.577,22.068 21.389,41.133 26.418,57.197 9.872,31.544 15.679,57.774 17.419,78.676 2.711,29.611 -1.355,55.74 -12.19,78.388 -2.71,7.161 -5.613,14.419 -8.71,21.774 -7.162,16.449 -15.583,33.483 -25.262,51.096 -3.288,5.613 -6.674,11.323 -10.161,17.131 -13.546,22.447 -32.13,50.228 -55.739,83.32 -20.322,28.453 -27.871,55.745 -22.648,81.873 3.68,11.229 10.071,20.709 19.166,28.449 9.287,7.746 19.738,12.39 31.352,13.938 20.521,3.096 51.096,3.777 91.742,2.03 41.029,-1.74 71.616,-1.157 91.746,1.747 38.32,3.674 72.389,11.709 102.191,24.093 35.417,15.101 63.1,35.905 83.031,62.421 14.324,19.159 28.742,41.999 43.26,68.514 8.131,14.908 20.226,39.001 36.291,72.292 7.162,10.258 18.383,26.714 33.676,49.355 15.293,17.226 32.326,25.551 51.096,24.967 15.877,-2.705 31.067,-10.644 45.585,-23.805 10.063,-9.288 21.094,-22.744 33.097,-40.355 -11.611,-0.386 -31.453,-0.675 -59.516,-0.868 -25.358,0 -45.192,-0.391 -59.516,-1.162 -11.227,-0.193 -20.709,-5.324 -28.455,-15.391 -6.968,-8.709 -11.322,-19.062 -13.064,-31.062 0.385,-7.938 3.777,-16.064 10.162,-24.388 8.131,-8.902 13.938,-15.679 17.419,-20.323 -6.192,-5.228 -10.841,-9.191 -13.938,-11.901 -5.613,-4.645 -9.865,-9.096 -12.77,-13.354 -2.902,-5.808 -4.457,-15.679 -4.649,-29.617 0,-13.162 -2.126,-22.841 -6.385,-29.033 -31.356,-56.324 -91.067,-95.223 -179.128,-116.706 -24.779,-7.746 -52.842,-13.354 -84.193,-16.843 -20.906,-2.318 -49.457,-4.258 -85.646,-5.805 -15.101,1.739 -26.425,2.709 -33.972,2.902 -13.547,0.584 -22.834,-3.868 -27.87,-13.354 35.032,-42 64.553,-85.549 88.55,-130.646 1.547,-2.71 3.191,-5.518 4.932,-8.42 6.969,-13.547 12.777,-28.84 17.421,-45.868 0.386,-1.746 0.873,-3.487 1.452,-5.228 3.679,-14.517 6.969,-32.129 9.871,-52.837 5.029,-35.616 1.355,-73.743 -11.029,-114.389 -8.131,-36.194 -19.744,-70.937 -34.839,-104.228 -25.743,-43.741 -44.421,-73.646 -56.034,-89.711 -3.867,-3.873 -5.42,-8.318 -4.645,-13.354 0.971,-5.229 4.451,-8.03 10.451,-8.421 8.131,0.777 21.968,2.999 41.518,6.68 17.42,3.289 31.16,5.132 41.225,5.518 49.549,5.222 98.613,0.288 147.191,-14.812 48.584,-14.902 91.838,-38.513 129.779,-70.834 -3.874,-33.297 -5.902,-52.554 -6.097,-57.775 -0.386,-22.256 3.386,-40.935 11.317,-56.035 37.164,23.617 60.102,38.615 68.811,45 4.645,-11.221 9.578,-27.967 14.807,-50.223 5.421,-23.033 10.161,-39.777 14.227,-50.229 5.414,-17.612 9.771,-30.773 13.064,-39.482 5.998,-15.294 13.842,-26.418 23.514,-33.387 26.906,29.032 46.164,64.16 57.776,105.385 2.128,8.322 4.163,20.707 6.096,37.162 2.128,17.034 4.162,29.521 6.097,37.453 6.582,8.902 17.708,19.841 33.387,32.804 12.196,-19.546 22.551,-34.453 31.068,-44.706 9.48,4.645 17.611,13.258 24.383,25.834 4.065,6.97 9.485,17.806 16.262,32.52 3.482,6 7.258,15.771 11.318,29.322 3.873,13.354 7.649,23.033 11.323,29.033 8.71,5.227 19.063,10.648 31.067,16.256 2.32,0.971 13.066,5.615 32.226,13.938 29.61,10.837 66.679,17.13 111.19,18.871 25.166,0.97 62.908,1.645 113.227,2.029 -5.223,15.101 -15.967,35.81 -32.225,62.13 -16.836,26.901 -27.966,47.52 -33.387,61.842 -30.582,64.064 -43.26,123.773 -38.031,179.128 1.354,19.16 4.644,39.001 9.872,59.517 3.866,16.643 8.999,33.676 15.384,51.096 0.391,1.355 0.873,2.71 1.451,4.065 11.033,29.032 27.58,64.745 49.65,107.131 2.902,6.192 8.029,15.479 15.384,27.869 5.421,11.228 7.258,21.389 5.517,30.484 -37.355,-3.873 -65.42,-6.481 -84.193,-7.837 -32.514,-2.324 -60.583,-1.746 -84.193,1.741 -64.842,4.644 -133.261,35.225 -205.258,91.741 -4.451,4.259 -11.227,10.547 -20.322,18.871 -7.553,7.547 -13.16,14.805 -16.842,21.774 0.387,14.517 0.193,36.387 -0.578,65.612 0.578,25.55 4.838,46.836 12.77,63.871 18.39,-41.031 42,-76.352 70.84,-105.968 31.937,-32.515 67.552,-55.161 106.842,-67.937 30.967,-9.096 70.257,-12.578 117.871,-10.452 77.225,3.487 116.805,5.229 118.744,5.229 20.9,-0.386 39.193,-8.228 54.871,-23.516 16.258,-15.679 23.516,-33.874 21.774,-54.583 -4.451,-18.389 -13.841,-39.578 -28.165,-63.581 -23.418,-39.483 -35.32,-59.517 -35.707,-60.095 -8.907,-14.709 -16.647,-29.521 -23.226,-44.422 -7.552,-16.835 -13.647,-33.87 -18.292,-51.096 -0.578,-1.74 -1.066,-3.482 -1.452,-5.229 -9.486,-37.549 -11.612,-73.84 -6.384,-108.871 3.096,-26.708 11.709,-55.933 25.834,-87.675 5.035,-11.228 18.967,-38.424 41.807,-81.581 5.422,-9.486 14.229,-23.424 26.418,-41.808 10.255,-16.642 17.13,-31.545 20.616,-44.706 z m -267.681,29.617 c -16.258,-3.874 -35.225,-10.746 -56.903,-20.618 -24.194,-11.613 -42.481,-20.13 -54.872,-25.545 -1.934,10.064 -4.451,25.931 -7.547,47.615 -4.066,18.383 -11.324,32.223 -21.775,41.512 -11.998,11.228 -20.803,21.389 -26.417,30.484 -7.746,12.775 -10.745,25.352 -8.999,37.742 3.674,9.486 11.221,26.225 22.641,50.229 10.259,20.9 17.421,37.838 21.486,50.807 12.39,-26.906 31.646,-53.422 57.775,-79.551 15.094,-14.901 40.157,-36.29 75.195,-64.16 6.963,-4.837 10.547,-7.355 10.739,-7.548 4.45,-1.938 8.325,-0.969 11.612,2.904 2.519,8.902 3.579,19.835 3.193,32.803 0,7.354 -0.386,18.39 -1.163,33.099 -0.579,34.838 -8.612,67.738 -24.093,98.709 -16.258,32.322 -38.424,57.68 -66.486,76.063 -14.516,6.969 -25.353,12.391 -32.514,16.264 -9.871,5.42 -16.552,11.901 -20.033,19.449 -1.162,2.131 -1.939,4.355 -2.325,6.679 -1.548,9.095 -5.317,20.901 -11.323,35.417 -1.355,3.098 -2.607,6.097 -3.771,9 -5.035,11.998 -8.227,20.708 -9.582,26.129 7.161,-5.224 15.582,-13.932 25.262,-26.129 2.902,-3.674 5.998,-7.74 9.287,-12.191 13.738,-18.39 25.354,-31.068 34.839,-38.031 0.387,-0.387 0.778,-0.681 1.163,-0.873 35.224,-26.516 73.158,-46.646 113.805,-60.39 4.065,13.358 4.26,31.845 0.584,55.456 -0.392,1.741 -0.68,3.385 -0.873,4.934 -3.681,18.967 -7.933,36.001 -12.775,51.096 -1.549,4.451 -3.098,8.805 -4.645,13.064 -9.288,24.195 -21.389,44.518 -36.29,60.968 -18.196,19.161 -46.741,36.002 -85.646,50.518 -48.968,17.997 -79.838,30.966 -92.614,38.904 -6.385,4.451 -12.773,10.644 -19.16,18.582 -0.777,0.771 -6.095,7.933 -15.967,21.479 -6.387,7.553 -9.584,18.292 -9.584,32.23 0,7.74 0.392,19.257 1.163,34.544 33.677,-32.128 70.743,-58.45 111.196,-78.966 41.807,-21.293 84.965,-35.031 129.483,-41.224 20.129,-2.132 45.579,-2.518 76.357,-1.163 46.837,1.935 72.189,2.903 76.062,2.903 -19.16,-37.741 -33.29,-66.485 -42.386,-86.229 -10.258,-23.226 -18.87,-45.096 -25.841,-65.611 -2.902,-8.324 -5.516,-16.449 -7.835,-24.389 -2.133,-9.289 -4.067,-18.191 -5.808,-26.707 -5.035,-24.389 -8.323,-45.488 -9.871,-63.293 -2.902,-33.479 -1.066,-63.77 5.517,-90.868 4.837,-24.389 15.095,-52.842 30.773,-85.356 18.583,-36.193 31.839,-63.582 39.772,-82.164 -28.84,-0.963 -52.549,-2.415 -71.129,-4.354 -25.744,-3.099 -48.969,-7.839 -69.677,-14.223 z m -2.32,86.802 c -52.259,33.875 -88.749,71.617 -109.456,113.226 -8.71,17.612 -14.805,33.388 -18.287,47.326 -4.45,18.19 -5.132,34.935 -2.035,50.228 2.132,-5.421 4.547,-13.842 7.258,-25.262 2.518,-11.414 4.939,-19.932 7.258,-25.545 5.807,-14.902 14.613,-30.778 26.419,-47.614 5.421,-7.547 16.744,-21.87 33.972,-42.97 14.516,-17.42 29.514,-31.84 45,-43.26 4.065,26.129 -1.26,53.324 -15.969,81.586 -9.293,17.806 -25.743,40.838 -49.355,69.093 -6.39,7.741 -11.13,13.649 -14.225,17.71 -5.615,7.166 -8.037,13.937 -7.26,20.321 28.84,-28.646 44.127,-43.934 45.873,-45.867 16.643,-18.197 28.738,-36.002 36.291,-53.421 8.125,-15.479 13.064,-34.26 14.805,-56.324 0.771,-11.613 0.675,-31.351 -0.289,-59.227 z m 498.193,371.909 c 10.838,-2.904 19.645,-5.613 26.42,-8.132 4.065,-3.68 5.131,-8.324 3.192,-13.937 -1.741,-5.224 -4.934,-9.289 -9.577,-12.192 -5.42,-5.029 -12.775,-8.035 -22.069,-8.999 -1.157,-0.193 -9.287,-0.289 -24.382,-0.289 -0.586,17.027 -0.586,33.966 0,50.807 2.511,-0.776 11.316,-3.198 26.416,-7.258 z m 50.517,54.577 c -2.516,-20.322 -5.709,-37.453 -9.582,-51.385 -24.966,12.775 -58.74,22.84 -101.323,30.194 -60.191,10.065 -94.935,16.354 -104.228,18.872 35.422,50.125 74.129,102.095 116.129,155.901 12.584,13.739 24.195,23.899 34.838,30.483 15.101,9.096 29.715,12.191 43.845,9.288 9.866,-1.934 16.064,-3.386 18.576,-4.355 6.776,-2.903 10.841,-7.354 12.196,-13.353 2.519,-16.643 2.808,-37.255 0.869,-61.836 -2.904,-27.484 -4.645,-48.102 -5.224,-61.841 -2.516,-23.031 -4.547,-40.354 -6.096,-51.968 z m -208.164,51.681 c -0.386,-0.585 -0.674,-1.26 -0.868,-2.036 -0.391,-0.771 -0.391,-1.549 0,-2.318 0.194,-0.585 0.675,-1.066 1.452,-1.453 l -13.359,-18.003 c -22.836,41.036 -57.096,87.296 -102.771,138.777 -22.647,28.646 -52.259,55.836 -88.843,81.58 -23.611,16.648 -58.258,37.549 -103.932,62.708 -26.716,14.517 -57.776,28.068 -93.193,40.646 -23.227,8.323 -55.649,18.485 -97.259,30.485 -19.167,4.648 -34.067,7.938 -44.712,9.871 -10.258,1.939 -23.906,6.191 -40.934,12.775 l -0.295,0.288 c -12.191,7.162 -24.383,14.614 -36.58,22.359 -0.191,0 -0.289,0.097 -0.289,0.288 -9.095,4.259 -22.262,6.385 -39.482,6.385 -8.709,0 -19.161,-3.674 -31.359,-11.027 -12.581,-7.553 -23.127,-14.035 -31.645,-19.456 -6.77,-4.45 -10.934,-7.065 -12.481,-7.837 -15.292,-1.161 -33.97,-4.161 -56.034,-8.998 -23.027,-5.422 -40.645,-9.391 -52.836,-11.908 -0.971,-0.192 -1.844,-0.385 -2.613,-0.578 v 0.289 c -2.326,-0.771 -5.615,-1.934 -9.874,-3.48 l -10.45,36.579 c 1.939,0.578 22.738,7.257 62.42,20.032 -3.481,11.229 -7.45,29.227 -11.902,54 -5.806,21.099 -15.582,36.097 -29.322,45 -9.293,7.355 -21.195,9.582 -35.711,6.68 -3.097,-0.776 -15.096,-4.939 -36.002,-12.486 3.103,-10.451 7.547,-20.708 13.355,-30.773 5.034,1.355 12.678,4.163 22.936,8.421 9.101,3.289 16.938,3.771 23.516,1.452 4.264,-6.199 7.644,-14.715 10.16,-25.551 2.326,-11.998 4.264,-20.901 5.807,-26.708 -8.902,-2.325 -29.996,-8.613 -63.287,-18.87 3.874,-16.455 10.258,-39.099 19.161,-67.938 l 0.873,-1.163 c -0.778,-0.385 -1.554,-0.674 -2.325,-0.873 -33.483,-14.516 -58.553,-25.641 -75.195,-33.387 -29.611,-13.739 -54.68,-27.093 -75.195,-40.062 -30.574,-20.13 -48.969,-32.424 -55.161,-36.874 -20.516,-14.517 -37.64,-28.546 -51.386,-42.098 -15.094,-11.612 -34.066,-30.483 -56.9,-56.613 -8.133,-9.48 -18.39,-21.382 -30.773,-35.706 0.386,0.578 -0.103,0.385 -1.451,-0.585 -3.289,-2.511 -8.036,-7.354 -14.229,-14.516 -6.391,-7.161 -11.131,-14.612 -14.227,-22.353 -3.096,-7.741 -4.74,-16.16 -4.934,-25.256 v -0.295 c 0,-0.963 0.092,-1.934 0.289,-2.903 0,-1.355 0.58,-3.866 1.741,-7.548 1.163,-3.674 3.481,-9.385 6.97,-17.129 0,-0.387 0.096,-0.676 0.289,-0.868 0,-6.776 -1.939,-12.294 -5.807,-16.552 -5.229,-7.161 -12.68,-16.16 -22.354,-26.997 l -7.842,18.583 c -0.578,-0.199 -1.162,-0.199 -1.74,0 -0.771,0 -1.355,0.385 -1.74,1.156 l -124.552,198.871 c -0.577,0.585 -0.681,1.355 -0.288,2.326 0,0.578 -1.164,3.68 -3.488,9.287 7.168,11.812 17.613,25.358 31.357,40.646 7.746,8.518 19.256,21.293 34.551,38.326 18.582,23.032 43.066,47.03 73.447,71.997 17.612,14.516 44.711,35.615 81.291,63.292 12.197,9.873 27.876,20.517 47.035,31.936 10.836,6.386 27.189,15.872 49.066,28.454 12.963,7.934 30.773,16.451 53.416,25.546 29.225,11.805 47.518,19.454 54.872,22.937 14.907,7.354 34.356,14.516 58.354,21.484 39.103,11.613 59.034,17.516 59.812,17.709 19.737,5.229 44.416,10.064 74.032,14.516 16.642,2.326 41.513,5.904 74.61,10.741 82.453,5.228 173.225,-0.29 272.326,-16.547 63.48,-14.131 124.447,-32.515 182.904,-55.161 78.773,-35.809 150.674,-78.484 215.707,-128.031 65.033,-49.549 123.291,-107.71 174.778,-174.483 -0.393,0 -0.681,-0.097 -0.873,-0.296 -0.579,-0.385 -0.971,-0.867 -1.163,-1.451 -0.192,-0.578 -0.289,-1.062 -0.289,-1.452 0.192,-1.157 0.289,-2.415 0.289,-3.771 -0.192,-1.355 -0.385,-2.711 -0.578,-4.065 -0.193,-0.386 -0.289,-0.776 -0.289,-1.163 l 0.289,0.289 c -0.584,-1.549 -0.971,-2.806 -1.162,-3.77 -0.578,-1.162 -0.971,-2.037 -1.162,-2.614 -0.387,-0.386 -0.578,-0.675 -0.578,-0.874 -0.585,-0.771 -0.777,-1.549 -0.585,-2.318 0.199,-0.777 0.68,-1.355 1.451,-1.742 0.2,-0.391 0.488,-0.584 0.874,-0.584 -3.874,-7.547 -8.999,-15.774 -15.39,-24.676 -15.872,-19.938 -26.516,-34.159 -31.935,-42.677 -5.224,-8.131 -11.902,-17.13 -20.029,-27.002 -8.131,-9.674 -13.264,-15.775 -15.39,-18.287 -6.969,-7.746 -11.708,-13.359 -14.227,-16.841 -3.865,-4.837 -7.256,-10.74 -10.16,-17.708 z m 11.324,8.998 c 1.162,1.935 2.324,3.681 3.48,5.229 1.356,1.741 3.198,4.06 5.518,6.963 -3.674,-4.837 -6.673,-8.903 -8.998,-12.192 z m -335.035,-233.71 c 1.548,-12.191 0.584,-22.937 -2.902,-32.225 -25.744,9.096 -47.127,19.84 -64.162,32.225 -3.68,2.518 -7.064,5.126 -10.16,7.836 -14.71,12.39 -28.744,26.811 -42.098,43.26 -10.258,12.39 -20.033,25.84 -29.321,40.355 -15.485,24.003 -33.099,56.324 -52.843,96.97 34.262,-12.39 61.264,-23.516 81.002,-33.388 29.033,-14.323 53.229,-30.388 72.58,-48.192 14.131,-12.583 25.937,-31.164 35.424,-55.745 2.127,-5.807 4.155,-11.999 6.096,-18.582 3.674,-16.835 5.806,-27.581 6.385,-32.225 v -0.289 z m -30.194,51.096 c -28.257,44.133 -72.484,81.676 -132.676,112.647 l -13.065,-7.548 c 41.224,-31.163 63.583,-48.197 67.064,-51.101 21.1,-17.998 37.936,-35.997 50.517,-53.999 1.935,-2.903 3.776,-5.807 5.517,-8.71 -4.842,2.903 -9.678,5.807 -14.516,8.71 -32.128,20.516 -58.841,45.193 -80.127,74.032 -1.939,-10.065 -0.971,-17.226 2.902,-21.484 8.126,-12.577 20.612,-26.322 37.447,-41.225 3.681,-3.096 8.035,-6.872 13.064,-11.323 7.939,-6.97 17.618,-15.48 29.033,-25.545 9.486,-8.518 17.419,-14.812 23.81,-18.872 4.065,-2.71 8.126,-4.938 12.19,-6.679 5.229,-2.326 10.451,-3.868 15.68,-4.645 0,1.548 -0.096,3.096 -0.289,4.645 -1.548,18.195 -5.326,32.32 -11.324,42.386 -1.74,2.904 -3.482,5.807 -5.227,8.711 z m 223.26,278.132 c -36.388,-1.355 -63.678,-2.324 -81.868,-2.903 -31.937,-1.162 -59.228,-1.645 -81.877,-1.451 -56.317,0.771 -100.256,14.42 -131.802,40.935 -28.646,18.389 -54.004,45.288 -76.068,80.712 -13.738,22.257 -30.29,55.836 -49.644,100.74 90.777,-16.064 186.289,-52.162 286.547,-108.293 16.842,-9.096 34.743,-20.901 53.711,-35.418 11.227,-8.516 27.875,-22.063 49.938,-40.645 9.288,-7.548 19.643,-18.775 31.063,-33.677 z m -203.227,290.612 20.323,-20.322 19.454,43.26 c -2.131,2.126 -5.034,6.193 -8.71,12.191 -3.486,4.645 -7.649,6.191 -12.486,4.645 -1.74,-3.097 -7.931,-16.354 -18.581,-39.774 z m 216.002,-194.517 c -3.681,-5.228 -4.837,-9.872 -3.481,-13.938 8.709,-9.481 22.738,-22.738 42.097,-39.772 6.384,8.711 16.739,21.292 31.063,37.743 12.191,15.292 20.419,29.321 24.677,42.097 l 17.709,-18.871 12.775,25.257 c -19.938,20.521 -43.355,41.518 -70.256,63.002 -4.066,-6.776 -7.066,-11.998 -9.005,-15.679 -3.288,-6.191 -3.097,-11.516 0.584,-15.967 3.097,-3.68 7.354,-7.934 12.776,-12.775 3.096,-2.711 7.644,-6.771 13.643,-12.191 -10.836,-14.323 -22.45,-30.195 -34.838,-47.613 l -29.322,21.483 c 0,-0.192 -2.809,-4.45 -8.422,-12.776 z m 145.161,-82.163 c -4.451,-7.354 -9.678,-15.288 -15.678,-23.805 l -20.033,3.481 -12.771,-18.287 c 5.999,-10.064 13.739,-21.87 23.226,-35.423 9.097,10.843 22.353,27.292 39.772,49.355 3.288,3.102 4.934,7.553 4.934,13.359 0,3.288 -0.192,8.125 -0.579,14.517 13.548,3.289 25.353,11.124 35.416,23.515 -26.899,34.839 -49.449,60.48 -67.641,76.936 -4.259,-7.546 -6.969,-12.775 -8.131,-15.679 -2.518,-6.192 -3.098,-11.998 -1.742,-17.42 3.682,-5.421 9,-11.998 15.969,-19.743 9.289,-10.259 14.901,-16.546 16.842,-18.871 -27.1,-0.771 -48.393,-5.512 -63.871,-14.222 l -17.421,11.902 -15.966,-20.907 17.123,-25.255 c 7.746,2.323 19.264,5.999 34.551,11.034 13.552,3.675 25.551,5.513 36,5.513 z m -196.258,131.808 c 15.48,6.39 28.647,11.324 39.482,14.806 -2.517,-10.065 -11.418,-16.258 -26.706,-18.576 l -11.035,-24.973 29.61,-22.642 c 4.066,7.934 11.131,19.642 21.197,35.128 7.547,13.938 10.354,26.906 8.42,38.905 3.289,1.933 8.517,4.547 15.68,7.835 5.998,3.289 10.353,6.971 13.063,11.035 1.157,4.065 0.386,8.709 -2.325,13.933 -3.48,5.613 -5.999,9.679 -7.547,12.197 -18.582,-7.163 -32.616,-12.583 -42.098,-16.258 -16.648,-6.39 -30.773,-11.323 -42.386,-14.812 3.481,7.746 10.258,20.522 20.323,38.327 18.383,-6 30.285,-2.036 35.705,11.901 -17.225,11.807 -31.447,20.805 -42.676,27.003 -6.582,-3.873 -12.678,-10.36 -18.291,-19.455 -1.163,-2.126 -5.319,-10.258 -12.48,-24.389 -2.711,-5.415 -2.902,-11.901 -0.585,-19.449 3.874,-8.517 6.488,-14.806 7.843,-18.871 -11.612,-5.228 -18.1,-8.131 -19.455,-8.71 -7.355,-3.68 -13.547,-7.354 -18.582,-11.034 5.035,-11.612 9.486,-20.901 13.359,-27.87 8.904,3.488 22.065,8.807 39.484,15.969 z m -108.003,48.776 c 6.777,11.029 14.811,26.13 24.1,45.29 11.613,23.418 19.354,38.616 23.226,45.578 l -18.581,26.425 c -6.385,-9.487 -13.934,-22.166 -22.643,-38.038 -11.612,-20.899 -18.87,-33.772 -21.774,-38.609 -13.552,6.771 -23.81,11.807 -30.778,15.095 -11.807,5.614 -22.353,9.872 -31.641,12.775 -0.584,-14.323 2.416,-26.321 8.999,-36.001 18.189,-11.029 41.222,-21.871 69.092,-32.515 z m -379.74,-1156.65 c -3.681,4.26 -5.132,9.583 -4.354,15.969 0.191,64.257 0.289,160.744 0.289,289.449 -0.771,5.036 1.354,8.902 6.384,11.613 2.711,1.361 7.168,3.097 13.36,5.229 0.386,-144.777 0.191,-253.262 -0.584,-325.452 -6,-2.904 -11.029,-1.843 -15.095,3.192 z m -342.872,290.613 c -21.875,1.162 -54.583,0.97 -98.131,-0.579 7.354,13.739 18.582,34.255 33.678,61.546 12.773,24.004 22.255,45.2 28.453,63.584 15.871,48.775 25.063,91.74 27.58,128.904 1.934,16.256 0.578,35.898 -4.066,58.933 -1.547,7.745 -3.582,17.714 -6.095,29.905 -1.933,8.323 -4.065,17.611 -6.39,27.869 -1.934,7.162 -4.549,14.902 -7.837,23.227 -6.578,16.455 -15.872,34.935 -27.87,55.451 -22.648,39.097 -36.58,64.454 -41.807,76.068 46.064,0.77 85.74,3.288 119.031,7.546 42.97,5.614 81.677,14.517 116.129,26.708 39.098,18.003 66.096,31.742 81.004,41.229 29.031,18.385 50.323,39.483 63.87,63.288 l 11.323,-10.45 c 1.933,-28.449 1.933,-68.419 0,-119.9 -36.971,-18.004 -67.16,-30.195 -90.584,-36.586 l 3.775,-14.805 c 11.415,-6.969 25.647,-13.354 42.676,-19.16 9.873,-3.482 24.773,-8.228 44.711,-14.227 0.386,-18.385 0.68,-36.773 0.873,-55.162 0,-17.034 -0.193,-34.063 -0.584,-51.096 0,-5.807 -0.096,-11.71 -0.289,-17.709 -28.453,-13.938 -51.77,-32.611 -69.966,-56.035 -20.714,-26.321 -30.485,-53.902 -29.322,-82.742 14.323,-0.191 31.063,1.451 50.222,4.939 11.035,1.934 27.484,5.319 49.355,10.161 0.199,-15.292 0.391,-26.81 0.584,-34.55 0.193,-13.739 -0.102,-25.262 -0.873,-34.549 -2.132,-3.676 -8.612,-13.258 -19.449,-28.744 -8.131,-11.612 -13.842,-21.678 -17.131,-30.193 -5.029,-10.253 -8.42,-22.45 -10.16,-36.58 -1.163,-8.319 -1.934,-20.999 -2.326,-38.031 13.547,-0.193 30.389,0.385 50.518,1.74 -0.385,-6.385 -0.68,-11.131 -0.873,-14.227 -0.771,-5.807 -2.902,-9.867 -6.385,-12.191 -24.387,-18.191 -42.867,-37.356 -55.451,-57.486 -24.389,15.485 -45.674,27.966 -63.871,37.453 -23.809,12.389 -46.65,21.87 -68.515,28.453 -27.489,9.872 -59.425,15.871 -95.807,17.998 z m 424.451,-149.807 c -0.578,32.9 -0.674,82.256 -0.289,148.066 -0.775,4.842 0.289,9.774 3.192,14.804 1.548,2.519 4.741,6.682 9.583,12.486 0,-6.004 -0.488,-20.905 -1.45,-44.71 -0.971,-18.582 -0.874,-33.58 0.289,-45 1.933,-14.901 7.161,-34.84 15.679,-59.807 -14.909,-14.321 -23.908,-22.935 -27.004,-25.839 z m 48.778,3.778 c -18.004,36.381 -27.678,70.936 -29.033,103.643 0.193,21.679 2.514,56.902 6.965,105.68 -9.289,-9.102 -16.354,-15.679 -21.191,-19.744 12.577,26.327 19.354,40.549 20.323,42.68 7.546,16.45 13.45,31.16 17.708,44.128 -0.385,-21.87 4.548,-49.162 14.806,-81.869 0.777,-21.485 1.065,-49.162 0.873,-83.037 -0.192,-45.482 -0.192,-73.256 0,-83.321 0.772,-4.645 -0.096,-9.582 -2.613,-14.805 -0.387,-0.779 -3.001,-5.23 -7.838,-13.355 z m -46.162,181.74 c 2.318,-2.902 1.933,-6.196 -1.163,-9.871 -2.903,-3.675 -5.999,-4.74 -9.288,-3.191 -2.324,2.901 -2.035,6.287 0.868,10.16 3.096,3.679 6.294,4.643 9.583,2.902 z m 71.128,-0.583 c 18.967,-20.901 28.545,-47.03 28.744,-78.388 0,-30.772 -9.006,-57.191 -27.004,-79.256 -2.126,21.102 -3,47.422 -2.614,78.967 0.193,17.42 0.489,43.646 0.874,78.677 z M 5148.18,3158.402 c -2.127,-12.19 -5.807,-22.256 -11.029,-30.193 -1.746,14.708 -2.132,33.971 -1.161,57.774 1.161,30.388 1.644,49.554 1.452,57.487 -0.777,44.71 -1.066,111.773 -0.875,201.189 -42,-23.032 -83.225,-38.32 -123.676,-45.867 8.131,5.807 30.483,20.709 67.063,44.711 27.678,17.998 49.45,33.773 65.322,47.319 31.165,25.551 47.712,39.29 49.644,41.23 17.619,17.611 27.78,35.995 30.485,55.161 l -15.968,8.998 c 2.904,2.513 7.064,6.482 12.486,11.902 5.029,4.259 9.775,7.258 14.227,8.999 6.771,0.776 12.48,-2.127 17.131,-8.71 4.451,-6.583 5.414,-13.064 2.902,-19.449 -5.806,-18.581 -13.064,-36.579 -21.775,-53.998 -0.391,6.576 -0.68,16.353 -0.871,29.32 -5.229,-3.101 -9.777,-8.323 -13.645,-15.678 -3.68,-8.71 -6.68,-15.095 -9.003,-19.16 -5.417,-11.613 -14.318,-24.967 -26.709,-40.067 -17.611,-21.099 -27.772,-33.58 -30.483,-37.453 -0.777,-27.672 -1.066,-71.221 -0.873,-130.646 0.391,-56.901 0,-100.45 -1.156,-130.646 -2.326,-21.284 -3.488,-32.023 -3.488,-32.223 z m -128.032,68.516 -15.095,4.354 c -5.613,-8.323 -11.227,-15.864 -16.841,-22.641 0,22.449 5.42,44.801 16.257,67.063 10.065,20.515 23.81,39.193 41.229,56.034 1.156,-13.938 1.543,-31.845 1.156,-53.71 0.971,-8.71 -1.933,-17.907 -8.71,-27.58 -8.515,-10.262 -14.514,-18.098 -17.996,-23.52 z m 58.354,177.971 c 0,-24.581 0.199,-68.906 0.584,-132.971 0.386,-56.317 0.386,-100.74 0,-133.253 -11.613,35.031 -18.004,78.001 -19.165,128.898 -0.579,29.226 -0.387,72.967 0.583,131.229 l 17.998,6.097 z m -23.226,63.871 c -9.096,-11.033 -17.222,-19.16 -24.389,-24.389 3.873,10.837 10.547,21.974 20.034,33.389 4.064,4.836 13.063,14.227 27.002,28.164 29.418,28.256 62.998,48.969 100.74,62.125 -4.258,-3.289 -21.581,-14.805 -51.969,-34.544 -21.287,-13.938 -37.641,-26.906 -49.061,-38.904 -3.678,-3.488 -11.129,-12.097 -22.357,-25.841 z m 20.035,-10.161 c 11.998,13.938 27.092,27.774 45.289,41.52 11.42,8.902 28.165,20.61 50.228,35.127 6.386,4.645 13.546,7.548 21.486,8.711 -8.909,-8.909 -21.101,-19.161 -36.587,-30.774 -21.869,-16.455 -34.639,-26.23 -38.32,-29.327 -8.516,-7.156 -15.004,-12.384 -19.448,-15.673 -7.941,-5.615 -15.487,-8.813 -22.648,-9.584 z m -15.096,71.708 c -0.385,30.971 0,52.842 1.158,65.618 l 16.841,1.739 v -55.16 l -17.999,-12.197 z m 46.157,25.839 c -5.028,-2.127 -8.608,-3.964 -10.739,-5.518 l -0.289,51.969 17.418,8.421 c 2.904,-16.064 3.676,-31.743 2.32,-47.03 -1.549,-3.095 -4.445,-5.715 -8.71,-7.842 z m -116.708,50.518 c 7.354,-1.163 11.807,-1.838 13.354,-2.03 5.229,-0.193 9.583,0.867 13.066,3.192 14.322,6.385 33,15.871 56.033,28.448 27.099,14.517 45.58,24.196 55.451,29.032 7.162,4.066 21.678,11.522 43.549,22.359 18.196,8.901 32.32,16.744 42.386,23.515 l -12.481,1.451 c -14.131,-3.096 -31.646,-9.969 -52.553,-20.611 -26.708,-13.546 -43.838,-21.774 -51.385,-24.678 14.516,13.933 34.261,26.129 59.228,36.579 14.516,6 36.579,14.131 66.19,24.389 0.391,1.355 0.777,2.904 1.162,4.645 0.97,4.065 2.035,9.287 3.193,15.679 1.939,7.933 4.648,14.228 8.131,18.87 4.258,3.097 9.192,4.548 14.805,4.355 5.999,-0.386 10.648,-2.518 13.938,-6.391 5.224,-7.354 8.325,-15.383 9.289,-24.094 0.387,-2.902 0.488,-5.71 0.289,-8.42 -0.386,-6 -1.934,-11.613 -4.644,-16.841 -3.675,-8.903 -6.482,-22.45 -8.423,-40.646 -1.738,-18.769 -4.354,-32.418 -7.835,-40.935 -3.681,7.161 -4.644,17.13 -2.903,29.905 2.127,15.096 2.614,25.353 1.451,30.773 -1.74,9.673 -2.711,14.901 -2.902,15.679 -2.324,5.998 -6.289,7.547 -11.902,4.644 -5.613,-4.065 -12.293,-11.227 -20.034,-21.484 -7.933,-10.836 -14.419,-18.197 -19.448,-22.063 -30.973,-23.998 -66.293,-42.777 -105.968,-56.324 -37.165,-12.776 -76.454,-20.323 -117.877,-22.642 6.192,20.321 15.679,38.513 28.454,54.577 13.746,16.841 29.713,29.424 47.903,37.742 49.741,24.195 91.355,39.585 124.839,46.162 -8.516,-6.771 -21.773,-13.45 -39.772,-20.033 -19.937,-7.161 -33.579,-13.064 -40.94,-17.708 -32.513,-19.553 -51.963,-31.742 -58.354,-36.58 -21.1,-15.485 -36.194,-32.325 -45.29,-50.516 z m 164.033,-12.191 c 0,-12.974 -4.645,-21.484 -13.938,-25.551 -2.705,11.613 -3.481,28.158 -2.318,49.645 l 14.805,8.999 c 0.969,-14.711 1.451,-25.745 1.451,-33.093 z m -93.482,126.58 c 0,3.68 0,7.644 0,11.902 -0.191,14.131 -0.294,31.158 -0.294,51.096 0,17.033 0,36.098 0,57.196 l 16.841,8.999 c 1.355,-16.455 1.939,-37.066 1.74,-61.841 0,-1.548 0,-2.999 0,-4.354 -0.192,-25.353 -0.288,-42.386 -0.288,-51.096 0,-3.675 0,-5.903 0,-6.681 l -17.999,-5.221 z m 307.16,-160.262 c -2.127,2.325 -8.421,9.679 -18.871,22.068 -12.385,16.059 -20.998,28.256 -25.841,36.58 -8.71,14.516 -14.124,28.447 -16.257,41.809 4.258,-1.163 8.42,-3.392 12.486,-6.681 2.318,-1.939 5.807,-5.319 10.451,-10.161 27.869,-30.195 47.902,-64.359 60.094,-102.486 -7.162,4.456 -14.515,10.745 -22.062,18.871 z m -171.58,31.935 c -2.52,-8.517 -7.164,-13.643 -13.938,-15.383 -1.157,16.835 -1.354,38.995 -0.579,66.484 6.192,5.03 15.391,12.771 27.581,23.227 11.034,9.288 20.708,16.642 29.033,22.063 0,-9.294 -0.194,-16.257 -0.579,-20.907 -0.584,-8.125 -2.324,-14.806 -5.227,-20.027 -7.934,-6.583 -13.938,-11.613 -17.999,-15.1 -7.163,-6.001 -11.421,-12.192 -12.775,-18.583 -2.326,-9.674 -4.162,-16.932 -5.517,-21.774 z m -820.166,270.875 c -38.902,0.578 -65.611,0.675 -80.127,0.288 -5.613,-0.192 -12.68,-1.161 -21.196,-2.902 -12.39,-2.711 -19.448,-4.259 -21.19,-4.644 0.771,13.354 -0.102,33.194 -2.614,59.516 -2.517,26.322 -3.487,46.066 -2.903,59.228 0.193,8.125 -0.481,20.901 -2.035,38.32 -0.193,15.1 3.391,26.906 10.746,35.423 13.353,17.222 37.157,27.189 71.418,29.899 l 91.451,-141.969 c 9.289,-15.673 16.064,-27.484 20.323,-35.417 7.746,-13.938 13.257,-26.323 16.546,-37.164 -19.739,-0.964 -46.544,-1.158 -80.419,-0.578 z m -52.257,-56.036 c -12.577,2.132 -24.101,4.843 -34.55,8.132 7.74,13.738 19.545,21.87 35.423,24.388 4.06,-12.775 3.77,-23.611 -0.873,-32.52 z m 127.163,189.294 12.191,-13.938 c 1.355,0.193 2.808,0.385 4.355,0.584 10.648,6.771 16.738,12.289 18.293,16.547 l -5.229,5.518 c 0.192,0.192 0.385,0.385 0.579,0.578 l -20.901,21.774 c 3.866,5.036 9.872,12.292 17.998,21.774 7.166,8.901 12.582,16.648 16.262,23.225 -8.131,7.746 -20.231,19.938 -36.29,36.58 -14.517,13.745 -28.454,23.521 -41.808,29.328 -10.451,3.481 -20.419,0 -29.906,-10.457 -9.68,-13.547 -17.221,-22.642 -22.641,-27.286 l 24.965,-14.227 22.938,21.774 c 15.672,-11.806 31.351,-24.773 47.03,-38.904 -17.228,-18.197 -29.033,-31.937 -35.418,-41.225 l 27.58,-31.066 v -0.579 z m -26.713,170.129 c 12.775,-14.516 22.552,-25.063 29.322,-31.646 12.197,-11.998 24.778,-17.708 37.742,-17.13 1.162,-15.095 9.486,-27.19 24.973,-36.29 l 9.288,4.649 c 0.385,7.354 0.771,23.13 1.161,47.318 0.387,19.553 1.163,35.226 2.32,47.036 l 14.811,-14.811 c -2.326,-12.577 -3.777,-21.774 -4.355,-27.581 9.096,-3.675 17.902,-3.192 26.42,1.452 6.969,4.064 13.16,10.648 18.58,19.744 -5.998,5.999 -14.322,16.353 -24.973,31.063 -10.252,11.811 -21.287,17.81 -33.092,18.003 -0.193,2.71 -0.487,6.577 -0.872,11.612 -0.387,4.645 -1.067,8.518 -2.03,11.613 -4.65,4.45 -13.842,10.644 -27.582,18.581 -0.777,-12.582 -1.162,-30.002 -1.162,-52.258 0.193,-24.973 0.097,-42.488 -0.289,-52.554 -11.998,6.777 -20.033,12.583 -24.1,17.42 -0.771,4.259 -0.385,9.391 1.163,15.39 0.97,3.48 2.513,8.613 4.644,15.39 l -18.87,6.384 c -13.161,-11.803 -24.191,-22.935 -33.099,-33.385 z m 803.619,-383.227 c -4.26,-6.775 -11.229,-12.095 -20.908,-15.967 -11.414,-3.681 -19.93,-6.385 -25.545,-8.132 0,1.747 -0.096,9.871 -0.289,24.389 0,5.806 -0.096,12.583 -0.295,20.322 -0.191,18.004 0.199,32.905 1.163,44.711 5.036,5.03 9.775,9.385 14.228,13.064 15.486,-16.449 26.033,-42.482 31.646,-78.098 v -0.289 z m 14.805,7.259 c -0.386,1.934 -5.518,15.678 -15.389,41.225 -6.578,16.647 -8.029,30.682 -4.355,42.097 5.807,-9.481 11.324,-21.871 16.551,-37.159 5.422,-17.033 9.674,-29.809 12.777,-38.326 l -9.584,-7.837 z m -37.742,106.257 c -6.775,3.872 -10.938,6.391 -12.486,7.547 -4.645,3.294 -8.222,6.68 -10.74,10.161 -11.228,14.323 -27.483,36.682 -48.776,67.069 -19.546,25.931 -38.706,45.578 -57.479,58.932 -19.354,13.354 -30.774,21.486 -34.262,24.389 -12.191,10.45 -20.123,21.679 -23.805,33.678 -1.74,5.228 -0.775,10.063 2.903,14.516 3.097,3.68 7.452,6.775 13.065,9.293 7.162,-2.902 14.516,-8.227 22.063,-15.967 8.326,-9.294 14.613,-16.065 18.873,-20.323 45.872,-44.712 88.452,-101.132 127.741,-169.261 3.481,-4.452 4.452,-11.131 2.903,-20.034 z m -19.744,-33.388 c -8.512,-4.45 -16.547,-7.065 -24.094,-7.836 -4.258,0.193 -13.064,1.453 -26.419,3.771 -11.034,1.94 -19.841,2.614 -26.423,2.036 -6.385,-0.192 -16.059,-1.451 -29.033,-3.776 -12.77,-2.319 -22.449,-3.674 -29.031,-4.065 -7.35,0 -15.48,1.844 -24.383,5.517 -3.487,1.549 -11.131,5.422 -22.938,11.614 10.451,4.645 24.003,7.258 40.646,7.842 9.287,0.577 23.226,1.157 41.807,1.74 41.803,3.867 82.254,2.71 121.353,-3.486 -9.873,-6.581 -17.034,-11.031 -21.485,-13.357 z m -45,-119.321 c -1.741,11.805 -2.807,24.965 -3.193,39.482 0,4.065 0,8.324 0,12.774 0,11.614 0.681,29.032 2.035,52.259 l 14.518,-9.288 c -0.391,-9.872 -0.488,-23.714 -0.295,-41.518 0,-5.03 0.096,-9.776 0.295,-14.228 0,-11.999 -0.097,-21.094 -0.295,-27.292 l -13.065,-12.189 z m -25.257,-6.095 -19.448,-4.939 c 0.191,8.902 0.289,25.744 0.289,50.518 0,2.71 0,5.517 0,8.42 0,24.389 0.191,43.934 0.578,58.644 h 18.581 c 0.776,-20.708 1.163,-43.062 1.163,-67.063 -0.192,-14.52 -0.584,-29.709 -1.163,-45.58 z m 42.097,176.223 c -12.967,3.288 -41.126,12.101 -84.482,26.419 l -8.709,-13.354 c 2.903,-4.645 9.77,-8.806 20.611,-12.479 10.064,-3.488 16.064,-8.036 17.997,-13.649 -9.864,0.386 -17.124,1.065 -21.773,2.036 -7.933,1.547 -14.413,4.45 -19.449,8.709 -0.771,16.836 -1.163,37.544 -1.163,62.125 0.199,13.745 0.393,34.355 0.584,61.841 16.643,-11.806 30.678,-23.13 42.098,-33.965 -19.358,0.964 -31.742,1.354 -37.164,1.156 2.711,-13.161 14.517,-22.257 35.416,-27.286 23.228,-5.421 37.358,-12.389 42.393,-20.906 -9.1,1.74 -21.869,5.035 -38.326,9.872 -17.419,5.029 -30.194,8.421 -38.319,10.161 -0.585,-6 -0.676,-10.354 -0.29,-13.064 0.578,-4.837 3.193,-7.836 7.838,-8.998 6.191,-3.682 20.61,-9.197 43.258,-16.553 18.38,-6.001 31.548,-13.355 39.48,-22.065 z m -103.354,234.294 c -3.102,6 -3.102,11.902 0,17.709 8.318,-8.131 18.967,-15.1 31.936,-20.907 8.319,-3.673 20.322,-7.739 36.002,-12.19 5.414,-0.97 10.064,-4.355 13.932,-10.161 4.259,-6.192 3.289,-10.547 -2.902,-13.064 -20.516,6.582 -42.387,15.484 -65.613,26.707 -6.192,2.323 -10.649,6.293 -13.355,11.906 z m 75.485,-1.161 c -12.39,6.191 -20.907,10.739 -25.552,13.643 10.842,1.354 27.195,2.421 49.066,3.192 l 1.74,-31.353 c -5.805,4.067 -14.225,8.904 -25.254,14.518 z m 24.677,-58.354 c -0.386,-7.553 -0.584,-24.581 -0.584,-51.102 -9.288,12.969 -26.9,33.875 -52.836,62.714 5.999,-1.354 14.709,-4.163 26.129,-8.421 10.449,-3.486 19.545,-4.547 27.291,-3.191 z m -112.064,132.675 c 11.422,1.354 26.419,1.934 45,1.74 23.998,-0.192 38.996,-0.192 45.001,0 4.06,-0.192 10.837,-0.386 20.323,-0.578 7.932,-0.969 12.769,-4.74 14.516,-11.323 1.549,-7.74 0,-14.998 -4.65,-21.775 -5.029,-7.161 -11.516,-10.16 -19.449,-8.998 l -47.325,-0.29 c -18.961,0 -34.735,0.387 -47.319,1.156 -10.063,1.163 -15.967,7.163 -17.708,18.004 -1.749,11.029 2.124,18.385 11.611,22.064 z m -25.84,62.419 c -11.811,-16.448 -30.291,-47.518 -55.45,-93.192 -21.876,-40.26 -41.519,-70.551 -58.938,-90.873 -22.456,-25.744 -58.161,-42.098 -107.131,-49.066 -24.968,-2.705 -62.028,-3.771 -111.19,-3.191 -46.066,0.583 -81.2,-0.194 -105.391,-2.32 v 0.289 c 10.842,16.45 23.419,31.255 37.742,44.416 58.837,51.488 120.973,93.488 186.387,126.002 70.453,35.223 141.776,57.871 213.971,67.935 z m 2.031,157.648 c -0.193,-10.841 0.096,-20.226 0.871,-28.163 2.514,-3.868 6.482,-7.354 11.904,-10.451 6.383,-3.096 11.033,-5.421 13.937,-6.97 0.579,19.744 0.579,39.482 0,59.227 l -25.841,14.518 c -0.582,-12.583 -0.871,-21.969 -0.871,-28.161 z m 65.611,-19.744 c 0.193,-20.129 0.193,-35.224 0,-45.289 -15.479,0.579 -27.093,0.965 -34.838,1.162 -13.74,0.387 -25.354,0 -34.84,-1.162 6.969,-10.064 10.842,-15.485 11.613,-16.256 5.034,-6.005 10.263,-9.97 15.678,-11.908 16.258,-0.965 27.779,-1.548 34.551,-1.741 12.967,-0.192 24.484,0.487 34.549,2.035 0,3.868 0.867,20.517 2.614,49.934 0.964,20.13 0.964,36.677 0,49.646 -6,5.419 -14.901,11.611 -26.714,18.582 -1.739,-12.194 -2.613,-27.198 -2.613,-45.003 z m 81.875,-74.612 c 9.481,-5.034 18.775,-5.227 27.87,-0.583 2.127,14.13 5.324,41.229 9.583,81.291 1.935,11.228 -1.259,22.063 -9.583,32.52 -18.775,7.548 -37.356,8.806 -55.74,3.771 l 8.126,-23.226 29.033,-7.26 -2.614,-56.612 -23.805,-6.97 c 1.933,-10.257 7.643,-17.899 17.13,-22.931 z m 59.227,4.934 c 1.355,-5.029 3,-9.287 4.934,-12.775 4.645,-2.318 10.645,-4.354 17.998,-6.095 4.064,-1.163 10.257,-2.711 18.582,-4.644 15.293,36.001 28.646,73.063 40.066,111.19 l -13.354,11.323 c -6.391,-5.613 -13.16,-14.028 -20.323,-25.256 -9.101,22.063 -21.292,33.772 -36.585,35.129 -7.355,1.162 -12.48,-2.127 -15.385,-9.873 -2.902,-7.547 -2.131,-13.933 2.32,-19.16 4.843,-1.549 12.486,-3.777 22.937,-6.68 8.709,-3.289 14.517,-8.415 17.419,-15.385 -0.771,-6.39 -2.416,-14.033 -4.933,-22.936 -3.289,-10.064 -5.614,-17.611 -6.97,-22.647 -13.354,0.776 -23.418,1.258 -30.194,1.451 1.356,-5.998 2.519,-10.544 3.488,-13.642 z m 92.318,34.84 c 1.163,-3.681 3.682,-7.644 7.549,-11.902 4.649,-4.258 7.938,-7.644 9.873,-10.162 6.582,13.74 13.063,30.484 19.455,50.224 l -19.744,22.358 c -8.517,-18.968 -14.228,-35.809 -17.133,-50.518 z m 8.711,-37.164 c -11.42,3.68 -20.998,6.487 -28.744,8.42 1.163,-9.871 2.904,-17.707 5.229,-23.515 3.483,-8.517 8.807,-14.13 15.968,-16.841 11.807,-5.223 31.159,-11.709 58.064,-19.45 11.229,33.484 23.228,65.034 36.003,94.645 l -21.485,26.419 c -4.259,-7.933 -10.258,-21.19 -17.998,-39.771 -7.162,-17.421 -13.359,-30.581 -18.581,-39.483 -12.778,4.256 -22.262,7.45 -28.456,9.576 z m -520.257,-27.285 -14.806,-16.842 c 16.45,-9.288 32.321,-11.517 47.608,-6.68 -2.902,17.617 -6.192,30.098 -9.866,37.453 -6.582,13.354 -16.745,19.455 -30.483,18.292 1.543,-10.45 4.06,-21.195 7.547,-32.223 z m -157.649,-39.778 c 7.355,-17.999 7.548,-33.195 0.584,-45.579 l 19.739,-17.71 c 7.354,5.808 14.517,12.771 21.485,20.901 -11.807,37.164 -18.775,60.095 -20.901,68.805 7.933,-1.354 14.028,-2.999 18.287,-4.933 6.391,-2.903 10.837,-7.066 13.354,-12.485 3.289,-4.452 4.354,-11.319 3.197,-20.612 -1.36,-9.873 -0.971,-16.836 1.156,-20.902 9.295,-7.746 21.685,-3.096 37.164,13.933 -7.161,18.004 -14.227,31.646 -21.196,40.94 -10.251,13.739 -22.642,22.352 -37.157,25.834 9.289,5.036 23.418,12.391 42.386,22.069 9.288,-16.064 14.517,-25.358 15.679,-27.876 5.029,-11.028 7.451,-21.286 7.258,-30.772 -0.776,-5.613 0.578,-10.644 4.066,-15.095 3.288,-4.451 7.74,-7.162 13.353,-8.131 8.903,0.385 17.613,5.806 26.13,16.258 -4.258,8.129 -10.161,20.418 -17.707,36.873 -7.555,16.449 -13.452,28.646 -17.716,36.579 -4.446,10.836 -14.998,17.998 -31.642,21.485 -7.938,-0.969 -17.129,-4.065 -27.58,-9.294 -11.42,-6.385 -20.033,-10.933 -25.84,-13.644 -10.451,-5.227 -18.095,-9.384 -22.937,-12.485 -8.517,-5.415 -14.323,-11.71 -17.42,-18.871 0.387,-5.029 5.808,-20.124 16.258,-45.288 z m -71.129,-88.55 c 2.518,-3.289 9.385,-11.998 20.612,-26.129 20.321,12.39 38.809,25.551 55.456,39.483 -3.289,9.1 -8.71,19.262 -16.262,30.483 -4.254,6.391 -10.933,15.872 -20.027,28.454 -2.134,2.903 -5.326,7.45 -9.584,13.643 -4.065,5.421 -8.029,9.391 -11.902,11.908 -8.131,0.578 -19.545,-1.843 -34.261,-7.259 5.807,-11.034 13.456,-22.744 22.937,-35.133 4.843,-6.192 13.745,-16.933 26.707,-32.226 l -33.676,-23.224 z"
   clip-rule="evenodd"
   inkscape:connector-curvature="0"
   style="fill:#b79300;fill-rule:evenodd" />

</g>
    </g>
  </g>
</svg>
