<?xml version="1.0" encoding="utf-8"?>
<!-- Generator: Adobe Illustrator 19.0.1, SVG Export Plug-In . SVG Version: 6.00 Build 0)  -->
<svg version="1.1" id="Layer_1" xmlns="http://www.w3.org/2000/svg" xmlns:xlink="http://www.w3.org/1999/xlink" x="0px" y="0px"
	 viewBox="-218 277 352 471" style="enable-background:new -218 277 352 471;" xml:space="preserve">
<style type="text/css">
	.st0{opacity:0.3;}
	
		.st1{clip-path:url(#SVGID_2_);fill:none;stroke:#000000;stroke-width:2.005;stroke-linecap:round;stroke-linejoin:round;stroke-miterlimit:10;}
	.st2{clip-path:url(#SVGID_4_);}
	.st3{clip-path:url(#SVGID_6_);}
	.st4{clip-path:url(#SVGID_8_);}
	.st5{clip-path:url(#SVGID_10_);}
	.st6{clip-path:url(#SVGID_12_);}
	.st7{clip-path:url(#SVGID_14_);}
	.st8{clip-path:url(#SVGID_16_);}
	.st9{clip-path:url(#SVGID_18_);}
	.st10{clip-path:url(#SVGID_20_);}
	.st11{clip-path:url(#SVGID_22_);}
	.st12{clip-path:url(#SVGID_24_);}
	.st13{clip-path:url(#SVGID_26_);}
	.st14{clip-path:url(#SVGID_28_);}
	.st15{clip-path:url(#SVGID_30_);}
	.st16{clip-path:url(#SVGID_32_);}
	.st17{clip-path:url(#SVGID_34_);}
	.st18{clip-path:url(#SVGID_36_);}
	.st19{clip-path:url(#SVGID_38_);}
	.st20{clip-path:url(#SVGID_40_);}
	.st21{clip-path:url(#SVGID_42_);}
	
		.st22{clip-path:url(#SVGID_44_);fill:none;stroke:#000000;stroke-width:2.005;stroke-linecap:round;stroke-linejoin:round;stroke-miterlimit:10;}
	.st23{clip-path:url(#SVGID_48_);fill:none;}
	
		.st24{clip-path:url(#SVGID_50_);fill:none;stroke:#000000;stroke-width:2.005;stroke-linecap:round;stroke-linejoin:round;stroke-miterlimit:10;}
	.st25{clip-path:url(#SVGID_52_);}
	.st26{clip-path:url(#SVGID_54_);}
	.st27{clip-path:url(#SVGID_56_);}
	.st28{clip-path:url(#SVGID_58_);}
	.st29{clip-path:url(#SVGID_60_);}
	.st30{clip-path:url(#SVGID_62_);}
	.st31{clip-path:url(#SVGID_64_);}
	.st32{clip-path:url(#SVGID_66_);}
	.st33{clip-path:url(#SVGID_68_);}
	.st34{clip-path:url(#SVGID_70_);}
	.st35{clip-path:url(#SVGID_72_);}
	.st36{clip-path:url(#SVGID_74_);}
	.st37{clip-path:url(#SVGID_76_);}
	.st38{clip-path:url(#SVGID_78_);}
	.st39{clip-path:url(#SVGID_80_);}
	.st40{clip-path:url(#SVGID_82_);}
	.st41{clip-path:url(#SVGID_84_);}
	.st42{clip-path:url(#SVGID_86_);}
	.st43{clip-path:url(#SVGID_88_);}
	.st44{clip-path:url(#SVGID_90_);}
	.st45{clip-path:url(#SVGID_92_);}
	.st46{clip-path:url(#SVGID_94_);}
	.st47{clip-path:url(#SVGID_96_);}
	.st48{clip-path:url(#SVGID_98_);}
	.st49{clip-path:url(#SVGID_100_);}
	.st50{clip-path:url(#SVGID_102_);}
	.st51{clip-path:url(#SVGID_104_);}
	.st52{clip-path:url(#SVGID_106_);}
	.st53{clip-path:url(#SVGID_108_);}
	.st54{clip-path:url(#SVGID_110_);}
	.st55{clip-path:url(#SVGID_112_);}
	.st56{clip-path:url(#SVGID_114_);}
	.st57{clip-path:url(#SVGID_116_);}
	.st58{clip-path:url(#SVGID_118_);}
	.st59{clip-path:url(#SVGID_120_);}
	.st60{clip-path:url(#SVGID_122_);}
	.st61{clip-path:url(#SVGID_124_);}
	.st62{clip-path:url(#SVGID_126_);}
	.st63{clip-path:url(#SVGID_128_);}
	.st64{clip-path:url(#SVGID_130_);}
	.st65{clip-path:url(#SVGID_132_);}
	.st66{clip-path:url(#SVGID_134_);}
	.st67{clip-path:url(#SVGID_136_);}
	.st68{clip-path:url(#SVGID_138_);}
	.st69{clip-path:url(#SVGID_140_);}
	.st70{clip-path:url(#SVGID_142_);}
	.st71{clip-path:url(#SVGID_144_);}
	.st72{clip-path:url(#SVGID_146_);}
	.st73{clip-path:url(#SVGID_148_);}
	.st74{clip-path:url(#SVGID_150_);}
	.st75{clip-path:url(#SVGID_152_);}
	.st76{clip-path:url(#SVGID_154_);}
	.st77{clip-path:url(#SVGID_156_);}
	.st78{clip-path:url(#SVGID_158_);}
	.st79{clip-path:url(#SVGID_160_);}
	.st80{clip-path:url(#SVGID_162_);}
	.st81{clip-path:url(#SVGID_164_);}
	.st82{clip-path:url(#SVGID_166_);}
	.st83{clip-path:url(#SVGID_168_);}
	.st84{clip-path:url(#SVGID_170_);}
	.st85{clip-path:url(#SVGID_172_);}
	.st86{clip-path:url(#SVGID_174_);}
	.st87{clip-path:url(#SVGID_176_);}
	.st88{clip-path:url(#SVGID_178_);}
	.st89{clip-path:url(#SVGID_180_);}
	.st90{clip-path:url(#SVGID_182_);}
	.st91{clip-path:url(#SVGID_184_);}
	.st92{clip-path:url(#SVGID_186_);}
	.st93{clip-path:url(#SVGID_188_);}
	.st94{clip-path:url(#SVGID_190_);}
	.st95{clip-path:url(#SVGID_192_);}
	.st96{clip-path:url(#SVGID_194_);}
	.st97{clip-path:url(#SVGID_196_);}
	.st98{clip-path:url(#SVGID_198_);}
	.st99{clip-path:url(#SVGID_200_);}
	.st100{clip-path:url(#SVGID_202_);}
	.st101{clip-path:url(#SVGID_204_);}
	.st102{clip-path:url(#SVGID_206_);}
	.st103{clip-path:url(#SVGID_208_);}
	.st104{clip-path:url(#SVGID_210_);}
	.st105{clip-path:url(#SVGID_212_);}
	.st106{clip-path:url(#SVGID_214_);}
	.st107{clip-path:url(#SVGID_216_);}
	.st108{clip-path:url(#SVGID_218_);}
	.st109{clip-path:url(#SVGID_220_);}
	.st110{clip-path:url(#SVGID_222_);}
	.st111{clip-path:url(#SVGID_224_);}
	.st112{clip-path:url(#SVGID_226_);}
	.st113{clip-path:url(#SVGID_228_);}
	.st114{clip-path:url(#SVGID_230_);}
</style>
<g class="st0">
	<g>
		<defs>
			<rect id="SVGID_1_" x="-302.3" y="63.5" width="515.9" height="725.7"/>
		</defs>
		<clipPath id="SVGID_2_">
			<use xlink:href="#SVGID_1_"  style="overflow:visible;"/>
		</clipPath>
		<path class="st1" d="M-75.4,369.3c-11.4,1.3-18,5.8-25.3,12.7c-3.5,3.3-8.3,9-10.2,13.4c-1.6,3.6-2.2,7.6-2.5,11.5
			c-0.8,12.1,1.7,24.1,7.8,34.5c2,3.4,4.3,6.7,7,9.5c5.6,5.8,13.1,9.7,21,11.8c7.8,2.1,16,2.6,24.2,2.4c4.6-0.1,9.2-0.4,13.6-1.9
			c7.8-2.7,14-9,18-16.3c4-7.2,6.1-15.4,7.8-23.5c1.7-8,3-16.2,1-24.1c-2.7-10.9-11.2-19.3-19.4-27c-2.4-2.2-4.8-4.5-7.8-5.8
			c-10.4-4.7-25.5-6.7-42.4-3.4c-3.8,0.8-7.3,2.6-10.7,4.6c-10.4,6.1-19.5,15.1-23.6,26.5c-3.7,10.3-3,21.5-2.3,32.4
			c0.2,3.4,5.7,20.3,20.9,31.8c4,3,8.3,5.6,13,7.5c12.9,5.6,27.2,9.2,41,6.4c3.7-0.7,16.9-6.2,23.7-16.4c3.5-5.3,6.6-10.8,9-16.7
			c2-4.8,3.7-9.8,4.4-15c0.4-3.1,0.4-6.1,0.4-9.2c0-4.2-0.1-8.5-0.2-12.7c-0.1-6.1-0.5-12.6-4.2-17.5c-6.8-9.2-13.7-17.4-23.3-23.5
			c-3.3-2.1-6.5-3-10.1-4.4c-3.4-1.3-7.1-2-10.8-2.4c-11.2-1.3-22.7-2-33.3,1.7s-20.3,10.1-26.7,19.3c-2.6,3.7-4.6,7.7-6.2,11.8
			c-2,5-3.4,10.2-4.3,15.5c-0.7,4.5-1,9.1-0.8,13.7c0.8,19.8,11.4,38.9,27.7,50.1c5.4,3.7,11.3,6.5,17.3,9.1
			c6.5,2.8,14.5,3.3,21.6,4.3c18.4,2.6,41-13.1,50.8-28.8c7.3-11.7,8.7-25.6,8.9-39.4c0.1-7.1-0.2-14.3-2-21.1
			c-4.2-15.4-13.6-30.3-32.4-39.9 M-134.4,392.6c-5.4,21.1-0.5,41.7,9.8,58c0.7,1.1,1.4,2.1,2.1,3.2c12.6,17.9,21.2,27.7,50,31.1
			c5.7,0.7,16.5,1.2,22.2,0.3c21.9-3.3,39.3-19,50.2-38.3c2.3-4.1,4.5-8.4,5.8-12.9c1.6-5.3,2.1-10.8,2.1-16.4
			c0-21.1-6-45-20.3-60.6c-14.3-15.6-36.8-22.6-58-22c-19.5,0.6-32.7,5.9-47.7,18.5c-7.2,6.1-16.9,16.4-20.5,25.2
			c-2.7,6.4-6.1,13.7-6.8,20.7c-1.5,15.2,1,36,8.6,50.4 M-36.8,491c11.5-3.9,21.1-13.8,29.3-23.2c8.9-10.1,17.3-21.3,20.3-34.4
			c1.5-6.5,1.5-13.2,1.6-19.8c0.1-7.2,0.1-14.5-1.4-21.6c-1.7-8.1-5.4-15.6-9.1-23c-3.4-6.9-7-14-12.5-19.4
			c-3.9-3.8-8.7-6.6-13.6-9.2c-7-3.7-14.3-7.2-22.1-8.8c-53.9-11.2-78.6,14.7-92,31.2c-4.2,5.2-11.4,18.5-13.9,24.6
			c-3.1,7.5-2.7,16.1-2.8,24.2c-0.1,10.2,0.8,20.5,3.9,30.2c5.8,17.6,18.1,32.7,32.6,44.3c37.1,29.7,95.2,16.8,115.7-11.6
			c18-25,26.6-55.6,20.3-85.7c-6.3-30.1-32.2-54.5-61.8-62.6c-19.4-5.3-38.7-5.6-57.7,0.9c-11.5,3.9-21.8,10.8-31.1,18.6
			c-4.3,3.6-8.5,7.5-12.2,11.8c-14.1,16.8-19.4,39.9-17.5,61.8c2.4,27.8,16,54.4,37.1,72.7c4.3,3.8,9,7.2,13.7,10.4
			c8.8,5.9,30.4,7,41,7.1c24.8,0.3,50.5-6.5,67.3-24.7c3.6-3.9,6.8-8.2,9.9-12.6c3.3-4.6,6.5-9.4,9.2-14.3
			c16.2-29.2,16-66.9-0.6-95.9c-13-22.7-37.7-37.7-63.2-43.8c-25.5-6-53.4-1.9-75.7,11.8c-22.3,13.8-38.6,37.1-43.1,62.9
			c-3.5,20-0.2,40.7,6.8,59.7c6.5,17.6,16.4,34.3,30.8,46.2c11.1,9.2,37,17.3,51.3,19.2c14.3,1.9,42.3-5.1,47.8-7.2
			c8-3,16.6-6.9,23.5-12c7.3-5.5,14.4-11.6,20.1-18.7c3.7-4.6,6.6-10.2,9.6-15.3 M34.9,385.8c-5.4-18.8-16.4-38-31.4-50.7
			c-30-25.4-83-32.3-122-12.7c-7.4,3.7-16,9.9-22,15.6c-2.8,2.6-27.2,26.2-31.3,61c-0.5,4.1-1.7,8.2-2.1,12.3
			c-1.3,15.9,4.5,31.5,10.3,46.4c2.5,6.4,12.1,25.5,16.4,30.8 M-92.4,522.4c11,1.5,28.2,2.7,45.4,2.1c14.8-0.5,28.3-8.5,41.4-15.3
			c5.7-2.9,18.2-14.5,23-18.7C26.6,482.4,46,456,47.7,410c0.4-10.3-3.2-20.4-7.1-30c-7.3-18.3-18.4-35.1-32.3-49
			C3.4,326.1-2,321.8-8,318.4c-27.1-15.3-75.4-15-92.2-9.2c-9.1,3.2-20.5,8.1-28.6,13.2c-14.8,9.3-26,20.3-35.5,35
			c-10.5,16.2-15.5,34-16.2,53.2c-0.7,18.4,1.9,37.2,10.4,53.5c2.8,5.4,14.2,22.9,17.9,27.8c9.3,12.1,11.2,14.9,23.5,23.9
			s36.7,16.7,51.9,16.9c19.3,0.2,38.5,1.9,56.2-5.5c9.3-3.9,17.5-9.9,25.6-15.9c9-6.8,18-13.8,24.9-22.7c4.7-6.1,8.2-12.9,11.7-19.7
			c3.4-6.6,6.8-13.2,8.7-20.4c1.8-6.9,2-14.1,2.2-21.2c0.4-13.4,0.8-26.9-2.1-39.9c-1-4.5-1.3-9.1-2.9-13.4c-6-15.5-16-28.9-26.2-42
			c-1.3-1.7-8-7.8-10-9.1c-7.3-4.8-14.6-9.6-22.6-13.1c-16.1-7-34.1-8.3-51.7-9.4"/>
	</g>
	<g>
		<defs>
			<rect id="SVGID_3_" x="-302.3" y="63.5" width="515.9" height="725.7"/>
		</defs>
		<clipPath id="SVGID_4_">
			<use xlink:href="#SVGID_3_"  style="overflow:visible;"/>
		</clipPath>
		<path class="st2" d="M-128.6,383.9c0.3,0.6,0.3,1.2,0.1,1.9c-0.2,0.6-0.6,1-1,1.1c-0.6,0.2-1.2,0.1-1.9-0.2
			c-0.7-0.3-1.3-0.7-1.6-1.3c-0.2-0.4-0.2-0.9,0-1.6c0.2-0.5,0.5-1,1.1-1.2l0.5,0.9c-0.3,0.2-0.5,0.4-0.6,0.7c-0.3,0.7,0.1,1,1,1.4
			s1.4,0.4,1.6-0.2c0.1-0.4,0.1-0.7-0.1-1.1L-128.6,383.9z"/>
	</g>
	<g>
		<defs>
			<rect id="SVGID_5_" x="-302.3" y="63.5" width="515.9" height="725.7"/>
		</defs>
		<clipPath id="SVGID_6_">
			<use xlink:href="#SVGID_5_"  style="overflow:visible;"/>
		</clipPath>
		<path class="st3" d="M-129.8,379.7c-0.2,0-0.3,0.2-0.5,0.5c-0.2,0.3-0.1,0.5-0.1,0.7c0.1,0.3,0.5,0.6,1,0.8
			c0.5,0.3,0.9,0.4,1.2,0.3c0.2,0,0.3-0.2,0.5-0.5s0.1-0.5,0.1-0.7c-0.1-0.3-0.5-0.6-1-0.8C-129,379.7-129.5,379.6-129.8,379.7
			 M-126.6,380.3c0.2,0.5,0.1,1-0.2,1.7c-0.3,0.6-0.7,0.9-1.2,1.1c-0.6,0.2-1.2,0-1.9-0.3c-0.8-0.4-1.3-0.8-1.5-1.4
			c-0.2-0.5-0.1-1,0.2-1.7c0.3-0.6,0.7-0.9,1.1-1.1c0.6-0.2,1.2,0,1.9,0.3C-127.3,379.3-126.8,379.7-126.6,380.3"/>
	</g>
	<g>
		<defs>
			<rect id="SVGID_7_" x="-302.3" y="63.5" width="515.9" height="725.7"/>
		</defs>
		<clipPath id="SVGID_8_">
			<use xlink:href="#SVGID_7_"  style="overflow:visible;"/>
		</clipPath>
		<path class="st4" d="M-128.8,375.8l0.7,0.4c-0.3-0.5-0.4-1.1,0-1.7c0.5-0.8,1.2-0.8,2.1-0.3l2.7,1.7l-0.6,1l-2.5-1.6
			c-0.4-0.3-0.7-0.3-0.9,0c-0.3,0.5-0.1,1.3,1.1,2l1.5,0.9l-0.6,1l-3.9-2.5L-128.8,375.8z"/>
	</g>
	<g>
		<defs>
			<rect id="SVGID_9_" x="-302.3" y="63.5" width="515.9" height="725.7"/>
		</defs>
		<clipPath id="SVGID_10_">
			<use xlink:href="#SVGID_9_"  style="overflow:visible;"/>
		</clipPath>
		<path class="st5" d="M-121,372.6c-0.1,0.3-0.3,0.6-0.5,0.8c-0.7,1-1.4,0.9-2.3,0.2l-1.6-1.2l-0.5,0.6l-0.8-0.6l0.5-0.6l-1.1-0.8
			l0.6-1l1.1,0.8l0.8-1l0.8,0.6l-0.8,1l1.5,1.1c0.5,0.3,0.6,0.4,1,0c0.1-0.2,0.3-0.4,0.3-0.6L-121,372.6z"/>
	</g>
	<g>
		<defs>
			<rect id="SVGID_11_" x="-302.3" y="63.5" width="515.9" height="725.7"/>
		</defs>
		<clipPath id="SVGID_12_">
			<use xlink:href="#SVGID_11_"  style="overflow:visible;"/>
		</clipPath>
		<path class="st6" d="M-120.9,368c-0.5-0.4-0.9-0.6-1.3,0c-0.5,0.5-0.3,1,0.2,1.4L-120.9,368z M-118.5,368.7c0.1,0.7-0.1,1.3-0.7,2
			c-0.5,0.5-0.9,0.7-1.3,0.8c-0.5,0.1-1.1-0.2-1.8-0.7c-0.6-0.5-1-1.1-1.1-1.7c-0.1-0.5,0.1-1,0.6-1.6c0.9-1.1,2-0.9,2.8-0.1
			c0.1,0.1,0.3,0.3,0.4,0.4l-1.9,2.2c0.6,0.5,1,0.7,1.6,0.1c0.3-0.4,0.5-0.8,0.5-1.3L-118.5,368.7z"/>
	</g>
	<g>
		<defs>
			<rect id="SVGID_13_" x="-302.3" y="63.5" width="515.9" height="725.7"/>
		</defs>
		<clipPath id="SVGID_14_">
			<use xlink:href="#SVGID_13_"  style="overflow:visible;"/>
		</clipPath>
		<path class="st7" d="M-119.8,364.3l0.6,0.6c-0.2-0.6-0.1-1.2,0.4-1.7c0.6-0.6,1.4-0.5,2.1,0.2l2.2,2.3l-0.8,0.8l-2.1-2.1
			c-0.4-0.4-0.6-0.5-0.9-0.2c-0.4,0.4-0.4,1.2,0.6,2.2l1.2,1.2l-0.8,0.8l-3.3-3.3L-119.8,364.3z"/>
	</g>
	<g>
		<defs>
			<rect id="SVGID_15_" x="-302.3" y="63.5" width="515.9" height="725.7"/>
		</defs>
		<clipPath id="SVGID_16_">
			<use xlink:href="#SVGID_15_"  style="overflow:visible;"/>
		</clipPath>
		<path class="st8" d="M-111.5,363c-0.2,0.2-0.4,0.5-0.6,0.7c-0.9,0.8-1.5,0.6-2.3-0.3l-1.3-1.5l-0.6,0.5l-0.7-0.8l0.6-0.5l-0.9-1
			l0.8-0.8l0.9,1.1l1-0.8l0.7,0.8l-1,0.8l1.2,1.4c0.4,0.4,0.5,0.6,1,0.2c0.2-0.1,0.3-0.3,0.5-0.5L-111.5,363z"/>
	</g>
	<g>
		<defs>
			<rect id="SVGID_17_" x="-302.3" y="63.5" width="515.9" height="725.7"/>
		</defs>
		<clipPath id="SVGID_18_">
			<use xlink:href="#SVGID_17_"  style="overflow:visible;"/>
		</clipPath>
		<path class="st9" d="M-111.1,356.8l0.5,0.7c-0.1-0.6,0.1-1.2,0.6-1.6s1.1-0.4,1.6,0.1c-0.1-0.6,0.1-1.2,0.6-1.6
			c0.7-0.5,1.4-0.3,2,0.6l1.8,2.6l-0.9,0.6l-1.7-2.4c-0.3-0.4-0.5-0.6-0.8-0.4c-0.4,0.3-0.5,1.1,0.2,2.2l1,1.5l-0.9,0.6l-1.7-2.4
			c-0.3-0.4-0.5-0.6-0.8-0.4c-0.4,0.3-0.5,1.1,0.2,2.2l1,1.5l-0.9,0.7l-2.6-3.8L-111.1,356.8z"/>
	</g>
	<g>
		<defs>
			<rect id="SVGID_19_" x="-302.3" y="63.5" width="515.9" height="725.7"/>
		</defs>
		<clipPath id="SVGID_20_">
			<use xlink:href="#SVGID_19_"  style="overflow:visible;"/>
		</clipPath>
		<path class="st10" d="M-102.5,352.6c-0.2-0.1-0.4,0-0.7,0.1c-0.3,0.2-0.4,0.4-0.5,0.5c-0.1,0.3,0.1,0.8,0.4,1.2
			c0.3,0.5,0.6,0.8,0.9,0.9c0.2,0.1,0.4,0,0.7-0.1c0.3-0.2,0.4-0.4,0.4-0.6c0.1-0.3-0.1-0.8-0.4-1.2
			C-101.9,353-102.2,352.6-102.5,352.6 M-100.2,354.8c-0.1,0.5-0.4,0.9-1.1,1.3c-0.6,0.3-1.1,0.4-1.6,0.3c-0.6-0.2-1-0.6-1.4-1.3
			c-0.4-0.8-0.6-1.4-0.5-2c0.1-0.5,0.5-0.9,1.1-1.3c0.6-0.3,1.1-0.4,1.6-0.3c0.6,0.2,1,0.6,1.4,1.3
			C-100.2,353.6-100,354.2-100.2,354.8"/>
	</g>
	<g>
		<defs>
			<rect id="SVGID_21_" x="-302.3" y="63.5" width="515.9" height="725.7"/>
		</defs>
		<clipPath id="SVGID_22_">
			<use xlink:href="#SVGID_21_"  style="overflow:visible;"/>
		</clipPath>
		<path class="st11" d="M-97,352.3c0.1-0.4,0.1-0.9-0.2-1.4c-0.2-0.4-0.4-0.6-0.7-0.7c-0.2-0.1-0.5,0-0.7,0.1
			c-0.6,0.3-0.5,0.8-0.1,1.7s0.8,1.2,1.2,1C-97.2,352.8-97,352.6-97,352.3 M-98.1,346.4l3.1,6.3l-1,0.5l-0.3-0.6
			c-0.1,0.6-0.4,1.1-0.9,1.4c-0.4,0.2-0.8,0.2-1.2,0.1c-0.5-0.2-0.9-0.6-1.3-1.5c-0.4-0.8-0.5-1.4-0.4-2c0.1-0.4,0.4-0.8,1-1
			c0.4-0.2,0.8-0.3,1.2-0.1l-1.2-2.5L-98.1,346.4z"/>
	</g>
	<g>
		<defs>
			<rect id="SVGID_23_" x="-302.3" y="63.5" width="515.9" height="725.7"/>
		</defs>
		<clipPath id="SVGID_24_">
			<use xlink:href="#SVGID_23_"  style="overflow:visible;"/>
		</clipPath>
		<path class="st12" d="M-92.5,348.5c-0.2-0.6-0.5-0.9-1.1-0.6c-0.7,0.3-0.7,0.7-0.5,1.3L-92.5,348.5z M-90.6,350.1
			c-0.3,0.7-0.7,1.1-1.5,1.5c-0.6,0.3-1.1,0.3-1.6,0.1c-0.5-0.2-0.9-0.6-1.3-1.4c-0.3-0.7-0.4-1.4-0.2-2c0.2-0.4,0.5-0.9,1.2-1.2
			c1.3-0.6,2.1,0.1,2.6,1.2c0.1,0.2,0.1,0.4,0.2,0.6l-2.6,1.1c0.3,0.7,0.6,1.1,1.4,0.8c0.5-0.2,0.8-0.5,1-1L-90.6,350.1z"/>
	</g>
</g>
<rect x="-93.6" y="346.3" transform="matrix(0.355 0.9349 -0.9349 0.355 266.1738 307.8559)" class="st0" width="7.1" height="1.1"/>
<g class="st0">
	<g>
		<defs>
			<rect id="SVGID_25_" x="-302.3" y="63.5" width="515.9" height="725.7"/>
		</defs>
		<clipPath id="SVGID_26_">
			<use xlink:href="#SVGID_25_"  style="overflow:visible;"/>
		</clipPath>
		<path class="st13" d="M-85.9,345.4c-0.3-0.1-0.7-0.1-1.1,0c-0.4,0.1-0.6,0.3-0.5,0.6c0.2,0.7,2.3-0.4,2.9,1.2c0.4,1-0.4,1.7-1.3,2
			c-0.6,0.2-1.2,0.3-1.7,0l0.3-0.9c0.4,0.2,0.8,0.2,1.2,0c0.4-0.1,0.6-0.3,0.5-0.7c-0.3-0.8-2.3,0.4-2.9-1.2
			c-0.3-0.9,0.3-1.6,1.3-1.9c0.5-0.2,1.1-0.2,1.6,0L-85.9,345.4z"/>
	</g>
	<g>
		<defs>
			<rect id="SVGID_27_" x="-302.3" y="63.5" width="515.9" height="725.7"/>
		</defs>
		<clipPath id="SVGID_28_">
			<use xlink:href="#SVGID_27_"  style="overflow:visible;"/>
		</clipPath>
		<path class="st14" d="M-80.7,344.9c-0.3,0.3-0.5,0.6-0.4,1.1c0.1,0.6,0.5,0.8,1.1,0.7c0.4-0.1,0.7-0.2,0.9-0.6L-80.7,344.9z
			 M-77.5,343.8c0.1,0.7,0,1.4-0.3,2.1l1.5,1.1l-1.3,0.2l-0.6-0.5c-0.4,0.5-0.8,0.8-1.5,0.9c-0.6,0.1-1.2,0-1.6-0.2
			c-0.4-0.2-0.6-0.6-0.7-1.1c-0.1-0.7,0.1-1.4,0.6-1.9c-0.4-0.4-0.7-0.7-0.7-1.3c-0.1-0.5,0-0.9,0.3-1.3c0.3-0.3,0.7-0.6,1.3-0.7
			s1.1,0,1.5,0.3l-0.5,0.8c-0.3-0.2-0.5-0.2-0.9-0.2c-0.5,0.1-0.7,0.3-0.6,0.8c0.1,0.6,0.5,0.9,1.4,1.6l1.1,0.8
			c0.1-0.4,0.2-0.9,0.1-1.3L-77.5,343.8z"/>
	</g>
	<g>
		<defs>
			<rect id="SVGID_29_" x="-302.3" y="63.5" width="515.9" height="725.7"/>
		</defs>
		<clipPath id="SVGID_30_">
			<use xlink:href="#SVGID_29_"  style="overflow:visible;"/>
		</clipPath>
		<path class="st15" d="M-72.8,342.1v0.8c0.2-0.6,0.7-0.9,1.4-0.9c0.6,0,1.1,0.3,1.3,0.9c0.3-0.6,0.8-1,1.4-1c0.8,0,1.3,0.6,1.3,1.6
			v3.2h-1.1v-2.9c0-0.5-0.1-0.8-0.5-0.8c-0.5,0-1,0.6-1,2v1.8h-1.1v-3c0-0.5-0.1-0.8-0.5-0.8c-0.5,0-1,0.6-1,2v1.8h-1.1v-4.7H-72.8z
			"/>
	</g>
	<g>
		<defs>
			<rect id="SVGID_31_" x="-302.3" y="63.5" width="515.9" height="725.7"/>
		</defs>
		<clipPath id="SVGID_32_">
			<use xlink:href="#SVGID_31_"  style="overflow:visible;"/>
		</clipPath>
		<path class="st16" d="M-64.4,344.9c-0.6,0-1,0-1,0.6c0,0.4,0.1,0.6,0.4,0.6c0.5,0,1.2-0.3,1.3-1.2H-64.4z M-66.1,342.7
			c0.5-0.5,1.1-0.6,1.8-0.5c1.2,0.1,1.8,0.6,1.7,1.9l-0.2,3l-1-0.1v-0.7c-0.4,0.5-0.9,0.7-1.5,0.7c-0.5,0-0.8-0.2-1-0.4
			c-0.2-0.3-0.3-0.6-0.3-1.1c0-0.6,0.3-0.9,0.6-1.1c0.4-0.3,1-0.3,1.6-0.3h0.6v-0.2c0-0.6-0.2-0.9-0.8-0.9c-0.5,0-0.8,0.1-1.2,0.4
			L-66.1,342.7z"/>
	</g>
	<g>
		<defs>
			<rect id="SVGID_33_" x="-302.3" y="63.5" width="515.9" height="725.7"/>
		</defs>
		<clipPath id="SVGID_34_">
			<use xlink:href="#SVGID_33_"  style="overflow:visible;"/>
		</clipPath>
		<path class="st17" d="M-59.7,344c-0.3,0.3-0.5,0.8-0.5,1.3c0,0.4,0,0.7,0.1,0.9c0.1,0.2,0.4,0.3,0.7,0.4c0.6,0.1,0.9-0.3,1-1.4
			c0.1-1,0-1.4-0.5-1.5C-59.1,343.6-59.4,343.8-59.7,344 M-59.9,342.7l-0.1,0.7c0.4-0.5,0.9-0.7,1.5-0.6c0.4,0.1,0.8,0.3,1,0.5
			c0.4,0.5,0.4,1.3,0.4,2c-0.1,0.9-0.4,1.6-0.9,2c-0.3,0.2-0.8,0.3-1.3,0.3c-0.4,0-0.8-0.2-1.1-0.6l-0.3,2.5l-1.1-0.1l0.8-6.8
			L-59.9,342.7z"/>
	</g>
	<g>
		<defs>
			<rect id="SVGID_35_" x="-302.3" y="63.5" width="515.9" height="725.7"/>
		</defs>
		<clipPath id="SVGID_36_">
			<use xlink:href="#SVGID_35_"  style="overflow:visible;"/>
		</clipPath>
		<path class="st18" d="M-54.3,344.8c-0.3,0.3-0.5,0.8-0.6,1.2s-0.1,0.7,0.1,0.9c0.1,0.2,0.4,0.4,0.7,0.4c0.6,0.1,0.9-0.3,1.1-1.3
			c0.2-1,0.1-1.4-0.4-1.5C-53.8,344.4-54.1,344.5-54.3,344.8 M-54.5,343.4l-0.1,0.7c0.4-0.5,1-0.7,1.6-0.6c0.4,0.1,0.8,0.3,0.9,0.6
			c0.4,0.5,0.4,1.3,0.3,2c-0.1,0.8-0.4,1.6-1,1.9c-0.3,0.2-0.8,0.3-1.3,0.2c-0.4-0.1-0.8-0.2-1-0.6l-0.4,2.5l-1.1-0.2l1.1-6.7
			L-54.5,343.4z"/>
	</g>
	<g>
		<defs>
			<rect id="SVGID_37_" x="-302.3" y="63.5" width="515.9" height="725.7"/>
		</defs>
		<clipPath id="SVGID_38_">
			<use xlink:href="#SVGID_37_"  style="overflow:visible;"/>
		</clipPath>
		<path class="st19" d="M-49.3,342.1c0.4,0.1,0.6,0.4,0.5,0.8s-0.4,0.6-0.8,0.6c-0.4-0.1-0.6-0.4-0.5-0.8
			C-50,342.2-49.7,342-49.3,342.1 M-49.2,344.4l-0.9,4.6l-1.1-0.2l0.9-4.6L-49.2,344.4z"/>
	</g>
	<g>
		<defs>
			<rect id="SVGID_39_" x="-302.3" y="63.5" width="515.9" height="725.7"/>
		</defs>
		<clipPath id="SVGID_40_">
			<use xlink:href="#SVGID_39_"  style="overflow:visible;"/>
		</clipPath>
		<path class="st20" d="M-46.7,344.9l-0.2,0.8c0.4-0.5,0.9-0.7,1.6-0.6c0.9,0.2,1.2,0.9,1,1.9l-0.7,3.1l-1.1-0.3l0.7-2.9
			c0.1-0.5,0.1-0.8-0.3-0.9c-0.6-0.1-1.2,0.3-1.5,1.7l-0.4,1.7l-1.1-0.3l1.1-4.5L-46.7,344.9z"/>
	</g>
	<g>
		<defs>
			<rect id="SVGID_41_" x="-302.3" y="63.5" width="515.9" height="725.7"/>
		</defs>
		<clipPath id="SVGID_42_">
			<use xlink:href="#SVGID_41_"  style="overflow:visible;"/>
		</clipPath>
		<path class="st21" d="M-41.2,349.9c0.3-0.2,0.6-0.6,0.8-1.1c0.1-0.4,0.1-0.7,0-1c-0.1-0.2-0.3-0.4-0.6-0.4
			c-0.7-0.2-0.9,0.3-1.2,1.2s-0.3,1.4,0.3,1.5C-41.8,350.1-41.5,350-41.2,349.9 M-38.8,347l-1.3,4.5c-0.3,1-1,1.9-2.8,1.4
			c-0.6-0.2-1.2-0.5-1.6-1l0.8-0.6c0.3,0.4,0.7,0.6,1.1,0.7c0.9,0.3,1.2-0.1,1.4-0.8l0.2-0.7c-0.4,0.4-1,0.5-1.6,0.3
			c-0.5-0.1-0.8-0.5-1-0.8c-0.2-0.5-0.1-1.1,0.1-1.9c0.2-0.8,0.5-1.3,1.1-1.7c0.4-0.2,0.8-0.3,1.4-0.2c0.5,0.1,0.9,0.4,1.1,0.9
			l0.2-0.5L-38.8,347z"/>
	</g>
	<g>
		<defs>
			<rect id="SVGID_43_" x="-302.3" y="63.5" width="515.9" height="725.7"/>
		</defs>
		<clipPath id="SVGID_44_">
			<use xlink:href="#SVGID_43_"  style="overflow:visible;"/>
		</clipPath>
		<path class="st22" d="M13.1,733.9c1.5,0.7,3.1-0.1,4.5-0.9c0.5-0.3,1.1-0.6,1.6-0.9c0.5-0.3,1.2-0.8,0.9-1.4 M1.7,732.9
			c5.7-0.2,11.3-2.7,15.3-6.8 M-14.8,729.4c5.3,0,10.7-0.2,15.8-1.7c4.5-1.3,8.6-3.6,12.6-6 M-30.7,725.4c13-0.5,26-4.1,37.4-10.3
			 M-61,717.7c13.7,1,27.5,2,40.9-0.7c8.2-1.6,16.1-4.6,23.7-8.1c11.6-5.2,21.8-11.4,33.1-17.3c23.8-12.4,47.8-24.9,73.6-32.2
			c34.3-9.6,71.3-9.6,105.6,0.2c12.4,3.5,25.5,8.2,37.1,13.6 M-88.8,710.1c18.8,0.4,37.7,0.3,56.5-0.3c8.7-0.3,18.1-0.9,25-6.2
			 M-103.5,701.3c27.6,2,55.4,3.9,82.8-0.1c3-0.4,6-1,8.7-2.3 M-114.2,693.2c22.4,3.1,45.1,4.5,67.8,4.2c8.3-0.1,16.8-0.5,24.8-3
			 M-126.5,684.1c33.3,4.4,67.1,8.7,100.4,4.5 M-142.8,673.1c6.2,2.3,12.8,3.2,19.4,4.1c21.6,2.8,43.3,4.9,65,6.1
			c10.6,0.6,21.5,1.1,31.8-1.6 M-179.6,650.7c8.6,5.3,18.2,8.7,27.9,11.6c40.8,12.1,84,15.8,126.2,10.8 M-183.1,639.6
			c3,2.1,6.3,3.8,9.7,5.4c17.9,8.4,37.2,13.4,56.6,17.6c4.6,1,9.1,1.9,13.8,2.4c4.3,0.4,8.6,0.3,12.8,0.4
			c24.1,0.3,48.5,4.2,72.2-0.4 M-177.8,633c4.1,3.5,9.2,5.6,14.2,7.5c48,18.3,100.8,23.7,151.5,15.3 M-173.2,626.4
			c19.8,9.8,39.8,20.3,61.7,23.4c38.9,5.5,61.2,7.4,103.1-4.3 M-169.8,621.4c17.4,8,35.1,16.2,54,19.3c5.4,0.9,29.5,4.7,34.9,5.1
			c30.6,2.5,43.2,0.5,72.9-7.3 M-167.5,614.6c7.3,5.8,16.7,8.3,25.8,10.6c7.6,1.9,15.1,3.9,22.7,5.8c6,1.5,12.1,3.1,18.2,4.3
			c31.1,6.4,63.8,4.6,94.1-5.2 M36.8,618.5c6.6,1.1,13.3-1.3,18.6-5.3c3.5-2.6,6.5-6,8.8-9.7 M20.4,618.9
			c16.8-2.9,30.8-14.1,43.9-24.9 M-163.3,607.4c29.4,14.8,62.2,22.8,95.2,23.1c7.1,0.1,14.2-0.2,21.3-0.5
			c17.3-0.7,41.7-6.1,57.4-13.4c4.1-1.9,7.3-4.2,11.6-5.6c3.9-1.3,16.8-7.4,19.3-9.2c9.2-6.3,20.5-13.3,26.5-22.6 M-161.2,600.6
			c9.4,7.1,19.6,10,28.3,12.5c33.4,9.6,63.8,13.2,98.4,9.5c7.5-0.8,16.7-2.7,23.8-4.9c8.5-2.6,14.7-5.9,22.5-10
			c13.9-7.3,27.7-15,40.2-24.6c6.9-5.3,13.3-11.2,19.2-17.7c2.4-2.6,4.8-5.6,4.6-9.1 M83.1,538.2c-23.9,38.9-64.9,67-109.8,75.2
			c-37.5,6.9-76.3,0.4-113-10c-7.2-2-14.7-4.4-19.8-9.8 M-159.1,585.8c25.8,13.3,55.3,17.6,84.3,20.1c30,2.6,62.3,2.9,87.8-13.1
			c4.1-2.6,8.4-5.1,12.6-7.8 M75.9,539.6c1.6-1.8,5.7-6.8,7.3-8.8 M100.8,502.4c2-1.7,3.4-4.2,3.8-6.9 M89.7,508.3
			c4.1-6,7.7-12.4,10.8-18.9 M-157.4,575.5c10.2,6.6,21.9,10.4,33.5,13.9c10.4,3.1,20.9,6,31.7,7.6c8.4,1.3,17,1.9,25.5,2.4
			c7.9,0.5,15.9,1,23.8,0.5c11-0.7,21.7-3.5,32.3-6.2c4.8-1.2,9.6-2.5,14.2-4.3c8.5-3.5,15.9-9.1,23.1-14.9
			c19.6-15.9,37.6-33.6,53.9-52.9 M-156.5,567.4c41.7,24.8,93.3,30.7,140.5,19.5c7.4-1.8,14.8-3.9,21.6-7.4
			c5.5-2.8,10.6-6.4,15.5-10.1c27.2-20.1,51.2-38.9,74.3-88.2 M-157.7,558.2c20.7,13.8,45,21.7,69.8,24.4c24.7,2.7,49.9,0.3,74-5.5
			c5.2-1.2,10.4-2.6,15.3-4.7c5.8-2.5,11.2-5.8,16.3-9.4c32.7-22.8,57.4-51.7,73.1-88.3 M-158.4,548.8
			c28.2,19.9,63.6,27.2,98.2,27.5c6.1,0,12.2-0.1,18.2-0.7c29.3-2.8,57.3-15.8,79.4-35.3c22-19.5,38.1-45.4,47.1-73.4 M-160.2,535.6
			c10.6,10.1,30.5,19.7,44.3,23.9c28.4,8.7,51,14.3,80.1,8.5c25.4-5.1,48.4-18.7,68.9-34.5c8.4-6.4,18.3-18.6,24.8-26.9
			c11.7-14.7,16-27.6,21.9-45.4 M74.5,451.9c-2.6,17.9-10.1,35-21.3,49.1c-4.4,5.5-9.3,10.6-14.2,15.7c-4.3,4.4-8.5,8.7-12.8,13.1
			c-6.8,7-37,24.3-46.5,26.6c-23.4,5.6-49.6,5.2-73.4,1.8c-3.3-0.5-6.6-1-9.9-1.8c-5.1-1.3-9.9-3.3-14.7-5.5
			c-17.8-8-35.2-17.6-48.8-31.7c-17.3-18-33.9-38.2-56.6-48.6c-22.6-10.5-47.7-15.2-72.7-15.3c-17.1-0.1-33.8,2.3-46.8,13.6
			 M-188,470.8c18.1,37.8,40.7,58.3,61.8,68.4s44.7,14.3,68.1,14.9c8.7,0.2,17.5,0,25.9-2.2c8-2.1,18.3-4.6,25.6-8.5
			C9,535,21.7,526.8,34.3,514.3c5.3-5.3,11.6-13.4,15.8-19.6c29.4-42.6,30.6-101.8,5.5-147 M-192.8,397.6
			c-5.5,31.8,2.7,65.8,22.2,91.6c6.3,8.4,13.7,16,21.2,23.4c7.8,7.7,15.9,15.5,25.6,20.5c9,4.6,19,6.8,28.9,8.8
			c8.3,1.7,16.6,3.3,25,4.1c35,3.2,71.1-9.3,96.8-33.3s40.8-58.9,41-94S53.7,348.6,29,323.6 M-178.7,373.6
			c-8.1,20.7-11.4,45.4-5.9,66.9c2.9,11.7,7.8,22.8,13.2,33.6c3,5.9,6.1,11.8,10.3,17c2.4,3,5.2,5.7,7.6,8.7
			c5.3,6.4,15.1,14,21.3,19.6c9.6,8.7,32.6,16.9,45.4,19.1c13.7,2.3,26.9,1.5,40.8,1.6c5.5,0,11.4-1.6,17.2-3.3 M29.5,500
			c5.9-7,15.4-14.1,26.4-45.6c4.9-14,5.2-28.3,5.2-43.1c0-10.7-0.2-21.8-4.1-31.8c-3.8-9.6-15.5-36.5-39.3-59.4
			c-2.7-2.6-12.4-9.4-25.5-14.4 M-59.6,415.3c1.2-8.2-7.7-7.3-10.2-5.4c-2.6,2-4.1,6.3-2.5,9.1c1.6,2.8,4.6,4.1,7.8,3.8
			c3.6-0.4,7.5-1.3,9-4.6c1.4-3.3,0.9-9.6-1.8-12c-2-1.8-4.7-2.5-7.4-2.7c-4.4-0.5-9.3,0.3-12.2,3.5c-3.3,3.7-2.6,9.4-1.9,14.4
			c0.6,4.3,7.1,7.9,10.3,8c4.1,0.2,8.3-0.5,11.9-2.4c3.7-1.9,6.7-5,8.2-8.8c1.8-4.7,0.9-10.4-2.3-14.3c-1.2-1.5-2.7-2.7-4.3-3.8
			c-9.4-6.6-27.3-4.7-31,9.8c-1,4-0.8,8.3,0.6,12.1c0.9,2.3,2.3,4.3,3.7,6.3c1.1,1.6,2.3,3.3,4,4.3c9.8,5.5,21.3,4.7,32.4-6.2
			c5.5-5.4,5.7-14.7,2.5-21.7s-9.9-12.1-17.4-13.9c-4-1-8.1-0.9-12.1-0.3c-10,1.4-19.5,13-19.8,15.6c-1.1,7.8-2.1,16.1,1.4,23.2
			c2.4,4.7,6.7,8.4,11.5,10.5c4.8,2.2,10.2,2.9,15.5,3c3,0,6.1-0.2,9-1.2c3.1-1.1,5.8-3,8.4-5c2.1-1.6,4.2-3.3,5.7-5.4
			c1.8-2.5,2.7-5.6,3.6-8.6c1.6-6,2.9-12.4,1.3-18.5c-1.6-6.2-6.2-11.3-11.7-14.6c-5.5-3.2-11.9-4.7-18.3-5.2
			c-2.6-0.2-5.2-0.3-7.8,0.1c-2.3,0.3-4.6,1-6.7,1.8c-8.2,3.1-15.8,9-18.6,17.3c-1.6,4.7-1.6,9.7-1.5,14.7c0,3.3,0.1,6.7,1.1,9.9
			c1.4,4.3,4.5,7.8,7.7,10.9c3.1,3,6.5,5.8,10.4,7.8c9.8,4.9,21.6,3.7,32,0.5c2.3-0.7,4.6-1.5,6.6-2.8c4.9-3,7.8-8.4,10-13.6
			c2.3-5.5,4.2-11.3,4.7-17.2c0.5-5.9-0.5-12.1-3.5-17.3c-1.5-2.5-3.2-5.2-5.3-7.3c-4.7-4.4-9.6-8.9-15.6-11.2
			c-4.8-1.8-10-2.2-15.2-2.1c-4.3,0-8.7,0.3-12.9,1.6c-8.1,2.5-14.8,8.8-18.9,16.2c-4.1,7.5-5.8,16-6.1,24.5c-0.1,2.5-0.1,5,0.4,7.5
			c0.7,4,2.5,7.7,4.3,11.3c2.6,5.3,5.3,10.8,10.1,14.2c3.1,2.2,6.8,3.4,10.6,4.3c8.2,2.1,16.7,3.4,25,2.4c8.4-1,16.7-4.5,22.3-10.7
			c2-2.2,4.4-6.3,6.2-9.7"/>
	</g>
	<g>
		<defs>
			<rect id="SVGID_45_" x="-302.3" y="63.5" width="515.9" height="725.7"/>
		</defs>
		<clipPath id="SVGID_46_">
			<use xlink:href="#SVGID_45_"  style="overflow:visible;"/>
		</clipPath>
	</g>
	<g>
		<defs>
			<rect id="SVGID_47_" x="-302.3" y="63.5" width="515.9" height="725.7"/>
		</defs>
		<clipPath id="SVGID_48_">
			<use xlink:href="#SVGID_47_"  style="overflow:visible;"/>
		</clipPath>
		<path class="st23" d="M-72.3,419.1c1.6,2.8,4.6,4.1,7.8,3.8c3.6-0.4,7.5-1.3,9-4.6"/>
	</g>
	<g>
		<defs>
			<rect id="SVGID_49_" x="-302.3" y="63.5" width="515.9" height="725.7"/>
		</defs>
		<clipPath id="SVGID_50_">
			<use xlink:href="#SVGID_49_"  style="overflow:visible;"/>
		</clipPath>
		<path class="st24" d="M-72.3,419.1c1.6,2.8,4.6,4.1,7.8,3.8c3.6-0.4,7.5-1.3,9-4.6"/>
	</g>
	<g>
		<defs>
			<rect id="SVGID_51_" x="-302.3" y="63.5" width="515.9" height="725.7"/>
		</defs>
		<clipPath id="SVGID_52_">
			<use xlink:href="#SVGID_51_"  style="overflow:visible;"/>
		</clipPath>
		<path class="st25" d="M-63.8,371.4c-0.4,0.5-1.1,0.7-1.8,0.7s-1.1-0.2-1.4-0.6c-0.4-0.5-0.5-1-0.5-1.8s0.2-1.5,0.6-1.9
			c0.3-0.3,0.8-0.5,1.5-0.5c0.6,0,1.1,0.2,1.5,0.6l-0.7,0.8c-0.3-0.2-0.5-0.3-0.8-0.3c-0.8,0-0.9,0.4-0.9,1.4s0.1,1.5,0.7,1.5
			c0.4,0,0.7-0.2,1-0.5L-63.8,371.4z"/>
	</g>
	<g>
		<defs>
			<rect id="SVGID_53_" x="-302.3" y="63.5" width="515.9" height="725.7"/>
		</defs>
		<clipPath id="SVGID_54_">
			<use xlink:href="#SVGID_53_"  style="overflow:visible;"/>
		</clipPath>
		<path class="st26" d="M-60.3,368.8c-0.1-0.1-0.3-0.3-0.6-0.3c-0.4,0-0.6,0.1-0.7,0.2c-0.2,0.2-0.4,0.7-0.4,1.2
			c-0.1,0.6,0,1,0.2,1.3c0.1,0.1,0.3,0.3,0.6,0.3s0.6-0.1,0.7-0.2c0.2-0.2,0.4-0.7,0.4-1.2C-60.1,369.5-60.1,369-60.3,368.8
			 M-59.7,372c-0.4,0.3-0.9,0.5-1.6,0.4c-0.7-0.1-1.1-0.3-1.4-0.7c-0.4-0.5-0.5-1.1-0.4-1.9c0.1-0.9,0.3-1.5,0.8-1.9
			c0.4-0.3,0.9-0.5,1.6-0.4c0.7,0.1,1.1,0.3,1.4,0.7c0.4,0.5,0.5,1.1,0.4,1.9C-59,371-59.2,371.6-59.7,372"/>
	</g>
	<g>
		<defs>
			<rect id="SVGID_55_" x="-302.3" y="63.5" width="515.9" height="725.7"/>
		</defs>
		<clipPath id="SVGID_56_">
			<use xlink:href="#SVGID_55_"  style="overflow:visible;"/>
		</clipPath>
		<path class="st27" d="M-56.3,368.3l-0.2,0.8c0.4-0.5,0.9-0.8,1.6-0.6c0.9,0.2,1.2,0.9,1,1.8l-0.6,3.1l-1.1-0.2l0.6-2.9
			c0.1-0.5,0-0.8-0.3-0.9c-0.6-0.1-1.2,0.4-1.5,1.7l-0.3,1.7l-1.1-0.2l0.9-4.6L-56.3,368.3z"/>
	</g>
	<g>
		<defs>
			<rect id="SVGID_57_" x="-302.3" y="63.5" width="515.9" height="725.7"/>
		</defs>
		<clipPath id="SVGID_58_">
			<use xlink:href="#SVGID_57_"  style="overflow:visible;"/>
		</clipPath>
		<path class="st28" d="M-50.5,374.4c-0.3,0-0.7-0.1-0.9-0.2c-1.2-0.3-1.3-1-1-2.1l0.5-1.9l-0.7-0.2l0.3-1l0.7,0.2l0.4-1.3l1.1,0.2
			l-0.4,1.4l1.2,0.4l-0.3,1l-1.2-0.4l-0.5,1.8c-0.2,0.5-0.2,0.8,0.4,0.9c0.2,0.1,0.5,0.1,0.7,0.1L-50.5,374.4z"/>
	</g>
	<g>
		<defs>
			<rect id="SVGID_59_" x="-302.3" y="63.5" width="515.9" height="725.7"/>
		</defs>
		<clipPath id="SVGID_60_">
			<use xlink:href="#SVGID_59_"  style="overflow:visible;"/>
		</clipPath>
		<path class="st29" d="M-46.2,373c0.2-0.6,0.2-1-0.4-1.2c-0.7-0.3-1,0.1-1.2,0.6L-46.2,373z M-46,375.4c-0.7,0.3-1.3,0.3-2.1,0
			c-0.6-0.2-1-0.6-1.2-1c-0.2-0.5-0.2-1.1,0.1-1.9c0.3-0.7,0.7-1.3,1.2-1.6c0.4-0.2,1-0.3,1.7,0c1.3,0.5,1.5,1.5,1.1,2.6
			c-0.1,0.2-0.2,0.4-0.3,0.5l-2.7-1c-0.3,0.7-0.3,1.2,0.5,1.5c0.5,0.2,1,0.2,1.4,0L-46,375.4z"/>
	</g>
	<g>
		<defs>
			<rect id="SVGID_61_" x="-302.3" y="63.5" width="515.9" height="725.7"/>
		</defs>
		<clipPath id="SVGID_62_">
			<use xlink:href="#SVGID_61_"  style="overflow:visible;"/>
		</clipPath>
		<path class="st30" d="M-42.1,372.9l-0.4,0.7c0.5-0.4,1.1-0.5,1.7-0.1c0.8,0.4,0.9,1.2,0.4,2.1l-1.6,2.8l-1-0.6l1.4-2.6
			c0.3-0.5,0.3-0.7,0-0.9c-0.5-0.3-1.3,0-1.9,1.2l-0.9,1.5l-1-0.6l2.3-4.1L-42.1,372.9z"/>
	</g>
	<g>
		<defs>
			<rect id="SVGID_63_" x="-302.3" y="63.5" width="515.9" height="725.7"/>
		</defs>
		<clipPath id="SVGID_64_">
			<use xlink:href="#SVGID_63_"  style="overflow:visible;"/>
		</clipPath>
		<path class="st31" d="M-38.9,380.6c-0.3-0.1-0.6-0.3-0.8-0.5c-1-0.7-0.9-1.4-0.2-2.3l1.2-1.5l-0.6-0.5l0.6-0.8l0.6,0.5l0.8-1
			l1,0.6l-0.9,1.1l1,0.8l-0.6,0.8l-1-0.8l-1.1,1.5c-0.3,0.4-0.4,0.6,0,1c0.2,0.1,0.4,0.3,0.6,0.3L-38.9,380.6z"/>
	</g>
</g>
<rect x="-36.7" y="378.4" transform="matrix(0.6616 -0.7499 0.7499 0.6616 -297.0407 101.3971)" class="st0" width="1.1" height="2.7"/>
<g class="st0">
	<g>
		<defs>
			<rect id="SVGID_65_" x="-302.3" y="63.5" width="515.9" height="725.7"/>
		</defs>
		<clipPath id="SVGID_66_">
			<use xlink:href="#SVGID_65_"  style="overflow:visible;"/>
		</clipPath>
		<path class="st32" d="M-33.4,379.5l0.6,0.5l0.2-0.2c0.8-0.8,1.7-1.2,3.1,0.1c0.5,0.5,0.8,0.9,0.9,1.4l-0.9,0.3
			c-0.1-0.4-0.4-0.8-0.7-1.1c-0.7-0.7-1.1-0.5-1.5,0l-0.2,0.2l2.1,2l-3.1,3.3l-0.8-0.8l2.5-2.6l-1.2-1.2l-2.5,2.6l-0.8-0.8l2.5-2.6
			l-0.6-0.5L-33.4,379.5z"/>
	</g>
	<g>
		<defs>
			<rect id="SVGID_67_" x="-302.3" y="63.5" width="515.9" height="725.7"/>
		</defs>
		<clipPath id="SVGID_68_">
			<use xlink:href="#SVGID_67_"  style="overflow:visible;"/>
		</clipPath>
		<path class="st33" d="M-28,384.6l-0.6,0.5c0.7-0.2,1.2-0.1,1.5,0.3c0.1,0.1,0.2,0.3,0.3,0.5l-1,0.6c0-0.1-0.1-0.2-0.2-0.3
			c-0.5-0.6-1.4-0.2-2.2,0.5l-1.2,1.1l-0.8-0.9l3.5-3.1L-28,384.6z"/>
	</g>
	<g>
		<defs>
			<rect id="SVGID_69_" x="-302.3" y="63.5" width="515.9" height="725.7"/>
		</defs>
		<clipPath id="SVGID_70_">
			<use xlink:href="#SVGID_69_"  style="overflow:visible;"/>
		</clipPath>
		<path class="st34" d="M-25.7,389.4c0-0.4-0.1-0.7-0.3-1s-0.5-0.5-0.7-0.3c-0.6,0.4,1,2.1-0.4,3.1c-0.9,0.6-1.7,0.1-2.3-0.7
			c-0.3-0.5-0.6-1.1-0.5-1.7h0.9c-0.1,0.4,0,0.8,0.3,1.2c0.2,0.3,0.5,0.5,0.8,0.3c0.7-0.5-1-2.2,0.4-3.1c0.8-0.5,1.6-0.1,2.2,0.7
			c0.3,0.5,0.5,1,0.4,1.5H-25.7z"/>
	</g>
	<g>
		<defs>
			<rect id="SVGID_71_" x="-302.3" y="63.5" width="515.9" height="725.7"/>
		</defs>
		<clipPath id="SVGID_72_">
			<use xlink:href="#SVGID_71_"  style="overflow:visible;"/>
		</clipPath>
		<path class="st35" d="M-26.6,395.1c-0.2-0.2-0.4-0.5-0.5-0.8c-0.6-1.1-0.2-1.6,0.8-2.1l1.7-0.9l-0.3-0.7l0.9-0.5l0.3,0.7l1.2-0.6
			l0.6,1l-1.3,0.6l0.6,1.1l-0.9,0.5l-0.6-1.1l-1.7,0.8c-0.5,0.3-0.7,0.4-0.4,0.9c0.1,0.2,0.2,0.4,0.4,0.6L-26.6,395.1z"/>
	</g>
	<g>
		<defs>
			<rect id="SVGID_73_" x="-302.3" y="63.5" width="515.9" height="725.7"/>
		</defs>
		<clipPath id="SVGID_74_">
			<use xlink:href="#SVGID_73_"  style="overflow:visible;"/>
		</clipPath>
		<path class="st36" d="M-24.5,400.4c-0.2-0.2-0.3-0.6-0.5-0.8c-0.4-1.1,0-1.6,1-2l1.8-0.7l-0.3-0.7l0.9-0.4l0.3,0.7l1.2-0.5l0.5,1
			l-1.3,0.5l0.5,1.2l-0.9,0.4l-0.5-1.2l-1.7,0.7c-0.5,0.2-0.7,0.3-0.5,0.8c0.1,0.2,0.2,0.4,0.3,0.6L-24.5,400.4z"/>
	</g>
	<g>
		<defs>
			<rect id="SVGID_75_" x="-302.3" y="63.5" width="515.9" height="725.7"/>
		</defs>
		<clipPath id="SVGID_76_">
			<use xlink:href="#SVGID_75_"  style="overflow:visible;"/>
		</clipPath>
		<path class="st37" d="M-17,400.4l-3,0.8c0.5,0.1,1,0.5,1.2,1.1c0.2,0.8-0.2,1.5-1.2,1.7l-3.1,0.8l-0.3-1.1l2.9-0.8
			c0.5-0.1,0.7-0.3,0.6-0.7c-0.1-0.5-0.8-0.9-2.2-0.5l-1.7,0.5l-0.3-1.1l6.8-1.9L-17,400.4z"/>
	</g>
	<g>
		<defs>
			<rect id="SVGID_77_" x="-302.3" y="63.5" width="515.9" height="725.7"/>
		</defs>
		<clipPath id="SVGID_78_">
			<use xlink:href="#SVGID_77_"  style="overflow:visible;"/>
		</clipPath>
		<path class="st38" d="M-16.1,405.5c0.1,0.4-0.2,0.7-0.6,0.8c-0.4,0.1-0.7-0.2-0.8-0.6c-0.1-0.4,0.2-0.7,0.6-0.8
			C-16.5,404.9-16.1,405.1-16.1,405.5 M-18.2,406.5l-4.6,0.7l-0.2-1.1l4.6-0.7L-18.2,406.5z"/>
	</g>
	<g>
		<defs>
			<rect id="SVGID_79_" x="-302.3" y="63.5" width="515.9" height="725.7"/>
		</defs>
		<clipPath id="SVGID_80_">
			<use xlink:href="#SVGID_79_"  style="overflow:visible;"/>
		</clipPath>
		<path class="st39" d="M-17.9,409.3h-0.8c0.6,0.2,1,0.7,1,1.4c0,0.9-0.6,1.4-1.6,1.4l-3.2,0.1v-1.1l2.9-0.1c0.5,0,0.8-0.1,0.8-0.5
			c0-0.6-0.6-1.1-2-1.1h-1.8v-1.1l4.7-0.1L-17.9,409.3z"/>
	</g>
</g>
<polygon class="st0" points="-15.7,415.2 -19.8,414.7 -19.9,415.1 -18.3,416.4 -18.5,417.8 -20.5,415.9 -23.1,417.4 -23,416 
	-21,415 -20.9,414.6 -22.8,414.4 -22.6,413.2 -15.6,414.1 "/>
<g class="st0">
	<g>
		<defs>
			<rect id="SVGID_81_" x="-302.3" y="63.5" width="515.9" height="725.7"/>
		</defs>
		<clipPath id="SVGID_82_">
			<use xlink:href="#SVGID_81_"  style="overflow:visible;"/>
		</clipPath>
		<path class="st40" d="M-16.6,419.8c-0.1,0.4-0.4,0.6-0.8,0.6c-0.4-0.1-0.6-0.4-0.6-0.8c0.1-0.4,0.4-0.6,0.8-0.6
			C-16.7,419.1-16.5,419.4-16.6,419.8 M-18.9,420l-4.6-0.8l0.2-1.1l4.6,0.8L-18.9,420z"/>
	</g>
	<g>
		<defs>
			<rect id="SVGID_83_" x="-302.3" y="63.5" width="515.9" height="725.7"/>
		</defs>
		<clipPath id="SVGID_84_">
			<use xlink:href="#SVGID_83_"  style="overflow:visible;"/>
		</clipPath>
		<path class="st41" d="M-19.4,422.5l-0.8-0.2c0.5,0.4,0.7,0.9,0.6,1.6c-0.2,0.9-0.9,1.2-1.9,1l-3.1-0.7l0.3-1.1l2.9,0.7
			c0.5,0.1,0.8,0.1,0.9-0.3c0.1-0.6-0.3-1.2-1.7-1.5l-1.7-0.4l0.3-1.1l4.5,1.1L-19.4,422.5z"/>
	</g>
	<g>
		<defs>
			<rect id="SVGID_85_" x="-302.3" y="63.5" width="515.9" height="725.7"/>
		</defs>
		<clipPath id="SVGID_86_">
			<use xlink:href="#SVGID_85_"  style="overflow:visible;"/>
		</clipPath>
		<path class="st42" d="M-24.4,428c0.2,0.3,0.5,0.6,1.1,0.8c0.4,0.1,0.7,0.2,1,0c0.2-0.1,0.4-0.3,0.5-0.6c0.2-0.7-0.2-1-1.2-1.3
			c-0.9-0.3-1.4-0.3-1.5,0.2C-24.6,427.5-24.6,427.7-24.4,428 M-21.7,430.5l-4.5-1.5c-1-0.3-1.9-1.1-1.3-2.9
			c0.2-0.6,0.6-1.2,1.1-1.5l0.6,0.8c-0.4,0.3-0.6,0.6-0.8,1.1c-0.3,0.9,0.1,1.2,0.7,1.4l0.7,0.2c-0.4-0.4-0.5-1-0.3-1.6
			c0.2-0.5,0.5-0.8,0.9-0.9c0.5-0.2,1.1-0.1,1.9,0.1c0.8,0.2,1.3,0.6,1.6,1.1c0.2,0.4,0.3,0.8,0.1,1.4c-0.2,0.5-0.5,0.9-1,1l0.5,0.2
			L-21.7,430.5z"/>
	</g>
	<g>
		<defs>
			<rect id="SVGID_87_" x="-302.3" y="63.5" width="515.9" height="725.7"/>
		</defs>
		<clipPath id="SVGID_88_">
			<use xlink:href="#SVGID_87_"  style="overflow:visible;"/>
		</clipPath>
		<path class="st43" d="M-133,460.9c-0.7-0.1-1.2-0.5-1.5-1.1s-0.4-1.1-0.2-1.5c0.2-0.6,0.6-1,1.3-1.3c0.7-0.4,1.3-0.6,2-0.5
			c0.4,0.1,0.9,0.4,1.2,1c0.3,0.5,0.4,1,0.3,1.6l-1-0.2c0.1-0.3,0-0.6-0.2-0.9c-0.4-0.7-0.8-0.6-1.7-0.1c-0.8,0.5-1.2,0.9-0.9,1.4
			c0.2,0.3,0.5,0.5,0.9,0.6L-133,460.9z"/>
	</g>
	<g>
		<defs>
			<rect id="SVGID_89_" x="-302.3" y="63.5" width="515.9" height="725.7"/>
		</defs>
		<clipPath id="SVGID_90_">
			<use xlink:href="#SVGID_89_"  style="overflow:visible;"/>
		</clipPath>
		<path class="st44" d="M-128.6,462.3c0-0.2,0-0.4-0.2-0.7s-0.4-0.4-0.6-0.4c-0.3,0-0.8,0.2-1.2,0.5c-0.5,0.3-0.8,0.7-0.9,0.9
			c0,0.2,0,0.4,0.2,0.7c0.2,0.3,0.4,0.4,0.6,0.4c0.3,0,0.7-0.2,1.2-0.5C-129,462.9-128.7,462.6-128.6,462.3 M-130.7,464.8
			c-0.5-0.1-1-0.4-1.4-0.9c-0.4-0.6-0.5-1.1-0.4-1.5c0.1-0.6,0.5-1,1.2-1.5s1.3-0.7,2-0.6c0.5,0.1,1,0.4,1.4,1
			c0.4,0.6,0.5,1,0.4,1.5c-0.1,0.6-0.5,1-1.2,1.5C-129.5,464.6-130.1,464.9-130.7,464.8"/>
	</g>
	<g>
		<defs>
			<rect id="SVGID_91_" x="-302.3" y="63.5" width="515.9" height="725.7"/>
		</defs>
		<clipPath id="SVGID_92_">
			<use xlink:href="#SVGID_91_"  style="overflow:visible;"/>
		</clipPath>
		<path class="st45" d="M-125.6,464.6l-0.6,0.5c0.6-0.2,1.2,0,1.6,0.5c0.6,0.7,0.4,1.4-0.4,2.1l-2.5,2l-0.7-0.9l2.3-1.9
			c0.4-0.3,0.5-0.6,0.3-0.9c-0.4-0.5-1.2-0.5-2.2,0.4l-1.4,1.1l-0.7-0.9l3.6-3L-125.6,464.6z"/>
	</g>
	<g>
		<defs>
			<rect id="SVGID_93_" x="-302.3" y="63.5" width="515.9" height="725.7"/>
		</defs>
		<clipPath id="SVGID_94_">
			<use xlink:href="#SVGID_93_"  style="overflow:visible;"/>
		</clipPath>
		<path class="st46" d="M-124.4,472.9c-0.2-0.2-0.5-0.4-0.7-0.6c-0.8-0.9-0.6-1.5,0.2-2.3l1.4-1.3l-0.5-0.6l0.7-0.7l0.5,0.6l1-0.9
			l0.9,0.8l-1,1l0.9,0.9l-0.7,0.7l-0.9-0.9l-1.4,1.3c-0.4,0.4-0.5,0.6-0.2,1c0.1,0.1,0.3,0.3,0.5,0.4L-124.4,472.9z"/>
	</g>
	<g>
		<defs>
			<rect id="SVGID_95_" x="-302.3" y="63.5" width="515.9" height="725.7"/>
		</defs>
		<clipPath id="SVGID_96_">
			<use xlink:href="#SVGID_95_"  style="overflow:visible;"/>
		</clipPath>
		<path class="st47" d="M-119.6,473.5c0.4-0.5,0.6-0.8,0.1-1.3s-0.9-0.3-1.4,0.1L-119.6,473.5z M-120.4,475.9
			c-0.7,0-1.3-0.2-1.9-0.8c-0.5-0.5-0.7-0.9-0.7-1.4s0.2-1.1,0.8-1.7c0.5-0.6,1.1-1,1.8-1c0.5,0,1,0.1,1.5,0.6c1,1,0.8,2,0,2.8
			c-0.1,0.1-0.3,0.3-0.4,0.4l-2.1-1.9c-0.5,0.6-0.8,1-0.2,1.6c0.4,0.4,0.8,0.5,1.3,0.5L-120.4,475.9z"/>
	</g>
	<g>
		<defs>
			<rect id="SVGID_97_" x="-302.3" y="63.5" width="515.9" height="725.7"/>
		</defs>
		<clipPath id="SVGID_98_">
			<use xlink:href="#SVGID_97_"  style="overflow:visible;"/>
		</clipPath>
		<path class="st48" d="M-115.9,474.4l-0.5,0.6c0.6-0.3,1.2-0.3,1.7,0.2c0.7,0.6,0.7,1.3,0,2.1l-2,2.5l-0.9-0.7l1.9-2.3
			c0.3-0.4,0.4-0.7,0.1-0.9c-0.5-0.4-1.2-0.2-2.1,0.8l-1.1,1.4l-0.9-0.7l2.9-3.6L-115.9,474.4z"/>
	</g>
	<g>
		<defs>
			<rect id="SVGID_99_" x="-302.3" y="63.5" width="515.9" height="725.7"/>
		</defs>
		<clipPath id="SVGID_100_">
			<use xlink:href="#SVGID_99_"  style="overflow:visible;"/>
		</clipPath>
		<path class="st49" d="M-113.1,482.3c-0.3-0.1-0.6-0.3-0.8-0.5c-1-0.7-0.9-1.4-0.3-2.3l1.1-1.6l-0.6-0.4l0.6-0.8l0.6,0.4l0.8-1.1
			l1,0.6l-0.8,1.2l1,0.7l-0.6,0.8l-1-0.7l-1.1,1.5c-0.3,0.5-0.4,0.7,0,1c0.2,0.1,0.4,0.2,0.6,0.3L-113.1,482.3z"/>
	</g>
	<g>
		<defs>
			<rect id="SVGID_101_" x="-302.3" y="63.5" width="515.9" height="725.7"/>
		</defs>
		<clipPath id="SVGID_102_">
			<use xlink:href="#SVGID_101_"  style="overflow:visible;"/>
		</clipPath>
		<path class="st50" d="M-108.4,480.1l0.6,0.4l0.2-0.3c0.6-0.9,1.5-1.5,2.6-0.7c0.4,0.2,0.7,0.5,0.8,0.8l-0.8,0.5
			c-0.1-0.2-0.3-0.3-0.5-0.5c-0.5-0.3-0.8-0.1-1.2,0.5l-0.1,0.2l1,0.6l-0.5,0.9l-1-0.6l-1.8,3l-1-0.6l1.8-3l-0.6-0.4L-108.4,480.1z"
			/>
	</g>
	<g>
		<defs>
			<rect id="SVGID_103_" x="-302.3" y="63.5" width="515.9" height="725.7"/>
		</defs>
		<clipPath id="SVGID_104_">
			<use xlink:href="#SVGID_103_"  style="overflow:visible;"/>
		</clipPath>
		<path class="st51" d="M-103.4,484.1c0-0.2-0.2-0.4-0.5-0.5c-0.3-0.2-0.5-0.2-0.7-0.1c-0.3,0.1-0.6,0.5-0.9,1
			c-0.3,0.5-0.4,0.9-0.3,1.2c0,0.2,0.2,0.4,0.5,0.5c0.3,0.2,0.5,0.2,0.7,0.1c0.3-0.1,0.6-0.5,0.8-1
			C-103.4,484.8-103.3,484.4-103.4,484.1 M-104.1,487.2c-0.5,0.2-1,0.1-1.7-0.2c-0.6-0.3-0.9-0.7-1.1-1.2c-0.2-0.6,0-1.2,0.4-1.9
			c0.4-0.8,0.8-1.3,1.4-1.5c0.5-0.2,1-0.1,1.7,0.2c0.6,0.3,0.9,0.7,1.1,1.2c0.2,0.6,0,1.2-0.4,1.9
			C-103.1,486.6-103.5,487.1-104.1,487.2"/>
	</g>
	<g>
		<defs>
			<rect id="SVGID_105_" x="-302.3" y="63.5" width="515.9" height="725.7"/>
		</defs>
		<clipPath id="SVGID_106_">
			<use xlink:href="#SVGID_105_"  style="overflow:visible;"/>
		</clipPath>
		<path class="st52" d="M-99.1,489.4c-0.6,0.3-1.3,0.3-1.9,0c-0.6-0.3-0.9-0.7-1-1.1c-0.2-0.6,0-1.2,0.3-1.9
			c0.3-0.7,0.7-1.3,1.4-1.5c0.4-0.2,0.9-0.2,1.6,0.1c0.5,0.2,1,0.6,1.2,1.1l-0.9,0.4c-0.1-0.3-0.4-0.5-0.6-0.6c-0.7-0.3-1,0-1.4,0.9
			s-0.5,1.4,0.1,1.6c0.3,0.2,0.7,0.1,1.1,0L-99.1,489.4z"/>
	</g>
	<g>
		<defs>
			<rect id="SVGID_107_" x="-302.3" y="63.5" width="515.9" height="725.7"/>
		</defs>
		<clipPath id="SVGID_108_">
			<use xlink:href="#SVGID_107_"  style="overflow:visible;"/>
		</clipPath>
		<path class="st53" d="M-95.6,491.5l0.3-0.8c-0.5,0.4-1,0.6-1.7,0.3c-0.8-0.3-1.1-1-0.7-2l1.1-3l1.1,0.4l-1.1,2.8
			c-0.2,0.4-0.2,0.8,0.2,0.9c0.5,0.2,1.2-0.2,1.7-1.4l0.7-1.7l1.1,0.4l-1.7,4.3L-95.6,491.5z"/>
	</g>
	<g>
		<defs>
			<rect id="SVGID_109_" x="-302.3" y="63.5" width="515.9" height="725.7"/>
		</defs>
		<clipPath id="SVGID_110_">
			<use xlink:href="#SVGID_109_"  style="overflow:visible;"/>
		</clipPath>
		<path class="st54" d="M-89.8,489.8c-0.2-0.3-0.5-0.5-0.9-0.6s-0.6-0.1-0.7,0.2c-0.2,0.7,2.1,1.1,1.6,2.7c-0.3,1-1.3,1.1-2.2,0.8
			c-0.6-0.2-1.1-0.5-1.4-1l0.8-0.5c0.2,0.4,0.5,0.6,1,0.7c0.4,0.1,0.7,0.1,0.8-0.3c0.3-0.8-2.1-1.1-1.6-2.7c0.3-0.9,1.2-1.1,2.2-0.8
			c0.5,0.2,1,0.5,1.2,0.9L-89.8,489.8z"/>
	</g>
	<g>
		<defs>
			<rect id="SVGID_111_" x="-302.3" y="63.5" width="515.9" height="725.7"/>
		</defs>
		<clipPath id="SVGID_112_">
			<use xlink:href="#SVGID_111_"  style="overflow:visible;"/>
		</clipPath>
		<path class="st55" d="M-85.8,491.6c0.2-0.6,0.1-1-0.5-1.2c-0.7-0.2-1,0.2-1.2,0.7L-85.8,491.6z M-85.3,494c-0.6,0.4-1.3,0.5-2,0.3
			s-1-0.5-1.3-0.9c-0.3-0.5-0.3-1-0.1-1.9c0.2-0.7,0.5-1.4,1.1-1.7c0.4-0.3,0.9-0.4,1.7-0.2c1.4,0.4,1.6,1.4,1.3,2.5
			c0,0.2-0.1,0.4-0.2,0.6l-2.8-0.7c-0.2,0.8-0.2,1.2,0.6,1.4c0.5,0.1,1,0.1,1.4-0.2L-85.3,494z"/>
	</g>
	<g>
		<defs>
			<rect id="SVGID_113_" x="-302.3" y="63.5" width="515.9" height="725.7"/>
		</defs>
		<clipPath id="SVGID_114_">
			<use xlink:href="#SVGID_113_"  style="overflow:visible;"/>
		</clipPath>
		<path class="st56" d="M-81.4,494.2c0.4-0.3,0.6-0.7,0.7-1.2c0.1-0.4,0-0.7-0.1-1c-0.1-0.2-0.4-0.3-0.6-0.4
			c-0.7-0.1-0.9,0.3-1.1,1.3c-0.2,1-0.1,1.4,0.4,1.5C-82,494.5-81.7,494.4-81.4,494.2 M-78.8,488.8l-1.4,6.9l-1.1-0.2l0.1-0.7
			c-0.4,0.4-1,0.6-1.6,0.5c-0.4-0.1-0.7-0.3-1-0.7c-0.3-0.5-0.3-1.1-0.1-2c0.2-0.8,0.4-1.5,1-1.8c0.4-0.2,0.8-0.4,1.4-0.2
			c0.4,0.1,0.8,0.3,1,0.6l0.5-2.7L-78.8,488.8z"/>
	</g>
	<g>
		<defs>
			<rect id="SVGID_115_" x="-302.3" y="63.5" width="515.9" height="725.7"/>
		</defs>
		<clipPath id="SVGID_116_">
			<use xlink:href="#SVGID_115_"  style="overflow:visible;"/>
		</clipPath>
		<path class="st57" d="M-73.9,496.6l0.1-0.8c-0.3,0.5-0.8,0.8-1.5,0.8c-0.9-0.1-1.3-0.7-1.2-1.8l0.4-3.1l1.1,0.1l-0.3,2.9
			c-0.1,0.4,0,0.8,0.4,0.8c0.5,0.1,1.1-0.4,1.3-1.8l0.2-1.8l1.1,0.1l-0.5,4.6L-73.9,496.6z"/>
	</g>
	<g>
		<defs>
			<rect id="SVGID_117_" x="-302.3" y="63.5" width="515.9" height="725.7"/>
		</defs>
		<clipPath id="SVGID_118_">
			<use xlink:href="#SVGID_117_"  style="overflow:visible;"/>
		</clipPath>
		<path class="st58" d="M-68.7,493.5c-0.3-0.2-0.6-0.4-1-0.4s-0.6,0.1-0.7,0.4c0,0.7,2.3,0.5,2.2,2.2c-0.1,1.1-1,1.4-2,1.3
			c-0.6,0-1.2-0.2-1.6-0.7l0.6-0.7c0.3,0.3,0.7,0.5,1.1,0.5c0.4,0,0.7-0.1,0.7-0.5c0.1-0.8-2.3-0.6-2.2-2.2c0.1-0.9,0.9-1.3,1.9-1.3
			c0.6,0,1.1,0.2,1.4,0.6L-68.7,493.5z"/>
	</g>
	<g>
		<defs>
			<rect id="SVGID_119_" x="-302.3" y="63.5" width="515.9" height="725.7"/>
		</defs>
		<clipPath id="SVGID_120_">
			<use xlink:href="#SVGID_119_"  style="overflow:visible;"/>
		</clipPath>
		<path class="st59" d="M-65.4,495.1c-0.6,0-1,0.1-1,0.7c0,0.4,0.1,0.6,0.5,0.6c0.5,0,1.2-0.4,1.2-1.3L-65.4,495.1z M-67.2,493
			c0.5-0.5,1.1-0.6,1.8-0.6c1.2,0,1.8,0.5,1.8,1.8l-0.1,3h-1v-0.7c-0.3,0.5-0.9,0.8-1.4,0.8s-0.8-0.2-1-0.4c-0.3-0.3-0.4-0.6-0.4-1
			c0-0.6,0.2-0.9,0.6-1.1c0.4-0.3,1-0.4,1.6-0.4h0.6v-0.2c0-0.6-0.2-0.9-0.8-0.9c-0.5,0-0.8,0.1-1.2,0.4L-67.2,493z"/>
	</g>
	<g>
		<defs>
			<rect id="SVGID_121_" x="-302.3" y="63.5" width="515.9" height="725.7"/>
		</defs>
		<clipPath id="SVGID_122_">
			<use xlink:href="#SVGID_121_"  style="overflow:visible;"/>
		</clipPath>
		<path class="st60" d="M-60.1,493.3c-0.3,0-0.5,0.1-0.7,0.4s-0.4,0.8-0.3,1.3c0,0.5,0.1,0.8,0.3,1s0.4,0.3,0.7,0.3
			c0.7,0,0.8-0.6,0.8-1.5C-59.3,493.9-59.5,493.3-60.1,493.3 M-61.3,490l0.1,3c0.3-0.5,0.8-0.7,1.4-0.7c1.3,0,1.6,1.1,1.7,2.3
			c0,1.2-0.2,2.5-1.7,2.6c-0.5,0-1-0.1-1.3-0.6v0.5h-1l-0.2-7.1L-61.3,490z"/>
	</g>
	<g>
		<defs>
			<rect id="SVGID_123_" x="-302.3" y="63.5" width="515.9" height="725.7"/>
		</defs>
		<clipPath id="SVGID_124_">
			<use xlink:href="#SVGID_123_"  style="overflow:visible;"/>
		</clipPath>
		<path class="st61" d="M-55.9,492.2l0.3,4.6l-1.1,0.1l-0.3-4.6L-55.9,492.2z M-56.7,490c0.4,0,0.7,0.3,0.7,0.7
			c0,0.4-0.2,0.7-0.6,0.8c-0.4,0-0.7-0.2-0.7-0.7S-57.1,490-56.7,490"/>
	</g>
</g>
<rect x="-57.5" y="492.6" transform="matrix(9.490616e-02 0.9955 -0.9955 9.490616e-02 442.0898 500.0152)" class="st0" width="7.1" height="1.1"/>
<g class="st0">
	<g>
		<defs>
			<rect id="SVGID_125_" x="-302.3" y="63.5" width="515.9" height="725.7"/>
		</defs>
		<clipPath id="SVGID_126_">
			<use xlink:href="#SVGID_125_"  style="overflow:visible;"/>
		</clipPath>
		<path class="st62" d="M-51,491.7l0.6,4.6l-1.1,0.1l-0.6-4.6L-51,491.7z M-51.9,489.5c0.4,0,0.7,0.2,0.8,0.6c0,0.4-0.2,0.7-0.6,0.8
			c-0.4,0-0.7-0.2-0.8-0.6C-52.5,489.9-52.3,489.5-51.9,489.5"/>
	</g>
	<g>
		<defs>
			<rect id="SVGID_127_" x="-302.3" y="63.5" width="515.9" height="725.7"/>
		</defs>
		<clipPath id="SVGID_128_">
			<use xlink:href="#SVGID_127_"  style="overflow:visible;"/>
		</clipPath>
		<path class="st63" d="M-46.2,495.7c-0.3,0.1-0.6,0.2-0.9,0.3c-1.2,0.2-1.6-0.3-1.8-1.5l-0.3-1.9l-0.7,0.1l-0.2-1l0.7-0.1l-0.2-1.3
			l1.1-0.3l0.2,1.4l1.3-0.2l0.2,1l-1.3,0.2l0.3,1.8c0.1,0.6,0.2,0.8,0.7,0.7c0.2,0,0.5-0.1,0.6-0.2L-46.2,495.7z"/>
	</g>
	<g>
		<defs>
			<rect id="SVGID_129_" x="-302.3" y="63.5" width="515.9" height="725.7"/>
		</defs>
		<clipPath id="SVGID_130_">
			<use xlink:href="#SVGID_129_"  style="overflow:visible;"/>
		</clipPath>
		<path class="st64" d="M-42.4,494.7c-0.2,1.6-0.6,2.6-1.7,2.9c-0.3,0.1-0.6,0-0.8,0l0.2-1c0.2,0,0.3,0,0.4,0
			c0.5-0.1,0.7-0.5,0.8-1.4l-0.6,0.1l-2.3-4.2l1.2-0.2l1.8,3.6l0.2-4l1.2-0.2L-42.4,494.7z"/>
	</g>
	<g>
		<defs>
			<rect id="SVGID_131_" x="-302.3" y="63.5" width="515.9" height="725.7"/>
		</defs>
		<clipPath id="SVGID_132_">
			<use xlink:href="#SVGID_131_"  style="overflow:visible;"/>
		</clipPath>
		<path class="st65" d="M26.6,457.4l4.3,1.9l-0.5,1l-4.3-1.9L26.6,457.4z M24.3,457c0.2-0.4,0.6-0.5,0.9-0.3
			c0.4,0.2,0.5,0.6,0.4,0.9c-0.2,0.4-0.6,0.5-0.9,0.3C24.3,457.8,24.2,457.4,24.3,457"/>
	</g>
	<g>
		<defs>
			<rect id="SVGID_133_" x="-302.3" y="63.5" width="515.9" height="725.7"/>
		</defs>
		<clipPath id="SVGID_134_">
			<use xlink:href="#SVGID_133_"  style="overflow:visible;"/>
		</clipPath>
		<path class="st66" d="M27.5,455.2l0.8,0.3c-0.4-0.4-0.6-1-0.3-1.7c0.3-0.8,1.1-1.1,2-0.7l3,1.2l-0.4,1.1l-2.7-1.1
			c-0.5-0.2-0.8-0.2-0.9,0.2c-0.2,0.6,0.2,1.2,1.4,1.7l1.6,0.6l-0.4,1.1l-4.3-1.7L27.5,455.2z"/>
	</g>
	<g>
		<defs>
			<rect id="SVGID_135_" x="-302.3" y="63.5" width="515.9" height="725.7"/>
		</defs>
		<clipPath id="SVGID_136_">
			<use xlink:href="#SVGID_135_"  style="overflow:visible;"/>
		</clipPath>
		<path class="st67" d="M30.8,449.5c-0.3,0.2-0.5,0.5-0.6,0.8c-0.1,0.4-0.1,0.6,0.2,0.7c0.7,0.2,1.1-2,2.7-1.5
			c1,0.4,1.1,1.4,0.8,2.3c-0.2,0.6-0.6,1.1-1.1,1.3l-0.5-0.8c0.4-0.2,0.6-0.5,0.8-0.9c0.1-0.4,0.1-0.7-0.2-0.8
			c-0.8-0.3-1.2,2-2.7,1.5c-0.9-0.3-1-1.2-0.7-2.2c0.2-0.5,0.5-1,1-1.2L30.8,449.5z"/>
	</g>
	<g>
		<defs>
			<rect id="SVGID_137_" x="-302.3" y="63.5" width="515.9" height="725.7"/>
		</defs>
		<clipPath id="SVGID_138_">
			<use xlink:href="#SVGID_137_"  style="overflow:visible;"/>
		</clipPath>
		<path class="st68" d="M30.6,446.5l4.4,1.4l-0.4,1.1l-4.4-1.4L30.6,446.5z M28.3,446.4c0.1-0.4,0.5-0.6,0.9-0.4
			c0.4,0.1,0.6,0.5,0.5,0.9s-0.5,0.6-0.9,0.4C28.4,447.1,28.2,446.8,28.3,446.4"/>
	</g>
	<g>
		<defs>
			<rect id="SVGID_139_" x="-302.3" y="63.5" width="515.9" height="725.7"/>
		</defs>
		<clipPath id="SVGID_140_">
			<use xlink:href="#SVGID_139_"  style="overflow:visible;"/>
		</clipPath>
		<path class="st69" d="M34.9,444c-0.2-0.3-0.6-0.6-1.1-0.8c-0.4-0.1-0.7-0.1-1,0c-0.2,0.1-0.4,0.3-0.5,0.6c-0.2,0.7,0.2,1,1.2,1.2
			c0.9,0.3,1.4,0.3,1.5-0.3C35.2,444.6,35.1,444.3,34.9,444 M32.1,441.6l4.5,1.4c1,0.3,1.9,1.1,1.4,2.8c-0.2,0.6-0.5,1.2-1,1.6
			l-0.6-0.8c0.4-0.3,0.6-0.7,0.7-1.1c0.3-0.9-0.1-1.2-0.8-1.4l-0.7-0.2c0.4,0.4,0.5,1,0.3,1.6c-0.1,0.5-0.5,0.8-0.9,1
			c-0.5,0.2-1.1,0.1-1.9-0.1s-1.3-0.5-1.7-1.1c-0.2-0.4-0.3-0.8-0.1-1.4c0.1-0.5,0.4-0.9,1-1.1l-0.5-0.2L32.1,441.6z"/>
	</g>
	<g>
		<defs>
			<rect id="SVGID_141_" x="-302.3" y="63.5" width="515.9" height="725.7"/>
		</defs>
		<clipPath id="SVGID_142_">
			<use xlink:href="#SVGID_141_"  style="overflow:visible;"/>
		</clipPath>
		<path class="st70" d="M30.4,438.7l3,0.8c-0.4-0.3-0.6-0.9-0.4-1.6c0.2-0.8,0.9-1.2,1.9-0.9l3.1,0.8l-0.3,1.1l-2.9-0.8
			c-0.5-0.1-0.8-0.1-0.9,0.3c-0.1,0.5,0.2,1.2,1.6,1.6l1.7,0.5l-0.3,1.1l-6.8-1.9L30.4,438.7z"/>
	</g>
	<g>
		<defs>
			<rect id="SVGID_143_" x="-302.3" y="63.5" width="515.9" height="725.7"/>
		</defs>
		<clipPath id="SVGID_144_">
			<use xlink:href="#SVGID_143_"  style="overflow:visible;"/>
		</clipPath>
		<path class="st71" d="M39,434c0,0.3-0.1,0.7-0.1,0.9c-0.3,1.2-0.9,1.3-2,1.1l-1.9-0.5l-0.2,0.7l-1-0.3l0.2-0.7l-1.3-0.3l0.2-1.1
			l1.4,0.4l0.3-1.2l1,0.3l-0.3,1.2l1.8,0.5c0.5,0.1,0.8,0.2,0.9-0.4c0.1-0.2,0.1-0.5,0.1-0.7L39,434z"/>
	</g>
	<g>
		<defs>
			<rect id="SVGID_145_" x="-302.3" y="63.5" width="515.9" height="725.7"/>
		</defs>
		<clipPath id="SVGID_146_">
			<use xlink:href="#SVGID_145_"  style="overflow:visible;"/>
		</clipPath>
		<path class="st72" d="M36.4,429.7c-0.3,0.2-0.5,0.6-0.5,0.9c-0.1,0.4,0,0.6,0.3,0.7c0.7,0.2,0.9-2.2,2.5-1.8c1,0.2,1.2,1.2,1,2.2
			c-0.1,0.6-0.4,1.2-0.9,1.5l-0.6-0.7c0.3-0.2,0.6-0.6,0.7-1c0.1-0.4,0.1-0.7-0.3-0.8c-0.8-0.2-0.9,2.2-2.5,1.8
			c-0.9-0.2-1.2-1.1-1-2.1c0.1-0.5,0.4-1.1,0.8-1.3L36.4,429.7z"/>
	</g>
	<g>
		<defs>
			<rect id="SVGID_147_" x="-302.3" y="63.5" width="515.9" height="725.7"/>
		</defs>
		<clipPath id="SVGID_148_">
			<use xlink:href="#SVGID_147_"  style="overflow:visible;"/>
		</clipPath>
		<path class="st73" d="M38.8,424.7c-0.1,0.6,0,1,0.6,1.1c0.4,0.1,0.6,0,0.6-0.4c0.1-0.5-0.3-1.2-1.1-1.4L38.8,424.7z M36.5,426.3
			c-0.4-0.5-0.5-1.1-0.4-1.9c0.2-1.2,0.7-1.8,2-1.6l3,0.4l-0.1,1l-0.7-0.1c0.5,0.4,0.7,1,0.6,1.5c-0.1,0.4-0.3,0.7-0.5,0.9
			c-0.3,0.2-0.6,0.3-1.1,0.2c-0.6-0.1-0.9-0.3-1.1-0.7c-0.2-0.5-0.2-1-0.1-1.7l0.1-0.6H38c-0.6-0.1-0.9,0.1-1,0.7
			c-0.1,0.5,0,0.8,0.3,1.2L36.5,426.3z"/>
	</g>
	<g>
		<defs>
			<rect id="SVGID_149_" x="-302.3" y="63.5" width="515.9" height="725.7"/>
		</defs>
		<clipPath id="SVGID_150_">
			<use xlink:href="#SVGID_149_"  style="overflow:visible;"/>
		</clipPath>
		<path class="st74" d="M36.7,420.3l0.8,0.1c-0.5-0.3-0.9-0.8-0.8-1.5c0.1-0.9,0.7-1.3,1.7-1.2l3.2,0.3l-0.1,1.1l-2.9-0.3
			c-0.5,0-0.8,0-0.8,0.4c-0.1,0.6,0.5,1.1,1.9,1.3l1.7,0.2l-0.1,1.1l-4.6-0.4L36.7,420.3z"/>
	</g>
	<g>
		<defs>
			<rect id="SVGID_151_" x="-302.3" y="63.5" width="515.9" height="725.7"/>
		</defs>
		<clipPath id="SVGID_152_">
			<use xlink:href="#SVGID_151_"  style="overflow:visible;"/>
		</clipPath>
		<path class="st75" d="M40.5,413.9c-0.3-0.3-0.8-0.5-1.3-0.5c-0.4,0-0.7,0.1-1,0.3c-0.2,0.2-0.3,0.4-0.3,0.7c0,0.7,0.5,0.9,1.5,0.9
			s1.4-0.1,1.4-0.6C40.8,414.4,40.7,414.2,40.5,413.9 M34.7,412.2l7.1,0.2v1.1h-0.7c0.5,0.3,0.8,0.9,0.8,1.5c0,0.4-0.2,0.8-0.5,1.1
			c-0.4,0.3-1,0.5-1.9,0.5s-1.5-0.2-2-0.6c-0.3-0.3-0.5-0.7-0.5-1.3c0-0.5,0.1-0.8,0.5-1.1l-2.7-0.1L34.7,412.2z"/>
	</g>
	<g>
		<defs>
			<rect id="SVGID_153_" x="-302.3" y="63.5" width="515.9" height="725.7"/>
		</defs>
		<clipPath id="SVGID_154_">
			<use xlink:href="#SVGID_153_"  style="overflow:visible;"/>
		</clipPath>
		<path class="st76" d="M40.3,406.5c-0.4-0.3-0.8-0.4-1.4-0.4c-0.4,0-0.7,0.1-0.9,0.4c-0.2,0.2-0.2,0.4-0.2,0.7
			c0,0.7,0.5,0.8,1.5,0.8c1-0.1,1.4-0.2,1.4-0.7C40.7,407,40.6,406.8,40.3,406.5 M34.4,405.3l7.1-0.4l0.1,1.1h-0.7
			c0.5,0.3,0.9,0.8,0.9,1.4c0,0.4-0.1,0.8-0.4,1.1c-0.4,0.4-1,0.6-1.9,0.6s-1.6-0.1-2-0.5c-0.3-0.3-0.5-0.7-0.6-1.3
			c0-0.5,0.1-0.8,0.4-1.1l-2.7,0.1L34.4,405.3z"/>
	</g>
	<g>
		<defs>
			<rect id="SVGID_155_" x="-302.3" y="63.5" width="515.9" height="725.7"/>
		</defs>
		<clipPath id="SVGID_156_">
			<use xlink:href="#SVGID_155_"  style="overflow:visible;"/>
		</clipPath>
		<path class="st77" d="M39.2,401.9c0.1,0.6,0.2,1,0.8,0.9c0.4,0,0.6-0.2,0.5-0.5c0-0.5-0.5-1.1-1.4-1L39.2,401.9z M37.3,404
			c-0.5-0.4-0.8-1-0.8-1.7c-0.1-1.2,0.3-1.9,1.5-2l3-0.3l0.1,1l-0.7,0.1c0.6,0.3,0.9,0.8,0.9,1.3c0,0.4-0.1,0.8-0.3,1
			c-0.2,0.3-0.5,0.4-1,0.5c-0.6,0.1-0.9-0.1-1.2-0.4c-0.3-0.4-0.5-0.9-0.6-1.6l-0.1-0.6h-0.2c-0.6,0.1-0.8,0.3-0.8,0.9
			c0,0.5,0.2,0.8,0.6,1.1L37.3,404z"/>
	</g>
	<g>
		<defs>
			<rect id="SVGID_157_" x="-302.3" y="63.5" width="515.9" height="725.7"/>
		</defs>
		<clipPath id="SVGID_158_">
			<use xlink:href="#SVGID_157_"  style="overflow:visible;"/>
		</clipPath>
		<path class="st78" d="M40.4,395.7c0.1,0.3,0.2,0.6,0.2,0.9c0.2,1.2-0.3,1.6-1.5,1.8l-1.9,0.3l0.1,0.8l-1,0.1l-0.1-0.8l-1.3,0.2
			l-0.3-1.1l1.4-0.2l-0.2-1.3l1-0.1l0.2,1.3l1.8-0.3c0.6-0.1,0.8-0.1,0.7-0.7c0-0.2-0.1-0.5-0.2-0.6L40.4,395.7z"/>
	</g>
	<g>
		<defs>
			<rect id="SVGID_159_" x="-302.3" y="63.5" width="515.9" height="725.7"/>
		</defs>
		<clipPath id="SVGID_160_">
			<use xlink:href="#SVGID_159_"  style="overflow:visible;"/>
		</clipPath>
		<path class="st79" d="M37.9,393.3c0.1,0.6,0.3,0.9,0.9,0.8c0.4-0.1,0.6-0.2,0.5-0.6c-0.1-0.5-0.6-1.1-1.5-0.9L37.9,393.3z
			 M36.2,395.5c-0.6-0.4-0.8-0.9-1-1.6c-0.2-1.2,0.1-1.9,1.4-2.1l3-0.5l0.2,1l-0.7,0.1c0.6,0.2,0.9,0.7,1,1.3c0.1,0.4,0,0.8-0.2,1.1
			c-0.2,0.3-0.5,0.5-0.9,0.6c-0.6,0.1-0.9,0-1.2-0.3c-0.4-0.4-0.6-0.9-0.7-1.5L37,393h-0.2c-0.6,0.1-0.8,0.4-0.7,1
			c0.1,0.5,0.3,0.8,0.6,1L36.2,395.5z"/>
	</g>
</g>
<polygon class="st0" points="29.5,579.3 32.1,581.7 31.1,578.3 32.1,577.6 33.3,582.4 32.2,583.1 28.4,580 "/>
<g class="st0">
	<g>
		<defs>
			<rect id="SVGID_161_" x="-302.3" y="63.5" width="515.9" height="725.7"/>
		</defs>
		<clipPath id="SVGID_162_">
			<use xlink:href="#SVGID_161_"  style="overflow:visible;"/>
		</clipPath>
		<path class="st80" d="M35.3,576.6c-0.2,0-0.4,0-0.7,0.2c-0.3,0.2-0.4,0.4-0.4,0.6c0,0.3,0.2,0.8,0.5,1.2c0.4,0.5,0.7,0.8,0.9,0.8
			c0.2,0,0.4,0,0.6-0.2c0.3-0.2,0.4-0.4,0.4-0.6c0-0.3-0.2-0.7-0.5-1.2C36,577,35.6,576.7,35.3,576.6 M37.9,578.6
			c-0.1,0.5-0.3,1-0.9,1.4s-1.1,0.5-1.5,0.4c-0.6-0.1-1-0.5-1.5-1.2c-0.5-0.7-0.8-1.3-0.7-1.9c0.1-0.5,0.4-1,1-1.4
			c0.6-0.4,1-0.5,1.5-0.4c0.6,0.1,1,0.5,1.5,1.2C37.7,577.4,38,578,37.9,578.6"/>
	</g>
	<g>
		<defs>
			<rect id="SVGID_163_" x="-302.3" y="63.5" width="515.9" height="725.7"/>
		</defs>
		<clipPath id="SVGID_164_">
			<use xlink:href="#SVGID_163_"  style="overflow:visible;"/>
		</clipPath>
		<path class="st81" d="M37.7,573.5l2.8,3.7l-0.9,0.7l-2.8-3.7L37.7,573.5z M35.9,572.1c0.3-0.2,0.7-0.2,1,0.1
			c0.2,0.3,0.2,0.7-0.1,1c-0.3,0.2-0.7,0.2-1-0.1C35.5,572.7,35.6,572.3,35.9,572.1"/>
	</g>
	<g>
		<defs>
			<rect id="SVGID_165_" x="-302.3" y="63.5" width="515.9" height="725.7"/>
		</defs>
		<clipPath id="SVGID_166_">
			<use xlink:href="#SVGID_165_"  style="overflow:visible;"/>
		</clipPath>
		<path class="st82" d="M44,573.7c0,0.7-0.3,1.2-0.9,1.7c-0.5,0.4-1,0.5-1.4,0.4c-0.6-0.1-1.1-0.5-1.5-1.1c-0.5-0.6-0.8-1.2-0.8-1.9
			c0-0.4,0.3-0.9,0.8-1.4c0.4-0.4,1-0.6,1.5-0.5v1c-0.3,0-0.6,0.1-0.9,0.3c-0.6,0.5-0.4,0.9,0.2,1.7c0.6,0.8,1,1,1.5,0.6
			c0.3-0.2,0.5-0.6,0.5-1L44,573.7z"/>
	</g>
	<g>
		<defs>
			<rect id="SVGID_167_" x="-302.3" y="63.5" width="515.9" height="725.7"/>
		</defs>
		<clipPath id="SVGID_168_">
			<use xlink:href="#SVGID_167_"  style="overflow:visible;"/>
		</clipPath>
		<path class="st83" d="M45.2,569.7c-0.4-0.5-0.8-0.7-1.3-0.3c-0.5,0.5-0.4,0.9,0,1.4L45.2,569.7z M47.5,570.7c0,0.7-0.4,1.3-1,1.8
			c-0.5,0.4-1,0.6-1.5,0.6s-1-0.3-1.6-1c-0.5-0.6-0.8-1.2-0.8-1.9c0-0.5,0.2-1,0.8-1.5c1.1-0.9,2.1-0.5,2.8,0.4
			c0.1,0.1,0.2,0.3,0.4,0.5l-2.2,1.9c0.5,0.6,0.9,0.9,1.5,0.3c0.4-0.3,0.6-0.8,0.7-1.2L47.5,570.7z"/>
	</g>
	<g>
		<defs>
			<rect id="SVGID_169_" x="-302.3" y="63.5" width="515.9" height="725.7"/>
		</defs>
		<clipPath id="SVGID_170_">
			<use xlink:href="#SVGID_169_"  style="overflow:visible;"/>
		</clipPath>
		<path class="st84" d="M50.1,566.5c-0.5,0.4-0.7,0.7-0.2,1.2c0.2,0.3,0.5,0.3,0.7,0.1c0.4-0.3,0.6-1.1,0-1.7L50.1,566.5z
			 M47.3,566.3c0-0.7,0.3-1.2,0.9-1.7c0.9-0.8,1.7-0.9,2.5,0l2,2.2l-0.8,0.7l-0.5-0.5c0.1,0.6-0.1,1.2-0.5,1.5
			c-0.3,0.3-0.7,0.4-1,0.4c-0.4,0-0.7-0.2-1-0.5c-0.4-0.4-0.5-0.8-0.4-1.2c0.1-0.5,0.4-0.9,0.9-1.4l0.4-0.4l-0.1-0.1
			c-0.4-0.5-0.7-0.5-1.2-0.1c-0.3,0.3-0.5,0.6-0.5,1.1H47.3z"/>
	</g>
	<g>
		<defs>
			<rect id="SVGID_171_" x="-302.3" y="63.5" width="515.9" height="725.7"/>
		</defs>
		<clipPath id="SVGID_172_">
			<use xlink:href="#SVGID_171_"  style="overflow:visible;"/>
		</clipPath>
		<path class="st85" d="M51.2,561.9l0.6,0.6c-0.2-0.6-0.1-1.2,0.4-1.7c0.6-0.6,1.4-0.5,2.1,0.2l2.2,2.3l-0.8,0.8l-2-2.1
			c-0.4-0.4-0.6-0.5-0.9-0.2c-0.4,0.4-0.4,1.2,0.6,2.2l1.2,1.3l-0.8,0.8l-3.2-3.4L51.2,561.9z"/>
	</g>
	<g>
		<defs>
			<rect id="SVGID_173_" x="-302.3" y="63.5" width="515.9" height="725.7"/>
		</defs>
		<clipPath id="SVGID_174_">
			<use xlink:href="#SVGID_173_"  style="overflow:visible;"/>
		</clipPath>
		<path class="st86" d="M58.2,559.9c0-0.5-0.2-0.9-0.6-1.3c-0.3-0.3-0.6-0.4-0.9-0.4c-0.2,0-0.5,0.1-0.7,0.3c-0.5,0.5-0.2,1,0.5,1.6
			c0.7,0.7,1.1,0.9,1.5,0.5C58.1,560.5,58.2,560.2,58.2,559.9 M55.1,554.7l5,5l-0.8,0.8l-0.5-0.5c0.1,0.6,0,1.2-0.4,1.6
			c-0.3,0.3-0.7,0.4-1.1,0.4c-0.5,0-1.1-0.3-1.7-1c-0.6-0.6-1-1.2-1-1.8c0-0.4,0.1-0.9,0.6-1.3c0.3-0.3,0.7-0.5,1.1-0.5l-1.9-1.9
			L55.1,554.7z"/>
	</g>
	<g>
		<defs>
			<rect id="SVGID_175_" x="-302.3" y="63.5" width="515.9" height="725.7"/>
		</defs>
		<clipPath id="SVGID_176_">
			<use xlink:href="#SVGID_175_"  style="overflow:visible;"/>
		</clipPath>
		<path class="st87" d="M64.3,555.2c-0.1,0.3-0.4,0.6-0.6,0.8c-0.8,0.9-1.5,0.7-2.3,0l-1.4-1.3l-0.5,0.6l-0.7-0.7l0.5-0.6l-1-0.9
			l0.7-0.9l1,1l0.9-0.9l0.7,0.7l-0.9,0.9l1.4,1.3c0.4,0.4,0.6,0.5,1,0.1c0.1-0.1,0.3-0.4,0.4-0.5L64.3,555.2z"/>
	</g>
	<g>
		<defs>
			<rect id="SVGID_177_" x="-302.3" y="63.5" width="515.9" height="725.7"/>
		</defs>
		<clipPath id="SVGID_178_">
			<use xlink:href="#SVGID_177_"  style="overflow:visible;"/>
		</clipPath>
		<path class="st88" d="M63.9,550.3c-0.2,0-0.4,0.1-0.6,0.3c-0.2,0.3-0.3,0.5-0.3,0.7c0.1,0.3,0.4,0.7,0.8,1.1
			c0.5,0.4,0.8,0.6,1.1,0.6c0.2,0,0.4-0.1,0.6-0.3c0.2-0.3,0.3-0.5,0.2-0.7c0-0.3-0.3-0.7-0.8-1C64.6,550.5,64.2,550.3,63.9,550.3
			 M66.8,551.7c0,0.5-0.1,1-0.6,1.6c-0.5,0.5-0.9,0.7-1.4,0.8c-0.6,0-1.1-0.2-1.7-0.8c-0.7-0.6-1-1.1-1.1-1.7c0-0.5,0.1-1,0.6-1.6
			c0.5-0.5,0.9-0.7,1.4-0.8c0.6,0,1.1,0.3,1.8,0.8C66.4,550.6,66.8,551.1,66.8,551.7"/>
	</g>
	<g>
		<defs>
			<rect id="SVGID_179_" x="-302.3" y="63.5" width="515.9" height="725.7"/>
		</defs>
		<clipPath id="SVGID_180_">
			<use xlink:href="#SVGID_179_"  style="overflow:visible;"/>
		</clipPath>
		<path class="st89" d="M65.4,546.9l0.6,0.5c-0.3-0.6-0.2-1.2,0.2-1.7c0.6-0.7,1.3-0.7,2.1,0l2.4,2l-0.7,0.9l-2.3-1.9
			c-0.4-0.3-0.7-0.4-0.9-0.1c-0.4,0.5-0.2,1.2,0.8,2.1l1.3,1.1l-0.7,0.9l-3.6-3L65.4,546.9z"/>
	</g>
	<g>
		<defs>
			<rect id="SVGID_181_" x="-302.3" y="63.5" width="515.9" height="725.7"/>
		</defs>
		<clipPath id="SVGID_182_">
			<use xlink:href="#SVGID_181_"  style="overflow:visible;"/>
		</clipPath>
		<path class="st90" d="M71.1,542.7c-0.5-0.4-0.9-0.5-1.3,0c-0.4,0.6-0.2,1,0.2,1.4L71.1,542.7z M73.5,543.2c0.1,0.7-0.1,1.3-0.6,2
			c-0.4,0.5-0.8,0.8-1.3,0.9c-0.5,0.1-1.1-0.1-1.8-0.6c-0.6-0.5-1.1-1-1.2-1.7c-0.1-0.5,0-1,0.5-1.6c0.9-1.1,1.9-1,2.8-0.2
			c0.1,0.1,0.3,0.3,0.4,0.4l-1.7,2.3c0.6,0.5,1.1,0.6,1.6,0c0.3-0.4,0.4-0.9,0.4-1.4L73.5,543.2z"/>
	</g>
	<g>
		<defs>
			<rect id="SVGID_183_" x="-302.3" y="63.5" width="515.9" height="725.7"/>
		</defs>
		<clipPath id="SVGID_184_">
			<use xlink:href="#SVGID_183_"  style="overflow:visible;"/>
		</clipPath>
		<path class="st91" d="M-21.2,532.8c-0.1,0.4,0,0.9,0.1,1.4c0.1,0.3,0.3,0.6,0.6,0.7c0.2,0.1,0.5,0.1,0.8,0
			c0.6-0.2,0.6-0.7,0.2-1.7c-0.4-0.9-0.7-1.2-1.2-1C-20.9,532.3-21.1,532.5-21.2,532.8 M-22,531.8l0.3,0.6c0.1-0.6,0.5-1.1,1-1.3
			c0.4-0.2,0.8-0.2,1.1,0c0.6,0.2,1,0.9,1.3,1.6c0.3,0.8,0.5,1.6,0.2,2.2c-0.2,0.3-0.5,0.7-1,0.9c-0.4,0.2-0.8,0.2-1.2,0l1,2.3
			l-1.1,0.4l-2.6-6.3L-22,531.8z"/>
	</g>
	<g>
		<defs>
			<rect id="SVGID_185_" x="-302.3" y="63.5" width="515.9" height="725.7"/>
		</defs>
		<clipPath id="SVGID_186_">
			<use xlink:href="#SVGID_185_"  style="overflow:visible;"/>
		</clipPath>
		<path class="st92" d="M-17.2,529.7l0.3,0.7c0-0.7,0.3-1.2,0.8-1.4c0.2-0.1,0.4-0.1,0.5-0.1l0.3,1.1c-0.1,0-0.3,0-0.4,0.1
			c-0.7,0.3-0.6,1.3-0.2,2.3l0.7,1.5l-1,0.5l-2-4.2L-17.2,529.7z"/>
	</g>
	<g>
		<defs>
			<rect id="SVGID_187_" x="-302.3" y="63.5" width="515.9" height="725.7"/>
		</defs>
		<clipPath id="SVGID_188_">
			<use xlink:href="#SVGID_187_"  style="overflow:visible;"/>
		</clipPath>
		<path class="st93" d="M-12.5,528.6c-0.2-0.1-0.4-0.1-0.7,0.1c-0.3,0.2-0.5,0.3-0.5,0.5c-0.1,0.3,0.1,0.8,0.3,1.3
			c0.3,0.6,0.5,0.9,0.8,1c0.2,0.1,0.4,0.1,0.7-0.1c0.3-0.1,0.4-0.3,0.5-0.5c0.1-0.3,0-0.8-0.3-1.3S-12.2,528.7-12.5,528.6
			 M-10.4,531.1c-0.2,0.5-0.5,0.9-1.2,1.2c-0.6,0.3-1.1,0.3-1.6,0.2c-0.6-0.2-0.9-0.7-1.3-1.4c-0.4-0.8-0.5-1.4-0.3-2
			c0.2-0.5,0.5-0.9,1.2-1.2c0.6-0.3,1.1-0.3,1.6-0.2c0.6,0.2,0.9,0.7,1.3,1.4C-10.3,529.9-10.2,530.4-10.4,531.1"/>
	</g>
	<g>
		<defs>
			<rect id="SVGID_189_" x="-302.3" y="63.5" width="515.9" height="725.7"/>
		</defs>
		<clipPath id="SVGID_190_">
			<use xlink:href="#SVGID_189_"  style="overflow:visible;"/>
		</clipPath>
		<path class="st94" d="M-6.1,529.4c-0.2,0.2-0.5,0.4-0.8,0.5c-1.1,0.5-1.6,0.2-2.1-0.8l-0.9-1.7l-0.7,0.3l-0.4-0.9l0.7-0.3
			l-0.6-1.2l1-0.6l0.6,1.3l1.2-0.6l0.4,0.9l-1.2,0.6l0.8,1.7c0.2,0.5,0.4,0.7,0.9,0.4c0.2-0.1,0.4-0.2,0.6-0.4L-6.1,529.4z"/>
	</g>
	<g>
		<defs>
			<rect id="SVGID_191_" x="-302.3" y="63.5" width="515.9" height="725.7"/>
		</defs>
		<clipPath id="SVGID_192_">
			<use xlink:href="#SVGID_191_"  style="overflow:visible;"/>
		</clipPath>
		<path class="st95" d="M-4.7,524.7c-0.2-0.1-0.4-0.1-0.7,0.1c-0.3,0.2-0.4,0.4-0.5,0.5c-0.1,0.3,0.1,0.8,0.3,1.3
			c0.3,0.5,0.6,0.9,0.8,1c0.2,0.1,0.4,0,0.7-0.1c0.3-0.2,0.4-0.4,0.5-0.5c0.1-0.3-0.1-0.8-0.3-1.2C-4.1,525.2-4.4,524.8-4.7,524.7
			 M-2.5,527.1c-0.2,0.5-0.5,0.9-1.1,1.2c-0.6,0.3-1.1,0.4-1.6,0.2c-0.6-0.2-1-0.6-1.3-1.4c-0.4-0.8-0.6-1.4-0.4-2
			c0.1-0.5,0.5-0.9,1.1-1.2c0.6-0.3,1.1-0.4,1.6-0.2c0.6,0.2,1,0.6,1.4,1.4C-2.4,525.9-2.3,526.5-2.5,527.1"/>
	</g>
</g>
<rect x="-1.7" y="522.7" transform="matrix(-0.4833 -0.8754 0.8754 -0.4833 -460.4511 776.3572)" class="st0" width="1.1" height="2.7"/>
<g class="st0">
	<g>
		<defs>
			<rect id="SVGID_193_" x="-302.3" y="63.5" width="515.9" height="725.7"/>
		</defs>
		<clipPath id="SVGID_194_">
			<use xlink:href="#SVGID_193_"  style="overflow:visible;"/>
		</clipPath>
		<path class="st96" d="M4.7,522.8c-0.1,0.7-0.5,1.2-1.1,1.6c-0.6,0.3-1.1,0.4-1.5,0.2c-0.6-0.2-1-0.6-1.4-1.3
			c-0.4-0.7-0.6-1.3-0.5-2c0.1-0.4,0.4-0.9,1-1.2c0.5-0.3,1-0.5,1.6-0.3l-0.2,1c-0.3-0.1-0.6,0-0.9,0.2c-0.7,0.4-0.5,0.9-0.1,1.7
			c0.5,0.8,0.9,1.2,1.4,0.9c0.3-0.2,0.5-0.5,0.6-0.9L4.7,522.8z"/>
	</g>
	<g>
		<defs>
			<rect id="SVGID_195_" x="-302.3" y="63.5" width="515.9" height="725.7"/>
		</defs>
		<clipPath id="SVGID_196_">
			<use xlink:href="#SVGID_195_"  style="overflow:visible;"/>
		</clipPath>
		<path class="st97" d="M6,518.4c-0.2,0-0.4,0-0.7,0.2c-0.3,0.2-0.4,0.4-0.4,0.6c0,0.3,0.2,0.8,0.5,1.2c0.3,0.5,0.6,0.8,0.9,0.9
			c0.2,0,0.4,0,0.7-0.2c0.3-0.2,0.4-0.4,0.4-0.6c0-0.3-0.1-0.7-0.4-1.2C6.6,518.9,6.3,518.5,6,518.4 M8.5,520.6
			c-0.1,0.5-0.4,1-1,1.3c-0.6,0.4-1.1,0.5-1.6,0.4c-0.6-0.1-1-0.5-1.5-1.2s-0.7-1.3-0.6-2c0.1-0.5,0.4-1,1-1.3
			c0.6-0.4,1.1-0.5,1.5-0.4c0.6,0.1,1,0.5,1.5,1.2C8.4,519.4,8.6,519.9,8.5,520.6"/>
	</g>
	<g>
		<defs>
			<rect id="SVGID_197_" x="-302.3" y="63.5" width="515.9" height="725.7"/>
		</defs>
		<clipPath id="SVGID_198_">
			<use xlink:href="#SVGID_197_"  style="overflow:visible;"/>
		</clipPath>
		<path class="st98" d="M8.4,515.5l0.5,0.7c-0.1-0.6,0-1.2,0.6-1.6c0.7-0.5,1.5-0.3,2.1,0.5l1.9,2.6l-0.9,0.7l-1.7-2.4
			c-0.3-0.4-0.6-0.6-0.9-0.3c-0.5,0.4-0.5,1.1,0.3,2.2l1,1.4l-0.9,0.7l-2.8-3.8L8.4,515.5z"/>
	</g>
	<g>
		<defs>
			<rect id="SVGID_199_" x="-302.3" y="63.5" width="515.9" height="725.7"/>
		</defs>
		<clipPath id="SVGID_200_">
			<use xlink:href="#SVGID_199_"  style="overflow:visible;"/>
		</clipPath>
		<path class="st99" d="M16.8,514.8c-0.2,0.2-0.4,0.5-0.7,0.7c-1,0.8-1.5,0.5-2.3-0.4l-1.2-1.5l-0.6,0.5l-0.6-0.8l0.6-0.5l-0.8-1
			L12,511l0.9,1.1l1-0.8l0.6,0.8l-1,0.8l1.2,1.4c0.4,0.4,0.5,0.6,0.9,0.2c0.2-0.1,0.3-0.3,0.5-0.5L16.8,514.8z"/>
	</g>
	<g>
		<defs>
			<rect id="SVGID_201_" x="-302.3" y="63.5" width="515.9" height="725.7"/>
		</defs>
		<clipPath id="SVGID_202_">
			<use xlink:href="#SVGID_201_"  style="overflow:visible;"/>
		</clipPath>
		<path class="st100" d="M17.8,510.2c-0.4-0.5-0.8-0.7-1.3-0.2s-0.4,0.9,0,1.4L17.8,510.2z M20.1,511.2c0,0.7-0.3,1.3-0.9,1.8
			c-0.5,0.5-1,0.6-1.4,0.6c-0.5,0-1.1-0.3-1.6-1c-0.5-0.6-0.9-1.2-0.9-1.8c0-0.5,0.2-1,0.8-1.5c1.1-0.9,2.1-0.6,2.8,0.3
			c0.1,0.1,0.2,0.3,0.4,0.5L17,512c0.5,0.6,0.9,0.8,1.5,0.3c0.4-0.3,0.6-0.8,0.6-1.3L20.1,511.2z"/>
	</g>
	<g>
		<defs>
			<rect id="SVGID_203_" x="-302.3" y="63.5" width="515.9" height="725.7"/>
		</defs>
		<clipPath id="SVGID_204_">
			<use xlink:href="#SVGID_203_"  style="overflow:visible;"/>
		</clipPath>
		<path class="st101" d="M19,506.6l0.6,0.6c-0.2-0.6-0.1-1.2,0.4-1.7c0.6-0.6,1.4-0.5,2.1,0.2l2.2,2.3l-0.8,0.8l-2.1-2.1
			c-0.4-0.4-0.6-0.5-0.9-0.2c-0.4,0.4-0.4,1.2,0.6,2.2l1.2,1.3l-0.8,0.8l-3.3-3.3L19,506.6z"/>
	</g>
	<g>
		<defs>
			<rect id="SVGID_205_" x="-302.3" y="63.5" width="515.9" height="725.7"/>
		</defs>
		<clipPath id="SVGID_206_">
			<use xlink:href="#SVGID_205_"  style="overflow:visible;"/>
		</clipPath>
		<path class="st102" d="M27.2,504.8c-0.1,0.3-0.4,0.5-0.6,0.8c-0.8,0.9-1.5,0.7-2.3,0l-1.4-1.3l-0.5,0.6l-0.7-0.7l0.5-0.6l-1-0.9
			l0.7-0.9l1,1l0.9-0.9l0.7,0.7l-0.9,0.9l1.4,1.3c0.4,0.4,0.6,0.5,1,0.1c0.1-0.1,0.3-0.4,0.4-0.5L27.2,504.8z"/>
	</g>
	<g>
		<defs>
			<rect id="SVGID_207_" x="-302.3" y="63.5" width="515.9" height="725.7"/>
		</defs>
		<clipPath id="SVGID_208_">
			<use xlink:href="#SVGID_207_"  style="overflow:visible;"/>
		</clipPath>
		<path class="st103" d="M-143.3,495.3c-0.7,0-1.2-0.4-1.7-0.9c-0.4-0.5-0.5-1-0.4-1.5c0.1-0.6,0.5-1,1.1-1.5s1.2-0.8,1.9-0.7
			c0.4,0.1,0.9,0.3,1.3,0.9c0.3,0.5,0.6,1,0.5,1.5l-1-0.1c0-0.3-0.1-0.6-0.3-0.9c-0.5-0.6-0.9-0.5-1.7,0.1c-0.8,0.6-1.1,1-0.7,1.5
			c0.2,0.3,0.6,0.5,1,0.5V495.3z"/>
	</g>
	<g>
		<defs>
			<rect id="SVGID_209_" x="-302.3" y="63.5" width="515.9" height="725.7"/>
		</defs>
		<clipPath id="SVGID_210_">
			<use xlink:href="#SVGID_209_"  style="overflow:visible;"/>
		</clipPath>
		<path class="st104" d="M-138.8,496.1c0-0.2,0-0.4-0.2-0.6c-0.2-0.3-0.5-0.3-0.6-0.3c-0.3,0-0.8,0.3-1.2,0.6
			c-0.5,0.4-0.7,0.7-0.8,1c0,0.2,0,0.4,0.2,0.6c0.2,0.3,0.4,0.3,0.6,0.3c0.3,0,0.7-0.2,1.1-0.6
			C-139.1,496.8-138.8,496.4-138.8,496.1 M-140.6,498.8c-0.5,0-1-0.3-1.5-0.8s-0.6-1-0.6-1.5c0-0.6,0.4-1.1,1-1.6
			c0.7-0.6,1.2-0.9,1.9-0.8c0.5,0,1,0.3,1.4,0.8s0.6,1,0.6,1.5c0,0.6-0.4,1.1-1,1.6C-139.5,498.6-140,498.8-140.6,498.8"/>
	</g>
	<g>
		<defs>
			<rect id="SVGID_211_" x="-302.3" y="63.5" width="515.9" height="725.7"/>
		</defs>
		<clipPath id="SVGID_212_">
			<use xlink:href="#SVGID_211_"  style="overflow:visible;"/>
		</clipPath>
		<path class="st105" d="M-135.6,498.1l-0.6,0.6c0.6-0.2,1.2-0.1,1.7,0.4c0.6,0.6,0.5,1.4-0.2,2.1l-2.3,2.2l-0.8-0.8l2.1-2.1
			c0.4-0.4,0.5-0.6,0.2-0.9c-0.4-0.4-1.2-0.4-2.2,0.6l-1.3,1.2l-0.8-0.8l3.3-3.3L-135.6,498.1z"/>
	</g>
	<g>
		<defs>
			<rect id="SVGID_213_" x="-302.3" y="63.5" width="515.9" height="725.7"/>
		</defs>
		<clipPath id="SVGID_214_">
			<use xlink:href="#SVGID_213_"  style="overflow:visible;"/>
		</clipPath>
		<path class="st106" d="M-133.7,506.3c-0.3-0.1-0.6-0.3-0.8-0.5c-0.9-0.8-0.8-1.4,0-2.3l1.3-1.4l-0.6-0.5l0.7-0.8l0.6,0.5l0.9-1
			l0.9,0.7l-0.9,1.1l1,0.9l-0.7,0.8l-1-0.9l-1.2,1.4c-0.4,0.4-0.5,0.6-0.1,1c0.2,0.1,0.4,0.3,0.5,0.4L-133.7,506.3z"/>
	</g>
	<g>
		<defs>
			<rect id="SVGID_215_" x="-302.3" y="63.5" width="515.9" height="725.7"/>
		</defs>
		<clipPath id="SVGID_216_">
			<use xlink:href="#SVGID_215_"  style="overflow:visible;"/>
		</clipPath>
		<path class="st107" d="M-128.8,506.5c0.4-0.5,0.5-0.9,0-1.3c-0.6-0.4-1-0.2-1.4,0.2L-128.8,506.5z M-129.3,508.9
			c-0.7,0.1-1.3-0.1-2-0.6c-0.5-0.4-0.8-0.8-0.9-1.3c-0.1-0.5,0.1-1.1,0.6-1.8c0.5-0.6,1-1.1,1.6-1.2c0.5-0.1,1,0,1.6,0.5
			c1.1,0.9,1,1.9,0.2,2.8c-0.1,0.1-0.3,0.3-0.4,0.4l-2.3-1.7c-0.5,0.6-0.6,1.1,0,1.6c0.4,0.3,0.9,0.4,1.4,0.4L-129.3,508.9z"/>
	</g>
	<g>
		<defs>
			<rect id="SVGID_217_" x="-302.3" y="63.5" width="515.9" height="725.7"/>
		</defs>
		<clipPath id="SVGID_218_">
			<use xlink:href="#SVGID_217_"  style="overflow:visible;"/>
		</clipPath>
		<path class="st108" d="M-125.1,507l-0.4,0.7c0.5-0.3,1.1-0.4,1.7,0c0.7,0.5,0.8,1.2,0.3,2.1l-1.7,2.7l-1-0.6l1.6-2.5
			c0.3-0.4,0.3-0.7,0-0.9c-0.5-0.3-1.3-0.1-2,1.1l-0.9,1.5l-1-0.6l2.5-3.9L-125.1,507z"/>
	</g>
	<g>
		<defs>
			<rect id="SVGID_219_" x="-302.3" y="63.5" width="515.9" height="725.7"/>
		</defs>
		<clipPath id="SVGID_220_">
			<use xlink:href="#SVGID_219_"  style="overflow:visible;"/>
		</clipPath>
		<path class="st109" d="M-121.4,514.5c-0.3-0.1-0.6-0.2-0.9-0.4c-1.1-0.6-1.1-1.2-0.5-2.2l0.9-1.7l-0.7-0.4l0.5-0.9l0.7,0.4
			l0.6-1.2l1.1,0.5l-0.7,1.2l1.1,0.6l-0.5,0.9l-1.1-0.6l-0.9,1.6c-0.3,0.5-0.3,0.7,0.1,1c0.2,0.1,0.4,0.2,0.6,0.3L-121.4,514.5z"/>
	</g>
	<g>
		<defs>
			<rect id="SVGID_221_" x="-302.3" y="63.5" width="515.9" height="725.7"/>
		</defs>
		<clipPath id="SVGID_222_">
			<use xlink:href="#SVGID_221_"  style="overflow:visible;"/>
		</clipPath>
		<path class="st110" d="M-115.7,517.1c-0.3,0-0.6-0.2-0.9-0.3c-1.1-0.5-1.2-1.1-0.7-2.2l0.8-1.8l-0.7-0.3l0.4-0.9l0.7,0.3l0.5-1.2
			l1.1,0.4l-0.6,1.3l1.2,0.5l-0.4,0.9l-1.2-0.5l-0.8,1.7c-0.2,0.5-0.3,0.7,0.2,0.9c0.2,0.1,0.4,0.2,0.6,0.2L-115.7,517.1z"/>
	</g>
	<g>
		<defs>
			<rect id="SVGID_223_" x="-302.3" y="63.5" width="515.9" height="725.7"/>
		</defs>
		<clipPath id="SVGID_224_">
			<use xlink:href="#SVGID_223_"  style="overflow:visible;"/>
		</clipPath>
		<path class="st111" d="M-111.9,518.4c-1,1.3-1.9,1.9-3,1.5c-0.3-0.1-0.6-0.3-0.7-0.5l0.7-0.8c0.1,0.1,0.2,0.2,0.4,0.2
			c0.5,0.2,0.9-0.1,1.4-0.8l-0.6-0.2l0.3-4.8l1.1,0.4l-0.4,4l2.3-3.3l1.1,0.4L-111.9,518.4z"/>
	</g>
	<g>
		<defs>
			<rect id="SVGID_225_" x="-302.3" y="63.5" width="515.9" height="725.7"/>
		</defs>
		<clipPath id="SVGID_226_">
			<use xlink:href="#SVGID_225_"  style="overflow:visible;"/>
		</clipPath>
		<path class="st112" d="M-107.4,516.7c-0.4,0.3-0.6,0.7-0.8,1.1c-0.1,0.4-0.1,0.7,0,0.9s0.3,0.4,0.6,0.5c0.6,0.2,0.9-0.1,1.3-1.2
			c0.3-1,0.2-1.4-0.2-1.5C-106.8,516.4-107.1,516.5-107.4,516.7 M-107.4,515.3l-0.2,0.7c0.4-0.4,1.1-0.5,1.6-0.3
			c0.4,0.1,0.7,0.4,0.9,0.7c0.3,0.6,0.2,1.3,0,2.1c-0.3,0.8-0.6,1.5-1.3,1.8c-0.4,0.2-0.8,0.2-1.3,0c-0.4-0.1-0.7-0.3-0.9-0.7
			l-0.7,2.4l-1.1-0.3l2-6.5L-107.4,515.3z"/>
	</g>
	<g>
		<defs>
			<rect id="SVGID_227_" x="-302.3" y="63.5" width="515.9" height="725.7"/>
		</defs>
		<clipPath id="SVGID_228_">
			<use xlink:href="#SVGID_227_"  style="overflow:visible;"/>
		</clipPath>
		<path class="st113" d="M-101.2,518.9c0.2-0.6,0.1-1-0.5-1.2c-0.7-0.2-1,0.2-1.2,0.8L-101.2,518.9z M-100.7,521.3
			c-0.6,0.4-1.3,0.5-2,0.3s-1-0.5-1.3-0.9c-0.3-0.5-0.3-1-0.1-1.9c0.2-0.7,0.5-1.4,1-1.8c0.4-0.3,0.9-0.4,1.7-0.2
			c1.4,0.4,1.6,1.4,1.3,2.5c0,0.2-0.1,0.4-0.2,0.6l-2.8-0.7c-0.2,0.8-0.2,1.2,0.6,1.4c0.5,0.1,1,0,1.4-0.2L-100.7,521.3z"/>
	</g>
	<g>
		<defs>
			<rect id="SVGID_229_" x="-302.3" y="63.5" width="515.9" height="725.7"/>
		</defs>
		<clipPath id="SVGID_230_">
			<use xlink:href="#SVGID_229_"  style="overflow:visible;"/>
		</clipPath>
		<path class="st114" d="M-96.5,519.3c-0.2-0.3-0.6-0.5-0.9-0.5c-0.4-0.1-0.6,0-0.7,0.3c-0.2,0.7,2.2,0.9,1.8,2.5
			c-0.2,1-1.2,1.2-2.2,1c-0.6-0.1-1.2-0.4-1.5-0.9l0.7-0.6c0.2,0.3,0.6,0.6,1,0.7s0.7,0.1,0.8-0.3c0.2-0.8-2.2-0.9-1.8-2.5
			c0.2-0.9,1.1-1.2,2.1-1c0.5,0.1,1.1,0.4,1.3,0.8L-96.5,519.3z"/>
	</g>
</g>
</svg>
