<?xml version="1.0" encoding="UTF-8" standalone="no"?>
<svg
   xmlns:dc="http://purl.org/dc/elements/1.1/"
   xmlns:cc="http://creativecommons.org/ns#"
   xmlns:rdf="http://www.w3.org/1999/02/22-rdf-syntax-ns#"
   xmlns:svg="http://www.w3.org/2000/svg"
   xmlns="http://www.w3.org/2000/svg"
   width="5000"
   height="5000"
   viewBox="0 0 5000 5000"
   id="svg11166"
   version="1.1">
  <title
     id="title4461">STS-124 Insignia</title>
  <defs
     id="defs11168">
    <clipPath
       id="clipPath4802"
       clipPathUnits="userSpaceOnUse">
      <path
         id="path4804"
         d="m 142.041,498.346 -16.883,-16.69 21.893,-21.893 7.178,0.007 21.886,21.886 -16.884,16.69 -17.19,0 z" />
    </clipPath>
  </defs>
  <metadata
     id="metadata11171">
    <rdf:RDF>
      <cc:Work
         rdf:about="">
        <dc:format>image/svg+xml</dc:format>
        <dc:type
           rdf:resource="http://purl.org/dc/dcmitype/StillImage" />
        <dc:title>STS-124 Insignia</dc:title>
      </cc:Work>
    </rdf:RDF>
  </metadata>
  <g
     transform="translate(0,3947.6378)"
     id="layer1">
    <g
       transform="matrix(76.172928,0,0,-76.172928,42.722366,-1447.6543)"
       id="g4774">
      <path
         id="path4776"
         style="fill:#ffffff;fill-opacity:1;fill-rule:nonzero;stroke:none"
         d="M 0,0 32.26,-32.26 64.518,0 32.26,32.259 0,0 Z" />
    </g>
    <g
       transform="matrix(76.172928,0,0,-76.172928,-8988.2487,35240.032)"
       id="g4778">
      <g
         id="g4780">
        <g
           transform="translate(183.077,481.6366)"
           id="g4786">
          <path
             id="path4788"
             style="fill:none;stroke:#000000;stroke-width:0.091;stroke-linecap:butt;stroke-linejoin:miter;stroke-miterlimit:4;stroke-dasharray:none;stroke-opacity:1"
             d="M 0,0 -32.259,-32.259 -64.518,0 -32.259,32.259 0,0 Z" />
        </g>
      </g>
    </g>
    <g
       transform="matrix(76.172928,0,0,-76.172928,3412.5821,-2895.2209)"
       id="g4790">
      <path
         id="path4792"
         style="fill:#000000;fill-opacity:1;fill-rule:evenodd;stroke:none"
         d="M 0,0 19.014,-19.014 -11.98,-50.008 -42.975,-19.014 -23.961,-0.001 -11.98,11.98 0,0 Z" />
    </g>
    <g
       transform="matrix(76.172928,0,0,-76.172928,2141.7438,-2720.4558)"
       id="g4794">
      <path
         id="path4796"
         style="fill:#fcb22d;fill-opacity:1;fill-rule:nonzero;stroke:none"
         d="M 0,0 17.942,-4.771 13.116,0 0,0 Z M -3.018,0 21.724,-24.967 30,-16.69 29.979,-16.67 -2.556,0 -3.018,0 Z m 5.183,-38.582 5.95,0.006 8.192,8.193 -20.044,29.892 5.902,-38.091 z m -7.647,37.19 -7.312,-23.462 7.522,-7.521 0.583,31.767 -0.793,-0.784 z m -15.475,-15.298 3.44,-3.441 10.176,16.901 -13.616,-13.46 z" />
    </g>
    <g
       transform="matrix(76.172928,0,0,-76.172928,-8988.2487,35240.032)"
       id="g4798">
      <g
         id="g4800"
         clip-path="url(#clipPath4802)">
        <g
           transform="translate(149.2711,503.8539)"
           id="g4806">
          <path
             id="path4808"
             style="fill:#fcb22d;fill-opacity:1;fill-rule:evenodd;stroke:none"
             d="m 0,0 c 0,-5.366 -4.35,-9.717 -9.716,-9.717 -5.367,0 -9.717,4.351 -9.717,9.717 0,5.367 4.35,9.717 9.717,9.717 C -4.35,9.717 0,5.367 0,0" />
        </g>
        <g
           transform="translate(137.6391,486.0055)"
           id="g4810">
          <path
             id="path4812"
             style="fill:#9093a4;fill-opacity:1;fill-rule:evenodd;stroke:none"
             d="m 0,0 8.016,0 0.729,-1.365 0,-2.632 L 8.016,-5.5 0,-5.5 0,0 Z" />
        </g>
        <g
           transform="translate(137.6391,486.0055)"
           id="g4814">
          <path
             id="path4816"
             style="fill:#d0d3da;fill-opacity:1;fill-rule:evenodd;stroke:none"
             d="M 0,0 8.016,0 8.648,-1.252 0,-1.255 0,0 Z" />
        </g>
        <g
           transform="translate(137.6391,484.4439)"
           id="g4818">
          <path
             id="path4820"
             style="fill:#d0d3da;fill-opacity:1;fill-rule:evenodd;stroke:none"
             d="m 0,0 8.688,0 0,-0.293 L 0,-0.281 0,0 Z" />
        </g>
        <g
           transform="translate(137.6391,483.8464)"
           id="g4822">
          <path
             id="path4824"
             style="fill:#d0d3da;fill-opacity:1;fill-rule:evenodd;stroke:none"
             d="m 0,0 8.688,0 0,-0.183 L 0,-0.176 0,0 Z" />
        </g>
        <g
           transform="translate(137.6391,482.3799)"
           id="g4826">
          <path
             id="path4828"
             style="fill:#d0d3da;fill-opacity:1;fill-rule:evenodd;stroke:none"
             d="m 0,0 8.688,0 0,-0.183 L 0,-0.176 0,0 Z" />
        </g>
        <path
           id="path4830"
           style="fill:#9093a4;fill-opacity:1;fill-rule:evenodd;stroke:none"
           d="m 118.777,492.698 62.26,0 0,-5.513 -62.26,0 0,5.513 z" />
        <path
           id="path4832"
           style="fill:#d0d3da;fill-opacity:1;fill-rule:evenodd;stroke:none"
           d="m 118.777,488.429 62.26,0 0,-0.273 -62.26,0 0,0.273 z" />
        <path
           id="path4834"
           style="fill:#d0d3da;fill-opacity:1;fill-rule:evenodd;stroke:none"
           d="m 118.777,492.698 62.26,0 0,-1.245 -62.26,0 0,1.245 z" />
        <g
           transform="translate(150.692,478.7893)"
           id="g4836">
          <path
             id="path4838"
             style="fill:#9093a4;fill-opacity:1;fill-rule:evenodd;stroke:none"
             d="m 0,0 c -2.381,0 -4.318,1.937 -4.318,4.318 0,2.381 1.937,4.317 4.318,4.317 2.381,0 4.318,-1.936 4.318,-4.317 C 4.318,1.937 2.381,0 0,0" />
        </g>
        <g
           transform="translate(150.692,487.698)"
           id="g4840">
          <path
             id="path4842"
             style="fill:#d0d3da;fill-opacity:1;fill-rule:nonzero;stroke:none"
             d="m 0,0 c -2.536,0 -4.591,-2.055 -4.591,-4.591 0,-2.536 2.055,-4.591 4.591,-4.591 2.535,0 4.591,2.055 4.591,4.591 C 4.591,-2.055 2.535,0 0,0 m 0,-0.547 c 2.23,0 4.044,-1.814 4.044,-4.044 0,-2.23 -1.814,-4.044 -4.044,-4.044 -2.23,0 -4.045,1.814 -4.045,4.044 0,2.23 1.815,4.044 4.045,4.044" />
        </g>
        <g
           transform="translate(143.1771,454.8457)"
           id="g4844">
          <path
             id="path4846"
             style="fill:#4c8cc9;fill-opacity:1;fill-rule:nonzero;stroke:none"
             d="m 0,0 c 0,0 2.314,5.1 10.84,8.899 8.527,3.799 12.79,2.221 12.79,2.221 L 18.255,5.84 11.397,-2.603 0,0 Z" />
        </g>
        <g
           transform="translate(151.6506,461.0902)"
           id="g4848">
          <path
             id="path4850"
             style="fill:#d0d3da;fill-opacity:1;fill-rule:nonzero;stroke:none"
             d="m 0,0 c -0.529,-0.287 -1.473,-1.146 -1.673,-1.349 -0.171,-0.106 0.149,0.205 0.206,0.288 -0.553,-0.548 -0.777,-1.149 0.705,0.143 0.375,0.324 0.925,0.708 1.012,0.721 -0.255,-0.199 -0.04,-0.083 -0.245,-0.252 0.549,0.427 -0.026,0.166 0.826,0.707 0,0 2.516,1.102 3.137,1.316 0.27,0.081 0.143,0.005 0.21,0.011 C 4.202,1.628 4.413,1.744 4.826,1.877 4.911,1.864 4.567,1.736 4.551,1.69 4.859,1.794 5.116,1.863 5.349,1.895 5.901,2.061 5.3,1.943 5.634,2.062 6.502,2.231 5.746,1.952 6.078,1.944 5.442,1.763 4.637,1.503 4.313,1.365 4.709,1.505 5.109,1.632 5.513,1.744 5.45,1.684 9.242,2.148 9.277,2.175 9.898,2.194 11.085,2.638 10.574,2.808 8.888,3.025 6.348,2.843 4.416,2.274 0.367,0.308 0.387,0.325 0,0" />
        </g>
        <g
           transform="translate(153.5252,459.6826)"
           id="g4852">
          <path
             id="path4854"
             style="fill:#d0d3da;fill-opacity:1;fill-rule:nonzero;stroke:none"
             d="M 0,0 C 0,0 0.342,0.171 0.334,0.201 0.55,0.373 0.735,0.485 0.905,0.54 0.899,0.639 1.134,0.818 1.34,0.923 2.357,1.371 3.468,1.822 4.519,1.977 4.677,1.986 3.243,2.104 3.176,2.17 L 3.211,2.096 C 3.137,2.142 2.63,1.934 2.77,2.114 2.732,2.083 2.704,2.031 2.606,2.01 L 2.566,2.08 C 2.433,2.017 2.284,1.954 2.229,1.983 2.298,2.025 2.311,2.066 2.325,2.107 1.737,1.911 2.292,2.55 1.796,2.348 L 1.781,1.669 1.676,1.567 1.52,1.569 C 1.423,1.326 0.834,1.261 0.606,1.006 0.506,0.928 0.302,0.944 0.11,0.796 L 0.166,0.737 C -0.044,0.708 -0.663,0.333 -0.916,0.358 -1.027,0.197 -0.89,0.357 -0.856,0.304 -1.094,0.025 -1.179,0.094 -1.358,0.011 -1.502,-0.163 -0.039,-0.154 0,0" />
        </g>
        <g
           transform="translate(159.1914,464.7721)"
           id="g4856">
          <path
             id="path4858"
             style="fill:#d0d3da;fill-opacity:1;fill-rule:nonzero;stroke:none"
             d="m 0,0 c -0.163,-0.111 -0.276,-0.117 -0.433,-0.196 l -0.116,0.045 c -0.163,-0.089 -0.053,-0.094 -0.164,-0.181 -0.174,-0.008 -0.489,-0.176 -0.565,-0.2 -0.063,0.017 0.048,0.074 0.066,0.105 -0.193,-0.1 -0.154,-0.172 -0.408,-0.261 l -0.011,0.02 c -0.57,-0.326 -1.356,-0.564 -2.012,-0.887 0.047,0.013 0.041,-0.007 0.064,-0.016 -0.725,-0.302 -1.478,-0.639 -2.03,-0.904 0.392,0.068 1.084,0.17 1.425,0.466 0.164,10e-4 0.359,0.166 0.447,0.11 0.567,0.183 0.754,0.392 1.294,0.59 0.081,0.013 0.055,-0.039 0.09,-0.068 l -0.417,-0.189 0.272,0.061 C -2.6,-1.58 -2.883,-1.652 -2.892,-1.734 c 0.346,0.217 0.966,0.362 1.261,0.575 -0.159,-0.035 -0.344,-0.124 -0.528,-0.181 -0.088,-0.002 -0.217,-0.028 -0.221,0.013 0.484,0.295 0.936,0.384 1.451,0.617 0.129,0.058 0.311,0.118 0.345,0.089 -0.082,-0.045 -0.006,-0.051 -0.072,-0.096 0.177,0.101 -0.026,0.142 0.249,0.227 l 0.01,-0.142 c 0.059,0.177 0.344,0.096 0.515,0.247 0.087,-0.028 -0.034,-0.104 -0.183,-0.161 0.177,0.038 0.169,0.119 0.307,0.166 L 0.147,-0.537 c 0.113,0.157 0.266,0.073 0.359,0.058 0.002,0.03 -0.1,0.093 0.087,0.141 0.083,0.008 0.631,0.677 0.043,0.572 L 0.633,0.203 C 0.375,0.209 0.136,0.063 -0.147,-0.008 L 0,0 Z" />
        </g>
        <g
           transform="translate(149.0931,459.5795)"
           id="g4860">
          <path
             id="path4862"
             style="fill:#d0d3da;fill-opacity:1;fill-rule:nonzero;stroke:none"
             d="M 0,0 C 0.037,0.215 0.298,0.343 0.414,0.531 L 0.461,0.439 c 0.017,0.163 0.316,0.22 0.312,0.395 L 0.809,0.808 0.914,1.041 C 1.001,1.084 1.052,0.934 1.037,0.975 1.197,1.116 1.339,1.205 1.479,1.232 1.438,1.366 1.617,1.521 1.767,1.638 2.563,2.063 3.18,2.748 3.881,3.161 3.988,3.206 4.116,3.383 4.268,3.489 4.069,3.478 3.639,3.46 3.484,3.493 L 2.735,3.248 c 0,0 -0.315,-0.223 -0.385,-0.255 L 0.471,1.82 c 0,0 -1.79,-1.265 -2.016,-1.536 C -1.888,0.064 -0.033,0.12 0,0" />
        </g>
        <g
           transform="translate(145.8608,458.4547)"
           id="g4864">
          <path
             id="path4866"
             style="fill:#d0d3da;fill-opacity:1;fill-rule:nonzero;stroke:none"
             d="m 0,0 c 0,0 3.596,3.383 7.562,5.258 3.967,1.875 9.524,2.562 9.524,2.562 0,0 -4.698,0.081 -9.563,-2.147 C 2.657,3.444 0,0 0,0" />
        </g>
        <g
           transform="translate(145.9064,458.4775)"
           id="g4868">
          <path
             id="path4870"
             style="fill:#006dc2;fill-opacity:1;fill-rule:nonzero;stroke:none"
             d="m 0,0 c 0,0 3.017,3.133 7.562,5.258 4.545,2.126 9.524,2.562 9.524,2.562 0,0 -5.571,-1.085 -9.434,-2.876 C 3.789,3.153 0,0 0,0" />
        </g>
      </g>
    </g>
    <path
       id="path4872"
       style="fill:#d0d3da;fill-opacity:1;fill-rule:evenodd;stroke:none"
       d="m 2242.0027,-2225.8497 494.4385,0 0,311.0897 -494.4385,0 0,-311.0897 z" />
    <path
       id="path4874"
       style="fill:#ffffff;fill-opacity:1;fill-rule:nonzero;stroke:none"
       d="m 2746.8767,-2236.2861 -515.234,0 0,331.8843 515.234,0 0,-331.8843 z m -20.8715,311.0897 -473.6434,0 0,-290.2169 473.6434,0 0,290.2169 z" />
    <g
       transform="matrix(76.172928,0,0,-76.172928,3446.4256,-1927.2464)"
       id="g4876">
      <path
         id="path4878"
         style="fill:none;stroke:#d0d3da;stroke-width:0.72899997;stroke-linecap:round;stroke-linejoin:round;stroke-miterlimit:4;stroke-dasharray:none;stroke-opacity:1"
         d="M 0,0 2.135,1.206 -3.6,7.921 -8.977,-1.855" />
    </g>
    <g
       transform="matrix(76.172928,0,0,-76.172928,-8988.2487,35240.032)"
       id="g4880">
      <g
         id="g4882">
        <g
           transform="translate(162.2987,489.8451)"
           id="g4888">
          <path
             id="path4890"
             style="fill:#ffffff;fill-opacity:1;fill-rule:evenodd;stroke:none"
             d="m 0,0 c 0.221,-0.305 5.174,-7.136 5.174,-7.136 l -5.656,-4.075 c 0,0 -4.773,6.583 -5.174,7.136 -0.401,0.553 0.245,2.321 1.807,3.446 C -2.287,0.496 -0.401,0.553 0,0" />
        </g>
        <g
           transform="translate(162.2987,489.8451)"
           id="g4892">
          <path
             id="path4894"
             style="fill:none;stroke:#d0d3da;stroke-width:0.36399999;stroke-linecap:butt;stroke-linejoin:miter;stroke-miterlimit:4;stroke-dasharray:none;stroke-opacity:1"
             d="m 0,0 c 0.221,-0.305 5.174,-7.136 5.174,-7.136 l -5.656,-4.075 c 0,0 -4.773,6.583 -5.174,7.136 -0.401,0.553 0.245,2.321 1.807,3.446 C -2.287,0.496 -0.401,0.553 0,0 Z" />
        </g>
        <g
           transform="translate(167.4731,482.7094)"
           id="g4896">
          <path
             id="path4898"
             style="fill:#d0d3da;fill-opacity:1;fill-rule:evenodd;stroke:none"
             d="m 0,0 c 0.401,-0.553 -0.54,-1.913 -2.102,-3.038 -1.562,-1.125 -3.153,-1.59 -3.554,-1.037 -0.401,0.553 0.541,1.913 2.102,3.038 C -1.991,0.089 -0.401,0.553 0,0" />
        </g>
        <g
           transform="translate(167.4731,482.7094)"
           id="g4900">
          <path
             id="path4902"
             style="fill:none;stroke:#d0d3da;stroke-width:0.36399999;stroke-linecap:butt;stroke-linejoin:miter;stroke-miterlimit:4;stroke-dasharray:none;stroke-opacity:1"
             d="m 0,0 c 0.401,-0.553 -0.54,-1.913 -2.102,-3.038 -1.562,-1.125 -3.153,-1.59 -3.554,-1.037 -0.401,0.553 0.541,1.913 2.102,3.038 C -1.991,0.089 -0.401,0.553 0,0 Z" />
        </g>
        <g
           transform="translate(162.5461,485.4715)"
           id="g4904">
          <path
             id="path4906"
             style="fill:#de0035;fill-opacity:1;fill-rule:nonzero;stroke:none"
             d="m 0,0 c 0,-0.795 -0.644,-1.439 -1.439,-1.439 -0.794,0 -1.438,0.644 -1.438,1.439 0,0.795 0.644,1.439 1.438,1.439 C -0.644,1.439 0,0.795 0,0" />
        </g>
        <g
           transform="translate(159.1526,471.3696)"
           id="g4908">
          <path
             id="path4910"
             style="fill:#000000;fill-opacity:1;fill-rule:nonzero;stroke:none"
             d="m 0,0 c -0.258,0.471 -3.931,4.207 -4.362,4.767 -0.43,0.559 -0.775,3.089 -0.947,3.971 -0.172,0.884 -1.406,8.592 -1.751,10.092 -0.343,1.501 -0.946,2.03 -1.427,2.03 -0.48,0 -1.083,-0.529 -1.427,-2.03 -0.345,-1.5 -1.579,-9.208 -1.751,-10.092 -0.172,-0.882 -0.516,-3.412 -0.947,-3.971 -0.43,-0.56 -4.103,-4.296 -4.362,-4.767 -0.257,-0.47 -0.516,-1.177 -0.516,-1.766 l 0,-1 6.342,-1.265 0,-0.824 0.287,-0.764 1.826,0 0.115,-1.148 c 0,0 0.254,-1.212 0.433,-1.212 0.18,0 0.434,1.212 0.434,1.212 l 0.114,1.148 1.826,0 0.287,0.764 0,0.824 6.343,1.265 0,1 C 0.517,-1.177 0.258,-0.47 0,0" />
        </g>
        <g
           transform="translate(159.1526,471.3696)"
           id="g4912">
          <path
             id="path4914"
             style="fill:none;stroke:#d0d3da;stroke-width:0.54699999;stroke-linecap:butt;stroke-linejoin:round;stroke-miterlimit:4;stroke-dasharray:none;stroke-opacity:1"
             d="m 0,0 c -0.258,0.471 -3.931,4.207 -4.362,4.767 -0.43,0.559 -0.775,3.089 -0.947,3.971 -0.172,0.884 -1.406,8.592 -1.751,10.092 -0.343,1.501 -0.946,2.03 -1.427,2.03 -0.48,0 -1.083,-0.529 -1.427,-2.03 -0.345,-1.5 -1.579,-9.208 -1.751,-10.092 -0.172,-0.882 -0.516,-3.412 -0.947,-3.971 -0.43,-0.56 -4.103,-4.296 -4.362,-4.767 -0.257,-0.47 -0.516,-1.177 -0.516,-1.766 l 0,-1 6.342,-1.265 0,-0.824 0.287,-0.764 1.826,0 0.115,-1.148 c 0,0 0.254,-1.212 0.433,-1.212 0.18,0 0.434,1.212 0.434,1.212 l 0.114,1.148 1.826,0 0.287,0.764 0,0.824 6.343,1.265 0,1 C 0.517,-1.177 0.258,-0.47 0,0 Z" />
        </g>
        <g
           transform="translate(133.0728,481.882)"
           id="g4916">
          <path
             id="path4918"
             style="fill:#ffffff;fill-opacity:1;fill-rule:evenodd;stroke:none"
             d="m 0,0 c 0,-0.101 -0.082,-0.182 -0.182,-0.182 -0.101,0 -0.182,0.081 -0.182,0.182 0,0.101 0.081,0.182 0.182,0.182 C -0.082,0.182 0,0.101 0,0" />
        </g>
        <g
           transform="translate(134.1683,481.7244)"
           id="g4920">
          <path
             id="path4922"
             style="fill:#ffffff;fill-opacity:1;fill-rule:evenodd;stroke:none"
             d="m 0,0 c 0,-0.101 -0.082,-0.182 -0.182,-0.182 -0.101,0 -0.182,0.081 -0.182,0.182 0,0.101 0.081,0.182 0.182,0.182 C -0.082,0.182 0,0.101 0,0" />
        </g>
        <g
           transform="translate(134.9516,484.5002)"
           id="g4924">
          <path
             id="path4926"
             style="fill:#ffffff;fill-opacity:1;fill-rule:evenodd;stroke:none"
             d="m 0,0 c 0,-0.161 -0.13,-0.291 -0.291,-0.291 -0.161,0 -0.292,0.13 -0.292,0.291 0,0.161 0.131,0.291 0.292,0.291 C -0.13,0.291 0,0.161 0,0" />
        </g>
        <g
           transform="translate(142.3471,476.5865)"
           id="g4928">
          <path
             id="path4930"
             style="fill:#ffffff;fill-opacity:1;fill-rule:evenodd;stroke:none"
             d="m 0,0 c 0,-0.126 -0.102,-0.228 -0.228,-0.228 -0.126,0 -0.227,0.102 -0.227,0.228 0,0.126 0.101,0.228 0.227,0.228 C -0.102,0.228 0,0.126 0,0" />
        </g>
        <g
           transform="translate(143.8956,474.537)"
           id="g4932">
          <path
             id="path4934"
             style="fill:#ffffff;fill-opacity:1;fill-rule:evenodd;stroke:none"
             d="m 0,0 c 0,-0.151 -0.122,-0.273 -0.273,-0.273 -0.151,0 -0.274,0.122 -0.274,0.273 0,0.151 0.123,0.273 0.274,0.273 C -0.122,0.273 0,0.151 0,0" />
        </g>
        <g
           transform="translate(144.4233,478.9574)"
           id="g4936">
          <path
             id="path4938"
             style="fill:#ffffff;fill-opacity:1;fill-rule:evenodd;stroke:none"
             d="m 0,0 c 0,-0.126 -0.102,-0.228 -0.228,-0.228 -0.125,0 -0.227,0.102 -0.227,0.228 0,0.126 0.102,0.228 0.227,0.228 C -0.102,0.228 0,0.126 0,0" />
        </g>
        <g
           transform="translate(145.9577,464.235)"
           id="g4940">
          <path
             id="path4942"
             style="fill:#ffffff;fill-opacity:1;fill-rule:evenodd;stroke:none"
             d="m 0,0 c 0,-0.151 -0.122,-0.273 -0.273,-0.273 -0.151,0 -0.274,0.122 -0.274,0.273 0,0.151 0.123,0.273 0.274,0.273 C -0.122,0.273 0,0.151 0,0" />
        </g>
        <g
           transform="translate(157.8893,476.6244)"
           id="g4944">
          <path
             id="path4946"
             style="fill:#ffffff;fill-opacity:1;fill-rule:evenodd;stroke:none"
             d="m 0,0 c 0,-0.126 -0.102,-0.228 -0.228,-0.228 -0.125,0 -0.227,0.102 -0.227,0.228 0,0.126 0.102,0.228 0.227,0.228 C -0.102,0.228 0,0.126 0,0" />
        </g>
        <g
           transform="translate(148.9517,496.762)"
           id="g4948">
          <path
             id="path4950"
             style="fill:#ffffff;fill-opacity:1;fill-rule:evenodd;stroke:none"
             d="m 0,0 c 0,-0.151 -0.122,-0.273 -0.273,-0.273 -0.151,0 -0.274,0.122 -0.274,0.273 0,0.151 0.123,0.273 0.274,0.273 C -0.122,0.273 0,0.151 0,0" />
        </g>
        <g
           transform="translate(154.1689,493.9666)"
           id="g4952">
          <path
             id="path4954"
             style="fill:#ffffff;fill-opacity:1;fill-rule:evenodd;stroke:none"
             d="m 0,0 c 0,-0.126 -0.102,-0.228 -0.228,-0.228 -0.125,0 -0.227,0.102 -0.227,0.228 0,0.126 0.102,0.228 0.227,0.228 C -0.102,0.228 0,0.126 0,0" />
        </g>
        <g
           transform="translate(170.8905,485.4151)"
           id="g4956">
          <path
             id="path4958"
             style="fill:#ffffff;fill-opacity:1;fill-rule:evenodd;stroke:none"
             d="m 0,0 c 0,-0.151 -0.122,-0.273 -0.273,-0.273 -0.151,0 -0.274,0.122 -0.274,0.273 0,0.151 0.123,0.273 0.274,0.273 C -0.122,0.273 0,0.151 0,0" />
        </g>
        <g
           transform="translate(172.475,484.6545)"
           id="g4960">
          <path
             id="path4962"
             style="fill:#ffffff;fill-opacity:1;fill-rule:evenodd;stroke:none"
             d="m 0,0 c 0,-0.126 -0.102,-0.228 -0.228,-0.228 -0.126,0 -0.227,0.102 -0.227,0.228 0,0.126 0.101,0.228 0.227,0.228 C -0.102,0.228 0,0.126 0,0" />
        </g>
        <g
           transform="translate(161.8883,475.1606)"
           id="g4964">
          <path
             id="path4966"
             style="fill:#ffffff;fill-opacity:1;fill-rule:evenodd;stroke:none"
             d="m 0,0 c 0,-0.151 -0.122,-0.273 -0.273,-0.273 -0.151,0 -0.274,0.122 -0.274,0.273 0,0.151 0.123,0.273 0.274,0.273 C -0.122,0.273 0,0.151 0,0" />
        </g>
        <g
           transform="translate(164.803,470.9707)"
           id="g4968">
          <path
             id="path4970"
             style="fill:#ffffff;fill-opacity:1;fill-rule:evenodd;stroke:none"
             d="m 0,0 c 0,-0.151 -0.122,-0.273 -0.273,-0.273 -0.151,0 -0.274,0.122 -0.274,0.273 0,0.151 0.123,0.273 0.274,0.273 C -0.122,0.273 0,0.151 0,0" />
        </g>
        <g
           transform="translate(162.1127,472.0777)"
           id="g4972">
          <path
             id="path4974"
             style="fill:#ffffff;fill-opacity:1;fill-rule:evenodd;stroke:none"
             d="m 0,0 c 0,-0.101 -0.081,-0.182 -0.182,-0.182 -0.101,0 -0.182,0.081 -0.182,0.182 0,0.101 0.081,0.182 0.182,0.182 C -0.081,0.182 0,0.101 0,0" />
        </g>
        <g
           transform="translate(157.8151,479.0828)"
           id="g4976">
          <path
             id="path4978"
             style="fill:#ffffff;fill-opacity:1;fill-rule:evenodd;stroke:none"
             d="m 0,0 c 0,-0.126 -0.102,-0.228 -0.228,-0.228 -0.125,0 -0.227,0.102 -0.227,0.228 0,0.126 0.102,0.228 0.227,0.228 C -0.102,0.228 0,0.126 0,0" />
        </g>
        <g
           transform="translate(142.2677,493.3065)"
           id="g4980">
          <path
             id="path4982"
             style="fill:#ffffff;fill-opacity:1;fill-rule:evenodd;stroke:none"
             d="m 0,0 c 0,-0.075 -0.061,-0.137 -0.137,-0.137 -0.075,0 -0.136,0.062 -0.136,0.137 0,0.075 0.061,0.137 0.136,0.137 C -0.061,0.137 0,0.075 0,0" />
        </g>
        <g
           transform="translate(143.2305,486.4962)"
           id="g4984">
          <path
             id="path4986"
             style="fill:#ffffff;fill-opacity:1;fill-rule:evenodd;stroke:none"
             d="m 0,0 c 0,-0.101 -0.082,-0.182 -0.182,-0.182 -0.101,0 -0.182,0.081 -0.182,0.182 0,0.101 0.081,0.182 0.182,0.182 C -0.082,0.182 0,0.101 0,0" />
        </g>
        <g
           transform="translate(132.1514,481.0096)"
           id="g4988">
          <path
             id="path4990"
             style="fill:#ffffff;fill-opacity:1;fill-rule:evenodd;stroke:none"
             d="m 0,0 c 0,-0.101 -0.082,-0.182 -0.182,-0.182 -0.101,0 -0.182,0.081 -0.182,0.182 0,0.101 0.081,0.182 0.182,0.182 C -0.082,0.182 0,0.101 0,0" />
        </g>
        <g
           transform="translate(126.3126,484.1415)"
           id="g4992">
          <path
             id="path4994"
             style="fill:#ffffff;fill-opacity:1;fill-rule:nonzero;stroke:none"
             d="m 0,0 c 0.039,-0.254 -0.047,-0.451 -0.182,-0.586 -0.432,-0.432 -1.027,-0.347 -1.452,0.078 -0.437,0.436 -0.522,1.031 -0.09,1.464 0.286,0.286 0.742,0.371 1.109,0.07 L -0.908,0.732 C -1.107,0.86 -1.307,0.829 -1.452,0.684 -1.727,0.408 -1.584,0.057 -1.326,-0.201 c 0.245,-0.245 0.596,-0.389 0.872,-0.113 0.2,0.2 0.202,0.429 0.016,0.651 L -0.748,0.027 -0.989,0.268 -0.402,0.856 0.394,0.06 0.198,-0.136 0,0 Z" />
        </g>
        <g
           transform="translate(126.7388,485.3717)"
           id="g4996">
          <path
             id="path4998"
             style="fill:#ffffff;fill-opacity:1;fill-rule:nonzero;stroke:none"
             d="M 0,0 0.362,0.362 -0.354,0.726 -0.358,0.722 0,0 Z M -0.873,0.932 -0.558,1.247 1.436,0.298 1.117,-0.021 0.684,0.201 0.161,-0.322 0.379,-0.759 0.068,-1.07 -0.873,0.932 Z" />
        </g>
        <g
           transform="translate(127.7981,486.9048)"
           id="g5000">
          <path
             id="path5002"
             style="fill:#ffffff;fill-opacity:1;fill-rule:nonzero;stroke:none"
             d="M 0,0 0.337,0.337 C 0.474,0.474 0.486,0.61 0.338,0.758 0.196,0.901 0.06,0.888 -0.078,0.751 L -0.414,0.414 0,0 Z m -0.973,0.358 0.754,0.754 C 0.031,1.363 0.373,1.338 0.596,1.115 0.769,0.942 0.832,0.746 0.744,0.525 L 0.748,0.521 C 0.94,0.631 1.138,0.519 1.295,0.38 1.394,0.293 1.565,0.118 1.703,0.091 L 1.395,-0.217 C 1.265,-0.161 1.127,-0.015 0.994,0.087 0.818,0.22 0.693,0.231 0.538,0.077 L 0.231,-0.231 0.806,-0.806 0.498,-1.113 -0.973,0.358 Z" />
        </g>
        <g
           transform="translate(129.4937,488.1265)"
           id="g5004">
          <path
             id="path5006"
             style="fill:#ffffff;fill-opacity:1;fill-rule:nonzero;stroke:none"
             d="M 0,0 0.362,0.362 -0.354,0.726 -0.358,0.722 0,0 Z M -0.873,0.932 -0.558,1.247 1.436,0.299 1.117,-0.021 0.684,0.201 0.161,-0.322 0.379,-0.759 0.068,-1.07 -0.873,0.932 Z" />
        </g>
        <g
           transform="translate(129.5799,490.018)"
           id="g5008">
          <path
             id="path5010"
             style="fill:#ffffff;fill-opacity:1;fill-rule:nonzero;stroke:none"
             d="M 0,0 0.305,0.305 1.876,-0.098 1.88,-0.094 0.893,0.893 1.181,1.181 2.652,-0.291 2.345,-0.598 0.778,-0.195 0.774,-0.199 1.759,-1.184 1.472,-1.472 0,0 Z" />
        </g>
        <g
           transform="translate(132.6637,493.1018)"
           id="g5012">
          <path
             id="path5014"
             style="fill:#ffffff;fill-opacity:1;fill-rule:nonzero;stroke:none"
             d="M 0,0 0.307,0.307 0.917,-0.303 0.854,0.854 1.237,1.237 1.272,0.11 2.762,-0.181 2.376,-0.567 1.294,-0.326 1.305,-0.69 1.779,-1.164 1.472,-1.472 0,0 Z" />
        </g>
        <g
           transform="translate(134.0773,494.5156)"
           id="g5016">
          <path
             id="path5018"
             style="fill:#ffffff;fill-opacity:1;fill-rule:nonzero;stroke:none"
             d="M 0,0 1.046,1.045 1.318,0.773 0.58,0.035 0.895,-0.28 1.572,0.397 1.824,0.146 1.146,-0.531 1.507,-0.892 2.261,-0.138 2.533,-0.41 1.472,-1.472 0,0 Z" />
        </g>
        <g
           transform="translate(135.3461,495.7844)"
           id="g5020">
          <path
             id="path5022"
             style="fill:#ffffff;fill-opacity:1;fill-rule:nonzero;stroke:none"
             d="m 0,0 0.307,0.307 1.2,-1.199 0.681,0.681 L 2.46,-0.483 1.472,-1.472 0,0 Z" />
        </g>
        <g
           transform="translate(136.4583,496.8965)"
           id="g5024">
          <path
             id="path5026"
             style="fill:#ffffff;fill-opacity:1;fill-rule:nonzero;stroke:none"
             d="m 0,0 0.307,0.307 1.2,-1.199 0.681,0.681 L 2.46,-0.483 1.472,-1.472 0,0 Z" />
        </g>
        <g
           transform="translate(138.7334,497.3744)"
           id="g5028">
          <path
             id="path5030"
             style="fill:#ffffff;fill-opacity:1;fill-rule:nonzero;stroke:none"
             d="M 0,0 -1.413,0.384 -1.067,0.73 -0.159,0.476 -0.415,1.382 -0.072,1.725 0.316,0.299 0.88,-0.266 0.573,-0.573 0,0 Z" />
        </g>
        <g
           transform="translate(162.9822,498.9952)"
           id="g5032">
          <path
             id="path5034"
             style="fill:#ffffff;fill-opacity:1;fill-rule:nonzero;stroke:none"
             d="m 0,0 0.307,-0.307 -0.564,-0.565 0.566,-0.566 0.564,0.565 0.308,-0.308 -1.472,-1.471 -0.307,0.307 0.635,0.635 -0.566,0.566 -0.635,-0.635 -0.308,0.307 L 0,0 Z" />
        </g>
        <g
           transform="translate(163.8829,496.2892)"
           id="g5036">
          <path
             id="path5038"
             style="fill:#ffffff;fill-opacity:1;fill-rule:nonzero;stroke:none"
             d="M 0,0 0.362,-0.362 0.726,0.354 0.722,0.358 0,0 Z m 0.932,0.873 0.315,-0.315 -0.949,-1.994 -0.319,0.319 0.222,0.433 -0.522,0.523 -0.438,-0.218 -0.311,0.311 2.002,0.941 z" />
        </g>
        <g
           transform="translate(165.7744,496.203)"
           id="g5040">
          <path
             id="path5042"
             style="fill:#ffffff;fill-opacity:1;fill-rule:nonzero;stroke:none"
             d="m 0,0 0.433,-0.433 -0.685,-1.339 0.004,-0.004 1.321,0.703 0.433,-0.433 -1.472,-1.471 -0.288,0.287 1.043,1.043 -0.004,0.004 -1.385,-0.7 -0.237,0.237 0.69,1.375 -0.004,0.004 -1.033,-1.032 -0.288,0.287 L 0,0 Z" />
        </g>
        <g
           transform="translate(169.1832,492.7943)"
           id="g5044">
          <path
             id="path5046"
             style="fill:#ffffff;fill-opacity:1;fill-rule:nonzero;stroke:none"
             d="m 0,0 0.306,-0.306 -0.404,-1.57 0.004,-0.004 0.987,0.987 0.288,-0.288 -1.472,-1.471 -0.307,0.307 0.403,1.567 -0.003,0.004 -0.986,-0.985 -0.288,0.287 L 0,0 Z" />
        </g>
        <g
           transform="translate(170.0977,490.0825)"
           id="g5048">
          <path
             id="path5050"
             style="fill:#ffffff;fill-opacity:1;fill-rule:nonzero;stroke:none"
             d="M 0,0 0.384,1.414 0.73,1.067 0.476,0.159 1.382,0.415 1.725,0.073 0.299,-0.315 -0.265,-0.88 -0.573,-0.573 0,0 Z" />
        </g>
        <g
           transform="translate(171.6518,489.1343)"
           id="g5052">
          <path
             id="path5054"
             style="fill:#ffffff;fill-opacity:1;fill-rule:nonzero;stroke:none"
             d="m 0,0 0.311,-0.311 c 0.108,-0.108 0.24,-0.137 0.364,-0.013 0.14,0.14 0.067,0.271 -0.043,0.38 L 0.344,0.344 0,0 Z m -0.624,-0.624 0.329,-0.329 c 0.121,-0.122 0.268,-0.186 0.42,-0.034 0.151,0.151 0.121,0.301 -0.011,0.432 L -0.22,-0.22 -0.624,-0.624 Z M 0.288,0.903 0.946,0.245 C 1.213,-0.021 1.302,-0.292 1.028,-0.566 0.884,-0.71 0.714,-0.743 0.531,-0.683 0.65,-0.905 0.598,-1.129 0.414,-1.313 0.115,-1.612 -0.253,-1.498 -0.506,-1.246 l -0.677,0.677 1.471,1.472 z" />
        </g>
        <g
           transform="translate(173.3186,488.659)"
           id="g5056">
          <path
             id="path5058"
             style="fill:#ffffff;fill-opacity:1;fill-rule:nonzero;stroke:none"
             d="M 0,0 1.045,-1.046 0.774,-1.318 0.035,-0.579 -0.28,-0.895 0.397,-1.572 0.146,-1.824 -0.531,-1.146 -0.892,-1.507 -0.138,-2.261 -0.41,-2.533 -1.472,-1.472 0,0 Z" />
        </g>
        <g
           transform="translate(174.2291,486.417)"
           id="g5060">
          <path
             id="path5062"
             style="fill:#ffffff;fill-opacity:1;fill-rule:nonzero;stroke:none"
             d="m 0,0 0.337,-0.337 c 0.137,-0.137 0.273,-0.149 0.421,-0.001 0.143,0.142 0.13,0.279 -0.007,0.416 L 0.414,0.414 0,0 Z M 0.358,0.973 1.112,0.219 C 1.363,-0.031 1.338,-0.373 1.115,-0.596 0.942,-0.769 0.745,-0.832 0.525,-0.744 L 0.521,-0.748 C 0.631,-0.94 0.519,-1.137 0.38,-1.295 0.293,-1.394 0.118,-1.565 0.091,-1.703 l -0.308,0.308 c 0.056,0.13 0.202,0.268 0.304,0.401 0.133,0.176 0.144,0.301 -0.01,0.456 l -0.308,0.307 -0.575,-0.575 -0.308,0.308 1.472,1.471 z" />
        </g>
        <g
           transform="translate(175.7066,483.6617)"
           id="g5064">
          <path
             id="path5066"
             style="fill:#ffffff;fill-opacity:1;fill-rule:nonzero;stroke:none"
             d="M 0,0 C -0.254,-0.039 -0.451,0.047 -0.585,0.182 -1.018,0.614 -0.933,1.209 -0.508,1.634 -0.072,2.07 0.523,2.156 0.956,1.723 1.242,1.438 1.327,0.982 1.026,0.614 L 0.732,0.908 C 0.86,1.106 0.829,1.306 0.684,1.451 0.408,1.728 0.057,1.584 -0.201,1.326 -0.446,1.081 -0.59,0.73 -0.314,0.454 -0.114,0.254 0.115,0.252 0.337,0.438 L 0.027,0.748 0.269,0.989 0.856,0.401 0.06,-0.394 -0.135,-0.199 0,0 Z" />
        </g>
        <g
           transform="translate(125.0774,480.4689)"
           id="g5068">
          <path
             id="path5070"
             style="fill:#ffffff;fill-opacity:1;fill-rule:nonzero;stroke:none"
             d="M 0,0 0.983,-0.983 0.711,-1.255 0.035,-0.579 -0.305,-0.919 0.281,-1.505 0.029,-1.757 -0.556,-1.171 -1.164,-1.779 -1.472,-1.472 0,0 Z" />
        </g>
        <g
           transform="translate(125.7185,477.3587)"
           id="g5072">
          <path
             id="path5074"
             style="fill:#ffffff;fill-opacity:1;fill-rule:nonzero;stroke:none"
             d="M 0,0 C 0.276,-0.276 0.627,-0.133 0.873,0.113 1.13,0.37 1.274,0.721 0.998,0.998 0.722,1.274 0.37,1.13 0.113,0.873 -0.133,0.627 -0.276,0.276 0,0 M 1.27,1.27 C 1.702,0.837 1.617,0.242 1.18,-0.195 0.755,-0.619 0.161,-0.705 -0.272,-0.272 -0.705,0.16 -0.619,0.755 -0.195,1.18 0.242,1.617 0.837,1.702 1.27,1.27" />
        </g>
        <g
           transform="translate(127.1644,476.4158)"
           id="g5076">
          <path
             id="path5078"
             style="fill:#ffffff;fill-opacity:1;fill-rule:nonzero;stroke:none"
             d="M 0,0 C -0.196,-0.196 -0.127,-0.417 0.037,-0.581 0.145,-0.689 0.342,-0.821 0.493,-0.67 0.652,-0.512 0.469,-0.275 0.321,-0.012 0.171,0.253 0.046,0.547 0.322,0.823 0.623,1.125 1.038,0.998 1.29,0.746 1.582,0.454 1.716,0.052 1.376,-0.288 L 1.079,0.009 C 1.246,0.197 1.172,0.361 1.025,0.508 0.927,0.606 0.77,0.676 0.647,0.553 0.533,0.439 0.586,0.359 0.841,-0.087 c 0.075,-0.129 0.321,-0.51 -0.013,-0.844 -0.27,-0.27 -0.674,-0.27 -1.054,0.11 -0.309,0.309 -0.438,0.76 -0.072,1.119 L 0,0 Z" />
        </g>
        <g
           transform="translate(128.5232,475.0569)"
           id="g5080">
          <path
             id="path5082"
             style="fill:#ffffff;fill-opacity:1;fill-rule:nonzero;stroke:none"
             d="M 0,0 C -0.196,-0.196 -0.127,-0.417 0.037,-0.581 0.145,-0.689 0.342,-0.821 0.493,-0.67 0.652,-0.512 0.469,-0.275 0.321,-0.012 0.171,0.253 0.046,0.547 0.322,0.823 0.623,1.125 1.038,0.999 1.29,0.746 1.582,0.454 1.716,0.052 1.376,-0.288 L 1.079,0.009 C 1.246,0.197 1.172,0.361 1.025,0.508 0.927,0.606 0.77,0.676 0.647,0.553 0.533,0.439 0.585,0.359 0.841,-0.087 c 0.075,-0.128 0.32,-0.51 -0.013,-0.844 -0.27,-0.27 -0.674,-0.27 -1.054,0.11 -0.309,0.309 -0.438,0.76 -0.072,1.119 L 0,0 Z" />
        </g>
        <g
           transform="translate(130.9271,472.7889)"
           id="g5084">
          <path
             id="path5086"
             style="fill:#ffffff;fill-opacity:1;fill-rule:nonzero;stroke:none"
             d="M 0,0 C -0.398,-0.398 -0.815,-0.368 -1.189,0.006 -1.565,0.382 -1.592,0.793 -1.192,1.193 L -0.277,2.108 0.03,1.8 -0.885,0.885 c -0.161,-0.161 -0.28,-0.359 -0.032,-0.607 0.22,-0.219 0.391,-0.189 0.609,0.03 L 0.608,1.223 0.915,0.915 0,0 Z" />
        </g>
        <g
           transform="translate(132.1947,473.3517)"
           id="g5088">
          <path
             id="path5090"
             style="fill:#ffffff;fill-opacity:1;fill-rule:nonzero;stroke:none"
             d="m 0,0 0.433,-0.433 -0.685,-1.339 0.004,-0.004 1.321,0.703 0.433,-0.433 -1.472,-1.471 -0.288,0.288 1.043,1.042 -0.004,0.004 -1.385,-0.7 -0.237,0.237 0.69,1.375 -0.004,0.004 -1.033,-1.032 -0.288,0.287 L 0,0 Z" />
        </g>
        <g
           transform="translate(135.6915,469.8549)"
           id="g5092">
          <path
             id="path5094"
             style="fill:#ffffff;fill-opacity:1;fill-rule:nonzero;stroke:none"
             d="m 0,0 0.307,-0.307 -0.564,-0.565 0.566,-0.566 0.564,0.564 0.308,-0.307 -1.472,-1.471 -0.307,0.307 0.635,0.635 -0.566,0.566 -0.635,-0.635 -0.308,0.307 L 0,0 Z" />
        </g>
        <g
           transform="translate(136.5344,466.5426)"
           id="g5096">
          <path
             id="path5098"
             style="fill:#ffffff;fill-opacity:1;fill-rule:nonzero;stroke:none"
             d="M 0,0 C 0.276,-0.276 0.627,-0.132 0.872,0.113 1.13,0.371 1.274,0.722 0.998,0.998 0.721,1.274 0.37,1.13 0.113,0.873 -0.133,0.627 -0.276,0.276 0,0 M 1.27,1.27 C 1.702,0.837 1.617,0.242 1.18,-0.195 0.755,-0.619 0.161,-0.705 -0.272,-0.272 -0.705,0.161 -0.619,0.756 -0.195,1.18 0.242,1.617 0.837,1.703 1.27,1.27" />
        </g>
        <g
           transform="translate(137.8919,465.688)"
           id="g5100">
          <path
             id="path5102"
             style="fill:#ffffff;fill-opacity:1;fill-rule:nonzero;stroke:none"
             d="M 0,0 C -0.196,-0.196 -0.127,-0.417 0.038,-0.581 0.145,-0.689 0.342,-0.82 0.493,-0.67 0.652,-0.511 0.469,-0.275 0.321,-0.012 0.171,0.253 0.046,0.547 0.322,0.824 0.623,1.125 1.038,0.998 1.29,0.746 1.582,0.454 1.716,0.052 1.376,-0.288 L 1.079,0.01 C 1.246,0.197 1.172,0.361 1.025,0.508 0.927,0.606 0.77,0.676 0.647,0.553 0.534,0.439 0.586,0.359 0.841,-0.087 c 0.075,-0.129 0.321,-0.51 -0.013,-0.844 -0.27,-0.27 -0.674,-0.27 -1.054,0.11 -0.309,0.309 -0.438,0.76 -0.071,1.119 L 0,0 Z" />
        </g>
        <g
           transform="translate(139.9362,465.6101)"
           id="g5104">
          <path
             id="path5106"
             style="fill:#ffffff;fill-opacity:1;fill-rule:nonzero;stroke:none"
             d="m 0,0 0.307,-0.307 -0.564,-0.565 0.566,-0.566 0.564,0.564 0.308,-0.307 -1.472,-1.471 -0.307,0.307 0.635,0.635 -0.566,0.566 -0.635,-0.635 -0.308,0.307 L 0,0 Z" />
        </g>
        <g
           transform="translate(141.3871,464.1591)"
           id="g5108">
          <path
             id="path5110"
             style="fill:#ffffff;fill-opacity:1;fill-rule:nonzero;stroke:none"
             d="M 0,0 0.308,-0.307 -1.164,-1.779 -1.472,-1.472 0,0 Z" />
        </g>
        <g
           transform="translate(141.0726,462.0745)"
           id="g5112">
          <path
             id="path5114"
             style="fill:#ffffff;fill-opacity:1;fill-rule:nonzero;stroke:none"
             d="m 0,0 0.274,-0.274 c 0.178,-0.178 0.464,-0.233 0.79,0.093 0.296,0.296 0.388,0.584 0.083,0.889 L 0.928,0.928 0,0 Z M 0.892,1.507 1.495,0.904 C 1.857,0.542 1.89,0.031 1.402,-0.458 0.975,-0.884 0.45,-0.994 0.023,-0.567 l -0.602,0.602 1.471,1.472 z" />
        </g>
        <g
           transform="translate(143.4155,462.1308)"
           id="g5116">
          <path
             id="path5118"
             style="fill:#ffffff;fill-opacity:1;fill-rule:nonzero;stroke:none"
             d="M 0,0 1.046,-1.046 0.774,-1.318 0.035,-0.579 -0.28,-0.895 0.397,-1.572 0.146,-1.824 -0.531,-1.146 -0.892,-1.507 -0.138,-2.261 -0.41,-2.533 -1.472,-1.472 0,0 Z" />
        </g>
        <g
           transform="translate(161.908,464.9565)"
           id="g5120">
          <path
             id="path5122"
             style="fill:#ffffff;fill-opacity:1;fill-rule:nonzero;stroke:none"
             d="m 0,0 c -0.167,0.126 -0.418,0.097 -0.579,-0.064 -0.291,-0.29 -0.153,-0.647 0.105,-0.905 0.245,-0.245 0.602,-0.383 0.892,-0.092 0.198,0.198 0.174,0.445 0.005,0.663 l 0.313,0.314 c 0.334,-0.4 0.315,-0.889 -0.045,-1.249 -0.456,-0.456 -1.064,-0.384 -1.489,0.041 -0.436,0.437 -0.509,1.045 -0.053,1.5 0.323,0.324 0.785,0.406 1.165,0.105 L 0,0 Z" />
        </g>
        <g
           transform="translate(161.9595,465.9974)"
           id="g5124">
          <path
             id="path5126"
             style="fill:#ffffff;fill-opacity:1;fill-rule:nonzero;stroke:none"
             d="M 0,0 0.324,0.324 0.888,-0.241 1.484,0.354 0.919,0.919 1.243,1.243 2.714,-0.229 2.391,-0.553 1.756,0.082 1.16,-0.513 1.795,-1.148 1.472,-1.472 0,0 Z" />
        </g>
        <g
           transform="translate(164.7604,466.993)"
           id="g5128">
          <path
             id="path5130"
             style="fill:#ffffff;fill-opacity:1;fill-rule:nonzero;stroke:none"
             d="M 0,0 0.381,0.381 -0.344,0.736 -0.348,0.731 0,0 Z M -0.872,0.933 -0.54,1.265 1.482,0.344 1.146,0.008 0.707,0.224 0.157,-0.326 0.369,-0.769 0.041,-1.097 -0.872,0.933 Z" />
        </g>
        <g
           transform="translate(164.8987,468.9363)"
           id="g5132">
          <path
             id="path5134"
             style="fill:#ffffff;fill-opacity:1;fill-rule:nonzero;stroke:none"
             d="M 0,0 0.456,0.456 1.812,-0.212 1.816,-0.208 1.129,1.129 1.585,1.585 3.056,0.113 2.753,-0.19 1.711,0.853 1.707,0.849 2.389,-0.554 2.139,-0.804 0.746,-0.132 0.742,-0.136 1.775,-1.169 1.472,-1.472 0,0 Z" />
        </g>
        <g
           transform="translate(166.7679,470.8056)"
           id="g5136">
          <path
             id="path5138"
             style="fill:#ffffff;fill-opacity:1;fill-rule:nonzero;stroke:none"
             d="M 0,0 0.324,0.324 1.795,-1.148 1.472,-1.472 0,0 Z" />
        </g>
        <g
           transform="translate(167.9737,471.4673)"
           id="g5140">
          <path
             id="path5142"
             style="fill:#ffffff;fill-opacity:1;fill-rule:nonzero;stroke:none"
             d="M 0,0 -0.441,-0.441 -0.713,-0.169 0.493,1.037 0.765,0.765 0.323,0.324 1.523,-0.876 1.199,-1.2 0,0 Z" />
        </g>
        <g
           transform="translate(170.5291,472.0977)"
           id="g5144">
          <path
             id="path5146"
             style="fill:#ffffff;fill-opacity:1;fill-rule:nonzero;stroke:none"
             d="M 0,0 C 0.291,0.291 0.153,0.647 -0.093,0.893 -0.35,1.15 -0.707,1.288 -0.997,0.998 -1.288,0.707 -1.15,0.35 -0.892,0.093 -0.647,-0.152 -0.29,-0.291 0,0 M -1.27,1.27 C -0.814,1.725 -0.206,1.653 0.231,1.216 0.656,0.792 0.728,0.183 0.272,-0.272 -0.183,-0.727 -0.791,-0.655 -1.216,-0.231 -1.653,0.206 -1.725,0.814 -1.27,1.27" />
        </g>
        <g
           transform="translate(170.2387,474.2763)"
           id="g5148">
          <path
             id="path5150"
             style="fill:#ffffff;fill-opacity:1;fill-rule:nonzero;stroke:none"
             d="M 0,0 1.035,1.035 1.307,0.763 0.596,0.052 0.936,-0.288 1.552,0.328 1.803,0.076 1.187,-0.54 1.795,-1.148 1.472,-1.472 0,0 Z" />
        </g>
        <g
           transform="translate(171.4607,475.4985)"
           id="g5152">
          <path
             id="path5154"
             style="fill:#ffffff;fill-opacity:1;fill-rule:nonzero;stroke:none"
             d="M 0,0 1.035,1.035 1.307,0.763 0.596,0.052 0.936,-0.289 1.552,0.328 1.804,0.076 1.187,-0.54 1.795,-1.148 1.472,-1.472 0,0 Z" />
        </g>
        <g
           transform="translate(146.339,458.3522)"
           id="g5156">
          <path
             id="path5158"
             style="fill:#fcb22d;fill-opacity:1;fill-rule:nonzero;stroke:none"
             d="m 0,0 c 0.106,-0.011 0.189,-0.014 0.35,-0.014 0.277,0 0.474,0.011 0.751,0.038 C 1.09,0.051 1.09,0.051 1.06,0.113 0.97,0.312 0.918,0.418 0.915,0.425 L 1.37,0.483 C 1.385,0.397 1.421,0.294 1.52,0.068 1.83,0.106 2.252,0.195 2.503,0.274 L 2.54,-0.089 C 2.503,-0.096 2.503,-0.096 2.416,-0.113 2.172,-0.168 1.767,-0.244 1.654,-0.257 c 0.059,-0.127 0.081,-0.171 0.143,-0.281 0.313,0.062 0.481,0.096 0.503,0.099 0.207,0.048 0.251,0.062 0.346,0.1 L 2.682,-0.713 C 2.613,-0.723 2.536,-0.737 2.453,-0.757 2.303,-0.791 2.183,-0.816 2.096,-0.833 2.004,-0.85 2.004,-0.85 1.961,-0.86 2.15,-1.155 2.208,-1.227 2.449,-1.487 L 2.128,-1.703 C 1.866,-1.6 1.647,-1.562 1.29,-1.562 1.013,-1.562 0.802,-1.597 0.678,-1.658 0.576,-1.713 0.521,-1.785 0.521,-1.867 c 0,-0.082 0.062,-0.161 0.157,-0.199 0.116,-0.048 0.31,-0.075 0.521,-0.075 0.379,0 0.893,0.103 1.122,0.222 L 2.387,-2.34 C 2.318,-2.35 2.318,-2.35 2.15,-2.391 1.84,-2.47 1.538,-2.508 1.217,-2.508 c -0.419,0 -0.685,0.052 -0.889,0.168 -0.175,0.103 -0.28,0.278 -0.28,0.47 0,0.184 0.109,0.356 0.306,0.475 0.189,0.114 0.481,0.172 0.849,0.172 0.222,0 0.433,-0.024 0.63,-0.072 C 1.775,-1.243 1.706,-1.148 1.552,-0.911 1.166,-0.966 0.933,-0.98 0.142,-1.004 0.08,-1.007 0.055,-1.007 -0.007,-1.014 l -0.015,0.373 c 0.106,-0.013 0.128,-0.013 0.376,-0.013 0.382,0 0.685,0.02 1.031,0.064 C 1.363,-0.548 1.348,-0.528 1.319,-0.463 1.283,-0.391 1.272,-0.37 1.243,-0.308 0.951,-0.339 0.689,-0.353 0.266,-0.357 0.113,-0.357 0.095,-0.36 0.018,-0.363 L 0,0 Z" />
        </g>
        <g
           transform="translate(152.5669,458.4686)"
           id="g5160">
          <path
             id="path5162"
             style="fill:#fcb22d;fill-opacity:1;fill-rule:nonzero;stroke:none"
             d="M 0,0 C -0.062,0.171 -0.139,0.322 -0.233,0.466 L 0.04,0.538 C 0.149,0.377 0.219,0.25 0.281,0.082 L 0,0 Z m -1.359,-1.829 c -0.201,0 -0.343,-0.089 -0.343,-0.216 0,-0.127 0.124,-0.206 0.335,-0.206 0.234,0 0.339,0.086 0.339,0.274 0,0.028 -0.007,0.1 -0.007,0.1 -0.135,0.037 -0.2,0.048 -0.324,0.048 m -0.685,1.932 c 0.138,-0.028 0.357,-0.041 0.645,-0.041 0.295,0 0.659,0.02 0.893,0.051 -0.063,0.12 -0.088,0.168 -0.154,0.264 l 0.288,0.068 C -0.255,0.277 -0.2,0.164 -0.131,-0.031 l -0.16,-0.045 0.003,-0.143 c -0.051,-0.004 -0.069,-0.007 -0.12,-0.011 -0.106,-0.013 -0.106,-0.013 -0.248,-0.023 -0.011,-0.093 -0.011,-0.141 -0.011,-0.254 0,0 0.004,-0.093 0.004,-0.171 0.23,0.02 0.481,0.065 0.594,0.102 l 0.015,-0.373 c -0.048,-0.003 -0.063,-0.007 -0.125,-0.017 -0.182,-0.028 -0.356,-0.048 -0.481,-0.059 0.004,-0.253 0.008,-0.329 0.026,-0.592 0.241,-0.096 0.408,-0.185 0.594,-0.312 0.051,-0.038 0.062,-0.044 0.098,-0.061 l -0.16,-0.404 c -0.095,0.102 -0.241,0.205 -0.441,0.318 -0.044,0.024 -0.058,0.034 -0.084,0.052 0.004,-0.028 0.004,-0.038 0.004,-0.073 0,-0.089 -0.022,-0.164 -0.073,-0.246 -0.095,-0.151 -0.353,-0.247 -0.667,-0.247 -0.466,0 -0.758,0.212 -0.758,0.552 0,0.322 0.31,0.548 0.758,0.548 0.128,0 0.259,-0.017 0.324,-0.041 -0.003,0.041 -0.007,0.082 -0.022,0.486 -0.233,-0.003 -0.36,-0.007 -0.382,-0.007 -0.098,0 -0.168,0.004 -0.492,0.014 -0.033,0.003 -0.062,0.003 -0.084,0.003 -0.011,0 -0.033,0 -0.058,-0.003 l 0.011,0.377 c 0.146,-0.031 0.346,-0.045 0.634,-0.045 0.098,0 0.218,0.004 0.364,0.007 -0.003,0.154 -0.003,0.185 -0.003,0.233 0,0.065 0,0.103 0.003,0.188 -0.12,-0.003 -0.273,-0.006 -0.372,-0.006 -0.145,0 -0.2,0 -0.499,0.013 -0.029,0.004 -0.05,0.004 -0.069,0.004 l -0.051,0 0.015,0.37 z M -2.915,-2.61 c 0,0.061 0,0.061 -0.033,0.284 -0.04,0.27 -0.065,0.613 -0.065,0.935 0,0.428 0.043,0.795 0.167,1.466 0.029,0.147 0.033,0.161 0.033,0.223 L -2.34,0.253 c -0.112,-0.267 -0.233,-0.931 -0.277,-1.541 -0.003,-0.044 -0.007,-0.212 -0.01,-0.315 0,-0.045 0,-0.082 -0.004,-0.117 l 0,-0.068 0.007,0 c 0.015,0.031 0.015,0.031 0.051,0.126 0.018,0.052 0.077,0.185 0.099,0.23 0.04,0.078 0.04,0.078 0.051,0.11 l 0.295,-0.134 c -0.223,-0.401 -0.354,-0.801 -0.354,-1.069 0,-0.027 0,-0.034 0.004,-0.068 L -2.915,-2.61 Z" />
        </g>
        <g
           transform="translate(153.6492,458.8143)"
           id="g5164">
          <path
             id="path5166"
             style="fill:#fcb22d;fill-opacity:1;fill-rule:nonzero;stroke:none"
             d="m 0,0 c 0.404,-0.127 0.944,-0.199 1.52,-0.199 l 0.102,0 L 1.56,-0.62 c -0.664,0.028 -1.167,0.089 -1.702,0.216 L 0,0 Z m -0.568,-1.092 c 0.094,0.003 0.094,0.003 0.422,0.057 0.518,0.086 0.835,0.117 1.144,0.117 0.296,0 0.522,-0.044 0.689,-0.14 0.226,-0.127 0.354,-0.357 0.354,-0.627 0,-0.391 -0.252,-0.747 -0.693,-0.983 C 1.05,-2.829 0.794,-2.901 0.2,-2.99 c -0.036,0.181 -0.076,0.267 -0.189,0.428 0.423,0.017 0.816,0.113 1.097,0.26 0.288,0.151 0.444,0.367 0.444,0.603 0,0.257 -0.193,0.387 -0.572,0.387 -0.411,0 -1.14,-0.12 -1.443,-0.236 l -0.105,0.456 z" />
        </g>
        <g
           transform="translate(143.7167,501.736)"
           id="g5168">
          <path
             id="path5170"
             style="fill:#006dc2;fill-opacity:1;fill-rule:nonzero;stroke:none"
             d="m 0,0 0,0.074 c 0,0.184 -0.083,0.337 -0.258,0.337 -0.194,0 -0.282,-0.135 -0.282,-0.275 0,-0.618 1.479,-0.316 1.479,-1.458 0,-0.666 -0.433,-0.963 -1.231,-0.963 -0.749,0 -1.168,0.232 -1.168,0.88 l 0,0.109 0.876,0 0,-0.074 c 0,-0.267 0.122,-0.364 0.297,-0.364 0.185,0 0.292,0.132 0.292,0.302 0,0.618 -1.421,0.311 -1.421,1.419 0,0.63 0.375,0.976 1.139,0.976 C 0.511,0.963 0.846,0.67 0.846,0 L 0,0 Z" />
        </g>
        <g
           transform="translate(143.7167,501.736)"
           id="g5172">
          <path
             id="path5174"
             style="fill:none;stroke:#ffffff;stroke-width:0.091;stroke-linecap:butt;stroke-linejoin:miter;stroke-miterlimit:4;stroke-dasharray:none;stroke-opacity:1"
             d="m 0,0 0,0.074 c 0,0.184 -0.083,0.337 -0.258,0.337 -0.194,0 -0.282,-0.135 -0.282,-0.275 0,-0.618 1.479,-0.316 1.479,-1.458 0,-0.666 -0.433,-0.963 -1.231,-0.963 -0.749,0 -1.168,0.232 -1.168,0.88 l 0,0.109 0.876,0 0,-0.074 c 0,-0.267 0.122,-0.364 0.297,-0.364 0.185,0 0.292,0.132 0.292,0.302 0,0.618 -1.421,0.311 -1.421,1.419 0,0.63 0.375,0.976 1.139,0.976 C 0.511,0.963 0.846,0.67 0.846,0 L 0,0 Z" />
        </g>
        <g
           transform="translate(145.5551,501.9461)"
           id="g5176">
          <path
             id="path5178"
             style="fill:#006dc2;fill-opacity:1;fill-rule:nonzero;stroke:none"
             d="m 0,0 -0.681,0 0,0.692 2.267,0 0,-0.692 -0.681,0 0,-2.434 L 0,-2.434 0,0 Z" />
        </g>
        <g
           transform="translate(145.5551,501.9461)"
           id="g5180">
          <path
             id="path5182"
             style="fill:none;stroke:#ffffff;stroke-width:0.091;stroke-linecap:butt;stroke-linejoin:miter;stroke-miterlimit:4;stroke-dasharray:none;stroke-opacity:1"
             d="m 0,0 -0.681,0 0,0.692 2.267,0 0,-0.692 -0.681,0 0,-2.434 L 0,-2.434 0,0 Z" />
        </g>
        <g
           transform="translate(148.8193,501.736)"
           id="g5184">
          <path
             id="path5186"
             style="fill:#006dc2;fill-opacity:1;fill-rule:nonzero;stroke:none"
             d="m 0,0 0,0.074 c 0,0.184 -0.083,0.337 -0.258,0.337 -0.194,0 -0.282,-0.135 -0.282,-0.275 0,-0.618 1.479,-0.316 1.479,-1.458 0,-0.666 -0.433,-0.963 -1.231,-0.963 -0.749,0 -1.167,0.232 -1.167,0.88 l 0,0.109 0.875,0 0,-0.074 c 0,-0.267 0.122,-0.364 0.297,-0.364 0.185,0 0.292,0.132 0.292,0.302 0,0.618 -1.42,0.311 -1.42,1.419 0,0.63 0.374,0.976 1.138,0.976 C 0.511,0.963 0.847,0.67 0.847,0 L 0,0 Z" />
        </g>
        <g
           transform="translate(148.8193,501.736)"
           id="g5188">
          <path
             id="path5190"
             style="fill:none;stroke:#ffffff;stroke-width:0.091;stroke-linecap:butt;stroke-linejoin:miter;stroke-miterlimit:4;stroke-dasharray:none;stroke-opacity:1"
             d="m 0,0 0,0.074 c 0,0.184 -0.083,0.337 -0.258,0.337 -0.194,0 -0.282,-0.135 -0.282,-0.275 0,-0.618 1.479,-0.316 1.479,-1.458 0,-0.666 -0.433,-0.963 -1.231,-0.963 -0.749,0 -1.167,0.232 -1.167,0.88 l 0,0.109 0.875,0 0,-0.074 c 0,-0.267 0.122,-0.364 0.297,-0.364 0.185,0 0.292,0.132 0.292,0.302 0,0.618 -1.42,0.311 -1.42,1.419 0,0.63 0.374,0.976 1.138,0.976 C 0.511,0.963 0.847,0.67 0.847,0 L 0,0 Z" />
        </g>
        <path
           id="path5192"
           style="fill:#006dc2;fill-opacity:1;fill-rule:nonzero;stroke:#ffffff;stroke-width:0.091;stroke-linecap:butt;stroke-linejoin:miter;stroke-miterlimit:4;stroke-dasharray:none;stroke-opacity:1"
           d="m 150.123,501.11 1.518,0 0,-0.666 -1.518,0 0,0.666 z" />
        <g
           transform="translate(152.5454,499.5119)"
           id="g5194">
          <path
             id="path5196"
             style="fill:#006dc2;fill-opacity:1;fill-rule:nonzero;stroke:none"
             d="m 0,0 0,2.11 -0.652,0 0,0.508 C -0.097,2.622 0.136,2.723 0.253,3.1 l 0.652,0 0,-3.1 L 0,0 Z" />
        </g>
        <g
           transform="translate(152.5454,499.5119)"
           id="g5198">
          <path
             id="path5200"
             style="fill:none;stroke:#ffffff;stroke-width:0.091;stroke-linecap:butt;stroke-linejoin:miter;stroke-miterlimit:4;stroke-dasharray:none;stroke-opacity:1"
             d="m 0,0 0,2.11 -0.652,0 0,0.508 C -0.097,2.622 0.136,2.723 0.253,3.1 l 0.652,0 0,-3.1 L 0,0 Z" />
        </g>
        <g
           transform="translate(154.0629,501.5609)"
           id="g5202">
          <path
             id="path5204"
             style="fill:#006dc2;fill-opacity:1;fill-rule:nonzero;stroke:none"
             d="m 0,0 c 0.005,0.32 0.049,0.578 0.214,0.762 0.166,0.184 0.448,0.289 0.915,0.289 0.905,0 1.109,-0.381 1.109,-0.845 0,-0.421 -0.17,-0.688 -0.428,-0.92 L 1.275,-1.182 C 1.197,-1.252 1.085,-1.344 1.051,-1.436 l 1.187,0 0,-0.613 -2.267,0 c 0,0.429 0.122,0.823 0.516,1.187 L 1.09,-0.311 C 1.265,-0.153 1.333,-0.035 1.333,0.197 1.333,0.46 1.241,0.543 1.1,0.543 0.973,0.543 0.847,0.482 0.847,0.131 L 0.847,0 0,0 Z" />
        </g>
        <g
           transform="translate(154.0629,501.5609)"
           id="g5206">
          <path
             id="path5208"
             style="fill:none;stroke:#ffffff;stroke-width:0.091;stroke-linecap:butt;stroke-linejoin:miter;stroke-miterlimit:4;stroke-dasharray:none;stroke-opacity:1"
             d="m 0,0 c 0.005,0.32 0.049,0.578 0.214,0.762 0.166,0.184 0.448,0.289 0.915,0.289 0.905,0 1.109,-0.381 1.109,-0.845 0,-0.421 -0.17,-0.688 -0.428,-0.92 L 1.275,-1.182 C 1.197,-1.252 1.085,-1.344 1.051,-1.436 l 1.187,0 0,-0.613 -2.267,0 c 0,0.429 0.122,0.823 0.516,1.187 L 1.09,-0.311 C 1.265,-0.153 1.333,-0.035 1.333,0.197 1.333,0.46 1.241,0.543 1.1,0.543 0.973,0.543 0.847,0.482 0.847,0.131 L 0.847,0 0,0 Z" />
        </g>
        <g
           transform="translate(157.9257,500.6766)"
           id="g5210">
          <path
             id="path5212"
             style="fill:#006dc2;fill-opacity:1;fill-rule:nonzero;stroke:none"
             d="m 0,0 0,1.033 -0.01,0 L -0.574,0 0,0 Z m -1.255,0.026 1.089,1.848 0.983,0 0,-1.874 0.302,0 0,-0.587 -0.302,0 0,-0.578 -0.846,0 0,0.578 -1.226,0 0,0.613 z" />
        </g>
        <g
           transform="translate(157.9257,500.6766)"
           id="g5214">
          <path
             id="path5216"
             style="fill:none;stroke:#ffffff;stroke-width:0.091;stroke-linecap:butt;stroke-linejoin:miter;stroke-miterlimit:4;stroke-dasharray:none;stroke-opacity:1"
             d="m 0,0 0,1.033 -0.01,0 L -0.574,0 0,0 Z m -1.255,0.026 1.089,1.848 0.983,0 0,-1.874 0.302,0 0,-0.587 -0.302,0 0,-0.578 -0.846,0 0,0.578 -1.226,0 0,0.613 z" />
        </g>
        <path
           id="path5218"
           style="fill:#ffffff;fill-opacity:1;fill-rule:evenodd;stroke:none"
           d="m 154.329,503.757 -7.3108,0 0,4.27441 7.3108,0 0,-4.27441 z" />
        <path
           id="path5220"
           style="fill:#de0035;fill-opacity:1;fill-rule:evenodd;stroke:none"
           d="m 147.017,508.068 7.317,0 0,-0.332 -7.317,0 0,0.332 z" />
        <path
           id="path5222"
           style="fill:#de0035;fill-opacity:1;fill-rule:evenodd;stroke:none"
           d="m 147.017,507.386 7.317,0 0,-0.332 -7.317,0 0,0.332 z" />
        <path
           id="path5224"
           style="fill:#de0035;fill-opacity:1;fill-rule:evenodd;stroke:none"
           d="m 147.017,506.724 7.317,0 0,-0.331 -7.317,0 0,0.331 z" />
        <path
           id="path5226"
           style="fill:#de0035;fill-opacity:1;fill-rule:evenodd;stroke:none"
           d="m 147.017,506.062 7.317,0 0,-0.331 -7.317,0 0,0.331 z" />
        <path
           id="path5228"
           style="fill:#de0035;fill-opacity:1;fill-rule:evenodd;stroke:none"
           d="m 147.017,505.4 7.317,0 0,-0.332 -7.317,0 0,0.332 z" />
        <path
           id="path5230"
           style="fill:#de0035;fill-opacity:1;fill-rule:evenodd;stroke:none"
           d="m 147.017,504.737 7.317,0 0,-0.332 -7.317,0 0,0.332 z" />
        <path
           id="path5232"
           style="fill:#de0035;fill-opacity:1;fill-rule:evenodd;stroke:none"
           d="m 147.017,504.055 7.317,0 0,-0.331 -7.317,0 0,0.331 z" />
        <path
           id="path5234"
           style="fill:#006dc2;fill-opacity:1;fill-rule:evenodd;stroke:none"
           d="m 147.0151,508.071 2.9999,0 0,-2.339 -2.9999,0 0,2.339 z" />
        <g
           transform="translate(147.2588,507.9735)"
           id="g5236">
          <path
             id="path5238"
             style="fill:#ffffff;fill-opacity:1;fill-rule:evenodd;stroke:none"
             d="m 0,0 0.026,-0.072 0.084,0 L 0.042,-0.116 0.068,-0.188 0,-0.143 l -0.068,-0.045 0.026,0.072 -0.068,0.044 0.084,0 L 0,0 Z" />
        </g>
        <g
           transform="translate(147.7609,507.9735)"
           id="g5240">
          <path
             id="path5242"
             style="fill:#ffffff;fill-opacity:1;fill-rule:evenodd;stroke:none"
             d="m 0,0 0.026,-0.072 0.083,0 L 0.042,-0.116 0.068,-0.188 0,-0.143 l -0.068,-0.045 0.026,0.072 -0.068,0.044 0.084,0 L 0,0 Z" />
        </g>
        <g
           transform="translate(148.2626,507.9735)"
           id="g5244">
          <path
             id="path5246"
             style="fill:#ffffff;fill-opacity:1;fill-rule:evenodd;stroke:none"
             d="m 0,0 0.026,-0.072 0.084,0 L 0.042,-0.116 0.068,-0.188 0,-0.143 l -0.068,-0.045 0.026,0.072 -0.067,0.044 0.083,0 L 0,0 Z" />
        </g>
        <g
           transform="translate(148.7646,507.9735)"
           id="g5248">
          <path
             id="path5250"
             style="fill:#ffffff;fill-opacity:1;fill-rule:evenodd;stroke:none"
             d="m 0,0 0.026,-0.072 0.084,0 L 0.042,-0.116 0.068,-0.188 0,-0.143 l -0.068,-0.045 0.026,0.072 -0.067,0.044 0.083,0 L 0,0 Z" />
        </g>
        <g
           transform="translate(149.2667,507.9735)"
           id="g5252">
          <path
             id="path5254"
             style="fill:#ffffff;fill-opacity:1;fill-rule:evenodd;stroke:none"
             d="m 0,0 0.026,-0.072 0.084,0 L 0.042,-0.116 0.068,-0.188 0,-0.143 l -0.068,-0.045 0.026,0.072 -0.068,0.044 0.084,0 L 0,0 Z" />
        </g>
        <g
           transform="translate(149.7688,507.9735)"
           id="g5256">
          <path
             id="path5258"
             style="fill:#ffffff;fill-opacity:1;fill-rule:evenodd;stroke:none"
             d="m 0,0 0.026,-0.072 0.084,0 L 0.042,-0.116 0.068,-0.188 0,-0.143 l -0.068,-0.045 0.026,0.072 -0.068,0.044 0.084,0 L 0,0 Z" />
        </g>
        <g
           transform="translate(147.2588,507.4882)"
           id="g5260">
          <path
             id="path5262"
             style="fill:#ffffff;fill-opacity:1;fill-rule:evenodd;stroke:none"
             d="m 0,0 0.026,-0.072 0.084,0 L 0.042,-0.116 0.068,-0.188 0,-0.144 l -0.068,-0.044 0.026,0.072 -0.068,0.044 0.084,0 L 0,0 Z" />
        </g>
        <g
           transform="translate(147.7609,507.4882)"
           id="g5264">
          <path
             id="path5266"
             style="fill:#ffffff;fill-opacity:1;fill-rule:evenodd;stroke:none"
             d="m 0,0 0.026,-0.072 0.083,0 L 0.042,-0.116 0.068,-0.188 0,-0.144 l -0.068,-0.044 0.026,0.072 -0.068,0.044 0.084,0 L 0,0 Z" />
        </g>
        <g
           transform="translate(148.2626,507.4882)"
           id="g5268">
          <path
             id="path5270"
             style="fill:#ffffff;fill-opacity:1;fill-rule:evenodd;stroke:none"
             d="m 0,0 0.026,-0.072 0.084,0 L 0.042,-0.116 0.068,-0.188 0,-0.144 l -0.068,-0.044 0.026,0.072 -0.067,0.044 0.083,0 L 0,0 Z" />
        </g>
        <g
           transform="translate(148.7646,507.4882)"
           id="g5272">
          <path
             id="path5274"
             style="fill:#ffffff;fill-opacity:1;fill-rule:evenodd;stroke:none"
             d="m 0,0 0.026,-0.072 0.084,0 L 0.042,-0.116 0.068,-0.188 0,-0.144 l -0.068,-0.044 0.026,0.072 -0.067,0.044 0.083,0 L 0,0 Z" />
        </g>
        <g
           transform="translate(149.2667,507.4882)"
           id="g5276">
          <path
             id="path5278"
             style="fill:#ffffff;fill-opacity:1;fill-rule:evenodd;stroke:none"
             d="m 0,0 0.026,-0.072 0.084,0 L 0.042,-0.116 0.068,-0.188 0,-0.144 l -0.068,-0.044 0.026,0.072 -0.068,0.044 0.084,0 L 0,0 Z" />
        </g>
        <g
           transform="translate(149.7688,507.4882)"
           id="g5280">
          <path
             id="path5282"
             style="fill:#ffffff;fill-opacity:1;fill-rule:evenodd;stroke:none"
             d="m 0,0 0.026,-0.072 0.084,0 L 0.042,-0.116 0.068,-0.188 0,-0.144 l -0.068,-0.044 0.026,0.072 -0.068,0.044 0.084,0 L 0,0 Z" />
        </g>
        <g
           transform="translate(147.2588,507.0023)"
           id="g5284">
          <path
             id="path5286"
             style="fill:#ffffff;fill-opacity:1;fill-rule:evenodd;stroke:none"
             d="m 0,0 0.026,-0.072 0.084,0 L 0.042,-0.116 0.068,-0.188 0,-0.144 l -0.068,-0.044 0.026,0.072 -0.068,0.044 0.084,0 L 0,0 Z" />
        </g>
        <g
           transform="translate(147.7609,507.0023)"
           id="g5288">
          <path
             id="path5290"
             style="fill:#ffffff;fill-opacity:1;fill-rule:evenodd;stroke:none"
             d="m 0,0 0.026,-0.072 0.083,0 L 0.042,-0.116 0.068,-0.188 0,-0.144 l -0.068,-0.044 0.026,0.072 -0.068,0.044 0.084,0 L 0,0 Z" />
        </g>
        <g
           transform="translate(148.2626,507.0023)"
           id="g5292">
          <path
             id="path5294"
             style="fill:#ffffff;fill-opacity:1;fill-rule:evenodd;stroke:none"
             d="m 0,0 0.026,-0.072 0.084,0 L 0.042,-0.116 0.068,-0.188 0,-0.144 l -0.068,-0.044 0.026,0.072 -0.067,0.044 0.083,0 L 0,0 Z" />
        </g>
        <g
           transform="translate(148.7646,507.0023)"
           id="g5296">
          <path
             id="path5298"
             style="fill:#ffffff;fill-opacity:1;fill-rule:evenodd;stroke:none"
             d="m 0,0 0.026,-0.072 0.084,0 L 0.042,-0.116 0.068,-0.188 0,-0.144 l -0.068,-0.044 0.026,0.072 -0.067,0.044 0.083,0 L 0,0 Z" />
        </g>
        <g
           transform="translate(149.2667,507.0023)"
           id="g5300">
          <path
             id="path5302"
             style="fill:#ffffff;fill-opacity:1;fill-rule:evenodd;stroke:none"
             d="m 0,0 0.026,-0.072 0.084,0 L 0.042,-0.116 0.068,-0.188 0,-0.144 l -0.068,-0.044 0.026,0.072 -0.068,0.044 0.084,0 L 0,0 Z" />
        </g>
        <g
           transform="translate(149.7688,507.0023)"
           id="g5304">
          <path
             id="path5306"
             style="fill:#ffffff;fill-opacity:1;fill-rule:evenodd;stroke:none"
             d="m 0,0 0.026,-0.072 0.084,0 L 0.042,-0.116 0.068,-0.188 0,-0.144 l -0.068,-0.044 0.026,0.072 -0.068,0.044 0.084,0 L 0,0 Z" />
        </g>
        <g
           transform="translate(147.2588,506.5165)"
           id="g5308">
          <path
             id="path5310"
             style="fill:#ffffff;fill-opacity:1;fill-rule:evenodd;stroke:none"
             d="m 0,0 0.026,-0.072 0.084,0 L 0.042,-0.116 0.068,-0.188 0,-0.143 l -0.068,-0.045 0.026,0.072 -0.068,0.044 0.084,0 L 0,0 Z" />
        </g>
        <g
           transform="translate(147.7609,506.5165)"
           id="g5312">
          <path
             id="path5314"
             style="fill:#ffffff;fill-opacity:1;fill-rule:evenodd;stroke:none"
             d="m 0,0 0.026,-0.072 0.083,0 L 0.042,-0.116 0.068,-0.188 0,-0.143 l -0.068,-0.045 0.026,0.072 -0.068,0.044 0.084,0 L 0,0 Z" />
        </g>
        <g
           transform="translate(148.2626,506.5165)"
           id="g5316">
          <path
             id="path5318"
             style="fill:#ffffff;fill-opacity:1;fill-rule:evenodd;stroke:none"
             d="m 0,0 0.026,-0.072 0.084,0 L 0.042,-0.116 0.068,-0.188 0,-0.143 l -0.068,-0.045 0.026,0.072 -0.067,0.044 0.083,0 L 0,0 Z" />
        </g>
        <g
           transform="translate(148.7646,506.5165)"
           id="g5320">
          <path
             id="path5322"
             style="fill:#ffffff;fill-opacity:1;fill-rule:evenodd;stroke:none"
             d="m 0,0 0.026,-0.072 0.084,0 L 0.042,-0.116 0.068,-0.188 0,-0.143 l -0.068,-0.045 0.026,0.072 -0.067,0.044 0.083,0 L 0,0 Z" />
        </g>
        <g
           transform="translate(149.2667,506.5165)"
           id="g5324">
          <path
             id="path5326"
             style="fill:#ffffff;fill-opacity:1;fill-rule:evenodd;stroke:none"
             d="m 0,0 0.026,-0.072 0.084,0 L 0.042,-0.116 0.068,-0.188 0,-0.143 l -0.068,-0.045 0.026,0.072 -0.068,0.044 0.084,0 L 0,0 Z" />
        </g>
        <g
           transform="translate(149.7688,506.5165)"
           id="g5328">
          <path
             id="path5330"
             style="fill:#ffffff;fill-opacity:1;fill-rule:evenodd;stroke:none"
             d="m 0,0 0.026,-0.072 0.084,0 L 0.042,-0.116 0.068,-0.188 0,-0.143 l -0.068,-0.045 0.026,0.072 -0.068,0.044 0.084,0 L 0,0 Z" />
        </g>
        <g
           transform="translate(147.2588,506.031)"
           id="g5332">
          <path
             id="path5334"
             style="fill:#ffffff;fill-opacity:1;fill-rule:evenodd;stroke:none"
             d="m 0,0 0.026,-0.072 0.084,0 L 0.042,-0.116 0.068,-0.188 0,-0.143 l -0.068,-0.045 0.026,0.072 -0.068,0.044 0.084,0 L 0,0 Z" />
        </g>
        <g
           transform="translate(147.7609,506.031)"
           id="g5336">
          <path
             id="path5338"
             style="fill:#ffffff;fill-opacity:1;fill-rule:evenodd;stroke:none"
             d="m 0,0 0.026,-0.072 0.083,0 L 0.042,-0.116 0.068,-0.188 0,-0.143 l -0.068,-0.045 0.026,0.072 -0.068,0.044 0.084,0 L 0,0 Z" />
        </g>
        <g
           transform="translate(148.2626,506.031)"
           id="g5340">
          <path
             id="path5342"
             style="fill:#ffffff;fill-opacity:1;fill-rule:evenodd;stroke:none"
             d="m 0,0 0.026,-0.072 0.084,0 L 0.042,-0.116 0.068,-0.188 0,-0.143 l -0.068,-0.045 0.026,0.072 -0.067,0.044 0.083,0 L 0,0 Z" />
        </g>
        <g
           transform="translate(148.7646,506.031)"
           id="g5344">
          <path
             id="path5346"
             style="fill:#ffffff;fill-opacity:1;fill-rule:evenodd;stroke:none"
             d="m 0,0 0.026,-0.072 0.084,0 L 0.042,-0.116 0.068,-0.188 0,-0.143 l -0.068,-0.045 0.026,0.072 -0.067,0.044 0.083,0 L 0,0 Z" />
        </g>
        <g
           transform="translate(149.2667,506.031)"
           id="g5348">
          <path
             id="path5350"
             style="fill:#ffffff;fill-opacity:1;fill-rule:evenodd;stroke:none"
             d="m 0,0 0.026,-0.072 0.084,0 L 0.042,-0.116 0.068,-0.188 0,-0.143 l -0.068,-0.045 0.026,0.072 -0.068,0.044 0.084,0 L 0,0 Z" />
        </g>
        <g
           transform="translate(149.7688,506.031)"
           id="g5352">
          <path
             id="path5354"
             style="fill:#ffffff;fill-opacity:1;fill-rule:evenodd;stroke:none"
             d="m 0,0 0.026,-0.072 0.084,0 L 0.042,-0.116 0.068,-0.188 0,-0.143 l -0.068,-0.045 0.026,0.072 -0.068,0.044 0.084,0 L 0,0 Z" />
        </g>
        <g
           transform="translate(147.5075,507.7379)"
           id="g5356">
          <path
             id="path5358"
             style="fill:#ffffff;fill-opacity:1;fill-rule:evenodd;stroke:none"
             d="m 0,0 0.026,-0.072 0.084,0 L 0.042,-0.116 0.068,-0.188 0,-0.144 l -0.068,-0.044 0.026,0.072 -0.067,0.044 0.083,0 L 0,0 Z" />
        </g>
        <g
           transform="translate(148.0095,507.7379)"
           id="g5360">
          <path
             id="path5362"
             style="fill:#ffffff;fill-opacity:1;fill-rule:evenodd;stroke:none"
             d="m 0,0 0.026,-0.072 0.083,0 L 0.042,-0.116 0.068,-0.188 0,-0.144 l -0.068,-0.044 0.026,0.072 -0.068,0.044 0.084,0 L 0,0 Z" />
        </g>
        <g
           transform="translate(148.5112,507.7379)"
           id="g5364">
          <path
             id="path5366"
             style="fill:#ffffff;fill-opacity:1;fill-rule:evenodd;stroke:none"
             d="m 0,0 0.026,-0.072 0.084,0 L 0.042,-0.116 0.068,-0.188 0,-0.144 l -0.068,-0.044 0.026,0.072 -0.067,0.044 0.083,0 L 0,0 Z" />
        </g>
        <g
           transform="translate(149.0135,507.7379)"
           id="g5368">
          <path
             id="path5370"
             style="fill:#ffffff;fill-opacity:1;fill-rule:evenodd;stroke:none"
             d="m 0,0 0.026,-0.072 0.084,0 L 0.042,-0.116 0.068,-0.188 0,-0.144 l -0.068,-0.044 0.026,0.072 -0.068,0.044 0.084,0 L 0,0 Z" />
        </g>
        <g
           transform="translate(149.5155,507.7379)"
           id="g5372">
          <path
             id="path5374"
             style="fill:#ffffff;fill-opacity:1;fill-rule:evenodd;stroke:none"
             d="m 0,0 0.026,-0.072 0.083,0 L 0.042,-0.116 0.068,-0.188 0,-0.144 l -0.068,-0.044 0.026,0.072 -0.068,0.044 0.084,0 L 0,0 Z" />
        </g>
        <g
           transform="translate(147.5075,507.2563)"
           id="g5376">
          <path
             id="path5378"
             style="fill:#ffffff;fill-opacity:1;fill-rule:evenodd;stroke:none"
             d="m 0,0 0.026,-0.072 0.084,0 L 0.042,-0.116 0.068,-0.188 0,-0.144 l -0.068,-0.044 0.026,0.072 -0.067,0.044 0.083,0 L 0,0 Z" />
        </g>
        <g
           transform="translate(148.0095,507.2563)"
           id="g5380">
          <path
             id="path5382"
             style="fill:#ffffff;fill-opacity:1;fill-rule:evenodd;stroke:none"
             d="m 0,0 0.026,-0.072 0.083,0 L 0.042,-0.116 0.068,-0.188 0,-0.144 l -0.068,-0.044 0.026,0.072 -0.068,0.044 0.084,0 L 0,0 Z" />
        </g>
        <g
           transform="translate(148.5112,507.2563)"
           id="g5384">
          <path
             id="path5386"
             style="fill:#ffffff;fill-opacity:1;fill-rule:evenodd;stroke:none"
             d="m 0,0 0.026,-0.072 0.084,0 L 0.042,-0.116 0.068,-0.188 0,-0.144 l -0.068,-0.044 0.026,0.072 -0.067,0.044 0.083,0 L 0,0 Z" />
        </g>
        <g
           transform="translate(149.0135,507.2563)"
           id="g5388">
          <path
             id="path5390"
             style="fill:#ffffff;fill-opacity:1;fill-rule:evenodd;stroke:none"
             d="m 0,0 0.026,-0.072 0.084,0 L 0.042,-0.116 0.068,-0.188 0,-0.144 l -0.068,-0.044 0.026,0.072 -0.068,0.044 0.084,0 L 0,0 Z" />
        </g>
        <g
           transform="translate(149.5155,507.2563)"
           id="g5392">
          <path
             id="path5394"
             style="fill:#ffffff;fill-opacity:1;fill-rule:evenodd;stroke:none"
             d="m 0,0 0.026,-0.072 0.083,0 L 0.042,-0.116 0.068,-0.188 0,-0.144 l -0.068,-0.044 0.026,0.072 -0.068,0.044 0.084,0 L 0,0 Z" />
        </g>
        <g
           transform="translate(147.5075,506.76)"
           id="g5396">
          <path
             id="path5398"
             style="fill:#ffffff;fill-opacity:1;fill-rule:evenodd;stroke:none"
             d="m 0,0 0.026,-0.072 0.084,0 L 0.042,-0.116 0.068,-0.188 0,-0.143 l -0.068,-0.045 0.026,0.072 -0.067,0.044 0.083,0 L 0,0 Z" />
        </g>
        <g
           transform="translate(148.0095,506.76)"
           id="g5400">
          <path
             id="path5402"
             style="fill:#ffffff;fill-opacity:1;fill-rule:evenodd;stroke:none"
             d="m 0,0 0.026,-0.072 0.083,0 L 0.042,-0.116 0.068,-0.188 0,-0.143 l -0.068,-0.045 0.026,0.072 -0.068,0.044 0.084,0 L 0,0 Z" />
        </g>
        <g
           transform="translate(148.5112,506.76)"
           id="g5404">
          <path
             id="path5406"
             style="fill:#ffffff;fill-opacity:1;fill-rule:evenodd;stroke:none"
             d="m 0,0 0.026,-0.072 0.084,0 L 0.042,-0.116 0.068,-0.188 0,-0.143 l -0.068,-0.045 0.026,0.072 -0.067,0.044 0.083,0 L 0,0 Z" />
        </g>
        <g
           transform="translate(149.0135,506.76)"
           id="g5408">
          <path
             id="path5410"
             style="fill:#ffffff;fill-opacity:1;fill-rule:evenodd;stroke:none"
             d="m 0,0 0.026,-0.072 0.084,0 L 0.042,-0.116 0.068,-0.188 0,-0.143 l -0.068,-0.045 0.026,0.072 -0.068,0.044 0.084,0 L 0,0 Z" />
        </g>
        <g
           transform="translate(149.5155,506.76)"
           id="g5412">
          <path
             id="path5414"
             style="fill:#ffffff;fill-opacity:1;fill-rule:evenodd;stroke:none"
             d="m 0,0 0.026,-0.072 0.083,0 L 0.042,-0.116 0.068,-0.188 0,-0.143 l -0.068,-0.045 0.026,0.072 -0.068,0.044 0.084,0 L 0,0 Z" />
        </g>
        <g
           transform="translate(147.5075,506.2786)"
           id="g5416">
          <path
             id="path5418"
             style="fill:#ffffff;fill-opacity:1;fill-rule:evenodd;stroke:none"
             d="m 0,0 0.026,-0.072 0.084,0 L 0.042,-0.116 0.068,-0.188 0,-0.143 l -0.068,-0.045 0.026,0.072 -0.067,0.044 0.083,0 L 0,0 Z" />
        </g>
        <g
           transform="translate(148.0095,506.2786)"
           id="g5420">
          <path
             id="path5422"
             style="fill:#ffffff;fill-opacity:1;fill-rule:evenodd;stroke:none"
             d="m 0,0 0.026,-0.072 0.083,0 L 0.042,-0.116 0.068,-0.188 0,-0.143 l -0.068,-0.045 0.026,0.072 -0.068,0.044 0.084,0 L 0,0 Z" />
        </g>
        <g
           transform="translate(148.5112,506.2786)"
           id="g5424">
          <path
             id="path5426"
             style="fill:#ffffff;fill-opacity:1;fill-rule:evenodd;stroke:none"
             d="m 0,0 0.026,-0.072 0.084,0 L 0.042,-0.116 0.068,-0.188 0,-0.143 l -0.068,-0.045 0.026,0.072 -0.067,0.044 0.083,0 L 0,0 Z" />
        </g>
        <g
           transform="translate(149.0135,506.2786)"
           id="g5428">
          <path
             id="path5430"
             style="fill:#ffffff;fill-opacity:1;fill-rule:evenodd;stroke:none"
             d="m 0,0 0.026,-0.072 0.084,0 L 0.042,-0.116 0.068,-0.188 0,-0.143 l -0.068,-0.045 0.026,0.072 -0.068,0.044 0.084,0 L 0,0 Z" />
        </g>
        <g
           transform="translate(149.5155,506.2786)"
           id="g5432">
          <path
             id="path5434"
             style="fill:#ffffff;fill-opacity:1;fill-rule:evenodd;stroke:none"
             d="m 0,0 0.026,-0.072 0.083,0 L 0.042,-0.116 0.068,-0.188 0,-0.143 l -0.068,-0.045 0.026,0.072 -0.068,0.044 0.084,0 L 0,0 Z" />
        </g>
      </g>
    </g>
  </g>
</svg>
