<?xml version="1.0" encoding="UTF-8" standalone="no"?>
<svg
   xmlns:dc="http://purl.org/dc/elements/1.1/"
   xmlns:cc="http://creativecommons.org/ns#"
   xmlns:rdf="http://www.w3.org/1999/02/22-rdf-syntax-ns#"
   xmlns:svg="http://www.w3.org/2000/svg"
   xmlns="http://www.w3.org/2000/svg"
   width="4670"
   height="5000"
   viewBox="0 0 4670 5000"
   id="svg5645"
   version="1.1">
  <title
     id="title6847">STS-119 Insignia</title>
  <metadata
     id="metadata5650">
    <rdf:RDF>
      <cc:Work
         rdf:about="">
        <dc:format>image/svg+xml</dc:format>
        <dc:type
           rdf:resource="http://purl.org/dc/dcmitype/StillImage" />
        <dc:title>STS-119 Insignia</dc:title>
      </cc:Work>
    </rdf:RDF>
  </metadata>
  <g
     id="layer1"
     transform="matrix(1.0022818,0,0,1.0022818,-10.339411,3953.5893)">
    <g
       id="g508"
       transform="matrix(26.90305,0,0,-26.90305,1279.743,-3899.6992)">
      <path
         d="m 0,0 -44.438,-145.871 -1.256,-22.603 63.344,0.14 40.322,-0.558 66.552,0.279 -0.977,20.789 -31.253,97.665 -7.581,33.346 L 75.83,0.069 0,0 Z"
         style="fill:#e0001a;fill-opacity:1;fill-rule:nonzero;stroke:none"
         id="path510" />
    </g>
    <g
       transform="matrix(26.90305,0,0,-26.90305,-9645.6047,5373.0068)"
       id="g512">
      <g
         id="g514">
        <g
           id="g520"
           transform="translate(530.62469,176.05811)">
          <path
             d="m 0,0 -0.977,20.789 -31.253,97.666 -7.58,33.345 -8.883,16.883 -75.831,-0.07 -44.438,-145.871 -1.255,-22.602 63.343,0.139 40.322,-0.558 L 0,0 Z"
             style="fill:none;stroke:#e0001a;stroke-width:2.23200011;stroke-linecap:butt;stroke-linejoin:miter;stroke-miterlimit:4;stroke-dasharray:none;stroke-opacity:1"
             id="path522" />
        </g>
        <g
           id="g524"
           transform="translate(464.90961,165.66859)">
          <path
             d="m 0,0 c -13.883,-4.475 -28.951,-4.475 -42.833,0 l 0,15.813 L 0,15.813 0,0 Z"
             style="fill:#e0001a;fill-opacity:1;fill-rule:nonzero;stroke:none"
             id="path526" />
        </g>
        <g
           id="g528"
           transform="translate(464.90961,165.66859)">
          <path
             d="m 0,0 c -13.882,-4.475 -28.951,-4.475 -42.833,0 l 0,15.813 L 0,15.813 0,0 Z"
             style="fill:none;stroke:#e0001a;stroke-width:2.23200011;stroke-linecap:butt;stroke-linejoin:miter;stroke-miterlimit:4;stroke-dasharray:none;stroke-opacity:1"
             id="path530" />
        </g>
      </g>
    </g>
    <g
       id="g532"
       transform="matrix(26.90305,0,0,-26.90305,359.48923,262.39876)">
      <path
         d="M 0,0 146.313,-0.094 101.945,143.057 42.376,143.473 0,0 Z"
         style="fill:#ffcc00;fill-opacity:1;fill-rule:nonzero;stroke:none"
         id="path534" />
    </g>
    <g
       id="g536"
       transform="matrix(26.90305,0,0,-26.90305,2111.1604,-3105.8117)">
      <path
         d="m 0,0 -6.325,-124.64 -0.372,-0.651 27.16,-0.279 L 13.58,0.372 0,0 Z"
         style="fill:#000d44;fill-opacity:1;fill-rule:nonzero;stroke:none"
         id="path538" />
    </g>
    <g
       id="g540"
       transform="matrix(26.90305,0,0,-26.90305,422.05518,212.3505)">
      <path
         d="M 0,0 -0.465,-2.418 54.599,-1.674 54.832,1.674 0.373,1.768 0,0 Z"
         style="fill:#7299c6;fill-opacity:1;fill-rule:nonzero;stroke:none"
         id="path542" />
    </g>
    <g
       id="g544"
       transform="matrix(26.90305,0,0,-26.90305,2700.4746,253.63269)">
      <path
         d="M 0,0 57.065,0.697 56.414,3.023 -0.233,3.208 0,0 Z"
         style="fill:#7299c6;fill-opacity:1;fill-rule:nonzero;stroke:none"
         id="path546" />
    </g>
    <g
       id="g548"
       transform="matrix(26.90305,0,0,-26.90305,2290.6204,-2538.8202)">
      <path
         d="M 0.02655036,1.0885648 -1.334,-39.295 1.91,-38.989 0.584,1.123 Z"
         style="fill:#ffcc00;fill-opacity:1;fill-rule:nonzero;stroke:none"
         id="path550" />
    </g>
    <g
       id="g552"
       transform="matrix(26.90305,0,0,-26.90305,2258.5247,-2531.7392)">
      <path
         d="M -6.557,-38.215 -3.106,-38.517 0.01327518,0.25886603 -0.594,0.271 Z"
         style="fill:#ffcc00;fill-opacity:1;fill-rule:nonzero;stroke:none"
         id="path554" />
    </g>
    <g
       id="g556"
       transform="matrix(26.90305,0,0,-26.90305,2426.4588,-1519.9262)">
      <path
         d="M 0,0 3.349,-0.07 -3.02,37.741 -3.697,38.438 0,0 Z"
         style="fill:#ffcc00;fill-opacity:1;fill-rule:nonzero;stroke:none"
         id="path558" />
    </g>
    <g
       id="g560"
       transform="matrix(26.90305,0,0,-26.90305,2244.6694,-2721.6532)">
      <path
         d="m 0,0 -3.509,-1.061 2.47,-2.968 -0.253,-4.08 L 2.081,-5.98 5.404,-7.936 5.2,-3.641 7.323,-0.782 3.771,-0.13 1.816,3.467 0,0 Z"
         style="fill:#ffcc00;fill-opacity:1;fill-rule:nonzero;stroke:none"
         id="path562" />
    </g>
    <g
       transform="matrix(26.90305,0,0,-26.90305,-9645.6047,5373.0068)"
       id="g564">
      <g
         id="g566">
        <g
           id="g572"
           transform="translate(443.9883,283.99271)">
          <path
             d="m 0,0 c 3.452,0.003 6.293,0.889 6.293,1.965 0,1.076 -2.842,1.959 -6.294,1.958 C -3.453,3.922 -6.294,3.034 -6.293,1.958 -6.293,0.882 -3.452,-0.002 0,0 M 7.963,1.629 C 7.965,-0.123 4.325,-1.567 -0.098,-1.568 -4.52,-1.57 -8.16,-0.131 -8.161,1.621 c 0,1.753 3.638,3.196 8.061,3.199 4.424,0.002 8.063,-1.437 8.063,-3.191"
             style="fill:#ffcc00;fill-opacity:1;fill-rule:evenodd;stroke:none"
             id="path574" />
        </g>
      </g>
    </g>
    <g
       id="g576"
       transform="matrix(26.90305,0,0,-26.90305,2180.5299,-2884.4598)">
      <path
         d="m 0,0 -1.484,-0.354 1.47,-0.495 0.375,-2.918 0.473,2.905 1.55,0.408 -1.535,0.44 L 0.474,2.903 0,0 Z"
         style="fill:#ffffff;fill-opacity:1;fill-rule:nonzero;stroke:none"
         id="path578" />
    </g>
    <g
       id="g580"
       transform="matrix(26.90305,0,0,-26.90305,2493.7463,-70.81813)">
      <path
         d="m 0,0 -1.751,-0.302 1.673,-0.684 0.222,-3.42 0.765,3.342 1.832,0.362 L 0.988,-0.08 0.765,3.342 0,0 Z"
         style="fill:#ffffff;fill-opacity:1;fill-rule:nonzero;stroke:none"
         id="path582" />
    </g>
    <g
       id="g584"
       transform="matrix(26.90305,0,0,-26.90305,2392.9728,-485.24346)">
      <path
         d="m 0,0 -2.233,-1.084 2.508,-0.269 1.62,-4.501 -0.268,4.777 2.318,1.192 -2.593,0.16 -1.619,4.5 L 0,0 Z"
         style="fill:#ffffff;fill-opacity:1;fill-rule:nonzero;stroke:none"
         id="path586" />
    </g>
    <g
       id="g588"
       transform="matrix(26.90305,0,0,-26.90305,2097.8922,-511.36737)">
      <path
         d="M 0,0 -1.463,-0.395 0.011,-0.843 0.47,-3.73 0.855,-0.833 2.382,-0.382 0.843,0.01 0.385,2.896 0,0 Z"
         style="fill:#ffffff;fill-opacity:1;fill-rule:nonzero;stroke:none"
         id="path590" />
    </g>
    <g
       id="g592"
       transform="matrix(26.90305,0,0,-26.90305,2138.8599,-201.00949)">
      <path
         d="m 0,0 -1.73,-0.413 1.714,-0.575 0.437,-3.4 0.552,3.382 1.805,0.477 -1.79,0.513 L 0.552,3.383 0,0 Z"
         style="fill:#ffffff;fill-opacity:1;fill-rule:nonzero;stroke:none"
         id="path594" />
    </g>
    <g
       id="g596"
       transform="matrix(26.90305,0,0,-26.90305,2411.447,-1124.3137)">
      <path
         d="m 0,0 -1.469,-0.35 1.454,-0.489 0.371,-2.882 0.468,2.868 1.53,0.404 L 0.837,-0.014 0.467,2.868 0,0 Z"
         style="fill:#ffffff;fill-opacity:1;fill-rule:nonzero;stroke:none"
         id="path598" />
    </g>
    <g
       id="g600"
       transform="matrix(26.90305,0,0,-26.90305,444.57324,107.24351)">
      <path
         d="M 0,0 53.995,-0.139 62.32,136.918 39.275,137.29 0,0 Z"
         style="fill:#327ab5;fill-opacity:1;fill-rule:nonzero;stroke:none"
         id="path602" />
    </g>
    <g
       id="g604"
       transform="matrix(26.90305,0,0,-26.90305,2466.5066,-3581.2789)">
      <path
         d="m 0,0 8.372,-137.29 56.367,0 L 23.119,0.829 0,0 Z"
         style="fill:#327ab5;fill-opacity:1;fill-rule:nonzero;stroke:none"
         id="path606" />
    </g>
    <g
       transform="matrix(26.90305,0,0,-26.90305,-9645.6047,5373.0068)"
       id="g608">
      <g
         id="g610">
        <g
           id="g616"
           transform="translate(518.9048,187.5453)">
          <path
             d="m 0,0 -1.162,4 -60.414,0.186 0.047,-1.86 -5.488,0 0,0.371 c 0,0 -2.605,0.931 -7.814,1.024 -5.209,0.092 -8.278,-1.024 -8.278,-1.024 l 0,-0.371 -5.069,0 0.046,1.86 -58.506,-0.186 -0.837,-3.907 57.855,-0.091 0,-0.002 6.511,0 0,-13.301 c 0,0 3.442,-1.209 8.65,-1.209 5.21,0 7.442,1.209 7.442,1.209 l 0,13.301 7.906,0 0,-0.093 L 0,0 Z"
             style="fill:#a5adb0;fill-opacity:1;fill-rule:nonzero;stroke:none"
             id="path618" />
        </g>
        <g
           id="g620"
           transform="translate(399.1245,283.83929)">
          <path
             d="m 0,0 c 7.048,4.398 15.171,9.505 20.764,15.765 2.169,2.428 4.567,5.95 7.21,7.859 6.251,4.513 12.976,5.167 20.789,1.676 2.58,-1.153 4.105,-1.55 7.255,-4.05 5.332,-4.232 10.352,-7.711 14.929,-12.849 3.95,-4.434 9.139,-5.332 14.999,-6.517 4.883,-5.302 4.941,-9.401 5.325,-15.767 0.499,-8.303 1.178,-16.539 0.419,-24.802 -1.279,-13.864 -1.712,-27.415 -8.468,-39.933 -2.027,-3.749 -4.387,-6.477 -7.256,-8.522 -2.869,-2.046 -7.761,-3.749 -12.652,-3.92 -4.895,-0.172 -8.269,0 -12.319,0.512 -4.047,0.511 -11.302,1.703 -16.026,3.408 -4.724,1.704 -17.209,6.819 -20.076,8.353 -2.869,1.534 -18.684,9.119 -18.684,9.119 l -2.232,-2.327 11.534,-6.191 c 0,0 8.906,-5.979 13.124,-8.026 4.217,-2.045 11.446,-4.467 17.013,-5.661 5.568,-1.194 12.593,-2.173 18.836,-2.513 6.242,-0.341 9.879,-0.48 13.254,-0.141 3.373,0.341 10.604,2.235 14.807,5.512 4.295,3.346 8.437,8.694 10.798,12.785 9.516,16.48 10.684,37.202 13.16,55.74 3.137,23.477 -1.349,52.416 -14.173,65.456 -1.713,1.743 -13.244,4.858 -13.244,4.858 L 15.145,49.739 0,0 Z"
             style="fill:#e0001a;fill-opacity:1;fill-rule:nonzero;stroke:none"
             id="path622" />
        </g>
        <g
           id="g624"
           transform="translate(406.1077,305.1976)">
          <path
             d="m 0,0 -1.855,-4.943 c 0,0 7.673,2.259 8.573,2.712 0.899,0.456 6.646,6.691 6.646,6.691 0,0 -5.66,-2.131 -7.459,-2.926 C 4.105,0.738 0,0 0,0"
             style="fill:#ffffff;fill-opacity:1;fill-rule:nonzero;stroke:none"
             id="path626" />
        </g>
        <g
           id="g628"
           transform="translate(453.82629,314.9678)">
          <path
             d="m 0,0 c -2.01,1.072 -4.51,2.109 -4.51,2.109 0,0 3.335,0.762 11.545,-2.079 8.21,-2.841 15.579,-9.716 17.66,-11.705 3.334,-3.187 6.632,-6.443 9.001,-10.458 1.771,-3.006 2.926,-6.384 4.221,-9.617 0.311,-0.777 0.538,-1.643 0.893,-2.397 -3.964,8.438 -10.882,14.971 -18.485,21.435 -4.83,4.107 -10.015,8.099 -16.1,10.021 C 3.29,-2.396 2.169,-1.159 0,0"
             style="fill:#ffffff;fill-opacity:1;fill-rule:nonzero;stroke:none"
             id="path630" />
        </g>
        <g
           id="g632"
           transform="translate(406.8383,308.54919)">
          <path
             d="m 0,0 c 0,0 9.203,3.551 12.915,5.085 3.712,1.535 12.653,5.455 16.871,6.478 9.818,2.38 22.149,2.378 31.044,-3.239 2.697,-1.704 6.918,-5.114 8.94,-7.5 2.024,-2.387 4.876,-5.917 6.581,-7.927 2.024,-2.386 8.927,-13.77 8.927,-13.77 0,0 -2.419,9.364 -7.115,16.324 -3.882,5.754 -8.682,11.484 -14.42,15.51 -4.81,3.373 -11.452,6.791 -17.367,7.42 C 43.17,18.721 36.76,18.267 33.554,17.585 30.348,16.904 16.964,11.903 13.252,10.369 9.541,8.835 1.688,5.569 1.688,5.569 L 0,0 Z"
             style="fill:#ffffff;fill-opacity:1;fill-rule:nonzero;stroke:none"
             id="path634" />
        </g>
        <g
           id="g636"
           transform="translate(488.6295,285.4438)">
          <path
             d="m 0,0 c -0.047,0 -0.095,0.012 -0.139,0.037 -0.033,0.019 -3.403,1.929 -4.989,2.564 -0.715,0.286 -1.06,0.343 -1.582,0.427 -0.475,0.077 -1.065,0.173 -2.154,0.471 -2.818,0.767 -5.329,2.879 -7.544,4.743 l -0.705,0.592 c -1.978,1.649 -3.793,3.514 -5.549,5.318 -0.51,0.524 -1.021,1.048 -1.535,1.568 -1.216,1.229 -2.604,2.41 -3.946,3.551 -0.94,0.8 -1.913,1.628 -2.812,2.46 -5.566,5.157 -12.719,8.235 -19.138,8.235 -3.906,0 -7.495,-1.083 -10.667,-3.22 -2.816,-1.896 -5.417,-4.671 -7.934,-7.356 -1.674,-1.788 -3.257,-3.476 -4.905,-4.934 -3.908,-3.458 -14.218,-11.379 -14.32,-11.459 -0.051,-0.038 -0.111,-0.058 -0.172,-0.058 -0.055,0 -0.112,0.018 -0.16,0.051 -0.099,0.071 -0.142,0.197 -0.104,0.314 l 2.194,6.819 c 0.019,0.06 0.059,0.112 0.112,0.148 0.029,0.019 2.877,1.883 4.534,3.221 0.557,0.451 1.225,0.932 1.933,1.442 1.473,1.061 3.142,2.262 4.602,3.737 0.616,0.622 1.581,1.624 2.696,2.782 2.829,2.936 6.702,6.957 8.288,8.313 3.306,2.827 8.477,4.515 13.831,4.515 1.769,0 3.552,-0.179 5.301,-0.532 3.552,-0.718 7.048,-2.358 9.357,-3.608 5.539,-2.998 10.726,-7.962 15.742,-12.761 C -15.03,12.851 -10.559,8.571 -5.934,5.963 -4.57,5.196 -0.946,1.679 0.201,0.471 0.296,0.371 0.304,0.217 0.219,0.108 0.165,0.037 0.082,0 0,0"
             style="fill:#ffffff;fill-opacity:1;fill-rule:nonzero;stroke:none"
             id="path638" />
        </g>
        <g
           id="g640"
           transform="translate(438.4644,320.0034)">
          <path
             d="m 0,0 c -5.419,0 -10.657,-1.713 -14.012,-4.581 -1.598,-1.366 -5.479,-5.395 -8.313,-8.338 -1.113,-1.155 -2.074,-2.153 -2.688,-2.773 -1.445,-1.461 -3.107,-2.657 -4.574,-3.712 -0.708,-0.51 -1.377,-0.991 -1.939,-1.446 -1.646,-1.33 -4.482,-3.187 -4.51,-3.205 -0.107,-0.07 -0.187,-0.175 -0.226,-0.297 l -2.193,-6.818 c -0.075,-0.233 0.01,-0.487 0.21,-0.628 0.096,-0.068 0.209,-0.101 0.321,-0.101 0.12,0 0.24,0.038 0.34,0.115 0.104,0.079 10.42,8.006 14.334,11.47 1.659,1.467 3.246,3.161 4.926,4.954 2.505,2.673 5.096,5.437 7.885,7.316 3.125,2.104 6.661,3.171 10.51,3.171 6.349,0 13.434,-3.05 18.95,-8.16 0.903,-0.837 1.878,-1.666 2.821,-2.468 1.338,-1.138 2.72,-2.314 3.927,-3.534 0.514,-0.519 1.022,-1.042 1.531,-1.564 1.761,-1.809 3.583,-3.681 5.573,-5.341 0.23,-0.191 0.462,-0.387 0.698,-0.585 2.239,-1.885 4.777,-4.021 7.657,-4.806 1.102,-0.301 1.701,-0.398 2.184,-0.476 0.52,-0.085 0.836,-0.136 1.522,-0.411 1.569,-0.627 4.921,-2.529 4.954,-2.548 0.087,-0.049 0.182,-0.073 0.275,-0.073 0.168,0 0.331,0.075 0.441,0.215 0.17,0.218 0.155,0.528 -0.036,0.728 -1.154,1.215 -4.809,4.76 -6.2,5.543 -4.594,2.591 -9.054,6.859 -13.776,11.377 -5.03,4.811 -10.23,9.787 -15.802,12.803 -2.326,1.259 -5.849,2.911 -9.433,3.635 C 3.59,-0.181 1.788,0 0,0 m 0,-0.558 c 1.704,0 3.465,-0.167 5.246,-0.527 3.131,-0.633 6.477,-2.063 9.279,-3.579 10.615,-5.747 19.897,-18.721 29.57,-24.175 1.262,-0.71 4.743,-4.046 6.069,-5.442 0,0 -3.4,1.932 -5.023,2.581 -1.395,0.559 -1.465,0.28 -3.767,0.907 -3.056,0.834 -5.761,3.296 -8.144,5.282 -2.529,2.11 -4.747,4.528 -7.064,6.868 -2.082,2.104 -4.594,4.008 -6.766,6.02 -5.181,4.799 -12.284,8.308 -19.329,8.308 -3.721,0 -7.426,-0.979 -10.822,-3.266 -4.671,-3.148 -8.686,-8.615 -12.869,-12.315 -3.945,-3.491 -14.304,-11.445 -14.304,-11.445 l 2.193,6.819 c 0,0 2.868,1.874 4.556,3.238 1.687,1.364 4.365,2.983 6.559,5.199 2.193,2.215 8.773,9.204 10.967,11.079 3.119,2.669 8.086,4.448 13.649,4.448"
             style="fill:#ec1400;fill-opacity:1;fill-rule:nonzero;stroke:none"
             id="path642" />
        </g>
        <g
           id="g644"
           transform="translate(453.4301,333.6638)">
          <path
             d="m 0,0 1.098,-2.216 c 0,0 7.573,-2.302 11.62,-4.347 4.05,-2.046 10.799,-6.136 15.69,-12.955 4.893,-6.818 8.099,-12.955 9.28,-17.046 1.181,-4.091 2.868,-12.785 3.205,-17.728 0.339,-4.943 1.011,-13.978 0.845,-18.58 0,0 -1.182,-14.49 -1.519,-19.092 -0.825,-11.254 -2.713,-21.818 -7.087,-32.217 -2.867,-6.817 -4.049,-8.692 -6.58,-11.419 -2.531,-2.728 -8.603,-6.82 -8.603,-6.82 0,0 4.597,1.045 7.297,3.092 2.698,2.045 5.693,4.579 8.393,9.862 2.699,5.285 5.736,11.592 7.593,20.287 1.855,8.692 3.036,20.625 3.71,28.807 0,0 0.844,17.045 -0.337,27.955 -0.487,4.49 -0.807,9.07 -1.949,13.453 -1.468,5.631 -3.662,11.339 -6.487,16.377 -2.765,4.935 -6.596,9.302 -10.686,13.24 C 21.886,-5.882 12.316,0 12.316,0 L 0,0 Z"
             style="fill:#ffffff;fill-opacity:1;fill-rule:nonzero;stroke:none"
             id="path646" />
        </g>
        <g
           id="g648"
           transform="translate(408.52589,314.1178)">
          <path
             d="m 0,0 5.744,19.461 39.16,0.085 2.006,-4.262 0.779,-2.954 c 0,0 -2.888,0.822 -11.099,-0.087 -8.211,-0.908 -17.883,-5 -17.883,-5 L 0,0 Z"
             style="fill:#000d44;fill-opacity:1;fill-rule:nonzero;stroke:none"
             id="path650" />
        </g>
        <g
           id="g652"
           transform="translate(473.33279,333.6638)">
          <path
             d="m 0,0 c 0,0 3.037,0.113 5.061,0 2.025,-0.114 11.544,-7.757 16.268,-16.961 5.502,-10.724 9.274,-23.313 9.604,-35.425 0.341,-12.611 -0.891,-26.098 -2.856,-38.554 -1.857,-11.762 -3.374,-19.093 -5.737,-25.57 -2.362,-6.478 -6.951,-13.796 -6.951,-13.796 0,0 7.625,15.671 9.82,29.649 1.84,11.734 2.596,23.69 3.203,35.545 0.567,11.003 -0.765,22.068 -4.046,32.639 -2.7,8.693 -6.244,15.512 -10.968,20.796 C 8.676,-6.393 0,0 0,0"
             style="fill:#ffffff;fill-opacity:1;fill-rule:nonzero;stroke:none"
             id="path654" />
        </g>
        <g
           id="g656"
           transform="translate(398.9454,211.1301)">
          <path
             d="m 0,0 c 0.002,0 13.267,-8.645 18.666,-11.203 4.187,-1.983 8.983,-4.122 13.394,-5.587 4.182,-1.39 8.741,-1.982 13.126,-2.243 2.868,-0.17 5.315,-0.085 5.315,-0.085 -9.061,1.691 -16.368,3.253 -25.975,7.207 -6.627,2.727 -12.703,6.572 -19.183,9.64 C 3.805,-1.545 3.206,-1.363 0,0"
             style="fill:#ffffff;fill-opacity:1;fill-rule:nonzero;stroke:none"
             id="path658" />
        </g>
        <g
           id="g660"
           transform="translate(418.65379,331.69901)">
          <path
             d="m 0,0 -1.184,-0.884 0.683,-1.367 -1.492,0.82 -1.438,-0.892 0.591,1.399 -1.246,0.825 1.566,0.037 0.447,1.396 0.518,-1.372 L 0,0 Z"
             style="fill:#ffffff;fill-opacity:1;fill-rule:evenodd;stroke:none"
             id="path662" />
        </g>
        <g
           id="g664"
           transform="translate(427.13139,331.4865)">
          <path
             d="m 0,0 -1.184,-0.883 0.683,-1.368 -1.492,0.821 -1.437,-0.893 0.591,1.4 -1.247,0.825 1.567,0.037 0.446,1.396 0.518,-1.373 L 0,0 Z"
             style="fill:#ffffff;fill-opacity:1;fill-rule:evenodd;stroke:none"
             id="path666" />
        </g>
        <g
           id="g668"
           transform="translate(435.35069,331.5513)">
          <path
             d="m 0,0 -1.185,-0.883 0.683,-1.368 -1.493,0.82 -1.436,-0.892 0.591,1.399 -1.247,0.825 1.567,0.038 0.446,1.395 0.517,-1.373 L 0,0 Z"
             style="fill:#ffffff;fill-opacity:1;fill-rule:evenodd;stroke:none"
             id="path670" />
        </g>
        <g
           id="g672"
           transform="translate(443.40649,331.7955)">
          <path
             d="m 0,0 -1.184,-0.883 0.684,-1.368 -1.493,0.821 -1.437,-0.893 0.592,1.399 -1.248,0.826 1.567,0.037 0.446,1.395 0.518,-1.372 L 0,0 Z"
             style="fill:#ffffff;fill-opacity:1;fill-rule:evenodd;stroke:none"
             id="path674" />
        </g>
        <g
           id="g676"
           transform="translate(452.03979,331.9971)">
          <path
             d="m 0,0 -1.185,-0.883 0.684,-1.368 -1.494,0.82 -1.435,-0.892 0.591,1.4 -1.247,0.824 1.566,0.037 0.447,1.396 0.518,-1.372 L 0,0 Z"
             style="fill:#ffffff;fill-opacity:1;fill-rule:evenodd;stroke:none"
             id="path678" />
        </g>
        <g
           id="g680"
           transform="translate(421.41811,326.95551)">
          <path
             d="m 0,0 -1.185,-0.883 0.684,-1.368 -1.492,0.821 -1.438,-0.893 0.591,1.4 -1.246,0.825 1.566,0.037 0.447,1.396 0.518,-1.373 L 0,0 Z"
             style="fill:#ffffff;fill-opacity:1;fill-rule:evenodd;stroke:none"
             id="path682" />
        </g>
        <g
           id="g684"
           transform="translate(430.25,327.3022)">
          <path
             d="m 0,0 -1.185,-0.883 0.684,-1.368 -1.492,0.82 -1.437,-0.892 0.592,1.399 -1.248,0.826 1.567,0.037 0.446,1.395 0.518,-1.372 L 0,0 Z"
             style="fill:#ffffff;fill-opacity:1;fill-rule:evenodd;stroke:none"
             id="path686" />
        </g>
        <g
           id="g688"
           transform="translate(438.4688,327.36591)">
          <path
             d="m 0,0 -1.185,-0.883 0.684,-1.367 -1.493,0.82 -1.437,-0.893 0.591,1.399 -1.246,0.826 1.567,0.037 0.445,1.396 0.518,-1.372 L 0,0 Z"
             style="fill:#ffffff;fill-opacity:1;fill-rule:evenodd;stroke:none"
             id="path690" />
        </g>
        <g
           id="g692"
           transform="translate(446.5262,327.6107)">
          <path
             d="m 0,0 -1.185,-0.883 0.684,-1.368 -1.494,0.821 -1.436,-0.893 0.591,1.399 -1.247,0.826 1.567,0.037 0.446,1.396 0.517,-1.373 L 0,0 Z"
             style="fill:#ffffff;fill-opacity:1;fill-rule:evenodd;stroke:none"
             id="path694" />
        </g>
        <g
           id="g696"
           transform="translate(416.36749,321.9455)">
          <path
             d="m 0,0 -1.184,-0.883 0.684,-1.368 -1.493,0.82 -1.438,-0.892 0.592,1.399 -1.247,0.825 1.567,0.038 0.446,1.395 0.518,-1.372 L 0,0 Z"
             style="fill:#ffffff;fill-opacity:1;fill-rule:evenodd;stroke:none"
             id="path698" />
        </g>
        <g
           id="g700"
           transform="translate(426.714,322.26711)">
          <path
             d="m 0,0 -1.185,-0.884 0.683,-1.367 -1.491,0.821 -1.438,-0.892 0.592,1.398 -1.247,0.826 1.566,0.036 0.447,1.396 0.518,-1.373 L 0,0 Z"
             style="fill:#ffffff;fill-opacity:1;fill-rule:evenodd;stroke:none"
             id="path702" />
        </g>
      </g>
    </g>
    <g
       id="g704"
       transform="matrix(26.90305,0,0,-26.90305,1519.2313,-3832.5814)">
      <path
         d="m 0,0 -2.447,-6.378 1.152,0 0.598,1.688 2.546,0 0.599,-1.688 1.197,0 L 1.188,0 0,0 Z m 0.572,-1.099 0.027,0 0.955,-2.742 -1.947,0 0.965,2.742 z"
         style="fill:#ffffff;fill-opacity:1;fill-rule:nonzero;stroke:none"
         id="path706" />
    </g>
    <g
       transform="matrix(26.90305,0,0,-26.90305,-9645.6047,5373.0068)"
       id="g708">
      <g
         id="g710">
        <g
           id="g716"
           transform="translate(420.369,339.2733)">
          <path
             d="m 0,0 1.831,0 c 0.706,0 1.09,0.348 1.09,1.019 0,0.812 -0.527,0.973 -1.107,0.973 L 0,1.992 0,0 Z m -1.117,2.903 3.047,0 c 1.393,0 2.108,-0.643 2.108,-1.724 0,-1.224 -0.849,-1.536 -1.054,-1.608 l 0,-0.017 c 0.384,-0.054 0.947,-0.34 0.947,-1.349 0,-0.742 0.107,-1.421 0.348,-1.68 l -1.197,0 c -0.17,0.277 -0.17,0.625 -0.17,0.938 0,1.17 -0.241,1.688 -1.268,1.688 l -1.644,0 0,-2.626 -1.117,0 0,6.378 z"
             style="fill:#ffffff;fill-opacity:1;fill-rule:nonzero;stroke:none"
             id="path718" />
        </g>
        <g
           id="g720"
           transform="translate(429.8445,340.14861)">
          <path
             d="m 0,0 c -0.188,0.733 -0.661,1.269 -1.59,1.269 -1.367,0 -1.939,-1.206 -1.939,-2.43 0,-1.224 0.572,-2.43 1.939,-2.43 0.992,0 1.536,0.741 1.626,1.671 l 1.09,0 c -0.09,-1.528 -1.171,-2.582 -2.716,-2.582 -1.911,0 -3.055,1.518 -3.055,3.341 0,1.822 1.144,3.341 3.055,3.341 C -0.152,2.171 0.983,1.376 1.117,0 L 0,0 Z"
             style="fill:#ffffff;fill-opacity:1;fill-rule:nonzero;stroke:none"
             id="path722" />
        </g>
        <g
           id="g724"
           transform="translate(431.95889,342.1765)">
          <path
             d="m 0,0 1.117,0 0,-2.537 2.903,0 0,2.537 1.117,0 0,-6.378 -1.117,0 0,2.877 -2.903,0 0,-2.877 L 0,-6.378 0,0 Z"
             style="fill:#ffffff;fill-opacity:1;fill-rule:nonzero;stroke:none"
             id="path726" />
        </g>
        <g
           id="g728"
           transform="translate(439.7457,338.3354)">
          <path
             d="M 0,0 1.948,0 0.992,2.742 0.965,2.742 0,0 Z m 0.393,3.841 1.188,0 2.457,-6.378 -1.197,0 -0.599,1.688 -2.546,0 -0.598,-1.688 -1.152,0 2.447,6.378 z"
             style="fill:#ffffff;fill-opacity:1;fill-rule:nonzero;stroke:none"
             id="path730" />
        </g>
        <g
           id="g732"
           transform="translate(444.3707,342.1765)">
          <path
             d="m 0,0 1.572,0 1.76,-4.994 0.018,0 L 5.065,0 6.62,0 l 0,-6.378 -1.063,0 0,4.922 -0.019,0 -1.768,-4.922 -0.92,0 -1.769,4.922 -0.018,0 0,-4.922 L 0,-6.378 0,0 Z"
             style="fill:#ffffff;fill-opacity:1;fill-rule:nonzero;stroke:none"
             id="path734" />
        </g>
        <g
           id="g736"
           transform="translate(453.4431,336.70959)">
          <path
             d="m 0,0 1.975,0 c 0.678,0 1.071,0.366 1.071,1.01 0,0.625 -0.393,0.982 -1.071,0.982 L 0,1.992 0,0 Z m 0,2.796 1.822,0 c 0.536,0 0.938,0.313 0.938,0.885 0,0.643 -0.33,0.875 -0.938,0.875 L 0,4.556 0,2.796 Z m -1.117,2.671 3.1,0 c 1.144,0 1.893,-0.518 1.893,-1.581 0,-0.644 -0.33,-1.108 -0.911,-1.358 l 0,-0.018 C 3.743,2.34 4.163,1.733 4.163,0.866 c 0,-1 -0.697,-1.777 -2.35,-1.777 l -2.93,0 0,6.378 z"
             style="fill:#ffffff;fill-opacity:1;fill-rule:nonzero;stroke:none"
             id="path738" />
        </g>
        <g
           id="g740"
           transform="translate(459.92599,338.3354)">
          <path
             d="M 0,0 1.947,0 0.991,2.742 0.965,2.742 0,0 Z m 0.393,3.841 1.188,0 2.456,-6.378 -1.196,0 -0.599,1.688 -2.546,0 -0.598,-1.688 -1.153,0 2.448,6.378 z"
             style="fill:#ffffff;fill-opacity:1;fill-rule:nonzero;stroke:none"
             id="path742" />
        </g>
        <g
           id="g744"
           transform="translate(464.49699,342.1765)">
          <path
             d="m 0,0 1.117,0 0,-3.716 c 0,-0.858 0.053,-1.849 1.5,-1.849 1.448,0 1.501,0.991 1.501,1.849 l 0,3.716 1.117,0 0,-4.082 C 5.235,-5.717 4.19,-6.53 2.617,-6.53 1.045,-6.53 0,-5.717 0,-4.082 L 0,0 Z"
             style="fill:#ffffff;fill-opacity:1;fill-rule:nonzero;stroke:none"
             id="path746" />
        </g>
        <g
           id="g748"
           transform="translate(471.0153,342.1765)">
          <path
             d="m 0,0 1.117,0 0,-5.413 3.243,0 0,-0.965 -4.36,0 L 0,0 Z"
             style="fill:#ffffff;fill-opacity:1;fill-rule:nonzero;stroke:none"
             id="path750" />
        </g>
        <g
           id="g752"
           transform="translate(474.7122,342.1765)">
          <path
             d="m 0,0 5.163,0 0,-0.965 -2.028,0 0,-5.413 -1.116,0 0,5.413 L 0,-0.965 0,0 Z"
             style="fill:#ffffff;fill-opacity:1;fill-rule:nonzero;stroke:none"
             id="path754" />
        </g>
        <g
           id="g756"
           transform="translate(375.7943,180.01871)">
          <path
             d="m 0,0 c 0,-0.983 0.724,-1.367 1.617,-1.367 0.983,0 1.349,0.482 1.349,0.965 0,0.491 -0.268,0.688 -0.527,0.786 -0.447,0.17 -1.028,0.286 -1.903,0.527 -1.09,0.295 -1.411,0.956 -1.411,1.617 0,1.278 1.179,1.876 2.331,1.876 1.331,0 2.448,-0.706 2.448,-2.037 l -1.117,0 C 2.734,3.189 2.18,3.493 1.411,3.493 0.893,3.493 0.242,3.306 0.242,2.663 0.242,2.216 0.545,1.965 1.001,1.841 1.099,1.813 2.51,1.447 2.841,1.349 c 0.84,-0.25 1.241,-0.965 1.241,-1.626 0,-1.43 -1.268,-2.001 -2.536,-2.001 -1.457,0 -2.636,0.697 -2.662,2.278 L 0,0 Z"
             style="fill:#ffffff;fill-opacity:1;fill-rule:nonzero;stroke:none"
             id="path758" />
        </g>
        <g
           id="g760"
           transform="translate(380.22301,184.2709)">
          <path
             d="m 0,0 1.135,0 1.152,-4.877 0.017,0 1.287,4.877 1.143,0 1.251,-4.877 0.018,0 1.188,4.877 1.135,0 -1.76,-6.378 -1.135,0 -1.277,4.878 -0.018,0 -1.304,-4.878 -1.153,0 L 0,0 Z"
             style="fill:#ffffff;fill-opacity:1;fill-rule:nonzero;stroke:none"
             id="path762" />
        </g>
        <g
           id="g764"
           transform="translate(390.3672,180.4296)">
          <path
             d="M 0,0 1.948,0 0.992,2.742 0.965,2.742 0,0 Z m 0.393,3.841 1.188,0 2.457,-6.378 -1.197,0 -0.599,1.688 -2.546,0 -0.598,-1.688 -1.152,0 2.447,6.378 z"
             style="fill:#ffffff;fill-opacity:1;fill-rule:nonzero;stroke:none"
             id="path766" />
        </g>
        <g
           id="g768"
           transform="translate(394.96519,184.2709)">
          <path
             d="m 0,0 1.179,0 2.912,-4.699 0.018,0 0,4.699 1.063,0 0,-6.378 -1.179,0 -2.903,4.69 -0.027,0 0,-4.69 L 0,-6.378 0,0 Z"
             style="fill:#ffffff;fill-opacity:1;fill-rule:nonzero;stroke:none"
             id="path770" />
        </g>
        <g
           id="g772"
           transform="translate(402.1893,180.01871)">
          <path
             d="m 0,0 c 0,-0.983 0.724,-1.367 1.617,-1.367 0.983,0 1.349,0.482 1.349,0.965 0,0.491 -0.268,0.688 -0.527,0.786 -0.447,0.17 -1.028,0.286 -1.903,0.527 -1.09,0.295 -1.411,0.956 -1.411,1.617 0,1.278 1.179,1.876 2.331,1.876 1.331,0 2.448,-0.706 2.448,-2.037 l -1.117,0 C 2.734,3.189 2.18,3.493 1.411,3.493 0.893,3.493 0.242,3.306 0.242,2.663 0.242,2.216 0.545,1.965 1.001,1.841 1.099,1.813 2.51,1.447 2.841,1.349 c 0.84,-0.25 1.241,-0.965 1.241,-1.626 0,-1.43 -1.268,-2.001 -2.536,-2.001 -1.457,0 -2.636,0.697 -2.662,2.278 L 0,0 Z"
             style="fill:#ffffff;fill-opacity:1;fill-rule:nonzero;stroke:none"
             id="path774" />
        </g>
        <g
           id="g776"
           transform="translate(408.0204,181.082)">
          <path
             d="m 0,0 c 0,-1.224 0.572,-2.43 1.939,-2.43 1.366,0 1.938,1.206 1.938,2.43 0,1.223 -0.572,2.43 -1.938,2.43 C 0.572,2.43 0,1.223 0,0 m 4.994,0 c 0,-1.823 -1.144,-3.341 -3.055,-3.341 -1.912,0 -3.055,1.518 -3.055,3.341 0,1.822 1.143,3.341 3.055,3.341 C 3.85,3.341 4.994,1.822 4.994,0"
             style="fill:#ffffff;fill-opacity:1;fill-rule:nonzero;stroke:none"
             id="path778" />
        </g>
        <g
           id="g780"
           transform="translate(413.985,184.2709)">
          <path
             d="m 0,0 1.179,0 2.912,-4.699 0.018,0 0,4.699 1.063,0 0,-6.378 -1.179,0 -2.903,4.69 -0.027,0 0,-4.69 L 0,-6.378 0,0 Z"
             style="fill:#ffffff;fill-opacity:1;fill-rule:nonzero;stroke:none"
             id="path782" />
        </g>
        <g
           id="g784"
           transform="translate(477.0759,180.5228)">
          <path
             d="M 0,0 1.947,0 0.991,2.742 0.965,2.742 0,0 Z m 0.393,3.841 1.188,0 2.457,-6.378 -1.197,0 -0.599,1.688 -2.546,0 -0.598,-1.688 -1.152,0 2.447,6.378 z"
             style="fill:#ffffff;fill-opacity:1;fill-rule:nonzero;stroke:none"
             id="path786" />
        </g>
        <g
           id="g788"
           transform="translate(486.0244,182.33611)">
          <path
             d="m 0,0 c -0.188,0.733 -0.661,1.268 -1.591,1.268 -1.366,0 -1.937,-1.205 -1.937,-2.429 0,-1.224 0.571,-2.43 1.937,-2.43 0.993,0 1.537,0.741 1.627,1.671 l 1.09,0 c -0.09,-1.528 -1.171,-2.582 -2.717,-2.582 -1.91,0 -3.054,1.518 -3.054,3.341 0,1.822 1.144,3.34 3.054,3.34 C -0.151,2.171 0.983,1.376 1.117,0 L 0,0 Z"
             style="fill:#ffffff;fill-opacity:1;fill-rule:nonzero;stroke:none"
             id="path790" />
        </g>
        <g
           id="g792"
           transform="translate(489.47861,180.5228)">
          <path
             d="M 0,0 1.948,0 0.992,2.742 0.965,2.742 0,0 Z m 0.393,3.841 1.189,0 2.455,-6.378 -1.196,0 -0.599,1.688 -2.546,0 -0.598,-1.688 -1.153,0 2.448,6.378 z"
             style="fill:#ffffff;fill-opacity:1;fill-rule:nonzero;stroke:none"
             id="path794" />
        </g>
        <g
           id="g796"
           transform="translate(495.2383,178.89709)">
          <path
             d="m 0,0 1.974,0 c 0.679,0 1.071,0.366 1.071,1.01 0,0.625 -0.392,0.982 -1.071,0.982 L 0,1.992 0,0 Z m 0,2.796 1.822,0 c 0.536,0 0.938,0.313 0.938,0.885 0,0.643 -0.33,0.875 -0.938,0.875 L 0,4.556 0,2.796 Z m -1.117,2.671 3.1,0 c 1.143,0 1.893,-0.518 1.893,-1.581 0,-0.644 -0.33,-1.108 -0.911,-1.358 l 0,-0.018 C 3.743,2.34 4.163,1.732 4.163,0.866 c 0,-1 -0.697,-1.777 -2.35,-1.777 l -2.93,0 0,6.378 z"
             style="fill:#ffffff;fill-opacity:1;fill-rule:nonzero;stroke:none"
             id="path798" />
        </g>
        <g
           id="g800"
           transform="translate(501.7207,180.5228)">
          <path
             d="M 0,0 1.948,0 0.992,2.742 0.965,2.742 0,0 Z m 0.393,3.841 1.189,0 2.456,-6.378 -1.197,0 -0.599,1.688 -2.545,0 -0.599,-1.688 -1.152,0 2.447,6.378 z"
             style="fill:#ffffff;fill-opacity:1;fill-rule:nonzero;stroke:none"
             id="path802" />
        </g>
        <g
           id="g804"
           transform="translate(507.87489,242.5455)">
          <path
             d="M 0,0 0.586,-1.857 2.914,-0.121 2.906,-0.095 0,0 Z m 3.782,0.78 0.357,-1.132 -5.343,-4.262 -0.361,1.142 1.431,1.078 -0.766,2.429 -1.791,0.062 -0.346,1.1 6.819,-0.417 z"
             style="fill:#ffffff;fill-opacity:1;fill-rule:nonzero;stroke:none"
             id="path806" />
        </g>
        <g
           id="g808"
           transform="translate(512.92171,239.3158)">
          <path
             d="m 0,0 0.354,-1.125 -3.604,-4.19 0.005,-0.018 4.481,1.415 0.319,-1.014 -6.082,-1.919 -0.355,1.124 3.599,4.18 -0.008,0.025 -4.472,-1.41 -0.32,1.013 L 0,0 Z"
             style="fill:#ffffff;fill-opacity:1;fill-rule:nonzero;stroke:none"
             id="path810" />
        </g>
        <g
           id="g812"
           transform="translate(514.6913,233.7043)">
          <path
             d="m 0,0 1.553,-4.924 -0.92,-0.291 -0.61,1.935 -5.162,-1.629 -0.336,1.065 5.162,1.628 L -0.92,-0.291 0,0 Z"
             style="fill:#ffffff;fill-opacity:1;fill-rule:nonzero;stroke:none"
             id="path814" />
        </g>
        <g
           id="g816"
           transform="translate(513.6597,226.3745)">
          <path
             d="m 0,0 c -1.168,-0.368 -2.146,-1.276 -1.734,-2.579 0.411,-1.304 1.733,-1.486 2.9,-1.118 1.167,0.368 2.146,1.276 1.734,2.58 C 2.489,0.186 1.167,0.368 0,0 m 1.502,-4.762 c -1.738,-0.549 -3.53,0.085 -4.105,1.908 -0.575,1.823 0.529,3.371 2.267,3.919 C 1.402,1.613 3.194,0.98 3.769,-0.844 4.344,-2.667 3.24,-4.214 1.502,-4.762"
             style="fill:#ffffff;fill-opacity:1;fill-rule:nonzero;stroke:none"
             id="path818" />
        </g>
        <g
           id="g820"
           transform="translate(518.4949,221.646)">
          <path
             d="m 0,0 0.355,-1.125 -3.605,-4.19 0.005,-0.018 4.481,1.414 0.32,-1.014 -6.083,-1.918 -0.354,1.124 3.599,4.18 -0.009,0.025 -4.472,-1.411 -0.319,1.014 L 0,0 Z"
             style="fill:#ffffff;fill-opacity:1;fill-rule:nonzero;stroke:none"
             id="path822" />
        </g>
        <g
           id="g824"
           transform="translate(520.44769,215.4547)">
          <path
             d="m 0,0 1.382,-4.378 -0.921,-0.29 -1.045,3.313 -1.593,-0.502 0.967,-3.067 -0.869,-0.274 -0.967,3.067 -1.78,-0.562 1.064,-3.374 -0.92,-0.29 -1.4,4.438 L 0,0 Z"
             style="fill:#ffffff;fill-opacity:1;fill-rule:nonzero;stroke:none"
             id="path826" />
        </g>
        <g
           id="g828"
           transform="translate(522.14,210.09019)">
          <path
             d="m 0,0 0.337,-1.065 -5.163,-1.629 0.975,-3.092 -0.92,-0.29 -1.311,4.157 L 0,0 Z"
             style="fill:#ffffff;fill-opacity:1;fill-rule:nonzero;stroke:none"
             id="path830" />
        </g>
        <g
           id="g832"
           transform="translate(523.68179,205.202)">
          <path
             d="m 0,0 0.337,-1.065 -5.163,-1.628 0.975,-3.093 -0.92,-0.29 -1.311,4.157 L 0,0 Z"
             style="fill:#ffffff;fill-opacity:1;fill-rule:nonzero;stroke:none"
             id="path834" />
        </g>
        <g
           id="g836"
           transform="translate(525.2236,200.3143)">
          <path
             d="M 0,0 0.336,-1.065 -5.747,-2.984 -6.082,-1.919 0,0 Z"
             style="fill:#ffffff;fill-opacity:1;fill-rule:nonzero;stroke:none"
             id="path838" />
        </g>
        <g
           id="g840"
           transform="translate(394.0518,287.1284)">
          <path
             d="M 0,0 0.479,1.563 C 0.627,2.041 0.569,2.703 -0.199,2.94 -1.002,3.186 -1.357,2.762 -1.53,2.199 L -2.015,0.619 0,0 Z m -3.215,-0.181 0.827,2.69 c 0.536,1.742 1.765,1.729 2.525,1.495 0.751,-0.231 1.777,-0.91 1.232,-2.65 l -0.498,-1.622 2.34,-0.719 -0.328,-1.067 -6.098,1.873 z"
             style="fill:#ffffff;fill-opacity:1;fill-rule:nonzero;stroke:none"
             id="path842" />
        </g>
        <g
           id="g844"
           transform="translate(392.57919,292.6153)">
          <path
             d="M 0,0 0.328,1.068 2.754,0.323 3.606,3.097 1.18,3.843 1.509,4.91 7.606,3.037 7.277,1.97 4.528,2.814 3.675,0.039 6.425,-0.806 6.097,-1.874 0,0 Z"
             style="fill:#ffffff;fill-opacity:1;fill-rule:nonzero;stroke:none"
             id="path846" />
        </g>
        <g
           id="g848"
           transform="translate(394.4807,298.8033)">
          <path
             d="M 0,0 0.328,1.068 6.425,-0.806 6.097,-1.874 0,0 Z"
             style="fill:#ffffff;fill-opacity:1;fill-rule:nonzero;stroke:none"
             id="path850" />
        </g>
        <g
           id="g852"
           transform="translate(395.21001,301.17661)">
          <path
             d="M 0,0 0.328,1.068 5.503,-0.523 6.455,2.577 7.377,2.293 6.097,-1.874 0,0 Z"
             style="fill:#ffffff;fill-opacity:1;fill-rule:nonzero;stroke:none"
             id="path854" />
        </g>
        <g
           id="g856"
           transform="translate(396.71519,306.0757)">
          <path
             d="M 0,0 0.328,1.068 5.503,-0.523 6.455,2.577 7.378,2.293 6.097,-1.874 0,0 Z"
             style="fill:#ffffff;fill-opacity:1;fill-rule:nonzero;stroke:none"
             id="path858" />
        </g>
        <g
           id="g860"
           transform="translate(398.2206,310.97479)">
          <path
             d="M 0,0 0.328,1.068 6.425,-0.806 6.097,-1.874 0,0 Z"
             style="fill:#ffffff;fill-opacity:1;fill-rule:nonzero;stroke:none"
             id="path862" />
        </g>
        <g
           id="g864"
           transform="translate(402.16431,313.52859)">
          <path
             d="M 0,0 0.48,1.563 C 0.627,2.04 0.569,2.703 -0.199,2.939 -1.002,3.186 -1.357,2.763 -1.53,2.198 L -2.015,0.619 0,0 Z m -3.215,-0.181 0.827,2.69 c 0.536,1.742 1.765,1.729 2.525,1.495 0.752,-0.23 1.777,-0.91 1.233,-2.65 l -0.499,-1.622 2.34,-0.719 -0.328,-1.068 -6.098,1.874 z"
             style="fill:#ffffff;fill-opacity:1;fill-rule:nonzero;stroke:none"
             id="path866" />
        </g>
        <g
           id="g868"
           transform="translate(404.9792,318.4926)">
          <path
             d="M 0,0 C 0.94,-0.289 1.52,0.29 1.781,1.144 2.07,2.083 1.717,2.574 1.256,2.716 0.786,2.861 0.52,2.663 0.349,2.443 0.056,2.067 -0.226,1.545 -0.714,0.779 c -0.601,-0.955 -1.327,-1.068 -1.96,-0.874 -1.221,0.376 -1.446,1.679 -1.108,2.78 0.391,1.273 1.394,2.132 2.666,1.741 L -1.444,3.36 C -2.245,3.549 -2.698,3.109 -2.924,2.375 -3.076,1.88 -3.088,1.201 -2.474,1.012 c 0.427,-0.131 0.756,0.086 1.009,0.484 0.055,0.087 0.819,1.328 1.01,1.615 0.486,0.73 1.287,0.903 1.919,0.71 C 2.83,3.401 3.004,2.02 2.631,0.808 2.203,-0.584 1.192,-1.507 -0.328,-1.068 L 0,0 Z"
             style="fill:#ffffff;fill-opacity:1;fill-rule:nonzero;stroke:none"
             id="path870" />
        </g>
        <g
           id="g872"
           transform="translate(380.7803,237.7565)">
          <path
             d="M 0,0 0.544,1.87 -2.357,1.718 -2.364,1.692 0,0 Z M -3.579,1.45 -3.247,2.591 3.563,3.169 3.229,2.02 1.44,1.916 0.73,-0.529 2.184,-1.574 1.862,-2.681 -3.579,1.45 Z"
             style="fill:#ffffff;fill-opacity:1;fill-rule:nonzero;stroke:none"
             id="path874" />
        </g>
        <g
           id="g876"
           transform="translate(381.4877,243.5488)">
          <path
             d="M 0,0 0.511,1.759 C 0.708,2.436 0.481,2.902 -0.163,3.089 -0.943,3.316 -1.245,2.855 -1.407,2.297 L -1.913,0.556 0,0 Z m -3.1,-0.262 0.851,2.925 C -1.86,4.001 -1.044,4.508 -0.005,4.206 1.17,3.865 1.233,2.963 1.244,2.745 L 1.262,2.74 C 1.42,3.094 1.852,3.554 2.822,3.273 3.533,3.066 4.215,2.979 4.531,3.139 L 4.197,1.989 C 3.884,1.904 3.549,2.001 3.249,2.088 2.125,2.415 1.56,2.328 1.274,1.341 L 0.815,-0.237 3.337,-0.97 3.025,-2.043 -3.1,-0.262 Z"
             style="fill:#ffffff;fill-opacity:1;fill-rule:nonzero;stroke:none"
             id="path878" />
        </g>
        <g
           id="g880"
           transform="translate(380.13,249.2802)">
          <path
             d="M 0,0 0.329,1.132 5.655,2.617 5.66,2.635 1.147,3.946 1.444,4.966 7.569,3.186 7.24,2.054 1.926,0.575 1.919,0.549 6.422,-0.76 6.125,-1.78 0,0 Z"
             style="fill:#ffffff;fill-opacity:1;fill-rule:nonzero;stroke:none"
             id="path882" />
        </g>
        <g
           id="g884"
           transform="translate(385.22211,255.3699)">
          <path
             d="M 0,0 C 1.175,-0.342 2.492,-0.129 2.874,1.183 3.256,2.495 2.257,3.381 1.082,3.722 -0.093,4.065 -1.41,3.852 -1.792,2.54 -2.174,1.227 -1.175,0.342 0,0 M 1.394,4.795 C 3.144,4.286 4.283,2.764 3.749,0.929 3.215,-0.907 1.438,-1.581 -0.312,-1.072 c -1.75,0.508 -2.889,2.03 -2.355,3.866 0.533,1.835 2.311,2.51 4.061,2.001"
             style="fill:#ffffff;fill-opacity:1;fill-rule:nonzero;stroke:none"
             id="path886" />
        </g>
        <g
           id="g888"
           transform="translate(383.8372,262.0304)">
          <path
             d="M 0,0 0.312,1.072 5.51,-0.439 6.415,2.674 7.342,2.405 6.125,-1.781 0,0 Z"
             style="fill:#ffffff;fill-opacity:1;fill-rule:nonzero;stroke:none"
             id="path890" />
        </g>
        <g
           id="g892"
           transform="translate(390.8297,266.49809)">
          <path
             d="M 0,0 0.307,1.055 C 0.796,2.736 -0.06,3.376 -1.288,3.733 -2.514,4.089 -3.58,4.008 -4.068,2.327 L -4.375,1.272 0,0 Z m -5.561,0.454 0.737,2.539 C -4.275,4.88 -2.665,5.296 -0.976,4.805 0.714,4.313 1.85,3.099 1.301,1.212 L 0.564,-1.327 -5.561,0.454 Z"
             style="fill:#ffffff;fill-opacity:1;fill-rule:nonzero;stroke:none"
             id="path894" />
        </g>
        <g
           id="g896"
           transform="translate(414.6469,283.18359)">
          <path
             d="m 0,0 0,5.301 -1.495,0 0,0.996 0.138,0 c 0.996,0 1.611,0.382 1.76,1.209 l 1.123,0 L 1.526,0 0,0 Z"
             style="fill:#ffcc00;fill-opacity:1;fill-rule:nonzero;stroke:none"
             id="path898" />
        </g>
        <g
           id="g900"
           transform="translate(422.313,289.3539)">
          <path
             d="m 0,0 -2.767,0 -0.159,-1.707 0.021,0 c 0.286,0.393 0.731,0.562 1.379,0.562 1.441,0 1.833,-1.208 1.833,-2.396 0,-1.644 -0.477,-2.778 -2.406,-2.778 -1.909,0 -2.216,1.251 -2.216,2.089 l 0,0.201 1.463,0 c 0,-0.498 0.085,-1.229 0.742,-1.229 0.615,0 0.891,0.487 0.891,1.462 0,1.241 -0.191,1.591 -0.88,1.591 -0.435,0 -0.668,-0.265 -0.721,-0.689 l -1.368,0 0.276,4.082 L 0,1.188 0,0 Z"
             style="fill:#ffcc00;fill-opacity:1;fill-rule:nonzero;stroke:none"
             id="path902" />
        </g>
        <g
           id="g904"
           transform="translate(425.1024,286.0356)">
          <path
             d="M 0,0 1.484,0 0.753,3.403 0.732,3.403 0,0 Z m -0.201,4.718 1.887,0 2.004,-7.57 -1.591,0 -0.35,1.601 -2.014,0 -0.35,-1.601 -1.591,0 2.005,7.57 z"
             style="fill:#ffcc00;fill-opacity:1;fill-rule:nonzero;stroke:none"
             id="path906" />
        </g>
        <g
           id="g908"
           transform="translate(461.2972,219.2205)">
          <path
             d="m 0,0 0,9.031 -2.547,0 0,1.698 0.235,0 c 1.697,0 2.745,0.65 2.998,2.059 l 1.915,0 L 2.601,0 0,0 Z"
             style="fill:#ffcc00;fill-opacity:1;fill-rule:nonzero;stroke:none"
             id="path910" />
        </g>
        <g
           id="g912"
           transform="translate(469.9673,219.2205)">
          <path
             d="m 0,0 0,9.031 -2.547,0 0,1.698 0.235,0 c 1.698,0 2.746,0.65 2.998,2.059 l 1.915,0 L 2.601,0 0,0 Z"
             style="fill:#ffcc00;fill-opacity:1;fill-rule:nonzero;stroke:none"
             id="path914" />
        </g>
        <g
           id="g916"
           transform="translate(479.6129,225.3616)">
          <path
             d="M 0,0 C 1.03,0 1.427,0.686 1.427,2.42 1.409,3.883 1.211,4.949 0,4.949 -1.265,4.949 -1.408,3.865 -1.408,2.42 -1.408,0.686 -1.012,0 0,0 m -1.21,-3.161 c 0,-0.957 0.308,-1.535 1.174,-1.535 1.373,0 1.589,1.373 1.589,3.251 l 0,0.614 -0.036,0 c -0.433,-0.65 -1.281,-1.084 -2.402,-1.084 -2.275,0 -3.124,1.698 -3.124,3.992 0,2.926 1.282,4.57 4.136,4.57 3.576,0 4.028,-2.854 4.028,-5.979 0,-3.63 -0.073,-7.062 -4.299,-7.062 -1.842,0 -3.522,0.777 -3.559,3.233 l 2.493,0 z"
             style="fill:#ffcc00;fill-opacity:1;fill-rule:nonzero;stroke:none"
             id="path918" />
        </g>
        <g
           id="g920"
           transform="translate(425.59419,173.6377)">
          <path
             d="m 0,0 c 0.365,-0.118 0.731,-0.233 1.098,-0.344 -0.1,-1.668 -0.175,-3.342 -0.226,-5.018 0.006,-0.002 0.013,-0.003 0.019,-0.005 0.911,1.434 1.78,2.886 2.608,4.352 0.375,-0.096 0.751,-0.188 1.128,-0.277 0.036,-1.679 0.102,-3.361 0.198,-5.045 0.006,-0.001 0.013,-0.002 0.019,-0.004 0.779,1.498 1.52,3.008 2.224,4.529 C 7.445,-1.884 7.823,-1.953 8.202,-2.017 7.253,-4.012 6.233,-5.987 5.139,-7.936 4.721,-7.851 4.303,-7.762 3.887,-7.669 3.791,-5.981 3.725,-4.294 3.691,-2.611 3.685,-2.609 3.678,-2.607 3.672,-2.606 2.836,-4.076 1.959,-5.53 1.04,-6.967 0.622,-6.854 0.205,-6.736 -0.21,-6.615 -0.189,-4.403 -0.118,-2.198 0,0"
             style="fill:#ffffff;fill-opacity:1;fill-rule:nonzero;stroke:none"
             id="path922" />
        </g>
        <g
           id="g924"
           transform="translate(435.0829,167.5347)">
          <path
             d="M 0,0 C 0.697,-0.097 1.396,-0.181 2.097,-0.254 1.852,0.69 1.622,1.636 1.406,2.583 1.397,2.585 1.387,2.586 1.378,2.587 0.935,1.719 0.476,0.857 0,0 m 0.936,3.75 c 0.4,-0.053 0.8,-0.101 1.2,-0.145 0.59,-2.205 1.268,-4.402 2.039,-6.585 -0.45,0.03 -0.9,0.066 -1.349,0.106 -0.172,0.58 -0.339,1.161 -0.499,1.743 -0.928,0.092 -1.855,0.205 -2.779,0.337 -0.301,-0.525 -0.608,-1.049 -0.921,-1.57 -0.43,0.067 -0.858,0.137 -1.285,0.213 1.294,1.932 2.492,3.902 3.594,5.901"
             style="fill:#ffffff;fill-opacity:1;fill-rule:nonzero;stroke:none"
             id="path926" />
        </g>
        <g
           id="g928"
           transform="translate(440.32091,170.8784)">
          <path
             d="m 0,0 c 0.378,-0.021 0.756,-0.04 1.135,-0.055 -0.038,-0.966 -0.076,-1.933 -0.114,-2.9 1.049,0.928 2.05,1.882 3.003,2.86 0.466,0.006 0.932,0.015 1.399,0.032 C 4.59,-0.941 3.719,-1.801 2.808,-2.64 3.76,-3.927 4.774,-5.192 5.852,-6.43 5.326,-6.45 4.801,-6.463 4.276,-6.47 3.474,-5.465 2.71,-4.446 1.984,-3.414 1.65,-3.707 1.312,-3.998 0.968,-4.285 0.939,-4.999 0.91,-5.713 0.881,-6.428 0.461,-6.411 0.04,-6.391 -0.381,-6.367 -0.251,-4.244 -0.124,-2.122 0,0"
             style="fill:#ffffff;fill-opacity:1;fill-rule:nonzero;stroke:none"
             id="path930" />
        </g>
        <g
           id="g932"
           transform="translate(448.15109,167.09489)">
          <path
             d="M 0,0 C 0.703,0.05 1.404,0.11 2.105,0.183 1.662,1.057 1.236,1.934 0.825,2.817 0.816,2.815 0.807,2.814 0.798,2.813 0.547,1.874 0.281,0.936 0,0 M 0.121,3.861 C 0.523,3.892 0.924,3.927 1.325,3.966 2.363,1.931 3.496,-0.077 4.726,-2.052 4.28,-2.115 3.832,-2.173 3.385,-2.226 3.09,-1.695 2.802,-1.161 2.519,-0.626 1.591,-0.728 0.661,-0.808 -0.27,-0.87 c -0.181,-0.575 -0.368,-1.15 -0.56,-1.724 -0.435,-0.024 -0.868,-0.044 -1.302,-0.059 0.842,2.157 1.592,4.33 2.253,6.514"
             style="fill:#ffffff;fill-opacity:1;fill-rule:nonzero;stroke:none"
             id="path934" />
        </g>
        <g
           id="g936"
           transform="translate(451.12579,171.2451)">
          <path
             d="M 0,0 C 1.736,0.22 3.462,0.516 5.17,0.888 5.239,0.574 5.308,0.261 5.378,-0.054 4.696,-0.203 4.011,-0.339 3.324,-0.465 3.652,-2.239 3.988,-4.013 4.328,-5.786 3.915,-5.862 3.501,-5.932 3.086,-5.999 2.78,-4.221 2.481,-2.441 2.187,-0.66 1.501,-0.771 0.813,-0.87 0.123,-0.957 0.081,-0.638 0.041,-0.319 0,0"
             style="fill:#ffffff;fill-opacity:1;fill-rule:nonzero;stroke:none"
             id="path938" />
        </g>
        <g
           id="g940"
           transform="translate(458.43159,168.6814)">
          <path
             d="M 0,0 C 0.683,0.165 1.363,0.341 2.039,0.529 1.455,1.315 0.887,2.111 0.337,2.913 0.327,2.91 0.318,2.908 0.31,2.905 0.22,1.938 0.117,0.969 0,0 M -0.532,3.826 C -0.141,3.923 0.248,4.024 0.636,4.129 1.996,2.293 3.451,0.501 5.002,-1.241 4.574,-1.376 4.144,-1.508 3.713,-1.635 3.331,-1.159 2.956,-0.682 2.586,-0.2 1.69,-0.454 0.789,-0.687 -0.118,-0.901 c -0.08,-0.597 -0.164,-1.195 -0.253,-1.792 -0.423,-0.095 -0.847,-0.185 -1.271,-0.272 0.454,2.263 0.822,4.529 1.11,6.791"
             style="fill:#ffffff;fill-opacity:1;fill-rule:nonzero;stroke:none"
             id="path942" />
        </g>
        <g
           id="g944"
           transform="translate(363.72929,233.1757)">
          <path
             d="M 0,0 C 0.662,0.835 1.907,0.677 2.836,0.567 3.765,0.458 4.687,0.464 5.617,0.385 L 8.234,0.162 c 0,0 0.613,0.111 1.448,-0.222 0.836,-0.335 10.025,-4.846 10.025,-4.846 1.053,-0.015 2.106,-0.015 3.16,-0.005 2.452,0.022 4.857,0.788 7.197,1.454 l 3.231,0.89 c 0,0 0.389,0.168 0.779,0.112 0.39,-0.056 4.009,-2.005 4.009,-2.005 l -6.96,-9.69 c 0.181,-0.13 0.361,-0.261 0.541,-0.39 0.305,-0.22 0.513,-0.317 0.445,-0.73 -0.048,-0.29 -0.1,-0.391 0.123,-0.612 0.203,-0.2 0.498,-0.367 0.652,-0.61 0.241,-0.379 0.299,-0.836 0.243,-1.279 -0.055,-0.446 -0.612,-1.057 -1.002,-1.391 -0.39,-0.334 -4.176,-3.842 -4.622,-4.066 -1.089,-0.544 -2.585,0.382 -3.453,1.003 l -0.78,0.557 -8.019,-5.957 -2.395,2.169 c 0,4.33 -0.245,8.345 -2.395,12.197 L 10.072,-12.646 3,-7.69 C 2.204,-6.656 1.654,-5.466 1.036,-4.325 0.51,-3.35 -0.16,-2.385 -0.325,-1.266 -0.395,-0.796 -0.268,-0.339 0,0"
             style="fill:#000000;fill-opacity:1;fill-rule:nonzero;stroke:none"
             id="path946" />
        </g>
        <g
           id="g948"
           transform="translate(369.3463,233.561)">
          <path
             d="m 0,0 2.616,-0.223 c 0,0 0.614,0.111 1.449,-0.223 C 4.901,-0.78 14.09,-5.291 14.09,-5.291 L 13.644,-5.458 3.787,-1.894 2.84,-1.671 2.116,-1.393 1.559,-1.17 -1.114,-0.724 -1.128,0.007 0,0 Z"
             style="fill:#ffffff;fill-opacity:1;fill-rule:nonzero;stroke:none"
             id="path950" />
        </g>
        <g
           id="g952"
           transform="translate(394.44769,218.4969)">
          <path
             d="M 0,0 -23.264,13.755 -21.008,12.919 0.362,0.487 0,0 Z"
             style="fill:#a7a9ac;fill-opacity:1;fill-rule:nonzero;stroke:none"
             id="path954" />
        </g>
        <g
           id="g956"
           transform="translate(387.0416,211.5489)">
          <path
             d="M 0,0 -13.24,8.981 -12.627,8.089 -0.446,-0.334 0,0 Z"
             style="fill:#a7a9ac;fill-opacity:1;fill-rule:nonzero;stroke:none"
             id="path958" />
        </g>
        <g
           id="g960"
           transform="translate(381.87869,207.73441)">
          <path
             d="M 0,0 -1.952,2.451 0.624,0.459 0,0 Z"
             style="fill:#ffffff;fill-opacity:1;fill-rule:nonzero;stroke:none"
             id="path962" />
        </g>
        <g
           id="g964"
           transform="translate(398.1375,223.6203)">
          <path
             d="M 0,0 -2.895,1.476 -0.446,-0.641 0,0 Z"
             style="fill:#ffffff;fill-opacity:1;fill-rule:nonzero;stroke:none"
             id="path966" />
        </g>
      </g>
    </g>
    <g
       id="g968"
       transform="matrix(26.90305,0,0,-26.90305,1144.297,-1577.5525)">
      <path
         d="m 0,0 6.042,0.024 3.185,-5.99 -6.068,0 17.216,-32.08 6.294,1.29 -16.532,29.577 2.654,0 16.76,-29.122 5.84,1.138 -17.519,29.272 -5.916,0 -0.833,1.215 15.318,0.302 0.531,-1.212 -5.46,0 18.049,-29.122 5.233,0.835 -17.214,27.149 2.426,0 17.519,-26.695 4.473,0.91 -18.428,27.074 -4.854,0 -0.454,1.061 44.593,0.532 0.505,-0.987 -2.781,0 17.896,-21.31 2.43,0.607 -16.839,19.869 1.367,0 17.063,-19.565 2.477,0.48 -17.668,20.046 -2.732,0.026 -0.581,0.909 6.977,0 0.608,-0.733 -2.654,-0.05 17.668,-19.769 2.351,0.38 -16.686,18.428 1.291,0.076 16.608,-18.125 2.099,0.329 -17.29,18.883 -2.1,-0.101 -3.588,3.943 2.022,0.102 -13.956,15.47 -2.021,-0.102 12.945,-14.559 -1.419,0 -12.84,14.863 -2.63,0 14.359,-15.774 2.376,-0.025 0.96,-1.087 -7.28,-0.101 -0.706,1.213 2.602,-0.025 -14.231,16.406 -2.63,0 13.247,-15.622 -1.214,0.05 -13.55,15.875 -3.134,0.102 14.661,-16.887 3.032,0 0.509,-1.011 L 25.987,-1.315 25.279,0 30.132,0 16.178,20.627 11.628,21.032 24.722,1.163 22.498,1.213 9.808,21.235 4.752,21.84 18.251,0 23.459,0 24.065,-1.214 8.949,-1.163 8.292,0.303 14.257,0.202 1.112,22.145 -4.349,22.649 8.089,1.516 5.46,1.416 -6.471,22.953 -12.336,23.358 0,0 Z"
         style="fill:#a5adb0;fill-opacity:1;fill-rule:nonzero;stroke:none"
         id="path970" />
    </g>
    <g
       id="g972"
       transform="matrix(26.90305,0,0,-26.90305,1144.2891,-1577.5419)">
      <path
         d="M 0,0 -12.336,23.358 -6.471,22.953 5.46,1.416 8.09,1.516 -4.348,22.65 1.113,22.144 14.258,0.203 8.292,0.304 8.949,-1.163 24.065,-1.214 23.459,0 18.252,0 4.753,21.841 9.809,21.235 22.499,1.213 24.723,1.163 11.628,21.032 16.179,20.628 30.132,0 25.28,0 l 0.707,-1.314 44.391,-0.304 -0.508,1.012 -3.033,0 -14.661,16.887 3.135,-0.103 13.549,-15.874 1.214,-0.051 -13.247,15.622 2.63,0 14.232,-16.406 -2.603,0.026 0.706,-1.213 7.28,0.1 -0.96,1.087 -2.376,0.026 -14.358,15.774 2.629,0 12.841,-14.864 1.418,0 -12.945,14.56 2.022,0.102 13.955,-15.471 -2.022,-0.101 3.589,-3.944 2.099,0.101 17.29,-18.882 -2.099,-0.33 -16.607,18.125 -1.291,-0.076 16.686,-18.428 -2.352,-0.379 -17.668,19.768 2.654,0.05 -0.607,0.734 -6.978,0 0.581,-0.91 2.733,-0.026 17.668,-20.045 -2.478,-0.481 -17.063,19.566 -1.366,0 16.837,-19.87 -2.428,-0.606 -17.897,21.31 2.781,0 -0.505,0.986 -44.593,-0.531 0.455,-1.062 4.853,0 18.429,-27.074 -4.474,-0.909 -17.519,26.694 -2.426,0 17.215,-27.149 -5.234,-0.834 -18.049,29.121 5.46,0 -0.53,1.213 -15.319,-0.303 0.834,-1.214 5.916,0 17.518,-29.272 -5.84,-1.138 -16.76,29.121 -2.654,0 16.532,-29.577 -6.294,-1.289 -17.216,32.079 6.068,0 L 6.042,0.025 0,0 Z"
         style="fill:none;stroke:#000000;stroke-width:0.419;stroke-linecap:butt;stroke-linejoin:miter;stroke-miterlimit:4;stroke-dasharray:none;stroke-opacity:1"
         id="path974" />
    </g>
    <g
       transform="matrix(26.90305,0,0,-26.90305,-9645.6047,5373.0068)"
       id="g976">
      <g
         id="g978">
        <g
           id="g984"
           transform="translate(421.55051,220.5459)">
          <path
             d="m 0,0 -16.976,31.634 5.719,0 0.348,0 -0.164,0.308 -3.186,5.991 -0.059,0.111 -0.126,0 -5.915,-0.025 -12.101,22.913 5.376,-0.37 11.877,-21.439 0.063,-0.112 0.128,0.005 2.629,0.1 0.35,0.014 -0.177,0.302 -12.231,20.781 4.948,-0.457 12.896,-21.527 -5.588,0.093 -0.329,0.007 0.135,-0.302 0.656,-1.466 0.055,-0.122 0.135,-0.002 c 0.053,0 5.45,-0.063 7.94,-0.063 l 0.073,0 1.788,-2.85 C -4.41,33.469 -9.367,33.342 -9.367,33.342 l -0.385,-0.01 0.218,-0.318 0.833,-1.213 0.063,-0.09 0.11,0 5.797,0 L 14.573,2.795 9.172,1.743 -7.512,30.735 l -0.06,0.106 -0.121,0 -2.655,0 -0.357,0 0.174,-0.312 L 5.862,1.201 0,0 Z"
             style="fill:#ffcc00;fill-opacity:1;fill-rule:nonzero;stroke:none"
             id="path986" />
        </g>
        <g
           id="g988"
           transform="translate(389.4514,281.2439)">
          <path
             d="m 0,0 11.866,-22.469 5.788,0.024 0.253,0.001 0.119,-0.223 3.185,-5.991 0.328,-0.615 -0.697,0 -5.368,0 16.737,-31.188 5.428,1.112 -16.253,29.078 -0.348,0.622 0.714,0 2.654,0 0.242,0 0.121,-0.209 16.61,-28.863 4.961,0.966 -17.09,28.558 -5.678,0 -0.22,0 -0.125,0.181 -0.834,1.214 -0.438,0.636 0.772,0.019 c 0.05,10e-4 4.551,0.116 7.264,0.175 l -1.532,2.439 c -2.508,0.001 -7.847,0.063 -7.901,0.064 l -0.267,0.003 -0.109,0.244 -0.658,1.466 -0.269,0.601 0.659,-0.011 5.212,-0.088 -12.649,21.113 -4.435,0.41 12.023,-20.429 0.355,-0.604 -0.7,-0.026 -2.629,-0.101 -0.258,-0.01 -0.125,0.226 L 4.887,-0.337 0,0 Z m -0.721,0.469 5.864,-0.404 11.932,-21.538 2.629,0.101 -12.438,21.133 5.461,-0.505 13.145,-21.942 -5.966,0.101 0.657,-1.466 c 0,0 5.412,-0.063 7.931,-0.063 l 0.196,0 2.048,-3.261 c -2.556,-0.051 -8,-0.19 -8,-0.19 l 0.834,-1.213 5.915,0 17.518,-29.273 -5.84,-1.138 -16.759,29.122 -2.654,0 16.532,-29.577 -6.294,-1.289 -17.216,32.079 6.068,0 -3.186,5.991 -6.042,-0.025 -12.335,23.357"
             style="fill:#000000;fill-opacity:1;fill-rule:nonzero;stroke:none"
             id="path990" />
        </g>
        <path
           d="m 471.242,253.502 -1.871,0 0,1.163 1.871,0 0,-1.163 z"
           style="fill:#a5adb0;fill-opacity:1;fill-rule:nonzero;stroke:none"
           id="path992" />
        <g
           id="g994"
           transform="translate(471.2417,253.502)">
          <path
             d="m 0,0 -1.871,0 0,1.163 L 0,1.163 0,0 Z"
             style="fill:none;stroke:#000000;stroke-width:0.419;stroke-linecap:butt;stroke-linejoin:miter;stroke-miterlimit:4;stroke-dasharray:none;stroke-opacity:1"
             id="path996" />
        </g>
        <g
           id="g998"
           transform="translate(472.4798,249.68491)">
          <path
             d="m 0,0 -7.23,0 0,3.842 7.23,0 C 0.7,2.658 0.7,1.185 0,0"
             style="fill:#a5adb0;fill-opacity:1;fill-rule:nonzero;stroke:none"
             id="path1000" />
        </g>
        <g
           id="g1002"
           transform="translate(472.4798,249.68491)">
          <path
             d="m 0,0 -7.23,0 0,3.842 7.23,0 C 0.7,2.658 0.7,1.185 0,0 Z m 0,0 -7.23,0 c 0,1.281 -0.05,2.486 -0.05,3.767 2.408,0 4.869,0.075 7.28,0.075 C 0.7,2.658 0.7,1.185 0,0 Z"
             style="fill:none;stroke:#000000;stroke-width:0.419;stroke-linecap:butt;stroke-linejoin:miter;stroke-miterlimit:4;stroke-dasharray:none;stroke-opacity:1"
             id="path1004" />
        </g>
        <g
           id="g1006"
           transform="translate(465.19949,249.71069)">
          <path
             d="M 0,0 C -0.648,0.013 -1.272,0.035 -1.874,0.062 -2.001,1.208 -1.96,2.392 -1.998,3.539 -1.407,3.626 -0.746,3.697 0,3.741 -1.475,2.93 -1.475,0.811 0,0"
             style="fill:#a5adb0;fill-opacity:1;fill-rule:nonzero;stroke:none"
             id="path1008" />
        </g>
        <g
           id="g1010"
           transform="translate(465.19949,249.7108)">
          <path
             d="M 0,0 C -0.648,0.013 -1.272,0.035 -1.874,0.062 -2.001,1.208 -1.96,2.392 -1.998,3.539 -1.407,3.626 -0.746,3.697 0,3.741 -1.475,2.93 -1.475,0.811 0,0 Z"
             style="fill:none;stroke:#000000;stroke-width:0.419;stroke-linecap:butt;stroke-linejoin:miter;stroke-miterlimit:4;stroke-dasharray:none;stroke-opacity:1"
             id="path1012" />
        </g>
        <g
           id="g1014"
           transform="translate(463.33009,249.7739)">
          <path
             d="m 0,0 c -1.962,-0.152 -3.687,-0.228 -5.792,-0.228 0,1.176 -0.113,2.579 -0.113,3.753 L 0,3.525 C 0.886,2.552 0.886,0.973 0,0"
             style="fill:#a5adb0;fill-opacity:1;fill-rule:nonzero;stroke:none"
             id="path1016" />
        </g>
        <g
           id="g1018"
           transform="translate(463.33009,249.7739)">
          <path
             d="m 0,0 c -1.962,-0.152 -3.687,-0.228 -5.792,-0.228 0,1.176 -0.113,2.579 -0.113,3.753 L 0,3.525 C 0.886,2.552 0.886,0.973 0,0 Z m 0,0 c -1.884,-0.266 -3.97,-0.19 -5.943,-0.266 0,1.176 0.038,2.617 0.038,3.791 L 0,3.525 C 0.886,2.552 0.886,0.973 0,0 Z"
             style="fill:none;stroke:#000000;stroke-width:0.419;stroke-linecap:butt;stroke-linejoin:miter;stroke-miterlimit:4;stroke-dasharray:none;stroke-opacity:1"
             id="path1020" />
        </g>
        <path
           d="m 437.594,251.607 -1.668,0 0,1.163 1.668,0 0,-1.163 z"
           style="fill:#a5adb0;fill-opacity:1;fill-rule:nonzero;stroke:none"
           id="path1022" />
        <g
           id="g1024"
           transform="translate(437.5945,251.6068)">
          <path
             d="m 0,0 -1.668,0 0,1.163 L 0,1.163 0,0 Z"
             style="fill:none;stroke:#000000;stroke-width:0.419;stroke-linecap:butt;stroke-linejoin:miter;stroke-miterlimit:4;stroke-dasharray:none;stroke-opacity:1"
             id="path1026" />
        </g>
        <g
           id="g1028"
           transform="translate(440.23511,252.1371)">
          <path
             d="m 0,0 c 0,0.65 0.186,1.199 0.447,1.415 l -2.76,0 c 0,0 -0.253,-0.101 -0.253,-1.314 0,-1.213 0.253,-1.517 0.253,-1.517 l 2.76,0 C 0.186,-1.199 0,-0.65 0,0"
             style="fill:#a5adb0;fill-opacity:1;fill-rule:nonzero;stroke:none"
             id="path1030" />
        </g>
        <g
           id="g1032"
           transform="translate(440.23511,252.1371)">
          <path
             d="m 0,0 c 0,0.65 0.186,1.199 0.447,1.415 l -2.76,0 c 0,0 -0.253,-0.101 -0.253,-1.314 0,-1.213 0.253,-1.517 0.253,-1.517 l 2.76,0 C 0.186,-1.199 0,-0.65 0,0 Z"
             style="fill:none;stroke:#000000;stroke-width:0.419;stroke-linecap:butt;stroke-linejoin:miter;stroke-miterlimit:4;stroke-dasharray:none;stroke-opacity:1"
             id="path1034" />
        </g>
        <g
           id="g1036"
           transform="translate(440.25771,252.1873)">
          <path
             d="m 0,0 c 0,-0.809 0.299,-1.466 0.666,-1.466 0.369,0 0.667,0.657 0.667,1.466 0,0.81 -0.298,1.466 -0.667,1.466 C 0.299,1.466 0,0.81 0,0"
             style="fill:#a5adb0;fill-opacity:1;fill-rule:nonzero;stroke:none"
             id="path1038" />
        </g>
        <g
           id="g1040"
           transform="translate(440.25771,252.1873)">
          <path
             d="m 0,0 c 0,-0.809 0.299,-1.466 0.666,-1.466 0.369,0 0.667,0.657 0.667,1.466 0,0.81 -0.298,1.466 -0.667,1.466 C 0.299,1.466 0,0.81 0,0 Z"
             style="fill:none;stroke:#000000;stroke-width:0.419;stroke-linecap:butt;stroke-linejoin:miter;stroke-miterlimit:4;stroke-dasharray:none;stroke-opacity:1"
             id="path1042" />
        </g>
        <g
           id="g1044"
           transform="translate(443.0675,251.59351)">
          <path
             d="m 0,0 -2.047,0 c -0.138,0.349 -0.138,0.738 0,1.087 L 0,1.087 C 0.138,0.738 0.138,0.349 0,0"
             style="fill:#a5adb0;fill-opacity:1;fill-rule:nonzero;stroke:none"
             id="path1046" />
        </g>
        <g
           id="g1048"
           transform="translate(443.0675,251.59351)">
          <path
             d="m 0,0 -2.047,0 c -0.138,0.349 -0.138,0.738 0,1.087 L 0,1.087 C 0.138,0.738 0.138,0.349 0,0 Z"
             style="fill:none;stroke:#000000;stroke-width:0.419;stroke-linecap:butt;stroke-linejoin:miter;stroke-miterlimit:4;stroke-dasharray:none;stroke-opacity:1"
             id="path1050" />
        </g>
        <g
           id="g1052"
           transform="translate(447.9451,250.3446)">
          <path
             d="M 0,0 C -1.563,0.016 -3.138,0.031 -4.721,0.044 -5.778,1 -5.753,2.487 -4.678,3.44 -3.123,3.453 -1.577,3.468 -0.042,3.484 -1.061,2.802 -1.036,0.681 0,0"
             style="fill:#a5adb0;fill-opacity:1;fill-rule:nonzero;stroke:none"
             id="path1054" />
        </g>
        <g
           id="g1056"
           transform="translate(447.9451,250.3446)">
          <path
             d="M 0,0 C -1.563,0.016 -3.138,0.031 -4.721,0.044 -5.778,1 -5.753,2.487 -4.678,3.44 -3.123,3.453 -1.577,3.468 -0.042,3.484 -1.061,2.802 -1.036,0.681 0,0 Z"
             style="fill:none;stroke:#000000;stroke-width:0.419;stroke-linecap:butt;stroke-linejoin:miter;stroke-miterlimit:4;stroke-dasharray:none;stroke-opacity:1"
             id="path1058" />
        </g>
        <g
           id="g1060"
           transform="translate(447.9451,250.3446)">
          <path
             d="M 0,0 C -1.563,0.016 -3.138,0.031 -4.721,0.044 -5.778,1 -5.753,2.487 -4.678,3.44 -3.123,3.453 -1.577,3.468 -0.042,3.484 -1.061,2.802 -1.036,0.681 0,0"
             style="fill:#a5adb0;fill-opacity:1;fill-rule:nonzero;stroke:none"
             id="path1062" />
        </g>
        <g
           id="g1064"
           transform="translate(447.9451,250.3446)">
          <path
             d="M 0,0 C -1.563,0.016 -3.138,0.031 -4.721,0.044 -5.778,1 -5.753,2.487 -4.678,3.44 -3.123,3.453 -1.577,3.468 -0.042,3.484 -1.061,2.802 -1.036,0.681 0,0 Z"
             style="fill:none;stroke:#000000;stroke-width:0.419;stroke-linecap:butt;stroke-linejoin:miter;stroke-miterlimit:4;stroke-dasharray:none;stroke-opacity:1"
             id="path1066" />
        </g>
        <g
           id="g1068"
           transform="translate(449.312,252.07989)">
          <path
             d="m 0,0 c 0,-0.959 -0.468,-1.737 -1.044,-1.737 -0.575,0 -1.044,0.778 -1.044,1.737 0,0.96 0.469,1.738 1.044,1.738 C -0.468,1.738 0,0.96 0,0"
             style="fill:#a5adb0;fill-opacity:1;fill-rule:nonzero;stroke:none"
             id="path1070" />
        </g>
        <g
           id="g1072"
           transform="translate(449.312,252.07989)">
          <path
             d="m 0,0 c 0,-0.959 -0.468,-1.737 -1.044,-1.737 -0.575,0 -1.044,0.778 -1.044,1.737 0,0.96 0.469,1.738 1.044,1.738 C -0.468,1.738 0,0.96 0,0 Z"
             style="fill:none;stroke:#000000;stroke-width:0.419;stroke-linecap:butt;stroke-linejoin:miter;stroke-miterlimit:4;stroke-dasharray:none;stroke-opacity:1"
             id="path1074" />
        </g>
        <g
           id="g1076"
           transform="translate(453.6884,250.1086)">
          <path
             d="m 0,0 c -1.508,0.002 -3.016,0.003 -4.526,0.006 0.831,0.893 0.831,2.216 0,3.11 C -3.016,3.117 -1.508,3.12 0,3.121 0.484,2.139 0.484,0.982 0,0"
             style="fill:#a5adb0;fill-opacity:1;fill-rule:nonzero;stroke:none"
             id="path1078" />
        </g>
        <g
           id="g1080"
           transform="translate(453.6884,250.1086)">
          <path
             d="m 0,0 c -1.508,0.002 -3.016,0.003 -4.526,0.006 0.831,0.893 0.831,2.216 0,3.11 C -3.016,3.117 -1.508,3.12 0,3.121 0.484,2.139 0.484,0.982 0,0 Z m 0,0 c -1.508,0.002 -3.016,0.003 -4.526,0.006 0.831,0.893 0.831,2.216 0,3.11 C -3.016,3.117 -1.508,3.12 0,3.121 0.484,2.139 0.484,0.982 0,0 Z"
             style="fill:none;stroke:#000000;stroke-width:0.419;stroke-linecap:butt;stroke-linejoin:miter;stroke-miterlimit:4;stroke-dasharray:none;stroke-opacity:1"
             id="path1082" />
        </g>
        <g
           id="g1084"
           transform="translate(449.9164,251.651)">
          <path
             d="m 0,0 c 0,-0.87 -0.354,-1.574 -0.794,-1.574 -0.44,0 -0.797,0.704 -0.797,1.574 0,0.869 0.357,1.573 0.797,1.573 C -0.354,1.573 0,0.869 0,0"
             style="fill:#a5adb0;fill-opacity:1;fill-rule:nonzero;stroke:none"
             id="path1086" />
        </g>
        <g
           id="g1088"
           transform="translate(449.9164,251.651)">
          <path
             d="m 0,0 c 0,-0.87 -0.354,-1.574 -0.794,-1.574 -0.44,0 -0.797,0.704 -0.797,1.574 0,0.869 0.357,1.573 0.797,1.573 C -0.354,1.573 0,0.869 0,0 Z"
             style="fill:none;stroke:#000000;stroke-width:0.419;stroke-linecap:butt;stroke-linejoin:miter;stroke-miterlimit:4;stroke-dasharray:none;stroke-opacity:1"
             id="path1090" />
        </g>
        <g
           id="g1092"
           transform="translate(449.2869,251.09151)">
          <path
             d="m 0,0 c -0.516,0.002 -1.033,0.004 -1.549,0.007 0.239,0.288 0.239,0.664 0,0.952 C -1.033,0.962 -0.516,0.964 0,0.966 0.111,0.655 0.111,0.311 0,0"
             style="fill:#a5adb0;fill-opacity:1;fill-rule:nonzero;stroke:none"
             id="path1094" />
        </g>
        <g
           id="g1096"
           transform="translate(449.2869,251.09151)">
          <path
             d="m 0,0 c -0.516,0.002 -1.033,0.004 -1.549,0.007 0.239,0.288 0.239,0.664 0,0.952 C -1.033,0.962 -0.516,0.964 0,0.966 0.111,0.655 0.111,0.311 0,0 Z m 0,0 c -0.516,0.002 -1.033,0.004 -1.549,0.007 0.239,0.288 0.239,0.664 0,0.952 C -1.033,0.962 -0.516,0.964 0,0.966 0.111,0.655 0.111,0.311 0,0 Z"
             style="fill:none;stroke:#000000;stroke-width:0.419;stroke-linecap:butt;stroke-linejoin:miter;stroke-miterlimit:4;stroke-dasharray:none;stroke-opacity:1"
             id="path1098" />
        </g>
        <g
           id="g1100"
           transform="translate(447.9326,251.5752)">
          <path
             d="m 0,0 c 0,-0.263 -0.168,-0.475 -0.378,-0.475 -0.21,0 -0.38,0.212 -0.38,0.475 0,0.261 0.17,0.474 0.38,0.474 C -0.168,0.474 0,0.261 0,0"
             style="fill:#a5adb0;fill-opacity:1;fill-rule:nonzero;stroke:none"
             id="path1102" />
        </g>
        <g
           id="g1104"
           transform="translate(447.9326,251.5752)">
          <path
             d="m 0,0 c 0,-0.263 -0.168,-0.475 -0.378,-0.475 -0.21,0 -0.38,0.212 -0.38,0.475 0,0.261 0.17,0.474 0.38,0.474 C -0.168,0.474 0,0.261 0,0 Z"
             style="fill:none;stroke:#000000;stroke-width:0.419;stroke-linecap:butt;stroke-linejoin:miter;stroke-miterlimit:4;stroke-dasharray:none;stroke-opacity:1"
             id="path1106" />
        </g>
        <g
           id="g1108"
           transform="translate(456.91431,249.83501)">
          <path
             d="M 0,0 C -1.601,0.078 -3.189,0.16 -4.781,0.246 -5.459,1.206 -5.363,2.567 -4.49,3.434 -2.992,3.427 -1.496,3.422 0,3.415 -1.068,2.483 -1.072,0.933 0,0"
             style="fill:#a5adb0;fill-opacity:1;fill-rule:nonzero;stroke:none"
             id="path1110" />
        </g>
        <g
           id="g1112"
           transform="translate(456.91431,249.83501)">
          <path
             d="M 0,0 C -1.601,0.078 -3.189,0.16 -4.781,0.246 -5.459,1.206 -5.363,2.567 -4.49,3.434 -2.992,3.427 -1.496,3.422 0,3.415 -1.068,2.483 -1.072,0.933 0,0 Z M 0,0 C -1.601,0.078 -3.182,0.243 -4.771,0.33 -5.452,1.29 -5.363,2.567 -4.49,3.434 -2.992,3.427 -1.301,3.395 0.196,3.389 -1.043,2.707 -1.072,0.933 0,0 Z"
             style="fill:none;stroke:#000000;stroke-width:0.419;stroke-linecap:butt;stroke-linejoin:miter;stroke-miterlimit:4;stroke-dasharray:none;stroke-opacity:1"
             id="path1114" />
        </g>
        <g
           id="g1116"
           transform="translate(459.09441,251.403)">
          <path
             d="m 0,0 c 0,-1.046 -0.664,-1.971 -1.478,-1.971 -0.817,0 -1.48,0.925 -1.48,1.971 0,1.048 0.624,1.973 1.442,1.973 C -0.7,1.973 0,1.048 0,0"
             style="fill:#a5adb0;fill-opacity:1;fill-rule:nonzero;stroke:none"
             id="path1118" />
        </g>
        <g
           id="g1120"
           transform="translate(459.09441,251.403)">
          <path
             d="m 0,0 c 0,-1.046 -0.664,-1.971 -1.478,-1.971 -0.817,0 -1.48,0.925 -1.48,1.971 0,1.048 0.623,1.973 1.442,1.973 C -0.7,1.973 0,1.048 0,0 Z"
             style="fill:none;stroke:#000000;stroke-width:0.419;stroke-linecap:butt;stroke-linejoin:miter;stroke-miterlimit:4;stroke-dasharray:none;stroke-opacity:1"
             id="path1122" />
        </g>
        <g
           id="g1124"
           transform="translate(466.2225,251.56841)">
          <path
             d="m 0,0 c 0,-1.026 -0.477,-1.858 -1.068,-1.858 -0.591,0 -1.068,0.832 -1.068,1.858 0,1.026 0.477,1.857 1.068,1.857 C -0.477,1.857 0,1.026 0,0"
             style="fill:#a5adb0;fill-opacity:1;fill-rule:nonzero;stroke:none"
             id="path1126" />
        </g>
        <g
           id="g1128"
           transform="translate(466.2225,251.56841)">
          <path
             d="m 0,0 c 0,-1.026 -0.477,-1.858 -1.068,-1.858 -0.591,0 -1.068,0.832 -1.068,1.858 0,1.026 0.477,1.857 1.068,1.857 C -0.477,1.857 0,1.026 0,0 Z"
             style="fill:none;stroke:#000000;stroke-width:0.419;stroke-linecap:butt;stroke-linejoin:miter;stroke-miterlimit:4;stroke-dasharray:none;stroke-opacity:1"
             id="path1130" />
        </g>
        <g
           id="g1132"
           transform="translate(467.0231,250.1868)">
          <path
             d="M 0,0 C -0.624,0.237 -1.25,0.474 -1.876,0.712 -2.087,1.076 -2.058,1.523 -1.812,1.717 -1.185,1.49 -0.56,1.263 0.066,1.036 0.252,0.66 0.224,0.223 0,0"
             style="fill:#a5adb0;fill-opacity:1;fill-rule:nonzero;stroke:none"
             id="path1134" />
        </g>
        <g
           id="g1136"
           transform="translate(467.02319,250.1868)">
          <path
             d="M 0,0 C -0.625,0.237 -1.25,0.474 -1.876,0.712 -2.087,1.076 -2.058,1.523 -1.812,1.717 -1.185,1.49 -0.56,1.263 0.066,1.036 0.252,0.66 0.224,0.223 0,0 Z M 0,0 C -0.625,0.237 -1.25,0.474 -1.876,0.712 -2.087,1.076 -2.058,1.523 -1.812,1.717 -1.185,1.49 -0.56,1.263 0.066,1.036 0.252,0.66 0.224,0.223 0,0 Z"
             style="fill:none;stroke:#000000;stroke-width:0.419;stroke-linecap:butt;stroke-linejoin:miter;stroke-miterlimit:4;stroke-dasharray:none;stroke-opacity:1"
             id="path1138" />
        </g>
        <g
           id="g1140"
           transform="translate(467.2428,250.6342)">
          <path
             d="m 0,0 c -0.017,-0.291 -0.147,-0.484 -0.287,-0.432 -0.14,0.053 -0.24,0.329 -0.22,0.621 0.018,0.29 0.146,0.485 0.287,0.432 C -0.079,0.569 0.018,0.291 0,0"
             style="fill:#a5adb0;fill-opacity:1;fill-rule:nonzero;stroke:none"
             id="path1142" />
        </g>
        <g
           id="g1144"
           transform="translate(467.2428,250.6342)">
          <path
             d="m 0,0 c -0.017,-0.291 -0.147,-0.484 -0.287,-0.432 -0.14,0.052 -0.24,0.329 -0.22,0.621 0.018,0.29 0.146,0.485 0.287,0.432 C -0.079,0.569 0.018,0.291 0,0 Z"
             style="fill:none;stroke:#000000;stroke-width:0.419;stroke-linecap:butt;stroke-linejoin:miter;stroke-miterlimit:4;stroke-dasharray:none;stroke-opacity:1"
             id="path1146" />
        </g>
        <path
           d="m 471.898,254.159 -3.49,0 0,2.528 3.49,0 0,-2.528 z"
           style="fill:#a5adb0;fill-opacity:1;fill-rule:nonzero;stroke:none"
           id="path1148" />
        <g
           id="g1150"
           transform="translate(471.89799,254.1595)">
          <path
             d="m 0,0 -3.49,0 0,2.528 3.49,0 L 0,0 Z"
             style="fill:none;stroke:#000000;stroke-width:0.419;stroke-linecap:butt;stroke-linejoin:miter;stroke-miterlimit:4;stroke-dasharray:none;stroke-opacity:1"
             id="path1152" />
        </g>
        <g
           id="g1154"
           transform="translate(471.0159,251.55119)">
          <path
             d="m 0,0 c 0,-0.804 -0.513,-1.456 -1.148,-1.456 -0.633,0 -1.146,0.652 -1.146,1.456 0,0.805 0.513,1.457 1.146,1.457 C -0.513,1.457 0,0.805 0,0"
             style="fill:#e0001a;fill-opacity:1;fill-rule:evenodd;stroke:none"
             id="path1156" />
        </g>
      </g>
    </g>
  </g>
</svg>
