<svg xmlns="http://www.w3.org/2000/svg" version="1.0" width="740px" height="729px" fill="#ffffff" viewBox="0 0 7400 7290" preserveAspectRatio="xMidYMid meet">
<!-- www.vectorizer.io -->
<g fill="#88949B" stroke="none">
 <path d="M3369 5876 c-1 -3 -2 -9 -3 -13 -1 -5 -5 -13 -9 -20 -4 -6 -3 -14 3 -18 5 -3 11 -4 11 -1 1 3 2 9 3 14 1 4 5 12 9 19 4 6 3 14 -3 18 -5 3 -11 4 -11 1z"/>
 <path d="M1447 5834 c-9 -10 22 -66 33 -59 6 4 4 18 -5 36 -17 31 -18 32 -28 23z"/>
 <path d="M3616 5821 c-10 -11 -13 -22 -8 -25 5 -3 17 3 26 13 10 11 13 22 8 25 -5 3 -17 -3 -26 -13z"/>
 <path d="M4515 5771 c-7 -12 12 -24 25 -16 11 7 4 25 -10 25 -5 0 -11 -4 -15 -9z"/>
 <path d="M2459 5766 c-1 -3 -2 -9 -3 -13 -1 -5 -5 -13 -8 -19 -4 -6 1 -19 11 -28 11 -10 22 -13 25 -8 3 5 -1 15 -9 22 -11 9 -12 16 -5 25 8 9 8 15 0 20 -5 3 -11 4 -11 1z"/>
 <path d="M2756 5612 c-3 -5 2 -16 12 -24 18 -15 42 -18 42 -5 0 4 -2 6 -4 5 -2 -2 -13 5 -24 15 -11 10 -23 14 -26 9z"/>
 <path d="M4955 5551 c-3 -6 3 -15 14 -21 12 -6 22 -6 26 -1 3 6 -3 15 -14 21 -12 6 -22 6 -26 1z"/>
 <path d="M1657 5354 c-9 -10 32 -86 43 -79 6 4 1 23 -10 46 -22 41 -23 43 -33 33z"/>
 <path d="M5670 5281 c-6 -12 -6 -22 -1 -26 6 -3 15 3 21 14 6 12 6 22 1 26 -6 3 -15 -3 -21 -14z"/>
 <path d="M1707 5243 c-4 -6 0 -18 7 -28 8 -11 16 -14 19 -8 4 6 0 18 -7 28 -8 11 -16 14 -19 8z"/>
 <path d="M2126 5172 c-3 -6 1 -15 8 -21 8 -7 17 -8 20 -3 3 6 -1 15 -8 21 -8 7 -17 8 -20 3z"/>
 <path d="M5600 5121 c-6 -12 -6 -22 -1 -26 6 -3 15 3 21 14 6 12 6 22 1 26 -6 3 -15 -3 -21 -14z"/>
 <path d="M2197 5103 c-3 -5 79 -94 182 -197 104 -104 191 -184 194 -179 3 5 -79 94 -182 197 -104 104 -191 184 -194 179z"/>
 <path d="M1807 5014 c-9 -10 32 -86 43 -79 6 4 1 23 -10 46 -22 41 -23 43 -33 33z"/>
 <path d="M5410 4681 c-6 -12 -6 -22 -1 -26 6 -3 15 3 21 14 6 12 6 22 1 26 -6 3 -15 -3 -21 -14z"/>
 <path d="M5370 4591 c-6 -12 -6 -22 -1 -26 6 -3 15 3 21 14 6 12 6 22 1 26 -6 3 -15 -3 -21 -14z"/>
 <path d="M2007 4563 c-4 -6 0 -18 7 -28 8 -11 16 -14 19 -8 4 6 0 18 -7 28 -8 11 -16 14 -19 8z"/>
 <path d="M2037 4493 c-4 -6 0 -18 7 -28 8 -11 16 -14 19 -8 4 6 0 18 -7 28 -8 11 -16 14 -19 8z"/>
 <path d="M5305 4440 c-8 -16 -13 -30 -10 -30 3 0 -2 -11 -10 -24 -10 -15 -12 -26 -6 -30 9 -6 28 17 30 37 0 4 7 20 16 37 9 17 11 31 5 35 -5 3 -16 -8 -25 -25z"/>
 <path d="M3481 4166 c-84 -85 -149 -156 -144 -159 5 -3 78 63 162 147 84 85 149 156 144 159 -5 3 -78 -63 -162 -147z"/>
 <path d="M5080 3921 c-6 -12 -6 -22 -1 -26 6 -3 15 3 21 14 6 12 6 22 1 26 -6 3 -15 -3 -21 -14z"/>
 <path d="M2297 3903 c-4 -6 0 -18 7 -28 8 -11 16 -14 19 -8 4 6 0 18 -7 28 -8 11 -16 14 -19 8z"/>
 <path d="M4790 3251 c-6 -12 -6 -22 -1 -26 6 -3 15 3 21 14 6 12 6 22 1 26 -6 3 -15 -3 -21 -14z"/>
 <path d="M2587 3243 c-4 -6 0 -18 7 -28 8 -11 16 -14 19 -8 4 6 0 18 -7 28 -8 11 -16 14 -19 8z"/>
 <path d="M2617 3174 c-9 -10 22 -66 33 -59 6 4 4 18 -5 36 -17 31 -18 32 -28 23z"/>
 <path d="M4720 3091 c-6 -12 -6 -22 -1 -26 6 -3 15 3 21 14 6 12 6 22 1 26 -6 3 -15 -3 -21 -14z"/>
 <path d="M4690 3021 c-6 -12 -6 -22 -1 -26 6 -3 15 3 21 14 6 12 6 22 1 26 -6 3 -15 -3 -21 -14z"/>
 <path d="M2697 2993 c-4 -6 0 -18 7 -28 8 -11 16 -14 19 -8 4 6 0 18 -7 28 -8 11 -16 14 -19 8z"/>
 <path d="M4630 2881 c-6 -12 -6 -22 -1 -26 6 -3 15 3 21 14 6 12 6 22 1 26 -6 3 -15 -3 -21 -14z"/>
 <path d="M4590 2791 c-6 -12 -6 -22 -1 -26 6 -3 15 3 21 14 6 12 6 22 1 26 -6 3 -15 -3 -21 -14z"/>
 <path d="M2877 2583 c-4 -6 0 -18 7 -28 8 -11 16 -14 19 -8 4 6 0 18 -7 28 -8 11 -16 14 -19 8z"/>
 <path d="M4400 2351 c-6 -12 -6 -22 -1 -26 6 -3 15 3 21 14 6 12 6 22 1 26 -6 3 -15 -3 -21 -14z"/>
 <path d="M2987 2333 c-4 -6 0 -18 7 -28 8 -11 16 -14 19 -8 4 6 0 18 -7 28 -8 11 -16 14 -19 8z"/>
 <path d="M4329 2186 c-1 -3 -2 -9 -3 -13 -1 -5 -12 -27 -24 -50 -13 -24 -18 -44 -12 -48 5 -3 18 12 30 35 11 22 18 40 14 40 -4 0 -1 6 5 14 8 10 9 16 1 21 -5 3 -11 4 -11 1z"/>
 <path d="M3067 2153 c-4 -6 0 -18 7 -28 8 -11 16 -14 19 -8 4 6 0 18 -7 28 -8 11 -16 14 -19 8z"/>
 <path d="M3137 1993 c-4 -6 0 -18 7 -28 8 -11 16 -14 19 -8 4 6 0 18 -7 28 -8 11 -16 14 -19 8z"/>
 <path d="M3437 1313 c-4 -6 0 -18 7 -28 8 -11 16 -14 19 -8 4 6 0 18 -7 28 -8 11 -16 14 -19 8z"/>
 <path d="M3820 1011 c-6 -12 -6 -22 -1 -26 6 -3 15 3 21 14 6 12 6 22 1 26 -6 3 -15 -3 -21 -14z"/>
 <path d="M3760 871 c-6 -12 -6 -22 -1 -26 6 -3 15 3 21 14 6 12 6 22 1 26 -6 3 -15 -3 -21 -14z"/>
 </g>

<g fill="#BDC4C8" stroke="none">
 <path d="M4175 5778 c-9 -24 -1 -143 10 -143 13 0 19 135 6 148 -7 7 -12 5 -16 -5z"/>
 <path d="M3662 5698 c-15 -15 -16 -44 -1 -53 6 -4 13 2 16 13 3 12 15 22 27 24 11 2 20 8 19 13 -3 15 -46 18 -61 3z"/>
 <path d="M1637 5673 c-3 -5 38 -53 92 -107 54 -54 101 -94 104 -89 3 5 -38 53 -92 107 -54 54 -101 94 -104 89z"/>
 <path d="M1537 5623 c-4 -6 0 -18 7 -28 8 -11 16 -14 19 -8 4 6 0 18 -7 28 -8 11 -16 14 -19 8z"/>
 <path d="M4926 5622 c-3 -5 3 -17 13 -26 11 -10 22 -13 25 -8 3 5 -3 17 -13 26 -11 10 -22 13 -25 8z"/>
 <path d="M3710 5481 c-6 -12 -6 -22 -1 -26 6 -3 15 3 21 14 6 12 6 22 1 26 -6 3 -15 -3 -21 -14z"/>
 <path d="M3655 5391 c-7 -12 12 -24 25 -16 11 7 4 25 -10 25 -5 0 -11 -4 -15 -9z"/>
 <path d="M3177 4123 c-3 -5 25 -40 62 -77 38 -38 71 -64 74 -59 3 5 -25 40 -62 77 -38 38 -71 64 -74 59z"/>
 <path d="M5070 3891 c-6 -12 -6 -22 -1 -26 6 -3 15 3 21 14 6 12 6 22 1 26 -6 3 -15 -3 -21 -14z"/>
 <path d="M2557 3303 c-4 -6 0 -18 7 -28 8 -11 16 -14 19 -8 4 6 0 18 -7 28 -8 11 -16 14 -19 8z"/>
 <path d="M2597 3213 c-4 -6 0 -18 7 -28 8 -11 16 -14 19 -8 4 6 0 18 -7 28 -8 11 -16 14 -19 8z"/>
 <path d="M2817 2713 c-4 -6 0 -18 7 -28 8 -11 16 -14 19 -8 4 6 0 18 -7 28 -8 11 -16 14 -19 8z"/>
 <path d="M4490 2551 c-6 -12 -6 -22 -1 -26 6 -3 15 3 21 14 6 12 6 22 1 26 -6 3 -15 -3 -21 -14z"/>
 <path d="M3407 1373 c-4 -6 0 -18 7 -28 8 -11 16 -14 19 -8 4 6 0 18 -7 28 -8 11 -16 14 -19 8z"/>
 <path d="M3477 1213 c-4 -6 0 -18 7 -28 8 -11 16 -14 19 -8 4 6 0 18 -7 28 -8 11 -16 14 -19 8z"/>
 <path d="M3850 1071 c-6 -12 -6 -22 -1 -26 6 -3 15 3 21 14 6 12 6 22 1 26 -6 3 -15 -3 -21 -14z"/>
 </g>

<g fill="#79878F" stroke="none">
 <path d="M5766 5771 c-109 -109 -194 -201 -189 -204 13 -8 356 337 346 347 -4 5 2 4 13 -2 27 -14 36 -5 23 21 -7 13 -7 17 -1 13 6 -3 13 -2 16 3 4 5 3 12 -2 15 -5 3 -97 -84 -206 -193z"/>
 <path d="M2839 5896 c-1 -3 -2 -9 -3 -13 -1 -5 -5 -13 -9 -20 -4 -6 -3 -14 3 -18 5 -3 11 -4 11 -1 1 3 2 9 3 14 1 4 5 12 9 19 4 6 3 14 -3 18 -5 3 -11 4 -11 1z"/>
 <path d="M2898 5893 c-7 -14 -3 -33 6 -33 12 -1 17 28 6 35 -5 3 -10 2 -12 -2z"/>
 <path d="M4206 5882 c-3 -5 3 -17 13 -26 11 -10 22 -13 25 -8 3 5 -3 17 -13 26 -11 10 -22 13 -25 8z"/>
 <path d="M4395 5710 c-4 -6 -10 -8 -15 -5 -5 3 -11 1 -14 -4 -4 -5 -2 -12 3 -15 5 -4 12 -2 16 4 4 6 10 8 15 5 5 -3 11 -1 14 4 4 5 2 12 -3 15 -5 4 -12 2 -16 -4z"/>
 <path d="M5810 5611 c-6 -12 -6 -22 -1 -26 6 -3 15 3 21 14 6 12 6 22 1 26 -6 3 -15 -3 -21 -14z"/>
 <path d="M3936 5572 c-3 -5 3 -17 13 -26 11 -10 22 -13 25 -8 3 5 -3 17 -13 26 -11 10 -22 13 -25 8z"/>
 <path d="M4216 5561 c-10 -11 -13 -22 -8 -25 5 -3 17 3 26 13 10 11 13 22 8 25 -5 3 -17 -3 -26 -13z"/>
 <path d="M2355 5560 c-4 -6 -3 -16 3 -22 6 -6 12 -6 17 2 4 6 3 16 -3 22 -6 6 -12 6 -17 -2z"/>
 <path d="M3655 5451 c-7 -12 12 -24 25 -16 11 7 4 25 -10 25 -5 0 -11 -4 -15 -9z"/>
 <path d="M1937 5363 c-3 -5 38 -53 92 -107 54 -54 101 -94 104 -89 3 5 -38 53 -92 107 -54 54 -101 94 -104 89z"/>
 <path d="M2146 5152 c-3 -5 8 -21 23 -36 16 -15 31 -23 35 -18 3 5 -8 21 -23 36 -16 15 -31 23 -35 18z"/>
 <path d="M1977 4633 c-4 -6 0 -18 7 -28 8 -11 16 -14 19 -8 4 6 0 18 -7 28 -8 11 -16 14 -19 8z"/>
 <path d="M5330 4501 c-6 -12 -6 -22 -1 -26 6 -3 15 3 21 14 6 12 6 22 1 26 -6 3 -15 -3 -21 -14z"/>
 <path d="M2157 4223 c-4 -6 0 -18 7 -28 8 -11 16 -14 19 -8 4 6 0 18 -7 28 -8 11 -16 14 -19 8z"/>
 <path d="M4840 3371 c-6 -12 -6 -22 -1 -26 6 -3 15 3 21 14 6 12 6 22 1 26 -6 3 -15 -3 -21 -14z"/>
 <path d="M2817 2723 c-4 -6 0 -18 7 -28 8 -11 16 -14 19 -8 4 6 0 18 -7 28 -8 11 -16 14 -19 8z"/>
 <path d="M4460 2491 c-6 -12 -6 -22 -1 -26 6 -3 15 3 21 14 6 12 6 22 1 26 -6 3 -15 -3 -21 -14z"/>
 <path d="M2957 2403 c-4 -6 0 -18 7 -28 8 -11 16 -14 19 -8 4 6 0 18 -7 28 -8 11 -16 14 -19 8z"/>
 <path d="M3037 2223 c-4 -6 0 -18 7 -28 8 -11 16 -14 19 -8 4 6 0 18 -7 28 -8 11 -16 14 -19 8z"/>
 <path d="M3217 1813 c-4 -6 0 -18 7 -28 8 -11 16 -14 19 -8 4 6 0 18 -7 28 -8 11 -16 14 -19 8z"/>
 </g>

<g fill="#485B66" stroke="none">
 <path d="M4857 5883 c-4 -3 -7 -113 -7 -243 0 -199 2 -240 15 -250 8 -7 15 -9 15 -4 1 5 0 117 0 249 -1 221 -5 267 -23 248z"/>
 <path d="M1445 5850 c-4 -6 -3 -16 3 -22 6 -6 12 -6 17 2 4 6 3 16 -3 22 -6 6 -12 6 -17 -2z"/>
 <path d="M3359 5856 c-1 -3 -2 -9 -3 -13 -1 -5 -5 -13 -9 -20 -4 -6 -3 -14 3 -18 5 -3 11 -4 11 -1 1 3 2 9 3 14 1 4 5 12 9 19 4 6 3 14 -3 18 -5 3 -11 4 -11 1z"/>
 <path d="M4764 5838 c-6 -9 -4 -10 26 -11 11 -1 19 3 18 8 -4 12 -37 14 -44 3z"/>
 <path d="M4105 5800 c-4 -6 -3 -16 3 -22 6 -6 12 -6 17 2 4 6 3 16 -3 22 -6 6 -12 6 -17 -2z"/>
 <path d="M4515 5791 c-7 -12 12 -24 25 -16 11 7 4 25 -10 25 -5 0 -11 -4 -15 -9z"/>
 <path d="M4245 5778 c-9 -24 -1 -143 10 -143 13 0 19 135 6 148 -7 7 -12 5 -16 -5z"/>
 <path d="M2450 5761 c-6 -12 -6 -22 -1 -26 6 -3 15 3 21 14 6 12 6 22 1 26 -6 3 -15 -3 -21 -14z"/>
 <path d="M3584 5746 c-4 -10 -2 -22 4 -28 8 -8 13 -7 18 6 4 10 2 22 -4 28 -8 8 -13 7 -18 -6z"/>
 <path d="M4436 5731 c-4 -5 -2 -12 4 -16 5 -3 10 -3 10 1 0 3 6 1 14 -5 10 -8 16 -9 21 -1 3 5 4 11 1 11 -3 1 -9 2 -13 3 -5 1 -13 5 -20 9 -6 4 -14 3 -17 -2z"/>
 <path d="M1517 5684 c-9 -10 22 -66 33 -59 6 4 4 18 -5 36 -17 31 -18 32 -28 23z"/>
 <path d="M4105 5640 c-4 -6 -3 -16 3 -22 6 -6 12 -6 17 2 4 6 3 16 -3 22 -6 6 -12 6 -17 -2z"/>
 <path d="M4939 5603 c-4 -29 -3 -39 4 -50 5 -7 13 -10 19 -7 5 3 4 11 -2 19 -7 8 -9 19 -6 24 4 5 2 12 -4 16 -5 3 -11 3 -11 -2z"/>
 <path d="M1706 5592 c-3 -6 1 -15 8 -21 8 -7 17 -8 20 -3 3 6 -1 15 -8 21 -8 7 -17 8 -20 3z"/>
 <path d="M4645 5570 c-4 -6 -3 -16 3 -22 6 -6 12 -6 17 2 4 6 3 16 -3 22 -6 6 -12 6 -17 -2z"/>
 <path d="M1747 5553 c-3 -5 25 -40 62 -77 38 -38 71 -64 74 -59 3 5 -25 40 -62 77 -38 38 -71 64 -74 59z"/>
 <path d="M3584 5546 c-4 -10 -2 -22 4 -28 8 -8 13 -7 18 6 4 10 2 22 -4 28 -8 8 -13 7 -18 -6z"/>
 <path d="M5750 5480 c-6 -11 -8 -20 -5 -20 3 0 -2 -11 -10 -24 -10 -15 -12 -26 -6 -30 5 -4 15 3 21 14 6 11 8 20 5 20 -3 0 2 11 10 24 10 15 12 26 6 30 -5 4 -15 -3 -21 -14z"/>
 <path d="M3751 5426 c-7 -8 -8 -17 -3 -20 6 -3 15 1 21 8 7 8 8 17 3 20 -6 3 -15 -1 -21 -8z"/>
 <path d="M1637 5413 c-4 -6 0 -18 7 -28 8 -11 16 -14 19 -8 4 6 0 18 -7 28 -8 11 -16 14 -19 8z"/>
 <path d="M3146 5412 c-3 -6 1 -15 8 -21 8 -7 17 -8 20 -3 3 6 -1 15 -8 21 -8 7 -17 8 -20 3z"/>
 <path d="M1667 5344 c-9 -10 22 -66 33 -59 6 4 4 18 -5 36 -17 31 -18 32 -28 23z"/>
 <path d="M5620 5181 c-6 -12 -6 -22 -1 -26 6 -3 15 3 21 14 6 12 6 22 1 26 -6 3 -15 -3 -21 -14z"/>
 <path d="M1817 5003 c-4 -6 0 -18 7 -28 8 -11 16 -14 19 -8 4 6 0 18 -7 28 -8 11 -16 14 -19 8z"/>
 <path d="M1857 4913 c-4 -6 0 -18 7 -28 8 -11 16 -14 19 -8 4 6 0 18 -7 28 -8 11 -16 14 -19 8z"/>
 <path d="M1887 4843 c-4 -6 0 -18 7 -28 8 -11 16 -14 19 -8 4 6 0 18 -7 28 -8 11 -16 14 -19 8z"/>
 <path d="M5405 4681 c-9 -18 -11 -32 -5 -36 5 -3 16 8 25 24 9 18 11 32 5 36 -5 3 -16 -8 -25 -24z"/>
 <path d="M3647 4303 c-3 -5 34 -49 82 -97 49 -49 91 -84 94 -79 3 5 -34 49 -82 97 -49 49 -91 84 -94 79z"/>
 <path d="M3006 4282 c-3 -6 1 -15 8 -21 8 -7 17 -8 20 -3 3 6 -1 15 -8 21 -8 7 -17 8 -20 3z"/>
 <path d="M3047 4243 c-3 -5 54 -69 127 -142 74 -73 136 -129 139 -124 3 5 -54 69 -127 142 -74 73 -136 129 -139 124z"/>
 <path d="M2187 4163 c-4 -6 0 -18 7 -28 8 -11 16 -14 19 -8 4 6 0 18 -7 28 -8 11 -16 14 -19 8z"/>
 <path d="M5140 4071 c-6 -12 -6 -22 -1 -26 6 -3 15 3 21 14 6 12 6 22 1 26 -6 3 -15 -3 -21 -14z"/>
 <path d="M2227 4073 c-4 -6 0 -18 7 -28 8 -11 16 -14 19 -8 4 6 0 18 -7 28 -8 11 -16 14 -19 8z"/>
 <path d="M3912 4011 c-18 -3 -34 -10 -35 -16 -3 -14 63 -19 76 -6 17 17 -4 28 -41 22z"/>
 <path d="M3335 4000 c-3 -5 0 -13 8 -16 23 -8 82 0 82 11 0 14 -82 19 -90 5z"/>
 <path d="M2447 3573 c-4 -6 0 -18 7 -28 8 -11 16 -14 19 -8 4 6 0 18 -7 28 -8 11 -16 14 -19 8z"/>
 <path d="M4910 3541 c-6 -12 -6 -22 -1 -26 6 -3 15 3 21 14 6 12 6 22 1 26 -6 3 -15 -3 -21 -14z"/>
 <path d="M2487 3483 c-4 -6 0 -18 7 -28 8 -11 16 -14 19 -8 4 6 0 18 -7 28 -8 11 -16 14 -19 8z"/>
 <path d="M4850 3401 c-6 -12 -6 -22 -1 -26 6 -3 15 3 21 14 6 12 6 22 1 26 -6 3 -15 -3 -21 -14z"/>
 <path d="M2557 3323 c-4 -6 0 -18 7 -28 8 -11 16 -14 19 -8 4 6 0 18 -7 28 -8 11 -16 14 -19 8z"/>
 <path d="M2587 3253 c-4 -6 0 -18 7 -28 8 -11 16 -14 19 -8 4 6 0 18 -7 28 -8 11 -16 14 -19 8z"/>
 <path d="M4750 3171 c-6 -12 -6 -22 -1 -26 6 -3 15 3 21 14 6 12 6 22 1 26 -6 3 -15 -3 -21 -14z"/>
 <path d="M2667 3073 c-4 -6 0 -18 7 -28 8 -11 16 -14 19 -8 4 6 0 18 -7 28 -8 11 -16 14 -19 8z"/>
 <path d="M4690 3031 c-6 -12 -6 -22 -1 -26 6 -3 15 3 21 14 6 12 6 22 1 26 -6 3 -15 -3 -21 -14z"/>
 <path d="M2707 2983 c-4 -6 0 -18 7 -28 8 -11 16 -14 19 -8 4 6 0 18 -7 28 -8 11 -16 14 -19 8z"/>
 <path d="M4650 2941 c-6 -12 -6 -22 -1 -26 6 -3 15 3 21 14 6 12 6 22 1 26 -6 3 -15 -3 -21 -14z"/>
 <path d="M4530 2661 c-6 -12 -6 -22 -1 -26 6 -3 15 3 21 14 6 12 6 22 1 26 -6 3 -15 -3 -21 -14z"/>
 <path d="M2847 2663 c-4 -6 0 -18 7 -28 8 -11 16 -14 19 -8 4 6 0 18 -7 28 -8 11 -16 14 -19 8z"/>
 <path d="M2917 2503 c-4 -6 0 -18 7 -28 8 -11 16 -14 19 -8 4 6 0 18 -7 28 -8 11 -16 14 -19 8z"/>
 <path d="M4390 2341 c-6 -12 -6 -22 -1 -26 6 -3 15 3 21 14 6 12 6 22 1 26 -6 3 -15 -3 -21 -14z"/>
 <path d="M3067 2163 c-4 -6 0 -18 7 -28 8 -11 16 -14 19 -8 4 6 0 18 -7 28 -8 11 -16 14 -19 8z"/>
 <path d="M4260 2041 c-6 -12 -6 -22 -1 -26 6 -3 15 3 21 14 6 12 6 22 1 26 -6 3 -15 -3 -21 -14z"/>
 <path d="M3137 2003 c-4 -6 0 -18 7 -28 8 -11 16 -14 19 -8 4 6 0 18 -7 28 -8 11 -16 14 -19 8z"/>
 <path d="M4200 1901 c-6 -12 -6 -22 -1 -26 6 -3 15 3 21 14 6 12 6 22 1 26 -6 3 -15 -3 -21 -14z"/>
 <path d="M3207 1843 c-4 -6 0 -18 7 -28 8 -11 16 -14 19 -8 4 6 0 18 -7 28 -8 11 -16 14 -19 8z"/>
 <path d="M4140 1761 c-6 -12 -6 -22 -1 -26 6 -3 15 3 21 14 6 12 6 22 1 26 -6 3 -15 -3 -21 -14z"/>
 <path d="M3357 1504 c-9 -10 22 -66 33 -59 6 4 4 18 -5 36 -17 31 -18 32 -28 23z"/>
 <path d="M3397 1413 c-4 -6 0 -18 7 -28 8 -11 16 -14 19 -8 4 6 0 18 -7 28 -8 11 -16 14 -19 8z"/>
 <path d="M3880 1161 c-6 -12 -6 -22 -1 -26 6 -3 15 3 21 14 6 12 6 22 1 26 -6 3 -15 -3 -21 -14z"/>
 <path d="M3547 1073 c-4 -6 0 -18 7 -28 8 -11 16 -14 19 -8 4 6 0 18 -7 28 -8 11 -16 14 -19 8z"/>
 <path d="M3577 1003 c-4 -6 0 -18 7 -28 8 -11 16 -14 19 -8 4 6 0 18 -7 28 -8 11 -16 14 -19 8z"/>
 <path d="M3780 931 c-6 -12 -6 -22 -1 -26 6 -3 15 3 21 14 6 12 6 22 1 26 -6 3 -15 -3 -21 -14z"/>
 <path d="M3657 823 c-4 -6 0 -18 7 -28 8 -11 16 -14 19 -8 4 6 0 18 -7 28 -8 11 -16 14 -19 8z"/>
 </g>

<g fill="#65757E" stroke="none">
 <path d="M2297 5894 c-11 -12 3 -24 29 -24 l24 0 1 -157 c2 -143 3 -168 8 -197 0 -5 8 -3 16 4 9 7 12 18 7 24 -9 13 0 102 11 99 4 -2 6 0 5 5 -2 4 -6 6 -10 5 -5 -2 -8 45 -8 103 0 58 -5 114 -10 125 -10 18 -59 27 -73 13z"/>
 <path d="M2431 5881 c-13 -23 -4 -33 18 -21 9 5 24 11 34 14 10 3 15 10 12 16 -10 17 -54 11 -64 -9z"/>
 <path d="M2565 5890 c-3 -5 0 -13 9 -16 21 -8 61 -1 61 11 0 14 -62 19 -70 5z"/>
 <path d="M2845 5891 c-7 -13 17 -24 40 -19 9 1 16 8 16 13 0 14 -48 19 -56 6z"/>
 <path d="M2965 5890 c-3 -5 0 -13 9 -16 21 -8 61 -1 61 11 0 14 -62 19 -70 5z"/>
 <path d="M3155 5890 c-3 -5 0 -13 9 -16 21 -8 61 -1 61 11 0 14 -62 19 -70 5z"/>
 <path d="M3315 5890 c-3 -5 0 -13 9 -16 21 -8 61 -1 61 11 0 14 -62 19 -70 5z"/>
 <path d="M3755 5890 c-8 -13 20 -24 41 -16 20 8 9 26 -16 26 -10 0 -22 -5 -25 -10z"/>
 <path d="M3865 5890 c-3 -5 0 -13 9 -16 21 -8 61 -1 61 11 0 14 -62 19 -70 5z"/>
 <path d="M4357 5894 c-11 -12 3 -24 28 -24 13 0 27 -5 30 -10 12 -19 25 0 15 21 -10 18 -59 27 -73 13z"/>
 <path d="M4495 5890 c-3 -5 0 -13 9 -16 21 -8 61 -1 61 11 0 14 -62 19 -70 5z"/>
 <path d="M4865 5890 c-3 -5 0 -13 9 -16 21 -8 61 -1 61 11 0 14 -62 19 -70 5z"/>
 <path d="M5001 5882 c-12 -22 -3 -36 13 -23 6 5 22 11 36 13 36 4 31 22 -7 26 -23 2 -34 -2 -42 -16z"/>
 <path d="M3540 5831 c-6 -12 -6 -22 -1 -26 6 -3 15 3 21 14 6 12 6 22 1 26 -6 3 -15 -3 -21 -14z"/>
 <path d="M4515 5781 c-7 -12 12 -24 25 -16 11 7 4 25 -10 25 -5 0 -11 -4 -15 -9z"/>
 <path d="M2446 5742 c-3 -5 3 -17 13 -26 11 -10 22 -13 25 -8 3 5 -3 17 -13 26 -11 10 -22 13 -25 8z"/>
 <path d="M3319 5736 c-1 -3 -2 -9 -3 -13 -1 -5 -5 -13 -9 -20 -4 -6 -3 -14 3 -18 5 -3 11 -4 11 -1 1 3 2 9 3 14 1 4 5 12 9 19 4 6 3 14 -3 18 -5 3 -11 4 -11 1z"/>
 <path d="M4655 5591 c-7 -12 12 -24 25 -16 11 7 4 25 -10 25 -5 0 -11 -4 -15 -9z"/>
 <path d="M4755 5591 c-7 -13 17 -24 40 -19 9 1 16 8 16 13 0 14 -48 19 -56 6z"/>
 <path d="M3035 5571 c-6 -11 1 -15 18 -12 5 1 6 -3 3 -8 -4 -5 -2 -12 3 -15 19 -12 20 12 2 28 -13 11 -21 14 -26 7z"/>
 <path d="M4921 4926 c-359 -359 -649 -656 -644 -659 5 -3 303 288 662 647 359 359 649 656 644 659 -5 3 -303 -288 -662 -647z"/>
 <path d="M4286 5563 c-12 -12 16 -43 39 -43 30 0 43 18 18 26 -10 3 -25 9 -34 14 -9 5 -19 6 -23 3z"/>
 <path d="M5046 5551 c-10 -11 -13 -22 -8 -25 5 -3 17 3 26 13 10 11 13 22 8 25 -5 3 -17 -3 -26 -13z"/>
 <path d="M3295 5549 c-3 -4 2 -12 9 -19 17 -13 81 -10 81 5 0 12 -84 25 -90 14z"/>
 <path d="M2965 5540 c-3 -5 0 -13 9 -16 21 -8 61 -1 61 11 0 14 -62 19 -70 5z"/>
 <path d="M3725 5540 c-4 -6 -3 -16 3 -22 6 -6 12 -6 17 2 4 6 3 16 -3 22 -6 6 -12 6 -17 -2z"/>
 <path d="M3865 5540 c-3 -5 0 -13 9 -16 21 -8 61 -1 61 11 0 14 -62 19 -70 5z"/>
 <path d="M4425 5540 c-3 -5 0 -13 9 -16 21 -8 61 -1 61 11 0 14 -62 19 -70 5z"/>
 <path d="M4565 5540 c-3 -5 0 -13 9 -16 21 -8 61 -1 61 11 0 14 -62 19 -70 5z"/>
 <path d="M4655 5541 c-7 -12 12 -24 25 -16 11 7 4 25 -10 25 -5 0 -11 -4 -15 -9z"/>
 <path d="M4755 5540 c-8 -13 20 -24 41 -16 20 8 9 26 -16 26 -10 0 -22 -5 -25 -10z"/>
 <path d="M1617 5453 c-4 -6 0 -18 7 -28 8 -11 16 -14 19 -8 4 6 0 18 -7 28 -8 11 -16 14 -19 8z"/>
 <path d="M1877 5422 c-4 -5 9 -23 27 -41 19 -18 36 -29 39 -23 4 5 -9 23 -27 41 -19 18 -36 29 -39 23z"/>
 <path d="M1647 5383 c-4 -6 0 -18 7 -28 8 -11 16 -14 19 -8 4 6 0 18 -7 28 -8 11 -16 14 -19 8z"/>
 <path d="M5680 5311 c-6 -12 -6 -22 -1 -26 6 -3 15 3 21 14 6 12 6 22 1 26 -6 3 -15 -3 -21 -14z"/>
 <path d="M1727 5203 c-4 -6 0 -18 7 -28 8 -11 16 -14 19 -8 4 6 0 18 -7 28 -8 11 -16 14 -19 8z"/>
 <path d="M5605 5140 c-8 -16 -13 -30 -9 -30 4 0 1 -6 -5 -14 -8 -10 -9 -16 -1 -21 5 -3 11 -4 11 -1 1 3 2 9 3 14 1 4 10 21 19 39 10 19 13 34 7 38 -5 3 -16 -8 -25 -25z"/>
 <path d="M1767 5113 c-4 -6 0 -18 7 -28 8 -11 16 -14 19 -8 4 6 0 18 -7 28 -8 11 -16 14 -19 8z"/>
 <path d="M1907 4793 c-4 -6 0 -18 7 -28 8 -11 16 -14 19 -8 4 6 0 18 -7 28 -8 11 -16 14 -19 8z"/>
 <path d="M5450 4781 c-6 -12 -6 -22 -1 -26 6 -3 15 3 21 14 6 12 6 22 1 26 -6 3 -15 -3 -21 -14z"/>
 <path d="M2097 4363 c-4 -6 0 -18 7 -28 8 -11 16 -14 19 -8 4 6 0 18 -7 28 -8 11 -16 14 -19 8z"/>
 <path d="M2127 4294 c-9 -10 22 -66 33 -59 6 4 4 18 -5 36 -17 31 -18 32 -28 23z"/>
 <path d="M5220 4251 c-6 -12 -6 -22 -1 -26 6 -3 15 3 21 14 6 12 6 22 1 26 -6 3 -15 -3 -21 -14z"/>
 <path d="M4161 4166 c-7 -8 -8 -17 -3 -20 6 -3 15 1 21 8 7 8 8 17 3 20 -6 3 -15 -1 -21 -8z"/>
 <path d="M4121 4126 c-7 -8 -8 -17 -3 -20 6 -3 15 1 21 8 7 8 8 17 3 20 -6 3 -15 -1 -21 -8z"/>
 <path d="M4051 4056 c-7 -8 -8 -17 -3 -20 6 -3 15 1 21 8 7 8 8 17 3 20 -6 3 -15 -1 -21 -8z"/>
 <path d="M5130 4041 c-6 -12 -6 -22 -1 -26 6 -3 15 3 21 14 6 12 6 22 1 26 -6 3 -15 -3 -21 -14z"/>
 <path d="M5090 3951 c-6 -12 -6 -22 -1 -26 6 -3 15 3 21 14 6 12 6 22 1 26 -6 3 -15 -3 -21 -14z"/>
 <path d="M2317 3863 c-4 -6 0 -18 7 -28 8 -11 16 -14 19 -8 4 6 0 18 -7 28 -8 11 -16 14 -19 8z"/>
 <path d="M3635 3411 c-3 -6 3 -15 14 -21 12 -6 22 -6 26 -1 3 6 -3 15 -14 21 -12 6 -22 6 -26 1z"/>
 <path d="M4800 3281 c-6 -12 -6 -22 -1 -26 6 -3 15 3 21 14 6 12 6 22 1 26 -6 3 -15 -3 -21 -14z"/>
 <path d="M4605 2831 c-9 -18 -11 -32 -5 -36 5 -3 16 8 25 24 9 18 11 32 5 36 -5 3 -16 -8 -25 -24z"/>
 <path d="M2897 2543 c-4 -6 0 -18 7 -28 8 -11 16 -14 19 -8 4 6 0 18 -7 28 -8 11 -16 14 -19 8z"/>
 <path d="M3087 2113 c-4 -6 0 -18 7 -28 8 -11 16 -14 19 -8 4 6 0 18 -7 28 -8 11 -16 14 -19 8z"/>
 <path d="M3187 1883 c-4 -6 0 -18 7 -28 8 -11 16 -14 19 -8 4 6 0 18 -7 28 -8 11 -16 14 -19 8z"/>
 <path d="M3407 1383 c-4 -6 0 -18 7 -28 8 -11 16 -14 19 -8 4 6 0 18 -7 28 -8 11 -16 14 -19 8z"/>
 <path d="M3527 1113 c-4 -6 0 -18 7 -28 8 -11 16 -14 19 -8 4 6 0 18 -7 28 -8 11 -16 14 -19 8z"/>
 <path d="M3557 1043 c-4 -6 0 -18 7 -28 8 -11 16 -14 19 -8 4 6 0 18 -7 28 -8 11 -16 14 -19 8z"/>
 <path d="M3607 933 c-4 -6 0 -18 7 -28 8 -11 16 -14 19 -8 4 6 0 18 -7 28 -8 11 -16 14 -19 8z"/>
 <path d="M3637 863 c-4 -6 0 -18 7 -28 8 -11 16 -14 19 -8 4 6 0 18 -7 28 -8 11 -16 14 -19 8z"/>
 </g>

<g fill="#253D49" stroke="none">
 <path d="M5930 5901 c-6 -12 -6 -22 -1 -26 6 -3 15 3 21 14 6 12 6 22 1 26 -6 3 -15 -3 -21 -14z"/>
 <path d="M2725 5888 c-23 -13 -8 -30 15 -18 11 6 23 9 29 8 5 -2 8 1 8 7 -2 12 -31 14 -52 3z"/>
 <path d="M4115 5890 c-4 -6 -10 -8 -15 -5 -5 3 -11 1 -14 -4 -4 -5 -2 -12 3 -15 5 -4 12 -2 16 4 4 6 10 8 15 5 5 -3 11 -1 14 4 4 5 2 12 -3 15 -5 4 -12 2 -16 -4z"/>
 <path d="M4788 5894 c-9 -14 11 -56 22 -49 13 8 13 18 -3 40 -8 10 -16 14 -19 9z"/>
 <path d="M2956 5882 c-10 -16 -1 -342 9 -345 13 -3 18 340 5 348 -5 3 -11 1 -14 -3z"/>
 <path d="M3574 5867 c-36 -31 -18 -42 20 -12 16 13 24 25 18 29 -6 3 -23 -4 -38 -17z"/>
 <path d="M3795 5879 c-10 -26 -1 -234 10 -232 13 4 19 223 6 236 -7 7 -12 5 -16 -4z"/>
 <path d="M2556 5873 c-3 -3 -6 -62 -6 -130 0 -67 -3 -122 -7 -120 -5 1 -8 -2 -8 -8 0 -5 3 -9 8 -7 11 3 8 -36 -3 -43 -8 -5 -7 -11 1 -21 6 -7 9 -20 6 -28 -8 -20 3 -28 20 -15 10 9 13 53 13 190 0 162 -5 201 -24 182z"/>
 <path d="M2801 5851 c-12 -21 -11 -22 11 -25 15 -1 12 -84 -3 -103 -11 -12 -3 -20 21 -19 17 1 27 76 14 105 -4 9 -8 22 -10 30 -5 28 -22 34 -33 12z"/>
 <path d="M1459 5847 c-1 -4 -2 -13 -3 -19 -3 -21 24 -69 35 -63 5 4 6 12 3 18 -4 7 43 -37 103 -97 61 -59 113 -104 116 -99 3 5 -52 67 -124 139 -71 71 -130 125 -130 121z"/>
 <path d="M3729 5846 c-1 -3 -2 -9 -3 -13 -1 -5 -5 -13 -9 -20 -4 -6 -3 -14 3 -18 5 -3 11 -4 11 -1 1 3 2 9 3 14 1 4 5 12 9 19 4 6 3 14 -3 18 -5 3 -11 4 -11 1z"/>
 <path d="M4156 5842 c-3 -5 3 -17 13 -26 11 -10 22 -13 25 -8 3 5 -3 17 -13 26 -11 10 -22 13 -25 8z"/>
 <path d="M2689 5839 c-6 -28 -5 -56 1 -64 5 -5 9 -13 9 -17 1 -5 3 -8 6 -8 5 0 7 6 4 13 -1 1 -2 16 -3 34 -1 26 -14 57 -17 42z"/>
 <path d="M4110 5821 c-6 -12 -6 -22 -1 -26 6 -3 15 3 21 14 6 12 6 22 1 26 -6 3 -15 -3 -21 -14z"/>
 <path d="M4375 5801 c-7 -12 12 -24 25 -16 11 7 4 25 -10 25 -5 0 -11 -4 -15 -9z"/>
 <path d="M3279 5796 c-1 -3 -2 -9 -3 -13 -1 -5 -5 -13 -9 -20 -4 -6 -3 -14 3 -18 5 -3 11 -4 11 -1 1 3 2 9 3 14 1 4 5 12 9 19 4 6 3 14 -3 18 -5 3 -11 4 -11 1z"/>
 <path d="M4425 5790 c-4 -6 -3 -16 3 -22 6 -6 12 -6 17 2 4 6 3 16 -3 22 -6 6 -12 6 -17 -2z"/>
 <path d="M3525 5770 c-4 -6 -3 -16 3 -22 6 -6 12 -6 17 2 4 6 3 16 -3 22 -6 6 -12 6 -17 -2z"/>
 <path d="M5870 5761 c-6 -12 -6 -22 -1 -26 6 -3 15 3 21 14 6 12 6 22 1 26 -6 3 -15 -3 -21 -14z"/>
 <path d="M3319 5746 c-1 -3 -2 -9 -3 -13 -1 -5 -5 -14 -9 -20 -5 -7 -5 -13 -1 -13 3 0 1 -6 -5 -14 -8 -10 -9 -16 -1 -21 5 -3 11 -4 11 -1 4 16 7 26 9 31 1 3 3 8 4 13 1 4 5 12 9 19 4 6 3 14 -3 18 -5 3 -11 4 -11 1z"/>
 <path d="M1497 5734 c-9 -10 22 -66 33 -59 6 4 4 18 -5 36 -17 31 -18 32 -28 23z"/>
 <path d="M4365 5730 c-4 -6 -3 -16 3 -22 6 -6 12 -6 17 2 4 6 3 16 -3 22 -6 6 -12 6 -17 -2z"/>
 <path d="M4504 5728 c-11 -17 7 -29 23 -16 9 7 18 12 20 11 1 -2 2 0 1 4 -4 10 -38 11 -44 1z"/>
 <path d="M4436 5721 c-4 -5 -2 -12 4 -16 5 -3 10 -3 10 1 0 3 6 1 14 -5 10 -8 16 -9 21 -1 3 5 4 11 1 11 -3 1 -9 2 -13 3 -5 1 -13 5 -20 9 -6 4 -14 3 -17 -2z"/>
 <path d="M2806 5681 c-7 -10 -1 -15 15 -13 4 1 5 -7 2 -17 -6 -24 15 -38 23 -16 8 20 -30 63 -40 46z"/>
 <path d="M4355 5660 c-4 -6 -3 -16 3 -22 6 -6 12 -6 17 2 4 6 3 16 -3 22 -6 6 -12 6 -17 -2z"/>
 <path d="M4495 5660 c-4 -6 -3 -16 3 -22 6 -6 12 -6 17 2 4 6 3 16 -3 22 -6 6 -12 6 -17 -2z"/>
 <path d="M2688 5643 c-4 -8 -3 -28 2 -38 1 -3 3 -9 4 -15 0 -5 4 -10 9 -10 4 0 10 0 13 0 4 0 1 7 -6 15 -13 16 -8 20 33 27 10 2 19 8 20 13 2 12 -69 20 -75 8z"/>
 <path d="M5810 5621 c-6 -12 -6 -22 -1 -26 6 -3 15 3 21 14 6 12 6 22 1 26 -6 3 -15 -3 -21 -14z"/>
 <path d="M1547 5623 c-4 -6 0 -18 7 -28 8 -11 16 -14 19 -8 4 6 0 18 -7 28 -8 11 -16 14 -19 8z"/>
 <path d="M2889 5626 c-1 -3 -2 -9 -3 -13 -1 -5 -5 -13 -9 -20 -4 -6 -3 -14 3 -18 5 -3 11 -4 11 -1 1 3 2 9 3 14 1 4 5 12 9 19 4 6 3 14 -3 18 -5 3 -11 4 -11 1z"/>
 <path d="M4107 5623 c-4 -6 0 -18 7 -28 8 -11 16 -14 19 -8 4 6 0 18 -7 28 -8 11 -16 14 -19 8z"/>
 <path d="M4166 5601 c-10 -11 -13 -22 -8 -25 5 -3 17 3 26 13 10 11 13 22 8 25 -5 3 -17 -3 -26 -13z"/>
 <path d="M2756 5602 c-3 -6 1 -15 8 -21 8 -7 17 -8 20 -3 3 6 -1 15 -8 21 -8 7 -17 8 -20 3z"/>
 <path d="M2811 5596 c-7 -8 -8 -17 -3 -20 6 -3 15 1 21 8 7 8 8 17 3 20 -6 3 -15 -1 -21 -8z"/>
 <path d="M4485 5590 c-4 -6 -3 -16 3 -22 6 -6 12 -6 17 2 4 6 3 16 -3 22 -6 6 -12 6 -17 -2z"/>
 <path d="M4649 5586 c-5 -23 -2 -46 5 -48 12 -4 15 41 4 48 -4 3 -8 3 -9 0z"/>
 <path d="M1726 5572 c-3 -6 1 -15 8 -21 8 -7 17 -8 20 -3 3 6 -1 15 -8 21 -8 7 -17 8 -20 3z"/>
 <path d="M4795 5570 c-4 -6 -3 -16 3 -22 6 -6 12 -6 17 2 4 6 3 16 -3 22 -6 6 -12 6 -17 -2z"/>
 <path d="M5775 5541 c-9 -18 -11 -32 -5 -36 5 -3 16 8 25 24 9 18 11 32 5 36 -5 3 -16 -8 -25 -24z"/>
 <path d="M1577 5553 c-4 -6 0 -18 7 -28 8 -11 16 -14 19 -8 4 6 0 18 -7 28 -8 11 -16 14 -19 8z"/>
 <path d="M4086 5551 c-4 -5 -2 -12 4 -16 5 -3 10 -3 10 1 0 3 6 1 14 -5 10 -8 16 -9 21 -1 3 5 4 11 1 11 -3 1 -9 2 -13 3 -5 1 -13 5 -20 9 -6 4 -14 3 -17 -2z"/>
 <path d="M2361 5516 c-7 -8 -8 -17 -3 -20 6 -3 15 1 21 8 7 8 8 17 3 20 -6 3 -15 -1 -21 -8z"/>
 <path d="M1607 5484 c-9 -10 22 -66 33 -59 6 4 4 18 -5 36 -17 31 -18 32 -28 23z"/>
 <path d="M3606 5471 c-6 -8 5 -20 31 -35 23 -13 22 12 -2 28 -13 9 -26 12 -29 7z"/>
 <path d="M3556 5442 c-3 -6 1 -15 8 -21 8 -7 17 -8 20 -3 3 6 -1 15 -8 21 -8 7 -17 8 -20 3z"/>
 <path d="M4695 5420 c-8 -13 20 -24 41 -16 20 8 9 26 -16 26 -10 0 -22 -5 -25 -10z"/>
 <path d="M3596 5411 c-4 -5 -2 -12 4 -16 5 -3 10 -3 10 1 0 3 6 1 14 -5 10 -8 16 -9 21 -1 3 5 4 11 1 11 -3 1 -9 2 -13 3 -5 1 -13 5 -20 9 -6 4 -14 3 -17 -2z"/>
 <path d="M3725 5410 c-4 -6 -10 -8 -15 -5 -5 3 -11 1 -14 -4 -4 -5 -2 -12 3 -15 5 -4 12 -2 16 4 4 6 10 8 15 5 5 -3 11 -1 14 4 4 5 2 12 -3 15 -5 4 -12 2 -16 -4z"/>
 <path d="M5705 5381 c-9 -18 -11 -32 -5 -36 5 -3 16 8 25 24 9 18 11 32 5 36 -5 3 -16 -8 -25 -24z"/>
 <path d="M5650 5251 c-6 -12 -6 -22 -1 -26 6 -3 15 3 21 14 6 12 6 22 1 26 -6 3 -15 -3 -21 -14z"/>
 <path d="M1727 5213 c-4 -6 0 -18 7 -28 8 -11 16 -14 19 -8 4 6 0 18 -7 28 -8 11 -16 14 -19 8z"/>
 <path d="M1757 5143 c-4 -6 0 -18 7 -28 8 -11 16 -14 19 -8 4 6 0 18 -7 28 -8 11 -16 14 -19 8z"/>
 <path d="M1797 5053 c-4 -6 0 -18 7 -28 8 -11 16 -14 19 -8 4 6 0 18 -7 28 -8 11 -16 14 -19 8z"/>
 <path d="M5555 5031 c-9 -18 -11 -32 -5 -36 5 -3 16 8 25 24 9 18 11 32 5 36 -5 3 -16 -8 -25 -24z"/>
 <path d="M5510 4930 c-6 -11 -8 -20 -4 -20 3 0 1 -6 -5 -14 -8 -10 -9 -16 -1 -21 5 -3 11 -4 11 -1 1 3 2 9 3 14 1 4 7 17 14 29 7 13 8 24 3 28 -6 3 -15 -4 -21 -15z"/>
 <path d="M2366 4922 c-3 -6 1 -15 8 -21 8 -7 17 -8 20 -3 3 6 -1 15 -8 21 -8 7 -17 8 -20 3z"/>
 <path d="M1877 4873 c-4 -6 0 -18 7 -28 8 -11 16 -14 19 -8 4 6 0 18 -7 28 -8 11 -16 14 -19 8z"/>
 <path d="M2427 4863 c-3 -5 126 -141 287 -302 161 -161 296 -289 299 -284 3 5 -126 141 -287 302 -161 161 -296 289 -299 284z"/>
 <path d="M5469 4836 c-1 -3 -2 -9 -3 -13 -1 -5 -10 -23 -19 -40 -10 -18 -15 -33 -12 -33 3 0 -2 -11 -10 -24 -10 -15 -12 -26 -6 -30 8 -6 38 33 32 42 -1 1 6 16 14 32 9 17 13 30 9 30 -4 0 -1 6 5 14 8 10 9 16 1 21 -5 3 -11 4 -11 1z"/>
 <path d="M1937 4743 c-4 -3 -2 -12 4 -20 6 -7 9 -13 5 -13 -4 0 0 -13 9 -30 8 -16 15 -31 14 -32 -6 -9 24 -48 32 -42 6 4 4 15 -6 30 -8 13 -13 24 -10 24 3 0 -2 15 -12 33 -9 17 -17 35 -18 39 0 11 -11 18 -18 11z"/>
 <path d="M2017 4554 c-9 -10 22 -66 33 -59 6 4 4 18 -5 36 -17 31 -18 32 -28 23z"/>
 <path d="M5325 4501 c-9 -18 -11 -32 -5 -36 5 -3 16 8 25 24 9 18 11 32 5 36 -5 3 -16 -8 -25 -24z"/>
 <path d="M5290 4421 c-6 -12 -6 -22 -1 -26 6 -3 15 3 21 14 6 12 6 22 1 26 -6 3 -15 -3 -21 -14z"/>
 <path d="M2097 4373 c-4 -6 0 -18 7 -28 8 -11 16 -14 19 -8 4 6 0 18 -7 28 -8 11 -16 14 -19 8z"/>
 <path d="M5260 4351 c-6 -12 -6 -22 -1 -26 6 -3 15 3 21 14 6 12 6 22 1 26 -6 3 -15 -3 -21 -14z"/>
 <path d="M3591 4266 c-18 -19 -29 -36 -23 -39 5 -4 23 9 41 27 18 19 29 36 23 39 -5 4 -23 -9 -41 -27z"/>
 <path d="M5220 4261 c-6 -12 -6 -22 -1 -26 6 -3 15 3 21 14 6 12 6 22 1 26 -6 3 -15 -3 -21 -14z"/>
 <path d="M3026 4262 c-3 -6 1 -15 8 -21 8 -7 17 -8 20 -3 3 6 -1 15 -8 21 -8 7 -17 8 -20 3z"/>
 <path d="M2157 4234 c-9 -10 32 -86 43 -79 6 4 1 23 -10 46 -22 41 -23 43 -33 33z"/>
 <path d="M5190 4191 c-6 -12 -6 -22 -1 -26 6 -3 15 3 21 14 6 12 6 22 1 26 -6 3 -15 -3 -21 -14z"/>
 <path d="M5160 4121 c-6 -12 -6 -22 -1 -26 6 -3 15 3 21 14 6 12 6 22 1 26 -6 3 -15 -3 -21 -14z"/>
 <path d="M5060 3891 c-6 -12 -6 -22 -1 -26 6 -3 15 3 21 14 6 12 6 22 1 26 -6 3 -15 -3 -21 -14z"/>
 <path d="M2307 3894 c-9 -10 22 -66 33 -59 6 4 4 18 -5 36 -17 31 -18 32 -28 23z"/>
 <path d="M5030 3821 c-6 -12 -6 -22 -1 -26 6 -3 15 3 21 14 6 12 6 22 1 26 -6 3 -15 -3 -21 -14z"/>
 <path d="M2347 3803 c-4 -6 0 -18 7 -28 8 -11 16 -14 19 -8 4 6 0 18 -7 28 -8 11 -16 14 -19 8z"/>
 <path d="M4995 3741 c-9 -18 -11 -32 -5 -36 5 -3 16 8 25 24 9 18 11 32 5 36 -5 3 -16 -8 -25 -24z"/>
 <path d="M2387 3713 c-4 -6 0 -18 7 -28 8 -11 16 -14 19 -8 4 6 0 18 -7 28 -8 11 -16 14 -19 8z"/>
 <path d="M4930 3591 c-6 -12 -6 -22 -1 -26 6 -3 15 3 21 14 6 12 6 22 1 26 -6 3 -15 -3 -21 -14z"/>
 <path d="M2537 3373 c-4 -6 0 -18 7 -28 8 -11 16 -14 19 -8 4 6 0 18 -7 28 -8 11 -16 14 -19 8z"/>
 <path d="M4800 3291 c-6 -12 -6 -22 -1 -26 6 -3 15 3 21 14 6 12 6 22 1 26 -6 3 -15 -3 -21 -14z"/>
 <path d="M2577 3283 c-4 -6 0 -18 7 -28 8 -11 16 -14 19 -8 4 6 0 18 -7 28 -8 11 -16 14 -19 8z"/>
 <path d="M4770 3221 c-6 -12 -6 -22 -1 -26 6 -3 15 3 21 14 6 12 6 22 1 26 -6 3 -15 -3 -21 -14z"/>
 <path d="M2607 3213 c-4 -6 0 -18 7 -28 8 -11 16 -14 19 -8 4 6 0 18 -7 28 -8 11 -16 14 -19 8z"/>
 <path d="M4731 3133 c-5 -10 -9 -21 -10 -26 0 -4 -7 -20 -16 -37 -9 -17 -11 -31 -5 -35 5 -3 16 8 25 25 8 16 13 30 10 30 -3 0 2 11 10 24 10 15 12 26 6 30 -5 4 -14 -1 -20 -11z"/>
 <path d="M2647 3123 c-4 -6 0 -18 7 -28 8 -11 16 -14 19 -8 4 6 0 18 -7 28 -8 11 -16 14 -19 8z"/>
 <path d="M4670 2991 c-6 -12 -6 -22 -1 -26 6 -3 15 3 21 14 6 12 6 22 1 26 -6 3 -15 -3 -21 -14z"/>
 <path d="M4610 2851 c-6 -12 -6 -22 -1 -26 6 -3 15 3 21 14 6 12 6 22 1 26 -6 3 -15 -3 -21 -14z"/>
 <path d="M2787 2804 c-3 -4 0 -19 9 -35 8 -16 14 -31 14 -34 -1 -15 32 -65 40 -60 6 4 4 18 -5 35 -9 17 -15 32 -15 35 1 7 -30 65 -34 65 -1 0 -5 -3 -9 -6z"/>
 <path d="M4575 2771 c-9 -18 -11 -32 -5 -36 5 -3 16 8 25 24 9 18 11 32 5 36 -5 3 -16 -8 -25 -24z"/>
 <path d="M4505 2610 c-8 -16 -15 -32 -15 -35 0 -3 -7 -19 -15 -35 -9 -17 -13 -30 -10 -30 3 0 -2 -11 -10 -24 -10 -15 -12 -26 -6 -30 9 -6 28 17 30 37 0 4 8 21 16 37 8 16 15 32 15 35 0 3 6 18 15 35 9 17 11 31 5 35 -5 3 -16 -8 -25 -25z"/>
 <path d="M2897 2553 c-4 -6 0 -18 7 -28 8 -11 16 -14 19 -8 4 6 0 18 -7 28 -8 11 -16 14 -19 8z"/>
 <path d="M2937 2463 c-4 -6 0 -18 7 -28 8 -11 16 -14 19 -8 4 6 0 18 -7 28 -8 11 -16 14 -19 8z"/>
 <path d="M2967 2394 c-9 -10 22 -66 33 -59 6 4 4 18 -5 36 -17 31 -18 32 -28 23z"/>
 <path d="M3007 2303 c-4 -6 0 -18 7 -28 8 -11 16 -14 19 -8 4 6 0 18 -7 28 -8 11 -16 14 -19 8z"/>
 <path d="M4345 2240 c-8 -16 -13 -30 -10 -30 3 0 -2 -11 -10 -24 -10 -15 -12 -26 -6 -30 9 -6 28 17 30 37 0 4 7 20 16 37 9 17 11 31 5 35 -5 3 -16 -8 -25 -25z"/>
 <path d="M3037 2233 c-4 -6 0 -18 7 -28 8 -11 16 -14 19 -8 4 6 0 18 -7 28 -8 11 -16 14 -19 8z"/>
 <path d="M3087 2123 c-4 -6 0 -18 7 -28 8 -11 16 -14 19 -8 4 6 0 18 -7 28 -8 11 -16 14 -19 8z"/>
 <path d="M4290 2111 c-6 -12 -6 -22 -1 -26 6 -3 15 3 21 14 6 12 6 22 1 26 -6 3 -15 -3 -21 -14z"/>
 <path d="M3117 2053 c-4 -6 0 -18 7 -28 8 -11 16 -14 19 -8 4 6 0 18 -7 28 -8 11 -16 14 -19 8z"/>
 <path d="M3157 1963 c-4 -3 0 -17 8 -30 9 -13 13 -23 10 -23 -3 0 2 -14 10 -30 9 -17 20 -28 25 -25 6 4 3 19 -7 38 -9 18 -18 38 -19 46 -3 19 -19 33 -27 24z"/>
 <path d="M4180 1861 c-6 -12 -6 -22 -1 -26 6 -3 15 3 21 14 6 12 6 22 1 26 -6 3 -15 -3 -21 -14z"/>
 <path d="M3227 1803 c-4 -6 0 -18 7 -28 8 -11 16 -14 19 -8 4 6 0 18 -7 28 -8 11 -16 14 -19 8z"/>
 <path d="M3257 1733 c-4 -6 0 -18 7 -28 8 -11 16 -14 19 -8 4 6 0 18 -7 28 -8 11 -16 14 -19 8z"/>
 <path d="M4090 1651 c-6 -12 -6 -22 -1 -26 6 -3 15 3 21 14 6 12 6 22 1 26 -6 3 -15 -3 -21 -14z"/>
 <path d="M3297 1644 c-9 -10 22 -66 33 -59 6 4 4 18 -5 36 -17 31 -18 32 -28 23z"/>
 <path d="M4030 1511 c-6 -12 -6 -22 -1 -26 6 -3 15 3 21 14 6 12 6 22 1 26 -6 3 -15 -3 -21 -14z"/>
 <path d="M3965 1361 c-9 -18 -11 -32 -5 -36 5 -3 16 8 25 24 9 18 11 32 5 36 -5 3 -16 -8 -25 -24z"/>
 <path d="M3447 1304 c-3 -4 0 -19 9 -35 8 -16 15 -32 15 -36 2 -20 21 -43 30 -37 6 4 4 15 -6 30 -8 13 -13 24 -10 24 3 0 -1 14 -10 30 -17 32 -18 33 -28 24z"/>
 <path d="M3930 1281 c-6 -12 -6 -22 -1 -26 6 -3 15 3 21 14 6 12 6 22 1 26 -6 3 -15 -3 -21 -14z"/>
 <path d="M3517 1144 c-9 -10 22 -66 33 -59 6 4 4 18 -5 36 -17 31 -18 32 -28 23z"/>
 <path d="M3860 1120 c-6 -11 -8 -20 -5 -20 3 0 -2 -11 -10 -24 -10 -15 -12 -26 -6 -30 5 -4 15 3 21 14 6 11 8 20 5 20 -3 0 2 11 10 24 10 15 12 26 6 30 -5 4 -15 -3 -21 -14z"/>
 <path d="M3805 991 c-9 -18 -11 -32 -5 -36 5 -3 16 8 25 24 9 18 11 32 5 36 -5 3 -16 -8 -25 -24z"/>
 <path d="M3597 963 c-4 -6 0 -18 7 -28 8 -11 16 -14 19 -8 4 6 0 18 -7 28 -8 11 -16 14 -19 8z"/>
 <path d="M3627 893 c-4 -6 0 -18 7 -28 8 -11 16 -14 19 -8 4 6 0 18 -7 28 -8 11 -16 14 -19 8z"/>
 <path d="M3710 771 c-6 -12 -6 -22 -1 -26 6 -3 15 3 21 14 6 12 6 22 1 26 -6 3 -15 -3 -21 -14z"/>
 </g>

<g fill="#ABB4B8" stroke="none">
 <path d="M5964 5964 c-4 -10 -9 -22 -11 -26 -2 -4 1 -9 6 -13 15 -9 35 35 22 48 -7 7 -12 5 -17 -9z"/>
 <path d="M2285 5879 c-10 -26 -1 -494 10 -494 14 0 19 485 6 498 -7 7 -12 5 -16 -4z"/>
 <path d="M3215 5878 c-10 -24 -1 -123 10 -121 14 4 19 113 6 126 -7 7 -12 5 -16 -5z"/>
 <path d="M3925 5879 c-10 -25 -1 -239 10 -242 14 -3 19 233 6 246 -7 7 -12 5 -16 -4z"/>
 <path d="M4925 5879 c-10 -26 -1 -259 10 -259 14 0 19 250 6 263 -7 7 -12 5 -16 -4z"/>
 <path d="M5065 5879 c-10 -26 -1 -309 10 -309 14 0 19 300 6 313 -7 7 -12 5 -16 -4z"/>
 <path d="M2820 5861 c-6 -12 -6 -22 -1 -26 6 -3 15 3 21 14 6 12 6 22 1 26 -6 3 -15 -3 -21 -14z"/>
 <path d="M1441 5856 c-8 -9 -9 -16 -1 -21 5 -3 10 -3 10 2 0 4 42 -34 94 -86 51 -51 96 -89 99 -84 3 5 -38 53 -92 107 -82 82 -99 95 -110 82z"/>
 <path d="M2895 5860 c-4 -6 -3 -16 3 -22 6 -6 12 -6 17 2 4 6 3 16 -3 22 -6 6 -12 6 -17 -2z"/>
 <path d="M3289 5846 c-1 -3 -2 -9 -3 -13 -1 -5 -5 -14 -9 -20 -5 -7 -5 -13 -1 -13 3 0 1 -6 -5 -14 -8 -10 -9 -16 -1 -21 5 -3 11 -4 11 -1 4 16 7 26 9 31 1 3 3 8 4 13 1 4 5 12 9 19 4 6 3 14 -3 18 -5 3 -11 4 -11 1z"/>
 <path d="M4675 5819 c-10 -26 -1 -234 10 -232 13 4 19 223 6 236 -7 7 -12 5 -16 -4z"/>
 <path d="M5900 5811 c-6 -12 -6 -22 -1 -26 6 -3 15 3 21 14 6 12 6 22 1 26 -6 3 -15 -3 -21 -14z"/>
 <path d="M3349 5816 c-1 -3 -2 -9 -3 -13 -1 -5 -5 -14 -9 -20 -5 -7 -5 -13 -1 -13 3 0 1 -7 -6 -15 -7 -8 -9 -15 -5 -15 4 0 2 -7 -5 -15 -7 -8 -9 -15 -5 -15 4 0 2 -6 -4 -14 -8 -9 -8 -16 -2 -20 5 -4 12 -2 16 4 3 5 3 10 -1 10 -3 0 -1 7 6 15 7 8 9 15 5 15 -4 0 -2 7 5 15 7 8 9 15 5 15 -4 0 -2 7 5 15 7 8 9 15 5 15 -4 0 -2 6 4 14 8 10 9 16 1 21 -5 3 -11 4 -11 1z"/>
 <path d="M4175 5800 c-4 -6 -3 -16 3 -22 6 -6 12 -6 17 2 4 6 3 16 -3 22 -6 6 -12 6 -17 -2z"/>
 <path d="M4035 5778 c-9 -24 -1 -143 10 -143 13 0 19 135 6 148 -7 7 -12 5 -16 -5z"/>
 <path d="M2687 5773 c-4 -6 0 -18 7 -28 8 -11 16 -14 19 -8 4 6 0 18 -7 28 -8 11 -16 14 -19 8z"/>
 <path d="M4381 5766 c-7 -8 -8 -17 -3 -20 6 -3 15 1 21 8 7 8 8 17 3 20 -6 3 -15 -1 -21 -8z"/>
 <path d="M3725 5760 c-4 -6 -3 -16 3 -22 6 -6 12 -6 17 2 4 6 3 16 -3 22 -6 6 -12 6 -17 -2z"/>
 <path d="M4436 5761 c-4 -5 -2 -12 4 -16 5 -3 10 -3 10 1 0 3 6 1 14 -5 10 -8 16 -9 21 -1 3 5 4 11 1 11 -3 1 -9 2 -13 3 -5 1 -13 5 -20 9 -6 4 -14 3 -17 -2z"/>
 <path d="M4515 5761 c-7 -12 12 -24 25 -16 11 7 4 25 -10 25 -5 0 -11 -4 -15 -9z"/>
 <path d="M5860 5720 c-6 -11 -8 -20 -5 -20 3 0 -2 -11 -10 -24 -10 -15 -12 -26 -6 -30 5 -4 15 3 21 14 6 11 8 20 5 20 -3 0 2 11 10 24 10 15 12 26 6 30 -5 4 -15 -3 -21 -14z"/>
 <path d="M2446 5722 c-3 -5 3 -17 13 -26 11 -10 22 -13 25 -8 3 5 -3 17 -13 26 -11 10 -22 13 -25 8z"/>
 <path d="M3515 5718 c-10 -25 -1 -173 10 -171 13 4 19 163 6 176 -7 7 -12 5 -16 -5z"/>
 <path d="M1507 5694 c-9 -10 22 -66 33 -59 6 4 4 18 -5 36 -17 31 -18 32 -28 23z"/>
 <path d="M4365 5690 c-4 -6 -3 -16 3 -22 6 -6 12 -6 17 2 4 6 3 16 -3 22 -6 6 -12 6 -17 -2z"/>
 <path d="M4446 5692 c-3 -6 1 -15 8 -21 8 -7 17 -8 20 -3 3 6 -1 15 -8 21 -8 7 -17 8 -20 3z"/>
 <path d="M4504 5688 c-11 -17 7 -29 23 -16 9 7 18 12 20 11 1 -2 2 0 1 4 -4 10 -38 11 -44 1z"/>
 <path d="M3215 5648 c-10 -25 -1 -248 10 -251 6 -1 12 42 15 108 3 61 8 109 13 108 4 -2 6 0 5 5 -2 4 -7 6 -11 4 -4 -1 -7 5 -5 14 4 21 -20 31 -27 12z"/>
 <path d="M4175 5640 c-4 -6 -3 -16 3 -22 6 -6 12 -6 17 2 4 6 3 16 -3 22 -6 6 -12 6 -17 -2z"/>
 <path d="M4495 5620 c-4 -6 -3 -16 3 -22 6 -6 12 -6 17 2 4 6 3 16 -3 22 -6 6 -12 6 -17 -2z"/>
 <path d="M5800 5581 c-6 -12 -6 -22 -1 -26 6 -3 15 3 21 14 6 12 6 22 1 26 -6 3 -15 -3 -21 -14z"/>
 <path d="M1557 5583 c-4 -3 -2 -12 4 -20 6 -7 9 -13 5 -13 -4 0 1 -14 9 -30 9 -17 20 -28 25 -25 6 4 3 19 -7 38 -9 18 -17 35 -18 39 0 11 -11 18 -18 11z"/>
 <path d="M3924 5566 c-4 -10 -2 -22 4 -28 8 -8 13 -7 18 6 4 10 2 22 -4 28 -8 8 -13 7 -18 -6z"/>
 <path d="M4925 5548 c-10 -24 -1 -153 10 -153 13 0 19 145 6 158 -7 7 -12 5 -16 -5z"/>
 <path d="M3795 5540 c-4 -6 -3 -16 3 -22 6 -6 12 -6 17 2 4 6 3 16 -3 22 -6 6 -12 6 -17 -2z"/>
 <path d="M4675 5528 c-10 -24 -1 -123 10 -121 14 4 19 113 6 126 -7 7 -12 5 -16 -5z"/>
 <path d="M5735 5431 c-9 -18 -11 -32 -5 -36 5 -3 16 8 25 24 9 18 11 32 5 36 -5 3 -16 -8 -25 -24z"/>
 <path d="M1687 5283 c-4 -6 0 -18 7 -28 8 -11 16 -14 19 -8 4 6 0 18 -7 28 -8 11 -16 14 -19 8z"/>
 <path d="M5640 5211 c-6 -12 -6 -22 -1 -26 6 -3 15 3 21 14 6 12 6 22 1 26 -6 3 -15 -3 -21 -14z"/>
 <path d="M1717 5214 c-9 -10 32 -86 43 -79 6 4 1 23 -10 46 -22 41 -23 43 -33 33z"/>
 <path d="M1767 5103 c-4 -6 0 -18 7 -28 8 -11 16 -14 19 -8 4 6 0 18 -7 28 -8 11 -16 14 -19 8z"/>
 <path d="M5590 5091 c-6 -12 -6 -22 -1 -26 6 -3 15 3 21 14 6 12 6 22 1 26 -6 3 -15 -3 -21 -14z"/>
 <path d="M5541 4983 c-5 -10 -9 -20 -9 -23 1 -3 -9 -24 -21 -47 -12 -24 -19 -43 -16 -43 3 0 -2 -11 -10 -24 -10 -15 -12 -26 -6 -30 9 -6 30 20 29 34 -1 3 9 24 21 48 12 23 19 42 16 42 -3 0 2 11 10 24 10 15 12 26 6 30 -5 4 -14 -1 -20 -11z"/>
 <path d="M1847 4923 c-4 -6 0 -18 7 -28 8 -11 16 -14 19 -8 4 6 0 18 -7 28 -8 11 -16 14 -19 8z"/>
 <path d="M1877 4854 c-9 -10 22 -66 33 -59 6 4 4 18 -5 36 -17 31 -18 32 -28 23z"/>
 <path d="M5450 4771 c-6 -12 -6 -22 -1 -26 6 -3 15 3 21 14 6 12 6 22 1 26 -6 3 -15 -3 -21 -14z"/>
 <path d="M1917 4763 c-4 -6 0 -18 7 -28 8 -11 16 -14 19 -8 4 6 0 18 -7 28 -8 11 -16 14 -19 8z"/>
 <path d="M2547 4753 c-3 -5 137 -152 312 -327 175 -175 321 -314 324 -309 3 5 -137 152 -312 327 -175 175 -321 314 -324 309z"/>
 <path d="M1947 4693 c-4 -6 0 -18 7 -28 8 -11 16 -14 19 -8 4 6 0 18 -7 28 -8 11 -16 14 -19 8z"/>
 <path d="M5390 4631 c-6 -12 -6 -22 -1 -26 6 -3 15 3 21 14 6 12 6 22 1 26 -6 3 -15 -3 -21 -14z"/>
 <path d="M1987 4603 c-4 -6 0 -18 7 -28 8 -11 16 -14 19 -8 4 6 0 18 -7 28 -8 11 -16 14 -19 8z"/>
 <path d="M5355 4551 c-9 -18 -11 -32 -5 -36 5 -3 16 8 25 24 9 18 11 32 5 36 -5 3 -16 -8 -25 -24z"/>
 <path d="M2067 4423 c-4 -6 0 -18 7 -28 8 -11 16 -14 19 -8 4 6 0 18 -7 28 -8 11 -16 14 -19 8z"/>
 <path d="M2097 4353 c-4 -6 0 -18 7 -28 8 -11 16 -14 19 -8 4 6 0 18 -7 28 -8 11 -16 14 -19 8z"/>
 <path d="M5255 4321 c-9 -18 -11 -32 -5 -36 5 -3 16 8 25 24 9 18 11 32 5 36 -5 3 -16 -8 -25 -24z"/>
 <path d="M5220 4241 c-6 -12 -6 -22 -1 -26 6 -3 15 3 21 14 6 12 6 22 1 26 -6 3 -15 -3 -21 -14z"/>
 <path d="M5160 4101 c-6 -12 -6 -22 -1 -26 6 -3 15 3 21 14 6 12 6 22 1 26 -6 3 -15 -3 -21 -14z"/>
 <path d="M5130 4031 c-6 -12 -6 -22 -1 -26 6 -3 15 3 21 14 6 12 6 22 1 26 -6 3 -15 -3 -21 -14z"/>
 <path d="M2247 4013 c-4 -6 0 -18 7 -28 8 -11 16 -14 19 -8 4 6 0 18 -7 28 -8 11 -16 14 -19 8z"/>
 <path d="M3319 4006 c-5 -23 -2 -46 5 -48 12 -4 15 41 4 48 -4 3 -8 3 -9 0z"/>
 <path d="M5100 3961 c-6 -12 -6 -22 -1 -26 6 -3 15 3 21 14 6 12 6 22 1 26 -6 3 -15 -3 -21 -14z"/>
 <path d="M2277 3943 c-4 -6 0 -18 7 -28 8 -11 16 -14 19 -8 4 6 0 18 -7 28 -8 11 -16 14 -19 8z"/>
 <path d="M2317 3853 c-4 -6 0 -18 7 -28 8 -11 16 -14 19 -8 4 6 0 18 -7 28 -8 11 -16 14 -19 8z"/>
 <path d="M5025 3790 c-8 -16 -13 -30 -10 -30 3 0 -2 -11 -10 -24 -10 -15 -12 -26 -6 -30 9 -6 28 17 30 37 0 4 7 20 16 37 9 17 11 31 5 35 -5 3 -16 -8 -25 -25z"/>
 <path d="M2347 3784 c-9 -10 22 -66 33 -59 6 4 4 18 -5 36 -17 31 -18 32 -28 23z"/>
 <path d="M2387 3694 c-9 -10 22 -66 33 -59 6 4 4 18 -5 36 -17 31 -18 32 -28 23z"/>
 <path d="M3790 3641 c-6 -12 -6 -22 -1 -26 6 -3 15 3 21 14 6 12 6 22 1 26 -6 3 -15 -3 -21 -14z"/>
 <path d="M2427 3603 c-4 -6 0 -18 7 -28 8 -11 16 -14 19 -8 4 6 0 18 -7 28 -8 11 -16 14 -19 8z"/>
 <path d="M4930 3571 c-6 -12 -6 -22 -1 -26 6 -3 15 3 21 14 6 12 6 22 1 26 -6 3 -15 -3 -21 -14z"/>
 <path d="M2457 3534 c-9 -10 22 -66 33 -59 6 4 4 18 -5 36 -17 31 -18 32 -28 23z"/>
 <path d="M4900 3501 c-6 -12 -6 -22 -1 -26 6 -3 15 3 21 14 6 12 6 22 1 26 -6 3 -15 -3 -21 -14z"/>
 <path d="M2497 3443 c-4 -6 0 -18 7 -28 8 -11 16 -14 19 -8 4 6 0 18 -7 28 -8 11 -16 14 -19 8z"/>
 <path d="M4870 3431 c-6 -12 -6 -22 -1 -26 6 -3 15 3 21 14 6 12 6 22 1 26 -6 3 -15 -3 -21 -14z"/>
 <path d="M2527 3374 c-9 -10 22 -66 33 -59 6 4 4 18 -5 36 -17 31 -18 32 -28 23z"/>
 <path d="M4830 3341 c-6 -12 -6 -22 -1 -26 6 -3 15 3 21 14 6 12 6 22 1 26 -6 3 -15 -3 -21 -14z"/>
 <path d="M4770 3201 c-6 -12 -6 -22 -1 -26 6 -3 15 3 21 14 6 12 6 22 1 26 -6 3 -15 -3 -21 -14z"/>
 <path d="M4670 2971 c-6 -12 -6 -22 -1 -26 6 -3 15 3 21 14 6 12 6 22 1 26 -6 3 -15 -3 -21 -14z"/>
 <path d="M2717 2944 c-3 -4 0 -19 9 -35 8 -16 14 -31 14 -34 -1 -15 32 -65 40 -60 6 4 4 18 -5 35 -9 17 -15 32 -15 35 1 7 -30 65 -34 65 -1 0 -5 -3 -9 -6z"/>
 <path d="M4610 2831 c-6 -12 -6 -22 -1 -26 6 -3 15 3 21 14 6 12 6 22 1 26 -6 3 -15 -3 -21 -14z"/>
 <path d="M4570 2741 c-6 -12 -6 -22 -1 -26 6 -3 15 3 21 14 6 12 6 22 1 26 -6 3 -15 -3 -21 -14z"/>
 <path d="M4540 2671 c-6 -12 -6 -22 -1 -26 6 -3 15 3 21 14 6 12 6 22 1 26 -6 3 -15 -3 -21 -14z"/>
 <path d="M2857 2623 c-4 -6 0 -18 7 -28 8 -11 16 -14 19 -8 4 6 0 18 -7 28 -8 11 -16 14 -19 8z"/>
 <path d="M4500 2581 c-6 -12 -6 -22 -1 -26 6 -3 15 3 21 14 6 12 6 22 1 26 -6 3 -15 -3 -21 -14z"/>
 <path d="M2897 2533 c-4 -6 0 -18 7 -28 8 -11 16 -14 19 -8 4 6 0 18 -7 28 -8 11 -16 14 -19 8z"/>
 <path d="M2937 2443 c-4 -6 0 -18 7 -28 8 -11 16 -14 19 -8 4 6 0 18 -7 28 -8 11 -16 14 -19 8z"/>
 <path d="M4375 2290 c-8 -16 -15 -32 -15 -35 0 -3 -6 -18 -15 -35 -9 -17 -11 -31 -5 -35 8 -5 41 45 40 60 0 3 6 18 15 35 9 17 11 31 5 35 -5 3 -16 -8 -25 -25z"/>
 <path d="M3007 2283 c-4 -6 0 -18 7 -28 8 -11 16 -14 19 -8 4 6 0 18 -7 28 -8 11 -16 14 -19 8z"/>
 <path d="M3047 2193 c-4 -6 0 -18 7 -28 8 -11 16 -14 19 -8 4 6 0 18 -7 28 -8 11 -16 14 -19 8z"/>
 <path d="M3077 2123 c-4 -6 0 -18 7 -28 8 -11 16 -14 19 -8 4 6 0 18 -7 28 -8 11 -16 14 -19 8z"/>
 <path d="M4275 2060 c-8 -16 -13 -30 -9 -30 4 0 1 -6 -5 -14 -8 -10 -9 -16 -1 -21 5 -3 11 -4 11 -1 1 3 2 9 3 14 1 4 10 21 19 39 10 19 13 34 7 38 -5 3 -16 -8 -25 -25z"/>
 <path d="M3107 2063 c-4 -3 -2 -12 4 -20 6 -7 8 -13 5 -13 -4 0 -2 -9 4 -20 6 -11 15 -18 21 -15 5 4 4 15 -3 28 -7 12 -12 25 -13 29 0 11 -11 18 -18 11z"/>
 <path d="M3197 1853 c-4 -3 0 -17 8 -30 9 -13 13 -23 10 -23 -3 0 2 -14 10 -30 9 -17 20 -28 25 -25 6 4 3 19 -7 38 -9 18 -18 38 -19 46 -3 19 -19 33 -27 24z"/>
 <path d="M4145 1760 c-8 -16 -13 -30 -10 -30 3 0 -2 -11 -10 -24 -10 -15 -12 -26 -6 -30 9 -6 28 17 30 37 0 4 7 20 16 37 9 17 11 31 5 35 -5 3 -16 -8 -25 -25z"/>
 <path d="M4090 1631 c-6 -12 -6 -22 -1 -26 6 -3 15 3 21 14 6 12 6 22 1 26 -6 3 -15 -3 -21 -14z"/>
 <path d="M3347 1513 c-4 -6 0 -18 7 -28 8 -11 16 -14 19 -8 4 6 0 18 -7 28 -8 11 -16 14 -19 8z"/>
 <path d="M3377 1443 c-4 -6 0 -18 7 -28 8 -11 16 -14 19 -8 4 6 0 18 -7 28 -8 11 -16 14 -19 8z"/>
 <path d="M3995 1411 c-9 -18 -11 -32 -5 -36 5 -3 16 8 25 24 9 18 11 32 5 36 -5 3 -16 -8 -25 -24z"/>
 <path d="M3930 1261 c-6 -12 -6 -22 -1 -26 6 -3 15 3 21 14 6 12 6 22 1 26 -6 3 -15 -3 -21 -14z"/>
 <path d="M3900 1191 c-6 -12 -6 -22 -1 -26 6 -3 15 3 21 14 6 12 6 22 1 26 -6 3 -15 -3 -21 -14z"/>
 <path d="M3870 1121 c-6 -12 -6 -22 -1 -26 6 -3 15 3 21 14 6 12 6 22 1 26 -6 3 -15 -3 -21 -14z"/>
 <path d="M3527 1103 c-4 -6 0 -18 7 -28 8 -11 16 -14 19 -8 4 6 0 18 -7 28 -8 11 -16 14 -19 8z"/>
 <path d="M3567 1013 c-4 -6 0 -18 7 -28 8 -11 16 -14 19 -8 4 6 0 18 -7 28 -8 11 -16 14 -19 8z"/>
 <path d="M3607 923 c-4 -6 0 -18 7 -28 8 -11 16 -14 19 -8 4 6 0 18 -7 28 -8 11 -16 14 -19 8z"/>
 <path d="M3637 854 c-9 -10 22 -66 33 -59 6 4 4 18 -5 36 -17 31 -18 32 -28 23z"/>
 <path d="M3740 821 c-6 -12 -6 -22 -1 -26 6 -3 15 3 21 14 6 12 6 22 1 26 -6 3 -15 -3 -21 -14z"/>
 <path d="M3678 764 c-11 -11 10 -42 27 -40 9 1 15 5 15 9 0 4 -2 6 -5 5 -2 -2 -10 5 -17 15 -8 10 -17 15 -20 11z"/>
 </g>

<g fill="#566872" stroke="none">
 <path d="M4997 5882 c-3 -4 -5 -67 -4 -140 3 -176 21 -172 24 5 1 118 -5 160 -20 135z"/>
 <path d="M3147 5873 c-4 -3 -7 -108 -7 -233 0 -211 1 -228 19 -244 11 -10 28 -16 38 -14 24 4 14 23 -12 23 -20 0 -20 5 -17 229 2 209 -2 259 -21 239z"/>
 <path d="M3855 5869 c-10 -26 -1 -319 10 -322 14 -3 19 313 6 326 -7 7 -12 5 -16 -4z"/>
 <path d="M4690 5861 c-6 -12 -6 -22 -1 -26 6 -3 15 3 21 14 6 12 6 22 1 26 -6 3 -15 -3 -21 -14z"/>
 <path d="M3289 5836 c-1 -3 -2 -9 -3 -13 -1 -5 -5 -13 -9 -20 -4 -6 -3 -14 3 -18 5 -3 11 -4 11 -1 1 3 2 9 3 14 1 4 5 12 9 19 4 6 3 14 -3 18 -5 3 -11 4 -11 1z"/>
 <path d="M4745 5798 c-10 -25 -1 -208 10 -208 13 0 19 200 6 213 -7 7 -12 5 -16 -5z"/>
 <path d="M3339 5796 c-1 -3 -2 -9 -3 -13 -1 -5 -5 -13 -9 -20 -4 -6 -3 -14 3 -18 5 -3 11 -4 11 -1 1 3 2 9 3 14 1 4 5 12 9 19 4 6 3 14 -3 18 -5 3 -11 4 -11 1z"/>
 <path d="M4105 5778 c-9 -24 -1 -143 10 -143 13 0 19 135 6 148 -7 7 -12 5 -16 -5z"/>
 <path d="M3585 5718 c-10 -25 -1 -173 10 -171 13 4 19 163 6 176 -7 7 -12 5 -16 -5z"/>
 <path d="M4395 5720 c-4 -6 -10 -8 -15 -5 -5 3 -11 1 -14 -4 -4 -5 -2 -12 3 -15 5 -4 12 -2 16 4 4 6 10 8 15 5 5 -3 11 -1 14 4 4 5 2 12 -3 15 -5 4 -12 2 -16 -4z"/>
 <path d="M2755 5701 c-3 -6 3 -15 14 -21 12 -6 22 -6 26 -1 3 6 -3 15 -14 21 -12 6 -22 6 -26 1z"/>
 <path d="M3926 5582 c-3 -5 3 -17 13 -26 11 -10 22 -13 25 -8 3 5 -3 17 -13 26 -11 10 -22 13 -25 8z"/>
 <path d="M4745 5528 c-9 -24 -1 -113 10 -111 14 4 19 103 6 116 -7 7 -12 5 -16 -5z"/>
 <path d="M2389 5423 c-1 -4 -1 -10 -1 -13 0 -3 -16 -5 -36 -5 -48 0 -58 -19 -11 -23 37 -3 82 29 60 43 -6 3 -12 3 -12 -2z"/>
 <path d="M2545 5400 c-3 -5 0 -13 8 -16 23 -8 82 0 82 11 0 14 -82 19 -90 5z"/>
 <path d="M4875 5400 c-8 -13 20 -24 41 -16 20 8 9 26 -16 26 -10 0 -22 -5 -25 -10z"/>
 <path d="M5475 4841 c-9 -18 -11 -32 -5 -36 5 -3 16 8 25 24 9 18 11 32 5 36 -5 3 -16 -8 -25 -24z"/>
 <path d="M1927 4753 c-4 -6 0 -18 7 -28 8 -11 16 -14 19 -8 4 6 0 18 -7 28 -8 11 -16 14 -19 8z"/>
 <path d="M5375 4611 c-9 -18 -11 -32 -5 -36 5 -3 16 8 25 24 9 18 11 32 5 36 -5 3 -16 -8 -25 -24z"/>
 <path d="M2067 4433 c-4 -6 0 -18 7 -28 8 -11 16 -14 19 -8 4 6 0 18 -7 28 -8 11 -16 14 -19 8z"/>
 <path d="M5250 4321 c-6 -12 -6 -22 -1 -26 6 -3 15 3 21 14 6 12 6 22 1 26 -6 3 -15 -3 -21 -14z"/>
 <path d="M4221 4226 c-29 -30 -49 -56 -44 -59 5 -3 33 18 62 47 29 30 49 56 44 59 -5 3 -33 -18 -62 -47z"/>
 <path d="M4141 4146 c-7 -8 -8 -17 -3 -20 6 -3 15 1 21 8 7 8 8 17 3 20 -6 3 -15 -1 -21 -8z"/>
 <path d="M3817 4133 c-3 -5 22 -38 57 -72 35 -35 66 -59 69 -54 3 5 -22 38 -57 72 -35 35 -66 59 -69 54z"/>
 <path d="M4086 4091 c-15 -16 -23 -31 -18 -35 5 -3 21 8 36 23 15 16 23 31 18 35 -5 3 -21 -8 -36 -23z"/>
 <path d="M4021 4026 c-13 -13 -18 -26 -13 -30 5 -3 19 5 31 18 13 13 18 26 13 30 -5 3 -19 -5 -31 -18z"/>
 <path d="M3415 4000 c-3 -6 0 -12 7 -15 26 -10 458 0 458 10 0 14 -456 19 -465 5z"/>
 <path d="M2287 3933 c-4 -6 0 -18 7 -28 8 -11 16 -14 19 -8 4 6 0 18 -7 28 -8 11 -16 14 -19 8z"/>
 <path d="M2467 3523 c-4 -6 0 -18 7 -28 8 -11 16 -14 19 -8 4 6 0 18 -7 28 -8 11 -16 14 -19 8z"/>
 <path d="M4890 3491 c-6 -12 -6 -22 -1 -26 6 -3 15 3 21 14 6 12 6 22 1 26 -6 3 -15 -3 -21 -14z"/>
 <path d="M2507 3433 c-4 -6 0 -18 7 -28 8 -11 16 -14 19 -8 4 6 0 18 -7 28 -8 11 -16 14 -19 8z"/>
 <path d="M2617 3183 c-4 -6 0 -18 7 -28 8 -11 16 -14 19 -8 4 6 0 18 -7 28 -8 11 -16 14 -19 8z"/>
 <path d="M2727 2933 c-4 -6 0 -18 7 -28 8 -11 16 -14 19 -8 4 6 0 18 -7 28 -8 11 -16 14 -19 8z"/>
 <path d="M4370 2291 c-6 -12 -6 -22 -1 -26 6 -3 15 3 21 14 6 12 6 22 1 26 -6 3 -15 -3 -21 -14z"/>
 <path d="M4110 1691 c-6 -12 -6 -22 -1 -26 6 -3 15 3 21 14 6 12 6 22 1 26 -6 3 -15 -3 -21 -14z"/>
 <path d="M3427 1343 c-4 -6 0 -18 7 -28 8 -11 16 -14 19 -8 4 6 0 18 -7 28 -8 11 -16 14 -19 8z"/>
 </g>

<g fill="#DFE2E4" stroke="none">
 <path d="M5857 5872 c-59 -59 -104 -111 -100 -115 4 -4 51 36 106 90 l98 98 -20 -47 c-19 -45 -13 -79 7 -41 31 59 40 92 29 107 -10 14 -27 1 -120 -92z"/>
 <path d="M2745 5900 c-4 -6 -10 -8 -14 -5 -5 2 -16 -4 -25 -14 -10 -11 -13 -22 -8 -25 5 -3 17 3 26 13 19 21 49 21 74 -2 18 -16 20 -16 36 2 11 12 14 21 7 26 -10 6 -14 0 -13 -16 1 -3 -5 -6 -13 -6 -8 0 -13 5 -12 11 1 5 -3 10 -10 11 -6 0 -15 3 -19 8 -10 10 -22 9 -29 -3z"/>
 <path d="M3645 5900 c-7 -12 20 -25 33 -16 5 3 17 -3 26 -13 17 -19 39 -23 44 -8 1 4 0 6 -2 5 -2 -2 -13 6 -25 16 -12 11 -21 15 -21 11 0 -5 -5 -4 -12 3 -15 15 -35 16 -43 2z"/>
 <path d="M4125 5900 c-8 -13 20 -24 41 -16 20 8 9 26 -16 26 -10 0 -22 -5 -25 -10z"/>
 <path d="M4745 5900 c-8 -13 20 -24 41 -16 20 8 9 26 -16 26 -10 0 -22 -5 -25 -10z"/>
 <path d="M2625 5889 c-10 -26 -1 -504 10 -502 14 4 19 493 6 506 -7 7 -12 5 -16 -4z"/>
 <path d="M3027 5893 c-3 -5 -4 -61 -4 -126 3 -158 21 -156 24 3 1 106 -5 147 -20 123z"/>
 <path d="M3379 5896 c-1 -3 -2 -9 -3 -13 -1 -5 -5 -14 -9 -20 -5 -7 -5 -13 -1 -13 3 0 1 -7 -6 -15 -7 -8 -9 -15 -5 -15 4 0 2 -7 -5 -15 -7 -8 -9 -15 -5 -15 4 0 2 -7 -5 -15 -7 -8 -9 -15 -5 -15 4 0 2 -7 -5 -15 -7 -8 -9 -15 -5 -15 4 0 2 -6 -4 -14 -8 -9 -8 -16 -2 -20 5 -4 12 -2 16 4 3 5 3 10 -1 10 -3 0 -1 7 6 15 7 8 9 15 5 15 -4 0 -2 7 5 15 7 8 9 15 5 15 -4 0 -2 7 5 15 7 8 9 15 5 15 -4 0 -2 7 5 15 7 8 9 15 5 15 -4 0 -2 7 5 15 7 8 9 15 5 15 -4 0 -2 6 4 14 8 10 9 16 1 21 -5 3 -11 4 -11 1z"/>
 <path d="M4805 5887 c-9 -22 -2 -62 10 -60 6 1 11 14 13 29 4 32 -14 56 -23 31z"/>
 <path d="M3299 5886 c-1 -3 -2 -9 -3 -13 -1 -5 -5 -14 -9 -20 -5 -7 -5 -13 -1 -13 3 0 1 -7 -6 -15 -7 -8 -9 -15 -5 -15 4 0 2 -6 -4 -14 -8 -10 -9 -16 -1 -21 5 -3 11 -4 11 -1 4 16 7 26 9 31 1 3 4 10 5 15 1 6 4 12 5 15 1 3 3 8 4 13 1 4 5 12 9 19 4 6 3 14 -3 18 -5 3 -11 4 -11 1z"/>
 <path d="M1449 5876 c-1 -3 -2 -10 -3 -15 0 -5 -4 -13 -8 -16 -10 -10 11 -47 23 -40 6 4 6 13 -1 24 -6 12 -5 22 1 28 8 8 7 13 0 17 -6 4 -12 5 -12 2z"/>
 <path d="M3558 5862 c-24 -27 -39 -60 -30 -66 5 -3 21 12 35 34 26 40 22 64 -5 32z"/>
 <path d="M4050 5850 c-6 -11 -8 -20 -4 -20 3 0 1 -7 -6 -15 -6 -8 -9 -19 -5 -25 8 -13 26 -3 23 13 -1 7 3 22 10 34 7 13 8 24 3 28 -6 3 -15 -4 -21 -15z"/>
 <path d="M4237 5853 c-4 -6 0 -18 7 -28 8 -11 16 -14 19 -8 4 6 0 18 -7 28 -8 11 -16 14 -19 8z"/>
 <path d="M2895 5838 c-10 -25 -1 -223 10 -223 13 0 19 215 6 228 -7 7 -12 5 -16 -5z"/>
 <path d="M4475 5840 c-4 -6 -3 -16 3 -22 6 -6 12 -6 17 2 4 6 3 16 -3 22 -6 6 -12 6 -17 -2z"/>
 <path d="M4675 5840 c-4 -6 -3 -16 3 -22 6 -6 12 -6 17 2 4 6 3 16 -3 22 -6 6 -12 6 -17 -2z"/>
 <path d="M4120 5821 c-6 -12 -6 -22 -1 -26 6 -3 15 3 21 14 6 12 6 22 1 26 -6 3 -15 -3 -21 -14z"/>
 <path d="M2674 5816 c-4 -10 -2 -22 4 -28 8 -8 13 -7 18 6 4 10 2 22 -4 28 -8 8 -13 7 -18 -6z"/>
 <path d="M2756 5813 c-18 -18 15 -90 36 -77 6 4 6 10 -1 17 -6 6 -11 21 -11 33 0 24 -13 38 -24 27z"/>
 <path d="M4325 5810 c-4 -6 -3 -16 3 -22 6 -6 12 -6 17 2 4 6 3 16 -3 22 -6 6 -12 6 -17 -2z"/>
 <path d="M5890 5781 c-6 -12 -6 -22 -1 -26 6 -3 15 3 21 14 6 12 6 22 1 26 -6 3 -15 -3 -21 -14z"/>
 <path d="M1465 5780 c-3 -5 3 -26 14 -47 10 -21 19 -41 20 -46 0 -4 8 -22 18 -40 9 -17 18 -36 19 -42 5 -32 35 -86 44 -80 10 6 -10 66 -31 92 -6 7 -9 13 -5 13 4 0 -1 15 -11 33 -9 17 -18 37 -19 42 -4 18 -34 85 -39 85 -2 0 -7 -4 -10 -10z"/>
 <path d="M2505 5780 c-4 -6 -3 -16 3 -22 6 -6 12 -6 17 2 4 6 3 16 -3 22 -6 6 -12 6 -17 -2z"/>
 <path d="M4435 5780 c-4 -7 -2 -17 4 -23 6 -6 11 -7 11 -3 0 5 6 3 14 -3 18 -15 34 5 17 22 -6 6 -11 7 -11 3 0 -5 -6 -3 -14 3 -11 9 -16 9 -21 1z"/>
 <path d="M3595 5770 c-4 -6 -3 -16 3 -22 6 -6 12 -6 17 2 4 6 3 16 -3 22 -6 6 -12 6 -17 -2z"/>
 <path d="M3514 5756 c-4 -10 -2 -22 4 -28 8 -8 13 -7 18 6 4 10 2 22 -4 28 -8 8 -13 7 -18 -6z"/>
 <path d="M4380 5750 c-8 -15 -9 -25 -2 -32 7 -7 14 -3 22 12 8 15 9 25 2 32 -7 7 -14 3 -22 -12z"/>
 <path d="M4514 5749 c-10 -17 13 -36 27 -22 12 12 4 33 -11 33 -5 0 -12 -5 -16 -11z"/>
 <path d="M5696 5711 c-21 -21 -34 -41 -29 -44 6 -4 27 11 47 32 21 21 34 41 29 44 -6 4 -27 -11 -47 -32z"/>
 <path d="M2706 5732 c-3 -6 1 -15 8 -21 8 -7 17 -8 20 -3 3 6 -1 15 -8 21 -8 7 -17 8 -20 3z"/>
 <path d="M3721 5718 c-5 -13 -7 -27 -4 -31 6 -11 33 12 33 29 0 24 -20 26 -29 2z"/>
 <path d="M5856 5698 c-14 -33 -12 -53 4 -43 4 3 13 18 18 35 15 42 -5 50 -22 8z"/>
 <path d="M2447 5713 c-12 -11 -8 -22 12 -33 11 -5 22 -6 25 -1 7 11 -28 43 -37 34z"/>
 <path d="M4447 5714 c-3 -4 -2 -16 4 -26 8 -15 14 -17 22 -9 8 8 7 15 -4 26 -8 9 -18 13 -22 9z"/>
 <path d="M4395 5681 c-3 -6 -10 -9 -15 -6 -12 7 -23 -12 -15 -25 5 -8 11 -7 21 1 8 6 14 8 14 3 0 -4 5 -3 12 4 9 9 9 15 1 23 -8 8 -13 8 -18 0z"/>
 <path d="M4535 5681 c-3 -6 -10 -9 -15 -6 -12 7 -23 -12 -15 -25 5 -8 11 -7 21 1 8 6 14 8 14 3 0 -4 5 -3 12 4 9 9 9 15 1 23 -8 8 -13 8 -18 0z"/>
 <path d="M2525 5670 c-4 -6 1 -20 10 -30 11 -12 13 -20 5 -25 -5 -3 -8 -11 -4 -16 3 -5 10 -7 15 -3 5 3 7 9 4 14 -3 5 -1 11 5 15 6 4 8 11 4 16 -3 5 -10 7 -15 4 -5 -3 -6 0 -3 8 6 18 -12 32 -21 17z"/>
 <path d="M2435 5660 c-4 -6 -3 -16 3 -22 6 -6 12 -6 17 2 4 6 3 16 -3 22 -6 6 -12 6 -17 -2z"/>
 <path d="M2817 5653 c-10 -16 -12 -62 -2 -65 15 -5 31 50 18 63 -6 6 -13 7 -16 2z"/>
 <path d="M4295 5650 c-4 -6 -3 -16 3 -22 6 -6 12 -6 17 2 4 6 3 16 -3 22 -6 6 -12 6 -17 -2z"/>
 <path d="M4605 5650 c-4 -6 -3 -16 3 -22 6 -6 12 -6 17 2 4 6 3 16 -3 22 -6 6 -12 6 -17 -2z"/>
 <path d="M5406 5421 c-131 -131 -234 -241 -229 -244 5 -3 116 101 247 232 131 131 234 241 229 244 -5 3 -116 -101 -247 -232z"/>
 <path d="M2675 5640 c-4 -6 -3 -16 3 -22 6 -6 12 -6 17 2 4 6 3 16 -3 22 -6 6 -12 6 -17 -2z"/>
 <path d="M2754 5636 c-7 -17 13 -59 25 -52 10 7 2 54 -10 62 -5 3 -12 -1 -15 -10z"/>
 <path d="M4031 5628 c-6 -7 -22 -13 -34 -13 -12 0 -22 -4 -22 -10 0 -5 8 -10 18 -9 20 1 24 -45 6 -63 -8 -8 -8 -13 1 -18 17 -10 40 14 40 44 1 23 2 24 11 8 14 -24 32 -11 19 14 -7 11 -16 17 -23 12 -7 -4 -6 1 2 11 17 21 2 43 -18 24z"/>
 <path d="M5821 5623 c-5 -10 -10 -22 -12 -28 -1 -5 -13 -35 -27 -65 -13 -30 -25 -59 -26 -65 -1 -5 -10 -25 -19 -42 -10 -18 -17 -35 -17 -38 0 -3 -7 -19 -16 -36 -10 -21 -12 -35 -6 -41 11 -11 29 15 35 49 2 10 11 33 20 50 10 18 18 35 18 38 0 2 11 30 25 60 14 31 27 61 28 68 1 7 7 22 14 34 7 13 8 24 3 28 -6 3 -14 -2 -20 -12z"/>
 <path d="M4117 5623 c-4 -6 0 -18 7 -28 8 -11 16 -14 19 -8 4 6 0 18 -7 28 -8 11 -16 14 -19 8z"/>
 <path d="M3065 5610 c-8 -12 20 -24 35 -15 14 8 13 -48 -1 -62 -16 -16 8 -28 27 -12 10 8 14 26 12 52 -3 37 -6 40 -35 43 -18 2 -35 -1 -38 -6z"/>
 <path d="M4405 5610 c-4 -6 -3 -16 3 -22 6 -6 12 -6 17 2 4 6 3 16 -3 22 -6 6 -12 6 -17 -2z"/>
 <path d="M4545 5610 c-4 -6 -3 -16 3 -22 6 -6 12 -6 17 2 4 6 3 16 -3 22 -6 6 -12 6 -17 -2z"/>
 <path d="M4240 5591 c-6 -12 -6 -22 -1 -26 6 -3 15 3 21 14 6 12 6 22 1 26 -6 3 -15 -3 -21 -14z"/>
 <path d="M4355 5600 c-4 -6 -3 -16 3 -22 6 -6 12 -6 17 2 4 6 3 16 -3 22 -6 6 -12 6 -17 -2z"/>
 <path d="M4495 5600 c-4 -6 -3 -16 3 -22 6 -6 12 -6 17 2 4 6 3 16 -3 22 -6 6 -12 6 -17 -2z"/>
 <path d="M4804 5576 c-8 -21 3 -49 16 -41 5 3 10 15 10 25 0 25 -18 36 -26 16z"/>
 <path d="M3026 5572 c-7 -12 -1 -47 9 -47 12 0 16 43 6 50 -5 3 -12 2 -15 -3z"/>
 <path d="M2545 5560 c-4 -6 -3 -16 3 -22 6 -6 12 -6 17 2 4 6 3 16 -3 22 -6 6 -12 6 -17 -2z"/>
 <path d="M3725 5560 c-3 -5 0 -13 8 -16 23 -8 82 0 82 11 0 14 -82 19 -90 5z"/>
 <path d="M2415 5550 c-4 -6 -3 -16 3 -22 6 -6 12 -6 17 2 4 6 3 16 -3 22 -6 6 -12 6 -17 -2z"/>
 <path d="M3515 5540 c-4 -6 -3 -16 3 -22 6 -6 12 -6 17 2 4 6 3 16 -3 22 -6 6 -12 6 -17 -2z"/>
 <path d="M5046 5541 c-4 -6 -13 -8 -20 -5 -17 7 -30 -12 -16 -21 6 -4 16 -2 23 3 7 6 15 11 20 11 8 1 11 11 4 17 -3 3 -8 1 -11 -5z"/>
 <path d="M2775 5530 c-8 -12 20 -24 35 -15 6 3 8 11 5 16 -8 12 -32 12 -40 -1z"/>
 <path d="M4125 5530 c-8 -13 20 -24 41 -16 20 8 9 26 -16 26 -10 0 -22 -5 -25 -10z"/>
 <path d="M3595 5520 c-4 -6 -3 -16 3 -22 6 -6 12 -6 17 2 4 6 3 16 -3 22 -6 6 -12 6 -17 -2z"/>
 <path d="M3795 5510 c-4 -6 -4 -14 -1 -17 3 -3 1 -12 -5 -19 -6 -8 -6 -14 0 -18 5 -4 12 -2 16 4 3 5 3 10 -1 10 -3 0 -1 7 6 15 9 11 10 19 3 26 -8 8 -13 7 -18 -1z"/>
 <path d="M1597 5483 c-4 -3 0 -17 8 -30 9 -13 13 -23 10 -23 -3 0 -1 -9 5 -20 6 -11 15 -18 21 -15 5 4 4 15 -3 28 -7 12 -13 28 -14 36 -3 19 -19 33 -27 24z"/>
 <path d="M1827 5483 c-3 -5 115 -130 262 -277 148 -148 271 -264 274 -259 3 5 -115 130 -262 277 -148 148 -271 264 -274 259z"/>
 <path d="M2505 5480 c-4 -6 -3 -16 3 -22 6 -6 12 -6 17 2 4 6 3 16 -3 22 -6 6 -12 6 -17 -2z"/>
 <path d="M3527 5483 c-4 -6 0 -18 7 -28 8 -11 16 -14 19 -8 4 6 0 18 -7 28 -8 11 -16 14 -19 8z"/>
 <path d="M3556 5432 c-3 -6 1 -15 8 -21 8 -7 17 -8 20 -3 3 6 -1 15 -8 21 -8 7 -17 8 -20 3z"/>
 <path d="M3635 5390 c-7 -12 5 -17 40 -16 17 1 29 5 28 11 -3 12 -61 16 -68 5z"/>
 <path d="M1647 5373 c-4 -3 -2 -12 4 -20 6 -7 9 -13 5 -13 -4 0 0 -13 9 -30 8 -16 15 -32 15 -35 -1 -15 32 -65 40 -60 6 4 4 18 -5 35 -9 17 -15 32 -15 35 0 3 -7 20 -17 38 -9 17 -17 35 -18 39 0 11 -11 18 -18 11z"/>
 <path d="M5665 5260 c-8 -16 -13 -30 -9 -30 4 0 2 -6 -4 -13 -22 -26 -51 -106 -41 -112 8 -6 48 68 53 99 1 6 10 25 19 43 10 19 13 34 7 38 -5 3 -16 -8 -25 -25z"/>
 <path d="M4567 4582 l-587 -587 -169 169 c-92 92 -171 164 -174 159 -8 -13 318 -336 342 -338 23 -2 1199 1169 1184 1178 -5 3 -273 -258 -596 -581z"/>
 <path d="M1747 5143 c-4 -3 -2 -12 4 -20 6 -7 9 -13 5 -13 -4 0 1 -14 9 -30 9 -17 20 -28 25 -25 6 4 3 19 -7 38 -9 18 -17 35 -18 39 0 11 -11 18 -18 11z"/>
 <path d="M5575 5051 c-9 -18 -11 -32 -5 -36 5 -3 16 8 25 24 9 18 11 32 5 36 -5 3 -16 -8 -25 -24z"/>
 <path d="M1807 5004 c-3 -4 0 -19 9 -35 8 -16 14 -31 14 -34 0 -3 7 -20 17 -38 9 -17 18 -37 19 -43 1 -6 17 -44 36 -85 19 -41 36 -78 37 -84 2 -5 11 -26 21 -45 10 -19 18 -38 19 -43 0 -4 8 -22 18 -40 9 -17 18 -36 19 -42 1 -5 15 -39 31 -75 16 -36 30 -67 30 -70 0 -3 9 -23 20 -45 12 -22 21 -42 20 -45 0 -3 9 -23 20 -45 12 -22 21 -43 22 -48 0 -4 8 -21 16 -37 8 -16 16 -33 16 -37 3 -22 41 -83 49 -78 10 6 -6 50 -28 78 -9 9 -12 17 -8 17 3 0 0 13 -9 30 -8 16 -16 33 -16 37 -1 5 -9 24 -19 43 -10 19 -19 40 -20 45 -1 6 -12 28 -23 50 -11 22 -22 45 -23 50 -1 6 -16 42 -33 80 -18 39 -32 71 -31 73 0 1 -7 16 -15 32 -8 16 -15 31 -14 32 1 2 -9 23 -21 48 -13 25 -25 50 -26 55 -1 6 -18 45 -37 88 -20 42 -36 80 -36 82 0 3 -8 19 -16 35 -8 16 -15 32 -15 35 1 7 -30 65 -34 65 -1 0 -5 -3 -9 -6z"/>
 <path d="M5541 4973 c-5 -10 -9 -21 -10 -26 0 -4 -7 -20 -14 -35 -21 -40 -109 -245 -111 -257 -1 -5 -10 -24 -19 -42 -10 -19 -13 -34 -7 -38 5 -3 16 8 25 25 8 16 13 30 9 30 -4 0 -2 6 4 13 11 13 123 263 126 282 1 6 7 20 14 32 7 13 8 24 3 28 -6 3 -14 -2 -20 -12z"/>
 <path d="M2416 4892 c-3 -6 1 -15 8 -21 8 -7 17 -8 20 -3 3 6 -1 15 -8 21 -8 7 -17 8 -20 3z"/>
 <path d="M2486 4822 c-3 -6 1 -15 8 -21 8 -7 17 -8 20 -3 3 6 -1 15 -8 21 -8 7 -17 8 -20 3z"/>
 <path d="M5350 4530 c-11 -21 -5 -44 9 -35 13 7 20 44 11 50 -5 3 -14 -4 -20 -15z"/>
 <path d="M5310 4440 c-6 -11 -8 -20 -4 -20 3 0 2 -6 -4 -12 -21 -27 -60 -128 -51 -134 8 -5 58 88 63 119 1 7 7 22 14 34 7 13 8 24 3 28 -6 3 -15 -4 -21 -15z"/>
 <path d="M3591 4286 c-13 -13 -18 -26 -13 -30 5 -3 19 5 31 18 13 13 18 26 13 30 -5 3 -19 -5 -31 -18z"/>
 <path d="M3426 4120 c-76 -76 -125 -133 -121 -140 4 -6 8 -10 9 -8 0 2 59 62 129 134 71 73 125 134 119 137 -5 4 -66 -52 -136 -123z"/>
 <path d="M5204 4194 c-15 -32 -27 -63 -28 -68 -1 -6 -7 -20 -13 -31 -26 -49 -41 -95 -32 -101 8 -5 48 69 53 100 1 6 12 30 24 54 34 65 43 90 32 97 -6 3 -22 -20 -36 -51z"/>
 <path d="M2247 4004 c-3 -4 0 -19 9 -35 8 -16 14 -31 14 -34 0 -3 7 -19 15 -35 8 -16 15 -31 14 -32 -1 -2 8 -23 21 -48 13 -25 22 -46 21 -48 -1 -1 6 -17 16 -35 9 -17 17 -35 18 -39 0 -5 3 -8 8 -8 4 0 10 0 13 0 4 0 1 7 -6 15 -7 8 -10 15 -6 15 4 0 0 13 -9 30 -8 16 -15 31 -14 32 1 2 -7 21 -18 43 -12 22 -21 43 -22 48 0 4 -8 21 -16 37 -8 16 -15 32 -15 35 1 7 -30 65 -34 65 -1 0 -5 -3 -9 -6z"/>
 <path d="M3337 3943 c-4 -6 0 -18 7 -28 8 -11 16 -14 19 -8 4 6 0 18 -7 28 -8 11 -16 14 -19 8z"/>
 <path d="M3920 3871 c-6 -12 -6 -22 -1 -26 6 -3 15 3 21 14 6 12 6 22 1 26 -6 3 -15 -3 -21 -14z"/>
 <path d="M5055 3850 c-8 -16 -15 -32 -15 -35 0 -3 -7 -19 -15 -35 -8 -16 -15 -31 -15 -32 1 -2 -11 -30 -26 -63 -14 -33 -27 -64 -29 -70 -1 -5 -17 -41 -35 -80 -18 -38 -33 -74 -34 -80 -1 -5 -10 -24 -19 -42 -10 -19 -13 -34 -7 -38 7 -5 40 42 41 60 0 2 14 35 31 72 17 38 31 73 33 78 1 6 14 36 29 68 16 32 29 63 30 70 1 7 10 27 19 44 10 18 17 35 17 38 0 3 6 18 15 35 9 17 11 31 5 35 -5 3 -16 -8 -25 -25z"/>
 <path d="M3407 3823 c-4 -6 0 -18 7 -28 8 -11 16 -14 19 -8 4 6 0 18 -7 28 -8 11 -16 14 -19 8z"/>
 <path d="M3880 3801 c-6 -12 -6 -22 -1 -26 6 -3 15 3 21 14 6 12 6 22 1 26 -6 3 -15 -3 -21 -14z"/>
 <path d="M3447 3753 c-4 -6 0 -18 7 -28 8 -11 16 -14 19 -8 4 6 0 18 -7 28 -8 11 -16 14 -19 8z"/>
 <path d="M2397 3663 c-4 -3 0 -17 8 -30 9 -13 13 -23 10 -23 -3 0 4 -19 16 -42 12 -24 21 -43 19 -43 -2 0 7 -20 20 -45 13 -25 22 -46 21 -48 -1 -1 6 -16 14 -32 8 -16 15 -32 15 -35 -1 -15 32 -65 40 -60 6 4 4 18 -5 35 -9 17 -15 32 -15 35 0 3 -7 19 -15 35 -8 16 -15 31 -14 32 1 2 -7 21 -18 43 -12 22 -21 42 -20 45 0 3 -11 25 -23 50 -13 25 -25 51 -26 59 -4 19 -19 33 -27 24z"/>
 <path d="M3770 3611 c-6 -12 -6 -22 -1 -26 6 -3 15 3 21 14 6 12 6 22 1 26 -6 3 -15 -3 -21 -14z"/>
 <path d="M3557 3563 c-4 -6 0 -18 7 -28 8 -11 16 -14 19 -8 4 6 0 18 -7 28 -8 11 -16 14 -19 8z"/>
 <path d="M3730 3541 c-6 -12 -6 -22 -1 -26 6 -3 15 3 21 14 6 12 6 22 1 26 -6 3 -15 -3 -21 -14z"/>
 <path d="M3597 3493 c-4 -6 0 -18 7 -28 8 -11 16 -14 19 -8 4 6 0 18 -7 28 -8 11 -16 14 -19 8z"/>
 <path d="M3666 3432 c-4 -4 -12 -8 -17 -8 -5 -1 -11 -2 -14 -3 -3 0 -1 -10 5 -21 12 -22 24 -19 40 10 10 19 -1 36 -14 22z"/>
 <path d="M4831 3333 c-5 -10 -9 -21 -10 -26 0 -4 -8 -21 -16 -37 -8 -16 -16 -33 -16 -37 -1 -5 -10 -25 -20 -45 -11 -21 -17 -38 -14 -38 3 0 -2 -11 -10 -24 -10 -15 -12 -26 -6 -30 9 -6 36 30 34 44 -1 3 8 23 20 45 11 22 19 41 18 43 -1 1 6 16 14 32 9 17 13 30 10 30 -3 0 2 11 10 24 10 15 12 26 6 30 -5 4 -14 -1 -20 -11z"/>
 <path d="M2567 3274 c-3 -4 0 -19 9 -35 8 -16 14 -31 14 -34 0 -3 11 -28 25 -55 14 -27 25 -52 25 -55 0 -3 7 -19 15 -35 8 -16 16 -33 16 -37 1 -5 9 -24 19 -43 10 -19 18 -38 19 -43 0 -4 8 -21 16 -37 8 -16 15 -32 15 -35 0 -3 7 -19 15 -35 8 -16 16 -33 16 -37 3 -22 41 -83 49 -78 6 4 1 24 -12 48 -11 23 -20 43 -19 45 1 1 -6 16 -14 32 -8 16 -15 32 -15 35 0 3 -7 19 -15 35 -8 16 -16 33 -16 37 -1 5 -10 26 -22 48 -11 22 -19 41 -18 43 1 1 -6 16 -14 32 -8 16 -15 32 -15 35 0 3 -11 28 -25 55 -14 27 -25 52 -25 55 1 7 -30 65 -34 65 -1 0 -5 -3 -9 -6z"/>
 <path d="M4709 3054 c-6 -16 -12 -33 -13 -39 -2 -5 -15 -35 -29 -65 -61 -131 -104 -236 -100 -243 3 -5 9 -5 13 0 9 8 121 260 124 278 1 6 10 25 20 44 12 23 15 36 7 44 -7 7 -14 1 -22 -19z"/>
 <path d="M2827 2683 c-4 -6 0 -18 7 -28 8 -11 16 -14 19 -8 4 6 0 18 -7 28 -8 11 -16 14 -19 8z"/>
 <path d="M4535 2650 c-8 -16 -13 -30 -10 -30 3 0 -2 -11 -10 -24 -10 -15 -12 -26 -6 -30 9 -6 28 17 30 37 0 4 7 20 16 37 9 17 11 31 5 35 -5 3 -16 -8 -25 -25z"/>
 <path d="M2857 2614 c-3 -4 1 -21 10 -38 9 -17 18 -36 19 -42 1 -6 18 -45 37 -87 20 -43 36 -80 36 -82 1 -18 34 -65 41 -60 6 4 3 19 -7 38 -9 18 -18 37 -19 42 -1 6 -17 44 -36 85 -19 41 -35 78 -36 83 -2 11 -32 67 -36 67 -1 0 -5 -3 -9 -6z"/>
 <path d="M4464 2483 c-15 -32 -27 -62 -28 -68 -1 -5 -13 -30 -26 -55 -12 -25 -22 -46 -21 -48 1 -1 -6 -16 -14 -32 -8 -16 -15 -32 -15 -35 0 -3 -6 -18 -15 -35 -9 -17 -11 -31 -5 -35 8 -5 41 45 40 60 0 3 7 19 15 35 8 16 15 31 14 32 -1 2 8 22 20 46 12 23 19 42 15 42 -4 0 -1 6 5 13 22 28 60 126 50 132 -5 4 -21 -20 -35 -52z"/>
 <path d="M3017 2253 c-4 -6 0 -18 7 -28 8 -11 16 -14 19 -8 4 6 0 18 -7 28 -8 11 -16 14 -19 8z"/>
 <path d="M3047 2184 c-9 -10 22 -66 33 -59 6 4 4 18 -5 36 -17 31 -18 32 -28 23z"/>
 <path d="M4305 2120 c-8 -16 -13 -30 -9 -30 4 0 2 -6 -4 -13 -11 -12 -122 -263 -126 -282 -1 -5 -10 -25 -19 -42 -10 -18 -15 -33 -12 -33 3 0 -2 -11 -10 -24 -10 -15 -12 -26 -6 -30 8 -6 38 33 32 42 -1 1 6 16 14 32 8 16 15 32 15 35 0 3 6 18 13 33 21 40 109 245 111 257 1 5 10 24 19 42 10 19 13 34 7 38 -5 3 -16 -8 -25 -25z"/>
 <path d="M3097 2073 c-9 -14 41 -115 52 -108 6 3 1 25 -11 53 -23 54 -33 67 -41 55z"/>
 <path d="M3157 1934 c-3 -4 0 -19 9 -35 8 -16 14 -31 14 -34 0 -3 7 -20 17 -38 9 -17 18 -36 19 -42 4 -18 135 -310 150 -332 8 -13 12 -23 9 -23 -3 0 2 -15 12 -32 9 -18 17 -36 18 -40 0 -5 3 -8 8 -8 4 0 10 0 13 0 4 0 1 7 -6 15 -7 8 -10 15 -6 15 4 0 -1 15 -11 33 -9 17 -18 37 -19 42 -2 12 -120 277 -140 317 -8 15 -14 30 -14 33 0 3 -7 19 -15 35 -8 16 -15 32 -15 35 1 7 -30 65 -34 65 -1 0 -5 -3 -9 -6z"/>
 <path d="M4075 1590 c-8 -16 -16 -32 -16 -35 0 -2 -9 -26 -21 -51 -11 -26 -21 -52 -22 -58 -1 -6 -12 -30 -24 -53 -12 -24 -20 -43 -17 -43 3 0 -1 -10 -9 -22 -8 -13 -16 -27 -17 -33 0 -5 -9 -26 -19 -45 -10 -19 -18 -38 -19 -43 0 -4 -8 -21 -16 -37 -9 -17 -13 -30 -10 -30 3 0 -2 -11 -10 -24 -10 -15 -12 -26 -6 -30 8 -6 38 33 32 42 -1 1 6 16 14 32 8 16 15 31 14 32 -1 2 8 22 20 46 12 23 19 42 16 42 -3 0 1 10 9 23 8 12 15 24 14 27 -1 3 8 23 19 45 12 22 22 43 22 47 1 4 11 29 23 54 11 26 21 52 22 58 1 6 10 25 19 43 10 19 13 34 7 38 -5 3 -16 -8 -25 -25z"/>
 <path d="M3437 1303 c-4 -3 -2 -12 4 -20 6 -7 9 -13 5 -13 -4 0 1 -14 9 -30 9 -17 20 -28 25 -25 6 4 3 19 -7 38 -9 18 -17 35 -18 39 0 11 -11 18 -18 11z"/>
 <path d="M3487 1184 c-3 -4 2 -23 12 -43 11 -20 19 -39 20 -44 0 -4 8 -21 16 -37 8 -16 15 -31 14 -32 -1 -2 9 -23 21 -48 13 -25 25 -50 26 -56 1 -6 19 -46 39 -90 21 -43 38 -82 37 -85 -1 -4 7 -14 17 -23 16 -15 19 -15 37 5 10 12 18 23 17 25 -1 2 9 29 23 59 14 31 27 61 28 68 1 7 10 27 19 44 10 18 17 34 16 35 -1 2 8 22 19 45 13 24 18 44 12 48 -8 5 -57 -74 -51 -83 1 -1 -6 -16 -14 -32 -8 -16 -16 -32 -16 -35 0 -2 -11 -31 -26 -62 -14 -32 -27 -65 -28 -73 -2 -8 -4 -17 -5 -20 -1 -3 -2 -8 -2 -11 1 -3 -5 -6 -13 -6 -8 0 -14 3 -13 6 0 3 -1 8 -2 11 -1 3 -3 12 -5 20 -1 8 -18 49 -37 90 -19 41 -36 80 -37 85 -2 6 -12 28 -24 50 -11 22 -19 41 -18 43 1 1 -6 16 -14 32 -8 16 -16 33 -16 37 -1 10 -39 83 -43 83 -1 0 -5 -3 -9 -6z"/>
 </g>

<g fill="#0F2937" stroke="none">
 <path d="M4978 4972 l-975 -977 -163 -285 c-90 -157 -168 -291 -174 -298 -9 -9 -49 53 -175 270 l-163 283 -932 939 c-513 517 -935 936 -938 930 -3 -5 66 -171 153 -369 88 -198 187 -423 221 -500 33 -77 75 -169 91 -205 17 -36 42 -94 58 -130 15 -36 46 -108 69 -160 57 -130 95 -217 178 -405 38 -88 132 -299 207 -470 75 -170 184 -418 242 -550 58 -132 139 -315 179 -407 41 -93 107 -243 148 -335 40 -93 122 -278 181 -413 174 -396 186 -422 215 -490 16 -36 51 -117 79 -180 29 -63 86 -194 128 -290 42 -96 82 -181 89 -189 15 -17 18 -12 120 225 116 270 165 383 244 564 40 91 89 206 110 255 21 50 77 180 125 290 48 110 114 263 147 340 33 77 74 174 93 215 30 68 137 316 390 900 51 118 190 439 309 713 119 274 216 500 216 503 0 2 12 28 26 57 14 28 33 72 43 97 10 25 64 149 118 275 337 775 332 764 324 769 -4 3 -446 -435 -983 -972z"/>
 <path d="M2729 5885 c-47 -26 -55 -87 -20 -153 6 -11 36 -33 67 -48 46 -23 55 -31 50 -48 -3 -12 -6 -27 -6 -33 0 -7 -11 -13 -24 -13 -18 0 -25 6 -28 23 -2 16 -11 23 -31 25 -47 6 -58 -3 -46 -36 26 -76 119 -104 173 -53 38 36 48 82 44 216 l-3 120 -33 3 c-27 3 -35 -1 -39 -17 -5 -20 -6 -20 -22 -2 -23 27 -52 32 -82 16z m89 -67 c13 -13 17 -98 5 -98 -18 0 -53 46 -53 70 0 40 23 53 48 28z"/>
 <path d="M3604 5881 c-60 -28 -77 -70 -82 -210 -6 -147 7 -210 53 -250 87 -76 211 -32 230 80 8 48 -1 62 -41 57 -25 -3 -30 -8 -35 -40 -7 -48 -25 -68 -60 -68 -60 0 -73 41 -68 221 4 113 6 122 28 140 50 40 91 16 99 -59 l4 -51 -33 -3 c-30 -3 -34 -6 -34 -33 l0 -30 70 0 70 0 0 125 c0 121 -1 125 -22 128 -14 2 -27 -4 -34 -16 -12 -19 -13 -20 -28 -1 -24 28 -70 32 -117 10z"/>
 <path d="M4100 5883 c-45 -23 -59 -63 -59 -173 0 -112 14 -150 62 -174 47 -23 95 -15 128 20 23 24 24 32 24 155 0 124 -1 129 -25 153 -34 34 -86 41 -130 19z m78 -171 c2 -94 0 -113 -13 -118 -34 -13 -45 14 -45 115 0 99 9 125 40 119 12 -3 16 -25 18 -116z"/>
 <path d="M4734 5890 c-45 -18 -54 -46 -54 -176 0 -99 -3 -123 -15 -128 -19 -7 -20 -42 -1 -53 10 -5 16 -29 18 -67 l3 -60 35 0 35 0 3 62 c3 58 4 61 30 64 21 2 27 8 27 28 0 20 -6 26 -28 28 l-28 3 3 117 c3 114 4 116 27 122 46 10 27 72 -21 69 -7 0 -23 -4 -34 -9z"/>
 <path d="M2301 5877 c-8 -11 -11 -80 -9 -248 l3 -234 44 -3 c24 -2 48 1 53 6 4 4 22 80 38 167 17 87 32 160 33 162 2 2 16 -68 32 -154 15 -87 32 -164 38 -171 6 -8 27 -12 56 -10 l46 3 0 245 0 245 -38 0 -39 0 0 -170 0 -170 -31 170 c-29 156 -34 170 -54 173 -34 5 -48 -30 -74 -183 l-24 -140 -5 160 -5 160 -26 3 c-14 2 -31 -3 -38 -11z"/>
 <path d="M2965 5878 c-3 -8 -4 -88 -3 -178 l3 -165 33 -3 c22 -2 34 2 38 12 5 13 10 12 35 -6 24 -18 31 -19 44 -8 10 8 15 25 13 44 -3 28 -7 31 -43 36 l-40 5 -5 135 -5 135 -33 3 c-20 2 -34 -2 -37 -10z"/>
 <path d="M3155 5878 c-3 -7 -4 -119 -3 -248 l3 -235 35 0 35 0 3 125 3 124 40 -57 c33 -47 46 -57 69 -57 16 0 31 3 34 8 2 4 -12 33 -31 64 l-35 57 37 106 c41 114 39 129 -11 123 -26 -3 -30 -9 -52 -81 -19 -64 -26 -76 -37 -67 -9 7 -15 37 -17 78 l-3 67 -33 3 c-20 2 -34 -2 -37 -10z"/>
 <path d="M3865 5878 c-3 -8 -4 -88 -3 -178 l3 -165 33 -3 c22 -2 34 2 38 13 6 14 8 14 23 1 10 -9 28 -17 42 -18 22 -3 24 0 24 37 0 39 -1 40 -40 45 l-40 5 -5 135 -5 135 -33 3 c-20 2 -34 -2 -37 -10z"/>
 <path d="M4350 5868 c-15 -36 -62 -309 -56 -325 4 -9 17 -13 33 -11 27 3 28 6 41 93 19 129 24 131 39 25 7 -52 15 -101 18 -107 5 -14 61 -18 69 -5 3 5 11 50 17 100 7 51 15 92 19 92 4 0 12 -41 19 -92 6 -50 14 -95 17 -100 5 -8 57 -11 65 -3 7 7 -59 337 -70 348 -5 5 -21 7 -37 5 -28 -3 -29 -5 -45 -98 -18 -103 -22 -102 -39 9 -6 41 -13 78 -16 82 -3 5 -19 9 -35 9 -21 0 -32 -6 -39 -22z"/>
 <path d="M4865 5878 c-3 -7 -4 -119 -3 -248 l3 -235 35 0 35 0 5 84 c4 72 7 82 18 68 7 -9 27 -19 44 -22 23 -5 35 -2 54 16 24 23 24 25 22 183 l-3 161 -35 0 -35 0 -3 -140 c-1 -77 -7 -144 -11 -148 -5 -5 -18 -6 -30 -2 -19 6 -21 15 -23 148 l-3 142 -33 3 c-20 2 -34 -2 -37 -10z"/>
 <path d="M3482 4157 c-84 -84 -150 -156 -146 -160 9 -9 598 -9 608 0 6 6 -292 314 -304 313 -3 -1 -74 -69 -158 -153z"/>
 </g>

<g fill="transparent" stroke="none">
 <path d="M0 3645 l0 -3645 3700 0 3700 0 0 3645 0 3645 -3700 0 -3700 0 0 -3645z m4148 3501 c572 -77 1021 -242 1467 -539 176 -117 416 -310 412 -331 -1 -6 4 -10 11 -8 15 3 215 -195 326 -323 390 -449 658 -990 770 -1555 92 -462 94 -982 5 -1448 -107 -559 -357 -1078 -742 -1540 -107 -128 -351 -373 -368 -370 -8 2 -13 -2 -12 -9 2 -7 -44 -50 -101 -97 -559 -460 -1185 -715 -1903 -776 -184 -16 -634 -8 -803 14 -535 70 -1006 244 -1440 531 -144 95 -295 211 -295 227 0 6 -8 12 -17 14 -22 3 -159 124 -153 134 3 4 -2 13 -10 20 -8 7 -15 9 -15 4 0 -5 -36 27 -79 70 -44 44 -79 84 -78 90 1 6 -3 10 -10 9 -14 -3 -93 85 -90 100 1 6 -3 11 -10 12 -16 0 -84 80 -88 103 -1 9 -7 16 -12 15 -14 -3 -167 208 -248 342 -224 368 -373 768 -444 1190 -32 192 -41 296 -48 530 -20 750 163 1422 547 2003 137 208 389 520 410 507 4 -2 15 4 25 15 10 11 14 20 9 20 -4 0 12 20 36 45 24 24 47 42 51 40 9 -6 31 20 23 27 -7 8 166 160 286 252 538 413 1132 639 1840 700 109 9 640 -3 748 -18z"/>
 </g>

<g fill="white" stroke="none">
 <path d="M3400 7184 c-658 -57 -1223 -259 -1730 -618 -245 -174 -580 -492 -769 -730 -525 -661 -771 -1412 -748 -2281 7 -234 16 -338 48 -530 56 -336 155 -638 307 -941 181 -361 393 -645 713 -960 574 -562 1214 -878 1989 -980 169 -22 619 -30 803 -14 720 61 1340 314 1906 778 131 107 391 365 498 494 387 464 635 981 742 1540 89 466 87 986 -5 1448 -88 441 -272 874 -531 1248 -254 365 -615 723 -981 970 -463 313 -908 479 -1494 558 -108 15 -639 27 -748 18z m2515 -1360 c-31 -71 -62 -142 -70 -159 -8 -16 -42 -95 -75 -175 -34 -80 -74 -173 -90 -207 -17 -35 -30 -65 -30 -67 0 -3 -24 -61 -54 -128 -29 -68 -97 -224 -150 -348 -53 -124 -101 -233 -106 -242 -5 -9 -25 -54 -44 -100 -19 -46 -51 -121 -71 -168 -20 -47 -49 -114 -64 -150 -16 -36 -38 -85 -49 -110 -12 -25 -64 -144 -115 -265 -103 -240 -299 -692 -702 -1620 -164 -378 -456 -1055 -522 -1210 -31 -71 -59 -134 -63 -139 -9 -9 -8 -10 -156 329 -58 132 -113 258 -124 280 -19 41 -189 425 -265 600 -49 113 -138 314 -227 515 -33 74 -66 149 -73 165 -8 17 -36 82 -64 145 -27 63 -93 214 -146 335 -54 121 -129 292 -167 380 -39 88 -79 180 -91 205 -11 25 -44 101 -74 170 -30 69 -103 235 -163 370 -136 307 -288 653 -347 790 -25 58 -65 148 -88 200 -23 52 -57 129 -75 170 -17 41 -42 98 -55 125 -45 94 -145 328 -142 332 2 2 420 -416 928 -928 l924 -931 168 -292 c93 -160 172 -295 177 -299 4 -5 16 4 27 20 35 50 325 557 328 572 1 13 1956 1970 1963 1966 1 -1 -22 -60 -53 -131z m-3103 32 l18 -21 6 23 c5 16 14 22 36 22 l30 0 -4 -145 c-3 -142 -4 -145 -30 -171 -21 -22 -36 -27 -72 -27 -52 0 -79 18 -95 64 -10 28 -9 29 23 29 25 0 35 -5 39 -20 13 -48 62 -31 69 24 3 27 -2 32 -54 58 -46 24 -59 37 -73 70 -37 93 48 168 107 94z m909 2 l17 -21 11 21 c6 12 21 22 31 22 19 0 20 -7 20 -115 l0 -115 -65 0 c-58 0 -65 2 -65 19 0 15 8 21 33 23 32 3 32 3 32 57 -1 44 -5 57 -24 72 -31 25 -54 24 -88 -5 l-28 -24 0 -150 c0 -145 1 -151 24 -176 47 -50 106 -25 118 48 5 32 9 36 34 36 24 0 29 -4 29 -25 0 -35 -23 -86 -49 -109 -26 -24 -115 -28 -153 -8 -54 29 -63 63 -63 232 0 126 3 161 17 185 34 63 131 82 169 33z m507 -4 c20 -23 22 -35 22 -143 0 -103 -3 -122 -20 -144 -43 -54 -147 -40 -169 23 -14 42 -14 197 0 240 22 62 120 76 167 24z m566 30 c23 -9 20 -44 -3 -44 -36 0 -42 -23 -39 -141 l3 -114 28 -3 c19 -2 27 -9 27 -22 0 -13 -8 -20 -27 -22 -27 -3 -28 -6 -31 -60 -3 -57 -4 -58 -32 -58 -30 0 -30 1 -30 55 0 40 -4 57 -15 61 -8 4 -15 14 -15 24 0 10 7 20 15 24 12 4 15 28 15 126 0 67 5 130 11 141 16 30 60 46 93 33z m-2432 -161 c2 -90 7 -158 12 -158 6 0 20 56 32 125 13 69 26 140 29 158 5 25 11 32 29 32 21 0 24 -8 52 -160 16 -90 33 -160 39 -158 11 3 13 26 14 196 l1 122 30 0 30 0 0 -241 0 -240 -47 3 -48 3 -30 168 c-17 92 -35 169 -40 170 -5 1 -20 -52 -32 -118 -13 -66 -28 -144 -34 -172 l-10 -53 -45 0 -44 0 0 240 0 240 30 0 29 0 3 -157z m668 29 c0 -141 4 -152 57 -152 31 0 33 -2 33 -36 0 -32 -2 -35 -22 -28 -13 3 -31 13 -40 22 -16 13 -18 13 -24 -2 -4 -10 -18 -16 -35 -16 l-29 0 0 170 0 170 30 0 30 0 0 -128z m190 70 c0 -57 21 -109 40 -97 5 3 18 39 31 80 21 71 24 75 50 75 16 0 29 -4 29 -9 0 -5 -16 -55 -35 -111 -32 -90 -34 -105 -22 -124 7 -11 23 -38 36 -58 l23 -38 -31 0 c-26 0 -36 8 -67 55 -20 30 -40 52 -45 49 -5 -3 -9 -59 -9 -125 l0 -119 -30 0 -30 0 0 240 0 240 30 0 c30 0 30 0 30 -58z m710 -70 c0 -141 4 -152 57 -152 31 0 33 -2 33 -36 0 -32 -2 -35 -22 -28 -13 3 -31 13 -40 22 -16 13 -18 13 -24 -2 -4 -10 -18 -16 -35 -16 l-29 0 0 170 0 170 30 0 30 0 0 -128z m499 65 c6 -35 11 -73 11 -84 0 -11 7 -26 15 -33 18 -15 21 -8 30 65 14 113 15 115 46 115 16 0 29 -1 29 -2 0 -2 13 -70 30 -153 36 -184 36 -185 6 -185 -23 0 -25 5 -36 88 -14 106 -17 115 -32 110 -10 -4 -32 -113 -37 -185 -1 -7 -14 -13 -30 -13 -28 0 -29 2 -40 75 -6 42 -11 87 -11 100 0 13 -4 26 -9 30 -15 8 -27 -23 -35 -85 -14 -112 -16 -120 -42 -120 -30 0 -30 -3 1 161 35 191 31 179 64 179 28 0 29 -3 40 -63z m501 -77 c0 -140 0 -140 25 -152 48 -22 55 -2 55 153 l0 139 30 0 30 0 0 -159 c0 -153 -1 -161 -22 -175 -24 -17 -63 -12 -89 10 -24 21 -29 8 -29 -78 l0 -78 -30 0 -30 0 0 240 0 240 30 0 30 0 0 -140z m-1129 -1738 c-82 -1 -221 -1 -308 0 l-158 3 154 153 155 153 153 -153 153 -153 -149 -3z"/>
 <path d="M2772 5828 c-21 -21 -14 -63 17 -92 16 -16 33 -26 38 -23 5 3 10 25 11 48 4 60 -34 99 -66 67z"/>
 <path d="M4126 5818 c-25 -35 -22 -188 3 -219 16 -20 23 -22 38 -13 15 9 18 27 21 119 3 107 -4 135 -34 135 -7 0 -20 -10 -28 -22z"/>
 </g>

</svg>