<?xml version="1.0" encoding="utf-8"?>
<!-- Generator: Adobe Illustrator 16.0.0, SVG Export Plug-In . SVG Version: 6.00 Build 0)  -->
<!DOCTYPE svg PUBLIC "-//W3C//DTD SVG 1.1//EN" "http://www.w3.org/Graphics/SVG/1.1/DTD/svg11.dtd">
<svg version="1.1" id="Layer_1" xmlns="http://www.w3.org/2000/svg" xmlns:xlink="http://www.w3.org/1999/xlink" x="0px" y="0px"
	 viewBox="0 0 60 60" enable-background="new 0 0 60 60" xml:space="preserve">
<path fill="#C4D10E" d="M29.798,5.977c-7.768,0-14.069,6.298-14.069,14.061c0,7.771,6.302,14.07,14.069,14.07
	c7.767,0,14.061-6.299,14.061-14.07C43.858,12.275,37.564,5.977,29.798,5.977"/>
<g>
	<path fill="#C4D10E" d="M-278.638,17.077h1.145c1.104,0,2-0.896,2-2v-3.501c0-1.105-0.896-2-2-2h-1.145c-1.104,0-2,0.895-2,2v3.501
		C-280.638,16.181-279.742,17.077-278.638,17.077z"/>
	<path fill="#C4D10E" d="M-301.191,17.077h1.144c1.104,0,2-0.896,2-2v-3.501c0-1.105-0.896-2-2-2h-1.144c-1.104,0-2,0.895-2,2v3.501
		C-303.191,16.181-302.296,17.077-301.191,17.077z"/>
	<path fill="#C4D10E" d="M-267.328,17.647c0-2.442-1.98-4.423-4.424-4.423h-2.042v3.819c0,0.899-0.729,1.629-1.629,1.629h-5.285
		c-0.899,0-1.629-0.729-1.629-1.629v-3.819h-14.012v3.819c0,0.899-0.729,1.629-1.629,1.629h-5.284c-0.899,0-1.629-0.729-1.629-1.629
		v-3.819h-2.023c-2.443,0-4.424,1.98-4.424,4.423V44.44c0,2.443,1.98,4.424,4.424,4.424h35.162c2.443,0,4.424-1.98,4.424-4.424
		V17.647z"/>
</g>
<path fill="#878787" d="M-456.714-35.107l-10.263-10.264l23.737-23.739l10.265,10.265L-456.714-35.107z M-428.277-63.542
	c0.31-0.311,0.31-0.815,0-1.125l-9.14-9.141c-0.31-0.31-0.815-0.31-1.126,0l-2.646,2.646l10.265,10.265L-428.277-63.542z
	 M-428.466-35.019h-32.265l-8.043-8.043v7.636c0,1.168,0.948,2.115,2.116,2.115h0.787h6.849h30.558c0.327,0,0.59-0.264,0.59-0.589
	v-0.529C-427.876-34.754-428.14-35.019-428.466-35.019z"/>
<path fill="#878787" d="M-370.289-24.703c-2.303,0-21.042-15.73-21.231-15.888c-3.975-3.361-6.094-8.851-5.527-14.325
	c0.585-5.656,3.896-10.51,9.085-13.314c2.019-1.093,4.333-1.67,6.694-1.67c3.875,0,7.524,1.553,10.315,4.281
	c2.533-2.794,6.434-4.419,10.958-4.419c2.992,0,5.841,0.761,8.026,2.146c4.347,2.748,7.351,7.719,7.844,12.971
	c0.483,5.158-1.526,10.127-5.666,13.989C-349.961-40.772-367.499-24.703-370.289-24.703 M-381.268-64.448
	c-1.458,0-2.874,0.35-4.1,1.013c-4.9,2.648-6.021,6.826-6.256,9.08c-0.383,3.708,1.005,7.385,3.626,9.6
	c4.444,3.759,14.14,11.357,17.718,14.022c2.919-2.193,10.145-7.999,16.77-14.188c2.915-2.723,4.283-6.006,3.957-9.494
	c-0.333-3.553-2.427-7.035-5.329-8.874c-1.307-0.825-3.17-1.299-5.112-1.299c-3.093,0-6.857,1.218-8.142,4.634
	c-0.371,0.978-1.265,1.661-2.306,1.755c-1.054,0.088-2.046-0.417-2.584-1.313C-374.91-62.649-377.912-64.448-381.268-64.448"/>
<path fill="#878787" d="M-359.732-70.039c-8.662,0-15.68,7.021-15.68,15.68c0,8.661,7.019,15.683,15.68,15.683
	c8.659,0,15.677-7.021,15.677-15.683C-344.055-63.018-351.073-70.039-359.732-70.039 M-349.241-51.652l-7.779-0.018v7.805
	c0,0.446-0.36,0.806-0.803,0.806l-3.768,0.008c-0.214,0-0.417-0.085-0.569-0.236c-0.152-0.152-0.275-0.355-0.275-0.568l0.003-7.802
	l-7.802-0.018c-0.429,0-0.803-0.376-0.803-0.805l0.007-3.807c0-0.443,0.361-0.802,0.806-0.802l7.74-0.019l0.019-7.74
	c0-0.444,0.361-0.806,0.804-0.806l3.823-0.008c0.433,0,0.806,0.376,0.806,0.804l-0.001,7.762l7.802-0.002
	c0.425,0.079,0.804,0.453,0.804,0.885l-0.008,3.786C-348.436-51.985-348.798-51.625-349.241-51.652"/>
<path fill="#FFFFFF" d="M-349.241-51.653l-7.779-0.018v7.805c0,0.446-0.36,0.806-0.803,0.806l-3.768,0.008
	c-0.214,0-0.417-0.085-0.569-0.236c-0.152-0.152-0.275-0.355-0.275-0.568l0.003-7.802l-7.802-0.018
	c-0.429,0-0.803-0.376-0.803-0.805l0.007-3.807c0-0.443,0.361-0.802,0.806-0.802l7.74-0.019l0.019-7.74
	c0-0.444,0.361-0.806,0.804-0.806l3.823-0.008c0.433,0,0.806,0.376,0.806,0.804l-0.001,7.762l7.802-0.002
	c0.425,0.079,0.804,0.453,0.804,0.885l-0.008,3.786C-348.436-51.986-348.798-51.626-349.241-51.653"/>
<path fill="#878787" d="M-293.472-21.628c-1.265-0.468-11.43-5.556-17.259-18.062c-4.65-9.983-5.234-25.94-3.812-27.09
	c5.155-4.168,20.848-10.883,23.536-10.883h0.524c2.69,0,18.378,6.714,23.534,10.883c1.422,1.149,0.841,17.106-3.807,27.09
	c-5.829,12.506-15.996,17.594-17.258,18.062C-289.567-21.053-291.604-20.933-293.472-21.628 M-288.667-27.862
	c0.959-0.364,8.692-4.35,13.125-14.139c3.541-7.815,3.982-20.303,2.898-21.203c-3.917-3.264-15.855-8.521-17.899-8.521h-0.402
	c-2.042,0-13.981,5.257-17.904,8.521c-1.083,0.9-0.641,13.388,2.902,21.203c4.431,9.789,12.165,13.772,13.127,14.139
	C-291.397-27.317-289.848-27.415-288.667-27.862"/>
<path fill="#878787" d="M-300.545-57.846c-0.454,0-0.826,0.371-0.826,0.826v14.04c0,0.454,0.372,0.826,0.826,0.826h19.598
	c0.455,0,0.826-0.372,0.826-0.826v-14.04c0-0.455-0.372-0.826-0.826-0.826H-300.545z M-282.018-45.041
	c-0.043,0.118-0.182,0.319-0.309,0.449c-0.127,0.13-0.326,0.274-0.442,0.319s-0.639-0.336-0.963-0.654l-3.45-3.376
	c-0.324-0.317-0.686-0.614-0.803-0.658c-0.118-0.043-0.645,0.337-0.971,0.653l-0.875,0.849c-0.326,0.316-0.69,0.611-0.809,0.656
	c-0.119,0.043-0.656-0.326-0.99-0.633l-0.925-0.854c-0.333-0.308-0.705-0.594-0.825-0.635c-0.12-0.042-0.646,0.344-0.971,0.662
	l-3.407,3.335c-0.325,0.318-0.686,0.612-0.803,0.656c-0.117,0.042-0.475-0.191-0.603-0.321c-0.127-0.13-0.267-0.331-0.31-0.449
	c-0.042-0.117,0.351-0.632,0.676-0.949l3.353-3.282c0.324-0.317,0.626-0.671,0.669-0.785c0.043-0.114-0.359-0.613-0.694-0.921
	l-3.288-3.033c-0.333-0.307-0.646-0.653-0.695-0.768c-0.049-0.114,0.165-0.484,0.288-0.618c0.124-0.133,0.318-0.282,0.433-0.331
	c0.114-0.049,0.649,0.317,0.983,0.625l6.092,5.62c0.334,0.308,0.706,0.594,0.825,0.636c0.12,0.041,0.647-0.342,0.974-0.658
	l5.734-5.563c0.326-0.316,0.689-0.609,0.806-0.652c0.118-0.042,0.475,0.194,0.602,0.324c0.127,0.13,0.266,0.334,0.308,0.45
	c0.043,0.118-0.354,0.63-0.68,0.947l-3.022,2.933c-0.327,0.316-0.629,0.669-0.674,0.784c-0.046,0.115,0.345,0.628,0.669,0.945
	l3.423,3.35C-282.367-45.671-281.975-45.158-282.018-45.041"/>
<path fill="#878787" d="M-224.051-75.341c1.292,0.828,9.522,9.218,9.83,10.753c0.308,1.535-4.913,6.449-4.914,7.679
	c-0.002,1.229,1.228,3.992,6.757,9.217c5.529,5.223,9.523,7.066,11.059,7.066c1.536,0,5.836-7.066,7.065-6.762
	c1.229,0.31,11.675,7.68,11.675,8.91c0,1.228-7.375,11.369-12.597,11.676c-5.222,0.306-18.125-6.455-26.419-14.44
	c-8.294-7.987-12.901-19.048-12.594-22.118C-233.883-66.433-225.828-76.48-224.051-75.341"/>
<g>
	<path fill="#FFFFFF" d="M-102.001-26.509c0.002,1.167-0.938,2.118-2.107,2.118l-49.682,0.162c-1.165,0.004-2.114-0.938-2.114-2.111
		l-0.154-46.631c0-1.165,0.939-2.116,2.107-2.118l49.682-0.163c1.163-0.002,2.109,0.942,2.115,2.11L-102.001-26.509z
		 M-107.451-68.528c-0.004-0.938-0.769-1.694-1.707-1.688l-39.881,0.123c-0.938,0.004-1.689,0.768-1.689,1.705l0.023,6.363
		c0,0.938,0.767,1.693,1.702,1.69l39.878-0.13c0.938-0.002,1.694-0.762,1.694-1.699L-107.451-68.528z M-143.579-54.825
		c-0.005-0.627-0.513-1.131-1.142-1.126l-4.83,0.012c-0.631,0-1.134,0.516-1.132,1.141l0.013,4.26
		c0.003,0.625,0.513,1.132,1.141,1.132l4.831-0.017c0.631-0.007,1.133-0.513,1.137-1.14L-143.579-54.825z M-132.827-54.889
		c-0.004-0.628-0.512-1.135-1.138-1.135l-4.834,0.02c-0.627,0-1.132,0.511-1.132,1.136l0.014,4.259c0,0.625,0.51,1.136,1.136,1.136
		l4.831-0.015c0.63,0,1.144-0.513,1.139-1.138L-132.827-54.889z M-122.187-54.885c0-0.625-0.512-1.138-1.138-1.135l-4.837,0.015
		c-0.627,0.003-1.132,0.513-1.132,1.143l0.013,4.261c0.009,0.626,0.514,1.133,1.142,1.131l4.83-0.017
		c0.624,0,1.139-0.513,1.139-1.138L-122.187-54.885z M-107.224-54.944c-0.002-0.623-0.515-1.135-1.14-1.131l-9.581,0.034
		c-0.628,0-1.137,0.515-1.13,1.143l0.014,4.258c0.004,0.627,0.508,1.131,1.143,1.131l9.573-0.034
		c0.633-0.002,1.136-0.51,1.136-1.136L-107.224-54.944z M-107.195-45.131c-0.004-0.627-0.507-1.137-1.142-1.132l-9.575,0.029
		c-0.626,0-1.139,0.508-1.134,1.138L-119-30.788c0,0.626,0.514,1.136,1.139,1.134l9.581-0.033c0.629,0,1.13-0.515,1.13-1.14
		L-107.195-45.131z M-143.545-45.018c0-0.625-0.517-1.133-1.144-1.13l-4.828,0.015c-0.633,0.002-1.136,0.51-1.136,1.14l0.017,4.258
		c0.005,0.63,0.511,1.135,1.138,1.132l4.83-0.01c0.624-0.008,1.143-0.521,1.134-1.143L-143.545-45.018z M-132.797-45.082
		c0-0.629-0.514-1.133-1.144-1.133l-4.829,0.017c-0.624,0-1.133,0.512-1.127,1.138l0.008,4.26c0,0.628,0.515,1.135,1.145,1.132
		l4.829-0.017c0.625,0,1.133-0.51,1.133-1.14L-132.797-45.082z M-122.156-45.076c0-0.627-0.511-1.135-1.144-1.13l-4.828,0.012
		c-0.627,0.003-1.134,0.513-1.134,1.144l0.016,4.255c0,0.632,0.512,1.133,1.142,1.133l4.832-0.013
		c0.626-0.005,1.133-0.518,1.13-1.14L-122.156-45.076z M-143.517-34.99c0-0.623-0.513-1.135-1.142-1.129l-4.83,0.012
		c-0.624,0.003-1.134,0.518-1.127,1.141l0.004,4.261c0.005,0.629,0.513,1.134,1.148,1.134l4.828-0.015
		c0.628-0.005,1.132-0.513,1.132-1.14L-143.517-34.99z M-132.763-35.055c-0.005-0.625-0.516-1.133-1.141-1.133l-4.832,0.017
		c-0.63,0.004-1.133,0.511-1.133,1.143l0.012,4.256c0.002,0.627,0.512,1.135,1.137,1.135l4.834-0.017
		c0.628,0,1.135-0.513,1.135-1.141L-132.763-35.055z M-122.122-35.05c0-0.625-0.513-1.136-1.146-1.13l-4.831,0.016
		c-0.625,0.004-1.131,0.511-1.131,1.139l0.018,4.26c0,0.628,0.511,1.136,1.142,1.13l4.825-0.015c0.631-0.002,1.137-0.515,1.137-1.14
		L-122.122-35.05z"/>
	<path fill="#C4D10E" d="M-107.451-68.528c-0.004-0.938-0.769-1.694-1.707-1.688l-39.881,0.123
		c-0.938,0.004-1.689,0.768-1.689,1.705l0.023,6.363c0,0.938,0.767,1.693,1.702,1.69l39.878-0.13
		c0.938-0.002,1.694-0.762,1.694-1.699L-107.451-68.528z"/>
	<path fill="#C4D10E" d="M-143.579-54.825c-0.005-0.627-0.513-1.131-1.142-1.126l-4.83,0.012c-0.631,0-1.134,0.516-1.132,1.141
		l0.013,4.26c0.003,0.625,0.513,1.132,1.141,1.132l4.831-0.017c0.631-0.007,1.133-0.513,1.137-1.14L-143.579-54.825z"/>
	<path fill="#C4D10E" d="M-132.827-54.889c-0.004-0.628-0.512-1.135-1.138-1.135l-4.834,0.02c-0.627,0-1.132,0.511-1.132,1.136
		l0.014,4.259c0,0.625,0.51,1.136,1.136,1.136l4.831-0.015c0.63,0,1.144-0.513,1.139-1.138L-132.827-54.889z"/>
	<path fill="#C4D10E" d="M-122.187-54.885c0-0.625-0.512-1.138-1.138-1.135l-4.837,0.015c-0.627,0.003-1.132,0.513-1.132,1.143
		l0.013,4.261c0.009,0.626,0.514,1.133,1.142,1.131l4.83-0.017c0.624,0,1.139-0.513,1.139-1.138L-122.187-54.885z"/>
	<path fill="#C4D10E" d="M-107.224-54.944c-0.002-0.623-0.515-1.135-1.14-1.131l-9.581,0.034c-0.628,0-1.137,0.515-1.13,1.143
		l0.014,4.258c0.004,0.627,0.508,1.131,1.143,1.131l9.573-0.034c0.633-0.002,1.136-0.51,1.136-1.136L-107.224-54.944z"/>
	<path fill="#C4D10E" d="M-107.195-45.131c-0.004-0.627-0.507-1.137-1.142-1.132l-9.575,0.029c-0.626,0-1.139,0.508-1.134,1.138
		L-119-30.788c0,0.626,0.514,1.136,1.139,1.134l9.581-0.033c0.629,0,1.13-0.515,1.13-1.14L-107.195-45.131z"/>
	<path fill="#C4D10E" d="M-143.545-45.018c0-0.625-0.517-1.133-1.144-1.13l-4.828,0.015c-0.633,0.002-1.136,0.51-1.136,1.14
		l0.017,4.258c0.005,0.63,0.511,1.135,1.138,1.132l4.83-0.01c0.624-0.008,1.143-0.521,1.134-1.143L-143.545-45.018z"/>
	<path fill="#C4D10E" d="M-132.797-45.082c0-0.629-0.514-1.133-1.144-1.133l-4.829,0.017c-0.624,0-1.133,0.512-1.127,1.138
		l0.008,4.26c0,0.628,0.515,1.135,1.145,1.132l4.829-0.017c0.625,0,1.133-0.51,1.133-1.14L-132.797-45.082z"/>
	<path fill="#C4D10E" d="M-122.156-45.076c0-0.627-0.511-1.135-1.144-1.13l-4.828,0.012c-0.627,0.003-1.134,0.513-1.134,1.144
		l0.016,4.255c0,0.632,0.512,1.133,1.142,1.133l4.832-0.013c0.626-0.005,1.133-0.518,1.13-1.14L-122.156-45.076z"/>
	<path fill="#C4D10E" d="M-143.517-34.99c0-0.623-0.513-1.135-1.142-1.129l-4.83,0.012c-0.624,0.003-1.134,0.518-1.127,1.141
		l0.004,4.261c0.005,0.629,0.513,1.134,1.148,1.134l4.828-0.015c0.628-0.005,1.132-0.513,1.132-1.14L-143.517-34.99z"/>
	<path fill="#C4D10E" d="M-132.763-35.055c-0.005-0.625-0.516-1.133-1.141-1.133l-4.832,0.017c-0.63,0.004-1.133,0.511-1.133,1.143
		l0.012,4.256c0.002,0.627,0.512,1.135,1.137,1.135l4.834-0.017c0.628,0,1.135-0.513,1.135-1.141L-132.763-35.055z"/>
	<path fill="#C4D10E" d="M-122.122-35.05c0-0.625-0.513-1.136-1.146-1.13l-4.831,0.016c-0.625,0.004-1.131,0.511-1.131,1.139
		l0.018,4.26c0,0.628,0.511,1.136,1.142,1.13l4.825-0.015c0.631-0.002,1.137-0.515,1.137-1.14L-122.122-35.05z"/>
</g>
<path fill="#C4D10E" d="M-375.018,24.282c0-2.056-1.151-3.618-2.715-3.618c-1.644,0-2.631,1.644-2.631,3.535v0.083
	c0,1.973,1.152,3.617,2.715,3.617C-376.005,27.817-375.018,26.172-375.018,24.282z M-362.85,33.244
	c-1.644,0-2.631,1.644-2.631,3.536v0.083c0,1.973,1.15,3.618,2.713,3.618c1.644,0,2.631-1.645,2.631-3.536v-0.082
	C-360.137,34.807-361.287,33.244-362.85,33.244z M-346.635,30.53c0,13.042-10.573,23.615-23.615,23.615
	s-23.614-10.573-23.614-23.615s10.572-23.614,23.614-23.614S-346.635,17.488-346.635,30.53z M-377.732,30.613
	c3.453,0,5.838-2.96,5.838-6.331V24.2c0-3.371-2.301-6.249-5.754-6.249s-5.838,2.878-5.838,6.332
	C-383.486,27.653-381.186,30.53-377.732,30.613z M-359.562,18.198h-3.452l-17.924,24.665h3.453L-359.562,18.198z M-357.012,36.779
	c0-3.371-2.303-6.249-5.756-6.332c-3.453,0-5.839,2.961-5.839,6.332v0.083c0,3.371,2.304,6.249,5.757,6.249
	S-357.012,40.15-357.012,36.779z"/>
<g>
	<path fill="#FFFFFF" d="M-281.769,36.201c0,3.074-2.422,5.138-6.01,5.442v2.799h-2.462v-2.823c-2.455-0.28-4.743-1.27-6.658-2.792
		l1.806-2.575c1.61,1.303,3.129,2.147,4.971,2.429v-5.536c-4.127-1.074-6.045-2.624-6.045-5.791v-0.056
		c0-3.046,2.399-5.111,5.927-5.392v-1.638h2.462v1.692c2.063,0.259,3.751,0.987,5.308,2.149l-1.581,2.651
		c-1.242-0.931-2.516-1.519-3.842-1.802v5.363c4.292,1.074,6.125,2.799,6.125,5.817V36.201z"/>
	<path fill="#C4D10E" d="M-292.836,27.1v0.059c0,1.162,0.537,1.915,2.712,2.571v-4.974C-291.903,24.902-292.836,25.861-292.836,27.1
		"/>
	<path fill="#C4D10E" d="M-287.894,33.68v5.117c1.781-0.141,2.794-1.051,2.794-2.403v-0.056
		C-285.1,35.094-285.69,34.334-287.894,33.68"/>
</g>
<g>
	<path fill="#C4D10E" d="M-119.43,17.077h1.145c1.104,0,2-0.896,2-2v-3.501c0-1.105-0.896-2-2-2h-1.145c-1.104,0-2,0.895-2,2v3.501
		C-121.43,16.181-120.534,17.077-119.43,17.077z"/>
	<path fill="#C4D10E" d="M-141.983,17.077h1.144c1.104,0,2-0.896,2-2v-3.501c0-1.105-0.896-2-2-2h-1.144c-1.104,0-2,0.895-2,2v3.501
		C-143.983,16.181-143.088,17.077-141.983,17.077z"/>
	<path fill="#C4D10E" d="M-108.12,17.647c0-2.442-1.98-4.423-4.424-4.423h-2.042v3.819c0,0.899-0.729,1.629-1.629,1.629h-5.285
		c-0.899,0-1.629-0.729-1.629-1.629v-3.819h-14.012v3.819c0,0.899-0.729,1.629-1.629,1.629h-5.284c-0.899,0-1.629-0.729-1.629-1.629
		v-3.819h-2.023c-2.443,0-4.424,1.98-4.424,4.423V44.44c0,2.443,1.98,4.424,4.424,4.424h35.162c2.443,0,4.424-1.98,4.424-4.424
		V17.647z"/>
</g>
<g>
	<path fill="#C4D10E" d="M-199.305,17.077h1.145c1.104,0,2-0.896,2-2v-3.501c0-1.105-0.896-2-2-2h-1.145c-1.104,0-2,0.895-2,2v3.501
		C-201.305,16.181-200.409,17.077-199.305,17.077z"/>
	<path fill="#C4D10E" d="M-221.858,17.077h1.144c1.104,0,2-0.896,2-2v-3.501c0-1.105-0.896-2-2-2h-1.144c-1.104,0-2,0.895-2,2v3.501
		C-223.858,16.181-222.963,17.077-221.858,17.077z"/>
	<path fill="#C4D10E" d="M-192.419,13.224h-2.042v3.819c0,0.899-0.729,1.629-1.629,1.629h-5.285c-0.899,0-1.629-0.729-1.629-1.629
		v-3.819h-14.012v3.819c0,0.899-0.729,1.629-1.629,1.629h-5.284c-0.899,0-1.629-0.729-1.629-1.629v-3.819h-2.023
		c-2.443,0-4.424,1.98-4.424,4.423V44.44c0,2.443,1.98,4.424,4.424,4.424h35.162c2.443,0,4.424-1.98,4.424-4.424V17.647
		C-187.995,15.205-189.976,13.224-192.419,13.224z M-199.341,28.605l-11.982,13.135c-0.142,0.154-0.352,0.233-0.561,0.211
		c-0.142-0.015-0.271-0.073-0.377-0.17l-2.286-2.082c-0.085-0.078-0.168-0.153-0.231-0.23l-0.006,0.005
		c-0.022-0.024-0.099-0.095-0.19-0.178l-3.547-3.249c-0.13-0.118-0.206-0.282-0.214-0.461c-0.008-0.178,0.055-0.348,0.175-0.478
		l2.101-2.271c0.241-0.259,0.679-0.276,0.938-0.038l3.467,3.184l9.445-10.354c0.237-0.259,0.675-0.28,0.937-0.045l2.288,2.085
		c0.13,0.119,0.207,0.282,0.215,0.46C-199.161,28.305-199.223,28.474-199.341,28.605z"/>
</g>
<path fill-rule="evenodd" clip-rule="evenodd" fill="#C4D10E" d="M-471.507,120.59c-0.122-0.207-0.244-0.415-0.364-0.622
	c0.003-0.014,0.013-0.03,0.009-0.042c-0.245-0.762-0.069-1.461,0.317-2.132c0.4-0.698,0.948-1.271,1.551-1.793
	c0.61-0.53,0.667-1.834-0.279-2.203c-1.456-0.568-2.844-1.307-4.267-1.96c-0.779-0.358-1.077-1.113-0.743-1.9
	c0.459-1.082,0.902-2.172,1.357-3.256c0.157-0.373,0.305-0.753,0.504-1.103c0.395-0.692,1.138-0.769,1.685-0.2
	c0.14,0.148,0.274,0.299,0.405,0.454c0.411,0.486,0.796,0.997,1.232,1.458c0.457,0.486,1.034,0.725,1.71,0.56
	c0.258-0.064,0.508-0.18,0.745-0.304c1.649-0.877,2.263-2.491,1.75-4.244c-0.189-0.648-0.513-1.214-1.207-1.395
	c-0.411-0.106-0.859-0.115-1.288-0.1c-0.68,0.023-1.357,0.119-2.037,0.151c-0.535,0.024-0.891-0.348-0.948-0.881
	c-0.054-0.503,0.19-0.915,0.369-1.347c0.458-1.108,0.938-2.206,1.386-3.317c0.378-0.942,1.087-1.305,1.968-0.973
	c1.529,0.576,3.06,1.15,4.589,1.723c0.25,0.093,0.496,0.086,0.741-0.036c0.401-0.2,0.854-0.766,0.813-1.445
	c-0.058-0.955-0.013-1.907,0.381-2.801c0.353-0.801,0.95-1.312,1.843-1.38c1.249-0.095,2.354,0.377,3.399,0.983
	c0.399,0.232,0.727,0.588,1.089,0.887c0.091,0.156,0.183,0.312,0.273,0.467c0.3,0.894,0.064,1.696-0.431,2.446
	c-0.366,0.554-0.826,1.025-1.327,1.459c-0.437,0.379-0.614,0.875-0.591,1.443c0.012,0.323,0.151,0.565,0.471,0.701
	c0.717,0.305,1.425,0.627,2.138,0.941c0.788,0.348,1.58,0.687,2.363,1.045c0.681,0.312,0.946,1.073,0.653,1.765
	c-0.347,0.814-0.676,1.634-1.02,2.448c-0.221,0.524-0.426,1.058-0.687,1.562c-0.356,0.688-1.035,0.753-1.554,0.194
	c-0.488-0.527-0.968-1.065-1.498-1.55c-0.314-0.287-0.698-0.519-1.086-0.702c-0.684-0.322-1.354-0.204-1.951,0.238
	c-0.764,0.565-1.33,1.324-1.688,2.181c-0.352,0.843-0.488,1.767-0.362,2.692c0.085,0.61,0.379,1.112,0.937,1.436
	c0.391,0.229,0.815,0.367,1.255,0.383c0.844,0.029,1.689,0.011,2.535,0.004c0.487-0.004,0.813,0.229,0.878,0.708
	c0.028,0.208,0.006,0.441-0.063,0.64c-0.155,0.444-0.35,0.875-0.535,1.31c-0.384,0.91-0.759,1.826-1.164,2.728
	c-0.291,0.646-1.039,0.913-1.69,0.652c-1.516-0.607-3.035-1.208-4.55-1.817c-0.228-0.091-0.447-0.085-0.645,0.043
	c-0.485,0.314-0.746,0.772-0.778,1.345c-0.037,0.634-0.014,1.273-0.075,1.905c-0.056,0.586-0.265,1.137-0.631,1.612
	c-0.569,0.737-1.361,0.902-2.217,0.779c-0.99-0.143-1.904-0.527-2.738-1.078C-470.907,121.131-471.198,120.845-471.507,120.59z"/>
<path fill-rule="evenodd" clip-rule="evenodd" fill="#C4D10E" d="M-452.544,108.907c0.208-0.12,0.417-0.241,0.623-0.362
	c0.015,0.004,0.031,0.014,0.042,0.01c0.763-0.243,1.461-0.065,2.132,0.321c0.698,0.402,1.268,0.951,1.79,1.555
	c0.529,0.611,1.833,0.67,2.204-0.275c0.571-1.455,1.312-2.841,1.968-4.263c0.359-0.778,1.115-1.074,1.902-0.738
	c1.081,0.461,2.17,0.906,3.254,1.364c0.373,0.156,0.752,0.306,1.101,0.506c0.69,0.396,0.767,1.139,0.196,1.686
	c-0.147,0.14-0.298,0.273-0.453,0.403c-0.489,0.409-0.999,0.794-1.462,1.229c-0.486,0.456-0.726,1.033-0.563,1.709
	c0.063,0.258,0.178,0.51,0.303,0.746c0.874,1.651,2.486,2.268,4.241,1.759c0.647-0.189,1.214-0.512,1.396-1.204
	c0.108-0.411,0.116-0.859,0.103-1.288c-0.021-0.68-0.117-1.357-0.147-2.038c-0.023-0.534,0.35-0.89,0.883-0.946
	c0.503-0.053,0.914,0.192,1.346,0.372c1.107,0.459,2.205,0.943,3.315,1.392c0.941,0.379,1.302,1.089,0.968,1.971
	c-0.579,1.527-1.156,3.056-1.731,4.584c-0.093,0.25-0.087,0.496,0.034,0.74c0.199,0.402,0.765,0.856,1.443,0.816
	c0.957-0.056,1.907-0.009,2.801,0.387c0.8,0.354,1.31,0.953,1.376,1.845c0.092,1.25-0.382,2.354-0.99,3.397
	c-0.234,0.399-0.589,0.727-0.89,1.087c-0.156,0.091-0.312,0.183-0.467,0.273c-0.895,0.299-1.697,0.062-2.447-0.437
	c-0.552-0.367-1.022-0.828-1.456-1.329c-0.378-0.438-0.873-0.616-1.441-0.594c-0.323,0.012-0.567,0.15-0.703,0.469
	c-0.306,0.716-0.629,1.425-0.944,2.137c-0.35,0.787-0.689,1.579-1.05,2.361c-0.313,0.679-1.075,0.944-1.766,0.648
	c-0.813-0.348-1.632-0.679-2.446-1.024c-0.523-0.222-1.057-0.428-1.561-0.689c-0.687-0.357-0.75-1.037-0.19-1.554
	c0.528-0.488,1.068-0.966,1.552-1.496c0.288-0.313,0.521-0.697,0.705-1.084c0.323-0.682,0.206-1.353-0.234-1.952
	c-0.565-0.765-1.322-1.332-2.178-1.691c-0.843-0.354-1.766-0.492-2.691-0.368c-0.611,0.083-1.112,0.378-1.438,0.934
	c-0.229,0.39-0.368,0.813-0.385,1.254c-0.03,0.844-0.015,1.689-0.009,2.534c0.003,0.488-0.231,0.813-0.709,0.877
	c-0.208,0.028-0.441,0.005-0.639-0.064c-0.444-0.155-0.875-0.351-1.31-0.536c-0.91-0.387-1.824-0.763-2.725-1.17
	c-0.645-0.292-0.911-1.04-0.648-1.691c0.611-1.515,1.214-3.033,1.826-4.547c0.091-0.227,0.087-0.447-0.042-0.646
	c-0.313-0.485-0.771-0.747-1.344-0.78c-0.634-0.038-1.272-0.016-1.904-0.079c-0.587-0.057-1.136-0.267-1.611-0.634
	c-0.735-0.571-0.9-1.363-0.774-2.219c0.145-0.989,0.53-1.902,1.083-2.735C-453.085,109.508-452.799,109.217-452.544,108.907z"/>
<g>
	<path fill="#C4D10E" d="M-365.802,114.03c-0.199-0.064-1.443-0.625-0.665-2.991h-0.012c2.028-2.088,3.578-5.447,3.578-8.754
		c0-5.086-3.383-7.752-7.314-7.752c-3.931,0-7.295,2.666-7.295,7.752c0,3.322,1.542,6.694,3.579,8.778
		c0.793,2.084-0.626,2.859-0.923,2.967c-4.118,1.489-8.945,4.202-8.945,6.881v1.003c0,3.649,7.076,4.479,13.624,4.479
		c6.559,0,13.543-0.83,13.543-4.479v-1.003C-356.632,118.15-361.483,115.459-365.802,114.03"/>
	<path fill="#C4D10E" d="M-351.143,109.964c-0.175-0.055-1.263-0.547-0.583-2.616h-0.007c1.773-1.827,3.129-4.771,3.129-7.667
		c0-4.454-2.961-6.788-6.401-6.788c-3.447,0-6.39,2.334-6.39,6.788c0,2.907,1.346,5.86,3.134,7.685
		c0.695,1.825-0.549,2.504-0.808,2.599c-3.606,1.301-7.834,3.68-7.834,6.025v0.88c0,3.195,6.194,3.922,11.93,3.922
		c5.742,0,11.86-0.727,11.86-3.922v-0.88C-343.113,113.572-347.362,111.216-351.143,109.964"/>
	<path fill="#C4D10E" d="M-381.628,109.964c-0.173-0.055-1.261-0.547-0.581-2.616h-0.01c1.774-1.827,3.13-4.771,3.13-7.667
		c0-4.454-2.959-6.788-6.402-6.788c-3.444,0-6.388,2.334-6.388,6.788c0,2.907,1.347,5.86,3.133,7.685
		c0.695,1.825-0.548,2.504-0.809,2.599c-3.604,1.301-7.833,3.68-7.833,6.025v0.88c0,3.195,6.194,3.922,11.93,3.922
		c5.742,0,11.86-0.727,11.86-3.922v-0.88C-373.596,113.572-377.847,111.216-381.628,109.964"/>
</g>
<path fill-rule="evenodd" clip-rule="evenodd" fill="#C4D10E" d="M-303.667,97.147c0.925,1.87,1.741,3.548,2.583,5.213
	c1.417,2.803,2.851,5.597,4.276,8.396c2.212,4.345,0.879,8.507-3.461,10.816c-4.653,2.475-10.671,0.346-12.7-4.509
	c-0.766-1.833-0.827-3.562,0.187-5.443c2.46-4.563,4.726-9.23,7.063-13.858c0.062-0.122,0.048-0.282,0.086-0.539 M-274.494,97.189
	c2.283,4.495,4.512,8.893,6.748,13.288c1.905,3.744,1.722,6.22-0.676,8.969c-2.487,2.853-6.347,3.872-9.973,2.634
	c-3.281-1.12-5.912-4.369-6.039-7.648c-0.029-0.745,0.292-1.561,0.636-2.252c2.148-4.315,4.353-8.603,6.53-12.903
	c0.321-0.633,0.597-1.29,0.982-2.129 M-267.764,113.406c-2.595-4.97-4.998-9.574-7.602-14.563
	c-2.648,5.112-5.037,9.723-7.544,14.563C-277.72,113.406-272.938,113.406-267.764,113.406z M-312.096,113.351
	c5.162,0,9.974,0,15.088,0c-2.544-4.896-4.948-9.52-7.542-14.511C-307.148,103.837-309.552,108.459-312.096,113.351z"/>
<path fill="#C4D10E" d="M-266.455,95.49c0,0.911-0.729,1.657-1.618,1.657h-43.855c-0.889,0-1.618-0.746-1.618-1.657
	s0.729-1.657,1.618-1.657h43.855C-267.183,93.833-266.455,94.58-266.455,95.49"/>
<path fill="#C4D10E" d="M-290,129.5c-0.911,0-1.657-0.548-1.657-1.217V95.287c0-0.669,0.746-1.217,1.657-1.217
	s1.657,0.548,1.657,1.217v32.996C-288.343,128.952-289.089,129.5-290,129.5"/>
<g>
	<path fill="#FFFFFF" d="M-290,96.148c-0.363,0-0.658-0.294-0.658-0.658c0-0.364,0.295-0.659,0.658-0.659
		c0.364,0,0.659,0.295,0.659,0.659C-289.341,95.854-289.637,96.148-290,96.148"/>
</g>
<path fill="none" stroke="#C4D10E" stroke-width="4.1777" stroke-linecap="round" stroke-linejoin="round" stroke-miterlimit="10" d="
	M-204.144,90.928c-5.55,0-10.175,6.396-10.175,6.396s-4.616-6.396-10.161-6.396c-6.298,0-10.719,4.155-10.719,10.694
	c0,10.951,13.328,16.404,20.824,25.277h0.118c7.5-8.873,20.83-14.326,20.83-25.277C-193.426,95.083-197.849,90.928-204.144,90.928z"
	/>
<path fill="#C4D10E" d="M-189.156,106.319c-2.854-0.953-5.971,0.277-7.776,1.234c-0.879-1.849-2.64-4.697-5.494-5.644
	c-4.922-1.634-9.496,0.656-11.127,5.565c-1.797,5.41,1.309,10.325,4.315,15.079c1.415,2.245,2.882,4.566,3.821,6.915
	c0.158,0.393,0.481,0.697,0.879,0.829l0.082,0.024c0.399,0.137,0.842,0.083,1.198-0.139c2.158-1.315,4.728-2.298,7.203-3.246
	c5.258-2.009,10.684-4.089,12.48-9.502C-181.937,112.525-184.237,107.953-189.156,106.319"/>
<circle fill="#C4D10E" cx="-451.419" cy="178.494" r="12.084"/>
<g>
	<path fill="#C4D10E" d="M-437.834,201.693l9.871-0.795l-5.615-5.615c-1.367-1.367-3.279-1.841-5.035-1.446
		c-0.175-0.013-0.349-0.026-0.526-0.026h-1.479L-437.834,201.693z"/>
	<path fill="#C4D10E" d="M-452.724,202.894l2.644-0.213v-8.87h-15.178c-3.916,0-7.092,3.176-7.092,7.092v5.985
		c0,1.094,0.887,1.98,1.98,1.98h12.493c-0.007-0.119-0.034-0.232-0.034-0.354C-457.91,205.575-455.653,203.129-452.724,202.894z"/>
	<path fill="#C4D10E" d="M-429.313,202.787l-7.91,0.638l3.512,9.942l4.577,0.217c3.085,0.146,5.666-2.315,5.666-5.404
		C-423.468,205.021-426.163,202.533-429.313,202.787z"/>
	<path fill="#C4D10E" d="M-450.08,204.461l-2.171,0.175c-2.045,0.164-3.622,1.873-3.622,3.926c0,2.103,1.652,3.834,3.752,3.934
		l2.041,0.097V204.461z"/>
</g>
<rect x="-400.223" y="222.861" fill="none" width="60" height="7.5"/>
<text transform="matrix(1 0 0 1 -400.2231 228.5405)" fill="#FFFFFF" font-family="'MyriadPro-Regular'" font-size="8">Psych/rehab</text>
<rect x="-480.08" y="222.861" fill="none" width="60" height="7.5"/>
<text transform="matrix(1 0 0 1 -480.0801 228.5405)" fill="#FFFFFF" font-family="'MyriadPro-Regular'" font-size="8">Accident Cover</text>
<rect x="-480.08" y="62.333" fill="none" width="60" height="7.5"/>
<text transform="matrix(1 0 0 1 -480.0801 65.1733)" fill="#FFFFFF" font-family="'MyriadPro-Regular'" font-size="4">Choose how and when you repay</text>
<rect x="-400.25" y="62.333" fill="none" width="60" height="7.5"/>
<text transform="matrix(1 0 0 1 -400.2495 65.1733)" fill="#FFFFFF" font-family="'MyriadPro-Regular'" font-size="4">Only pay interest when you use it</text>
<rect x="-480.08" y="-17.667" fill="none" width="60" height="7.5"/>
<text transform="matrix(1 0 0 1 -480.0801 -14.8267)" fill="#FFFFFF" font-family="'MyriadPro-Regular'" font-size="4">Register for online banking</text>
<rect x="-400" y="-17.667" fill="none" width="60" height="7.5"/>
<text transform="matrix(1 0 0 1 -400 -14.8267)" fill="#FFFFFF" font-family="'MyriadPro-Regular'" font-size="4">Get a health insurance quote</text>
<rect x="-320.746" y="-17.667" fill="none" width="60" height="7.5"/>
<text transform="matrix(1 0 0 1 -320.7456 -14.8267)" fill="#FFFFFF" font-family="'MyriadPro-Regular'" font-size="4">Report a hoax or susp. Email</text>
<rect x="-240" y="-17.667" fill="none" width="60" height="7.5"/>
<text transform="matrix(1 0 0 1 -240 -14.8267)" fill="#FFFFFF" font-family="'MyriadPro-Regular'" font-size="4">Account inquiries</text>
<rect x="-160" y="-17.667" fill="none" width="60" height="7.5"/>
<text transform="matrix(1 0 0 1 -160 -14.8267)" fill="#FFFFFF" font-family="'MyriadPro-Regular'" font-size="4">Calculator white</text>
<rect x="-80.25" y="-17.667" fill="none" width="60" height="7.5"/>
<text transform="matrix(1 0 0 1 -80.25 -14.8267)" fill="#FFFFFF" font-family="'MyriadPro-Regular'" font-size="4">Extra repayments</text>
<rect x="1.124" y="-17.667" fill="none" width="60" height="7.5"/>
<text transform="matrix(1 0 0 1 1.124 -14.8267)" fill="#FFFFFF" font-family="'MyriadPro-Regular'" font-size="4">Flexible repayments</text>
<rect x="80.209" y="-17.667" fill="none" width="60" height="7.5"/>
<text transform="matrix(1 0 0 1 80.209 -14.8267)" fill="#FFFFFF" font-family="'MyriadPro-Regular'" font-size="4">Make repayments more affordable</text>
<rect x="-320" y="62.333" fill="none" width="60" height="7.5"/>
<text transform="matrix(1 0 0 1 -320 65.1733)" fill="#FFFFFF" font-family="'MyriadPro-Regular'" font-size="4">Low monthly fee</text>
<rect x="-240" y="62.333" fill="none" width="60" height="7.5"/>
<text transform="matrix(1 0 0 1 -240 65.1733)" fill="#FFFFFF" font-family="'MyriadPro-Regular'" font-size="4">No monthly fee</text>
<rect x="-159.293" y="62.333" fill="none" width="60" height="7.5"/>
<text transform="matrix(1 0 0 1 -159.293 65.1733)" fill="#FFFFFF" font-family="'MyriadPro-Regular'" font-size="4">Interest calcul. on daily balances</text>
<rect x="-400" y="142.777" fill="none" width="60" height="7.5"/>
<text transform="matrix(1 0 0 1 -400 148.457)" fill="#FFFFFF" font-family="'MyriadPro-Regular'" font-size="8">Life at CUA</text>
<rect x="-480" y="142.777" fill="none" width="60" height="7.5"/>
<text transform="matrix(1 0 0 1 -480 148.457)" fill="#FFFFFF" font-family="'MyriadPro-Regular'" font-size="8">CUA difference</text>
<rect x="-240" y="142.777" fill="none" width="60" height="7.5"/>
<text transform="matrix(1 0 0 1 -240 148.457)" fill="#FFFFFF" font-family="'MyriadPro-Regular'" font-size="8">Community Care</text>
<rect x="-320.659" y="142.777" fill="none" width="60" height="7.5"/>
<text transform="matrix(1 0 0 1 -320.6587 148.457)" fill="#FFFFFF" font-family="'MyriadPro-Regular'" font-size="8">Corp. governance</text>
<rect x="-561.659" y="-56.429" fill="none" width="60" height="7.5"/>
<text transform="matrix(1 0 0 1 -561.6587 -50.7495)" fill="#FFFFFF" font-family="'MyriadPro-Regular'" font-size="8">Contact Us + misc</text>
<rect x="-561.659" y="27.294" fill="none" width="60" height="7.5"/>
<text transform="matrix(1 0 0 1 -561.6587 32.9736)" fill="#FFFFFF" font-family="'MyriadPro-Regular'" font-size="8">Overdrafts</text>
<rect x="-561.659" y="105.164" fill="none" width="60" height="7.5"/>
<text transform="matrix(1 0 0 1 -561.6587 110.8438)" fill="#FFFFFF" font-family="'MyriadPro-Regular'" font-size="8">About us section</text>
<rect x="-561.659" y="183.476" fill="none" width="60" height="7.5"/>
<text transform="matrix(1 0 0 1 -561.6587 189.1553)" fill="#FFFFFF" font-family="'MyriadPro-Regular'" font-size="8">Health</text>
<rect x="-561.659" y="266.1" fill="none" width="60" height="7.5"/>
<text transform="matrix(1 0 0 1 -561.6587 271.7793)" fill="#FFFFFF" font-family="'MyriadPro-Regular'" font-size="8">Health</text>
<rect x="-561.659" y="348.985" fill="none" width="60" height="7.5"/>
<text transform="matrix(1 0 0 1 -561.6587 354.665)" fill="#FFFFFF" font-family="'MyriadPro-Regular'" font-size="8">Health</text>
<rect x="-561.659" y="426.25" fill="none" width="60" height="7.5"/>
<text transform="matrix(1 0 0 1 -561.6587 431.9297)" fill="#FFFFFF" font-family="'MyriadPro-Regular'" font-size="8">Updated icons</text>
<rect x="-320" y="222.861" fill="none" width="60" height="7.5"/>
<text transform="matrix(1 0 0 1 -320.0005 228.5405)" fill="#FFFFFF" font-family="'MyriadPro-Regular'" font-size="8">Other medical</text>
<path fill="#C4D10E" d="M-346.974,187.882c0.309-0.8,0.484-1.666,0.484-2.574c0-3.953-3.204-7.157-7.157-7.157
	c-0.524,0-1.035,0.061-1.527,0.167c-0.933-2.868-3.625-4.942-6.804-4.942c-1.737,0-3.329,0.619-4.568,1.648
	c-1.301-1.796-3.408-2.969-5.796-2.969c-2.254,0-4.263,1.044-5.574,2.674c-1.071-0.639-2.319-1.013-3.657-1.013
	c-3.398,0-6.237,2.37-6.969,5.547c-0.063-0.002-0.125-0.01-0.188-0.01c-3.953,0-7.157,3.204-7.157,7.157s3.204,7.157,7.157,7.157
	c1.612,0,3.096-0.54,4.293-1.44c1.105,1.666,2.994,2.767,5.145,2.767c1.511,0,2.877-0.564,3.95-1.466
	c0.718,2.436,2.693,4.325,5.176,4.926l-0.015,0.052c0,0,7.519,6.604,7.519,14.428c1.041,0,2.012,0,2.895,0v-9.754
	c-0.008-0.039-0.313-3.116,1.443-5.069c0.917-1.019,2.192-1.536,3.79-1.536c1.255,0,2.227-0.346,2.886-1.03
	c0.263-0.272,0.457-0.581,0.605-0.892c-0.75-0.655-2.635-2.032-4.624-1.327c-0.457,0.158-0.944-0.076-1.104-0.525
	s0.076-0.943,0.525-1.104c2.333-0.826,4.412,0.206,5.646,1.098c0.002-0.071,0.003-0.121,0.003-0.123l-0.004-0.101l0.02-0.098
	c0.011-0.06,0.273-1.614-0.895-3.01c-1.278-1.529-3.865-2.336-7.479-2.336c-0.172,0-0.33-0.014-0.497-0.018
	c-0.021,0.001-0.042,0.015-0.063,0.015c-0.025,0-0.048-0.018-0.073-0.02c-2.038-0.067-3.757-0.446-5.121-1.155
	c-1.067,0.759-3.877,3.19-2.81,7.203c0.123,0.462-0.151,0.935-0.612,1.058c-0.074,0.021-0.149,0.03-0.223,0.03
	c-0.382,0-0.731-0.257-0.834-0.643c-1.091-4.102,1.094-7.15,2.982-8.686c-0.277-0.249-0.539-0.513-0.77-0.803
	c-0.234-0.296-0.43-0.602-0.6-0.909c-0.493,0.065-1.48,0.172-2.671,0.172c-1.22,0-2.643-0.13-3.959-0.516
	c-1.141,1.401-4.917,5.392-9.903,3.824c-4.568-1.433-6.063,1.555-6.125,1.684c-0.148,0.31-0.457,0.49-0.779,0.49
	c-0.125,0-0.253-0.027-0.373-0.086c-0.43-0.206-0.611-0.723-0.404-1.152c0.02-0.041,1.854-3.702,6.702-2.93
	c0.115-0.486,0.063-1.305-1.134-2.135c-0.392-0.271-0.489-0.81-0.217-1.202c0.271-0.392,0.81-0.491,1.203-0.217
	c1.865,1.294,2.089,2.849,1.837,3.943c3.431,0.952,6.284-1.576,7.504-2.915c-0.97-0.563-1.758-1.367-2.165-2.52
	c-0.159-0.449,0.077-0.943,0.526-1.103c0.451-0.155,0.944,0.076,1.103,0.526c0.95,2.691,5.723,2.745,8.197,2.474
	c-0.506-1.966-0.123-3.7-0.1-3.804c0.108-0.465,0.579-0.756,1.037-0.646c0.465,0.108,0.754,0.572,0.646,1.037
	c-0.006,0.025-0.617,2.854,1.036,4.92c0.997,1.246,2.635,1.992,4.862,2.246c-0.314-1.552-0.07-3.655,2.126-5.131
	c0.396-0.268,0.934-0.159,1.199,0.234c0.267,0.396,0.16,0.934-0.235,1.199c-1.839,1.236-1.557,2.968-1.275,3.804
	c4.216,0.003,7.182,1.009,8.813,2.989c0.176,0.213,0.324,0.43,0.457,0.646c0.245-0.13,0.545-0.337,0.803-0.665
	c0.299-0.373,0.84-0.437,1.215-0.143c0.374,0.297,0.438,0.84,0.143,1.215c-0.486,0.616-1.048,0.98-1.496,1.196
	c0.239,0.979,0.172,1.786,0.132,2.064c0,0.472-0.089,2.541-1.534,4.041c-0.998,1.036-2.388,1.562-4.131,1.562
	c-1.101,0-1.918,0.313-2.501,0.957c-1.241,1.374-1.011,3.806-1.008,3.829l0.004,9.844c1.914,0,3.099,0,3.099,0
	s-0.508-5.486,4.979-10.973c2.414-2.414,3.509-3.687,3.979-4.355c0.892-1.193,1.425-2.668,1.425-4.272
	C-344.559,191.102-345.495,189.193-346.974,187.882z"/>
<path fill="#C4D10E" d="M-270.967,174.365c-5.083-5.083-13.328-5.083-18.411,0l-1.304,1.299l-0.008-0.008l-0.008,0.008l-1.304-1.299
	c-5.083-5.083-13.328-5.083-18.411,0c-5.086,5.086-5.086,13.328,0,18.414c0,0,12.654,12.674,17.733,17.791
	c1.097,1.104,2.882,1.104,3.979,0c5.079-5.117,17.733-17.791,17.733-17.791C-265.881,187.693-265.881,179.451-270.967,174.365z
	 M-284.321,191.024h-4.951v4.951c0,0.783-0.634,1.417-1.417,1.417s-1.417-0.634-1.417-1.417v-4.951h-4.952
	c-0.783,0-1.417-0.634-1.417-1.417s0.634-1.417,1.417-1.417h4.952v-4.952c0-0.783,0.634-1.417,1.417-1.417s1.417,0.634,1.417,1.417
	v4.952h4.951c0.783,0,1.417,0.634,1.417,1.417S-283.538,191.024-284.321,191.024z"/>
<rect x="-160.125" y="222.861" fill="none" width="60" height="7.5"/>
<text transform="matrix(1 0 0 1 -160.125 228.5405)" fill="#FFFFFF" font-family="'MyriadPro-Regular'" font-size="8">Obstetrics</text>
<rect x="-80.25" y="222.861" fill="none" width="60" height="7.5"/>
<text transform="matrix(1 0 0 1 -80.25 228.5405)" fill="#FFFFFF" font-family="'MyriadPro-Regular'" font-size="8">Dental</text>
<rect y="222.861" fill="none" width="60" height="7.5"/>
<text transform="matrix(1 0 0 1 0 228.5405)" fill="#FFFFFF" font-family="'MyriadPro-Regular'" font-size="8">Optical</text>
<rect x="-240" y="222.861" fill="none" width="60" height="7.5"/>
<text transform="matrix(1 0 0 1 -240 228.5405)" fill="#FFFFFF" font-family="'MyriadPro-Regular'" font-size="8">Pre-existing</text>
<path fill="#C4D10E" d="M-110.402,174.365c-5.083-5.083-13.328-5.083-18.411,0l-1.304,1.299l-0.008-0.008l-0.008,0.008l-1.303-1.299
	c-5.084-5.083-13.329-5.083-18.412,0c-5.085,5.086-5.085,13.328,0,18.414c0,0,12.654,12.674,17.733,17.791
	c1.098,1.104,2.882,1.104,3.979,0c5.079-5.117,17.733-17.791,17.733-17.791C-105.316,187.693-105.316,179.451-110.402,174.365z
	 M-123.397,191.675c-0.578,0.584-3.666,3.675-4.288,4.293c-1.728,1.736-4.53,1.734-6.271,0.006
	c-0.561-0.566-0.908-1.248-1.149-1.952c-0.309-0.904-0.73-2.579-0.853-3.074c-0.02-0.078-0.097-0.124-0.175-0.104
	c-0.864,0.231-2.08,0.466-2.952,0.714c-0.834,0.229-1.703-0.255-1.938-1.09c-0.236-0.836,0.258-1.7,1.09-1.937
	c1.321-0.363,4.958-1.316,4.958-1.316c1.114-0.31,2.267,0.328,2.576,1.446l0.657,2.798c0.045,0.188,0.279,0.256,0.416,0.118
	l2.707-2.709c0.104-0.104,0.096-0.272-0.017-0.365l-1.562-1.292c-0.342-0.243-0.563-0.61-0.622-1.025l-0.537-3.864
	c-0.118-0.836,0.46-1.604,1.298-1.72c0.21-0.03,0.408-0.02,0.6,0.031c0.575,0.153,1.045,0.635,1.137,1.26
	c0,0,0.247,1.818,0.39,2.857c0.032,0.231,0.155,0.438,0.345,0.575c1.144,0.826,3.941,2.848,3.941,2.848
	C-123.465,188.31-121.831,189.652-123.397,191.675z M-120.111,186.176c-1.314,1.314-3.445,1.326-4.762,0.011
	c-1.323-1.313-1.338-3.444-0.021-4.766c0.902-0.904,2.202-1.194,3.349-0.857c0.521,0.153,1.013,0.44,1.424,0.851
	C-118.803,182.729-118.799,184.855-120.111,186.176z"/>
<path fill="#C4D10E" d="M-191.097,174.923c-5.083-5.084-13.328-5.084-18.411,0l-1.304,1.298l-0.008-0.007l-0.008,0.007l-1.304-1.298
	c-5.083-5.084-13.328-5.084-18.411,0c-5.086,5.085-5.086,13.328,0,18.414c0,0,12.654,12.674,17.733,17.79
	c1.098,1.105,2.882,1.105,3.979,0c5.079-5.116,17.733-17.79,17.733-17.79C-186.011,188.251-186.011,180.008-191.097,174.923z
	 M-198.269,191.511h-6.311c-0.63,0-1.185-0.415-1.36-1.02l-1.083-3.712l-2.614,9.439c-0.161,0.58-0.67,0.995-1.27,1.036
	c-0.032,0.002-0.065,0.003-0.098,0.003c-0.563,0-1.076-0.334-1.301-0.856l-2.931-6.807l-0.686,1.444
	c-0.234,0.494-0.732,0.81-1.28,0.81h-5.898c-0.783,0-1.417-0.633-1.417-1.417c0-0.783,0.634-1.417,1.417-1.417h5.002l1.645-3.467
	c0.238-0.504,0.752-0.787,1.306-0.81c0.557,0.01,1.057,0.345,1.276,0.856l2.577,5.986l2.869-10.361
	c0.169-0.61,0.723-1.035,1.356-1.039c0.654-0.011,1.192,0.412,1.37,1.02l2.182,7.477h5.248c0.783,0,1.417,0.634,1.417,1.417
	S-197.485,191.511-198.269,191.511z"/>
<path fill="#C4D10E" d="M-68.363,179.178c-0.851,3.976,2.375,9.291,3.689,11.003l0.065,0.093c0.207,0.318,5.053,7.898,5.053,16.103
	c0,1.801,0.454,2.773,0.835,3.271c0.375,0.491,0.858,0.751,1.397,0.751c1.352,0,2.749-1.505,2.749-4.022
	c0-6.863,2.587-8.538,4.891-8.672c0.044-0.004,0.086-0.014,0.131-0.014c0.03,0,0.062,0.004,0.093,0.004
	c0.03,0,0.063-0.004,0.093-0.004c0.045,0,0.087,0.01,0.13,0.014c2.304,0.134,4.891,1.809,4.891,8.672
	c0,2.518,1.398,4.022,2.749,4.022c0.54,0,1.023-0.26,1.398-0.751c0.381-0.498,0.835-1.471,0.835-3.271
	c0-8.204,4.846-15.784,5.053-16.103c0.245-0.369,5.662-8.696-0.971-15.33c-4.024-4.023-11.244-1.579-14.902,0.063
	c2.063,1.218,4.024,2.282,5.888,2.282c0.783,0,1.417,0.634,1.417,1.417s-0.634,1.417-1.417,1.417c-2.829,0-5.437-1.549-7.959-3.047
	c-0.508-0.301-1.012-0.601-1.515-0.888c-0.002-0.001-0.004-0.003-0.006-0.004c-3.469-1.979-6.915-3.387-11.349-0.996
	C-66.939,176.168-67.999,177.473-68.363,179.178z"/>
<path fill="#C4D10E" d="M47.977,195.942c-1.389-6.769-4.682-19.721-9.793-21.349c-1.103-0.354-2.8-0.388-4.625,1.438
	c-0.554,0.554-0.554,1.45,0,2.004c0.553,0.555,1.451,0.555,2.004,0c0.986-0.985,1.55-0.81,1.761-0.741
	c2.544,0.811,5.207,8.146,7.011,15.44c-1.05-0.478-2.212-0.75-3.44-0.75c-3.638,0-6.724,2.336-7.859,5.586
	c-0.89-0.477-1.933-0.795-3.141-0.795c-1.209,0-2.25,0.322-3.138,0.802c-1.135-3.254-4.222-5.593-7.862-5.593
	c-1.229,0-2.392,0.273-3.441,0.751c1.804-7.294,4.469-14.631,7.013-15.441c0.212-0.068,0.773-0.244,1.761,0.741
	c0.553,0.555,1.451,0.555,2.004,0c0.554-0.554,0.554-1.45,0-2.004c-1.824-1.823-3.522-1.794-4.625-1.438
	c-5.111,1.628-8.404,14.579-9.793,21.349c-0.788,1.272-1.251,2.769-1.251,4.376c0,4.603,3.731,8.333,8.333,8.333
	c4.48,0,8.123-3.537,8.315-7.97c0.699-0.595,1.591-1.072,2.685-1.072c1.085,0,1.983,0.477,2.686,1.075
	c0.193,4.431,3.836,7.967,8.314,7.967c4.603,0,8.334-3.73,8.334-8.333C49.228,198.711,48.765,197.216,47.977,195.942z
	 M23.388,205.153c-1.949,1.95-4.857,2.347-7.204,1.204l8.408-8.408C25.734,200.296,25.338,203.204,23.388,205.153z M45.388,205.153
	c-1.949,1.95-4.857,2.347-7.204,1.204l8.408-8.408C47.734,200.296,47.338,203.204,45.388,205.153z"/>
<rect x="80" y="222.861" fill="none" width="60" height="7.5"/>
<text transform="matrix(1 0 0 1 80 228.5405)" fill="#FFFFFF" font-family="'MyriadPro-Regular'" font-size="8">Hearing aid</text>
<path fill="#C4D10E" d="M125.73,184.641c0-8.707-7.059-15.767-15.766-15.767c-8.708,0-15.767,7.06-15.767,15.767v16.449h0.056
	c-0.032,0.366-0.056,0.736-0.056,1.111c0,6.77,5.488,12.258,12.259,12.258c6.77,0,12.258-5.488,12.258-12.258
	c0-1.413-0.251-2.765-0.691-4.028C122.633,195.422,125.73,190.4,125.73,184.641z M101.87,199.597
	c0.058,0.397-0.219,0.77-0.617,0.827c-0.035,0.005-0.071,0.008-0.106,0.008c-0.356,0-0.667-0.261-0.721-0.624
	c-0.052-0.354-0.078-0.718-0.078-1.087c0-4.108,3.342-7.451,7.451-7.451c0.684,0,1.362,0.093,2.016,0.276
	c0.388,0.108,0.614,0.512,0.506,0.899c-0.106,0.386-0.506,0.619-0.898,0.505c-0.527-0.147-1.072-0.222-1.623-0.222
	c-3.305,0-5.993,2.688-5.993,5.992C101.806,199.019,101.827,199.311,101.87,199.597z M109.965,178.69
	c-0.829,0-1.624,0.184-2.361,0.547c-0.362,0.174-0.799,0.028-0.978-0.333c-0.176-0.362-0.028-0.799,0.334-0.978
	c0.939-0.461,1.95-0.694,3.005-0.694c3.758,0,6.815,3.058,6.815,6.815c0,1.773-0.678,3.452-1.907,4.729
	c-0.144,0.149-0.334,0.223-0.525,0.223c-0.182,0-0.364-0.067-0.506-0.203c-0.29-0.28-0.299-0.742-0.02-1.031
	c0.967-1.004,1.5-2.324,1.5-3.717C115.322,181.094,112.918,178.69,109.965,178.69z M115.231,194.65
	c-1.01,0.518-3.317,2.054-3.865,3.853c0.014,0.128,0.039,0.252,0.039,0.384c0,1.984-1.608,3.593-3.593,3.593
	s-3.593-1.608-3.593-3.593s1.608-3.593,3.593-3.593c0.941,0,1.792,0.37,2.433,0.964c1.433-2.06,3.864-3.318,4.01-3.392
	c2.952-1.749,4.822-5.028,4.822-8.524c0-5.478-4.457-9.935-9.936-9.935c-2.581,0-5.025,0.984-6.884,2.771
	c-0.404,0.39-1.05,0.375-1.439-0.028c-0.39-0.405-0.377-1.05,0.027-1.439c2.241-2.153,5.187-3.34,8.296-3.34
	c6.601,0,11.972,5.37,11.972,11.971C121.113,188.553,118.86,192.503,115.231,194.65z"/>
<path fill="#C4D10E" d="M-308.385,260.129l-3.751-8.224c-1.584-3.473,2.531-6.753,5.563-4.435l16.553,12.658H-308.385z
	 M-275.509,289.353v-0.754c0-0.955-0.774-1.729-1.729-1.729h-26.894c-0.955,0-1.729,0.774-1.729,1.729v0.754
	c0,0.955,0.774,1.729,1.729,1.729h26.894C-276.284,291.082-275.509,290.308-275.509,289.353z M-266.592,267.747l-10.327,14.832
	c-0.587,0.842-1.549,1.345-2.575,1.345h-22.382c-1.027,0-1.988-0.503-2.575-1.345l-10.327-14.832
	c-1.449-2.081,0.04-4.932,2.575-4.932h43.036C-266.632,262.815-265.143,265.666-266.592,267.747z M-292.879,271.038
	c0.554,0.301,1.1,0.678,1.607,1.152c0.206,0.193,0.395,0.4,0.576,0.614c0.025-0.035,0.047-0.073,0.074-0.107
	c0.581-0.744,1.291-1.286,1.997-1.681c0.244-0.137,0.339-0.436,0.232-0.694c-0.57-1.394-1.4-2.472-1.953-3.094
	c-0.216-0.243-0.599-0.242-0.814,0.001c-0.552,0.624-1.382,1.709-1.952,3.107C-293.218,270.597-293.126,270.903-292.879,271.038z
	 M-289.541,279.097c-0.153-2.453-0.961-4.38-2.407-5.736c-1.853-1.736-4.322-2.109-5.568-2.183c-0.287-0.017-0.52,0.229-0.491,0.515
	c0.113,1.147,0.551,3.891,2.146,5.593c1.354,1.444,3.278,2.251,5.726,2.406C-289.797,279.713-289.52,279.436-289.541,279.097z
	 M-283.362,271.749c0.015-0.326-0.255-0.591-0.582-0.571c-1.262,0.078-3.695,0.458-5.533,2.182
	c-0.074,0.068-0.146,0.139-0.215,0.211c-0.187,0.192-0.207,0.482-0.059,0.704c0.817,1.221,1.304,2.719,1.456,4.479
	c0.032,0.382,0.448,0.615,0.789,0.44C-284.017,277.411-283.441,273.467-283.362,271.749z"/>
<circle fill="#C4D10E" cx="-445.944" cy="253.91" r="7.421"/>
<g>
	<circle fill="#C4D10E" cx="-466.571" cy="285.68" r="7.405"/>
</g>
<path fill="#C4D10E" d="M-432.021,272.884l-0.004-0.013l-0.007-0.021c-0.051-0.166-0.116-0.319-0.206-0.484l-0.036-0.078
	l-2.489-6.524c-0.339-0.888-1.07-1.507-1.92-1.751c-1.003-0.437-3.545-0.667-3.545-0.667l-0.013,0.013
	c-0.182-0.017-0.361-0.041-0.548-0.041h-11.27c-0.185,0-0.361,0.025-0.542,0.042l-0.014-0.014c0,0-2.554,0.231-3.553,0.67
	c-0.016,0.007-0.022,0.02-0.036,0.027c-1.156,0.342-2.029,1.375-2.087,2.646l-0.32,7.083c-0.022,0.497,0.091,0.989,0.336,1.462
	c0.042,0.095,0.065,0.139,0.089,0.184c0.101,0.171,0.18,0.275,0.273,0.371c0.226,0.257,0.478,0.459,0.773,0.628l0.065,0.043
	l5.285,3.939l2.384-2.833l-3.36-4.307l0.139-3.091l1.266,0.102l-0.116,2.578l2.908,3.726l3.669-4.36
	c0.494-0.587,1.219-0.934,1.986-0.949c0.768,0.006,1.506,0.301,2.024,0.868c0.153,0.169,0.275,0.356,0.379,0.552l0.652-0.399
	l-0.795-2.082l1.317-0.105l1.038,2.72l-6.275,3.846c-0.347,0.213-0.516,0.766-0.41,1.344c0.091,0.496,0.37,0.943,0.73,1.165
	c0.145,0.09,0.368,0.184,0.604,0.114l10.416-3.021C-432.118,275.938-431.575,274.424-432.021,272.884z"/>
<g>
	<path fill="#C4D10E" d="M-434.899,282.066h-9.292l-2.822,5.268l-1.085-0.635l3.396-6.353c-0.072-0.034-0.146-0.054-0.216-0.097
		c-0.666-0.412-1.156-1.166-1.312-2.017c-0.2-1.099,0.198-2.166,0.995-2.654l3.646-2.234c-0.06-0.129-0.138-0.25-0.237-0.358
		c-0.265-0.29-0.64-0.455-1.032-0.455c-0.009,0-0.02,0-0.029,0.001c-0.401,0.008-0.781,0.189-1.041,0.497l-9.041,10.742
		c-0.015,0.017-0.022,0.036-0.036,0.054l-1.092-0.64c0.056-0.076,0.096-0.159,0.157-0.231l0.747-0.888h-0.795
		c-2.071,0-3.75,1.679-3.75,3.749v2.968c0,2.07,1.679,3.749,3.75,3.749h19.089c1.308,0,2.368-1.061,2.368-2.368v-5.73
		C-432.531,283.126-433.591,282.066-434.899,282.066z"/>
	<path fill="#C4D10E" d="M-444.982,278.005c0.091,0.496,0.37,0.943,0.73,1.165c0.04,0.025,0.088,0.05,0.14,0.071l2.275-4.256
		l-2.735,1.676C-444.918,276.874-445.087,277.427-444.982,278.005z"/>
</g>
<path fill="#C4D10E" d="M-366.892,247.438c-4.221,0-7.643,3.422-7.643,7.643s3.422,7.643,7.643,7.643s7.643-3.422,7.643-7.643
	S-362.671,247.438-366.892,247.438z M-354.207,268.041c-0.067-0.194-0.154-0.378-0.256-0.552c0.001-0.004,0.002-0.008,0.003-0.013
	c-1.707-2.75-4.139-2.705-4.139-2.705l-0.017,0.006c-0.055-0.003-0.109-0.01-0.166-0.01h-16.982c0,0-0.008,0-0.021,0h-0.027
	c0.001,0.001,0.003,0.001,0.004,0.001c-0.237,0.011-1.521,0.178-3.102,2.473c0.001,0.012,0.005,0.021,0.006,0.033
	c-0.607,0.851-0.763,1.987-0.295,2.996l9.34,11.93c0.375,0.479,1.016,0.671,1.593,0.478c0.394-0.133,0.711-0.429,0.87-0.812
	c0.16-0.382,0.146-0.815-0.035-1.188l-5.5-11.227l1.171-0.58l4.998,10.203l4.937-10.075l1.171,0.58l-5.422,11.067l0,0l-0.016,0.031
	c-0.183,0.372-0.195,0.806-0.035,1.188c0.16,0.383,0.477,0.679,0.869,0.812c0.577,0.193,1.218,0.003,1.594-0.478l9.341-11.931
	C-353.997,269.566-353.955,268.778-354.207,268.041z M-378.616,285.173l-14.096,5.557c-0.567,0.224-0.934,0.782-0.911,1.391v0.001
	c0.015,0.414,0.208,0.803,0.528,1.064c0.321,0.263,0.741,0.374,1.15,0.305l14.258-2.4c0.789-0.133,1.479-0.565,1.942-1.217
	s0.646-1.444,0.514-2.232C-375.501,286.033-377.012,284.94-378.616,285.173z M-355.517,281.004l-6.253,0.898l-0.864,1.104
	c-0.53,0.677-1.337,1.054-2.166,1.054c-0.292,0-0.587-0.047-0.874-0.144c-0.419-0.142-0.785-0.388-1.086-0.698
	c-0.302,0.311-0.668,0.557-1.088,0.698c-0.286,0.097-0.581,0.144-0.873,0.144c-0.83,0-1.637-0.377-2.166-1.054l-1.099-1.406
	l-3.19-0.596c-1.795,0-3.291,1.231-3.724,2.893l0.004-0.002c2.329-0.395,4.561,1.189,4.955,3.528
	c0.19,1.133-0.071,2.271-0.738,3.208c-0.312,0.438-0.698,0.799-1.134,1.087c0.209,0.034,0.419,0.063,0.637,0.063h19.659
	c1.347,0,2.438-1.091,2.438-2.438v-5.901C-353.079,282.096-354.17,281.004-355.517,281.004z M-393.191,289.514l12.674-4.981
	c-0.048-1.887-0.784-3.759-2.224-5.199c-2.979-2.979-7.807-2.979-10.785,0c-2.89,2.89-2.967,7.515-0.25,10.509
	C-393.596,289.712-393.404,289.598-393.191,289.514z"/>
<rect x="-480.136" y="302.378" fill="none" width="60" height="7.5"/>
<text transform="matrix(1 0 0 1 -480.1367 308.0576)" fill="#FFFFFF" font-family="'MyriadPro-Regular'" font-size="8">Physiotherapy</text>
<rect x="-399.393" y="302.378" fill="none" width="60" height="7.5"/>
<text transform="matrix(1 0 0 1 -399.3931 308.0576)" fill="#FFFFFF" font-family="'MyriadPro-Regular'" font-size="8">Chiro/osteo</text>
<rect x="-319.864" y="302.378" fill="none" width="60" height="7.5"/>
<text transform="matrix(1 0 0 1 -319.8643 308.0576)" fill="#FFFFFF" font-family="'MyriadPro-Regular'" font-size="8">Alt therapies</text>
<path fill="#C4D10E" d="M-143.857,259.725l4.885-8.927c1.76-3.217,5.795-4.397,9.012-2.637l0.615,0.337
	c3.217,1.76,4.397,5.795,2.637,9.012l-4.884,8.926L-143.857,259.725z M-144.989,261.794l-4.885,8.927
	c-1.761,3.217-0.58,7.251,2.637,9.011l0.615,0.337c3.217,1.761,7.252,0.58,9.013-2.637l4.884-8.927L-144.989,261.794z
	 M-108.904,273.735c-3.09-5.611-10-8.051-15.991-5.444s-8.916,9.325-6.918,15.411L-108.904,273.735z M-130.872,285.865
	c3.09,5.611,10,8.051,15.991,5.444s8.917-9.325,6.918-15.411L-130.872,285.865z"/>
<path fill="#C4D10E" d="M-52.646,258.787c-0.544,1.334-1.759,2.1-2.713,1.71c-0.954-0.389-1.286-1.785-0.742-3.119
	c0.543-1.333,1.758-2.1,2.712-1.71C-52.436,256.057-52.103,257.453-52.646,258.787z M-58.331,255.013
	c-0.916-0.188-1.838,0.539-2.059,1.622c-0.222,1.082,0.341,2.112,1.257,2.3c0.916,0.187,1.838-0.539,2.06-1.622
	C-56.853,256.229-57.415,255.199-58.331,255.013z M-62.759,254.922c-0.892-0.095-1.705,0.684-1.818,1.739
	c-0.112,1.055,0.519,1.987,1.41,2.083c0.892,0.095,1.705-0.684,1.818-1.738C-61.236,255.95-61.867,255.018-62.759,254.922z
	 M-67.134,256.203c-0.892,0.094-1.524,1.027-1.414,2.085c0.111,1.058,0.925,1.84,1.816,1.746c0.891-0.094,1.523-1.027,1.413-2.085
	C-65.43,256.892-66.243,256.109-67.134,256.203z M-70.853,258.374c-0.767,0.081-1.308,0.906-1.209,1.845
	c0.099,0.938,0.8,1.633,1.566,1.552c0.766-0.08,1.308-0.906,1.209-1.844S-70.086,258.294-70.853,258.374z M-45.882,261.145
	c0.258-2.678,0.702-6.06,3.194-7.659s4.705-1.172,6.7,0.098c3.803,2.424,7.587,7.694,4.37,12.196
	c-2.518,3.955-4.219,4.393-6.392,10.336c-1.034,2.639-1.659,5.147-3.675,7.307c-2.786,2.986-8.258,1.361-9.767-3.895
	c-1.342-5.782,3.929-8.016,5.33-13.164C-45.74,264.967-46.02,262.58-45.882,261.145z M-43.035,247.634
	c-0.188,1.428,0.486,2.694,1.508,2.829c1.021,0.136,2.003-0.912,2.191-2.34c0.188-1.429-0.486-2.695-1.508-2.83
	C-41.865,245.157-42.847,246.205-43.035,247.634z M-38.46,248.547c-0.344,1.051,0.097,2.138,0.984,2.43
	c0.889,0.291,1.888-0.324,2.232-1.374c0.345-1.051-0.096-2.138-0.984-2.43C-37.115,246.882-38.115,247.497-38.46,248.547z
	 M-34.595,250.4c-0.425,0.972-0.104,2.052,0.718,2.411c0.821,0.358,1.832-0.139,2.257-1.11c0.426-0.973,0.104-2.052-0.717-2.411
	S-34.169,249.428-34.595,250.4z M-31.614,253.188c-0.621,0.863-0.534,1.988,0.193,2.512c0.729,0.523,1.821,0.247,2.442-0.616
	c0.621-0.864,0.534-1.988-0.193-2.512C-29.9,252.048-30.993,252.324-31.614,253.188z M-29.149,256.872
	c-0.551,0.766-0.489,1.751,0.137,2.201c0.625,0.449,1.579,0.193,2.13-0.572c0.55-0.766,0.489-1.751-0.137-2.201
	C-27.646,255.851-28.599,256.106-29.149,256.872z M-58.574,277.077c-1.335,5.166,2.136,9.719-1.896,14.075
	c-3.916,3.816-9.473,2.515-10.413-1.46c-0.68-2.874,0.021-5.363,0.431-8.167c1.06-6.239-0.201-7.463-0.427-12.146
	c-0.562-5.504,5.338-8.205,9.842-8.425c2.361-0.114,4.495,0.612,5.867,3.236c1.372,2.625,0.081,5.782-1.022,8.235
	C-56.785,273.741-58.212,275.676-58.574,277.077z"/>
<path fill="#C4D10E" d="M18.555,252.501l-5.103,13.76c-0.221-0.217-0.462-0.414-0.744-0.561c-0.45-0.233-0.943-0.343-1.439-0.345
	c-0.476-0.869-1.389-1.467-2.45-1.467c-1.441,0-2.614,1.091-2.773,2.49c-0.246,0.139-0.473,0.266-0.621,0.347
	c-0.685,0.373-0.641-0.442,0.306-3.089l5.181-13.971c0.783-2.111,3.129-3.188,5.239-2.405
	C18.262,248.044,19.339,250.39,18.555,252.501z M12.111,266.764c-0.159-0.081-0.327-0.132-0.498-0.167
	c0.001,0.033,0.01,0.064,0.01,0.098c0,1.55-1.256,2.805-2.805,2.805c-0.919,0-1.727-0.447-2.238-1.129
	c-0.438,0.219-0.782,0.571-0.954,1.035c-0.186,0.503-0.157,1.044,0.083,1.525l6.772,13.586c0.435-0.75,1.053-1.326,1.867-1.731
	c0.63-0.312,1.306-0.493,1.959-0.542c-0.703-3.069-2.317-10.131-3.207-14.188C12.978,267.496,12.617,267.027,12.111,266.764z
	 M10.985,266.694c0,1.175-0.952,2.127-2.126,2.127c-1.175,0-2.127-0.952-2.127-2.127s0.952-2.127,2.127-2.127
	C10.033,264.567,10.985,265.52,10.985,266.694z M9.849,266.694c0-0.539-0.437-0.976-0.976-0.976s-0.976,0.437-0.976,0.976
	s0.437,0.976,0.976,0.976S9.849,267.233,9.849,266.694z M13.066,288.855L13.066,288.855c0.004,0.011,0.003,0.021,0.009,0.032
	l1.819,3.654c0.137,0.274,0.47,0.386,0.744,0.249s0.386-0.47,0.25-0.744l-1.319-2.655c-0.053-0.118-0.007-0.258,0.11-0.315
	c0.117-0.059,0.256-0.011,0.318,0.102l1.872,3.749c0.137,0.274,0.47,0.386,0.744,0.25c0.274-0.137,0.386-0.471,0.249-0.744
	l-1.865-3.752c-0.053-0.119-0.007-0.258,0.11-0.316s0.256-0.011,0.318,0.103l2.2,4.408c0.137,0.274,0.47,0.386,0.744,0.249l0,0
	c0.274-0.137,0.387-0.47,0.25-0.744l-2.194-4.411c-0.053-0.118-0.007-0.258,0.11-0.316c0.117-0.058,0.256-0.011,0.319,0.103
	l1.871,3.749c0.137,0.274,0.47,0.386,0.744,0.249s0.386-0.47,0.25-0.744l-2.366-4.75l0,0c-0.072-0.15-0.012-0.331,0.138-0.405
	s0.33-0.014,0.405,0.134l0.707,1.419c0.137,0.274,0.47,0.386,0.744,0.249l0.119-0.059c0.274-0.137,0.386-0.471,0.249-0.745
	l-1.208-2.426c-0.024-0.048-0.079-0.122-0.071-0.119c-1.169-1.229-3.032-1.626-4.629-0.83c-1.961,0.977-2.759,3.357-1.782,5.317
	C13.038,288.816,13.055,288.834,13.066,288.855z"/>
<path fill="#C4D10E" d="M42.12,261.264c-2.25,0-4.073,1.823-4.073,4.073c0,1.351,0.664,2.539,1.677,3.28v4.801
	c0,0.297,0.24,0.538,0.538,0.538h0.38l0.477,4.701h2.068l0.412-4.701h0.381c0.297,0,0.538-0.241,0.538-0.538v-4.801
	c1.013-0.741,1.677-1.93,1.677-3.28C46.194,263.087,44.37,261.264,42.12,261.264z M42.12,268.217c-1.59,0-2.879-1.289-2.879-2.88
	c0-1.59,1.289-2.879,2.879-2.879c1.591,0,2.88,1.289,2.88,2.879C45,266.928,43.711,268.217,42.12,268.217z M43.688,264.061
	l-1.096,1.095c0.022,0.057,0.037,0.117,0.037,0.182c0,0.281-0.229,0.51-0.51,0.51s-0.509-0.229-0.509-0.51s0.228-0.509,0.509-0.509
	c0.064,0,0.124,0.015,0.181,0.036l1.096-1.096c0.082-0.079,0.21-0.079,0.292,0C43.768,263.85,43.768,263.979,43.688,264.061z
	 M55.168,271.485v3.356c0,0.918-0.519,1.707-1.273,2.115v1.208c0,0.358-0.291,0.649-0.65,0.649h-1.819
	c-0.358,0-0.649-0.291-0.649-0.649v-1.208c-0.755-0.408-1.273-1.197-1.273-2.115v-3.356c0-1.333,1.08-2.413,2.413-2.413h0.84
	C54.088,269.072,55.168,270.152,55.168,271.485z M51.268,280.342c-0.068,1.559-0.413,3.885-1.75,5.357
	c-0.764,0.844-1.774,1.276-3.045,1.362h-5.587c0.005-0.006,0.012-0.01,0.017-0.015c1.772-1.958,2.196-4.841,2.269-6.705h-2.017
	c-0.067,1.559-0.412,3.885-1.749,5.357c-0.853,0.941-1.992,1.397-3.482,1.397c-1.499,0-2.665-0.463-3.562-1.417
	c-2.238-2.381-1.985-6.955-1.979-7.064v-13.989h1.879c0.864,0,1.565-0.701,1.565-1.565v-13.006c0-0.864-0.701-1.565-1.565-1.565
	h-5.738c-0.865,0-1.566,0.701-1.566,1.565v13.006c0,0.864,0.701,1.565,1.566,1.565h1.846l0.002,13.926
	c-0.016,0.222-0.316,5.479,2.52,8.502c1.281,1.364,2.974,2.058,5.033,2.058c0.278,0,0.53-0.045,0.794-0.069v0.031h9.756
	c1.857-0.096,3.394-0.759,4.542-2.026c1.772-1.958,2.196-4.841,2.269-6.705H51.268z M27.71,257.127
	c0.111-0.966,1.478-3.102,1.678-3.102c0.158,0,1.52,2.041,1.677,3.102c0.173,1.158-0.75,1.963-1.677,1.963
	S27.577,258.29,27.71,257.127z"/>
<g>
	<circle fill="#C4D10E" cx="-207.672" cy="250.158" r="5.494"/>
	<path fill="#C4D10E" d="M-192.531,268.388l-1.614,0.705l2.918,26.443c0.048,0.43,0.411,0.749,0.834,0.749
		c0.032,0,0.063-0.003,0.095-0.006c0.461-0.051,0.794-0.466,0.742-0.929L-192.531,268.388z"/>
	<path fill="#C4D10E" d="M-202.936,280.587l-6.064-6.754l1.797-5.87l1.813,2.435c0.723,0.97,1.941,1.345,3.042,1.046
		c0.002,0,0.004,0,0.006,0l9.327-4.085c0.613-0.269,1.014-0.868,1.027-1.537c0.021-1.084-0.957-1.915-2.023-1.72l-6.814,1.247
		c-0.642,0.118-1.294-0.139-1.685-0.662l-3.452-4.633c-0.254-0.526-0.613-1.001-1.065-1.386c-0.143-0.146-0.305-0.268-0.486-0.354
		c-0.311-0.195-0.649-0.357-1.017-0.47l-1.633-0.499c-0.558-0.171-1.124-0.221-1.67-0.164c0,0-1.943,0.332-2.686,0.739
		c-0.024,0.014-0.029,0.033-0.049,0.049c-0.201,0.071-0.394,0.171-0.569,0.302l-7.621,5.68c-0.722,0.538-1.038,1.448-0.809,2.322
		l4.058,9.26c0.164,0.375,0.535,0.623,0.945,0.631c0.337-0.01,0.62-0.13,0.826-0.371c0.206-0.243,0.291-0.562,0.234-0.874
		l-1.248-6.815c-0.165-0.895,0.187-1.787,0.916-2.33l4.345-3.238l0.99,0.948l-4.547,3.389c-0.325,0.241-0.48,0.638-0.408,1.036
		l1.248,6.814c0.129,0.704-0.063,1.42-0.525,1.965c-0.454,0.534-1.111,0.837-1.81,0.837c-0.016,0-0.031,0-0.046,0h-0.001
		c-0.544-0.011-1.055-0.213-1.46-0.547l-0.905,5.949l-4.776,8.274c-0.882,1.526-0.358,3.479,1.168,4.359s3.479,0.358,4.359-1.168
		l5.016-8.688c0.013-0.021,0.019-0.046,0.03-0.067c0.211-0.349,0.36-0.743,0.426-1.171l0.971-6.382l5.239,5.836l-0.469,8.718
		c-0.095,1.761,1.255,3.264,3.016,3.358c1.76,0.095,3.264-1.255,3.358-3.016l0.538-10.017c0.036-0.671-0.141-1.304-0.468-1.837
		C-202.655,280.938-202.783,280.756-202.936,280.587z"/>
</g>
<rect x="-240" y="302.378" fill="none" width="60" height="7.5"/>
<text transform="matrix(1 0 0 1 -240 308.0576)" fill="#FFFFFF" font-family="'MyriadPro-Regular'" font-size="8">Occupational</text>
<rect x="-160" y="302.378" fill="none" width="60" height="7.5"/>
<text transform="matrix(1 0 0 1 -160 308.0576)" fill="#FFFFFF" font-family="'MyriadPro-Regular'" font-size="8">Pharmacy</text>
<rect x="-80" y="302.378" fill="none" width="60" height="7.5"/>
<text transform="matrix(1 0 0 1 -80 308.0576)" fill="#FFFFFF" font-family="'MyriadPro-Regular'" font-size="8">Podiatry/orthotic</text>
<rect y="302.378" fill="none" width="60" height="7.5"/>
<text transform="matrix(1 0 0 1 0 308.0576)" fill="#FFFFFF" font-family="'MyriadPro-Regular'" font-size="8">Aids &amp; appliances</text>
<path fill="#C4D10E" d="M-449.34,363.001l-11.129-11.13l2.946-2.946l11.129,11.13L-449.34,363.001z M-449.77,372.955l13.331-13.33
	c0.785-0.786,0.785-2.06,0-2.846l-0.898-0.898c-0.786-0.786-2.061-0.786-2.847,0l-13.33,13.33c-0.786,0.786-0.786,2.061,0,2.846
	l0.898,0.898C-451.829,373.741-450.555,373.741-449.77,372.955z M-443.182,375.893l9.68-9.68c0.786-0.785,0.786-2.06,0-2.846
	l-0.898-0.898c-0.786-0.786-2.06-0.786-2.846,0l-9.68,9.68c-0.786,0.785-0.786,2.06,0,2.846l0.898,0.898
	C-445.241,376.679-443.967,376.679-443.182,375.893z M-457.118,338.945l-13.33,13.33c-0.786,0.786-0.786,2.061,0,2.847l0.898,0.898
	c0.785,0.786,2.06,0.786,2.846,0l13.33-13.33c0.786-0.786,0.786-2.061,0-2.847l-0.898-0.898
	C-455.059,338.16-456.332,338.16-457.118,338.945z M-463.706,336.009l-9.68,9.679c-0.786,0.786-0.786,2.061,0,2.847l0.898,0.898
	c0.786,0.785,2.061,0.785,2.846,0l9.68-9.68c0.786-0.786,0.786-2.06,0-2.846l-0.898-0.898
	C-461.646,335.223-462.921,335.223-463.706,336.009z M-439.308,323.097c-0.123-0.003-0.22,0.104-0.204,0.228
	c0.063,0.49,0.286,1.662,0.993,2.371c0.6,0.603,1.435,0.925,2.487,0.959c0.146,0.005,0.261-0.117,0.247-0.263
	c-0.097-1.05-0.469-1.866-1.106-2.43C-437.707,323.24-438.771,323.112-439.308,323.097z M-436.49,330.04
	c-0.013-0.885,0.132-1.812,0.633-2.613c0.777-1.243,2.182-1.912,4.174-1.989c0.01,0,0.021-0.001,0.029-0.001
	c0.399,0,0.729,0.315,0.745,0.717c0.017,0.412-0.305,0.759-0.716,0.774c-1.47,0.058-2.467,0.491-2.967,1.29
	c-0.371,0.592-0.449,1.355-0.4,2.102c-0.142,0.078-0.291,0.146-0.419,0.245C-435.725,330.319-436.096,330.161-436.49,330.04z
	 M-427.752,346.102c-0.668,1.536-1.636,2.542-2.877,2.99c-2.172,0.784-4.517-0.378-4.614-0.428l-0.168-0.085l-0.168,0.085
	c-0.099,0.05-2.443,1.213-4.609,0.429c-1.242-0.448-2.211-1.454-2.881-2.991c-2.495-5.732-2.281-8.292-2.212-9.133
	c0.103-1.234,0.595-4.223,2.931-5.295c1.337-0.614,2.985-1.113,4.387-1.113c0.925,0,1.742,0.218,2.289,0.764l0.264,0.264
	l0.264-0.264c1.373-1.372,4.454-0.672,6.677,0.35c2.336,1.072,2.828,4.061,2.931,5.295
	C-425.47,337.81-425.257,340.369-427.752,346.102z M-438.265,333.175c-0.024-0.307-0.275-0.534-0.603-0.513
	c-3.443,0.276-4.385,3.09-4.399,4.539c-0.004,0.309,0.242,0.561,0.551,0.565c0.003,0,0.005,0,0.008,0
	c0.305,0,0.554-0.245,0.559-0.551c0.003-0.129,0.097-3.176,3.372-3.438C-438.47,333.753-438.24,333.483-438.265,333.175z"/>
<path fill="#C4D10E" d="M-351.8,364.041v6.646c0,1.474-1.194,2.668-2.668,2.668h-26.068c-1.474,0-2.668-1.194-2.668-2.668v-6.646
	c0-1.474,1.194-2.668,2.668-2.668h26.068C-352.994,361.373-351.8,362.567-351.8,364.041z M-356.438,358.398h-22.129l1.474-11.612
	c0.424-3.346,3.27-5.854,6.643-5.854h5.897c3.372,0,6.218,2.508,6.643,5.854L-356.438,358.398z M-359.422,348.933
	c-0.596-4.407-3.013-6.551-7.39-6.551c-0.061,0-0.122,0-0.184,0c-0.52,0.008-0.936,0.434-0.928,0.954
	c0.007,0.515,0.427,0.928,0.94,0.928c0.004,0,0.009,0,0.014,0c3.55-0.057,5.202,1.378,5.681,4.921
	c0.064,0.472,0.468,0.815,0.933,0.815c0.041,0,0.084-0.003,0.126-0.009C-359.714,349.922-359.354,349.447-359.422,348.933z
	 M-366.736,334.473l2.81-8.81c0.165-0.519-0.222-1.048-0.766-1.048h-5.618c-0.545,0-0.932,0.529-0.767,1.048l2.81,8.81
	C-368.029,335.219-366.974,335.219-366.736,334.473z M-359.629,336.759l7.481-5.435c0.44-0.319,0.442-0.976,0.004-1.298
	l-4.527-3.327c-0.438-0.322-1.064-0.125-1.238,0.391l-2.953,8.762C-361.113,336.594-360.263,337.219-359.629,336.759z
	 M-374.135,335.852l-2.954-8.762c-0.174-0.516-0.799-0.713-1.237-0.391l-4.527,3.327c-0.438,0.322-0.437,0.979,0.004,1.298
	l7.48,5.435C-374.735,337.219-373.885,336.594-374.135,335.852z"/>
<path fill="#C4D10E" d="M103.381,285.938h5.063l-0.222,9.591c-0.022,0.997-0.809,1.81-1.805,1.867
	c-1.021,0.059-1.906-0.695-2.013-1.712L103.381,285.938z M125.475,256.265c0.904-0.673,1.279-1.785,1.064-2.82
	c-0.003-0.02-0.005-0.04-0.009-0.061c-0.011-0.049-0.029-0.096-0.044-0.145c-0.075-0.296-0.192-0.585-0.378-0.852l-6.396-9.18
	c-0.57-0.818-1.674-1.062-2.536-0.56c-0.883,0.516-1.205,1.634-0.732,2.54l4.061,7.783l-5.859,4.36
	c-0.312-0.108-0.635-0.182-0.974-0.182c0,0-7.264,0-7.492,0c-0.228,0-1.551,0.021-3.076,0.936c-0.042,0.022-0.373,0.255-0.552,0.462
	c-0.011,0.013-0.018,0.027-0.028,0.039h19.83L125.475,256.265z M98.395,284.499h10.132h1.624h10.131l-1.693-12.787h-18.5
	L98.395,284.499z M110.198,295.528c0.022,0.997,0.808,1.81,1.804,1.867c1.021,0.059,1.908-0.695,2.015-1.712l1.023-9.746h-5.063
	L110.198,295.528z M123.72,258.587h-1.366l-4.497,3.347c-0.166,0.123-0.342,0.223-0.522,0.305l1.254,9.474h5.132
	c1.835,0,3.323-1.487,3.323-3.322v-6.479C127.043,260.075,125.555,258.587,123.72,258.587z M101.782,270.459
	c0.068,0.016,0.136,0.023,0.22,0.028c0.081,0.015,0.162,0.023,0.268,0.032c0.1,0.009,0.197,0.015,0.29,0.015
	c0.016,0,0.031,0,0.047,0c0.137-0.002,0.273-0.015,0.415-0.034c0.086-0.013,0.171-0.025,0.265-0.045
	c0.062-0.008,0.122-0.018,0.186-0.035l10.767-3.04c1.287-0.363,2.092-1.676,1.833-2.987c-0.267-1.356-1.541-2.265-2.915-2.056
	l-6.213,0.922l0.449-2.024l-1.424,0.234l-0.756,3.401l8.141-1.209c0.658-0.099,1.276,0.337,1.404,0.99
	c0.125,0.632-0.263,1.264-0.883,1.439l-10.758,3.035c-0.043,0.006-0.086,0.013-0.129,0.021c-0.051,0.012-0.103,0.02-0.151,0.026
	c-0.082,0.011-0.163,0.021-0.254,0.021c-0.068,0.004-0.136-0.004-0.214-0.01c-0.045-0.005-0.089-0.008-0.147-0.018
	c-0.043-0.007-0.086-0.012-0.146-0.015c-0.557-0.124-1.032-0.457-1.337-0.938c-0.307-0.481-0.407-1.053-0.283-1.608l1.582-7.124
	c0.077-0.345,0.262-0.636,0.486-0.896h-6.387c-1.836,0-3.323,1.488-3.323,3.323v6.479c0,1.835,1.487,3.322,3.323,3.322h3.951
	l0.26-1.965C100.763,270.087,101.245,270.34,101.782,270.459z M115.085,249.752c0,3.244-2.63,5.874-5.875,5.874
	c-3.244,0-5.874-2.63-5.874-5.874c0-3.245,2.63-5.875,5.874-5.875C112.455,243.877,115.085,246.507,115.085,249.752z
	 M114.03,249.749c0-0.125-0.006-0.247-0.016-0.369c-0.028,0.009-0.056,0.021-0.085,0.029c-3.73,1.175-5.479-1.233-5.971-2.099
	c-0.065-0.116-0.23-0.112-0.292,0.006c-0.909,1.729-2.76,2.241-3.13,2.329c-0.02,0.024-0.037,0.046-0.057,0.07
	c-0.018,2.652,2.127,4.809,4.774,4.809C111.893,254.524,114.03,252.387,114.03,249.749z"/>
<rect x="-480" y="383.378" fill="none" width="60" height="7.5"/>
<text transform="matrix(1 0 0 1 -480 389.0576)" fill="#FFFFFF" font-family="'MyriadPro-Regular'" font-size="8">Health Mngmt</text>
<rect x="-480" y="462.128" fill="none" width="60" height="7.5"/>
<text transform="matrix(1 0 0 1 -480 467.8076)" fill="#FFFFFF" font-family="'MyriadPro-Regular'" font-size="8">Roadside assist</text>
<rect x="-400" y="383.378" fill="none" width="60" height="7.5"/>
<text transform="matrix(1 0 0 1 -400 389.0576)" fill="#FFFFFF" font-family="'MyriadPro-Regular'" font-size="8">Ambulance</text>
<rect x="77.5" y="303.271" fill="none" width="60" height="7.5"/>
<text transform="matrix(1 0 0 1 77.5 308.9512)" fill="#FFFFFF" font-family="'MyriadPro-Regular'" font-size="8">Mammograms</text>
<path fill="#C4D10E" d="M-432.245,45.603c-4.167,4.945-10.012,7.971-16.457,8.52c-3.687,0.315-7.3-0.193-10.663-1.479
	c-1.646-0.63-3.231-1.445-4.736-2.44c-1.438-0.95-1.833-2.886-0.881-4.323c0.95-1.438,2.892-1.837,4.323-0.881
	c3.401,2.249,7.353,3.255,11.428,2.907c4.783-0.408,9.121-2.654,12.215-6.324c3.093-3.671,4.572-8.325,4.165-13.109
	c-0.409-4.783-2.655-9.121-6.326-12.214c-3.671-3.095-8.326-4.572-13.108-4.165c-5.308,0.453-9.989,3.147-13.026,7.363l1.921,0.444
	c0.99,0.228,1.361,1.441,0.668,2.184l-7.493,8.036c-0.692,0.743-1.93,0.457-2.226-0.514l-3.214-10.508
	c-0.296-0.97,0.569-1.899,1.558-1.67l2.331,0.538c3.929-6.833,11.051-11.417,18.952-12.091c6.442-0.551,12.715,1.442,17.66,5.61
	c4.945,4.168,7.971,10.012,8.52,16.457C-426.084,34.386-428.076,40.658-432.245,45.603z"/>
<path fill="#C4D10E" d="M-459.092,36.688c0,0.332,0.317,0.605,0.707,0.605h16.771c0.389,0,0.707-0.273,0.707-0.605v-6.327h-18.185
	V36.688z"/>
<path fill="#C4D10E" d="M-440.907,26.406c0-0.333-0.319-0.605-0.708-0.605h-16.771c-0.388,0-0.706,0.272-0.706,0.605v2.12h18.185
	V26.406z M-453.787,27.597h-4.089c-0.217,0-0.394-0.176-0.394-0.393s0.176-0.393,0.394-0.393h4.089c0.217,0,0.393,0.176,0.393,0.393
	S-453.57,27.597-453.787,27.597"/>
<path fill="#C4D10E" d="M-31.941-34.274c-3.785,4.492-9.096,7.241-14.949,7.74c-3.352,0.285-6.633-0.177-9.689-1.345
	c-1.494-0.571-2.934-1.313-4.303-2.217c-1.305-0.863-1.664-2.621-0.799-3.928c0.863-1.306,2.625-1.669,3.928-0.801
	c3.088,2.043,6.678,2.958,10.381,2.641c4.346-0.37,8.287-2.41,11.098-5.745c2.809-3.335,4.152-7.563,3.783-11.909
	c-0.371-4.346-2.412-8.286-5.746-11.097c-3.336-2.811-7.564-4.152-11.908-3.783c-4.822,0.412-9.076,2.86-11.834,6.69l1.744,0.402
	c0.898,0.207,1.236,1.311,0.607,1.984l-6.807,7.301c-0.631,0.675-1.754,0.415-2.023-0.467l-2.92-9.545
	c-0.27-0.883,0.518-1.726,1.416-1.519l2.117,0.488c3.568-6.208,10.039-10.372,17.217-10.983c5.854-0.502,11.551,1.31,16.045,5.097
	c4.492,3.786,7.24,9.096,7.74,14.949S-28.154-38.767-31.941-34.274z"/>
<path fill="#C4D10E" d="M-42.729-47.032h-4.951v4.951c0,0.783-0.635,1.417-1.418,1.417s-1.416-0.634-1.416-1.417v-4.951h-4.953
	c-0.783,0-1.416-0.634-1.416-1.417s0.633-1.418,1.416-1.418h4.953v-4.951c0-0.783,0.633-1.417,1.416-1.417s1.418,0.634,1.418,1.417
	v4.951h4.951c0.783,0,1.416,0.635,1.416,1.418S-41.945-47.032-42.729-47.032z"/>
<path fill="#C4D10E" d="M127.365-34.274c-3.785,4.492-9.096,7.241-14.949,7.74c-3.352,0.285-6.633-0.177-9.689-1.345
	c-1.494-0.571-2.934-1.313-4.303-2.217c-1.305-0.863-1.664-2.621-0.799-3.928c0.863-1.306,2.625-1.669,3.928-0.801
	c3.088,2.043,6.678,2.958,10.381,2.641c4.346-0.37,8.287-2.41,11.098-5.745c2.809-3.335,4.152-7.563,3.783-11.909
	c-0.371-4.346-2.412-8.286-5.746-11.097c-3.336-2.811-7.564-4.152-11.908-3.783c-4.822,0.412-9.076,2.86-11.834,6.69l1.744,0.402
	c0.898,0.207,1.236,1.311,0.607,1.984l-6.807,7.301c-0.631,0.675-1.754,0.415-2.023-0.467l-2.92-9.545
	c-0.27-0.883,0.518-1.726,1.416-1.519l2.117,0.488c3.568-6.208,10.039-10.372,17.217-10.983c5.854-0.502,11.551,1.31,16.045,5.097
	c4.492,3.786,7.24,9.096,7.74,14.949S131.152-38.767,127.365-34.274z"/>
<path fill="#C4D10E" d="M31.395-26.005c1.688-0.037,3.338-0.257,4.936-0.65c2.203-0.543,4.301-1.425,6.252-2.612
	c0.096-0.058,0.191-0.117,0.287-0.177c0.305-0.192,0.605-0.394,0.902-0.602c0.129-0.089,0.258-0.176,0.387-0.268
	c0.305-0.223,0.605-0.457,0.9-0.695c0.082-0.066,0.168-0.125,0.25-0.192c0.514-0.426,0.998-0.879,1.469-1.346
	c0.107-0.106,0.217-0.214,0.322-0.323c0.412-0.424,0.807-0.859,1.182-1.313c0.178-0.213,0.342-0.434,0.51-0.652
	c0.18-0.234,0.355-0.473,0.525-0.714c0.426-0.6,0.82-1.217,1.186-1.853c0.016-0.027,0.033-0.055,0.049-0.082
	c0.631-1.115,1.16-2.283,1.594-3.494c0.043-0.12,0.086-0.241,0.127-0.361c0.164-0.485,0.313-0.975,0.443-1.473
	c0.098-0.363,0.189-0.728,0.268-1.095c0.057-0.266,0.105-0.532,0.152-0.801c0.1-0.556,0.184-1.115,0.24-1.679
	c0.004-0.038,0.014-0.074,0.018-0.112c0.004-0.054,0.002-0.107,0.006-0.162c0.057-0.617,0.08-1.237,0.084-1.86
	c0-0.017,0.002-0.033,0.002-0.051l-0.002,0.001c0.004-0.666-0.012-1.333-0.07-2.001l2.086-0.833c0.877-0.35,1.045-1.516,0.305-2.1
	l-8.08-6.366c-0.74-0.583-1.836-0.146-1.971,0.787l-1.475,10.181c-0.135,0.933,0.791,1.663,1.666,1.313l1.713-0.683
	c-0.027,1.127-0.178,2.242-0.424,3.333c-0.027,0.123-0.053,0.245-0.082,0.366c-0.422,1.685-1.092,3.3-2.002,4.78
	c-0.014,0.022-0.029,0.045-0.043,0.067c-0.275,0.44-0.574,0.866-0.889,1.282c-0.074,0.097-0.15,0.193-0.227,0.289
	c-0.264,0.334-0.547,0.654-0.838,0.968c-0.113,0.121-0.221,0.245-0.338,0.363c-0.33,0.335-0.678,0.654-1.039,0.963
	c-0.064,0.057-0.125,0.118-0.191,0.174c-0.328,0.271-0.666,0.524-1.01,0.769c-0.102,0.071-0.203,0.141-0.305,0.21
	c-0.232,0.157-0.469,0.306-0.707,0.45c-0.143,0.087-0.283,0.178-0.43,0.26c-0.113,0.065-0.232,0.122-0.35,0.185
	c-0.434,0.23-0.875,0.446-1.326,0.638c-0.053,0.023-0.107,0.046-0.162,0.068c-0.883,0.364-1.793,0.653-2.727,0.862v0.001
	c-1.074,0.239-2.176,0.387-3.303,0.412c-1.613,0.032-2.885,1.369-2.85,2.979C28.453-27.245,29.787-25.969,31.395-26.005z"/>
<path fill="#C4D10E" d="M5.959-43.727l8.08,6.366c0.74,0.583,1.834,0.146,1.971-0.787l1.473-10.181
	c0.137-0.934-0.789-1.663-1.666-1.313l-1.711,0.684c0.012-0.548,0.061-1.093,0.125-1.635c0.018-0.141,0.041-0.28,0.061-0.42
	c0.068-0.473,0.152-0.941,0.26-1.405c0.018-0.073,0.035-0.146,0.055-0.218c0.131-0.529,0.283-1.053,0.465-1.566
	c0.008-0.021,0.014-0.041,0.021-0.062c0.197-0.551,0.42-1.092,0.674-1.619c0-0.003,0.002-0.005,0.002-0.008
	c0.25-0.521,0.529-1.03,0.834-1.525c0.012-0.021,0.023-0.043,0.037-0.064c0.279-0.452,0.588-0.887,0.91-1.312
	c0.047-0.063,0.092-0.129,0.141-0.191c0.281-0.36,0.59-0.703,0.902-1.041c0.1-0.107,0.191-0.223,0.295-0.328
	c0.299-0.308,0.623-0.595,0.949-0.88c0.117-0.102,0.223-0.213,0.342-0.312c0.059-0.05,0.123-0.092,0.182-0.14
	c0.354-0.284,0.715-0.557,1.086-0.81c0.117-0.08,0.238-0.151,0.357-0.229c0.346-0.223,0.695-0.437,1.055-0.632
	c0.1-0.055,0.201-0.106,0.303-0.16c0.406-0.21,0.82-0.406,1.24-0.582c0.059-0.025,0.119-0.051,0.178-0.075
	c0.494-0.2,0.994-0.38,1.504-0.531v-0.001c1.418-0.421,2.895-0.662,4.414-0.695c1.613-0.032,2.885-1.369,2.848-2.979
	c-0.035-1.609-1.369-2.885-2.979-2.849c-1.688,0.037-3.338,0.257-4.936,0.65c-2.484,0.611-4.836,1.647-6.992,3.076
	c-0.201,0.134-0.4,0.277-0.6,0.419c-0.125,0.088-0.25,0.17-0.373,0.261c-0.344,0.253-0.682,0.515-1.012,0.79
	c-0.516,0.426-1,0.879-1.469,1.345c-0.109,0.107-0.217,0.215-0.324,0.323c-0.41,0.425-0.807,0.86-1.18,1.313
	c-0.178,0.213-0.342,0.435-0.512,0.653c-0.18,0.234-0.355,0.473-0.525,0.714c-0.426,0.599-0.82,1.216-1.184,1.853
	c-0.016,0.027-0.033,0.055-0.049,0.082c-0.633,1.115-1.162,2.283-1.594,3.494c-0.043,0.12-0.086,0.24-0.127,0.361
	c-0.164,0.485-0.313,0.975-0.443,1.472c-0.098,0.363-0.189,0.728-0.27,1.096c-0.057,0.266-0.105,0.532-0.152,0.8
	c-0.098,0.557-0.184,1.116-0.24,1.68c-0.004,0.037-0.012,0.074-0.016,0.111c-0.006,0.055-0.004,0.108-0.008,0.162
	c-0.115,1.294-0.125,2.603-0.014,3.912l-2.086,0.832C5.387-45.478,5.217-44.311,5.959-43.727z"/>
<path fill="#C4D10E" d="M37.355-45.281c0,2.531-1.994,4.231-4.951,4.482v2.306h-2.027v-2.326c-2.021-0.23-3.906-1.046-5.484-2.3
	l1.486-2.121c1.326,1.074,2.578,1.77,4.096,2.001v-4.56c-3.4-0.886-4.98-2.161-4.98-4.771v-0.046c0-2.509,1.977-4.21,4.883-4.442
	v-1.349h2.027v1.395c1.699,0.213,3.09,0.813,4.373,1.771l-1.303,2.185c-1.023-0.769-2.072-1.252-3.166-1.485v4.418
	c3.537,0.885,5.047,2.306,5.047,4.793V-45.281z"/>
<path fill="#FFFFFF" d="M28.238-52.779v0.05c0,0.957,0.443,1.577,2.234,2.118v-4.098C29.008-54.588,28.238-53.798,28.238-52.779"/>
<path fill="#FFFFFF" d="M32.309-47.358v4.216c1.469-0.116,2.303-0.865,2.303-1.98v-0.046C34.611-46.192,34.125-46.819,32.309-47.358
	"/>
<path fill="#C4D10E" d="M-430.21,448.755c0,1.595-0.558,2.902-1.239,2.902h-33.597c-0.681,0-1.239-1.308-1.239-2.902
	c0-1.593,0.558-2.896,1.239-2.896h33.597C-430.768,445.859-430.21,447.162-430.21,448.755"/>
<g>
	<path fill="#C4D10E" d="M-444.442,415.604l0.764,2.853c0,0.227-0.179,0.409-0.401,0.409h-8.337c-0.222,0-0.401-0.183-0.401-0.409
		l1.076-4.088c0.194-0.678,0.408-1.353,0.566-2.04c0.38-1.645,1.121-3.028,3.021-2.984c1.769,0.041,2.409,1.342,2.846,2.918
		l0.891,3.434"/>
</g>
<path fill="#C4D10E" d="M-439.758,431.329l1.704,6.233c0,0.494-0.4,0.895-0.895,0.895h-18.6c-0.494,0-0.895-0.4-0.895-0.895
	l1.895-6.233c0.065-0.334,0.4-0.895,0.895-0.895h15.001C-440.159,430.435-439.815,431.021-439.758,431.329z"/>
<path fill="#C4D10E" d="M-442.343,421.677l1.185,5.741c0,0.455-0.278,0.823-0.623,0.823h-12.936c-0.344,0-0.623-0.368-0.623-0.823
	l1.317-5.741c0.046-0.307,0.279-0.823,0.623-0.823h10.434C-442.622,420.854-442.382,421.395-442.343,421.677z"/>
<path fill="#C4D10E" d="M-461.411,447.758l2.446-6.233c0.084-0.334,0.517-0.895,1.155-0.895h19.37c0.638,0,1.082,0.587,1.155,0.895
	l2.2,6.233"/>
<path fill="#FFFFFF" d="M-133.795,27.491c0-1.583-0.887-2.785-2.091-2.785c-1.265,0-2.025,1.266-2.025,2.722v0.063
	c0,1.518,0.888,2.784,2.091,2.784C-134.555,30.212-133.795,28.946-133.795,27.491z M-124.429,34.389
	c-1.266,0-2.025,1.266-2.025,2.722v0.063c0,1.519,0.886,2.785,2.089,2.785c1.265,0,2.024-1.267,2.024-2.722v-0.063
	C-122.341,35.593-123.226,34.389-124.429,34.389z M-135.886,32.364c2.658,0,4.494-2.279,4.494-4.873v-0.063
	c0-2.595-1.771-4.811-4.429-4.811c-2.658,0-4.494,2.216-4.494,4.874C-140.314,30.085-138.543,32.3-135.886,32.364z M-121.898,22.808
	h-2.656l-13.798,18.987h2.658L-121.898,22.808z M-119.935,37.111c0-2.594-1.773-4.811-4.431-4.874c-2.658,0-4.495,2.279-4.495,4.874
	v0.063c0,2.595,1.773,4.811,4.432,4.811S-119.935,39.706-119.935,37.111z"/>
<path fill="#C4D10E" d="M-133.795,27.491c0-1.583-0.887-2.785-2.091-2.785c-1.265,0-2.025,1.266-2.025,2.722v0.063
	c0,1.518,0.888,2.784,2.091,2.784C-134.555,30.212-133.795,28.946-133.795,27.491z"/>
<path fill="#C4D10E" d="M-124.429,34.389c-1.266,0-2.025,1.266-2.025,2.722v0.063c0,1.519,0.886,2.785,2.089,2.785
	c1.265,0,2.024-1.267,2.024-2.722v-0.063C-122.341,35.593-123.226,34.389-124.429,34.389z"/>
<path fill="#C4D10E" d="M116.597-46.568c0-1.045-0.481-3.441-4.681-4.093l0.023-4.365c1.438,0.415,2.146,1.555,2.188,1.627
	c0.274,0.473,0.878,0.634,1.348,0.366c0.481-0.274,0.64-0.877,0.372-1.359c-0.052-0.098-1.286-2.185-3.902-2.67l0.007-0.856
	c0-0.545-0.433-0.997-0.984-0.997h-0.006c-0.546,0-0.99,0.438-0.997,0.987v0.847c-1.177,0.195-2.304,0.738-3.042,1.521
	c-0.736,0.784-1.078,1.747-0.976,2.789c0.195,2.073,1.53,3.355,3.963,3.84l-0.024,4.41c-1.329-0.362-2.282-1.222-2.523-1.548
	c-0.128-0.39-0.507-0.67-0.941-0.67c-0.552,0-0.991,0.448-0.991,0.997c0,1.015,2.079,2.773,4.443,3.243l-0.011,1.6
	c0,0.552,0.443,1,0.989,1h0.003c0.549,0,0.991-0.445,0.997-0.99l0.01-1.533c1.365-0.153,2.662-0.717,3.553-1.567
	C116.188-44.736,116.597-45.626,116.597-46.568"/>
<path fill="#FFFFFF" d="M107.923-52.962c-0.043-0.463,0.104-0.863,0.448-1.229c0.375-0.393,0.953-0.697,1.575-0.859l-0.021,4.087
	C108.329-51.355,108.008-52.142,107.923-52.962"/>
<path fill="#FFFFFF" d="M114.036-45.428c-0.523,0.509-1.316,0.86-2.166,1.003l0.027-4.224c1.273,0.241,2.715,0.792,2.715,2.082
	C114.612-46.08,114.299-45.677,114.036-45.428"/>
<path fill="#C4D10E" d="M-56.889,45.364c0.799,0.667-2.258,0.002-3.538,2.083c-0.976,1.583,5.827,3.12,11.653,3.12
	c5.829,0,13.358-1.182,11.199-3.954c-0.975-1.255-2.873-1.043-3.29-1.25c-0.416-0.207,5.397-1.076,8.978,1.25
	c3.628,2.354,1.863,5.715-5,7.837c-4.783,1.48-17.922,2.36-26.245-0.969c-6.319-2.526-5.826-5.204-3.122-6.868
	C-63.549,44.948-58.139,44.325-56.889,45.364"/>
<path fill="#C4D10E" d="M-57.721,37.457c-4.579-6.245-7.492-9.158-7.492-16.445c0-7.28,6.036-16.232,16.439-16.232
	c10.408,0,16.03,8.742,16.03,15.818c0,7.075-3.333,9.99-8.33,16.859c-4.995,6.868-6.775,9.156-8.219,9.156
	C-50.945,46.613-53.142,43.7-57.721,37.457 M-49.292,14.771c-3.679,0-6.662,2.981-6.662,6.658c0,3.681,2.983,6.663,6.662,6.663
	c3.676,0,6.659-2.982,6.659-6.663C-42.633,17.751-45.616,14.771-49.292,14.771"/>
<path fill="#FFFFFF" d="M21.788,45.268c0.843,0.704-2.379,0.002-3.729,2.196c-1.028,1.668,6.142,3.289,12.284,3.289
	s14.078-1.246,11.804-4.168c-1.028-1.323-3.029-1.099-3.469-1.317c-0.438-0.218,5.687-1.133,9.463,1.317
	c3.824,2.481,1.964,6.023-5.271,8.26c-5.04,1.56-18.89,2.488-27.664-1.021c-6.66-2.663-6.14-5.485-3.291-7.239
	C14.767,44.829,20.471,44.173,21.788,45.268"/>
<path fill="#FFFFFF" d="M20.911,36.934c-4.829-6.583-7.896-9.653-7.896-17.333c0-7.672,6.361-17.108,17.328-17.108
	c10.968,0,16.893,9.215,16.893,16.672c0,7.457-3.511,10.53-8.777,17.77c-5.265,7.239-7.138,9.651-8.662,9.651
	C28.052,46.585,25.735,43.514,20.911,36.934 M29.798,5.977c-7.768,0-14.069,6.298-14.069,14.061c0,7.771,6.302,14.07,14.069,14.07
	c7.767,0,14.061-6.299,14.061-14.07C43.858,12.275,37.564,5.977,29.798,5.977"/>
<path fill="#FFFFFF" d="M30.477,10.934c-0.221-0.221-0.581-0.221-0.8-0.001l-9.141,7.243c-0.112,0.113-0.713,0.921,0.626,0.921
	l1.953-0.004l-0.004,9.074c0,0.311,0.253,0.562,0.561,0.562h12.744c0.311,0,0.561-0.253,0.561-0.562l0.005-9.074l2.017-0.009
	c1.042,0,0.735-0.814,0.626-0.923L30.477,10.934z"/>
</svg>
