<?xml version="1.0" encoding="UTF-8" standalone="no"?>
<svg width="7680px" height="4320px" viewBox="0 0 7680 4320" version="1.1" xmlns="http://www.w3.org/2000/svg" xmlns:xlink="http://www.w3.org/1999/xlink" xmlns:sketch="http://www.bohemiancoding.com/sketch/ns">
    <!-- Generator: Sketch 3.4.2 (15855) - http://www.bohemiancoding.com/sketch -->
    <title>Rectangle 1 + Logo + Monogatari + All stories should b</title>
    <desc>Created with Sketch.</desc>
    <defs></defs>
    <g id="Page-2" stroke="none" stroke-width="1" fill="none" fill-rule="evenodd" sketch:type="MSPage">
        <g id="Rectangle-1-+-Logo-+-Monogatari-+-All-stories-should-b" sketch:type="MSLayerGroup">
            <rect id="Rectangle-1" fill="#F7F6F6" sketch:type="MSShapeGroup" x="0" y="0" width="7680" height="4320"></rect>
            <g id="Logo" transform="translate(172.000000, 693.000000)" sketch:type="MSShapeGroup">
                <path d="M781.317734,209.40147 C781.317734,-261.751838 991.135311,209.40147 1249.95841,209.40147 C1508.78151,209.40147 1718.59909,-261.751838 1718.59909,209.40147 C1718.59909,680.554778 1508.78151,1062.5 1249.95841,1062.5 C991.135311,1062.5 781.317734,680.554778 781.317734,209.40147 L781.317734,209.40147 Z" id="Oval-2-Copy-3" fill="#F16272"></path>
                <path d="M781.317734,1646.90147 C781.317734,1175.74816 991.135311,1646.90147 1249.95841,1646.90147 C1508.78151,1646.90147 1718.59909,1175.74816 1718.59909,1646.90147 C1718.59909,2118.05478 1508.78151,2500 1249.95841,2500 C991.135311,2500 781.317734,2118.05478 781.317734,1646.90147 L781.317734,1646.90147 Z" id="Oval-2-Copy-4" fill="#F16272" transform="translate(1249.958410, 1968.750000) scale(1, -1) translate(-1249.958410, -1968.750000) "></path>
                <path d="M1499.9001,928.15147 C1499.9001,456.998162 1709.71768,928.15147 1968.54078,928.15147 C2227.36388,928.15147 2437.18145,456.998162 2437.18145,928.15147 C2437.18145,1399.30478 2227.36388,1781.25 1968.54078,1781.25 C1709.71768,1781.25 1499.9001,1399.30478 1499.9001,928.15147 L1499.9001,928.15147 Z" id="Oval-2-Copy-6" fill="#F16272" transform="translate(1968.540779, 1250.000000) scale(-1, -1) rotate(270.000000) translate(-1968.540779, -1250.000000) "></path>
                <path d="M62.7353651,928.15147 C62.7353651,456.998162 272.552942,928.15147 531.376041,928.15147 C790.199139,928.15147 1000.01672,456.998162 1000.01672,928.15147 C1000.01672,1399.30478 790.199139,1781.25 531.376041,1781.25 C272.552942,1781.25 62.7353651,1399.30478 62.7353651,928.15147 L62.7353651,928.15147 Z" id="Oval-2-Copy-5" fill="#F16272" transform="translate(531.376041, 1250.000000) rotate(270.000000) translate(-531.376041, -1250.000000) "></path>
                <ellipse id="Oval-13-Copy" fill="#FFFFFF" cx="1249.95841" cy="781.25" rx="124.970847" ry="125"></ellipse>
                <ellipse id="Oval-13-Copy-3" fill="#FFFFFF" cx="1718.59909" cy="1250" rx="124.970847" ry="125"></ellipse>
                <ellipse id="Oval-13-Copy-4" fill="#FFFFFF" cx="781.317734" cy="1250" rx="124.970847" ry="125"></ellipse>
                <ellipse id="Oval-13-Copy-2" fill="#FFFFFF" cx="1249.95841" cy="1718.75" rx="124.970847" ry="125"></ellipse>
            </g>
            <g id="Monogatari-+-All-stories-should-b" transform="translate(2538.000000, 1823.000000)" fill="#696969" sketch:type="MSShapeGroup">
                <path d="M1168.9,9.45 L1168.9,511 L1109.4,511 L1109.4,142.45 C1109.4,137.549975 1109.575,132.300028 1109.925,126.7 C1110.275,121.099972 1110.68333,115.383362 1111.15,109.55 L938.95,423.15 C933.583307,433.650052 925.416722,438.9 914.45,438.9 L904.65,438.9 C893.683279,438.9 885.516694,433.650052 880.15,423.15 L704.45,108.15 C705.850007,120.516728 706.55,131.949948 706.55,142.45 L706.55,511 L647.05,511 L647.05,9.45 L697.1,9.45 C703.166697,9.45 707.833317,10.0333275 711.1,11.2 C714.366683,12.3666725 717.516652,15.6333065 720.55,21 L893.8,329.7 C896.600014,335.300028 899.341653,341.133303 902.025,347.2 C904.708347,353.266697 907.216655,359.449968 909.55,365.75 C911.883345,359.449968 914.333321,353.208364 916.9,347.025 C919.46668,340.841636 922.266652,334.950028 925.3,329.35 L1095.4,21 C1098.20001,15.6333065 1101.29165,12.3666725 1104.675,11.2 C1108.05835,10.0333275 1112.7833,9.45 1118.85,9.45 L1168.9,9.45 Z M1420.9,150.85 C1446.80013,150.85 1470.13323,155.166623 1490.9,163.8 C1511.66677,172.433376 1529.39993,184.683254 1544.1,200.55 C1558.80007,216.416746 1570.05829,235.608221 1577.875,258.125 C1585.69171,280.641779 1589.6,305.783195 1589.6,333.55 C1589.6,361.55014 1585.69171,386.749888 1577.875,409.15 C1570.05829,431.550112 1558.80007,450.683254 1544.1,466.55 C1529.39993,482.416746 1511.66677,494.608291 1490.9,503.125 C1470.13323,511.641709 1446.80013,515.9 1420.9,515.9 C1394.76654,515.9 1371.25844,511.641709 1350.375,503.125 C1329.49156,494.608291 1311.70007,482.416746 1297,466.55 C1282.29993,450.683254 1271.04171,431.550112 1263.225,409.15 C1255.40829,386.749888 1251.5,361.55014 1251.5,333.55 C1251.5,305.783195 1255.40829,280.641779 1263.225,258.125 C1271.04171,235.608221 1282.29993,216.416746 1297,200.55 C1311.70007,184.683254 1329.49156,172.433376 1350.375,163.8 C1371.25844,155.166623 1394.76654,150.85 1420.9,150.85 L1420.9,150.85 Z M1420.9,467.25 C1455.90017,467.25 1482.03325,455.525117 1499.3,432.075 C1516.56675,408.624883 1525.2,375.90021 1525.2,333.9 C1525.2,291.666455 1516.56675,258.766784 1499.3,235.2 C1482.03325,211.633215 1455.90017,199.85 1420.9,199.85 C1403.16658,199.85 1387.7084,202.883303 1374.525,208.95 C1361.3416,215.016697 1350.37504,223.766609 1341.625,235.2 C1332.87496,246.63339 1326.34169,260.691583 1322.025,277.375 C1317.70831,294.058417 1315.55,312.899895 1315.55,333.9 C1315.55,375.90021 1324.24158,408.624883 1341.625,432.075 C1359.00842,455.525117 1385.43316,467.25 1420.9,467.25 L1420.9,467.25 Z M1727.15,207.9 C1734.85004,199.266624 1743.01662,191.450035 1751.65,184.45 C1760.28338,177.449965 1769.44162,171.441692 1779.125,166.425 C1788.80838,161.408308 1799.07495,157.558347 1809.925,154.875 C1820.77505,152.191653 1832.49994,150.85 1845.1,150.85 C1864.46676,150.85 1881.55826,154.058301 1896.375,160.475 C1911.19174,166.891699 1923.55828,175.991608 1933.475,187.775 C1943.39172,199.558392 1950.91664,213.73325 1956.05,230.3 C1961.18336,246.866749 1963.75,265.183233 1963.75,285.25 L1963.75,511 L1901.1,511 L1901.1,285.25 C1901.1,258.416533 1894.97506,237.591741 1882.725,222.775 C1870.47494,207.958259 1851.86679,200.55 1826.9,200.55 C1808.46657,200.55 1791.25841,204.983289 1775.275,213.85 C1759.29159,222.716711 1744.5334,234.733258 1731,249.9 L1731,511 L1668.35,511 L1668.35,156.45 L1705.8,156.45 C1714.66671,156.45 1720.14999,160.766623 1722.25,169.4 L1727.15,207.9 Z M2208.4,150.85 C2234.30013,150.85 2257.63323,155.166623 2278.4,163.8 C2299.16677,172.433376 2316.89993,184.683254 2331.6,200.55 C2346.30007,216.416746 2357.55829,235.608221 2365.375,258.125 C2373.19171,280.641779 2377.1,305.783195 2377.1,333.55 C2377.1,361.55014 2373.19171,386.749888 2365.375,409.15 C2357.55829,431.550112 2346.30007,450.683254 2331.6,466.55 C2316.89993,482.416746 2299.16677,494.608291 2278.4,503.125 C2257.63323,511.641709 2234.30013,515.9 2208.4,515.9 C2182.26654,515.9 2158.75844,511.641709 2137.875,503.125 C2116.99156,494.608291 2099.20007,482.416746 2084.5,466.55 C2069.79993,450.683254 2058.54171,431.550112 2050.725,409.15 C2042.90829,386.749888 2039,361.55014 2039,333.55 C2039,305.783195 2042.90829,280.641779 2050.725,258.125 C2058.54171,235.608221 2069.79993,216.416746 2084.5,200.55 C2099.20007,184.683254 2116.99156,172.433376 2137.875,163.8 C2158.75844,155.166623 2182.26654,150.85 2208.4,150.85 L2208.4,150.85 Z M2208.4,467.25 C2243.40017,467.25 2269.53325,455.525117 2286.8,432.075 C2304.06675,408.624883 2312.7,375.90021 2312.7,333.9 C2312.7,291.666455 2304.06675,258.766784 2286.8,235.2 C2269.53325,211.633215 2243.40017,199.85 2208.4,199.85 C2190.66658,199.85 2175.2084,202.883303 2162.025,208.95 C2148.8416,215.016697 2137.87504,223.766609 2129.125,235.2 C2120.37496,246.63339 2113.84169,260.691583 2109.525,277.375 C2105.20831,294.058417 2103.05,312.899895 2103.05,333.9 C2103.05,375.90021 2111.74158,408.624883 2129.125,432.075 C2146.50842,455.525117 2172.93316,467.25 2208.4,467.25 L2208.4,467.25 Z M2577.65,337.75 C2590.25006,337.75 2601.33329,336.000018 2610.9,332.5 C2620.46671,328.999982 2628.51663,324.100032 2635.05,317.8 C2641.58337,311.499969 2646.48332,303.975044 2649.75,295.225 C2653.01668,286.474956 2654.65,276.850052 2654.65,266.35 C2654.65,244.649891 2648.0584,227.383397 2634.875,214.55 C2621.6916,201.716602 2602.61679,195.3 2577.65,195.3 C2552.44987,195.3 2533.2584,201.716602 2520.075,214.55 C2506.8916,227.383397 2500.3,244.649891 2500.3,266.35 C2500.3,276.850052 2501.99165,286.474956 2505.375,295.225 C2508.75835,303.975044 2513.71663,311.499969 2520.25,317.8 C2526.78337,324.100032 2534.83329,328.999982 2544.4,332.5 C2553.96671,336.000018 2565.04994,337.75 2577.65,337.75 L2577.65,337.75 Z M2690,530.25 C2690,521.616624 2687.55002,514.616693 2682.65,509.25 C2677.74998,503.883306 2671.15837,499.683348 2662.875,496.65 C2654.59163,493.616651 2644.96672,491.45834 2634,490.175 C2623.03328,488.89166 2611.42506,487.900003 2599.175,487.2 C2586.92494,486.499996 2574.50006,485.800003 2561.9,485.1 C2549.29994,484.399996 2537.16673,483.233341 2525.5,481.6 C2512.43327,487.666697 2501.75837,495.308287 2493.475,504.525 C2485.19163,513.741713 2481.05,524.533271 2481.05,536.9 C2481.05,544.833373 2483.09165,552.241632 2487.175,559.125 C2491.25835,566.008368 2497.49996,571.958308 2505.9,576.975 C2514.30004,581.991692 2524.85827,585.958319 2537.575,588.875 C2550.29173,591.791681 2565.28325,593.25 2582.55,593.25 C2599.35008,593.25 2614.39993,591.733348 2627.7,588.7 C2641.00007,585.666651 2652.25829,581.350028 2661.475,575.75 C2670.69171,570.149972 2677.74998,563.500039 2682.65,555.8 C2687.55002,548.099962 2690,539.58338 2690,530.25 L2690,530.25 Z M2753.35,170.45 L2753.35,193.55 C2753.35,201.250038 2748.45005,206.149989 2738.65,208.25 L2698.4,213.5 C2706.33337,228.900077 2710.3,245.93324 2710.3,264.6 C2710.3,281.866753 2706.97503,297.558263 2700.325,311.675 C2693.67497,325.791737 2684.51672,337.866616 2672.85,347.9 C2661.18327,357.933383 2647.18341,365.633307 2630.85,371 C2614.51658,376.366693 2596.78343,379.05 2577.65,379.05 C2561.08325,379.05 2545.45007,377.066686 2530.75,373.1 C2523.2833,377.76669 2517.56669,382.724974 2513.6,387.975 C2509.63331,393.225026 2507.65,398.533306 2507.65,403.9 C2507.65,412.300042 2511.09163,418.658312 2517.975,422.975 C2524.85837,427.291688 2533.89994,430.383324 2545.1,432.25 C2556.30006,434.116676 2569.07493,435.283331 2583.425,435.75 C2597.77507,436.216669 2612.47492,436.974995 2627.525,438.025 C2642.57508,439.075005 2657.27493,440.88332 2671.625,443.45 C2685.97507,446.01668 2698.74994,450.216638 2709.95,456.05 C2721.15006,461.883362 2730.19163,469.933282 2737.075,480.2 C2743.95837,490.466718 2747.4,503.766585 2747.4,520.1 C2747.4,535.266742 2743.60837,549.966596 2736.025,564.2 C2728.44163,578.433405 2717.5334,591.091611 2703.3,602.175 C2689.0666,613.258389 2671.6251,622.124967 2650.975,628.775 C2630.3249,635.425033 2607.05013,638.75 2581.15,638.75 C2555.24987,638.75 2532.61676,636.183359 2513.25,631.05 C2493.88324,625.916641 2477.7834,619.033377 2464.95,610.4 C2452.1166,601.766624 2442.4917,591.791723 2436.075,580.475 C2429.6583,569.158277 2426.45,557.316728 2426.45,544.95 C2426.45,527.449912 2431.93328,512.633394 2442.9,500.5 C2453.86672,488.366606 2468.91657,478.68337 2488.05,471.45 C2477.54995,466.78331 2469.20836,460.541706 2463.025,452.725 C2456.84164,444.908294 2453.75,434.350067 2453.75,421.05 C2453.75,415.916641 2454.68332,410.608361 2456.55,405.125 C2458.41668,399.641639 2461.27498,394.158361 2465.125,388.675 C2468.97502,383.191639 2473.69997,378.000024 2479.3,373.1 C2484.90003,368.199976 2491.4333,363.883352 2498.9,360.15 C2481.39991,350.349951 2467.75005,337.341748 2457.95,321.125 C2448.14995,304.908252 2443.25,286.066774 2443.25,264.6 C2443.25,247.333247 2446.57497,231.641737 2453.225,217.525 C2459.87503,203.408263 2469.14994,191.391716 2481.05,181.475 C2492.95006,171.558284 2507.12492,163.916693 2523.575,158.55 C2540.02508,153.183306 2558.0499,150.5 2577.65,150.5 C2593.05008,150.5 2607.39993,152.19165 2620.7,155.575 C2634.00007,158.95835 2646.13328,163.916634 2657.1,170.45 L2753.35,170.45 Z M3010.25,351.4 C2981.54986,352.333338 2957.10843,354.608315 2936.925,358.225 C2916.74157,361.841685 2900.29173,366.566637 2887.575,372.4 C2874.85827,378.233362 2865.6417,385.116627 2859.925,393.05 C2854.2083,400.983373 2851.35,409.849951 2851.35,419.65 C2851.35,428.98338 2852.86665,437.033299 2855.9,443.8 C2858.93335,450.5667 2863.07497,456.108312 2868.325,460.425 C2873.57503,464.741688 2879.7583,467.891657 2886.875,469.875 C2893.9917,471.858343 2901.63329,472.85 2909.8,472.85 C2920.76672,472.85 2930.79995,471.741678 2939.9,469.525 C2949.00005,467.308322 2957.57496,464.100021 2965.625,459.9 C2973.67504,455.699979 2981.37496,450.683362 2988.725,444.85 C2996.07504,439.016637 3003.24996,432.366704 3010.25,424.9 L3010.25,351.4 Z M2809,206.5 C2828.6001,187.599905 2849.71655,173.48338 2872.35,164.15 C2894.98345,154.81662 2920.06653,150.15 2947.6,150.15 C2967.43343,150.15 2985.04992,153.416634 3000.45,159.95 C3015.85008,166.483366 3028.79995,175.583275 3039.3,187.25 C3049.80005,198.916725 3057.73331,213.03325 3063.1,229.6 C3068.46669,246.166749 3071.15,264.366567 3071.15,284.2 L3071.15,511 L3043.5,511 C3037.4333,511 3032.76668,510.008343 3029.5,508.025 C3026.23332,506.041657 3023.66668,502.133362 3021.8,496.3 L3014.8,462.7 C3005.46662,471.333376 2996.36671,478.974967 2987.5,485.625 C2978.63329,492.275033 2969.30005,497.874977 2959.5,502.425 C2949.69995,506.975023 2939.25839,510.474988 2928.175,512.925 C2917.09161,515.375012 2904.7834,516.6 2891.25,516.6 C2877.48326,516.6 2864.53339,514.675019 2852.4,510.825 C2840.26661,506.974981 2829.70838,501.200039 2820.725,493.5 C2811.74162,485.799961 2804.62503,476.058392 2799.375,464.275 C2794.12497,452.491608 2791.5,438.55008 2791.5,422.45 C2791.5,408.44993 2795.34996,394.975065 2803.05,382.025 C2810.75004,369.074935 2823.23325,357.583383 2840.5,347.55 C2857.76675,337.516617 2880.28319,329.291699 2908.05,322.875 C2935.81681,316.458301 2969.88313,312.783338 3010.25,311.85 L3010.25,284.2 C3010.25,256.666529 3004.30006,235.841737 2992.4,221.725 C2980.49994,207.608263 2963.11678,200.55 2940.25,200.55 C2924.84992,200.55 2911.95839,202.474981 2901.575,206.325 C2891.19161,210.175019 2882.20837,214.491643 2874.625,219.275 C2867.04163,224.058357 2860.50836,228.374981 2855.025,232.225 C2849.54164,236.075019 2844.11669,238 2838.75,238 C2834.54998,238 2830.93335,236.891678 2827.9,234.675 C2824.86665,232.458322 2822.30001,229.716683 2820.2,226.45 L2809,206.5 Z M3270.3,516.6 C3242.29986,516.6 3220.77508,508.783411 3205.725,493.15 C3190.67492,477.516588 3183.15,455.000147 3183.15,425.6 L3183.15,208.6 L3140.45,208.6 C3136.71665,208.6 3133.56668,207.491678 3131,205.275 C3128.43332,203.058322 3127.15,199.61669 3127.15,194.95 L3127.15,170.1 L3185.25,162.75 L3199.6,53.2 C3200.3,49.6999825 3201.87499,46.8416777 3204.325,44.625 C3206.77501,42.4083222 3209.98331,41.3 3213.95,41.3 L3245.45,41.3 L3245.45,163.45 L3348,163.45 L3348,208.6 L3245.45,208.6 L3245.45,421.4 C3245.45,436.333408 3249.06663,447.41663 3256.3,454.65 C3263.53337,461.883369 3272.86661,465.5 3284.3,465.5 C3290.83337,465.5 3296.49164,464.625009 3301.275,462.875 C3306.05836,461.124991 3310.19998,459.20001 3313.7,457.1 C3317.20002,454.999989 3320.17499,453.075009 3322.625,451.325 C3325.07501,449.574991 3327.23332,448.7 3329.1,448.7 C3332.36668,448.7 3335.28332,450.683313 3337.85,454.65 L3356.05,484.4 C3345.31661,494.433383 3332.36674,502.308305 3317.2,508.025 C3302.03326,513.741695 3286.40008,516.6 3270.3,516.6 L3270.3,516.6 Z M3604.55,351.4 C3575.84986,352.333338 3551.40843,354.608315 3531.225,358.225 C3511.04157,361.841685 3494.59173,366.566637 3481.875,372.4 C3469.15827,378.233362 3459.9417,385.116627 3454.225,393.05 C3448.5083,400.983373 3445.65,409.849951 3445.65,419.65 C3445.65,428.98338 3447.16665,437.033299 3450.2,443.8 C3453.23335,450.5667 3457.37497,456.108312 3462.625,460.425 C3467.87503,464.741688 3474.0583,467.891657 3481.175,469.875 C3488.2917,471.858343 3495.93329,472.85 3504.1,472.85 C3515.06672,472.85 3525.09995,471.741678 3534.2,469.525 C3543.30005,467.308322 3551.87496,464.100021 3559.925,459.9 C3567.97504,455.699979 3575.67496,450.683362 3583.025,444.85 C3590.37504,439.016637 3597.54997,432.366704 3604.55,424.9 L3604.55,351.4 Z M3403.3,206.5 C3422.9001,187.599905 3444.01655,173.48338 3466.65,164.15 C3489.28345,154.81662 3514.36653,150.15 3541.9,150.15 C3561.73343,150.15 3579.34992,153.416634 3594.75,159.95 C3610.15008,166.483366 3623.09995,175.583275 3633.6,187.25 C3644.10005,198.916725 3652.03331,213.03325 3657.4,229.6 C3662.76669,246.166749 3665.45,264.366567 3665.45,284.2 L3665.45,511 L3637.8,511 C3631.7333,511 3627.06668,510.008343 3623.8,508.025 C3620.53332,506.041657 3617.96668,502.133362 3616.1,496.3 L3609.1,462.7 C3599.76662,471.333376 3590.66671,478.974967 3581.8,485.625 C3572.93329,492.275033 3563.60005,497.874977 3553.8,502.425 C3543.99995,506.975023 3533.55839,510.474988 3522.475,512.925 C3511.39161,515.375012 3499.0834,516.6 3485.55,516.6 C3471.78326,516.6 3458.83339,514.675019 3446.7,510.825 C3434.56661,506.974981 3424.00838,501.200039 3415.025,493.5 C3406.04162,485.799961 3398.92503,476.058392 3393.675,464.275 C3388.42497,452.491608 3385.8,438.55008 3385.8,422.45 C3385.8,408.44993 3389.64996,394.975065 3397.35,382.025 C3405.05004,369.074935 3417.53325,357.583383 3434.8,347.55 C3452.06675,337.516617 3474.58319,329.291699 3502.35,322.875 C3530.11681,316.458301 3564.18313,312.783338 3604.55,311.85 L3604.55,284.2 C3604.55,256.666529 3598.60006,235.841737 3586.7,221.725 C3574.79994,207.608263 3557.41678,200.55 3534.55,200.55 C3519.14992,200.55 3506.25839,202.474981 3495.875,206.325 C3485.49161,210.175019 3476.50837,214.491643 3468.925,219.275 C3461.34163,224.058357 3454.80836,228.374981 3449.325,232.225 C3443.84164,236.075019 3438.41669,238 3433.05,238 C3428.84998,238 3425.23335,236.891678 3422.2,234.675 C3419.16665,232.458322 3416.60001,229.716683 3414.5,226.45 L3403.3,206.5 Z M3819.45,227.5 C3830.65006,203.233212 3844.41658,184.275068 3860.75,170.625 C3877.08342,156.974932 3897.03322,150.15 3920.6,150.15 C3928.0667,150.15 3935.24163,150.966658 3942.125,152.6 C3949.00837,154.233341 3955.13331,156.799982 3960.5,160.3 L3955.95,206.85 C3954.54999,212.683362 3951.05003,215.6 3945.45,215.6 C3942.18332,215.6 3937.40003,214.900007 3931.1,213.5 C3924.79997,212.099993 3917.68337,211.4 3909.75,211.4 C3898.54994,211.4 3888.57504,213.033317 3879.825,216.3 C3871.07496,219.566683 3863.25837,224.408301 3856.375,230.825 C3849.49163,237.241699 3843.30836,245.174953 3837.825,254.625 C3832.34164,264.075047 3827.38336,274.866606 3822.95,287 L3822.95,511 L3760.3,511 L3760.3,156.45 L3796,156.45 C3802.7667,156.45 3807.43332,157.73332 3810,160.3 C3812.56668,162.866679 3814.31666,167.299968 3815.25,173.6 L3819.45,227.5 Z M4080.9,156.45 L4080.9,511 L4018.6,511 L4018.6,156.45 L4080.9,156.45 Z M4094.2,45.15 C4094.2,51.216697 4092.97501,56.8749737 4090.525,62.125 C4088.07499,67.3750263 4084.80835,72.0416462 4080.725,76.125 C4076.64165,80.2083538 4071.85836,83.416655 4066.375,85.75 C4060.89164,88.083345 4055.1167,89.25 4049.05,89.25 C4042.9833,89.25 4037.32503,88.083345 4032.075,85.75 C4026.82497,83.416655 4022.21669,80.2083538 4018.25,76.125 C4014.28331,72.0416462 4011.13335,67.3750263 4008.8,62.125 C4006.46666,56.8749737 4005.3,51.216697 4005.3,45.15 C4005.3,39.083303 4006.46666,33.3083608 4008.8,27.825 C4011.13335,22.3416392 4014.28331,17.5583537 4018.25,13.475 C4022.21669,9.39164625 4026.82497,6.183345 4032.075,3.85 C4037.32503,1.516655 4042.9833,0.35 4049.05,0.35 C4055.1167,0.35 4060.89164,1.516655 4066.375,3.85 C4071.85836,6.183345 4076.64165,9.39164625 4080.725,13.475 C4084.80835,17.5583537 4088.07499,22.3416392 4090.525,27.825 C4092.97501,33.3083608 4094.2,39.083303 4094.2,45.15 L4094.2,45.15 Z" id="Monogatari"></path>
                <path d="M88.7,841.2 L88.6,857 L0.3,857 L0.3,713.7 L88.6,713.7 L88.6,729.5 L19.7,729.5 L19.7,777.1 L75.5,777.1 L75.5,792.3 L19.7,792.3 L19.7,841.2 L88.7,841.2 Z M193.8,755.7 L152.5,857 L136.5,857 L95.2,755.7 L109.7,755.7 C111.166674,755.7 112.366662,756.066663 113.3,756.8 C114.233338,757.533337 114.866665,758.399995 115.2,759.4 L140.9,824.6 C141.700004,827.066679 142.399997,829.466655 143,831.8 C143.600003,834.133345 144.166664,836.466655 144.7,838.8 C145.233336,836.466655 145.799997,834.133345 146.4,831.8 C147.000003,829.466655 147.733329,827.066679 148.6,824.6 L174.6,759.4 C175.000002,758.333328 175.666662,757.450003 176.6,756.75 C177.533338,756.049996 178.633327,755.7 179.9,755.7 L193.8,755.7 Z M275.2,795.3 C275.2,791.166646 274.616673,787.38335 273.45,783.95 C272.283328,780.516649 270.583345,777.550012 268.35,775.05 C266.116656,772.549987 263.400016,770.616673 260.2,769.25 C256.999984,767.883326 253.366687,767.2 249.3,767.2 C240.766624,767.2 234.016692,769.683308 229.05,774.65 C224.083309,779.616691 221.000006,786.499956 219.8,795.3 L275.2,795.3 Z M289.6,842.8 C287.399989,845.46668 284.766682,847.783323 281.7,849.75 C278.633318,851.716676 275.350018,853.333327 271.85,854.6 C268.349983,855.866673 264.733352,856.816663 261,857.45 C257.266648,858.083336 253.566685,858.4 249.9,858.4 C242.899965,858.4 236.45003,857.216678 230.55,854.85 C224.649971,852.483321 219.550022,849.016689 215.25,844.45 C210.949979,839.88331 207.600012,834.233367 205.2,827.5 C202.799988,820.766633 201.6,813.033377 201.6,804.3 C201.6,797.233298 202.683323,790.633364 204.85,784.5 C207.016678,778.366636 210.133313,773.050022 214.2,768.55 C218.266687,764.049977 223.233304,760.516679 229.1,757.95 C234.966696,755.38332 241.56663,754.1 248.9,754.1 C254.966697,754.1 260.583308,755.116656 265.75,757.15 C270.916693,759.183343 275.383315,762.116647 279.15,765.95 C282.916686,769.783352 285.866656,774.516638 288,780.15 C290.133344,785.783361 291.2,792.199964 291.2,799.4 C291.2,802.200014 290.900003,804.066662 290.3,805 C289.699997,805.933338 288.566675,806.4 286.9,806.4 L219.2,806.4 C219.400001,812.800032 220.283326,818.366643 221.85,823.1 C223.416675,827.833357 225.599986,831.783317 228.4,834.95 C231.200014,838.116682 234.533314,840.483325 238.4,842.05 C242.266686,843.616674 246.599976,844.4 251.4,844.4 C255.866689,844.4 259.716651,843.883338 262.95,842.85 C266.18335,841.816661 268.966655,840.700006 271.3,839.5 C273.633345,838.299994 275.583326,837.183338 277.15,836.15 C278.716675,835.116661 280.066661,834.6 281.2,834.6 C282.666674,834.6 283.799996,835.166661 284.6,836.3 L289.6,842.8 Z M329.9,776 C333.100016,769.066632 337.03331,763.650019 341.7,759.75 C346.36669,755.84998 352.066633,753.9 358.8,753.9 C360.933344,753.9 362.983324,754.133331 364.95,754.6 C366.916677,755.066669 368.666659,755.799995 370.2,756.8 L368.9,770.1 C368.499998,771.766675 367.500008,772.6 365.9,772.6 C364.966662,772.6 363.600009,772.400002 361.8,772 C359.999991,771.599998 357.966678,771.4 355.7,771.4 C352.499984,771.4 349.650013,771.866662 347.15,772.8 C344.649988,773.733338 342.416677,775.116657 340.45,776.95 C338.483324,778.783342 336.716675,781.049986 335.15,783.75 C333.583326,786.450013 332.166673,789.533316 330.9,793 L330.9,857 L313,857 L313,755.7 L323.2,755.7 C325.133343,755.7 326.466663,756.066663 327.2,756.8 C327.933337,757.533337 328.433332,758.799991 328.7,760.6 L329.9,776 Z M473.2,755.7 L416.7,886.9 C416.099997,888.23334 415.350005,889.299996 414.45,890.1 C413.549996,890.900004 412.166676,891.3 410.3,891.3 L397.1,891.3 L415.6,851.1 L373.8,755.7 L389.2,755.7 C390.733341,755.7 391.949996,756.083329 392.85,756.85 C393.750005,757.61667 394.366665,758.466662 394.7,759.4 L421.8,823.2 C422.866672,826.000014 423.766663,828.933318 424.5,832 C425.433338,828.866651 426.433328,825.900014 427.5,823.1 L453.8,759.4 C454.200002,758.333328 454.883329,757.450003 455.85,756.75 C456.816672,756.049996 457.899994,755.7 459.1,755.7 L473.2,755.7 Z M594.2,772.4 C593.399996,773.866674 592.166675,774.6 590.5,774.6 C589.499995,774.6 588.366673,774.233337 587.1,773.5 C585.833327,772.766663 584.283343,771.950004 582.45,771.05 C580.616658,770.149995 578.433346,769.31667 575.9,768.55 C573.366654,767.783329 570.366684,767.4 566.9,767.4 C563.899985,767.4 561.200012,767.783329 558.8,768.55 C556.399988,769.31667 554.350009,770.36666 552.65,771.7 C550.949992,773.03334 549.650005,774.583324 548.75,776.35 C547.849996,778.116675 547.4,780.033323 547.4,782.1 C547.4,784.700013 548.149993,786.866658 549.65,788.6 C551.150008,790.333342 553.133321,791.833327 555.6,793.1 C558.066679,794.366673 560.866651,795.483328 564,796.45 C567.133349,797.416671 570.349984,798.449994 573.65,799.55 C576.950017,800.650005 580.166651,801.86666 583.3,803.2 C586.433349,804.53334 589.233321,806.19999 591.7,808.2 C594.166679,810.20001 596.149993,812.649985 597.65,815.55 C599.150008,818.450014 599.9,821.933313 599.9,826 C599.9,830.66669 599.066675,834.983313 597.4,838.95 C595.733325,842.916686 593.266683,846.349985 590,849.25 C586.733317,852.150014 582.733357,854.433325 578,856.1 C573.266643,857.766675 567.800031,858.6 561.6,858.6 C554.533298,858.6 548.133362,857.450011 542.4,855.15 C536.666638,852.849988 531.80002,849.900018 527.8,846.3 L532,839.5 C532.533336,838.633329 533.166663,837.966669 533.9,837.5 C534.633337,837.033331 535.566661,836.8 536.7,836.8 C537.900006,836.8 539.16666,837.266662 540.5,838.2 C541.83334,839.133338 543.449991,840.166661 545.35,841.3 C547.25001,842.433339 549.566653,843.466662 552.3,844.4 C555.033347,845.333338 558.433313,845.8 562.5,845.8 C565.966684,845.8 568.999987,845.350004 571.6,844.45 C574.200013,843.549995 576.366658,842.333341 578.1,840.8 C579.833342,839.266659 581.116663,837.50001 581.95,835.5 C582.783338,833.49999 583.2,831.366678 583.2,829.1 C583.2,826.299986 582.450008,823.983342 580.95,822.15 C579.449993,820.316657 577.466679,818.750006 575,817.45 C572.533321,816.149993 569.716683,815.016671 566.55,814.05 C563.383318,813.083328 560.150017,812.066672 556.85,811 C553.549984,809.933328 550.316683,808.716673 547.15,807.35 C543.983318,805.983326 541.166679,804.266677 538.7,802.2 C536.233321,800.133323 534.250008,797.583348 532.75,794.55 C531.249993,791.516651 530.5,787.833355 530.5,783.5 C530.5,779.633314 531.299992,775.916684 532.9,772.35 C534.500008,768.783315 536.833318,765.650013 539.9,762.95 C542.966682,760.249986 546.733311,758.100008 551.2,756.5 C555.666689,754.899992 560.766638,754.1 566.5,754.1 C573.1667,754.1 579.149974,755.149989 584.45,757.25 C589.750027,759.35001 594.333314,762.233315 598.2,765.9 L594.2,772.4 Z M652.9,858.6 C644.89996,858.6 638.750022,856.366689 634.45,851.9 C630.149979,847.433311 628,841.000042 628,832.6 L628,770.6 L615.8,770.6 C614.733328,770.6 613.833337,770.283336 613.1,769.65 C612.366663,769.016663 612,768.03334 612,766.7 L612,759.6 L628.6,757.5 L632.7,726.2 C632.900001,725.199995 633.349997,724.383336 634.05,723.75 C634.750004,723.116663 635.666661,722.8 636.8,722.8 L645.8,722.8 L645.8,757.7 L675.1,757.7 L675.1,770.6 L645.8,770.6 L645.8,831.4 C645.8,835.666688 646.833323,838.833323 648.9,840.9 C650.966677,842.966677 653.633317,844 656.9,844 C658.766676,844 660.383327,843.750002 661.75,843.25 C663.116674,842.749997 664.299995,842.200003 665.3,841.6 C666.300005,840.999997 667.149997,840.450002 667.85,839.95 C668.550004,839.449997 669.166664,839.2 669.7,839.2 C670.633338,839.2 671.466663,839.766661 672.2,840.9 L677.4,849.4 C674.333318,852.266681 670.633355,854.516658 666.3,856.15 C661.966645,857.783341 657.500023,858.6 652.9,858.6 L652.9,858.6 Z M735.7,754.1 C743.100037,754.1 749.766637,755.333321 755.7,757.8 C761.633363,760.266679 766.699979,763.766644 770.9,768.3 C775.100021,772.833356 778.316656,778.316634 780.55,784.75 C782.783345,791.183365 783.9,798.366627 783.9,806.3 C783.9,814.30004 782.783345,821.499968 780.55,827.9 C778.316656,834.300032 775.100021,839.766644 770.9,844.3 C766.699979,848.833356 761.633363,852.316654 755.7,854.75 C749.766637,857.183345 743.100037,858.4 735.7,858.4 C728.233296,858.4 721.516697,857.183345 715.55,854.75 C709.583304,852.316654 704.500021,848.833356 700.3,844.3 C696.099979,839.766644 692.883345,834.300032 690.65,827.9 C688.416656,821.499968 687.3,814.30004 687.3,806.3 C687.3,798.366627 688.416656,791.183365 690.65,784.75 C692.883345,778.316634 696.099979,772.833356 700.3,768.3 C704.500021,763.766644 709.583304,760.266679 715.55,757.8 C721.516697,755.333321 728.233296,754.1 735.7,754.1 L735.7,754.1 Z M735.7,844.5 C745.70005,844.5 753.166642,841.150033 758.1,834.45 C763.033358,827.749966 765.5,818.40006 765.5,806.4 C765.5,794.333273 763.033358,784.933367 758.1,778.2 C753.166642,771.466633 745.70005,768.1 735.7,768.1 C730.633308,768.1 726.216686,768.966658 722.45,770.7 C718.683315,772.433342 715.550013,774.933317 713.05,778.2 C710.549988,781.466683 708.68334,785.483309 707.45,790.25 C706.216661,795.01669 705.6,800.39997 705.6,806.4 C705.6,818.40006 708.083309,827.749966 713.05,834.45 C718.016692,841.150033 725.566616,844.5 735.7,844.5 L735.7,844.5 Z M823.3,776 C826.500016,769.066632 830.43331,763.650019 835.1,759.75 C839.76669,755.84998 845.466633,753.9 852.2,753.9 C854.333344,753.9 856.383324,754.133331 858.35,754.6 C860.316677,755.066669 862.066659,755.799995 863.6,756.8 L862.3,770.1 C861.899998,771.766675 860.900008,772.6 859.3,772.6 C858.366662,772.6 857.000009,772.400002 855.2,772 C853.399991,771.599998 851.366678,771.4 849.1,771.4 C845.899984,771.4 843.050013,771.866662 840.55,772.8 C838.049988,773.733338 835.816677,775.116657 833.85,776.95 C831.883324,778.783342 830.116675,781.049986 828.55,783.75 C826.983326,786.450013 825.566673,789.533316 824.3,793 L824.3,857 L806.4,857 L806.4,755.7 L816.6,755.7 C818.533343,755.7 819.866663,756.066663 820.6,756.8 C821.333337,757.533337 821.833332,758.799991 822.1,760.6 L823.3,776 Z M966.6,755.7 L910.1,886.9 C909.499997,888.23334 908.750005,889.299996 907.85,890.1 C906.949996,890.900004 905.566676,891.3 903.7,891.3 L890.5,891.3 L909,851.1 L867.2,755.7 L882.6,755.7 C884.133341,755.7 885.349996,756.083329 886.25,756.85 C887.150005,757.61667 887.766665,758.466662 888.1,759.4 L915.2,823.2 C916.266672,826.000014 917.166663,828.933318 917.9,832 C918.833338,828.866651 919.833328,825.900014 920.9,823.1 L947.2,759.4 C947.600002,758.333328 948.283329,757.450003 949.25,756.75 C950.216672,756.049996 951.299994,755.7 952.5,755.7 L966.6,755.7 Z M1087.6,772.4 C1086.8,773.866674 1085.56668,774.6 1083.9,774.6 C1082.9,774.6 1081.76667,774.233337 1080.5,773.5 C1079.23333,772.766663 1077.68334,771.950004 1075.85,771.05 C1074.01666,770.149995 1071.83335,769.31667 1069.3,768.55 C1066.76665,767.783329 1063.76668,767.4 1060.3,767.4 C1057.29999,767.4 1054.60001,767.783329 1052.2,768.55 C1049.79999,769.31667 1047.75001,770.36666 1046.05,771.7 C1044.34999,773.03334 1043.05,774.583324 1042.15,776.35 C1041.25,778.116675 1040.8,780.033323 1040.8,782.1 C1040.8,784.700013 1041.54999,786.866658 1043.05,788.6 C1044.55001,790.333342 1046.53332,791.833327 1049,793.1 C1051.46668,794.366673 1054.26665,795.483328 1057.4,796.45 C1060.53335,797.416671 1063.74998,798.449994 1067.05,799.55 C1070.35002,800.650005 1073.56665,801.86666 1076.7,803.2 C1079.83335,804.53334 1082.63332,806.19999 1085.1,808.2 C1087.56668,810.20001 1089.54999,812.649985 1091.05,815.55 C1092.55001,818.450014 1093.3,821.933313 1093.3,826 C1093.3,830.66669 1092.46668,834.983313 1090.8,838.95 C1089.13333,842.916686 1086.66668,846.349985 1083.4,849.25 C1080.13332,852.150014 1076.13336,854.433325 1071.4,856.1 C1066.66664,857.766675 1061.20003,858.6 1055,858.6 C1047.9333,858.6 1041.53336,857.450011 1035.8,855.15 C1030.06664,852.849988 1025.20002,849.900018 1021.2,846.3 L1025.4,839.5 C1025.93334,838.633329 1026.56666,837.966669 1027.3,837.5 C1028.03334,837.033331 1028.96666,836.8 1030.1,836.8 C1031.30001,836.8 1032.56666,837.266662 1033.9,838.2 C1035.23334,839.133338 1036.84999,840.166661 1038.75,841.3 C1040.65001,842.433339 1042.96665,843.466662 1045.7,844.4 C1048.43335,845.333338 1051.83331,845.8 1055.9,845.8 C1059.36668,845.8 1062.39999,845.350004 1065,844.45 C1067.60001,843.549995 1069.76666,842.333341 1071.5,840.8 C1073.23334,839.266659 1074.51666,837.50001 1075.35,835.5 C1076.18334,833.49999 1076.6,831.366678 1076.6,829.1 C1076.6,826.299986 1075.85001,823.983342 1074.35,822.15 C1072.84999,820.316657 1070.86668,818.750006 1068.4,817.45 C1065.93332,816.149993 1063.11668,815.016671 1059.95,814.05 C1056.78332,813.083328 1053.55002,812.066672 1050.25,811 C1046.94998,809.933328 1043.71668,808.716673 1040.55,807.35 C1037.38332,805.983326 1034.56668,804.266677 1032.1,802.2 C1029.63332,800.133323 1027.65001,797.583348 1026.15,794.55 C1024.64999,791.516651 1023.9,787.833355 1023.9,783.5 C1023.9,779.633314 1024.69999,775.916684 1026.3,772.35 C1027.90001,768.783315 1030.23332,765.650013 1033.3,762.95 C1036.36668,760.249986 1040.13331,758.100008 1044.6,756.5 C1049.06669,754.899992 1054.16664,754.1 1059.9,754.1 C1066.5667,754.1 1072.54997,755.149989 1077.85,757.25 C1083.15003,759.35001 1087.73331,762.233315 1091.6,765.9 L1087.6,772.4 Z M1133.1,769.2 C1137.43336,764.599977 1142.23331,760.933347 1147.5,758.2 C1152.76669,755.466653 1158.8333,754.1 1165.7,754.1 C1171.23336,754.1 1176.11665,755.016657 1180.35,756.85 C1184.58335,758.683342 1188.11665,761.283316 1190.95,764.65 C1193.78335,768.016683 1195.93333,772.066643 1197.4,776.8 C1198.86667,781.533357 1199.6,786.766638 1199.6,792.5 L1199.6,857 L1181.7,857 L1181.7,792.5 C1181.7,784.833295 1179.95002,778.883354 1176.45,774.65 C1172.94998,770.416645 1167.63337,768.3 1160.5,768.3 C1155.23331,768.3 1150.31669,769.566654 1145.75,772.1 C1141.18331,774.633346 1136.96669,778.066645 1133.1,782.4 L1133.1,857 L1115.2,857 L1115.2,709.7 L1133.1,709.7 L1133.1,769.2 Z M1269.5,754.1 C1276.90004,754.1 1283.56664,755.333321 1289.5,757.8 C1295.43336,760.266679 1300.49998,763.766644 1304.7,768.3 C1308.90002,772.833356 1312.11666,778.316634 1314.35,784.75 C1316.58334,791.183365 1317.7,798.366627 1317.7,806.3 C1317.7,814.30004 1316.58334,821.499968 1314.35,827.9 C1312.11666,834.300032 1308.90002,839.766644 1304.7,844.3 C1300.49998,848.833356 1295.43336,852.316654 1289.5,854.75 C1283.56664,857.183345 1276.90004,858.4 1269.5,858.4 C1262.0333,858.4 1255.3167,857.183345 1249.35,854.75 C1243.3833,852.316654 1238.30002,848.833356 1234.1,844.3 C1229.89998,839.766644 1226.68334,834.300032 1224.45,827.9 C1222.21666,821.499968 1221.1,814.30004 1221.1,806.3 C1221.1,798.366627 1222.21666,791.183365 1224.45,784.75 C1226.68334,778.316634 1229.89998,772.833356 1234.1,768.3 C1238.30002,763.766644 1243.3833,760.266679 1249.35,757.8 C1255.3167,755.333321 1262.0333,754.1 1269.5,754.1 L1269.5,754.1 Z M1269.5,844.5 C1279.50005,844.5 1286.96664,841.150033 1291.9,834.45 C1296.83336,827.749966 1299.3,818.40006 1299.3,806.4 C1299.3,794.333273 1296.83336,784.933367 1291.9,778.2 C1286.96664,771.466633 1279.50005,768.1 1269.5,768.1 C1264.43331,768.1 1260.01669,768.966658 1256.25,770.7 C1252.48331,772.433342 1249.35001,774.933317 1246.85,778.2 C1244.34999,781.466683 1242.48334,785.483309 1241.25,790.25 C1240.01666,795.01669 1239.4,800.39997 1239.4,806.4 C1239.4,818.40006 1241.88331,827.749966 1246.85,834.45 C1251.81669,841.150033 1259.36662,844.5 1269.5,844.5 L1269.5,844.5 Z M1423.5,755.7 L1423.5,857 L1412.9,857 C1410.36665,857 1408.76667,855.766679 1408.1,853.3 L1406.7,842.4 C1402.29998,847.266691 1397.36669,851.183318 1391.9,854.15 C1386.43331,857.116681 1380.1667,858.6 1373.1,858.6 C1367.56664,858.6 1362.68335,857.683342 1358.45,855.85 C1354.21665,854.016657 1350.66668,851.43335 1347.8,848.1 C1344.93332,844.76665 1342.78334,840.733357 1341.35,836 C1339.91666,831.266643 1339.2,826.033362 1339.2,820.3 L1339.2,755.7 L1357,755.7 L1357,820.3 C1357,827.966705 1358.74998,833.899979 1362.25,838.1 C1365.75002,842.300021 1371.09996,844.4 1378.3,844.4 C1383.56669,844.4 1388.48331,843.150012 1393.05,840.65 C1397.61669,838.149987 1401.83331,834.700022 1405.7,830.3 L1405.7,755.7 L1423.5,755.7 Z M1470.1,709.7 L1470.1,857 L1452.3,857 L1452.3,709.7 L1470.1,709.7 Z M1564.9,779.8 C1561.56665,775.333311 1557.96669,772.216675 1554.1,770.45 C1550.23331,768.683324 1545.90002,767.8 1541.1,767.8 C1531.69995,767.8 1524.46669,771.166633 1519.4,777.9 C1514.33331,784.633367 1511.8,794.233271 1511.8,806.7 C1511.8,813.300033 1512.36666,818.949976 1513.5,823.65 C1514.63334,828.350023 1516.29999,832.216651 1518.5,835.25 C1520.70001,838.283348 1523.39998,840.499993 1526.6,841.9 C1529.80002,843.300007 1533.43331,844 1537.5,844 C1543.3667,844 1548.48331,842.66668 1552.85,840 C1557.21669,837.33332 1561.23332,833.566691 1564.9,828.7 L1564.9,779.8 Z M1582.7,709.7 L1582.7,857 L1572.1,857 C1569.56665,857 1567.96667,855.766679 1567.3,853.3 L1565.7,841 C1561.36665,846.200026 1556.43336,850.399984 1550.9,853.6 C1545.36664,856.800016 1538.9667,858.4 1531.7,858.4 C1525.89997,858.4 1520.63336,857.283344 1515.9,855.05 C1511.16664,852.816655 1507.13335,849.533355 1503.8,845.2 C1500.46665,840.866645 1497.90001,835.466699 1496.1,829 C1494.29999,822.533301 1493.4,815.100042 1493.4,806.7 C1493.4,799.233296 1494.39999,792.283365 1496.4,785.85 C1498.40001,779.416634 1501.26665,773.833357 1505,769.1 C1508.73335,764.366643 1513.31664,760.650013 1518.75,757.95 C1524.18336,755.249986 1530.29997,753.9 1537.1,753.9 C1543.30003,753.9 1548.61664,754.949989 1553.05,757.05 C1557.48336,759.15001 1561.43332,762.066648 1564.9,765.8 L1564.9,709.7 L1582.7,709.7 Z M1680,832.6 C1683.26668,837.000022 1686.84998,840.099991 1690.75,841.9 C1694.65002,843.700009 1698.93331,844.6 1703.6,844.6 C1713.13338,844.6 1720.43331,841.233367 1725.5,834.5 C1730.56669,827.766633 1733.1,817.7334 1733.1,804.4 C1733.1,791.999938 1730.85002,782.883362 1726.35,777.05 C1721.84998,771.216637 1715.43338,768.3 1707.1,768.3 C1701.29997,768.3 1696.25002,769.63332 1691.95,772.3 C1687.64998,774.96668 1683.66669,778.733309 1680,783.6 L1680,832.6 Z M1680,770.3 C1684.26669,765.366642 1689.08331,761.433348 1694.45,758.5 C1699.81669,755.566652 1705.99997,754.1 1713,754.1 C1718.93336,754.1 1724.28331,755.233322 1729.05,757.5 C1733.81669,759.766678 1737.86665,763.049978 1741.2,767.35 C1744.53335,771.650021 1747.08332,776.866636 1748.85,783 C1750.61668,789.133364 1751.5,796.033295 1751.5,803.7 C1751.5,811.900041 1750.50001,819.366633 1748.5,826.1 C1746.49999,832.833367 1743.61669,838.583309 1739.85,843.35 C1736.08331,848.11669 1731.50003,851.816653 1726.1,854.45 C1720.69997,857.083346 1714.63337,858.4 1707.9,858.4 C1701.2333,858.4 1695.61669,857.150012 1691.05,854.65 C1686.48331,852.149987 1682.50002,848.600023 1679.1,844 L1678.2,853.2 C1677.66666,855.733346 1676.13335,857 1673.6,857 L1662.1,857 L1662.1,709.7 L1680,709.7 L1680,770.3 Z M1841.9,795.3 C1841.9,791.166646 1841.31667,787.38335 1840.15,783.95 C1838.98333,780.516649 1837.28334,777.550012 1835.05,775.05 C1832.81666,772.549987 1830.10002,770.616673 1826.9,769.25 C1823.69998,767.883326 1820.06669,767.2 1816,767.2 C1807.46662,767.2 1800.71669,769.683308 1795.75,774.65 C1790.78331,779.616691 1787.70001,786.499956 1786.5,795.3 L1841.9,795.3 Z M1856.3,842.8 C1854.09999,845.46668 1851.46668,847.783323 1848.4,849.75 C1845.33332,851.716676 1842.05002,853.333327 1838.55,854.6 C1835.04998,855.866673 1831.43335,856.816663 1827.7,857.45 C1823.96665,858.083336 1820.26669,858.4 1816.6,858.4 C1809.59997,858.4 1803.15003,857.216678 1797.25,854.85 C1791.34997,852.483321 1786.25002,849.016689 1781.95,844.45 C1777.64998,839.88331 1774.30001,834.233367 1771.9,827.5 C1769.49999,820.766633 1768.3,813.033377 1768.3,804.3 C1768.3,797.233298 1769.38332,790.633364 1771.55,784.5 C1773.71668,778.366636 1776.83331,773.050022 1780.9,768.55 C1784.96669,764.049977 1789.9333,760.516679 1795.8,757.95 C1801.6667,755.38332 1808.26663,754.1 1815.6,754.1 C1821.6667,754.1 1827.28331,755.116656 1832.45,757.15 C1837.61669,759.183343 1842.08331,762.116647 1845.85,765.95 C1849.61669,769.783352 1852.56666,774.516638 1854.7,780.15 C1856.83334,785.783361 1857.9,792.199964 1857.9,799.4 C1857.9,802.200014 1857.6,804.066662 1857,805 C1856.4,805.933338 1855.26668,806.4 1853.6,806.4 L1785.9,806.4 C1786.1,812.800032 1786.98333,818.366643 1788.55,823.1 C1790.11667,827.833357 1792.29999,831.783317 1795.1,834.95 C1797.90001,838.116682 1801.23331,840.483325 1805.1,842.05 C1808.96669,843.616674 1813.29998,844.4 1818.1,844.4 C1822.56669,844.4 1826.41665,843.883338 1829.65,842.85 C1832.88335,841.816661 1835.66666,840.700006 1838,839.5 C1840.33335,838.299994 1842.28333,837.183338 1843.85,836.15 C1845.41667,835.116661 1846.76666,834.6 1847.9,834.6 C1849.36667,834.6 1850.5,835.166661 1851.3,836.3 L1856.3,842.8 Z M1962,858.6 C1953.99996,858.6 1947.85002,856.366689 1943.55,851.9 C1939.24998,847.433311 1937.1,841.000042 1937.1,832.6 L1937.1,770.6 L1924.9,770.6 C1923.83333,770.6 1922.93334,770.283336 1922.2,769.65 C1921.46666,769.016663 1921.1,768.03334 1921.1,766.7 L1921.1,759.6 L1937.7,757.5 L1941.8,726.2 C1942,725.199995 1942.45,724.383336 1943.15,723.75 C1943.85,723.116663 1944.76666,722.8 1945.9,722.8 L1954.9,722.8 L1954.9,757.7 L1984.2,757.7 L1984.2,770.6 L1954.9,770.6 L1954.9,831.4 C1954.9,835.666688 1955.93332,838.833323 1958,840.9 C1960.06668,842.966677 1962.73332,844 1966,844 C1967.86668,844 1969.48333,843.750002 1970.85,843.25 C1972.21667,842.749997 1973.39999,842.200003 1974.4,841.6 C1975.40001,840.999997 1976.25,840.450002 1976.95,839.95 C1977.65,839.449997 1978.26666,839.2 1978.8,839.2 C1979.73334,839.2 1980.56666,839.766661 1981.3,840.9 L1986.5,849.4 C1983.43332,852.266681 1979.73336,854.516658 1975.4,856.15 C1971.06665,857.783341 1966.60002,858.6 1962,858.6 L1962,858.6 Z M2044.8,754.1 C2052.20004,754.1 2058.86664,755.333321 2064.8,757.8 C2070.73336,760.266679 2075.79998,763.766644 2080,768.3 C2084.20002,772.833356 2087.41666,778.316634 2089.65,784.75 C2091.88334,791.183365 2093,798.366627 2093,806.3 C2093,814.30004 2091.88334,821.499968 2089.65,827.9 C2087.41666,834.300032 2084.20002,839.766644 2080,844.3 C2075.79998,848.833356 2070.73336,852.316654 2064.8,854.75 C2058.86664,857.183345 2052.20004,858.4 2044.8,858.4 C2037.3333,858.4 2030.6167,857.183345 2024.65,854.75 C2018.6833,852.316654 2013.60002,848.833356 2009.4,844.3 C2005.19998,839.766644 2001.98334,834.300032 1999.75,827.9 C1997.51666,821.499968 1996.4,814.30004 1996.4,806.3 C1996.4,798.366627 1997.51666,791.183365 1999.75,784.75 C2001.98334,778.316634 2005.19998,772.833356 2009.4,768.3 C2013.60002,763.766644 2018.6833,760.266679 2024.65,757.8 C2030.6167,755.333321 2037.3333,754.1 2044.8,754.1 L2044.8,754.1 Z M2044.8,844.5 C2054.80005,844.5 2062.26664,841.150033 2067.2,834.45 C2072.13336,827.749966 2074.6,818.40006 2074.6,806.4 C2074.6,794.333273 2072.13336,784.933367 2067.2,778.2 C2062.26664,771.466633 2054.80005,768.1 2044.8,768.1 C2039.73331,768.1 2035.31669,768.966658 2031.55,770.7 C2027.78331,772.433342 2024.65001,774.933317 2022.15,778.2 C2019.64999,781.466683 2017.78334,785.483309 2016.55,790.25 C2015.31666,795.01669 2014.7,800.39997 2014.7,806.4 C2014.7,818.40006 2017.18331,827.749966 2022.15,834.45 C2027.11669,841.150033 2034.66662,844.5 2044.8,844.5 L2044.8,844.5 Z M2133.9,709.7 L2133.9,857 L2116.1,857 L2116.1,709.7 L2133.9,709.7 Z M2228.7,779.8 C2225.36665,775.333311 2221.76669,772.216675 2217.9,770.45 C2214.03331,768.683324 2209.70002,767.8 2204.9,767.8 C2195.49995,767.8 2188.26669,771.166633 2183.2,777.9 C2178.13331,784.633367 2175.6,794.233271 2175.6,806.7 C2175.6,813.300033 2176.16666,818.949976 2177.3,823.65 C2178.43334,828.350023 2180.09999,832.216651 2182.3,835.25 C2184.50001,838.283348 2187.19998,840.499993 2190.4,841.9 C2193.60002,843.300007 2197.23331,844 2201.3,844 C2207.1667,844 2212.28331,842.66668 2216.65,840 C2221.01669,837.33332 2225.03331,833.566691 2228.7,828.7 L2228.7,779.8 Z M2246.5,709.7 L2246.5,857 L2235.9,857 C2233.36665,857 2231.76667,855.766679 2231.1,853.3 L2229.5,841 C2225.16665,846.200026 2220.23336,850.399984 2214.7,853.6 C2209.16664,856.800016 2202.7667,858.4 2195.5,858.4 C2189.69997,858.4 2184.43336,857.283344 2179.7,855.05 C2174.96664,852.816655 2170.93335,849.533355 2167.6,845.2 C2164.26665,840.866645 2161.70001,835.466699 2159.9,829 C2158.09999,822.533301 2157.2,815.100042 2157.2,806.7 C2157.2,799.233296 2158.19999,792.283365 2160.2,785.85 C2162.20001,779.416634 2165.06665,773.833357 2168.8,769.1 C2172.53335,764.366643 2177.11664,760.650013 2182.55,757.95 C2187.98336,755.249986 2194.09997,753.9 2200.9,753.9 C2207.10003,753.9 2212.41664,754.949989 2216.85,757.05 C2221.28336,759.15001 2225.23332,762.066648 2228.7,765.8 L2228.7,709.7 L2246.5,709.7 Z M2343.8,832.6 C2347.06668,837.000022 2350.64998,840.099991 2354.55,841.9 C2358.45002,843.700009 2362.73331,844.6 2367.4,844.6 C2376.93338,844.6 2384.23331,841.233367 2389.3,834.5 C2394.36669,827.766633 2396.9,817.7334 2396.9,804.4 C2396.9,791.999938 2394.65002,782.883362 2390.15,777.05 C2385.64998,771.216637 2379.23337,768.3 2370.9,768.3 C2365.09997,768.3 2360.05002,769.63332 2355.75,772.3 C2351.44998,774.96668 2347.46668,778.733309 2343.8,783.6 L2343.8,832.6 Z M2343.8,770.3 C2348.06669,765.366642 2352.88331,761.433348 2358.25,758.5 C2363.61669,755.566652 2369.79996,754.1 2376.8,754.1 C2382.73336,754.1 2388.08331,755.233322 2392.85,757.5 C2397.61669,759.766678 2401.66665,763.049978 2405,767.35 C2408.33335,771.650021 2410.88332,776.866636 2412.65,783 C2414.41668,789.133364 2415.3,796.033295 2415.3,803.7 C2415.3,811.900041 2414.30001,819.366633 2412.3,826.1 C2410.29999,832.833367 2407.41669,838.583309 2403.65,843.35 C2399.88331,848.11669 2395.30003,851.816653 2389.9,854.45 C2384.49997,857.083346 2378.43337,858.4 2371.7,858.4 C2365.0333,858.4 2359.41669,857.150012 2354.85,854.65 C2350.28331,852.149987 2346.30002,848.600023 2342.9,844 L2342,853.2 C2341.46666,855.733346 2339.93335,857 2337.4,857 L2325.9,857 L2325.9,709.7 L2343.8,709.7 L2343.8,770.3 Z M2505.7,795.3 C2505.7,791.166646 2505.11667,787.38335 2503.95,783.95 C2502.78333,780.516649 2501.08334,777.550012 2498.85,775.05 C2496.61666,772.549987 2493.90002,770.616673 2490.7,769.25 C2487.49998,767.883326 2483.86669,767.2 2479.8,767.2 C2471.26662,767.2 2464.51669,769.683308 2459.55,774.65 C2454.58331,779.616691 2451.50001,786.499956 2450.3,795.3 L2505.7,795.3 Z M2520.1,842.8 C2517.89999,845.46668 2515.26668,847.783323 2512.2,849.75 C2509.13332,851.716676 2505.85002,853.333327 2502.35,854.6 C2498.84998,855.866673 2495.23335,856.816663 2491.5,857.45 C2487.76665,858.083336 2484.06668,858.4 2480.4,858.4 C2473.39996,858.4 2466.95003,857.216678 2461.05,854.85 C2455.14997,852.483321 2450.05002,849.016689 2445.75,844.45 C2441.44998,839.88331 2438.10001,834.233367 2435.7,827.5 C2433.29999,820.766633 2432.1,813.033377 2432.1,804.3 C2432.1,797.233298 2433.18332,790.633364 2435.35,784.5 C2437.51668,778.366636 2440.63331,773.050022 2444.7,768.55 C2448.76669,764.049977 2453.7333,760.516679 2459.6,757.95 C2465.4667,755.38332 2472.06663,754.1 2479.4,754.1 C2485.4667,754.1 2491.08331,755.116656 2496.25,757.15 C2501.41669,759.183343 2505.88331,762.116647 2509.65,765.95 C2513.41669,769.783352 2516.36666,774.516638 2518.5,780.15 C2520.63334,785.783361 2521.7,792.199964 2521.7,799.4 C2521.7,802.200014 2521.4,804.066662 2520.8,805 C2520.2,805.933338 2519.06667,806.4 2517.4,806.4 L2449.7,806.4 C2449.9,812.800032 2450.78333,818.366643 2452.35,823.1 C2453.91667,827.833357 2456.09999,831.783317 2458.9,834.95 C2461.70001,838.116682 2465.03331,840.483325 2468.9,842.05 C2472.76669,843.616674 2477.09998,844.4 2481.9,844.4 C2486.36669,844.4 2490.21665,843.883338 2493.45,842.85 C2496.68335,841.816661 2499.46665,840.700006 2501.8,839.5 C2504.13334,838.299994 2506.08333,837.183338 2507.65,836.15 C2509.21667,835.116661 2510.56666,834.6 2511.7,834.6 C2513.16667,834.6 2514.3,835.166661 2515.1,836.3 L2520.1,842.8 Z M2549.1,857 L2549.1,770.9 L2537.9,769.6 C2536.49999,769.266665 2535.35,768.750003 2534.45,768.05 C2533.55,767.349996 2533.1,766.33334 2533.1,765 L2533.1,757.7 L2549.1,757.7 L2549.1,747.9 C2549.1,742.099971 2549.91666,736.950022 2551.55,732.45 C2553.18334,727.949977 2555.51665,724.150015 2558.55,721.05 C2561.58335,717.949984 2565.23331,715.600008 2569.5,714 C2573.76669,712.399992 2578.56664,711.6 2583.9,711.6 C2588.43336,711.6 2592.59998,712.26666 2596.4,713.6 L2596,722.5 C2595.86667,724.100008 2594.98334,724.966666 2593.35,725.1 C2591.71666,725.233334 2589.53335,725.3 2586.8,725.3 C2583.73332,725.3 2580.95001,725.699996 2578.45,726.5 C2575.94999,727.300004 2573.80001,728.599991 2572,730.4 C2570.19999,732.200009 2568.81667,734.566652 2567.85,737.5 C2566.88333,740.433348 2566.4,744.066645 2566.4,748.4 L2566.4,757.7 L2595.6,757.7 L2595.6,770.6 L2567,770.6 L2567,857 L2549.1,857 Z M2652,754.1 C2659.40004,754.1 2666.06664,755.333321 2672,757.8 C2677.93336,760.266679 2682.99998,763.766644 2687.2,768.3 C2691.40002,772.833356 2694.61666,778.316634 2696.85,784.75 C2699.08334,791.183365 2700.2,798.366627 2700.2,806.3 C2700.2,814.30004 2699.08334,821.499968 2696.85,827.9 C2694.61666,834.300032 2691.40002,839.766644 2687.2,844.3 C2682.99998,848.833356 2677.93336,852.316654 2672,854.75 C2666.06664,857.183345 2659.40004,858.4 2652,858.4 C2644.5333,858.4 2637.8167,857.183345 2631.85,854.75 C2625.8833,852.316654 2620.80002,848.833356 2616.6,844.3 C2612.39998,839.766644 2609.18334,834.300032 2606.95,827.9 C2604.71666,821.499968 2603.6,814.30004 2603.6,806.3 C2603.6,798.366627 2604.71666,791.183365 2606.95,784.75 C2609.18334,778.316634 2612.39998,772.833356 2616.6,768.3 C2620.80002,763.766644 2625.8833,760.266679 2631.85,757.8 C2637.8167,755.333321 2644.5333,754.1 2652,754.1 L2652,754.1 Z M2652,844.5 C2662.00005,844.5 2669.46664,841.150033 2674.4,834.45 C2679.33336,827.749966 2681.8,818.40006 2681.8,806.4 C2681.8,794.333273 2679.33336,784.933367 2674.4,778.2 C2669.46664,771.466633 2662.00005,768.1 2652,768.1 C2646.93331,768.1 2642.51669,768.966658 2638.75,770.7 C2634.98331,772.433342 2631.85001,774.933317 2629.35,778.2 C2626.84999,781.466683 2624.98334,785.483309 2623.75,790.25 C2622.51666,795.01669 2621.9,800.39997 2621.9,806.4 C2621.9,818.40006 2624.38331,827.749966 2629.35,834.45 C2634.31669,841.150033 2641.86662,844.5 2652,844.5 L2652,844.5 Z M2739.6,776 C2742.80002,769.066632 2746.73331,763.650019 2751.4,759.75 C2756.06669,755.84998 2761.76663,753.9 2768.5,753.9 C2770.63334,753.9 2772.68332,754.133331 2774.65,754.6 C2776.61668,755.066669 2778.36666,755.799995 2779.9,756.8 L2778.6,770.1 C2778.2,771.766675 2777.20001,772.6 2775.6,772.6 C2774.66666,772.6 2773.30001,772.400002 2771.5,772 C2769.69999,771.599998 2767.66668,771.4 2765.4,771.4 C2762.19998,771.4 2759.35001,771.866662 2756.85,772.8 C2754.34999,773.733338 2752.11668,775.116657 2750.15,776.95 C2748.18332,778.783342 2746.41667,781.049986 2744.85,783.75 C2743.28333,786.450013 2741.86667,789.533316 2740.6,793 L2740.6,857 L2722.7,857 L2722.7,755.7 L2732.9,755.7 C2734.83334,755.7 2736.16666,756.066663 2736.9,756.8 C2737.63334,757.533337 2738.13333,758.799991 2738.4,760.6 L2739.6,776 Z M2859.2,795.3 C2859.2,791.166646 2858.61667,787.38335 2857.45,783.95 C2856.28333,780.516649 2854.58334,777.550012 2852.35,775.05 C2850.11666,772.549987 2847.40002,770.616673 2844.2,769.25 C2840.99998,767.883326 2837.36669,767.2 2833.3,767.2 C2824.76662,767.2 2818.01669,769.683308 2813.05,774.65 C2808.08331,779.616691 2805.00001,786.499956 2803.8,795.3 L2859.2,795.3 Z M2873.6,842.8 C2871.39999,845.46668 2868.76668,847.783323 2865.7,849.75 C2862.63332,851.716676 2859.35002,853.333327 2855.85,854.6 C2852.34998,855.866673 2848.73335,856.816663 2845,857.45 C2841.26665,858.083336 2837.56669,858.4 2833.9,858.4 C2826.89997,858.4 2820.45003,857.216678 2814.55,854.85 C2808.64997,852.483321 2803.55002,849.016689 2799.25,844.45 C2794.94998,839.88331 2791.60001,834.233367 2789.2,827.5 C2786.79999,820.766633 2785.6,813.033377 2785.6,804.3 C2785.6,797.233298 2786.68332,790.633364 2788.85,784.5 C2791.01668,778.366636 2794.13331,773.050022 2798.2,768.55 C2802.26669,764.049977 2807.2333,760.516679 2813.1,757.95 C2818.9667,755.38332 2825.56663,754.1 2832.9,754.1 C2838.9667,754.1 2844.58331,755.116656 2849.75,757.15 C2854.91669,759.183343 2859.38331,762.116647 2863.15,765.95 C2866.91669,769.783352 2869.86666,774.516638 2872,780.15 C2874.13334,785.783361 2875.2,792.199964 2875.2,799.4 C2875.2,802.200014 2874.9,804.066662 2874.3,805 C2873.7,805.933338 2872.56668,806.4 2870.9,806.4 L2803.2,806.4 C2803.4,812.800032 2804.28333,818.366643 2805.85,823.1 C2807.41667,827.833357 2809.59999,831.783317 2812.4,834.95 C2815.20001,838.116682 2818.53331,840.483325 2822.4,842.05 C2826.26669,843.616674 2830.59998,844.4 2835.4,844.4 C2839.86669,844.4 2843.71665,843.883338 2846.95,842.85 C2850.18335,841.816661 2852.96666,840.700006 2855.3,839.5 C2857.63335,838.299994 2859.58333,837.183338 2861.15,836.15 C2862.71667,835.116661 2864.06666,834.6 2865.2,834.6 C2866.66667,834.6 2867.8,835.166661 2868.6,836.3 L2873.6,842.8 Z M2979.3,858.6 C2971.29996,858.6 2965.15002,856.366689 2960.85,851.9 C2956.54998,847.433311 2954.4,841.000042 2954.4,832.6 L2954.4,770.6 L2942.2,770.6 C2941.13333,770.6 2940.23334,770.283336 2939.5,769.65 C2938.76666,769.016663 2938.4,768.03334 2938.4,766.7 L2938.4,759.6 L2955,757.5 L2959.1,726.2 C2959.3,725.199995 2959.75,724.383336 2960.45,723.75 C2961.15,723.116663 2962.06666,722.8 2963.2,722.8 L2972.2,722.8 L2972.2,757.7 L3001.5,757.7 L3001.5,770.6 L2972.2,770.6 L2972.2,831.4 C2972.2,835.666688 2973.23332,838.833323 2975.3,840.9 C2977.36668,842.966677 2980.03332,844 2983.3,844 C2985.16668,844 2986.78333,843.750002 2988.15,843.25 C2989.51667,842.749997 2990.69999,842.200003 2991.7,841.6 C2992.7,840.999997 2993.55,840.450002 2994.25,839.95 C2994.95,839.449997 2995.56666,839.2 2996.1,839.2 C2997.03334,839.2 2997.86666,839.766661 2998.6,840.9 L3003.8,849.4 C3000.73332,852.266681 2997.03335,854.516658 2992.7,856.15 C2988.36664,857.783341 2983.90002,858.6 2979.3,858.6 L2979.3,858.6 Z M3037.8,769.2 C3042.13335,764.599977 3046.93331,760.933347 3052.2,758.2 C3057.46669,755.466653 3063.5333,754.1 3070.4,754.1 C3075.93336,754.1 3080.81665,755.016657 3085.05,756.85 C3089.28335,758.683342 3092.81665,761.283316 3095.65,764.65 C3098.48335,768.016683 3100.63333,772.066643 3102.1,776.8 C3103.56667,781.533357 3104.3,786.766638 3104.3,792.5 L3104.3,857 L3086.4,857 L3086.4,792.5 C3086.4,784.833295 3084.65002,778.883354 3081.15,774.65 C3077.64998,770.416645 3072.33337,768.3 3065.2,768.3 C3059.93331,768.3 3055.01669,769.566654 3050.45,772.1 C3045.88331,774.633346 3041.66669,778.066645 3037.8,782.4 L3037.8,857 L3019.9,857 L3019.9,709.7 L3037.8,709.7 L3037.8,769.2 Z M3199.3,795.3 C3199.3,791.166646 3198.71667,787.38335 3197.55,783.95 C3196.38333,780.516649 3194.68334,777.550012 3192.45,775.05 C3190.21666,772.549987 3187.50002,770.616673 3184.3,769.25 C3181.09998,767.883326 3177.46669,767.2 3173.4,767.2 C3164.86662,767.2 3158.11669,769.683308 3153.15,774.65 C3148.18331,779.616691 3145.10001,786.499956 3143.9,795.3 L3199.3,795.3 Z M3213.7,842.8 C3211.49999,845.46668 3208.86668,847.783323 3205.8,849.75 C3202.73332,851.716676 3199.45002,853.333327 3195.95,854.6 C3192.44998,855.866673 3188.83335,856.816663 3185.1,857.45 C3181.36665,858.083336 3177.66668,858.4 3174,858.4 C3166.99996,858.4 3160.55003,857.216678 3154.65,854.85 C3148.74997,852.483321 3143.65002,849.016689 3139.35,844.45 C3135.04998,839.88331 3131.70001,834.233367 3129.3,827.5 C3126.89999,820.766633 3125.7,813.033377 3125.7,804.3 C3125.7,797.233298 3126.78332,790.633364 3128.95,784.5 C3131.11668,778.366636 3134.23331,773.050022 3138.3,768.55 C3142.36669,764.049977 3147.3333,760.516679 3153.2,757.95 C3159.0667,755.38332 3165.66663,754.1 3173,754.1 C3179.0667,754.1 3184.68331,755.116656 3189.85,757.15 C3195.01669,759.183343 3199.48331,762.116647 3203.25,765.95 C3207.01669,769.783352 3209.96666,774.516638 3212.1,780.15 C3214.23334,785.783361 3215.3,792.199964 3215.3,799.4 C3215.3,802.200014 3215,804.066662 3214.4,805 C3213.8,805.933338 3212.66667,806.4 3211,806.4 L3143.3,806.4 C3143.5,812.800032 3144.38333,818.366643 3145.95,823.1 C3147.51667,827.833357 3149.69999,831.783317 3152.5,834.95 C3155.30001,838.116682 3158.63331,840.483325 3162.5,842.05 C3166.36669,843.616674 3170.69998,844.4 3175.5,844.4 C3179.96669,844.4 3183.81665,843.883338 3187.05,842.85 C3190.28335,841.816661 3193.06665,840.700006 3195.4,839.5 C3197.73334,838.299994 3199.68333,837.183338 3201.25,836.15 C3202.81667,835.116661 3204.16666,834.6 3205.3,834.6 C3206.76667,834.6 3207.9,835.166661 3208.7,836.3 L3213.7,842.8 Z M3321.9,755.7 L3265.4,886.9 C3264.8,888.23334 3264.05,889.299996 3263.15,890.1 C3262.25,890.900004 3260.86668,891.3 3259,891.3 L3245.8,891.3 L3264.3,851.1 L3222.5,755.7 L3237.9,755.7 C3239.43334,755.7 3240.65,756.083329 3241.55,756.85 C3242.45,757.61667 3243.06666,758.466662 3243.4,759.4 L3270.5,823.2 C3271.56667,826.000014 3272.46666,828.933318 3273.2,832 C3274.13334,828.866651 3275.13333,825.900014 3276.2,823.1 L3302.5,759.4 C3302.9,758.333328 3303.58333,757.450003 3304.55,756.75 C3305.51667,756.049996 3306.59999,755.7 3307.8,755.7 L3321.9,755.7 Z M3438.8,811.4 C3430.59996,811.666668 3423.6167,812.316661 3417.85,813.35 C3412.0833,814.383338 3407.38335,815.733325 3403.75,817.4 C3400.11665,819.066675 3397.48334,821.033322 3395.85,823.3 C3394.21666,825.566678 3393.4,828.099986 3393.4,830.9 C3393.4,833.56668 3393.83333,835.866657 3394.7,837.8 C3395.56667,839.733343 3396.74999,841.31666 3398.25,842.55 C3399.75001,843.783339 3401.51666,844.68333 3403.55,845.25 C3405.58334,845.816669 3407.76665,846.1 3410.1,846.1 C3413.23335,846.1 3416.09999,845.783336 3418.7,845.15 C3421.30001,844.516663 3423.74999,843.600006 3426.05,842.4 C3428.35001,841.199994 3430.54999,839.766675 3432.65,838.1 C3434.75001,836.433325 3436.79999,834.533344 3438.8,832.4 L3438.8,811.4 Z M3381.3,770 C3386.90003,764.599973 3392.9333,760.56668 3399.4,757.9 C3405.8667,755.23332 3413.03329,753.9 3420.9,753.9 C3426.56669,753.9 3431.59998,754.833324 3436,756.7 C3440.40002,758.566676 3444.09998,761.16665 3447.1,764.5 C3450.10001,767.83335 3452.36666,771.866643 3453.9,776.6 C3455.43334,781.333357 3456.2,786.533305 3456.2,792.2 L3456.2,857 L3448.3,857 C3446.56666,857 3445.23334,856.716669 3444.3,856.15 C3443.36666,855.58333 3442.63334,854.466675 3442.1,852.8 L3440.1,843.2 C3437.43332,845.666679 3434.83335,847.84999 3432.3,849.75 C3429.76665,851.650009 3427.10001,853.249993 3424.3,854.55 C3421.49999,855.850006 3418.51668,856.849996 3415.35,857.55 C3412.18332,858.250003 3408.66669,858.6 3404.8,858.6 C3400.86665,858.6 3397.16668,858.050005 3393.7,856.95 C3390.23332,855.849994 3387.21668,854.200011 3384.65,852 C3382.08332,849.799989 3380.05001,847.016683 3378.55,843.65 C3377.04999,840.283316 3376.3,836.300023 3376.3,831.7 C3376.3,827.69998 3377.39999,823.850018 3379.6,820.15 C3381.80001,816.449981 3385.36664,813.166681 3390.3,810.3 C3395.23336,807.433319 3401.66663,805.083342 3409.6,803.25 C3417.53337,801.416657 3427.26661,800.366668 3438.8,800.1 L3438.8,792.2 C3438.8,784.333294 3437.10002,778.383353 3433.7,774.35 C3430.29998,770.316646 3425.33337,768.3 3418.8,768.3 C3414.39998,768.3 3410.71668,768.849994 3407.75,769.95 C3404.78332,771.050005 3402.21668,772.283326 3400.05,773.65 C3397.88332,775.016673 3396.01667,776.249994 3394.45,777.35 C3392.88333,778.450005 3391.33334,779 3389.8,779 C3388.59999,779 3387.56667,778.683336 3386.7,778.05 C3385.83333,777.416663 3385.1,776.633338 3384.5,775.7 L3381.3,770 Z M3500.2,776 C3503.40002,769.066632 3507.33331,763.650019 3512,759.75 C3516.66669,755.84998 3522.36663,753.9 3529.1,753.9 C3531.23334,753.9 3533.28332,754.133331 3535.25,754.6 C3537.21668,755.066669 3538.96666,755.799995 3540.5,756.8 L3539.2,770.1 C3538.8,771.766675 3537.80001,772.6 3536.2,772.6 C3535.26666,772.6 3533.90001,772.400002 3532.1,772 C3530.29999,771.599998 3528.26668,771.4 3526,771.4 C3522.79998,771.4 3519.95001,771.866662 3517.45,772.8 C3514.94999,773.733338 3512.71668,775.116657 3510.75,776.95 C3508.78332,778.783342 3507.01667,781.049986 3505.45,783.75 C3503.88333,786.450013 3502.46667,789.533316 3501.2,793 L3501.2,857 L3483.3,857 L3483.3,755.7 L3493.5,755.7 C3495.43334,755.7 3496.76666,756.066663 3497.5,756.8 C3498.23334,757.533337 3498.73333,758.799991 3499,760.6 L3500.2,776 Z M3619.8,795.3 C3619.8,791.166646 3619.21667,787.38335 3618.05,783.95 C3616.88333,780.516649 3615.18334,777.550012 3612.95,775.05 C3610.71666,772.549987 3608.00002,770.616673 3604.8,769.25 C3601.59998,767.883326 3597.96669,767.2 3593.9,767.2 C3585.36662,767.2 3578.61669,769.683308 3573.65,774.65 C3568.68331,779.616691 3565.60001,786.499956 3564.4,795.3 L3619.8,795.3 Z M3634.2,842.8 C3631.99999,845.46668 3629.36668,847.783323 3626.3,849.75 C3623.23332,851.716676 3619.95002,853.333327 3616.45,854.6 C3612.94998,855.866673 3609.33335,856.816663 3605.6,857.45 C3601.86665,858.083336 3598.16668,858.4 3594.5,858.4 C3587.49996,858.4 3581.05003,857.216678 3575.15,854.85 C3569.24997,852.483321 3564.15002,849.016689 3559.85,844.45 C3555.54998,839.88331 3552.20001,834.233367 3549.8,827.5 C3547.39999,820.766633 3546.2,813.033377 3546.2,804.3 C3546.2,797.233298 3547.28332,790.633364 3549.45,784.5 C3551.61668,778.366636 3554.73331,773.050022 3558.8,768.55 C3562.86669,764.049977 3567.8333,760.516679 3573.7,757.95 C3579.5667,755.38332 3586.16663,754.1 3593.5,754.1 C3599.5667,754.1 3605.18331,755.116656 3610.35,757.15 C3615.51669,759.183343 3619.98331,762.116647 3623.75,765.95 C3627.51669,769.783352 3630.46666,774.516638 3632.6,780.15 C3634.73334,785.783361 3635.8,792.199964 3635.8,799.4 C3635.8,802.200014 3635.5,804.066662 3634.9,805 C3634.3,805.933338 3633.16667,806.4 3631.5,806.4 L3563.8,806.4 C3564,812.800032 3564.88333,818.366643 3566.45,823.1 C3568.01667,827.833357 3570.19999,831.783317 3573,834.95 C3575.80001,838.116682 3579.13331,840.483325 3583,842.05 C3586.86669,843.616674 3591.19998,844.4 3596,844.4 C3600.46669,844.4 3604.31665,843.883338 3607.55,842.85 C3610.78335,841.816661 3613.56665,840.700006 3615.9,839.5 C3618.23334,838.299994 3620.18333,837.183338 3621.75,836.15 C3623.31667,835.116661 3624.66666,834.6 3625.8,834.6 C3627.26667,834.6 3628.4,835.166661 3629.2,836.3 L3634.2,842.8 Z M3727.2,709.7 L3727.2,857 L3709.4,857 L3709.4,709.7 L3727.2,709.7 Z M3798.7,754.1 C3806.10004,754.1 3812.76664,755.333321 3818.7,757.8 C3824.63336,760.266679 3829.69998,763.766644 3833.9,768.3 C3838.10002,772.833356 3841.31666,778.316634 3843.55,784.75 C3845.78334,791.183365 3846.9,798.366627 3846.9,806.3 C3846.9,814.30004 3845.78334,821.499968 3843.55,827.9 C3841.31666,834.300032 3838.10002,839.766644 3833.9,844.3 C3829.69998,848.833356 3824.63336,852.316654 3818.7,854.75 C3812.76664,857.183345 3806.10004,858.4 3798.7,858.4 C3791.2333,858.4 3784.5167,857.183345 3778.55,854.75 C3772.5833,852.316654 3767.50002,848.833356 3763.3,844.3 C3759.09998,839.766644 3755.88334,834.300032 3753.65,827.9 C3751.41666,821.499968 3750.3,814.30004 3750.3,806.3 C3750.3,798.366627 3751.41666,791.183365 3753.65,784.75 C3755.88334,778.316634 3759.09998,772.833356 3763.3,768.3 C3767.50002,763.766644 3772.5833,760.266679 3778.55,757.8 C3784.5167,755.333321 3791.2333,754.1 3798.7,754.1 L3798.7,754.1 Z M3798.7,844.5 C3808.70005,844.5 3816.16664,841.150033 3821.1,834.45 C3826.03336,827.749966 3828.5,818.40006 3828.5,806.4 C3828.5,794.333273 3826.03336,784.933367 3821.1,778.2 C3816.16664,771.466633 3808.70005,768.1 3798.7,768.1 C3793.63331,768.1 3789.21669,768.966658 3785.45,770.7 C3781.68331,772.433342 3778.55001,774.933317 3776.05,778.2 C3773.54999,781.466683 3771.68334,785.483309 3770.45,790.25 C3769.21666,795.01669 3768.6,800.39997 3768.6,806.4 C3768.6,818.40006 3771.08331,827.749966 3776.05,834.45 C3781.01669,841.150033 3788.56662,844.5 3798.7,844.5 L3798.7,844.5 Z M3928.4,772.4 C3927.6,773.866674 3926.36667,774.6 3924.7,774.6 C3923.69999,774.6 3922.56667,774.233337 3921.3,773.5 C3920.03333,772.766663 3918.48334,771.950004 3916.65,771.05 C3914.81666,770.149995 3912.63335,769.31667 3910.1,768.55 C3907.56665,767.783329 3904.56668,767.4 3901.1,767.4 C3898.09998,767.4 3895.40001,767.783329 3893,768.55 C3890.59999,769.31667 3888.55001,770.36666 3886.85,771.7 C3885.14999,773.03334 3883.85,774.583324 3882.95,776.35 C3882.05,778.116675 3881.6,780.033323 3881.6,782.1 C3881.6,784.700013 3882.34999,786.866658 3883.85,788.6 C3885.35001,790.333342 3887.33332,791.833327 3889.8,793.1 C3892.26668,794.366673 3895.06665,795.483328 3898.2,796.45 C3901.33335,797.416671 3904.54998,798.449994 3907.85,799.55 C3911.15002,800.650005 3914.36665,801.86666 3917.5,803.2 C3920.63335,804.53334 3923.43332,806.19999 3925.9,808.2 C3928.36668,810.20001 3930.34999,812.649985 3931.85,815.55 C3933.35001,818.450014 3934.1,821.933313 3934.1,826 C3934.1,830.66669 3933.26667,834.983313 3931.6,838.95 C3929.93332,842.916686 3927.46668,846.349985 3924.2,849.25 C3920.93332,852.150014 3916.93336,854.433325 3912.2,856.1 C3907.46664,857.766675 3902.00003,858.6 3895.8,858.6 C3888.7333,858.6 3882.33336,857.450011 3876.6,855.15 C3870.86664,852.849988 3866.00002,849.900018 3862,846.3 L3866.2,839.5 C3866.73334,838.633329 3867.36666,837.966669 3868.1,837.5 C3868.83334,837.033331 3869.76666,836.8 3870.9,836.8 C3872.10001,836.8 3873.36666,837.266662 3874.7,838.2 C3876.03334,839.133338 3877.64999,840.166661 3879.55,841.3 C3881.45001,842.433339 3883.76665,843.466662 3886.5,844.4 C3889.23335,845.333338 3892.63331,845.8 3896.7,845.8 C3900.16668,845.8 3903.19999,845.350004 3905.8,844.45 C3908.40001,843.549995 3910.56666,842.333341 3912.3,840.8 C3914.03334,839.266659 3915.31666,837.50001 3916.15,835.5 C3916.98334,833.49999 3917.4,831.366678 3917.4,829.1 C3917.4,826.299986 3916.65001,823.983342 3915.15,822.15 C3913.64999,820.316657 3911.66668,818.750006 3909.2,817.45 C3906.73332,816.149993 3903.91668,815.016671 3900.75,814.05 C3897.58332,813.083328 3894.35002,812.066672 3891.05,811 C3887.74998,809.933328 3884.51668,808.716673 3881.35,807.35 C3878.18332,805.983326 3875.36668,804.266677 3872.9,802.2 C3870.43332,800.133323 3868.45001,797.583348 3866.95,794.55 C3865.44999,791.516651 3864.7,787.833355 3864.7,783.5 C3864.7,779.633314 3865.49999,775.916684 3867.1,772.35 C3868.70001,768.783315 3871.03332,765.650013 3874.1,762.95 C3877.16668,760.249986 3880.93331,758.100008 3885.4,756.5 C3889.86669,754.899992 3894.96664,754.1 3900.7,754.1 C3907.3667,754.1 3913.34997,755.149989 3918.65,757.25 C3923.95003,759.35001 3928.53331,762.233315 3932.4,765.9 L3928.4,772.4 Z M3987.1,858.6 C3979.09996,858.6 3972.95002,856.366689 3968.65,851.9 C3964.34998,847.433311 3962.2,841.000042 3962.2,832.6 L3962.2,770.6 L3950,770.6 C3948.93333,770.6 3948.03334,770.283336 3947.3,769.65 C3946.56666,769.016663 3946.2,768.03334 3946.2,766.7 L3946.2,759.6 L3962.8,757.5 L3966.9,726.2 C3967.1,725.199995 3967.55,724.383336 3968.25,723.75 C3968.95,723.116663 3969.86666,722.8 3971,722.8 L3980,722.8 L3980,757.7 L4009.3,757.7 L4009.3,770.6 L3980,770.6 L3980,831.4 C3980,835.666688 3981.03332,838.833323 3983.1,840.9 C3985.16668,842.966677 3987.83332,844 3991.1,844 C3992.96668,844 3994.58333,843.750002 3995.95,843.25 C3997.31667,842.749997 3998.49999,842.200003 3999.5,841.6 C4000.5,840.999997 4001.35,840.450002 4002.05,839.95 C4002.75,839.449997 4003.36666,839.2 4003.9,839.2 C4004.83334,839.2 4005.66666,839.766661 4006.4,840.9 L4011.6,849.4 C4008.53332,852.266681 4004.83335,854.516658 4000.5,856.15 C3996.16664,857.783341 3991.70002,858.6 3987.1,858.6 L3987.1,858.6 Z M4085.5,857 L4085.5,770.9 L4074.3,769.6 C4072.89999,769.266665 4071.75,768.750003 4070.85,768.05 C4069.95,767.349996 4069.5,766.33334 4069.5,765 L4069.5,757.7 L4085.5,757.7 L4085.5,747.9 C4085.5,742.099971 4086.31666,736.950022 4087.95,732.45 C4089.58334,727.949977 4091.91665,724.150015 4094.95,721.05 C4097.98335,717.949984 4101.63331,715.600008 4105.9,714 C4110.16669,712.399992 4114.96664,711.6 4120.3,711.6 C4124.83336,711.6 4128.99998,712.26666 4132.8,713.6 L4132.4,722.5 C4132.26667,724.100008 4131.38334,724.966666 4129.75,725.1 C4128.11666,725.233334 4125.93335,725.3 4123.2,725.3 C4120.13332,725.3 4117.35001,725.699996 4114.85,726.5 C4112.34999,727.300004 4110.20001,728.599991 4108.4,730.4 C4106.59999,732.200009 4105.21667,734.566652 4104.25,737.5 C4103.28333,740.433348 4102.8,744.066645 4102.8,748.4 L4102.8,757.7 L4132,757.7 L4132,770.6 L4103.4,770.6 L4103.4,857 L4085.5,857 Z M4188.4,754.1 C4195.80004,754.1 4202.46664,755.333321 4208.4,757.8 C4214.33336,760.266679 4219.39998,763.766644 4223.6,768.3 C4227.80002,772.833356 4231.01666,778.316634 4233.25,784.75 C4235.48334,791.183365 4236.6,798.366627 4236.6,806.3 C4236.6,814.30004 4235.48334,821.499968 4233.25,827.9 C4231.01666,834.300032 4227.80002,839.766644 4223.6,844.3 C4219.39998,848.833356 4214.33336,852.316654 4208.4,854.75 C4202.46664,857.183345 4195.80004,858.4 4188.4,858.4 C4180.9333,858.4 4174.2167,857.183345 4168.25,854.75 C4162.2833,852.316654 4157.20002,848.833356 4153,844.3 C4148.79998,839.766644 4145.58334,834.300032 4143.35,827.9 C4141.11666,821.499968 4140,814.30004 4140,806.3 C4140,798.366627 4141.11666,791.183365 4143.35,784.75 C4145.58334,778.316634 4148.79998,772.833356 4153,768.3 C4157.20002,763.766644 4162.2833,760.266679 4168.25,757.8 C4174.2167,755.333321 4180.9333,754.1 4188.4,754.1 L4188.4,754.1 Z M4188.4,844.5 C4198.40005,844.5 4205.86664,841.150033 4210.8,834.45 C4215.73336,827.749966 4218.2,818.40006 4218.2,806.4 C4218.2,794.333273 4215.73336,784.933367 4210.8,778.2 C4205.86664,771.466633 4198.40005,768.1 4188.4,768.1 C4183.33331,768.1 4178.91669,768.966658 4175.15,770.7 C4171.38331,772.433342 4168.25001,774.933317 4165.75,778.2 C4163.24999,781.466683 4161.38334,785.483309 4160.15,790.25 C4158.91666,795.01669 4158.3,800.39997 4158.3,806.4 C4158.3,818.40006 4160.78331,827.749966 4165.75,834.45 C4170.71669,841.150033 4178.26662,844.5 4188.4,844.5 L4188.4,844.5 Z M4276,776 C4279.20002,769.066632 4283.13331,763.650019 4287.8,759.75 C4292.46669,755.84998 4298.16663,753.9 4304.9,753.9 C4307.03334,753.9 4309.08332,754.133331 4311.05,754.6 C4313.01668,755.066669 4314.76666,755.799995 4316.3,756.8 L4315,770.1 C4314.6,771.766675 4313.60001,772.6 4312,772.6 C4311.06666,772.6 4309.70001,772.400002 4307.9,772 C4306.09999,771.599998 4304.06668,771.4 4301.8,771.4 C4298.59998,771.4 4295.75001,771.866662 4293.25,772.8 C4290.74999,773.733338 4288.51668,775.116657 4286.55,776.95 C4284.58332,778.783342 4282.81667,781.049986 4281.25,783.75 C4279.68333,786.450013 4278.26667,789.533316 4277,793 L4277,857 L4259.1,857 L4259.1,755.7 L4269.3,755.7 C4271.23334,755.7 4272.56666,756.066663 4273.3,756.8 C4274.03334,757.533337 4274.53333,758.799991 4274.8,760.6 L4276,776 Z M4395.6,795.3 C4395.6,791.166646 4395.01667,787.38335 4393.85,783.95 C4392.68333,780.516649 4390.98334,777.550012 4388.75,775.05 C4386.51666,772.549987 4383.80002,770.616673 4380.6,769.25 C4377.39998,767.883326 4373.76669,767.2 4369.7,767.2 C4361.16662,767.2 4354.41669,769.683308 4349.45,774.65 C4344.48331,779.616691 4341.40001,786.499956 4340.2,795.3 L4395.6,795.3 Z M4410,842.8 C4407.79999,845.46668 4405.16668,847.783323 4402.1,849.75 C4399.03332,851.716676 4395.75002,853.333327 4392.25,854.6 C4388.74998,855.866673 4385.13335,856.816663 4381.4,857.45 C4377.66665,858.083336 4373.96668,858.4 4370.3,858.4 C4363.29996,858.4 4356.85003,857.216678 4350.95,854.85 C4345.04997,852.483321 4339.95002,849.016689 4335.65,844.45 C4331.34998,839.88331 4328.00001,834.233367 4325.6,827.5 C4323.19999,820.766633 4322,813.033377 4322,804.3 C4322,797.233298 4323.08332,790.633364 4325.25,784.5 C4327.41668,778.366636 4330.53331,773.050022 4334.6,768.55 C4338.66669,764.049977 4343.6333,760.516679 4349.5,757.95 C4355.3667,755.38332 4361.96663,754.1 4369.3,754.1 C4375.3667,754.1 4380.98331,755.116656 4386.15,757.15 C4391.31669,759.183343 4395.78331,762.116647 4399.55,765.95 C4403.31669,769.783352 4406.26666,774.516638 4408.4,780.15 C4410.53334,785.783361 4411.6,792.199964 4411.6,799.4 C4411.6,802.200014 4411.3,804.066662 4410.7,805 C4410.1,805.933338 4408.96667,806.4 4407.3,806.4 L4339.6,806.4 C4339.8,812.800032 4340.68333,818.366643 4342.25,823.1 C4343.81667,827.833357 4345.99999,831.783317 4348.8,834.95 C4351.60001,838.116682 4354.93331,840.483325 4358.8,842.05 C4362.66669,843.616674 4366.99998,844.4 4371.8,844.4 C4376.26669,844.4 4380.11665,843.883338 4383.35,842.85 C4386.58335,841.816661 4389.36665,840.700006 4391.7,839.5 C4394.03334,838.299994 4395.98333,837.183338 4397.55,836.15 C4399.11667,835.116661 4400.46666,834.6 4401.6,834.6 C4403.06667,834.6 4404.2,835.166661 4405,836.3 L4410,842.8 Z M4518,755.7 L4476.7,857 L4460.7,857 L4419.4,755.7 L4433.9,755.7 C4435.36667,755.7 4436.56666,756.066663 4437.5,756.8 C4438.43334,757.533337 4439.06666,758.399995 4439.4,759.4 L4465.1,824.6 C4465.9,827.066679 4466.6,829.466655 4467.2,831.8 C4467.8,834.133345 4468.36666,836.466655 4468.9,838.8 C4469.43334,836.466655 4470,834.133345 4470.6,831.8 C4471.2,829.466655 4471.93333,827.066679 4472.8,824.6 L4498.8,759.4 C4499.2,758.333328 4499.86666,757.450003 4500.8,756.75 C4501.73334,756.049996 4502.83333,755.7 4504.1,755.7 L4518,755.7 Z M4599.4,795.3 C4599.4,791.166646 4598.81667,787.38335 4597.65,783.95 C4596.48333,780.516649 4594.78334,777.550012 4592.55,775.05 C4590.31666,772.549987 4587.60002,770.616673 4584.4,769.25 C4581.19998,767.883326 4577.56669,767.2 4573.5,767.2 C4564.96662,767.2 4558.21669,769.683308 4553.25,774.65 C4548.28331,779.616691 4545.20001,786.499956 4544,795.3 L4599.4,795.3 Z M4613.8,842.8 C4611.59999,845.46668 4608.96668,847.783323 4605.9,849.75 C4602.83332,851.716676 4599.55002,853.333327 4596.05,854.6 C4592.54998,855.866673 4588.93335,856.816663 4585.2,857.45 C4581.46665,858.083336 4577.76668,858.4 4574.1,858.4 C4567.09996,858.4 4560.65003,857.216678 4554.75,854.85 C4548.84997,852.483321 4543.75002,849.016689 4539.45,844.45 C4535.14998,839.88331 4531.80001,834.233367 4529.4,827.5 C4526.99999,820.766633 4525.8,813.033377 4525.8,804.3 C4525.8,797.233298 4526.88332,790.633364 4529.05,784.5 C4531.21668,778.366636 4534.33331,773.050022 4538.4,768.55 C4542.46669,764.049977 4547.4333,760.516679 4553.3,757.95 C4559.1667,755.38332 4565.76663,754.1 4573.1,754.1 C4579.1667,754.1 4584.78331,755.116656 4589.95,757.15 C4595.11669,759.183343 4599.58331,762.116647 4603.35,765.95 C4607.11669,769.783352 4610.06666,774.516638 4612.2,780.15 C4614.33334,785.783361 4615.4,792.199964 4615.4,799.4 C4615.4,802.200014 4615.1,804.066662 4614.5,805 C4613.9,805.933338 4612.76667,806.4 4611.1,806.4 L4543.4,806.4 C4543.6,812.800032 4544.48333,818.366643 4546.05,823.1 C4547.61667,827.833357 4549.79999,831.783317 4552.6,834.95 C4555.40001,838.116682 4558.73331,840.483325 4562.6,842.05 C4566.46669,843.616674 4570.79998,844.4 4575.6,844.4 C4580.06669,844.4 4583.91665,843.883338 4587.15,842.85 C4590.38335,841.816661 4593.16665,840.700006 4595.5,839.5 C4597.83334,838.299994 4599.78333,837.183338 4601.35,836.15 C4602.91667,835.116661 4604.26666,834.6 4605.4,834.6 C4606.86667,834.6 4608,835.166661 4608.8,836.3 L4613.8,842.8 Z M4654.1,776 C4657.30002,769.066632 4661.23331,763.650019 4665.9,759.75 C4670.56669,755.84998 4676.26663,753.9 4683,753.9 C4685.13334,753.9 4687.18332,754.133331 4689.15,754.6 C4691.11668,755.066669 4692.86666,755.799995 4694.4,756.8 L4693.1,770.1 C4692.7,771.766675 4691.70001,772.6 4690.1,772.6 C4689.16666,772.6 4687.80001,772.400002 4686,772 C4684.19999,771.599998 4682.16668,771.4 4679.9,771.4 C4676.69998,771.4 4673.85001,771.866662 4671.35,772.8 C4668.84999,773.733338 4666.61668,775.116657 4664.65,776.95 C4662.68332,778.783342 4660.91667,781.049986 4659.35,783.75 C4657.78333,786.450013 4656.36667,789.533316 4655.1,793 L4655.1,857 L4637.2,857 L4637.2,755.7 L4647.4,755.7 C4649.33334,755.7 4650.66666,756.066663 4651.4,756.8 C4652.13334,757.533337 4652.63333,758.799991 4652.9,760.6 L4654.1,776 Z M4699.1,846 C4699.1,844.266658 4699.41666,842.633341 4700.05,841.1 C4700.68334,839.566659 4701.54999,838.233339 4702.65,837.1 C4703.75001,835.966661 4705.06666,835.06667 4706.6,834.4 C4708.13334,833.73333 4709.76666,833.4 4711.5,833.4 C4713.23334,833.4 4714.86666,833.73333 4716.4,834.4 C4717.93334,835.06667 4719.26666,835.966661 4720.4,837.1 C4721.53334,838.233339 4722.43333,839.566659 4723.1,841.1 C4723.76667,842.633341 4724.1,844.266658 4724.1,846 C4724.1,847.800009 4723.76667,849.449992 4723.1,850.95 C4722.43333,852.450007 4721.53334,853.766661 4720.4,854.9 C4719.26666,856.033339 4717.93334,856.916663 4716.4,857.55 C4714.86666,858.183336 4713.23334,858.5 4711.5,858.5 C4709.76666,858.5 4708.13334,858.183336 4706.6,857.55 C4705.06666,856.916663 4703.75001,856.033339 4702.65,854.9 C4701.54999,853.766661 4700.68334,852.450007 4700.05,850.95 C4699.41666,849.449992 4699.1,847.800009 4699.1,846 L4699.1,846 Z" id="Every-story-should-b"></path>
            </g>
        </g>
    </g>
</svg>