<?xml version="1.0" encoding="UTF-8" standalone="no"?>
<svg height="7506.541" id="svg2" version="1.1" width="4839.5386" xmlns="http://www.w3.org/2000/svg" xmlns:svg="http://www.w3.org/2000/svg">
  <g id="ALCAMO" style="stroke-width:0.5;stroke-miterlimit:4;stroke-dasharray:none;stroke:#000000;stroke-opacity:1;stroke-linejoin:round;fill:#f8c300;fill-opacity:1" transform="matrix(32,0,0,32,-1926.8887,-4014.7194)">
    <path d="m 202.39751,171.1006 0.17299,-0.3262 0.0142,-0.0192 0.0597,-0.0807 0.62091,-0.59641 0.10241,-0.0688 0.10978,-0.0635 0.77971,-0.4241 0.2358,-0.1167 -0.18309,-0.0891 -0.0935,-0.062 -0.50481,-0.69201 -0.0395,-0.0656 0.001,-0.0674 0.016,-0.1436 0.25199,-0.54269 0.5651,-1.8551 -0.3562,-0.99539 -0.1633,-0.58442 0.20019,-0.99389 0.1967,-0.1794 0.96531,-0.37689 -0.68509,-0.35251 -1.96392,-1.4027 -1.77249,-1.9483 -1.9812,-1.619 -0.2603,-0.9287 0.2565,-0.80369 0.0633,-0.0495 0.061,-0.0272 0.0303,-0.0182 0.047,-0.0633 0.1158,-0.4049 -0.0516,-0.0828 -1.43789,-1.58169 -0.0685,-0.0552 -0.32851,-0.0147 -0.0478,0.027 -0.054,0.142 -0.0592,0.10701 -0.0826,0.004 -0.0232,10e-4 -0.32479,-0.33299 -0.4003,-0.614 -0.1716,-0.94892 0.0102,-0.334 0.0663,-0.65289 0.0529,-0.46561 -0.81922,-0.72979 -0.13308,0.1011 -0.49291,0.2096 -0.64751,0.2664 -0.0979,0.0399 -0.59678,0.2168 -0.5159,0.18789 -0.22661,0.0709 -0.2695,0.0845 -0.2491,0.0733 -0.4671,0.13451 -0.8964,0.2525 -0.3262,0.0877 -0.17039,0.0455 -0.60501,0.13951 -0.41221,0.0945 -1.4608,0.27781 -0.79119,0.13699 -0.15329,0.0179 -0.0694,0.006 -0.1037,0.007 -0.0225,0.001 -0.2032,-0.007 -0.1392,0.19479 -0.7342,1.02561 0.0625,0.55538 0.31839,1.30961 0.34191,0.5409 1.4752,2.01999 0.49069,0.5885 0.0613,0.0533 0.0588,0.0772 0.0187,0.10961 0.0252,0.14759 0.014,0.0941 -0.0652,1.01579 -0.2874,0.1055 -0.31939,0.2565 -0.25141,0.60251 0.003,0.0748 0.15519,1.16648 0.72159,1.88291 0.52121,0.78351 0.4652,0.97259 0.3107,0.67101 0.0138,0.35389 -0.0454,0.0648 -0.0957,0.0395 -0.12911,-0.0155 -0.0947,0.0177 -0.0618,0.0149 -0.0386,0.009 -0.36599,0.19361 -0.0772,0.0831 -0.1395,0.30389 -0.0591,0.8862 0.4115,0.34371 0.5002,0.18049 0.0974,0.008 0.0638,0.005 0.10861,0.014 0.58149,0.0948 0.0729,0.0415 0.0339,0.0195 0.0559,0.0814 0.28641,0.63811 0.0388,1.35089 -0.09,0.2527 -0.0146,0.0443 -0.005,0.0448 0.0254,0.15491 0.2971,0.2692 0.058,0.0409 1.2722,0.83699 0.1258,0.002 1.93051,-0.27831 0.87529,0.0233 2.0392,0.2041 0.0389,-0.0223 0.56228,-0.51429 0.0169,-0.032 0.004,-0.089 -0.009,-0.0737 -0.0267,-0.0954 -0.076,-0.19111 0.49211,0.0238 2.03909,0.4752 0.0516,0.0196 0.52119,-0.1169 0.077,-0.0265 0.11309,-0.0488 0.11571,-0.0589 0.0767,-0.0409 0.072,-0.0571 0.7648,-0.62809 0.0355,-0.0487 z" id="path40" style="stroke-width:0.09375;stroke-miterlimit:4;stroke-dasharray:none"/>
  </g>
  <g id="BUSETO_PALIZZOLO" style="stroke-width:0.5;stroke-miterlimit:4;stroke-dasharray:none;stroke:#000000;stroke-opacity:1;stroke-linejoin:round;fill:#f8c300;fill-opacity:1" transform="matrix(32,0,0,32,-1926.8887,-4014.7194)">
    <path d="m 162.6463,149.41879 -1.06171,0.0848 -0.30169,-0.10409 -0.726,-0.1447 -0.0412,-0.008 -0.065,-0.0128 -0.0573,-0.0103 -1.7718,-0.002 -0.0908,0.006 -0.62941,0.7504 0.0951,0.44301 0.034,0.18348 0.0707,1.4167 -0.9229,0.007 -0.8438,0.29491 -0.8872,1.7608 -0.009,0.0961 -0.008,0.2674 0.0467,1.0349 0.30079,0.24681 0.9756,0.35019 0.1178,0.0321 0.47541,0.084 0.11749,0.0169 0.1056,0.006 0.0982,-0.001 0.22931,0.038 0.0797,0.0199 0.099,0.0372 0.0528,0.0623 0.0472,0.0686 0.0279,0.0671 3.9e-4,0.0668 -0.121,0.9579 -0.0445,0.1506 -0.1241,0.3093 -0.039,0.0942 -0.0245,0.0585 -0.0515,0.10901 -0.0719,0.11029 -0.10949,0.12491 1.16301,0.42951 0.56929,0.27479 0.11869,0.0584 0.19561,0.16079 0.084,0.0729 0.0419,0.0387 1.8237,1.38659 1.895,1.08281 0.2253,0.1729 0.3648,0.6711 -0.0859,0.0756 -0.31031,0.243 -0.30288,0.23759 0.51289,0.38091 0.2381,0.1582 0.12891,0.0639 0.25949,0.0168 0.14199,0.003 0.38361,0.004 1.1841,0.29969 1.2227,0.31591 0.11839,0.11789 0.12381,0.0942 1.0408,0.3711 0.1603,0.0311 0.4048,0.0359 1.18899,-0.0443 0.0902,-0.0137 0.0768,-0.0978 0.0853,-0.0379 0.5343,-0.1264 0.933,-0.2206 1.04809,-0.2332 0.58251,-0.1882 0.33661,-0.2724 -0.2245,-0.6748 -0.55291,-1.4052 -0.13971,-0.33501 -0.10899,-0.51579 0.0269,-0.8318 0.0931,-0.5874 0.0391,-0.2574 0.003,-0.2349 7e-4,-0.0544 -0.16809,-0.0467 -0.0885,-0.0225 -0.57122,-0.0739 -0.80938,-0.10019 -0.1922,-0.0201 -0.8479,-0.1772 -0.15052,-0.0546 -0.0143,-0.10151 0.0373,-0.15879 0.0431,-0.2173 0.0179,-0.2909 -0.0513,-0.2393 -0.088,-0.2524 -0.0676,-0.0753 -0.3669,-0.2679 -1.6774,-0.7429 -0.10631,-0.0384 -0.12699,-0.0399 -0.1193,-0.028 -0.8661,-1.04601 -0.0293,-0.54089 -0.1427,-0.80371 -0.0407,-0.1641 -0.11692,-0.3486 -0.41719,-0.94521 -0.0882,-0.0152 -0.20111,0.0471 -0.11589,0.0534 -0.1196,0.0801 -0.0872,0.0937 -0.10251,0.0576 -0.88999,-0.1429 -0.4639,-0.15412 -0.52339,-0.25149 -1.6082,-1.636 -0.0326,-0.0716 -0.008,-0.0178 -0.1487,-0.38089 -0.002,-0.0661 0.0566,-0.0805 0.092,-0.0747 0.51649,-0.38352 z" id="path170" style="stroke-width:0.09375;stroke-miterlimit:4;stroke-dasharray:none"/>
  </g>
  <g id="CALATAFIMI" style="stroke-width:0.5;stroke-miterlimit:4;stroke-dasharray:none;stroke:#000000;stroke-opacity:1;stroke-linejoin:round;fill:#f8c300;fill-opacity:1" transform="matrix(32,0,0,32,-1926.8887,-4014.7194)">
    <path d="m 179.92599,182.0369 0.96741,1.7736 0.26599,0.4469 0.0624,0.10159 0.0747,0.0796 0.17472,0.0917 0.15739,-0.0747 0.0662,-0.0408 0.0406,-0.0865 0.0688,-0.0509 0.10091,-0.008 0.0707,0.0275 0.2628,0.1248 0.3703,0.3235 0.0248,0.016 0.0608,0.0377 0.23771,0.1121 0.0553,-0.0159 0.0711,-0.0217 0.99201,-0.33152 0.5079,-0.21469 1.0025,-0.4536 0.1066,-0.002 0.0851,0.0187 0.0709,0.0374 0.48461,0.0953 0.7521,-0.21431 2.8456,-1.0338 0.4351,-0.41049 0.0865,-0.11901 0.6875,-1.16211 0.14859,-0.61259 0.49169,-0.8338 0.35032,-0.2254 0.2173,-0.14319 0.45929,-0.52622 0.0854,-0.1727 0.22079,-0.46359 0.0433,-0.1593 -0.002,-0.0726 -0.1617,-0.43331 -0.81841,-1.43818 -0.8096,-0.89951 -0.1187,0.0531 -0.0732,-0.002 -0.2432,-0.0181 -0.71029,-0.11329 -0.0635,-0.0251 -0.8196,-0.55091 0.002,-0.0594 0.68399,-1.92202 0.5455,-0.9252 0.26379,-0.23779 0.0751,-0.0498 0.0425,0.0323 0.09,-0.2527 -0.0388,-1.35089 -0.28641,-0.63811 -0.0559,-0.0814 -0.0339,-0.0195 -0.0729,-0.0415 -0.58149,-0.0948 -0.10861,-0.014 -0.0638,-0.005 -0.0974,-0.008 -0.5002,-0.18049 -0.4115,-0.34371 0.0591,-0.8862 0.1395,-0.30389 0.0772,-0.0831 0.36599,-0.19361 0.0386,-0.009 0.0618,-0.0149 0.0947,-0.0177 0.12911,0.0155 0.0957,-0.0395 0.0454,-0.0648 -0.0138,-0.35389 -0.3107,-0.67101 -0.4652,-0.97259 -0.52121,-0.78351 -0.72159,-1.88291 -0.15519,-1.16648 -0.003,-0.0748 0.25141,-0.60251 0.31939,-0.2565 0.2874,-0.1055 0.0652,-1.01579 -0.014,-0.0941 -0.0252,-0.14759 -0.0187,-0.10961 -0.0588,-0.0772 -0.0613,-0.0533 -0.85668,0.25361 -0.27031,0.42111 -0.3582,0.53779 -0.0626,0.0845 -0.6401,0.51008 -0.2847,-0.0307 -0.3839,-0.0718 -0.74189,0.5292 -0.4366,0.5716 -0.29081,0.4116 -0.5005,0.44651 -0.145,0.12529 -0.46621,0.35431 -3.52059,0.58538 -2.4695,0.93621 -0.4701,0.1092 -1.4477,0.19201 -0.4193,0.0272 -0.36909,-0.009 -0.0305,-0.0513 -0.0649,-0.1659 -0.33661,0.2724 -0.58251,0.1882 -1.04809,0.2332 -0.933,0.2206 -0.5343,0.1264 -0.0853,0.0379 0.6006,0.51098 0.0733,0.0712 0.0759,0.10969 0.0466,0.1745 0.0267,2.2115 -0.2966,1.3686 -0.0355,0.1603 0.3878,0.56121 0.41139,0.38229 0.24221,0.21941 0.1336,0.1389 0.3364,0.61499 0.098,0.24409 0.0303,0.10572 0.0241,0.0938 0.30899,0.0742 0.21071,0.0615 0.8738,1.3253 -0.0358,0.3373 -0.0349,0.3186 -0.007,0.2079 0.0494,0.60561 0.0847,0.67588 0.0511,-0.009 0.0812,-0.0265 1.3894,0.8777 0.0166,0.01 0.012,0.007 0.10921,0.0604 0.18499,0.0989 0.3358,0.1624 0.0739,0.0306 0.0908,0.007 1.48469,-0.28321 0.0483,-0.1199 0.2064,-0.3681 0.068,-0.0334 0.47261,0.0128 0.0822,0.0128 1.6751,1.05031 0.003,0.0792 -0.002,0.1559 -0.009,0.11639 -0.51011,2.66321 -0.52809,0.8017 0.0241,0.28531 0.0363,0.11389 0.0561,0.15111 0.0499,0.13398 0.0372,0.093 0.10519,0.2473 z" id="path188" style="stroke-width:0.09375;stroke-miterlimit:4;stroke-dasharray:none"/>
  </g>
  <g id="CAMPOBELLO_DI_MAZARA" style="stroke-width:0.5;stroke-miterlimit:4;stroke-dasharray:none;stroke:#000000;stroke-opacity:1;stroke-linejoin:round;fill:#f8c300;fill-opacity:1" transform="matrix(32,0,0,32,-1926.8887,-4014.7194)">
    <path d="m 153.931,224.4825 0.1982,-0.0264 0.0457,0.0123 1.02411,1.4603 1.18058,1.04609 0.5941,0.0326 0.8087,-0.0363 2.93001,-0.8069 2.9085,-0.87109 0.0881,-0.031 0.2175,-0.0766 0.1169,-0.0394 0.5475,-0.177 0.7384,-0.2374 0.3839,-0.1094 0.62291,-0.1768 0.6239,-0.17769 1.24899,-0.33602 -1.0493,-1.8488 -0.6651,-1.18579 -0.59509,-1.36191 -0.1662,-0.4908 0.0353,-0.22608 0.0789,-0.23261 0.0774,-0.1747 0.1096,-0.16791 0.1301,-0.16279 0.5876,-0.65131 0.3385,-0.28389 1.2144,-1.0186 0.4294,-0.26291 0.4355,0.0508 0.127,-0.36011 -0.0994,-0.19519 -0.0838,-0.15901 -0.8544,-1.4735 -0.4734,-0.57941 -1.01571,-1.62899 -0.6306,-1.0669 -1.05879,0.293 -0.89799,0.2523 -0.41051,0.4426 -0.0551,0.2467 -0.10519,0.4133 -0.17121,0.3335 -0.1709,0.2276 -0.17469,0.1886 -0.21662,0.1459 -0.40599,0.2683 -1.8407,1.1375 -0.5728,0.3014 -0.0549,0.0189 -0.0971,0.0226 -0.125,0.0147 -0.12799,0.0135 -0.22751,0.0534 -0.6019,0.24121 -0.1237,0.1174 -0.096,0.18669 -0.3076,0.8799 -0.044,0.16661 -0.1938,0.76539 -0.005,0.0945 -0.1094,0.3421 -0.35221,0.6664 -0.006,0.0111 -0.15001,0.2657 -0.148,0.2605 -0.9353,1.52651 -0.7825,1.278 -0.5089,0.85 -0.92131,1.5425 -0.10939,0.1989 -0.1004,0.2639 z" id="path212" style="stroke-width:0.09375;stroke-miterlimit:4;stroke-dasharray:none"/>
  </g>
  <g id="CASTELLAMMARE_DEL_GOLFO" style="stroke-width:0.5;stroke-miterlimit:4;stroke-dasharray:none;stroke:#000000;stroke-opacity:1;stroke-linejoin:round;fill:#f8c300;fill-opacity:1" transform="matrix(32,0,0,32,-1926.8887,-4014.7194)">
    <path d="m 186.6098,152.05321 -0.45311,0.0567 -0.21739,0.0209 -0.7453,0.0408 -0.5002,0.0165 -1.75439,-0.74131 -0.0342,-0.0213 -0.0226,-0.0156 -0.011,-0.009 -0.0434,-0.0384 -0.91209,-1.1608 -0.0596,-0.18449 -0.009,-0.082 -0.0206,-0.275 0.01,-0.0745 0.009,-0.0256 0.0181,-0.0345 0.0137,-0.021 0.0146,-0.0124 0.0198,-0.0472 0.0205,-0.0754 0.004,-0.0716 9.9e-4,-0.0435 -0.005,-0.0433 -0.0167,-0.11031 -0.1504,-0.63809 -0.0141,-0.0578 -0.1873,-0.56742 -0.0381,-0.0132 -0.7154,-0.1859 -0.0637,0.0325 -0.0509,0.0446 -0.0251,0.0246 -0.0315,0.0362 -0.1098,0.15559 -0.1538,0.2623 -0.0531,0.0994 -0.008,0.0798 -0.0167,0.01 -0.0202,0.002 -0.0291,-0.005 -0.0273,-0.0108 -0.43471,-0.2635 -2.0755,-1.4172 -1.5587,-1.3387 -0.53369,-0.70301 -1.4734,-1.6429 -0.7647,-0.2153 -0.1148,-0.0163 -0.515,0.10901 -0.094,0.0593 -0.319,0.2657 -0.19529,0.1756 -0.0713,0.0849 -0.0435,0.0824 -0.005,0.1419 0.28769,2.21849 0.0933,0.6494 0.0274,0.17942 0.0176,0.10679 0.0513,0.1268 0.0462,0.0919 0.0549,0.0885 0.0652,0.0273 0.33541,-0.19242 0.12979,-0.0941 0.0811,-0.0976 0.3743,-0.22341 0.0747,0.053 0.2434,0.2486 0.138,0.19571 0.1676,0.3891 0.0235,0.49569 -0.0345,0.1502 -0.0734,0.11821 -0.4295,0.42939 -0.106,0.1023 -0.1122,0.0927 -0.0781,0.044 -2.2527,0.9178 -0.49299,0.1499 -0.88642,0.18911 -0.12548,0.0232 -0.1055,9e-4 -2.44591,-0.4798 -0.0823,-0.0708 0.0134,-0.3528 0.0463,-0.2041 0.1234,-0.4695 0.0908,-0.1865 0.0977,-0.1339 0.0967,-0.1274 0.0951,-0.1239 0.0211,-0.1587 -0.0409,-0.1736 -0.0564,-0.1481 -0.10392,-0.1166 -0.14569,-0.082 -0.1808,-0.0783 -0.19099,-0.0824 -0.12381,-0.0275 -2.2966,0.0171 -0.1631,0.0436 -0.4244,0.1463 -0.0934,0.13271 -1.07209,1.75499 -0.0475,0.0925 -0.004,0.0478 -0.003,0.0281 -0.51649,0.38352 -0.092,0.0747 -0.0566,0.0805 0.002,0.0661 0.1487,0.38089 0.008,0.0178 0.0326,0.0716 1.6082,1.636 0.52339,0.25149 0.4639,0.15412 0.88999,0.1429 0.10251,-0.0576 0.0872,-0.0937 0.1196,-0.0801 0.11589,-0.0534 0.20111,-0.0471 0.0882,0.0152 0.41719,0.94521 0.11692,0.3486 0.0407,0.1641 0.1427,0.80371 0.0293,0.54089 0.8661,1.04601 0.1193,0.028 0.12699,0.0399 0.10631,0.0384 1.6774,0.7429 0.3669,0.2679 0.0676,0.0753 0.088,0.2524 0.0513,0.2393 -0.0179,0.2909 -0.0431,0.2173 -0.0373,0.15879 0.0143,0.10151 0.15052,0.0546 0.8479,0.1772 0.1922,0.0201 0.80938,0.10019 0.57122,0.0739 0.0885,0.0225 0.16809,0.0467 -7e-4,0.0544 -0.003,0.2349 -0.0391,0.2574 -0.0931,0.5874 -0.0269,0.8318 0.10899,0.51579 0.13971,0.33501 0.55291,1.4052 0.2245,0.6748 0.0649,0.1659 0.0305,0.0513 0.36909,0.009 0.4193,-0.0272 1.4477,-0.19201 0.4701,-0.1092 2.4695,-0.93621 3.52059,-0.58538 0.46621,-0.35431 0.145,-0.12529 0.5005,-0.44651 0.29081,-0.4116 0.4366,-0.5716 0.74189,-0.5292 0.3839,0.0718 0.2847,0.0307 0.6401,-0.51008 0.0626,-0.0845 0.3582,-0.53779 0.27031,-0.42111 0.85668,-0.25361 -0.49069,-0.5885 -1.4752,-2.01999 -0.34191,-0.5409 -0.31839,-1.30961 -0.0625,-0.55538 0.7342,-1.02561 0.1392,-0.19479 z" id="path281" style="stroke-width:0.09375;stroke-miterlimit:4;stroke-dasharray:none"/>
  </g>
  <g id="CASTELVETRANO" style="stroke-width:0.5;stroke-miterlimit:4;stroke-dasharray:none;stroke:#000000;stroke-opacity:1;stroke-linejoin:round;fill:#f8c300;fill-opacity:1" transform="matrix(32,0,0,32,-1926.8887,-4014.7194)">
    <path d="m 185.1508,224.211 0.16091,-0.2229 0.69738,-1.12171 0.0894,-0.166 0.1918,-0.41209 0.34489,-1.05859 0.0189,-0.0656 0.0134,-0.11769 -0.0183,-0.36281 -0.0202,-0.0545 -0.0356,-0.0965 -0.1117,-0.23858 -0.0491,-0.0452 -0.0371,-0.0298 -0.0507,-0.0525 -0.0149,-0.0808 -0.005,-0.0826 -0.002,-0.0445 -0.003,-0.0456 0.0153,-0.16299 0.1922,-1.9623 0.9899,-3.17581 -0.47059,-1.29168 -0.13471,0.0989 -0.1151,0.0736 -0.39621,0.19899 -0.10429,0.0326 -1.95621,0.2614 -0.28749,-0.20669 -0.0571,-0.0771 -0.06,-0.1396 0.003,-0.0539 0.62149,-1.0762 0.0339,-0.0516 0.0454,-0.0576 0.57961,-0.9303 -0.3057,-0.6541 1.52469,-1.1797 -0.99839,-0.36141 -1.36499,-0.41268 -0.0966,-0.0501 -0.9835,-0.6025 -0.2896,-0.4167 0.3403,-1.4877 -2.22999,-0.1001 -0.60831,0.0719 -1.96269,0.4158 -0.21901,0.0491 -0.0688,0.0182 -0.0268,0.01 -0.103,0.17931 -0.0446,0.27459 9.9e-4,0.0704 0.006,0.0546 0.009,0.02 0.0237,0.0365 0.0361,0.0834 0.003,0.0303 -0.0145,0.0498 -0.0303,0.0644 -0.0528,0.0882 -0.0179,0.0247 -0.0424,0.0566 -0.0449,0.0497 -0.1465,0.1028 -0.832,0.1464 -0.0304,-0.011 -0.0506,-0.0217 -0.0313,-0.0143 -0.0249,-0.013 -0.0133,-0.0491 -0.1486,-0.71849 0.0117,-0.0478 0.254,-0.36209 0.23289,-0.30611 -0.0783,-1.1219 -0.071,-0.1897 -0.1468,-0.3894 -0.0154,-0.0187 -0.0232,-0.007 -0.0315,-0.006 0.0161,-0.35991 0.1945,-0.75959 0.1405,-0.3911 0.0246,-0.0505 0.0379,-0.0688 0.0112,-0.0191 0.0574,-0.0797 0.0216,-0.0248 0.62671,-0.0655 0.16859,-3.9e-4 0.0324,-0.003 0.0643,-0.0343 0.0485,-0.0263 0.0328,-0.031 0.0299,-0.031 0.0437,-0.5166 0.004,-0.1163 -0.006,-0.0408 -0.0123,-0.0491 -0.0207,-0.0658 -0.0435,-0.0754 -0.2659,-0.33301 -0.2826,-1.6492 0.32779,-1.30659 -0.13508,-0.0918 -0.0687,-0.0673 -0.13041,-0.1914 -0.14788,-0.3637 -0.0595,-0.1566 -0.0421,-0.1214 -0.057,-0.21019 -0.3161,-0.32451 -0.55681,-0.25479 -3.36341,-0.27842 -1.9787,-0.16479 -1.8067,-0.1501 -0.0314,-0.0579 -0.0145,-0.0531 -0.2724,-0.10091 -0.36459,-0.0451 -0.5715,0.63591 -0.7301,0.71859 0.0925,0.0835 0.1689,0.22079 0.1371,0.24231 0.055,0.16249 0.0399,2.38662 -0.0119,0.10139 -9e-4,0.008 -0.0102,0.086 -0.11799,0.91561 -0.0516,0.0984 -0.38499,0.31539 -0.1646,0.13021 -0.16121,0.0926 -0.1353,0.0178 -0.34869,-0.0629 -0.0624,-0.0449 -0.0555,-0.12191 -0.48199,-0.32389 -0.1208,-0.0451 -1.344,-0.30881 -0.11841,-0.009 0.0121,0.0781 0.0313,0.1445 0.0524,0.11639 0.0876,0.12241 0.0749,0.081 0.0515,0.0771 -0.005,0.1409 -0.0259,0.31571 -0.0642,0.11929 -0.41349,0.7007 -0.0589,0.0898 -0.6402,0.9098 -0.0765,0.0916 -0.61268,0.53619 -0.10932,0.062 -0.3743,0.20509 -0.10089,0.0504 0.0181,0.25929 0.2634,0.57122 0.059,0.0887 1.9417,2.52939 0.1766,0.18592 0.0847,0.069 0.61988,0.30719 0.77651,0.5184 0.33079,0.7637 0.6306,1.0669 1.01571,1.62899 0.4734,0.57941 0.8544,1.4735 0.0838,0.15901 0.0994,0.19519 -0.127,0.36011 -0.4355,-0.0508 -0.4294,0.26291 -1.2144,1.0186 -0.3385,0.28389 -0.5876,0.65131 -0.1301,0.16279 -0.1096,0.16791 -0.0774,0.1747 -0.0789,0.23261 -0.0353,0.22608 0.1662,0.4908 0.59509,1.36191 0.6651,1.18579 1.0493,1.8488 0.6122,-0.11509 0.23739,-0.0349 1.23101,-0.1704 0.59201,-0.028 1.00819,-0.0176 1.1709,-0.0364 0.9183,-0.0445 0.36341,-0.0596 0.61628,-0.0744 0.0716,-0.006 0.1019,-0.005 1.4628,0.0462 2.71401,0.0229 0.1008,-0.0721 0.0272,-0.01 0.0323,-0.009 0.24451,-0.0283 0.29069,0.0176 0.22209,0.0137 0.15992,0.0196 0.42189,0.0527 0.3141,0.0409 0.45649,0.0852 0.10431,0.0229 1.7108,0.3866 0.17,0.0766 0.3931,0.1353 0.0833,0.0154 0.8851,0.0526 0.2252,0.002 z" id="path293" style="stroke-width:0.09375;stroke-miterlimit:4;stroke-dasharray:none"/>
  </g>
  <g id="CUSTONACI" style="stroke-width:0.5;stroke-miterlimit:4;stroke-dasharray:none;stroke:#000000;stroke-opacity:1;stroke-linejoin:round;fill:#f8c300;fill-opacity:1" transform="matrix(32,0,0,32,-1926.8887,-4014.7194)">
    <path d="m 157.9014,149.9789 0.62941,-0.7504 0.0908,-0.006 1.7718,0.002 0.0573,0.0103 0.065,0.0128 0.0412,0.008 0.726,0.1447 0.30169,0.10409 1.06171,-0.0848 0.003,-0.0281 0.004,-0.0478 0.0475,-0.0925 1.07209,-1.75499 0.0934,-0.13271 0.4244,-0.1463 0.1631,-0.0436 2.2966,-0.0171 0.12381,0.0275 0.19099,0.0824 0.1808,0.0783 0.14569,0.082 0.10392,0.1166 0.0564,0.1481 0.0409,0.1736 -0.0211,0.1587 -0.0951,0.1239 -0.0967,0.1274 -0.0977,0.1339 -0.0908,0.1865 -0.1234,0.4695 -0.0463,0.2041 -0.0134,0.3528 0.0823,0.0708 2.44591,0.4798 0.1055,-9e-4 0.12548,-0.0232 0.88642,-0.18911 0.49299,-0.1499 2.2527,-0.9178 0.0781,-0.044 0.1122,-0.0927 0.106,-0.1023 0.4295,-0.42939 0.0734,-0.11821 0.0345,-0.1502 -0.0235,-0.49569 -0.1676,-0.3891 -0.138,-0.19571 -0.2434,-0.2486 -0.0747,-0.053 -0.3743,0.22341 -0.0811,0.0976 -0.12979,0.0941 -0.33541,0.19242 -0.0652,-0.0273 -0.0549,-0.0885 -0.0462,-0.0919 -0.0513,-0.1268 -0.0176,-0.10679 -0.1533,-0.0503 -0.40871,-0.16741 -0.0805,-0.0592 -0.1448,-0.5347 0.0267,-0.17371 -0.0866,-0.1225 -0.11451,-0.1309 -0.75801,-0.7923 -1.7238,-0.7064 -2.1355,-0.63421 0.10502,-0.55799 0.0185,-0.26191 -0.0236,-0.0662 -0.25319,-0.5237 -0.0215,-0.0372 -0.30141,-0.39219 -2.3199,-1.2417 -1.30049,-1.2836 -0.1185,-0.1026 -0.12531,-0.0826 -0.14799,-0.0574 -0.15561,-0.0598 -0.36811,-0.12059 -0.52769,-0.15651 -0.18649,0.12981 -1.19352,0.5284 -1.1752,0.0281 -0.29409,-0.0142 -0.1756,-0.0665 -0.5797,-0.3909 -0.19009,-0.15111 -0.0859,-0.089 -0.0338,-0.0601 -0.0234,-0.23309 0.0241,-0.0904 4e-4,-0.0406 -0.0167,-0.0827 -0.14041,-0.0679 -0.008,-0.004 -0.1853,-0.0755 -0.0634,-0.0126 -0.62801,-0.0746 -0.10618,0.015 -1.05591,0.23961 -0.1297,0.0378 -0.0288,0.0115 -0.26131,0.1333 -0.2661,0.2855 -0.13721,0.2529 -0.0393,0.1856 0.0493,0.8377 0.0823,0.29341 0.0208,0.0712 0.0297,0.0642 0.0768,0.10389 0.0641,0.0192 0.0994,0.0467 0.1473,0.0775 0.0392,0.0407 0.0393,0.0516 0.0396,0.0603 0.0646,0.1114 0.0348,0.0993 -9e-4,0.0436 -0.001,0.0506 -0.0203,0.0892 -0.0989,0.2356 -0.0355,0.0566 -0.16649,0.19591 -1.20221,0.87441 -0.2038,0.0559 -0.0758,0.021 -0.1605,0.0881 -0.0205,0.0601 -0.0162,0.0509 -0.2007,0.73812 -0.0143,0.0842 -0.0133,0.1707 0.7813,1.54149 1.1953,1.57161 0.8704,1.2013 0.19519,0.76139 -0.18179,0.69001 -0.002,0.0449 0.0446,0.12999 0.2908,-0.003 0.0155,-2e-4 0.25409,-0.003 0.1889,-0.005 0.0223,-4.8e-4 0.0389,-0.001 0.008,-2e-4 0.17599,-0.0108 0.49282,-0.0366 0.15399,-0.0115 0.4684,0.6003 z" id="path370" style="stroke-width:0.09375;stroke-miterlimit:4;stroke-dasharray:none"/>
  </g>
  <g id="ERICE" style="stroke-width:0.5;stroke-miterlimit:4;stroke-dasharray:none;stroke:#000000;stroke-opacity:1;stroke-linejoin:round;fill:#f8c300;fill-opacity:1" transform="matrix(32,0,0,32,-1926.8887,-4014.7194)">
    <path d="m 155.7468,162.1523 1.4122,0.4572 0.1797,0.0361 0.4344,0.0403 0.1317,8.1e-4 0.12869,-0.003 0.40502,-0.0204 0.12829,-0.0189 0.1292,-0.0377 0.0961,-0.0274 0.1301,-0.006 3.0128,0.29601 0.23221,0.0382 0.55859,0.15489 0.67441,0.33439 0.30288,-0.23759 0.31031,-0.243 0.0859,-0.0756 -0.3648,-0.6711 -0.2253,-0.1729 -1.895,-1.08281 -1.8237,-1.38659 -0.0419,-0.0387 -0.084,-0.0729 -0.19561,-0.16079 -0.11869,-0.0584 -0.56929,-0.27479 -1.16301,-0.42951 -0.21331,-0.3856 -0.0804,-0.1062 -0.0677,-0.073 -0.0655,-0.0447 -0.058,-0.0334 -1.6499,-0.26629 -0.4481,-0.0589 -0.657,0.1978 -0.1671,0.0479 -0.6927,-0.0552 -0.1328,-0.0328 -0.84281,-0.54491 -0.40179,-0.7621 -1.82401,-0.815 -0.39799,-1.23641 -0.0788,-0.21269 -1.0114,-0.0252 -0.47019,-0.003 -2.90581,-1.53489 -0.16139,-0.12371 -0.0141,-0.87039 0.0167,-0.077 0.02,-0.0921 0.0997,-0.2174 0.29149,-0.34149 0.03,-0.0315 0.54809,-0.3315 0.0791,0.0574 0.1953,0.29261 0.1144,-0.10882 0.32789,-0.40599 0.38491,-0.5272 0.1439,-0.4921 -0.58591,-2.12201 -0.49609,-0.35859 -0.26041,-0.15 -0.26458,-0.0312 -0.2601,-0.69409 -0.0498,-0.51331 -0.0181,-0.0145 -1.0971,-0.5164 -0.3796,-0.1611 -0.1407,0.0237 -0.5113,0.1307 -0.3935,0.1366 -1.16659,0.6644 -0.0473,0.049 -0.0678,0.0976 -0.0192,0.05 -0.5567,1.7621 -0.027,0.13829 -0.0422,0.0512 -0.73489,0.87609 -1.9655,1.8362 0.24958,0.57601 1.1996,1.63629 1.06832,0.6745 0.32148,0.0492 3.0869,0.5345 0.0846,0.0301 0.0124,0.004 0.0701,0.0249 0.17411,0.10601 0.18321,0.1129 0.14988,0.1864 0.0882,0.12449 0.0639,0.0903 0.28202,0.2523 0.10618,0.0817 0.22641,0.1407 1.1254,0.68811 0.008,0.002 0.19059,0.0269 0.22879,0.0117 0.0465,0.003 0.16471,0.009 1.43969,0.5016 0.4131,0.17121 0.41381,0.1922 0.39439,0.26049 0.0258,0.0184 1.6491,1.4299 0.28151,0.42369 0.0941,0.1299 0.10389,0.1092 0.0841,0.086 1.9207,1.77091 0.5133,0.31669 0.70081,0.4424 0.0711,0.0869 0.0406,0.106 0.0259,0.2085 z" id="path383" style="stroke-width:0.09375;stroke-miterlimit:4;stroke-dasharray:none"/>
  </g>
  <g id="FAVIGNANA" style="stroke-width:0.5;stroke-miterlimit:4;stroke-dasharray:none;stroke:#000000;stroke-opacity:1;stroke-linejoin:round;fill:#f8c300;fill-opacity:1" transform="matrix(4,0,0,4,-3.9999995e-6,-3228.7315)">
    <path d="m 367.83782,1148.9222 -2.236,3.6247 -0.1448,0.436 0.024,0.4368 0.056,0.3536 1.2016,2.7816 4.9744,4.1072 1.568,0.2624 6.9768,-0.8216 3.9416,-1.4681 5.2216,-1.3903 9.396,-2.5136 3.5728,-0.7064 0.5696,-0.04 2.3488,0.392 6.2792,0.959 8.9448,-0.1144 3.4744,0.4088 0.1888,0.14 6.0352,6.0872 4.4088,4.9464 2.3176,3.2953 2.8712,5.9239 0.24,0.4296 0.1144,0 13.2008,-3.2575 0.3736,-0.4256 0.2272,-0.4216 0.3896,-0.8199 0.2664,-0.5904 2.1192,-7.6391 1.5264,-5.9608 -0.1368,-0.7888 -0.4512,-2.1025 -0.592,-1.7096 -0.2624,-0.4408 -1.9064,-1.5655 -1.04,-0.5256 -0.6976,1.4655 -0.304,0.58 -0.5632,0.2584 -1.0032,0.104 -0.7368,0.072 -1.4472,-0.2072 -5.816,-3.9799 -1.0464,-0.8337 -2.7896,-2.5 -2.9936,-4.3016 0.024,-0.2 0.04,-0.2816 0.0824,-0.5472 0.0928,-0.548 0.008,-0.2424 0.005,-0.2 0.006,-0.9441 -0.008,-0.2968 -0.5152,-0.8969 -0.184,-0.152 -0.4536,-0.2728 -4.2808,-2.3336 -5.7232,0.092 -5.1768,2.0352 -0.3784,0.636 -7.136,2.3872 0.024,2.0544 -0.6088,1.62 -0.048,0.1168 -0.1144,0.1776 -0.064,0.083 -0.08,0.064 -0.2048,0.09 -0.5928,0.1784 -0.0808,0.016 -0.336,0.04 -0.136,0 -0.1256,-0.016 -0.2432,-0.064 -0.024,-0.01 -0.5176,-0.4728 -0.08,-0.1024 -2.1288,-4.8488 -0.156,-0.1304 -1.0008,-0.892 -1.5664,-1.5024 -1.6936,-1.7088 -1.2296,-2.5368 -1.2624,-5.4456 -0.3704,-3.5272 0.008,-0.2792 -0.7576,-2.4921 -0.1816,-0.3896 -0.1152,-0.1464 -4.896,-5.3024 -1.892,-1.5896 -3.9352,1.936 -1.3968,2.2416 -2.3512,3.6711 -10.736,7.1817 -0.2416,0.099 -0.4472,0.1264 -0.3656,-0.048 -0.104,-0.016 -0.4432,-0.084 -0.1104,-0.064 -0.1,-0.064 -0.3728,-0.2864 -0.2312,-0.2952 -2.3872,-3.1511 -1.524,-0.7816 -1.0944,-0.3808 -0.2296,-0.064 -0.6328,-0.084 -0.3312,0.032 -0.292,0.056 -0.4808,0.1832 -1.2808,0.6528 -0.2736,0.24 -0.1336,0.224 -3.0064,7.9719 -0.5616,3.2424 3.7232,12.516 0.8368,2.1873 0.1688,0.3944 0.2184,0.3984 0.4008,0.6784 0.2032,0.2096 0.2272,0.016 2.6832,-2.1064 z" id="path392" style="fill:#f8c300;fill-opacity:1;stroke:#000000;stroke-width:0.75;stroke-linejoin:round;stroke-miterlimit:4;stroke-opacity:1;stroke-dasharray:none"/>
    <path d="m 136.51823,1045.4909 7.76693,2.5712 -1.36119,5.3774 c 0,0 -5.10883,4.0986 -4.34894,5.2262 0.7599,1.1277 3.56909,4.8098 3.56909,4.8098 l 0.48206,12.006 10.95451,9.5402 1.5991,6.0716 3.40737,2.6231 1.42053,9.6027 5.90683,1.6603 1.98061,3.9124 3.9918,1.8358 -0.911,1.8601 -7.89055,-0.1268 -3.64088,1.9944 -5.06452,-2.1623 -10.03288,-6.2259 -15.28971,-4.5856 -4.16726,-3.7507 -4.42514,-4.0361 -3.88943,-14.6291 -2.27658,-8.829 -3.97184,-12.9994 -6.16471,-1.9457 -0.78427,-6.0304 16.85383,0.58 12.27759,-0.4683 4.00865,-3.8819 z" id="path2886" style="color:#000000;fill:#f8c300;fill-opacity:1;stroke:#000000;stroke-width:0.75;stroke-linecap:butt;stroke-linejoin:round;stroke-miterlimit:4;stroke-opacity:1;stroke-dasharray:none;stroke-dashoffset:0;marker:none;visibility:visible;display:inline;overflow:visible;enable-background:accumulate"/>
    <path d="m 424.42001,1017.1621 0.67437,8.2034 2.83355,8.5849 4.57157,9.2174 7.06042,3.0801 2.18509,2.5613 -0.93471,7.7136 -9.74689,4.2724 -12.78647,-0.2384 -2.74892,-2.1813 -2.92439,-4.0964 -3.96433,-2.3789 0.46327,-14.5451 2.28436,-4.7861 3.20754,-4.1947 2.78794,-6.6667 1.4077,-3.605 5.62991,-0.9407 z" id="path2882" style="color:#000000;fill:#f8c300;fill-opacity:1;stroke:#000000;stroke-width:0.75;stroke-linecap:butt;stroke-linejoin:round;stroke-miterlimit:4;stroke-opacity:1;stroke-dasharray:none;stroke-dashoffset:0;marker:none;visibility:visible;display:inline;overflow:visible;enable-background:accumulate"/>
    <path d="m 502.74069,1055.5701 7.26571,0.3674 -0.47855,5.422 c 0,0 -2.96946,3.526 -3.50582,3.3627 -0.53638,-0.163 -2.10193,-5.5524 -2.10193,-5.5524 l -1.1795,-3.5997 z" id="path2880" style="color:#000000;fill:#f8c300;fill-opacity:1;stroke:#000000;stroke-width:0.75;stroke-linecap:butt;stroke-linejoin:round;stroke-miterlimit:4;stroke-opacity:1;stroke-dasharray:none;stroke-dashoffset:0;marker:none;visibility:visible;display:inline;overflow:visible;enable-background:accumulate"/>
    <path d="m 516.38933,1056.2603 5.35063,0.5429 c 0,0 2.35868,1.8212 1.87307,2.0009 -0.48565,0.1798 -6.84342,3.3982 -6.84342,3.3982 l -3.11671,-0.2936 2.73642,-5.6481 z" id="path2878" style="color:#000000;fill:#f8c300;fill-opacity:1;stroke:#000000;stroke-width:0.75;stroke-linecap:butt;stroke-linejoin:round;stroke-miterlimit:4;stroke-opacity:1;stroke-dasharray:none;stroke-dashoffset:0;marker:none;visibility:visible;display:inline;overflow:visible;enable-background:accumulate"/>
  </g>
  <g id="GIBELLINA" style="stroke-width:0.5;stroke-miterlimit:4;stroke-dasharray:none;stroke:#000000;stroke-opacity:1;stroke-linejoin:round;fill:#f8c300;fill-opacity:1" transform="matrix(32,0,0,32,-1926.8887,-4014.7194)">
    <path d="m 183.64391,188.11549 -0.004,-0.0128 -0.0189,-0.0491 -0.0728,-0.0519 -0.0499,-0.0119 -0.1921,-0.0275 -0.11161,-0.0103 -0.0265,-2e-4 10e-4,0.0654 0.0395,0.0676 0.4378,0.0483 -0.003,-0.0176 z" id="path470" style="stroke-width:0.09375;stroke-miterlimit:4;stroke-dasharray:none"/>
    <path d="m 184.3504,185.15781 -0.0161,-0.14511 -0.006,-0.0198 -0.01,-0.0203 -0.009,-0.007 -0.0217,-0.005 -0.0219,-0.001 -0.022,5.9e-4 -0.0328,0.004 -0.027,0.005 -0.4106,0.1093 0.13569,0.1829 0.0108,0.0128 0.009,0.005 0.421,-0.12109 z" id="path472" style="stroke-width:0.09375;stroke-miterlimit:4;stroke-dasharray:none"/>
    <path d="m 182.3791,184.9221 -0.0473,-0.0887 -0.1149,0.0573 0.0116,0.0242 -0.0158,0.008 -0.0515,0.0258 -0.0542,0.0231 -0.0475,0.0242 -0.0348,0.0181 -0.0291,0.0239 -0.0229,0.0281 -0.042,0.0475 -0.0276,0.0283 -0.0291,0.0296 -0.0127,0.0104 -0.0205,0.008 -0.034,0.01 -0.0373,0.009 -0.0222,0.006 -0.0325,0.005 -0.0265,0.008 -0.0256,0.006 -0.0153,0.002 -0.0303,0.0136 -0.0209,0.007 -0.0124,0.002 -0.009,9e-4 -0.0294,0.002 -0.018,0.001 -0.009,-0.001 -0.005,-0.003 -0.30371,0.52201 -0.0288,1.12149 0.73751,0.85631 0.5307,0.20109 0.75139,-0.067 -0.0126,-0.0327 -0.0135,-0.0362 -0.0215,-0.0573 -0.0164,-0.0443 -0.007,-0.038 -0.0158,-0.0319 -0.0438,-0.0656 -0.0661,-0.0942 -0.0489,-0.0687 -0.2285,-0.2451 -0.0246,0.002 -0.0625,0.007 -0.0725,0.0111 -0.13861,-0.2657 -0.0104,-0.0287 -0.003,-0.0302 -9e-4,-0.0335 0,-0.2455 7.9e-4,-0.0624 0.023,-0.2094 0.008,-0.0454 0.019,-0.0597 0.0216,-0.0441 0.0311,-0.047 0.0233,-0.0299 0.0625,-0.0768 0.0402,-0.043 0.055,-0.0608 0.0422,-0.0545 0.0165,-0.0251 -0.0986,-0.0486 -0.0459,-0.002 -0.127,0.002 -0.049,0.004 -0.0383,-5.1e-4 -0.0311,-0.002 -0.0262,-0.002 -0.0191,-0.002 -0.0294,-0.008 -0.0388,-0.0136 -0.0422,-0.0209 -0.1791,-0.0919 -0.4135,-0.28659 -0.0169,-0.017 -0.005,-0.0129 -0.003,-0.0219 7e-4,-0.0145 0.004,-0.009 0.004,-0.008 0.0172,-0.0134 0.0256,-0.0138 0.0293,-0.008 0.0862,-0.0193 0.0393,-0.007 0.0326,-0.011 0.0289,-0.0108 0.0203,-0.0108 0.0512,-0.0476 0.0357,-0.0384 0.0291,-0.034 0.0259,-0.0268 0.0161,-0.0164 0.0178,-0.0134 0.0253,-0.0149 0.14911,-0.0719 0.0283,0.0592 0.11869,-0.0593 z" id="path474" style="stroke-width:0.09375;stroke-miterlimit:4;stroke-dasharray:none"/>
    <path d="m 194.427,183.2767 -0.0981,-0.2718 -0.0557,-0.1489 -0.0426,-0.0773 -0.0565,-0.1017 -0.0676,-0.0841 -0.0934,-0.062 -1.0168,-0.18289 -1.02851,-0.10932 -0.3341,-0.17729 -0.1825,-0.19189 -0.33619,-0.78672 -0.6875,1.16211 -0.0865,0.11901 -0.4351,0.41049 -2.8456,1.0338 -0.7521,0.21431 -0.48461,-0.0953 -0.27069,0.1731 -0.0132,0.0567 0.0374,0.43471 0.20639,0.9839 0.18621,0.48208 0.7346,1.85471 0.70979,1.62151 0.17182,0.16859 0.25518,0.25439 1.14782,1.22422 0.42399,1.59909 0.0267,0.13859 0.004,0.11301 0.002,0.0827 0.23329,0.11389 0.0471,0.0165 0.2128,-0.0843 0.29401,-0.2358 0.17769,-0.22039 0.009,-0.0511 0.0993,-1.44631 0.8508,-1.7489 0.0972,-0.0311 0.40669,-0.0304 0.27521,0.0199 0.0401,0.0311 0.67048,0.8664 0.14011,0.19751 0.4559,0.46778 0.37399,0.20951 1.78071,0.28779 0.67379,-1.5224 0.0389,-0.16339 0.0453,-0.1315 0.0371,-0.104 0.2639,-0.55721 0.0392,-0.0792 0.0597,-0.0798 0.0893,-0.064 0.37239,-0.1387 0.0944,-0.0196 0.07,-0.007 0.0976,0.056 0.30741,0.0922 0.42459,0.11709 0.179,0.0399 1.0507,0.085 0.1301,0.002 0.59579,-0.0678 0.66822,0.0949 0.002,-0.002 0.0669,-0.0595 -0.021,-0.5047 -0.0399,-0.7728 -0.0791,-0.6338 -0.0203,-0.1274 -0.0367,-0.1474 -0.0678,-0.1611 -0.0395,-0.1326 -0.36329,-1.2117 -0.002,-0.14061 -0.0949,-0.004 -0.17889,-0.0182 -1.19231,-0.14009 -0.2901,-0.0388 -1.6214,-0.2398 -1.985,-0.2956 -0.45709,-1.1223 z" id="path476" style="stroke-width:0.09375;stroke-miterlimit:4;stroke-dasharray:none"/>
  </g>
  <g id="MARSALA" style="stroke-width:0.5;stroke-miterlimit:4;stroke-dasharray:none;stroke:#000000;stroke-opacity:1;stroke-linejoin:round;fill:#f8c300;fill-opacity:1" transform="matrix(4,0,0,4,-3.9999995e-6,-3228.7315)">
    <path d="m 790.03854,1344.4413 -0.5456,-3.7582 -0.848,-19.0561 -5.0784,-17.1751 0.91448,-3.6936 0.6096,-3.1362 0.1968,-1.4807 -4.97048,-22.5888 -4.0512,-7.3209 -0.6688,-1.0511 -0.436,-0.5448 -3.4296,-3.9128 -5.5384,-4.4992 -0.7512,-0.564 -2.99032,-0.2616 -1.74088,-0.5024 -15.56552,1.2569 -6.35368,2.5511 -13.91112,-0.336 -0.3776,-0.3624 -0.1496,-0.1512 -0.548,-4.8624 0.2176,-2.9969 -2.81272,-0.7064 -4.7528,2.0511 -3.44168,1.6839 -3.00472,-4.1087 -3.6488,-5.4048 -0.8792,-1.9095 -0.0864,-0.188 -0.6696,-1.9471 0.2168,-1.9991 1.30952,-0.9305 1.964,-0.4584 2.7816,-0.5784 7.34472,-4.4935 1.34488,-0.9113 0.8152,-0.6128 1.9664,-1.7519 -6.9624,-6.5081 -12.46328,-2.9521 -2.29424,-0.512 -5.62408,1.4208 0.0808,0.8615 0.1984,1.7953 0.62,0.4536 0.5472,0.3344 0.016,0.4936 -0.2976,0.668 -0.584,0.5288 -3.91128,3.4431 -10.06552,5.9817 -3.40968,-1.0936 -0.256,-1.3336 -0.48,0.094 -0.5672,0.1104 -4.9992,1.5857 -1.3768,0.5856 -3.16552,2.3816 -0.6696,-0.1304 -0.3304,-0.08 -0.3784,-0.1944 -2.1952,-1.2271 -1.8296,-1.0672 -8.13768,-8.76 -1.24408,-3.7328 -1.89832,-5.0168 -6.37768,-6.312 -0.7776,-0.668 -3.01032,-1.4777 -8.02232,-3.8319 -0.82328,-0.1472 -0.86,0.1944 -1.7544,0.4504 -3.56952,1.2696 -4.32808,0.016 -0.796,-0.04 -11.6832,-1.14 -0.552,-0.09 -2.5968,-1.699 -0.728,-0.5616 -0.7672,-0.7072 -2.06392,-2.3641 -0.6256,-3.2104 -0.3472,-0.744 -1.1288,-2.3872 -0.5664,-1.0544 -1.14632,-1.708 -0.6256,-0.6448 -0.4152,-0.3096 -0.0848,-0.064 -0.064,-0.04 -12.86328,-7.0561 -2.10072,-1.0935 -0.5688,-0.2704 -5.364,-12.2024 -2.2424,-18.7729 0.2224,-0.8151 0.316,-0.5832 0.1528,-0.2824 0.8064,-0.4864 1.1776,-0.1416 1.2544,0.048 1.5072,-0.112 3.13672,-0.8593 0.7352,-0.9415 1.01512,-1.8489 8.8e-4,-0.8352 -0.1352,-1.0736 -0.1448,-1.0672 -0.24,-1.4776 -0.5704,-1.1704 -0.4792,-0.4184 -0.8912,-0.4967 -1.6256,0.08 -0.8736,0.1648 -9.02,3.2225 -3.27688,3.4432 -0.4544,0.5111 -2.484,2.9424 -0.4768,0.7896 -1.51688,3.9153 -2.8656,7.0207 -1.04072,1.9064 -0.6784,0.9176 -0.9928,1.2697 -2.44792,3.0063 -0.1568,0.18 -0.5464,0.56 -0.264,0.2048 -0.1736,0.064 -1.53448,0.8079 -1.41112,1.4575 -0.6016,1.0921 0.3152,2.7816 7.288,18.2391 0.2856,0.516 9.19904,9.0999 0.6792,0.08 0.252,0.093 5.06872,3.144 0.90088,0.664 1.2984,1.716 0.1512,0.2552 1.6008,3.2472 0.4336,1.8505 0.14,0.6208 0.0864,0.5 0.0824,0.8073 -0.2272,1.2544 -0.0816,0.192 -10.91192,19.9561 2.01672,1.2767 0.4344,0.3288 -0.1064,0.7032 -0.1416,0.2752 -0.0864,0.1672 -0.1848,0.3448 -2.90168,5.3368 -7.52472,14.3176 0.056,0.097 0.9496,1.9688 0.88,3.8129 0.04,0.3632 -0.016,0.4272 -0.7688,9.4815 -1.704,3.9217 -2.44552,5.0495 -2.38648,4.6369 -1.27848,1.5342 -1.28792,0.7712 -6.9104,3.2841 -0.1168,0.048 -0.4168,0.1448 -9.3456,2.3384 -1.5808,-3.0761 2.4976,-2.3775 0.7296,-0.8697 0.408,-0.5632 -0.3,-0.9128 -0.0904,-0.096 -0.22,0.024 -0.1136,0.056 -1.812,1.1209 -0.7136,0.4704 -12.2728,12.6999 -2.5584,2.7409 0.032,4.5384 5.1792,13.1576 2.8208,4.6928 1.0904,-1.536 -1.8944,-2.1048 -0.3192,-0.08 -0.532,-0.3088 -0.6616,-0.612 -0.2968,-0.4696 -0.5072,-1.5505 0.072,-0.4208 0.04,-0.2104 0.0848,-0.4672 0.04,-0.176 0.9,-1.6614 0.5384,0.032 6.1192,3.9096 0.064,0.056 2.2248,1.844 1.188,1.2528 0.2616,0.2848 7.7848,11.0816 1.016,1.7384 0.1992,0.3752 2.8712,5.4488 0.1856,0.3544 0.46,1.0448 0.3168,0.7952 0.704,2.3472 7.04,17.852 6.98088,11.9791 0.82624,2.3841 0.308,0.968 0.6184,2.592 0.3216,1.5584 0.064,0.7432 0.3376,3.7072 -0.008,2.1656 -0.072,0.516 1.0048,0.868 2.2568,1.6976 0.204,0.128 3.50088,0.1064 11.15112,-3.4464 1.336,-0.6728 1.0712,-0.5528 0.064,-0.048 0.3744,-0.308 0.056,-0.048 0.9912,-0.828 4.2488,4.2528 13.0432,13.1944 0.648,0.6568 0.97208,1.0023 5.472,5.6496 1.2632,1.3064 3.2544,3.4328 1.1328,0.9457 0.6928,0.5744 6.7424,-5.0208 8.1896,-7.8617 1.5992,-1.5559 1.8528,-1.9184 0.912,-1.2536 0.5272,-0.8392 4.03288,-4.668 5.23592,-5.5456 2.1928,-2.3232 3.2672,-3.1616 4.50488,-4.1913 3.57344,-3.9127 0.104,-0.1232 1.32328,-1.564 3.3176,-5.7623 0.95048,-2.5088 1.62952,-4.6657 0.3128,-1.0064 1.24312,-10.0752 0.3856,-7.1615 -1.344,-0.9281 -1.1744,-0.68 2.932,-8.5048 11.4304,0.636 3.65672,0 0.5728,-0.4272 7.808,-7.9728 2.1024,-10.8744 2.268,-6.7816 2.904,-3.5504 7.46632,-0.2768 10.2008,1.3208 19.11368,1.1656 11.7832,-1.2584 2.7632,-0.2432 4.6576,-0.1616 7.6672,0.412 1.1736,0.2144 2.79512,0.5936 1.11048,0.4584 1.0656,0.5672 0.024,0.01 0.4448,9.8232 -0.024,0.8816 -0.356,1.6456 -1.8328,4.2608 -1.1048,1.62 4.0616,11.9288 0.6064,1.376 1.208,1.5624 1.47608,1.6016 1.4408,1.0888 1.0664,0.5792 0.9728,0.1368 6.7384,0.8791 0.81992,0.072 1.03448,-0.2208 1.0184,-0.352 3.80712,-1.8145 z" id="path591" style="fill:#f8c300;fill-opacity:1;stroke:#000000;stroke-width:0.75;stroke-linejoin:round;stroke-miterlimit:4;stroke-opacity:1;stroke-dasharray:none"/>
    <path d="m 537.9333,1179.4805 -5.60399,3.1204 -8.10878,1.4961 -4.21157,2.5101 -1.19946,7.564 5.05765,2.2981 2.80763,6.4051 2.36743,4.3405 1.34809,5.6505 0.51796,8.604 -0.48077,9.5065 1.00936,4.2718 0.9132,6.1731 1.92566,4.999 1.90661,2.6833 2.51166,1.4886 1.87538,-2.0836 1.91128,-5.4857 1.02931,-6.8918 c 0,0 -2.25909,-3.7904 -2.4895,-4.619 -0.2304,-0.8286 -1.44424,-3.7492 -1.68839,-4.3062 -0.24414,-0.557 -0.0157,-7.7616 -0.0157,-7.7616 l 1.64498,-2.9122 1.78078,-2.9053 -0.13114,-8.176 -3.76359,-9.0403 -1.37712,-2.3843 0.13226,-5.3033 3.51194,-2.1371 0.0961,-1.9013 -3.27686,-5.2034 z" id="path2876" style="color:#000000;fill:#f8c300;fill-opacity:1;stroke:#000000;stroke-width:0.75;stroke-linecap:butt;stroke-linejoin:round;stroke-miterlimit:4;stroke-opacity:1;stroke-dasharray:none;stroke-dashoffset:0;marker:none;visibility:visible;display:inline;overflow:visible;enable-background:accumulate"/>
    <path d="m 556.09065,1216.2074 9.71099,-0.8705 1.95158,7.1788 -1.1567,4.0261 c 0,0 -8.52306,1.6113 -9.06629,1.5838 -0.54323,-0.027 -1.20011,-3.1922 -1.14516,-4.2787 0.0549,-1.0864 -0.29442,-7.6395 -0.29442,-7.6395 z" id="path2874" style="color:#000000;fill:#f8c300;fill-opacity:1;stroke:#000000;stroke-width:0.75;stroke-linecap:butt;stroke-linejoin:round;stroke-miterlimit:4;stroke-opacity:1;stroke-dasharray:none;stroke-dashoffset:0;marker:none;visibility:visible;display:inline;overflow:visible;enable-background:accumulate"/>
    <path d="m 549.56374,1194.501 -0.512,4.7396 3.5363,2.7657 4.82038,1.6054 0.98188,4.815 -1.97685,1.3977 -1.46485,-3.3417 -3.15636,-2.202 -2.99993,-2.6025 -0.76522,-3.7149 1.53665,-3.4623 z" id="path2872" style="color:#000000;fill:#f8c300;fill-opacity:1;stroke:#000000;stroke-width:0.75;stroke-linecap:butt;stroke-linejoin:round;stroke-miterlimit:4;stroke-opacity:1;stroke-dasharray:none;stroke-dashoffset:0;marker:none;visibility:visible;display:inline;overflow:visible;enable-background:accumulate"/>
  </g>
  <g id="MAZARA_DEL_VALLO" style="stroke-width:0.5;stroke-miterlimit:4;stroke-dasharray:none;stroke:#000000;stroke-opacity:1;stroke-linejoin:round;fill:#f8c300;fill-opacity:1" transform="matrix(32,0,0,32,-1926.8887,-4014.7194)">
    <path d="m 147.1153,213.49181 0.0281,-0.0144 0.0723,-0.0353 0.6199,0.43131 1.0741,0.8854 0.0144,0.0611 -0.15519,0.1671 -0.0164,0.0347 0.1115,0.51761 0.0172,0.0666 0.0704,0.25669 0.1495,0.52521 0.2118,0.734 0.1795,0.5511 0.073,0.19841 0.3161,0.72969 0.0213,0.0464 0.6518,1.21651 0.16011,0.28138 1.48419,2.09511 1.13209,1.84709 0.60001,0.39501 0.1004,-0.2639 0.10939,-0.1989 0.92131,-1.5425 0.5089,-0.85 0.7825,-1.278 0.9353,-1.52651 0.148,-0.2605 0.15001,-0.2657 0.006,-0.0111 0.35221,-0.6664 0.1094,-0.3421 0.005,-0.0945 0.1938,-0.76539 0.044,-0.16661 0.3076,-0.8799 0.096,-0.18669 0.1237,-0.1174 0.6019,-0.24121 0.22751,-0.0534 0.12799,-0.0135 0.125,-0.0147 0.0971,-0.0226 0.0549,-0.0189 0.5728,-0.3014 1.8407,-1.1375 0.40599,-0.2683 0.21662,-0.1459 0.17469,-0.1886 0.1709,-0.2276 0.17121,-0.3335 0.10519,-0.4133 0.0551,-0.2467 0.41051,-0.4426 0.89799,-0.2523 1.05879,-0.293 -0.33079,-0.7637 -0.77651,-0.5184 -0.61988,-0.30719 -0.0847,-0.069 -0.1766,-0.18592 -1.9417,-2.52939 -0.059,-0.0887 -0.2634,-0.57122 -0.0181,-0.25929 0.10089,-0.0504 0.3743,-0.20509 0.10932,-0.062 0.61268,-0.53619 0.0765,-0.0916 0.6402,-0.9098 0.0589,-0.0898 0.41349,-0.7007 0.0642,-0.11929 0.0259,-0.31571 0.005,-0.1409 -0.0515,-0.0771 -0.0749,-0.081 -0.0876,-0.12241 -0.0524,-0.11639 -0.0313,-0.1445 -0.0121,-0.0781 0.11841,0.009 1.344,0.30881 0.1208,0.0451 0.48199,0.32389 0.0555,0.12191 0.0624,0.0449 0.34869,0.0629 0.1353,-0.0178 0.16121,-0.0926 0.1646,-0.13021 0.38499,-0.31539 0.0516,-0.0984 0.11799,-0.91561 0.0102,-0.086 9e-4,-0.008 0.0119,-0.10139 -0.0399,-2.38662 -0.055,-0.16249 -0.1371,-0.24231 -0.1689,-0.22079 -0.0925,-0.0835 -1.51731,0.029 -0.11909,0.0276 -1.0497,0.35029 -0.104,0.046 -0.0604,0.0915 -0.0446,0.0897 -0.075,0.0914 -0.01,0.0122 -0.56118,-0.32631 -0.12021,-0.0824 -0.2977,-0.23661 -0.0293,-0.0255 -0.0796,-0.0692 -0.0848,-0.1256 -0.0631,-0.1305 -0.0642,-0.1785 -0.33589,-0.95861 -0.57842,-1.44189 -0.0995,-0.2455 -0.12351,-0.27299 -0.35789,-0.71711 -0.4086,-0.8218 -0.0681,-0.1036 -0.029,-0.0434 -0.2366,-0.23939 -0.0834,-0.0664 -1.54682,0.59208 -0.47589,0.22681 -0.1273,0.044 -0.12931,0.0276 -0.10249,-0.009 -0.8423,-0.10989 -0.1216,-0.0171 -0.1333,-0.0724 -0.1801,-0.13609 -0.18451,-0.20021 -0.151,-0.1953 -0.0758,-0.172 -0.5077,-1.4911 0.1381,-0.2025 0.2291,-0.5326 0.0445,-0.2057 0.003,-0.1102 -0.0556,-1.2279 -0.003,-0.001 -0.1332,-0.0709 -0.13881,-0.0573 -0.34939,-0.0742 -0.1467,-0.0268 -0.9584,-0.0515 -0.5822,0.0202 -0.3454,0.0304 -1.4729,0.1573 -2.38921,-0.1457 -1.2751,-0.1651 -0.93329,0.0346 -0.363,0.4438 -0.2835,0.84771 -0.2628,1.3593 -0.976,0.99659 -0.0716,0.0534 -0.45709,4.1e-4 -1.4288,-0.0795 -0.3665,1.06309 0.1468,0.085 0.168,0.11602 -0.0482,0.89518 -0.15539,1.2594 -0.0391,0.12581 -0.20369,0.58321 -0.11881,0.3136 -0.4147,0.72029 -0.16541,0.19549 -0.013,0.0154 -0.44668,0.48909 0.062,-0.003 0.1083,-0.005 0.15519,0.0204 0.14841,0.0353 0.1694,0.0612 0.1453,0.0817 0.14959,0.0848 0.16221,0.12039 0.9047,0.72 0.3134,0.26331 3.21849,2.85381 -0.93789,1.08499 -1.1998,0.7126 -1.2119,-0.98889 -1.5464,-1.22872 -2.68331,2.82601 -0.02,0.0286 -0.40421,0.58178 -0.003,0.005 -0.6743,0.97059 -0.071,0.3976 0.0989,0.31439 -1.47062,2.79171 -0.81709,1.13501 -0.2043,0.25729 -0.006,0.006 -0.0273,0.19789 -0.004,0.0401 0.0455,0.0138 1.99939,0.3257 0.6855,-0.15281 0.26511,-0.2135 0.0568,-0.0339 0.1557,-0.0836 0.864,-0.1836 0.246,-0.0507 0.15661,-0.0194 0.10009,-0.009 0.11191,-0.004 0.15199,0.0105 0.13311,0.0123 0.1184,0.0161 0.0761,0.0108 0.0586,0.009 0.13552,0.0268 0.0199,0.004 0.18081,0.0543 0.5457,0.19661 0.0989,0.0371 0.0894,0.0336 0.0115,0.006 2.51861,1.3154 0.98289,0.6638 0.8821,0.77541 z" id="path602" style="stroke-width:0.09375;stroke-miterlimit:4;stroke-dasharray:none"/>
  </g>
  <g id="PACECO" style="stroke-width:0.5;stroke-miterlimit:4;stroke-dasharray:none;stroke:#000000;stroke-opacity:1;stroke-linejoin:round;fill:#f8c300;fill-opacity:1" transform="matrix(32,0,0,32,-1926.8887,-4014.7194)">
    <path d="m 133.95821,161.5619 0.1333,0.0542 0.50029,0.1747 0.108,-0.0112 0.78239,-0.1369 0.17191,-0.0335 0.38589,-0.0762 0.11151,-0.0328 0.005,-0.002 0.9269,-0.431 0.0694,-0.0859 0.0676,-0.0962 0.36281,-0.0676 0.2231,-0.0373 0.1591,-0.01 1.1278,0.0686 0.26161,0.0889 0.1346,0.1052 0.40049,0.3627 0.0482,0.16 0.0197,0.13559 0.15889,0.36301 0.48871,0.4857 1.1341,0.9745 2.3032,0.8689 0.1811,0.0388 1.1313,1.1148 1.8912,3.0027 0.1496,0.35321 0.11751,0.30119 0.25229,0.6438 -0.4883,0.18581 -0.0804,-7.1e-4 -0.019,-1.9e-4 -0.195,-0.072 0.1286,0.95019 0.2054,1.49302 0.5106,0.39759 0.2348,0.1418 1.0679,0.29709 0.0975,-0.0201 0.27541,-0.0954 0.401,-0.50681 0.0787,-0.12109 0.9872,-0.6909 0.62261,0.0335 0.0408,-0.005 0.40291,-1.74811 -0.007,-0.10249 -0.0837,-0.24051 -0.1025,-0.234 -0.0623,-0.0684 -0.85249,-0.7462 -0.1086,-0.0695 -0.0789,-0.0502 -0.58791,-0.33321 -0.1257,-0.0476 -0.49919,-0.29719 -0.8826,-0.581 -0.153,-0.3693 -0.002,-0.0728 -1e-4,-0.003 1.394,-0.9902 0.80341,-0.5733 0.99849,-1.07421 0.1176,-0.31829 0.0803,-0.17901 0.0459,-0.0954 1.4903,-0.9157 0.7415,0.2632 0.1237,0.0273 1.357,-0.34101 0.0691,-0.0481 0.0543,-0.1161 0.0153,-0.1431 -0.007,-0.088 -0.0167,-0.0826 -0.011,-0.0346 -0.0259,-0.2085 -0.0406,-0.106 -0.0711,-0.0869 -0.70081,-0.4424 -0.5133,-0.31669 -1.9207,-1.77091 -0.0841,-0.086 -0.10389,-0.1092 -0.0941,-0.1299 -0.28151,-0.42369 -0.0275,0.1839 -0.0597,0.1958 -0.18329,0.38319 -0.0955,0.1573 -0.066,0.0569 -0.90891,0.24199 -1.5844,1.42101 0.0265,0.1149 0.0369,0.23871 0.001,0.0537 -0.0366,0.0588 -0.2269,0.222 -0.0616,0.0527 -0.053,-0.003 -0.65171,-0.1796 -0.0549,-0.021 -0.1165,-0.0444 -0.20371,-0.18919 -2.12331,-2.02281 -0.61929,-0.6643 -0.8121,-0.8899 -0.5351,0.3336 -0.33191,0.2899 -0.373,-0.0889 -0.46469,-0.1853 -0.1013,-0.064 -0.0481,-0.0483 -0.0228,-0.0865 -0.037,-0.7305 -0.5637,-0.49289 -0.55361,0.3279 -0.2863,0.26421 -0.39189,0.39789 -0.12221,0.1376 -0.0726,0.072 -0.70419,0.50878 -0.2281,0.009 -0.5244,-0.2258 -1.6359,-0.71311 -0.2846,-0.12889 -0.17231,-0.0819 -0.12179,-0.0596 -0.0727,-0.0355 -0.1132,-0.1319 -0.1532,-0.13999 -0.0832,-0.0474 -0.6735,0.0619 -0.1562,0.0188 -0.2646,0.054 -1.2141,1.4623 -0.1223,1.7835 0.29601,1.2621 z" id="path764" style="stroke-width:0.09375;stroke-miterlimit:4;stroke-dasharray:none"/>
  </g>
  <g id="PANTELLERIA" style="stroke-width:1;stroke-miterlimit:4;stroke-dasharray:none;stroke:#000000;stroke-opacity:1;stroke-linejoin:round;fill:#da271d;fill-opacity:1" transform="matrix(32,0,0,32,-1926.8887,-4014.7194)">
    <path d="m 61.502602,350.1478 0.9445,0.62881 0.1702,0.15268 0.9937,1.35742 0.2968,0.54489 0.1137,0.30399 0.1478,0.56131 0.0248,0.13681 0.0041,0.0249 -0.10799,0.15149 0.0305,0.16589 0.0165,0.0779 0.1175,0.26608 0.216,0.0744 0.2168,-0.0117 0.1125,-0.0166 0.1459,-0.0668 0.027,-0.0139 0.2233,-0.12472 0.5639,0.36081 0.0239,0.0177 0.159,0.1532 0.2704,0.34289 0.039,0.0583 0.0243,0.0533 0.647,1.54361 0.0561,0.491 -0.0038,0.0385 5e-4,0.016 0.0984,0.2334 0.0132,0.0315 0.0615,0.12329 0.2346,0.3753 0.1172,0.13272 1.29179,1.05768 0.1011,0.0796 2.2378,0.47318 0.0145,0.003 0.1906,-0.0405 0.0149,-0.008 0.01421,-0.028 0.6238,-0.1691 0.04131,-6.1e-4 0.0321,-1.8e-4 0.2066,-10e-4 0.364,0.0601 0.0165,0.008 0.0116,0.0163 0.3601,0.1055 0.4968,-0.12729 0.1193,-0.10101 1.5521,-1.33801 0.12621,-0.1102 0.5768,-0.5293 0.0308,-0.03 0.1593,-0.25378 0.7353,-1.81281 0.0604,-0.9704 -0.0165,-0.17511 -0.0068,-0.0687 0.0687,-1.02789 -0.0552,-1.15622 -0.1896,-1.0279 -0.3659,-1.35 -0.23531,-0.38748 -1.2335,-0.55521 -0.0437,-0.0146 -0.1074,-0.0576 -0.048,-0.0377 -0.0539,-0.0531 -0.3706,-0.37921 -0.0224,-0.0269 -0.014,-0.0199 -0.0126,-0.0231 -0.0487,-0.0976 -0.1122,-0.2846 -0.1309,-0.15262 -0.0537,-0.0259 -0.057,-0.0244 -0.0322,-0.005 -0.2679,-0.038 -0.1274,-0.006 -0.5065,-1.03061 -0.3204,-0.31539 -0.9945,-0.9426 -0.2748,-0.12021 -0.6495,0.2059 -0.2913,0.3913 0.0107,0.0215 0.0026,0.0347 -0.0347,0.1724 -0.0103,0.0264 -0.0091,0.009 -0.1133,0.0994 -0.0972,0.0524 -0.0293,0.005 -0.0487,-0.0115 -1.5278,-0.49591 -0.43131,-0.1576 -0.1102,-0.0763 -0.6453,-0.36121 -0.2649,-0.52569 -0.1406,-0.3097 -0.5711,-0.4967 -0.5053,-0.2948 -0.9363,-0.3699 -0.19179,-0.0232 -0.6941,-0.0703 -0.077,0.004 -0.078,0.005 -0.0579,0.006 -1.0648,0.4667 -0.1385,0.1554 -0.9452,0.58929 0.1618,-0.2048 0.0153,-0.0426 -0.0204,-0.0174 -0.0511,-0.0405 -0.0438,-0.0185 -0.0523,-0.0136 -0.0395,-0.006 -0.0332,-0.002 -0.034,-0.002 -0.038,0.0157 -0.0237,0.0153 -0.0672,0.12118 -0.1994,0.41571 -0.6509,1.61319 -0.2108,2.2013 0.0529,0.7196 0.0135,0.0261 0.1663,0.22172 0.7916,0.73379 0.1693,0.14661 z" id="path790" style="stroke-width:0.09375;stroke-miterlimit:4;stroke-dasharray:none"/>
  </g>
  <g id="PARTANNA" style="fill:#f8c300;fill-opacity:1;stroke:#000000;stroke-width:0.09375;stroke-linejoin:round;stroke-miterlimit:4;stroke-opacity:1;stroke-dasharray:none" transform="matrix(32,0,0,32,-1926.8887,-4014.7194)">
    <path d="m 193.4617,199.8968 -0.33839,-0.3453 -0.19892,-0.41831 -0.49508,-1.07479 -0.20971,-0.69001 -0.10549,-0.6951 -0.0717,-0.47158 0.0152,-0.17312 0.005,-0.0524 -0.0394,-0.0717 -1.1057,-1.6724 -0.16071,-0.1983 -0.0888,-0.0578 -0.0974,-0.0458 -0.42472,-0.18792 -0.0986,-0.0327 -0.55391,-0.0902 -0.1838,0.13831 -0.095,0.0616 -0.10859,0.043 -0.11571,-0.019 -0.14259,-0.0433 -0.16341,-0.0576 -0.1443,-0.0546 -0.127,-0.0655 -0.1653,-0.0762 -1.2395,0.32921 -0.1064,0.0583 -0.032,0.0175 -0.2292,0.1994 -0.581,0.65449 -2.6988,1.69782 -0.35961,0.68309 -0.0394,0.0691 -0.0734,0.0437 -0.097,0.0312 -0.0572,-0.007 -0.016,-0.0151 -0.0317,-0.0301 -0.2872,-0.3012 -0.0315,-0.0647 -0.008,-0.0172 -0.0372,-0.098 -0.1507,-0.51941 -0.0336,-0.25709 -0.18299,-0.53459 -0.20762,-0.59041 -0.55139,-1.37779 -0.54761,0.3779 -0.73809,0.73249 -0.5792,0.5824 -0.0462,0.0881 -1.40781,2.93519 -0.1118,0.4173 -0.32779,1.30659 0.2826,1.6492 0.2659,0.33301 0.0435,0.0754 0.0207,0.0658 0.0123,0.0491 0.006,0.0408 -0.004,0.1163 -0.0437,0.5166 -0.0299,0.031 -0.0328,0.031 -0.0485,0.0263 -0.0643,0.0343 -0.0324,0.003 -0.16859,3.9e-4 -0.62671,0.0655 -0.0216,0.0248 -0.0574,0.0797 -0.0112,0.0191 -0.0379,0.0688 -0.0246,0.0505 -0.1405,0.3911 -0.1945,0.75959 -0.0161,0.35991 0.0315,0.006 0.0232,0.007 0.0154,0.0187 0.1468,0.3894 0.071,0.1897 0.0783,1.1219 -0.23289,0.30611 -0.254,0.36209 -0.0117,0.0478 0.1486,0.71849 0.0133,0.0491 0.0249,0.013 0.0313,0.0143 0.0506,0.0217 0.0304,0.011 0.832,-0.1464 0.1465,-0.1028 0.0449,-0.0497 0.0424,-0.0566 0.0179,-0.0247 0.0528,-0.0882 0.0303,-0.0644 0.0145,-0.0498 -0.003,-0.0303 -0.0361,-0.0834 -0.0237,-0.0365 -0.009,-0.02 -0.006,-0.0546 -9.9e-4,-0.0704 0.0446,-0.27459 0.103,-0.17931 0.0268,-0.01 0.0688,-0.0182 0.21901,-0.0491 1.96269,-0.4158 0.60831,-0.0719 2.22999,0.1001 -0.3403,1.4877 0.2896,0.4167 0.9835,0.6025 0.0966,0.0501 1.36499,0.41268 0.99839,0.36141 -0.0659,-0.25459 4.8e-4,-0.0406 0.0644,-0.25129 0.9995,-1.98891 0.4545,-0.8766 0.0384,-0.0456 0.0213,-0.0252 0.0799,-0.0787 1.2344,-1.16391 0.56569,-0.1429 3.12271,-3.82041 -0.0258,-0.0446 -0.0164,-0.0866 -0.0372,-0.36209 0.26539,-0.2787 0.13471,-0.10891 0.18339,-0.0909 0.004,-0.002 z" id="path793" style="stroke-width:0.09375;stroke-miterlimit:4;stroke-dasharray:none"/>
  </g>
  <g id="PETROSINO" style="fill:#f8c300;fill-opacity:1;stroke:#000000;stroke-width:0.09375;stroke-linejoin:round;stroke-miterlimit:4;stroke-opacity:1;stroke-dasharray:none" transform="matrix(32,0,0,32,-1926.8887,-4014.7194)">
    <path d="m 130.23489,199.4987 -0.0313,-0.038 -0.0221,-0.0109 -0.0233,-0.007 0.006,0.0471 0.0207,0.0139 0.0163,0.0209 0.0655,0.01 -0.0322,-0.0356 z" id="path814" style="stroke-width:0.09375;stroke-miterlimit:4;stroke-dasharray:none"/>
    <path d="m 144.3894,198.7462 -0.3134,-0.26331 -0.9047,-0.72 -0.16221,-0.12039 -0.14959,-0.0848 -0.1453,-0.0817 -0.1694,-0.0612 -0.14841,-0.0353 -0.15519,-0.0204 -0.1083,0.005 -0.062,0.003 -0.56311,0.52391 -0.4084,0.39521 -0.2741,0.29039 -0.65449,0.6932 -0.50411,0.5835 -0.0659,0.1049 -0.114,0.1567 -0.2316,0.2398 -0.1999,0.19449 -1.0237,0.98271 -0.8428,0.6276 -0.0866,-0.0718 -0.1416,-0.11821 -0.4068,-0.4291 -0.1579,-0.1633 -0.684,-0.7062 -0.12151,-0.12529 -0.081,-0.0821 -1.6304,-1.64929 -0.5311,-0.5316 -0.1239,0.1035 -0.007,0.006 -0.0468,0.0385 -0.008,0.006 -0.1339,0.0691 -0.167,0.0841 -1.39389,0.4308 -0.43761,-0.0133 -0.0255,-0.016 -0.2821,-0.2122 -0.1256,-0.10851 -0.2075,1.06241 -0.06,1.33561 0.6073,1.63668 0.0119,0.0763 0.007,0.0529 -0.005,0.0375 -0.11419,0.2976 -0.0302,0.044 -0.0246,0.0158 -0.0766,0.0171 -0.1301,0.0413 -0.0321,0.0193 -0.0563,0.0841 -0.008,0.0153 -0.0338,0.19641 -0.0129,0.0827 0.004,0.016 0.04,0.0951 0.0386,0.0813 0.55789,0.7063 0.0987,0.1205 0.0765,0.0605 0.0143,0.007 0.37368,0.17951 0.16591,0.0733 0.01,0.004 0.011,0.003 0.0763,0.001 0.2379,0.29891 1.18901,1.12349 0.044,0.0698 0.94439,1.97749 0.96572,0.5646 1.08449,0.8667 0.0419,0.0654 0.0521,0.1198 0.005,0.2527 -5e-4,0.0494 -6e-4,0.0664 0.2043,-0.25729 0.81709,-1.13501 1.47062,-2.79171 -0.0989,-0.31439 0.071,-0.3976 0.6743,-0.97059 0.003,-0.005 0.40421,-0.58178 0.02,-0.0286 2.68331,-2.82601 1.5464,1.22872 1.2119,0.98889 1.1998,-0.7126 0.93789,-1.08499 -3.21849,-2.85381 z" id="path816" style="stroke-width:0.09375;stroke-miterlimit:4;stroke-dasharray:none"/>
  </g>
  <g id="POGGIOREALE" style="fill:#f8c300;fill-opacity:1;stroke:#000000;stroke-width:0.09375;stroke-linejoin:round;stroke-miterlimit:4;stroke-opacity:1;stroke-dasharray:none" transform="matrix(32,0,0,32,-1926.8887,-4014.7194)">
    <path d="m 202.05479,195.70889 0.29171,0.2379 0.408,0.032 0.69589,-0.0902 0.57811,-0.27761 0.0605,-0.0387 2.0461,-0.388 0.116,0.034 0.11,0.0222 0.10809,6.1e-4 0.10651,-0.0226 0.005,-0.001 0.1041,-0.0473 0.19889,-0.1274 0.8125,-0.59021 1.27021,-0.92698 0.14109,-0.0958 0.1299,-0.0724 0.61801,-0.27559 0.11361,-0.01 0.54969,0.1008 0.549,-0.007 0.0929,-0.025 0.1965,-0.17092 -0.40309,-0.92799 -0.0167,-0.033 -0.37779,-0.0682 -0.006,-0.0622 -0.30729,-0.3797 -0.0537,-0.0586 -0.0774,-0.0708 -0.49809,-0.2179 -0.11619,-0.0424 -0.0299,0.044 -0.0384,0.0473 -0.0458,0.0488 -0.11011,0.0369 -0.13469,-0.0218 -0.0974,-0.0372 -0.0829,-0.0577 -0.45871,-0.3565 -0.3801,-0.5801 -0.0241,-0.0431 0.0401,-0.5322 0.0172,-0.0772 0.58049,-1.2399 0.90691,-0.79331 0.12401,-0.0171 0.0795,-0.0423 0.33279,-0.21719 0.4538,-0.31832 0.047,-0.065 0.0957,-0.166 0.3285,-0.58591 -0.1325,-0.26 -0.0555,-0.0757 -0.1982,-0.11779 -0.57161,-0.22811 -0.075,-0.0159 -0.0932,0.0166 -0.0275,0.0732 0.0146,0.0749 0.0333,0.0602 0.0506,0.0472 0.0337,0.0661 0.1321,0.31509 -0.027,0.0369 -0.0601,0.0648 -0.4455,0.28641 -0.038,-0.002 -0.0447,-0.0368 -0.0644,-0.0728 -0.0778,-0.0955 -0.0693,-0.0944 -0.6429,-0.92599 -1.79291,0.6346 -1.32798,0.69519 -0.39872,-0.53479 -0.0429,-0.0294 -0.12241,-0.0499 -3.46868,-0.69681 -0.36101,-0.0681 -0.1172,-0.0204 -0.0822,-0.0143 -0.19049,-0.0208 -0.20171,-0.004 -0.3933,-0.008 0.002,0.14061 0.36329,1.2117 0.0395,0.1326 0.0678,0.1611 0.0367,0.1474 0.0203,0.1274 0.0791,0.6338 0.0399,0.7728 0.021,0.5047 -0.0669,0.0595 -0.002,0.002 -0.66822,-0.0949 0.003,0.17551 0.0113,0.4615 0.008,0.12329 0.006,0.0768 0.0168,0.10398 0.69539,2.1915 0.89779,1.42981 0.24561,0.35761 0.0432,0.11099 0.0302,0.1098 -0.004,0.3658 -0.0774,1.26869 z" id="path843" style="stroke-width:0.09375;stroke-miterlimit:4;stroke-dasharray:none"/>
  </g>
  <g id="SALAPARUTA" style="fill:#f8c300;fill-opacity:1;stroke:#000000;stroke-width:0.09375;stroke-linejoin:round;stroke-miterlimit:4;stroke-opacity:1;stroke-dasharray:none" transform="matrix(32,0,0,32,-1926.8887,-4014.7194)">
    <path d="m 193.86659,199.7081 0.99912,-0.232 0.55519,-0.2355 2.7137,-0.8595 1.2762,-0.3856 0.608,-0.4411 -0.001,-0.002 -0.0251,-0.0578 0.0168,-0.10631 0.2332,-0.90329 0.0454,-0.1334 0.10161,-0.0921 0.2341,-0.11659 0.0696,-0.0188 0.2149,0.0114 0.1614,0.0403 0.5108,-0.14571 0.47439,-0.3208 0.0774,-1.26869 0.004,-0.3658 -0.0302,-0.1098 -0.0432,-0.11099 -0.24561,-0.35761 -0.89779,-1.42981 -0.69539,-2.1915 -0.0168,-0.10398 -0.006,-0.0768 -0.008,-0.12329 -0.0113,-0.4615 -0.003,-0.17551 -0.59579,0.0678 -0.1301,-0.002 -1.0507,-0.085 -0.179,-0.0399 -0.42459,-0.11709 -0.30741,-0.0922 -0.0976,-0.056 -0.07,0.007 -0.0944,0.0196 -0.37239,0.1387 -0.0893,0.064 -0.0597,0.0798 -0.0392,0.0792 -0.2639,0.55721 -0.0371,0.104 -0.0453,0.1315 -0.0389,0.16339 -0.67379,1.5224 -1.78071,-0.28779 -0.37399,-0.20951 -0.4559,-0.46778 -0.14011,-0.19751 -0.67048,-0.8664 -0.0401,-0.0311 -0.27521,-0.0199 -0.40669,0.0304 -0.0972,0.0311 -0.8508,1.7489 -0.0993,1.44631 -0.009,0.0511 -0.17769,0.22039 -0.29401,0.2358 -0.2128,0.0843 -0.0471,-0.0165 -0.23329,-0.11389 0.0478,0.5049 0.55391,0.0902 0.0986,0.0327 0.42472,0.18792 0.0974,0.0458 0.0888,0.0578 0.16071,0.1983 1.1057,1.6724 0.0394,0.0717 -0.005,0.0524 -0.0152,0.17312 0.0717,0.47158 0.10549,0.6951 0.20971,0.69001 0.49508,1.07479 0.19892,0.41831 0.33839,0.3453 0.40489,-0.1887 z" id="path952" style="stroke-width:0.09375;stroke-miterlimit:4;stroke-dasharray:none"/>
  </g>
  <g id="SALEMI" style="fill:#f8c300;fill-opacity:1;stroke:#000000;stroke-width:0.09375;stroke-linejoin:round;stroke-miterlimit:4;stroke-opacity:1;stroke-dasharray:none" transform="matrix(32,0,0,32,-1926.8887,-4014.7194)">
    <path d="m 183.1683,187.9518 0.0319,-0.06 -0.75139,0.067 0.71949,-0.007 z" id="path955" style="stroke-width:0.09375;stroke-miterlimit:4;stroke-dasharray:none"/>
    <path d="m 173.3506,172.2363 -0.21071,-0.0615 -0.30899,-0.0742 -0.6046,0.65241 -0.25,0.12779 -0.6058,0.2337 -0.30519,0.0813 -0.2256,0.0446 -0.14621,-0.0545 -0.18019,-0.1371 -0.16642,-0.16851 -0.64898,0.0167 -1.80751,0.19651 -1.8958,0.89489 -1.2025,0.58319 -0.095,0.0571 -0.1006,0.0809 -0.1832,0.33802 -0.047,0.11349 -0.0367,0.11099 -0.022,0.1196 -0.0355,0.10231 -0.0739,0.1458 -0.07,0.12779 -0.0842,0.14241 -0.0709,0.0952 -0.1209,0.133 -0.78891,0.8632 -0.0551,0.0181 -0.0568,0.009 -0.3418,-0.0418 -0.1137,-0.0452 -0.0721,-0.0486 -0.002,-0.001 -0.87368,-0.68091 -0.239,-0.3309 -0.14911,-0.29239 -0.0459,-0.0831 -0.0585,-9e-5 -0.5027,0.19409 -0.0757,0.0696 -1.13201,1.6973 -0.35629,0.5446 0.4027,0.3484 0.3285,0.7192 0.0435,1.87269 -1.61481,0.0736 -1.4829,-0.0407 -0.1305,-0.008 -0.5833,-0.007 -0.27851,0.25898 -0.0642,0.0599 -0.0839,0.0939 -0.0368,0.0486 0.0333,0.0579 0.37379,0.0327 0.0939,0.0705 0.6923,0.5624 0.4287,0.4891 0.0545,0.0681 0.0836,0.13139 0.5064,0.91511 0.62131,2.8236 -0.0246,0.18509 -0.0762,0.39202 -0.11431,0.4617 0.6348,2.14689 0.106,2.38201 0.0682,0.46978 1.54682,-0.59208 0.0834,0.0664 0.2366,0.23939 0.029,0.0434 0.0681,0.1036 0.4086,0.8218 0.35789,0.71711 0.12351,0.27299 0.0995,0.2455 0.57842,1.44189 0.33589,0.95861 0.0642,0.1785 0.0631,0.1305 0.0848,0.1256 0.0796,0.0692 0.0293,0.0255 0.2977,0.23661 0.12021,0.0824 0.56118,0.32631 0.01,-0.0122 0.075,-0.0914 0.0446,-0.0897 0.0604,-0.0915 0.104,-0.046 1.0497,-0.35029 0.11909,-0.0276 1.51731,-0.029 0.7301,-0.71859 -0.0224,-0.19791 -2e-4,-0.073 0.0229,-0.2617 0.034,-0.0807 0.0185,-0.0437 0.56112,-0.76689 0.91319,-0.51511 0.3123,-0.0669 1.1156,-0.6722 2.0598,-1.55349 0.11729,-0.41641 0.78161,-0.91649 0.7431,-0.37432 2.02591,-0.80629 1.78349,-0.0599 1.4949,-0.2688 0.1189,-0.059 0.3322,-0.48039 0.0309,-0.0633 -0.007,-0.0826 -0.0257,-0.0656 -0.0332,-0.0409 -0.22541,0.0643 -0.62399,0.11518 -0.0668,-0.002 0.6295,-0.8864 0.12199,-0.0335 0.12711,0.004 0.5311,0.0313 0.1427,0.0432 0.1387,0.0536 0.0732,0.01 0.44439,-0.0477 0.0889,-0.0704 0.20309,-0.18601 0.10851,-0.12649 -0.73751,-0.85631 -0.2503,-0.151 -0.1136,-0.0584 -0.13671,-0.0317 -0.13759,-0.007 -0.1231,0.0388 -0.0422,0.006 -0.0341,-0.0239 0.0144,-0.0673 0.034,-0.0428 0.34841,-0.4202 0.071,-0.0856 0.0571,-0.0564 0.11631,-0.087 0.20819,-0.13111 0.017,-0.003 0.30371,-0.52201 0.70379,-0.3672 0.1149,-0.0573 0.2771,-0.0883 -0.3703,-0.3235 -0.2628,-0.1248 -0.0707,-0.0275 -0.10091,0.008 -0.0688,0.0509 -0.0406,0.0865 -0.0662,0.0408 -0.15739,0.0747 -0.17472,-0.0917 -0.0747,-0.0796 -0.0624,-0.10159 -0.26599,-0.4469 -0.96741,-1.7736 -0.29019,-0.2266 -0.11509,-0.1049 -0.5869,-0.60291 -0.074,-0.10238 -0.7319,-1.04851 -0.36389,-0.9957 -0.0736,-0.0872 -0.0379,-0.026 -0.0498,-0.0341 -0.23261,-0.009 -0.98739,0.0373 -0.0466,0.005 -0.0884,0.0124 -0.1811,0.0325 -0.50711,0.22291 -0.11358,0.05 -1.03931,-0.3042 -0.5441,-0.19541 -0.0346,-0.22628 -0.005,-0.15041 0.0222,-0.11371 0.0522,-0.0755 0.0642,-0.0671 0.0672,-0.0705 0.0729,-0.1233 0.17641,-0.45999 0.0307,-0.24691 0.12351,-1.2086 -8.1e-4,-0.1611 -0.0181,-0.0842 -0.0812,0.0265 -0.0511,0.009 -0.0847,-0.67588 -0.0494,-0.60561 0.007,-0.2079 0.0349,-0.3186 0.0358,-0.3373 -0.8738,-1.3253 z" id="path957" style="stroke-width:0.09375;stroke-miterlimit:4;stroke-dasharray:none"/>
  </g>
  <g id="SAN_VITO_LO_CAPO" style="fill:#f8c300;fill-opacity:1;stroke:#000000;stroke-width:0.09375;stroke-linejoin:round;stroke-miterlimit:4;stroke-opacity:1;stroke-dasharray:none" transform="matrix(32,0,0,32,-1926.8887,-4014.7194)">
    <path d="m 171.26401,136.08231 0.14879,-0.41231 0.0917,-0.3212 0.0635,-1.0172 -1.47479,-2.5435 -0.13,-0.005 -0.342,0.0283 -0.0936,0.0724 -0.1786,0.0465 -0.11749,-0.0107 -0.21041,-0.0406 -0.0445,-0.0227 -0.12779,-0.13269 -0.029,-0.2789 -0.01,-0.0164 0.0186,-0.0125 -0.0161,-0.0114 -0.0263,-0.008 -0.0275,-0.0128 -0.0216,-0.0265 0.01,-0.006 -0.0399,-0.0236 -0.014,-0.0183 -0.008,-0.009 0.006,-0.007 -0.0162,-0.0235 -0.003,-0.0437 0.0154,-0.0266 0.003,-0.0481 -0.004,-0.0196 -0.0179,-6e-4 -0.0145,0.005 5.1e-4,-0.0248 0.0103,-0.006 -0.0176,-0.0327 0.009,-0.0106 -0.007,-0.0143 -0.0333,0.0111 -0.0151,-0.0183 0.0207,-0.0108 -5.1e-4,-0.0218 0.006,-0.0146 0.008,-0.023 -0.0325,-0.003 -0.0108,-0.0101 -0.0153,-0.0276 -0.023,-0.042 -0.008,-0.0246 -6.1e-4,-0.0228 0.0199,-5e-4 -0.003,-0.0258 0.003,-0.0353 -0.0107,-0.009 -0.003,-0.0217 0.003,-0.0218 0.009,-0.003 -0.006,-0.0175 -0.0158,-0.002 0.002,-0.0135 0.003,-0.0104 -0.008,-0.0123 -0.0146,-0.0369 -0.001,-0.0507 -0.017,-0.0555 5.9e-4,-0.0166 -0.002,-0.0279 -0.0222,-0.0314 0.0142,-0.0368 0.009,-0.0251 -0.003,-0.0154 3e-4,-0.0301 0.0138,-0.0355 -0.015,0.003 5e-4,-0.0406 0.0104,-0.0569 -0.002,-0.012 0.006,-0.0177 3.9e-4,-0.029 0.003,-0.0509 0.0148,-0.0376 0.0164,-0.0101 -0.003,-0.0513 -0.01,-0.0246 -0.0192,-0.011 -0.0264,-0.0542 0.0208,-0.004 0.006,-0.0437 0.007,-0.0389 0.0135,-0.0196 0.014,-0.0241 -0.0108,-0.0164 -0.0143,-0.0286 0.008,-0.051 0.024,5.1e-4 0.007,-0.0198 -0.004,-0.0269 -0.0432,-0.0103 -0.004,-0.0176 0.0284,0.003 0.0613,-0.0367 0.026,-0.0327 0.01,7.1e-4 0.0205,-0.0408 10e-4,-0.0404 0.0142,-0.0604 -0.0103,-0.0775 0.0268,-0.0617 -7.9e-4,-0.0342 0.0138,-0.011 0.0228,-0.0354 0.0162,-0.0221 0.008,-0.0116 0.0135,-0.005 0.0205,-0.0181 0.006,-0.0198 0.0144,-0.009 0.0218,-0.012 0.018,-0.0325 0.0251,-0.003 0.034,-0.0226 0.0335,0.002 0.0187,-0.006 0.0289,-0.0173 -6.1e-4,-0.0248 0.0167,-0.004 0.0153,-0.019 0.009,0.003 0.0132,-0.0158 0.0164,-0.0139 -0.004,-0.0206 -0.003,-0.0186 0.0188,-0.005 0.003,-0.0207 -0.008,-0.0112 0.0155,-0.008 -0.009,-0.0174 -0.009,-0.0143 0.0263,0.006 -0.004,-0.0309 -0.0198,0.005 0.002,-0.0146 0.009,-0.008 0.008,-0.0302 -0.0159,-0.007 -1.9e-4,-0.0103 -0.002,-0.009 0.0171,-0.0284 -0.014,-0.0152 0.002,-0.0352 0.0234,-0.0296 -0.007,-0.0278 -0.007,-0.004 -0.0125,0.003 -0.0161,-0.0141 0.0154,-0.0563 -0.018,-0.007 -0.002,-0.0403 -0.004,-0.0279 -0.003,-0.0455 -0.008,-0.0806 -0.0555,-0.0998 -0.0269,-0.0163 -0.0181,-0.0131 -0.009,-0.0308 1.1e-4,-0.0363 0.0119,-0.0303 0.005,-0.0405 0.0124,-0.05 -0.002,-0.0124 0.0166,-0.005 0.003,-0.009 0.008,-0.009 0.0176,-0.008 0.009,0.009 0.0114,-0.005 -0.006,-0.008 0.0157,-0.002 0.002,-0.0146 -0.007,-0.0412 -0.005,-0.0351 -0.0276,-0.017 -0.0329,0.0277 -0.007,-0.009 -0.0189,4e-4 0.003,0.0207 -0.0106,-0.005 -0.0211,-0.006 -0.0178,-0.003 -0.0144,-0.0328 -0.008,-0.0433 -0.002,-0.0248 -0.0224,-0.0161 0.007,-0.0167 -0.003,-0.0259 0.003,-0.0373 -0.004,-0.0693 0.0101,-0.009 0.003,-0.0339 -0.0484,-0.0536 -0.035,-0.0613 -0.0553,-0.0957 -0.0731,-0.1416 -0.004,-0.0247 -0.104,-0.0814 -0.0412,-0.0115 -0.1303,-0.0176 -0.10969,0.0523 -0.0472,0.0405 -0.0314,0.0443 -0.0797,0.0412 -0.1731,0.0715 -0.1277,0.0455 -0.0856,0.0145 -0.0541,0.0147 -0.10721,0.0264 -0.0542,0.0127 -0.0625,0.0139 -0.0323,0.005 -0.0797,-0.003 -0.0504,-0.005 -0.0315,-0.001 -0.11982,-0.0188 -0.0733,0.002 -0.0566,-0.004 -0.0463,-0.005 -0.0579,-0.0142 -0.0158,-0.002 -0.0746,-0.0127 -0.0858,0.005 -0.0827,-1e-4 -0.0671,-0.001 -0.0632,-0.014 -0.0619,-0.003 -0.0391,-0.0146 -8.1e-4,-0.0148 -0.148,-0.043 -0.0382,-0.001 -0.0563,0.0406 -0.0724,0.0833 -0.0569,0.0749 -0.0566,0.0397 -0.0277,0.0234 -0.0804,0.0537 -0.1176,0.0733 -0.11901,0.0567 -0.0945,0.0313 -0.1192,0.008 -0.0931,0.005 -0.0158,-7e-4 -0.0219,0.002 -0.0492,0.001 -0.0881,-0.003 -0.0639,-0.004 -0.0619,-0.004 -0.0494,-0.006 -0.0451,-0.002 -0.0409,-0.001 -0.0399,-0.004 -0.2242,-0.0899 -0.0925,-0.0536 -0.0149,-0.01 -0.0202,-0.013 -0.049,-0.032 -0.0731,-0.0769 -0.0494,-0.0506 -0.0215,-0.0223 -0.0131,-0.0214 -0.0304,-0.0428 -0.008,-0.0102 -0.0144,-0.0338 -0.0126,-0.0432 -0.0101,-0.0246 -0.006,-0.0154 -0.0217,-0.072 0.0906,-0.1078 0.0101,-0.0137 -0.009,-0.0143 -0.0179,-0.002 -0.0134,0.009 -0.0692,0.0814 -0.0117,-0.0101 0.0194,-0.0191 -0.005,-0.003 -0.0184,0.0181 -0.0215,-0.0213 0.0224,-0.0264 -0.043,-0.0425 -0.006,0.004 0.0375,0.0364 -0.0449,0.0487 -0.0418,-0.0404 -0.007,0.004 0.0514,0.0464 0.0255,-0.0285 0.0215,0.0243 -0.0234,0.0254 0.007,0.004 0.0223,-0.0275 0.0129,0.0132 -0.0619,0.0802 -0.006,0.0157 -0.0404,-0.026 -0.0567,-0.0494 -0.0293,-0.0376 -0.0207,-0.0326 -0.0164,-0.0701 0.0138,0.006 0.0402,0.0177 0.007,-0.007 -0.0636,-0.0296 -0.001,-0.0538 0.1046,0.0389 0.004,-0.006 -0.073,-0.0293 -0.01,-0.064 0.12911,0.0518 0.006,-0.007 -0.1291,-0.0518 0.0156,-0.049 0.11099,0.0449 0.005,-0.008 -0.1153,-0.0428 0.0247,-0.0606 0.11319,0.0438 0.002,-0.007 -0.0286,-0.0117 -0.10041,-0.038 0.0117,-0.0334 0.0126,-0.001 0.004,-0.0229 0.0683,0.008 0.1418,0.0172 0.0408,0.0829 -0.0165,0.0108 0.0132,0.0235 0.0193,0.0213 0.033,-0.0226 -0.0365,-0.0788 0.0123,-0.0117 0.0308,0.0188 0.0594,0.0297 0.0116,0.005 0.0107,0.006 0.0116,0.004 0.008,0.0122 0.0402,0.0146 0.12401,0.0612 0.0108,-0.0313 -0.38038,-0.1911 -0.0865,-0.008 -0.0409,-0.005 -0.0264,-0.007 -0.0273,-0.003 -0.002,-0.0318 0.0152,-0.0573 0.0191,-0.023 0.033,-0.0372 0.0108,-0.0327 0.0463,-0.0851 -0.008,-0.0222 0.0276,-0.0472 0.0158,-0.0378 0.0642,-0.1115 0.051,-0.0915 0.0102,-0.1791 0.007,-0.1242 -0.0359,-0.1223 -0.0421,-0.0499 -0.0837,-0.0145 -0.0487,-0.008 -0.0954,8e-4 -0.1438,0.01 -0.0467,0.0101 -0.0663,0.0166 -0.036,0.0114 -0.10629,0.055 -0.30141,0.1856 -0.0372,0.0308 -0.0281,0.0247 -0.0415,0.037 -0.0223,0.02 -0.37139,0.3596 -0.4641,0.4667 -0.1807,0.2272 -0.22731,0.3109 -0.0665,0.276 0.003,0.2322 0.037,0.4266 0.0524,0.1544 0.3369,0.7983 1.4776,2.63189 0.92739,1.54081 0.002,0.0422 -0.0128,0.19029 -0.1412,0.39991 -1.38429,2.0157 -0.23951,0.2599 -1.4262,1.707 -0.15461,0.20931 -0.034,0.0488 -0.0122,0.0408 -0.0227,0.0891 0.0215,0.0393 0.52769,0.15651 0.36811,0.12059 0.15561,0.0598 0.14799,0.0574 0.12531,0.0826 0.1185,0.1026 1.30049,1.2836 2.3199,1.2417 0.30141,0.39219 0.0215,0.0372 0.25319,0.5237 0.0236,0.0662 -0.0185,0.26191 -0.10502,0.55799 2.1355,0.63421 1.7238,0.7064 0.75801,0.7923 0.11451,0.1309 0.0866,0.1225 -0.0267,0.17371 0.1448,0.5347 0.0805,0.0592 0.40871,0.16741 0.1533,0.0503 -0.0274,-0.17942 -0.0933,-0.6494 -0.28769,-2.21849 0.005,-0.1419 0.0435,-0.0824 0.0713,-0.0849 0.19529,-0.1756 0.319,-0.2657 0.094,-0.0593 0.515,-0.10901 0.1148,0.0163 0.7647,0.2153 -0.7712,-1.57829 -1.25869,-2.1 -0.35111,-0.6784 -0.2906,-0.5939 -0.2145,-1.2586 0.005,-0.71199 z" id="path1017" style="stroke-width:0.09375;stroke-miterlimit:4;stroke-dasharray:none"/>
  </g>
  <g id="SANTA_NINFA" style="fill:#f8c300;fill-opacity:1;stroke:#000000;stroke-width:0.09375;stroke-linejoin:round;stroke-miterlimit:4;stroke-opacity:1;stroke-dasharray:none" transform="matrix(32,0,0,32,-1926.8887,-4014.7194)">
    <path d="m 181.2094,185.77991 -0.017,0.003 -0.20819,0.13111 -0.11631,0.087 -0.0571,0.0564 -0.071,0.0856 -0.34841,0.4202 -0.034,0.0428 -0.0144,0.0673 0.0341,0.0239 0.0422,-0.006 0.1231,-0.0388 0.13759,0.007 0.13671,0.0317 0.1136,0.0584 0.2503,0.151 0.0288,-1.12149 z" id="path1068" style="stroke-width:0.09375;stroke-miterlimit:4;stroke-dasharray:none"/>
    <path d="m 181.5453,185.2614 0.0294,-0.002 0.009,-9e-4 0.0124,-0.002 0.0209,-0.007 0.0303,-0.0136 0.0153,-0.002 0.0256,-0.006 0.0265,-0.008 0.0325,-0.005 0.0222,-0.006 0.0373,-0.009 0.034,-0.01 0.0205,-0.008 0.0127,-0.0104 0.0291,-0.0296 0.0276,-0.0283 0.042,-0.0475 0.0229,-0.0281 0.0291,-0.0239 0.0348,-0.0181 0.0475,-0.0242 0.0542,-0.0231 0.0515,-0.0258 0.0158,-0.008 -0.0116,-0.0242 -0.70379,0.3672 0.005,0.003 0.009,0.001 0.018,-0.001 z" id="path1070" style="stroke-width:0.09375;stroke-miterlimit:4;stroke-dasharray:none"/>
    <path d="m 183.1683,187.9518 -0.71949,0.007 -0.5307,-0.20109 -0.10851,0.12649 -0.20309,0.18601 -0.0889,0.0704 -0.44439,0.0477 -0.0732,-0.01 -0.1387,-0.0536 -0.1427,-0.0432 -0.5311,-0.0313 -0.12711,-0.004 -0.12199,0.0335 -0.6295,0.8864 0.0668,0.002 0.62399,-0.11518 0.22541,-0.0643 0.0332,0.0409 0.0257,0.0656 0.007,0.0826 -0.0309,0.0633 -0.3322,0.48039 -0.1189,0.059 -1.4949,0.2688 -1.78349,0.0599 -2.02591,0.80629 -0.7431,0.37432 -0.78161,0.91649 -0.11729,0.41641 -2.0598,1.55349 -1.1156,0.6722 -0.3123,0.0669 -0.91319,0.51511 -0.56112,0.76689 -0.0185,0.0437 -0.034,0.0807 -0.0229,0.2617 2e-4,0.073 0.0224,0.19791 0.5715,-0.63591 0.36459,0.0451 0.2724,0.10091 0.0145,0.0531 0.0314,0.0579 1.8067,0.1501 1.9787,0.16479 3.36341,0.27842 0.55681,0.25479 0.3161,0.32451 0.057,0.21019 0.0421,0.1214 0.0595,0.1566 0.14788,0.3637 0.13041,0.1914 0.0687,0.0673 0.13508,0.0918 0.1118,-0.4173 1.40781,-2.93519 0.0462,-0.0881 0.5792,-0.5824 0.73809,-0.73249 0.54761,-0.3779 0.55139,1.37779 0.20762,0.59041 0.18299,0.53459 0.0336,0.25709 0.1507,0.51941 0.0372,0.098 0.008,0.0172 0.0315,0.0647 0.2872,0.3012 0.0317,0.0301 0.016,0.0151 0.0572,0.007 0.097,-0.0312 0.0734,-0.0437 0.0394,-0.0691 0.35961,-0.68309 2.6988,-1.69782 0.581,-0.65449 0.2292,-0.1994 0.032,-0.0175 0.1064,-0.0583 1.2395,-0.32921 0.1653,0.0762 0.127,0.0655 0.1443,0.0546 0.16341,0.0576 0.14259,0.0433 0.11571,0.019 0.10859,-0.043 0.095,-0.0616 0.1838,-0.13831 -0.0478,-0.5049 -0.002,-0.0827 -0.004,-0.11301 -0.0267,-0.13859 -0.42399,-1.59909 -1.14782,-1.22422 -0.25518,-0.25439 -0.17182,-0.16859 -0.70979,-1.62151 -0.7346,-1.85471 -0.18621,-0.48208 -0.20639,-0.9839 -0.0374,-0.43471 0.0132,-0.0567 0.27069,-0.1731 -0.0709,-0.0374 -0.0851,-0.0187 -0.1066,0.002 -1.0025,0.4536 -0.5079,0.21469 -0.99201,0.33152 -0.0711,0.0217 -0.0553,0.0159 -0.23771,-0.1121 -0.0608,-0.0377 -0.0248,-0.016 -0.2771,0.0883 0.0473,0.0887 -0.11869,0.0593 -0.0283,-0.0592 -0.14911,0.0719 -0.0253,0.0149 -0.0178,0.0134 -0.0161,0.0164 -0.0259,0.0268 -0.0291,0.034 -0.0357,0.0384 -0.0512,0.0476 -0.0203,0.0108 -0.0289,0.0108 -0.0326,0.011 -0.0393,0.007 -0.0862,0.0193 -0.0293,0.008 -0.0256,0.0138 -0.0172,0.0134 -0.004,0.008 -0.004,0.009 -7e-4,0.0145 0.003,0.0219 0.005,0.0129 0.0169,0.017 0.4135,0.28659 0.1791,0.0919 0.0422,0.0209 0.0388,0.0136 0.0294,0.008 0.0191,0.002 0.0262,0.002 0.0311,0.002 0.0383,5.1e-4 0.049,-0.004 0.127,-0.002 0.0459,0.002 0.0986,0.0486 -0.0165,0.0251 -0.0422,0.0545 -0.055,0.0608 -0.0402,0.043 -0.0625,0.0768 -0.0233,0.0299 -0.0311,0.047 -0.0216,0.0441 -0.019,0.0597 -0.008,0.0454 -0.023,0.2094 -7.9e-4,0.0624 0,0.2455 9e-4,0.0335 0.003,0.0302 0.0104,0.0287 0.13861,0.2657 0.0725,-0.0111 0.0625,-0.007 0.0246,-0.002 0.2285,0.2451 0.0489,0.0687 0.0661,0.0942 0.0438,0.0656 0.0158,0.0319 0.007,0.038 0.0164,0.0443 0.0215,0.0573 0.0135,0.0362 0.0126,0.0327 -0.0319,0.06 0.0265,2e-4 0.11161,0.0103 0.1921,0.0275 0.0499,0.0119 0.0728,0.0519 0.0189,0.0491 0.004,0.0128 0.003,0.0176 -0.4378,-0.0483 -0.0395,-0.0676 -10e-4,-0.0654 z" id="path1072" style="stroke-width:0.09375;stroke-miterlimit:4;stroke-dasharray:none"/>
  </g>
  <g id="TRAPANI" style="fill:#f8c300;fill-opacity:1;stroke:#000000;stroke-width:0.09375;stroke-linejoin:round;stroke-miterlimit:4;stroke-opacity:1;stroke-dasharray:none" transform="matrix(32,0,0,32,-1926.8887,-4014.7194)">
    <path d="m 139.9575,161.69119 -0.0197,-0.13559 -0.0482,-0.16 -0.40049,-0.3627 -0.1346,-0.1052 -0.26161,-0.0889 -1.1278,-0.0686 -0.1591,0.01 -0.2231,0.0373 -0.36281,0.0676 -0.0676,0.0962 -0.0694,0.0859 -0.9269,0.431 -0.005,0.002 -0.11151,0.0328 -0.38589,0.0762 -0.17191,0.0335 -0.78239,0.1369 -0.108,0.0112 -0.50029,-0.1747 -0.1333,-0.0542 -0.88561,2.4159 -0.40021,0.87289 -0.68809,1.23651 -0.4836,0.9878 1.1275,-0.4028 0.1092,-0.0206 0.2032,-0.01 0.1114,0.0621 0.0599,0.0523 0.0713,0.1463 0.03,0.1847 0.0181,0.1334 0.0169,0.1342 -1.1e-4,0.1044 -0.12689,0.23111 -0.0919,0.11769 -0.39209,0.10741 -0.1884,0.014 -0.1568,-0.006 -0.1472,0.0177 -0.1008,0.0608 -0.0191,0.0353 -0.0395,0.0729 -0.0278,0.10189 0.2803,2.34661 0.6705,1.5253 0.0711,0.0338 0.26259,0.13669 1.60791,0.88201 0.008,0.005 0.0106,0.008 0.0519,0.0387 0.0782,0.0806 0.14329,0.2135 0.0708,0.1318 0.1411,0.2984 0.0434,0.093 0.0782,0.4013 0.25799,0.29551 0.0959,0.0884 0.091,0.0702 0.3246,0.21238 0.069,0.0113 1.4604,0.1425 0.0995,0.005 0.54101,-0.002 0.44619,-0.15871 0.2193,-0.0563 0.1075,-0.0243 0.10291,0.0184 1.00279,0.47899 0.37629,0.18471 0.0972,0.0835 0.79721,0.789 0.23729,0.6271 0.15551,0.4666 1.01721,1.095 0.2287,0.1334 0.2744,0.15339 0.0473,0.0243 0.0413,0.01 0.0837,0.0163 0.39569,-0.2977 0.1721,-0.0732 0.6249,-0.19821 0.0709,-0.0138 0.06,-0.0117 0.032,0.1667 0.42621,0.1367 1.25819,-0.74771 0.48891,-0.43039 0.073,-0.0661 0.0372,-0.0835 -0.002,-0.0617 -0.0684,-0.0418 -0.0775,-0.0567 -0.0248,-0.22441 -0.0101,-0.10769 0.70301,-0.1776 0.28678,0.064 1.55791,0.36901 0.8703,0.81351 -0.2458,0.21899 -0.1019,0.0766 -0.16811,0.11391 -0.91809,0.56169 -0.3477,0.0723 -0.2455,0.0573 -0.16369,0.11631 -0.0271,0.24989 0.0837,0.24339 0.0108,0.0235 0.1099,0.23869 0.4561,0.6756 0.37559,0.51359 0.43021,-0.21049 0.5941,-0.25639 0.35159,0.0883 -0.0272,0.37461 0.0685,0.6078 0.0187,0.0189 0.0472,0.0453 1.73889,0.042 0.79421,-0.31889 1.94569,-0.15711 0.21761,0.0628 -0.0333,-0.0579 0.0368,-0.0486 0.0839,-0.0939 0.0642,-0.0599 0.27851,-0.25898 0.5833,0.007 0.1305,0.008 1.4829,0.0407 1.61481,-0.0736 -0.0435,-1.87269 -0.3285,-0.7192 -0.4027,-0.3484 0.35629,-0.5446 1.13201,-1.6973 0.0757,-0.0696 0.5027,-0.19409 0.0585,9e-5 0.0459,0.0831 0.14911,0.29239 0.239,0.3309 0.87368,0.68091 0.002,0.001 0.0721,0.0486 0.1137,0.0452 0.3418,0.0418 0.0568,-0.009 0.0551,-0.0181 0.78891,-0.8632 0.1209,-0.133 0.0709,-0.0952 0.0842,-0.14241 0.07,-0.12779 0.0739,-0.1458 0.0355,-0.10231 0.022,-0.1196 0.0367,-0.11099 0.047,-0.11349 0.1832,-0.33802 0.1006,-0.0809 0.095,-0.0571 1.2025,-0.58319 1.8958,-0.89489 1.80751,-0.19651 0.64898,-0.0167 0.16642,0.16851 0.18019,0.1371 0.14621,0.0545 0.2256,-0.0446 0.30519,-0.0813 0.6058,-0.2337 0.25,-0.12779 0.6046,-0.65241 -0.0241,-0.0938 -0.0303,-0.10572 -0.098,-0.24409 -0.3364,-0.61499 -0.1336,-0.1389 -0.24221,-0.21941 -0.41139,-0.38229 -0.3878,-0.56121 0.0355,-0.1603 0.2966,-1.3686 -0.0267,-2.2115 -0.0466,-0.1745 -0.0759,-0.10969 -0.0733,-0.0712 -0.6006,-0.51098 -0.0768,0.0978 -0.0902,0.0137 -1.18899,0.0443 -0.4048,-0.0359 -0.1603,-0.0311 -1.0408,-0.3711 -0.12381,-0.0942 -0.11839,-0.11789 -1.2227,-0.31591 -1.1841,-0.29969 -0.38361,-0.004 -0.14199,-0.003 -0.25949,-0.0168 -0.12891,-0.0639 -0.2381,-0.1582 -0.51289,-0.38091 -0.67441,-0.33439 -0.55859,-0.15489 -0.23221,-0.0382 -3.0128,-0.29601 -0.1301,0.006 -0.0961,0.0274 -0.1292,0.0377 -0.12829,0.0189 -0.40502,0.0204 -0.12869,0.003 -0.1317,-8.1e-4 -0.4344,-0.0403 -0.1797,-0.0361 -1.4122,-0.4572 0.011,0.0346 0.0167,0.0826 0.007,0.088 -0.0153,0.1431 -0.0543,0.1161 -0.0691,0.0481 -1.357,0.34101 -0.1237,-0.0273 -0.7415,-0.2632 -1.4903,0.9157 -0.0459,0.0954 -0.0803,0.17901 -0.1176,0.31829 -0.99849,1.07421 -0.80341,0.5733 -1.394,0.9902 1e-4,0.003 0.002,0.0728 0.153,0.3693 0.8826,0.581 0.49919,0.29719 0.1257,0.0476 0.58791,0.33321 0.0789,0.0502 0.1086,0.0695 0.85249,0.7462 0.0623,0.0684 0.1025,0.234 0.0837,0.24051 0.007,0.10249 -0.40291,1.74811 -0.0408,0.005 -0.62261,-0.0335 -0.9872,0.6909 -0.0787,0.12109 -0.401,0.50681 -0.27541,0.0954 -0.0975,0.0201 -1.0679,-0.29709 -0.2348,-0.1418 -0.5106,-0.39759 -0.2054,-1.49302 -0.1286,-0.95019 0.195,0.072 0.019,1.9e-4 0.0804,7.1e-4 0.4883,-0.18581 -0.25229,-0.6438 -0.11751,-0.30119 -0.1496,-0.35321 -1.8912,-3.0027 -1.1313,-1.1148 -0.1811,-0.0388 -2.3032,-0.8689 -1.1341,-0.9745 -0.48871,-0.4857 -0.15889,-0.36301 z" id="path1183" style="stroke-width:0.09375;stroke-miterlimit:4;stroke-dasharray:none"/>
    <path d="m 141.28329,153.46941 -0.32148,-0.0492 -1.06832,-0.6745 -1.1996,-1.63629 -0.24958,-0.57601 -0.9843,1.2591 -0.91111,0.8609 -0.023,0.0203 -0.0868,0.0643 -0.0598,0.0419 -0.68049,0.3853 -0.25402,0.13829 -0.0788,0.0251 -0.0769,0.0213 -0.36079,0.0566 -0.0544,-0.004 -0.07,-0.0116 -0.89428,-0.0872 -0.73362,0.0814 0.6644,0.3824 1.20272,0.6795 0.29789,0.9462 -0.3424,1.6611 0.2646,-0.054 0.1562,-0.0188 0.6735,-0.0619 0.0832,0.0474 0.1532,0.13999 0.1132,0.1319 0.0727,0.0355 0.12179,0.0596 0.17231,0.0819 0.2846,0.12889 1.6359,0.71311 0.5244,0.2258 0.2281,-0.009 0.70419,-0.50878 0.0726,-0.072 0.12221,-0.1376 0.39189,-0.39789 0.2863,-0.26421 0.55361,-0.3279 0.5637,0.49289 0.037,0.7305 0.0228,0.0865 0.0481,0.0483 0.1013,0.064 0.46469,0.1853 0.373,0.0889 0.33191,-0.2899 0.5351,-0.3336 0.8121,0.8899 0.61929,0.6643 2.12331,2.02281 0.20371,0.18919 0.1165,0.0444 0.0549,0.021 0.65171,0.1796 0.053,0.003 0.0616,-0.0527 0.2269,-0.222 0.0366,-0.0588 -0.001,-0.0537 -0.0369,-0.23871 -0.0265,-0.1149 1.5844,-1.42101 0.90891,-0.24199 0.066,-0.0569 0.0955,-0.1573 0.18329,-0.38319 0.0597,-0.1958 0.0275,-0.1839 -1.6491,-1.4299 -0.0258,-0.0184 -0.39439,-0.26049 -0.41381,-0.1922 -0.4131,-0.17121 -1.43969,-0.5016 -0.16471,-0.009 -0.0465,-0.003 -0.22879,-0.0117 -0.19059,-0.0269 -0.008,-0.002 -1.1254,-0.68811 -0.22641,-0.1407 -0.10618,-0.0817 -0.28202,-0.2523 -0.0639,-0.0903 -0.0882,-0.12449 -0.14988,-0.1864 -0.18321,-0.1129 -0.17411,-0.10601 -0.0701,-0.0249 -0.0124,-0.004 -0.0846,-0.0301 -3.0869,-0.5345 z" id="path1185" style="stroke-width:0.09375;stroke-miterlimit:4;stroke-dasharray:none"/>
  </g>
  <g id="VALDERICE" style="fill:#f8c300;fill-opacity:1;stroke:#000000;stroke-width:0.09375;stroke-linejoin:round;stroke-miterlimit:4;stroke-opacity:1;stroke-dasharray:none" transform="matrix(32,0,0,32,-1926.8887,-4014.7194)">
    <path d="m 157.9014,149.9789 -0.4684,-0.6003 -0.15399,0.0115 -0.49282,0.0366 -0.17599,0.0108 -0.008,2e-4 -0.0389,0.001 -0.0223,4.8e-4 -0.1889,0.005 -0.25409,0.003 -0.0155,2e-4 -0.2908,0.003 -0.0446,-0.12999 0.002,-0.0449 0.18179,-0.69001 -0.19519,-0.76139 -0.8704,-1.2013 -1.1953,-1.57161 -0.7813,-1.54149 -0.9111,0.50721 -3.4854,1.44848 -0.12159,0.044 -0.16541,0.0374 -0.2406,0.0489 -0.41299,0.0728 -0.0872,0.008 -0.1877,0.01 -0.0407,4e-4 -0.0114,-9e-4 -0.008,-9.9e-4 -0.0946,-0.0213 -0.0241,-0.008 -0.99302,-0.25969 -0.49249,0.0149 0.0498,0.51331 0.2601,0.69409 0.26458,0.0312 0.26041,0.15 0.49609,0.35859 0.58591,2.12201 -0.1439,0.4921 -0.38491,0.5272 -0.32789,0.40599 -0.1144,0.10882 -0.1953,-0.29261 -0.0791,-0.0574 -0.54809,0.3315 -0.03,0.0315 -0.29149,0.34149 -0.0997,0.2174 -0.02,0.0921 -0.0167,0.077 0.0141,0.87039 0.16139,0.12371 2.90581,1.53489 0.47019,0.003 1.0114,0.0252 0.0788,0.21269 0.39799,1.23641 1.82401,0.815 0.40179,0.7621 0.84281,0.54491 0.1328,0.0328 0.6927,0.0552 0.1671,-0.0479 0.657,-0.1978 0.4481,0.0589 1.6499,0.26629 0.058,0.0334 0.0655,0.0447 0.0677,0.073 0.0804,0.1062 0.21331,0.3856 0.10949,-0.12491 0.0719,-0.11029 0.0515,-0.10901 0.0245,-0.0585 0.039,-0.0942 0.1241,-0.3093 0.0445,-0.1506 0.121,-0.9579 -3.9e-4,-0.0668 -0.0279,-0.0671 -0.0472,-0.0686 -0.0528,-0.0623 -0.099,-0.0372 -0.0797,-0.0199 -0.22931,-0.038 -0.0982,0.001 -0.1056,-0.006 -0.11749,-0.0169 -0.47541,-0.084 -0.1178,-0.0321 -0.9756,-0.35019 -0.30079,-0.24681 -0.0467,-1.0349 0.008,-0.2674 0.009,-0.0961 0.8872,-1.7608 0.8438,-0.29491 0.9229,-0.007 -0.0707,-1.4167 -0.034,-0.18348 -0.0951,-0.44301 z" id="path1214" style="stroke-width:0.09375;stroke-miterlimit:4;stroke-dasharray:none"/>
  </g>
  <g id="VITA" style="fill:#f8c300;fill-opacity:1;stroke:#000000;stroke-width:0.09375;stroke-linejoin:round;stroke-miterlimit:4;stroke-opacity:1;stroke-dasharray:none" transform="matrix(32,0,0,32,-1926.8887,-4014.7194)">
    <path d="m 174.4133,175.6716 0.0181,0.0842 8.1e-4,0.1611 -0.12351,1.2086 -0.0307,0.24691 -0.17641,0.45999 -0.0729,0.1233 -0.0672,0.0705 -0.0642,0.0671 -0.0522,0.0755 -0.0222,0.11371 0.005,0.15041 0.0346,0.22628 0.5441,0.19541 1.03931,0.3042 0.11358,-0.05 0.50711,-0.22291 0.1811,-0.0325 0.0884,-0.0124 0.0466,-0.005 0.98739,-0.0373 0.23261,0.009 0.0498,0.0341 0.0379,0.026 0.0736,0.0872 0.36389,0.9957 0.7319,1.04851 0.074,0.10238 0.5869,0.60291 0.11509,0.1049 0.29019,0.2266 -0.10519,-0.2473 -0.0372,-0.093 -0.0499,-0.13398 -0.0561,-0.15111 -0.0363,-0.11389 -0.0241,-0.28531 0.52809,-0.8017 0.51011,-2.66321 0.009,-0.11639 0.002,-0.1559 -0.003,-0.0792 -1.6751,-1.05031 -0.0822,-0.0128 -0.47261,-0.0128 -0.068,0.0334 -0.2064,0.3681 -0.0483,0.1199 -1.48469,0.28321 -0.0908,-0.007 -0.0739,-0.0306 -0.3358,-0.1624 -0.18499,-0.0989 -0.10921,-0.0604 -0.012,-0.007 -0.0166,-0.01 -1.3894,-0.8777 z" id="path1264" style="stroke-width:0.09375;stroke-miterlimit:4;stroke-dasharray:none"/>
  </g>
</svg>
