<?xml version="1.0" encoding="UTF-8" standalone="no"?>
<svg xmlns:dc="http://purl.org/dc/elements/1.1/" xmlns:cc="http://creativecommons.org/ns#" xmlns:rdf="http://www.w3.org/1999/02/22-rdf-syntax-ns#" xmlns:svg="http://www.w3.org/2000/svg" xmlns="http://www.w3.org/2000/svg" xmlns:sodipodi="http://sodipodi.sourceforge.net/DTD/sodipodi-0.dtd" xmlns:inkscape="http://www.inkscape.org/namespaces/inkscape" width="4176.4238" height="5190.1372" id="svg2" version="1.1" inkscape:version="0.48.4 r9939" sodipodi:docname="Map_of_comune_of_Sillano_Giuncugnano_(province_of_Lucca,_region_Tuscany,_Italy).svg">
  <defs id="defs83"/>
  <sodipodi:namedview pagecolor="#ffffff" bordercolor="#666666" borderopacity="1" objecttolerance="10" gridtolerance="10" guidetolerance="10" inkscape:pageopacity="0" inkscape:pageshadow="2" inkscape:window-width="1024" inkscape:window-height="551" id="namedview81" showgrid="false" inkscape:zoom="2.0577762" inkscape:cx="961.80246" inkscape:cy="4570.6583" inkscape:window-x="0" inkscape:window-y="0" inkscape:window-maximized="1" inkscape:current-layer="g5"/>
  <metadata id="metadata10093">image/svg+xml<rdf:RDF>
  <cc:Work rdf:about="">
    <dc:format>image/svg+xml</dc:format>
    <dc:type rdf:resource="http://purl.org/dc/dcmitype/StillImage"/>
    <dc:title/>
  </cc:Work>
</rdf:RDF>
</metadata>
  <g id="g5">
    <title id="title7">Layer 1</title>
    <g stroke-miterlimit="4" transform="matrix(40,0,0,40,-5779.0876,-3401.9879)" id="ALTOPASCIO" stroke-linejoin="round" stroke-width="0.5" stroke="#000000" fill-rule="evenodd" fill="#f8c300">
      <path stroke-miterlimit="4" id="path13" d="m229.8438,202.3694l2.72951,1.4408l0.1158,-0.3421l0.0466,-0.1371l0.21249,-0.2524l0.1208,-0.1433l0.10271,-0.1132l0.0937,-0.09819l0.44611,-0.46742l0.5638,-0.56279l0.0934,-0.0851l0.1044,-0.0849l0.1064,-0.08061l0.1042,-0.07619l0.2653,-0.16211l0.2433,-0.1474l0.0928,-0.0547l0.08629,-0.0257l0.03671,-0.01089l0.08769,-0.0135l0.1263,0.01559l0.7953,0.3116l0.841,0.3148l1.98819,0.3837l0.5428,0.048l0.87,-0.0367l1.10931,1.06641l0.89339,0.9359l1.01523,1.1669l0.46988,0.61l0.26732,-0.67529l1.56918,-3.52301l0.03979,-0.06439l0.03711,-0.0601l0.92111,-1.6422l0.0275,-0.0625l0.0231,-0.06041l0.0555,-0.24887l0.006,-0.0782l0.002,-0.10431l-0.02199,-0.2005l-0.24742,-1.2229l-0.08929,-0.43021l-0.07629,-0.32341l-0.7532,-2.11188l-0.05849,-0.1273l-0.06081,-0.1252l-0.05679,-0.10339l-0.2193,-0.38071l-0.3912,-0.4194l-0.0771,-0.0731l-0.028,-0.00299l-0.01131,-0.00101l-0.0457,-0.004l-0.0766,0.007l-0.10251,-0.0108l-0.1131,-0.02631l-0.0471,-0.0466l-0.82629,-0.82379l-0.6796,-0.6902l-1.0018,-0.32501l-1.43231,-0.9142l-0.0605,-0.03391l-0.06081,-0.0208l-0.59241,0.008l-0.0853,0.00301l-0.0703,0.0159l-1.3156,2.45891l-0.22571,0.67169l-0.0329,0.1167l-0.1615,0.6339l-0.00999,0.36301l-0.01311,0.1041l-0.0237,0.093l-0.0367,0.08411l-0.29759,0.66809l-2.00441,0.37511l-1.8017,-0.5818l-2.84152,-0.9238l-0.01749,0.0377l-0.03511,0.07649l-0.09039,0.1967l-0.1037,0.22569l-0.33411,0.76321l-0.007,0.01941l-0.021,0.0605l-0.0488,0.1469l-0.021,0.0692l-0.0235,0.08l-0.01021,0.0737l-0.00299,0.03239l-0.00601,0.0674l-0.17729,2.55159l-0.0475,0.91431l-0.00079,0.0155l-0.005,0.0869l-0.08299,1.1073l-0.0645,0.3902l-0.1044,0.5264l0.00169,-0.0009z" stroke-width="0.1"/>
    </g>
    <g stroke-miterlimit="4" transform="matrix(40,0,0,40,-5779.0876,-3401.9879)" id="BAGNI_DI_LUCCA" stroke-linejoin="round" stroke-width="0.5" stroke="#000000" fill-rule="evenodd" fill="#f8c300">
      <path stroke-miterlimit="4" id="path36" d="m237.8098,157.7963l0.30791,0.1409l0.17999,-0.1225l0.46851,-0.5211l2.4541,-2.8857l0.23659,-0.41479l0.0365,-0.2863l0.007,-0.12381l-0.007,-0.0719l-0.005,-0.1001l0.004,-0.09779l0.0159,-0.3454l0.02,-0.117l0.0618,-0.2357l0.03061,-0.10159l0.03949,-0.1058l0.0593,-0.1118l0.47623,-0.7709l0.0784,-0.0789l0.89099,-0.79501l0.3568,-0.297l0.7728,-0.58429l0.09041,-0.0242l0.149,-0.00101l0.9771,0.12462l0.5611,0.1051l0.1618,0.02069l0.0704,-0.0116l0.7247,-0.27847l1.0175,-0.43541l0.04909,-0.04251l0.74199,-1.0826l-0.07909,-0.09509l-0.04251,-0.06401l-0.1386,-0.38991l-0.9545,-2.75099l-0.8976,-0.16658l-0.12811,-0.06131l-0.6265,-0.54579l-0.44229,-0.50391l-0.06369,-1.08299l-0.0258,-0.44411l0.004,-0.1826l0.0396,-0.2188l0.07341,-0.2572l0.1156,-0.1781l0.11049,-0.24559l0.60501,-1.44221l0.09509,-0.24159l0.0605,-0.164l0.0453,-0.17509l0.0168,-0.17151l-0.35289,-3.44069l-0.1328,-1.19441l-0.21071,-0.10001l-0.592,-0.33409l-0.5144,-0.4738l-0.4053,-0.45189l-0.1106,-0.16542l-0.09799,-0.14111l-0.15242,-0.16191l-0.61551,-0.47356l-0.16249,-0.10341l-0.70549,-0.25801l-2.72911,-1.6452l-2.4283,-1.4603l-1.19348,-0.5795l-0.48422,-0.0325l-1.16019,-0.0537l-0.306,0.0418l-0.51671,0.2615l-2.36551,-0.80791l-1.69717,-1.41209l-0.05611,0.0578l-0.04919,0.0425l-0.1201,0.0759l-0.07991,0.0463l-0.08189,0.031l-0.0661,0.0139l-0.0769,0.003l-0.11388,-0.0153l-0.70631,-0.1377l-0.25499,-0.0942l-0.06511,-0.0404l-0.06709,-0.04691l-0.10229,-0.0477l-0.07851,-0.0255l-0.14009,-0.0222l-1.147,0.2843l-0.13831,0.0951l-0.0674,0.0792l-0.39149,0.8143l-0.0392,0.0971l-0.01521,0.1041l-0.008,0.052l-0.00063,0.2523l-0.00018,0.1217l0.0197,0.1135l0.0181,0.083l0.02451,0.0918l0.11591,0.24791l0.04059,0.0573l0.0535,0.0663l0.03801,0.07901l0.01109,0.1024l-0.0829,1.3118l-0.02089,0.0605l-0.7881,1.78949l-0.481,0.80402l-0.4406,0.5351l-0.07251,0.0636l-0.01239,0.01089l-0.03221,0.00099l-0.13469,0.00601l-0.13499,-0.05481l-0.06799,-0.00099l-0.20169,0.10269l-0.34581,0.1804l-0.35121,2.4808l-0.02399,0.7356l-0.07391,0.1172l-1.6711,2.0141l-0.8972,1.93401l-2.22719,3.629l-1.13652,2.43469l-0.0799,0.1703l-0.7982,1.1658l-0.4086,0.50771l-0.8732,0.87199l-0.2972,0.2804l-0.06911,0.064l-0.40898,0.32249l-0.00081,0.004l-0.0154,0.0903l0.0004,0.02271l0.002,0.1131l0.0862,0.3149l0.2641,0.5954l1.74971,2.9559l0.16299,0.1214l0.06749,0.0403l0.006,0.00401l0.65181,-0.16502l0.68028,-0.74939l0.15912,-0.18399l0.0876,-0.1115l0.15349,-0.2341l0.00301,-0.005l0.0139,-0.0258l1.17621,0.2713l-0.94011,3.6069l-0.0482,0.22749l-0.01979,0.1214l-0.002,0.0912l0.02789,0.06889l0.11259,0.1447l0.06999,0.0892l2.01822,2.3759l0.36589,0.31149l-0.25441,1.50609l0.59642,1.66681l0.0284,0.0782l0.72279,1.40239l0.3405,0.43132l0.043,0.05049l0.36319,0.2334l0.09911,0.05081l0.11031,-0.00301l0.2632,-0.0668l1.856,-0.74359l0.71849,-0.79939l0.34061,-0.41582l0.9339,-1.2556l0.3208,-0.82269l1.0975,-1.33829l2.46129,-1.52501l4.6284,-0.82199l1.5376,-0.1295l0.7738,0.3071l0.0013,-0.00072z" stroke-width="0.1"/>
    </g>
    <g stroke-miterlimit="4" transform="matrix(40,0,0,40,-5779.0876,-3401.9879)" id="BARGA" stroke-linejoin="round" stroke-width="0.5" stroke="#000000" fill-rule="evenodd" fill="#f8c300">
      <path stroke-miterlimit="4" id="path51" d="m197.2397,134.5161l-0.2287,1.6377l0.0569,0.25981l0.1884,0.7491l0.3067,1.13379l0.03549,0.10071l1.77211,3.4361l0.0426,0.06821l0.42311,0.62489l0.18761,0.17731l1.23651,0.9937l0.0714,0.0513l0.0869,0.045l0.08479,0.0428l3.15813,0.9325l0.8311,0.47591l1.11079,-0.9129l0.16489,-0.1492l0.10791,-0.1416l0.009,-0.03459l0.01649,-0.06061l0.11049,-0.52859l0.0648,-0.54021l0.0128,-0.1042l0.02379,-0.09961l0.207,-0.405l0.03041,-0.05769l0.03319,-0.063l1.5825,-2.44582l0.45621,-0.70491l0.3259,-0.42459l0.32379,-0.30939l0.39101,-0.26251l0.32008,-0.23111l1.20152,-1.02168l0.0699,-0.0966l0.49139,-0.93457l0.0368,-0.09071l0.02559,-0.08209l0.6165,-1.98041l0.1075,-0.6982l0.3658,-1.4762l0.5502,-1.7076l0.02539,-0.06911l0.343,-0.84171l0.09671,-0.1243l0.0784,-0.08121l3.0872,-2.1124l0.89391,-0.5941l0.2178,-0.1373l0.13779,-0.0865l0.21301,-0.1156l0.07539,-0.0377l0.69351,-0.3261l0.1127,-0.03699l0.4525,-0.011l1.05359,0.0135l-0.43091,-1.8912l-0.0929,-0.3084l-0.47452,-0.5548l-0.0517,-0.0553l-4.51309,-3.3271l-1.593,-1.0146l-3.131,-1.7211l-0.22,0.0175l-0.12341,0.0217l-0.10609,0.035l-0.43559,0.1464l-1.0312,0.4009l-0.0582,0.0576l-0.2493,0.4108l-0.0502,0.1034l-0.04829,0.1166l-0.20059,0.7487l-0.00401,0.1086l-0.00021,0.1261l-0.50369,1.3434l-0.6002,1.4568l-1.0992,0.8956l-0.12779,0.0259l-0.11511,0.048l-0.56567,0.54861l-0.54002,0.8297l-0.04639,0.1361l-0.02821,0.1039l-0.0152,0.1106l0.006,0.12189l0.09201,1.09541l0.03709,0.1333l0.101,0.11919l0.054,0.0466l0.06061,0.049l0.25499,0.2242l0.0538,0.0596l0.0388,0.0748l0.0199,0.0742l0.0116,0.085l0.00301,0.0935l-0.0191,0.0823l-0.7829,1.5146l-2.0242,2.6797l-1.09731,0.8481l-0.18869,0.11842l-1.1286,0.64328l-0.2605,0.08461l-0.68991,0.16829l-0.0945,0.009l-0.0826,-0.04489l-0.0558,-0.07271l-0.01611,-0.0764l0.0106,-0.10208l-2.3381,2.44678l0.0004,0.00021z" stroke-width="0.1"/>
    </g>
    <g stroke-miterlimit="4" transform="matrix(40,0,0,40,-5779.0876,-3401.9879)" id="BORGO_A_MOZZANO" stroke-linejoin="round" stroke-width="0.5" stroke="#000000" fill-rule="evenodd" fill="#f8c300">
      <path stroke-miterlimit="4" id="path63" d="m223.8354,167.9369l-0.694,-2.59581l-0.2632,0.06679l-0.11031,0.00301l-0.09911,-0.0508l-0.36319,-0.2334l-0.043,-0.05051l-0.3405,-0.4313l-0.72279,-1.4024l-0.0284,-0.0782l-0.59642,-1.66679l0.25441,-1.5061l-0.36589,-0.31149l-2.01822,-2.3759l-0.06999,-0.0892l-0.11259,-0.1447l-0.02789,-0.06889l0.002,-0.0912l0.01979,-0.1214l0.0482,-0.22749l0.94011,-3.6069l-1.17621,-0.27129l-0.0139,0.02579l-0.00299,0.005l-0.1535,0.2341l-0.0876,0.1115l-0.15912,0.18401l-0.68028,0.74939l-0.65179,0.16501l-0.00601,-0.004l-0.06749,-0.0403l-0.16299,-0.1214l-1.74971,-2.95592l-0.2641,-0.59538l-0.0862,-0.31491l-0.002,-0.1131l-0.0004,-0.02269l0.0154,-0.0903l0.00081,-0.004l-0.84932,-0.52541l-0.79138,0.2093l-0.18399,0.002l-0.10791,-0.007l-0.12849,-0.008l-0.005,-0.00029l-0.0831,-0.0126l-4.10399,-0.66769l-0.0639,-0.0238l-0.4408,-0.29599l-0.1449,-0.1781l-0.20201,-0.24939l-1.1037,-1.75592l-0.11279,0.34581l-0.4129,1.0733l-1.1785,2.2818l-1.399,0.0009l-1.0697,0.49878l0.11121,0.09621l0.6088,0.69281l-1.1391,1.88818l-0.2821,1.47452l0.01741,0.1264l0.2525,0.4519l2.08031,0.19177l0.08359,-0.0159l0.3559,-0.0546l0.0768,-0.005l0.1358,0.00201l0.0786,0.01009l1.3333,0.4174l0.22841,0.0889l0.3817,1.5377l-0.00699,0.49559l-0.3983,0.82352l-0.04991,0.09479l-0.054,0.07521l-0.06479,0.0706l-0.06461,0.0575l-0.07089,0.04869l-0.1037,0.03731l-0.1467,0.0126l-0.5545,1.8188l0.26581,1.5247l0.0471,0.2966l-0.59651,0.2916l-0.34229,0.15921l-0.7422,0.14299l-0.01141,-0.002l-0.0589,-0.0119l-0.0609,-0.02499l-0.0966,-0.10829l-0.05159,-0.0531l-0.067,-0.0446l-0.07631,-0.0231l-0.1026,-0.01709l-0.10481,-0.01491l-0.1073,-0.002l-1.72409,0.04131l-0.18941,0.0145l-0.0636,0.0302l-0.0327,0.0155l-0.65599,0.44081l-0.64761,0.83229l0.02299,0.1853l0.0238,0.13518l0.3548,1.2305l0.07089,0.0751l0.13591,0.8526l-0.76161,0.9761l-0.49489,0.36971l-0.99931,0.6937l-0.0489,0.0448l-0.1183,0.2523l-0.006,0.0695l0.00999,0.0654l0.03571,0.0713l0.5858,1.17459l0.0531,0.0901l0.10939,0.12799l0.04741,0.0444l1.1115,0.8783l1.5145,0.60721l0.36,-0.30681l0.24411,-0.18919l0.922,-0.64261l0.61549,-0.1543l0.56131,-0.0575l0.7961,0.3969l0.26149,0.183l0.1076,0.09761l0.04741,0.04439l0.06439,0.06421l0.39819,0.24629l0.3204,0.1971l0.95241,0.57161l0.0619,-0.03371l1.88499,-2.0752l-0.07109,-0.89059l-0.30251,0.0228l-0.09401,-0.008l-0.2881,-0.04219l-0.08279,-0.02321l-0.07761,-0.0623l-0.0425,-0.05389l-0.01311,-0.01671l-0.0513,-0.0705l-0.05499,-0.1053l-0.0247,-0.0831l-0.0117,-0.07851l0.01021,-0.08029l0.84,-3.43143l0.0369,-0.10147l0.03871,-0.0797l0.06529,-0.09891l0.5844,-0.8222l0.05159,-0.0687l0.5643,-0.442l0.451,-0.3484l0.00999,0.00801l0.15652,0.13l0.13348,0.12199l0.0687,0.07739l0.9539,1.33513l3.60139,0.47528l1.9435,0.72342l3.64281,1.56459l0.1534,0.02469l1.2459,0.4346l0.33971,0.20662l0.08211,0.05809l0.08969,0.1147l0.06241,0.0556l0.11308,0.03481l0.7755,-0.14391l0.07301,-0.04211l0.077,-0.13341l0.53639,-1.01819l-0.00038,0.00017z" stroke-width="0.1"/>
    </g>
    <g stroke-miterlimit="4" transform="matrix(40,0,0,40,-5779.0876,-3401.9879)" id="CAMAIORE" stroke-linejoin="round" stroke-width="0.5" stroke="#000000" fill-rule="evenodd" fill="#f8c300">
      <path stroke-miterlimit="4" id="path90" d="m156.2282,175.687l-0.12579,0.0787l0.0498,0.1366l2.98648,5.31601l0.06351,0.086l0.0712,-0.03419l1.15129,-0.78751l0.0495,-0.03189l0.03659,-0.02341l0.12781,-0.06329l0.57919,-0.2654l0.05931,-0.0177l0.08139,-0.02431l0.00801,-0.002l0.0318,-0.00999l0.59741,-0.16722l1.1225,-0.31369l0.45009,-0.065l0.04309,-0.006l1.1761,-1.0999l0.92552,-1.9995l-0.03551,-0.1115l-0.0182,-0.0583l-0.0255,-0.0815l-0.08749,-0.4319l0.02739,-0.0713l0.0912,-0.0965l0.1176,-0.1069l0.1552,-0.13249l0.0797,-0.0618l0.07491,-0.0359l0.86969,-0.34981l0.0719,-0.02719l2.8177,-1.03952l0.92772,0.56021l0.20508,0.17279l0.09531,0.06241l0.14439,0.002l0.1055,-0.03311l0.0948,-0.04199l0.0862,-0.05521l0.05769,-0.0491l0.62581,-0.6904l0.55139,-0.68939l0.05141,-0.0688l0.04709,-0.071l2.89081,2.853l0.0816,0.09261l0.29871,0.47447l0.00299,0.08261l-0.006,0.0891l-0.00699,0.03239l-0.01001,0.04781l-0.02069,0.0649l-0.03001,0.0952l-0.02129,0.0997l-0.0103,0.0955l-0.00601,0.0739l-0.00099,0.076l0.0161,0.0894l0.05099,0.09219l0.60582,0.53371l1.7775,0.61339l0.53189,0.11301l0.3793,-0.045l0.9489,-0.1118l0.58281,-0.3255l0.11099,-0.0938l0.0388,-0.0442l0.01021,-0.0116l0.0513,-0.06221l0.4166,-0.18889l0.5766,-0.20808l0.06819,-0.0228l0.554,-0.16489l0.0878,-0.0159l0.9689,0.009l0.12201,0.03239l1.1976,0.46559l0.4061,0.19351l0.21631,0.12772l-0.74741,1.00528l-0.09261,0.0442l-0.0616,0.02071l-0.0903,0.0376l-0.1557,0.15401l-0.84309,0.84509l-0.54179,0.61951l-0.0475,0.0992l-0.242,1.1377l-0.004,0.35651l0.0218,0.6658l0.16011,-0.16051l0.0621,-0.05551l0.08839,-0.05719l0.08611,-0.04651l0.0923,-0.02449l0.1041,-0.007l1.2139,0.0157l0.1032,0.004l0.0939,0.008l0.1067,0.0235l0.07361,0.04471l0.065,0.0359l0.09109,0.04709l0.1694,0.0724l0.07401,0.0208l0.08139,0.00401l0.37131,-0.0112l0.6138,-0.05121l1.11729,-0.92889l0.4082,-0.52559l-0.5455,-0.54001l-0.35609,-0.4104l-0.0937,-0.53868l0.082,-0.84242l0.06529,-0.2424l0.151,-0.13448l1.89322,-0.1286l0.3678,0.0188l0.13809,0.01529l0.10411,0.05171l0.10318,0.034l0.94263,-0.1729l0.10609,-0.0677l0.55919,-0.5885l0.06241,-0.1925l0.01649,-0.0715l0.008,-0.10858l-0.28229,0.0105l-0.42949,-0.47049l-0.79802,-1.56171l0.02141,-0.1019l0.23189,-0.3853l0.05171,-0.07959l0.06029,-0.07071l0.07111,-0.06189l0.0618,-0.0294l1.13112,-0.37871l0.17038,-0.26242l0.06911,-0.30328l0.01489,-0.0997l0.05191,-0.34709l0.006,-0.0847l-0.0116,-0.08499l-0.16249,-1.11169l-0.03101,-0.1049l-0.0677,-0.1382l-0.0276,-0.05029l-0.02539,-0.04631l-0.0531,-0.09439l-0.0468,-0.07901l-0.0448,-0.06389l-0.8905,-0.9066l-0.0864,-0.07111l-0.065,-0.03799l-5.7476,-2.9948l-0.3017,-0.1506l-0.0607,-0.0358l-0.2657,-0.2175l-0.4501,-0.5771l-1.701,-2.24811l0.1559,-1.87619l-0.03011,-1.2204l-0.30438,-0.6638l-0.04871,-0.1008l-0.0954,-0.1886l-0.082,-0.12001l-1.08279,0.2272l-1.8656,0.1068l-4.3681,1.68721l-2.2679,1.32779l-0.42731,0.15421l-0.46449,0.1602l-2.6114,0.64009l-0.7695,-0.2206l0.13071,-0.09799l0.13339,-0.1284l0.0759,-0.09021l0.06471,-0.08159l0.1219,-0.22861l0.03171,-0.06909l0.01849,-0.06281l0.0127,-0.1129l-0.00299,-0.1022l-0.03911,-0.1487l-0.47131,0.2995l-0.3143,0.22841l-0.39059,0.46539l-1.4697,1.591l-0.37491,0.3205l-0.15269,0.1042l-0.15269,0.1042l-0.43071,0.3871l-1.14949,1.5896l-1.18051,2.0844l-4.15759,4.3205l-0.5667,0.4146l-0.2469,0.1519l-0.6199,0.3432l-0.0248,0.0114l-0.009,0.004l-0.1528,0.0699l-0.00999,0.005l-0.009,0.004l-0.005,0.002l-0.0804,0.03679l-0.18359,0.0843l0.00215,-0.00006z" stroke-width="0.1"/>
    </g>
    <g stroke-miterlimit="4" transform="matrix(40,0,0,40,-5779.0876,-3401.9879)" id="CAMPORGIANO" stroke-linejoin="round" stroke-width="0.5" stroke="#000000" fill-rule="evenodd" fill="#f8c300">
      <path stroke-miterlimit="4" id="path105" d="m168.1082,118.9255l1.3309,-0.1491l0.1321,-0.0197l0.0905,-0.0225l0.9839,-0.2881l0.0518,-0.0251l0.0656,-0.0318l0.0426,-0.058l0.04309,-0.0863l0.00601,-0.12601l0.77499,-0.3946l1.59131,1.1622l0.7867,0.64951l0.16719,0.2571l0.07809,0.1882l0.1756,2.3088l1.12019,-0.9695l0.14391,-0.0716l1.90739,-0.4838l0.0179,0.006l0.07159,0.0255l0.14261,0.1458l0.0732,0.0794l0.5132,0.7106l0.19359,0.375l0.26921,0.7219l0.0544,0.1585l0.1503,0.4743l0.1008,0.41251l0.03691,0.1572l0.03389,0.2115l-0.00099,0.0674l-0.0322,0.0886l-0.04681,0.0449l-0.06209,0.0403l-0.0603,0.05991l-0.04541,0.0906l-0.02129,0.0932l-0.00801,0.11069l-0.0157,0.2846l-0.002,0.4958l0.007,0.0827l0.0242,0.2635l0.0311,0.1136l0.59711,1.5926l1.2254,-0.9651l1.6593,-1.17651l4.03339,-3.2831l-2.4299,-1.4732l-1.4334,-2.1241l-4.963,-5.00871l-1.6459,-0.6482l-1.5437,-0.59209l-1.18179,-0.42091l-0.51691,-0.106l-2.0723,0.1666l-0.7352,0.4996l-1.9303,1.3498l-0.08231,0.064l-0.1763,0.17339l-0.04269,0.0602l-0.0522,0.1036l-0.02299,0.0692l-0.02791,0.0974l-0.36949,1.2968l-0.53961,1.0692l0.21571,0.3427l0.006,0.01l0.3504,0.5566l0.761,1.1924l0.00061,0.0001z" stroke-width="0.1"/>
    </g>
    <g stroke-miterlimit="4" transform="matrix(40,0,0,40,-5779.0876,-3401.9879)" id="CAPANNORI" stroke-linejoin="round" stroke-width="0.5" stroke="#000000" fill-rule="evenodd" fill="#f8c300">
      <path stroke-miterlimit="4" id="path117" d="m232.5733,203.8102l-2.72951,-1.4408l-1.3221,0.4895l-1.09599,0.76801l-0.01981,0.11699l-0.0379,0.1515l-0.0511,0.0468l-0.35298,0.07581l-0.02271,-0.0244l-0.005,-0.005l-0.0262,-0.02831l-1.8676,-2.2128l-0.61258,-0.73158l-0.1044,-0.13463l-0.0869,-0.13649l-0.048,-0.11398l-0.2233,-0.5392l-0.02289,-0.0592l-0.03101,-0.0919l-0.0719,-0.22969l-0.0239,-0.1201l-0.00601,-0.423l-0.00031,-0.0199l-0.009,-0.6468l-0.002,-0.1436l0.0106,-0.0976l0.03,-0.08211l0.7589,-1.3967l1.12411,-1.85049l-0.4463,-0.9807l-0.4391,-2.70271l-0.4269,-2.88509l0.8116,-0.2583l1.05049,-0.06229l4.291,0.77519l-0.0472,0.39481l-0.0865,0.2854l0.03979,0.5291l0.01491,0.1265l0.08539,0.32561l0.67499,0.4548l0.71971,0.18588l0.70239,-1.35379l0.9353,-0.7513l1.1723,-2.41861l0.1646,-0.42429l-1.2818,-0.007l-0.0952,-0.05409l-0.01019,-0.1416l-0.1443,-3.1602l0.01089,-0.10631l0.11079,-0.89049l0.0885,-0.0341l0.62151,-2.15561l-0.2202,-0.4697l-0.37531,-0.80769l-0.3526,-0.8485l-0.02249,-0.07881l-0.2393,-0.93761l-0.02209,-0.0961l-0.009,-0.10451l0.002,-0.08051l0.006,-0.07809l0.008,-0.0782l0.01791,-0.14612l0.00041,-0.004l0.0153,-0.1041l0.0336,-0.16071l-1.0918,-0.4234l-2.75821,-0.8154l-1.72099,-0.38359l-0.24071,-0.88971l0.06241,-0.0553l0.0737,-0.0769l0.17891,-0.1922l0.04469,-0.0513l0.0499,-0.0882l0.03191,-0.06461l0.0325,-0.0929l0.0105,-0.08681l0.006,-0.0695l-0.50717,-0.9166l-0.04871,-0.07919l-0.4135,-0.5625l-2.57021,-0.30191l-0.1875,-1.04738l-0.19859,-1.49332l-0.53641,1.01819l-0.077,0.13341l-0.073,0.0421l-0.7755,0.14392l-0.1131,-0.03481l-0.06239,-0.0556l-0.08971,-0.1147l-0.08209,-0.05809l-0.33971,-0.20662l-1.2459,-0.4346l-0.1534,-0.0247l-1.0428,1.2263l-0.3898,0.57971l-0.8517,1.28209l-0.0544,0.32521l-0.0229,0.16919l-0.0307,0.23419l-0.0435,0.4472l-0.009,0.1107l0.0531,0.0858l0.09581,0.02141l0.2433,0.3264l0.0658,0.10561l0.0551,0.09239l0.0862,0.18863l0.0755,0.16879l0.3018,0.8125l0.02211,0.1026l0.2834,2.23198l0.006,0.24593l-0.31032,0.3246l-0.78047,0.55067l-0.33632,0.20241l-1.57709,0.68811l-0.08351,0.0202l-0.13379,0.02139l-0.0656,-0.00299l-1.0163,0.07019l-1.0764,0.13231l-0.81261,0.2894l-0.74611,2.0085l-0.02139,0.09749l-0.004,0.09341l0.002,0.11969l0.009,0.02289l0.0101,0.0269l0.01669,0.0443l0.0932,0.04521l0.4575,0.0954l0.3425,0.16287l1.82201,0.96451l0.05589,0.0296l0.02051,0.0108l0.008,0.006l0.0647,0.04361l0.07471,0.0724l0.0658,0.06729l0.4198,0.4747l0.004,0.006l0.04871,0.06531l0.09241,0.38191l-0.01541,1.36679l1.29851,3.0914l0.48759,2.0706l-0.0304,1.2541l-0.0005,0.0141l-0.002,0.06059l-0.00101,0.0296l-0.01559,0.2476l-0.007,0.06841l-0.0007,0.00499l-0.006,0.02031l-0.00299,0.00899l-0.00601,0.01891l-0.03139,0.1664l-0.03621,0.0667l-0.60701,0.31697l-1.668,0.38861l-2.1772,1.20349l0.006,0.01311l0.03571,0.0768l0.02071,0.06129l0.01619,0.06551l0.01161,0.0829l-0.00401,0.076l-0.01439,0.06709l-0.00301,0.013l-0.02251,0.08659l-0.02759,0.07341l-0.62181,1.4803l-0.43439,0.44859l-0.08621,0.05501l-0.05939,0.02499l-0.07681,0.01601l-0.09859,0.01559l-0.10931,0.005l-0.10028,-0.0105l-0.16562,-0.02481l-2.321,0.2903l-1.86899,0.30969l-0.0943,0.0157l-0.1563,0.069l-0.13222,0.06061l-0.1734,0.31438l-0.14719,0.38011l-0.35989,1.1743l-0.00801,0.09549l-0.00699,0.2543l-0.41071,4.35042l-0.7908,3.53247l-0.0168,0.0845l-0.01561,0.1389l0.5786,0.1147l0.33501,0.06039l0.0761,0.0166l0.07581,0.03621l0.0865,0.0428l0.0735,0.0405l0.40521,0.2878l0.071,0.0535l0.1097,0.0889l0.12831,0.14799l0.0761,0.14059l0.06261,0.2773l0.0181,0.2025l0.00499,0.08929l-0.01059,0.10199l-0.11951,1.04811l-0.15579,0.65181l-0.0576,0.16849l-0.069,0.1902l-0.1006,0.2547l-0.10399,0.2296l1.0103,1.1763l0.4014,-0.2341l0.4035,-0.22971l0.1917,-0.10307l1.90939,-0.82863l1.5213,-0.60057l2.35361,0.88278l1.1185,0.64052l1.21719,0.7164l0.0336,0.07019l0.28821,0.6882l0.2025,-0.2093l1.1084,-0.92079l0.0616,-0.0271l2.571,-0.5777l2.23889,-1.0316l1.20091,-0.2608l0.3907,0.67619l0.9655,0.5188l0.08,0.0341l0.07581,0.03189l0.7905,0.3089l0.0824,0.0255l0.13951,0.009l0.7668,-0.04599l0.57579,-0.20399l0.47641,-0.0343l0.0919,-0.0134l0.0899,-0.02431l0.0864,-0.06569l0.0472,-0.06871l0.02251,-0.03979l0.24661,-0.4377l2.07799,-3.76469l0.1178,-0.32381l1.41481,-4.4976l0.00096,-0.00003z" stroke-width="0.1"/>
    </g>
    <g stroke-miterlimit="4" transform="matrix(40,0,0,40,-5779.0876,-3401.9879)" id="CAREGGINE" stroke-linejoin="round" stroke-width="0.5" stroke="#000000" fill-rule="evenodd" fill="#f8c300">
      <path stroke-miterlimit="4" id="path137" d="m174.429,122.2901l-0.1188,0.022l-0.07939,0.0227l-0.763,0.3467l-0.06221,0.0403l-0.1044,0.0745l-0.07579,0.07059l-0.11411,0.1352l-0.07849,0.1009l-0.0365,0.08421l-0.44142,1.0999l-0.01669,0.2183l0.00299,0.0653l0.01961,0.1438l0.0164,0.0742l0.76579,3.4324l0.47139,1.53171l0.02071,0.0764l0.0179,0.11342l0.0118,0.08499l0.007,0.086l0.0367,0.99429l-0.0602,0.59702l-0.0988,0.95729l-0.008,0.0135l-0.0329,0.05769l-2.15312,2.18301l-1.39468,0.7894l-0.0891,-0.058l-0.0827,-0.03821l-0.0677,-0.0206l-0.131,-0.039l-0.08119,-0.00099l-0.0762,0.10318l-0.27548,1.33522l-0.01981,0.14317l0.01151,0.1046l0.11949,0.6259l0.0359,0.0919l0.1779,0.4028l0.6011,0.69211l0.0806,0.03169l0.59221,0.14401l1.03839,0.21631l0.16402,0.03079l0.86427,0.131l0.12961,-0.009l0.12509,-0.009l0.1454,-0.0412l0.10161,-0.0441l0.12161,-0.0589l2.4534,-1.6942l0.95679,0.23598l1.2274,-0.87837l1.45151,-0.90401l0.0237,-0.11052l0.004,-0.07599l-0.06419,-0.3685l-0.60429,-0.46431l-0.07739,-0.09691l-0.32182,-0.8358l-0.1739,-0.50009l0.29102,-0.0851l0.0864,-0.05081l0.12077,-0.1416l0.06041,-0.07289l0.0406,-0.06461l0.37068,-0.65509l0.222,-0.56392l0.17792,-3.59689l-0.005,-0.0871l-0.007,-0.0936l-0.0118,-0.08501l-0.0414,-0.14629l-0.002,-0.007l-0.03331,-0.0853l-0.0296,-0.0657l-0.1382,-0.2741l-0.59709,-1.5926l-0.0311,-0.1136l-0.0242,-0.2635l-0.007,-0.0827l0.002,-0.4958l0.0157,-0.2846l0.008,-0.1107l0.0213,-0.09319l0.04539,-0.09061l0.0603,-0.0599l0.0621,-0.0403l0.0468,-0.0449l0.0322,-0.0886l0.00101,-0.0674l-0.03391,-0.2115l-0.0369,-0.1572l-0.1008,-0.4125l-0.1503,-0.4743l-0.0544,-0.1585l-0.26923,-0.7219l-0.19357,-0.375l-0.5132,-0.7106l-0.07321,-0.0794l-0.14259,-0.1458l-0.07161,-0.02551l-0.0179,-0.006l-1.90738,0.4838l-0.14392,0.07159l-1.12018,0.96951l-0.00031,0.00001z" stroke-width="0.1"/>
    </g>
    <g stroke-miterlimit="4" transform="matrix(40,0,0,40,-5779.0876,-3401.9879)" id="CASTELNUOVO_DI_GARFAGNANA" stroke-linejoin="round" stroke-width="0.5" stroke="#000000" fill-rule="evenodd" fill="#f8c300">
      <path stroke-miterlimit="4" id="path194" d="m198.0412,128.55251l0.1319,-0.13031l0.20851,-0.2486l0.02321,-0.0714l0.13779,-0.589l0.0148,-0.0911l0.01401,-0.16499l-0.0314,-0.2093l-0.1409,-0.4721l-0.0515,-0.0661l-1.12079,-0.9133l-0.0936,-0.0451l-0.10509,-0.0127l-0.099,0.0114l-0.0883,0.03101l-1.1994,1.2937l-0.06041,0.062l-0.06889,0.0467l-0.0618,0.0185l-0.0724,-0.001l-0.0743,-0.0165l-0.0721,-0.0208l-0.08511,-0.0297l-0.07359,-0.06l-0.4816,-0.4453l-0.2382,-0.6804l-0.5957,-0.7049l-1.1138,-0.6988l-1.4178,-0.5226l-1.1545,-0.4058l-0.10939,-0.0371l-0.05299,0.0728l-0.0724,0.0725l-0.44069,0.4125l-0.0589,0.0407l-0.17641,0.0964l-0.24742,0.0888l-1.48068,-1.0106l-0.89142,-0.9042l-4.03337,3.2831l-1.6593,1.1765l-1.22542,0.9651l0.13821,0.2741l0.02959,0.0657l0.03331,0.0853l0.002,0.007l0.0414,0.1463l0.0118,0.08501l0.007,0.0936l0.005,0.0871l-0.17792,3.59689l-0.222,0.5639l-0.37068,0.65511l-0.0406,0.06459l-0.06039,0.07291l-0.12079,0.1416l-0.0864,0.0508l-0.29102,0.0851l0.17392,0.50011l0.32181,0.8358l0.07739,0.09689l0.60429,0.46431l0.9048,-0.06149l2.74341,-0.86409l0.0686,-0.0358l3.13728,-1.82581l0.99901,-0.8118l-0.00301,-0.0696l0.17691,-1.49849l0.57399,-0.073l0.1515,-0.002l0.5098,0.0912l0.14351,0.06979l0.0517,0.05521l0.04291,0.0573l0.05569,0.07919l0.0578,0.08801l0.0661,0.11409l0.5014,1.08272l3.11839,-0.03191l0.09511,-0.05049l0.48581,-0.67453l0.44901,-0.70439l1.59779,-1.7621l0.1492,-0.12131l0.0867,-0.0594l0.31729,-0.07719l0.1145,-0.0219l0.0925,-0.01361l1.65421,0.0298l0.00052,-0.00052z" stroke-width="0.1"/>
    </g>
    <g stroke-miterlimit="4" transform="matrix(40,0,0,40,-5779.0876,-3401.9879)" id="CASTIGLIONE_DI_GARFAGNANA" stroke-linejoin="round" stroke-width="0.5" stroke="#000000" fill-rule="evenodd" fill="#f8c300">
      <path stroke-miterlimit="4" id="path214" d="m211.0918,111.9415l-2.27049,-2.9172l-0.1044,0.0245l-0.0708,-0.007l-0.21001,-0.0519l-0.1414,-0.0765l-0.1064,-0.0715l-2.84019,-2.1451l-0.04269,-0.0682l-0.8412,-1.8503l-0.00301,-0.0848l0.68001,-1.7121l0.63429,-1.0128l0.05481,-0.10989l-0.0157,-0.1003l-0.7211,-0.8544l-0.07111,-0.0796l-0.22141,-0.1605l-0.44299,-0.3123l-0.14619,-0.0635l-0.1709,-0.0337l-0.38211,-0.03481l-0.2,-0.008l-0.2437,-0.0215l-0.7444,-0.07211l-0.16591,-0.0638l-0.33719,-0.3278l-0.15311,-0.1553l-0.6553,-0.8722l-0.99289,-0.0784l-1.93741,0.0542l-0.7935,0.1252l-0.33359,0.0845l-1.3311,0.6444l-0.07391,0.07491l-0.0385,0.06451l-0.0636,0.1142l-0.0547,0.1056l-0.05299,0.1404l-0.0215,0.0953l-0.03169,0.1734l-0.02501,0.1801l-0.01039,0.0889l0.13419,1.7375l-0.42531,3.1749l-0.104,0.0352l-0.29887,0.2471l-0.36913,0.3676l-0.3575,0.4527l-2.31599,2.9948l-0.0383,0.0537l-0.0414,0.1037l-0.96271,3.8204l-0.16049,1.7694l0.008,0.5459l-0.007,0.0416l-0.00499,0.0278l-0.0255,0.0778l-0.0321,0.07339l-0.0685,0.1543l-0.03661,0.0799l-0.03191,0.069l-0.03839,0.0624l-0.10971,0.1134l-0.0977,0.0723l-1.3228,0.9192l-0.39189,-0.06741l-0.64801,-0.12399l-0.6606,-0.03931l-0.10307,0.00301l-0.0883,0.0246l-0.07321,0.0401l-0.05139,0.0535l-0.03641,0.069l-0.0822,0.1834l-0.0296,0.0669l-0.06889,0.3055l0.608,0.7907l1.9137,3.0143l0.6523,0.7525l0.0235,-0.0573l0.0155,-0.0378l0.23769,-0.4134l0.0448,-0.0558l0.05611,-0.0686l0.4071,-0.43349l0.12509,-0.12621l0.0535,-0.0447l0.08411,-0.0356l1.4391,-0.5583l0.11929,-0.0436l0.07021,-0.006l0.0354,-0.00301l0.31911,0.2142l0.2892,0.1593l2.03981,-1.2359l0.47758,-0.3136l0.1183,-0.1045l0.69939,-0.6815l0.20921,-0.2813l0.007,-0.0183l0.0226,-0.0572l0.22549,-0.82681l0.0968,-0.3788l0.1011,-0.6245l-0.0354,-0.1071l-0.03401,-0.0691l-0.04059,-0.179l-0.0596,-0.3577l-0.01761,-0.1199l-0.00499,-0.0718l-0.01221,-0.1785l0.0564,-0.8297l0.0795,-0.39429l0.02121,-0.0779l1.8419,-0.7529l1.63181,0.6701l1.166,0.0379l0.03419,-0.0668l0.34801,-0.5309l0.04489,-0.0536l1.07741,-0.8832l0.0956,-0.0636l0.0643,-0.0314l1.96851,-0.8129l0.49339,-0.1825l0.1059,-0.022l1.4991,-0.2513l0.09679,-0.005l0.1077,-0.00201l0.30643,0.0686l1.2453,0.514l0.1978,0.1189l0.045,0.0617l0.10379,0.0888l0.5265,0.2901l0.1153,0.0587l0.0679,0.0142l0.11711,-0.0326l0.1149,-0.037l0.19699,-0.07249l0.5773,-0.3953l0.0002,-0.00121z" stroke-width="0.1"/>
    </g>
    <g stroke-miterlimit="4" transform="matrix(40,0,0,40,-5779.0876,-3401.9879)" id="COREGLIA_ANTELMINELLI" stroke-linejoin="round" stroke-width="0.5" stroke="#000000" fill-rule="evenodd" fill="#f8c300">
      <path stroke-miterlimit="4" id="path271" d="m205.49271,145.2449l0.29489,1.1382l1.1037,1.75591l0.20201,0.24939l0.1449,0.1781l0.4408,0.29601l0.0639,0.0238l4.10399,0.66768l0.0831,0.0126l0.005,0.00029l0.12849,0.008l0.10791,0.007l0.18399,-0.002l0.79138,-0.2093l0.84932,0.52541l0.40898,-0.32249l0.06911,-0.064l0.2972,-0.2804l0.8732,-0.87199l0.4086,-0.50771l0.7982,-1.1658l0.0799,-0.1703l1.13652,-2.43471l2.22719,-3.62898l0.8972,-1.93401l1.67111,-2.0141l0.0739,-0.1172l0.024,-0.7356l0.3512,-2.4808l0.34581,-0.18042l0.20169,-0.10268l0.06799,0.00099l0.13499,0.05481l0.1347,-0.00601l0.0322,-0.00099l0.01241,-0.01091l0.07249,-0.0636l0.4406,-0.53508l0.481,-0.80402l0.7881,-1.78951l0.02089,-0.0605l0.0829,-1.3118l-0.01109,-0.1024l-0.03799,-0.07899l-0.05351,-0.0663l-0.04059,-0.0573l-0.11591,-0.24791l-0.02451,-0.0918l-0.0181,-0.083l-0.0197,-0.11349l0.0002,-0.1217l0.00061,-0.2523l0.00801,-0.052l0.0152,-0.1041l0.0392,-0.0971l0.39149,-0.8143l0.0674,-0.0792l0.13831,-0.0951l1.147,-0.28429l0.14009,0.0222l0.07851,0.0255l0.10229,0.0477l0.06711,0.0469l0.06509,0.04041l0.255,0.0942l0.7063,0.1377l0.11389,0.0153l0.07689,-0.00301l0.0661,-0.0139l0.08191,-0.031l0.0799,-0.0463l0.1201,-0.0759l0.04919,-0.0425l0.05611,-0.0578l-0.81473,-0.6789l-2.49768,0.4231l-0.75911,0.8616l-0.07629,0.0856l-0.2305,0.002l-0.61609,-0.0445l-1.2583,-0.13309l-0.0993,-0.0472l-0.1543,-0.0813l-0.24321,-0.1373l-0.1259,-0.07201l-0.5513,-0.3258l-0.1561,-0.103l-0.1405,-0.1158l-0.11409,-0.1152l-0.1042,-0.1738l-1.0536,-0.0135l-0.4525,0.011l-0.1127,0.037l-0.6935,0.3261l-0.07539,0.0377l-0.21303,0.1156l-0.13777,0.08649l-0.21782,0.13731l-0.89389,0.5941l-3.08722,2.1124l-0.0784,0.08119l-0.09669,0.1243l-0.343,0.84171l-0.02541,0.06911l-0.55019,1.7076l-0.3658,1.47621l-0.1075,0.69818l-0.6165,1.98041l-0.0256,0.08211l-0.03679,0.0907l-0.49141,0.93459l-0.0699,0.09659l-1.20151,1.0217l-0.32008,0.23111l-0.39101,0.2625l-0.32379,0.3094l-0.32591,0.42459l-0.45621,0.70491l-1.58249,2.4458l-0.0332,0.063l-0.0304,0.05771l-0.207,0.405l-0.0238,0.09959l-0.01279,0.10422l-0.0648,0.54019l-0.11049,0.52859l-0.01651,0.06061l-0.00899,0.03459l-0.10791,0.1416l-0.1649,0.1492l-1.11078,0.9129l-0.00119,0.00002z" stroke-width="0.1"/>
    </g>
    <g stroke-miterlimit="4" transform="matrix(40,0,0,40,-5779.0876,-3401.9879)" id="FABBRICHE_DI_VALLICO" stroke-linejoin="round" stroke="#000000" fill-rule="evenodd" fill="#da271d">
      <path stroke-miterlimit="4" id="path291" d="m192.56551,156.15244l0.46669,0.0988l0.4444,0.0184l1.2682,-0.1246l0.8159,-0.4071l0.77361,-0.6346l0.31569,-0.2598l2.3829,-0.07159l0.1003,0.0257l0.2359,0.0455l0.0809,0.006l1.13591,0.0722l0.05959,-0.0251l0.09511,-0.04829l0.07089,-0.0444l0.10202,-0.06781l0.28209,-1.4745l1.13911,-1.88818l-0.6088,-0.69281l-0.11121,-0.09619l-0.2283,-0.1041l-0.09441,-0.1147l-0.05789,-0.0728l-0.9613,-1.3934l-0.00002,-0.00035l-2.56239,-2.84329l-0.0775,-0.07971l-0.7032,0.09871l-1.1947,0.75121l-0.0517,0.0731l-0.0545,0.10341l-0.04559,0.10139l-0.02971,0.06909l-0.04359,0.11229l-0.03481,0.10811l-0.0472,0.1906l-0.1106,0.3047l-0.06619,0.151l-0.0361,0.0603l-0.05341,0.0513l-0.049,0.047l-0.11749,0.0762l-0.16791,0.0732l-0.086,0.02901l-1.4437,0.47101l-0.20622,0.0106l-0.61357,-0.254l-0.41371,0.093l-0.26669,0.0889l-0.1062,0.0591l-0.8181,0.54932l-0.0934,0.07449l-1.09991,-1.02971l-0.1875,-0.18581l-0.08389,-0.09489l-0.28839,-0.4332l-1.89151,-3.48039l-0.05521,-0.1031l-0.00099,-0.005l-0.02341,-0.0932l0.00601,-0.0847l0.03639,-0.2081l0.26801,-0.54788l0.12019,-0.23723l0.04529,-0.0862l0.1006,-0.10919l0.1674,-0.17551l0.10049,-0.0592l0.01471,-0.008l0.9359,-0.49089l0.39958,-0.03461l0.13121,0.0218l0.8284,0.151l0.12259,0.01291l0.13191,-0.0195l0.1319,-0.03041l0.13258,-0.05429l1.12903,-0.7484l0.0383,-0.05809l0.37387,-0.81882l-0.00899,-0.0936l-0.11769,-0.8022l-0.4404,-0.52292l-4.11462,0.53621l-3.04648,-0.6214l-0.4238,0.29091l-0.09111,0.07019l-0.93979,0.7282l-0.0719,0.10321l-0.01669,0.0802l0.006,0.13492l0.006,0.1436l0.009,0.27197l-0.005,0.1347l-0.0576,0.29919l-0.03079,0.13651l-0.0816,0.29221l-0.0463,0.1449l-0.0369,0.11031l-0.0408,0.07761l-0.0518,0.0818l-0.0472,0.0688l-0.06491,0.07939l-0.0692,0.0728l-1.00079,0.98172l-0.08231,0.0726l-0.2155,0.17479l-0.0686,0.04021l-0.062,0.0316l-4.30269,1.9626l-0.53621,0.23828l-0.1743,0.0668l0.2269,0.33841l2.46811,1.5867l1.98369,1.05089l1.29651,1.2323l1.9142,2.282l0.08139,0.11661l0.75659,1.7825l0.23831,0.68449l0.15259,0.5657l-0.045,0.071l3.9455,-1.6519l1.46242,-0.10262l0.00011,-0.00061l1.61719,1.45291l0.32881,0.89981z" stroke-width="0.1" fill="#f8c300"/>
    </g>
    <g stroke-miterlimit="4" transform="matrix(40,0,0,40,-5779.0876,-3401.9879)" id="FORTE_DEI_MARMI" stroke-linejoin="round" stroke-width="0.1" stroke="#000000" fill="#f8c300">
      <path stroke-miterlimit="4" id="path321" d="m153.9304,161.63251l-0.0757,-0.0685l-0.09351,-0.04269l-0.08299,-0.01201l-0.66722,-0.0531l-0.1033,-0.005l-0.0237,-0.00099l-0.18988,0.0338l-0.02531,0.005l-0.0331,0.009l-0.0284,0.008l-0.05949,0.0274l-0.08171,0.04449l-0.03459,0.02119l-0.2175,0.14259l-0.045,0.0407l-0.05261,0.0471l-0.058,0.0463l-0.02359,0.01891l-0.009,0.007l-0.0403,0.02989l-0.0858,0.0531l-0.0583,0.0356l-0.20131,0.11441l-0.05321,0.0271l-0.01439,-0.013l-0.0735,-0.06641l-2.25699,-2.6078l0.11079,-0.0941l0.0817,-0.0488l-0.9041,-0.89888l-4.0032,1.59369l0.2935,0.31279l0.39041,0.42952l0.47449,0.52188l1.10391,1.2352l0.10339,0.11882l1.5257,1.83267l2.73041,3.40471l0.05989,0.09441l0.0148,0.03709l0.16881,-0.62378l0.20309,-0.42111l0.9201,-0.64571l0.6082,-0.274l0.0753,-0.0598l0.1445,-0.14801l0.0602,-0.07959l1.0464,-1.9333l0.00299,-0.0607l0.0004,-0.009l-0.52289,-2.12549l-0.0004,-0.0006z" stroke-width="0.1"/>
    </g>
    <g stroke-miterlimit="4" transform="matrix(40,0,0,40,-5779.0876,-3401.9879)" id="FOSCIANDORA" stroke-linejoin="round" stroke-width="0.1" stroke="#000000" fill="#f8c300">
      <path stroke-miterlimit="4" id="path324" d="m198.0412,128.55251l1.0061,1.0222l0.0817,0.09491l0.062,0.09239l0.0661,0.10773l0.05501,0.11409l0.12059,0.25429l0.0376,0.105l0.15428,0.82251l0.022,0.12l0.01381,0.0872l0.0132,0.12419l-0.002,0.10213l-0.01511,0.11067l-0.0125,0.0867l-0.0193,0.0975l-0.047,0.17531l-0.0106,0.1021l0.0161,0.07639l0.0558,0.07271l0.0826,0.04491l0.09451,-0.009l0.68991,-0.1683l0.2605,-0.08459l1.1286,-0.6433l0.18869,-0.11841l1.09731,-0.8481l2.0242,-2.6797l0.7829,-1.5146l0.0191,-0.0823l-0.00301,-0.0935l-0.0116,-0.085l-0.0199,-0.0742l-0.0388,-0.0748l-0.0538,-0.0596l-0.255,-0.2242l-0.06059,-0.049l-0.054,-0.0466l-0.101,-0.1192l-0.03709,-0.13329l-0.09201,-1.09541l-0.006,-0.12189l0.0152,-0.1106l0.0282,-0.1039l0.0464,-0.1361l0.54001,-0.8297l0.56569,-0.5486l0.11511,-0.048l0.12779,-0.0259l1.0992,-0.8956l0.6002,-1.4568l0.50369,-1.3434l0.00021,-0.1261l0.004,-0.1086l0.20061,-0.7487l0.04829,-0.1166l0.0502,-0.1034l0.2493,-0.4108l0.0582,-0.0576l1.0312,-0.4009l0.43559,-0.1464l0.10609,-0.035l0.12341,-0.02171l0.22,-0.01749l-0.92023,-2.4588l-3.07288,2.0532l-0.09071,0.0331l-0.22891,0.1416l-0.0957,0.0635l-0.0721,0.0966l-1.48131,2.0694l-0.9229,1.586l-0.0565,0.0838l-0.0762,0.0835l-0.0909,0.0484l-0.0862,0.031l-0.40851,0.1189l-0.17409,0.0316l-0.13651,0.0172l-0.459,-0.00201l-0.11191,-0.008l-0.2518,-0.0436l-0.1335,-0.0263l-0.1337,-0.0111l-0.14929,-0.007l-0.0659,0.001l-0.74399,0.2129l-0.09091,0.0484l-0.11769,0.0719l-1.58391,1.2485l-1.6031,1.5364l-0.25258,0.3794l-0.9915,1.9332l0.0883,-0.031l0.099,-0.0114l0.10507,0.0127l0.0936,0.0451l1.12079,0.9133l0.05151,0.0661l0.1409,0.4721l0.03139,0.2093l-0.01399,0.165l-0.0148,0.0911l-0.1378,0.589l-0.02319,0.0714l-0.20851,0.24861l-0.1319,0.13031l0.00015,-0.00032z" stroke-width="0.1"/>
    </g>
    <g stroke-miterlimit="4" transform="matrix(40,0,0,40,-5779.0876,-3401.9879)" id="GALLICANO" stroke-linejoin="round" stroke-width="0.1" stroke="#000000" fill="#f8c300">
      <path stroke-miterlimit="4" id="path336" d="m197.5985,138.3972l-0.03549,-0.10071l-0.3067,-1.13379l-0.1884,-0.7491l-0.0569,-0.25981l-0.2438,0.0197l-0.24649,0.05229l-0.813,0.20329l-0.1259,0.0457l-0.29941,0.18401l-0.08031,0.0791l-0.07179,0.0901l-0.039,0.095l-0.0172,0.1084l-0.005,0.2869l0.007,0.0784l-0.5799,0.93159l-0.6942,0.81003l-0.1248,0.11308l-0.66251,0.5192l-0.08571,0.007l-0.57391,-0.16197l-0.11969,-0.0542l0.11769,0.8022l0.009,0.0936l-0.37389,0.8188l-0.0383,0.05811l-1.12901,0.74838l-0.1326,0.05431l-0.1319,0.0304l-0.1319,0.0195l-0.1226,-0.01289l-0.8284,-0.151l-0.1312,-0.0218l-0.3996,0.03461l-0.9359,0.49089l-0.01469,0.008l-0.10051,0.0592l-0.16739,0.17549l-0.1006,0.10921l-0.0453,0.0862l-0.12019,0.23721l-0.26801,0.5479l-0.03639,0.2081l-0.006,0.0847l0.02339,0.0932l0.00101,0.005l0.05519,0.1031l1.89151,3.48039l0.28839,0.43318l0.08391,0.09491l0.1875,0.18579l1.0999,1.02971l0.0934,-0.07451l0.8181,-0.5493l0.1062,-0.0591l0.26669,-0.08891l0.41371,-0.09299l0.61359,0.25398l0.20621,-0.0106l1.4437,-0.47101l0.086,-0.02899l0.16791,-0.07321l0.11749,-0.07619l0.04901,-0.04701l0.05339,-0.0513l0.0361,-0.06029l0.06619,-0.151l0.1106,-0.30472l0.0472,-0.19058l0.03481,-0.10811l0.04359,-0.11229l0.02971,-0.06911l0.04559,-0.10139l0.0545,-0.10341l0.0517,-0.07309l1.1947,-0.75122l0.7032,-0.09869l0.0775,0.0797l2.56239,2.84331l0.9613,1.39339l0.05791,0.0728l0.09439,0.1147l0.2283,0.1041l1.0697,-0.49879l1.399,-0.0009l1.1785,-2.2818l0.4129,-1.07329l0.11279,-0.34581l-0.29489,-1.1382l-0.8311,-0.47589l-3.15811,-0.93251l-0.08479,-0.0428l-0.08691,-0.045l-0.0714,-0.0513l-1.23651,-0.9937l-0.18761,-0.17729l-0.42311,-0.62491l-0.0426,-0.06819l-1.77211,-3.43611l0.00116,0.00095z" stroke-width="0.1"/>
      <path stroke-miterlimit="4" id="path338" d="m199.5778,132.06931l0.047,-0.17531l0.0193,-0.0975l0.0125,-0.0867l0.01511,-0.11067l0.002,-0.10213l-0.0132,-0.12419l-0.01381,-0.08719l-0.022,-0.12001l-0.15428,-0.82251l-0.0376,-0.10498l-0.12059,-0.2543l-0.05501,-0.11409l-0.0661,-0.10773l-0.062,-0.09239l-0.0817,-0.09489l-1.0061,-1.0222l-1.65421,-0.0298l-0.0925,0.0136l-0.1145,0.0219l-0.31729,0.07721l-0.0867,0.05939l-0.1492,0.12132l-1.59779,1.7621l-0.44901,0.70438l1.34171,1.06682l0.96339,0.60591l1.3546,1.56079l2.3381,-2.44679l-0.00012,-0.00002z" stroke-width="0.1"/>
    </g>
    <g stroke-miterlimit="4" transform="matrix(40,0,0,40,-5779.0876,-3401.9879)" id="LUCCA" stroke-linejoin="round" stroke-width="0.1" stroke="#000000" fill="#f8c300">
      <path stroke-miterlimit="4" id="path407" d="m184.8811,198.9944l0.009,0.0141l0.06709,0.1077l0.0627,0.0424l0.2057,0.10339l0.1734,0.08549l0.1062,0.04741l0.14139,0.03499l0.12201,0.01941l0.1266,0.004l0.08749,-0.005l0.07021,-0.0184l0.04869,-0.04269l0.03011,-0.1017l0.0278,-0.0952l0.0231,-0.0757l0.03839,-0.0755l0.13501,-0.10213l1.02971,-0.69827l3.2547,-2.16762l0.0836,-0.03119l0.101,-0.03101l0.39751,-0.11929l0.01131,0.00101l0.1064,0.0136l0.0842,0.0623l0.30901,0.451l0.0208,0.06131l0.16211,0.60941l0.60779,-1.42052l0.0569,-0.13159l0.1683,-0.3864l0.034,-0.0583l0.002,-0.00301l0.01811,-0.03119l0.0605,-0.08591l0.0425,-0.058l0.27809,-0.2845l0.40341,-0.38771l0.05859,-0.05009l0.1949,-0.15109l0.02409,-0.005l0.04831,-0.009l0.0714,0.04041l0.1949,0.3513l0.0508,0.09431l0.0918,0.62788l0.02261,0.20911l-0.0007,0.16959l-0.0159,0.1563l-0.0112,0.14331l-0.007,0.1456l0.002,0.1566l0.0117,0.2068l0.01349,0.10239l0.0289,0.09621l1.4519,3.1846l0.05759,0.0793l0.5173,0.64609l0.04941,0.0527l0.0107,0.0114l0.2794,0.1353l0.06291,0.02499l0.1461,0.009l0.0381,-0.0168l0.0658,-0.02921l0.0238,-0.0105l0.1521,-0.0779l0.0605,-0.037l0.0631,-0.03911l0.10811,-0.06329l0.1987,-0.11621l0.49539,0.39142l0.06,0.06839l0.24301,0.3391l0.05519,0.09021l0.1268,0.22511l-0.00009,0.18649l0,0.0179l0.00009,0.1337l0,0.13921l-0.013,0.1498l-0.0135,0.1454l-0.1608,1.5694l-0.02179,0.1192l-0.009,0.007l-0.03951,0.0294l-0.78729,0.44069l-0.5601,0.3143l-0.28239,0.1669l-0.0994,0.06131l-0.0799,0.0769l-0.06921,0.088l-0.03609,0.0668l-0.0388,0.09499l-0.03011,0.0995l-0.02589,0.1039l-0.0103,0.09331l0.19049,1.7169l0.02231,0.09821l0.17169,0.4162l0.0551,0.09441l2.06012,3.01289l0.0766,0.01221l0.0518,0.00699l0.09019,-0.0354l0.10352,-0.05469l0.12968,-0.04991l0.3559,-0.13301l0.1638,-0.008l1.65109,-0.05789l0.0932,0.03859l0.099,0.07791l0.4277,0.49469l0.0769,0.0927l0.0836,0.0862l0.0858,0.0842l0.0882,0.07111l0.0648,0.036l1.95799,0.58942l1.74849,0.48668l0.10399,-0.2296l0.1006,-0.2547l0.069,-0.1902l0.0576,-0.1685l0.15581,-0.65179l0.11949,-1.04811l0.0106,-0.10199l-0.005,-0.08929l-0.0181,-0.2025l-0.06261,-0.2773l-0.0761,-0.14059l-0.1283,-0.14799l-0.1097,-0.0889l-0.071,-0.0535l-0.40523,-0.2878l-0.0735,-0.04051l-0.0865,-0.0428l-0.07579,-0.03619l-0.07611,-0.0166l-0.33499,-0.06039l-0.5786,-0.1147l0.01559,-0.1389l0.0168,-0.0845l0.79082,-3.53249l0.41069,-4.3504l0.007,-0.2543l0.008,-0.0955l0.35989,-1.17429l0.1472,-0.38011l0.1734,-0.31439l0.1322,-0.06059l0.1563,-0.069l0.0943,-0.0157l1.869,-0.30969l2.321,-0.2903l0.1656,0.0248l0.1003,0.01051l0.1093,-0.005l0.0986,-0.01561l0.0768,-0.01599l0.0594,-0.02499l0.0862,-0.05501l0.4344,-0.44859l0.6218,-1.4803l0.0276,-0.07341l0.02251,-0.08659l0.00299,-0.013l0.0144,-0.06711l0.004,-0.07599l-0.0116,-0.0829l-0.0162,-0.06551l-0.02071,-0.06129l-0.03569,-0.0768l-0.006,-0.01311l2.1772,-1.20349l1.668,-0.38861l0.60701,-0.31697l0.03619,-0.06671l0.0314,-0.16638l0.006,-0.01891l0.00301,-0.009l0.006,-0.02029l0.0007,-0.005l0.007,-0.06839l0.01559,-0.2476l0.00099,-0.0296l0.00201,-0.06059l0.00049,-0.0141l0.03041,-1.2541l-0.48761,-2.0706l-1.29849,-3.0914l0.0154,-1.36679l-0.09241,-0.38191l-0.04869,-0.06531l-0.004,-0.006l-0.4198,-0.4747l-0.06581,-0.06731l-0.07469,-0.07239l-0.0647,-0.04361l-0.00801,-0.006l-0.02049,-0.0108l-0.05591,-0.0296l-1.82201,-0.96451l-0.3425,-0.16287l-0.4575,-0.0954l-0.0932,-0.04521l-0.01669,-0.0443l-0.0101,-0.0269l-0.009,-0.0229l-0.002,-0.11969l0.004,-0.0934l0.02141,-0.09749l0.74609,-2.0085l0.81261,-0.2894l1.0764,-0.13231l1.0163,-0.07021l0.0656,0.00301l0.1338,-0.02141l0.0835,-0.02019l1.5771,-0.68811l0.3363,-0.20241l0.78049,-0.55067l0.3103,-0.3246l-0.006,-0.24593l-0.2834,-2.23198l-0.02209,-0.1026l-0.3018,-0.8125l-0.0755,-0.16879l-0.08621,-0.18863l-0.0551,-0.09239l-0.0658,-0.10561l-0.2433,-0.3264l-0.09579,-0.02141l-0.0531,-0.0858l0.009,-0.1107l0.04349,-0.4472l0.0307,-0.23419l0.0229,-0.1692l0.0544,-0.3252l0.8517,-1.2821l0.3898,-0.5797l1.0428,-1.2263l-3.64281,-1.56459l-1.9435,-0.7234l-3.60139,-0.4753l-0.9539,-1.33511l-0.0687,-0.07741l-0.13348,-0.12198l-0.15651,-0.13002l-0.01001,-0.008l-0.451,0.3484l-0.5643,0.442l-0.05159,0.0687l-0.5844,0.8222l-0.06529,0.09889l-0.0387,0.07971l-0.03691,0.10147l-0.84,3.43143l-0.01019,0.08029l0.01169,0.07851l0.0247,0.0831l0.05501,0.1053l0.0513,0.0705l0.01309,0.01669l0.0425,0.05391l0.07761,0.0623l0.08279,0.02319l0.2881,0.04221l0.09401,0.008l0.30251,-0.0228l0.07111,0.89059l-1.88501,2.0752l-0.0619,0.03369l-0.95241,-0.57161l-0.3204,-0.19708l-0.39819,-0.24631l-0.06439,-0.06419l-0.04741,-0.0444l-0.1076,-0.0976l-0.26149,-0.183l-0.7961,-0.3969l-0.56131,0.0575l-0.61549,0.15428l-0.922,0.64262l-0.24411,0.18919l-0.36,0.30679l-0.8582,0.88512l-0.6927,0.92949l-0.1032,0.14601l-0.0786,0.11609l-0.09259,0.16141l-0.0345,0.09509l-0.01241,0.0824l0.0007,0.08481l-0.92781,1.743l-2.50169,-0.5652l-0.0856,-0.006l-0.0764,0.0139l-0.09439,0.0201l-1.27139,0.3934l-0.2269,0.08751l-1.8943,0.87439l-0.008,0.10858l-0.01651,0.0715l-0.06239,0.1925l-0.5592,0.5885l-0.10609,0.0677l-0.94261,0.1729l-0.1032,-0.034l-0.1041,-0.05171l-0.13811,-0.01529l-0.3678,-0.0188l-1.8932,0.1286l-0.151,0.13448l-0.06531,0.2424l-0.082,0.84242l0.0937,0.53868l0.35609,0.4104l0.5455,0.54001l-0.40819,0.52559l-1.11731,0.92889l-0.6138,0.05119l-0.37129,0.0112l-0.08141,-0.004l-0.07401,-0.0208l-0.16939,-0.0724l-0.09111,-0.04709l-0.065,-0.0359l-0.07359,-0.04471l-0.1067,-0.0235l-0.0939,-0.008l-0.10321,-0.004l-1.21388,-0.0157l-0.10411,0.007l-0.0923,0.02449l-0.08611,0.04651l-0.08839,0.05719l-0.0621,0.05551l-0.16011,0.16051l-0.4189,0.3345l1.6425,4.71089l0.7126,1.04691l0.0558,0.0596l0.213,0.2079l0.0753,0.073l0.06931,0.036l0.11058,0.054l0.108,0.0125l0.4903,0.058l1.3871,0.27562l0.73512,0.47551l0.8181,0.99008l0.00099,0.5589l0.0002,0.1174l-0.6122,0.31111l-2.63829,0.2587l-0.545,-0.3374l-0.0631,-0.1489l-0.04871,-0.0943l-0.15311,-0.25691l-0.0835,-0.075l-0.08821,0.01781l-0.15291,0.1301l-0.08209,0.0704l-0.66991,0.7283l-0.507,2.37711l0.0173,0.13948l0.41118,1.28749l0.02521,0.06351l0.0685,0.0838l0.0562,0.03999l0.15981,0.0648l0.0246,0.00999l0.0907,0.06241l0.14371,0.1611l0.073,0.0817l0.3541,0.5125l0.19011,0.388l0.01131,0.1089l0.06569,0.9057l-0.0878,0.0672l-0.00157,0.00319z" stroke-width="0.1"/>
    </g>
    <g stroke-miterlimit="4" transform="matrix(40,0,0,40,-5779.0876,-3401.9879)" id="MASSAROSA" stroke-linejoin="round" stroke-width="0.1" stroke="#000000" fill="#f8c300">
      <path stroke-miterlimit="4" id="path443" d="m182.9211,183.026l-0.02179,-0.6658l0.004,-0.35651l0.24199,-1.1377l0.0475,-0.0992l0.54181,-0.61951l0.84308,-0.84509l0.1557,-0.15401l0.0903,-0.0376l0.0616,-0.02071l0.09261,-0.0442l0.74741,-1.00528l-0.21631,-0.12772l-0.4061,-0.19351l-1.1976,-0.46559l-0.12199,-0.03239l-0.9689,-0.009l-0.0878,0.0159l-0.554,0.16489l-0.06821,0.0228l-0.5766,0.20808l-0.4166,0.18889l-0.0513,0.06221l-0.01021,0.0116l-0.03879,0.0442l-0.11101,0.0938l-0.58279,0.3255l-0.9489,0.1118l-0.3793,0.045l-0.53191,-0.11301l-1.7775,-0.61339l-0.6058,-0.53371l-0.05101,-0.09219l-0.0161,-0.0894l0.00101,-0.076l0.006,-0.0739l0.0103,-0.0955l0.0213,-0.0997l0.03,-0.0952l0.02071,-0.0649l0.00999,-0.04781l0.007,-0.03239l0.006,-0.0891l-0.00301,-0.08261l-0.29871,-0.47447l-0.0816,-0.09261l-2.89079,-2.853l-0.0471,0.071l-0.05139,0.0688l-0.55139,0.68939l-0.62581,0.69041l-0.05771,0.04909l-0.0862,0.05521l-0.0948,0.04199l-0.1055,0.03311l-0.14439,-0.002l-0.09529,-0.06241l-0.20509,-0.17279l-0.9277,-0.56021l-2.8177,1.03952l-0.0719,0.02719l-0.86971,0.34981l-0.07491,0.0359l-0.0797,0.0618l-0.15518,0.13249l-0.1176,0.1069l-0.0912,0.0965l-0.0274,0.0713l0.08749,0.4319l0.02551,0.0815l0.01819,0.0583l0.03551,0.1115l-0.92551,1.9995l-1.1761,1.0999l1.4267,-0.3241l0.94101,1.3951l1.0228,1.60521l0.1683,0.26669l0.00301,0.005l0.1172,0.1857l0.05479,0.0869l0.03021,0.0509l0.13939,0.23439l0.0972,0.16351l2.6795,4.51979l3.28299,5.38541l0.30501,0.5174l0.00801,0.01379l0.002,0.00401l0.00499,0.00899l0.04111,0.0708l-0.18181,0.56801l-0.5381,1.0168l-0.0294,0.05501l-0.021,0.039l0.6613,0.36571l1.716,1.4406l0.05161,0.05519l0.0584,0.0336l0.3707,0.17979l0.06761,0.005l0.49777,0.0166l0.44521,-0.106l2.44421,0.42641l0.086,0.0818l0.70549,0.5399l0.11029,0.0692l2.04352,0.33548l0.41629,0.0547l0.7742,0.07361l1.14099,0.084l0.12561,-0.02281l0.0878,-0.0672l-0.06569,-0.9057l-0.01131,-0.10889l-0.19011,-0.388l-0.3541,-0.51251l-0.073,-0.0817l-0.14371,-0.1611l-0.0907,-0.06239l-0.0246,-0.01001l-0.15981,-0.06479l-0.0562,-0.04001l-0.0685,-0.0838l-0.02521,-0.06349l-0.41119,-1.28749l-0.01729,-0.1395l0.50699,-2.37711l0.66992,-0.7283l0.08209,-0.0704l0.15291,-0.1301l0.08821,-0.01779l0.0835,0.075l0.15311,0.2569l0.04871,0.0943l0.0631,0.1489l0.545,0.3374l2.63829,-0.2587l0.6122,-0.3111l-0.0002,-0.1174l-0.00099,-0.5589l-0.8181,-0.9901l-0.73512,-0.47551l-1.3871,-0.2756l-0.4903,-0.058l-0.108,-0.0125l-0.11058,-0.054l-0.06931,-0.03601l-0.0753,-0.073l-0.213,-0.2079l-0.0558,-0.0596l-0.7126,-1.04689l-1.6425,-4.71091l0.4189,-0.3345l-0.00061,-0.00027z" stroke-width="0.1"/>
    </g>
    <g stroke-miterlimit="4" transform="matrix(40,0,0,40,-5779.0876,-3401.9879)" id="MINUCCIANO" stroke-linejoin="round" stroke-width="0.1" stroke="#000000" fill="#f8c300">
      <path stroke-miterlimit="4" id="path446" d="m152.47501,124.6763l0.67389,0.4499l0.1703,0.0634l1.2496,0.26151l0.1664,0.0285l0.10541,0.0102l1.196,0.0196l0.2421,-0.04l0.3663,0.0119l0.1158,0.043l2.0472,1.5086l0.13141,0.16721l0.20659,0.26839l2.03461,-3.1576l-0.034,-0.0777l-0.03841,-0.0701l-0.0188,-0.0677l0.00099,-0.0739l0.0101,-0.0825l0.04561,-0.1124l0.1201,-0.2417l0.05161,-0.0732l0.1178,-0.0961l2.20641,-1.1389l1.4894,-0.0514l2.9767,-3.2998l-0.761,-1.1924l-0.3504,-0.5566l-0.006,-0.01l-0.21571,-0.3427l0.53961,-1.0692l-0.1696,-0.1178l-0.05431,-0.04l-0.6153,-0.9705l-0.045,-0.0724l-0.0381,-0.0876l-0.0273,-0.0852l-0.2119,-1.2057l-0.0697,-0.4664l-0.005,-0.0957l0.0316,-0.47359l-0.00009,-0.4153l-0.03191,-0.07l-0.11089,-0.20831l-0.89432,-1.27579l-0.0712,-0.08591l-0.12259,-0.0345l-0.1568,0.0585l-0.0863,0.0357l-0.0668,0.05441l-0.05339,0.047l-0.07361,0.0685l-0.10678,0.0853l-0.07561,0.0533l-0.0864,0.0508l-0.08391,0.027l-0.93269,0.20779l-0.088,0.005l-0.4507,0.01929l-0.08789,-0.004l-0.47412,-0.0289l-0.26567,-0.0268l-0.009,-0.001l-0.00301,-0.0826l0.01721,-0.1172l0.01459,-0.0933l0.01891,-0.0845l0.0208,-0.0671l0.037,-0.11691l0.0295,-0.0626l0.056,-0.0687l0.0603,-0.0622l0.047,-0.0558l0.0787,-0.1184l0.03391,-0.0604l0.02759,-0.07999l0.0211,-0.0867l0.004,-0.0869l-0.0228,-0.09171l-0.02699,-0.1026l-0.9375,-3.3767l-0.0609,-0.0466l-0.3367,-0.40079l-0.048,-0.059l-0.004,-0.005l-0.069,-0.088l-0.045,-0.0789l-0.8425,-2.2848l-0.03871,-0.7855l0.5809,-2.9192l-0.14391,-1.2481l-0.2327,0.5597l-0.15041,0.3457l-0.09669,0.1377l-0.15381,0.1326l-3.31659,2.8454l-1.36212,0.3563l-1.36157,0.6458l-0.52681,0.3881l-1.0125,0.9803l0.88631,4.8997l0.81268,1.8338l-0.0582,4.2567l-1.09541,1.7368l-0.12469,0.1178l-0.1115,0.2594l-0.06131,0.2861l-0.0571,0.3058l-0.0153,0.2933l0.03081,0.3005l0.009,0.5677l-0.015,0.17879l-0.004,0.0427l-0.0356,0.1756l-0.09171,0.25961l-0.1949,0.2669l-0.2018,0.1276l-0.26939,0.1114l-0.07491,0.0141l0.20691,0.265l0.07721,0.125l0.05659,0.1857l0.19441,0.9682l0.0322,0.2027l0.0461,1.1987l0.00401,0.9384l0.0831,0.1729l0.19321,0.1507l0.1377,0.0454l0.07869,0.0251l0.00026,0.001z" stroke-width="0.1"/>
    </g>
    <g stroke-miterlimit="4" transform="matrix(40,0,0,40,-5779.0876,-3401.9879)" id="MOLAZZANA" stroke-linejoin="round" stroke-width="0.1" stroke="#000000" fill="#f8c300">
      <path stroke-miterlimit="4" id="path449" d="m197.011,136.15379l0.2287,-1.6377l-1.3546,-1.56079l-0.96339,-0.60591l-1.34171,-1.0668l-0.48581,0.67451l-0.09511,0.05051l-3.11838,0.03189l-0.50142,-1.0827l-0.0661,-0.11411l-0.0578,-0.088l-0.05569,-0.07919l-0.04291,-0.05731l-0.0517,-0.05519l-0.14351,-0.06981l-0.50978,-0.0912l-0.15152,0.00201l-0.57399,0.073l-0.17691,1.49849l0.00301,0.0696l-0.99901,0.81178l-3.13728,1.82581l-0.0686,0.0358l-2.74341,0.86409l-0.9048,0.06151l0.06419,0.3685l-0.004,0.076l-0.0237,0.1105l-1.45149,0.90401l-1.2274,0.87839l-0.50591,1.44771l-0.008,0.07379l-0.0934,0.8857l-0.01921,0.1019l-0.043,0.08189l-0.07159,0.08801l-0.0649,0.07939l-0.10211,0.0789l-0.63599,0.4052l-0.491,0.2531l-0.0862,0.04001l-0.07741,0.0401l-0.0154,0.0103l-0.0511,0.0343l-0.07809,0.0835l-0.0209,0.07359l-0.00999,0.06291l-0.00801,0.07599l-0.034,0.61481l0.02251,0.1026l0.69087,1.34819l0.78302,1.8804l0.1743,-0.06679l0.53621,-0.2383l4.30269,-1.9626l0.062,-0.0316l0.0686,-0.04021l0.2155,-0.17479l0.08229,-0.0726l1.00081,-0.9817l0.0692,-0.0728l0.0649,-0.07941l0.0472,-0.0688l0.0518,-0.0818l0.0408,-0.07759l0.0369,-0.11032l0.04631,-0.1449l0.08159,-0.29219l0.03081,-0.13652l0.0576,-0.29918l0.005,-0.13472l-0.009,-0.27197l-0.00601,-0.1436l-0.006,-0.13492l0.01671,-0.0802l0.0719,-0.10321l0.93979,-0.72818l0.09109,-0.07021l0.4238,-0.29091l3.04649,0.6214l4.11461,-0.53619l0.4404,0.5229l0.11969,0.0542l0.57393,0.16199l0.08569,-0.007l0.66251,-0.5192l0.1248,-0.1131l0.6942,-0.81001l0.5799,-0.93159l-0.007,-0.0784l0.005,-0.2869l0.0172,-0.1084l0.039,-0.095l0.07181,-0.0901l0.08029,-0.0791l0.29941,-0.18401l0.1259,-0.0457l0.81302,-0.20329l0.24649,-0.05231l0.24379,-0.0197l0.00002,-0.00044z" stroke-width="0.1"/>
    </g>
    <g stroke-miterlimit="4" transform="matrix(40,0,0,40,-5779.0876,-3401.9879)" id="MONTECARLO" stroke-linejoin="round" stroke-width="0.1" stroke="#000000" fill="#f8c300">
      <path stroke-miterlimit="4" id="path470" d="m231.96581,191.1188l-0.91931,3.80911l2.84151,0.9238l1.8017,0.5818l2.00441,-0.37511l0.29759,-0.66811l0.0367,-0.08409l0.0237,-0.093l0.01311,-0.1041l0.00999,-0.36302l0.1615,-0.6339l0.03291,-0.1167l0.22569,-0.67169l1.3156,-2.45891l0.0703,-0.0159l0.08531,-0.00301l0.59241,-0.008l0.06079,0.0208l0.0605,0.03391l1.43233,0.9142l1.0018,0.32503l-1.80942,-2.7052l-1.02031,-0.0229l-0.078,-0.01599l-0.0526,-0.0209l-0.05891,-0.0246l-0.02979,-0.0125l-0.03931,-0.10739l-0.073,-1.02573l0.0107,-0.94569l0.00101,-0.0695l-0.0663,-0.81459l-1.08693,-1.69421l-0.41299,-0.4433l-0.64638,-0.037l-0.12872,0.091l-0.54778,0.48911l0.002,0.0139l0.008,0.0667l-1.48029,1.1924l-0.66411,0.12451l-0.1646,0.42429l-1.1723,2.41861l-0.9353,0.75131l-0.70239,1.35379l-0.00081,0.00078z" stroke-width="0.1"/>
    </g>
    <g stroke-miterlimit="4" transform="matrix(40,0,0,40,-5779.0876,-3401.9879)" id="PESCAGLIA" stroke-linejoin="round" stroke-width="0.1" stroke="#000000" fill="#f8c300">
      <path stroke-miterlimit="4" id="path557" d="m200.9135,154.7354l-0.10201,0.06781l-0.07091,0.04439l-0.09509,0.04831l-0.0596,0.0251l-1.13591,-0.0722l-0.0809,-0.006l-0.2359,-0.0455l-0.1003,-0.0257l-2.3829,0.07159l-0.31569,0.2598l-0.77361,0.6346l-0.81589,0.40709l-1.26822,0.12462l-0.44438,-0.0184l-0.46669,-0.0988l-0.32883,-0.89981l-1.61717,-1.4529l-1.46231,0.1026l-3.94551,1.6519l-1.5428,0.15292l-1.27228,0.75537l-1.36333,0.83231l-0.18008,0.16451l-0.3172,0.77119l0.03839,0.1916l1.1149,1.68291l0.082,0.12001l0.0954,0.18858l0.04871,0.1008l0.3044,0.66382l0.03009,1.2204l-0.1559,1.87619l1.701,2.24809l0.4501,0.57712l0.2657,0.21748l0.0607,0.0358l0.3017,0.15062l5.7476,2.99478l0.065,0.03801l0.0864,0.07109l0.8905,0.9066l0.0448,0.0639l0.0468,0.07899l0.0531,0.09441l0.02541,0.0463l0.0276,0.05031l0.06769,0.1382l0.03101,0.10489l0.16249,1.11169l0.0116,0.08501l-0.006,0.0847l-0.0519,0.34708l-0.01491,0.0997l-0.06909,0.3033l-0.17039,0.26241l-1.13112,0.37871l-0.0618,0.0294l-0.07109,0.0619l-0.0603,0.07069l-0.0517,0.07961l-0.2319,0.3853l-0.02141,0.1019l0.79802,1.56169l0.42949,0.47049l0.2823,-0.0105l1.89429,-0.87439l0.22691,-0.08749l1.27138,-0.39342l0.09441,-0.0201l0.0764,-0.0139l0.0856,0.006l2.50169,0.5652l0.92781,-1.743l-0.0007,-0.08479l0.01239,-0.08241l0.0345,-0.09509l0.09261,-0.16141l0.0786,-0.11609l0.1032,-0.14601l0.6927,-0.92949l0.8582,-0.8851l-1.5145,-0.60721l-1.1115,-0.8783l-0.04741,-0.0444l-0.10939,-0.12799l-0.0531,-0.09009l-0.5858,-1.17461l-0.03571,-0.0713l-0.00999,-0.0654l0.006,-0.0695l0.1183,-0.2523l0.04889,-0.0448l0.99933,-0.6937l0.49487,-0.36971l0.76163,-0.9761l-0.13591,-0.8526l-0.07091,-0.07509l-0.35478,-1.2305l-0.0238,-0.13519l-0.02299,-0.1853l0.64761,-0.83229l0.65599,-0.44081l0.0327,-0.0155l0.0636,-0.0302l0.18941,-0.0145l1.72409,-0.04131l0.1073,0.002l0.10481,0.01491l0.1026,0.01709l0.07631,0.0231l0.067,0.0446l0.05159,0.0531l0.0966,0.10829l0.0609,0.02499l0.0589,0.0119l0.0114,0.002l0.74222,-0.14299l0.34227,-0.15921l0.59651,-0.2916l-0.04709,-0.2966l-0.26582,-1.5247l0.55452,-1.8188l0.14668,-0.0126l0.1037,-0.03729l0.07091,-0.04871l0.06461,-0.0575l0.06479,-0.0706l0.054,-0.0752l0.0499,-0.0948l0.3983,-0.82352l0.007,-0.49559l-0.3817,-1.5377l-0.22841,-0.0889l-1.3333,-0.41739l-0.0786,-0.0101l-0.1358,-0.002l-0.0768,0.00499l-0.3559,0.05461l-0.0836,0.0159l-2.08029,-0.19179l-0.25252,-0.4519l-0.0174,-0.1264l-0.00009,-0.00018z" stroke-width="0.1"/>
    </g>
    <g stroke-miterlimit="4" transform="matrix(40,0,0,40,-5779.0876,-3401.9879)" id="PIAZZA_AL_SERCHIO" stroke-linejoin="round" stroke-width="0.1" stroke="#000000" fill="#f8c300">
      <path stroke-miterlimit="4" id="path569" d="m178.8936,102.2144l0.1554,-0.7531l0.01311,-0.1259l0.03639,-0.6061l0.004,-0.2456l-0.0309,-0.3941l-0.88127,-0.8339l-0.2357,-0.1125l-0.1792,-0.0681l-0.06351,-0.0228l-0.07889,-0.0143l-0.10109,0.0027l-0.07301,0.02489l-0.0842,0.03571l-2.99577,1.395l-1.30292,1.0275l-0.0959,0.0876l-0.30539,0.2583l-0.1559,0.1193l-0.0755,0.0532l-0.0999,0.06149l-0.51892,0.2756l-0.07509,0.0206l-0.12561,0.0198l-0.0834,-0.0144l-0.0585,-0.4662l-0.0506,-0.4117l0.01019,-0.089l-0.00499,-0.0795l-0.01001,-0.0741l-0.0253,-0.07211l-0.26329,-0.57819l-1.17479,-1.0815l-0.11081,-0.0735l-0.7572,-0.2389l-0.0658,-0.0097l-0.3316,-0.0247l-0.1403,0.6675l-0.0145,0.08459l0.0006,0.1l0.01381,0.09811l0.0208,0.0764l0.0739,0.1968l0.1021,0.2169l0.06461,0.0814l0.1062,0.1017l0.13409,0.1434l0.4147,0.4696l0.0558,0.08131l0.02899,0.11349l-0.008,0.0651l-0.03191,0.0691l-0.045,0.0645l-0.11661,0.15041l-1.91119,1.5786l-1.2052,0.45119l-1.16501,1.27171l-0.0361,0.0581l-0.31628,0.5443l-0.08141,0.22079l-0.008,0.0214l0.007,0.1001l0.01219,0.0676l0.0381,0.0832l0.16231,0.1699l0.1017,-0.03979l0.0636,0.0118l0.06079,0.04881l0.03201,0.0592l0.17728,0.3332l0.05701,0.2901l0.0201,0.1177l0.007,0.1153l-0.002,0.0741l-0.002,0.0585l-0.026,0.1127l-1.57751,1.4003l-1.34779,0.7593l-0.24539,0.1028l-0.0929,0.0356l-0.04701,-0.08549l-0.06029,0.06219l-0.056,0.0687l-0.02951,0.0626l-0.037,0.1169l-0.0208,0.0671l-0.01889,0.0845l-0.0146,0.0933l-0.0172,0.1172l0.00299,0.0826l0.009,0.001l0.26569,0.0268l0.47411,0.0289l0.08791,0.004l0.4507,-0.01929l0.088,-0.005l0.93269,-0.2078l0.08389,-0.027l0.0864,-0.0508l0.07561,-0.0533l0.10678,-0.0853l0.07361,-0.0685l0.05341,-0.047l0.06679,-0.05441l0.0863,-0.0357l0.1568,-0.0585l0.12259,0.0345l0.0712,0.0859l0.89432,1.2758l0.1109,0.2083l0.03189,0.07l0.00009,0.41531l-0.0316,0.47359l0.005,0.0957l0.0697,0.4664l0.2119,1.2057l0.0273,0.08521l0.0381,0.0876l0.045,0.0724l0.6153,0.9705l0.05431,0.04l0.16962,0.1178l0.36949,-1.2968l0.02789,-0.0974l0.02299,-0.0692l0.0522,-0.1036l0.04271,-0.0602l0.1763,-0.17339l0.08229,-0.064l1.9303,-1.3498l0.73521,-0.4996l2.07228,-0.1666l0.51691,0.106l1.18179,0.42091l1.54372,0.59209l0.09529,-0.1877l0.67259,-1.5005l0.10701,-0.494l0.008,-0.0683l0.00061,-0.005l0.002,-0.0155l-0.0229,-0.0786l-0.063,-0.0445l-0.845,-0.3342l-1.0791,-0.3923l-0.07849,-0.0382l-0.69011,-0.4023l-0.04979,-0.0486l-0.0648,-0.0706l-0.63489,-0.695l-0.0623,-0.0858l-0.04269,-0.0833l-0.03311,-0.1266l-0.00899,-0.1023l-0.07321,-0.8882l0.23091,-0.7118l0.0495,-0.0765l0.52721,-0.8006l0.04649,-0.053l0.05861,-0.054l0.06889,-0.0468l0.07541,-0.0401l0.0775,-0.0336l0.06619,-0.025l0.095,-0.02679l0.10381,-0.0266l0.1149,-0.0373l0.0995,-0.0354l0.0909,-0.0442l0.1107,-0.0548l0.35921,-0.19l0.07991,-0.0433l0.1487,-0.0955l2.13741,-1.5075l0.86079,-0.8733l0.287,-0.34109l-0.00041,-0.0007z" stroke-width="0.1"/>
      <path stroke-miterlimit="4" id="path571" d="m166.0892,94.9946l-0.0752,0.44901l-0.00801,0.07809l0.0379,0.0963l0.002,0.0043l0.007,0.0175l0.0728,0.1294l0.57019,0.9524l0.15071,0.2024l1.23909,1.6291l0.23581,0.2472l-2.2321,-3.8057l-0.0002,0z" stroke-width="0.1"/>
    </g>
    <g stroke-miterlimit="4" transform="matrix(40,0,0,40,-5779.0876,-3401.9879)" id="PIETRASANTA" stroke-linejoin="round" stroke-width="0.1" stroke="#000000" fill="#da271d">
      <path stroke-miterlimit="4" id="path577" d="m164.9758,160.4216l-2.75929,-2.6227l-0.6546,-0.59911l-0.23451,0.005l-0.14049,0.0197l-0.1033,0.0202l-2.7688,0.56999l-0.78601,0.269l0.03259,0.6071l0.09601,0.0275l0.0696,0.03149l0.0764,0.06731l0.0594,0.0782l0.0426,0.0789l0.0188,0.06119l0.0271,0.09601l0.026,0.16348l0.0351,0.29192l-0.0126,0.10849l-0.14551,0.94598l-0.0141,0.0672l-0.29919,0.8284l-0.04909,0.0558l-0.06421,0.04691l-0.12111,0.04829l-0.10339,0.0289l-0.103,0.007l-0.02409,0.002l-1.84111,-0.0507l-0.799,-0.0246l-0.5056,-0.0182l0.52289,2.1255l-0.00038,0.00899l-0.00301,0.0607l-1.0464,1.9333l-0.0602,0.07961l-0.1445,0.14801l-0.0753,0.0598l-0.6082,0.274l-0.9201,0.64569l-0.20309,0.42111l-0.16879,0.62379l1.03949,1.38049l2.922,4.33011l0.15041,0.2599l0.15462,0.27299l0.58998,1.09799l0.14821,0.3327l0.18359,-0.08429l0.0804,-0.0368l0.005,-0.002l0.009,-0.004l0.00999,-0.005l0.1528,-0.0699l0.009,-0.004l0.0248,-0.0114l0.6199,-0.3432l0.2469,-0.1519l0.5667,-0.4146l4.15759,-4.3205l1.18051,-2.0844l1.14948,-1.5896l0.43073,-0.3871l0.15269,-0.1042l0.15269,-0.1042l0.37491,-0.3205l1.4697,-1.591l0.39059,-0.46539l0.0166,-0.23511l-0.00301,-0.0696l-0.02051,-0.08731l-0.2514,-0.66168l-0.31441,-0.132l-0.3685,-0.09911l-1.6769,-1.8869l-0.00107,0.00032z" stroke-width="0.1"/>
      <path stroke-miterlimit="4" id="path579" d="m155.1212,157.9487l0.8539,-0.7182l0.05341,-0.05141l1.2794,-1.6252l-0.2805,-0.73259l-0.03601,-0.0853l-0.22598,-0.42299l-0.07001,-0.09109l-0.05069,-0.04111l-1.6806,-1.1965l-1.6828,-0.88741l-0.50859,-0.4619l-0.742,-0.7162l-0.47141,1.42731l-0.31061,0.8208l-1.53409,4.0347l-0.01711,0.01941l-0.13928,0.15671l-0.12491,0.1407l-0.058,0.06549l-0.20801,0.2341l-0.6371,0.61403l0.9041,0.89888l2.0354,-1.0954l0.05949,-0.02519l1.6086,-0.1967l0.78079,-0.067l0.08049,0.0381l0.0955,0.0558l0.09981,0.0666l0.5226,0.03479l0.27571,-0.095l0.12848,-0.09819l0.00002,-0.00005z" stroke-width="0.1"/>
    </g>
    <g stroke-miterlimit="4" transform="matrix(40,0,0,40,-5779.0876,-3401.9879)" id="PIEVE_FOSCIANA" stroke-linejoin="round" stroke-width="0.1" stroke="#000000" fill="#f8c300">
      <path stroke-miterlimit="4" id="path585" d="m186.4583,118.0745l-0.7028,0.1264l-1.6445,2.5734l2.4299,1.4732l0.8914,0.90421l1.4807,1.0106l0.24741,-0.0888l0.17641,-0.09641l0.0589,-0.0407l0.44069,-0.4125l0.0724,-0.0725l0.05301,-0.0728l0.10939,0.0371l1.15448,0.4058l1.4178,0.5226l1.1138,0.6988l0.59572,0.7049l0.23819,0.6804l0.4816,0.4453l0.07361,0.06001l0.0851,0.0297l0.0721,0.0208l0.0743,0.0165l0.0724,0.001l0.0618,-0.0185l0.06891,-0.0467l0.06039,-0.062l1.19942,-1.2937l0.9915,-1.9332l0.25258,-0.3794l1.6031,-1.5364l1.58391,-1.2485l0.11769,-0.0719l0.0909,-0.0484l0.744,-0.2129l0.0659,-0.001l0.14929,0.007l0.13368,0.0111l0.1335,0.0263l0.2518,0.0436l0.11192,0.008l0.459,0.002l0.13651,-0.0172l0.17407,-0.0316l0.40851,-0.1189l0.08621,-0.031l0.0909,-0.0484l0.0762,-0.0835l0.0565,-0.0838l0.9229,-1.586l1.48131,-2.0694l0.0721,-0.0966l0.0957,-0.0635l0.22891,-0.1416l0.0907,-0.0331l3.07289,-2.0532l0.56882,-1.848l-0.5773,0.3953l-0.19701,0.07249l-0.11488,0.037l-0.11713,0.0326l-0.0679,-0.0142l-0.11528,-0.0587l-0.52652,-0.2901l-0.10379,-0.0888l-0.045,-0.06171l-0.1978,-0.1189l-1.2453,-0.514l-0.30641,-0.0686l-0.1077,0.00201l-0.0968,0.005l-1.49908,0.2513l-0.1059,0.022l-0.49339,0.1825l-1.96851,0.8129l-0.0643,0.0314l-0.09561,0.0636l-1.07739,0.8832l-0.04491,0.0536l-0.34799,0.5309l-0.03419,0.0668l-1.166,-0.0379l-1.63181,-0.6701l-1.84192,0.7529l-0.02119,0.0779l-0.0795,0.3943l-0.0564,0.8297l0.01219,0.1785l0.005,0.0718l0.01759,0.1199l0.0596,0.3577l0.0406,0.179l0.034,0.0691l0.0354,0.1071l-0.10109,0.6245l-0.0968,0.3788l-0.22549,0.82681l-0.0226,0.0572l-0.007,0.0183l-0.20921,0.2813l-0.69939,0.6815l-0.1183,0.1045l-0.4776,0.3136l-2.03981,1.2359l-0.2892,-0.1593l-0.31909,-0.2142l-0.0354,0.00301l-0.07021,0.006l-0.11929,0.0436l-1.4391,0.5583l-0.08411,0.0356l-0.0535,0.0447l-0.12509,0.12621l-0.4071,0.43349l-0.05611,0.0686l-0.0448,0.0558l-0.2377,0.4134l-0.01549,0.0378l-0.02351,0.0573l-0.65228,-0.7525l-1.9137,-3.0143l-0.608,-0.7907l-0.00002,0.0007z" stroke-width="0.1"/>
    </g>
    <g stroke-miterlimit="4" transform="matrix(40,0,0,40,-5779.0876,-3401.9879)" id="PORCARI" stroke-linejoin="round" stroke-width="0.1" stroke="#000000" fill="#f8c300">
      <path stroke-miterlimit="4" id="path642" d="m229.8438,202.3694l0.1044,-0.5264l0.0645,-0.3902l0.08301,-1.1073l0.00499,-0.0869l0.00081,-0.0155l0.0475,-0.91431l0.17729,-2.55159l0.006,-0.0674l0.00301,-0.03239l0.01019,-0.0737l0.0235,-0.08l0.021,-0.0692l0.04881,-0.1469l0.021,-0.0605l0.007,-0.01941l0.33409,-0.76321l0.1037,-0.22569l0.09041,-0.1967l0.0351,-0.07649l0.0175,-0.0377l0.91931,-3.8091l-0.71971,-0.1859l-0.67499,-0.4548l-0.08539,-0.32561l-0.01491,-0.1265l-0.03979,-0.5291l0.0865,-0.2854l0.0472,-0.39481l-4.291,-0.77519l-1.05049,0.0623l-0.8116,0.2583l0.4269,2.88507l0.4391,2.70273l0.4463,0.98068l-1.12411,1.85051l-0.7589,1.3967l-0.03,0.08209l-0.0106,0.0976l0.002,0.1436l0.009,0.6468l0.00031,0.0199l0.00601,0.42302l0.0239,0.1201l0.0719,0.22969l0.03101,0.09189l0.02289,0.0592l0.2233,0.5392l0.048,0.11398l0.0869,0.13649l0.1044,0.13463l0.61258,0.73158l1.8676,2.2128l0.0262,0.02831l0.005,0.005l0.02271,0.0244l0.35298,-0.07581l0.0511,-0.0468l0.0379,-0.1515l0.01981,-0.11699l1.09599,-0.76801l1.3221,-0.4895l-0.00119,-0.00008z" stroke-width="0.1"/>
    </g>
    <g stroke-miterlimit="4" transform="matrix(40,0,0,40,-5779.0876,-3401.9879)" id="SAN_ROMANO_IN_GARFAGNANA" stroke-linejoin="round" stroke-width="0.1" stroke="#000000" fill="#f8c300">
      <path stroke-miterlimit="4" id="path735" d="m185.75549,118.2009l0.0491,-0.5656l0.0217,-1.1478l-0.002,-0.0587l-0.00072,-0.0153l-0.76138,-1.59769l-0.089,-0.06451l-0.39751,-0.2632l-0.7294,-0.79919l-0.82719,-1.2421l-0.08521,-0.1634l-0.3687,-0.8171l-0.02629,-0.1309l-0.25482,-1.4501l-0.02049,-0.2178l-0.0394,-1.1966l0.004,-0.1021l0.006,-0.0717l0.01921,-0.2323l0.02879,-0.1474l0.0164,-0.0628l1.34009,-4.529l0.2162,-0.3074l0.0761,-0.077l0.0648,-0.0642l0.07809,-0.0726l0.0979,-0.068l0.07561,-0.0466l0.08179,-0.0313l0.22972,-0.057l0.46327,-0.0902l0.38071,-0.0198l4.35461,-2.7333l0.34598,-0.4203l0.11522,-0.3133l0.2984,-0.8452l-1.4471,0.7627l-4.32182,1.5685l-1.30249,1.081l-0.0867,0.0573l-0.32439,0.199l-0.0993,0.0267l-0.0773,0.0183l-2.06779,0.4489l-0.11258,0.0243l-0.14313,0.0129l-0.2374,-0.008l-1.4025,-0.1564l-0.287,0.3411l-0.86079,0.8733l-2.13741,1.5075l-0.1487,0.0955l-0.0799,0.0433l-0.35921,0.18999l-0.1107,0.0548l-0.0909,0.0442l-0.0995,0.03539l-0.1149,0.0373l-0.10382,0.0266l-0.095,0.0268l-0.06619,0.025l-0.0775,0.0336l-0.07541,0.0401l-0.06889,0.0468l-0.05859,0.054l-0.04651,0.05299l-0.52719,0.80061l-0.0495,0.0765l-0.23091,0.7118l0.0732,0.8882l0.009,0.1023l0.0331,0.12659l0.04269,0.08331l0.0623,0.08579l0.63489,0.69501l0.0648,0.07059l0.0498,0.0486l0.69009,0.40231l0.07851,0.0382l1.0791,0.3923l0.845,0.3342l0.06299,0.0445l0.0229,0.0786l-0.002,0.0155l-0.0006,0.005l-0.008,0.0683l-0.10703,0.494l-0.67258,1.5005l-0.09531,0.1877l1.6459,0.6482l4.963,5.0087l1.4334,2.1241l1.6445,-2.5734l-0.00024,0z" stroke-width="0.1"/>
    </g>
    <g stroke-miterlimit="4" transform="matrix(40,0,0,40,-5779.0876,-3401.9879)" id="SERAVEZZA" stroke-linejoin="round" stroke-width="0.1" stroke="#000000" fill="#f8c300">
      <path stroke-miterlimit="4" id="path782" d="m149.4343,159.3309l-0.0817,0.0488l-0.11079,0.0941l2.25699,2.6078l0.0735,0.06639l0.01439,0.013l0.05321,-0.0271l0.20131,-0.1144l0.0583,-0.0356l0.0858,-0.0531l0.0403,-0.02991l0.009,-0.00699l0.02359,-0.01891l0.058,-0.0463l0.0526,-0.0471l0.04501,-0.0407l0.2175,-0.14259l0.03459,-0.02121l0.08171,-0.04449l0.05949,-0.0274l0.0284,-0.008l0.0331,-0.009l0.0253,-0.00499l0.1899,-0.0338l0.0237,0.00099l0.1033,0.005l0.66721,0.0531l0.08301,0.01199l0.09351,0.04271l0.0757,0.0685l0.5056,0.0182l0.799,0.0246l1.84109,0.05069l0.02411,-0.002l0.103,-0.00699l0.10339,-0.0289l0.12111,-0.04831l0.06419,-0.04689l0.0491,-0.0558l0.29919,-0.8284l0.0141,-0.0672l0.14551,-0.946l0.0126,-0.10849l-0.03511,-0.2919l-0.026,-0.1635l-0.0271,-0.09599l-0.0188,-0.0612l-0.0426,-0.0789l-0.05939,-0.0782l-0.0764,-0.06729l-0.06961,-0.03151l-0.09599,-0.0275l-0.03261,-0.6071l0.78601,-0.269l2.7688,-0.56999l0.1033,-0.0202l0.14049,-0.0197l0.23451,-0.005l-0.27269,-0.22369l-0.0605,-0.0509l-0.09081,-0.084l-0.0621,-0.09439l-0.0661,-0.11621l-0.0468,-0.0921l-0.0686,-0.24448l-0.09349,-0.34282l-0.02031,-0.1069l-0.0139,-0.09369l-0.00699,-0.11531l0.0278,-0.09959l0.0468,-0.0537l0.05319,-0.04051l0.07071,-0.03589l0.0748,-0.02281l0.06599,-0.0143l0.2997,0.02841l0.1875,0.06149l0.27159,0.14542l0.5905,-0.07161l1.4252,-0.21779l0.8125,-0.1779l0.0497,-0.01259l0.04361,-0.011l0.12149,-0.0612l0.0842,-0.05971l0.6806,-0.51579l0.25641,-0.28531l-0.2912,-1.0112l-0.2677,-0.8304l-0.74741,-2.12489l-0.4281,-0.81322l-0.66521,-1.50389l-0.02521,-0.06999l-0.03059,-0.15269l-0.01801,-0.1111l-0.005,-0.09361l-0.0237,-0.45918l0.009,-0.13031l0.01981,-0.15192l0.222,-0.32289l0.2404,-0.2377l0.3985,-0.25058l0.1239,-0.07201l0.47169,-0.4473l0.76849,-0.78421l-0.02119,-3.59039l-0.41451,-0.7108l-0.0854,-0.00299l-1.73207,-0.18051l-0.00999,-0.005l-0.05141,-0.0264l-1.9236,-1.4379l-0.09041,-0.40359l-0.01619,-0.0851l-0.0986,-1.31261l-0.6274,0.145l-0.1264,0.0916l-0.8992,0.7086l-0.1871,0.19299l-1.17979,2.1701l-0.04849,0.16451l0.02969,0.2135l0.05371,0.22479l0.08479,0.1926l0.10881,0.20381l0.12329,0.1149l0.08411,0.09691l0.004,0.16321l-0.0502,0.09351l-0.0378,0.07039l-0.10199,0.1082l-0.11951,0.1268l-0.006,0.006l-0.004,0.00401l-0.22583,0.23761l-1.1736,1.06128l-0.84387,0.7139l-0.20601,0.1427l-0.97209,1.09062l-0.2677,0.31567l0.0287,0.1353l0.03419,0.0592l0.7068,1.1344l0.0562,0.19771l0.0146,0.05119l-0.00801,0.2347l-0.00899,0.18471l-0.0285,0.44319l-0.0228,0.2063l-0.0728,0.18161l-0.26312,0.3049l-0.79828,0.92351l-0.16922,0.18019l-0.01459,0.01311l-0.1165,0.1046l-1.94902,1.043l0.74202,0.7162l0.50859,0.4619l1.6828,0.88741l1.68059,1.1965l0.0507,0.04109l0.07001,0.09111l0.22598,0.42299l0.036,0.0853l0.28052,0.73259l-1.27942,1.6252l-0.05339,0.05141l-0.8539,0.7182l-0.12849,0.09819l-0.27571,0.095l-0.5226,-0.03479l-0.09981,-0.0666l-0.09549,-0.0558l-0.08051,-0.0381l-0.78079,0.067l-1.60858,0.1967l-0.05951,0.02519l-2.0354,1.09541l0.00058,0.00002z" stroke-width="0.1"/>
    </g>
    <g stroke-miterlimit="4" transform="matrix(40,0,0,40,-5779.0876,-3401.9879)" id="SILLANO GIUNCUGNANO" style="fill:#f8c300;stroke:#000000;stroke-width:0.1;stroke-linejoin:round;stroke-miterlimit:4">
      <path style="stroke-width:4;stroke-miterlimit:4" d="m 1075.3184,2 -1.0469,4.9414062 -1.541,2.7597657 -4.0469,5.2441401 -4.5508,3.927735 -8.9961,6.554687 -21.541,14.365235 -6.043,3.382812 -8.0254,1.007813 -9.6035,0.240234 -17.66013,3.6875 -25.56836,13.083984 -46.74414,32.853516 -35.0039,31.035152 -80.63086,33.65235 -30.55664,11.27148 12.11718,104.47266 0.004,0.008 -0.008,0 -59.5918,40.76367 -24.66406,58.51172 -34.5,64.37305 -31.7168,65.97461 -4.50781,12.80469 5.75586,49.92382 -23.23633,116.76954 1.54883,31.41992 33.69922,91.39258 1.80078,3.15429 2.75976,3.52149 0.16016,0.19922 1.91992,2.35937 13.46875,16.0332 2.43555,1.86328 37.5,135.06836 1.08008,4.10352 0.91211,3.66797 -0.16016,3.47656 -0.84375,3.4668 -1.10547,3.20117 -1.35547,2.41601 -3.14844,4.73633 -1.8789,2.23047 1.8789,3.41992 3.7168,-1.42382 9.81641,-4.11133 53.91015,-30.37305 63.10157,-56.01172 1.03906,-4.50781 0.0801,-2.33984 0.0801,-2.96289 -0.27929,-4.61329 -0.80469,-4.70703 -2.2793,-11.60547 -7.09179,-13.32617 -1.2793,-2.36914 -2.43359,-1.95117 -2.54297,-0.47266 -4.06836,1.5918 -6.49219,-6.79492 -1.52344,-3.32813 -0.48828,-2.70508 -0.2793,-4.0039 0.32032,-0.85547 3.25586,-8.83203 12.65234,-21.77149 1.44336,-2.32421 46.59961,-50.86914 48.20898,-18.04688 76.44727,-63.14453 4.66406,-6.01563 1.80083,-2.58007 1.2754,-2.76368 0.3203,-2.60547 -1.1602,-4.53906 -2.23242,-3.25195 -16.58789,-18.7832 -5.36328,-5.73633 -4.24805,-4.06836 -2.58399,-3.25586 -4.08398,-8.67578 -2.95703,-7.87305 -0.83203,-3.05469 -0.55078,-3.92578 -0.0234,-4 0.58008,-3.38281 c 3.81289,-18.02973 0.1833,-27.51323 18.86909,-25.72084 l 2.63281,0.38867 30.28707,9.55469 4.4316,2.9414 46.9922,43.25977 10.5313,23.12695 1.0117,2.88477 0.4004,2.96289 0.2012,3.18164 -0.4082,3.55859 2.0234,16.46875 2.3398,18.64844 3.336,0.57617 5.0254,-0.79297 3.0039,-0.82422 20.7558,-11.02343 3.9961,-2.46094 3.0196,-2.12695 6.2363,-4.77149 12.2168,-10.33203 3.8359,-3.50391 52.1153,-41.10156 119.832,-55.79883 3.3672,-1.42968 2.9199,-0.99415 4.0449,-0.10937 3.1543,0.57227 2.541,0.9121 7.168,2.72461 9.4277,4.5 35.252,33.35547 1.2363,15.76368 -0.1601,9.82421 -1.4571,24.24414 -0.5234,5.03711 -6.2168,30.12305 56.1016,6.25586 9.496,0.32031 5.7227,-0.51562 4.5039,-0.97266 82.7129,-17.95508 3.0918,-0.73242 3.9707,-1.06836 12.9766,-7.95898 3.4687,-2.29297 52.0996,-43.24024 172.8711,-62.74023 57.8848,-30.50781 57.7656,-38.86719 -0.4414,-4.38477 -1.2715,-12.71875 -8.0918,-25.5371 -1.5078,-4.28711 -24.0351,-45.11329 -11.2735,-38.11523 -43.0801,-19.38086 -76.2675,-63.03516 -81.3243,-67.01953 -50.9238,-44.41992 -73.6445,-17.9082 -77.0723,18.31054 -5.7461,1.29688 -7.289,1.0957 -30.4473,-2.83203 -8.5,-2.40429 -106.0449,-45.53907 -103.2598,-53.47656 -10.3555,-13.035156 -5.6972,-6.964844 -12.0996,-14.019531 -6.0528,-6.705078 -6.9238,-2.195313 z" transform="matrix(0.025,0,0,0.025,144.47719,85.049698)" id="path347" inkscape:connector-curvature="0" sodipodi:nodetypes="ccccccccccccccccccccccccccccccccccccccccccccccccccccccccccccccccccccccccccccccccccccccccccccccccccccccccccccccccccccccccccccccccccccccccccccccccccccccccccccccc"/>
    </g>
    <g stroke-miterlimit="4" transform="matrix(40,0,0,40,-5779.0876,-3401.9879)" id="STAZZEMA" stroke-linejoin="round" stroke-width="0.1" stroke="#000000" fill="#f8c300">
      <path stroke-miterlimit="4" id="path812" d="m185.2117,155.5542l0.045,-0.071l-0.1526,-0.5657l-0.2383,-0.68449l-0.75659,-1.7825l-0.08139,-0.11661l-1.9142,-2.282l-1.29652,-1.2323l-1.98369,-1.05089l-2.46809,-1.5867l-0.2269,-0.33841l-0.78302,-1.8804l-0.69087,-1.34819l-0.02251,-0.1026l0.03401,-0.61481l0.008,-0.076l0.00999,-0.0629l0.0209,-0.07359l0.07809,-0.08351l0.0511,-0.03429l0.01541,-0.0103l0.07739,-0.0401l0.0862,-0.04001l0.491,-0.2531l0.636,-0.4052l0.1021,-0.0789l0.0649,-0.07941l0.07159,-0.088l0.04301,-0.08189l0.0192,-0.1019l0.0934,-0.8857l0.008,-0.07379l0.50591,-1.44772l-0.9568,-0.23598l-2.4534,1.6942l-0.1216,0.0589l-0.10161,0.0441l-0.1454,0.0412l-0.12509,0.009l-0.12961,0.009l-0.86429,-0.131l-0.164,-0.03079l-1.03841,-0.21631l-0.59219,-0.14401l-0.0806,-0.03169l-0.60112,-0.69211l-0.1779,-0.4028l-1.09241,-0.002l-3.76927,-1.09691l-0.11783,-0.041l-0.44659,-0.20459l-2.48059,-1.20061l-0.3688,1.4601l0.0986,1.31261l0.0162,0.0851l0.09039,0.40359l1.9236,1.4379l0.05141,0.0264l0.00999,0.005l1.73209,0.18051l0.08539,0.00299l0.41451,0.7108l0.02121,3.59039l-0.76851,0.78421l-0.47169,0.4473l-0.12389,0.07201l-0.39851,0.25058l-0.2404,0.2377l-0.222,0.32289l-0.01981,0.15192l-0.009,0.13031l0.02371,0.45918l0.00499,0.0936l0.01801,0.11111l0.03059,0.15269l0.02521,0.06999l0.66521,1.50389l0.4281,0.81322l0.74741,2.12489l0.2677,0.8304l0.2912,1.0112l-0.25641,0.28531l-0.6806,0.51579l-0.0842,0.05971l-0.12149,0.0612l-0.04361,0.01099l-0.0497,0.0126l-0.8125,0.1779l-1.4252,0.21779l-0.5905,0.07161l-0.27159,-0.14542l-0.1875,-0.06149l-0.2997,-0.02841l-0.06599,0.0143l-0.0748,0.02281l-0.07071,0.03589l-0.05319,0.04051l-0.0468,0.0537l-0.0278,0.09959l0.007,0.11531l0.0139,0.09369l0.02029,0.1069l0.09351,0.34282l0.06859,0.24448l0.0468,0.0921l0.0661,0.11621l0.0621,0.09439l0.09081,0.084l0.0605,0.0509l0.27269,0.22369l0.65462,0.59911l2.75929,2.6227l1.67688,1.8869l0.3685,0.09911l0.31442,0.132l0.2514,0.6617l0.02051,0.0873l0.00299,0.0696l-0.0166,0.23511l0.3143,-0.22841l0.47133,-0.2995l0.03909,0.14871l0.00301,0.10219l-0.01271,0.1129l-0.01849,0.06281l-0.03171,0.06911l-0.1219,0.22859l-0.0647,0.0816l-0.0759,0.09019l-0.13339,0.1284l-0.13071,0.09799l0.7695,0.2206l2.61139,-0.64009l0.46451,-0.1602l0.42729,-0.15421l2.2679,-1.32777l4.36812,-1.68721l1.8656,-0.10681l1.08278,-0.22719l-1.1149,-1.68291l-0.03839,-0.1916l0.3172,-0.77119l0.18008,-0.16451l1.36333,-0.83231l1.27229,-0.75539l1.54279,-0.15291l-0.00041,0.00053z" stroke-width="0.1"/>
    </g>
    <g stroke-miterlimit="4" transform="matrix(40,0,0,40,-5779.0876,-3401.9879)" id="VAGLI_SOTTO" stroke-linejoin="round" stroke-width="0.1" stroke="#000000" fill="#f8c300">
      <path stroke-miterlimit="4" id="path848" d="m174.429,122.2901l-0.1756,-2.3088l-0.07811,-0.1882l-0.16719,-0.2571l-0.78668,-0.64951l-1.59131,-1.1622l-0.77501,0.3946l-0.006,0.12601l-0.04309,0.0863l-0.0426,0.058l-0.0656,0.0318l-0.0518,0.0251l-0.9839,0.2881l-0.0905,0.0225l-0.1321,0.0197l-1.3309,0.1491l-2.9767,3.2998l-1.4894,0.0514l-2.20641,1.1389l-0.1178,0.0961l-0.05161,0.0732l-0.1201,0.2417l-0.04561,0.1124l-0.0101,0.0825l-0.00099,0.0739l0.0188,0.0677l0.03839,0.0701l0.03401,0.0777l-2.03461,3.1576l0.69328,0.306l0.13933,0.0825l0.10649,0.069l0.08549,0.1556l1.66051,5.0858l0.11639,0.567l-0.06889,0.05771l-0.1355,0.0632l-0.09631,0.13988l-0.05719,0.2993l-0.0383,0.20601l0.008,0.16101l0.03911,0.7464l2.48058,1.20061l0.44659,0.20459l0.11783,0.041l3.76927,1.09689l1.09241,0.002l-0.03589,-0.09189l-0.11951,-0.6259l-0.01151,-0.1046l0.01981,-0.14319l0.2755,-1.33521l0.07619,-0.1032l0.08121,0.00101l0.13098,0.039l0.0677,0.0206l0.0827,0.03819l0.0891,0.058l1.3947,-0.7894l2.15311,-2.183l0.0329,-0.05769l0.008,-0.0135l0.0988,-0.95731l0.06021,-0.597l-0.03671,-0.99429l-0.00699,-0.086l-0.01181,-0.08501l-0.0179,-0.1134l-0.02069,-0.0764l-0.47141,-1.53171l-0.76579,-3.4324l-0.0164,-0.0742l-0.01959,-0.1438l-0.00301,-0.0653l0.01671,-0.2183l0.44141,-1.0999l0.0365,-0.0842l0.07851,-0.1009l0.11409,-0.1352l0.07581,-0.0706l0.1044,-0.0745l0.06219,-0.0403l0.763,-0.3467l0.07941,-0.0227l0.11879,-0.022l-0.00108,-0.00001z" stroke-width="0.1"/>
    </g>
    <g stroke-miterlimit="4" transform="matrix(40,0,0,40,-5779.0876,-3401.9879)" id="VERGEMOLI" stroke-linejoin="round" stroke-width="0.1" stroke="#000000" fill="#f8c300"/>
    <g stroke-miterlimit="4" transform="matrix(40,0,0,40,-5779.0876,-3401.9879)" id="VIAREGGIO" stroke-linejoin="round" stroke-width="0.1" stroke="#000000" fill="#f8c300">
      <path stroke-miterlimit="4" id="path866" d="m173.16589,195.3611l0.021,-0.039l0.0294,-0.05499l0.5381,-1.0168l0.18181,-0.56801l-0.04111,-0.0708l-0.00499,-0.009l-0.002,-0.004l-0.00801,-0.01381l-0.30501,-0.5174l-3.28299,-5.38541l-2.6795,-4.51979l-0.0972,-0.16351l-0.13939,-0.23439l-0.03021,-0.0509l-0.05479,-0.0869l-0.1172,-0.1857l-0.00301,-0.005l-0.1683,-0.26669l-1.0228,-1.60519l-0.94101,-1.39511l-1.4267,0.3241l-0.04311,0.00601l-0.45009,0.065l-1.12248,0.31369l-0.59743,0.16721l-0.0318,0.00999l-0.008,0.002l-0.08141,0.02431l-0.0593,0.0177l-0.57921,0.2654l-0.12779,0.06329l-0.03661,0.02341l-0.0495,0.03191l-1.15129,0.78749l1.411,2.8049l0.1517,0.30901l0.22159,0.46989l0.0755,0.1812l0.0791,0.22301l0.09299,0.26489l0.0401,0.1259l0.4958,2.0744l-0.06479,1.3215l-0.3237,0.1268l-0.01711,0.6196l2.2435,6.24879l0.84981,2.6405l0.2515,0.009l0.42621,-0.16492l0.23979,-0.08879l0.29851,-0.10962l2.7851,-0.90437l1.16341,-0.37891l0.6841,-0.2133l0.3633,-0.1792l2.17,-1.14032l0.2551,-0.14908l-0.00058,0.00002z" stroke-width="0.1"/>
    </g>
    <g stroke-miterlimit="4" transform="matrix(40,0,0,40,-5779.0876,-3401.9879)" id="VILLA_BASILICA" stroke-linejoin="round" stroke-width="0.1" stroke="#000000" fill="#f8c300">
      <path stroke-miterlimit="4" id="path875" d="m233.0826,175.62759l1.65091,-1.1366l0.07341,-0.05719l0.50571,-1.41641l1.90039,-7.35301l0.1402,-1.61278l-0.25519,-1.12282l0.0638,-4.1976l0.64799,-0.93489l-0.77379,-0.3071l-1.53761,0.12949l-4.62839,0.82201l-2.46129,1.52499l-1.09752,1.3383l-0.3208,0.82269l-0.9339,1.2556l-0.34059,0.41582l-0.71849,0.79939l-1.85602,0.74359l0.694,2.59581l0.19861,1.49332l0.1875,1.04738l2.57019,0.30191l0.4135,0.5625l0.04871,0.07919l0.50717,0.9166l-0.006,0.0695l-0.0105,0.08681l-0.0325,0.0929l-0.03189,0.06461l-0.04991,0.0882l-0.04469,0.0513l-0.17891,0.1922l-0.0737,0.0769l-0.06241,0.0553l0.24071,0.88971l1.72099,0.38359l2.75821,0.8154l1.0918,0.4234l0.00031,0z" stroke-width="0.1"/>
    </g>
    <g stroke-miterlimit="4" transform="matrix(40,0,0,40,-5779.0876,-3401.9879)" id="VILLA_COLLEMANDINA" stroke-linejoin="round" stroke-width="0.1" stroke="#000000" fill="#f8c300">
      <path stroke-miterlimit="4" id="path878" d="m185.75549,118.2009l0.7028,-0.1264l0.06891,-0.3055l0.02959,-0.06689l0.08221,-0.1834l0.03639,-0.069l0.05141,-0.0535l0.0732,-0.0401l0.0883,-0.0246l0.10307,-0.003l0.6606,0.0393l0.64801,0.124l0.39189,0.0674l1.3228,-0.9192l0.0977,-0.0723l0.10971,-0.1134l0.03839,-0.0624l0.03191,-0.069l0.03661,-0.0799l0.0685,-0.1543l0.0321,-0.0734l0.0255,-0.0778l0.00499,-0.0278l0.007,-0.0416l-0.008,-0.54591l0.16049,-1.76939l0.96271,-3.8204l0.0414,-0.1037l0.0383,-0.0537l2.31601,-2.9948l0.35748,-0.4527l0.36913,-0.3676l0.29887,-0.2471l0.104,-0.0352l0.42532,-3.1749l-0.1342,-1.7375l0.01039,-0.0889l0.02501,-0.1801l0.03169,-0.1734l0.0215,-0.09531l0.05301,-0.1404l0.05469,-0.1056l0.0636,-0.1142l0.03851,-0.0645l0.0739,-0.07491l-0.91791,-0.1984l-2.71179,-1.88821l-0.06691,-0.075l-0.11409,-0.1589l-1.44411,0.97169l-0.2984,0.8452l-0.1152,0.3133l-0.34599,0.4203l-4.3546,2.7333l-0.38071,0.0198l-0.46329,0.0902l-0.22971,0.057l-0.0818,0.0313l-0.07559,0.04659l-0.0979,0.068l-0.07811,0.0726l-0.0648,0.0642l-0.0761,0.077l-0.2162,0.3074l-1.34009,4.529l-0.0164,0.06281l-0.02879,0.1474l-0.0192,0.2323l-0.00601,0.07169l-0.004,0.1021l0.0394,1.1966l0.02051,0.2178l0.25481,1.4501l0.02631,0.1309l0.3687,0.8171l0.08521,0.1634l0.82718,1.2421l0.72942,0.79919l0.39749,0.2632l0.089,0.06451l0.7614,1.59769l0.0007,0.0153l0.002,0.0587l-0.0217,1.1478l-0.0491,0.5656l0.00098,0.00032z" stroke-width="0.1"/>
    </g>
  </g>
</svg>