<?xml version="1.0" encoding="UTF-8" standalone="no"?>
<svg
   xmlns:dc="http://purl.org/dc/elements/1.1/"
   xmlns:cc="http://creativecommons.org/ns#"
   xmlns:rdf="http://www.w3.org/1999/02/22-rdf-syntax-ns#"
   xmlns:svg="http://www.w3.org/2000/svg"
   xmlns="http://www.w3.org/2000/svg"
   width="4420"
   height="5000"
   viewBox="0 0 4420 5000"
   id="svg8923"
   version="1.1">
  <title
     id="title14542">STS-105 Insignia</title>
  <metadata
     id="metadata8928">
    <rdf:RDF>
      <cc:Work
         rdf:about="">
        <dc:format>image/svg+xml</dc:format>
        <dc:type
           rdf:resource="http://purl.org/dc/dcmitype/StillImage" />
        <dc:title>STS-105 Insignia</dc:title>
      </cc:Work>
    </rdf:RDF>
  </metadata>
  <g
     id="layer1"
     transform="translate(0,3947.6378)">
    <g
       id="g14252">
      <g
         id="g4344"
         transform="matrix(78.201754,0,0,-78.201754,-9735.2397,23664.509)">
        <g
           id="g4346">
          <g
             transform="translate(180.0021,302.5782)"
             id="g4352">
            <path
               id="path4354"
               style="fill:#00003e;fill-opacity:1;fill-rule:evenodd;stroke:none"
               d="m 0,0 c -7.132,-7.811 -16.725,-12.608 -27.253,-12.608 -10.527,0 -20.121,4.797 -27.253,12.608 l 22.414,28.229 9.636,0.043 L 0,0 Z" />
          </g>
        </g>
      </g>
      <g
         id="g4356"
         transform="matrix(78.201754,0,0,-78.201754,-9735.2397,23664.509)">
        <g
           id="g4358">
          <g
             transform="translate(180.0021,302.5782)"
             id="g4364">
            <path
               id="path4366"
               style="fill:none;stroke:#d60000;stroke-width:1.06099999;stroke-linecap:butt;stroke-linejoin:miter;stroke-miterlimit:14.30000019;stroke-dasharray:none;stroke-opacity:1"
               d="m 0,0 c -7.132,-7.811 -16.725,-12.608 -27.253,-12.608 -10.527,0 -20.121,4.797 -27.253,12.608 l 22.414,28.229 9.636,0.043 L 0,0 Z" />
          </g>
        </g>
      </g>
      <g
         id="g4368"
         transform="matrix(78.201754,0,0,-78.201754,-9735.2397,23664.509)">
        <g
           id="g4370">
          <g
             transform="translate(137.8711,297.7508)"
             id="g4376">
            <path
               id="path4378"
               style="fill:#ffcf00;fill-opacity:1;fill-rule:evenodd;stroke:none"
               d="M 0,0 -1.15,-1.124 -0.785,0.443 -1.154,0.651 -1.555,-1.472 -1.24,-1.65 0.369,-0.208 0,0 Z" />
          </g>
          <g
             transform="translate(138.4027,295.5089)"
             id="g4380">
            <path
               id="path4382"
               style="fill:#ffcf00;fill-opacity:1;fill-rule:evenodd;stroke:none"
               d="m 0,0 c -0.122,0.056 -0.229,0.148 -0.285,0.282 -0.071,0.168 -0.04,0.398 0.05,0.6 C -0.14,1.083 0.014,1.257 0.188,1.313 0.325,1.358 0.464,1.337 0.587,1.281 0.709,1.225 0.815,1.133 0.871,0.999 0.942,0.831 0.911,0.601 0.822,0.398 0.727,0.198 0.573,0.025 0.399,-0.031 0.261,-0.076 0.122,-0.056 0,0 M 1.189,0.23 C 1.318,0.511 1.344,0.838 1.254,1.099 1.172,1.331 0.977,1.507 0.74,1.615 0.503,1.724 0.243,1.757 0.013,1.667 -0.243,1.566 -0.474,1.332 -0.602,1.051 -0.731,0.77 -0.757,0.443 -0.667,0.182 -0.585,-0.05 -0.39,-0.226 -0.153,-0.334 0.084,-0.443 0.344,-0.476 0.573,-0.386 0.83,-0.284 1.061,-0.05 1.189,0.23" />
          </g>
          <g
             transform="translate(141.399,295.4377)"
             id="g4384">
            <path
               id="path4386"
               style="fill:#ffcf00;fill-opacity:1;fill-rule:evenodd;stroke:none"
               d="M 0,0 C 0.041,0.056 0.087,0.243 0.041,0.411 -0.048,0.72 -0.398,0.872 -0.5,0.914 -0.962,1.103 -1.272,0.969 -1.426,0.68 -1.583,0.386 -1.474,0.169 -1.298,0.015 c 0.211,-0.183 0.585,-0.336 0.656,-0.517 0.056,-0.132 -0.023,-0.272 -0.138,-0.316 -0.069,-0.027 -0.207,-0.016 -0.338,0.035 -0.132,0.048 -0.26,0.133 -0.31,0.257 -0.037,0.094 -0.021,0.178 -0.001,0.228 l -0.379,0.155 c -0.06,-0.185 -0.054,-0.406 0.065,-0.597 0.099,-0.159 0.314,-0.286 0.411,-0.323 0.212,-0.083 0.443,-0.147 0.647,-0.109 0.299,0.056 0.584,0.464 0.459,0.782 -0.07,0.171 -0.274,0.309 -0.37,0.37 -0.068,0.043 -0.403,0.246 -0.428,0.311 -0.072,0.069 -0.106,0.113 -0.042,0.239 0.077,0.15 0.243,0.158 0.432,0.078 0.266,-0.115 0.335,-0.307 0.268,-0.458 L 0,0 Z" />
          </g>
          <g
             transform="translate(143.0783,294.8738)"
             id="g4388">
            <path
               id="path4390"
               style="fill:#ffcf00;fill-opacity:1;fill-rule:evenodd;stroke:none"
               d="M 0,0 C 0.036,0.059 0.067,0.25 0.007,0.413 -0.107,0.714 -0.469,0.837 -0.573,0.87 -1.05,1.02 -1.347,0.861 -1.477,0.56 -1.609,0.255 -1.483,0.047 -1.295,-0.092 c 0.225,-0.165 0.61,-0.287 0.697,-0.461 0.066,-0.127 -0.001,-0.273 -0.112,-0.327 -0.066,-0.032 -0.205,-0.032 -0.339,0.007 -0.136,0.037 -0.271,0.112 -0.331,0.231 -0.045,0.091 -0.036,0.176 -0.019,0.227 l -0.391,0.123 c -0.045,-0.188 -0.02,-0.408 0.114,-0.589 0.112,-0.15 0.336,-0.259 0.436,-0.288 0.218,-0.065 0.454,-0.11 0.653,-0.056 0.294,0.081 0.544,0.511 0.394,0.818 -0.084,0.165 -0.299,0.285 -0.4,0.338 -0.07,0.037 -0.421,0.212 -0.452,0.275 -0.077,0.063 -0.114,0.104 -0.061,0.234 0.064,0.157 0.23,0.178 0.424,0.114 0.274,-0.093 0.36,-0.279 0.305,-0.435 L 0,0 Z" />
          </g>
          <g
             transform="translate(147.8431,294.3538)"
             id="g4392">
            <path
               id="path4394"
               style="fill:#ffcf00;fill-opacity:1;fill-rule:evenodd;stroke:none"
               d="m 0,0 -0.447,0.083 -0.559,-1.01 -0.159,1.143 -0.447,0.083 0.3,-1.614 c 0,0 -0.045,-0.166 -0.224,-0.133 -0.075,0.014 -0.17,0.069 -0.17,0.069 L -1.77,-1.724 c 0,0 0.07,-0.05 0.189,-0.072 0.213,-0.04 0.444,-0.057 0.599,0.197 L 0,0 Z" />
          </g>
          <g
             transform="translate(149.1525,293.575)"
             id="g4396">
            <path
               id="path4398"
               style="fill:#ffcf00;fill-opacity:1;fill-rule:evenodd;stroke:none"
               d="m 0,0 0.417,-0.06 c 0,0 0.012,0.656 -0.722,0.762 -0.555,0.079 -0.981,-0.259 -1.075,-0.909 -0.093,-0.65 0.215,-1.094 0.776,-1.175 0.722,-0.104 0.946,0.666 0.946,0.666 l -0.411,0.059 c 0,0 -0.11,-0.432 -0.485,-0.378 -0.375,0.054 -0.463,0.393 -0.409,0.768 0.054,0.375 0.233,0.675 0.608,0.621 C 0.02,0.301 0,0 0,0" />
          </g>
          <g
             transform="translate(150.3319,292.9012)"
             id="g4400">
            <path
               id="path4402"
               style="fill:#ffcf00;fill-opacity:1;fill-rule:evenodd;stroke:none"
               d="M 0,0 0.295,0.727 0.499,-0.031 0,0 Z m -0.33,-0.804 0.195,0.475 0.728,-0.045 0.133,-0.494 0.448,-0.028 -0.611,2.045 -0.435,0.027 -0.893,-1.953 0.435,-0.027 z" />
          </g>
          <g
             transform="translate(153.0447,291.9797)"
             id="g4404">
            <path
               id="path4406"
               style="fill:#ffcf00;fill-opacity:1;fill-rule:evenodd;stroke:none"
               d="M 0,0 0.041,2.004 -0.374,2.012 -0.388,1.336 C -0.391,1.195 -0.539,1.106 -0.691,1.109 -0.836,1.112 -0.918,1.26 -0.914,1.428 L -0.902,2.023 -1.317,2.031 -1.33,1.408 c -0.007,-0.348 0.139,-0.615 0.554,-0.623 0.25,-0.005 0.38,0.161 0.38,0.161 L -0.415,0.009 0,0 Z" />
          </g>
          <g
             transform="translate(153.4672,294.0034)"
             id="g4408">
            <path
               id="path4410"
               style="fill:#ffcf00;fill-opacity:1;fill-rule:evenodd;stroke:none"
               d="m 0,0 0.041,-2.004 1.493,0.031 -0.007,0.337 -1.078,-0.023 -0.011,0.556 0.965,0.02 -0.007,0.337 -0.965,-0.02 -0.009,0.438 1.055,0.021 L 1.47,0.03 0,0 Z" />
          </g>
          <g
             transform="translate(155.7722,292.452)"
             id="g4412">
            <path
               id="path4414"
               style="fill:#ffcf00;fill-opacity:1;fill-rule:evenodd;stroke:none"
               d="M 0,0 -0.056,0.547 0.357,0.59 C 0.609,0.615 0.798,0.612 0.825,0.352 0.846,0.143 0.637,0.065 0.394,0.04 L 0,0 Z M -0.09,0.882 -0.135,1.323 0.306,1.369 C 0.565,1.395 0.663,1.329 0.676,1.198 0.692,1.044 0.594,0.952 0.351,0.927 L -0.09,0.882 Z m -0.493,0.734 0.204,-1.993 0.947,0.096 C 1.012,-0.235 1.277,0.012 1.239,0.381 1.204,0.727 0.955,0.817 0.817,0.837 0.979,0.91 1.076,1.095 1.056,1.287 1.023,1.608 0.746,1.752 0.369,1.714 L -0.583,1.616 Z" />
          </g>
          <g
             transform="translate(160.493,292.8296)"
             id="g4416">
            <path
               id="path4418"
               style="fill:#ffcf00;fill-opacity:1;fill-rule:evenodd;stroke:none"
               d="M 0,0 0.406,0.11 0.164,1.004 0.947,1.216 1.189,0.322 1.596,0.433 1.06,2.407 0.654,2.297 0.855,1.555 0.072,1.343 -0.129,2.085 -0.536,1.975 0,0 Z" />
          </g>
          <g
             transform="translate(161.8783,295.3262)"
             id="g4420">
            <path
               id="path4422"
               style="fill:#ffcf00;fill-opacity:1;fill-rule:evenodd;stroke:none"
               d="M 0,0 0.616,-1.951 2.075,-1.491 1.969,-1.156 0.912,-1.49 0.753,-0.987 1.687,-0.692 1.581,-0.357 0.647,-0.652 0.507,-0.208 1.519,0.111 1.413,0.446 0,0 Z" />
          </g>
          <g
             transform="translate(163.5938,295.8945)"
             id="g4424">
            <path
               id="path4426"
               style="fill:#ffcf00;fill-opacity:1;fill-rule:evenodd;stroke:none"
               d="M 0,0 0.695,-1.924 2.012,-1.448 1.893,-1.119 0.972,-1.451 0.396,0.143 0,0 Z" />
          </g>
          <g
             transform="translate(166.964,295.0738)"
             id="g4428">
            <path
               id="path4430"
               style="fill:#ffcf00;fill-opacity:1;fill-rule:evenodd;stroke:none"
               d="M 0,0 -0.358,1.658 0.332,0.152 0.715,0.327 -0.137,2.188 -0.696,1.932 -0.389,0.344 -1.39,1.614 -1.949,1.358 -1.097,-0.503 -0.715,-0.327 -1.404,1.178 -0.383,-0.175 0,0 Z" />
          </g>
          <g
             transform="translate(168.6349,297.5504)"
             id="g4432">
            <path
               id="path4434"
               style="fill:#ffcf00;fill-opacity:1;fill-rule:evenodd;stroke:none"
               d="m 0,0 c -0.018,0.067 -0.137,0.219 -0.297,0.287 -0.298,0.122 -0.634,-0.058 -0.73,-0.112 -0.435,-0.246 -0.522,-0.572 -0.391,-0.872 0.133,-0.305 0.371,-0.355 0.601,-0.312 0.274,0.052 0.626,0.25 0.812,0.194 0.138,-0.038 0.2,-0.187 0.163,-0.305 -0.022,-0.07 -0.116,-0.171 -0.237,-0.243 -0.119,-0.073 -0.267,-0.121 -0.394,-0.084 -0.097,0.03 -0.153,0.095 -0.179,0.141 l -0.357,-0.201 c 0.107,-0.162 0.285,-0.294 0.508,-0.319 0.186,-0.021 0.419,0.069 0.508,0.122 0.197,0.114 0.391,0.256 0.487,0.439 0.141,0.27 -0.002,0.747 -0.328,0.846 -0.178,0.051 -0.413,-0.023 -0.52,-0.061 -0.076,-0.027 -0.443,-0.163 -0.51,-0.143 -0.098,-0.013 -0.154,-0.012 -0.213,0.116 -0.07,0.153 0.027,0.289 0.207,0.387 0.255,0.137 0.449,0.073 0.525,-0.075 L 0,0 Z" />
          </g>
          <g
             transform="translate(133.4771,305.5073)"
             id="g4436">
            <path
               id="path4438"
               style="fill:#ffcf00;fill-opacity:1;fill-rule:evenodd;stroke:none"
               d="m 0,0 -1.316,-1.528 1.104,-0.977 0.254,0.255 -0.849,0.722 0.383,0.424 0.721,-0.636 0.212,0.254 -0.721,0.637 0.297,0.34 0.806,-0.722 0.213,0.255 L 0,0 Z" />
          </g>
          <g
             transform="translate(134.49,302.0476)"
             id="g4440">
            <path
               id="path4442"
               style="fill:#ffcf00;fill-opacity:1;fill-rule:evenodd;stroke:none"
               d="M 0,0 0.404,0.567 0.344,0.937 -0.734,0.523 -1.125,0.801 0.281,1.285 0.095,2.393 0.491,2.111 0.684,0.96 1.163,1.632 1.501,1.391 1.022,0.719 2.173,0.913 2.569,0.631 1.461,0.445 1.463,-1.042 1.072,-0.764 1.112,0.39 0.742,0.326 0.338,-0.241 0,0 Z" />
          </g>
          <g
             transform="translate(138.4395,301.7947)"
             id="g4444">
            <path
               id="path4446"
               style="fill:#ffcf00;fill-opacity:1;fill-rule:evenodd;stroke:none"
               d="M 0,0 -0.383,0.245 -1.28,-0.48 -0.998,0.639 -1.381,0.884 -1.71,-0.725 c 0,0 -0.104,-0.137 -0.258,-0.038 -0.064,0.041 -0.132,0.127 -0.132,0.127 l -0.189,-0.295 c 0,0 0.047,-0.073 0.148,-0.138 0.182,-0.117 0.39,-0.22 0.629,-0.043 L 0,0 Z" />
          </g>
          <g
             transform="translate(138.4713,300.6996)"
             id="g4448">
            <path
               id="path4450"
               style="fill:#ffcf00;fill-opacity:1;fill-rule:evenodd;stroke:none"
               d="M 0,0 0.299,0.524 0.575,0.367 C 0.731,0.278 0.826,0.139 0.716,-0.053 0.606,-0.246 0.427,-0.244 0.251,-0.143 L 0,0 Z m 0.106,1.023 -0.994,-1.741 0.36,-0.206 0.361,0.632 0.341,-0.195 C 0.481,-0.663 0.888,-0.601 1.082,-0.262 1.275,0.077 1.161,0.42 0.849,0.598 L 0.106,1.023 Z" />
          </g>
          <g
             transform="translate(139.9276,299.845)"
             id="g4452">
            <path
               id="path4454"
               style="fill:#ffcf00;fill-opacity:1;fill-rule:evenodd;stroke:none"
               d="M 0,0 C 0.171,0.338 0.479,0.544 0.817,0.373 1.156,0.203 1.163,-0.163 0.992,-0.501 0.821,-0.839 0.523,-1.05 0.185,-0.879 -0.153,-0.709 -0.171,-0.338 0,0 M 1.368,-0.691 C 1.646,-0.14 1.527,0.408 0.976,0.686 0.424,0.965 -0.097,0.741 -0.376,0.19 -0.654,-0.361 -0.525,-0.914 0.027,-1.193 0.578,-1.471 1.09,-1.242 1.368,-0.691" />
          </g>
          <g
             transform="translate(141.6858,298.2933)"
             id="g4456">
            <path
               id="path4458"
               style="fill:#ffcf00;fill-opacity:1;fill-rule:evenodd;stroke:none"
               d="M 0,0 0.195,0.515 0.583,0.367 C 0.82,0.278 0.987,0.19 0.895,-0.054 0.82,-0.251 0.598,-0.227 0.37,-0.14 L 0,0 Z M 0.314,0.829 0.472,1.244 0.886,1.087 C 1.13,0.994 1.188,0.892 1.141,0.768 1.086,0.624 0.957,0.586 0.729,0.672 L 0.314,0.829 Z M 0.203,1.706 -0.508,-0.168 0.382,-0.505 C 0.799,-0.663 1.147,-0.561 1.278,-0.215 1.402,0.111 1.22,0.303 1.105,0.382 1.283,0.375 1.452,0.497 1.521,0.678 1.635,0.98 1.452,1.233 1.098,1.367 L 0.203,1.706 Z" />
          </g>
          <g
             transform="translate(146.7794,297.0693)"
             id="g4460">
            <path
               id="path4462"
               style="fill:#ffcf00;fill-opacity:1;fill-rule:evenodd;stroke:none"
               d="m 0,0 c -0.039,-0.083 -0.099,-0.282 -0.402,-0.287 -0.061,-0.002 -0.123,0.006 -0.177,0.023 -0.057,0.014 -0.106,0.038 -0.152,0.074 -0.088,0.072 -0.156,0.182 -0.183,0.343 -0.023,0.136 0.003,0.292 0.045,0.432 0.045,0.139 0.106,0.262 0.151,0.326 0.109,0.152 0.288,0.247 0.476,0.213 C 0.162,1.051 0.182,0.747 0.164,0.633 L 0.553,0.532 C 0.576,0.634 0.629,0.893 0.393,1.159 0.236,1.348 0.042,1.416 -0.099,1.452 -0.613,1.586 -0.924,1.356 -1.131,1.015 -1.193,0.913 -1.242,0.78 -1.276,0.647 -1.31,0.517 -1.326,0.387 -1.329,0.289 c -0.002,-0.446 0.232,-0.808 0.675,-0.908 0.247,-0.055 0.494,-0.021 0.635,0.041 0.179,0.078 0.353,0.277 0.407,0.477 L 0,0 Z" />
          </g>
          <g
             transform="translate(148.8023,298.0929)"
             id="g4464">
            <path
               id="path4466"
               style="fill:#ffcf00;fill-opacity:1;fill-rule:evenodd;stroke:none"
               d="m 0,0 -0.201,-1.403 c -0.018,-0.128 -0.105,-0.317 -0.435,-0.27 -0.339,0.049 -0.35,0.252 -0.337,0.38 l 0.201,1.404 -0.417,0.059 -0.2,-1.397 c -0.029,-0.2 0.02,-0.451 0.33,-0.686 0.105,-0.057 0.24,-0.102 0.382,-0.122 0.142,-0.021 0.293,-0.014 0.426,0.024 0.36,0.116 0.442,0.376 0.468,0.554 L 0.417,-0.06 0,0 Z" />
          </g>
          <g
             transform="translate(149.5337,297.9804)"
             id="g4468">
            <path
               id="path4470"
               style="fill:#ffcf00;fill-opacity:1;fill-rule:evenodd;stroke:none"
               d="M 0,0 -0.175,-2.039 1.221,-2.158 1.251,-1.809 0.275,-1.725 0.42,-0.036 0,0 Z" />
          </g>
          <g
             transform="translate(151.5318,296.6604)"
             id="g4472">
            <path
               id="path4474"
               style="fill:#ffcf00;fill-opacity:1;fill-rule:evenodd;stroke:none"
               d="M 0,0 0.572,-0.016 C 0.651,-0.019 0.81,-0.034 0.804,-0.264 0.796,-0.545 0.605,-0.545 0.479,-0.542 L -0.015,-0.527 0,0 Z m 0.023,0.816 0.5,-0.014 C 0.669,0.798 0.782,0.739 0.777,0.562 0.772,0.399 0.666,0.332 0.487,0.337 L 0.01,0.351 0.023,0.816 Z m -0.469,-1.682 0.923,-0.027 c 0.129,-0.003 0.357,0.01 0.501,0.127 C 1.165,-0.614 1.2,-0.447 1.203,-0.34 1.21,-0.096 1.092,0.087 0.974,0.183 1.126,0.302 1.176,0.475 1.18,0.598 1.182,0.682 1.156,1.135 0.457,1.155 l -0.845,0.024 -0.058,-2.045 z" />
          </g>
          <g
             transform="translate(153.0627,297.8039)"
             id="g4476">
            <path
               id="path4478"
               style="fill:#ffcf00;fill-opacity:1;fill-rule:evenodd;stroke:none"
               d="m 0,0 0.058,-2.045 1.529,0.043 -0.01,0.351 -1.108,-0.032 -0.015,0.528 0.979,0.028 -0.01,0.351 -0.979,-0.028 -0.013,0.465 1.06,0.031 -0.01,0.35 L 0,0 Z" />
          </g>
          <g
             transform="translate(155.2835,297.5716)"
             id="g4480">
            <path
               id="path4482"
               style="fill:#ffcf00;fill-opacity:1;fill-rule:evenodd;stroke:none"
               d="M 0,0 0.568,0.049 C 0.755,0.065 0.829,-0.013 0.842,-0.159 0.884,-0.358 0.717,-0.477 0.619,-0.485 L 0.046,-0.534 0,0 Z m -0.275,-1.725 0.42,0.036 -0.069,0.805 0.492,0.043 c 0.145,0.012 0.252,-0.047 0.269,-0.183 0.007,-0.149 0.021,-0.311 0.035,-0.411 0.012,-0.067 0.034,-0.127 0.073,-0.186 l 0.45,0.039 -0.007,0.076 C 1.341,-1.482 1.306,-1.46 1.296,-1.345 1.284,-1.242 1.255,-0.974 1.237,-0.891 1.199,-0.709 1.06,-0.67 0.986,-0.628 1.116,-0.535 1.2,-0.463 1.236,-0.283 1.271,-0.102 1.216,0.04 1.181,0.127 1.103,0.343 0.888,0.42 0.683,0.411 l -1.132,-0.097 0.174,-2.039 z" />
          </g>
          <g
             transform="translate(156.4592,298.0156)"
             id="g4484">
            <path
               id="path4486"
               style="fill:#ffcf00;fill-opacity:1;fill-rule:evenodd;stroke:none"
               d="M 0,0 0.069,-0.344 0.677,-0.222 1.011,-1.884 1.424,-1.801 1.09,-0.139 1.676,-0.021 1.607,0.323 0,0 Z" />
          </g>
          <g
             transform="translate(159.8248,298.1095)"
             id="g4488">
            <path
               id="path4490"
               style="fill:#ffcf00;fill-opacity:1;fill-rule:evenodd;stroke:none"
               d="M 0,0 C -0.001,0.069 -0.076,0.247 -0.214,0.354 -0.47,0.548 -0.841,0.46 -0.947,0.433 -1.431,0.308 -1.599,0.015 -1.549,-0.309 c 0.05,-0.329 0.267,-0.438 0.5,-0.456 0.278,-0.021 0.67,0.081 0.835,-0.021 0.123,-0.073 0.144,-0.232 0.079,-0.336 -0.039,-0.063 -0.156,-0.137 -0.291,-0.175 -0.135,-0.04 -0.289,-0.048 -0.403,0.021 -0.086,0.053 -0.124,0.13 -0.137,0.182 l -0.397,-0.103 c 0.062,-0.184 0.2,-0.357 0.41,-0.439 0.174,-0.068 0.422,-0.041 0.522,-0.012 0.219,0.059 0.443,0.146 0.584,0.299 0.205,0.224 0.189,0.721 -0.101,0.901 -0.158,0.096 -0.404,0.084 -0.518,0.075 -0.079,-0.006 -0.47,-0.044 -0.529,-0.007 -0.099,0.012 -0.152,0.028 -0.176,0.166 -0.029,0.167 0.1,0.273 0.299,0.322 0.282,0.067 0.453,-0.046 0.489,-0.207 L 0,0 Z" />
          </g>
          <g
             transform="translate(161.3155,297.3749)"
             id="g4492">
            <path
               id="path4494"
               style="fill:#ffcf00;fill-opacity:1;fill-rule:evenodd;stroke:none"
               d="m 0,0 c -0.128,-0.041 -0.269,-0.044 -0.4,0.017 -0.166,0.077 -0.298,0.268 -0.367,0.478 -0.065,0.212 -0.068,0.444 0.023,0.603 0.072,0.125 0.188,0.204 0.316,0.245 0.129,0.041 0.269,0.044 0.4,-0.017 C 0.138,1.249 0.27,1.058 0.34,0.848 0.404,0.636 0.408,0.404 0.317,0.245 0.245,0.119 0.128,0.041 0,0 M 0.725,0.97 C 0.631,1.264 0.431,1.525 0.188,1.657 -0.029,1.773 -0.291,1.772 -0.539,1.693 -0.788,1.614 -1.002,1.463 -1.112,1.243 -1.233,0.995 -1.246,0.666 -1.153,0.372 c 0.094,-0.294 0.295,-0.554 0.537,-0.686 0.217,-0.117 0.479,-0.115 0.728,-0.036 0.248,0.079 0.462,0.23 0.572,0.45 0.121,0.248 0.135,0.576 0.041,0.87" />
          </g>
          <g
             transform="translate(161.9103,299.4099)"
             id="g4496">
            <path
               id="path4498"
               style="fill:#ffcf00;fill-opacity:1;fill-rule:evenodd;stroke:none"
               d="m 0,0 0.725,-1.913 0.394,0.149 -0.505,1.333 1.279,-1.04 0.389,0.147 L 1.557,0.59 1.163,0.441 1.661,-0.874 0.388,0.147 0,0 Z" />
          </g>
          <g
             transform="translate(166.2089,300.9409)"
             id="g4500">
            <path
               id="path4502"
               style="fill:#ffcf00;fill-opacity:1;fill-rule:evenodd;stroke:none"
               d="M 0,0 0.827,-1.448 1.188,-1.242 0.361,0.206 0.86,0.491 0.693,0.784 -0.667,0.007 -0.5,-0.285 0,0 Z" />
          </g>
          <g
             transform="translate(168.2644,301.2006)"
             id="g4504">
            <path
               id="path4506"
               style="fill:#ffcf00;fill-opacity:1;fill-rule:evenodd;stroke:none"
               d="M 0,0 C 0.113,-0.177 0.642,-0.649 1.299,-0.228 1.819,0.105 1.883,0.661 1.55,1.182 1.217,1.702 0.685,1.878 0.164,1.545 -0.531,1.1 -0.251,0.392 -0.181,0.284 l -0.228,-0.146 -0.444,0.696 -0.35,-0.224 1.08,-1.688 0.35,0.224 -0.454,0.709 L 0,0 Z M 0.259,0.356 C 0.055,0.675 0.034,1.045 0.354,1.249 0.673,1.454 0.991,1.274 1.195,0.955 1.399,0.636 1.429,0.271 1.11,0.067 0.791,-0.137 0.463,0.036 0.259,0.356" />
          </g>
          <g
             transform="translate(170.3073,302.8756)"
             id="g4508">
            <path
               id="path4510"
               style="fill:#ffcf00;fill-opacity:1;fill-rule:evenodd;stroke:none"
               d="m 0,0 -0.374,0.474 0.25,0.196 C 0.017,0.781 0.181,0.818 0.318,0.644 0.455,0.47 0.386,0.304 0.227,0.179 L 0,0 Z m -0.908,0.481 1.24,-1.574 0.326,0.257 -0.449,0.571 0.308,0.244 C 0.795,0.198 0.89,0.598 0.649,0.904 0.407,1.211 0.046,1.234 -0.236,1.011 l -0.672,-0.53 z" />
          </g>
          <g
             transform="translate(170.7905,304.446)"
             id="g4512">
            <path
               id="path4514"
               style="fill:#ffcf00;fill-opacity:1;fill-rule:evenodd;stroke:none"
               d="M 0,0 1.316,-1.528 1.613,-1.231 1.316,0.212 2.165,-0.764 2.505,-0.509 1.189,1.019 0.849,0.722 1.146,-0.722 0.297,0.255 0,0 Z" />
          </g>
          <g
             transform="translate(173.8469,305.7195)"
             id="g4516">
            <path
               id="path4518"
               style="fill:#ffcf00;fill-opacity:1;fill-rule:evenodd;stroke:none"
               d="M 0,0 0.594,-0.679 0.891,-0.382 -0.467,1.061 -0.807,0.807 -0.255,0.212 -0.764,-0.297 -1.316,0.297 -1.613,0 -0.212,-1.443 0.085,-1.146 -0.552,-0.509 0,0 Z" />
          </g>
          <g
             transform="translate(131.6518,304.9554)"
             id="g4520">
            <path
               id="path4522"
               style="fill:#ffcf00;fill-opacity:1;fill-rule:evenodd;stroke:none"
               d="m 0,0 -0.552,0.509 c 0,0 0.297,-0.042 0.637,0.34 L 0.552,1.316 0.934,0.934 0,0 Z M 0.509,1.825 -0.212,1.146 C -0.424,0.891 -0.849,0.807 -0.934,0.891 l -0.509,-0.509 0.254,-0.255 0.298,0.297 0.849,-0.891 -0.298,-0.297 0.255,-0.212 0.552,0.509 -0.17,0.17 1.146,1.188 -0.934,0.934 z" />
          </g>
          <g
             transform="translate(179.4078,326.1379)"
             id="g4524">
            <path
               id="path4526"
               style="fill:#d60000;fill-opacity:1;fill-rule:evenodd;stroke:none"
               d="m 0,0 c 0,-14.56 -11.971,-26.574 -26.531,-26.574 -14.603,0 -26.574,12.014 -26.574,26.574 0,14.56 11.971,26.574 26.574,26.574 C -11.971,26.574 0,14.56 0,0" />
          </g>
        </g>
      </g>
      <g
         id="g4528"
         transform="matrix(78.201754,0,0,-78.201754,-9735.2397,23664.509)">
        <g
           id="g4530">
          <g
             transform="translate(179.4078,326.1379)"
             id="g4536">
            <path
               id="path4538"
               style="fill:none;stroke:#d60000;stroke-width:0.177;stroke-linecap:butt;stroke-linejoin:miter;stroke-miterlimit:11.5;stroke-dasharray:none;stroke-opacity:1"
               d="m 0,0 c 0,-14.56 -11.971,-26.574 -26.531,-26.574 -14.603,0 -26.574,12.014 -26.574,26.574 0,14.56 11.971,26.574 26.574,26.574 C -11.971,26.574 0,14.56 0,0 Z" />
          </g>
        </g>
      </g>
      <g
         id="g4540"
         transform="matrix(78.201754,0,0,-78.201754,-9735.2397,23664.509)">
        <g
           id="g4542">
          <g
             transform="translate(178.2617,326.1379)"
             id="g4548">
            <path
               id="path4550"
               style="fill:#00003e;fill-opacity:1;fill-rule:evenodd;stroke:none"
               d="m 0,0 c 0,-13.924 -11.461,-25.385 -25.385,-25.385 -13.924,0 -25.385,11.461 -25.385,25.385 0,13.924 11.461,25.385 25.385,25.385 C -11.461,25.385 0,13.924 0,0" />
          </g>
          <g
             transform="translate(178.2617,326.1379)"
             id="g4552">
            <path
               id="path4554"
               style="fill:none;stroke:#00003e;stroke-width:0.177;stroke-linecap:butt;stroke-linejoin:miter;stroke-miterlimit:11.5;stroke-dasharray:none;stroke-opacity:1"
               d="m 0,0 c 0,-13.924 -11.461,-25.385 -25.385,-25.385 -13.924,0 -25.385,11.461 -25.385,25.385 0,13.924 11.461,25.385 25.385,25.385 C -11.461,25.385 0,13.924 0,0 Z" />
          </g>
        </g>
      </g>
      <g
         id="g4916"
         transform="matrix(78.201754,0,0,-78.201754,-9735.2397,23664.509)">
        <g
           id="g4918">
          <g
             transform="translate(133.9461,310.5668)"
             id="g4924">
            <path
               id="path4926"
               style="fill:#ffcf00;fill-opacity:1;fill-rule:evenodd;stroke:none"
               d="m 0,0 c -0.203,0.241 -0.278,0.463 -0.23,0.679 0.031,0.131 0.102,0.243 0.217,0.343 0.118,0.103 0.236,0.154 0.36,0.157 C 0.416,1.181 0.494,1.164 0.583,1.128 0.533,1.258 0.526,1.379 0.56,1.497 0.594,1.616 0.665,1.72 0.777,1.817 0.892,1.917 1.017,1.976 1.158,1.997 1.251,2.012 1.339,2.011 1.428,1.991 1.53,1.97 1.623,1.926 1.714,1.856 1.805,1.787 1.892,1.705 1.978,1.606 L 2.734,0.734 0.81,-0.934 0,0 Z M 1.554,0.383 2.067,0.828 1.657,1.3 C 1.583,1.385 1.516,1.44 1.452,1.468 1.336,1.517 1.221,1.491 1.101,1.387 1.001,1.3 0.968,1.201 1.003,1.085 1.022,1.02 1.067,0.947 1.139,0.862 L 1.554,0.383 Z M 0.812,-0.261 1.236,0.107 0.826,0.579 C 0.752,0.664 0.678,0.718 0.6,0.743 0.522,0.769 0.444,0.747 0.363,0.676 0.272,0.597 0.244,0.513 0.276,0.417 0.308,0.34 0.364,0.256 0.445,0.162 l 0.367,-0.423 z" />
          </g>
          <g
             transform="translate(132.3194,312.7873)"
             id="g4928">
            <path
               id="path4930"
               style="fill:#ffcf00;fill-opacity:1;fill-rule:evenodd;stroke:none"
               d="M 0,0 -0.325,0.505 1.328,2.642 1.64,2.156 1.289,1.735 1.796,0.947 2.332,1.082 2.633,0.614 0,0 Z M 1.35,0.83 1,1.373 0.33,0.563 1.35,0.83 Z" />
          </g>
          <g
             transform="translate(130.4919,316.1245)"
             id="g4932">
            <path
               id="path4934"
               style="fill:#ffcf00;fill-opacity:1;fill-rule:evenodd;stroke:none"
               d="m 0,0 c -0.071,0.165 -0.108,0.297 -0.111,0.402 -0.003,0.105 0.017,0.202 0.061,0.296 0.036,0.078 0.082,0.146 0.14,0.208 0.059,0.063 0.132,0.114 0.224,0.155 0.111,0.051 0.23,0.072 0.363,0.065 0.132,-0.007 0.247,-0.064 0.35,-0.173 -0.005,0.128 0.021,0.23 0.08,0.311 0.059,0.081 0.168,0.157 0.332,0.232 l 0.156,0.071 c 0.106,0.048 0.175,0.084 0.209,0.11 0.055,0.04 0.085,0.089 0.092,0.148 L 1.954,1.852 2.197,1.319 C 2.152,1.28 2.116,1.252 2.087,1.231 2.027,1.188 1.965,1.152 1.897,1.12 L 1.683,1.018 C 1.535,0.948 1.45,0.878 1.424,0.803 1.398,0.728 1.418,0.621 1.483,0.478 L 1.711,-0.022 2.619,0.391 2.835,-0.082 0.517,-1.137 0,0 Z m 0.704,-0.48 0.623,0.283 -0.25,0.549 C 1.027,0.462 0.978,0.536 0.928,0.58 0.839,0.657 0.732,0.665 0.601,0.606 0.46,0.541 0.388,0.453 0.382,0.337 0.378,0.272 0.4,0.188 0.448,0.083 L 0.704,-0.48 Z" />
          </g>
          <g
             transform="translate(129.3534,319.2021)"
             id="g4936">
            <path
               id="path4938"
               style="fill:#ffcf00;fill-opacity:1;fill-rule:evenodd;stroke:none"
               d="M 0,0 C -0.046,0.174 -0.063,0.31 -0.05,0.414 -0.038,0.518 -0.004,0.612 0.053,0.698 0.1,0.77 0.156,0.83 0.223,0.883 0.29,0.936 0.37,0.976 0.467,1.004 c 0.117,0.033 0.238,0.037 0.368,0.01 0.13,-0.027 0.236,-0.1 0.322,-0.222 0.013,0.127 0.054,0.223 0.124,0.295 0.071,0.072 0.19,0.131 0.363,0.18 l 0.164,0.047 c 0.113,0.033 0.186,0.059 0.224,0.079 0.06,0.032 0.097,0.075 0.113,0.133 L 2.206,1.544 2.367,0.981 C 2.317,0.949 2.277,0.926 2.246,0.91 2.18,0.877 2.113,0.85 2.041,0.828 L 1.815,0.759 C 1.658,0.712 1.564,0.654 1.527,0.584 1.49,0.514 1.494,0.406 1.537,0.254 L 1.689,-0.274 2.648,0.001 2.792,-0.499 0.344,-1.2 0,0 Z M 0.626,-0.579 1.283,-0.39 1.117,0.189 C 1.084,0.305 1.047,0.386 1.003,0.437 0.927,0.526 0.822,0.55 0.684,0.51 0.534,0.468 0.45,0.391 0.427,0.277 0.414,0.213 0.424,0.127 0.456,0.016 l 0.17,-0.595 z" />
          </g>
          <g
             transform="translate(128.6201,322.4747)"
             id="g4940">
            <path
               id="path4942"
               style="fill:#ffcf00;fill-opacity:1;fill-rule:evenodd;stroke:none"
               d="M 0,0 -0.107,0.593 1.608,0.038 2.55,0.208 2.644,-0.316 1.703,-0.486 0.295,-1.635 0.184,-1.018 1.181,-0.301 0,0 Z" />
          </g>
          <g
             transform="translate(131.158,329.5146)"
             id="g4944">
            <path
               id="path4946"
               style="fill:#ffcf00;fill-opacity:1;fill-rule:evenodd;stroke:none"
               d="m 0,0 -2.479,0.578 0.119,0.513 0.946,-0.22 0.226,0.969 -0.946,0.22 0.12,0.515 L 0.466,1.997 0.346,1.482 -0.761,1.74 -0.987,0.771 0.12,0.513 0,0 Z" />
          </g>
          <g
             transform="translate(131.4085,334.9726)"
             id="g4948">
            <path
               id="path4950"
               style="fill:#ffcf00;fill-opacity:1;fill-rule:evenodd;stroke:none"
               d="M 0,0 C 0.436,-0.149 0.721,-0.38 0.869,-0.704 0.996,-0.952 1,-1.242 0.881,-1.589 0.763,-1.936 0.582,-2.164 0.331,-2.283 0.015,-2.45 -0.352,-2.459 -0.788,-2.31 c -0.445,0.152 -0.73,0.383 -0.869,0.706 -0.127,0.247 -0.13,0.538 -0.012,0.885 0.118,0.347 0.299,0.575 0.551,0.694 C -0.812,0.143 -0.445,0.152 0,0 m 0.455,-1.444 c 0.068,0.201 0.049,0.382 -0.059,0.55 -0.108,0.169 -0.294,0.297 -0.568,0.39 -0.272,0.093 -0.498,0.106 -0.687,0.039 -0.189,-0.068 -0.315,-0.199 -0.383,-0.4 -0.069,-0.201 -0.05,-0.382 0.057,-0.552 0.108,-0.171 0.294,-0.299 0.567,-0.393 0.274,-0.093 0.5,-0.105 0.689,-0.036 0.189,0.069 0.315,0.201 0.384,0.402" />
          </g>
          <g
             transform="translate(131.2945,337.5214)"
             id="g4952">
            <path
               id="path4954"
               style="fill:#ffcf00;fill-opacity:1;fill-rule:evenodd;stroke:none"
               d="M 0,0 C 0.085,0.158 0.167,0.269 0.247,0.336 0.327,0.404 0.416,0.448 0.517,0.472 0.6,0.492 0.683,0.498 0.768,0.491 0.853,0.483 0.938,0.457 1.028,0.411 1.136,0.355 1.226,0.275 1.303,0.166 1.379,0.058 1.406,-0.068 1.385,-0.216 c 0.096,0.083 0.193,0.126 0.293,0.13 0.101,0.003 0.228,-0.035 0.388,-0.117 l 0.152,-0.079 c 0.104,-0.053 0.175,-0.085 0.216,-0.096 0.065,-0.018 0.122,-0.011 0.174,0.02 l 0.056,-0.03 -0.268,-0.52 c -0.058,0.012 -0.103,0.022 -0.137,0.032 -0.07,0.02 -0.138,0.047 -0.205,0.08 L 1.842,-0.69 C 1.695,-0.618 1.587,-0.595 1.512,-0.621 1.438,-0.647 1.366,-0.728 1.294,-0.868 L 1.042,-1.357 1.929,-1.814 1.691,-2.276 -0.572,-1.11 0,0 Z m 0.059,-0.85 0.608,-0.314 0.276,0.536 c 0.056,0.107 0.084,0.192 0.087,0.259 0.006,0.117 -0.054,0.206 -0.182,0.272 C 0.71,-0.026 0.596,-0.024 0.501,-0.091 0.448,-0.129 0.396,-0.198 0.342,-0.301 L 0.059,-0.85 Z" />
          </g>
          <g
             transform="translate(134.7121,340.4305)"
             id="g4956">
            <path
               id="path4958"
               style="fill:#ffcf00;fill-opacity:1;fill-rule:evenodd;stroke:none"
               d="M 0,0 C 0.375,-0.268 0.582,-0.571 0.631,-0.923 0.681,-1.197 0.602,-1.477 0.389,-1.775 0.176,-2.074 -0.063,-2.24 -0.338,-2.282 c -0.35,-0.069 -0.704,0.027 -1.079,0.295 -0.383,0.273 -0.59,0.576 -0.631,0.925 -0.05,0.274 0.03,0.553 0.243,0.852 0.213,0.298 0.451,0.464 0.726,0.506 C -0.737,0.37 -0.383,0.273 0,0 m 0.022,-1.513 c 0.123,0.173 0.156,0.351 0.101,0.544 -0.055,0.192 -0.197,0.368 -0.432,0.536 -0.234,0.167 -0.447,0.244 -0.647,0.233 -0.201,-0.01 -0.359,-0.099 -0.482,-0.272 -0.123,-0.173 -0.157,-0.352 -0.103,-0.546 0.054,-0.194 0.195,-0.371 0.431,-0.539 0.235,-0.167 0.448,-0.244 0.649,-0.232 0.201,0.012 0.359,0.103 0.483,0.276" />
          </g>
          <g
             transform="translate(134.653,342.2693)"
             id="g4960">
            <path
               id="path4962"
               style="fill:#ffcf00;fill-opacity:1;fill-rule:evenodd;stroke:none"
               d="M 0,0 1.287,-0.762 1.631,-0.99 1.395,-0.662 0.532,0.557 0.919,0.964 2.183,0.176 2.53,-0.048 2.301,0.278 1.47,1.541 1.843,1.932 3.191,-0.344 2.84,-0.711 1.551,0.094 1.132,0.369 1.427,-0.036 2.292,-1.286 1.951,-1.644 -0.39,-0.409 0,0 Z" />
          </g>
          <g
             transform="translate(139.2964,343.1211)"
             id="g4964">
            <path
               id="path4966"
               style="fill:#ffcf00;fill-opacity:1;fill-rule:evenodd;stroke:none"
               d="m 0,0 -0.415,-0.327 -1.576,2 L -1.575,2 0,0 Z" />
          </g>
          <g
             transform="translate(140.1315,346.8037)"
             id="g4968">
            <path
               id="path4970"
               style="fill:#ffcf00;fill-opacity:1;fill-rule:evenodd;stroke:none"
               d="M 0,0 0.244,-0.379 -0.396,-0.791 0.738,-2.553 0.287,-2.843 -0.847,-1.081 -1.49,-1.495 -1.734,-1.116 0,0 Z" />
          </g>
          <g
             transform="translate(141.7159,345.32)"
             id="g4972">
            <path
               id="path4974"
               style="fill:#ffcf00;fill-opacity:1;fill-rule:evenodd;stroke:none"
               d="M 0,0 0.415,2.065 -0.725,1.478 -0.931,1.879 0.798,2.77 0.993,2.391 0.574,0.296 1.761,0.907 1.967,0.508 0.206,-0.399 0,0 Z" />
          </g>
          <g
             transform="translate(149.7592,348.3685)"
             id="g4976">
            <path
               id="path4978"
               style="fill:#ffcf00;fill-opacity:1;fill-rule:evenodd;stroke:none"
               d="m 0,0 c 0.031,-0.114 0.073,-0.195 0.128,-0.247 0.099,-0.093 0.25,-0.126 0.46,-0.099 0.125,0.016 0.223,0.043 0.298,0.08 0.141,0.072 0.202,0.178 0.183,0.322 C 1.058,0.14 1.014,0.199 0.935,0.235 0.855,0.271 0.737,0.295 0.575,0.309 L 0.3,0.335 C 0.028,0.36 -0.159,0.401 -0.27,0.458 -0.456,0.553 -0.563,0.722 -0.595,0.972 -0.625,1.2 -0.567,1.395 -0.421,1.567 -0.275,1.739 -0.046,1.844 0.275,1.885 0.543,1.919 0.775,1.879 0.983,1.761 1.191,1.643 1.313,1.454 1.358,1.185 L 0.85,1.12 C 0.822,1.271 0.743,1.369 0.61,1.418 0.522,1.45 0.418,1.457 0.295,1.442 0.158,1.424 0.055,1.383 -0.02,1.318 -0.094,1.252 -0.125,1.171 -0.112,1.072 -0.1,0.981 -0.052,0.92 0.034,0.886 0.09,0.862 0.202,0.842 0.377,0.823 L 0.825,0.775 C 1.023,0.754 1.173,0.712 1.28,0.647 1.448,0.547 1.544,0.387 1.573,0.161 1.603,-0.072 1.54,-0.272 1.382,-0.448 1.224,-0.625 0.988,-0.731 0.664,-0.773 0.332,-0.816 0.068,-0.775 -0.141,-0.648 -0.351,-0.521 -0.47,-0.33 -0.504,-0.065 L 0,0 Z" />
          </g>
          <g
             transform="translate(154.0934,350.2919)"
             id="g4980">
            <path
               id="path4982"
               style="fill:#ffcf00;fill-opacity:1;fill-rule:evenodd;stroke:none"
               d="m 0,0 -0.012,-0.451 -0.761,0.02 -0.054,-2.095 -0.535,0.014 0.054,2.095 -0.765,0.019 0.011,0.451 L 0,0 Z" />
          </g>
          <g
             transform="translate(155.0166,350.2198)"
             id="g4984">
            <path
               id="path4986"
               style="fill:#ffcf00;fill-opacity:1;fill-rule:evenodd;stroke:none"
               d="m 0,0 0.536,-0.069 -0.2,-1.552 C 0.314,-1.796 0.318,-1.923 0.349,-2.009 0.395,-2.16 0.524,-2.248 0.74,-2.276 c 0.215,-0.027 0.361,0.025 0.443,0.159 0.052,0.076 0.089,0.198 0.111,0.373 l 0.2,1.552 0.536,-0.069 -0.2,-1.552 C 1.796,-2.084 1.728,-2.284 1.625,-2.424 1.433,-2.68 1.124,-2.778 0.683,-2.721 c -0.441,0.057 -0.716,0.229 -0.838,0.526 -0.065,0.161 -0.08,0.372 -0.045,0.643 L 0,0 Z" />
          </g>
          <g
             transform="translate(159.4795,349.3442)"
             id="g4988">
            <path
               id="path4990"
               style="fill:#ffcf00;fill-opacity:1;fill-rule:evenodd;stroke:none"
               d="M 0,0 C 0.172,-0.053 0.296,-0.111 0.378,-0.177 0.46,-0.242 0.521,-0.321 0.564,-0.415 0.599,-0.493 0.622,-0.572 0.631,-0.657 0.64,-0.742 0.632,-0.831 0.604,-0.928 0.57,-1.045 0.509,-1.149 0.417,-1.245 0.326,-1.342 0.208,-1.393 0.059,-1.4 0.159,-1.479 0.22,-1.565 0.243,-1.663 0.266,-1.76 0.253,-1.893 0.204,-2.066 L 0.157,-2.23 C 0.124,-2.343 0.107,-2.418 0.105,-2.461 0.1,-2.529 0.117,-2.583 0.158,-2.627 L 0.14,-2.689 -0.423,-2.527 c 0,0.059 0.002,0.105 0.005,0.14 0.006,0.073 0.019,0.145 0.039,0.217 l 0.062,0.229 c 0.042,0.158 0.044,0.268 0.003,0.336 -0.04,0.069 -0.133,0.123 -0.285,0.167 l -0.528,0.151 -0.275,-0.96 -0.5,0.144 L -1.2,0.344 0,0 Z m -0.822,-0.224 -0.189,-0.658 0.579,-0.166 c 0.116,-0.033 0.205,-0.044 0.271,-0.034 0.116,0.017 0.192,0.093 0.232,0.232 0.043,0.149 0.022,0.261 -0.062,0.341 -0.048,0.045 -0.126,0.082 -0.237,0.114 l -0.594,0.171 z" />
          </g>
          <g
             transform="translate(160.7737,347.5969)"
             id="g4992">
            <path
               id="path4994"
               style="fill:#ffcf00;fill-opacity:1;fill-rule:evenodd;stroke:none"
               d="M 0,0 C 0.186,0.408 0.432,0.666 0.751,0.787 1.029,0.893 1.308,0.879 1.601,0.746 1.994,0.567 2.218,0.313 2.282,-0.027 2.317,-0.218 2.304,-0.383 2.246,-0.532 l -0.485,0.22 c 0.02,0.126 0.017,0.227 -0.006,0.307 C 1.712,0.136 1.606,0.244 1.432,0.324 1.255,0.404 1.086,0.397 0.919,0.3 0.751,0.204 0.611,0.029 0.492,-0.233 0.372,-0.495 0.338,-0.711 0.387,-0.891 c 0.049,-0.179 0.154,-0.304 0.321,-0.38 0.171,-0.078 0.324,-0.081 0.464,-0.01 0.077,0.037 0.158,0.107 0.245,0.213 l 0.48,-0.218 C 1.739,-1.522 1.541,-1.676 1.295,-1.756 1.048,-1.837 0.796,-1.816 0.524,-1.692 0.188,-1.539 -0.022,-1.317 -0.116,-1.014 -0.21,-0.71 -0.172,-0.377 0,0" />
          </g>
          <g
             transform="translate(164.2638,347.3655)"
             id="g4996">
            <path
               id="path4998"
               style="fill:#ffcf00;fill-opacity:1;fill-rule:evenodd;stroke:none"
               d="M 0,0 0.453,-0.262 -0.071,-1.17 1.304,-0.754 1.899,-1.098 0.471,-1.483 0.672,-3.329 0.08,-2.987 -0.044,-1.63 -0.395,-1.729 -0.821,-2.466 -1.274,-2.204 0,0 Z" />
          </g>
          <g
             transform="translate(168.0771,343.1703)"
             id="g5000">
            <path
               id="path5002"
               style="fill:#ffcf00;fill-opacity:1;fill-rule:evenodd;stroke:none"
               d="m 0,0 c -0.285,-0.362 -0.598,-0.554 -0.952,-0.587 -0.276,-0.037 -0.552,0.056 -0.84,0.283 -0.288,0.227 -0.442,0.473 -0.471,0.75 -0.053,0.353 0.061,0.702 0.345,1.064 0.291,0.369 0.604,0.562 0.954,0.586 C -0.688,2.133 -0.412,2.04 -0.125,1.813 0.164,1.586 0.318,1.34 0.347,1.063 0.405,0.718 0.291,0.369 0,0 m -1.513,0.05 c 0.167,-0.131 0.344,-0.173 0.539,-0.127 0.195,0.046 0.377,0.179 0.556,0.406 0.178,0.226 0.265,0.435 0.264,0.635 C -0.155,1.165 -0.236,1.327 -0.403,1.459 -0.57,1.59 -0.748,1.632 -0.944,1.588 -1.14,1.543 -1.323,1.41 -1.502,1.183 -1.681,0.956 -1.767,0.747 -1.765,0.546 -1.762,0.344 -1.68,0.182 -1.513,0.05" />
          </g>
          <g
             transform="translate(170.019,343.0696)"
             id="g5004">
            <path
               id="path5006"
               style="fill:#ffcf00;fill-opacity:1;fill-rule:evenodd;stroke:none"
               d="m 0,0 -0.881,-1.21 -0.259,-0.32 0.349,0.204 1.296,0.744 0.368,-0.424 -0.904,-1.184 -0.255,-0.324 0.345,0.197 1.337,0.708 0.354,-0.408 -2.393,-1.127 -0.333,0.384 0.923,1.207 L 0.26,-1.162 -0.171,-1.417 -1.497,-2.16 -1.82,-1.787 -0.37,0.427 0,0 Z" />
          </g>
          <g
             transform="translate(175.2861,335.0156)"
             id="g5008">
            <path
               id="path5010"
               style="fill:#ffcf00;fill-opacity:1;fill-rule:evenodd;stroke:none"
               d="m 0,0 0.583,-1.708 -0.423,-0.145 -0.413,1.208 -0.554,-0.189 0.361,-1.058 -0.418,-0.142 -0.361,1.057 -1.011,-0.344 -0.17,0.5 L 0,0 Z" />
          </g>
          <g
             transform="translate(175.455,329.8134)"
             id="g5012">
            <path
               id="path5014"
               style="fill:#ffcf00;fill-opacity:1;fill-rule:evenodd;stroke:none"
               d="M 0,0 C -0.449,-0.105 -0.813,-0.06 -1.11,0.137 -1.349,0.28 -1.506,0.524 -1.589,0.882 -1.672,1.239 -1.64,1.527 -1.489,1.761 -1.31,2.07 -1.003,2.272 -0.555,2.377 -0.097,2.484 0.268,2.438 0.556,2.239 0.795,2.095 0.952,1.851 1.035,1.494 1.118,1.137 1.086,0.848 0.935,0.614 0.765,0.308 0.458,0.107 0,0 M -1.15,0.984 C -1.102,0.777 -0.99,0.634 -0.809,0.548 -0.628,0.462 -0.402,0.452 -0.121,0.518 0.159,0.583 0.357,0.692 0.482,0.85 0.607,1.007 0.644,1.185 0.596,1.391 0.548,1.598 0.436,1.742 0.254,1.83 0.073,1.917 -0.153,1.928 -0.434,1.862 -0.716,1.797 -0.914,1.687 -1.038,1.528 -1.161,1.369 -1.198,1.191 -1.15,0.984" />
          </g>
          <g
             transform="translate(176.9402,327.7049)"
             id="g5016">
            <path
               id="path5018"
               style="fill:#ffcf00;fill-opacity:1;fill-rule:evenodd;stroke:none"
               d="M 0,0 C 0.01,-0.18 -0.001,-0.316 -0.034,-0.416 -0.067,-0.515 -0.119,-0.6 -0.192,-0.673 -0.253,-0.734 -0.32,-0.782 -0.396,-0.821 c -0.076,-0.038 -0.162,-0.061 -0.263,-0.068 -0.122,-0.01 -0.241,0.011 -0.363,0.064 -0.122,0.052 -0.211,0.145 -0.27,0.282 -0.038,-0.122 -0.098,-0.209 -0.182,-0.264 -0.083,-0.056 -0.212,-0.09 -0.391,-0.104 l -0.17,-0.013 C -2.152,-0.933 -2.229,-0.944 -2.27,-0.956 -2.335,-0.975 -2.38,-1.01 -2.407,-1.064 l -0.064,-0.005 -0.045,0.584 c 0.055,0.021 0.099,0.035 0.133,0.045 0.071,0.019 0.142,0.032 0.217,0.039 l 0.236,0.022 c 0.163,0.015 0.267,0.052 0.317,0.113 0.05,0.062 0.068,0.169 0.056,0.326 L -1.599,0.608 -2.595,0.531 -2.635,1.049 -0.096,1.245 0,0 Z M -0.497,0.693 -1.179,0.64 -1.133,0.039 c 0.01,-0.12 0.03,-0.207 0.062,-0.265 0.057,-0.103 0.155,-0.148 0.299,-0.137 0.155,0.012 0.253,0.07 0.298,0.177 0.025,0.061 0.034,0.147 0.025,0.262 l -0.048,0.617 z" />
          </g>
          <g
             transform="translate(176.948,324.4079)"
             id="g5020">
            <path
               id="path5022"
               style="fill:#ffcf00;fill-opacity:1;fill-rule:evenodd;stroke:none"
               d="m 0,0 c -0.017,-0.179 -0.049,-0.312 -0.097,-0.406 -0.048,-0.093 -0.112,-0.169 -0.196,-0.23 -0.069,-0.05 -0.143,-0.088 -0.224,-0.114 -0.081,-0.026 -0.17,-0.036 -0.271,-0.028 -0.121,0.009 -0.235,0.048 -0.348,0.119 -0.113,0.07 -0.186,0.175 -0.224,0.32 -0.057,-0.114 -0.129,-0.191 -0.22,-0.233 -0.091,-0.043 -0.223,-0.057 -0.402,-0.043 l -0.171,0.013 c -0.117,0.009 -0.195,0.011 -0.237,0.005 -0.067,-0.009 -0.117,-0.037 -0.152,-0.085 l -0.064,0.004 0.045,0.584 c 0.058,0.012 0.104,0.02 0.139,0.024 0.073,0.009 0.145,0.01 0.22,0.006 l 0.237,-0.015 c 0.163,-0.01 0.271,0.011 0.33,0.064 0.059,0.053 0.094,0.156 0.106,0.313 l 0.042,0.548 -0.995,0.076 0.04,0.519 L 0.096,1.245 0,0 Z M -0.385,0.761 -1.067,0.813 -1.113,0.212 c -0.009,-0.12 -0.003,-0.209 0.02,-0.272 0.041,-0.11 0.131,-0.169 0.274,-0.18 0.155,-0.012 0.261,0.03 0.322,0.129 0.034,0.056 0.056,0.139 0.065,0.255 l 0.047,0.617 z" />
          </g>
          <g
             transform="translate(175.9796,320.7385)"
             id="g5024">
            <path
               id="path5026"
               style="fill:#ffcf00;fill-opacity:1;fill-rule:evenodd;stroke:none"
               d="M 0,0 0.24,1.326 -0.293,1.422 -0.512,0.205 -0.948,0.284 -0.728,1.501 -1.372,1.617 -1.622,0.23 -2.073,0.311 -1.73,2.21 0.776,1.757 0.444,-0.08 0,0 Z" />
          </g>
          <g
             transform="translate(174.3444,319.6822)"
             id="g5028">
            <path
               id="path5030"
               style="fill:#ffcf00;fill-opacity:1;fill-rule:evenodd;stroke:none"
               d="m 0,0 c -0.116,0.022 -0.207,0.021 -0.278,-0.006 -0.128,-0.048 -0.223,-0.169 -0.292,-0.369 -0.041,-0.12 -0.06,-0.219 -0.059,-0.303 0.002,-0.159 0.07,-0.259 0.207,-0.306 0.08,-0.028 0.153,-0.014 0.221,0.041 0.067,0.056 0.14,0.151 0.225,0.291 l 0.144,0.235 C 0.311,-0.184 0.43,-0.034 0.53,0.04 0.698,0.165 0.896,0.187 1.135,0.105 1.352,0.031 1.502,-0.106 1.592,-0.314 1.682,-0.521 1.675,-0.772 1.57,-1.078 1.483,-1.334 1.344,-1.525 1.147,-1.659 0.949,-1.793 0.726,-1.82 0.464,-1.741 l 0.166,0.484 c 0.149,-0.041 0.271,-0.014 0.373,0.084 0.068,0.065 0.121,0.155 0.16,0.272 0.045,0.131 0.054,0.241 0.028,0.337 C 1.165,-0.468 1.106,-0.405 1.012,-0.373 0.925,-0.343 0.849,-0.359 0.78,-0.421 0.734,-0.461 0.666,-0.553 0.573,-0.701 L 0.331,-1.082 C 0.225,-1.251 0.121,-1.366 0.016,-1.435 -0.148,-1.541 -0.333,-1.556 -0.55,-1.482 c -0.222,0.075 -0.373,0.22 -0.462,0.439 -0.089,0.22 -0.08,0.479 0.025,0.788 0.108,0.317 0.262,0.536 0.468,0.667 0.206,0.132 0.43,0.155 0.683,0.069 L 0,0 Z" />
          </g>
          <g
             transform="translate(174.3679,315.0047)"
             id="g5032">
            <path
               id="path5034"
               style="fill:#ffcf00;fill-opacity:1;fill-rule:evenodd;stroke:none"
               d="M 0,0 -0.41,0.187 -0.095,0.88 -2.002,1.748 -1.78,2.235 0.127,1.367 0.444,2.064 0.854,1.877 0,0 Z" />
          </g>
          <g
             transform="translate(172.4904,312.7466)"
             id="g5036">
            <path
               id="path5038"
               style="fill:#ffcf00;fill-opacity:1;fill-rule:evenodd;stroke:none"
               d="M 0,0 0.729,1.133 0.275,1.425 -0.395,0.386 -0.767,0.625 -0.097,1.665 -0.648,2.019 -1.411,0.834 -1.795,1.082 -0.751,2.704 1.39,1.326 0.379,-0.244 0,0 Z" />
          </g>
          <g
             transform="translate(171.4773,310.6305)"
             id="g5040">
            <path
               id="path5042"
               style="fill:#ffcf00;fill-opacity:1;fill-rule:evenodd;stroke:none"
               d="m 0,0 c -0.114,-0.139 -0.215,-0.232 -0.306,-0.283 -0.092,-0.051 -0.188,-0.078 -0.291,-0.082 -0.086,-0.004 -0.168,0.006 -0.25,0.029 -0.082,0.024 -0.161,0.066 -0.24,0.128 -0.096,0.075 -0.169,0.171 -0.224,0.293 -0.054,0.121 -0.057,0.249 -0.007,0.39 C -1.429,0.412 -1.532,0.388 -1.631,0.404 -1.73,0.419 -1.848,0.481 -1.989,0.593 l -0.134,0.105 c -0.093,0.073 -0.156,0.117 -0.195,0.136 -0.06,0.03 -0.118,0.034 -0.174,0.014 l -0.05,0.039 0.362,0.46 C -2.125,1.325 -2.083,1.306 -2.051,1.29 -1.986,1.256 -1.925,1.218 -1.865,1.172 l 0.188,-0.144 c 0.13,-0.099 0.232,-0.142 0.31,-0.131 0.079,0.012 0.165,0.078 0.262,0.202 L -0.765,1.53 -1.549,2.148 -1.228,2.556 0.773,0.981 0,0 Z M 0.104,0.846 -0.434,1.269 -0.807,0.796 C -0.881,0.701 -0.925,0.623 -0.941,0.558 -0.969,0.444 -0.927,0.345 -0.814,0.256 -0.692,0.16 -0.58,0.137 -0.475,0.185 c 0.06,0.027 0.124,0.084 0.196,0.175 l 0.383,0.486 z" />
          </g>
          <g
             transform="translate(140.51,339.619)"
             id="g5044">
            <path
               id="path5046"
               style="fill:#d60000;fill-opacity:1;fill-rule:evenodd;stroke:none"
               d="m 0,0 c 0.002,0.002 0.005,0.004 0.007,0.006 l 2.549,-2.6 -2.549,2.6 c 1.437,1.282 3.163,2.379 5.236,3.145 2.595,0.959 4.96,1.33 7.066,1.33 7.184,0 11.352,-4.316 11.353,-4.317 l -0.747,-0.871 c 0,0 -4.144,3.208 -9.394,3.208 -1.915,0 -3.976,-0.426 -6.038,-1.59 C 5.655,-0.104 4.212,-1.55 3.074,-3.168 L 0,0 Z" />
          </g>
          <g
             transform="translate(140.51,339.619)"
             id="g5048">
            <path
               id="path5050"
               style="fill:none;stroke:#d60000;stroke-width:0.199;stroke-linecap:butt;stroke-linejoin:miter;stroke-miterlimit:11.5;stroke-dasharray:none;stroke-opacity:1"
               d="m 0,0 c 0.002,0.002 0.005,0.004 0.007,0.006 l 2.549,-2.6 -2.549,2.6 c 1.437,1.282 3.163,2.379 5.236,3.145 2.595,0.959 4.96,1.33 7.066,1.33 7.184,0 11.352,-4.316 11.353,-4.317 l -0.747,-0.871 c 0,0 -4.144,3.208 -9.394,3.208 -1.915,0 -3.976,-0.426 -6.038,-1.59 C 5.655,-0.104 4.212,-1.55 3.074,-3.168 L 0,0 Z" />
          </g>
          <g
             transform="translate(133.4327,324.2271)"
             id="g5052">
            <path
               id="path5054"
               style="fill:#0122d3;fill-opacity:1;fill-rule:evenodd;stroke:none"
               d="m 0,0 c 0,0 0.584,9.592 7.077,15.392 l 3.074,-3.168 C 6.62,7.206 6.023,0.544 5.977,0.031 l -0.001,0 C 5.975,0.013 5.974,0.002 5.974,0 L 0,0 Z" />
          </g>
          <g
             transform="translate(133.4327,324.2271)"
             id="g5056">
            <path
               id="path5058"
               style="fill:none;stroke:#0122d3;stroke-width:0.199;stroke-linecap:butt;stroke-linejoin:miter;stroke-miterlimit:11.5;stroke-dasharray:none;stroke-opacity:1"
               d="m 0,0 c 0,0 0.584,9.592 7.077,15.392 l 3.074,-3.168 C 6.62,7.206 6.023,0.544 5.977,0.031 l -0.001,0 C 5.975,0.013 5.974,0.002 5.974,0 L 0,0 Z" />
          </g>
          <g
             transform="translate(142.0231,338.0186)"
             id="g5060">
            <path
               id="path5062"
               style="fill:#ffffff;fill-opacity:1;fill-rule:evenodd;stroke:none"
               d="m 0,0 c 1.444,1.438 3.254,2.667 5.52,3.476 2.461,0.878 4.623,1.225 6.516,1.225 4.681,0 7.719,-2.118 9.587,-3.538 L 20.841,0.239 C 19.402,1.092 16.451,2.542 12.969,2.542 11.163,2.542 9.215,2.152 7.26,1.087 5.43,0.106 4.009,-1.32 2.906,-2.906 L 0,0 Z" />
          </g>
          <g
             transform="translate(142.0231,338.0186)"
             id="g5064">
            <path
               id="path5066"
               style="fill:none;stroke:#ffffff;stroke-width:0.199;stroke-linecap:butt;stroke-linejoin:miter;stroke-miterlimit:11.5;stroke-dasharray:none;stroke-opacity:1"
               d="m 0,0 c 1.444,1.438 3.254,2.667 5.52,3.476 2.461,0.878 4.623,1.225 6.516,1.225 4.681,0 7.719,-2.118 9.587,-3.538 L 20.841,0.239 C 19.402,1.092 16.451,2.542 12.969,2.542 11.163,2.542 9.215,2.152 7.26,1.087 5.43,0.106 4.009,-1.32 2.906,-2.906 L 0,0 Z" />
          </g>
          <g
             transform="translate(136.3201,324.2314)"
             id="g5068">
            <path
               id="path5070"
               style="fill:#0122d3;fill-opacity:1;fill-rule:evenodd;stroke:none"
               d="M 0,0 C 0,0 0.264,8.372 5.703,13.787 L 8.609,10.881 C 5.451,6.34 4.909,0.488 4.866,0.029 4.864,0.012 4.863,0.002 4.863,0 4.474,-0.001 3.272,-0.001 2.16,-0.001 1.045,-0.001 0.021,-0.001 0,0" />
          </g>
          <g
             transform="translate(136.3201,324.2314)"
             id="g5072">
            <path
               id="path5074"
               style="fill:none;stroke:#0122d3;stroke-width:0.199;stroke-linecap:butt;stroke-linejoin:miter;stroke-miterlimit:11.5;stroke-dasharray:none;stroke-opacity:1"
               d="M 0,0 C 0,0 0.264,8.372 5.703,13.787 L 8.609,10.881 C 5.451,6.34 4.909,0.488 4.866,0.029 4.864,0.012 4.863,0.002 4.863,0 4.474,-0.001 3.272,-0.001 2.16,-0.001 1.045,-0.001 0.021,-0.001 0,0 Z" />
          </g>
          <g
             transform="translate(139.003,324.2213)"
             id="g5076">
            <path
               id="path5078"
               style="fill:#d60000;fill-opacity:1;fill-rule:evenodd;stroke:none"
               d="m 0,0 c 0,0 0.696,12.461 10.693,16.022 7.24,2.579 11.821,-0.788 13.322,-1.8 L 23.337,13.358 C 20.486,14.991 15.68,16.517 10.714,13.815 3.988,10.216 3.128,0.067 3.117,0 L 0,0 Z" />
          </g>
          <g
             transform="translate(139.003,324.2213)"
             id="g5080">
            <path
               id="path5082"
               style="fill:none;stroke:#d60000;stroke-width:0.199;stroke-linecap:butt;stroke-linejoin:miter;stroke-miterlimit:11.5;stroke-dasharray:none;stroke-opacity:1"
               d="m 0,0 c 0,0 0.696,12.461 10.693,16.022 7.24,2.579 11.821,-0.788 13.322,-1.8 L 23.337,13.358 C 20.486,14.991 15.68,16.517 10.714,13.815 3.988,10.216 3.128,0.067 3.117,0 L 0,0 Z" />
          </g>
          <g
             transform="translate(161.6201,339.8926)"
             id="g5084">
            <path
               id="path5086"
               transform="matrix(0.01278744,0,0,-0.01278744,-37.131336,13.195987)"
               d="m 3191.127,887.90234 -286.6797,143.69146 -0.1719,-0.1836 -0.2227,0.3808 -0.3164,0.1582 0.1387,0.1485 -161.6348,277.0058 c 0,0 15.8757,39.6498 112.6895,72.1035 96.8138,32.3756 199.0234,47.9375 199.0234,47.9375 0,0 120.6654,26.1189 218.8086,121.916 161.3416,157.6479 225.2559,125.379 231.8438,121.3204 l 0.1113,0.1191 c 0,0 0.1744,-0.2403 0.2715,-0.3672 0.064,-0.045 0.2676,-0.1719 0.2676,-0.1719 l -0.078,-0.082 c 4.4625,-6.3037 40.7585,-68.0325 -106.2695,-239.1465 -89.4628,-104.0083 -107.8398,-226.0801 -107.8398,-226.0801 0,0 -8.9138,-102.9929 -35.1114,-201.6835 -26.1976,-98.69066 -64.83,-117.06646 -64.83,-117.06646 z"
               style="fill:#cccdcf;fill-opacity:1;fill-rule:evenodd;stroke:#ffffff;stroke-width:27.68342018;stroke-linecap:round;stroke-linejoin:round;stroke-miterlimit:11.5;stroke-dasharray:none;stroke-opacity:1" />
          </g>
          <g
             transform="translate(161.627,339.8995)"
             id="g5088" />
          <g
             transform="translate(129.6553,328.2305)"
             id="g5092">
            <path
               id="path5094"
               style="fill:#cccdcf;fill-opacity:1;fill-rule:evenodd;stroke:none"
               d="M 0,0 0.426,-1.315 1.808,-1.314 0.69,-2.125 1.118,-3.44 0,-2.627 -1.118,-3.44 -0.69,-2.125 -1.808,-1.314 -0.426,-1.315 0,0 Z" />
          </g>
          <g
             transform="translate(172.5472,339.462)"
             id="g5096">
            <path
               id="path5098"
               style="fill:#cccdcf;fill-opacity:1;fill-rule:evenodd;stroke:none"
               d="M 0,0 0.426,-1.315 1.808,-1.314 0.69,-2.125 1.118,-3.44 0,-2.627 -1.117,-3.44 -0.69,-2.126 -1.808,-1.314 -0.426,-1.315 0,0 Z" />
          </g>
          <g
             transform="translate(167.7716,311.0196)"
             id="g5100">
            <path
               id="path5102"
               style="fill:#cccdcf;fill-opacity:1;fill-rule:evenodd;stroke:none"
               d="M 0,0 0.426,-1.315 1.808,-1.314 0.69,-2.126 1.118,-3.44 0,-2.627 -1.117,-3.44 -0.69,-2.126 -1.808,-1.314 -0.426,-1.315 0,0 Z" />
          </g>
          <g
             transform="translate(146.2815,349.8976)"
             id="g5104">
            <path
               id="path5106"
               style="fill:#cccdcf;fill-opacity:1;fill-rule:evenodd;stroke:none"
               d="M 0,0 0.426,-1.315 1.808,-1.314 0.69,-2.125 1.118,-3.44 0,-2.627 -1.117,-3.44 -0.69,-2.126 -1.808,-1.314 -0.426,-1.315 0,0 Z" />
          </g>
          <g
             transform="translate(137.6146,310.9853)"
             id="g5108">
            <path
               id="path5110"
               style="fill:#cccdcf;fill-opacity:1;fill-rule:evenodd;stroke:none"
               d="M 0,0 0.426,-1.315 1.808,-1.314 0.69,-2.125 1.118,-3.44 0,-2.627 -1.118,-3.44 -0.69,-2.125 -1.808,-1.314 -0.426,-1.315 0,0 Z" />
          </g>
          <g
             transform="translate(178.1875,326.1263)"
             id="g5112">
            <path
               id="path5114"
               style="fill:none;stroke:#00003e;stroke-width:0.177;stroke-linecap:butt;stroke-linejoin:miter;stroke-miterlimit:11.5;stroke-dasharray:none;stroke-opacity:1"
               d="m 0,0 c 0,-13.926 -11.461,-25.387 -25.387,-25.387 -13.925,0 -25.386,11.461 -25.386,25.387 0,13.926 11.461,25.387 25.386,25.387 C -11.461,25.387 0,13.926 0,0 Z" />
          </g>
          <g
             transform="translate(148.1532,307.6613)"
             id="g5116">
            <path
               id="path5118"
               style="fill:#cccdcf;fill-opacity:1;fill-rule:evenodd;stroke:none"
               d="m 0,0 c 0,0 -0.297,-1.249 -0.592,-2.519 -0.297,-1.275 -0.598,-2.559 -0.598,-2.559 0,0 -0.695,0.195 -1.388,0.417 -0.692,0.247 -1.386,0.527 -1.386,0.527 0,0 0.265,0.627 0.526,1.263 0.261,0.641 0.519,1.285 0.519,1.285 0.076,0.186 0.132,0.339 0.16,0.453 0.042,0.113 0.054,0.195 0.065,0.235 10e-4,0.042 -0.028,0.091 -0.059,0.133 -0.042,0.048 -0.086,0.093 -0.164,0.142 -0.056,0.043 -0.164,0.1 -0.328,0.176 -0.158,0.07 -0.369,0.158 -0.631,0.255 0,0 -0.048,0.017 -0.105,0.038 -0.052,0.023 -0.11,0.044 -0.11,0.044 0,0 0.068,0.134 0.14,0.264 0.067,0.139 0.142,0.269 0.142,0.269 0.542,-0.132 1.034,-0.211 1.47,-0.222 0.431,-0.006 0.81,0.045 1.133,0.161 0,0 0.304,-0.096 0.605,-0.193 C -0.305,0.087 0,0 0,0" />
          </g>
          <g
             transform="translate(151.7811,305.7737)"
             id="g5120">
            <path
               id="path5122"
               style="fill:#cccdcf;fill-opacity:1;fill-rule:evenodd;stroke:none"
               d="M 0,0 C 0.002,0.14 -0.007,0.25 -0.016,0.335 -0.032,0.422 -0.046,0.479 -0.067,0.519 -0.092,0.551 -0.135,0.587 -0.18,0.6 -0.238,0.621 -0.301,0.634 -0.389,0.644 -0.465,0.644 -0.539,0.647 -0.583,0.628 -0.643,0.613 -0.681,0.591 -0.705,0.557 -0.739,0.522 -0.763,0.467 -0.776,0.382 -0.787,0.298 -0.811,0.195 -0.817,0.056 c 0,0 -0.023,-0.634 -0.05,-1.262 -0.027,-0.63 -0.053,-1.265 -0.053,-1.265 -0.009,-0.151 0.002,-0.271 0.015,-0.362 0.009,-0.086 0.029,-0.156 0.057,-0.19 0.029,-0.03 0.076,-0.055 0.131,-0.071 0.071,-0.025 0.155,-0.037 0.251,-0.04 0.098,-0.005 0.19,-0.007 0.25,0.007 0.062,0.02 0.11,0.041 0.136,0.082 0.039,0.033 0.063,0.087 0.072,0.17 0.019,0.077 0.031,0.182 0.024,0.313 0,0 -0.001,0.641 -0.003,1.279 C 0.004,-0.639 0,0 0,0 m 2.323,-0.416 c 0,0 0.056,-0.431 0.119,-0.862 C 2.503,-1.712 2.558,-2.135 2.558,-2.135 2.592,-2.336 2.601,-2.501 2.599,-2.643 2.597,-2.791 2.581,-2.909 2.551,-2.996 2.508,-3.091 2.46,-3.18 2.374,-3.264 2.3,-3.355 2.193,-3.438 2.05,-3.521 1.919,-3.608 1.766,-3.673 1.601,-3.73 1.438,-3.792 1.241,-3.839 1.042,-3.871 0.841,-3.905 0.629,-3.928 0.396,-3.941 0.177,-3.957 -0.073,-3.954 -0.325,-3.943 c -0.333,0.018 -0.641,0.045 -0.905,0.086 -0.278,0.04 -0.524,0.095 -0.751,0.157 -0.219,0.064 -0.403,0.135 -0.568,0.212 -0.165,0.077 -0.309,0.168 -0.415,0.265 -0.128,0.1 -0.219,0.194 -0.301,0.29 -0.075,0.098 -0.138,0.195 -0.175,0.289 -0.042,0.093 -0.054,0.205 -0.06,0.347 -10e-4,0.133 0.018,0.297 0.048,0.475 0,0 0.078,0.451 0.158,0.901 0.08,0.45 0.164,0.891 0.164,0.891 0.041,0.237 0.093,0.439 0.152,0.612 0.07,0.162 0.148,0.295 0.234,0.399 0.088,0.106 0.206,0.189 0.36,0.249 0.141,0.077 0.321,0.126 0.524,0.166 0.199,0.038 0.434,0.056 0.667,0.068 C -0.95,1.471 -0.698,1.462 -0.412,1.438 -0.182,1.422 0.026,1.4 0.235,1.361 0.43,1.338 0.629,1.29 0.809,1.238 1.002,1.191 1.157,1.142 1.304,1.076 1.453,1.021 1.561,0.96 1.665,0.888 1.769,0.819 1.847,0.756 1.921,0.676 1.993,0.6 2.061,0.513 2.108,0.427 2.151,0.34 2.186,0.23 2.227,0.089 2.262,-0.054 2.296,-0.221 2.323,-0.416" />
          </g>
          <g
             transform="translate(159.2347,308.2304)"
             id="g5124">
            <path
               id="path5126"
               style="fill:#cccdcf;fill-opacity:1;fill-rule:evenodd;stroke:none"
               d="m 0,0 c 0,0 0.103,-0.192 0.201,-0.38 0.094,-0.188 0.194,-0.379 0.194,-0.379 0,0 -0.703,-0.228 -1.394,-0.438 -0.688,-0.183 -1.384,-0.351 -1.384,-0.351 0,0 0.068,-0.217 0.13,-0.423 0.07,-0.216 0.14,-0.43 0.14,-0.43 0.143,0.155 0.32,0.291 0.534,0.404 0.207,0.12 0.444,0.21 0.732,0.291 0.325,0.092 0.616,0.154 0.871,0.186 0.266,0.036 0.504,0.036 0.718,-0.002 0.211,-0.036 0.413,-0.121 0.584,-0.26 0.167,-0.145 0.339,-0.339 0.469,-0.591 0,0 0.092,-0.167 0.186,-0.329 0.082,-0.161 0.18,-0.323 0.18,-0.323 0.091,-0.164 0.15,-0.3 0.202,-0.426 C 2.402,-3.577 2.429,-3.679 2.433,-3.77 2.431,-3.864 2.418,-3.957 2.382,-4.056 2.341,-4.157 2.272,-4.268 2.181,-4.383 2.09,-4.496 1.976,-4.61 1.823,-4.73 1.678,-4.851 1.506,-4.965 1.298,-5.085 1.089,-5.198 0.86,-5.311 0.596,-5.414 0.335,-5.517 0.043,-5.613 -0.282,-5.702 c -0.357,-0.092 -0.7,-0.156 -1.022,-0.201 -0.327,-0.031 -0.628,-0.047 -0.927,-0.033 -0.271,0.014 -0.522,0.048 -0.726,0.111 -0.218,0.056 -0.39,0.143 -0.526,0.243 -0.131,0.105 -0.233,0.236 -0.327,0.409 -0.082,0.166 -0.153,0.378 -0.196,0.615 0,0 -0.009,0.071 -0.022,0.141 -0.011,0.068 -0.027,0.14 -0.027,0.14 0,0 0.625,0.076 1.258,0.167 0.631,0.114 1.263,0.254 1.263,0.254 0,0 0.024,-0.083 0.061,-0.164 0.018,-0.077 0.043,-0.157 0.043,-0.157 0.049,-0.161 0.096,-0.3 0.155,-0.416 0.049,-0.115 0.087,-0.197 0.141,-0.264 0.039,-0.064 0.117,-0.104 0.201,-0.111 0.1,-0.017 0.223,-0.003 0.367,0.029 0.065,0.022 0.127,0.037 0.177,0.063 0.052,0.025 0.087,0.054 0.126,0.088 0.026,0.03 0.057,0.055 0.063,0.083 0.022,0.028 0.025,0.051 0.022,0.08 -0.008,0.023 -0.028,0.081 -0.06,0.177 -0.031,0.103 -0.074,0.236 -0.137,0.413 0,0 -0.087,0.245 -0.185,0.492 -0.097,0.247 -0.189,0.491 -0.189,0.491 -0.032,0.093 -0.067,0.165 -0.115,0.227 -0.044,0.059 -0.082,0.094 -0.143,0.122 -0.048,0.022 -0.11,0.036 -0.178,0.033 -0.064,0.007 -0.14,-0.006 -0.229,-0.033 -0.05,-0.011 -0.104,-0.027 -0.15,-0.05 -0.042,-0.015 -0.08,-0.037 -0.116,-0.065 -0.034,-0.024 -0.051,-0.054 -0.069,-0.077 -0.019,-0.03 -0.031,-0.047 -0.035,-0.072 -0.003,-0.023 -10e-4,-0.058 0.013,-0.107 0.004,-0.046 0.019,-0.107 0.046,-0.183 0,0 -0.612,-0.127 -1.215,-0.239 -0.604,-0.089 -1.202,-0.162 -1.202,-0.162 0,0 -0.103,0.65 -0.195,1.3 -0.096,0.649 -0.205,1.296 -0.205,1.296 0,0 1.127,0.161 2.257,0.394 C -1.148,-0.364 0,0 0,0" />
          </g>
          <g
             transform="translate(132.9192,323.713)"
             id="g5128">
            <path
               id="path5130"
               style="fill:#00003e;fill-opacity:1;fill-rule:evenodd;stroke:#00003e;stroke-width:0.177;stroke-linecap:butt;stroke-linejoin:miter;stroke-miterlimit:11.5;stroke-dasharray:none;stroke-opacity:1"
               d="M 0,0 C 0,0 3.626,4.844 10.789,3.537 L 10.082,0.089" />
          </g>
          <g
             transform="translate(139.834,337.2499)"
             id="g5132">
            <path
               id="path5134"
               style="fill:#ffffff;fill-opacity:1;fill-rule:evenodd;stroke:none"
               d="m 0,0 -0.014,-0.843 0.798,-0.272 -0.806,-0.248 -0.013,-0.843 -0.484,0.69 -0.805,-0.248 0.506,0.674 -0.485,0.689 0.797,-0.273 L 0,0 Z" />
          </g>
          <g
             transform="translate(139.834,337.2499)"
             id="g5136">
            <path
               id="path5138"
               style="fill:none;stroke:#ffffff;stroke-width:0.214;stroke-linecap:butt;stroke-linejoin:miter;stroke-miterlimit:11.5;stroke-dasharray:none;stroke-opacity:1"
               d="m 0,0 -0.014,-0.843 0.798,-0.272 -0.806,-0.248 -0.013,-0.843 -0.484,0.69 -0.805,-0.248 0.506,0.674 -0.485,0.689 0.797,-0.273 L 0,0 Z" />
          </g>
          <g
             transform="translate(137.4785,333.6335)"
             id="g5140">
            <path
               id="path5142"
               style="fill:#ffffff;fill-opacity:1;fill-rule:evenodd;stroke:none"
               d="m 0,0 0.172,-0.825 0.838,-0.091 -0.732,-0.418 0.173,-0.825 -0.624,0.566 -0.731,-0.419 0.346,0.768 -0.625,0.566 0.838,-0.091 L 0,0 Z" />
          </g>
          <g
             transform="translate(137.4785,333.6335)"
             id="g5144">
            <path
               id="path5146"
               style="fill:none;stroke:#ffffff;stroke-width:0.214;stroke-linecap:butt;stroke-linejoin:miter;stroke-miterlimit:11.5;stroke-dasharray:none;stroke-opacity:1"
               d="m 0,0 0.172,-0.825 0.838,-0.091 -0.732,-0.418 0.173,-0.825 -0.624,0.566 -0.731,-0.419 0.346,0.768 -0.625,0.566 0.838,-0.091 L 0,0 Z" />
          </g>
          <g
             transform="translate(138.6085,330.9521)"
             id="g5148">
            <path
               id="path5150"
               style="fill:#ffffff;fill-opacity:1;fill-rule:evenodd;stroke:none"
               d="M 0,0 0.229,-0.811 1.071,-0.843 0.37,-1.312 0.6,-2.123 l -0.662,0.522 -0.7,-0.469 0.292,0.791 -0.663,0.521 0.842,-0.033 L 0,0 Z" />
          </g>
          <g
             transform="translate(138.6085,330.9521)"
             id="g5152">
            <path
               id="path5154"
               style="fill:none;stroke:#ffffff;stroke-width:0.214;stroke-linecap:butt;stroke-linejoin:miter;stroke-miterlimit:11.5;stroke-dasharray:none;stroke-opacity:1"
               d="M 0,0 0.229,-0.811 1.071,-0.843 0.37,-1.312 0.6,-2.123 l -0.662,0.522 -0.7,-0.469 0.292,0.791 -0.663,0.521 0.842,-0.033 L 0,0 Z" />
          </g>
          <g
             transform="translate(140.2806,334.4738)"
             id="g5156">
            <path
               id="path5158"
               style="fill:#ffffff;fill-opacity:1;fill-rule:evenodd;stroke:none"
               d="m 0,0 0.121,-0.834 0.831,-0.142 -0.756,-0.373 0.123,-0.834 -0.589,0.604 -0.755,-0.374 0.392,0.746 -0.589,0.603 0.831,-0.143 L 0,0 Z" />
          </g>
          <g
             transform="translate(140.2806,334.4738)"
             id="g5160">
            <path
               id="path5162"
               style="fill:none;stroke:#ffffff;stroke-width:0.214;stroke-linecap:butt;stroke-linejoin:miter;stroke-miterlimit:11.5;stroke-dasharray:none;stroke-opacity:1"
               d="m 0,0 0.121,-0.834 0.831,-0.142 -0.756,-0.373 0.123,-0.834 -0.589,0.604 -0.755,-0.374 0.392,0.746 -0.589,0.603 0.831,-0.143 L 0,0 Z" />
          </g>
          <g
             transform="translate(135.8481,329.4655)"
             id="g5164">
            <path
               id="path5166"
               style="fill:#ffffff;fill-opacity:1;fill-rule:evenodd;stroke:none"
               d="m 0,0 0.279,-0.796 0.842,0.021 -0.67,-0.511 0.279,-0.795 -0.693,0.479 -0.669,-0.511 0.242,0.807 -0.694,0.479 0.843,0.019 L 0,0 Z" />
          </g>
          <g
             transform="translate(135.8481,329.4655)"
             id="g5168">
            <path
               id="path5170"
               style="fill:none;stroke:#ffffff;stroke-width:0.214;stroke-linecap:butt;stroke-linejoin:miter;stroke-miterlimit:11.5;stroke-dasharray:none;stroke-opacity:1"
               d="m 0,0 0.279,-0.796 0.842,0.021 -0.67,-0.511 0.279,-0.795 -0.693,0.479 -0.669,-0.511 0.242,0.807 -0.694,0.479 0.843,0.019 L 0,0 Z" />
          </g>
          <g
             transform="translate(140.7728,338.9711)"
             id="g5172">
            <path
               id="path5174"
               style="fill:#ffcf00;fill-opacity:1;fill-rule:evenodd;stroke:none"
               d="M 0,0 26.318,-27.858 28.04,-26.08 0.49,0.514 0,0 Z" />
          </g>
          <g
             transform="translate(140.4991,338.6713)"
             id="g5176">
            <path
               id="path5178"
               style="fill:#ffcf00;fill-opacity:1;fill-rule:evenodd;stroke:none"
               d="M 0,0 25.179,-28.649 22.782,-30.411 -0.308,-0.327 0,0 Z" />
          </g>
          <g
             transform="translate(141.5505,339.7652)"
             id="g5180">
            <path
               id="path5182"
               style="fill:#ffcf00;fill-opacity:1;fill-rule:evenodd;stroke:none"
               d="m 0,0 28.401,-25.314 1.471,2.661 L 0.286,0.291 0,0 Z" />
          </g>
          <g
             transform="translate(141.5771,342.369)"
             id="g5184">
            <path
               id="path5186"
               style="fill:#ffcf00;fill-opacity:1;fill-rule:evenodd;stroke:none"
               d="m 0,0 -0.277,-2.031 1.847,-0.89 -2.018,-0.364 -0.274,-2.031 -0.97,1.806 -2.017,-0.366 1.418,1.48 -0.972,1.805 1.846,-0.891 L 0,0 Z" />
          </g>
          <g
             transform="translate(152.7459,327.4408)"
             id="g5188">
            <path
               id="path5190"
               style="fill:#ffcf00;fill-opacity:1;fill-rule:evenodd;stroke:none"
               d="M 0,0 C 2.375,2.372 3.796,4.859 3.147,5.508 2.499,6.158 0.01,4.74 -2.365,2.368 -4.74,-0.004 -6.161,-2.491 -5.512,-3.14 -4.864,-3.79 -2.375,-2.372 0,0 M 4.5,6.454 C 5.557,5.396 3.921,2.024 0.878,-1.015 c -3.043,-3.039 -6.417,-4.67 -7.473,-3.612 -1.056,1.058 0.579,4.429 3.622,7.468 3.043,3.04 6.417,4.67 7.473,3.613" />
          </g>
          <g
             transform="translate(171.9426,329.1524)"
             id="g5192">
            <path
               id="path5194"
               style="fill:#d60000;fill-opacity:1;fill-rule:evenodd;stroke:none"
               d="m 0,0 c 0,0 -0.871,-14.312 -12.321,-18.543 -11.449,-4.231 -18.418,2.987 -18.418,2.987 l 0.747,0.871 c 0,0 7.716,-5.974 15.431,-1.618 7.704,4.276 8.575,16.223 8.587,16.303 L 0,0 Z" />
          </g>
          <g
             transform="translate(171.9426,329.1524)"
             id="g5196">
            <path
               id="path5198"
               style="fill:none;stroke:#d60000;stroke-width:0.199;stroke-linecap:butt;stroke-linejoin:miter;stroke-miterlimit:11.5;stroke-dasharray:none;stroke-opacity:1"
               d="m 0,0 c 0,0 -0.871,-14.312 -12.321,-18.543 -11.449,-4.231 -18.418,2.987 -18.418,2.987 l 0.747,0.871 c 0,0 7.716,-5.974 15.431,-1.618 7.704,4.276 8.575,16.223 8.587,16.303 L 0,0 Z" />
          </g>
          <g
             transform="translate(169.0552,329.148)"
             id="g5200">
            <path
               id="path5202"
               style="fill:#0083f2;fill-opacity:1;fill-rule:evenodd;stroke:none"
               d="m 0,0 c 0,0 -0.422,-13.409 -11.223,-17.263 -8.549,-3.051 -13.48,0.318 -16.103,2.313 l 0.782,0.924 c 2.185,-1.296 7.858,-3.968 13.581,-0.848 7.266,3.895 8.088,14.801 8.1,14.874 0.781,0.001 4.822,0.001 4.863,0" />
          </g>
          <g
             transform="translate(169.0552,329.148)"
             id="g5204">
            <path
               id="path5206"
               style="fill:none;stroke:#0083f2;stroke-width:0.199;stroke-linecap:butt;stroke-linejoin:miter;stroke-miterlimit:11.5;stroke-dasharray:none;stroke-opacity:1"
               d="m 0,0 c 0,0 -0.422,-13.409 -11.223,-17.263 -8.549,-3.051 -13.48,0.318 -16.103,2.313 l 0.782,0.924 c 2.185,-1.296 7.858,-3.968 13.581,-0.848 7.266,3.895 8.088,14.801 8.1,14.874 0.781,0.001 4.822,0.001 4.863,0 z" />
          </g>
          <g
             transform="translate(166.3722,329.1584)"
             id="g5208">
            <path
               id="path5210"
               style="fill:#ffffff;fill-opacity:1;fill-rule:evenodd;stroke:none"
               d="m 0,0 c 0,0 -0.696,-12.461 -10.693,-16.022 -7.239,-2.579 -11.821,0.787 -13.321,1.8 l 0.678,0.864 c 2.85,-1.633 7.656,-3.159 12.622,-0.457 6.726,3.598 7.586,13.748 7.597,13.815 L 0,0 Z" />
          </g>
          <g
             transform="translate(166.3722,329.1584)"
             id="g5212">
            <path
               id="path5214"
               style="fill:none;stroke:#ffffff;stroke-width:0.199;stroke-linecap:butt;stroke-linejoin:miter;stroke-miterlimit:11.5;stroke-dasharray:none;stroke-opacity:1"
               d="m 0,0 c 0,0 -0.696,-12.461 -10.693,-16.022 -7.239,-2.579 -11.821,0.787 -13.321,1.8 l 0.678,0.864 c 2.85,-1.633 7.656,-3.159 12.622,-0.457 6.726,3.598 7.586,13.748 7.597,13.815 L 0,0 Z" />
          </g>
          <g
             transform="translate(143.1194,313.7362)"
             id="g5216">
            <path
               id="path5218"
               transform="matrix(0.01278744,0,0,-0.01278744,-18.630636,39.352387)"
               d="m 881.54102,2431.6133 c -15.35994,-0.1158 -23.34868,4.0812 -25.45899,5.3828 l -0.11328,-0.1211 c 0,0 -0.17694,0.2415 -0.27734,0.373 -0.0592,0.041 -0.25586,0.1661 -0.25586,0.1661 l 0.0742,0.08 c -4.44995,6.2821 -40.78846,67.9992 106.34375,239.1485 89.3846,103.9301 107.7617,226.0801 107.7617,226.0801 0,0 8.9157,102.991 35.1133,201.6816 26.1976,98.6906 64.8281,117.0684 64.8281,117.0684 l 286.6856,-143.6934 0.1738,0.1855 0.2246,-0.3847 0.3086,-0.1543 -0.1347,-0.1446 161.6367,-277.0097 c 0,0 -15.8757,-39.6498 -112.6895,-72.1035 -96.8138,-32.4538 -199.1015,-47.9375 -199.1015,-47.9375 0,0 -120.6655,-26.1189 -218.7305,-121.916 C 978.51566,2451.4053 913.8722,2431.8569 881.54102,2431.6133 Z"
               style="fill:#cccdcf;fill-opacity:1;fill-rule:evenodd;stroke:#ffffff;stroke-width:27.68342018;stroke-linecap:round;stroke-linejoin:round;stroke-miterlimit:11.5;stroke-dasharray:none;stroke-opacity:1" />
          </g>
          <g
             transform="translate(143.1126,313.7293)"
             id="g5220" />
          <g
             transform="translate(148.5639,318.2161)"
             id="g5224">
            <path
               id="path5226"
               style="fill:#ffcf00;fill-opacity:1;fill-rule:evenodd;stroke:none"
               d="M 0,0 1.182,0.262 2.329,0 1.182,-0.238 0,0 Z" />
          </g>
          <g
             transform="translate(148.5639,318.2161)"
             id="g5228">
            <path
               id="path5230"
               style="fill:none;stroke:#ffcf00;stroke-width:0.177;stroke-linecap:butt;stroke-linejoin:miter;stroke-miterlimit:11.5;stroke-dasharray:none;stroke-opacity:1"
               d="M 0,0 1.182,0.262 2.329,0 1.182,-0.238 0,0 Z" />
          </g>
          <g
             transform="translate(149.7465,319.7881)"
             id="g5232">
            <path
               id="path5234"
               style="fill:#ffcf00;fill-opacity:1;fill-rule:evenodd;stroke:none"
               d="M 0,0 0.197,-1.572 0,-3.096 -0.179,-1.572 0,0 Z" />
          </g>
          <g
             transform="translate(149.7465,319.7881)"
             id="g5236">
            <path
               id="path5238"
               style="fill:none;stroke:#ffcf00;stroke-width:0.177;stroke-linecap:butt;stroke-linejoin:miter;stroke-miterlimit:11.5;stroke-dasharray:none;stroke-opacity:1"
               d="M 0,0 0.197,-1.572 0,-3.096 -0.179,-1.572 0,0 Z" />
          </g>
          <g
             transform="translate(142.8155,322.1957)"
             id="g5240">
            <path
               id="path5242"
               style="fill:#ffcf00;fill-opacity:1;fill-rule:evenodd;stroke:none"
               d="M 0,0 1.182,0.262 2.329,0 1.182,-0.238 0,0 Z" />
          </g>
          <g
             transform="translate(142.8155,322.1957)"
             id="g5244">
            <path
               id="path5246"
               style="fill:none;stroke:#ffcf00;stroke-width:0.177;stroke-linecap:butt;stroke-linejoin:miter;stroke-miterlimit:11.5;stroke-dasharray:none;stroke-opacity:1"
               d="M 0,0 1.182,0.262 2.329,0 1.182,-0.238 0,0 Z" />
          </g>
          <g
             transform="translate(143.9982,323.7678)"
             id="g5248">
            <path
               id="path5250"
               style="fill:#ffcf00;fill-opacity:1;fill-rule:evenodd;stroke:none"
               d="M 0,0 0.197,-1.572 0,-3.096 -0.179,-1.572 0,0 Z" />
          </g>
          <g
             transform="translate(143.9982,323.7678)"
             id="g5252">
            <path
               id="path5254"
               style="fill:none;stroke:#ffcf00;stroke-width:0.177;stroke-linecap:butt;stroke-linejoin:miter;stroke-miterlimit:11.5;stroke-dasharray:none;stroke-opacity:1"
               d="M 0,0 0.197,-1.572 0,-3.096 -0.179,-1.572 0,0 Z" />
          </g>
          <g
             transform="translate(151.0023,335.8925)"
             id="g5256">
            <path
               id="path5258"
               style="fill:#ffcf00;fill-opacity:1;fill-rule:evenodd;stroke:none"
               d="M 0,0 1.182,0.262 2.329,0 1.182,-0.238 0,0 Z" />
          </g>
          <g
             transform="translate(151.0023,335.8925)"
             id="g5260">
            <path
               id="path5262"
               style="fill:none;stroke:#ffcf00;stroke-width:0.177;stroke-linecap:butt;stroke-linejoin:miter;stroke-miterlimit:11.5;stroke-dasharray:none;stroke-opacity:1"
               d="M 0,0 1.182,0.262 2.329,0 1.182,-0.238 0,0 Z" />
          </g>
          <g
             transform="translate(152.1851,337.4649)"
             id="g5264">
            <path
               id="path5266"
               style="fill:#ffcf00;fill-opacity:1;fill-rule:evenodd;stroke:none"
               d="M 0,0 0.197,-1.572 0,-3.096 -0.179,-1.572 0,0 Z" />
          </g>
          <g
             transform="translate(152.1851,337.4649)"
             id="g5268">
            <path
               id="path5270"
               style="fill:none;stroke:#ffcf00;stroke-width:0.177;stroke-linecap:butt;stroke-linejoin:miter;stroke-miterlimit:11.5;stroke-dasharray:none;stroke-opacity:1"
               d="M 0,0 0.197,-1.572 0,-3.096 -0.179,-1.572 0,0 Z" />
          </g>
          <g
             transform="translate(159.6474,328.7831)"
             id="g5272">
            <path
               id="path5274"
               style="fill:#ffcf00;fill-opacity:1;fill-rule:evenodd;stroke:none"
               d="M 0,0 1.182,0.262 2.329,0 1.182,-0.238 0,0 Z" />
          </g>
          <g
             transform="translate(159.6474,328.7831)"
             id="g5276">
            <path
               id="path5278"
               style="fill:none;stroke:#ffcf00;stroke-width:0.177;stroke-linecap:butt;stroke-linejoin:miter;stroke-miterlimit:11.5;stroke-dasharray:none;stroke-opacity:1"
               d="M 0,0 1.182,0.262 2.329,0 1.182,-0.238 0,0 Z" />
          </g>
          <g
             transform="translate(160.8301,330.3555)"
             id="g5280">
            <path
               id="path5282"
               style="fill:#ffcf00;fill-opacity:1;fill-rule:evenodd;stroke:none"
               d="M 0,0 0.197,-1.572 0,-3.096 -0.179,-1.572 0,0 Z" />
          </g>
          <g
             transform="translate(160.8301,330.3555)"
             id="g5284">
            <path
               id="path5286"
               style="fill:none;stroke:#ffcf00;stroke-width:0.177;stroke-linecap:butt;stroke-linejoin:miter;stroke-miterlimit:11.5;stroke-dasharray:none;stroke-opacity:1"
               d="M 0,0 0.197,-1.572 0,-3.096 -0.179,-1.572 0,0 Z" />
          </g>
          <g
             transform="translate(158.3178,332.7194)"
             id="g5288">
            <path
               id="path5290"
               style="fill:#ffcf00;fill-opacity:1;fill-rule:evenodd;stroke:none"
               d="M 0,0 1.182,0.262 2.329,0 1.182,-0.238 0,0 Z" />
          </g>
          <g
             transform="translate(158.3178,332.7194)"
             id="g5292">
            <path
               id="path5294"
               style="fill:none;stroke:#ffcf00;stroke-width:0.177;stroke-linecap:butt;stroke-linejoin:miter;stroke-miterlimit:11.5;stroke-dasharray:none;stroke-opacity:1"
               d="M 0,0 1.182,0.262 2.329,0 1.182,-0.238 0,0 Z" />
          </g>
          <g
             transform="translate(159.5006,334.2918)"
             id="g5296">
            <path
               id="path5298"
               style="fill:#ffcf00;fill-opacity:1;fill-rule:evenodd;stroke:none"
               d="M 0,0 0.197,-1.572 0,-3.096 -0.179,-1.572 0,0 Z" />
          </g>
          <g
             transform="translate(159.5006,334.2918)"
             id="g5300">
            <path
               id="path5302"
               style="fill:none;stroke:#ffcf00;stroke-width:0.177;stroke-linecap:butt;stroke-linejoin:miter;stroke-miterlimit:11.5;stroke-dasharray:none;stroke-opacity:1"
               d="M 0,0 0.197,-1.572 0,-3.096 -0.179,-1.572 0,0 Z" />
          </g>
          <g
             transform="translate(173.1579,330.6309)"
             id="g5304">
            <path
               id="path5306"
               style="fill:#00003e;fill-opacity:1;fill-rule:evenodd;stroke:#00003e;stroke-width:0.177;stroke-linecap:butt;stroke-linejoin:miter;stroke-miterlimit:11.5;stroke-dasharray:none;stroke-opacity:1"
               d="m 0,0 c 0,0 -3.626,-4.844 -10.789,-3.537 l 0.707,3.449" />
          </g>
        </g>
      </g>
    </g>
  </g>
</svg>
