<svg xmlns="http://www.w3.org/2000/svg" viewBox="0 0 729.94727 620.19696"><defs><style>.a{isolation:isolate;}.b{fill:#abddf3;mix-blend-mode:overlay;}.c{fill:#3d4752;}</style></defs><title>venn diagrams</title><g class="a"><circle class="b" cx="261.09473" cy="424.43625" r="195.76071"/><circle class="b" cx="446.30331" cy="424.43625" r="195.76071"/><circle class="b" cx="353.69902" cy="264.04092" r="195.76071"/><path class="c" d="M293.61475,157.91309a5.07994,5.07994,0,0,0,1.74707,1.2627,5.17058,5.17058,0,0,0,2.15332.47363,4.609,4.609,0,0,0,1.78125-.30371,2.98444,2.98444,0,0,0,1.16113-.835,3.23778,3.23778,0,0,0,.63184-1.251,6.08368,6.08368,0,0,0,.19141-1.55566v-1.376h-.04492a3.77066,3.77066,0,0,1-1.60156,1.376,5.05525,5.05525,0,0,1-2.16406.47363,5.61184,5.61184,0,0,1-2.22168-.42871,4.982,4.982,0,0,1-1.70215-1.17285,5.27272,5.27272,0,0,1-1.082-1.74707,5.97632,5.97632,0,0,1-.38379-2.15332,6.07083,6.07083,0,0,1,.38379-2.165,5.38451,5.38451,0,0,1,1.082-1.76953,5.06009,5.06009,0,0,1,1.69141-1.19531,5.39551,5.39551,0,0,1,2.21-.43945,5.075,5.075,0,0,1,2.19824.49609,3.78636,3.78636,0,0,1,1.65723,1.51074h.04492v-1.71387h2.05176V155.5459a8.46483,8.46483,0,0,1-.293,2.24316,4.88052,4.88052,0,0,1-.99219,1.89453,4.98379,4.98379,0,0,1-1.82617,1.31934,6.95883,6.95883,0,0,1-2.7959.49609,8.25069,8.25069,0,0,1-2.80762-.50781,7.14374,7.14374,0,0,1-2.42383-1.43164Zm.63086-7.28223a4.25281,4.25281,0,0,0,.2373,1.41992,3.49871,3.49871,0,0,0,1.82129,2.0293,3.391,3.391,0,0,0,1.49316.31641,3.70947,3.70947,0,0,0,1.49219-.29395,3.39753,3.39753,0,0,0,1.15332-.7998,3.59447,3.59447,0,0,0,.73535-1.19531,4.14758,4.14758,0,0,0,.25977-1.47656,4.0012,4.0012,0,0,0-.25977-1.44336,3.62,3.62,0,0,0-1.89941-2.01855,3.79355,3.79355,0,0,0-2.97461,0,3.47376,3.47376,0,0,0-1.12012.8125,3.37654,3.37654,0,0,0-.70117,1.19434A4.43526,4.43526,0,0,0,294.24561,150.63086Z"/><path class="c" d="M309.31885,141.54395a1.26429,1.26429,0,0,1-.41406.96973,1.4141,1.4141,0,0,1-.99512.38281,1.351,1.351,0,0,1-.98437-.39453,1.28938,1.28938,0,0,1-.40234-.958,1.31977,1.31977,0,0,1,.40234-.98145,1.35487,1.35487,0,0,1,.98438-.39453,1.391,1.391,0,0,1,.99512.39453A1.30119,1.30119,0,0,1,309.31885,141.54395Zm-.33789,14.543h-2.12012v-10.6875H308.981Z"/><path class="c" d="M317.70654,156.08691h-2.2998l-4.35156-10.6875h2.34473l3.13379,8.41016h.0459l3.15625-8.41016h2.25488Z"/><path class="c" d="M333.64795,150.65332v.36035a2.97859,2.97859,0,0,1-.02246.36133h-8.501a3.14431,3.14431,0,0,0,.30469,1.26465,3.32737,3.32737,0,0,0,.75488,1.03027,3.49442,3.49442,0,0,0,1.09375.68262,3.817,3.817,0,0,0,3.19043-.22754,3.81227,3.81227,0,0,0,1.24023-1.14941l1.48828,1.19531a5.32768,5.32768,0,0,1-2.01855,1.67285,6.47844,6.47844,0,0,1-4.83594.13086,5.21341,5.21341,0,0,1-1.78125-1.13867,5.27191,5.27191,0,0,1-1.17285-1.77051,5.97749,5.97749,0,0,1-.42871-2.2998,6.12848,6.12848,0,0,1,.418-2.28809,5.24747,5.24747,0,0,1,1.16406-1.793,5.33257,5.33257,0,0,1,1.7627-1.16113,6.05523,6.05523,0,0,1,4.32715-.03418,4.4066,4.4066,0,0,1,1.627,1.10547,4.98362,4.98362,0,0,1,1.02832,1.74707A6.947,6.947,0,0,1,333.64795,150.65332Zm-2.165-.85742a4.05475,4.05475,0,0,0-.21387-1.18359,2.71849,2.71849,0,0,0-.56348-.958,2.64535,2.64535,0,0,0-.9248-.64258,3.267,3.267,0,0,0-1.29687-.2373,3.41637,3.41637,0,0,0-1.27344.2373,3.295,3.295,0,0,0-1.03711.64258,3.37992,3.37992,0,0,0-.72168.958,3.05877,3.05877,0,0,0-.32715,1.18359Z"/><path class="c" d="M344.313,154.39648v1.69043h-2.05273V139.041h2.12012V147h.06738a4.46764,4.46764,0,0,1,1.50684-1.34082,4.54891,4.54891,0,0,1,2.29395-.55273,5.34717,5.34717,0,0,1,2.1709.42871,4.98825,4.98825,0,0,1,1.68652,1.19434,5.38245,5.38245,0,0,1,1.09082,1.793,6.22219,6.22219,0,0,1,.38281,2.19824,6.31474,6.31474,0,0,1-.38281,2.21,5.44522,5.44522,0,0,1-1.0791,1.80371,4.992,4.992,0,0,1-1.68652,1.20605,5.43392,5.43392,0,0,1-2.22754.43945,4.89571,4.89571,0,0,1-2.18164-.50684,4.09723,4.09723,0,0,1-1.66406-1.47656Zm7.10254-3.66406a4.67486,4.67486,0,0,0-.22559-1.43945,3.67953,3.67953,0,0,0-.67676-1.23633,3.24636,3.24636,0,0,0-1.11621-.85449,3.57008,3.57008,0,0,0-1.54395-.31445,3.40748,3.40748,0,0,0-1.47754.31445,3.47834,3.47834,0,0,0-1.13867.85449,3.95623,3.95623,0,0,0-.73242,1.23633,4.24083,4.24083,0,0,0,0,2.92285,3.80821,3.80821,0,0,0,.73242,1.22559,3.54311,3.54311,0,0,0,1.13867.84277,3.40748,3.40748,0,0,0,1.47754.31445,3.47428,3.47428,0,0,0,1.54395-.3252,3.36315,3.36315,0,0,0,1.11621-.86621,3.66091,3.66091,0,0,0,.67676-1.23633A4.67329,4.67329,0,0,0,351.41553,150.73242Z"/><path class="c" d="M358.83545,141.54395a1.26429,1.26429,0,0,1-.41406.96973,1.4141,1.4141,0,0,1-.99512.38281,1.351,1.351,0,0,1-.98437-.39453,1.28938,1.28938,0,0,1-.40234-.958,1.31977,1.31977,0,0,1,.40234-.98145,1.35487,1.35487,0,0,1,.98438-.39453,1.391,1.391,0,0,1,.99512.39453A1.30119,1.30119,0,0,1,358.83545,141.54395Zm-.33789,14.543h-2.12012v-10.6875h2.12012Z"/><path class="c" d="M361.97217,146.59473q-.022-.67676-.06738-1.19531h2.00684c.0293.27051.05273.583.06738.93555q.022.53027.02246.86816h.06738a3.69631,3.69631,0,0,1,1.31934-1.52148,3.45234,3.45234,0,0,1,1.9502-.5752,3.32149,3.32149,0,0,1,.835.08984l-.09082,1.96191a3.98864,3.98864,0,0,0-.96973-.11328,2.94744,2.94744,0,0,0-1.33008.28223,2.71357,2.71357,0,0,0-.93555.75586,3.18782,3.18782,0,0,0-.55273,1.09277,4.62791,4.62791,0,0,0-.17969,1.29688v5.61426h-2.12012v-8.3877C361.99463,147.41406,361.98682,147.04492,361.97217,146.59473Z"/><path class="c" d="M376.32568,147.13574h-2.84082v5.55273a2.10645,2.10645,0,0,0,.36035,1.38184,1.44553,1.44553,0,0,0,1.15039.416,3.454,3.454,0,0,0,.63086-.0625,2.54638,2.54638,0,0,0,.60938-.18555l.06738,1.73633a5.21471,5.21471,0,0,1-.8457.21387,5.67915,5.67915,0,0,1-.958.0791,3.05536,3.05536,0,0,1-2.31152-.834,3.48746,3.48746,0,0,1-.80078-2.50293v-5.79492h-2.05176v-1.73633h2.05176V142.333h2.09766v3.06641h2.84082Z"/><path class="c" d="M380.69092,147.02246a3.30855,3.30855,0,0,1,1.30762-1.35254,3.9028,3.9028,0,0,1,2.07422-.56348,4.1544,4.1544,0,0,1,1.78125.34961,3.6087,3.6087,0,0,1,1.24023.93555,3.78807,3.78807,0,0,1,.7334,1.375,5.88552,5.88552,0,0,1,.23633,1.69141v6.62891h-2.11914V150.165a7.33219,7.33219,0,0,0-.10156-1.24316,2.99307,2.99307,0,0,0-.37207-1.04,2.048,2.048,0,0,0-.7334-.72266,2.36414,2.36414,0,0,0-1.20605-.27148,2.594,2.594,0,0,0-2.07422.96094,3.84366,3.84366,0,0,0-.81152,2.56543v5.67285h-2.12012V139.041H380.646v7.98145Z"/><path class="c" d="M402.51807,147.13574h-2.84082v5.55273a2.10645,2.10645,0,0,0,.36035,1.38184,1.44553,1.44553,0,0,0,1.15039.416,3.454,3.454,0,0,0,.63086-.0625,2.54638,2.54638,0,0,0,.60938-.18555l.06738,1.73633a5.21471,5.21471,0,0,1-.8457.21387,5.67915,5.67915,0,0,1-.958.0791,3.05536,3.05536,0,0,1-2.31152-.834,3.48746,3.48746,0,0,1-.80078-2.50293v-5.79492h-2.05176v-1.73633h2.05176V142.333h2.09766v3.06641h2.84082Z"/><path class="c" d="M415.34033,150.7207a5.77712,5.77712,0,0,1-.43945,2.27734,5.38338,5.38338,0,0,1-3.05566,2.96484,6.42719,6.42719,0,0,1-4.55469,0,5.34419,5.34419,0,0,1-1.82617-1.17187,5.492,5.492,0,0,1-1.20605-1.793,5.77746,5.77746,0,0,1-.44043-2.27734,5.69569,5.69569,0,0,1,.44043-2.26562,5.38514,5.38514,0,0,1,1.20605-1.77051,5.45252,5.45252,0,0,1,1.82617-1.16113,6.42719,6.42719,0,0,1,4.55469,0,5.58411,5.58411,0,0,1,1.83789,1.16113,5.31355,5.31355,0,0,1,1.21777,1.77051A5.69539,5.69539,0,0,1,415.34033,150.7207Zm-2.21.01172a4.50612,4.50612,0,0,0-.2373-1.46191,3.68664,3.68664,0,0,0-.68945-1.22461,3.31022,3.31022,0,0,0-1.12012-.84375,3.86412,3.86412,0,0,0-3.05371,0,3.29689,3.29689,0,0,0-1.11914.84375,3.6888,3.6888,0,0,0-.69043,1.22461,4.6187,4.6187,0,0,0,0,2.92285,3.81406,3.81406,0,0,0,.69043,1.23633,3.22728,3.22728,0,0,0,1.11914.85449,3.86412,3.86412,0,0,0,3.05371,0,3.24,3.24,0,0,0,1.12012-.85449,3.8118,3.8118,0,0,0,.68945-1.23633A4.496,4.496,0,0,0,413.13037,150.73242Z"/><path class="c" d="M304.82471,183.14453h-2.12012v-17.0459h2.12012Z"/><path class="c" d="M310.77881,168.60156a1.26429,1.26429,0,0,1-.41406.96973,1.4141,1.4141,0,0,1-.99512.38281,1.351,1.351,0,0,1-.98437-.39453,1.28938,1.28938,0,0,1-.40234-.958,1.31977,1.31977,0,0,1,.40234-.98145,1.35487,1.35487,0,0,1,.98438-.39453,1.391,1.391,0,0,1,.99512.39453A1.30119,1.30119,0,0,1,310.77881,168.60156Zm-.33789,14.543H308.3208V172.457h2.12012Z"/><path class="c" d="M319.1665,183.14453h-2.2998l-4.35156-10.6875h2.34473l3.13379,8.41016h.0459l3.15625-8.41016h2.25488Z"/><path class="c" d="M335.10889,177.71094v.36035a2.97859,2.97859,0,0,1-.02246.36133h-8.501a3.14431,3.14431,0,0,0,.30469,1.26465,3.32737,3.32737,0,0,0,.75488,1.03027,3.49442,3.49442,0,0,0,1.09375.68262,3.817,3.817,0,0,0,3.19043-.22754,3.81227,3.81227,0,0,0,1.24023-1.14941l1.48828,1.19531a5.32768,5.32768,0,0,1-2.01855,1.67285,6.47844,6.47844,0,0,1-4.83594.13086,5.21341,5.21341,0,0,1-1.78125-1.13867,5.27191,5.27191,0,0,1-1.17285-1.77051,5.97749,5.97749,0,0,1-.42871-2.2998,6.12848,6.12848,0,0,1,.418-2.28809,5.24747,5.24747,0,0,1,1.16406-1.793,5.33257,5.33257,0,0,1,1.7627-1.16113,6.05523,6.05523,0,0,1,4.32715-.03418,4.4066,4.4066,0,0,1,1.627,1.10547,4.98362,4.98362,0,0,1,1.02832,1.74707A6.947,6.947,0,0,1,335.10889,177.71094Zm-2.165-.85742a4.05475,4.05475,0,0,0-.21387-1.18359,2.71849,2.71849,0,0,0-.56348-.958,2.64535,2.64535,0,0,0-.9248-.64258,3.267,3.267,0,0,0-1.29687-.2373,3.41638,3.41638,0,0,0-1.27344.2373,3.295,3.295,0,0,0-1.03711.64258,3.37992,3.37992,0,0,0-.72168.958,3.05877,3.05877,0,0,0-.32715,1.18359Z"/><path class="c" d="M347.73486,180.84473h.04492l2.9541-8.3877h2.25488l-5.18555,13.21289a8.58493,8.58493,0,0,1-.58691,1.207,3.67926,3.67926,0,0,1-.74414.90137,3.0781,3.0781,0,0,1-1.00293.5752,4.12139,4.12139,0,0,1-1.36426.20313q-.33838,0-.6875-.03418a4.91223,4.91223,0,0,1-.71094-.124l.20313-1.87109a3.34394,3.34394,0,0,0,1.05957.17969,1.56568,1.56568,0,0,0,1.24023-.46191,4.532,4.532,0,0,0,.74414-1.31934l.67676-1.78125-4.57715-10.6875h2.36719Z"/><path class="c" d="M365.48,177.77832a5.77712,5.77712,0,0,1-.43945,2.27734,5.38338,5.38338,0,0,1-3.05566,2.96484,6.42719,6.42719,0,0,1-4.55469,0,5.34419,5.34419,0,0,1-1.82617-1.17187,5.492,5.492,0,0,1-1.20605-1.793,5.77746,5.77746,0,0,1-.44043-2.27734,5.69569,5.69569,0,0,1,.44043-2.26562,5.38515,5.38515,0,0,1,1.20605-1.77051,5.45252,5.45252,0,0,1,1.82617-1.16113,6.42719,6.42719,0,0,1,4.55469,0,5.58411,5.58411,0,0,1,1.83789,1.16113,5.31355,5.31355,0,0,1,1.21777,1.77051A5.69539,5.69539,0,0,1,365.48,177.77832Zm-2.21.01172a4.50612,4.50612,0,0,0-.2373-1.46191,3.68664,3.68664,0,0,0-.68945-1.22461,3.31022,3.31022,0,0,0-1.12012-.84375,3.86412,3.86412,0,0,0-3.05371,0,3.29689,3.29689,0,0,0-1.11914.84375,3.6888,3.6888,0,0,0-.69043,1.22461,4.6187,4.6187,0,0,0,0,2.92285,3.81406,3.81406,0,0,0,.69043,1.23633,3.22728,3.22728,0,0,0,1.11914.85449,3.86412,3.86412,0,0,0,3.05371,0,3.24,3.24,0,0,0,1.12012-.85449,3.8118,3.8118,0,0,0,.68945-1.23633A4.496,4.496,0,0,0,363.27,177.79Z"/><path class="c" d="M375.78467,183.14453q-.04541-.40576-.06738-.91309c-.01562-.33789-.02246-.62012-.02246-.8457h-.0459a3.491,3.491,0,0,1-1.36328,1.45508,3.95624,3.95624,0,0,1-2.13086.59668,4.358,4.358,0,0,1-1.793-.33789,3.30482,3.30482,0,0,1-1.24023-.93555,4.00209,4.00209,0,0,1-.72168-1.38672,5.88068,5.88068,0,0,1-.23633-1.69141V172.457h2.11914v5.90723a7.49737,7.49737,0,0,0,.10156,1.252,2.97125,2.97125,0,0,0,.37207,1.04785,2.0079,2.0079,0,0,0,.74414.72168,2.43115,2.43115,0,0,0,1.21777.27051,2.55435,2.55435,0,0,0,2.07422-.958,3.898,3.898,0,0,0,.78906-2.55957V172.457h2.12012v8.3877c0,.28613.00684.6543.02246,1.10547q.022.67529.06738,1.19434Z"/><path class="c" d="M383.09033,172.457c.0293.27051.05273.5752.06738.91309s.02246.62012.02246.8457h.06738a3.12866,3.12866,0,0,1,.55273-.80078,3.99385,3.99385,0,0,1,.80078-.65332,3.929,3.929,0,0,1,.99219-.44043,4.028,4.028,0,0,1,1.127-.15723,4.1544,4.1544,0,0,1,1.78125.34961,3.618,3.618,0,0,1,1.24023.93555,3.78807,3.78807,0,0,1,.7334,1.375,5.88553,5.88553,0,0,1,.23633,1.69141v6.62891h-2.11914v-5.92969a7.29718,7.29718,0,0,0-.10156-1.24023,3.01711,3.01711,0,0,0-.37207-1.03711,2.023,2.023,0,0,0-.74414-.72168,2.43368,2.43368,0,0,0-1.21777-.27051,2.56549,2.56549,0,0,0-2.06348.958,3.86808,3.86808,0,0,0-.7998,2.55957v5.68164h-2.12012v-8.3877c0-.28516-.00781-.6543-.02246-1.10449q-.022-.67676-.06738-1.19531Z"/><path class="c" d="M394.97705,184.9707a5.07994,5.07994,0,0,0,1.74707,1.2627,5.17058,5.17058,0,0,0,2.15332.47363,4.609,4.609,0,0,0,1.78125-.30371,2.98444,2.98444,0,0,0,1.16113-.835,3.23778,3.23778,0,0,0,.63184-1.251,6.08368,6.08368,0,0,0,.19141-1.55566v-1.376h-.04492a3.77066,3.77066,0,0,1-1.60156,1.376,5.05525,5.05525,0,0,1-2.16406.47363,5.61184,5.61184,0,0,1-2.22168-.42871,4.982,4.982,0,0,1-1.70215-1.17285,5.27272,5.27272,0,0,1-1.082-1.74707,5.97632,5.97632,0,0,1-.38379-2.15332,6.07083,6.07083,0,0,1,.38379-2.165,5.38451,5.38451,0,0,1,1.082-1.76953,5.06009,5.06009,0,0,1,1.69141-1.19531,5.39551,5.39551,0,0,1,2.21-.43945,5.075,5.075,0,0,1,2.19824.49609,3.78636,3.78636,0,0,1,1.65723,1.51074h.04492V172.457h2.05176v10.14648a8.46483,8.46483,0,0,1-.293,2.24316,4.88052,4.88052,0,0,1-.99219,1.89453,4.98379,4.98379,0,0,1-1.82617,1.31934,6.95883,6.95883,0,0,1-2.7959.49609,8.25069,8.25069,0,0,1-2.80762-.50781,7.14374,7.14374,0,0,1-2.42383-1.43164Zm.63086-7.28223a4.25282,4.25282,0,0,0,.2373,1.41992,3.49871,3.49871,0,0,0,1.82129,2.0293,3.391,3.391,0,0,0,1.49316.31641,3.70946,3.70946,0,0,0,1.49219-.29395,3.39753,3.39753,0,0,0,1.15332-.7998,3.59447,3.59447,0,0,0,.73535-1.19531,4.14758,4.14758,0,0,0,.25977-1.47656,4.0012,4.0012,0,0,0-.25977-1.44336,3.62,3.62,0,0,0-1.89941-2.01855,3.79355,3.79355,0,0,0-2.97461,0,3.47376,3.47376,0,0,0-1.12012.8125,3.37654,3.37654,0,0,0-.70117,1.19434A4.43526,4.43526,0,0,0,395.60791,177.68848Z"/><path class="c" d="M515.17041,456.92139a3.30273,3.30273,0,0,1,1.30762-1.35254,3.90316,3.90316,0,0,1,2.07422-.564,4.16168,4.16168,0,0,1,1.78125.34961,3.6087,3.6087,0,0,1,1.24023.93555,3.79024,3.79024,0,0,1,.7334,1.37549,5.8831,5.8831,0,0,1,.23633,1.69141v6.62891h-2.11914V460.064a7.338,7.338,0,0,0-.10156-1.24365,2.99045,2.99045,0,0,0-.37207-1.03955,2.04936,2.04936,0,0,0-.7334-.72314,2.36414,2.36414,0,0,0-1.20605-.27148,2.594,2.594,0,0,0-2.07422.96094,3.84454,3.84454,0,0,0-.81152,2.56543v5.67334h-2.12012V448.93945h2.12012v7.98193Z"/><path class="c" d="M536.81006,460.61963a5.77883,5.77883,0,0,1-.43945,2.27734,5.41058,5.41058,0,0,1-1.21777,1.79248,5.4796,5.4796,0,0,1-1.83789,1.17236,6.42719,6.42719,0,0,1-4.55469,0,5.35258,5.35258,0,0,1-1.82617-1.17236A5.48475,5.48475,0,0,1,525.728,462.897a5.77918,5.77918,0,0,1-.44043-2.27734,5.69809,5.69809,0,0,1,.44043-2.26611,5.38814,5.38814,0,0,1,1.20605-1.77,5.45366,5.45366,0,0,1,1.82617-1.16162,6.42719,6.42719,0,0,1,4.55469,0,5.58528,5.58528,0,0,1,1.83789,1.16162,5.31646,5.31646,0,0,1,1.21777,1.77A5.69779,5.69779,0,0,1,536.81006,460.61963Zm-2.21.01123a4.501,4.501,0,0,0-.2373-1.46143,3.68894,3.68894,0,0,0-.68945-1.2251,3.309,3.309,0,0,0-1.12012-.84326,3.85862,3.85862,0,0,0-3.05371,0,3.29565,3.29565,0,0,0-1.11914.84326,3.69111,3.69111,0,0,0-.69043,1.2251,4.6187,4.6187,0,0,0,0,2.92285,3.82422,3.82422,0,0,0,.69043,1.23633,3.23318,3.23318,0,0,0,1.11914.85449,3.86412,3.86412,0,0,0,3.05371,0,3.246,3.246,0,0,0,1.12012-.85449,3.82194,3.82194,0,0,0,.68945-1.23633A4.501,4.501,0,0,0,534.6001,460.63086Z"/><path class="c" d="M541.6958,471.39746h-2.12012V455.29785h2.07422v1.66895h.06836a3.9477,3.9477,0,0,1,1.51758-1.40918,4.74408,4.74408,0,0,1,2.32813-.55273,5.3553,5.3553,0,0,1,2.1709.42871,5.0059,5.0059,0,0,1,1.68652,1.19482,5.37537,5.37537,0,0,1,1.09082,1.79248,6.24688,6.24688,0,0,1,.38281,2.19873,6.3364,6.3364,0,0,1-.38281,2.20947,5.44522,5.44522,0,0,1-1.0791,1.80371,4.98094,4.98094,0,0,1-1.6875,1.20654,5.426,5.426,0,0,1-2.22656.43945,4.84381,4.84381,0,0,1-2.15918-.49609,3.90158,3.90158,0,0,1-1.59668-1.39795h-.06738ZM548.73,460.61963a4.70106,4.70106,0,0,0-.22461-1.44336,3.70082,3.70082,0,0,0-.67676-1.24023,3.2395,3.2395,0,0,0-1.11621-.85645,3.56444,3.56444,0,0,0-1.54492-.31592,3.39985,3.39985,0,0,0-1.47656.31592,3.47029,3.47029,0,0,0-1.13867.85645,3.94006,3.94006,0,0,0-.73242,1.24023,4.26421,4.26421,0,0,0,0,2.93115,3.79658,3.79658,0,0,0,.73242,1.229,3.5441,3.5441,0,0,0,1.13867.8457,3.39963,3.39963,0,0,0,1.47656.31543,3.46249,3.46249,0,0,0,1.54492-.32666,3.362,3.362,0,0,0,1.11621-.86816,3.69612,3.69612,0,0,0,.67676-1.24023A4.698,4.698,0,0,0,548.73,460.61963Z"/><path class="c" d="M503.12354,486.12109a2.12833,2.12833,0,0,0-.72168-1.77,2.98821,2.98821,0,0,0-1.917-.57471,4.21367,4.21367,0,0,0-1.70215.34912,4.3073,4.3073,0,0,0-1.3418.89111l-1.127-1.353a5.67787,5.67787,0,0,1,1.92773-1.17236,6.88676,6.88676,0,0,1,2.44629-.42871,5.52519,5.52519,0,0,1,1.99512.32715,3.76588,3.76588,0,0,1,1.38672.89063,3.63447,3.63447,0,0,1,.81152,1.33008,4.90567,4.90567,0,0,1,.27148,1.646v4.66748q0,.54126.0332,1.13867a5.79493,5.79493,0,0,0,.124.981h-1.916a6.62514,6.62514,0,0,1-.18066-1.5332H503.146a4.10927,4.10927,0,0,1-1.47754,1.33008,4.42629,4.42629,0,0,1-2.1084.47363,5.51074,5.51074,0,0,1-1.31836-.16895,3.82781,3.82781,0,0,1-1.252-.55273,3.111,3.111,0,0,1-.93555-1.01465,3.0152,3.0152,0,0,1-.37207-1.55566,2.7337,2.7337,0,0,1,.6543-1.92773,4.13935,4.13935,0,0,1,1.71289-1.08252,9.71216,9.71216,0,0,1,2.39063-.48486q1.33008-.11206,2.68359-.1123Zm-.51953,1.82666q-.78955,0-1.63379.06738a7.58147,7.58147,0,0,0-1.53418.27051,2.90447,2.90447,0,0,0-1.13867.60889,1.38382,1.38382,0,0,0-.4502,1.08252,1.49583,1.49583,0,0,0,.19141.78906,1.59658,1.59658,0,0,0,.50684.51855,2.03724,2.03724,0,0,0,.69922.28174,3.862,3.862,0,0,0,.78906.0791,2.91964,2.91964,0,0,0,2.28906-.89062,3.233,3.233,0,0,0,.80078-2.24365v-.56348Z"/><path class="c" d="M508.48877,483.55078q-.022-.67676-.06738-1.19531h2.00684c.0293.271.05273.583.06738.936q.022.53027.02246.86816h.06738a3.69765,3.69765,0,0,1,1.31934-1.522,3.45613,3.45613,0,0,1,1.9502-.5752,3.29681,3.29681,0,0,1,.835.09033l-.09082,1.96143a4.01324,4.01324,0,0,0-.96973-.11279,2.941,2.941,0,0,0-1.33008.28223,2.71229,2.71229,0,0,0-.93555.75537,3.19018,3.19018,0,0,0-.55273,1.09326,4.6254,4.6254,0,0,0-.17969,1.29688v5.61426h-2.12012v-8.3877Q508.51123,484.22729,508.48877,483.55078Z"/><path class="c" d="M527.36865,487.67725a5.77883,5.77883,0,0,1-.43945,2.27734,5.41058,5.41058,0,0,1-1.21777,1.79248,5.4796,5.4796,0,0,1-1.83789,1.17236,6.42719,6.42719,0,0,1-4.55469,0,5.35258,5.35258,0,0,1-1.82617-1.17236,5.48475,5.48475,0,0,1-1.20605-1.79248,5.77918,5.77918,0,0,1-.44043-2.27734,5.69809,5.69809,0,0,1,.44043-2.26611,5.38814,5.38814,0,0,1,1.20605-1.77,5.45366,5.45366,0,0,1,1.82617-1.16162,6.42719,6.42719,0,0,1,4.55469,0,5.58529,5.58529,0,0,1,1.83789,1.16162,5.31646,5.31646,0,0,1,1.21777,1.77A5.69779,5.69779,0,0,1,527.36865,487.67725Zm-2.21.01123a4.501,4.501,0,0,0-.2373-1.46143,3.68894,3.68894,0,0,0-.68945-1.2251,3.309,3.309,0,0,0-1.12012-.84326,3.85862,3.85862,0,0,0-3.05371,0,3.29565,3.29565,0,0,0-1.11914.84326,3.69111,3.69111,0,0,0-.69043,1.2251,4.6187,4.6187,0,0,0,0,2.92285,3.82422,3.82422,0,0,0,.69043,1.23633,3.23318,3.23318,0,0,0,1.11914.85449,3.86412,3.86412,0,0,0,3.05371,0,3.246,3.246,0,0,0,1.12012-.85449,3.82194,3.82194,0,0,0,.68945-1.23633A4.501,4.501,0,0,0,525.15869,487.68848Z"/><path class="c" d="M537.67334,493.04346q-.04541-.40576-.06738-.91309c-.01562-.33838-.02246-.62012-.02246-.8457h-.0459a3.49,3.49,0,0,1-1.36328,1.45459,3.95241,3.95241,0,0,1-2.13086.59717,4.366,4.366,0,0,1-1.793-.33789,3.30593,3.30593,0,0,1-1.24023-.936,3.99775,3.99775,0,0,1-.72168-1.38672,5.87487,5.87487,0,0,1-.23633-1.69092v-6.62939h2.11914v5.90771a7.49146,7.49146,0,0,0,.10156,1.25146,2.97735,2.97735,0,0,0,.37207,1.04834,2.01541,2.01541,0,0,0,.74414.72168,2.43115,2.43115,0,0,0,1.21777.27051,2.55576,2.55576,0,0,0,2.07422-.958,3.89891,3.89891,0,0,0,.78906-2.55957v-5.68213h2.12012v8.38818c0,.28564.00684.65381.02246,1.105q.022.676.06738,1.19482Z"/><path class="c" d="M544.978,482.35547c.0293.271.05273.5752.06738.91357.01465.33789.02246.62012.02246.84521h.06738a3.12631,3.12631,0,0,1,.55273-.80029,4.0128,4.0128,0,0,1,.80078-.65381,3.94531,3.94531,0,0,1,.99219-.43994,4.01045,4.01045,0,0,1,1.127-.15771,4.16168,4.16168,0,0,1,1.78125.34961,3.618,3.618,0,0,1,1.24023.93555,3.79024,3.79024,0,0,1,.7334,1.37549,5.8831,5.8831,0,0,1,.23633,1.69141v6.62891H550.48v-5.93018a7.30137,7.30137,0,0,0-.10156-1.24023,3.01711,3.01711,0,0,0-.37207-1.03711,2.02678,2.02678,0,0,0-.74414-.72168,2.43888,2.43888,0,0,0-1.21777-.27051,2.56593,2.56593,0,0,0-2.06348.9585,3.8667,3.8667,0,0,0-.7998,2.55908v5.68213H543.061v-8.3877q0-.42847-.02246-1.105-.022-.67676-.06738-1.19531Z"/><path class="c" d="M564.56494,491.35254a3.941,3.941,0,0,1-1.65723,1.47656,4.98406,4.98406,0,0,1-2.19824.50732,5.4541,5.4541,0,0,1-2.23242-.43945,4.98709,4.98709,0,0,1-1.69141-1.20654,5.43554,5.43554,0,0,1-1.082-1.80371,6.31447,6.31447,0,0,1-.38379-2.20947,6.22532,6.22532,0,0,1,.38379-2.19873,5.36646,5.36646,0,0,1,1.09375-1.79248,4.98273,4.98273,0,0,1,1.70215-1.19482,5.45919,5.45919,0,0,1,2.1875-.42871,4.52609,4.52609,0,0,1,2.27734.55273,4.72,4.72,0,0,1,1.5332,1.34131h.04492v-7.95947h2.11914v17.04639h-2.05176v-1.69092Zm-7.03516-3.66406a4.63966,4.63966,0,0,0,.22559,1.43848,3.66782,3.66782,0,0,0,.67676,1.23682,3.55031,3.55031,0,0,0,4.11426.877,3.54446,3.54446,0,0,0,1.13867-.84326,3.791,3.791,0,0,0,.7334-1.2251,4.25585,4.25585,0,0,0,0-2.92285,3.92926,3.92926,0,0,0-.7334-1.23633,3.47158,3.47158,0,0,0-1.13867-.85449,3.40641,3.40641,0,0,0-1.47656-.31494,3.49706,3.49706,0,0,0-1.5332.31494,3.25207,3.25207,0,0,0-1.10449.85449,3.6702,3.6702,0,0,0-.67676,1.23633A4.645,4.645,0,0,0,557.52979,487.68848Z"/><path class="c" d="M440.50293,277.60352v1.69092H438.4502V262.248h2.12012v7.95947h.06738a4.46367,4.46367,0,0,1,1.50684-1.34131,4.54891,4.54891,0,0,1,2.29395-.55273,5.3553,5.3553,0,0,1,2.1709.42871,4.99629,4.99629,0,0,1,1.68652,1.19482,5.37538,5.37538,0,0,1,1.09082,1.79248,6.2249,6.2249,0,0,1,.38281,2.19873,6.314,6.314,0,0,1-.38281,2.20947,5.44522,5.44522,0,0,1-1.0791,1.80371,4.98657,4.98657,0,0,1-1.68652,1.20654,5.43392,5.43392,0,0,1-2.22754.43945,4.88966,4.88966,0,0,1-2.18164-.50732,4.09723,4.09723,0,0,1-1.66406-1.47656Zm7.10254-3.66406a4.67407,4.67407,0,0,0-.22559-1.439,3.6702,3.6702,0,0,0-.67676-1.23633,3.24039,3.24039,0,0,0-1.11621-.85449,3.57009,3.57009,0,0,0-1.54395-.31494,3.40769,3.40769,0,0,0-1.47754.31494,3.47158,3.47158,0,0,0-1.13867.85449,3.94519,3.94519,0,0,0-.73242,1.23633,4.24083,4.24083,0,0,0,0,2.92285,3.80592,3.80592,0,0,0,.73242,1.2251,3.54446,3.54446,0,0,0,1.13867.84326,3.40748,3.40748,0,0,0,1.47754.31445,3.46766,3.46766,0,0,0,1.54395-.32568,3.36185,3.36185,0,0,0,1.11621-.86572,3.66782,3.66782,0,0,0,.67676-1.23682A4.66869,4.66869,0,0,0,447.60547,273.93945Z"/><path class="c" d="M452.54,269.80176q-.022-.67676-.06738-1.19531h2.00684c.0293.271.05273.583.06738.936q.022.53027.02246.86816h.06738a3.69765,3.69765,0,0,1,1.31934-1.522,3.45613,3.45613,0,0,1,1.9502-.5752,3.29681,3.29681,0,0,1,.835.09033l-.09082,1.96143a4.01323,4.01323,0,0,0-.96973-.11279,2.941,2.941,0,0,0-1.33008.28223,2.71229,2.71229,0,0,0-.93555.75537,3.19017,3.19017,0,0,0-.55273,1.09326,4.6254,4.6254,0,0,0-.17969,1.29688v5.61426H452.5625v-8.3877Q452.5625,270.47827,452.54,269.80176Z"/><path class="c" d="M470.6084,273.86035v.36084a2.97671,2.97671,0,0,1-.02246.36084h-8.501a3.1466,3.1466,0,0,0,.30469,1.26514,3.32737,3.32737,0,0,0,.75488,1.03027,3.49442,3.49442,0,0,0,1.09375.68262,3.817,3.817,0,0,0,3.19043-.22754,3.81352,3.81352,0,0,0,1.24023-1.1499l1.48828,1.19531a5.31875,5.31875,0,0,1-2.01855,1.67285,6.47215,6.47215,0,0,1-4.83594.13086,5.20616,5.20616,0,0,1-1.78125-1.13867,5.26979,5.26979,0,0,1-1.17285-1.77,5.97749,5.97749,0,0,1-.42871-2.2998,6.131,6.131,0,0,1,.418-2.28857,5.24537,5.24537,0,0,1,1.16406-1.79248,5.3338,5.3338,0,0,1,1.7627-1.16162,6.05172,6.05172,0,0,1,4.32715-.03369,4.41134,4.41134,0,0,1,1.627,1.105,4.98143,4.98143,0,0,1,1.02832,1.74756A6.944,6.944,0,0,1,470.6084,273.86035Zm-2.165-.85693a4.04885,4.04885,0,0,0-.21387-1.18359,2.72062,2.72062,0,0,0-.56348-.9585,2.65176,2.65176,0,0,0-.9248-.64258,3.27584,3.27584,0,0,0-1.29687-.23682,3.42585,3.42585,0,0,0-1.27344.23682,3.30383,3.30383,0,0,0-1.03711.64258,3.38219,3.38219,0,0,0-.72168.9585,3.05407,3.05407,0,0,0-.32715,1.18359Z"/><path class="c" d="M480.02734,272.37207a2.12833,2.12833,0,0,0-.72168-1.77,2.98821,2.98821,0,0,0-1.917-.57471,4.21367,4.21367,0,0,0-1.70215.34912,4.3073,4.3073,0,0,0-1.3418.89111l-1.127-1.353a5.67787,5.67787,0,0,1,1.92773-1.17236,6.88676,6.88676,0,0,1,2.44629-.42871,5.52519,5.52519,0,0,1,1.99512.32715,3.76587,3.76587,0,0,1,1.38672.89063,3.63447,3.63447,0,0,1,.81152,1.33008,4.90567,4.90567,0,0,1,.27148,1.646v4.66748q0,.54126.0332,1.13867a5.79493,5.79493,0,0,0,.124.981h-1.916a6.62514,6.62514,0,0,1-.18066-1.5332h-.06738a4.10927,4.10927,0,0,1-1.47754,1.33008,4.42629,4.42629,0,0,1-2.1084.47363,5.51074,5.51074,0,0,1-1.31836-.16895,3.82781,3.82781,0,0,1-1.252-.55273,3.111,3.111,0,0,1-.93555-1.01465,3.0152,3.0152,0,0,1-.37207-1.55566,2.7337,2.7337,0,0,1,.6543-1.92773,4.13935,4.13935,0,0,1,1.71289-1.08252,9.71216,9.71216,0,0,1,2.39063-.48486q1.33008-.11206,2.68359-.1123Zm-.51953,1.82666q-.78955,0-1.63379.06738a7.58146,7.58146,0,0,0-1.53418.27051,2.90447,2.90447,0,0,0-1.13867.60889,1.38382,1.38382,0,0,0-.4502,1.08252,1.49583,1.49583,0,0,0,.19141.78906,1.59658,1.59658,0,0,0,.50684.51855,2.03724,2.03724,0,0,0,.69922.28174,3.862,3.862,0,0,0,.78906.0791,2.91964,2.91964,0,0,0,2.28906-.89062,3.233,3.233,0,0,0,.80078-2.24365v-.56348Z"/><path class="c" d="M490.7998,270.34277H487.959v5.55273a2.10708,2.10708,0,0,0,.36035,1.38232,1.44537,1.44537,0,0,0,1.15039.41553,3.49475,3.49475,0,0,0,.63086-.062,2.54647,2.54647,0,0,0,.60938-.186l.06738,1.73633a5.16378,5.16378,0,0,1-.8457.21436,5.73073,5.73073,0,0,1-.958.07861,3.05351,3.05351,0,0,1-2.31152-.834,3.48587,3.48587,0,0,1-.80078-2.50293v-5.79492h-2.05176v-1.73633h2.05176V265.54H487.959v3.06641h2.84082Z"/><path class="c" d="M495.16992,270.23a3.30273,3.30273,0,0,1,1.30762-1.35254,3.90316,3.90316,0,0,1,2.07422-.564,4.16168,4.16168,0,0,1,1.78125.34961,3.6087,3.6087,0,0,1,1.24023.93555,3.79024,3.79024,0,0,1,.7334,1.37549,5.8831,5.8831,0,0,1,.23633,1.69141v6.62891h-2.11914v-5.92187a7.338,7.338,0,0,0-.10156-1.24365,2.99045,2.99045,0,0,0-.37207-1.03955,2.04936,2.04936,0,0,0-.7334-.72314,2.36414,2.36414,0,0,0-1.20605-.27148,2.594,2.594,0,0,0-2.07422.96094,3.84454,3.84454,0,0,0-.81152,2.56543v5.67334h-2.12012V262.248H495.125V270.23Z"/><path class="c" d="M515.97461,273.86035v.36084a2.97669,2.97669,0,0,1-.02246.36084h-8.501a3.14659,3.14659,0,0,0,.30469,1.26514,3.32737,3.32737,0,0,0,.75488,1.03027,3.49442,3.49442,0,0,0,1.09375.68262,3.817,3.817,0,0,0,3.19043-.22754,3.81352,3.81352,0,0,0,1.24023-1.1499l1.48828,1.19531a5.31875,5.31875,0,0,1-2.01855,1.67285,6.47215,6.47215,0,0,1-4.83594.13086,5.20616,5.20616,0,0,1-1.78125-1.13867,5.26979,5.26979,0,0,1-1.17285-1.77,5.97749,5.97749,0,0,1-.42871-2.2998,6.131,6.131,0,0,1,.418-2.28857,5.24537,5.24537,0,0,1,1.16406-1.79248,5.3338,5.3338,0,0,1,1.7627-1.16162,6.05172,6.05172,0,0,1,4.32715-.03369,4.41134,4.41134,0,0,1,1.627,1.105,4.98143,4.98143,0,0,1,1.02832,1.74756A6.944,6.944,0,0,1,515.97461,273.86035Zm-2.165-.85693a4.04884,4.04884,0,0,0-.21387-1.18359,2.72062,2.72062,0,0,0-.56348-.9585,2.65176,2.65176,0,0,0-.9248-.64258,3.27584,3.27584,0,0,0-1.29687-.23682,3.42585,3.42585,0,0,0-1.27344.23682,3.30383,3.30383,0,0,0-1.03711.64258,3.38219,3.38219,0,0,0-.72168.9585,3.05407,3.05407,0,0,0-.32715,1.18359Z"/><path class="c" d="M453.542,299.42969a2.12833,2.12833,0,0,0-.72168-1.77,2.98821,2.98821,0,0,0-1.917-.57471,4.21367,4.21367,0,0,0-1.70215.34912,4.3073,4.3073,0,0,0-1.3418.89111l-1.127-1.353a5.67787,5.67787,0,0,1,1.92773-1.17236,6.88676,6.88676,0,0,1,2.44629-.42871,5.52519,5.52519,0,0,1,1.99512.32715,3.76587,3.76587,0,0,1,1.38672.89063,3.63447,3.63447,0,0,1,.81152,1.33008,4.90567,4.90567,0,0,1,.27148,1.646v4.66748q0,.54126.0332,1.13867a5.795,5.795,0,0,0,.124.981h-1.916a6.62514,6.62514,0,0,1-.18066-1.5332h-.06738a4.10927,4.10927,0,0,1-1.47754,1.33008,4.42629,4.42629,0,0,1-2.1084.47363,5.51075,5.51075,0,0,1-1.31836-.16895,3.82781,3.82781,0,0,1-1.252-.55273,3.111,3.111,0,0,1-.93555-1.01465,3.0152,3.0152,0,0,1-.37207-1.55566,2.7337,2.7337,0,0,1,.6543-1.92773,4.13935,4.13935,0,0,1,1.71289-1.08252,9.71216,9.71216,0,0,1,2.39063-.48486q1.33008-.11206,2.68359-.1123Zm-.51953,1.82666q-.78955,0-1.63379.06738a7.58147,7.58147,0,0,0-1.53418.27051,2.90448,2.90448,0,0,0-1.13867.60889,1.38382,1.38382,0,0,0-.4502,1.08252,1.49583,1.49583,0,0,0,.19141.78906,1.59658,1.59658,0,0,0,.50684.51855,2.03724,2.03724,0,0,0,.69922.28174,3.862,3.862,0,0,0,.78906.0791,2.91964,2.91964,0,0,0,2.28906-.89062,3.233,3.233,0,0,0,.80078-2.24365v-.56348Z"/><path class="c" d="M461.00781,304.66113v1.69092h-2.05273V289.30566h2.12012v7.95947h.06738a4.46367,4.46367,0,0,1,1.50684-1.34131,4.54891,4.54891,0,0,1,2.29395-.55273,5.3553,5.3553,0,0,1,2.1709.42871,4.99629,4.99629,0,0,1,1.68652,1.19482,5.37537,5.37537,0,0,1,1.09082,1.79248,6.2249,6.2249,0,0,1,.38281,2.19873,6.314,6.314,0,0,1-.38281,2.20947,5.44521,5.44521,0,0,1-1.0791,1.80371,4.98657,4.98657,0,0,1-1.68652,1.20654,5.43392,5.43392,0,0,1-2.22754.43945,4.88966,4.88966,0,0,1-2.18164-.50732,4.09723,4.09723,0,0,1-1.66406-1.47656Zm7.10254-3.66406a4.67407,4.67407,0,0,0-.22559-1.439,3.6702,3.6702,0,0,0-.67676-1.23633,3.2404,3.2404,0,0,0-1.11621-.85449,3.57009,3.57009,0,0,0-1.54395-.31494,3.40769,3.40769,0,0,0-1.47754.31494,3.47159,3.47159,0,0,0-1.13867.85449,3.94519,3.94519,0,0,0-.73242,1.23633,4.24083,4.24083,0,0,0,0,2.92285,3.80591,3.80591,0,0,0,.73242,1.2251,3.54446,3.54446,0,0,0,1.13867.84326,3.40748,3.40748,0,0,0,1.47754.31445,3.46766,3.46766,0,0,0,1.54395-.32568,3.36185,3.36185,0,0,0,1.11621-.86572,3.66782,3.66782,0,0,0,.67676-1.23682A4.66869,4.66869,0,0,0,468.11035,300.99707Z"/><path class="c" d="M483.96777,300.98584a5.77883,5.77883,0,0,1-.43945,2.27734,5.41058,5.41058,0,0,1-1.21777,1.79248,5.4796,5.4796,0,0,1-1.83789,1.17236,6.42719,6.42719,0,0,1-4.55469,0,5.35258,5.35258,0,0,1-1.82617-1.17236,5.48475,5.48475,0,0,1-1.20605-1.79248,5.77918,5.77918,0,0,1-.44043-2.27734,5.69809,5.69809,0,0,1,.44043-2.26611,5.38814,5.38814,0,0,1,1.20605-1.77,5.45366,5.45366,0,0,1,1.82617-1.16162,6.42719,6.42719,0,0,1,4.55469,0,5.58529,5.58529,0,0,1,1.83789,1.16162,5.31646,5.31646,0,0,1,1.21777,1.77A5.69779,5.69779,0,0,1,483.96777,300.98584Zm-2.21.01123a4.501,4.501,0,0,0-.2373-1.46143,3.68894,3.68894,0,0,0-.68945-1.2251,3.309,3.309,0,0,0-1.12012-.84326,3.85862,3.85862,0,0,0-3.05371,0,3.29565,3.29565,0,0,0-1.11914.84326,3.69111,3.69111,0,0,0-.69043,1.2251,4.6187,4.6187,0,0,0,0,2.92285,3.82422,3.82422,0,0,0,.69043,1.23633,3.23318,3.23318,0,0,0,1.11914.85449,3.86412,3.86412,0,0,0,3.05371,0,3.246,3.246,0,0,0,1.12012-.85449,3.82194,3.82194,0,0,0,.68945-1.23633A4.501,4.501,0,0,0,481.75781,300.99707Z"/><path class="c" d="M491.54492,306.35205h-2.2998l-4.35156-10.688h2.34473l3.13379,8.41064h.0459l3.15625-8.41064h2.25488Z"/><path class="c" d="M507.48926,300.918v.36084a2.97671,2.97671,0,0,1-.02246.36084h-8.501a3.14659,3.14659,0,0,0,.30469,1.26514,3.32737,3.32737,0,0,0,.75488,1.03027,3.49442,3.49442,0,0,0,1.09375.68262,3.817,3.817,0,0,0,3.19043-.22754,3.81353,3.81353,0,0,0,1.24023-1.1499l1.48828,1.19531a5.31875,5.31875,0,0,1-2.01855,1.67285,6.47215,6.47215,0,0,1-4.83594.13086,5.20616,5.20616,0,0,1-1.78125-1.13867,5.26978,5.26978,0,0,1-1.17285-1.77,5.97749,5.97749,0,0,1-.42871-2.2998,6.131,6.131,0,0,1,.418-2.28857,5.24537,5.24537,0,0,1,1.16406-1.79248,5.3338,5.3338,0,0,1,1.7627-1.16162,6.05172,6.05172,0,0,1,4.32715-.03369,4.41134,4.41134,0,0,1,1.627,1.105,4.98143,4.98143,0,0,1,1.02832,1.74756A6.944,6.944,0,0,1,507.48926,300.918Zm-2.165-.85693a4.04885,4.04885,0,0,0-.21387-1.18359,2.72062,2.72062,0,0,0-.56348-.9585,2.65176,2.65176,0,0,0-.9248-.64258,3.27584,3.27584,0,0,0-1.29687-.23682,3.42585,3.42585,0,0,0-1.27344.23682,3.30383,3.30383,0,0,0-1.03711.64258,3.38219,3.38219,0,0,0-.72168.9585,3.05407,3.05407,0,0,0-.32715,1.18359Z"/><path class="c" d="M450.60352,322.72266l2.41309,8.16211h.04492l2.54785-8.16211h2.23242l2.59277,8.16211h.04492l2.41309-8.16211H465.125l-3.54,10.6875h-2.21l-2.6377-8.02734h-.0459l-2.61523,8.02734h-2.21l-3.5625-10.6875Z"/><path class="c" d="M473.77637,326.48828a2.12934,2.12934,0,0,0-.72168-1.77051,2.99121,2.99121,0,0,0-1.917-.5752,4.214,4.214,0,0,0-1.70215.34961,4.31474,4.31474,0,0,0-1.3418.89063l-1.127-1.35254a5.68651,5.68651,0,0,1,1.92773-1.17285,6.89721,6.89721,0,0,1,2.44629-.42773,5.526,5.526,0,0,1,1.99512.32617,3.7845,3.7845,0,0,1,1.38672.89063,3.63842,3.63842,0,0,1,.81152,1.33105,4.90074,4.90074,0,0,1,.27148,1.64551v4.668q0,.54053.0332,1.13867a5.79513,5.79513,0,0,0,.124.98047h-1.916a6.62825,6.62825,0,0,1-.18066-1.5332h-.06738a4.10927,4.10927,0,0,1-1.47754,1.33008,4.432,4.432,0,0,1-2.1084.47363,5.5356,5.5356,0,0,1-1.31836-.16895,3.83806,3.83806,0,0,1-1.252-.55273,3.111,3.111,0,0,1-.93555-1.01465,3.01767,3.01767,0,0,1-.37207-1.55566,2.7337,2.7337,0,0,1,.6543-1.92773,4.13856,4.13856,0,0,1,1.71289-1.082,9.68919,9.68919,0,0,1,2.39063-.48535q1.33008-.11279,2.68359-.1123Zm-.51953,1.82617q-.78955,0-1.63379.06738a7.58147,7.58147,0,0,0-1.53418.27051,2.91143,2.91143,0,0,0-1.13867.60938,1.38277,1.38277,0,0,0-.4502,1.082,1.49464,1.49464,0,0,0,.19141.78906,1.5871,1.5871,0,0,0,.50684.51855,2.03809,2.03809,0,0,0,.69922.28223,3.8965,3.8965,0,0,0,.78906.07813,2.91633,2.91633,0,0,0,2.28906-.89062,3.22927,3.22927,0,0,0,.80078-2.24316v-.56348Z"/><path class="c" d="M484.5498,324.459H481.709v5.55176a2.10771,2.10771,0,0,0,.36035,1.38281,1.44553,1.44553,0,0,0,1.15039.416,3.454,3.454,0,0,0,.63086-.0625,2.59143,2.59143,0,0,0,.60938-.18555l.06738,1.73633a5.21471,5.21471,0,0,1-.8457.21387,5.67915,5.67915,0,0,1-.958.0791,3.05209,3.05209,0,0,1-2.31152-.835,3.48329,3.48329,0,0,1-.80078-2.502V324.459h-2.05176v-1.73633h2.05176v-3.06689H481.709v3.06689h2.84082Z"/><path class="c" d="M496.56152,327.97656v.36035a2.97486,2.97486,0,0,1-.02246.36035h-8.501a3.14888,3.14888,0,0,0,.30469,1.26563,3.32738,3.32738,0,0,0,.75488,1.03027,3.49442,3.49442,0,0,0,1.09375.68262,3.817,3.817,0,0,0,3.19043-.22754,3.82275,3.82275,0,0,0,1.24023-1.14941l1.48828,1.19434a5.32157,5.32157,0,0,1-2.01855,1.67383,6.47844,6.47844,0,0,1-4.83594.13086,5.119,5.119,0,0,1-2.9541-2.90918,5.97749,5.97749,0,0,1-.42871-2.2998,6.13727,6.13727,0,0,1,.418-2.28906,5.25265,5.25265,0,0,1,1.16406-1.792,5.33257,5.33257,0,0,1,1.7627-1.16113,6.05523,6.05523,0,0,1,4.32715-.03418,4.41609,4.41609,0,0,1,1.627,1.10449,4.988,4.988,0,0,1,1.02832,1.748A6.94291,6.94291,0,0,1,496.56152,327.97656Zm-2.165-.85742a4.043,4.043,0,0,0-.21387-1.18359,2.71849,2.71849,0,0,0-.56348-.958,2.64535,2.64535,0,0,0-.9248-.64258,3.267,3.267,0,0,0-1.29687-.2373,3.41638,3.41638,0,0,0-1.27344.2373,3.295,3.295,0,0,0-1.03711.64258,3.37992,3.37992,0,0,0-.72168.958,3.04937,3.04937,0,0,0-.32715,1.18359Z"/><path class="c" d="M499.31152,323.917q-.022-.67529-.06738-1.19434H501.251c.0293.27051.05273.582.06738.93555s.02246.64258.02246.86816h.06738a3.699,3.699,0,0,1,1.31934-1.52246,3.4591,3.4591,0,0,1,1.9502-.57422,3.32149,3.32149,0,0,1,.835.08984l-.09082,1.96191a3.98864,3.98864,0,0,0-.96973-.11328,2.94744,2.94744,0,0,0-1.33008.28223,2.72221,2.72221,0,0,0-.93555.75488,3.20133,3.20133,0,0,0-.55273,1.09375,4.62791,4.62791,0,0,0-.17969,1.29688v5.61426H499.334v-8.3877C499.334,324.7373,499.32617,324.36816,499.31152,323.917Z"/><path class="c" d="M213.95752,279.29395H211.8374V262.24756h2.12012Z"/><path class="c" d="M219.91162,264.75049a1.26284,1.26284,0,0,1-.41406.96973,1.41238,1.41238,0,0,1-.99512.3833,1.35292,1.35292,0,0,1-.98437-.39453,1.29122,1.29122,0,0,1-.40234-.9585,1.31792,1.31792,0,0,1,.40234-.981,1.35487,1.35487,0,0,1,.98438-.39453,1.391,1.391,0,0,1,.99512.39453A1.29939,1.29939,0,0,1,219.91162,264.75049Zm-.33789,14.54346h-2.12012V268.606h2.12012Z"/><path class="c" d="M228.29932,279.29395h-2.2998l-4.35156-10.688h2.34473l3.13379,8.41064h.0459l3.15625-8.41064h2.25488Z"/><path class="c" d="M244.2417,273.85986v.36084a2.97672,2.97672,0,0,1-.02246.36084h-8.501a3.1466,3.1466,0,0,0,.30469,1.26514,3.32737,3.32737,0,0,0,.75488,1.03027,3.49442,3.49442,0,0,0,1.09375.68262,3.817,3.817,0,0,0,3.19043-.22754,3.81352,3.81352,0,0,0,1.24023-1.1499l1.48828,1.19531a5.31875,5.31875,0,0,1-2.01855,1.67285,6.47215,6.47215,0,0,1-4.83594.13086,5.20616,5.20616,0,0,1-1.78125-1.13867,5.26979,5.26979,0,0,1-1.17285-1.77,5.97749,5.97749,0,0,1-.42871-2.2998,6.131,6.131,0,0,1,.418-2.28857,5.24537,5.24537,0,0,1,1.16406-1.79248,5.3338,5.3338,0,0,1,1.7627-1.16162,6.05172,6.05172,0,0,1,4.32715-.03369,4.41134,4.41134,0,0,1,1.627,1.105,4.98143,4.98143,0,0,1,1.02832,1.74756A6.944,6.944,0,0,1,244.2417,273.85986Zm-2.165-.85693a4.04885,4.04885,0,0,0-.21387-1.18359,2.72062,2.72062,0,0,0-.56348-.9585,2.65176,2.65176,0,0,0-.9248-.64258,3.27584,3.27584,0,0,0-1.29687-.23682,3.42585,3.42585,0,0,0-1.27344.23682,3.30384,3.30384,0,0,0-1.03711.64258,3.38219,3.38219,0,0,0-.72168.9585,3.05407,3.05407,0,0,0-.32715,1.18359Z"/><path class="c" d="M206.52295,306.35156q-.04541-.40576-.06738-.91309c-.01562-.33838-.02246-.62012-.02246-.8457h-.0459a3.49,3.49,0,0,1-1.36328,1.45459,3.95241,3.95241,0,0,1-2.13086.59717,4.366,4.366,0,0,1-1.793-.33789,3.30593,3.30593,0,0,1-1.24023-.936,3.99776,3.99776,0,0,1-.72168-1.38672,5.87487,5.87487,0,0,1-.23633-1.69092v-6.62939H201.021v5.90771a7.49146,7.49146,0,0,0,.10156,1.25146,2.97734,2.97734,0,0,0,.37207,1.04834,2.01541,2.01541,0,0,0,.74414.72168,2.43115,2.43115,0,0,0,1.21777.27051,2.55576,2.55576,0,0,0,2.07422-.958,3.89891,3.89891,0,0,0,.78906-2.55957v-5.68213h2.12012v8.38818c0,.28564.00684.65381.02246,1.105q.022.676.06738,1.19482Z"/><path class="c" d="M213.82861,295.66357c.0293.271.05273.5752.06738.91357.01465.33789.02246.62012.02246.84521h.06738a3.12631,3.12631,0,0,1,.55273-.80029,4.0128,4.0128,0,0,1,.80078-.65381,3.9453,3.9453,0,0,1,.99219-.43994,4.01044,4.01044,0,0,1,1.127-.15771,4.16168,4.16168,0,0,1,1.78125.34961,3.618,3.618,0,0,1,1.24023.93555,3.79024,3.79024,0,0,1,.7334,1.37549,5.8831,5.8831,0,0,1,.23633,1.69141v6.62891h-2.11914v-5.93018a7.30137,7.30137,0,0,0-.10156-1.24023,3.01711,3.01711,0,0,0-.37207-1.03711,2.02678,2.02678,0,0,0-.74414-.72168,2.43888,2.43888,0,0,0-1.21777-.27051,2.56593,2.56593,0,0,0-2.06348.9585,3.8667,3.8667,0,0,0-.7998,2.55908v5.68213h-2.12012v-8.3877q0-.42847-.02246-1.105-.022-.67676-.06738-1.19531Z"/><path class="c" d="M233.41553,304.66064a3.941,3.941,0,0,1-1.65723,1.47656,4.98406,4.98406,0,0,1-2.19824.50732,5.4541,5.4541,0,0,1-2.23242-.43945,4.98709,4.98709,0,0,1-1.69141-1.20654,5.43554,5.43554,0,0,1-1.082-1.80371,6.31447,6.31447,0,0,1-.38379-2.20947,6.22532,6.22532,0,0,1,.38379-2.19873,5.36647,5.36647,0,0,1,1.09375-1.79248,4.98273,4.98273,0,0,1,1.70215-1.19482,5.45919,5.45919,0,0,1,2.1875-.42871,4.52609,4.52609,0,0,1,2.27734.55273,4.72,4.72,0,0,1,1.5332,1.34131h.04492v-7.95947h2.11914v17.04639h-2.05176v-1.69092Zm-7.03516-3.66406a4.63966,4.63966,0,0,0,.22559,1.43848,3.66783,3.66783,0,0,0,.67676,1.23682,3.55031,3.55031,0,0,0,4.11426.877,3.54446,3.54446,0,0,0,1.13867-.84326,3.791,3.791,0,0,0,.7334-1.2251,4.25586,4.25586,0,0,0,0-2.92285,3.92926,3.92926,0,0,0-.7334-1.23633,3.47159,3.47159,0,0,0-1.13867-.85449,3.40641,3.40641,0,0,0-1.47656-.31494,3.49706,3.49706,0,0,0-1.5332.31494,3.25207,3.25207,0,0,0-1.10449.85449,3.6702,3.6702,0,0,0-.67676,1.23633A4.645,4.645,0,0,0,226.38037,300.99658Z"/><path class="c" d="M249.03857,300.91748v.36084a2.97672,2.97672,0,0,1-.02246.36084h-8.501a3.1466,3.1466,0,0,0,.30469,1.26514,3.32737,3.32737,0,0,0,.75488,1.03027,3.49442,3.49442,0,0,0,1.09375.68262,3.817,3.817,0,0,0,3.19043-.22754,3.81352,3.81352,0,0,0,1.24023-1.1499l1.48828,1.19531a5.31875,5.31875,0,0,1-2.01855,1.67285,6.47215,6.47215,0,0,1-4.83594.13086,5.20616,5.20616,0,0,1-1.78125-1.13867,5.26979,5.26979,0,0,1-1.17285-1.77,5.97749,5.97749,0,0,1-.42871-2.2998,6.131,6.131,0,0,1,.418-2.28857,5.24537,5.24537,0,0,1,1.16406-1.79248,5.3338,5.3338,0,0,1,1.7627-1.16162,6.05172,6.05172,0,0,1,4.32715-.03369,4.41134,4.41134,0,0,1,1.627,1.105,4.98143,4.98143,0,0,1,1.02832,1.74756A6.944,6.944,0,0,1,249.03857,300.91748Zm-2.165-.85693a4.04885,4.04885,0,0,0-.21387-1.18359,2.72062,2.72062,0,0,0-.56348-.9585,2.65176,2.65176,0,0,0-.9248-.64258,3.27584,3.27584,0,0,0-1.29687-.23682,3.42585,3.42585,0,0,0-1.27344.23682,3.30384,3.30384,0,0,0-1.03711.64258,3.38219,3.38219,0,0,0-.72168.9585,3.05407,3.05407,0,0,0-.32715,1.18359Z"/><path class="c" d="M251.7876,296.85889q-.022-.67676-.06738-1.19531h2.00684c.0293.271.05273.583.06738.936q.022.53027.02246.86816h.06738a3.69765,3.69765,0,0,1,1.31934-1.522,3.45613,3.45613,0,0,1,1.9502-.5752,3.29681,3.29681,0,0,1,.835.09033l-.09082,1.96143a4.01323,4.01323,0,0,0-.96973-.11279,2.941,2.941,0,0,0-1.33008.28223,2.71229,2.71229,0,0,0-.93555.75537,3.19018,3.19018,0,0,0-.55273,1.09326,4.6254,4.6254,0,0,0-.17969,1.29688v5.61426h-2.12012v-8.3877Q251.81006,297.5354,251.7876,296.85889Z"/><path class="c" d="M201.43018,322.72217l2.41309,8.16211h.04492l2.54785-8.16211h2.23242l2.59277,8.16211h.04492l2.41309-8.16211h2.23242l-3.54,10.6875h-2.21l-2.6377-8.02734h-.0459l-2.61523,8.02734h-2.21l-3.5625-10.6875Z"/><path class="c" d="M224.603,326.48779a2.12934,2.12934,0,0,0-.72168-1.77051,2.99121,2.99121,0,0,0-1.917-.5752,4.214,4.214,0,0,0-1.70215.34961,4.31474,4.31474,0,0,0-1.3418.89063l-1.127-1.35254a5.68651,5.68651,0,0,1,1.92773-1.17285,6.89721,6.89721,0,0,1,2.44629-.42773,5.526,5.526,0,0,1,1.99512.32617,3.7845,3.7845,0,0,1,1.38672.89063,3.63842,3.63842,0,0,1,.81152,1.33105,4.90074,4.90074,0,0,1,.27148,1.64551v4.668q0,.54053.0332,1.13867a5.79513,5.79513,0,0,0,.124.98047h-1.916a6.62825,6.62825,0,0,1-.18066-1.5332h-.06738a4.10927,4.10927,0,0,1-1.47754,1.33008,4.432,4.432,0,0,1-2.1084.47363,5.53559,5.53559,0,0,1-1.31836-.16895,3.83806,3.83806,0,0,1-1.252-.55273,3.111,3.111,0,0,1-.93555-1.01465,3.01767,3.01767,0,0,1-.37207-1.55566,2.7337,2.7337,0,0,1,.6543-1.92773,4.13856,4.13856,0,0,1,1.71289-1.082,9.68918,9.68918,0,0,1,2.39063-.48535q1.33008-.11279,2.68359-.1123Zm-.51953,1.82617q-.78955,0-1.63379.06738a7.58146,7.58146,0,0,0-1.53418.27051,2.91143,2.91143,0,0,0-1.13867.60938,1.38277,1.38277,0,0,0-.4502,1.082,1.49464,1.49464,0,0,0,.19141.78906,1.5871,1.5871,0,0,0,.50684.51855,2.03809,2.03809,0,0,0,.69922.28223,3.8965,3.8965,0,0,0,.78906.07813,2.91633,2.91633,0,0,0,2.28906-.89062,3.22927,3.22927,0,0,0,.80078-2.24316V328.314Z"/><path class="c" d="M235.37646,324.4585h-2.84082v5.55176a2.10771,2.10771,0,0,0,.36035,1.38281,1.44553,1.44553,0,0,0,1.15039.416,3.454,3.454,0,0,0,.63086-.0625,2.59144,2.59144,0,0,0,.60938-.18555l.06738,1.73633a5.21471,5.21471,0,0,1-.8457.21387,5.67916,5.67916,0,0,1-.958.0791,3.05209,3.05209,0,0,1-2.31152-.835,3.48329,3.48329,0,0,1-.80078-2.502V324.4585h-2.05176v-1.73633H230.438v-3.06689h2.09766v3.06689h2.84082Z"/><path class="c" d="M247.38818,327.97607v.36035a2.97486,2.97486,0,0,1-.02246.36035h-8.501a3.14888,3.14888,0,0,0,.30469,1.26563,3.32737,3.32737,0,0,0,.75488,1.03027,3.49442,3.49442,0,0,0,1.09375.68262,3.817,3.817,0,0,0,3.19043-.22754,3.82275,3.82275,0,0,0,1.24023-1.14941l1.48828,1.19434a5.32157,5.32157,0,0,1-2.01855,1.67383,6.47844,6.47844,0,0,1-4.83594.13086,5.119,5.119,0,0,1-2.9541-2.90918,5.97749,5.97749,0,0,1-.42871-2.2998,6.13727,6.13727,0,0,1,.418-2.28906,5.25265,5.25265,0,0,1,1.16406-1.792,5.33257,5.33257,0,0,1,1.7627-1.16113,6.05523,6.05523,0,0,1,4.32715-.03418,4.41609,4.41609,0,0,1,1.627,1.10449,4.988,4.988,0,0,1,1.02832,1.748A6.94291,6.94291,0,0,1,247.38818,327.97607Zm-2.165-.85742a4.043,4.043,0,0,0-.21387-1.18359,2.71849,2.71849,0,0,0-.56348-.958,2.64535,2.64535,0,0,0-.9248-.64258,3.267,3.267,0,0,0-1.29687-.2373,3.41637,3.41637,0,0,0-1.27344.2373,3.295,3.295,0,0,0-1.03711.64258,3.37992,3.37992,0,0,0-.72168.958,3.04937,3.04937,0,0,0-.32715,1.18359Z"/><path class="c" d="M250.13818,323.9165q-.022-.67529-.06738-1.19434h2.00684c.0293.27051.05273.582.06738.93555s.02246.64258.02246.86816h.06738a3.699,3.699,0,0,1,1.31934-1.52246,3.4591,3.4591,0,0,1,1.9502-.57422,3.3215,3.3215,0,0,1,.835.08984l-.09082,1.96191a3.98865,3.98865,0,0,0-.96973-.11328,2.94744,2.94744,0,0,0-1.33008.28223,2.72221,2.72221,0,0,0-.93555.75488,3.20133,3.20133,0,0,0-.55273,1.09375,4.62791,4.62791,0,0,0-.17969,1.29688v5.61426h-2.12012V325.022C250.16064,324.73682,250.15283,324.36768,250.13818,323.9165Z"/><path class="c" d="M135.42236,450.76611V452.457h-2.05273V435.41064h2.12012v7.95947h.06738a4.46367,4.46367,0,0,1,1.50684-1.34131,4.54891,4.54891,0,0,1,2.29395-.55273,5.3553,5.3553,0,0,1,2.1709.42871,4.99629,4.99629,0,0,1,1.68652,1.19482,5.37537,5.37537,0,0,1,1.09082,1.79248,6.2249,6.2249,0,0,1,.38281,2.19873,6.314,6.314,0,0,1-.38281,2.20947,5.44522,5.44522,0,0,1-1.0791,1.80371,4.98657,4.98657,0,0,1-1.68652,1.20654,5.43392,5.43392,0,0,1-2.22754.43945,4.88966,4.88966,0,0,1-2.18164-.50732,4.09723,4.09723,0,0,1-1.66406-1.47656Zm7.10254-3.66406a4.67407,4.67407,0,0,0-.22559-1.439,3.6702,3.6702,0,0,0-.67676-1.23633,3.2404,3.2404,0,0,0-1.11621-.85449,3.57009,3.57009,0,0,0-1.54395-.31494,3.40769,3.40769,0,0,0-1.47754.31494,3.47159,3.47159,0,0,0-1.13867.85449,3.94519,3.94519,0,0,0-.73242,1.23633,4.24083,4.24083,0,0,0,0,2.92285,3.80592,3.80592,0,0,0,.73242,1.2251,3.54446,3.54446,0,0,0,1.13867.84326,3.40748,3.40748,0,0,0,1.47754.31445,3.46766,3.46766,0,0,0,1.54395-.32568,3.36186,3.36186,0,0,0,1.11621-.86572,3.66782,3.66782,0,0,0,.67676-1.23682A4.66868,4.66868,0,0,0,142.5249,447.10205Z"/><path class="c" d="M147.45947,442.96436q-.022-.67676-.06738-1.19531h2.00684c.0293.271.05273.583.06738.936q.022.53027.02246.86816h.06738a3.69765,3.69765,0,0,1,1.31934-1.522,3.45613,3.45613,0,0,1,1.9502-.5752,3.29681,3.29681,0,0,1,.835.09033l-.09082,1.96143a4.01324,4.01324,0,0,0-.96973-.11279,2.941,2.941,0,0,0-1.33008.28223,2.71229,2.71229,0,0,0-.93555.75537,3.19018,3.19018,0,0,0-.55273,1.09326,4.6254,4.6254,0,0,0-.17969,1.29688V452.457h-2.12012v-8.3877Q147.48193,443.64087,147.45947,442.96436Z"/><path class="c" d="M165.52783,447.02295v.36084a2.97671,2.97671,0,0,1-.02246.36084h-8.501a3.1466,3.1466,0,0,0,.30469,1.26514A3.32738,3.32738,0,0,0,158.064,450.04a3.49442,3.49442,0,0,0,1.09375.68262,3.817,3.817,0,0,0,3.19043-.22754,3.81352,3.81352,0,0,0,1.24023-1.1499l1.48828,1.19531a5.31875,5.31875,0,0,1-2.01855,1.67285,6.47215,6.47215,0,0,1-4.83594.13086,5.20616,5.20616,0,0,1-1.78125-1.13867,5.26979,5.26979,0,0,1-1.17285-1.77,5.97749,5.97749,0,0,1-.42871-2.2998,6.131,6.131,0,0,1,.418-2.28857,5.24537,5.24537,0,0,1,1.16406-1.79248,5.3338,5.3338,0,0,1,1.7627-1.16162,6.05172,6.05172,0,0,1,4.32715-.03369,4.41134,4.41134,0,0,1,1.627,1.105,4.98143,4.98143,0,0,1,1.02832,1.74756A6.944,6.944,0,0,1,165.52783,447.02295Zm-2.165-.85693a4.04885,4.04885,0,0,0-.21387-1.18359,2.72062,2.72062,0,0,0-.56348-.9585,2.65176,2.65176,0,0,0-.9248-.64258,3.27584,3.27584,0,0,0-1.29687-.23682,3.42585,3.42585,0,0,0-1.27344.23682,3.30383,3.30383,0,0,0-1.03711.64258,3.38219,3.38219,0,0,0-.72168.9585,3.05406,3.05406,0,0,0-.32715,1.18359Z"/><path class="c" d="M174.94678,445.53467a2.12833,2.12833,0,0,0-.72168-1.77,2.98821,2.98821,0,0,0-1.917-.57471,4.21367,4.21367,0,0,0-1.70215.34912,4.3073,4.3073,0,0,0-1.3418.89111l-1.127-1.353a5.67787,5.67787,0,0,1,1.92773-1.17236,6.88676,6.88676,0,0,1,2.44629-.42871,5.52518,5.52518,0,0,1,1.99512.32715,3.76587,3.76587,0,0,1,1.38672.89063,3.63447,3.63447,0,0,1,.81152,1.33008,4.90567,4.90567,0,0,1,.27148,1.646v4.66748q0,.54126.0332,1.13867a5.79494,5.79494,0,0,0,.124.981h-1.916a6.62514,6.62514,0,0,1-.18066-1.5332h-.06738a4.10927,4.10927,0,0,1-1.47754,1.33008,4.42629,4.42629,0,0,1-2.1084.47363,5.51075,5.51075,0,0,1-1.31836-.16895,3.82781,3.82781,0,0,1-1.252-.55273,3.111,3.111,0,0,1-.93555-1.01465,3.0152,3.0152,0,0,1-.37207-1.55566,2.7337,2.7337,0,0,1,.6543-1.92773,4.13935,4.13935,0,0,1,1.71289-1.08252,9.71216,9.71216,0,0,1,2.39063-.48486q1.33008-.11206,2.68359-.1123Zm-.51953,1.82666q-.78955,0-1.63379.06738a7.58147,7.58147,0,0,0-1.53418.27051,2.90448,2.90448,0,0,0-1.13867.60889,1.38381,1.38381,0,0,0-.4502,1.08252,1.49583,1.49583,0,0,0,.19141.78906,1.59658,1.59658,0,0,0,.50684.51855,2.03724,2.03724,0,0,0,.69922.28174,3.862,3.862,0,0,0,.78906.0791,2.91964,2.91964,0,0,0,2.28906-.89062,3.233,3.233,0,0,0,.80078-2.24365v-.56348Z"/><path class="c" d="M185.71924,443.50537h-2.84082v5.55273a2.10708,2.10708,0,0,0,.36035,1.38232,1.44537,1.44537,0,0,0,1.15039.41553,3.49475,3.49475,0,0,0,.63086-.062,2.54646,2.54646,0,0,0,.60938-.186l.06738,1.73633a5.16378,5.16378,0,0,1-.8457.21436,5.73074,5.73074,0,0,1-.958.07861,3.05351,3.05351,0,0,1-2.31152-.834,3.48587,3.48587,0,0,1-.80078-2.50293v-5.79492H178.729V441.769h2.05176v-3.06641h2.09766V441.769h2.84082Z"/><path class="c" d="M190.08936,443.39258A3.30273,3.30273,0,0,1,191.397,442.04a3.90316,3.90316,0,0,1,2.07422-.564,4.16168,4.16168,0,0,1,1.78125.34961,3.6087,3.6087,0,0,1,1.24023.93555,3.79024,3.79024,0,0,1,.7334,1.37549,5.8831,5.8831,0,0,1,.23633,1.69141V452.457h-2.11914v-5.92187a7.338,7.338,0,0,0-.10156-1.24365,2.99045,2.99045,0,0,0-.37207-1.03955,2.04936,2.04936,0,0,0-.7334-.72314,2.36414,2.36414,0,0,0-1.20605-.27148,2.594,2.594,0,0,0-2.07422.96094,3.84454,3.84454,0,0,0-.81152,2.56543V452.457h-2.12012V435.41064h2.12012v7.98193Z"/><path class="c" d="M210.894,447.02295v.36084a2.97669,2.97669,0,0,1-.02246.36084h-8.501a3.14659,3.14659,0,0,0,.30469,1.26514,3.32737,3.32737,0,0,0,.75488,1.03027,3.49442,3.49442,0,0,0,1.09375.68262,3.817,3.817,0,0,0,3.19043-.22754,3.81352,3.81352,0,0,0,1.24023-1.1499l1.48828,1.19531a5.31875,5.31875,0,0,1-2.01855,1.67285,6.47215,6.47215,0,0,1-4.83594.13086,5.20616,5.20616,0,0,1-1.78125-1.13867,5.26979,5.26979,0,0,1-1.17285-1.77,5.97749,5.97749,0,0,1-.42871-2.2998,6.131,6.131,0,0,1,.418-2.28857,5.24537,5.24537,0,0,1,1.16406-1.79248,5.3338,5.3338,0,0,1,1.7627-1.16162,6.05172,6.05172,0,0,1,4.32715-.03369,4.41134,4.41134,0,0,1,1.627,1.105,4.98143,4.98143,0,0,1,1.02832,1.74756A6.944,6.944,0,0,1,210.894,447.02295Zm-2.165-.85693a4.04884,4.04884,0,0,0-.21387-1.18359,2.72062,2.72062,0,0,0-.56348-.9585,2.65176,2.65176,0,0,0-.9248-.64258,3.27584,3.27584,0,0,0-1.29687-.23682,3.42585,3.42585,0,0,0-1.27344.23682,3.30383,3.30383,0,0,0-1.03711.64258,3.38219,3.38219,0,0,0-.72168.9585,3.05406,3.05406,0,0,0-.32715,1.18359Z"/><path class="c" d="M121.37451,479.51465q-.04541-.40576-.06738-.91309c-.01562-.33838-.02246-.62012-.02246-.8457h-.0459a3.49,3.49,0,0,1-1.36328,1.45459,3.95241,3.95241,0,0,1-2.13086.59717,4.366,4.366,0,0,1-1.793-.33789,3.30593,3.30593,0,0,1-1.24023-.936,3.99775,3.99775,0,0,1-.72168-1.38672,5.87487,5.87487,0,0,1-.23633-1.69092v-6.62939h2.11914v5.90771a7.49146,7.49146,0,0,0,.10156,1.25146,2.97734,2.97734,0,0,0,.37207,1.04834,2.01541,2.01541,0,0,0,.74414.72168,2.43115,2.43115,0,0,0,1.21777.27051,2.55576,2.55576,0,0,0,2.07422-.958,3.89891,3.89891,0,0,0,.78906-2.55957v-5.68213h2.12012v8.38818c0,.28564.00684.65381.02246,1.105q.022.676.06738,1.19482Z"/><path class="c" d="M128.68018,468.82666c.0293.271.05273.5752.06738.91357.01465.33789.02246.62012.02246.84521h.06738a3.12631,3.12631,0,0,1,.55273-.80029,4.0128,4.0128,0,0,1,.80078-.65381,3.9453,3.9453,0,0,1,.99219-.43994,4.01044,4.01044,0,0,1,1.127-.15771,4.16168,4.16168,0,0,1,1.78125.34961,3.618,3.618,0,0,1,1.24023.93555,3.79024,3.79024,0,0,1,.7334,1.37549,5.8831,5.8831,0,0,1,.23633,1.69141v6.62891h-2.11914v-5.93018a7.30137,7.30137,0,0,0-.10156-1.24023,3.01711,3.01711,0,0,0-.37207-1.03711,2.02678,2.02678,0,0,0-.74414-.72168,2.43888,2.43888,0,0,0-1.21777-.27051,2.56593,2.56593,0,0,0-2.06348.9585,3.8667,3.8667,0,0,0-.7998,2.55908v5.68213h-2.12012V471.127q0-.42847-.02246-1.105-.022-.67676-.06738-1.19531Z"/><path class="c" d="M148.26709,477.82373a3.941,3.941,0,0,1-1.65723,1.47656,4.98406,4.98406,0,0,1-2.19824.50732,5.4541,5.4541,0,0,1-2.23242-.43945,4.98709,4.98709,0,0,1-1.69141-1.20654,5.43554,5.43554,0,0,1-1.082-1.80371,6.31447,6.31447,0,0,1-.38379-2.20947,6.22532,6.22532,0,0,1,.38379-2.19873,5.36646,5.36646,0,0,1,1.09375-1.79248,4.98273,4.98273,0,0,1,1.70215-1.19482,5.45919,5.45919,0,0,1,2.1875-.42871,4.52609,4.52609,0,0,1,2.27734.55273,4.72,4.72,0,0,1,1.5332,1.34131h.04492v-7.95947h2.11914v17.04639H148.312v-1.69092Zm-7.03516-3.66406a4.63966,4.63966,0,0,0,.22559,1.43848,3.66782,3.66782,0,0,0,.67676,1.23682,3.55031,3.55031,0,0,0,4.11426.877,3.54446,3.54446,0,0,0,1.13867-.84326,3.791,3.791,0,0,0,.7334-1.2251,4.25586,4.25586,0,0,0,0-2.92285,3.92926,3.92926,0,0,0-.7334-1.23633,3.47159,3.47159,0,0,0-1.13867-.85449,3.40641,3.40641,0,0,0-1.47656-.31494,3.49706,3.49706,0,0,0-1.5332.31494,3.25207,3.25207,0,0,0-1.10449.85449,3.6702,3.6702,0,0,0-.67676,1.23633A4.645,4.645,0,0,0,141.23193,474.15967Z"/><path class="c" d="M163.89014,474.08057v.36084a2.97672,2.97672,0,0,1-.02246.36084h-8.501a3.1466,3.1466,0,0,0,.30469,1.26514,3.32737,3.32737,0,0,0,.75488,1.03027,3.49442,3.49442,0,0,0,1.09375.68262,3.817,3.817,0,0,0,3.19043-.22754,3.81353,3.81353,0,0,0,1.24023-1.1499l1.48828,1.19531a5.31875,5.31875,0,0,1-2.01855,1.67285,6.47215,6.47215,0,0,1-4.83594.13086,5.20616,5.20616,0,0,1-1.78125-1.13867,5.26979,5.26979,0,0,1-1.17285-1.77,5.97749,5.97749,0,0,1-.42871-2.2998,6.131,6.131,0,0,1,.418-2.28857,5.24537,5.24537,0,0,1,1.16406-1.79248,5.3338,5.3338,0,0,1,1.7627-1.16162,6.05172,6.05172,0,0,1,4.32715-.03369,4.41134,4.41134,0,0,1,1.627,1.105,4.98143,4.98143,0,0,1,1.02832,1.74756A6.944,6.944,0,0,1,163.89014,474.08057Zm-2.165-.85693a4.04885,4.04885,0,0,0-.21387-1.18359,2.72062,2.72062,0,0,0-.56348-.9585,2.65176,2.65176,0,0,0-.9248-.64258,3.27584,3.27584,0,0,0-1.29687-.23682,3.42585,3.42585,0,0,0-1.27344.23682,3.30384,3.30384,0,0,0-1.03711.64258,3.38219,3.38219,0,0,0-.72168.9585,3.05406,3.05406,0,0,0-.32715,1.18359Z"/><path class="c" d="M166.63916,470.022q-.022-.67676-.06738-1.19531h2.00684c.0293.271.05273.583.06738.936q.022.53027.02246.86816h.06738a3.69765,3.69765,0,0,1,1.31934-1.522,3.45613,3.45613,0,0,1,1.9502-.5752,3.29681,3.29681,0,0,1,.835.09033l-.09082,1.96143a4.01324,4.01324,0,0,0-.96973-.11279,2.941,2.941,0,0,0-1.33008.28223,2.71229,2.71229,0,0,0-.93555.75537,3.19018,3.19018,0,0,0-.55273,1.09326,4.6254,4.6254,0,0,0-.17969,1.29688v5.61426h-2.12012V471.127Q166.66162,470.69849,166.63916,470.022Z"/><path class="c" d="M176.4126,468.82666l2.41309,8.1626h.04492l2.54785-8.1626h2.23242l2.59277,8.1626h.04492l2.41309-8.1626h2.23242l-3.54,10.688h-2.21l-2.6377-8.02686h-.0459l-2.61523,8.02686h-2.21l-3.5625-10.688Z"/><path class="c" d="M199.58643,472.59229a2.12833,2.12833,0,0,0-.72168-1.77,2.98821,2.98821,0,0,0-1.917-.57471,4.21366,4.21366,0,0,0-1.70215.34912,4.3073,4.3073,0,0,0-1.3418.89111l-1.127-1.353a5.67787,5.67787,0,0,1,1.92773-1.17236,6.88676,6.88676,0,0,1,2.44629-.42871,5.52519,5.52519,0,0,1,1.99512.32715,3.76588,3.76588,0,0,1,1.38672.89063,3.63447,3.63447,0,0,1,.81152,1.33008,4.90567,4.90567,0,0,1,.27148,1.646V477.395q0,.54126.0332,1.13867a5.79493,5.79493,0,0,0,.124.981h-1.916a6.62514,6.62514,0,0,1-.18066-1.5332h-.06738a4.10927,4.10927,0,0,1-1.47754,1.33008,4.42629,4.42629,0,0,1-2.1084.47363,5.51074,5.51074,0,0,1-1.31836-.16895,3.82781,3.82781,0,0,1-1.252-.55273,3.111,3.111,0,0,1-.93555-1.01465,3.0152,3.0152,0,0,1-.37207-1.55566,2.7337,2.7337,0,0,1,.6543-1.92773,4.13935,4.13935,0,0,1,1.71289-1.08252,9.71216,9.71216,0,0,1,2.39063-.48486q1.33008-.11206,2.68359-.1123Zm-.51953,1.82666q-.78955,0-1.63379.06738a7.58147,7.58147,0,0,0-1.53418.27051,2.90448,2.90448,0,0,0-1.13867.60889,1.38382,1.38382,0,0,0-.4502,1.08252,1.49583,1.49583,0,0,0,.19141.78906,1.59658,1.59658,0,0,0,.50684.51855,2.03724,2.03724,0,0,0,.69922.28174,3.862,3.862,0,0,0,.78906.0791,2.91964,2.91964,0,0,0,2.28906-.89062,3.233,3.233,0,0,0,.80078-2.24365v-.56348Z"/><path class="c" d="M210.35889,470.563h-2.84082v5.55273a2.10708,2.10708,0,0,0,.36035,1.38232,1.44537,1.44537,0,0,0,1.15039.41553,3.49475,3.49475,0,0,0,.63086-.062,2.54646,2.54646,0,0,0,.60938-.186l.06738,1.73633a5.16378,5.16378,0,0,1-.8457.21436,5.73073,5.73073,0,0,1-.958.07861,3.05351,3.05351,0,0,1-2.31152-.834,3.48587,3.48587,0,0,1-.80078-2.50293V470.563h-2.05176v-1.73633h2.05176v-3.06641h2.09766v3.06641h2.84082Z"/><path class="c" d="M222.37061,474.08057v.36084a2.97669,2.97669,0,0,1-.02246.36084h-8.501a3.14659,3.14659,0,0,0,.30469,1.26514,3.32737,3.32737,0,0,0,.75488,1.03027,3.49442,3.49442,0,0,0,1.09375.68262,3.817,3.817,0,0,0,3.19043-.22754,3.81352,3.81352,0,0,0,1.24023-1.1499l1.48828,1.19531a5.31875,5.31875,0,0,1-2.01855,1.67285,6.47215,6.47215,0,0,1-4.83594.13086,5.20616,5.20616,0,0,1-1.78125-1.13867,5.26979,5.26979,0,0,1-1.17285-1.77,5.97749,5.97749,0,0,1-.42871-2.2998,6.131,6.131,0,0,1,.418-2.28857,5.24537,5.24537,0,0,1,1.16406-1.79248,5.3338,5.3338,0,0,1,1.7627-1.16162,6.05172,6.05172,0,0,1,4.32715-.03369,4.41134,4.41134,0,0,1,1.627,1.105,4.98143,4.98143,0,0,1,1.02832,1.74756A6.944,6.944,0,0,1,222.37061,474.08057Zm-2.165-.85693a4.04884,4.04884,0,0,0-.21387-1.18359,2.72062,2.72062,0,0,0-.56348-.9585,2.65176,2.65176,0,0,0-.9248-.64258,3.27584,3.27584,0,0,0-1.29687-.23682,3.42585,3.42585,0,0,0-1.27344.23682,3.30383,3.30383,0,0,0-1.03711.64258,3.38219,3.38219,0,0,0-.72168.9585,3.05406,3.05406,0,0,0-.32715,1.18359Z"/><path class="c" d="M225.12061,470.022q-.022-.67676-.06738-1.19531h2.00684c.0293.271.05273.583.06738.936q.022.53027.02246.86816h.06738a3.69765,3.69765,0,0,1,1.31934-1.522,3.45613,3.45613,0,0,1,1.9502-.5752,3.29681,3.29681,0,0,1,.835.09033l-.09082,1.96143a4.01324,4.01324,0,0,0-.96973-.11279,2.941,2.941,0,0,0-1.33008.28223,2.71229,2.71229,0,0,0-.93555.75537,3.19018,3.19018,0,0,0-.55273,1.09326,4.6254,4.6254,0,0,0-.17969,1.29688v5.61426h-2.12012V471.127Q225.14307,470.69849,225.12061,470.022Z"/><path class="c" d="M140.63525,506.57275h-2.2998l-4.35156-10.6875h2.34473l3.13379,8.41016h.0459l3.15625-8.41016h2.25488Z"/><path class="c" d="M149.45166,492.0293a1.26284,1.26284,0,0,1-.41406.96973,1.41238,1.41238,0,0,1-.99512.3833,1.35292,1.35292,0,0,1-.98437-.39453,1.29122,1.29122,0,0,1-.40234-.9585,1.31792,1.31792,0,0,1,.40234-.981,1.35487,1.35487,0,0,1,.98438-.39453,1.391,1.391,0,0,1,.99512.39453A1.29939,1.29939,0,0,1,149.45166,492.0293Zm-.33789,14.54346h-2.12012v-10.6875h2.12012Z"/><path class="c" d="M159.26025,499.65088a2.12934,2.12934,0,0,0-.72168-1.77051,2.99121,2.99121,0,0,0-1.917-.5752,4.214,4.214,0,0,0-1.70215.34961,4.31474,4.31474,0,0,0-1.3418.89063l-1.127-1.35254a5.68651,5.68651,0,0,1,1.92773-1.17285,6.89721,6.89721,0,0,1,2.44629-.42773,5.526,5.526,0,0,1,1.99512.32617,3.7845,3.7845,0,0,1,1.38672.89063,3.63842,3.63842,0,0,1,.81152,1.33105,4.90074,4.90074,0,0,1,.27148,1.64551v4.668q0,.54053.0332,1.13867a5.79513,5.79513,0,0,0,.124.98047h-1.916a6.62825,6.62825,0,0,1-.18066-1.5332h-.06738a4.10927,4.10927,0,0,1-1.47754,1.33008,4.432,4.432,0,0,1-2.1084.47363,5.53559,5.53559,0,0,1-1.31836-.16895,3.83806,3.83806,0,0,1-1.252-.55273,3.111,3.111,0,0,1-.93555-1.01465,3.01767,3.01767,0,0,1-.37207-1.55566,2.7337,2.7337,0,0,1,.6543-1.92773,4.13856,4.13856,0,0,1,1.71289-1.082,9.68919,9.68919,0,0,1,2.39063-.48535q1.33008-.11279,2.68359-.1123Zm-.51953,1.82617q-.78955,0-1.63379.06738a7.58147,7.58147,0,0,0-1.53418.27051,2.91143,2.91143,0,0,0-1.13867.60938,1.38277,1.38277,0,0,0-.4502,1.082,1.49464,1.49464,0,0,0,.19141.78906,1.5871,1.5871,0,0,0,.50684.51855,2.03809,2.03809,0,0,0,.69922.28223,3.89649,3.89649,0,0,0,.78906.07813,2.91633,2.91633,0,0,0,2.28906-.89062,3.22927,3.22927,0,0,0,.80078-2.24316v-.56348Z"/><path class="c" d="M171.30029,508.39893a5.07994,5.07994,0,0,0,1.74707,1.2627,5.18583,5.18583,0,0,0,2.15332.47363,4.58971,4.58971,0,0,0,1.78125-.30469,2.9727,2.9727,0,0,0,1.16113-.834,3.23778,3.23778,0,0,0,.63184-1.251,6.08589,6.08589,0,0,0,.19141-1.55664v-1.375h-.04492a3.76189,3.76189,0,0,1-1.60156,1.375,5.04093,5.04093,0,0,1-2.16406.47363,5.61157,5.61157,0,0,1-2.22168-.42773,4.99557,4.99557,0,0,1-1.70215-1.17285,5.27272,5.27272,0,0,1-1.082-1.74707,5.97632,5.97632,0,0,1-.38379-2.15332,6.07083,6.07083,0,0,1,.38379-2.165,5.36448,5.36448,0,0,1,1.082-1.76953,5.06008,5.06008,0,0,1,1.69141-1.19531,5.39551,5.39551,0,0,1,2.21-.43945,5.075,5.075,0,0,1,2.19824.49609,3.78059,3.78059,0,0,1,1.65723,1.51074h.04492v-1.71387h2.05176v10.14648a8.46483,8.46483,0,0,1-.293,2.24316,4.88052,4.88052,0,0,1-.99219,1.89453,4.98179,4.98179,0,0,1-1.82617,1.31836,6.942,6.942,0,0,1-2.7959.49609,8.24915,8.24915,0,0,1-2.80762-.50684,7.14374,7.14374,0,0,1-2.42383-1.43164Zm.63086-7.2832a4.26269,4.26269,0,0,0,.2373,1.4209,3.49871,3.49871,0,0,0,1.82129,2.0293,3.39079,3.39079,0,0,0,1.49316.31543,3.72572,3.72572,0,0,0,1.49219-.293,3.39992,3.39992,0,0,0,1.15332-.80078,3.59007,3.59007,0,0,0,.73535-1.19434,4.15682,4.15682,0,0,0,.25977-1.47754,3.99212,3.99212,0,0,0-.25977-1.44238,3.62,3.62,0,0,0-1.89941-2.01855,3.79355,3.79355,0,0,0-2.97461,0,3.48569,3.48569,0,0,0-1.12012.81152,3.38938,3.38938,0,0,0-.70117,1.19531A4.42943,4.42943,0,0,0,171.93115,501.11572Z"/><path class="c" d="M187.00439,492.0293a1.26284,1.26284,0,0,1-.41406.96973,1.41238,1.41238,0,0,1-.99512.3833,1.35292,1.35292,0,0,1-.98437-.39453,1.29122,1.29122,0,0,1-.40234-.9585,1.31792,1.31792,0,0,1,.40234-.981,1.35487,1.35487,0,0,1,.98438-.39453,1.391,1.391,0,0,1,.99512.39453A1.29939,1.29939,0,0,1,187.00439,492.0293Zm-.33789,14.54346h-2.12012v-10.6875h2.12012Z"/><path class="c" d="M192.30518,506.57275h-2.12012V489.52637h2.12012Z"/><path class="c" d="M197.90674,506.57275h-2.12012V489.52637h2.12012Z"/><path class="c" d="M207.3042,498.59033a2.77319,2.77319,0,0,0-1.01465-.958,2.91339,2.91339,0,0,0-1.46582-.37207,3.36132,3.36132,0,0,0-.72168.0791,2.14309,2.14309,0,0,0-.64258.248,1.36372,1.36372,0,0,0-.4502.42871,1.14728,1.14728,0,0,0-.16992.64258,1.06885,1.06885,0,0,0,.60938,1.00293,7.48325,7.48325,0,0,0,1.82617.59766,11.39561,11.39561,0,0,1,1.4209.42871,4.461,4.461,0,0,1,1.13867.62012,2.68629,2.68629,0,0,1,.75488.89063,2.59514,2.59514,0,0,1,.27051,1.21777,3.27559,3.27559,0,0,1-.36035,1.60059,3.1454,3.1454,0,0,1-.959,1.07129,3.92015,3.92015,0,0,1-1.36328.59668,6.8872,6.8872,0,0,1-1.5791.18066,6.23489,6.23489,0,0,1-2.37891-.47363,4.64677,4.64677,0,0,1-1.92773-1.44238l1.51074-1.28613a3.46784,3.46784,0,0,0,1.18359,1.06055,3.30893,3.30893,0,0,0,1.6582.42773,3.72766,3.72766,0,0,0,.77734-.07812,2.23113,2.23113,0,0,0,.67676-.25977,1.30934,1.30934,0,0,0,.665-1.21777,1.17223,1.17223,0,0,0-.71-1.10449,9.572,9.572,0,0,0-2.08594-.67676q-.542-.13477-1.09375-.32715a3.6202,3.6202,0,0,1-1.00293-.5293,2.64213,2.64213,0,0,1-.7334-.8457,2.55077,2.55077,0,0,1-.28125-1.251,2.97093,2.97093,0,0,1,.34863-1.47754,3.05715,3.05715,0,0,1,.91406-1.01465,4.01659,4.01659,0,0,1,1.28516-.58594,5.75919,5.75919,0,0,1,1.48828-.19141,5.681,5.681,0,0,1,2.2207.4502,3.68141,3.68141,0,0,1,1.65723,1.30859Z"/><path class="c" d="M5.64355,548.11621H3.19629V524.04395H17.71387v2.17578H5.64355v8.33008h11.2207v2.17578H5.64355Z"/><path class="c" d="M24.60938,526.084a1.50778,1.50778,0,0,1-.50977,1.17285,1.601,1.601,0,0,1-2.24414,0,1.60411,1.60411,0,0,1,0-2.3457,1.601,1.601,0,0,1,2.24414,0A1.50778,1.50778,0,0,1,24.60938,526.084Zm-.47559,22.03223h-2.3125V532.2041h2.3125Z"/><path class="c" d="M38.35938,535.97754a4.07139,4.07139,0,0,0-1.54785-1.61426,4.45829,4.45829,0,0,0-2.3623-.62891,5.62263,5.62263,0,0,0-1.22461.13574,3.3567,3.3567,0,0,0-1.08789.44141,2.39762,2.39762,0,0,0-.76465.78223,2.11871,2.11871,0,0,0-.28906,1.12207,1.92126,1.92126,0,0,0,.918,1.7168,8.79069,8.79069,0,0,0,2.88965,1.00293,9.6534,9.6534,0,0,1,4.165,1.68359,3.65232,3.65232,0,0,1,1.34375,2.97461,4.40134,4.40134,0,0,1-1.9043,3.8252,5.56776,5.56776,0,0,1-1.9209.84961,9.24259,9.24259,0,0,1-2.15918.25586,8.61609,8.61609,0,0,1-3.502-.748,6.4816,6.4816,0,0,1-2.78809-2.34668l1.83594-1.35937a5.195,5.195,0,0,0,4.41992,2.48145,7.25779,7.25779,0,0,0,1.42773-.13574,3.28716,3.28716,0,0,0,1.19043-.47559,2.439,2.439,0,0,0,1.12207-2.17676,2.01984,2.01984,0,0,0-1.207-1.88672,15.787,15.787,0,0,0-3.48535-1.17285q-.71338-.16992-1.5127-.4248a5.21286,5.21286,0,0,1-1.47949-.748A4.05092,4.05092,0,0,1,29.31543,538.29a3.62126,3.62126,0,0,1-.44238-1.87012,4.28458,4.28458,0,0,1,.47559-2.09082,4.17007,4.17007,0,0,1,1.27539-1.42773,5.68018,5.68018,0,0,1,1.81934-.833,8.12546,8.12546,0,0,1,2.10742-.27246,7.41737,7.41737,0,0,1,3.23047.748,5.21337,5.21337,0,0,1,2.3457,2.1084Z"/><path class="c" d="M47.082,534.82227a4.79585,4.79585,0,0,1,2.14258-2.21,6.56937,6.56937,0,0,1,3.19531-.81641,5.5918,5.5918,0,0,1,4.53906,1.80176,7.15918,7.15918,0,0,1,1.51367,4.76074v9.75781h-2.3125v-8.80664a11.672,11.672,0,0,0-.2041-2.27734,4.75251,4.75251,0,0,0-.69727-1.751,3.336,3.336,0,0,0-1.3252-1.13965,4.7528,4.7528,0,0,0-2.0918-.40723,4.44806,4.44806,0,0,0-1.78418.374,4.38365,4.38365,0,0,0-1.54785,1.13867,5.707,5.707,0,0,0-1.08789,1.9375,8.46733,8.46733,0,0,0-.40723,2.77148v8.16016h-2.3125v-25.7041h2.3125v12.41016Z"/><path class="c" d="M649.14063,548.11621h-2.44727V524.04443h14.51758v2.17578H649.14063v8.33008h11.2207v2.17578h-11.2207Z"/><path class="c" d="M664.61426,534.04q-.03516-1.01953-.10254-1.83594h2.21q.06738.64673.10254,1.42822.03369.78223.0332,1.292h.06836a5.50852,5.50852,0,0,1,2.04-2.26123,5.57414,5.57414,0,0,1,3.06055-.8667c.29395,0,.56055.01172.79883.03369a4.387,4.387,0,0,1,.73047.13623l-.30566,2.21a4.41205,4.41205,0,0,0-.67969-.13623,6.80781,6.80781,0,0,0-.95215-.06787,4.72946,4.72946,0,0,0-1.76855.33936,3.79546,3.79546,0,0,0-1.47852,1.06836,5.61956,5.61956,0,0,0-1.02051,1.86523,8.43452,8.43452,0,0,0-.39062,2.731v8.14014h-2.3125V535.70605Q664.64746,535.06079,664.61426,534.04Z"/><path class="c" d="M692.08984,540.16016a8.68494,8.68494,0,0,1-.62891,3.332,8.02341,8.02341,0,0,1-1.751,2.65186,7.92843,7.92843,0,0,1-2.68652,1.751,9.58994,9.58994,0,0,1-6.834,0,7.92423,7.92423,0,0,1-2.68555-1.751,8.00833,8.00833,0,0,1-1.751-2.65186,9.14123,9.14123,0,0,1,0-6.66406,7.85028,7.85028,0,0,1,4.43652-4.40283,9.5969,9.5969,0,0,1,6.834,0,7.93569,7.93569,0,0,1,2.68652,1.751,8.02341,8.02341,0,0,1,1.751,2.65186A8.68672,8.68672,0,0,1,692.08984,540.16016Zm-2.44824,0a7.28449,7.28449,0,0,0-.4248-2.499,6.13844,6.13844,0,0,0-1.207-2.04,5.70927,5.70927,0,0,0-1.9043-1.377,6.01538,6.01538,0,0,0-2.51562-.50977,5.897,5.897,0,0,0-2.499.50977,5.73745,5.73745,0,0,0-1.88672,1.377,6.1058,6.1058,0,0,0-1.207,2.04,7.54661,7.54661,0,0,0,0,4.998,6.101,6.101,0,0,0,1.207,2.04,5.53194,5.53194,0,0,0,1.88672,1.35986,6.062,6.062,0,0,0,2.499.49316,6.18416,6.18416,0,0,0,2.51563-.49316,5.50846,5.50846,0,0,0,1.9043-1.35986,6.13355,6.13355,0,0,0,1.207-2.04A7.28047,7.28047,0,0,0,689.6416,540.16016Z"/><path class="c" d="M697.62793,551.312a7.6715,7.6715,0,0,0,2.60059,2.07422,8.04106,8.04106,0,0,0,6.375.35693,5.01647,5.01647,0,0,0,1.9209-1.34277,5.36341,5.36341,0,0,0,1.07129-1.98926,8.46513,8.46513,0,0,0,.33984-2.43115v-2.9917h-.06738a6.08357,6.08357,0,0,1-2.60156,2.312,7.75841,7.75841,0,0,1-3.417.81592,8.94864,8.94864,0,0,1-3.38281-.61182,7.67554,7.67554,0,0,1-2.584-1.68311,7.49733,7.49733,0,0,1-1.666-2.56689,8.66518,8.66518,0,0,1-.59473-3.23,8.5737,8.5737,0,0,1,.59473-3.19629,8.06337,8.06337,0,0,1,1.666-2.61768,7.70483,7.70483,0,0,1,2.584-1.76807,8.528,8.528,0,0,1,3.38281-.646,7.65539,7.65539,0,0,1,3.40039.81592,6.25576,6.25576,0,0,1,2.61816,2.3457h.06738V532.2041h2.3125V547.98a11.6253,11.6253,0,0,1-.35742,2.75439,6.944,6.944,0,0,1-1.32617,2.686,7.49246,7.49246,0,0,1-2.63477,2.04,9.84392,9.84392,0,0,1-4.31836.81592,10.70111,10.70111,0,0,1-4.21582-.8501,10.16963,10.16963,0,0,1-3.43359-2.34619Zm.44141-11.356a6.92373,6.92373,0,0,0,.4082,2.38037,5.97058,5.97058,0,0,0,1.17285,1.97168,5.45421,5.45421,0,0,0,1.8877,1.34326,6.27913,6.27913,0,0,0,2.5498.49268,6.61814,6.61814,0,0,0,2.44824-.44189,5.6105,5.6105,0,0,0,1.9375-1.25781,5.79352,5.79352,0,0,0,1.27539-1.95508,6.72648,6.72648,0,0,0,.459-2.5332,6.19916,6.19916,0,0,0-3.67187-5.71191,5.84994,5.84994,0,0,0-2.44824-.50977,6.09933,6.09933,0,0,0-2.5498.50977,5.659,5.659,0,0,0-1.8877,1.35986,5.97282,5.97282,0,0,0-1.17285,1.97217A6.923,6.923,0,0,0,698.06934,539.95605Z"/><path class="c" d="M726.37793,535.978a4.07255,4.07255,0,0,0-1.54785-1.61475,4.46273,4.46273,0,0,0-2.3623-.62891,5.65284,5.65284,0,0,0-1.22461.13574,3.34658,3.34658,0,0,0-1.08789.44189,2.39762,2.39762,0,0,0-.76465.78223,2.1163,2.1163,0,0,0-.28906,1.12207,1.9218,1.9218,0,0,0,.918,1.7168,8.8134,8.8134,0,0,0,2.88965,1.00293,9.65365,9.65365,0,0,1,4.165,1.68311,3.65328,3.65328,0,0,1,1.34375,2.9751,4.40134,4.40134,0,0,1-1.9043,3.8252,5.56776,5.56776,0,0,1-1.9209.84961,9.26809,9.26809,0,0,1-2.15918.25537,8.61609,8.61609,0,0,1-3.502-.748,6.48046,6.48046,0,0,1-2.78809-2.34619l1.83594-1.35986a5.194,5.194,0,0,0,4.41992,2.48193,7.25733,7.25733,0,0,0,1.42773-.13623,3.27851,3.27851,0,0,0,1.19043-.47559,2.439,2.439,0,0,0,1.12207-2.17627,2.01888,2.01888,0,0,0-1.207-1.88672,15.78376,15.78376,0,0,0-3.48535-1.17334q-.71338-.16992-1.5127-.4248a5.20021,5.20021,0,0,1-1.47949-.748A4.05092,4.05092,0,0,1,717.334,538.29a3.62062,3.62062,0,0,1-.44238-1.86963,4.28655,4.28655,0,0,1,.47559-2.09131,4.17007,4.17007,0,0,1,1.27539-1.42773,5.68018,5.68018,0,0,1,1.81934-.833,8.14622,8.14622,0,0,1,2.10742-.272,7.4105,7.4105,0,0,1,3.23047.748,5.20966,5.20966,0,0,1,2.3457,2.10791Z"/><path class="c" d="M306.65527,25.66943h.06836l6.01758-20.70557H315.665l6.01855,20.70557h.06836l5.88184-20.70557h2.584l-7.10645,24.07178h-2.85547L314.20313,8.36377h-.06738L308.084,29.03564h-2.85645L298.12109,4.96387h2.584Z"/><path class="c" d="M336.04785,15.7417a4.79812,4.79812,0,0,1,2.14258-2.21,6.56889,6.56889,0,0,1,3.19531-.81592,5.5918,5.5918,0,0,1,4.53906,1.80176,7.15782,7.15782,0,0,1,1.51367,4.76025v9.75781H345.126V20.22949a11.67714,11.67714,0,0,0-.2041-2.27783,4.75937,4.75937,0,0,0-.69727-1.751,3.331,3.331,0,0,0-1.3252-1.13916,4.74562,4.74562,0,0,0-2.0918-.40771,4.45634,4.45634,0,0,0-1.78418.374,4.3896,4.3896,0,0,0-1.54785,1.13867,5.70946,5.70946,0,0,0-1.08789,1.938,8.4663,8.4663,0,0,0-.40723,2.771v8.16016H333.668V3.33154h2.3125V15.7417Z"/><path class="c" d="M362.88379,18.7373A4.00053,4.00053,0,0,0,361.7959,15.666a4.48243,4.48243,0,0,0-3.16211-1.01221,6.82309,6.82309,0,0,0-2.65137.50977,6.34446,6.34446,0,0,0-2.07422,1.35986l-1.292-1.52979a7.62248,7.62248,0,0,1,2.60059-1.63184,9.77111,9.77111,0,0,1,3.65527-.646,7.91106,7.91106,0,0,1,2.41406.35693,5.72171,5.72171,0,0,1,1.97168,1.0708A4.85736,4.85736,0,0,1,364.584,15.9458a6.32089,6.32089,0,0,1,.47559,2.5498v6.97021q0,.91772.06836,1.90381a13.24213,13.24213,0,0,0,.2041,1.666h-2.07422c-.06738-.38525-.125-.8042-.16992-1.25781a13.16123,13.16123,0,0,1-.06836-1.32617h-.06738a6.70516,6.70516,0,0,1-2.46484,2.29492,7.27466,7.27466,0,0,1-3.31543.69727,7.3991,7.3991,0,0,1-1.88672-.25586,5.2639,5.2639,0,0,1-1.76855-.83545,4.71416,4.71416,0,0,1-1.3252-1.50146,4.45628,4.45628,0,0,1-.52734-2.25146,4.29138,4.29138,0,0,1,.93457-2.9165,5.61,5.61,0,0,1,2.499-1.60352,14.69658,14.69658,0,0,1,3.58691-.68262q2.02295-.15234,4.19922-.15332Zm-.67969,2.34229q-1.42822,0-2.873.11914a12.527,12.527,0,0,0-2.61816.47607,4.94325,4.94325,0,0,0-1.9209,1.03662,2.31843,2.31843,0,0,0-.748,1.80225,2.88391,2.88391,0,0,0,.32324,1.42773,2.62761,2.62761,0,0,0,.86719.93506,3.68283,3.68283,0,0,0,1.207.51025,5.93962,5.93962,0,0,0,1.34277.15283,5.28269,5.28269,0,0,0,2.17578-.4248,4.59483,4.59483,0,0,0,1.59766-1.15625,5.1005,5.1005,0,0,0,.98633-1.68262,5.92207,5.92207,0,0,0,.33984-2.00635V21.07959Z"/><path class="c" d="M372.78809,29.03564h-2.3125V3.33154h2.3125Z"/><path class="c" d="M393.00781,20.60352v.51025a5.28279,5.28279,0,0,1-.03418.57764H379.78223a6.175,6.175,0,0,0,.47559,2.24414,5.64267,5.64267,0,0,0,1.22363,1.83594,5.89912,5.89912,0,0,0,1.83594,1.24121,6.07989,6.07989,0,0,0,5.38965-.374,6.23577,6.23577,0,0,0,1.98926-1.9209l1.7334,1.35986a8.62756,8.62756,0,0,1-3.14453,2.584,8.80537,8.80537,0,0,1-3.68945.78223,8.46172,8.46172,0,0,1-3.28125-.62939,7.67858,7.67858,0,0,1-2.60059-1.751,8.28375,8.28375,0,0,1-1.7168-2.65186,8.66664,8.66664,0,0,1-.62891-3.332,8.90646,8.90646,0,0,1,.61133-3.332,8.06613,8.06613,0,0,1,1.7002-2.65186,7.82033,7.82033,0,0,1,2.5498-1.751,7.91206,7.91206,0,0,1,3.16211-.62891,8.11093,8.11093,0,0,1,3.29785.62891,6.81208,6.81208,0,0,1,2.38086,1.69971,7.32987,7.32987,0,0,1,1.44434,2.499A9.32892,9.32892,0,0,1,393.00781,20.60352Zm-2.3457-.748a5.73633,5.73633,0,0,0-1.44531-3.72266,4.90327,4.90327,0,0,0-3.8252-1.479,5.35384,5.35384,0,0,0-2.1416.4248,5.7258,5.7258,0,0,0-2.92383,2.82227,5.38007,5.38007,0,0,0-.51074,1.95459Z"/><path class="c" d="M406.18262,16.89746a4.07255,4.07255,0,0,0-1.54785-1.61475,4.46273,4.46273,0,0,0-2.3623-.62891,5.65284,5.65284,0,0,0-1.22461.13574,3.34658,3.34658,0,0,0-1.08789.44189,2.39762,2.39762,0,0,0-.76465.78223,2.1163,2.1163,0,0,0-.28906,1.12207,1.9218,1.9218,0,0,0,.918,1.7168,8.81339,8.81339,0,0,0,2.88965,1.00293,9.65365,9.65365,0,0,1,4.165,1.68311,3.65328,3.65328,0,0,1,1.34375,2.9751,4.40134,4.40134,0,0,1-1.9043,3.8252,5.56776,5.56776,0,0,1-1.9209.84961,9.26809,9.26809,0,0,1-2.15918.25537,8.61609,8.61609,0,0,1-3.502-.748,6.48046,6.48046,0,0,1-2.78809-2.34619l1.83594-1.35986a5.194,5.194,0,0,0,4.41992,2.48193,7.25733,7.25733,0,0,0,1.42773-.13623,3.27851,3.27851,0,0,0,1.19043-.47559,2.439,2.439,0,0,0,1.12207-2.17627,2.01888,2.01888,0,0,0-1.207-1.88672,15.78377,15.78377,0,0,0-3.48535-1.17334q-.71338-.16992-1.5127-.4248a5.20021,5.20021,0,0,1-1.47949-.748,4.05092,4.05092,0,0,1-1.12109-1.24121,3.62062,3.62062,0,0,1-.44238-1.86963,4.28655,4.28655,0,0,1,.47559-2.09131,4.17007,4.17007,0,0,1,1.27539-1.42773,5.68018,5.68018,0,0,1,1.81934-.833,8.14623,8.14623,0,0,1,2.10742-.272,7.4105,7.4105,0,0,1,3.23047.748,5.20966,5.20966,0,0,1,2.3457,2.10791Z"/><path class="c" d="M315.25781,363.126a2.59813,2.59813,0,0,0-1.01465-.86816,3.10333,3.10333,0,0,0-1.44336-.34961,3.30357,3.30357,0,0,0-1.47656.31592,3.3694,3.3694,0,0,0-1.09375.84521,3.70311,3.70311,0,0,0-.6875,1.229,4.6443,4.6443,0,0,0,0,2.93115,3.69346,3.69346,0,0,0,.6875,1.229,3.33535,3.33535,0,0,0,1.10449.8457,3.64343,3.64343,0,0,0,2.96582,0,3.02443,3.02443,0,0,0,1.09277-.85693l1.4209,1.28516a4.59241,4.59241,0,0,1-1.69141,1.229,5.72941,5.72941,0,0,1-2.2998.43945,6.28146,6.28146,0,0,1-2.28809-.40576,5.42249,5.42249,0,0,1-1.81543-1.13867,5.23509,5.23509,0,0,1-1.20605-1.77,5.89679,5.89679,0,0,1-.44043-2.32227,5.97749,5.97749,0,0,1,.42871-2.2998,5.22214,5.22214,0,0,1,1.19531-1.78174,5.34324,5.34324,0,0,1,1.81543-1.1499,6.22031,6.22031,0,0,1,2.26563-.40576,5.94129,5.94129,0,0,1,2.24316.45117,4.10529,4.10529,0,0,1,1.77051,1.30762Z"/><path class="c" d="M325.84668,364.18555a2.12833,2.12833,0,0,0-.72168-1.77,2.98821,2.98821,0,0,0-1.917-.57471,4.21366,4.21366,0,0,0-1.70215.34912,4.3073,4.3073,0,0,0-1.3418.89111l-1.127-1.353a5.67787,5.67787,0,0,1,1.92773-1.17236,6.88676,6.88676,0,0,1,2.44629-.42871,5.52518,5.52518,0,0,1,1.99512.32715,3.76587,3.76587,0,0,1,1.38672.89063,3.63447,3.63447,0,0,1,.81152,1.33008,4.90567,4.90567,0,0,1,.27148,1.646v4.66748q0,.54126.0332,1.13867a5.79494,5.79494,0,0,0,.124.981h-1.916a6.62515,6.62515,0,0,1-.18066-1.5332h-.06738a4.10927,4.10927,0,0,1-1.47754,1.33008,4.42629,4.42629,0,0,1-2.1084.47363,5.51075,5.51075,0,0,1-1.31836-.16895,3.82781,3.82781,0,0,1-1.252-.55273,3.111,3.111,0,0,1-.93555-1.01465,3.0152,3.0152,0,0,1-.37207-1.55566,2.7337,2.7337,0,0,1,.6543-1.92773,4.13935,4.13935,0,0,1,1.71289-1.08252,9.71216,9.71216,0,0,1,2.39063-.48486q1.33008-.11206,2.68359-.1123Zm-.51953,1.82666q-.78955,0-1.63379.06738a7.58147,7.58147,0,0,0-1.53418.27051,2.90448,2.90448,0,0,0-1.13867.60889,1.38382,1.38382,0,0,0-.4502,1.08252,1.49583,1.49583,0,0,0,.19141.78906,1.59658,1.59658,0,0,0,.50684.51855,2.03724,2.03724,0,0,0,.69922.28174,3.862,3.862,0,0,0,.78906.0791,2.91964,2.91964,0,0,0,2.28906-.89062,3.233,3.233,0,0,0,.80078-2.24365v-.56348Z"/><path class="c" d="M333.15137,360.41992c.0293.271.05273.5752.06738.91357.01465.33789.02246.62012.02246.84521h.06738a3.12631,3.12631,0,0,1,.55273-.80029,4.0128,4.0128,0,0,1,.80078-.65381,3.9453,3.9453,0,0,1,.99219-.43994,4.01044,4.01044,0,0,1,1.127-.15771,4.16168,4.16168,0,0,1,1.78125.34961,3.618,3.618,0,0,1,1.24023.93555,3.79024,3.79024,0,0,1,.7334,1.37549,5.8831,5.8831,0,0,1,.23633,1.69141v6.62891h-2.11914v-5.93018a7.30137,7.30137,0,0,0-.10156-1.24023,3.01711,3.01711,0,0,0-.37207-1.03711,2.02678,2.02678,0,0,0-.74414-.72168,2.43888,2.43888,0,0,0-1.21777-.27051,2.56593,2.56593,0,0,0-2.06348.9585,3.8667,3.8667,0,0,0-.7998,2.55908v5.68213h-2.12012v-8.3877q0-.42847-.02246-1.105-.022-.67676-.06738-1.19531Z"/><path class="c" d="M355.7666,363.126a2.77438,2.77438,0,0,0-1.01465-.9585,2.91339,2.91339,0,0,0-1.46582-.37207,3.36132,3.36132,0,0,0-.72168.0791,2.13021,2.13021,0,0,0-.64258.248,1.3722,1.3722,0,0,0-.4502.42822,1.14951,1.14951,0,0,0-.16992.64258,1.06859,1.06859,0,0,0,.60938,1.00342,7.44115,7.44115,0,0,0,1.82617.59766,11.47976,11.47976,0,0,1,1.4209.42822,4.49118,4.49118,0,0,1,1.13867.62012,2.69113,2.69113,0,0,1,.75488.89063,2.59652,2.59652,0,0,1,.27051,1.21777,3.27757,3.27757,0,0,1-.36035,1.60107,3.13482,3.13482,0,0,1-.959,1.0708,3.92173,3.92173,0,0,1-1.36328.59766,6.887,6.887,0,0,1-1.5791.18018,6.25282,6.25282,0,0,1-2.37891-.47314,4.6531,4.6531,0,0,1-1.92773-1.44336l1.51074-1.28516a3.46546,3.46546,0,0,0,1.18359,1.05957,3.2997,3.2997,0,0,0,1.6582.42871,3.72716,3.72716,0,0,0,.77734-.0791,2.20529,2.20529,0,0,0,.67676-.25928,1.30934,1.30934,0,0,0,.665-1.21777,1.17317,1.17317,0,0,0-.71-1.10449,9.572,9.572,0,0,0-2.08594-.67676q-.542-.13477-1.09375-.32666a3.64757,3.64757,0,0,1-1.00293-.52979,2.637,2.637,0,0,1-.7334-.8457,2.55144,2.55144,0,0,1-.28125-1.25146,2.96772,2.96772,0,0,1,.34863-1.47705,3.05241,3.05241,0,0,1,.91406-1.01465,4.01659,4.01659,0,0,1,1.28516-.58594,5.75947,5.75947,0,0,1,1.48828-.19189,5.66455,5.66455,0,0,1,2.2207.45117,3.67959,3.67959,0,0,1,1.65723,1.30762Z"/><path class="c" d="M361.03125,360.41992l2.41309,8.1626h.04492l2.54785-8.1626h2.23242l2.59277,8.1626h.04492l2.41309-8.1626h2.23242l-3.54,10.688h-2.21l-2.6377-8.02686h-.0459l-2.61523,8.02686h-2.21l-3.5625-10.688Z"/><path class="c" d="M380.11621,356.56445a1.26284,1.26284,0,0,1-.41406.96973,1.41238,1.41238,0,0,1-.99512.3833,1.35292,1.35292,0,0,1-.98437-.39453,1.29122,1.29122,0,0,1-.40234-.9585,1.31792,1.31792,0,0,1,.40234-.981,1.35487,1.35487,0,0,1,.98438-.39453,1.391,1.391,0,0,1,.99512.39453A1.29939,1.29939,0,0,1,380.11621,356.56445Zm-.33789,14.54346H377.6582v-10.688h2.12012Z"/><path class="c" d="M386.64746,360.72461a3.69852,3.69852,0,0,1,2.1084-.59766,3.86176,3.86176,0,0,1,1.9502.49609,3.33,3.33,0,0,1,1.36426,1.646,3.80673,3.80673,0,0,1,1.51074-1.58936,4.20807,4.20807,0,0,1,2.11914-.55273,4.16168,4.16168,0,0,1,1.78125.34961,3.6087,3.6087,0,0,1,1.24023.93555,3.79024,3.79024,0,0,1,.7334,1.37549,5.8831,5.8831,0,0,1,.23633,1.69141v6.62891h-2.11914v-5.93018a6.562,6.562,0,0,0-.11328-1.24023,3.15353,3.15353,0,0,0-.38281-1.03711,2.07993,2.07993,0,0,0-.72168-.72168,2.2117,2.2117,0,0,0-1.15039-.27051,2.40752,2.40752,0,0,0-1.24023.30469,2.57117,2.57117,0,0,0-.84473.78906,3.312,3.312,0,0,0-.47363,1.09375,5.23062,5.23062,0,0,0-.14648,1.23975v5.77246h-2.12012v-6.3584a5.42163,5.42163,0,0,0-.1123-1.1499,2.33588,2.33588,0,0,0-.38379-.89062,1.89741,1.89741,0,0,0-.69824-.58643,2.36383,2.36383,0,0,0-1.06055-.21436,2.413,2.413,0,0,0-1.9502.9585,3.94009,3.94009,0,0,0-.77734,2.55908v5.68213h-2.12012v-8.3877q0-.42847-.02246-1.105-.022-.67676-.06738-1.19531h2.00684c.0293.271.05273.5752.06738.91357.01465.33789.02246.62012.02246.84521h.06738A3.6179,3.6179,0,0,1,386.64746,360.72461Z"/><path class="c" d="M314.85742,512.79H312.7373V495.74365h2.12012Z"/><path class="c" d="M325.03125,505.86768a2.12833,2.12833,0,0,0-.72168-1.77,2.98821,2.98821,0,0,0-1.917-.57471,4.21366,4.21366,0,0,0-1.70215.34912,4.3073,4.3073,0,0,0-1.3418.89111l-1.127-1.353a5.67787,5.67787,0,0,1,1.92773-1.17236,6.88676,6.88676,0,0,1,2.44629-.42871,5.52518,5.52518,0,0,1,1.99512.32715,3.76587,3.76587,0,0,1,1.38672.89063,3.63447,3.63447,0,0,1,.81152,1.33008,4.90567,4.90567,0,0,1,.27148,1.646v4.66748q0,.54126.0332,1.13867a5.795,5.795,0,0,0,.124.981h-1.916a6.62515,6.62515,0,0,1-.18066-1.5332h-.06738a4.10927,4.10927,0,0,1-1.47754,1.33008,4.42629,4.42629,0,0,1-2.1084.47363,5.51075,5.51075,0,0,1-1.31836-.16895,3.82781,3.82781,0,0,1-1.252-.55273,3.111,3.111,0,0,1-.93555-1.01465,3.0152,3.0152,0,0,1-.37207-1.55566,2.7337,2.7337,0,0,1,.6543-1.92773,4.13935,4.13935,0,0,1,1.71289-1.08252,9.71216,9.71216,0,0,1,2.39063-.48486q1.33008-.11206,2.68359-.1123Zm-.51953,1.82666q-.78955,0-1.63379.06738a7.58147,7.58147,0,0,0-1.53418.27051,2.90448,2.90448,0,0,0-1.13867.60889,1.38382,1.38382,0,0,0-.4502,1.08252,1.49583,1.49583,0,0,0,.19141.78906,1.59658,1.59658,0,0,0,.50684.51855,2.03724,2.03724,0,0,0,.69922.28174,3.862,3.862,0,0,0,.78906.0791,2.91964,2.91964,0,0,0,2.28906-.89062,3.233,3.233,0,0,0,.80078-2.24365v-.56348Z"/><path class="c" d="M334.207,510.49023h.04492l2.9541-8.38818h2.25488l-5.18555,13.21338a8.57786,8.57786,0,0,1-.58691,1.20654,3.68187,3.68187,0,0,1-.74414.90186,3.06831,3.06831,0,0,1-1.00293.57471,4.10873,4.10873,0,0,1-1.36426.20313q-.33838,0-.6875-.03369a4.97979,4.97979,0,0,1-.71094-.124l.20313-1.87158a3.34489,3.34489,0,0,0,1.05957.18018,1.56568,1.56568,0,0,0,1.24023-.46191,4.532,4.532,0,0,0,.74414-1.31934l.67676-1.78125-4.57715-10.688h2.36719Z"/><path class="c" d="M357.13867,507.356v.36084a2.97669,2.97669,0,0,1-.02246.36084h-8.501a3.14659,3.14659,0,0,0,.30469,1.26514,3.32737,3.32737,0,0,0,.75488,1.03027,3.49442,3.49442,0,0,0,1.09375.68262,3.817,3.817,0,0,0,3.19043-.22754,3.81353,3.81353,0,0,0,1.24023-1.1499l1.48828,1.19531a5.31875,5.31875,0,0,1-2.01855,1.67285,6.47215,6.47215,0,0,1-4.83594.13086,5.20616,5.20616,0,0,1-1.78125-1.13867,5.26979,5.26979,0,0,1-1.17285-1.77,5.97749,5.97749,0,0,1-.42871-2.2998,6.131,6.131,0,0,1,.418-2.28857,5.24537,5.24537,0,0,1,1.16406-1.79248,5.3338,5.3338,0,0,1,1.7627-1.16162,6.05172,6.05172,0,0,1,4.32715-.03369,4.41134,4.41134,0,0,1,1.627,1.105,4.98143,4.98143,0,0,1,1.02832,1.74756A6.944,6.944,0,0,1,357.13867,507.356Zm-2.165-.85693a4.04884,4.04884,0,0,0-.21387-1.18359,2.72062,2.72062,0,0,0-.56348-.9585,2.65176,2.65176,0,0,0-.9248-.64258,3.27584,3.27584,0,0,0-1.29687-.23682,3.42585,3.42585,0,0,0-1.27344.23682,3.30383,3.30383,0,0,0-1.03711.64258,3.38219,3.38219,0,0,0-.72168.9585,3.05406,3.05406,0,0,0-.32715,1.18359Z"/><path class="c" d="M360.82129,514.61621a5.07994,5.07994,0,0,0,1.74707,1.2627,5.1782,5.1782,0,0,0,2.15332.47363,4.59931,4.59931,0,0,0,1.78125-.3042,2.98843,2.98843,0,0,0,1.16113-.83447,3.23643,3.23643,0,0,0,.63184-1.25146,6.0782,6.0782,0,0,0,.19141-1.55566v-1.37549h-.04492a3.76627,3.76627,0,0,1-1.60156,1.37549,5.05525,5.05525,0,0,1-2.16406.47363,5.60328,5.60328,0,0,1-2.22168-.42871,4.98083,4.98083,0,0,1-1.70215-1.17236,5.27492,5.27492,0,0,1-1.082-1.74756,5.97442,5.97442,0,0,1-.38379-2.15332,6.06623,6.06623,0,0,1,.38379-2.16455,5.38172,5.38172,0,0,1,1.082-1.77,5.06576,5.06576,0,0,1,1.69141-1.19482,5.3877,5.3877,0,0,1,2.21-.43994,5.082,5.082,0,0,1,2.19824.49609,3.78925,3.78925,0,0,1,1.65723,1.51074h.04492v-1.71387h2.05176v10.147a8.46483,8.46483,0,0,1-.293,2.24316,4.87854,4.87854,0,0,1-.99219,1.894,4.98379,4.98379,0,0,1-1.82617,1.31934,6.95042,6.95042,0,0,1-2.7959.49609,8.24992,8.24992,0,0,1-2.80762-.50732,7.15263,7.15263,0,0,1-2.42383-1.43213Zm.63086-7.28271a4.25775,4.25775,0,0,0,.2373,1.42041,3.49871,3.49871,0,0,0,1.82129,2.0293,3.39091,3.39091,0,0,0,1.49316.31592,3.71758,3.71758,0,0,0,1.49219-.29346,3.39873,3.39873,0,0,0,1.15332-.80029,3.59227,3.59227,0,0,0,.73535-1.19482,4.1522,4.1522,0,0,0,.25977-1.47705,4.0012,4.0012,0,0,0-.25977-1.44336,3.62117,3.62117,0,0,0-1.89941-2.01807,3.78795,3.78795,0,0,0-2.97461,0,3.47971,3.47971,0,0,0-1.12012.812,3.383,3.383,0,0,0-.70117,1.19482A4.43234,4.43234,0,0,0,361.45215,507.3335Z"/><path class="c" d="M374.94531,514.61621a5.07994,5.07994,0,0,0,1.74707,1.2627,5.1782,5.1782,0,0,0,2.15332.47363,4.59931,4.59931,0,0,0,1.78125-.3042,2.98843,2.98843,0,0,0,1.16113-.83447,3.23643,3.23643,0,0,0,.63184-1.25146,6.0782,6.0782,0,0,0,.19141-1.55566v-1.37549h-.04492a3.76627,3.76627,0,0,1-1.60156,1.37549,5.05525,5.05525,0,0,1-2.16406.47363,5.60328,5.60328,0,0,1-2.22168-.42871,4.98083,4.98083,0,0,1-1.70215-1.17236,5.27491,5.27491,0,0,1-1.082-1.74756,5.97441,5.97441,0,0,1-.38379-2.15332,6.06623,6.06623,0,0,1,.38379-2.16455,5.38172,5.38172,0,0,1,1.082-1.77,5.06576,5.06576,0,0,1,1.69141-1.19482,5.3877,5.3877,0,0,1,2.21-.43994,5.082,5.082,0,0,1,2.19824.49609,3.78925,3.78925,0,0,1,1.65723,1.51074h.04492v-1.71387h2.05176v10.147a8.46483,8.46483,0,0,1-.293,2.24316,4.87854,4.87854,0,0,1-.99219,1.894,4.98379,4.98379,0,0,1-1.82617,1.31934,6.95042,6.95042,0,0,1-2.7959.49609,8.24992,8.24992,0,0,1-2.80762-.50732,7.15263,7.15263,0,0,1-2.42383-1.43213Zm.63086-7.28271a4.25775,4.25775,0,0,0,.2373,1.42041,3.49871,3.49871,0,0,0,1.82129,2.0293,3.39091,3.39091,0,0,0,1.49316.31592,3.71757,3.71757,0,0,0,1.49219-.29346,3.39873,3.39873,0,0,0,1.15332-.80029,3.59227,3.59227,0,0,0,.73535-1.19482,4.1522,4.1522,0,0,0,.25977-1.47705,4.0012,4.0012,0,0,0-.25977-1.44336,3.62118,3.62118,0,0,0-1.89941-2.01807,3.78795,3.78795,0,0,0-2.97461,0,3.47971,3.47971,0,0,0-1.12012.812,3.383,3.383,0,0,0-.70117,1.19482A4.43234,4.43234,0,0,0,375.57617,507.3335Z"/><path class="c" d="M394.11719,504.80811a2.77438,2.77438,0,0,0-1.01465-.9585,2.91339,2.91339,0,0,0-1.46582-.37207,3.36132,3.36132,0,0,0-.72168.0791,2.13021,2.13021,0,0,0-.64258.248,1.3722,1.3722,0,0,0-.4502.42822,1.14951,1.14951,0,0,0-.16992.64258,1.06859,1.06859,0,0,0,.60938,1.00342,7.44115,7.44115,0,0,0,1.82617.59766,11.47975,11.47975,0,0,1,1.4209.42822,4.49117,4.49117,0,0,1,1.13867.62012,2.69113,2.69113,0,0,1,.75488.89063,2.59652,2.59652,0,0,1,.27051,1.21777,3.27757,3.27757,0,0,1-.36035,1.60107,3.13482,3.13482,0,0,1-.959,1.0708,3.92173,3.92173,0,0,1-1.36328.59766,6.887,6.887,0,0,1-1.5791.18018,6.25282,6.25282,0,0,1-2.37891-.47314,4.65309,4.65309,0,0,1-1.92773-1.44336l1.51074-1.28516a3.46546,3.46546,0,0,0,1.18359,1.05957,3.2997,3.2997,0,0,0,1.6582.42871,3.72716,3.72716,0,0,0,.77734-.0791,2.20528,2.20528,0,0,0,.67676-.25928,1.30934,1.30934,0,0,0,.665-1.21777,1.17317,1.17317,0,0,0-.71-1.10449,9.572,9.572,0,0,0-2.08594-.67676q-.542-.13477-1.09375-.32666a3.64757,3.64757,0,0,1-1.00293-.52979,2.637,2.637,0,0,1-.7334-.8457,2.55144,2.55144,0,0,1-.28125-1.25146,2.96772,2.96772,0,0,1,.34863-1.47705,3.05242,3.05242,0,0,1,.91406-1.01465,4.01659,4.01659,0,0,1,1.28516-.58594,5.75946,5.75946,0,0,1,1.48828-.19189,5.66455,5.66455,0,0,1,2.2207.45117,3.67959,3.67959,0,0,1,1.65723,1.30762Z"/></g></svg>