<?xml version="1.0" encoding="utf-8"?>
<!-- Generator: Adobe Illustrator 16.2.1, SVG Export Plug-In . SVG Version: 6.00 Build 0)  -->
<!DOCTYPE svg PUBLIC "-//W3C//DTD SVG 1.1//EN" "http://www.w3.org/Graphics/SVG/1.1/DTD/svg11.dtd">
<svg version="1.1" id="Layer_1" xmlns="http://www.w3.org/2000/svg" xmlns:xlink="http://www.w3.org/1999/xlink" x="0px" y="0px"
	 width="406.21px" height="587px" viewBox="0 0 406.21 587" enable-background="new 0 0 406.21 587" xml:space="preserve">
<rect width="361.21" height="346"/>
<rect y="435" width="361.21" height="152"/>
<rect x="45" y="345" width="361.21" height="90.936"/>
<g>
	<path fill="#FFFFFF" d="M51.206,56.913c0,0.448-0.192,0.64-0.64,0.64h-0.432c-0.448,0-0.64-0.192-0.64-0.64v-9.012h-0.896
		c-0.448,0-0.64-0.192-0.64-0.64v-0.272c0-0.448,0.192-0.64,0.64-0.64h3.505c0.448,0,0.64,0.192,0.64,0.64v0.272
		c0,0.448-0.192,0.64-0.64,0.64h-0.896V56.913z"/>
	<path fill="#FFFFFF" d="M61.525,51.071h1.648v-4.082c0-0.448,0.192-0.64,0.64-0.64h0.432c0.448,0,0.641,0.192,0.641,0.64v9.924
		c0,0.448-0.192,0.64-0.641,0.64h-0.432c-0.448,0-0.64-0.192-0.64-0.64v-4.29h-1.648v4.29c0,0.448-0.192,0.64-0.641,0.64h-0.432
		c-0.448,0-0.64-0.192-0.64-0.64v-9.924c0-0.448,0.192-0.64,0.64-0.64h0.432c0.448,0,0.641,0.192,0.641,0.64V51.071z"/>
	<path fill="#FFFFFF" d="M72.292,46.989c0-0.448,0.192-0.64,0.64-0.64h2.529c0.448,0,0.64,0.192,0.64,0.64v0.272
		c0,0.448-0.192,0.64-0.64,0.64h-1.457v3.169h1.376c0.448,0,0.64,0.192,0.64,0.64v0.272c0,0.448-0.192,0.64-0.64,0.64h-1.376V56
		h1.488c0.448,0,0.64,0.192,0.64,0.64v0.272c0,0.448-0.192,0.64-0.64,0.64h-2.561c-0.448,0-0.64-0.192-0.64-0.64V46.989z"/>
</g>
<g>
	<path fill="#FFFFFF" d="M45.976,99.364h2.188c0.562,0,0.75-0.188,0.75-0.75v-18.75c0-0.562-0.188-0.75-0.75-0.75h-2.188v-1h10.125
		c4.438,0,7.5,2.062,7.5,5.5c0,3-2.5,4.594-5.75,4.969v0.219c2.938,0.531,5.062,1.875,5.062,5.781v3.469
		c0,0.938,0.312,1.312,0.875,1.312c1.188,0,1.562-2.406,1.562-4.625h1c0,3.625-0.719,6.375-3.719,6.375
		c-2.562,0-4.344-1.5-4.344-4.688v-3.875c0-1.812-0.812-3.562-3-3.562h-1.75v9.625c0,0.562,0.188,0.75,0.75,0.75h2.75v1H45.976
		V99.364z M55.632,87.989c2.344,0,2.969-2,2.969-4.625s-0.625-4.25-2.969-4.25h-1.344c-0.562,0-0.75,0.188-0.75,0.75v8.125H55.632z"
		/>
	<path fill="#FFFFFF" d="M75.001,99.364h2.188c0.562,0,0.75-0.188,0.75-0.75v-18.75c0-0.562-0.188-0.75-0.75-0.75h-2.188v-1h10.5v1
		h-2.188c-0.562,0-0.75,0.188-0.75,0.75v18.75c0,0.562,0.188,0.75,0.75,0.75h2.188v1h-10.5V99.364z"/>
	<path fill="#FFFFFF" d="M96.872,90.802c0.875,4.594,3.656,9.125,7.219,9.125c3.75,0,4.281-2.25,4.281-3.562c0-1.156-1-2-2.25-2.812
		l-6.688-4.312c-1.562-1-3.5-2.812-3.5-5.688c0-4.312,3-6,6.125-6c2.062,0,3.812,1.125,4.438,1.562
		c0.406,0.312,0.812,0.562,1.125,0.562c0.406,0,0.625-0.312,0.688-0.719l0.188-0.844h1l0.312,8.125h-1
		c-1.156-4.312-3.938-7.688-7-7.688c-2.219,0-3.25,0.875-3.25,2.625c0,1.438,1.344,2.656,2.781,3.594l6.719,4.344
		c1.719,1.125,2.812,3.281,2.812,5.375c0,3.094-2.188,6.438-6.969,6.438c-2,0-3.438-0.688-4.281-1.375
		c-0.812-0.625-1.219-0.938-1.625-0.938c-0.438,0-0.719,0.375-0.812,1.062l-0.156,1h-0.969l-0.188-9.875H96.872z"/>
	<path fill="#FFFFFF" d="M120.585,99.364h2.188c0.562,0,0.75-0.188,0.75-0.75v-18.75c0-0.562-0.188-0.75-0.75-0.75h-2.188v-1h17.562
		l0.188,7.25h-1c0,0-0.312-2-1.25-3.562c-0.875-1.531-2.125-2.688-3.75-2.688h-3.438c-0.562,0-0.75,0.188-0.75,0.75v8.625h1.594
		c1.75,0,3.125-2.5,3.125-4.312h1v9.781h-1c0-1.844-1.375-4.344-3.125-4.344h-1.594v9c0,0.562,0.188,0.75,0.75,0.75h3.406
		c2.562,0,4.031-2.75,4.625-4.438c0.406-1.156,0.656-3.188,0.656-3.188h1l-0.188,8.625h-17.812V99.364z"/>
</g>
<g>
	<path fill="#FFFFFF" d="M51.445,130.949l0.719-0.5l-0.344-0.531c-1-1.531-1.562-2.594-1.562-4.719c0-3.312,2.531-5.156,5.281-5.156
		c2.781,0,3.719,2.281,3.719,3.875c0,2.438-1.594,3.906-3.656,5.438l5.5,8.25c1.281-1.531,2.125-3.5,2.125-4.656
		c0-0.812-0.562-1.25-1.188-1.25h-1.188v-1h6.594v1h-0.25c-1.656,0-2.5,1.719-2.75,2.25c-0.656,1.375-1.562,3.125-2.75,4.5
		c1.031,1.75,1.938,3.125,3.031,3.125c0.906,0,1.531-0.969,2.031-1.969l0.625,0.312c-0.438,1.281-1.875,3.531-4.281,3.531
		c-1.406,0-2.938-1-3.938-2.469c-1.375,1.125-4.375,2.469-7.156,2.469c-3.625,0-6.375-1.719-6.375-4.969
		C45.632,135.637,47.945,133.387,51.445,130.949z M54.882,141.574c1.469,0,2.781-0.625,3.719-1.438l-5.812-8.781
		c-1.906,1.75-2.781,2.844-2.781,5.5C50.007,139.918,52.726,141.574,54.882,141.574z M55.007,128.418
		c1.531-1.156,2.875-2.406,2.875-4.75c0-1.469-0.906-2.625-2.312-2.625c-1.219,0-2.438,0.875-2.438,2.406
		C53.132,125.23,53.445,125.918,55.007,128.418z"/>
</g>
<g>
	<path fill="#FFFFFF" d="M45.976,184.409h2.188c0.562,0,0.75-0.188,0.75-0.75v-18.75c0-0.562-0.188-0.75-0.75-0.75h-2.188v-1h17.625
		l0.25,8.562h-1c0,0-0.344-2.5-1.125-4.156c-0.75-1.594-2.25-3.406-4.25-3.406h-3.188c-0.562,0-0.75,0.188-0.75,0.75v8.625h1.594
		c1.75,0,3.125-2.5,3.125-4.312h1v9.781h-1c0-1.844-1.375-4.344-3.125-4.344h-1.594v9c0,0.562,0.188,0.75,0.75,0.75h2.844v1H45.976
		V184.409z"/>
	<path fill="#FFFFFF" d="M69.815,184.409h1.062c1.344,0,2.312-1.281,2.75-2.531l6.594-19.281h1.312l6.688,20.219
		c0.375,1.094,1.031,1.594,1.844,1.594h1.25v1H80.346v-1h2.25c0.5,0,0.844-0.469,0.844-1c0-0.188-0.094-0.625-0.188-0.906l-1-3
		H75.69l-0.656,1.906c-0.219,0.562-0.344,1.188-0.344,1.594c0,0.688,0.594,1.406,1.625,1.406h1.469v1h-7.969V184.409z
		 M81.877,178.347l-2.844-8.594l-2.938,8.594H81.877z"/>
	<path fill="#FFFFFF" d="M100.184,184.409h2.188c0.562,0,0.75-0.281,0.75-0.844v-18.656c0-0.562-0.188-0.75-0.75-0.75h-2.188v-1
		h10.5v1h-2.188c-0.562,0-0.75,0.188-0.75,0.75v18.656c0,0.562,0.188,0.844,0.75,0.844h3.156c2.562,0,4.156-3.719,4.688-5.438
		c0.344-1.156,0.781-3.188,0.781-3.188h1l-0.25,9.625h-17.688V184.409z"/>
	<path fill="#FFFFFF" d="M127.334,184.409h2.188c0.562,0,0.75-0.281,0.75-0.844v-18.656c0-0.562-0.188-0.75-0.75-0.75h-2.188v-1
		h10.5v1h-2.188c-0.562,0-0.75,0.188-0.75,0.75v18.656c0,0.562,0.188,0.844,0.75,0.844h3.156c2.562,0,4.156-3.719,4.688-5.438
		c0.344-1.156,0.781-3.188,0.781-3.188h1l-0.25,9.625h-17.688V184.409z"/>
</g>
<g>
	<path fill="#FFFFFF" d="M52.626,213.621c0,1.393-0.688,2.081-2.081,2.081h-0.913c-1.393,0-2.081-0.688-2.081-2.081v-7.235
		c0-1.393,0.688-2.081,2.081-2.081h0.913c1.392,0,2.081,0.688,2.081,2.081V213.621z M50.913,206.466c0-0.448-0.208-0.656-0.64-0.656
		h-0.352c-0.448,0-0.656,0.208-0.656,0.656v7.075c0,0.448,0.208,0.656,0.656,0.656h0.352c0.432,0,0.64-0.208,0.64-0.656V206.466z"/>
	<path fill="#FFFFFF" d="M60.016,205.041c0-0.448,0.192-0.64,0.64-0.64h2.449c0.448,0,0.64,0.192,0.64,0.64v0.272
		c0,0.448-0.192,0.64-0.64,0.64h-1.376v3.233h1.296c0.448,0,0.64,0.192,0.64,0.64v0.272c0,0.448-0.192,0.64-0.64,0.64h-1.296v4.226
		c0,0.448-0.192,0.64-0.641,0.64h-0.432c-0.448,0-0.64-0.192-0.64-0.64V205.041z"/>
</g>
<g>
	<path fill="#FFFFFF" d="M48.927,247.854c0.875,4.594,3.656,9.125,7.219,9.125c3.75,0,4.281-2.25,4.281-3.562
		c0-1.156-1-2-2.25-2.812l-6.688-4.312c-1.562-1-3.5-2.812-3.5-5.688c0-4.312,3-6,6.125-6c2.062,0,3.812,1.125,4.438,1.562
		c0.406,0.312,0.812,0.562,1.125,0.562c0.406,0,0.625-0.312,0.688-0.719l0.188-0.844h1l0.312,8.125h-1
		c-1.156-4.312-3.938-7.688-7-7.688c-2.219,0-3.25,0.875-3.25,2.625c0,1.438,1.344,2.656,2.781,3.594l6.719,4.344
		c1.719,1.125,2.812,3.281,2.812,5.375c0,3.094-2.188,6.438-6.969,6.438c-2,0-3.438-0.688-4.281-1.375
		c-0.812-0.625-1.219-0.938-1.625-0.938c-0.438,0-0.719,0.375-0.812,1.062l-0.156,1h-0.969l-0.188-9.875H48.927z"/>
	<path fill="#FFFFFF" d="M72.671,256.416h2.188c0.562,0,0.75-0.188,0.75-0.75v-18.75c0-0.562-0.188-0.75-0.75-0.75h-2.188v-1h10.5v1
		h-2.188c-0.562,0-0.75,0.188-0.75,0.75v18.75c0,0.562,0.188,0.75,0.75,0.75h2.188v1h-10.5V256.416z"/>
	<path fill="#FFFFFF" d="M92.667,256.416h2.188c0.562,0,0.75-0.281,0.75-0.844v-18.656c0-0.562-0.188-0.75-0.75-0.75h-2.188v-1h10.5
		v1h-2.188c-0.562,0-0.75,0.188-0.75,0.75v18.656c0,0.562,0.188,0.844,0.75,0.844h3.156c2.562,0,4.156-3.719,4.688-5.438
		c0.344-1.156,0.781-3.188,0.781-3.188h1l-0.25,9.625H92.667V256.416z"/>
	<path fill="#FFFFFF" d="M119.817,256.416h2.188c0.562,0,0.75-0.188,0.75-0.75v-18.75c0-0.562-0.188-0.75-0.75-0.75h-2.188v-1h10.25
		v1h-1.938c-0.562,0-0.75,0.188-0.75,0.75v9.25l6.031-7c0.531-0.625,0.781-1,0.781-1.688c0-0.75-0.438-1.312-1.125-1.312h-0.906v-1
		h7.719v1h-1.094c-0.969,0-1.969,0.812-2.594,1.562l-4.188,4.844l6.594,12.469c0.5,0.969,0.844,1.375,1.875,1.375h0.844v1h-9.812v-1
		h1.25c0.375,0,0.656-0.312,0.656-0.656c0-0.188-0.062-0.594-0.156-0.781l-4.531-8.625l-1.344,1.531v7.781
		c0,0.562,0.188,0.75,0.75,0.75h1.938v1h-10.25V256.416z"/>
</g>
<g>
	<path fill="#FFFFFF" d="M45.989,298.938h2.188c0.562,0,0.75-0.188,0.75-0.75v-18.75c0-0.562-0.188-0.75-0.75-0.75h-2.188v-1h10.125
		c4.438,0,7.5,2.062,7.5,5.5c0,3-2.5,4.594-5.75,4.969v0.219c2.938,0.531,5.062,1.875,5.062,5.781v3.469
		c0,0.938,0.312,1.312,0.875,1.312c1.188,0,1.562-2.406,1.562-4.625h1c0,3.625-0.719,6.375-3.719,6.375
		c-2.562,0-4.344-1.5-4.344-4.688v-3.875c0-1.812-0.812-3.562-3-3.562h-1.75v9.625c0,0.562,0.188,0.75,0.75,0.75h2.75v1H45.989
		V298.938z M55.646,287.563c2.344,0,2.969-2,2.969-4.625s-0.625-4.25-2.969-4.25h-1.344c-0.562,0-0.75,0.188-0.75,0.75v8.125H55.646
		z"/>
	<path fill="#FFFFFF" d="M84.546,277.126c4.938,0,9.25,5.688,9.25,11.688s-4.312,11.688-9.25,11.688s-9.25-5.688-9.25-11.688
		S79.608,277.126,84.546,277.126z M84.546,299.501c2.375,0,3.938-1.5,3.938-6v-9.375c0-4.5-1.562-6-3.938-6s-3.938,1.5-3.938,6
		v9.375C80.608,298.001,82.171,299.501,84.546,299.501z"/>
	<path fill="#FFFFFF" d="M100.915,298.938h1.062c1.344,0,2.312-1.281,2.75-2.531l6.594-19.281h1.312l6.688,20.219
		c0.375,1.094,1.031,1.594,1.844,1.594h1.25v1h-10.969v-1h2.25c0.5,0,0.844-0.469,0.844-1c0-0.188-0.094-0.625-0.188-0.906l-1-3
		h-6.562l-0.656,1.906c-0.219,0.562-0.344,1.188-0.344,1.594c0,0.688,0.594,1.406,1.625,1.406h1.469v1h-7.969V298.938z
		 M112.978,292.876l-2.844-8.594l-2.938,8.594H112.978z"/>
	<path fill="#FFFFFF" d="M131.252,298.938h2.188c0.562,0,0.75-0.188,0.75-0.75v-18.75c0-0.562-0.188-0.75-0.75-0.75h-2.188v-1
		h11.625c5.188,0,9.438,4.438,9.438,10.938s-4.25,11.312-9.438,11.312h-11.625V298.938z M139.565,298.938h2.781
		c2.5,0,4.656-1.688,4.656-5.438v-9.375c0-3.75-2.156-5.438-4.656-5.438h-2.781c-0.562,0-0.75,0.188-0.75,0.75v18.75
		C138.815,298.751,139.002,298.938,139.565,298.938z"/>
</g>
<g>
	<path fill="#EC1B2F" d="M241.802,233.668l0.896-0.16l0.561-0.688l1.952-7.331l-0.176-0.688l-0.961-0.16l0.289-1.121h4.481
		c2.625,0,4.29,0.88,4.29,2.849c0,2.113-1.938,3.97-6.162,3.97h-0.433l-0.656,2.481l0.176,0.688l1.297,0.16l-0.304,1.121h-5.539
		L241.802,233.668z M247.276,229.026c1.841,0,3.073-0.929,3.073-2.561c0-1.041-0.672-1.617-1.873-1.617h-0.464l-1.12,4.178H247.276z
		"/>
	<path fill="#EC1B2F" d="M261.58,233.908c0-0.32,0.08-0.64,0.16-0.928l0.191-0.672l-0.127-0.064
		c-1.186,1.601-2.098,2.625-3.202,2.753c-1.28,0.144-2.081-0.784-2.081-2.417c0-3.649,3.25-6.515,5.699-6.515
		c0.912,0,1.408,0.24,1.92,0.592l0.832-0.576l0.609,0.128l-1.777,6.611c-0.176,0.656-0.031,0.833,1.168,1.121l-0.191,0.704
		l-2.273,0.336C261.964,234.772,261.58,234.437,261.58,233.908z M261.148,232.083c0.623-0.608,1.039-1.376,1.199-2.049l0.513-2.177
		c-0.176-0.24-0.496-0.417-0.849-0.417c-1.553,0-3.025,2.481-3.025,4.69c0,0.672,0.24,0.929,0.673,0.929
		C260.027,233.06,260.476,232.74,261.148,232.083z"/>
	<path fill="#EC1B2F" d="M271.931,228.082l-0.32-0.672l-0.96-0.176l0.256-0.928h3.393v0.864l-0.432,1.713l0.096,0.048
		c1.488-2.193,2.098-2.817,2.865-2.817c0.672,0,1.105,0.512,1.105,1.152c0,0.96-0.865,1.633-1.81,1.681l-0.736-0.72
		c-0.929,0.752-1.681,1.825-2.049,3.201l-0.896,3.361h-2.306L271.931,228.082z"/>
	<path fill="#EC1B2F" d="M281.914,233.508c0-0.352,0.096-0.752,0.191-1.088l1.281-4.818h-1.328l0.256-0.976l1.393-0.4l1.52-2.209
		h1.426l-0.625,2.289h2.289l-0.336,1.296h-2.289l-1.217,4.53c-0.08,0.304-0.128,0.544-0.128,0.769c0,0.448,0.288,0.656,0.849,0.656
		c0.305,0,0.672-0.096,1.088-0.272l0.176,0.944c-0.783,0.464-1.695,0.752-2.688,0.752
		C282.538,234.98,281.914,234.404,281.914,233.508z"/>
	<path fill="#EC1B2F" d="M298.09,233.668l0.96-0.16l0.561-0.688l1.952-7.331l-0.176-0.688l-1.024-0.16l0.288-1.121h5.346
		l-0.287,1.121l-0.961,0.16l-0.561,0.688l-1.952,7.331l0.176,0.688l1.024,0.16l-0.288,1.121h-5.347L298.09,233.668z"/>
</g>
<line fill="none" stroke="#EC1B2F" stroke-width="0.6" x1="242.202" y1="210.5" x2="304.702" y2="210.5"/>
<g>
	<path fill="#FFFFFF" d="M50.373,486.308c0.6,0.203,0.893,0.643,0.893,1.477v1.889c0,1.273-0.629,1.902-1.902,1.902h-1.976
		c-0.41,0-0.585-0.176-0.585-0.586v-9.072c0-0.41,0.176-0.586,0.585-0.586h1.946c1.273,0,1.902,0.629,1.902,1.902v1.508
		C51.236,485.648,50.929,486.103,50.373,486.308z M49.685,483.292c0-0.395-0.19-0.586-0.585-0.586h-0.746v2.986h0.688
		c0.439,0,0.644-0.219,0.644-0.645V483.292z M48.354,487.025v3.174h0.775c0.395,0,0.585-0.189,0.585-0.584v-1.947
		c0-0.438-0.205-0.643-0.644-0.643H48.354z"/>
</g>
<g>
	<path fill="#FFFFFF" d="M59.121,490.99c0,0.41-0.175,0.586-0.585,0.586h-0.395c-0.41,0-0.585-0.176-0.585-0.586v-2.912
		l-1.507-6.014c-0.117-0.498,0.073-0.732,0.571-0.732H57c0.351,0,0.512,0.133,0.585,0.469l0.79,3.877l0.819-3.877
		c0.073-0.336,0.234-0.469,0.571-0.469h0.292c0.498,0,0.688,0.25,0.556,0.732l-1.493,5.896V490.99z"/>
</g>
<g>
	<path fill="#FFFFFF" d="M70.649,491.078v-0.424c0-0.309,0.175-0.498,0.483-0.498h0.249c0.41,0,0.6-0.189,0.6-0.6v-7.697
		c0-0.352,0.19-0.527,0.527-0.527h0.526c0.337,0,0.512,0.176,0.512,0.527v7.814c0,1.273-0.629,1.902-1.902,1.902h-0.512
		C70.825,491.576,70.649,491.384,70.649,491.078z"/>
	<path fill="#FFFFFF" d="M83.919,489.761c0,1.273-0.629,1.902-1.902,1.902h-0.834c-1.273,0-1.902-0.629-1.902-1.902v-6.615
		c0-1.273,0.629-1.902,1.902-1.902h0.834c1.273,0,1.902,0.629,1.902,1.902V489.761z M82.354,483.22c0-0.41-0.19-0.6-0.585-0.6
		h-0.322c-0.41,0-0.6,0.189-0.6,0.6v6.467c0,0.41,0.19,0.6,0.6,0.6h0.322c0.395,0,0.585-0.189,0.585-0.6V483.22z"/>
	<path fill="#FFFFFF" d="M93.166,486.322c0.688,0.498,0.908,0.938,0.908,1.771v1.668c0,1.273-0.629,1.902-1.902,1.902h-0.688
		c-1.273,0-1.888-0.629-1.888-1.889v-1.58c0-0.41,0.176-0.586,0.585-0.586h0.351c0.41,0,0.585,0.176,0.585,0.586v1.521
		c0,0.396,0.19,0.586,0.6,0.586h0.205c0.41,0,0.6-0.189,0.6-0.586v-1.404c0-0.424-0.146-0.615-0.439-0.834l-1.581-1.156
		c-0.702-0.498-0.907-0.98-0.907-1.771v-1.404c0-1.273,0.629-1.902,1.902-1.902h0.659c1.258,0,1.888,0.629,1.888,1.889v1.273
		c0,0.408-0.176,0.584-0.585,0.584h-0.366c-0.41,0-0.585-0.176-0.585-0.584v-1.215c0-0.396-0.19-0.586-0.585-0.586h-0.19
		c-0.396,0-0.585,0.189-0.585,0.586v1.141c0,0.424,0.146,0.629,0.439,0.834L93.166,486.322z"/>
	<path fill="#FFFFFF" d="M101.314,485.648h1.507v-3.73c0-0.41,0.176-0.586,0.585-0.586h0.395c0.41,0,0.585,0.176,0.585,0.586v9.072
		c0,0.41-0.176,0.586-0.585,0.586h-0.395c-0.41,0-0.585-0.176-0.585-0.586v-3.922h-1.507v3.922c0,0.41-0.176,0.586-0.585,0.586
		h-0.395c-0.41,0-0.585-0.176-0.585-0.586v-9.072c0-0.41,0.176-0.586,0.585-0.586h0.395c0.41,0,0.585,0.176,0.585,0.586V485.648z"/>
	<path fill="#FFFFFF" d="M114.116,481.332c0.41,0,0.585,0.176,0.585,0.586v7.844c0,1.273-0.629,1.902-1.902,1.902h-0.761
		c-1.273,0-1.902-0.629-1.902-1.902v-7.844c0-0.41,0.176-0.586,0.585-0.586h0.395c0.41,0,0.585,0.176,0.585,0.586v7.77
		c0,0.41,0.19,0.6,0.6,0.6h0.249c0.395,0,0.585-0.189,0.585-0.6v-7.77c0-0.41,0.175-0.586,0.585-0.586H114.116z"/>
	<path fill="#FFFFFF" d="M124.079,491.576c-0.38,0-0.542-0.146-0.585-0.512l-0.131-1.098h-1.625l-0.146,1.098
		c-0.044,0.365-0.205,0.512-0.57,0.512h-0.264c-0.454,0-0.644-0.221-0.571-0.674l1.288-9.072c0.058-0.352,0.219-0.498,0.585-0.498
		h1.054c0.366,0,0.527,0.146,0.585,0.498l1.302,9.072c0.073,0.453-0.117,0.674-0.571,0.674H124.079z M123.186,488.576l-0.644-5.18
		l-0.644,5.18H123.186z"/>
	<path fill="#FFFFFF" d="M132.125,485.648h1.507v-3.73c0-0.41,0.176-0.586,0.585-0.586h0.395c0.41,0,0.585,0.176,0.585,0.586v9.072
		c0,0.41-0.176,0.586-0.585,0.586h-0.395c-0.41,0-0.585-0.176-0.585-0.586v-3.922h-1.507v3.922c0,0.41-0.176,0.586-0.585,0.586
		h-0.395c-0.41,0-0.585-0.176-0.585-0.586v-9.072c0-0.41,0.176-0.586,0.585-0.586h0.395c0.41,0,0.585,0.176,0.585,0.586V485.648z"/>
</g>
<g>
	<path fill="#FFFFFF" d="M149.491,486.308c0.6,0.203,0.893,0.643,0.893,1.477v1.889c0,1.273-0.629,1.902-1.902,1.902h-1.976
		c-0.41,0-0.585-0.176-0.585-0.586v-9.072c0-0.41,0.176-0.586,0.585-0.586h1.946c1.273,0,1.902,0.629,1.902,1.902v1.508
		C150.354,485.648,150.047,486.103,149.491,486.308z M148.803,483.292c0-0.395-0.19-0.586-0.585-0.586h-0.746v2.986h0.688
		c0.439,0,0.644-0.219,0.644-0.645V483.292z M147.472,487.025v3.174h0.775c0.395,0,0.585-0.189,0.585-0.584v-1.947
		c0-0.438-0.205-0.643-0.644-0.643H147.472z"/>
	<path fill="#FFFFFF" d="M156.088,481.917c0-0.41,0.176-0.586,0.585-0.586h2.312c0.41,0,0.585,0.176,0.585,0.586v0.248
		c0,0.41-0.176,0.586-0.585,0.586h-1.332v2.896h1.258c0.41,0,0.585,0.176,0.585,0.586v0.248c0,0.41-0.176,0.586-0.585,0.586h-1.258
		v3.088h1.361c0.41,0,0.585,0.176,0.585,0.586v0.248c0,0.41-0.175,0.586-0.585,0.586h-2.341c-0.41,0-0.585-0.176-0.585-0.586
		V481.917z"/>
	<path fill="#FFFFFF" d="M168.934,491.576c-0.38,0-0.542-0.146-0.585-0.512l-0.131-1.098h-1.625l-0.146,1.098
		c-0.044,0.365-0.205,0.512-0.57,0.512h-0.264c-0.454,0-0.644-0.221-0.571-0.674l1.288-9.072c0.058-0.352,0.219-0.498,0.585-0.498
		h1.054c0.366,0,0.527,0.146,0.585,0.498l1.302,9.072c0.073,0.453-0.117,0.674-0.571,0.674H168.934z M168.042,488.576l-0.644-5.18
		l-0.644,5.18H168.042z"/>
	<path fill="#FFFFFF" d="M178.999,486.746c0.644,0.176,0.907,0.572,0.907,1.348v2.896c0,0.41-0.175,0.586-0.585,0.586h-0.396
		c-0.41,0-0.585-0.176-0.585-0.586v-2.867c0-0.455-0.205-0.66-0.659-0.66h-0.702v3.527c0,0.41-0.176,0.586-0.585,0.586H176
		c-0.41,0-0.585-0.176-0.585-0.586v-9.072c0-0.41,0.176-0.586,0.585-0.586h1.99c1.273,0,1.902,0.629,1.902,1.902v1.932
		C179.892,486.074,179.57,486.511,178.999,486.746z M178.326,483.308c0-0.396-0.19-0.586-0.585-0.586h-0.761v3.381h0.702
		c0.439,0,0.644-0.205,0.644-0.629V483.308z"/>
	<path fill="#FFFFFF" d="M188.625,491.576c-0.366,0-0.527-0.146-0.585-0.498l-1.054-7.375v7.287c0,0.41-0.176,0.586-0.585,0.586
		h-0.175c-0.41,0-0.585-0.176-0.585-0.586v-9.072c0-0.41,0.176-0.586,0.585-0.586h1.244c0.366,0,0.527,0.146,0.585,0.512
		l0.907,6.938l0.937-6.938c0.059-0.365,0.219-0.512,0.585-0.512h1.229c0.41,0,0.585,0.176,0.585,0.586v9.072
		c0,0.41-0.176,0.586-0.585,0.586h-0.366c-0.41,0-0.585-0.176-0.585-0.586v-7.244l-1.039,7.332
		c-0.059,0.352-0.219,0.498-0.585,0.498H188.625z"/>
	<path fill="#FFFFFF" d="M201.763,491.576c-0.38,0-0.542-0.146-0.585-0.512l-0.131-1.098h-1.625l-0.146,1.098
		c-0.044,0.365-0.205,0.512-0.57,0.512h-0.264c-0.454,0-0.644-0.221-0.571-0.674l1.288-9.072c0.058-0.352,0.219-0.498,0.585-0.498
		h1.054c0.366,0,0.527,0.146,0.585,0.498l1.302,9.072c0.073,0.453-0.117,0.674-0.571,0.674H201.763z M200.871,488.576l-0.644-5.18
		l-0.644,5.18H200.871z"/>
	<path fill="#FFFFFF" d="M209.648,486.482v4.508c0,0.41-0.176,0.586-0.586,0.586h-0.233c-0.409,0-0.585-0.176-0.585-0.586v-9.072
		c0-0.41,0.176-0.586,0.585-0.586h0.775c0.337,0,0.497,0.133,0.571,0.453l1.36,5.869l-0.015-1.713v-4.023
		c0-0.41,0.176-0.586,0.586-0.586h0.233c0.409,0,0.585,0.176,0.585,0.586v9.072c0,0.41-0.176,0.586-0.585,0.586h-0.644
		c-0.337,0-0.498-0.133-0.57-0.455l-1.493-6.453L209.648,486.482z"/>
</g>
<g>
	<defs>
		<rect id="SVGID_1_" width="406.21" height="587"/>
	</defs>
	<clipPath id="SVGID_2_">
		<use xlink:href="#SVGID_1_"  overflow="visible"/>
	</clipPath>
	<path clip-path="url(#SVGID_2_)" fill="#FFFFFF" d="M56.962,506.181c0,0.443-0.362,0.803-0.805,0.803
		c-0.444,0-0.805-0.359-0.805-0.803c0-0.445,0.361-0.805,0.805-0.805C56.6,505.376,56.962,505.736,56.962,506.181 M54.452,504.031
		c-0.408,0.406-1.069,0.406-1.476-0.002c-0.23-0.23-0.23-0.605,0-0.836c0.407-0.406,1.068-0.406,1.476,0
		C54.683,503.425,54.683,503.798,54.452,504.031 M51.704,506.843c0,0.445-0.36,0.805-0.804,0.805c-0.445,0-0.805-0.359-0.805-0.805
		c0-0.443,0.36-0.803,0.805-0.803C51.344,506.041,51.704,506.4,51.704,506.843 M49.518,505.376c0,0.443-0.361,0.805-0.806,0.805
		c-0.443,0-0.804-0.361-0.804-0.805c0-0.445,0.361-0.807,0.804-0.807C49.157,504.57,49.518,504.931,49.518,505.376 M49.468,502.808
		c0,0.443-0.36,0.803-0.804,0.803c-0.444,0-0.804-0.359-0.804-0.803c0-0.445,0.36-0.807,0.804-0.807
		C49.108,502.001,49.468,502.363,49.468,502.808 M52.863,507.156c0-0.443,0.36-0.805,0.804-0.805c0.444,0,0.805,0.361,0.805,0.805
		c0,0.445-0.361,0.805-0.805,0.805C53.223,507.96,52.863,507.601,52.863,507.156 M58.129,502.091
		c-0.564-0.566-1.482-0.533-2.047,0.033c-0.313,0.312-0.823,0.312-1.136,0c-0.316-0.316-0.334-0.824-0.02-1.139
		c0.251-0.252,0.239-0.658-0.014-0.908h0.001c-0.399-0.398-0.923-0.602-1.447-0.602h-1.86c-1.589,0-3.028,0.645-4.074,1.684
		c-1.597,1.602-1.597,4.195,0,5.795c1.495,1.49,3.494,2.174,5.451,2.176c2.04,0,3.885-0.828,5.22-2.16
		C59.554,505.625,59.479,503.437,58.129,502.091"/>
</g>
<g>
	<path fill="#FFFFFF" d="M67.417,508.546c0,0.408-0.175,0.584-0.585,0.584h-0.396c-0.41,0-0.585-0.176-0.585-0.584v-8.24h-0.82
		c-0.41,0-0.585-0.174-0.585-0.584v-0.25c0-0.408,0.175-0.584,0.585-0.584h3.205c0.41,0,0.585,0.176,0.585,0.584v0.25
		c0,0.41-0.175,0.584-0.585,0.584h-0.82V508.546z"/>
	<path fill="#FFFFFF" d="M76.853,507.316c0,1.273-0.629,1.902-1.902,1.902h-0.834c-1.273,0-1.902-0.629-1.902-1.902v-6.613
		c0-1.273,0.629-1.902,1.902-1.902h0.834c1.273,0,1.902,0.629,1.902,1.902V507.316z M75.287,500.775c0-0.41-0.19-0.6-0.585-0.6
		H74.38c-0.41,0-0.6,0.189-0.6,0.6v6.469c0,0.41,0.19,0.6,0.6,0.6h0.322c0.395,0,0.585-0.189,0.585-0.6V500.775z"/>
	<path fill="#FFFFFF" d="M83.656,509.13c-0.366,0-0.527-0.146-0.585-0.496l-1.054-7.377v7.289c0,0.408-0.176,0.584-0.585,0.584
		h-0.175c-0.41,0-0.585-0.176-0.585-0.584v-9.074c0-0.408,0.176-0.584,0.585-0.584H82.5c0.366,0,0.527,0.146,0.585,0.512
		l0.907,6.936l0.937-6.936c0.059-0.365,0.219-0.512,0.585-0.512h1.229c0.41,0,0.585,0.176,0.585,0.584v9.074
		c0,0.408-0.176,0.584-0.585,0.584h-0.366c-0.41,0-0.585-0.176-0.585-0.584v-7.244l-1.039,7.332
		c-0.059,0.35-0.219,0.496-0.585,0.496H83.656z"/>
	<path fill="#FFFFFF" d="M91.175,499.472c0-0.408,0.176-0.584,0.585-0.584h2.312c0.41,0,0.585,0.176,0.585,0.584v0.25
		c0,0.41-0.176,0.584-0.585,0.584h-1.332v2.898h1.258c0.41,0,0.585,0.176,0.585,0.586v0.248c0,0.41-0.176,0.586-0.585,0.586h-1.258
		v3.088h1.361c0.41,0,0.585,0.174,0.585,0.584v0.25c0,0.408-0.175,0.584-0.585,0.584H91.76c-0.41,0-0.585-0.176-0.585-0.584V499.472
		z"/>
	<path fill="#FFFFFF" d="M102.031,504.302c0.644,0.176,0.907,0.57,0.907,1.346v2.898c0,0.408-0.175,0.584-0.585,0.584h-0.395
		c-0.41,0-0.585-0.176-0.585-0.584v-2.869c0-0.453-0.205-0.658-0.659-0.658h-0.702v3.527c0,0.408-0.176,0.584-0.585,0.584h-0.395
		c-0.41,0-0.585-0.176-0.585-0.584v-9.074c0-0.408,0.176-0.584,0.585-0.584h1.99c1.273,0,1.902,0.629,1.902,1.902v1.932
		C102.923,503.628,102.602,504.068,102.031,504.302z M101.358,500.863c0-0.395-0.19-0.586-0.585-0.586h-0.761v3.381h0.702
		c0.439,0,0.644-0.205,0.644-0.629V500.863z"/>
	<path fill="#FFFFFF" d="M113.12,503.205h1.507v-3.732c0-0.408,0.176-0.584,0.585-0.584h0.395c0.41,0,0.585,0.176,0.585,0.584v9.074
		c0,0.408-0.176,0.584-0.585,0.584h-0.395c-0.41,0-0.585-0.176-0.585-0.584v-3.922h-1.507v3.922c0,0.408-0.176,0.584-0.585,0.584
		h-0.395c-0.41,0-0.585-0.176-0.585-0.584v-9.074c0-0.408,0.176-0.584,0.585-0.584h0.395c0.41,0,0.585,0.176,0.585,0.584V503.205z"
		/>
	<path fill="#FFFFFF" d="M123.756,509.13c-0.38,0-0.542-0.146-0.585-0.512l-0.131-1.098h-1.625l-0.146,1.098
		c-0.044,0.365-0.205,0.512-0.57,0.512h-0.264c-0.454,0-0.644-0.219-0.571-0.672l1.288-9.074c0.058-0.35,0.219-0.496,0.585-0.496
		h1.054c0.366,0,0.527,0.146,0.585,0.496l1.302,9.074c0.073,0.453-0.117,0.672-0.571,0.672H123.756z M122.864,506.13l-0.644-5.18
		l-0.644,5.18H122.864z"/>
	<path fill="#FFFFFF" d="M129.739,504.039v4.508c0,0.408-0.176,0.584-0.585,0.584h-0.234c-0.41,0-0.585-0.176-0.585-0.584v-9.074
		c0-0.408,0.176-0.584,0.585-0.584h0.775c0.336,0,0.498,0.131,0.571,0.453l1.361,5.867l-0.015-1.711v-4.025
		c0-0.408,0.176-0.584,0.585-0.584h0.234c0.41,0,0.585,0.176,0.585,0.584v9.074c0,0.408-0.176,0.584-0.585,0.584h-0.644
		c-0.337,0-0.498-0.131-0.571-0.453l-1.493-6.453L129.739,504.039z"/>
	<path fill="#FFFFFF" d="M140.844,498.888c0.41,0,0.585,0.176,0.585,0.584v7.844c0,1.273-0.629,1.902-1.902,1.902h-0.761
		c-1.273,0-1.902-0.629-1.902-1.902v-7.844c0-0.408,0.176-0.584,0.585-0.584h0.395c0.41,0,0.585,0.176,0.585,0.584v7.771
		c0,0.41,0.19,0.6,0.6,0.6h0.249c0.395,0,0.585-0.189,0.585-0.6v-7.771c0-0.408,0.175-0.584,0.585-0.584H140.844z"/>
	<path fill="#FFFFFF" d="M148.788,509.13c-0.322,0-0.468-0.117-0.57-0.41l-1.39-4.58v4.406c0,0.408-0.176,0.584-0.585,0.584h-0.395
		c-0.41,0-0.585-0.176-0.585-0.584v-9.074c0-0.408,0.176-0.584,0.585-0.584h0.395c0.41,0,0.585,0.176,0.585,0.584v4.348l1.492-4.537
		c0.088-0.277,0.249-0.395,0.556-0.395h0.395c0.527,0,0.732,0.264,0.542,0.775l-1.478,4.244l1.449,4.463
		c0.161,0.496-0.029,0.76-0.556,0.76H148.788z"/>
	<path fill="#FFFFFF" d="M156.937,509.13c-0.38,0-0.542-0.146-0.585-0.512l-0.131-1.098h-1.625l-0.146,1.098
		c-0.044,0.365-0.205,0.512-0.57,0.512h-0.264c-0.454,0-0.644-0.219-0.571-0.672l1.288-9.074c0.059-0.35,0.219-0.496,0.585-0.496
		h1.054c0.366,0,0.527,0.146,0.585,0.496l1.302,9.074c0.073,0.453-0.117,0.672-0.571,0.672H156.937z M156.044,506.13l-0.644-5.18
		l-0.644,5.18H156.044z"/>
</g>
<g>
	<path fill="#A6A8AB" d="M46.544,521.138h2.704v0.281h-0.222c-0.129,0-0.234,0.105-0.234,0.305c0,0.07,0.023,0.188,0.07,0.328
		l1.053,2.938l0.854-2.389l-0.175-0.502c-0.164-0.457-0.328-0.68-0.667-0.68h-0.152v-0.281h2.727v0.281h-0.34
		c-0.128,0-0.281,0.105-0.281,0.305c0,0.07,0.023,0.188,0.07,0.328l0.936,2.785l0.89-2.469c0.059-0.188,0.082-0.34,0.082-0.527
		c0-0.199-0.164-0.422-0.41-0.422h-0.304v-0.281h1.989v0.281h-0.257c-0.257,0-0.48,0.234-0.655,0.727l-1.686,4.682h-0.375
		l-1.229-3.734l-1.346,3.734h-0.375l-1.708-4.729c-0.164-0.457-0.328-0.68-0.761-0.68h-0.199V521.138z"/>
	<path fill="#A6A8AB" d="M56.235,526.406h0.445c0.14,0,0.187-0.047,0.187-0.188v-4.611c0-0.141-0.047-0.188-0.187-0.188h-0.445
		v-0.281h1.989v5.08c0,0.141,0.047,0.188,0.188,0.188h0.445v0.281h-2.622V526.406z M57.546,518.212c0.492,0,0.866,0.375,0.866,0.867
		c0,0.49-0.375,0.865-0.866,0.865c-0.491,0-0.866-0.375-0.866-0.865C56.68,518.587,57.055,518.212,57.546,518.212z"/>
	<path fill="#A6A8AB" d="M59.816,521.138c0.901-0.115,1.498-0.771,1.498-1.824v-0.422h0.562v2.246h1.194v0.328h-1.194v3.992
		c0,0.396,0.059,0.854,0.538,0.854c0.761,0,0.819-1.475,0.819-2.178h0.328c0,0.797-0.093,1.662-0.363,2.096
		c-0.234,0.375-0.62,0.598-1.135,0.598c-0.983,0-1.545-0.539-1.545-1.451v-3.91h-0.702V521.138z"/>
	<path fill="#A6A8AB" d="M64.486,526.406h0.655c0.141,0,0.188-0.047,0.188-0.188v-7.396c0-0.141-0.047-0.188-0.188-0.188h-0.655
		v-0.281h2.2v3.828l0.059,0.012c0.292-0.68,0.772-1.193,1.451-1.193c0.398,0,0.656,0.08,0.901,0.256
		c0.398,0.293,0.632,0.844,0.632,1.357v3.605c0,0.141,0.047,0.188,0.188,0.188h0.444v0.281H67.81v-0.281h0.375
		c0.141,0,0.188-0.047,0.188-0.188v-3.943c0-0.48-0.105-0.902-0.539-0.902c-0.479,0-1.147,1.066-1.147,2.342v2.504
		c0,0.141,0.047,0.188,0.188,0.188h0.375v0.281h-2.762V526.406z"/>
	<path fill="#A6A8AB" d="M77.208,523.515l0.866-0.305v-0.795c0-0.855-0.421-1.137-0.878-1.137c-0.398,0-0.807,0.188-0.807,0.551
		c0,0.07,0.035,0.234,0.187,0.34c0.21,0.129,0.328,0.258,0.328,0.525c0,0.41-0.363,0.598-0.655,0.598
		c-0.363,0-0.737-0.246-0.737-0.795c0-0.949,0.983-1.498,1.814-1.498c0.959,0,2.106,0.455,2.106,1.883v2.961
		c0,0.293,0.082,0.422,0.234,0.422c0.304,0,0.421-0.633,0.421-1.158h0.328c0,0.422-0.035,0.912-0.258,1.252
		c-0.164,0.258-0.479,0.469-0.901,0.469c-0.667,0-0.925-0.211-1.135-0.633h-0.023c-0.257,0.352-0.679,0.633-1.311,0.633
		c-0.726,0-1.544-0.293-1.544-1.381C75.243,524.298,76.366,523.808,77.208,523.515z M77.361,526.359c0.304,0,0.55-0.188,0.714-0.516
		v-2.316l-0.655,0.234c-0.527,0.188-0.749,0.713-0.749,1.58C76.67,526.207,77.104,526.359,77.361,526.359z"/>
	<path fill="#A6A8AB" d="M83.611,521c0.527,0,0.913,0.35,1.147,0.83l0.07-0.023v-2.984c0-0.141-0.047-0.188-0.188-0.188h-0.655
		v-0.281h2.2v7.865c0,0.141,0.047,0.188,0.188,0.188h0.655v0.281h-2.2v-0.68h-0.07c-0.176,0.375-0.55,0.82-1.1,0.82
		c-1.252,0-2.107-1.439-2.107-2.914S82.358,521,83.611,521z M83.821,526.453c0.539,0,1.007-1.1,1.007-2.504
		c0-1.826-0.632-2.576-1.007-2.576c-0.562,0-0.772,1.043-0.772,2.541S83.26,526.453,83.821,526.453z"/>
	<path fill="#A6A8AB" d="M90.258,521c0.527,0,0.913,0.35,1.147,0.83l0.07-0.023v-2.984c0-0.141-0.047-0.188-0.188-0.188h-0.655
		v-0.281h2.2v7.865c0,0.141,0.047,0.188,0.188,0.188h0.655v0.281h-2.2v-0.68h-0.07c-0.176,0.375-0.55,0.82-1.1,0.82
		c-1.252,0-2.107-1.439-2.107-2.914S89.006,521,90.258,521z M90.469,526.453c0.539,0,1.007-1.1,1.007-2.504
		c0-1.826-0.632-2.576-1.007-2.576c-0.562,0-0.772,1.043-0.772,2.541S89.907,526.453,90.469,526.453z"/>
	<path fill="#A6A8AB" d="M94.741,526.406h0.445c0.14,0,0.187-0.047,0.187-0.188v-4.611c0-0.141-0.047-0.188-0.187-0.188h-0.445
		v-0.281h1.989v5.08c0,0.141,0.047,0.188,0.188,0.188h0.445v0.281h-2.622V526.406z M96.052,518.212c0.492,0,0.866,0.375,0.866,0.867
		c0,0.49-0.375,0.865-0.866,0.865c-0.491,0-0.866-0.375-0.866-0.865C95.186,518.587,95.561,518.212,96.052,518.212z"/>
	<path fill="#A6A8AB" d="M98.322,521.138c0.901-0.115,1.498-0.771,1.498-1.824v-0.422h0.562v2.246h1.194v0.328h-1.194v3.992
		c0,0.396,0.059,0.854,0.538,0.854c0.761,0,0.819-1.475,0.819-2.178h0.328c0,0.797-0.093,1.662-0.363,2.096
		c-0.234,0.375-0.62,0.598-1.135,0.598c-0.983,0-1.545-0.539-1.545-1.451v-3.91h-0.702V521.138z"/>
	<path fill="#A6A8AB" d="M103.168,526.406h0.445c0.14,0,0.187-0.047,0.187-0.188v-4.611c0-0.141-0.047-0.188-0.187-0.188h-0.445
		v-0.281h1.989v5.08c0,0.141,0.047,0.188,0.188,0.188h0.445v0.281h-2.622V526.406z M104.479,518.212
		c0.492,0,0.866,0.375,0.866,0.867c0,0.49-0.375,0.865-0.866,0.865c-0.491,0-0.866-0.375-0.866-0.865
		C103.613,518.587,103.987,518.212,104.479,518.212z"/>
	<path fill="#A6A8AB" d="M109.464,521c1.264,0,2.388,1.229,2.388,2.914c0,1.684-1.124,2.914-2.388,2.914s-2.387-1.23-2.387-2.914
		C107.077,522.228,108.2,521,109.464,521z M109.464,526.546c0.702,0,0.89-0.855,0.89-2.633c0-1.779-0.188-2.635-0.89-2.635
		s-0.889,0.855-0.889,2.635C108.575,525.691,108.762,526.546,109.464,526.546z"/>
	<path fill="#A6A8AB" d="M113.222,526.406h0.445c0.14,0,0.187-0.047,0.187-0.188v-4.611c0-0.141-0.047-0.188-0.187-0.188h-0.445
		v-0.281h1.989v1.043l0.059,0.012c0.293-0.68,0.772-1.193,1.451-1.193c0.398,0,0.656,0.08,0.901,0.256
		c0.398,0.293,0.632,0.844,0.632,1.357v3.605c0,0.141,0.047,0.188,0.188,0.188h0.445v0.281h-2.552v-0.281h0.375
		c0.141,0,0.188-0.047,0.188-0.188v-3.943c0-0.48-0.105-0.902-0.539-0.902c-0.479,0-1.147,1.066-1.147,2.342v2.504
		c0,0.141,0.047,0.188,0.188,0.188h0.375v0.281h-2.551V526.406z"/>
	<path fill="#A6A8AB" d="M122.104,523.515l0.866-0.305v-0.795c0-0.855-0.421-1.137-0.878-1.137c-0.398,0-0.808,0.188-0.808,0.551
		c0,0.07,0.035,0.234,0.188,0.34c0.21,0.129,0.328,0.258,0.328,0.525c0,0.41-0.363,0.598-0.655,0.598
		c-0.363,0-0.737-0.246-0.737-0.795c0-0.949,0.983-1.498,1.814-1.498c0.959,0,2.106,0.455,2.106,1.883v2.961
		c0,0.293,0.082,0.422,0.234,0.422c0.304,0,0.421-0.633,0.421-1.158h0.328c0,0.422-0.035,0.912-0.258,1.252
		c-0.164,0.258-0.479,0.469-0.901,0.469c-0.667,0-0.925-0.211-1.135-0.633h-0.023c-0.257,0.352-0.679,0.633-1.311,0.633
		c-0.726,0-1.544-0.293-1.544-1.381C120.139,524.298,121.262,523.808,122.104,523.515z M122.257,526.359
		c0.304,0,0.55-0.188,0.714-0.516v-2.316l-0.655,0.234c-0.527,0.188-0.749,0.713-0.749,1.58
		C121.566,526.207,122,526.359,122.257,526.359z"/>
	<path fill="#A6A8AB" d="M126.189,526.406h0.655c0.141,0,0.188-0.047,0.188-0.188v-7.396c0-0.141-0.047-0.188-0.188-0.188h-0.655
		v-0.281h2.2v7.865c0,0.141,0.047,0.188,0.188,0.188h0.655v0.281h-3.043V526.406z"/>
	<path fill="#A6A8AB" d="M133.914,526.406h0.445c0.14,0,0.187-0.047,0.187-0.188v-4.611c0-0.141-0.047-0.188-0.187-0.188h-0.445
		v-0.281h1.989v1.16l0.059,0.012c0.223-0.656,0.702-1.311,1.299-1.311c0.573,0,0.959,0.467,0.959,1.076
		c0,0.561-0.363,1.053-0.854,1.053c-0.421,0-0.761-0.293-0.761-0.666c0-0.234,0.14-0.445,0.281-0.609
		c0.082-0.094,0.164-0.188,0.164-0.27c0-0.059-0.035-0.117-0.128-0.117c-0.48,0-1.019,1.123-1.019,2.4v2.352
		c0,0.141,0.047,0.188,0.188,0.188h0.375v0.281h-2.551V526.406z"/>
	<path fill="#A6A8AB" d="M141.802,521c0.96,0,1.686,0.748,1.908,1.848c0.082,0.375,0.082,1.031,0.082,1.172h-2.855
		c0,0.596,0,1.053,0.128,1.51c0.141,0.572,0.574,0.947,1.1,0.947c0.831,0,1.264-0.891,1.346-1.686h0.304
		c-0.082,0.865-0.55,2.037-1.884,2.037c-1.498,0-2.493-1.311-2.493-2.914C139.438,522.228,140.503,521,141.802,521z
		 M142.435,523.691c0-1.521-0.141-2.412-0.749-2.412c-0.609,0-0.749,0.891-0.749,2.412H142.435z"/>
	<path fill="#A6A8AB" d="M145.734,529.074c0.141,0,0.188-0.047,0.188-0.188v-7.279c0-0.141-0.047-0.188-0.188-0.188h-0.655v-0.281
		h2.2v0.68h0.07c0.176-0.375,0.55-0.818,1.1-0.818c1.252,0,2.107,1.439,2.107,2.914s-0.808,2.914-2.06,2.914
		c-0.527,0-0.913-0.352-1.147-0.832l-0.07,0.023v2.867c0,0.141,0.047,0.188,0.188,0.188h0.655v0.281h-3.043v-0.281H145.734z
		 M148.286,526.453c0.562,0,0.772-1.041,0.772-2.539s-0.211-2.541-0.772-2.541c-0.539,0-1.007,1.102-1.007,2.506
		C147.279,525.703,147.912,526.453,148.286,526.453z"/>
	<path fill="#A6A8AB" d="M154.419,521c1.264,0,2.388,1.229,2.388,2.914c0,1.684-1.124,2.914-2.388,2.914
		c-1.264,0-2.388-1.23-2.388-2.914C152.031,522.228,153.155,521,154.419,521z M154.419,526.546c0.702,0,0.89-0.855,0.89-2.633
		c0-1.779-0.188-2.635-0.89-2.635s-0.89,0.855-0.89,2.635C153.529,525.691,153.717,526.546,154.419,526.546z"/>
	<path fill="#A6A8AB" d="M158.176,526.406h0.445c0.14,0,0.187-0.047,0.187-0.188v-4.611c0-0.141-0.047-0.188-0.187-0.188h-0.445
		v-0.281h1.989v1.16l0.059,0.012c0.223-0.656,0.702-1.311,1.299-1.311c0.573,0,0.959,0.467,0.959,1.076
		c0,0.561-0.363,1.053-0.854,1.053c-0.421,0-0.761-0.293-0.761-0.666c0-0.234,0.14-0.445,0.281-0.609
		c0.082-0.094,0.164-0.188,0.164-0.27c0-0.059-0.035-0.117-0.128-0.117c-0.48,0-1.019,1.123-1.019,2.4v2.352
		c0,0.141,0.047,0.188,0.188,0.188h0.375v0.281h-2.551V526.406z"/>
	<path fill="#A6A8AB" d="M163.372,521.138c0.901-0.115,1.498-0.771,1.498-1.824v-0.422h0.562v2.246h1.194v0.328h-1.194v3.992
		c0,0.396,0.059,0.854,0.538,0.854c0.761,0,0.819-1.475,0.819-2.178h0.328c0,0.797-0.093,1.662-0.363,2.096
		c-0.234,0.375-0.62,0.598-1.135,0.598c-0.983,0-1.545-0.539-1.545-1.451v-3.91h-0.702V521.138z"/>
	<path fill="#A6A8AB" d="M168.206,526.406h0.445c0.14,0,0.187-0.047,0.187-0.188v-4.611c0-0.141-0.047-0.188-0.187-0.188h-0.445
		v-0.281h1.989v5.08c0,0.141,0.047,0.188,0.188,0.188h0.445v0.281h-2.622V526.406z M169.517,518.212
		c0.492,0,0.866,0.375,0.866,0.867c0,0.49-0.375,0.865-0.866,0.865c-0.491,0-0.866-0.375-0.866-0.865
		C168.651,518.587,169.025,518.212,169.517,518.212z"/>
	<path fill="#A6A8AB" d="M172.021,526.406h0.445c0.14,0,0.187-0.047,0.187-0.188v-4.611c0-0.141-0.047-0.188-0.187-0.188h-0.445
		v-0.281h1.989v1.043l0.059,0.012c0.293-0.68,0.772-1.193,1.451-1.193c0.398,0,0.656,0.08,0.901,0.256
		c0.398,0.293,0.632,0.844,0.632,1.357v3.605c0,0.141,0.047,0.188,0.188,0.188h0.445v0.281h-2.552v-0.281h0.375
		c0.141,0,0.188-0.047,0.188-0.188v-3.943c0-0.48-0.105-0.902-0.539-0.902c-0.479,0-1.147,1.066-1.147,2.342v2.504
		c0,0.141,0.047,0.188,0.188,0.188h0.375v0.281h-2.551V526.406z"/>
	<path fill="#A6A8AB" d="M179.992,526.875v-0.035c-0.421-0.035-0.913-0.387-0.913-0.961c0-0.76,0.468-1.205,1.311-1.369v-0.047
		c-0.492-0.211-1.147-0.725-1.147-1.639c0-1.1,1.018-1.824,2.13-1.824c0.831,0,1.346,0.35,1.627,0.607h0.035
		c0.222-0.375,0.515-0.607,0.866-0.607c0.527,0,0.843,0.373,0.843,0.771c0,0.469-0.292,0.865-0.655,0.865
		c-0.223,0-0.468-0.139-0.468-0.408c0-0.164,0.094-0.305,0.188-0.422c0.082-0.082,0.187-0.234,0.187-0.328s-0.059-0.188-0.246-0.188
		c-0.188,0-0.386,0.117-0.597,0.492c0.293,0.316,0.375,0.738,0.375,1.135c0,0.809-0.819,1.744-2.177,1.744
		c-0.749,0-1.58,0.059-1.58,0.621c0,0.303,0.246,0.408,0.574,0.408h1.849c1.018,0,1.931,0.469,1.931,1.592
		c0,1.148-0.972,2.189-2.633,2.189c-1.37,0-2.598-0.516-2.598-1.451C178.892,527.517,179.29,527.039,179.992,526.875z
		 M181.314,529.097c0.96,0,2.025-0.387,2.025-1.264c0-0.645-0.854-0.83-1.744-0.83c-0.866,0-2.282,0.127-2.282,1.029
		C179.313,528.769,180.367,529.097,181.314,529.097z M181.396,524.369c0.515,0,0.702-0.479,0.702-1.545
		c0-1.064-0.187-1.545-0.702-1.545c-0.527,0-0.726,0.48-0.726,1.545C180.671,523.89,180.87,524.369,181.396,524.369z"/>
</g>
<g>
	<path fill="#A6A8AB" d="M46.475,532.253h2.2v3.453l0.07,0.021c0.234-0.479,0.62-0.83,1.146-0.83c1.252,0,2.06,1.439,2.06,2.914
		s-0.854,2.914-2.106,2.914c-0.632,0-0.983-0.41-1.217-0.76c-0.188-0.293-0.281-0.387-0.457-0.387c-0.129,0-0.246,0.117-0.339,0.328
		l-0.328,0.678h-0.188v-7.865c0-0.139-0.046-0.186-0.187-0.186h-0.655V532.253z M49.681,540.351c0.562,0,0.772-1.041,0.772-2.539
		s-0.21-2.539-0.772-2.539c-0.375,0-1.006,0.748-1.006,2.574C48.675,539.251,49.143,540.351,49.681,540.351z"/>
	<path fill="#A6A8AB" d="M52.994,535.039h2.867v0.281h-0.339c-0.129,0-0.281,0.105-0.281,0.305c0,0.07,0.023,0.186,0.082,0.326
		l1.206,2.891l0.761-2.562c0.047-0.188,0.082-0.328,0.082-0.516c0-0.209-0.117-0.443-0.363-0.443h-0.304v-0.281h1.931v0.281h-0.258
		c-0.257,0-0.55,0.223-0.702,0.725l-1.779,5.91c-0.199,0.68-0.562,1.416-1.276,1.416c-0.655,0-1.065-0.443-1.065-1.064
		c0-0.504,0.351-0.971,0.866-0.971c0.386,0,0.644,0.27,0.644,0.584c0,0.211-0.117,0.398-0.222,0.492
		c-0.082,0.07-0.164,0.164-0.164,0.305c0,0.117,0.07,0.281,0.269,0.281c0.305,0,0.48-0.527,0.585-0.867l0.386-1.287l-2.025-4.846
		c-0.187-0.443-0.304-0.678-0.726-0.678h-0.175V535.039z"/>
	<path fill="#A6A8AB" d="M64.44,537.414c0.515,0,0.831,0.387,0.831,0.809c0,0.584-0.386,0.865-0.714,0.982
		c-0.27,0.094-0.375,0.234-0.375,0.492c0,0.305,0.457,0.725,1.147,0.725c0.62,0,0.889-0.49,0.889-1.357v-6.156
		c0-0.209-0.07-0.279-0.281-0.279h-0.936v-0.375h3.956v0.375h-0.726c-0.21,0-0.281,0.07-0.281,0.279v5.408
		c0,1.592-1.288,2.48-2.481,2.48c-1.124,0-2.083-0.689-2.083-2.014C63.387,537.941,63.925,537.414,64.44,537.414z"/>
	<path fill="#A6A8AB" d="M72.585,534.898c1.264,0,2.388,1.229,2.388,2.914s-1.124,2.914-2.388,2.914s-2.387-1.229-2.387-2.914
		S71.321,534.898,72.585,534.898z M72.585,540.445c0.702,0,0.89-0.854,0.89-2.633s-0.188-2.633-0.89-2.633s-0.889,0.854-0.889,2.633
		S71.883,540.445,72.585,540.445z"/>
	<path fill="#A6A8AB" d="M76.553,538.41h0.257l0.527,0.924c0.339,0.598,0.831,1.111,1.592,1.111c0.632,0,0.854-0.396,0.854-0.701
		c0-0.469-0.305-0.68-1.463-1.24c-0.644-0.316-1.767-0.891-1.767-2.014c0-0.994,0.726-1.592,1.568-1.592
		c0.503,0,0.913,0.234,1.17,0.398c0.164,0.105,0.269,0.141,0.351,0.141c0.117,0,0.164-0.094,0.187-0.188l0.07-0.234h0.211v1.873
		h-0.258l-0.222-0.445c-0.433-0.865-1.018-1.264-1.557-1.264c-0.375,0-0.726,0.164-0.726,0.643c0,0.551,0.574,0.961,1.241,1.277
		c1.404,0.678,1.943,1.088,1.943,2.059c0,1.008-0.726,1.568-1.615,1.568c-0.574,0-1.018-0.258-1.217-0.375
		c-0.141-0.094-0.304-0.186-0.421-0.186c-0.21,0-0.375,0.139-0.433,0.314l-0.082,0.246h-0.211V538.41z"/>
	<path fill="#A6A8AB" d="M81.562,540.304h0.655c0.141,0,0.188-0.047,0.188-0.186v-7.398c0-0.139-0.047-0.186-0.188-0.186h-0.655
		v-0.281h2.2v3.826l0.059,0.012c0.292-0.678,0.772-1.193,1.451-1.193c0.398,0,0.656,0.082,0.901,0.258
		c0.398,0.293,0.632,0.842,0.632,1.357v3.605c0,0.139,0.047,0.186,0.188,0.186h0.444v0.281h-2.551v-0.281h0.375
		c0.141,0,0.188-0.047,0.188-0.186v-3.945c0-0.479-0.105-0.9-0.539-0.9c-0.479,0-1.147,1.064-1.147,2.34v2.506
		c0,0.139,0.047,0.186,0.188,0.186h0.375v0.281h-2.762V540.304z"/>
	<path fill="#A6A8AB" d="M88.433,535.039h2.107v4.412c0,0.48,0.105,0.9,0.538,0.9c0.48,0,1.147-1.064,1.147-2.34v-2.504
		c0-0.141-0.047-0.188-0.187-0.188h-0.562v-0.281h2.106v5.08c0,0.139,0.047,0.186,0.188,0.186h0.445v0.281h-1.99v-1.041
		l-0.059-0.012c-0.292,0.678-0.772,1.193-1.451,1.193c-0.398,0-0.655-0.082-0.901-0.258c-0.398-0.291-0.632-0.842-0.632-1.357
		v-3.604c0-0.141-0.047-0.188-0.187-0.188h-0.562V535.039z"/>
	<path fill="#A6A8AB" d="M97.444,537.414l0.866-0.303v-0.797c0-0.854-0.421-1.135-0.878-1.135c-0.398,0-0.808,0.188-0.808,0.549
		c0,0.07,0.035,0.234,0.188,0.34c0.21,0.129,0.328,0.258,0.328,0.527c0,0.41-0.363,0.598-0.655,0.598
		c-0.363,0-0.737-0.246-0.737-0.797c0-0.947,0.983-1.498,1.814-1.498c0.959,0,2.106,0.457,2.106,1.885v2.961
		c0,0.293,0.082,0.422,0.234,0.422c0.304,0,0.421-0.633,0.421-1.16h0.328c0,0.422-0.035,0.914-0.258,1.252
		c-0.164,0.258-0.479,0.469-0.901,0.469c-0.667,0-0.925-0.211-1.135-0.631h-0.023c-0.257,0.35-0.679,0.631-1.311,0.631
		c-0.726,0-1.544-0.293-1.544-1.381C95.479,538.199,96.602,537.707,97.444,537.414z M97.597,540.257c0.304,0,0.55-0.186,0.714-0.514
		v-2.318l-0.655,0.234c-0.527,0.188-0.749,0.715-0.749,1.58C96.906,540.107,97.339,540.257,97.597,540.257z"/>
	<path fill="#A6A8AB" d="M105.567,540.21h0.819c0.21,0,0.281-0.068,0.281-0.279v-7.023c0-0.209-0.07-0.279-0.281-0.279h-0.819
		v-0.375h4.354c1.943,0,3.535,1.662,3.535,4.096s-1.592,4.236-3.535,4.236h-4.354V540.21z M108.681,540.21h1.042
		c0.936,0,1.744-0.631,1.744-2.035v-3.512c0-1.404-0.808-2.035-1.744-2.035h-1.042c-0.211,0-0.281,0.07-0.281,0.279v7.023
		C108.399,540.142,108.47,540.21,108.681,540.21z"/>
	<path fill="#A6A8AB" d="M116.896,537.414l0.866-0.303v-0.797c0-0.854-0.421-1.135-0.878-1.135c-0.398,0-0.808,0.188-0.808,0.549
		c0,0.07,0.035,0.234,0.188,0.34c0.21,0.129,0.328,0.258,0.328,0.527c0,0.41-0.363,0.598-0.655,0.598
		c-0.363,0-0.737-0.246-0.737-0.797c0-0.947,0.983-1.498,1.814-1.498c0.959,0,2.106,0.457,2.106,1.885v2.961
		c0,0.293,0.082,0.422,0.234,0.422c0.304,0,0.421-0.633,0.421-1.16h0.328c0,0.422-0.035,0.914-0.258,1.252
		c-0.164,0.258-0.479,0.469-0.901,0.469c-0.667,0-0.925-0.211-1.135-0.631h-0.023c-0.257,0.35-0.679,0.631-1.311,0.631
		c-0.726,0-1.544-0.293-1.544-1.381C114.931,538.199,116.054,537.707,116.896,537.414z M117.049,540.257
		c0.304,0,0.55-0.186,0.714-0.514v-2.318l-0.655,0.234c-0.527,0.188-0.749,0.715-0.749,1.58
		C116.358,540.107,116.792,540.257,117.049,540.257z"/>
	<path fill="#A6A8AB" d="M120.349,535.039h2.868v0.281h-0.339c-0.129,0-0.281,0.105-0.281,0.305c0,0.07,0.023,0.186,0.07,0.326
		l1.042,2.891l0.925-2.562c0.059-0.188,0.082-0.328,0.082-0.516c0-0.209-0.164-0.443-0.41-0.443h-0.304v-0.281h1.989v0.281h-0.257
		c-0.257,0-0.48,0.234-0.655,0.725l-1.686,4.682h-0.375l-1.72-4.729c-0.164-0.455-0.316-0.678-0.749-0.678h-0.199V535.039z"/>
	<path fill="#A6A8AB" d="M127.149,540.304h0.445c0.14,0,0.187-0.047,0.187-0.186v-4.611c0-0.141-0.047-0.188-0.187-0.188h-0.445
		v-0.281h1.989v5.08c0,0.139,0.047,0.186,0.188,0.186h0.445v0.281h-2.622V540.304z M128.46,532.113c0.492,0,0.866,0.375,0.866,0.865
		c0,0.492-0.375,0.867-0.866,0.867c-0.491,0-0.866-0.375-0.866-0.867C127.594,532.488,127.969,532.113,128.46,532.113z"/>
	<path fill="#A6A8AB" d="M131.175,538.41h0.257l0.527,0.924c0.339,0.598,0.831,1.111,1.592,1.111c0.632,0,0.854-0.396,0.854-0.701
		c0-0.469-0.305-0.68-1.463-1.24c-0.644-0.316-1.767-0.891-1.767-2.014c0-0.994,0.726-1.592,1.568-1.592
		c0.503,0,0.913,0.234,1.17,0.398c0.164,0.105,0.269,0.141,0.351,0.141c0.117,0,0.164-0.094,0.187-0.188l0.07-0.234h0.211v1.873
		h-0.258l-0.222-0.445c-0.433-0.865-1.018-1.264-1.557-1.264c-0.375,0-0.726,0.164-0.726,0.643c0,0.551,0.574,0.961,1.241,1.277
		c1.404,0.678,1.943,1.088,1.943,2.059c0,1.008-0.726,1.568-1.615,1.568c-0.574,0-1.018-0.258-1.217-0.375
		c-0.141-0.094-0.304-0.186-0.421-0.186c-0.21,0-0.375,0.139-0.433,0.314l-0.082,0.246h-0.211V538.41z"/>
	<path fill="#A6A8AB" d="M141.989,537.414l0.866-0.303v-0.797c0-0.854-0.421-1.135-0.878-1.135c-0.398,0-0.808,0.188-0.808,0.549
		c0,0.07,0.035,0.234,0.188,0.34c0.21,0.129,0.328,0.258,0.328,0.527c0,0.41-0.363,0.598-0.655,0.598
		c-0.363,0-0.737-0.246-0.737-0.797c0-0.947,0.983-1.498,1.814-1.498c0.959,0,2.106,0.457,2.106,1.885v2.961
		c0,0.293,0.082,0.422,0.234,0.422c0.304,0,0.421-0.633,0.421-1.16h0.328c0,0.422-0.035,0.914-0.258,1.252
		c-0.164,0.258-0.479,0.469-0.901,0.469c-0.667,0-0.925-0.211-1.135-0.631h-0.023c-0.257,0.35-0.679,0.631-1.311,0.631
		c-0.726,0-1.544-0.293-1.544-1.381C140.023,538.199,141.147,537.707,141.989,537.414z M142.142,540.257
		c0.304,0,0.55-0.186,0.714-0.514v-2.318l-0.655,0.234c-0.527,0.188-0.749,0.715-0.749,1.58
		C141.451,540.107,141.884,540.257,142.142,540.257z"/>
	<path fill="#A6A8AB" d="M146.238,540.304h0.445c0.14,0,0.187-0.047,0.187-0.186v-4.611c0-0.141-0.047-0.188-0.187-0.188h-0.445
		v-0.281h1.989v1.041l0.059,0.012c0.293-0.678,0.772-1.193,1.451-1.193c0.398,0,0.656,0.082,0.901,0.258
		c0.398,0.293,0.632,0.842,0.632,1.357v3.605c0,0.139,0.047,0.186,0.188,0.186h0.445v0.281h-2.552v-0.281h0.375
		c0.141,0,0.188-0.047,0.188-0.186v-3.945c0-0.479-0.105-0.9-0.539-0.9c-0.479,0-1.147,1.064-1.147,2.34v2.506
		c0,0.139,0.047,0.186,0.188,0.186h0.375v0.281h-2.551V540.304z"/>
	<path fill="#A6A8AB" d="M155.238,534.898c0.527,0,0.913,0.352,1.147,0.83l0.07-0.021v-2.986c0-0.139-0.047-0.186-0.188-0.186
		h-0.655v-0.281h2.2v7.865c0,0.139,0.047,0.186,0.188,0.186h0.655v0.281h-2.2v-0.678h-0.07c-0.176,0.373-0.55,0.818-1.1,0.818
		c-1.252,0-2.106-1.439-2.106-2.914S153.986,534.898,155.238,534.898z M155.449,540.351c0.539,0,1.007-1.1,1.007-2.504
		c0-1.826-0.632-2.574-1.007-2.574c-0.562,0-0.772,1.041-0.772,2.539S154.887,540.351,155.449,540.351z"/>
	<path fill="#A6A8AB" d="M164.309,537.005c0.328,1.719,1.37,3.416,2.704,3.416c1.404,0,1.604-0.842,1.604-1.334
		c0-0.432-0.375-0.748-0.843-1.053l-2.504-1.615c-0.585-0.375-1.311-1.053-1.311-2.131c0-1.613,1.124-2.246,2.294-2.246
		c0.772,0,1.428,0.422,1.662,0.586c0.152,0.115,0.304,0.209,0.421,0.209c0.152,0,0.234-0.117,0.258-0.268l0.07-0.316h0.375
		l0.117,3.043h-0.375c-0.433-1.615-1.475-2.879-2.622-2.879c-0.831,0-1.217,0.326-1.217,0.982c0,0.539,0.503,0.994,1.042,1.346
		l2.516,1.627c0.644,0.422,1.053,1.229,1.053,2.014c0,1.158-0.819,2.41-2.61,2.41c-0.749,0-1.287-0.258-1.604-0.516
		c-0.304-0.232-0.456-0.35-0.608-0.35c-0.164,0-0.269,0.141-0.304,0.396l-0.059,0.375h-0.363l-0.07-3.697H164.309z"/>
	<path fill="#A6A8AB" d="M170.711,535.039c0.901-0.117,1.498-0.773,1.498-1.826v-0.422h0.562v2.248h1.194v0.328h-1.194v3.99
		c0,0.398,0.059,0.854,0.538,0.854c0.761,0,0.819-1.475,0.819-2.176h0.328c0,0.795-0.093,1.662-0.363,2.096
		c-0.234,0.373-0.62,0.596-1.135,0.596c-0.983,0-1.545-0.537-1.545-1.451v-3.908h-0.702V535.039z"/>
	<path fill="#A6A8AB" d="M178.002,534.898c0.96,0,1.686,0.75,1.908,1.85c0.082,0.375,0.082,1.029,0.082,1.17h-2.855
		c0,0.598,0,1.053,0.128,1.51c0.141,0.574,0.574,0.947,1.1,0.947c0.831,0,1.264-0.889,1.346-1.684h0.304
		c-0.082,0.865-0.55,2.035-1.884,2.035c-1.498,0-2.493-1.311-2.493-2.914C175.639,536.126,176.704,534.898,178.002,534.898z
		 M178.635,537.589c0-1.521-0.141-2.41-0.749-2.41c-0.609,0-0.749,0.889-0.749,2.41H178.635z"/>
	<path fill="#A6A8AB" d="M181.162,535.039h2.868v0.281h-0.339c-0.129,0-0.281,0.105-0.281,0.305c0,0.07,0.023,0.186,0.07,0.326
		l1.042,2.891l0.925-2.562c0.059-0.188,0.082-0.328,0.082-0.516c0-0.209-0.164-0.443-0.41-0.443h-0.304v-0.281h1.989v0.281h-0.257
		c-0.257,0-0.48,0.234-0.655,0.725l-1.686,4.682h-0.375l-1.72-4.729c-0.164-0.455-0.316-0.678-0.749-0.678h-0.199V535.039z"/>
	<path fill="#A6A8AB" d="M189.788,534.898c0.96,0,1.686,0.75,1.908,1.85c0.082,0.375,0.082,1.029,0.082,1.17h-2.856
		c0,0.598,0,1.053,0.129,1.51c0.141,0.574,0.574,0.947,1.1,0.947c0.831,0,1.264-0.889,1.346-1.684h0.304
		c-0.082,0.865-0.55,2.035-1.884,2.035c-1.498,0-2.493-1.311-2.493-2.914C187.424,536.126,188.489,534.898,189.788,534.898z
		 M190.42,537.589c0-1.521-0.14-2.41-0.749-2.41c-0.608,0-0.749,0.889-0.749,2.41H190.42z"/>
	<path fill="#A6A8AB" d="M193.206,540.304h0.445c0.14,0,0.187-0.047,0.187-0.186v-4.611c0-0.141-0.047-0.188-0.187-0.188h-0.445
		v-0.281h1.989v1.041l0.059,0.012c0.292-0.678,0.772-1.193,1.451-1.193c0.398,0,0.656,0.082,0.901,0.258
		c0.398,0.293,0.632,0.842,0.632,1.357v3.605c0,0.139,0.047,0.186,0.188,0.186h0.445v0.281h-2.552v-0.281h0.375
		c0.141,0,0.188-0.047,0.188-0.186v-3.945c0-0.479-0.105-0.9-0.539-0.9c-0.479,0-1.147,1.064-1.147,2.34v2.506
		c0,0.139,0.047,0.186,0.188,0.186h0.375v0.281h-2.551V540.304z"/>
	<path fill="#A6A8AB" d="M203.926,540.21h0.82c0.21,0,0.28-0.104,0.28-0.314v-6.988c0-0.209-0.07-0.279-0.28-0.279h-0.82v-0.375
		h3.933v0.375h-0.82c-0.211,0-0.28,0.07-0.28,0.279v6.988c0,0.211,0.069,0.314,0.28,0.314h1.183c0.96,0,1.556-1.393,1.755-2.035
		c0.129-0.434,0.293-1.193,0.293-1.193h0.375l-0.094,3.604h-6.625V540.21z"/>
	<path fill="#A6A8AB" d="M214.308,534.898c0.96,0,1.686,0.75,1.907,1.85c0.082,0.375,0.082,1.029,0.082,1.17h-2.855
		c0,0.598,0,1.053,0.129,1.51c0.141,0.574,0.574,0.947,1.1,0.947c0.832,0,1.265-0.889,1.347-1.684h0.304
		c-0.082,0.865-0.55,2.035-1.884,2.035c-1.498,0-2.493-1.311-2.493-2.914C211.943,536.126,213.009,534.898,214.308,534.898z
		 M214.939,537.589c0-1.521-0.141-2.41-0.749-2.41s-0.749,0.889-0.749,2.41H214.939z"/>
	<path fill="#A6A8AB" d="M220.289,534.898c1.182,0,1.696,0.854,1.696,1.58c0,0.562-0.397,1.041-0.878,1.041
		c-0.339,0-0.62-0.211-0.62-0.584c0-0.316,0.258-0.527,0.374-0.621c0.141-0.117,0.281-0.281,0.281-0.48
		c0-0.256-0.164-0.654-0.76-0.654c-0.773,0-1.065,1.076-1.065,2.633c0,0.656,0,1.158,0.128,1.615
		c0.141,0.574,0.574,0.947,1.101,0.947c0.831,0,1.265-0.889,1.347-1.684h0.304c-0.082,0.865-0.55,2.035-1.884,2.035
		c-1.498,0-2.493-1.311-2.493-2.914S218.814,534.898,220.289,534.898z"/>
	<path fill="#A6A8AB" d="M223.39,540.304h0.655c0.141,0,0.188-0.047,0.188-0.186v-7.398c0-0.139-0.023-0.186-0.188-0.186h-0.655
		v-0.281h2.2v5.84l1.521-1.908c0.152-0.188,0.234-0.34,0.234-0.525c0-0.223-0.164-0.328-0.328-0.328h-0.352v-0.293h2.236v0.293
		h-0.27c-0.422,0-0.702,0.328-1.041,0.76l-0.691,0.867l1.826,2.961c0.129,0.211,0.246,0.385,0.434,0.385h0.245v0.281h-2.704v-0.281
		h0.211c0.117,0,0.293-0.059,0.293-0.256c0-0.199-0.047-0.352-0.164-0.539l-0.947-1.545l-0.504,0.621v1.533
		c0,0.139,0.059,0.186,0.211,0.186h0.422v0.281h-2.833V540.304z"/>
	<path fill="#A6A8AB" d="M232.483,537.414l0.866-0.303v-0.797c0-0.854-0.422-1.135-0.878-1.135c-0.397,0-0.808,0.188-0.808,0.549
		c0,0.07,0.035,0.234,0.188,0.34c0.211,0.129,0.328,0.258,0.328,0.527c0,0.41-0.363,0.598-0.656,0.598
		c-0.362,0-0.736-0.246-0.736-0.797c0-0.947,0.982-1.498,1.813-1.498c0.96,0,2.106,0.457,2.106,1.885v2.961
		c0,0.293,0.082,0.422,0.234,0.422c0.305,0,0.422-0.633,0.422-1.16h0.327c0,0.422-0.035,0.914-0.258,1.252
		c-0.163,0.258-0.479,0.469-0.901,0.469c-0.666,0-0.924-0.211-1.135-0.631h-0.023c-0.258,0.35-0.679,0.631-1.311,0.631
		c-0.727,0-1.545-0.293-1.545-1.381C230.518,538.199,231.641,537.707,232.483,537.414z M232.636,540.257
		c0.304,0,0.55-0.186,0.714-0.514v-2.318l-0.655,0.234c-0.526,0.188-0.749,0.715-0.749,1.58
		C231.945,540.107,232.379,540.257,232.636,540.257z"/>
	<path fill="#A6A8AB" d="M236.732,540.304h0.445c0.14,0,0.187-0.047,0.187-0.186v-4.611c0-0.141-0.047-0.188-0.187-0.188h-0.445
		v-0.281h1.989v1.158l0.059,0.012c0.223-0.654,0.702-1.311,1.3-1.311c0.572,0,0.959,0.469,0.959,1.076
		c0,0.562-0.363,1.055-0.854,1.055c-0.422,0-0.762-0.293-0.762-0.668c0-0.234,0.141-0.445,0.281-0.609
		c0.082-0.092,0.164-0.186,0.164-0.268c0-0.059-0.035-0.117-0.129-0.117c-0.48,0-1.019,1.123-1.019,2.398v2.354
		c0,0.139,0.047,0.186,0.188,0.186h0.374v0.281h-2.551V540.304z"/>
	<path fill="#A6A8AB" d="M241.929,535.039c0.901-0.117,1.498-0.773,1.498-1.826v-0.422h0.562v2.248h1.194v0.328h-1.194v3.99
		c0,0.398,0.059,0.854,0.539,0.854c0.76,0,0.818-1.475,0.818-2.176h0.328c0,0.795-0.094,1.662-0.363,2.096
		c-0.233,0.373-0.619,0.596-1.135,0.596c-0.982,0-1.545-0.537-1.545-1.451v-3.908h-0.702V535.039z"/>
</g>
<g>
	<path fill="#FFFFFF" d="M85.492,377.119h1.121c0.288,0,0.384-0.096,0.384-0.385v-9.604c0-0.287-0.096-0.385-0.384-0.385h-1.121
		v-0.512h5.378v0.512H89.75c-0.288,0-0.384,0.098-0.384,0.385v4.227h3.777v-4.227c0-0.287-0.096-0.385-0.384-0.385h-1.152v-0.512
		h5.41v0.512h-1.121c-0.288,0-0.384,0.098-0.384,0.385v9.604c0,0.289,0.096,0.385,0.384,0.385h1.121v0.512h-5.378v-0.512h1.121
		c0.288,0,0.384-0.096,0.384-0.385v-4.801h-3.777v4.801c0,0.289,0.096,0.385,0.384,0.385h1.121v0.512h-5.378V377.119z"/>
	<path fill="#FFFFFF" d="M102.198,369.851c1.729,0,3.265,1.682,3.265,3.986s-1.537,3.986-3.265,3.986
		c-1.729,0-3.265-1.682-3.265-3.986S100.469,369.851,102.198,369.851z M102.198,377.439c0.96,0,1.216-1.168,1.216-3.602
		s-0.256-3.602-1.216-3.602s-1.216,1.168-1.216,3.602S101.237,377.439,102.198,377.439z"/>
	<path fill="#FFFFFF" d="M106.724,370.044h3.698v0.383h-0.304c-0.176,0-0.32,0.145-0.32,0.416c0,0.098,0.032,0.258,0.096,0.449
		l1.44,4.018l1.168-3.266l-0.24-0.688c-0.224-0.625-0.448-0.93-0.912-0.93h-0.208v-0.383h3.729v0.383h-0.464
		c-0.176,0-0.384,0.145-0.384,0.416c0,0.098,0.032,0.258,0.096,0.449l1.28,3.809l1.217-3.377c0.08-0.256,0.112-0.463,0.112-0.721
		c0-0.271-0.224-0.576-0.56-0.576h-0.416v-0.383h2.721v0.383h-0.352c-0.352,0-0.656,0.32-0.896,0.992l-2.305,6.404h-0.512
		l-1.681-5.107l-1.841,5.107h-0.512l-2.337-6.467c-0.224-0.625-0.448-0.93-1.041-0.93h-0.272V370.044z"/>
	<path fill="#FFFFFF" d="M127.717,373.292l1.185-0.416v-1.088c0-1.168-0.576-1.553-1.201-1.553c-0.544,0-1.104,0.256-1.104,0.752
		c0,0.096,0.048,0.32,0.256,0.465c0.288,0.176,0.448,0.352,0.448,0.721c0,0.559-0.496,0.816-0.896,0.816
		c-0.496,0-1.008-0.336-1.008-1.09c0-1.295,1.345-2.049,2.481-2.049c1.312,0,2.881,0.625,2.881,2.578v4.049
		c0,0.4,0.112,0.576,0.32,0.576c0.417,0,0.576-0.863,0.576-1.584h0.448c0,0.576-0.048,1.248-0.352,1.713
		c-0.224,0.352-0.656,0.641-1.232,0.641c-0.913,0-1.265-0.289-1.553-0.865h-0.032c-0.353,0.48-0.929,0.865-1.793,0.865
		c-0.992,0-2.113-0.4-2.113-1.889C125.028,374.365,126.564,373.693,127.717,373.292z M127.925,377.183
		c0.417,0,0.752-0.256,0.977-0.705v-3.168l-0.896,0.318c-0.72,0.258-1.024,0.977-1.024,2.162
		C126.98,376.974,127.573,377.183,127.925,377.183z"/>
	<path fill="#FFFFFF" d="M142.31,365.978c2.433,0,3.585,1.264,3.585,2.945c0,1.969-2.145,3.137-3.986,4.113
		c-0.672,0.369-1.792,1.137-2.129,2.4l0.064,0.033c0.417-0.336,0.896-0.465,1.297-0.465c0.384,0,1.024,0.129,1.376,0.256
		c0.352,0.113,0.848,0.256,1.457,0.256c0.8,0,1.345-0.559,1.345-1.152c0-0.432-0.032-0.703-0.08-1.072h0.496
		c0.064,0.465,0.096,0.85,0.096,1.25c0,1.488-0.672,3.344-2.625,3.344c-0.849,0-1.569-0.607-2.081-1.184
		c-0.352-0.385-0.576-0.609-0.992-0.609c-0.289,0-0.513,0.193-0.513,0.514v1.023h-0.64v-0.752c0-0.943,0.08-2.193,2.065-4.098
		c1.249-1.201,2.449-2.48,2.449-4.113c0-1.008-0.336-2.113-1.617-2.113c-0.833,0-1.425,0.625-1.425,1.312
		c0,0.449,0.16,0.752,0.448,0.961c0.416,0.287,0.72,0.576,0.72,1.119c0,0.545-0.448,0.961-1.072,0.961
		c-0.864,0-1.697-0.672-1.697-1.824C138.852,367.371,140.341,365.978,142.31,365.978z"/>
	<path fill="#FFFFFF" d="M152.165,365.978c2.433,0,3.874,2.625,3.874,5.682c0,3.682-1.617,6.227-4.322,6.227
		c-1.569,0-2.401-1.088-2.401-2.176c0-0.896,0.577-1.648,1.441-1.648c0.64,0,1.072,0.432,1.072,1.072
		c0,0.512-0.272,0.832-0.72,0.992c-0.352,0.127-0.64,0.256-0.64,0.512c0,0.4,0.432,0.736,1.264,0.736
		c1.281,0,1.745-1.344,1.745-2.609v-2.289l-0.096-0.047c-0.352,0.352-0.96,0.527-1.553,0.527c-2.241,0-3.185-1.537-3.185-3.361
		C148.644,367.882,149.652,365.978,152.165,365.978z M152.037,372.349c0.512,0,0.96-0.193,1.185-0.672
		c0.224-0.449,0.256-1.232,0.256-2.322c0-1.889-0.352-2.865-1.296-2.865c-1.152,0-1.168,1.346-1.168,2.945
		C151.013,370.843,151.157,372.349,152.037,372.349z"/>
	<path fill="#FFFFFF" d="M158.244,372.669h4.129v1.633h-4.129V372.669z"/>
	<path fill="#FFFFFF" d="M163.923,370.044h3.922v0.383h-0.464c-0.176,0-0.384,0.145-0.384,0.416c0,0.098,0.032,0.258,0.112,0.449
		l1.648,3.953l1.041-3.506c0.064-0.256,0.112-0.447,0.112-0.703c0-0.289-0.16-0.609-0.497-0.609h-0.416v-0.383h2.641v0.383h-0.352
		c-0.352,0-0.752,0.305-0.96,0.992l-2.433,8.084c-0.272,0.928-0.768,1.938-1.745,1.938c-0.896,0-1.457-0.609-1.457-1.457
		c0-0.688,0.48-1.328,1.185-1.328c0.528,0,0.88,0.367,0.88,0.801c0,0.287-0.16,0.543-0.304,0.672
		c-0.112,0.096-0.224,0.223-0.224,0.416c0,0.16,0.096,0.383,0.368,0.383c0.416,0,0.656-0.719,0.8-1.184l0.528-1.76l-2.769-6.627
		c-0.256-0.609-0.417-0.93-0.993-0.93h-0.24V370.044z"/>
	<path fill="#FFFFFF" d="M175.844,369.851c1.312,0,2.305,1.025,2.609,2.529c0.112,0.512,0.112,1.408,0.112,1.602h-3.905
		c0,0.816,0,1.439,0.176,2.064c0.192,0.783,0.784,1.297,1.505,1.297c1.136,0,1.729-1.217,1.84-2.305h0.417
		c-0.112,1.184-0.752,2.785-2.577,2.785c-2.049,0-3.409-1.793-3.409-3.986C172.611,371.533,174.068,369.851,175.844,369.851z
		 M176.709,373.533c0-2.08-0.192-3.297-1.024-3.297c-0.833,0-1.024,1.217-1.024,3.297H176.709z"/>
	<path fill="#FFFFFF" d="M183.3,373.292l1.185-0.416v-1.088c0-1.168-0.576-1.553-1.201-1.553c-0.544,0-1.104,0.256-1.104,0.752
		c0,0.096,0.048,0.32,0.256,0.465c0.288,0.176,0.448,0.352,0.448,0.721c0,0.559-0.496,0.816-0.896,0.816
		c-0.496,0-1.008-0.336-1.008-1.09c0-1.295,1.345-2.049,2.481-2.049c1.312,0,2.881,0.625,2.881,2.578v4.049
		c0,0.4,0.112,0.576,0.32,0.576c0.417,0,0.576-0.863,0.576-1.584h0.448c0,0.576-0.048,1.248-0.352,1.713
		c-0.224,0.352-0.656,0.641-1.232,0.641c-0.913,0-1.265-0.289-1.553-0.865h-0.032c-0.353,0.48-0.929,0.865-1.793,0.865
		c-0.992,0-2.113-0.4-2.113-1.889C180.611,374.365,182.147,373.693,183.3,373.292z M183.508,377.183
		c0.417,0,0.752-0.256,0.977-0.705v-3.168l-0.896,0.318c-0.72,0.258-1.024,0.977-1.024,2.162
		C182.563,376.974,183.156,377.183,183.508,377.183z"/>
	<path fill="#FFFFFF" d="M189.106,377.248h0.608c0.192,0,0.256-0.064,0.256-0.258v-6.307c0-0.191-0.064-0.256-0.256-0.256h-0.608
		v-0.383h2.721v1.584l0.08,0.016c0.304-0.896,0.96-1.793,1.777-1.793c0.784,0,1.312,0.641,1.312,1.473
		c0,0.77-0.496,1.441-1.168,1.441c-0.576,0-1.041-0.4-1.041-0.912c0-0.32,0.192-0.609,0.384-0.832
		c0.112-0.129,0.224-0.258,0.224-0.369c0-0.08-0.048-0.16-0.176-0.16c-0.656,0-1.393,1.537-1.393,3.281v3.217
		c0,0.193,0.064,0.258,0.256,0.258h0.512v0.383h-3.49V377.248z"/>
	<path fill="#FFFFFF" d="M196.787,372.669h4.129v1.633h-4.129V372.669z"/>
	<path fill="#FFFFFF" d="M206.309,369.851c1.729,0,3.265,1.682,3.265,3.986s-1.536,3.986-3.265,3.986
		c-1.729,0-3.266-1.682-3.266-3.986S204.579,369.851,206.309,369.851z M206.309,377.439c0.96,0,1.216-1.168,1.216-3.602
		s-0.256-3.602-1.216-3.602c-0.961,0-1.217,1.168-1.217,3.602S205.348,377.439,206.309,377.439z"/>
	<path fill="#FFFFFF" d="M211.219,377.248h0.896c0.191,0,0.256-0.064,0.256-0.258v-10.115c0-0.191-0.064-0.256-0.256-0.256h-0.896
		v-0.385h3.009v10.756c0,0.193,0.063,0.258,0.257,0.258h0.896v0.383h-4.161V377.248z"/>
	<path fill="#FFFFFF" d="M219.779,369.851c0.721,0,1.249,0.48,1.569,1.137l0.096-0.031v-4.082c0-0.191-0.063-0.256-0.256-0.256
		h-0.896v-0.385h3.009v10.756c0,0.193,0.064,0.258,0.256,0.258h0.896v0.383h-3.009v-0.928h-0.096
		c-0.24,0.512-0.753,1.121-1.505,1.121c-1.713,0-2.881-1.969-2.881-3.986S218.066,369.851,219.779,369.851z M220.068,377.31
		c0.736,0,1.376-1.504,1.376-3.424c0-2.498-0.864-3.521-1.376-3.521c-0.769,0-1.057,1.424-1.057,3.473S219.3,377.31,220.068,377.31z
		"/>
	<path fill="#FFFFFF" d="M230.85,377.248h0.609c0.191,0,0.256-0.064,0.256-0.258v-6.307c0-0.191-0.064-0.256-0.256-0.256h-0.609
		v-0.383h2.722v6.945c0,0.193,0.063,0.258,0.257,0.258h0.607v0.383h-3.586V377.248z M232.643,366.042
		c0.673,0,1.186,0.512,1.186,1.184s-0.513,1.186-1.186,1.186c-0.672,0-1.184-0.514-1.184-1.186S231.971,366.042,232.643,366.042z"/>
	<path fill="#FFFFFF" d="M239.012,369.851c0.72,0,1.248,0.48,1.568,1.137l0.096-0.031v-4.082c0-0.191-0.064-0.256-0.256-0.256
		h-0.896v-0.385h3.01v10.756c0,0.193,0.063,0.258,0.256,0.258h0.896v0.383h-3.01v-0.928h-0.096c-0.24,0.512-0.752,1.121-1.505,1.121
		c-1.712,0-2.881-1.969-2.881-3.986S237.299,369.851,239.012,369.851z M239.299,377.31c0.736,0,1.377-1.504,1.377-3.424
		c0-2.498-0.864-3.521-1.377-3.521c-0.768,0-1.056,1.424-1.056,3.473S238.531,377.31,239.299,377.31z"/>
	<path fill="#FFFFFF" d="M248.499,369.851c1.312,0,2.306,1.025,2.609,2.529c0.112,0.512,0.112,1.408,0.112,1.602h-3.906
		c0,0.816,0,1.439,0.176,2.064c0.192,0.783,0.785,1.297,1.506,1.297c1.136,0,1.729-1.217,1.84-2.305h0.416
		c-0.111,1.184-0.752,2.785-2.576,2.785c-2.049,0-3.41-1.793-3.41-3.986C245.266,371.533,246.723,369.851,248.499,369.851z
		 M249.363,373.533c0-2.08-0.191-3.297-1.024-3.297c-0.832,0-1.024,1.217-1.024,3.297H249.363z"/>
	<path fill="#FFFFFF" d="M255.955,373.292l1.184-0.416v-1.088c0-1.168-0.576-1.553-1.2-1.553c-0.544,0-1.104,0.256-1.104,0.752
		c0,0.096,0.049,0.32,0.256,0.465c0.289,0.176,0.449,0.352,0.449,0.721c0,0.559-0.496,0.816-0.896,0.816
		c-0.496,0-1.009-0.336-1.009-1.09c0-1.295,1.345-2.049,2.481-2.049c1.312,0,2.881,0.625,2.881,2.578v4.049
		c0,0.4,0.111,0.576,0.32,0.576c0.416,0,0.576-0.863,0.576-1.584h0.447c0,0.576-0.047,1.248-0.352,1.713
		c-0.225,0.352-0.656,0.641-1.232,0.641c-0.912,0-1.265-0.289-1.553-0.865h-0.031c-0.354,0.48-0.93,0.865-1.793,0.865
		c-0.992,0-2.113-0.4-2.113-1.889C253.266,374.365,254.803,373.693,255.955,373.292z M256.162,377.183
		c0.417,0,0.753-0.256,0.977-0.705v-3.168l-0.896,0.318c-0.72,0.258-1.023,0.977-1.023,2.162
		C255.219,376.974,255.811,377.183,256.162,377.183z"/>
	<path fill="#FFFFFF" d="M261.537,377.248h0.896c0.192,0,0.257-0.064,0.257-0.258v-10.115c0-0.191-0.064-0.256-0.257-0.256h-0.896
		v-0.385h3.01v10.756c0,0.193,0.064,0.258,0.256,0.258h0.896v0.383h-4.162V377.248z"/>
	<path fill="#FFFFFF" d="M267.17,377.248h0.607c0.192,0,0.256-0.064,0.256-0.258v-6.307c0-0.191-0.063-0.256-0.256-0.256h-0.607
		v-0.383h2.721v6.945c0,0.193,0.064,0.258,0.256,0.258h0.608v0.383h-3.585V377.248z M268.963,366.042
		c0.672,0,1.184,0.512,1.184,1.184s-0.512,1.186-1.184,1.186c-0.673,0-1.186-0.514-1.186-1.186S268.29,366.042,268.963,366.042z"/>
	<path fill="#FFFFFF" d="M272.674,374.654h0.352l0.721,1.264c0.464,0.816,1.137,1.521,2.177,1.521c0.864,0,1.169-0.545,1.169-0.961
		c0-0.641-0.416-0.928-2.002-1.697c-0.88-0.432-2.416-1.215-2.416-2.752c0-1.361,0.992-2.178,2.145-2.178
		c0.688,0,1.248,0.32,1.601,0.545c0.224,0.145,0.368,0.191,0.48,0.191c0.159,0,0.224-0.127,0.256-0.256l0.097-0.32h0.287v2.562
		h-0.352l-0.305-0.609c-0.592-1.184-1.393-1.729-2.129-1.729c-0.512,0-0.992,0.225-0.992,0.881c0,0.752,0.785,1.312,1.697,1.744
		c1.92,0.928,2.656,1.488,2.656,2.816c0,1.377-0.992,2.146-2.209,2.146c-0.783,0-1.393-0.354-1.664-0.514
		c-0.192-0.127-0.416-0.256-0.576-0.256c-0.288,0-0.512,0.193-0.592,0.432l-0.113,0.338h-0.287V374.654z"/>
	<path fill="#FFFFFF" d="M279.41,370.044c1.232-0.16,2.049-1.057,2.049-2.498v-0.576h0.768v3.074h1.633v0.447h-1.633v5.459
		c0,0.543,0.08,1.168,0.736,1.168c1.041,0,1.121-2.018,1.121-2.977h0.447c0,1.088-0.128,2.271-0.496,2.865
		c-0.32,0.512-0.848,0.816-1.553,0.816c-1.344,0-2.112-0.736-2.112-1.986v-5.346h-0.96V370.044z"/>
</g>
<g>
	<path fill="#FFFFFF" d="M84.692,385.226h3.009v4.723l0.096,0.031c0.32-0.656,0.848-1.137,1.569-1.137
		c1.712,0,2.817,1.969,2.817,3.986s-1.168,3.986-2.881,3.986c-0.864,0-1.344-0.561-1.665-1.041c-0.256-0.4-0.384-0.529-0.624-0.529
		c-0.176,0-0.336,0.16-0.464,0.449l-0.448,0.928h-0.256v-10.756c0-0.191-0.064-0.256-0.256-0.256h-0.896V385.226z M89.078,396.302
		c0.769,0,1.057-1.424,1.057-3.473s-0.288-3.473-1.057-3.473c-0.512,0-1.376,1.023-1.376,3.521
		C87.701,394.798,88.342,396.302,89.078,396.302z"/>
	<path fill="#FFFFFF" d="M93.796,389.037h2.881v6.033c0,0.656,0.144,1.232,0.736,1.232c0.656,0,1.569-1.455,1.569-3.201v-3.426
		c0-0.191-0.064-0.256-0.256-0.256h-0.768v-0.383h2.881v6.945c0,0.193,0.064,0.258,0.256,0.258h0.608v0.383h-2.721v-1.424
		l-0.08-0.016c-0.4,0.928-1.057,1.633-1.985,1.633c-0.544,0-0.896-0.113-1.232-0.354c-0.544-0.4-0.864-1.152-0.864-1.855v-4.932
		c0-0.191-0.064-0.256-0.256-0.256h-0.768V389.037z"/>
	<path fill="#FFFFFF" d="M103.332,396.24h0.608c0.192,0,0.256-0.064,0.256-0.258v-6.307c0-0.191-0.064-0.256-0.256-0.256h-0.608
		v-0.383h2.721v6.945c0,0.193,0.064,0.258,0.256,0.258h0.608v0.383h-3.585V396.24z M105.125,385.035
		c0.672,0,1.185,0.512,1.185,1.184s-0.512,1.186-1.185,1.186s-1.185-0.514-1.185-1.186S104.453,385.035,105.125,385.035z"/>
	<path fill="#FFFFFF" d="M108.324,396.24h0.896c0.192,0,0.256-0.064,0.256-0.258v-10.115c0-0.191-0.064-0.256-0.256-0.256h-0.896
		v-0.385h3.009v10.756c0,0.193,0.064,0.258,0.256,0.258h0.896v0.383h-4.162V396.24z"/>
	<path fill="#FFFFFF" d="M113.62,389.037c1.232-0.16,2.049-1.057,2.049-2.498v-0.576h0.768v3.074h1.633v0.447h-1.633v5.459
		c0,0.543,0.08,1.168,0.736,1.168c1.041,0,1.121-2.018,1.121-2.977h0.448c0,1.088-0.128,2.271-0.497,2.865
		c-0.32,0.512-0.848,0.816-1.552,0.816c-1.345,0-2.113-0.736-2.113-1.986v-5.346h-0.96V389.037z"/>
	<path fill="#FFFFFF" d="M127.973,392.285l1.185-0.416v-1.088c0-1.168-0.576-1.553-1.201-1.553c-0.544,0-1.104,0.256-1.104,0.752
		c0,0.096,0.048,0.32,0.256,0.465c0.288,0.176,0.448,0.352,0.448,0.721c0,0.559-0.496,0.816-0.896,0.816
		c-0.496,0-1.008-0.336-1.008-1.09c0-1.295,1.345-2.049,2.481-2.049c1.312,0,2.881,0.625,2.881,2.578v4.049
		c0,0.4,0.112,0.576,0.32,0.576c0.417,0,0.576-0.863,0.576-1.584h0.448c0,0.576-0.048,1.248-0.352,1.713
		c-0.224,0.352-0.656,0.641-1.232,0.641c-0.913,0-1.265-0.289-1.553-0.865h-0.032c-0.353,0.48-0.929,0.865-1.793,0.865
		c-0.992,0-2.113-0.4-2.113-1.889C125.284,393.357,126.82,392.685,127.973,392.285z M128.181,396.175
		c0.417,0,0.752-0.256,0.977-0.705v-3.168l-0.896,0.318c-0.72,0.258-1.024,0.977-1.024,2.162
		C127.236,395.966,127.829,396.175,128.181,396.175z"/>
	<path fill="#FFFFFF" d="M140.276,396.878v-0.047c-0.576-0.049-1.249-0.529-1.249-1.312c0-1.041,0.641-1.648,1.793-1.873v-0.064
		c-0.672-0.287-1.569-0.992-1.569-2.24c0-1.506,1.393-2.498,2.913-2.498c1.137,0,1.841,0.48,2.225,0.832h0.048
		c0.304-0.512,0.705-0.832,1.185-0.832c0.72,0,1.152,0.514,1.152,1.057c0,0.641-0.4,1.186-0.896,1.186
		c-0.304,0-0.641-0.193-0.641-0.561c0-0.225,0.128-0.416,0.256-0.576c0.112-0.113,0.256-0.32,0.256-0.449
		c0-0.127-0.08-0.256-0.336-0.256c-0.256,0-0.528,0.16-0.816,0.672c0.4,0.434,0.512,1.01,0.512,1.553
		c0,1.105-1.12,2.385-2.977,2.385c-1.024,0-2.161,0.08-2.161,0.85c0,0.416,0.336,0.561,0.785,0.561h2.529
		c1.393,0,2.641,0.639,2.641,2.176c0,1.568-1.329,2.994-3.602,2.994c-1.873,0-3.553-0.705-3.553-1.984
		C138.772,397.759,139.316,397.103,140.276,396.878z M142.085,399.919c1.312,0,2.769-0.527,2.769-1.729
		c0-0.879-1.168-1.135-2.385-1.135c-1.185,0-3.121,0.176-3.121,1.408C139.348,399.472,140.789,399.919,142.085,399.919z
		 M142.197,393.455c0.704,0,0.96-0.656,0.96-2.113s-0.256-2.113-0.96-2.113c-0.72,0-0.992,0.656-0.992,2.113
		S141.477,393.455,142.197,393.455z"/>
	<path fill="#FFFFFF" d="M147.859,396.24h0.896c0.192,0,0.256-0.064,0.256-0.258v-10.115c0-0.191-0.064-0.256-0.256-0.256h-0.896
		v-0.385h3.009v10.756c0,0.193,0.064,0.258,0.256,0.258h0.896v0.383h-4.162V396.24z"/>
	<path fill="#FFFFFF" d="M156.869,388.843c1.729,0,3.265,1.682,3.265,3.986s-1.537,3.986-3.265,3.986s-3.266-1.682-3.266-3.986
		S155.141,388.843,156.869,388.843z M156.869,396.431c0.96,0,1.216-1.168,1.216-3.602s-0.256-3.602-1.216-3.602
		s-1.217,1.168-1.217,3.602S155.909,396.431,156.869,396.431z"/>
	<path fill="#FFFFFF" d="M161.571,385.226h3.009v4.723l0.096,0.031c0.32-0.656,0.848-1.137,1.568-1.137
		c1.713,0,2.817,1.969,2.817,3.986s-1.168,3.986-2.881,3.986c-0.864,0-1.344-0.561-1.665-1.041c-0.256-0.4-0.384-0.529-0.624-0.529
		c-0.176,0-0.336,0.16-0.464,0.449l-0.448,0.928h-0.256v-10.756c0-0.191-0.064-0.256-0.256-0.256h-0.896V385.226z M165.957,396.302
		c0.769,0,1.057-1.424,1.057-3.473s-0.288-3.473-1.057-3.473c-0.512,0-1.376,1.023-1.376,3.521
		C164.581,394.798,165.221,396.302,165.957,396.302z"/>
	<path fill="#FFFFFF" d="M173.716,392.285l1.185-0.416v-1.088c0-1.168-0.576-1.553-1.201-1.553c-0.544,0-1.104,0.256-1.104,0.752
		c0,0.096,0.048,0.32,0.256,0.465c0.288,0.176,0.448,0.352,0.448,0.721c0,0.559-0.496,0.816-0.896,0.816
		c-0.496,0-1.008-0.336-1.008-1.09c0-1.295,1.345-2.049,2.481-2.049c1.312,0,2.881,0.625,2.881,2.578v4.049
		c0,0.4,0.112,0.576,0.32,0.576c0.417,0,0.576-0.863,0.576-1.584h0.448c0,0.576-0.048,1.248-0.352,1.713
		c-0.224,0.352-0.656,0.641-1.232,0.641c-0.913,0-1.265-0.289-1.553-0.865h-0.032c-0.353,0.48-0.929,0.865-1.793,0.865
		c-0.992,0-2.113-0.4-2.113-1.889C171.027,393.357,172.564,392.685,173.716,392.285z M173.924,396.175
		c0.417,0,0.752-0.256,0.977-0.705v-3.168l-0.896,0.318c-0.72,0.258-1.024,0.977-1.024,2.162
		C172.98,395.966,173.572,396.175,173.924,396.175z"/>
	<path fill="#FFFFFF" d="M179.299,396.24h0.896c0.192,0,0.256-0.064,0.256-0.258v-10.115c0-0.191-0.064-0.256-0.256-0.256h-0.896
		v-0.385h3.009v10.756c0,0.193,0.064,0.258,0.256,0.258h0.896v0.383h-4.162V396.24z"/>
	<path fill="#FFFFFF" d="M192.82,388.843c0.72,0,1.249,0.48,1.569,1.137l0.096-0.031v-4.082c0-0.191-0.064-0.256-0.256-0.256h-0.896
		v-0.385h3.009v10.756c0,0.193,0.064,0.258,0.256,0.258h0.896v0.383h-3.009v-0.928h-0.096c-0.24,0.512-0.752,1.121-1.505,1.121
		c-1.712,0-2.881-1.969-2.881-3.986S191.107,388.843,192.82,388.843z M193.108,396.302c0.736,0,1.376-1.504,1.376-3.424
		c0-2.498-0.864-3.521-1.376-3.521c-0.768,0-1.057,1.424-1.057,3.473S192.34,396.302,193.108,396.302z"/>
	<path fill="#FFFFFF" d="M198.947,396.24h0.608c0.192,0,0.256-0.064,0.256-0.258v-6.307c0-0.191-0.064-0.256-0.256-0.256h-0.608
		v-0.383h2.721v1.584l0.08,0.016c0.304-0.896,0.96-1.793,1.777-1.793c0.784,0,1.312,0.641,1.312,1.473
		c0,0.77-0.496,1.441-1.168,1.441c-0.576,0-1.041-0.4-1.041-0.912c0-0.32,0.192-0.609,0.384-0.832
		c0.112-0.129,0.224-0.258,0.224-0.369c0-0.08-0.048-0.16-0.176-0.16c-0.656,0-1.393,1.537-1.393,3.281v3.217
		c0,0.193,0.064,0.258,0.256,0.258h0.512v0.383h-3.49V396.24z"/>
	<path fill="#FFFFFF" d="M206.115,389.037h2.881v6.033c0,0.656,0.145,1.232,0.736,1.232c0.656,0,1.568-1.455,1.568-3.201v-3.426
		c0-0.191-0.063-0.256-0.256-0.256h-0.768v-0.383h2.881v6.945c0,0.193,0.064,0.258,0.256,0.258h0.608v0.383h-2.722v-1.424
		l-0.08-0.016c-0.4,0.928-1.057,1.633-1.984,1.633c-0.544,0-0.896-0.113-1.232-0.354c-0.545-0.4-0.864-1.152-0.864-1.855v-4.932
		c0-0.191-0.063-0.256-0.257-0.256h-0.768V389.037z"/>
	<path fill="#FFFFFF" d="M217.188,396.878v-0.047c-0.576-0.049-1.248-0.529-1.248-1.312c0-1.041,0.641-1.648,1.793-1.873v-0.064
		c-0.673-0.287-1.569-0.992-1.569-2.24c0-1.506,1.393-2.498,2.913-2.498c1.137,0,1.841,0.48,2.225,0.832h0.049
		c0.304-0.512,0.704-0.832,1.184-0.832c0.721,0,1.152,0.514,1.152,1.057c0,0.641-0.399,1.186-0.896,1.186
		c-0.304,0-0.641-0.193-0.641-0.561c0-0.225,0.128-0.416,0.257-0.576c0.111-0.113,0.256-0.32,0.256-0.449
		c0-0.127-0.08-0.256-0.336-0.256s-0.529,0.16-0.816,0.672c0.4,0.434,0.512,1.01,0.512,1.553c0,1.105-1.12,2.385-2.977,2.385
		c-1.025,0-2.162,0.08-2.162,0.85c0,0.416,0.337,0.561,0.785,0.561h2.529c1.393,0,2.641,0.639,2.641,2.176
		c0,1.568-1.328,2.994-3.602,2.994c-1.873,0-3.553-0.705-3.553-1.984C215.684,397.759,216.227,397.103,217.188,396.878z
		 M218.996,399.919c1.312,0,2.77-0.527,2.77-1.729c0-0.879-1.168-1.135-2.385-1.135c-1.186,0-3.121,0.176-3.121,1.408
		C216.26,399.472,217.699,399.919,218.996,399.919z M219.108,393.455c0.704,0,0.96-0.656,0.96-2.113s-0.256-2.113-0.96-2.113
		c-0.72,0-0.992,0.656-0.992,2.113S218.389,393.455,219.108,393.455z"/>
	<path fill="#FFFFFF" d="M229.49,385.226h3.01v4.723l0.096,0.031c0.32-0.656,0.848-1.137,1.568-1.137
		c1.713,0,2.817,1.969,2.817,3.986s-1.169,3.986-2.882,3.986c-0.863,0-1.344-0.561-1.664-1.041c-0.256-0.4-0.385-0.529-0.624-0.529
		c-0.177,0-0.337,0.16-0.464,0.449l-0.449,0.928h-0.256v-10.756c0-0.191-0.063-0.256-0.256-0.256h-0.896V385.226z M233.876,396.302
		c0.769,0,1.057-1.424,1.057-3.473s-0.288-3.473-1.057-3.473c-0.513,0-1.376,1.023-1.376,3.521
		C232.5,394.798,233.14,396.302,233.876,396.302z"/>
	<path fill="#FFFFFF" d="M241.636,392.285l1.185-0.416v-1.088c0-1.168-0.576-1.553-1.201-1.553c-0.543,0-1.104,0.256-1.104,0.752
		c0,0.096,0.048,0.32,0.256,0.465c0.288,0.176,0.448,0.352,0.448,0.721c0,0.559-0.496,0.816-0.896,0.816
		c-0.496,0-1.009-0.336-1.009-1.09c0-1.295,1.346-2.049,2.481-2.049c1.312,0,2.882,0.625,2.882,2.578v4.049
		c0,0.4,0.111,0.576,0.319,0.576c0.417,0,0.576-0.863,0.576-1.584h0.448c0,0.576-0.048,1.248-0.352,1.713
		c-0.225,0.352-0.656,0.641-1.232,0.641c-0.913,0-1.266-0.289-1.553-0.865h-0.032c-0.353,0.48-0.929,0.865-1.793,0.865
		c-0.992,0-2.112-0.4-2.112-1.889C238.947,393.357,240.483,392.685,241.636,392.285z M241.844,396.175
		c0.416,0,0.752-0.256,0.977-0.705v-3.168l-0.896,0.318c-0.721,0.258-1.024,0.977-1.024,2.162
		C240.899,395.966,241.492,396.175,241.844,396.175z"/>
	<path fill="#FFFFFF" d="M247.314,396.207l4.002-6.787h-1.089c-0.72,0-1.2,0.369-1.505,0.834c-0.464,0.719-0.576,1.6-0.576,1.6
		h-0.384l0.097-2.816h5.569v0.32l-4.065,6.883h1.377c0.783,0,1.568-0.689,1.92-1.473c0.32-0.674,0.353-1.473,0.353-1.473h0.384
		l-0.096,3.328h-5.986V396.207z"/>
	<path fill="#FFFFFF" d="M258.067,392.285l1.185-0.416v-1.088c0-1.168-0.576-1.553-1.201-1.553c-0.543,0-1.104,0.256-1.104,0.752
		c0,0.096,0.048,0.32,0.256,0.465c0.288,0.176,0.448,0.352,0.448,0.721c0,0.559-0.496,0.816-0.896,0.816
		c-0.496,0-1.009-0.336-1.009-1.09c0-1.295,1.346-2.049,2.481-2.049c1.312,0,2.882,0.625,2.882,2.578v4.049
		c0,0.4,0.111,0.576,0.319,0.576c0.417,0,0.576-0.863,0.576-1.584h0.448c0,0.576-0.048,1.248-0.352,1.713
		c-0.225,0.352-0.656,0.641-1.232,0.641c-0.913,0-1.266-0.289-1.553-0.865h-0.032c-0.353,0.48-0.929,0.865-1.793,0.865
		c-0.992,0-2.112-0.4-2.112-1.889C255.379,393.357,256.915,392.685,258.067,392.285z M258.275,396.175
		c0.416,0,0.752-0.256,0.977-0.705v-3.168l-0.896,0.318c-0.721,0.258-1.024,0.977-1.024,2.162
		C257.331,395.966,257.924,396.175,258.275,396.175z"/>
	<path fill="#FFFFFF" d="M266.659,392.285l1.185-0.416v-1.088c0-1.168-0.576-1.553-1.201-1.553c-0.543,0-1.104,0.256-1.104,0.752
		c0,0.096,0.048,0.32,0.256,0.465c0.288,0.176,0.448,0.352,0.448,0.721c0,0.559-0.496,0.816-0.896,0.816
		c-0.496,0-1.009-0.336-1.009-1.09c0-1.295,1.346-2.049,2.481-2.049c1.312,0,2.882,0.625,2.882,2.578v4.049
		c0,0.4,0.111,0.576,0.319,0.576c0.417,0,0.576-0.863,0.576-1.584h0.448c0,0.576-0.048,1.248-0.352,1.713
		c-0.225,0.352-0.656,0.641-1.232,0.641c-0.913,0-1.266-0.289-1.553-0.865h-0.032c-0.353,0.48-0.929,0.865-1.793,0.865
		c-0.992,0-2.112-0.4-2.112-1.889C263.971,393.357,265.507,392.685,266.659,392.285z M266.867,396.175
		c0.416,0,0.752-0.256,0.977-0.705v-3.168l-0.896,0.318c-0.721,0.258-1.024,0.977-1.024,2.162
		C265.923,395.966,266.516,396.175,266.867,396.175z"/>
	<path fill="#FFFFFF" d="M272.482,396.24h0.607c0.192,0,0.256-0.064,0.256-0.258v-6.307c0-0.191-0.063-0.256-0.256-0.256h-0.607
		v-0.383h2.721v1.584l0.08,0.016c0.305-0.896,0.961-1.793,1.777-1.793c0.783,0,1.312,0.641,1.312,1.473
		c0,0.77-0.496,1.441-1.169,1.441c-0.576,0-1.04-0.4-1.04-0.912c0-0.32,0.191-0.609,0.384-0.832
		c0.112-0.129,0.224-0.258,0.224-0.369c0-0.08-0.048-0.16-0.176-0.16c-0.656,0-1.393,1.537-1.393,3.281v3.217
		c0,0.193,0.064,0.258,0.256,0.258h0.513v0.383h-3.489V396.24z"/>
	<path fill="#FFFFFF" d="M287.635,392.285l1.186-0.416v-1.088c0-1.168-0.576-1.553-1.201-1.553c-0.544,0-1.104,0.256-1.104,0.752
		c0,0.096,0.048,0.32,0.257,0.465c0.287,0.176,0.447,0.352,0.447,0.721c0,0.559-0.496,0.816-0.896,0.816
		c-0.496,0-1.008-0.336-1.008-1.09c0-1.295,1.345-2.049,2.48-2.049c1.312,0,2.882,0.625,2.882,2.578v4.049
		c0,0.4,0.112,0.576,0.319,0.576c0.417,0,0.576-0.863,0.576-1.584h0.449c0,0.576-0.049,1.248-0.353,1.713
		c-0.224,0.352-0.656,0.641-1.232,0.641c-0.913,0-1.265-0.289-1.553-0.865h-0.032c-0.352,0.48-0.928,0.865-1.793,0.865
		c-0.992,0-2.112-0.4-2.112-1.889C284.946,393.357,286.482,392.685,287.635,392.285z M287.844,396.175
		c0.416,0,0.752-0.256,0.977-0.705v-3.168l-0.896,0.318c-0.721,0.258-1.025,0.977-1.025,2.162
		C286.898,395.966,287.491,396.175,287.844,396.175z"/>
	<path fill="#FFFFFF" d="M293.441,396.24h0.609c0.191,0,0.256-0.064,0.256-0.258v-6.307c0-0.191-0.064-0.256-0.256-0.256h-0.609
		v-0.383h2.722v1.424l0.08,0.016c0.4-0.928,1.057-1.633,1.985-1.633c0.543,0,0.896,0.113,1.232,0.354
		c0.544,0.4,0.863,1.152,0.863,1.855v4.93c0,0.193,0.064,0.258,0.257,0.258h0.608v0.383h-3.49v-0.383h0.513
		c0.192,0,0.257-0.064,0.257-0.258v-5.393c0-0.656-0.145-1.232-0.736-1.232c-0.656,0-1.569,1.455-1.569,3.201v3.424
		c0,0.193,0.063,0.258,0.257,0.258h0.512v0.383h-3.49V396.24z"/>
	<path fill="#FFFFFF" d="M305.764,388.843c0.72,0,1.248,0.48,1.568,1.137l0.096-0.031v-4.082c0-0.191-0.064-0.256-0.256-0.256
		h-0.896v-0.385h3.01v10.756c0,0.193,0.063,0.258,0.256,0.258h0.896v0.383h-3.01v-0.928h-0.096c-0.24,0.512-0.752,1.121-1.505,1.121
		c-1.712,0-2.881-1.969-2.881-3.986S304.051,388.843,305.764,388.843z M306.051,396.302c0.736,0,1.377-1.504,1.377-3.424
		c0-2.498-0.864-3.521-1.377-3.521c-0.768,0-1.056,1.424-1.056,3.473S305.283,396.302,306.051,396.302z"/>
</g>
<g>
	<path fill="#FFFFFF" d="M84.692,404.218h3.009v4.721l0.096,0.033c0.32-0.656,0.848-1.137,1.569-1.137
		c1.712,0,2.817,1.969,2.817,3.984c0,2.018-1.168,3.986-2.881,3.986c-0.864,0-1.344-0.561-1.665-1.041
		c-0.256-0.398-0.384-0.527-0.624-0.527c-0.176,0-0.336,0.16-0.464,0.447l-0.448,0.93h-0.256v-10.758
		c0-0.191-0.064-0.256-0.256-0.256h-0.896V404.218z M89.078,415.294c0.769,0,1.057-1.426,1.057-3.475s-0.288-3.473-1.057-3.473
		c-0.512,0-1.376,1.025-1.376,3.521C87.701,413.789,88.342,415.294,89.078,415.294z"/>
	<path fill="#FFFFFF" d="M97.414,407.835c1.312,0,2.305,1.023,2.609,2.529c0.112,0.512,0.112,1.408,0.112,1.6h-3.905
		c0,0.816,0,1.441,0.176,2.064c0.192,0.785,0.784,1.297,1.505,1.297c1.136,0,1.729-1.217,1.84-2.305h0.417
		c-0.112,1.186-0.752,2.785-2.577,2.785c-2.049,0-3.409-1.793-3.409-3.986C94.181,409.515,95.637,407.835,97.414,407.835z
		 M98.278,411.517c0-2.082-0.192-3.297-1.024-3.297c-0.833,0-1.024,1.215-1.024,3.297H98.278z"/>
	<path fill="#FFFFFF" d="M105.589,407.835c1.617,0,2.321,1.168,2.321,2.16c0,0.77-0.544,1.426-1.201,1.426
		c-0.464,0-0.848-0.289-0.848-0.801c0-0.432,0.352-0.721,0.512-0.85c0.192-0.158,0.384-0.383,0.384-0.656
		c0-0.352-0.224-0.895-1.04-0.895c-1.057,0-1.457,1.471-1.457,3.6c0,0.896,0,1.586,0.176,2.209c0.192,0.785,0.784,1.297,1.505,1.297
		c1.136,0,1.729-1.217,1.84-2.305h0.417c-0.112,1.186-0.752,2.785-2.577,2.785c-2.049,0-3.41-1.793-3.41-3.986
		C102.212,409.628,103.573,407.835,105.589,407.835z"/>
	<path fill="#FFFFFF" d="M112.837,411.277l1.185-0.416v-1.09c0-1.168-0.576-1.551-1.201-1.551c-0.544,0-1.104,0.256-1.104,0.752
		c0,0.096,0.048,0.32,0.256,0.463c0.288,0.178,0.448,0.354,0.448,0.721c0,0.561-0.496,0.816-0.896,0.816
		c-0.496,0-1.008-0.336-1.008-1.088c0-1.297,1.345-2.049,2.481-2.049c1.312,0,2.881,0.623,2.881,2.576v4.051
		c0,0.4,0.112,0.576,0.32,0.576c0.417,0,0.576-0.865,0.576-1.586h0.448c0,0.576-0.048,1.25-0.352,1.713
		c-0.224,0.354-0.656,0.641-1.232,0.641c-0.913,0-1.265-0.287-1.553-0.863h-0.032c-0.353,0.479-0.929,0.863-1.793,0.863
		c-0.992,0-2.113-0.4-2.113-1.889C110.148,412.349,111.685,411.677,112.837,411.277z M113.045,415.166
		c0.417,0,0.752-0.256,0.977-0.703v-3.17l-0.896,0.32c-0.72,0.256-1.024,0.977-1.024,2.16
		C112.101,414.958,112.693,415.166,113.045,415.166z"/>
	<path fill="#FFFFFF" d="M118.644,415.23h0.608c0.192,0,0.256-0.064,0.256-0.256v-6.307c0-0.191-0.064-0.256-0.256-0.256h-0.608
		v-0.385h2.721v1.586l0.08,0.016c0.448-1.105,1.104-1.793,2.001-1.793c1.488,0,1.776,1.023,1.92,1.76h0.08
		c0.384-1.057,1.073-1.76,1.889-1.76c0.544,0,0.896,0.111,1.233,0.352c0.544,0.4,0.864,1.152,0.864,1.857v4.93
		c0,0.191,0.064,0.256,0.256,0.256h0.608v0.385h-3.489v-0.385h0.512c0.192,0,0.256-0.064,0.256-0.256v-5.395
		c0-0.656-0.144-1.232-0.736-1.232c-0.656,0-1.44,1.457-1.44,3.201v3.426c0,0.191,0.064,0.256,0.256,0.256h0.512v0.385h-3.393
		v-0.385h0.512c0.192,0,0.256-0.064,0.256-0.256v-5.682c0-0.514-0.032-0.945-0.608-0.945c-0.672,0-1.569,1.457-1.569,3.201v3.426
		c0,0.191,0.064,0.256,0.256,0.256h0.512v0.385h-3.49V415.23z"/>
	<path fill="#FFFFFF" d="M135.285,407.835c1.312,0,2.305,1.023,2.609,2.529c0.112,0.512,0.112,1.408,0.112,1.6h-3.905
		c0,0.816,0,1.441,0.176,2.064c0.192,0.785,0.784,1.297,1.505,1.297c1.136,0,1.729-1.217,1.84-2.305h0.417
		c-0.112,1.186-0.752,2.785-2.577,2.785c-2.049,0-3.409-1.793-3.409-3.986C132.052,409.515,133.508,407.835,135.285,407.835z
		 M136.149,411.517c0-2.082-0.192-3.297-1.024-3.297c-0.833,0-1.024,1.215-1.024,3.297H136.149z"/>
	<path fill="#FFFFFF" d="M147.7,411.277l1.185-0.416v-1.09c0-1.168-0.576-1.551-1.201-1.551c-0.544,0-1.104,0.256-1.104,0.752
		c0,0.096,0.048,0.32,0.256,0.463c0.288,0.178,0.448,0.354,0.448,0.721c0,0.561-0.496,0.816-0.896,0.816
		c-0.496,0-1.008-0.336-1.008-1.088c0-1.297,1.345-2.049,2.481-2.049c1.312,0,2.881,0.623,2.881,2.576v4.051
		c0,0.4,0.112,0.576,0.32,0.576c0.417,0,0.576-0.865,0.576-1.586h0.448c0,0.576-0.048,1.25-0.352,1.713
		c-0.224,0.354-0.656,0.641-1.232,0.641c-0.913,0-1.265-0.287-1.553-0.863h-0.032c-0.353,0.479-0.929,0.863-1.793,0.863
		c-0.992,0-2.113-0.4-2.113-1.889C145.011,412.349,146.548,411.677,147.7,411.277z M147.908,415.166
		c0.417,0,0.752-0.256,0.977-0.703v-3.17l-0.896,0.32c-0.72,0.256-1.024,0.977-1.024,2.16
		C146.964,414.958,147.556,415.166,147.908,415.166z"/>
	<path fill="#FFFFFF" d="M158.451,415.23h0.608c0.192,0,0.256-0.064,0.256-0.256v-6.307c0-0.191-0.064-0.256-0.256-0.256h-0.608
		v-0.385h2.721v1.586l0.08,0.016c0.448-1.105,1.104-1.793,2.001-1.793c1.488,0,1.776,1.023,1.92,1.76h0.08
		c0.384-1.057,1.073-1.76,1.889-1.76c0.544,0,0.896,0.111,1.233,0.352c0.544,0.4,0.864,1.152,0.864,1.857v4.93
		c0,0.191,0.064,0.256,0.256,0.256h0.608v0.385h-3.489v-0.385h0.512c0.192,0,0.256-0.064,0.256-0.256v-5.395
		c0-0.656-0.144-1.232-0.736-1.232c-0.656,0-1.44,1.457-1.44,3.201v3.426c0,0.191,0.064,0.256,0.256,0.256h0.512v0.385h-3.393
		v-0.385h0.512c0.192,0,0.256-0.064,0.256-0.256v-5.682c0-0.514-0.032-0.945-0.608-0.945c-0.672,0-1.569,1.457-1.569,3.201v3.426
		c0,0.191,0.064,0.256,0.256,0.256h0.512v0.385h-3.49V415.23z"/>
	<path fill="#FFFFFF" d="M171.475,408.027h2.881v6.035c0,0.656,0.144,1.232,0.736,1.232c0.656,0,1.569-1.457,1.569-3.201v-3.426
		c0-0.191-0.064-0.256-0.256-0.256h-0.768v-0.385h2.881v6.947c0,0.191,0.064,0.256,0.256,0.256h0.608v0.385h-2.721v-1.426
		l-0.08-0.016c-0.4,0.928-1.057,1.633-1.985,1.633c-0.544,0-0.896-0.111-1.232-0.352c-0.544-0.4-0.864-1.152-0.864-1.857v-4.93
		c0-0.191-0.064-0.256-0.256-0.256h-0.768V408.027z"/>
	<path fill="#FFFFFF" d="M181.011,415.23h0.608c0.192,0,0.256-0.064,0.256-0.256v-6.307c0-0.191-0.064-0.256-0.256-0.256h-0.608
		v-0.385h2.721v1.586l0.08,0.016c0.304-0.896,0.96-1.793,1.777-1.793c0.784,0,1.312,0.641,1.312,1.473
		c0,0.768-0.496,1.439-1.168,1.439c-0.576,0-1.041-0.4-1.041-0.912c0-0.32,0.192-0.607,0.384-0.832
		c0.112-0.127,0.224-0.256,0.224-0.367c0-0.08-0.048-0.16-0.176-0.16c-0.656,0-1.393,1.535-1.393,3.281v3.217
		c0,0.191,0.064,0.256,0.256,0.256h0.512v0.385h-3.49V415.23z"/>
	<path fill="#FFFFFF" d="M191.38,407.835c0.72,0,1.249,0.48,1.569,1.137l0.096-0.033v-4.082c0-0.191-0.064-0.256-0.256-0.256h-0.896
		v-0.383h3.009v10.756c0,0.191,0.064,0.256,0.256,0.256h0.896v0.385h-3.009v-0.93h-0.096c-0.24,0.514-0.752,1.121-1.505,1.121
		c-1.712,0-2.881-1.969-2.881-3.986C188.562,409.804,189.667,407.835,191.38,407.835z M191.668,415.294
		c0.736,0,1.376-1.506,1.376-3.426c0-2.496-0.864-3.521-1.376-3.521c-0.768,0-1.057,1.424-1.057,3.473
		S190.9,415.294,191.668,415.294z"/>
	<path fill="#FFFFFF" d="M200.884,407.835c1.312,0,2.305,1.023,2.609,2.529c0.112,0.512,0.112,1.408,0.112,1.6h-3.906
		c0,0.816,0,1.441,0.176,2.064c0.192,0.785,0.784,1.297,1.505,1.297c1.136,0,1.729-1.217,1.84-2.305h0.417
		c-0.112,1.186-0.752,2.785-2.577,2.785c-2.049,0-3.41-1.793-3.41-3.986C197.65,409.515,199.107,407.835,200.884,407.835z
		 M201.748,411.517c0-2.082-0.192-3.297-1.024-3.297c-0.832,0-1.024,1.215-1.024,3.297H201.748z"/>
	<path fill="#FFFFFF" d="M205.555,415.23h0.607c0.192,0,0.256-0.064,0.256-0.256v-6.307c0-0.191-0.063-0.256-0.256-0.256h-0.607
		v-0.385h2.721v1.586l0.08,0.016c0.305-0.896,0.961-1.793,1.777-1.793c0.783,0,1.312,0.641,1.312,1.473
		c0,0.768-0.496,1.439-1.169,1.439c-0.576,0-1.04-0.4-1.04-0.912c0-0.32,0.191-0.607,0.384-0.832
		c0.112-0.127,0.224-0.256,0.224-0.367c0-0.08-0.048-0.16-0.176-0.16c-0.656,0-1.393,1.535-1.393,3.281v3.217
		c0,0.191,0.064,0.256,0.256,0.256h0.513v0.385h-3.489V415.23z"/>
	<path fill="#FFFFFF" d="M216.371,407.835c1.729,0,3.266,1.68,3.266,3.984c0,2.307-1.537,3.986-3.266,3.986s-3.265-1.68-3.265-3.986
		C213.106,409.515,214.643,407.835,216.371,407.835z M216.371,415.421c0.961,0,1.217-1.168,1.217-3.602c0-2.432-0.256-3.6-1.217-3.6
		c-0.96,0-1.216,1.168-1.216,3.6C215.155,414.253,215.411,415.421,216.371,415.421z"/>
	<path fill="#FFFFFF" d="M221.266,408.027h2.881v6.035c0,0.656,0.145,1.232,0.736,1.232c0.656,0,1.569-1.457,1.569-3.201v-3.426
		c0-0.191-0.063-0.256-0.257-0.256h-0.768v-0.385h2.881v6.947c0,0.191,0.064,0.256,0.256,0.256h0.609v0.385h-2.722v-1.426
		l-0.08-0.016c-0.4,0.928-1.057,1.633-1.985,1.633c-0.543,0-0.896-0.111-1.232-0.352c-0.544-0.4-0.863-1.152-0.863-1.857v-4.93
		c0-0.191-0.064-0.256-0.257-0.256h-0.769V408.027z"/>
	<path fill="#FFFFFF" d="M231.09,412.636h0.353l0.72,1.266c0.465,0.816,1.137,1.52,2.178,1.52c0.863,0,1.168-0.543,1.168-0.959
		c0-0.641-0.416-0.93-2.001-1.697c-0.88-0.432-2.417-1.217-2.417-2.754c0-1.359,0.992-2.176,2.145-2.176
		c0.689,0,1.249,0.32,1.602,0.543c0.224,0.145,0.367,0.193,0.48,0.193c0.159,0,0.224-0.129,0.256-0.256l0.096-0.32h0.288v2.561
		h-0.353l-0.304-0.607c-0.593-1.186-1.393-1.729-2.129-1.729c-0.513,0-0.993,0.223-0.993,0.879c0,0.752,0.785,1.312,1.697,1.746
		c1.921,0.928,2.657,1.488,2.657,2.816c0,1.377-0.992,2.145-2.209,2.145c-0.784,0-1.393-0.352-1.665-0.512
		c-0.191-0.129-0.416-0.256-0.576-0.256c-0.287,0-0.512,0.191-0.592,0.432l-0.112,0.336h-0.288V412.636z"/>
	<path fill="#FFFFFF" d="M242.865,415.23h0.896c0.192,0,0.257-0.064,0.257-0.256v-10.117c0-0.191-0.032-0.256-0.257-0.256h-0.896
		v-0.383h3.01v7.986l2.081-2.609c0.208-0.256,0.319-0.463,0.319-0.719c0-0.305-0.224-0.449-0.447-0.449h-0.48v-0.4h3.057v0.4h-0.367
		c-0.576,0-0.961,0.449-1.425,1.041l-0.944,1.184l2.497,4.051c0.176,0.287,0.336,0.527,0.592,0.527h0.337v0.385h-3.698v-0.385h0.288
		c0.16,0,0.4-0.08,0.4-0.352c0-0.273-0.064-0.48-0.225-0.736l-1.296-2.113l-0.688,0.848v2.098c0,0.191,0.08,0.256,0.288,0.256h0.576
		v0.385h-3.874V415.23z"/>
	<path fill="#FFFFFF" d="M252.514,415.23h0.608c0.192,0,0.256-0.064,0.256-0.256v-6.307c0-0.191-0.063-0.256-0.256-0.256h-0.608
		v-0.385h2.721v6.947c0,0.191,0.064,0.256,0.257,0.256h0.608v0.385h-3.586V415.23z M254.307,404.025
		c0.672,0,1.185,0.514,1.185,1.186s-0.513,1.184-1.185,1.184s-1.185-0.512-1.185-1.184S253.635,404.025,254.307,404.025z"/>
	<path fill="#FFFFFF" d="M257.729,415.23h0.608c0.191,0,0.256-0.064,0.256-0.256v-6.307c0-0.191-0.064-0.256-0.256-0.256h-0.608
		v-0.385h2.722v1.426l0.08,0.016c0.399-0.93,1.057-1.633,1.984-1.633c0.544,0,0.896,0.111,1.232,0.352
		c0.545,0.4,0.864,1.152,0.864,1.857v4.93c0,0.191,0.063,0.256,0.257,0.256h0.607v0.385h-3.489v-0.385h0.513
		c0.191,0,0.256-0.064,0.256-0.256v-5.395c0-0.656-0.145-1.232-0.736-1.232c-0.656,0-1.568,1.457-1.568,3.201v3.426
		c0,0.191,0.063,0.256,0.256,0.256h0.512v0.385h-3.489V415.23z"/>
	<path fill="#FFFFFF" d="M268.626,415.871v-0.049c-0.576-0.047-1.249-0.527-1.249-1.312c0-1.039,0.641-1.648,1.793-1.873v-0.062
		c-0.672-0.289-1.568-0.992-1.568-2.242c0-1.504,1.393-2.496,2.913-2.496c1.137,0,1.841,0.48,2.226,0.832h0.047
		c0.305-0.512,0.705-0.832,1.186-0.832c0.72,0,1.152,0.512,1.152,1.057c0,0.641-0.4,1.184-0.896,1.184
		c-0.305,0-0.641-0.191-0.641-0.561c0-0.223,0.129-0.416,0.256-0.576c0.112-0.111,0.256-0.32,0.256-0.447
		c0-0.129-0.079-0.256-0.336-0.256c-0.256,0-0.527,0.16-0.816,0.672c0.4,0.432,0.513,1.008,0.513,1.553
		c0,1.104-1.12,2.385-2.978,2.385c-1.023,0-2.16,0.08-2.16,0.848c0,0.416,0.336,0.561,0.784,0.561h2.528
		c1.393,0,2.642,0.641,2.642,2.178c0,1.568-1.329,2.992-3.602,2.992c-1.872,0-3.554-0.703-3.554-1.984
		C267.121,416.751,267.666,416.095,268.626,415.871z M270.436,418.912c1.312,0,2.769-0.527,2.769-1.729
		c0-0.881-1.169-1.137-2.386-1.137c-1.184,0-3.121,0.176-3.121,1.408C267.697,418.464,269.139,418.912,270.436,418.912z
		 M270.547,412.445c0.704,0,0.961-0.656,0.961-2.113c0-1.455-0.257-2.111-0.961-2.111c-0.721,0-0.992,0.656-0.992,2.111
		C269.555,411.789,269.826,412.445,270.547,412.445z"/>
	<path fill="#FFFFFF" d="M277.138,418.88c0.192,0,0.256-0.064,0.256-0.258v-9.955c0-0.191-0.063-0.256-0.256-0.256h-0.896v-0.385
		h3.009v0.928h0.096c0.24-0.512,0.753-1.119,1.506-1.119c1.712,0,2.881,1.969,2.881,3.984c0,2.018-1.104,3.986-2.817,3.986
		c-0.72,0-1.249-0.48-1.569-1.137l-0.096,0.033v3.92c0,0.193,0.064,0.258,0.256,0.258h0.896v0.383h-4.161v-0.383H277.138z
		 M280.627,415.294c0.768,0,1.057-1.426,1.057-3.475s-0.289-3.473-1.057-3.473c-0.736,0-1.377,1.504-1.377,3.426
		C279.25,414.269,280.115,415.294,280.627,415.294z"/>
	<path fill="#FFFFFF" d="M285.617,415.23h0.608c0.192,0,0.256-0.064,0.256-0.256v-6.307c0-0.191-0.063-0.256-0.256-0.256h-0.608
		v-0.385h2.721v6.947c0,0.191,0.064,0.256,0.257,0.256h0.608v0.385h-3.586V415.23z M287.41,404.025c0.672,0,1.185,0.514,1.185,1.186
		s-0.513,1.184-1.185,1.184s-1.185-0.512-1.185-1.184S286.738,404.025,287.41,404.025z"/>
	<path fill="#FFFFFF" d="M290.833,415.23h0.608c0.191,0,0.256-0.064,0.256-0.256v-6.307c0-0.191-0.064-0.256-0.256-0.256h-0.608
		v-0.385h2.722v1.426l0.08,0.016c0.399-0.93,1.057-1.633,1.984-1.633c0.544,0,0.896,0.111,1.232,0.352
		c0.545,0.4,0.864,1.152,0.864,1.857v4.93c0,0.191,0.063,0.256,0.257,0.256h0.607v0.385h-3.489v-0.385h0.513
		c0.191,0,0.256-0.064,0.256-0.256v-5.395c0-0.656-0.145-1.232-0.736-1.232c-0.656,0-1.568,1.457-1.568,3.201v3.426
		c0,0.191,0.063,0.256,0.256,0.256h0.512v0.385h-3.489V415.23z"/>
	<path fill="#FFFFFF" d="M301.793,413.31c0.721,0,1.249,0.527,1.249,1.248s-0.528,1.248-1.249,1.248
		c-0.72,0-1.248-0.527-1.248-1.248S301.073,413.31,301.793,413.31z"/>
</g>
<g>
</g>
<g>
</g>
<g>
</g>
<g>
</g>
<g>
</g>
<g>
</g>
<g>
</g>
<g>
</g>
<g>
</g>
<g>
</g>
<g>
</g>
<g>
</g>
<g>
</g>
<g>
</g>
<g>
</g>
</svg>
