<?xml version="1.0" encoding="UTF-8" standalone="no"?>
<svg height="5462.8438" id="svg2" version="1.1" width="5037.3599" xmlns="http://www.w3.org/2000/svg" xmlns:cc="http://creativecommons.org/ns#" xmlns:dc="http://purl.org/dc/elements/1.1/" xmlns:rdf="http://www.w3.org/1999/02/22-rdf-syntax-ns#" xmlns:svg="http://www.w3.org/2000/svg">
  <g id="AGGIUS" style="stroke-width:0.5;stroke-miterlimit:4;stroke-dasharray:none;stroke:#000000;stroke-opacity:1;stroke-linejoin:round;fill:#f8c300;fill-opacity:1" transform="matrix(32,0,0,32,-8654.6528,-962.5705)">
    <path d="m 313.8951,99.2373 0.105,-0.785 0.6093,-0.621 -0.7217,-2.0053 -0.0393,-0.0818 -0.0473,-0.041 -0.0768,-0.0662 -0.0965,-0.0683 -0.0394,-0.0468 -0.0453,-0.0546 -0.1574,-0.2319 -0.0827,-0.1384 -0.0394,-0.0721 -1.5886,-2.9388 0.5895,-1.5798 0.0857,-0.2297 0.7052,-1.9321 0.0277,-0.2162 -0.002,-0.1033 -0.0137,-0.1149 -0.1314,-1.0385 -0.1217,-0.9001 -0.1453,-0.8846 -1.0269,-1.0331 -0.0788,-0.0527 -0.1282,0.0292 -0.2703,0.0758 -0.2308,0.1986 -1.7442,1.6707 -0.0296,0.0721 -0.004,0.0643 -0.1172,1.9364 0.0448,1.4689 0.0256,0.0819 0.0906,0.0857 0.1281,0.0449 0.0809,0.0214 0.0867,-0.0194 0.1025,-0.0233 0.1361,0.0137 0.132,0.0292 0.0927,0.0605 0.0571,0.0896 0.5411,2.0303 0.0157,0.0779 0.008,0.0799 -0.0434,0.0506 -0.4792,0.4615 -1.3309,1.0514 -2.1566,1.6729 -0.3793,0.2952 -0.9195,0.7156 -0.767,0.5918 -1.4233,1.0991 -0.1291,0.088 -0.6523,0.4444 -0.1909,0.13 -0.8725,1.6736 -0.26,0.5241 -0.1083,0.3565 -0.006,0.0643 -0.1358,0.7813 -0.303,1.7242 -0.2203,1.1338 -0.0394,0.078 -1.0472,1.7244 -1.6698,0.1116 -0.4292,0.0177 -0.1615,-0.0233 -0.4667,-0.0738 -2.4715,-0.4312 0.3178,1.2389 0.0414,0.0701 0.13,0.0428 0.1378,0.008 1.451,-0.33 0.4429,-0.1561 0.3642,-0.1346 0.0965,-0.0429 0.1378,-0.0507 0.0788,0.002 1.2959,0.8294 0.065,0.0448 0.0453,0.0565 0.6304,1.1259 0.02,0.9215 -0.0157,0.2786 -0.0256,0.0818 -0.0354,0.0565 -0.5589,0.495 -0.0728,0.0429 -0.6397,0.3178 -0.435,0.1502 -0.1417,0.0136 -0.1398,0.0293 -0.1102,0.0838 -0.0727,0.117 -0.0708,0.2162 -0.0295,0.1618 0.002,0.0876 0.0355,0.0896 0.8821,0.6757 0.0952,0.0673 0.0151,0.0106 0.0689,0.0214 0.9546,0.0289 1.1809,0.0484 0.7246,1.6617 0.0158,0.0779 0.1143,0.7345 0.0118,0.1811 -6e-4,0.008 -0.019,0.2781 -0.0108,0.0614 0.005,0.5443 0.9673,-0.1714 2.4171,-0.4344 2.8397,-0.4418 2.4994,-0.3498 0.8384,-0.1165 0.057,0.0244 -0.0119,0.3848 -0.012,0.337 -0.0208,0.223 0.4023,0.2175 0.8617,0.4096 1.794,0.8252 0.5213,0.1991 0.1026,-0.3993 0.0611,-0.1363 0.0591,-0.0721 0.1831,-0.1459 0.4922,-0.3757 0.1142,-0.0856 0.124,-0.0523 0.01,-0.004 0.0413,-0.0175 0.1241,-0.0505 0.1476,-0.1051 0.1005,-0.1071 0.087,-0.0973 0.0725,-0.0857 1.529,-1.939 0.7462,-2.2085 0.0317,-0.187 -0.0214,-0.2728 -0.0215,-0.113 -0.0589,-0.1618 -0.3909,-0.8556 -0.055,-0.0565 -0.2105,-0.197 -1.0347,-0.9439 -0.0531,-0.0234 -0.0748,-0.006 -0.0669,-0.002 -0.1142,-0.0469 -0.3287,-0.1425 -0.0925,-0.0429 -0.4073,-0.2303 -0.2086,-0.156 -0.2774,-0.2126 -3.4636,-3.1856 0.6268,-1.9558 0.8146,-1.4949 0.2651,-0.4863 0.988,-1.8123 z" id="path7" style="stroke-width:0.125;stroke-miterlimit:4;stroke-dasharray:none"/>
  </g>
  <g id="AGLIENTU" style="stroke-width:0.5;stroke-miterlimit:4;stroke-dasharray:none;stroke:#000000;stroke-opacity:1;stroke-linejoin:round;fill:#f8c300;fill-opacity:1" transform="matrix(32,0,0,32,-8654.6528,-962.5705)">
    <path d="m 303.1299,75.5906 0.744,0.0643 2.279,1.2919 0.0967,0.0701 0.0395,0.1442 0.004,0.0818 0.0552,0.0468 2.0202,1.0837 1.0159,0.4173 0.2091,0.0488 0.1046,0.039 0.4931,0.2145 0.2268,0.2028 0.5216,0.7123 0.1151,0.188 1.2827,2.5373 0.0355,0.0838 0.0826,0.3331 0.2397,1.3697 -0.026,0.5669 0.1453,0.8846 0.1217,0.9001 0.1314,1.0385 0.0137,0.1149 0.002,0.1033 -0.0277,0.2162 -0.7052,1.9321 -0.0857,0.2297 -0.5895,1.5798 1.5886,2.9388 0.0394,0.0721 0.0827,0.1384 0.1574,0.2319 0.0453,0.0546 0.0394,0.0468 0.0965,0.0683 0.0768,0.0662 0.0473,0.041 0.0393,0.0818 0.7217,2.0053 -0.6093,0.621 -0.105,0.785 2.2882,-1.0287 0.0927,-0.0681 0.5661,-0.6093 0.0572,-0.0623 0.5544,-0.7456 2.4984,-3.2372 1.0678,-1.1774 0.2116,-0.5355 1.1878,-0.8654 0.3391,-0.0443 0.3273,-0.0541 0.3689,-0.1534 0.6647,-0.2952 0.3374,-0.1885 0.2823,-0.2704 3.4516,-4.2902 1.9107,-3.1741 -0.007,-0.0604 -0.2717,-0.2751 -0.0351,-0.0332 -0.1342,-0.1269 -0.2029,-0.1484 -0.2818,-0.1408 -0.1006,-0.0469 -0.268,-0.1232 -0.0729,-0.0274 -0.3076,-0.0746 -0.0671,-0.0157 -1.1369,-1.9364 0.9771,-3.6921 0.1012,-0.3056 0.0436,-0.1305 0.214,-0.4516 1.3962,-0.4748 0.1066,-0.0212 0.3039,-0.017 0.0553,10e-5 0.0493,0.0235 0.071,0.043 0.4358,0.1839 1.3453,0.2968 0.2664,0.0258 1.9479,0.041 0.1371,-0.5214 -0.1739,-1.6566 0.2995,-3.3268 0.0196,-0.1387 0.002,-0.0171 0.162,-0.0464 1.4084,-0.3085 0.0573,-0.0058 0.2694,0.1361 0.4446,-0.6721 1.4983,-1.4614 0.531,0.0655 0.4103,0.1764 0.1301,0.0704 0.1439,0.1037 0.1775,0.0822 0.2466,0.063 0.154,0.0179 0.879,-0.1419 0.5059,-0.1233 0.166,-0.06 0.1166,-0.0523 -0.1555,-0.164 -0.1872,-0.1427 -1.3228,-0.8217 -0.1559,-0.051 -3.4977,-2.3501 -0.2504,-0.1973 -0.9542,-0.7561 -0.8951,-0.6633 -3.104,-2.0743 0.0308,0.4106 -0.0234,0.2556 -0.012,0.0507 -0.049,0.134 -0.3813,0.8847 -0.0575,0.1153 -0.0574,0.08 -1.1481,1.2861 -0.1913,0.2139 -1.1883,1.2438 -0.0668,0.0375 -0.1529,0.0587 -0.2483,0.0937 -2.1767,0.2909 -0.9378,0.0315 -1.3075,0.8525 0.0177,0.0585 0.006,0.0818 0.004,0.1812 -0.0457,0.1416 -0.1009,0.166 -0.0356,0.0545 -0.0455,0.0623 -0.1603,0.2082 -0.2255,0.2861 -0.7702,0.9422 -0.6394,0.7426 -0.1253,0.1414 -0.133,0.0924 -0.2737,0.1206 -0.6256,0.1304 -0.7665,-0.0346 -0.0621,0.0671 -0.227,0.2056 -0.2633,0.1695 -0.0783,0.0385 -0.4379,0.2105 -1.0115,0.4697 -0.0912,0.0308 -0.8209,0.1381 -2.7618,3e-4 -0.1251,-0.0026 -0.5519,-0.0321 -0.01,-0.0023 -0.0234,-0.0055 -0.0398,-0.0098 -0.3019,-0.0937 -0.0375,-0.0234 -0.0316,-0.037 -0.0749,-0.0878 -1.0338,-1.2123 -0.0887,-0.154 -0.0138,-0.0253 0,-0.0234 0.0217,-0.0331 0.0534,-0.0526 0.077,-0.111 0.0139,-0.0759 -0.0112,-0.0419 -0.005,-0.0166 -0.0986,-0.1364 -0.7621,-0.1076 -0.4028,0.0641 -0.3515,0.0622 -1.6471,1.2461 -1.6413,1.0749 -0.7102,0.1323 -0.5528,0.1655 -0.3869,0.3097 0.0589,0.2218 -0.2485,0.0762 -0.2902,0.2045 -0.1066,0.1149 -0.4205,0.5202 -1.4881,2.5111 -0.002,0.074 0.0967,0.3351 0.3157,0.1052 z" id="path10" style="stroke-width:0.125;stroke-miterlimit:4;stroke-dasharray:none"/>
  </g>
  <g id="ALA__DEI_SARDI" style="stroke-width:0.5;stroke-miterlimit:4;stroke-dasharray:none;stroke:#000000;stroke-opacity:1;stroke-linejoin:round;fill:#f8c300;fill-opacity:1" transform="matrix(32,0,0,32,-8654.6528,-962.5705)">
    <path d="m 373.3708,156.2639 -0.5023,-1.2238 -0.3684,-0.072 -0.579,0.0226 -0.5441,0.1065 -0.6906,-0.0538 -1.1842,-0.2587 -0.0465,-0.1249 -0.0915,-0.2727 -0.0147,-0.1018 -0.005,-0.1617 0.0141,-0.0701 0.1943,-0.4394 -0.0644,-0.0607 -0.0626,-0.049 -0.0999,-0.0394 -0.1393,-0.0143 -0.0766,-0.004 -2.4918,0.2481 -3.1989,0.4034 -2.3591,0.9861 -0.983,0.4403 -3.2486,0.2099 -3.3674,-0.6003 -0.7857,-0.3904 -0.9525,0.1975 -0.2022,0.0286 -0.2709,0.0303 -0.0628,-3e-4 -0.0883,-0.0256 -0.0508,-0.0644 -0.01,-0.0527 0.0101,-0.0993 0.0397,-0.1401 0.0534,-0.1012 -0.0371,-0.0683 -0.0607,-0.0372 -0.0784,-0.0412 -0.1137,-0.0296 -1.745,0.086 -0.5351,0.436 -1.2203,1.7485 -2.4734,3.0243 -0.2854,0.3401 -0.1358,0.1438 -0.0964,0.0796 -0.2889,0.2096 -0.1494,0.1009 -0.1336,0.0522 -0.2582,-0.2617 -0.004,-0.005 -0.0331,-0.042 -0.0527,-0.1132 -0.0213,-0.0974 -0.0355,-0.0742 -0.0456,-0.0907 -0.018,-0.0341 -0.0218,-0.007 -0.0472,-0.0161 -1.0491,1.2655 -0.0237,0.0525 -0.6815,3.2577 -0.8818,1.2602 0.9505,0.9688 1.7324,1.7932 0.466,0.5188 0.7473,0.8321 0.0356,0.0397 0.2267,0.3124 0.6187,0.9155 0.6582,0.8124 2.2836,2.5532 1.1329,0.5725 0.9591,0.3771 0.3481,0.2252 0.4001,1.6982 0.0693,0.3666 0.01,0.6273 0.06,0.199 0.4356,0.4047 1.3606,0.9086 0.9311,0.4104 1.3263,0.5521 0.9178,0.2585 0.5715,0.1618 0.6264,0.1134 0.0822,0.012 1.7247,0.8189 1.2197,1.1503 2.1063,1.758 0.1991,0.1625 0.2402,0.1607 0.088,0.0316 1.3665,0.105 1.2783,0.1145 1.0826,0.104 0.967,0.0939 0.5167,0.0587 0.184,0.0359 -0.1524,-0.0942 -0.0409,-0.0411 -2.2767,-3.3766 -0.0986,-1.2044 0.0691,-0.1108 0.0647,-0.0328 0.0785,-0.0192 0.0588,-0.006 0.1233,0.0123 0.0881,0.0159 0.0743,0.0471 0.076,0.0841 0.0507,0.045 0.09,0.0374 0.1467,0.0416 0.0881,0.0218 0.3194,-0.0122 0.0725,-0.006 0.0705,-0.009 0.0686,-0.009 0.0726,-0.0114 0.0706,-0.0289 0.905,-0.4208 0.1394,-0.0656 1.5882,-1.5807 1.6172,-1.8239 0.2953,-1.1013 -0.1199,-0.7643 -0.0132,-0.1014 0.3035,-2.4164 0.0879,-0.3483 0.0396,-0.0739 0.3706,-0.4307 0.0688,-0.0562 0.0531,-0.0251 0.0706,-0.0172 0.1549,8e-4 0.876,0.049 2.5444,0.3652 0.8343,0.5263 1.4057,0.3267 1.312,-0.1471 0.0551,-0.0484 0.0181,-0.0817 0.0437,-0.3592 -0.3985,-0.3694 -0.1344,-0.1624 -0.1594,-0.2619 -0.0913,-0.1603 -0.0327,-0.1092 0.0277,-0.0505 0.3798,-0.2747 -0.2011,-0.531 -0.2608,-0.5897 -0.5083,-0.7859 -0.0722,-0.0627 -0.645,-0.3793 -0.2386,-0.1162 -0.9996,-0.4532 -0.2075,-0.0653 -1.535,-0.4577 -1.0867,-0.3072 -0.5012,-0.1505 -0.0292,-0.0489 0.0119,-0.8377 0.0122,-0.9 0.0301,-2.1566 0.0214,-1.1533 0.0358,-0.9174 -0.0434,-0.7523 -0.0619,-0.988 -0.1858,-2.9545 -0.0573,-0.3724 z" id="path16" style="stroke-width:0.125;stroke-miterlimit:4;stroke-dasharray:none"/>
  </g>
  <g id="ARZACHENA" style="stroke-width:0.5;stroke-miterlimit:4;stroke-dasharray:none;stroke:#000000;stroke-opacity:1;stroke-linejoin:round;fill:#f8c300;fill-opacity:1" transform="matrix(32,0,0,32,-8654.6528,-962.5705)">
    <path d="m 397.8075,76.466 -0.4258,-1.3829 0.1356,-0.2173 0.0912,-0.354 0.0122,-0.0661 -0.4374,-1.3042 -0.2858,-0.3583 -0.153,-0.1432 -0.5071,-0.3364 -0.0512,-0.0179 -1.118,0.1294 -0.0614,0.0229 -0.5821,0.6023 -1.0616,0.5642 -0.4967,-0.0927 -0.0315,-0.0196 -0.0392,-0.0431 -0.0269,-0.119 -0.0474,-0.3042 -0.1799,-1.3607 0.474,-0.8428 0.1396,-0.2135 0.0416,-0.0192 0.1108,-0.0402 0.1437,-0.0624 0.0468,-0.0942 0.0431,-0.1079 0.19,-0.5034 -0.019,-0.2602 -0.0255,-0.2339 -0.0252,-0.0644 -0.1161,-0.0611 -0.3368,-0.1404 -0.4749,-0.1335 -0.9319,0.1717 -1.2911,0.2171 -0.0266,-0.07 -0.0981,-0.2861 0.002,-0.0657 0.015,-0.08 0.015,-0.0615 0.68,-0.3945 0.0534,-0.0231 0.0554,-0.0094 0.1165,-0.0051 0.1435,-1.1719 -0.4911,-2.0212 -0.544,-0.8078 -1.104,-0.0124 -0.8876,0.1409 -0.0535,0.0289 -0.028,0.0583 -0.0201,0.0622 -4e-4,0.0662 0.4298,0.2445 -0.0786,0.4667 0.3694,1.6308 -0.0996,0.1358 -1.1777,0.6613 -0.7808,-0.3805 -0.4398,-0.4174 -0.9883,0.0895 -0.0765,0.0086 -0.1104,0.0627 -0.135,0.1018 -0.0463,0.0752 -0.0341,0.0873 0.0613,0.5041 0.1097,0.625 -0.2241,-0.8201 -0.3995,-0.5887 -0.7851,-0.4796 -0.0472,-0.0256 -0.1596,-0.0749 -0.0651,0.0035 -0.4511,0.4923 -0.0173,0.0301 -0.0146,0.0263 -0.0181,0.0583 -0.0386,0.2024 0.0449,0.0801 0.0146,0.0186 0.001,0.0107 -3e-4,0.0546 -0.032,0.066 -0.1096,0.1826 -0.0397,0.0426 -0.0357,0.0193 -0.0415,7e-4 -0.0493,7e-4 -0.01,-6e-4 -0.0592,-0.0036 -1.6278,-0.2426 -0.1864,1.46 0.2872,0.0136 0.2013,0.0614 0.0698,0.0909 0.0149,0.0543 0.018,0.0725 0.006,0.0544 -0.01,0.0813 -0.4379,1.5719 -0.4954,0.0416 -0.002,-0.0293 -0.1017,-0.1661 -0.0689,-0.0374 -0.0613,0.027 -0.0994,0.1183 -0.4555,0.6444 -0.1105,0.3579 0.006,0.0156 0.0154,0.0838 -9e-4,0.1617 -0.002,0.3877 -0.0639,0.136 -0.0418,0.066 -1.607,1.9554 -0.3341,0.3666 0.1377,0.1276 0.038,0.1049 -0.0135,0.1172 -0.1084,0.4784 -0.0872,0.082 -0.3059,0.1576 -0.0722,0.0036 -0.1362,0.0032 -0.4892,-0.0395 -0.1124,-0.0162 -0.0451,-0.0411 -0.2572,-0.2662 -0.0137,-0.0235 -0.2254,-5.0056 -0.3638,-1.8489 -1.0895,-2.6682 -1.1395,-1.6446 -0.094,-0.0065 -1.9432,-0.1407 -0.4092,-0.0372 -0.1288,-0.0601 -0.2424,-0.1136 -0.0887,-0.0417 -0.0351,-0.0201 -0.072,-0.0574 -0.0118,-0.0254 -0.0309,-0.1365 -0.182,0.0498 -0.7067,0.3592 -1.0523,0.7725 -0.1928,0.5221 -0.0651,0.1762 -0.0519,0.1264 -0.0399,0.0836 -0.0657,0.1146 -0.0614,0.0445 -0.8235,0.4503 -0.0495,0.0232 -0.8285,0.2613 -1.3424,0.3878 -0.236,-0.2211 -0.01,-0.0741 0.0377,-0.0485 0.0437,-0.0485 0.0279,-0.0603 -0.8487,-0.1009 -0.2743,-0.0304 -1.3094,0.0531 -0.0928,0.0074 -0.1247,0.0579 -1.9506,1.3989 -0.1526,0.1513 -0.6739,1.1566 -0.1373,0.7865 -0.0182,0.111 -0.044,0.1517 -0.023,0.0488 -0.076,0.0132 -1.1705,-0.0375 -0.0827,-0.0588 -0.3554,-1.0085 -0.005,-0.1013 -0.0153,-0.4287 -0.2535,-1.0704 -0.0468,-0.1658 -0.057,-0.0567 -1.3589,-0.4062 -0.8471,0.0028 -0.5226,0.904 -0.1232,0.2236 -0.2889,1.2906 -0.008,0.0818 -0.0127,0.2513 -0.0906,1.5971 -0.1144,1.6653 -0.0261,0.1071 -0.2572,0.7335 -0.1552,0.3794 -0.0299,0.0875 -0.2216,0.7006 -0.1081,1.0127 -0.6318,0.1128 -0.2119,0.2136 -0.4039,0.4077 -0.0713,0.0816 -0.0555,0.0719 -0.2879,0.5251 -0.0459,0.1459 -0.5185,2.2484 -0.263,1.396 0.0155,0.0741 0.2635,0.8463 0.0627,0.1171 1.0226,1.4957 0.0667,0.0859 0.0179,1.1397 -0.2452,2.5201 -0.3657,2.0249 -1.2241,1.7708 -0.0952,0.1731 -0.1452,0.395 -0.372,1.6548 0.065,0.0216 1.1048,0.2588 0.6284,0.0858 4.9325,0.6579 0.9181,0.0754 1.8717,0.1239 0.1302,-0.0287 1.8459,-1.3137 0.3927,-1.5745 0.4102,-1.4906 0.9309,-0.1015 0.5719,-0.06 0.221,-0.04 0.9933,-0.4147 0.638,-0.2721 2.6449,-1.1379 1.4895,-0.6421 0.2143,-0.0988 0.1038,-0.0479 0.4427,-0.2084 0.1799,-0.1121 0.6607,-0.4412 2.1599,-1.3789 0.4292,-0.2609 0.073,-0.0055 1.0985,-0.02 1.702,-0.0208 0.631,0.0168 0.1399,0.0162 1.5829,0.4913 1.0296,0.3345 1.4366,0.5219 0.0749,0.0218 0.18,-0.0343 0.5957,-0.1135 0.7619,-0.1322 2.2738,-0.3849 0.1155,6e-4 0.056,3e-4 0.9997,0.0154 4.2333,0.0714 1.0444,-4.342 1.2078,-2.7998 0.1518,-0.4298 0.093,-0.0481 0.2642,0.0289 0.126,0.0358 0.0256,0.0099 0.0569,0.0472 0.0196,0.0196 0.0568,0.0685 0.1189,0.2267 -0.3068,0.7891 0.2508,0.582 0.6644,0.3743 0.512,0.1415 1.3006,-0.7029 0.4384,-0.3732 0.1018,-0.1766 0.026,-0.0524 0.3325,-1.0694 0.2708,-0.9743 0.0509,-0.2393 -0.0968,0.0111 -0.0198,0.0233 -0.0238,0.0057 -0.0216,-0.0158 -0.1098,-0.1039 -0.0482,-0.1679 0.0144,-0.0934 0.0263,-0.1011 0.068,-0.1379 0.1315,-0.1803 0.0376,-0.0232 0.0476,-0.0289 0.1247,-0.0635 0.493,-0.1245 z" id="path52" style="stroke-width:0.125;stroke-miterlimit:4;stroke-dasharray:none"/>
  </g>
  <g id="BADESI" style="stroke-width:0.5;stroke-miterlimit:4;stroke-dasharray:none;stroke:#000000;stroke-opacity:1;stroke-linejoin:round;fill:#f8c300;fill-opacity:1" transform="matrix(32,0,0,32,-8654.6528,-962.5705)">
    <path d="m 281.0473,100.9335 -0.2889,0.4348 -0.1435,0.2087 -0.1415,0.1951 -1.022,1.3731 -3.291,4.3073 -0.22,0.2478 -1.3713,1.5495 -0.4694,0.5289 -0.7897,0.8471 -0.4322,0.4354 -1.1984,1.0798 -0.053,0.0469 -0.5541,0.4649 -0.5245,0.4337 -0.0274,0.0546 0.0119,0.0779 0.0868,0.006 0.0215,0.002 0.0493,-0.021 0.006,-0.002 0.0904,-0.045 1.1579,-0.6493 0.2634,-0.1545 0.3145,-0.1877 0.3361,-0.2384 0.5071,-0.3848 1.8747,-1.6421 0.271,-0.3473 1.9521,0.6179 0.9042,0.3101 1.9916,0.8559 0.0965,0.0447 0.524,0.2525 0.1222,0.0738 1.0405,0.7816 0.0847,0.0798 0.1321,0.1362 0.0513,0.0973 1.9447,0.0188 0.126,-0.0177 1.5644,-0.3351 0.4898,-0.2479 3.2263,-1.9749 2.1819,-1.6267 0.2851,-0.5398 0.1139,-0.3391 0.167,-0.4989 0.0884,-0.2455 0.006,-0.2046 -0.0198,-0.1831 -0.1403,-0.5317 -0.4589,-0.1848 -3.2267,-1.0667 -2.6597,-0.8777 -0.5399,-0.1786 -0.5537,-0.163 -0.126,-0.004 -0.0591,0.0118 -0.0689,-0.0194 -0.5754,-0.1805 -0.5892,-0.196 -0.1222,-0.0777 -0.0651,-0.0506 -0.5841,-0.7804 -0.3042,-0.6093 -0.5225,-0.3617 -0.9403,-0.4057 z" id="path77" style="stroke-width:0.125;stroke-miterlimit:4;stroke-dasharray:none"/>
  </g>
  <g id="BERCHIDDA" style="stroke-width:0.5;stroke-miterlimit:4;stroke-dasharray:none;stroke:#000000;stroke-opacity:1;stroke-linejoin:round;fill:#f8c300;fill-opacity:1" transform="matrix(32,0,0,32,-8654.6528,-962.5705)">
    <path d="m 341.4966,164.395 0.6815,-3.2577 0.0237,-0.0525 1.0491,-1.2655 0.0472,0.0161 0.0218,0.007 0.018,0.0341 0.0456,0.0907 0.0355,0.0742 0.0213,0.0974 0.0527,0.1132 0.0331,0.042 0.004,0.005 0.2582,0.2617 0.1336,-0.0522 0.1494,-0.1009 0.2889,-0.2096 0.0964,-0.0796 0.1358,-0.1438 0.2854,-0.3401 2.4734,-3.0243 1.2203,-1.7485 0.5351,-0.436 1.745,-0.086 0.1137,0.0296 0.0784,0.0412 0.0607,0.0372 0.0371,0.0683 -0.0534,0.1012 -0.0397,0.1401 -0.0101,0.0993 0.01,0.0527 0.0508,0.0644 0.0883,0.0256 0.0628,3e-4 0.2709,-0.0303 0.2022,-0.0286 0.9525,-0.1975 0.785,-2.232 0.0239,-0.107 0.002,-0.4812 -0.8235,-2.5765 -0.3633,-1.1292 -0.7891,-4.7583 -0.8631,-2.1167 0.0551,-0.0446 2.0866,-1.8322 0.0474,-0.0505 0.1203,-0.1302 0.069,-0.0796 0.0199,-0.0681 -0.004,-0.0702 -0.0154,-0.0916 -0.043,-0.0761 -0.0586,-0.0996 -0.0723,-0.0996 -0.0664,-0.1307 -0.009,-0.1929 0.1029,-0.7868 0.0438,-0.1654 0.0614,-0.1343 1.2747,-0.956 0.506,-1.3893 -0.0606,-1.1886 -0.113,-0.8265 -1.0059,-1.2406 -0.435,-0.4009 -0.2254,-0.2072 -0.1374,-0.0551 -0.0767,-0.01 -1.1909,-0.088 -0.0689,0.0173 -1.0398,0.5869 -1.3944,0.315 -0.3438,-0.1802 -0.1196,-0.0802 -0.1509,-0.1427 -0.1902,-0.1448 -1.1399,-0.7535 -0.5381,-0.177 -1.408,0.1421 -2.5204,0.0884 -0.3559,0.0127 -0.1002,-0.0139 -4.268,-0.7647 -0.8493,0.0156 -0.3146,0.005 -1.1737,0.0169 -1.3976,-0.0693 -1.6374,0.8091 -0.6906,0.3045 -2.636,0.9925 -0.2113,0.0796 -2.206,0.8301 -0.0747,0.0349 -0.0453,0.035 -0.4133,0.3403 -0.3247,0.2606 -0.4565,0.3538 -0.0748,0.0525 -0.1927,0.0465 -1.0575,0.1173 -0.0203,0.001 -0.2832,0.015 -0.1919,0.0105 -1.433,0.1909 -0.621,1.55 -0.7373,1.8597 -0.5459,1.3845 -0.1201,0.2454 -1.7998,1.9872 -0.4247,0.4281 0.0176,2.0301 0.866,1.9375 0.76,1.7172 0.0116,0.1578 -0.0239,0.2903 -0.0669,0.1402 -0.1161,0.1713 -0.1395,0.109 -0.0963,0.0564 -0.0746,0.0213 -0.0904,0.0369 -0.0628,0.0428 -0.0414,0.0857 -0.1555,0.4323 0.0135,0.1988 0.2428,0.6042 0.2332,0.4211 0.7569,0.7587 2.3729,0.3068 1.3427,0.0408 0.9786,-0.5472 0.0104,-0.009 0.05,-0.0424 0.007,-0.005 0.008,-0.006 1.0728,-0.6277 0.1964,-0.066 0.1375,0.01 0.1177,0.0411 0.1667,0.0801 0.1098,0.0996 0.1117,0.1307 0.0743,0.2008 0.1133,0.2924 0.1822,0.2691 0.196,0.1757 0.1647,0.0841 0.1766,0.0392 0.0974,-0.009 0.0735,-0.007 0.2316,-0.021 0.1964,-0.0698 0.1121,-0.0817 0.0944,-0.0894 0.0787,-0.1382 0.0615,-0.337 0.0342,-0.5025 -0.006,-0.1949 0.0692,-0.2648 0.0437,-0.0761 0.0134,-0.0232 0.0826,-0.1051 0.0466,-0.0375 0.0596,-0.048 0.112,-0.0777 0.113,-0.0566 0.0383,-0.0191 0.167,-0.0484 0.1943,0.0159 0.2238,0.0432 0.0382,0.0121 0.16,0.0507 0.204,0.086 0.1275,0.0743 0.4411,0.332 0.194,0.1582 1.7514,0.8879 1.4611,0.6518 0.251,0.0901 0.1315,0.006 0.1493,-0.0211 0.1708,-0.0211 0.3063,-0.011 0.2237,0.0297 0.1687,0.0432 0.1883,0.0725 0.0388,0.0203 0.2494,0.1304 0.5175,0.2895 0.1294,0.0763 0.041,0.0699 -0.002,0.0665 -0.6159,1.4949 -0.6234,1.4754 -0.2545,0.6053 0.0292,0.0722 0.1582,0.3686 0.0489,0.0761 0.0508,0.0624 1.1585,1.3898 0.0548,0.0624 0.1822,0.1368 1.8052,2.387 0.1364,0.3549 1.6612,3.9533 0.1837,0.2654 0.8705,-0.666 z" id="path116" style="stroke-width:0.125;stroke-miterlimit:4;stroke-dasharray:none"/>
  </g>
  <g id="BORTIGIADAS" style="stroke-width:0.5;stroke-miterlimit:4;stroke-dasharray:none;stroke:#000000;stroke-opacity:1;stroke-linejoin:round;fill:#f8c300;fill-opacity:1" transform="matrix(32,0,0,32,-8654.6528,-962.5705)">
    <path d="m 314.0545,117.7043 -0.5213,-0.1991 -1.794,-0.8252 -0.8617,-0.4096 -0.4023,-0.2175 0.0208,-0.223 0.012,-0.337 0.0119,-0.3848 -0.057,-0.0244 -0.8384,0.1165 -2.4994,0.3498 -2.8397,0.4418 -2.4171,0.4344 -0.0123,0.0497 -0.0153,0.0331 -0.0882,0.1812 -0.2654,0.492 -0.0406,0.0623 -1.3461,1.8959 -1.9238,0.9571 -1.3515,0.0745 -0.7612,0.24 -0.0609,0.0234 -3.0642,1.202 -0.1297,0.0721 -0.4404,0.3666 -0.0471,0.0468 -0.002,0.0643 0.0178,0.0565 -1.4806,0.6733 -2.9846,-0.7998 -1.7825,-0.3078 0.5918,3.2216 -0.6145,0.8677 -0.0215,0.0819 -0.006,0.1227 0.0674,0.4149 0.0105,0.0375 0.003,0.0109 0.0312,0.1113 0.003,0.01 1.4503,2.835 0.0729,0.0915 0.0787,0.0623 0.0629,0.033 3.0108,0.9966 0.0885,0.0253 0.0609,-10e-5 0.0201,-0.0112 0.029,-0.0161 1.1905,-1.0803 0.6963,-0.9058 0.8892,-0.7357 1.1694,-0.7878 1.5141,0.0752 2.1022,0.6149 0.0491,0.0196 0.0335,0.0134 0.0924,0.0526 0.006,0.004 0.0382,0.0234 0.054,0.0332 0.0541,0.0332 0.0698,0.0427 0.4188,0.2999 0.061,0.0487 0.0767,0.0955 0.0457,0.0815 0.0743,0.1327 0.2911,0.5708 0.0571,0.1305 0.8575,1.1641 1.1952,1.4716 0.7843,-0.4112 10e-4,-0.0417 7e-4,-0.0264 0.01,-0.0702 0.009,-0.0276 0.0104,-0.0308 0.057,-0.0604 0.0885,-0.0273 0.4796,-0.0331 1.093,0.0507 0.053,0.0234 0.0167,0.0146 0.0521,0.0458 0.061,0.0838 0.0254,0.0881 0.007,0.0261 0.002,0.008 0.0217,0.0974 -0.004,0.0955 -0.1494,0.526 -0.0276,0.0487 -0.0432,0.0409 -0.0431,0.0214 -0.0119,0.006 -0.0629,0.0155 -0.0649,0.006 -0.0983,-0.002 -0.1219,-0.0389 -0.0521,-0.0104 -0.0166,-0.003 -0.1357,-0.004 -0.1317,0.0195 -0.0766,0.0214 -0.7312,0.2182 -0.0904,0.0429 -0.2556,0.1325 -0.0491,0.0428 -0.0273,0.0457 -0.004,0.007 -0.01,0.1461 0.0118,0.1578 0.0433,0.1579 0.059,0.1519 0.0452,0.1052 0.1678,0.3137 0.408,0.6059 0.366,-0.3189 0.2846,-0.248 1.2246,-1.1221 1.8795,-1.7803 0.8644,-0.7626 0.7882,-0.6953 0.2549,-0.2247 2.2325,-1.9492 0.1435,-0.0876 1.6406,-1.0198 0.3526,-3.6897 0.4947,-1.2816 0.0126,-0.0388 0.0339,-0.1048 0.127,-0.392 0.004,-0.189 -0.004,-0.6429 -0.0119,-2.4294 z" id="path155" style="stroke-width:0.125;stroke-miterlimit:4;stroke-dasharray:none"/>
  </g>
  <g id="BUDDUSO_" style="stroke-width:0.5;stroke-miterlimit:4;stroke-dasharray:none;stroke:#000000;stroke-opacity:1;stroke-linejoin:round;fill:#f8c300;fill-opacity:1" transform="matrix(32,0,0,32,-8654.6528,-962.5705)">
    <path d="m 368.5376,185.8827 -0.184,-0.0359 -0.5167,-0.0587 -0.967,-0.0939 -1.0826,-0.104 -1.2783,-0.1145 -1.3665,-0.105 -0.088,-0.0316 -0.2402,-0.1607 -0.1991,-0.1625 -2.1063,-1.758 -1.2197,-1.1503 -1.7247,-0.8189 -0.0822,-0.012 -0.6264,-0.1134 -0.5715,-0.1618 -0.9178,-0.2585 -1.3263,-0.5521 -0.9311,-0.4104 -1.3606,-0.9086 -0.4356,-0.4047 -0.06,-0.199 -0.01,-0.6273 -0.0693,-0.3666 -0.4001,-1.6982 -0.3481,-0.2252 -0.9591,-0.3771 -1.1329,-0.5725 -2.2836,-2.5532 -0.6582,-0.8124 -0.6187,-0.9155 -0.2267,-0.3124 -0.0356,-0.0397 -0.7473,-0.8321 -0.466,-0.5188 -1.7324,-1.7932 -0.9505,-0.9688 -0.783,0.1909 -0.1649,0.062 -2.9552,1.4911 -1.0857,0.7828 -0.4262,0.3146 -0.1394,0.1069 -2.5265,2.4768 -0.2397,0.2626 0.0133,0.2202 0.0383,0.4501 0.1556,1.555 0.0405,0.3722 0.0232,0.1326 0.7273,2.7466 0.1505,0.1815 1.097,1.0875 0.5064,0.5018 0.2874,0.2792 0.0163,0.0142 0.103,0.0894 0.0723,0.0508 0.009,0.3507 -0.0105,0.2864 -0.1546,1.6985 -10e-4,0.0132 -0.0126,0.1154 -0.0652,0.2414 -0.3156,1.0105 -0.1656,0.479 -0.2446,0.7943 -0.0197,0.0701 -2e-4,0.0936 0.1591,1.5784 0.0193,0.1618 0.0524,0.2047 0.2619,0.2519 0.2935,0.2617 0.1599,0.1425 0.2403,0.2246 -0.3401,0.6344 -0.2674,0.4631 -0.3776,0.7941 -0.1633,0.3699 -0.0671,0.2356 -0.0138,0.0584 0.0115,0.076 0.1597,0.4173 0.1111,0.2379 0.0428,0.986 0.0349,1.093 -2e-4,0.078 -0.0503,0.6077 -0.008,0.0624 -0.1787,0.2548 -0.0412,0.0428 -0.0392,0.0408 -0.5678,2.859 -0.032,0.3077 0.2105,1.3156 0.017,0.0841 0.004,0.0211 0.0292,0.0741 0.0331,0.0664 0.0351,0.0507 0.0704,0.0411 0.1036,0.0333 0.1858,0.0549 0.0605,0.0489 0.1878,0.0432 0.7766,0.0738 0.7221,-0.0334 0.1566,-0.0192 0.1047,-0.0292 0.0127,-0.004 0.2821,-0.1338 0.1705,-0.1146 0.1059,-0.0932 0.1469,-0.064 0.1429,-0.0503 0.5737,-0.1487 1.1785,-0.227 3.4084,0.1354 0.086,0.0353 0.4511,0.3129 0.867,0.6298 0.125,0.0646 2.1468,0.5244 0.7301,-0.0757 0.2093,-0.003 0.2016,-0.003 0.0801,0.0158 0.1056,0.0413 1.5924,0.6615 1.4492,0.781 1.0222,-1.4764 0.0786,-0.105 0.501,-0.6081 0.2357,-0.2603 0.151,-0.1164 0.1275,-0.0892 0.2432,-0.157 2.1593,-1.3973 1.2803,-0.648 0.1311,-0.007 0.8047,-0.1022 1.3197,-0.6906 0.0863,-0.0543 0.0849,-0.0874 0.007,-0.008 0.682,-0.7455 0.6038,-0.7536 1.1536,-1.1567 0.053,-0.0446 0.055,-0.0407 1.107,-0.7301 0.1,-0.0385 0.1333,-0.0385 0.1018,0.004 0.1037,0.0141 0.1134,0.0199 0.3033,0.0325 0.1018,-0.005 0.3683,-0.0569 0.3076,-0.0708 0.1883,-0.0888 0.1668,-0.0851 0.1315,-0.0793 0.2043,-0.1648 0.0105,-0.0354 0.0173,-0.058 0.2881,-0.9865 0.0318,-0.1226 0.006,-0.0818 -0.0134,-0.0605 -0.0213,-0.0644 -0.0193,-0.0624 -0.0173,-0.0722 -0.001,-0.1032 3e-4,-0.078 0.2589,-0.5541 0.1103,-0.1632 0.061,-0.0758 0.0806,-0.0698 0.648,-0.4278 0.003,-6e-4 0.0992,-0.0242 0.824,-0.3803 1.1345,-1.0217 0.0373,-0.0408 0.0198,-0.0555 0.008,-0.0223 0.0721,-0.364 -0.0152,-0.0839 -0.004,-0.004 z" id="path169" style="stroke-width:0.125;stroke-miterlimit:4;stroke-dasharray:none"/>
  </g>
  <g id="BUDONI" style="stroke-width:0.5;stroke-miterlimit:4;stroke-dasharray:none;stroke:#000000;stroke-opacity:1;stroke-linejoin:round;fill:#f8c300;fill-opacity:1" transform="matrix(32,0,0,32,-8654.6528,-962.5705)">
    <path d="m 406.6612,163.2643 1.7727,0.5991 0.3155,0.1025 0.3224,0.1047 0.9939,0.3189 0.5713,0.1834 0.5479,0.1755 0.1049,0.1313 1.216,2.0644 0.7508,1.3168 0.7934,1.3795 0.4241,0.6793 0.0487,0.0471 0.821,0.7345 1.1647,1.042 -0.0474,-0.1972 -0.395,-1.6435 0.0999,-0.1774 0.4786,-0.8448 0.4768,-0.6627 0.0194,-0.0269 0.0113,-0.0157 0.448,-0.6199 0.2812,-0.3543 0.0921,0.0124 0.1645,0.0246 0.738,0.1442 6.4824,1.3871 0.0267,0.0898 0.2277,0.865 0.0515,0.1992 0.2141,0.8765 0.0526,0.2732 0.0113,0.0527 0.0169,0.0237 0.049,0.0684 0.7819,0.0241 0.5411,-0.007 0.4069,-2.3471 0.0749,-0.5653 -0.1664,-0.7126 -0.1734,-0.5898 -0.6082,-1.5677 -0.0619,-0.094 -0.5736,-0.8114 -0.7159,-0.682 -0.1811,0.0705 -0.0688,0.0209 -0.1002,0.0167 -0.0725,-6e-4 -0.1706,-0.009 -0.0509,-0.0121 -0.1623,-0.0579 -0.1153,-0.0496 -1.5304,-1.1036 -0.1636,-0.1397 -0.206,-0.2316 -0.1068,-0.1294 -0.3102,-0.439 -0.1102,-0.1957 -0.1155,-0.2659 -0.0333,-0.0792 -0.0618,-0.1486 -0.0244,-0.0362 -0.1461,-0.3577 -0.0635,-0.1749 -0.4301,-2.4845 -0.1376,-4.0896 0.3647,-0.0904 0.2767,-0.3763 0.4209,-1.268 -0.0351,-0.4855 -0.4426,-0.3184 -0.8066,0.3578 -1.9266,0.8536 -3.0321,1.2076 -0.4935,0.117 -0.6705,0.1624 -0.1337,0.036 -1.2234,0.3551 -0.1024,0.0363 -0.3271,0.1748 -0.1163,0.0634 -0.3036,0.1828 -0.1301,0.0887 -2.3796,1.7417 -0.0791,0.0754 -0.0751,0.0735 -0.0514,0.0522 -1.7477,1.8129 -0.0436,0.0523 -0.0603,0.1615 -0.3218,0.8606 -0.3182,0.8725 -0.3283,0.9172 -0.2562,0.7132 -0.1322,0.3848 -0.0163,0.0817 z" id="path172" style="stroke-width:0.125;stroke-miterlimit:4;stroke-dasharray:none"/>
  </g>
  <g id="CALANGIANUS" style="stroke-width:0.5;stroke-miterlimit:4;stroke-dasharray:none;stroke:#000000;stroke-opacity:1;stroke-linejoin:round;fill:#f8c300;fill-opacity:1" transform="matrix(32,0,0,32,-8654.6528,-962.5705)">
    <path d="m 330.2062,115.2772 -0.0426,0.035 -0.0926,0.2502 -0.2386,1.8601 0.1674,1.5004 0.0332,0.0897 0.2017,0.5147 0.7141,1.0631 1.4074,0.5385 0.0826,0.0138 0.6622,1.3066 0.133,0.2695 0.3194,0.6471 0.2722,0.5597 0.7656,1.5758 0.0274,0.0604 -0.0354,0.324 -0.1492,1.3628 -0.2866,2.5535 1.3976,0.0693 1.1737,-0.0169 0.3146,-0.005 0.8493,-0.0156 4.268,0.7647 0.1002,0.0139 0.3559,-0.0127 2.5204,-0.0884 1.408,-0.1421 0.5381,0.177 1.1399,0.7535 0.1902,0.1448 0.1509,0.1427 0.1196,0.0802 0.3438,0.1802 1.3944,-0.315 1.0398,-0.5869 0.0689,-0.0173 1.1909,0.088 0.0767,0.01 0.1374,0.0551 0.2254,0.2072 1.3439,-1.4799 0.6226,-0.9134 0.01,-0.0527 0.0121,-0.0642 -0.3084,-1.7194 -0.3209,-2.074 0.0983,-1.0984 -0.1523,-0.3084 -2.0012,-2.6116 -0.7572,-0.626 -0.004,-0.009 -0.0237,-0.0609 0.5557,-2.5815 0.0916,-0.3172 0.0615,-0.1479 0.1563,-0.2371 0.0949,-0.1263 0.1283,-0.1262 0.9616,-0.9377 0.1811,-0.0286 0.4017,-0.0629 0.3012,-0.0399 0.4902,-0.047 0.4115,-0.0472 0.0454,-0.0407 0.1682,-0.2625 0.0456,-0.0777 0.0856,-0.2822 -2.6987,0.162 -0.1562,-0.3317 -0.0918,-0.7913 0.0372,-0.5025 0.0153,-0.45 -1.0233,-1.7899 -1.0598,-0.3815 -0.301,-0.0321 -0.0571,-0.0158 -0.2654,-0.0982 -0.371,-0.3227 -0.0592,-0.0627 -0.003,-0.105 0.028,-0.1305 0.1861,-0.9053 -0.2586,-1.0236 -0.2754,-0.0671 -0.9056,-0.0243 -0.6944,-0.2086 0.2934,-1.9122 -2.1837,-0.7216 -0.9733,-0.5132 0.0203,-0.2095 0.0203,-0.2112 1.4662,-3.557 0.077,-0.0446 0.3547,-0.0359 0.3862,-0.03 0.4355,-0.6767 -0.4371,-0.3958 -0.2285,0.2886 -0.5049,0.4748 -0.8535,0.5401 -0.4775,0.283 -0.6667,0.2826 -0.2287,0.0597 -0.0944,-0.0217 -1.2311,-0.0404 -1.9686,1.0059 -0.2111,0.1241 -0.0986,0.0757 -0.0416,0.0954 -2e-4,0.0604 0.0372,0.0761 0.0531,0.0508 0.0491,0.0449 0.0491,0.0586 0.0626,0.1462 0.1071,0.4562 -0.004,0.0682 -0.5562,1.0681 -0.9814,1.8152 -0.2688,0.3753 -0.2844,0.3383 -0.1697,0.1535 -0.7131,0.9256 6e-4,0.5728 0.0104,0.5421 0.002,0.0969 -0.0264,0.3311 -0.0317,0.1149 -0.3599,0.6382 -0.0552,0.0466 -0.7211,0.2613 -1.9355,1.0652 -1.259,1.4644 -0.505,0.5569 -1.186,0.6027 -0.1654,0.0192 -1.0055,-0.0721 -0.6873,0.7127 z" id="path201" style="stroke-width:0.125;stroke-miterlimit:4;stroke-dasharray:none"/>
  </g>
  <g id="GOLFO_ARANCI" style="stroke-width:0.5;stroke-miterlimit:4;stroke-dasharray:none;stroke:#000000;stroke-opacity:1;stroke-linejoin:round;fill:#f8c300;fill-opacity:1" transform="matrix(32,0,0,32,-8654.6528,-962.5705)">
    <path d="m 399.7281,101.7673 0.4618,-0.8926 0.0498,-0.0838 4.2473,-3.2879 0.0475,-0.0308 0.1818,-0.0728 0.134,-0.0049 0.9805,0.2459 0.1173,0.0525 0.122,0.0614 0.0281,0.0244 0.0729,0.0746 0.0289,0.0412 0.0354,0.0561 -3e-4,0.0429 -0.009,0.033 -0.025,0.065 -0.002,0.054 0.1643,0.4698 0.2012,0.4234 0.1929,0.2766 0.6584,0.4729 0.154,0.2476 0.0428,0.0627 0.1133,0.141 0.5033,0.4108 0.4969,0.1906 1.7918,0.6403 0.032,0.008 0.0408,0.01 0.6018,0.1291 0.0397,0.006 0.0291,0.004 0.0552,-0.005 0.0772,-0.0442 1.8813,-2.1128 0.0601,-0.0761 0.0849,-0.2157 -0.0519,-0.2152 -0.0723,-0.2655 -0.0265,-0.0399 -0.9377,-1.0961 -0.192,-0.1898 -0.0857,-0.0801 -0.1065,-0.0744 -0.8938,0.0888 -0.0631,0.0093 -0.5329,0.1169 -0.2419,0.1989 -0.3132,0.2529 -0.1857,0.1214 -0.7329,0.0034 -0.4689,-0.0764 -0.7,-0.1901 -0.0236,-0.0099 -0.0806,-0.0453 -0.1331,-0.3654 -0.0606,-0.0647 -0.0529,-0.0393 -0.0686,-0.0492 -1.5118,-1.0374 -1.4152,-1.3443 -0.4358,-0.5271 -0.147,-0.1081 -2.1118,-0.1332 -0.794,1.1129 -0.2203,-0.0619 -0.2623,0.3197 0.0379,0.2165 -0.004,0.0311 -0.0559,0.1049 -0.0657,0.0969 -0.0614,0.0367 -0.0513,0.0152 -0.0888,0.015 -0.0848,0.0072 -0.0433,-0.0042 -0.3882,-0.2947 -0.0509,-0.0432 -0.0293,-0.0392 -0.2674,-0.3836 -0.0346,-0.1346 0.0143,-0.0662 -0.007,-0.0517 -0.003,-0.0224 -0.0486,-0.1035 -0.0974,-0.1663 -0.1126,0.0441 -0.3287,0.2316 -0.0176,0.0174 -0.0241,0.0252 0.01,0.0546 0.0268,0.1229 0.0624,0.0939 0.1876,0.235 0.0979,0.0961 0.0396,0.1338 0.0124,0.0419 0.006,0.9332 -0.0156,0.5649 -0.0241,0.0739 -0.0319,0.0446 -0.2244,0.2595 -0.156,0.0516 -0.0472,-0.0042 -0.1604,-0.016 -0.0302,-0.0077 -0.0443,-0.0606 -0.0991,-0.3541 0.006,-0.106 0.042,-0.1606 0.0885,-0.2491 0.0295,-0.0195 0.0199,-0.0018 0.006,0.0254 0.009,0.0169 0.017,0.002 0.1003,-0.124 0.0211,-0.0359 -0.003,-0.0197 -0.0255,-0.0198 -0.2466,-0.086 -0.0797,0.0145 -0.0666,0.0431 -0.1917,0.211 -0.0396,0.1169 -0.002,0.0295 0.009,0.0347 0.0197,0.0376 0.032,0.0217 0.0171,-0.0036 0.005,-0.0309 0.0106,-0.0271 0.0162,-0.0046 0.0284,2e-4 0.0198,0.0123 0.0131,0.0245 0.0327,0.0629 0.0112,0.0226 0.006,0.0342 -0.0173,0.029 -0.1162,0.1007 -0.1195,0.0496 -0.0336,0.0113 -0.0363,-0.006 -0.103,-0.0395 -0.1173,-0.0655 -0.0278,-0.0165 -0.1411,-0.1197 -0.0694,-0.1397 -0.0144,-0.0657 0.005,-0.0423 0.0138,-0.0274 0.0399,-0.066 0.0295,0.0021 0.0413,0.0031 0.0956,-0.1366 0.002,-0.3702 -0.045,-0.0509 -0.846,0.0998 -0.0592,0.0093 -0.0496,0.0562 -0.007,0.1169 0.01,0.0546 0.0131,0.113 -0.0295,0.2217 -0.024,0.048 -0.0238,0.0348 -0.5321,0.535 -0.0697,0.0449 -0.2141,0.0635 -0.0787,0.0073 -0.0364,-0.0028 -0.1903,0.3442 -0.186,0.1571 -0.447,0.3487 -0.1237,0.0914 -0.0308,0.0228 -0.2045,0.1303 -0.2624,0.0847 -0.1581,0.0361 -0.0708,0.0013 -0.2126,-0.0227 -1.1416,-0.1863 -0.1201,-0.0368 -0.1001,-0.0308 -0.0963,-0.0415 -0.0352,-0.0411 -0.0702,-0.1231 -0.0214,-0.0469 -0.0684,-0.0842 -0.0983,-0.0396 -0.3879,-4e-4 -1.3743,2.0666 0.0541,0.5029 -0.0249,0.5376 -0.6202,0.5885 -0.0652,0.0484 -0.2789,0.1873 -0.3734,0.1907 -0.8436,0.4178 -0.0789,0.0268 -0.3232,0.0215 -0.2995,0.0158 -0.1656,0.0322 -0.3888,0.1342 -0.4738,0.1765 -0.1382,0.0518 -0.1382,0.0694 -0.0932,0.1027 -1.0707,1.2466 -0.119,0.1494 -0.0394,0.0535 -0.0167,0.0225 -0.005,0.007 -0.0478,0.0835 -0.005,0.0243 -0.006,0.0265 -0.0596,0.2722 -0.0284,0.1421 7e-4,0.2279 2.2737,0.1395 0.1261,-0.009 2.7628,-0.321 1.0603,-0.1301 0.2201,-0.2422 0.1409,-0.1706 0.0694,-0.0755 0.0788,0.0217 0.4481,0.1237 2.1386,0.6306 0.0944,0.0279 0.4493,-0.6763 0.0272,-0.0747 0.3086,-0.1965 0.0625,-0.026 0.061,0.0149 0.0502,0.0122 3.2391,2.5179 1.0985,0.872 0.2452,0.1966 0.0726,0.0355 0.0534,-0.0347 0.03,-0.0797 0.0265,-0.1264 -10e-4,-0.1344 -0.007,-0.0439 -0.008,-0.0517 -0.031,-0.0723 -0.043,-0.0431 -0.0531,-0.0101 -0.2837,0.0254 -0.0397,0.0387 -0.006,0.0214 -0.014,0.0233 -0.0217,0.0115 -0.0314,-0.0119 -0.0196,-0.0215 -0.0331,-0.0587 -0.0153,-0.0585 -0.0287,-0.1308 0.0105,-0.0954 0.6238,-0.5238 0.1643,-0.1314 0.1045,-0.0168 0.2305,-0.0238 0.1438,-0.007 0.0846,0.0181 0.004,0.003 0.0453,0.0345 0.0525,0.1017 0.0385,0.1308 0.0607,0.0452 0.0789,-0.017 0.0774,-0.0891 0.7399,-1.3627 0.1053,-0.4162 -1.0098,-0.9457 -0.7125,-0.6418 0.0624,-0.6678 0.0468,-0.3329 0.0579,-0.2713 -0.1819,-0.2094 -0.1899,-0.181 z" id="path380" style="stroke-width:0.125;stroke-miterlimit:4;stroke-dasharray:none"/>
  </g>
  <g id="LA_MADDALENA" style="stroke-width:0.5;stroke-miterlimit:4;stroke-dasharray:none;stroke:#000000;stroke-opacity:1;stroke-linejoin:round;fill:#f8c300;fill-opacity:1" transform="matrix(4,0,0,4,-254.6528,7437.4295)">
    <path d="m 899.2456,-1717.6352 0.5208,0.3616 0.1904,-0.062 0.1584,-0.1704 0.3504,-0.4512 0.2088,-0.4672 4.3352,-12.2016 -0.9344,-11.7952 -0.4776,-2.8072 -4.1816,-6.5304 -4.02,-5.0672 -4.3416,-3.9368 6.6856,-2.1144 -0.58,-1.952 -3.2992,-5.7976 -8.4464,-7.4808 -0.2088,-0.1512 -0.74,-0.3968 -4.8816,-1.3448 -0.6288,0.1656 -3.2408,1.4464 -0.4576,0.2232 -2.2232,12.568 -0.156,2.936 0.1216,0.5792 0.8096,1.8104 0.2648,0.58 1.2776,0.7072 0.5864,0.2304 0.996,0.1104 0.5344,-0.086 -0.9896,3.2296 -2.3872,6.7848 -0.1976,0.5128 -0.2616,0.2552 -0.6208,0.5424 -0.7176,0.3496 -0.7824,0.2208 -1.0392,-0.4864 -0.2264,-0.2256 -1.408,-1.572 -6.3408,-6.6432 -3.8552,16.4488 -1.6952,4.6432 -1.7328,1.5384 -0.6296,0.4224 -1.2576,0.5352 -1.4384,0.2 -0.4952,-0.3888 -0.208,-0.2584 -0.104,-0.2064 -2.4576,-0.011 -0.68,0.1256 -0.7592,0.1512 -1.0736,0.3048 -0.2088,0.076 -0.6328,1.0024 -1.0032,2.1984 -1.2008,5.2776 -0.2416,1.3648 -0.5408,4.7312 -10.6352,-3.208 -4.5144,0.4232 -0.6664,0.9032 -2.9592,6.6592 -1.9768,5.0288 2.7472,15.9112 0.1768,0.276 0.8328,1.2824 4.3592,3.152 1.1216,0.1224 1.0272,-1.3936 0.2048,-0.2064 0.2048,-0.082 0.5768,-0.104 0.3248,0.025 0.66,0.204 1.1264,0.6568 1.5544,1.5168 0.048,0.2016 0.048,0.2488 0.064,4.4608 8.0488,1.9392 12.3904,1.4176 2.224,-1.7688 18.2448,-9.4096 0.704,-0.2704 1.0936,0.074 0.4248,0.088 0.3808,0.1384 0.6312,0.4136 0.5488,1.38 0.1176,0.7624 -0.007,0.2896 0.0968,0.6088 0.1808,0.5936 1.3464,0.96 0.7656,0.448 21.7216,-0.1928 1.1616,-0.8936 1.7728,-4.2016 0.8192,-11.08 -0.016,-0.2976 -0.956,-2.3352 -0.9472,-1.0688 -0.2848,-0.1576 -0.412,-0.049 -2.1744,0.098 -0.664,0.074 -0.3232,-0.664 0.0832,-0.7296 0.3728,-4.6136 0.1984,-0.6816 0.9864,-1.7008 0.22,-0.196 1.12,-0.5256 0.2192,0.061 3.2856,1.2848 1.0552,0.4376 0.3584,0.2184 -0.04,0.3928 -0.2808,0.3336 -0.42,0.1944 -0.4192,0.018 -0.4192,-0.022 -0.14,0.176 -0.0808,0.236 0.1384,0.1384 0.9176,0.083 0.5384,0 1.3368,-0.013 2.3608,-1.208 0.5816,-0.6064 4.0024,-6.1168 -0.04,-0.3344 -0.056,-0.3344 -5.1568,-5.9568 -1.2744,-0.616 -1.2184,0.26 -4.644,2.848 -1.488,2.2248 -3.34,9.464 -1.0032,4.932 -2.1528,4.2056 -0.048,0.032 -0.132,0.049 -0.5296,-0.084 -0.3632,-0.084 -0.5104,-0.4672 -0.0984,-0.1472 0.1624,-12.5488 1.672,-3.6104 z" id="path442" style="stroke-width:1;stroke-miterlimit:4;stroke-dasharray:none"/>
    <path d="m 1696.27,141.44571 0.2742,-0.0271 5.9454,-1.40941 3.9793,-1.42103 2.2246,-0.8712 1.0771,-0.48013 1.2807,-0.74343 0.6385,-0.65437 0.4856,-0.68535 0.5797,-0.92541 0.6697,-1.92439 0.6894,-2.04055 0.4464,-1.45201 0.3917,-1.34358 0.4857,-2.40065 0.078,-0.74343 0.031,-0.5111 0.039,-0.80538 -2.7416,-11.08558 -0.7834,-1.95924 -0.6736,-1.39392 -0.9909,-1.69594 -0.846,-1.40942 -0.4387,-0.39494 -0.2741,-0.23232 -0.3525,-0.15488 -2.2678,-0.70084 -1.3042,-0.1936 -7.61,0.34848 -0.3995,0.41044 -0.4896,0.51498 -15.7801,16.57608 -0.1175,0.23233 -1.6685,9.14569 -0.078,2.32321 -0.024,0.88282 0.02,0.23232 0.1175,0.1936 16.9041,6.85733 0.5131,-0.0155 z" id="path124" style="stroke-width:1;stroke-miterlimit:4;stroke-dasharray:none" transform="translate(-823.2664,-1781)"/>
    <path d="m 1776.98,39.456884 0.1958,-0.484002 -2.9571,3.763597 -7.3045,-1.316484 -5.3892,2.512936 0.9987,8.030556 0.3133,5.30853 -2.444,11.619912 -4.273,7.670459 -0.6502,-0.53821 -0.2741,-0.193601 -0.3525,-0.154881 -1.7978,-0.665986 -0.8107,-0.309761 -0.4935,-0.15488 -0.235,-0.07744 -1.7977,-0.348481 -0.5562,0.309761 -1.6175,1.339717 -0.1959,0.534338 -0.1958,1.138372 2.6045,1.28938 1.4492,1.161604 0.1958,0.232321 0.024,6.760535 -1.5235,2.551657 -4.0616,1.661093 0.7168,5.138162 4.367,11.697352 3.8226,-0.41043 0.078,0.031 1.1985,1.0106 0.1175,0.0774 1.4726,8.4255 0,0.47626 -0.1175,0.34848 -1.7938,0.94864 -0.7912,0.23232 -0.2742,0.0348 -0.4425,0 -2.867,-0.0774 -0.3956,-0.0774 -3.5484,-1.11901 -0.5484,-0.39108 -0.1566,-0.11616 -0.1175,-0.27104 -0.1567,-0.27104 -0.1567,-0.1936 -3.991,-3.51579 -0.1567,-0.0774 -1.504,-0.15488 -0.1958,0.39108 0.078,1.97859 -1.1906,4.72386 -0.517,1.99796 -0.1175,0.46077 -0.3133,0 -0.3525,0.11616 -0.3525,0.23232 -0.1567,0.34848 -0.5836,2.32321 -0.039,0.34848 0.039,0.30976 0.47,3.19441 1.3043,2.57489 0.3524,0.50724 0.423,0.30976 1.2416,1.22742 0,0.34849 -0.1175,0.23232 -4.5903,1.29325 -1.547,0.30976 -0.1175,0 -1.3983,-0.34848 -0.1175,-0.0774 -0.4465,-0.30976 -1.3081,-1.05706 -0.8421,-1.05706 -0.6541,-0.48788 -0.6815,0.52273 -1.41,2.02506 -0.078,0.39882 -0.078,0.59241 0.3133,1.55655 0.3133,0.34849 0.3995,0.42204 2.4714,1.62238 0.4465,-0.0774 -0.799,7.10514 0.039,0.77828 0.02,0.15488 0.7285,2.57489 0.1175,0.1936 0.1175,0.15488 0.611,0.34848 0.3525,-0.0387 5.7104,-1.24679 0.1958,-0.11616 3.3683,-3.87201 0.2742,-0.69309 0.6267,-1.785 -0.039,-0.11616 -0.1958,-0.11616 -1.5706,-0.11616 -0.5052,0 5.5381,-9.55613 2.299,-1.58753 5.2209,-0.98736 0.235,0.004 0.2742,0.11616 2.0405,3.19054 1.3278,4.62706 0.02,0.1936 -0.078,0.91766 -0.1175,0.30977 -0.2742,0.49561 -0.3133,0.58081 -0.1958,0.27104 18.1301,10.19114 14.6991,-1.59915 0.235,-0.27104 1.1789,-1.38231 0.5052,-1.02221 0.035,-0.30976 0.016,-2.95822 -0.8381,-1.9786 -0.5288,-1.09578 -0.5248,-0.77827 -0.3133,-0.46077 -0.4269,-0.0774 -8.6245,0.39495 -4.4062,1.56429 -1.4961,1.18871 -0.235,0.7047 -0.039,0.73956 -0.3525,1.1616 -1.1045,1.24292 -0.6736,0.0774 -2.4479,-0.1936 -0.5679,-0.23232 -0.423,-0.30976 -0.3525,-0.56532 -0.3134,-0.91767 0.9635,-7.85631 0.3134,-0.94864 6.2627,-5.61442 6.9363,-6.28041 5.3658,-5.56408 2.0014,-19.685316 6.858,-8.499069 0.1175,0.1936 0.2742,0.154881 0.1958,0.02323 0.2742,0 1.222,-0.669858 1.6058,-5.049106 0.4935,-2.176071 0.019,-0.271041 -0.016,-0.755043 -0.078,-0.348481 -1.6058,-2.261256 -6.4076,-4.011405 -0.235,-0.154881 -0.9204,-20.014437 -9.5526,-5.513747 -0.8304,-0.271041 -0.5248,-0.929283 -2.6476,-5.637651 -0.3525,-3.399628 z" id="path150" style="stroke-width:1;stroke-miterlimit:4;stroke-dasharray:none" transform="translate(-823.2664,-1781)"/>
    <path d="m 1605.1183,28.750767 -0.1175,-0.07744 -0.235,-0.422049 -0.039,-0.154881 -0.5679,-2.660073 -0.078,-0.116161 -0.9283,-0.425921 -0.4582,0.11616 -2.8944,1.897287 -1.1241,1.668838 -3.8383,5.928052 -0.078,0.271041 -0.078,0.387201 -0.078,0.530466 -0.235,20.382278 3.6112,5.347251 0.1175,0.11616 3.991,3.00081 2.6085,1.939879 6.5682,1.223556 2.6476,-0.65437 6.341,-4.294063 7.3868,-7.887291 0.078,-0.11616 0.3525,-0.859587 0.078,-0.154881 0.1566,-0.507234 2.4087,-7.891163 0.2742,-0.975747 0.02,-0.232321 -0.5953,-2.4626 -0.1175,-0.154881 -2.5028,-0.940899 -0.9086,0.669858 -0.4387,0.232321 -0.3525,0.11616 -0.235,-0.03872 -0.4191,-0.271041 -0.2741,-0.271041 -0.1175,-0.309761 -0.031,-0.271041 0,-0.309761 0.078,-0.309761 0.3916,-1.537189 -2.111,-3.5971 -0.4857,-1.715302 -0.4504,-2.679433 -0.078,-0.271041 -0.1567,-0.309761 -0.4112,-0.642755 -0.1959,-0.271041 -2.4988,-1.533317 -0.3525,-0.15488 -0.4386,-0.193601 -0.5679,0.11616 -0.4074,0.232321 -0.235,0.232321 -0.1566,0.15488 0.012,1.184837 -1.0692,0.27104 -2.5537,0.569186 -8.2131,-0.940899 z" id="path160" style="stroke-width:1;stroke-miterlimit:4;stroke-dasharray:none" transform="translate(-823.2664,-1781)"/>
    <path d="m 1623.7301,-15.146247 1.7194,-0.48013 0.1958,-0.232321 1.4296,-3.531276 0.6619,-13.017709 -3.0236,-3.721005 -2.8396,-0.886691 -7.4729,-0.15488 -3.478,2.431624 -7.7432,5.122674 -4.7273,1.974727 -1.1829,0.511105 -0.1958,0.154881 -0.1175,0.11616 -0.02,0.154881 0.078,0.348481 1.6528,2.849802 16.9394,9.652929 0.235,0.03485 7.8685,-1.343589 z" id="path194" style="stroke-width:1;stroke-miterlimit:4;stroke-dasharray:none" transform="translate(-823.2664,-1781)"/>
    <path d="m 1637.7007,-34.068776 0.1958,-0.03872 1.3513,-0.716322 16.5282,-10.721605 5.683,-5.610547 1.3356,-1.637862 0.235,-1.815974 -0.031,-0.193601 -5.3775,-14.082512 -0.235,-0.48013 -0.705,-0.429793 -0.3525,-0.116161 -0.4817,-0.03872 -7.4534,8.584254 -6.764,2.036679 -9.6075,8.282236 -0.3917,0.48013 -0.2741,1.029955 -0.235,0.995108 -0.4583,2.94273 0.8499,1.86631 5.1582,9.436097 0.1959,0.1936 0.6501,0.07744 0.235,-0.03098 z" id="path212" style="stroke-width:1;stroke-miterlimit:4;stroke-dasharray:none" transform="translate(-823.2664,-1781)"/>
    <path d="m 1608.2163,-68.068925 -1.5079,-1.541062 -0.7402,-0.971875 0.078,-0.530466 -0.235,-0.406561 -0.4426,-0.271041 -3.9636,0.797635 -0.4582,0.422049 -3.9284,3.678413 -1.0301,1.146116 -0.1175,0.15488 -0.078,0.271041 -0.8108,7.178713 0.1567,0.15488 0.9909,0.689219 0.3525,0.07744 1.8291,0.193601 0.6736,-0.348482 1.8291,-0.495617 1.6058,-0.398818 2.5419,-0.387201 9.2315,3.825549 0.2742,0.232321 0.2741,0.627266 -0.1958,0.561442 -0.3133,3.628077 8.5108,6.129397 0.7128,-0.01936 0.4857,-0.07744 3.2939,-0.69309 1.0418,-0.627266 0.893,-0.642754 0.3133,-0.561442 0,-1.231301 -0.039,-0.441409 -0.7599,-2.594249 -0.235,-0.526594 -7.1282,-10.717733 -0.235,-0.1936 -0.2742,-0.116161 -4.1477,0.406562 -8.4442,-6.439158 z" id="path214" style="stroke-width:1;stroke-miterlimit:4;stroke-dasharray:none" transform="translate(-823.2664,-1781)"/>
    <path d="m 1643.1683,-70.504422 0.1175,-0.02323 0.078,-0.11616 0.1958,-0.348481 0.078,-0.193601 -0.016,-0.07744 -0.235,-0.309761 -0.1175,-0.116161 -0.9596,-0.642754 -0.078,-0.11616 -0.235,-0.232321 -0.1175,-0.03872 -0.8695,0.271041 -0.235,0.11616 -0.4074,0.782147 0,0.11616 0.039,0.154881 0.1958,0.387201 0.078,0.03872 0.235,0.07744 1.9661,0.348482 0.078,0.0077 0.1567,-0.0077 z" id="path216-9" style="stroke-width:1;stroke-miterlimit:4;stroke-dasharray:none" transform="translate(-823.2664,-1781)"/>
    <path d="m 1652.2471,-69.513186 4.0028,-0.61565 0.8068,-0.154881 0.02,-0.03872 -0.5131,-4.623184 -0.9557,-1.122884 -3.5837,-1.633989 -0.5366,-0.154881 -4.5158,1.374565 -0.1959,0.07744 -2.3382,1.668838 -0.8812,2.44324 -0.01,0.154881 0.078,0.394945 0.078,0.232321 0.078,0.11616 0.5601,0.487874 0.7755,0.387201 5.8397,1.010596 0.5248,0.07744 0.7716,-0.0271 z" id="path218" style="stroke-width:1;stroke-miterlimit:4;stroke-dasharray:none" transform="translate(-823.2664,-1781)"/>
    <path d="m 1684.1833,-21.562174 0.4347,-0.1936 0.7128,-0.348481 1.0889,-1.572038 0.4543,-4.282447 0.01,-1.382308 -0.035,-0.271041 -0.94,-2.679433 -0.1567,-0.154881 -1.0026,0.07744 -0.1959,0.116161 -0.1175,0.07744 -0.4935,0.514978 -1.2572,3.802317 -0.039,0.15488 0.3134,3.616461 0.846,2.605865 0.3916,-0.07744 z" id="path182" style="stroke-width:1;stroke-miterlimit:4;stroke-dasharray:none" transform="translate(-823.2664,-1781)"/>
    <path d="m 1691.6719,-44.794253 0.1958,-0.154881 0.3133,-0.813123 -0.5326,-1.351332 -0.039,-0.116161 -0.846,-1.548805 -0.1175,-0.232321 -0.1958,-0.309761 -0.3525,-0.441409 -0.1567,-0.07744 -1.7899,0.07744 -0.3916,0.309761 -0.1959,0.944771 -0.016,0.11616 0.016,0.116161 0.3525,1.463621 0.1567,0.387201 0.4543,0.995107 0.235,0.193601 0.3525,0.193601 2.0797,0.511106 0.4935,-0.271041 z" id="path206" style="stroke-width:1;stroke-miterlimit:4;stroke-dasharray:none" transform="translate(-823.2664,-1781)"/>
    <path d="m 1684.806,-43.009255 0.1958,-0.116161 0.1567,-0.1936 0.8578,-2.036679 0.039,-0.232321 0.039,-0.387201 0.02,-0.271041 -1.8839,-5.126546 -0.9009,-1.335845 -0.1175,-0.11616 -0.6775,-0.507234 -0.5092,-0.07744 -0.4817,1.552677 -3.3018,4.541872 -0.1175,0.487874 0.016,0.561442 0.564,0.69309 1.41,1.599141 0.1567,0.07744 0.1958,0.07744 3.0902,0.816995 0.3525,0.03872 0.9047,-0.07744 z" id="path208" style="stroke-width:1;stroke-miterlimit:4;stroke-dasharray:none" transform="translate(-823.2664,-1781)"/>
  </g>
  <g id="LOIRI_PORTO_SAN_PAOLO" style="stroke-width:0.5;stroke-miterlimit:4;stroke-dasharray:none;stroke:#000000;stroke-opacity:1;stroke-linejoin:round;fill:#f8c300;fill-opacity:1" transform="matrix(32,0,0,32,-8654.6528,-962.5705)">
    <path d="m 386.5376,140.9164 0.1124,0.1175 0.5739,0.6248 0.6634,0.7636 0.4716,0.6282 0.5753,0.7008 0.41,0.4526 0.0992,0.1095 0.0478,-0.1088 0.1808,-0.3399 0.0953,-0.1728 0.0514,-0.066 0.0867,-0.0345 1.0429,-0.3192 0.1987,-0.0611 0.2241,-0.0357 1.7088,-0.0714 0.0224,-9e-4 0.3865,-0.0144 0.5346,-0.0198 4.5019,-0.0104 0.3268,0.0265 1.0864,1.4173 0.0986,-0.1929 1.003,-1.9396 0.0574,-0.06 0.1858,-0.1683 0.007,-0.005 0.6145,-0.4541 3.6945,-2.4313 0.507,-0.2926 0.0252,-0.0141 0.4266,-0.2399 1.9665,-1.0458 0.0143,-0.004 0.1412,-0.0397 1.0181,-0.8401 0.0745,-0.2391 0.0502,-0.1496 0.14,-0.3244 0.5419,-1.2565 0.5512,-1.1707 0.0618,-0.1223 0.8068,-1.4299 0.3642,-0.5915 0.0614,-0.098 0.1376,-0.22 0.1592,-0.2501 0.0883,-0.1504 0.0929,-0.158 0.2657,-0.5533 0.1276,-0.4978 0.0173,-0.181 -0.9774,-0.1345 -0.0673,-0.0203 -0.0323,-0.0201 -0.0754,-0.0558 -0.1802,-0.1611 -0.1147,-0.108 -0.1067,-0.1099 -0.1176,-0.1295 -0.0973,-0.1332 -0.0291,-0.045 -0.0814,-0.1724 -0.015,-0.0605 3e-4,-0.0439 0.2516,-1.6186 0.2973,-0.8481 0.1593,-0.4919 -0.9762,-0.9446 -0.3839,-0.2836 -0.0785,-0.0253 -0.025,0.002 -0.0328,0.0169 -0.3008,0.1605 -0.0251,0.0227 -0.0265,0.0702 -0.004,0.0362 0.005,0.0409 0.006,0.0162 0.091,0.1075 0.3526,0.1862 -0.0255,0.1672 -0.6344,0.6071 -0.5843,-0.0588 -0.7618,-1.1511 -0.5471,-1.0306 -0.129,0.0738 -0.5879,0.336 -0.0138,0.006 -0.6811,0.289 -0.6644,0.2819 -2.4754,1.0291 -1.9282,0.7155 -2.9226,0.6489 -0.059,0.004 -0.1101,0.001 -0.1966,-0.0129 -0.2239,-0.0327 -0.1572,-0.0185 -0.5349,4e-4 -0.3325,0.0252 -0.1457,0.0263 -0.4216,0.1279 -0.0847,0.0267 -0.8598,0.3745 -0.1006,0.0539 -0.0849,0.0579 -0.1325,0.1141 -0.2393,0.2108 -0.2254,0.1935 -0.2982,0.2066 -0.1183,0.0635 -0.2701,0.1094 -1.2947,0.4674 -0.2168,0.0785 -3.9625,0.4771 -0.549,0.0669 -1.4654,0.1299 -0.7386,0.0546 -0.0815,0.006 -0.6295,0.0462 -2.897,0.2062 -1.357,0.0843 -0.9621,0.0614 -0.0802,0.005 -1.1978,0.095 -1.0601,0.094 -1.3335,0.116 -0.9736,0.0926 -0.5941,0.0828 -0.4053,0.0662 -2.6924,0.2288 -1.5867,0.0667 2.5945,1.2862 0.8487,0.4969 0.7405,0.514 0.1407,0.1683 0.1151,0.1739 0.1189,0.1915 0.1383,0.2579 0.4423,0.3811 0.6536,0.5574 0.0706,0.0277 0.5033,-0.0384 0.7334,-0.0548 0.1395,-0.009 0.1199,-0.003 1.2187,-0.0269 0.3103,0.0347 0.6018,0.095 0.006,9e-4 0.2089,0.033 1.4707,0.2318 0.0824,0.0355 1.245,0.8932 0.131,0.1176 0.7441,0.8223 0.9384,1.2072 0.5924,0.8547 0.9746,1.3536 0.5602,0.6383 0.0672,0.0705 z" id="path478" style="stroke-width:0.125;stroke-miterlimit:4;stroke-dasharray:none"/>
  </g>
  <g id="LUOGOSANTO" style="stroke-width:0.5;stroke-miterlimit:4;stroke-dasharray:none;stroke:#000000;stroke-opacity:1;stroke-linejoin:round;fill:#f8c300;fill-opacity:1" transform="matrix(32,0,0,32,-8654.6528,-962.5705)">
    <path d="m 321.0199,92.3087 0.2089,0.0139 1.1534,0.3953 0.2863,0.4891 0.1823,0.7133 0.0429,0.3234 0.0427,0.4949 0.0427,0.4306 0.0491,0.1462 0.061,0.0429 0.3902,0.0629 0.1812,0.008 0.0612,-0.0291 0.4654,-0.2584 0.5226,-0.2019 0.3804,-0.0657 1.2556,-0.1247 0.0788,0.0274 0.3506,0.1409 0.0998,0.3761 0.2524,1.0934 0.5666,0.5581 0.592,0.556 0.1103,0.1036 0.2991,0.2149 0.3302,0.209 0.5493,-0.5932 0.9023,-0.9588 0.4522,-0.4726 0.2646,-0.2683 0.0512,-0.0311 0.7833,-0.4271 0.4951,-0.2659 0.2119,-0.0934 0.3641,-0.1606 4.8056,-1.9824 0.4874,-0.1995 0.1005,-0.0212 2.842,0.1162 4.8729,0.5317 0.0669,0.0119 0.3585,0.0848 2.3535,0.5683 0.4273,0.1046 0.372,-1.6548 0.1452,-0.395 0.0952,-0.1731 1.2241,-1.7708 0.3657,-2.0249 0.2452,-2.5201 -0.0179,-1.1397 -0.0667,-0.0859 -1.0226,-1.4957 -0.0627,-0.1171 -0.2635,-0.8463 -0.0155,-0.0741 0.263,-1.396 0.5185,-2.2484 0.0459,-0.1459 0.2879,-0.5251 0.0555,-0.0719 0.0713,-0.0816 0.4039,-0.4077 0.2119,-0.2136 0.6318,-0.1128 -0.2845,-0.451 -0.1122,-0.0939 -0.9506,-0.7396 -1.1522,-0.705 -2.0926,-1.0508 -0.1183,-0.0394 -0.1835,-0.0103 -0.079,0.0056 -0.2214,0.1143 -0.1108,0.0795 -0.2118,0.2039 -0.0574,0.0642 -0.0219,0.0642 -0.0202,0.1343 -1.0733,0.5501 -2.2718,-0.6123 -2.2218,-2.3925 -1.4649,0.0917 -0.1915,-0.0083 -0.0692,-0.0064 -0.2998,-0.0277 -0.4657,-0.081 -0.2268,-0.0629 -0.1972,-0.0803 -0.2129,-0.1135 -0.0572,-0.0411 -0.0689,-0.0606 -0.3782,-0.3418 -0.0433,-0.0449 -0.0117,-0.0604 0.0202,-0.1948 0.0673,-0.0563 -0.0153,-0.2202 -0.2813,-0.4078 -0.2716,-0.3318 -0.193,-0.205 -0.4418,-0.1959 -0.2059,-0.0793 -0.2694,-0.1361 -0.0573,0.0058 -1.4084,0.3085 -0.162,0.0464 -0.002,0.0171 -0.0196,0.1387 -0.2995,3.3268 0.1739,1.6566 -0.1371,0.5214 -1.9479,-0.041 -0.2664,-0.0258 -1.3453,-0.2968 -0.4358,-0.1839 -0.071,-0.043 -0.0493,-0.0235 -0.0553,-10e-5 -0.3039,0.017 -0.1066,0.0212 -1.3962,0.4748 -0.214,0.4516 -0.0436,0.1305 -0.1012,0.3056 -0.9771,3.6921 1.1369,1.9364 0.0671,0.0157 0.3076,0.0746 0.0729,0.0274 0.268,0.1232 0.1006,0.0469 0.2818,0.1408 0.2029,0.1484 0.1342,0.1269 0.0351,0.0332 0.2717,0.2751 0.007,0.0604 -1.9107,3.1741 -3.4516,4.2902 -0.2823,0.2704 -0.3374,0.1885 -0.6647,0.2952 -0.3689,0.1534 -0.3273,0.0541 -0.3391,0.0443 -1.1878,0.8654 -0.2116,0.5355 z" id="path490" style="stroke-width:0.125;stroke-miterlimit:4;stroke-dasharray:none"/>
  </g>
  <g id="LURAS" style="stroke-width:0.5;stroke-miterlimit:4;stroke-dasharray:none;stroke:#000000;stroke-opacity:1;stroke-linejoin:round;fill:#f8c300;fill-opacity:1" transform="matrix(32,0,0,32,-8654.6528,-962.5705)">
    <path d="m 347.3563,99.5191 0.4838,-0.6892 1.6774,-1.4403 0.0474,-0.0291 0.3792,-0.2657 0.1284,-0.1126 0.3439,-0.3203 -0.1302,-1.7323 -0.807,-0.9358 -0.065,-0.0216 -0.4273,-0.1046 -2.3535,-0.5683 -0.3585,-0.0848 -0.0669,-0.0119 -4.8729,-0.5317 -2.842,-0.1162 -0.1005,0.0212 -0.4874,0.1995 -4.8056,1.9824 -0.3641,0.1606 -0.2119,0.0934 -0.4951,0.2659 -0.7833,0.4271 -0.0512,0.0311 -0.2646,0.2683 -0.4522,0.4726 -0.9023,0.9588 -0.5493,0.5932 -0.3302,-0.209 -0.2991,-0.2149 -0.1103,-0.1036 -0.592,-0.556 -0.5666,-0.5581 -1.4959,1.4431 -0.0434,0.035 -0.0848,0.0369 -0.7272,0.1256 -0.2406,0.1399 -0.0493,0.0467 -0.7605,2.7049 -0.2495,0.888 -0.4123,1.9048 -0.1638,0.8386 -0.1239,0.7273 -0.008,0.15 -0.002,0.1033 0.008,0.1032 0.0255,0.0683 0.0551,0.0663 0.2655,0.1932 1.2591,0.8512 0.9347,1.6534 0.0432,0.1092 0.0313,0.0974 0.0882,0.2924 0.2369,2.0927 -0.1198,1.0811 0.01,0.0721 0.0432,0.0682 0.0764,0.0525 0.0712,-0.007 0.7284,-0.0729 0.5945,-0.0556 0.0532,0.01 2.3013,0.9176 0.0531,0.0352 0.371,0.4974 0.0629,0.0859 0.045,0.0994 0.01,0.0896 -0.0514,0.1266 -0.0317,0.1246 -0.0697,0.446 0.004,0.0702 0.0116,0.0818 0.0667,0.119 0.2639,0.3774 0.6873,-0.7127 1.0055,0.0721 0.1654,-0.0192 1.186,-0.6027 0.505,-0.5569 1.259,-1.4644 1.9355,-1.0652 0.7211,-0.2613 0.0552,-0.0466 0.3599,-0.6382 0.0317,-0.1149 0.0264,-0.3311 -0.002,-0.0969 -0.0104,-0.5421 -6e-4,-0.5728 0.7131,-0.9256 0.1697,-0.1535 0.2844,-0.3383 0.2688,-0.3753 0.9814,-1.8152 0.5562,-1.0681 0.004,-0.0682 -0.1071,-0.4562 -0.0626,-0.1462 -0.0491,-0.0586 -0.0491,-0.0449 -0.0531,-0.0508 -0.0372,-0.0761 2e-4,-0.0604 0.0416,-0.0954 0.0986,-0.0757 0.2111,-0.1241 1.9686,-1.0059 1.2311,0.0404 0.0944,0.0217 0.2287,-0.0597 0.6667,-0.2826 0.4775,-0.283 0.8535,-0.5401 0.5049,-0.4748 0.2285,-0.2886 z" id="path493" style="stroke-width:0.125;stroke-miterlimit:4;stroke-dasharray:none"/>
  </g>
  <g id="MONTI" style="stroke-width:0.5;stroke-miterlimit:4;stroke-dasharray:none;stroke:#000000;stroke-opacity:1;stroke-linejoin:round;fill:#f8c300;fill-opacity:1" transform="matrix(32,0,0,32,-8654.6528,-962.5705)">
    <path d="m 369.5527,153.6141 0.6497,-1.3095 0.1036,-0.2087 0.2395,-0.4977 0.0299,-0.1011 0.6859,-3.9284 0.7953,-2.8972 0.9853,-3.9328 -0.0724,-1.6797 -0.1014,-0.9648 -0.004,-0.052 -0.012,-0.1515 -5e-4,-0.006 -0.013,-0.1632 0.0221,-0.1012 0.0317,-0.0505 0.4632,-0.6953 0.584,-0.8777 0.4314,-1.0052 0.3523,-1.2977 -0.1383,-0.2579 -0.1189,-0.1915 -0.1151,-0.1739 -0.1407,-0.1683 -0.7405,-0.514 -0.8487,-0.4969 -2.5945,-1.2862 -0.095,-0.0482 -1.2715,-0.3593 -3.2002,-0.9686 -2.0421,-0.6222 -0.2853,0.5229 0.0351,0.0664 -0.0201,0.1148 -1.2614,1.2535 -0.0611,0.0348 -0.3011,0.0845 -0.3166,0.0319 -2.4381,0.1269 -1.0899,-0.3216 -0.7892,-0.2679 -1.1649,-0.2458 -1.23,-0.1992 -1.3439,1.4799 0.435,0.4009 1.0059,1.2406 0.113,0.8265 0.0606,1.1886 -0.506,1.3893 -1.2747,0.956 -0.0614,0.1343 -0.0438,0.1654 -0.1029,0.7868 0.009,0.1929 0.0664,0.1307 0.0723,0.0996 0.0586,0.0996 0.043,0.0761 0.0154,0.0916 0.004,0.0702 -0.0199,0.0681 -0.069,0.0796 -0.1203,0.1302 -0.0474,0.0505 -2.0866,1.8322 -0.0551,0.0446 0.8631,2.1167 0.7891,4.7583 0.3633,1.1292 0.8235,2.5765 -0.002,0.4812 -0.0239,0.107 -0.785,2.232 0.7857,0.3904 3.3674,0.6003 3.2486,-0.2099 0.983,-0.4403 2.3591,-0.9861 3.1989,-0.4034 2.4918,-0.2481 0.0766,0.004 0.1393,0.0143 0.0999,0.0394 0.0626,0.049 0.0644,0.0607 z" id="path550" style="stroke-width:0.125;stroke-miterlimit:4;stroke-dasharray:none"/>
  </g>
  <g id="OLBIA" style="stroke-width:1;stroke-miterlimit:4;stroke-dasharray:none;stroke:#000000;stroke-opacity:1;stroke-linejoin:round;fill:#da271d;fill-opacity:1" transform="matrix(4,0,0,4,-254.6528,7437.4295)">
    <path d="m 906.552,-1022.9376 -5.2288,-4.4592 -3.5384,-3.0488 -2.8184,10.3816 -3.4512,8.0416 -4.672,7.0216 -3.7056,5.5624 -0.2536,0.404 -0.1768,0.8096 0.104,1.3056 0.004,0.048 0.096,1.212 0.032,0.416 0.8112,7.7184 0.5792,13.4376 -7.8824,31.4624 -6.3624,23.1776 -5.4872,31.4272 -0.2392,0.8088 -1.916,3.9816 -0.8288,1.6696 -5.1976,10.476 -1.5544,3.5152 -0.1128,0.5608 0.04,1.2936 0.1176,0.8144 0.732,2.1816 0.372,0.9992 9.4736,2.0696 5.5248,0.4304 4.3528,-0.852 4.632,-0.1808 2.9472,0.576 4.0184,9.7904 6.9904,-2.6544 2.9728,-5.8304 20.6232,-2.8208 5.3968,0.032 2.168,0.5488 3.7128,0.9384 27.6432,-30.0528 3.5072,-13.1352 -0.904,-14.1336 8.7464,-13.516 4.1288,-6.3792 10.384,-12.6136 0.1832,-0.4264 9.7816,-22.7328 -0.5376,-0.564 -4.4816,-5.1064 -7.7968,-10.8288 -4.7392,-6.8376 -7.5072,-9.6576 -5.9528,-6.5784 -1.048,-0.9408 -9.96,-7.1456 -0.6592,-0.284 -11.7656,-1.8544 -1.6712,-0.264 -0.048,-0.01 -4.8144,-0.76 -2.4824,-0.2776 -9.7496,0.2152 -0.9592,0.024 -1.116,0.072 -5.8672,0.4384 -4.0264,0.3072 -0.5648,-0.2216 z" id="path624" style="stroke-width:1;stroke-miterlimit:4;stroke-dasharray:none"/>
    <path d="m 948.6976,-1404.752 -11.4928,-4.1752 -8.2368,-2.676 -12.6632,-3.9304 -1.1192,-0.1296 -5.048,-0.1344 -13.616,0.1664 -8.788,0.16 -0.584,0.044 -3.4336,2.0872 -17.2792,11.0312 -5.2856,3.5296 -1.4392,0.8968 -3.5416,1.6672 -0.8304,0.3832 -1.7144,0.7904 -11.916,5.1368 -21.1592,9.1032 -5.104,2.1768 -7.9464,3.3176 -1.768,0.32 -4.5752,0.48 -7.4472,0.812 -3.2816,11.9248 -3.1416,12.596 4.548,9.868 3.9816,5.6888 0.376,0.516 1.244,0.3944 40.3072,11.2816 12.1544,3.3896 4.5176,1.2672 4.0616,1 11.1488,12.5192 -5.044,6.788 -0.6664,0.8224 -25.7096,29.4352 -11.7352,10.2824 -5.7912,16.8072 0.9512,9.496 0.1224,0.8576 0.2496,0.5 0.7488,1.5928 0.8288,1.3592 0.5168,0.7192 0.612,0.4544 2.7336,1.5704 1.572,0.8016 1.524,0.7704 2.5248,0.9352 0.3688,0.1368 2.0752,0.8352 1.6344,0.724 6.4752,2.896 0.5336,0.5632 1.0976,32.3296 0.148,5.0064 9.1208,16.512 0.6128,0.252 18.2584,30.0552 0.1544,0.5152 0.9216,4.7736 2.5072,15.4104 5.796,37.7136 -8.7952,6.3336 -14.5208,10.46 0.76,0.3856 12.6936,-0.5336 21.5392,-1.8304 3.2424,-0.5296 4.7528,-0.6624 7.7888,-0.7408 10.668,-0.928 8.4808,-0.752 9.5824,-0.76 0.6416,-0.04 7.6968,-0.4912 10.856,-0.6744 23.176,-1.6496 5.036,-0.3696 0.652,-0.048 5.9088,-0.4368 11.7232,-1.0392 4.392,-0.5352 31.7,-3.8168 1.7344,-0.628 10.3576,-3.7392 2.1608,-0.8752 0.9464,-0.508 2.3856,-1.6528 1.8032,-1.548 1.9144,-1.6864 1.06,-0.9128 0.6792,-0.4632 0.8048,-0.4312 6.8784,-2.996 0.6776,-0.2136 3.3728,-1.0232 1.1656,-0.2104 2.66,-0.2016 4.2792,0 1.2576,0.148 1.7912,0.2616 1.5728,0.1032 0.8808,-0.01 0.472,-0.032 23.3808,-5.1912 15.4256,-5.724 19.8032,-8.2328 5.3152,-2.2552 5.4488,-2.312 0.1104,-0.048 4.7032,-2.688 1.032,-0.5904 -20.188,-8.3992 -1.424,0.01 -0.208,-0.032 -0.1552,-0.085 -0.1624,-0.091 -0.1744,-0.1208 -1.0096,-1.612 -0.1144,-0.3936 -0.2568,-2.0304 -0.176,-1.8448 0.1016,-0.9608 0.064,-0.5104 0.2976,-0.9416 0.3088,-0.6992 5.8032,-2.4032 0.444,-0.016 4.6192,-0.1024 1.0208,0.048 0.2256,-0.016 0.1672,-0.064 3.5912,-4.0976 23.6888,-32.8936 0.032,-0.2144 -0.6048,-2.1984 -0.4488,-1.4488 -0.1872,-0.2424 -1.688,-0.1792 -11.7232,1.3736 -1.7064,0.4632 -0.9808,1.1184 -2.52,1.012 -13.7376,-3.9832 -8.3248,0.5584 -3.3232,1.6944 -2.7376,1.9208 -0.7912,0.6544 -0.1392,0.1272 -0.932,0.884 -0.3056,0.4904 -0.1048,0.1704 -0.1952,0.6328 -0.9656,3.3376 -1.9096,7.2832 -0.1632,-0.2152 -1.8512,0.2104 -0.3208,0.056 -10.4944,6.1552 -3.1688,5.6736 0.1024,0.2704 0.048,0.42 -0.01,0.3168 -0.2112,0.6328 -0.4376,0.7672 -0.6648,1.096 -0.2528,0.2816 -0.5736,0.4408 -0.4168,0.3056 -1.7792,1.0376 -1.4624,0.2896 -1.556,-0.01 -1.8904,-0.4064 -6.1024,-2.6952 -5.4,-2.9992 -0.964,-0.6568 -0.9448,-0.9136 -1.116,-1.1592 -1.116,-1.1936 -0.8664,-1.1016 -2.7328,-3.7264 -7.4824,-10.2584 -0.2912,-0.4896 -0.6952,-4.0992 -2.3768,-3.9416 -22.5536,-0.5712 -26.3752,7.0272 -9.4208,0.1488 -1.7096,2.5792 -0.7192,0.3864 -3.2232,1.248 -11.2832,2.5608 -0.8656,-0.016 -0.7608,-0.1576 -0.232,-0.1488 -0.404,-0.3864 -1.3224,-1.4432 -0.08,-0.212 0.007,-0.1792 0.384,-0.4072 0.2208,-0.216 1.0112,-0.672 -0.4192,-4.5832 -0.9792,-2.5704 -1.0224,-0.812 -0.5432,0.072 -1.668,0.3008 -0.0928,-1.728 0.048,-1.6144 1.1416,-13.156 28.368,-10.4384 0.1168,-0.032 5.0336,-0.3304 8.8984,-0.1664 0.024,1.2256 0.2424,0.888 2.42,5.4112 0.62,1.0856 2.9608,5.0904 0.04,0.032 30.8312,3.2008 0.6688,0.056 4.5808,-1.2648 5.7168,-2.476 5.54,-3.1688 0.2136,-0.3808 0.3776,-0.9496 0.1576,-0.788 -0.1288,-7.9176 -0.056,-0.2816 -1.068,-1.388 -0.2024,-0.2392 -0.2912,-0.056 -7.6096,-1.1736 -0.1584,-0.1424 -0.3376,-0.752 -0.2568,-0.7584 -0.16,-1.1296 -0.1832,-2.0808 -0.1392,-2.0744 -0.032,-1.02 0.1088,-1.0736 0.6616,-2.0616 0.2456,-0.7376 0.2584,-0.6112 11.9352,-18.4056 0.3896,-0.4912 0.96,-0.9744 1.7192,-1.5688 -8.788,-6.976 -25.9128,-20.1432 -0.4016,-0.098 -0.488,-0.1192 -0.5,0.208 -2.4688,1.572 -0.2176,0.5976 -3.5944,5.4104 -0.7552,-0.2232 -17.1088,-5.0448 -3.5848,-0.9896 -0.6304,-0.1736 -0.5552,0.604 -1.1272,1.3648 -1.7608,1.9376 -8.4824,1.0408 -22.1024,2.568 -1.0088,0.072 -18.1896,-1.116 -0.006,-1.8232 0.2272,-1.1368 0.4768,-2.1776 0.048,-0.212 0.04,-0.1944 0.3824,-0.668 0.04,-0.056 0.1336,-0.18 0.3152,-0.428 0.952,-1.1952 8.5656,-9.9728 0.7456,-0.8216 1.1056,-0.5552 1.1056,-0.4144 3.7904,-1.412 3.1104,-1.0736 1.3248,-0.2576 2.396,-0.1264 2.5856,-0.172 0.6312,-0.2144 6.7488,-3.3424 2.9872,-1.5256 2.2312,-1.4984 0.5216,-0.3872 4.9616,-4.708 0.1992,-4.3008 -0.4328,-4.0232 10.9944,-16.5328 3.1032,0 0.7864,0.3168 0.5472,0.6736 0.1712,0.3752 0.5616,0.9848 0.2816,0.3288 0.7704,0.332 0.8008,0.2464 0.9608,0.2944 9.1328,1.4904 1.7008,0.1816 0.5664,-0.01 1.2648,-0.2888 2.0992,-0.6776 1.636,-1.0424 0.2464,-0.1824 0.9896,-0.7312 3.576,-2.7896 1.488,-1.2568 1.5224,-2.7536 -1.6448,-0.208 -1.132,-0.4352 -1.144,-0.7424 -1.5976,-1.2432 -2.0264,-1.7072 -0.8336,-0.8352 -0.4272,-0.572 -0.048,-0.3792 0.1496,-0.9952 0.3688,-1.4432 0.1224,-0.3784 6.9248,-18.2472 5.1496,-6.8424 3.1696,-3.7384 0.3584,-16.3464 -1.7856,-4.0792 -0.4872,-0.8016 -0.2928,-0.3712 -2.288,0.4328 -3.22,1.5376 -1.4688,1.7144 -11.7008,6.6064 -19.3912,4.9168 -5.8304,4.04 -1.2072,7.7056 -4.9104,-0.2688 -0.4424,0.091 -0.3584,0.8512 -0.1016,0.2952 -0.1368,0.364 -0.083,0.2008 -0.084,0.3984 0.9056,1.2224 0.2672,0.022 2.9528,-0.1312 2.172,-0.5088 0.2376,0.017 0.3928,0.034 0.456,0.1432 1.1472,0.6936 0.776,0.8384 0.3248,0.592 0.098,0.7728 -0.34,1.8072 -0.4176,0.9944 -0.1872,0.4048 -0.1456,0.284 -5.4384,9.952 -1.6672,1.5272 -13.7976,4.0728 -0.6936,-0.1592 -8.7888,-2.144 -0.3336,-0.3784 -0.5272,-1.72 -0.1064,-0.8864 2.6168,-7.0736 0.4536,-0.9056 0.4048,-0.3968 3.1,-1.5544 4.6024,-1.7344 7.628,-17.0128 9.0704,-25.9768 -0.032,-0.2088 -1.3376,-3.6248 -1.5144,-1.6568 -0.1936,-0.6064 -1.4912,-5.1336 -0.024,-0.6464 -0.094,-4.6616 0.098,-1.1248 0.3592,-0.8344 0.3408,-0.3776 3.0384,-2.348 -33.8664,-0.5712 -7.9976,-0.1232 -0.448,0 -0.924,0 -18.1904,3.0792 -6.0952,1.0576 -4.7656,0.908 -1.44,0.2744 -0.5992,-0.1744 z" id="path626" style="stroke-width:1;stroke-miterlimit:4;stroke-dasharray:none"/>
    <path d="m 2124.3145,599.37711 1.8095,-2.68718 0.4935,-0.484 2.0092,-5.61829 -0.5405,0.11616 -1.5001,0.91767 -4.6882,3.65131 -1.5079,1.23517 -0.5444,0.5808 -2.0053,2.58651 -12.1141,13.09902 -14.1665,8.43324 -22.6185,15.8133 -24.6474,15.89462 -0.654,3.88363 0.039,0.84023 0.235,0.0774 17.1588,-4.49154 7.3632,5.84674 1.273,0.66986 3.7168,-1.94375 1.5706,-0.92929 0.8264,-0.65049 1.6176,-1.34359 6.0864,-5.10332 2.0367,-2.52842 0.4582,-0.53047 8.6714,-8.75462 0.7834,-0.56918 11.2524,-7.4304 4.4258,-2.6833 8.3894,-4.06562 1.0732,-0.30976 1.9152,-0.45302 4.9898,-1.13838 1.4805,0.11617 0.2742,0.23232 3.4858,-1.33585 1.4687,-0.93315 0.5836,-0.71245 0.1958,-0.23233 0.7089,-1.1616 -1.9035,-6.86121 -1.9779,-6.12165 -0.8146,-1.01834 -1.8957,-0.8712 -0.4778,0.11616 -0.7637,0.3872 -1.4844,0.80538 -2.0719,-4.32891 z" id="path58" style="stroke-width:1;stroke-miterlimit:4;stroke-dasharray:none" transform="translate(-823.2664,-1781)"/>
    <path d="m 2118.3416,678.42039 -4.2064,0.65437 -8.8634,0.84797 -5.1464,-0.1936 -0.1958,0.15488 -1.9349,1.92826 -0.2741,0.34849 -3.6973,6.43528 -0.5993,1.06481 -0.235,0.53821 -0.6423,1.48685 0,0.23232 0.1958,0.54208 0.9753,2.2961 0.3133,0.38721 2.1581,1.91277 0.3916,0.34848 24.0286,11.56183 1.1475,0.53047 0.7951,0.0774 4.8135,-0.58855 0.1175,-0.0774 0.3134,-0.30976 3.0393,-3.36865 1.269,-2.03668 1.218,-2.14897 0.235,-0.71632 1.3395,-10.7913 -4.7979,-6.40818 -0.9008,-1.17322 -1.9622,-1.9515 -0.1958,-0.0774 -0.3917,0.11616 -0.6815,0.66986 -0.235,0.43367 -0.6815,0.34848 -0.9948,0.23232 -2.867,0.004 -1.0575,-0.39107 -1.4021,-0.56919 -0.3134,-0.15488 -0.235,-0.23232 -0.1175,-0.23232 0.235,-1.67271 z" id="path20" style="stroke-width:1;stroke-miterlimit:4;stroke-dasharray:none" transform="translate(-823.2664,-1781)"/>
  </g>
  <g id="OSCHIRI" style="fill:#f8c300;fill-opacity:1;stroke:#000000;stroke-width:0.125;stroke-linejoin:round;stroke-miterlimit:4;stroke-opacity:1;stroke-dasharray:none" transform="matrix(32,0,0,32,-8654.6528,-962.5705)">
    <path d="m 312.2986,168.866 0.0785,-0.0195 0.4961,-0.0776 0.1039,0.0371 1.4777,0.7687 0.0725,0.0448 0.2135,0.2788 0.0372,0.0507 -0.004,0.0779 -0.0532,0.3331 -0.0177,0.1052 -0.0412,0.0779 -0.0197,0.0565 0.0271,0.4657 0.0351,0.1851 0.1192,0.4813 0.0646,0.1306 0.2998,0.1639 0.6172,0.285 3.329,1.2501 3.0877,0.9778 0.1567,0.0353 0.1137,0.0255 0.3174,0.0569 0.3938,0.0551 0.102,-0.0291 2.0579,-1.3433 -0.01,-0.0546 -0.1062,-1.0269 0.0629,-0.1558 0.0413,-0.0389 0.8585,0.0228 0.9271,0.0326 2.8095,-0.2562 2.3474,-0.5196 0.2397,-0.2626 2.5265,-2.4768 0.1394,-0.1069 0.4262,-0.3146 1.0857,-0.7828 2.9552,-1.4911 0.1649,-0.062 0.783,-0.1909 0.8818,-1.2602 -0.8705,0.666 -0.1837,-0.2654 -1.6612,-3.9533 -0.1364,-0.3549 -1.8052,-2.387 -0.1822,-0.1368 -0.0548,-0.0624 -1.1585,-1.3898 -0.0508,-0.0624 -0.0489,-0.0761 -0.1582,-0.3686 -0.0292,-0.0722 0.2545,-0.6053 0.6234,-1.4754 0.6159,-1.4949 0.002,-0.0665 -0.041,-0.0699 -0.1294,-0.0763 -0.5175,-0.2895 -0.2494,-0.1304 -0.0388,-0.0203 -0.1883,-0.0725 -0.1687,-0.0432 -0.2237,-0.0297 -0.3063,0.011 -0.1708,0.0211 -0.1493,0.0211 -0.1315,-0.006 -0.251,-0.0901 -1.4611,-0.6518 -1.7514,-0.8879 -0.194,-0.1582 -0.4411,-0.332 -0.1275,-0.0743 -0.204,-0.086 -0.16,-0.0507 -0.0382,-0.0121 -0.2238,-0.0432 -0.1943,-0.0159 -0.167,0.0484 -0.0383,0.0191 -0.113,0.0566 -0.112,0.0777 -0.0596,0.048 -0.0466,0.0375 -0.0826,0.1051 -0.0134,0.0232 -0.0437,0.0761 -0.0692,0.2648 0.006,0.1949 -0.0342,0.5025 -0.0615,0.337 -0.0787,0.1382 -0.0944,0.0894 -0.1121,0.0817 -0.1964,0.0698 -0.2316,0.021 -0.0735,0.007 -0.0974,0.009 -0.1766,-0.0392 -0.1647,-0.0841 -0.196,-0.1757 -0.1822,-0.2691 -0.1133,-0.2924 -0.0743,-0.2008 -0.1117,-0.1307 -0.1098,-0.0996 -0.1667,-0.0801 -0.1177,-0.0411 -0.1375,-0.01 -0.1964,0.066 -1.0728,0.6277 -0.008,0.006 -0.007,0.005 -0.05,0.0424 -0.0104,0.009 -0.9786,0.5472 -1.3427,-0.0408 -2.3729,-0.3068 -0.7569,-0.7587 -0.2332,-0.4211 -0.2428,-0.6042 -0.0135,-0.1988 0.1555,-0.4323 0.0414,-0.0857 0.0628,-0.0428 0.0904,-0.0369 0.0746,-0.0213 0.0963,-0.0564 0.1395,-0.109 0.1161,-0.1713 0.0669,-0.1402 0.0239,-0.2903 -0.0116,-0.1578 -0.76,-1.7172 -0.866,-1.9375 -0.0176,-2.0301 0.5647,-0.9129 2.5215,-4.075 -0.3711,-0.2498 -3.5761,-2.2541 -1.0907,0.641 -0.1925,0.1169 -0.6596,0.4006 -0.0177,0.0107 -2.6213,-0.3253 -0.3149,0.3515 -0.3007,0.3358 -0.234,0.2298 -4.2409,1.6077 -0.004,0.001 -3.2798,1.2445 -0.0845,1.2995 0.0314,0.1286 0.0648,0.0974 0.0553,0.0536 0.0312,0.0302 0.1119,0.0643 1.872,0.8672 0.3398,0.1384 0.9284,1.4712 -0.5365,2.3046 -0.5054,3.2457 0.01,0.1305 0.1509,1.1339 0.0235,0.115 0.0491,0.1188 0.0667,0.1208 0.1354,0.1715 0.2454,0.1247 0.2689,0.1404 0.0785,0.0721 0.1962,0.3819 0.0432,0.0877 0.5471,1.6075 0.008,0.4033 -0.8077,3.0137 -0.0275,0.0896 -0.4654,1.2604 -0.051,0.0877 -0.1237,0.148 -0.3631,0.3798 -0.2983,0.302 0.0819,2.5327 0.1018,1.0521 0.0294,0.1344 0.0216,0.1345 0.0587,0.5046 -0.006,0.074 -0.6651,1.1026 -0.0412,0.0643 -0.0452,0.0468 -0.0608,0.0448 -0.1628,0.0486 -0.1118,-0.004 -0.1255,-0.039 -0.2608,-0.1208 -0.1726,-0.0935 -0.1039,-0.0604 -0.0471,-0.039 -0.022,-0.0332 -0.027,-0.0408 -0.3452,0.0545 -0.202,0.0623 -0.2472,0.0974 -0.0569,0.0273 -0.049,0.0448 -0.0373,0.0643 -0.002,0.0565 0.3118,1.1086 0.0255,0.0779 0.198,0.4287 0.7215,1.1592 0.3294,0.304 0.0941,0.0682 0.0648,0.0312 2.5389,1.0585 2.3251,0.601 1.0019,0.1057 1.0588,-0.237 z" id="path680" style="stroke-width:0.125;stroke-miterlimit:4;stroke-dasharray:none"/>
  </g>
  <g id="PADRU" style="fill:#f8c300;fill-opacity:1;stroke:#000000;stroke-width:0.125;stroke-linejoin:round;stroke-miterlimit:4;stroke-opacity:1;stroke-dasharray:none" transform="matrix(32,0,0,32,-8654.6528,-962.5705)">
    <path d="m 373.3708,156.2639 0.0573,0.3724 0.1858,2.9545 0.0619,0.988 0.0434,0.7523 -0.0358,0.9174 -0.0214,1.1533 -0.0301,2.1566 -0.0122,0.9 -0.0119,0.8377 0.0292,0.0489 0.5012,0.1505 1.0867,0.3072 1.535,0.4577 0.2075,0.0653 0.9996,0.4532 0.2386,0.1162 0.645,0.3793 0.0722,0.0627 0.5083,0.7859 0.2608,0.5897 0.2011,0.531 -0.3798,0.2747 -0.0277,0.0505 0.0327,0.1092 0.0913,0.1603 0.1594,0.2619 0.1344,0.1624 0.3985,0.3694 0.6848,0.4916 1.635,1.0121 1.2846,0.7912 0.1104,0.0571 0.2387,10e-4 0.151,-0.008 0.0706,-0.0132 0.0687,-0.0269 0.0819,-0.0863 0.1518,-0.3372 0.0161,-0.0778 0.006,-0.0876 -0.006,-0.0663 -0.009,-0.0566 -0.0305,-0.0937 -0.027,-0.1326 -0.002,-0.0623 0.0302,-0.0914 0.0431,-0.0524 0.0364,-0.0436 2.3881,-0.6305 0.0804,-0.005 0.1056,0.0376 0.0429,0.0392 0.1303,0.1741 0.4953,0.7647 2.0908,-2.0948 0.1772,-0.1734 0.1315,-0.0927 3.4345,-1.9947 0.6424,-0.4411 1.8816,-1.7416 0.1325,-0.1629 0.0336,-0.0426 0.2803,-0.5983 0.5234,-1.1753 0.2336,-0.5596 0.1035,-0.2059 0.4316,-0.8593 0.7143,-0.9383 0.609,-0.8007 0.3674,-0.4817 -0.1114,-0.6475 -0.1248,-0.7313 -0.0763,-0.447 -0.0935,-0.5479 -0.4769,-3.2333 0.0794,-0.4339 0.0617,-0.4224 0.052,-0.4439 0.1539,-1.3023 0.0481,-0.4361 0.0335,-0.3213 0.1348,-1.4077 0.1895,-2.2782 0.057,-0.6863 0.0311,-0.3739 0.0514,-0.6172 0.0505,-1.3761 0.0113,-1.5579 -1.0864,-1.4173 -0.3268,-0.0265 -4.5019,0.0104 -0.5346,0.0198 -0.3865,0.0144 -0.0224,9e-4 -1.7088,0.0714 -0.2241,0.0357 -0.1987,0.0611 -1.0429,0.3192 -0.0867,0.0345 -0.0514,0.066 -0.0953,0.1728 -0.1808,0.3399 -0.0478,0.1088 -0.0992,-0.1095 -0.41,-0.4526 -0.5753,-0.7008 -0.4716,-0.6282 -0.6634,-0.7636 -0.5739,-0.6248 -0.1124,-0.1175 -1.2227,2.8416 -0.0229,0.0533 -1.298,1.5767 -0.5161,0.7974 -1.0933,1.6895 0.113,1.7667 -0.4384,1.6419 -3.4554,3.7566 -0.4641,-0.1173 -0.271,-0.0686 -0.6746,-0.004 -2.5779,0.3526 -0.3716,0.7288 -0.8738,0.3318 z" id="path716" style="stroke-width:0.125;stroke-miterlimit:4;stroke-dasharray:none"/>
  </g>
  <g id="PALAU" style="fill:#f8c300;fill-opacity:1;stroke:#000000;stroke-width:0.125;stroke-linejoin:round;stroke-miterlimit:4;stroke-opacity:1;stroke-dasharray:none" transform="matrix(32,0,0,32,-8654.6528,-962.5705)">
    <path d="m 369.7529,60.2932 0.1487,-0.1162 -0.0452,-0.0528 -0.0272,-0.0293 -0.0239,-0.0255 -0.5644,-0.55 -0.4606,-0.378 -0.4392,-0.2922 -1.9855,-1.2429 -0.358,-0.0298 -0.1068,0.0191 -0.2576,0.1722 -0.1012,0.099 -0.1026,0.3989 -0.004,0.0915 -3e-4,0.0624 -0.028,0.0914 -0.2298,0.0964 -0.0909,0.0133 -0.1225,0.0131 -0.2211,-0.0223 -0.083,-0.0121 -0.0532,-0.0294 -0.0315,-0.0274 -0.1597,-0.3134 -0.257,-0.6566 -0.1926,-0.5911 -0.1778,-0.5754 0.0285,-0.6661 0.0608,-1.2797 -0.1689,-0.7078 -0.1232,-0.3122 -0.0275,-0.0528 -0.0985,-0.0802 -2.1701,-0.0049 -0.3402,0.0571 -1.0488,0.3056 -0.0594,0.0173 -0.1939,0.0597 -0.2395,0.1004 -0.1091,0.0892 -1.3066,2.097 0.0451,0.0956 0.5278,0.4618 0.1715,0.1 0.4163,0.1769 0.0591,0.0031 0.0258,0.0011 0.0303,-0.0096 0.0291,-0.0096 0.0331,-0.0233 0.0382,-0.0271 0.0596,-0.068 0.0609,-0.1219 0.3541,-0.3986 0.0377,-0.0388 0.0555,-0.0446 0.0317,-0.0154 0.0514,0.0041 0.1577,0.0941 -0.012,0.035 -0.1513,0.2916 -0.0239,0.0428 -0.9235,1.1731 -0.0793,0.0698 -0.0891,0.0542 -0.2158,0.1083 -0.1564,0.0734 -0.1107,0.0376 -0.0377,0.0125 -0.1285,0.0132 -2.8064,-1.411 -1.0538,0.1521 0.9596,3.9854 -0.2665,1.1396 0.0163,0.2991 0.0463,0.308 0.0825,0.1172 0.0605,0.0715 0.0536,0.0633 0.1922,0.3591 0.1406,0.4447 0.0216,1.6482 -0.008,0.0818 -0.0348,0.3252 -0.3292,0.9086 -0.0338,0.0719 -0.4174,0.7525 0.8471,-0.0028 1.3589,0.4062 0.057,0.0567 0.0468,0.1658 0.2535,1.0704 0.0153,0.4287 0.005,0.1013 0.3554,1.0085 0.0827,0.0588 1.1705,0.0375 0.076,-0.0132 0.023,-0.0488 0.044,-0.1517 0.0182,-0.111 0.1373,-0.7865 0.6739,-1.1566 0.1526,-0.1513 1.9506,-1.3989 0.1247,-0.0579 0.0928,-0.0074 1.3094,-0.0531 0.2743,0.0304 0.8487,0.1009 -0.0279,0.0603 -0.0437,0.0485 -0.0377,0.0485 0.01,0.0741 0.236,0.2211 1.3424,-0.3878 0.8285,-0.2613 0.0495,-0.0232 0.8235,-0.4503 0.0614,-0.0445 0.0657,-0.1146 0.0399,-0.0836 0.0519,-0.1264 0.0651,-0.1762 0.1928,-0.5221 1.0523,-0.7725 0.7067,-0.3592 0.182,-0.0498 -0.003,-0.1578 0.0143,-0.1149 0.058,-0.1477 0.021,-0.0279 0.004,-0.0051 0.003,-0.0039 0.615,-0.566 0.9529,-0.58 0.0395,-0.0115 0.032,0.0177 0.1433,0.0805 0.0256,0.0235 0.0114,0.0994 0.0849,-0.0035 0.085,-0.0054 0.3126,-0.1057 0.0534,-0.0212 0.3035,-0.2615 0.0359,-0.068 0.2814,-1.3877 0.005,-0.187 -0.0359,-0.343 -0.034,-0.306 -0.5353,-0.4312 -0.0605,-0.0266 -0.0203,-0.0088 -0.0612,-0.0081 -1.4316,0.2641 -1.5238,0.5423 z" id="path719" style="stroke-width:0.125;stroke-miterlimit:4;stroke-dasharray:none"/>
  </g>
  <g id="SAN_TEODORO" style="fill:#f8c300;fill-opacity:1;stroke:#000000;stroke-width:0.125;stroke-linejoin:round;stroke-miterlimit:4;stroke-opacity:1;stroke-dasharray:none" transform="matrix(32,0,0,32,-8654.6528,-962.5705)">
    <path d="m 423.3515,131.403 -0.0519,0.0184 -0.004,0.029 -0.014,0.0221 -0.0735,0.0328 -0.007,0.006 0.003,0.006 0.0293,0.003 -0.0165,0.0118 -1e-4,0.008 0.0224,0.005 0.009,-0.002 -0.008,-0.0155 0.031,-6e-4 -0.007,-0.006 0.0172,0.002 0.004,-0.0119 0.0155,0.002 0.002,-0.0171 0.0242,-0.004 0.004,-0.0136 -0.005,-0.0154 -0.002,-0.009 0.0415,-0.0185 0.006,-0.0144 -0.003,-0.008 -0.0147,0.002 -0.002,-0.012 z" id="path840" style="stroke-width:0.125;stroke-miterlimit:4;stroke-dasharray:none"/>
    <path d="m 417.2936,129.9956 -0.0519,-0.1136 -0.0956,-0.2969 0.002,-0.2065 0.0203,-0.2003 -0.4536,-0.6115 -0.085,-0.0786 -0.5538,-0.3199 -0.6051,-0.0612 -0.2065,0.0764 -0.5251,0.5707 -0.01,0.0818 0.009,0.0663 -0.0585,0.2314 -0.0623,0.1183 -0.7353,0.7289 -0.1093,0.0245 -0.1705,-0.0188 -0.134,-0.0575 -0.0559,-0.129 -0.1743,-0.4182 -0.0173,0.181 -0.1276,0.4978 -0.2657,0.5533 -0.0929,0.158 -0.0883,0.1504 -0.1592,0.2501 -0.1376,0.22 -0.0614,0.098 -0.3642,0.5915 -0.8068,1.4299 -0.0618,0.1223 -0.5512,1.1707 -0.5419,1.2565 -0.14,0.3244 -0.0502,0.1496 -0.0745,0.2391 -1.0181,0.8401 -0.1412,0.0397 -0.0143,0.004 -1.9665,1.0458 -0.4266,0.2399 -0.0252,0.0141 -0.507,0.2926 -3.6945,2.4313 -0.6145,0.4541 -0.007,0.005 -0.1858,0.1683 -0.0574,0.06 -1.003,1.9396 -0.0986,0.1929 -0.0113,1.5579 -0.0505,1.3761 -0.0514,0.6172 -0.0311,0.3739 -0.057,0.6863 -0.1895,2.2782 -0.1348,1.4077 -0.0335,0.3213 -0.0481,0.4361 -0.1539,1.3023 -0.052,0.4439 -0.0617,0.4224 -0.0794,0.4339 0.4769,3.2333 0.0935,0.5479 0.0763,0.447 0.1248,0.7313 0.1114,0.6475 0.9377,0.5615 1.9907,1.1862 0.3985,0.2346 0.1096,0.0222 0.5653,-0.0605 1.9633,-0.2766 0.766,-0.1525 0.0629,-0.0171 0.0163,-0.0817 0.1322,-0.3848 0.2562,-0.7132 0.3283,-0.9172 0.3182,-0.8725 0.3218,-0.8606 0.0603,-0.1615 0.0436,-0.0523 1.7477,-1.8129 0.0514,-0.0522 0.0751,-0.0735 0.0791,-0.0754 2.3796,-1.7417 0.1301,-0.0887 0.3036,-0.1828 0.1163,-0.0634 0.3271,-0.1748 0.1024,-0.0363 1.2234,-0.3551 0.1337,-0.036 0.6705,-0.1624 0.4935,-0.117 3.0321,-1.2076 1.9266,-0.8536 0.8066,-0.3578 0.009,-0.1478 -0.0265,-0.092 -0.4913,-0.168 -0.6923,-0.1219 -0.9248,-0.0874 -2.5759,-2.514 -0.6589,-0.7766 -0.3901,-0.6303 -1.3044,-2.1199 -0.0529,-0.1151 -0.1282,-0.2868 -0.1152,-0.501 -0.051,-0.2687 -0.0192,-0.3551 -0.0156,-0.3582 -0.003,-0.242 0.002,-0.2326 0.0172,-0.4185 0.0149,-0.1069 0.1274,-0.7153 0.1207,-0.448 0.0908,-0.2319 0.1238,-0.2432 0.088,-0.1598 0.1092,-0.1806 0.1399,-0.2083 0.1065,-0.1364 0.1252,-0.1176 0.1438,-0.1036 0.1036,-0.055 0.0494,-0.0252 0.2963,-0.1164 0.1221,-0.0339 0.0798,-0.0133 1.5424,-0.0849 0.1967,-0.3831 0.006,-0.0232 -0.002,-0.0488 -0.0443,-0.3295 -0.4115,-1.0242 -0.1961,-0.2626 -0.1453,-0.1424 -0.572,-0.3103 -0.2478,-0.0515 -0.0644,-0.0259 -0.1008,-0.0806 -0.0585,-0.1108 -0.0292,-0.1607 0.004,-0.2627 0.0467,-0.2764 0.0392,-0.216 0.8496,-1.8727 0.0709,-0.0762 0.0709,-0.0669 0.1179,-0.0851 0.2257,-0.1449 0.065,-0.017 0.161,-0.016 0.6929,0.1543 1.5155,0.519 0.9067,0.3852 0.7472,-0.1812 0.4986,-0.1809 0.5179,-0.2446 0.7418,-0.651 0.5741,-1.3442 -0.0113,-0.049 -0.2668,-0.0673 -0.1171,-0.0195 -0.0564,0.0158 -0.0887,0.0946 0.0409,0.1009 0.0167,0.0954 0.007,0.0377 -0.0125,0.1182 -0.0595,0.1725 -0.0164,0.0291 -0.0213,0.031 -0.0239,0.027 -0.2177,0.1824 -0.09,0.0606 -0.134,0.0864 -0.0447,0.0136 -0.1907,0.0318 -0.0219,-2e-4 -0.006,-0.001 -0.034,-0.007 -0.1224,-0.1006 -0.4841,-0.4435 -1.1619,-0.4629 -2.439,-0.3963 -0.1538,-0.007 -0.083,-0.0532 -0.5604,-0.9376 -0.149,-0.2746 -0.0808,-0.1634 z" id="path842" style="stroke-width:0.125;stroke-miterlimit:4;stroke-dasharray:none"/>
  </g>
  <g id="SANT_ANTONIO_DI_GALLURA" style="fill:#f8c300;fill-opacity:1;stroke:#000000;stroke-width:0.125;stroke-linejoin:round;stroke-miterlimit:4;stroke-opacity:1;stroke-dasharray:none" transform="matrix(32,0,0,32,-8654.6528,-962.5705)">
    <path d="m 365.2503,108.9674 -0.0312,-0.0625 -0.0153,-0.1072 -0.1189,-1.187 0.7239,-2.1009 1.4669,-1.2853 3.2137,-3.6794 0.0833,-0.1028 0.6305,-0.8485 -1.3936,-1.5649 -0.5077,-0.125 -0.5647,-0.1584 -1.5193,-0.4237 -5.0384,-1.4102 -0.1555,-0.0493 -0.047,-0.0645 -0.4977,-0.7111 -0.5685,-1.2335 -1.8459,1.3137 -0.1302,0.0287 -1.8717,-0.1239 -0.9181,-0.0754 -4.9325,-0.6579 -0.6284,-0.0858 -1.1048,-0.2588 0.807,0.9358 0.1302,1.7323 -0.3439,0.3203 -0.1284,0.1126 -0.3792,0.2657 -0.0474,0.0291 -1.6774,1.4403 -0.4838,0.6892 0.4371,0.3958 -0.4355,0.6767 -0.3862,0.03 -0.3547,0.0359 -0.077,0.0446 -1.4662,3.557 -0.0203,0.2112 -0.0203,0.2095 0.9733,0.5132 2.1837,0.7216 -0.2934,1.9122 0.6944,0.2086 0.9056,0.0243 0.2754,0.0671 0.2586,1.0236 -0.1861,0.9053 -0.028,0.1305 0.003,0.105 0.0592,0.0627 0.371,0.3227 0.2654,0.0982 0.0571,0.0158 0.301,0.0321 1.0598,0.3815 1.0233,1.7899 -0.0153,0.45 -0.0372,0.5025 0.0918,0.7913 0.1562,0.3317 2.6987,-0.162 0.059,0.008 0.0827,-0.009 0.286,-0.1685 0.6277,-1.0341 0.2939,-0.6769 0.639,-0.3406 0.9994,-0.3761 0.8149,-2.4964 -0.1137,-0.1271 -0.4169,-0.6328 0.1902,-0.2993 1.7211,-0.566 0.2168,-0.0596 0.1773,-0.0363 0.3586,-0.0609 0.136,-0.0189 0.9004,0.3309 0.0609,0.0295 0.3339,0.1845 0.0963,0.0549 0.1078,0.0959 0.1235,0.1369 0.2333,0.2425 0.1256,0.0921 0.1219,0.0395 0.1102,0.008 0.1024,-0.003 1.0111,-0.2568 z" id="path867" style="stroke-width:0.125;stroke-miterlimit:4;stroke-dasharray:none"/>
  </g>
  <g id="SANTA_TERESA_GALLURA" style="fill:#f8c300;fill-opacity:1;stroke:#000000;stroke-width:0.125;stroke-linejoin:round;stroke-miterlimit:4;stroke-opacity:1;stroke-dasharray:none" transform="matrix(32,0,0,32,-8654.6528,-962.5705)">
    <path d="m 352.7019,54.6715 0.3549,-0.3299 -1.1583,-2.2618 -0.6307,-1.13 -0.3494,-0.1453 -0.1126,-0.0179 -0.0353,0.0018 -0.0221,0.0019 -0.01,0.0097 -0.0359,0.0369 -0.1195,0.2704 -0.8306,2.5065 -0.3455,1.6957 -0.006,0.1305 0.0199,0.5689 0.139,0.3823 -0.2056,0.0285 -0.1443,0.0113 -0.1106,-0.0082 -0.2626,-0.067 -0.0315,-0.0112 -0.1243,-0.046 -0.2191,-0.0941 -0.0178,-0.0077 -0.0863,-0.0455 -0.2657,-0.2264 -0.0299,-0.0313 -0.0675,-0.0742 -0.061,-0.0937 -0.006,-0.0624 0.0162,-0.1207 0.1854,-0.5235 0.2506,-0.4076 0.2757,-0.3953 1.1371,-2.6264 0.06,-0.1985 0.0261,-0.1226 0.0621,-0.8375 -0.2106,-1.5066 -0.01,-0.0165 -0.0217,-0.0362 -0.3581,-0.5329 -0.017,-0.0137 -0.0402,-0.0313 -0.949,-0.4713 0.0679,-0.3769 -0.26,-0.9476 -0.0946,-0.0918 -0.0138,-0.0098 -0.0454,-0.0235 -2.2614,-0.7021 -2.4847,-0.652 -0.5914,0.0555 -0.0356,-0.0221 -0.0957,-0.0651 -0.1306,-0.1199 -0.209,-0.4571 -0.055,-0.1248 -0.0561,-1.1807 0.0159,-0.0214 0.0951,-0.0855 0.0238,-0.0038 0.0221,0.0078 0.0151,0.0059 0.0221,0.0079 0.0436,-0.0564 0.0747,-0.2051 0.001,-0.0622 -0.107,-0.4798 -0.0774,-0.0575 -1.5616,0.0083 -1.4304,0.7247 -0.2739,0.176 -1.3769,0.9064 -1.3676,1.2807 -0.0357,0.0427 -0.0778,0.1586 -0.1688,0.4273 -0.1633,0.4788 -0.2172,0.7152 -0.0467,0.1599 -0.1308,0.2696 -0.0778,0.145 -0.1925,0.1192 -0.1292,-0.0424 0.0702,-0.1982 0.0472,-0.0275 0.0372,-0.011 0.027,-0.0144 0.045,-0.0342 0.0609,-0.0885 0.0868,-0.1295 0.097,-0.1527 0.1676,-1.0266 -0.0173,-0.2804 -0.0355,-0.0604 -0.0389,-0.0138 -0.0401,-0.0137 -0.1601,-0.2927 0.0246,-0.1634 0.1245,-0.1498 0.0237,-0.0388 0.003,-0.0098 1e-4,-0.0584 -0.002,-0.0546 -0.0729,-0.1112 -0.0812,-0.1242 -0.055,-0.0319 -0.2081,0.0568 -0.3041,0.2487 -0.0166,0.0323 -0.002,0.0292 0.004,0.0481 0.007,0.0388 -0.017,0.0509 -0.1192,0.0253 -0.0573,0.0043 -0.2226,-0.0215 -0.0953,-0.1177 -0.0224,-0.0288 -0.0325,-0.0422 0.0195,-0.048 -0.1352,-0.2964 -0.0811,-0.0565 -0.2348,-0.1153 -0.2686,0.0074 -0.2106,0.0888 -0.0317,0.0164 -0.0336,0.0783 -0.0162,0.0227 -0.1316,0.1371 -0.2068,0.1576 -0.0887,0.0247 -0.1579,0.0202 -0.0403,0.0032 -0.3045,-0.0064 -0.2099,0.152 0.0251,0.1045 0.0181,0.1739 -0.082,0.323 -0.02,0.0759 -0.0397,0.0954 -0.4193,0.0304 -0.1384,-0.014 -0.0348,0.001 -0.0324,9e-4 -0.0554,0.0096 -0.009,0.0136 -0.4176,0.6479 -0.1868,0.4711 -0.0357,0.0448 -0.0198,0.0136 -0.0258,0.0127 -0.1591,0.0565 -0.196,0.036 -0.0799,-0.0262 -0.1067,-0.047 -0.075,-0.078 -0.3239,-0.377 -0.0768,-0.1273 -0.0445,-0.0858 -0.0372,-0.0768 0.0431,-0.2125 0.1049,-0.0739 0.2692,-0.1164 0.1299,-0.0426 0.0541,-0.0135 0.1009,-0.0485 2e-4,-0.076 -0.0316,-0.0624 -0.0711,-0.0255 -0.0573,-0.0059 -0.0213,0.0253 -0.1173,0.0621 -0.0673,-0.0118 -1.0394,-0.4012 -0.1513,-0.1062 -0.192,-0.1915 -0.0615,-0.0439 -0.0475,-0.0021 -0.2854,0.0843 -0.0395,0.1851 0.002,0.1723 0.0295,0.0682 -0.0989,0.033 -0.0257,0.0077 -0.2093,0.0624 -0.0301,-0.0277 -0.1375,-0.3179 -0.0181,-0.2044 0.0244,-0.1227 -0.007,-0.0568 -0.0493,-0.1477 -0.0207,-0.0546 -0.0737,-0.0126 -0.227,0.0431 -0.0602,0.045 -0.4929,0.4854 -0.0254,0.0386 -0.445,1.2781 -0.009,0.1592 0.0333,0.0375 0.1452,-0.0088 0.1499,-0.0112 0.098,-0.0202 0.0785,0.1696 0.0357,0.2397 -0.002,0.1107 -0.0488,0.1288 -0.1015,0.2216 0.01,0.0197 0.0223,0.0418 0.1257,0.218 0.0823,0.0309 0.0275,0.0037 0.1073,-0.0072 0.0325,-0.0049 0.1286,-0.0379 0.035,-0.0135 0.2494,0.073 0.2307,0.1259 0.1745,0.1331 0.0685,0.042 0.1037,-0.0306 0.0274,-0.016 0.08,-0.0527 0.0575,-0.0393 0.0512,-0.0491 0.005,-0.0148 0.006,-0.0178 0.0131,-0.0645 0.005,-0.032 0.0196,-0.0437 0.0357,-0.0544 0.029,-0.0428 0.0106,-0.0156 0.0405,-0.0448 0.0111,-0.0116 0.2415,-0.1847 0.6414,-0.3787 0.1088,-0.0271 0.1008,-0.0174 0.0653,2e-4 0.3029,0.0441 0.0749,0.035 0.2031,0.1557 0.0947,0.0839 0.1306,0.1348 0.0498,0.0556 0.0281,0.0513 0.0124,0.0257 0.3828,0.51 0.0816,0.6928 -0.2601,1.6225 -0.7022,3.3687 -0.1407,0.1692 -0.0846,0.0232 -0.4227,0.1863 -0.1474,0.0991 -0.1131,0.2277 -0.0119,0.0604 -0.1459,0.8491 0.1059,0.759 0.041,0.1239 0.0122,0.0251 0.0527,0.0995 0.1909,0.2 0.9173,0.4241 -0.0998,0.005 -0.0281,0.0048 -0.0272,0.0049 -0.4761,0.8904 -0.0308,0.1486 0.0126,0.2108 0.01,0.0565 1.9421,1.3779 0.0942,0.0168 0.092,0.0158 3.104,2.0743 0.8951,0.6633 0.9542,0.7561 0.2504,0.1973 3.4977,2.3501 0.1559,0.051 1.4889,-0.7208 5.0369,-2.2593 1.5883,-0.7082 0.8646,-0.3314 1.5014,-0.1481 2.5728,-0.2797 0.585,-0.072 0.1364,-0.0326 0.1385,-0.058 0.7542,-0.422 0.2217,-0.1258 -0.9596,-3.9854 -0.3994,0.0727 -0.1127,0.0132 -0.1324,0.0112 -0.1206,0.0074 -0.1067,0.0036 -0.2371,0.003 -0.1093,-0.018 -1.4628,-0.4076 -0.3133,-0.0872 -0.1191,-0.0371 -0.054,-0.0406 -0.0522,-0.0665 -0.0832,-0.1216 -0.2307,-0.4042 0.0279,-0.072 0.2401,-0.2661 0.0634,-0.0543 0.535,-0.3927 0.9912,-0.3328 z" id="path876" style="stroke-width:0.125;stroke-miterlimit:4;stroke-dasharray:none"/>
  </g>
  <g id="TELTI" style="fill:#f8c300;fill-opacity:1;stroke:#000000;stroke-width:0.125;stroke-linejoin:round;stroke-miterlimit:4;stroke-opacity:1;stroke-dasharray:none" transform="matrix(32,0,0,32,-8654.6528,-962.5705)">
    <path d="m 369.9314,130.5574 1.8151,-1.3075 1.0994,-0.7917 -0.7245,-4.7142 -0.3134,-1.9263 -0.1152,-0.5967 -0.0193,-0.0644 -2.2823,-3.7569 -0.0766,-0.0315 -1.1401,-2.064 -0.0185,-0.6258 -0.1372,-4.0412 -0.0667,-0.0704 -0.8094,-0.362 -0.2043,-0.0905 -0.2594,-0.1044 -0.0461,-0.0171 -0.3156,-0.1169 -0.1905,-0.0963 -0.1965,-0.1002 -0.3417,-0.1963 -0.0765,-0.0568 -0.0646,-0.0899 -0.1036,-0.1699 -0.0936,-0.1991 -1.0111,0.2568 -0.1024,0.003 -0.1102,-0.008 -0.1219,-0.0395 -0.1256,-0.0921 -0.2333,-0.2425 -0.1235,-0.1369 -0.1078,-0.0959 -0.0963,-0.0549 -0.3339,-0.1845 -0.0609,-0.0295 -0.9004,-0.3309 -0.136,0.0189 -0.3586,0.0609 -0.1773,0.0363 -0.2168,0.0596 -1.7211,0.566 -0.1902,0.2993 0.4169,0.6328 0.1137,0.1271 -0.8149,2.4964 -0.9994,0.3761 -0.639,0.3406 -0.2939,0.6769 -0.6277,1.0341 -0.286,0.1685 -0.0827,0.009 -0.059,-0.008 -0.0856,0.2822 -0.0456,0.0777 -0.1682,0.2625 -0.0454,0.0407 -0.4115,0.0472 -0.4902,0.047 -0.3012,0.0399 -0.4017,0.0629 -0.1811,0.0286 -0.9616,0.9377 -0.1283,0.1262 -0.0949,0.1263 -0.1563,0.2371 -0.0615,0.1479 -0.0916,0.3172 -0.5557,2.5815 0.0237,0.0609 0.004,0.009 0.7572,0.626 2.0012,2.6116 0.1523,0.3084 -0.0983,1.0984 0.3209,2.074 0.3084,1.7194 -0.0121,0.0642 -0.01,0.0527 -0.6226,0.9134 1.23,0.1992 1.1649,0.2458 0.7892,0.2679 1.0899,0.3216 2.4381,-0.1269 0.3166,-0.0319 0.3011,-0.0845 0.0611,-0.0348 1.2614,-1.2535 0.0201,-0.1148 -0.0351,-0.0664 0.2853,-0.5229 2.0421,0.6222 3.2002,0.9686 1.2715,0.3593 z" id="path1051" style="stroke-width:0.125;stroke-miterlimit:4;stroke-dasharray:none"/>
  </g>
  <g id="TEMPIO_PAUSANIA" style="fill:#f8c300;fill-opacity:1;stroke:#000000;stroke-width:0.125;stroke-linejoin:round;stroke-miterlimit:4;stroke-opacity:1;stroke-dasharray:none" transform="matrix(32,0,0,32,-8654.6528,-962.5705)">
    <path d="m 323.4794,95.4212 -0.3902,-0.0629 -0.061,-0.0429 -0.0491,-0.1462 -0.0427,-0.4306 -0.0427,-0.4949 -0.0429,-0.3234 -0.1823,-0.7133 -0.2863,-0.4891 -1.1534,-0.3953 -0.2089,-0.0139 -1.0678,1.1774 -2.4984,3.2372 -0.5544,0.7456 -0.0572,0.0623 -0.5661,0.6093 -0.0927,0.0681 -2.2882,1.0287 -0.988,1.8123 -0.2651,0.4863 -0.8146,1.4949 -0.6268,1.9558 3.4636,3.1856 0.2774,0.2126 0.2086,0.156 0.4073,0.2303 0.0925,0.0429 0.3287,0.1425 0.1142,0.0469 0.0669,0.002 0.0748,0.006 0.0531,0.0234 1.0347,0.9439 0.2105,0.197 0.055,0.0565 0.3909,0.8556 0.0589,0.1618 0.0215,0.113 0.0214,0.2728 -0.0317,0.187 -0.7462,2.2085 -1.529,1.939 -0.0725,0.0857 -0.087,0.0973 -0.1005,0.1071 -0.1476,0.1051 -0.1241,0.0505 -0.0413,0.0175 -0.01,0.004 -0.124,0.0523 -0.1142,0.0856 -0.4922,0.3757 -0.1831,0.1459 -0.0591,0.0721 -0.0611,0.1363 -0.1026,0.3993 0.0119,2.4294 0.004,0.6429 -0.004,0.189 -0.127,0.392 -0.0339,0.1048 -0.0126,0.0388 -0.4947,1.2816 -0.3526,3.6897 -1.6406,1.0198 -0.1435,0.0876 -2.2325,1.9492 -0.2549,0.2247 -0.7882,0.6953 -0.8644,0.7626 -1.8795,1.7803 -1.2246,1.1221 -0.2846,0.248 -0.366,0.3189 0.4088,0.6039 0.1395,1.0794 -0.8234,0.2571 -0.0292,0.0193 -0.1182,0.0781 -0.2318,0.1695 -0.2319,0.1734 -0.4087,0.4209 -0.0943,0.0974 -0.4519,0.5066 -0.055,0.0623 -0.051,0.0955 -0.0374,0.0779 -0.1335,0.3118 -0.0314,0.0857 -0.0354,0.1013 -0.004,0.0974 0.0157,0.113 0.0315,0.115 0.0216,0.0779 0.0806,0.1909 0.0104,0.0224 0.579,0.3087 2.2161,-0.8923 3.2798,-1.2445 0.004,-0.001 4.2409,-1.6077 0.234,-0.2298 0.3007,-0.3358 0.3149,-0.3515 2.6213,0.3253 0.0177,-0.0107 0.6596,-0.4006 0.1925,-0.1169 1.0907,-0.641 3.5761,2.2541 0.3711,0.2498 -2.5215,4.075 -0.5647,0.9129 0.4247,-0.4281 1.7998,-1.9872 0.1201,-0.2454 0.5459,-1.3845 0.7373,-1.8597 0.621,-1.55 1.433,-0.1909 0.1919,-0.0105 0.2832,-0.015 0.0203,-10e-4 1.0575,-0.1173 0.1927,-0.0465 0.0748,-0.0525 0.4565,-0.3538 0.3247,-0.2606 0.4133,-0.3403 0.0453,-0.035 0.0747,-0.0349 2.206,-0.8301 0.2113,-0.0796 2.636,-0.9925 0.6906,-0.3045 1.6374,-0.8091 0.2866,-2.5535 0.1492,-1.3628 0.0354,-0.324 -0.0274,-0.0604 -0.7656,-1.5758 -0.2722,-0.5597 -0.3194,-0.6471 -0.133,-0.2695 -0.6622,-1.3066 -0.0826,-0.0138 -1.4074,-0.5385 -0.7141,-1.0631 -0.2017,-0.5147 -0.0332,-0.0897 -0.1674,-1.5004 0.2386,-1.8601 0.0926,-0.2502 0.0426,-0.035 -0.2639,-0.3774 -0.0667,-0.119 -0.0116,-0.0818 -0.004,-0.0702 0.0697,-0.446 0.0317,-0.1246 0.0514,-0.1266 -0.01,-0.0896 -0.045,-0.0994 -0.0629,-0.0859 -0.371,-0.4974 -0.0531,-0.0352 -2.3013,-0.9176 -0.0532,-0.01 -0.5945,0.0556 -0.7284,0.0729 -0.0712,0.007 -0.0764,-0.0525 -0.0432,-0.0682 -0.01,-0.0721 0.1198,-1.0811 -0.2369,-2.0927 -0.0882,-0.2924 -0.0313,-0.0974 -0.0432,-0.1092 -0.9347,-1.6534 -1.2591,-0.8512 -0.2655,-0.1932 -0.0551,-0.0663 -0.0255,-0.0683 -0.008,-0.1032 0.002,-0.1033 0.008,-0.15 0.1239,-0.7273 0.1638,-0.8386 0.4123,-1.9048 0.2495,-0.888 0.7605,-2.7049 0.0493,-0.0467 0.2406,-0.1399 0.7272,-0.1256 0.0848,-0.0369 0.0434,-0.035 1.4959,-1.4431 -0.2524,-1.0934 -0.0998,-0.3761 -0.3506,-0.1409 -0.0788,-0.0274 -1.2556,0.1247 -0.3804,0.0657 -0.5226,0.2019 -0.4654,0.2584 -0.0612,0.0291 -0.1812,-0.008 z" id="path1054" style="stroke-width:0.125;stroke-miterlimit:4;stroke-dasharray:none"/>
    <path d="m 354.8611,67.4372 0.4174,-0.7525 0.0338,-0.0719 0.3292,-0.9086 0.0348,-0.3252 0.008,-0.0818 -0.0216,-1.6482 -0.1406,-0.4447 -0.1922,-0.3591 -0.0536,-0.0633 -0.0605,-0.0715 -0.0825,-0.1172 -0.0463,-0.308 -0.0163,-0.2991 0.2665,-1.1396 -0.2217,0.1258 -0.7542,0.422 -0.1385,0.058 -0.1364,0.0326 -0.585,0.072 -2.5728,0.2797 -1.5014,0.1481 -0.8646,0.3314 -1.5883,0.7082 -5.0369,2.2593 -1.4889,0.7208 1.3228,0.8217 0.1872,0.1427 0.1555,0.164 -0.1166,0.0523 -0.166,0.06 -0.5059,0.1233 -0.879,0.1419 -0.154,-0.0179 -0.2466,-0.063 -0.1775,-0.0822 -0.1439,-0.1037 -0.1301,-0.0704 -0.4103,-0.1764 -0.531,-0.0655 -1.4983,1.4614 -0.4446,0.6721 0.2059,0.0793 0.4418,0.1959 0.193,0.205 0.2716,0.3318 0.2813,0.4078 0.0153,0.2202 -0.0673,0.0563 -0.0202,0.1948 0.0117,0.0604 0.0433,0.0449 0.3782,0.3418 0.0689,0.0606 0.0572,0.0411 0.2129,0.1135 0.1972,0.0803 0.2268,0.0629 0.4657,0.081 0.2998,0.0277 0.0692,0.0064 0.1915,0.0083 1.4649,-0.0917 2.2218,2.3925 2.2718,0.6123 1.0733,-0.5501 0.0202,-0.1343 0.0219,-0.0642 0.0574,-0.0642 0.2118,-0.2039 0.1108,-0.0795 0.2214,-0.1143 0.079,-0.0056 0.1835,0.0103 0.1183,0.0394 2.0926,1.0508 1.1522,0.705 0.9506,0.7396 0.1122,0.0939 0.2845,0.451 0.1081,-1.0127 0.2216,-0.7006 0.0299,-0.0875 0.1552,-0.3794 0.2572,-0.7335 0.0261,-0.1071 0.1144,-1.6653 0.0906,-1.5971 0.0127,-0.2513 0.008,-0.0818 0.2889,-1.2906 0.1232,-0.2236 0.5226,-0.904 z" id="path1056" style="stroke-width:0.125;stroke-miterlimit:4;stroke-dasharray:none"/>
  </g>
  <g id="TRINITA__D_AGULTU_E_VIGNOLA" style="fill:#f8c300;fill-opacity:1;stroke:#000000;stroke-width:0.125;stroke-linejoin:round;stroke-miterlimit:4;stroke-opacity:1;stroke-dasharray:none" transform="matrix(32,0,0,32,-8654.6528,-962.5705)">
    <path d="m 282.798,96.0419 -0.0128,1.0823 -0.4388,1.7618 -0.01,0.0292 -0.1355,0.2652 -1.1538,1.7531 0.9403,0.4057 0.5225,0.3617 0.3042,0.6093 0.5841,0.7804 0.0651,0.0506 0.1222,0.0777 0.5892,0.196 0.5754,0.1805 0.0689,0.0194 0.0591,-0.0118 0.126,0.004 0.5537,0.163 0.5399,0.1786 2.6597,0.8777 3.2267,1.0667 0.4589,0.1848 0.1403,0.5317 0.0198,0.1831 -0.006,0.2046 -0.0884,0.2455 1.4093,-0.8913 2.4715,0.4312 0.4667,0.0738 0.1615,0.0233 0.4292,-0.0177 1.6698,-0.1116 1.0472,-1.7244 0.0394,-0.078 0.2203,-1.1338 0.303,-1.7242 0.1358,-0.7813 0.006,-0.0643 0.1083,-0.3565 0.26,-0.5241 0.8725,-1.6736 0.1909,-0.13 0.6523,-0.4444 0.1291,-0.088 1.4233,-1.0991 0.767,-0.5918 0.9195,-0.7156 0.3793,-0.2952 2.1566,-1.6729 1.3309,-1.0514 0.4792,-0.4615 0.0434,-0.0506 -0.008,-0.0799 -0.0157,-0.0779 -0.5411,-2.0303 -0.0571,-0.0896 -0.0927,-0.0605 -0.132,-0.0292 -0.1361,-0.0137 -0.1025,0.0233 -0.0867,0.0194 -0.0809,-0.0214 -0.1281,-0.0449 -0.0906,-0.0857 -0.0256,-0.0819 -0.0448,-1.4689 0.1172,-1.9364 0.004,-0.0643 0.0296,-0.0721 1.7442,-1.6707 0.2308,-0.1986 0.2703,-0.0758 0.1282,-0.0292 0.0788,0.0527 1.0269,1.0331 0.026,-0.5669 -0.2397,-1.3697 -0.0826,-0.3331 -0.0355,-0.0838 -1.2827,-2.5373 -0.1151,-0.188 -0.5216,-0.7123 -0.2268,-0.2028 -0.4931,-0.2145 -0.1046,-0.039 -0.2091,-0.0488 -1.0159,-0.4173 -2.0202,-1.0837 -0.0552,-0.0468 -0.004,-0.0818 -0.0395,-0.1442 -0.0967,-0.0701 -2.279,-1.2919 -0.744,-0.0643 -0.7183,-0.0799 -0.0285,0.0088 -0.3583,0.112 -0.2703,0.0975 -0.1184,0.1734 -0.0163,0.0263 -0.0172,0.0282 -0.3894,0.7228 -1.9326,3.366 -1.4241,1.4306 -1.9821,2.1926 -0.1857,0.2909 -0.0808,0.1271 -0.6194,1.0829 -1.4528,1.2376 -0.474,0.5191 -0.7863,0.8734 -0.6542,1.0107 -3.4818,1.448 -0.6894,0.39 -0.0452,-0.065 -0.0396,-0.0321 -0.2714,-0.0179 -0.8217,0.6682 -0.1793,0.1833 -2.7517,0.6159 -0.1123,0.1391 -0.0112,0.0222 -0.054,0.1872 0.128,0.4546 -0.1634,1.6136 -0.881,0.9587 0.5508,0.6655 z" id="path1112" style="stroke-width:0.125;stroke-miterlimit:4;stroke-dasharray:none"/>
  </g>
</svg>
