<svg width="7977" height="8023.000000000001" xmlns="http://www.w3.org/2000/svg" fill-rule="evenodd" clip-rule="evenodd">

 <g id="imagebot_36">
  <metadata id="imagebot_39"/>
  <g transform="translate(568.434 0) matrix(1 0 0 1 -632.909 23)" id="imagebot_37">
   <path id="imagebot_43" fill="rgb(193, 193, 193)" d="M79,4451L84,4098L95,2785L103,1805C165,1797 144,1852 148,1929L163,1874C228,1863 189,1878 278,1938C305,1956 310,1961 338,1979C384,2011 322,2012 391,1995L370,1962C369,1961 365,1958 363,1957C362,1956 358,1953 356,1951C354,1950 350,1948 348,1946L155,1764C127,1732 122,1701 125,1635C126,1638 127,1650 145,1677L183,1715C205,1730 254,1764 281,1756C411,1790 308,1777 348,1717C326,1706 304,1700 281,1678C298,1582 245,1626 314,1600C310,1554 339,1622 213,1658C203,1533 203,1666 183,1541C176,1499 180,1430 180,1385C429,1422 6539,1395 7432,1395C7510,1395 7589,1394 7668,1395C7704,1395 7743,1399 7776,1400C7820,1401 7761,1401 7824,1398C7851,1396 7812,1389 7869,1395C7817,1503 7757,1530 7702,1616L7656,1678L7618,1732C7615,1735 7611,1739 7608,1742C7605,1745 7601,1749 7599,1752C7483,1873 7490,1923 7420,1971C7405,2048 7387,2014 7456,2009C7493,1993 7450,2048 7504,1977C7483,2052 7488,2037 7440,2096C7400,2143 7388,2166 7356,2205C7413,2189 7431,2157 7479,2106L7578,1983C7601,1957 7614,1944 7657,1925C7696,1821 7684,1925 7769,1773C7808,1703 7794,1708 7840,1669C7912,1608 7902,1740 7903,1561C7928,1548 7937,1549 7968,1541C7960,1481 7986,1491 7953,1502L7964,2361L7968,2771L7973,3161L7972,3353L7976,4063L7982,5005L7987,5015L7987,0L79,0L79,4451z"/>
   <path id="imagebot_44" fill="rgb(236, 236, 236)" d="M7969,7997C7996,7583 7978,6957 7957,6546L7936,6624L7920,6995C7923,6979 7937,6967 7877,6917C7852,6942 7821,6938 7769,6938L222,6937L222,6722L7868,6717C7927,6700 7866,6737 7911,6693C7895,6658 7939,6687 7887,6670C7885,6669 7880,6668 7878,6668C7874,6667 7839,6679 7833,6680L197,6683L180,6937C180,6826 168,6712 180,6610L130,6614L112,6390C112,6661 104,6930 104,7200C104,7414 139,7816 79,8000C258,7928 1751,7971 2064,7971C3377,7971 4689,7971 6001,7971C6275,7971 7842,7928 7969,7997z"/>
   <path id="imagebot_45" fill="silver" d="M146,136C132,103 127,93 163,93C164,93 181,-23 180,170C179,371 161,940 196,1054L7820,1053C7873,1053 7895,1041 7920,1073C7961,943 7937,266 7936,59L146,58C146,58 103,44 146,136z"/>
   <path id="imagebot_46" fill="rgb(248, 246, 247)" d="M1931,2375C2037,2402 2145,2338 2213,2404C2233,2425 2230,2411 2242,2448L2251,2673C2189,2660 2235,2687 2199,2648L1475,2526C1446,2523 1438,2523 1411,2513C1371,2498 1399,2515 1374,2489L1348,2498C1287,2490 1263,2495 1206,2487C1169,2481 1154,2473 1122,2474L1063,2491L1099,2544C1119,2610 1321,2724 1379,2763C1428,2797 1484,2824 1534,2860C1572,2888 1636,2935 1680,2959C1801,2982 1837,3035 1926,3070C2004,3085 2064,3123 2124,3151L2427,3269C2628,3370 2551,3318 2726,3386L3214,3600C3253,3609 3299,3606 3342,3614C3444,3632 3489,3667 3459,3742C3567,3758 3689,3881 3880,3899C3893,3870 3883,3890 3889,3863C3889,3860 3891,3854 3892,3851L3899,3818C3902,3790 3945,3790 3850,3765C3868,3717 3848,3754 3882,3727C3889,3722 3931,3700 3939,3697C4055,3663 4011,3739 4208,3658C4318,3613 4228,3696 4454,3612C4516,3590 4532,3601 4604,3591C4650,3584 4685,3568 4722,3550C4805,3511 4778,3562 4807,3471C4858,3548 5019,3468 5076,3437C5112,3417 5159,3410 5203,3389C5287,3351 5277,3366 5379,3350L6817,2606C6849,2587 6919,2527 6946,2502C6987,2464 6974,2473 7015,2446C7070,2410 7065,2431 7085,2354L6817,2388C6777,2430 6594,2453 6545,2451L6409,2454C6363,2491 5972,2551 5811,2597C5703,2629 5681,2575 5622,2545C5566,2516 4524,2473 4387,2507C4385,2507 4380,2509 4378,2509C4278,2534 4264,2576 4193,2561C4111,2545 4083,2487 3998,2552L3931,2611C3663,2772 3755,2671 3616,2625C3581,2613 3354,2600 3338,2565L3257,2413C3256,2406 3252,2405 3249,2400C3254,2398 3260,2396 3264,2395C3268,2394 3274,2392 3278,2390C3421,2352 3413,2401 3545,2400C3602,2399 3639,2388 3696,2387C3760,2386 3798,2397 3864,2397C3818,2333 3853,2340 3696,2355C3628,2362 3609,2349 3545,2345L3258,2357C3255,2351 3247,2357 3242,2355L1978,2346C1940,2350 1911,2306 1931,2375z"/>
   <path id="imagebot_47" fill="rgb(248, 246, 247)" d="M884,3814L875,4545C829,4496 878,4403 837,4308C831,4536 866,4688 855,4905C847,5061 875,5356 917,5470C938,5495 922,5472 937,5522L917,5592C932,5625 881,5636 1088,5624C1158,5620 1220,5612 1290,5613C1418,5613 1559,5621 1683,5611L2524,5619C2609,5575 3829,5596 3972,5589C3948,5531 3947,5526 3986,5486L3998,5466C4013,5453 4001,5436 4078,5451C4080,5469 4084,5486 4083,5502C4077,5555 4075,5538 4070,5550L4066,5581C4106,5610 5296,5598 5548,5605L5611,5610C5615,5611 5620,5613 5623,5614L5646,5626L6033,5628C6021,5529 5989,5647 6046,5566C6048,5563 6055,5560 6059,5557C6051,5558 5987,5567 5984,5567C5860,5561 6082,5596 5953,5563C5917,5553 5932,5560 5915,5541C5972,5522 6007,5545 6066,5550C6029,5468 6017,5458 6044,5364C6062,5256 6081,5265 6086,5153C6090,5069 6087,4974 6069,4917C6014,4941 5956,4963 5884,4944L5648,4972C5582,4977 5630,4988 5571,4964L5575,4942C5589,4920 5560,4947 5588,4925C5602,4913 5619,4913 5641,4909C5579,4857 5640,4900 5645,4780L5519,4830C5482,4841 5448,4866 5406,4889C5244,4976 5281,4849 5177,5015C4946,4991 4983,5041 4823,5069L4085,5113C3765,5119 3880,5146 3529,5108C3455,5100 3378,5114 3310,5111C3204,5106 3229,5069 3132,5082C2968,5102 2929,5136 2783,5079L2654,5048C2604,5052 2641,5067 2597,5041C2524,5001 2369,4942 2300,4941C2287,4883 2331,4885 2159,4809C2076,4772 2077,4754 1995,4687C1836,4554 1829,4590 1779,4507L1635,4340C1537,4252 1521,4272 1524,4177C1521,4103 1526,4168 1510,4134L1475,4066C1416,3961 1342,4047 1281,3739C1230,3656 1139,3693 1119,3454C1089,3341 1036,3250 1004,3220C896,3118 972,3103 902,2985C915,3152 920,3676 884,3814z"/>
   <path id="imagebot_48" fill="rgb(230, 230, 230)" d="M530,5951C500,6008 482,6038 423,6054C401,6121 352,6162 289,6212C218,6269 201,6309 110,6330C114,6164 136,6295 141,6178L115,6167L190,6096L166,6093C166,6093 162,6166 79,6107L79,6127L79,8000L7953,8000L7969,7997C7842,7928 6275,7971 6001,7971C4689,7971 3377,7971 2064,7971C1751,7971 258,7928 79,8000C139,7816 104,7414 104,7200C104,6930 112,6661 112,6390L112,6341C112,6345 112,6351 113,6353L138,6390C178,6320 145,6322 249,6322C310,6323 297,6341 332,6330C460,6291 355,6301 550,6302L7717,6312L7701,6288C7698,6284 7688,6269 7684,6265C7657,6222 7672,6250 7653,6210L7362,5934C7335,5891 7350,5940 7340,5868L7303,5821L7240,5806C7153,5993 7097,5873 6973,5917C6840,5940 6448,5857 6204,5844C5413,5802 4530,5823 3730,5823C3487,5823 1682,5790 1431,5915C1353,5954 868,5966 808,5905C779,5876 795,5875 757,5844C720,5812 746,5801 689,5829C620,5857 607,5910 530,5951z"/>
   <path id="imagebot_49" fill="rgb(234, 234, 234)" d="M180,6610C168,6712 180,6826 180,6937L197,6683L7833,6680C7839,6679 7874,6667 7878,6668C7880,6668 7885,6669 7887,6670C7939,6687 7895,6658 7911,6693C7866,6737 7927,6700 7868,6717L222,6722L222,6937L7769,6938C7821,6938 7852,6942 7877,6917C7937,6967 7923,6979 7920,6995L7936,6624L7866,6591L1122,6585C972,6585 261,6555 180,6610z"/>
   <path id="imagebot_50" fill="rgb(199, 199, 199)" d="M163,1874C166,2026 197,2233 180,2371C291,2325 692,2336 805,2380L810,2320L835,2332C835,2302 828,2309 853,2309L887,2325L881,2274L944,2287L881,2240C874,2236 861,2232 848,2221C948,2169 3634,2232 4031,2211C4549,2184 5092,2224 5614,2225C6137,2225 6688,2232 7207,2219C7187,2259 7194,2236 7154,2272L7112,2314L7142,2344C7144,2348 7149,2354 7152,2358L7162,2399C7194,2359 7182,2394 7185,2317C7215,2226 7174,2271 7246,2263C7286,2262 7253,2284 7300,2229C7324,2200 7335,2187 7357,2157C7396,2106 7431,2070 7456,2009C7387,2014 7405,2048 7420,1971C7406,1924 7432,1935 7415,1889C7382,1936 7429,1902 7365,1913L564,1898C551,1899 570,1876 546,1907C512,1949 547,1922 567,1932C527,1992 630,2005 499,1971L499,2005C531,2027 563,2042 586,2067C618,2102 582,2073 617,2108C641,2133 636,2120 659,2140C716,2190 655,2161 731,2207C805,2251 760,2211 819,2302C695,2261 562,2096 484,2067C436,2044 466,2063 430,2036C404,2015 400,2005 391,1995C322,2012 384,2011 338,1979C310,1961 305,1956 278,1938C189,1878 228,1863 163,1874z"/>
   <path id="imagebot_51" fill="rgb(232, 232, 232)" d="M112,6390L130,6614L180,6610C261,6555 972,6585 1122,6585L7866,6591L7936,6624L7957,6546C7914,6532 7914,6519 7836,6419C7823,6402 7819,6393 7803,6378L7717,6312L550,6302C355,6301 460,6291 332,6330C297,6341 310,6323 249,6322C145,6322 178,6320 138,6390L113,6353C112,6351 112,6345 112,6341L112,6390z"/>
   <path id="imagebot_52" fill="rgb(195, 195, 195)" d="M281,1678L366,1642C404,1701 701,1659 785,1659C2462,1659 4139,1659 5816,1659C6088,1659 7515,1622 7656,1678L7702,1616C7757,1530 7817,1503 7869,1395C7812,1389 7851,1396 7824,1398C7761,1401 7820,1401 7776,1400C7743,1399 7704,1395 7668,1395C7589,1394 7510,1395 7432,1395C6539,1395 429,1422 180,1385C180,1430 176,1499 183,1541C203,1666 203,1533 213,1658C339,1622 310,1554 314,1600C245,1626 298,1582 281,1678z"/>
   <path id="imagebot_53" fill="rgb(196, 196, 196)" d="M281,1756C305,1827 288,1810 360,1864L390,1887C417,1908 384,1885 419,1911C505,1975 478,1920 499,1971C630,2005 527,1992 567,1932C547,1922 512,1949 546,1907C570,1876 551,1899 564,1898L7365,1913C7429,1902 7382,1936 7415,1889C7432,1935 7406,1924 7420,1971C7490,1923 7483,1873 7599,1752C7601,1749 7605,1745 7608,1742C7611,1739 7615,1735 7618,1732L7656,1678C7515,1622 6088,1659 5816,1659C4139,1659 2462,1659 785,1659C701,1659 404,1701 366,1642L281,1678C304,1700 326,1706 348,1717C308,1777 411,1790 281,1756z"/>
   <path id="imagebot_54" fill="rgb(234, 232, 233)" d="M7054,2577C7031,2669 6974,2732 6927,2790L6774,3002C6772,3006 6770,3011 6768,3015C6688,3152 6628,3292 6549,3283C6528,3373 6540,3303 6552,3329C6553,3331 6558,3337 6559,3338C6561,3341 6568,3351 6569,3347C6571,3344 6577,3352 6581,3356C6578,3360 6572,3364 6571,3366C6569,3369 6563,3374 6561,3376C6525,3420 6540,3435 6540,3431C6540,3429 6541,3437 6540,3440C6449,3467 6385,3606 6287,3689C6267,3706 6256,3713 6240,3730L6134,3821C6131,3817 6124,3829 6119,3832L6097,3818C6094,3915 6102,3881 6061,3933C6013,3994 6034,3936 5955,4025L5760,4247C5758,4250 5754,4254 5752,4257C5677,4343 5679,4344 5645,4347C5631,4426 5606,4418 5503,4493C5500,4495 5495,4498 5492,4501C5393,4573 5417,4526 5274,4620C5204,4667 5225,4635 5148,4651C5107,4659 5132,4653 5085,4675C4963,4732 5026,4750 4957,4768C4892,4785 4965,4707 4874,4790C4830,4858 4856,4839 4773,4858C4757,4789 4738,4764 4738,4707C4736,4614 4728,4697 4745,4669L4672,4676C4657,4748 4665,4733 4617,4795C4553,4876 4554,4834 4506,4853C4504,4854 4500,4857 4497,4858C4495,4859 4490,4863 4488,4864C4331,4952 4474,4788 4387,4757C4309,4730 4423,4780 4303,4787C4267,4788 4252,4772 4235,4758C4181,4821 4232,4814 4117,4820C4149,4694 4108,4754 4207,4683C4186,4654 4219,4654 4167,4644C4300,4634 4180,4651 4227,4621L4268,4585C4267,4588 4268,4593 4268,4594C4269,4595 4269,4601 4270,4602C4295,4631 4316,4623 4336,4624C4339,4620 4343,4612 4345,4609C4397,4531 4352,4573 4404,4578L4481,4390C4448,4337 4416,4374 4437,4241L4554,4254L4622,4075C4579,4097 4583,4081 4537,4092L4382,4196C4359,4209 4379,4203 4345,4215C4310,4227 4366,4211 4302,4225C4131,4263 4336,4301 4168,4291C4044,4284 4134,4319 4100,4234C4122,4254 4102,4248 4111,4266C4148,4340 4133,4202 4150,4371C4029,4351 4126,4372 4050,4332C4083,4286 4071,4345 4083,4390L3915,4390C3915,4461 3912,4454 3873,4497C3836,4539 3798,4542 3747,4546C3719,4508 3713,4493 3713,4429C3709,4434 3700,4437 3697,4438C3569,4472 3646,4429 3646,4429C3658,4495 3657,4400 3656,4487C3655,4611 3646,4527 3646,4527C3724,4554 3633,4546 3677,4521L3716,4507C3718,4502 3725,4506 3730,4507L3730,4644L3608,4719C3605,4720 3600,4720 3597,4721L3561,4714C3561,4714 3543,4702 3511,4702C3481,4771 3501,4760 3451,4759C3447,4759 3433,4754 3428,4753C3286,4722 3225,4760 3147,4753L3075,4737C2885,4687 2978,4755 2904,4773C2842,4788 2867,4728 2807,4678C2763,4643 2725,4666 2674,4662C2587,4655 2647,4662 2619,4638L2578,4596C2575,4687 2588,4641 2554,4655C2587,4716 2556,4737 2586,4761L2632,4732C2636,4721 2646,4724 2653,4722C2671,4749 2655,4725 2690,4751L2733,4781C2760,4802 2784,4817 2788,4858L2735,4861C2681,4853 2765,4828 2716,4867L2687,4897C2684,4892 2682,4885 2681,4881C2680,4878 2677,4870 2676,4866C2675,4863 2673,4856 2671,4854C2670,4851 2669,4846 2667,4844C2656,4826 2558,4882 2442,4806C2439,4804 2435,4801 2432,4799C2429,4796 2424,4792 2422,4790C2418,4787 2398,4760 2395,4757C2380,4880 2345,4751 2365,4841C2369,4844 2374,4846 2376,4848L2438,4875C2485,4894 2454,4866 2489,4898L3031,4950C3249,4919 3109,4890 3247,4930C3367,4964 3429,4940 3496,4922C3749,4855 3851,5005 3982,4954L4333,4912C4358,4915 4362,4917 4372,4920C4375,4921 4380,4923 4383,4925C4426,4939 4445,4953 4499,4936C4550,4920 4576,4872 4644,4893C4696,4909 4639,4909 4723,4924C4926,4960 4936,4801 5018,4819C5018,4819 5039,4830 5046,4834L5076,4861C5169,4800 5041,4827 5177,4802C5236,4792 5287,4784 5346,4721C5398,4665 5370,4671 5443,4645L5509,4621C5585,4584 5551,4588 5596,4546C5625,4519 5621,4527 5651,4511C5694,4488 5664,4507 5707,4478L5761,4443C5808,4400 5774,4444 5793,4386C5822,4299 5772,4309 5897,4308C5901,4185 5925,4205 5934,4195L5996,4148C6206,4014 5935,4247 6112,4045C6164,3987 6211,3959 6253,3885C6282,3833 6227,3894 6292,3828L6393,3713C6424,3684 6431,3688 6460,3673C6502,3644 6540,3598 6570,3549C6590,3516 6601,3495 6619,3468C6632,3448 6646,3423 6658,3406L6806,3191C6843,3151 6816,3153 6852,3157C6917,3018 6878,3198 7012,2967C7014,2963 7017,2959 7019,2955L7084,2888C7089,2842 7134,2496 7131,2474C7089,2484 7133,2461 7097,2520C7084,2541 7075,2558 7054,2577z"/>
   <path id="imagebot_55" fill="rgb(236, 233, 235)" d="M5379,3350C5375,3356 5371,3362 5368,3366L5346,3396C5252,3504 5202,3377 5098,3481L5044,3534C4956,3600 4928,3570 4807,3571L4804,3580C4804,3581 4802,3585 4801,3586C4765,3638 4691,3639 4622,3668C4622,3667 4626,3667 4626,3667C4626,3667 4629,3667 4630,3667L4633,3676C4635,3739 4644,3678 4622,3727C4509,3727 4448,3746 4336,3746C4337,3745 4339,3750 4339,3750C4348,3799 4344,3775 4330,3792C4274,3862 4245,3793 4120,3902C4153,3986 4160,3971 4205,4014L4256,4083C4272,4130 4266,4141 4266,4195L3951,4193C3957,4060 3958,4141 3982,4054C4035,3861 3900,4051 3745,3947L3624,3864C3623,3863 3614,3855 3577,3852C3571,3920 3607,3835 3607,4045C3692,4038 3631,4050 3711,4062C3716,4062 3785,4065 3804,4070L3814,4102C3846,4201 3828,4112 3916,4169L3946,4193C3949,4195 3953,4198 3956,4200L4010,4226C4013,4221 4020,4230 4025,4234C4020,4238 4015,4241 4011,4243L3764,4407C3728,4390 3675,4423 3730,4351C3685,4412 3703,4388 3610,4390C3610,4592 3561,4412 3586,4509C3617,4631 3617,4454 3644,4641C3523,4637 3462,4513 3476,4378C3483,4305 3496,4332 3477,4246C3415,3971 3462,4078 3445,3990C3426,3891 3406,3963 3390,3881C3382,3840 3387,3845 3395,3815C3407,3767 3417,3765 3420,3758L3389,3770C3350,3781 3339,3763 3334,3760C3287,3732 3341,3734 3203,3721C3224,3759 3207,3731 3228,3761C3247,3789 3232,3766 3252,3794C3267,3812 3280,3829 3291,3845C3242,3893 3263,3865 3201,3883C3206,3939 3223,3946 3259,3980C3251,4059 3244,4031 3237,4101C3235,4123 3229,4235 3231,4254C3242,4363 3310,4315 3279,4479L3273,4475C3310,4499 3292,4456 3316,4514C3389,4475 3257,4481 3393,4461C3420,4502 3407,4420 3413,4521L3400,4553C3417,4557 3456,4562 3471,4574C3587,4660 3350,4677 3350,4677C3268,4699 3176,4769 3124,4644C3052,4729 2916,4647 2822,4634C2693,4616 2646,4616 2525,4545L2554,4655C2588,4641 2575,4687 2578,4596L2619,4638C2647,4662 2587,4655 2674,4662C2725,4666 2763,4643 2807,4678C2867,4728 2842,4788 2904,4773C2978,4755 2885,4687 3075,4737L3147,4753C3225,4760 3286,4722 3428,4753C3433,4754 3447,4759 3451,4759C3501,4760 3481,4771 3511,4702C3543,4702 3561,4714 3561,4714L3597,4721C3600,4720 3605,4720 3608,4719L3730,4644L3730,4507C3725,4506 3718,4502 3716,4507L3677,4521C3633,4546 3724,4554 3646,4527C3646,4527 3655,4611 3656,4487C3657,4400 3658,4495 3646,4429C3646,4429 3569,4472 3697,4438C3700,4437 3709,4434 3713,4429C3713,4493 3719,4508 3747,4546C3798,4542 3836,4539 3873,4497C3912,4454 3915,4461 3915,4390L4083,4390C4071,4345 4083,4286 4050,4332C4126,4372 4029,4351 4150,4371C4133,4202 4148,4340 4111,4266C4102,4248 4122,4254 4100,4234C4134,4319 4044,4284 4168,4291C4336,4301 4131,4263 4302,4225C4366,4211 4310,4227 4345,4215C4379,4203 4359,4209 4382,4196L4537,4092C4583,4081 4579,4097 4622,4075C4649,4084 4599,4177 4787,4177C4810,4103 4781,4138 4902,4087C5089,4007 4969,3892 4945,3829C4966,3815 4999,3788 5004,3772C5018,3732 5012,3788 5003,3744C5002,3740 4988,3708 4986,3700C5122,3688 5080,3693 5080,3575C5133,3595 5099,3606 5173,3602C5209,3599 5209,3599 5238,3642C5250,3574 5228,3611 5231,3551C5310,3530 5306,3516 5320,3599L5322,3486C5406,3503 5358,3522 5433,3444L5471,3407C5475,3404 5479,3402 5483,3399L5532,3371C5560,3349 5552,3361 5564,3317L5963,3153C6009,3120 6047,3105 6107,3087C6246,3014 6394,2939 6530,2840C6594,2795 6596,2785 6679,2760C6710,2691 6770,2707 6817,2606L5379,3350z"/>
   <path id="imagebot_56" fill="rgb(244, 243, 244)" d="M7210,2398L7187,2436L7131,2474C7134,2496 7089,2842 7084,2888L7019,2955C7017,2959 7014,2963 7012,2967C6878,3198 6917,3018 6852,3157C6765,3472 6827,3422 6811,3610L6826,3610L6829,3883L6927,3875C6939,3831 6947,3751 6942,3705C6925,3526 6881,3668 6893,3571C6915,3478 6868,3616 6906,3541C6946,3461 6966,3426 7037,3413C7120,3398 7073,3385 7100,3433C7137,3407 7113,3426 7090,3483C7059,3557 7067,3494 7050,3599C7087,3586 7092,3546 7081,3703C7077,3763 7079,3883 7054,3940C7005,4053 7031,4022 7041,4213L7040,4549C7039,4649 7006,4791 6928,4844C6928,4750 6920,4657 6924,4574C6929,4466 6917,4439 6858,4368C6853,4362 6848,4356 6843,4351C6843,4459 6837,4481 6822,4548C6803,4634 6832,4701 6797,4745C6796,4793 6797,4844 6788,4891C6787,4898 6743,5002 6769,4944C6740,4907 6755,4857 6754,4787C6731,4751 6738,4729 6725,4683C6650,4705 6570,4745 6528,4827L6588,5062C6612,5165 6594,5118 6587,5229C6648,5229 6626,5303 6627,5366C6672,5328 6713,5305 6775,5327C6780,5341 6787,5318 6784,5387C6781,5433 6783,5454 6727,5489L6792,5509L6792,5288C6994,5288 6946,5247 7061,5288L7078,5288C7078,5095 7059,5092 7099,5052L7112,5048C7132,5045 7110,5086 7129,5054C7073,5000 7108,4848 7112,4759L7092,4487C7089,4484 7086,4479 7083,4475L7094,4410C7115,4375 7102,4400 7112,4371C7132,4396 7166,4381 7157,4555C7195,4456 7178,4318 7179,4238C7179,4377 7206,4911 7167,4986C7169,4916 7210,4800 7195,4701L7162,4613C7140,5004 7185,4835 7174,5152C7172,5209 7178,5246 7179,5306C7190,5165 7179,5140 7213,5054C7165,5095 7191,5421 7205,5504C7234,5574 7225,5559 7269,5586L7260,5392C7260,5056 7205,2807 7270,2697L7267,2311C7211,2355 7253,2329 7210,2398z"/>
   <path id="imagebot_57" fill="rgb(230, 230, 230)" d="M944,2287L954,2296L956,2361C998,2271 963,2340 1004,2305C1074,2319 1110,2298 1148,2338C1194,2325 1184,2320 1185,2319C1187,2317 1192,2312 1194,2310L1371,2301C1318,2320 1275,2294 1208,2336C1238,2337 1283,2338 1309,2340C1314,2341 1319,2319 1386,2361L1356,2369C1181,2406 1142,2359 1003,2393C1031,2449 1013,2416 1021,2457C1097,2452 1286,2435 1348,2498L1374,2489L1435,2487C1440,2369 1416,2379 1391,2322C1530,2346 1639,2325 1778,2327L1896,2352C1901,2355 1908,2357 1913,2361C1907,2364 1900,2360 1896,2368L1779,2410C1868,2450 1834,2499 1963,2517C1963,2492 1965,2466 1960,2441C1948,2383 1964,2412 1931,2375C1911,2306 1940,2350 1978,2346L3242,2355C3385,2337 3489,2346 3629,2346C3796,2345 3848,2310 3968,2351C4009,2267 4004,2259 4086,2282L4091,2380C4183,2230 4093,2344 4403,2312C4386,2321 4401,2319 4354,2330L4167,2322C4239,2325 5126,2326 5194,2361C5108,2443 5028,2353 5016,2483C5160,2464 5275,2462 5430,2463C5494,2464 5570,2451 5619,2437C5623,2436 5657,2425 5657,2425C5734,2412 5700,2478 5725,2417L5513,2411C5472,2413 5454,2413 5412,2409L5311,2387C5306,2385 5300,2383 5295,2380C5327,2350 5297,2367 5344,2350C5448,2312 5545,2380 5699,2363C5948,2335 6472,2415 6737,2357C6797,2344 6889,2349 6960,2359C6914,2295 6954,2322 6876,2301C6876,2301 6799,2303 6792,2303C6818,2342 6997,2316 7073,2320C7155,2325 7045,2302 7106,2325L7112,2314L7154,2272C7194,2236 7187,2259 7207,2219C6688,2232 6137,2225 5614,2225C5092,2224 4549,2184 4031,2211C3634,2232 948,2169 848,2221C861,2232 874,2236 881,2240L944,2287z"/>
   <path id="imagebot_58" fill="rgb(239, 238, 239)" d="M2931,4184L2936,4255C3078,4267 3040,4410 3057,4526C3071,4623 3079,4560 3086,4635C2975,4649 2906,4588 2815,4534C2769,4506 2804,4543 2763,4498C2722,4453 2742,4435 2687,4397C2656,4459 2693,4515 2645,4546C2620,4563 2571,4526 2552,4509C2498,4461 2519,4461 2463,4446C2447,4442 2429,4443 2404,4436C2276,4400 2312,4355 2221,4330C2291,4502 2321,4423 2433,4511C2446,4521 2439,4549 2525,4545C2646,4616 2693,4616 2822,4634C2916,4647 3052,4729 3124,4644C3176,4769 3268,4699 3350,4677C3350,4677 3587,4660 3471,4574C3456,4562 3417,4557 3400,4553L3413,4521C3407,4420 3420,4502 3393,4461C3257,4481 3389,4475 3316,4514C3292,4456 3310,4499 3273,4475C3287,4624 3228,4717 3138,4610C3077,4538 3085,4402 3082,4302L3230,4340L3279,4479C3310,4315 3242,4363 3231,4254C3229,4235 3235,4123 3237,4101C3244,4031 3251,4059 3259,3980C3223,3946 3206,3939 3201,3883C3263,3865 3242,3893 3291,3845C3280,3829 3267,3812 3252,3794C3232,3766 3247,3789 3228,3761C3207,3731 3224,3759 3203,3721C3341,3734 3287,3732 3334,3760C3339,3763 3350,3781 3389,3770L3420,3758C3417,3765 3407,3767 3395,3815C3387,3845 3382,3840 3390,3881C3406,3963 3426,3891 3445,3990C3462,4078 3415,3971 3477,4246C3496,4332 3483,4305 3476,4378C3462,4513 3523,4637 3644,4641C3617,4454 3617,4631 3586,4509C3561,4412 3610,4592 3610,4390C3703,4388 3685,4412 3730,4351C3675,4423 3728,4390 3764,4407L4011,4243C4015,4241 4020,4238 4025,4234C4020,4230 4013,4221 4010,4226L3956,4200C3953,4198 3949,4195 3946,4193L3916,4169C3828,4112 3846,4201 3814,4102L3804,4070C3785,4065 3716,4062 3711,4062C3631,4050 3692,4038 3607,4045C3607,3835 3571,3920 3577,3852C3614,3855 3623,3863 3624,3864L3745,3947C3900,4051 4035,3861 3982,4054C3958,4141 3957,4060 3951,4193L4266,4195C4266,4141 4272,4130 4256,4083L4205,4014C4160,3971 4153,3986 4120,3902C4245,3793 4274,3862 4330,3792C4344,3775 4348,3799 4339,3750C4339,3750 4337,3745 4336,3746C4448,3746 4509,3727 4622,3727C4644,3678 4635,3739 4633,3676L4630,3667C4629,3667 4626,3667 4626,3667C4626,3667 4622,3667 4622,3668C4691,3639 4765,3638 4801,3586C4802,3585 4804,3581 4804,3580L4807,3571C4928,3570 4956,3600 5044,3534L5098,3481C5202,3377 5252,3504 5346,3396L5368,3366C5371,3362 5375,3356 5379,3350C5277,3366 5287,3351 5203,3389C5159,3410 5112,3417 5076,3437C5019,3468 4858,3548 4807,3471C4778,3562 4805,3511 4722,3550C4685,3568 4650,3584 4604,3591C4532,3601 4516,3590 4454,3612C4228,3696 4318,3613 4208,3658C4011,3739 4055,3663 3939,3697C3931,3700 3889,3722 3882,3727C3848,3754 3868,3717 3850,3765C3945,3790 3902,3790 3899,3818L3892,3851C3891,3854 3889,3860 3889,3863C3883,3890 3893,3870 3880,3899C3689,3881 3567,3758 3459,3742C3489,3667 3444,3632 3342,3614C3299,3606 3253,3609 3214,3600L2726,3386C2551,3318 2628,3370 2427,3269L2124,3151C2064,3123 2004,3085 1926,3070L2002,3140C2022,3152 2045,3164 2067,3174L2415,3322C2441,3332 2468,3343 2493,3352L2611,3391C2613,3392 2646,3406 2649,3407C2703,3432 2671,3410 2706,3450C2734,3481 2731,3487 2760,3504C2948,3613 2983,3475 2969,3692C3078,3642 2881,3754 3012,3657C3057,3625 2985,3648 3057,3630C3085,3687 3084,3693 3059,3741C3180,3745 3094,3735 3123,3767L3191,4256C3096,4242 3100,4267 3016,4221C3012,4219 3008,4216 3004,4214L2931,4184z"/>
   <path id="imagebot_59" fill="rgb(243, 241, 242)" d="M6192,4485C6106,4607 6204,4641 6124,4769C6102,4804 6106,4804 6085,4839C6021,4850 5964,4890 5966,4802C5967,4725 5961,4799 6049,4686L6006,4619C5963,4564 5991,4653 5960,4546C5973,4480 5977,4503 5990,4430L5989,4342C5988,4339 5987,4333 5985,4329C5901,4356 5978,4337 5915,4426C5869,4490 5855,4453 5791,4499C5788,4501 5784,4504 5781,4507L5590,4640C5486,4724 5612,4709 5385,4780C5321,4800 5249,4858 5199,4909L5177,4932C5108,4905 5138,4898 5070,4901C5065,4901 5042,4903 5038,4904L4759,5015C4727,5023 4630,5038 4588,5040C4462,5046 4207,5016 4118,5045C4022,5077 4037,5090 3836,5070C3707,5056 3729,5085 3678,5090C3615,5096 3353,4992 3140,5023C3059,5035 3041,5055 2996,5040C2734,4954 2785,5049 2566,4959C2491,4929 2522,4979 2489,4898C2454,4866 2485,4894 2438,4875L2376,4848C2374,4846 2369,4844 2365,4841C2345,4751 2380,4880 2395,4757C2303,4783 2399,4764 2314,4804C2242,4623 2334,4790 2176,4712C2160,4704 2171,4710 2154,4700C1947,4575 1998,4564 1925,4514C1880,4483 1851,4491 1811,4449C1773,4408 1780,4385 1711,4313L1645,4251C1600,4216 1584,4196 1524,4177C1521,4272 1537,4252 1635,4340L1779,4507C1829,4590 1836,4554 1995,4687C2077,4754 2076,4772 2159,4809C2331,4885 2287,4883 2300,4941C2369,4942 2524,5001 2597,5041C2641,5067 2604,5052 2654,5048L2783,5079C2929,5136 2968,5102 3132,5082C3229,5069 3204,5106 3310,5111C3378,5114 3455,5100 3529,5108C3880,5146 3765,5119 4085,5113L4823,5069C4983,5041 4946,4991 5177,5015C5281,4849 5244,4976 5406,4889C5448,4866 5482,4841 5519,4830L5645,4780C5640,4900 5579,4857 5641,4909C5619,4913 5602,4913 5588,4925C5560,4947 5589,4920 5575,4942L5571,4964C5630,4988 5582,4977 5648,4972L5884,4944C5961,4860 6111,4887 6165,4853C6213,4823 6193,4807 6220,4761C6248,4791 6246,4818 6287,4844C6334,4873 6355,4857 6405,4839C6399,4957 6310,4935 6422,4991C6442,4901 6407,4780 6452,4691C6453,4720 6452,4753 6454,4782L6470,4939C6471,4994 6476,4956 6489,5015C6400,5017 6423,5001 6409,5054C6459,5076 6485,5022 6550,5077L6588,5062L6528,4827C6570,4745 6650,4705 6725,4683C6738,4729 6731,4751 6754,4787C6730,4569 6697,4513 6694,4190L6719,3758C6731,3694 6727,3649 6731,3584C6690,3622 6713,3528 6691,3649C6691,3734 6690,3742 6663,3815C6617,3937 6663,3838 6676,3999C6687,4143 6652,4206 6634,4258C6605,4343 6721,4256 6618,4364C6693,4328 6672,4387 6674,4390C6612,4433 6645,4384 6624,4449C6699,4457 6655,4430 6663,4481C6539,4525 6658,4522 6514,4584C6482,4598 6504,4587 6483,4604L6439,4644C6383,4458 6380,4635 6267,4614C6264,4614 6259,4612 6256,4611C6206,4591 6241,4601 6192,4485z"/>
   <path id="imagebot_60" fill="rgb(223, 223, 223)" d="M689,5829C746,5801 720,5812 757,5844C795,5875 779,5876 808,5905C868,5966 1353,5954 1431,5915C1682,5790 3487,5823 3730,5823C4530,5823 5413,5802 6204,5844C6448,5857 6840,5940 6973,5917C6912,5856 6904,5894 6784,5860C6533,5788 5747,5740 5451,5710C5208,5686 4905,5677 4655,5664C4392,5650 4095,5650 3831,5658C3351,5674 2700,5679 2224,5742L1459,5826C1321,5833 1185,5854 1055,5861C897,5869 768,5806 823,5690C783,5745 739,5723 689,5829z"/>
   <path id="imagebot_61" fill="rgb(246, 244, 245)" d="M805,2380L806,2478L806,2780L803,3109L801,3688L802,3883L785,4766C787,4855 797,4933 778,5016C811,4962 800,4837 809,4763L827,4958C855,4703 786,4066 832,3895C860,3794 870,3816 884,3814C920,3676 915,3152 902,2985C900,2918 890,2816 904,2754C915,2704 902,2739 924,2708C930,2726 951,2778 955,2795C975,2895 948,2901 948,2901C1045,2860 1111,3058 1112,3063C1161,3091 1143,3067 1176,3123C1222,3150 1336,3335 1370,3398C1406,3464 1381,3449 1430,3507C1455,3537 1475,3549 1500,3582C1563,3661 1620,3780 1717,3824C1786,3795 1750,3819 1761,3785L1797,3807C1801,3810 1807,3814 1812,3817L1865,3855C1920,3876 1871,3861 1930,3824C1815,3754 1907,3828 1795,3785C1846,3712 1758,3727 2014,3727C2010,3735 1936,3744 1894,3667C1855,3596 1919,3610 1812,3610C1830,3531 1819,3554 1862,3512C1801,3523 1836,3528 1787,3502L1800,3428C1781,3338 1700,3313 1594,3198C1563,3164 1574,3171 1544,3137C1509,3097 1424,3028 1393,2971C1378,2947 1340,2911 1319,2884C1219,2836 1127,2671 1061,2585L1048,2555C987,2412 986,2564 916,2425L849,2392C834,2366 823,2437 835,2332L810,2320L805,2380z"/>
   <path id="imagebot_62" fill="rgb(239, 238, 239)" d="M2489,4898C2522,4979 2491,4929 2566,4959C2785,5049 2734,4954 2996,5040C3041,5055 3059,5035 3140,5023C3353,4992 3615,5096 3678,5090C3729,5085 3707,5056 3836,5070C4037,5090 4022,5077 4118,5045C4207,5016 4462,5046 4588,5040C4630,5038 4727,5023 4759,5015L5038,4904C5042,4903 5065,4901 5070,4901C5138,4898 5108,4905 5177,4932L5199,4909C5249,4858 5321,4800 5385,4780C5612,4709 5486,4724 5590,4640L5781,4507C5784,4504 5788,4501 5791,4499C5855,4453 5869,4490 5915,4426C5978,4337 5901,4356 5985,4329C5987,4333 5988,4339 5989,4342L5990,4430C5977,4503 5973,4480 5960,4546C5991,4653 5963,4564 6006,4619L6049,4686C5961,4799 5967,4725 5966,4802C5964,4890 6021,4850 6085,4839C6106,4804 6102,4804 6124,4769C6204,4641 6106,4607 6192,4485L6198,4429C6167,4395 6162,4410 6138,4353C6221,4345 6187,4339 6211,4261C6236,4183 6237,4221 6271,4166C6271,4060 6268,4093 6220,4020C6364,3936 6152,3911 6424,3922C6413,3836 6416,3908 6444,3832C6469,3766 6461,3751 6460,3673C6431,3688 6424,3684 6393,3713L6292,3828C6227,3894 6282,3833 6253,3885C6211,3959 6164,3987 6112,4045C5935,4247 6206,4014 5996,4148L5934,4195C5925,4205 5901,4185 5897,4308C5772,4309 5822,4299 5793,4386C5774,4444 5808,4400 5761,4443L5707,4478C5664,4507 5694,4488 5651,4511C5621,4527 5625,4519 5596,4546C5551,4588 5585,4584 5509,4621L5443,4645C5370,4671 5398,4665 5346,4721C5287,4784 5236,4792 5177,4802C5041,4827 5169,4800 5076,4861L5046,4834C5039,4830 5018,4819 5018,4819C4936,4801 4926,4960 4723,4924C4639,4909 4696,4909 4644,4893C4576,4872 4550,4920 4499,4936C4445,4953 4426,4939 4383,4925C4380,4923 4375,4921 4372,4920C4362,4917 4358,4915 4333,4912L3982,4954C3851,5005 3749,4855 3496,4922C3429,4940 3367,4964 3247,4930C3109,4890 3249,4919 3031,4950L2489,4898z"/>
   <path id="imagebot_63" fill="rgb(205, 205, 205)" d="M735,5561L519,5756C510,5839 515,5808 580,5830C510,5876 564,5843 514,5911L479,5950C416,6030 451,5926 460,5982L530,5951C607,5910 620,5857 689,5829C739,5723 783,5745 823,5690C768,5806 897,5869 1055,5861C1185,5854 1321,5833 1459,5826L2224,5742C2700,5679 3351,5674 3831,5658C4095,5650 4392,5650 4655,5664C4905,5677 5208,5686 5451,5710C5747,5740 6533,5788 6784,5860C6904,5894 6912,5856 6973,5917C7097,5873 7153,5993 7240,5806L7303,5821C7274,5739 7276,5767 7196,5714C7194,5718 7192,5720 7192,5726L7177,5768C7141,5842 7061,5828 6994,5825L6085,5712C5875,5694 5686,5657 5463,5651C5241,5644 5035,5633 4811,5627L5646,5626L5623,5614C5620,5613 5615,5611 5611,5610L5548,5605C5296,5598 4106,5610 4066,5581L3996,5589L3972,5589C3829,5596 2609,5575 2524,5619L2691,5628C2580,5673 2338,5655 2211,5670L1728,5718C1570,5728 1408,5745 1250,5770C1117,5791 834,5867 877,5656L970,5639C1003,5637 1038,5640 1071,5638C1149,5634 1207,5619 1290,5620C1375,5620 1628,5648 1683,5611C1559,5621 1418,5613 1290,5613C1220,5612 1158,5620 1088,5624C881,5636 932,5625 917,5592L833,5605C853,5555 820,5577 878,5572L870,5522C816,5522 834,5533 848,5464L795,5514C792,5516 788,5520 785,5522C737,5564 797,5529 735,5561z"/>
   <path id="imagebot_64" fill="rgb(241, 238, 240)" d="M4091,2380C4059,2425 4070,2416 4002,2414C3980,2383 3986,2400 3968,2351C3848,2310 3796,2345 3629,2346C3489,2346 3385,2337 3242,2355C3247,2357 3255,2351 3258,2357L3545,2345C3609,2349 3628,2362 3696,2355C3853,2340 3818,2333 3864,2397C3798,2397 3760,2386 3696,2387C3639,2388 3602,2399 3545,2400C3413,2401 3421,2352 3278,2390C3274,2392 3268,2394 3264,2395C3260,2396 3254,2398 3249,2400C3252,2405 3256,2406 3257,2413L3338,2565C3354,2600 3581,2613 3616,2625C3755,2671 3663,2772 3931,2611L3998,2552C4083,2487 4111,2545 4193,2561C4264,2576 4278,2534 4378,2509C4380,2509 4385,2507 4387,2507C4524,2473 5566,2516 5622,2545C5681,2575 5703,2629 5811,2597C5972,2551 6363,2491 6409,2454C6299,2453 6177,2452 6085,2477C6026,2493 6024,2498 5952,2511C5871,2525 5861,2550 5774,2554C5792,2440 5804,2412 5899,2397L6633,2396C6628,2400 6621,2398 6618,2406C6611,2428 6603,2415 6591,2423C6556,2444 6575,2425 6545,2451C6594,2453 6777,2430 6817,2388L7085,2354C7085,2351 7085,2345 7086,2347C7088,2350 7092,2339 7095,2337C7099,2334 7106,2329 7112,2325L7106,2325C7045,2302 7155,2325 7073,2320C6997,2316 6818,2342 6792,2303C6799,2303 6876,2301 6876,2301C6954,2322 6914,2295 6960,2359C6889,2349 6797,2344 6737,2357C6472,2415 5948,2335 5699,2363C5545,2380 5448,2312 5344,2350C5297,2367 5327,2350 5295,2380C5300,2383 5306,2385 5311,2387L5412,2409C5454,2413 5472,2413 5513,2411L5725,2417C5700,2478 5734,2412 5657,2425C5657,2425 5623,2436 5619,2437C5570,2451 5494,2464 5430,2463C5275,2462 5160,2464 5016,2483C5028,2353 5108,2443 5194,2361C5126,2326 4239,2325 4167,2322L4354,2330C4401,2319 4386,2321 4403,2312C4093,2344 4183,2230 4091,2380z"/>
   <path id="imagebot_65" fill="rgb(231, 229, 230)" d="M4622,4075L4554,4254L4437,4241C4416,4374 4448,4337 4481,4390L4404,4578C4352,4573 4397,4531 4345,4609C4343,4612 4339,4620 4336,4624C4316,4623 4295,4631 4270,4602C4269,4601 4269,4595 4268,4594C4268,4593 4267,4588 4268,4585L4227,4621C4180,4651 4300,4634 4167,4644C4219,4654 4186,4654 4207,4683C4108,4754 4149,4694 4117,4820C4232,4814 4181,4821 4235,4758C4252,4772 4267,4788 4303,4787C4423,4780 4309,4730 4387,4757C4474,4788 4331,4952 4488,4864C4490,4863 4495,4859 4497,4858C4500,4857 4504,4854 4506,4853C4554,4834 4553,4876 4617,4795C4665,4733 4657,4748 4672,4676L4745,4669C4728,4697 4736,4614 4738,4707C4738,4764 4757,4789 4773,4858C4856,4839 4830,4858 4874,4790L4824,4800C4816,4720 4771,4719 4768,4646C4766,4604 4731,4641 4784,4598L4824,4680C4869,4565 4832,4584 4908,4488C4834,4500 4886,4481 4841,4511L4825,4533C4824,4533 4825,4538 4824,4540C4782,4521 4785,4516 4734,4507C4783,4439 4780,4350 4695,4391C4651,4412 4669,4391 4658,4473C4652,4521 4656,4557 4655,4605L4554,4605C4574,4541 4567,4573 4622,4533L4611,4500C4610,4496 4608,4489 4607,4483L4614,4359C4610,4316 4631,4361 4599,4332L4679,4363C4704,4375 4685,4372 4723,4371C4732,4344 4735,4381 4727,4344C4712,4279 4720,4333 4717,4332C4815,4327 4781,4295 4790,4364C4792,4361 4795,4350 4796,4353L4815,4324C4884,4252 4738,4385 4847,4303C4898,4264 4876,4247 4891,4215L4953,4247C5031,4122 5013,4208 5042,4020C5082,4025 5124,4032 5152,4044C5202,4064 5209,4016 5199,4104L5328,3740L5384,3811C5399,3791 5402,3784 5412,3750C5382,3712 5373,3806 5390,3701C5551,3590 5348,3685 5564,3473C5636,3402 5604,3400 5659,3375C5854,3286 5691,3340 5800,3284C5868,3249 6014,3199 6068,3143C6098,3111 6085,3127 6107,3087C6047,3105 6009,3120 5963,3153L5564,3317C5552,3361 5560,3349 5532,3371L5483,3399C5479,3402 5475,3404 5471,3407L5433,3444C5358,3522 5406,3503 5322,3486L5320,3599C5306,3516 5310,3530 5231,3551C5228,3611 5250,3574 5238,3642C5209,3599 5209,3599 5173,3602C5099,3606 5133,3595 5080,3575C5080,3693 5122,3688 4986,3700C4988,3708 5002,3740 5003,3744C5012,3788 5018,3732 5004,3772C4999,3788 4966,3815 4945,3829C4969,3892 5089,4007 4902,4087C4781,4138 4810,4103 4787,4177C4599,4177 4649,4084 4622,4075z"/>
   <path id="imagebot_66" fill="gainsboro" d="M7260,5392L7297,5387C7301,5316 7300,5262 7305,5190C7314,5065 7293,5100 7303,5021C7399,4969 7859,4988 7982,5005L7976,4063C7920,4129 7945,4318 7936,4454C7767,4438 7468,4391 7305,4463L7343,4351C7321,4313 7329,4330 7305,4317C7308,4360 7293,4459 7277,4504C7292,4354 7275,4106 7276,3951L7269,3727L7265,3376L7268,3174L7271,2803L7270,2697C7205,2807 7260,5056 7260,5392z"/>
   <path id="imagebot_67" fill="rgb(222, 220, 221)" d="M6599,3103L6590,3180C6480,3184 6502,3211 6455,3253L6390,3284C6318,3294 6420,3251 6304,3288C6292,3296 6281,3357 6206,3387L6181,3395C6121,3400 6145,3401 6128,3366C6132,3465 6092,3442 6085,3444C6080,3378 6095,3343 6043,3307L6117,3261C6143,3236 6148,3233 6133,3190L6016,3264C5961,3297 5957,3253 5923,3337C5927,3341 5934,3343 5938,3345L5970,3358C6072,3391 6018,3318 6057,3395C6047,3437 6053,3429 6035,3454C5944,3442 6021,3457 5977,3422C5973,3419 5959,3405 5956,3402L5923,3419C5922,3423 5920,3431 5919,3435C5918,3438 5918,3444 5918,3447C5911,3499 5919,3457 5919,3459L5923,3460C5873,3517 5931,3447 5881,3481C5821,3521 5887,3522 5799,3542C5710,3563 5771,3549 5749,3532C5734,3599 5658,3631 5693,3597C5715,3664 5718,4104 5597,3922L5581,4130C5550,4114 5543,4143 5534,4002C5527,3888 5516,3916 5514,3896C5513,3889 5510,3887 5508,3883C5569,3813 5564,3874 5564,3764L5491,3766L5476,3805L5459,3896L5502,3887C5502,3985 5515,3965 5516,4039C5394,4103 5530,3978 5424,4052L5447,4060C5449,4061 5453,4065 5455,4067C5483,4103 5476,4087 5491,4150L5345,4150C5316,4212 5306,4241 5306,4332C5323,4339 5293,4327 5319,4326C5321,4326 5328,4325 5331,4326C5333,4326 5337,4328 5339,4328C5340,4329 5345,4331 5347,4332C5349,4333 5353,4337 5355,4338L5373,4352C5392,4365 5393,4364 5412,4377C5421,4349 5425,4327 5435,4299C5560,4345 5454,4317 5598,4312C5603,4242 5562,4278 5622,4206C5677,4141 5668,4188 5721,4142L5778,4072C5849,3987 5844,4022 5901,3981C5909,3897 5889,3870 5954,3839L6050,3830C6054,3830 6059,3828 6064,3827L6097,3818L6119,3832C6133,3742 6158,3679 6165,3595C6308,3586 6199,3595 6300,3532C6301,3464 6312,3445 6325,3400C6372,3400 6393,3405 6422,3417L6436,3357C6448,3317 6423,3314 6549,3283C6628,3292 6688,3152 6768,3015C6770,3011 6772,3006 6774,3002L6927,2790C6974,2732 7031,2669 7054,2577C6900,2651 6983,2668 6888,2747C6772,2844 6881,2752 6804,2862L6641,3022C6566,2981 6644,2998 6574,2976L6552,3044C6575,3098 6583,3070 6599,3103z"/>
   <path id="imagebot_68" fill="rgb(223, 223, 223)" d="M7260,5392L7269,5586C7246,5632 7302,5645 7233,5615C7266,5646 7261,5630 7280,5674L7293,5645C7293,5644 7295,5639 7297,5636L7324,5659L7312,5581C7382,5583 7328,5584 7328,5583C7327,5582 7325,5579 7325,5578C7263,5385 7393,5404 7465,5404L7942,5405C7966,5362 7956,6280 7953,6400C7876,6356 7900,6339 7945,6322C7938,6246 7917,6234 7877,6195C7874,6191 7863,6181 7860,6176C7857,6174 7854,6169 7852,6166C7850,6163 7847,6158 7845,6155C7807,6102 7863,6124 7773,6088L7761,6151C7685,6067 7692,6132 7600,6029C7615,6086 7642,6116 7676,6157L7812,6305C7812,6305 7816,6306 7819,6305C7682,6285 7773,6228 7653,6210C7672,6250 7657,6222 7684,6265C7688,6269 7698,6284 7701,6288L7717,6312L7803,6378C7819,6393 7823,6402 7836,6419C7914,6519 7914,6532 7957,6546C7978,6957 7996,7583 7969,7997L7953,8000L7987,8000L7987,5015L7982,5005C7859,4988 7399,4969 7303,5021C7293,5100 7314,5065 7305,5190C7300,5262 7301,5316 7297,5387L7260,5392z"/>
   <path id="imagebot_69" fill="rgb(214, 214, 214)" d="M84,4098C161,4153 94,4081 120,4155C142,4215 129,4254 129,4332C127,4331 122,4327 122,4329L120,4316C151,4261 95,4333 157,4273C166,4438 170,4407 146,4436C146,4376 145,4370 156,4312L174,4189C206,4216 177,4186 203,4228C216,4250 214,4248 230,4280C405,4280 635,4291 769,4260C769,4089 778,4027 802,3883L801,3688C730,3744 798,3716 701,3723L129,3723L110,3369L107,3180L111,2946C111,2899 116,2831 95,2785L84,4098z"/>
   <path id="imagebot_70" fill="rgb(248, 246, 247)" d="M6627,5366C6624,5402 6616,5446 6602,5475C6557,5572 6604,5516 6540,5526C6514,5462 6568,5293 6587,5229C6594,5118 6612,5165 6588,5062L6550,5077C6493,5102 6512,5105 6449,5149C6402,5182 6450,5136 6406,5191C6353,5259 6353,5256 6278,5287L6171,5366L6130,5433C6128,5436 6125,5441 6124,5444C6122,5448 6119,5452 6117,5456L6069,5561C6253,5527 6351,5571 6456,5558C6504,5552 6432,5530 6519,5551C6609,5573 6497,5542 6592,5600L6641,5626L7146,5646C7142,5660 7150,5656 7134,5625L7094,5600C7054,5560 7061,5659 7061,5533C7010,5505 7018,5497 7069,5453C7099,5427 7135,5392 7151,5444L7181,5459C7184,5463 7190,5475 7196,5481L7195,5504L7205,5504C7191,5421 7165,5095 7213,5054C7179,5140 7190,5165 7179,5306C7178,5246 7172,5209 7174,5152C7185,4835 7140,5004 7162,4613L7195,4701C7210,4800 7169,4916 7167,4986C7206,4911 7179,4377 7179,4238C7178,4318 7195,4456 7157,4555C7166,4381 7132,4396 7112,4371C7102,4400 7115,4375 7094,4410L7083,4475C7086,4479 7089,4484 7092,4487L7112,4759C7108,4848 7073,5000 7129,5054C7110,5086 7132,5045 7112,5048L7099,5052C7059,5092 7078,5095 7078,5288L7061,5288C6946,5247 6994,5288 6792,5288L6792,5509L6727,5489C6783,5454 6781,5433 6784,5387C6787,5318 6780,5341 6775,5327C6713,5305 6672,5328 6627,5366z"/>
   <path id="imagebot_71" fill="rgb(225, 225, 225)" d="M778,5016C751,5154 795,5320 752,5424C728,5342 736,5054 731,5039C699,4995 228,5012 197,5017L131,5019L118,4629L116,4451L99,5385C119,5416 111,5392 123,5443C138,5504 129,5542 129,5607C110,5573 118,5500 118,5444L204,5400C205,5400 213,5344 202,5418C280,5418 658,5393 721,5444C704,5487 687,5497 634,5519L652,5592C652,5593 650,5598 651,5600C702,5544 691,5570 735,5561C797,5529 737,5564 785,5522C788,5520 792,5516 795,5514L848,5464L917,5470C875,5356 847,5061 855,4905C866,4688 831,4536 837,4308C878,4403 829,4496 875,4545L884,3814C870,3816 860,3794 832,3895C786,4066 855,4703 827,4958L809,4763C800,4837 811,4962 778,5016z"/>
   <path id="imagebot_72" fill="rgb(232, 230, 231)" d="M1281,3739C1342,4047 1416,3961 1475,4066L1510,4134C1526,4168 1521,4103 1524,4177C1584,4196 1600,4216 1645,4251L1711,4313C1780,4385 1773,4408 1811,4449C1851,4491 1880,4483 1925,4514C1998,4564 1947,4575 2154,4700C2171,4710 2160,4704 2176,4712C2334,4790 2242,4623 2314,4804C2399,4764 2303,4783 2395,4757C2398,4760 2418,4787 2422,4790C2424,4792 2429,4796 2432,4799C2435,4801 2439,4804 2442,4806C2558,4882 2656,4826 2667,4844C2669,4846 2670,4851 2671,4854C2673,4856 2675,4863 2676,4866C2677,4870 2680,4878 2681,4881C2682,4885 2684,4892 2687,4897L2716,4867C2765,4828 2681,4853 2735,4861L2788,4858C2784,4817 2760,4802 2733,4781L2690,4751C2655,4725 2671,4749 2653,4722C2646,4724 2636,4721 2632,4732L2586,4761C2556,4737 2587,4716 2554,4655L2525,4545C2439,4549 2446,4521 2433,4511C2321,4423 2291,4502 2221,4330L2183,4332C2038,4299 2052,4261 1949,4172C1789,4034 1897,4182 1765,3975C1743,3939 1689,3902 1666,3876C1616,3821 1483,3594 1420,3567C1421,3742 1421,3551 1531,3777C1606,3930 1584,3765 1641,3980C1665,3993 1683,3968 1721,4000C1724,4094 1737,4051 1715,4176C1799,4136 1740,4137 1812,4146C1839,4250 1855,4207 1858,4307C1766,4343 1781,4327 1708,4226C1638,4131 1609,4118 1558,4062C1551,4053 1543,4043 1532,4030C1482,3972 1454,3947 1446,3829L1374,3849C1303,3694 1364,3734 1281,3739z"/>
   <path id="imagebot_73" fill="rgb(246, 244, 245)" d="M6460,3673C6461,3751 6469,3766 6444,3832C6416,3908 6413,3836 6424,3922C6424,3977 6424,4148 6418,4186C6409,4238 6433,4246 6366,4224C6269,4192 6426,4152 6271,4166C6237,4221 6236,4183 6211,4261C6187,4339 6221,4345 6138,4353C6162,4410 6167,4395 6198,4429L6192,4485C6241,4601 6206,4591 6256,4611C6259,4612 6264,4614 6267,4614C6380,4635 6383,4458 6439,4644L6483,4604C6504,4587 6482,4598 6514,4584C6658,4522 6539,4525 6663,4481C6655,4430 6699,4457 6624,4449C6645,4384 6612,4433 6674,4390C6672,4387 6693,4328 6618,4364C6721,4256 6605,4343 6634,4258C6652,4206 6687,4143 6676,3999C6663,3838 6617,3937 6663,3815C6690,3742 6691,3734 6691,3649C6713,3528 6690,3622 6731,3584L6740,3434C6697,3390 6717,3407 6658,3406C6646,3423 6632,3448 6619,3468C6601,3495 6590,3516 6570,3549C6540,3598 6502,3644 6460,3673z"/>
   <path id="imagebot_74" fill="rgb(228, 226, 227)" d="M1061,2585C1127,2671 1219,2836 1319,2884C1317,2880 1313,2874 1312,2871L1257,2732C1318,2753 1452,2868 1526,2920L1602,2972C1605,2975 1609,2977 1613,2980C1617,2982 1621,2985 1625,2987C1641,2998 1654,3005 1669,3017C1849,3156 1794,3043 1862,3162C1922,3268 1981,3238 2031,3278C1981,3356 1983,3283 1950,3372C1935,3240 1945,3341 1900,3310C1848,3275 1896,3321 1844,3260L1720,3171C1632,3106 1662,3172 1589,3087C1547,3037 1519,3023 1458,2985C1490,3082 1466,3028 1538,3089C1596,3138 1580,3147 1685,3226C1725,3255 1730,3261 1767,3290C1828,3339 1803,3319 1849,3372C1945,3484 1967,3454 2021,3486C2080,3521 2041,3516 2080,3555C2362,3630 2194,3524 2298,3630C2319,3650 2357,3679 2380,3709C2416,3754 2416,3773 2434,3844L2425,3841L2501,3867C2488,3761 2494,3833 2502,3763C2508,3702 2499,3737 2518,3688L2687,3668C2689,3574 2673,3611 2715,3584C2625,3572 2661,3599 2586,3610L2583,3499C2530,3482 2570,3500 2510,3528L2500,3401C2307,3374 2361,3339 2291,3316C2145,3267 2271,3339 2071,3214C2039,3194 2004,3180 1978,3167L1680,2959C1636,2935 1572,2888 1534,2860C1484,2824 1428,2797 1379,2763C1321,2724 1119,2610 1099,2544C1035,2547 1063,2518 1061,2585z"/>
   <path id="imagebot_75" fill="rgb(217, 217, 217)" d="M84,4098L79,4451L79,6127L79,6107L99,5385L116,4451L118,4629C139,4616 136,4635 155,4644L189,4625C191,4624 195,4622 197,4621C199,4621 203,4619 205,4618C207,4618 212,4617 214,4617C218,4616 231,4616 236,4616C281,4616 333,4620 381,4620C453,4619 678,4617 718,4657C719,4659 722,4663 722,4665L722,4737C716,4857 745,4713 752,4897C754,4955 744,4977 760,5029C755,4983 753,4945 756,4897C757,4883 763,4833 766,4820C777,4774 774,4787 785,4766L802,3883C778,4027 769,4089 769,4260C635,4291 405,4280 230,4280C214,4248 216,4250 203,4228C177,4186 206,4216 174,4189L156,4312C145,4370 146,4376 146,4436C170,4407 166,4438 157,4273C95,4333 151,4261 120,4316L122,4329C122,4327 127,4331 129,4332C129,4254 142,4215 120,4155C94,4081 161,4153 84,4098z"/>
   <path id="imagebot_76" fill="rgb(202, 202, 202)" d="M7968,1541C7969,1601 7954,1655 7951,1717C7947,1775 7950,1841 7950,1899L7942,2374C7817,2344 7401,2340 7308,2380C7275,2243 7327,2313 7249,2291C7225,2289 7209,2325 7246,2263C7174,2271 7215,2226 7185,2317C7209,2332 7237,2290 7210,2398C7253,2329 7211,2355 7267,2311L7270,2697L7271,2803L7314,2790L7936,2775C7940,2710 7937,2629 7939,2557C7941,2485 7935,2423 7964,2361L7953,1502C7986,1491 7960,1481 7968,1541z"/>
   <path id="imagebot_77" fill="rgb(228, 228, 228)" d="M99,5385L79,6107C162,6166 166,6093 166,6093C181,6027 159,6084 246,6005C278,5976 295,5948 334,5913L519,5756L735,5561C691,5570 702,5544 651,5600C650,5598 652,5593 652,5592L634,5519C687,5497 704,5487 721,5444C658,5393 280,5418 202,5418C213,5344 205,5400 204,5400L118,5444C118,5500 110,5573 129,5607C129,5542 138,5504 123,5443C111,5392 119,5416 99,5385z"/>
   <path id="imagebot_78" fill="rgb(248, 246, 247)" d="M1717,3824C1805,3930 1830,4009 1929,4061C2052,4125 1986,4107 2047,4156C2109,4174 2253,4265 2296,4318C2326,4356 2292,4387 2499,4393C2471,4296 2485,4395 2450,4290C2427,4222 2444,4240 2427,4194L2414,4163C2335,3976 2338,4132 2333,3962C2320,3810 2236,3880 2143,3751L2003,3623C1865,3511 1857,3453 1800,3428L1787,3502C1836,3528 1801,3523 1862,3512C1819,3554 1830,3531 1812,3610C1919,3610 1855,3596 1894,3667C1936,3744 2010,3735 2014,3727C1758,3727 1846,3712 1795,3785C1907,3828 1815,3754 1930,3824C1871,3861 1920,3876 1865,3855L1812,3817C1807,3814 1801,3810 1797,3807L1761,3785C1750,3819 1786,3795 1717,3824z"/>
   <path id="imagebot_79" fill="rgb(225, 223, 224)" d="M5645,4347C5679,4344 5677,4343 5752,4257C5754,4254 5758,4250 5760,4247L5955,4025C6034,3936 6013,3994 6061,3933C6102,3881 6094,3915 6097,3818L6064,3827C6059,3828 6054,3830 6050,3830L5954,3839C5889,3870 5909,3897 5901,3981C5844,4022 5849,3987 5778,4072L5721,4142C5668,4188 5677,4141 5622,4206C5562,4278 5603,4242 5598,4312C5454,4317 5560,4345 5435,4299C5425,4327 5421,4349 5412,4377C5393,4364 5392,4365 5373,4352L5355,4338C5353,4337 5349,4333 5347,4332C5345,4331 5340,4329 5339,4328C5337,4328 5333,4326 5331,4326C5328,4325 5321,4326 5319,4326C5293,4327 5323,4339 5306,4332C5306,4241 5316,4212 5345,4150L5491,4150C5476,4087 5483,4103 5455,4067C5453,4065 5449,4061 5447,4060L5424,4052C5530,3978 5394,4103 5516,4039C5515,3965 5502,3985 5502,3887L5459,3896L5476,3805C5424,3826 5409,3851 5369,3892L5256,4053C5220,4145 5286,4156 5115,4228C5126,4156 5119,4190 5136,4150C5157,4100 5161,4114 5166,4111C5140,4093 5122,4091 5076,4091C5068,4148 5073,4112 5057,4146C5054,4151 5046,4166 5043,4172C4959,4342 4991,4286 4990,4440C4990,4659 4985,4531 4958,4663L5042,4641C5073,4540 5097,4499 5127,4410C5191,4429 5169,4401 5218,4461C5243,4491 5241,4497 5244,4546L5278,4546C5288,4399 5328,4498 5428,4431C5464,4407 5492,4327 5645,4347z"/>
   <path id="imagebot_80" fill="rgb(205, 205, 205)" d="M7271,2803L7268,3174C7295,3176 7302,3184 7330,3153L7346,3125C7348,3122 7350,3114 7353,3109C7358,3141 7323,3166 7464,3163L7936,3155L7968,2771L7964,2361C7935,2423 7941,2485 7939,2557C7937,2629 7940,2710 7936,2775L7314,2790L7271,2803z"/>
   <path id="imagebot_81" fill="rgb(205, 205, 205)" d="M111,2946L107,3180C328,3117 579,3206 763,3148L783,3285L798,3126C799,3121 801,3115 803,3109L806,2780L743,2769C588,2780 269,2805 146,2771L146,2951L111,2946z"/>
   <path id="imagebot_82" fill="rgb(221, 221, 221)" d="M118,4629L131,5019L197,5017C228,5012 699,4995 731,5039C736,5054 728,5342 752,5424C795,5320 751,5154 778,5016C797,4933 787,4855 785,4766C774,4787 777,4774 766,4820C763,4833 757,4883 756,4897C753,4945 755,4983 760,5029C744,4977 754,4955 752,4897C745,4713 716,4857 722,4737L722,4665C722,4663 719,4659 718,4657C678,4617 453,4619 381,4620C333,4620 281,4616 236,4616C231,4616 218,4616 214,4617C212,4617 207,4618 205,4618C203,4619 199,4621 197,4621C195,4622 191,4624 189,4625L155,4644C136,4635 139,4616 118,4629z"/>
   <path id="imagebot_83" fill="rgb(228, 226, 227)" d="M4874,4790C4965,4707 4892,4785 4957,4768C5026,4750 4963,4732 5085,4675C5132,4653 5107,4659 5148,4651C5225,4635 5204,4667 5274,4620C5417,4526 5393,4573 5492,4501C5495,4498 5500,4495 5503,4493C5606,4418 5631,4426 5645,4347C5492,4327 5464,4407 5428,4431C5328,4498 5288,4399 5278,4546L5244,4546C5241,4497 5243,4491 5218,4461C5169,4401 5191,4429 5127,4410C5097,4499 5073,4540 5042,4641L4958,4663C4985,4531 4990,4659 4990,4440C4991,4286 4959,4342 5043,4172C5046,4166 5054,4151 5057,4146C5073,4112 5068,4148 5076,4091C5122,4091 5140,4093 5166,4111C5161,4114 5157,4100 5136,4150C5119,4190 5126,4156 5115,4228C5286,4156 5220,4145 5256,4053L5369,3892C5409,3851 5424,3826 5476,3805L5491,3766C5486,3763 5464,3751 5459,3749C5455,3748 5448,3747 5444,3746C5417,3739 5442,3744 5412,3750C5402,3784 5399,3791 5384,3811L5328,3740L5199,4104C5209,4016 5202,4064 5152,4044C5124,4032 5082,4025 5042,4020C5013,4208 5031,4122 4953,4247L4891,4215C4876,4247 4898,4264 4847,4303C4738,4385 4884,4252 4815,4324L4796,4353C4795,4350 4792,4361 4790,4364C4781,4295 4815,4327 4717,4332C4720,4333 4712,4279 4727,4344C4735,4381 4732,4344 4723,4371C4685,4372 4704,4375 4679,4363L4599,4332C4631,4361 4610,4316 4614,4359L4607,4483C4608,4489 4610,4496 4611,4500L4622,4533C4567,4573 4574,4541 4554,4605L4655,4605C4656,4557 4652,4521 4658,4473C4669,4391 4651,4412 4695,4391C4780,4350 4783,4439 4734,4507C4785,4516 4782,4521 4824,4540C4825,4538 4824,4533 4825,4533L4841,4511C4886,4481 4834,4500 4908,4488C4832,4584 4869,4565 4824,4680L4784,4598C4731,4641 4766,4604 4768,4646C4771,4719 4816,4720 4824,4800L4874,4790z"/>
   <path id="imagebot_84" fill="rgb(228, 226, 227)" d="M7324,5659L7354,5690L7553,5889C7604,5888 7565,5875 7597,5897C7569,5886 7581,5900 7566,5854C7653,5810 7896,5821 7928,5849L7942,5405L7465,5404C7393,5404 7263,5385 7325,5578C7325,5579 7327,5582 7328,5583C7328,5584 7382,5583 7312,5581L7324,5659z"/>
   <path id="imagebot_85" fill="rgb(210, 210, 210)" d="M7265,3376L7269,3727C7300,3692 7292,3685 7297,3590C7320,3627 7316,3655 7314,3717C7405,3664 7859,3705 7945,3720C7949,3666 7948,3607 7950,3552L7958,3398C7967,3349 7962,3374 7972,3353L7973,3161C7917,3225 7944,3296 7936,3366C7829,3356 7395,3304 7314,3385C7298,3324 7296,3347 7298,3280C7300,3193 7292,3258 7314,3229C7309,3330 7342,3376 7265,3376z"/>
   <path id="imagebot_86" fill="rgb(216, 216, 216)" d="M7945,3720L7938,3883C7936,3963 7948,4020 7920,4088L7306,4088L7305,4317C7329,4330 7321,4313 7343,4351L7305,4463C7468,4391 7767,4438 7936,4454C7945,4318 7920,4129 7976,4063L7972,3353C7962,3374 7967,3349 7958,3398L7950,3552C7948,3607 7949,3666 7945,3720z"/>
   <path id="imagebot_87" fill="rgb(244, 243, 244)" d="M2047,4156C2113,4311 2162,4211 2183,4332L2221,4330C2312,4355 2276,4400 2404,4436C2429,4443 2447,4442 2463,4446C2519,4461 2498,4461 2552,4509C2571,4526 2620,4563 2645,4546C2693,4515 2656,4459 2687,4397C2742,4435 2722,4453 2763,4498C2804,4543 2769,4506 2815,4534C2906,4588 2975,4649 3086,4635C3079,4560 3071,4623 3057,4526C3040,4410 3078,4267 2936,4255L2931,4184L2943,4189C2804,4156 2800,4170 2720,4250C2686,4220 2692,4227 2648,4197L2586,4134C2546,4152 2581,4137 2538,4161C2434,4219 2496,4118 2414,4025L2333,3962C2338,4132 2335,3976 2414,4163L2427,4194C2444,4240 2427,4222 2450,4290C2485,4395 2471,4296 2499,4393C2292,4387 2326,4356 2296,4318C2253,4265 2109,4174 2047,4156z"/>
   <path id="imagebot_88" fill="rgb(225, 223, 224)" d="M6107,3087C6085,3127 6098,3111 6068,3143C6014,3199 5868,3249 5800,3284C5691,3340 5854,3286 5659,3375C5604,3400 5636,3402 5564,3473C5348,3685 5551,3590 5390,3701C5373,3806 5382,3712 5412,3750C5442,3744 5417,3739 5444,3746C5448,3747 5455,3748 5459,3749C5464,3751 5486,3763 5491,3766L5564,3764C5564,3874 5569,3813 5508,3883C5510,3887 5513,3889 5514,3896C5516,3916 5527,3888 5534,4002C5543,4143 5550,4114 5581,4130L5597,3922C5718,4104 5715,3664 5693,3597C5658,3631 5734,3599 5749,3532C5771,3549 5710,3563 5799,3542C5887,3522 5821,3521 5881,3481C5931,3447 5873,3517 5923,3460L5919,3459C5919,3457 5911,3499 5918,3447C5918,3444 5918,3438 5919,3435C5920,3431 5922,3423 5923,3419L5956,3402C5959,3405 5973,3419 5977,3422C6021,3457 5944,3442 6035,3454C6053,3429 6047,3437 6057,3395C6018,3318 6072,3391 5970,3358L5938,3345C5934,3343 5927,3341 5923,3337C5957,3253 5961,3297 6016,3264L6133,3190C6157,3107 6224,3091 6281,3059C6352,3018 6375,2995 6468,2970L6679,2760C6596,2785 6594,2795 6530,2840C6394,2939 6246,3014 6107,3087z"/>
   <path id="imagebot_89" fill="rgb(183, 183, 183)" d="M7146,5593L7184,5625L7134,5625C7150,5656 7142,5660 7146,5646L6641,5626L6033,5628L5646,5626L4811,5627C5035,5633 5241,5644 5463,5651C5686,5657 5875,5694 6085,5712L6994,5825C7061,5828 7141,5842 7177,5768L7192,5726C7192,5720 7194,5718 7196,5714C7276,5767 7274,5739 7303,5821L7340,5868C7412,5894 7382,5903 7448,5934C7423,5904 7419,5902 7401,5847C7361,5856 7340,5838 7317,5809C7196,5658 7381,5752 7297,5734C7351,5645 7270,5718 7354,5690L7324,5659L7297,5636C7295,5639 7293,5644 7293,5645L7280,5674C7261,5630 7266,5646 7233,5615C7302,5645 7246,5632 7269,5586C7225,5559 7234,5574 7205,5504L7195,5504L7206,5541C7163,5522 7192,5532 7129,5522C7145,5588 7120,5570 7146,5593z"/>
   <path id="imagebot_90" fill="rgb(199, 199, 199)" d="M7657,1925C7614,1944 7601,1957 7578,1983L7479,2106C7431,2157 7413,2189 7356,2205C7289,2237 7315,2265 7249,2291C7327,2313 7275,2243 7308,2380C7401,2340 7817,2344 7942,2374L7950,1899C7900,1903 7876,1906 7801,1910C7689,1917 7733,1896 7690,1977C7722,1858 7671,1925 7657,1925z"/>
   <path id="imagebot_91" fill="rgb(234, 232, 233)" d="M2583,3499C2660,3517 2645,3507 2708,3547C2743,3569 2734,3556 2758,3588L2779,3626C2826,3704 2867,3788 2922,3837C2967,3811 2921,3780 3012,3798C2931,3782 2978,3788 2984,3819C3000,3898 3082,3805 3079,4000L3130,4020L3115,4094C3106,4125 3101,4138 3091,4163C3062,4123 3052,4103 3051,4026C2976,4039 3005,4045 2976,4050C2923,4059 3013,4093 2947,4044C2909,4016 2887,3946 2872,3883C2838,3901 2694,3979 2715,3994L2635,3942C2671,4053 2687,4006 2708,4093C2783,4084 2736,4085 2792,4015C2817,4098 2845,4032 2932,4077L2943,4189L2931,4184L3004,4214C3008,4216 3012,4219 3016,4221C3100,4267 3096,4242 3191,4256L3123,3767C3094,3735 3180,3745 3059,3741C3084,3693 3085,3687 3057,3630C2985,3648 3057,3625 3012,3657C2881,3754 3078,3642 2969,3692C2983,3475 2948,3613 2760,3504C2731,3487 2734,3481 2706,3450C2671,3410 2703,3432 2649,3407C2646,3406 2613,3392 2611,3391L2493,3352C2468,3343 2441,3332 2415,3322L2067,3174C2045,3164 2022,3152 2002,3140L1926,3070C1837,3035 1801,2982 1680,2959L1978,3167C2004,3180 2039,3194 2071,3214C2271,3339 2145,3267 2291,3316C2361,3339 2307,3374 2500,3401L2510,3528C2570,3500 2530,3482 2583,3499z"/>
   <path id="imagebot_92" fill="rgb(203, 203, 203)" d="M95,2785C116,2831 111,2899 111,2946L146,2951L146,2771C269,2805 588,2780 743,2769L806,2780L806,2478L769,2459C771,2464 772,2472 773,2477L780,2555C779,2605 768,2583 780,2662L735,2566C584,2566 293,2539 191,2566L184,2400L129,2395C124,2353 96,1844 103,1805L95,2785z"/>
   <path id="imagebot_93" fill="rgb(238, 236, 237)" d="M1800,3428C1857,3453 1865,3511 2003,3623L2143,3751C2236,3880 2320,3810 2333,3962L2414,4025C2496,4118 2434,4219 2538,4161C2581,4137 2546,4152 2586,4134L2648,4197C2692,4227 2686,4220 2720,4250C2800,4170 2804,4156 2943,4189L2932,4077C2845,4032 2817,4098 2792,4015C2736,4085 2783,4084 2708,4093C2687,4006 2671,4053 2635,3942C2577,3942 2576,3921 2499,3919C2500,3975 2509,3993 2514,4031C2421,3964 2473,3946 2425,3841L2434,3844L2360,3855C2339,3787 2279,3763 2223,3736C2168,3710 2107,3627 2080,3555C2041,3516 2080,3521 2021,3486C1967,3454 1945,3484 1849,3372C1803,3319 1828,3339 1767,3290C1730,3261 1725,3255 1685,3226C1580,3147 1596,3138 1538,3089C1466,3028 1490,3082 1458,2985L1393,2971C1424,3028 1509,3097 1544,3137C1574,3171 1563,3164 1594,3198C1700,3313 1781,3338 1800,3428z"/>
   <path id="imagebot_94" fill="rgb(228, 226, 227)" d="M1119,3454C1139,3693 1230,3656 1281,3739C1364,3734 1303,3694 1374,3849L1446,3829C1454,3947 1482,3972 1532,4030C1543,4043 1551,4053 1558,4062C1609,4118 1638,4131 1708,4226C1781,4327 1766,4343 1858,4307C1855,4207 1839,4250 1812,4146C1740,4137 1799,4136 1715,4176C1737,4051 1724,4094 1721,4000C1683,3968 1665,3993 1641,3980C1584,3765 1606,3930 1531,3777C1421,3551 1421,3742 1420,3567C1341,3388 1328,3418 1270,3415C1271,3328 1207,3203 1176,3123C1143,3067 1161,3091 1112,3063L1135,3128C1154,3160 1132,3125 1152,3150C1155,3153 1159,3156 1162,3159C1164,3162 1168,3165 1171,3168C1218,3223 1193,3185 1213,3272C1235,3365 1260,3457 1215,3556C1202,3543 1195,3526 1181,3509C1153,3476 1168,3478 1119,3454z"/>
   <path id="imagebot_95" fill="rgb(176, 176, 176)" d="M2524,5619L1683,5611C1628,5648 1375,5620 1290,5620C1207,5619 1149,5634 1071,5638C1038,5640 1003,5637 970,5639L877,5656C834,5867 1117,5791 1250,5770C1408,5745 1570,5728 1728,5718L2211,5670C2338,5655 2580,5673 2691,5628L2524,5619z"/>
   <path id="imagebot_96" fill="rgb(248, 246, 247)" d="M5884,4944C5956,4963 6014,4941 6069,4917C6087,4974 6090,5069 6086,5153C6081,5265 6062,5256 6044,5364C6072,5275 6069,5281 6106,5214C6141,5242 6136,5221 6157,5264C6192,5334 6174,5266 6171,5366L6278,5287C6353,5256 6353,5259 6406,5191C6450,5136 6402,5182 6449,5149C6512,5105 6493,5102 6550,5077C6485,5022 6459,5076 6409,5054C6423,5001 6400,5017 6489,5015C6476,4956 6471,4994 6470,4939L6454,4782C6452,4753 6453,4720 6452,4691C6407,4780 6442,4901 6422,4991C6310,4935 6399,4957 6405,4839C6355,4857 6334,4873 6287,4844C6246,4818 6248,4791 6220,4761C6193,4807 6213,4823 6165,4853C6111,4887 5961,4860 5884,4944z"/>
   <path id="imagebot_97" fill="rgb(231, 229, 230)" d="M2425,3841C2473,3946 2421,3964 2514,4031C2509,3993 2500,3975 2499,3919C2576,3921 2577,3942 2635,3942L2715,3994C2694,3979 2838,3901 2872,3883C2887,3946 2909,4016 2947,4044C3013,4093 2923,4059 2976,4050C3005,4045 2976,4039 3051,4026C3052,4103 3062,4123 3091,4163C3101,4138 3106,4125 3115,4094L3130,4020L3079,4000C3082,3805 3000,3898 2984,3819C2978,3788 2931,3782 3012,3798C2921,3780 2967,3811 2922,3837C2867,3788 2826,3704 2779,3626L2758,3588C2734,3556 2743,3569 2708,3547C2645,3507 2660,3517 2583,3499L2586,3610C2661,3599 2625,3572 2715,3584C2673,3611 2689,3574 2687,3668L2518,3688C2499,3737 2508,3702 2502,3763C2494,3833 2488,3761 2501,3867L2425,3841z"/>
   <path id="imagebot_98" fill="rgb(201, 201, 201)" d="M806,2478L805,2380C692,2336 291,2325 180,2371C197,2233 166,2026 163,1874L148,1929C144,1852 165,1797 103,1805C96,1844 124,2353 129,2395L184,2400L191,2566C293,2539 584,2566 735,2566L780,2662C768,2583 779,2605 780,2555L773,2477C772,2472 771,2464 769,2459L806,2478z"/>
   <path id="imagebot_99" fill="rgb(242, 240, 241)" d="M6797,4745C6832,4701 6803,4634 6822,4548C6837,4481 6843,4459 6843,4351C6848,4356 6853,4362 6858,4368C6917,4439 6929,4466 6924,4574C6920,4657 6928,4750 6928,4844C7006,4791 7039,4649 7040,4549L7041,4213C7031,4022 7005,4053 7054,3940C7079,3883 7077,3763 7081,3703C7092,3546 7087,3586 7050,3599C7042,3664 7059,3673 7055,3767C7048,3943 6965,4050 6879,4034C6938,3943 6844,4013 6927,3875L6829,3883L6826,3610L6811,3610C6807,3682 6805,3832 6821,3902C6840,3988 6852,3933 6844,4005L6800,4283C6791,4366 6808,4332 6806,4428C6803,4536 6799,4645 6797,4745z"/>
   <path id="imagebot_100" fill="rgb(238, 236, 237)" d="M6658,3406C6717,3407 6697,3390 6740,3434L6731,3584C6727,3649 6731,3694 6719,3758L6694,4190C6697,4513 6730,4569 6754,4787C6755,4857 6740,4907 6769,4944C6743,5002 6787,4898 6788,4891C6797,4844 6796,4793 6797,4745C6799,4645 6803,4536 6806,4428C6808,4332 6791,4366 6800,4283L6844,4005C6852,3933 6840,3988 6821,3902C6805,3832 6807,3682 6811,3610C6827,3422 6765,3472 6852,3157C6816,3153 6843,3151 6806,3191L6658,3406z"/>
   <path id="imagebot_101" fill="lightgrey" d="M783,3285L771,3376L769,3542C766,3541 762,3539 761,3539C759,3538 754,3536 752,3536L483,3522C329,3522 242,3492 188,3561C181,3469 195,3435 171,3343L110,3369L129,3723L701,3723C798,3716 730,3744 801,3688L803,3109C801,3115 799,3121 798,3126L783,3285z"/>
   <path id="imagebot_102" fill="rgb(218, 216, 217)" d="M7085,2354C7065,2431 7070,2410 7015,2446C6974,2473 6987,2464 6946,2502C6919,2527 6849,2587 6817,2606C6770,2707 6710,2691 6679,2760L6468,2970C6425,3026 6399,3024 6346,3073C6346,3076 6348,3078 6348,3082C6349,3171 6343,3104 6330,3190C6535,3211 6428,3175 6541,3137L6599,3103C6583,3070 6575,3098 6552,3044L6574,2976C6644,2998 6566,2981 6641,3022L6804,2862C6881,2752 6772,2844 6888,2747C6983,2668 6900,2651 7054,2577C7075,2558 7084,2541 7097,2520C7133,2461 7089,2484 7131,2474L7187,2436C7102,2439 7104,2409 7112,2325C7106,2329 7099,2334 7095,2337C7092,2339 7088,2350 7086,2347C7085,2345 7085,2351 7085,2354z"/>
   <path id="imagebot_103" fill="rgb(238, 236, 237)" d="M1374,2489C1399,2515 1371,2498 1411,2513C1438,2523 1446,2523 1475,2526L2199,2648L2176,2625C2152,2599 2175,2630 2156,2604L2140,2581C2119,2537 2120,2456 2104,2399C2175,2388 2138,2388 2213,2404C2145,2338 2037,2402 1931,2375C1964,2412 1948,2383 1960,2441C1965,2466 1963,2492 1963,2517C1834,2499 1868,2450 1779,2410L1896,2368C1900,2360 1907,2364 1913,2361C1908,2357 1901,2355 1896,2352L1778,2327C1639,2325 1530,2346 1391,2322C1416,2379 1440,2369 1435,2487L1374,2489z"/>
   <path id="imagebot_104" fill="rgb(208, 208, 208)" d="M7268,3174L7265,3376C7342,3376 7309,3330 7314,3229C7292,3258 7300,3193 7298,3280C7296,3347 7298,3324 7314,3385C7395,3304 7829,3356 7936,3366C7944,3296 7917,3225 7973,3161L7968,2771L7936,3155L7464,3163C7323,3166 7358,3141 7353,3109C7350,3114 7348,3122 7346,3125L7330,3153C7302,3184 7295,3176 7268,3174z"/>
   <path id="imagebot_105" fill="rgb(214, 214, 214)" d="M7276,3951C7275,4106 7292,4354 7277,4504C7293,4459 7308,4360 7305,4317L7306,4088L7920,4088C7948,4020 7936,3963 7938,3883C7907,3897 7348,3916 7326,3864L7322,4059C7324,4021 7317,3943 7318,3880L7276,3951z"/>
   <path id="imagebot_106" fill="rgb(212, 212, 212)" d="M7269,3727L7276,3951L7318,3880C7317,3943 7324,4021 7322,4059L7326,3864C7348,3916 7907,3897 7938,3883L7945,3720C7859,3705 7405,3664 7314,3717C7316,3655 7320,3627 7297,3590C7292,3685 7300,3692 7269,3727z"/>
   <path id="imagebot_107" fill="rgb(236, 233, 235)" d="M2338,2440C2436,2467 2512,2467 2592,2550C2723,2544 2789,2572 2893,2589C3136,2629 3049,2670 3163,2661L3193,2441C3197,2437 3214,2414 3221,2405C3138,2406 3129,2387 3057,2385C3012,2384 2914,2388 2882,2397C2861,2433 2897,2417 2827,2426C2846,2477 2859,2479 2843,2506C2759,2521 2696,2481 2670,2391L2803,2385L2317,2381L2338,2440z"/>
   <path id="imagebot_108" fill="rgb(208, 208, 208)" d="M107,3180L110,3369L171,3343C206,3343 400,3337 483,3337C591,3337 707,3313 771,3376L783,3285L763,3148C579,3206 328,3117 107,3180z"/>
   <path id="imagebot_109" fill="rgb(209, 209, 209)" d="M771,3376C707,3313 591,3337 483,3337C400,3337 206,3343 171,3343C195,3435 181,3469 188,3561C242,3492 329,3522 483,3522L752,3536C754,3536 759,3538 761,3539C762,3539 766,3541 769,3542L771,3376z"/>
   <path id="imagebot_110" fill="rgb(224, 222, 223)" d="M902,2985C972,3103 896,3118 1004,3220C1036,3250 1089,3341 1119,3454C1168,3478 1153,3476 1181,3509C1195,3526 1202,3543 1215,3556C1260,3457 1235,3365 1213,3272C1193,3185 1218,3223 1171,3168C1168,3165 1164,3162 1162,3159C1159,3156 1155,3153 1152,3150C1132,3125 1154,3160 1135,3128L1112,3063C1111,3058 1045,2860 948,2901C948,2901 975,2895 955,2795C951,2778 930,2726 924,2708C902,2739 915,2704 904,2754C890,2816 900,2918 902,2985z"/>
   <path id="imagebot_111" fill="rgb(230, 230, 230)" d="M7597,5897C7715,5985 7566,5904 7738,6043L7773,6088C7863,6124 7807,6102 7845,6155C7847,6158 7850,6163 7852,6166C7854,6169 7857,6174 7860,6176C7863,6181 7874,6191 7877,6195C7917,6234 7938,6246 7945,6322C7900,6339 7876,6356 7953,6400C7956,6280 7966,5362 7942,5405L7928,5849C7896,5821 7653,5810 7566,5854C7581,5900 7569,5886 7597,5897z"/>
   <path id="imagebot_112" fill="rgb(220, 218, 219)" d="M6133,3190C6148,3233 6143,3236 6117,3261L6043,3307C6095,3343 6080,3378 6085,3444C6092,3442 6132,3465 6128,3366C6145,3401 6121,3400 6181,3395L6206,3387C6281,3357 6292,3296 6304,3288C6420,3251 6318,3294 6390,3284L6455,3253C6502,3211 6480,3184 6590,3180L6599,3103L6541,3137C6428,3175 6535,3211 6330,3190C6343,3104 6349,3171 6348,3082C6348,3078 6346,3076 6346,3073C6399,3024 6425,3026 6468,2970C6375,2995 6352,3018 6281,3059C6224,3091 6157,3107 6133,3190z"/>
   <path id="imagebot_113" fill="rgb(223, 221, 222)" d="M1319,2884C1340,2911 1378,2947 1393,2971L1458,2985C1519,3023 1547,3037 1589,3087C1662,3172 1632,3106 1720,3171L1844,3260C1896,3321 1848,3275 1900,3310C1945,3341 1935,3240 1950,3372C1983,3283 1981,3356 2031,3278C1981,3238 1922,3268 1862,3162C1794,3043 1849,3156 1669,3017C1654,3005 1641,2998 1625,2987C1621,2985 1617,2982 1613,2980C1609,2977 1605,2975 1602,2972L1526,2920C1452,2868 1318,2753 1257,2732L1312,2871C1313,2874 1317,2880 1319,2884z"/>
   <path id="imagebot_114" fill="rgb(238, 236, 237)" d="M1420,3567C1483,3594 1616,3821 1666,3876C1689,3902 1743,3939 1765,3975C1897,4182 1789,4034 1949,4172C2052,4261 2038,4299 2183,4332C2162,4211 2113,4311 2047,4156C1986,4107 2052,4125 1929,4061C1830,4009 1805,3930 1717,3824C1620,3780 1563,3661 1500,3582C1475,3549 1455,3537 1430,3507C1381,3449 1406,3464 1370,3398C1336,3335 1222,3150 1176,3123C1207,3203 1271,3328 1270,3415C1328,3418 1341,3388 1420,3567z"/>
   <path id="imagebot_115" fill="rgb(239, 238, 239)" d="M6927,3875C6844,4013 6938,3943 6879,4034C6965,4050 7048,3943 7055,3767C7059,3673 7042,3664 7050,3599C7067,3494 7059,3557 7090,3483C7113,3426 7137,3407 7100,3433C7073,3385 7120,3398 7037,3413C6966,3426 6946,3461 6906,3541C6868,3616 6915,3478 6893,3571C6881,3668 6925,3526 6942,3705C6947,3751 6939,3831 6927,3875z"/>
   <path id="imagebot_116" fill="rgb(241, 238, 240)" d="M6044,5364C6017,5458 6029,5468 6066,5550C6007,5545 5972,5522 5915,5541C5932,5560 5917,5553 5953,5563C6082,5596 5860,5561 5984,5567C5987,5567 6051,5558 6059,5557C6055,5560 6048,5563 6046,5566C5989,5647 6021,5529 6033,5628L6641,5626L6592,5600C6497,5542 6609,5573 6519,5551C6432,5530 6504,5552 6456,5558C6351,5571 6253,5527 6069,5561L6117,5456C6119,5452 6122,5448 6124,5444C6125,5441 6128,5436 6130,5433L6171,5366C6174,5266 6192,5334 6157,5264C6136,5221 6141,5242 6106,5214C6069,5281 6072,5275 6044,5364z"/>
   <path id="imagebot_117" fill="rgb(226, 224, 225)" d="M6119,3832C6124,3829 6131,3817 6134,3821L6240,3730C6256,3713 6267,3706 6287,3689C6385,3606 6449,3467 6540,3440C6541,3437 6540,3429 6540,3431C6540,3435 6525,3420 6561,3376C6563,3374 6569,3369 6571,3366C6572,3364 6578,3360 6581,3356C6577,3352 6571,3344 6569,3347C6568,3351 6561,3341 6559,3338C6558,3337 6553,3331 6552,3329C6540,3303 6528,3373 6549,3283C6423,3314 6448,3317 6436,3357L6422,3417C6393,3405 6372,3400 6325,3400C6312,3445 6301,3464 6300,3532C6199,3595 6308,3586 6165,3595C6158,3679 6133,3742 6119,3832z"/>
   <path id="imagebot_118" fill="rgb(216, 216, 216)" d="M7340,5868C7350,5940 7335,5891 7362,5934L7653,6210C7773,6228 7682,6285 7819,6305C7816,6306 7812,6305 7812,6305L7676,6157C7642,6116 7615,6086 7600,6029C7692,6132 7685,6067 7761,6151L7773,6088L7738,6043C7566,5904 7715,5985 7597,5897C7565,5875 7604,5888 7553,5889L7511,5906C7480,5911 7520,5919 7476,5905C7446,5895 7432,5875 7401,5847C7419,5902 7423,5904 7448,5934C7382,5903 7412,5894 7340,5868z"/>
   <path id="imagebot_119" fill="rgb(232, 230, 231)" d="M6409,2454L6545,2451C6575,2425 6556,2444 6591,2423C6603,2415 6611,2428 6618,2406C6621,2398 6628,2400 6633,2396L5899,2397C5804,2412 5792,2440 5774,2554C5861,2550 5871,2525 5952,2511C6024,2498 6026,2493 6085,2477C6177,2452 6299,2453 6409,2454z"/>
   <path id="imagebot_120" fill="rgb(214, 214, 214)" d="M166,6093L190,6096L115,6167L141,6178L152,6151C154,6149 157,6142 159,6139C209,6076 260,6096 348,6021C325,6096 351,6046 310,6102C307,6105 269,6143 268,6144C319,6127 376,6083 423,6054C482,6038 500,6008 530,5951L460,5982C451,5926 416,6030 479,5950L514,5911C564,5843 510,5876 580,5830C515,5808 510,5839 519,5756L334,5913C295,5948 278,5976 246,6005C159,6084 181,6027 166,6093z"/>
   <path id="imagebot_121" fill="rgb(196, 196, 196)" d="M7657,1925C7671,1925 7722,1858 7690,1977C7733,1896 7689,1917 7801,1910C7876,1906 7900,1903 7950,1899C7950,1841 7947,1775 7951,1717C7954,1655 7969,1601 7968,1541C7937,1549 7928,1548 7903,1561C7902,1740 7912,1608 7840,1669C7794,1708 7808,1703 7769,1773C7684,1925 7696,1821 7657,1925z"/>
   <path id="imagebot_122" fill="rgb(244, 243, 244)" d="M3273,4475L3279,4479L3230,4340L3082,4302C3085,4402 3077,4538 3138,4610C3228,4717 3287,4624 3273,4475z"/>
   <path id="imagebot_123" fill="rgb(242, 240, 241)" d="M956,2361C940,2387 931,2402 916,2425C986,2564 987,2412 1048,2555L1061,2585C1063,2518 1035,2547 1099,2544L1063,2491L1122,2474C1154,2473 1169,2481 1206,2487C1263,2495 1287,2490 1348,2498C1286,2435 1097,2452 1021,2457C1013,2416 1031,2449 1003,2393C1142,2359 1181,2406 1356,2369L1386,2361C1319,2319 1314,2341 1309,2340C1283,2338 1238,2337 1208,2336C1275,2294 1318,2320 1371,2301L1194,2310C1192,2312 1187,2317 1185,2319C1184,2320 1194,2325 1148,2338C1110,2298 1074,2319 1004,2305C963,2340 998,2271 956,2361z"/>
   <path id="imagebot_124" fill="rgb(242, 240, 241)" d="M6271,4166C6426,4152 6269,4192 6366,4224C6433,4246 6409,4238 6418,4186C6424,4148 6424,3977 6424,3922C6152,3911 6364,3936 6220,4020C6268,4093 6271,4060 6271,4166z"/>
   <path id="imagebot_125" fill="rgb(233, 231, 232)" d="M2434,3844C2416,3773 2416,3754 2380,3709C2357,3679 2319,3650 2298,3630C2194,3524 2362,3630 2080,3555C2107,3627 2168,3710 2223,3736C2279,3763 2339,3787 2360,3855L2434,3844z"/>
   <path id="imagebot_126" fill="rgb(223, 223, 223)" d="M141,6178C136,6295 114,6164 110,6330C201,6309 218,6269 289,6212C352,6162 401,6121 423,6054C376,6083 319,6127 268,6144C269,6143 307,6105 310,6102C351,6046 325,6096 348,6021C260,6096 209,6076 159,6139C157,6142 154,6149 152,6151L141,6178z"/>
   <path id="imagebot_127" fill="rgb(184, 184, 184)" d="M391,1995C400,2005 404,2015 430,2036C466,2063 436,2044 484,2067C470,1960 475,2031 494,2005L499,2005L499,1971C478,1920 505,1975 419,1911C384,1885 417,1908 390,1887L360,1864C288,1810 305,1827 281,1756C254,1764 205,1730 183,1715L145,1677C127,1650 126,1638 125,1635C122,1701 127,1732 155,1764L348,1946C350,1948 354,1950 356,1951C358,1953 362,1956 363,1957C365,1958 369,1961 370,1962L391,1995z"/>
   <path id="imagebot_128" fill="rgb(231, 229, 230)" d="M2199,2648C2235,2687 2189,2660 2251,2673L2242,2448C2230,2411 2233,2425 2213,2404C2138,2388 2175,2388 2104,2399C2120,2456 2119,2537 2140,2581L2156,2604C2175,2630 2152,2599 2176,2625L2199,2648z"/>
   <path id="imagebot_129" fill="rgb(233, 231, 232)" d="M3256,4257C3359,4257 3344,4242 3397,4289C3435,4322 3416,4337 3461,4293C3460,4290 3457,4282 3456,4285L3446,4267C3445,4265 3442,4259 3441,4257C3439,4254 3436,4249 3435,4246C3342,4061 3383,4075 3326,4057C3267,4096 3250,4172 3256,4257z"/>
   <path id="imagebot_130" fill="rgb(201, 201, 201)" d="M7401,5847C7432,5875 7446,5895 7476,5905C7520,5919 7480,5911 7511,5906L7553,5889L7354,5690C7270,5718 7351,5645 7297,5734C7381,5752 7196,5658 7317,5809C7340,5838 7361,5856 7401,5847z"/>
   <path id="imagebot_131" fill="rgb(242, 240, 241)" d="M2592,2550C2512,2467 2436,2467 2338,2440L2383,2580C2402,2636 2410,2643 2468,2657C2470,2652 2471,2640 2472,2643L2478,2612C2479,2607 2479,2601 2480,2595C2482,2573 2480,2553 2485,2517L2592,2550z"/>
   <path id="imagebot_132" fill="rgb(226, 224, 225)" d="M1479,2393C1480,2458 1471,2435 1502,2467C1524,2490 1537,2483 1552,2487C1642,2510 1602,2523 1676,2534L1683,2405L1479,2393z"/>
   <path id="imagebot_133" fill="rgb(239, 238, 239)" d="M6627,5366C6626,5303 6648,5229 6587,5229C6568,5293 6514,5462 6540,5526C6604,5516 6557,5572 6602,5475C6616,5446 6624,5402 6627,5366z"/>
   <path id="imagebot_134" fill="rgb(168, 168, 168)" d="M484,2067C562,2096 695,2261 819,2302C760,2211 805,2251 731,2207C655,2161 716,2190 659,2140C636,2120 641,2133 617,2108C582,2073 618,2102 586,2067C563,2042 531,2027 499,2005L494,2005C475,2031 470,1960 484,2067z"/>
   <path id="imagebot_135" fill="rgb(228, 226, 227)" d="M2882,2397L2803,2385L2670,2391C2696,2481 2759,2521 2843,2506C2859,2479 2846,2477 2827,2426C2897,2417 2861,2433 2882,2397z"/>
   <path id="imagebot_136" fill="rgb(133, 131, 132)" d="M3968,2351C3986,2400 3980,2383 4002,2414C4070,2416 4059,2425 4091,2380L4086,2282C4004,2259 4009,2267 3968,2351z"/>
   <path id="imagebot_137" fill="rgb(155, 155, 155)" d="M3986,5486C3947,5526 3948,5531 3972,5589L3996,5589C4029,5555 3920,5561 4066,5561L4070,5550C4075,5538 4077,5555 4083,5502C4084,5486 4080,5469 4078,5451C4001,5436 4013,5453 3998,5466C4035,5469 4026,5466 4044,5479L3986,5486z"/>
   <path id="imagebot_138" fill="rgb(228, 228, 228)" d="M7094,5600L7110,5506L7143,5468L7196,5481C7190,5475 7184,5463 7181,5459L7151,5444C7135,5392 7099,5427 7069,5453C7018,5497 7010,5505 7061,5533C7061,5659 7054,5560 7094,5600z"/>
   <path id="imagebot_139" fill="rgb(160, 160, 160)" d="M7456,2009C7431,2070 7396,2106 7357,2157C7335,2187 7324,2200 7300,2229C7253,2284 7286,2262 7246,2263C7209,2325 7225,2289 7249,2291C7315,2265 7289,2237 7356,2205C7388,2166 7400,2143 7440,2096C7488,2037 7483,2052 7504,1977C7450,2048 7493,1993 7456,2009z"/>
   <path id="imagebot_140" fill="rgb(123, 122, 123)" d="M7187,2436L7210,2398C7237,2290 7209,2332 7185,2317C7182,2394 7194,2359 7162,2399L7152,2358C7149,2354 7144,2348 7142,2344L7112,2314L7106,2325L7112,2325C7104,2409 7102,2439 7187,2436z"/>
   <path id="imagebot_141" fill="rgb(133, 133, 133)" d="M878,5572C928,5584 927,5573 937,5522C922,5472 938,5495 917,5470L848,5464C834,5533 816,5522 870,5522L878,5572z"/>
   <path id="imagebot_142" fill="rgb(116, 116, 116)" d="M887,2325C936,2326 908,2313 932,2347C910,2383 945,2361 889,2375C833,2365 863,2366 849,2392L916,2425C931,2402 940,2387 956,2361L954,2296L944,2287L881,2274L887,2325z"/>
   <path id="imagebot_143" fill="rgb(106, 106, 106)" d="M7094,5600L7134,5625L7184,5625L7146,5593L7161,5504C7164,5501 7170,5496 7174,5492L7110,5506L7094,5600z"/>
   <path id="imagebot_144" fill="rgb(150, 150, 150)" d="M849,2392C863,2366 833,2365 889,2375L887,2325L853,2309C828,2309 835,2302 835,2332C823,2437 834,2366 849,2392z"/>
   <path id="imagebot_145" fill="rgb(113, 111, 111)" d="M878,5572C820,5577 853,5555 833,5605L917,5592L937,5522C927,5573 928,5584 878,5572z"/>
   <path id="imagebot_146" fill="rgb(188, 188, 188)" d="M889,2375C945,2361 910,2383 932,2347C908,2313 936,2326 887,2325L889,2375z"/>
   <path id="imagebot_147" fill="rgb(140, 140, 140)" d="M7146,5593C7120,5570 7145,5588 7129,5522C7192,5532 7163,5522 7206,5541L7195,5504L7196,5481L7143,5468L7110,5506L7174,5492C7170,5496 7164,5501 7161,5504L7146,5593z"/>
   <path id="imagebot_148" fill="rgb(121, 121, 121)" d="M3996,5589L4066,5581L4070,5550L4066,5561C3920,5561 4029,5555 3996,5589z"/>
   <path id="imagebot_149" fill="rgb(185, 185, 185)" d="M4009,2361C4055,2371 4022,2382 4059,2341C4057,2341 4074,2305 4025,2339C4022,2341 4013,2358 4009,2361z"/>
   <path id="imagebot_150" fill="rgb(102, 101, 102)" d="M3998,5466L3986,5486L4044,5479C4026,5466 4035,5469 3998,5466z"/>
  </g>
  <path id="imagebot_151" fill-rule="nonzero" fill="black" d="M 308 919 L 308 864 L 317 864 C 332 861 341 851 345 836 L 345 829 L 345 680 C 345 674 342 666 336 655 C 331 647 322 643 308 643 L 308 582 L 585 582 C 668 582 726 612 758 672 C 771 697 778 723 778 751 C 778 778 772 803 759 827 C 747 850 729 870 707 885 C 675 907 639 919 599 919 L 308 919 z M 494 844 C 494 851 496 855 501 855 L 550 855 C 568 855 583 841 593 814 C 600 796 603 775 603 752 C 603 730 599 708 590 687 C 579 660 563 646 544 646 L 504 646 L 500 647 C 496 649 494 651 494 656 L 494 844 z"/>
  <path fill-rule="nonzero" fill="black" d="M 1115 730 C 1131 754 1140 777 1140 798 C 1140 802 1140 805 1139 807 L 930 807 C 928 826 933 842 945 855 C 953 864 963 868 976 868 C 988 868 999 864 1008 857 C 1017 850 1022 841 1024 829 L 1025 820 L 1138 820 C 1129 856 1107 884 1074 903 C 1044 920 1010 929 970 929 C 924 929 885 920 853 901 C 815 878 796 846 796 803 C 796 783 798 767 804 753 C 809 740 819 727 834 715 C 870 682 914 666 966 666 L 979 666 C 1013 666 1043 673 1070 688 C 1087 697 1102 711 1115 730 z M 933 759 L 1012 759 L 1011 751 C 1007 731 993 721 971 721 C 949 721 937 731 933 751 L 933 759 z" id="imagebot_1"/>
  <path fill-rule="nonzero" fill="black" d="M 1384 674 L 1387 669 L 1429 669 L 1429 743 L 1367 743 C 1357 727 1342 718 1324 716 C 1301 716 1289 721 1289 731 C 1289 740 1299 747 1319 750 L 1322 750 L 1345 751 L 1357 752 C 1382 754 1403 761 1421 774 C 1441 788 1452 807 1452 831 C 1452 863 1435 888 1403 906 C 1376 920 1345 927 1310 927 C 1296 927 1281 924 1265 919 L 1250 914 L 1240 911 L 1235 908 C 1231 906 1227 905 1223 905 C 1217 905 1212 909 1208 918 L 1206 925 L 1162 925 L 1162 851 L 1233 851 C 1241 871 1261 880 1292 880 C 1312 880 1323 874 1323 861 C 1323 854 1318 848 1310 844 C 1307 843 1304 842 1301 840 L 1277 839 L 1262 837 C 1236 834 1213 826 1194 814 C 1170 800 1158 780 1158 757 C 1158 736 1167 718 1185 703 C 1200 690 1219 681 1241 676 C 1264 671 1282 669 1295 669 C 1311 669 1326 671 1341 676 L 1354 680 C 1361 682 1367 683 1369 683 C 1375 683 1380 680 1384 674 z" id="imagebot_2"/>
  <path fill-rule="nonzero" fill="black" d="M 1469 919 L 1469 870 L 1477 870 C 1492 868 1500 861 1500 849 L 1500 757 C 1489 735 1479 724 1469 724 L 1469 676 L 1623 676 L 1623 846 C 1623 858 1630 866 1645 870 L 1651 870 L 1651 919 L 1469 919 z M 1541 655 C 1508 651 1491 638 1491 616 C 1491 605 1495 597 1503 590 C 1511 584 1520 580 1531 579 C 1542 577 1550 576 1555 576 L 1562 576 C 1567 576 1578 578 1596 582 C 1615 589 1624 600 1624 616 C 1624 640 1603 653 1562 655 C 1558 656 1555 656 1555 656 C 1553 656 1551 656 1548 655 C 1545 655 1542 655 1541 655 z" id="imagebot_3"/>
  <path fill-rule="nonzero" fill="black" d="M 1699 911 L 1710 906 L 1701 901 C 1680 887 1670 872 1670 857 C 1670 843 1677 831 1691 821 L 1697 817 L 1707 812 L 1726 802 L 1733 799 L 1712 787 C 1708 785 1704 783 1701 779 C 1686 770 1679 755 1679 736 C 1679 707 1699 686 1739 673 C 1760 666 1786 663 1817 663 C 1851 663 1881 666 1907 673 L 1921 676 L 1930 678 C 1944 675 1958 671 1972 665 C 1980 661 1986 660 1990 660 C 1992 659 1995 659 1998 659 C 2025 659 2038 669 2038 690 C 2038 692 2038 694 2038 695 C 2037 703 2034 709 2030 715 C 2025 721 2019 724 2011 724 C 2002 724 1995 718 1991 707 C 1990 705 1989 701 1989 697 C 1989 691 1987 688 1982 688 C 1979 688 1976 689 1973 691 C 1970 693 1969 695 1969 697 C 1969 699 1970 702 1973 708 C 1976 714 1977 718 1977 721 C 1980 727 1981 734 1981 742 C 1981 759 1974 774 1959 786 C 1947 795 1932 802 1914 807 C 1889 812 1858 815 1821 815 L 1797 813 C 1793 812 1790 814 1787 817 C 1785 820 1784 823 1784 827 C 1784 838 1788 843 1797 843 L 1951 843 C 2003 843 2029 867 2029 915 C 2029 956 2005 981 1958 991 C 1922 998 1889 1002 1859 1002 L 1831 1002 C 1793 1002 1763 1000 1740 996 C 1701 989 1678 978 1671 965 C 1668 958 1666 951 1666 944 C 1666 930 1670 921 1679 918 L 1699 911 z M 1808 910 C 1802 910 1795 910 1789 912 C 1786 913 1783 916 1781 919 C 1779 923 1778 927 1779 930 C 1781 945 1804 953 1846 953 C 1848 953 1850 953 1853 953 C 1855 954 1858 954 1859 954 L 1864 954 C 1866 953 1868 953 1869 953 C 1895 953 1909 946 1911 932 C 1912 928 1911 925 1909 922 C 1906 914 1898 910 1886 910 L 1808 910 z M 1795 722 C 1793 727 1792 732 1792 736 C 1792 752 1799 762 1812 768 C 1818 771 1824 772 1829 772 C 1844 772 1855 766 1861 753 C 1864 747 1865 742 1865 736 C 1865 713 1852 701 1826 701 C 1811 703 1801 710 1795 722 z" id="imagebot_4"/>
  <path fill-rule="nonzero" fill="black" d="M 2054 725 L 2054 676 L 2203 676 L 2203 700 C 2222 683 2243 672 2266 669 C 2275 667 2281 666 2285 666 L 2302 666 C 2321 666 2335 668 2346 672 C 2358 676 2371 683 2385 695 C 2398 706 2405 724 2405 747 L 2405 851 C 2405 861 2412 867 2426 869 C 2427 869 2429 870 2433 870 L 2433 919 L 2262 919 L 2262 869 L 2270 869 C 2283 866 2289 860 2289 851 L 2289 756 C 2289 745 2285 736 2275 730 C 2267 724 2257 722 2245 722 C 2235 722 2225 724 2217 730 C 2208 736 2203 744 2203 754 L 2203 852 C 2203 862 2212 868 2230 869 L 2237 869 L 2237 919 L 2058 919 L 2058 869 L 2066 869 C 2078 867 2084 861 2084 851 L 2084 754 C 2078 737 2070 728 2061 726 L 2057 725 L 2054 725 z" id="imagebot_5"/>
  <path fill-rule="nonzero" fill="black" d="M 2907 601 C 2913 601 2918 599 2922 595 L 2931 582 L 2991 582 L 2991 724 L 2879 724 L 2872 688 C 2869 673 2863 662 2855 656 C 2847 650 2836 647 2820 647 C 2807 647 2795 651 2787 660 C 2778 669 2772 680 2769 694 L 2768 709 L 2768 802 C 2768 812 2771 821 2778 830 C 2784 839 2792 845 2801 847 C 2810 849 2818 850 2823 850 C 2836 850 2847 846 2856 839 C 2866 831 2872 821 2873 809 L 2879 767 L 2989 767 L 2989 803 C 2989 823 2983 841 2972 858 C 2961 874 2946 888 2929 898 C 2894 917 2850 927 2798 927 C 2743 927 2696 912 2656 882 C 2613 848 2591 805 2591 752 C 2591 724 2596 699 2607 678 C 2618 658 2635 639 2658 620 C 2693 592 2735 577 2786 577 C 2789 577 2794 577 2800 577 C 2806 576 2810 576 2812 576 C 2828 576 2846 579 2867 586 C 2875 588 2881 590 2884 592 L 2888 594 L 2894 598 C 2897 600 2901 601 2907 601 z" id="imagebot_6"/>
  <path fill-rule="nonzero" fill="black" d="M 3019 724 L 3010 724 L 3010 676 L 3151 676 L 3151 836 C 3151 857 3165 868 3193 868 C 3204 868 3213 866 3221 861 C 3231 855 3236 848 3236 837 L 3236 743 C 3236 733 3227 726 3210 724 L 3203 724 L 3203 676 L 3345 676 L 3345 840 C 3345 850 3348 857 3354 863 C 3359 869 3367 871 3377 870 L 3377 919 L 3235 919 L 3233 903 L 3228 905 L 3216 911 C 3188 924 3163 931 3141 931 C 3125 931 3109 927 3092 919 C 3075 911 3062 902 3053 890 C 3044 879 3040 866 3040 853 L 3040 746 C 3040 734 3033 726 3019 724 z" id="imagebot_7"/>
  <path fill-rule="nonzero" fill="black" d="M 3621 674 L 3624 669 L 3666 669 L 3666 743 L 3604 743 C 3594 727 3579 718 3561 716 C 3538 716 3526 721 3526 731 C 3526 740 3536 747 3556 750 L 3559 750 L 3582 751 L 3594 752 C 3619 754 3640 761 3658 774 C 3678 788 3689 807 3689 831 C 3689 863 3672 888 3640 906 C 3613 920 3582 927 3547 927 C 3533 927 3518 924 3502 919 L 3487 914 L 3477 911 L 3472 908 C 3468 906 3464 905 3460 905 C 3454 905 3449 909 3445 918 L 3443 925 L 3399 925 L 3399 851 L 3470 851 C 3478 871 3498 880 3529 880 C 3549 880 3560 874 3560 861 C 3560 854 3555 848 3547 844 C 3544 843 3541 842 3538 840 L 3514 839 L 3499 837 C 3473 834 3450 826 3431 814 C 3407 800 3395 780 3395 757 C 3395 736 3404 718 3422 703 C 3438 690 3456 681 3478 676 C 3501 671 3519 669 3532 669 C 3548 669 3563 671 3578 676 L 3591 680 C 3598 682 3604 683 3606 683 C 3612 683 3617 680 3621 674 z" id="imagebot_8"/>
  <path fill-rule="nonzero" fill="black" d="M 3729 725 L 3706 725 L 3706 676 L 3718 676 C 3749 676 3769 659 3776 624 L 3777 616 L 3855 617 L 3855 676 L 3901 676 L 3901 725 L 3864 725 C 3855 732 3850 739 3850 748 L 3850 866 C 3850 871 3854 874 3863 874 C 3869 874 3873 865 3876 845 L 3877 839 L 3907 842 L 3907 849 C 3903 903 3878 929 3830 929 C 3808 929 3789 925 3771 916 C 3750 905 3739 890 3739 870 L 3739 743 C 3735 731 3731 725 3729 725 z" id="imagebot_9"/>
  <path fill-rule="nonzero" fill="black" d="M 4087 927 C 4044 923 4008 911 3979 892 C 3943 868 3926 836 3926 796 C 3926 765 3935 737 3953 712 C 3972 687 3996 672 4026 667 C 4066 660 4097 656 4121 656 C 4156 656 4190 663 4224 678 C 4265 696 4288 720 4294 750 C 4297 770 4299 784 4299 792 C 4299 826 4285 855 4259 881 C 4234 905 4205 919 4170 923 C 4141 927 4121 929 4110 929 C 4104 929 4096 928 4087 927 z M 4062 791 C 4062 812 4066 829 4072 843 C 4080 861 4094 870 4112 870 C 4145 870 4161 849 4161 806 L 4161 799 C 4161 778 4158 760 4152 746 C 4143 725 4130 714 4112 714 C 4098 714 4086 721 4077 736 C 4070 747 4065 761 4064 777 L 4062 791 z" id="imagebot_10"/>
  <path fill-rule="nonzero" fill="black" d="M 4322 725 L 4319 725 L 4319 676 L 4463 676 L 4463 699 L 4478 691 L 4486 687 L 4505 677 C 4517 671 4531 667 4546 667 C 4573 667 4590 668 4597 670 C 4608 673 4618 677 4627 683 L 4628 684 L 4648 700 L 4655 705 L 4674 694 L 4683 689 L 4693 683 C 4714 671 4736 666 4758 666 C 4797 666 4828 677 4852 700 C 4869 716 4877 735 4877 757 L 4877 851 C 4877 861 4884 867 4898 870 L 4906 870 L 4906 919 L 4733 919 L 4733 870 L 4741 870 C 4754 867 4761 861 4761 851 L 4761 756 C 4761 733 4746 722 4716 722 C 4706 722 4696 724 4688 730 C 4678 736 4674 744 4674 754 L 4674 851 C 4674 861 4680 867 4694 870 L 4702 870 L 4702 919 L 4527 919 L 4527 870 L 4535 870 C 4548 867 4554 861 4554 851 L 4554 756 C 4554 745 4550 736 4540 730 C 4531 724 4522 722 4510 722 C 4499 722 4490 724 4482 730 C 4472 736 4468 744 4468 754 L 4468 852 C 4468 861 4477 867 4494 870 L 4502 870 L 4502 919 L 4322 919 L 4322 870 C 4324 870 4325 870 4327 870 C 4332 870 4337 868 4342 864 C 4347 860 4349 856 4349 851 L 4349 753 C 4343 737 4336 728 4326 726 L 4322 725 z" id="imagebot_11"/>
  <path fill-rule="nonzero" fill="black" d="M 5366 919 L 5059 919 L 5059 861 C 5070 862 5080 858 5088 849 C 5094 842 5097 834 5097 826 L 5097 676 C 5097 665 5091 656 5081 648 C 5075 644 5068 642 5059 642 L 5059 582 L 5395 583 C 5425 583 5451 592 5475 611 C 5495 626 5504 644 5504 665 C 5504 675 5502 685 5497 695 C 5491 706 5485 713 5477 718 C 5464 725 5451 731 5438 735 L 5427 739 L 5436 742 C 5453 748 5471 756 5488 767 C 5497 772 5505 781 5511 792 C 5516 803 5519 815 5519 826 C 5519 861 5495 888 5446 905 C 5423 913 5400 918 5379 918 L 5366 919 z M 5249 699 C 5249 705 5252 708 5259 708 L 5323 708 C 5329 708 5335 705 5340 698 L 5344 692 C 5347 687 5348 681 5348 676 C 5348 668 5345 662 5340 655 C 5334 649 5328 646 5321 646 L 5259 646 C 5255 646 5252 649 5249 656 L 5249 699 z M 5249 841 C 5249 847 5252 850 5259 850 L 5323 850 C 5329 850 5337 846 5346 837 C 5351 831 5354 824 5354 815 C 5354 807 5350 798 5343 789 C 5336 780 5329 776 5321 776 L 5259 776 C 5255 776 5251 779 5249 785 L 5249 841 z" id="imagebot_12"/>
  <path fill-rule="nonzero" fill="black" d="M 5675 772 L 5735 772 C 5740 769 5742 766 5742 765 L 5742 745 C 5742 738 5739 732 5733 727 C 5727 721 5720 718 5712 716 C 5705 714 5699 713 5695 713 L 5689 713 C 5674 713 5665 716 5662 721 L 5662 732 C 5662 745 5656 754 5645 761 C 5635 766 5624 769 5610 769 C 5590 769 5572 763 5559 752 C 5552 746 5549 739 5549 728 C 5549 706 5566 689 5600 677 C 5620 670 5644 666 5672 666 L 5709 666 L 5728 667 C 5733 667 5742 668 5756 669 C 5792 676 5820 689 5838 707 C 5850 719 5856 732 5856 747 L 5856 856 C 5856 863 5860 866 5868 866 C 5875 866 5879 862 5879 855 L 5902 854 L 5902 864 C 5902 894 5886 914 5854 923 C 5839 927 5827 929 5817 929 C 5799 929 5782 924 5767 912 L 5756 904 L 5746 898 C 5710 917 5673 926 5634 926 C 5615 926 5598 923 5582 917 C 5564 909 5551 898 5544 884 C 5539 872 5536 861 5536 851 C 5536 830 5545 812 5563 799 C 5578 788 5596 780 5620 776 L 5633 773 L 5640 773 L 5646 772 L 5655 772 L 5663 772 L 5675 772 z M 5745 825 C 5745 816 5734 812 5713 812 L 5706 812 C 5692 812 5680 816 5668 824 C 5661 829 5657 836 5657 844 C 5657 859 5666 868 5683 872 C 5690 874 5695 874 5700 874 C 5730 872 5745 865 5745 853 L 5745 825 z" id="imagebot_13"/>
  <path fill-rule="nonzero" fill="black" d="M 5913 725 L 5913 676 L 6063 676 L 6063 700 C 6081 683 6102 672 6125 669 C 6135 667 6141 666 6144 666 L 6161 666 C 6180 666 6195 668 6206 672 C 6218 676 6231 683 6244 695 C 6258 706 6265 724 6265 747 L 6265 851 C 6265 861 6271 867 6285 869 C 6286 869 6289 870 6293 870 L 6293 919 L 6122 919 L 6122 869 L 6129 869 C 6142 866 6149 860 6149 851 L 6149 756 C 6149 745 6144 736 6135 730 C 6126 724 6116 722 6105 722 C 6094 722 6084 724 6076 730 C 6067 736 6063 744 6063 754 L 6063 852 C 6063 862 6072 868 6089 869 L 6096 869 L 6096 919 L 5917 919 L 5917 869 L 5925 869 C 5938 867 5944 861 5944 851 L 5944 754 C 5937 737 5929 728 5921 726 L 5916 725 L 5913 725 z" id="imagebot_14"/>
  <path fill-rule="nonzero" fill="black" d="M 6310 725 L 6310 676 L 6460 676 L 6460 700 C 6478 683 6499 672 6522 669 C 6531 667 6538 666 6541 666 L 6558 666 C 6577 666 6592 668 6603 672 C 6615 676 6627 683 6641 695 C 6655 706 6661 724 6661 747 L 6661 851 C 6661 861 6668 867 6682 869 C 6683 869 6686 870 6689 870 L 6689 919 L 6518 919 L 6518 869 L 6526 869 C 6539 866 6546 860 6546 851 L 6546 756 C 6546 745 6541 736 6531 730 C 6523 724 6513 722 6502 722 C 6491 722 6481 724 6473 730 C 6464 736 6460 744 6460 754 L 6460 852 C 6460 862 6468 868 6486 869 L 6493 869 L 6493 919 L 6314 919 L 6314 869 L 6322 869 C 6335 867 6341 861 6341 851 L 6341 754 C 6334 737 6326 728 6317 726 L 6313 725 L 6310 725 z" id="imagebot_15"/>
  <path fill-rule="nonzero" fill="black" d="M 7028 730 C 7044 754 7052 777 7052 798 C 7052 802 7052 805 7052 807 L 6843 807 C 6841 826 6846 842 6858 855 C 6866 864 6876 868 6889 868 C 6901 868 6912 864 6921 857 C 6929 850 6935 841 6936 829 L 6938 820 L 7050 820 C 7041 856 7020 884 6986 903 C 6957 920 6922 929 6882 929 C 6836 929 6798 920 6766 901 C 6728 878 6708 846 6708 803 C 6708 783 6711 767 6717 753 C 6722 740 6732 727 6746 715 C 6783 682 6827 666 6878 666 L 6891 666 C 6925 666 6956 673 6983 688 C 7000 697 7015 711 7028 730 z M 6846 759 L 6924 759 L 6924 751 C 6919 731 6906 721 6883 721 C 6862 721 6849 731 6846 751 L 6846 759 z" id="imagebot_16"/>
  <path fill-rule="nonzero" fill="black" d="M 7080 725 L 7070 723 L 7070 676 L 7216 676 L 7220 699 L 7226 696 L 7237 689 C 7256 676 7277 670 7299 670 C 7316 670 7331 675 7344 686 C 7356 696 7363 710 7363 727 C 7363 768 7343 789 7303 789 C 7271 789 7253 771 7249 736 L 7249 731 L 7248 730 C 7235 732 7225 741 7221 757 C 7219 762 7219 766 7219 771 L 7219 783 L 7219 850 C 7219 860 7227 866 7243 869 L 7251 870 L 7251 919 L 7073 919 L 7073 870 L 7081 869 C 7093 865 7100 859 7100 850 L 7100 753 C 7100 738 7093 729 7080 725 z" id="imagebot_17"/>
  <path fill-rule="nonzero" fill="black" d="M 7603 674 L 7605 669 L 7648 669 L 7648 743 L 7586 743 C 7575 727 7561 718 7543 716 C 7519 716 7508 721 7508 731 C 7508 740 7518 747 7538 750 L 7541 750 L 7564 751 L 7575 752 C 7600 754 7622 761 7639 774 C 7660 788 7670 807 7670 831 C 7670 863 7654 888 7621 906 C 7595 920 7564 927 7528 927 C 7515 927 7500 924 7484 919 L 7469 914 L 7459 911 L 7453 908 C 7450 906 7446 905 7442 905 C 7436 905 7431 909 7426 918 L 7424 925 L 7380 925 L 7380 851 L 7452 851 C 7460 871 7479 880 7511 880 C 7531 880 7541 874 7541 861 C 7541 854 7537 848 7528 844 C 7526 843 7523 842 7519 840 L 7496 839 L 7481 837 C 7455 834 7432 826 7413 814 C 7389 800 7377 780 7377 757 C 7377 736 7386 718 7404 703 C 7419 690 7438 681 7459 676 C 7482 671 7500 669 7514 669 C 7530 669 7545 671 7559 676 L 7572 680 C 7580 682 7585 683 7588 683 C 7593 683 7598 680 7603 674 z" id="imagebot_18"/>
  <path fill-rule="nonzero" fill="black" d="M 5541 7207 C 5529 7204 5519 7199 5510 7191 C 5501 7182 5496 7171 5496 7159 C 5496 7150 5500 7140 5509 7132 C 5517 7124 5525 7120 5535 7118 C 5545 7116 5553 7114 5558 7114 L 5564 7114 C 5567 7115 5569 7115 5571 7115 C 5603 7121 5619 7136 5619 7160 C 5619 7179 5608 7194 5586 7203 C 5578 7207 5568 7208 5556 7208 L 5549 7208 C 5549 7208 5546 7208 5541 7207 z" id="imagebot_32"/>
  <title>imagebot_36</title>
 </g>
</svg>