<?xml version="1.0" encoding="utf-8"?>
<!-- Generator: Adobe Illustrator 19.2.0, SVG Export Plug-In  -->
<!DOCTYPE svg PUBLIC "-//W3C//DTD SVG 1.1//EN" "http://www.w3.org/Graphics/SVG/1.1/DTD/svg11.dtd" [
	<!ENTITY ns_flows "http://ns.adobe.com/Flows/1.0/">
]>
<svg version="1.1"
	 xmlns="http://www.w3.org/2000/svg" xmlns:xlink="http://www.w3.org/1999/xlink" xmlns:a="http://ns.adobe.com/AdobeSVGViewerExtensions/3.0/"
	 x="0px" y="0px" width="8644.456px" height="3978.826px" viewBox="0 0 8644.456 3978.826"
	 overflow="inherit" enable-background="new 0 0 8644.456 3978.826" xml:space="preserve">
<defs>
</defs>
<path fill="#4D4D4D" d="M7191.442,3189.958c0.63,4.11,0.81,8.21,0.52,12.29L7191.442,3189.958z"/>
<path fill="#4D4D4D" d="M7191.442,3189.958c0-0.03-0.01-0.05-0.02-0.08c-0.01-0.49-0.03-0.99-0.05-1.48L7191.442,3189.958z"/>
<path fill="#4D4D4D" d="M1699.553,2362.793c-0.467,0.986-0.953,1.961-1.426,2.943c0.52-0.001,1.038-0.003,1.557-0.005
	C1699.641,2364.751,1699.593,2363.778,1699.553,2362.793z"/>
<path fill="#4D4D4D" d="M4315.714,2553.348c-0.792,0.664-1.595,1.334-2.396,2.003l0,0c0.799,0,1.597-0.001,2.396-0.001V2553.348z"/>
<path fill="#4D4D4D" d="M7373.817,3551.461c14.741,2.456,30.113,4.457,46.154,6.012c-0.024-2.153-0.048-4.3-0.073-6.465
	C7404.739,3551.165,7389.367,3551.317,7373.817,3551.461z"/>
<path fill="#4D4D4D" d="M5089.005,1804.823v45.99c2.828-15.775,5.99-31.115,9.497-45.994
	C5095.335,1804.82,5092.172,1804.821,5089.005,1804.823L5089.005,1804.823z"/>
<path fill="#4D4D4D" d="M6436.243,1486.306c-2.477-2.288-5.032-4.553-7.65-6.796c0.014,4.217,0.028,8.457,0.042,12.682
	C6431.166,1490.233,6433.709,1488.267,6436.243,1486.306z"/>
<path fill="#4D4D4D" d="M6163.577,1397.984c6.395-0.104,12.917-0.208,19.539-0.313c-0.348-0.102-0.7-0.206-1.042-0.307
	c-4.201-1.239-9.943-2.933-11.894-3.053c-6.682-0.014-13.653-1.977-21.724-4.247c-9.964-2.804-21.257-5.981-33.193-5.981h-18.907
	v-17.101h-4.468c0.054,10.73,0.107,21.489,0.161,32.302C6113.878,1398.887,6137.789,1398.453,6163.577,1397.984z"/>
<path fill="#4D4D4D" d="M6406.834,1968.422L6406.834,1968.422c-4.179,3.144-8.386,6.306-12.605,9.477l0,0
	c4.195,0.009,8.408,0.018,12.596,0.026C6406.828,1974.756,6406.831,1971.591,6406.834,1968.422z"/>
<path fill="#4D4D4D" d="M5399.276,2745.12L5399.276,2745.12c-4.003,3.494-7.992,6.984-11.96,10.465
	c3.998-0.02,7.994-0.04,12.002-0.06C5399.304,2752.064,5399.29,2748.59,5399.276,2745.12z"/>
<path fill="#4D4D4D" d="M5097.956,2316.812c-3.288-13.78-6.272-27.927-8.951-42.426v87.94c7.109,0.003,14.21,0.006,21.314,0.01
	C5105.797,2347.554,5101.67,2332.378,5097.956,2316.812z"/>
<path fill="#4D4D4D" d="M5757.549,2022.588c10.378-8.404,20.828-16.855,31.348-25.351c-10.429,0.013-20.862,0.026-31.316,0.039
	C5757.57,2005.717,5757.56,2014.151,5757.549,2022.588z"/>
<path fill="#4D4D4D" d="M5143.669,2983.109c15.757-4.994,31.438-9.885,47.043-14.677c-10.791-0.054-21.525-0.107-32.198-0.161
	C5153.522,2973.236,5148.568,2978.184,5143.669,2983.109z"/>
<path fill="#4D4D4D" d="M8109.387,1597.52c-0.362-0.493-0.721-0.996-1.084-1.486c0.005,0.495,0.01,0.985,0.015,1.481
	C8108.676,1597.516,8109.029,1597.518,8109.387,1597.52z"/>
<path fill="#4D4D4D" d="M7437.462,2379.431c0.003,2.358,0.006,4.727,0.01,7.087c4.619-2.12,9.889-4.05,15.857-4.535
	c3.293-0.86,6.582-1.749,9.87-2.654C7454.651,2379.363,7446.081,2379.397,7437.462,2379.431z"/>
<path fill="#4D4D4D" d="M7719.993,2402.663c9.848-1.655,20.332-3.48,31.135-5.453c0.006-4.714,0.013-9.436,0.019-14.145
	C7739.307,2390.749,7728.706,2397.357,7719.993,2402.663z"/>
<path fill="#4D4D4D" d="M7773.516,2378.095c0.007,4.953,0.013,9.925,0.02,14.884c28.041-5.474,50.432-10.551,68.304-15.156
	C7819.446,2377.912,7796.672,2378.003,7773.516,2378.095z"/>
<path fill="#4D4D4D" d="M7773.127,2206.104c5.516-6.571,11.355-13.668,17.431-21.252c-5.81,0.023-11.64,0.046-17.497,0.07
	C7773.083,2191.966,7773.105,2199.034,7773.127,2206.104z"/>
<path fill="#4D4D4D" d="M5755.9,2585.525L5755.9,2585.525c6.813-2.486,13.405-5.308,19.766-8.484
	c-6.572,0.008-13.135,0.016-19.717,0.024C5755.933,2579.895,5755.917,2582.703,5755.9,2585.525z"/>
<path fill="#4D4D4D" d="M5538.153,1044.186L5538.153,1044.186c-25.367,0.575-45.36,1.221-59.074,1.579
	c-14.012,0.428-21.486,0.657-21.486,0.657s7.474,0.229,21.486,0.657c13.754,0.359,33.824,1.008,59.296,1.584l0,0
	C5538.3,1047.168,5538.226,1045.676,5538.153,1044.186z"/>
<path fill="#4D4D4D" d="M2250.611,2557.652L2250.611,2557.652c22.632,2.295,48.018,3.432,76.434,3.432
	c20.463,0,42.116-1.257,64.658-3.745c-4.742-7.839-9.155-15.877-13.28-24.072c0.168,8.177,0.333,16.229,0.495,24.116
	C2335.814,2557.473,2293.041,2557.563,2250.611,2557.652z"/>
<path fill="#4D4D4D" d="M6407.622,1508.472c6.993-5.42,13.996-10.846,21.014-16.28v0c-0.014-4.225-0.028-8.466-0.042-12.682
	c-6.527-5.592-13.488-11.029-20.822-16.271C6407.722,1478.265,6407.672,1493.334,6407.622,1508.472
	C6407.622,1508.472,6407.622,1508.472,6407.622,1508.472z"/>
<path fill="#4D4D4D" d="M6611.785,698.733c-8.871,0-18.055,0.221-27.298,0.657c-10.67,0.525-21.141,1.377-31.428,2.51
	c37.857-0.042,75.694-0.076,113.266-0.172C6649.106,699.741,6630.927,698.733,6611.785,698.733z"/>
<path fill="#4D4D4D" d="M6147.078,1610.203c43.685-0.092,87.063-0.183,130.115-0.274l0,0c7.929-6.191,15.881-12.395,23.855-18.612
	c-55.597-0.117-111.733-0.235-168.395-0.354C6137.584,1597.24,6142.394,1603.652,6147.078,1610.203z"/>
<path fill="#4D4D4D" d="M5749.336,693.642c16.671,0.413,34.932,0.847,54.63,1.255c4.717,0.101,9.523,0.201,14.402,0.302l0,0
	c4.108-3.217,8.267-6.447,12.479-9.691c-9.23,0.185-18.195,0.371-26.881,0.556c-19.735,0.409-38.027,0.844-54.724,1.257
	c-0.283-19.14-0.547-36.965-0.79-53.329c-0.58-39.925-1.246-71.295-1.607-92.684c-0.426-21.389-0.653-32.796-0.653-32.796
	s-0.227,11.407-0.653,32.796c-0.362,21.389-1.028,52.759-1.608,92.684c-0.243,16.407-0.507,34.283-0.792,53.481
	c-10.379,0.26-20.11,0.508-29.132,0.733c-24.939,0.584-44.534,1.251-57.894,1.616c-13.36,0.428-20.486,0.657-20.486,0.657
	s7.125,0.229,20.486,0.657c13.36,0.365,32.955,1.033,57.894,1.616c8.996,0.224,18.698,0.473,29.043,0.731
	c-0.299,20.184-0.619,41.81-0.958,64.748c2.663-2.324,5.369-4.666,8.096-7.018C5749.889,730.938,5749.604,711.708,5749.336,693.642z
	"/>
<path fill="#4D4D4D" d="M6110.917,505.186c-8.768,0.158-17.41,0.313-25.884,0.466c-0.198-16.631-0.385-32.373-0.561-47.165
	c-0.58-49.713-1.246-88.773-1.608-115.405c-0.021-1.281-0.04-2.525-0.06-3.749c22.726,0.634,47.776,1.266,74.756,1.884
	c15.783,0.332,32.223,0.677,49.239,1.035c17.016,0.305,34.607,0.621,52.691,0.946c36.169,0.582,74.311,1.124,113.768,1.531
	c14.077,0.129,28.328,0.26,42.709,0.392c-0.025,1.834-0.049,3.678-0.075,5.541c-0.092,8.025-0.188,16.319-0.286,24.874
	c1.694-0.534,3.384-1.057,5.075-1.583l0,0c-0.092-7.991-0.181-15.766-0.268-23.291c-0.025-1.849-0.049-3.68-0.074-5.501
	c4.326,0.04,8.658,0.079,13.007,0.12c10.152,0.082,20.366,0.164,30.631,0.247c10.265,0.05,20.581,0.101,30.938,0.151
	c10.146,0.063,20.333,0.111,30.549,0.15l0,0c55.654-12.413,108.618-19.97,157.773-22.321c1.728-0.083,3.472-0.148,5.209-0.219
	c-22.575-0.057-45.249-0.084-67.926-0.119c-42.087,0.062-84.175,0.082-125.605,0.339c-10.357,0.051-20.674,0.101-30.938,0.151
	c-10.265,0.083-20.479,0.165-30.631,0.247c-4.444,0.041-8.872,0.082-13.292,0.122c-0.523-38.889-0.945-70.147-1.249-92.747
	c-0.426-27.549-0.653-42.243-0.653-42.243s-0.227,14.693-0.653,42.243c-0.304,22.607-0.725,53.877-1.249,92.782
	c-14.479,0.133-28.823,0.265-42.993,0.395c-39.457,0.407-77.599,0.949-113.768,1.531c-18.084,0.325-35.676,0.641-52.691,0.946
	c-17.016,0.358-33.457,0.703-49.239,1.035c-27.04,0.619-52.142,1.253-74.908,1.888c-0.289-18.079-0.441-27.612-0.441-27.612
	s-0.153,9.542-0.442,27.637c-3.507,0.098-6.962,0.196-10.356,0.294c-25.647,0.72-48.006,1.52-66.419,2.143
	c-18.413,0.584-32.881,1.251-42.745,1.616c-9.864,0.428-15.125,0.657-15.125,0.657s5.261,0.229,15.125,0.657
	c9.864,0.365,24.332,1.032,42.745,1.616c18.414,0.622,40.772,1.423,66.419,2.143c3.346,0.097,6.75,0.193,10.206,0.29
	c-0.02,1.234-0.04,2.489-0.061,3.782c-0.361,26.632-1.028,65.692-1.608,115.405c-0.176,14.822-0.363,30.598-0.562,47.267
	c-2.636,0.047-5.261,0.095-7.866,0.141c-36.873,0.723-70.673,1.466-100.632,2.207c-29.959,0.72-56.078,1.52-77.587,2.143
	c-21.509,0.584-38.409,1.251-49.932,1.616c-11.523,0.428-17.668,0.657-17.668,0.657s6.146,0.229,17.668,0.657
	c11.523,0.365,28.423,1.033,49.932,1.616c21.509,0.623,47.628,1.423,77.587,2.143c29.959,0.742,63.759,1.484,100.632,2.207
	c2.553,0.046,5.124,0.092,7.705,0.139c-0.012,1.049-0.025,2.112-0.038,3.167l0,0
	C6089.604,516.662,6100.178,510.906,6110.917,505.186z"/>
<path fill="#4D4D4D" d="M7841.839,2377.823c12.097-3.117,22.127-6.017,30.439-8.677c-8.474-0.042-16.988-0.085-25.577-0.128
	c-23.953-0.095-48.365-0.192-73.198-0.291c0-0.169,0-0.337,0-0.506c-7.801,5.298-15.3,10.264-22.355,14.843
	c-0.006,4.709-0.013,9.431-0.019,14.145c6.271-1.146,12.648-2.34,19.075-3.582c1.124-0.217,2.226-0.433,3.333-0.649
	c-0.007-4.959-0.013-9.931-0.02-14.884C7796.672,2378.003,7819.446,2377.912,7841.839,2377.823z"/>
<path fill="#4D4D4D" d="M5632.115,865.224L5632.115,865.224c-15.626,0.362-29.999,0.712-42.994,1.019
	c-26.375,0.584-47.099,1.251-61.229,1.616c-14.129,0.428-21.666,0.657-21.666,0.657s7.536,0.229,21.666,0.657
	c14.13,0.365,34.854,1.032,61.229,1.616c11.404,0.269,23.869,0.572,37.31,0.886l0,0
	C5628.297,869.536,5630.192,867.385,5632.115,865.224z"/>
<path fill="#4D4D4D" d="M6045.695,1400.127c-32.68,0.584-58.357,1.251-75.864,1.616c-17.507,0.428-26.845,0.657-26.845,0.657
	s9.337,0.229,26.845,0.657c17.507,0.365,43.184,1.033,75.864,1.616c8.422,0.153,17.317,0.315,26.65,0.484
	c-0.079,15.783-0.158,31.64-0.238,47.588c-0.083,24.26-0.167,48.712-0.252,73.321c7.105,6.348,14.033,12.905,20.781,19.671
	c-0.108-31.262-0.214-62.279-0.32-92.992c-0.079-15.827-0.158-31.565-0.236-47.229c21.821,0.397,45.721,0.831,71.497,1.3
	c28.999,0.473,60.375,0.945,93.808,1.413c-0.807-0.108-1.617-0.215-2.421-0.322c-11.984-1.602-24.377-3.257-33.307-3.257
	c-14.419,0-27.717-3.791-38.541-6.979c-6.622,0.104-13.144,0.208-19.539,0.313c-25.788,0.469-49.698,0.903-71.528,1.3
	c-0.054-10.813-0.107-21.572-0.161-32.302h-19.352c-0.054,10.848-0.108,21.726-0.163,32.659
	C6063.03,1399.812,6054.125,1399.973,6045.695,1400.127z"/>
<path fill="#4D4D4D" d="M8087.968,2196.382c7.511-9.132,14.597-18.267,21.255-27.391c0.069-10.787,0.139-21.615,0.209-32.502
	c0.05-12.883,0.101-25.829,0.151-38.828c0.176-35.568,0.24-71.525,0.283-107.601c23.908-0.12,47.108-0.236,69.602-0.348
	c0.404-1.803,0.808-3.621,1.212-5.451c-22.869-0.114-46.471-0.232-70.806-0.354c0.017-14.615,0.031-29.245,0.048-43.877
	c-0.059-47.947-0.095-95.886-0.292-143.216c27.879-0.139,54.8-0.274,80.752-0.404c-0.113-1.786-0.234-3.57-0.367-5.35
	c-25.847-0.129-52.655-0.263-80.412-0.402c-0.013-2.752-0.023-5.512-0.037-8.26c-0.137-25.997-0.272-51.787-0.406-77.268
	c-0.188-25.481-0.375-50.652-0.558-75.411c-0.071-8.733-0.147-17.411-0.228-26.036c1.822-0.009,3.628-0.018,5.443-0.027
	c-1.47-2.07-2.947-4.117-4.431-6.136c-0.358-0.002-0.711-0.004-1.07-0.005c-0.005-0.495-0.01-0.986-0.015-1.481
	c-6.34-8.555-12.804-16.638-19.367-24.314c-0.088,8.508-0.174,17.07-0.256,25.697c-25.14-0.126-51.036-0.255-77.63-0.388
	c1.398,2.361,2.772,4.734,4.122,7.121c25.13-0.126,49.625-0.248,73.448-0.367c-0.08,8.593-0.155,17.238-0.227,25.938
	c-0.183,24.759-0.369,49.93-0.558,75.411c-0.134,25.481-0.27,51.271-0.406,77.268c-0.013,2.711-0.024,5.433-0.036,8.149
	c-5.688-0.028-11.427-0.057-17.19-0.086c0.166,2.178,0.326,4.358,0.465,6.548c5.597-0.028,11.17-0.056,16.697-0.083
	c-0.197,47.293-0.233,95.195-0.292,143.104c0.017,14.594,0.031,29.187,0.048,43.763c-10.508-0.052-21.159-0.106-31.922-0.16
	c-0.371,2.238-0.759,4.474-1.162,6.706c11.162-0.056,22.205-0.111,33.092-0.166c0.043,36.038,0.108,71.957,0.283,107.487
	c0.05,12.998,0.101,25.945,0.151,38.828c0.083,12.882,0.166,25.7,0.248,38.441c0.005,0.708,0.01,1.411,0.016,2.118
	c-35.981-0.18-73.485-0.367-112.418-0.562c-1.814,2.526-3.658,5.033-5.526,7.526c40.933-0.205,80.294-0.401,117.991-0.59
	C8087.905,2187.754,8087.937,2192.069,8087.968,2196.382z"/>
<path fill="#4D4D4D" d="M7463.199,2379.329c12.853-3.538,25.674-7.428,38.501-11.682c-21.195-0.084-42.609-0.17-64.254-0.256
	c-0.033-24.738-0.066-49.405-0.1-73.954c-0.113-36.002-0.226-71.749-0.337-107.18c110.968-0.441,216.103-0.859,314.6-1.251
	c-0.048,15.334-0.096,30.738-0.145,46.185c6.321-7.108,13.646-15.535,21.663-25.087c-0.022-7.07-0.044-14.138-0.066-21.183
	c5.857-0.023,11.687-0.046,17.497-0.07c2.397-2.992,4.833-6.066,7.297-9.203c-8.232-0.033-16.495-0.066-24.824-0.099
	c-0.011-3.667-0.023-7.352-0.034-11.012c-0.188-42.805-0.375-85.091-0.558-126.683c-0.076-15.493-0.156-30.89-0.241-46.182
	c25.284-0.101,50.13-0.199,74.503-0.296c23.559-0.118,46.668-0.233,69.35-0.347c1.5-2.477,2.923-5.184,4.254-8.07
	c-24.041-0.12-48.57-0.243-73.604-0.368c-24.389-0.097-49.253-0.196-74.556-0.297c-0.358-63.346-0.787-124.853-1.238-183.864
	c25.73-0.102,51.006-0.203,75.794-0.301c30.456-0.152,60.171-0.301,89.153-0.446c-0.42-2.585-0.868-5.219-1.353-7.9
	c-28.555-0.143-57.818-0.289-87.8-0.439c-24.812-0.099-50.112-0.199-75.869-0.302c-0.514-64.581-1.082-126.113-1.675-183.743
	c26.143-0.104,51.809-0.206,76.98-0.306c-2.377-2.949-4.78-5.888-7.204-8.818c-22.898-0.091-46.18-0.184-69.874-0.278
	c-0.045-4.283-0.089-8.545-0.134-12.784c-0.271-22.414-0.535-44.185-0.791-65.287c-3.716-3.236-7.55-6.415-11.487-9.528
	c-0.292,24.055-0.593,49.01-0.906,74.815c-0.045,4.221-0.089,8.465-0.134,12.731c-100.844-0.401-208.676-0.83-322.642-1.283
	c-0.033-3.098-0.065-6.196-0.098-9.27c-0.763-62.698-1.465-120.441-2.093-172.081c13.234-0.049,26.436-0.098,39.561-0.147
	c11.437-0.06,22.811-0.119,34.154-0.179c-2.858-0.454-5.73-0.908-8.633-1.363h-70.575c-11.485,0-25.204-1.831-38.471-3.602
	c-12.043-1.607-24.496-3.27-33.469-3.27h-54.874c-8.146,0-19.145,1.351-30.788,2.779c-15.63,1.918-33.344,4.092-51.528,4.092
	c-12.156,0-28.344,0.01-42.786,2.274c62.928-0.052,125.728-0.111,187.697-0.326c20.339-0.076,40.578-0.151,60.714-0.226
	c-0.628,51.631-1.33,109.364-2.092,172.048c-0.033,3.056-0.065,6.137-0.097,9.217c-41.169-0.164-83.119-0.33-125.829-0.5
	c-57.642-0.174-116.671-0.353-176.95-0.535c-0.351,4.676-0.75,9.439-1.172,14.257c60.686-0.183,120.106-0.363,178.122-0.539
	c42.666-0.17,84.573-0.336,125.702-0.5c-0.587,56.781-1.15,117.368-1.661,180.948c-40.597-0.161-81.948-0.326-124.041-0.493
	c-60.406-0.183-122.331-0.37-185.626-0.561v14.306c63.296-0.191,125.221-0.379,185.626-0.561
	c42.059-0.167,83.378-0.332,123.944-0.493c-0.447,58.129-0.871,118.687-1.227,181.045c-40.173-0.16-81.082-0.323-122.717-0.488
	c-57.135-0.173-115.633-0.35-175.36-0.53v14.244c59.727-0.181,118.225-0.357,175.36-0.53c41.611-0.165,82.498-0.328,122.648-0.488
	c-0.082,14.895-0.161,29.888-0.235,44.975c-0.183,41.412-0.369,83.514-0.558,126.134c-0.01,3.301-0.021,6.624-0.031,9.931
	c-39.886-0.159-80.498-0.32-121.824-0.485c-56.903-0.172-115.156-0.348-174.63-0.528c-0.458,3.876-0.73,7.754-0.73,11.661
	c0,0.858-0.001,1.72-0.001,2.58c59.727-0.181,118.225-0.357,175.361-0.53c41.313-0.164,81.912-0.326,121.786-0.484
	c-0.111,35.403-0.223,71.121-0.336,107.094c-0.033,24.519-0.066,49.157-0.1,73.865c-39.733-0.158-80.187-0.319-121.349-0.483
	c-31.261-0.094-62.924-0.19-94.974-0.287c1.758,4.196,3.205,8.722,4.155,13.745c30.629-0.093,60.914-0.184,90.819-0.275
	c41.157-0.164,81.604-0.324,121.333-0.482c-0.006,4.247-0.011,8.51-0.017,12.761h9.972c1.385-0.279,4.802-2.004,7.083-3.156
	c1.671-0.844,3.453-1.741,5.341-2.607c-0.003-2.36-0.007-4.728-0.01-7.087C7446.081,2379.397,7454.651,2379.363,7463.199,2379.329z
	 M7433.093,1606.636c113.882-0.453,221.64-0.881,322.418-1.282c-0.592,57.594-1.16,119.085-1.674,183.621
	c-99.806-0.397-206.445-0.821-319.082-1.269C7434.245,1724.081,7433.681,1663.453,7433.093,1606.636z M7434.851,1799.767
	c112.574-0.448,219.155-0.872,318.911-1.268c-0.452,58.966-0.879,120.424-1.237,183.718c-99.036-0.394-204.791-0.814-316.446-1.258
	C7435.723,1918.549,7435.299,1857.941,7434.851,1799.767z M7436.94,2164.197c-0.188-42.62-0.375-84.722-0.558-126.134
	c-0.074-15.113-0.153-30.132-0.235-45.053c111.609-0.444,217.324-0.864,316.324-1.258c-0.084,15.266-0.165,30.637-0.24,46.104
	c-0.183,41.592-0.369,83.878-0.558,126.683c-0.011,3.632-0.023,7.288-0.034,10.927c-98.516-0.392-203.674-0.81-314.667-1.251
	C7436.961,2170.878,7436.95,2167.526,7436.94,2164.197z"/>
<path fill="#4D4D4D" d="M5075.544,1463.48L5075.544,1463.48c-0.273-11.806-0.521-21.899-0.695-30.117
	c-0.426-16.967-0.653-26.016-0.653-26.016s-0.227,9.049-0.653,26.016c-0.177,8.32-0.428,18.554-0.706,30.548l0,0L5075.544,1463.48z"
	/>
<path fill="#4D4D4D" d="M4740.472,1516.782c-0.054-2.944-0.107-5.838-0.16-8.676c-0.58-32.06-1.246-57.25-1.608-74.425
	c-0.426-17.175-0.653-26.335-0.653-26.335s-0.228,9.16-0.653,26.335c-0.361,17.175-1.028,42.365-1.607,74.425
	c-0.057,3.085-0.115,6.237-0.174,9.448l0,0L4740.472,1516.782z"/>
<path fill="#4D4D4D" d="M3060.362,1473.519c-0.079-2.38-0.156-4.706-0.23-6.971c-0.58-18.837-1.246-33.637-1.608-43.729
	c-0.426-10.091-0.653-15.473-0.653-15.473s-0.227,5.382-0.653,15.473c-0.361,10.091-1.028,24.892-1.608,43.729
	c-0.083,2.538-0.169,5.155-0.259,7.838l0,0L3060.362,1473.519z"/>
<path fill="#4D4D4D" d="M3402.634,1734.684c-0.04-2.597-0.08-5.206-0.121-7.783c-0.599-37.001-1.274-71.984-1.978-104.276
	c-0.083-3.732-0.167-7.423-0.25-11.082c20.645,0.025,41.321,0.05,62.019,0.076l0,0c4.679-7.51,9.498-14.86,14.445-22.058l0,0
	c-25.696,0.031-51.365,0.062-76.978,0.094c-0.475-19.678-0.955-38.131-1.435-55.159c-0.715-26.237-1.516-49.111-2.132-67.948
	c-0.58-18.837-1.246-33.637-1.608-43.729c-0.426-10.091-0.653-15.473-0.653-15.473s-0.227,5.382-0.653,15.473
	c-0.156,4.346-0.368,9.569-0.605,15.608v324.907C3395.838,1753.637,3399.162,1744.091,3402.634,1734.684z"/>
<path fill="#4D4D4D" d="M5756.101,1393.375c-0.298-56.487-0.651-111.605-1.029-164.935c6.491,0.139,13.152,0.278,19.979,0.413
	c36.276,0.742,77.202,1.484,121.85,2.207c22.324,0.332,45.577,0.677,69.645,1.035c24.067,0.305,48.949,0.621,74.528,0.946
	c10.59,0.12,21.307,0.239,32.129,0.355c-0.184,36.735-0.371,74.122-0.56,112.05l19.079-11.438
	c-0.169-33.946-0.337-67.444-0.501-100.422c35.874,0.371,72.891,0.709,110.769,0.985c27.905,0.181,56.274,0.365,84.993,0.552
	c14.359,0.082,28.806,0.164,43.325,0.247c14.519,0.05,29.111,0.101,43.76,0.151c11.522,0.051,23.089,0.09,34.676,0.124
	c-0.131,27.143-0.264,54.585-0.397,82.278c6.541,0.077,13.08,0.146,19.618,0.209c-0.134-27.747-0.267-55.242-0.398-82.437
	c41.179,0.097,82.666,0.121,124.16,0.165c59.53-0.065,119.059-0.1,177.659-0.356c4.435-0.021,8.855-0.041,13.277-0.062l0,0
	c7.354-8.048,14.44-16.123,21.253-24.217c-0.247-52.605-0.49-104.236-0.727-154.686c0.738-0.005,1.483-0.01,2.22-0.015
	c31.974-0.231,63.336-0.508,93.921-0.812l0,0c1.852-4.83,3.596-9.649,5.223-14.453c0.459-1.357,0.889-2.711,1.331-4.067
	c-32.653-0.329-66.212-0.63-100.475-0.878c-0.769-0.005-1.545-0.01-2.314-0.015c-0.082-17.362-0.163-34.594-0.243-51.658
	c-0.243-35.915-0.48-71.134-0.714-105.616c21.174-0.137,42.146-0.273,62.861-0.407c17.185-0.123,34.193-0.26,51.004-0.406l0,0
	c-1.33-6.658-2.872-13.136-4.621-19.437l0,0c-15.306-0.131-30.77-0.254-46.383-0.366c-20.761-0.135-41.78-0.271-63.003-0.408
	c-0.305-45.083-0.6-88.796-0.885-131.013l0,0c-4.427-2.061-8.958-4.022-13.617-5.859c-0.297,43.988-0.606,89.641-0.924,136.772
	c-2.551-0.017-5.088-0.033-7.644-0.05c-29.083-0.134-58.521-0.27-88.193-0.406c-59.345-0.256-119.631-0.291-179.918-0.356
	c-15.174,0.016-30.348,0.029-45.507,0.043c-0.19-27.401-0.377-54.218-0.559-80.373c-0.139-15.19-0.275-30.149-0.41-44.888l0,0
	c-4.175,1.465-8.302,2.969-12.404,4.492c-0.122,13.285-0.245,26.746-0.369,40.396c-0.182,26.16-0.368,52.982-0.559,80.388
	c-40.269,0.043-80.402,0.108-120.11,0.28c-14.836,0.051-29.613,0.101-44.317,0.151c-14.704,0.083-29.333,0.165-43.875,0.247
	c-6.602,0.042-13.181,0.085-19.745,0.127c-10.338,6.829-20.725,13.813-31.105,20.922c16.818,0.108,33.765,0.217,50.851,0.326
	c14.542,0.082,29.172,0.164,43.875,0.247c14.704,0.05,29.481,0.101,44.317,0.151c39.656,0.172,79.736,0.237,119.952,0.28
	c-0.347,49.9-0.707,101.708-1.078,155.12c-58.319,0.059-116.618,0.084-174.027,0.334c-14.713,0.051-29.367,0.101-43.949,0.151
	c-14.582,0.083-29.09,0.165-43.511,0.247c-19.609,0.127-39.04,0.252-58.288,0.377c-0.278-38.671-0.548-76.28-0.811-112.758l0,0
	c-4.703,3.459-9.378,6.926-14.02,10.398c-0.239,33.248-0.484,67.423-0.736,102.461c-3.836,0.025-7.685,0.05-11.504,0.074
	c-42.875,0.311-84.65,0.702-124.92,1.128c-8.471,6.068-16.786,11.979-24.914,17.743c47.86,0.531,98.047,1.023,149.834,1.399
	c3.771,0.024,7.57,0.049,11.357,0.073c-0.209,29.111-0.423,58.779-0.64,88.96c-0.115,23.004-0.231,46.314-0.349,69.886
	c-10.852,0.116-21.599,0.235-32.218,0.356c-25.579,0.325-50.461,0.641-74.528,0.946c-24.068,0.358-47.321,0.703-69.645,1.035
	c-44.647,0.723-85.574,1.466-121.85,2.207c-6.847,0.136-13.527,0.275-20.037,0.415c-0.083-11.623-0.167-23.171-0.252-34.617
	c-0.018-2.277-0.035-4.534-0.053-6.804v0c-5.784,3.921-11.502,7.453-17.114,10.566c-0.077,10.345-0.153,20.758-0.228,31.245
	c-20.85,0.474-39.689,0.942-56.261,1.338c-26.044,0.584-46.507,1.251-60.459,1.616c-13.952,0.428-21.394,0.657-21.394,0.657
	s7.441,0.229,21.394,0.657c13.952,0.365,34.416,1.032,60.459,1.616c16.558,0.396,35.379,0.863,56.209,1.337
	c-0.375,52.871-0.726,107.502-1.022,163.482C5742.947,1392.062,5749.552,1392.674,5756.101,1393.375L5756.101,1393.375z
	 M6744.636,1213.44c-5.079-0.024-10.156-0.047-15.25-0.071c-58.6-0.256-118.129-0.291-177.659-0.356
	c-41.53,0.043-83.054,0.068-124.269,0.165c-0.25-51.748-0.495-102.404-0.733-151.738c-0.008-1.207-0.017-2.402-0.025-3.607
	c55.604-0.057,111.151-0.105,165.89-0.343c29.426-0.137,58.618-0.272,87.46-0.406c21.997-0.144,43.786-0.286,65.323-0.427
	C6745.132,1107.779,6744.887,1160.109,6744.636,1213.44z M6470.813,879.94c60.287-0.065,120.573-0.1,179.918-0.356
	c29.672-0.137,59.109-0.272,88.193-0.406c2.508-0.016,4.998-0.032,7.5-0.049c-0.233,34.449-0.471,69.635-0.713,105.514
	c-0.08,17.027-0.161,34.22-0.242,51.543c-21.569-0.141-43.39-0.283-65.419-0.427c-28.842-0.134-58.034-0.27-87.46-0.406
	c-54.791-0.238-110.392-0.285-166.048-0.343c-0.371-53.41-0.731-105.216-1.078-155.114
	C6440.57,879.911,6455.692,879.925,6470.813,879.94z M6148.283,1057.109c14.421,0.082,28.93,0.164,43.511,0.247
	c14.582,0.05,29.236,0.101,43.949,0.151c57.357,0.25,115.602,0.276,173.868,0.334c-0.008,1.202-0.017,2.395-0.025,3.599
	c-0.238,49.349-0.483,100.022-0.733,151.788c-11.624,0.034-23.227,0.074-34.785,0.124c-14.649,0.051-29.241,0.101-43.76,0.151
	c-14.519,0.083-28.966,0.165-43.325,0.247c-28.718,0.187-57.088,0.371-84.993,0.552c-37.91,0.277-74.958,0.615-110.861,0.987
	c-0.117-23.508-0.233-46.755-0.348-69.698c-0.217-30.146-0.43-59.78-0.639-88.858
	C6109.343,1056.857,6128.724,1056.983,6148.283,1057.109z"/>
<path fill="#4D4D4D" d="M5089.005,1611.685c13.147-0.006,26.293-0.012,39.42-0.017c16.472-0.02,32.922-0.041,49.36-0.061
	c4.877-7.527,9.913-14.867,15.119-21.996l0,0c-21.464-0.026-42.956-0.053-64.479-0.08c-13.127-0.006-26.273-0.012-39.42-0.017
	V1611.685L5089.005,1611.685z"/>
<path fill="#4D4D4D" d="M5410.694,1429.235c-0.387-14.282-0.593-21.889-0.593-21.889s-0.21,7.762-0.604,22.317l0,0
	C5409.894,1429.518,5410.297,1429.379,5410.694,1429.235z"/>
<path fill="#4D4D4D" d="M5089.005,1804.823c3.167-0.001,6.33-0.003,9.497-0.004l0,0c1.768-7.503,3.622-14.891,5.562-22.161l0,0
	c-5.02-0.002-10.037-0.005-15.059-0.007V1804.823z"/>
<path fill="#4D4D4D" d="M8102.891,1250.908c-0.715-32.187-1.516-60.247-2.132-83.355c-0.58-23.108-1.246-41.265-1.607-53.644
	c-0.426-12.379-0.653-18.982-0.653-18.982s-0.227,6.602-0.653,18.982c-0.361,12.38-1.028,30.536-1.607,53.644
	c-0.616,23.108-1.417,51.168-2.132,83.355c-0.627,27.317-1.256,57.617-1.872,90.374c4.765,0.855,8.957,1.611,12.571,2.266
	C8104.176,1309.919,8103.533,1278.856,8102.891,1250.908z"/>
<path fill="#4D4D4D" d="M705.022,2769.66c0.428,10.091,0.657,15.473,0.657,15.473s0.229-5.382,0.657-15.473
	c0.35-9.671,0.978-23.677,1.543-41.407c-1.468-0.111-2.94-0.225-4.411-0.339C704.037,2745.803,704.67,2759.928,705.022,2769.66z"/>
<path fill="#4D4D4D" d="M1039.346,2725.931c0.584,18.837,1.251,33.637,1.616,43.729c0.428,10.091,0.657,15.473,0.657,15.473
	s0.229-5.382,0.657-15.473c0.365-10.091,1.033-24.892,1.616-43.729c0.01-0.306,0.021-0.622,0.031-0.93
	c-1.528,0.154-3.062,0.302-4.594,0.452C1039.335,2725.611,1039.341,2725.774,1039.346,2725.931z"/>
<path fill="#4D4D4D" d="M7381.357,692.742c24.939-0.58,44.534-1.246,57.894-1.608c13.36-0.426,20.486-0.653,20.486-0.653
	s-7.125-0.227-20.486-0.653c-13.36-0.361-32.955-1.028-57.894-1.608c-21.975-0.543-48.105-1.229-77.77-1.874
	c0.812,2.729,1.591,5.47,2.353,8.218C7334.632,693.935,7359.966,693.271,7381.357,692.742z"/>
<path fill="#4D4D4D" d="M2047.566,2725.931c0.584,18.837,1.251,33.637,1.616,43.729c0.428,10.091,0.657,15.473,0.657,15.473
	s0.229-5.382,0.657-15.473c0.365-10.091,1.033-24.892,1.616-43.729c0.054-1.629,0.109-3.299,0.166-4.988
	c-1.637-0.162-3.269-0.328-4.895-0.498C2047.446,2722.307,2047.507,2724.143,2047.566,2725.931z"/>
<path fill="#4D4D4D" d="M2719.654,2725.931c0.584,18.837,1.251,33.637,1.616,43.729c0.429,10.091,0.657,15.473,0.657,15.473
	s0.229-5.382,0.657-15.473c0.365-10.091,1.032-24.892,1.616-43.729c0.192-5.809,0.401-12.004,0.619-18.562
	c-1.92,0.12-3.845,0.229-5.774,0.325C2719.26,2714.131,2719.466,2720.219,2719.654,2725.931z"/>
<path fill="#4D4D4D" d="M8644.456,2180.236c0,0-58.6-0.356-166.113-1.011c-0.462,0.677-0.936,1.354-1.405,2.031
	C8585.344,2180.595,8644.456,2180.236,8644.456,2180.236z"/>
<path fill="#4D4D4D" d="M8644.456,1986.984c0,0-33.908-0.206-97.45-0.593c-0.084,0.396-0.167,0.791-0.251,1.188
	C8610.458,1987.191,8644.456,1986.984,8644.456,1986.984z"/>
<path fill="#4D4D4D" d="M7764.596,1261.467c-0.58-38.819-1.246-69.32-1.607-90.117c-0.426-20.796-0.653-31.887-0.653-31.887
	s-0.227,11.091-0.653,31.887c-0.361,20.796-1.028,51.297-1.607,90.117c-0.222,14.558-0.461,30.305-0.718,47.132h5.957
	C7765.057,1291.772,7764.817,1276.024,7764.596,1261.467z"/>
<path fill="#4D4D4D" d="M6757.319,323.512c-0.279-24.943-0.539-48.162-0.777-69.529c-0.692-52.864-1.237-94.401-1.608-122.721
	c-0.426-28.32-0.653-43.424-0.653-43.424s-0.228,15.104-0.653,43.424c-0.371,28.32-0.915,69.857-1.607,122.721
	c-0.238,21.291-0.497,44.423-0.774,69.265l0,0C6753.269,323.328,6755.293,323.416,6757.319,323.512z"/>
<path fill="#4D4D4D" d="M2383.525,2725.931c0.584,18.837,1.251,33.637,1.616,43.729c0.428,10.091,0.657,15.473,0.657,15.473
	s0.229-5.382,0.657-15.473c0.365-10.091,1.032-24.892,1.616-43.729c0.125-3.79,0.258-7.75,0.396-11.861
	c-1.772,0.255-3.542,0.507-5.312,0.758C2383.284,2718.67,2383.408,2722.373,2383.525,2725.931z"/>
<path fill="#4D4D4D" d="M7211.134,517.906L7211.134,517.906c14.937-0.331,29.174-0.663,42.63-0.995
	c29.959-0.715,56.078-1.516,77.587-2.132c21.51-0.58,38.41-1.246,49.933-1.608c11.523-0.426,17.668-0.653,17.668-0.653
	s-6.146-0.227-17.668-0.653c-11.523-0.361-28.423-1.028-49.933-1.608c-21.509-0.616-47.627-1.417-77.587-2.132
	c-16.344-0.403-33.839-0.807-52.344-1.207l0,0C7204.724,510.543,7207.958,514.208,7211.134,517.906z"/>
<path fill="#4D4D4D" d="M7321.931,871.5c10.887-0.256,21.101-0.502,30.574-0.723c26.375-0.58,47.099-1.246,61.229-1.608
	c14.129-0.426,21.666-0.653,21.666-0.653s-7.536-0.227-21.666-0.653c-14.13-0.361-34.853-1.028-61.229-1.608
	c-9.38-0.219-19.487-0.462-30.254-0.716C7322.144,867.526,7322.054,869.504,7321.931,871.5L7321.931,871.5z"/>
<path fill="#4D4D4D" d="M7209.617,1230.979c43.452-0.703,83.344-1.427,118.785-2.149c36.276-0.715,67.901-1.516,93.945-2.132
	c0.781-0.017,1.54-0.035,2.311-0.053c-0.213,11.69-0.432,24.496-0.641,38.392c-0.207,13.522-0.429,28.068-0.666,43.561h5.854
	c-0.237-15.494-0.459-30.039-0.666-43.561c-0.209-13.925-0.429-26.756-0.642-38.466c23.41-0.548,41.966-1.145,54.91-1.481
	c13.952-0.426,21.394-0.653,21.394-0.653s-7.441-0.227-21.394-0.653c-12.958-0.336-31.542-0.934-54.988-1.482
	c-0.349-18.886-0.672-34.663-0.887-46.991c-0.426-20.706-0.653-31.749-0.653-31.749s-0.227,11.043-0.653,31.749
	c-0.215,12.312-0.538,28.066-0.886,46.92c-0.797-0.018-1.583-0.036-2.392-0.054c-26.044-0.616-57.669-1.417-93.945-2.132
	c-33.091-0.674-70.062-1.35-110.187-2.009l0,0C7215.412,1222.278,7212.543,1226.597,7209.617,1230.979z"/>
<path fill="#4D4D4D" d="M6906.097,344.257L6906.097,344.257c25.906-0.327,51.137-0.701,75.459-1.094
	c36.169-0.599,70.365-1.274,101.931-1.978c1.44-0.033,2.869-0.066,4.297-0.099c-0.254,22.401-0.528,46.548-0.82,72.294
	c2.312,1.33,4.597,2.672,6.862,4.024l0,0c-0.31-27.306-0.599-52.84-0.867-76.438c27.896-0.65,53.618-1.316,76.676-1.981
	c25.647-0.715,48.006-1.516,66.419-2.132c18.414-0.58,32.881-1.246,42.745-1.608c9.864-0.426,15.125-0.653,15.125-0.653
	s-5.261-0.227-15.125-0.653c-9.864-0.361-24.332-1.028-42.745-1.608c-18.413-0.616-40.772-1.417-66.419-2.132
	c-23.097-0.666-48.869-1.333-76.82-1.984c-0.062-5.435-0.122-10.766-0.181-15.979c-0.693-52.09-1.237-93.017-1.608-120.922
	c-0.426-27.905-0.653-42.788-0.653-42.788s-0.227,14.883-0.653,42.788c-0.371,27.905-0.915,68.833-1.608,120.922
	c-0.059,5.177-0.119,10.47-0.18,15.866c-1.478-0.034-2.956-0.068-4.445-0.102c-31.565-0.704-65.762-1.379-101.931-1.978
	c-36.169-0.584-74.311-1.129-113.768-1.535c-19.729-0.183-39.786-0.369-60.09-0.558c-10.152-0.081-20.365-0.163-30.63-0.246
	c-6.002-0.031-12.032-0.062-18.068-0.094H6759C6808.295,326.023,6858.15,333.023,6906.097,344.257z"/>
<path fill="#4D4D4D" d="M6428.212,2776.569c3.767-0.004,7.548-0.008,11.311-0.012c33.217-0.081,66.273-0.162,99.13-0.243v-21.652
	c-32.857-0.08-65.913-0.161-99.13-0.242c-3.73-0.004-7.479-0.008-11.213-0.012c0.175-53.193,0.353-107.224,0.533-161.904
	c0.013-5.565,0.026-11.142,0.039-16.72c20.127-0.042,40.165-0.084,60.128-0.126c-4.726-5.996-9.28-11.948-13.546-17.801
	c-15.468-0.032-30.976-0.065-46.54-0.098c0.105-45.371,0.211-91.141,0.317-137.21c0.012-12.685,0.025-25.4,0.037-38.126
	c4.535-0.01,9.054-0.019,13.582-0.029v-4.166l2.973-4.654c1.938-3.034,3.831-6.078,5.697-9.128
	c-7.403-0.015-14.81-0.031-22.234-0.047c0.056-58.079,0.113-116.534,0.169-175.153c29.247-0.061,58.315-0.122,87.215-0.183
	c0.98-5.893,1.929-11.777,2.824-17.65c-29.824-0.063-59.827-0.126-90.021-0.189c0.033-33.797,0.065-67.632,0.098-101.473
	c-0.025-24.592-0.05-49.181-0.075-73.757c33.102-0.07,65.978-0.139,98.634-0.207c-0.465-6.101-1.455-11.937-2.632-17.613
	c-31.797-0.067-63.801-0.134-96.021-0.202c-0.009-8.866-0.018-17.722-0.027-26.582c-7.477,5.633-15.015,11.307-22.625,17.031
	c-0.003,3.169-0.006,6.333-0.01,9.503c-4.188-0.009-8.401-0.018-12.596-0.026c-8.017,6.025-16.103,12.097-24.264,18.221
	c12.308-0.026,24.592-0.052,36.842-0.077c-0.025,24.56-0.05,49.132-0.075,73.709c0.033,33.825,0.065,67.644,0.098,101.425
	c-45.653-0.096-91.735-0.193-138.174-0.291l0,0c-0.471,6.286-0.985,12.52-1.545,18.701c46.969-0.099,93.572-0.197,139.737-0.294
	c0.057,58.587,0.113,117.011,0.169,175.059c-56.536-0.119-113.717-0.239-171.448-0.36l0,0c-1.857,6.356-3.782,12.645-5.788,18.85
	c59.705-0.125,118.823-0.25,177.253-0.373c0.012,12.711,0.024,25.41,0.037,38.079c0.107,46.053,0.213,91.809,0.318,137.165
	c-88.156-0.185-177.841-0.374-268.831-0.565c-3.993,4.974-8.065,9.85-12.231,14.608c-1.374,1.569-2.763,3.124-4.158,4.672
	c96.627-0.203,191.806-0.403,285.262-0.6c0.013,5.563,0.025,11.125,0.039,16.675c0.18,54.673,0.357,108.696,0.533,161.883
	c-101.527-0.106-204.36-0.215-307.207-0.323c-2.778,0.003-5.555,0.006-8.333,0.008c0.144-42.32,0.29-85.155,0.437-128.413
	c0.016-6.568,0.031-13.153,0.047-19.74c-6.934,6.366-14.076,12.513-21.425,18.44c0.001,0.432,0.002,0.867,0.003,1.3
	c0.147,43.265,0.293,86.107,0.437,128.434c-103.877,0.104-207.63,0.208-309.896,0.31c-2.434,0.006-4.861,0.012-7.293,0.018
	c0.008-0.988,0.017-1.968,0.024-2.957c0.032-4.3,0.063-8.636,0.095-12.961l0,0c-5.75,0.486-11.547,0.918-17.39,1.299l0,0
	c0.029,3.889,0.057,7.793,0.085,11.662c0.008,1.003,0.017,1.996,0.025,2.998c-47.587,0.114-94.831,0.228-141.586,0.34
	c-54.755,0.187-108.846,0.371-162.049,0.552c-4.373,0.022-8.731,0.043-13.092,0.065c0.039-9.693,0.079-19.426,0.118-29.178l0,0
	c-7.297,6.313-14.541,12.607-21.727,18.881c0.014,3.469,0.028,6.944,0.042,10.406c-4.009,0.02-8.004,0.04-12.002,0.06l0,0
	c-7.509,6.588-14.951,13.151-22.335,19.693l0,0c11.428,0.057,22.9,0.114,34.419,0.172c0.005,1.214,0.01,2.436,0.015,3.649
	c0.187,32.364,0.371,64.336,0.552,95.783c0.074,11.424,0.153,22.766,0.235,34.043l0,0c6.631-1.724,13.242-3.424,19.836-5.105
	c0.069-9.598,0.136-19.234,0.199-28.937c0.181-31.447,0.366-63.418,0.552-95.783c0.005-1.177,0.009-2.364,0.014-3.542
	c4.389,0.022,8.774,0.044,13.174,0.066c53.204,0.181,107.294,0.365,162.049,0.552c46.815,0.112,94.12,0.226,141.769,0.34
	c0.168,20.299,0.333,40.292,0.497,59.96c5.294-0.862,10.566-1.704,15.822-2.531l0,0c0.156-18.839,0.315-37.975,0.476-57.389
	c2.493,0.006,4.981,0.012,7.476,0.018c102.291,0.102,206.07,0.206,309.974,0.31c0.013,3.67,0.025,7.346,0.038,11.008
	c0.031,6.3,0.062,12.583,0.094,18.857c6.575,0.149,13.276,0.356,20.08,0.613c0.032-6.477,0.064-12.966,0.097-19.47
	c0.013-3.655,0.025-7.325,0.038-10.988c2.804,0.003,5.606,0.006,8.41,0.008c102.88-0.108,205.745-0.216,307.304-0.323
	c0.11,22.723,0.218,45.28,0.326,67.664c6.476,1.144,12.958,2.306,19.445,3.491
	C6427.983,2824.207,6428.097,2800.483,6428.212,2776.569z"/>
<path fill="#4D4D4D" d="M8644.456,1600.599c0,0-61.935-0.377-175.273-1.067c0.49,0.706,0.979,1.415,1.467,2.125
	C8583.056,1600.972,8644.456,1600.599,8644.456,1600.599z"/>
<path fill="#4D4D4D" d="M8306.449,1403.053c17.507-0.426,26.844-0.653,26.844-0.653s-9.337-0.227-26.844-0.653
	c-17.508-0.361-43.185-1.028-75.864-1.608c-1.824-0.033-3.678-0.067-5.545-0.1c2.864,1.492,5.784,3.013,8.764,4.564
	C8264.944,1404.037,8289.524,1403.403,8306.449,1403.053z"/>
<path fill="#4D4D4D" d="M8441.071,1490.982c-0.719-32.703-1.46-62.681-2.199-89.252c-0.715-26.571-1.516-49.736-2.132-68.812
	c-0.58-19.077-1.246-34.066-1.607-44.285c-0.427-10.22-0.653-15.67-0.653-15.67s-0.228,5.45-0.653,15.67
	c-0.361,10.22-1.028,25.208-1.607,44.285c-0.616,19.077-1.417,42.241-2.132,68.812c-0.739,26.571-1.48,56.549-2.199,89.252
	c-0.373,17.32-0.737,35.411-1.087,54.158c5.315,6.062,10.555,12.27,15.696,18.655
	C8442.047,1538.335,8441.566,1513.982,8441.071,1490.982z"/>
<path fill="#4D4D4D" d="M5735.447,1590.28c-70.134-0.087-140.832-0.174-211.993-0.262c-6.33,6.488-12.39,13.549-18.167,21.184l0,0
	c77.279-0.095,154.019-0.19,230.097-0.284c-0.086,28.29-0.172,56.75-0.26,85.376c-0.038,28.906-0.076,57.97-0.114,87.123
	c-98.349-0.121-197.797-0.244-298.102-0.368c-1.397,7.063-2.707,14.191-3.927,21.38l0,0c101.627-0.125,202.378-0.25,302.002-0.373
	c-0.071,54.656-0.143,109.618-0.215,164.585c0.003,2.675,0.006,5.348,0.01,8.023c-104.014-0.128-209.242-0.258-315.429-0.389
	c-0.114-12.808-0.232-25.485-0.354-38.037c0,0,0,0.001,0,0.001c-2.313,43.656-2.913,87.216-2.913,128.7
	c0,45.349,0.765,98.586,4.837,153.29l0,0c-0.041-9.789-0.081-19.559-0.121-29.286c43.885-0.054,87.595-0.108,131.134-0.162l0,0
	c8.421-6.966,16.922-13.987,25.499-21.06c-51.993-0.064-104.25-0.129-156.743-0.194c-0.163-27.971-0.324-55.653-0.483-82.922
	c-0.194-30.16-0.421-59.832-0.669-88.912c106.132-0.131,211.306-0.261,315.268-0.389c0.018,14.565,0.036,29.126,0.054,43.678
	c7.524-6.105,15.088-12.237,22.691-18.394l0,0c0.011-8.437,0.021-16.871,0.032-25.312c10.454-0.013,20.887-0.026,31.316-0.039l0,0
	c8.416-6.797,16.877-13.623,25.38-20.475l0,0c-18.853-0.023-37.735-0.047-56.671-0.07c0.003-2.684,0.007-5.367,0.01-8.051
	c-0.072-54.977-0.144-109.948-0.215-164.613c50.938-0.063,101.589-0.125,151.895-0.188c0.356-0.001,0.711-0.002,1.067-0.002l0,0
	c-1.182-6.881-2.433-13.608-3.74-20.21l0,0c-49.437-0.061-99.202-0.123-149.249-0.184c-0.038-29.163-0.076-58.236-0.114-87.151
	c-0.087-28.635-0.174-57.103-0.26-85.402c27.004-0.033,53.921-0.067,80.756-0.1c-5.566-7.321-11.407-14.117-17.521-20.407l0,0
	c-21.051-0.026-42.144-0.052-63.298-0.078c-0.028-9.189-0.056-18.369-0.084-27.513c-0.022-5.21-0.044-10.411-0.066-15.605
	c-6.828-2.789-13.884-5.186-21.16-7.213c-0.032,7.592-0.065,15.194-0.098,22.818
	C5735.502,1571.928,5735.475,1581.1,5735.447,1590.28z"/>
<path fill="#4D4D4D" d="M4554.503,3344.15L4554.503,3344.15c-42.308,0.506-80.376,0.961-113.658,1.36
	c-12.316,0.145-23.976,0.295-34.956,0.444c0.195-9.758,0.389-19.876,0.577-30.355c0.742-40.033,1.484-85.199,2.208-134.471
	c0.113-8.428,0.229-16.985,0.345-25.647c10.06,0.135,20.672,0.271,31.826,0.402c27.999,0.335,59.382,0.71,93.829,1.122
	c0.612-2.271,1.262-4.543,1.944-6.815c-35.209,0.421-67.25,0.805-95.773,1.146c-11.135,0.131-21.73,0.266-31.775,0.401
	c0.208-15.472,0.421-31.301,0.639-47.468c0.306-26.561,0.622-54.019,0.946-82.248c0.205-19.835,0.404-40.058,0.594-60.609
	c9.396,0.125,19.262,0.25,29.596,0.372c49.657,0.594,109.954,1.315,179.119,2.143c15.864,0.151,32.216,0.306,48.995,0.466l0,0
	c3.303-3.288,6.607-6.582,9.907-9.857l0,0c-20.27,0.192-39.933,0.379-58.902,0.56c-69.165,0.827-129.462,1.549-179.119,2.143
	c-10.321,0.121-20.175,0.246-29.561,0.371c0.338-36.748,0.646-74.555,0.901-113.171c0.149-25.348,0.3-51.059,0.453-77.03
	c8.979,0.119,18.38,0.238,28.206,0.354c49.657,0.594,109.954,1.315,179.119,2.143c33.607,0.319,69.324,0.659,106.915,1.016
	c0.025,9.217,0.054,18.418,0.087,27.601c0.134,36.067,0.267,71.849,0.398,107.2c0.002,0.347,0.004,0.692,0.006,1.039l0,0
	c7.155-6.995,14.304-13.968,21.442-20.9v0c0.107-28.877,0.216-58.006,0.325-87.339c0.032-9.112,0.061-18.242,0.086-27.388
	c33.03,0.314,67.415,0.641,103.062,0.979c5.253,0.038,10.544,0.076,15.851,0.114l0,0c4.869-4.544,9.731-9.068,14.59-13.581l0,0
	c-10.24,0.074-20.396,0.147-30.441,0.219c-35.638,0.339-70.014,0.665-103.035,0.979c0.149-59.586,0.173-119.796,0.224-180.018
	c0-0.606-0.001-1.212-0.001-1.819c6.396-0.003,12.779-0.006,19.173-0.009l0,0v-22.454l0,0c-6.4-0.003-12.789-0.006-19.192-0.008
	c-0.048-57.224-0.096-114.365-0.26-170.889c6.49-0.003,12.965-0.006,19.452-0.009l0,0v-22.454
	c-6.511-0.003-13.01-0.006-19.523-0.009c-0.001-0.348-0.002-0.697-0.003-1.045c-0.137-36.067-0.272-71.849-0.406-107.201
	c-0.112-20.988-0.223-41.803-0.333-62.458c6.761-0.003,13.508-0.006,20.266-0.009l0,0v-22.454
	c-6.798-0.003-13.584-0.006-20.386-0.009c-0.035-6.578-0.07-13.156-0.105-19.694c-0.306-51.83-0.692-102.354-1.113-151.085
	c7.204-0.003,14.403-0.006,21.604-0.01l0,0v-22.454l0,0c-7.267-0.003-14.532-0.006-21.802-0.01
	c-0.074-8.23-0.148-16.408-0.224-24.526c-0.487-51.228-1.024-100.182-1.587-146.247c7.694-0.003,15.382-0.007,23.072-0.01l0,0
	c-0.298-7.856-0.723-15.335-1.278-22.455l0,0c-7.357-0.003-14.713-0.007-22.074-0.01c-0.037-2.928-0.074-5.85-0.111-8.753
	c-0.376-28.799-0.759-56.325-1.145-82.444v0c-0.82-1.36-1.654-2.697-2.518-3.986c-2.496-3.729-5.209-7.228-8.16-10.514
	c-0.458,30.361-0.914,62.766-1.361,96.945c-0.037,2.901-0.074,5.821-0.111,8.747c-24.387-0.011-48.796-0.021-73.215-0.032l0,0
	v22.552l0,0c24.326-0.011,48.642-0.021,72.936-0.032c-0.563,46.064-1.101,95.015-1.587,146.241
	c-0.075,8.116-0.149,16.291-0.224,24.519c-23.691-0.01-47.404-0.021-71.125-0.031v22.552c23.655-0.01,47.302-0.021,70.927-0.031
	c-0.422,48.729-0.808,99.25-1.113,151.077c-0.035,6.535-0.07,13.109-0.105,19.685c-23.22-0.01-46.46-0.021-69.709-0.031l0,0v22.552
	c23.208-0.01,46.409-0.021,69.589-0.031c-0.11,20.653-0.221,41.464-0.333,62.449c-0.134,35.352-0.27,71.133-0.407,107.201
	c-0.001,0.344-0.002,0.691-0.003,1.035c-22.933-0.01-45.886-0.02-68.847-0.03v22.552c22.937-0.01,45.866-0.02,68.775-0.03
	c-0.165,56.517-0.213,113.652-0.261,170.869c-22.822-0.01-45.665-0.02-68.515-0.03l0,0v22.552c22.843-0.01,45.68-0.02,68.496-0.03
	c0,0.603-0.001,1.206-0.001,1.809c0.051,60.293,0.076,120.575,0.225,180.231c-37.581,0.357-73.289,0.696-106.888,1.016
	c-69.165,0.827-129.462,1.549-179.119,2.143c-9.817,0.115-19.211,0.234-28.184,0.353c0.025-4.307,0.051-8.604,0.076-12.926
	c0.093-22.53,0.188-45.262,0.283-68.135h-21.939l0,0c0.095,22.873,0.189,45.605,0.283,68.135c0.026,4.42,0.052,8.813,0.078,13.217
	c-26.729,0.38-48.846,0.738-65.87,0.971c-26.602,0.428-40.79,0.657-40.79,0.657s14.188,0.229,40.79,0.657
	c17.028,0.234,39.152,0.591,65.889,0.971c0.154,26.071,0.305,51.879,0.455,77.322c0.256,38.705,0.565,76.596,0.904,113.425
	c-27.349,0.387-49.931,0.753-67.248,0.991c-26.602,0.429-40.79,0.657-40.79,0.657s14.188,0.229,40.79,0.657
	c17.323,0.238,39.916,0.604,67.278,0.991c0.191,20.638,0.392,40.946,0.597,60.862c0.325,28.229,0.641,55.687,0.946,82.248
	c0.219,16.234,0.433,32.127,0.642,47.661c-28.345,0.399-51.682,0.778-69.463,1.022c-26.602,0.428-40.79,0.657-40.79,0.657
	s14.188,0.229,40.79,0.657c17.791,0.244,41.143,0.624,69.508,1.023c0.117,8.729,0.233,17.349,0.348,25.839
	c0.723,49.272,1.466,94.438,2.207,134.471c0.189,10.517,0.384,20.67,0.58,30.46c-29.785,0.415-54.2,0.814-72.643,1.067
	c-26.602,0.428-40.79,0.657-40.79,0.657s14.188,0.229,40.79,0.657c18.457,0.253,42.895,0.652,72.712,1.068
	c0.526,26.082,1.055,49.467,1.494,69.767c0.584,28.742,1.251,51.325,1.616,66.722c0.429,15.397,0.657,23.609,0.657,23.609
	s0.229-8.212,0.657-23.609c0.365-15.397,1.033-37.98,1.617-66.722c0.439-20.272,0.966-43.622,1.492-69.663
	c11.001,0.149,22.686,0.3,35.029,0.445c34.246,0.41,73.554,0.88,117.339,1.404l0,0
	C4556.92,3349.056,4555.693,3346.62,4554.503,3344.15z"/>
<path fill="#4D4D4D" d="M6677.393,3531.27c-29.146,0.187-57.937,0.371-86.256,0.552c-26.026,0.187-51.647,0.403-76.784,0.638
	c-0.595,0.579-1.18,1.164-1.779,1.741h142.179l3.992,1.995c7.924,3.962,13.303,4.794,16.42,4.794c3.992,0,6.839-1.085,9.576-6.629
	l1.381-2.795l0.347-0.347C6683.444,3531.236,6680.409,3531.253,6677.393,3531.27z"/>
<path fill="#4D4D4D" d="M6730.648,3337.552c-34.014-0.117-68.369-0.235-102.999-0.354l-0.181,0.759
	c-1.64,6.868-3.472,13.68-5.493,20.433c36.364-0.125,72.426-0.249,108.115-0.372L6730.648,3337.552z"/>
<path fill="#4D4D4D" d="M4062.579,2693.077L4062.579,2693.077c0.387,11.992,0.762,22.982,1.088,32.854
	c0.584,18.837,1.251,33.637,1.616,43.729c0.429,10.091,0.657,15.473,0.657,15.473s0.229-5.382,0.657-15.473
	c0.365-10.091,1.032-24.892,1.616-43.729c0.343-10.374,0.74-21.979,1.147-34.69l0,0
	C4067.103,2691.869,4064.842,2692.48,4062.579,2693.077z"/>
<path fill="#4D4D4D" d="M6745.778,2704.456l-1.721-1.067c0.029,9.244,0.059,18.472,0.088,27.667
	c0.038,8.104,0.076,16.183,0.114,24.247c-27.641-0.095-55.511-0.191-83.576-0.288c-0.539,6.921-0.926,13.914-1.203,20.949
	c28.504-0.098,56.807-0.195,84.874-0.292c0.079,16.781,0.157,33.46,0.235,50.054l3.243-119.048
	C6747.436,2706.038,6746.538,2705.06,6745.778,2704.456z"/>
<path fill="#4D4D4D" d="M5736.52,2591.517c6.656-1.706,13.114-3.705,19.381-5.992c0.016-2.822,0.033-5.63,0.049-8.459
	c6.582-0.008,13.145-0.016,19.717-0.024l0,0c11.441-5.712,22.163-12.536,32.179-20.499l0,0c-17.23-0.021-34.483-0.043-51.781-0.064
	c0.093-17.109,0.181-34.34,0.264-51.696c0.074-17.354,0.148-34.833,0.222-52.411v0c-6.909,5.353-13.791,10.699-20.646,16.041
	c0.052,12.176,0.103,24.305,0.154,36.37c0.083,17.347,0.171,34.571,0.264,51.671c-36.995-0.046-74.15-0.092-111.44-0.137
	c-8.69,6.995-17.328,13.977-25.912,20.943l0,0c46.037-0.057,91.875-0.113,137.467-0.17
	C5736.463,2581.915,5736.492,2586.712,5736.52,2591.517z"/>
<path fill="#4D4D4D" d="M4073.499,2524.332c0.033-1.616,0.066-3.224,0.1-4.85c0.306-17.407,0.622-35.403,0.946-53.904
	c0.409-26.023,0.797-53.061,1.134-80.846c58.962,0.025,117.992,0.05,177.033,0.074l0,0c3.872-7.33,7.569-14.932,11.093-22.794
	c-62.654,0.026-125.296,0.053-187.865,0.079c0.047-4.286,0.093-8.58,0.136-12.898c0.181-20.183,0.365-40.701,0.552-61.472
	c0.082-10.385,0.164-20.834,0.247-31.335c0.05-10.501,0.1-21.055,0.151-31.651c0.067-11.017,0.117-22.081,0.156-33.177
	c76.991,0.032,154.085,0.065,231.186,0.097c0.968-7.685,1.832-15.31,2.58-22.838l0,0c-77.938,0.033-155.872,0.065-233.699,0.098
	c0.058-24.146,0.081-48.408,0.116-72.675c-0.049-32.744-0.082-65.486-0.207-97.934c79.444,0.033,158.998,0.067,238.556,0.1l0,0
	v-22.843l0,0c-79.593,0.033-159.183,0.067-238.662,0.1c-0.014-2.639-0.027-5.284-0.043-7.918
	c-0.054-10.596-0.107-21.15-0.161-31.651c-0.082-10.501-0.164-20.95-0.246-31.335c-0.188-20.771-0.375-41.29-0.558-61.472
	c-0.13-12.894-0.275-25.632-0.429-38.229c75.183,0.031,150.468,0.063,225.759,0.095l0,0c-1.614-7.773-3.369-15.379-5.254-22.828l0,0
	c-73.636,0.031-147.265,0.062-220.795,0.093c-0.255-18.931-0.53-37.466-0.815-55.515c-0.599-37.001-1.274-71.984-1.978-104.276
	c-0.08-3.605-0.161-7.171-0.241-10.708c43.004,0.018,86.042,0.036,129.095,0.054c-8.819-7.818-18.117-14.921-27.889-21.276
	c-0.759-0.494-1.53-0.973-2.295-1.458c-33.158,0.014-66.315,0.028-99.443,0.042c-0.311-12.863-0.624-25.188-0.937-36.945l0,0
	c-3.211-0.527-6.452-1.012-9.723-1.45c-0.327,12.194-0.653,25.004-0.976,38.4c-65.765,0.028-131.428,0.055-196.968,0.083l0,0
	c-2.706,1.866-5.371,3.793-7.991,5.783c-6.74,5.118-13.239,10.677-19.493,16.668l0,0c74.479,0.031,149.14,0.063,223.921,0.094
	c-0.081,3.539-0.161,7.106-0.242,10.713c-0.704,32.292-1.379,67.275-1.978,104.276c-0.285,18.051-0.56,36.589-0.815,55.523
	c-103.843,0.044-207.468,0.087-310.659,0.13c-1.849,7.28-3.595,14.731-5.237,22.362c104.823,0.044,210.105,0.088,315.605,0.133
	c-0.155,12.6-0.3,25.341-0.43,38.238c-0.183,20.182-0.369,40.701-0.557,61.472c-0.082,10.386-0.163,20.834-0.246,31.335
	c-0.053,10.501-0.107,21.055-0.161,31.651c-0.016,2.637-0.029,5.285-0.043,7.927c-104.875,0.044-209.534,0.088-313.739,0.132
	c-0.015-2.687-0.027-5.378-0.044-8.059c-0.054-10.596-0.107-21.15-0.161-31.651c-0.082-10.501-0.164-20.95-0.246-31.335
	c-0.188-20.771-0.375-41.29-0.558-61.472c-0.115-11.406-0.242-22.683-0.377-33.855l0,0c-12.659,60.875-18.886,132.801-18.886,217.29
	c0,41.192,0.848,103.29,8.176,166.703c3.023,26.156,6.975,50.874,11.829,74.051l0,0c0.029-3.693,0.058-7.384,0.087-11.09
	c0.05-10.501,0.101-21.055,0.151-31.651c0.067-11.064,0.117-22.175,0.157-33.319c104.119,0.044,208.69,0.088,313.478,0.132
	c0.04,11.099,0.09,22.167,0.157,33.187c0.051,10.596,0.101,21.15,0.151,31.651c0.083,10.501,0.165,20.95,0.247,31.335
	c0.187,20.771,0.371,41.29,0.552,61.472c0.044,4.32,0.089,8.617,0.136,12.906c-95.831,0.04-191.464,0.081-286.754,0.12
	c3.195,7.723,6.563,15.185,10.098,22.388l0,0c92.036,0.039,184.383,0.077,276.917,0.116c0.337,27.788,0.725,54.829,1.134,80.854
	c0.325,18.5,0.641,36.497,0.946,53.904c0.051,2.467,0.101,4.913,0.151,7.355C4063.527,2526.128,4068.549,2525.292,4073.499,2524.332
	L4073.499,2524.332z M4054.517,2096.24c0.035,24.27,0.058,48.535,0.116,72.684c-104.744,0.044-209.271,0.088-313.347,0.132
	c0.058-24.193,0.081-48.502,0.116-72.816c-0.049-32.792-0.082-65.581-0.208-98.076c104.136,0.044,208.724,0.088,313.529,0.132
	C4054.599,2030.747,4054.566,2063.492,4054.517,2096.24z"/>
<path fill="#4D4D4D" d="M4315.714,2555.35L4315.714,2555.35c-0.799,0-1.598,0.001-2.396,0.001
	c-8.783,7.334-18.163,15.001-28.155,22.829c10.185,0.004,20.366,0.009,30.552,0.013l0,0V2555.35z"/>
<path fill="#4D4D4D" d="M5901.861,2383.525c1.563-6.579,3.056-13.313,4.47-20.222c-10.974-0.014-21.963-0.027-32.97-0.041
	c-9.026,6.782-18.015,13.56-26.965,20.331l0,0C5864.927,2383.571,5883.419,2383.548,5901.861,2383.525L5901.861,2383.525z"/>
<path fill="#4D4D4D" d="M6743.18,2365.155c-34.262-0.104-68.816-0.208-103.663-0.313c-24.285-0.051-48.718-0.102-73.276-0.154v2.802
	l-1.96,3.962c-1.382,2.795-2.765,5.525-4.123,8.207c-0.426,0.841-0.845,1.668-1.26,2.491c27.036-0.057,53.914-0.113,80.62-0.169
	c34.852-0.105,69.412-0.21,103.679-0.313c0,0.035,0,0.071,0,0.106c0.116,51.394,0.23,102.433,0.345,152.97
	c7.034,0.624,14.19,1.06,21.479,1.299c0.115-50.961,0.231-102.435,0.348-154.269c0-0.058,0-0.116,0-0.173
	c97.178-0.294,191.896-0.58,283.838-0.858c-4.686-5.526-9.753-10.413-15.256-14.708c-87.149-0.263-176.76-0.534-268.566-0.812
	c0.014-14.914,0.028-29.856,0.042-44.822c-1.434,0.349-2.877,0.705-4.337,1.068c-5.845,1.453-11.796,2.928-17.944,4.011
	C6743.155,2338.723,6743.167,2351.953,6743.18,2365.155z"/>
<path fill="#4D4D4D" d="M2072.517,2364.665c0.336,5.955,0.743,11.781,1.218,17.495l0,0c84.871,0.178,171.325,0.359,259.203,0.543
	c-0.972-6.195-1.864-12.391-2.681-18.578l0,0C2242.884,2364.308,2156.914,2364.488,2072.517,2364.665L2072.517,2364.665z"/>
<path fill="#4D4D4D" d="M2070.794,2171.493v17.485l0,0c82.034,0.172,165.571,0.347,250.426,0.525l0,0
	c-0.007-5.277-0.007-10.45-0.007-15.511v-3.024l0,0C2236.36,2171.146,2152.826,2171.321,2070.794,2171.493L2070.794,2171.493z"/>
<path fill="#4D4D4D" d="M8424.495,2241.305c0.386,35.729,0.867,70.339,1.38,103.359c0.16,9.269,0.318,18.411,0.475,27.419
	c-44.403-0.27-95.078-0.579-151.582-0.923c-2.363,1.531-4.734,3.041-7.111,4.538c1.787-0.009,3.583-0.018,5.358-0.027
	c57.232-0.348,108.506-0.66,153.382-0.934c0.144,8.286,0.285,16.471,0.425,24.516c0.357,17.629,0.703,34.662,1.034,51.013
	c0.724,32.703,1.466,62.681,2.208,89.252c0.245,9.059,0.5,17.711,0.754,25.951c-45.913-0.28-98.689-0.601-157.803-0.96
	c-51.535-0.258-107.888-0.54-168.704-0.844c0.272-13.729,0.543-27.951,0.811-42.628c0.332-19.807,0.677-40.439,1.035-61.794
	c0.054-3.793,0.109-7.616,0.164-11.454c-5.171,1.461-10.367,2.85-15.585,4.177c0.035,2.434,0.069,4.862,0.104,7.277
	c0.358,21.355,0.704,41.987,1.035,61.794c0.268,14.657,0.538,28.859,0.81,42.57c-75.493-0.377-157.698-0.789-245.982-1.23
	c-23.871-0.095-48.2-0.192-72.946-0.29c0.001-0.981,0.002-1.963,0.004-2.944c-0.029-22.009-0.059-44.01-0.088-65.996
	c-7.509,0.429-15.077,0.849-22.673,1.259c-0.029,21.567-0.058,43.148-0.087,64.737c0.001,0.951,0.002,1.902,0.003,2.853
	c-98.093-0.39-202.762-0.806-313.217-1.246c0.002-1.219,0.003-2.438,0.005-3.658c-0.023-17.226-0.047-34.447-0.07-51.662h-22.709
	c-0.023,17.215-0.046,34.436-0.07,51.662c0.001,1.189,0.003,2.378,0.004,3.567c-39.653-0.158-80.022-0.318-121.098-0.482
	c-44.019-0.133-88.853-0.269-134.423-0.406l-14.057,14.039c50.419-0.152,99.941-0.302,148.479-0.449
	c41.082-0.163,81.456-0.324,121.114-0.482c0.08,62.418,0.16,124.79,0.24,186.638c-21.427-0.203-43.365-0.41-65.811-0.623
	c-75.246-0.542-156.062-1.123-241.168-1.735v16.654c85.106-0.612,165.923-1.194,241.168-1.735
	c22.452-0.213,44.394-0.42,65.826-0.623c0.021,16.47,0.042,32.913,0.063,49.295c0.134,43.483,0.267,86.62,0.398,129.24
	c0.005,1.187,0.01,2.369,0.016,3.555c-21.584-0.204-43.685-0.414-66.304-0.628c-75.246-0.541-156.061-1.123-241.168-1.735v16.654
	c85.107-0.612,165.922-1.194,241.168-1.735c22.637-0.214,44.755-0.424,66.356-0.628c0.163,37.338,0.325,74.262,0.484,110.651
	c0.119,24.09,0.249,47.939,0.388,71.528c-21.877-0.207-44.285-0.419-67.228-0.636c-47.247-0.34-96.696-0.696-148.014-1.065
	c3.259,5.078,6.044,10.161,8.352,15.253c48.336-0.348,94.982-0.683,139.662-1.005c22.967-0.217,45.398-0.43,67.298-0.637
	c0.322,53.327,0.688,105.256,1.072,155.372c0.077,9.029,0.154,17.996,0.23,26.905c-22.312-0.211-45.177-0.427-68.601-0.649
	c-69.689-0.501-144.15-1.037-222.376-1.6c1.678,5.463,3.396,10.92,5.148,16.346c76.348-0.549,149.069-1.073,217.229-1.563
	c23.459-0.222,46.358-0.439,68.703-0.65c0.208,24.423,0.414,48.384,0.614,71.816c0.357,35.718,0.703,70.228,1.035,103.358
	c0.015,1.343,0.029,2.669,0.044,4.007c-38.36-0.398-78.035-0.761-118.689-1.052c-4.12-0.027-8.271-0.053-12.411-0.08
	c4.293,1.046,8.626,1.954,13.007,2.69l1.289,0.217l1.247,0.392c21.566,6.781,44.724,12.232,69.677,16.389
	c15.55-0.144,30.922-0.296,46.082-0.453c0.024,2.166,0.048,4.312,0.073,6.465c4.155,0.403,8.354,0.777,12.6,1.12
	c0.029-2.568,0.058-5.134,0.087-7.719c10.661-0.114,21.22-0.229,31.659-0.347c51.919-0.599,101.006-1.274,146.317-1.978
	c45.311-0.719,86.846-1.46,123.661-2.199c7.373-0.143,14.547-0.29,21.534-0.438c0.686,62.379,1.388,119.736,2.09,170.883
	c0.08,5.215,0.158,10.345,0.236,15.43c-9.238-0.19-18.812-0.379-28.717-0.562c-38.664-0.739-82.284-1.48-129.869-2.199
	c-47.585-0.704-99.137-1.379-153.662-1.978c-5.132-0.055-10.3-0.109-15.484-0.164c0.089-5.783,0.179-11.638,0.271-17.592
	c0.299-21.702,0.598-44.539,0.896-68.396c-3.542-0.156-7.084-0.308-10.63-0.452c0.3,24.021,0.601,47.01,0.902,68.849
	c0.091,5.925,0.181,11.75,0.269,17.506c-47.379-0.489-96.825-0.938-147.73-1.285c-29.741-0.183-59.978-0.369-90.586-0.558
	c-29.809-0.13-59.974-0.262-90.374-0.396c0.312-27.337,0.647-56.768,1.005-88.118c-2.713-0.032-5.43-0.067-8.15-0.104
	c0.358,31.379,0.694,60.837,1.006,88.197c-61.265-0.242-123.457-0.279-185.655-0.342c-48.273,0.047-96.543,0.071-144.379,0.192
	c0.327-29.122,0.681-60.668,1.061-94.424c-2.699-0.008-5.403-0.023-8.097-0.025c0.38,33.772,0.734,65.333,1.062,94.466
	c-13.033,0.035-26.041,0.076-38.998,0.13c-15.614,0.051-31.166,0.101-46.641,0.151c-15.475,0.083-30.872,0.165-46.176,0.247
	c-30.608,0.187-60.845,0.371-90.586,0.552c-36.752,0.251-72.744,0.554-107.748,0.886c0.325-28.106,0.676-58.53,1.052-91.07
	c-2.691,0.093-5.385,0.182-8.081,0.268c0.375,32.462,0.726,62.814,1.05,90.859c-19.587,0.188-38.866,0.385-57.779,0.587
	c-27.263,0.325-53.782,0.641-79.434,0.946c-25.651,0.358-50.436,0.703-74.229,1.035c-43.037,0.654-82.817,1.323-118.633,1.994
	c0.368-30.773,0.771-64.561,1.208-101.065h-8.174c0.437,36.547,0.841,70.371,1.209,101.173c-1.833,0.035-3.667,0.07-5.478,0.104
	c-38.663,0.72-72.37,1.521-100.128,2.143c-27.758,0.584-49.568,1.251-64.439,1.616c-14.87,0.428-22.801,0.657-22.801,0.657
	s7.931,0.229,22.801,0.657c14.871,0.365,36.681,1.033,64.439,1.616c27.758,0.623,61.465,1.423,100.128,2.143
	c1.848,0.035,3.716,0.071,5.586,0.106c0.174,14.575,0.34,28.448,0.497,41.572c0.583,49.713,1.251,88.773,1.616,115.405
	c0.429,26.632,0.657,40.836,0.657,40.836s0.229-14.204,0.657-40.836c0.365-26.632,1.033-65.692,1.616-115.405
	c0.157-13.092,0.322-26.93,0.496-41.467c35.845,0.671,75.663,1.342,118.744,1.997c23.793,0.332,48.577,0.677,74.229,1.035
	c25.652,0.305,52.171,0.621,79.434,0.946c18.981,0.203,38.331,0.4,57.992,0.589c0.177,15.293,0.345,29.84,0.503,43.592
	c0.696,51.426,1.244,91.832,1.617,119.381c0.428,27.55,0.657,42.243,0.657,42.243s0.229-14.693,0.657-42.243
	c0.373-27.55,0.92-67.955,1.616-119.381c0.159-13.736,0.327-28.266,0.503-43.539c35.071,0.333,71.135,0.636,107.961,0.889
	c29.741,0.181,59.978,0.365,90.586,0.552c15.304,0.082,30.702,0.164,46.176,0.247c15.475,0.05,31.027,0.101,46.641,0.151
	c13.041,0.054,26.132,0.095,39.25,0.131c0.161,14.357,0.315,28.059,0.461,41.072c0.696,52.864,1.243,94.401,1.616,122.721
	c0.429,28.32,0.657,43.424,0.657,43.424s0.229-15.104,0.657-43.424c0.373-28.32,0.92-69.856,1.617-122.721
	c0.146-13.008,0.3-26.705,0.461-41.056c47.919,0.122,96.273,0.146,144.631,0.193c62.284-0.063,124.562-0.1,185.908-0.343
	c0.191,16.781,0.373,32.689,0.544,47.668c0.696,52.09,1.243,93.017,1.616,120.923c0.428,27.905,0.657,42.788,0.657,42.788
	s0.229-14.883,0.657-42.788c0.373-27.905,0.92-68.833,1.616-120.923c0.171-14.986,0.353-30.901,0.544-47.69
	c30.485-0.134,60.735-0.266,90.626-0.397c30.608-0.188,60.845-0.375,90.586-0.558c51.002-0.348,100.54-0.798,148.001-1.288
	c0.604,39.308,1.142,74.296,1.603,104.279c0.584,38.651,1.251,69.02,1.616,89.726c0.429,20.706,0.657,31.749,0.657,31.749
	s0.229-11.043,0.657-31.749c0.365-20.706,1.032-51.075,1.616-89.726c0.461-30.004,1-65.02,1.604-104.36
	c5.274-0.055,10.531-0.111,15.752-0.167c54.525-0.599,106.076-1.273,153.662-1.978c47.585-0.719,91.206-1.46,129.869-2.199
	c9.947-0.184,19.56-0.374,28.833-0.564c0.681,44.474,1.282,83.755,1.79,116.938c0.584,38.82,1.251,69.321,1.616,90.117
	c0.429,20.796,0.657,31.887,0.657,31.887s0.229-11.091,0.657-31.887c0.365-20.796,1.032-51.297,1.616-90.117
	c0.508-33.226,1.11-72.563,1.792-117.107c23.499-0.495,44.661-0.988,63.166-1.398c27.758-0.58,49.568-1.246,64.439-1.607
	c14.871-0.426,22.801-0.653,22.801-0.653s-7.931-0.227-22.801-0.653c-14.871-0.362-36.681-1.028-64.439-1.608
	c-18.476-0.41-39.601-0.902-63.054-1.396c0.079-5.141,0.158-10.329,0.239-15.604c0.703-51.223,1.406-108.677,2.093-171.164
	c22.635-0.5,43.002-0.998,60.793-1.413c26.431-0.58,47.199-1.246,61.358-1.608c14.16-0.426,21.712-0.653,21.712-0.653
	s-7.552-0.227-21.712-0.653c-14.16-0.361-34.927-1.028-61.358-1.607c-17.77-0.414-38.11-0.912-60.713-1.411
	c0.012-1.04,0.023-2.068,0.034-3.11c0.332-33.274,0.677-67.934,1.035-103.807c0.226-26.507,0.458-53.681,0.694-81.443
	c44.939-0.55,80.531-1.152,105.331-1.489c26.602-0.426,40.789-0.653,40.789-0.653s-14.188-0.227-40.789-0.653
	c-24.792-0.337-60.372-0.938-105.294-1.488c0.071-8.403,0.144-16.851,0.216-25.359c0.404-52.994,0.789-108.002,1.123-164.548
	c44.289-0.545,79.41-1.138,103.955-1.472c26.602-0.426,40.789-0.653,40.789-0.653s-14.188-0.227-40.789-0.653
	c-24.541-0.333-59.653-0.926-103.93-1.471c0.137-23.435,0.266-47.124,0.383-71.051c0.17-39.038,0.343-78.693,0.518-118.81
	c43.853-0.542,78.656-1.129,103.03-1.46c26.602-0.426,40.789-0.653,40.789-0.653s-14.188-0.227-40.789-0.653
	c-24.371-0.331-59.167-0.918-103.012-1.46c0.005-1.217,0.011-2.429,0.016-3.647c0.131-42.805,0.265-86.131,0.398-129.802
	c0.024-18.722,0.048-37.518,0.072-56.353c43.616-0.54,78.244-1.124,102.525-1.454c26.602-0.426,40.789-0.653,40.789-0.653
	s-14.188-0.227-40.789-0.653c-24.28-0.33-58.906-0.914-102.52-1.454c0.081-63.594,0.163-127.741,0.246-191.927
	c24.75-0.098,49.083-0.195,72.958-0.29c88.334-0.442,170.581-0.853,246.109-1.231c0.421,20.988,0.846,40.783,1.271,59.219
	c0.72,32.187,1.521,60.247,2.143,83.355c0.584,23.108,1.251,41.265,1.616,53.644c0.429,12.379,0.657,18.982,0.657,18.982
	s0.229-6.602,0.657-18.982c0.365-12.379,1.033-30.536,1.617-53.644c0.623-23.108,1.423-51.168,2.143-83.355
	c0.425-18.452,0.851-38.267,1.272-59.276c60.864-0.304,117.258-0.586,168.828-0.844c59.147-0.36,111.95-0.681,157.883-0.961
	c0.464,14.897,0.921,28.373,1.309,40.261c0.584,19.077,1.251,34.065,1.616,44.285c0.429,10.22,0.657,15.67,0.657,15.67
	s0.229-5.45,0.657-15.67c0.364-10.22,1.032-25.208,1.616-44.285c0.388-11.899,0.846-25.39,1.31-40.305
	c133.09-0.81,206.394-1.256,206.394-1.256s-73.275-0.446-206.316-1.256c0.255-8.253,0.51-16.921,0.756-25.996
	c0.741-26.571,1.484-56.549,2.207-89.252c0.332-16.352,0.678-33.384,1.035-51.013c0.14-8.078,0.282-16.295,0.427-24.615
	c130.234-0.793,201.892-1.229,201.892-1.229s-71.643-0.436-201.85-1.229c0.157-9.04,0.316-18.216,0.478-27.518
	c0.582-37.472,1.123-76.988,1.53-117.867c0.017-1.883,0.034-3.778,0.051-5.667
	C8438.285,2227.983,8431.551,2234.721,8424.495,2241.305z M7437.682,2572.791c110.465-0.439,215.143-0.856,313.245-1.246
	c0.082,64.066,0.164,128.092,0.245,191.568c-47.766-0.568-104.767-1.247-169.547-2.018c-44.536-0.422-92.767-0.878-144.183-1.365
	C7437.521,2697.783,7437.602,2635.31,7437.682,2572.791z M7436.965,2949.992c0.131-42.62,0.265-85.758,0.398-129.24
	c0.021-16.451,0.042-32.965,0.063-49.506c51.421-0.487,99.658-0.943,144.198-1.365c64.783-0.771,121.786-1.449,169.553-2.018
	c0.024,18.746,0.048,37.453,0.072,56.086c0.134,43.672,0.267,86.997,0.398,129.802c0.005,1.132,0.01,2.26,0.015,3.391
	c-47.866-0.57-105.035-1.25-170.038-2.024c-44.678-0.423-93.076-0.881-144.676-1.369
	C7436.954,2952.495,7436.959,2951.246,7436.965,2949.992z M7436.413,3076.126c0.16-36.455,0.321-73.446,0.485-110.853
	c51.619-0.489,100.034-0.947,144.727-1.37c65.013-0.774,122.188-1.454,170.059-2.024c0.174,40.029,0.347,79.599,0.516,118.554
	c0.117,23.847,0.245,47.458,0.381,70.817c-48.054-0.572-105.535-1.256-170.957-2.035c-44.944-0.426-93.654-0.886-145.6-1.378
	C7436.164,3124.189,7436.294,3100.279,7436.413,3076.126z M7434.882,3314.936c0.384-50.173,0.751-102.163,1.073-155.555
	c51.972-0.492,100.706-0.953,145.669-1.379c65.434-0.779,122.925-1.463,170.984-2.035c0.334,56.465,0.718,111.394,1.122,164.316
	c0.072,8.441,0.144,16.822,0.214,25.159c-48.329-0.575-106.278-1.265-172.32-2.051c-45.339-0.429-94.512-0.895-146.974-1.391
	C7434.728,3333.038,7434.805,3324.018,7434.882,3314.936z M7734.295,3537.565c-36.815-0.739-78.35-1.48-123.661-2.199
	c-45.311-0.704-94.398-1.379-146.317-1.978c-10.375-0.117-20.868-0.232-31.461-0.344c0.015-1.384,0.03-2.756,0.045-4.145
	c0.332-33.13,0.677-67.64,1.035-103.358c0.201-23.482,0.406-47.495,0.616-71.972c52.499-0.497,101.705-0.963,147.073-1.392
	c66.06-0.786,124.023-1.476,172.36-2.051c0.236,27.693,0.466,54.8,0.692,81.244c0.357,35.873,0.703,70.533,1.035,103.807
	c0.01,0.947,0.021,1.881,0.031,2.825C7748.783,3537.854,7741.638,3537.708,7734.295,3537.565z"/>
<path fill="#4D4D4D" d="M2715.605,1610.693c-0.09,3.935-0.18,7.913-0.27,11.933c-0.704,32.292-1.379,67.275-1.978,104.276
	c-0.291,18.442-0.573,37.386-0.832,56.748c-30.059,0.063-59.982,0.126-89.792,0.188l0,0v19.799
	c29.723,0.062,59.561,0.125,89.533,0.188c-0.161,12.997-0.311,26.149-0.445,39.463c-0.183,20.182-0.369,40.701-0.557,61.472
	c-0.082,10.386-0.163,20.834-0.246,31.335c-0.053,10.501-0.107,21.055-0.161,31.651c-0.018,3.046-0.033,6.103-0.049,9.155
	c-29.482,0.062-58.834,0.123-88.075,0.185v19.799c29.21,0.061,58.531,0.123,87.981,0.184c-0.129,32.853-0.163,66.011-0.212,99.172
	c0.035,24.681,0.058,49.358,0.119,73.912c-29.419,0.062-58.709,0.123-87.888,0.184l0,0v19.799l0,0
	c29.199,0.061,58.508,0.123,87.947,0.184c0.04,11.511,0.091,22.989,0.161,34.415c0.051,10.596,0.101,21.15,0.151,31.651
	c0.083,10.501,0.165,20.95,0.247,31.335c0.187,20.771,0.371,41.29,0.552,61.472c0.048,4.731,0.098,9.439,0.149,14.132
	c-24.202,0.051-48.313,0.101-72.353,0.152l0,0c1.974,6.882,4.122,13.519,6.457,19.883c21.981,0.046,44.013,0.092,66.129,0.139
	c0.34,28.22,0.734,55.671,1.149,82.08c0.044,2.486,0.087,4.938,0.13,7.406c5.333,3.346,10.931,6.364,16.79,9.07
	c0.096-5.45,0.192-10.932,0.289-16.475c0.415-26.396,0.809-53.833,1.148-82.039c1.161,0.002,2.318,0.005,3.479,0.007
	c89.947,0.11,180.974,0.22,272.866,0.332l0,0c2.12-3.146,4.223-6.329,6.288-9.593c2.355-3.722,4.646-7.521,6.903-11.358
	c-96.369,0.117-191.812,0.233-286.057,0.348c-1.083,0.002-2.163,0.005-3.246,0.007c0.051-4.679,0.101-9.373,0.148-14.09
	c0.181-20.183,0.365-40.701,0.552-61.472c0.082-10.385,0.164-20.834,0.247-31.335c0.05-10.501,0.1-21.055,0.151-31.651
	c0.069-11.411,0.12-22.873,0.16-34.368c0.663,0.001,1.324,0.003,1.987,0.004c102.525,0.125,206.454,0.251,311.467,0.379
	c0.04,11.367,0.091,22.701,0.159,33.985c0.051,10.596,0.101,21.15,0.151,31.651c0.083,10.501,0.165,20.95,0.247,31.335
	c0.07,7.782,0.139,15.515,0.208,23.222l0,0c8.251-19.294,15.423-39.474,21.44-60.271v0c0.041-8.616,0.083-17.258,0.124-25.937
	c0.068-11.275,0.119-22.6,0.159-33.957c4.502,0.006,9.017,0.011,13.523,0.017c1.222-7.007,2.328-14.048,3.293-21.12l0,0
	c-5.584,0.007-11.177,0.013-16.755,0.02c0.06-24.403,0.083-48.927,0.118-73.454c-0.05-33.007-0.083-66.01-0.21-98.714
	c7.356,0.009,14.73,0.018,22.097,0.027l0,0v-21.137c-7.4,0.009-14.806,0.018-22.195,0.027c-0.016-2.9-0.03-5.804-0.047-8.698
	c-0.054-10.596-0.107-21.15-0.161-31.651c-0.082-10.501-0.164-20.95-0.246-31.335c-0.188-20.771-0.375-41.29-0.558-61.472
	c-0.132-13.16-0.281-26.16-0.439-39.01c7.872,0.01,15.761,0.019,23.645,0.029l0,0v-9.722c0-3.889-0.031-7.676-0.076-11.415l0,0
	c-7.949,0.01-15.903,0.019-23.84,0.029c-0.258-19.203-0.537-37.998-0.826-56.296c-0.463-28.636-0.972-56.056-1.505-81.962
	c-3.367-5.476-7.083-10.383-11.164-14.782c-0.845-0.911-1.712-1.802-2.597-2.679c-0.666,30.936-1.304,64.266-1.873,99.423
	c-0.289,18.305-0.568,37.107-0.826,56.319c-105.642,0.129-210.188,0.256-313.316,0.381c-1.279,0.003-2.553,0.005-3.832,0.008
	c-0.259-19.348-0.541-38.279-0.831-56.708c-0.599-37.001-1.274-71.984-1.978-104.276c-0.089-4.011-0.179-7.98-0.269-11.906
	c2.304,0.005,4.604,0.01,6.91,0.014c96.706,0.118,194.674,0.237,293.609,0.357c-20.19-10.851-47.425-17.497-85-20.882
	c-70.102,0.085-139.679,0.17-208.61,0.254c-2.464,0.005-4.922,0.01-7.385,0.016c-0.481-19.987-0.969-38.718-1.455-55.983
	c-0.715-26.237-1.516-49.111-2.132-67.948c-0.58-18.837-1.246-33.637-1.608-43.729c-0.426-10.091-0.653-15.473-0.653-15.473
	s-0.227,5.382-0.653,15.473c-0.361,10.091-1.028,24.892-1.608,43.729c-0.616,18.837-1.417,41.71-2.132,67.948
	c-0.486,17.273-0.974,36.012-1.455,56.008c-31.254,0.066-62.361,0.131-93.345,0.196v19.799
	C2653.562,1610.563,2684.511,1610.628,2715.605,1610.693z M3046.447,2096.24c0.035,24.537,0.058,49.069,0.118,73.482
	c-104.992,0.128-208.9,0.254-311.405,0.379c-0.643,0.001-1.284,0.003-1.927,0.004c0.06-24.539,0.083-49.199,0.119-73.865
	c-0.05-33.145-0.083-66.286-0.212-99.125c0.674,0.001,1.346,0.003,2.021,0.004c102.535,0.125,206.475,0.251,311.498,0.379
	C3046.53,2030.211,3046.497,2063.224,3046.447,2096.24z M2735.16,1803.872c103.039,0.125,207.496,0.253,313.046,0.381
	c-0.159,12.858-0.307,25.866-0.439,39.034c-0.183,20.182-0.369,40.701-0.557,61.472c-0.082,10.386-0.163,20.834-0.246,31.335
	c-0.053,10.501-0.107,21.055-0.161,31.651c-0.018,2.903-0.031,5.816-0.047,8.725c-105.056,0.128-209.028,0.254-311.595,0.379
	c-0.706,0.001-1.409,0.003-2.115,0.004c-0.016-3.037-0.031-6.078-0.049-9.109c-0.054-10.596-0.107-21.15-0.161-31.651
	c-0.082-10.501-0.164-20.95-0.246-31.335c-0.188-20.771-0.375-41.29-0.558-61.472c-0.134-13.301-0.284-26.438-0.444-39.422
	C2732.78,1803.867,2733.968,1803.869,2735.16,1803.872z"/>
<path fill="#4D4D4D" d="M2070.794,1591.856v17.485c29.822,0.062,59.841,0.125,90.051,0.189h0
	c-8.003-0.515-16.407-0.914-25.293-1.188l-17.929-0.555v-16.029l0,0C2101.959,1591.791,2086.351,1591.824,2070.794,1591.856
	L2070.794,1591.856z"/>
<path fill="#4D4D4D" d="M2383.165,1477.84L2383.165,1477.84l5.238-0.905c-0.119-3.584-0.234-7.052-0.343-10.386
	c-0.29-9.408-0.601-17.808-0.885-25.118l0,0h-2.752l0,0c-0.284,7.31-0.595,15.711-0.885,25.118
	C2383.419,1470.164,2383.294,1473.931,2383.165,1477.84z"/>
<path fill="#4D4D4D" d="M7098.294,3058.994c0.25,0.145,0.506,0.291,0.755,0.436l0,0c0.013-2.748,0.026-5.5,0.04-8.255
	C7098.768,3053.778,7098.498,3056.381,7098.294,3058.994z"/>
<path fill="#4D4D4D" d="M6086.732,3591.835c0.145-15.265,0.293-30.946,0.446-47.018c20.979,0.498,44.638,1.047,70.671,1.556
	c36.815,0.742,78.35,1.484,123.661,2.207c7.194,0.105,14.494,0.212,21.874,0.32c8.706-6.723,18.747-12.507,28.925-14.2
	c0.066-0.038,0.13-0.076,0.196-0.114c-17.467,0.256-34.484,0.505-50.995,0.747c-45.311,0.723-86.846,1.466-123.661,2.207
	c-26.01,0.509-49.651,1.057-70.617,1.555c0.497-52.355,1.033-108.833,1.602-168.853c0.026-3.664,0.053-7.358,0.08-11.047
	c3.96,0.004,7.919,0.008,11.88,0.012c104.031-0.109,208.045-0.219,310.71-0.326c0.009,1.283,0.018,2.581,0.027,3.861
	c0.373,40.643,0.731,79.715,1.074,117.054c3.845-3.213,7.573-6.446,11.188-9.701c0.315-34.391,0.644-70.217,0.985-107.353
	c0.009-1.285,0.018-2.587,0.027-3.875c4.903-0.005,9.82-0.01,14.717-0.016c20.953-0.051,41.843-0.102,62.66-0.153
	c2.416-6.521,4.583-13.167,6.492-19.951l0.4-1.256c0.072-0.2,0.14-0.405,0.211-0.605c-23.168-0.057-46.424-0.114-69.764-0.171
	c-4.845-0.005-9.711-0.01-14.563-0.015c0.205-29.46,0.416-59.702,0.631-90.646l0,0c-4.951-1.061-9.917-2.117-14.893-3.17
	c0.223,32.047,0.441,63.34,0.653,93.802c-102.615-0.108-206.577-0.217-310.556-0.326c-3.906,0.004-7.81,0.008-11.715,0.012
	c0.343-47.67,0.701-97.401,1.072-148.899l0,0c-5.395-0.605-10.701-1.174-15.891-1.696c0.375,52.106,0.737,102.412,1.084,150.609
	c-105.008,0.105-209.903,0.21-313.279,0.313c-4.716,0.011-9.425,0.023-14.135,0.034c0.179-10.361,0.361-21.517,0.535-33.443
	c0.376-25.261,0.803-53.976,1.276-85.732c-2.358,0.392-4.711,0.782-7.081,1.178c0.465,31.288,0.887,59.605,1.258,84.553
	c0.175,11.929,0.356,23.088,0.536,33.451c-49.902,0.12-99.433,0.239-148.428,0.356c-54.755,0.187-108.846,0.371-162.049,0.552
	c-6.392,0.032-12.769,0.064-19.134,0.095c0.28-16.029,0.561-32.785,0.839-50.209c-3.702,0.982-7.404,1.966-11.114,2.967l0,0
	c0.263,16.376,0.527,32.16,0.792,47.289c-51.135,0.255-101.395,0.506-150.599,0.751l0,0c-18.852,6.189-37.553,12.26-56.056,18.202
	c66.989,0.334,136.167,0.679,207.011,1.033c0.712,40.143,1.498,75.191,2.111,104.119c0.584,29.351,1.251,52.412,1.617,68.135
	c0.051,1.875,0.099,3.638,0.145,5.302c-30.892-0.693-64.297-1.357-99.605-1.946c-35.847-0.584-73.648-1.129-112.753-1.535
	c-19.552-0.183-39.431-0.369-59.554-0.558c-10.061-0.082-20.184-0.163-30.357-0.246c-9.655-0.051-19.359-0.102-29.098-0.153
	c0.127-6.771,0.257-13.675,0.389-20.741c0.594-35.35,1.189-74.339,1.774-116.37l0,0c-4.128,1.257-8.238,2.504-12.329,3.742
	c0.568,40.602,1.146,78.331,1.722,112.628c0.132,7.051,0.261,13.94,0.388,20.697c-38.964-0.221-78.476-0.258-117.995-0.319
	c-41.712,0.062-83.424,0.082-124.484,0.339c-10.265,0.051-20.49,0.101-30.663,0.151c-10.173,0.083-20.296,0.165-30.357,0.247
	c-8.088,0.075-16.125,0.15-24.129,0.224c0.329-19.953,0.657-41.031,0.984-63.114l0,0c-3.691-0.381-7.353-0.807-10.966-1.304
	c0.334,22.588,0.669,44.132,1.005,64.5c-8.874,0.082-17.698,0.164-26.449,0.245c-39.105,0.407-76.906,0.949-112.752,1.531
	c-17.923,0.325-35.357,0.641-52.222,0.946c-16.864,0.358-33.158,0.703-48.8,1.035c-31.284,0.723-59.961,1.466-85.379,2.207
	c-25.418,0.72-47.578,1.52-65.827,2.143c-18.249,0.584-32.587,1.251-42.364,1.616c-9.776,0.428-14.99,0.657-14.99,0.657
	s5.214,0.229,14.99,0.657c9.776,0.365,24.115,1.033,42.364,1.616c18.249,0.623,40.408,1.423,65.827,2.143
	c25.418,0.742,54.095,1.484,85.379,2.207c15.642,0.332,31.936,0.677,48.8,1.035c16.864,0.305,34.298,0.621,52.222,0.946
	c35.846,0.582,73.647,1.124,112.752,1.531c8.874,0.082,17.824,0.165,26.824,0.249c0.701,37.819,1.318,71.143,1.838,99.204
	c0.583,32.06,1.251,57.25,1.616,74.425c0.429,17.175,0.657,26.335,0.657,26.335s0.229-9.16,0.657-26.335
	c0.365-17.175,1.033-42.365,1.617-74.425c0.52-28.042,1.137-61.34,1.836-99.128c8.129,0.075,16.292,0.151,24.508,0.227
	c10.061,0.082,20.184,0.164,30.357,0.247c10.173,0.05,20.398,0.101,30.663,0.151c41.06,0.257,82.772,0.277,124.484,0.339
	c39.659-0.061,79.312-0.099,118.411-0.322c0.497,26.519,0.945,50.42,1.338,71.343c0.584,31.672,1.251,56.558,1.616,73.525
	c0.429,16.967,0.657,26.016,0.657,26.016s0.229-9.049,0.657-26.016c0.365-16.967,1.032-41.853,1.616-73.525
	c0.393-20.933,0.841-44.847,1.339-71.382c9.877-0.052,19.72-0.104,29.512-0.155c10.173-0.082,20.296-0.164,30.357-0.246
	c20.123-0.188,40.001-0.375,59.554-0.558c39.105-0.406,76.906-0.951,112.753-1.535c35.445-0.592,68.974-1.259,99.966-1.954
	c0.1,3.66,0.151,5.569,0.151,5.569s0.052-1.911,0.152-5.576c0.249-0.006,0.502-0.011,0.751-0.017
	c31.284-0.719,59.961-1.46,85.379-2.199c25.418-0.715,47.578-1.516,65.827-2.132c18.249-0.58,32.587-1.246,42.364-1.608
	c9.776-0.426,14.99-0.653,14.99-0.653s-5.214-0.227-14.99-0.653c-9.776-0.361-24.115-1.028-42.364-1.607
	c-18.249-0.616-40.408-1.417-65.827-2.132c-25.418-0.739-54.095-1.48-85.379-2.199c-0.13-0.003-0.261-0.006-0.391-0.009
	c0.045-1.671,0.094-3.442,0.145-5.325c0.365-15.723,1.033-38.785,1.616-68.135c0.613-28.917,1.399-63.95,2.111-104.075
	c6.484,0.032,12.981,0.065,19.492,0.097c53.204,0.181,107.294,0.366,162.049,0.552c49.125,0.118,98.789,0.237,148.824,0.357
	c0.269,14.536,0.511,26.972,0.685,37.145c0.428,21.389,0.657,32.796,0.657,32.796s0.229-11.407,0.657-32.796
	c0.174-10.172,0.416-22.606,0.685-37.139c4.842,0.012,9.683,0.023,14.531,0.035c103.43,0.103,208.381,0.208,313.443,0.313
	c0.026,3.694,0.053,7.393,0.08,11.061c0.57,60.112,1.107,116.67,1.604,169.092c-5.069,0.121-9.971,0.238-14.685,0.349
	c-26.432,0.584-47.199,1.251-61.359,1.616c-14.16,0.428-21.711,0.657-21.711,0.657s7.552,0.229,21.711,0.657
	c14.16,0.365,34.927,1.033,61.359,1.616c4.729,0.111,9.648,0.229,14.735,0.35c0.186,19.609,0.367,38.644,0.542,57.039l3.54-3.538
	C6082.858,3596.548,6084.737,3594.267,6086.732,3591.835z"/>
<path fill="#4D4D4D" d="M2070.794,1784.994v17.485l0,0c82.007,0.172,165.513,0.347,250.34,0.525
	c-0.078-6.386-0.213-12.574-0.421-18.534l0,0C2236.031,1784.648,2152.666,1784.822,2070.794,1784.994L2070.794,1784.994z"/>
<path fill="#4D4D4D" d="M2070.794,1995.727c82.032,0.172,165.566,0.347,250.419,0.525v-18.535
	c-84.853,0.178-168.387,0.353-250.419,0.525V1995.727z"/>
<path fill="#4D4D4D" d="M5110.319,2362.335L5110.319,2362.335c-7.104-0.003-14.206-0.006-21.314-0.01l0,0v22.172
	c9.504-0.004,19-0.009,28.495-0.013C5115.004,2377.205,5112.61,2369.822,5110.319,2362.335z"/>
<path fill="#4D4D4D" d="M5089.005,2555.686L5089.005,2555.686v18.521c7.233-6.21,14.453-12.38,21.658-18.511
	C5103.444,2555.692,5096.229,2555.689,5089.005,2555.686z"/>
<path fill="#4D4D4D" d="M263.156,2375.022c29.904,0.183,62.128,0.38,96.601,0.591c0.177,15.195,0.37,30.17,0.574,44.894l0,0
	c6.026,2.623,12.172,5.262,18.434,7.914l0,0c0.245-17.226,0.477-34.805,0.685-52.695c91.321,0.459,197.416,0.992,316.403,1.59
	c0.356,30.401,0.777,59.927,1.223,88.263c0.325,18.5,0.641,36.497,0.946,53.904c0.069,3.346,0.137,6.662,0.205,9.964
	c4.966,0.998,9.914,1.958,14.848,2.89l0,0c0.087-4.251,0.175-8.528,0.264-12.853c0.305-17.407,0.621-35.403,0.946-53.904
	c0.445-28.305,0.866-57.798,1.222-88.164c26.795,0.135,54.208,0.272,82.25,0.414c73.889,0.295,152.042,0.607,234.053,0.934
	c0.353,29.893,0.768,58.929,1.207,86.816c0.325,18.5,0.641,36.497,0.946,53.904c0.16,7.798,0.318,15.464,0.473,23.016
	c4.862-0.814,9.669-1.682,14.425-2.6c0.138-6.71,0.278-13.513,0.419-20.416c0.305-17.407,0.621-35.403,0.946-53.904
	c0.438-27.863,0.853-56.873,1.206-86.738c77.501,0.31,158.375,0.632,242.314,0.967l0,0c0.636-1.209,1.265-2.423,1.884-3.644
	c1.529-3.016,3.005-6.075,4.436-9.173l0,0c-86.154,0.344-169.106,0.675-248.51,0.992c0.07-6.233,0.137-12.488,0.201-18.789
	c0.181-20.183,0.365-40.701,0.552-61.472c0.082-10.385,0.164-20.834,0.247-31.335c0.05-10.501,0.101-21.055,0.151-31.651
	c0.079-12.963,0.133-25.995,0.175-39.064c88.213,0.352,180.787,0.722,277.274,1.107l0,0c-0.334-4.392-0.768-8.75-1.298-13.078l0,0
	c-96.006,0.383-188.137,0.751-275.943,1.101c0.07-26.086,0.092-52.323,0.13-78.561c-0.052-34.727-0.087-69.447-0.232-103.821
	c58.337,0.233,118.587,0.473,180.609,0.721l0,0c-4.161-4.104-8.46-8.19-12.898-12.259l0,0c-57.5,0.23-113.46,0.453-167.76,0.67
	c-0.023-4.608-0.047-9.212-0.075-13.805c-0.054-10.596-0.107-21.15-0.161-31.651c-0.082-10.501-0.164-20.95-0.246-31.335
	c-0.119-13.128-0.237-26.141-0.354-39.046v0c-6.766-3.7-13.604-7.379-20.516-11.036l0,0c-0.15,16.501-0.301,33.203-0.454,50.082
	c-0.081,10.386-0.163,20.834-0.246,31.335c-0.053,10.501-0.107,21.055-0.161,31.651c-0.028,4.623-0.052,9.256-0.075,13.894
	c-81.526,0.325-159.232,0.636-232.721,0.929c-27.579,0.139-54.551,0.274-80.925,0.407c-0.025-5.085-0.052-10.163-0.082-15.23
	c-0.054-10.596-0.107-21.15-0.161-31.651c-0.082-10.501-0.164-20.95-0.246-31.335c-0.188-20.771-0.375-41.29-0.558-61.472
	c-0.155-15.392-0.33-30.585-0.52-45.548c26.872,0.135,54.365,0.273,82.491,0.415c39.02,0.156,79.242,0.316,120.581,0.481l0,0
	c-6.861-3.238-13.76-6.475-20.692-9.713c-34.097,0.136-67.406,0.269-99.889,0.399c-28.162,0.141-55.69,0.28-82.595,0.415
	c-0.281-21.475-0.59-42.47-0.911-62.834c-0.128-7.912-0.26-15.725-0.394-23.446v0c-5.413-2.591-10.816-5.196-16.213-7.809l0,0
	c-0.183,10.245-0.361,20.664-0.532,31.256c-0.322,20.395-0.631,41.421-0.912,62.929c-119.276,0.6-225.605,1.134-317.091,1.594
	c-0.287-22.064-0.603-43.625-0.933-64.523c-0.598-37.001-1.273-71.984-1.978-104.276c-0.149-6.697-0.299-13.272-0.45-19.732
	c46.15,0.232,96.12,0.483,149.651,0.752c-3.31-2.003-6.604-4.02-9.887-6.045c-49.849,0.251-96.544,0.485-139.871,0.703
	c-0.542-22.943-1.092-44.307-1.641-63.809c-0.414-15.179-0.856-29.224-1.274-42.022c-2.037-1.839-4.055-3.682-6.055-5.529l0,0
	c-0.471,14.244-0.982,30.152-1.456,47.55c-0.55,19.522-1.101,40.909-1.643,63.878C132.082,1599.79,0,1600.599,0,1600.599
	s132.042,0.808,363.463,2.225c-0.151,6.483-0.302,13.08-0.452,19.802c-0.704,32.292-1.379,67.275-1.978,104.276
	c-0.331,20.932-0.647,42.529-0.935,64.631C130.755,1792.936,0,1793.737,0,1793.737s130.733,0.8,360.042,2.204
	c-0.199,15.546-0.382,31.335-0.543,47.346c-0.183,20.182-0.369,40.701-0.558,61.472c-0.081,10.386-0.163,20.834-0.245,31.335
	c-0.053,10.501-0.107,21.055-0.161,31.651c-0.034,5.67-0.064,11.353-0.091,17.045C130.132,1986.188,0,1986.984,0,1986.984
	s130.124,0.796,358.425,2.194c-0.157,35.431-0.192,71.244-0.246,107.062c0.04,27.325,0.062,54.649,0.139,81.803
	C130.084,2179.439,0,2180.236,0,2180.236s130.089,0.796,358.332,2.193c0.043,14.158,0.101,28.271,0.186,42.306
	c0.051,10.596,0.101,21.15,0.151,31.651c0.083,10.501,0.165,20.95,0.247,31.335c0.187,20.771,0.371,41.29,0.552,61.472
	c0.075,7.391,0.155,14.72,0.238,22.017c-36.888,0.226-71.207,0.436-102.854,0.63l0,0
	C258.915,2372.886,261.017,2373.947,263.156,2375.022z M797.755,1991.4c73.474,0.293,151.165,0.603,232.673,0.929
	c-0.145,34.403-0.181,69.153-0.233,103.911c0.038,26.269,0.061,52.535,0.13,78.651c-81.471,0.325-159.126,0.635-232.57,0.928
	c-27.53,0.138-54.456,0.274-80.785,0.406c0.073-26.555,0.095-53.27,0.134-79.986c-0.053-35.207-0.088-70.407-0.238-105.246
	C743.228,1991.126,770.188,1991.262,797.755,1991.4z M715.814,2349.193c0.181-20.183,0.365-40.701,0.552-61.472
	c0.082-10.385,0.164-20.834,0.247-31.335c0.05-10.501,0.101-21.055,0.151-31.651c0.081-13.434,0.137-26.941,0.18-40.489
	c26.338,0.132,53.271,0.268,80.811,0.406c73.454,0.293,151.12,0.603,232.603,0.928c0.042,13.1,0.097,26.161,0.176,39.154
	c0.051,10.596,0.101,21.15,0.151,31.651c0.083,10.501,0.165,20.95,0.247,31.335c0.187,20.771,0.371,41.29,0.552,61.472
	c0.064,6.328,0.132,12.609,0.202,18.868c-81.967,0.327-160.079,0.639-233.931,0.934c-28.009,0.141-55.392,0.279-82.158,0.413
	C715.673,2362.705,715.746,2355.975,715.814,2349.193z M379.502,2371.097c0.083-7.26,0.162-14.551,0.237-21.905
	c0.181-20.183,0.365-40.701,0.552-61.472c0.082-10.385,0.164-20.834,0.247-31.335c0.05-10.501,0.1-21.055,0.151-31.651
	c0.085-13.992,0.142-28.063,0.185-42.178c90.63,0.456,195.754,0.984,313.539,1.576c0.043,13.586,0.099,27.131,0.18,40.602
	c0.051,10.596,0.101,21.15,0.151,31.651c0.083,10.501,0.165,20.95,0.247,31.335c0.187,20.771,0.371,41.29,0.552,61.472
	c0.069,6.816,0.143,13.579,0.219,20.315C576.835,2370.106,470.788,2370.639,379.502,2371.097z M694.389,2176.339
	c-117.769,0.592-222.88,1.12-313.5,1.576c0.076-27.111,0.099-54.393,0.138-81.675c-0.053-35.776-0.089-71.545-0.246-106.935
	c90.672,0.456,195.854,0.984,313.712,1.577c-0.151,34.876-0.186,70.114-0.239,105.358
	C694.294,2122.993,694.316,2149.747,694.389,2176.339z M696.096,1797.642c-0.19,14.995-0.366,30.219-0.521,45.645
	c-0.183,20.182-0.369,40.701-0.558,61.472c-0.081,10.386-0.163,20.834-0.246,31.335c-0.053,10.501-0.107,21.055-0.161,31.651
	c-0.031,5.104-0.058,10.219-0.083,15.342c-117.88,0.593-223.081,1.121-313.766,1.577c-0.027-5.65-0.056-11.291-0.09-16.919
	c-0.054-10.596-0.107-21.15-0.161-31.651c-0.082-10.501-0.164-20.95-0.246-31.335c-0.188-20.771-0.375-41.29-0.558-61.472
	c-0.161-15.974-0.344-31.727-0.542-47.238C470.613,1796.508,576.887,1797.043,696.096,1797.642z"/>
<path fill="#4D4D4D" d="M5158.515,2968.272L5158.515,2968.272c10.672,0.053,21.407,0.107,32.198,0.161l0,0
	c20.247-6.218,40.363-12.267,60.342-18.144c-25.194,0.126-50.115,0.25-74.718,0.373
	C5170.331,2956.558,5164.392,2962.428,5158.515,2968.272z"/>
<path fill="#4D4D4D" d="M224.384,2372.038C79.922,2372.922,0,2373.411,0,2373.411s79.921,0.489,224.384,1.373V2372.038
	L224.384,2372.038z"/>
<path fill="#4D4D4D" d="M1426.266,1607.451L1426.266,1607.451c88.014,0.266,178.996,0.542,272.62,0.825l0,0v-15.355
	c-101.648,0.308-200.185,0.606-295.188,0.894l0,0C1411.285,1598.304,1418.81,1602.848,1426.266,1607.451z"/>
<path fill="#4D4D4D" d="M1383.408,1582.02L1383.408,1582.02c-0.414-16.826-0.832-32.72-1.249-47.524
	c-0.715-26.237-1.516-49.111-2.132-67.948c-0.58-18.837-1.246-33.637-1.608-43.729c-0.426-10.091-0.653-15.473-0.653-15.473
	s-0.227,5.382-0.653,15.473c-0.361,10.091-1.028,24.892-1.608,43.729c-0.616,18.837-1.417,41.71-2.132,67.948
	c-0.365,12.943-0.73,26.722-1.092,41.223l0,0C1376.004,1577.807,1379.712,1579.908,1383.408,1582.02z"/>
<path fill="#4D4D4D" d="M1041.997,1416.286c-0.247-5.86-0.377-8.94-0.377-8.94s-0.125,2.962-0.363,8.599
	C1041.504,1416.059,1041.749,1416.172,1041.997,1416.286L1041.997,1416.286z"/>
<path fill="#4D4D4D" d="M1373.099,2648.938c0.084,3.057,0.168,6.075,0.252,9.046c0.72,26.237,1.52,49.111,2.143,67.948
	c0.584,18.837,1.251,33.637,1.616,43.729c0.429,10.091,0.657,15.473,0.657,15.473s0.229-5.382,0.657-15.473
	c0.365-10.091,1.033-24.892,1.616-43.729c0.623-18.837,1.423-41.71,2.143-67.948c0.119-4.216,0.238-8.527,0.358-12.915l0,0
	C1379.411,2646.371,1376.267,2647.663,1373.099,2648.938z"/>
<path fill="#4D4D4D" d="M224.384,2565.398L224.384,2565.398C79.928,2566.282,0,2566.771,0,2566.771s79.928,0.489,224.384,1.373l0,0
	V2565.398z"/>
<path fill="#4D4D4D" d="M1745.175,2558.954L1745.175,2558.954c-8.23,0.025-16.447,0.05-24.637,0.074
	c0.263-12.8,0.534-25.992,0.812-39.546c0.098-5.591,0.198-11.264,0.298-16.974c-7.715-24.439-13.432-51.179-17.206-80.353l0,0
	c0.206,14.744,0.422,29.237,0.646,43.423c0.325,18.5,0.641,36.497,0.946,53.904c0.279,13.569,0.55,26.774,0.813,39.588
	c-58.181,0.176-115.337,0.349-171.412,0.519l0,0c-6.55,4.864-13.238,9.635-20.072,14.305c62.592,0.189,126.557,0.383,191.809,0.581
	c0.69,30.497,1.397,58.53,2.103,83.51c0.72,26.237,1.52,49.111,2.143,67.948c0.584,18.837,1.251,33.637,1.616,43.729
	c0.429,10.091,0.657,15.473,0.657,15.473s0.229-5.382,0.657-15.473c0.365-10.091,1.033-24.892,1.616-43.729
	c0.623-18.837,1.423-41.71,2.143-67.948c0.706-24.969,1.412-52.989,2.102-83.47c11.3,0.034,22.639,0.069,34.014,0.103l0,0
	C1751.07,2569.541,1748.053,2564.322,1745.175,2558.954z"/>
<path fill="#4D4D4D" d="M1699.684,2365.731L1699.684,2365.731c-0.52,0.001-1.038,0.003-1.557,0.005l0,0
	c-2.486,5.158-5.054,10.268-7.707,15.328c3.363,0.01,6.726,0.02,10.096,0.031
	C1700.188,2376.038,1699.912,2370.917,1699.684,2365.731z"/>
<path fill="#4D4D4D" d="M3513.666,2560.076c-1.394-1.45-2.78-2.911-4.158-4.382l0,0c-36.301,0.044-72.52,0.088-108.653,0.132
	c0.242-11.796,0.491-23.917,0.747-36.344c0.306-17.407,0.622-35.403,0.946-53.904c0.405-25.729,0.788-52.454,1.122-79.909
	c-3.856-9.657-7.52-19.508-10.986-29.547v324.316h-2.502l0,0c0.524,17.001,1.049,32.249,1.487,45.493
	c0.584,18.837,1.251,33.637,1.616,43.729c0.429,10.091,0.657,15.473,0.657,15.473s0.229-5.382,0.657-15.473
	c0.365-10.091,1.032-24.892,1.616-43.729c0.623-18.837,1.423-41.71,2.143-67.948c0.681-24.091,1.363-51.025,2.03-80.268
	c38.454,0.047,76.997,0.094,115.642,0.141c5.221,0.002,10.455,0.004,15.68,0.007
	C3525.56,2572.116,3519.543,2566.189,3513.666,2560.076z"/>
<path fill="#4D4D4D" d="M3091.182,2556.203c-8.806,0.011-17.616,0.021-26.407,0.032c0.245-11.925,0.497-24.183,0.755-36.753
	c0.15-8.564,0.303-17.274,0.458-26.114c-5.142,8.256-10.408,16.296-15.811,24.092l0,0c0.012,0.67,0.024,1.353,0.035,2.021
	c0.258,12.576,0.51,24.84,0.755,36.77c-10.135,0.012-20.25,0.025-30.365,0.037c-6.069,7.24-12.278,14.217-18.615,20.943
	c16.451,0.02,32.921,0.04,49.427,0.06c0.67,29.407,1.355,56.484,2.039,80.692c0.72,26.237,1.52,49.111,2.143,67.948
	c0.584,18.837,1.251,33.637,1.616,43.729c0.429,10.091,0.657,15.473,0.657,15.473s0.229-5.382,0.657-15.473
	c0.365-10.091,1.032-24.892,1.616-43.729c0.623-18.837,1.423-41.71,2.143-67.948c0.684-24.204,1.369-51.276,2.039-80.677
	c8.94,0.011,17.9,0.022,26.856,0.033V2556.203L3091.182,2556.203z"/>
<path fill="#4D4D4D" d="M365.837,2680.253L365.837,2680.253c0.526,17.076,1.053,32.386,1.493,45.679
	c0.584,18.837,1.251,33.637,1.616,43.729c0.429,10.091,0.657,15.473,0.657,15.473s0.229-5.382,0.657-15.473
	c0.365-10.091,1.032-24.892,1.616-43.729c0.427-12.913,0.937-27.724,1.448-44.214l0,0
	C370.804,2681.227,368.309,2680.739,365.837,2680.253z"/>
<path fill="#4D4D4D" d="M3726.427,2687.162c0.453,14.317,0.898,27.296,1.277,38.769c0.584,18.837,1.251,33.637,1.616,43.729
	c0.428,10.091,0.657,15.473,0.657,15.473s0.229-5.382,0.657-15.473c0.365-10.091,1.033-24.892,1.616-43.729
	c0.361-10.936,0.783-23.241,1.213-36.766C3731.11,2688.511,3728.763,2687.844,3726.427,2687.162L3726.427,2687.162z"/>
<path fill="#4D4D4D" d="M8542.117,1793.114c0.049,0.415,0.099,0.831,0.146,1.245c66.597-0.405,102.193-0.622,102.193-0.622
	S8608.807,1793.52,8542.117,1793.114z"/>
<path fill="#4D4D4D" d="M7349.253,1047.075c14.013-0.426,21.486-0.653,21.486-0.653s-7.473-0.227-21.486-0.653
	c-13.294-0.343-32.486-0.96-56.756-1.518c-0.403,1.46-0.813,2.915-1.223,4.37C7316.12,1048.056,7335.737,1047.424,7349.253,1047.075
	z"/>
<g>
	<g>
		<path fill="#F2F2F2" d="M8526.136,1859.062c0-27.511,0-65.216-10.229-102.956c-10.305-30.91-20.682-68.617-30.91-96.055
			c-54.84-95.98-126.924-171.425-222.94-219.47c-92.545-47.969-144.133-75.407-144.133-75.407s-54.655-10.229-157.614-27.548
			h-37.706c-61.08-7.96-99.447-10.119-99.447-10.119h-596.775c-51.369,0-113.189,10.119-168.063,10.119h-438.865
			c-5.393,0-10.376,0-10.376,0c-157.724,0-315.486,0-469.738-10.119l-34.306,20.568c0,0,10.229,0,10.229,6.871v10.229
			c24.077,0,44.648,10.229,54.987,10.229c10.191,0,30.725,10.339,51.406,10.339c20.42,0,51.331,6.871,71.936,6.871
			c34.306,10.191,65.178,20.677,85.75,30.797c51.406,27.514,92.655,65.216,113.151,102.96
			c20.644,47.897,34.382,96.052,34.382,144.024v10.229c0,6.866,0,6.866,0,6.866c0,10.23,0,10.23,0,20.496c0,0,0,0,0,10.415
			c0,27.438,10.229,54.84,10.229,85.787v113.114c0,10.229,0,10.229,0,17.172c0,20.606,10.229,41.026,10.229,68.612v65.069
			c0,58.387-10.229,116.623-20.458,171.462c-13.738,48.006-34.382,96.017-65.106,144.133v48.01
			c0,37.554,10.229,65.141,20.458,102.771c20.496,30.91,54.877,68.54,75.335,96.126l10.448,10.229
			c0,6.871-10.448,27.401-10.448,48.01v140.624c0,20.572,10.448,48.006,10.448,75.445v164.519
			c0,92.731-10.448,188.744-41.135,274.384c-24.153,85.822-85.826,150.89-188.672,209.239c-10.305,0-24.04,10.34-34.272,20.458
			h-82.275c0,0-20.681,0-30.986,0c-20.42,0-41.102,0-51.331,6.906c-24.077,0-34.306,20.644-44.648,30.982
			c85.75,0,178.295,6.833,253.741,6.833c82.316,0,164.705-6.833,250.417-6.833h20.606c20.42,3.252,34.234,0,51.516,0h75.335
			c133.681,0,270.875,6.833,397.798,6.833c133.685,0,260.722,0,387.535,10.267c10.191,0,10.191-10.267,10.191-10.267l10.376-6.833
			c0,0,0-10.339-10.376-20.606c0,0,0-10.376-10.191-10.376c0,0,0,0-10.376,0h-10.233c-75.517,0-147.491-6.906-212.56-27.364
			c-61.711-10.375-113.189-48.01-154.366-106.245c-20.605-54.878-44.611-123.528-54.877-178.405
			c0-68.688-10.263-133.794-10.263-198.973c0-30.763,10.263-58.164,10.263-85.637v-380.777l116.698-116.547h281.142
			c0,0,316.185-9.711,435.538-23.859c27.329-3.542,51.444-6.976,78.845-13.809c157.762-17.096,294.914-92.617,408.103-219.469
			c41.025-37.744,75.445-85.75,85.674-130.395c20.682-48.01,30.91-106.356,41.178-154.256c0-10.263,0-10.263,0-17.206v-37.668
			C8536.403,1879.521,8526.136,1869.292,8526.136,1859.062z M6451.354,1392.613c20.644,0,41.139-6.871,61.783-6.871h54.874
			c10.233,0,10.233,0,20.572,0h10.267c0,0,16.397,3.067,20.606,6.871h20.42c10.415,0,31.096,10.191,31.096,10.191l40.954,85.822
			c0,47.972,13.7,96.017,13.7,133.795c0,37.63,10.376,85.564,10.376,123.417c0,48.008,10.305,106.281,10.305,150.82
			c10.229,48.078,10.229,95.979,10.229,144.095v96.017c0,37.778-10.229,65.107-10.229,92.617c-10.305,0-20.681,10.229-34.381,10.229
			h-51.369c-10.267,0-20.681,0-20.681,0c-10.229,0-10.229,0-20.42,0c-1.256-18.28-10.376-150.891-10.376-150.891
			c0-58.239-10.229-113.227-10.229-161.195v-10.229c0-75.45,0-144.061-10.267-209.316c0-75.335-10.338-143.914-31.02-209.13
			L6451.354,1392.613z M6746.305,3457.13c0,10.191-10.305,10.191-10.305,20.458v17.171c-10.376,20.607-24.077,37.744-34.306,47.974
			c-10.229,20.715-30.725,20.715-51.406,10.375c0,0-10.415,0-20.644,0c0,0-6.867,0-10.191,0h-20.606c-10.267,0-10.267,0-20.605,0
			h-10.233c-10.448,0-10.448,0-20.677,0c0,0,0,0-10.229,0c0,0-10.229,0-23.967,0h-10.415c-10.229,0-20.496,0-20.496,0
			c-10.229,0-10.229,0-20.458,0c75.335-58.349,126.813-133.722,147.31-219.543c3.543-44.535,6.867-89.184,10.376-130.176
			c5.245-25.885,10.191-144.171,10.191-144.171v-30.836c0-6.832,0-27.29,0-27.29c0-58.421,10.229-113.299,10.229-171.572
			c0-54.879,0-113.19,20.681-161.233l10.415,10.266c0,0,10.267,0,20.496,0c0,0,0,0,10.229,0h23.929c10.376,0,20.681,0,30.911,10.343
			c0,0,10.229,6.943,10.229,17.172L6746.305,3457.13z M7048.09,2486.524c-30.91,30.91-61.749,48.007-92.545,48.007
			c0,0-10.338,10.343-20.681,10.343c0,0-10.229,0-20.643,0c-23.782,0-44.463,10.301-65.141,10.301h-71.831
			c-51.625,0-96.013-10.301-137.375-20.643c0,0-69.795-11.299-113-85.675v-27.329c0-20.753,10.229-37.777,20.458-58.459
			c0-17.134,41.249-37.664,41.249-37.664l30.873-10.233c24.742-2.397,41.101,0,41.101,0c10.415,0,41.14-6.939,65.069-6.939
			c20.681,0,41.14-10.233,61.858-10.233c10.229,0,20.568,0,20.568,0c10.229,0,20.534,0,20.534,0
			c51.402,0,106.28,10.233,157.758,27.405c51.52,10.229,82.207,37.664,102.884,85.784
			C7089.226,2438.518,7068.549,2469.315,7048.09,2486.524z M7456.193,2400.774c-10.342,0-20.681,10.414-30.91,10.414h-30.838
			c-10.301,0-20.643,10.339-20.643,10.339h-30.835c0,0-20.568,10.233-30.763,10.233h-24.001c-20.644,0-41.102-10.233-61.82-10.233
			c-10.229-10.339-30.801-20.753-41.102-27.548c0-20.677-10.267-30.91-20.496-48.044c0-10.301-10.338-20.53-20.681-37.702
			c-10.267,0-20.605-10.233-20.605-10.233c-10.305-10.377-24.005-20.568-34.272-27.474c10.267-30.909,10.267-58.349,10.267-85.749
			c0-30.835,13.701-58.236,13.701-85.784c0-37.668-13.701-68.506-13.701-95.907v-96.013c0-27.552-10.267-65.221-10.267-96.127
			v-92.545c0-58.349,10.267-116.66,10.267-161.196c13.701-48.006,24.005-106.28,44.611-154.4
			c20.681-10.191,51.478-10.191,72.05-10.191c30.948,0,61.635-6.871,82.316-6.871h34.268c10.229,0,10.229,0,20.606,0
			c20.458,0,51.481,6.871,71.939,6.871h72.046c65.182,10.191,126.852,20.677,178.186,47.969
			c54.912,20.572,106.466,58.273,137.41,96.017c41.139,48.044,85.531,96.052,106.246,150.891
			c39.479,66.177,41.14,164.63,41.14,164.63c0,27.401,0,65.182-10.376,82.354c0,27.363-10.191,61.631-27.329,78.955
			c-64.218,138.408-181.763,257.098-181.763,257.098C7655.091,2325.405,7562.511,2373.302,7456.193,2400.774z M8200.421,1982.518
			c-10.414,47.969-20.681,85.636-30.909,123.342c-41.14,85.783-116.657,164.666-198.973,229.773
			c-17.172,10.301-30.797,20.605-47.935,31.019c-40.583,34.712-267.513,65.108-267.513,65.108s0,0-10.376,0h-10.339
			c10.339,0,20.715-10.233,30.907-10.233c0-10.339,20.719-10.339,20.719-20.753c0,0,173.973-97.862,236.603-192.068
			c6.795-6.829,10.267-10.119,17.138-17.063c71.936-85.783,102.846-188.557,102.846-284.571
			c10.267-17.21,10.267-27.552,10.267-37.781v-37.74c0-85.713-20.496-171.5-72.087-246.908c0,0-8.936-15.935-58.164-65.254
			c-41.14-47.973-92.727-89.108-140.624-116.585c47.896,0,99.484,10.486,140.624,27.477c57.093,23.245,78.845,41.135,78.845,41.135
			c51.406,37.781,106.246,92.655,147.385,151.005c20.678,37.63,41.173,75.298,51.587,113.113
			c10.229,37.706,10.229,85.75,10.229,123.527C8210.65,1907.073,8210.65,1944.737,8200.421,1982.518z"/>
	</g>
</g>
<path fill="#69C192" d="M7296.623,800.748c-6.76-140.53-74.23-260.88-195.13-347.68c-99.38-67.38-259.39-111.2-417.01-103.59
	c-154.14,7.37-346.95,68.04-537.98,166.4c-190.89,98.49-343.33,215.58-454.71,324c-75.41,75.72-130.21,150.43-127.73,201.84
	c1.84,37.66,3.51,71.99,25.7,108.6c18.09,16.25,59.97,31.43,97.53,29.58c20.72-0.92,57.53-19.86,96.83-59.45
	c36.04-36.16,132.65-95.72,225.41-168.83c95.8-76.66,209.02-150.76,285.98-192.12c77.18-38.16,171.35-80.35,287.75-86.08
	c195.21-9.2,316,74.19,324.57,252.43c7.79,160.92-117.47,342.02-347.02,497.16c-135.74,104.46-262.87,203.37-381.03,296.26
	c-81.42,63.99-158.58,125.13-231.36,183.23c-220.67,176.18-401.13,324.56-538.14,440.68c19.7,103.66,58.19,197.26,132.78,246.17
	c121.68-100.04,256.21-204.56,402.34-312.04c46.61-34.29,94.41-68.88,143.34-103.72c54.68-40.67,107.26-79.83,157.61-117.43
	c349.55-261.01,592.15-446.98,689.51-544.6c115.7-94.91,205.54-222.64,279.18-336.16
	C7268.373,1069.848,7302.533,923.998,7296.623,800.748z"/>
<g>
	<g>
		<path fill="#8A9090" d="M4639.633,9.121l-534.398,67.228v53.732c180.25,8.127,228.979,53.751,228.979,244.658v1210.903h-6.039
			c-57.941-88.741-152.702-201.635-403.1-201.635c-351.913,0-515.086,258.359-550.89,551.204v-497.25l-468.184,81.057v50.446
			c158.646,5.135,203.681,48.121,203.681,225.118v298.39c0,209.905-116.475,424.979-288.451,424.979
			c-126.927,0-216.996-68.392-216.996-298.498V1458.42l-468.112,80.876v50.555c161.343,4.985,203.59,48.007,203.59,225.081v359.06
			c0,115.59,0.204,285.131,83.939,397.802c-32.332,4.912-65.288,7.79-96.607,7.79c-257.855,0-274.751-91.547-274.751-298.091
			V1422.93h553.272V1304.87h-553.272V0l-334.907,262.658V1304.87h-155.788v118.059h155.788v553.973
			c-140.533-525.055-1120.854-519.701-1120.854-960.782c0-203.496,150.69-299.089,336.167-299.089
			c273.091,0,532.258,98.585,626.83,138.707V627.572c-91.082-15.361-318.639-55.596-560.321-55.596
			c-493.781,0-787.844,194.265-787.844,533.585c0,650.84,1138.15,604.566,1138.15,1104.182
			c0,280.658-217.215,360.834-437.792,360.834c-280.181,0-560.234-129.514-668.839-185.092v249.975
			c73.581,15.436,343.144,80.135,612.873,80.135c424.314,0,780.992-128.55,861.63-458.549v71.607
			c0,336.496,187.636,380.702,509.119,380.702c73.695,0,150.895-11.781,224.494-23.672v-82.279
			c52.51,52.219,129.491,86.416,243.304,86.416c256.494,0,364.99-202.263,409.986-313.565h5.392v285.683h264.503v-470.623
			c34.99,279.625,192.956,502.161,538.706,502.161c219.892,0,345.046-115.443,421.323-180.103v150.634h305.419V1618.212
			c114.573,15.842,147.514,68.76,147.514,216.702v836.184h283.358V1483.015l-430.872,68.54V9.121z M4334.214,2069.705
			c0,142.472-27.567,478.64-320.489,478.64c-286.995,0-311.405-314.635-311.405-521.624c0-188.226,27.458-497.582,308.32-497.582
			c290.096,0,323.574,279.663,323.574,430.226V2069.705z"/>
	</g>
	<path fill="#8A9090" d="M6246.353,2056.158c-50.35,37.6-102.93,76.76-157.61,117.43c-48.93,34.84-96.73,69.43-143.34,103.72
		c-19.44,189.9-81.6,347.81-273.47,347.81c-51.88,0-94.26-13.08-128.87-35.77c-74.59-48.91-113.08-142.51-132.78-246.17
		c-17.54-92.24-20.2-192.46-20.2-276.24c0-235.09,18.62-561.14,281.85-561.14c202.5,0,260.79,194.24,276.49,396.7
		c72.78-58.1,149.94-119.24,231.36-183.23c-85.6-188.68-254.12-304.28-507.85-304.28c-388.35,0-574.44,205.77-574.44,651.95
		c0,174.86,32.03,328.13,109.94,441.74c53.07,77.41,127.45,136.41,227.5,171.29c67.03,23.37,145.6,35.92,237,35.92
		c393.59,0,574.47-213.71,574.47-648.95C6246.403,2063.338,6246.383,2059.738,6246.353,2056.158z"/>
</g>
<g>
	<path fill="none" stroke="#FFFFFF" stroke-width="20" d="M4558.801,1049.171c0,181.101,146.882,327.821,327.964,327.821
		c181.064,0,327.893-146.72,327.893-327.821c0-181.192-146.829-327.946-327.893-327.946
		C4705.683,721.225,4558.801,867.979,4558.801,1049.171z"/>
	<line fill="none" stroke="#FFFFFF" stroke-width="20" x1="5440.65" y1="1049.171" x2="2943.024" y2="1049.171"/>
	<line fill="none" stroke="#FFFFFF" stroke-width="20" x1="4886.765" y1="334.594" x2="4886.765" y2="1731.288"/>
</g>
<path fill="#69C192" d="M7191.423,3189.878c2.19,67.92-70.35,122.34-164.6,147.27c0,0-63.71,30.47-84.35,31.39
	c-50.59-52.36-831.9-238.16-981.76-210.35c-153.26,24.49-371.65,52.14-601.87,118.03c-233.17,79.83-443.15,141.47-558.59,167.58
	c-157.63,7.64-240.63-77.66-247.31-218.25c-3.58-71.83,34.21-145.65,109.63-218.03c153.93-154.4,343.9-333.9,544.86-498.84
	c53.07,77.41,127.45,136.41,227.5,171.29c-152.34,130.21-280.91,251.55-382.67,360.38c368.25-124.05,697.92-194.73,951.33-206.95
	C6348.053,2816.918,7164.933,3016.778,7191.423,3189.878z"/>
</svg>
