<?xml version="1.0" encoding="UTF-8" standalone="no"?>
<!-- Created with Inkscape (http://www.inkscape.org/) -->

<svg
   xmlns:dc="http://purl.org/dc/elements/1.1/"
   xmlns:cc="http://creativecommons.org/ns#"
   xmlns:rdf="http://www.w3.org/1999/02/22-rdf-syntax-ns#"
   xmlns:svg="http://www.w3.org/2000/svg"
   xmlns="http://www.w3.org/2000/svg"
   xmlns:xlink="http://www.w3.org/1999/xlink"
   xmlns:sodipodi="http://sodipodi.sourceforge.net/DTD/sodipodi-0.dtd"
   xmlns:inkscape="http://www.inkscape.org/namespaces/inkscape"
   width="7536.5024"
   height="5000"
   id="svg4290"
   version="1.1"
   inkscape:version="0.48.3.1 r9886"
   sodipodi:docname="Dashie don't wanna learn.svg">
  <title
     id="title5723">Dashie don't wanna learn</title>
  <defs
     id="defs4292">
    <inkscape:path-effect
       effect="skeletal"
       id="path-effect4195"
       is_visible="true"
       pattern="m -10545.223,-5010.8944 c 135.905,-4.9916 272.859,-6.0179 411.677,0 -135.633,4.012 -273.13,3.3278 -411.677,0 z"
       copytype="single_stretched"
       prop_scale="1"
       scale_y_rel="false"
       spacing="0"
       normal_offset="0"
       tang_offset="0"
       prop_units="false"
       vertical_pattern="false"
       fuse_tolerance="0" />
    <inkscape:path-effect
       effect="skeletal"
       id="path-effect4198"
       is_visible="true"
       pattern="m -10388.787,-5001.6923 c 135.905,-4.9916 272.86,-6.0179 411.6779,0 -135.6339,4.012 -273.1309,3.3278 -411.6779,0 z"
       copytype="single_stretched"
       prop_scale="1"
       scale_y_rel="false"
       spacing="0"
       normal_offset="0"
       tang_offset="0"
       prop_units="false"
       vertical_pattern="false"
       fuse_tolerance="0" />
    <inkscape:path-effect
       effect="skeletal"
       id="path-effect4201"
       is_visible="true"
       pattern="m -10426.898,-4953.3554 c 135.905,-4.9916 272.859,-6.0179 411.677,0 -135.634,4.012 -273.131,3.3278 -411.677,0 z"
       copytype="single_stretched"
       prop_scale="1"
       scale_y_rel="false"
       spacing="0"
       normal_offset="0"
       tang_offset="0"
       prop_units="false"
       vertical_pattern="false"
       fuse_tolerance="0" />
    <inkscape:path-effect
       fuse_tolerance="0"
       vertical_pattern="false"
       prop_units="false"
       tang_offset="0"
       normal_offset="0"
       spacing="0"
       scale_y_rel="false"
       prop_scale="1"
       copytype="single_stretched"
       pattern="m -10412.026,-4976.5943 c 135.906,-4.9916 272.86,-6.0179 411.678,0 -135.634,4.012 -273.131,3.3278 -411.678,0 z"
       is_visible="true"
       id="path-effect4204"
       effect="skeletal" />
    <inkscape:path-effect
       effect="skeletal"
       id="path-effect4207"
       is_visible="true"
       pattern="m -10388.787,-5001.6923 c 135.905,-4.9916 272.86,-6.0179 411.6779,0 -135.6339,4.012 -273.1309,3.3278 -411.6779,0 z"
       copytype="single_stretched"
       prop_scale="1"
       scale_y_rel="false"
       spacing="0"
       normal_offset="0"
       tang_offset="0"
       prop_units="false"
       vertical_pattern="false"
       fuse_tolerance="0" />
    <inkscape:path-effect
       effect="skeletal"
       id="path-effect4210"
       is_visible="true"
       pattern="m -10388.787,-5001.6923 c 135.905,-4.9916 272.86,-6.0179 411.6779,0 -135.6339,4.012 -273.1309,3.3278 -411.6779,0 z"
       copytype="single_stretched"
       prop_scale="1"
       scale_y_rel="false"
       spacing="0"
       normal_offset="0"
       tang_offset="0"
       prop_units="false"
       vertical_pattern="false"
       fuse_tolerance="0" />
    <inkscape:path-effect
       effect="skeletal"
       id="path-effect4213"
       is_visible="true"
       pattern="m -10388.787,-5001.6923 c 135.905,-4.9916 272.86,-6.0179 411.6779,0 -135.6339,4.012 -273.1309,3.3278 -411.6779,0 z"
       copytype="single_stretched"
       prop_scale="1"
       scale_y_rel="false"
       spacing="0"
       normal_offset="0"
       tang_offset="0"
       prop_units="false"
       vertical_pattern="false"
       fuse_tolerance="0" />
    <clipPath
       clipPathUnits="userSpaceOnUse"
       id="clipPath4056">
      <path
         style="fill:url(#linearGradient4060);fill-opacity:1;stroke:none"
         d="m 1683.2947,2278.4229 c 7.1945,99.5724 -51.5601,180.2918 -131.232,180.2918 -79.6721,0 -150.0913,-80.7194 -157.2859,-180.2918 -7.1945,-99.5724 51.56,-180.2918 131.2321,-180.2918 79.6719,0 150.0912,80.7194 157.2858,180.2918 z"
         id="path4058"
         inkscape:connector-curvature="0" />
    </clipPath>
    <linearGradient
       inkscape:collect="always"
       xlink:href="#linearGradient3992"
       id="linearGradient4251"
       gradientUnits="userSpaceOnUse"
       gradientTransform="matrix(2.5102895,0,0,2.5102895,-3454.7232,-5840.5769)"
       x1="1978.5173"
       y1="2755.1729"
       x2="1984.1205"
       y2="2787.1628" />
    <linearGradient
       inkscape:collect="always"
       id="linearGradient3992">
      <stop
         style="stop-color:#ededed;stop-opacity:1;"
         offset="0"
         id="stop3994" />
      <stop
         style="stop-color:#ededed;stop-opacity:0;"
         offset="1"
         id="stop3996" />
    </linearGradient>
    <linearGradient
       inkscape:collect="always"
       xlink:href="#linearGradient3982"
       id="linearGradient4255"
       gradientUnits="userSpaceOnUse"
       gradientTransform="matrix(2.5102895,0,0,2.5102895,-3454.7232,-5840.5769)"
       x1="979.82104"
       y1="2715.3513"
       x2="1011.3794"
       y2="2867.8435" />
    <linearGradient
       inkscape:collect="always"
       id="linearGradient3982">
      <stop
         style="stop-color:#ededed;stop-opacity:1;"
         offset="0"
         id="stop3984" />
      <stop
         style="stop-color:#ededed;stop-opacity:0;"
         offset="1"
         id="stop3986" />
    </linearGradient>
    <linearGradient
       inkscape:collect="always"
       xlink:href="#linearGradient4000"
       id="linearGradient4258"
       gradientUnits="userSpaceOnUse"
       gradientTransform="matrix(2.5102895,0,0,2.5102895,-3454.7232,-5840.5769)"
       x1="811.10168"
       y1="2857.0374"
       x2="975.42535"
       y2="2860.981" />
    <linearGradient
       id="linearGradient4000">
      <stop
         style="stop-color:#ededed;stop-opacity:1;"
         offset="0"
         id="stop4002" />
      <stop
         style="stop-color:#ededed;stop-opacity:0;"
         offset="1"
         id="stop4004" />
    </linearGradient>
    <linearGradient
       inkscape:collect="always"
       xlink:href="#linearGradient4018"
       id="linearGradient4261"
       gradientUnits="userSpaceOnUse"
       gradientTransform="matrix(2.5102895,0,0,2.5102895,-3454.7232,-5840.5769)"
       x1="1768.1228"
       y1="2677.4639"
       x2="1773.381"
       y2="2709.0139" />
    <linearGradient
       inkscape:collect="always"
       id="linearGradient4018">
      <stop
         style="stop-color:#ededed;stop-opacity:1;"
         offset="0"
         id="stop4020" />
      <stop
         style="stop-color:#ededed;stop-opacity:0;"
         offset="1"
         id="stop4022" />
    </linearGradient>
    <linearGradient
       inkscape:collect="always"
       xlink:href="#linearGradient4030"
       id="linearGradient4267"
       gradientUnits="userSpaceOnUse"
       gradientTransform="matrix(2.4270599,0,0.13545389,1.8746758,-3348.2372,-4669.6283)"
       x1="1439.0459"
       y1="2475.0718"
       x2="1460.1208"
       y2="2560.0605" />
    <linearGradient
       inkscape:collect="always"
       id="linearGradient4030">
      <stop
         style="stop-color:#571133;stop-opacity:1;"
         offset="0"
         id="stop4032" />
      <stop
         style="stop-color:#571133;stop-opacity:0;"
         offset="1"
         id="stop4034" />
    </linearGradient>
    <clipPath
       clipPathUnits="userSpaceOnUse"
       id="clipPath4074">
      <path
         id="path4076"
         d="m 1662.4518,2243.058 c 28.4315,88.7051 -3.971,184.0045 -72.3733,212.857 -68.4023,28.8526 -146.9018,-19.6675 -175.3334,-108.3727 -28.4316,-88.7051 3.9709,-184.0045 72.3732,-212.857 68.4023,-28.8526 146.9019,19.6675 175.3335,108.3727 z"
         style="fill:url(#linearGradient4078);fill-opacity:1;stroke:none"
         inkscape:connector-curvature="0" />
    </clipPath>
    <linearGradient
       inkscape:collect="always"
       xlink:href="#linearGradient4030"
       id="linearGradient4276"
       gradientUnits="userSpaceOnUse"
       gradientTransform="matrix(2.5102895,0,0,2.5102895,-3454.7232,-5840.5769)"
       x1="1142.9625"
       y1="2347.7849"
       x2="1156.8302"
       y2="2407.2251" />
    <linearGradient
       id="linearGradient5722"
       inkscape:collect="always">
      <stop
         id="stop5724"
         offset="0"
         style="stop-color:#9394b8;stop-opacity:1;" />
      <stop
         id="stop5726"
         offset="1"
         style="stop-color:#9394b8;stop-opacity:0;" />
    </linearGradient>
    <linearGradient
       y2="8705.5928"
       x2="5972.2236"
       y1="9039.1914"
       x1="5972.2236"
       gradientTransform="matrix(5.4939312,0,0,5.4939312,-22117.546,-42666.26)"
       gradientUnits="userSpaceOnUse"
       id="linearGradient5936"
       xlink:href="#linearGradient5722"
       inkscape:collect="always" />
    <linearGradient
       id="linearGradient5714"
       inkscape:collect="always">
      <stop
         id="stop5716"
         offset="0"
         style="stop-color:#ffffff;stop-opacity:1;" />
      <stop
         id="stop5718"
         offset="1"
         style="stop-color:#ffffff;stop-opacity:0;" />
    </linearGradient>
    <linearGradient
       id="linearGradient5689"
       inkscape:collect="always">
      <stop
         id="stop5691"
         offset="0"
         style="stop-color:#ffffff;stop-opacity:1;" />
      <stop
         id="stop5693"
         offset="1"
         style="stop-color:#ffffff;stop-opacity:0;" />
    </linearGradient>
    <linearGradient
       id="linearGradient5671"
       inkscape:collect="always">
      <stop
         id="stop5673"
         offset="0"
         style="stop-color:#9495b9;stop-opacity:1;" />
      <stop
         id="stop5675"
         offset="1"
         style="stop-color:#9495b9;stop-opacity:0;" />
    </linearGradient>
    <linearGradient
       id="linearGradient5614"
       inkscape:collect="always">
      <stop
         id="stop5616"
         offset="0"
         style="stop-color:#ffffff;stop-opacity:1;" />
      <stop
         id="stop5618"
         offset="1"
         style="stop-color:#ffffff;stop-opacity:0;" />
    </linearGradient>
    <linearGradient
       id="linearGradient5641"
       inkscape:collect="always">
      <stop
         id="stop5643"
         offset="0"
         style="stop-color:#9899bb;stop-opacity:1;" />
      <stop
         id="stop5645"
         offset="1"
         style="stop-color:#9899bb;stop-opacity:0;" />
    </linearGradient>
    <linearGradient
       gradientTransform="translate(-311.42857,797.14286)"
       y2="-1404.7129"
       x2="461.12994"
       y1="-1484.5905"
       x1="456.58426"
       gradientUnits="userSpaceOnUse"
       id="linearGradient6789"
       xlink:href="#linearGradient6791"
       inkscape:collect="always" />
    <linearGradient
       gradientUnits="userSpaceOnUse"
       y2="-1404.7129"
       x2="461.12994"
       y1="-1493.6819"
       x1="461.12994"
       id="linearGradient6737"
       xlink:href="#linearGradient6731"
       inkscape:collect="always" />
    <linearGradient
       id="linearGradient6731">
      <stop
         style="stop-color:#fefefe;stop-opacity:0.11372549;"
         offset="0"
         id="stop6739" />
      <stop
         id="stop6741"
         offset="0.09999991"
         style="stop-color:#fefefe;stop-opacity:0.34513274" />
      <stop
         id="stop6735"
         offset="1"
         style="stop-color:#fefefe;stop-opacity:0;" />
    </linearGradient>
    <linearGradient
       id="linearGradient6791">
      <stop
         id="stop6793"
         offset="0"
         style="stop-color:#fefefe;stop-opacity:0.11372549;" />
      <stop
         style="stop-color:#fefefe;stop-opacity:0.34513274"
         offset="0.02580199"
         id="stop6795" />
      <stop
         style="stop-color:#fefefe;stop-opacity:0;"
         offset="1"
         id="stop6797" />
    </linearGradient>
    <linearGradient
       inkscape:collect="always"
       xlink:href="#linearGradient5641"
       id="linearGradient5710"
       gradientUnits="userSpaceOnUse"
       gradientTransform="matrix(5.4939312,0,0,5.4939312,-22117.546,-42666.26)"
       x1="5942"
       y1="8528"
       x2="5942"
       y2="8808.5781" />
    <linearGradient
       inkscape:collect="always"
       xlink:href="#linearGradient5614"
       id="linearGradient5712"
       gradientUnits="userSpaceOnUse"
       gradientTransform="matrix(5.4939312,0,0,5.4939312,-22117.546,-42666.26)"
       x1="5955.2534"
       y1="8985.0527"
       x2="5955.2534"
       y2="8846.6025" />
    <linearGradient
       inkscape:collect="always"
       xlink:href="#linearGradient5671"
       id="linearGradient5715"
       gradientUnits="userSpaceOnUse"
       gradientTransform="matrix(5.4939312,0,0,5.4939312,-22117.546,-42666.26)"
       x1="5973.6382"
       y1="9122.2256"
       x2="5973.6382"
       y2="8562.7666" />
    <linearGradient
       inkscape:collect="always"
       xlink:href="#linearGradient5689"
       id="linearGradient5717"
       gradientUnits="userSpaceOnUse"
       gradientTransform="matrix(5.4939312,0,0,5.4939312,-22117.546,-42666.26)"
       x1="5990"
       y1="8981.8574"
       x2="5990"
       y2="8705.582" />
    <linearGradient
       inkscape:collect="always"
       xlink:href="#linearGradient5714"
       id="linearGradient5719"
       gradientUnits="userSpaceOnUse"
       gradientTransform="matrix(5.4939312,0,0,5.4939312,-22117.546,-42666.26)"
       x1="5983.6162"
       y1="8856.1279"
       x2="5983.6162"
       y2="8715.3398" />
    <linearGradient
       inkscape:collect="always"
       xlink:href="#linearGradient5722"
       id="linearGradient5721"
       gradientUnits="userSpaceOnUse"
       gradientTransform="matrix(5.4939312,0,0,5.4939312,-22117.546,-42666.26)"
       x1="5972.2236"
       y1="9039.1914"
       x2="5972.2236"
       y2="8705.5928" />
  </defs>
  <sodipodi:namedview
     id="base"
     pagecolor="#ffffff"
     bordercolor="#666666"
     borderopacity="1.0"
     inkscape:pageopacity="0.0"
     inkscape:pageshadow="2"
     inkscape:zoom="0.061871843"
     inkscape:cx="4140.8351"
     inkscape:cy="3013.912"
     inkscape:document-units="px"
     inkscape:current-layer="layer1"
     showgrid="false"
     inkscape:window-width="1366"
     inkscape:window-height="706"
     inkscape:window-x="-8"
     inkscape:window-y="-8"
     inkscape:window-maximized="1"
     fit-margin-top="0"
     fit-margin-left="0"
     fit-margin-right="0"
     fit-margin-bottom="0" />
  <metadata
     id="metadata4295">
    <rdf:RDF>
      <cc:Work
         rdf:about="">
        <dc:format>image/svg+xml</dc:format>
        <dc:type
           rdf:resource="http://purl.org/dc/dcmitype/StillImage" />
        <dc:title>Dashie don't wanna learn</dc:title>
        <dc:date>2012.09.26</dc:date>
        <dc:creator>
          <cc:Agent>
            <dc:title>Ratchet_HuN alias Pápista Roland</dc:title>
          </cc:Agent>
        </dc:creator>
        <dc:rights>
          <cc:Agent>
            <dc:title>Hasbro, Lauren Faust, Ratchet_HuN</dc:title>
          </cc:Agent>
        </dc:rights>
        <dc:publisher>
          <cc:Agent>
            <dc:title>Deviantart</dc:title>
          </cc:Agent>
        </dc:publisher>
        <cc:license
           rdf:resource="http://creativecommons.org/licenses/by-nc-sa/3.0/" />
        <dc:subject>
          <rdf:Bag>
            <rdf:li>my little pony friendship is magic rainbow dash dashie don't wanna learn want to learn</rdf:li>
          </rdf:Bag>
        </dc:subject>
      </cc:Work>
      <cc:License
         rdf:about="http://creativecommons.org/licenses/by-nc-sa/3.0/">
        <cc:permits
           rdf:resource="http://creativecommons.org/ns#Reproduction" />
        <cc:permits
           rdf:resource="http://creativecommons.org/ns#Distribution" />
        <cc:requires
           rdf:resource="http://creativecommons.org/ns#Notice" />
        <cc:requires
           rdf:resource="http://creativecommons.org/ns#Attribution" />
        <cc:prohibits
           rdf:resource="http://creativecommons.org/ns#CommercialUse" />
        <cc:permits
           rdf:resource="http://creativecommons.org/ns#DerivativeWorks" />
        <cc:requires
           rdf:resource="http://creativecommons.org/ns#ShareAlike" />
      </cc:License>
    </rdf:RDF>
  </metadata>
  <g
     inkscape:label="Layer 1"
     inkscape:groupmode="layer"
     id="layer1"
     transform="translate(3662.5369,1996.2092)"
     sodipodi:insensitive="true">
    <g
       id="g4763"
       inkscape:export-filename="C:\Users\Ratchet_HuN\Pictures\For Artworks\Vector works\Dashie don't wanna learn.png"
       inkscape:export-xdpi="90"
       inkscape:export-ydpi="90">
      <rect
         style="fill:#fce4a8;fill-opacity:1;fill-rule:evenodd;stroke:none;display:inline"
         id="rect5903"
         width="5000"
         height="7536.5024"
         x="-3003.7908"
         y="-3662.5369"
         inkscape:export-filename="C:\Users\Ratchet_HuN\Pictures\OBEY.png"
         inkscape:export-xdpi="90"
         inkscape:export-ydpi="90"
         transform="matrix(0,-1,1,0,0,0)" />
      <g
         id="g4740">
        <path
           id="path5905"
           d="m -3513.6932,-1830.8299 0,725.9688 0,1042.968754 0,2900.062546 7204.6881,0 0,-2900.062546 0,-1042.968754 0,-725.9688 -7204.6881,0 z"
           style="fill:#73959f;fill-opacity:1;fill-rule:evenodd;stroke:none;display:inline"
           inkscape:connector-curvature="0" />
        <path
           inkscape:connector-curvature="0"
           style="fill:#d71722;fill-opacity:1;fill-rule:evenodd;stroke:none;display:inline"
           d="m -3513.6932,994.17015 0,883.90625 7204.6881,0 0,-883.90625 -7204.6881,0 z"
           id="path7590" />
        <path
           inkscape:connector-curvature="0"
           style="fill:#d71722;fill-opacity:1;fill-rule:evenodd;stroke:none;display:inline"
           d="m -3513.6932,-1830.8299 0,725.9688 0,1042.968754 0,2900.062546 3602.344065,0 0,-2900.062546 0,-1042.968754 0,-725.9688 -3602.344065,0 z"
           id="path5907" />
        <path
           id="path7593"
           d="m -3513.6932,994.17015 0,883.90625 3775.22007,0 0,-883.90625 -3775.22007,0 z"
           style="fill:#73959f;fill-opacity:1;fill-rule:evenodd;stroke:none;display:inline"
           inkscape:connector-curvature="0" />
        <path
           id="path5909"
           d="m -3513.6902,2838.1672 7204.6871,0 0,-1352.343 -7204.6871,0 0,1352.343 z"
           style="fill:#02314b;fill-opacity:1;fill-rule:evenodd;stroke:none;display:inline"
           inkscape:connector-curvature="0"
           inkscape:export-filename="C:\Users\Ratchet_HuN\Pictures\OBEY.png"
           inkscape:export-xdpi="90"
           inkscape:export-ydpi="90" />
        <flowRoot
           inkscape:export-ydpi="90"
           inkscape:export-xdpi="90"
           inkscape:export-filename="C:\Users\Ratchet_HuN\Pictures\OBEY.png"
           xml:space="preserve"
           id="flowRoot5911"
           style="font-size:40px;font-style:normal;font-weight:bold;line-height:125%;letter-spacing:0px;word-spacing:0px;fill:#73959f;fill-opacity:1;stroke:none;display:inline;font-family:Sans;-inkscape-font-specification:Sans Bold"
           transform="matrix(15.027276,0,0,30.332657,77225.337,-67802.294)"><flowRegion
             id="flowRegion5913"><rect
               id="rect5915"
               width="10250.22"
               height="4910.1494"
               x="-5362.6978"
               y="2288.1194"
               style="font-weight:bold;fill:#73959f;fill-opacity:1;-inkscape-font-specification:Sans Bold" /></flowRegion><flowPara
             id="flowPara5917">I DON'T WANNA LEARN</flowPara></flowRoot>      </g>
      <g
         id="g4658">
        <path
           inkscape:connector-curvature="0"
           id="path5921"
           d="m -990.01113,-61.419846 192.196,631.494696 1545.397,-101.9805 137.2799,-407.922096 -98.057,-384.388104 z"
           style="color:#000000;fill:#ffffff;fill-opacity:1;stroke:none;stroke-width:26;marker:none;visibility:visible;display:inline;overflow:visible;enable-background:accumulate" />
        <path
           style="color:#000000;fill:#b1e5fb;fill-opacity:1;fill-rule:nonzero;stroke:none;stroke-width:1.14377427px;marker:none;visibility:visible;display:inline;overflow:visible;enable-background:accumulate"
           d="m 927.50177,366.40625 256.67903,-56.0028 1743.821,59.206 c 0,0 407.8791,-18.8945 518.713,119.6815 75.48,94.3716 38.629,247.4016 1.891,362.5255 -36.673,114.9258 -124.684,209.80725 -211.164,293.91475 -61.261,59.58 -212.285,143.7357 -212.285,143.7357 l -791.105,-41.5594 -1171.211,-148.7971 z"
           id="path5923"
           inkscape:connector-curvature="0"
           sodipodi:nodetypes="cccaaacccc" />
        <path
           style="color:#000000;fill:#b1e5fb;fill-opacity:1;fill-rule:nonzero;stroke:none;stroke-width:1.14377427px;marker:none;visibility:visible;display:inline;overflow:visible;enable-background:accumulate"
           d="m -2444.9221,1581.2393 1999.79997,-755.70005 -419.4691,-441.632 -1230.53197,-86.368 -613.798,46.1999 -325.781,106.6715 -158.672,205.3439 -37.336,382.68615 102.671,289.348 186.675,214.6777 233.346,51.3359 z"
           id="path5925"
           inkscape:connector-curvature="0"
           sodipodi:nodetypes="cccccccccccc" />
        <path
           style="color:#000000;fill:#0093d0;fill-opacity:1;fill-rule:nonzero;stroke:none;stroke-width:1.14377427px;marker:none;visibility:visible;display:inline;overflow:visible;enable-background:accumulate"
           d="m 732.97677,828.83925 348.14903,-56.0999 -90.74903,-359.7002 z"
           id="path5927"
           inkscape:connector-curvature="0" />
        <path
           style="color:#000000;fill:none;stroke:#6caedf;stroke-width:65.26752472;stroke-linecap:butt;stroke-linejoin:miter;stroke-miterlimit:4;stroke-opacity:1;stroke-dasharray:none;stroke-dashoffset:0;marker:none;visibility:visible;display:inline;overflow:visible;enable-background:accumulate"
           d="m -878.59123,380.40715 c -499.35997,-70.0037 -1159.71597,-95.6787 -1736.08897,-42.0021 -333.442,31.053 -712.982,135.7707 -602.03,700.03545 83.116,422.7046 466.69,756.0389 919.3811,485.3582"
           id="path5929"
           inkscape:connector-curvature="0"
           sodipodi:nodetypes="cssc" />
        <path
           style="color:#000000;fill:none;stroke:#6caedf;stroke-width:65.26752472;stroke-linecap:butt;stroke-linejoin:miter;stroke-miterlimit:4;stroke-opacity:1;stroke-dasharray:none;stroke-dashoffset:0;marker:none;visibility:visible;display:inline;overflow:visible;enable-background:accumulate"
           d="m 2266.9118,1195.9109 750.714,99.174 c 143.481,18.9547 665.993,-573.66645 447.957,-820.70805 -49.26,-55.811 -136.317,-62.9832 -274.076,-76.5699 -395.941,-39.049 -1028.162,-84.2764 -1549.969,-50.0682 -244.657,16.0393 -578.835,-150.0043 -882.04503,130.6734"
           id="path5931"
           inkscape:connector-curvature="0"
           sodipodi:nodetypes="cssssc" />
        <path
           sodipodi:nodetypes="ccaccccaccscccc"
           inkscape:connector-curvature="0"
           id="path5933"
           d="m -2278.4322,1576.0892 -211.04,89.3001 c 0,0 -11.788,20.857 -6.06,28.8352 9.585,13.3499 48.959,5.8148 48.959,5.8148 l 1346.401,-193.05 c 168.30197,117.9901 318.35497,93.0308 460.34897,4.95 l 1427.251,230.9998 c 0,0 42.722,6.6993 64.2,5.9374 22.332,-0.792 66.149,-10.8874 66.149,-10.8874 L 2510.0278,1320.5393 c 0,0 44.515,-13.3093 47.026,-37.125 4.177,-39.6495 -25.575,-45.375 -25.575,-45.375 l -221.101,-37.95 -4001.2489,8.6078 z"
           style="color:#000000;fill:#062d45;fill-opacity:1;stroke:none;stroke-width:20;marker:none;visibility:visible;display:inline;overflow:visible;enable-background:accumulate" />
        <path
           style="color:#000000;fill:none;stroke:#052334;stroke-width:50.20579147;stroke-linecap:butt;stroke-linejoin:miter;stroke-miterlimit:4;stroke-opacity:1;stroke-dasharray:none;stroke-dashoffset:0;marker:none;visibility:visible;display:inline;overflow:visible;enable-background:accumulate"
           d="m -2278.4322,1576.0892 -211.04,89.3001 c 0,0 -11.788,20.857 -6.06,28.8352 9.585,13.3499 48.959,5.8148 48.959,5.8148 l 1346.401,-193.05 c 168.30197,117.9901 318.35497,93.0308 460.34897,4.95 l 1427.251,230.9998 c 0,0 42.722,6.6993 64.2,5.9374 22.332,-0.792 66.149,-10.8874 66.149,-10.8874 L 2510.0278,1320.5393 c 0,0 44.515,-13.3093 47.026,-37.125 4.177,-39.6495 -25.575,-45.375 -25.575,-45.375 l -221.101,-37.95"
           id="path5935"
           inkscape:connector-curvature="0"
           sodipodi:nodetypes="ccaccccaccscc" />
        <path
           sodipodi:nodetypes="caaaac"
           inkscape:connector-curvature="0"
           id="path5937"
           d="m -930.85113,-60.360546 c -187.26997,-52.028504 -336.10497,-244.187404 -403.57907,-428.408204 -84.612,-231.0089 -56.18,-510.29771 39.374,-736.99875 13.8641,-32.8888 37.7931,-70.6322 72.547,-78.7492 27.714,-6.472 58.186,12.017 79.675,30.6735 138.309,120.0728 231.79697,354.74705 267.48597,479.97535"
           style="color:#000000;fill:#b1e5fb;fill-opacity:1;stroke:none;stroke-width:26;marker:none;visibility:visible;display:inline;overflow:visible;enable-background:accumulate" />
        <path
           id="path5939"
           d="m -900.63413,-8.875746 c 20.782,232.908696 188.703,421.718596 375.062,421.718596 186.359,0 320.589,-188.8099 299.807,-421.718596 -20.781,-232.908604 -188.701,-421.718604 -375.063,-421.718604 -186.359,0 -320.589,188.81 -299.806,421.718604 z"
           style="fill:#c51c71;fill-opacity:1;stroke:none;display:inline"
           inkscape:connector-curvature="0" />
        <path
           inkscape:connector-curvature="0"
           style="fill:url(#linearGradient4276);fill-opacity:1;stroke:none;display:inline"
           d="m -900.63413,-8.875746 c 20.782,232.908696 188.703,421.718596 375.062,421.718596 186.359,0 320.589,-188.8099 299.807,-421.718596 -20.781,-232.908604 -188.701,-421.718604 -375.063,-421.718604 -186.359,0 -320.589,188.81 -299.806,421.718604 z"
           id="path5941" />
        <g
           style="display:inline"
           clip-path="url(#clipPath4074)"
           id="g5943"
           transform="matrix(-2.3129473,0.97561681,0.97561681,2.3129473,756.16377,-6818.8663)">
          <path
             style="color:#000000;fill:#d9559f;fill-opacity:1;stroke:none;stroke-width:26;marker:none;visibility:visible;display:inline;overflow:visible;enable-background:accumulate"
             d="m 1617.3084,2367.8331 70.0023,14.6626 -28.9227,44.0971 -50.4556,-43.7388"
             id="path5945"
             inkscape:connector-curvature="0"
             sodipodi:nodetypes="cccc" />
          <path
             sodipodi:nodetypes="cccc"
             inkscape:connector-curvature="0"
             id="path5947"
             d="m 1594.1299,2394.2772 30.2543,64.8072 34.1846,-35.7798 -51.9548,-41.5846"
             style="color:#000000;fill:#f7b9d4;fill-opacity:1;stroke:none;stroke-width:26;marker:none;visibility:visible;display:inline;overflow:visible;enable-background:accumulate" />
        </g>
        <path
           id="path5949"
           d="m -618.33723,-310.81915 c 134.152,0 261.4891,141.7501 284.391,316.630604 22.9011,174.880396 -67.304,316.671496 -201.4589,316.671496 -134.152,0 -261.444,-141.7911 -284.3451,-316.671496 -22.9019,-174.880504 67.2581,-316.630604 201.413,-316.630604 z"
           style="fill:#000000;fill-opacity:1;stroke:none;display:inline"
           inkscape:connector-curvature="0" />
        <path
           transform="matrix(2.1948764,0.60975311,-0.48407875,1.6874391,-2795.6272,-4885.7293)"
           d="m 1642.5238,2314.592 a 52.055084,44.618645 0 1 1 -104.1101,0 52.055084,44.618645 0 1 1 104.1101,0 z"
           sodipodi:ry="44.618645"
           sodipodi:rx="52.055084"
           sodipodi:cy="2314.592"
           sodipodi:cx="1590.4688"
           id="path5951"
           style="fill:#ffffff;fill-opacity:1;fill-rule:nonzero;stroke:none;display:inline"
           sodipodi:type="arc" />
        <path
           style="fill:#c51c71;fill-opacity:1;stroke:none;display:inline"
           d="m 770.83477,-121.07585 c 18.061,249.9555 -129.431,452.5846 -329.431,452.5846 -200,0 -376.772005,-202.6291 -394.833005,-452.5846 -18.059,-249.9556 129.430005,-452.5846 329.430005,-452.5846 200,0 376.772,202.629 394.834,452.5846 z"
           id="path5953"
           inkscape:connector-curvature="0" />
        <path
           id="path5955"
           d="m 770.83477,-121.07585 c 18.061,249.9555 -129.431,452.5846 -329.431,452.5846 -200,0 -376.772005,-202.6291 -394.833005,-452.5846 -18.059,-249.9556 129.430005,-452.5846 329.430005,-452.5846 200,0 376.772,202.629 394.834,452.5846 z"
           style="fill:url(#linearGradient4267);fill-opacity:1;stroke:none;display:inline"
           inkscape:connector-curvature="0" />
        <path
           style="color:#000000;fill:#7ac142;fill-opacity:1;fill-rule:nonzero;stroke:none;stroke-width:1.14377427px;marker:none;visibility:visible;display:inline;overflow:visible;enable-background:accumulate"
           d="m 975.52887,380.03915 c 14.9029,160.0448 -36.962,317.3995 -142.392,430.8159 l -380.66,186.2841 -46.199,-16.4999 272.251,-333.2999 148.498,-326.7002 33.001,-285.449996 z"
           id="path5957"
           inkscape:connector-curvature="0"
           sodipodi:nodetypes="cccccccc" />
        <path
           style="font-size:medium;font-style:normal;font-variant:normal;font-weight:normal;font-stretch:normal;text-indent:0;text-align:start;text-decoration:none;line-height:normal;letter-spacing:normal;word-spacing:normal;text-transform:none;direction:ltr;block-progression:tb;writing-mode:lr-tb;text-anchor:start;baseline-shift:baseline;color:#000000;fill:#0093d0;fill-opacity:1;stroke:none;stroke-width:26;marker:none;visibility:visible;display:inline;overflow:visible;enable-background:accumulate;font-family:Sans;-inkscape-font-specification:Sans"
           d="m 880.15487,-92.249446 -64.1681,12.1593 C 888.72487,304.62055 1081.5858,561.70105 1067.7209,1156.3844 l 65.268,1.4904 C 1147.1919,548.65735 949.89077,276.57155 880.15487,-92.249446 z"
           id="path5959"
           inkscape:connector-curvature="0" />
        <path
           sodipodi:nodetypes="cccccccccccc"
           inkscape:connector-curvature="0"
           id="path5961"
           d="m -610.12323,825.53925 c -532.45297,36.9447 -1104.35697,149.1762 -1829.38097,530.61645 l 164.531,238.2835 c 365.15,-236.9081 982.857,-235.118 1400.84997,-85.7999 401.674,-152.4923 1077.077,-340.258 1630.2,122.0999 l 1496.55103,-382.8 260.699,-250.80005 -117.15,-72.5999 194.7,-23.1002 -194.7,-64.35 176.551,-32.9997 c -795.679,-137.1254 -1399.562,-51.7685 -1978.34903,62.7"
           style="color:#000000;fill:#ffffff;fill-opacity:1;stroke:none;stroke-width:15;marker:none;visibility:visible;display:inline;overflow:visible;enable-background:accumulate" />
        <path
           style="color:#000000;fill:url(#linearGradient4261);fill-opacity:1;stroke:none;stroke-width:26;marker:none;visibility:visible;display:inline;overflow:visible;enable-background:accumulate"
           d="m -742.12213,1201.7393 c 479.842,-179.3077 1127.2809,-237.57485 1923.89803,-188.1 l 1389.303,-194.70015 c -760.101,-182.7357 -1520.2021,-74.9585 -2280.30203,108.9002 z"
           id="path5963"
           inkscape:connector-curvature="0"
           sodipodi:nodetypes="ccccc" />
        <path
           style="color:#000000;fill:url(#linearGradient4258);fill-opacity:1;stroke:none;stroke-width:26;marker:none;visibility:visible;display:inline;overflow:visible;enable-background:accumulate"
           d="m -2273.3232,1594.4392 c 686.504,-327.0852 1015.713,-167.8545 1399.19997,-82.4999 l -6.5999,-264.0001 c -467.27197,-164.3979 -957.62997,-243.6671 -1564.19897,105.6001 z"
           id="path5965"
           inkscape:connector-curvature="0"
           sodipodi:nodetypes="ccccc" />
        <path
           style="color:#000000;fill:url(#linearGradient4255);fill-opacity:1;stroke:none;stroke-width:26;marker:none;visibility:visible;display:inline;overflow:visible;enable-background:accumulate"
           d="m -2126.9881,1208.7827 c 399.392,-126.2796 816.341,-117.9322 1253.06297,42.0021 l 1113.058,-287.01475 -900.712,-137.6735 c -559.94297,56.0891 -1060.82397,171.2409 -1465.40897,382.68615 z"
           id="path5967"
           inkscape:connector-curvature="0"
           sodipodi:nodetypes="ccccc" />
        <path
           style="color:#000000;fill:#ededed;fill-opacity:1;stroke:none;stroke-width:26;marker:none;visibility:visible;display:inline;overflow:visible;enable-background:accumulate"
           d="m -32.621135,1066.4392 c 428.950005,-31.6387 807.311005,1.1108 1168.198035,56.1 434.5289,-90.1895 916.843,-161.99935 1432.201,-221.10015 l -151.8,-72.5998 -1234.202,191.40005 C 778.37477,1009.0974 376.64887,966.09835 -32.621135,1066.4392 z"
           id="path5969"
           inkscape:connector-curvature="0"
           sodipodi:nodetypes="cccccc" />
        <path
           style="color:#000000;fill:url(#linearGradient4251);fill-opacity:1;stroke:none;stroke-width:26;marker:none;visibility:visible;display:inline;overflow:visible;enable-background:accumulate"
           d="m -144.82123,1082.9393 c 380.984,-33.9564 754.1131,4.0795 1108.8,211.2 l 1537.79803,-290.4001 -115.498,-85.79995 -1257.301,211.19995 c -458.07303,-68.5643 -890.36003,-96.1707 -1273.79903,-46.1999 z"
           id="path5971"
           inkscape:connector-curvature="0"
           sodipodi:nodetypes="cccccc" />
        <g
           style="display:inline"
           id="g5973"
           clip-path="url(#clipPath4056)"
           transform="matrix(2.5102895,0,0,2.5102895,-3454.7232,-5840.5769)">
          <path
             sodipodi:nodetypes="cccc"
             inkscape:connector-curvature="0"
             id="path5975"
             d="m 1617.3084,2367.8331 70.0023,14.6626 -28.9227,44.0971 -50.4556,-43.7388"
             style="color:#000000;fill:#d9559f;fill-opacity:1;stroke:none;stroke-width:26;marker:none;visibility:visible;display:inline;overflow:visible;enable-background:accumulate" />
          <path
             style="color:#000000;fill:#f7b9d4;fill-opacity:1;stroke:none;stroke-width:26;marker:none;visibility:visible;display:inline;overflow:visible;enable-background:accumulate"
             d="m 1594.1299,2394.2772 30.2543,64.8072 34.1846,-35.7798 -51.9548,-41.5846"
             id="path5977"
             inkscape:connector-curvature="0"
             sodipodi:nodetypes="cccc" />
        </g>
        <path
           style="fill:#000000;fill-opacity:1;stroke:none;display:inline"
           d="m 419.09287,-445.11915 c -143.9731,0 -256.065,152.1253 -250.336,339.8054 5.7279,187.680004 127.108,339.849 271.0809,339.849 143.9721,0 256.0091,-152.168996 250.281,-339.849 -5.729,-187.6801 -127.054,-339.8054 -271.026,-339.8054 z"
           id="path5979"
           inkscape:connector-curvature="0" />
        <path
           sodipodi:type="arc"
           style="fill:#ffffff;fill-opacity:1;fill-rule:nonzero;stroke:none;display:inline"
           id="path5981"
           sodipodi:cx="1590.4688"
           sodipodi:cy="2314.592"
           sodipodi:rx="52.055084"
           sodipodi:ry="44.618645"
           d="m 1642.5238,2314.592 a 52.055084,44.618645 0 1 1 -104.1101,0 52.055084,44.618645 0 1 1 104.1101,0 z"
           transform="matrix(2.4812767,0.70047261,-0.54724422,1.9384974,-2090.9482,-5732.4176)" />
        <path
           style="color:#000000;fill:#b1e5fb;fill-opacity:1;stroke:none;stroke-width:26;marker:none;visibility:visible;display:inline;overflow:visible;enable-background:accumulate"
           d="m 531.92977,-1665.6517 c -4.4229,-0.03 -8.8839,0.3652 -13.257,1.2551 -27.886,5.677 -47.871,35.1903 -59.619,61.11 -75.6199,166.82 -62.7089,419.092 -42.911,547.7921 -861.132,3.4493 -1123,500.43225 -1401.7609,983.484454 5.187,43.3409 12.1349,85.7495 20.633,127.2401 0.2,-4.0913 0.524,-8.1529 0.941,-12.1591 220.765,-64.9121 445.955,-89.7567 672.913,-98.9212 19.944,55.55290005 33.623,116.6501 39.382,181.368396 10.176,114.3683 -5.787,222.8419 -41.184,313.3158 -96.704,-74.4773 -198.383,-131.6775 -321.24,-114.6106 -86.5571,46.5747 -150.762,107.9779 -174.387,196.5088 -19.655,-40.3831 -44.452,-86.3929 -69.188,-134.7715 21.43,47.4704 44.813,93.1423 69.816,136.8894 -23.961,92.3834 -0.871,187.3283 91.156,249.8524 224.116,152.2671 588.316,219.3912 839.0639,191.4095 507.6131,-56.6479 842.3081,-696.0804 641.849,-1381.0515 136.948,-120.4503 192.022,-357.16 176.506,-552.7344 -19.4579,-245.24605 -161.721,-487.20075 -343.127,-653.38115 -23.0269,-21.0955 -54.619,-42.3815 -85.586,-42.5966 z m 274.0941,1448.04495 c 9.7119,37.9068 16.558,77.7858 20.238,119.160104 25.547,287.126196 -113.7571,537.061196 -311.196,558.304196 -197.442,21.2426 -378.218,-194.3004 -403.765,-481.426596 -1.245,-13.9948 -2.114,-27.8589 -2.588,-41.6549 l 697.311,-154.382804 z"
           id="path5983"
           inkscape:connector-curvature="0" />
        <path
           sodipodi:type="arc"
           style="fill:#ffffff;fill-opacity:1;fill-rule:nonzero;stroke:none;display:inline"
           id="path5985"
           sodipodi:cx="1590.4688"
           sodipodi:cy="2314.592"
           sodipodi:rx="52.055084"
           sodipodi:ry="44.618645"
           d="m 1642.5238,2314.592 a 52.055084,44.618645 0 1 1 -104.1101,0 52.055084,44.618645 0 1 1 104.1101,0 z"
           transform="matrix(1.1167766,0.55591059,-0.44133355,0.85858709,-1311.9881,-2766.6306)" />
        <path
           sodipodi:nodetypes="cc"
           inkscape:connector-curvature="0"
           id="path5987"
           d="m -985.59513,-72.005946 c 26.817,224.145696 100.043,423.984596 203.165,588.172096"
           style="color:#000000;fill:none;stroke:#6caedf;stroke-width:65.26752472;stroke-linecap:butt;stroke-linejoin:miter;stroke-miterlimit:4;stroke-opacity:1;stroke-dasharray:none;stroke-dashoffset:0;marker:none;visibility:visible;display:inline;overflow:visible;enable-background:accumulate" />
        <path
           sodipodi:nodetypes="casccssc"
           inkscape:connector-curvature="0"
           id="path4288"
           d="m -388.07423,-353.43575 c 0,0 26.284,37.4317 23.2041,58.0378 -2.4501,16.3968 -4.695,22.5527 -31.1631,38.7644 -87.1049,53.3529 -391.395,168.100404 -667.84397,212.580104 l -4.1169,38.5767 c 261.92897,-41.6302 608.67387,-151.102404 743.98497,-230.170704 26.466,-15.4643 22.54,-36.716 14.933,-53.6481 -14.097,-31.3783 -53.055,-65.1702 -78.998,-64.1402 z"
           style="color:#000000;fill:#000000;fill-opacity:1;stroke:none;stroke-width:26;marker:none;visibility:visible;display:inline;overflow:visible;enable-background:accumulate" />
        <g
           style="display:inline"
           id="g5989"
           transform="matrix(-2.3801738,0.79770039,0.79770039,2.3801738,1319.2448,-6634.2694)">
          <path
             id="path5991"
             d="m 1775.9375,2220.125 c -7.3839,-0.085 -22.9642,3.4984 -42.4375,10.2812 l -36.625,12.7813 c 0.9642,7.5579 1.7847,15.0804 2.4375,22.5625 l 43,-20 c 37.6801,-17.5092 44.4169,-25.5012 33.625,-25.625 z m -76.4375,47.6562 c 0.5688,6.8036 0.9959,13.5804 1.3125,20.3126 l 39,-3.3438 c 65.5707,-5.6264 44.9184,-15.6494 -2.8125,-16.4062 l -37.5,-0.5626 z"
             style="color:#000000;fill:#000000;fill-opacity:1;fill-rule:nonzero;stroke:none;stroke-width:1px;marker:none;visibility:visible;display:inline;overflow:visible;enable-background:accumulate"
             inkscape:connector-curvature="0" />
        </g>
        <path
           style="color:#000000;fill:none;stroke:#6caedf;stroke-width:65.26752472;stroke-linecap:butt;stroke-linejoin:miter;stroke-miterlimit:4;stroke-opacity:1;stroke-dasharray:none;stroke-dashoffset:0;marker:none;visibility:visible;display:inline;overflow:visible;enable-background:accumulate"
           d="m -930.85113,-60.360546 c -187.26997,-52.028504 -336.10497,-244.187404 -403.57907,-428.408204 -84.612,-231.0089 -56.18,-510.29771 39.374,-736.99875 13.8641,-32.8888 37.7931,-70.6322 72.547,-78.7492 27.714,-6.472 58.186,12.017 79.675,30.6735 138.309,120.0728 231.79697,354.74705 267.48597,479.97535"
           id="path5993"
           inkscape:connector-curvature="0"
           sodipodi:nodetypes="caaaac" />
        <path
           sodipodi:nodetypes="ccc"
           inkscape:connector-curvature="0"
           id="path5995"
           d="m -151.42313,353.59455 c 84.703995,-42.0301 172.694995,-54.4949 264.002,-37.125 -68.215005,-66.1117 -211.951005,-43.8808 -264.002,37.125 z"
           style="color:#000000;fill:#6caedf;fill-opacity:1;fill-rule:nonzero;stroke:none;stroke-width:1px;marker:none;visibility:visible;display:inline;overflow:visible;enable-background:accumulate" />
        <path
           sodipodi:nodetypes="ccc"
           inkscape:connector-curvature="0"
           id="path5997"
           d="m -154.13213,517.55935 c 14.864,49.3312 26.049,60.635 85.171995,74.6703 -79.314995,36.0227 -108.833995,-5.3836 -85.171995,-74.6703 z"
           style="color:#000000;fill:#6caedf;fill-opacity:1;fill-rule:nonzero;stroke:none;stroke-width:1px;marker:none;visibility:visible;display:inline;overflow:visible;enable-background:accumulate" />
        <path
           style="color:#000000;fill:#6caedf;fill-opacity:1;fill-rule:nonzero;stroke:none;stroke-width:1px;marker:none;visibility:visible;display:inline;overflow:visible;enable-background:accumulate"
           d="m 150.41587,466.77295 c 4.3129,51.3409 -1.9371,65.9656 -51.759005,100.7515 87.004005,4.3443 99.234005,-45.0143 51.759005,-100.7515 z"
           id="path5999"
           inkscape:connector-curvature="0"
           sodipodi:nodetypes="ccc" />
        <path
           style="color:#000000;fill:#6caedf;fill-opacity:1;fill-rule:nonzero;stroke:none;stroke-width:1px;marker:none;visibility:visible;display:inline;overflow:visible;enable-background:accumulate"
           d="m 15.959765,824.77185 c 124.573005,1.8257 213.403005,-126.8103 341.550005,-180.7617 47.841,-20.1423 110.88,-26.7416 119.626,62.0797 -50.327,-49.2988 -73.657,-41.0502 -116.327,-21.9108 -110.619,49.6181 -242.549,195.3691 -344.849005,140.5928 z"
           id="path6001"
           inkscape:connector-curvature="0"
           sodipodi:nodetypes="cscsc" />
        <path
           style="color:#000000;fill:#6caedf;fill-opacity:1;fill-rule:nonzero;stroke:none;stroke-width:1px;marker:none;visibility:visible;display:inline;overflow:visible;enable-background:accumulate"
           d="m 665.12377,-1339.3605 c 101.478,204.0804 125.017,405.40215 75.898,623.69995 97.4321,-230.912 107.333,-445.41245 -75.898,-623.69995 z"
           id="path6003"
           inkscape:connector-curvature="0"
           sodipodi:nodetypes="ccc" />
        <path
           style="color:#000000;fill:#f37736;fill-opacity:1;stroke:none;stroke-width:26;marker:none;visibility:visible;display:inline;overflow:visible;enable-background:accumulate"
           d="m 431.22187,-1137.7572 c -166.341,379.89445 -446.354005,667.91605 -743.351,721.09025 109.395,-117.8283 212.776995,-251.6877 278.247995,-404.6537 -522.561995,237.5728 -927.993995,636.7093 -1118.896965,1218.0635 -108.585,-331.099896 -97.966,-662.2 -13.199,-993.2999 -92.6851,92.9296 -175.3081,225.7822 -230.999,372.9 3.949,-392.3633 102.4419,-846.78625 590.69897,-1270.50025 -181.085,50.327 -318.73907,128.1219 -465.29997,207.8999 573.43797,-730.8916 1221.724965,-297.8508 1689.59997,-62.7"
           id="path6009"
           inkscape:connector-curvature="0"
           sodipodi:nodetypes="ccccccccc" />
        <path
           style="color:#000000;fill:#e23956;fill-opacity:1;fill-rule:nonzero;stroke:none;stroke-width:1.14377427px;marker:none;visibility:visible;display:inline;overflow:visible;enable-background:accumulate"
           d="m -1347.6141,-606.64315 c 211.69,-407.59725 714.32597,-910.65275 1126.89197,-1029.61785 l -336.6,-72.5998 -254.102,72.6 -214.49897,105.5999 -174.899,174.9001 359.69897,-132 c -299.51697,279.185 -444.04997,575.59075 -506.49097,881.11765 z"
           id="path6011"
           inkscape:connector-curvature="0"
           sodipodi:nodetypes="cccccccc" />
        <path
           id="path6013"
           d="m -251.76013,125.54125 c 7.705,86.5869 0.415,169.796 -18.945,244.3727 3.334,-171.5608 -33.582,-344.816696 -62.483,-396.498496 -137.343,-9.3644 -401.119,12.985 -581.331,77.5499 -10.307,3.6933 -69.018,27.325 -78.74,31.2967 l 37.446,-73.4945 c 181.499,-66 461.406,-100.5519 655.454,-88.8527 6.851,16.953 13.101,34.4809 18.699,52.5251 14.831,47.7796 25.103,99.178 29.9,153.101296 z"
           style="fill:#000000;fill-opacity:1;fill-rule:nonzero;stroke:none;display:inline"
           inkscape:connector-curvature="0"
           sodipodi:nodetypes="sccscccss" />
        <path
           style="color:#000000;fill:#fbffbf;fill-opacity:1;fill-rule:nonzero;stroke:none;stroke-width:1.14377427px;marker:none;visibility:visible;display:inline;overflow:visible;enable-background:accumulate"
           d="m -548.94013,-515.30705 c 37.848,-430.0518 279.8869,-903.92815 519.629995,-1057.55155 l 450.451005,217.1772 -11.665,261.3464 -189.01,329.01695 -275.349005,249.6794 -217.011995,79.3374 235.681995,-378.0192 z"
           id="path6015"
           inkscape:connector-curvature="0"
           sodipodi:nodetypes="ccccccccc" />
        <path
           style="font-size:medium;font-style:normal;font-variant:normal;font-weight:normal;font-stretch:normal;text-indent:0;text-align:start;text-decoration:none;line-height:normal;letter-spacing:normal;word-spacing:normal;text-transform:none;direction:ltr;block-progression:tb;writing-mode:lr-tb;text-anchor:start;baseline-shift:baseline;color:#000000;fill:#0093d0;fill-opacity:1;stroke:none;stroke-width:26;marker:none;visibility:visible;display:inline;overflow:visible;enable-background:accumulate;font-family:Sans;-inkscape-font-specification:Sans"
           d="m -553.29813,-1724.3298 c -249.4851,5.0636 -506.46297,115.2201 -743.98707,417.9632 l -97.588,124.3377 138.9301,-75.5439 c 105.0659,-57.1917 204.162,-112.1914 316.68787,-156.9717 -399.31197,400.2533 -486.68997,824.93335 -490.36997,1190.58345 l -1.805,183.564904 64.9541,-171.719604 c 36.2959,-95.879 84.679,-185.217 139.165,-260.6778 -56.946,292.1932 -52.7581,586.0806 43.539,879.6996 l 30.984,94.528 30.987,-94.528 c 177.62597,-540.9225 542.49897,-920.0224 1017.21697,-1158.0279 -61.903,114.3805 -144.218,218.2099 -231.496,312.2172 l -66.365,71.5433 96.097,-17.1797 c 292.814995,-52.4259 560.264,-315.0945 732.259,-664.42775 l -24.594,-101.9167 c -143.307,327.28975 -372.815005,581.95965 -616.276,673.46375 82.983,-98.7837 158.597995,-208.3819 211.100995,-331.0444 l 33.103,-77.4269 -76.642,34.8303 c -500.114995,227.3669 -896.488995,603.1663 -1102.172965,1141.711 -75.562,-292.360096 -60.171,-584.6828 15.218,-879.1503 l 29.574,-115.6305 -84.329,84.5656 c -62.159,62.3235 -119.005,140.8898 -167.014,229.064 30.377,-344.3006 158.045,-720.45065 571.24897,-1079.03245 l 109.275,-94.8417 -139.399,38.7523 c -117.085,32.5399 -216.26097,76.3101 -310.33397,124.181 242.77497,-239.4587 489.94597,-284.6675 733.00397,-246.1652 283.425,44.8967 559.968,209.3591 795.684,327.828 l 29.338,-58.3643 c -232.159,-116.6817 -513.698005,-286.2583 -814.745,-333.9468 -56.446,-8.9416 -113.675,-13.4062 -171.249,-12.2377 z"
           id="path6017"
           inkscape:connector-curvature="0"
           sodipodi:nodetypes="sccccccccccccccccccccccccccccccsccss" />
        <path
           style="font-size:medium;font-style:normal;font-variant:normal;font-weight:normal;font-stretch:normal;text-indent:0;text-align:start;text-decoration:none;line-height:normal;letter-spacing:normal;word-spacing:normal;text-transform:none;direction:ltr;block-progression:tb;writing-mode:lr-tb;text-anchor:start;baseline-shift:baseline;color:#000000;fill:#6caedf;fill-opacity:1;stroke:none;stroke-width:26;marker:none;visibility:visible;display:inline;overflow:visible;enable-background:accumulate;font-family:Sans;-inkscape-font-specification:Sans"
           d="m 918.73577,-550.35775 c 64.085,-128.8142 85.33503,-284.8393 74.46,-421.9048 -20.316,-256.06745 -166.864,-503.78025 -353.6369,-674.87585 -25.9341,-23.7576 -62.9151,-52.0152 -107.707,-51.3826 -6.398,0.09 -12.98,0.8307 -19.69,2.1965 -46.564,9.4799 -69.191,49.516 -82.84,79.6234 -49.771,109.7991 -61.6,247.5346 -61.6,368.3711 0,183.8908 79.963,282.71265 79.963,282.71265 0,0 -13.41,-133.06545 -13.41,-285.06125 0,-115.2433 11.881,-245.073 54.511,-339.1152 9.85,-21.7318 27.191,-40.7222 36.399,-42.5966 16.269,-3.3123 47.291,12.3526 70.288,33.4182 176.042,161.2658 314.093,397.4622 332.691,631.88685 9.926,125.1065 -11.482,268.2355 -67.283,383.7602 -62.353,129.095 -111.65,190.0345 -111.65,190.0345 0,0 99.066,-15.481 169.505,-157.0671 z"
           id="path6019"
           inkscape:connector-curvature="0"
           sodipodi:nodetypes="sssscsscsssssscs" />
        <path
           style="font-size:medium;font-style:normal;font-variant:normal;font-weight:normal;font-stretch:normal;text-indent:0;text-align:start;text-decoration:none;line-height:normal;letter-spacing:normal;word-spacing:normal;text-transform:none;direction:ltr;block-progression:tb;writing-mode:lr-tb;text-anchor:start;baseline-shift:baseline;color:#000000;fill:#dcdcdc;fill-opacity:1;stroke:none;stroke-width:15;marker:none;visibility:visible;display:inline;overflow:visible;enable-background:accumulate;font-family:Sans;-inkscape-font-specification:Sans"
           d="m 1751.3028,711.59245 c -380.396,1.218 -773.27203,50.1357 -1178.10903,145.2047 l 8.628,36.6344 c 666.92903,-156.6162 1299.67003,-186.7814 1897.15213,-84.7223 -28.979,2.9541 -57.9531,5.9722 -86.9191,9.0998 l -5.0989,0.549 c -403.571,43.7225 -805.589,104.1881 -1206.036,182.46695 -720.49013,-75.56405 -1462.33403,9.4317 -1999.68103,207.8048 -21.122,6.9387 -42.1681,14.1061 -63.1491,21.4943 -275.00987,-113.3332 -642.59397,-175.8159 -1022.08187,-99.6271 484.556,-189.92375 900.3129,-258.77695 1295.15387,-286.17305 l -2.588,-37.576 c -485.57597,33.6921 -1005.65197,130.9001 -1642.51487,435.61385 -36.57,16.344 -73.03,34.2338 -109.2761,53.736 -28.251,14.2796 -56.318,28.2727 -85.036,43.3808 l -18.827,9.8843 12.08,17.4935 164.5041,238.2422 10.433,15.0618 15.375,-9.9626 c 356.978,-231.6078 971.7609,-231.2167 1384.26697,-83.8595 l 6.5109,2.3534 6.4341,-2.432 c 199.9599,-75.9134 467.3889,-160.2337 752.2239,-168.346 284.832,-8.1125 586.519,59.3149 859.224,287.271 l 7.453,6.1974 9.336,-2.432 1496.52403,-382.7405 4.785,-1.2552 3.609,-3.4516 260.676,-250.7938 17.653,-17.02275 -20.946,-12.6298 -80.329,-48.6369 c 48.054,-3.4807 96.462,-6.4657 145.674,-8.4722 l 61.075,-2.1988 c -22.75,-21.001 -54.485,-33.9652 -54.485,-33.9652 -43.107,-18.3005 -78.678,-31.1419 -110.061,-41.8121 43.013,-4.378 85.997,-8.7903 129.046,-12.7867 l 59.981,-5.9604 c -32.084,-23.9178 -57.943,-31.2232 -57.943,-31.2232 -280.567,-57.45 -568.851,-85.3557 -864.717,-84.4085 z m 638.4001,144.3416 c 15.8349,3.9229 53.035,13.9532 110.1389,34.752 -468.553,27.9508 -883.4389,123.32045 -1364.579,216.04155 -322.21803,-58.492 -662.92203,-85.0376 -1004.42903,-68.4054 336.926,-34.9133 695.794,-37.1073 1049.06503,0.1582 l 2.824,0.3138 2.746,-0.5493 c 399.811,-78.23395 801.267,-138.61495 1204.234,-182.30985 z m -11.374,81.5061 81.4259,49.2644 -1502.40793,290.87985 c -193.1671,-116.6074 -405.8111,-179.7741 -621.689,-206.0008 271.184,0.138 539.828,25.9832 796.54503,72.7983 l 3.452,0.6276 3.452,-0.7059 c 440.106,-84.7478 822.584,-171.07525 1239.222,-206.86345 z m 78.132,88.33065 -213.374,205.2161 -1482.72003,379.2109 c -278.432,-229.2873 -587.815,-298.0883 -876.719,-289.8601 -288.626,8.2204 -557.046,92.3633 -758.107,168.3463 -417.49397,-146.9486 -1022.31297,-150.7638 -1395.17197,80.3292 l -140.34,-203.1765 c 21.147,-12.6408 42.391,-24.6069 63.699,-36.0854 35.749,-18.0734 71.131,-35.4689 106.137,-52.2454 493.177,-220.9075 1010.746,-155.4271 1362.45997,-5.2558 483.9439,-173.1739 1248.415,-309.27555 1821.92,41.2626 l 6.276,3.7654 7.139,-1.3334 z"
           id="path6021"
           inkscape:connector-curvature="0"
           sodipodi:nodetypes="sccccccccccccccccccccccscccccccccccccccccsccccccccccccccccccccscccccccccc" />
        <path
           style="color:#000000;fill:#000000;fill-opacity:1;stroke:none;stroke-width:26;marker:none;visibility:visible;display:inline;overflow:visible;enable-background:accumulate"
           d="m 89.639765,-501.79005 c 0,0 -16.531,42.647 -8.594,61.911 6.315,15.3292 9.971,20.7664 39.557005,30.1503 97.367,30.8825 420.305,69.2287 699.346,46.0455 l 13.2581,36.4601 c -264.263,22.4642 -627.148,-0.5695 -777.485005,-44.8433 -29.403,-8.6592 -30.693,-30.232 -27.373,-48.4951 6.1519,-33.8448 35.858,-76.0002 61.291,-81.2285 z"
           id="path3333"
           inkscape:connector-curvature="0"
           sodipodi:nodetypes="casccssc" />
        <path
           style="font-size:medium;font-style:normal;font-variant:normal;font-weight:normal;font-stretch:normal;text-indent:0;text-align:start;text-decoration:none;line-height:normal;letter-spacing:normal;word-spacing:normal;text-transform:none;direction:ltr;block-progression:tb;writing-mode:lr-tb;text-anchor:start;baseline-shift:baseline;color:#000000;fill:#6caedf;fill-opacity:1;stroke:none;stroke-width:26;marker:none;visibility:visible;display:inline;overflow:visible;enable-background:accumulate;font-family:Sans;-inkscape-font-specification:Sans"
           d="m 826.54287,-434.59445 -62.331,21.3417 c 92.479,337.749204 56.301,662.2099 -63.384,907.5482 -119.689,245.3384 -321.006,410.5077 -562.15,437.418 -241.562,26.9575 -602.881,-40.5347 -817.099,-186.0752 -80.354,-54.5928 -98.782,-131.6921 -83.703,-206.2361 15.082,-74.5438 68.132,-142.3292 127.478,-165.2082 58.163,-22.4242 112.523,-21.6329 173.581,-3.4805 56.087,16.6753 124.844,55.5243 213.945,108.3242 -37.9511,-59.3999 -110.905,-132.4305 -193.215,-163.5217 -71.1111,-26.8611 -144.884,-30.3253 -217.8451,-2.1965 -85.679,33.0314 -148.64,118.0471 -167.876,213.1391 -19.239,95.092 9.645,204.4202 110.922,273.2295 234.019,158.9944 601.099,225.90775 861.029,196.9006 266.473,-29.7369 486.274,-212.6406 613.611,-473.66 127.337,-261.0197 163.465,-605.350796 67.037,-957.5231 z"
           id="path6023"
           inkscape:connector-curvature="0"
           sodipodi:nodetypes="ccsssssscssssssc" />
        <g
           style="display:inline"
           id="g6025"
           transform="matrix(2.5102895,0,0,2.5102895,-3454.7232,-5840.5769)">
          <path
             style="color:#000000;fill:#000000;fill-opacity:1;fill-rule:nonzero;stroke:none;stroke-width:1px;marker:none;visibility:visible;display:inline;overflow:visible;enable-background:accumulate"
             d="m 1775.9375,2220.125 c -7.3839,-0.085 -22.9642,3.4984 -42.4375,10.2812 l -36.625,12.7813 c 0.9642,7.5579 1.7847,15.0804 2.4375,22.5625 l 43,-20 c 37.6801,-17.5092 44.4169,-25.5012 33.625,-25.625 z m -76.4375,47.6562 c 0.5688,6.8036 0.9959,13.5804 1.3125,20.3126 l 39,-3.3438 c 65.5707,-5.6264 44.9184,-15.6494 -2.8125,-16.4062 l -37.5,-0.5626 z"
             id="path6027"
             inkscape:connector-curvature="0" />
        </g>
        <path
           id="path6029"
           d="m 815.79587,-195.30815 c -154.0081,8.167 -515.417,82.3275 -657.756,144.163704 -3.5021,64.17 6.858,189.888596 74.182,365.136396 -64.286,-85.7769 -109.1301,-203.0332 -120.9181,-335.534096 -1.9079,-21.4263 -2.897,-47.3129 -3.0099,-68.2457 137.4379,-65.702804 543.56,-146.322304 687.6009,-152.922304 l 45.127,-42.451 c 117.6681,-110.6872 146.0941,-90.1287 28.6131,33.2927 z"
           style="fill:#000000;fill-opacity:1;fill-rule:nonzero;stroke:none;display:inline"
           inkscape:connector-curvature="0"
           sodipodi:nodetypes="cccsccssc" />
        <path
           sodipodi:nodetypes="ccccc"
           inkscape:connector-curvature="0"
           id="path6031"
           d="m 833.13687,810.85505 -380.66,186.2841 -46.199,-16.4999 272.251,-333.2999 z"
           style="color:#000000;fill:#7ac142;fill-opacity:1;fill-rule:nonzero;stroke:none;stroke-width:1.14377427px;marker:none;visibility:visible;display:inline;overflow:visible;enable-background:accumulate" />
        <path
           style="font-size:medium;font-style:normal;font-variant:normal;font-weight:normal;font-stretch:normal;text-indent:0;text-align:start;text-decoration:none;line-height:normal;letter-spacing:normal;word-spacing:normal;text-transform:none;direction:ltr;block-progression:tb;writing-mode:lr-tb;text-anchor:start;baseline-shift:baseline;color:#000000;fill:#0093d0;fill-opacity:1;stroke:none;stroke-width:26;marker:none;visibility:visible;display:inline;overflow:visible;enable-background:accumulate;font-family:Sans;-inkscape-font-specification:Sans"
           d="m 826.18387,226.24355 c -46.3221,268.0841 -209.707,568.0787 -485.35,722.6496 l -96.879,54.28505 110.844,6.7466 c 68.458,4.1485 165.762,-7.2904 261.698,-36.24255 95.936,-28.952 225.419,-135.4367 279.867,-245.9866 -59.3981,69.2998 -210.174,156.7508 -298.694,183.4648 -40.6121,12.2555 -82.129,20.989 -120.8081,26.5935 233.761,-175.9886 371.997,-449.9624 413.726,-700.92 20.178,-121.3409 3.165,-210.544796 -9.567,-324.012396 -13.9769,102.6134 -31.0849,175.9686 -54.8369,313.421996 z"
           id="path6033"
           inkscape:connector-curvature="0"
           sodipodi:nodetypes="scccscscscs" />
        <path
           style="color:#000000;fill:#6caedf;fill-opacity:1;fill-rule:nonzero;stroke:none;stroke-width:1.14377427px;marker:none;visibility:visible;display:inline;overflow:visible;enable-background:accumulate"
           d="m -2795.7142,647.01825 c 255.158,58.3228 384.804,491.17255 261.409,688.12585 32.4881,-222.1219 -59.786,-541.92505 -261.409,-688.12585 z"
           id="path6035"
           inkscape:connector-curvature="0"
           sodipodi:nodetypes="ccc" />
        <path
           style="color:#000000;fill:#6caedf;fill-opacity:1;stroke:none;stroke-width:26;marker:none;visibility:visible;display:inline;overflow:visible;enable-background:accumulate"
           d="m 3289.0969,598.82295 c -163.0411,123.6064 -227.197,350.9663 -259.9361,494.59435 -21.897,-178.71455 74.3981,-467.64895 259.9361,-494.59435 z"
           id="path6037"
           inkscape:connector-curvature="0"
           sodipodi:nodetypes="ccc" />
        <path
           transform="matrix(1.2625002,0.63861936,-0.49892134,0.98632827,-413.07123,-3299.2652)"
           d="m 1642.5238,2314.592 a 52.055084,44.618645 0 1 1 -104.1101,0 52.055084,44.618645 0 1 1 104.1101,0 z"
           sodipodi:ry="44.618645"
           sodipodi:rx="52.055084"
           sodipodi:cy="2314.592"
           sodipodi:cx="1590.4688"
           id="path6039"
           style="fill:#ffffff;fill-opacity:1;fill-rule:nonzero;stroke:none;display:inline"
           sodipodi:type="arc" />
        <path
           style="color:#000000;fill:#dcdcdc;fill-opacity:1;stroke:none;stroke-width:26;marker:none;visibility:visible;display:inline;overflow:visible;enable-background:accumulate"
           d="m 919.42877,1363.4393 c -37.281,86.9371 -86.711,150.2391 -136.952,211.2 38.832,-76.9547 84.848,-147.4868 136.952,-211.2 z"
           id="path6041"
           inkscape:connector-curvature="0"
           sodipodi:nodetypes="ccc" />
        <path
           sodipodi:nodetypes="ccc"
           inkscape:connector-curvature="0"
           id="path6043"
           d="m -879.28723,1285.8355 c 26.09,68.1692 16.777,131.1805 3.444,193.6063 -13.322,-64.4504 -16.7429,-128.9701 -3.444,-193.6063 z"
           style="color:#000000;fill:#dcdcdc;fill-opacity:1;stroke:none;stroke-width:26;marker:none;visibility:visible;display:inline;overflow:visible;enable-background:accumulate" />
        <path
           style="color:#000000;fill:#dcdcdc;fill-opacity:1;fill-rule:evenodd;stroke:none;stroke-width:26;marker:none;visibility:visible;display:inline;overflow:visible;enable-background:accumulate"
           d="m -741.86242,1324.4781 c 139.66978,-58.3673 285.96215,-102.2836 435.83662,-129.7355 136.74716,-25.0485 276.563497,-36.4953 416.34575,-31.4005 123.71374,4.5053 247.64661,21.8586 367.09273,56.8039 53.19083,15.5623 105.44882,34.6715 155.80375,58.0682 3e-5,0 5e-5,0 8e-5,0 46.16345,21.4489 90.74843,46.5168 132.3691,75.893 -42.06583,-28.4954 -86.96987,-52.7635 -133.4452,-73.522 -50.42776,-22.5233 -102.72603,-40.9188 -156.022,-55.9106 -118.69591,-33.3901 -242.1139,-50.1118 -366.04283,-54.4769 -138.487439,-4.8737 -277.83104,5.8726 -415.14162,29.925 -148.92932,26.0891 -295.53922,67.9618 -436.79638,124.3554 z"
           id="path6045"
           inkscape:path-effect="#path-effect4213"
           inkscape:original-d="m -742.12213,1323.8393 c 583.329,-237.1697 1186.825,-191.5984 1508.0989,29.7"
           inkscape:connector-curvature="0"
           sodipodi:nodetypes="cc" />
        <path
           style="color:#000000;fill:#dcdcdc;fill-opacity:1;fill-rule:evenodd;stroke:none;stroke-width:26;marker:none;visibility:visible;display:inline;overflow:visible;enable-background:accumulate"
           d="m -453.69387,1293.444 c 90.01565,-29.9267 183.35686,-50.4502 278.12858,-61.679 94.771717,-11.2289 190.974638,-13.1618 286.64696,-5.9483 101.71882,7.6667 202.95034,25.8177 301.41646,54.4654 102.33756,29.7743 201.65959,70.9308 295.33481,122.7854 -94.27992,-49.1434 -193.9291,-88.5803 -296.87082,-117.3809 -97.81214,-27.3657 -198.58156,-45.1627 -300.40258,-53.0513 -94.375712,-7.3092 -189.74328,-6.2361 -284.37208,3.7256 -94.6288,9.9617 -188.51822,28.8128 -279.88133,57.0831 z"
           id="path6047"
           inkscape:path-effect="#path-effect4210"
           inkscape:original-d="m -453.90313,1292.787 c 343.0129,-109.247 775.5639,-96.8131 1162.061,109.6723"
           inkscape:connector-curvature="0"
           sodipodi:nodetypes="cc" />
        <path
           style="color:#000000;fill:#dcdcdc;fill-opacity:1;fill-rule:evenodd;stroke:none;stroke-width:26;marker:none;visibility:visible;display:inline;overflow:visible;enable-background:accumulate"
           d="m 1058.3186,1370.4653 c 418.0185,-94.2401 840.1016,-185.2925 1269.398,-270.6805 -417.3869,93.1038 -841.498,182.8397 -1269.398,270.6805 z"
           id="path6049"
           inkscape:path-effect="#path-effect4207"
           inkscape:original-d="m 1058.1748,1369.7909 1269.398,-270.6805"
           inkscape:connector-curvature="0"
           sodipodi:nodetypes="cc" />
        <path
           inkscape:connector-curvature="0"
           inkscape:original-d="M 971.83577,1439.7946 2269.2358,1162.1136"
           inkscape:path-effect="#path-effect4204"
           id="path6051"
           d="m 971.98009,1440.4689 c 427.26201,-96.551 858.65671,-189.9315 1297.40001,-277.681 -426.6098,95.4096 -860.0737,187.4837 -1297.40001,277.681 z"
           style="color:#000000;fill:#dcdcdc;fill-opacity:1;fill-rule:evenodd;stroke:none;stroke-width:26;marker:none;visibility:visible;display:inline;overflow:visible;enable-background:accumulate"
           sodipodi:nodetypes="cc" />
        <path
           style="color:#000000;fill:#dcdcdc;fill-opacity:1;fill-rule:evenodd;stroke:none;stroke-width:26;marker:none;visibility:visible;display:inline;overflow:visible;enable-background:accumulate"
           d="m 913.6413,1498.8056 c 381.8231,-85.7687 767.421,-168.2819 1159.726,-245.0125 -381.2622,84.6489 -768.7433,165.8118 -1159.726,245.0125 z"
           id="path6053"
           inkscape:path-effect="#path-effect4201"
           inkscape:original-d="M 913.49877,1498.1309 2073.2248,1253.1184"
           inkscape:connector-curvature="0"
           sodipodi:nodetypes="cc" />
        <path
           style="color:#000000;fill:#dcdcdc;fill-opacity:1;fill-rule:evenodd;stroke:none;stroke-width:26;marker:none;visibility:visible;display:inline;overflow:visible;enable-background:accumulate"
           d="m -2282.902,1383.8506 c 111.3157,-59.7303 229.5945,-107.9592 353.0327,-138.8149 106.6701,-26.6602 216.9707,-40.0415 327.5428,-39.777 103.1253,0.2505 206.2524,12.1983 307.8426,32.2322 99.4742,19.6163 197.5146,46.8088 294.76554,77.1093 -97.31864,-27.9172 -195.69874,-53.5148 -295.72164,-72.0839 -100.9951,-18.749 -203.7394,-30.1838 -306.9002,-30.3671 0,0 0,0 0,0 -109.4549,-0.1988 -219.2392,12.4536 -326.2456,38.1456 -122.6117,29.4337 -241.3645,75.6688 -354.3162,133.5558 z"
           id="path6055"
           inkscape:path-effect="#path-effect4198"
           inkscape:original-d="m -2283.2211,1383.2393 c 493.312,-257.4947 894.489,-184.8369 1283.69897,-69.3001"
           inkscape:connector-curvature="0"
           sodipodi:nodetypes="cc" />
        <path
           style="color:#000000;fill:#dcdcdc;fill-opacity:1;fill-rule:evenodd;stroke:none;stroke-width:26;marker:none;visibility:visible;display:inline;overflow:visible;enable-background:accumulate"
           d="m -1875.3596,1352.8716 c 66.8999,-20.5481 136.4927,-34.0198 207.1383,-38.9481 82.1415,-5.725 165.3959,-0.042 247.1341,15.2125 -81.4193,-9.7366 -164.0352,-13.5852 -246.6913,-8.4402 -69.5978,4.3277 -139.1449,15.1785 -207.5811,32.1758 z"
           id="path6057"
           inkscape:path-effect="#path-effect4195"
           inkscape:original-d="m -1875.5402,1352.2061 c 128.429,-34.8559 273.493,-50.3012 454.553,-23.7524"
           inkscape:connector-curvature="0"
           sodipodi:nodetypes="cc" />
      </g>
    </g>
    <path
       inkscape:export-ydpi="90"
       inkscape:export-xdpi="90"
       inkscape:export-filename="C:\Users\Ratchet_HuN\Pictures\For Artworks\Vector works\Pinkie Beat by Ratchet_HuN (2).png"
       id="path4235"
       d="m 3842.8741,3051.2791 c -15.6696,121.7927 -67.1452,362.9832 -119.3235,353.0653 -5.6911,-2.9796 -5.9721,-18.5974 16.6228,-26.3938 -4.1696,-6.6234 -11.8144,-8.5654 -17.457,-6.3473 -25.2798,22.0188 -33.2086,17.7873 -43.5375,17.2691 12.45,-29.1691 8.5365,-33.5142 4.2726,-34.3975 -17.75,16.0284 -25.7751,17.4585 -36.1867,22.481 4.1175,-18.1836 0.1065,-22.5221 -8.7978,-18.5685 -15.1419,11.4666 -42.3723,49.2199 -42.7325,19.74 l 11.9056,-24.5481 c 3.4745,-8.7828 3.0822,-16.5344 4.0446,-24.6474 -5.7664,3.2544 -10.0891,7.821 -13.8372,12.9095 -9.0799,11.8277 -16.4906,28.768 -26.6996,39.5847 -4.9932,5.2907 -9.7388,9.2673 -14.5885,6.9302 -4.4331,-2.1362 -4.5152,-6.9445 -3.3543,-14.3768 1.1135,-7.13 5.1482,-17.3272 17.9291,-22.931 38.0915,-16.7014 2.4431,-21.5735 -14.5417,-11.5863 -32.939,19.3689 -67.9574,60.0206 -74.6305,41.4063 -2.1583,-6.02 1.0159,-12.04 4.6521,-18.06 4.9651,-1.7581 17.2282,-10.8296 24.3054,-20.1931 38.2848,-50.6545 48.1447,-137.7952 46.3546,-200.3953 -0.5194,-18.149 -5.6786,-34.3079 -26.3934,-44.0115 -12.6108,-4.5629 -33.5214,180.4233 -63.55,246.1627 -22.2745,12.8605 -45.7036,19.5376 -69.8773,25.9309 17.8276,8.3291 12.3689,30.3501 4.1117,32.141 -11.9918,2.6014 -23.0891,-15.0769 -9.395,-31.4558 10.5486,-13.1951 -2.8662,-15.568 -8.8421,-10.6547 -16.5519,12.1197 -35.3248,32.0433 -47.0838,27.3885 25.855,-95.8746 -38.051,-44.2595 -62.0052,-48.7421 0.4167,-1.1603 0.8184,-2.3349 1.1932,-3.5148 l -1.5775,4.0854 c 68.2207,-43.5399 121.9731,-79.4265 138.6746,-126.9022 30.9185,-87.8905 -51.0628,-89.9612 -96.8218,-75.3127 -93.954,32.0013 -146.3437,98.0444 -147.685,134.0022 73.696,-93.0144 168.4365,-134.8596 215.4383,-110.0842 30.6808,16.1726 9.1497,81.6388 -103.6592,145.9817 l -1.1197,14.834 c 4.3766,-25.5291 -0.6247,-54.7867 -17.7506,-85.9452 21.4709,94.1961 -21.5081,156.1709 -140.8548,179.9589 60.6167,5.7822 112.3046,-14.428 139.5284,-50.2453 l -1.2974,1.4521 c 21.1293,-4.1462 74.1947,-38.204 67.171,-5.7404 -7.4222,20.0735 -9.4744,19.5039 -11.7381,32.0305 -2.8662,33.8958 31.8664,34.0016 57.4737,1.7241 8.7642,53.9238 73.1591,17.6435 55.3517,-10.4115 11.9192,-4.2067 24.2003,-7.6557 35.8991,-12.3348 -12.6303,52.0333 51.0674,26.134 74.1791,12.5664 -4.2671,21.0573 23.386,36.276 47.048,11.3957 1.9622,27.109 51.212,-17.1123 46.674,-5.4235 -2.8418,17.5686 -2.4075,27.2413 1.2501,24.0141 11.1206,-7.3437 28.8411,-25.6153 30.6663,-20.1786 0.2675,8.3903 2.0934,16.4595 14.3184,15.2933 l 25.4433,-2.94 c -1.5083,9.4105 4.1759,31.495 21.5083,26.4158 87.4516,-25.6276 89.0523,-151.9923 113.5258,-232.0289 -24.5194,157.9949 0.6525,266.4939 7.7434,313.1995 -2.3283,-134.8909 3.1209,-273.9722 16.6458,-426.4326 0.4881,-15.0622 -0.9142,-29.3632 -18.5914,-37.159 z m -305.3845,90.1452 c 2.4739,-0.2843 3.4921,11.5511 2.7769,22.9995 -3.9255,62.8198 -19.836,142.1989 -49.0918,168.1322 l 38.3352,-174.3759 c 3.4806,-11.5685 6.0564,-16.5347 7.9797,-16.7558 z m -916.9701,20.0054 c -27.3729,0.126 -70.1222,6.8668 -124.9163,38.021 -70.1007,39.857 -120.249,77.1184 -143.5299,130.5979 23.2069,-33.6796 154.047,-119.4908 210.6635,-137.561 58.3422,-18.6212 113.3071,-7.9823 68.3275,51.2999 -35.0087,46.1407 -61.3703,63.5603 -90.1389,79.4329 l 1.6288,-83.1845 c -23.2145,30.1562 -17.5046,66.1792 -19.0764,102.7011 41.6845,-13.8955 89.0358,-44.158 118.7495,-83.6905 34.7028,-46.171 38.5134,-97.8943 -21.7078,-97.6168 z m 286.2416,16.2694 -36.01,110.0841 c -131.6709,15.0969 -136.2787,30.4408 -159.0695,47.0179 50.8605,-9.833 97.9727,-14.9284 147.3095,-19.3642 -9.3372,32.1953 -16.7328,64.6433 -49.8758,93.0795 l 21.5146,30.0248 26.2837,-39.4137 c 0.4015,5.1982 5.3663,23.8166 13.8594,32.9368 2.9703,3.1894 7.5588,6.1089 11.8711,5.4821 11.0969,-1.613 17.2226,-11.4176 16.5028,-11.2516 -0.7727,11.6312 3.2504,19.2802 11.411,22.7037 6.1957,2.5993 14.4658,1.2524 27.9683,-5.6164 10.6049,12.6945 21.204,16.1678 31.8089,15.2085 -4.9898,-9.4785 -17.8412,-10.8731 -15.8931,-32.4947 l 12.1516,-23.0085 c 4.4143,-8.3584 8.7351,-24.3061 8.2796,-32.8105 -5.7856,3.8347 -16.9891,13.8954 -20.267,20.8327 -6.4627,13.6774 -13.4653,26.8362 -20.3316,33.9499 -4.824,4.998 -11.2799,10.2275 -16.7436,7.6896 -5.9182,-2.7491 -5.1086,-11.6096 -2.4206,-17.9296 6.4611,-15.1915 30.0239,-24.388 33.3475,-31.6362 1.5292,-4.9155 -5.685,-8.7518 -15.1692,-6.9964 -10.4877,1.9412 -24.2153,11.5146 -28.593,22.5339 -2.951,7.4284 -5.3273,8.911 -7.2634,13.1835 -9.2014,20.3073 -29.7731,3.2778 -26.6812,-30.0852 l 20.0497,-70.7589 262.7426,-52.5665 c -65.4018,1.5963 -149.6083,12.0598 -256.6855,25.3769 5.0464,-32.1111 19.3013,-64.4312 9.9032,-106.1715 z m -147.2267,76.3636 c -9.0974,0 -16.4689,7.5582 -16.4689,16.8884 0,9.3302 7.3715,16.8884 16.4689,16.8884 9.0968,0 16.4902,-7.5582 16.4902,-16.8884 0,-9.3302 -7.3934,-16.8884 -16.4902,-16.8884 z m -274.2106,30.9574 c 8.9763,102.7631 -53.0439,157.1779 -118.3293,200.5168 81.4266,-31.1085 157.0846,-67.1267 118.3293,-200.5168 z m 260.7098,72.5495 c -4.8441,0.1325 -9.8932,1.8931 -11.7827,3.7357 -7.3269,20.7053 -13.6812,41.4106 -37.1806,62.1159 -1.3837,3.5864 -1.2012,7.179 1.9672,10.7652 2.7106,2.142 4.5243,4.6154 12.224,4.8852 l 27.3886,-24.4484 c -4.5555,5.4768 7.7124,24.3705 14.1693,15.1642 8.6462,-9.9268 12.5303,-21.4319 25.0012,-21.7957 -1.2867,2.3508 5.2324,9.7446 12.9541,14.7221 7.1543,18.7095 -10.8568,22.6735 -31.589,29.5548 8.2536,2.0351 16.0191,5.6421 40.0992,-4.8854 11.8414,-5.6606 9.7978,-15.729 10.2789,-38.8831 -29.5384,-8.5569 -18.2551,-24.9307 -21.0443,-36.9158 -15.5543,7.1135 -33.6091,17.0133 -42.928,32.4284 6.6853,-12.5433 10.1839,-28.0561 11.141,-38.3083 0,-6.3432 -5.209,-8.2851 -10.6989,-8.1348 z m -174.1237,9.2399 c -2.1518,-0.1032 -7.9253,4.5669 -19.5849,16.5127 -12.8274,15.6079 -15.7014,33.1078 -34.2854,45.4263 -4.0603,2.3442 -20.6771,4.2607 -11.185,-12.18 9.7335,-13.6255 21.2833,-23.5714 34.7049,-29.82 7.9523,-7.3914 -8.8703,-11.4691 -12.224,-12.7105 -32.297,-5.4662 -80.7439,123.5461 15.6506,59.1537 8.8951,17.6824 27.107,19.9829 65.5419,-11.2295 3.0424,46.0617 -3.6479,87.9556 -6.3663,131.5484 11.9439,-29.9145 29.1619,-40.8492 35.8324,-89.7473 l -7.1394,-64.0611 c 5.8216,-15.5101 -11.0549,-23.4286 -17.2867,-14.7884 -9.4625,14.9967 -14.4643,22.0516 -36.341,37.0484 -12.0657,7.639 -22.8756,11.7418 -24.9348,-8.82 l 7.4274,-14.5895 c 6.3514,-16.2333 14.0271,-31.559 10.1903,-31.7432 z m 91.7372,12.2021 c -8.9341,0.3446 -19.8197,6.9599 -30.8342,22.7824 l 1.755,18.2339 c 50.673,-51.7618 46.4465,18.915 3.1167,26.2058 l 2.1886,18.0822 c 68.6508,6.8982 58.824,-86.6559 23.7739,-85.3043 z"
       style="fill:#000000;fill-opacity:1;stroke:none"
       inkscape:connector-curvature="0"
       sodipodi:nodetypes="ccccccccccccsssssscssccccccccccscccccccccccccccccccccsccccccscccsscsscccsscccccccsscscccscsssscssccccccssssscccccccccccccccccccccccccccccccccccsccccs" />
    <path
       sodipodi:nodetypes="ccccccc"
       inkscape:connector-curvature="0"
       id="path5007"
       d="m 2661.9695,3627.0378 c -11.0902,-6.9848 -25.6019,-20.8104 -33.1933,-20.796 -151.0267,-21.8522 -294.3374,-45.4727 -344.7395,-90.3843 374.0535,-45.1257 719.5372,-30.0352 1079.993,-28.5382 -336.4181,9.9211 -675.234,20.5702 -998.4073,43.7354 68.1372,22.6586 158.3331,39.435 258.3543,53.5909 13.1677,4.0587 27.7571,22.9416 37.9928,42.3922 z"
       style="fill:#000000;fill-opacity:1;stroke:none" />
    <flowRoot
       xml:space="preserve"
       id="flowRoot5009"
       style="font-size:72px;font-style:normal;font-variant:normal;font-weight:bold;font-stretch:normal;line-height:125%;letter-spacing:0px;word-spacing:0px;fill:#000000;fill-opacity:1;stroke:none;font-family:Arial;-inkscape-font-specification:Arial Bold"
       transform="matrix(0.84561962,0,0,0.84561962,-9016.9984,2645.5154)"><flowRegion
         id="flowRegion5011"><rect
           id="rect5013"
           width="1219.7592"
           height="212.13203"
           x="13947.682"
           y="1047.9427"
           style="font-size:72px;font-style:normal;font-variant:normal;font-weight:bold;font-stretch:normal;font-family:Arial;-inkscape-font-specification:Arial Bold" /></flowRegion><flowPara
         id="flowPara5015">ratchet<flowSpan
   style="fill:#de0000;fill-opacity:1;stroke:#000000;stroke-width:1.67301774;stroke-miterlimit:4;stroke-opacity:1;stroke-dasharray:none"
   id="flowSpan5021">h</flowSpan><flowSpan
   style="fill:none;stroke:#000000;stroke-width:1.67301774;stroke-miterlimit:4;stroke-opacity:1;stroke-dasharray:none"
   id="flowSpan5065">u</flowSpan><flowSpan
   style="fill:#28e400;fill-opacity:1;stroke:#000000;stroke-width:1.67301774;stroke-miterlimit:4;stroke-opacity:1;stroke-dasharray:none"
   id="flowSpan5071">n</flowSpan>.deviantart.com</flowPara></flowRoot>    <g
       id="g5908"
       transform="matrix(0.05504896,0,0,0.05504896,3111.1755,3239.8517)">
      <path
         inkscape:connector-curvature="0"
         id="path5880-9"
         d="m 10667.835,3910.4301 c -555.635,0 -638.707,644.8611 -1002.645,1009.1659 l -419.9425,-419.427 c -363.451,363.8208 4.2924,866.3217 4.2924,1421.2114 l -592.6578,-22.6624 c 0,555.2618 644.0884,662.2836 1007.9649,1026.1632 l -418.9119,418.2254 c 363.8799,363.8818 866.6369,-2.575 1421.8999,-2.575 l 0,591.4552 c 555.623,0 638.704,-642.8091 1002.644,-1007.1056 l 419.939,417.3672 c 363.462,-363.8229 -4.637,-865.6265 -4.637,-1420.5245 l 592.834,-0.5164 c 0,-555.1091 -644.779,-637.9279 -1008.483,-1001.7845 l 419.77,-419.7705 c -363.903,-364.0564 -866.481,4.4634 -1421.895,4.4634 l -0.166,-593.6874 z m 468.183,973.6273 c 58.73,0 106.445,47.7193 106.445,106.4452 0,58.7257 -47.715,106.2728 -106.445,106.2728 -58.725,0 -106.269,-47.5471 -106.269,-106.2728 0,-58.7259 47.544,-106.4452 106.269,-106.4452 z m -468.358,197.6098 c 231.954,0 441.888,93.9885 593.86,246.0253 151.891,151.9534 245.854,361.8638 245.854,593.6879 0,231.7363 -93.897,441.5781 -245.682,593.5161 -151.985,152.1374 -361.99,246.1973 -594.032,246.1973 -231.886,0 -441.894,-94.0627 -593.858,-246.0253 -151.964,-151.9639 -245.853,-361.8007 -245.853,-593.6881 0,-231.7339 93.726,-441.5779 245.51,-593.5159 151.986,-152.1444 362.158,-246.1973 594.201,-246.1973 z m -930.189,266.1129 c 58.724,0 106.272,47.5471 106.272,106.2728 0,58.7259 -47.548,106.445 -106.272,106.445 -58.729,0 -106.445,-47.7191 -106.445,-106.445 0,-58.7257 47.716,-106.2728 106.445,-106.2728 z m 1861.07,935.6845 c 58.724,0 106.275,47.7203 106.275,106.445 0,58.7273 -47.551,106.2735 -106.275,106.2735 -58.731,0 -106.445,-47.5457 -106.445,-106.2735 0,-58.7247 47.714,-106.445 106.445,-106.445 z m -1398.55,462.0055 c 58.727,0 106.445,47.7193 106.445,106.445 0,58.7257 -47.718,106.2735 -106.445,106.2735 -58.725,0 -106.274,-47.5478 -106.274,-106.2735 0,-58.7257 47.548,-106.445 106.274,-106.445 z"
         style="fill:#ffffff;fill-opacity:1;fill-rule:nonzero;stroke:none" />
      <path
         inkscape:connector-curvature="0"
         style="fill:#ffffff;fill-opacity:1;fill-rule:nonzero;stroke:none"
         d="m 10667.835,3910.4301 c -555.635,0 -638.707,644.8611 -1002.645,1009.1659 l -419.9425,-419.427 c -363.451,363.8208 4.2924,866.3217 4.2924,1421.2114 l -592.6578,-22.6624 c 0,555.2618 644.0884,662.2836 1007.9649,1026.1632 l -418.9119,418.2254 c 363.8799,363.8818 866.6369,-2.575 1421.8999,-2.575 l 0,591.4552 c 555.623,0 638.704,-642.8091 1002.644,-1007.1056 l 419.939,417.3672 c 363.462,-363.8229 -4.637,-865.6265 -4.637,-1420.5245 l 592.834,-0.5164 c 0,-555.1091 -644.779,-637.9279 -1008.483,-1001.7845 l 419.77,-419.7705 c -363.903,-364.0564 -866.481,4.4634 -1421.895,4.4634 l -0.166,-593.6874 z m 468.183,973.6273 c 58.73,0 106.445,47.7193 106.445,106.4452 0,58.7257 -47.715,106.2728 -106.445,106.2728 -58.725,0 -106.269,-47.5471 -106.269,-106.2728 0,-58.7259 47.544,-106.4452 106.269,-106.4452 z m -468.358,197.6098 c 231.954,0 441.888,93.9885 593.86,246.0253 151.891,151.9534 245.854,361.8638 245.854,593.6879 0,231.7363 -93.897,441.5781 -245.682,593.5161 -151.985,152.1374 -361.99,246.1973 -594.032,246.1973 -231.886,0 -441.894,-94.0627 -593.858,-246.0253 -151.964,-151.9639 -245.853,-361.8007 -245.853,-593.6881 0,-231.7339 93.726,-441.5779 245.51,-593.5159 151.986,-152.1444 362.158,-246.1973 594.201,-246.1973 z m -930.189,266.1129 c 58.724,0 106.272,47.5471 106.272,106.2728 0,58.7259 -47.548,106.445 -106.272,106.445 -58.729,0 -106.445,-47.7191 -106.445,-106.445 0,-58.7257 47.716,-106.2728 106.445,-106.2728 z m 1861.07,935.6845 c 58.724,0 106.275,47.7203 106.275,106.445 0,58.7273 -47.551,106.2735 -106.275,106.2735 -58.731,0 -106.445,-47.5457 -106.445,-106.2735 0,-58.7247 47.714,-106.445 106.445,-106.445 z m -1398.55,462.0055 c 58.727,0 106.445,47.7193 106.445,106.445 0,58.7257 -47.718,106.2735 -106.445,106.2735 -58.725,0 -106.274,-47.5478 -106.274,-106.2735 0,-58.7257 47.548,-106.445 106.274,-106.445 z"
         id="path5882-5" />
      <path
         inkscape:connector-curvature="0"
         id="path5884-8"
         d="m 8657.0536,5909.1905 c 8.0961,546.1029 646.2289,654.1234 1007.7934,1015.6907 l -418.9119,418.2254 c 363.8799,363.8818 866.6369,-2.575 1421.8999,-2.575 l 0,591.4552 c 555.623,0 638.704,-642.8091 1002.644,-1007.1056 l 419.939,417.3672 c 363.462,-363.8229 -4.637,-865.6265 -4.637,-1420.5245 l 592.834,-0.5164 c 0,-4.0474 -0.113,-8.0212 -0.165,-12.0186 l -1171.235,0 c 0.05,4.0689 0.165,8.1079 0.165,12.1899 0,231.7363 -93.896,441.5781 -245.683,593.5161 -151.984,152.1373 -361.99,246.1973 -594.032,246.1973 -231.886,0 -441.894,-94.0627 -593.858,-246.0255 -151.962,-151.9637 -245.854,-361.8005 -245.854,-593.6879 0,-4.0802 0.114,-8.1228 0.172,-12.1899 l -578.7518,0 c 0.049,4.0716 0.1699,8.1134 0.1699,12.1899 l -318.8205,-12.1899 -273.6658,0 z m 2941.4874,374.2741 c 58.724,0 106.275,47.7203 106.275,106.445 0,58.7278 -47.551,106.2735 -106.275,106.2735 -58.731,0 -106.445,-47.5457 -106.445,-106.2735 0,-58.7247 47.714,-106.445 106.445,-106.445 z m -1398.55,462.0055 c 58.727,0 106.445,47.7193 106.445,106.445 0,58.7257 -47.718,106.2735 -106.445,106.2735 -58.725,0 -106.274,-47.5478 -106.274,-106.2735 0,-58.7257 47.548,-106.445 106.274,-106.445 z"
         style="fill:#ffffff;fill-opacity:1;fill-rule:nonzero;stroke:none" />
      <path
         inkscape:connector-curvature="0"
         id="path5886-9"
         d="m 10668.007,5128.3656 c -219.165,0 -417.518,88.9352 -561.07,232.6339 -143.361,143.507 -232.119,341.6802 -232.119,560.5524 0,219.0182 88.76,417.3663 232.291,560.8963 143.529,143.5301 341.876,232.2901 560.898,232.2901 219.162,0 417.515,-88.9391 561.067,-232.6334 143.365,-143.5075 232.118,-341.6765 232.118,-560.553 0,-218.9585 -88.831,-417.2036 -232.289,-560.7237 -143.539,-143.5999 -341.815,-232.4626 -560.896,-232.4626 z m 0.165,186.7937 c 167.558,0 319.257,67.866 429.041,177.6946 109.726,109.7693 177.521,261.4023 177.521,428.87 0,167.4028 -67.872,318.9386 -177.521,428.6986 -109.795,109.901 -261.416,177.8659 -429.041,177.8659 -167.511,0 -319.267,-67.9175 -429.044,-177.6946 -109.774,-109.7758 -177.693,-261.3577 -177.693,-428.8699 0,-167.4012 67.875,-318.9387 177.523,-428.6985 109.793,-109.904 261.588,-177.8661 429.214,-177.8661 z"
         style="fill:#ffffff;fill-opacity:1;fill-rule:nonzero;stroke:none" />
      <path
         inkscape:connector-curvature="0"
         id="path5888-0"
         d="m 10669.786,5358.769 c -155.406,0 -296.058,63.0632 -397.849,164.9552 -101.656,101.7598 -164.594,242.2851 -164.594,397.486 0,155.3019 62.939,295.9482 164.716,397.7271 101.776,101.7789 242.424,164.7141 397.727,164.7141 155.407,0 296.057,-63.0675 397.848,-164.9592 101.655,-101.7596 164.594,-242.2812 164.594,-397.482 0,-155.2628 -62.988,-295.8351 -164.715,-397.6068 -101.785,-101.8257 -242.38,-164.8344 -397.727,-164.8344 z m 0.113,106.3992 c 126.042,0 240.272,51.0613 322.856,133.6729 82.535,82.5771 133.426,196.6394 133.426,322.6102 0,125.9248 -50.946,239.9288 -133.426,322.4938 -82.595,82.6667 -196.764,133.7899 -322.856,133.7899 -126.008,0 -240.158,-51.0881 -322.735,-133.669 -82.578,-82.577 -133.672,-196.6041 -133.672,-322.6147 0,-125.9203 51.07,-239.9276 133.55,-322.4893 82.591,-82.6743 196.766,-133.7938 322.857,-133.7938 z"
         style="fill:#ffffff;fill-opacity:1;fill-rule:nonzero;stroke:none" />
      <path
         inkscape:connector-curvature="0"
         style="fill:#ffffff;fill-opacity:1;fill-rule:nonzero;stroke:none"
         d="m 10668.007,5128.3656 c -219.165,0 -417.518,88.9352 -561.07,232.6339 -143.361,143.507 -232.119,341.6802 -232.119,560.5524 0,219.0182 88.76,417.3663 232.291,560.8963 143.529,143.5301 341.876,232.2901 560.898,232.2901 219.162,0 417.515,-88.9391 561.067,-232.6334 143.365,-143.5075 232.118,-341.6765 232.118,-560.553 0,-218.9585 -88.831,-417.2036 -232.289,-560.7237 -143.539,-143.5999 -341.815,-232.4626 -560.896,-232.4626 z m 0.165,186.7937 c 167.558,0 319.257,67.866 429.041,177.6946 109.726,109.7693 177.521,261.4023 177.521,428.87 0,167.4028 -67.872,318.9386 -177.521,428.6986 -109.795,109.901 -261.416,177.8659 -429.041,177.8659 -167.511,0 -319.267,-67.9175 -429.044,-177.6946 -109.774,-109.7758 -177.693,-261.3577 -177.693,-428.8699 0,-167.4012 67.875,-318.9387 177.523,-428.6985 109.793,-109.904 261.588,-177.8661 429.214,-177.8661 z"
         id="path5890-0" />
      <path
         style="fill:#ffffff;fill-opacity:1;fill-rule:nonzero;stroke:none"
         d="m 10669.786,5358.769 c -155.406,0 -296.058,63.0632 -397.849,164.9552 -101.656,101.7598 -164.594,242.2851 -164.594,397.486 0,155.3019 62.939,295.9482 164.716,397.7271 101.776,101.7789 242.424,164.7141 397.727,164.7141 155.407,0 296.057,-63.0675 397.848,-164.9592 101.655,-101.7596 164.594,-242.2812 164.594,-397.482 0,-155.2628 -62.988,-295.8351 -164.715,-397.6068 -101.785,-101.8257 -242.38,-164.8344 -397.727,-164.8344 z m 0.113,106.3992 c 126.042,0 240.272,51.0613 322.856,133.6729 82.535,82.5771 133.426,196.6394 133.426,322.6102 0,125.9248 -50.946,239.9288 -133.426,322.4938 -82.595,82.6667 -196.764,133.7899 -322.856,133.7899 -126.008,0 -240.158,-51.0881 -322.735,-133.669 -82.578,-82.577 -133.672,-196.6041 -133.672,-322.6147 0,-125.9203 51.07,-239.9276 133.55,-322.4893 82.591,-82.6743 196.766,-133.7938 322.857,-133.7938 z"
         id="path5892-0"
         inkscape:connector-curvature="0" />
      <path
         inkscape:connector-curvature="0"
         id="path5894-7"
         d="m 10107.452,5908.5038 c -0.1,4.2502 -0.17,8.432 -0.17,12.7053 0,155.3018 63.041,296.0158 164.818,397.7947 101.776,101.7789 242.32,164.6465 397.622,164.6465 155.406,0 296.177,-63.0983 397.969,-164.99 101.654,-101.7596 164.472,-242.251 164.472,-397.4512 0,-4.2242 -0.05,-8.503 -0.165,-12.7053 l -105.929,0 c 0.113,4.3121 0.165,8.5354 0.165,12.8766 0,125.9249 -50.918,240.0316 -133.398,322.5971 -82.595,82.6662 -196.847,133.7426 -322.938,133.7426 -126.009,0 -240.194,-50.9902 -322.772,-133.5711 -82.577,-82.5772 -133.571,-196.758 -133.571,-322.7686 0,-4.3396 0.05,-8.5654 0.17,-12.8766 l -106.272,0 z"
         style="fill:#ffffff;fill-opacity:1;fill-rule:nonzero;stroke:none" />
      <path
         style="fill:url(#linearGradient5710);fill-opacity:1;fill-rule:nonzero;stroke:none"
         d="m 10667.835,3910.4301 c -555.635,0 -638.707,644.8611 -1002.645,1009.1659 l -419.9425,-419.427 c -363.451,363.8208 4.2924,866.3217 4.2924,1421.2114 l -592.6578,-22.6624 c 0,555.2618 644.0884,662.2836 1007.9649,1026.1632 l -418.9119,418.2254 c 363.8799,363.8818 866.6369,-2.575 1421.8999,-2.575 l 0,591.4552 c 555.623,0 638.704,-642.8091 1002.644,-1007.1056 l 419.939,417.3672 c 363.462,-363.8229 -4.637,-865.6265 -4.637,-1420.5245 l 592.834,-0.5164 c 0,-555.1091 -644.779,-637.9279 -1008.483,-1001.7845 l 419.77,-419.7705 c -363.903,-364.0564 -866.481,4.4634 -1421.895,4.4634 l -0.166,-593.6874 z m 468.183,973.6273 c 58.73,0 106.445,47.7193 106.445,106.4452 0,58.7257 -47.715,106.2728 -106.445,106.2728 -58.725,0 -106.269,-47.5471 -106.269,-106.2728 0,-58.7259 47.544,-106.4452 106.269,-106.4452 z m -468.358,197.6098 c 231.954,0 441.888,93.9885 593.86,246.0253 151.891,151.9534 245.854,361.8638 245.854,593.6879 0,231.7363 -93.897,441.5781 -245.682,593.5161 -151.985,152.1374 -361.99,246.1973 -594.032,246.1973 -231.886,0 -441.894,-94.0627 -593.858,-246.0253 -151.964,-151.9639 -245.853,-361.8007 -245.853,-593.6881 0,-231.7339 93.726,-441.5779 245.51,-593.5159 151.986,-152.1444 362.158,-246.1973 594.201,-246.1973 z m -930.189,266.1129 c 58.724,0 106.272,47.5471 106.272,106.2728 0,58.7259 -47.548,106.445 -106.272,106.445 -58.729,0 -106.445,-47.7191 -106.445,-106.445 0,-58.7257 47.716,-106.2728 106.445,-106.2728 z m 1861.07,935.6845 c 58.724,0 106.275,47.7203 106.275,106.445 0,58.7273 -47.551,106.2735 -106.275,106.2735 -58.731,0 -106.445,-47.5457 -106.445,-106.2735 0,-58.7247 47.714,-106.445 106.445,-106.445 z m -1398.55,462.0055 c 58.727,0 106.445,47.7193 106.445,106.445 0,58.7257 -47.718,106.2735 -106.445,106.2735 -58.725,0 -106.274,-47.5478 -106.274,-106.2735 0,-58.7257 47.548,-106.445 106.274,-106.445 z"
         id="path5758-2"
         inkscape:connector-curvature="0" />
      <path
         id="path5760-5"
         d="m 10667.835,3910.4301 c -555.635,0 -638.707,644.8611 -1002.645,1009.1659 l -419.9425,-419.427 c -363.451,363.8208 4.2924,866.3217 4.2924,1421.2114 l -592.6578,-22.6624 c 0,555.2618 644.0884,662.2836 1007.9649,1026.1632 l -418.9119,418.2254 c 363.8799,363.8818 866.6369,-2.575 1421.8999,-2.575 l 0,591.4552 c 555.623,0 638.704,-642.8091 1002.644,-1007.1056 l 419.939,417.3672 c 363.462,-363.8229 -4.637,-865.6265 -4.637,-1420.5245 l 592.834,-0.5164 c 0,-555.1091 -644.779,-637.9279 -1008.483,-1001.7845 l 419.77,-419.7705 c -363.903,-364.0564 -866.481,4.4634 -1421.895,4.4634 l -0.166,-593.6874 z m 468.183,973.6273 c 58.73,0 106.445,47.7193 106.445,106.4452 0,58.7257 -47.715,106.2728 -106.445,106.2728 -58.725,0 -106.269,-47.5471 -106.269,-106.2728 0,-58.7259 47.544,-106.4452 106.269,-106.4452 z m -468.358,197.6098 c 231.954,0 441.888,93.9885 593.86,246.0253 151.891,151.9534 245.854,361.8638 245.854,593.6879 0,231.7363 -93.897,441.5781 -245.682,593.5161 -151.985,152.1374 -361.99,246.1973 -594.032,246.1973 -231.886,0 -441.894,-94.0627 -593.858,-246.0253 -151.964,-151.9639 -245.853,-361.8007 -245.853,-593.6881 0,-231.7339 93.726,-441.5779 245.51,-593.5159 151.986,-152.1444 362.158,-246.1973 594.201,-246.1973 z m -930.189,266.1129 c 58.724,0 106.272,47.5471 106.272,106.2728 0,58.7259 -47.548,106.445 -106.272,106.445 -58.729,0 -106.445,-47.7191 -106.445,-106.445 0,-58.7257 47.716,-106.2728 106.445,-106.2728 z m 1861.07,935.6845 c 58.724,0 106.275,47.7203 106.275,106.445 0,58.7273 -47.551,106.2735 -106.275,106.2735 -58.731,0 -106.445,-47.5457 -106.445,-106.2735 0,-58.7247 47.714,-106.445 106.445,-106.445 z m -1398.55,462.0055 c 58.727,0 106.445,47.7193 106.445,106.445 0,58.7257 -47.718,106.2735 -106.445,106.2735 -58.725,0 -106.274,-47.5478 -106.274,-106.2735 0,-58.7257 47.548,-106.445 106.274,-106.445 z"
         style="fill:url(#linearGradient5712);fill-opacity:1;fill-rule:nonzero;stroke:none"
         inkscape:connector-curvature="0" />
      <path
         style="fill:url(#linearGradient5715);fill-opacity:1;fill-rule:nonzero;stroke:none"
         d="m 8657.0536,5909.1905 c 8.0961,546.1029 646.2289,654.1234 1007.7934,1015.6907 l -418.9119,418.2254 c 363.8799,363.8818 866.6369,-2.575 1421.8999,-2.575 l 0,591.4552 c 555.623,0 638.704,-642.8091 1002.644,-1007.1056 l 419.939,417.3672 c 363.462,-363.8229 -4.637,-865.6265 -4.637,-1420.5245 l 592.834,-0.5164 c 0,-4.0474 -0.113,-8.0212 -0.165,-12.0186 l -1171.235,0 c 0.05,4.0689 0.165,8.1079 0.165,12.1899 0,231.7363 -93.896,441.5781 -245.683,593.5161 -151.984,152.1373 -361.99,246.1973 -594.032,246.1973 -231.886,0 -441.894,-94.0627 -593.858,-246.0255 -151.962,-151.9637 -245.854,-361.8005 -245.854,-593.6879 0,-4.0802 0.114,-8.1228 0.172,-12.1899 l -578.7518,0 c 0.049,4.0716 0.1699,8.1134 0.1699,12.1899 l -318.8205,-12.1899 -273.6658,0 z m 2941.4874,374.2741 c 58.724,0 106.275,47.7203 106.275,106.445 0,58.7278 -47.551,106.2735 -106.275,106.2735 -58.731,0 -106.445,-47.5457 -106.445,-106.2735 0,-58.7247 47.714,-106.445 106.445,-106.445 z m -1398.55,462.0055 c 58.727,0 106.445,47.7193 106.445,106.445 0,58.7257 -47.718,106.2735 -106.445,106.2735 -58.725,0 -106.274,-47.5478 -106.274,-106.2735 0,-58.7257 47.548,-106.445 106.274,-106.445 z"
         id="path5762-5"
         inkscape:connector-curvature="0" />
      <path
         style="fill:#9394b8;fill-opacity:1;fill-rule:nonzero;stroke:none"
         d="m 10668.007,5128.3656 c -219.165,0 -417.518,88.9352 -561.07,232.6339 -143.361,143.507 -232.119,341.6802 -232.119,560.5524 0,219.0182 88.76,417.3663 232.291,560.8963 143.529,143.5301 341.876,232.2901 560.898,232.2901 219.162,0 417.515,-88.9391 561.067,-232.6334 143.365,-143.5075 232.118,-341.6765 232.118,-560.553 0,-218.9585 -88.831,-417.2036 -232.289,-560.7237 -143.539,-143.5999 -341.815,-232.4626 -560.896,-232.4626 z m 0.165,186.7937 c 167.558,0 319.257,67.866 429.041,177.6946 109.726,109.7693 177.521,261.4023 177.521,428.87 0,167.4028 -67.872,318.9386 -177.521,428.6986 -109.795,109.901 -261.416,177.8659 -429.041,177.8659 -167.511,0 -319.267,-67.9175 -429.044,-177.6946 -109.774,-109.7758 -177.693,-261.3577 -177.693,-428.8699 0,-167.4012 67.875,-318.9387 177.523,-428.6985 109.793,-109.904 261.588,-177.8661 429.214,-177.8661 z"
         id="path5764-2"
         inkscape:connector-curvature="0" />
      <path
         style="fill:#9495b9;fill-opacity:1;fill-rule:nonzero;stroke:none"
         d="m 10669.786,5358.769 c -155.406,0 -296.058,63.0632 -397.849,164.9552 -101.656,101.7598 -164.594,242.2851 -164.594,397.486 0,155.3019 62.939,295.9482 164.716,397.7271 101.776,101.7789 242.424,164.7141 397.727,164.7141 155.407,0 296.057,-63.0675 397.848,-164.9592 101.655,-101.7596 164.594,-242.2812 164.594,-397.482 0,-155.2628 -62.988,-295.8351 -164.715,-397.6068 -101.785,-101.8257 -242.38,-164.8344 -397.727,-164.8344 z m 0.113,106.3992 c 126.042,0 240.272,51.0613 322.856,133.6729 82.535,82.5771 133.426,196.6394 133.426,322.6102 0,125.9248 -50.946,239.9288 -133.426,322.4938 -82.595,82.6667 -196.764,133.7899 -322.856,133.7899 -126.008,0 -240.158,-51.0881 -322.735,-133.669 -82.578,-82.577 -133.672,-196.6041 -133.672,-322.6147 0,-125.9203 51.07,-239.9276 133.55,-322.4893 82.591,-82.6743 196.766,-133.7938 322.857,-133.7938 z"
         id="path5766-1"
         inkscape:connector-curvature="0" />
      <path
         id="path5768-4"
         d="m 10668.007,5128.3656 c -219.165,0 -417.518,88.9352 -561.07,232.6339 -143.361,143.507 -232.119,341.6802 -232.119,560.5524 0,219.0182 88.76,417.3663 232.291,560.8963 143.529,143.5301 341.876,232.2901 560.898,232.2901 219.162,0 417.515,-88.9391 561.067,-232.6334 143.365,-143.5075 232.118,-341.6765 232.118,-560.553 0,-218.9585 -88.831,-417.2036 -232.289,-560.7237 -143.539,-143.5999 -341.815,-232.4626 -560.896,-232.4626 z m 0.165,186.7937 c 167.558,0 319.257,67.866 429.041,177.6946 109.726,109.7693 177.521,261.4023 177.521,428.87 0,167.4028 -67.872,318.9386 -177.521,428.6986 -109.795,109.901 -261.416,177.8659 -429.041,177.8659 -167.511,0 -319.267,-67.9175 -429.044,-177.6946 -109.774,-109.7758 -177.693,-261.3577 -177.693,-428.8699 0,-167.4012 67.875,-318.9387 177.523,-428.6985 109.793,-109.904 261.588,-177.8661 429.214,-177.8661 z"
         style="fill:url(#linearGradient5717);fill-opacity:1;fill-rule:nonzero;stroke:none"
         inkscape:connector-curvature="0" />
      <path
         inkscape:connector-curvature="0"
         id="path5770-8"
         d="m 10669.786,5358.769 c -155.406,0 -296.058,63.0632 -397.849,164.9552 -101.656,101.7598 -164.594,242.2851 -164.594,397.486 0,155.3019 62.939,295.9482 164.716,397.7271 101.776,101.7789 242.424,164.7141 397.727,164.7141 155.407,0 296.057,-63.0675 397.848,-164.9592 101.655,-101.7596 164.594,-242.2812 164.594,-397.482 0,-155.2628 -62.988,-295.8351 -164.715,-397.6068 -101.785,-101.8257 -242.38,-164.8344 -397.727,-164.8344 z m 0.113,106.3992 c 126.042,0 240.272,51.0613 322.856,133.6729 82.535,82.5771 133.426,196.6394 133.426,322.6102 0,125.9248 -50.946,239.9288 -133.426,322.4938 -82.595,82.6667 -196.764,133.7899 -322.856,133.7899 -126.008,0 -240.158,-51.0881 -322.735,-133.669 -82.578,-82.577 -133.672,-196.6041 -133.672,-322.6147 0,-125.9203 51.07,-239.9276 133.55,-322.4893 82.591,-82.6743 196.766,-133.7938 322.857,-133.7938 z"
         style="fill:url(#linearGradient5719);fill-opacity:1;fill-rule:nonzero;stroke:none" />
      <path
         style="fill:url(#linearGradient5721);fill-opacity:1;fill-rule:nonzero;stroke:none"
         d="m 10107.452,5908.5038 c -0.1,4.2502 -0.17,8.432 -0.17,12.7053 0,155.3018 63.041,296.0158 164.818,397.7947 101.776,101.7789 242.32,164.6465 397.622,164.6465 155.406,0 296.177,-63.0983 397.969,-164.99 101.654,-101.7596 164.472,-242.251 164.472,-397.4512 0,-4.2242 -0.05,-8.503 -0.165,-12.7053 l -105.929,0 c 0.113,4.3121 0.165,8.5354 0.165,12.8766 0,125.9249 -50.918,240.0316 -133.398,322.5971 -82.595,82.6662 -196.847,133.7426 -322.938,133.7426 -126.009,0 -240.194,-50.9902 -322.772,-133.5711 -82.577,-82.5772 -133.571,-196.758 -133.571,-322.7686 0,-4.3396 0.05,-8.5654 0.17,-12.8766 l -106.272,0 z"
         id="path5772-6"
         inkscape:connector-curvature="0" />
    </g>
  </g>
</svg>
