<?xml version="1.0" encoding="UTF-8" standalone="no"?>
<!-- Created with Inkscape (http://www.inkscape.org/) -->

<svg
   xmlns:dc="http://purl.org/dc/elements/1.1/"
   xmlns:cc="http://creativecommons.org/ns#"
   xmlns:rdf="http://www.w3.org/1999/02/22-rdf-syntax-ns#"
   xmlns:svg="http://www.w3.org/2000/svg"
   xmlns="http://www.w3.org/2000/svg"
   xmlns:xlink="http://www.w3.org/1999/xlink"
   xmlns:sodipodi="http://sodipodi.sourceforge.net/DTD/sodipodi-0.dtd"
   xmlns:inkscape="http://www.inkscape.org/namespaces/inkscape"
   width="2000mm"
   height="1236.067993164062mm"
   viewBox="0 0 7086.614173238095 4379.768479613595"
   id="svg2"
   version="1.1"
   inkscape:version="0.91 r13725"
   sodipodi:docname="lgrad6.svg">
  <sodipodi:namedview
     id="base"
     pagecolor="#646464"
     bordercolor="#ffffff"
     borderopacity="1"
     inkscape:pageopacity="1"
     inkscape:pageshadow="2"
     inkscape:zoom="0.1223808980959779"
     inkscape:cx="3543.307086614174"
     inkscape:cy="2189.884239857592"
     inkscape:document-units="mm"
     inkscape:current-layer="layer1"
     showgrid="false"
     borderlayer="true"
     inkscape:showpageshadow="false"
     inkscape:window-width="1366"
     inkscape:window-height="705"
     inkscape:window-x="-8"
     inkscape:window-y="-8"
     inkscape:window-maximized="1"
     fit-margin-top="0"
     fit-margin-left="0"
     fit-margin-right="0"
     fit-margin-bottom="0"
     inkscape:object-nodes="true"
     inkscape:snap-intersection-paths="false"
     inkscape:snap-bbox="false"
     inkscape:snap-bbox-edge-midpoints="false"
     inkscape:bbox-nodes="true"
     inkscape:object-paths="false"
     showguides="true"
     inkscape:guide-bbox="true"
     inkscape:snap-smooth-nodes="true"
     inkscape:snap-center="true"
     inkscape:snap-nodes="true">
    <sodipodi:guide
       position="7048.824510414946,846.3039552952188"
       orientation="1,0"
       id="guide18016" />
    <sodipodi:guide
       position="7011.236446213537,856.1464749289877"
       orientation="1,0"
       id="guide18018" />
    <sodipodi:guide
       position="6973.848821469735,865.988994562876"
       orientation="1,0"
       id="guide18020" />
    <sodipodi:guide
       position="6936.660567333555,875.8315141966639"
       orientation="1,0"
       id="guide18022" />
    <sodipodi:guide
       position="6899.670620645007,885.6740338304527"
       orientation="1,0"
       id="guide18024" />
    <sodipodi:guide
       position="6862.877923944106,895.5165534642425"
       orientation="1,0"
       id="guide18026" />
    <sodipodi:guide
       position="6826.281425380863,905.35907309803"
       orientation="1,0"
       id="guide18028" />
    <sodipodi:guide
       position="6789.880078715291,915.2015927318189"
       orientation="1,0"
       id="guide18030" />
    <sodipodi:guide
       position="6753.672843307402,925.0441123657075"
       orientation="1,0"
       id="guide18032" />
    <sodipodi:guide
       position="6717.658684037209,934.8866319994972"
       orientation="1,0"
       id="guide18034" />
    <sodipodi:guide
       position="6681.836571334726,944.7291516335848"
       orientation="1,0"
       id="guide18036" />
    <sodipodi:guide
       position="6646.205481099959,954.5716712668735"
       orientation="1,0"
       id="guide18038" />
    <sodipodi:guide
       position="6610.764394692927,964.4141909011623"
       orientation="1,0"
       id="guide18040" />
    <sodipodi:guide
       position="6575.51229893364,974.2567105344509"
       orientation="1,0"
       id="guide18042" />
    <sodipodi:guide
       position="6540.448186002109,984.0992301687397"
       orientation="1,0"
       id="guide18044" />
    <sodipodi:guide
       position="6505.571053478345,993.9417498020283"
       orientation="1,0"
       id="guide18046" />
    <sodipodi:guide
       position="6470.879904302365,1003.784269436316"
       orientation="1,0"
       id="guide18048" />
    <sodipodi:guide
       position="6436.373746684174,1013.626789069605"
       orientation="1,0"
       id="guide18050" />
    <sodipodi:guide
       position="6402.051594173788,1023.469308703893"
       orientation="1,0"
       id="guide18052" />
    <sodipodi:guide
       position="6367.912465541215,1033.311828337182"
       orientation="1,0"
       id="guide18054" />
    <sodipodi:guide
       position="6333.955384826472,1043.154347971471"
       orientation="1,0"
       id="guide18056" />
    <sodipodi:guide
       position="6300.179381229568,1052.99686760476"
       orientation="1,0"
       id="guide18058" />
    <sodipodi:guide
       position="6266.583489170514,1062.839387239048"
       orientation="1,0"
       id="guide18060" />
    <sodipodi:guide
       position="6233.166748199324,1072.681906872337"
       orientation="1,0"
       id="guide18062" />
    <sodipodi:guide
       position="6199.928202976004,1082.524426506626"
       orientation="1,0"
       id="guide18064" />
    <sodipodi:guide
       position="6166.866903260571,1092.366946139914"
       orientation="1,0"
       id="guide18066" />
    <sodipodi:guide
       position="6133.981903913034,1102.209465774203"
       orientation="1,0"
       id="guide18068" />
    <sodipodi:guide
       position="6101.272264783403,1112.051985407492"
       orientation="1,0"
       id="guide18070" />
    <sodipodi:guide
       position="6068.737050761692,1121.89450504178"
       orientation="1,0"
       id="guide18072" />
    <sodipodi:guide
       position="6036.375331727908,1131.737024676069"
       orientation="1,0"
       id="guide18074" />
    <sodipodi:guide
       position="6004.186182512067,1141.579544309358"
       orientation="1,0"
       id="guide18076" />
    <sodipodi:guide
       position="5972.168682884177,1151.422063943646"
       orientation="1,0"
       id="guide18078" />
    <sodipodi:guide
       position="5940.32191750425,1161.264583576935"
       orientation="1,0"
       id="guide18080" />
    <sodipodi:guide
       position="5908.644975942296,1171.107103211224"
       orientation="1,0"
       id="guide18082" />
    <sodipodi:guide
       position="5877.136952598325,1180.949622844513"
       orientation="1,0"
       id="guide18084" />
    <sodipodi:guide
       position="5845.796946712349,1190.792142478801"
       orientation="1,0"
       id="guide18086" />
    <sodipodi:guide
       position="5814.624062334379,1200.63466211209"
       orientation="1,0"
       id="guide18088" />
    <sodipodi:guide
       position="5783.617408274425,1210.477181746377"
       orientation="1,0"
       id="guide18090" />
    <sodipodi:guide
       position="5752.776098112497,1220.319701379666"
       orientation="1,0"
       id="guide18092" />
    <sodipodi:guide
       position="5722.099250138606,1230.162221013955"
       orientation="1,0"
       id="guide18094" />
    <sodipodi:guide
       position="5691.585987362763,1240.004740647244"
       orientation="1,0"
       id="guide18096" />
    <sodipodi:guide
       position="5661.235437444978,1249.847260281532"
       orientation="1,0"
       id="guide18098" />
    <sodipodi:guide
       position="5631.046732735263,1259.689779914821"
       orientation="1,0"
       id="guide18100" />
    <sodipodi:guide
       position="5601.019010183623,1269.53229954911"
       orientation="1,0"
       id="guide18102" />
    <sodipodi:guide
       position="5571.151411340077,1279.374819182399"
       orientation="1,0"
       id="guide18104" />
    <sodipodi:guide
       position="5541.443082344627,1289.217338816687"
       orientation="1,0"
       id="guide18106" />
    <sodipodi:guide
       position="5511.893173887285,1299.059858449976"
       orientation="1,0"
       id="guide18108" />
    <sodipodi:guide
       position="5482.500841178065,1308.902378084264"
       orientation="1,0"
       id="guide18110" />
    <sodipodi:guide
       position="5453.265243956974,1318.744897717552"
       orientation="1,0"
       id="guide18112" />
    <sodipodi:guide
       position="5424.185546404023,1328.587417351841"
       orientation="1,0"
       id="guide18114" />
    <sodipodi:guide
       position="5395.260917199219,1338.42993698513"
       orientation="1,0"
       id="guide18116" />
    <sodipodi:guide
       position="5366.490529432575,1348.272456619418"
       orientation="1,0"
       id="guide18118" />
    <sodipodi:guide
       position="5337.873560604101,1358.114976252707"
       orientation="1,0"
       id="guide18120" />
    <sodipodi:guide
       position="5309.409192593806,1367.957495886996"
       orientation="1,0"
       id="guide18122" />
    <sodipodi:guide
       position="5281.096611671699,1377.800015520285"
       orientation="1,0"
       id="guide18124" />
    <sodipodi:guide
       position="5252.93500841779,1387.642535154573"
       orientation="1,0"
       id="guide18126" />
    <sodipodi:guide
       position="5224.923577732088,1397.485054787862"
       orientation="1,0"
       id="guide18128" />
    <sodipodi:guide
       position="5197.061518834606,1407.327574422151"
       orientation="1,0"
       id="guide18130" />
    <sodipodi:guide
       position="5169.348035175348,1417.170094056439"
       orientation="1,0"
       id="guide18132" />
    <sodipodi:guide
       position="5141.782334484329,1427.012613689728"
       orientation="1,0"
       id="guide18134" />
    <sodipodi:guide
       position="5114.363628701554,1436.855133324017"
       orientation="1,0"
       id="guide18136" />
    <sodipodi:guide
       position="5087.091133977034,1446.697652957305"
       orientation="1,0"
       id="guide18138" />
    <sodipodi:guide
       position="5059.964070630779,1456.540172591594"
       orientation="1,0"
       id="guide18140" />
    <sodipodi:guide
       position="5032.981663142796,1466.382692224883"
       orientation="1,0"
       id="guide18142" />
    <sodipodi:guide
       position="5006.143140133096,1476.225211859171"
       orientation="1,0"
       id="guide18144" />
    <sodipodi:guide
       position="4979.447734341691,1486.06773149246"
       orientation="1,0"
       id="guide18146" />
    <sodipodi:guide
       position="4952.894682588584,1495.910251126748"
       orientation="1,0"
       id="guide18148" />
    <sodipodi:guide
       position="4926.483225753791,1505.752770760037"
       orientation="1,0"
       id="guide18150" />
    <sodipodi:guide
       position="4900.212608797315,1515.595290394325"
       orientation="1,0"
       id="guide18152" />
    <sodipodi:guide
       position="4874.082080669164,1525.437810027614"
       orientation="1,0"
       id="guide18154" />
    <sodipodi:guide
       position="4848.090894359353,1535.280329661902"
       orientation="1,0"
       id="guide18156" />
    <sodipodi:guide
       position="4822.238306807892,1545.122849295191"
       orientation="1,0"
       id="guide18158" />
    <sodipodi:guide
       position="4796.523578944782,1554.96536892948"
       orientation="1,0"
       id="guide18160" />
    <sodipodi:guide
       position="4770.945975620033,1564.807888562768"
       orientation="1,0"
       id="guide18162" />
    <sodipodi:guide
       position="4745.504765613659,1574.650408197057"
       orientation="1,0"
       id="guide18164" />
    <sodipodi:guide
       position="4720.199221605666,1584.492927830346"
       orientation="1,0"
       id="guide18166" />
    <sodipodi:guide
       position="4695.028620156061,1594.335447464634"
       orientation="1,0"
       id="guide18168" />
    <sodipodi:guide
       position="4669.992241674853,1604.177967097922"
       orientation="1,0"
       id="guide18170" />
    <sodipodi:guide
       position="4645.089370422053,1614.020486732212"
       orientation="1,0"
       id="guide18172" />
    <sodipodi:guide
       position="4620.31929446767,1623.863006365499"
       orientation="1,0"
       id="guide18174" />
    <sodipodi:guide
       position="4595.681305661712,1633.705525999788"
       orientation="1,0"
       id="guide18176" />
    <sodipodi:guide
       position="4571.174699654182,1643.548045633078"
       orientation="1,0"
       id="guide18178" />
    <sodipodi:guide
       position="4546.798775845095,1653.390565267366"
       orientation="1,0"
       id="guide18180" />
    <sodipodi:guide
       position="4522.552837374456,1663.233084900656"
       orientation="1,0"
       id="guide18182" />
    <sodipodi:guide
       position="4498.436191072273,1673.075604534944"
       orientation="1,0"
       id="guide18184" />
    <sodipodi:guide
       position="4474.448147498555,1682.918124168233"
       orientation="1,0"
       id="guide18186" />
    <sodipodi:guide
       position="4450.588020873313,1692.760643802522"
       orientation="1,0"
       id="guide18188" />
    <sodipodi:guide
       position="4426.855129066551,1702.603163436811"
       orientation="1,0"
       id="guide18190" />
    <sodipodi:guide
       position="4403.248793608276,1712.445683070098"
       orientation="1,0"
       id="guide18192" />
    <sodipodi:guide
       position="4379.768339628501,1722.288202704483"
       orientation="1,0"
       id="guide18194" />
    <sodipodi:guide
       position="2706.845664433807,2608.114969743467"
       orientation="1,0"
       id="guide18202" />
    <sodipodi:guide
       position="1672.922590608046,3493.941736789451"
       orientation="1,0"
       id="guide18204" />
    <sodipodi:guide
       position="1033.922989233416,4379.768503835435"
       orientation="1,0"
       id="guide18206" />
  </sodipodi:namedview>
  <defs
     id="defs4">
    <marker
       inkscape:stockid="DiamondS"
       orient="auto"
       refY="0.0"
       refX="0.0"
       id="DiamondS"
       style="overflow:visible"
       inkscape:isstock="true">
      <path
         id="path17690"
         d="M 0,-7.0710768 L -7.0710894,0 L 0,7.0710589 L 7.0710462,0 L 0,-7.0710768 z "
         style="fill-rule:evenodd;stroke:#ff0000;stroke-width:1pt;stroke-opacity:1;fill:#ff0000;fill-opacity:1"
         transform="scale(0.2)" />
    </marker>
    <marker
       inkscape:stockid="DiamondM"
       orient="auto"
       refY="0.0"
       refX="0.0"
       id="DiamondM"
       style="overflow:visible"
       inkscape:isstock="true">
      <path
         id="path17687"
         d="M 0,-7.0710768 L -7.0710894,0 L 0,7.0710589 L 7.0710462,0 L 0,-7.0710768 z "
         style="fill-rule:evenodd;stroke:#000000;stroke-width:1pt;stroke-opacity:1;fill:#000000;fill-opacity:1"
         transform="scale(0.4)" />
    </marker>
    <marker
       inkscape:isstock="true"
       style="overflow:visible"
       id="Arrow1Mstart"
       refX="0.0"
       refY="0.0"
       orient="auto"
       inkscape:stockid="Arrow1Mstart">
      <path
         transform="scale(0.4) translate(10,0)"
         style="fill-rule:evenodd;stroke:#00ff00;stroke-width:1pt;stroke-opacity:1;fill:#00ff00;fill-opacity:1"
         d="M 0.0,0.0 L 5.0,-5.0 L -12.5,0.0 L 5.0,5.0 L 0.0,0.0 z "
         id="path17611" />
    </marker>
    <marker
       inkscape:isstock="true"
       style="overflow:visible"
       id="Arrow2Mstart"
       refX="0.0"
       refY="0.0"
       orient="auto"
       inkscape:stockid="Arrow2Mstart">
      <path
         transform="scale(0.6) translate(0,0)"
         d="M 8.7185878,4.0337352 L -2.2072895,0.016013256 L 8.7185884,-4.0017078 C 6.9730900,-1.6296469 6.9831476,1.6157441 8.7185878,4.0337352 z "
         style="fill-rule:evenodd;stroke-width:0.625;stroke-linejoin:round;stroke:#ff0000;stroke-opacity:1;fill:#ff0000;fill-opacity:1"
         id="path17629" />
    </marker>
    <linearGradient
       gradientTransform="translate(-1958.691942704314,158.1759356516541)"
       inkscape:collect="always"
       xlink:href="#linearGradient5031-0"
       id="linearGradient4192-0"
       x1="3917.3837890625"
       y1="-316.3518676757812"
       x2="10841.484375"
       y2="-830.7882080078125"
       gradientUnits="userSpaceOnUse" />
    <linearGradient
       inkscape:collect="always"
       id="linearGradient5031-0">
      <stop
         style="stop-color:#0000ff;stop-opacity:1"
         offset="0"
         id="stop5033-6" />
      <stop
         id="stop5039-8"
         offset="0.2763932049"
         style="stop-color:#0000ff;stop-opacity:1" />
      <stop
         style="stop-color:#00ff00;stop-opacity:1"
         offset="0.3576720953"
         id="stop5041-3" />
      <stop
         id="stop5045-9"
         offset="0.6235336661"
         style="stop-color:#800080;stop-opacity:1" />
      <stop
         id="stop5043-2"
         offset="0.7236068249"
         style="stop-color:#ff0000;stop-opacity:1" />
      <stop
         style="stop-color:#ff0000;stop-opacity:1"
         offset="1"
         id="stop5035-7" />
    </linearGradient>
  </defs>
  <metadata
     id="metadata7">
    <rdf:RDF>
      <cc:Work
         rdf:about="">
        <dc:format>image/svg+xml</dc:format>
        <dc:type
           rdf:resource="http://purl.org/dc/dcmitype/StillImage" />
        <dc:title></dc:title>
        <dc:creator>
          <cc:Agent>
            <dc:title>Lazur</dc:title>
          </cc:Agent>
        </dc:creator>
        <dc:date>2015</dc:date>
      </cc:Work>
    </rdf:RDF>
  </metadata>
  <g
     inkscape:label="Layer 1"
     inkscape:groupmode="layer"
     id="layer1"
     transform="translate(0,3327.406199249509)">
    <path
       style="color:#000000;clip-rule:nonzero;display:inline;overflow:visible;visibility:visible;opacity:1;isolation:auto;mix-blend-mode:normal;color-interpolation:sRGB;color-interpolation-filters:linearRGB;solid-color:#000000;solid-opacity:1;fill:url(#linearGradient4192-0);fill-opacity:1;fill-rule:nonzero;stroke:none;stroke-width:0.6379999518;stroke-linecap:round;stroke-linejoin:round;stroke-miterlimit:10;stroke-dasharray:none;stroke-dashoffset:0;stroke-opacity:1;color-rendering:auto;image-rendering:auto;shape-rendering:auto;text-rendering:auto;enable-background:accumulate"
       d="m 7086.613724368518,1052.362174504205 c -2.090096397862,-31.904770072781 -4.460441093228,-63.7923844854809 -7.106892837728,-95.655829834554 -2.632343353208,-31.693579431163 -19.24702150988,-50.7329480817322 -50.379636876629,-57.2269814289389 l -5070.435251949849,-1057.6552988923672 z"
       id="path7474"
       inkscape:connector-curvature="0"
       sodipodi:nodetypes="csscc"
       inkscape:transform-center-x="-2563.960890835627"
       inkscape:transform-center-y="605.2690550787642" />
    <rect
       style="color:#000000;clip-rule:nonzero;display:inline;overflow:visible;visibility:visible;opacity:0.5;isolation:auto;mix-blend-mode:normal;color-interpolation:sRGB;color-interpolation-filters:linearRGB;solid-color:#000000;solid-opacity:1;fill:#00ff00;fill-opacity:1;fill-rule:nonzero;stroke:none;stroke-width:0.6379999518;stroke-linecap:round;stroke-linejoin:round;stroke-miterlimit:10;stroke-dasharray:none;stroke-dashoffset:0;stroke-opacity:1;color-rendering:auto;image-rendering:auto;shape-rendering:auto;text-rendering:auto;enable-background:accumulate"
       id="rect15628"
       width="3543.30712890625"
       height="3543.30712890625"
       x="0"
       y="-2490.94482421875" />
    <path
       style="color:#000000;clip-rule:nonzero;display:inline;overflow:visible;visibility:visible;opacity:1;isolation:auto;mix-blend-mode:normal;color-interpolation:sRGB;color-interpolation-filters:linearRGB;solid-color:#000000;solid-opacity:1;fill:#ffffff;fill-opacity:1;fill-rule:nonzero;stroke:none;stroke-width:0.6379999518;stroke-linecap:round;stroke-linejoin:round;stroke-miterlimit:10;stroke-dasharray:none;stroke-dashoffset:0;stroke-opacity:1;color-rendering:auto;image-rendering:auto;shape-rendering:auto;text-rendering:auto;enable-background:accumulate"
       d="m 0,-3327.406223471349 7086.614173228354,0 0,4379.76850393701 -7086.614173228354,0 z"
       id="path7472"
       inkscape:connector-curvature="0" />
    <path
       style="color:#000000;clip-rule:nonzero;display:inline;overflow:visible;visibility:visible;opacity:0.5;isolation:auto;mix-blend-mode:normal;color-interpolation:sRGB;color-interpolation-filters:linearRGB;solid-color:#000000;solid-opacity:1;fill:#00ff00;fill-opacity:1;fill-rule:nonzero;stroke:none;stroke-width:0.6379999518;stroke-linecap:round;stroke-linejoin:round;stroke-miterlimit:10;stroke-dasharray:none;stroke-dashoffset:0;stroke-opacity:1;color-rendering:auto;image-rendering:auto;shape-rendering:auto;text-rendering:auto;enable-background:accumulate"
       d=" M 0.0 -3327.4061718 C 33.7457821801 -3327.4061718 67.4915643601 -3327.4061718 101.23734654 -3327.4061718 C 134.98312872 -3327.4061718 168.7289109 -3327.4061718 202.47469308 -3327.4061718 C 236.22047526 -3327.4061718 269.96625744 -3327.4061718 303.712039621 -3327.4061718 C 337.457821801 -3327.4061718 371.203603981 -3327.4061718 404.949386161 -3327.4061718 C 438.695168341 -3327.4061718 472.440950521 -3327.4061718 506.186732701 -3327.4061718 C 539.932514881 -3327.4061718 573.678297061 -3327.4061718 607.424079241 -3327.4061718 C 641.169861421 -3327.4061718 674.915643601 -3327.4061718 708.661425781 -3327.4061718 C 742.407207961 -3327.4061718 776.152990141 -3327.4061718 809.898772321 -3327.4061718 C 843.644554501 -3327.4061718 877.390336682 -3327.4061718 911.136118862 -3327.4061718 C 944.881901042 -3327.4061718 978.627683222 -3327.4061718 1012.3734654 -3327.4061718 C 1046.11924758 -3327.4061718 1079.86502976 -3327.4061718 1113.61081194 -3327.4061718 C 1147.35659412 -3327.4061718 1181.1023763 -3327.4061718 1214.84815848 -3327.4061718 C 1248.59394066 -3327.4061718 1282.33972284 -3327.4061718 1316.08550502 -3327.4061718 C 1349.8312872 -3327.4061718 1383.57706938 -3327.4061718 1417.32285156 -3327.4061718 C 1451.06863374 -3327.4061718 1484.81441592 -3327.4061718 1518.5601981 -3327.4061718 C 1552.30598028 -3327.4061718 1586.05176246 -3327.4061718 1619.79754464 -3327.4061718 C 1653.54332682 -3327.4061718 1687.289109 -3327.4061718 1721.03489118 -3327.4061718 C 1754.78067336 -3327.4061718 1788.52645554 -3327.4061718 1822.27223772 -3327.4061718 C 1856.0180199 -3327.4061718 1889.76380208 -3327.4061718 1923.50958426 -3327.4061718 C 1957.25536644 -3327.4061718 1991.00114862 -3327.4061718 2024.7469308 -3327.4061718 C 2058.49271298 -3327.4061718 2092.23849516 -3327.4061718 2125.98427734 -3327.4061718 C 2159.73005952 -3327.4061718 2193.4758417 -3327.4061718 2227.22162388 -3327.4061718 C 2260.96740606 -3327.4061718 2294.71318824 -3327.4061718 2328.45897042 -3327.4061718 C 2362.2047526 -3327.4061718 2395.95053478 -3327.4061718 2429.69631696 -3327.4061718 C 2463.44209914 -3327.4061718 2497.18788132 -3327.4061718 2530.9336635 -3327.4061718 C 2564.67944568 -3327.4061718 2598.42522786 -3327.4061718 2632.17101004 -3327.4061718 C 2665.91679222 -3327.4061718 2699.6625744 -3327.4061718 2733.40835658 -3327.4061718 C 2767.15413876 -3327.4061718 2800.89992094 -3327.4061718 2834.64570312 -3327.4061718 C 2868.39148531 -3327.4061718 2902.13726749 -3327.4061718 2935.88304967 -3327.4061718 C 2969.62883185 -3327.4061718 3003.37461403 -3327.4061718 3037.12039621 -3327.4061718 C 3070.86617839 -3327.4061718 3104.61196057 -3327.4061718 3138.35774275 -3327.4061718 C 3172.10352493 -3327.4061718 3205.84930711 -3327.4061718 3239.59508929 -3327.4061718 C 3273.34087147 -3327.4061718 3307.08665365 -3327.4061718 3340.83243583 -3327.4061718 C 3374.57821801 -3327.4061718 3408.32400019 -3327.4061718 3442.06978237 -3327.4061718 C 3475.81556455 -3327.4061718 3509.56134673 -3327.4061718 3543.30712891 -3327.4061718"
       title="(((sqrt(5.00))-1.00)/2.00)*2000.00"
       id="path6566" />
    <path
       inkscape:connector-curvature="0"
       style="color:#000000;clip-rule:nonzero;display:inline;overflow:visible;visibility:visible;opacity:0.5;isolation:auto;mix-blend-mode:normal;color-interpolation:sRGB;color-interpolation-filters:linearRGB;solid-color:#000000;solid-opacity:1;fill:#00ff00;fill-opacity:1;fill-rule:nonzero;stroke:none;stroke-width:0.6379999518;stroke-linecap:round;stroke-linejoin:round;stroke-miterlimit:10;stroke-dasharray:none;stroke-dashoffset:0;stroke-opacity:1;color-rendering:auto;image-rendering:auto;shape-rendering:auto;text-rendering:auto;enable-background:accumulate"
       d="m 7086.614173228355,215.9009054387407 c -12.63019802,-3.2808399341711 -25.22666441,-6.5616798683408 -37.78957869,-9.8425198025211 -12.56291429,-3.2808399341788 -25.092142479999,-6.56167986838 -37.58806465,-9.8425198024802 -12.49592218,-3.2808399341997 -24.958337889999,-6.5616798683991 -37.38762519,-9.8425198025997 -12.4292873,-3.2808399341003 -24.825246819999,-6.5616798683 -37.18825458,-9.842519802499 -12.36300777,-3.2808399341001 -24.692865470001,-6.5616798682999 -36.98994713,-9.8425198025002 -12.297081650002,-3.2808399341996 -24.561190030001,-6.5616798682999 -36.792697139999,-9.8425198025011 -12.231507109999,-3.2808399341988 -24.430216760002,-6.5616798682989 -36.596499,-9.8425198024988 -12.16628224,-3.2808399342011 -24.299941919999,-6.5616798684 -36.401347099999,-9.8425198025001 -12.101405180001,-3.2808399341998 -24.170361760001,-6.5616798684009 -36.207235840001,-9.8425198025999 -12.03687409,-3.2808399341001 -24.041472599999,-6.5616798682999 -36.0141597,-9.8425198025011 -11.972687099999,-3.2808399338 -23.913270739999,-6.5616798687987 -35.822113129999,-9.8425198027989 -11.908842390001,-3.280839934001 -23.785752520001,-6.5616798680012 -35.631090660001,-9.84251980199998 -11.84533814,-3.2808399340002 -23.6589143,-6.5616798690012 -35.44108683,-9.84251980300002 -11.782172519999,-3.2808399340001 -23.53275244,-6.56167986799889 -35.25209618,-9.84251980199997 -11.719343749999,-3.28083993400105 -23.40726335,-6.56167986899895 -35.064113349999,-9.842519803 -11.656849999999,-3.2808399340001 -23.282443429999,-6.56167986800114 -34.877132940001,-9.84251980199996 -11.5946895,-3.2808399340001 -23.158289109998,-6.56167986900115 -34.691149589998,-9.84251980299905 -11.532860490001,-3.28083993400109 -23.03479686,-6.56167986799978 -34.506158030001,-9.84251980199998 -11.47136117,-3.28083993400102 -22.911963120001,-6.56167986899983 -34.32215292,-9.84251980299993 -11.4101898,-3.28083993400108 -22.789784410002,-6.5616798679999 -34.139129040002,-9.84251980200001 -11.34934462,-3.28083993500102 -22.66825721,-6.56167986899978 -33.957081119999,-9.842519803000001 -11.28882391,-3.280839934000107 -22.547378069999,-6.561679867999798 -33.776004,-9.8425198019999076 -11.22862592,-3.2808399350001913 -22.42714351,-6.5616798689997812 -33.59589246,-9.8425198029999787 -11.168748939999,-3.28083993400011 -22.307550109999,-6.5616798679998 -33.416741370001,-9.84251980199999 -11.109191269999,-3.28083993500011 -22.188594449999,-6.56167986899979 -33.23854562,-9.84251980299991 -11.04995118,-3.28083993400019 -22.07027312,-6.56167986799982 -33.06130011,-9.84251980199999 -10.991026979999,-3.28083993500011 -21.952582729998,-6.56167986899981 -32.884999739999,-9.84251980299991 -10.93241702,-3.28083993400022 -21.835519939999,-6.56167986799991 -32.709639520001,-9.84251980200001 -10.874119579998,-3.28083993500011 -21.719081389999,-6.56167986899978 -32.535214409999,-9.84251980299998 -10.816133019999,-3.28083993400011 -21.603263750001,-6.5616798679998 -32.361719420001,-9.8425198029999 -10.758455669999,-3.28083993399882 -21.48806371,-6.56167986799993 -32.189149599999,-9.842519802 -10.701085889999,-3.28083993400011 -21.373477980001,-6.5616798679998 -32.017500010001,-9.842519803 -10.64402204,-3.28083993400023 -21.259503289999,-6.56167986799993 -31.846765759999,-9.84251980200003 -10.587262479999,-3.2808399339988 -21.146136359998,-6.5616798679999 -31.676941939998,-9.842519803 -10.53080559,-3.2808399339988 -21.033373960001,-6.5616798679989 -31.50802372,-9.842519802 -10.47464976,-3.2808399340001 -20.92121288,-6.5616798679998 -31.340006259999,-9.8425198029999 -10.41879338,-3.2808399340002 -20.80964989,-6.5616798679999 -31.17288475,-9.8425198020001 -10.363234859999,-3.2808399339987 -20.69868182,-6.5616798679989 -31.006654429999,-9.8425198029989 -10.307972600001,-3.2808399340002 -20.588305490001,-6.561679868 -30.841310530001,-9.8425198020002 -10.25300504,-3.2808399340011 -20.478517749999,-6.5616798689997 -30.67684834,-9.8425198029999 -10.19833059,-3.280839934001 -20.369315459999,-6.5616798680012 -30.51326314,-9.842519802 -10.143947689999,-3.2808399340002 -20.260695490002,-6.5616798690012 -30.35055028,-9.8425198029999 -10.089854789999,-3.2808399340002 -20.15265473,-6.5616798679998 -30.18870507,-9.842519802 -10.036050340002,-3.2808399340002 -20.045190100002,-6.561679868999 -30.027722910002,-9.8425198029999 -9.98253281,-3.2808399340002 -19.938298539998,-6.5616798680012 -29.867599199998,-9.8425198020002 -9.929300660002,-3.2808399340001 -19.831976980001,-6.5616798690012 -29.70832935,-9.8425198029999 -9.876352379999,-3.2808399340002 -19.726222379999,-6.5616798679989 -29.549908810001,-9.842519802 -9.82368644,-3.2808399340002 -19.621031719998,-6.5616798689989 -29.392333060001,-9.8425198029991 -9.771301339998,-3.2808399340008 -19.516401989998,-6.5616798679997 -29.235597569999,-9.8425198019999 -9.719195590001,-3.2808399350011 -19.412330210002,-6.5616798689999 -29.079697900001,-9.842519803 -9.667367690001,-3.2808399340011 -19.308813380001,-6.5616798679999 -28.924629550001,-9.8425198020001 -9.615816160002,-3.280839935 -19.20584856,-6.5616798689998 -28.770388110001,-9.8425198029998 -9.564539540001,-3.2808399340003 -19.103432809999,-6.5616798679999 -28.616969170001,-9.842519802 -9.513536360001,-3.2808399350001 -19.0015632,-6.5616798689999 -28.464368349999,-9.8425198030001 -9.462805140001,-3.280839934 -18.900236800001,-6.5616798679997 -28.312581260001,-9.8425198019999 -9.41234446,-3.2808399350002 -18.799450739999,-6.5616798689998 -28.16160359,-9.842519803 -9.362152860002,-3.2808399340001 -18.69920212,-6.5616798679999 -28.011431020002,-9.8425198020001 -9.312228899998,-3.280839935 -18.59948807,-6.5616798689998 -27.862059229999,-9.8425198029998 -9.26257117,-3.2808399339987 -18.50030576,-6.5616798679997 -27.713483990001,-9.8425198029998 -9.213178229999,-3.2808399339989 -18.401652330001,-6.5616798680001 -27.565701019998,-9.842519802 -9.164048690001,-3.2808399340001 -18.303524980001,-6.5616798679998 -27.418706110001,-9.8425198030001 -9.115181130001,-3.280839934 -18.20592089,-6.5616798679997 -27.27249505,-9.8425198019999 -9.066574160001,-3.2808399339989 -18.108837280001,-6.5616798679989 -27.127063670001,-9.842519803 -9.018226390001,-3.2808399339988 -18.012271379999,-6.561679867999 -26.982407810001,-9.8425198020001 -8.970136429998,-3.280839934 -17.916220409998,-6.5616798679997 -26.838523330001,-9.8425198029998 -8.922302909998,-3.2808399340003 -17.820681639997,-6.5616798679997 -26.695406109999,-9.842519802 -8.874724469999,-3.2808399339988 -17.725652329999,-6.561679867999 -26.55305207,-9.8425198029989 -8.82739974,-3.2808399340003 -17.631129769999,-6.561679868 -26.411457149999,-9.8425198020001 -8.780327370001,-3.2808399340011 -17.537111250002,-6.5616798689997 -26.27061727,-9.842519803 -8.733506019999,-3.2808399340009 -17.443594089999,-6.5616798680012 -26.130528440001,-9.8425198019998 -8.686934339999,-3.2808399340003 -17.350575609998,-6.5616798690012 -25.99118662,-9.842519803 -8.640611009999,-3.2808399340001 -17.258053160001,-6.5616798679998 -25.852587859997,-9.8425198020001 -8.594534700003,-3.2808399340001 -17.166024080003,-6.5616798689998 -25.71472817,-9.8425198029998 -8.548704090002,-3.2808399340003 -17.07448576,-6.5616798680012 -25.577603630001,-9.8425198019997 -8.50311788,-3.2808399340005 -16.98343557,-6.5616798689989 -25.441210309999,-9.8425198030003 -8.457774750001,-3.2808399339998 -16.892870900001,-6.5616798679987 -25.305544309999,-9.842519802 -8.412673420001,-3.2808399349998 -16.802789160001,-6.5616798689983 -25.17060175,-9.8425198029996 -8.367812590002,-3.280839934 -16.713187790001,-6.5616798679989 -25.036378780002,-9.8425198019991 -8.323190980001,-3.280839935001 -16.62406423,-6.5616798690011 -24.90287155,-9.8425198030013 -8.27880732,-3.2808399339992 -16.535415909998,-6.5616798679994 -24.770076249999,-9.8425198019986 -8.234660340001,-3.2808399350007 -16.447240329999,-6.5616798690007 -24.637989099998,-9.8425198029997 -8.19074877,-3.2808399340014 -16.359534939999,-6.5616798680013 -24.5066063,-9.8425198020016 -8.147071359997,-3.2808399349997 -16.272297229998,-6.5616798689998 -24.375924099999,-9.8425198029998 -8.10362686,-3.2808399340003 -16.185524729999,-6.5616798679978 -24.245938760001,-9.8425198020005 -8.060414040001,-3.2808399350004 -16.099214949998,-6.5616798689989 -24.11664659,-9.842519803 -8.017431639998,-3.2808399339992 -16.01336541,-6.5616798680003 -23.98804386,-9.8425198020002 -7.974678449998,-3.280839934999 -15.927973669999,-6.5616798689991 -23.860126909998,-9.8425198030002 -7.93215325,-3.2808399339999 -15.843037279999,-6.5616798680004 -23.73289209,-9.842519803 -7.889854800001,-3.2808399340001 -15.758553820002,-6.5616798680001 -23.606335740002,-9.8425198019986 -7.847781919998,-3.2808399340011 -15.674520870001,-6.5616798680003 -23.480454260001,-9.8425198029998 -7.80593339,-3.2808399340012 -15.590936019998,-6.5616798679995 -23.355244049997,-9.8425198020005 -7.76430802,-3.2808399340011 -15.507796899999,-6.5616798680002 -23.230701519999,-9.842519803 -7.72290463,-3.2808399340011 -15.42510112,-6.5616798680003 -23.106823130001,-9.8425198020011 -7.681722010002,-3.2808399339986 -15.342846310001,-6.5616798679978 -22.983605310002,-9.8425198030002 -7.640758999999,-3.2808399339982 -15.26103014,-6.5616798679976 -22.861044570001,-9.8425198019977 -7.600014430001,-3.2808399340011 -15.179650240003,-6.5616798680003 -22.739137370003,-9.842519803 -7.55948713,-3.2808399340011 -15.098704309998,-6.5616798680021 -22.617880249998,-9.8425198020022 -7.51917594,-3.2808399339991 -15.018190029999,-6.5616798689998 -22.497269739999,-9.842519803 -7.479079720002,-3.2808399339992 -14.938105090001,-6.5616798679976 -22.377302390003,-9.8425198019977 -7.439197309998,-3.2808399340011 -14.858447209998,-6.5616798690008 -22.257974769997,-9.842519803 -7.39952757,-3.2808399340011 -14.7792141,-6.5616798680012 -22.13928347,-9.8425198020022 -7.360069360001,-3.2808399340001 -14.700403500001,-6.5616798659975 -22.021225080001,-9.8425198059977 -7.320821579999,-3.2808399299994 -14.622013170002,-6.5616798699994 -21.90379626,-9.8425198000015 -7.28178308,-3.2808399300001 -14.54404085,-6.56167987 -21.78699362,-9.8425197999977 -7.242952760001,-3.28083994 -14.466484330001,-6.5616798699999 -21.670813830001,-9.8425198000022 -7.204329500002,-3.28083994 -14.38934138,-6.5616798699984 -21.555253580001,-9.8425198099994 -7.165912210001,-3.2808399300013 -14.312609799998,-6.56167987 -21.44030957,-9.8425198000003 -7.127699759999,-3.280839930002 -14.236287379999,-6.5616798700013 -21.325978479999,-9.8425198000025 -7.089691090001,-3.2808399399981 -14.160371960004,-6.5616798699986 -21.212257070001,-9.8425197999975 -7.051885110003,-3.280839940001 -14.084861360001,-6.5616798700021 -21.09914209,-9.8425198100022 -7.014280730001,-3.280839929997 -14.009753419999,-6.561679869999 -20.98663029,-9.8425197999979 -6.976876870003,-3.2808399300012 -13.935046009999,-6.5616798700011 -20.874718480002,-9.8425198000009 -6.93967247,-3.2808399399991 -13.860736959998,-6.5616798699989 -20.76340342,-9.8425198000009 -6.902666459999,-3.2808399400001 -13.78682417,-6.5616798699999 -20.652681960001,-9.842519810001 -6.865857790001,-3.2808399300011 -13.71330553,-6.5616798699989 -20.542550929996,-9.8425198 -6.829245410001,-3.2808399300011 -13.64017893,-6.5616798700011 -20.433007179997,-9.8425198000022 -6.792828250002,-3.2808399399999 -13.567442270003,-6.5616798699989 -20.324047560004,-9.8425197999978 -6.7566053,-3.280839940001 -13.49509349,-6.5616798700011 -20.215668979996,-9.8425198100022 -6.720575500003,-3.280839929999 -13.423130510002,-6.5616798699999 -20.107868340001,-9.8425197999998 -6.684737829999,-3.2808399299992 -13.351551260005,-6.5616798699989 -20.000642540005,-9.8425198000009 -6.649091269998,-3.2808399400001 -13.280353719997,-6.5616798700011 -19.893988519997,-9.8425198000009 -6.613634790001,-3.2808399400001 -13.209535850001,-6.561679869998 -19.787903239999,-9.842519809999 -6.578367399998,-3.280839930002 -13.139095609998,-6.5616798700023 -19.682383669999,-9.8425198000031 -6.543288060003,-3.280839929999 -13.069031000002,-6.5616798699979 -19.57742678,-9.8425197999989 -6.508395779998,-3.280839940001 -12.999340009995,-6.561679870002 -19.47302958,-9.842519800002 -6.473689569998,-3.280839939999 -12.930020639996,-6.56167987 -19.369189069999,-9.842519809999 -6.439168430005,-3.28083993 -12.861070930001,-6.561679869999 -19.2659023,-9.8425198 -6.404831380002,-3.280839930002 -12.792488889999,-6.561679870001 -19.163166320002,-9.842519800001 -6.37067742,-3.280839939999 -12.724272569998,-6.56167987 -19.060978169998,-9.8425198 -6.336705599997,-3.28083994 -12.656420010001,-6.56167987 -18.959334940001,-9.842519810001 -6.30291493,-3.280839930001 -12.588929279999,-6.56167987 -18.858233729996,-9.8425198 -6.269304450001,-3.28083993 -12.52179844,-6.561679869998 -18.75767164,-9.8425198 -6.235873200001,-3.280839940001 -12.455025590002,-6.561679870001 -18.657645809999,-9.842519800002 -6.202620230001,-3.280839939999 -12.3886088,-6.561679869999 -18.55815337,-9.842519809999 -6.169544569999,-3.28083993 -12.322546179999,-6.56167987 -18.459191469996,-9.842519800002 -6.136645290002,-3.280839930002 -12.256835830003,-6.56167987 -18.360757290001,-9.8425198 -6.103921449997,-3.28083994 -12.19147589,-6.561679870001 -18.262848010001,-9.842519800001 -6.07137211,-3.280839940001 -12.126464489997,-6.56167987 -18.165460829996,-9.84251981 -6.038996340003,-3.28083993 -12.061799770001,-6.561679869999 -18.068592980002,-9.8425198 -6.00679322,-3.280839930002 -11.997479869999,-6.561679870001 -17.972241679999,-9.842519800003 -5.974761819997,-3.28083994 -11.933502960003,-6.561679869998 -17.876404179999,-9.842519799997 -5.942901219999,-3.280839940001 -11.869867200001,-6.561679870002 -17.781077719996,-9.842519810002 -5.911210530001,-3.280839929999 -11.806570780001,-6.561679869999 -17.68625961,-9.842519799998 -5.879688820001,-3.280839930001 -11.743611889999,-6.561679870001 -17.591947100001,-9.842519800001 -5.848335210002,-3.280839940001 -11.680988740001,-6.561679869999 -17.49813753,-9.84251981 -5.817148790002,-3.28083993 -11.618699530001,-6.561679860001 -17.4048282,-9.842519800001 -5.78612867,-3.280839930001 -11.556742470003,-6.561679870001 -17.312016440001,-9.842519800001 -5.755273970001,-3.28083993 -11.4951158,-6.561679869999 -17.219699599999,-9.842519800001 -5.724583810001,-3.280839940001 -11.433817760002,-6.56167987 -17.127875050004,-9.84251981 -5.694057300001,-3.280839929999 -11.37284659,-6.561679859998 -17.036540160001,-9.842519800001 -5.663693559996,-3.280839930001 -11.31220055,-6.561679870001 -16.945692299998,-9.8425198 -5.633491750001,-3.28083993 -11.251877910001,-6.561679869999 -16.855328900002,-9.842519799998 -5.603450989999,-3.280839940001 -11.191876939999,-6.561679870002 -16.765447360001,-9.842519810002 -5.573570429999,-3.280839929999 -11.132195930002,-6.561679859998 -16.676045129999,-9.842519799997 -5.543849200001,-3.280839930002 -11.072833160001,-6.561679870001 -16.587119620002,-9.842519800003 -5.514286460002,-3.280839929999 -11.013786960003,-6.561679869997 -16.498668320003,-9.8425198 -5.48488137,-3.28083994 -10.955055619998,-6.56167987 -16.410688690001,-9.842519810001 -5.455633069997,-3.280839930001 -10.89663746,-6.561679859998 -16.32317821,-9.8425198 -5.426540749999,-3.280839929999 -10.838530820001,-6.561679869998 -16.236134379995,-9.8425198 -5.397603559999,-3.280839930002 -10.780734030004,-6.56167987 -16.149554710003,-9.842519799997 -5.368820689997,-3.280839940001 -10.723245459998,-6.561679870001 -16.063436750002,-9.842519810002 -5.34019128,-3.280839929999 -10.666063430001,-6.561679859999 -15.977777990003,-9.8425198 -5.31171456,-3.280839930002 -10.609186339999,-6.561679869998 -15.89257602,-9.842519799999 -5.283389690001,-3.280839930003 -10.552612540001,-6.561679870001 -15.807828399997,-9.842519800003 -5.25521586,-3.280839939998 -10.496340420004,-6.561679869998 -15.723532680004,-9.842519809999 -5.227192269997,-3.280839930002 -10.440368379995,-6.561679860001 -15.639686489998,-9.842519800002 -5.199318110004,-3.28083993 -10.384694810001,-6.561679869998 -15.5562874,-9.842519799997 -5.171592589999,-3.280839930002 -10.329318119998,-6.561679870001 -15.473333039997,-9.842519800001 -5.144014920005,-3.28083994 -10.274236720002,-6.56167987 -15.390821030002,-9.842519810001 -5.116584309999,-3.280839929999 -10.219449060001,-6.561679859999 -15.308749029997,-9.842519799999 -5.089299979999,-3.280839930003 -10.16495355,-6.561679870001 -15.227114680001,-9.842519800003 -5.062161129997,-3.280839929999 -10.110748629999,-6.561679869998 -15.145915639999,-9.8425198 -5.035167009999,-3.280839940001 -10.056832770001,-6.56167987 -15.0651496,-9.842519810001 -5.008316830001,-3.28083993 -10.003204409999,-6.561679859999 -14.984814250001,-9.8425198 -4.981609839997,-3.280839929998 -9.94986203,-6.561679869998 -14.904907279999,-9.8425198 -4.955045259997,-3.280839929999 -9.896804099998,-6.56167987 -14.82542643,-9.8425198 -4.928622339999,-3.280839940001 -9.844029100003,-6.56167987 -14.746369410003,-9.842519810001 -4.90234031,-3.280839930002 -9.791535530001,-6.561679859999 -14.667733960001,-9.8425198 -4.876198439998,-3.280839930002 -9.739321869999,-6.56167987 -14.589517839998,-9.8425198 -4.85019596,-3.280839929999 -9.687386650001,-6.56167987 -14.511718800002,-9.842519800002 -4.824332149998,-3.280839940001 -9.635728379999,-6.561679869998 -14.43433464,-9.842519809999 -4.798606259999,-3.280839929999 -9.584345580001,-6.561679859999 -14.357363130002,-9.8425198 -4.773017549999,-3.280839930002 -9.53323677,-6.56167987 -14.280802059998,-9.8425198 -4.74756529,-3.280839929999 -9.48240051,-6.561679869999 -14.20464927,-9.8425198 -4.722248760001,-3.28083994 -9.431835319999,-6.561679870003 -14.128902559999,-9.842519810002 -4.697067230001,-3.280839929999 -9.381539780001,-6.561679859997 -14.05355977,-9.842519799998 -4.672019980001,-3.280839930001 -9.331512450002,-6.56167987 -13.978618750001,-9.842519800002 -4.647106299999,-3.280839929999 -9.28175188,-6.561679869998 -13.90407735,-9.8425198 -4.622325470001,-3.28083994 -9.232256670002,-6.56167987 -13.829933459999,-9.842519810001 -4.597676780001,-3.28083993 -9.183025390004,-6.561679859999 -13.756184920001,-9.842519800001 -4.57315954,-3.280839929999 -9.134056639999,-6.561679869999 -13.682829670002,-9.842519800001 -4.54877303,-3.28083994 -9.08534901,-6.56167987 -13.60986558,-9.842519799998 -4.524516559998,-3.28083994 -9.036901119999,-6.56167987 -13.537290569998,-9.842519810001 -4.500389440003,-3.280839930001 -8.988711580002,-6.56167986 -13.46510256,-9.8425198 -4.476390989999,-3.280839930001 -8.94077902,-6.56167987 -13.393299519999,-9.842519800001 -4.452520500001,-3.28083994 -8.893102049997,-6.561679870001 -13.32187935,-9.842519800002 -4.428777299999,-3.28083994 -8.84567932,-6.561679869999 -13.250840040001,-9.84251981 -4.405160709998,-3.28083993 -8.79850947,-6.561679860001 -13.180179540003,-9.842519800002 -4.38167007,-3.280839929998 -8.751591169996,-6.561679869998 -13.109895849999,-9.842519799998 -4.358304679998,-3.28083994 -8.704923050003,-6.56167987 -13.03998694,-9.842519800001 -4.3350639,-3.28083994 -8.6585038,-6.561679869998 -12.970450840001,-9.842519809999 -4.311947039999,-3.280839930001 -8.61233206,-6.561679860001 -12.90128552,-9.842519800002 -4.288953449999,-3.280839930001 -8.566406549998,-6.56167987 -12.832489039998,-9.8425198 -4.266082479998,-3.280839939999 -8.520725929998,-6.561679869999 -12.76405941,-9.842519800001 -4.24333347,-3.28083994 -8.475288909999,-6.56167987 -12.69599469,-9.84251981 -4.22070577,-3.28083993 -8.430094190002,-6.561679859999 -12.628292929998,-9.8425198 -4.198198730004,-3.280839930001 -8.385140459999,-6.561679870001 -12.560952179999,-9.842519800002 -4.175811720001,-3.280839939999 -8.340426450002,-6.561679869998 -12.493970540001,-9.842519799997 -4.15354408,-3.280839940001 -8.295950880002,-6.561679870002 -12.427346069998,-9.842519810003 -4.131395180003,-3.280839929999 -8.251712480005,-6.561679859997 -12.36107688,-9.842519799997 -4.109364400001,-3.280839930001 -8.207709990005,-6.561679870002 -12.29516108,-9.842519800002 -4.087451090002,-3.280839940001 -8.163942130001,-6.561679869999 -12.229596770002,-9.842519800001 -4.065654640002,-3.280839939999 -8.120407670003,-6.561679869999 -12.164382090002,-9.84251981 -4.043974419999,-3.28083993 -8.077105349999,-6.561679859998 -12.099515159999,-9.842519800001 -4.022409799998,-3.280839929998 -8.034033949998,-6.561679869998 -12.034994139998,-9.8425198 -4.00096019,-3.28083994 -7.991192230001,-6.561679870001 -11.970817180001,-9.842519800001 -3.979624949998,-3.28083994 -7.94857897,-6.561679869999 -11.906982450001,-9.84251981 -3.95840348,-3.28083993 -7.906192940002,-6.561679859999 -11.843488119999,-9.842519800001 -3.93729518,-3.280839930001 -7.86403293,-6.56167987 -11.780332360002,-9.8425198 -3.916299439999,-3.28083994 -7.822097749997,-6.561679869999 -11.7175134,-9.8425198 -3.895415659999,-3.280839940001 -7.780386179996,-6.561679870001 -11.655029409998,-9.842519810001 -3.874643240001,-3.28083993 -7.738897039999,-6.561679859999 -11.592878630001,-9.8425198 -3.853981590002,-3.280839929998 -7.697629139999,-6.561679869999 -11.531059259999,-9.8425198 -3.833430120001,-3.28083994 -7.656581309998,-6.56167987 -11.469569550002,-9.8425198 -3.81298824,-3.28083994 -7.615752360001,-6.56167987 -11.40840773,-9.84251981 -3.792655370001,-3.280839930001 -7.575141140003,-6.561679859999 -11.347572060001,-9.842519800001 -3.772430929999,-3.280839930001 -7.534746480001,-6.56167987 -11.287060809999,-9.842519800001 -3.752314320001,-3.28083994 -7.494567220002,-6.561679870001 -11.226872210001,-9.842519800001 -3.732305000002,-3.28083994 -7.454602229998,-6.561679869998 -11.167004600001,-9.842519809999 -3.71240237,-3.280839930001 -7.414850329998,-6.561679860001 -11.107456209999,-9.842519800002 -3.69260588,-3.280839929999 -7.37531043,-6.561679869999 -11.04822538,-9.842519799998 -3.672914939999,-3.28083994 -7.335981370001,-6.561679870001 -10.989310384999,-9.842519800001 -3.653329019,-3.280839940001 -7.296862033002,-6.561679869999 -10.930709569001,-9.842519809999 -3.633847534998,-3.280839930001 -7.257951302002,-6.561679859999 -10.872421238999,-9.842519800001 -3.614469937001,-3.280839930002 -7.219248064001,-6.561679870002 -10.814443734003,-9.8425198 -3.595195669002,-3.28083994 -7.180751210999,-6.561679869998 -10.756775394,-9.8425198 -3.576024183001,-3.280839940001 -7.142459644998,-6.561679869999 -10.699414574002,-9.84251981 -3.556954929,-3.280839929997 -7.104372268998,-6.561679859998 -10.642359631999,-9.8425198 -3.537987362002,-3.280839930002 -7.066487995001,-6.561679870002 -10.585608936002,-9.8425198 -3.519120939998,-3.280839940001 -7.028805739997,-6.561679869999 -10.529160865001,-9.842519799999 -3.500355124998,-3.280839940001 -6.991324427998,-6.561679870003 -10.473013805998,-9.842519810003 -3.481689378999,-3.280839930002 -6.954042985,-6.561679869999 -10.417166151997,-9.8425198 -3.463123167999,-3.280839930001 -6.916960347,-6.561679870002 -10.361616308003,-9.8425198 -3.444655961999,-3.280839940001 -6.880075451999,-6.561679869998 -10.306362684997,-9.8425198 -3.426287232004,-3.280839940001 -6.843387247,-6.561679869999 -10.251403702002,-9.84251981 -3.408016455,-3.280839930002 -6.806894684001,-6.561679869999 -10.196737791,-9.8425198 -3.389843108002,-3.280839929999 -6.770596719,-6.561679869999 -10.142363387997,-9.842519800001 -3.371766668999,-3.28083994 -6.734492311999,-6.561679870002 -10.088278936998,-9.8425198 -3.353786624002,-3.280839939999 -6.698580434002,-6.561679869999 -10.034482893001,-9.84251981 -3.335902459,-3.280839930001 -6.662860057002,-6.561679870001 -9.980973717997,-9.842519800001 -3.318113661001,-3.28083993 -6.627330159999,-6.561679869998 -9.927749883003,-9.8425198 -3.300419722,-3.28083994 -6.591989727003,-6.561679870001 -9.874809865001,-9.842519800003 -3.282820136999,-3.28083994 -6.556837749,-6.561679869998 -9.822152150997,-9.842519809999 -3.265314401999,-3.280839929999 -6.521873218999,-6.561679869999 -9.769775236,-9.8425198 -3.247902017999,-3.28083993 -6.487095139002,-6.56167987 -9.717677622999,-9.842519800001 -3.230582485001,-3.280839939999 -6.452502513,-6.561679869999 -9.665857822002,-9.8425198 -3.213355308999,-3.28083994 -6.418094353997,-6.561679870001 -9.614314350999,-9.842519810001 -3.196219997002,-3.280839929997 -6.383869677,-6.561679869998 -9.563045736999,-9.8425198 -3.179176060001,-3.280839930001 -6.349827505,-6.561679870001 -9.512050514999,-9.8425198 -3.162223010001,-3.280839940001 -6.315966863003,-6.561679869998 -9.461327226002,-9.8425198 -3.145360362999,-3.280839940001 -6.282286783998,-6.561679869999 -9.410874421,-9.842519809999 -3.128587635998,-3.280839930002 -6.248786304999,-6.561679870002 -9.360690655997,-9.842519800001 -3.111904351006,-3.280839929998 -6.215464469001,-6.561679869998 -9.310774499002,-9.8425198 -3.095310029001,-3.280839940001 -6.182320321,-6.561679869999 -9.261124520004,-9.8425198 -3.078804197996,-3.280839940001 -6.149352916996,-6.561679870001 -9.211739300997,-9.842519809999 -3.062386385003,-3.280839930002 -6.116561312001,-6.56167987 -9.162617430999,-9.8425198 -3.046056118998,-3.280839930002 -6.083944569997,-6.561679870003 -9.113757504998,-9.842519800001 -3.029812935001,-3.28083994 -6.051501756001,-6.561679869999 -9.065158124997,-9.842519800001 -3.013656369001,-3.28083994 -6.019231945004,-6.561679870001 -9.016817903004,-9.842519809999 -2.997585958,-3.280839930001 -5.987134214003,-6.561679869998 -8.968735456999,-9.8425198 -2.981601242,-3.280839930001 -5.955207645,-6.56167987 -8.920909410999,-9.842519800002 -2.965701766001,-3.280839939999 -5.923451325003,-6.561679869998 -8.873338400001,-9.842519799998 -2.949887074,-3.28083994 -5.891864347003,-6.56167987 -8.826021061996,-9.842519810001 -2.934156715003,-3.28083993 -5.860445808004,-6.561679869999 -8.778956046004,-9.842519799998 -2.918510238,-3.280839930002 -5.829194807997,-6.561679870002 -8.732142005,-9.842519800002 -2.902947195999,-3.28083994 -5.798110455,-6.561679869998 -8.685577601,-9.8425198 -2.887467144999,-3.28083994 -5.767191861001,-6.561679869999 -8.639261503,-9.842519809999 -2.872069641998,-3.280839930002 -5.736438141,-6.561679869999 -8.593192387001,-9.842519800001 -2.856754246999,-3.280839929997 -5.705848417001,-6.561679869998 -8.547368936995,-9.8425198 -2.841520520004,-3.28083994 -5.675421812003,-6.561679870002 -8.501789841,-9.8425198 -2.826368028998,-3.28083994 -5.645157459,-6.561679869999 -8.456453797,-9.84251981 -2.811296338,-3.280839930001 -5.615054489998,-6.561679870001 -8.411359508004,-9.8425198 -2.796305018,-3.28083993 -5.585112047999,-6.561679869999 -8.366505687002,-9.842519800001 -2.781393639002,-3.28083994 -5.555329274004,-6.561679870001 -8.32189105,-9.842519800001 -2.766561776002,-3.28083994 -5.525705316999,-6.561679869998 -8.277514321001,-9.842519809999 -2.751809004001,-3.280839930001 -5.496239330998,-6.561679870001 -8.233374233001,-9.842519800003 -2.737134901001,-3.280839929999 -5.466930473002,-6.561679869999 -8.189469521999,-9.842519799997 -2.722539049999,-3.28083994 -5.437777906004,-6.561679870001 -8.145798937002,-9.842519800001 -2.708021029999,-3.280839940001 -5.408780794998,-6.561679869999 -8.102361223996,-9.842519809999 -2.693580428001,-3.280839930001 -5.379938313001,-6.561679869999 -8.059155144002,-9.8425198 -2.679216831998,-3.280839930002 -5.351249633999,-6.561679870002 -8.016179463998,-9.842519800001 -2.664929829004,-3.280839940001 -5.322713938005,-6.561679869998 -7.973432950006,-9.842519809999 -2.650719012997,-3.280839930002 -5.294330409999,-6.561679860004 -7.930914385999,-9.842519800004 -2.636583974999,-3.280839929998 -5.266098236999,-6.561679869998 -7.888622550997,-9.8425198 -2.622524313998,-3.280839930001 -5.238016614001,-6.561679869999 -7.846556240003,-9.842519800001 -2.608539625999,-3.28083994 -5.210084736996,-6.561679870002 -7.804714247998,-9.842519809998 -2.594629512001,-3.280839930002 -5.182301807002,-6.56167986 -7.763095381002,-9.8425198 -2.580793574003,-3.280839930002 -5.154667030003,-6.561679870003 -7.721698446001,-9.842519800002 -2.567031415997,-3.280839930001 -5.127179617002,-6.561679870001 -7.680522263,-9.8425198 -2.553342645002,-3.28083994 -5.099838780001,-6.561679869999 -7.639565651,-9.84251981 -2.539726872002,-3.280839930001 -5.072643741,-6.561679860002 -7.598827444,-9.842519800001 -2.526183703002,-3.280839929997 -5.045593719,-6.561679869998 -7.558306473,-9.8425198 -2.512712753999,-3.280839930001 -5.018687941998,-6.561679870002 -7.518001581998,-9.842519800001 -2.499313640001,-3.28083994 -4.991925640997,-6.561679869998 -7.477911618005,-9.842519809999 -2.485985975999,-3.280839930001 -4.965306050999,-6.561679860001 -7.438035433997,-9.842519800001 -2.472729382999,-3.280839930001 -4.938828411001,-6.561679870001 -7.398371892005,-9.842519799998 -2.459543480998,-3.280839930002 -4.912491963001,-6.561679870002 -7.358919855995,-9.842519800002 -2.446427893001,-3.280839940001 -4.886295955004,-6.561679869999 -7.319678200003,-9.84251981 -2.433382243996,-3.280839930001 -4.860239638996,-6.561679859999 -7.280645801,-9.8425198 -2.420406162001,-3.280839930002 -4.834322267996,-6.561679870002 -7.241821542997,-9.8425198 -2.407499276,-3.280839929997 -4.808543103003,-6.561679869998 -7.203204318001,-9.8425198 -2.394661214999,-3.280839940001 -4.782901405,-6.561679870003 -7.164793018999,-9.842519810001 -2.381891613002,-3.280839929997 -4.757396443002,-6.561679859999 -7.126586549004,-9.842519800001 -2.369190105999,-3.280839929998 -4.732027486998,-6.561679869999 -7.088583816997,-9.8425198 -2.356556331003,-3.280839929998 -4.706793811999,-6.561679869999 -7.050783736001,-9.842519799999 -2.343989924997,-3.280839940001 -4.681694695002,-6.561679870002 -7.013185224998,-9.842519810001 -2.331490530002,-3.28083993 -4.656729421,-6.561679859998 -6.975787207999,-9.842519799998 -2.319057787999,-3.280839930002 -4.631897274999,-6.561679870003 -6.938588619002,-9.842519800002 -2.306691343999,-3.28083993 -4.607197545999,-6.561679869998 -6.901588390001,-9.8425198 -2.294390844997,-3.280839940001 -4.582629530002,-6.561679870001 -6.864785468001,-9.842519810002 -2.282155938001,-3.280839930001 -4.558192523,-6.56167986 -6.828178797997,-9.8425198 -2.269986274,-3.280839929997 -4.533885827,-6.561679869999 -6.791767333002,-9.8425198 -2.257881505997,-3.280839930002 -4.509708747999,-6.561679870002 -6.755550034999,-9.842519800001 -2.245841287002,-3.28083994 -4.485660593997,-6.561679870001 -6.719525865996,-9.842519810002 -2.233865272001,-3.280839930001 -4.461740677002,-6.561679860001 -6.683693797002,-9.842519800001 -2.221953119999,-3.280839929997 -4.437948314,-6.561679869999 -6.648052803004,-9.842519799999 -2.21010449,-3.280839930001 -4.414282823995,-6.561679870001 -6.612601865999,-9.842519800001 -2.198319043001,-3.28083994 -4.390743531997,-6.561679869998 -6.577339972996,-9.842519809999 -2.186596442003,-3.280839930001 -4.367329763003,-6.561679860003 -6.542266114002,-9.842519800002 -2.174936352002,-3.28083993 -4.344040848,-6.561679869998 -6.507379288002,-9.8425198 -2.16333844,-3.280839929998 -4.320876122998,-6.561679869999 -6.472678496998,-9.842519800001 -2.151802374,-3.280839940001 -4.297834924002,-6.561679870002 -6.438162749002,-9.842519809999 -2.140327824002,-3.280839929997 -4.274916591996,-6.561679859999 -6.403831055999,-9.842519800001 -2.128914464001,-3.280839930001 -4.252120475001,-6.561679869999 -6.369682439,-9.842519800001 -2.117561965001,-3.28083993 -4.229445918002,-6.561679869998 -6.335715920999,-9.842519799999 -2.106270002999,-3.280839940001 -4.206892273003,-6.561679870003 -6.301930529,-9.842519810003 -2.095038257,-3.280839930002 -4.184458896002,-6.561679859998 -6.268325299998,-9.842519800001 -2.083866403999,-3.280839930001 -4.162145146002,-6.561679869998 -6.234899271001,-9.8425198 -2.072754124999,-3.280839930001 -4.139950384998,-6.561679870002 -6.201651487002,-9.842519800004 -2.061701102998,-3.280839939997 -4.117873977997,-6.561679869998 -6.168580999196,-9.842519809998 -2.050707021,-3.280839929999 -4.095915293903,-6.561679859999 -6.135686859402,-9.842519800001 -2.039771565499,-3.280839929998 -4.074073705201,-6.561679869998 -6.102968128901,-9.8425198 -2.028894423699,-3.280839940001 -4.0523485875,-6.561679869998 -6.0704238721,-9.8425198 -2.0180752847,-3.280839940001 -4.030739319599,-6.561679870002 -6.038053158597,-9.842519810003 -2.007313838901,-3.280839930001 -4.009245283701,-6.561679859998 -6.0058550627,-9.8425198 -1.996609778902,-3.280839930002 -3.9878658656,-6.561679870002 -5.973828664104,-9.842519800001 -1.985962798598,-3.28083994 -3.966600453699,-6.561679870002 -5.941973047398,-9.8425198 -1.975372593601,-3.280839940001 -3.945448440198,-6.561679869998 -5.910287301502,-9.842519809999 -1.964838861301,-3.280839930002 -3.924409220599,-6.561679860003 -5.878770520898,-9.842519800001 -1.954361300297,-3.280839929999 -3.9034821931,-6.561679869998 -5.847421804401,-9.8425198 -1.943939611299,-3.28083994 -3.882666759597,-6.56167987 -5.816240255901,-9.842519800002 -1.933573496198,-3.280839939999 -3.861962324998,-6.561679870001 -5.785224983798,-9.84251981 -1.9232626588,-3.280839929997 -3.841368297698,-6.561679859998 -5.754375101702,-9.8425198 -1.913006804096,-3.280839930001 -3.820884088298,-6.561679869999 -5.723689727497,-9.842519800001 -1.902805639199,-3.28083994 -3.800509111601,-6.561679870001 -5.693167983859,-9.8425198 -1.89265887226,-3.28083994 -3.780242785172,-6.561679869998 -5.66280899836,-9.842519809999 -1.88256621319,-3.280839930002 -3.760084529427,-6.561679860003 -5.63261190304,-9.842519800004 -1.8725273736,-3.280839929998 -3.740033768319,-6.561679869998 -5.602575834611,-9.8425198 -1.862542066302,-3.28083994 -3.720089928431,-6.561679870002 -5.572699934435,-9.842519800001 -1.852610006,-3.280839940001 -3.700252439599,-6.561679869998 -5.542983348296,-9.842519809999"
       title="(pow((((sqrt(5.0))-1.0)/2.0),(x/90.0)))*2000"
       id="path17145" />
    <text
       sodipodi:linespacing="125%"
       id="text17552"
       y="-6875.7813"
       x="-3171.415"
       style="font-style:normal;font-variant:normal;font-weight:normal;font-stretch:normal;font-size:125px;line-height:125%;font-family:sans-serif;-inkscape-font-specification:'sans-serif, Normal';text-align:start;letter-spacing:0px;word-spacing:0px;writing-mode:lr-tb;text-anchor:start;fill:#000000;fill-opacity:1;stroke:none;stroke-width:1px;stroke-linecap:butt;stroke-linejoin:miter;stroke-opacity:1"
       xml:space="preserve"
       transform="matrix(0,1,-1,0,0,0)"><tspan
         id="tspan17564"
         y="-6875.7813"
         x="-3171.415"
         sodipodi:role="line">y=(pow((((sqrt(5.0))-1.0)/2.0),(x/90.0)))*2000</tspan><tspan
         id="tspan17566"
         y="-6719.5313"
         x="-3171.415"
         sodipodi:role="line" /><tspan
         id="tspan17568"
         y="-6563.2813"
         x="-3171.415"
         sodipodi:role="line" /><tspan
         id="tspan17570"
         y="-6407.0313"
         x="-3171.415"
         sodipodi:role="line" /><tspan
         id="tspan17572"
         y="-6250.7813"
         x="-3171.415"
         sodipodi:role="line" /></text>
    <g
       id="g18002"
       transform="translate(-12.82053565212891,378.6960828879257)">
      <path
         sodipodi:nodetypes="cc"
         inkscape:connector-curvature="0"
         style="color:#000000;clip-rule:nonzero;display:inline;overflow:visible;visibility:visible;opacity:1;isolation:auto;mix-blend-mode:normal;color-interpolation:sRGB;color-interpolation-filters:linearRGB;solid-color:#000000;solid-opacity:1;fill:none;fill-opacity:1;fill-rule:nonzero;stroke:#00ff00;stroke-width:35.4330711365;stroke-linecap:round;stroke-linejoin:round;stroke-miterlimit:10;stroke-dasharray:none;stroke-dashoffset:0;stroke-opacity:1;marker-start:url(#Arrow1Mstart);color-rendering:auto;image-rendering:auto;shape-rendering:auto;text-rendering:auto;enable-background:accumulate"
         d="m 1749.041008093073,-172.6376972517065 -1736.22047244094414,0"
         id="rect17590" />
      <path
         inkscape:connector-curvature="0"
         style="color:#000000;clip-rule:nonzero;display:inline;overflow:visible;visibility:visible;opacity:1;isolation:auto;mix-blend-mode:normal;color-interpolation:sRGB;color-interpolation-filters:linearRGB;solid-color:#000000;solid-opacity:1;fill:none;fill-opacity:1;fill-rule:nonzero;stroke:#ff0000;stroke-width:35.4330711365;stroke-linecap:round;stroke-linejoin:round;stroke-miterlimit:10;stroke-dasharray:none;stroke-dashoffset:0;stroke-opacity:1;marker-start:url(#Arrow2Mstart);color-rendering:auto;image-rendering:auto;shape-rendering:auto;text-rendering:auto;enable-background:accumulate"
         d="m 12.82053565212891,-1908.858169692652 0,1736.2204724409457"
         id="path17595" />
      <path
         style="font-style:normal;font-variant:normal;font-weight:normal;font-stretch:normal;font-size:medium;line-height:125%;font-family:'Alte DIN 1451 Mittelschrift';-inkscape-font-specification:'Alte DIN 1451 Mittelschrift, Normal';text-align:start;letter-spacing:0px;word-spacing:0px;writing-mode:lr-tb;text-anchor:start;fill:#ff0000;fill-opacity:1;stroke:none;stroke-width:1px;stroke-linecap:butt;stroke-linejoin:miter;stroke-opacity:1"
         d="m 190.932541243149,-1901.629244215758 131.8100508541411,77.578240262862 -131.8100508541411,77.821432238612 0,60.554801960669 181.664405882,-108.463621182562 172.666302779417,101.654245861684 0,-60.797993936414 -122.8119477515561,-70.768864941987 122.8119477515561,-70.52567296624 0,-60.797993936414 -172.666302779417,101.654245861684 -181.664405882,-108.706813158307 0,60.797993936414 z"
         id="path17884"
         inkscape:connector-curvature="0" />
      <path
         style="font-style:normal;font-variant:normal;font-weight:normal;font-stretch:normal;font-size:medium;line-height:125%;font-family:'Alte DIN 1451 Mittelschrift';-inkscape-font-specification:'Alte DIN 1451 Mittelschrift, Normal';text-align:start;letter-spacing:0px;word-spacing:0px;writing-mode:lr-tb;text-anchor:start;fill:#00ff00;fill-opacity:1;stroke:none;stroke-width:1px;stroke-linecap:butt;stroke-linejoin:miter;stroke-opacity:1"
         d="m 1462.387952016659,-584.6591892991755 145.671993471647,0 208.65871518977,106.2748934008519 0,-56.4205383729927 -157.345208307439,-75.389512481152 157.345208307439,-75.146320505409 0,-56.6637303487371 -208.65871518977,106.518085376596 -145.671993471647,0 0,50.8271229308427 z"
         id="path17886"
         inkscape:connector-curvature="0" />
    </g>
    <path
       id="path17946"
       title="(pow((((sqrt(5.0))-1.0)/2.0),(x/90.0)))*2000"
       d="m 7086.614173228358,215.9009054386504 c -1136.44740228,-295.27559407600006 -2004.14459353,-590.5511881509999 -2706.845781330001,-885.8267822269996 -702.701187800002,-295.275594073 -1238.629477170002,-590.5511881529997 -1672.922695160002,-885.8267822229996 -434.293217999998,-295.275594079999 -765.515116358998,-590.551188150001 -1033.923086165001,-885.82678223 -268.407969805997,-295.27559408 -473.114360808998,-590.551188150001 -638.999609000699,-885.82678223"
       style="color:#000000;clip-rule:nonzero;display:inline;overflow:visible;visibility:visible;opacity:1;isolation:auto;mix-blend-mode:normal;color-interpolation:sRGB;color-interpolation-filters:linearRGB;solid-color:#000000;solid-opacity:1;fill:none;fill-opacity:1;fill-rule:nonzero;stroke:#000000;stroke-width:17.7165355682;stroke-linecap:round;stroke-linejoin:round;stroke-miterlimit:10;stroke-dasharray:none;stroke-dashoffset:0;stroke-opacity:1;marker-mid:url(#DiamondM);color-rendering:auto;image-rendering:auto;shape-rendering:auto;text-rendering:auto;enable-background:accumulate"
       inkscape:connector-curvature="0" />
    <path
       id="path18012"
       title="(pow((((sqrt(5.0))-1.0)/2.0),(x/90.0)))*2000"
       d="m 7086.614173228355,215.9009054387407 c -12.63019802,-3.2808399341711 -25.22666441,-6.5616798683408 -37.78957869,-9.8425198025211 -12.56291429,-3.2808399341788 -25.092142479999,-6.56167986838 -37.58806465,-9.8425198024802 -12.49592218,-3.2808399341997 -24.958337889999,-6.5616798683991 -37.38762519,-9.8425198025997 -12.4292873,-3.2808399341003 -24.825246819999,-6.5616798683 -37.18825458,-9.842519802499 -12.36300777,-3.2808399341001 -24.692865470001,-6.5616798682999 -36.98994713,-9.8425198025002 -12.297081650002,-3.2808399341996 -24.561190030001,-6.5616798682999 -36.792697139999,-9.8425198025011 -12.231507109999,-3.2808399341988 -24.430216760002,-6.5616798682989 -36.596499,-9.8425198024988 -12.16628224,-3.2808399342011 -24.299941919999,-6.5616798684 -36.401347099999,-9.8425198025001 -12.101405180001,-3.2808399341998 -24.170361760001,-6.5616798684009 -36.207235840001,-9.8425198025999 -12.03687409,-3.2808399341001 -24.041472599999,-6.5616798682999 -36.0141597,-9.8425198025011 -11.972687099999,-3.2808399338 -23.913270739999,-6.5616798687987 -35.822113129999,-9.8425198027989 -11.908842390001,-3.280839934001 -23.785752520001,-6.5616798680012 -35.631090660001,-9.84251980199998 -11.84533814,-3.2808399340002 -23.6589143,-6.5616798690012 -35.44108683,-9.84251980300002 -11.782172519999,-3.2808399340001 -23.53275244,-6.56167986799889 -35.25209618,-9.84251980199997 -11.719343749999,-3.28083993400105 -23.40726335,-6.56167986899895 -35.064113349999,-9.842519803 -11.656849999999,-3.2808399340001 -23.282443429999,-6.56167986800114 -34.877132940001,-9.84251980199996 -11.5946895,-3.2808399340001 -23.158289109998,-6.56167986900115 -34.691149589998,-9.84251980299905 -11.532860490001,-3.28083993400109 -23.03479686,-6.56167986799978 -34.506158030001,-9.84251980199998 -11.47136117,-3.28083993400102 -22.911963120001,-6.56167986899983 -34.32215292,-9.84251980299993 -11.4101898,-3.28083993400108 -22.789784410002,-6.5616798679999 -34.139129040002,-9.84251980200001 -11.34934462,-3.28083993500102 -22.66825721,-6.56167986899978 -33.957081119999,-9.842519803000001 -11.28882391,-3.280839934000107 -22.547378069999,-6.561679867999798 -33.776004,-9.8425198019999076 -11.22862592,-3.2808399350001913 -22.42714351,-6.5616798689997812 -33.59589246,-9.8425198029999787 -11.168748939999,-3.28083993400011 -22.307550109999,-6.5616798679998 -33.416741370001,-9.84251980199999 -11.109191269999,-3.28083993500011 -22.188594449999,-6.56167986899979 -33.23854562,-9.84251980299991 -11.04995118,-3.28083993400019 -22.07027312,-6.56167986799982 -33.06130011,-9.84251980199999 -10.991026979999,-3.28083993500011 -21.952582729998,-6.56167986899981 -32.884999739999,-9.84251980299991 -10.93241702,-3.28083993400022 -21.835519939999,-6.56167986799991 -32.709639520001,-9.84251980200001 -10.874119579998,-3.28083993500011 -21.719081389999,-6.56167986899978 -32.535214409999,-9.84251980299998 -10.816133019999,-3.28083993400011 -21.603263750001,-6.5616798679998 -32.361719420001,-9.8425198029999 -10.758455669999,-3.28083993399882 -21.48806371,-6.56167986799993 -32.189149599999,-9.842519802 -10.701085889999,-3.28083993400011 -21.373477980001,-6.5616798679998 -32.017500010001,-9.842519803 -10.64402204,-3.28083993400023 -21.259503289999,-6.56167986799993 -31.846765759999,-9.84251980200003 -10.587262479999,-3.2808399339988 -21.146136359998,-6.5616798679999 -31.676941939998,-9.842519803 -10.53080559,-3.2808399339988 -21.033373960001,-6.5616798679989 -31.50802372,-9.842519802 -10.47464976,-3.2808399340001 -20.92121288,-6.5616798679998 -31.340006259999,-9.8425198029999 -10.41879338,-3.2808399340002 -20.80964989,-6.5616798679999 -31.17288475,-9.8425198020001 -10.363234859999,-3.2808399339987 -20.69868182,-6.5616798679989 -31.006654429999,-9.8425198029989 -10.307972600001,-3.2808399340002 -20.588305490001,-6.561679868 -30.841310530001,-9.8425198020002 -10.25300504,-3.2808399340011 -20.478517749999,-6.5616798689997 -30.67684834,-9.8425198029999 -10.19833059,-3.280839934001 -20.369315459999,-6.5616798680012 -30.51326314,-9.842519802 -10.143947689999,-3.2808399340002 -20.260695490002,-6.5616798690012 -30.35055028,-9.8425198029999 -10.089854789999,-3.2808399340002 -20.15265473,-6.5616798679998 -30.18870507,-9.842519802 -10.036050340002,-3.2808399340002 -20.045190100002,-6.561679868999 -30.027722910002,-9.8425198029999 -9.98253281,-3.2808399340002 -19.938298539998,-6.5616798680012 -29.867599199998,-9.8425198020002 -9.929300660002,-3.2808399340001 -19.831976980001,-6.5616798690012 -29.70832935,-9.8425198029999 -9.876352379999,-3.2808399340002 -19.726222379999,-6.5616798679989 -29.549908810001,-9.842519802 -9.82368644,-3.2808399340002 -19.621031719998,-6.5616798689989 -29.392333060001,-9.8425198029991 -9.771301339998,-3.2808399340008 -19.516401989998,-6.5616798679997 -29.235597569999,-9.8425198019999 -9.719195590001,-3.2808399350011 -19.412330210002,-6.5616798689999 -29.079697900001,-9.842519803 -9.667367690001,-3.2808399340011 -19.308813380001,-6.5616798679999 -28.924629550001,-9.8425198020001 -9.615816160002,-3.280839935 -19.20584856,-6.5616798689998 -28.770388110001,-9.8425198029998 -9.564539540001,-3.2808399340003 -19.103432809999,-6.5616798679999 -28.616969170001,-9.842519802 -9.513536360001,-3.2808399350001 -19.0015632,-6.5616798689999 -28.464368349999,-9.8425198030001 -9.462805140001,-3.280839934 -18.900236800001,-6.5616798679997 -28.312581260001,-9.8425198019999 -9.41234446,-3.2808399350002 -18.799450739999,-6.5616798689998 -28.16160359,-9.842519803 -9.362152860002,-3.2808399340001 -18.69920212,-6.5616798679999 -28.011431020002,-9.8425198020001 -9.312228899998,-3.280839935 -18.59948807,-6.5616798689998 -27.862059229999,-9.8425198029998 -9.26257117,-3.2808399339987 -18.50030576,-6.5616798679997 -27.713483990001,-9.8425198029998 -9.213178229999,-3.2808399339989 -18.401652330001,-6.5616798680001 -27.565701019998,-9.842519802 -9.164048690001,-3.2808399340001 -18.303524980001,-6.5616798679998 -27.418706110001,-9.8425198030001 -9.115181130001,-3.280839934 -18.20592089,-6.5616798679997 -27.27249505,-9.8425198019999 -9.066574160001,-3.2808399339989 -18.108837280001,-6.5616798679989 -27.127063670001,-9.842519803 -9.018226390001,-3.2808399339988 -18.012271379999,-6.561679867999 -26.982407810001,-9.8425198020001 -8.970136429998,-3.280839934 -17.916220409998,-6.5616798679997 -26.838523330001,-9.8425198029998 -8.922302909998,-3.2808399340003 -17.820681639997,-6.5616798679997 -26.695406109999,-9.842519802 -8.874724469999,-3.2808399339988 -17.725652329999,-6.561679867999 -26.55305207,-9.8425198029989 -8.82739974,-3.2808399340003 -17.631129769999,-6.561679868 -26.411457149999,-9.8425198020001 -8.780327370001,-3.2808399340011 -17.537111250002,-6.5616798689997 -26.27061727,-9.842519803 -8.733506019999,-3.2808399340009 -17.443594089999,-6.5616798680012 -26.130528440001,-9.8425198019998 -8.686934339999,-3.2808399340003 -17.350575609998,-6.5616798690012 -25.99118662,-9.842519803 -8.640611009999,-3.2808399340001 -17.258053160001,-6.5616798679998 -25.852587859997,-9.8425198020001 -8.594534700003,-3.2808399340001 -17.166024080003,-6.5616798689998 -25.71472817,-9.8425198029998 -8.548704090002,-3.2808399340003 -17.07448576,-6.5616798680012 -25.577603630001,-9.8425198019997 -8.50311788,-3.2808399340005 -16.98343557,-6.5616798689989 -25.441210309999,-9.8425198030003 -8.457774750001,-3.2808399339998 -16.892870900001,-6.5616798679987 -25.305544309999,-9.842519802 -8.412673420001,-3.2808399349998 -16.802789160001,-6.5616798689983 -25.17060175,-9.8425198029996 -8.367812590002,-3.280839934 -16.713187790001,-6.5616798679989 -25.036378780002,-9.8425198019991 -8.323190980001,-3.280839935001 -16.62406423,-6.5616798690011 -24.90287155,-9.8425198030013 -8.27880732,-3.2808399339992 -16.535415909998,-6.5616798679994 -24.770076249999,-9.8425198019986 -8.234660340001,-3.2808399350007 -16.447240329999,-6.5616798690007 -24.637989099998,-9.8425198029997 -8.19074877,-3.2808399340014 -16.359534939999,-6.5616798680013 -24.5066063,-9.8425198020016 -8.147071359997,-3.2808399349997 -16.272297229998,-6.5616798689998 -24.375924099999,-9.8425198029998 -8.10362686,-3.2808399340003 -16.185524729999,-6.5616798679978 -24.245938760001,-9.8425198020005 -8.060414040001,-3.2808399350004 -16.099214949998,-6.5616798689989 -24.11664659,-9.842519803 -8.017431639998,-3.2808399339992 -16.01336541,-6.5616798680003 -23.98804386,-9.8425198020002 -7.974678449998,-3.280839934999 -15.927973669999,-6.5616798689991 -23.860126909998,-9.8425198030002 -7.93215325,-3.2808399339999 -15.843037279999,-6.5616798680004 -23.73289209,-9.842519803 -7.889854800001,-3.2808399340001 -15.758553820002,-6.5616798680001 -23.606335740002,-9.8425198019986 -7.847781919998,-3.2808399340011 -15.674520870001,-6.5616798680003 -23.480454260001,-9.8425198029998 -7.80593339,-3.2808399340012 -15.590936019998,-6.5616798679995 -23.355244049997,-9.8425198020005 -7.76430802,-3.2808399340011 -15.507796899999,-6.5616798680002 -23.230701519999,-9.842519803 -7.72290463,-3.2808399340011 -15.42510112,-6.5616798680003 -23.106823130001,-9.8425198020011 -7.681722010002,-3.2808399339986 -15.342846310001,-6.5616798679978 -22.983605310002,-9.8425198030002 -7.640758999999,-3.2808399339982 -15.26103014,-6.5616798679976 -22.861044570001,-9.8425198019977 -7.600014430001,-3.2808399340011 -15.179650240003,-6.5616798680003 -22.739137370003,-9.842519803 -7.55948713,-3.2808399340011 -15.098704309998,-6.5616798680021 -22.617880249998,-9.8425198020022 -7.51917594,-3.2808399339991 -15.018190029999,-6.5616798689998 -22.497269739999,-9.842519803 -7.479079720002,-3.2808399339992 -14.938105090001,-6.5616798679976 -22.377302390003,-9.8425198019977 -7.439197309998,-3.2808399340011 -14.858447209998,-6.5616798690008 -22.257974769997,-9.842519803 -7.39952757,-3.2808399340011 -14.7792141,-6.5616798680012 -22.13928347,-9.8425198020022 -7.360069360001,-3.2808399340001 -14.700403500001,-6.5616798659975 -22.021225080001,-9.8425198059977 -7.320821579999,-3.2808399299994 -14.622013170002,-6.5616798699994 -21.90379626,-9.8425198000015 -7.28178308,-3.2808399300001 -14.54404085,-6.56167987 -21.78699362,-9.8425197999977 -7.242952760001,-3.28083994 -14.466484330001,-6.5616798699999 -21.670813830001,-9.8425198000022 -7.204329500002,-3.28083994 -14.38934138,-6.5616798699984 -21.555253580001,-9.8425198099994 -7.165912210001,-3.2808399300013 -14.312609799998,-6.56167987 -21.44030957,-9.8425198000003 -7.127699759999,-3.280839930002 -14.236287379999,-6.5616798700013 -21.325978479999,-9.8425198000025 -7.089691090001,-3.2808399399981 -14.160371960004,-6.5616798699986 -21.212257070001,-9.8425197999975 -7.051885110003,-3.280839940001 -14.084861360001,-6.5616798700021 -21.09914209,-9.8425198100022 -7.014280730001,-3.280839929997 -14.009753419999,-6.561679869999 -20.98663029,-9.8425197999979 -6.976876870003,-3.2808399300012 -13.935046009999,-6.5616798700011 -20.874718480002,-9.8425198000009 -6.93967247,-3.2808399399991 -13.860736959998,-6.5616798699989 -20.76340342,-9.8425198000009 -6.902666459999,-3.2808399400001 -13.78682417,-6.5616798699999 -20.652681960001,-9.842519810001 -6.865857790001,-3.2808399300011 -13.71330553,-6.5616798699989 -20.542550929996,-9.8425198 -6.829245410001,-3.2808399300011 -13.64017893,-6.5616798700011 -20.433007179997,-9.8425198000022 -6.792828250002,-3.2808399399999 -13.567442270003,-6.5616798699989 -20.324047560004,-9.8425197999978 -6.7566053,-3.280839940001 -13.49509349,-6.5616798700011 -20.215668979996,-9.8425198100022 -6.720575500003,-3.280839929999 -13.423130510002,-6.5616798699999 -20.107868340001,-9.8425197999998 -6.684737829999,-3.2808399299992 -13.351551260005,-6.5616798699989 -20.000642540005,-9.8425198000009 -6.649091269998,-3.2808399400001 -13.280353719997,-6.5616798700011 -19.893988519997,-9.8425198000009 -6.613634790001,-3.2808399400001 -13.209535850001,-6.561679869998 -19.787903239999,-9.842519809999 -6.578367399998,-3.280839930002 -13.139095609998,-6.5616798700023 -19.682383669999,-9.8425198000031 -6.543288060003,-3.280839929999 -13.069031000002,-6.5616798699979 -19.57742678,-9.8425197999989 -6.508395779998,-3.280839940001 -12.999340009995,-6.561679870002 -19.47302958,-9.842519800002 -6.473689569998,-3.280839939999 -12.930020639996,-6.56167987 -19.369189069999,-9.842519809999 -6.439168430005,-3.28083993 -12.861070930001,-6.561679869999 -19.2659023,-9.8425198 -6.404831380002,-3.280839930002 -12.792488889999,-6.561679870001 -19.163166320002,-9.842519800001 -6.37067742,-3.280839939999 -12.724272569998,-6.56167987 -19.060978169998,-9.8425198 -6.336705599997,-3.28083994 -12.656420010001,-6.56167987 -18.959334940001,-9.842519810001 -6.30291493,-3.280839930001 -12.588929279999,-6.56167987 -18.858233729996,-9.8425198 -6.269304450001,-3.28083993 -12.52179844,-6.561679869998 -18.75767164,-9.8425198 -6.235873200001,-3.280839940001 -12.455025590002,-6.561679870001 -18.657645809999,-9.842519800002 -6.202620230001,-3.280839939999 -12.3886088,-6.561679869999 -18.55815337,-9.842519809999 -6.169544569999,-3.28083993 -12.322546179999,-6.56167987 -18.459191469996,-9.842519800002 -6.136645290002,-3.280839930002 -12.256835830003,-6.56167987 -18.360757290001,-9.8425198 -6.103921449997,-3.28083994 -12.19147589,-6.561679870001 -18.262848010001,-9.842519800001 -6.07137211,-3.280839940001 -12.126464489997,-6.56167987 -18.165460829996,-9.84251981 -6.038996340003,-3.28083993 -12.061799770001,-6.561679869999 -18.068592980002,-9.8425198 -6.00679322,-3.280839930002 -11.997479869999,-6.561679870001 -17.972241679999,-9.842519800003 -5.974761819997,-3.28083994 -11.933502960003,-6.561679869998 -17.876404179999,-9.842519799997 -5.942901219999,-3.280839940001 -11.869867200001,-6.561679870002 -17.781077719996,-9.842519810002 -5.911210530001,-3.280839929999 -11.806570780001,-6.561679869999 -17.68625961,-9.842519799998 -5.879688820001,-3.280839930001 -11.743611889999,-6.561679870001 -17.591947100001,-9.842519800001 -5.848335210002,-3.280839940001 -11.680988740001,-6.561679869999 -17.49813753,-9.84251981 -5.817148790002,-3.28083993 -11.618699530001,-6.561679860001 -17.4048282,-9.842519800001 -5.78612867,-3.280839930001 -11.556742470003,-6.561679870001 -17.312016440001,-9.842519800001 -5.755273970001,-3.28083993 -11.4951158,-6.561679869999 -17.219699599999,-9.842519800001 -5.724583810001,-3.280839940001 -11.433817760002,-6.56167987 -17.127875050004,-9.84251981 -5.694057300001,-3.280839929999 -11.37284659,-6.561679859998 -17.036540160001,-9.842519800001 -5.663693559996,-3.280839930001 -11.31220055,-6.561679870001 -16.945692299998,-9.8425198 -5.633491750001,-3.28083993 -11.251877910001,-6.561679869999 -16.855328900002,-9.842519799998 -5.603450989999,-3.280839940001 -11.191876939999,-6.561679870002 -16.765447360001,-9.842519810002 -5.573570429999,-3.280839929999 -11.132195930002,-6.561679859998 -16.676045129999,-9.842519799997 -5.543849200001,-3.280839930002 -11.072833160001,-6.561679870001 -16.587119620002,-9.842519800003 -5.514286460002,-3.280839929999 -11.013786960003,-6.561679869997 -16.498668320003,-9.8425198 -5.48488137,-3.28083994 -10.955055619998,-6.56167987 -16.410688690001,-9.842519810001 -5.455633069997,-3.280839930001 -10.89663746,-6.561679859998 -16.32317821,-9.8425198 -5.426540749999,-3.280839929999 -10.838530820001,-6.561679869998 -16.236134379995,-9.8425198 -5.397603559999,-3.280839930002 -10.780734030004,-6.56167987 -16.149554710003,-9.842519799997 -5.368820689997,-3.280839940001 -10.723245459998,-6.561679870001 -16.063436750002,-9.842519810002 -5.34019128,-3.280839929999 -10.666063430001,-6.561679859999 -15.977777990003,-9.8425198 -5.31171456,-3.280839930002 -10.609186339999,-6.561679869998 -15.89257602,-9.842519799999 -5.283389690001,-3.280839930003 -10.552612540001,-6.561679870001 -15.807828399997,-9.842519800003 -5.25521586,-3.280839939998 -10.496340420004,-6.561679869998 -15.723532680004,-9.842519809999 -5.227192269997,-3.280839930002 -10.440368379995,-6.561679860001 -15.639686489998,-9.842519800002 -5.199318110004,-3.28083993 -10.384694810001,-6.561679869998 -15.5562874,-9.842519799997 -5.171592589999,-3.280839930002 -10.329318119998,-6.561679870001 -15.473333039997,-9.842519800001 -5.144014920005,-3.28083994 -10.274236720002,-6.56167987 -15.390821030002,-9.842519810001 -5.116584309999,-3.280839929999 -10.219449060001,-6.561679859999 -15.308749029997,-9.842519799999 -5.089299979999,-3.280839930003 -10.16495355,-6.561679870001 -15.227114680001,-9.842519800003 -5.062161129997,-3.280839929999 -10.110748629999,-6.561679869998 -15.145915639999,-9.8425198 -5.035167009999,-3.280839940001 -10.056832770001,-6.56167987 -15.0651496,-9.842519810001 -5.008316830001,-3.28083993 -10.003204409999,-6.561679859999 -14.984814250001,-9.8425198 -4.981609839997,-3.280839929998 -9.94986203,-6.561679869998 -14.904907279999,-9.8425198 -4.955045259997,-3.280839929999 -9.896804099998,-6.56167987 -14.82542643,-9.8425198 -4.928622339999,-3.280839940001 -9.844029100003,-6.56167987 -14.746369410003,-9.842519810001 -4.90234031,-3.280839930002 -9.791535530001,-6.561679859999 -14.667733960001,-9.8425198 -4.876198439998,-3.280839930002 -9.739321869999,-6.56167987 -14.589517839998,-9.8425198 -4.85019596,-3.280839929999 -9.687386650001,-6.56167987 -14.511718800002,-9.842519800002 -4.824332149998,-3.280839940001 -9.635728379999,-6.561679869998 -14.43433464,-9.842519809999 -4.798606259999,-3.280839929999 -9.584345580001,-6.561679859999 -14.357363130002,-9.8425198 -4.773017549999,-3.280839930002 -9.53323677,-6.56167987 -14.280802059998,-9.8425198 -4.74756529,-3.280839929999 -9.48240051,-6.561679869999 -14.20464927,-9.8425198 -4.722248760001,-3.28083994 -9.431835319999,-6.561679870003 -14.128902559999,-9.842519810002 -4.697067230001,-3.280839929999 -9.381539780001,-6.561679859997 -14.05355977,-9.842519799998 -4.672019980001,-3.280839930001 -9.331512450002,-6.56167987 -13.978618750001,-9.842519800002 -4.647106299999,-3.280839929999 -9.28175188,-6.561679869998 -13.90407735,-9.8425198 -4.622325470001,-3.28083994 -9.232256670002,-6.56167987 -13.829933459999,-9.842519810001 -4.597676780001,-3.28083993 -9.183025390004,-6.561679859999 -13.756184920001,-9.842519800001 -4.57315954,-3.280839929999 -9.134056639999,-6.561679869999 -13.682829670002,-9.842519800001 -4.54877303,-3.28083994 -9.08534901,-6.56167987 -13.60986558,-9.842519799998 -4.524516559998,-3.28083994 -9.036901119999,-6.56167987 -13.537290569998,-9.842519810001 -4.500389440003,-3.280839930001 -8.988711580002,-6.56167986 -13.46510256,-9.8425198 -4.476390989999,-3.280839930001 -8.94077902,-6.56167987 -13.393299519999,-9.842519800001 -4.452520500001,-3.28083994 -8.893102049997,-6.561679870001 -13.32187935,-9.842519800002 -4.428777299999,-3.28083994 -8.84567932,-6.561679869999 -13.250840040001,-9.84251981 -4.405160709998,-3.28083993 -8.79850947,-6.561679860001 -13.180179540003,-9.842519800002 -4.38167007,-3.280839929998 -8.751591169996,-6.561679869998 -13.109895849999,-9.842519799998 -4.358304679998,-3.28083994 -8.704923050003,-6.56167987 -13.03998694,-9.842519800001 -4.3350639,-3.28083994 -8.6585038,-6.561679869998 -12.970450840001,-9.842519809999 -4.311947039999,-3.280839930001 -8.61233206,-6.561679860001 -12.90128552,-9.842519800002 -4.288953449999,-3.280839930001 -8.566406549998,-6.56167987 -12.832489039998,-9.8425198 -4.266082479998,-3.280839939999 -8.520725929998,-6.561679869999 -12.76405941,-9.842519800001 -4.24333347,-3.28083994 -8.475288909999,-6.56167987 -12.69599469,-9.84251981 -4.22070577,-3.28083993 -8.430094190002,-6.561679859999 -12.628292929998,-9.8425198 -4.198198730004,-3.280839930001 -8.385140459999,-6.561679870001 -12.560952179999,-9.842519800002 -4.175811720001,-3.280839939999 -8.340426450002,-6.561679869998 -12.493970540001,-9.842519799997 -4.15354408,-3.280839940001 -8.295950880002,-6.561679870002 -12.427346069998,-9.842519810003 -4.131395180003,-3.280839929999 -8.251712480005,-6.561679859997 -12.36107688,-9.842519799997 -4.109364400001,-3.280839930001 -8.207709990005,-6.561679870002 -12.29516108,-9.842519800002 -4.087451090002,-3.280839940001 -8.163942130001,-6.561679869999 -12.229596770002,-9.842519800001 -4.065654640002,-3.280839939999 -8.120407670003,-6.561679869999 -12.164382090002,-9.84251981 -4.043974419999,-3.28083993 -8.077105349999,-6.561679859998 -12.099515159999,-9.842519800001 -4.022409799998,-3.280839929998 -8.034033949998,-6.561679869998 -12.034994139998,-9.8425198 -4.00096019,-3.28083994 -7.991192230001,-6.561679870001 -11.970817180001,-9.842519800001 -3.979624949998,-3.28083994 -7.94857897,-6.561679869999 -11.906982450001,-9.84251981 -3.95840348,-3.28083993 -7.906192940002,-6.561679859999 -11.843488119999,-9.842519800001 -3.93729518,-3.280839930001 -7.86403293,-6.56167987 -11.780332360002,-9.8425198 -3.916299439999,-3.28083994 -7.822097749997,-6.561679869999 -11.7175134,-9.8425198 -3.895415659999,-3.280839940001 -7.780386179996,-6.561679870001 -11.655029409998,-9.842519810001 -3.874643240001,-3.28083993 -7.738897039999,-6.561679859999 -11.592878630001,-9.8425198 -3.853981590002,-3.280839929998 -7.697629139999,-6.561679869999 -11.531059259999,-9.8425198 -3.833430120001,-3.28083994 -7.656581309998,-6.56167987 -11.469569550002,-9.8425198 -3.81298824,-3.28083994 -7.615752360001,-6.56167987 -11.40840773,-9.84251981 -3.792655370001,-3.280839930001 -7.575141140003,-6.561679859999 -11.347572060001,-9.842519800001 -3.772430929999,-3.280839930001 -7.534746480001,-6.56167987 -11.287060809999,-9.842519800001 -3.752314320001,-3.28083994 -7.494567220002,-6.561679870001 -11.226872210001,-9.842519800001 -3.732305000002,-3.28083994 -7.454602229998,-6.561679869998 -11.167004600001,-9.842519809999 -3.71240237,-3.280839930001 -7.414850329998,-6.561679860001 -11.107456209999,-9.842519800002 -3.69260588,-3.280839929999 -7.37531043,-6.561679869999 -11.04822538,-9.842519799998 -3.672914939999,-3.28083994 -7.335981370001,-6.561679870001 -10.989310384999,-9.842519800001 -3.653329019,-3.280839940001 -7.296862033002,-6.561679869999 -10.930709569001,-9.842519809999 -3.633847534998,-3.280839930001 -7.257951302002,-6.561679859999 -10.872421238999,-9.842519800001 -3.614469937001,-3.280839930002 -7.219248064001,-6.561679870002 -10.814443734003,-9.8425198 -3.595195669002,-3.28083994 -7.180751210999,-6.561679869998 -10.756775394,-9.8425198 -3.576024183001,-3.280839940001 -7.142459644998,-6.561679869999 -10.699414574002,-9.84251981 -3.556954929,-3.280839929997 -7.104372268998,-6.561679859998 -10.642359631999,-9.8425198 -3.537987362002,-3.280839930002 -7.066487995001,-6.561679870002 -10.585608936002,-9.8425198 -3.519120939998,-3.280839940001 -7.028805739997,-6.561679869999 -10.529160865001,-9.842519799999 -3.500355124998,-3.280839940001 -6.991324427998,-6.561679870003 -10.473013805998,-9.842519810003 -3.481689378999,-3.280839930002 -6.954042985,-6.561679869999 -10.417166151997,-9.8425198 -3.463123167999,-3.280839930001 -6.916960347,-6.561679870002 -10.361616308003,-9.8425198 -3.444655961999,-3.280839940001 -6.880075451999,-6.561679869998 -10.306362684997,-9.8425198 -3.426287232004,-3.280839940001 -6.843387247,-6.561679869999 -10.251403702002,-9.84251981 -3.408016455,-3.280839930002 -6.806894684001,-6.561679869999 -10.196737791,-9.8425198 -3.389843108002,-3.280839929999 -6.770596719,-6.561679869999 -10.142363387997,-9.842519800001 -3.371766668999,-3.28083994 -6.734492311999,-6.561679870002 -10.088278936998,-9.8425198 -3.353786624002,-3.280839939999 -6.698580434002,-6.561679869999 -10.034482893001,-9.84251981 -3.335902459,-3.280839930001 -6.662860057002,-6.561679870001 -9.980973717997,-9.842519800001 -3.318113661001,-3.28083993 -6.627330159999,-6.561679869998 -9.927749883003,-9.8425198 -3.300419722,-3.28083994 -6.591989727003,-6.561679870001 -9.874809865001,-9.842519800003 -3.282820136999,-3.28083994 -6.556837749,-6.561679869998 -9.822152150997,-9.842519809999 -3.265314401999,-3.280839929999 -6.521873218999,-6.561679869999 -9.769775236,-9.8425198 -3.247902017999,-3.28083993 -6.487095139002,-6.56167987 -9.717677622999,-9.842519800001 -3.230582485001,-3.280839939999 -6.452502513,-6.561679869999 -9.665857822002,-9.8425198 -3.213355308999,-3.28083994 -6.418094353997,-6.561679870001 -9.614314350999,-9.842519810001 -3.196219997002,-3.280839929997 -6.383869677,-6.561679869998 -9.563045736999,-9.8425198 -3.179176060001,-3.280839930001 -6.349827505,-6.561679870001 -9.512050514999,-9.8425198 -3.162223010001,-3.280839940001 -6.315966863003,-6.561679869998 -9.461327226002,-9.8425198 -3.145360362999,-3.280839940001 -6.282286783998,-6.561679869999 -9.410874421,-9.842519809999 -3.128587635998,-3.280839930002 -6.248786304999,-6.561679870002 -9.360690655997,-9.842519800001 -3.111904351006,-3.280839929998 -6.215464469001,-6.561679869998 -9.310774499002,-9.8425198 -3.095310029001,-3.280839940001 -6.182320321,-6.561679869999 -9.261124520004,-9.8425198 -3.078804197996,-3.280839940001 -6.149352916996,-6.561679870001 -9.211739300997,-9.842519809999 -3.062386385003,-3.280839930002 -6.116561312001,-6.56167987 -9.162617430999,-9.8425198 -3.046056118998,-3.280839930002 -6.083944569997,-6.561679870003 -9.113757504998,-9.842519800001 -3.029812935001,-3.28083994 -6.051501756001,-6.561679869999 -9.065158124997,-9.842519800001 -3.013656369001,-3.28083994 -6.019231945004,-6.561679870001 -9.016817903004,-9.842519809999 -2.997585958,-3.280839930001 -5.987134214003,-6.561679869998 -8.968735456999,-9.8425198 -2.981601242,-3.280839930001 -5.955207645,-6.56167987 -8.920909410999,-9.842519800002 -2.965701766001,-3.280839939999 -5.923451325003,-6.561679869998 -8.873338400001,-9.842519799998 -2.949887074,-3.28083994 -5.891864347003,-6.56167987 -8.826021061996,-9.842519810001 -2.934156715003,-3.28083993 -5.860445808004,-6.561679869999 -8.778956046004,-9.842519799998 -2.918510238,-3.280839930002 -5.829194807997,-6.561679870002 -8.732142005,-9.842519800002 -2.902947195999,-3.28083994 -5.798110455,-6.561679869998 -8.685577601,-9.8425198 -2.887467144999,-3.28083994 -5.767191861001,-6.561679869999 -8.639261503,-9.842519809999 -2.872069641998,-3.280839930002 -5.736438141,-6.561679869999 -8.593192387001,-9.842519800001 -2.856754246999,-3.280839929997 -5.705848417001,-6.561679869998 -8.547368936995,-9.8425198 -2.841520520004,-3.28083994 -5.675421812003,-6.561679870002 -8.501789841,-9.8425198 -2.826368028998,-3.28083994 -5.645157459,-6.561679869999 -8.456453797,-9.84251981 -2.811296338,-3.280839930001 -5.615054489998,-6.561679870001 -8.411359508004,-9.8425198 -2.796305018,-3.28083993 -5.585112047999,-6.561679869999 -8.366505687002,-9.842519800001 -2.781393639002,-3.28083994 -5.555329274004,-6.561679870001 -8.32189105,-9.842519800001 -2.766561776002,-3.28083994 -5.525705316999,-6.561679869998 -8.277514321001,-9.842519809999 -2.751809004001,-3.280839930001 -5.496239330998,-6.561679870001 -8.233374233001,-9.842519800003 -2.737134901001,-3.280839929999 -5.466930473002,-6.561679869999 -8.189469521999,-9.842519799997 -2.722539049999,-3.28083994 -5.437777906004,-6.561679870001 -8.145798937002,-9.842519800001 -2.708021029999,-3.280839940001 -5.408780794998,-6.561679869999 -8.102361223996,-9.842519809999 -2.693580428001,-3.280839930001 -5.379938313001,-6.561679869999 -8.059155144002,-9.8425198 -2.679216831998,-3.280839930002 -5.351249633999,-6.561679870002 -8.016179463998,-9.842519800001 -2.664929829004,-3.280839940001 -5.322713938005,-6.561679869998 -7.973432950006,-9.842519809999 -2.650719012997,-3.280839930002 -5.294330409999,-6.561679860004 -7.930914385999,-9.842519800004 -2.636583974999,-3.280839929998 -5.266098236999,-6.561679869998 -7.888622550997,-9.8425198 -2.622524313998,-3.280839930001 -5.238016614001,-6.561679869999 -7.846556240003,-9.842519800001 -2.608539625999,-3.28083994 -5.210084736996,-6.561679870002 -7.804714247998,-9.842519809998 -2.594629512001,-3.280839930002 -5.182301807002,-6.56167986 -7.763095381002,-9.8425198 -2.580793574003,-3.280839930002 -5.154667030003,-6.561679870003 -7.721698446001,-9.842519800002 -2.567031415997,-3.280839930001 -5.127179617002,-6.561679870001 -7.680522263,-9.8425198 -2.553342645002,-3.28083994 -5.099838780001,-6.561679869999 -7.639565651,-9.84251981 -2.539726872002,-3.280839930001 -5.072643741,-6.561679860002 -7.598827444,-9.842519800001 -2.526183703002,-3.280839929997 -5.045593719,-6.561679869998 -7.558306473,-9.8425198 -2.512712753999,-3.280839930001 -5.018687941998,-6.561679870002 -7.518001581998,-9.842519800001 -2.499313640001,-3.28083994 -4.991925640997,-6.561679869998 -7.477911618005,-9.842519809999 -2.485985975999,-3.280839930001 -4.965306050999,-6.561679860001 -7.438035433997,-9.842519800001 -2.472729382999,-3.280839930001 -4.938828411001,-6.561679870001 -7.398371892005,-9.842519799998 -2.459543480998,-3.280839930002 -4.912491963001,-6.561679870002 -7.358919855995,-9.842519800002 -2.446427893001,-3.280839940001 -4.886295955004,-6.561679869999 -7.319678200003,-9.84251981 -2.433382243996,-3.280839930001 -4.860239638996,-6.561679859999 -7.280645801,-9.8425198 -2.420406162001,-3.280839930002 -4.834322267996,-6.561679870002 -7.241821542997,-9.8425198 -2.407499276,-3.280839929997 -4.808543103003,-6.561679869998 -7.203204318001,-9.8425198 -2.394661214999,-3.280839940001 -4.782901405,-6.561679870003 -7.164793018999,-9.842519810001 -2.381891613002,-3.280839929997 -4.757396443002,-6.561679859999 -7.126586549004,-9.842519800001 -2.369190105999,-3.280839929998 -4.732027486998,-6.561679869999 -7.088583816997,-9.8425198 -2.356556331003,-3.280839929998 -4.706793811999,-6.561679869999 -7.050783736001,-9.842519799999 -2.343989924997,-3.280839940001 -4.681694695002,-6.561679870002 -7.013185224998,-9.842519810001 -2.331490530002,-3.28083993 -4.656729421,-6.561679859998 -6.975787207999,-9.842519799998 -2.319057787999,-3.280839930002 -4.631897274999,-6.561679870003 -6.938588619002,-9.842519800002 -2.306691343999,-3.28083993 -4.607197545999,-6.561679869998 -6.901588390001,-9.8425198 -2.294390844997,-3.280839940001 -4.582629530002,-6.561679870001 -6.864785468001,-9.842519810002 -2.282155938001,-3.280839930001 -4.558192523,-6.56167986 -6.828178797997,-9.8425198 -2.269986274,-3.280839929997 -4.533885827,-6.561679869999 -6.791767333002,-9.8425198 -2.257881505997,-3.280839930002 -4.509708747999,-6.561679870002 -6.755550034999,-9.842519800001 -2.245841287002,-3.28083994 -4.485660593997,-6.561679870001 -6.719525865996,-9.842519810002 -2.233865272001,-3.280839930001 -4.461740677002,-6.561679860001 -6.683693797002,-9.842519800001 -2.221953119999,-3.280839929997 -4.437948314,-6.561679869999 -6.648052803004,-9.842519799999 -2.21010449,-3.280839930001 -4.414282823995,-6.561679870001 -6.612601865999,-9.842519800001 -2.198319043001,-3.28083994 -4.390743531997,-6.561679869998 -6.577339972996,-9.842519809999 -2.186596442003,-3.280839930001 -4.367329763003,-6.561679860003 -6.542266114002,-9.842519800002 -2.174936352002,-3.28083993 -4.344040848,-6.561679869998 -6.507379288002,-9.8425198 -2.16333844,-3.280839929998 -4.320876122998,-6.561679869999 -6.472678496998,-9.842519800001 -2.151802374,-3.280839940001 -4.297834924002,-6.561679870002 -6.438162749002,-9.842519809999 -2.140327824002,-3.280839929997 -4.274916591996,-6.561679859999 -6.403831055999,-9.842519800001 -2.128914464001,-3.280839930001 -4.252120475001,-6.561679869999 -6.369682439,-9.842519800001 -2.117561965001,-3.28083993 -4.229445918002,-6.561679869998 -6.335715920999,-9.842519799999 -2.106270002999,-3.280839940001 -4.206892273003,-6.561679870003 -6.301930529,-9.842519810003 -2.095038257,-3.280839930002 -4.184458896002,-6.561679859998 -6.268325299998,-9.842519800001 -2.083866403999,-3.280839930001 -4.162145146002,-6.561679869998 -6.234899271001,-9.8425198 -2.072754124999,-3.280839930001 -4.139950384998,-6.561679870002 -6.201651487002,-9.842519800004 -2.061701102998,-3.280839939997 -4.117873977997,-6.561679869998 -6.168580999196,-9.842519809998 -2.050707021,-3.280839929999 -4.095915293903,-6.561679859999 -6.135686859402,-9.842519800001 -2.039771565499,-3.280839929998 -4.074073705201,-6.561679869998 -6.102968128901,-9.8425198 -2.028894423699,-3.280839940001 -4.0523485875,-6.561679869998 -6.0704238721,-9.8425198 -2.0180752847,-3.280839940001 -4.030739319599,-6.561679870002 -6.038053158597,-9.842519810003 -2.007313838901,-3.280839930001 -4.009245283701,-6.561679859998 -6.0058550627,-9.8425198 -1.996609778902,-3.280839930002 -3.9878658656,-6.561679870002 -5.973828664104,-9.842519800001 -1.985962798598,-3.28083994 -3.966600453699,-6.561679870002 -5.941973047398,-9.8425198 -1.975372593601,-3.280839940001 -3.945448440198,-6.561679869998 -5.910287301502,-9.842519809999 -1.964838861301,-3.280839930002 -3.924409220599,-6.561679860003 -5.878770520898,-9.842519800001 -1.954361300297,-3.280839929999 -3.9034821931,-6.561679869998 -5.847421804401,-9.8425198 -1.943939611299,-3.28083994 -3.882666759597,-6.56167987 -5.816240255901,-9.842519800002 -1.933573496198,-3.280839939999 -3.861962324998,-6.561679870001 -5.785224983798,-9.84251981 -1.9232626588,-3.280839929997 -3.841368297698,-6.561679859998 -5.754375101702,-9.8425198 -1.913006804096,-3.280839930001 -3.820884088298,-6.561679869999 -5.723689727497,-9.842519800001 -1.902805639199,-3.28083994 -3.800509111601,-6.561679870001 -5.693167983859,-9.8425198 -1.89265887226,-3.28083994 -3.780242785172,-6.561679869998 -5.66280899836,-9.842519809999 -1.88256621319,-3.280839930002 -3.760084529427,-6.561679860003 -5.63261190304,-9.842519800004 -1.8725273736,-3.280839929998 -3.740033768319,-6.561679869998 -5.602575834611,-9.8425198 -1.862542066302,-3.28083994 -3.720089928431,-6.561679870002 -5.572699934435,-9.842519800001 -1.852610006,-3.280839940001 -3.700252439599,-6.561679869998 -5.542983348296,-9.842519809999"
       style="color:#000000;clip-rule:nonzero;display:inline;overflow:visible;visibility:visible;opacity:0.5;isolation:auto;mix-blend-mode:normal;color-interpolation:sRGB;color-interpolation-filters:linearRGB;solid-color:#000000;solid-opacity:1;fill:none;fill-opacity:1;fill-rule:nonzero;stroke:#ff0000;stroke-width:5.3149606299;stroke-linecap:round;stroke-linejoin:round;stroke-miterlimit:10;stroke-dasharray:none;stroke-dashoffset:0;stroke-opacity:1;color-rendering:auto;image-rendering:auto;shape-rendering:auto;text-rendering:auto;enable-background:accumulate;marker-mid:url(#DiamondS)"
       inkscape:connector-curvature="0" />
  </g>
</svg>
