<?xml version="1.0" encoding="utf-8"?>
<!-- Generator: Adobe Illustrator 16.0.0, SVG Export Plug-In . SVG Version: 6.00 Build 0)  -->
<!DOCTYPE svg PUBLIC "-//W3C//DTD SVG 1.1//EN" "http://www.w3.org/Graphics/SVG/1.1/DTD/svg11.dtd">
<svg version="1.1" id="Layer_1" xmlns="http://www.w3.org/2000/svg" xmlns:xlink="http://www.w3.org/1999/xlink" x="0px" y="0px"
	 width="7000px" height="3000px" viewBox="0 0 7000 3000" enable-background="new 0 0 7000 3000" xml:space="preserve">
<g>
	<defs>
		<rect id="SVGID_1_" x="-3.844" y="-2" width="7000" height="3000"/>
	</defs>
	<clipPath id="SVGID_2_">
		<use xlink:href="#SVGID_1_"  overflow="visible"/>
	</clipPath>
	<g clip-path="url(#SVGID_2_)">
		<g>
			<defs>
				<polygon id="SVGID_3_" points="7005.191,3625.371 3.236,3636.98 -3.396,-363.48 6998.557,-375.09 				"/>
			</defs>
			<radialGradient id="SVGID_4_" cx="3500.8975" cy="1630.9453" r="2855.1929" gradientUnits="userSpaceOnUse">
				<stop  offset="0" style="stop-color:#FFFFFF"/>
				<stop  offset="0" style="stop-color:#F4FBFD"/>
				<stop  offset="0" style="stop-color:#D3EFF6"/>
				<stop  offset="0" style="stop-color:#B8E5F0"/>
				<stop  offset="0" style="stop-color:#A6DEEC"/>
				<stop  offset="0" style="stop-color:#9BDAEA"/>
				<stop  offset="0" style="stop-color:#97D9E9"/>
				<stop  offset="0" style="stop-color:#7BBFE0"/>
				<stop  offset="0" style="stop-color:#60ABD8"/>
				<stop  offset="0" style="stop-color:#4A9ED4"/>
				<stop  offset="0" style="stop-color:#3C96D1"/>
				<stop  offset="0" style="stop-color:#3694D1"/>
				<stop  offset="0.1148" style="stop-color:#2D87C4"/>
				<stop  offset="0.2947" style="stop-color:#207AB8"/>
				<stop  offset="0.4888" style="stop-color:#1270B0"/>
				<stop  offset="0.7054" style="stop-color:#066BAB"/>
				<stop  offset="0.9901" style="stop-color:#026AAA"/>
			</radialGradient>
			<use xlink:href="#SVGID_3_"  overflow="visible" fill="url(#SVGID_4_)"/>
			<clipPath id="SVGID_5_">
				<use xlink:href="#SVGID_3_"  overflow="visible"/>
			</clipPath>
			<g display="none" opacity="0.2" clip-path="url(#SVGID_5_)">
				
					<rect x="6828.656" y="-560.2" transform="matrix(1 -0.0019 0.0019 1 -3.0015 13.0751)" display="inline" fill="#FFFFFF" width="3.062" height="4270.126"/>
				<rect x="6658.585" y="-560.273" display="inline" fill="#FFFFFF" width="0" height="4270.823"/>
				<rect x="6486.984" y="-559.99" display="inline" fill="#FFFFFF" width="0" height="4270.829"/>
				<polygon display="inline" fill="#FFFFFF" points="6318.922,3710 6317.39,3710 6310.313,-559.729 6311.843,-559.924 				"/>
				<polygon display="inline" fill="#FFFFFF" points="6147.322,3710 6145.786,3710 6138.709,-559 6140.242,-559 				"/>
				<rect x="5970.647" y="-559.133" display="inline" fill="#FFFFFF" width="0" height="4270.827"/>
				<rect x="5799.047" y="-558.849" display="inline" fill="#FFFFFF" width="0" height="4270.824"/>
				
					<rect x="5625.913" y="-558.207" transform="matrix(1 -0.0019 0.0019 1 -3.0059 10.7662)" display="inline" fill="#FFFFFF" width="3.063" height="4270.129"/>
				<rect x="5455.843" y="-558.278" display="inline" fill="#FFFFFF" width="0" height="4270.822"/>
				<rect x="5284.243" y="-557.996" display="inline" fill="#FFFFFF" width="0" height="4270.827"/>
				<rect x="5112.641" y="-557.71" display="inline" fill="#FFFFFF" width="0" height="4270.826"/>
				<rect x="4939.506" y="-557.066" display="inline" fill="#FFFFFF" width="1.534" height="4270.125"/>
				<rect x="4767.906" y="-557.139" display="inline" fill="#FFFFFF" width="0" height="4270.826"/>
				<rect x="4594.772" y="-556.493" display="inline" fill="#FFFFFF" width="1.532" height="4270.124"/>
				<rect x="4426.234" y="-556.573" display="inline" fill="#FFFFFF" width="0" height="4270.826"/>
				<polygon display="inline" fill="#FFFFFF" points="4258.174,3714 4256.641,3714 4249.561,-556.021 4251.096,-556.072 				"/>
				<rect x="4081.5" y="-556.001" display="inline" fill="#FFFFFF" width="0" height="4270.826"/>
				<rect x="3908.367" y="-555.356" display="inline" fill="#FFFFFF" width="1.531" height="4270.126"/>
				<polygon display="inline" fill="#FFFFFF" points="3741.837,3715 3740.303,3715 3733.226,-555 3734.758,-555 				"/>
				<rect x="3565.164" y="-554.789" display="inline" fill="#FFFFFF" width="3.063" height="4270.127"/>
				<rect x="3395.094" y="-554.865" display="inline" fill="#FFFFFF" width="0" height="4270.828"/>
				<rect x="3220.428" y="-554.216" display="inline" fill="#FFFFFF" width="3.064" height="4270.124"/>
				<polygon display="inline" fill="#FFFFFF" points="3055.43,3715 3053.898,3715 3046.817,-555 3048.352,-555 				"/>
				<rect x="2878.757" y="-554.008" display="inline" fill="#FFFFFF" width="0" height="4270.825"/>
				<rect x="2707.155" y="-553.723" display="inline" fill="#FFFFFF" width="0" height="4270.825"/>
				<polygon display="inline" fill="#FFFFFF" points="2539.094,3718 2537.561,3718 2530.482,-552.594 2532.014,-552.358 				"/>
				<rect x="2362.421" y="-552.793" display="inline" fill="#FFFFFF" width="3.065" height="4270.123"/>
				<rect x="2192.35" y="-552.87" display="inline" fill="#FFFFFF" width="0" height="4270.827"/>
				
					<rect x="2017.685" y="-552.222" transform="matrix(1 -0.0019 0.0019 1 -3.0227 3.8638)" display="inline" fill="#FFFFFF" width="3.064" height="4270.124"/>
				<rect x="1847.616" y="-551.939" display="inline" fill="#FFFFFF" width="1.534" height="4270.126"/>
				<rect x="1676.014" y="-551.655" display="inline" fill="#FFFFFF" width="1.534" height="4270.126"/>
				<rect x="1504.413" y="-551.728" display="inline" fill="#FFFFFF" width="0" height="4270.825"/>
				<rect x="1331.279" y="-551.083" display="inline" fill="#FFFFFF" width="1.533" height="4270.125"/>
				<rect x="1159.678" y="-551.157" display="inline" fill="#FFFFFF" width="0" height="4270.826"/>
				<polygon display="inline" fill="#FFFFFF" points="994.681,3720 993.148,3720 986.068,-550.315 987.6,-550.219 				"/>
				<rect x="818.006" y="-550.591" display="inline" fill="#FFFFFF" width="0" height="4270.827"/>
				<polygon display="inline" fill="#FFFFFF" points="649.944,3720.646 648.412,3720.886 641.334,-549 642.864,-549 				"/>
				<rect x="473.271" y="-550.018" display="inline" fill="#FFFFFF" width="0" height="4270.823"/>
				<rect x="301.671" y="-549.734" display="inline" fill="#FFFFFF" width="0" height="4270.826"/>
				<rect x="6915.988" y="-560.7" display="inline" fill="#FFFFFF" width="0" height="4270.825"/>
				<rect x="130.069" y="-549.45" display="inline" fill="#FFFFFF" width="0" height="4270.826"/>
				<polygon display="inline" fill="#FFFFFF" points="6747.926,3709.594 6746.395,3709.359 6739.314,-561 6740.847,-561 				"/>
				<rect x="6572.786" y="-560.131" display="inline" fill="#FFFFFF" width="0" height="4270.825"/>
				<rect x="6399.651" y="-559.489" display="inline" fill="#FFFFFF" width="3.065" height="4270.126"/>
				<rect x="6228.052" y="-559.559" display="inline" fill="#FFFFFF" width="0" height="4270.826"/>
				
					<rect x="6054.917" y="-558.916" transform="matrix(1 -0.0019 0.0019 1 -3.0024 11.5831)" display="inline" fill="#FFFFFF" width="3.064" height="4270.125"/>
				<polygon display="inline" fill="#FFFFFF" points="5889.92,3710 5888.387,3710 5881.309,-559.375 5882.841,-559.75 				"/>
				<rect x="5713.246" y="-558.349" display="inline" fill="#FFFFFF" width="1.532" height="4270.125"/>
				<rect x="5541.646" y="-558.422" display="inline" fill="#FFFFFF" width="0" height="4270.826"/>
				<polygon display="inline" fill="#FFFFFF" points="5373.585,3711 5372.05,3711 5364.972,-558.446 5366.503,-558.786 				"/>
				<rect x="5196.91" y="-557.493" display="inline" fill="#FFFFFF" width="3.064" height="4270.124"/>
				<rect x="5026.84" y="-557.568" display="inline" fill="#FFFFFF" width="0" height="4270.824"/>
				<rect x="4855.238" y="-557.284" display="inline" fill="#FFFFFF" width="0" height="4270.826"/>
				<rect x="4682.104" y="-556.64" display="inline" fill="#FFFFFF" width="1.534" height="4270.127"/>
				<polygon display="inline" fill="#FFFFFF" points="4515.576,3713.442 4514.043,3713.282 4506.963,-557 4508.494,-557 				"/>
				<rect x="4338.902" y="-556.426" display="inline" fill="#FFFFFF" width="0" height="4270.825"/>
				
					<rect x="4165.769" y="-555.785" transform="matrix(1 -0.0038 0.0038 1 -6.0161 15.965)" display="inline" fill="#FFFFFF" width="1.53" height="4270.126"/>
				
					<rect x="3994.166" y="-555.5" transform="matrix(1 -0.0019 0.0019 1 -3.0149 7.6477)" display="inline" fill="#FFFFFF" width="3.063" height="4270.127"/>
				<rect x="3824.098" y="-555.216" display="inline" fill="#FFFFFF" width="1.532" height="4270.126"/>
				<rect x="3652.496" y="-555.289" display="inline" fill="#FFFFFF" width="0" height="4270.825"/>
				<polygon display="inline" fill="#FFFFFF" points="3484.435,3715 3482.902,3715 3475.822,-554.879 3477.354,-555 				"/>
				<rect x="3307.76" y="-554.718" display="inline" fill="#FFFFFF" width="0" height="4270.824"/>
				<rect x="3136.159" y="-554.077" display="inline" fill="#FFFFFF" width="3.064" height="4270.124"/>
				<rect x="2964.557" y="-554.149" display="inline" fill="#FFFFFF" width="0" height="4270.825"/>
				<rect x="2791.424" y="-553.505" display="inline" fill="#FFFFFF" width="3.065" height="4270.125"/>
				<rect x="2621.355" y="-553.581" display="inline" fill="#FFFFFF" width="0" height="4270.826"/>
				<rect x="2449.755" y="-553.295" display="inline" fill="#FFFFFF" width="0" height="4270.827"/>
				<rect x="2278.152" y="-553.01" display="inline" fill="#FFFFFF" width="0" height="4270.824"/>
				<polygon display="inline" fill="#FFFFFF" points="2110.09,3718.435 2108.559,3718.779 2101.478,-551 2103.011,-551 				"/>
				<rect x="1933.417" y="-552.439" display="inline" fill="#FFFFFF" width="0" height="4270.827"/>
				<rect x="1760.283" y="-551.796" display="inline" fill="#FFFFFF" width="1.532" height="4270.127"/>
				<rect x="1588.681" y="-551.512" display="inline" fill="#FFFFFF" width="3.064" height="4270.127"/>
				<polygon display="inline" fill="#FFFFFF" points="1423.684,3719.004 1422.153,3719.064 1415.072,-551 1416.604,-551 				"/>
				<rect x="1247.011" y="-551.303" display="inline" fill="#FFFFFF" width="0" height="4270.827"/>
				<polygon display="inline" fill="#FFFFFF" points="1078.949,3720 1077.416,3720 1070.338,-550.385 1071.868,-550.255 				"/>
				<polygon display="inline" fill="#FFFFFF" points="907.347,3720 905.815,3720 898.736,-550.243 900.269,-550.182 				"/>
				<rect x="730.675" y="-550.445" display="inline" fill="#FFFFFF" width="0" height="4270.827"/>
				<rect x="560.605" y="-550.163" display="inline" fill="#FFFFFF" width="0" height="4270.826"/>
				<rect x="385.938" y="-549.517" display="inline" fill="#FFFFFF" width="3.065" height="4270.125"/>
				<rect x="215.869" y="-549.234" display="inline" fill="#FFFFFF" width="1.534" height="4270.125"/>
				
					<rect x="6957.357" y="-560.412" transform="matrix(1 -0.0019 0.0019 1 -2.9971 13.3044)" display="inline" fill="#FFFFFF" width="3.065" height="4270.125"/>
				<rect x="44.268" y="-549.307" display="inline" fill="#FFFFFF" width="0" height="4270.825"/>
				<rect x="6787.288" y="-560.487" display="inline" fill="#FFFFFF" width="0" height="4270.826"/>
				<rect x="6615.687" y="-560.203" display="inline" fill="#FFFFFF" width="0" height="4270.825"/>
				<rect x="6442.552" y="-559.559" display="inline" fill="#FFFFFF" width="1.532" height="4270.126"/>
				<rect x="6270.952" y="-559.273" display="inline" fill="#FFFFFF" width="1.532" height="4270.125"/>
				<rect x="6099.35" y="-559.347" display="inline" fill="#FFFFFF" width="0" height="4270.825"/>
				<rect x="5929.281" y="-559.064" display="inline" fill="#FFFFFF" width="0" height="4270.827"/>
				<rect x="5754.614" y="-558.417" display="inline" fill="#FFFFFF" width="3.063" height="4270.125"/>
				<rect x="5584.545" y="-558.494" display="inline" fill="#FFFFFF" width="0" height="4270.825"/>
				<rect x="5412.943" y="-558.208" display="inline" fill="#FFFFFF" width="0" height="4270.825"/>
				<rect x="5241.341" y="-557.923" display="inline" fill="#FFFFFF" width="0" height="4270.826"/>
				<polygon display="inline" fill="#FFFFFF" points="5073.277,3711 5071.749,3711 5064.668,-558.196 5066.2,-558.66 				"/>
				<rect x="4896.607" y="-557.353" display="inline" fill="#FFFFFF" width="0" height="4270.824"/>
				<rect x="4723.471" y="-556.707" display="inline" fill="#FFFFFF" width="3.067" height="4270.123"/>
				<polygon display="inline" fill="#FFFFFF" points="4558.477,3713.407 4556.943,3713.266 4549.863,-557 4551.398,-557 				"/>
				<rect x="4381.802" y="-556.141" display="inline" fill="#FFFFFF" width="1.532" height="4270.125"/>
				<rect x="4210.201" y="-556.214" display="inline" fill="#FFFFFF" width="0" height="4270.826"/>
				<rect x="4037.066" y="-555.567" display="inline" fill="#FFFFFF" width="1.532" height="4270.124"/>
				<rect x="3865.466" y="-555.644" display="inline" fill="#FFFFFF" width="0" height="4270.827"/>
				<rect x="3693.863" y="-555" display="inline" fill="#FFFFFF" width="3.067" height="4270.125"/>
				<rect x="3523.795" y="-555.076" display="inline" fill="#FFFFFF" width="0" height="4270.825"/>
				<polygon display="inline" fill="#FFFFFF" points="3355.734,3715.401 3354.199,3715.262 3347.121,-555 3348.652,-555 				"/>
				<rect x="3179.06" y="-554.505" display="inline" fill="#FFFFFF" width="0" height="4270.825"/>
				<rect x="3007.458" y="-554.221" display="inline" fill="#FFFFFF" width="0" height="4270.825"/>
				<rect x="2835.857" y="-553.937" display="inline" fill="#FFFFFF" width="0" height="4270.827"/>
				
					<rect x="2662.725" y="-553.293" transform="matrix(1 -0.0019 0.0019 1 -3.021 5.0995)" display="inline" fill="#FFFFFF" width="3.063" height="4270.125"/>
				<rect x="2491.122" y="-553.364" display="inline" fill="#FFFFFF" width="0" height="4270.824"/>
				<rect x="2321.052" y="-553.083" display="inline" fill="#FFFFFF" width="0" height="4270.825"/>
				<polygon display="inline" fill="#FFFFFF" points="2152.991,3718 2151.457,3718 2144.377,-552.275 2145.912,-552.2 				"/>
				<rect x="1976.318" y="-552.153" display="inline" fill="#FFFFFF" width="1.53" height="4270.126"/>
				<rect x="1804.716" y="-552.225" display="inline" fill="#FFFFFF" width="0" height="4270.824"/>
				<rect x="1633.114" y="-551.942" display="inline" fill="#FFFFFF" width="0" height="4270.828"/>
				
					<rect x="1459.981" y="-551.299" transform="matrix(1 -0.0022 0.0022 1 -3.5293 3.2642)" display="inline" fill="#FFFFFF" width="3.064" height="4270.126"/>
				<rect x="1288.379" y="-551.371" display="inline" fill="#FFFFFF" width="0" height="4270.827"/>
				<rect x="1118.309" y="-551.087" display="inline" fill="#FFFFFF" width="0" height="4270.825"/>
				<rect x="946.708" y="-550.805" display="inline" fill="#FFFFFF" width="0" height="4270.828"/>
				<rect x="773.575" y="-550.159" display="inline" fill="#FFFFFF" width="1.531" height="4270.125"/>
				<rect x="601.973" y="-550.232" display="inline" fill="#FFFFFF" width="0" height="4270.825"/>
				<polygon display="inline" fill="#FFFFFF" points="433.912,3720.826 432.379,3720.974 425.299,-549 426.832,-549 				"/>
				<rect x="260.302" y="-549.665" display="inline" fill="#FFFFFF" width="0" height="4270.825"/>
				<polygon display="inline" fill="#FFFFFF" points="6876.628,3709.484 6875.095,3709.306 6868.018,-561 6869.549,-561 				"/>
				
					<rect x="87.168" y="-549.023" transform="matrix(1 -0.0038 0.0038 1 -6.0722 0.3483)" display="inline" fill="#FFFFFF" width="1.53" height="4270.129"/>
				<polygon display="inline" fill="#FFFFFF" points="6705.026,3710 6703.495,3710 6696.413,-560.05 6697.946,-560.086 				"/>
				<rect x="6528.353" y="-559.7" display="inline" fill="#FFFFFF" width="3.063" height="4270.124"/>
				<rect x="6358.284" y="-559.775" display="inline" fill="#FFFFFF" width="0" height="4270.826"/>
				<polygon display="inline" fill="#FFFFFF" points="6190.223,3710 6188.688,3710 6181.611,-559 6183.143,-559 				"/>
				<rect x="6013.549" y="-559.205" display="inline" fill="#FFFFFF" width="0" height="4270.827"/>
				<rect x="5841.946" y="-558.562" display="inline" fill="#FFFFFF" width="1.534" height="4270.125"/>
				<rect x="5670.344" y="-558.635" display="inline" fill="#FFFFFF" width="0" height="4270.825"/>
				
					<rect x="5497.212" y="-557.992" transform="matrix(1 -0.0025 0.0025 1 -4.0005 14.0146)" display="inline" fill="#FFFFFF" width="3.066" height="4270.126"/>
				<rect x="5325.611" y="-558.063" display="inline" fill="#FFFFFF" width="0" height="4270.826"/>
				<rect x="5155.541" y="-557.782" display="inline" fill="#FFFFFF" width="0" height="4270.826"/>
				<rect x="4983.94" y="-557.498" display="inline" fill="#FFFFFF" width="0" height="4270.825"/>
				<rect x="4810.806" y="-556.853" display="inline" fill="#FFFFFF" width="1.53" height="4270.125"/>
				<rect x="4639.205" y="-556.924" display="inline" fill="#FFFFFF" width="0" height="4270.824"/>
				<rect x="4467.603" y="-556.642" display="inline" fill="#FFFFFF" width="0" height="4270.825"/>
				<rect x="4294.47" y="-555.998" display="inline" fill="#FFFFFF" width="3.065" height="4270.126"/>
				<rect x="4122.869" y="-555.711" display="inline" fill="#FFFFFF" width="3.063" height="4270.124"/>
				<rect x="3952.799" y="-555.788" display="inline" fill="#FFFFFF" width="0" height="4270.826"/>
				<rect x="3781.198" y="-555.502" display="inline" fill="#FFFFFF" width="0" height="4270.826"/>
				<polygon display="inline" fill="#FFFFFF" points="3613.136,3715 3611.603,3715 3604.523,-555 3606.056,-555 				"/>
				<rect x="3436.462" y="-554.93" display="inline" fill="#FFFFFF" width="0" height="4270.825"/>
				<rect x="3264.86" y="-554.648" display="inline" fill="#FFFFFF" width="0" height="4270.828"/>
				<rect x="3094.79" y="-554.365" display="inline" fill="#FFFFFF" width="0" height="4270.826"/>
				<rect x="2921.657" y="-553.719" display="inline" fill="#FFFFFF" width="1.532" height="4270.125"/>
				<rect x="2750.055" y="-553.793" display="inline" fill="#FFFFFF" width="0" height="4270.826"/>
				<rect x="2576.922" y="-553.148" display="inline" fill="#FFFFFF" width="1.532" height="4270.125"/>
				<rect x="2406.853" y="-553.224" display="inline" fill="#FFFFFF" width="0" height="4270.825"/>
				<rect x="2233.72" y="-552.579" display="inline" fill="#FFFFFF" width="1.531" height="4270.124"/>
				<rect x="2062.118" y="-552.652" display="inline" fill="#FFFFFF" width="0" height="4270.824"/>
				<rect x="1888.983" y="-552.008" display="inline" fill="#FFFFFF" width="3.064" height="4270.124"/>
				<polygon display="inline" fill="#FFFFFF" points="1723.987,3718.756 1722.456,3718.939 1715.375,-551 1716.907,-551 				"/>
				<rect x="1547.313" y="-551.441" display="inline" fill="#FFFFFF" width="1.532" height="4270.124"/>
				<rect x="1375.711" y="-551.516" display="inline" fill="#FFFFFF" width="0" height="4270.829"/>
				<polygon display="inline" fill="#FFFFFF" points="1207.65,3719.184 1206.118,3719.153 1199.038,-551 1200.57,-551 				"/>
				<rect x="1030.976" y="-550.585" display="inline" fill="#FFFFFF" width="3.064" height="4270.123"/>
				<rect x="859.375" y="-550.66" display="inline" fill="#FFFFFF" width="0" height="4270.825"/>
				<rect x="689.306" y="-550.376" display="inline" fill="#FFFFFF" width="0" height="4270.825"/>
				<polygon display="inline" fill="#FFFFFF" points="521.244,3720.752 519.712,3720.938 512.632,-549 514.164,-549 				"/>
				<polygon display="inline" fill="#FFFFFF" points="349.642,3720.896 348.11,3721.011 341.03,-549 342.563,-549 				"/>
				<rect x="172.969" y="-549.519" display="inline" fill="#FFFFFF" width="0" height="4270.823"/>
				<rect x="7001.789" y="-560.844" display="inline" fill="#FFFFFF" width="0" height="4270.826"/>
				<polygon display="inline" fill="#FFFFFF" points="4.907,3722 3.376,3722 -3.704,-548.497 -2.173,-548.31 				"/>
				<g display="inline">
					<polygon fill="#FFFFFF" points="-39.947,4916.405 -39.618,4914.875 7367.156,4902.594 7367.156,4904.127 					"/>
					<rect x="3662.462" y="1033.401" fill="#FFFFFF" width="0" height="7407.464"/>
					<rect x="3662.179" y="861.797" fill="#FFFFFF" width="0" height="7407.468"/>
					<polygon fill="#FFFFFF" points="-40.875,4400.07 -40.582,4398.538 7366.156,4386.258 7366.156,4387.793 					"/>
					<rect x="3661.608" y="517.063" fill="#FFFFFF" width="0" height="7407.467"/>
					<rect x="3661.323" y="345.461" fill="#FFFFFF" width="0" height="7407.467"/>
					<rect x="3661.04" y="175.392" fill="#FFFFFF" width="0" height="7407.465"/>
					<rect x="-42.608" y="3705.991" fill="#FFFFFF" width="7406.452" height="1.531"/>
					<rect x="3660.469" y="-169.344" fill="#FFFFFF" width="0" height="7407.466"/>
					<rect x="-43.18" y="3361.257" fill="#FFFFFF" width="7406.455" height="1.531"/>
					<rect x="3659.9" y="-512.547" fill="#FFFFFF" width="0" height="7407.466"/>
					<rect x="-43.748" y="3018.054" fill="#FFFFFF" width="7406.452" height="3.063"/>
					<rect x="3659.331" y="-855.749" fill="#FFFFFF" width="0" height="7407.464"/>
					<rect x="-44.32" y="2673.319" fill="#FFFFFF" width="7406.453" height="3.062"/>
					<polygon fill="#FFFFFF" points="-44.442,2510.922 -44.367,2509.39 7362.156,2497.108 7362.156,2498.641 					"/>
					<polygon fill="#FFFFFF" points="-44.584,2339.319 -44.438,2337.787 7362.156,2325.508 7362.156,2327.039 					"/>
					<rect x="3658.19" y="-1543.688" fill="#FFFFFF" width="0" height="7407.466"/>
					<polygon fill="#FFFFFF" points="-46.37,1994.584 -46.83,1993.052 7359.156,1980.773 7359.156,1982.303 					"/>
					<rect x="-45.742" y="1815.312" fill="#FFFFFF" width="7406.453" height="3.065"/>
					<rect x="3657.336" y="-2058.492" fill="#FFFFFF" width="0" height="7407.464"/>
					<rect x="3657.051" y="-2230.093" fill="#FFFFFF" width="0" height="7407.465"/>
					<rect x="-46.596" y="1300.507" fill="#FFFFFF" width="7406.455" height="1.531"/>
					<rect x="-46.881" y="1128.904" fill="#FFFFFF" width="7406.452" height="1.534"/>
					<rect x="3656.195" y="-2746.429" fill="#FFFFFF" width="0" height="7407.464"/>
					<rect x="-47.452" y="784.17" fill="#FFFFFF" width="7406.455" height="1.529"/>
					<rect x="-47.735" y="612.566" fill="#FFFFFF" width="7406.452" height="3.065"/>
					<polygon fill="#FFFFFF" points="-47.844,450.171 -47.844,448.636 7358.513,436.359 7358.558,437.891 					"/>
					<rect x="3655.057" y="-3432.835" fill="#FFFFFF" width="0" height="7407.464"/>
					<polygon fill="#FFFFFF" points="-48.934,105.434 -49.114,103.904 7357.156,91.625 7357.156,93.155 					"/>
					<rect x="3654.487" y="-3777.571" fill="#FFFFFF" width="0" height="7407.464"/>
					<rect x="-49.159" y="-245.439" fill="#FFFFFF" width="7406.454" height="3.064"/>
					<rect x="3653.917" y="-4120.774" fill="#FFFFFF" width="0" height="7407.465"/>
					<rect x="-49.73" y="-590.174" fill="#FFFFFF" width="7406.455" height="3.064"/>
					<rect x="3653.348" y="-4463.976" fill="#FFFFFF" width="0" height="7407.463"/>
					<rect x="3653.063" y="-4635.579" fill="#FFFFFF" width="0" height="7407.465"/>
					<rect x="3652.779" y="-4807.18" fill="#FFFFFF" width="0" height="7407.464"/>
					<rect x="-50.869" y="-1276.581" fill="#FFFFFF" width="7406.452" height="1.532"/>
					<rect x="3652.207" y="-5151.914" fill="#FFFFFF" width="0" height="7407.463"/>
					<rect x="3651.926" y="-5321.984" fill="#FFFFFF" width="0" height="7407.464"/>
					<rect x="3662.89" y="1290.803" fill="#FFFFFF" width="0" height="7407.464"/>
					<rect x="-51.724" y="-1792.918" fill="#FFFFFF" width="7406.452" height="3.064"/>
					<polygon fill="#FFFFFF" points="-40.519,4829.072 -40.405,4827.543 7366.156,4815.262 7366.156,4816.793 					"/>
					
						<rect x="3660.652" y="948.103" transform="matrix(0.0018 1 -1 0.0018 8307.0908 981.0015)" fill="#FFFFFF" width="3.065" height="7406.455"/>
					<rect x="-40.849" y="4479.731" fill="#FFFFFF" width="7407.01" height="1.532"/>
					<rect x="3661.752" y="604.395" fill="#FFFFFF" width="0" height="7407.466"/>
					<rect x="-41.897" y="4134.996" fill="#FFFFFF" width="7406.455" height="1.53"/>
					<polygon fill="#FFFFFF" points="-40.844,3971.065 -40.844,3969.533 7364.932,3957.256 7365.268,3958.787 					"/>
					<rect x="3660.896" y="88.058" fill="#FFFFFF" width="0" height="7407.465"/>
					<rect x="3660.611" y="-83.543" fill="#FFFFFF" width="0" height="7407.464"/>
					<rect x="-43.037" y="3447.056" fill="#FFFFFF" width="7406.456" height="3.065"/>
					<rect x="-43.32" y="3276.986" fill="#FFFFFF" width="7406.454" height="1.536"/>
					<rect x="3659.758" y="-598.345" fill="#FFFFFF" width="0" height="7407.465"/>
					<polygon fill="#FFFFFF" points="-44.086,2939.924 -44.189,2938.395 7362.156,2926.111 7362.156,2927.643 					"/>
					<polygon fill="#FFFFFF" points="-44.227,2768.324 -44.261,2766.789 7362.156,2754.512 7362.156,2756.044 					"/>
					
						<rect x="3657.235" y="-1112.645" transform="matrix(0.0019 1 -1 0.0019 6242.3516 -1073.1309)" fill="#FFFFFF" width="3.065" height="7406.453"/>
					<rect x="3658.617" y="-1286.283" fill="#FFFFFF" width="0" height="7407.464"/>
					<rect x="-45.031" y="2244.314" fill="#FFFFFF" width="7406.454" height="3.063"/>
					<rect x="3658.047" y="-1629.487" fill="#FFFFFF" width="0" height="7407.464"/>
					<rect x="-45.597" y="1902.645" fill="#FFFFFF" width="7406.453" height="1.532"/>
					<rect x="3657.478" y="-1972.69" fill="#FFFFFF" width="0" height="7407.464"/>
					<polygon fill="#FFFFFF" points="-45.844,1565.58 -45.844,1564.048 7360.439,1551.768 7360.521,1553.299 					"/>
					<rect x="3656.907" y="-2317.425" fill="#FFFFFF" width="0" height="7407.465"/>
					<rect x="3656.625" y="-2487.495" fill="#FFFFFF" width="0" height="7407.464"/>
					<rect x="3656.341" y="-2659.095" fill="#FFFFFF" width="0" height="7407.464"/>
					<polygon fill="#FFFFFF" points="-47.794,879.174 -48.043,877.643 7358.156,865.363 7358.156,866.895 					"/>
					<rect x="3655.769" y="-3003.831" fill="#FFFFFF" width="0" height="7407.465"/>
					<rect x="3655.485" y="-3175.432" fill="#FFFFFF" width="0" height="7407.464"/>
					<polygon fill="#FFFFFF" points="-48.222,362.836 -48.257,361.306 7358.156,349.026 7358.156,350.557 					"/>
					
						<rect x="3653.248" y="-3518.132" transform="matrix(0.0019 1 -1 0.0019 3832.8838 -3470.0313)" fill="#FFFFFF" width="3.063" height="7406.455"/>
					<rect x="3654.63" y="-3690.236" fill="#FFFFFF" width="0" height="7407.461"/>
					<rect x="-49.019" y="-161.171" fill="#FFFFFF" width="7406.455" height="3.064"/>
					<rect x="-49.302" y="-331.241" fill="#FFFFFF" width="7406.456" height="1.532"/>
					<rect x="3653.774" y="-4206.574" fill="#FFFFFF" width="0" height="7407.464"/>
					<rect x="3653.491" y="-4378.176" fill="#FFFFFF" width="0" height="7407.466"/>
					<rect x="-50.159" y="-847.577" fill="#FFFFFF" width="7406.455" height="1.531"/>
					<rect x="-50.441" y="-1019.178" fill="#FFFFFF" width="7406.455" height="3.063"/>
					<rect x="3652.638" y="-4892.98" fill="#FFFFFF" width="0" height="7407.465"/>
					<rect x="-51.012" y="-1362.381" fill="#FFFFFF" width="7406.454" height="1.532"/>
					<rect x="-51.296" y="-1533.983" fill="#FFFFFF" width="7406.453" height="1.532"/>
					<rect x="-51.581" y="-1705.584" fill="#FFFFFF" width="7406.453" height="1.531"/>
					<polygon fill="#FFFFFF" points="-39.84,5045.105 -39.565,5043.573 7367.156,5031.295 7367.156,5032.826 					"/>
					<rect x="3651.496" y="-5580.918" fill="#FFFFFF" width="0" height="7407.464"/>
					<rect x="3662.677" y="1162.1" fill="#FFFFFF" width="0" height="7407.467"/>
					<rect x="3662.392" y="990.501" fill="#FFFFFF" width="0" height="7407.463"/>
					<polygon fill="#FFFFFF" points="-40.769,4528.77 -40.529,4527.238 7366.156,4514.959 7366.156,4516.49 					"/>
					<rect x="3661.821" y="645.764" fill="#FFFFFF" width="0" height="7407.466"/>
					<rect x="3661.538" y="475.693" fill="#FFFFFF" width="0" height="7407.467"/>
					<rect x="3661.254" y="304.093" fill="#FFFFFF" width="0" height="7407.463"/>
					<rect x="-42.395" y="3834.693" fill="#FFFFFF" width="7406.452" height="1.532"/>
					<rect x="3660.681" y="-40.642" fill="#FFFFFF" width="0" height="7407.464"/>
					<rect x="-42.966" y="3489.956" fill="#FFFFFF" width="7406.454" height="1.533"/>
					<rect x="3660.115" y="-382.311" fill="#FFFFFF" width="0" height="7407.464"/>
					
						<rect x="3658.159" y="-554.94" transform="matrix(0.0018 1 -1 0.0018 6801.5615 -516.9155)" fill="#FFFFFF" width="3.065" height="7406.453"/>
					<rect x="3659.546" y="-727.049" fill="#FFFFFF" width="0" height="7407.467"/>
					<polygon fill="#FFFFFF" points="-44.193,2811.225 -44.242,2809.691 7362.156,2797.412 7362.156,2798.943 					"/>
					<rect x="3658.973" y="-1071.784" fill="#FFFFFF" width="0" height="7407.466"/>
					<polygon fill="#FFFFFF" points="-44.476,2468.022 -44.385,2466.49 7362.156,2454.207 7362.156,2455.742 					"/>
					<rect x="3658.403" y="-1414.986" fill="#FFFFFF" width="0" height="7407.465"/>
					<rect x="-45.244" y="2115.613" fill="#FFFFFF" width="7406.453" height="3.064"/>
					<rect x="3657.832" y="-1759.721" fill="#FFFFFF" width="0" height="7407.464"/>
					<rect x="3657.549" y="-1929.789" fill="#FFFFFF" width="0" height="7407.463"/>
					<rect x="3657.266" y="-2101.392" fill="#FFFFFF" width="0" height="7407.463"/>
					<rect x="-46.384" y="1429.208" fill="#FFFFFF" width="7406.453" height="1.53"/>
					<rect x="3656.693" y="-2446.128" fill="#FFFFFF" width="0" height="7407.465"/>
					<rect x="3656.409" y="-2617.729" fill="#FFFFFF" width="0" height="7407.466"/>
					<rect x="3656.128" y="-2787.8" fill="#FFFFFF" width="0" height="7407.466"/>
					<rect x="-47.521" y="742.801" fill="#FFFFFF" width="7406.455" height="1.534"/>
					<rect x="3655.555" y="-3132.534" fill="#FFFFFF" width="0" height="7407.466"/>
					<rect x="3655.271" y="-3304.132" fill="#FFFFFF" width="0" height="7407.463"/>
					<polygon fill="#FFFFFF" points="-48.828,234.137 -49.059,232.604 7357.156,220.324 7357.156,221.856 					"/>
					<polygon fill="#FFFFFF" points="-48.97,62.534 -49.131,61.004 7357.156,48.722 7357.156,50.254 					"/>
					<rect x="3654.415" y="-3820.471" fill="#FFFFFF" width="0" height="7407.465"/>
					<rect x="3654.134" y="-3990.541" fill="#FFFFFF" width="0" height="7407.465"/>
					<polygon fill="#FFFFFF" points="-48.844,-452.27 -48.844,-453.803 7357.264,-466.081 7357.435,-464.548 					"/>
					<rect x="3653.561" y="-4335.275" fill="#FFFFFF" width="0" height="7407.463"/>
					<rect x="3653.277" y="-4506.878" fill="#FFFFFF" width="0" height="7407.465"/>
					<rect x="3652.993" y="-4678.479" fill="#FFFFFF" width="0" height="7407.466"/>
					
						<rect x="3651.039" y="-4849.574" transform="matrix(0.0019 1 -1 0.0019 2499.2378 -4796.7188)" fill="#FFFFFF" width="3.063" height="7406.453"/>
					<rect x="3652.422" y="-5023.214" fill="#FFFFFF" width="0" height="7407.465"/>
					
						<rect x="3650.468" y="-5194.31" transform="matrix(0.0019 1 -1 0.0019 2153.937 -5140.2261)" fill="#FFFFFF" width="3.064" height="7406.453"/>
					<rect x="3651.855" y="-5364.885" fill="#FFFFFF" width="0" height="7407.466"/>
					<rect x="-40.545" y="4950.101" fill="#FFFFFF" width="7406.455" height="3.066"/>
					<rect x="-51.794" y="-1834.285" fill="#FFFFFF" width="7406.453" height="1.53"/>
					<rect x="3662.532" y="1074.769" fill="#FFFFFF" width="0" height="7407.465"/>
					<polygon fill="#FFFFFF" points="-40.697,4616.104 -40.494,4614.572 7366.156,4602.29 7366.156,4603.824 					"/>
					<rect x="3661.966" y="733.097" fill="#FFFFFF" width="0" height="7407.467"/>
					<rect x="-40.849" y="4263.697" fill="#FFFFFF" width="7407.01" height="1.532"/>
					<rect x="3661.392" y="388.361" fill="#FFFFFF" width="0" height="7407.466"/>
					<rect x="3661.109" y="216.76" fill="#FFFFFF" width="0" height="7407.465"/>
					<rect x="3660.826" y="46.692" fill="#FFFFFF" width="0" height="7407.463"/>
					<rect x="-42.822" y="3577.29" fill="#FFFFFF" width="7406.454" height="1.533"/>
					<rect x="3660.256" y="-298.044" fill="#FFFFFF" width="0" height="7407.467"/>
					<rect x="3659.971" y="-469.647" fill="#FFFFFF" width="0" height="7407.466"/>
					<rect x="-43.678" y="3060.954" fill="#FFFFFF" width="7406.454" height="1.534"/>
					<rect x="-43.962" y="2889.353" fill="#FFFFFF" width="7406.453" height="1.529"/>
					<rect x="3659.115" y="-985.981" fill="#FFFFFF" width="0" height="7407.465"/>
					<rect x="3658.833" y="-1156.051" fill="#FFFFFF" width="0" height="7407.465"/>
					<polygon fill="#FFFFFF" points="-44.548,2382.22 -44.421,2380.687 7362.156,2368.407 7362.156,2369.938 					"/>
					<rect x="3658.261" y="-1500.787" fill="#FFFFFF" width="0" height="7407.465"/>
					<rect x="3657.977" y="-1672.387" fill="#FFFFFF" width="0" height="7407.464"/>
					<rect x="3657.692" y="-1843.991" fill="#FFFFFF" width="0" height="7407.466"/>
					<polygon fill="#FFFFFF" points="-46.618,1694.28 -46.955,1692.749 7359.156,1680.471 7359.156,1682.002 					"/>
					<rect x="3657.121" y="-2188.725" fill="#FFFFFF" width="0" height="7407.464"/>
					<rect x="3656.553" y="-2530.395" fill="#FFFFFF" width="0" height="7407.463"/>
					<rect x="-47.094" y="1000.205" fill="#FFFFFF" width="7406.455" height="1.529"/>
					<rect x="3655.983" y="-2875.129" fill="#FFFFFF" width="0" height="7407.462"/>
					<polygon fill="#FFFFFF" points="-47.844,663.142 -47.844,661.607 7358.69,649.328 7358.647,650.86 					"/>
					<rect x="3655.416" y="-3216.801" fill="#FFFFFF" width="0" height="7407.465"/>
					
						<rect x="3653.46" y="-3389.429" transform="matrix(0.0019 1 -1 0.0019 3961.8018 -3341.7888)" fill="#FFFFFF" width="3.065" height="7406.453"/>
					<rect x="3654.846" y="-3561.538" fill="#FFFFFF" width="0" height="7407.467"/>
					<rect x="-48.804" y="-30.938" fill="#FFFFFF" width="7406.454" height="1.531"/>
					<polygon fill="#FFFFFF" points="-49.184,-194.868 -49.238,-196.398 7357.156,-208.678 7357.156,-207.148 					"/>
					<polygon fill="#FFFFFF" points="-49.326,-366.468 -49.308,-368.001 7357.156,-380.28 7357.156,-378.75 					"/>
					<rect x="3653.704" y="-4249.476" fill="#FFFFFF" width="0" height="7407.465"/>
					<rect x="-49.943" y="-718.876" fill="#FFFFFF" width="7406.456" height="3.064"/>
					<rect x="-50.227" y="-888.945" fill="#FFFFFF" width="7406.453" height="1.531"/>
					<rect x="3652.85" y="-4764.279" fill="#FFFFFF" width="0" height="7407.464"/>
					<rect x="3652.565" y="-4935.881" fill="#FFFFFF" width="0" height="7407.465"/>
					<rect x="-51.083" y="-1405.282" fill="#FFFFFF" width="7406.453" height="1.533"/>
					<rect x="-51.367" y="-1576.884" fill="#FFFFFF" width="7406.453" height="1.533"/>
					<rect x="3651.71" y="-5452.218" fill="#FFFFFF" width="0" height="7407.465"/>
					<rect x="-40.332" y="5078.803" fill="#FFFFFF" width="7406.455" height="3.064"/>
					<rect x="-51.938" y="-1921.619" fill="#FFFFFF" width="7406.453" height="3.064"/>
				</g>
			</g>
			<rect x="3660.629" y="-72.818" display="none" clip-path="url(#SVGID_5_)" fill="#FFFFFF" width="0" height="7407.463"/>
			<polygon display="none" clip-path="url(#SVGID_5_)" fill="#FFFFFF" points="-44.548,2382.22 -44.421,2380.687 7362.156,2368.407 
				7362.156,2369.938 			"/>
			<rect x="-46.881" y="1128.904" display="none" clip-path="url(#SVGID_5_)" fill="#FFFFFF" width="7406.452" height="1.534"/>
			<rect x="3654.487" y="-3777.571" display="none" clip-path="url(#SVGID_5_)" fill="#FFFFFF" width="0" height="7407.464"/>
			<rect x="-43.748" y="3018.054" display="none" clip-path="url(#SVGID_5_)" fill="#FFFFFF" width="7406.452" height="3.063"/>
			<rect x="3657.501" y="-3175.437" display="none" clip-path="url(#SVGID_5_)" fill="#FFFFFF" width="0" height="7407.468"/>
			<rect x="3653.996" y="-4073.276" display="none" clip-path="url(#SVGID_5_)" fill="#FFFFFF" width="0" height="7407.464"/>
			<rect x="3660.115" y="-382.311" display="none" clip-path="url(#SVGID_5_)" fill="#FFFFFF" width="0" height="7407.464"/>
			<rect x="3660.062" y="-1629.491" display="none" clip-path="url(#SVGID_5_)" fill="#FFFFFF" width="0" height="7407.464"/>
			<rect x="3657.999" y="-2875.134" display="none" clip-path="url(#SVGID_5_)" fill="#FFFFFF" width="0" height="7407.467"/>
			<rect x="3653.996" y="-4073.276" display="none" clip-path="url(#SVGID_5_)" fill="#FFFFFF" width="0" height="7407.464"/>
			<rect x="-44.32" y="2673.319" display="none" clip-path="url(#SVGID_5_)" fill="#FFFFFF" width="7406.453" height="3.062"/>
			<rect x="-46.314" y="1470.576" display="none" clip-path="url(#SVGID_5_)" fill="#FFFFFF" width="7406.455" height="3.063"/>
			<polygon display="none" clip-path="url(#SVGID_5_)" fill="#FFFFFF" points="-48.828,234.137 -49.059,232.604 7357.156,220.324 
				7357.156,221.856 			"/>
			<rect x="-1.613" y="-2068.194" display="none" clip-path="url(#SVGID_5_)" fill="#FFFFFF" width="0" height="7409.482"/>
			<rect x="1247.107" y="-2062.206" display="none" clip-path="url(#SVGID_5_)" fill="#FFFFFF" width="0" height="7407.467"/>
			<rect x="2449.834" y="-2074.273" display="none" clip-path="url(#SVGID_5_)" fill="#FFFFFF" width="0" height="7409.481"/>
			<rect x="3693.95" y="-2071.839" display="none" clip-path="url(#SVGID_5_)" fill="#FFFFFF" width="3.066" height="7409.516"/>
			<rect x="602.06" y="-2067.18" display="none" clip-path="url(#SVGID_5_)" fill="#FFFFFF" width="0" height="7409.478"/>
			<polygon display="none" clip-path="url(#SVGID_5_)" fill="#FFFFFF" points="1841.557,-2071.671 1843.087,-2071.591 
				1855.373,5338 1853.841,5338 			"/>
			<rect x="3094.888" y="-2065.269" display="none" clip-path="url(#SVGID_5_)" fill="#FFFFFF" width="0" height="7409.479"/>
			<rect x="3994.25" y="-2075.401" display="none" clip-path="url(#SVGID_5_)" fill="#FFFFFF" width="3.063" height="7409.518"/>
			<rect x="301.754" y="-2068.697" display="none" clip-path="url(#SVGID_5_)" fill="#FFFFFF" width="0" height="7409.482"/>
			<polygon display="none" clip-path="url(#SVGID_5_)" fill="#FFFFFF" points="1541.261,-2067.124 1542.793,-2067.318 
				1555.079,5342 1553.545,5342 			"/>
			<rect x="2791.517" y="-2067.278" display="none" clip-path="url(#SVGID_5_)" fill="#FFFFFF" width="3.063" height="7407.985"/>
			<rect x="3994.252" y="-2072.891" display="none" clip-path="url(#SVGID_5_)" fill="#FFFFFF" width="0" height="7407.625"/>
			<rect x="946.802" y="-2063.722" display="none" clip-path="url(#SVGID_5_)" fill="#FFFFFF" width="0" height="7409.48"/>
			<polygon display="none" clip-path="url(#SVGID_5_)" fill="#FFFFFF" points="2141.858,-2072.42 2143.392,-2072.464 2155.676,5337 
				2154.144,5337 			"/>
			<rect x="3395.186" y="-2067.782" display="none" clip-path="url(#SVGID_5_)" fill="#FFFFFF" width="0" height="7407.465"/>
			<rect x="4294.553" y="-2075.899" display="none" clip-path="url(#SVGID_5_)" fill="#FFFFFF" width="3.064" height="7409.518"/>
			<rect x="5541.729" y="-2075.371" display="none" clip-path="url(#SVGID_5_)" fill="#FFFFFF" width="0" height="7407.468"/>
			<rect x="6742.937" y="-2079.957" display="none" clip-path="url(#SVGID_5_)" fill="#FFFFFF" width="1.531" height="7407.985"/>
			<rect x="7999.306" y="-2082.042" display="none" clip-path="url(#SVGID_5_)" fill="#FFFFFF" width="3.063" height="7409.518"/>
			<rect x="4896.688" y="-2076.316" display="none" clip-path="url(#SVGID_5_)" fill="#FFFFFF" width="0" height="7407.468"/>
			<rect x="6142.332" y="-2078.961" display="none" clip-path="url(#SVGID_5_)" fill="#FFFFFF" width="1.531" height="7407.987"/>
			<rect x="7384.912" y="-2080.441" display="none" clip-path="url(#SVGID_5_)" fill="#FFFFFF" width="0" height="7409.483"/>
			<rect x="8307.271" y="-2081.97" display="none" clip-path="url(#SVGID_5_)" fill="#FFFFFF" width="0" height="7409.483"/>
			<polygon display="none" clip-path="url(#SVGID_5_)" fill="#FFFFFF" points="4588.713,-2076.182 4590.242,-2076.081 
				4602.527,5332 4600.996,5332 			"/>
			<polygon display="none" clip-path="url(#SVGID_5_)" fill="#FFFFFF" points="5835.887,-2079 5837.419,-2079 5849.705,5331 
				5848.172,5331 			"/>
			<rect x="7076.946" y="-2080.512" display="none" clip-path="url(#SVGID_5_)" fill="#FFFFFF" width="1.533" height="7409.518"/>
			<rect x="8307.271" y="-2081.97" display="none" clip-path="url(#SVGID_5_)" fill="#FFFFFF" width="0" height="7409.483"/>
			
				<rect x="5196.99" y="-2078.927" transform="matrix(-1 0.0019 -0.0019 -1 10400.1436 3241.7161)" display="none" clip-path="url(#SVGID_5_)" fill="#FFFFFF" width="3.063" height="7409.519"/>
			<polygon display="none" clip-path="url(#SVGID_5_)" fill="#FFFFFF" points="6436.493,-2079.452 6438.023,-2079.456 
				6450.307,5328.519 6448.775,5328.525 			"/>
			<rect x="7692.875" y="-2080.951" display="none" clip-path="url(#SVGID_5_)" fill="#FFFFFF" width="0" height="7409.478"/>
			
				<rect x="-0.085" y="-369.287" transform="matrix(1 -0.0017 0.0017 1 -2.6992 5.8068)" clip-path="url(#SVGID_5_)" fill="none" width="7001.965" height="4000.466"/>
		</g>
		<path opacity="0.2" fill="#FFFFFF" stroke="#FFFFFF" stroke-width="5" stroke-miterlimit="10" d="M383.933,902.915
			c0,0,154.805-45.785,175.659-91.862c20.87-46.091-0.083-49.977-0.083-49.977l50.179-33.438c0,0-12.533,12.649,0.063,37.737
			c12.609,25.101,66.946-25.197,150.701-0.215c83.762,24.97,314.41,267.403,322.883,326.015
			c8.471,58.564-14.81,234.447,90.043,347.304c104.821,112.853,261.614,321.922,261.614,321.922l0.051,31.384l143.567,87.493
			l62.791-0.104l125.708,76.894l37.808,79.113l103.967-0.171l-0.051-30.517l-71.865-1.974l-28.809-121.352l-100.222-62.624
			l-117.09-24.925c0,0-96.434-153.97-33.703-187.944c62.733-33.961,158.989-75.984,192.504-59.296
			c33.516,16.687,88.073,83.576,88.073,83.576l41.882,4.116l-37.842-100.405l91.912-113.185c0,0,66.688-175.922,141.958-226.29
			c75.271-50.354,154.824-33.749,154.824-33.749l-79.613-54.285l-12.625-41.83l92.021-33.647l50.22-8.451l-41.73,75.411
			l113.082,29.117l33.399-46.095l-92.302-133.813l-96.412-71.008l-50.457-133.871l-71.081,46.174l-37.714-29.238l-21.035-54.385
			l-92.115-16.599l-41.715,92.167l-29.08,138.192l-100.517-29.136l-134.095-87.689l33.293-113.083l96.207-50.394l100.337-79.705
			l-4.318-75.351l-79.59-29.165l-20.795,79.567l-50.232-8.282l-46.216-96.206l-29.409-62.747l50.171-33.573l-46.074-25.046
			l-46.016,25.201l8.559,113.015l-24.972,87.944l-100.482-4.02l-77.479-20.804l-39.688,41.928l-62.795-4.075l-46.127-41.778
			l-138.207-37.448l-41.832,20.992l-33.599-71.102l-158.973,67.23l-146.559-33.243l-230.319-45.659L353.968,506.341l43.383,58.521
			l-61.319,29.419l0.074,43.945l94.831-10.633l-4.793,58.618l-92.426,12.708l20.852,62.777l71.105,16.625l-29.26,54.464
			L383.933,902.915z"/>
		<polygon opacity="0.2" fill="#FFFFFF" stroke="#FFFFFF" stroke-width="5" stroke-miterlimit="10" points="1896.669,2061.031 
			1896.816,2148.93 1855.271,2224.384 1836.683,2320.691 1904.929,2416.866 1968.465,2533.964 2035.785,2579.907 1994.784,3011.156 
			1961.766,3258.187 2037.369,3387.84 2125.332,3412.807 2070.786,3333.364 2095.788,3249.593 2125.033,3224.432 2087.265,3170.083 
			2145.786,3115.555 2171.405,3056.918 2259.801,2989.771 2259.674,2914.402 2301.975,2910.17 2386.833,2826.318 2420.817,2736.236 
			2536.148,2671.169 2605.318,2537.098 2605.214,2474.287 2685.624,2369.518 2655.693,2302.594 2387.319,2194.193 
			2340.927,2060.296 2219.428,2041.243 2164.861,1988.62 2068.574,1988.781 2030.85,1963.092 1955.564,2001.62 1911.617,2004.131 
			1875.878,2023.23 		"/>
		<polygon opacity="0.2" fill="#FFFFFF" stroke="#FFFFFF" stroke-width="5" stroke-miterlimit="10" points="1091.613,405.091 
			1109.251,314.188 1243.216,313.966 1264.18,339.266 1314.517,401.143 1331.183,352.122 1400.256,352.009 1377.311,396.481 
			1444.285,396.37 1515.542,450.325 1486.297,489.987 1414.121,470.13 1335.633,512.607 1221.212,496.308 1251.795,442.091 
			1209.887,412.08 1136.633,412.201 		"/>
		<polygon opacity="0.2" fill="#FFFFFF" stroke="#FFFFFF" stroke-width="5" stroke-miterlimit="10" points="1737.208,325.404 
			1683.936,391.729 1712.278,449.551 1796.011,449.411 1844.21,483.917 1916.78,449.831 1993.692,511.994 1993.782,566.396 
			1967.255,595.758 1991.682,618.369 1915.636,645.33 1990.999,645.204 2028.732,684.978 2122.922,684.822 2083.114,666.391 
			2122.878,658.127 2095.522,578.725 2162.592,620.514 2204.338,553.481 2120.536,511.773 2086.974,461.597 1943.951,361.363 
			1873.286,346.484 1852.318,325.214 		"/>
		<polygon opacity="0.2" fill="#FFFFFF" stroke="#FFFFFF" stroke-width="5" stroke-miterlimit="10" points="1592.614,226.054 
			1659.655,264.593 1683.798,308.989 1835.541,306.889 1868.965,268.229 1789.4,248.545 1714.073,267.598 1683.661,225.902 		"/>
		<polygon opacity="0.2" fill="#FFFFFF" stroke="#FFFFFF" stroke-width="5" stroke-miterlimit="10" points="1701.451,225.872 
			1745.406,225.8 1889.832,225.561 2006.888,134.251 2203.429,4.641 2098.735,-15.871 1952.255,5.415 1835.056,14.04 
			1730.428,26.796 1683.393,64.947 1780.797,115.426 1795.457,115.401 1868.647,76.167 1897.956,82.734 1835.209,107.076 
			1747.35,131.896 1667.757,106.701 1625.826,64.795 1592.457,131.769 1663.668,155.782 		"/>
		<polygon opacity="0.2" fill="#FFFFFF" stroke="#FFFFFF" stroke-width="5" stroke-miterlimit="10" points="2025.293,165.256 
			2141.671,152.508 2170.113,114.78 2090.589,114.912 2170.042,71.48 2283.007,31.851 2383.505,51.751 2412.773,30.323 
			2467.252,59.32 2504.909,46.592 2463.008,29.851 2563.397,-16.384 2718.262,-37.577 2889.944,-0.203 2831.388,24.204 
			2890.047,61.494 3051.224,61.227 2986.409,103.736 2932.049,141.771 2923.809,225.65 2907.231,326.204 2873.889,408.977 
			2865.635,481.236 2773.587,510.69 2681.518,527.596 2660.687,582.054 2585.358,603.11 2551.966,661.77 2533.314,766.453 
			2401.305,685.037 2342.459,540.724 2384.184,461.111 2308.835,465.437 2329.681,405.763 2404.956,356.471 2323.313,356.609 
			2308.528,281.257 2224.782,265.681 2099.136,226.106 2041.928,267.548 2025.371,210.538 		"/>
		<polygon opacity="0.2" fill="#FFFFFF" stroke="#FFFFFF" stroke-width="5" stroke-miterlimit="10" points="2851.18,599.347 
			2995.599,599.105 3052.159,624.756 2951.792,686.353 		"/>
		<polygon opacity="0.2" fill="#FFFFFF" stroke="#FFFFFF" stroke-width="5" stroke-miterlimit="10" points="1231.569,269.392 
			1349.758,253.527 1349.674,203.278 1409.482,236.143 1409.575,291.087 1320.61,307.975 		"/>
		<polygon opacity="0.2" fill="#FFFFFF" stroke="#FFFFFF" stroke-width="5" stroke-miterlimit="10" points="1091.34,241.388 
			1190.703,203.543 1270.185,174.108 1234.693,228.581 1180.845,255.896 		"/>
		<polygon opacity="0.2" fill="#FFFFFF" stroke="#FFFFFF" stroke-width="5" stroke-miterlimit="10" points="1491.68,410.646 
			1436.155,349.33 1490.019,308.344 1510.539,357.955 1552.176,357.886 1552.263,410.16 		"/>
		<polygon opacity="0.2" fill="#FFFFFF" stroke="#FFFFFF" stroke-width="5" stroke-miterlimit="10" points="1450.284,228.224 
			1515.218,255.339 1537.404,228.08 1594.775,268.804 1571.816,307.556 1480.172,268.992 		"/>
		<polygon opacity="0.2" fill="#FFFFFF" stroke="#FFFFFF" stroke-width="5" stroke-miterlimit="10" points="1394.714,132.04 
			1522.389,156.951 1594.616,173.573 1554.892,202.938 1450.193,173.813 		"/>
		<polygon opacity="0.2" fill="#FFFFFF" stroke="#FFFFFF" stroke-width="5" stroke-miterlimit="10" points="1810.691,1727.207 
			1898.603,1727.062 2093.402,1811.01 1986.657,1811.187 1946.28,1765.287 1873.558,1765.406 		"/>
		<polygon opacity="0.2" fill="#FFFFFF" stroke="#FFFFFF" stroke-width="5" stroke-miterlimit="10" points="4063.455,2571.269 
			4092.021,2517.355 4140.68,2496.627 4172.575,2450.803 4172.673,2509.371 4117.723,2635.09 4117.869,2722.952 4033.538,2685.441 
			4033.456,2635.18 		"/>
		<polygon opacity="0.2" fill="#FFFFFF" stroke="#FFFFFF" stroke-width="5" stroke-miterlimit="10" points="4968.759,2114.563 
			5028.029,2202.383 5070.273,2273.492 5112.355,2323.654 5137.846,2352.92 5159.074,2323.577 5159.007,2281.67 5126.232,2252.465 
			5094.102,2206.486 5065.982,2168.847 5011.338,2131.256 		"/>
		<path opacity="0.2" fill="#FFFFFF" stroke="#FFFFFF" stroke-width="5" stroke-miterlimit="10" d="M5140.145,2352.938l24.709-0.042
			l31.386-0.05l41.888-0.069l39.75-0.066l27.268,29.162l25.152,22.845l35.58-0.06c0,0,33.398,14.074,45.121,15.465
			c12.176,1.442,19.795,4.618,19.795,4.618c29.297-10.135,100.471,0.123,100.471,0.123l-41.818,23.619
			c-29.875-27.647-184.226-20.565-184.226-20.565l-54.461-28.149c-41.908-21.879-85.658-20.704-85.658-20.704L5140.145,2352.938z"/>
		<polygon opacity="0.2" fill="#FFFFFF" stroke="#FFFFFF" stroke-width="5" stroke-miterlimit="10" points="5203.854,2209.984 
			5233.643,2178.116 5271.313,2178.054 5300.56,2141.846 5335.02,2096.497 5392.604,2113.482 5367.556,2153.477 5371.835,2210.054 
			5360.031,2233.182 5336.744,2285.607 5336.802,2320.438 5284.098,2320.526 5242.187,2285.413 5225.393,2253.471 		"/>
		<polygon opacity="0.2" fill="#FFFFFF" stroke="#FFFFFF" stroke-width="5" stroke-miterlimit="10" points="5420.367,1812.408 
			5391.705,1888.561 5421.621,1931.128 5478.114,1931.035 5434.889,1896.892 5459.139,1842.057 		"/>
		<polygon opacity="0.2" fill="#FFFFFF" stroke="#FFFFFF" stroke-width="5" stroke-miterlimit="10" points="5434.82,1972.764 
			5480.324,1997.17 5514.061,2036.189 5514.165,2098.993 5477.32,2055.139 5477.287,2036.249 5437.676,1988.225 		"/>
		<path opacity="0.2" fill="#FFFFFF" stroke="#FFFFFF" stroke-width="5" stroke-miterlimit="10" d="M5382.818,2350.365
			l-0.064-37.663l-0.063-37.683l25.978-41.868l-0.047-27.746l25.995-0.042l43.949-0.853c-43.948,1.11-43.903,28.479-43.903,28.479
			l38.014,23.037c20.659,16.704-37.156,21.504-37.156,21.504l37.25,35.012c-4.428,31.444-42.02,0.074-42.02,0.074L5382.818,2350.365
			z"/>
		<path opacity="0.2" fill="#FFFFFF" stroke="#FFFFFF" stroke-width="5" stroke-miterlimit="10" d="M5579.09,2232.703l81.633-0.135
			l25.183,44.389l50.235-0.082c29.299-12.305,83.794,36.314,83.794,36.314l37.952,36.993l50.49,18.208l0.106,62.746l34.38,37.664
			l-101.217-69.98l-50.472,49.298l-50.444-29.216l-25.288-50.192l4.115-18.901l-25.207-37.625
			c-41.867-6.165-62.791,0.105-62.791,0.105c-8.407-22.96,8.319-35.063,8.319-35.063l-8.426-24.614L5579.09,2232.703z"/>
		<path opacity="0.2" fill="#FFFFFF" stroke="#FFFFFF" stroke-width="5" stroke-miterlimit="10" d="M5300.255,2757.277
			c0,0,85.423-76.92,91.718-72.725c6.298,4.197,81.609-34.282,81.609-34.282l5.742-65.264l73.113-48.417l27.218,26.664
			l31.302-48.688l62.787-0.102l37.666-0.063l-25.032,47.574l58.648,22.581l15.78,49.487l30.082-164.916l50.391,91.932l0.088,52.282
			l37.723,31.385l29.129,37.604l37.572,72.901l0.075,46.314l27.673,56.514l0.063,37.627l0.093,56.512l-29.161,56.607l-30.229,61.284
			l-47.029,27.807l-48.146,0.077l-57.617-37.033l-24.187-78.195l-29.385-36.984c-25.124-8.328-41.768,46.434-41.768,46.434
			c-20.981-20.902-62.893-54.139-62.893-54.139s8.37,4.248-23.015,4.299c-31.391,0.055-89.389,16.93-106.423,16.959
			c-17.052,0.03-37.955,12.644-37.955,12.644l-75.31,21.062l-59.91,12.673l-1.165-79.543l19.02-49.813l-19.213-67.389
			L5300.255,2757.277z"/>
		<path opacity="0.2" fill="#FFFFFF" stroke="#FFFFFF" stroke-width="5" stroke-miterlimit="10" d="M6222.345,3279.428
			l79.991-49.847l30.741-66.792c0,0,22.483,4.42,22.504,16.977c0.02,12.551,0.1,60.657,0.1,60.657l-64.737,65.144l-50.764,0.084
			L6222.345,3279.428z"/>
		<polygon opacity="0.2" fill="#FFFFFF" stroke="#FFFFFF" stroke-width="5" stroke-miterlimit="10" points="5820.847,3174.58 
			5869.498,3174.498 5917.627,3167.525 5869.346,3235.801 5820.888,3198.549 		"/>
		<path opacity="0.2" fill="#FFFFFF" stroke="#FFFFFF" stroke-width="5" stroke-miterlimit="10" d="M6341.214,3008.904l5.113,27.369
			l9.088,43.025l0.06,35.532c0.039,23.063,37.559,64.871,37.559,64.871l30.153-35.896l38.527-46.897l-58.612,0.099
			C6386.324,3077.117,6341.214,3008.904,6341.214,3008.904z"/>
		<path opacity="0.2" fill="#FFFFFF" stroke="#FFFFFF" stroke-width="5" stroke-miterlimit="10" d="M5577.827,1470.951l54.248-23.06
			l44.042-29.384l36.568-25.176l43.867-33.562l-0.078-46.092l21.202-33.485l17.11,37.652l0.068,39.726
			c-38.303,2.199-38.246,36.712-38.246,36.712l0.085,51.25c-35.229,6.4-70.584,19.008-70.584,19.008l-77.649,25.246
			C5604.311,1510.727,5577.827,1470.951,5577.827,1470.951z"/>
		<polygon opacity="0.2" fill="#FFFFFF" stroke="#FFFFFF" stroke-width="5" stroke-miterlimit="10" points="5779.303,1219.5 
			5779.25,1188.046 5866.751,1225.581 5804.236,1263.366 		"/>
		<polygon opacity="0.2" fill="#FFFFFF" stroke="#FFFFFF" stroke-width="5" stroke-miterlimit="10" points="5794.511,1150.357 
			5794.387,1074.999 5817.233,993.383 5817.365,1074.96 5807.212,1110.609 5819.765,1169.191 		"/>
		<path opacity="0.2" fill="#FFFFFF" stroke="#FFFFFF" stroke-width="5" stroke-miterlimit="10" d="M3173.739,1048.949l40.988-51.82
			l-22.061-22.718l19.821-24.874l-0.064-39.793l-32.236-35.493l-0.065-39.804l17.783-27.211
			c36.601-12.619,19.949,29.271,19.949,29.271c43.978,20.862,34.611,41.804,34.611,41.804l17.319,25.095l13.145,22.848l0.055,33.609
			l0.062,37.679l0.051,31.386l-55.484,0.112C3205.665,1045.842,3173.739,1048.949,3173.739,1048.949z"/>
		<path opacity="0.2" fill="#FFFFFF" stroke="#FFFFFF" stroke-width="5" stroke-miterlimit="10" d="M3112.883,941.307l44.122-33.549
			l23.292,33.462l0.093,56.492l-33.654,31.463c-31.409-12.491-33.809-60.635-33.809-60.635L3112.883,941.307z"/>
		<path opacity="0.2" fill="#FFFFFF" stroke="#FFFFFF" stroke-width="5" stroke-miterlimit="10" d="M3499.167,124.833l73.344-0.119
			l58.651,28.95l71.268,58.166l-66.984,0.111l-38.703,12.674l-36.588,21.042l-37.734-33.444l20.841-27.208
			c20.901-18.862-44.062-39.681-44.062-39.681L3499.167,124.833z"/>
		<path opacity="0.2" fill="#FFFFFF" stroke="#FFFFFF" stroke-width="5" stroke-miterlimit="10" d="M3630.911,112.357l48.32-0.079
			l75.347-0.126c6.313,12.247-61.747,48.929-61.747,48.929c-63.849-4.063-61.888-29.602-61.888-29.602L3630.911,112.357z"/>
		<path opacity="0.2" fill="#FFFFFF" stroke="#FFFFFF" stroke-width="5" stroke-miterlimit="10" d="M4304.063,434.528l-0.122-72.889
			l18.198-52.778l35.567-0.058l60.616-63.616l58.57-23.917l-43.973,0.075l-64.833,22.043c0,0-46.041,17.289-66.956,21.525
			c-20.921,4.22-63.611,37.993-63.611,37.993l-30.165,21.216l0.063,37.678l0.072,43.958l17.674,24.931l42.763,3.899
			L4304.063,434.528z"/>
		<g opacity="0.2">
			<path fill="#FFFFFF" stroke="#FFFFFF" stroke-width="5" stroke-miterlimit="10" d="M6574.739,567.126l-50.246,0.083
				l-104.821-100.238l-104.683-18.658l-20.843,54.784l-58.65-28.872l-87.91,0.146c-20.881,32.211-62.846-32.071-62.846-32.071
				l-119.313,0.199l-64.963-53.518l-73.276,0.122l-87.899,0.145l-22.949,37.398l-71.219-31.479l-46,34.53
				c-37.645,12.633-79.563-16.111-79.563-16.111l-33.563-45.754l-12.62-37.543l-87.88,16.961l-79.563-16.594
				c0,0-62.774,16.866-75.324,16.887c-12.559,0.021-37.707-16.667-37.707-16.667l129.715-33.705l-58.695-54.392
				c0,0-75.401-33.411-87.967-33.391c-12.559,0.021-121.404,0.202-121.404,0.202c-41.818,23.051-138.068,42.16-150.621,42.182
				c-12.559,0.021-83.682,21.078-83.682,21.078l-45.998,37.775l-54.357,29.411l-20.884,37.709l25.241,79.485l-67.029-33.371
				l-58.64-16.644l12.703,87.876l25.226,58.58l-58.549,29.396l-58.652-25.024l58.666-29.39l-4.24-87.902l-0.143-85.85
				l-49.265,10.579l-50.691,74.016l-17.238,53.003l-16.749,0.028l-62.829-31.951l-45.984,40.559l-100.44,20.423l-62.795-4.447
				l-58.538,41.789l-12.656-54.483l-45.925,71.197l-29.238,37.708l-41.833,12.612l-20.896,29.334l-10.191,9.667l-16.204-7.554
				l-0.084-50.242l-61.573-35.527l110.945-0.186l22.974-29.282l-134.095-77.206l-104.69-34.36l-125.551,28.989l-50.157,44.798
				l-37.563,63.803l-37.616,46.043c0,0-50.934,20.928-52.654,25.151c-1.708,4.22-60.252,44.033-60.252,44.033l-29.229,46.989
				l21.041,65.712l48.133-0.08l50.24-0.085l14.712,31.563l8.436,42.765l-29.248,34.469l56.514-0.095
				c31.359-26.098,35.518-38.559,39.678-55.303c4.158-16.761,29.198-67.473,29.198-67.473s4.188,3.938,16.719-17.004
				c12.518-20.924,37.542-81.798,37.542-81.798l8.498,81.558l96.244-21.083l37.714,20.831l-19.755,29.334l-105.617,12.73
				l0.075,46.023l4.155,20.95c-48.107,16.828-72.177,46.17-72.177,46.17c-33.461,12.618-99.952,0.166-99.952,0.166
				c-33.466,25.171-52.439,5.658-52.439,5.658l-23.611-51.581l-30.156,25.167l0.06,35.559c0.06,35.613-39.075,44.048-39.075,44.048
				l-32.828,20.985l0.046,29.27c-38.302,0.097-38.286,29.405-38.286,29.405l-37.952,33.545
				c-20.939-12.522-62.946,0.106-62.946,0.106l83.792,98.8l-33.514,36.18l-69.079,0.112l-65.41-17.749l0.149,89.976l24.428,60.689
				l38.369,33.437l-5.218,47.323l-60.827,57.424l3.583,2.298l0.093,56.283l-58.274,46.524l-31.752,49.918l-33.734,110.976
				l0.124,75.357l-18.171,64.929l107.832,175.646l64.581,50.123l42.949-16.811l57.631,16.644l83.679-37.81l41.88,9.521
				l20.995,30.459l52.319-0.088l20.623,33.318l-22.564,57.513l22.742,49.612l65.515,158.689l-41.685,104.584l41.999,83.588
				l50.456,133.827l29.481,104.59c0,0,87.942,24.97,100.501,20.769c12.549-4.213,108.736-67.157,108.736-67.157l44.771-100.56
				l44.896-25.183l-0.156-94.219l94.12-77.591c0,0-29.583-192.497-21.247-205.08c8.366-12.576,96.09-125.738,96.09-125.738
				l112.67-222.057l-112.987,25.299l-71.288-85.447l-134.47-302.66l35.584-0.059l52.479,90.538l37.859,117.436l41.995,79.641
				l50.324,46.035l125.476-62.96l96.174-62.957l41.718-87.963l-62.896-71.036l-79.44,71.275l-29.439-87.842l-12.713-87.894
				l37.779,60.576l41.898,22.164l48.148-0.08l56.551,26.511l75.369,7.934l81.83,58.289l65.063,43.694l0.102,62.789l76.657,213.371
				l37.025-39.805l32.993-125.642l79.241-92.231l83.582-42.001l41.873,22.936l33.612,85.782l25.169,41.823l50.478,148.499
				l49.261,108.9l40.788,60.506l-0.145-87.926l-48.126-58.503l-29.342-58.559l16.687-41.886l82.244,45.914l77.911-16.874
				l-0.137-83.748l-65.545-100.621l30.826-44.272l29.299-0.052l87.848-43.834l100.332-71.176l37.551-87.917l-42.05-104.538
				l4.116-37.95l37.643-33.256l-71.195-16.641l21.495-37.705l50.829-33.558l0.064,39.738l44.438,2.04l0.088,54.4l32.715,58.568
				l40.291-41.919l-19.693-71.139l21.529-40.882l21.548-45.053l77.44-0.128l104.468-194.778l-0.132-79.568l-37.792-20.842
				l-47.159-20.854l108.116-104.029l45.435-53.652l121.393-0.201l62.85,29.312l54.297-81.6l64.861-0.105l58.057-37.563l0.096,56.499
				l-122.035,90.227l-25.379,83.765l8.336,96.258l33.396,4.139l79.238-146.655l24.985-66.04l16.647-40.914l64.874-0.109
				l154.263-77.556l-0.073-43.971l77.673-23.132l57.575,29.213l70.099,16.63l-0.109-67.007L6574.739,567.126z"/>
			<polygon fill="#FFFFFF" stroke="#FFFFFF" stroke-width="5" stroke-miterlimit="10" points="4966.587,182.155 5013.688,182.077 
				5110.975,154.336 5032.908,154.467 5032.818,100.897 4981.033,75.873 4916.052,121.985 4945.264,154.209 			"/>
		</g>
	</g>
	<path clip-path="url(#SVGID_2_)" fill="#F8DCB4" d="M3083.592,427.415"/>
	<rect x="-3.844" y="-2" clip-path="url(#SVGID_2_)" fill="none" width="7000" height="3000"/>
	<rect x="2094.156" y="-133" clip-path="url(#SVGID_2_)" fill="none" width="7000" height="3000"/>
	<rect x="-392.844" y="-31" clip-path="url(#SVGID_2_)" fill="none" width="7000" height="3000"/>
	<rect x="-392.844" y="-31" clip-path="url(#SVGID_2_)" fill="none" width="7000" height="3000"/>
</g>
<g>
	<g>
		<polygon fill="#FFFFFF" points="4612.063,2152.325 4255.06,2152.325 4169.509,2285.263 4526.514,2285.263 		"/>
		<path fill="#292E33" d="M4533.576,2298.818h-388.584l103.004-160.05h388.585L4533.576,2298.818z M4194.027,2271.707h325.424
			l68.096-105.826h-325.426L4194.027,2271.707z"/>
	</g>
	<g>
		<rect x="1556.667" y="2206.549" fill="#292E33" width="2465.579" height="27.111"/>
	</g>
	<g>
		<path fill="#F7C450" d="M3056.541,1716.266c0,58.321-45.925,105.635-102.581,105.635c-56.643,0-102.554-47.313-102.554-105.635
			c0-58.32,45.911-105.62,102.554-105.62C3010.616,1610.646,3056.541,1657.945,3056.541,1716.266z"/>
		<g>
			<g>
				<polygon fill="#292E33" points="2966.955,1758.728 2940.633,1758.728 2940.633,1694.88 2930.751,1705.438 2911.799,1686.619 
					2944.318,1651.869 2966.955,1661.281 				"/>
			</g>
			<g>
				<rect x="2931.474" y="1744.84" fill="#292E33" width="44.125" height="27.112"/>
			</g>
		</g>
		<g>
			<rect x="3043.051" y="1529.072" fill="#292E33" width="26.323" height="84.724"/>
		</g>
		<g>
			<rect x="3015.083" y="1557.879" fill="#292E33" width="82.259" height="27.111"/>
		</g>
	</g>
	<path fill="#F7C450" d="M3326.347,1716.266c0,58.321-45.923,105.635-102.58,105.635c-56.64,0-102.551-47.313-102.551-105.635
		c0-58.32,45.911-105.62,102.551-105.62C3280.424,1610.646,3326.347,1657.945,3326.347,1716.266z"/>
	<g>
		<g>
			<polygon fill="#292E33" points="3236.762,1758.728 3210.438,1758.728 3210.438,1694.88 3200.561,1705.438 3181.61,1686.619 
				3214.128,1651.869 3236.762,1661.281 			"/>
		</g>
		<g>
			<rect x="3201.287" y="1744.84" fill="#292E33" width="44.125" height="27.112"/>
		</g>
	</g>
	<g>
		<g>
			<rect x="3296.413" y="1447.736" fill="#292E33" width="26.323" height="84.725"/>
		</g>
		<g>
			<rect x="3268.445" y="1476.543" fill="#292E33" width="82.259" height="27.112"/>
		</g>
	</g>
	<path fill="#F7C450" d="M3596.156,1716.266c0,58.321-45.922,105.635-102.579,105.635c-56.643,0-102.554-47.313-102.554-105.635
		c0-58.32,45.911-105.62,102.554-105.62C3550.234,1610.646,3596.156,1657.945,3596.156,1716.266z"/>
	<g>
		<g>
			<polygon fill="#292E33" points="3506.572,1758.728 3480.249,1758.728 3480.249,1694.88 3470.371,1705.438 3451.42,1686.619 
				3483.937,1651.869 3506.572,1661.281 			"/>
		</g>
		<g>
			<rect x="3471.097" y="1744.84" fill="#292E33" width="44.125" height="27.112"/>
		</g>
	</g>
	<g>
		<g>
			<rect x="2909.791" y="1461.293" fill="#292E33" width="26.323" height="108.446"/>
		</g>
		<g>
			<rect x="2870.307" y="1501.96" fill="#292E33" width="105.292" height="27.112"/>
		</g>
	</g>
	<path fill="#F7C450" d="M3865.967,1716.266c0,58.321-45.924,105.635-102.58,105.635c-56.643,0-102.553-47.313-102.553-105.635
		c0-58.32,45.91-105.62,102.553-105.62C3820.043,1610.646,3865.967,1657.945,3865.967,1716.266z"/>
	<g>
		<g>
			<polygon fill="#292E33" points="3776.382,1758.728 3750.059,1758.728 3750.059,1694.88 3740.182,1705.438 3721.229,1686.619 
				3753.747,1651.869 3776.382,1661.281 			"/>
		</g>
		<g>
			<rect x="3740.907" y="1744.84" fill="#292E33" width="44.124" height="27.112"/>
		</g>
	</g>
	<g>
		<g>
			<rect x="3632.029" y="1535.85" fill="#292E33" width="26.323" height="84.725"/>
		</g>
		<g>
			<rect x="3604.062" y="1564.656" fill="#292E33" width="82.259" height="27.112"/>
		</g>
	</g>
	<g>
		<g>
			<polygon fill="#292E33" points="4322.974,1970.207 4304.362,1951.039 4362.529,1891.123 4381.141,1910.291 			"/>
		</g>
		<g>
			<polygon fill="#292E33" points="4362.529,1970.207 4304.362,1910.291 4322.974,1891.123 4381.141,1951.039 			"/>
		</g>
	</g>
	<g>
		<g>
			<polygon fill="#292E33" points="4636.08,1968.539 4617.463,1949.37 4662.234,1903.249 4680.854,1922.418 			"/>
		</g>
		<g>
			<polygon fill="#292E33" points="4662.234,1968.539 4617.463,1922.418 4636.08,1903.249 4680.854,1949.37 			"/>
		</g>
	</g>
	<path fill="#F7C450" d="M4486.753,2150.055c0,58.32-45.923,105.635-102.579,105.635c-56.644,0-102.555-47.314-102.555-105.635
		s45.911-105.621,102.555-105.621C4440.83,2044.434,4486.753,2091.734,4486.753,2150.055z"/>
	<path fill="#F7C450" d="M4456.047,2172.646c0,58.327-45.922,105.646-102.579,105.646c-56.644,0-102.554-47.319-102.554-105.646
		c0-58.314,45.91-105.628,102.554-105.628C4410.125,2067.018,4456.047,2114.331,4456.047,2172.646z"/>
	<path fill="#F7C450" d="M4780.695,2150.055c0,58.32-45.924,105.635-102.58,105.635c-56.643,0-102.555-47.314-102.555-105.635
		s45.912-105.621,102.555-105.621C4734.771,2044.434,4780.695,2091.734,4780.695,2150.055z"/>
	<path fill="#F7C450" d="M4666.631,2150.048c0,58.32-45.924,105.642-102.58,105.642c-56.643,0-102.554-47.321-102.554-105.642
		s45.911-105.628,102.554-105.628C4620.707,2044.42,4666.631,2091.728,4666.631,2150.048z"/>
	<path fill="#F7C450" d="M4613.985,2082.269c0,58.32-45.925,105.64-102.579,105.64c-56.644,0-102.555-47.319-102.555-105.64
		s45.911-105.628,102.555-105.628C4568.061,1976.641,4613.985,2023.948,4613.985,2082.269z"/>
	<g>
		<path fill="#F7C450" d="M4662.234,2122.943c0,58.32-45.923,105.634-102.58,105.634c-56.643,0-102.553-47.313-102.553-105.634
			c0-58.321,45.91-105.621,102.553-105.621C4616.312,2017.322,4662.234,2064.622,4662.234,2122.943z"/>
		<g>
			<g>
				<polygon fill="#292E33" points="4572.649,2165.403 4546.326,2165.403 4546.326,2101.557 4536.449,2112.113 4517.498,2093.295 
					4550.016,2058.545 4572.649,2067.958 				"/>
			</g>
			<g>
				<rect x="4537.176" y="2151.518" fill="#292E33" width="44.124" height="27.111"/>
			</g>
		</g>
	</g>
	<g>
		<g>
			<rect x="2970.662" y="1339.29" fill="#292E33" width="26.323" height="84.724"/>
		</g>
		<g>
			<rect x="2942.695" y="1368.096" fill="#292E33" width="82.258" height="27.111"/>
		</g>
	</g>
	<g>
		<polygon fill="#FFFFFF" points="2467,1838.275 2875.005,1838.275 2875.005,1418.044 2467,1614.604 		"/>
		<path fill="#292E33" d="M2888.166,1851.831h-434.328v-245.853l434.328-209.248V1851.831z M2480.161,1824.72h381.683v-385.37
			l-381.683,183.872V1824.72z"/>
	</g>
	<polygon fill="#B7BEC0" points="2506.484,1797.607 2506.484,1640.478 2835.521,1481.971 2835.521,1797.607 	"/>
	<g>
		<rect x="2062.541" y="1041.573" fill="#FFFFFF" width="388.219" height="193.108"/>
		<path fill="#292E33" d="M2463.921,1248.237H2049.38v-220.22h414.541V1248.237z M2075.702,1221.126h361.896v-165.997h-361.896
			V1221.126z"/>
	</g>
	<rect x="2102.025" y="1082.241" fill="#B7BEC0" width="309.25" height="111.773"/>
	<g>
		<polygon fill="#FFFFFF" points="2450.76,1039.961 2062.541,1039.961 1996.734,913.927 2516.566,913.927 		"/>
		<path fill="#292E33" d="M2458.625,1053.518h-403.95l-79.964-153.146h563.879L2458.625,1053.518z M2070.408,1026.406h372.485
			l51.65-98.923h-475.786L2070.408,1026.406z"/>
	</g>
	<polygon fill="#B7BEC0" points="2086.14,999.294 2062.802,954.595 2450.499,954.595 2427.161,999.294 	"/>
	<g>
		<g>
			<g>
				<path fill="#292E33" d="M4000.306,2181.688H1585.181c-94.344,0-171.1-79.053-171.1-176.227
					c0-97.169,76.756-176.228,171.1-176.228h2415.125c94.349,0,171.1,79.059,171.1,176.228
					C4171.405,2102.635,4094.654,2181.688,4000.306,2181.688z M1585.181,1856.346c-79.829,0-144.776,66.893-144.776,149.115
					c0,82.222,64.947,149.114,144.776,149.114h2415.125c79.831,0,144.776-66.893,144.776-149.114
					c0-82.223-64.945-149.115-144.776-149.115H1585.181z"/>
			</g>
			<g>
				<path fill="#292E33" d="M4000.326,2141.02h-21.986v-27.111h21.966c1.286,0,2.578-0.021,3.856-0.066l0.945,27.091
					C4003.52,2140.993,4001.926,2141.02,4000.326,2141.02z M3952.049,2141.02h-26.289v-27.111h26.289V2141.02z M3899.462,2141.02
					h-26.292v-27.111h26.292V2141.02z M3846.881,2141.02h-26.298v-27.111h26.298V2141.02z M3794.291,2141.02h-26.289v-27.111h26.289
					V2141.02z M3741.705,2141.02h-26.292v-27.111h26.292V2141.02z M3689.123,2141.02h-26.297v-27.111h26.297V2141.02z
					 M3636.535,2141.02h-26.292v-27.111h26.292V2141.02z M3583.947,2141.02h-26.297v-27.111h26.297V2141.02z M3531.365,2141.02
					h-26.299v-27.111h26.299V2141.02z M3478.771,2141.02h-26.285v-27.111h26.285V2141.02z M3426.188,2141.02h-26.296v-27.111h26.296
					V2141.02z M3373.601,2141.02h-26.292v-27.111h26.292V2141.02z M3321.012,2141.02h-26.29v-27.111h26.29V2141.02z
					 M3268.431,2141.02h-26.297v-27.111h26.297V2141.02z M3215.844,2141.02h-26.291v-27.111h26.291V2141.02z M3163.258,2141.02
					h-26.293v-27.111h26.293V2141.02z M3110.671,2141.02h-26.294v-27.111h26.294V2141.02z M3058.085,2141.02h-26.293v-27.111h26.293
					V2141.02z M3005.498,2141.02h-26.292v-27.111h26.292V2141.02z M2952.914,2141.02h-26.294v-27.111h26.294V2141.02z
					 M2900.325,2141.02h-26.292v-27.111h26.292V2141.02z M2847.741,2141.02h-26.294v-27.111h26.294V2141.02z M2795.152,2141.02
					h-26.29v-27.111h26.29V2141.02z M2742.567,2141.02h-26.294v-27.111h26.294V2141.02z M2689.983,2141.02h-26.294v-27.111h26.294
					V2141.02z M2637.395,2141.02h-26.297v-27.111h26.297V2141.02z M2584.81,2141.02h-26.294v-27.111h26.294V2141.02z
					 M2532.222,2141.02h-26.294v-27.111h26.294V2141.02z M2479.637,2141.02h-26.294v-27.111h26.294V2141.02z M2427.048,2141.02
					h-26.293v-27.111h26.293V2141.02z M2374.461,2141.02h-26.291v-27.111h26.291V2141.02z M2321.877,2141.02h-26.292v-27.111h26.292
					V2141.02z M2269.291,2141.02h-26.294v-27.111h26.294V2141.02z M2216.704,2141.02h-26.292v-27.111h26.292V2141.02z
					 M2164.118,2141.02h-26.293v-27.111h26.293V2141.02z M2111.531,2141.02h-26.292v-27.111h26.292V2141.02z M2058.945,2141.02
					h-26.293v-27.111h26.293V2141.02z M2006.361,2141.02h-26.294v-27.111h26.294V2141.02z M1953.773,2141.02h-26.294v-27.111h26.294
					V2141.02z M1901.188,2141.02h-26.294v-27.111h26.294V2141.02z M1848.601,2141.02h-26.294v-27.111h26.294V2141.02z
					 M1796.015,2141.02h-26.293v-27.111h26.293V2141.02z M1743.427,2141.02h-26.294v-27.111h26.294V2141.02z M1690.843,2141.02
					h-26.294v-27.111h26.294V2141.02z M1638.254,2141.02h-26.292v-27.111h26.292V2141.02z M1585.67,2141.02h-0.489
					c-9.762,0-19.504-1.111-28.963-3.303l5.79-26.45c7.56,1.755,15.355,2.642,23.174,2.642L1585.67,2141.02z M4033.943,2136.539
					l-6.723-26.213c7.506-2.045,14.813-4.971,21.715-8.69l12.204,24.027C4052.495,2130.316,4043.352,2133.977,4033.943,2136.539z
					 M1528.647,2127.874c-8.766-4.316-17.094-9.651-24.751-15.853l16.288-21.307c6.126,4.971,12.791,9.239,19.806,12.695
					L1528.647,2127.874z M4085.296,2108.903l-17.011-20.691c5.945-5.183,11.344-11.06,16.041-17.461l20.996,16.362
					C4099.453,2095.096,4092.72,2102.43,4085.296,2108.903z M1483.132,2090.992c-6.157-7.784-11.475-16.27-15.806-25.212
					l23.559-12.093c3.465,7.154,7.723,13.939,12.651,20.175L1483.132,2090.992z M4120.225,2061.318l-23.965-11.212
					c3.22-7.294,5.637-14.973,7.197-22.815l25.791,5.44C4127.294,2042.561,4124.254,2052.179,4120.225,2061.318z M1457.297,2037.57
					c-2.292-9.697-3.541-19.712-3.708-29.767l26.316-0.47c0.135,8.056,1.134,16.064,2.97,23.822L1457.297,2037.57z
					 M4105.585,2003.369c-0.155-8.049-1.163-16.059-3.015-23.809l25.559-6.474c2.314,9.696,3.586,19.718,3.773,29.767
					L4105.585,2003.369z M1482.075,1983.433l-25.776-5.507c1.975-9.823,5.029-19.428,9.074-28.563l23.952,11.26
					C1486.091,1967.904,1483.652,1975.588,1482.075,1983.433z M4094.506,1957.049c-3.477-7.155-7.75-13.939-12.686-20.148
					l20.365-17.177c6.169,7.765,11.504,16.229,15.854,25.173L4094.506,1957.049z M1501.296,1939.998l-20.957-16.402
					c5.881-7.976,12.631-15.29,20.057-21.744l16.979,20.712C1511.421,1927.739,1506.013,1933.604,1501.296,1939.998z
					 M4065.13,1920.074c-6.138-4.957-12.808-9.207-19.826-12.649l11.285-24.49c8.786,4.296,17.12,9.618,24.788,15.807
					L4065.13,1920.074z M1536.751,1909.186l-12.16-24.047c8.647-4.633,17.805-8.273,27.213-10.814l6.678,26.224
					C1550.97,1902.574,1543.657,1905.485,1536.751,1909.186z M4023.275,1899.622c-7.494-1.728-15.219-2.608-22.97-2.608
					l-0.243-27.112h0.243c9.673,0,19.331,1.099,28.701,3.25L4023.275,1899.622z M1581.551,1897.079l-0.906-27.091
					c1.5-0.054,3.011-0.087,4.52-0.087h22.227v27.112h-22.21C1583.976,1897.014,1582.763,1897.04,1581.551,1897.079z
					 M3973.771,1897.014h-26.291v-27.112h26.291V1897.014z M3921.183,1897.014h-26.29v-27.112h26.29V1897.014z M3868.602,1897.014
					h-26.297v-27.112h26.297V1897.014z M3816.014,1897.014h-26.291v-27.112h26.291V1897.014z M3763.426,1897.014h-26.291v-27.112
					h26.291V1897.014z M3710.844,1897.014h-26.297v-27.112h26.297V1897.014z M3658.256,1897.014h-26.29v-27.112h26.29V1897.014z
					 M3605.668,1897.014h-26.297v-27.112h26.297V1897.014z M3553.087,1897.014h-26.298v-27.112h26.298V1897.014z M3500.492,1897.014
					h-26.292v-27.112h26.292V1897.014z M3447.911,1897.014h-26.298v-27.112h26.298V1897.014z M3395.322,1897.014h-26.29v-27.112
					h26.29V1897.014z M3342.735,1897.014h-26.292v-27.112h26.292V1897.014z M3290.154,1897.014h-26.298v-27.112h26.298V1897.014z
					 M3237.565,1897.014h-26.292v-27.112h26.292V1897.014z M3184.978,1897.014h-26.292v-27.112h26.292V1897.014z M3132.392,1897.014
					h-26.294v-27.112h26.294V1897.014z M3079.808,1897.014h-26.294v-27.112h26.294V1897.014z M3027.219,1897.014h-26.293v-27.112
					h26.293V1897.014z M2974.634,1897.014h-26.294v-27.112h26.294V1897.014z M2922.042,1897.014h-26.29v-27.112h26.29V1897.014z
					 M2869.461,1897.014h-26.294v-27.112h26.294V1897.014z M2816.874,1897.014h-26.291v-27.112h26.291V1897.014z M2764.289,1897.014
					h-26.293v-27.112h26.293V1897.014z M2711.701,1897.014h-26.294v-27.112h26.294V1897.014z M2659.115,1897.014h-26.292v-27.112
					h26.292V1897.014z M2606.528,1897.014h-26.292v-27.112h26.292V1897.014z M2553.944,1897.014h-26.294v-27.112h26.294V1897.014z
					 M2501.358,1897.014h-26.292v-27.112h26.292V1897.014z M2448.771,1897.014h-26.294v-27.112h26.294V1897.014z M2396.185,1897.014
					h-26.293v-27.112h26.293V1897.014z M2343.598,1897.014h-26.294v-27.112h26.294V1897.014z M2291.014,1897.014h-26.294v-27.112
					h26.294V1897.014z M2238.425,1897.014h-26.294v-27.112h26.294V1897.014z M2185.84,1897.014h-26.294v-27.112h26.294V1897.014z
					 M2133.252,1897.014h-26.29v-27.112h26.29V1897.014z M2080.667,1897.014h-26.294v-27.112h26.294V1897.014z M2028.079,1897.014
					h-26.29v-27.112h26.29V1897.014z M1975.495,1897.014H1949.2v-27.112h26.294V1897.014z M1922.91,1897.014h-26.294v-27.112h26.294
					V1897.014z M1870.321,1897.014h-26.294v-27.112h26.294V1897.014z M1817.737,1897.014h-26.294v-27.112h26.294V1897.014z
					 M1765.148,1897.014h-26.29v-27.112h26.29V1897.014z M1712.564,1897.014h-26.294v-27.112h26.294V1897.014z M1659.976,1897.014
					h-26.29v-27.112h26.29V1897.014z"/>
			</g>
		</g>
		<g>
			<path fill="#CED6D7" d="M1664.149,2005.461c0,37.443-29.462,67.779-65.807,67.779s-65.808-30.336-65.808-67.779
				c0-37.432,29.463-67.779,65.808-67.779S1664.149,1968.029,1664.149,2005.461z"/>
			<path fill="#CED6D7" d="M1848.411,2005.461c0,37.443-29.462,67.779-65.808,67.779c-36.345,0-65.807-30.336-65.807-67.779
				c0-37.432,29.462-67.779,65.807-67.779C1818.949,1937.682,1848.411,1968.029,1848.411,2005.461z"/>
			<path fill="#CED6D7" d="M2032.67,2005.461c0,37.443-29.462,67.779-65.807,67.779s-65.808-30.336-65.808-67.779
				c0-37.432,29.463-67.779,65.808-67.779S2032.67,1968.029,2032.67,2005.461z"/>
			<path fill="#CED6D7" d="M2216.932,2005.461c0,37.443-29.462,67.779-65.808,67.779c-36.345,0-65.807-30.336-65.807-67.779
				c0-37.432,29.462-67.779,65.807-67.779C2187.47,1937.682,2216.932,1968.029,2216.932,2005.461z"/>
			<path fill="#CED6D7" d="M2401.191,2005.461c0,37.443-29.462,67.779-65.807,67.779s-65.808-30.336-65.808-67.779
				c0-37.432,29.463-67.779,65.808-67.779S2401.191,1968.029,2401.191,2005.461z"/>
			<path fill="#CED6D7" d="M2585.453,2005.461c0,37.443-29.462,67.779-65.808,67.779c-36.345,0-65.807-30.336-65.807-67.779
				c0-37.432,29.462-67.779,65.807-67.779C2555.991,1937.682,2585.453,1968.029,2585.453,2005.461z"/>
			<path fill="#CED6D7" d="M2769.712,2005.461c0,37.443-29.462,67.779-65.807,67.779s-65.808-30.336-65.808-67.779
				c0-37.432,29.463-67.779,65.808-67.779S2769.712,1968.029,2769.712,2005.461z"/>
			<path fill="#CED6D7" d="M2953.974,2005.461c0,37.443-29.462,67.779-65.808,67.779c-36.345,0-65.807-30.336-65.807-67.779
				c0-37.432,29.461-67.779,65.807-67.779C2924.512,1937.682,2953.974,1968.029,2953.974,2005.461z"/>
			<path fill="#CED6D7" d="M3138.233,2005.461c0,37.443-29.461,67.779-65.806,67.779c-36.345,0-65.807-30.336-65.807-67.779
				c0-37.432,29.461-67.779,65.807-67.779C3108.771,1937.682,3138.233,1968.029,3138.233,2005.461z"/>
			<path fill="#CED6D7" d="M3322.491,2005.461c0,37.443-29.458,67.779-65.808,67.779c-36.342,0-65.807-30.336-65.807-67.779
				c0-37.432,29.465-67.779,65.807-67.779C3293.033,1937.682,3322.491,1968.029,3322.491,2005.461z"/>
			<path fill="#CED6D7" d="M3506.751,2005.461c0,37.443-29.459,67.779-65.807,67.779c-36.342,0-65.808-30.336-65.808-67.779
				c0-37.432,29.466-67.779,65.808-67.779C3477.292,1937.682,3506.751,1968.029,3506.751,2005.461z"/>
			<path fill="#CED6D7" d="M3691.012,2005.461c0,37.443-29.459,67.779-65.808,67.779c-36.342,0-65.807-30.336-65.807-67.779
				c0-37.432,29.465-67.779,65.807-67.779C3661.553,1937.682,3691.012,1968.029,3691.012,2005.461z"/>
			<path fill="#CED6D7" d="M3875.271,2005.461c0,37.443-29.459,67.779-65.807,67.779c-36.342,0-65.808-30.336-65.808-67.779
				c0-37.432,29.466-67.779,65.808-67.779C3845.813,1937.682,3875.271,1968.029,3875.271,2005.461z"/>
			<path fill="#CED6D7" d="M4059.533,2005.461c0,37.443-29.459,67.779-65.809,67.779c-36.342,0-65.807-30.336-65.807-67.779
				c0-37.432,29.465-67.779,65.807-67.779C4030.074,1937.682,4059.533,1968.029,4059.533,2005.461z"/>
		</g>
	</g>
	<g>
		<g>
			<line fill="#FFFFFF" x1="5598.896" y1="2194.799" x2="5499.903" y2="2194.806"/>
			<rect x="5499.903" y="2181.247" fill="#292E33" width="98.993" height="27.113"/>
		</g>
		<g>
			<line fill="#FFFFFF" x1="5549.406" y1="2245.799" x2="5549.406" y2="2143.839"/>
			<rect x="5536.245" y="2143.839" fill="#292E33" width="26.323" height="101.96"/>
		</g>
	</g>
	<rect x="5067.824" y="2092.117" fill="#B7BEC0" width="246.611" height="254.007"/>
	<g>
		<g>
			<rect x="5396.129" y="2435.529" fill="#292E33" width="26.321" height="27.111"/>
		</g>
		<g>
			<path fill="#292E33" d="M5371.656,2462.641h-24.479v-27.111h24.479V2462.641z M5322.699,2462.641h-24.472v-27.111h24.472
				V2462.641z M5273.755,2462.641h-24.484v-27.111h24.484V2462.641z M5224.799,2462.641h-24.473v-27.111h24.473V2462.641z"/>
		</g>
		<g>
			<rect x="5149.524" y="2435.529" fill="#292E33" width="26.323" height="27.111"/>
		</g>
		<g>
			<path fill="#292E33" d="M5175.848,2410.323h-26.323v-25.205h26.323V2410.323z M5175.848,2359.898h-26.323v-25.205h26.323
				V2359.898z M5175.848,2309.48h-26.323v-25.198h26.323V2309.48z M5175.848,2259.063h-26.323v-25.205h26.323V2259.063z"/>
		</g>
		<g>
			<rect x="5149.524" y="2181.535" fill="#292E33" width="26.323" height="27.111"/>
		</g>
		<g>
			<path fill="#292E33" d="M5371.656,2208.646h-24.479v-27.111h24.479V2208.646z M5322.699,2208.646h-24.479v-27.111h24.479
				V2208.646z M5273.749,2208.646h-24.479v-27.111h24.479V2208.646z M5224.799,2208.646h-24.473v-27.111h24.473V2208.646z"/>
		</g>
		<g>
			<rect x="5396.129" y="2181.535" fill="#292E33" width="26.321" height="27.111"/>
		</g>
		<g>
			<path fill="#292E33" d="M5422.45,2410.323h-26.321v-25.212h26.321V2410.323z M5422.45,2359.898h-26.321v-25.205h26.321V2359.898z
				 M5422.45,2309.48h-26.321v-25.212h26.321V2309.48z M5422.45,2259.063h-26.321v-25.21h26.321V2259.063z"/>
		</g>
	</g>
	<polygon display="none" fill="#61B4E4" points="2103.43,348.499 2038.375,387.194 1973.313,425.873 1973.313,348.499 
		1973.313,271.128 2038.375,309.804 	"/>
	<rect x="2767.647" y="832.363" fill="#B7BEC0" width="87.42" height="90.036"/>
	<g>
		<g>
			<rect x="2981.871" y="853.432" fill="#292E33" width="26.322" height="27.112"/>
		</g>
		<g>
			<path fill="#292E33" d="M2959.529,880.544h-22.342v-27.112h22.342V880.544z M2914.845,880.544h-22.342v-27.112h22.342V880.544z
				 M2870.158,880.544h-22.34v-27.112h22.34V880.544z"/>
		</g>
		<g>
			<rect x="2799.153" y="853.432" fill="#292E33" width="26.323" height="27.112"/>
		</g>
		<g>
			<path fill="#292E33" d="M2825.476,830.418h-26.323V807.41h26.323V830.418z M2825.476,784.396h-26.323v-23.012h26.323V784.396z
				 M2825.476,738.373h-26.323v-23.011h26.323V738.373z"/>
		</g>
		<g>
			<rect x="2799.153" y="665.238" fill="#292E33" width="26.323" height="27.112"/>
		</g>
		<g>
			<path fill="#292E33" d="M2959.529,692.35h-22.342v-27.112h22.342V692.35z M2914.842,692.35H2892.5v-27.112h22.342V692.35z
				 M2870.158,692.35h-22.34v-27.112h22.34V692.35z"/>
		</g>
		<g>
			<rect x="2981.871" y="665.238" fill="#292E33" width="26.322" height="27.112"/>
		</g>
		<g>
			<path fill="#292E33" d="M3008.193,830.418h-26.322V807.41h26.322V830.418z M3008.193,784.396h-26.322v-23.012h26.322V784.396z
				 M3008.193,738.373h-26.322v-23.011h26.322V738.373z"/>
		</g>
	</g>
	<g>
		<path fill="#292E33" d="M4486.214,1630.079c-18.638,0-27.069-15.813-33.231-27.351c-4.018-7.546-7.319-13.316-10.16-13.316
			c-2.835,0-6.132,5.771-10.154,13.31c-6.156,11.545-14.601,27.357-33.231,27.357c-18.638,0-27.075-15.813-33.238-27.351
			c-4.022-7.546-7.326-13.316-10.159-13.316c-2.842,0-6.139,5.771-10.154,13.31c-6.163,11.545-14.602,27.357-33.227,27.357
			c-18.635,0-27.08-15.813-33.244-27.351c-4.021-7.546-7.324-13.316-10.165-13.316c-2.853,0-6.163,5.771-10.193,13.316
			c-6.169,11.544-14.613,27.351-33.257,27.351c-18.643,0-27.094-15.807-33.258-27.351c-4.027-7.546-7.344-13.316-10.199-13.316
			V1562.3c18.645,0,27.096,15.819,33.265,27.363c4.024,7.539,7.34,13.305,10.192,13.305c2.854,0,6.164-5.766,10.192-13.305
			c6.169-11.544,14.614-27.363,33.258-27.363c18.63,0,27.075,15.819,33.23,27.363c4.03,7.539,7.334,13.305,10.179,13.305
			c2.83,0,6.132-5.766,10.156-13.305c6.155-11.544,14.587-27.363,33.225-27.363c18.631,0,27.068,15.819,33.231,27.363
			c4.022,7.539,7.325,13.305,10.166,13.305c2.835,0,6.138-5.766,10.161-13.305c6.156-11.544,14.6-27.363,33.225-27.363
			c18.637,0,27.068,15.819,33.23,27.363c4.018,7.539,7.32,13.305,10.161,13.305V1630.079z"/>
	</g>
	<g>
		<g>
			<g>
				<rect x="1403.481" y="1704.365" fill="#292E33" width="118.718" height="27.111"/>
			</g>
			<g>
				<rect x="1544.807" y="1704.365" fill="#292E33" width="39.574" height="27.111"/>
			</g>
		</g>
		<g>
			<rect x="1510.477" y="1643.033" fill="#292E33" width="181.844" height="27.111"/>
		</g>
	</g>
	<g>
		<g>
			<rect x="1949.477" y="708.299" fill="#292E33" width="37.948" height="27.112"/>
		</g>
		<g>
			<polygon fill="#292E33" points="1937.662,691.828 1914.867,678.275 1933.835,644.418 1956.633,657.975 			"/>
		</g>
		<g>
			<polygon fill="#292E33" points="1872.311,694.127 1853.339,660.274 1876.134,646.722 1895.105,680.571 			"/>
		</g>
		<g>
			<rect x="1826.409" y="712.909" fill="#292E33" width="37.962" height="27.111"/>
		</g>
		<g>
			<polygon fill="#292E33" points="1879.997,803.892 1857.202,790.336 1876.18,756.486 1898.974,770.042 			"/>
		</g>
		<g>
			<polygon fill="#292E33" points="1937.707,801.602 1918.729,767.738 1941.524,754.182 1960.501,788.045 			"/>
		</g>
	</g>
	<g>
		<path fill="#292E33" d="M2664.325,514.552h-0.071c-10.424,0-20.564-2.066-30.136-6.137l10.05-25.056
			c6.368,2.711,13.127,4.08,20.086,4.08L2664.325,514.552z M2694.539,508.35l-10.102-25.033c6.397-2.741,12.137-6.702,17.06-11.782
			l18.623,19.166C2712.746,498.302,2704.136,504.24,2694.539,508.35z M2608.5,490.815c-7.39-7.588-13.165-16.448-17.164-26.327
			l24.298-10.429c2.665,6.583,6.517,12.491,11.452,17.558L2608.5,490.815z M2737.23,464.33l-24.314-10.375
			c2.644-6.576,3.984-13.549,3.984-20.738l23.393-0.248l2.926,0.007C2743.224,443.986,2741.208,454.454,2737.23,464.33z
			 M2585.314,434.15l-0.029-0.934c0-10.709,1.995-21.128,5.928-30.961l24.337,10.33c-2.577,6.447-3.904,13.281-3.942,20.32
			l0.003,0.45h-13.285L2585.314,434.15z M2712.835,412.28c-2.683-6.586-6.549-12.483-11.491-17.54l18.547-19.239
			c7.401,7.569,13.193,16.415,17.217,26.284L2712.835,412.28z M2626.933,394.978l-18.657-19.123
			c7.361-7.615,15.954-13.573,25.543-17.71l10.153,25.017C2637.581,385.92,2631.849,389.888,2626.933,394.978z M2684.241,383.034
			c-6.336-2.684-13.062-4.041-19.987-4.041l-0.202-27.112h0.202c10.372,0,20.462,2.045,29.985,6.074L2684.241,383.034z"/>
	</g>
	<g>
		<rect x="1792.732" y="1116.13" fill="#FFFFFF" width="927.837" height="1331.802"/>
		<path fill="#292E33" d="M2733.73,2461.488h-954.16V1102.574h954.16V2461.488z M1805.894,2434.377h901.515V1129.686h-901.515
			V2434.377z"/>
	</g>
	<rect x="1832.215" y="1156.798" fill="#B7BEC0" width="848.87" height="1250.468"/>
	<g>
		<polygon fill="#292E33" points="2636.597,2380.153 1853.535,2380.153 1853.535,1614.604 1879.858,1614.604 1879.858,2353.042 
			2636.597,2353.042 		"/>
	</g>
	<g>
		<g>
			<path fill="#FFFFFF" d="M2405.125,1326.104c-39.741-40.893-92.503-63.417-148.542-63.384
				c-56.181-0.026-109.019,22.587-148.749,63.699c-39.523,40.929-61.312,95.192-61.298,152.712
				c0.055,119.289,94.306,216.384,210.137,216.313c56.219,0.006,109.071-22.672,148.824-63.756
				c39.537-40.912,61.257-95.129,61.257-152.643C2466.743,1421.313,2444.879,1366.983,2405.125,1326.104z"/>
			<path fill="#292E33" d="M2256.541,1708.998c-122.996,0-223.108-103.118-223.166-229.86
				c-0.014-61.141,23.116-118.773,65.129-162.28c42.186-43.654,98.29-67.694,157.979-67.694c59.721,0,115.735,23.918,157.944,67.343
				c42.215,43.424,65.476,101.14,65.489,162.524c0,61.174-23.116,118.787-65.091,162.221
				c-42.279,43.687-98.435,67.746-158.123,67.746h-0.003l-0.158-13.555l0.123-13.557c52.68,0,102.212-21.228,139.512-59.771
				c37.024-38.312,57.417-89.126,57.417-143.071c-0.012-54.145-20.526-105.055-57.768-143.347
				c-37.241-38.32-86.648-59.422-139.12-59.422c-52.854,0-102.335,21.204-139.542,59.705
				c-37.067,38.394-57.478,89.225-57.464,143.15c0.05,111.796,88.354,202.756,196.843,202.756V1708.998z"/>
		</g>
		<path fill="#61B4E4" d="M2379.2,1604.635c-32.787,33.903-76.256,52.523-122.527,52.543
			c-95.382,0.066-172.977-79.82-172.951-178.073c0-47.393,17.917-92.019,50.487-125.68c32.723-33.873,76.205-52.492,122.399-52.499
			c46.167-0.007,89.559,18.48,122.289,52.218c32.717,33.645,50.724,78.41,50.764,125.888
			C2429.674,1526.385,2411.782,1570.984,2379.2,1604.635z"/>
		<path fill="#F7C450" d="M2429.662,1479.031c-0.026-30.857-7.686-60.544-21.991-86.796l-34.614,20.155l-124.751,72.638
			l84.573,119.144l17.43,24.557c10.307-6.87,20.005-14.893,28.893-24.094C2411.782,1570.984,2429.674,1526.385,2429.662,1479.031z"
			/>
		<g>
			<g>
				<path fill="#FFFFFF" stroke="#292E33" stroke-width="4" d="M2387.413,1613.757"/>
			</g>
		</g>
		<path fill="#FFFFFF" d="M2338.804,1563.227c-21.967,22.724-51.118,35.213-82.119,35.213
			c-63.937,0.053-115.946-53.495-115.934-119.354c0-31.759,12.005-61.677,33.843-84.241c21.934-22.704,51.078-35.181,82.04-35.184
			c30.938-0.01,60.037,12.38,81.964,35.005c21.934,22.544,34.009,52.549,34.035,84.366
			C2372.645,1510.777,2360.654,1540.662,2338.804,1563.227z"/>
		<g>
			<g>
				<line fill="#FFFFFF" x1="2259.963" y1="1312.128" x2="2259.963" y2="1342.57"/>
				<rect x="2246.802" y="1312.128" fill="#292E33" width="26.323" height="30.442"/>
			</g>
			<g>
				<line fill="#FFFFFF" x1="2179.632" y1="1332.118" x2="2194.414" y2="1358.479"/>
				<polygon fill="#292E33" points="2183.016,1365.256 2168.234,1338.899 2191.029,1325.34 2205.811,1351.701 				"/>
			</g>
			<g>
				<line fill="#FFFFFF" x1="2119.788" y1="1390.799" x2="2145.379" y2="1406.01"/>
				<polygon fill="#292E33" points="2138.802,1417.752 2113.212,1402.541 2126.366,1379.057 2151.957,1394.268 				"/>
			</g>
			<g>
				<line fill="#FFFFFF" x1="2096.432" y1="1472.439" x2="2125.983" y2="1472.439"/>
				<rect x="2096.432" y="1458.883" fill="#292E33" width="29.551" height="27.112"/>
			</g>
			<g>
				<line fill="#FFFFFF" x1="2115.843" y1="1555.164" x2="2141.445" y2="1539.94"/>
				<polygon fill="#292E33" points="2122.424,1566.906 2109.262,1543.422 2134.866,1528.198 2148.026,1551.683 				"/>
			</g>
			<g>
				<line fill="#FFFFFF" x1="2172.82" y1="1616.808" x2="2187.588" y2="1590.443"/>
				<polygon fill="#292E33" points="2184.22,1623.579 2161.417,1610.037 2176.188,1583.666 2198.985,1597.222 				"/>
			</g>
			<g>
				<line fill="#FFFFFF" x1="2252.084" y1="1640.855" x2="2252.084" y2="1610.421"/>
				<rect x="2238.923" y="1610.421" fill="#292E33" width="26.323" height="30.435"/>
			</g>
			<g>
				<line fill="#FFFFFF" x1="2332.402" y1="1620.859" x2="2317.622" y2="1594.502"/>
				<polygon fill="#292E33" points="2321.005,1627.637 2306.225,1601.279 2329.02,1587.724 2343.8,1614.08 				"/>
			</g>
			<g>
				<line fill="#FFFFFF" x1="2392.258" y1="1562.193" x2="2366.656" y2="1546.97"/>
				<polygon fill="#292E33" points="2385.682,1573.923 2360.079,1558.712 2373.233,1535.234 2398.836,1550.451 				"/>
			</g>
			<g>
				<line fill="#FFFFFF" x1="2415.597" y1="1480.548" x2="2386.051" y2="1480.548"/>
				<rect x="2386.051" y="1466.992" fill="#292E33" width="29.545" height="27.111"/>
			</g>
			<g>
				<line fill="#FFFFFF" x1="2396.193" y1="1397.816" x2="2370.602" y2="1413.039"/>
				<polygon fill="#292E33" points="2377.185,1424.781 2364.018,1401.304 2389.609,1386.072 2402.776,1409.559 				"/>
			</g>
			<g>
				<line fill="#FFFFFF" x1="2336.953" y1="1429.097" x2="2278.472" y2="1463.874"/>
				<polygon fill="#292E33" points="2285.052,1475.616 2271.891,1452.138 2330.373,1417.354 2343.534,1440.833 				"/>
			</g>
			<g>
				<line fill="#FFFFFF" x1="2339.228" y1="1336.166" x2="2324.446" y2="1362.529"/>
				<polygon fill="#292E33" points="2335.845,1369.307 2313.049,1355.751 2327.831,1329.388 2350.625,1342.943 				"/>
			</g>
		</g>
		<path fill="#FFFFFF" d="M2256.673,1661.691c42.968-0.013,83.364-15.429,113.826-43.506c3.521-3.238,6.837-6.613,9.987-10.088
			l-32.294-37.386l-91.625-106.083l-91.62,106.083l-32.229,37.313C2162.217,1640.809,2206.83,1661.731,2256.673,1661.691z"/>
		<g>
			<path fill="#FFFFFF" d="M2273.552,1496.334c-4.508,4.666-10.491,7.228-16.867,7.234c-13.122,0.007-23.802-10.981-23.802-24.51
				c0-6.526,2.467-12.669,6.953-17.303c4.499-4.666,10.488-7.229,16.85-7.229c6.35,0,12.327,2.542,16.826,7.195
				c4.511,4.627,6.985,10.789,6.992,17.322C2280.503,1485.564,2278.042,1491.7,2273.552,1496.334z"/>
			<path fill="#292E33" d="M2256.699,1517.124h-0.025c-20.376,0-36.952-17.07-36.952-38.065c0-10.141,3.832-19.686,10.792-26.874
				c6.967-7.222,16.266-11.213,26.171-11.213c9.885,0,19.167,3.972,26.144,11.173c6.967,7.149,10.825,16.707,10.834,26.887
				c0,10.154-3.833,19.692-10.796,26.881C2275.898,1513.127,2266.599,1517.117,2256.699,1517.124z M2256.685,1468.083
				c-2.879,0-5.478,1.119-7.508,3.224c-2.058,2.125-3.132,4.799-3.132,7.752c0,6.036,4.765,10.947,10.62,10.954
				c2.9-0.007,5.513-1.119,7.557-3.236c2.047-2.118,3.12-4.779,3.12-7.731c-0.004-2.952-1.084-5.633-3.12-7.725
				C2262.158,1469.195,2259.564,1468.083,2256.685,1468.083z"/>
		</g>
	</g>
	<g>
		<g>
			<g>
				<path fill="#F7C450" d="M2185.197,771.213h142.652c1.001-13.887,4.027-31.97,12.522-43.6
					c52.633-69.821,56.007-136.316,56.007-141.019c0-79.521-62.542-143.916-139.737-143.916
					c-77.196,0-139.718,64.395-139.718,143.916c0,4.703,3.276,71.168,55.975,141.019
					C2181.367,739.243,2184.298,757.326,2185.197,771.213z"/>
				<g>
					<g>
						<polygon fill="#292E33" points="2206.542,773.226 2178.877,615.056 2204.783,610.25 2232.448,768.424 						"/>
					</g>
					<g>
						<polygon fill="#292E33" points="2306.764,773.232 2280.858,768.427 2308.512,610.25 2334.417,615.056 						"/>
					</g>
				</g>
				<g>
					<polygon fill="#292E33" points="2306.157,646.51 2292.341,646.51 2277.91,637.349 2263.504,646.507 2249.675,646.507 
						2235.275,637.349 2220.887,646.507 2207.044,646.503 2185.766,632.947 2199.616,609.89 2213.972,619.037 2228.358,609.883 
						2242.19,609.883 2256.589,619.041 2270.987,609.883 2284.811,609.88 2299.248,619.047 2313.688,609.88 2327.506,632.954 					
						"/>
				</g>
				<g>
					<g>
						<rect x="2175.963" y="759.352" fill="#292E33" width="161.375" height="27.112"/>
					</g>
					<g>
						<rect x="2175.963" y="803.091" fill="#292E33" width="161.375" height="27.111"/>
					</g>
					<g>
						<rect x="2203.873" y="846.83" fill="#292E33" width="105.542" height="27.111"/>
					</g>
					<g>
						<rect x="2202.376" y="774.847" fill="#292E33" width="26.322" height="38.179"/>
					</g>
				</g>
			</g>
		</g>
	</g>
	<g>
		<path fill="#FFFFFF" d="M1999.768,2253.993c0,3.748-2.947,6.779-6.581,6.779h-48.26c-3.635,0-6.581-3.031-6.581-6.779v-192.045
			c0-3.733,2.945-6.778,6.581-6.778h48.26c3.634,0,6.581,3.045,6.581,6.778V2253.993z"/>
		<path fill="#292E33" d="M1993.187,2274.328h-48.26c-10.887,0-19.742-9.122-19.742-20.335v-192.045
			c0-11.213,8.855-20.334,19.742-20.334h48.26c10.886,0,19.743,9.121,19.743,20.334v192.045
			C2012.93,2265.206,2004.073,2274.328,1993.187,2274.328z M1951.508,2247.217h35.098v-178.49h-35.098V2247.217z"/>
	</g>
	<g>
		<g>
			<path fill="#292E33" d="M1972.907,2231.965c-4.299,0-8.511-2.158-11.038-6.148c-3.971-6.281-2.251-14.667,3.834-18.765
				l201.808-135.559c6.095-4.085,14.241-2.317,18.216,3.95c3.971,6.269,2.252,14.675-3.834,18.766l-201.808,135.559
				C1977.866,2231.251,1975.373,2231.965,1972.907,2231.965z"/>
		</g>
		<g>
			<path fill="#FFFFFF" d="M2225.157,2082.852c0,28.713-22.588,51.959-50.454,51.959c-27.861,0-50.451-23.246-50.451-51.959
				c0-28.688,22.59-51.961,50.451-51.961C2202.569,2030.891,2225.157,2054.164,2225.157,2082.852z"/>
			<path fill="#292E33" d="M2174.703,2148.367c-35.076,0-63.613-29.39-63.613-65.516c0-36.128,28.537-65.517,63.613-65.517
				c35.078,0,63.615,29.389,63.615,65.517C2238.318,2118.978,2209.781,2148.367,2174.703,2148.367z M2174.703,2044.447
				c-20.561,0-37.29,17.223-37.29,38.404c0,21.181,16.729,38.403,37.29,38.403c20.565,0,37.292-17.223,37.292-38.403
				C2211.995,2061.67,2195.269,2044.447,2174.703,2044.447z"/>
		</g>
	</g>
	<g>
		<rect x="2587.644" y="2043.877" fill="#292E33" width="26.323" height="225.924"/>
	</g>
	<g>
		<rect x="2534.999" y="2043.877" fill="#292E33" width="26.322" height="225.924"/>
	</g>
	<g>
		<rect x="2482.352" y="2043.877" fill="#292E33" width="26.323" height="225.924"/>
	</g>
	<g>
		<rect x="2429.706" y="2043.877" fill="#292E33" width="26.323" height="225.924"/>
	</g>
	<g>
		<rect x="2377.061" y="2043.877" fill="#292E33" width="26.323" height="225.924"/>
	</g>
	<g>
		<rect x="2324.414" y="2043.877" fill="#292E33" width="26.323" height="225.924"/>
	</g>
	<g>
		<rect x="1933.96" y="1777.274" fill="#F7C450" width="684.396" height="63.265"/>
		<path fill="#292E33" d="M2631.518,1854.096h-710.72v-90.377h710.72V1854.096z M1947.122,1826.983h658.073v-36.153h-658.073
			V1826.983z"/>
	</g>
	<g>
		<rect x="1969.058" y="1814.553" fill="#292E33" width="26.323" height="33.891"/>
	</g>
	<g>
		<rect x="2023.349" y="1814.553" fill="#292E33" width="26.323" height="33.891"/>
	</g>
	<g>
		<rect x="2077.64" y="1814.553" fill="#292E33" width="26.323" height="33.891"/>
	</g>
	<g>
		<rect x="2131.931" y="1814.553" fill="#292E33" width="26.323" height="33.891"/>
	</g>
	<g>
		<rect x="2186.223" y="1814.553" fill="#292E33" width="26.322" height="33.891"/>
	</g>
	<g>
		<rect x="2240.514" y="1814.553" fill="#292E33" width="26.322" height="33.891"/>
	</g>
	<g>
		<rect x="2294.805" y="1814.553" fill="#292E33" width="26.322" height="33.891"/>
	</g>
	<g>
		<rect x="2349.096" y="1814.553" fill="#292E33" width="26.322" height="33.891"/>
	</g>
	<g>
		<rect x="2403.387" y="1814.553" fill="#292E33" width="26.323" height="33.891"/>
	</g>
	<g>
		<rect x="2457.678" y="1814.553" fill="#292E33" width="26.323" height="33.891"/>
	</g>
	<g>
		<rect x="2511.969" y="1814.553" fill="#292E33" width="26.323" height="33.891"/>
	</g>
	<g>
		<rect x="2566.26" y="1814.553" fill="#292E33" width="26.323" height="33.891"/>
	</g>
	<g>
		<g>
			<path fill="#292E33" d="M2017.312,1979.864h-96.513v-99.411h96.513V1979.864z M1947.122,1952.753h43.867v-45.188h-43.867
				V1952.753z"/>
		</g>
		<g>
			<path fill="#292E33" d="M2143.445,1979.864h-96.52v-99.411h96.52V1979.864z M2073.249,1952.753h43.873v-45.188h-43.873V1952.753z
				"/>
		</g>
		<g>
			<path fill="#292E33" d="M2269.57,1979.864h-96.512v-99.411h96.512V1979.864z M2199.38,1952.753h43.867v-45.188h-43.867V1952.753z
				"/>
		</g>
	</g>
	<g>
		<rect x="2322.223" y="1916.606" fill="#292E33" width="313.68" height="27.111"/>
	</g>
	<ellipse fill="#F7C450" cx="2412.159" cy="1930.162" rx="26.323" ry="27.111"/>
	<g>
		<rect x="1604.924" y="2220.104" fill="#FFFFFF" width="46.064" height="227.828"/>
		<path fill="#292E33" d="M1664.149,2461.488h-72.387v-254.939h72.387V2461.488z M1618.085,2434.377h19.742V2233.66h-19.742
			V2434.377z"/>
	</g>
	<g>
		<rect x="2934.231" y="2220.104" fill="#FFFFFF" width="46.066" height="227.828"/>
		<path fill="#292E33" d="M2993.458,2461.488h-72.389v-254.939h72.389V2461.488z M2947.393,2434.377h19.743V2233.66h-19.743
			V2434.377z"/>
	</g>
	<g>
		<rect x="3864.309" y="2220.104" fill="#FFFFFF" width="46.066" height="227.828"/>
		<path fill="#292E33" d="M3923.535,2461.488h-72.389v-254.939h72.389V2461.488z M3877.471,2434.377h19.742V2233.66h-19.742
			V2434.377z"/>
	</g>
	<g>
		<rect x="4258.342" y="2152.325" fill="#FFFFFF" width="172.746" height="295.607"/>
		<path fill="#292E33" d="M4444.248,2461.488h-199.066v-322.72h199.066V2461.488z M4271.504,2434.377h146.422v-268.496h-146.422
			V2434.377z"/>
	</g>
	<g>
		<rect x="4429.441" y="2152.325" fill="#FFFFFF" width="357.006" height="295.607"/>
		<path fill="#292E33" d="M4799.608,2461.488H4416.28v-322.72h383.328V2461.488z M4442.604,2434.377h330.682v-268.496h-330.682
			V2434.377z"/>
	</g>
	<g>
		<polygon fill="#FFFFFF" points="4429.441,2152.325 4786.447,2152.325 4871.996,2285.263 4514.99,2285.263 		"/>
		<path fill="#292E33" d="M4896.506,2298.818h-388.584l-102.996-160.05h388.584L4896.506,2298.818z M4522.055,2271.707h325.425
			l-68.103-105.826h-325.425L4522.055,2271.707z"/>
	</g>
	<g>
		<rect x="4480.699" y="2370.344" fill="#292E33" width="62.518" height="27.111"/>
	</g>
	<g>
		<path fill="#292E33" d="M1508.419,2461.488h-26.322v-27.111h26.322V2461.488z M1455.774,2461.488h-26.323v-27.111h26.323V2461.488
			z M1403.128,2461.488h-26.322v-27.111h26.322V2461.488z M1350.483,2461.488h-26.323v-27.111h26.323V2461.488z M1297.836,2461.488
			h-26.323v-27.111h26.323V2461.488z M1245.191,2461.488h-26.323v-27.111h26.323V2461.488z M1192.545,2461.488h-26.323v-27.111
			h26.323V2461.488z"/>
	</g>
</g>
</svg>
